,start,end,pitch,velocity
0,3.912109375,4.1875,60.0,78.0
1,4.380859375,4.6171875,56.0,79.0
2,4.380859375,4.62109375,60.0,85.0
3,4.380859375,4.67578125,63.0,85.0
4,3.443359375,5.16796875,44.0,86.0
5,4.849609375,5.494140625,60.0,81.0
6,5.787109375,5.951171875,56.0,71.0
7,5.787109375,5.951171875,60.0,74.0
8,6.255859375,6.423828125,56.0,81.0
9,6.255859375,6.474609375,63.0,84.0
10,5.318359375,7.017578125,42.0,86.0
11,6.724609375,7.376953125,56.0,77.0
12,6.724609375,7.435546875,60.0,80.0
13,7.662109375,7.92578125,61.0,78.0
14,7.662109375,7.94921875,56.0,80.0
15,7.193359375,8.173828125,41.0,88.0
16,8.130859375,8.44921875,56.0,86.0
17,8.130859375,8.521484375,65.0,89.0
18,8.599609375,9.087890625,56.0,79.0
19,8.599609375,9.09375,61.0,83.0
20,9.068359375,9.447265625,58.0,78.0
21,9.537109375,9.7265625,62.0,81.0
22,9.537109375,9.76171875,58.0,81.0
23,10.005859375,10.232421875,58.0,84.0
24,10.005859375,10.27734375,65.0,89.0
25,9.068359375,10.84375,46.0,86.0
26,10.474609375,10.888671875,62.0,80.0
27,10.474609375,10.912109375,58.0,80.0
28,10.943359375,11.673828125,56.0,80.0
29,10.943359375,11.701171875,63.0,85.0
30,11.880859375,12.080078125,56.0,85.0
31,11.880859375,12.35546875,60.0,87.0
32,12.349609375,12.60546875,56.0,88.0
33,11.412109375,12.626953125,51.0,79.0
34,10.943359375,12.63671875,44.0,86.0
35,12.818359375,13.556640625,58.0,78.0
36,13.755859375,13.978515625,58.0,73.0
37,13.287109375,13.984375,53.0,86.0
38,12.818359375,14.130859375,46.0,86.0
39,13.755859375,14.283203125,65.0,82.0
40,14.224609375,14.5546875,58.0,74.0
41,14.693359375,15.1328125,63.0,81.0
42,14.693359375,15.185546875,56.0,78.0
43,15.162109375,15.33984375,60.0,79.0
44,15.630859375,16.076171875,63.0,86.0
45,15.630859375,16.486328125,56.0,84.0
46,16.099609375,16.544921875,60.0,90.0
47,14.693359375,16.5703125,39.0,86.0
48,16.568359375,16.5703125,39.0,87.0
49,16.568359375,16.80859375,58.0,72.0
50,16.568359375,17.09765625,63.0,78.0
51,17.037109375,17.322265625,58.0,78.0
52,17.505859375,17.689453125,58.0,81.0
53,17.505859375,17.869140625,67.0,78.0
54,17.505859375,17.900390625,63.0,85.0
55,17.974609375,18.095703125,58.0,81.0
56,18.443359375,19.091796875,63.0,81.0
57,18.443359375,19.1328125,56.0,77.0
58,18.912109375,19.63671875,51.0,78.0
59,19.380859375,19.96853756875,56.0,79.0
60,19.380859375,20.0441188375,61.0,77.0
61,18.443359375,20.20884724375,44.0,85.0
62,19.84838273125,20.34450593125,51.0,78.0
63,20.31349823125,20.86388490625,60.0,76.0
64,20.31349823125,21.01504744375,56.0,78.0
65,21.24372923125,21.745666375,60.0,73.0
66,21.24372923125,21.79023994375,63.0,79.0
67,20.77861373125,21.84062745625,51.0,61.0
68,20.31349823125,21.914270743750002,44.0,84.0
69,22.17396023125,22.70296895625,60.0,79.0
70,22.17396023125,23.07601583125,56.0,76.0
71,23.10921895625,23.64632833125,63.0,87.0
72,23.57796895625,23.87484395625,56.0,87.0
73,24.04671895625,24.18734395625,56.0,68.0
74,24.04671895625,24.38070333125,60.0,69.0
75,24.98421895625,25.15414083125,56.0,79.0
76,24.98421895625,25.21273458125,60.0,78.0
77,24.98421895625,25.29476583125,63.0,83.0
78,22.64046895625,25.37289083125,51.0,61.0
79,22.17396023125,25.43148458125,44.0,86.0
80,25.92171895625,26.37679708125,60.0,79.0
81,25.92171895625,26.38265645625,56.0,78.0
82,25.92171895625,26.55062520625,44.0,84.0
83,26.39046895625,26.62289083125,51.0,72.0
84,26.85921895625,27.12484395625,60.0,78.0
85,26.85921895625,27.17171895625,48.0,85.0
86,26.85921895625,27.39437520625,63.0,80.0
87,27.32796895625,27.47445333125,60.0,90.0
88,27.79671895625,28.05257833125,56.0,76.0
89,27.79671895625,28.35531270625,61.0,78.0
90,28.26546895625,28.80453145625,56.0,67.0
91,28.73421895625,29.09359395625,61.0,82.0
92,29.20296895625,29.24593770625,61.0,41.0
93,27.79671895625,29.25179708125,49.0,83.0
94,28.73421895625,29.28109395625,65.0,88.0
95,29.20296895625,29.39046895625,56.0,89.0
96,29.67171895625,30.19515645625,61.0,79.0
97,29.67171895625,30.23031270625,58.0,68.0
98,30.60921895625,30.70882833125,58.0,84.0
99,30.60921895625,30.72054708125,65.0,86.0
100,29.67171895625,31.35531270625,46.0,85.0
101,30.14046895625,31.37875020625,53.0,65.0
102,31.54671895625,31.81625020625,58.0,68.0
103,31.54671895625,31.84554708125,61.0,74.0
104,32.484218956250004,32.667812706250004,58.0,85.0
105,32.484218956250004,32.689297081250004,65.0,86.0
106,32.015468956250004,32.845547081250004,53.0,60.0
107,31.54671895625,32.902187706250004,46.0,82.0
108,33.421718956250004,33.761562706250004,56.0,78.0
109,33.421718956250004,33.902187706250004,62.0,73.0
110,34.359218956250004,34.701015831250004,65.0,86.0
111,34.359218956250004,34.730312706250004,58.0,82.0
112,33.890468956250004,34.874843956250004,53.0,82.0
113,33.421718956250004,34.923672081250004,46.0,86.0
114,34.827968956250004,35.271328331250004,62.0,89.0
115,35.296718956250004,35.687343956250004,63.0,85.0
116,35.765468956250004,36.343593956250004,58.0,86.0
117,36.234218956250004,36.515468956250004,67.0,86.0
118,35.296718956250004,36.574062706250004,51.0,83.0
119,36.702968956250004,36.800625206250004,63.0,80.0
120,37.171718956250004,37.747890831250004,60.0,76.0
121,37.171718956250004,37.777187706250004,56.0,69.0
122,38.109218956250004,38.224453331250004,63.0,85.0
123,38.109218956250004,38.257656456250004,56.0,85.0
124,37.171718956250004,38.742031456250004,44.0,86.0
125,37.640468956250004,38.781093956250004,51.0,74.0
126,39.046718956250004,39.5512911125,60.0,77.0
127,39.046718956250004,39.57648486875,56.0,70.0
128,39.51446946875,40.11524365625,51.0,70.0
129,39.046718956250004,40.23152253125001,44.0,85.0
130,39.979584968750004,40.262530231250004,56.0,81.0
131,39.979584968750004,40.3419874625,60.0,87.0
132,39.979584968750004,40.388499012500006,63.0,86.0
133,40.44470046875001,40.82066883125,44.0,88.0
134,40.90981596875,41.126869868750006,56.0,79.0
135,40.90981596875,41.442760812500005,61.0,81.0
136,41.374931468750006,41.7295820375,56.0,74.0
137,41.84004696875,42.043535000000006,61.0,83.0
138,41.84004696875,42.057100868750005,56.0,78.0
139,41.84004696875,42.06097683125,65.0,81.0
140,40.919505875000006,42.090046550000004,53.0,78.0
141,40.90981596875,42.55710003125,49.0,86.0
142,42.77027796875,43.14237036875001,56.0,70.0
143,42.77027796875,43.26640116875001,61.0,73.0
144,43.70050896875,43.892369112500006,56.0,85.0
145,43.70050896875,44.000896062500004,61.0,87.0
146,42.77027796875,44.078415312500006,49.0,80.0
147,44.16562446875,44.4621356,60.0,89.0
148,44.63073996875001,45.260583875,58.0,81.0
149,45.560970968750006,45.71600946875,62.0,88.0
150,45.560970968750006,45.725699375000005,58.0,86.0
151,45.09585546875,45.82453641875001,53.0,83.0
152,44.63073996875001,45.84004026875,46.0,86.0
153,46.491201968750005,47.008642962500005,65.0,83.0
154,46.491201968750005,47.012518925,62.0,74.0
155,46.491201968750005,47.03771268125001,58.0,74.0
156,47.421432968750004,47.636548887500005,58.0,84.0
157,47.421432968750004,47.7373239125,62.0,91.0
158,46.95631746875,47.781897481250006,53.0,74.0
159,46.491201968750005,47.86523067500001,46.0,85.0
160,47.88654846875001,48.2140673,58.0,86.0
161,48.35166396875,48.55708998125,58.0,82.0
162,48.35166396875,48.9931357625,63.0,85.0
163,48.816779468750006,49.070655012500005,58.0,75.0
164,49.28189496875,49.47569309375,58.0,85.0
165,49.28189496875,49.752824412500004,65.0,86.0
166,48.35166396875,49.99119610625,51.0,85.0
167,49.747010468750005,50.000886012500004,63.0,85.0
168,50.21212596875,50.458249587500006,58.0,80.0
169,50.21212596875,50.650109731250005,67.0,82.0
170,50.677241468750005,51.05320983125,58.0,86.0
171,51.14235696875001,51.39235655,58.0,86.0
172,51.14235696875001,51.456309931250004,63.0,86.0
173,51.607472468750004,51.967936981250006,58.0,81.0
174,51.607472468750004,52.01057256875001,61.0,76.0
175,50.21212596875,52.01832449375,51.0,88.0
176,52.07258796875001,52.326675525000006,56.0,79.0
177,52.07258796875001,52.510269275000006,60.0,79.0
178,52.539566150000006,52.898941150000006,56.0,85.0
179,52.305191150000006,53.070816150000006,51.0,76.0
180,53.008316150000006,53.281753650000006,56.0,86.0
181,53.008316150000006,53.484878650000006,63.0,86.0
182,53.242691150000006,53.559097400000006,51.0,80.0
183,52.07258796875001,53.631363025000006,44.0,86.0
184,53.711441150000006,53.879409900000006,60.0,77.0
185,53.477066150000006,53.881363025000006,56.0,85.0
186,53.945816150000006,54.672378650000006,60.0,85.0
187,54.648941150000006,54.791519275000006,56.0,77.0
188,54.414566150000006,54.945816150000006,48.0,74.0
189,53.945816150000006,55.213394275000006,41.0,87.0
190,55.117691150000006,55.254409900000006,48.0,84.0
191,54.883316150000006,55.416519275000006,65.0,89.0
192,55.352066150000006,55.648941150000006,60.0,85.0
193,55.586441150000006,55.717300525000006,56.0,77.0
194,55.820816150000006,56.076675525000006,56.0,81.0
195,55.820816150000006,56.375503650000006,61.0,77.0
196,56.289566150000006,56.430191150000006,56.0,78.0
197,55.820816150000006,56.854019275000006,49.0,86.0
198,56.758316150000006,57.033706775000006,56.0,86.0
199,56.992691150000006,57.148941150000006,49.0,87.0
200,56.758316150000006,57.199722400000006,65.0,87.0
201,57.227066150000006,57.451675525000006,61.0,84.0
202,57.461441150000006,57.697769275000006,60.0,92.0
203,57.695816150000006,58.115738025000006,61.0,86.0
204,58.164566150000006,58.311050525000006,58.0,81.0
205,57.930191150000006,58.494644275000006,53.0,81.0
206,58.398941150000006,58.676284900000006,61.0,90.0
207,58.633316150000006,58.945816150000006,53.0,88.0
208,58.867691150000006,59.023941150000006,58.0,85.0
209,58.867691150000006,59.045425525000006,65.0,89.0
210,57.695816150000006,59.143081775000006,46.0,86.0
211,59.102066150000006,59.221206775000006,53.0,82.0
212,59.336441150000006,59.488784900000006,58.0,76.0
213,59.570816150000006,60.068863025000006,61.0,86.0
214,59.570816150000006,60.105972400000006,58.0,83.0
215,60.039566150000006,60.619644275000006,53.0,76.0
216,60.508316150000006,60.732925525000006,58.0,84.0
217,60.508316150000006,60.775894275000006,61.0,88.0
218,60.508316150000006,60.791519275000006,65.0,87.0
219,59.570816150000006,61.275894275000006,46.0,87.0
220,60.742691150000006,61.279800525000006,53.0,85.0
221,60.977066150000006,61.309097400000006,58.0,83.0
222,61.445816150000006,61.957534900000006,58.0,77.0
223,61.445816150000006,61.957534900000006,61.0,75.0
224,62.148941150000006,62.279800525000006,58.0,74.0
225,61.914566150000006,62.480972400000006,53.0,70.0
226,62.383316150000006,62.604019275000006,58.0,78.0
227,62.383316150000006,62.889175525000006,61.0,86.0
228,62.383316150000006,62.889175525000006,65.0,88.0
229,62.852066150000006,63.023941150000006,58.0,87.0
230,62.617691150000006,63.174331775000006,53.0,81.0
231,61.445816150000006,63.197769275000006,46.0,86.0
232,63.320816150000006,63.826675525000006,56.0,86.0
233,63.320816150000006,63.975113025000006,62.0,77.0
234,63.789566150000006,64.31690990000001,53.0,86.0
235,63.320816150000006,64.38136302500001,46.0,86.0
236,64.25831615000001,64.52394115000001,58.0,86.0
237,64.25831615000001,64.54542552500001,65.0,96.0
238,64.49269115000001,64.71730052500001,53.0,87.0
239,64.72706615000001,64.91456615000001,62.0,88.0
240,64.72706615000001,64.95558177500001,58.0,85.0
241,65.19581615000001,65.36769115000001,58.0,86.0
242,65.19581615000001,65.72706615000001,63.0,86.0
243,65.66456615000001,65.81105052500001,58.0,89.0
244,65.19581615000001,66.00636302500001,51.0,90.0
245,66.13331615000001,66.37550365000001,58.0,85.0
246,66.13331615000001,66.39112865000001,63.0,87.0
247,66.36769115000001,66.49269115000001,65.0,88.0
248,66.13331615000001,66.57276927500001,51.0,91.0
249,66.60206615000001,66.75440990000001,67.0,94.0
250,67.07081615000001,67.32667552500001,56.0,79.0
251,67.07081615000001,67.51026927500001,60.0,79.0
252,67.53956615000001,67.89894115000001,56.0,85.0
253,67.30519115000001,68.07081615000001,51.0,76.0
254,68.00831615000001,68.28175365000001,56.0,86.0
255,68.00831615000001,68.48487865000001,63.0,86.0
256,68.24269115000001,68.55909740000001,51.0,80.0
257,67.07081615000001,68.63136302500001,44.0,86.0
258,68.71144115000001,68.87940990000001,60.0,77.0
259,68.47706615000001,68.88136302500001,56.0,85.0
260,68.94581615000001,69.67237865000001,60.0,85.0
261,69.64894115000001,69.79151927500001,56.0,77.0
262,69.41456615000001,69.94581615000001,48.0,74.0
263,68.94581615000001,70.21339427500001,41.0,87.0
264,70.11769115000001,70.25440990000001,48.0,84.0
265,69.88331615000001,70.41651927500001,65.0,89.0
266,70.35206615000001,70.64894115000001,60.0,85.0
267,70.58644115000001,70.71730052500001,56.0,77.0
268,70.82081615000001,71.07667552500001,56.0,81.0
269,70.82081615000001,71.37550365000001,61.0,77.0
270,71.28956615000001,71.43019115000001,56.0,78.0
271,70.82081615000001,71.85401927500001,49.0,86.0
272,71.75831615000001,72.03370677500001,56.0,86.0
273,71.99269115000001,72.14894115000001,49.0,87.0
274,71.75831615000001,72.19972240000001,65.0,87.0
275,72.22706615000001,72.45167552500001,61.0,84.0
276,72.46144115000001,72.69776927500001,60.0,92.0
277,72.69581615000001,73.11573802500001,61.0,86.0
278,73.16456615000001,73.31105052500001,58.0,81.0
279,72.93019115000001,73.49464427500001,53.0,81.0
280,73.39894115000001,73.67628490000001,61.0,90.0
281,73.63331615000001,73.94581615000001,53.0,88.0
282,73.86769115000001,74.02394115000001,58.0,85.0
283,73.86769115000001,74.04542552500001,65.0,89.0
284,72.69581615000001,74.14308177500001,46.0,86.0
285,74.10206615000001,74.22120677500001,53.0,82.0
286,74.33644115000001,74.48878490000001,58.0,76.0
287,74.57081615000001,75.06886302500001,61.0,86.0
288,74.57081615000001,75.10597240000001,58.0,83.0
289,75.03956615000001,75.61964427500001,53.0,76.0
290,75.50831615000001,75.73292552500001,58.0,84.0
291,75.50831615000001,75.77589427500001,61.0,88.0
292,75.50831615000001,75.79151927500001,65.0,87.0
293,74.57081615000001,76.27589427500001,46.0,87.0
294,75.74269115000001,76.27980052500001,53.0,85.0
295,75.97706615000001,76.30909740000001,58.0,83.0
296,76.44581615000001,76.95753490000001,58.0,77.0
297,76.44581615000001,76.95753490000001,61.0,75.0
298,77.14894115000001,77.27980052500001,58.0,74.0
299,76.91456615000001,77.48097240000001,53.0,70.0
300,77.38331615000001,77.60401927500001,58.0,78.0
301,77.38331615000001,77.88917552500001,61.0,86.0
302,77.38331615000001,77.88917552500001,65.0,88.0
303,77.85206615000001,78.02394115000001,58.0,87.0
304,77.61769115000001,78.17433177500001,53.0,81.0
305,76.44581615000001,78.19776927500001,46.0,86.0
306,78.32081615000001,78.58253490000001,58.0,81.0
307,78.32081615000001,78.77198802500001,63.0,81.0
308,78.78956615000001,79.10206615000001,58.0,86.0
309,79.02394115000001,79.13917552500001,63.0,85.0
310,78.55519115000001,79.30519115000001,46.0,77.0
311,78.32081615000001,79.51026927500001,39.0,91.0
312,79.25831615000001,79.55519115000001,58.0,86.0
313,79.49269115000001,79.58839427500001,46.0,86.0
314,79.25831615000001,79.67042552500001,67.0,91.0
315,79.72706615000001,79.95558177500001,63.0,86.0
316,79.96144115000001,80.07081615000001,58.0,79.0
317,80.19581615000001,80.71144115000001,60.0,80.0
318,80.19581615000001,80.81690990000001,56.0,80.0
319,80.66456615000001,80.88136302500001,63.0,79.0
320,81.13331615000001,81.31690990000001,68.0,85.0
321,81.13331615000001,81.35206615000001,56.0,92.0
322,80.19581615000001,81.92433177500001,44.0,85.0
323,81.36769115000001,81.94386302500001,51.0,86.0
324,81.83644115000001,82.01026927500001,60.0,81.0
325,81.60206615000001,82.02589427500001,56.0,85.0
326,82.07081615000001,82.60011302500001,56.0,72.0
327,82.07081615000001,82.60206615000001,63.0,83.0
328,82.07081615000001,82.60401927500001,60.0,80.0
329,82.53956615000001,83.06690990000001,51.0,74.0
330,83.00831615000001,83.36378490000001,56.0,87.0
331,83.00831615000001,83.53565990000001,63.0,85.0
332,83.24269115000001,83.64503490000001,51.0,82.0
333,82.07081615000001,83.68605052500001,44.0,86.0
334,83.47706615000001,83.72901927500001,60.0,76.0
335,83.71144115000001,83.84815990000001,56.0,86.0
336,83.94581615000001,84.71534740000001,58.0,80.0
337,84.64894115000001,84.83644115000001,61.0,83.0
338,83.94581615000001,85.16456615000001,54.0,81.0
339,84.88331615000001,85.19581615000001,66.0,87.0
340,83.94581615000001,85.38331615000001,42.0,85.0
341,85.11769115000001,85.38917552500001,61.0,86.0
342,84.41456615000001,85.40284740000001,49.0,78.0
343,85.35206615000001,85.60987865000001,58.0,82.0
344,85.58644115000001,85.67823802500001,54.0,82.0
345,85.82081615000001,86.08058177500001,56.0,75.0
346,85.82081615000001,86.42823802500001,61.0,85.0
347,86.28956615000001,86.57667552500001,56.0,79.0
348,86.75831615000001,86.92042552500001,56.0,85.0
349,86.75831615000001,87.04347240000001,61.0,87.0
350,86.75831615000001,87.22511302500001,65.0,89.0
351,86.99269115000001,87.28956615000001,56.0,80.0
352,85.82081615000001,87.33058177500001,49.0,81.0
353,87.22706615000001,87.43800365000001,61.0,79.0
354,87.46144115000001,87.67237865000001,56.0,81.0
355,87.69581615000001,88.10206615000001,56.0,77.0
356,87.69581615000001,88.34230052500001,59.0,87.0
357,88.39894115000001,88.58253490000001,56.0,84.0
358,88.63331615000001,88.90480052500001,64.0,96.0
359,87.69581615000001,88.97901927500001,40.0,90.0
360,88.16456615000001,89.02198802500001,47.0,76.0
361,88.86769115000001,89.11769115000001,59.0,94.0
362,89.10206615000001,89.50245677500001,56.0,86.0
363,89.57081615000001,89.75440990000001,56.0,83.0
364,89.57081615000001,89.88722240000001,68.0,81.0
365,89.80519115000001,90.09425365000001,63.0,80.0
366,90.03956615000001,90.25636302500001,56.0,84.0
367,90.27394115000001,90.34230052500001,56.0,79.0
368,90.27394115000001,90.55714427500001,68.0,87.0
369,90.50831615000001,90.78956615000001,63.0,85.0
370,90.74269115000001,90.86573802500001,56.0,83.0
371,90.97706615000001,91.08253490000001,56.0,87.0
372,90.97706615000001,91.27003490000001,63.0,89.0
373,91.21144115000001,91.29542552500001,56.0,85.0
374,89.57081615000001,91.31105052500001,39.0,86.0
375,91.44581615000001,91.72315990000001,58.0,76.0
376,91.44581615000001,91.82667552500001,63.0,86.0
377,91.91456615000001,92.22706615000001,58.0,85.0
378,91.44581615000001,92.42042552500001,39.0,90.0
379,92.38331615000001,92.65480052500001,58.0,87.0
380,92.38331615000001,92.67628490000001,67.0,89.0
381,92.61769115000001,92.85987865000001,63.0,82.0
382,92.85206615000001,92.98683177500001,58.0,88.0
383,93.32081615000001,93.79151927500001,60.0,89.0
384,93.32081615000001,93.83839427500001,56.0,82.0
385,93.78956615000001,94.36183177500001,51.0,84.0
386,94.25831615000001,94.42042552500001,56.0,86.0
387,94.43605052500001,94.49269115000001,56.0,78.0
388,94.25831615000001,94.58253490000001,61.0,89.0
389,93.32081615000001,94.86378490000001,44.0,80.0
390,94.72706615000001,94.91261302500001,56.0,86.0
391,94.49269115000001,94.98097240000001,51.0,79.0
392,94.96144115000001,95.12940990000001,61.0,74.0
393,95.19581615000001,95.66847240000001,56.0,82.0
394,95.19581615000001,95.67433177500001,60.0,84.0
395,95.66456615000001,96.29933177500001,51.0,74.0
396,95.19581615000001,96.73487865000001,44.0,86.0
397,96.13331615000001,96.96730052500001,63.0,78.0
398,96.60206615000001,97.00245677500001,51.0,81.0
399,96.13331615000001,97.00636302500001,56.0,76.0
400,96.13331615000001,97.01026927500001,60.0,77.0
401,97.07081615000001,97.60206615000001,60.0,79.0
402,97.07081615000001,97.97511302500001,56.0,76.0
403,98.00831615000001,98.54542552500001,63.0,87.0
404,98.47706615000001,98.77394115000001,56.0,87.0
405,98.94581615000001,99.08644115000001,56.0,68.0
406,98.94581615000001,99.27980052500001,60.0,69.0
407,99.88331615000001,100.05323802500001,56.0,79.0
408,99.88331615000001,100.11183177500001,60.0,78.0
409,99.88331615000001,100.19386302500001,63.0,83.0
410,97.53956615000001,100.27198802500001,51.0,61.0
411,97.07081615000001,100.33058177500001,44.0,86.0
412,100.82081615000001,101.27589427500001,60.0,79.0
413,100.82081615000001,101.28175365000001,56.0,78.0
414,100.82081615000001,101.44972240000001,44.0,84.0
415,101.28956615000001,101.52198802500001,51.0,72.0
416,101.75831615000001,102.02394115000001,60.0,78.0
417,101.75831615000001,102.07081615000001,48.0,85.0
418,101.75831615000001,102.29347240000001,63.0,80.0
419,102.22706615000001,102.37355052500001,60.0,90.0
420,102.69581615000001,102.95167552500001,56.0,76.0
421,102.69581615000001,103.25440990000001,61.0,78.0
422,103.16456615000001,103.70362865000001,56.0,67.0
423,103.63331615000001,103.99269115000001,61.0,82.0
424,104.10206615000001,104.14503490000001,61.0,41.0
425,102.69581615000001,104.15089427500001,49.0,83.0
426,103.63331615000001,104.18019115000001,65.0,88.0
427,104.10206615000001,104.28956615000001,56.0,89.0
428,104.57081615000001,105.09425365000001,61.0,79.0
429,104.57081615000001,105.12940990000001,58.0,68.0
430,105.50831615000001,105.60792552500001,58.0,84.0
431,105.50831615000001,105.61964427500001,65.0,86.0
432,104.57081615000001,106.25440990000001,46.0,85.0
433,105.03956615000001,106.27784740000001,53.0,65.0
434,106.44581615000001,106.71534740000001,58.0,68.0
435,106.44581615000001,106.74464427500001,61.0,74.0
436,107.38331615000001,107.56690990000001,58.0,85.0
437,107.38331615000001,107.58839427500001,65.0,86.0
438,106.91456615000001,107.74464427500001,53.0,60.0
439,106.44581615000001,107.80128490000001,46.0,82.0
440,108.32081615000001,108.66065990000001,56.0,78.0
441,108.32081615000001,108.80128490000001,62.0,73.0
442,109.25831615000001,109.60011302500001,65.0,86.0
443,109.25831615000001,109.62940990000001,58.0,82.0
444,108.78956615000001,109.77394115000001,53.0,82.0
445,108.32081615000001,109.82276927500001,46.0,86.0
446,109.72706615000001,110.17042552500001,62.0,89.0
447,110.19581615000001,110.58644115000001,63.0,85.0
448,110.66456615000001,111.24269115000001,58.0,86.0
449,111.13331615000001,111.41456615000001,67.0,86.0
450,110.19581615000001,111.47315990000001,51.0,83.0
451,111.60206615000001,111.69972240000001,63.0,80.0
452,112.07081615000001,112.64698802500001,60.0,76.0
453,112.07081615000001,112.67628490000001,56.0,69.0
454,113.00831615000001,113.12355052500001,63.0,85.0
455,113.00831615000001,113.15675365000001,56.0,85.0
456,112.07081615000001,113.64112865000001,44.0,86.0
457,112.53956615000001,113.68019115000001,51.0,74.0
458,113.94581615000001,114.45167552500001,60.0,77.0
459,113.94581615000001,114.47706615000001,56.0,70.0
460,114.41456615000001,115.02003490000001,51.0,70.0
461,113.94581615000001,115.13722240000001,44.0,85.0
462,114.88331615000001,115.16847240000001,56.0,81.0
463,114.88331615000001,115.24855052500001,60.0,87.0
464,114.88331615000001,115.29542552500001,63.0,86.0
465,115.35206615000001,115.73097240000001,44.0,88.0
466,115.82081615000001,116.03956615000001,56.0,79.0
467,115.82081615000001,116.35792552500001,61.0,79.0
468,116.28956615000001,116.64698802500001,56.0,74.0
469,116.75831615000001,116.96339427500001,61.0,83.0
470,116.75831615000001,116.97706615000001,56.0,78.0
471,116.75831615000001,116.98097240000001,65.0,81.0
472,115.83448802500001,117.13331615000001,53.0,79.0
473,115.82081615000001,117.48097240000001,49.0,79.0
474,117.69581615000001,118.07081615000001,56.0,70.0
475,117.69581615000001,118.19581615000001,61.0,73.0
476,118.63331615000001,118.82667552500001,56.0,85.0
477,118.63331615000001,118.93605052500001,61.0,87.0
478,117.69581615000001,119.01417552500001,49.0,80.0
479,119.10206615000001,119.40089427500001,60.0,89.0
480,119.57081615000001,120.20558177500001,58.0,81.0
481,120.50831615000001,120.66456615000001,62.0,88.0
482,120.50831615000001,120.67433177500001,58.0,86.0
483,120.03956615000001,120.77394115000001,53.0,83.0
484,119.57081615000001,120.78956615000001,46.0,86.0
485,121.44581615000001,121.96730052500001,65.0,83.0
486,121.44581615000001,121.97120677500001,62.0,74.0
487,121.44581615000001,121.99659740000001,58.0,74.0
488,122.38331615000001,122.60011302500001,58.0,84.0
489,122.38331615000001,122.70167552500001,62.0,91.0
490,121.91456615000001,122.74659740000001,53.0,74.0
491,121.44581615000001,122.83058177500001,46.0,85.0
492,122.85206615000001,123.18214427500001,58.0,86.0
493,123.32081615000001,123.52784740000001,58.0,82.0
494,123.32081615000001,123.96730052500001,63.0,85.0
495,123.78956615000001,124.04542552500001,58.0,75.0
496,124.25831615000001,124.45362865000001,58.0,85.0
497,124.25831615000001,124.73292552500001,65.0,86.0
498,123.32081615000001,124.97315990000001,51.0,85.0
499,124.72706615000001,124.98292552500001,63.0,85.0
500,125.19581615000001,125.44386302500001,58.0,80.0
501,125.19581615000001,125.63722240000001,67.0,82.0
502,125.66456615000001,126.04347240000001,58.0,86.0
503,126.13331615000001,126.38526927500001,58.0,86.0
504,126.13331615000001,126.44972240000001,63.0,86.0
505,126.60206615000001,126.96534740000001,58.0,81.0
506,126.60206615000001,127.00831615000001,61.0,76.0
507,125.19581615000001,127.01612865000001,51.0,88.0
508,127.07081615000001,127.32667552500001,56.0,79.0
509,127.07081615000001,127.51026927500001,60.0,79.0
510,127.53956615000001,127.89894115000001,56.0,85.0
511,127.30519115000001,128.07081615,51.0,76.0
512,128.00831615,128.28175365,56.0,86.0
513,128.00831615,128.48487865,63.0,86.0
514,128.24269115,128.5590974,51.0,80.0
515,127.07081615000001,128.631363025,44.0,86.0
516,128.71144115,128.8794099,60.0,77.0
517,128.47706615,128.881363025,56.0,85.0
518,128.94581615,129.67237865,60.0,85.0
519,129.64894115,129.791519275,56.0,77.0
520,129.41456615,129.94581615,48.0,74.0
521,128.94581615,130.213394275,41.0,87.0
522,130.11769115,130.2544099,48.0,84.0
523,129.88331615,130.416519275,65.0,89.0
524,130.35206615,130.64894115,60.0,85.0
525,130.58644115,130.717300525,56.0,77.0
526,130.82081615,131.076675525,56.0,81.0
527,130.82081615,131.37550365,61.0,77.0
528,131.28956615,131.43019115,56.0,78.0
529,130.82081615,131.854019275,49.0,86.0
530,131.75831615,132.033706775,56.0,86.0
531,131.99269115,132.14894115,49.0,87.0
532,131.75831615,132.1997224,65.0,87.0
533,132.22706615,132.451675525,61.0,84.0
534,132.46144115,132.697769275,60.0,92.0
535,132.69581615,133.115738025,61.0,86.0
536,133.16456615,133.311050525,58.0,81.0
537,132.93019115,133.494644275,53.0,81.0
538,133.39894115,133.6762849,61.0,90.0
539,133.63331615,133.94581615,53.0,88.0
540,133.86769115,134.02394115,58.0,85.0
541,133.86769115,134.045425525,65.0,89.0
542,132.69581615,134.143081775,46.0,86.0
543,134.10206615,134.221206775,53.0,82.0
544,134.33644115,134.4887849,58.0,76.0
545,134.57081615,135.068863025,61.0,86.0
546,134.57081615,135.1059724,58.0,83.0
547,135.03956615,135.619644275,53.0,76.0
548,135.50831615,135.732925525,58.0,84.0
549,135.50831615,135.775894275,61.0,88.0
550,135.50831615,135.791519275,65.0,87.0
551,134.57081615,136.275894275,46.0,87.0
552,135.74269115,136.279800525,53.0,85.0
553,135.97706615,136.3090974,58.0,83.0
554,136.44581615,136.9575349,58.0,77.0
555,136.44581615,136.9575349,61.0,75.0
556,137.14894115,137.279800525,58.0,74.0
557,136.91456615,137.4809724,53.0,70.0
558,137.38331615,137.604019275,58.0,78.0
559,137.38331615,137.889175525,61.0,86.0
560,137.38331615,137.889175525,65.0,88.0
561,137.85206615,138.02394115,58.0,87.0
562,137.61769115,138.174331775,53.0,81.0
563,136.44581615,138.197769275,46.0,86.0
564,138.32081615,138.826675525,56.0,86.0
565,138.32081615,138.975113025,62.0,77.0
566,138.78956615,139.3169099,53.0,86.0
567,138.32081615,139.381363025,46.0,86.0
568,139.25831615,139.52394115,58.0,86.0
569,139.25831615,139.545425525,65.0,96.0
570,139.49269115,139.717300525,53.0,87.0
571,139.72706615,139.91456615,62.0,88.0
572,139.72706615,139.955581775,58.0,85.0
573,140.19581615,140.36769115,58.0,86.0
574,140.19581615,140.72706615,63.0,86.0
575,140.66456615,140.811050525,58.0,89.0
576,140.19581615,141.006363025,51.0,90.0
577,141.13331615,141.37550365,58.0,85.0
578,141.13331615,141.39112865,63.0,87.0
579,141.36769115,141.49269115,65.0,88.0
580,141.13331615,141.572769275,51.0,91.0
581,141.60206615,141.7544099,67.0,94.0
582,142.07081615,142.326675525,56.0,79.0
583,142.07081615,142.510269275,60.0,79.0
584,142.53956615,142.89894115,56.0,85.0
585,142.30519115,143.07081615,51.0,76.0
586,143.00831615,143.28175365,56.0,86.0
587,143.00831615,143.48487865,63.0,86.0
588,143.24269115,143.5590974,51.0,80.0
589,142.07081615,143.631363025,44.0,86.0
590,143.71144115,143.8794099,60.0,77.0
591,143.47706615,143.881363025,56.0,85.0
592,143.94581615,144.67237865,60.0,85.0
593,144.64894115,144.791519275,56.0,77.0
594,144.41456615,144.94581615,48.0,74.0
595,143.94581615,145.213394275,41.0,87.0
596,145.11769115,145.2544099,48.0,84.0
597,144.88331615,145.416519275,65.0,89.0
598,145.35206615,145.64894115,60.0,85.0
599,145.58644115,145.717300525,56.0,77.0
600,145.82081615,146.076675525,56.0,81.0
601,145.82081615,146.37550365,61.0,77.0
602,146.28956615,146.43019115,56.0,78.0
603,145.82081615,146.854019275,49.0,86.0
604,146.75831615,147.033706775,56.0,86.0
605,146.99269115,147.14894115,49.0,87.0
606,146.75831615,147.1997224,65.0,87.0
607,147.22706615,147.451675525,61.0,84.0
608,147.46144115,147.697769275,60.0,92.0
609,147.69581615,148.115738025,61.0,86.0
610,148.16456615,148.311050525,58.0,81.0
611,147.93019115,148.494644275,53.0,81.0
612,148.39894115,148.6762849,61.0,90.0
613,148.63331615,148.94581615,53.0,88.0
614,148.86769115,149.02394115,58.0,85.0
615,148.86769115,149.045425525,65.0,89.0
616,147.69581615,149.143081775,46.0,86.0
617,149.10206615,149.221206775,53.0,82.0
618,149.33644115,149.4887849,58.0,76.0
619,149.57081615,150.068863025,61.0,86.0
620,149.57081615,150.1059724,58.0,83.0
621,150.03956615,150.619644275,53.0,76.0
622,150.50831615,150.732925525,58.0,84.0
623,150.50831615,150.775894275,61.0,88.0
624,150.50831615,150.791519275,65.0,87.0
625,149.57081615,151.275894275,46.0,87.0
626,150.74269115,151.279800525,53.0,85.0
627,150.97706615,151.3090974,58.0,83.0
628,151.44581615,151.9575349,58.0,77.0
629,151.44581615,151.9575349,61.0,75.0
630,152.14894115,152.279800525,58.0,74.0
631,151.91456615,152.4809724,53.0,70.0
632,152.38331615,152.604019275,58.0,78.0
633,152.38331615,152.889175525,61.0,86.0
634,152.38331615,152.889175525,65.0,88.0
635,152.85206615,153.02394115,58.0,87.0
636,152.61769115,153.174331775,53.0,81.0
637,151.44581615,153.197769275,46.0,86.0
638,153.32081615,153.5825349,58.0,81.0
639,153.32081615,153.771988025,63.0,81.0
640,153.78956615,154.10206615,58.0,86.0
641,154.02394115,154.139175525,63.0,85.0
642,153.55519115,154.30519115,46.0,77.0
643,153.32081615,154.510269275,39.0,91.0
644,154.25831615,154.55519115,58.0,86.0
645,154.49269115,154.588394275,46.0,86.0
646,154.25831615,154.670425525,67.0,91.0
647,154.72706615,154.955581775,63.0,86.0
648,154.96144115,155.07081615,58.0,79.0
649,155.19581615,155.553238025,40.0,91.0
650,155.19581615,155.56300365,64.0,79.0
651,155.19581615,155.57081615,52.0,86.0
652,155.66456615,155.72706615,40.0,72.0
653,155.66456615,155.7622224,47.0,68.0
654,155.66456615,155.807144275,64.0,84.0
655,155.66456615,155.811050525,52.0,82.0
656,156.13331615,156.9340974,40.0,101.0
657,156.13331615,156.98487865,47.0,94.0
658,156.13331615,157.018081775,52.0,88.0
659,156.13331615,157.0590974,64.0,84.0
660,157.07081615,157.326675525,57.0,79.0
661,157.07081615,157.510269275,61.0,79.0
662,157.53956615,157.89894115,57.0,85.0
663,157.30519115,158.07081615,52.0,76.0
664,158.00831615,158.28175365,57.0,86.0
665,158.00831615,158.48487865,64.0,86.0
666,158.24269115,158.5590974,52.0,80.0
667,157.07081615,158.631363025,45.0,86.0
668,158.71144115,158.8794099,61.0,77.0
669,158.47706615,158.881363025,57.0,85.0
670,158.94581615,159.67237865,61.0,85.0
671,159.64894115,159.791519275,57.0,77.0
672,159.41456615,159.94581615,49.0,74.0
673,158.94581615,160.213394275,42.0,87.0
674,160.11769115,160.2544099,49.0,84.0
675,159.88331615,160.416519275,66.0,89.0
676,160.35206615,160.64894115,61.0,85.0
677,160.58644115,160.717300525,57.0,77.0
678,160.82081615,161.076675525,57.0,81.0
679,160.82081615,161.37550365,62.0,77.0
680,161.28956615,161.43019115,57.0,78.0
681,160.82081615,161.854019275,50.0,86.0
682,161.75831615,162.033706775,57.0,86.0
683,161.99269115,162.14894115,50.0,87.0
684,161.75831615,162.1997224,66.0,87.0
685,162.22706615,162.451675525,62.0,84.0
686,162.46144115,162.697769275,61.0,92.0
687,162.69581615,163.115738025,62.0,86.0
688,163.16456615,163.311050525,59.0,81.0
689,162.93019115,163.494644275,54.0,81.0
690,163.39894115,163.6762849,62.0,90.0
691,163.63331615,163.94581615,54.0,88.0
692,163.86769115,164.02394115,59.0,85.0
693,163.86769115,164.045425525,66.0,89.0
694,162.69581615,164.143081775,47.0,86.0
695,164.10206615,164.221206775,54.0,82.0
696,164.33644115,164.4887849,59.0,76.0
697,164.57081615,165.068863025,62.0,86.0
698,164.57081615,165.1059724,59.0,83.0
699,165.03956615,165.619644275,54.0,76.0
700,165.50831615,165.732925525,59.0,84.0
701,165.50831615,165.775894275,62.0,88.0
702,165.50831615,165.791519275,66.0,87.0
703,164.57081615,166.275894275,47.0,87.0
704,165.74269115,166.279800525,54.0,85.0
705,165.97706615,166.3090974,59.0,83.0
706,166.44581615,166.9575349,59.0,77.0
707,166.44581615,166.9575349,62.0,75.0
708,167.14894115,167.279800525,59.0,74.0
709,166.91456615,167.4809724,54.0,70.0
710,167.38331615,167.604019275,59.0,78.0
711,167.38331615,167.889175525,62.0,86.0
712,167.38331615,167.889175525,66.0,88.0
713,167.85206615,168.02394115,59.0,87.0
714,167.61769115,168.174331775,54.0,81.0
715,166.44581615,168.197769275,47.0,86.0
716,168.32081615,168.826675525,57.0,86.0
717,168.32081615,168.975113025,63.0,77.0
718,168.78956615,169.3169099,54.0,86.0
719,168.32081615,169.381363025,47.0,86.0
720,169.25831615,169.52394115,59.0,86.0
721,169.25831615,169.545425525,66.0,96.0
722,169.49269115,169.717300525,54.0,87.0
723,169.72706615,169.91456615,63.0,88.0
724,169.72706615,169.955581775,59.0,85.0
725,170.19581615,170.36769115,59.0,86.0
726,170.19581615,170.72706615,64.0,86.0
727,170.66456615,170.811050525,59.0,89.0
728,170.19581615,171.006363025,52.0,90.0
729,171.13331615,171.37550365,59.0,85.0
730,171.13331615,171.39112865,64.0,87.0
731,171.36769115,171.49269115,66.0,88.0
732,171.13331615,171.572769275,52.0,91.0
733,171.60206615,171.7544099,68.0,94.0
734,172.07081615,172.326675525,57.0,79.0
735,172.07081615,172.510269275,61.0,79.0
736,172.53956615,172.89894115,57.0,85.0
737,172.30519115,173.07081615,52.0,76.0
738,173.00831615,173.28175365,57.0,86.0
739,173.00831615,173.48487865,64.0,86.0
740,173.24269115,173.5590974,52.0,80.0
741,172.07081615,173.631363025,45.0,86.0
742,173.71144115,173.8794099,61.0,77.0
743,173.47706615,173.881363025,57.0,85.0
744,173.94581615,174.67237865,61.0,85.0
745,174.64894115,174.791519275,57.0,77.0
746,174.41456615,174.94581615,49.0,74.0
747,173.94581615,175.213394275,42.0,87.0
748,175.11769115,175.2544099,49.0,84.0
749,174.88331615,175.416519275,66.0,89.0
750,175.35206615,175.64894115,61.0,85.0
751,175.58644115,175.717300525,57.0,77.0
752,175.82081615,176.076675525,57.0,81.0
753,175.82081615,176.37550365,62.0,77.0
754,176.28956615,176.43019115,57.0,78.0
755,175.82081615,176.854019275,50.0,86.0
756,176.75831615,177.033706775,57.0,86.0
757,176.99269115,177.14894115,50.0,87.0
758,176.75831615,177.1997224,66.0,87.0
759,177.22706615,177.451675525,62.0,84.0
760,177.46144115,177.697769275,61.0,92.0
761,177.69581615,178.115738025,62.0,86.0
762,178.16456615,178.311050525,59.0,81.0
763,177.93019115,178.494644275,54.0,81.0
764,178.39894115,178.6762849,62.0,90.0
765,178.63331615,178.94581615,54.0,88.0
766,178.86769115,179.02394115,59.0,85.0
767,178.86769115,179.045425525,66.0,89.0
768,177.69581615,179.143081775,47.0,86.0
769,179.10206615,179.221206775,54.0,82.0
770,179.33644115,179.4887849,59.0,76.0
771,179.57081615,180.068863025,62.0,86.0
772,179.57081615,180.1059724,59.0,83.0
773,180.03956615,180.619644275,54.0,76.0
774,180.50831615,180.732925525,59.0,84.0
775,180.50831615,180.775894275,62.0,88.0
776,180.50831615,180.791519275,66.0,87.0
777,179.57081615,181.275894275,47.0,87.0
778,180.74269115,181.279800525,54.0,85.0
779,180.97706615,181.3090974,59.0,83.0
780,181.44581615,181.9575349,59.0,77.0
781,181.44581615,181.9575349,62.0,75.0
782,182.14894115,182.279800525,59.0,74.0
783,181.91456615,182.4809724,54.0,70.0
784,182.38331615,182.604019275,59.0,78.0
785,182.38331615,182.889175525,62.0,86.0
786,182.38331615,182.889175525,66.0,88.0
787,182.85206615,183.02394115,59.0,87.0
788,182.61769115,183.174331775,54.0,81.0
789,181.44581615,183.197769275,47.0,86.0
790,183.32081615,183.5825349,59.0,81.0
791,183.32081615,183.771988025,64.0,81.0
792,183.78956615,184.10206615,59.0,86.0
793,184.02394115,184.139175525,64.0,85.0
794,183.55519115,184.30519115,47.0,77.0
795,183.32081615,184.510269275,40.0,91.0
796,184.25831615,184.55519115,59.0,86.0
797,184.49269115,184.588394275,47.0,86.0
798,184.25831615,184.670425525,68.0,91.0
799,184.72706615,184.955581775,64.0,86.0
800,184.96144115,185.07081615,59.0,79.0
801,185.19581615,185.71144115,61.0,80.0
802,185.19581615,185.8169099,57.0,80.0
803,185.66456615,185.881363025,64.0,79.0
804,186.13331615,186.3169099,69.0,85.0
805,186.13331615,186.35206615,57.0,92.0
806,185.19581615,186.924331775,45.0,85.0
807,186.36769115,186.943863025,52.0,86.0
808,186.83644115,187.010269275,61.0,81.0
809,186.60206615,187.025894275,57.0,85.0
810,187.07081615,187.326675525,57.0,79.0
811,187.07081615,187.510269275,61.0,79.0
812,187.53956615,187.89894115,57.0,85.0
813,187.30519115,188.07081615,52.0,76.0
814,188.00831615,188.28175365,57.0,86.0
815,188.00831615,188.48487865,64.0,86.0
816,188.24269115,188.5590974,52.0,80.0
817,187.07081615,188.631363025,45.0,86.0
818,188.71144115,188.8794099,61.0,77.0
819,188.47706615,188.881363025,57.0,85.0
820,188.94581615,189.67237865,61.0,85.0
821,189.64894115,189.791519275,57.0,77.0
822,189.41456615,189.94581615,49.0,74.0
823,188.94581615,190.213394275,42.0,87.0
824,190.11769115,190.2544099,49.0,84.0
825,189.88331615,190.416519275,66.0,89.0
826,190.35206615,190.64894115,61.0,85.0
827,190.58644115,190.717300525,57.0,77.0
828,190.82081615,191.076675525,57.0,81.0
829,190.82081615,191.37550365,62.0,77.0
830,191.28956615,191.43019115,57.0,78.0
831,190.82081615,191.854019275,50.0,86.0
832,191.75831615,192.033706775,57.0,86.0
833,191.99269115,192.14894115,50.0,87.0
834,191.75831615,192.1997224,66.0,87.0
835,192.22706615,192.451675525,62.0,84.0
836,192.46144115,192.697769275,61.0,92.0
837,192.69581615,193.115738025,62.0,86.0
838,193.16456615,193.311050525,59.0,81.0
839,192.93019115,193.494644275,54.0,81.0
840,193.39894115,193.6762849,62.0,90.0
841,193.63331615,193.94581615,54.0,88.0
842,193.86769115,194.02394115,59.0,85.0
843,193.86769115,194.045425525,66.0,89.0
844,192.69581615,194.143081775,47.0,86.0
845,194.10206615,194.221206775,54.0,82.0
846,194.33644115,194.4887849,59.0,76.0
847,194.57081615,195.068863025,62.0,86.0
848,194.57081615,195.1059724,59.0,83.0
849,195.03956615,195.619644275,54.0,76.0
850,195.50831615,195.732925525,59.0,84.0
851,195.50831615,195.775894275,62.0,88.0
852,195.50831615,195.791519275,66.0,87.0
853,194.57081615,196.275894275,47.0,87.0
854,195.74269115,196.279800525,54.0,85.0
855,195.97706615,196.3090974,59.0,83.0
856,196.44581615,196.9575349,59.0,77.0
857,196.44581615,196.9575349,62.0,75.0
858,197.14894115,197.279800525,59.0,74.0
859,196.91456615,197.4809724,54.0,70.0
860,197.38331615,197.604019275,59.0,78.0
861,197.38331615,197.889175525,62.0,86.0
862,197.38331615,197.889175525,66.0,88.0
863,197.85206615,198.02394115,59.0,87.0
864,197.61769115,198.174331775,54.0,81.0
865,196.44581615,198.197769275,47.0,86.0
866,198.32081615,198.826675525,57.0,86.0
867,198.32081615,198.975113025,63.0,77.0
868,198.78956615,199.3169099,54.0,86.0
869,198.32081615,199.381363025,47.0,86.0
870,199.25831615,199.52394115,59.0,86.0
871,199.25831615,199.545425525,66.0,96.0
872,199.49269115,199.717300525,54.0,87.0
873,199.72706615,199.91456615,63.0,88.0
874,199.72706615,199.955581775,59.0,85.0
875,200.19581615,200.36769115,59.0,86.0
876,200.19581615,200.72706615,64.0,86.0
877,200.66456615,200.811050525,59.0,89.0
878,200.19581615,201.006363025,52.0,90.0
879,201.13331615,201.37550365,59.0,85.0
880,201.13331615,201.39112865,64.0,87.0
881,201.36769115,201.49269115,66.0,88.0
882,201.13331615,201.572769275,52.0,91.0
883,201.60206615,201.7544099,68.0,94.0
884,202.07081615,202.326675525,57.0,79.0
885,202.07081615,202.510269275,61.0,79.0
886,202.53956615,202.89894115,57.0,85.0
887,202.30519115,203.07081615,52.0,76.0
888,203.00831615,203.28175365,57.0,86.0
889,203.00831615,203.48487865,64.0,86.0
890,203.24269115,203.5590974,52.0,80.0
891,202.07081615,203.631363025,45.0,86.0
892,203.71144115,203.8794099,61.0,77.0
893,203.47706615,203.881363025,57.0,85.0
894,203.94581615,204.67237865,61.0,85.0
895,204.64894115,204.791519275,57.0,77.0
896,204.41456615,204.94581615,49.0,74.0
897,203.94581615,205.213394275,42.0,87.0
898,205.11769115,205.2544099,49.0,84.0
899,204.88331615,205.416519275,66.0,89.0
900,205.35206615,205.64894115,61.0,85.0
901,205.58644115,205.717300525,57.0,77.0
902,205.82081615,206.076675525,57.0,81.0
903,205.82081615,206.37550365,62.0,77.0
904,206.28956615,206.43019115,57.0,78.0
905,205.82081615,206.854019275,50.0,86.0
906,206.75831615,207.033706775,57.0,86.0
907,206.99269115,207.14894115,50.0,87.0
908,206.75831615,207.1997224,66.0,87.0
909,207.22706615,207.451675525,62.0,84.0
910,207.46144115,207.697769275,61.0,92.0
911,207.69581615,208.115738025,62.0,86.0
912,208.16456615,208.311050525,59.0,81.0
913,207.93019115,208.494644275,54.0,81.0
914,208.39894115,208.6762849,62.0,90.0
915,208.63331615,208.94581615,54.0,88.0
916,208.86769115,209.02394115,59.0,85.0
917,208.86769115,209.045425525,66.0,89.0
918,207.69581615,209.143081775,47.0,86.0
919,209.10206615,209.221206775,54.0,82.0
920,209.33644115,209.4887849,59.0,76.0
921,209.57081615,210.068863025,62.0,86.0
922,209.57081615,210.1059724,59.0,83.0
923,210.03956615,210.619644275,54.0,76.0
924,210.50831615,210.732925525,59.0,84.0
925,210.50831615,210.775894275,62.0,88.0
926,210.50831615,210.791519275,66.0,87.0
927,209.57081615,211.275894275,47.0,87.0
928,210.74269115,211.279800525,54.0,85.0
929,210.97706615,211.3090974,59.0,83.0
930,211.44581615,211.9575349,59.0,77.0
931,211.44581615,211.9575349,62.0,75.0
932,212.14894115,212.279800525,59.0,74.0
933,211.91456615,212.4809724,54.0,70.0
934,212.38331615,212.604019275,59.0,78.0
935,212.38331615,212.889175525,62.0,86.0
936,212.38331615,212.889175525,66.0,88.0
937,212.85206615,213.02394115,59.0,87.0
938,212.61769115,213.174331775,54.0,81.0
939,211.44581615,213.197769275,47.0,86.0
940,213.32081615,213.5825349,59.0,81.0
941,213.32081615,213.771988025,64.0,81.0
942,213.78956615,214.10206615,59.0,86.0
943,214.02394115,214.139175525,64.0,85.0
944,213.55519115,214.30519115,47.0,77.0
945,213.32081615,214.510269275,40.0,91.0
946,214.25831615,214.55519115,59.0,86.0
947,214.49269115,214.588394275,47.0,86.0
948,214.25831615,214.670425525,68.0,91.0
949,214.72706615,214.955581775,64.0,86.0
950,214.96144115,215.07081615,59.0,79.0
951,215.2309724,215.697769275,69.0,80.0
952,215.193863025,215.721206775,64.0,71.0
953,215.162613025,215.7465974,61.0,81.0
954,215.0903474,215.8715974,57.0,71.0
955,215.631363025,216.342300525,52.0,65.0
956,216.10206615,216.66456615,61.0,79.0
957,216.092300525,216.666519275,64.0,74.0
958,215.1840974,217.0669099,45.0,90.0
959,216.607925525,217.1215974,52.0,51.0
960,217.02394115,218.49269115,57.0,32.0
961,217.045425525,218.49269115,61.0,73.0
962,217.068863025,218.49269115,64.0,66.0
