,start,end,pitch,velocity
0,27.414380474999998,27.70549790625,61.0,84.0
1,27.809115974999997,28.134772762499995,61.0,89.0
2,28.203851474999997,28.578850199999998,66.0,86.0
3,28.598586974999996,29.00483559375,65.0,86.0
4,28.993322474999996,29.289374099999996,66.0,87.0
5,29.388057975,30.291015431249996,66.0,85.0
6,30.572264474999997,30.827197818749998,61.0,84.0
7,30.966999974999997,31.264696331249997,61.0,84.0
8,31.361735474999996,31.726865812499998,66.0,84.0
9,31.756470974999996,32.545941975,65.0,83.0
10,32.545941975,33.1544925375,61.0,87.0
11,33.730148475,33.9900160125,58.0,77.0
12,34.124883974999996,34.404488287499994,58.0,86.0
13,34.519619475,34.8058027125,61.0,92.0
14,34.914354974999995,35.18573563125,61.0,85.0
15,35.309090475,35.58705005625,54.0,84.0
16,35.703825974999994,36.032772224999995,56.0,84.0
17,36.098561475,36.21204793125,54.0,84.0
18,36.295929224999995,36.44559976874999,54.0,83.0
19,36.493296975,36.80086171875,54.0,84.0
20,36.888032474999996,37.19724195,56.0,84.0
21,37.282767975,37.6281615375,58.0,86.0
22,37.677503474999995,38.21204113125,56.0,87.0
23,38.466974474999994,38.754802443749995,54.0,83.0
24,38.861709975,39.177498375,58.0,83.0
25,39.256445475,39.6939439875,56.0,84.0
26,40.045916475,40.33703390625,61.0,84.0
27,40.440651974999994,40.766308762499996,61.0,89.0
28,40.835387475,41.210386199999995,66.0,86.0
29,41.23012297499999,41.63637159375,65.0,86.0
30,41.624858474999996,41.92091009999999,66.0,87.0
31,42.019593975,42.92255143124999,66.0,85.0
32,43.203800474999994,43.536036187499995,66.0,83.0
33,43.598535975,43.94557426874999,68.0,87.0
34,43.99327147499999,44.33702030625,66.0,83.0
35,44.388006974999996,44.743268924999995,70.0,84.0
36,44.782742475,45.11662291875,66.0,84.0
37,45.177477974999995,45.50806895624999,68.0,81.0
38,45.572213475,46.070567043749996,66.0,84.0
39,46.361684475,46.64293351875,73.0,84.0
40,46.75641997499999,47.072208374999995,70.0,82.0
41,47.151155474999996,47.427470324999994,66.0,82.0
42,47.54589097499999,47.858389912499995,68.0,82.0
43,47.940626474999995,48.225164981249996,66.0,83.0
44,48.335361975,48.63305833125,61.0,85.0
45,48.730097474999994,49.322200724999995,66.0,87.0
46,49.51956847499999,49.825488487499996,66.0,86.0
47,49.914303974999996,50.253118612499996,70.0,85.0
48,50.30903947499999,50.585354325,66.0,84.0
49,50.703774974999995,51.415943606249996,66.0,85.0
50,51.493245974999994,52.1281122375,68.0,83.0
51,52.28271697499999,53.29751615625,70.0,86.0
52,53.466923474999994,53.767909293749995,70.0,87.0
53,53.861658975,54.14290801874999,68.0,85.0
54,54.25639447499999,54.547511906249994,70.0,86.0
55,54.651129974999996,54.958694718749996,68.0,84.0
56,55.04586547499999,55.29586462499999,66.0,85.0
57,55.440600974999995,55.72185001875,63.0,85.0
58,55.83533647499999,56.11329605624999,66.0,84.0
59,56.230071974999994,56.508031556249996,68.0,84.0
60,56.624807475,56.89289866874999,70.0,85.0
61,57.01954297499999,57.598488374999995,70.0,84.0
62,57.80901397499999,58.470195937499994,61.0,87.0
63,58.59848497499999,59.550784368749994,70.0,86.0
64,59.78269147499999,60.04913793749999,73.0,85.0
65,60.177426974999996,60.450452362499995,73.0,85.0
66,60.57216247499999,60.82216162499999,70.0,82.0
67,60.966897974999995,61.336962506249996,68.0,81.0
68,61.36163347499999,61.670842949999994,66.0,84.0
69,61.756368974999994,62.16261759374999,66.0,84.0
70,62.54583997499999,63.15110107499999,68.0,86.0
71,63.33531097499999,63.98169035624999,70.0,84.0
72,64.12478197499999,64.8122796375,68.0,82.0
73,68.46687247499999,68.74812151875,73.0,82.0
74,68.861607975,69.15930433125,70.0,89.0
75,69.256343475,69.57706606875,68.0,82.0
76,69.65107897499999,69.93232801875,66.0,84.0
77,70.045814475,70.32706351875,68.0,81.0
78,70.440549975,71.23659989999999,70.0,88.0
79,71.624756475,71.89613713124999,73.0,84.0
80,72.019491975,72.2859384375,70.0,84.0
81,72.41422747499999,72.64613458125,73.0,86.0
82,72.80896297499999,73.53428945625,70.0,84.0
83,73.59843397499999,74.28428690624999,66.0,85.0
84,74.782640475,75.05731059374999,61.0,86.0
85,75.17737597499999,75.48329598749999,63.0,85.0
86,75.57211147499999,75.86322890624999,66.0,84.0
87,75.966846975,76.24316182499999,61.0,84.0
88,76.36158247499999,76.67572614375,63.0,85.0
89,76.75631797499999,77.23493476875,66.0,84.0
90,77.348421225,77.45368402499999,66.0,84.0
91,77.545788975,77.78920919999999,66.0,83.0
92,77.94052447499999,78.20861566875,68.0,84.0
93,78.33525997499999,78.66420622499999,70.0,85.0
94,78.729995475,79.032626025,66.0,85.0
95,79.12473097499999,79.80071551875,70.0,87.0
96,79.914201975,80.52768673124999,68.0,81.0
97,81.09840847499999,81.37965751875,73.0,82.0
98,81.493143975,81.79084033125,70.0,89.0
99,81.88787947499999,82.20860206875,68.0,82.0
100,82.28261497499999,82.56386401875,66.0,84.0
101,82.677350475,82.95859951874999,68.0,81.0
102,83.072085975,83.8681359,70.0,88.0
103,84.256292475,84.52767313125,73.0,84.0
104,84.65102797499999,84.91747443749999,70.0,84.0
105,85.04576347499999,85.27767058124999,73.0,86.0
106,85.440498975,85.835234475,75.0,84.0
107,85.835234475,86.111549325,73.0,84.0
108,86.22996997499999,86.51121901875,70.0,92.0
109,86.62470547499998,87.0885196875,66.0,86.0
110,87.41417647499999,87.68884659374999,61.0,86.0
111,87.80891197499999,88.1148319875,63.0,85.0
112,88.203647475,88.49476490625,66.0,84.0
113,88.59838297499999,88.874697825,61.0,84.0
114,88.99311847499999,89.30726214375,63.0,85.0
115,89.38785397499998,89.86647076874999,66.0,84.0
116,89.97995722499999,90.085220025,66.0,84.0
117,90.17732497499999,90.42074519999998,66.0,83.0
118,90.57206047499999,90.84015166875,68.0,84.0
119,90.966795975,91.295742225,70.0,85.0
120,91.36153147499999,91.664162025,66.0,85.0
121,92.15100247499998,92.4437646375,61.0,85.0
122,92.545737975,93.18224896874999,68.0,82.0
123,93.33520897499999,95.79737165625,66.0,79.0
124,118.99301647499999,119.28413390624999,61.0,84.0
125,119.38775197499999,119.7134087625,61.0,89.0
126,119.78248747499998,120.1574862,66.0,86.0
127,120.17722297499999,120.58347159374999,65.0,86.0
128,120.57195847499999,120.86801009999999,66.0,87.0
129,120.96669397499998,121.86965143124999,66.0,85.0
130,122.15090047499999,122.40583381874998,61.0,84.0
131,122.54563597499998,122.84333233124998,61.0,84.0
132,122.94037147499999,123.30550181249998,66.0,84.0
133,123.33510697499999,124.124577975,65.0,83.0
134,124.124577975,124.7331285375,61.0,87.0
135,125.30878447499998,125.56865201249998,58.0,77.0
136,125.70351997499999,125.98312428749999,58.0,86.0
137,126.09825547499999,126.38443871249999,61.0,92.0
138,126.49299097499998,126.76437163124999,61.0,85.0
139,126.887726475,127.16568605624998,54.0,84.0
140,127.28246197499999,127.61140822499999,56.0,84.0
141,127.67719747499999,127.79068393124999,54.0,84.0
142,127.87456522499998,128.02423576874997,54.0,83.0
143,128.07193297499998,128.37949771874997,54.0,84.0
144,128.46666847499998,128.77587795,56.0,84.0
145,128.86140397499997,129.2067975375,58.0,86.0
146,129.256139475,129.79067713125,56.0,87.0
147,130.045610475,130.33343844375,54.0,83.0
148,130.44034597499999,130.756134375,58.0,83.0
149,130.83508147499998,131.2725799875,56.0,84.0
150,131.62455247499997,131.91566990624997,61.0,84.0
151,132.019287975,132.34494476249998,61.0,89.0
152,132.414023475,132.78902219999998,66.0,86.0
153,132.808758975,133.21500759375,65.0,86.0
154,133.20349447499999,133.49954609999998,66.0,87.0
155,133.59822997499998,134.50118743124997,66.0,85.0
156,134.782436475,135.1146721875,66.0,83.0
157,135.177171975,135.52421026874998,68.0,87.0
158,135.571907475,135.91565630624999,66.0,83.0
159,135.96664297499998,136.32190492499998,70.0,84.0
160,136.36137847499998,136.69525891875,73.0,84.0
161,136.75611397499998,136.9501922625,70.0,81.0
162,136.94196860625,137.1146653875,68.0,79.0
163,137.15084947499997,137.64920304375,66.0,84.0
164,137.940320475,138.22156951875,73.0,84.0
165,138.335055975,138.650844375,70.0,82.0
166,138.72979147499998,139.006106325,66.0,82.0
167,139.12452697499998,139.4370259125,68.0,82.0
168,139.51926247499998,139.80380098125,66.0,83.0
169,139.91399797499997,140.21169433125,61.0,85.0
170,140.308733475,140.90083672499998,66.0,87.0
171,141.098204475,141.40412448749998,66.0,86.0
172,141.49293997499998,141.8317546125,70.0,85.0
173,141.88767547499998,142.163990325,66.0,84.0
174,142.28241097499998,142.99457960625,66.0,85.0
175,143.071881975,143.7067482375,68.0,83.0
176,143.861352975,144.87615215625,70.0,86.0
177,145.04555947499998,145.34654529374998,70.0,87.0
178,145.44029497499997,145.72154401875,68.0,85.0
179,145.835030475,146.12614790625,70.0,86.0
180,146.229765975,146.53733071874998,68.0,84.0
181,146.624501475,146.874500625,66.0,85.0
182,147.01923697499998,147.30048601874998,63.0,85.0
183,147.41397247499998,147.69193205624998,66.0,84.0
184,147.80870797499998,148.08666755624998,68.0,84.0
185,148.20344347499997,148.47153466875,70.0,85.0
186,148.598178975,149.17712437499998,70.0,84.0
187,149.387649975,150.04883193749998,61.0,87.0
188,150.17712097499998,151.12942036874998,70.0,86.0
189,151.361327475,151.6277739375,73.0,85.0
190,151.756062975,152.02908836249998,73.0,85.0
191,152.150798475,152.400797625,70.0,82.0
192,152.54553397499998,152.91559850624998,68.0,81.0
193,152.94026947499998,153.24947895,66.0,84.0
194,153.33500497499998,153.74125359374997,66.0,84.0
195,154.124475975,154.72973707499997,68.0,86.0
196,154.913946975,155.56032635625,70.0,84.0
197,155.70341797499998,156.39091563749997,68.0,82.0
198,160.045508475,160.32675751875,73.0,82.0
199,160.440243975,160.73794033124997,70.0,89.0
200,160.83497947499998,161.15570206874997,68.0,82.0
201,161.22971497499998,161.51096401874997,66.0,84.0
202,161.62445047499997,161.90569951875,68.0,81.0
203,162.01918597499997,162.81523589999998,70.0,88.0
204,163.203392475,163.47477313124998,73.0,84.0
205,163.59812797499998,163.86457443749998,70.0,84.0
206,163.99286347499998,164.22477058124997,73.0,86.0
207,164.38759897499997,165.11292545625,70.0,84.0
208,165.177069975,165.86292290625,66.0,85.0
209,166.36127647499998,166.63594659375,61.0,86.0
210,166.75601197499998,167.06193198749997,63.0,85.0
211,167.15074747499997,167.44186490624998,66.0,84.0
212,167.54548297499997,167.82179782499998,61.0,84.0
213,167.940218475,168.25436214374997,63.0,85.0
214,168.334953975,168.81357076875,66.0,84.0
215,168.92705722499997,169.032320025,66.0,84.0
216,169.12442497499998,169.36784519999998,66.0,83.0
217,169.51916047499998,169.78725166874997,68.0,84.0
218,169.91389597499997,170.24284222499998,70.0,85.0
219,170.30863147499997,170.61126202499997,66.0,85.0
220,170.703366975,171.14908914375,70.0,87.0
221,171.09645774375,171.3119175375,68.0,79.0
222,171.492837975,172.10632273124997,68.0,81.0
223,172.67704447499997,172.95829351875,73.0,82.0
224,173.07177997499997,173.36947633124998,70.0,89.0
225,173.466515475,173.78723806874999,68.0,82.0
226,173.861250975,174.14250001874998,66.0,84.0
227,174.255986475,174.53723551874998,68.0,81.0
228,174.65072197499998,175.4467719,70.0,88.0
229,175.83492847499997,176.10630913125,73.0,84.0
230,176.229663975,176.4961104375,70.0,84.0
231,176.624399475,176.85630658124998,73.0,86.0
232,177.019134975,177.41387047499998,75.0,84.0
233,177.41387047499998,177.690185325,73.0,84.0
234,177.80860597499998,178.08985501874997,70.0,92.0
235,178.20334147499997,178.66715568749999,66.0,86.0
236,178.992812475,179.26748259374997,61.0,86.0
237,179.387547975,179.6934679875,63.0,85.0
238,179.78228347499999,180.07340090625,66.0,84.0
239,180.17701897499998,180.453333825,61.0,84.0
240,180.57175447499998,180.88589814374998,63.0,85.0
241,180.96648997499997,181.44510676874998,66.0,84.0
242,181.55859322499998,181.66385602499997,66.0,84.0
243,181.755960975,181.9993812,66.0,83.0
244,182.150696475,182.41878766874999,68.0,84.0
245,182.54543197499999,182.874378225,70.0,85.0
246,182.94016747499998,183.24279802499998,66.0,85.0
247,183.72963847499997,184.02240063749997,61.0,85.0
248,184.12437397499997,184.49937269999998,68.0,82.0
249,184.5092410875,184.76910862499997,66.0,79.0
250,184.913844975,187.37600765624998,66.0,79.0
251,191.62434847499998,191.90559751874997,73.0,82.0
252,192.01908397499997,192.31678033125,70.0,89.0
253,192.41381947499997,192.73454206875,68.0,82.0
254,192.808554975,193.08980401875,66.0,84.0
255,193.203290475,193.48453951874998,68.0,81.0
256,193.59802597499998,194.3940759,70.0,88.0
257,194.78223247499997,195.05361313125,73.0,84.0
258,195.17696797499997,195.44341443749997,70.0,84.0
259,195.571703475,195.80361058124998,73.0,86.0
260,195.966438975,196.69176545624998,70.0,84.0
261,196.75590997499998,197.44176290624998,66.0,85.0
262,197.94011647499997,198.21478659374998,61.0,86.0
263,198.334851975,198.6407719875,63.0,85.0
264,198.729587475,199.02070490625,66.0,84.0
265,199.12432297499998,199.400637825,61.0,84.0
266,199.51905847499998,199.83320214375,63.0,85.0
267,199.91379397499998,200.39241076874998,66.0,84.0
268,200.50589722499998,200.61116002499998,66.0,84.0
269,200.70326497499997,200.9466852,66.0,83.0
270,201.098000475,201.36609166875,68.0,84.0
271,201.492735975,201.821682225,70.0,85.0
272,201.88747147499998,202.190102025,66.0,85.0
273,202.28220697499998,202.95819151874997,70.0,87.0
274,203.07167797499997,203.68516273125,68.0,81.0
275,204.255884475,204.53713351874998,73.0,82.0
276,204.65061997499998,204.94831633124997,70.0,89.0
277,205.04535547499998,205.36607806874997,68.0,82.0
278,205.44009097499998,205.72134001874997,66.0,84.0
279,205.83482647499997,206.11607551874997,68.0,81.0
280,206.22956197499997,207.02561189999997,70.0,88.0
281,207.41376847499998,207.68514913124997,73.0,84.0
282,207.80850397499998,208.07495043749998,70.0,84.0
283,208.20323947499998,208.43514658124997,73.0,86.0
284,208.59797497499997,208.99271047499997,75.0,84.0
285,208.99271047499997,209.26902532499997,73.0,84.0
286,209.387445975,209.66869501875,70.0,92.0
287,209.782181475,210.24599568749997,66.0,86.0
288,210.57165247499998,210.84632259375,61.0,86.0
289,210.96638797499998,211.27230798749997,63.0,85.0
290,211.36112347499997,211.65224090624997,66.0,84.0
291,211.75585897499997,212.03217382499997,61.0,84.0
292,212.150594475,212.46473814374997,63.0,85.0
293,212.545329975,213.02394676874997,66.0,84.0
294,213.13743322499997,213.242696025,66.0,84.0
295,213.33480097499998,213.57822119999997,66.0,83.0
296,213.72953647499997,213.99762766874997,68.0,84.0
297,214.12427197499997,214.45321822499997,70.0,85.0
298,214.51900747499997,214.82163802499997,66.0,85.0
299,215.308478475,215.60124063749998,61.0,85.0
300,215.70321397499998,216.10946259374998,68.0,82.0
301,216.08479162499998,216.35123808749998,66.0,81.0
302,216.49268497499997,218.95484765624997,66.0,79.0
