,start,end,pitch,velocity
0,1.7565729749999999,2.7138065625,63.0,71.0
1,1.7565729749999999,2.7203854874999998,51.0,83.0
2,1.7565729749999999,3.0657790499999997,66.0,73.0
3,3.3355149749999997,3.9802496249999995,61.0,67.0
4,3.3355149749999997,3.98682855,65.0,74.0
5,3.3355149749999997,4.35031415625,49.0,76.0
6,3.7302504749999996,4.353603618749999,56.0,63.0
7,4.1249859749999995,4.396366631249999,65.0,75.0
8,4.1249859749999995,4.43584018125,61.0,76.0
9,4.1249859749999995,4.43584018125,68.0,70.0
10,4.914456974999999,5.44899463125,59.0,70.0
11,4.914456974999999,5.819059162499999,63.0,72.0
12,5.703927974999999,7.093725881249999,59.0,78.0
13,5.309192475,7.25162008125,54.0,69.0
14,6.0986634749999995,7.25162008125,66.0,76.0
15,4.914456974999999,7.302606749999999,47.0,77.0
16,8.072340975,8.52135260625,63.0,72.0
17,8.467076474999999,8.914443375,46.0,63.0
18,8.072340975,8.91608810625,39.0,82.0
19,8.072340975,9.210495,70.0,76.0
20,8.861811974999998,9.373323393749999,63.0,75.0
21,9.256547475,9.463783612499999,66.0,70.0
22,9.651282974999999,10.18253116875,61.0,73.0
23,9.651282974999999,10.46871440625,65.0,77.0
24,10.046018474999999,10.4835169875,44.0,56.0
25,9.651282974999999,10.532858925,37.0,78.0
26,10.440753975,10.59700344375,61.0,84.0
27,11.230224974999999,11.746670587499999,59.0,69.0
28,11.230224974999999,12.266405662499999,63.0,71.0
29,12.019695975,12.274629318749998,59.0,73.0
30,11.230224974999999,13.514756681249999,47.0,72.0
31,11.624960474999998,13.532848725,54.0,59.0
32,12.414431474999999,13.546006574999998,59.0,71.0
33,12.414431474999999,13.565743349999998,63.0,78.0
34,14.388108974999998,14.909488781249998,59.0,70.0
35,14.388108974999998,15.217053524999999,66.0,80.0
36,14.388108974999998,15.259816537499999,47.0,84.0
37,14.782844475,15.297645356249998,54.0,69.0
38,15.177579974999999,15.564091818749999,59.0,85.0
39,15.572315474999998,15.670999349999999,63.0,84.0
40,15.967050974999998,16.48185185625,65.0,84.0
41,15.967050974999998,16.48514131875,61.0,77.0
42,16.361786475,16.863429506249997,56.0,71.0
43,15.967050974999998,16.8716531625,49.0,86.0
44,16.756521975,16.932508218749998,61.0,83.0
45,16.756521975,17.251586081249997,65.0,85.0
46,17.151257474999998,17.379875118749997,61.0,75.0
47,17.545992974999997,17.896320731249997,61.0,84.0
48,17.545992974999997,17.927570624999998,66.0,82.0
49,17.545992974999997,17.968688906249998,42.0,83.0
50,18.335463975,18.4769108625,37.0,82.0
51,18.335463975,18.797633456249997,61.0,83.0
52,18.335463975,19.021316906249996,65.0,85.0
53,19.124934975,19.583814993749996,63.0,79.0
54,19.124934975,19.63973585625,54.0,76.0
55,19.519670474999998,19.874932424999997,59.0,83.0
56,19.124934975,19.879866618749997,47.0,83.0
57,19.914405974999998,20.2926941625,56.0,78.0
58,19.914405974999998,20.302562549999998,49.0,83.0
59,19.914405974999998,20.309141474999997,61.0,77.0
60,20.703876974999996,20.888086875,54.0,75.0
61,20.703876974999996,21.524597868749996,59.0,70.0
62,21.493347975,21.909464981249997,63.0,79.0
63,21.098612475,21.9703200375,54.0,76.0
64,21.888083475,22.01801724375,59.0,85.0
65,22.282818974999998,22.386437043749996,54.0,73.0
66,22.282818974999998,22.82722501875,59.0,75.0
67,22.677554474999997,22.865053837499996,54.0,71.0
68,22.282818974999998,23.04104008125,66.0,81.0
69,23.072289974999997,23.154526537499997,59.0,70.0
70,23.072289974999997,23.192355356249998,63.0,74.0
71,20.703876974999996,23.2268947125,47.0,83.0
72,23.861760975,23.986760549999996,40.0,85.0
73,23.861760975,24.7334685375,71.0,71.0
74,23.861760975,24.77458681875,64.0,72.0
75,25.045967474999998,25.740044062499997,76.0,76.0
76,25.045967474999998,25.93247761875,64.0,79.0
77,24.256496475,26.06570085,52.0,72.0
78,24.651231974999998,26.101884937499996,59.0,78.0
79,27.019644975,27.516353812499997,58.0,72.0
80,27.019644975,27.901220924999997,61.0,75.0
81,27.809115974999997,28.662731493749998,58.0,71.0
82,28.203851474999997,28.943980537499996,66.0,83.0
83,28.993322474999996,29.164374524999996,58.0,68.0
84,29.388057975,29.580491531249997,58.0,76.0
85,29.388057975,29.6084519625,61.0,80.0
86,27.019644975,29.646280781249995,42.0,79.0
87,27.414380474999998,29.65285970625,49.0,69.0
88,29.388057975,29.710425299999997,66.0,73.0
89,30.177528974999998,30.399567693749997,56.0,82.0
90,30.177528974999998,30.917658037499997,65.0,83.0
91,30.572264474999997,31.432458918749997,56.0,73.0
92,30.966999974999997,32.25482454375,61.0,73.0
93,31.361735474999996,32.59692864375,68.0,82.0
94,32.151206474999995,32.65284950625,56.0,75.0
95,32.545941975,32.72357295,61.0,80.0
96,32.545941975,32.759757037499995,65.0,83.0
97,30.177528974999998,32.7893622,49.0,81.0
98,33.335412975,33.583767393749994,58.0,78.0
99,33.730148475,34.1873837625,58.0,76.0
100,33.335412975,34.19725215,66.0,79.0
101,33.335412975,34.31402806875,51.0,82.0
102,34.124883974999996,34.58869818749999,63.0,85.0
103,34.519619475,34.983433687499996,58.0,79.0
104,35.309090475,35.48672145,58.0,70.0
105,35.703825974999994,35.985075018749995,58.0,84.0
106,35.703825974999994,36.361718474999996,66.0,80.0
107,36.493296975,37.068952912499995,59.0,70.0
108,36.493296975,37.356780881249996,63.0,76.0
109,37.282767975,38.187370162499995,59.0,83.0
110,37.677503474999995,38.21368586249999,63.0,78.0
111,36.888032474999996,38.30250134999999,54.0,52.0
112,36.493296975,38.34690909374999,47.0,81.0
113,38.072238975,38.36993533125,66.0,73.0
114,38.861709975,39.151182674999994,56.0,83.0
115,38.861709975,39.213682462499996,49.0,84.0
116,38.861709975,39.3715766625,65.0,85.0
117,39.651180974999995,40.4735466,58.0,75.0
118,40.440651974999994,40.8386769375,61.0,81.0
119,39.651180974999995,40.878150487499994,54.0,74.0
120,40.835387475,41.01301845,58.0,73.0
121,41.23012297499999,41.48505631875,54.0,83.0
122,41.23012297499999,41.67091094999999,66.0,79.0
123,40.045916475,42.401171624999996,49.0,78.0
124,39.651180974999995,42.430776787499994,42.0,84.0
125,42.019593975,42.59031571875,58.0,80.0
126,42.414329474999995,42.8189333625,54.0,81.0
127,42.019593975,42.86827529999999,61.0,83.0
128,43.598535975,44.103468468749995,63.0,83.0
129,43.99327147499999,44.24820481875,58.0,81.0
130,44.388006974999996,44.654453437499996,58.0,84.0
131,44.388006974999996,45.174188512499995,66.0,77.0
132,43.203800474999994,45.2399777625,46.0,72.0
133,42.809064975,45.27122765625,39.0,87.0
134,45.177477974999995,45.399516693749995,58.0,79.0
135,45.177477974999995,45.563989818749995,63.0,81.0
136,45.572213475,45.74984445,58.0,76.0
137,45.966948974999994,46.45543415624999,63.0,78.0
138,45.966948974999994,46.917603637499994,54.0,77.0
139,47.151155474999996,47.363325806249996,54.0,84.0
140,46.361684475,47.44391763749999,59.0,83.0
141,45.966948974999994,47.48503591874999,47.0,88.0
142,46.75641997499999,47.823850556249994,66.0,84.0
143,47.54589097499999,48.05246819999999,61.0,77.0
144,47.54589097499999,48.14457314999999,58.0,71.0
145,48.335361975,48.545887574999995,58.0,83.0
146,47.940626474999995,48.662663493749996,53.0,73.0
147,47.54589097499999,48.716939624999995,46.0,84.0
148,48.335361975,48.723518549999994,61.0,84.0
149,48.335361975,48.74325532499999,65.0,83.0
150,48.730097474999994,48.86989963124999,58.0,73.0
151,49.124832975,49.610028693749996,59.0,81.0
152,49.124832975,49.930751287499994,63.0,82.0
153,49.914303974999996,50.42910485624999,59.0,83.0
154,50.30903947499999,50.56232808749999,63.0,79.0
155,50.703774974999995,50.80739304375,59.0,75.0
156,50.703774974999995,50.82548508749999,63.0,81.0
157,49.51956847499999,50.843577131249994,54.0,71.0
158,49.124832975,50.878116487499994,47.0,87.0
159,50.703774974999995,50.9175900375,66.0,79.0
160,51.493245974999994,52.003112662499994,37.0,83.0
161,51.493245974999994,52.202125143749996,65.0,84.0
162,51.493245974999994,52.205414606249995,61.0,79.0
163,52.28271697499999,52.75146538124999,70.0,79.0
164,53.07218797499999,53.228437443749996,63.0,74.0
165,53.07218797499999,53.371529062499995,66.0,74.0
166,52.28271697499999,53.43402885,51.0,85.0
167,53.07218797499999,53.47514713125,70.0,78.0
168,52.677452474999996,53.795869724999996,58.0,72.0
169,53.861658975,54.42909125625,62.0,76.0
170,53.861658975,54.43402544999999,65.0,84.0
171,53.861658975,54.4636306125,70.0,79.0
172,53.861658975,54.866589768749996,50.0,79.0
173,54.651129974999996,55.0688917125,65.0,86.0
174,54.651129974999996,55.08698375624999,62.0,79.0
175,54.25639447499999,55.13139149999999,58.0,71.0
176,55.04586547499999,55.256391074999996,50.0,79.0
177,54.651129974999996,55.57217947499999,70.0,83.0
178,55.440600974999995,55.64783711249999,59.0,72.0
179,55.440600974999995,55.735007868749996,47.0,80.0
180,55.440600974999995,55.833691743749995,63.0,83.0
181,55.83533647499999,55.93895454374999,59.0,76.0
182,55.440600974999995,56.077111968749996,66.0,79.0
183,56.230071974999994,56.4438870375,61.0,77.0
184,56.230071974999994,56.610004893749995,49.0,85.0
185,56.230071974999994,56.894543399999996,65.0,83.0
186,56.624807475,57.095200612499994,61.0,83.0
187,57.01954297499999,57.40769955,66.0,79.0
188,57.80901397499999,57.86986903125,54.0,72.0
189,58.203749474999995,58.54749830624999,54.0,84.0
190,57.414278474999996,58.555721962499995,49.0,71.0
191,57.01954297499999,58.56394561875,42.0,84.0
192,57.80901397499999,58.56887981249999,58.0,84.0
193,57.80901397499999,58.57874819999999,61.0,84.0
194,58.59848497499999,58.80078691874999,58.0,79.0
195,58.59848497499999,59.230061774999996,66.0,79.0
196,58.993220474999994,59.48170565624999,58.0,80.0
197,58.59848497499999,59.718546956249995,51.0,86.0
198,59.387955975,59.759665237499995,63.0,87.0
199,59.78269147499999,60.04255901249999,58.0,83.0
200,60.177426974999996,60.75966183749999,58.0,77.0
201,60.177426974999996,60.78104334374999,65.0,82.0
202,60.57216247499999,61.15275260625,53.0,74.0
203,60.177426974999996,61.15768679999999,46.0,83.0
204,60.966897974999995,61.282686375,61.0,85.0
205,61.36163347499999,61.654395637499995,58.0,78.0
206,61.756368974999994,62.34024856874999,59.0,76.0
207,61.756368974999994,62.36985373125,63.0,82.0
208,62.54583997499999,62.69222105624999,59.0,84.0
209,61.756368974999994,62.703734174999994,47.0,79.0
210,62.151104475,62.76129976874999,54.0,68.0
211,62.54583997499999,62.84353633124999,63.0,84.0
212,62.54583997499999,62.93235181874999,66.0,81.0
213,62.940575474999996,63.07544343749999,47.0,83.0
214,63.33531097499999,63.87313809374999,65.0,84.0
215,63.33531097499999,63.925769493749996,61.0,78.0
216,63.730046474999995,64.37313639374999,56.0,79.0
217,63.33531097499999,64.40603101875,49.0,84.0
218,64.12478197499999,64.5096490875,65.0,83.0
219,64.12478197499999,64.65931963125,68.0,77.0
220,64.519517475,64.782674475,61.0,84.0
221,64.914252975,65.35997514374999,66.0,83.0
222,64.914252975,65.74155279374999,59.0,76.0
223,64.914252975,65.980038825,47.0,87.0
224,65.70372397499999,66.111617325,66.0,83.0
225,65.30898847499999,66.12313044375,54.0,70.0
226,65.70372397499999,66.124775175,63.0,83.0
227,66.098459475,66.41260314374999,59.0,73.0
228,66.493194975,66.69714164999999,63.0,84.0
229,66.493194975,66.71029949999999,47.0,83.0
230,66.493194975,66.7135889625,59.0,74.0
231,66.493194975,67.25141608125,66.0,79.0
232,67.282665975,68.03924235,65.0,84.0
233,67.282665975,68.04417654375,56.0,79.0
234,67.282665975,68.04746600624999,49.0,87.0
235,67.282665975,68.04911073749999,61.0,81.0
236,68.07213697499999,68.4997671,54.0,79.0
237,68.07213697499999,68.83529227499999,61.0,78.0
238,68.861607975,69.05568626249999,58.0,87.0
239,68.46687247499999,69.24154089375,49.0,77.0
240,68.07213697499999,69.26621186249999,42.0,84.0
241,69.058975725,69.2991064875,54.0,88.0
242,69.256343475,69.53101359374999,61.0,82.0
243,69.45371122499999,69.56719768125,54.0,78.0
244,69.65107897499999,69.95535425624999,54.0,79.0
245,69.65107897499999,70.01785404374999,58.0,83.0
246,69.65107897499999,70.11653791875,42.0,84.0
247,70.045814475,70.1609456625,49.0,77.0
248,70.440549975,70.85502224999999,49.0,77.0
249,70.440549975,70.88791687499999,61.0,77.0
250,70.44877363124999,70.94383773749999,41.0,77.0
251,71.23002097499999,71.7892296,58.0,78.0
252,71.23002097499999,71.808966375,63.0,79.0
253,71.624756475,72.09679434374999,46.0,83.0
254,71.23002097499999,72.10337326874999,39.0,84.0
255,72.019491975,72.16093886249999,58.0,77.0
256,72.019491975,72.42574059374999,63.0,84.0
257,72.41422747499999,72.493174575,58.0,73.0
258,72.019491975,72.55896382499999,66.0,83.0
259,72.80896297499999,73.27442191875,61.0,77.0
260,72.80896297499999,73.2793561125,65.0,83.0
261,72.80896297499999,73.67244688125,49.0,85.0
262,73.59843397499999,73.68560473125,61.0,83.0
263,73.203698475,73.69218365625,56.0,79.0
264,73.59843397499999,73.75303871249999,65.0,90.0
265,73.59843397499999,73.89284086875,68.0,84.0
266,73.79580172499999,74.02935356249999,61.0,83.0
267,73.99316947499999,74.09678754375,65.0,84.0
268,74.387904975,74.97507403124999,59.0,84.0
269,74.387904975,74.99152134375,63.0,84.0
270,74.782640475,75.27605985,54.0,77.0
271,74.387904975,75.36158587499999,47.0,85.0
272,75.17737597499999,75.53263792499999,59.0,85.0
273,75.37474372499999,75.54744050625,54.0,84.0
274,75.57211147499999,75.68230846875,47.0,88.0
275,75.17737597499999,75.80566331249999,63.0,86.0
276,75.17737597499999,75.85500524999999,66.0,83.0
277,75.966846975,76.46849000625,61.0,78.0
278,75.966846975,76.48822678124999,58.0,78.0
279,76.36158247499999,76.88296228124999,53.0,79.0
280,76.75631797499999,76.90105432499999,58.0,84.0
281,75.966846975,76.97835669374999,46.0,84.0
282,76.75631797499999,77.07210637499999,61.0,87.0
283,76.75631797499999,77.20532960624999,65.0,88.0
284,77.151053475,77.2596057375,58.0,75.0
285,77.545788975,78.06716878124999,59.0,72.0
286,77.545788975,78.09677394375,63.0,81.0
287,78.33525997499999,78.43558858124999,59.0,85.0
288,77.545788975,78.68065353749999,47.0,85.0
289,77.94052447499999,78.78920579999999,54.0,71.0
290,78.33525997499999,78.874731825,66.0,80.0
291,78.33525997499999,78.9503894625,63.0,85.0
292,78.729995475,78.97506043124999,59.0,73.0
293,79.12473097499999,79.23163850625,59.0,84.0
294,79.12473097499999,79.243151625,47.0,85.0
295,79.12473097499999,79.28098044375,63.0,84.0
296,79.12473097499999,79.32867764999999,66.0,83.0
297,79.914201975,80.00466219375,37.0,84.0
298,79.914201975,80.21025359999999,61.0,83.0
299,79.914201975,80.23163510625,56.0,83.0
300,79.914201975,80.23327983749999,65.0,85.0
301,80.63952845624999,81.14117148749999,66.0,79.0
302,80.64446265,81.17735557499999,58.0,81.0
303,81.43557838125,81.57209107499999,58.0,83.0
304,81.43393364999999,81.63294613125,61.0,88.0
305,81.4306441875,81.73491946875,66.0,84.0
306,81.83195861249999,82.02110270624999,58.0,65.0
307,82.22175991875,82.3418253,58.0,84.0
308,82.22011518749999,82.4043250875,61.0,85.0
309,81.05235599999999,82.47340379999999,49.0,70.0
310,80.65597576875,82.6576137,42.0,84.0
311,82.21518099375,82.71188983124999,66.0,83.0
312,82.64281111874999,82.81057370625,58.0,58.0
313,83.06715178124999,83.3122167375,41.0,83.0
314,83.05070446875,83.61978148124999,61.0,83.0
315,83.045770275,83.70859696874999,65.0,84.0
316,83.86155697499998,84.56221248749999,66.0,78.0
317,83.86155697499998,84.78096174375,58.0,80.0
318,84.256292475,84.9964215375,46.0,70.0
319,83.86155697499998,85.02438196874999,39.0,85.0
320,84.65102797499999,85.04082928125,63.0,80.0
321,85.04576347499999,85.1872103625,58.0,84.0
322,84.65102797499999,85.43392005,66.0,84.0
323,85.440498975,85.8911553375,65.0,84.0
324,85.440498975,85.94543146874999,61.0,78.0
325,85.835234475,86.07372050625,56.0,82.0
326,85.440498975,86.33194331249999,49.0,84.0
327,86.22996997499999,86.41253514374999,56.0,86.0
328,86.22996997499999,86.60332396874999,61.0,85.0
329,86.22996997499999,86.84345473124999,65.0,85.0
330,86.62470547499998,86.9108887125,56.0,82.0
331,87.019440975,87.4700973375,59.0,80.0
332,87.019440975,87.66582035625,63.0,83.0
333,87.61154422499999,87.90759584999999,59.0,83.0
334,87.80891197499999,88.07371370624999,63.0,80.0
335,88.00627972499998,88.23489736875,59.0,85.0
336,87.41417647499999,88.2727261875,54.0,81.0
337,87.019440975,88.30233134999999,47.0,85.0
338,88.203647475,88.54739630625,63.0,80.0
339,88.59838297499999,89.1411442875,58.0,78.0
340,88.59838297499999,89.14607848124999,61.0,82.0
341,88.99311847499999,89.46351161249999,53.0,76.0
342,89.38785397499998,89.56548495,58.0,84.0
343,88.59838297499999,89.66581355624999,46.0,84.0
344,89.585221725,89.72502388125,53.0,87.0
345,89.38785397499998,89.84179979999999,65.0,88.0
346,89.782589475,90.04081228125,58.0,83.0
347,89.97995722499999,90.10166733749999,61.0,78.0
348,90.17732497499999,90.77271768749999,59.0,86.0
349,90.17732497499999,90.79080973125,63.0,62.0
350,90.57206047499999,91.08521662499999,54.0,85.0
351,90.17732497499999,91.11975598125,47.0,85.0
352,90.966795975,91.5753465375,59.0,89.0
353,90.966795975,91.61810954999999,63.0,88.0
354,91.36153147499999,91.63784632499998,47.0,74.0
355,91.75626697499999,92.04245021249999,59.0,85.0
356,91.75626697499999,92.0753448375,54.0,78.0
357,91.75626697499999,92.0819237625,47.0,84.0
358,91.75626697499999,92.17896290624999,63.0,84.0
359,92.545737975,92.77106615624999,56.0,82.0
360,92.545737975,92.78915819999999,49.0,86.0
361,92.545737975,92.82369755625,61.0,84.0
362,92.545737975,92.88126315,65.0,85.0
363,93.33520897499999,94.01119351874999,58.0,78.0
364,93.33520897499999,94.06546965,54.0,79.0
365,94.12467997499999,94.43224471874998,61.0,87.0
366,94.32204772499999,94.55724429374999,54.0,81.0
367,94.51941547499999,94.78421720624999,58.0,80.0
368,94.91415097499998,94.966782375,58.0,62.0
369,94.71678322499999,94.98158495624999,54.0,80.0
370,94.91415097499998,95.30230755,66.0,87.0
371,95.111518725,95.35000475624999,54.0,79.0
372,95.308886475,95.54408304374999,58.0,78.0
373,95.50625422499999,95.71677982499999,54.0,81.0
374,95.90098972499999,96.12467317499998,54.0,83.0
375,95.70362197499999,96.18059403749999,66.0,90.0
376,96.09835747499999,96.27763318125,58.0,79.0
377,93.33520897499999,96.28256737499999,42.0,83.0
378,93.729944475,96.28585683749999,49.0,77.0
379,96.29572522499998,96.39934329375,54.0,85.0
380,96.493092975,96.72006588749998,61.0,85.0
381,96.690460725,96.92565729374999,56.0,82.0
382,96.88782847499999,97.14440654999999,61.0,78.0
383,97.08519622499999,97.2990112875,56.0,76.0
384,97.28256397499999,97.44703709999999,65.0,86.0
385,97.47993172499999,97.69539151874999,56.0,83.0
386,97.67729947499998,97.90262765624999,61.0,80.0
387,96.493092975,97.99802206874999,49.0,87.0
388,97.874667225,98.13289003124999,56.0,83.0
389,98.072034975,98.32038939374999,65.0,88.0
390,98.26940272499999,98.49473090624998,56.0,83.0
391,98.46677047499999,98.62959886875,61.0,84.0
392,98.66413822499999,98.80887457499999,56.0,84.0
393,98.86150597499999,98.95525565624999,56.0,84.0
394,98.86150597499999,99.09505781249999,61.0,89.0
395,98.86150597499999,99.17893910624998,65.0,94.0
396,98.072034975,99.256241475,49.0,89.0
397,99.05887372499998,99.26117566874998,56.0,77.0
398,99.256241475,99.53749051874999,61.0,82.0
399,99.453609225,99.59999030624999,56.0,82.0
400,99.65097697499999,99.82531848749998,63.0,84.0
401,99.84834472499999,100.08847548749999,58.0,76.0
402,100.04571247499999,100.25294861249999,63.0,76.0
403,100.24308022499999,100.43057958749999,58.0,76.0
404,100.44044797499998,100.67564454375,66.0,88.0
405,100.637815725,100.87136756249998,58.0,84.0
406,100.835183475,101.08518262499999,63.0,84.0
407,99.65097697499999,101.10820886249999,39.0,87.0
408,101.03255122499999,101.23156370624999,58.0,82.0
409,101.22991897499999,101.4174183375,63.0,65.0
410,101.22991897499999,101.6016282375,70.0,85.0
411,101.42728672499999,101.64603598125,58.0,79.0
412,101.62465447499999,101.84998265624999,63.0,77.0
413,101.82202222499998,102.03419255624999,58.0,83.0
414,101.22991897499999,102.13945535625,39.0,87.0
415,102.019389975,102.3055732125,66.0,84.0
416,102.216757725,102.42728332499999,58.0,83.0
417,102.41412547499999,102.58353279375,63.0,81.0
418,102.61149322499999,102.74471645624999,58.0,72.0
419,102.80886097499999,103.04241281249999,59.0,79.0
420,102.80886097499999,103.24635948749999,63.0,79.0
421,103.20359647499998,103.51938487499999,59.0,79.0
422,103.400964225,103.6049109,63.0,80.0
423,103.598331975,103.83352854374999,66.0,86.0
424,102.80886097499999,103.90589671874999,47.0,84.0
425,103.00622872499999,103.90589671874999,54.0,79.0
426,103.79569972499999,104.01938317499999,63.0,85.0
427,103.99306747499999,104.12464597499999,59.0,85.0
428,104.38780297499999,104.5226709375,56.0,80.0
429,104.38780297499999,104.65918363124999,61.0,83.0
430,104.58517072499998,104.795696325,56.0,83.0
431,104.782538475,105.00128773124999,61.0,84.0
432,104.979906225,105.09832687499998,56.0,81.0
433,105.17727397499999,105.308852475,56.0,92.0
434,105.17727397499999,105.46016775,65.0,85.0
435,104.38780297499999,105.466746675,49.0,88.0
436,105.37464172499999,105.61312775625,56.0,85.0
437,105.57200947499999,105.68220646875,61.0,85.0
438,105.96674497499998,106.09996820624998,54.0,77.0
439,105.96674497499998,106.23812563124999,58.0,76.0
440,106.361480475,106.57200607499999,61.0,83.0
441,106.55884822499999,106.7529265125,54.0,77.0
442,106.75621597499999,107.0522676,66.0,89.0
443,106.95358372499999,107.15753039999998,54.0,85.0
444,107.15095147499999,107.37792438749999,58.0,79.0
445,105.96674497499998,107.41246374375,42.0,84.0
446,106.164112725,107.42891105624999,49.0,76.0
447,107.34831922499998,107.58844998749998,54.0,83.0
448,107.545686975,107.9963433375,61.0,83.0
449,107.94042247499999,108.17561904374999,58.0,76.0
450,108.13779022499999,108.35325001874999,54.0,84.0
451,108.53252572499999,108.76443283124999,54.0,84.0
452,108.33515797499999,108.77265648749999,66.0,86.0
453,107.743054725,108.80390638124999,49.0,74.0
454,107.545686975,108.8318668125,42.0,83.0
455,108.72989347499998,108.91245864374999,58.0,83.0
456,108.927261225,109.00127413124999,54.0,76.0
457,109.124628975,109.32364145624999,61.0,84.0
458,109.32199672499999,109.5292328625,56.0,83.0
459,109.51936447499999,109.72989007499999,61.0,76.0
460,109.71673222499999,109.97002083749999,56.0,75.0
461,109.124628975,110.00949438749998,49.0,84.0
462,109.91409997499998,110.20028321249998,65.0,89.0
463,110.11146772499998,110.35324321875,56.0,84.0
464,110.308835475,110.52593999999999,61.0,84.0
465,110.506203225,110.77758388125,56.0,84.0
466,110.70357097499999,110.93876754374999,61.0,84.0
467,110.90093872499999,111.11968798125,56.0,79.0
468,111.09830647499999,111.33021358124999,61.0,83.0
469,110.70357097499999,111.37955551875,37.0,82.0
470,111.29567422499998,111.51771294374998,56.0,81.0
471,111.49304197499998,111.92231683124999,65.0,85.0
472,111.690409725,111.93547468124999,56.0,83.0
473,111.887777475,112.16409232499998,61.0,66.0
474,112.08514522499999,112.22659211249999,56.0,73.0
475,112.28251297499999,112.49468330624998,63.0,82.0
476,112.47988072499999,112.7364588,58.0,80.0
477,112.67724847499998,112.97165536874999,63.0,77.0
478,112.87461622499998,113.05718139374999,58.0,77.0
479,113.26935172499999,113.48481151874999,58.0,74.0
480,113.071983975,113.49961409999999,66.0,84.0
481,112.28251297499999,113.5226403375,39.0,88.0
482,113.46671947499999,113.70685023749999,63.0,78.0
483,113.66408722499999,113.82362615624999,58.0,76.0
484,113.86145497499999,114.30553241249999,66.0,84.0
485,114.05882272499998,114.31375606875,58.0,81.0
486,114.25619047499998,114.50290016249998,63.0,76.0
487,114.453558225,114.6311892,58.0,76.0
488,113.86145497499999,114.8976356625,39.0,86.0
489,114.84829372499999,115.05059566874999,58.0,79.0
490,114.65092597499999,115.07855609999999,66.0,84.0
491,115.04566147499999,115.25783180624998,63.0,82.0
492,115.24302922499999,115.39269976874999,58.0,75.0
493,115.44039697499998,115.64598838124999,59.0,76.0
494,115.44039697499998,115.86802709999999,63.0,80.0
495,115.835132475,116.11144732499999,59.0,84.0
496,116.03250022499999,116.22493378124999,63.0,83.0
497,116.22986797499999,116.4568408875,66.0,85.0
498,115.44039697499998,116.53578798749999,47.0,85.0
499,115.63776472499998,116.58019573124999,54.0,69.0
500,116.42723572499999,116.66243229374999,63.0,83.0
501,116.62460347499999,116.87953681874998,59.0,85.0
502,117.01933897499998,117.45190329375,61.0,75.0
503,117.01933897499998,117.47492953124998,65.0,85.0
504,117.41407447499999,117.92558589374998,56.0,79.0
505,117.01933897499998,117.95848051875,49.0,85.0
506,118.20354547499998,118.35979494374999,56.0,74.0
507,117.80880997499999,118.59663624374998,61.0,83.0
508,117.80880997499999,118.60321516874998,65.0,85.0
509,118.598280975,119.09498981249999,58.0,72.0
510,118.598280975,119.47985692499999,61.0,75.0
511,119.38775197499999,120.24136749374999,58.0,71.0
512,119.78248747499998,120.52261653749999,66.0,83.0
513,120.57195847499999,120.74301052499999,58.0,68.0
514,120.96669397499998,121.15912753125,58.0,76.0
515,120.96669397499998,121.18708796249999,61.0,80.0
516,118.598280975,121.22491678124999,42.0,79.0
517,118.99301647499999,121.23149570624999,49.0,69.0
518,120.96669397499998,121.28906129999999,66.0,73.0
519,121.75616497499999,121.97820369374999,56.0,82.0
520,121.75616497499999,122.4962940375,65.0,83.0
521,122.15090047499999,123.01109491874999,56.0,73.0
522,122.54563597499998,123.83346054375,61.0,73.0
523,122.94037147499999,124.17556464375,68.0,82.0
524,123.72984247499998,124.23148550624998,56.0,75.0
525,124.124577975,124.30220895,61.0,80.0
526,124.124577975,124.33839303749998,65.0,83.0
527,121.75616497499999,124.36799819999999,49.0,81.0
528,124.91404897499999,125.16240339374998,58.0,78.0
529,125.30878447499998,125.7660197625,58.0,76.0
530,124.91404897499999,125.77588814999999,66.0,79.0
531,124.91404897499999,125.89266406875,51.0,82.0
532,125.70351997499999,126.16733418749999,63.0,85.0
533,126.09825547499999,126.56206968749999,58.0,79.0
534,126.887726475,127.06535745,58.0,70.0
535,127.28246197499999,127.56371101874998,58.0,84.0
536,127.28246197499999,127.94035447499999,66.0,80.0
537,128.07193297499998,128.6475889125,59.0,70.0
538,128.07193297499998,128.93541688124998,63.0,76.0
539,128.86140397499997,129.7660061625,58.0,83.0
540,129.256139475,129.7923218625,63.0,78.0
541,128.46666847499998,129.88113735,54.0,52.0
542,128.07193297499998,129.92554509374997,47.0,81.0
543,129.650874975,129.94857133124998,66.0,73.0
544,130.44034597499999,130.7923184625,49.0,84.0
545,130.44034597499999,130.95021266249998,65.0,85.0
546,131.22981697499998,132.05218259999998,58.0,75.0
547,132.019287975,132.4173129375,61.0,81.0
548,131.22981697499998,132.45678648749998,54.0,74.0
549,132.414023475,132.59165445,58.0,73.0
550,132.808758975,133.06369231875,54.0,83.0
551,131.62455247499997,133.97980762499998,49.0,78.0
552,131.22981697499998,134.0094127875,42.0,84.0
553,133.59822997499998,134.16895171874998,58.0,80.0
554,133.99296547499998,134.39756936249998,54.0,81.0
555,133.59822997499998,134.44691129999998,61.0,83.0
556,135.177171975,135.68210446875,63.0,83.0
557,135.571907475,135.82684081875,58.0,81.0
558,135.96664297499998,136.23308943749998,58.0,84.0
559,135.96664297499998,136.75282451249998,66.0,77.0
560,134.782436475,136.81861376249998,46.0,72.0
561,134.38770097499997,136.84986365625,39.0,87.0
562,136.75611397499998,136.97815269375,58.0,79.0
563,136.75611397499998,137.14262581875,63.0,81.0
564,137.15084947499997,137.32848045,58.0,76.0
565,137.545584975,138.03407015624998,63.0,78.0
566,137.545584975,138.4962396375,54.0,77.0
567,138.72979147499998,138.94196180625,54.0,84.0
568,137.940320475,139.02255363749998,59.0,83.0
569,137.545584975,139.06367191874998,47.0,88.0
570,138.335055975,139.40248655624998,66.0,84.0
571,139.12452697499998,139.63110419999998,61.0,77.0
572,139.12452697499998,139.72320914999997,58.0,71.0
573,139.91399797499997,140.12452357499998,58.0,83.0
574,139.51926247499998,140.24129949374998,53.0,73.0
575,139.12452697499998,140.295575625,46.0,84.0
576,139.91399797499997,140.30215454999998,61.0,84.0
577,139.91399797499997,140.321891325,65.0,83.0
578,140.308733475,140.44853563125,58.0,73.0
579,140.703468975,141.18866469374998,59.0,81.0
580,140.703468975,141.50938728749998,63.0,82.0
581,141.49293997499998,142.00774085625,59.0,83.0
582,141.88767547499998,142.14096408749998,63.0,79.0
583,142.28241097499998,142.38602904375,59.0,75.0
584,142.28241097499998,142.4041210875,63.0,81.0
585,141.098204475,142.42221313124998,54.0,71.0
586,140.703468975,142.45675248749998,47.0,87.0
587,142.28241097499998,142.49622603749998,66.0,79.0
588,143.071881975,143.5817486625,37.0,83.0
589,143.071881975,143.78076114375,65.0,84.0
590,143.071881975,143.78405060625,61.0,79.0
591,143.861352975,144.33010138125,70.0,79.0
592,144.65082397499998,144.80707344375,63.0,74.0
593,144.65082397499998,144.9501650625,66.0,74.0
594,143.861352975,145.01266485,51.0,85.0
595,144.65082397499998,145.05378313125,70.0,78.0
596,144.25608847499998,145.37450572499998,58.0,72.0
597,145.44029497499997,146.00772725624998,62.0,76.0
598,145.44029497499997,146.01266145,65.0,84.0
599,145.44029497499997,146.0422666125,70.0,79.0
600,145.44029497499997,146.44522576875,50.0,79.0
601,146.229765975,146.6475277125,65.0,86.0
602,146.229765975,146.66561975624998,62.0,79.0
603,145.835030475,146.7100275,58.0,71.0
604,146.624501475,146.835027075,50.0,79.0
605,146.229765975,147.15081547499997,70.0,83.0
606,147.01923697499998,147.22647311249997,59.0,72.0
607,147.01923697499998,147.31364386874998,47.0,80.0
608,147.01923697499998,147.41232774374998,63.0,83.0
609,147.41397247499998,147.51759054374998,59.0,76.0
610,147.01923697499998,147.65574796874998,66.0,79.0
611,147.80870797499998,148.02252303749998,61.0,77.0
612,147.80870797499998,148.18864089374998,49.0,85.0
613,147.80870797499998,148.4731794,65.0,83.0
614,148.20344347499997,148.6738366125,61.0,83.0
615,148.598178975,148.98633554999998,66.0,79.0
616,149.387649975,149.44850503125,54.0,72.0
617,149.78238547499998,150.12613430624998,54.0,84.0
618,148.992914475,150.1343579625,49.0,71.0
619,148.598178975,150.14258161874997,42.0,84.0
620,149.387649975,150.1475158125,58.0,84.0
621,149.387649975,150.1573842,61.0,84.0
622,150.17712097499998,150.37942291874998,58.0,79.0
623,150.17712097499998,150.80869777499998,66.0,79.0
624,150.57185647499998,151.06034165625,58.0,80.0
625,150.17712097499998,151.29718295625,51.0,86.0
626,150.96659197499997,151.3383012375,63.0,87.0
627,151.361327475,151.62119501249998,58.0,83.0
628,151.756062975,152.3382978375,58.0,77.0
629,151.756062975,152.35967934374997,65.0,82.0
630,152.150798475,152.73138860625,53.0,74.0
631,151.756062975,152.73632279999998,46.0,83.0
632,152.54553397499998,152.861322375,61.0,85.0
633,152.94026947499998,153.23303163749998,58.0,78.0
634,153.33500497499998,153.91888456874997,59.0,76.0
635,153.33500497499998,153.94848973125,63.0,82.0
636,154.124475975,154.27085705624998,59.0,84.0
637,153.33500497499998,154.28237017499998,47.0,79.0
638,153.72974047499997,154.33993576875,54.0,68.0
639,154.124475975,154.42217233124998,63.0,84.0
640,154.124475975,154.51098781874998,66.0,81.0
641,154.519211475,154.65407943749997,47.0,83.0
642,154.913946975,155.45177409374998,65.0,84.0
643,154.913946975,155.50440549374997,61.0,78.0
644,155.30868247499998,155.95177239375,56.0,79.0
645,154.913946975,155.98466701874997,49.0,84.0
646,155.70341797499998,156.0882850875,65.0,83.0
647,155.70341797499998,156.23795563124997,68.0,77.0
648,156.09815347499998,156.36131047499998,61.0,84.0
649,156.49288897499997,156.93861114375,66.0,83.0
650,156.49288897499997,157.32018879375,59.0,76.0
651,156.49288897499997,157.558674825,47.0,87.0
652,157.282359975,157.690253325,66.0,83.0
653,156.887624475,157.70176644375,54.0,70.0
654,157.282359975,157.70341117499999,63.0,83.0
655,157.677095475,157.99123914375,59.0,73.0
656,158.07183097499998,158.27577764999998,63.0,84.0
657,158.07183097499998,158.28893549999998,47.0,83.0
658,158.07183097499998,158.29222496249997,59.0,74.0
659,158.07183097499998,158.83005208125,66.0,79.0
660,158.86130197499998,159.61787834999998,65.0,84.0
661,158.86130197499998,159.62281254374997,56.0,79.0
662,158.86130197499998,159.62610200625,49.0,87.0
663,158.86130197499998,159.6277467375,61.0,81.0
664,159.650772975,160.07840309999997,54.0,79.0
665,159.650772975,160.413928275,61.0,78.0
666,160.440243975,160.63432226249998,58.0,87.0
667,160.045508475,160.82017689375,49.0,77.0
668,159.650772975,160.8448478625,42.0,84.0
669,160.63761172499997,160.87774248749997,54.0,88.0
670,160.83497947499998,161.10964959375,61.0,82.0
671,161.032347225,161.14583368125,54.0,78.0
672,161.22971497499998,161.53399025624998,54.0,79.0
673,161.22971497499998,161.59649004374998,58.0,83.0
674,161.22971497499998,161.69517391875,42.0,84.0
675,161.62445047499997,161.73958166249997,49.0,77.0
676,162.01918597499997,162.19681694999997,56.0,86.0
677,162.03069909374997,162.42378986249997,41.0,97.0
678,162.01918597499997,162.43365824999998,49.0,85.0
679,162.01918597499997,162.466552875,61.0,85.0
680,162.413921475,162.4895791125,56.0,83.0
681,162.808656975,163.3678656,58.0,78.0
682,162.808656975,163.38760237499997,63.0,79.0
683,163.203392475,163.67543034374998,46.0,83.0
684,162.808656975,163.68200926875,39.0,84.0
685,163.59812797499998,163.73957486249998,58.0,77.0
686,163.59812797499998,164.00437659374998,63.0,84.0
687,163.99286347499998,164.07181057499997,58.0,73.0
688,163.59812797499998,164.137599825,66.0,83.0
689,164.38759897499997,164.85305791874998,61.0,77.0
690,164.38759897499997,164.85799211249997,65.0,83.0
691,164.38759897499997,165.25108288124997,49.0,85.0
692,165.177069975,165.26424073124997,61.0,83.0
693,164.78233447499997,165.27081965624998,56.0,79.0
694,165.177069975,165.3316747125,65.0,90.0
695,165.177069975,165.47147686875,68.0,84.0
696,165.37443772499998,165.6079895625,61.0,83.0
697,165.571805475,165.67542354375,65.0,84.0
698,165.966540975,166.55371003124998,59.0,84.0
699,165.966540975,166.57015734375,63.0,84.0
700,166.36127647499998,166.85469584999998,54.0,77.0
701,165.966540975,166.940221875,47.0,85.0
702,166.75601197499998,167.11127392499998,59.0,85.0
703,166.953379725,167.12607650624997,54.0,84.0
704,167.15074747499997,167.26094446874998,47.0,88.0
705,166.75601197499998,167.3842993125,63.0,86.0
706,166.75601197499998,167.43364125,66.0,83.0
707,167.54548297499997,168.04712600624998,61.0,78.0
708,167.54548297499997,168.06686278125,58.0,78.0
709,167.940218475,168.46159828125,53.0,79.0
710,168.334953975,168.47969032499998,58.0,84.0
711,167.54548297499997,168.55699269374998,46.0,84.0
712,168.334953975,168.650742375,61.0,87.0
713,168.334953975,168.78396560624998,65.0,88.0
714,168.729689475,168.83824173749997,58.0,75.0
715,169.12442497499998,169.64580478124998,59.0,72.0
716,169.12442497499998,169.67540994375,63.0,81.0
717,169.91389597499997,170.01422458124998,59.0,85.0
718,169.12442497499998,170.2592895375,47.0,85.0
719,169.51916047499998,170.36784179999998,54.0,71.0
720,169.91389597499997,170.453367825,66.0,80.0
721,169.91389597499997,170.5290254625,63.0,85.0
722,170.30863147499997,170.55369643125,59.0,73.0
723,170.703366975,170.81027450624998,59.0,84.0
724,170.703366975,170.82178762499998,47.0,85.0
725,170.703366975,170.85961644374999,63.0,84.0
726,170.703366975,170.90731365,66.0,83.0
727,171.492837975,171.58329819374998,37.0,84.0
728,171.492837975,171.78888959999998,61.0,83.0
729,171.492837975,171.81027110624998,56.0,83.0
730,171.492837975,171.81191583749998,65.0,85.0
731,172.21816445624998,172.7198074875,66.0,79.0
732,172.22309865,172.755991575,58.0,81.0
733,173.01421438124999,173.150727075,58.0,83.0
734,173.01256965,173.21158213124997,61.0,88.0
735,173.0092801875,173.31355546875,66.0,84.0
736,173.41059461249998,173.59973870624998,58.0,65.0
737,173.80039591874998,173.92046129999997,58.0,84.0
738,173.7987511875,173.98296108749997,61.0,85.0
739,172.630992,174.0520398,49.0,70.0
740,172.23461176874997,174.23624969999997,42.0,84.0
741,173.79381699374997,174.29052583125,66.0,83.0
742,174.22144711874998,174.38920970624997,58.0,58.0
743,174.64578778125,174.89085273749998,41.0,83.0
744,174.62934046874997,175.19841748124998,61.0,83.0
745,174.62769573749998,175.21815425625,53.0,82.0
746,174.62440627499998,175.28723296874998,65.0,84.0
747,175.44019297499997,176.1408484875,66.0,78.0
748,175.44019297499997,176.35959774375,58.0,80.0
749,175.83492847499997,176.5750575375,46.0,70.0
750,175.44019297499997,176.60301796874998,39.0,85.0
751,176.229663975,176.61946528124997,63.0,80.0
752,176.624399475,176.76584636249999,58.0,84.0
753,176.229663975,177.01255604999997,66.0,84.0
754,177.019134975,177.46979133749997,65.0,84.0
755,177.019134975,177.52406746875,61.0,78.0
756,177.41387047499998,177.65235650625,56.0,82.0
757,177.019134975,177.91057931249998,49.0,84.0
758,177.80860597499998,177.99117114375,56.0,86.0
759,177.80860597499998,178.18195996875,61.0,85.0
760,177.80860597499998,178.42209073125,65.0,85.0
761,178.20334147499997,178.48952471249999,56.0,82.0
762,178.59807697499997,179.04873333749998,59.0,80.0
763,178.59807697499997,179.24445635624997,63.0,83.0
764,179.19018022499998,179.48623185,59.0,83.0
765,179.387547975,179.65234970625,63.0,80.0
766,179.58491572499997,179.81353336874997,59.0,85.0
767,178.992812475,179.85136218749997,54.0,81.0
768,178.59807697499997,179.88096735,47.0,85.0
769,179.78228347499999,180.12603230624998,63.0,80.0
770,180.17701897499998,180.7197802875,58.0,78.0
771,180.17701897499998,180.72471448124998,61.0,82.0
772,180.57175447499998,181.04214761249997,53.0,76.0
773,180.96648997499997,181.14412094999997,58.0,84.0
774,180.17701897499998,181.24444955624998,46.0,84.0
775,181.16385772499999,181.30365988124998,53.0,87.0
776,180.96648997499997,181.42043579999998,65.0,88.0
777,181.36122547499997,181.61944828125,58.0,83.0
778,181.55859322499998,181.6803033375,61.0,78.0
779,181.755960975,182.3513536875,59.0,86.0
780,181.755960975,182.36944573124998,63.0,62.0
781,182.150696475,182.66385262499998,54.0,85.0
782,181.755960975,182.69839198124998,47.0,85.0
783,182.54543197499999,183.15398253749999,59.0,89.0
784,182.54543197499999,183.19674554999997,63.0,88.0
785,182.94016747499998,183.216482325,47.0,74.0
786,183.33490297499998,183.6210862125,59.0,85.0
787,183.33490297499998,183.65398083749997,54.0,78.0
788,183.33490297499998,183.6605597625,47.0,84.0
789,183.33490297499998,183.75759890625,63.0,84.0
790,184.12437397499997,184.34970215624998,56.0,82.0
791,184.12437397499997,184.3677942,49.0,86.0
792,184.12437397499997,184.40233355624997,61.0,84.0
793,184.12437397499997,184.45989914999998,65.0,85.0
794,184.913844975,185.24114649375,66.0,84.0
795,185.11121272499997,185.37930391874997,58.0,83.0
796,185.30858047499999,185.5092376875,61.0,83.0
797,185.50594822499997,185.68357919999997,66.0,88.0
798,185.70331597499998,185.913841575,58.0,87.0
799,185.900683725,186.16219599374998,61.0,82.0
800,186.09805147499998,186.25430094374997,66.0,85.0
801,185.11121272499997,186.29212976249997,49.0,69.0
802,184.913844975,186.334892775,42.0,84.0
803,186.295419225,186.40397148749997,58.0,74.0
804,186.49278697499997,186.58160246249997,58.0,82.0
805,186.49278697499997,186.99114054375,66.0,84.0
806,186.88752247499997,187.12765323749997,58.0,85.0
807,187.08489022499998,187.29212636249997,61.0,79.0
808,187.282257975,187.676993475,66.0,89.0
809,187.47962572499998,187.7526511125,58.0,83.0
810,186.49278697499997,187.90561111875,42.0,84.0
811,187.676993475,187.92205843124998,61.0,75.0
812,186.69015472499999,187.9302820875,49.0,76.0
813,187.87436122499997,188.157255,66.0,77.0
814,188.46646447499998,188.78554233749998,59.0,87.0
815,188.663832225,188.86284470624997,63.0,84.0
816,188.86119997499998,189.17863310624998,66.0,89.0
817,188.07172897499998,189.2460670875,47.0,88.0
818,188.26909672499997,189.348040425,54.0,83.0
819,189.058567725,189.42534279375,59.0,85.0
820,189.25593547499997,189.47139526874997,63.0,78.0
821,189.45330322499998,189.58488172499997,66.0,82.0
822,189.65067097499997,189.88257808125,61.0,78.0
823,189.65067097499997,189.90067012499998,65.0,85.0
824,190.045406475,190.35626068124998,61.0,90.0
825,190.24277422499998,190.38422111249997,65.0,77.0
826,190.440141975,190.63750972499997,61.0,72.0
827,190.440141975,191.13586329375,65.0,75.0
828,189.65067097499997,191.150665875,49.0,88.0
829,189.84803872499998,191.16546845624998,56.0,78.0
830,190.440141975,191.19836308125,68.0,83.0
831,191.22961297499998,192.14243881874998,61.0,79.0
832,192.41381947499997,192.64408185,61.0,27.0
833,192.01908397499997,192.66546335624997,66.0,83.0
834,192.41381947499997,192.8842126125,58.0,69.0
835,191.62434847499998,193.28223757499998,49.0,59.0
836,191.22961297499998,193.41546080624997,42.0,83.0
837,193.203290475,193.61282855624998,58.0,64.0
838,192.808554975,193.64078898749997,66.0,78.0
839,193.59802597499998,193.94670899999997,65.0,87.0
840,193.99276147499998,194.2526290125,61.0,81.0
841,194.38749697499998,194.66216709374999,58.0,74.0
842,194.78223247499997,195.11611291875,58.0,73.0
843,194.38749697499998,195.21315206249997,63.0,76.0
844,195.17696797499997,195.58815078749998,66.0,79.0
845,195.571703475,196.0026230625,58.0,66.0
846,194.38749697499998,196.61775254999998,51.0,83.0
847,195.966438975,196.71972588749998,66.0,79.0
848,196.36117447499998,196.74768631874997,58.0,73.0
849,196.75590997499998,197.48781538125,61.0,76.0
850,196.75590997499998,197.49110484374998,49.0,87.0
851,196.75590997499998,197.49110484374998,65.0,84.0
852,197.54538097499997,198.13255003125,59.0,84.0
853,197.54538097499997,198.14899734374998,63.0,84.0
854,197.94011647499997,198.43353584999997,54.0,77.0
855,197.54538097499997,198.51906187499998,47.0,85.0
856,198.334851975,198.690113925,59.0,85.0
857,198.53221972499998,198.70491650625,54.0,84.0
858,198.729587475,198.83978446874997,47.0,88.0
859,198.334851975,198.96313931249998,63.0,86.0
860,198.334851975,199.01248124999998,66.0,83.0
861,199.12432297499998,199.62596600624997,61.0,78.0
862,199.12432297499998,199.64570278124998,58.0,78.0
863,199.51905847499998,200.04043828124998,53.0,79.0
864,199.91379397499998,200.058530325,58.0,84.0
865,199.12432297499998,200.13583269375,46.0,84.0
866,199.91379397499998,200.22958237499998,61.0,87.0
867,199.91379397499998,200.36280560625,65.0,88.0
868,200.30852947499997,200.41708173749998,58.0,75.0
869,200.70326497499997,201.22464478125,59.0,72.0
870,200.70326497499997,201.25424994374998,63.0,81.0
871,201.492735975,201.59306458125,59.0,85.0
872,200.70326497499997,201.83812953749998,47.0,85.0
873,201.098000475,201.9466818,54.0,71.0
874,201.492735975,202.03220782499997,66.0,80.0
875,201.492735975,202.10786546249997,63.0,85.0
876,201.88747147499998,202.13253643124997,59.0,73.0
877,202.28220697499998,202.38911450624997,59.0,84.0
878,202.28220697499998,202.40062762499997,47.0,85.0
879,202.28220697499998,202.43845644374997,63.0,84.0
880,202.28220697499998,202.48615364999998,66.0,83.0
881,203.07167797499997,203.16213819374997,37.0,84.0
882,203.07167797499997,203.3677296,61.0,83.0
883,203.07167797499997,203.38911110624997,56.0,83.0
884,203.07167797499997,203.39075583749997,65.0,85.0
885,203.79700445625,204.29864748749998,66.0,79.0
886,203.80193864999998,204.33483157499998,58.0,81.0
887,204.59305438124997,204.72956707499998,58.0,83.0
888,204.59140964999997,204.79042213124998,61.0,88.0
889,204.58812018749998,204.89239546874998,66.0,84.0
890,204.9894346125,205.17857870625,58.0,65.0
891,205.37923591874997,205.49930129999998,58.0,84.0
892,205.37759118749997,205.5618010875,61.0,85.0
893,204.20983199999998,205.63087979999997,49.0,70.0
894,203.81345176874999,205.8150897,42.0,84.0
895,205.37265699374998,205.86936583124998,66.0,83.0
896,205.80028711875,205.96804970624999,58.0,58.0
897,206.22462778124998,206.46969273749997,41.0,83.0
898,206.20818046875,206.77725748125,60.0,83.0
899,206.2065357375,206.79699425624997,56.0,82.0
900,206.20324627499997,206.86607296875,65.0,84.0
901,207.019032975,207.71968848749998,66.0,78.0
902,207.019032975,207.93843774374997,58.0,80.0
903,207.41376847499998,208.15389753749997,46.0,70.0
904,207.019032975,208.18185796874997,39.0,85.0
905,207.80850397499998,208.19830528125,63.0,80.0
906,208.20323947499998,208.34468636249997,58.0,84.0
907,207.80850397499998,208.59139605,66.0,84.0
908,208.59797497499997,209.04863133749998,65.0,84.0
909,208.59797497499997,209.10290746874998,61.0,78.0
910,208.99271047499997,209.23119650624997,56.0,82.0
911,208.59797497499997,209.4894193125,49.0,84.0
912,209.387445975,209.57001114374998,56.0,86.0
913,209.387445975,209.76079996874998,61.0,85.0
914,209.387445975,210.00093073124998,65.0,85.0
915,209.782181475,210.06836471249997,56.0,82.0
916,210.17691697499998,210.62757333749997,59.0,80.0
917,210.17691697499998,210.82329635624998,63.0,83.0
918,210.769020225,211.06507184999998,59.0,83.0
919,210.96638797499998,211.23118970624998,63.0,80.0
920,211.163755725,211.39237336875,59.0,85.0
921,210.57165247499998,211.4302021875,54.0,81.0
922,210.17691697499998,211.45980734999998,47.0,85.0
923,211.36112347499997,211.70487230624997,63.0,80.0
924,211.75585897499997,212.29862028749997,58.0,78.0
925,211.75585897499997,212.30355448125,61.0,82.0
926,212.150594475,212.6209876125,53.0,76.0
927,212.545329975,212.72296095,58.0,84.0
928,211.75585897499997,212.82328955625,46.0,84.0
929,212.74269772499997,212.88249988124997,53.0,87.0
930,212.94006547499998,213.19828828124997,58.0,83.0
931,213.13743322499997,213.25914333749998,61.0,78.0
932,213.33480097499998,213.93019368749998,59.0,86.0
933,213.33480097499998,213.94828573124997,63.0,62.0
934,213.72953647499997,214.242692625,54.0,85.0
935,213.33480097499998,214.27723198124997,47.0,85.0
936,214.12427197499997,214.73282253749997,59.0,89.0
937,214.12427197499997,214.77558555,63.0,88.0
938,214.51900747499997,214.79532232499997,47.0,74.0
939,214.913742975,215.19992621249997,59.0,85.0
940,214.913742975,215.2328208375,54.0,78.0
941,214.913742975,215.23939976249997,47.0,84.0
942,214.913742975,215.33643890624998,63.0,84.0
943,215.70321397499998,215.92854215625,56.0,82.0
944,215.70321397499998,215.94663419999998,49.0,86.0
945,215.70321397499998,215.98117355624998,61.0,84.0
946,215.70321397499998,216.03873914999997,65.0,85.0
947,216.46965873749997,217.00090693124997,61.0,71.0
948,216.47130346874997,217.308471675,66.0,69.0
949,217.23610349999998,218.06011385624998,61.0,72.0
950,217.6275495375,218.31011300625,66.0,83.0
951,218.01241664999998,218.374257525,70.0,74.0
952,216.85946004374998,218.39892849375,49.0,64.0
953,216.48117185624997,218.4630730125,42.0,80.0
954,218.83971646874997,219.22293885,61.0,79.0
955,218.84300593125,219.31668853124998,65.0,83.0
956,219.62096381249998,219.86273930624998,58.0,71.0
957,220.01898877499997,220.466355675,58.0,70.0
958,219.62589800624997,220.88905160624998,63.0,75.0
959,220.440039975,220.94826193125,66.0,78.0
960,219.64234531875,221.04201161249998,51.0,79.0
961,220.80023611874998,221.26733979374998,58.0,72.0
962,221.20484000624998,222.00088993125,66.0,75.0
963,221.99595573749997,222.163718325,49.0,80.0
964,221.9992452,222.26898112499998,61.0,77.0
965,221.99760046874997,222.32983618125,56.0,79.0
966,222.80351878124998,223.04529427499997,59.0,59.0
967,223.22785944375,223.31174073749997,54.0,38.0
968,222.80516351249997,223.60285816874998,63.0,74.0
969,223.57818719999997,224.04693560624997,59.0,84.0
970,222.81009770625,224.08805388749997,47.0,66.0
971,223.9893700125,224.37423712499998,63.0,78.0
972,224.37917131874997,224.92028789999998,58.0,72.0
973,224.38575024374998,225.21305006249997,61.0,71.0
974,224.76732789374998,225.23772103124998,53.0,71.0
975,224.39068443749997,225.30022081874998,46.0,80.0
976,225.18673436249998,225.59627244374997,58.0,71.0
977,225.53377265624997,225.92028449999998,61.0,72.0
978,225.966336975,226.82488668749997,63.0,79.0
979,225.966336975,226.85942604374998,56.0,77.0
980,226.75580797499998,227.24264842499997,59.0,87.0
981,226.361072475,227.35284541874998,51.0,71.0
982,227.15054347499998,227.47784499374998,56.0,89.0
983,225.966336975,227.57159467499997,44.0,84.0
984,227.54527897499997,228.37751298749998,56.0,78.0
985,227.54527897499997,228.5518545,61.0,78.0
986,227.54527897499997,228.91205064374998,49.0,77.0
987,228.33474997499997,229.10283946874998,53.0,72.0
988,229.124220975,231.83802753749998,65.0,79.0
989,229.124220975,231.87585635624998,56.0,76.0
990,229.124220975,231.88572474375,61.0,76.0
991,233.46631147499997,233.8248628875,61.0,73.0
992,233.07157597499997,233.86927063124998,54.0,73.0
993,233.86104697499997,233.98440181874997,66.0,83.0
994,233.46631147499997,234.07650676874997,58.0,70.0
995,234.255782475,234.44821603124998,66.0,70.0
996,234.255782475,234.45479495624997,70.0,73.0
997,234.65051797499999,234.83637260624997,66.0,63.0
998,234.65051797499999,234.84953045624997,70.0,67.0
999,234.65051797499999,234.90051712499996,73.0,72.0
1000,235.04525347499998,235.17189778124998,66.0,71.0
1001,235.04525347499998,235.27387111874998,78.0,72.0
1002,235.43998897499998,236.13242083125,78.0,66.0
1003,235.43998897499998,236.14228921874997,82.0,64.0
1004,236.62419547499996,236.74755031874997,78.0,54.0
1005,236.62419547499996,236.75577397499998,90.0,78.0
1006,236.62419547499996,236.7656423625,82.0,71.0
1007,232.67684047499998,237.48110045624998,49.0,74.0
1008,232.67684047499998,237.76728369375,42.0,84.0
