,start,end,pitch,velocity
0,16.158592068750004,16.37182713541667,83.0,58.0
1,16.379180068750003,16.59241513541667,83.0,75.0
2,16.599768068750002,16.81300313541667,83.0,75.0
3,16.82035606875,17.033591135416668,81.0,62.0
4,17.04094406875,17.254179135416667,81.0,70.0
5,17.26153206875,17.47476713541667,79.0,63.0
6,17.482120068750003,17.69535513541667,81.0,66.0
7,17.702708068750002,18.136531135416668,83.0,63.0
8,18.14388406875,19.68064713541667,81.0,66.0
9,19.688000068750004,19.90123513541667,79.0,63.0
10,19.908588068750003,20.12182313541667,79.0,62.0
11,20.129176068750002,20.34241113541667,79.0,70.0
12,20.34976406875,20.562999135416668,78.0,60.0
13,20.57035206875,20.783587135416667,78.0,72.0
14,20.790940068750004,21.00417513541667,76.0,67.0
15,21.011528068750003,21.22476313541667,78.0,56.0
16,21.232116068750003,21.665939135416668,79.0,64.0
17,21.67329206875,22.54829113541667,78.0,60.0
18,22.555644068750002,22.768879135416668,74.0,55.0
19,22.77623206875,23.43064313541667,76.0,78.0
20,23.437996068750003,23.65123113541667,76.0,78.0
21,23.658584068750002,23.87181913541667,76.0,78.0
22,23.87917206875,24.31299513541667,79.0,88.0
23,24.32034806875,24.53358313541667,88.0,75.0
24,24.540936068750003,24.97475913541667,86.0,103.0
25,24.982112068750002,25.195347135416668,86.0,103.0
26,25.202700068750005,26.07769913541667,79.0,85.0
27,26.085052068750002,26.298287135416672,74.0,67.0
28,26.30564006875,26.73946313541667,76.0,67.0
29,26.74681606875,26.96005113541667,79.0,93.0
30,26.967404068750003,27.18063913541667,79.0,85.0
31,27.187992068750003,27.621815135416668,79.0,73.0
32,27.629168068750005,27.842403135416667,81.0,78.0
33,27.849756068750004,30.268871135416667,81.0,85.0
34,30.276224068750004,30.48945913541667,83.0,58.0
35,30.496812068750003,30.71004713541667,83.0,75.0
36,30.717400068750003,30.930635135416672,83.0,75.0
37,30.937988068750002,31.15122313541667,81.0,62.0
38,31.15857606875,31.37181113541667,81.0,70.0
39,31.37916406875,31.59239913541667,79.0,63.0
40,31.599752068750004,31.81298713541667,81.0,66.0
41,31.820340068750003,32.25416313541667,83.0,63.0
42,32.26151606875,33.79827913541667,81.0,66.0
43,33.80563206875,34.01886713541667,79.0,63.0
44,34.02622006875001,34.23945513541667,79.0,62.0
45,34.24680806875,34.46004313541667,79.0,70.0
46,34.467396068750006,34.680631135416675,78.0,60.0
47,34.687984068750005,34.90121913541667,78.0,72.0
48,34.908572068750004,35.121807135416674,76.0,67.0
49,35.129160068750004,35.342395135416666,78.0,56.0
50,35.34974806875,35.783571135416665,79.0,64.0
51,35.79092406875,36.66592313541667,78.0,60.0
52,36.67327606875,36.88651113541667,74.0,55.0
53,36.893864068750005,37.548275135416674,76.0,78.0
54,37.55562806875,37.768863135416666,76.0,78.0
55,37.77621606875,37.98945113541667,76.0,78.0
56,37.99680406875,38.43062713541667,79.0,88.0
57,38.43798006875001,38.65121513541667,88.0,75.0
58,38.65856806875,39.09239113541667,86.0,82.0
59,39.09974406875,39.31297913541667,86.0,82.0
60,39.320332068750005,40.195331135416666,79.0,85.0
61,40.20268406875,40.41591913541667,74.0,67.0
62,40.42327206875,40.85709513541667,76.0,67.0
63,40.86444806875001,41.07768313541667,79.0,93.0
64,41.08503606875,41.29827113541667,79.0,85.0
65,41.30562406875001,41.73944713541667,79.0,73.0
66,41.746800068750005,41.960035135416675,81.0,78.0
67,41.967388068750004,43.50415113541667,81.0,85.0
68,43.51150406875,43.72473913541667,79.0,75.0
69,43.732092068750006,43.94348890208334,81.0,78.0
70,43.952680068750006,44.16591513541667,81.0,76.0
71,44.173268068750005,44.386503135416675,83.0,72.0
72,44.393856068750004,44.60709113541667,83.0,75.0
73,44.614444068750004,44.82767913541667,83.0,69.0
74,44.83503206875,45.165914068750006,83.0,78.0
75,45.05562006875,45.35525210208334,81.0,91.0
76,45.49679606875,45.75782520208334,79.0,66.0
77,45.71738406875001,46.005986702083334,81.0,91.0
78,45.93797206875,46.340545168750005,83.0,69.0
79,46.379148068750006,47.18061780208333,81.0,72.0
80,47.26150006875,47.47473513541667,74.0,80.0
81,47.48208806875,47.825837702083334,76.0,75.0
82,47.92326406875,48.22841080208333,79.0,72.0
83,48.14385206875001,48.22841080208333,79.0,75.0
84,48.36444006875,48.798263135416676,79.0,80.0
85,48.80561606875,49.01885113541667,76.0,73.0
86,49.026204068750005,50.56296713541667,74.0,66.0
87,50.57032006875001,50.78355513541668,79.0,73.0
88,50.79090806875,51.00414313541667,81.0,73.0
89,51.011496068750006,51.224731135416675,83.0,76.0
90,51.23208406875,51.44531913541667,83.0,76.0
91,51.452672068750005,51.665907135416674,83.0,76.0
92,51.67326006875001,51.886495135416666,83.0,85.0
93,51.89384806875,52.10708313541667,83.0,93.0
94,52.11443606875001,52.76884713541668,88.0,81.0
95,52.77620006875,53.186126102083335,86.0,79.0
96,53.21737606875,53.45450816875001,86.0,74.0
97,53.437964068750006,54.53538936875,83.0,66.0
98,54.54090406875001,54.754139135416665,83.0,85.0
99,54.76149206875,54.97472713541667,84.0,76.0
100,54.98208006875001,55.19531513541668,84.0,85.0
101,55.20266806875,55.41590313541667,83.0,85.0
102,55.42325606875001,55.63649113541668,84.0,91.0
103,55.64384406875,56.29825513541667,86.0,95.0
104,56.305608068750004,57.62178313541668,86.0,97.0
105,57.62913606875,57.84237113541667,79.0,99.0
106,57.84972406875001,58.062959135416676,81.0,80.0
107,58.07031206875,58.28354713541667,81.0,93.0
108,58.290900068750005,58.504135135416675,83.0,88.0
109,58.51148806875001,58.72472313541667,83.0,82.0
110,58.732076068750004,58.945311135416674,83.0,95.0
111,58.95266406875001,59.82766313541667,83.0,95.0
112,59.83501606875001,60.04825113541668,81.0,88.0
113,60.05560406875,60.26883913541667,86.0,72.0
114,60.27619206875001,60.489427135416676,86.0,80.0
115,60.49678006875,60.71001513541667,86.0,85.0
116,60.717368068750005,61.37177913541667,86.0,97.0
117,61.37913206875001,61.592367135416666,86.0,93.0
118,61.59972006875,61.81295513541667,91.0,78.0
119,61.82030806875001,62.03354313541668,91.0,82.0
120,62.04089606875,62.25413113541667,91.0,78.0
121,62.26148406875001,62.47471913541668,91.0,85.0
122,62.48207206875,62.915895135416676,91.0,91.0
123,62.92324806875,63.13648313541667,88.0,93.0
124,63.143836068750005,63.357071135416675,91.0,76.0
125,63.36442406875001,63.79824713541667,88.0,93.0
126,63.80560006875001,64.90118713541668,86.0,85.0
127,64.90854006875,65.12177513541667,79.0,76.0
128,65.12912806875,65.34236313541668,79.0,82.0
129,65.34971606875,65.56295113541667,88.0,88.0
130,65.57030406875,65.78353913541667,88.0,78.0
131,65.79089206875001,66.00412713541667,88.0,85.0
132,66.01148006875,66.44530313541667,88.0,93.0
133,66.45265606875,66.66589113541667,86.0,75.0
134,66.67324406875001,66.88647913541668,83.0,95.0
135,66.89383206875,67.32765513541668,83.0,97.0
136,67.33500806875,67.54824313541667,81.0,66.0
137,67.55559606875,68.21000713541667,79.0,80.0
138,68.21736006875001,68.43059513541667,74.0,78.0
139,68.43794806875,68.65118313541667,74.0,88.0
140,68.65853606875001,69.09235913541667,76.0,78.0
141,69.09971206875001,69.31294713541668,79.0,88.0
142,69.32030006875,69.75412313541668,79.0,82.0
143,69.76147606875,70.41588713541667,83.0,75.0
144,71.74676806875,71.96000313541667,79.0,99.0
145,70.42324006875,72.18059113541668,81.0,93.0
146,71.96735606875001,72.18059113541668,81.0,80.0
147,72.18794406875,72.40117913541667,81.0,93.0
148,72.40853206875,72.62176713541668,83.0,88.0
149,72.62912006875001,72.84235513541667,83.0,82.0
150,72.84970806875,73.06294313541667,83.0,95.0
151,73.07029606875001,73.94529513541667,83.0,95.0
152,73.95264806875001,74.16588313541668,81.0,88.0
153,74.17323606875,74.38647113541667,86.0,72.0
154,74.39382406875,74.60705913541668,86.0,80.0
155,74.61441206875,74.82764713541667,86.0,85.0
156,74.83500006875,75.48941113541667,86.0,97.0
157,75.49676406875001,75.70999913541667,86.0,93.0
158,75.71735206875,75.93058713541667,91.0,78.0
159,75.93794006875001,76.15117513541668,91.0,82.0
160,76.15852806875,76.37176313541667,91.0,78.0
161,76.37911606875001,76.59235113541668,91.0,85.0
162,76.59970406875,77.03352713541668,91.0,91.0
163,77.04088006875001,77.25411513541667,88.0,93.0
164,77.26146806875,77.47470313541668,91.0,76.0
165,77.48205606875001,77.91587913541667,88.0,93.0
166,77.92323206875001,78.14382006875,86.0,85.0
167,78.14382006875,78.36440806875001,86.0,85.0
168,79.02617206875,79.23940713541667,79.0,76.0
169,79.24676006875,79.45999513541668,79.0,82.0
170,79.46734806875001,79.68058313541667,88.0,88.0
171,79.68793606875,79.90117113541667,88.0,78.0
172,79.90852406875001,80.12175913541667,88.0,85.0
173,80.12911206875,80.56293513541668,88.0,93.0
174,80.57028806875002,80.78352313541667,86.0,75.0
175,80.79087606875001,81.00227290208335,83.0,95.0
176,81.01146406875002,81.44528713541668,83.0,97.0
177,81.45264006875001,81.66587513541668,81.0,66.0
178,81.67322806875,82.32763913541667,79.0,80.0
179,82.55558006875,82.76881513541667,74.0,88.0
180,82.77616806875001,83.20999113541667,76.0,78.0
181,83.21734406875001,83.43057913541668,79.0,88.0
182,83.43793206875002,83.87175513541668,79.0,82.0
183,83.87910806875001,84.53351913541668,83.0,75.0
184,84.54087206875,86.07395866875001,81.0,93.0
185,85.86440006875002,86.07395866875001,81.0,93.0
186,86.08498806875001,86.31844370208334,83.0,78.0
187,86.30557606875001,86.66035510208334,81.0,80.0
188,86.74675206875001,86.92322246875001,79.0,80.0
189,86.96734006875,88.11807413541668,79.0,78.0
190,89.39380806875,89.56476376875001,67.0,78.0
191,89.61439606875001,89.74858710208335,69.0,75.0
192,89.83498406875002,90.76513013541668,69.0,97.0
193,90.71733606875001,91.33130600208334,71.0,76.0
194,92.92321606875001,93.35703913541668,62.0,82.0
195,93.36439206875,94.20814116875002,64.0,76.0
196,94.24674406875,95.06843436875,72.0,85.0
197,95.12909606875002,96.15666850208335,71.0,93.0
198,96.45262406875001,96.55005043541668,79.0,91.0
199,96.45262406875001,96.58313863541667,91.0,88.0
200,96.67321206875002,96.78166783541668,81.0,60.0
201,96.67321206875002,96.79269723541668,93.0,82.0
202,96.89380006875001,97.56843170208334,81.0,88.0
203,96.89380006875001,97.62541693541668,93.0,78.0
204,97.77615206875001,98.44343076875,95.0,85.0
205,97.77615206875001,98.45446016875002,83.0,72.0
206,98.65850406875,99.30004750208334,78.0,95.0
207,98.65850406875,99.34967980208334,90.0,66.0
208,99.54085606875002,100.17320833541667,74.0,58.0
209,99.54085606875002,100.19342890208334,86.0,88.0
210,100.42320806875001,101.13276613541667,76.0,60.0
211,100.42320806875001,101.22835426875001,88.0,70.0
212,101.30556006875001,101.54820686875001,96.0,70.0
213,101.30556006875001,101.56658920208335,84.0,80.0
214,101.74673606875001,102.02430930208334,81.0,85.0
215,101.74673606875001,102.08313276875,93.0,75.0
216,102.18791206875001,103.00041120208334,91.0,58.0
217,102.18791206875001,103.20077863541668,86.0,58.0
218,102.40850006875002,103.47467540208335,95.0,82.0
219,104.39379206875002,104.60702713541667,71.0,58.0
220,104.61438006875001,104.82761513541668,71.0,75.0
221,104.83496806875002,105.04820313541668,71.0,75.0
222,105.05555606875001,105.26879113541668,69.0,62.0
223,105.27614406875001,105.48937913541668,69.0,70.0
224,105.49673206875,105.70996713541668,67.0,63.0
225,105.71732006875001,105.93055513541668,69.0,66.0
226,105.93790806875002,106.37173113541668,71.0,63.0
227,106.37908406875002,107.91584713541668,69.0,66.0
228,107.92320006875,108.13643513541668,67.0,63.0
229,108.14378806875001,108.35702313541668,67.0,62.0
230,108.36437606875002,108.57761113541667,67.0,70.0
231,108.58496406875001,108.79819913541668,66.0,60.0
232,108.80555206875002,109.01878713541667,66.0,72.0
233,109.02614006875001,109.23937513541668,64.0,67.0
234,109.24672806875002,109.45996313541669,66.0,56.0
235,109.46731606875001,109.90113913541668,67.0,64.0
236,109.90849206875001,110.78349113541668,66.0,60.0
237,110.79084406875002,111.00407913541667,62.0,55.0
238,111.01143206875001,111.66584313541668,64.0,78.0
239,111.67319606875002,111.88643113541669,64.0,78.0
240,111.89378406875001,112.10701913541668,64.0,78.0
241,112.11437206875001,112.54819513541668,67.0,88.0
242,112.55554806875001,112.76878313541668,76.0,75.0
243,112.77613606875,113.20995913541668,74.0,103.0
244,113.21731206875002,113.43054713541667,74.0,103.0
245,113.43790006875001,114.31289913541669,67.0,85.0
246,114.32025206875001,114.53348713541668,62.0,67.0
247,114.54084006875001,114.97466313541668,64.0,67.0
248,114.98201606875001,115.19525113541668,67.0,93.0
249,115.20260406875002,115.41583913541668,67.0,85.0
250,115.42319206875001,115.85701513541667,67.0,73.0
251,115.86436806875001,116.07760313541668,69.0,78.0
252,116.08495606875002,118.50407113541668,69.0,85.0
253,118.51142406875002,118.72465913541669,71.0,58.0
254,118.73201206875001,118.94524713541668,71.0,75.0
255,118.95260006875002,119.16583513541669,71.0,75.0
256,119.17318806875001,119.38642313541668,69.0,62.0
257,119.39377606875001,119.60701113541668,69.0,70.0
258,119.61436406875,119.82759913541668,67.0,63.0
259,119.83495206875001,120.04818713541668,69.0,66.0
260,120.05554006875002,120.48936313541668,71.0,63.0
261,120.49671606875002,122.03347913541668,69.0,66.0
262,122.04083206875,122.25406713541668,67.0,63.0
263,122.26142006875001,122.47465513541668,67.0,62.0
264,122.48200806875002,122.69524313541667,67.0,70.0
265,122.70259606875001,122.91583113541668,66.0,60.0
266,122.92318406875002,123.13641913541667,66.0,72.0
267,123.14377206875001,123.35700713541668,64.0,67.0
268,123.36436006875002,123.57759513541669,66.0,56.0
269,123.58494806875001,124.01877113541669,67.0,64.0
270,124.02612406875001,124.90112313541668,66.0,60.0
271,124.90847606875002,125.12171113541667,62.0,55.0
272,125.12906406875001,125.78347513541668,64.0,78.0
273,125.79082806875002,126.00406313541669,64.0,78.0
274,126.01141606875001,126.22465113541668,64.0,78.0
275,126.23200406875002,126.66582713541668,67.0,88.0
276,126.67318006875001,126.88641513541668,76.0,75.0
277,126.89376806875002,127.32759113541668,74.0,82.0
278,127.33494406875002,127.54817913541667,74.0,82.0
279,127.55553206875001,128.4305311354167,67.0,85.0
280,128.43788406875,128.65111913541668,62.0,67.0
281,128.65847206875,129.09229513541666,64.0,67.0
282,129.09964806875,129.31288313541668,67.0,93.0
283,129.32023606875,129.53347113541668,67.0,85.0
284,129.54082406875,129.97464713541666,67.0,73.0
285,129.98200006875,130.19523513541668,69.0,78.0
286,130.20258806875,131.73935113541668,69.0,85.0
287,131.74670406875,131.95993913541668,67.0,75.0
288,131.96729206875,132.17868890208334,69.0,78.0
289,132.18788006875002,132.40111513541666,69.0,76.0
290,132.40846806875,132.62170313541668,71.0,72.0
291,132.62905606875,132.84229113541667,71.0,75.0
292,132.84964406875,133.06287913541667,71.0,69.0
293,133.07023206875002,133.40111406875002,71.0,78.0
294,133.29082006875,133.59045210208333,69.0,91.0
295,133.73199606875002,133.99302520208334,67.0,66.0
296,133.95258406875,134.24118670208335,69.0,91.0
297,134.17317206875,134.57574516875002,71.0,69.0
298,134.61434806875002,135.41581780208335,69.0,72.0
299,135.49670006875002,135.70993513541669,62.0,80.0
300,135.71728806875,136.06103770208335,64.0,75.0
301,136.15846406875002,136.46361080208334,67.0,72.0
302,136.37905206875,136.46361080208334,67.0,75.0
303,136.59964006875,137.03346313541667,67.0,80.0
304,137.04081606875002,137.2540511354167,64.0,73.0
305,137.26140406875,138.79816713541666,62.0,66.0
306,138.80552006875,139.01875513541668,67.0,73.0
307,139.02610806875,139.23934313541668,69.0,73.0
308,139.24669606875,139.45993113541667,71.0,76.0
309,139.46728406875002,139.6805191354167,71.0,76.0
310,139.68787206875,139.90110713541668,71.0,76.0
311,139.90846006875,140.12169513541667,71.0,85.0
312,140.12904806875,140.34228313541666,71.0,93.0
313,140.34963606875002,141.00404713541667,76.0,81.0
314,141.01140006875002,141.42132610208333,74.0,79.0
315,141.45257606875,141.68970816875,74.0,74.0
316,141.67316406875,142.77058936875,71.0,66.0
317,142.77610406875002,142.98933913541669,71.0,85.0
318,142.99669206875,143.20992713541668,72.0,76.0
319,143.21728006875,143.43051513541667,72.0,85.0
320,143.43786806875002,143.65110313541666,71.0,85.0
321,143.65845606875,143.87169113541668,72.0,91.0
322,143.87904406875,144.53345513541666,74.0,95.0
323,144.54080806875,145.85698313541667,74.0,97.0
324,149.39558230208334,149.60881736875,67.0,99.0
325,149.61617030208333,149.82940536875,69.0,80.0
326,149.83675830208333,150.04999336875,69.0,93.0
327,150.05734630208335,150.27058136875002,71.0,88.0
328,150.27793430208334,150.49116936875,71.0,82.0
329,150.49852230208333,150.71175736875,71.0,95.0
330,150.71911030208332,151.59410936875,71.0,95.0
331,151.60146230208335,151.81469736875,69.0,88.0
332,151.82205030208334,152.03528536875,74.0,72.0
333,152.04263830208333,152.25587336875,74.0,80.0
334,152.26322630208332,152.47646136875,74.0,85.0
335,152.48381430208335,153.13822536875,74.0,97.0
336,153.14557830208332,153.35881336875,74.0,93.0
337,153.36616630208334,153.57940136875,79.0,78.0
338,153.58675430208334,153.79998936875,79.0,82.0
339,153.80734230208333,154.02057736875,79.0,78.0
340,154.02793030208335,154.24116536875,79.0,85.0
341,154.24851830208334,154.68234136875,79.0,91.0
342,154.68969430208332,154.90292936875,76.0,93.0
343,154.91028230208335,155.12351736875002,79.0,76.0
344,155.13087030208334,155.56469336875,76.0,93.0
345,155.57204630208332,156.66763336875,74.0,85.0
346,156.67498630208334,156.88822136875,67.0,76.0
347,156.89557430208333,157.10880936875,67.0,82.0
348,157.11616230208332,157.32939736875,76.0,88.0
349,157.33675030208335,157.54998536875001,76.0,78.0
350,157.55733830208334,157.77057336875,76.0,85.0
351,157.77792630208333,158.21174936875,76.0,93.0
352,158.21910230208334,158.43233736875,74.0,75.0
353,158.43969030208333,158.65292536875,71.0,95.0
354,158.66027830208333,159.09410136875,71.0,97.0
355,159.10145430208334,159.31468936875,69.0,66.0
356,159.32204230208333,159.97645336875001,67.0,80.0
357,159.98380630208334,160.19704136875,62.0,78.0
358,160.20439430208333,160.41762936875,62.0,88.0
359,160.42498230208332,160.85880536875,64.0,78.0
360,160.86615830208333,161.07939336875,67.0,88.0
361,161.08674630208333,161.52056936875,67.0,82.0
362,161.52792230208334,162.18233336875,71.0,75.0
363,162.18968630208335,163.51137606875,69.0,93.0
364,163.51321430208333,163.72644936875,67.0,99.0
365,163.73380230208335,163.94703736875,69.0,80.0
366,163.95439030208334,164.16762536875,69.0,93.0
367,164.17497830208333,164.38821336875,71.0,88.0
368,164.39556630208332,164.60880136875,71.0,82.0
369,164.61615430208334,164.82938936875001,71.0,95.0
370,164.83674230208334,165.71174136875,71.0,95.0
371,165.71909430208333,165.93232936875,69.0,88.0
372,165.93968230208333,166.15291736875,74.0,72.0
373,166.16027030208335,166.37350536875,74.0,80.0
374,166.38085830208334,166.59409336875,74.0,85.0
375,166.60144630208333,167.25585736875001,74.0,97.0
376,167.26321030208334,167.47644536875,74.0,93.0
377,167.48379830208333,167.69703336875,79.0,78.0
378,167.70438630208335,167.91762136875,79.0,82.0
379,167.92497430208334,168.13820936875,79.0,78.0
380,168.14556230208333,168.35879736875,79.0,85.0
381,168.36615030208333,168.79997336875002,79.0,91.0
382,168.80732630208334,169.02056136875,76.0,93.0
383,169.02791430208333,169.24114936875,79.0,76.0
384,169.24850230208332,169.68232536875,76.0,93.0
385,169.68967830208334,169.91026630208333,74.0,85.0
386,169.91026630208333,170.13085430208335,74.0,85.0
387,170.79261830208333,171.00585336875,67.0,76.0
388,171.01320630208335,171.22644136875002,67.0,82.0
389,171.23379430208334,171.44702936875,76.0,88.0
390,171.45438230208333,171.66761736875,76.0,78.0
391,171.67497030208332,171.88820536875,76.0,85.0
392,171.89555830208334,172.32938136875,76.0,93.0
393,172.33673430208333,172.54996936875,74.0,75.0
394,172.55732230208335,172.76871913541666,71.0,95.0
395,172.77791030208334,173.21173336875,71.0,97.0
396,173.21908630208333,173.43232136875,69.0,66.0
397,173.43967430208335,174.09408536875,67.0,80.0
398,174.32202630208334,174.53526136875,62.0,88.0
399,174.54261430208334,174.97643736875,64.0,78.0
400,174.98379030208335,175.19702536875,67.0,88.0
401,175.20437830208334,175.63820136875,67.0,82.0
402,175.64555430208333,176.29996536875,71.0,75.0
403,176.30731830208333,177.84040490208335,69.0,93.0
404,177.63084630208334,177.84040490208335,69.0,93.0
405,177.85143430208333,178.08488993541667,71.0,78.0
406,178.07202230208333,178.42680133541668,69.0,80.0
407,178.51319830208334,178.68966870208334,67.0,80.0
408,178.73378630208333,179.88452036875,67.0,78.0
409,181.16025430208333,181.37348936875,67.0,99.0
410,181.38084230208332,181.59407736875,69.0,80.0
411,181.60143030208334,181.81466536875,69.0,93.0
412,181.82201830208334,182.03525336875,71.0,88.0
413,182.04260630208333,182.25584136875,71.0,82.0
414,182.26319430208335,182.47642936875,71.0,95.0
415,182.48378230208334,183.35878136875002,71.0,95.0
416,183.36613430208334,183.57936936875,69.0,88.0
417,183.58672230208333,183.79995736875,74.0,72.0
418,183.80731030208335,184.02054536875,74.0,80.0
419,184.02789830208334,184.24113336875,74.0,85.0
420,184.24848630208334,184.90289736875,74.0,97.0
421,184.91025030208334,185.12348536875,74.0,93.0
422,185.13083830208333,185.34407336875,79.0,78.0
423,185.35142630208333,185.56466136875,79.0,82.0
424,185.57201430208335,185.78524936875002,79.0,78.0
425,185.79260230208334,186.00583736875,79.0,85.0
426,186.01319030208333,186.44701336875,79.0,91.0
427,186.45436630208334,186.66760136875,76.0,93.0
428,186.67495430208334,186.88818936875,79.0,76.0
429,186.89554230208333,187.32936536875002,76.0,93.0
430,187.33671830208334,188.43230536875,74.0,85.0
431,188.43965830208333,188.65289336875,67.0,76.0
432,188.66024630208335,188.87348136875,67.0,82.0
433,188.88083430208334,189.09406936875,76.0,88.0
434,189.10142230208334,189.31465736875,76.0,78.0
435,189.32201030208333,189.53524536875,76.0,85.0
436,189.54259830208335,189.97642136875,76.0,93.0
437,189.98377430208333,190.19700936875,74.0,75.0
438,190.20436230208333,190.41759736875,71.0,95.0
439,190.42495030208335,190.85877336875,71.0,97.0
440,190.86612630208333,191.07936136875,69.0,66.0
441,191.08671430208335,191.74112536875,67.0,80.0
442,191.74847830208333,191.96171336875,62.0,78.0
443,191.96906630208335,192.18230136875002,62.0,88.0
444,192.18965430208334,192.62347736875,64.0,78.0
445,192.63083030208333,192.84406536875,67.0,88.0
446,192.85141830208335,193.28524136875,67.0,82.0
447,193.29259430208333,193.94700536875,71.0,75.0
448,193.95435830208334,195.27604806875001,69.0,93.0
449,195.27788630208335,195.49112136875002,67.0,99.0
450,195.49847430208334,195.71170936875,69.0,80.0
451,195.71906230208333,195.93229736875,69.0,93.0
452,195.93965030208335,196.15288536875,71.0,88.0
453,196.16023830208334,196.37347336875,71.0,82.0
454,196.38082630208334,196.59406136875,71.0,95.0
455,196.60141430208333,197.47641336875,71.0,95.0
456,197.48376630208332,197.69700136875,69.0,88.0
457,197.70435430208335,197.91758936875001,74.0,72.0
458,197.92494230208334,198.13817736875,74.0,80.0
459,198.14553030208333,198.35876536875,74.0,85.0
460,198.36611830208335,199.02052936875,74.0,97.0
461,199.02788230208333,199.24111736875,74.0,93.0
462,199.24847030208335,199.46170536875002,79.0,78.0
463,199.46905830208334,199.68229336875,79.0,82.0
464,199.68964630208333,199.90288136875,79.0,78.0
465,199.91023430208332,200.12346936875,79.0,85.0
466,200.13082230208335,200.56464536875,79.0,91.0
467,200.57199830208333,200.78523336875,79.0,93.0
468,200.79258630208335,201.00582136875,81.0,76.0
469,201.01317430208334,201.44699736875,83.0,93.0
470,201.45435030208333,201.67493830208335,76.0,85.0
471,201.67493830208335,201.89552630208334,74.0,85.0
472,202.55729030208335,202.77052536875001,67.0,76.0
473,202.77787830208334,202.99111336875,67.0,82.0
474,202.99846630208333,203.21170136875,76.0,88.0
475,203.21905430208335,203.43228936875,76.0,78.0
476,203.43964230208334,203.65287736875,76.0,85.0
477,203.66023030208333,204.09405336875,76.0,93.0
478,204.10140630208335,204.31464136875002,74.0,75.0
479,204.32199430208334,204.53339113541668,71.0,95.0
480,204.54258230208333,204.97640536875,71.0,97.0
481,204.98375830208334,205.19699336875001,69.0,66.0
482,205.20434630208334,205.85875736875002,67.0,80.0
483,206.08669830208333,206.29993336875,62.0,88.0
484,206.30728630208333,206.74110936875002,64.0,78.0
485,206.74846230208334,206.96169736875,67.0,88.0
486,206.96905030208333,207.40287336875,67.0,82.0
487,207.41022630208334,208.06463736875,71.0,75.0
488,208.07199030208335,209.60507690208334,69.0,93.0
489,209.39551830208333,209.60507690208334,69.0,93.0
490,209.61610630208335,209.84956193541666,71.0,78.0
491,209.83669430208334,210.19147333541667,69.0,80.0
492,210.27787030208333,210.45434070208333,67.0,80.0
493,210.49845830208335,211.64919236875,67.0,78.0
494,212.99370056875,213.11473415208334,62.0,67.0
495,213.23987056875,213.59662573125001,62.0,72.0
496,213.48604056875,213.91377563125002,64.0,73.0
497,213.98680356875002,214.22032944375002,67.0,69.0
498,214.24155906875,214.42201088125003,67.0,66.0
499,214.49631456875002,214.80098736875001,67.0,64.0
500,214.75561056875003,215.14032818125003,71.0,70.0
501,214.94360016875,216.08791566250002,69.0,64.0
502,216.90959331875004,217.22766426875003,69.0,62.0
503,217.18952106875003,217.58287281875002,71.0,72.0
504,217.47559506875004,217.9765879854167,69.0,70.0
505,218.05474031875002,218.25989019375,67.0,69.0
506,218.34781156875002,219.76053857916668,67.0,64.0
