,start,end,pitch,velocity
0,1.544116,1.6397041333333335,67.0,48.0
1,1.544116,1.6544100000000002,62.0,50.0
2,1.544116,1.6599247000000001,71.0,52.0
3,1.764704,1.8768362333333335,62.0,44.0
4,1.764704,1.8768362333333335,67.0,49.0
5,1.764704,1.8860274000000001,71.0,46.0
6,1.985292,2.121321266666667,62.0,54.0
7,1.985292,2.121321266666667,71.0,50.0
8,1.985292,2.126835966666667,67.0,59.0
9,1.323528,2.5551443333333337,55.0,66.0
10,2.20588,2.573526666666667,62.0,66.0
11,2.20588,2.6544089333333334,67.0,67.0
12,2.20588,2.683820666666667,71.0,67.0
13,3.3088200000000003,3.404408133333334,62.0,48.0
14,3.3088200000000003,3.4135993000000004,69.0,52.0
15,3.3088200000000003,3.4466875000000003,66.0,63.0
16,3.529408,3.6415402333333335,62.0,52.0
17,3.529408,3.643378466666667,69.0,61.0
18,3.529408,3.654407866666667,66.0,57.0
19,3.7499960000000003,3.8731576333333337,62.0,56.0
20,3.7499960000000003,3.8878635000000004,69.0,66.0
21,3.7499960000000003,3.9007311333333337,66.0,64.0
22,3.088232,4.165436733333333,55.0,62.0
23,3.970584,4.170951433333333,62.0,73.0
24,3.970584,4.205877866666667,69.0,76.0
25,3.970584,4.209554333333334,66.0,76.0
26,5.073524000000001,5.191170933333334,64.0,48.0
27,5.073524000000001,5.198523866666667,67.0,51.0
28,5.294112,5.402567766666667,64.0,46.0
29,5.294112,5.415435400000001,67.0,51.0
30,5.294112,5.431979500000001,72.0,44.0
31,5.5147,5.634185166666667,72.0,58.0
32,5.5147,5.6360234,64.0,56.0
33,5.5147,5.637861633333333,67.0,64.0
34,5.735288000000001,6.334552066666667,67.0,64.0
35,5.735288000000001,6.341905000000001,64.0,63.0
36,4.852936000000001,6.562493000000001,48.0,64.0
37,5.735288000000001,6.617640000000001,72.0,66.0
38,6.617640000000001,7.759182900000001,55.0,51.0
39,6.617640000000001,8.382344,62.0,52.0
40,6.617640000000001,8.382344,67.0,56.0
41,6.617640000000001,8.382344,71.0,63.0
42,8.602932000000001,8.7021966,67.0,55.0
43,8.602932000000001,8.716902466666667,62.0,58.0
44,8.602932000000001,8.737123033333335,71.0,56.0
45,8.82352,8.974255133333333,62.0,54.0
46,8.82352,8.974255133333333,67.0,61.0
47,8.82352,8.988961000000002,71.0,48.0
48,9.044108000000001,9.145210833333334,74.0,54.0
49,9.044108000000001,9.185651966666667,67.0,72.0
50,9.044108000000001,9.189328433333333,62.0,67.0
51,9.044108000000001,9.196681366666667,71.0,62.0
52,9.264696,9.351092966666668,74.0,62.0
53,9.264696,9.477931066666667,67.0,75.0
54,9.264696,9.481607533333333,62.0,72.0
55,9.264696,9.483445766666668,71.0,67.0
56,8.382344,9.6341809,55.0,52.0
57,8.382344,9.740798433333334,43.0,70.0
58,9.705872000000001,10.136018600000002,67.0,69.0
59,9.705872000000001,10.187489133333335,62.0,59.0
60,9.705872000000001,10.233444966666667,71.0,62.0
61,10.367636000000001,10.494474100000001,66.0,55.0
62,10.367636000000001,10.501827033333335,62.0,52.0
63,10.367636000000001,10.501827033333335,69.0,55.0
64,10.588224,10.698518,62.0,53.0
65,10.588224,10.711385633333334,66.0,67.0
66,10.588224,10.722415033333334,69.0,51.0
67,10.808812000000001,10.933811866666668,62.0,69.0
68,10.808812000000001,10.944841266666668,69.0,69.0
69,10.808812000000001,10.948517733333334,66.0,72.0
70,10.147048000000002,11.097414633333335,50.0,58.0
71,11.0294,11.404399600000001,62.0,75.0
72,11.0294,11.494473033333334,69.0,76.0
73,11.0294,11.496311266666668,66.0,85.0
74,10.147048000000002,11.512855366666667,38.0,59.0
75,11.470576000000001,11.568002366666667,50.0,66.0
76,12.132340000000001,12.270207500000001,64.0,48.0
77,12.132340000000001,12.277560433333335,72.0,45.0
78,12.132340000000001,12.279398666666667,67.0,52.0
79,12.352928,12.472413166666668,64.0,55.0
80,12.352928,12.483442566666668,67.0,58.0
81,12.352928,12.511016066666668,72.0,55.0
82,12.573516000000001,12.713221733333334,64.0,62.0
83,12.573516000000001,12.720574666666668,67.0,70.0
84,12.573516000000001,12.720574666666668,72.0,56.0
85,11.911752000000002,12.965059700000001,48.0,62.0
86,12.794104,13.220574133333335,72.0,78.0
87,12.794104,13.259177033333334,67.0,82.0
88,12.794104,13.270206433333334,64.0,78.0
89,11.911752000000002,13.277559366666667,36.0,67.0
90,13.235280000000001,13.340059300000002,48.0,61.0
91,13.676456000000002,14.654396133333334,71.0,62.0
92,13.676456000000002,14.729763700000001,55.0,57.0
93,13.676456000000002,14.738954866666667,43.0,53.0
94,13.676456000000002,14.742631333333334,67.0,70.0
95,13.676456000000002,14.817998900000001,62.0,56.0
96,15.599838156250001,16.77623846875,71.0,66.0
97,15.599838156250001,16.789106102083334,67.0,62.0
98,15.599838156250001,16.792782568750003,62.0,63.0
99,15.599838156250001,16.80381196875,69.0,66.0
100,15.599838156250001,16.82954723541667,55.0,66.0
101,17.482120068750003,18.743148135416668,54.0,64.0
102,17.482120068750003,18.756015768750004,59.0,66.0
103,17.482120068750003,18.840574502083335,62.0,57.0
104,17.482120068750003,18.86079506875,66.0,62.0
105,17.482120068750003,18.871824468750003,69.0,63.0
106,19.24682406875,20.171455435416668,71.0,57.0
107,19.24682406875,20.175131902083336,67.0,57.0
108,19.24682406875,20.191676002083334,64.0,54.0
109,19.24682406875,20.290940602083335,52.0,49.0
110,19.24682406875,20.316675868750004,59.0,57.0
111,21.011528068750003,21.636527402083335,62.0,48.0
112,21.011528068750003,21.645718568750002,66.0,61.0
113,21.011528068750003,21.706380268750003,74.0,56.0
114,21.011528068750003,22.23395323541667,50.0,45.0
115,21.011528068750003,22.248659102083337,59.0,45.0
116,22.335056068750003,22.54461466875,78.0,69.0
117,22.555644068750002,22.728438002083337,79.0,48.0
118,22.77623206875,23.096084668750002,76.0,70.0
119,23.217408068750004,23.87181913541667,60.0,57.0
120,22.77623206875,23.961892568750002,48.0,67.0
121,22.996820068750004,23.987627835416667,55.0,45.0
122,23.437996068750003,24.01152486875,62.0,58.0
123,24.540936068750003,25.182479502083336,59.0,55.0
124,24.540936068750003,25.20637653541667,47.0,53.0
125,24.540936068750003,25.215567702083334,66.0,62.0
126,24.540936068750003,25.248655902083335,71.0,58.0
127,24.540936068750003,25.279905868750003,62.0,54.0
128,26.30564006875,26.87181593541667,67.0,69.0
129,26.30564006875,26.906742368750002,60.0,59.0
130,26.30564006875,26.906742368750002,64.0,54.0
131,26.30564006875,27.101595102083337,45.0,66.0
132,28.070344068750003,28.364461402083336,64.0,63.0
133,28.070344068750003,28.37181433541667,60.0,58.0
134,28.070344068750003,28.50968183541667,67.0,63.0
135,28.73210806875,28.849755002083334,66.0,62.0
136,28.73210806875,28.86262263541667,69.0,62.0
137,28.73210806875,28.879166735416668,62.0,56.0
138,28.070344068750003,29.32585743541667,50.0,51.0
139,28.070344068750003,29.366298568750004,57.0,60.0
140,29.393872068750003,29.67879823541667,72.0,52.0
141,29.835048068750005,30.096077202083336,62.0,61.0
142,29.835048068750005,30.138356568750005,71.0,70.0
143,30.276224068750004,30.579532568750004,62.0,47.0
144,29.835048068750005,30.99129683541667,55.0,56.0
145,30.055636068750005,31.00784093541667,59.0,45.0
146,30.496812068750003,31.048282068750005,69.0,60.0
147,31.599752068750004,32.01335456875,62.0,54.0
148,31.599752068750004,32.07033980208334,66.0,64.0
149,31.599752068750004,32.15857500208334,74.0,61.0
150,32.26151606875,32.64386860208334,62.0,46.0
151,31.599752068750004,32.71004500208333,59.0,54.0
152,31.599752068750004,32.743133202083335,54.0,54.0
153,32.702692068750004,32.84975073541667,69.0,62.0
154,33.36445606875,33.67695573541667,62.0,54.0
155,33.36445606875,33.68063220208334,67.0,60.0
156,33.80563206875,34.11445526875001,62.0,46.0
157,33.58504406875001,34.50967543541667,59.0,53.0
158,34.02622006875001,34.53357246875,67.0,66.0
159,34.467396068750006,34.693498768750004,62.0,46.0
160,34.467396068750006,34.70085170208334,69.0,63.0
161,33.36445606875,34.77989573541667,52.0,70.0
162,34.687984068750005,34.822175102083335,59.0,56.0
163,35.129160068750004,35.428792102083335,62.0,60.0
164,35.129160068750004,35.432468568750004,66.0,69.0
165,35.129160068750004,35.44349796875,69.0,63.0
166,35.57033606875,35.87732103541667,62.0,47.0
167,35.34974806875,35.93614450208334,59.0,57.0
168,35.79092406875,36.27070296875,66.0,49.0
169,36.23210006875,36.43798220208333,67.0,73.0
170,36.45268806875001,36.52437916875,59.0,57.0
171,35.129160068750004,36.52989386875001,50.0,75.0
172,36.893864068750005,36.96923163541667,62.0,66.0
173,36.893864068750005,37.16592260208334,60.0,47.0
174,36.893864068750005,37.23026076875,64.0,61.0
175,37.55562806875,37.73393670208334,62.0,80.0
176,37.335040068750004,37.98761290208334,60.0,69.0
177,37.77621606875,38.026215802083335,64.0,62.0
178,37.99680406875,38.03540696875,62.0,50.0
179,36.893864068750005,38.09055396875,48.0,76.0
180,37.114452068750005,38.105259835416675,55.0,55.0
181,37.99680406875,38.107098068750005,67.0,80.0
182,38.65856806875,38.91959720208334,62.0,72.0
183,38.65856806875,38.967391268750006,66.0,66.0
184,38.65856806875,38.974744202083336,47.0,72.0
185,38.65856806875,38.98761183541667,57.0,72.0
186,39.540920068750005,39.78908156875001,52.0,72.0
187,39.540920068750005,39.82216976875,40.0,69.0
188,39.540920068750005,39.91591966875001,62.0,75.0
189,39.540920068750005,39.98209606875,55.0,73.0
190,39.540920068750005,40.00415486875001,59.0,70.0
191,40.42327206875,40.71738940208334,60.0,75.0
192,40.42327206875,40.71922763541667,55.0,69.0
193,40.42327206875,40.72841880208334,64.0,76.0
194,40.86444806875001,41.02988906875,55.0,50.0
195,40.64386006875,41.581359068750004,52.0,50.0
196,40.42327206875,41.619961968750005,45.0,69.0
197,42.187976068750004,42.491284568750004,38.0,58.0
198,42.187976068750004,42.50599043541667,50.0,47.0
199,42.187976068750004,42.50782866875001,54.0,59.0
200,42.187976068750004,42.50782866875001,57.0,60.0
201,43.07032806875,43.53356286875,59.0,63.0
202,43.07032806875,43.55562166875001,51.0,57.0
203,43.07032806875,43.56297460208334,39.0,66.0
204,43.07032806875,43.59790103541667,54.0,62.0
205,43.952680068750006,44.31848850208334,79.0,76.0
206,43.952680068750006,44.32032673541667,74.0,72.0
207,43.952680068750006,44.32584143541667,71.0,72.0
208,44.614444068750004,44.75414980208333,71.0,50.0
209,44.83503206875,44.956355468750004,71.0,63.0
210,44.83503206875,45.07216416875001,79.0,72.0
211,45.05562006875,45.11260530208334,71.0,62.0
212,44.393856068750004,45.12914940208334,64.0,49.0
213,43.952680068750006,45.23025223541667,52.0,70.0
214,44.173268068750005,45.24495810208334,59.0,37.0
215,45.27620806875001,45.39569323541667,78.0,77.0
216,45.49679606875,45.691648802083336,76.0,63.0
217,45.71738406875001,45.958192635416665,69.0,55.0
218,45.71738406875001,46.077677802083336,74.0,62.0
219,46.158560068750006,46.603412535416666,62.0,43.0
220,46.379148068750006,46.67878010208334,71.0,78.0
221,46.379148068750006,46.72105946875,66.0,73.0
222,45.71738406875001,46.908559268750004,50.0,67.0
223,46.820324068750004,46.939809235416675,57.0,61.0
224,47.04091206875,47.27069123541667,66.0,88.0
225,47.48208806875,47.96370520208333,62.0,72.0
226,47.48208806875,47.987602235416674,64.0,85.0
227,47.26150006875,48.07399920208334,67.0,60.0
228,47.70267606875001,48.19716083541667,55.0,43.0
229,47.48208806875,48.219219635416664,48.0,70.0
230,48.14385206875001,48.281719568750006,60.0,36.0
231,48.36444006875,48.737601435416664,62.0,69.0
232,48.36444006875,48.84238073541667,50.0,66.0
233,48.36444006875,48.864439535416665,66.0,76.0
234,48.80561606875,49.17877743541668,67.0,44.0
235,49.24679206875001,49.44715950208334,62.0,64.0
236,49.24679206875001,49.48392416875001,69.0,69.0
237,49.68796806875001,49.98208540208334,55.0,57.0
238,49.46738006875,50.03539416875,50.0,59.0
239,49.90855606875,50.03907063541668,62.0,72.0
240,49.24679206875001,50.04274710208334,43.0,72.0
241,49.90855606875,50.05745296875,59.0,76.0
242,49.90855606875,50.06848236875001,67.0,75.0
243,50.34973206875,50.42509963541667,54.0,70.0
244,50.34973206875,50.46186430208334,57.0,88.0
245,50.34973206875,50.47105546875001,42.0,82.0
246,50.34973206875,50.507820135416665,66.0,78.0
247,50.57032006875001,50.80193746875,66.0,54.0
248,50.79090806875,50.884657968750005,62.0,39.0
249,51.011496068750006,51.189804702083336,59.0,73.0
250,51.011496068750006,51.329510435416665,62.0,75.0
251,51.011496068750006,51.34789276875,67.0,73.0
252,51.011496068750006,51.414069168750004,52.0,72.0
253,51.011496068750006,51.540907268750004,40.0,75.0
254,51.452672068750005,51.54642196875001,59.0,27.0
255,51.67326006875001,51.78906876875,62.0,62.0
256,51.67326006875001,51.82767166875,59.0,69.0
257,51.67326006875001,51.96370093541667,67.0,72.0
258,51.67326006875001,52.182450702083344,52.0,63.0
259,51.67326006875001,52.21370066875001,40.0,64.0
260,52.11443606875001,52.276200602083335,59.0,55.0
261,52.33502406875,52.42877396875001,52.0,53.0
262,52.33502406875,52.47105333541667,62.0,60.0
263,52.33502406875,52.489435668750005,40.0,72.0
264,52.55561206875001,52.68980310208333,67.0,73.0
265,52.77620006875,53.03171450208333,57.0,80.0
266,52.77620006875,53.09053796875,62.0,66.0
267,52.77620006875,53.108920302083334,66.0,66.0
268,52.77620006875,53.29458186875,50.0,75.0
269,53.21737606875,53.29642010208333,57.0,34.0
270,52.77620006875,53.30009656875001,38.0,66.0
271,53.437964068750006,53.69347850208334,50.0,58.0
272,53.437964068750006,53.741272568750006,38.0,67.0
273,53.437964068750006,53.864434202083345,66.0,66.0
274,53.437964068750006,53.90671356875001,62.0,67.0
275,53.437964068750006,53.92877236875,57.0,67.0
276,53.879140068750004,53.99862523541667,50.0,60.0
277,53.879140068750004,54.02987520208333,38.0,59.0
278,54.09972806875001,54.18796326875001,62.0,78.0
279,54.09972806875001,54.217375002083344,57.0,69.0
280,54.09972806875001,54.22840440208334,66.0,85.0
281,54.54090406875001,54.81296260208333,67.0,62.0
282,54.54090406875001,54.914065435416674,64.0,76.0
283,54.54090406875001,54.930609535416664,60.0,76.0
284,54.54090406875001,54.98208006875001,36.0,76.0
285,54.54090406875001,54.98575653541667,48.0,62.0
286,54.98208006875001,55.12362403541667,55.0,43.0
287,55.20266806875,55.49862363541668,55.0,76.0
288,55.20266806875,55.596050002083345,64.0,63.0
289,55.20266806875,55.66957933541667,60.0,78.0
290,55.20266806875,55.72104986875,48.0,62.0
291,55.64384406875,55.80560860208334,55.0,67.0
292,55.864432068750006,55.97104960208334,48.0,67.0
293,56.08502006875,56.15119646875,57.0,36.0
294,56.305608068750004,56.46185790208334,57.0,69.0
295,56.305608068750004,56.472887302083336,62.0,75.0
296,56.305608068750004,56.520681368750004,66.0,78.0
297,56.305608068750004,56.59237246875,50.0,66.0
298,56.74678406875,57.039063168750005,50.0,44.0
299,56.96737206875001,57.08318076875001,62.0,91.0
300,56.96737206875001,57.112592502083345,69.0,85.0
301,57.40854806875001,57.505974435416675,66.0,80.0
302,57.40854806875001,57.51700383541667,62.0,72.0
303,57.40854806875001,57.54273910208333,74.0,78.0
304,56.305608068750004,57.62545960208334,38.0,78.0
305,57.62913606875,57.71185656875001,50.0,80.0
306,57.84972406875001,57.96737100208334,62.0,62.0
307,58.07031206875,58.19163546875001,62.0,64.0
308,58.07031206875,58.305605935416665,71.0,75.0
309,58.07031206875,58.31479710208333,67.0,69.0
310,58.07031206875,58.608914435416665,55.0,82.0
311,58.51148806875001,58.63464970208334,67.0,62.0
312,58.732076068750004,58.897517068750005,69.0,58.0
313,58.732076068750004,59.00964930208333,62.0,73.0
314,58.95266406875001,59.03170810208334,67.0,48.0
315,58.732076068750004,59.160384435416674,55.0,66.0
316,59.17325206875,59.375457735416674,62.0,82.0
317,58.07031206875,59.47656056875,43.0,82.0
318,59.39384006875001,59.49861936875,55.0,93.0
319,59.39384006875001,59.53354580208334,67.0,72.0
320,59.61442806875,59.72839853541667,62.0,72.0
321,59.83501606875001,59.99310413541667,42.0,82.0
322,59.83501606875001,60.05192760208334,54.0,85.0
323,59.83501606875001,60.09236873541667,62.0,70.0
324,59.83501606875001,60.11626576875001,66.0,80.0
325,59.83501606875001,60.13097163541667,69.0,64.0
326,59.83501606875001,60.31663320208334,74.0,62.0
327,60.27619206875001,60.39935370208333,62.0,49.0
328,60.49678006875,60.96001486875001,66.0,76.0
329,60.49678006875,60.97288250208334,62.0,85.0
330,60.49678006875,60.97288250208334,69.0,82.0
331,60.93795606875001,61.03170596875,54.0,80.0
332,61.158544068750004,61.35707326875,62.0,91.0
333,61.37913206875001,61.54273483541667,74.0,73.0
334,61.59972006875,61.853396268750004,62.0,85.0
335,61.59972006875,61.93795500208334,74.0,47.0
336,61.59972006875,61.97471966875001,67.0,72.0
337,61.59972006875,62.01332256875,59.0,80.0
338,62.04089606875,62.143837135416675,62.0,48.0
339,62.26148406875001,62.40670450208334,69.0,73.0
340,62.26148406875001,62.43795446875001,62.0,80.0
341,62.26148406875001,62.713689468750005,59.0,64.0
342,62.702660068750006,62.85523343541668,62.0,60.0
343,62.702660068750006,62.967365668750006,66.0,81.0
344,62.92324806875,63.02802736875,59.0,62.0
345,61.59972006875,63.06111556875001,52.0,73.0
346,63.143836068750005,63.309277068750006,67.0,54.0
347,63.36442406875001,63.67324726875,62.0,80.0
348,63.36442406875001,63.67324726875,66.0,73.0
349,63.36442406875001,63.698982535416675,69.0,70.0
350,64.02618806875,64.30376130208334,62.0,44.0
351,63.80560006875001,64.69714323541668,59.0,49.0
352,63.36442406875001,64.72104026875,50.0,78.0
353,64.46736406875,64.73942260208334,66.0,83.0
354,64.68795206875001,64.87177540208334,67.0,76.0
355,64.90854006875,65.02618700208333,62.0,70.0
356,65.12912806875,65.29640730208334,62.0,64.0
357,65.34971606875,65.58317170208333,67.0,54.0
358,65.12912806875,65.59787756875001,64.0,50.0
359,65.57030406875,65.99861243541667,60.0,66.0
360,65.79089206875001,66.17508283541667,62.0,88.0
361,65.79089206875001,66.24125923541668,67.0,78.0
362,65.79089206875001,66.25780333541667,64.0,78.0
363,66.23206806875001,66.34787676875001,60.0,72.0
364,65.12912806875,66.37728850208335,48.0,73.0
365,65.34971606875,66.38280320208334,55.0,58.0
366,66.45265606875,66.73758223541667,66.0,60.0
367,66.67324406875001,66.83133213541667,67.0,67.0
368,66.89383206875,67.19530233541667,59.0,70.0
369,66.89383206875,67.23206700208334,69.0,76.0
370,66.89383206875,67.25044933541668,66.0,73.0
371,66.89383206875,67.26331696875,47.0,70.0
372,66.89383206875,67.26331696875,62.0,73.0
373,67.77618406875001,68.08133080208334,40.0,73.0
374,67.77618406875001,68.08500726875,71.0,73.0
375,67.77618406875001,68.08684550208334,67.0,64.0
376,67.77618406875001,68.10338960208334,64.0,67.0
377,67.77618406875001,68.15302190208334,52.0,72.0
378,68.65853606875001,69.21735900208334,60.0,73.0
379,68.65853606875001,69.30191773541667,64.0,69.0
380,68.65853606875001,69.32030006875,69.0,64.0
381,69.32030006875,69.84052010208335,57.0,56.0
382,69.09971206875001,69.93610823541667,52.0,47.0
383,68.65853606875001,69.94713763541667,45.0,70.0
384,69.76147606875,70.00963756875001,60.0,76.0
385,69.76147606875,70.06478456875,64.0,75.0
386,69.76147606875,70.06846103541668,69.0,76.0
387,70.42324006875,70.65118100208333,66.0,76.0
388,70.42324006875,70.68978390208333,62.0,69.0
389,70.42324006875,70.70081330208333,69.0,72.0
390,70.42324006875,70.70632800208334,50.0,62.0
391,70.86441606875,71.11441580208334,50.0,45.0
392,71.08500406875001,71.25412153541667,55.0,93.0
393,71.08500406875001,71.25412153541667,60.0,69.0
394,71.08500406875001,71.28537150208334,64.0,73.0
395,71.30559206875,71.55743003541667,50.0,47.0
396,70.42324006875,71.58500353541667,38.0,69.0
397,71.52618006875001,71.60706233541667,60.0,80.0
398,71.52618006875001,71.64382700208334,67.0,80.0
399,71.74676806875,71.85522383541667,42.0,88.0
400,72.18794406875,72.40853206875,62.0,69.0
401,72.18794406875,72.42139970208333,71.0,75.0
402,72.18794406875,72.45264966875001,67.0,70.0
403,72.18794406875,72.59235540208334,55.0,78.0
404,72.62912006875001,72.73941406875001,62.0,39.0
405,72.62912006875001,72.76882580208334,55.0,37.0
406,72.18794406875,73.16588420208333,43.0,72.0
407,72.84970806875,73.27985466875,69.0,76.0
408,72.84970806875,73.32029580208334,62.0,75.0
409,73.29088406875,73.41588393541667,55.0,91.0
410,73.29088406875,73.41772216875,43.0,67.0
411,73.51147206875001,73.66404543541667,67.0,66.0
412,73.51147206875001,73.75044240208334,62.0,48.0
413,73.73206006875,73.77985413541667,69.0,48.0
414,73.95264806875001,74.07029500208334,42.0,78.0
415,73.95264806875001,74.09603026875001,54.0,93.0
416,73.95264806875001,74.31845650208334,62.0,66.0
417,73.95264806875001,74.38830936875,69.0,61.0
418,73.73206006875,74.52801510208334,74.0,64.0
419,73.95264806875001,74.53536803541667,66.0,70.0
420,74.61441206875,74.95080876875001,62.0,80.0
421,74.61441206875,74.95816170208334,66.0,75.0
422,75.05558806875001,75.13647033541667,62.0,34.0
423,74.61441206875,75.21367613541668,69.0,73.0
424,75.27617606875,75.36073480208334,54.0,57.0
425,75.27617606875,75.37727890208333,42.0,93.0
426,75.27617606875,75.46367586875,62.0,70.0
427,75.27617606875,75.47286703541667,66.0,69.0
428,75.27617606875,75.54088166875,69.0,58.0
429,75.49676406875001,75.55374930208335,53.0,61.0
430,75.49676406875001,75.58867573541667,41.0,75.0
431,75.71735206875,75.90485186875,64.0,66.0
432,75.71735206875,75.94529300208335,62.0,62.0
433,75.71735206875,76.06845463541667,52.0,93.0
434,75.71735206875,76.10889576875,67.0,80.0
435,76.15852806875,76.24492503541667,62.0,44.0
436,76.15852806875,76.36441020208333,52.0,62.0
437,76.37911606875001,76.43610130208334,67.0,55.0
438,76.37911606875001,76.67323340208334,62.0,82.0
439,76.37911606875001,76.70632160208334,74.0,88.0
440,75.71735206875,77.06110063541668,40.0,93.0
441,76.82029206875,77.09235060208334,62.0,85.0
442,76.82029206875,77.09235060208334,69.0,70.0
443,77.04088006875001,77.15485053541667,52.0,85.0
444,77.48205606875001,77.92507030208334,66.0,75.0
445,77.48205606875001,77.94529086875,69.0,72.0
446,77.48205606875001,78.05007016875001,62.0,69.0
447,78.14382006875,78.42139330208335,62.0,75.0
448,78.14382006875,78.50043733541668,66.0,75.0
449,77.92323206875001,78.58499606875,50.0,51.0
450,78.58499606875,78.81477523541668,64.0,73.0
451,77.48205606875001,78.81845170208334,38.0,64.0
452,78.58499606875,78.83867226875,67.0,72.0
453,78.80558406875001,78.87911340208333,50.0,54.0
454,79.24676006875,79.37911286875001,36.0,70.0
455,79.24676006875,79.41771576875,48.0,81.0
456,79.24676006875,79.52249506875,60.0,80.0
457,79.24676006875,79.53720093541668,67.0,82.0
458,79.24676006875,79.53903916875001,64.0,78.0
459,79.90852406875001,80.23940606875001,60.0,82.0
460,79.90852406875001,80.27984720208335,67.0,80.0
461,79.90852406875001,80.28720013541668,64.0,78.0
462,79.68793606875,80.37543533541668,48.0,50.0
463,80.34970006875001,80.52617046875001,64.0,47.0
464,80.34970006875001,80.53719986875001,67.0,58.0
465,80.34970006875001,80.54087633541668,60.0,85.0
466,80.57028806875002,80.67506736875,48.0,78.0
467,81.01146406875002,81.25594910208335,59.0,78.0
468,81.01146406875002,81.33683136875001,47.0,75.0
469,81.01146406875002,81.34602253541668,69.0,69.0
470,81.01146406875002,81.36256663541668,66.0,75.0
471,81.01146406875002,81.37359603541668,62.0,78.0
472,81.89381606875001,82.28903623541667,40.0,70.0
473,81.89381606875001,82.32763913541667,74.0,70.0
474,81.89381606875001,82.33131560208335,62.0,60.0
475,81.89381606875001,82.35521263541668,52.0,69.0
476,81.89381606875001,82.36256556875001,67.0,67.0
477,82.77616806875001,83.03903543541668,67.0,73.0
478,82.77616806875001,83.06109423541668,72.0,72.0
479,82.77616806875001,83.06844716875001,64.0,73.0
480,83.43793206875002,83.96734326875001,57.0,47.0
481,83.87910806875001,83.98204913541667,64.0,69.0
482,82.77616806875001,84.02432850208335,45.0,75.0
483,83.87910806875001,84.02432850208335,60.0,76.0
484,83.21734406875001,84.07763726875001,52.0,51.0
485,83.87910806875001,84.30741643541668,67.0,75.0
486,84.54087206875,84.95447456875002,60.0,67.0
487,84.54087206875,85.19895960208335,69.0,73.0
488,84.54087206875,85.22101840208335,64.0,72.0
489,85.42322406875002,85.68976790208335,69.0,57.0
490,85.42322406875002,85.72101786875001,66.0,67.0
491,85.42322406875002,85.72285610208334,62.0,56.0
492,84.54087206875,85.73756196875001,38.0,75.0
493,84.54087206875,85.79638543541668,50.0,62.0
494,86.30557606875001,86.68792860208335,67.0,60.0
495,86.30557606875001,86.68792860208335,74.0,57.0
496,86.30557606875001,86.69895800208334,62.0,63.0
497,86.96734006875,87.20814863541668,62.0,54.0
498,86.96734006875,87.31660440208334,71.0,61.0
499,87.40851606875002,87.70447163541668,67.0,69.0
500,87.84969206875002,88.01145660208334,62.0,34.0
501,88.07028006875001,88.34785330208335,62.0,48.0
502,86.30557606875001,88.40851500208335,43.0,69.0
503,86.74675206875001,88.41954440208335,55.0,36.0
504,88.07028006875001,88.51880900208334,67.0,53.0
505,88.07028006875001,88.55005896875001,71.0,55.0
506,97.11438806875002,97.21549090208335,67.0,32.0
507,97.11438806875002,97.24674086875001,64.0,34.0
508,97.33497606875001,97.43424066875001,67.0,43.0
509,97.33497606875001,97.46549063541667,64.0,43.0
510,97.33497606875001,97.46549063541667,71.0,39.0
511,97.55556406875002,97.69159333541668,67.0,48.0
512,97.55556406875002,97.69343156875001,64.0,44.0
513,97.55556406875002,97.70629920208334,71.0,38.0
514,96.89380006875001,98.14563696875001,52.0,48.0
515,97.77615206875001,98.28718093541667,67.0,62.0
516,97.77615206875001,98.29269563541668,64.0,59.0
517,98.21732806875,98.35519556875,52.0,34.0
518,96.89380006875001,98.36622496875002,40.0,48.0
519,97.77615206875001,98.71181283541668,71.0,52.0
520,98.87909206875001,99.02982720208334,66.0,49.0
521,98.87909206875001,99.06659186875001,62.0,41.0
522,99.09968006875002,99.23019463541668,66.0,47.0
523,99.09968006875002,99.25960636875001,62.0,35.0
524,99.32026806875001,99.43607676875001,62.0,39.0
525,99.32026806875001,99.44526793541668,66.0,60.0
526,98.87909206875001,99.51695903541668,71.0,34.0
527,98.65850406875,99.68056180208335,50.0,55.0
528,99.54085606875002,100.02982613541668,66.0,72.0
529,99.54085606875002,100.04453200208334,62.0,60.0
530,99.54085606875002,100.06842903541668,71.0,57.0
531,99.98203206875002,100.09784076875002,50.0,53.0
532,98.65850406875,100.11254663541668,38.0,49.0
533,100.64379606875,100.74673713541668,64.0,45.0
534,100.64379606875,100.76695770208335,60.0,43.0
535,100.64379606875,100.76879593541668,67.0,46.0
536,100.86438406875001,100.96364866875001,64.0,51.0
537,100.86438406875001,100.97467806875001,67.0,46.0
538,100.86438406875001,100.99489863541667,60.0,45.0
539,101.08497206875,101.19710430208335,67.0,53.0
540,101.08497206875,101.20813370208334,64.0,59.0
541,101.08497206875,101.21732486875001,60.0,44.0
542,100.42320806875001,101.46180990208335,48.0,57.0
543,101.30556006875001,101.75225076875002,60.0,66.0
544,101.30556006875001,101.75225076875002,67.0,70.0
545,101.30556006875001,101.76144193541668,64.0,73.0
546,100.42320806875001,101.77430956875001,36.0,58.0
547,101.74673606875001,101.90482413541667,38.0,52.0
548,101.74673606875001,101.90482413541667,48.0,58.0
549,102.18791206875001,103.13460223541668,62.0,59.0
550,102.18791206875001,103.32761673541668,67.0,63.0
551,102.18791206875001,103.35886670208335,71.0,55.0
552,102.18791206875001,103.38276373541667,43.0,55.0
553,103.51144006875,103.62173406875002,62.0,40.0
554,103.51144006875,103.62724876875001,50.0,32.0
555,103.51144006875,103.66585166875001,57.0,46.0
556,103.51144006875,103.82761620208335,66.0,57.0
557,103.95261606875002,104.31658626875002,67.0,57.0
558,103.95261606875002,104.32210096875001,59.0,61.0
559,103.95261606875002,104.32393920208335,62.0,61.0
560,104.39379206875002,104.87908566875001,55.0,27.0
561,104.61438006875001,105.02430610208334,59.0,46.0
562,104.83496806875002,105.16401183541667,67.0,70.0
563,104.83496806875002,105.18055593541668,62.0,76.0
564,105.05555606875001,105.19893826875001,55.0,49.0
565,103.95261606875002,105.22835000208335,43.0,56.0
566,105.27614406875001,105.44158506875002,59.0,49.0
567,105.49673206875,105.74305533541668,67.0,59.0
568,105.71732006875001,106.09231966875001,54.0,49.0
569,105.71732006875001,106.20261366875002,66.0,66.0
570,105.71732006875001,106.34599586875001,57.0,54.0
571,105.71732006875001,106.37724583541667,62.0,54.0
572,106.37908406875002,106.64562790208335,54.0,34.0
573,106.59967206875001,106.91400996875001,57.0,59.0
574,106.82026006875002,106.91952466875001,67.0,63.0
575,106.59967206875001,106.94158346875001,66.0,63.0
576,105.71732006875001,107.01511280208335,42.0,58.0
577,107.04084806875001,107.15481853541668,69.0,66.0
578,107.48202406875001,107.86253836875001,52.0,44.0
579,107.48202406875001,108.06106756875002,62.0,52.0
580,107.48202406875001,108.08128813541668,59.0,50.0
581,107.48202406875001,108.09231753541668,67.0,64.0
582,108.14378806875001,108.46180243541667,52.0,24.0
583,108.36437606875002,108.65297870208335,67.0,72.0
584,108.36437606875002,108.69709630208335,62.0,70.0
585,108.36437606875002,108.70077276875001,59.0,64.0
586,108.58496406875001,108.72283156875001,52.0,53.0
587,107.48202406875001,108.73202273541668,40.0,46.0
588,108.80555206875002,109.01511066875001,66.0,55.0
589,109.02614006875001,109.41952200208334,67.0,60.0
590,109.24672806875002,109.57944830208335,50.0,45.0
591,109.24672806875002,109.78349220208335,66.0,62.0
592,109.24672806875002,109.78716866875001,57.0,53.0
593,109.24672806875002,109.79635983541668,62.0,55.0
594,110.12908006875001,110.37356510208335,66.0,52.0
595,110.12908006875001,110.44709443541667,57.0,52.0
596,109.90849206875001,110.48753556875002,50.0,39.0
597,110.34966806875,110.48753556875002,67.0,62.0
598,109.24672806875002,110.61253543541667,38.0,46.0
599,110.57025606875001,110.65849126875001,66.0,57.0
600,110.79084406875002,110.90113806875002,57.0,52.0
601,111.01143206875001,111.43238750208334,48.0,44.0
602,111.01143206875001,111.52981386875001,64.0,54.0
603,111.01143206875001,111.60518143541668,60.0,64.0
604,111.01143206875001,111.62907846875001,55.0,67.0
605,111.67319606875002,111.92871050208335,48.0,40.0
606,111.89378406875001,112.11988676875,55.0,69.0
607,111.89378406875001,112.13826910208334,60.0,69.0
608,111.89378406875001,112.14378380208335,64.0,73.0
609,111.01143206875001,112.18973963541669,36.0,57.0
610,112.11437206875001,112.32393066875001,48.0,50.0
611,112.33496006875001,112.50407753541668,55.0,52.0
612,112.55554806875001,112.63643033541668,62.0,44.0
613,112.77613606875,113.14929743541668,47.0,66.0
614,112.77613606875,113.16951800208335,62.0,70.0
615,112.77613606875,113.19157680208335,57.0,66.0
616,112.77613606875,113.19157680208335,66.0,78.0
617,113.65848806875002,113.94341423541668,59.0,55.0
618,113.65848806875002,113.95628186875001,62.0,57.0
619,113.65848806875002,113.96179656875002,52.0,48.0
620,113.65848806875002,113.97466420208335,55.0,48.0
621,113.65848806875002,114.02062003541668,67.0,43.0
622,113.65848806875002,114.08311996875001,40.0,49.0
623,114.09966406875002,114.27797270208335,60.0,59.0
624,114.32025206875001,114.47282543541668,62.0,58.0
625,114.54084006875001,114.95995726875002,64.0,69.0
626,114.54084006875001,114.96547196875001,60.0,62.0
627,114.54084006875001,114.98201606875001,55.0,62.0
628,114.98201606875001,115.43973616875002,52.0,41.0
629,115.20260406875002,115.52429490208334,55.0,46.0
630,115.42319206875001,115.71547116875001,60.0,76.0
631,115.42319206875001,115.71547116875001,64.0,72.0
632,115.64378006875002,115.77245640208335,52.0,62.0
633,114.54084006875001,115.81289753541668,45.0,72.0
634,115.86436806875001,116.05922080208335,55.0,58.0
635,116.08495606875002,116.18054420208334,62.0,44.0
636,116.08495606875002,116.24120590208335,60.0,63.0
637,116.30554406875001,116.58679376875001,60.0,61.0
638,116.30554406875001,116.61436726875002,57.0,58.0
639,116.30554406875001,116.69341130208335,66.0,69.0
640,116.30554406875001,116.77797003541669,50.0,44.0
641,116.30554406875001,116.88091110208335,38.0,61.0
642,117.18789606875,117.26326363541668,57.0,46.0
643,117.18789606875,117.26877833541668,55.0,47.0
644,117.18789606875,117.30921946875002,38.0,50.0
645,117.18789606875,117.34414590208334,50.0,46.0
646,117.18789606875,117.34414590208334,66.0,60.0
647,117.40848406875001,117.48936633541668,67.0,60.0
648,117.40848406875001,117.60885150208334,40.0,47.0
649,117.62907206875002,117.70995433541668,42.0,56.0
650,117.62907206875002,117.73017490208335,69.0,70.0
651,118.07024806875002,118.40296830208335,62.0,42.0
652,118.07024806875002,118.41583593541668,67.0,54.0
653,118.51142406875002,118.57760046875,67.0,32.0
654,118.51142406875002,118.61252690208335,62.0,47.0
655,118.07024806875002,118.62539453541667,59.0,46.0
656,118.73201206875001,118.83495313541668,67.0,44.0
657,118.73201206875001,118.84965900208334,59.0,51.0
658,118.73201206875001,118.85333546875002,62.0,61.0
659,118.07024806875002,119.01510000208334,55.0,48.0
660,118.95260006875002,119.23201153541667,59.0,72.0
661,118.95260006875002,119.23201153541667,67.0,75.0
662,118.95260006875002,119.26142326875001,62.0,72.0
663,119.17318806875001,119.33311436875002,55.0,53.0
664,118.07024806875002,119.38274666875002,43.0,50.0
665,119.39377606875001,119.53899650208335,59.0,51.0
666,119.83495206875001,119.94892253541668,54.0,49.0
667,119.61436406875,120.05002536875001,67.0,49.0
668,119.83495206875001,120.06289300208334,66.0,47.0
669,119.83495206875001,120.08862826875001,62.0,44.0
670,119.83495206875001,120.12723116875001,57.0,44.0
671,120.27612806875001,120.37906913541669,66.0,42.0
672,120.27612806875001,120.39193676875001,57.0,45.0
673,120.49671606875002,120.60701006875001,62.0,50.0
674,120.49671606875002,120.61436300208335,66.0,42.0
675,120.49671606875002,120.61987770208334,57.0,43.0
676,120.05554006875002,120.73568640208335,54.0,46.0
677,120.71730406875001,120.97649496875002,66.0,73.0
678,120.71730406875001,121.00590670208335,57.0,66.0
679,120.71730406875001,121.01693610208335,62.0,69.0
680,120.93789206875002,121.14561243541668,54.0,59.0
681,119.83495206875001,121.21362706875001,42.0,56.0
682,121.15848006875001,121.24303880208335,57.0,46.0
683,121.15848006875001,121.48384736875002,66.0,67.0
684,121.59965606875001,121.95075863541668,67.0,66.0
685,121.59965606875001,122.03164090208335,59.0,57.0
686,121.59965606875001,122.07943496875001,62.0,69.0
687,122.04083206875,122.44524340208335,52.0,33.0
688,122.26142006875001,122.47281690208335,59.0,39.0
689,122.48200806875002,122.63825790208335,59.0,43.0
690,122.48200806875002,122.72649310208335,67.0,66.0
691,122.48200806875002,122.76693423541668,62.0,75.0
692,122.70259606875001,122.95259580208335,52.0,60.0
693,121.59965606875001,122.99303693541668,40.0,69.0
694,122.92318406875002,123.17502203541667,59.0,60.0
695,123.14377206875001,123.35333066875002,67.0,62.0
696,123.36436006875002,123.55369810208335,50.0,33.0
697,123.36436006875002,123.75038906875001,66.0,69.0
698,123.36436006875002,123.99671233541667,57.0,54.0
699,123.36436006875002,124.01877113541669,62.0,62.0
700,124.24671206875001,124.52796176875002,66.0,53.0
701,124.24671206875001,124.54266763541668,57.0,47.0
702,124.02612406875001,124.55737350208335,50.0,45.0
703,124.46730006875002,124.72465273541668,67.0,63.0
704,123.36436006875002,124.74671153541668,38.0,56.0
705,124.68788806875001,124.82024086875002,62.0,58.0
706,124.90847606875002,125.03899063541668,57.0,61.0
707,125.12906406875001,125.41582846875001,48.0,44.0
708,125.12906406875001,125.60884296875001,64.0,64.0
709,125.12906406875001,125.84965153541668,60.0,69.0
710,125.34965206875002,125.90847500208335,55.0,44.0
711,125.79082806875002,126.08310716875002,48.0,53.0
712,126.01141606875001,126.24119523541668,55.0,72.0
713,126.01141606875001,126.26325403541668,64.0,76.0
714,126.01141606875001,126.28163636875001,60.0,73.0
715,125.12906406875001,126.31656280208335,36.0,62.0
716,126.23200406875002,126.45259206875001,48.0,57.0
717,126.45259206875001,126.63825363541667,55.0,60.0
718,126.89376806875002,127.26876766875002,47.0,72.0
719,126.89376806875002,127.30920880208335,57.0,69.0
720,126.67318006875001,127.31288526875001,62.0,61.0
721,126.89376806875002,127.37170873541668,66.0,75.0
722,127.77428183541669,128.11986970208335,59.0,61.0
723,127.77428183541669,128.12170793541668,52.0,48.0
724,127.77428183541669,128.12722263541667,62.0,59.0
725,127.77428183541669,128.2154578354167,55.0,54.0
726,127.77428183541669,128.24119310208334,40.0,61.0
727,127.77428183541669,128.34413416875,67.0,44.0
728,128.65847206875,129.07207456875,64.0,40.0
729,128.65847206875,129.22097146875,52.0,45.0
730,128.65847206875,129.22280970208334,60.0,60.0
731,128.65847206875,129.23200086875002,55.0,46.0
732,128.65847206875,129.25405966875002,67.0,50.0
733,128.65847206875,129.27795670208334,45.0,49.0
734,129.98200006875,130.19155866875002,55.0,52.0
735,129.98200006875,130.27611740208334,64.0,48.0
736,130.20258806875,130.79449920208333,62.0,45.0
737,130.42317606875,130.89927850208335,66.0,75.0
738,130.42317606875,130.91214613541666,57.0,72.0
739,130.86435206875,131.05552833541668,50.0,35.0
740,130.42317606875,131.12354296875,38.0,66.0
741,131.30552806875,131.77427756875,62.0,73.0
742,131.30552806875,131.82207163541668,66.0,75.0
743,131.74670406875,131.87170393541666,51.0,56.0
744,131.30552806875,131.92501270208334,39.0,78.0
745,132.18788006875002,132.52243853541668,52.0,56.0
746,132.18788006875002,132.68420306875,55.0,49.0
747,132.18788006875002,132.69523246875002,59.0,57.0
748,132.18788006875002,132.77243826875,62.0,59.0
749,132.84964406875,133.18052606875,52.0,40.0
750,133.07023206875002,133.41581993541666,55.0,63.0
751,133.07023206875002,133.42317286875002,59.0,63.0
752,133.07023206875002,133.43236403541667,62.0,72.0
753,132.18788006875002,133.47096693541667,40.0,63.0
754,133.07023206875002,133.48751103541667,67.0,64.0
755,133.51140806875,133.62721676875,52.0,44.0
756,133.95258406875,134.27978960208333,62.0,63.0
757,133.95258406875,134.32206896875002,66.0,72.0
758,134.61434806875002,135.12721516875,59.0,49.0
759,134.83493606875,135.1419210354167,62.0,61.0
760,135.05552406875,135.20625920208334,66.0,56.0
761,133.95258406875,135.30736203541667,47.0,69.0
762,135.27611206875,135.47464126875002,69.0,73.0
763,135.49670006875002,135.59964113541668,62.0,42.0
764,135.71728806875,136.15662583541666,64.0,73.0
765,135.71728806875,136.20258166875,67.0,62.0
766,136.15846406875002,136.35331680208333,57.0,47.0
767,135.71728806875,136.41765496875,72.0,70.0
768,135.71728806875,136.45809610208335,45.0,67.0
769,136.59964006875,136.92500736875002,62.0,59.0
770,136.59964006875,137.01875726875,69.0,66.0
771,136.59964006875,137.02243373541668,66.0,61.0
772,136.59964006875,137.04449253541668,50.0,66.0
773,137.04081606875002,137.22647763541667,62.0,45.0
774,137.26140406875,137.39743333541668,67.0,60.0
775,137.48199206875,137.62905073541668,67.0,48.0
776,137.48199206875,137.87537400208333,71.0,69.0
777,137.48199206875,137.91397690208333,43.0,70.0
778,137.70258006875,137.91949160208335,50.0,49.0
779,137.48199206875,137.93787393541666,62.0,69.0
780,137.92316806875002,138.2136089354167,55.0,49.0
781,138.14375606875,138.42684400208333,62.0,58.0
782,138.14375606875,138.58493206875002,57.0,49.0
783,138.36434406875,138.67132903541668,74.0,82.0
784,138.58493206875002,138.75037306875,62.0,82.0
785,138.80552006875,138.92500523541668,54.0,69.0
786,138.80552006875,139.00404926875,69.0,72.0
787,139.02610806875,139.15478440208335,62.0,61.0
788,139.24669606875,139.52426930208335,71.0,73.0
789,139.24669606875,139.59044570208334,62.0,67.0
790,139.24669606875,139.62904860208334,67.0,69.0
791,139.90846006875,140.04081286875,62.0,52.0
792,139.68787206875,140.22463620208333,59.0,46.0
793,140.12904806875,140.34412136875,62.0,70.0
794,140.12904806875,140.37537133541667,71.0,72.0
795,140.12904806875,140.40294483541666,67.0,72.0
796,139.24669606875,140.56838583541668,52.0,70.0
797,140.34963606875002,140.56838583541668,59.0,64.0
798,140.57022406875,140.77426796875,62.0,50.0
799,140.79081206875,140.91029723541666,71.0,63.0
800,141.01140006875002,141.52242893541668,71.0,70.0
801,141.01140006875002,141.60514943541668,62.0,69.0
802,141.01140006875002,141.70257580208335,66.0,70.0
803,141.67132583541667,142.02059016875,59.0,47.0
804,141.89375206875002,142.31286926875,66.0,75.0
805,141.89375206875002,142.34779570208335,62.0,67.0
806,142.33492806875,142.40661916875,59.0,63.0
807,141.01140006875002,142.41948680208336,50.0,72.0
808,141.89375206875002,142.57206016875,71.0,78.0
809,142.55551606875,142.68419240208334,69.0,63.0
810,142.77610406875002,143.27242706875,72.0,76.0
811,142.77610406875002,143.29816233541666,64.0,72.0
812,142.77610406875002,143.42500043541668,67.0,45.0
813,143.21728006875,143.82205883541667,60.0,48.0
814,142.77610406875002,143.87352936875,48.0,76.0
815,143.65845606875,144.04999976875,72.0,78.0
816,143.65845606875,144.12904380208334,67.0,76.0
817,143.65845606875,144.14742613541668,64.0,75.0
818,144.09963206875,144.16580846875001,60.0,57.0
819,144.09963206875,144.20441136875,48.0,48.0
820,144.54080806875,144.85146950208335,50.0,54.0
821,144.54080806875,144.94889586875001,72.0,78.0
822,144.54080806875,144.95992526875,62.0,60.0
823,144.54080806875,145.04080753541666,66.0,73.0
824,145.20257206875,145.26139553541665,66.0,46.0
825,144.98198406875,145.54448346875,50.0,50.0
826,145.42316006875,145.77242440208335,62.0,78.0
827,145.42316006875,145.77793910208334,72.0,76.0
828,145.42316006875,145.85330666875,66.0,99.0
829,144.54080806875,145.92132130208333,38.0,62.0
830,145.86433606875,146.12904166875,62.0,82.0
831,146.08492406875,146.26323270208334,67.0,61.0
832,146.30551206875,146.43786486875,50.0,78.0
833,146.30551206875,146.66029110208333,62.0,80.0
834,146.30551206875,146.73198220208334,66.0,93.0
835,146.30551206875,146.75220276875,69.0,75.0
836,146.74668806875,147.53712840208334,50.0,52.0
837,147.18786406875,147.63823123541667,66.0,99.0
838,146.30551206875,147.66396650208333,38.0,78.0
839,147.18786406875,147.69337823541667,62.0,61.0
840,147.18786406875,147.73749583541667,72.0,85.0
841,147.62904006875002,147.74301053541666,42.0,70.0
842,147.84962806875,147.94153973541665,62.0,53.0
843,148.07021606875,148.26323056875,52.0,75.0
844,148.07021606875,148.40109806875,62.0,82.0
845,148.07021606875,148.43970096875,67.0,93.0
846,148.07021606875,148.46911270208332,40.0,73.0
847,148.07021606875,148.47278916875,71.0,95.0
848,148.51139206875,148.60330373541666,52.0,78.0
849,148.73198006875,148.78345060208335,62.0,33.0
850,148.95256806875,149.18418546875,54.0,82.0
851,148.95256806875,149.34411176875,66.0,103.0
852,148.95256806875,149.34778823541666,62.0,95.0
853,148.95256806875,149.39190583541668,69.0,80.0
854,148.95256806875,149.44889106875002,42.0,80.0
855,149.39374406875,149.46727340208332,54.0,101.0
856,149.39374406875,149.49484690208334,50.0,67.0
857,149.61433206875,149.69337610208333,62.0,46.0
858,149.83492006875,150.21175790208332,59.0,69.0
859,149.83492006875,150.21359613541668,62.0,73.0
860,149.83492006875,150.21911083541667,57.0,69.0
861,149.83492006875,150.22094906875,67.0,70.0
862,150.49668406875,150.69705150208333,57.0,57.0
863,150.27609606875,150.91947773541668,55.0,54.0
864,150.71727206875,151.04999230208333,62.0,61.0
865,150.93786006875,151.18234510208333,57.0,64.0
866,150.93786006875,151.20991860208335,67.0,78.0
867,149.83492006875,151.25587443541667,43.0,80.0
868,151.15844806875,151.27793323541667,55.0,72.0
869,150.05550806875002,151.29631556875,50.0,62.0
870,151.37903606875,151.51506533541666,57.0,47.0
871,151.59962406875,151.94705016875,57.0,85.0
872,151.59962406875,151.97830013541667,62.0,72.0
873,151.59962406875,151.98565306875,66.0,73.0
874,152.26138806875,152.43418200208333,57.0,64.0
875,152.04080006875,152.52241720208335,54.0,63.0
876,152.48197606875001,152.55366716875,62.0,72.0
877,152.48197606875001,152.57572596875,66.0,97.0
878,152.70256406875,152.91947560208334,54.0,75.0
879,151.82021206875,152.93050500208332,50.0,61.0
880,151.59962406875,153.05366663541668,42.0,78.0
881,152.92315206875,153.05734310208334,62.0,62.0
882,153.36432806875,153.54998963541667,40.0,75.0
883,153.58491606875,153.83675403541667,52.0,59.0
884,153.36432806875,154.13087136875,62.0,75.0
885,153.36432806875,154.16395956875,71.0,76.0
886,153.36432806875,154.24300360208335,67.0,80.0
887,153.14374006875,154.25587123541666,74.0,72.0
888,154.46726806875,154.61065026875,62.0,67.0
889,154.24668006875,154.69153253541666,59.0,80.0
890,153.80550406875,154.69888546875,54.0,91.0
891,154.02609206875,154.70991486875,55.0,67.0
892,154.68785606875,154.86616470208332,67.0,70.0
893,154.90844406875001,155.02792923541668,71.0,52.0
894,155.12903206875,155.41579646875,62.0,80.0
895,155.12903206875,155.43969350208334,66.0,88.0
896,155.12903206875,155.43969350208334,69.0,73.0
897,155.57020806875,155.74116376875,62.0,48.0
898,155.34962006875,155.95623706875,59.0,51.0
899,155.79079606875,156.08123693541665,62.0,46.0
900,155.79079606875,156.09594280208333,66.0,97.0
901,156.23197206875,156.40476600208333,62.0,64.0
902,156.23197206875,156.44704536875,66.0,88.0
903,155.12903206875,156.45256006875,47.0,78.0
904,156.45256006875,156.60145696875,59.0,48.0
905,156.89373606875,157.27792683541668,62.0,80.0
906,156.89373606875,157.32755913541666,67.0,73.0
907,156.67314806875,157.36800026875,64.0,61.0
908,157.55550006875,157.70072050208333,64.0,62.0
909,157.33491206875001,157.73013223541668,60.0,63.0
910,157.55550006875,157.90660263541668,62.0,75.0
911,157.55550006875,157.99116136875,67.0,78.0
912,157.77608806875,158.00954370208333,64.0,29.0
913,156.89373606875,158.19152880208333,48.0,75.0
914,157.99667606875,158.22461700208333,60.0,58.0
915,157.11432406875,158.25770520208334,55.0,66.0
916,158.21726406875,158.43785206875,62.0,54.0
917,158.65844006875,159.00035146875,62.0,80.0
918,158.43785206875,159.04630730208333,69.0,67.0
919,158.65844006875,159.05917493541668,66.0,97.0
920,158.87902806875,159.06836610208333,59.0,56.0
921,158.65844006875,159.13270426875,47.0,75.0
922,159.09961606875,159.18233656875,62.0,37.0
923,159.32020406875,159.44520393541666,62.0,47.0
924,159.54079206875,159.77057123541667,52.0,70.0
925,159.54079206875,159.94887986875,64.0,75.0
926,159.54079206875,159.97645336875001,55.0,82.0
927,159.54079206875,159.98196806875,59.0,70.0
928,159.54079206875,160.00035040208334,40.0,70.0
929,159.98196806875,160.09961500208334,52.0,75.0
930,160.42314406875,160.72277610208334,67.0,69.0
931,160.42314406875,160.72461433541667,64.0,76.0
932,160.42314406875,160.73932020208335,55.0,78.0
933,160.42314406875,160.75770253541666,60.0,80.0
934,160.86432006875,161.03895223541667,55.0,49.0
935,161.08490806875,161.34961366875,55.0,48.0
936,161.08490806875,161.46726060208334,60.0,75.0
937,160.64373206875,161.52240760208335,52.0,60.0
938,161.52608406875,161.73564266875,55.0,85.0
939,161.52608406875,161.75586323541665,64.0,80.0
940,161.52608406875,161.77608380208335,60.0,66.0
941,160.42314406875,161.80733376875,45.0,75.0
942,161.74667206875,161.82020140208334,52.0,66.0
943,162.18784806875001,162.44703896875,57.0,76.0
944,162.18784806875001,162.44887720208334,62.0,75.0
945,162.18784806875001,162.49667126875,66.0,85.0
946,162.40843606875,162.57939176875,50.0,54.0
947,162.18784806875001,162.68600930208333,38.0,82.0
948,162.84961206875,163.06652360208332,40.0,57.0
949,162.84961206875,163.21725873541666,67.0,76.0
950,162.84961206875,163.22093520208333,62.0,76.0
951,163.29078806875,163.52975840208333,66.0,78.0
952,163.29078806875,163.54078780208334,69.0,78.0
953,163.29078806875,163.54446426875,62.0,80.0
954,163.51137606875,163.69152293541666,54.0,91.0
955,163.29078806875,163.70806703541666,42.0,80.0
956,163.95255206875,164.28343406875,55.0,64.0
957,163.95255206875,164.33306636875,59.0,75.0
958,163.95255206875,164.43049273541666,62.0,80.0
959,163.95255206875,164.64372780208333,57.0,73.0
960,163.95255206875,164.65108073541666,67.0,75.0
961,164.39372806875,164.65475720208335,59.0,44.0
962,164.61431606875,164.90475693541666,55.0,64.0
963,164.83490406875,165.09777143541666,57.0,73.0
964,164.83490406875,165.10328613541668,59.0,76.0
965,164.83490406875,165.11615376875,67.0,72.0
966,164.83490406875,165.16027136875,62.0,75.0
967,165.05549206875,165.20255073541668,55.0,61.0
968,163.95255206875,165.22460953541668,43.0,69.0
969,165.27608006875,165.49850630208334,57.0,58.0
970,165.49666806875,165.86982943541668,67.0,66.0
971,165.71725606875,166.05365276875,54.0,85.0
972,165.71725606875,166.14004973541668,66.0,64.0
973,165.71725606875,166.28159370208334,57.0,76.0
974,165.71725606875,166.44152000208334,62.0,75.0
975,166.37902006875,166.74299026875,54.0,52.0
976,166.59960806875,166.94335770208335,57.0,80.0
977,166.82019606875,166.94519593541668,54.0,55.0
978,166.59960806875,166.99299000208333,66.0,99.0
979,165.71725606875,167.05181346875,42.0,76.0
980,167.04078406875,167.11798986875002,67.0,46.0
981,167.26137206875,167.37166606875002,69.0,72.0
982,167.48196006875,167.89556256875,52.0,80.0
983,167.48196006875,168.02607713541667,59.0,62.0
984,167.48196006875,168.05365063541666,67.0,82.0
985,167.48196006875,168.23379750208335,62.0,73.0
986,168.14372406875,168.45622373541667,52.0,55.0
987,168.36431206875,168.60879710208334,67.0,75.0
988,168.36431206875,168.63637060208333,59.0,73.0
989,168.36431206875,168.65107646875,62.0,60.0
990,168.58490006875002,168.77056163541667,52.0,58.0
991,167.48196006875,168.82754686875,40.0,72.0
992,168.80548806875,169.06467896875,66.0,82.0
993,169.02607606875,169.27423756875,67.0,72.0
994,169.24666406875,169.48011970208333,50.0,73.0
995,169.24666406875,169.59592840208333,57.0,78.0
996,169.24666406875,169.63085483541667,66.0,85.0
997,169.24666406875,169.70438416875,62.0,64.0
998,169.68784006875,170.00585443541667,50.0,51.0
999,169.90842806875,170.13636900208334,66.0,82.0
1000,169.90842806875,170.15475133541668,57.0,73.0
1001,170.34960406875,170.64923610208334,50.0,49.0
1002,170.57019206875,170.65658903541666,66.0,88.0
1003,169.24666406875,170.71173603541666,38.0,76.0
1004,170.79078006875,170.96725046875,67.0,66.0
1005,171.01136806875002,171.26688250208335,48.0,55.0
1006,171.01136806875002,171.43967643541666,64.0,88.0
1007,171.01136806875002,171.49114696875,60.0,67.0
1008,171.45254406875,171.98379350208333,48.0,56.0
1009,171.89372006875,172.18048446875,55.0,75.0
1010,171.89372006875,172.20805796875,64.0,82.0
1011,171.89372006875,172.21908736875,60.0,78.0
1012,171.01136806875002,172.24298440208332,36.0,78.0
1013,172.11430806875,172.30916080208334,48.0,62.0
1014,172.33489606875,172.49482236875,55.0,51.0
1015,172.55548406875,172.69702803541668,62.0,59.0
1016,172.77607206875,173.13085110208334,47.0,73.0
1017,172.77607206875,173.16210106875,66.0,76.0
1018,172.77607206875,173.18783633541668,57.0,64.0
1019,172.77607206875,173.20070396875,62.0,67.0
1020,173.65842406875,174.09408536875,40.0,73.0
1021,173.65842406875,174.17312940208333,59.0,70.0
1022,173.65842406875,174.20805583541667,52.0,69.0
1023,173.65842406875,174.23746756875,62.0,72.0
1024,173.65842406875,174.26504106875,55.0,67.0
1025,173.65842406875,174.38820270208333,67.0,69.0
1026,174.54077606875,174.92680506875,64.0,76.0
1027,174.54077606875,174.93415800208334,67.0,52.0
1028,174.54077606875,175.04077553541666,55.0,72.0
1029,174.54077606875,175.07018726875,60.0,76.0
1030,175.20254006875,175.50952503541666,55.0,56.0
1031,175.42312806875,175.54077500208334,60.0,73.0
1032,174.98195206875,175.69886306875,52.0,44.0
1033,175.64371606875,175.90106873541666,60.0,72.0
1034,175.64371606875,175.91209813541667,55.0,85.0
1035,174.54077606875,175.93048046875,45.0,73.0
1036,175.86430406875002,175.95437750208333,52.0,64.0
1037,175.64371606875,175.97459806875,64.0,80.0
1038,176.08489206875,176.22459780208334,55.0,48.0
1039,176.30548006875,176.65474440208334,50.0,66.0
1040,176.30548006875,176.83305303541667,55.0,73.0
1041,176.30548006875,176.85511183541666,64.0,80.0
1042,176.30548006875,176.86430300208335,60.0,78.0
1043,176.96724406875,177.37900833541667,50.0,45.0
1044,177.18783206875,177.60327280208332,60.0,69.0
1045,177.18783206875,177.62533160208335,64.0,72.0
1046,177.18783206875,177.62716983541668,55.0,75.0
1047,176.30548006875,177.63819923541666,38.0,67.0
1048,177.62900806875,177.72643443541668,50.0,59.0
1049,178.07018406875,178.47091893541668,60.0,85.0
1050,178.07018406875,178.54996296875,67.0,73.0
1051,178.73194806875,179.06834476875,57.0,82.0
1052,178.73194806875,179.09040356875,62.0,75.0
1053,178.51136006875,179.21172696875,55.0,61.0
1054,178.95253606875,179.28157983541666,67.0,63.0
1055,179.17312406875,179.49297666875,60.0,78.0
1056,179.17312406875,179.52238840208335,64.0,72.0
1057,179.39371206875,179.69885880208335,67.0,52.0
1058,179.61430006875,180.05547606875,55.0,44.0
1059,179.83488806875,180.05547606875,55.0,82.0
1060,179.83488806875,180.08488780208333,60.0,88.0
1061,179.83488806875,180.10694660208333,59.0,64.0
1062,179.83488806875,180.12532893541666,64.0,85.0
1063,179.83488806875,180.14003480208333,38.0,73.0
1064,178.29077206875002,180.16944653541668,50.0,66.0
1065,179.83488806875,180.16944653541668,50.0,75.0
1066,179.83488806875,180.24481410208332,67.0,58.0
1067,179.83488806875,180.24481410208332,67.0,67.0
1068,179.83488806875,180.29996110208333,62.0,69.0
1069,178.07018406875,180.72275476875,43.0,70.0
1070,180.71724006875002,180.84040170208334,62.0,76.0
1071,180.71724006875002,180.86429873541667,66.0,85.0
1072,180.71724006875002,180.88268106875,69.0,80.0
1073,180.71724006875002,180.94150453541667,40.0,69.0
1074,180.71724006875002,180.95069570208335,55.0,56.0
1075,180.71724006875002,180.96356333541667,52.0,76.0
1076,181.15841606875,181.21723953541667,62.0,57.0
1077,181.15841606875,181.22826893541668,66.0,76.0
1078,181.15841606875,181.25951890208333,42.0,75.0
1079,181.15841606875,181.46540103541668,72.0,82.0
1080,181.59959206875,181.96172403541667,43.0,76.0
1081,181.82018006875,182.04260630208333,50.0,73.0
1082,182.04076806875,182.32201776875002,55.0,73.0
1083,181.59959206875,182.44150293541668,62.0,82.0
1084,181.59959206875,182.46539996875,71.0,75.0
1085,181.59959206875,182.51319403541666,67.0,91.0
1086,182.26135606875,182.61981156875,57.0,72.0
1087,182.48194406875,182.62348803541667,59.0,73.0
1088,182.70253206875,182.84407603541666,62.0,93.0
1089,182.92312006875,183.12348750208335,67.0,88.0
1090,183.14370806875002,183.32753140208334,71.0,91.0
1091,183.36429606875,183.63819283541667,62.0,85.0
1092,183.36429606875,183.65106046875002,66.0,103.0
1093,183.36429606875,183.70804570208333,69.0,80.0
1094,183.80547206875,183.89922196875,62.0,63.0
1095,184.02606006875,184.33855973541668,62.0,88.0
1096,184.02606006875,184.36061853541668,66.0,103.0
1097,184.02606006875,184.38267733541667,74.0,80.0
1098,184.46723606875,184.54260363541667,74.0,59.0
1099,183.58488406875,184.58304476875,54.0,80.0
1100,184.46723606875,184.67127996875,62.0,88.0
1101,184.46723606875,184.67127996875,66.0,95.0
1102,184.46723606875,184.76686810208335,71.0,91.0
1103,184.68782406875002,184.80730923541668,54.0,80.0
1104,183.36429606875,184.82752980208335,42.0,76.0
1105,184.90841206875,185.02054430208335,62.0,60.0
1106,185.12900006875,185.41392623541668,71.0,91.0
1107,185.12900006875,185.43047033541666,62.0,95.0
1108,185.12900006875,185.50951436875,67.0,97.0
1109,185.57017606875002,185.68966123541668,62.0,59.0
1110,185.34958806875,185.87716103541666,52.0,64.0
1111,185.79076406875,186.10142550208334,62.0,80.0
1112,185.79076406875,186.11429313541666,69.0,82.0
1113,186.01135206875,186.23745476875,52.0,62.0
1114,186.23194006875,186.45068983541668,62.0,99.0
1115,186.23194006875,186.49848390208334,67.0,91.0
1116,186.45252806875,186.57752793541667,52.0,55.0
1117,185.12900006875,186.60510143541666,40.0,85.0
1118,186.67311606875,186.88451290208334,62.0,82.0
1119,186.89370406875,187.01135100208333,69.0,64.0
1120,186.89370406875,187.01135100208333,69.0,72.0
1121,186.89370406875,187.09223326875,62.0,82.0
1122,186.89370406875,187.18414493541667,66.0,101.0
1123,186.89370406875,187.23377723541668,50.0,85.0
1124,187.33488006875,187.47090933541668,62.0,69.0
1125,187.55546806875,187.98929113541666,62.0,78.0
1126,187.55546806875,188.00951170208333,66.0,97.0
1127,187.55546806875,188.02421756875,74.0,85.0
1128,186.89370406875,188.25399673541668,38.0,73.0
1129,187.99664406875002,188.28892316875002,50.0,78.0
1130,188.21723206875,188.43046713541668,62.0,95.0
1131,188.21723206875,188.43782006875,66.0,61.0
1132,188.43782006875,188.59039343541667,67.0,67.0
1133,188.65840806875,188.85693726875002,69.0,56.0
1134,188.65840806875,188.95068716875,67.0,66.0
1135,188.65840806875,188.95252540208332,62.0,80.0
1136,189.09958406875,189.20803983541668,62.0,50.0
1137,188.87899606875,189.40289256875,48.0,62.0
1138,189.32017206875,189.76134806875,71.0,80.0
1139,189.32017206875,189.76870100208333,67.0,95.0
1140,188.65840806875,189.78892156875,36.0,93.0
1141,189.32017206875,189.79627450208335,62.0,85.0
1142,189.76134806875,189.90105380208334,48.0,80.0
1143,189.98193606875,190.19333290208334,62.0,82.0
1144,190.20252406875,190.38818563541668,71.0,72.0
1145,190.42311206875002,190.50950903541667,71.0,75.0
1146,190.42311206875002,190.68414120208334,62.0,82.0
1147,190.42311206875002,190.69884706875,59.0,91.0
1148,190.42311206875002,190.75583230208335,69.0,93.0
1149,190.42311206875002,190.77789110208334,47.0,72.0
1150,190.42311206875002,190.79443520208335,66.0,99.0
1151,190.86428806875,191.00583203541666,62.0,70.0
1152,191.08487606875,191.14369953541666,67.0,61.0
1153,191.08487606875,191.21539063541667,71.0,85.0
1154,191.30546406875,191.51134620208333,67.0,93.0
1155,191.30546406875,191.52605206875,71.0,80.0
1156,191.30546406875,191.57568436875002,62.0,97.0
1157,191.30546406875,191.91208106875,40.0,85.0
1158,191.74664006875,191.92127223541667,57.0,75.0
1159,191.52605206875,191.98377216875,52.0,82.0
1160,191.96722806875002,192.01318390208334,60.0,52.0
1161,192.18781606875,192.53524216875002,60.0,88.0
1162,192.18781606875,192.64921263541666,64.0,91.0
1163,192.84958006875002,193.17862383541666,59.0,85.0
1164,192.84958006875002,193.21355026875,62.0,91.0
1165,192.62899206875,193.29075606875,57.0,85.0
1166,192.40840406875,193.29627076875,52.0,67.0
1167,193.29075606875,193.50950583541666,60.0,101.0
1168,192.18781606875,193.57752046875,45.0,88.0
1169,193.29075606875,193.57935870208334,64.0,93.0
1170,193.51134406875,193.60325573541667,52.0,73.0
1171,193.73193206875,193.86979956875,55.0,70.0
1172,193.95252006875,194.21538743541666,55.0,85.0
1173,193.95252006875,194.23928446875001,67.0,78.0
1174,193.95252006875,194.25399033541666,64.0,88.0
1175,193.95252006875,194.26318150208334,60.0,97.0
1176,194.39369606875002,194.58671056875,55.0,97.0
1177,193.95252006875,194.67310753541668,38.0,78.0
1178,194.17310806875,194.68229870208333,50.0,75.0
1179,194.61428406875,194.87163673541667,60.0,75.0
1180,194.83487206875,194.99663660208333,62.0,78.0
1181,194.83487206875,195.00582776875,57.0,95.0
1182,194.83487206875,195.01134246875,40.0,101.0
1183,194.83487206875,195.03156303541667,66.0,88.0
1184,195.27604806875001,195.34957740208333,66.0,78.0
1185,195.27604806875001,195.35693033541668,69.0,60.0
1186,195.27604806875001,195.35693033541668,71.0,64.0
1187,195.27604806875001,195.41023910208335,42.0,101.0
1188,195.71722406875,196.09406190208333,59.0,85.0
1189,195.71722406875,196.10692953541667,62.0,88.0
1190,195.71722406875,196.25214996875002,67.0,75.0
1191,196.37898806875,196.44148800208333,60.0,64.0
1192,196.59957606875,196.68597303541668,60.0,70.0
1193,195.93781206875,196.81281113541667,50.0,61.0
1194,196.15840006875,196.84406110208334,55.0,91.0
1195,196.82016406875002,196.91023750208333,60.0,101.0
1196,196.82016406875002,196.99111976875,59.0,99.0
1197,195.71722406875,197.09589906875001,43.0,82.0
1198,196.82016406875002,197.10876670208333,67.0,85.0
1199,197.04075206875,197.17310486875002,50.0,72.0
1200,197.26134006875,197.38817816875002,59.0,64.0
1201,197.48192806875,197.83854533541668,66.0,95.0
1202,197.48192806875,197.87531000208332,57.0,93.0
1203,197.48192806875,198.00398633541667,62.0,78.0
1204,198.14369206875,198.29626543541667,57.0,91.0
1205,197.92310406875,198.62163273541668,54.0,80.0
1206,198.36428006875,198.67677973541666,62.0,69.0
1207,198.58486806875,198.88817656875,66.0,93.0
1208,198.80545606875,198.90655890208333,54.0,78.0
1209,197.70251606875001,198.92494123541667,50.0,78.0
1210,197.48192806875,198.97273530208335,42.0,80.0
1211,198.80545606875,199.08670576875,57.0,80.0
1212,199.02604406875,199.15472040208334,69.0,70.0
1213,199.24663206875002,199.53891116875002,62.0,80.0
1214,199.46722006875,199.99111656875002,52.0,75.0
1215,199.90839606875,200.36611616875,67.0,76.0
1216,199.90839606875,200.42310140208335,59.0,99.0
1217,199.90839606875,200.43045433541667,62.0,95.0
1218,200.34957206875,200.59957180208335,52.0,75.0
1219,199.24663206875002,200.64736586875,40.0,72.0
1220,200.57016006875,200.79074806875,59.0,93.0
1221,200.57016006875,200.79993923541667,62.0,38.0
1222,200.79074806875,201.07199776875,67.0,67.0
1223,201.01133606875,201.26133580208335,57.0,95.0
1224,201.01133606875,201.29442400208333,66.0,95.0
1225,201.01133606875,201.37162980208333,62.0,91.0
1226,201.45251206875,201.56648253541667,57.0,72.0
1227,201.67310006875002,201.86059986875,57.0,80.0
1228,201.67310006875002,201.97273210208334,66.0,97.0
1229,201.23192406875,202.07383493541667,50.0,73.0
1230,202.11427606875,202.18045246875002,62.0,73.0
1231,202.11427606875,202.31280526875,57.0,95.0
1232,202.11427606875,202.35876110208335,67.0,75.0
1233,202.33486406875,202.35876110208335,67.0,44.0
1234,201.01133606875,202.42861396875,38.0,80.0
1235,202.33486406875,202.46721686875,66.0,88.0
1236,202.33486406875,202.48927566875,57.0,70.0
1237,202.33486406875,202.49662860208335,50.0,54.0
1238,202.77604006875,203.08853973541667,55.0,93.0
1239,202.77604006875,203.09221620208334,64.0,70.0
1240,202.77604006875,203.18045140208335,48.0,88.0
1241,202.77604006875,203.20251020208335,60.0,78.0
1242,203.21721606875002,203.31464243541666,55.0,50.0
1243,203.21721606875002,203.44331876875,48.0,38.0
1244,203.43780406875,203.80545073541668,64.0,80.0
1245,202.77604006875,203.90103886875,36.0,70.0
1246,203.43780406875,203.92309766875002,60.0,80.0
1247,203.43780406875,203.93228883541667,55.0,80.0
1248,203.87898006875,204.02052403541668,48.0,70.0
1249,204.09956806875002,204.17493563541666,57.0,72.0
1250,204.09956806875002,204.19515620208333,55.0,85.0
1251,204.09956806875002,204.44699416875,67.0,69.0
1252,204.54074406875,204.82199376875002,47.0,78.0
1253,204.54074406875,204.87897900208333,66.0,97.0
1254,204.54074406875,204.88633193541668,62.0,85.0
1255,204.54074406875,204.89000840208334,57.0,80.0
1256,204.98192006875001,205.04074353541668,62.0,33.0
1257,204.98192006875001,205.29625796875,66.0,72.0
1258,205.20250806875,205.31280206875002,67.0,60.0
1259,205.42309606875,205.70618400208335,52.0,85.0
1260,205.42309606875,205.79993390208332,59.0,93.0
1261,205.42309606875,205.85691913541666,67.0,73.0
1262,205.42309606875,205.90103673541668,40.0,72.0
1263,205.42309606875,205.90103673541668,62.0,88.0
1264,205.86427206875,205.96905136875,52.0,70.0
1265,206.08486006875,206.20434523541667,59.0,82.0
1266,206.30544806875,206.74662406875,67.0,75.0
1267,206.30544806875,206.74846230208334,60.0,93.0
1268,206.96721206875,207.12162366875,59.0,91.0
1269,207.18780006875,207.28706466875002,60.0,61.0
1270,206.52603606875002,207.34221166875,52.0,78.0
1271,206.74662406875,207.47456446875,57.0,82.0
1272,207.62897606875,207.66574073541668,52.0,52.0
1273,206.30544806875,207.70618186875,45.0,75.0
1274,207.40838806875,207.73375536875,64.0,97.0
1275,207.84956406875,207.91941693541668,55.0,47.0
1276,208.07015206875002,208.45434283541667,64.0,82.0
1277,208.07015206875002,208.52051923541669,67.0,56.0
1278,208.07015206875002,208.55728390208333,55.0,91.0
1279,208.07015206875002,208.59037210208334,60.0,91.0
1280,208.73191606875,209.19698910208334,50.0,28.0
1281,208.07015206875002,209.40654770208334,38.0,73.0
1282,208.95250406875002,209.41022416875,55.0,95.0
1283,208.95250406875002,209.41206240208334,64.0,73.0
1284,208.95250406875002,209.42493003541668,60.0,64.0
1285,209.39368006875,209.49294466875,50.0,85.0
1286,209.83485606875,210.14919396875,64.0,91.0
1287,209.83485606875,210.22823800208334,67.0,72.0
1288,209.83485606875,210.35139963541667,60.0,91.0
1289,210.49662006875002,210.82750206875,59.0,88.0
1290,210.27603206875,211.18595756875,55.0,82.0
1291,210.93779606875,211.20617813541668,60.0,91.0
1292,211.54257483541667,212.65475041874998,62.0,45.0
1293,211.37897206875002,212.68904894583332,55.0,45.0
1294,210.05544406875,212.7072069895833,50.0,64.0
1295,211.48007490208335,212.71729479166666,59.0,49.0
1296,209.83485606875,212.72940015416665,43.0,72.0
1297,211.59956006875,212.7677338020833,67.0,60.0
1298,211.4157367354167,212.84238353749998,57.0,55.0
1299,213.54863594375,213.83240164375002,55.0,51.0
1300,213.54237640625,214.05261540625003,60.0,59.0
1301,213.54237640625,214.13541094375003,64.0,57.0
1302,213.55489548125,214.15664056875002,67.0,48.0
1303,214.08021391875002,214.68214336875002,57.0,58.0
1304,213.53611686875,214.85716816875004,45.0,69.0
1305,213.81779605625002,214.85716816875004,52.0,44.0
1306,214.33921534375003,214.99113776875004,60.0,72.0
1307,214.66269616875002,215.33176116875003,67.0,67.0
1308,215.27235093125003,215.74701217500004,55.0,40.0
1309,215.35596533958338,215.75597985000002,60.0,54.0
1310,215.49678960625005,215.79185055000002,64.0,59.0
1311,215.91291416250002,216.06760655625,55.0,56.0
1312,216.11534603750002,216.3256455791667,60.0,64.0
1313,216.33707490208334,216.4147942979167,62.0,48.0
1314,216.5588037666667,216.72297481875003,67.0,57.0
1315,216.81395133750001,216.99123891250002,72.0,50.0
1316,217.06821904375002,217.35162966875004,74.0,58.0
1317,217.36831731875003,217.95460764166668,79.0,51.0
1318,215.73580258125003,217.9765879854167,50.0,48.0
1319,215.35816571875003,217.98635702708336,38.0,70.0
1320,218.34781156875002,218.84316519583336,67.0,61.0
1321,218.3578695104167,218.89094041875,60.0,62.0
1322,219.02725538125003,219.31278769375,57.0,69.0
1323,218.63949187708334,219.54592875625002,50.0,54.0
1324,219.26039644375,219.6022052854167,60.0,45.0
1325,218.85070865208334,219.61331639375,55.0,73.0
1326,219.44900494375003,220.0772051666667,67.0,59.0
1327,219.99664963125002,220.6022050354167,50.0,43.0
1328,220.45776062708333,220.77442721458334,55.0,50.0
1329,220.44942729583335,220.93276050833333,62.0,63.0
1330,221.26331598125,221.50776036458333,55.0,48.0
1331,221.26331598125,221.6188714479167,60.0,55.0
1332,222.46331568125,222.72720450416668,79.0,32.0
1333,222.5049823375,222.95220444791667,84.0,44.0
1334,222.62442675208334,223.10775996458335,91.0,44.0
1335,221.24664931875,223.26331548125,50.0,55.0
1336,218.3503260541667,223.37720434166667,43.0,67.0
