,start,end,pitch,velocity
0,32.785013750000005,33.1924575625,74.0,88.0
1,33.23983475,33.3289038625,81.0,88.0
2,33.467245250000005,33.554419275,81.0,88.0
3,33.69465575,34.304873925,81.0,88.0
4,34.60429775,34.916987187500006,79.0,88.0
5,35.05911875,35.48361835,77.0,88.0
6,36.423581750000004,37.132344475000004,79.0,88.0
7,37.33322375,37.572004775,72.0,88.0
8,37.788044750000005,38.030615950000005,76.0,88.0
9,38.24286575,38.754539375,74.0,88.0
10,40.06214975,40.50181005,77.0,88.0
11,40.74438125,40.846715975,77.0,88.0
12,40.97179175,41.2825861,77.0,89.0
13,41.426612750000004,41.6900299125,74.0,89.0
14,41.88143375,42.3267793125,77.0,90.0
15,42.33625475,43.4979433875,74.0,91.0
16,43.70071775,44.2104962875,77.0,92.0
17,44.155538750000005,44.365893462500004,74.0,94.0
18,44.61035975,45.06518075,74.0,94.0
19,45.06518075,45.4195621125,84.0,94.0
20,45.520001750000006,46.236344825,81.0,94.0
21,47.33928575,47.706932725,81.0,94.0
22,47.794106750000005,48.0651042625,86.0,94.0
23,48.24892775,48.5009743875,86.0,94.0
24,48.70374875,49.0353890625,84.0,95.0
25,49.158569750000005,49.58306935,86.0,97.0
26,49.61339075,50.149700512500004,81.0,99.0
27,50.97785375,51.284857925000004,84.0,100.0
28,51.205264250000006,51.500897900000005,81.0,100.0
29,51.66008525,51.927292587500006,84.0,100.0
30,51.88749575000001,52.317680612500006,81.0,100.0
31,52.34231675,52.7270195125,79.0,99.0
32,52.797137750000005,53.4092510125,77.0,99.0
33,54.61642175,55.150836425,79.0,76.0
34,55.29865325,55.4028830625,79.0,74.0
35,55.526063750000006,55.9410879125,79.0,87.0
36,55.98088475,56.248092087500005,77.0,65.0
37,56.208295250000006,56.481187850000005,74.0,62.0
38,56.435705750000004,56.7673460625,81.0,79.0
39,56.89052675000001,57.66372245,79.0,95.0
40,58.25498975,58.910690025,72.0,71.0
41,58.93722125,59.107779125,74.0,64.0
42,59.164631750000005,59.5796559125,77.0,75.0
43,59.61945275,60.05911305,76.0,65.0
44,60.07427375,61.6718325125,74.0,69.0
45,61.89355775000001,62.327532787500004,74.0,68.0
46,62.34837875,62.6042155625,81.0,63.0
47,62.803199750000005,63.155686025,81.0,68.0
48,63.25802075000001,63.5782905375,79.0,70.0
49,63.71284175,64.1051248625,81.0,67.0
50,64.16766275,64.83473355000001,77.0,63.0
51,65.53212575,65.8429201,79.0,87.0
52,65.98694675,66.22951795,76.0,71.0
53,66.21435725,66.354593725,74.0,66.0
54,66.44176775000001,66.6710733375,72.0,74.0
55,66.89658875,67.19411748750001,76.0,79.0
56,67.35140975,67.8896146,74.0,90.0
57,69.17069375,69.6387803625,77.0,75.0
58,69.85292525,69.9419943625,77.0,77.0
59,70.08033575,70.42903185,77.0,83.0
60,70.53515675,70.71329497500001,74.0,60.0
61,70.98997775000001,71.1946472,74.0,77.0
62,71.21738825,71.418267525,77.0,74.0
63,71.44479875,72.12892533750001,74.0,74.0
64,72.80926175,73.245131875,77.0,75.0
65,73.26408275,73.4479062375,74.0,61.0
66,73.71890375000001,73.980425825,74.0,68.0
67,74.17372475,74.40871560000001,84.0,71.0
68,74.62854575,76.1370354,81.0,98.0
69,76.44782975000001,76.72072235,81.0,75.0
70,76.90265075,77.0011953,86.0,77.0
71,77.13006125000001,77.2153401875,86.0,76.0
72,77.35747175,77.5375050625,86.0,81.0
73,77.81229275000001,78.0302278125,84.0,77.0
74,78.26711375000001,78.380819,86.0,87.0
75,78.49452425,78.59117371250001,84.0,68.0
76,78.72193475,79.52355676250001,81.0,86.0
77,80.08639775,80.34981491250001,84.0,87.0
78,80.31380825000001,80.598071375,81.0,70.0
79,80.76862925,80.999829925,84.0,74.0
80,80.99603975000001,81.447070575,81.0,74.0
81,81.45086075,81.871570175,79.0,73.0
82,81.90568175,83.45207315,77.0,95.0
83,83.72496575000001,84.18357692500001,79.0,76.0
84,84.40719725000001,84.50574180000001,79.0,76.0
85,84.63460775,84.8677035125,79.0,85.0
86,85.08942875000001,85.350950825,77.0,69.0
87,85.31683925,85.525298875,74.0,61.0
88,85.54424975,85.836093225,81.0,70.0
89,85.99907075,86.63392506250001,79.0,87.0
90,87.36353375,88.13104418750001,72.0,68.0
91,88.04576525,88.1992673375,74.0,65.0
92,88.27317575000001,88.62376693750001,77.0,76.0
93,88.72799675,89.08995846250001,76.0,63.0
94,89.18281775000001,90.9736754375,74.0,71.0
95,91.00210175000001,91.60852975,86.0,100.0
96,91.91174375,92.3646696625,86.0,104.0
97,92.36656475000001,92.74368716250001,81.0,75.0
98,92.82138575,93.15492115,86.0,93.0
99,93.27620675,94.36019680000001,89.0,81.0
100,94.64066975,94.88324095,88.0,74.0
101,95.09549075000001,95.190245125,86.0,66.0
102,95.32290125,95.425235975,88.0,64.0
103,95.55031175,95.842155225,84.0,61.0
104,96.00513275,96.357619025,81.0,73.0
105,96.45995375000001,97.90022025,86.0,85.0
106,98.27923775000001,98.84586891250001,86.0,79.0
107,98.96146925000001,99.0581187125,89.0,75.0
108,99.18887975000001,99.43903130000001,89.0,85.0
109,99.64370075000001,99.92417370000001,84.0,76.0
110,100.09852175,100.3581487375,86.0,95.0
111,100.55334275000001,101.42129282500001,86.0,111.0
112,101.46298475,101.80789067500001,84.0,74.0
113,101.91780575,102.1812229125,86.0,81.0
114,102.37262675000001,102.6663653125,86.0,81.0
115,102.82744775,103.17045858750001,79.0,83.0
116,103.28226875,103.61201397500001,82.0,87.0
117,103.73708975000001,105.45024885000001,81.0,86.0
118,105.55637375,106.04530632500001,81.0,61.0
119,106.01119475,106.666895025,86.0,73.0
120,106.92083675,107.2164704,84.0,81.0
121,107.37565775,107.500733525,86.0,87.0
122,107.60306825,107.79257700000001,84.0,65.0
123,107.83047875000001,109.016803525,81.0,79.0
124,109.19494175000001,109.40908663750001,84.0,76.0
125,109.42235225,109.74830730000001,81.0,64.0
126,109.87717325000001,110.06289182500001,84.0,73.0
127,110.10458375,110.53855878750001,81.0,68.0
128,110.55940475000001,110.9857994375,79.0,85.0
129,111.01422575000001,112.62125995000001,77.0,87.0
130,112.83350975,113.28833075,79.0,95.0
131,113.51574125,113.6142858,79.0,86.0
132,113.74315175000001,114.22639906250001,79.0,95.0
133,114.19797275,114.467075175,77.0,61.0
134,114.42538325000001,114.6016263875,74.0,64.0
135,114.65279375,114.99959476250001,81.0,79.0
136,115.10761475000001,116.1158013,79.0,104.0
137,116.47207775000001,117.1751552125,72.0,79.0
138,117.15430925000001,117.29075555,74.0,65.0
139,117.38171975,117.7512618125,77.0,95.0
140,117.83654075000001,118.101853,76.0,81.0
141,118.29136175000001,120.06516365,74.0,83.0
142,120.11064575,120.71707375000001,86.0,100.0
143,121.02028775000001,121.4732136625,86.0,104.0
144,121.47510875,121.8522311625,81.0,75.0
145,121.92992975000001,122.26346515,86.0,93.0
146,122.38475075000001,123.4687408,89.0,81.0
147,123.74921375000001,123.99178495000001,88.0,74.0
148,124.20403475,124.29878912500001,86.0,66.0
149,124.43144525000001,124.533779975,88.0,64.0
150,124.65885575,124.95069922500001,84.0,61.0
151,125.11367675000001,125.46616302500001,81.0,73.0
152,125.56849775,127.00876425000001,86.0,85.0
153,127.38778175,127.9544129125,86.0,79.0
154,128.07001325000002,128.1666627125,89.0,75.0
155,128.29742375,128.5475753,89.0,85.0
156,128.75224475000002,129.0327177,84.0,76.0
157,129.20706575,129.4666927375,86.0,95.0
158,129.66188675,130.52983682500002,86.0,111.0
159,131.02634975,131.2897669125,86.0,81.0
160,131.48117075000002,131.7749093125,86.0,81.0
161,131.93599175,132.2790025875,79.0,83.0
162,132.39081275,132.72055797500002,82.0,87.0
163,132.84563375000002,134.55879285,81.0,86.0
164,134.66491775,135.153850325,81.0,61.0
165,135.11973875,135.775439025,86.0,73.0
166,136.02938075,136.32501440000001,84.0,81.0
167,136.48420175,136.609277525,86.0,87.0
168,136.71161225,136.90112100000002,84.0,65.0
169,136.93902275000002,138.125347525,81.0,79.0
170,138.30348575000002,138.51763063750002,84.0,76.0
171,138.53089625,138.85685130000002,81.0,64.0
172,138.98571725000002,139.171435825,84.0,73.0
173,139.21312775,139.64710278750002,81.0,68.0
174,139.66794875000002,140.09434343750002,79.0,85.0
175,140.12276975,141.72980395000002,77.0,87.0
176,141.94205375,142.39687475,79.0,95.0
177,142.62428525,142.7228298,79.0,86.0
178,142.85169575,143.3349430625,79.0,95.0
179,143.30651675000001,143.575619175,77.0,61.0
180,143.53392725,143.7101703875,74.0,64.0
181,143.76133775,144.1081387625,81.0,79.0
182,144.21615875,145.2243453,79.0,104.0
183,145.12580075,145.546510175,81.0,74.0
184,145.58062175,146.2836992125,84.0,79.0
185,146.26285325,146.39929955,86.0,65.0
186,146.49026375,146.8598058125,89.0,95.0
187,146.94508475,147.210397,88.0,81.0
188,147.39990575000002,149.17370765,86.0,83.0
189,178.28983200000002,178.72380703750002,74.0,68.0
190,178.744653,179.0004898125,81.0,63.0
191,179.199474,179.551960275,81.0,68.0
192,179.65429500000002,179.97456478750001,79.0,70.0
193,180.109116,180.50139911250002,81.0,67.0
194,180.563937,181.23100780000001,77.0,63.0
195,181.9284,182.23919435000002,79.0,87.0
196,182.38322100000002,182.6257922,76.0,71.0
197,182.6106315,182.750867975,74.0,66.0
198,182.838042,183.06734758750002,72.0,74.0
199,183.292863,183.5903917375,76.0,79.0
200,183.74768400000002,184.28588885000002,74.0,90.0
201,185.566968,186.0350546125,77.0,75.0
202,186.2491995,186.3382686125,77.0,77.0
203,186.47661000000002,186.8253061,77.0,83.0
204,186.931431,187.109569225,74.0,60.0
205,187.386252,187.59092145000002,74.0,77.0
206,187.6136625,187.814541775,77.0,74.0
207,187.84107300000002,188.5251995875,74.0,74.0
208,189.20553600000002,189.641406125,77.0,75.0
209,189.660357,189.8441804875,74.0,61.0
210,190.11517800000001,190.376700075,74.0,68.0
211,190.56999900000002,190.80498985,84.0,71.0
212,191.02482,192.53330965,81.0,98.0
213,192.84410400000002,193.11699660000002,81.0,75.0
214,193.29892500000003,193.39746955,86.0,77.0
215,193.52633550000002,193.6116144375,86.0,76.0
216,193.753746,193.9337793125,86.0,81.0
217,194.20856700000002,194.42650206250002,84.0,77.0
218,194.663388,194.77709325,86.0,87.0
219,194.89079850000002,194.9874479625,84.0,68.0
220,195.118209,195.9198310125,81.0,86.0
221,196.482672,196.7460891625,84.0,87.0
222,196.7100825,196.99434562500002,81.0,70.0
223,197.1649035,197.396104175,84.0,74.0
224,197.392314,197.843344825,81.0,74.0
225,197.847135,198.26784442500002,79.0,73.0
226,198.30195600000002,199.84834740000002,77.0,95.0
227,200.12124,200.57985117500002,79.0,76.0
228,200.8034715,200.90201605000001,79.0,76.0
229,201.03088200000002,201.26397776250002,79.0,85.0
230,201.485703,201.74722507500002,77.0,69.0
231,201.71311350000002,201.921573125,74.0,61.0
232,201.940524,202.23236747500002,81.0,70.0
233,202.39534500000002,203.0301993125,79.0,87.0
234,203.75980800000002,204.5273184375,72.0,68.0
235,204.44203950000002,204.5955415875,74.0,65.0
236,204.66945,205.0200411875,77.0,76.0
237,205.12427100000002,205.48623271250003,76.0,63.0
238,205.579092,207.36994968750002,74.0,71.0
239,207.398376,208.004804,86.0,100.0
240,208.308018,208.7609439125,86.0,104.0
241,208.762839,209.1399614125,81.0,75.0
242,209.21766000000002,209.5511954,86.0,93.0
243,209.672481,210.75647105000002,89.0,81.0
244,211.036944,211.27951520000002,88.0,74.0
245,211.49176500000002,211.58651937500002,86.0,66.0
246,211.7191755,211.82151022500003,88.0,64.0
247,211.94658600000002,212.238429475,84.0,61.0
248,212.401407,212.75389327500002,81.0,73.0
249,212.85622800000002,214.29649450000002,86.0,85.0
250,214.67551200000003,215.2421431625,86.0,79.0
251,215.35774350000003,215.4543929625,89.0,75.0
252,215.58515400000002,215.83530555000002,89.0,85.0
253,216.03997500000003,216.32044795000002,84.0,76.0
254,216.494796,216.75442298750002,86.0,95.0
255,216.94961700000002,217.817567075,86.0,111.0
256,217.859259,218.20416492500001,84.0,74.0
257,218.31408000000002,218.5774971625,86.0,81.0
258,218.768901,219.0626395625,86.0,81.0
259,219.223722,219.5667328375,79.0,83.0
260,219.67854300000002,220.008288225,82.0,87.0
261,220.133364,221.8465231,81.0,86.0
262,221.952648,222.44158057500002,81.0,61.0
263,222.40746900000002,223.063169275,86.0,73.0
264,223.317111,223.61274465000002,84.0,81.0
265,223.77193200000002,223.89700777500002,86.0,87.0
266,223.9993425,224.18885125000003,84.0,65.0
267,224.226753,225.413077775,81.0,79.0
268,225.591216,225.8053608875,84.0,76.0
269,225.81862650000002,226.14458155000003,81.0,64.0
270,226.2734475,226.459166075,84.0,73.0
271,226.50085800000002,226.93483303750003,81.0,68.0
272,226.955679,227.38207368750003,79.0,85.0
273,227.4105,229.0175342,77.0,87.0
274,229.22978400000002,229.684605,79.0,95.0
275,229.91201550000002,230.01056005,79.0,86.0
276,230.13942600000001,230.6226733125,79.0,95.0
277,230.59424700000002,230.86334942500002,77.0,61.0
278,230.82165750000001,230.9979006375,74.0,64.0
279,231.049068,231.39586901250001,81.0,79.0
280,231.50388900000002,232.51207555000002,79.0,104.0
281,232.86835200000002,233.57142946250002,72.0,79.0
282,233.55058350000002,233.6870298,74.0,65.0
283,233.777994,234.14753606250002,77.0,95.0
284,234.23281500000002,234.49812725,76.0,81.0
285,234.68763600000003,236.46143790000002,74.0,83.0
286,236.50692,237.113348,86.0,100.0
287,237.41656200000003,237.8694879125,86.0,104.0
288,237.871383,238.2485054125,81.0,75.0
289,238.32620400000002,238.6597394,86.0,93.0
290,238.78102500000003,239.86501505,89.0,81.0
291,240.145488,240.38805920000001,88.0,74.0
292,240.600309,240.69506337500002,86.0,66.0
293,240.8277195,240.93005422500002,88.0,64.0
294,241.05513000000002,241.34697347500003,84.0,61.0
295,241.509951,241.86243727500002,81.0,73.0
296,241.964772,243.40503850000002,86.0,85.0
297,243.78405600000002,244.3506871625,86.0,79.0
298,244.46628750000002,244.5629369625,89.0,75.0
299,244.693698,244.94384955,89.0,85.0
300,245.14851900000002,245.42899195,84.0,76.0
301,245.60334,245.86296698750002,86.0,95.0
302,246.058161,246.92611107500002,86.0,111.0
303,247.422624,247.6860411625,86.0,81.0
304,247.87744500000002,248.1711835625,86.0,81.0
305,248.332266,248.6752768375,79.0,83.0
306,248.787087,249.11683222500002,82.0,87.0
307,249.24190800000002,250.9550671,81.0,86.0
308,251.061192,251.550124575,81.0,61.0
309,251.51601300000002,252.171713275,86.0,73.0
310,252.425655,252.72128865000002,84.0,81.0
311,252.88047600000002,253.00555177500001,86.0,87.0
312,253.1078865,253.29739525000002,84.0,65.0
313,253.33529700000003,254.52162177500003,81.0,79.0
314,254.69976000000003,254.91390488750002,84.0,76.0
315,254.92717050000002,255.25312555000002,81.0,64.0
316,255.38199150000003,255.567710075,84.0,73.0
317,255.60940200000002,256.0433770375,81.0,68.0
318,256.064223,256.4906176875,79.0,85.0
319,256.519044,258.1260782,77.0,87.0
320,258.338328,258.793149,79.0,95.0
321,259.0205595,259.11910405000003,79.0,86.0
322,259.24797,259.7312173125,79.0,95.0
323,259.702791,259.971893425,77.0,61.0
324,259.9302015,260.10644463750003,74.0,64.0
325,260.15761200000003,260.50441301250004,81.0,79.0
326,260.612433,261.62061955,79.0,104.0
327,261.52207500000003,261.942784425,81.0,74.0
328,261.976896,262.6799734625,84.0,79.0
329,262.6591275,262.7955738,86.0,65.0
330,262.88653800000003,263.2560800625,89.0,95.0
331,263.341359,263.60667125000003,88.0,81.0
332,263.79618,265.5699819,86.0,83.0
333,265.61546400000003,266.070285,79.0,95.0
334,266.29769550000003,266.39624005,79.0,86.0
335,266.525106,267.0083533125,79.0,95.0
336,266.97992700000003,267.249029425,77.0,61.0
337,267.2073375,267.3835806375,74.0,64.0
338,267.434748,267.7815490125,81.0,79.0
339,267.889569,268.89775555,79.0,104.0
340,268.799211,269.219920425,81.0,74.0
341,269.254032,269.9571094625,72.0,79.0
342,269.9362635,270.07270980000004,74.0,65.0
343,270.163674,270.5332160625,77.0,95.0
344,270.618495,270.88380725,76.0,81.0
345,271.07331600000003,272.8471179,74.0,83.0
