,start,end,pitch,velocity
0,4.1331858375,5.0636738,57.0,61.0
1,4.5880068375,5.076939412500001,62.0,59.0
2,5.0428278375,5.5203898875,69.0,68.0
3,5.497648837500001,5.908882825,67.0,74.0
4,5.952469837500001,6.5418420500000005,60.0,61.0
5,6.407290837500001,6.8469511375000005,64.0,65.0
6,3.6764697500000003,6.9720269125000005,50.0,74.0
7,6.8621118375000005,7.404106862500001,72.0,69.0
8,8.22467975,8.6586547875,72.0,56.0
9,8.67950075,9.1248463125,60.0,59.0
10,7.76985875,9.17980385,55.0,67.0
11,9.13432175,9.9511044625,62.0,67.0
12,9.58914275,10.426771425,57.0,59.0
13,7.31503775,10.953605750000001,48.0,86.0
14,10.043963750000001,11.863247750000001,69.0,70.0
15,12.31806875,12.858168687500001,57.0,51.0
16,11.863247750000001,13.229605837500001,53.0,60.0
17,12.772889750000001,14.0748148625,62.0,64.0
18,10.953605750000001,14.1297724,46.0,60.0
19,13.68253175,14.1904152,53.0,55.0
20,11.40842675,14.482258675,50.0,52.0
21,14.137352750000002,14.6243902375,57.0,55.0
22,15.50181575,15.998328675000002,55.0,76.0
23,14.59217375,16.0457058625,48.0,66.0
24,15.956636750000001,16.4702054625,60.0,59.0
25,17.321099750000002,17.764550225,55.0,59.0
26,16.86627875,18.2440073625,48.0,64.0
27,17.77592075,18.247797537500002,57.0,67.0
28,16.41145775,18.259168062500002,41.0,72.0
29,19.1422788375,19.5137159875,62.0,61.0
30,18.687457837500002,19.6653229875,57.0,74.0
31,19.5970998375,20.1466752125,69.0,76.0
32,20.051920837500003,20.561699375,67.0,66.0
33,20.5067418375,21.4012231375,60.0,65.0
34,18.23074175,21.622948375,50.0,90.0
35,20.9615628375,21.683591175,64.0,69.0
36,21.4163838375,21.729073275,72.0,90.0
37,23.23377275,23.663957612500003,60.0,58.0
38,22.77895175,23.735970937500003,58.0,47.0
39,22.324130750000002,24.025919325,53.0,55.0
40,23.688593750000003,24.17373615,62.0,66.0
41,24.59823575,25.0018893875,60.0,62.0
42,24.14341475,25.14402095,58.0,59.0
43,21.869309750000003,25.322159175000003,46.0,64.0
44,25.053056750000003,25.473766175,62.0,74.0
45,26.41751975,27.300630525000003,60.0,52.0
46,26.872340750000003,27.4503424375,64.0,59.0
47,27.327161750000002,28.195111825,67.0,73.0
48,27.78198275,28.3903058375,60.0,56.0
49,25.96269875,28.689729662500003,55.0,60.0
50,28.23680375,28.750372462500003,64.0,74.0
51,25.507877750000002,28.778798775000002,48.0,93.0
52,28.691624750000003,29.144550662500002,67.0,71.0
53,29.14644575,30.463531562500002,45.0,74.0
54,29.60126675,30.520384187500003,52.0,63.0
55,30.056087750000003,30.946778875000003,57.0,51.0
56,30.510908750000002,31.058589037500003,60.0,64.0
57,31.875371750000003,32.5348622,62.0,58.0
58,30.96572975,32.5803443,50.0,69.0
59,32.33019275,32.76985305,64.0,63.0
60,31.42055075,32.785013750000005,57.0,59.0
61,32.785013750000005,33.3137431625,65.0,75.0
62,33.69465575,34.2953984875,62.0,47.0
63,35.0610138375,35.530995537500004,65.0,77.0
64,33.23983475,35.678812362500004,57.0,59.0
65,32.785013750000005,35.68070745,50.0,72.0
66,35.5158348375,36.029403550000005,64.0,69.0
67,35.970655837500004,36.5126508625,72.0,75.0
68,36.423581750000004,37.8771138625,48.0,87.0
69,37.33322375,37.909330350000005,60.0,56.0
70,37.788044750000005,38.093153837500004,64.0,66.0
71,36.87840275,38.24286575,55.0,60.0
72,38.01545525,38.2712920625,65.0,90.0
73,38.204964000000004,39.114606,62.0,90.0
74,39.152507750000005,39.9313887125,69.0,63.0
75,39.152507750000005,39.937073975000004,65.0,61.0
76,39.60732875,40.012877475,62.0,51.0
77,38.24286575,40.06214975,50.0,85.0
78,38.69768675,40.06214975,57.0,60.0
79,41.426612750000004,42.078522850000006,58.0,58.0
80,41.88143375,42.872564512500006,62.0,58.0
81,42.33625475,42.8953055625,58.0,58.0
82,40.516970750000006,43.098079925,53.0,11.0
83,42.791075750000005,43.262952537500006,70.0,59.0
84,40.06214975,43.3008542875,46.0,59.0
85,43.24589675,43.823898437500006,62.0,60.0
86,44.61035975,45.2262631875,58.0,72.0
87,44.155538750000005,45.303961775000005,46.0,57.0
88,43.70071775,45.3096470375,43.0,76.0
89,45.06518075,45.4688343875,62.0,68.0
90,45.520001750000006,46.300777800000006,60.0,61.0
91,45.520001750000006,46.319728675,64.0,73.0
92,46.429643750000004,47.108085075000005,69.0,74.0
93,45.520001750000006,47.297593825,45.0,65.0
94,45.97482275,47.314649612500006,52.0,61.0
95,46.88446475,47.314649612500006,57.0,47.0
96,47.111875250000004,47.350656275000006,60.0,56.0
97,48.24892775,48.62794525,62.0,59.0
98,47.794106750000005,48.696168400000005,57.0,57.0
99,47.33928575,48.7738669875,50.0,86.0
100,48.70374875,49.168045187500006,69.0,64.0
101,48.70374875,49.175625537500004,65.0,58.0
102,49.61339075,50.428278375000005,52.0,60.0
103,49.158569750000005,50.466180125,45.0,73.0
104,50.06821175,50.5912559,60.0,59.0
105,50.06821175,50.608311687500006,64.0,64.0
106,50.97785375,52.09974555,46.0,75.0
107,51.432674750000004,52.09974555,58.0,59.0
108,51.88749575000001,52.738390037500004,62.0,67.0
109,52.34231675,52.7762917875,65.0,67.0
110,53.25195875,54.1862368875,50.0,63.0
111,52.797137750000005,54.341634062500006,46.0,64.0
112,53.70677975,54.637267712500005,62.0,52.0
113,54.161600750000005,54.658113675,70.0,68.0
114,55.5279588375,55.95056335,62.0,73.0
115,55.073137837500006,56.1249114,50.0,62.0
116,55.982779837500004,56.46602715,55.0,58.0
117,54.618316837500004,56.538040475,43.0,67.0
118,57.347242837500005,57.836175412500005,60.0,66.0
119,57.8020638375,58.2019273,64.0,74.0
120,56.8924218375,58.239829050000004,55.0,59.0
121,56.43760083750001,58.262570100000005,48.0,71.0
122,58.25498975,59.735053087500006,45.0,76.0
123,58.70981075,59.86202395,52.0,61.0
124,59.164631750000005,60.0458474375,64.0,71.0
125,59.164631750000005,60.061008137500004,60.0,63.0
126,59.61945275,60.0685884875,57.0,60.0
127,60.07427375,61.89355775000001,50.0,81.0
128,61.438736750000004,61.901138100000004,64.0,74.0
129,60.98391575,61.97883668750001,62.0,46.0
130,60.529094750000006,62.655382925000005,57.0,58.0
131,61.89355775000001,62.6762288875,65.0,75.0
132,61.89355775000001,63.5365986125,69.0,67.0
133,63.25802075000001,63.849288050000006,62.0,48.0
134,64.16766275,64.45571605,62.0,46.0
135,63.71284175,64.5087785,65.0,63.0
136,63.71284175,64.52962446250001,69.0,71.0
137,61.89355775000001,64.9389633625,50.0,65.0
138,62.803199750000005,64.9579142375,57.0,55.0
139,64.62248375,65.5378110125,69.0,73.0
140,64.62248375,65.56055206250001,65.0,62.0
141,66.44176775000001,66.9193298,67.0,70.0
142,66.44176775000001,66.92691015,64.0,63.0
143,65.53212575,67.044405575,48.0,86.0
144,66.89658875,67.2680259,60.0,54.0
145,65.98694675,67.4518493875,55.0,53.0
146,67.8081258375,68.29137315,65.0,74.0
147,68.26294683750001,68.62111837500001,64.0,64.0
148,68.7177678375,69.1631134,65.0,66.0
149,67.8081258375,69.22375620000001,57.0,63.0
150,67.3533048375,69.242707075,50.0,83.0
151,69.62551475000001,70.20920170000001,58.0,57.0
152,70.08033575,70.940705475,62.0,61.0
153,70.98997775000001,71.6343075,65.0,65.0
154,70.98997775000001,71.7461176625,62.0,53.0
155,70.53515675,72.17440743750001,58.0,52.0
156,69.17069375,72.4510902125,46.0,58.0
157,71.89961975,72.81115683750001,70.0,68.0
158,71.89961975,72.835792975,62.0,59.0
159,72.80926175,72.835792975,62.0,73.0
160,71.89961975,72.8452684125,65.0,76.0
161,72.80926175,73.5616114875,58.0,63.0
162,73.71890375000001,74.1869903625,58.0,73.0
163,72.80926175,74.2362626375,43.0,65.0
164,73.26408275,74.49209945,50.0,69.0
165,74.17372475,74.609594875,62.0,75.0
166,74.62854575,75.30698707500001,60.0,60.0
167,74.62854575,75.3202526875,64.0,70.0
168,75.53818775,75.9911136625,62.0,74.0
169,74.62854575,76.1086090875,45.0,66.0
170,75.08336675000001,76.201468375,52.0,65.0
171,75.99300875,76.38339677500001,64.0,77.0
172,76.44782975000001,77.2608222875,65.0,62.0
173,76.44782975000001,77.285458425,69.0,63.0
174,77.35747175,78.1534085,65.0,62.0
175,77.35747175,78.1553035875,69.0,74.0
176,76.44782975000001,78.26711375000001,50.0,85.0
177,76.90265075,78.26711375000001,57.0,54.0
178,77.81229275000001,78.26711375000001,62.0,46.0
179,78.26711375000001,79.036519275,62.0,64.0
180,78.26711375000001,79.0611554125,65.0,70.0
181,78.26711375000001,80.08639775,48.0,75.0
182,79.17675575,80.08639775,62.0,73.0
183,79.17675575,80.08639775,65.0,85.0
184,80.54121875,81.0396267625,50.0,74.0
185,81.22345025,82.48747361250001,62.0,59.0
186,81.90568175,82.6428707875,70.0,62.0
187,81.22345025,82.6712971,50.0,9.0
188,80.76862925,82.705408675,53.0,61.0
189,80.08639775,82.90818303750001,46.0,76.0
190,82.81532375,83.80076925,70.0,61.0
191,82.81532375,83.8178250375,62.0,63.0
192,84.6365028375,85.60868272500001,58.0,54.0
193,85.0913238375,85.91568690000001,62.0,67.0
194,86.0009658375,86.52400998750001,60.0,60.0
195,85.54614483750001,86.66614155,55.0,50.0
196,86.4557868375,86.90113240000001,62.0,68.0
197,84.18168183750001,87.32373691250001,50.0,63.0
198,86.91060783750001,87.32373691250001,64.0,67.0
199,83.7268608375,87.33321235000001,43.0,70.0
200,88.27317575000001,88.67114412500001,65.0,85.0
201,87.36353375,88.792429725,45.0,67.0
202,87.81835475000001,88.9459318125,52.0,69.0
203,88.72799675,89.186607925,64.0,63.0
204,88.27317575000001,89.201768625,57.0,64.0
205,89.18281775000001,89.66796015,62.0,64.0
206,90.31987025000001,90.604133375,64.0,67.0
207,90.09245975,90.801222475,62.0,60.0
208,89.18281775000001,90.87702597500001,50.0,81.0
209,90.54728075,90.87892106250001,65.0,85.0
210,89.63763875000001,90.8902915875,57.0,65.0
211,91.22761716250001,91.62369045000001,57.0,61.0
212,91.4550276625,91.72981535000001,62.0,69.0
213,91.69570377500001,91.96291111250001,57.0,80.0
214,91.91742901250001,92.2737054625,69.0,80.0
215,91.91174375,92.3438237,65.0,84.0
216,91.00210175000001,92.506801225,50.0,64.0
217,92.3722500125,92.56365385000001,57.0,58.0
218,92.15241986250001,92.59966051250001,62.0,58.0
219,92.59966051250001,92.83465136250001,69.0,52.0
220,92.58070963750001,92.954041875,65.0,56.0
221,93.0544815125,93.2970527125,57.0,76.0
222,93.27431166250001,93.56994531250001,60.0,80.0
223,93.499827075,93.7708245875,57.0,80.0
224,92.83275627500001,94.12710103750001,50.0,100.0
225,93.939487375,94.379147675,57.0,79.0
226,93.7177621375,94.59518765,64.0,104.0
227,94.38672802500001,94.66341080000001,50.0,84.0
228,94.1934291,94.985575675,72.0,101.0
229,94.8661851625,95.1182318,55.0,76.0
230,95.09359566250001,95.57873806250001,60.0,85.0
231,95.3058454625,95.6090594625,55.0,89.0
232,95.5578921,96.1131527375,64.0,107.0
233,94.6236139625,96.21548746250001,48.0,94.0
234,95.74929593750001,96.21548746250001,55.0,56.0
235,96.00323766250001,96.2685499125,60.0,84.0
236,95.5578921,96.4125765625,67.0,106.0
237,96.20222185,96.524386725,64.0,78.0
238,96.660833025,96.92614527500001,57.0,84.0
239,96.89771896250001,97.23314945,62.0,88.0
240,97.1194442,97.3771761,57.0,85.0
241,97.350644875,97.7277672875,69.0,100.0
242,97.34874978750001,97.828206925,65.0,104.0
243,96.45047831250001,97.866108675,50.0,89.0
244,97.8035707875,98.0954142625,62.0,84.0
245,97.5609995875,98.161742325,57.0,93.0
246,98.02150585000001,98.3417756375,65.0,83.0
247,98.48769737500001,98.722688225,53.0,80.0
248,98.71131770000001,99.14150256250001,58.0,96.0
249,98.93493802500001,99.2722636,53.0,84.0
250,98.241336,99.450401825,46.0,97.0
251,99.397339375,99.53757585000001,58.0,84.0
252,99.17750922500001,99.68160250000001,62.0,94.0
253,99.632330225,99.83510458750001,53.0,84.0
254,99.87111125000001,100.05303965,62.0,37.0
255,99.16803378750001,100.185695775,65.0,96.0
256,99.84268493750001,100.208436825,58.0,86.0
257,100.3202469875,100.564713275,53.0,80.0
258,100.5287066125,101.0157441,58.0,101.0
259,100.754222025,101.05364585000001,53.0,88.0
260,100.989212875,101.45919457500001,62.0,94.0
261,101.19956758750001,101.4800405375,53.0,80.0
262,100.0814659625,101.54636860000001,46.0,98.0
263,100.9797374375,101.8287366375,65.0,97.0
264,101.4554044,101.8401071625,58.0,84.0
265,101.66575911250001,101.9310713625,53.0,89.0
266,102.1092095875,102.37452183750001,55.0,91.0
267,102.3442004375,102.73648355,60.0,84.0
268,102.573506025,102.8805102,55.0,85.0
269,101.8931696125,103.19698981250001,48.0,88.0
270,103.07380912500001,103.483148025,55.0,80.0
271,103.498308725,103.54758100000001,48.0,84.0
272,102.8255526625,103.70297817500001,64.0,107.0
273,103.28984910000001,103.72761431250001,60.0,76.0
274,102.8255526625,103.75414553750001,67.0,109.0
275,103.9569199,104.2468682875,53.0,86.0
276,104.19380583750001,104.6296759625,57.0,97.0
277,104.40416055,104.72253525,53.0,98.0
278,104.65241701250001,104.96700153750001,60.0,109.0
279,104.6486268375,105.0086934625,65.0,107.0
280,104.847611025,105.05607065000001,53.0,76.0
281,103.72761431250001,105.23420887500001,41.0,87.0
282,105.0958674875,105.31759272500001,57.0,91.0
283,105.2777958875,105.3460190375,53.0,97.0
284,105.0788117,105.4445635875,60.0,84.0
285,105.0769166125,105.552583575,64.0,101.0
286,105.7629382875,106.0130898375,53.0,84.0
287,105.9865586125,106.32009401250001,58.0,88.0
288,106.21586420000001,106.51149785000001,53.0,84.0
289,106.46601575000001,106.6953213375,58.0,98.0
290,106.68205572500001,106.89620061250001,53.0,92.0
291,105.53931796250001,107.144457075,46.0,104.0
292,107.12929637500001,107.205099875,53.0,85.0
293,106.45085505,107.37565775,62.0,110.0
294,106.89809570000001,107.5670615875,58.0,76.0
295,107.58601246250001,107.82100331250001,53.0,89.0
296,107.82100331250001,108.07304995000001,60.0,97.0
297,108.04272855,108.32509658750001,53.0,91.0
298,108.2758243125,108.5259758625,64.0,102.0
299,107.37376266250001,108.56387761250001,46.0,104.0
300,108.4899692,108.8140291625,53.0,105.0
301,108.93152458750001,108.99785265000001,50.0,85.0
302,108.7306453125,109.1096628125,72.0,109.0
303,109.395821025,109.645972575,53.0,91.0
304,109.61375608750001,109.88664868750001,58.0,102.0
305,109.8373764125,110.10837392500001,53.0,96.0
306,110.0799476125,110.2997777625,58.0,105.0
307,110.0799476125,110.3642107375,65.0,107.0
308,110.0799476125,110.4002174,62.0,105.0
309,110.2940925,110.56509001250001,53.0,98.0
310,109.17599087500001,110.83419243750001,46.0,102.0
311,110.71859210000001,110.84556296250001,53.0,79.0
312,111.21131485000001,111.495577975,53.0,80.0
313,111.431145,111.98640563750001,58.0,101.0
314,111.6737162,112.00156633750001,53.0,82.0
315,110.964953475,112.26498350000001,46.0,102.0
316,112.10579615,112.48670873750001,53.0,84.0
317,112.59662381250001,112.66674205000001,46.0,84.0
318,111.89544143750001,112.78802765,62.0,101.0
319,111.8916512625,112.78802765,65.0,103.0
320,112.3313115625,112.8410901,58.0,96.0
321,113.0590251625,113.2978061875,50.0,85.0
322,113.2978061875,113.61618088750001,55.0,100.0
323,113.5062658125,113.777263325,50.0,94.0
324,112.84488027500001,114.10700855,43.0,107.0
325,113.95919172500001,114.25861555,50.0,96.0
326,114.38937658750001,114.4841309625,50.0,73.0
327,113.74504683750001,114.717226725,62.0,107.0
328,114.19039240000001,114.73807268750001,55.0,96.0
329,113.7374664875,114.77407935000001,58.0,112.0
330,114.861253375,115.10950983750001,50.0,89.0
331,115.31986455,115.60033750000001,50.0,91.0
332,115.09055896250001,115.6136031125,55.0,97.0
333,114.63952813750001,115.899761325,43.0,105.0
334,115.7841609875,116.13096200000001,50.0,94.0
335,116.21434585,116.278778825,43.0,89.0
336,116.01346657500001,116.41901530000001,55.0,89.0
337,116.06273885,116.42659565000001,64.0,104.0
338,115.55485540000001,116.47018266250001,60.0,109.0
339,116.67674720000001,117.196001175,52.0,86.0
340,116.88520682500001,117.24148327500001,57.0,96.0
341,117.2661194125,117.40635588750001,52.0,107.0
342,117.62050077500001,117.79863900000001,52.0,108.0
343,116.45691705,118.04310528750001,45.0,109.0
344,118.045000375,118.08858738750001,52.0,96.0
345,117.82706531250001,118.16818106250001,57.0,88.0
346,117.3987755375,118.24966982500001,64.0,116.0
347,117.3987755375,118.27430596250001,60.0,121.0
348,118.50740172500001,118.78597958750001,57.0,98.0
349,118.74428766250001,119.01907535000001,62.0,111.0
350,118.9527472875,119.21047918750001,64.0,102.0
351,119.18584305,119.37724688750001,65.0,109.0
352,119.42272898750001,119.5174833625,69.0,95.0
353,118.29136175000001,119.68614615000001,50.0,116.0
354,119.1953184875,119.68614615000001,57.0,104.0
355,119.65582475000001,119.8320678875,72.0,103.0
356,119.19152831250001,119.9419829625,62.0,108.0
357,119.85670402500001,119.9950454125,50.0,102.0
358,120.3361611625,120.73223445,57.0,78.0
359,120.56357166250001,120.83835935,62.0,86.0
360,120.80424777500001,121.0714551125,57.0,97.0
361,121.0259730125,121.38224946250001,69.0,97.0
362,121.02028775000001,121.45236770000001,65.0,101.0
363,120.11064575,121.61534522500001,50.0,81.0
364,121.48079401250001,121.67219785,57.0,75.0
365,121.2609638625,121.7082045125,62.0,75.0
366,121.7082045125,121.9431953625,69.0,69.0
367,121.6892536375,122.06258587500001,65.0,73.0
368,122.16302551250001,122.40559671250001,57.0,76.0
369,122.3828556625,122.6784893125,60.0,80.0
370,122.60837107500001,122.87936858750001,57.0,80.0
371,121.941300275,123.2356450375,50.0,85.0
372,123.04803137500001,123.48769167500001,57.0,79.0
373,122.82630613750001,123.70373165000001,64.0,104.0
374,123.495272025,123.7719548,50.0,84.0
375,123.30197310000001,124.094119675,72.0,101.0
376,123.97472916250001,124.22677580000001,55.0,76.0
377,124.2021396625,124.6872820625,60.0,85.0
378,124.41438946250001,124.71760346250001,55.0,89.0
379,124.66643610000001,125.22169673750001,64.0,107.0
380,123.73215796250001,125.3240314625,48.0,94.0
381,124.8578399375,125.3240314625,55.0,56.0
382,125.11178166250001,125.3770939125,60.0,84.0
383,124.66643610000001,125.5211205625,67.0,106.0
384,125.31076585000001,125.63293072500001,64.0,78.0
385,125.76937702500001,126.034689275,57.0,84.0
386,126.0062629625,126.34169345000001,62.0,88.0
387,126.22798820000001,126.48572010000001,57.0,85.0
388,126.45918887500001,126.83631128750001,69.0,100.0
389,126.4572937875,126.93675092500001,65.0,104.0
390,125.5590223125,126.974652675,50.0,89.0
391,126.9121147875,127.20395826250001,62.0,84.0
392,126.6695435875,127.270286325,57.0,93.0
393,127.13004985,127.4503196375,65.0,83.0
394,127.596241375,127.83123222500001,53.0,80.0
395,127.8198617,128.25004656250002,58.0,96.0
396,128.043482025,128.3808076,53.0,84.0
397,127.34988000000001,128.558945825,46.0,97.0
398,128.505883375,128.64611985000002,58.0,84.0
399,128.28605322500002,128.79014650000002,62.0,94.0
400,128.740874225,128.9436485875,53.0,84.0
401,128.97965525,129.16158365,62.0,37.0
402,128.2765777875,129.294239775,65.0,96.0
403,128.95122893750002,129.316980825,58.0,86.0
404,129.4287909875,129.673257275,53.0,80.0
405,129.6372506125,130.1242881,58.0,101.0
406,129.862766025,130.16218985,53.0,88.0
407,130.09775687500002,130.56773857500002,62.0,94.0
408,130.3081115875,130.5885845375,53.0,80.0
409,129.1900099625,130.65491260000002,46.0,98.0
410,130.0882814375,130.9372806375,65.0,97.0
411,130.56394840000002,130.9486511625,58.0,84.0
412,130.7743031125,131.0396153625,53.0,89.0
413,131.2177535875,131.48306583750002,55.0,91.0
414,131.4527444375,131.84502755,60.0,84.0
415,131.682050025,131.9890542,55.0,85.0
416,131.0017136125,132.30553381250002,48.0,88.0
417,132.18235312500002,132.59169202500001,55.0,80.0
418,132.606852725,132.656125,48.0,84.0
419,131.9340966625,132.81152217500002,64.0,107.0
420,132.39839310000002,132.8361583125,60.0,76.0
421,131.9340966625,132.86268953750002,67.0,109.0
422,133.0654639,133.3554122875,53.0,86.0
423,133.3023498375,133.7382199625,57.0,97.0
424,133.51270455,133.83107925000002,53.0,98.0
425,133.76096101250002,134.0755455375,60.0,109.0
426,133.7571708375,134.11723746250001,65.0,107.0
427,133.95615502500002,134.16461465,53.0,76.0
428,132.8361583125,134.342752875,41.0,104.0
429,134.2044114875,134.42613672500002,57.0,91.0
430,134.38633988750001,134.4545630375,53.0,97.0
431,134.1873557,134.5531075875,60.0,84.0
432,134.1854606125,134.661127575,64.0,101.0
433,134.87148228750002,135.1216338375,53.0,84.0
434,135.0951026125,135.42863801250002,58.0,88.0
435,135.32440820000002,135.62004185,53.0,84.0
436,135.57455975000002,135.8038653375,58.0,98.0
437,135.79059972500002,136.00474461250002,53.0,92.0
438,134.6478619625,136.25300107500001,46.0,104.0
439,136.23784037500002,136.313643875,53.0,85.0
440,135.55939905,136.48420175,62.0,110.0
441,136.00663970000002,136.6756055875,58.0,76.0
442,136.6945564625,136.9295473125,53.0,89.0
443,136.9295473125,137.18159395,60.0,97.0
444,137.15127255000002,137.4336405875,53.0,91.0
445,137.38436831250002,137.6345198625,64.0,102.0
446,136.4823066625,137.67242161250002,46.0,104.0
447,137.5985132,137.92257316250002,53.0,105.0
448,138.0400685875,138.10639665000002,50.0,85.0
449,137.8391893125,138.2182068125,72.0,109.0
450,138.504365025,138.754516575,53.0,91.0
451,138.7223000875,138.9951926875,58.0,102.0
452,138.94592041250002,139.21691792500002,53.0,96.0
453,139.1884916125,139.4083217625,58.0,105.0
454,139.1884916125,139.4727547375,65.0,107.0
455,139.1884916125,139.5087614,62.0,105.0
456,139.4026365,139.6736340125,53.0,98.0
457,138.28453487500002,139.9427364375,46.0,102.0
458,139.82713610000002,139.95410696250002,53.0,79.0
459,140.31985885,140.604121975,53.0,80.0
460,140.539689,141.0949496375,58.0,101.0
461,140.7822602,141.1101103375,53.0,82.0
462,140.073497475,141.3735275,46.0,102.0
463,141.21434015,141.5952527375,53.0,84.0
464,141.7051678125,141.77528605,46.0,84.0
465,141.0039854375,141.89657165,62.0,101.0
466,141.0001952625,141.89657165,65.0,103.0
467,141.43985556250001,141.9496341,58.0,96.0
468,142.1675691625,142.4063501875,50.0,85.0
469,142.4063501875,142.7247248875,55.0,100.0
470,142.6148098125,142.885807325,50.0,94.0
471,141.953424275,143.21555255,43.0,107.0
472,143.067735725,143.36715955,50.0,96.0
473,143.4979205875,143.5926749625,50.0,73.0
474,142.8535908375,143.825770725,62.0,107.0
475,143.2989364,143.84661668750002,55.0,96.0
476,142.8460104875,143.88262335000002,58.0,112.0
477,143.969797375,144.2180538375,50.0,89.0
478,144.42840855,144.70888150000002,50.0,91.0
479,144.1991029625,144.7221471125,55.0,97.0
480,143.7480721375,145.008305325,43.0,105.0
481,144.8927049875,145.239506,50.0,94.0
482,145.32288985,145.387322825,43.0,89.0
483,145.12201057500002,145.5275593,55.0,89.0
484,145.17128285,145.53513965000002,64.0,104.0
485,144.6633994,145.5787266625,60.0,109.0
486,145.78529120000002,146.2249515,52.0,86.0
487,145.993750825,146.27043360000002,57.0,96.0
488,146.2249515,146.5148998875,52.0,107.0
489,146.6797725,146.907183,52.0,108.0
490,145.56546105,147.15164928750002,45.0,109.0
491,147.153544375,147.1971313875,52.0,96.0
492,146.907183,147.27672506250002,57.0,88.0
493,146.45236200000002,147.358213825,64.0,116.0
494,146.45236200000002,147.38284996250002,60.0,121.0
495,147.61594572500002,147.8945235875,57.0,98.0
496,147.85283166250002,148.12761935,62.0,111.0
497,148.0612912875,148.31902318750002,64.0,102.0
498,148.29438705,148.4857908875,65.0,109.0
499,148.53127298750002,148.6260273625,69.0,95.0
500,147.39990575000002,148.79469015,50.0,116.0
501,148.3038624875,148.79469015,57.0,104.0
502,148.76436875000002,148.9406118875,72.0,103.0
503,148.30007231250002,149.05052696250002,62.0,108.0
504,148.96524802500002,149.1035894125,50.0,102.0
505,149.4086985,149.6531647875,57.0,67.0
506,149.636109,149.8388833625,62.0,77.0
507,149.8635195,150.09472017500002,57.0,63.0
508,150.09093000000001,150.29180927500002,62.0,79.0
509,149.181288,150.52680012500002,50.0,87.0
510,150.3183405,150.5514362625,57.0,76.0
511,150.09093000000001,150.6727218625,65.0,83.0
512,150.77316150000001,150.98920147500002,57.0,66.0
513,150.545751,151.0176277875,62.0,71.0
514,151.2279825,151.444022475,57.0,74.0
515,151.45539300000002,151.6695378875,60.0,77.0
516,151.6828035,151.9310599625,57.0,67.0
517,151.910214,152.12246380000002,64.0,82.0
518,151.000572,152.19258203750002,50.0,83.0
519,152.13762450000002,152.37072026250001,57.0,67.0
520,152.365035,152.51664200000002,72.0,87.0
521,152.365035,152.64361286250002,62.0,77.0
522,152.5924455,152.7895346,57.0,67.0
523,153.0472665,153.274677,55.0,72.0
524,153.274677,153.4812415375,60.0,77.0
525,153.50208750000002,153.7503439625,55.0,75.0
526,153.729498,153.9209018375,60.0,76.0
527,152.81985600000002,154.00428568750002,48.0,91.0
528,153.9569085,154.18431900000002,55.0,77.0
529,154.18431900000002,154.5178544,60.0,75.0
530,153.729498,154.5178544,64.0,97.0
531,154.4117295,154.536805275,55.0,75.0
532,154.86655050000002,155.1091217,57.0,79.0
533,155.093961,155.33463711250002,62.0,79.0
534,155.3213715,155.58478866250002,57.0,73.0
535,154.63914,155.681438125,50.0,87.0
536,155.54878200000002,155.7894581125,62.0,72.0
537,155.7761925,156.01876370000002,57.0,70.0
538,155.54878200000002,156.1855314,65.0,90.0
539,156.23101350000002,156.363669625,57.0,67.0
540,156.003603,156.40536155,62.0,69.0
541,156.6858345,156.93598605,58.0,83.0
542,156.91324500000002,157.11412427500002,62.0,76.0
543,157.1406555,157.3851217875,58.0,75.0
544,157.368066,157.59547650000002,62.0,78.0
545,156.458424,157.7868803375,46.0,96.0
546,157.59547650000002,157.83236243750002,58.0,76.0
547,157.368066,157.8930052375,65.0,83.0
548,157.822887,158.175373275,62.0,66.0
549,158.0502975,158.2909736125,58.0,71.0
550,158.5051185,158.7382142625,58.0,70.0
551,158.732529,158.9315131875,62.0,82.0
552,158.95993950000002,159.19114017500002,58.0,73.0
553,159.18735,159.3237963,65.0,64.0
554,159.18735,159.37117348750002,62.0,63.0
555,159.4147605,159.64975135,58.0,79.0
556,158.27770800000002,159.7009187125,46.0,103.0
557,159.64217100000002,159.90748325,62.0,73.0
558,159.8695815,160.05530007500002,58.0,64.0
559,160.32440250000002,160.5802393125,55.0,77.0
560,160.551813,160.7507971875,60.0,84.0
561,160.7792235,160.9971585625,55.0,79.0
562,161.00663400000002,161.2131985375,60.0,76.0
563,160.096992,161.42165816250002,48.0,94.0
564,161.2340445,161.4766157,55.0,78.0
565,161.68886550000002,161.806360925,55.0,69.0
566,161.461455,161.90490547500002,60.0,79.0
567,161.00663400000002,161.90869565,64.0,87.0
568,162.1436865,162.40899875000002,57.0,71.0
569,162.37109700000002,162.59092715,60.0,87.0
570,162.5985075,162.8505541375,57.0,77.0
571,162.825918,163.03627271250002,60.0,83.0
572,161.916276,163.2182011125,45.0,95.0
573,163.05332850000002,163.32053583750002,57.0,82.0
574,162.825918,163.398234425,64.0,97.0
575,163.280739,163.6010087875,60.0,92.0
576,163.5081495,163.66165158750002,57.0,74.0
577,163.9629705,164.22070240000002,57.0,79.0
578,164.190381,164.4026308,62.0,83.0
579,164.41779150000002,164.64709708750001,57.0,77.0
580,163.73556000000002,164.77406795000002,50.0,92.0
581,164.645202,164.853661625,62.0,83.0
582,164.8726125,165.111393525,57.0,71.0
583,164.645202,165.5074668125,65.0,91.0
584,165.3274335,165.535893125,57.0,65.0
585,165.10002300000002,165.56810961250002,62.0,76.0
586,165.78225450000002,166.009665,57.0,71.0
587,166.009665,166.2389705875,60.0,83.0
588,166.2370755,166.47206635,57.0,75.0
589,165.554844,166.55355511250002,50.0,92.0
590,166.46448600000002,166.7051621125,64.0,75.0
591,166.6918965,166.923097175,57.0,76.0
592,166.919307,167.07849435,72.0,82.0
593,166.919307,167.2282062625,62.0,76.0
594,167.14671750000002,167.26989818750002,57.0,71.0
595,167.6015385,167.8384244375,58.0,79.0
596,167.82894900000002,168.029828275,62.0,82.0
597,168.0563595,168.287560175,58.0,72.0
598,168.28377,168.514970675,62.0,81.0
599,168.28377,168.586984,65.0,86.0
600,168.51118050000002,168.749961525,58.0,87.0
601,167.374128,168.79354853750002,46.0,97.0
602,168.738591,169.06644113750002,62.0,70.0
603,168.9660015,169.19151691250002,58.0,65.0
604,169.4208225,169.65770843750002,58.0,76.0
605,169.648233,169.85479753750002,62.0,76.0
606,169.87564350000002,170.11063435,58.0,73.0
607,169.19341200000002,170.26792661250002,46.0,103.0
608,170.10305400000001,170.3153038,62.0,81.0
609,170.10305400000001,170.46312062500002,65.0,84.0
610,170.3304645,170.584406225,58.0,81.0
611,170.55787500000002,170.80802655000002,62.0,67.0
612,170.78528550000001,170.92931215000002,58.0,70.0
613,171.24010650000002,171.50541875000002,55.0,96.0
614,171.46751700000002,171.6892422375,58.0,87.0
615,171.6949275,171.94507905,55.0,83.0
616,171.922338,172.1213221875,58.0,87.0
617,172.14974850000002,172.3601032125,55.0,71.0
618,171.012696,172.479493725,43.0,103.0
619,171.922338,172.52687091250002,62.0,99.0
620,172.377159,172.75996667500002,58.0,83.0
621,172.6045695,172.78081263750002,55.0,70.0
622,173.0593905,173.1446694375,55.0,76.0
623,173.286801,173.502840975,60.0,95.0
624,173.51421150000002,173.61275605,55.0,84.0
625,173.741622,173.9368160125,60.0,82.0
626,173.741622,174.0599967,64.0,92.0
627,172.83198000000002,174.18317738750002,48.0,92.0
628,173.9690325,174.2286594875,55.0,77.0
629,174.19644300000002,174.46175525,60.0,83.0
630,174.4238535,174.4977619125,55.0,82.0
631,174.87867450000002,175.1193506125,57.0,85.0
632,175.106085,175.32591515000001,60.0,81.0
633,175.3334955,175.58364705000002,57.0,76.0
634,175.56090600000002,175.7883165,60.0,88.0
635,174.651264,175.83190351250002,45.0,110.0
636,175.56090600000002,175.860329825,64.0,89.0
637,175.7883165,176.0327827875,57.0,75.0
638,176.015727,176.38905923750002,60.0,79.0
639,176.24313750000002,176.4497020375,57.0,70.0
640,176.6979585,176.94621496250002,57.0,81.0
641,176.92536900000002,177.14330406250002,62.0,92.0
642,177.1527795,177.39535070000002,57.0,79.0
643,177.38019,177.57159383750002,62.0,84.0
644,177.38019,177.634131725,65.0,91.0
645,177.60760050000002,177.88807345,57.0,83.0
646,177.835011,178.0472608,62.0,91.0
647,176.470548,178.13064465000002,50.0,94.0
648,178.0624215,178.14959552500002,57.0,88.0
649,179.65429500000002,180.29862475000002,62.0,59.0
650,179.199474,180.5658320875,65.0,68.0
651,180.563937,180.5658320875,65.0,74.0
652,180.109116,180.94863976250002,69.0,72.0
653,181.01875800000002,181.51148075,64.0,70.0
654,181.01875800000002,181.51148075,64.0,75.0
655,180.563937,181.61192038750002,62.0,56.0
656,178.744653,181.856386675,57.0,64.0
657,181.473579,181.856386675,72.0,68.0
658,181.473579,181.856386675,72.0,73.0
659,178.28983200000002,181.89807860000002,50.0,86.0
660,182.838042,183.31560405000002,67.0,70.0
661,182.838042,183.3231844,64.0,63.0
662,181.9284,183.44067982500002,48.0,86.0
663,183.292863,183.66430015,60.0,54.0
664,182.38322100000002,183.8481236375,55.0,53.0
665,183.74768400000002,184.524669875,65.0,64.0
666,183.74768400000002,184.524669875,69.0,65.0
667,184.657326,185.4456824,65.0,60.0
668,184.657326,185.45326275000002,69.0,68.0
669,185.11214700000002,185.4930595875,62.0,44.0
670,183.74768400000002,185.566968,50.0,74.0
671,184.202505,185.566968,57.0,54.0
672,186.021789,186.60547595,58.0,57.0
673,186.47661000000002,187.33697972500002,62.0,61.0
674,187.386252,188.03058175,65.0,65.0
675,187.386252,188.14239191250002,62.0,53.0
676,186.931431,188.5706816875,58.0,52.0
677,185.566968,188.84736446250002,46.0,58.0
678,188.295894,189.2074310875,70.0,68.0
679,188.295894,189.232067225,62.0,59.0
680,189.20553600000002,189.232067225,62.0,73.0
681,188.295894,189.24154266250002,65.0,76.0
682,189.20553600000002,189.95788573750002,58.0,63.0
683,190.11517800000001,190.58326461250002,58.0,73.0
684,189.20553600000002,190.6325368875,43.0,65.0
685,189.660357,190.88837370000002,50.0,69.0
686,190.56999900000002,191.005869125,62.0,75.0
687,191.02482,191.703261325,60.0,60.0
688,191.02482,191.71652693750002,64.0,70.0
689,191.93446200000002,192.3873879125,62.0,74.0
690,191.02482,192.50488333750002,45.0,66.0
691,191.47964100000002,192.59774262500002,52.0,65.0
692,192.389283,192.779671025,64.0,77.0
693,193.753746,194.29763611250002,65.0,74.0
694,192.84410400000002,194.3658592625,50.0,87.0
695,193.29892500000003,194.71455536250002,57.0,65.0
696,194.20856700000002,195.47069527500003,69.0,71.0
697,195.57303000000002,196.0486969625,64.0,64.0
698,195.118209,196.41444885,57.0,64.0
699,194.663388,196.4618260375,48.0,85.0
700,195.118209,196.64943970000002,60.0,60.0
701,196.027851,196.6816561875,72.0,58.0
702,196.93749300000002,197.4359010125,50.0,74.0
703,197.61972450000002,198.8837478625,62.0,59.0
704,198.30195600000002,199.03914503750002,70.0,62.0
705,197.61972450000002,199.06757135,50.0,9.0
706,197.1649035,199.101682925,53.0,61.0
707,196.482672,199.30445728750001,46.0,76.0
708,199.211598,200.1970435,70.0,61.0
709,199.211598,200.2140992875,62.0,63.0
710,200.12124,200.2140992875,62.0,62.0
711,200.12124,200.92475710000002,58.0,60.0
712,201.03088200000002,201.6164640375,62.0,67.0
713,201.03088200000002,201.8287138375,58.0,60.0
714,201.485703,202.1849902875,55.0,43.0
715,201.940524,202.6549719875,62.0,68.0
716,201.940524,202.69855900000002,58.0,63.0
717,202.39534500000002,202.9998779125,55.0,55.0
718,202.850166,203.3182526125,62.0,74.0
719,200.12124,203.3409936625,43.0,69.0
720,202.850166,203.392161025,58.0,67.0
721,200.576061,203.6783192375,50.0,59.0
722,203.304987,203.6934799375,55.0,50.0
723,204.66945,205.06741837500002,65.0,85.0
724,203.75980800000002,205.188703975,45.0,67.0
725,204.214629,205.34220606250003,52.0,69.0
726,205.12427100000002,205.582882175,64.0,63.0
727,204.66945,205.598042875,57.0,64.0
728,205.579092,206.0642344,62.0,64.0
729,206.7161445,207.000407625,64.0,67.0
730,206.48873400000002,207.197496725,62.0,60.0
731,205.579092,207.273300225,50.0,81.0
732,206.943555,207.27519531250002,65.0,85.0
733,206.033913,207.2865658375,57.0,65.0
734,207.17096550000002,207.398376,69.0,85.0
735,207.6257865,208.023754875,57.0,61.0
736,207.85319700000002,208.1279846875,62.0,69.0
737,208.0806075,208.3478148375,57.0,80.0
738,208.308018,208.66429445,69.0,80.0
739,208.308018,208.7419930375,65.0,84.0
740,207.398376,208.903075475,50.0,64.0
741,208.762839,208.9542428375,57.0,58.0
742,208.53542850000002,208.98266915000002,62.0,58.0
743,208.9902495,209.22524035,69.0,52.0
744,208.9902495,209.3635817375,65.0,56.0
745,209.4450705,209.6876417,57.0,76.0
746,209.672481,209.96811465000002,60.0,80.0
747,209.89989150000002,210.1727841,57.0,80.0
748,209.21766000000002,210.51200476250003,50.0,100.0
749,210.3547125,210.79437280000002,57.0,79.0
750,210.12730200000001,211.0047275125,64.0,104.0
751,210.80953350000001,211.08621627500003,50.0,84.0
752,210.58212300000002,211.374269575,72.0,101.0
753,211.26435450000002,211.51640113750003,55.0,76.0
754,211.49176500000002,211.97690740000002,60.0,85.0
755,211.7191755,212.0223895,55.0,89.0
756,211.94658600000002,212.50184663750002,64.0,107.0
757,211.036944,212.62881750000003,48.0,94.0
758,212.17399650000002,212.64208311250002,55.0,56.0
759,212.401407,212.66671925,60.0,84.0
760,211.94658600000002,212.8012704625,67.0,106.0
761,212.62881750000003,212.95287746250003,64.0,78.0
762,213.0836385,213.34895075,57.0,84.0
763,213.31104900000003,213.64647948750002,62.0,88.0
764,213.53845950000002,213.7980864875,57.0,85.0
765,213.76587,214.1429924125,69.0,100.0
766,213.76587,214.24532713750003,65.0,104.0
767,212.85622800000002,214.27375345000002,50.0,89.0
768,214.22069100000002,214.51253447500002,62.0,84.0
769,213.99328050000003,214.595918325,57.0,93.0
770,214.4481015,214.770266375,65.0,83.0
771,214.90292250000002,215.13980843750002,53.0,80.0
772,215.130333,215.5605178625,58.0,96.0
773,215.35774350000003,215.69696416250002,53.0,84.0
774,214.67551200000003,215.884577825,46.0,97.0
775,215.8125645,215.952800975,58.0,84.0
776,215.58515400000002,216.08924727500002,62.0,94.0
777,216.03997500000003,216.24464445,53.0,84.0
778,216.26738550000002,216.44931390000002,62.0,37.0
779,215.58515400000002,216.6028159875,65.0,96.0
780,216.26738550000002,216.6331373875,58.0,86.0
781,216.72220650000003,216.96667278750002,53.0,80.0
782,216.94961700000002,217.43665448750002,58.0,101.0
783,217.1770275,217.4783464125,53.0,88.0
784,217.404438,217.8744197,62.0,94.0
785,217.63184850000002,217.91232145,53.0,80.0
786,216.494796,217.95969863750003,46.0,98.0
787,217.859259,218.24396176250002,58.0,84.0
788,217.404438,218.2553322875,65.0,97.0
789,218.0866695,218.35387683750002,53.0,89.0
790,218.5414905,218.8086978375,55.0,91.0
791,218.768901,219.16307920000003,60.0,84.0
792,218.99631150000002,219.30331567500002,55.0,85.0
793,218.31408000000002,219.6179002,48.0,88.0
794,219.4511325,219.86047140000002,55.0,80.0
795,219.9059535,219.955225775,48.0,84.0
796,219.223722,220.1011475125,64.0,107.0
797,219.67854300000002,220.1182033,60.0,76.0
798,219.223722,220.152314875,67.0,109.0
799,220.36077450000002,220.65072288750002,53.0,86.0
800,220.588185,221.02405512500002,57.0,97.0
801,220.8155955,221.13397020000002,53.0,98.0
802,221.04300600000002,221.357590525,60.0,109.0
803,221.04300600000002,221.40496771250002,65.0,107.0
804,221.2704165,221.478876125,53.0,76.0
805,220.133364,221.63995856250003,41.0,87.0
806,221.497827,221.7195522375,57.0,91.0
807,221.72523750000002,221.79346065000001,53.0,97.0
808,221.497827,221.8635788875,60.0,84.0
809,221.497827,221.971598875,64.0,101.0
810,222.1800585,222.4321051375,53.0,84.0
811,222.40746900000002,222.7428994875,58.0,88.0
812,222.6348795,222.93051315000002,53.0,84.0
813,222.86229,223.09349067500003,58.0,98.0
814,223.08970050000002,223.30384538750002,53.0,92.0
815,221.952648,223.55778711250002,46.0,104.0
816,223.5445215,223.620325,53.0,85.0
817,222.86229,223.78709270000002,62.0,110.0
818,223.317111,223.98607688750002,58.0,76.0
819,223.9993425,224.23622843750002,53.0,89.0
820,224.226753,224.47690455,60.0,97.0
821,224.45416350000002,224.7365315375,53.0,91.0
822,224.681574,224.9336206375,64.0,102.0
823,223.77193200000002,224.96204695,46.0,104.0
824,224.9089845,225.2330444625,53.0,105.0
825,225.3638055,225.43202865,50.0,85.0
826,225.13639500000002,225.51541250000002,72.0,109.0
827,225.81862650000002,226.06877805000002,53.0,91.0
828,226.046037,226.31892960000002,58.0,102.0
829,226.2734475,226.5444450125,53.0,96.0
830,226.50085800000002,226.72068815,58.0,105.0
831,226.50085800000002,226.78701621250002,65.0,107.0
832,226.50085800000002,226.82112778750002,62.0,105.0
833,226.7282685,226.99926601250002,53.0,98.0
834,225.591216,227.25131265000002,46.0,102.0
835,227.18308950000002,227.31195545000003,53.0,79.0
836,227.6379105,227.92217362500003,53.0,80.0
837,228.0927315,228.42058163750002,53.0,82.0
838,227.86532100000002,228.42058163750002,58.0,101.0
839,227.4105,228.71053002500003,46.0,102.0
840,228.54755250000002,228.9284650875,53.0,84.0
841,229.0023735,229.074386825,46.0,84.0
842,228.320142,229.21272821250002,62.0,101.0
843,228.320142,229.2165183875,65.0,103.0
844,228.774963,229.28474153750003,58.0,96.0
845,229.4571945,229.69597552500002,50.0,85.0
846,229.684605,230.0048747875,55.0,100.0
847,229.91201550000002,230.1849081,50.0,94.0
848,229.22978400000002,230.4938073625,43.0,107.0
849,230.3668365,230.66626032500002,50.0,96.0
850,230.82165750000001,230.91641187500002,50.0,73.0
851,230.13942600000001,231.11160588750002,62.0,107.0
852,230.59424700000002,231.1419272875,55.0,96.0
853,230.13942600000001,231.1760388625,58.0,112.0
854,231.27647850000002,231.52473496250002,50.0,89.0
855,231.7312995,232.01177245000002,50.0,91.0
856,231.50388900000002,232.02693315000002,55.0,97.0
857,231.049068,232.3093011875,43.0,105.0
858,232.18612050000002,232.53292151250002,50.0,94.0
859,232.64094150000003,232.70726956250002,43.0,89.0
860,232.413531,232.7773878,64.0,104.0
861,232.413531,232.81907972500002,55.0,89.0
862,231.95871000000002,232.87403726250002,60.0,109.0
863,233.0957625,233.6169115625,52.0,86.0
864,233.32317300000003,233.68134453750002,57.0,96.0
865,233.777994,233.918230475,52.0,107.0
866,234.00540450000003,234.18543781250003,52.0,108.0
867,232.86835200000002,234.45454023750003,45.0,109.0
868,234.4602255,234.50381251250002,52.0,96.0
869,234.23281500000002,234.57393075000002,57.0,88.0
870,233.777994,234.62888828750002,64.0,116.0
871,233.777994,234.653524425,60.0,121.0
872,234.91504650000002,235.1936243625,57.0,98.0
873,235.142457,235.41724468750002,62.0,111.0
874,235.36986750000003,235.6294944875,64.0,102.0
875,235.59727800000002,235.7886818375,65.0,109.0
876,235.8246885,235.92133796250002,69.0,95.0
877,234.68763600000003,236.08431548750002,50.0,116.0
878,235.59727800000002,236.09000075,57.0,104.0
879,236.05209900000003,236.22834213750002,72.0,103.0
880,235.59727800000002,236.34773265,62.0,108.0
881,236.27950950000002,236.4178508875,50.0,102.0
882,236.73433050000003,237.132298875,57.0,78.0
883,236.96174100000002,237.23652868750003,62.0,86.0
884,237.1891515,237.4563588375,57.0,97.0
885,237.41656200000003,237.77283845000002,69.0,97.0
886,237.41656200000003,237.8505370375,65.0,101.0
887,236.50692,238.011619475,50.0,81.0
888,237.871383,238.06278683750003,57.0,75.0
889,237.64397250000002,238.09121315000002,62.0,75.0
890,238.09879350000003,238.33378435,69.0,69.0
891,238.09879350000003,238.47212573750002,65.0,73.0
892,238.5536145,238.79618570000002,57.0,76.0
893,238.78102500000003,239.07665865,60.0,80.0
894,239.00843550000002,239.28132810000002,57.0,80.0
895,238.32620400000002,239.62054876250002,50.0,85.0
896,239.46325650000003,239.9029168,57.0,79.0
897,239.235846,240.1132715125,64.0,104.0
898,239.9180775,240.19476027500002,50.0,84.0
899,239.69066700000002,240.48281357500002,72.0,101.0
900,240.37289850000002,240.62494513750002,55.0,76.0
901,240.600309,241.0854514,60.0,85.0
902,240.8277195,241.13093350000003,55.0,89.0
903,241.05513000000002,241.61039063750002,64.0,107.0
904,240.145488,241.73736150000002,48.0,94.0
905,241.2825405,241.7506271125,55.0,56.0
906,241.509951,241.77526325000002,60.0,84.0
907,241.05513000000002,241.9098144625,67.0,106.0
908,241.73736150000002,242.06142146250002,64.0,78.0
909,242.1921825,242.45749475000002,57.0,84.0
910,242.41959300000002,242.7550234875,62.0,88.0
911,242.6470035,242.90663048750002,57.0,85.0
912,242.874414,243.2515364125,69.0,100.0
913,242.874414,243.35387113750002,65.0,104.0
914,241.964772,243.38229745,50.0,89.0
915,243.329235,243.62107847500002,62.0,84.0
916,243.10182450000002,243.704462325,57.0,93.0
917,243.5566455,243.878810375,65.0,83.0
918,244.0114665,244.24835243750002,53.0,80.0
919,244.238877,244.6690618625,58.0,96.0
920,244.46628750000002,244.80550816250002,53.0,84.0
921,243.78405600000002,244.993121825,46.0,97.0
922,244.9211085,245.06134497500003,58.0,84.0
923,244.693698,245.19779127500001,62.0,94.0
924,245.14851900000002,245.35318845,53.0,84.0
925,245.3759295,245.55785790000002,62.0,37.0
926,244.693698,245.7113599875,65.0,96.0
927,245.3759295,245.74168138750002,58.0,86.0
928,245.83075050000002,246.0752167875,53.0,80.0
929,246.058161,246.54519848750002,58.0,101.0
930,246.2855715,246.58689041250003,53.0,88.0
931,246.51298200000002,246.98296370000003,62.0,94.0
932,246.7403925,247.02086545,53.0,80.0
933,245.60334,247.06824263750002,46.0,98.0
934,246.967803,247.35250576250002,58.0,84.0
935,246.51298200000002,247.3638762875,65.0,97.0
936,247.19521350000002,247.46242083750002,53.0,89.0
937,247.6500345,247.91724183750003,55.0,91.0
938,247.87744500000002,248.27162320000002,60.0,84.0
939,248.1048555,248.41185967500002,55.0,85.0
940,247.422624,248.7264442,48.0,88.0
941,248.55967650000002,248.96901540000002,55.0,80.0
942,249.0144975,249.06376977500003,48.0,84.0
943,248.332266,249.2096915125,64.0,107.0
944,248.787087,249.22674730000003,60.0,76.0
945,248.332266,249.26085887500003,67.0,109.0
946,249.4693185,249.75926688750002,53.0,86.0
947,249.696729,250.132599125,57.0,97.0
948,249.92413950000002,250.24251420000002,53.0,98.0
949,250.15155000000001,250.466134525,60.0,109.0
950,250.15155000000001,250.51351171250002,65.0,107.0
951,250.3789605,250.58742012500002,53.0,76.0
952,249.24190800000002,250.74850256250002,41.0,104.0
953,250.60637100000002,250.8280962375,57.0,91.0
954,250.83378150000001,250.90200465,53.0,97.0
955,250.60637100000002,250.9721228875,60.0,84.0
956,250.60637100000002,251.080142875,64.0,101.0
957,251.28860250000002,251.54064913750003,53.0,84.0
958,251.51601300000002,251.8514434875,58.0,88.0
959,251.7434235,252.03905715000002,53.0,84.0
960,251.97083400000002,252.20203467500002,58.0,98.0
961,252.19824450000002,252.4123893875,53.0,92.0
962,251.061192,252.66633111250002,46.0,104.0
963,252.65306550000003,252.728869,53.0,85.0
964,251.97083400000002,252.8956367,62.0,110.0
965,252.425655,253.0946208875,58.0,76.0
966,253.1078865,253.3447724375,53.0,89.0
967,253.33529700000003,253.58544855000002,60.0,97.0
968,253.56270750000002,253.8450755375,53.0,91.0
969,253.790118,254.0421646375,64.0,102.0
970,252.88047600000002,254.07059095000002,46.0,104.0
971,254.01752850000003,254.34158846250003,53.0,105.0
972,254.4723495,254.54057265,50.0,85.0
973,254.24493900000002,254.62395650000002,72.0,109.0
974,254.92717050000002,255.17732205000001,53.0,91.0
975,255.154581,255.4274736,58.0,102.0
976,255.38199150000003,255.65298901250003,53.0,96.0
977,255.60940200000002,255.82923215000002,58.0,105.0
978,255.60940200000002,255.89556021250002,65.0,107.0
979,255.60940200000002,255.9296717875,62.0,105.0
980,255.8368125,256.1078100125,53.0,98.0
981,254.69976000000003,256.35985665000004,46.0,102.0
982,256.2916335,256.42049945,53.0,79.0
983,256.7464545,257.030717625,53.0,80.0
984,257.2012755,257.5291256375,53.0,82.0
985,256.973865,257.5291256375,58.0,101.0
986,256.519044,257.819074025,46.0,102.0
987,257.6560965,258.0370090875,53.0,84.0
988,258.1109175,258.182930825,46.0,84.0
989,257.428686,258.3212722125,62.0,101.0
990,257.428686,258.3250623875,65.0,103.0
991,257.883507,258.3932855375,58.0,96.0
992,258.5657385,258.804519525,50.0,85.0
993,258.793149,259.1134187875,55.0,100.0
994,259.0205595,259.2934521,50.0,94.0
995,258.338328,259.60235136250003,43.0,107.0
996,259.4753805,259.774804325,50.0,96.0
997,259.9302015,260.024955875,50.0,73.0
998,259.24797,260.22014988750004,62.0,107.0
999,259.702791,260.25047128750003,55.0,96.0
1000,259.24797,260.28458286250003,58.0,112.0
1001,260.3850225,260.6332789625,50.0,89.0
1002,260.83984350000003,261.12031645,50.0,91.0
1003,260.612433,261.13547715000004,55.0,97.0
1004,260.15761200000003,261.4178451875,43.0,105.0
1005,261.2946645,261.6414655125,50.0,94.0
1006,261.7494855,261.8158135625,43.0,89.0
1007,261.52207500000003,261.88593180000004,64.0,104.0
1008,261.52207500000003,261.927623725,55.0,89.0
1009,261.067254,261.9825812625,60.0,109.0
1010,262.20430650000003,262.72545556250003,52.0,86.0
1011,262.6591275,262.72545556250003,52.0,107.0
1012,262.431717,262.7898885375,57.0,96.0
1013,263.1139485,263.44937898750004,52.0,108.0
1014,261.976896,263.5630842375,45.0,109.0
1015,263.56876950000003,263.76775368750003,52.0,96.0
1016,263.341359,263.837871925,57.0,88.0
1017,262.88653800000003,263.8928294625,64.0,116.0
1018,262.88653800000003,263.9174656,60.0,121.0
1019,264.0235905,264.3021683625,57.0,98.0
1020,264.25100100000003,264.52578868750004,62.0,111.0
1021,264.4784115,264.73803848750003,64.0,102.0
1022,264.705822,264.8972258375,65.0,109.0
1023,264.93323250000003,265.02988196250004,69.0,95.0
1024,263.79618,265.1928594875,50.0,116.0
1025,264.705822,265.19854475,57.0,104.0
1026,265.160643,265.3368861375,72.0,103.0
1027,264.705822,265.45627665,62.0,108.0
1028,265.3880535,265.52639488750003,50.0,102.0
1029,265.61546400000003,266.01722255000004,62.0,59.0
1030,265.61546400000003,266.09302605,58.0,64.0
1031,266.29769550000003,266.50046986250004,55.0,40.0
1032,265.61546400000003,266.56869301250003,43.0,77.0
1033,266.525106,267.2698753875,62.0,79.0
1034,266.525106,267.279350825,58.0,65.0
1035,266.97992700000003,267.5541385125,55.0,41.0
1036,267.434748,268.10939915,62.0,83.0
1037,267.434748,268.13593037500004,58.0,67.0
1038,267.889569,268.3500752625,55.0,50.0
1039,268.34439000000003,268.7745748625,62.0,75.0
1040,268.34439000000003,268.8390078375,58.0,74.0
1041,268.799211,269.18770393750003,55.0,57.0
1042,269.254032,270.0329129625,60.0,63.0
1043,269.254032,270.0329129625,64.0,67.0
1044,269.254032,270.65829183750003,45.0,67.0
1045,270.163674,270.6848230625,64.0,76.0
1046,270.618495,271.054365125,57.0,59.0
1047,270.163674,271.092266875,60.0,73.0
1048,269.70885300000003,271.09605705,52.0,56.0
1049,271.07331600000003,271.8768331,62.0,60.0
1050,271.07331600000003,271.8768331,65.0,70.0
1051,271.982958,272.3013327,62.0,71.0
1052,271.982958,272.32407375,65.0,75.0
1053,272.43777900000003,272.570435125,62.0,66.0
1054,272.6651895,272.81869158750004,65.0,73.0
1055,271.07331600000003,272.8926,50.0,64.0
1056,272.8926,273.20907961250003,57.0,67.0
1057,273.12001050000003,273.37395222500004,62.0,62.0
1058,273.347421,273.58999220000004,64.0,65.0
1059,273.5748315,273.8628848,65.0,77.0
1060,273.80224200000004,274.46362753750003,67.0,86.0
1061,274.257063,274.60765418750003,69.0,64.0
1062,274.7630513625,275.65942775,69.0,67.0
1063,274.711884,275.6726933625,65.0,52.0
1064,274.6266050625,275.890628425,62.0,61.0
1065,274.863491,276.1047733125,74.0,77.0
