,start,end,pitch,velocity
0,21.89375,21.995833333333334,76.0,75.0
1,22.14375,22.235416666666666,76.0,75.0
2,22.39375,22.489583333333332,76.0,75.0
3,22.64375,22.74375,76.0,75.0
4,22.89375,22.98125,76.0,75.0
5,23.14375,23.372916666666665,76.0,75.0
6,23.39375,23.58125,71.0,75.0
7,23.89375,23.985416666666666,78.0,75.0
8,23.64375,24.00208333333333,80.0,75.0
9,24.14375,24.227083333333333,78.0,75.0
10,24.14375,24.227083333333333,78.0,75.0
11,24.39375,24.666666666666668,76.0,75.0
12,24.64375,25.254166666666666,80.0,75.0
13,25.89375,25.985416666666666,76.0,75.0
14,26.14375,26.233333333333334,76.0,75.0
15,26.39375,26.477083333333333,76.0,75.0
16,26.64375,26.777083333333334,76.0,75.0
17,26.89375,27.016666666666666,71.0,75.0
18,27.14375,27.520833333333332,71.0,75.0
19,27.64375,28.014583333333334,80.0,75.0
20,27.89375,28.154166666666665,78.0,75.0
21,28.14375,28.441666666666666,73.0,75.0
22,28.39375,29.227083333333333,76.0,75.0
23,29.14375,29.41875,78.0,75.0
24,29.39375,29.539583333333333,76.0,75.0
25,29.64375,29.864583333333332,78.0,75.0
26,29.89375,30.327083333333334,76.0,75.0
27,30.39375,30.58125,76.0,75.0
28,30.64375,30.89375,80.0,75.0
29,30.89375,31.183333333333334,78.0,75.0
30,31.14375,31.372916666666665,76.0,75.0
31,31.39375,31.729166666666668,73.0,75.0
32,32.64375,32.91041666666666,73.0,75.0
33,32.89375,33.15416666666667,71.0,75.0
34,33.14375,33.40208333333333,73.0,75.0
35,33.39375,33.54375,71.0,75.0
36,33.64375,33.90208333333333,80.0,76.0
37,33.89375,34.020833333333336,78.0,77.0
38,34.14375,34.364583333333336,78.0,77.0
39,34.39375,34.53333333333333,76.0,77.0
40,34.64375,34.90625,80.0,77.0
41,34.89375,35.139583333333334,78.0,77.0
42,35.14375,35.360416666666666,76.0,77.0
43,35.39375,36.3375,78.0,77.0
44,37.89375,37.99583333333333,76.0,77.0
45,38.14375,38.235416666666666,76.0,77.0
46,38.39375,38.489583333333336,76.0,77.0
47,38.64375,38.74375,76.0,77.0
48,38.89375,38.98125,76.0,77.0
49,39.14375,39.37291666666667,76.0,78.0
50,39.39375,39.58125,71.0,78.0
51,39.89375,39.985416666666666,78.0,78.0
52,39.64375,40.00208333333333,80.0,78.0
53,40.14375,40.22708333333333,78.0,78.0
54,40.14375,40.22708333333333,78.0,78.0
55,40.39375,40.666666666666664,76.0,79.0
56,40.64375,41.25416666666666,80.0,79.0
57,41.89375,41.985416666666666,76.0,79.0
58,42.14375,42.233333333333334,76.0,79.0
59,42.39375,42.47708333333333,76.0,79.0
60,42.64375,42.77708333333333,76.0,79.0
61,42.89375,43.016666666666666,71.0,79.0
62,43.14375,43.520833333333336,71.0,79.0
63,43.64375,44.014583333333334,80.0,79.0
64,43.89375,44.15416666666667,78.0,79.0
65,44.14375,44.44166666666666,73.0,79.0
66,44.39375,45.22708333333333,76.0,79.0
67,45.14375,45.41875,78.0,79.0
68,45.39375,45.53958333333333,76.0,79.0
69,45.64375,45.864583333333336,78.0,79.0
70,45.89375,46.327083333333334,76.0,79.0
71,46.39375,46.58125,76.0,78.0
72,46.64375,46.89375,80.0,78.0
73,46.89375,47.18333333333333,78.0,78.0
74,47.14375,47.37291666666667,76.0,78.0
75,47.39375,47.729166666666664,73.0,78.0
76,48.64375,48.91041666666666,73.0,76.0
77,48.89375,49.15416666666667,71.0,76.0
78,49.14375,49.40208333333333,73.0,76.0
79,49.39375,49.54375,71.0,76.0
80,49.64375,49.90208333333333,80.0,76.0
81,49.89375,50.020833333333336,78.0,75.0
82,50.14375,50.364583333333336,78.0,75.0
83,50.39375,50.53333333333333,76.0,75.0
84,50.64375,50.93541666666667,76.0,75.0
85,50.89375,51.175,73.0,75.0
86,51.14375,51.3375,80.0,75.0
87,51.39375,52.704166666666666,78.0,75.0
88,53.64375,54.19583333333333,80.0,74.0
89,54.14375,54.266666666666666,78.0,74.0
90,54.39375,54.5,78.0,74.0
91,54.64375,54.89375,76.0,74.0
92,55.14375,55.3125,73.0,74.0
93,55.39375,57.72291666666666,76.0,74.0
94,59.14375,59.44583333333333,80.0,74.0
95,59.39375,59.56666666666666,83.0,74.0
96,59.64375,60.00416666666666,85.0,74.0
97,60.14375,60.24791666666667,83.0,74.0
98,60.39375,60.50625,83.0,74.0
99,60.64375,60.889583333333334,83.0,74.0
100,60.89375,61.074999999999996,80.0,74.0
101,61.14375,61.42916666666667,83.0,74.0
102,61.39375,61.59791666666666,80.0,74.0
103,61.64375,61.95625,78.0,74.0
104,61.89375,62.208333333333336,83.0,74.0
105,62.39375,62.895833333333336,80.0,74.0
106,63.14375,63.40208333333333,80.0,74.0
107,63.39375,63.543749999999996,83.0,74.0
108,63.64375,63.985416666666666,85.0,74.0
109,64.14375,64.25,83.0,74.0
110,64.39375,64.56458333333333,83.0,74.0
111,64.64375,64.98125,80.0,74.0
112,65.14375,65.37291666666667,83.0,74.0
113,65.39375,66.7875,80.0,74.0
114,67.14375,67.37916666666666,80.0,74.0
115,67.39375,67.52291666666666,78.0,74.0
116,67.64375,67.9625,80.0,74.0
117,68.14375,68.42916666666666,78.0,74.0
118,68.64375,68.91875,78.0,74.0
119,68.89375,69.22291666666666,76.0,74.0
120,69.39375,69.725,73.0,74.0
121,69.64375,70.19166666666666,76.0,74.0
122,70.375,71.01041666666667,73.0,74.0
123,71.14375,71.46875,73.0,74.0
124,71.39375,71.63958333333333,71.0,74.0
125,71.64375,72.15833333333333,80.0,74.0
126,72.39375,72.67916666666666,78.0,74.0
127,72.64375,72.89791666666666,76.0,74.0
128,72.89375,73.04375,73.0,74.0
129,73.14375,73.31666666666666,80.0,74.0
130,73.39375,73.76041666666667,78.0,74.0
131,75.14375,75.44583333333333,80.0,74.0
132,75.39375,75.56666666666666,83.0,74.0
133,75.64375,76.00416666666666,85.0,74.0
134,76.14375,76.24791666666667,83.0,74.0
135,76.39375,76.50625,83.0,74.0
136,76.64375,76.88958333333333,83.0,74.0
137,76.89375,77.075,80.0,74.0
138,77.14375,77.42916666666666,83.0,74.0
139,77.39375,77.59791666666666,80.0,74.0
140,77.64375,77.95625,78.0,74.0
141,77.89375,78.20833333333333,83.0,74.0
142,78.39375,78.89583333333333,80.0,74.0
143,79.14375,79.40208333333334,80.0,74.0
144,79.39375,79.54375,83.0,74.0
145,79.64375,79.98541666666667,85.0,74.0
146,80.14375,80.25,83.0,74.0
147,80.39375,80.56458333333333,83.0,74.0
148,80.64375,80.98125,80.0,74.0
149,81.14375,81.37291666666667,83.0,74.0
150,81.39375,82.7875,80.0,74.0
151,83.14375,83.37916666666666,80.0,74.0
152,83.39375,83.52291666666666,78.0,74.0
153,83.64375,83.9625,80.0,74.0
154,84.14375,84.42916666666666,78.0,74.0
155,84.64375,84.91875,78.0,74.0
156,84.98958333333333,85.31875,76.0,74.0
157,85.39375,85.725,73.0,74.0
158,85.64375,86.19166666666666,76.0,74.0
159,86.375,87.01041666666667,73.0,74.0
160,87.14375,87.46875,73.0,74.0
161,87.39375,87.63958333333333,71.0,74.0
162,87.64375,88.15833333333333,80.0,74.0
163,88.39375,88.67916666666666,78.0,74.0
164,88.64375,88.89791666666666,76.0,74.0
165,88.89375,89.04375,73.0,74.0
166,89.64375,90.45625,80.0,75.0
167,90.39375,90.57708333333333,78.0,76.0
168,90.64375,91.16458333333333,76.0,76.0
169,91.14375,91.50208333333333,73.0,76.0
170,91.64375,93.75,76.0,76.0
171,95.89375,95.99583333333334,76.0,78.0
172,96.14375,96.23541666666667,76.0,78.0
173,96.39375,96.48958333333333,76.0,78.0
174,96.64375,96.74375,76.0,78.0
175,96.89375,96.98125,76.0,78.0
176,97.14375,97.37291666666667,76.0,79.0
177,97.39375,97.58125,71.0,79.0
178,97.89375,97.98541666666667,78.0,79.0
179,97.64375,98.00208333333333,80.0,79.0
180,98.14375,98.22708333333333,78.0,79.0
181,98.14375,98.22708333333333,78.0,79.0
182,98.39375,98.66666666666667,76.0,79.0
183,98.64375,99.25416666666666,80.0,79.0
184,99.89375,99.98541666666667,76.0,81.0
185,100.14375,100.23333333333333,76.0,82.0
186,100.39375,100.47708333333333,76.0,82.0
187,100.64375,100.77708333333334,76.0,82.0
188,100.89375,101.01666666666667,71.0,83.0
189,101.14375,101.52083333333333,71.0,83.0
190,101.64375,102.01458333333333,80.0,83.0
191,101.89375,102.15416666666667,78.0,83.0
192,102.14375,102.44166666666666,73.0,83.0
193,102.39375,103.22708333333333,76.0,83.0
194,103.14375,103.41875,78.0,83.0
195,103.39375,103.53958333333333,76.0,83.0
196,103.64375,103.86458333333333,78.0,83.0
197,103.89375,104.32708333333333,76.0,83.0
198,104.39375,104.58125,76.0,84.0
199,104.64375,104.89375,80.0,84.0
200,104.89375,105.18333333333334,78.0,84.0
201,105.14375,105.37291666666667,76.0,84.0
202,105.39375,105.72916666666667,73.0,84.0
203,106.64375,106.91041666666666,73.0,85.0
204,106.89375,107.15416666666667,71.0,85.0
205,107.14375,107.40208333333334,73.0,85.0
206,107.39375,107.54375,71.0,85.0
207,107.64375,107.90208333333334,80.0,85.0
208,107.89375,108.02083333333333,78.0,85.0
209,108.14375,108.36458333333333,78.0,85.0
210,108.39375,108.53333333333333,76.0,85.0
211,108.64375,108.93541666666667,76.0,85.0
212,108.89375,109.175,73.0,85.0
213,109.14375,109.33749999999999,80.0,85.0
214,109.39375,110.70416666666667,78.0,85.0
215,111.64375,112.19583333333333,80.0,85.0
216,112.14375,112.26666666666667,78.0,85.0
217,112.39375,112.5,78.0,85.0
218,112.64375,112.89375,76.0,85.0
219,113.14375,113.3125,73.0,85.0
220,113.39375,115.72291666666666,76.0,85.0
221,117.14375,117.44583333333333,80.0,84.0
222,117.39375,117.56666666666666,83.0,84.0
223,117.64375,118.00416666666666,85.0,84.0
224,118.14375,118.24791666666667,83.0,84.0
225,118.39375,118.50625,83.0,84.0
226,118.64375,118.88958333333333,83.0,84.0
227,118.89375,119.075,80.0,84.0
228,119.14375,119.42916666666666,83.0,84.0
229,119.39375,119.59791666666666,80.0,84.0
230,119.64375,119.95625,78.0,84.0
231,119.89375,120.20833333333333,83.0,84.0
232,120.39375,120.89583333333333,80.0,83.0
233,121.14375,121.40208333333334,80.0,82.0
234,121.39375,121.54375,83.0,81.0
235,121.64375,121.98541666666667,85.0,81.0
236,122.14375,122.25,83.0,81.0
237,122.39375,122.56458333333333,83.0,80.0
238,122.64375,122.98125,80.0,80.0
239,123.14375,123.37291666666667,83.0,80.0
240,123.39375,124.7875,80.0,80.0
241,125.14375,125.37916666666666,80.0,79.0
242,125.39375,125.52291666666666,78.0,79.0
243,125.64375,125.96249999999999,80.0,79.0
244,126.14375,126.42916666666666,78.0,79.0
245,126.64375,126.91875,78.0,79.0
246,126.89375,127.22291666666666,76.0,79.0
247,127.39375,127.725,73.0,79.0
248,127.64375,128.19166666666666,76.0,79.0
249,128.375,129.01041666666666,73.0,79.0
250,129.14375,129.46875,73.0,79.0
251,129.39375,129.63958333333332,71.0,79.0
252,129.64375,130.15833333333333,80.0,79.0
253,130.39375,130.67916666666667,78.0,80.0
254,130.64375,130.89791666666667,76.0,80.0
255,130.89375,131.04375,73.0,80.0
256,131.14375,131.31666666666666,80.0,81.0
257,131.39375,131.76041666666666,78.0,82.0
258,133.14375,133.44583333333333,80.0,83.0
259,133.39375,133.56666666666666,83.0,83.0
260,133.64375,134.00416666666666,85.0,83.0
261,134.14375,134.24791666666667,83.0,83.0
262,134.39375,134.50625,83.0,83.0
263,134.64375,134.88958333333332,83.0,83.0
264,134.89375,135.075,80.0,83.0
265,135.14375,135.42916666666667,83.0,83.0
266,135.39375,135.59791666666666,80.0,84.0
267,135.64375,135.95625,78.0,84.0
268,135.89375,136.20833333333334,83.0,84.0
269,136.39375,136.89583333333334,80.0,84.0
270,137.14375,137.40208333333334,80.0,84.0
271,137.39375,137.54375,83.0,84.0
272,137.64375,137.98541666666665,85.0,84.0
273,138.14375,138.25,83.0,84.0
274,138.39375,138.56458333333333,83.0,84.0
275,138.64375,138.98125,80.0,84.0
276,139.14375,139.37291666666667,83.0,84.0
277,139.39375,140.7875,80.0,84.0
278,141.14375,141.37916666666666,80.0,84.0
279,141.39375,141.52291666666667,78.0,84.0
280,141.64375,141.9625,80.0,84.0
281,142.14375,142.42916666666667,78.0,83.0
282,142.64375,142.91875,78.0,82.0
283,142.98958333333334,143.31875,76.0,82.0
284,143.39375,143.725,73.0,81.0
285,143.64375,144.19166666666666,76.0,81.0
286,144.375,145.01041666666666,73.0,80.0
287,145.14375,145.46875,73.0,79.0
288,145.39375,145.63958333333332,71.0,79.0
289,145.64375,146.15833333333333,80.0,79.0
290,146.39375,146.67916666666667,78.0,78.0
291,146.64375,146.89791666666667,76.0,78.0
292,146.89375,147.04375,73.0,78.0
293,147.64375,148.45625,80.0,77.0
294,148.39375,148.57708333333332,78.0,76.0
295,148.64375,149.16458333333333,76.0,76.0
296,149.14375,149.50208333333333,73.0,76.0
297,149.64375,151.75,76.0,75.0
298,153.64375,154.14791666666667,81.0,76.0
299,154.14375,154.70416666666665,80.0,76.0
300,154.64375,155.24166666666667,78.0,76.0
301,155.14375,155.29791666666665,76.0,79.0
302,155.39375,155.79791666666665,81.0,80.0
303,156.14375,156.225,80.0,80.0
304,156.39375,156.53541666666666,80.0,80.0
305,156.64375,156.85,78.0,80.0
306,156.89375,157.51458333333332,80.0,80.0
307,157.64375,159.45,76.0,80.0
308,160.89375,161.07291666666666,78.0,80.0
309,161.14375,161.42708333333334,80.0,80.0
310,161.39375,161.64791666666667,76.0,80.0
311,161.64375,162.09166666666667,81.0,80.0
312,162.14375,162.68541666666667,80.0,81.0
313,162.64375,163.10416666666666,78.0,82.0
314,163.14375,163.2875,76.0,82.0
315,163.39375,163.95416666666665,81.0,83.0
316,164.14375,164.50833333333333,80.0,83.0
317,164.64375,165.07083333333333,78.0,83.0
318,164.89375,165.31666666666666,80.0,83.0
319,165.64375,167.64375,81.0,83.0
320,167.64375,170.64166666666665,83.0,83.0
321,171.14375,171.44583333333333,80.0,85.0
322,171.39375,171.56666666666666,83.0,85.0
323,171.64375,172.00416666666666,85.0,86.0
324,172.14375,172.24791666666667,83.0,86.0
325,172.39375,172.50625,83.0,87.0
326,172.64375,172.88958333333332,83.0,88.0
327,172.89375,173.075,80.0,87.0
328,173.14375,173.42916666666667,83.0,88.0
329,173.39375,173.59791666666666,80.0,88.0
330,173.64375,173.95625,78.0,89.0
331,173.89375,174.20833333333334,83.0,89.0
332,174.39375,174.89583333333334,80.0,89.0
333,175.14375,175.40208333333334,80.0,90.0
334,175.39375,175.54375,83.0,90.0
335,175.64375,175.98541666666665,85.0,90.0
336,176.14375,176.25,83.0,90.0
337,176.39375,176.56458333333333,83.0,91.0
338,176.64375,176.98125,80.0,91.0
339,177.14375,177.37291666666667,83.0,91.0
340,177.39375,178.7875,80.0,92.0
341,179.14375,179.37916666666666,80.0,92.0
342,179.39375,179.52291666666667,78.0,92.0
343,179.64375,179.9625,80.0,92.0
344,180.14375,180.42916666666667,78.0,92.0
345,180.64375,180.91875,78.0,92.0
346,180.89375,181.22291666666666,76.0,92.0
347,181.39375,181.725,73.0,92.0
348,181.64375,182.19166666666666,76.0,92.0
349,182.375,183.01041666666666,73.0,91.0
350,183.14375,183.46875,73.0,91.0
351,183.39375,183.63958333333332,71.0,91.0
352,183.64375,184.15833333333333,80.0,91.0
353,184.39375,184.67916666666667,78.0,91.0
354,184.64375,184.89791666666667,76.0,91.0
355,184.89375,185.04375,73.0,91.0
356,185.14375,185.31666666666666,80.0,91.0
357,185.39375,185.76041666666666,78.0,91.0
358,187.14375,187.44583333333333,80.0,89.0
359,187.39375,187.56666666666666,83.0,89.0
360,187.64375,188.00416666666666,85.0,89.0
361,188.14375,188.24791666666667,83.0,88.0
362,188.39375,188.50625,83.0,88.0
363,188.64375,188.88958333333332,83.0,88.0
364,188.89375,189.075,80.0,88.0
365,189.14375,189.42916666666667,83.0,88.0
366,189.39375,189.59791666666666,80.0,88.0
367,189.64375,189.95625,78.0,88.0
368,189.89375,190.20833333333334,83.0,88.0
369,190.39375,190.89583333333334,80.0,88.0
370,191.14375,191.40208333333334,80.0,88.0
371,191.39375,191.54375,83.0,88.0
372,191.64375,191.98541666666665,85.0,88.0
373,192.14375,192.25,83.0,88.0
374,192.39375,192.56458333333333,83.0,88.0
375,192.64375,192.98125,80.0,88.0
376,193.14375,193.37291666666667,83.0,88.0
377,193.39375,194.7875,80.0,88.0
378,195.14375,195.37916666666666,80.0,88.0
379,195.39375,195.52291666666667,78.0,88.0
380,195.64375,195.9625,80.0,88.0
381,196.14375,196.42916666666667,78.0,88.0
382,196.64375,196.91875,78.0,88.0
383,196.98958333333334,197.31875,76.0,88.0
384,197.39375,197.725,73.0,88.0
385,197.64375,198.19166666666666,76.0,88.0
386,198.375,199.01041666666666,73.0,88.0
387,199.14375,199.46875,73.0,88.0
388,199.39375,199.63958333333332,71.0,88.0
389,199.64375,200.15833333333333,80.0,88.0
390,200.39375,200.67916666666667,78.0,87.0
391,200.64375,200.89791666666667,76.0,87.0
392,200.89375,201.04375,73.0,86.0
393,201.64375,202.45625,80.0,85.0
394,202.39375,202.57708333333332,78.0,85.0
395,202.64375,203.16458333333333,76.0,85.0
396,203.14375,203.50208333333333,73.0,85.0
397,203.64375,205.75,76.0,85.0
