,start,end,pitch,velocity
0,1.5229166666666667,1.6770833333333333,66.0,88.0
1,1.39375,1.7083333333333333,59.0,88.0
2,2.64375,3.3895833333333334,52.0,88.0
3,1.64375,3.5666666666666664,68.0,88.0
4,3.14375,3.7020833333333334,63.0,88.0
5,3.64375,4.64375,59.0,88.0
6,4.89375,5.179166666666666,59.0,88.0
7,4.64375,5.204166666666667,52.0,88.0
8,1.64375,5.210416666666666,40.0,88.0
9,2.14375,5.210416666666666,47.0,88.0
10,5.14375,5.341666666666667,64.0,88.0
11,5.39375,5.6875,66.0,88.0
12,5.64375,6.8062499999999995,68.0,88.0
13,6.14375,6.864583333333333,44.0,88.0
14,6.64375,7.185416666666667,49.0,88.0
15,6.89375,7.3687499999999995,66.0,88.0
16,7.64375,8.83125,49.0,88.0
17,7.14375,8.86875,44.0,88.0
18,5.64375,8.895833333333334,37.0,88.0
19,8.89375,9.110416666666666,59.0,66.0
20,7.64375,9.239583333333334,64.0,88.0
21,9.14375,9.39375,61.0,62.0
22,9.39375,9.502083333333333,64.0,90.0
23,9.64375,10.552083333333334,61.0,90.0
24,9.64375,10.566666666666666,64.0,90.0
25,10.64375,11.520833333333334,69.0,90.0
26,10.64375,11.539583333333333,61.0,90.0
27,10.64375,11.552083333333334,64.0,90.0
28,9.64375,11.627083333333333,71.0,90.0
29,11.64375,12.558333333333334,69.0,90.0
30,11.64375,12.575,61.0,90.0
31,11.64375,12.589583333333334,64.0,90.0
32,11.39375,12.720833333333333,57.0,90.0
33,10.14375,12.775,52.0,90.0
34,9.64375,12.785416666666666,45.0,90.0
35,12.893749999999999,13.46875,44.0,91.0
36,12.893749999999999,13.5125,59.0,91.0
37,12.893749999999999,13.525,63.0,91.0
38,13.63125,14.529166666666667,66.0,91.0
39,13.643749999999999,14.5375,61.0,91.0
40,13.643749999999999,14.539583333333333,57.0,91.0
41,14.643749999999999,15.270833333333334,66.0,91.0
42,14.643749999999999,15.316666666666666,61.0,91.0
43,14.143749999999999,15.393749999999999,49.0,91.0
44,13.643749999999999,15.643749999999999,42.0,91.0
45,14.643749999999999,15.643749999999999,57.0,91.0
46,15.65,17.020833333333332,71.0,91.0
47,15.645833333333334,17.06458333333333,63.0,91.0
48,15.65,17.079166666666666,66.0,91.0
49,16.639583333333334,17.629166666666666,59.0,91.0
50,16.1,17.802083333333332,54.0,91.0
51,17.629166666666666,17.827083333333334,63.0,91.0
52,17.63125,17.879166666666666,66.0,91.0
53,17.64375,19.441666666666666,71.0,91.0
54,18.64375,19.441666666666666,71.0,91.0
55,15.643749999999999,19.452083333333334,47.0,91.0
56,18.64375,19.452083333333334,47.0,91.0
57,18.64375,19.489583333333332,76.0,91.0
58,18.64375,19.7625,63.0,91.0
59,18.64375,19.777083333333334,66.0,91.0
60,21.64375,22.5375,76.0,79.0
61,21.64375,22.56458333333333,68.0,79.0
62,21.64375,22.629166666666666,71.0,79.0
63,22.64375,24.39375,76.0,64.0
64,22.64375,24.422916666666666,68.0,63.0
65,22.64375,24.466666666666665,71.0,60.0
66,21.64375,24.64375,52.0,79.0
67,22.14375,24.64375,59.0,79.0
68,24.14375,25.027083333333334,64.0,53.0
69,24.64375,25.385416666666668,66.0,67.0
70,24.64375,25.385416666666668,71.0,75.0
71,24.89375,25.385416666666668,71.0,64.0
72,25.14375,25.416666666666668,76.0,74.0
73,24.64375,25.445833333333333,51.0,85.0
74,26.64375,27.570833333333333,64.0,54.0
75,26.64375,27.577083333333334,73.0,65.0
76,26.64375,27.59375,68.0,61.0
77,27.14375,27.910416666666666,61.0,47.0
78,28.14375,28.297916666666666,61.0,51.0
79,27.64375,28.34375,73.0,68.0
80,26.14375,28.402083333333334,56.0,62.0
81,27.64375,28.427083333333332,64.0,62.0
82,27.64375,28.441666666666666,68.0,69.0
83,25.64375,28.504166666666666,49.0,83.0
84,28.64375,29.208333333333332,63.0,67.0
85,28.64375,29.210416666666667,66.0,73.0
86,28.64375,29.25,47.0,70.0
87,29.64375,30.504166666666666,57.0,62.0
88,29.64375,30.55,61.0,72.0
89,30.64375,31.485416666666666,57.0,60.0
90,30.64375,31.520833333333332,61.0,52.0
91,31.14375,31.756249999999998,54.0,54.0
92,31.64375,32.27708333333333,61.0,81.0
93,32.39375,32.49791666666667,69.0,81.0
94,32.39375,32.5,61.0,81.0
95,31.64375,32.520833333333336,57.0,81.0
96,32.14375,32.60625,54.0,81.0
97,32.64375,32.764583333333334,69.0,81.0
98,32.89375,32.99375,68.0,81.0
99,29.64375,33.12916666666666,42.0,65.0
100,30.14375,33.1625,49.0,54.0
101,32.64375,33.20625,61.0,81.0
102,32.64375,33.21875,57.0,81.0
103,33.14375,33.34583333333333,68.0,81.0
104,33.39375,33.670833333333334,64.0,81.0
105,33.64375,34.8375,66.0,81.0
106,33.64375,34.8375,66.0,81.0
107,33.64375,34.975,63.0,81.0
108,35.14375,35.66875,61.0,81.0
109,35.89375,36.21666666666667,59.0,81.0
110,35.64375,36.43958333333333,63.0,81.0
111,34.14375,36.6375,54.0,81.0
112,33.64375,36.71875,47.0,81.0
113,36.89375,37.25,59.0,81.0
114,37.14375,37.422916666666666,64.0,81.0
115,37.39375,37.71666666666667,66.0,81.0
116,37.64375,38.10208333333333,68.0,81.0
117,39.14375,39.708333333333336,64.0,81.0
118,38.64375,40.485416666666666,71.0,81.0
119,39.64375,40.489583333333336,76.0,86.0
120,38.64375,40.49375,68.0,81.0
121,40.14375,40.635416666666664,64.0,85.0
122,37.64375,40.64375,52.0,81.0
123,38.14375,40.64375,59.0,81.0
124,40.64375,41.297916666666666,71.0,85.0
125,40.64375,41.3,66.0,85.0
126,40.64375,41.64375,51.0,85.0
127,41.64375,42.25833333333333,64.0,64.0
128,41.64375,42.2875,68.0,69.0
129,42.39375,42.46875,68.0,36.0
130,42.64375,43.49791666666667,64.0,61.0
131,42.64375,43.510416666666664,68.0,74.0
132,43.14375,43.733333333333334,61.0,46.0
133,42.14375,44.36875,56.0,61.0
134,44.14375,44.37083333333333,61.0,48.0
135,43.64375,44.425,64.0,66.0
136,43.64375,44.42916666666667,68.0,76.0
137,41.64375,44.447916666666664,49.0,76.0
138,44.64375,45.15416666666667,66.0,86.0
139,44.64375,45.170833333333334,47.0,77.0
140,44.64375,45.19583333333333,63.0,73.0
141,45.64375,46.55,61.0,61.0
142,45.64375,46.552083333333336,69.0,70.0
143,45.64375,46.57083333333333,64.0,60.0
144,46.64375,47.49375,69.0,77.0
145,46.64375,47.49583333333333,61.0,64.0
146,46.64375,47.510416666666664,64.0,75.0
147,47.14375,47.916666666666664,57.0,47.0
148,47.64375,48.24375,69.0,54.0
149,47.64375,48.264583333333334,61.0,62.0
150,46.14375,48.31041666666667,52.0,66.0
151,45.64375,48.325,45.0,74.0
152,47.64375,48.3625,64.0,63.0
153,48.64375,49.44375,56.0,69.0
154,48.64375,49.45,59.0,69.0
155,48.64375,49.47708333333333,44.0,69.0
156,48.64375,49.47708333333333,44.0,69.0
157,48.64375,49.50208333333333,63.0,69.0
158,49.64375,50.53333333333333,61.0,78.0
159,49.64375,50.5375,57.0,78.0
160,50.14375,51.0125,49.0,60.0
161,49.64375,51.08541666666667,42.0,78.0
162,50.64375,51.104166666666664,66.0,74.0
163,50.64375,51.13125,61.0,74.0
164,50.64375,51.135416666666664,57.0,74.0
165,51.64375,52.49583333333333,57.0,67.0
166,51.64375,52.49791666666667,61.0,71.0
167,51.64375,52.6875,42.0,68.0
168,52.64375,53.475,44.0,89.0
169,52.64375,53.510416666666664,63.0,89.0
170,52.64375,53.572916666666664,59.0,89.0
171,53.64375,54.358333333333334,69.0,79.0
172,53.64375,54.38333333333333,45.0,79.0
173,53.64375,54.38333333333333,45.0,79.0
174,53.64375,54.53958333333333,64.0,79.0
175,53.64375,54.56875,61.0,79.0
176,54.14375,54.64375,52.0,80.0
177,54.64375,55.202083333333334,47.0,80.0
178,54.64375,55.21041666666667,66.0,80.0
179,54.64375,55.21666666666667,63.0,80.0
180,54.64375,55.21875,71.0,80.0
181,55.14375,55.37708333333333,54.0,83.0
182,55.64375,56.53125,68.0,79.0
183,55.64375,56.55625,71.0,79.0
184,55.64375,56.55625,76.0,79.0
185,56.39375,57.145833333333336,64.0,83.0
186,56.64375,57.4125,68.0,84.0
187,57.14375,57.454166666666666,71.0,85.0
188,55.64375,57.64375,52.0,79.0
189,56.14375,57.64375,59.0,79.0
190,57.59166666666667,57.69375,66.0,85.0
191,57.64375,58.49791666666667,76.0,85.0
192,57.64375,58.6,59.0,85.0
193,57.62083333333333,59.106249999999996,40.0,101.0
194,57.65208333333333,59.1875,68.0,85.0
195,59.64375,60.481249999999996,76.0,101.0
196,59.64375,60.50833333333333,68.0,101.0
197,59.64375,60.51875,71.0,101.0
198,60.64375,61.483333333333334,76.0,101.0
199,60.64375,61.49791666666667,68.0,101.0
200,60.64375,61.50625,71.0,101.0
201,61.14375,61.65416666666667,64.0,101.0
202,61.64375,62.17916666666667,68.0,101.0
203,61.64375,62.19166666666666,76.0,101.0
204,60.14375,62.22291666666666,59.0,101.0
205,59.64375,62.262499999999996,52.0,101.0
206,61.64375,62.514583333333334,71.0,101.0
207,62.64375,63.204166666666666,71.0,102.0
208,62.64375,63.21666666666667,66.0,102.0
209,62.64375,63.225,51.0,102.0
210,63.64375,64.54791666666667,73.0,102.0
211,63.64375,64.55833333333334,64.0,102.0
212,63.64375,64.55833333333334,68.0,102.0
213,64.64375,65.48541666666667,73.0,102.0
214,64.64375,65.49791666666667,64.0,102.0
215,64.64375,65.50625,68.0,102.0
216,65.14375,65.69166666666666,61.0,102.0
217,65.64375,66.19583333333333,73.0,102.0
218,65.64375,66.22291666666666,64.0,102.0
219,65.64375,66.22291666666666,68.0,102.0
220,64.14375,66.23541666666667,56.0,102.0
221,63.64375,66.39166666666667,49.0,102.0
222,66.64375,67.20625,66.0,98.0
223,66.64375,67.20833333333333,63.0,98.0
224,66.64375,67.27083333333333,47.0,98.0
225,67.64375,68.53125,61.0,99.0
226,67.64375,68.5375,69.0,99.0
227,67.64375,68.55416666666666,64.0,99.0
228,68.64375,69.51041666666667,69.0,100.0
229,68.64375,69.525,61.0,100.0
230,68.64375,69.525,64.0,100.0
231,69.14375,69.94375,57.0,101.0
232,69.64375,70.48958333333333,69.0,79.0
233,69.64375,70.50833333333333,64.0,75.0
234,69.64375,70.51041666666667,61.0,64.0
235,70.14375,70.74166666666666,57.0,52.0
236,67.64375,70.86041666666667,45.0,99.0
237,68.14375,70.89583333333333,52.0,100.0
238,70.64375,71.075,61.0,72.0
239,70.64375,71.08125,69.0,87.0
240,70.64375,71.08541666666666,64.0,85.0
241,71.64375,72.55833333333334,69.0,87.0
242,71.64375,72.56041666666667,78.0,83.0
243,71.64375,72.56458333333333,73.0,87.0
244,72.64375,72.95208333333333,66.0,64.0
245,72.14375,73.0875,61.0,60.0
246,72.64375,73.11041666666667,78.0,90.0
247,72.64375,73.13541666666667,73.0,93.0
248,72.64375,73.14375,69.0,95.0
249,71.64375,73.18541666666667,54.0,75.0
250,73.64375,74.575,63.0,85.0
251,73.64375,74.58333333333333,71.0,93.0
252,73.64375,74.58541666666666,66.0,86.0
253,74.64375,75.17291666666667,63.0,83.0
254,74.64375,75.17291666666667,66.0,90.0
255,74.64375,75.175,71.0,95.0
256,73.64375,75.1875,47.0,87.0
257,74.14375,75.20416666666667,54.0,65.0
258,75.14375,75.62083333333334,59.0,64.0
259,75.64375,76.5125,76.0,86.0
260,75.64375,76.525,68.0,81.0
261,75.64375,76.53541666666666,71.0,98.0
262,76.64375,77.48958333333333,76.0,83.0
263,76.64375,77.50416666666666,68.0,85.0
264,76.64375,77.50833333333333,71.0,95.0
265,77.14375,77.68958333333333,64.0,50.0
266,77.64375,78.22083333333333,68.0,90.0
267,77.64375,78.25833333333333,71.0,93.0
268,78.14375,78.29791666666667,64.0,44.0
269,76.14375,78.36875,59.0,64.0
270,75.64375,78.45416666666667,52.0,100.0
271,77.64375,78.475,76.0,79.0
272,78.64375,79.175,51.0,76.0
273,78.64375,79.2,71.0,95.0
274,78.64375,79.21666666666667,66.0,90.0
275,79.64375,80.56875,73.0,64.0
276,79.64375,80.57291666666667,68.0,67.0
277,79.64375,80.575,64.0,67.0
278,80.64375,81.52916666666667,73.0,79.0
279,80.64375,81.54791666666667,68.0,83.0
280,80.64375,81.56666666666666,64.0,71.0
281,81.14375,82.24791666666667,61.0,51.0
282,81.64375,82.25833333333333,68.0,85.0
283,81.64375,82.27083333333333,73.0,77.0
284,81.64375,82.28958333333333,64.0,68.0
285,80.14375,82.36041666666667,56.0,64.0
286,79.64375,82.5,49.0,79.0
287,82.64375,83.2,63.0,83.0
288,82.64375,83.21458333333334,47.0,77.0
289,82.64375,83.24583333333334,66.0,90.0
290,83.39375,83.48541666666667,61.0,11.0
291,83.64375,84.54583333333333,69.0,87.0
292,83.64375,84.55,61.0,70.0
293,83.64375,84.55625,64.0,87.0
294,84.64375,85.52083333333333,69.0,71.0
295,84.64375,85.54166666666667,64.0,74.0
296,84.64375,85.54375,61.0,68.0
297,85.14375,86.02708333333334,57.0,52.0
298,85.64375,86.5375,69.0,83.0
299,85.64375,86.55416666666666,61.0,69.0
300,85.64375,86.55625,64.0,79.0
301,86.14375,86.80208333333333,57.0,58.0
302,84.14375,87.0125,52.0,69.0
303,86.64375,87.04583333333333,69.0,86.0
304,86.64375,87.05416666666666,61.0,74.0
305,86.64375,87.05416666666666,64.0,83.0
306,83.64375,87.14583333333333,45.0,86.0
307,87.64375,88.4875,57.0,71.0
308,87.64375,88.50416666666666,66.0,74.0
309,87.64375,88.50833333333333,61.0,74.0
310,87.64375,89.15625,42.0,86.0
311,88.64375,89.1875,66.0,79.0
312,88.64375,89.18958333333333,61.0,83.0
313,88.64375,89.19166666666666,57.0,81.0
314,88.14375,89.20416666666667,49.0,61.0
315,89.14375,89.55208333333333,54.0,60.0
316,89.64375,90.57291666666667,63.0,83.0
317,89.64375,90.57291666666667,71.0,90.0
318,89.64375,90.57916666666667,66.0,85.0
319,90.14375,91.19166666666666,54.0,74.0
320,89.64375,91.19375,47.0,77.0
321,90.64375,91.2,63.0,76.0
322,90.64375,91.20208333333333,71.0,81.0
323,90.64375,91.21041666666666,66.0,83.0
324,91.14375,91.62708333333333,59.0,59.0
325,91.64375,92.33125,76.0,65.0
326,91.64375,92.33958333333334,64.0,58.0
327,91.64375,92.45833333333333,69.0,67.0
328,92.64375,92.98333333333333,64.0,9.0
329,92.64375,93.34791666666666,76.0,73.0
330,92.64375,93.39166666666667,69.0,86.0
331,93.64375,94.86458333333333,68.0,76.0
332,93.14375,94.9625,64.0,58.0
333,91.64375,94.9875,59.0,71.0
334,91.64375,95.00208333333333,52.0,68.0
335,95.64375,96.10208333333333,80.0,84.0
336,97.14375,97.70833333333333,64.0,86.0
337,96.64375,98.48541666666667,71.0,84.0
338,97.64375,98.48958333333333,76.0,84.0
339,96.64375,98.49375,68.0,84.0
340,98.14375,98.63541666666667,64.0,83.0
341,95.64375,98.64375,52.0,84.0
342,96.14375,98.64375,59.0,84.0
343,98.64375,99.29791666666667,71.0,83.0
344,98.64375,99.3,66.0,83.0
345,98.64375,99.64375,51.0,83.0
346,99.64375,100.25833333333333,64.0,83.0
347,99.64375,100.2875,68.0,83.0
348,100.39375,100.46875,68.0,83.0
349,100.64375,101.49791666666667,64.0,83.0
350,100.64375,101.51041666666667,68.0,83.0
351,101.14375,101.73333333333333,61.0,83.0
352,100.14375,102.36875,56.0,83.0
353,102.14375,102.37083333333334,61.0,83.0
354,101.64375,102.425,64.0,83.0
355,101.64375,102.42916666666666,68.0,83.0
356,99.64375,102.44791666666667,49.0,83.0
357,102.64375,103.15416666666667,66.0,83.0
358,102.64375,103.17083333333333,47.0,83.0
359,102.64375,103.19583333333333,63.0,83.0
360,103.64375,104.55,61.0,84.0
361,103.64375,104.55208333333333,69.0,84.0
362,103.64375,104.57083333333333,64.0,84.0
363,104.64375,105.49374999999999,69.0,84.0
364,104.64375,105.49583333333334,61.0,84.0
365,104.64375,105.51041666666667,64.0,84.0
366,105.14375,105.91666666666667,57.0,84.0
367,105.64375,106.24374999999999,69.0,86.0
368,105.64375,106.26458333333333,61.0,86.0
369,104.14375,106.31041666666667,52.0,84.0
370,103.64375,106.325,45.0,84.0
371,105.64375,106.3625,64.0,86.0
372,106.64375,107.44375,56.0,86.0
373,106.64375,107.45,59.0,86.0
374,106.64375,107.47708333333333,44.0,86.0
375,106.64375,107.47708333333333,44.0,86.0
376,106.64375,107.50208333333333,63.0,86.0
377,107.64375,108.53333333333333,61.0,86.0
378,107.64375,108.5375,57.0,86.0
379,108.14375,109.0125,49.0,86.0
380,107.64375,109.08541666666666,42.0,86.0
381,108.64375,109.10416666666667,66.0,86.0
382,108.64375,109.13125,61.0,86.0
383,108.64375,109.13541666666667,57.0,86.0
384,109.64375,110.49583333333334,57.0,87.0
385,109.64375,110.49791666666667,61.0,87.0
386,109.64375,110.6875,42.0,87.0
387,110.64375,111.475,44.0,87.0
388,110.64375,111.51041666666667,63.0,87.0
389,110.64375,111.57291666666667,59.0,87.0
390,111.64375,112.35833333333333,69.0,89.0
391,111.64375,112.38333333333333,45.0,89.0
392,111.64375,112.38333333333333,45.0,89.0
393,111.64375,112.53958333333333,64.0,89.0
394,111.64375,112.56875,61.0,89.0
395,112.14375,112.64375,52.0,89.0
396,112.64375,113.20208333333333,47.0,89.0
397,112.64375,113.21041666666666,66.0,89.0
398,112.64375,113.21666666666667,63.0,89.0
399,112.64375,113.21875,71.0,89.0
400,113.14375,113.37708333333333,54.0,89.0
401,113.64375,114.53125,68.0,89.0
402,113.64375,114.55624999999999,71.0,89.0
403,113.64375,114.55624999999999,76.0,89.0
404,114.39375,115.14583333333333,64.0,89.0
405,114.64375,115.4125,68.0,89.0
406,115.14375,115.45416666666667,71.0,89.0
407,113.64375,115.64375,52.0,89.0
408,114.14375,115.64375,59.0,89.0
409,115.59166666666667,115.69375,66.0,89.0
410,115.64375,116.49791666666667,76.0,89.0
411,115.64375,116.6,59.0,89.0
412,115.62083333333334,117.10625,40.0,89.0
413,115.65208333333334,117.1875,68.0,89.0
414,117.64375,118.48125,76.0,92.0
415,117.64375,118.50833333333333,68.0,92.0
416,117.64375,118.51875,71.0,92.0
417,118.64375,119.48333333333333,76.0,92.0
418,118.64375,119.49791666666667,68.0,92.0
419,118.64375,119.50625,71.0,92.0
420,119.14375,119.65416666666667,64.0,94.0
421,119.64375,120.17916666666666,68.0,94.0
422,119.64375,120.19166666666666,76.0,94.0
423,118.14375,120.22291666666666,59.0,92.0
424,117.64375,120.2625,52.0,92.0
425,119.64375,120.51458333333333,71.0,94.0
426,120.64375,121.20416666666667,71.0,85.0
427,120.64375,121.21666666666667,66.0,79.0
428,120.64375,121.225,51.0,95.0
429,121.64375,122.54791666666667,73.0,69.0
430,121.64375,122.55833333333334,64.0,64.0
431,121.64375,122.55833333333334,68.0,72.0
432,122.64375,123.48541666666667,73.0,67.0
433,122.64375,123.49791666666667,64.0,63.0
434,122.64375,123.50625,68.0,69.0
435,123.14375,123.69166666666666,61.0,47.0
436,123.64375,124.19583333333333,73.0,81.0
437,123.64375,124.22291666666666,64.0,67.0
438,123.64375,124.22291666666666,68.0,81.0
439,122.14375,124.23541666666667,56.0,63.0
440,121.64375,124.39166666666667,49.0,83.0
441,124.64375,125.20625,66.0,83.0
442,124.64375,125.20833333333333,63.0,74.0
443,124.64375,125.27083333333333,47.0,81.0
444,125.64375,126.53125,61.0,62.0
445,125.64375,126.5375,69.0,77.0
446,125.64375,126.55416666666666,64.0,72.0
447,126.64375,127.51041666666667,69.0,75.0
448,126.64375,127.52499999999999,61.0,65.0
449,126.64375,127.52499999999999,64.0,71.0
450,127.14375,127.94375,57.0,45.0
451,127.64375,128.48958333333334,69.0,79.0
452,127.64375,128.50833333333333,64.0,75.0
453,127.64375,128.51041666666666,61.0,64.0
454,128.14375,128.74166666666667,57.0,52.0
455,125.64375,128.86041666666665,45.0,76.0
456,126.14375,128.89583333333334,52.0,56.0
457,128.64375,129.075,61.0,72.0
458,128.64375,129.08125,69.0,87.0
459,128.64375,129.08541666666667,64.0,85.0
460,129.64375,130.55833333333334,69.0,87.0
461,129.64375,130.56041666666667,78.0,83.0
462,129.64375,130.56458333333333,73.0,87.0
463,130.64375,130.95208333333332,66.0,64.0
464,130.14375,131.0875,61.0,60.0
465,130.64375,131.11041666666665,78.0,90.0
466,130.64375,131.13541666666666,73.0,93.0
467,130.64375,131.14375,69.0,95.0
468,129.64375,131.18541666666667,54.0,75.0
469,131.64375,132.575,63.0,85.0
470,131.64375,132.58333333333334,71.0,93.0
471,131.64375,132.58541666666667,66.0,86.0
472,132.64375,133.17291666666665,63.0,83.0
473,132.64375,133.17291666666665,66.0,90.0
474,132.64375,133.175,71.0,95.0
475,131.64375,133.1875,47.0,87.0
476,132.14375,133.20416666666665,54.0,65.0
477,133.14375,133.62083333333334,59.0,64.0
478,133.64375,134.5125,76.0,86.0
479,133.64375,134.525,68.0,81.0
480,133.64375,134.53541666666666,71.0,98.0
481,134.64375,135.48958333333334,76.0,83.0
482,134.64375,135.50416666666666,68.0,85.0
483,134.64375,135.50833333333333,71.0,95.0
484,135.14375,135.68958333333333,64.0,50.0
485,135.64375,136.22083333333333,68.0,90.0
486,135.64375,136.25833333333333,71.0,93.0
487,136.14375,136.29791666666665,64.0,44.0
488,134.14375,136.36875,59.0,64.0
489,133.64375,136.45416666666665,52.0,100.0
490,135.64375,136.475,76.0,79.0
491,136.64375,137.175,51.0,76.0
492,136.64375,137.2,71.0,95.0
493,136.64375,137.21666666666667,66.0,90.0
494,137.64375,138.56875,73.0,64.0
495,137.64375,138.57291666666666,68.0,67.0
496,137.64375,138.575,64.0,67.0
497,138.64375,139.52916666666667,73.0,79.0
498,138.64375,139.54791666666665,68.0,83.0
499,138.64375,139.56666666666666,64.0,71.0
500,139.14375,140.24791666666667,61.0,51.0
501,139.64375,140.25833333333333,68.0,85.0
502,139.64375,140.27083333333334,73.0,77.0
503,139.64375,140.28958333333333,64.0,68.0
504,138.14375,140.36041666666665,56.0,64.0
505,137.64375,140.5,49.0,79.0
506,140.64375,141.2,63.0,83.0
507,140.64375,141.21458333333334,47.0,77.0
508,140.64375,141.24583333333334,66.0,90.0
509,141.39375,141.48541666666665,61.0,11.0
510,141.64375,142.54583333333332,69.0,87.0
511,141.64375,142.55,61.0,70.0
512,141.64375,142.55625,64.0,87.0
513,142.64375,143.52083333333334,69.0,71.0
514,142.64375,143.54166666666666,64.0,74.0
515,142.64375,143.54375,61.0,68.0
516,143.14375,144.02708333333334,57.0,52.0
517,143.64375,144.5375,69.0,83.0
518,143.64375,144.55416666666667,61.0,69.0
519,143.64375,144.55625,64.0,79.0
520,144.14375,144.80208333333334,57.0,58.0
521,142.14375,145.0125,52.0,69.0
522,144.64375,145.04583333333332,69.0,86.0
523,144.64375,145.05416666666667,61.0,74.0
524,144.64375,145.05416666666667,64.0,83.0
525,141.64375,145.14583333333334,45.0,86.0
526,145.64375,146.4875,57.0,71.0
527,145.64375,146.50416666666666,66.0,74.0
528,145.64375,146.50833333333333,61.0,74.0
529,145.64375,147.15625,42.0,86.0
530,146.64375,147.1875,66.0,79.0
531,146.64375,147.18958333333333,61.0,83.0
532,146.64375,147.19166666666666,57.0,81.0
533,146.14375,147.20416666666665,49.0,61.0
534,147.14375,147.55208333333334,54.0,60.0
535,147.64375,148.57291666666666,63.0,83.0
536,147.64375,148.57291666666666,71.0,90.0
537,147.64375,148.57916666666665,66.0,85.0
538,148.14375,149.19166666666666,54.0,74.0
539,147.64375,149.19375,47.0,77.0
540,148.64375,149.2,63.0,76.0
541,148.64375,149.20208333333332,71.0,81.0
542,148.64375,149.21041666666667,66.0,83.0
543,149.14375,149.62708333333333,59.0,59.0
544,149.64375,150.33125,76.0,65.0
545,149.64375,150.33958333333334,64.0,58.0
546,149.64375,150.45833333333334,69.0,67.0
547,150.64375,150.98333333333332,64.0,9.0
548,150.64375,151.34791666666666,76.0,73.0
549,150.64375,151.39166666666665,69.0,86.0
550,151.64375,152.86458333333334,68.0,76.0
551,151.14375,152.9625,64.0,58.0
552,149.64375,152.9875,59.0,71.0
553,149.64375,153.00208333333333,52.0,68.0
554,153.64375,154.51666666666665,66.0,70.0
555,153.64375,154.51875,57.0,64.0
556,153.64375,154.53333333333333,61.0,67.0
557,154.64375,155.48541666666665,66.0,70.0
558,154.64375,155.50625,57.0,60.0
559,154.64375,155.51875,61.0,69.0
560,155.64375,156.47916666666666,66.0,71.0
561,155.64375,156.4875,57.0,62.0
562,155.64375,156.50208333333333,61.0,72.0
563,155.14375,156.63958333333332,54.0,57.0
564,153.64375,157.15833333333333,42.0,70.0
565,156.64375,157.18958333333333,66.0,75.0
566,154.14375,157.19583333333333,49.0,62.0
567,156.64375,157.19583333333333,61.0,76.0
568,156.64375,157.20416666666665,57.0,73.0
569,157.14375,157.59583333333333,54.0,53.0
570,157.64375,158.51875,73.0,64.0
571,157.64375,158.52708333333334,64.0,65.0
572,157.64375,158.52708333333334,68.0,63.0
573,158.64375,159.48125,73.0,76.0
574,158.64375,159.49791666666667,64.0,67.0
575,158.64375,159.49791666666667,68.0,79.0
576,159.14375,159.78958333333333,61.0,50.0
577,159.64375,160.48125,73.0,81.0
578,159.64375,160.49375,68.0,81.0
579,159.64375,160.5,64.0,64.0
580,160.14375,160.70833333333334,61.0,51.0
581,160.64375,161.3625,73.0,87.0
582,160.64375,161.39375,68.0,90.0
583,160.64375,161.4125,64.0,74.0
584,158.14375,161.43333333333334,56.0,59.0
585,157.64375,161.48958333333334,49.0,63.0
586,161.64375,162.51041666666666,66.0,69.0
587,161.64375,162.52916666666667,57.0,67.0
588,161.64375,162.53541666666666,61.0,70.0
589,162.64375,163.26666666666665,66.0,79.0
590,162.64375,163.275,61.0,81.0
591,163.39375,163.49166666666667,66.0,37.0
592,162.64375,163.49791666666667,57.0,74.0
593,163.39375,163.51666666666665,61.0,31.0
594,163.14375,163.69583333333333,54.0,61.0
595,163.64375,164.46875,66.0,85.0
596,163.64375,164.48333333333332,57.0,74.0
597,163.64375,164.48541666666665,61.0,86.0
598,164.14375,164.6625,54.0,60.0
599,164.64375,165.35625,66.0,93.0
600,164.64375,165.37083333333334,61.0,90.0
601,164.64375,165.3875,57.0,86.0
602,161.64375,165.4625,42.0,66.0
603,165.14375,165.4625,54.0,56.0
604,162.14375,165.48333333333332,49.0,63.0
605,165.64375,166.45833333333334,69.0,77.0
606,165.64375,166.47291666666666,61.0,75.0
607,165.64375,166.47708333333333,64.0,77.0
608,166.64375,167.47083333333333,69.0,93.0
609,166.64375,167.48541666666665,61.0,85.0
610,166.64375,167.48958333333334,64.0,90.0
611,167.14375,167.54375,57.0,61.0
612,165.64375,167.65208333333334,45.0,74.0
613,166.14375,167.66041666666666,52.0,67.0
614,167.64375,168.50625,71.0,87.0
615,167.64375,168.51458333333332,66.0,87.0
616,167.64375,168.52708333333334,63.0,79.0
617,168.64375,169.50416666666666,71.0,95.0
618,168.64375,169.5125,66.0,93.0
619,168.64375,169.51666666666665,63.0,81.0
620,167.64375,169.64375,47.0,74.0
621,168.14375,169.64375,54.0,67.0
622,169.14375,169.64375,59.0,58.0
623,169.64375,170.10208333333333,66.0,65.0
624,169.64375,170.11666666666667,63.0,62.0
625,169.64375,170.11875,71.0,75.0
626,169.64375,170.16666666666666,47.0,83.0
627,170.64375,171.66875,66.0,79.0
628,170.64375,171.66875,71.0,93.0
629,171.64375,171.66875,71.0,79.0
630,170.64375,171.67083333333332,63.0,77.0
631,170.64375,171.68333333333334,47.0,79.0
632,171.64375,172.48125,76.0,72.0
633,171.64375,172.50833333333333,68.0,74.0
634,172.64375,173.48333333333332,76.0,74.0
635,172.64375,173.49791666666667,68.0,69.0
636,172.64375,173.50625,71.0,83.0
637,173.14375,173.65416666666667,64.0,48.0
638,173.64375,174.17916666666667,68.0,68.0
639,173.64375,174.19166666666666,76.0,74.0
640,172.14375,174.22291666666666,59.0,65.0
641,171.64375,174.2625,52.0,77.0
642,173.64375,174.51458333333332,71.0,81.0
643,174.64375,175.20416666666665,71.0,85.0
644,174.64375,175.21666666666667,66.0,79.0
645,174.64375,175.225,51.0,95.0
646,175.64375,176.54791666666665,73.0,69.0
647,175.64375,176.55833333333334,64.0,64.0
648,175.64375,176.55833333333334,68.0,72.0
649,176.64375,177.48541666666665,73.0,67.0
650,176.64375,177.49791666666667,64.0,63.0
651,176.64375,177.50625,68.0,69.0
652,177.14375,177.69166666666666,61.0,47.0
653,177.64375,178.19583333333333,73.0,81.0
654,177.64375,178.22291666666666,64.0,67.0
655,177.64375,178.22291666666666,68.0,81.0
656,176.14375,178.23541666666665,56.0,63.0
657,175.64375,178.39166666666665,49.0,83.0
658,178.64375,179.20625,66.0,83.0
659,178.64375,179.20833333333334,63.0,74.0
660,178.64375,179.27083333333334,47.0,81.0
661,179.64375,180.53125,61.0,62.0
662,179.64375,180.5375,69.0,77.0
663,179.64375,180.55416666666667,64.0,72.0
664,180.64375,181.51041666666666,69.0,75.0
665,180.64375,181.525,61.0,65.0
666,180.64375,181.525,64.0,71.0
667,181.14375,181.94375,57.0,45.0
668,181.64375,182.48958333333334,69.0,79.0
669,181.64375,182.50833333333333,64.0,75.0
670,181.64375,182.51041666666666,61.0,64.0
671,182.14375,182.74166666666667,57.0,52.0
672,179.64375,182.86041666666665,45.0,76.0
673,180.14375,182.89583333333334,52.0,56.0
674,182.64375,183.075,61.0,72.0
675,182.64375,183.08125,69.0,87.0
676,182.64375,183.08541666666667,64.0,85.0
677,183.64375,184.55833333333334,69.0,87.0
678,183.64375,184.56041666666667,78.0,83.0
679,183.64375,184.56458333333333,73.0,87.0
680,184.64375,184.95208333333332,66.0,64.0
681,184.14375,185.0875,61.0,60.0
682,184.64375,185.11041666666665,78.0,90.0
683,184.64375,185.13541666666666,73.0,93.0
684,184.64375,185.14375,69.0,95.0
685,183.64375,185.18541666666667,54.0,75.0
686,185.64375,186.575,63.0,85.0
687,185.64375,186.58333333333334,71.0,93.0
688,185.64375,186.58541666666667,66.0,86.0
689,186.64375,187.17291666666665,63.0,83.0
690,186.64375,187.17291666666665,66.0,90.0
691,186.64375,187.175,71.0,95.0
692,185.64375,187.1875,47.0,87.0
693,186.14375,187.20416666666665,54.0,65.0
694,187.14375,187.62083333333334,59.0,64.0
695,187.64375,188.5125,76.0,86.0
696,187.64375,188.525,68.0,81.0
697,187.64375,188.53541666666666,71.0,98.0
698,188.64375,189.48958333333334,76.0,83.0
699,188.64375,189.50416666666666,68.0,85.0
700,188.64375,189.50833333333333,71.0,95.0
701,189.14375,189.68958333333333,64.0,50.0
702,189.64375,190.22083333333333,68.0,90.0
703,189.64375,190.25833333333333,71.0,93.0
704,190.14375,190.29791666666665,64.0,44.0
705,188.14375,190.36875,59.0,64.0
706,187.64375,190.45416666666665,52.0,100.0
707,189.64375,190.475,76.0,79.0
708,190.64375,191.175,51.0,76.0
709,190.64375,191.2,71.0,95.0
710,190.64375,191.21666666666667,66.0,90.0
711,191.64375,192.56875,73.0,64.0
712,191.64375,192.57291666666666,68.0,67.0
713,191.64375,192.575,64.0,67.0
714,192.64375,193.52916666666667,73.0,79.0
715,192.64375,193.54791666666665,68.0,83.0
716,192.64375,193.56666666666666,64.0,71.0
717,193.14375,194.24791666666667,61.0,51.0
718,193.64375,194.25833333333333,68.0,85.0
719,193.64375,194.27083333333334,73.0,77.0
720,193.64375,194.28958333333333,64.0,68.0
721,192.14375,194.36041666666665,56.0,64.0
722,191.64375,194.5,49.0,79.0
723,194.64375,195.2,63.0,83.0
724,194.64375,195.21458333333334,47.0,77.0
725,194.64375,195.24583333333334,66.0,90.0
726,195.39375,195.48541666666665,61.0,11.0
727,195.64375,196.54583333333332,69.0,87.0
728,195.64375,196.55,61.0,70.0
729,195.64375,196.55625,64.0,87.0
730,196.64375,197.52083333333334,69.0,71.0
731,196.64375,197.54166666666666,64.0,74.0
732,196.64375,197.54375,61.0,68.0
733,197.14375,198.02708333333334,57.0,52.0
734,197.64375,198.5375,69.0,83.0
735,197.64375,198.55416666666667,61.0,69.0
736,197.64375,198.55625,64.0,79.0
737,198.14375,198.80208333333334,57.0,58.0
738,196.14375,199.0125,52.0,69.0
739,198.64375,199.04583333333332,69.0,86.0
740,198.64375,199.05416666666667,61.0,74.0
741,198.64375,199.05416666666667,64.0,83.0
742,195.64375,199.14583333333334,45.0,86.0
743,199.64375,200.4875,57.0,71.0
744,199.64375,200.50416666666666,66.0,74.0
745,199.64375,200.50833333333333,61.0,74.0
746,199.64375,201.15625,42.0,86.0
747,200.64375,201.1875,66.0,79.0
748,200.64375,201.18958333333333,61.0,83.0
749,200.64375,201.19166666666666,57.0,81.0
750,200.14375,201.20416666666665,49.0,61.0
751,201.14375,201.55208333333334,54.0,60.0
752,201.64375,202.57291666666666,63.0,83.0
753,201.64375,202.57291666666666,71.0,90.0
754,201.64375,202.57916666666665,66.0,85.0
755,202.14375,203.19166666666666,54.0,74.0
756,201.64375,203.19375,47.0,77.0
757,202.64375,203.2,63.0,76.0
758,202.64375,203.20208333333332,71.0,81.0
759,202.64375,203.21041666666667,66.0,83.0
760,203.14375,203.62708333333333,59.0,59.0
761,203.64375,204.33125,76.0,65.0
762,203.64375,204.33958333333334,64.0,58.0
763,203.64375,204.45833333333334,69.0,67.0
764,204.64375,204.98333333333332,64.0,9.0
765,204.64375,205.34791666666666,76.0,73.0
766,204.64375,205.39166666666665,69.0,86.0
767,205.64374999999998,206.86458333333334,68.0,76.0
768,205.14374999999998,206.9625,64.0,58.0
769,203.64375,206.98749999999998,59.0,71.0
770,203.64375,207.00208333333333,52.0,68.0
771,207.64374999999998,209.24791666666667,69.0,79.0
772,209.14374999999998,209.43333333333334,61.0,58.0
773,209.39374999999998,209.57916666666665,64.0,64.0
774,207.64374999999998,210.10416666666666,45.0,74.0
775,208.89374999999998,210.125,57.0,63.0
776,208.14374999999998,210.22083333333333,52.0,63.0
777,209.62291666666667,210.69583333333333,69.0,73.0
778,210.73333333333332,212.01874999999998,68.0,76.0
779,209.64374999999998,212.02083333333334,47.0,73.0
780,211.79999999999998,212.92291666666665,60.0,63.0
781,211.82291666666666,212.94166666666666,55.0,65.0
782,211.7875,212.95833333333334,48.0,62.0
783,211.77083333333334,213.04999999999998,64.0,79.0
784,213.3375,213.69375,61.0,72.0
785,213.025,213.73125,57.0,57.0
786,213.60416666666666,213.95208333333332,64.0,76.0
787,214.11458333333334,215.80416666666667,66.0,81.0
788,214.06875,216.08958333333334,50.0,61.0
789,214.04583333333332,216.11458333333334,38.0,64.0
790,215.32083333333333,216.53333333333333,64.0,65.0
791,216.48333333333332,217.35833333333332,59.0,64.0
792,217.37708333333333,218.33541666666667,57.0,63.0
793,217.68125,219.00208333333333,52.0,53.0
794,218.45416666666665,219.00208333333333,52.0,58.0
795,217.31458333333333,219.0375,47.0,59.0
796,216.82291666666666,219.04791666666665,40.0,59.0
797,219.33541666666667,219.61041666666665,68.0,37.0
798,217.64374999999998,219.69791666666666,56.0,39.0
799,218.96458333333334,219.83541666666667,64.0,47.0
800,219.41875,219.89583333333334,71.0,61.0
801,219.61458333333334,223.5,76.0,63.0
802,218.69375,223.55833333333334,59.0,60.0
