,start,end,pitch,velocity
0,17.281963995833333,17.382963785416667,70.0,119.0
1,17.521963495833333,17.6099633125,70.0,109.0
2,17.761962995833333,17.851962808333333,70.0,116.0
3,18.001962495833332,18.093962304166666,70.0,113.0
4,18.241961995833336,18.32696181875,70.0,113.0
5,18.481961495833335,18.565961320833335,70.0,113.0
6,18.721960995833335,18.86496069791667,70.0,123.0
7,18.961960495833335,19.114960177083333,67.0,89.0
8,19.201959995833334,19.328959731250002,70.0,116.0
9,19.441959495833334,19.540959289583334,70.0,109.0
10,19.681958995833334,19.77995879166667,70.0,106.0
11,19.921958495833334,20.023958283333332,70.0,109.0
12,20.161957995833333,20.25095781041667,70.0,106.0
13,20.401957495833333,20.491957308333333,70.0,109.0
14,20.641956995833333,20.8619565375,70.0,116.0
15,20.881956495833332,21.08495607291667,65.0,110.0
16,21.121955995833336,21.227955775,65.0,113.0
17,21.361955495833335,21.4619552875,65.0,107.0
18,21.601954995833335,21.697954795833333,65.0,100.0
19,21.841954495833335,21.944954281250002,65.0,98.0
20,22.081953995833334,22.283953575,65.0,102.0
21,22.321953495833334,22.537953045833333,67.0,108.0
22,22.561952995833334,22.813952470833335,65.0,113.0
23,22.801952495833334,23.098951877083334,67.0,110.0
24,24.961947995833334,25.071947766666668,70.0,116.0
25,25.201947495833334,25.29294730625,70.0,109.0
26,25.441946995833334,25.54494678125,70.0,113.0
27,25.681946495833333,25.776946297916666,70.0,113.0
28,25.921945995833333,26.0219457875,70.0,103.0
29,26.161945495833333,26.266945277083334,70.0,100.0
30,26.401944995833333,26.593944595833335,70.0,109.0
31,26.641944495833336,26.778944210416668,67.0,96.0
32,26.881943995833335,26.978943793750002,70.0,116.0
33,27.121943495833335,27.210943310416667,70.0,109.0
34,27.361942995833335,27.445942820833334,70.0,109.0
35,27.601942495833335,27.682942327083335,70.0,106.0
36,27.841941995833334,27.934941802083333,70.0,103.0
37,28.081941495833334,28.1699413125,70.0,109.0
38,28.321940995833334,28.53394055416667,70.0,113.0
39,28.561940495833333,28.67994025,65.0,91.0
40,28.801939995833333,28.90593977916667,65.0,110.0
41,29.041939495833333,29.1359393,65.0,102.0
42,29.281938995833336,29.3819387875,65.0,98.0
43,29.521938495833336,29.618938293750002,65.0,91.0
44,29.761937995833335,29.87193776666667,65.0,100.0
45,30.001937495833335,30.11193726666667,67.0,100.0
46,30.241936995833335,30.337936795833333,65.0,102.0
47,30.481936495833335,30.7139360125,67.0,108.0
48,32.64193199583333,32.778931710416664,67.0,116.0
49,32.881931495833335,32.9939312625,67.0,107.0
50,33.12193099583333,33.2159308,67.0,92.0
51,33.361930495833334,33.62892993958334,69.0,108.0
52,33.60192999583334,33.739929708333335,70.0,106.0
53,33.841929495833334,33.978929210416666,74.0,110.0
54,34.08192899583334,34.27492859375,72.0,108.0
55,34.32192849583333,34.524928072916666,70.0,113.0
56,34.56192799583334,34.81492746875,69.0,108.0
57,34.80192749583333,34.9379272125,67.0,100.0
58,35.041926995833336,35.2319266,69.0,110.0
59,35.28192649583333,35.39992625,67.0,104.0
60,35.40192624583334,35.66792569166667,69.0,110.0
61,36.481923995833334,36.59492376041667,65.0,114.0
62,36.72192349583334,36.82892327291667,65.0,102.0
63,36.96192299583333,37.07792275416667,65.0,98.0
64,37.20192249583334,37.29892229375,67.0,116.0
65,37.44192199583333,37.55992175,69.0,108.0
66,37.681921495833336,37.81892121041667,72.0,109.0
67,37.92192099583333,38.1419205375,70.0,116.0
68,38.161920495833336,38.384920031250005,69.0,108.0
69,38.40191999583333,38.5379197125,67.0,93.0
70,38.641919495833335,38.81191914166667,65.0,108.0
71,38.88191899583333,39.00291874375,67.0,107.0
72,39.121918495833334,39.2639182,65.0,108.0
73,39.36191799583334,39.535917633333334,67.0,110.0
74,40.321915995833336,40.4339157625,67.0,113.0
75,40.56191549583333,40.6619152875,67.0,108.0
76,40.801914995833336,40.94091470625,67.0,107.0
77,41.04191449583333,41.24491407291667,69.0,108.0
78,41.281913995833335,41.41991370833333,70.0,103.0
79,41.52191349583333,41.68791315,74.0,110.0
80,41.761912995833335,41.98891252291667,72.0,102.0
81,42.00191249583334,42.232912014583334,70.0,109.0
82,42.241911995833334,42.453911554166666,69.0,102.0
83,42.48191149583334,42.637911170833334,67.0,88.0
84,42.72191099583333,42.82391078333333,69.0,108.0
85,42.96191049583334,43.17591005,69.0,113.0
86,44.16190799583333,44.276907756250004,65.0,113.0
87,44.401907495833335,44.517907254166666,65.0,108.0
88,44.64190699583334,44.771906725,65.0,107.0
89,44.881906495833334,45.025906195833336,67.0,107.0
90,45.12190599583334,45.22890577291667,69.0,107.0
91,45.361905495833334,45.51890516875,72.0,104.0
92,45.60190499583334,45.77290463958334,70.0,103.0
93,45.84190449583333,46.03690408958334,69.0,98.0
94,46.081903995833336,46.345903445833336,67.0,108.0
95,48.001899995833334,48.323899325,74.0,117.0
96,48.48189899583333,48.757898420833335,70.0,116.0
97,48.96189799583333,49.27989733333334,72.0,113.0
98,49.44189699583333,49.66489653125,67.0,107.0
99,49.92189599583333,50.11289559791667,74.0,113.0
100,50.161895495833335,50.3938950125,72.0,113.0
101,50.40189499583334,50.625894529166665,70.0,116.0
102,50.641894495833334,50.87289401458334,72.0,107.0
103,50.88189399583334,51.1738933875,67.0,113.0
104,51.841891995833336,52.35189093333334,74.0,93.0
105,52.321890995833336,52.639890333333334,70.0,119.0
106,52.801889995833335,53.13788929583333,72.0,120.0
107,53.281888995833334,53.479888583333334,72.0,117.0
108,53.761887995833334,54.02088745625,77.0,108.0
109,54.00188749583334,54.269886937500004,74.0,110.0
110,54.24188699583333,54.58088628958333,69.0,113.0
111,54.72188599583333,54.98288545208334,70.0,119.0
112,55.20188499583333,55.409884562500004,70.0,123.0
113,55.441884495833335,55.680883997916666,69.0,108.0
114,55.68188399583334,56.08688315208334,67.0,114.0
115,56.16188299583334,56.38088253958333,69.0,113.0
116,56.401882495833334,56.56988214583333,70.0,113.0
117,56.64188199583334,56.90888143958333,72.0,117.0
118,57.12188099583334,57.39388042916667,65.0,116.0
119,57.601879995833336,57.90287936875,79.0,120.0
120,57.84187949583333,58.049879062500004,77.0,116.0
121,58.081878995833335,58.3678784,74.0,117.0
122,58.561877995833335,58.85487738541667,74.0,119.0
123,59.28187649583334,59.51687600625,72.0,108.0
124,59.521875995833334,59.77087547708334,70.0,119.0
125,60.00187499583333,60.313874345833334,74.0,119.0
126,60.48187399583333,60.698873543750004,72.0,117.0
127,60.721873495833336,60.95087301875,74.0,114.0
128,60.96187299583333,61.07087276875,72.0,110.0
129,61.201872495833335,61.59687167291667,77.0,116.0
130,61.92187099583334,62.00887081458333,77.0,117.0
131,62.161870495833334,62.2378703375,77.0,113.0
132,62.40186999583334,62.47886983541667,77.0,114.0
133,62.64186949583333,62.721869329166665,77.0,114.0
134,62.88186899583334,63.049868645833335,77.0,116.0
135,63.361867995833336,63.683867325,74.0,117.0
136,63.841866995833335,64.11786642083334,70.0,116.0
137,64.32186599583333,64.63986533333333,72.0,113.0
138,64.80186499583334,65.02486453125,67.0,107.0
139,65.28186399583333,65.47286359791667,74.0,113.0
140,65.52186349583333,65.7538630125,72.0,113.0
141,65.76186299583334,65.98586252916667,70.0,116.0
142,66.00186249583334,66.23286201458333,72.0,107.0
143,66.24186199583333,66.5338613875,67.0,113.0
144,67.20185999583333,67.71185893333333,74.0,93.0
145,67.68185899583334,67.99985833333334,70.0,119.0
146,68.16185799583333,68.49785729583334,72.0,120.0
147,68.64185699583334,68.83985658333333,72.0,117.0
148,69.12185599583333,69.38085545625,77.0,108.0
149,69.36185549583334,69.6298549375,74.0,110.0
150,69.60185499583334,69.94085428958334,69.0,113.0
151,70.08185399583334,70.34285345208333,70.0,119.0
152,70.56185299583333,70.7698525625,70.0,123.0
153,70.80185249583333,71.04085199791668,69.0,108.0
154,71.04185199583334,71.44685115208334,67.0,114.0
155,71.52185099583333,71.74085053958333,69.0,113.0
156,71.76185049583333,71.92985014583334,70.0,113.0
157,72.00184999583334,72.26884943958333,72.0,117.0
158,72.48184899583333,72.75384842916667,65.0,116.0
159,72.96184799583334,73.26284736875,79.0,120.0
160,73.20184749583333,73.4098470625,77.0,116.0
161,73.44184699583333,73.7278464,74.0,117.0
162,73.92184599583334,74.21484538541667,74.0,119.0
163,74.64184449583334,74.87684400625,72.0,108.0
164,74.88184399583334,75.13084347708333,70.0,119.0
165,75.36184299583334,75.67384234583334,74.0,119.0
166,75.84184199583333,76.05884154375,72.0,117.0
167,76.32184099583334,76.6498403125,65.0,116.0
168,76.80183999583333,77.09883937708334,67.0,114.0
169,77.28183899583334,77.57883837708333,70.0,119.0
170,77.76183799583333,78.08283732708334,67.0,117.0
171,94.08180399583334,94.18280378541667,70.0,119.0
172,94.32180349583334,94.4098033125,70.0,109.0
173,94.56180299583333,94.65180280833334,70.0,116.0
174,94.80180249583334,94.89380230416667,70.0,113.0
175,95.04180199583334,95.12680181875,70.0,113.0
176,95.28180149583334,95.36580132083334,70.0,113.0
177,95.52180099583333,95.66480069791668,70.0,123.0
178,95.76180049583334,95.91480017708334,67.0,89.0
179,96.00179999583334,96.12879973125,70.0,116.0
180,96.24179949583333,96.34079928958333,70.0,109.0
181,96.48179899583333,96.57979879166668,70.0,106.0
182,96.72179849583334,96.82379828333333,70.0,109.0
183,96.96179799583334,97.05079781041667,70.0,106.0
184,97.20179749583333,97.29179730833334,70.0,109.0
185,97.44179699583334,97.66179653750001,70.0,116.0
186,97.68179649583334,97.88479607291667,65.0,110.0
187,97.92179599583334,98.027795775,65.0,113.0
188,98.16179549583333,98.26179528750001,65.0,107.0
189,98.40179499583334,98.49779479583334,65.0,100.0
190,98.64179449583334,98.74479428125001,65.0,98.0
191,98.88179399583333,99.083793575,65.0,102.0
192,99.12179349583333,99.33779304583334,67.0,108.0
193,99.36179299583334,99.61379247083333,65.0,113.0
194,99.60179249583334,99.89879187708334,67.0,110.0
195,101.76178799583333,101.87178776666667,70.0,116.0
196,102.00178749583334,102.09278730625,70.0,109.0
197,102.24178699583334,102.34478678125001,70.0,113.0
198,102.48178649583333,102.57678629791667,70.0,113.0
199,102.72178599583334,102.8217857875,70.0,103.0
200,102.96178549583334,103.06678527708334,70.0,100.0
201,103.20178499583334,103.39378459583334,70.0,109.0
202,103.44178449583333,103.57878421041667,67.0,96.0
203,103.68178399583334,103.77878379375001,70.0,116.0
204,103.92178349583334,104.01078331041667,70.0,109.0
205,104.16178299583333,104.24578282083334,70.0,109.0
206,104.40178249583333,104.48278232708334,70.0,106.0
207,104.64178199583334,104.73478180208333,70.0,103.0
208,104.88178149583334,104.9697813125,70.0,109.0
209,105.12178099583333,105.33378055416667,70.0,113.0
210,105.36178049583334,105.47978025,65.0,91.0
211,105.60177999583334,105.70577977916668,65.0,110.0
212,105.84177949583334,105.93577930000001,65.0,102.0
213,106.08177899583333,106.18177878750001,65.0,98.0
214,106.32177849583334,106.41877829375001,65.0,91.0
215,106.56177799583334,106.67177776666666,65.0,100.0
216,106.80177749583333,106.91177726666668,67.0,100.0
217,107.04177699583333,107.13777679583333,65.0,102.0
218,107.28177649583334,107.5137760125,67.0,108.0
219,109.44177199583334,109.57877171041667,67.0,116.0
220,109.68177149583333,109.7937712625,67.0,107.0
221,109.92177099583334,110.0157708,67.0,92.0
222,110.16177049583334,110.42876993958333,69.0,108.0
223,110.40176999583333,110.53976970833334,70.0,106.0
224,110.64176949583333,110.77876921041667,74.0,110.0
225,110.88176899583334,111.07476859375001,72.0,108.0
226,111.12176849583334,111.32476807291667,70.0,113.0
227,111.36176799583333,111.61476746875,69.0,108.0
228,111.60176749583334,111.7377672125,67.0,100.0
229,111.84176699583334,112.0317666,69.0,110.0
230,112.08176649583334,112.19976625000001,67.0,104.0
231,112.32176599583333,112.58776544166668,69.0,110.0
232,113.28176399583333,113.39476376041667,65.0,114.0
233,113.52176349583334,113.62876327291667,65.0,102.0
234,113.76176299583334,113.87776275416667,65.0,98.0
235,114.00176249583333,114.09876229375,67.0,116.0
236,114.24176199583334,114.35976175,69.0,108.0
237,114.48176149583334,114.61876121041666,72.0,109.0
238,114.72176099583334,114.9417605375,70.0,116.0
239,114.96176049583333,115.18476003125001,69.0,108.0
240,115.20175999583334,115.3377597125,67.0,93.0
241,115.44175949583334,115.61175914166667,65.0,108.0
242,115.68175899583333,115.80275874375,67.0,107.0
243,115.92175849583333,116.06375820000001,65.0,108.0
244,116.16175799583334,116.33575763333334,67.0,110.0
245,117.12175599583334,117.23375576250001,67.0,113.0
246,117.36175549583334,117.4617552875,67.0,108.0
247,117.60175499583333,117.74075470625,67.0,107.0
248,117.84175449583334,118.04475407291667,69.0,108.0
249,118.08175399583334,118.21975370833334,70.0,103.0
250,118.32175349583333,118.48775315,74.0,110.0
251,118.56175299583333,118.78875252291667,72.0,102.0
252,118.80175249583334,119.03275201458334,70.0,109.0
253,119.04175199583334,119.25375155416667,69.0,102.0
254,119.28175149583333,119.43775117083334,67.0,88.0
255,119.52175099583334,119.62375078333334,69.0,108.0
256,119.76175049583334,119.97575005,67.0,113.0
257,120.00174999583334,120.21574955,69.0,113.0
258,120.96174799583333,121.07674775625,65.0,113.0
259,121.20174749583333,121.31774725416668,65.0,108.0
260,121.44174699583334,121.571746725,65.0,107.0
261,121.68174649583334,121.82574619583333,67.0,107.0
262,121.92174599583333,122.02874577291666,69.0,107.0
263,122.16174549583334,122.31874516875,72.0,104.0
264,122.40174499583334,122.57274463958333,70.0,103.0
265,122.64174449583334,122.83674408958333,69.0,98.0
266,122.88174399583333,123.14574344583333,67.0,108.0
267,124.80173999583334,125.123739325,74.0,117.0
268,125.28173899583334,125.55773842083333,70.0,116.0
269,125.76173799583334,126.07973733333334,72.0,113.0
270,126.24173699583334,126.46473653125,67.0,107.0
271,126.72173599583334,126.91273559791667,74.0,113.0
272,126.96173549583334,127.1937350125,72.0,113.0
273,127.20173499583333,127.42573452916668,70.0,116.0
274,127.44173449583334,127.67273401458334,72.0,107.0
275,127.68173399583334,127.9737333875,67.0,113.0
276,128.64173199583334,129.15173093333334,74.0,93.0
277,129.12173099583333,129.43973033333333,70.0,119.0
278,129.60172999583332,129.93772929583335,72.0,120.0
279,130.08172899583334,130.27972858333334,72.0,117.0
280,130.56172799583334,130.82072745625,77.0,108.0
281,130.80172749583335,131.0697269375,74.0,110.0
282,131.04172699583333,131.38072628958335,69.0,113.0
283,131.52172599583335,131.78272545208333,70.0,119.0
284,132.00172499583334,132.2097245625,70.0,123.0
285,132.24172449583332,132.48072399791667,69.0,108.0
286,132.48172399583333,132.88672315208333,67.0,114.0
287,132.96172299583333,133.18072253958334,69.0,113.0
288,133.20172249583334,133.36972214583335,70.0,113.0
289,133.44172199583335,133.70872143958334,72.0,117.0
290,133.92172099583334,134.19372042916666,65.0,116.0
291,134.40171999583333,134.70271936875,79.0,120.0
292,134.64171949583334,134.84971906250001,77.0,116.0
293,134.88171899583332,135.1677184,74.0,117.0
294,135.36171799583335,135.65471738541666,74.0,119.0
295,136.08171649583335,136.31671600625,72.0,108.0
296,136.32171599583333,136.57071547708333,70.0,119.0
297,136.80171499583335,137.11371434583333,74.0,119.0
298,137.28171399583334,137.49871354375,72.0,117.0
299,137.52171349583332,137.75071301875,74.0,114.0
300,137.76171299583334,137.87071276875,72.0,110.0
301,138.00171249583335,138.39671167291667,77.0,116.0
302,138.72171099583335,138.80871081458335,77.0,117.0
303,138.96171049583333,139.03771033750002,77.0,113.0
304,139.20170999583334,139.27870983541666,77.0,114.0
305,139.44170949583335,139.52170932916667,77.0,114.0
306,139.68170899583333,139.84970864583335,77.0,116.0
307,140.16170799583332,140.483707325,74.0,117.0
308,140.64170699583335,140.91770642083333,70.0,116.0
309,141.12170599583334,141.43970533333334,72.0,113.0
310,141.60170499583333,141.82470453125,67.0,107.0
311,142.08170399583335,142.27270359791666,74.0,113.0
312,142.32170349583333,142.5537030125,72.0,113.0
313,142.56170299583334,142.78570252916668,70.0,116.0
314,142.80170249583333,143.03270201458335,72.0,107.0
315,143.04170199583334,143.3337013875,67.0,113.0
316,144.00169999583335,144.51169893333335,74.0,93.0
317,144.48169899583334,144.79969833333334,70.0,119.0
318,144.96169799583333,145.29769729583333,72.0,120.0
319,145.44169699583333,145.63969658333335,72.0,117.0
320,145.92169599583335,146.18069545625,77.0,108.0
321,146.16169549583333,146.42969493750002,74.0,110.0
322,146.40169499583334,146.74069428958333,69.0,113.0
323,146.88169399583333,147.14269345208334,70.0,119.0
324,147.36169299583335,147.5696925625,70.0,123.0
325,147.60169249583333,147.84069199791668,69.0,108.0
326,147.84169199583334,148.24669115208334,67.0,114.0
327,148.32169099583334,148.54069053958335,69.0,113.0
328,148.56169049583335,148.72969014583333,70.0,113.0
329,148.80168999583333,149.06868943958335,72.0,117.0
330,149.28168899583335,149.55368842916667,65.0,116.0
331,149.76168799583334,150.06268736875,79.0,120.0
332,150.00168749583335,150.2096870625,77.0,116.0
333,150.24168699583333,150.5276864,74.0,117.0
334,150.72168599583333,151.01468538541667,74.0,119.0
335,151.44168449583333,151.67668400625,72.0,108.0
336,151.68168399583334,151.93068347708333,70.0,119.0
337,152.16168299583333,152.47368234583334,74.0,119.0
338,152.64168199583335,152.85868154375,72.0,117.0
339,153.12168099583334,153.4496803125,65.0,116.0
340,153.60167999583334,153.89867937708334,67.0,114.0
341,154.08167899583333,154.37867837708333,70.0,119.0
342,154.56167799583335,154.88267732708334,67.0,117.0
343,170.88164399583334,171.203643325,74.0,117.0
344,171.36164299583334,171.63764242083334,70.0,116.0
345,171.84164199583333,172.15964133333333,72.0,113.0
346,172.32164099583335,172.54464053125,67.0,107.0
347,172.80163999583334,172.99263959791668,74.0,113.0
348,173.04163949583335,173.2736390125,72.0,113.0
349,173.28163899583333,173.50563852916667,70.0,116.0
350,173.52163849583334,173.75263801458334,72.0,107.0
351,173.76163799583333,174.0536373875,67.0,113.0
352,174.72163599583334,175.23163493333334,74.0,93.0
353,175.20163499583333,175.51963433333333,70.0,119.0
354,175.68163399583335,176.01763329583335,72.0,120.0
355,176.16163299583334,176.35963258333334,72.0,117.0
356,176.64163199583334,176.90063145625,77.0,108.0
357,176.88163149583335,177.1496309375,74.0,110.0
358,177.12163099583333,177.46063028958335,69.0,113.0
359,177.60162999583335,177.86262945208333,70.0,119.0
360,178.08162899583334,178.2896285625,70.0,123.0
361,178.32162849583335,178.56062799791667,69.0,108.0
362,178.56162799583333,178.96662715208333,67.0,114.0
363,179.04162699583333,179.26062653958334,69.0,113.0
364,179.28162649583334,179.44962614583335,70.0,113.0
365,179.52162599583335,179.78862543958334,72.0,117.0
366,180.00162499583334,180.27362442916666,65.0,116.0
367,180.48162399583333,180.78262336875,79.0,120.0
368,180.72162349583334,180.9296230625,77.0,116.0
369,180.96162299583335,181.2476224,74.0,117.0
370,181.44162199583334,181.73462138541666,74.0,119.0
371,182.16162049583335,182.39662000625,72.0,108.0
372,182.40161999583333,182.65061947708335,70.0,119.0
373,182.88161899583335,183.19361834583333,74.0,119.0
374,183.36161799583334,183.57861754375,72.0,117.0
375,183.60161749583335,183.83061701875002,74.0,114.0
376,183.84161699583333,183.95061676875,72.0,110.0
377,184.08161649583334,184.47661567291667,77.0,116.0
378,184.80161499583335,184.88861481458335,77.0,117.0
379,185.04161449583333,185.11761433750002,77.0,113.0
380,185.28161399583334,185.35861383541666,77.0,114.0
381,185.52161349583335,185.60161332916667,77.0,114.0
382,185.76161299583333,185.92961264583334,77.0,116.0
383,186.24161199583335,186.563611325,74.0,117.0
384,186.72161099583334,186.99761042083333,70.0,116.0
385,187.20160999583334,187.51960933333334,72.0,113.0
386,187.68160899583333,187.90460853125,67.0,107.0
387,188.16160799583335,188.35260759791666,74.0,113.0
388,188.40160749583333,188.6336070125,72.0,113.0
389,188.64160699583334,188.86560652916668,70.0,116.0
390,188.88160649583335,189.11260601458335,72.0,107.0
391,189.12160599583333,189.4136053875,67.0,113.0
392,190.08160399583335,190.59160293333335,74.0,93.0
393,190.56160299583334,190.87960233333334,70.0,119.0
394,191.04160199583333,191.37760129583333,72.0,120.0
395,191.52160099583335,191.71960058333335,72.0,117.0
396,192.00159999583335,192.26059945625002,77.0,108.0
397,192.24159949583333,192.50959893750002,74.0,110.0
398,192.48159899583334,192.82059828958333,69.0,113.0
399,192.96159799583333,193.22259745208333,70.0,119.0
400,193.44159699583335,193.6495965625,70.0,123.0
401,193.68159649583333,193.92059599791668,69.0,108.0
402,193.92159599583334,194.32659515208334,67.0,114.0
403,194.40159499583334,194.62059453958335,69.0,113.0
404,194.64159449583335,194.80959414583333,70.0,113.0
405,194.88159399583333,195.14859343958335,72.0,117.0
406,195.36159299583335,195.63359242916667,65.0,116.0
407,195.84159199583334,196.14259136875,79.0,120.0
408,196.08159149583335,196.2895910625,77.0,116.0
409,196.32159099583333,196.6075904,74.0,117.0
410,196.80158999583335,197.09458938541667,74.0,119.0
411,197.52158849583333,197.75658800625,72.0,108.0
412,197.76158799583334,198.01058747708333,70.0,119.0
413,198.24158699583333,198.55358634583334,74.0,119.0
414,198.72158599583335,198.93858554375,72.0,117.0
415,199.20158499583334,199.52958431250002,65.0,116.0
416,199.68158399583334,199.97858337708334,67.0,114.0
417,200.16158299583333,200.45858237708333,70.0,119.0
418,200.64158199583335,200.96258132708334,67.0,117.0
