,start,end,pitch,velocity
0,1.9219959958333335,2.1619954958333336,43.0,98.0
1,2.1619954958333336,2.4019949958333333,55.0,93.0
2,1.9219959958333335,2.5739946375000002,62.0,91.0
3,1.9219959958333335,2.5739946375000002,70.0,88.0
4,1.9219959958333335,2.5859946125,67.0,92.0
5,2.4019949958333333,2.6419944958333335,43.0,98.0
6,2.6419944958333335,2.8819939958333336,55.0,98.0
7,2.8819939958333336,3.1219934958333333,43.0,102.0
8,3.1219934958333333,3.3619929958333334,55.0,107.0
9,3.3619929958333334,3.6019924958333336,43.0,107.0
10,2.6419944958333335,3.645992404166667,70.0,88.0
11,2.6419944958333335,3.6539923875,62.0,96.0
12,2.6419944958333335,3.6739923458333337,67.0,96.0
13,3.6019924958333336,3.8419919958333333,55.0,107.0
14,3.8419919958333333,4.081991495833334,43.0,102.0
15,4.081991495833334,4.321990995833334,55.0,107.0
16,3.8419919958333333,4.503990616666667,62.0,92.0
17,3.8419919958333333,4.50899060625,70.0,87.0
18,3.8419919958333333,4.528990564583333,67.0,91.0
19,4.321990995833334,4.561990495833333,43.0,102.0
20,4.561990495833333,4.801989995833334,55.0,107.0
21,4.801989995833334,5.041989495833334,43.0,100.0
22,5.041989495833334,5.161989245833333,55.0,116.0
23,4.561990495833333,5.179989208333334,62.0,93.0
24,4.561990495833333,5.20798915,70.0,87.0
25,4.561990495833333,5.208989147916667,67.0,92.0
26,5.281988995833333,5.401988745833333,43.0,116.0
27,5.281988995833333,5.425988695833333,70.0,79.0
28,5.281988995833333,5.457988629166667,67.0,89.0
29,5.281988995833333,5.476988589583334,62.0,89.0
30,5.521988495833334,5.641988245833334,55.0,116.0
31,5.7619879958333335,6.0069874854166665,41.0,93.0
32,6.001987495833333,6.258986960416667,53.0,87.0
33,5.7619879958333335,6.45298655625,69.0,89.0
34,5.7619879958333335,6.45598655,60.0,90.0
35,5.7619879958333335,6.47698650625,65.0,92.0
36,6.241986995833334,6.502986452083333,41.0,96.0
37,6.4819864958333335,6.72898598125,53.0,90.0
38,6.721985995833333,6.9839854500000005,41.0,96.0
39,6.961985495833334,7.210984977083333,53.0,89.0
40,7.2019849958333335,7.475984425,41.0,102.0
41,6.4819864958333335,7.561984245833334,60.0,91.0
42,6.4819864958333335,7.5719842250000005,69.0,91.0
43,7.441984495833333,7.5979841708333336,53.0,93.0
44,6.4819864958333335,7.609984145833334,65.0,92.0
45,7.681983995833334,7.935983466666667,43.0,92.0
46,7.9219834958333335,8.176982964583333,55.0,89.0
47,7.681983995833334,8.31898266875,62.0,87.0
48,7.681983995833334,8.323982658333334,70.0,85.0
49,7.681983995833334,8.332982639583333,67.0,88.0
50,8.161982995833334,8.422982452083334,43.0,94.0
51,8.401982495833334,8.635982008333334,55.0,91.0
52,8.641981995833333,8.915981425,43.0,96.0
53,8.881981495833333,9.121980995833333,55.0,90.0
54,8.401982495833334,9.14398095,62.0,88.0
55,8.401982495833334,9.165980904166666,67.0,89.0
56,8.401982495833334,9.204980822916667,70.0,86.0
57,9.121980995833333,9.376980464583333,43.0,104.0
58,9.361980495833334,9.471980266666668,55.0,96.0
59,9.601979995833334,9.8579794625,39.0,103.0
60,9.841979495833334,10.092978972916667,51.0,90.0
61,9.601979995833334,10.216978714583334,67.0,91.0
62,9.601979995833334,10.23297868125,70.0,86.0
63,9.601979995833334,10.240978664583334,63.0,86.0
64,10.081978995833333,10.350978435416668,39.0,97.0
65,10.321978495833333,10.561977995833333,51.0,91.0
66,10.561977995833333,10.830977435416667,39.0,95.0
67,10.801977495833334,11.052976972916667,51.0,97.0
68,10.321978495833333,11.170976727083334,63.0,87.0
69,10.321978495833333,11.193976679166667,67.0,98.0
70,10.321978495833333,11.206976652083334,70.0,85.0
71,11.041976995833334,11.340976372916668,39.0,103.0
72,11.281976495833334,11.449976145833334,51.0,100.0
73,11.521975995833333,11.801975412500001,38.0,92.0
74,11.761975495833333,11.979975041666668,50.0,87.0
75,11.521975995833333,12.027974941666667,62.0,88.0
76,11.521975995833333,12.034974927083335,69.0,89.0
77,11.521975995833333,12.165974654166668,65.0,91.0
78,12.001974995833335,12.203974575,38.0,108.0
79,12.241974495833334,12.53697388125,70.0,88.0
80,12.241974495833334,12.592973764583334,62.0,92.0
81,12.241974495833334,12.624973697916667,43.0,86.0
82,12.241974495833334,12.63297368125,67.0,91.0
83,12.721973495833334,12.826973277083333,69.0,84.0
84,12.721973495833334,12.849973229166666,38.0,87.0
85,12.721973495833334,12.849973229166666,65.0,88.0
86,12.721973495833334,12.857973212500001,62.0,84.0
87,12.721973495833334,12.867973191666668,50.0,91.0
88,12.961972995833333,13.236972422916667,62.0,88.0
89,12.961972995833333,13.27197235,43.0,91.0
90,12.961972995833333,13.281972329166667,67.0,91.0
91,12.961972995833333,13.288972314583333,70.0,89.0
92,13.441971995833335,13.694971468750001,43.0,96.0
93,13.681971495833334,13.954970927083334,55.0,88.0
94,13.441971995833335,14.104970614583333,62.0,89.0
95,13.441971995833335,14.127970566666667,67.0,91.0
96,13.441971995833335,14.136970547916667,70.0,87.0
97,13.921970995833334,14.191970433333333,43.0,98.0
98,14.161970495833334,14.311970183333333,55.0,91.0
99,14.401969995833333,14.66696944375,36.0,98.0
100,14.641969495833333,14.871969016666668,48.0,88.0
101,14.401969995833333,15.102968535416666,67.0,88.0
102,14.401969995833333,15.109968520833334,63.0,88.0
103,14.401969995833333,15.112968514583335,72.0,91.0
104,14.881968995833335,15.14696844375,36.0,94.0
105,15.121968495833334,15.23096826875,48.0,88.0
106,15.361967995833334,15.621967454166667,41.0,98.0
107,15.601967495833334,15.836967006250001,53.0,86.0
108,15.361967995833334,15.916966839583333,60.0,86.0
109,15.361967995833334,15.93896679375,69.0,88.0
110,15.361967995833334,16.019966625000002,65.0,91.0
111,15.841966995833333,16.105966445833335,41.0,96.0
112,16.081966495833335,16.309966020833333,53.0,92.0
113,16.321965995833335,16.587965441666668,43.0,84.0
114,16.561965495833334,16.79696500625,55.0,88.0
115,16.081966495833335,16.984964614583333,62.0,89.0
116,16.081966495833335,16.987964608333336,67.0,89.0
117,16.081966495833335,17.003964575,70.0,95.0
118,16.801964995833334,17.075964425000002,43.0,96.0
119,17.041964495833334,17.152964264583336,55.0,91.0
120,17.281963995833333,17.532963472916666,43.0,91.0
121,17.521963495833333,17.758963002083334,55.0,87.0
122,17.281963995833333,17.9219626625,62.0,92.0
123,17.281963995833333,17.926962652083333,70.0,86.0
124,17.281963995833333,17.947962608333334,67.0,91.0
125,17.761962995833333,18.01496246875,43.0,92.0
126,18.001962495833332,18.243961991666666,55.0,92.0
127,18.241961995833336,18.499961458333335,43.0,88.0
128,18.481961495833335,18.709961020833333,55.0,89.0
129,18.001962495833332,18.8939606375,62.0,90.0
130,18.001962495833332,18.933960554166667,67.0,88.0
131,18.001962495833332,18.955960508333334,70.0,86.0
132,18.721960995833335,19.009960395833335,43.0,96.0
133,18.961960495833335,19.055960300000002,55.0,98.0
134,19.201959995833334,19.453959470833333,39.0,100.0
135,19.441959495833334,19.708958939583333,51.0,84.0
136,19.201959995833334,19.82695869375,67.0,94.0
137,19.201959995833334,19.832958681250002,63.0,89.0
138,19.201959995833334,19.836958672916666,70.0,95.0
139,19.681958995833334,19.930958477083333,39.0,106.0
140,19.921958495833334,20.14295803541667,51.0,85.0
141,20.161957995833333,20.41495746875,39.0,100.0
142,19.921958495833334,20.533957220833333,67.0,98.0
143,19.921958495833334,20.535957216666667,63.0,88.0
144,19.921958495833334,20.563957158333334,70.0,87.0
145,20.401957495833333,20.629957020833334,51.0,91.0
146,20.641956995833333,20.789956687500002,63.0,86.0
147,20.641956995833333,20.81095664375,70.0,86.0
148,20.641956995833333,20.878956502083334,67.0,94.0
149,20.641956995833333,20.916956422916666,39.0,103.0
150,20.881956495833332,20.99995625,51.0,97.0
151,21.121955995833336,21.391955433333333,41.0,102.0
152,21.361955495833335,21.59495501041667,53.0,87.0
153,21.121955995833336,21.74095470625,60.0,88.0
154,21.121955995833336,21.746954693750002,65.0,94.0
155,21.121955995833336,21.787954608333333,69.0,94.0
156,21.601954995833335,21.85495446875,41.0,104.0
157,21.841954495833335,22.0739540125,53.0,87.0
158,22.081953995833334,22.342953452083336,41.0,102.0
159,21.841954495833335,22.449953229166667,60.0,88.0
160,21.841954495833335,22.45495321875,65.0,107.0
161,21.841954495833335,22.53695304791667,69.0,92.0
162,22.321953495833334,22.547953025,53.0,87.0
163,22.561952995833334,22.680952747916667,69.0,84.0
164,22.561952995833334,22.689952729166667,65.0,89.0
165,22.561952995833334,22.760952581250002,60.0,89.0
166,22.561952995833334,22.82395245,41.0,91.0
167,22.801952495833334,22.91495226041667,62.0,73.0
168,22.801952495833334,22.9739521375,53.0,94.0
169,23.041951995833333,23.296951464583334,43.0,91.0
170,23.281951495833333,23.524950989583335,55.0,89.0
171,23.041951995833333,23.586950860416668,67.0,94.0
172,23.041951995833333,23.64895073125,62.0,93.0
173,23.041951995833333,23.671950683333336,58.0,86.0
174,23.521950995833333,23.769950479166667,43.0,93.0
175,23.761950495833336,24.0059499875,55.0,93.0
176,24.001949995833336,24.26194945416667,43.0,92.0
177,24.241949495833335,24.48394899166667,55.0,90.0
178,23.761950495833336,24.717948504166667,62.0,96.0
179,23.761950495833336,24.727948483333336,58.0,87.0
180,24.481948995833335,24.729948479166666,43.0,102.0
181,23.761950495833336,24.7379484625,67.0,98.0
182,24.721948495833335,24.959948,55.0,98.0
183,24.961947995833334,25.20994747916667,43.0,108.0
184,25.201947495833334,25.422947035416666,55.0,88.0
185,24.961947995833334,25.462946952083335,62.0,102.0
186,24.961947995833334,25.483946908333333,67.0,107.0
187,24.961947995833334,25.504946864583335,58.0,89.0
188,25.441946995833334,25.6859464875,43.0,100.0
189,25.681946495833333,25.924945989583335,55.0,92.0
190,25.921945995833333,26.194945427083333,43.0,104.0
191,25.681946495833333,26.217945379166668,58.0,86.0
192,25.681946495833333,26.219945375,67.0,93.0
193,25.681946495833333,26.224945364583334,62.0,94.0
194,26.161945495833333,26.386945027083335,55.0,90.0
195,26.401944995833333,26.671944433333334,43.0,104.0
196,26.401944995833333,26.680944414583333,67.0,104.0
197,26.401944995833333,26.709944354166666,58.0,95.0
198,26.641944495833336,26.747944275000002,55.0,98.0
199,26.401944995833333,26.7539442625,62.0,107.0
200,26.881943995833335,27.144943447916667,39.0,103.0
201,27.121943495833335,27.343943033333336,51.0,84.0
202,26.881943995833335,27.46294278541667,63.0,90.0
203,26.881943995833335,27.472942764583333,58.0,88.0
204,26.881943995833335,27.47694275625,67.0,98.0
205,27.361942995833335,27.61494246875,39.0,97.0
206,27.601942495833335,27.829942020833336,51.0,87.0
207,27.841941995833334,28.08894148125,39.0,100.0
208,27.601942495833335,28.10394145,67.0,96.0
209,27.601942495833335,28.12294141041667,58.0,91.0
210,27.601942495833335,28.134941385416667,63.0,90.0
211,28.081941495833334,28.298941043750002,51.0,95.0
212,28.321940995833334,28.495940633333333,58.0,100.0
213,28.321940995833334,28.549940520833335,67.0,107.0
214,28.321940995833334,28.554940510416667,63.0,93.0
215,28.321940995833334,28.57594046666667,39.0,103.0
216,28.561940495833333,28.72494015625,51.0,106.0
217,28.801939995833333,29.07893941875,41.0,100.0
218,29.041939495833333,29.27793900416667,53.0,93.0
219,28.801939995833333,29.4179387125,65.0,98.0
220,28.801939995833333,29.43393867916667,57.0,90.0
221,28.801939995833333,29.44793865,60.0,94.0
222,29.281938995833336,29.5379384625,41.0,100.0
223,29.521938495833336,29.766937985416668,53.0,93.0
224,29.761937995833335,30.006937485416667,41.0,104.0
225,29.521938495833336,30.049937395833336,65.0,102.0
226,29.521938495833336,30.06993735416667,57.0,89.0
227,29.521938495833336,30.082937327083336,60.0,102.0
228,30.001937495833335,30.223937033333335,53.0,91.0
229,30.241936995833335,30.352936764583333,57.0,96.0
230,30.241936995833335,30.382936702083335,65.0,98.0
231,30.241936995833335,30.395936675,60.0,102.0
232,30.241936995833335,30.510936435416667,41.0,102.0
233,30.481936495833335,30.724935989583333,53.0,100.0
234,30.721935995833334,30.98493544791667,43.0,91.0
235,30.721935995833334,31.098935210416666,67.0,92.0
236,30.721935995833334,31.16693506875,62.0,98.0
237,30.961935495833334,31.222934952083335,55.0,92.0
238,30.721935995833334,31.259934875000003,58.0,86.0
239,31.201934995833334,31.4459344875,43.0,104.0
240,31.441934495833333,31.69593396666667,55.0,94.0
241,31.441934495833333,31.883933575,67.0,98.0
242,31.441934495833333,31.900933539583335,58.0,90.0
243,31.441934495833333,31.911933516666668,62.0,107.0
244,31.681933995833333,31.95993341666667,43.0,104.0
245,31.921933495833333,32.1539330125,55.0,92.0
246,32.16193299583333,32.426932443750005,43.0,102.0
247,32.401932495833336,32.61293205625,55.0,93.0
248,32.64193199583333,32.88493148958334,43.0,107.0
249,32.881931495833335,33.11793100416667,55.0,91.0
250,32.64193199583333,33.24993072916667,70.0,88.0
251,32.64193199583333,33.25493071875,62.0,92.0
252,32.64193199583333,33.27393067916667,67.0,91.0
253,33.12193099583333,33.37693046458333,43.0,102.0
254,33.361930495833334,33.59493001041667,55.0,98.0
255,33.60192999583334,33.88392940833334,43.0,107.0
256,33.361930495833334,33.92292932708333,62.0,100.0
257,33.361930495833334,33.93392930416667,70.0,87.0
258,33.361930495833334,33.94092928958334,67.0,93.0
259,33.841929495833334,34.06592902916667,55.0,96.0
260,34.08192899583334,34.13492888541667,70.0,83.0
261,34.08192899583334,34.283928575000004,67.0,93.0
262,34.08192899583334,34.342928452083335,43.0,108.0
263,34.08192899583334,34.3859283625,62.0,98.0
264,34.32192849583333,34.4579282125,55.0,107.0
265,34.56192799583334,34.82792744166667,41.0,96.0
266,34.80192749583333,35.04692698541667,53.0,90.0
267,34.56192799583334,35.15192676666667,69.0,91.0
268,34.56192799583334,35.173926720833336,60.0,91.0
269,34.56192799583334,35.19892666875,65.0,100.0
270,35.041926995833336,35.30692644375,41.0,96.0
271,35.28192649583333,35.50292603541667,53.0,91.0
272,35.521925995833335,35.803925408333335,41.0,100.0
273,35.28192649583333,35.82392536666667,60.0,91.0
274,35.28192649583333,35.835925341666666,69.0,91.0
275,35.28192649583333,35.86392528333334,65.0,94.0
276,35.76192549583333,35.98692502708334,53.0,98.0
277,36.001924995833335,36.227924525,60.0,92.0
278,36.001924995833335,36.275924425,69.0,90.0
279,36.001924995833335,36.28992439583333,41.0,102.0
280,36.001924995833335,36.313924345833335,65.0,92.0
281,36.24192449583334,36.34892427291667,53.0,102.0
282,36.481923995833334,36.71792350416667,38.0,92.0
283,36.72192349583334,36.959923,50.0,89.0
284,36.481923995833334,37.01592288333333,69.0,98.0
285,36.481923995833334,37.05392280416667,62.0,92.0
286,36.481923995833334,37.068922772916665,65.0,107.0
287,36.96192299583333,37.22492244791667,38.0,107.0
288,37.20192249583334,37.43092201875,50.0,92.0
289,37.44192199583333,37.70092145625,38.0,98.0
290,37.20192249583334,37.763921325,65.0,104.0
291,37.20192249583334,37.7759213,69.0,94.0
292,37.20192249583334,37.781921287500005,62.0,98.0
293,37.681921495833336,37.90092103958334,50.0,94.0
294,37.92192099583333,38.10892060625,69.0,91.0
295,37.92192099583333,38.115920591666665,65.0,104.0
296,37.92192099583333,38.18592044583333,38.0,104.0
297,38.161920495833336,38.26692027708334,50.0,110.0
298,37.92192099583333,38.33792012916667,62.0,98.0
299,38.40191999583333,38.682919410416666,43.0,93.0
300,38.641919495833335,38.86091903958334,55.0,93.0
301,38.40191999583333,39.021918704166666,62.0,98.0
302,38.40191999583333,39.021918704166666,67.0,107.0
303,38.40191999583333,39.04591865416667,58.0,103.0
304,38.88191899583333,39.13291847291667,43.0,96.0
305,39.121918495833334,39.340918039583336,55.0,91.0
306,39.36191799583334,39.6299174375,43.0,98.0
307,39.121918495833334,39.640917414583335,62.0,102.0
308,39.121918495833334,39.64391740833334,67.0,108.0
309,39.121918495833334,39.67391734583333,58.0,95.0
310,39.601917495833334,39.831917016666665,55.0,92.0
311,39.84191699583334,40.038916585416665,58.0,91.0
312,39.84191699583334,40.05891654375,62.0,100.0
313,39.84191699583334,40.0859164875,67.0,98.0
314,39.84191699583334,40.13191639166667,43.0,104.0
315,40.08191649583333,40.1579163375,55.0,98.0
316,40.321915995833336,40.59791542083333,39.0,106.0
317,40.56191549583333,40.7819150375,51.0,97.0
318,40.321915995833336,40.89991479166667,67.0,113.0
319,40.321915995833336,40.91191476666667,63.0,95.0
320,40.321915995833336,40.921914745833334,70.0,86.0
321,40.801914995833336,41.07391442916667,39.0,106.0
322,41.04191449583333,41.25391405416667,51.0,87.0
323,41.281913995833335,41.55191343333333,39.0,106.0
324,41.04191449583333,41.565913404166665,63.0,100.0
325,41.04191449583333,41.56891339791667,67.0,110.0
326,41.04191449583333,41.59691333958334,70.0,97.0
327,41.52191349583333,41.7419130375,51.0,100.0
328,41.761912995833335,41.99491251041667,67.0,114.0
329,41.761912995833335,42.009912479166665,63.0,100.0
330,41.761912995833335,42.023912450000005,70.0,95.0
331,41.761912995833335,42.057912379166666,39.0,106.0
332,42.00191249583334,42.131912225,51.0,106.0
333,42.241911995833334,42.48691148541667,41.0,98.0
334,42.48191149583334,42.69391105416667,53.0,89.0
335,42.241911995833334,42.85391072083333,69.0,92.0
336,42.241911995833334,42.88991064583333,65.0,100.0
337,42.241911995833334,42.89191064166667,60.0,94.0
338,42.72191099583333,42.97591046666667,41.0,102.0
339,42.96191049583334,43.17391005416667,53.0,93.0
340,43.20190999583333,43.46390945,41.0,104.0
341,42.96191049583334,43.55890925208333,60.0,96.0
342,42.96191049583334,43.564909239583336,69.0,94.0
343,42.96191049583334,43.568909231250004,65.0,104.0
344,43.441909495833336,43.667909025,53.0,96.0
345,43.68190899583333,43.97490838541667,60.0,94.0
346,43.68190899583333,43.98490836458333,41.0,100.0
347,43.68190899583333,43.99490834375,69.0,89.0
348,43.921908495833335,44.01790829583334,53.0,100.0
349,43.68190899583333,44.01990829166667,65.0,98.0
350,44.16190799583333,44.42190745416667,38.0,104.0
351,44.401907495833335,44.61890704375,50.0,94.0
352,44.16190799583333,44.75190676666667,69.0,100.0
353,44.16190799583333,44.75790675416667,62.0,92.0
354,44.16190799583333,44.76990672916667,65.0,110.0
355,44.64190699583334,44.890906477083334,38.0,108.0
356,44.881906495833334,45.077906087500004,50.0,96.0
357,45.12190599583334,45.40490540625,38.0,96.0
358,44.881906495833334,45.491905225000004,69.0,90.0
359,44.881906495833334,45.49490521875,65.0,108.0
360,44.881906495833334,45.50190520416667,62.0,104.0
361,45.361905495833334,45.57890504375,50.0,98.0
362,45.60190499583334,45.75090468541667,69.0,88.0
363,45.60190499583334,45.77590463333333,65.0,107.0
364,45.60190499583334,45.85890446041667,38.0,110.0
365,45.84190449583333,45.94890427291667,50.0,108.0
366,45.60190499583334,45.969904229166666,62.0,102.0
367,46.081903995833336,46.35090343541667,43.0,94.0
368,46.32190349583333,46.571902975,55.0,89.0
369,46.081903995833336,46.686902735416666,67.0,107.0
370,46.081903995833336,46.709902687500005,62.0,102.0
371,46.081903995833336,46.71490267708334,58.0,100.0
372,46.561902995833336,46.82190245416667,43.0,102.0
373,46.80190249583333,47.05890196041667,55.0,89.0
374,46.80190249583333,47.29590146666667,67.0,107.0
375,47.041901995833335,47.30490144791667,43.0,100.0
376,46.80190249583333,47.312901431250005,62.0,108.0
377,46.80190249583333,47.314901427083335,58.0,91.0
378,47.28190149583334,47.50890102291667,55.0,91.0
379,47.521900995833334,47.765900487500005,67.0,113.0
380,47.521900995833334,47.78290045208333,58.0,93.0
381,47.521900995833334,47.792900431250004,43.0,100.0
382,47.521900995833334,47.85690029791667,62.0,100.0
383,47.76190049583334,47.98590002916667,55.0,94.0
384,48.001899995833334,48.268899439583336,43.0,107.0
385,48.24189949583334,48.461899037500004,55.0,92.0
386,48.001899995833334,48.48789898333334,67.0,108.0
387,48.001899995833334,48.541898870833336,62.0,113.0
388,48.001899995833334,48.57489880208333,58.0,103.0
389,48.48189899583333,48.73389847083334,43.0,98.0
390,48.72189849583334,48.96989797916667,55.0,90.0
391,48.96189799583333,49.22289745208334,43.0,98.0
392,48.72189849583334,49.226897443750005,67.0,110.0
393,48.72189849583334,49.23889741875,58.0,100.0
394,48.72189849583334,49.259897375,62.0,108.0
395,49.201897495833336,49.424897031250005,55.0,92.0
396,49.44189699583333,49.69889646041667,67.0,107.0
397,49.44189699583333,49.722896410416666,43.0,102.0
398,49.44189699583333,49.72889639791667,58.0,97.0
399,49.44189699583333,49.78289628541667,62.0,102.0
400,49.681896495833335,49.822896202083335,55.0,96.0
401,49.92189599583333,50.18489544791667,39.0,106.0
402,50.161895495833335,50.39289501458334,51.0,88.0
403,49.92189599583333,50.48689481875,67.0,113.0
404,49.92189599583333,50.516894756250004,63.0,109.0
405,49.92189599583333,50.52989472916667,58.0,109.0
406,50.40189499583334,50.644894489583336,39.0,100.0
407,50.641894495833334,50.86889402291667,51.0,87.0
408,50.88189399583334,51.14589344583334,39.0,100.0
409,50.641894495833334,51.16889339791667,67.0,116.0
410,50.641894495833334,51.20489332291667,58.0,103.0
411,50.641894495833334,51.21189330833334,63.0,100.0
412,51.12189349583333,51.3538930125,51.0,103.0
413,51.36189299583334,51.5518926,58.0,106.0
414,51.36189299583334,51.56289257708333,67.0,107.0
415,51.36189299583334,51.661892370833336,39.0,103.0
416,51.36189299583334,51.711892266666666,63.0,106.0
417,51.60189249583333,51.754892177083335,51.0,109.0
418,51.841891995833336,52.09889146041667,41.0,104.0
419,52.08189149583333,52.29389105416667,53.0,88.0
420,51.841891995833336,52.398890835416665,65.0,108.0
421,51.841891995833336,52.437890754166666,57.0,94.0
422,51.841891995833336,52.44089074791667,60.0,104.0
423,52.321890995833336,52.59389042916667,41.0,102.0
424,52.56189049583333,52.82188995416667,53.0,100.0
425,52.801889995833335,53.067889441666665,41.0,100.0
426,52.56189049583333,53.1178893375,65.0,104.0
427,52.56189049583333,53.13788929583333,57.0,102.0
428,52.56189049583333,53.14888927291667,60.0,113.0
429,53.04188949583334,53.25388905416667,53.0,98.0
430,53.281888995833334,53.58088837291667,41.0,104.0
431,53.281888995833334,53.600888331250005,57.0,102.0
432,53.281888995833334,53.603888325,65.0,94.0
433,53.281888995833334,53.675888175000004,60.0,98.0
434,53.52188849583334,53.67988816666667,53.0,104.0
435,53.761887995833334,54.025887445833334,46.0,87.0
436,53.761887995833334,54.18288711875,62.0,114.0
437,54.00188749583334,54.27788692083333,58.0,86.0
438,53.761887995833334,54.34388678333333,65.0,108.0
439,54.24188699583333,54.50588644583333,46.0,87.0
440,54.481886495833336,54.742885952083334,58.0,87.0
441,54.72188599583333,54.96988547916667,46.0,91.0
442,54.481886495833336,55.05988529166667,65.0,113.0
443,54.481886495833336,55.06588527916667,62.0,113.0
444,54.961885495833336,55.188885022916665,58.0,85.0
445,55.20188499583333,55.42488453125,65.0,116.0
446,55.20188499583333,55.48388440833334,46.0,93.0
447,55.20188499583333,55.5538842625,62.0,116.0
448,55.441884495833335,55.59788417083333,58.0,91.0
449,55.68188399583334,55.9498834375,39.0,100.0
450,55.68188399583334,55.99188335,70.0,97.0
451,55.68188399583334,55.996883339583334,67.0,114.0
452,55.68188399583334,56.008883314583336,63.0,97.0
453,55.921883495833335,56.13888304375,51.0,86.0
454,56.16188299583334,56.34688261041667,70.0,83.0
455,56.16188299583334,56.35288259791667,63.0,91.0
456,56.16188299583334,56.36288257708333,67.0,110.0
457,56.401882495833334,56.43488242708334,66.0,74.0
458,56.16188299583334,56.438882418750005,39.0,103.0
459,56.401882495833334,56.52788223333334,51.0,90.0
460,56.64188199583334,56.938881377083334,41.0,100.0
461,56.64188199583334,57.08088108125,69.0,94.0
462,56.88188149583333,57.116881006250004,53.0,88.0
463,56.64188199583334,57.13388097083334,60.0,87.0
464,56.64188199583334,57.1378809625,65.0,100.0
465,57.12188099583334,57.41088039375,41.0,100.0
466,57.36188049583333,57.48188024583334,60.0,86.0
467,57.36188049583333,57.48488023958333,69.0,87.0
468,57.36188049583333,57.49288022291667,65.0,88.0
469,57.36188049583333,57.498880210416665,53.0,100.0
470,57.601879995833336,57.8578794625,38.0,104.0
471,57.84187949583333,58.04587907083334,50.0,91.0
472,57.601879995833336,58.15587884166667,62.0,104.0
473,57.601879995833336,58.17787879583334,65.0,110.0
474,57.601879995833336,58.18987877083334,69.0,104.0
475,58.081878995833335,58.35187843333333,38.0,104.0
476,58.32187849583334,58.438878252083335,69.0,87.0
477,58.32187849583334,58.44187824583334,62.0,85.0
478,58.32187849583334,58.484878156250005,50.0,104.0
479,58.32187849583334,58.49487813541667,65.0,91.0
480,58.561877995833335,58.8178774625,43.0,92.0
481,58.561877995833335,58.89987729166667,70.0,113.0
482,58.561877995833335,58.90387728333334,62.0,100.0
483,58.561877995833335,58.91987725,67.0,113.0
484,58.80187749583334,59.01587705,55.0,92.0
485,59.041876995833334,59.28187649583334,62.0,100.0
486,59.041876995833334,59.296876464583335,67.0,102.0
487,59.041876995833334,59.33187639166667,43.0,107.0
488,59.041876995833334,59.33187639166667,70.0,97.0
489,59.28187649583334,59.42187620416667,55.0,102.0
490,59.521875995833334,59.79187543333334,39.0,103.0
491,59.76187549583334,60.002874993750005,51.0,88.0
492,60.00187499583333,60.26287445208334,39.0,100.0
493,60.241874495833336,60.47487401041667,51.0,88.0
494,60.48187399583333,60.74387345,39.0,103.0
495,60.00187499583333,60.773873387500004,67.0,113.0
496,60.00187499583333,60.780873372916666,63.0,97.0
497,60.00187499583333,60.787873358333336,70.0,91.0
498,60.721873495833336,60.962872993750004,51.0,90.0
499,60.96187299583333,61.203872491666665,70.0,86.0
500,60.96187299583333,61.2058724875,63.0,103.0
501,60.96187299583333,61.20687248541667,67.0,114.0
502,60.96187299583333,61.258872377083335,39.0,106.0
503,61.201872495833335,61.32987222916667,51.0,109.0
504,61.44187199583334,61.704871447916666,41.0,108.0
505,61.681871495833335,61.89687104791667,53.0,93.0
506,61.92187099583334,61.95687092291667,60.0,80.0
507,61.92187099583334,62.173870470833336,41.0,104.0
508,62.161870495833334,62.37787004583333,53.0,96.0
509,62.161870495833334,62.435869925,57.0,96.0
510,62.161870495833334,62.635869508333336,65.0,98.0
511,62.40186999583334,62.66186945416667,41.0,107.0
512,62.161870495833334,62.67786942083333,60.0,108.0
513,62.64186949583333,62.85586905,53.0,107.0
514,62.88186899583334,63.13886846041667,57.0,107.0
515,62.88186899583334,63.160868414583334,41.0,107.0
516,62.88186899583334,63.215868300000004,65.0,107.0
517,62.88186899583334,63.23286826458334,60.0,113.0
518,63.12186849583333,63.32586807083334,53.0,108.0
519,63.361867995833336,63.635867425,43.0,98.0
520,63.60186749583333,63.82986702083333,55.0,91.0
521,63.841866995833335,64.11486642708334,43.0,104.0
522,64.08186649583334,64.31486601041667,55.0,94.0
523,63.841866995833335,64.50486561458334,67.0,91.0
524,63.841866995833335,64.53886554375,58.0,106.0
525,63.841866995833335,64.55286551458333,62.0,107.0
526,64.32186599583333,64.60386540833333,43.0,102.0
527,64.56186549583333,64.80286499375,55.0,102.0
528,64.80186499583334,65.07786442083334,43.0,108.0
529,64.80186499583334,65.13986429166667,58.0,100.0
530,64.80186499583334,65.19486417708333,67.0,104.0
531,64.80186499583334,65.25186405833334,62.0,110.0
532,65.04186449583334,65.27286401458333,55.0,91.0
533,65.28186399583333,65.54486344791667,43.0,107.0
534,65.52186349583333,65.73586305,55.0,92.0
535,65.76186299583334,66.03286243125,43.0,108.0
536,66.00186249583334,66.23586200833334,55.0,94.0
537,66.00186249583334,66.47586150833334,62.0,104.0
538,66.00186249583334,66.47886150208333,67.0,94.0
539,66.24186199583333,66.52086141458334,43.0,102.0
540,66.00186249583334,66.52086141458334,58.0,91.0
541,66.48186149583333,66.70486103125,55.0,98.0
542,66.72186099583334,67.00986039583333,43.0,108.0
543,66.96186049583333,67.08286024375,55.0,107.0
544,66.72186099583334,67.09286022291667,58.0,93.0
545,66.72186099583334,67.12386015833333,67.0,108.0
546,66.72186099583334,67.12886014791667,62.0,113.0
547,67.20185999583333,67.46885943958334,41.0,90.0
548,67.44185949583334,67.691858975,53.0,88.0
549,67.68185899583334,67.94685844375,41.0,93.0
550,67.92185849583333,68.14885802291667,53.0,92.0
551,68.16185799583333,68.42685744375001,41.0,93.0
552,67.92185849583333,68.47585734166667,57.0,104.0
553,67.92185849583333,68.47585734166667,65.0,94.0
554,67.92185849583333,68.4898573125,60.0,110.0
555,68.40185749583334,68.61785704583333,53.0,92.0
556,68.64185699583334,68.91085643541668,41.0,102.0
557,68.64185699583334,68.99785625416666,57.0,102.0
558,68.88185649583333,69.011856225,53.0,100.0
559,68.64185699583334,69.11485601041667,65.0,100.0
560,68.64185699583334,69.14285595208334,60.0,114.0
561,69.12185599583333,69.39785542083334,46.0,88.0
562,69.36185549583334,69.6178549625,58.0,88.0
563,69.60185499583334,69.851854475,46.0,89.0
564,69.84185449583333,70.08985397916666,58.0,86.0
565,69.84185449583333,70.3618534125,62.0,104.0
566,70.08185399583334,70.36885339791667,46.0,90.0
567,69.84185449583333,70.37285338958334,65.0,114.0
568,69.84185449583333,70.38685336041667,69.0,96.0
569,70.32185349583334,70.58185295416666,58.0,86.0
570,70.56185299583333,70.84785240000001,46.0,91.0
571,70.80185249583333,70.91785225416668,58.0,93.0
572,70.56185299583333,71.03785200416667,65.0,114.0
573,70.56185299583333,71.03885200208333,62.0,110.0
574,70.56185299583333,71.051851975,69.0,102.0
575,71.04185199583334,71.3218514125,39.0,95.0
576,71.28185149583334,71.52485098958334,51.0,85.0
577,71.04185199583334,71.6818506625,63.0,97.0
578,71.04185199583334,71.74285053541666,70.0,95.0
579,71.52185099583333,71.81085039375,39.0,100.0
580,71.76185049583333,71.87985025,51.0,95.0
581,71.04185199583334,71.92185016250001,67.0,113.0
582,72.00184999583334,72.25484946875,41.0,87.0
583,72.00184999583334,72.45384905416667,69.0,100.0
584,72.24184949583334,72.48484898958334,53.0,87.0
585,72.00184999583334,72.48784898333334,72.0,92.0
586,72.00184999583334,72.50484894791667,65.0,89.0
587,72.48184899583333,72.7738483875,41.0,98.0
588,72.72184849583334,72.87984816666668,53.0,104.0
589,72.96184799583334,73.26784735833334,46.0,84.0
590,73.20184749583333,73.50784685833334,58.0,86.0
591,72.96184799583334,73.61884662708333,62.0,91.0
592,73.44184699583333,73.71984641666667,46.0,86.0
593,72.96184799583334,73.79584625833334,70.0,103.0
594,73.68184649583334,73.95184593333333,58.0,85.0
595,73.92184599583334,74.195845425,46.0,83.0
596,74.16184549583333,74.42084495625001,58.0,86.0
597,73.92184599583334,74.435844925,70.0,82.0
598,73.92184599583334,74.43784492083334,62.0,91.0
599,72.96184799583334,74.45184489166667,65.0,107.0
600,74.40184499583333,74.67284443125,46.0,87.0
601,74.64184449583334,74.7658442375,58.0,87.0
602,74.88184399583334,75.17884337708334,48.0,91.0
603,75.12184349583333,75.36884298125,60.0,89.0
604,74.88184399583334,75.42684286041667,63.0,109.0
605,74.88184399583334,75.45884279375001,67.0,107.0
606,75.36184299583334,75.67084235208334,48.0,93.0
607,75.60184249583334,75.6778423375,60.0,93.0
608,75.84184199583333,76.10284145208334,41.0,92.0
609,76.08184149583333,76.31684100625,53.0,88.0
610,75.84184199583333,76.34684094375,65.0,93.0
611,75.84184199583333,76.34884093958334,57.0,92.0
612,75.84184199583333,76.35184093333334,60.0,104.0
613,76.32184099583334,76.59684042291667,41.0,92.0
614,76.56184049583334,76.76684006875,53.0,94.0
615,76.80183999583333,77.07983941666667,43.0,91.0
616,77.04183949583333,77.27583900833334,55.0,87.0
617,76.80183999583333,77.279839,67.0,96.0
618,76.80183999583333,77.31783892083334,62.0,96.0
619,76.80183999583333,77.34283886875001,58.0,86.0
620,77.28183899583334,77.55683842291667,43.0,90.0
621,77.52183849583334,77.75083801875,55.0,91.0
622,77.76183799583333,78.01283747291667,43.0,96.0
623,77.52183849583334,78.059837375,67.0,102.0
624,77.52183849583334,78.08183732916667,58.0,91.0
625,77.52183849583334,78.0958373,62.0,104.0
626,78.00183749583334,78.21983704166666,55.0,92.0
627,78.24183699583334,78.49883646041667,43.0,107.0
628,78.48183649583333,78.6898360625,55.0,100.0
629,78.24183699583334,78.70083603958334,58.0,89.0
630,78.24183699583334,78.70883602291667,67.0,96.0
631,78.24183699583334,78.72983597916667,62.0,96.0
632,78.72183599583333,78.72983597916667,62.0,91.0
633,78.72183599583333,78.96183549583334,43.0,98.0
634,78.96183549583334,79.20183499583334,55.0,93.0
635,78.72183599583333,79.3738346375,70.0,88.0
636,78.72183599583333,79.3858346125,67.0,92.0
637,79.20183499583334,79.44183449583333,43.0,98.0
638,79.44183449583333,79.68183399583333,55.0,98.0
639,79.68183399583333,79.92183349583334,43.0,102.0
640,79.92183349583334,80.16183299583334,55.0,107.0
641,80.16183299583334,80.40183249583333,43.0,107.0
642,79.44183449583333,80.44583240416667,70.0,88.0
643,79.44183449583333,80.4538323875,62.0,96.0
644,79.44183449583333,80.47383234583333,67.0,96.0
645,80.40183249583333,80.64183199583334,55.0,107.0
646,80.64183199583334,80.88183149583334,43.0,102.0
647,80.88183149583334,81.12183099583334,55.0,107.0
648,80.64183199583334,81.30383061666667,62.0,92.0
649,80.64183199583334,81.30883060625,70.0,87.0
650,80.64183199583334,81.32883056458334,67.0,91.0
651,81.12183099583334,81.36183049583333,43.0,102.0
652,81.36183049583333,81.60182999583334,55.0,107.0
653,81.60182999583334,81.84182949583334,43.0,100.0
654,81.84182949583334,81.96182924583334,55.0,116.0
655,81.36183049583333,81.97982920833334,62.0,93.0
656,81.36183049583333,82.00782915,70.0,87.0
657,81.36183049583333,82.00882914791667,67.0,92.0
658,82.08182899583333,82.20182874583334,43.0,116.0
659,82.08182899583333,82.22582869583334,70.0,79.0
660,82.08182899583333,82.25782862916667,67.0,89.0
661,82.08182899583333,82.27682858958333,62.0,89.0
662,82.32182849583333,82.44182824583334,55.0,116.0
663,82.56182799583334,82.80682748541668,41.0,93.0
664,82.80182749583334,83.05882696041667,53.0,87.0
665,82.56182799583334,83.25282655625,69.0,89.0
666,82.56182799583334,83.25582655000001,60.0,90.0
667,82.56182799583334,83.27682650625,65.0,92.0
668,83.04182699583333,83.30282645208334,41.0,96.0
669,83.28182649583334,83.52882598125001,53.0,90.0
670,83.52182599583334,83.78382545000001,41.0,96.0
671,83.76182549583334,84.01082497708333,53.0,89.0
672,84.00182499583333,84.275824425,41.0,102.0
673,83.28182649583334,84.36182424583333,60.0,91.0
674,83.28182649583334,84.371824225,69.0,91.0
675,84.24182449583334,84.39782417083333,53.0,93.0
676,83.28182649583334,84.40982414583334,65.0,92.0
677,84.48182399583334,84.73582346666667,43.0,92.0
678,84.72182349583333,84.97682296458333,55.0,89.0
679,84.48182399583334,85.11882266875,62.0,87.0
680,84.48182399583334,85.12382265833334,70.0,85.0
681,84.48182399583334,85.13282263958334,67.0,88.0
682,84.96182299583333,85.22282245208334,43.0,94.0
683,85.20182249583334,85.43582200833333,55.0,91.0
684,85.44182199583334,85.715821425,43.0,96.0
685,85.68182149583333,85.92182099583334,55.0,90.0
686,85.20182249583334,85.94382095,62.0,88.0
687,85.20182249583334,85.96582090416668,67.0,89.0
688,85.20182249583334,86.00482082291667,70.0,86.0
689,85.92182099583334,86.17682046458333,43.0,104.0
690,86.16182049583334,86.27182026666667,55.0,96.0
691,86.40181999583334,86.6578194625,39.0,103.0
692,86.64181949583333,86.89281897291667,51.0,90.0
693,86.40181999583334,87.01681871458334,67.0,91.0
694,86.40181999583334,87.03281868125,70.0,86.0
695,86.40181999583334,87.04081866458334,63.0,86.0
696,86.88181899583334,87.15081843541667,39.0,97.0
697,87.12181849583334,87.36181799583333,51.0,91.0
698,87.36181799583333,87.63081743541667,39.0,95.0
699,87.60181749583333,87.85281697291667,51.0,97.0
700,87.12181849583334,87.97081672708333,63.0,87.0
701,87.12181849583334,87.99381667916667,67.0,98.0
702,87.12181849583334,88.00681665208333,70.0,85.0
703,87.84181699583334,88.14081637291667,39.0,103.0
704,88.08181649583334,88.24981614583334,51.0,100.0
705,88.32181599583333,88.6018154125,38.0,92.0
706,88.56181549583333,88.77981504166667,50.0,87.0
707,88.32181599583333,88.82781494166667,62.0,88.0
708,88.32181599583333,88.83481492708334,69.0,89.0
709,88.32181599583333,88.96581465416666,65.0,91.0
710,88.80181499583334,89.003814575,38.0,108.0
711,89.04181449583334,89.33681388125001,70.0,88.0
712,89.04181449583334,89.39281376458334,62.0,92.0
713,89.04181449583334,89.42481369791668,43.0,86.0
714,89.04181449583334,89.43281368125,67.0,91.0
715,89.52181349583334,89.62681327708334,69.0,84.0
716,89.52181349583334,89.64981322916667,38.0,87.0
717,89.52181349583334,89.64981322916667,65.0,88.0
718,89.52181349583334,89.6578132125,62.0,84.0
719,89.52181349583334,89.66781319166667,50.0,91.0
720,89.76181299583334,90.03681242291667,62.0,88.0
721,89.76181299583334,90.07181235,43.0,91.0
722,89.76181299583334,90.08181232916667,67.0,91.0
723,89.76181299583334,90.08881231458334,70.0,89.0
724,90.24181199583333,90.49481146875,43.0,96.0
725,90.48181149583334,90.75481092708334,55.0,88.0
726,90.24181199583333,90.90481061458334,62.0,89.0
727,90.24181199583333,90.92781056666666,67.0,91.0
728,90.24181199583333,90.93681054791666,70.0,87.0
729,90.72181099583334,90.99181043333334,43.0,98.0
730,90.96181049583333,91.11181018333333,55.0,91.0
731,91.20180999583333,91.46680944375001,36.0,98.0
732,91.44180949583334,91.67180901666667,48.0,88.0
733,91.20180999583333,91.90280853541667,67.0,88.0
734,91.20180999583333,91.90980852083334,63.0,88.0
735,91.20180999583333,91.91280851458333,72.0,91.0
736,91.68180899583334,91.94680844375,36.0,94.0
737,91.92180849583333,92.03080826875001,48.0,88.0
738,92.16180799583334,92.42180745416667,41.0,98.0
739,92.40180749583334,92.63680700625001,53.0,86.0
740,92.16180799583334,92.71680683958334,60.0,86.0
741,92.16180799583334,92.73880679375,69.0,88.0
742,92.16180799583334,92.819806625,65.0,91.0
743,92.64180699583333,92.90580644583333,41.0,96.0
744,92.88180649583333,93.10980602083333,53.0,92.0
745,93.12180599583334,93.38780544166667,43.0,84.0
746,93.36180549583334,93.59680500625001,55.0,88.0
747,92.88180649583333,93.78480461458334,62.0,89.0
748,92.88180649583333,93.78780460833333,67.0,89.0
749,92.88180649583333,93.803804575,70.0,95.0
750,93.60180499583333,93.875804425,43.0,96.0
751,93.84180449583333,93.95280426458334,55.0,91.0
752,94.08180399583334,94.33280347291667,43.0,91.0
753,94.32180349583334,94.55880300208334,55.0,87.0
754,94.08180399583334,94.7218026625,62.0,92.0
755,94.08180399583334,94.72680265208334,70.0,86.0
756,94.08180399583334,94.74780260833333,67.0,91.0
757,94.56180299583333,94.81480246875,43.0,92.0
758,94.80180249583334,95.04380199166667,55.0,92.0
759,95.04180199583334,95.29980145833333,43.0,88.0
760,95.28180149583334,95.50980102083334,55.0,89.0
761,94.80180249583334,95.6938006375,62.0,90.0
762,94.80180249583334,95.73380055416666,67.0,88.0
763,94.80180249583334,95.75580050833334,70.0,86.0
764,95.52180099583333,95.80980039583334,43.0,96.0
765,95.76180049583334,95.8558003,55.0,98.0
766,96.00179999583334,96.25379947083334,39.0,100.0
767,96.24179949583333,96.50879893958334,51.0,84.0
768,96.00179999583334,96.62679869375,67.0,94.0
769,96.00179999583334,96.63279868125001,63.0,89.0
770,96.00179999583334,96.63679867291667,70.0,95.0
771,96.48179899583333,96.73079847708334,39.0,106.0
772,96.72179849583334,96.94279803541667,51.0,85.0
773,96.96179799583334,97.21479746875,39.0,100.0
774,96.72179849583334,97.33379722083333,67.0,98.0
775,96.72179849583334,97.33579721666668,63.0,88.0
776,96.72179849583334,97.36379715833334,70.0,87.0
777,97.20179749583333,97.42979702083333,51.0,91.0
778,97.44179699583334,97.5897966875,63.0,86.0
779,97.44179699583334,97.61079664375,70.0,86.0
780,97.44179699583334,97.67879650208333,67.0,94.0
781,97.44179699583334,97.71679642291667,39.0,103.0
782,97.68179649583334,97.79979625,51.0,97.0
783,97.92179599583334,98.19179543333334,41.0,102.0
784,98.16179549583333,98.39479501041667,53.0,87.0
785,97.92179599583334,98.54079470625,60.0,88.0
786,97.92179599583334,98.54679469375,65.0,94.0
787,97.92179599583334,98.58779460833334,69.0,94.0
788,98.40179499583334,98.65479446875,41.0,104.0
789,98.64179449583334,98.8737940125,53.0,87.0
790,98.88179399583333,99.14279345208334,41.0,102.0
791,98.64179449583334,99.24979322916667,60.0,88.0
792,98.64179449583334,99.25479321875001,65.0,107.0
793,98.64179449583334,99.33679304791667,69.0,92.0
794,99.12179349583333,99.347793025,53.0,87.0
795,99.36179299583334,99.48079274791667,69.0,84.0
796,99.36179299583334,99.48979272916667,65.0,89.0
797,99.36179299583334,99.56079258125,60.0,89.0
798,99.36179299583334,99.62379245,41.0,91.0
799,99.60179249583334,99.71479226041667,62.0,73.0
800,99.60179249583334,99.77379213750001,53.0,94.0
801,99.84179199583333,100.09679146458333,43.0,91.0
802,100.08179149583334,100.32479098958333,55.0,89.0
803,99.84179199583333,100.38679086041667,67.0,94.0
804,99.84179199583333,100.44879073125,62.0,93.0
805,99.84179199583333,100.47179068333334,58.0,86.0
806,100.32179099583334,100.56979047916667,43.0,93.0
807,100.56179049583334,100.8057899875,55.0,93.0
808,100.80178999583333,101.06178945416667,43.0,92.0
809,101.04178949583334,101.28378899166667,55.0,90.0
810,100.56179049583334,101.51778850416667,62.0,96.0
811,100.56179049583334,101.52778848333334,58.0,87.0
812,101.28178899583334,101.52978847916667,43.0,102.0
813,100.56179049583334,101.5377884625,67.0,98.0
814,101.52178849583333,101.759788,55.0,98.0
815,101.76178799583333,102.00978747916668,43.0,108.0
816,102.00178749583334,102.22278703541667,55.0,88.0
817,101.76178799583333,102.26278695208333,62.0,102.0
818,101.76178799583333,102.28378690833334,67.0,107.0
819,101.76178799583333,102.30478686458333,58.0,89.0
820,102.24178699583334,102.48578648750001,43.0,100.0
821,102.48178649583333,102.72478598958334,55.0,92.0
822,102.72178599583334,102.99478542708334,43.0,104.0
823,102.48178649583333,103.01778537916667,58.0,86.0
824,102.48178649583333,103.019785375,67.0,93.0
825,102.48178649583333,103.02478536458334,62.0,94.0
826,102.96178549583334,103.18678502708333,55.0,90.0
827,103.20178499583334,103.47178443333334,43.0,104.0
828,103.20178499583334,103.48078441458334,67.0,104.0
829,103.20178499583334,103.50978435416667,58.0,95.0
830,103.44178449583333,103.547784275,55.0,98.0
831,103.20178499583334,103.5537842625,62.0,107.0
832,103.68178399583334,103.94478344791666,39.0,103.0
833,103.92178349583334,104.14378303333334,51.0,84.0
834,103.68178399583334,104.26278278541668,63.0,90.0
835,103.68178399583334,104.27278276458334,58.0,88.0
836,103.68178399583334,104.27678275625,67.0,98.0
837,104.16178299583333,104.41478246875,39.0,97.0
838,104.40178249583333,104.62978202083333,51.0,87.0
839,104.64178199583334,104.88878148125,39.0,100.0
840,104.40178249583333,104.90378145,67.0,96.0
841,104.40178249583333,104.92278141041668,58.0,91.0
842,104.40178249583333,104.93478138541667,63.0,90.0
843,104.88178149583334,105.09878104375001,51.0,95.0
844,105.12178099583333,105.29578063333334,58.0,100.0
845,105.12178099583333,105.34978052083333,67.0,107.0
846,105.12178099583333,105.35478051041667,63.0,93.0
847,105.12178099583333,105.37578046666667,39.0,103.0
848,105.36178049583334,105.52478015625,51.0,106.0
849,105.60177999583334,105.87877941875,41.0,100.0
850,105.84177949583334,106.07777900416667,53.0,93.0
851,105.60177999583334,106.2177787125,65.0,98.0
852,105.60177999583334,106.23377867916668,57.0,90.0
853,105.60177999583334,106.24777865,60.0,94.0
854,106.08177899583333,106.3377784625,41.0,100.0
855,106.32177849583334,106.56677798541666,53.0,93.0
856,106.56177799583334,106.80677748541667,41.0,104.0
857,106.32177849583334,106.84977739583334,65.0,102.0
858,106.32177849583334,106.86977735416667,57.0,89.0
859,106.32177849583334,106.88277732708333,60.0,102.0
860,106.80177749583333,107.02377703333333,53.0,91.0
861,107.04177699583333,107.15277676458334,57.0,96.0
862,107.04177699583333,107.18277670208333,65.0,98.0
863,107.04177699583333,107.195776675,60.0,102.0
864,107.04177699583333,107.31077643541667,41.0,102.0
865,107.28177649583334,107.52477598958333,53.0,100.0
866,107.52177599583334,107.78477544791667,43.0,91.0
867,107.52177599583334,107.89877521041667,67.0,92.0
868,107.52177599583334,107.96677506875001,62.0,98.0
869,107.76177549583333,108.02277495208334,55.0,92.0
870,107.52177599583334,108.059774875,58.0,86.0
871,108.00177499583334,108.2457744875,43.0,104.0
872,108.24177449583334,108.49577396666668,55.0,94.0
873,108.24177449583334,108.683773575,67.0,98.0
874,108.24177449583334,108.70077353958334,58.0,90.0
875,108.24177449583334,108.71177351666667,62.0,107.0
876,108.48177399583334,108.75977341666668,43.0,104.0
877,108.72177349583333,108.95377301250001,55.0,92.0
878,108.96177299583334,109.22677244375001,43.0,102.0
879,109.20177249583334,109.41277205625,55.0,93.0
880,109.44177199583334,109.68477148958334,43.0,107.0
881,109.68177149583333,109.91777100416667,55.0,91.0
882,109.44177199583334,110.04977072916667,70.0,88.0
883,109.44177199583334,110.05477071875,62.0,92.0
884,109.44177199583334,110.07377067916667,67.0,91.0
885,109.92177099583334,110.17677046458334,43.0,102.0
886,110.16177049583334,110.39477001041666,55.0,98.0
887,110.40176999583333,110.68376940833333,43.0,107.0
888,110.16177049583334,110.72276932708334,62.0,100.0
889,110.16177049583334,110.73376930416667,70.0,87.0
890,110.16177049583334,110.74076928958334,67.0,93.0
891,110.64176949583333,110.86576902916667,55.0,96.0
892,110.88176899583334,110.93476888541667,70.0,83.0
893,110.88176899583334,111.08376857500001,67.0,93.0
894,110.88176899583334,111.14276845208333,43.0,108.0
895,110.88176899583334,111.1857683625,62.0,98.0
896,111.12176849583334,111.2577682125,55.0,107.0
897,111.36176799583333,111.62776744166668,41.0,96.0
898,111.60176749583334,111.84676698541666,53.0,90.0
899,111.36176799583333,111.95176676666667,69.0,91.0
900,111.36176799583333,111.97376672083334,60.0,91.0
901,111.36176799583333,111.99876666875001,65.0,100.0
902,111.84176699583334,112.10676644375,41.0,96.0
903,112.08176649583334,112.30276603541667,53.0,91.0
904,112.32176599583333,112.60376540833333,41.0,100.0
905,112.08176649583334,112.62376536666667,60.0,91.0
906,112.08176649583334,112.63576534166667,69.0,91.0
907,112.08176649583334,112.66376528333333,65.0,94.0
908,112.56176549583334,112.78676502708333,53.0,98.0
909,112.80176499583334,113.02776452500001,60.0,92.0
910,112.80176499583334,113.075764425,69.0,90.0
911,112.80176499583334,113.08976439583334,41.0,102.0
912,112.80176499583334,113.11376434583333,65.0,92.0
913,113.04176449583333,113.14876427291667,53.0,102.0
914,113.28176399583333,113.51776350416667,38.0,92.0
915,113.52176349583334,113.759763,50.0,89.0
916,113.28176399583333,113.81576288333333,69.0,98.0
917,113.28176399583333,113.85376280416666,62.0,92.0
918,113.28176399583333,113.86876277291667,65.0,107.0
919,113.76176299583334,114.02476244791667,38.0,107.0
920,114.00176249583333,114.23076201875,50.0,92.0
921,114.24176199583334,114.50076145625,38.0,98.0
922,114.00176249583333,114.563761325,65.0,104.0
923,114.00176249583333,114.57576130000001,69.0,94.0
924,114.00176249583333,114.5817612875,62.0,98.0
925,114.48176149583334,114.70076103958334,50.0,94.0
926,114.72176099583334,114.90876060625,69.0,91.0
927,114.72176099583334,114.91576059166667,65.0,104.0
928,114.72176099583334,114.98576044583334,38.0,104.0
929,114.96176049583333,115.06676027708333,50.0,110.0
930,114.72176099583334,115.13776012916667,62.0,98.0
931,115.20175999583334,115.48275941041668,43.0,93.0
932,115.44175949583334,115.66075903958334,55.0,93.0
933,115.20175999583334,115.82175870416667,62.0,98.0
934,115.20175999583334,115.82175870416667,67.0,107.0
935,115.20175999583334,115.84575865416667,58.0,103.0
936,115.68175899583333,115.93275847291667,43.0,96.0
937,115.92175849583333,116.14075803958333,55.0,91.0
938,116.16175799583334,116.4297574375,43.0,98.0
939,115.92175849583333,116.44075741458333,62.0,102.0
940,115.92175849583333,116.44375740833334,67.0,108.0
941,115.92175849583333,116.47375734583333,58.0,95.0
942,116.40175749583334,116.63175701666667,55.0,92.0
943,116.64175699583333,116.83875658541668,58.0,91.0
944,116.64175699583333,116.85875654375,62.0,100.0
945,116.64175699583333,116.8857564875,67.0,98.0
946,116.64175699583333,116.93175639166667,43.0,104.0
947,116.88175649583334,116.9577563375,55.0,98.0
948,117.12175599583334,117.39775542083333,39.0,106.0
949,117.36175549583334,117.5817550375,51.0,97.0
950,117.12175599583334,117.69975479166668,67.0,113.0
951,117.12175599583334,117.71175476666667,63.0,95.0
952,117.12175599583334,117.72175474583334,70.0,86.0
953,117.60175499583333,117.87375442916667,39.0,106.0
954,117.84175449583334,118.05375405416667,51.0,87.0
955,118.08175399583334,118.35175343333334,39.0,106.0
956,117.84175449583334,118.36575340416667,63.0,100.0
957,117.84175449583334,118.36875339791668,67.0,110.0
958,117.84175449583334,118.39675333958334,70.0,97.0
959,118.32175349583333,118.5417530375,51.0,100.0
960,118.56175299583333,118.79475251041667,67.0,114.0
961,118.56175299583333,118.80975247916668,63.0,100.0
962,118.56175299583333,118.82375245,70.0,95.0
963,118.56175299583333,118.85775237916667,39.0,106.0
964,118.80175249583334,118.93175222500001,51.0,106.0
965,119.04175199583334,119.28675148541667,41.0,98.0
966,119.28175149583333,119.49375105416667,53.0,89.0
967,119.04175199583334,119.65375072083334,69.0,92.0
968,119.04175199583334,119.68975064583334,65.0,100.0
969,119.04175199583334,119.69175064166667,60.0,94.0
970,119.52175099583334,119.77575046666666,41.0,102.0
971,119.76175049583334,119.97375005416667,53.0,93.0
972,120.00174999583334,120.26374945,41.0,104.0
973,119.76175049583334,120.35874925208334,60.0,96.0
974,119.76175049583334,120.36474923958333,69.0,94.0
975,119.76175049583334,120.36874923125,65.0,104.0
976,120.24174949583333,120.467749025,53.0,96.0
977,120.48174899583334,120.77474838541667,60.0,94.0
978,120.48174899583334,120.78474836458334,41.0,100.0
979,120.48174899583334,120.79474834375,69.0,89.0
980,120.72174849583334,120.81774829583334,53.0,100.0
981,120.48174899583334,120.81974829166667,65.0,98.0
982,120.96174799583333,121.22174745416667,38.0,104.0
983,121.20174749583333,121.41874704375,50.0,94.0
984,120.96174799583333,121.55174676666667,69.0,100.0
985,120.96174799583333,121.55774675416667,62.0,92.0
986,120.96174799583333,121.56974672916667,65.0,110.0
987,121.44174699583334,121.69074647708334,38.0,108.0
988,121.68174649583334,121.8777460875,50.0,96.0
989,121.92174599583333,122.20474540625,38.0,96.0
990,121.68174649583334,122.291745225,69.0,90.0
991,121.68174649583334,122.29474521875001,65.0,108.0
992,121.68174649583334,122.30174520416666,62.0,104.0
993,122.16174549583334,122.37874504375,50.0,98.0
994,122.40174499583334,122.55074468541667,69.0,88.0
995,122.40174499583334,122.57574463333334,65.0,107.0
996,122.40174499583334,122.65874446041667,38.0,110.0
997,122.64174449583334,122.74874427291667,50.0,108.0
998,122.40174499583334,122.76974422916668,62.0,102.0
999,122.88174399583333,123.15074343541667,43.0,94.0
1000,123.12174349583334,123.371742975,55.0,89.0
1001,122.88174399583333,123.48674273541667,67.0,107.0
1002,122.88174399583333,123.50974268750001,62.0,102.0
1003,122.88174399583333,123.51474267708333,58.0,100.0
1004,123.36174299583334,123.62174245416666,43.0,102.0
1005,123.60174249583334,123.85874196041667,55.0,89.0
1006,123.60174249583334,124.09574146666667,67.0,107.0
1007,123.84174199583333,124.10474144791667,43.0,100.0
1008,123.60174249583334,124.11274143125,62.0,108.0
1009,123.60174249583334,124.11474142708333,58.0,91.0
1010,124.08174149583334,124.30874102291668,55.0,91.0
1011,124.32174099583334,124.56574048750001,67.0,113.0
1012,124.32174099583334,124.58274045208334,58.0,93.0
1013,124.32174099583334,124.59274043125001,43.0,100.0
1014,124.32174099583334,124.65674029791667,62.0,100.0
1015,124.56174049583333,124.78574002916667,55.0,94.0
1016,124.80173999583334,125.06873943958334,43.0,107.0
1017,125.04173949583334,125.2617390375,55.0,92.0
1018,124.80173999583334,125.28773898333334,67.0,108.0
1019,124.80173999583334,125.34173887083334,62.0,113.0
1020,124.80173999583334,125.37473880208334,58.0,103.0
1021,125.28173899583334,125.53373847083334,43.0,98.0
1022,125.52173849583333,125.76973797916668,55.0,90.0
1023,125.76173799583334,126.02273745208333,43.0,98.0
1024,125.52173849583333,126.02673744375001,67.0,110.0
1025,125.52173849583333,126.03873741875,58.0,100.0
1026,125.52173849583333,126.059737375,62.0,108.0
1027,126.00173749583334,126.22473703125,55.0,92.0
1028,126.24173699583334,126.49873646041667,67.0,107.0
1029,126.24173699583334,126.52273641041667,43.0,102.0
1030,126.24173699583334,126.52873639791667,58.0,97.0
1031,126.24173699583334,126.58273628541667,62.0,102.0
1032,126.48173649583333,126.62273620208333,55.0,96.0
1033,126.72173599583334,126.98473544791668,39.0,106.0
1034,126.96173549583334,127.19273501458333,51.0,88.0
1035,126.72173599583334,127.28673481875,67.0,113.0
1036,126.72173599583334,127.31673475625,63.0,109.0
1037,126.72173599583334,127.32973472916667,58.0,109.0
1038,127.20173499583333,127.44473448958334,39.0,100.0
1039,127.44173449583334,127.66873402291667,51.0,87.0
1040,127.68173399583334,127.94573344583334,39.0,100.0
1041,127.44173449583334,127.96873339791667,67.0,116.0
1042,127.44173449583334,128.00473332291668,58.0,103.0
1043,127.44173449583334,128.01173330833333,63.0,100.0
1044,127.92173349583334,128.1537330125,51.0,103.0
1045,128.16173299583335,128.3517326,58.0,106.0
1046,128.16173299583335,128.36273257708334,67.0,107.0
1047,128.16173299583335,128.46173237083335,39.0,103.0
1048,128.16173299583335,128.51173226666668,63.0,106.0
1049,128.40173249583333,128.55473217708334,51.0,109.0
1050,128.64173199583334,128.89873146041668,41.0,104.0
1051,128.88173149583335,129.09373105416668,53.0,88.0
1052,128.64173199583334,129.19873083541668,65.0,108.0
1053,128.64173199583334,129.23773075416668,57.0,94.0
1054,128.64173199583334,129.24073074791667,60.0,104.0
1055,129.12173099583333,129.39373042916668,41.0,102.0
1056,129.36173049583334,129.62172995416668,53.0,100.0
1057,129.60172999583332,129.86772944166668,41.0,100.0
1058,129.36173049583334,129.9177293375,65.0,104.0
1059,129.36173049583334,129.93772929583335,57.0,102.0
1060,129.36173049583334,129.94872927291667,60.0,113.0
1061,129.84172949583333,130.05372905416667,53.0,98.0
1062,130.08172899583334,130.38072837291668,41.0,104.0
1063,130.08172899583334,130.40072833125,57.0,102.0
1064,130.08172899583334,130.403728325,65.0,94.0
1065,130.08172899583334,130.475728175,60.0,98.0
1066,130.32172849583333,130.47972816666666,53.0,104.0
1067,130.56172799583334,130.82572744583334,46.0,87.0
1068,130.56172799583334,130.98272711875,62.0,114.0
1069,130.80172749583335,131.07772692083333,58.0,86.0
1070,130.56172799583334,131.14372678333334,65.0,108.0
1071,131.04172699583333,131.30572644583333,46.0,87.0
1072,131.28172649583334,131.54272595208334,58.0,87.0
1073,131.52172599583335,131.76972547916668,46.0,91.0
1074,131.28172649583334,131.85972529166668,65.0,113.0
1075,131.28172649583334,131.86572527916667,62.0,113.0
1076,131.76172549583333,131.98872502291667,58.0,85.0
1077,132.00172499583334,132.22472453125002,65.0,116.0
1078,132.00172499583334,132.28372440833334,46.0,93.0
1079,132.00172499583334,132.3537242625,62.0,116.0
1080,132.24172449583332,132.39772417083333,58.0,91.0
1081,132.48172399583333,132.7497234375,39.0,100.0
1082,132.48172399583333,132.79172335,70.0,97.0
1083,132.48172399583333,132.79672333958334,67.0,114.0
1084,132.48172399583333,132.80872331458335,63.0,97.0
1085,132.72172349583334,132.93872304375,51.0,86.0
1086,132.96172299583333,133.14672261041667,70.0,83.0
1087,132.96172299583333,133.15272259791666,63.0,91.0
1088,132.96172299583333,133.16272257708334,67.0,110.0
1089,133.20172249583334,133.23472242708334,66.0,74.0
1090,132.96172299583333,133.23872241875,39.0,103.0
1091,133.20172249583334,133.32772223333333,51.0,90.0
1092,133.44172199583335,133.73872137708335,41.0,100.0
1093,133.44172199583335,133.88072108125002,69.0,94.0
1094,133.68172149583333,133.91672100625001,53.0,88.0
1095,133.44172199583335,133.93372097083335,60.0,87.0
1096,133.44172199583335,133.9377209625,65.0,100.0
1097,133.92172099583334,134.21072039375,41.0,100.0
1098,134.16172049583335,134.28172024583333,60.0,86.0
1099,134.16172049583335,134.28472023958335,69.0,87.0
1100,134.16172049583335,134.29272022291667,65.0,88.0
1101,134.16172049583335,134.29872021041666,53.0,100.0
1102,134.40171999583333,134.6577194625,38.0,104.0
1103,134.64171949583334,134.84571907083333,50.0,91.0
1104,134.40171999583333,134.95571884166668,62.0,104.0
1105,134.40171999583333,134.97771879583334,65.0,110.0
1106,134.40171999583333,134.98971877083335,69.0,104.0
1107,134.88171899583332,135.15171843333334,38.0,104.0
1108,135.12171849583333,135.23871825208334,69.0,87.0
1109,135.12171849583333,135.24171824583334,62.0,85.0
1110,135.12171849583333,135.28471815625,50.0,104.0
1111,135.12171849583333,135.29471813541667,65.0,91.0
1112,135.36171799583335,135.6177174625,43.0,92.0
1113,135.36171799583335,135.69971729166667,70.0,113.0
1114,135.36171799583335,135.70371728333333,62.0,100.0
1115,135.36171799583335,135.71971725,67.0,113.0
1116,135.60171749583333,135.81571705000002,55.0,92.0
1117,135.84171699583334,136.08171649583335,62.0,100.0
1118,135.84171699583334,136.09671646458335,67.0,102.0
1119,135.84171699583334,136.13171639166666,43.0,107.0
1120,135.84171699583334,136.13171639166666,70.0,97.0
1121,136.08171649583335,136.22171620416668,55.0,102.0
1122,136.32171599583333,136.59171543333335,39.0,103.0
1123,136.56171549583334,136.80271499375002,51.0,88.0
1124,136.80171499583335,137.06271445208333,39.0,100.0
1125,137.04171449583333,137.27471401041666,51.0,88.0
1126,137.28171399583334,137.54371345,39.0,103.0
1127,136.80171499583335,137.5737133875,67.0,113.0
1128,136.80171499583335,137.58071337291668,63.0,97.0
1129,136.80171499583335,137.58771335833333,70.0,91.0
1130,137.52171349583332,137.76271299375,51.0,90.0
1131,137.76171299583334,138.00371249166668,70.0,86.0
1132,137.76171299583334,138.0057124875,63.0,103.0
1133,137.76171299583334,138.00671248541667,67.0,114.0
1134,137.76171299583334,138.05871237708334,39.0,106.0
1135,138.00171249583335,138.12971222916667,51.0,109.0
1136,138.24171199583333,138.50471144791666,41.0,108.0
1137,138.48171149583334,138.69671104791666,53.0,93.0
1138,138.72171099583335,138.75671092291668,60.0,80.0
1139,138.72171099583335,138.97371047083334,41.0,104.0
1140,138.96171049583333,139.17771004583335,53.0,96.0
1141,138.96171049583333,139.235709925,57.0,96.0
1142,138.96171049583333,139.43570950833333,65.0,98.0
1143,139.20170999583334,139.46170945416668,41.0,107.0
1144,138.96171049583333,139.47770942083335,60.0,108.0
1145,139.44170949583335,139.65570905,53.0,107.0
1146,139.68170899583333,139.93870846041668,57.0,107.0
1147,139.68170899583333,139.96070841458334,41.0,107.0
1148,139.68170899583333,140.0157083,65.0,107.0
1149,139.68170899583333,140.03270826458333,60.0,113.0
1150,139.92170849583334,140.12570807083333,53.0,108.0
1151,140.16170799583332,140.435707425,43.0,98.0
1152,140.40170749583334,140.62970702083334,55.0,91.0
1153,140.64170699583335,140.91470642708333,43.0,104.0
1154,140.88170649583333,141.11470601041668,55.0,94.0
1155,140.64170699583335,141.30470561458333,67.0,91.0
1156,140.64170699583335,141.33870554375,58.0,106.0
1157,140.64170699583335,141.35270551458333,62.0,107.0
1158,141.12170599583334,141.40370540833334,43.0,102.0
1159,141.36170549583335,141.60270499375,55.0,102.0
1160,141.60170499583333,141.87770442083334,43.0,108.0
1161,141.60170499583333,141.93970429166666,58.0,100.0
1162,141.60170499583333,141.99470417708335,67.0,104.0
1163,141.60170499583333,142.05170405833334,62.0,110.0
1164,141.84170449583334,142.07270401458334,55.0,91.0
1165,142.08170399583335,142.34470344791666,43.0,107.0
1166,142.32170349583333,142.53570305,55.0,92.0
1167,142.56170299583334,142.83270243125,43.0,108.0
1168,142.80170249583333,143.03570200833335,55.0,94.0
1169,142.80170249583333,143.27570150833333,62.0,104.0
1170,142.80170249583333,143.27870150208335,67.0,94.0
1171,143.04170199583334,143.32070141458334,43.0,102.0
1172,142.80170249583333,143.32070141458334,58.0,91.0
1173,143.28170149583335,143.50470103125,55.0,98.0
1174,143.52170099583333,143.80970039583335,43.0,108.0
1175,143.76170049583334,143.88270024375,55.0,107.0
1176,143.52170099583333,143.89270022291666,58.0,93.0
1177,143.52170099583333,143.92370015833333,67.0,108.0
1178,143.52170099583333,143.92870014791666,62.0,113.0
1179,144.00169999583335,144.26869943958334,41.0,90.0
1180,144.24169949583333,144.491698975,53.0,88.0
1181,144.48169899583334,144.74669844375,41.0,93.0
1182,144.72169849583335,144.94869802291666,53.0,92.0
1183,144.96169799583333,145.22669744375,41.0,93.0
1184,144.72169849583335,145.27569734166667,57.0,104.0
1185,144.72169849583335,145.27569734166667,65.0,94.0
1186,144.72169849583335,145.2896973125,60.0,110.0
1187,145.20169749583334,145.41769704583334,53.0,92.0
1188,145.44169699583333,145.71069643541668,41.0,102.0
1189,145.44169699583333,145.79769625416668,57.0,102.0
1190,145.68169649583334,145.811696225,53.0,100.0
1191,145.44169699583333,145.91469601041666,65.0,100.0
1192,145.44169699583333,145.94269595208334,60.0,114.0
1193,145.92169599583335,146.19769542083333,46.0,88.0
1194,146.16169549583333,146.4176949625,58.0,88.0
1195,146.40169499583334,146.651694475,46.0,89.0
1196,146.64169449583335,146.88969397916668,58.0,86.0
1197,146.64169449583335,147.1616934125,62.0,104.0
1198,146.88169399583333,147.16869339791668,46.0,90.0
1199,146.64169449583335,147.17269338958334,65.0,114.0
1200,146.64169449583335,147.18669336041668,69.0,96.0
1201,147.12169349583334,147.38169295416668,58.0,86.0
1202,147.36169299583335,147.6476924,46.0,91.0
1203,147.60169249583333,147.71769225416668,58.0,93.0
1204,147.36169299583335,147.83769200416668,65.0,114.0
1205,147.36169299583335,147.83869200208335,62.0,110.0
1206,147.36169299583335,147.851691975,69.0,102.0
1207,147.84169199583334,148.1216914125,39.0,95.0
1208,148.08169149583333,148.32469098958333,51.0,85.0
1209,147.84169199583334,148.4816906625,63.0,97.0
1210,147.84169199583334,148.54269053541668,70.0,95.0
1211,148.32169099583334,148.61069039375,39.0,100.0
1212,148.56169049583335,148.67969025,51.0,95.0
1213,147.84169199583334,148.7216901625,67.0,113.0
1214,148.80168999583333,149.05468946875,41.0,87.0
1215,148.80168999583333,149.25368905416667,69.0,100.0
1216,149.04168949583334,149.28468898958334,53.0,87.0
1217,148.80168999583333,149.28768898333334,72.0,92.0
1218,148.80168999583333,149.30468894791667,65.0,89.0
1219,149.28168899583335,149.5736883875,41.0,98.0
1220,149.52168849583333,149.67968816666666,53.0,104.0
1221,149.76168799583334,150.06768735833333,46.0,84.0
1222,150.00168749583335,150.30768685833334,58.0,86.0
1223,149.76168799583334,150.41868662708333,62.0,91.0
1224,150.24168699583333,150.51968641666667,46.0,86.0
1225,149.76168799583334,150.59568625833333,70.0,103.0
1226,150.48168649583334,150.75168593333333,58.0,85.0
1227,150.72168599583333,150.995685425,46.0,83.0
1228,150.96168549583334,151.22068495625,58.0,86.0
1229,150.72168599583333,151.23568492500002,70.0,82.0
1230,150.72168599583333,151.23768492083335,62.0,91.0
1231,149.76168799583334,151.25168489166668,65.0,107.0
1232,151.20168499583335,151.47268443125,46.0,87.0
1233,151.44168449583333,151.5656842375,58.0,87.0
1234,151.68168399583334,151.97868337708334,48.0,91.0
1235,151.92168349583335,152.16868298125002,60.0,89.0
1236,151.68168399583334,152.22668286041667,63.0,109.0
1237,151.68168399583334,152.25868279375,67.0,107.0
1238,152.16168299583333,152.47068235208334,48.0,93.0
1239,152.40168249583334,152.4776823375,60.0,93.0
1240,152.64168199583335,152.90268145208333,41.0,92.0
1241,152.88168149583333,153.11668100625002,53.0,88.0
1242,152.64168199583335,153.14668094375,65.0,93.0
1243,152.64168199583335,153.14868093958333,57.0,92.0
1244,152.64168199583335,153.15168093333332,60.0,104.0
1245,153.12168099583334,153.39668042291666,41.0,92.0
1246,153.36168049583333,153.56668006875,53.0,94.0
1247,153.60167999583334,153.87967941666668,43.0,91.0
1248,153.84167949583335,154.07567900833334,55.0,87.0
1249,153.60167999583334,154.079679,67.0,96.0
1250,153.60167999583334,154.11767892083333,62.0,96.0
1251,153.60167999583334,154.14267886875,58.0,86.0
1252,154.08167899583333,154.35667842291667,43.0,90.0
1253,154.32167849583334,154.55067801875,55.0,91.0
1254,154.56167799583335,154.81267747291668,43.0,96.0
1255,154.32167849583334,154.85967737500002,67.0,102.0
1256,154.32167849583334,154.88167732916668,58.0,91.0
1257,154.32167849583334,154.89567730000002,62.0,104.0
1258,154.80167749583333,155.01967704166668,55.0,92.0
1259,155.04167699583334,155.29867646041666,43.0,107.0
1260,155.28167649583335,155.4896760625,55.0,100.0
1261,155.04167699583334,155.50067603958334,58.0,89.0
1262,155.04167699583334,155.50867602291666,67.0,96.0
1263,155.04167699583334,155.52967597916668,62.0,96.0
1264,155.52167599583333,155.52967597916668,62.0,94.0
1265,155.52167599583333,155.73767554583333,43.0,104.0
1266,155.76167549583334,156.01367497083334,55.0,87.0
1267,155.52167599583333,156.08767481666666,70.0,91.0
1268,155.52167599583333,156.11667475625,67.0,94.0
1269,156.00167499583333,156.25567446666668,43.0,107.0
1270,156.24167449583334,156.47767400416666,55.0,90.0
1271,156.48167399583335,156.74267345208335,43.0,102.0
1272,156.72167349583333,156.97267297291668,55.0,89.0
1273,156.24167449583334,157.17467255208334,62.0,91.0
1274,156.96167299583334,157.23267243125,43.0,98.0
1275,156.24167449583334,157.32567223750002,70.0,87.0
1276,156.24167449583334,157.35467217708333,67.0,92.0
1277,157.20167249583335,157.44667198541669,55.0,98.0
1278,157.44167199583333,157.70867143958333,43.0,98.0
1279,157.68167149583334,157.91467101041667,55.0,91.0
1280,157.44167199583333,158.08967064583334,62.0,96.0
1281,157.44167199583333,158.09667063125,70.0,93.0
1282,157.44167199583333,158.12167057916668,67.0,102.0
1283,157.92167099583335,158.17267047291668,43.0,107.0
1284,158.16167049583333,158.40266999375,55.0,92.0
1285,158.40166999583334,158.68066941458335,43.0,100.0
1286,158.16167049583333,158.73066931041666,62.0,94.0
1287,158.16167049583333,158.747669275,70.0,88.0
1288,158.16167049583333,158.76966922916668,67.0,93.0
1289,158.64166949583333,158.8896689791667,55.0,92.0
1290,158.88166899583334,159.07266859791667,70.0,86.0
1291,158.88166899583334,159.107668525,62.0,94.0
1292,158.88166899583334,159.16466840625,43.0,100.0
1293,158.88166899583334,159.26566819583334,67.0,94.0
1294,159.12166849583335,159.28366815833334,55.0,96.0
1295,159.36166799583333,159.63166743333335,41.0,93.0
1296,159.60166749583334,159.83066701875,53.0,88.0
1297,159.36166799583333,160.01666663125002,65.0,88.0
1298,159.36166799583333,160.01866662708335,69.0,87.0
1299,159.36166799583333,160.03366659583335,60.0,86.0
1300,159.84166699583335,160.08366649166666,41.0,102.0
1301,160.08166649583333,160.31766600416668,53.0,100.0
1302,160.32166599583334,160.58366545,41.0,102.0
1303,160.56166549583335,160.79266501458335,53.0,96.0
1304,160.80166499583333,161.05666446458335,41.0,102.0
1305,160.08166649583333,161.1536642625,69.0,100.0
1306,160.08166649583333,161.171664225,60.0,100.0
1307,160.08166649583333,161.17566421666666,65.0,100.0
1308,161.04166449583334,161.26266403541666,53.0,102.0
1309,161.28166399583333,161.54566344583333,41.0,102.0
1310,161.52166349583334,161.77066297708333,53.0,91.0
1311,161.28166399583333,161.867662775,60.0,92.0
1312,161.28166399583333,161.87866275208333,69.0,94.0
1313,161.28166399583333,161.91066268541667,65.0,108.0
1314,161.76166299583335,162.0296624375,41.0,96.0
1315,162.00166249583333,162.21666204791669,53.0,92.0
1316,162.24166199583334,162.50066145625001,41.0,98.0
1317,162.00166249583333,162.54366136666667,60.0,91.0
1318,162.00166249583333,162.56166132916667,69.0,93.0
1319,162.00166249583333,162.56566132083333,65.0,98.0
1320,162.48166149583335,162.71466101041668,53.0,91.0
1321,162.72166099583333,162.98666044375,60.0,93.0
1322,162.72166099583333,163.01866037708334,41.0,104.0
1323,162.72166099583333,163.04866031458334,69.0,92.0
1324,162.72166099583333,163.08866023125,65.0,102.0
1325,162.96166049583334,163.16766006666668,53.0,98.0
1326,163.20165999583335,163.43665950625,43.0,94.0
1327,163.44165949583333,163.66165903750002,55.0,100.0
1328,163.20165999583335,163.82065870625001,62.0,93.0
1329,163.20165999583335,163.82865868958334,70.0,103.0
1330,163.20165999583335,163.86065862291667,67.0,107.0
1331,163.68165899583335,163.92965847916668,43.0,104.0
1332,163.92165849583333,164.14865802291666,55.0,98.0
1333,164.16165799583334,164.40865748125,43.0,100.0
1334,163.92165849583333,164.44965739583333,62.0,100.0
1335,163.92165849583333,164.47265734791668,70.0,91.0
1336,163.92165849583333,164.4776573375,67.0,104.0
1337,164.40165749583335,164.62865702291668,55.0,96.0
1338,164.64165699583333,164.89965645833334,43.0,98.0
1339,164.64165699583333,164.95165635,70.0,87.0
1340,164.64165699583333,164.96465632291668,62.0,107.0
1341,164.64165699583333,164.987656275,67.0,96.0
1342,164.88165649583334,165.10965602083334,55.0,98.0
1343,165.12165599583335,165.38465544791669,43.0,98.0
1344,165.36165549583333,165.57865504375002,55.0,100.0
1345,165.12165599583335,165.68165482916666,70.0,100.0
1346,165.12165599583335,165.72965472916667,62.0,108.0
1347,165.12165599583335,165.75765467083335,67.0,108.0
1348,165.60165499583334,165.86365445,43.0,91.0
1349,165.84165449583332,166.08265399375,55.0,98.0
1350,165.84165449583332,166.32165349583335,62.0,104.0
1351,165.84165449583332,166.331653475,70.0,106.0
1352,165.84165449583332,166.3496534375,67.0,110.0
1353,166.08165399583334,166.35365342916668,43.0,104.0
1354,166.32165349583335,166.57565296666667,55.0,96.0
1355,166.56165299583333,166.83965241666667,43.0,104.0
1356,166.56165299583333,166.84965239583335,62.0,110.0
1357,166.56165299583333,166.85265238958334,70.0,106.0
1358,166.56165299583333,166.92065224791668,67.0,116.0
1359,166.80165249583334,166.92365224166667,55.0,104.0
1360,167.04165199583335,167.30065145625,41.0,102.0
1361,167.28165149583333,167.50365103333334,53.0,98.0
1362,167.04165199583335,167.59365084583334,65.0,108.0
1363,167.04165199583335,167.60065083125,60.0,102.0
1364,167.04165199583335,167.67465067708335,69.0,104.0
1365,167.52165099583334,167.76765048333334,41.0,104.0
1366,167.76165049583335,167.97865004375,53.0,102.0
1367,168.00164999583333,168.2396495,41.0,96.0
1368,167.76165049583335,168.2876494,60.0,104.0
1369,167.76165049583335,168.30964935416668,65.0,110.0
1370,167.76165049583335,168.32064933125,69.0,89.0
1371,168.24164949583334,168.45764904583334,53.0,100.0
1372,168.48164899583332,168.74464844791666,41.0,102.0
1373,168.48164899583332,168.82864827291667,60.0,91.0
1374,168.48164899583332,168.83864825208335,69.0,89.0
1375,168.48164899583332,168.85264822291668,65.0,98.0
1376,168.72164849583334,168.95664800625,53.0,100.0
1377,168.96164799583335,169.24564740416668,41.0,102.0
1378,169.20164749583333,169.43064701875,53.0,100.0
1379,168.96164799583335,169.45164697500002,60.0,100.0
1380,168.96164799583335,169.50464686458335,69.0,94.0
1381,168.96164799583335,169.50664686041668,65.0,104.0
1382,169.44164699583334,169.68964647916667,41.0,107.0
1383,169.68164649583335,169.90264603541667,53.0,102.0
1384,169.92164599583333,170.17964545833334,41.0,104.0
1385,169.68164649583335,170.20664540208332,60.0,104.0
1386,169.68164649583335,170.2136453875,65.0,107.0
1387,169.68164649583335,170.22164537083333,69.0,96.0
1388,170.16164549583334,170.3816450375,53.0,98.0
1389,170.40164499583335,170.65264447291668,41.0,102.0
1390,170.40164499583335,170.66764444166668,60.0,113.0
1391,170.40164499583335,170.73964429166668,69.0,108.0
1392,170.40164499583335,170.75464426041668,65.0,117.0
1393,170.64164449583333,170.8376440875,53.0,104.0
1394,170.88164399583334,171.14864343958334,43.0,107.0
1395,171.12164349583333,171.3416430375,55.0,92.0
1396,170.88164399583334,171.36764298333333,67.0,108.0
1397,170.88164399583334,171.42164287083335,62.0,113.0
1398,170.88164399583334,171.45464280208333,58.0,103.0
1399,171.36164299583334,171.61364247083333,43.0,98.0
1400,171.60164249583335,171.84964197916668,55.0,90.0
1401,171.84164199583333,172.10264145208333,43.0,98.0
1402,171.60164249583335,172.10664144375,67.0,110.0
1403,171.60164249583335,172.11864141875,58.0,100.0
1404,171.60164249583335,172.139641375,62.0,108.0
1405,172.08164149583334,172.30464103125001,55.0,92.0
1406,172.32164099583335,172.57864046041666,67.0,107.0
1407,172.32164099583335,172.60264041041668,43.0,102.0
1408,172.32164099583335,172.60864039791667,58.0,97.0
1409,172.32164099583335,172.66264028541667,62.0,102.0
1410,172.56164049583333,172.70264020208333,55.0,96.0
1411,172.80163999583334,173.06463944791668,39.0,106.0
1412,173.04163949583335,173.27263901458335,51.0,88.0
1413,172.80163999583334,173.36663881875,67.0,113.0
1414,172.80163999583334,173.39663875625,63.0,109.0
1415,172.80163999583334,173.40963872916666,58.0,109.0
1416,173.28163899583333,173.52463848958334,39.0,100.0
1417,173.52163849583334,173.74863802291668,51.0,87.0
1418,173.76163799583333,174.02563744583333,39.0,100.0
1419,173.52163849583334,174.04863739791668,67.0,116.0
1420,173.52163849583334,174.08463732291668,58.0,103.0
1421,173.52163849583334,174.09163730833333,63.0,100.0
1422,174.00163749583334,174.2336370125,51.0,103.0
1423,174.24163699583335,174.43163660000002,58.0,106.0
1424,174.24163699583335,174.44263657708333,67.0,107.0
1425,174.24163699583335,174.54163637083334,39.0,103.0
1426,174.24163699583335,174.59163626666668,63.0,106.0
1427,174.48163649583333,174.63463617708334,51.0,109.0
1428,174.72163599583334,174.97863546041668,41.0,104.0
1429,174.96163549583335,175.17363505416668,53.0,88.0
1430,174.72163599583334,175.27863483541668,65.0,108.0
1431,174.72163599583334,175.31763475416668,57.0,94.0
1432,174.72163599583334,175.32063474791667,60.0,104.0
1433,175.20163499583333,175.47363442916668,41.0,102.0
1434,175.44163449583334,175.70163395416668,53.0,100.0
1435,175.68163399583335,175.94763344166668,41.0,100.0
1436,175.44163449583334,175.99763333750002,65.0,104.0
1437,175.44163449583334,176.01763329583335,57.0,102.0
1438,175.44163449583334,176.02863327291666,60.0,113.0
1439,175.92163349583333,176.13363305416667,53.0,98.0
1440,176.16163299583334,176.46063237291668,41.0,104.0
1441,176.16163299583334,176.48063233125,57.0,102.0
1442,176.16163299583334,176.483632325,65.0,94.0
1443,176.16163299583334,176.555632175,60.0,98.0
1444,176.40163249583333,176.55963216666666,53.0,104.0
1445,176.64163199583334,176.90563144583334,46.0,87.0
1446,176.64163199583334,177.06263111875,62.0,114.0
1447,176.88163149583335,177.15763092083333,58.0,86.0
1448,176.64163199583334,177.22363078333333,65.0,108.0
1449,177.12163099583333,177.38563044583333,46.0,87.0
1450,177.36163049583334,177.62262995208334,58.0,87.0
1451,177.60162999583335,177.84962947916668,46.0,91.0
1452,177.36163049583334,177.93962929166668,65.0,113.0
1453,177.36163049583334,177.94562927916667,62.0,113.0
1454,177.84162949583333,178.06862902291667,58.0,85.0
1455,178.08162899583334,178.30462853125002,65.0,116.0
1456,178.08162899583334,178.36362840833334,46.0,93.0
1457,178.08162899583334,178.4336282625,62.0,116.0
1458,178.32162849583335,178.47762817083333,58.0,91.0
1459,178.56162799583333,178.8296274375,39.0,100.0
1460,178.56162799583333,178.87162735,70.0,97.0
1461,178.56162799583333,178.87662733958334,67.0,114.0
1462,178.56162799583333,178.88862731458335,63.0,97.0
1463,178.80162749583334,179.01862704375,51.0,86.0
1464,179.04162699583333,179.22662661041667,70.0,83.0
1465,179.04162699583333,179.23262659791666,63.0,91.0
1466,179.04162699583333,179.24262657708334,67.0,110.0
1467,179.28162649583334,179.31462642708334,66.0,74.0
1468,179.04162699583333,179.31862641875,39.0,103.0
1469,179.28162649583334,179.40762623333333,51.0,90.0
1470,179.52162599583335,179.81862537708335,41.0,100.0
1471,179.52162599583335,179.96062508125002,69.0,94.0
1472,179.76162549583333,179.99662500625,53.0,88.0
1473,179.52162599583335,180.01362497083335,60.0,87.0
1474,179.52162599583335,180.0176249625,65.0,100.0
1475,180.00162499583334,180.29062439375,41.0,100.0
1476,180.24162449583335,180.36162424583333,60.0,86.0
1477,180.24162449583335,180.36462423958335,69.0,87.0
1478,180.24162449583335,180.37262422291667,65.0,88.0
1479,180.24162449583335,180.37862421041666,53.0,100.0
1480,180.48162399583333,180.7376234625,38.0,104.0
1481,180.72162349583334,180.92562307083335,50.0,91.0
1482,180.48162399583333,181.03562284166668,62.0,104.0
1483,180.48162399583333,181.05762279583334,65.0,110.0
1484,180.48162399583333,181.06962277083335,69.0,104.0
1485,180.96162299583335,181.23162243333334,38.0,104.0
1486,181.20162249583333,181.31862225208334,69.0,87.0
1487,181.20162249583333,181.32162224583334,62.0,85.0
1488,181.20162249583333,181.36462215625,50.0,104.0
1489,181.20162249583333,181.37462213541667,65.0,91.0
1490,181.44162199583334,181.6976214625,43.0,92.0
1491,181.44162199583334,181.77962129166667,70.0,113.0
1492,181.44162199583334,181.78362128333333,62.0,100.0
1493,181.44162199583334,181.79962125,67.0,113.0
1494,181.68162149583333,181.89562105000002,55.0,92.0
1495,181.92162099583334,182.16162049583335,62.0,100.0
1496,181.92162099583334,182.17662046458335,67.0,102.0
1497,181.92162099583334,182.21162039166668,43.0,107.0
1498,181.92162099583334,182.21162039166668,70.0,97.0
1499,182.16162049583335,182.30162020416668,55.0,102.0
1500,182.40161999583333,182.67161943333335,39.0,103.0
1501,182.64161949583334,182.88261899375001,51.0,88.0
1502,182.88161899583335,183.14261845208333,39.0,100.0
1503,183.12161849583333,183.3546180104167,51.0,88.0
1504,183.36161799583334,183.62361745,39.0,103.0
1505,182.88161899583335,183.65361738750002,67.0,113.0
1506,182.88161899583335,183.66061737291668,63.0,97.0
1507,182.88161899583335,183.66761735833333,70.0,91.0
1508,183.60161749583335,183.84261699375,51.0,90.0
1509,183.84161699583333,184.08361649166667,70.0,86.0
1510,183.84161699583333,184.0856164875,63.0,103.0
1511,183.84161699583333,184.08661648541667,67.0,114.0
1512,183.84161699583333,184.13861637708334,39.0,106.0
1513,184.08161649583334,184.20961622916667,51.0,109.0
1514,184.32161599583333,184.58461544791666,41.0,108.0
1515,184.56161549583334,184.77661504791666,53.0,93.0
1516,184.80161499583335,184.83661492291668,60.0,80.0
1517,184.80161499583335,185.05361447083334,41.0,104.0
1518,185.04161449583333,185.25761404583335,53.0,96.0
1519,185.04161449583333,185.315613925,57.0,96.0
1520,185.04161449583333,185.51561350833333,65.0,98.0
1521,185.28161399583334,185.54161345416668,41.0,107.0
1522,185.04161449583333,185.55761342083335,60.0,108.0
1523,185.52161349583335,185.73561305,53.0,107.0
1524,185.76161299583333,186.01861246041668,57.0,107.0
1525,185.76161299583333,186.04061241458334,41.0,107.0
1526,185.76161299583333,186.0956123,65.0,107.0
1527,185.76161299583333,186.11261226458333,60.0,113.0
1528,186.00161249583334,186.20561207083333,53.0,108.0
1529,186.24161199583335,186.515611425,43.0,98.0
1530,186.48161149583333,186.70961102083334,55.0,91.0
1531,186.72161099583334,186.99461042708333,43.0,104.0
1532,186.96161049583333,187.19461001041668,55.0,94.0
1533,186.72161099583334,187.38460961458333,67.0,91.0
1534,186.72161099583334,187.41860954375,58.0,106.0
1535,186.72161099583334,187.43260951458333,62.0,107.0
1536,187.20160999583334,187.48360940833334,43.0,102.0
1537,187.44160949583335,187.68260899375,55.0,102.0
1538,187.68160899583333,187.95760842083334,43.0,108.0
1539,187.68160899583333,188.01960829166669,58.0,100.0
1540,187.68160899583333,188.07460817708335,67.0,104.0
1541,187.68160899583333,188.13160805833334,62.0,110.0
1542,187.92160849583334,188.15260801458334,55.0,91.0
1543,188.16160799583335,188.42460744791669,43.0,107.0
1544,188.40160749583333,188.61560705,55.0,92.0
1545,188.64160699583334,188.91260643125,43.0,108.0
1546,188.88160649583335,189.11560600833334,55.0,94.0
1547,188.88160649583335,189.35560550833333,62.0,104.0
1548,188.88160649583335,189.35860550208335,67.0,94.0
1549,189.12160599583333,189.40060541458334,43.0,102.0
1550,188.88160649583335,189.40060541458334,58.0,91.0
1551,189.36160549583335,189.58460503125,55.0,98.0
1552,189.60160499583333,189.88960439583335,43.0,108.0
1553,189.84160449583334,189.96260424375,55.0,107.0
1554,189.60160499583333,189.9726042229167,58.0,93.0
1555,189.60160499583333,190.00360415833333,67.0,108.0
1556,189.60160499583333,190.00860414791669,62.0,113.0
1557,190.08160399583335,190.34860343958334,41.0,90.0
1558,190.32160349583333,190.57160297500002,53.0,88.0
1559,190.56160299583334,190.82660244375,41.0,93.0
1560,190.80160249583335,191.0286020229167,53.0,92.0
1561,191.04160199583333,191.30660144375,41.0,93.0
1562,190.80160249583335,191.35560134166667,57.0,104.0
1563,190.80160249583335,191.35560134166667,65.0,94.0
1564,190.80160249583335,191.3696013125,60.0,110.0
1565,191.28160149583334,191.49760104583333,53.0,92.0
1566,191.52160099583335,191.79060043541668,41.0,102.0
1567,191.52160099583335,191.87760025416668,57.0,102.0
1568,191.76160049583333,191.89160022500002,53.0,100.0
1569,191.52160099583335,191.99460001041666,65.0,100.0
1570,191.52160099583335,192.02259995208334,60.0,114.0
1571,192.00159999583335,192.27759942083333,46.0,88.0
1572,192.24159949583333,192.4975989625,58.0,88.0
1573,192.48159899583334,192.731598475,46.0,89.0
1574,192.72159849583335,192.96959797916668,58.0,86.0
1575,192.72159849583335,193.2415974125,62.0,104.0
1576,192.96159799583333,193.24859739791668,46.0,90.0
1577,192.72159849583335,193.25259738958334,65.0,114.0
1578,192.72159849583335,193.26659736041668,69.0,96.0
1579,193.20159749583334,193.46159695416668,58.0,86.0
1580,193.44159699583335,193.7275964,46.0,91.0
1581,193.68159649583333,193.79759625416668,58.0,93.0
1582,193.44159699583335,193.91759600416668,65.0,114.0
1583,193.44159699583335,193.91859600208335,62.0,110.0
1584,193.44159699583335,193.931595975,69.0,102.0
1585,193.92159599583334,194.2015954125,39.0,95.0
1586,194.16159549583335,194.40459498958333,51.0,85.0
1587,193.92159599583334,194.5615946625,63.0,97.0
1588,193.92159599583334,194.62259453541668,70.0,95.0
1589,194.40159499583334,194.69059439375002,39.0,100.0
1590,194.64159449583335,194.75959425000002,51.0,95.0
1591,193.92159599583334,194.8015941625,67.0,113.0
1592,194.88159399583333,195.13459346875,41.0,87.0
1593,194.88159399583333,195.33359305416667,69.0,100.0
1594,195.12159349583334,195.36459298958334,53.0,87.0
1595,194.88159399583333,195.36759298333334,72.0,92.0
1596,194.88159399583333,195.38459294791667,65.0,89.0
1597,195.36159299583335,195.6535923875,41.0,98.0
1598,195.60159249583333,195.75959216666666,53.0,104.0
1599,195.84159199583334,196.14759135833333,46.0,84.0
1600,196.08159149583335,196.38759085833334,58.0,86.0
1601,195.84159199583334,196.49859062708333,62.0,91.0
1602,196.32159099583333,196.59959041666667,46.0,86.0
1603,195.84159199583334,196.67559025833333,70.0,103.0
1604,196.56159049583334,196.83158993333333,58.0,85.0
1605,196.80158999583335,197.075589425,46.0,83.0
1606,197.04158949583334,197.30058895625,58.0,86.0
1607,196.80158999583335,197.31558892500001,70.0,82.0
1608,196.80158999583335,197.31758892083334,62.0,91.0
1609,195.84159199583334,197.33158889166668,65.0,107.0
1610,197.28158899583335,197.55258843125,46.0,87.0
1611,197.52158849583333,197.6455882375,58.0,87.0
1612,197.76158799583334,198.05858737708334,48.0,91.0
1613,198.00158749583335,198.24858698125,60.0,89.0
1614,197.76158799583334,198.30658686041667,63.0,109.0
1615,197.76158799583334,198.33858679375,67.0,107.0
1616,198.24158699583333,198.55058635208334,48.0,93.0
1617,198.48158649583334,198.5575863375,60.0,93.0
1618,198.72158599583335,198.98258545208333,41.0,92.0
1619,198.96158549583333,199.19658500625002,53.0,88.0
1620,198.72158599583335,199.22658494375,65.0,93.0
1621,198.72158599583335,199.22858493958333,57.0,92.0
1622,198.72158599583335,199.23158493333335,60.0,104.0
1623,199.20158499583334,199.4765844229167,41.0,92.0
1624,199.44158449583335,199.64658406875,53.0,94.0
1625,199.68158399583334,199.95958341666667,43.0,91.0
1626,199.92158349583335,200.15558300833334,55.0,87.0
1627,199.68158399583334,200.159583,67.0,96.0
1628,199.68158399583334,200.19758292083333,62.0,96.0
1629,199.68158399583334,200.22258286875,58.0,86.0
1630,200.16158299583333,200.43658242291667,43.0,90.0
1631,200.40158249583334,200.63058201875,55.0,91.0
1632,200.64158199583335,200.89258147291667,43.0,96.0
1633,200.40158249583334,200.93958137500002,67.0,102.0
1634,200.40158249583334,200.96158132916668,58.0,91.0
1635,200.40158249583334,200.97558130000002,62.0,104.0
1636,200.88158149583333,201.09958104166668,55.0,92.0
1637,201.12158099583334,201.37858046041669,43.0,107.0
1638,201.36158049583335,201.5695800625,55.0,100.0
1639,201.12158099583334,201.58058003958334,58.0,89.0
1640,201.12158099583334,201.5885800229167,67.0,96.0
1641,201.12158099583334,201.60957997916668,62.0,96.0
1642,201.59958,201.60957997916668,62.0,91.0
1643,201.59958,201.8395795,43.0,98.0
1644,201.8395795,202.079579,55.0,93.0
1645,201.59958,202.25157864166667,70.0,88.0
1646,201.59958,202.26357861666668,67.0,92.0
1647,202.079579,202.3195785,43.0,98.0
1648,202.3195785,202.55957800000002,55.0,98.0
1649,202.55957800000002,202.7995775,43.0,102.0
1650,202.3195785,202.97157714166667,70.0,88.0
1651,202.3195785,202.97957712500002,62.0,96.0
1652,202.3195785,202.99957708333335,67.0,96.0
1653,202.7995775,203.039577,55.0,107.0
1654,203.039577,203.1835767,70.0,94.0
1655,203.039577,203.21557663333334,67.0,104.0
1656,203.039577,203.23457659375,62.0,104.0
1657,203.519576,203.7595755,43.0,102.0
1658,203.7595755,203.999575,55.0,107.0
1659,203.519576,204.18157462083335,62.0,92.0
1660,203.519576,204.18657461041667,70.0,87.0
1661,203.519576,204.20657456875,67.0,91.0
1662,203.999575,204.2395745,43.0,102.0
1663,204.2395745,204.479574,55.0,107.0
1664,204.479574,204.7195735,43.0,100.0
1665,204.7195735,204.83957325,55.0,116.0
1666,204.2395745,204.8575732125,62.0,93.0
1667,204.2395745,204.88557315416668,70.0,87.0
1668,204.2395745,204.88657315208334,67.0,92.0
1669,204.959573,205.1035727,70.0,94.0
1670,204.959573,205.13557263333334,67.0,104.0
1671,204.959573,205.15457259375,62.0,104.0
1672,205.439572,205.6795715,43.0,98.0
1673,205.6795715,205.91957100000002,55.0,93.0
1674,205.439572,206.09157064166666,62.0,91.0
1675,205.439572,206.09157064166666,70.0,88.0
1676,205.439572,206.10357061666667,67.0,92.0
1677,205.91957100000002,206.1595705,43.0,98.0
1678,206.1595705,206.39957,55.0,98.0
1679,206.39957,206.6395695,43.0,102.0
1680,206.1595705,206.81156914166667,70.0,88.0
1681,206.1595705,206.81956912500002,62.0,96.0
1682,206.1595705,206.83956908333334,67.0,96.0
1683,206.6395695,206.879569,55.0,107.0
1684,206.879569,207.0235687,70.0,94.0
1685,206.879569,207.05556863333334,67.0,104.0
1686,206.879569,207.07456859375,62.0,104.0
1687,207.359568,207.5995675,43.0,102.0
1688,207.5995675,207.83956700000002,55.0,107.0
1689,207.359568,208.02156662083334,62.0,92.0
1690,207.359568,208.02656661041667,70.0,87.0
1691,207.359568,208.04656656875,67.0,91.0
1692,207.83956700000002,208.0795665,43.0,102.0
1693,208.0795665,208.319566,55.0,107.0
1694,208.319566,208.55956550000002,43.0,100.0
1695,208.55956550000002,208.67956525,55.0,116.0
1696,208.0795665,208.6975652125,62.0,93.0
1697,208.0795665,208.72556515416667,70.0,87.0
1698,208.0795665,208.72656515208334,67.0,92.0
1699,208.799565,208.9435647,70.0,94.0
1700,208.799565,208.97556463333333,67.0,104.0
1701,208.799565,208.99456459375,62.0,104.0
1702,209.279564,211.22855993958333,43.0,95.0
1703,209.279564,211.23255993125,55.0,95.0
