,start,end,pitch,velocity
0,34.73262499583333,34.82811106875,72.0,81.0
1,34.94095824583333,35.03991653958333,72.0,82.0
2,35.14929149583333,35.44269415625,72.0,93.0
3,35.56595799583333,35.71179127083333,70.0,72.0
4,35.77429124583333,35.946166177083335,72.0,96.0
5,36.19095774583333,36.31074936458333,67.0,77.0
6,36.60762424583333,36.74304085833333,67.0,83.0
7,36.81595749583333,37.179672628125,65.0,81.0
8,37.23262399583333,37.482623895833335,63.0,85.0
9,37.649290495833334,38.82810946875,67.0,93.0
10,41.39928899583333,41.49564312395833,72.0,100.0
11,41.60762224583333,41.710920815624995,72.0,77.0
12,41.81595549583333,42.00519153125,72.0,100.0
13,42.232621995833334,42.33765667604167,72.0,93.0
14,42.44095524583333,42.55553853333333,70.0,88.0
15,42.64928849583333,42.84546897291666,72.0,95.0
16,43.06595499583333,43.236961871874996,60.0,90.0
17,43.48262149583333,43.709183905208334,60.0,92.0
18,43.89928799583333,43.988697682291665,63.0,79.0
19,44.10762124583333,44.35501698020833,67.0,81.0
20,44.73262099583333,45.20918330520833,65.0,77.0
21,48.06595299583333,48.158834903125,65.0,93.0
22,48.27428624583333,48.36543204270833,65.0,75.0
23,48.48261949583333,48.755188831249995,65.0,86.0
24,48.89928599583333,49.061612319791664,65.0,68.0
25,49.31595249583333,49.50171631041666,65.0,78.0
26,49.73261899583333,49.942688356249995,63.0,89.0
27,50.14928549583333,50.40015345104166,63.0,107.0
28,50.56595199583333,50.67532695208333,70.0,107.0
29,50.77428524583333,50.877583815624995,65.0,88.0
30,50.98261849583333,52.007791696874996,67.0,97.0
31,53.89928399583333,54.04858949166666,60.0,96.0
32,54.10761724583333,54.26733940416666,63.0,92.0
33,54.31595049583333,55.270811224999996,65.0,96.0
34,55.56594999583333,55.703102718749996,65.0,86.0
35,55.77428324583333,55.91056791354166,67.0,85.0
36,55.982616495833334,56.21265112604166,70.0,86.0
37,56.39928299583333,56.64407456458333,67.0,88.0
38,56.81594949583333,57.00171331041666,67.0,99.0
39,57.02428274583333,57.322893737499996,65.0,79.0
40,57.44094924583333,57.731747740624996,63.0,79.0
41,58.06594899583333,59.358483201041665,60.0,74.0
42,61.39928099583333,61.50865595208333,72.0,89.0
43,61.60761424583333,61.720461422916664,70.0,86.0
44,61.81594749583333,61.976537709374995,72.0,96.0
45,62.23261399583333,62.372370884374995,72.0,99.0
46,62.44094724583333,62.55292636770833,70.0,95.0
47,62.64928049583333,62.884523457291664,72.0,100.0
48,63.06594699583333,63.160565013541664,67.0,86.0
49,63.27428024583333,63.35761354583333,67.0,89.0
50,63.48261349583333,63.69441896666666,67.0,99.0
51,63.89927999583333,64.03209244270833,65.0,93.0
52,64.10761324583333,64.33938398645833,63.0,99.0
53,64.52427974583333,65.47045992291666,67.0,97.0
54,68.06594499583333,68.15969495833333,72.0,88.0
55,68.27427824583333,68.3853893125,70.0,81.0
56,68.48261149583332,68.63452115729166,72.0,95.0
57,68.89927799583333,69.07202098229166,72.0,90.0
58,69.10761124583333,69.23781952708333,70.0,89.0
59,69.31594449583334,69.46438193645832,72.0,97.0
60,69.73261099583333,69.82462484791667,60.0,93.0
61,69.94094424583334,70.03729837395834,60.0,78.0
62,70.14927749583333,70.32896492395832,60.0,85.0
63,70.35761074583333,70.54858289166667,70.0,93.0
64,70.77427724583333,71.02514520104167,67.0,92.0
65,70.98261049583333,72.35326966979166,65.0,76.0
66,74.73260899583333,74.82809506875,65.0,99.0
67,74.94094224583333,75.0312199875,65.0,76.0
68,75.14927549583334,75.35066430416666,65.0,95.0
69,75.56594199583333,75.8020530125,65.0,102.0
70,75.98260849583333,76.15535148229166,65.0,102.0
71,76.39927499583332,76.68052488333333,63.0,90.0
72,76.81594149583333,77.19875384270833,63.0,97.0
73,77.23260799583333,77.47566345416666,60.0,88.0
74,77.64927449583332,77.91055911354167,70.0,117.0
75,78.27427424583333,79.60673899062499,67.0,96.0
76,80.56593999583333,80.700488553125,60.0,92.0
77,80.77427324583333,80.94875234270833,63.0,79.0
78,80.98260649583332,81.26125221770833,65.0,89.0
79,81.39927299583333,82.06767550625,65.0,97.0
80,82.44093924583333,82.56767530625,67.0,79.0
81,82.64927249583333,82.88711962291666,70.0,93.0
82,83.06593899583333,83.22392504375,67.0,89.0
83,83.48260549583333,83.71524429166666,67.0,96.0
84,83.89927199583333,84.07635525833332,65.0,97.0
85,84.31593849583332,84.58156338958332,67.0,95.0
86,84.73260499583333,85.92531285208332,60.0,81.0
87,87.64927049583333,87.89232595416667,72.0,112.0
88,88.06593699583333,88.15013835104166,79.0,97.0
89,88.27427024583334,88.351527159375,79.0,83.0
90,88.48260349583333,88.70569368437499,79.0,99.0
91,88.89926999583332,89.15968655833333,72.0,107.0
92,89.31593649583333,90.3020472125,77.0,127.0
93,90.98260249583333,91.19874824270833,72.0,107.0
94,91.39926899583332,91.48607451666666,77.0,107.0
95,91.60760224583333,91.687463325,77.0,92.0
96,91.81593549583333,91.99909514479167,77.0,100.0
97,92.23260199583333,92.42270608645833,72.0,100.0
98,92.64926849583333,92.812462875,75.0,127.0
99,92.85760174583334,93.52253203541666,72.0,99.0
100,94.31593449583333,94.48173304062499,70.0,117.0
101,94.73260099583332,94.851524559375,70.0,97.0
102,95.14926749583333,95.28989243958333,70.0,102.0
103,95.56593399583333,95.721315878125,70.0,127.0
104,95.77426724583333,95.85933665625,72.0,92.0
105,95.98260049583332,96.33937118645832,75.0,117.0
106,96.60760024583332,96.70308631875,77.0,96.0
107,96.81593349583333,97.19440556666666,75.0,112.0
108,97.643190109375,97.731731740625,77.0,102.0
109,97.84544697291666,97.98780802708333,77.0,93.0
110,98.23259959583334,98.31332873020833,77.0,95.0
111,98.46176617083333,98.56159251979166,77.0,99.0
112,98.726523009375,98.82634935833333,75.0,122.0
113,99.039022884375,99.127564515625,79.0,100.0
114,99.28294639791666,100.01211277291667,77.0,127.0
115,100.98259849583333,101.22565395416666,72.0,112.0
116,101.39926499583333,101.48346635104166,79.0,97.0
117,101.60759824583333,101.68485515937499,79.0,83.0
118,101.81593149583333,102.039021684375,79.0,99.0
119,102.23259799583333,102.49301455833333,72.0,107.0
120,102.64926449583332,103.6353752125,77.0,127.0
121,104.31593049583333,104.53207624270833,72.0,107.0
122,104.73259699583333,104.81940251666666,77.0,107.0
123,104.94093024583333,105.02079132499999,77.0,92.0
124,105.14926349583332,105.33242314479166,77.0,100.0
125,105.56592999583333,105.75603408645833,72.0,100.0
126,105.98259649583333,106.14579087499999,75.0,127.0
127,106.19092974583333,106.85586003541665,72.0,99.0
128,107.64926249583333,107.815061040625,70.0,117.0
129,107.85759574583332,108.01471373854166,70.0,107.0
130,108.27426224583333,108.37842887083333,70.0,117.0
131,108.48259549583332,108.62322043958332,70.0,102.0
132,108.89926199583333,109.31592849583333,72.0,92.0
133,109.31592849583333,109.52165758020833,75.0,117.0
134,109.52426174583333,109.73346305104167,75.0,102.0
135,109.94092824583333,110.07808096875,77.0,95.0
136,110.14926149583333,110.52773356666665,75.0,112.0
137,110.98259449583333,111.06940001666666,77.0,112.0
138,111.19092774583332,111.26644854895832,77.0,83.0
139,111.39926099583333,111.512976228125,77.0,96.0
140,111.60759424583333,111.72825391979165,79.0,97.0
141,111.81592749583332,111.93919133541667,77.0,112.0
142,112.23259399583333,112.36714255312499,75.0,107.0
143,112.44092724583332,112.57113552708333,70.0,86.0
144,112.85759374583333,113.11019781145832,75.0,107.0
145,113.06592699583332,114.76991936979167,72.0,68.0
146,141.39924899583332,141.50862395208333,72.0,89.0
147,141.60758224583333,141.72042942291665,70.0,86.0
148,141.81591549583334,141.976505709375,72.0,96.0
149,142.23258199583333,142.37233888437498,72.0,99.0
150,142.44091524583334,142.55289436770832,70.0,95.0
151,142.64924849583332,142.88449145729166,72.0,100.0
152,143.06591499583334,143.16053301354165,67.0,86.0
153,143.27424824583332,143.3575815458333,67.0,89.0
154,143.48258149583333,143.69438696666666,67.0,99.0
155,143.89924799583332,144.0320604427083,65.0,93.0
156,144.10758124583333,144.33935198645833,63.0,99.0
157,144.52424774583332,145.47042792291666,67.0,97.0
158,148.06591299583332,148.1596629583333,72.0,88.0
159,148.27424624583333,148.3853573125,70.0,81.0
160,148.48257949583333,148.63448915729165,72.0,95.0
161,148.89924599583333,149.07198898229166,72.0,90.0
162,149.10757924583334,149.23778752708333,70.0,89.0
163,149.31591249583332,149.46434993645832,72.0,97.0
164,149.73257899583334,149.82459284791665,60.0,93.0
165,149.94091224583332,150.03726637395832,60.0,78.0
166,150.14924549583333,150.32893292395832,60.0,85.0
167,150.35757874583334,150.54855089166665,70.0,93.0
168,150.77424524583333,151.02511320104165,67.0,92.0
169,150.98257849583334,152.35323766979167,65.0,76.0
170,154.7325769958333,154.82806306875,65.0,99.0
171,154.94091024583332,155.0311879875,65.0,76.0
172,155.14924349583333,155.35063230416665,65.0,95.0
173,155.56590999583332,155.80202101249998,65.0,102.0
174,155.9825764958333,156.15531948229165,65.0,102.0
175,156.39924299583333,156.68049288333333,63.0,90.0
176,156.81590949583332,157.19872184270832,63.0,97.0
177,157.23257599583332,157.47563145416666,60.0,88.0
178,157.64924249583333,157.91052711354166,70.0,117.0
179,158.27424224583334,159.60670699062499,67.0,96.0
180,160.56590799583333,160.70045655312498,60.0,92.0
181,160.77424124583334,160.94872034270833,63.0,79.0
182,160.98257449583332,161.2612202177083,65.0,89.0
183,161.39924099583334,162.06764350625,65.0,97.0
184,162.44090724583333,162.56764330625,67.0,79.0
185,162.6492404958333,162.88708762291665,70.0,93.0
186,163.06590699583333,163.22389304375,67.0,89.0
187,163.48257349583332,163.71521229166666,67.0,96.0
188,163.8992399958333,164.07632325833333,65.0,97.0
189,164.31590649583333,164.58153138958332,67.0,95.0
190,164.73257299583332,165.92528085208332,60.0,81.0
191,167.64923849583332,167.89229395416666,72.0,112.0
192,168.06590499583334,168.15010635104167,79.0,97.0
193,168.27423824583332,168.351495159375,79.0,83.0
194,168.48257149583333,168.705661684375,79.0,99.0
195,168.89923799583332,169.15965455833333,72.0,107.0
196,169.31590449583334,170.30201521249998,77.0,127.0
197,170.98257049583333,171.19871624270831,72.0,107.0
198,171.39923699583332,171.48604251666666,77.0,107.0
199,171.60757024583333,171.68743132499998,77.0,92.0
200,171.8159034958333,171.99906314479165,77.0,100.0
201,172.23256999583333,172.42267408645833,72.0,100.0
202,172.64923649583332,172.812430875,75.0,127.0
203,172.85756974583333,173.52250003541667,72.0,99.0
204,174.3159024958333,174.48170104062498,70.0,117.0
205,174.73256899583333,174.851492559375,70.0,97.0
206,175.14923549583332,175.28986043958332,70.0,102.0
207,175.56590199583331,175.72128387812498,70.0,127.0
208,175.77423524583332,175.85930465625,72.0,92.0
209,175.98256849583333,176.33933918645832,75.0,117.0
210,176.60756824583333,176.70305431875,77.0,96.0
211,176.81590149583332,177.19437356666666,75.0,112.0
212,177.64315810937498,177.731699740625,77.0,102.0
213,177.84541497291664,177.98777602708333,77.0,93.0
214,178.23256759583333,178.31329673020832,77.0,95.0
215,178.46173417083332,178.56156051979167,77.0,99.0
216,178.726491009375,178.8263173583333,75.0,122.0
217,179.03899088437498,179.12753251562498,79.0,100.0
218,179.28291439791667,180.01208077291665,77.0,127.0
219,180.9825664958333,181.22562195416666,72.0,112.0
220,181.39923299583333,181.48343435104167,79.0,97.0
221,181.6075662458333,181.684823159375,79.0,83.0
222,181.81589949583332,182.038989684375,79.0,99.0
223,182.2325659958333,182.49298255833332,72.0,107.0
224,182.64923249583333,183.6353432125,77.0,127.0
225,184.31589849583332,184.5320442427083,72.0,107.0
226,184.73256499583331,184.81937051666665,77.0,107.0
227,184.94089824583332,185.020759325,77.0,92.0
228,185.14923149583333,185.33239114479164,77.0,100.0
229,185.56589799583332,185.75600208645832,72.0,100.0
230,185.98256449583332,186.14575887499998,75.0,127.0
231,186.19089774583333,186.85582803541666,72.0,99.0
232,187.64923049583334,187.81502904062498,70.0,117.0
233,187.85756374583332,188.01468173854167,70.0,107.0
234,188.27423024583334,188.3783968708333,70.0,117.0
235,188.48256349583332,188.62318843958332,70.0,102.0
236,188.8992299958333,189.31589649583333,72.0,92.0
237,189.31589649583333,189.52162558020834,75.0,117.0
238,189.5242297458333,189.73343105104166,75.0,102.0
239,189.94089624583333,190.07804896874998,77.0,95.0
240,190.1492294958333,190.52770156666665,75.0,112.0
241,190.98256249583332,191.06936801666666,77.0,112.0
242,191.19089574583333,191.26641654895832,77.0,83.0
243,191.3992289958333,191.51294422812498,77.0,96.0
244,191.60756224583332,191.72822191979165,79.0,97.0
245,191.81589549583333,191.93915933541666,77.0,112.0
246,192.23256199583332,192.367110553125,75.0,107.0
247,192.44089524583333,192.57110352708332,70.0,86.0
248,192.75339512083332,193.00599918645833,75.0,107.0
249,192.93221449375,194.07717931354165,72.0,103.0
250,194.31589449583333,194.55894995416665,72.0,112.0
251,194.73256099583332,194.81676235104166,79.0,97.0
252,194.94089424583333,195.01815115937498,79.0,83.0
253,195.14922749583332,195.372317684375,79.0,99.0
254,195.56589399583333,195.82631055833332,72.0,107.0
255,195.98256049583333,196.9686712125,77.0,127.0
256,197.64922649583332,197.86537224270833,72.0,107.0
257,198.0658929958333,198.15269851666665,77.0,107.0
258,198.27422624583332,198.354087325,77.0,92.0
259,198.48255949583333,198.66571914479167,77.0,100.0
260,198.89922599583332,199.08933008645832,72.0,100.0
261,199.3158924958333,199.47908687499998,75.0,127.0
262,199.52422574583332,200.18915603541666,72.0,99.0
263,200.98255849583333,201.148357040625,70.0,117.0
264,201.39922499583332,201.518148559375,70.0,97.0
265,201.8158914958333,201.9565164395833,70.0,102.0
266,202.23255799583333,202.387939878125,70.0,127.0
267,202.4408912458333,202.52596065625,72.0,92.0
268,202.64922449583332,203.00599518645834,75.0,117.0
269,203.27422424583332,203.36971031874998,77.0,96.0
270,203.48255749583333,203.86102956666664,75.0,112.0
271,204.309814109375,204.398355740625,77.0,102.0
272,204.51207097291666,204.65443202708332,77.0,93.0
273,204.89922359583332,204.9799527302083,77.0,95.0
274,205.1283901708333,205.22821651979166,77.0,99.0
275,205.39314700937499,205.49297335833333,75.0,122.0
276,205.705646884375,205.794188515625,79.0,100.0
277,205.94957039791666,206.67873677291666,77.0,127.0
278,207.64922249583333,207.89227795416664,72.0,112.0
279,208.06588899583332,208.15009035104165,79.0,97.0
280,208.27422224583333,208.35147915937497,79.0,83.0
281,208.4825554958333,208.70564568437499,79.0,99.0
282,208.89922199583333,209.1596385583333,72.0,107.0
283,209.31588849583332,210.3019992125,77.0,127.0
284,210.9825544958333,211.19870024270833,72.0,107.0
285,211.39922099583333,211.48602651666667,77.0,107.0
286,211.6075542458333,211.687415325,77.0,92.0
287,211.81588749583332,211.99904714479166,77.0,100.0
288,212.2325539958333,212.4226580864583,72.0,100.0
289,212.64922049583333,212.812414875,75.0,127.0
290,212.85755374583331,213.52248403541665,72.0,99.0
291,214.31588649583333,214.481685040625,70.0,117.0
292,214.52421974583334,214.68133773854166,70.0,107.0
293,214.94088624583333,215.04505287083333,70.0,117.0
294,215.14921949583334,215.28984443958333,70.0,102.0
295,215.56588599583333,215.98255249583332,72.0,92.0
296,215.98255249583332,216.18828158020833,75.0,117.0
297,216.19088574583333,216.40008705104165,75.0,102.0
298,216.60755224583332,216.74470496875,77.0,95.0
299,216.81588549583333,217.19435756666667,75.0,112.0
300,217.6492184958333,217.73602401666665,77.0,112.0
301,217.85755174583332,217.93307254895834,77.0,83.0
302,218.06588499583333,218.179600228125,77.0,96.0
303,218.2742182458333,218.39487791979167,79.0,97.0
304,218.48255149583332,218.60581533541665,77.0,112.0
305,218.8992179958333,219.033766553125,75.0,107.0
306,219.10755124583332,219.2377595270833,70.0,86.0
307,219.320224771875,219.5728288375,75.0,107.0
308,219.59887049374998,221.3028628677083,72.0,103.0
309,222.64921649583331,222.94261915624998,77.0,97.0
310,223.06588299583333,223.35060510416665,77.0,95.0
311,223.48254949583333,223.788972984375,77.0,112.0
312,223.89921599583332,224.25598668645833,79.0,97.0
313,224.52421574583332,225.09713218333331,77.0,102.0
314,225.10841690104166,225.53202784270832,75.0,96.0
315,225.752513865625,227.106679990625,70.0,99.0
316,227.7768186114583,230.77508130104167,72.0,100.0
