,start,end,pitch,velocity
0,26.1928981125,26.43882168125,65.0,88.0
1,26.518984612500002,26.7798538125,68.0,87.0
2,26.8450711125,27.4428963625,70.0,84.0
3,27.497244112500002,27.771700250000002,70.0,88.0
4,27.8233306125,28.027134675000003,77.0,85.0
5,28.1494171125,28.384471131250002,75.0,90.0
6,28.475503612500003,28.741807587500002,73.0,87.0
7,28.8015901125,29.11001359375,72.0,86.0
8,29.1276766125,29.40620883125,75.0,93.0
9,29.453763112500003,29.67251280625,73.0,84.0
10,29.7798496125,30.06109921875,72.0,88.0
11,30.1059361125,30.366805312500002,70.0,80.0
12,30.432022612500003,30.690174425000002,68.0,79.0
13,30.7581091125,31.30566269375,70.0,82.0
14,31.7363686125,31.97957479375,68.0,84.0
15,32.062455112500004,32.7200628875,70.0,84.0
16,32.7146281125,33.2254969625,77.0,87.0
17,33.3668011125,33.874952575,75.0,89.0
18,34.018974112500004,34.494516925,80.0,85.0
19,34.6711471125,36.39532948125,77.0,88.0
20,36.6276661125,36.872230987500004,65.0,88.0
21,36.953752612500004,37.17793708125,68.0,87.0
22,37.2798391125,37.77847971875,70.0,87.0
23,37.932012112500004,38.18337045625,70.0,87.0
24,38.2580986125,38.47684830625,77.0,89.0
25,38.5841851125,38.8504890875,75.0,90.0
26,38.910271612500004,39.16434734375,73.0,87.0
27,39.2363581125,39.4809229875,72.0,88.0
28,39.5624446125,39.79206385625,75.0,91.0
29,39.888531112500004,40.13988945625,73.0,86.0
30,40.2146176125,40.484997668750005,72.0,87.0
31,40.5407041125,40.75945380625,70.0,87.0
32,40.866790612500004,41.11271418125,68.0,87.0
33,41.1928771125,41.8722239875,70.0,87.0
34,42.1711366125,42.4129841,68.0,84.0
35,42.4972231125,43.059722325,70.0,87.0
36,43.1493961125,43.61542806875,77.0,92.0
37,43.801569112500005,44.282546700000005,75.0,92.0
38,44.4537421125,45.046132587500004,72.0,82.0
39,45.1059151125,46.92792343125,70.0,87.0
40,47.0624341125,47.2635207875,73.0,90.0
41,47.3885206125,47.65346589375,75.0,90.0
42,47.714607112500005,48.179280375000005,77.0,86.0
43,48.3667801125,48.892594593750005,80.0,86.0
44,49.0189531125,49.25400713125,82.0,87.0
45,49.3450396125,49.60183273125,80.0,88.0
46,49.671126112500005,49.88172364375,77.0,90.0
47,49.9972126125,50.24313618125,75.0,79.0
48,50.3232991125,50.896667875,73.0,85.0
49,50.9754721125,51.262156493750005,73.0,85.0
50,51.3015586125,51.5515582625,72.0,86.0
51,51.627645112500005,52.175198693750005,73.0,87.0
52,52.605904612500005,52.8993824625,72.0,86.0
53,52.9319911125,53.53932721875,70.0,84.0
54,53.584164112500005,54.09095688125,77.0,88.0
55,54.2363371125,54.797477631250004,75.0,87.0
56,54.8885101125,55.41432459375,80.0,88.0
57,55.540683112500005,57.232256831250005,77.0,92.0
58,57.497202112500005,57.732256131250004,73.0,86.0
59,57.8232886125,58.146657725000004,75.0,82.0
60,58.1493751125,58.8042655,77.0,89.0
61,58.8015481125,59.391221200000004,80.0,81.0
62,59.453721112500006,59.74040549375,82.0,87.0
63,59.7798076125,60.069209381250005,80.0,90.0
64,60.1058941125,60.402089350000004,77.0,89.0
65,60.431980612500006,60.72817585,75.0,88.0
66,60.7580671125,61.30290330625,73.0,85.0
67,61.410240112500006,61.6656745375,73.0,87.0
68,61.7363266125,61.98496756875,72.0,83.0
69,62.0624131125,62.8993684625,73.0,88.0
70,63.0406726125,63.2906722625,72.0,87.0
71,63.366759112500006,64.20779054375001,73.0,88.0
72,64.3450186125,64.5950182625,73.0,87.0
73,64.6711051125,64.8912135,73.0,86.0
74,64.9971916125,65.2145826125,75.0,91.0
75,65.3232781125,65.8042557,77.0,88.0
76,65.9754511125,66.9537106125,80.0,87.0
77,66.9537106125,67.2254493625,77.0,97.0
78,67.2797971125,67.51756851875,85.0,89.0
79,67.60588361250001,67.8830571375,84.0,88.0
80,67.9319701125,68.16158935625,82.0,90.0
81,68.2580566125,68.5189258125,80.0,87.0
82,68.5841431125,69.114033675,82.0,88.0
83,69.2363161125,69.46050058125,82.0,89.0
84,69.56240261250001,69.75397843125,84.0,90.0
85,69.8884891125,70.1167496625,85.0,90.0
86,70.2145756125,70.4482709375,84.0,89.0
87,70.5406621125,70.82191171875,82.0,88.0
88,70.8667486125,71.103161325,80.0,87.0
89,71.1928351125,72.45777899375,80.0,87.0
90,72.8232676125,73.03250645,77.0,88.0
91,73.1493541125,73.4265276375,77.0,92.0
92,73.47544061250001,73.71592940625,80.0,86.0
93,73.8015271125,74.0868528,82.0,88.0
94,74.1276136125,74.353156775,73.0,87.0
95,74.4537001125,74.68603674375001,73.0,92.0
96,74.7797866125,74.98494936875001,73.0,86.0
97,75.1058731125,75.25668811875,73.0,81.0
98,75.43195961250001,75.7580461125,75.0,84.0
99,75.7580461125,76.0841326125,75.0,84.0
100,76.0841326125,76.309675775,73.0,89.0
101,76.4102191125,76.66021876250001,75.0,92.0
102,76.7363056125,76.97679440625001,77.0,86.0
103,77.0623921125,77.30288090625,77.0,90.0
104,77.38847861250001,77.6276087125,75.0,88.0
105,77.7145651125,78.36537941875001,77.0,90.0
106,78.6928246125,78.93874818125,75.0,89.0
107,79.0189111125,79.2526064375,75.0,91.0
108,79.34499761250001,79.5623886125,73.0,88.0
109,79.6710841125,79.853149075,73.0,82.0
110,79.9971706125,80.222713775,72.0,90.0
111,80.3232571125,80.52841986875,73.0,87.0
112,80.6493436125,81.30151661250001,75.0,95.0
113,81.30151661250001,81.53521193750001,77.0,92.0
114,81.6276031125,81.86265713125,84.0,87.0
115,81.9536896125,82.17515669375,85.0,87.0
116,82.2797761125,82.51483013125001,84.0,90.0
117,82.6058626125,82.8232536125,82.0,89.0
118,82.9319491125,83.25803561250001,80.0,89.0
119,83.25803561250001,83.83004568125,80.0,87.0
120,83.9102086125,84.14254524375,80.0,87.0
121,84.2362951125,84.73221833125001,82.0,88.0
122,85.21455461250001,85.440097775,82.0,91.0
123,85.5406411125,86.0895533875,82.0,90.0
124,86.1928141125,86.67786778125,82.0,87.0
125,86.84498711250001,88.1493331125,80.0,91.0
126,88.1493331125,88.3775936625,85.0,91.0
127,88.4754196125,88.6928106125,84.0,83.0
128,88.80150611250001,89.06237531250001,82.0,90.0
129,89.12759261250001,89.39389658750001,80.0,90.0
130,89.4536791125,90.02025440625,82.0,89.0
131,90.1058521125,90.331395275,82.0,90.0
132,90.4319386125,90.65068830625,84.0,88.0
133,90.75802511250001,91.0025899875,85.0,93.0
134,91.08411161250001,91.3694373,84.0,87.0
135,91.4101981125,92.02568638125,82.0,90.0
136,92.0623711125,93.46318436875,80.0,87.0
137,93.6928036125,93.90747722500001,77.0,90.0
138,94.0188901125,94.23763980625,77.0,93.0
139,94.3449766125,94.5623676125,80.0,88.0
140,94.67106311250001,94.90339974375,82.0,87.0
141,94.99714961250001,95.21589930625001,73.0,60.0
142,95.3232361125,95.55285535625,73.0,88.0
143,95.6493226125,95.8476919,73.0,90.0
144,95.9754091125,96.23084353750001,73.0,90.0
145,96.3014956125,96.52024530625,75.0,92.0
146,96.62758211250001,96.8721469875,75.0,102.0
147,96.95366861250001,97.1982334875,73.0,85.0
148,97.2797551125,97.61263508125,75.0,92.0
149,97.6058416125,97.83546085625001,77.0,86.0
150,97.9319281125,98.2580146125,77.0,89.0
151,98.2580146125,98.58410111250001,75.0,89.0
152,98.58410111250001,99.4319260125,77.0,90.0
153,99.5623606125,99.78926246875001,75.0,90.0
154,99.8884471125,100.1221424375,75.0,93.0
155,100.2145336125,100.4536637125,73.0,86.0
156,100.54062011250001,100.77295674375,73.0,88.0
157,100.86670661250001,101.10583671250001,72.0,87.0
158,101.1927931125,101.39523848125,73.0,86.0
159,101.5188796125,101.73762930625,75.0,93.0
160,101.8449661125,102.0433354,77.0,90.0
161,102.1710526125,102.34360671875001,80.0,87.0
162,102.49713911250001,102.69958448125,84.0,89.0
163,102.82322561250001,103.06235571250001,85.0,90.0
164,103.1493121125,103.34632270625,84.0,90.0
165,103.4753986125,104.1275716125,82.0,87.0
166,104.1275716125,104.77974461250001,80.0,87.0
167,104.77974461250001,105.01479863125,80.0,93.0
168,105.1058311125,105.61126518750001,82.0,85.0
169,105.7580041125,106.0840906125,82.0,88.0
170,106.0840906125,106.41017711250001,82.0,88.0
171,106.41017711250001,106.9781111,82.0,87.0
172,107.0623501125,107.59359936875,82.0,85.0
173,107.7145231125,110.18734573750001,80.0,88.0
174,112.27973411250001,112.52565768125001,65.0,88.0
175,112.6058206125,112.8666898125,68.0,87.0
176,112.9319071125,113.5297323625,70.0,84.0
177,113.5840801125,113.85853625,70.0,88.0
178,113.9101666125,114.113970675,77.0,85.0
179,114.23625311250001,114.47130713125,75.0,90.0
180,114.5623396125,114.82864358750001,73.0,87.0
181,114.8884261125,115.19684959375,72.0,86.0
182,115.2145126125,115.49304483125,75.0,93.0
183,115.5405991125,115.75934880625,73.0,84.0
184,115.8666856125,116.14793521875,72.0,88.0
185,116.19277211250001,116.45364131250001,70.0,80.0
186,116.5188586125,116.777010425,68.0,79.0
187,116.8449451125,117.39249869375,70.0,82.0
188,117.8232046125,118.06641079375001,68.0,84.0
189,118.14929111250001,118.8068988875,70.0,84.0
190,118.8014641125,119.31233296250001,77.0,87.0
191,119.4536371125,119.961788575,75.0,89.0
192,120.10581011250001,120.581352925,80.0,85.0
193,120.7579831125,122.48216548125001,77.0,88.0
194,122.7145021125,122.95906698750001,65.0,88.0
195,123.0405886125,123.26477308125,68.0,87.0
196,123.3666751125,123.86531571875001,70.0,87.0
197,124.01884811250001,124.27020645625001,70.0,87.0
198,124.3449346125,124.56368430625001,77.0,89.0
199,124.6710211125,124.9373250875,75.0,90.0
200,124.9971076125,125.25118334375,73.0,87.0
201,125.3231941125,125.5677589875,72.0,88.0
202,125.64928061250001,125.87889985625,75.0,91.0
203,125.97536711250001,126.22672545625001,73.0,86.0
204,126.3014536125,126.57183366875,72.0,87.0
205,126.6275401125,126.84628980625,70.0,87.0
206,126.9536266125,127.19955018125,68.0,87.0
207,127.2797131125,127.9590599875,70.0,87.0
208,128.2579726125,128.4998201,68.0,84.0
209,128.5840591125,129.146558325,70.0,87.0
210,129.2362321125,129.70226406875,77.0,92.0
211,129.8884051125,130.36938270000002,75.0,92.0
212,130.54057811250001,131.13296858750002,72.0,82.0
213,131.1927511125,133.01475943125,70.0,87.0
214,154.01880611250002,154.21989278750002,73.0,90.0
215,154.34489261250002,154.60983789375,75.0,90.0
216,154.6709791125,155.135652375,77.0,86.0
217,155.3231521125,155.84896659375,80.0,86.0
218,155.9753251125,156.21037913125,82.0,87.0
219,156.3014116125,156.55820473125002,80.0,88.0
220,156.6274981125,156.83809564375,77.0,90.0
221,156.9535846125,157.19950818125,75.0,79.0
222,157.2796711125,157.853039875,73.0,85.0
223,157.93184411250002,158.21852849375,73.0,85.0
224,158.25793061250002,158.5079302625,72.0,86.0
225,158.5840171125,159.13157069375,73.0,87.0
226,159.5622766125,159.85575446250002,72.0,86.0
227,159.8883631125,160.49569921875002,70.0,84.0
228,160.5405361125,161.04732888125,77.0,88.0
229,161.1927091125,161.75384963125,75.0,87.0
230,161.84488211250002,162.37069659375,80.0,88.0
231,162.4970551125,164.18862883125,77.0,92.0
232,164.4535741125,164.68862813125,73.0,86.0
233,164.7796606125,165.103029725,75.0,82.0
234,165.1057471125,165.7606375,77.0,89.0
235,165.75792011250002,166.3475932,80.0,81.0
236,166.4100931125,166.69677749375,82.0,87.0
237,166.7361796125,167.02558138125,80.0,90.0
238,167.0622661125,167.35846135,77.0,89.0
239,167.3883526125,167.68454785,75.0,88.0
240,167.7144391125,168.25927530625,73.0,85.0
241,168.3666121125,168.6220465375,73.0,87.0
242,168.6926986125,168.94133956875,72.0,83.0
243,169.0187851125,169.8557404625,73.0,88.0
244,169.99704461250002,170.2470442625,72.0,87.0
245,170.3231311125,171.16416254375,73.0,88.0
246,171.3013906125,171.5513902625,73.0,87.0
247,171.6274771125,171.8475855,73.0,86.0
248,171.9535636125,172.1709546125,75.0,91.0
249,172.2796501125,172.76062770000001,77.0,88.0
250,172.9318231125,173.91008261250002,80.0,87.0
251,173.91008261250002,174.18182136250002,77.0,97.0
252,174.2361691125,174.47394051875,85.0,89.0
253,174.5622556125,174.83942913750002,84.0,88.0
254,174.8883421125,175.11796135625,82.0,90.0
255,175.2144286125,175.4752978125,80.0,87.0
256,175.5405151125,176.07040567500002,82.0,88.0
257,176.1926881125,176.41687258125,82.0,89.0
258,176.5187746125,176.71035043125,84.0,90.0
259,176.8448611125,177.0731216625,85.0,90.0
260,177.17094761250002,177.4046429375,84.0,89.0
261,177.49703411250002,177.77828371875,82.0,88.0
262,177.82312061250002,178.05953332500002,80.0,87.0
263,178.1492071125,179.41415099375,80.0,87.0
264,179.7796396125,179.98887845000002,77.0,88.0
265,180.1057261125,180.3828996375,77.0,92.0
266,180.4318126125,180.67230140625,80.0,86.0
267,180.7578991125,181.04322480000002,82.0,88.0
268,181.08398561250002,181.30952877500002,73.0,87.0
269,181.41007211250002,181.64240874375,73.0,92.0
270,181.73615861250002,181.94132136875,73.0,86.0
271,182.0622451125,182.21306011875,73.0,81.0
272,182.3883316125,182.7144181125,75.0,84.0
273,182.7144181125,183.0405046125,75.0,84.0
274,183.0405046125,183.266047775,73.0,89.0
275,183.3665911125,183.6165907625,75.0,92.0
276,183.6926776125,183.93316640625,77.0,86.0
277,184.0187641125,184.25925290625,77.0,90.0
278,184.3448506125,184.5839807125,75.0,88.0
279,184.6709371125,185.32175141875,77.0,90.0
280,185.64919661250002,185.89512018125,75.0,89.0
281,185.9752831125,186.2089784375,75.0,91.0
282,186.3013696125,186.51876061250002,73.0,88.0
283,186.6274561125,186.80952107500002,73.0,82.0
284,186.9535426125,187.179085775,72.0,90.0
285,187.2796291125,187.48479186875,73.0,87.0
286,187.6057156125,188.2578886125,75.0,95.0
287,188.2578886125,188.4915839375,77.0,92.0
288,188.5839751125,188.81902913125,84.0,87.0
289,188.91006161250002,189.13152869375,85.0,87.0
290,189.23614811250002,189.47120213125,84.0,90.0
291,189.56223461250002,189.7796256125,82.0,89.0
292,189.8883211125,190.2144076125,80.0,89.0
293,190.2144076125,190.78641768125001,80.0,87.0
294,190.8665806125,191.09891724375,80.0,87.0
295,191.1926671125,191.68859033125,82.0,88.0
296,192.1709266125,192.396469775,82.0,91.0
297,192.4970131125,193.0459253875,82.0,90.0
298,193.14918611250002,193.63423978125002,82.0,87.0
299,193.8013591125,195.1057051125,80.0,91.0
300,195.1057051125,195.33396566250002,85.0,91.0
301,195.4317916125,195.6491826125,84.0,83.0
302,195.7578781125,196.0187473125,82.0,90.0
303,196.0839646125,196.3502685875,80.0,90.0
304,196.4100511125,196.97662640625,82.0,89.0
305,197.06222411250002,197.287767275,82.0,90.0
306,197.38831061250002,197.60706030625002,84.0,88.0
307,197.7143971125,197.9589619875,85.0,93.0
308,198.0404836125,198.3258093,84.0,87.0
309,198.3665701125,198.98205838125,82.0,90.0
310,199.0187431125,200.41955636875,80.0,87.0
311,200.64917561250002,200.863849225,77.0,90.0
312,200.97526211250002,201.19401180625002,77.0,93.0
313,201.30134861250002,201.5187396125,80.0,88.0
314,201.6274351125,201.85977174375,82.0,87.0
315,201.9535216125,202.17227130625,73.0,60.0
316,202.2796081125,202.50922735625,73.0,88.0
317,202.6056946125,202.80406390000002,73.0,90.0
318,202.9317811125,203.1872155375,73.0,90.0
319,203.2578676125,203.47661730625,75.0,92.0
320,203.5839541125,203.82851898750002,75.0,102.0
321,203.9100406125,204.15460548750002,73.0,85.0
322,204.23612711250001,204.56900708125002,75.0,92.0
323,204.56221361250002,204.79183285625,77.0,86.0
324,204.88830011250002,205.21438661250002,77.0,89.0
325,205.21438661250002,205.5404731125,75.0,89.0
326,205.5404731125,206.3882980125,77.0,90.0
327,206.5187326125,206.74563446875,75.0,90.0
328,206.8448191125,207.07851443750002,75.0,93.0
329,207.1709056125,207.41003571250002,73.0,86.0
330,207.4969921125,207.72932874375002,73.0,88.0
331,207.8230786125,208.0622087125,72.0,87.0
332,208.14916511250001,208.35161048125002,73.0,86.0
333,208.47525161250002,208.69400130625002,75.0,93.0
334,208.80133811250002,208.9997074,77.0,90.0
335,209.1274246125,209.29997871875,80.0,87.0
336,209.4535111125,209.65595648125,84.0,89.0
337,209.7795976125,210.0187277125,85.0,90.0
338,210.1056841125,210.30269470625,84.0,90.0
339,210.4317706125,211.0839436125,82.0,87.0
340,211.0839436125,211.7361166125,80.0,87.0
341,211.7361166125,211.97117063125,80.0,93.0
342,212.06220311250001,212.5676371875,82.0,85.0
343,212.71437611250002,213.0404626125,82.0,88.0
344,213.0404626125,213.3665491125,82.0,88.0
345,213.3665491125,213.9344831,82.0,87.0
346,214.0187221125,214.54997136875002,82.0,85.0
347,214.6708951125,217.1437177375,80.0,88.0
348,219.2361061125,219.48202968125,65.0,88.0
349,219.5621926125,219.82306181250001,68.0,87.0
350,219.88827911250002,220.48610436250001,70.0,84.0
351,220.54045211250002,220.81490825,70.0,88.0
352,220.8665386125,221.070342675,77.0,85.0
353,221.1926251125,221.42767913125002,75.0,90.0
354,221.5187116125,221.7850155875,73.0,87.0
355,221.8447981125,222.15322159375,72.0,86.0
356,222.1708846125,222.44941683125,75.0,93.0
357,222.4969711125,222.71572080625,73.0,84.0
358,222.8230576125,223.10430721875,72.0,88.0
359,223.1491441125,223.4100133125,70.0,80.0
360,223.4752306125,223.733382425,68.0,79.0
361,223.80131711250002,224.34887069375,70.0,82.0
362,224.7795766125,225.02278279375,68.0,84.0
363,225.1056631125,225.7632708875,70.0,84.0
364,225.7578361125,226.2687049625,77.0,87.0
365,226.4100091125,226.918160575,75.0,89.0
366,227.0621821125,227.53772492500002,80.0,85.0
367,227.71435511250002,229.43853748125,77.0,88.0
368,229.6708741125,229.9154389875,65.0,88.0
369,229.9969606125,230.22114508125,68.0,87.0
370,230.3230471125,230.82168771875,70.0,87.0
371,230.9752201125,231.22657845625,70.0,87.0
372,231.3013066125,231.52005630625,77.0,89.0
373,231.62739311250002,231.89369708750002,75.0,90.0
374,231.95347961250002,232.20755534375002,73.0,87.0
375,232.27956611250002,232.5241309875,72.0,88.0
376,232.6056526125,232.83527185625002,75.0,91.0
377,232.9317391125,233.18309745625,73.0,86.0
378,233.2578256125,233.52820566875002,72.0,87.0
379,233.5839121125,233.80266180625,70.0,87.0
380,233.9099986125,234.15592218125002,68.0,87.0
381,234.2360851125,234.9154319875,70.0,87.0
382,235.2143446125,235.4561921,68.0,84.0
383,235.54043111250002,236.10293032500002,70.0,87.0
384,236.19260411250002,236.65863606875,77.0,92.0
385,236.8447771125,237.3257547,75.0,92.0
386,237.4969501125,238.0893405875,72.0,82.0
387,238.1491231125,239.97113143125,70.0,87.0
388,240.43036991875002,240.74286948125,68.0,77.0
389,240.852923675,241.79449844375,70.0,86.0
390,241.69667249375001,242.74830145625,77.0,86.0
391,242.7170515,245.07574385,75.0,87.0
392,245.342047825,246.29720953125002,73.0,85.0
393,246.29041606250001,246.679002475,72.0,81.0
394,246.6273721125,250.44937763125,70.0,77.0
