,start,end,pitch,velocity
0,0.6600459479166666,0.9789708041666666,66.0,87.0
1,0.9404194479166667,1.7324745854166665,73.0,104.0
2,1.7815399479166667,3.8341076125,75.0,96.0
3,4.024527947916667,4.316583677083333,66.0,91.0
4,4.3049014479166665,4.58761139375,71.0,88.0
5,4.585274947916666,4.911209141666666,73.0,90.0
6,4.865648447916667,5.174059297916666,75.0,101.0
7,5.146021947916666,5.466115027083333,78.0,92.0
8,5.426395447916667,6.104654514583333,73.0,88.0
9,5.426395447916667,6.271713077083334,70.0,96.0
10,6.271713077083334,8.478768452083333,71.0,81.0
11,6.271713077083334,8.481121389583333,75.0,88.0
12,9.659943077083334,9.902295639583333,78.0,87.0
13,9.942295577083332,10.64666246875,76.0,88.0
14,9.942295577083332,10.658344697916666,73.0,89.0
15,10.784512772916667,12.650164770833333,75.0,88.0
16,10.784512772916667,12.650164770833333,78.0,85.0
17,13.027500772916667,13.362780749999999,78.0,89.0
18,13.307874272916667,13.605771116666666,83.0,104.0
19,13.588247772916667,13.910677297916667,85.0,90.0
20,13.868621272916666,14.113948085416666,87.0,91.0
21,14.148994772916666,14.332405770833333,90.0,91.0
22,14.429368272916665,15.16067581875,90.0,96.0
23,15.23076919375,15.366283052083332,87.0,90.0
24,15.361610160416667,15.47609600625,88.0,86.0
25,15.450395102083334,15.56020805625,87.0,87.0
26,15.564880947916667,17.331233997916666,83.0,84.0
27,38.00218930625,39.106893462500004,90.0,88.0
28,37.912777681250006,39.122187556250005,78.0,76.0
29,39.700641993750004,41.34316341458334,66.0,63.0
30,39.98101549375,42.10601297916667,75.0,87.0
31,41.663256493750005,43.731011056250004,66.0,67.0
32,41.94362999375,43.73568394791667,70.0,45.0
33,42.224003493750004,43.90179043541667,73.0,87.0
34,44.187504268750004,45.95682231041667,68.0,60.0
35,44.468534268750005,46.07157622708334,71.0,80.0
36,46.43574426875001,47.75541431041667,66.0,66.0
37,46.71677426875,48.15939493541667,73.0,88.0
38,48.12192426875001,48.84206364375,71.0,82.0
39,48.68398426875,50.06571510208334,64.0,67.0
40,48.965014268750004,50.123092060416674,71.0,76.0
41,50.37016426875,51.13831293541667,63.0,76.0
42,50.37016426875,51.202715643750004,66.0,76.0
43,51.49428426875001,52.18280776875,71.0,85.0
44,52.05634426875,52.52824047708334,68.0,76.0
45,51.77531426875,52.53058239375,63.0,78.0
46,52.618404268750005,53.730814685416675,68.0,82.0
47,55.14767426875,55.61020281041667,66.0,80.0
48,55.42870426875,55.74517101875001,73.0,87.0
49,55.709959768750004,56.34845710208334,78.0,84.0
50,56.273339768750006,56.60784664375001,76.0,87.0
51,56.55502976875,56.87427843541667,75.0,87.0
52,56.83671976875001,57.22756464375001,71.0,80.0
53,57.118409768750006,59.27333826875,66.0,76.0
54,57.118409768750006,59.27333826875,73.0,88.0
55,59.37192976875001,60.57615451875,66.0,79.0
56,59.37192976875001,60.756905602083336,71.0,82.0
57,61.06206976875001,61.33437010208334,71.0,76.0
58,60.498689768750005,61.685308893750005,75.0,87.0
59,61.62544976875,63.39188081041667,73.0,83.0
60,63.878969768750004,65.29094089375,71.0,77.0
61,63.878969768750004,65.30267797708333,68.0,72.0
62,65.56910976875001,66.18765406041668,71.0,78.0
63,66.13248976875,67.67004768541668,70.0,76.0
64,66.13248976875,67.75455468541668,66.0,71.0
65,67.82262976875,68.43178439375001,70.0,80.0
66,68.38600976875,70.56089131041668,68.0,79.0
67,71.20290976875,71.77333201875001,66.0,78.0
68,71.76628976875,72.37427068541668,71.0,87.0
69,72.32966976875001,72.94821406041667,70.0,80.0
70,72.89304976875,74.98594556041668,68.0,81.0
71,75.14168301875002,76.14168143541669,70.0,82.0
72,76.26580301875002,76.64285160208335,70.0,78.0
73,76.54683301875002,76.89694956041669,71.0,82.0
74,76.82786301875001,77.29273347708335,73.0,88.0
75,77.38992301875001,79.49062226875002,66.0,78.0
76,77.38992301875001,79.54214443541669,71.0,82.0
77,79.63816301875002,81.89342876875001,70.0,85.0
78,81.88640301875002,83.06087422708335,71.0,83.0
79,83.01052301875002,83.62293422708335,68.0,78.0
80,83.57258301875001,84.16391697708335,71.0,82.0
81,84.13464301875001,85.10653843541668,66.0,74.0
82,84.13464301875001,85.30560135208334,70.0,84.0
83,85.25876301875002,86.08428864375001,66.0,83.0
84,86.38288301875002,88.38756368541668,71.0,79.0
85,86.38288301875002,88.41917956041668,68.0,78.0
86,88.63112301875002,89.67444689375002,71.0,87.0
87,90.31730301875001,90.68030010208335,75.0,88.0
88,90.87936301875001,93.12877397708334,76.0,72.0
89,93.12760301875002,95.16272860208335,73.0,83.0
90,93.12760301875002,95.18263489375002,66.0,73.0
91,95.29153401875001,96.04328926875002,68.0,68.0
92,95.31729510208335,96.18965906041669,71.0,84.0
93,95.36062056041668,96.20488151875001,75.0,84.0
94,96.18614618541667,98.02689268541668,68.0,87.0
95,98.43672810208335,98.64632964375002,80.0,76.0
96,98.75288685208335,99.24468935208336,80.0,98.0
97,98.99410426875002,99.31494685208335,83.0,91.0
98,99.26576660208335,99.59597685208335,87.0,96.0
99,99.53508701875002,99.87934876875002,88.0,94.0
100,100.13813056041668,100.44257972708334,71.0,83.0
101,99.82782660208335,100.57255610208335,90.0,101.0
102,100.39691235208335,100.60417197708335,73.0,89.0
103,100.69316481041668,101.38871406041667,85.0,91.0
104,101.53157097708335,101.77278839375002,83.0,87.0
105,101.78098510208335,101.99878335208335,82.0,87.0
106,102.08777618541669,102.69784547708335,83.0,89.0
107,102.92149851875001,103.76575947708335,82.0,83.0
108,102.92032756041668,103.77044331041668,73.0,87.0
109,103.75404989375002,103.98472868541668,78.0,90.0
110,104.00463497708336,104.14632093541668,73.0,93.0
111,104.11938889375001,104.78449322708335,75.0,91.0
112,104.59362701875001,105.15685797708335,71.0,89.0
113,105.15802893541668,106.56903372708335,68.0,87.0
114,106.63109451875002,107.42851714375001,66.0,93.0
115,107.44491056041667,108.00697056041668,76.0,101.0
116,107.16153864375002,108.17441760208334,71.0,90.0
117,108.02219301875002,108.58425301875002,76.0,85.0
118,108.58425301875002,108.87816356041668,78.0,96.0
119,108.83835097708335,108.96481447708335,73.0,91.0
120,108.93319860208335,110.94256310208334,75.0,83.0
121,111.12991643541667,111.51164885208334,73.0,94.0
122,111.13460026875,111.52452939375002,85.0,88.0
123,111.66855726875002,111.93202289375002,75.0,88.0
124,111.67089918541669,111.94373247708336,87.0,89.0
125,112.21422385208335,112.39338047708335,76.0,88.0
126,112.21656576875002,112.41914156041668,88.0,89.0
127,112.76808714375002,112.88049914375001,78.0,91.0
128,112.76223235208334,112.89337968541668,90.0,89.0
129,113.33014714375001,114.52569560208335,92.0,88.0
130,113.33483097708336,114.59361118541668,80.0,87.0
131,116.43318672708335,116.62171101875,87.0,86.0
132,116.44021247708335,116.62756581041668,80.0,86.0
133,116.42381906041669,116.63224964375001,75.0,84.0
134,116.71421672708334,117.06082039375002,87.0,90.0
135,116.73412301875001,117.06199135208334,80.0,88.0
136,116.72592631041668,117.09126531041667,75.0,93.0
137,117.19899347708335,117.35824381041668,85.0,85.0
138,117.20250635208335,117.38868872708335,73.0,101.0
139,117.13459076875002,117.54442618541668,78.0,89.0
140,117.59126451875002,117.70250556041668,83.0,87.0
141,117.58658068541668,117.70601843541668,71.0,87.0
142,117.55613576875001,117.90156847708334,76.0,88.0
143,117.87346547708336,118.28095897708334,73.0,93.0
144,117.86058493541668,118.68025576875002,78.0,92.0
145,117.88049122708335,118.72358122708334,85.0,92.0
146,118.70133301875,119.54442301875002,78.0,83.0
147,118.70718781041668,119.55027781041667,66.0,82.0
148,119.81257247708335,119.92264256041668,66.0,88.0
149,119.81140151875002,119.92264256041668,78.0,84.0
150,118.70133301875,120.18962106041668,73.0,91.0
151,120.09594439375002,120.51631843541668,70.0,89.0
152,120.10062822708335,120.53154089375002,82.0,90.0
153,120.85940922708335,120.94723110208335,83.0,91.0
154,120.86175114375001,120.97182122708335,71.0,88.0
155,121.46713660208334,121.57018093541669,66.0,89.0
156,121.45191414375002,121.76573097708335,78.0,89.0
157,121.73177318541667,121.84184326875001,63.0,98.0
158,121.75519235208336,122.07369301875002,75.0,89.0
159,122.00226456041668,122.11818943541668,66.0,83.0
160,122.02334181041668,122.33130385208335,78.0,89.0
161,122.30437181041668,123.42849181041669,80.0,88.0
162,122.28680743541668,123.59828076875002,64.0,86.0
163,123.41092743541668,124.60530493541668,78.0,85.0
164,124.56783426875,125.71537343541668,76.0,88.0
165,125.68609947708335,126.07368668541667,56.0,88.0
166,125.99406151875002,126.53504426875001,59.0,87.0
167,125.71186056041668,126.65565297708335,75.0,91.0
168,126.49523168541668,126.84417726875002,63.0,88.0
169,126.80670660208335,128.96244089375,66.0,75.0
170,126.80319372708334,130.89920597708334,73.0,88.0
171,128.8067034354167,131.01161797708335,54.0,56.0
172,126.79148414375001,131.07367876875003,61.0,87.0
173,129.04323701875,131.10529464375003,66.0,51.0
174,131.90974301875002,133.55611043541668,66.0,63.0
175,132.19077301875,134.32074622708336,75.0,87.0
176,133.87695301875002,135.94954926875002,66.0,67.0
177,134.15798301875003,135.95423310208335,70.0,45.0
178,134.43901301875002,136.12050918541667,73.0,87.0
179,136.40622301875,138.17554106041666,68.0,60.0
180,136.68725301875003,138.29029497708336,71.0,80.0
181,138.65446301875,139.97413306041668,66.0,66.0
182,138.93549301875,140.37811368541668,73.0,88.0
183,140.34064301875003,141.06078239375,71.0,82.0
184,140.90270301875,142.28443385208334,64.0,67.0
185,141.18373301875002,142.3418108104167,71.0,76.0
186,142.58888301875,143.3570316854167,63.0,76.0
187,142.58888301875,143.42143439375002,66.0,76.0
188,143.71300301875002,144.40152651875002,71.0,85.0
189,144.27506301875002,144.74695922708335,68.0,76.0
190,143.99403301875003,144.74930114375002,63.0,78.0
191,144.83712301875002,145.9495334354167,68.0,82.0
192,147.36639301875002,147.8289215604167,66.0,80.0
193,147.64742301875003,147.96358176875003,73.0,87.0
194,147.92845301875002,148.56545435208335,78.0,84.0
195,148.49051301875,148.82423614375,76.0,87.0
196,148.77154301875,149.09004368541667,75.0,87.0
197,149.05257301875002,149.44250214375,71.0,80.0
198,149.33360301875,151.48348251875,66.0,76.0
199,149.33360301875,151.48348251875,73.0,88.0
200,151.58184301875002,152.78324626875002,66.0,79.0
201,151.58184301875002,152.96357385208336,71.0,82.0
202,153.26802301875,153.53968535208335,71.0,76.0
203,152.70596301875003,153.88980189375002,75.0,87.0
204,153.83008301875003,155.59237531041668,73.0,83.0
205,156.07832301875,157.48698589375002,71.0,77.0
206,156.07832301875,157.49869547708334,68.0,72.0
207,157.76450301875002,158.38159806041668,71.0,78.0
208,158.32656301875,159.86051843541668,70.0,76.0
209,158.32656301875,159.9448274354167,66.0,71.0
210,160.01274301875003,160.62047039375,70.0,80.0
211,160.57480301875,162.7445888104167,68.0,79.0
212,163.38510301875002,163.95418876875002,66.0,78.0
213,163.94716301875002,164.55371943541667,71.0,87.0
214,164.50922301875002,165.12631806041668,70.0,80.0
215,165.07128301875002,167.16378556041667,68.0,81.0
216,167.31952301875003,168.31952143541668,70.0,82.0
217,168.44364301875,168.82069160208334,70.0,78.0
218,168.72467301875002,169.07478956041666,71.0,82.0
219,169.00570301875,169.47057347708335,73.0,88.0
220,169.56776301875001,171.53497301875,66.0,78.0
221,169.56776301875001,171.71998443541668,71.0,82.0
222,171.85464464375002,172.53028760208335,69.0,89.0
223,172.38860164375,172.67314451875,71.0,87.0
224,172.63918672708334,172.85347210208334,73.0,94.0
225,172.92255864375,173.12045060208334,75.0,92.0
226,173.20827247708334,173.40148060208335,76.0,88.0
227,173.36518089375,173.48227672708333,78.0,87.0
228,173.51037972708335,173.66377526875002,78.0,84.0
229,173.63098843541667,173.76799056041668,76.0,83.0
230,173.76213576875,173.93426664375,75.0,76.0
231,173.91318939375003,174.05019151875,73.0,88.0
232,174.07595260208336,176.32419260208334,71.0,83.0
233,177.38156797708336,178.60287751875,80.0,91.0
234,178.5700906854167,180.69303814375002,78.0,101.0
235,181.34292001875002,181.66727547708336,75.0,90.0
236,181.61458235208335,181.89444139375001,71.0,79.0
237,181.9143476854167,182.17195851875002,75.0,88.0
238,182.16961660208335,182.3499441854167,73.0,91.0
239,182.31949926875,182.49631397708333,71.0,87.0
240,182.47523672708334,182.77968589375,73.0,93.0
241,182.75392481041666,182.93073951875002,71.0,92.0
242,183.05251918541668,184.49631081041667,71.0,90.0
243,184.44595960208335,184.77382793541668,68.0,77.0
244,184.71645097708335,185.04197739375002,71.0,89.0
245,184.99396810208333,185.25509181041667,73.0,89.0
246,185.28202385208334,187.00567451875003,75.0,88.0
247,186.96352001875002,187.28084972708336,73.0,89.0
248,187.24455001875003,187.51621235208336,71.0,89.0
249,187.53026385208335,189.27147889375001,68.0,87.0
250,189.20824714375001,189.66726281041667,71.0,94.0
251,189.78201672708335,191.92838335208336,73.0,93.0
252,192.03845343541667,192.32416726875002,66.0,87.0
253,192.03376960208334,192.32885110208335,73.0,93.0
254,192.0279148104167,192.33821876875,78.0,87.0
255,193.41432947708336,193.56655406041668,66.0,98.0
256,193.5454768104167,193.66842743541667,68.0,92.0
257,193.7035561854167,193.80894243541667,70.0,89.0
258,193.81948106041668,193.93423497708335,71.0,89.0
259,193.98575714375,194.35695093541668,73.0,93.0
260,194.29840301875,195.49980626875,66.0,79.0
261,194.29840301875,195.68013385208334,71.0,82.0
262,194.32650601875002,196.1555429354167,75.0,94.0
263,195.42252301875,196.1555429354167,75.0,87.0
264,195.98458301875002,196.25624535208334,71.0,76.0
265,196.54664301875002,198.3089353104167,73.0,83.0
266,198.79488301875,200.20354589375,71.0,77.0
267,198.79488301875,200.21525547708336,68.0,72.0
268,200.48106301875,201.0981580604167,71.0,78.0
269,201.04312301875,202.57707843541667,70.0,76.0
270,201.04312301875,202.66138743541669,66.0,71.0
271,202.72930301875002,203.33703039375,70.0,80.0
272,203.29136301875002,205.4611488104167,68.0,79.0
273,206.10166301875,206.67074876875,66.0,78.0
274,206.66372301875,207.27027943541668,71.0,87.0
275,207.22578301875,207.84287806041667,70.0,80.0
276,207.78784301875,209.88034556041669,68.0,81.0
277,210.03608301875002,211.0360814354167,70.0,82.0
278,211.16020301875002,211.53725160208336,70.0,78.0
279,211.44123301875,211.79134956041668,71.0,82.0
280,211.72226301875,212.18713347708334,73.0,88.0
281,212.28432301875,214.38502226875002,66.0,78.0
282,212.28432301875,214.4365444354167,71.0,82.0
283,214.53256301875,216.78782876875002,70.0,85.0
284,216.78080301875002,217.95527422708335,71.0,83.0
285,217.90492301875003,218.51733422708335,68.0,78.0
286,218.46698301875,219.05831697708334,71.0,82.0
287,219.02904301875,220.00093843541669,66.0,74.0
288,219.02904301875,220.20000135208335,70.0,84.0
289,220.15316301875,220.97868864375002,66.0,83.0
290,221.27728301875,223.28196368541668,71.0,79.0
291,221.27728301875,223.31357956041668,68.0,78.0
292,223.52552301875002,224.56884689375002,71.0,87.0
293,225.21170301875,225.57470010208334,75.0,88.0
294,225.77376301875,228.02317397708336,76.0,72.0
295,228.02200301875,230.05712860208334,73.0,83.0
296,228.02200301875,230.07703489375,66.0,73.0
297,230.26790110208336,231.95408110208334,75.0,91.0
298,230.27375589375,231.98101314375,71.0,86.0
299,231.9412005604167,232.38148089375002,73.0,92.0
300,232.20349522708335,234.67890114375,71.0,81.0
301,232.51262822708335,234.68826881041667,75.0,83.0
302,246.54890576875002,253.68823872708336,66.0,56.0
303,246.58052164375002,253.71165789375002,75.0,85.0
