,start,end,pitch,velocity
0,18.354597272916667,18.55319516875,59.0,87.0
1,18.634970772916667,18.803194872916666,61.0,91.0
2,18.915344272916666,19.07889548125,63.0,88.0
3,19.195717772916666,19.353427866666667,63.0,87.0
4,19.476091272916666,19.64665181875,63.0,87.0
5,19.756464772916665,19.909501974999998,63.0,87.0
6,20.03683827291667,20.227258608333333,63.0,88.0
7,20.317211772916664,20.562538585416668,61.0,91.0
8,20.597585272916668,21.123285585416667,66.0,83.0
9,21.158332272916667,22.420013022916667,61.0,91.0
10,22.840573272916664,23.045012283333335,59.0,89.0
11,23.120946772916668,23.36043247083333,59.0,88.0
12,23.401320272916664,23.56487148125,71.0,87.0
13,23.681693772916667,24.1010858,71.0,88.0
14,24.242440772916666,24.467907795833334,71.0,88.0
15,24.522814272916666,24.70038415625,68.0,87.0
16,24.803187772916665,24.98075765625,63.0,90.0
17,25.08356127291667,25.363934772916664,68.0,88.0
18,25.363934772916664,26.9048208,66.0,81.0
19,27.326549272916665,27.46907246875,66.0,87.0
20,27.606922772916665,27.800847777083334,66.0,86.0
21,27.887296272916664,28.31603408333333,68.0,89.0
22,28.448043272916667,28.65598695208333,63.0,89.0
23,28.728416772916667,29.148977022916664,63.0,88.0
24,29.289163772916666,29.446873866666667,63.0,87.0
25,29.569537272916666,29.793836072916665,63.0,89.0
26,29.849910772916665,30.040331108333334,68.0,88.0
27,30.130284272916665,30.289162589583334,66.0,83.0
28,30.410657772916664,30.58121831875,66.0,82.0
29,30.691031272916668,31.097572847916666,68.0,88.0
30,31.251778272916667,31.87093641875,59.0,88.0
31,32.09289877291667,32.280982662499994,63.0,87.0
32,32.373272272916665,32.571870168749996,63.0,87.0
33,32.65364577291666,32.85808478333333,64.0,87.0
34,32.934019272916665,33.08472002916666,63.0,89.0
35,33.21439277291667,33.43869157291667,64.0,86.0
36,33.494766272916664,33.845233147916666,63.0,91.0
37,34.056313118750005,34.2457245875,59.0,87.0
38,34.33866561875,35.044546868750004,56.0,88.0
39,35.185723118750005,35.43042861875,63.0,87.0
40,35.46807561875,37.02101436875,61.0,86.0
41,38.573953118750005,38.803364525,59.0,88.0
42,38.85630561875,39.033952400000004,61.0,87.0
43,39.13865811875,39.302187275,63.0,87.0
44,39.42026849375,39.588492593750004,63.0,87.0
45,39.700641993750004,39.864193202083335,63.0,83.0
46,39.98101549375,40.176108720833334,64.0,83.0
47,40.26138899375,40.44596821458334,63.0,88.0
48,40.54176249375,40.71933237708333,61.0,89.0
49,40.82213599375,41.35718208958333,66.0,88.0
50,41.38288299375,42.6901244375,61.0,86.0
51,43.06512399375,43.19596496041667,59.0,89.0
52,43.34549749375,43.523067377083336,59.0,88.0
53,43.62587099375,43.77189885833334,71.0,88.0
54,43.90647426875,44.038792560416674,71.0,87.0
55,44.187504268750004,44.33855789375001,71.0,86.0
56,44.468534268750005,44.666426227083335,71.0,87.0
57,44.74956426875001,45.03176522708334,68.0,72.0
58,45.03059426875001,45.26595689375,63.0,87.0
59,45.31162426875,45.59265426875,68.0,87.0
60,45.59265426875,47.13012256041667,66.0,86.0
61,47.559864268750005,47.71677268541667,66.0,88.0
62,47.840894268750006,48.02941856041667,66.0,87.0
63,48.12192426875001,48.65119743541667,68.0,89.0
64,48.68398426875,49.11840981041667,71.0,87.0
65,49.246044268750005,49.63714435208334,71.0,89.0
66,50.08913426875,50.41114781041667,68.0,89.0
67,50.37016426875,50.851428143750006,66.0,87.0
68,50.932224268750005,51.49428426875001,70.0,84.0
69,51.49428426875001,52.05634426875,71.0,86.0
70,52.05634426875,52.33854522708334,68.0,90.0
71,52.337374268750004,52.56219826875,66.0,86.0
72,52.618404268750005,52.76009022708334,75.0,92.0
73,52.89943426875001,53.05282981041667,75.0,88.0
74,53.18046426875,53.35259514375001,75.0,89.0
75,53.46149426875,53.640650893750006,76.0,88.0
76,53.74252426875,53.94392910208334,75.0,89.0
77,54.023554268750004,54.20622376875001,73.0,91.0
78,54.304584268750006,54.868986185416674,71.0,87.0
79,54.86664426875001,58.24516976875,73.0,88.0
80,58.808549768750005,58.99634310208334,71.0,92.0
81,59.09023976875,59.303854685416674,73.0,98.0
82,59.37192976875001,59.532727810416674,75.0,89.0
83,59.653619768750005,59.80620185208334,75.0,87.0
84,59.93530976875,60.10080264375001,75.0,88.0
85,60.21699976875001,60.42591985208334,76.0,87.0
86,60.498689768750005,60.686483102083336,75.0,91.0
87,60.78037976875001,60.915356227083336,73.0,89.0
88,61.06206976875001,61.261600185416675,73.0,93.0
89,61.343759768750004,61.58789110208334,71.0,88.0
90,61.62544976875,62.005731268750004,73.0,94.0
91,62.188829768750004,62.39188131041667,73.0,91.0
92,62.47051976875001,62.67005018541667,78.0,89.0
93,62.752209768750006,63.110190810416675,73.0,98.0
94,63.31558976875001,63.52803097708334,71.0,89.0
95,63.597279768750006,63.78624681041667,70.0,88.0
96,63.878969768750004,64.04211522708334,71.0,88.0
97,64.16065976875001,64.34023714375,71.0,86.0
98,64.44234976875,64.63835906041668,71.0,88.0
99,64.72403976875,64.86957960208333,75.0,89.0
100,65.00572976875,65.20056535208334,75.0,90.0
101,65.28741976875,65.43413331041667,71.0,88.0
102,65.56910976875001,65.82497818541667,71.0,87.0
103,65.85079976875001,66.06910951875001,68.0,82.0
104,66.13248976875,66.63014210208334,70.0,88.0
105,66.69586976875,66.88953164375,70.0,85.0
106,66.97755976875001,67.10314656041668,75.0,88.0
107,67.25924976875001,67.59845147708334,70.0,90.0
108,67.82262976875,68.04798176875,68.0,91.0
109,68.10431976875,68.34610368541668,66.0,87.0
110,68.38600976875,68.77215981041667,68.0,93.0
111,68.94938976875001,69.09845072708335,68.0,91.0
112,69.23107976875,69.46230031041668,68.0,91.0
113,69.51276976875,70.15478822708334,76.0,91.0
114,70.35783976875001,70.60314481041667,76.0,86.0
115,70.63952976875001,71.03154835208335,75.0,89.0
116,71.20290976875,71.34844960208333,78.0,90.0
117,71.48459976875,72.01394222708333,71.0,89.0
118,72.32966976875001,72.46112510208334,68.0,91.0
119,72.61135976875,72.82732210208334,66.0,88.0
120,72.89304976875,73.04680556041667,68.0,91.0
121,73.17447301875002,73.32084281041668,68.0,89.0
122,73.45550301875002,73.64285635208334,68.0,87.0
123,73.73653301875001,73.89461239375001,76.0,89.0
124,74.01756301875001,74.18618101875002,76.0,91.0
125,74.29859301875001,74.43559514375002,71.0,85.0
126,74.57962301875001,74.73770239375001,71.0,88.0
127,74.86065301875001,75.14168301875002,68.0,89.0
128,75.14168301875002,76.32669285208335,73.0,91.0
129,76.54683301875002,76.77048606041669,71.0,89.0
130,76.82786301875001,77.01521635208334,71.0,92.0
131,77.10889301875001,77.32200743541668,73.0,98.0
132,77.38992301875001,77.55034431041668,75.0,89.0
133,77.67095301875001,77.82317760208335,75.0,87.0
134,77.95198301875001,78.11708814375001,75.0,88.0
135,78.23301301875001,78.44144360208335,76.0,87.0
136,78.51404301875002,78.70139635208335,75.0,91.0
137,78.79507301875002,78.92973322708335,73.0,89.0
138,79.07610301875002,79.27516593541668,73.0,93.0
139,79.35713301875002,79.60069235208334,71.0,88.0
140,79.63816301875002,80.01755351875002,73.0,94.0
141,80.20022301875001,80.40279881041668,73.0,91.0
142,80.48125301875001,80.68031593541669,78.0,89.0
143,80.76228301875001,81.11942531041669,73.0,98.0
144,81.32434301875001,81.53628647708335,71.0,89.0
145,81.60537301875002,81.79389731041668,70.0,88.0
146,81.88640301875002,82.04916622708335,71.0,88.0
147,82.16743301875002,82.34658964375001,71.0,86.0
148,82.44846301875002,82.64401306041668,71.0,88.0
149,82.72949301875002,82.87469185208334,75.0,89.0
150,83.01052301875002,83.20490210208335,75.0,90.0
151,83.29155301875002,83.43792281041668,71.0,88.0
152,83.57258301875001,83.82785193541667,71.0,87.0
153,83.85361301875001,84.07141126875001,68.0,82.0
154,84.13464301875001,84.63112935208335,70.0,88.0
155,84.69670301875001,84.88991114375001,70.0,85.0
156,84.97773301875002,85.10302556041668,75.0,88.0
157,85.25876301875002,85.59716997708335,70.0,90.0
158,85.82082301875002,86.04564701875002,68.0,91.0
159,86.10185301875002,86.34307043541668,66.0,87.0
160,86.38288301875002,86.76812831041669,68.0,93.0
161,86.94494301875001,87.50700301875001,68.0,91.0
162,87.50700301875001,88.14751722708334,76.0,91.0
163,88.35009301875002,88.59482331041669,76.0,86.0
164,88.63112301875002,89.02222310208334,75.0,89.0
165,89.19318301875002,89.33838185208334,78.0,90.0
166,89.47421301875002,90.00231522708334,71.0,89.0
167,90.31730301875001,90.44845035208334,68.0,91.0
168,90.59833301875001,90.81378935208335,66.0,88.0
169,90.87936301875001,91.03275856041668,68.0,91.0
170,91.16039301875001,91.30676281041669,68.0,89.0
171,91.44142301875002,91.62877635208335,68.0,87.0
172,91.72245301875002,91.88053239375002,76.0,89.0
173,92.00348301875002,92.28451301875002,76.0,91.0
174,92.34774476875002,92.71425472708334,71.0,88.0
175,92.81847001875002,93.05734551875001,71.0,88.0
176,93.13697068541669,94.52689822708335,71.0,88.0
177,94.76811564375001,95.24001185208334,70.0,91.0
178,95.38052685208335,98.60066226875001,71.0,93.0
179,130.78562301875002,131.01395989375,59.0,88.0
180,131.06665301875,131.24346772708336,61.0,87.0
181,131.34768301875002,131.51044622708335,63.0,87.0
182,131.62871301875,131.79733101875001,63.0,87.0
183,131.90974301875002,132.07367718541667,63.0,83.0
184,132.19077301875,132.3863230604167,64.0,83.0
185,132.47180301875002,132.65681443541666,63.0,88.0
186,132.75283301875,132.93081868541668,61.0,89.0
187,133.03386301875003,133.57016193541668,66.0,88.0
188,133.59592301875,134.90622539375002,61.0,86.0
189,135.28210301875,135.41325035208334,59.0,89.0
190,135.56313301875002,135.74111868541667,59.0,88.0
191,135.84416301875,135.99053281041668,71.0,88.0
192,136.12519301875,136.25751131041667,71.0,87.0
193,136.40622301875,136.55727664375001,71.0,86.0
194,136.68725301875003,136.88514497708334,71.0,87.0
195,136.96828301875001,137.25048397708335,68.0,72.0
196,137.24931301875,137.48467564375,63.0,87.0
197,137.53034301875002,137.81137301875003,68.0,87.0
198,137.81137301875003,139.34884131041667,66.0,86.0
199,139.77858301875,139.93549143541668,66.0,88.0
200,140.05961301875,140.24813731041667,66.0,87.0
201,140.34064301875003,140.86991618541668,68.0,89.0
202,140.90270301875,141.3371285604167,71.0,87.0
203,141.46476301875003,141.85586310208333,71.0,89.0
204,142.30785301875,142.6298665604167,68.0,89.0
205,142.58888301875,143.07014689375,66.0,87.0
206,143.15094301875,143.71300301875002,70.0,84.0
207,143.71300301875002,144.27506301875002,71.0,86.0
208,144.27506301875002,144.55726397708335,68.0,90.0
209,144.55609301875,144.78091701875002,66.0,86.0
210,144.83712301875002,144.97880897708336,75.0,92.0
211,145.11815301875,145.27154856041668,75.0,88.0
212,145.39918301875002,145.57131389375002,75.0,89.0
213,145.68021301875,145.85936964375003,76.0,88.0
214,145.96124301875,146.16264785208335,75.0,89.0
215,146.24227301875,146.42494251875002,73.0,91.0
216,146.52330301875003,147.0877049354167,71.0,87.0
217,147.08536301875,150.45772301875002,73.0,88.0
218,151.01978301875002,151.20713635208335,71.0,92.0
219,151.30081301875003,151.5139274354167,73.0,98.0
220,151.58184301875002,151.7422643104167,75.0,89.0
221,151.86287301875,152.01509760208336,75.0,87.0
222,152.14390301875,152.30900814375002,75.0,88.0
223,152.42493301875,152.63336360208336,76.0,87.0
224,152.70596301875003,152.89331635208333,75.0,91.0
225,152.98699301875,153.12165322708336,73.0,89.0
226,153.26802301875,153.46708593541666,73.0,93.0
227,153.54905301875002,153.79261235208335,71.0,88.0
228,153.83008301875003,154.20947351875003,73.0,94.0
229,154.39214301875,154.59471881041668,73.0,91.0
230,154.67317301875002,154.87223593541668,78.0,89.0
231,154.95420301875,155.3113453104167,73.0,98.0
232,155.51626301875,155.72820647708335,71.0,89.0
233,155.79729301875,155.98581731041668,70.0,88.0
234,156.07832301875,156.24108622708334,71.0,88.0
235,156.35935301875003,156.53850964375002,71.0,86.0
236,156.64038301875001,156.83593306041666,71.0,88.0
237,156.92141301875,157.06661185208333,75.0,89.0
238,157.20244301875002,157.39682210208335,75.0,90.0
239,157.48347301875003,157.62984281041668,71.0,88.0
240,157.76450301875002,158.01977193541668,71.0,87.0
241,158.04553301875,158.26333126875,68.0,82.0
242,158.32656301875,158.82304935208333,70.0,88.0
243,158.88862301875002,159.08183114375,70.0,85.0
244,159.16965301875,159.2949455604167,75.0,88.0
245,159.45068301875,159.78908997708334,70.0,90.0
246,160.01274301875003,160.23756701875,68.0,91.0
247,160.29377301875002,160.53499043541666,66.0,87.0
248,160.57480301875,160.96004831041668,68.0,93.0
249,161.13686301875003,161.28557472708334,68.0,91.0
250,161.41789301875002,161.64857181041668,68.0,91.0
251,161.69892301875,162.33943722708335,76.0,91.0
252,162.54201301875003,162.78674331041668,76.0,86.0
253,162.82304301875,163.21414310208334,75.0,89.0
254,163.38510301875002,163.53030185208334,78.0,90.0
255,163.66613301875003,164.19423522708337,71.0,89.0
256,164.50922301875002,164.64037035208335,68.0,91.0
257,164.79025301875,165.00570935208333,66.0,88.0
258,165.07128301875002,165.2246785604167,68.0,91.0
259,165.35231301875,165.49868281041668,68.0,89.0
260,165.63334301875,165.82069635208336,68.0,87.0
261,165.91437301875,166.07245239375,76.0,89.0
262,166.19540301875003,166.36402101875,76.0,91.0
263,166.52327135208333,166.92608101875,71.0,91.0
264,167.04083493541668,167.22818826875002,71.0,89.0
265,167.36401943541668,168.79024668541666,71.0,94.0
266,168.96823235208336,169.42607706041667,70.0,94.0
267,169.5244375604167,172.98696135208334,71.0,89.0
268,173.50218301875003,173.70710072708334,71.0,91.0
269,173.78321301875002,173.94129239375002,73.0,98.0
270,174.06424301875,174.2527673104167,75.0,90.0
271,174.34527301875,174.49866856041666,71.0,92.0
272,174.62630301875,174.80897251875,71.0,92.0
273,174.90733301875002,175.11107976875002,68.0,91.0
274,175.18836301875,175.62513047708336,71.0,103.0
275,175.75042301875,176.13215543541668,68.0,93.0
276,176.31248301875002,176.73285706041668,71.0,94.0
277,176.87454301875002,177.07360593541668,73.0,94.0
278,177.15557301875003,177.71412014375,71.0,103.0
279,177.99866301875,178.19304210208335,71.0,92.0
280,178.27969301875,178.45182389375003,73.0,98.0
281,178.56072301875002,178.78554701875,70.0,91.0
282,178.84175301875,178.99046472708335,66.0,85.0
283,179.12278301875,179.27969143541668,66.0,83.0
284,179.40381301875001,179.64034660208335,66.0,89.0
285,179.68484301875003,179.96587301875002,73.0,93.0
286,179.96587301875002,180.52793301875002,75.0,92.0
287,180.52793301875002,181.08999301875002,73.0,98.0
288,181.08999301875002,182.21411301875003,71.0,87.0
289,182.49514301875,182.6836673104167,71.0,91.0
290,182.77617301875,182.96703922708335,73.0,90.0
291,183.05720301875002,183.26094976875,75.0,89.0
292,183.33823301875003,183.51738964375,71.0,91.0
293,183.61926301875002,183.86984810208335,71.0,89.0
294,183.90029301875,184.16492960208336,68.0,84.0
295,184.18132301875,184.58413268541668,71.0,92.0
296,184.74338301875002,184.93307826875002,71.0,89.0
297,185.02441301875,185.20708251875,73.0,98.0
298,185.30544301875,185.51621551875002,75.0,89.0
299,185.58647301875,185.75509101875002,71.0,87.0
300,185.86750301875003,186.13565247708334,71.0,88.0
301,186.14853301875002,186.37335701875003,68.0,90.0
302,186.42956301875,186.84056939375,71.0,94.0
303,186.99162301875003,187.20707935208333,71.0,94.0
304,187.27265301875002,187.49162222708333,73.0,96.0
305,187.55368301875,187.73283964375003,75.0,91.0
306,187.83471301875,187.98225376875,75.0,89.0
307,188.11574301875,188.27382239375,75.0,90.0
308,188.39677301875003,188.55368143541668,75.0,91.0
309,188.67780301875,189.14267347708335,75.0,93.0
310,189.22698247708337,189.74220414375003,76.0,91.0
311,189.81011972708336,190.20707460208337,75.0,94.0
312,190.20590364375002,192.79957635208336,73.0,89.0
313,193.73634301875,193.92369635208334,71.0,92.0
314,194.01737301875,194.23048743541668,73.0,98.0
315,194.29840301875,194.45882431041667,75.0,89.0
316,194.57943301875002,194.73165760208335,75.0,87.0
317,194.86046301875,195.02556814375,75.0,88.0
318,195.14149301875,195.34992360208335,76.0,87.0
319,195.42252301875,195.60987635208335,75.0,91.0
320,195.70355301875003,195.83821322708334,73.0,89.0
321,195.98458301875002,196.18364593541668,73.0,93.0
322,196.26561301875,196.50917235208334,71.0,88.0
323,196.54664301875002,196.92603351875002,73.0,94.0
324,197.10870301875002,197.3112788104167,73.0,91.0
325,197.38973301875,197.58879593541667,78.0,89.0
326,197.67076301875,198.02790531041668,73.0,98.0
327,198.23282301875003,198.44476647708336,71.0,89.0
328,198.51385301875,198.7023773104167,70.0,88.0
329,198.79488301875,198.95764622708333,71.0,88.0
330,199.07591301875001,199.25506964375,71.0,86.0
331,199.35694301875003,199.55249306041668,71.0,88.0
332,199.63797301875002,199.78317185208334,75.0,89.0
333,199.91900301875,200.11338210208334,75.0,90.0
334,200.20003301875002,200.3464028104167,71.0,88.0
335,200.48106301875,200.73633193541667,71.0,87.0
336,200.76209301875002,200.97989126875,68.0,82.0
337,201.04312301875,201.53960935208335,70.0,88.0
338,201.60518301875,201.79839114375002,70.0,85.0
339,201.88621301875003,202.01150556041668,75.0,88.0
340,202.16724301875,202.50564997708335,70.0,90.0
341,202.72930301875002,202.95412701875,68.0,91.0
342,203.01033301875,203.25155043541668,66.0,87.0
343,203.29136301875002,203.67660831041667,68.0,93.0
344,203.85342301875002,204.00213472708336,68.0,91.0
345,204.13445301875,204.36513181041667,68.0,91.0
346,204.41548301875002,205.05599722708334,76.0,91.0
347,205.25857301875,205.50330331041667,76.0,86.0
348,205.53960301875,205.93070310208336,75.0,89.0
349,206.10166301875,206.24686185208336,78.0,90.0
350,206.38269301875002,206.91079522708336,71.0,89.0
351,207.22578301875,207.35693035208334,68.0,91.0
352,207.50681301875002,207.72226935208334,66.0,88.0
353,207.78784301875,207.94123856041668,68.0,91.0
354,208.06887301875003,208.21524281041667,68.0,89.0
355,208.34990301875,208.53725635208335,68.0,87.0
356,208.63093301875,208.78901239375,76.0,89.0
357,208.91196301875001,209.08058101875002,76.0,91.0
358,209.19299301875,209.32999514375,71.0,85.0
359,209.47402301875002,209.63210239375002,71.0,88.0
360,209.75505301875,210.03608301875002,68.0,89.0
361,210.03608301875002,211.22109285208336,73.0,91.0
362,211.44123301875,211.66488606041668,71.0,89.0
363,211.72226301875,211.90961635208333,71.0,92.0
364,212.00329301875,212.21640743541667,73.0,98.0
365,212.28432301875,212.44474431041667,75.0,89.0
366,212.56535301875002,212.71757760208334,75.0,87.0
367,212.84638301875,213.01148814375,75.0,88.0
368,213.12741301875002,213.33584360208334,76.0,87.0
369,213.40844301875,213.59579635208334,75.0,91.0
370,213.68947301875002,213.82413322708334,73.0,89.0
371,213.97050301875,214.16956593541667,73.0,93.0
372,214.25153301875002,214.49509235208333,71.0,88.0
373,214.53256301875,214.91195351875,73.0,94.0
374,215.09462301875,215.2971988104167,73.0,91.0
375,215.37565301875,215.5747159354167,78.0,89.0
376,215.65668301875002,216.01382531041668,73.0,98.0
377,216.21874301875002,216.43068647708336,71.0,89.0
378,216.49977301875,216.6882973104167,70.0,88.0
379,216.78080301875002,216.94356622708335,71.0,88.0
380,217.06183301875,217.24098964375003,71.0,86.0
381,217.34286301875002,217.53841306041667,71.0,88.0
382,217.62389301875,217.76909185208333,75.0,89.0
383,217.90492301875003,218.09930210208336,75.0,90.0
384,218.18595301875,218.33232281041668,71.0,88.0
385,218.46698301875,218.7222519354167,71.0,87.0
386,218.74801301875002,218.96581126875,68.0,82.0
387,219.02904301875,219.52552935208334,70.0,88.0
388,219.59110301875,219.78431114375002,70.0,85.0
389,219.87213301875002,219.99742556041667,75.0,88.0
390,220.15316301875,220.49156997708334,70.0,90.0
391,220.71522301875,220.94004701875002,68.0,91.0
392,220.99625301875002,221.23747043541667,66.0,87.0
393,221.27728301875,221.6625283104167,68.0,93.0
394,221.83934301875001,222.40140301875002,68.0,91.0
395,222.40140301875002,223.04191722708336,76.0,91.0
396,223.24449301875,223.4892233104167,76.0,86.0
397,223.52552301875002,223.91662310208335,75.0,89.0
398,224.08758301875002,224.23278185208335,78.0,90.0
399,224.36861301875,224.89671522708335,71.0,89.0
400,225.21170301875,225.34285035208336,68.0,91.0
401,225.49273301875002,225.70818935208334,66.0,88.0
402,225.77376301875,225.92715856041667,68.0,91.0
403,226.05479301875002,226.2011628104167,68.0,89.0
404,226.33582301875,226.52317635208334,68.0,87.0
405,226.61685301875002,226.77493239375002,76.0,89.0
406,226.89788301875,227.17891301875002,76.0,91.0
407,227.24214476875002,227.60865472708335,71.0,88.0
408,227.71287001875,227.95174551875002,71.0,88.0
409,228.03137068541668,229.42129822708335,71.0,88.0
410,229.66251564375003,230.13441185208333,70.0,91.0
411,230.27492685208335,233.49506226875002,71.0,93.0
412,234.23744985208336,234.56063435208335,68.0,88.0
413,234.54306997708335,234.89084460208335,66.0,78.0
414,234.84869010208334,235.07468506041667,68.0,88.0
415,235.1519683104167,235.37093751875003,68.0,87.0
416,235.49271718541667,236.17421493541667,68.0,89.0
417,236.16836014375002,236.78428422708333,76.0,98.0
418,236.96929564375,237.21753881041667,76.0,89.0
419,237.29833493541668,237.84165960208335,75.0,93.0
420,237.82643714375,238.33229114375,78.0,87.0
421,238.27023035208336,239.25032247708336,71.0,88.0
422,239.0653110604167,239.34517010208336,68.0,89.0
423,239.31355422708336,239.63322585208334,66.0,80.0
424,239.63673872708335,239.89434956041669,68.0,88.0
425,240.00559060208334,240.22338885208333,68.0,88.0
426,240.3545361854167,240.68123356041667,68.0,89.0
427,240.68123356041667,240.93767343541668,76.0,88.0
428,241.04071776875,241.36038939375,76.0,87.0
429,241.38497951875001,241.81472122708334,75.0,88.0
430,241.90839789375002,242.42361956041668,71.0,89.0
431,242.55827976875003,244.20816006041667,71.0,88.0
432,244.86389672708336,246.46928060208336,70.0,87.0
433,246.43883568541668,248.6238439354167,71.0,89.0
