,start,end,pitch,velocity
0,1.5011664479166666,1.82593241875,61.0,81.0
1,1.7815399479166667,2.21845531875,66.0,87.0
2,1.2207929479166666,2.47780080625,54.0,78.0
3,2.3422869479166666,2.711445389583333,59.0,79.0
4,2.6226604479166666,2.98948244375,54.0,72.0
5,0.9404194479166667,3.0081740104166665,47.0,91.0
6,2.6226604479166666,3.4006969104166664,61.0,87.0
7,2.9030339479166667,3.8060702625,66.0,82.0
8,3.7441544479166664,4.227798735416666,59.0,75.0
9,3.4637809479166664,4.70677013125,54.0,73.0
10,4.024527947916667,4.852797995833333,66.0,83.0
11,4.585274947916666,4.9871436312499995,59.0,78.0
12,4.865648447916667,5.280367583333333,54.0,84.0
13,3.1834074479166667,5.342283397916667,47.0,87.0
14,5.146021947916666,5.524526172916667,59.0,83.0
15,5.707008077083333,6.612889014583333,51.0,77.0
16,5.989360577083334,6.803476952083333,56.0,80.0
17,6.271713077083334,6.952888483333333,59.0,87.0
18,5.426395447916667,7.490534702083333,44.0,78.0
19,6.836418077083334,7.508181733333333,51.0,75.0
20,7.118770577083334,7.709357889583333,58.0,80.0
21,7.401123077083334,7.731710795833333,54.0,78.0
22,8.248180577083334,8.821120858333334,56.0,80.0
23,8.530533077083334,8.947003014583334,59.0,86.0
24,7.965828077083334,9.161120327083333,51.0,83.0
25,9.095238077083334,9.232884920833333,56.0,81.0
26,8.530533077083334,9.265826045833332,63.0,86.0
27,7.683475577083334,9.758766452083332,44.0,88.0
28,9.377590577083334,9.947001452083333,56.0,87.0
29,9.659943077083334,9.971707295833333,51.0,77.0
30,9.377590577083334,9.989354327083333,59.0,88.0
31,9.942295577083332,9.989354327083333,59.0,80.0
32,9.942295577083332,10.550868189583333,66.0,82.0
33,10.504139272916667,10.698064277083333,61.0,81.0
34,10.223765772916666,11.152502991666667,54.0,76.0
35,10.784512772916667,11.331241097916667,59.0,84.0
36,10.784512772916667,11.331241097916667,63.0,88.0
37,11.625633272916666,11.721427552083334,59.0,83.0
38,11.345259772916666,11.994791714583334,54.0,79.0
39,9.942295577083332,12.007642166666667,47.0,88.0
40,11.906006772916667,12.541520039583332,59.0,79.0
41,11.625633272916666,12.804370195833332,66.0,82.0
42,12.747127272916666,12.951566283333333,59.0,81.0
43,13.027500772916667,13.309042495833333,59.0,85.0
44,13.588247772916667,13.72376163125,59.0,68.0
45,13.027500772916667,13.802032566666666,66.0,82.0
46,12.186380272916667,14.006471577083333,47.0,87.0
47,12.466753772916666,14.191050797916667,54.0,81.0
48,14.148994772916666,14.314882427083333,46.0,86.0
49,13.868621272916666,14.473760743749999,59.0,87.0
50,13.868621272916666,14.970255483333332,63.0,87.0
51,15.270488772916668,15.692217245833334,61.0,87.0
52,14.990115272916666,15.71441348125,57.0,81.0
53,14.709741772916667,15.9772636375,52.0,83.0
54,15.831235772916667,16.213244666666668,57.0,79.0
55,16.111609272916667,16.463244370833333,52.0,73.0
56,14.429368272916665,16.543851752083334,45.0,88.0
57,15.831235772916667,16.584739554166667,61.0,87.0
58,16.391982772916666,16.626795579166668,57.0,81.0
59,15.831235772916667,17.248290170833332,64.0,78.0
60,16.619786241666667,18.830064,52.0,64.0
61,16.66768338125,18.830064,56.0,77.0
62,16.653664706249998,18.834736891666665,40.0,82.0
63,16.710907629166666,18.8510920125,61.0,80.0
64,19.476091272916666,19.805530135416667,61.0,79.0
65,19.756464772916665,20.268146410416666,66.0,82.0
66,20.597585272916668,20.720248679166666,59.0,77.0
67,18.915344272916666,21.015809077083333,47.0,91.0
68,20.877958772916667,21.20739763541667,59.0,66.0
69,19.195717772916666,21.288005016666666,54.0,79.0
70,20.597585272916668,21.8090324375,63.0,84.0
71,21.719079272916666,21.887303372916666,61.0,79.0
72,21.438705772916666,22.77515278958333,54.0,74.0
73,21.158332272916667,22.9165077625,46.0,86.0
74,21.999452772916666,22.942208666666666,61.0,84.0
75,21.999452772916666,22.9795918,58.0,80.0
76,21.999452772916666,23.06370385,66.0,82.0
77,23.962067272916666,24.127954927083334,56.0,85.0
78,24.242440772916666,24.327721045833332,56.0,78.0
79,23.681693772916667,24.65248701666667,51.0,81.0
80,24.242440772916666,25.147813533333334,59.0,82.0
81,24.242440772916666,25.175850883333332,63.0,89.0
82,25.08356127291667,25.241271366666666,56.0,81.0
83,23.401320272916664,25.363934772916664,44.0,87.0
84,24.803187772916665,25.448046822916666,51.0,83.0
85,25.644308272916668,25.9445415625,54.0,78.0
86,25.644308272916668,26.777484502083333,58.0,78.0
87,26.205055272916667,26.819540527083333,54.0,76.0
88,26.485428772916666,27.130287822916667,66.0,87.0
89,27.046175772916666,27.386128641666666,61.0,88.0
90,25.924681772916664,27.407156654166666,49.0,74.0
91,27.326549272916665,27.436362227083332,54.0,88.0
92,25.644308272916668,27.449212679166667,42.0,87.0
93,27.887296272916664,28.210894020833333,56.0,78.0
94,27.887296272916664,28.619772041666668,59.0,81.0
95,28.448043272916667,28.65248228333333,56.0,71.0
96,28.728416772916667,29.55668682083333,59.0,83.0
97,28.728416772916667,29.6314530875,64.0,82.0
98,28.167669772916668,29.834723874999998,47.0,75.0
99,27.887296272916664,29.9328546,40.0,85.0
100,30.130284272916665,30.435190454166666,51.0,84.0
101,30.130284272916665,30.7249097375,54.0,82.0
102,30.410657772916664,30.726077960416667,46.0,74.0
103,30.130284272916665,30.729582629166664,39.0,88.0
104,30.691031272916668,30.797339558333334,51.0,83.0
105,31.251778272916667,31.584721804166666,56.0,76.0
106,31.251778272916667,31.847571960416666,59.0,78.0
107,31.532151772916666,32.14663702708333,51.0,78.0
108,31.812525272916666,32.16299214791667,56.0,82.0
109,31.251778272916667,32.22958085416667,44.0,85.0
110,32.09289877291667,32.32420691041666,59.0,96.0
111,32.373272272916665,32.724907370833336,56.0,82.0
112,32.373272272916665,33.28915903958333,61.0,82.0
113,32.934019272916665,33.31719638958333,56.0,77.0
114,33.21439277291667,33.99513674375,64.0,88.0
115,33.77513977291667,34.10337186875,61.0,78.0
116,32.65364577291666,34.13043065,52.0,72.0
117,32.373272272916665,34.169254118750004,49.0,87.0
118,34.056313118750005,34.3539597125,59.0,83.0
119,34.33866561875,34.4598419,56.0,75.0
120,34.62101811875,35.45866386875,54.0,77.0
121,34.62101811875,35.570428400000004,58.0,76.0
122,35.185723118750005,35.5892519,61.0,79.0
123,36.03278061875,36.39983886875,61.0,87.0
124,34.90337061875,36.682191368750004,49.0,76.0
125,34.62101811875,36.70572074375,42.0,84.0
126,35.46807561875,36.993955587500004,66.0,84.0
127,36.315133118750005,37.21395524375,54.0,82.0
128,36.59748561875,37.56454293125,61.0,81.0
129,37.16219061875,38.79983511875,49.0,78.0
130,36.87983811875,38.89630555625,42.0,86.0
131,37.72689561875,39.05630530625,66.0,70.0
132,37.444543118750005,39.190422743750005,54.0,74.0
133,39.13865811875,39.190422743750005,54.0,81.0
134,37.72689561875,39.472838525,61.0,78.0
135,39.13865811875,39.79760449583333,63.0,85.0
136,39.42026849375,39.81863250833334,54.0,77.0
137,39.700641993750004,39.837324075000005,59.0,79.0
138,39.98101549375,40.233351643750005,54.0,80.0
139,39.98101549375,40.25437965625,59.0,82.0
140,39.98101549375,40.3910617375,66.0,87.0
141,39.13865811875,40.41676264166667,35.0,85.0
142,40.54176249375,40.75321084166667,54.0,87.0
143,40.54176249375,40.86886491041667,63.0,87.0
144,40.82213599375,40.948304068750005,59.0,84.0
145,41.38288299375,42.02306915208334,54.0,80.0
146,41.38288299375,42.024237375000006,58.0,82.0
147,41.94362999375,42.23685394583334,61.0,80.0
148,42.224003493750004,42.7952645,66.0,87.0
149,42.78475049375,43.12587158541667,61.0,87.0
150,43.06512399375,43.207647189583334,54.0,87.0
151,41.663256493750005,43.23568453958334,49.0,75.0
152,41.38288299375,43.26021722083333,42.0,85.0
153,43.62587099375,43.91467097708334,56.0,77.0
154,43.62587099375,44.21794918541667,59.0,83.0
155,44.187504268750004,44.57040764375,56.0,83.0
156,44.468534268750005,44.67930676875,63.0,89.0
157,45.03059426875001,45.18867364375001,56.0,81.0
158,45.03059426875001,45.23082814375,59.0,87.0
159,43.62587099375,45.29171797708334,44.0,84.0
160,43.90647426875,45.309282352083336,51.0,76.0
161,45.873684268750004,46.20623643541667,54.0,79.0
162,45.873684268750004,46.453308643750006,61.0,80.0
163,46.43574426875001,46.60787514375001,54.0,81.0
164,46.71677426875,47.03293301875001,54.0,87.0
165,46.71677426875,47.166422268750004,61.0,88.0
166,47.27883426875,47.58913822708334,58.0,86.0
167,46.154714268750006,47.72379843541667,49.0,81.0
168,47.559864268750005,47.77883347708334,54.0,75.0
169,45.873684268750004,47.79171401875001,42.0,85.0
170,48.12192426875001,48.42988631041667,52.0,78.0
171,48.12192426875001,49.002484935416675,56.0,80.0
172,48.68398426875,49.020049310416674,59.0,83.0
173,48.965014268750004,49.647682977083335,64.0,87.0
174,49.527074268750006,49.85025876875,59.0,88.0
175,49.80810426875001,49.90178093541667,52.0,86.0
176,48.40295426875001,49.90529381041667,47.0,85.0
177,48.12192426875001,49.93573872708334,40.0,81.0
178,50.37016426875,50.56571431041667,54.0,82.0
179,50.37016426875,50.96735301875,39.0,88.0
180,50.37016426875,50.96969493541667,58.0,85.0
181,50.932224268750005,51.049320102083335,54.0,80.0
182,51.213254268750006,51.40177856041667,58.0,83.0
183,51.49428426875001,51.81278493541667,56.0,83.0
184,51.49428426875001,52.10084068541667,59.0,87.0
185,51.77531426875,52.26594581041667,51.0,82.0
186,51.49428426875001,52.346741935416674,44.0,88.0
187,52.05634426875,52.41817039375,56.0,83.0
188,52.337374268750004,52.52121472708334,59.0,82.0
189,52.618404268750005,52.94275972708334,56.0,79.0
190,52.618404268750005,53.14299360208334,61.0,83.0
191,53.18046426875,53.367817602083335,56.0,78.0
192,53.46149426875,53.83268806041667,56.0,83.0
193,53.46149426875,53.98959647708334,64.0,89.0
194,54.023554268750004,54.20856568541667,56.0,80.0
195,52.89943426875001,54.29872947708334,44.0,78.0
196,52.618404268750005,54.30926810208334,37.0,81.0
197,54.023554268750004,54.385380393750005,61.0,84.0
198,54.304584268750006,54.73198406041667,56.0,76.0
199,54.58561426875001,55.43573001875001,61.0,80.0
200,55.42870426875,56.273339768750006,54.0,87.0
201,55.709959768750004,56.34610968541667,61.0,89.0
202,55.14767426875,56.80737706041667,49.0,78.0
203,54.86664426875001,56.834372352083335,42.0,89.0
204,56.55502976875,56.87427843541667,54.0,89.0
205,56.273339768750006,56.94822206041667,66.0,88.0
206,57.118409768750006,57.43765843541667,54.0,88.0
207,57.118409768750006,57.70409022708334,61.0,87.0
208,57.68178976875001,57.834371852083336,54.0,77.0
209,57.40009976875,58.21817447708334,49.0,82.0
210,57.118409768750006,58.254559435416674,42.0,90.0
211,57.963479768750005,58.350803518750006,54.0,85.0
212,57.963479768750005,58.36840914375001,58.0,87.0
213,57.963479768750005,58.42592085208334,61.0,87.0
214,59.37192976875001,59.72169485208334,54.0,81.0
215,59.37192976875001,59.80502814375001,59.0,87.0
216,59.37192976875001,59.870755810416675,63.0,87.0
217,59.93530976875,60.05854914375001,54.0,77.0
218,60.21699976875001,60.48930010208334,54.0,91.0
219,60.21699976875001,60.657140393750005,63.0,90.0
220,59.653619768750005,60.81793843541667,42.0,77.0
221,59.37192976875001,60.84493372708334,35.0,87.0
222,60.78037976875001,60.923572185416674,54.0,87.0
223,60.78037976875001,61.09610731041667,59.0,88.0
224,61.06206976875001,61.219346685416674,54.0,81.0
225,60.78037976875001,61.452914643750006,63.0,75.0
226,61.62544976875,61.75455768541667,54.0,83.0
227,61.62544976875,61.94469843541667,58.0,87.0
228,62.188829768750004,62.71465110208334,58.0,73.0
229,61.90713976875001,62.78155247708334,54.0,78.0
230,61.62544976875,63.29094189375,46.0,83.0
231,63.033899768750004,63.34375876875001,58.0,89.0
232,62.47051976875001,63.39422822708334,66.0,85.0
233,63.31558976875001,63.44117656041667,54.0,88.0
234,63.878969768750004,64.20878181041667,56.0,77.0
235,63.878969768750004,64.49516664375001,59.0,81.0
236,64.44234976875,64.79446226875001,56.0,89.0
237,64.72403976875,65.27333526875,63.0,91.0
238,64.16065976875001,65.46582343541667,51.0,80.0
239,65.28741976875,65.80971997708335,59.0,89.0
240,63.878969768750004,65.92474339375,44.0,87.0
241,65.85079976875001,66.01159781041667,56.0,86.0
242,65.56910976875001,66.01277151875,51.0,79.0
243,66.13248976875,66.78976643541668,54.0,82.0
244,66.13248976875,66.79563497708334,58.0,80.0
245,66.69586976875,67.03155035208334,61.0,78.0
246,66.97755976875001,67.44352197708334,66.0,88.0
247,67.54093976875001,67.81206639375,61.0,90.0
248,66.13248976875,68.02568131041667,42.0,88.0
249,66.41417976875,68.04563435208334,49.0,81.0
250,67.82262976875,68.16770001875001,54.0,88.0
251,68.10431976875,68.21699576875001,61.0,82.0
252,68.38600976875,69.01159631041668,56.0,82.0
253,68.94938976875001,69.18530514375001,52.0,83.0
254,69.23107976875,69.43530501875,52.0,73.0
255,68.66769976875001,69.87896676875,47.0,81.0
256,69.23107976875,69.94938926875001,56.0,80.0
257,69.79445976875,70.10431876875,52.0,80.0
258,68.38600976875,70.38952989375001,40.0,84.0
259,70.07614976875001,70.40948293541668,47.0,90.0
260,70.35783976875001,70.49985847708334,56.0,78.0
261,70.35783976875001,70.50690072708335,59.0,80.0
262,70.35783976875001,70.51629039375001,52.0,80.0
263,70.63952976875001,70.93413056041668,51.0,83.0
264,70.92121976875,71.17708818541668,46.0,85.0
265,70.63952976875001,71.17943560208334,39.0,88.0
266,70.63952976875001,71.18530414375,54.0,83.0
267,71.20290976875,71.50103168541668,51.0,89.0
268,71.48459976875,71.62074993541667,54.0,88.0
269,71.76628976875,72.13131306041667,56.0,76.0
270,71.76628976875,72.41417676875001,59.0,87.0
271,72.04797976875001,72.50337860208334,51.0,82.0
272,71.76628976875,72.56441143541667,44.0,87.0
273,72.32966976875001,72.76863668541668,56.0,82.0
274,72.89304976875,73.52458956041669,64.0,72.0
275,73.45550301875002,73.75878122708335,56.0,91.0
276,73.73653301875001,74.11826543541669,61.0,88.0
277,74.29859301875001,74.42505651875001,56.0,87.0
278,73.17447301875002,74.47189485208335,44.0,83.0
279,72.89304976875,74.51873318541668,37.0,88.0
280,74.57962301875001,74.85128535208335,56.0,73.0
281,74.29859301875001,74.86416589375001,64.0,88.0
282,74.86065301875001,75.01404856041668,61.0,78.0
283,75.70374301875002,76.05971435208335,54.0,90.0
284,75.42271301875002,76.12177514375001,49.0,83.0
285,75.98477301875002,76.67563843541669,61.0,89.0
286,76.54683301875002,76.74472497708335,54.0,89.0
287,76.82786301875001,77.17797956041669,66.0,83.0
288,76.26580301875002,77.21310831041669,49.0,88.0
289,75.14168301875002,77.22950172708335,42.0,89.0
290,77.10889301875001,77.27048526875001,54.0,86.0
291,76.82786301875001,77.29858826875001,61.0,89.0
292,77.38992301875001,77.73886860208334,54.0,81.0
293,77.38992301875001,77.82200664375002,59.0,87.0
294,77.38992301875001,77.88758031041668,63.0,87.0
295,77.95198301875001,78.07493364375001,54.0,77.0
296,78.23301301875001,78.50467535208335,54.0,91.0
297,78.23301301875001,78.67212239375002,63.0,90.0
298,77.67095301875001,78.83254368541668,42.0,77.0
299,77.38992301875001,78.85947572708335,35.0,87.0
300,78.79507301875002,78.93792993541668,54.0,87.0
301,78.79507301875002,79.11006081041668,59.0,88.0
302,79.07610301875002,79.23301143541669,54.0,81.0
303,78.79507301875002,79.46603214375001,63.0,75.0
304,79.63816301875002,79.76696843541669,54.0,83.0
305,79.63816301875002,79.95666368541669,58.0,87.0
306,80.20022301875001,80.72481235208335,58.0,73.0
307,79.91919301875001,80.79155697708335,54.0,78.0
308,79.63816301875002,81.29975289375001,46.0,83.0
309,81.04331301875001,81.35244601875002,58.0,89.0
310,80.48125301875001,81.40279722708335,66.0,85.0
311,81.32434301875001,81.44963556041668,54.0,88.0
312,81.88640301875002,82.21544231041668,56.0,77.0
313,81.88640301875002,82.50115614375001,59.0,81.0
314,82.44846301875002,82.79975051875002,56.0,89.0
315,82.72949301875002,83.27750151875001,63.0,91.0
316,82.16743301875002,83.46953868541668,51.0,80.0
317,83.29155301875002,83.81262947708335,59.0,89.0
318,81.88640301875002,83.92738339375002,44.0,87.0
319,83.85361301875001,84.01403431041668,56.0,86.0
320,83.57258301875001,84.01520526875001,51.0,79.0
321,84.13464301875001,84.79037968541668,54.0,82.0
322,84.13464301875001,84.79623447708335,58.0,80.0
323,84.69670301875001,85.03159710208335,61.0,78.0
324,84.97773301875002,85.44260347708335,66.0,88.0
325,85.53979301875002,85.81028439375001,61.0,90.0
326,84.13464301875001,86.02339881041668,42.0,88.0
327,84.41567301875001,86.04330510208335,49.0,81.0
328,85.82082301875002,86.16508476875002,54.0,88.0
329,86.10185301875002,86.21426501875001,61.0,82.0
330,86.38288301875002,87.00700381041668,56.0,82.0
331,86.94494301875001,87.18030564375002,52.0,83.0
332,87.22597301875001,87.42971976875002,52.0,73.0
333,86.66391301875001,87.87234201875002,47.0,81.0
334,87.22597301875001,87.94259951875001,56.0,80.0
335,87.78803301875001,88.09716601875002,52.0,80.0
336,86.38288301875002,88.38170889375002,40.0,84.0
337,88.06906301875001,88.40161518541669,47.0,90.0
338,88.35009301875002,88.49177897708334,56.0,78.0
339,88.35009301875002,88.49880472708335,59.0,80.0
340,88.35009301875002,88.50817239375002,52.0,80.0
341,88.63112301875002,88.92503356041668,51.0,83.0
342,88.91215301875002,89.16742193541668,46.0,85.0
343,88.63112301875002,89.16976385208335,39.0,88.0
344,88.63112301875002,89.17561864375001,54.0,83.0
345,89.19318301875002,89.49060643541668,51.0,89.0
346,89.47421301875002,89.61004418541668,54.0,88.0
347,89.75524301875001,90.11941106041668,56.0,76.0
348,89.75524301875001,90.40161201875001,59.0,87.0
349,90.03627301875002,90.49060485208335,51.0,82.0
350,89.75524301875001,90.55149468541669,44.0,87.0
351,90.31730301875001,90.75524143541668,56.0,82.0
352,90.87936301875001,91.51050956041668,64.0,72.0
353,91.44142301875002,91.74470122708334,56.0,91.0
354,91.72245301875002,92.10418543541668,61.0,88.0
355,92.28451301875002,92.41097651875002,56.0,87.0
356,91.16039301875001,92.45781485208335,44.0,83.0
357,90.87936301875001,92.50465318541669,37.0,88.0
358,92.56554301875002,92.83720535208334,56.0,73.0
359,92.28451301875002,92.85008589375002,64.0,88.0
360,92.84657301875001,92.99996856041668,61.0,78.0
361,93.68966301875001,94.04563435208334,54.0,90.0
362,93.40863301875001,94.10769514375002,49.0,83.0
363,93.97069301875001,94.66155843541668,61.0,89.0
364,94.53275301875001,94.73064497708334,54.0,89.0
365,94.81378301875002,95.16389956041668,66.0,83.0
366,94.25172301875001,95.19902831041668,49.0,88.0
367,93.12760301875002,95.21542172708335,42.0,89.0
368,95.09481301875002,95.25640526875002,54.0,86.0
369,94.81378301875002,95.28450826875002,61.0,89.0
370,95.19902831041668,95.44492956041668,52.0,72.0
371,95.27162772708334,95.72713051875002,56.0,76.0
372,95.35944960208334,95.76225926875001,59.0,80.0
373,95.38521068541668,95.84539731041669,64.0,87.0
374,95.36998822708335,97.43790064375001,40.0,83.0
375,95.66389876875002,97.47302939375001,47.0,81.0
376,95.91916768541668,97.91330972708334,52.0,82.0
377,96.22712972708335,98.23063943541668,59.0,82.0
378,98.44024097708335,99.10066147708335,56.0,91.0
379,98.15218522708335,99.11705489375001,52.0,91.0
380,98.44141193541668,99.13227735208335,59.0,86.0
381,97.88286481041668,99.24586031041667,47.0,80.0
382,97.60534768541669,99.33368218541668,40.0,87.0
383,99.86295535208335,100.16857547708335,51.0,81.0
384,99.78215922708335,100.43906685208334,54.0,70.0
385,99.70955981041668,100.47653751875,58.0,81.0
386,100.11588235208335,101.89105518541669,46.0,81.0
387,99.83953618541668,101.90627764375002,39.0,89.0
388,100.37700606041668,102.08894714375002,51.0,82.0
389,100.67091660208335,102.08894714375002,54.0,83.0
390,100.66857468541669,102.11939206041669,58.0,84.0
391,100.67208756041668,102.12056301875002,63.0,86.0
392,102.08660522708334,102.46248285208335,56.0,77.0
393,102.08543426875002,102.73180326875001,59.0,81.0
394,102.38637056041668,103.53976451875002,51.0,82.0
395,102.08894714375002,103.60768010208335,44.0,88.0
396,102.64398139375001,103.64397981041668,56.0,84.0
397,102.93555001875,103.64515076875001,63.0,87.0
398,104.29620360208335,104.41447039375001,37.0,89.0
399,104.28566497708334,104.91681151875002,64.0,85.0
400,105.13578072708336,105.60065118541668,61.0,88.0
401,104.88519564375002,105.77629493541667,56.0,88.0
402,104.62758481041668,105.86997160208335,49.0,78.0
403,105.70720839375002,106.65685560208334,64.0,86.0
404,105.71306318541667,106.65802656041669,61.0,87.0
405,107.13109372708334,107.99994481041668,54.0,86.0
406,107.41446564375002,108.05146697708335,61.0,83.0
407,106.84186701875001,108.07956997708334,49.0,78.0
408,106.58425618541668,108.15334035208335,42.0,88.0
409,107.98003851875,108.20369156041667,66.0,85.0
410,108.85708631041669,109.23647681041669,54.0,85.0
411,108.85123151875001,109.69900535208335,63.0,88.0
412,109.68261193541667,110.10649885208335,59.0,83.0
413,109.40392385208335,110.11235364375001,54.0,87.0
414,109.14162918541669,110.78097085208336,42.0,79.0
415,108.87347972708335,110.89221189375002,35.0,86.0
416,110.25286864375002,111.20017393541667,54.0,88.0
417,110.25052672708335,111.22593501875002,59.0,90.0
418,110.24818481041669,111.56082910208335,63.0,89.0
419,111.64045426875,112.04092201875002,54.0,98.0
420,111.36293714375002,112.10181185208336,49.0,82.0
421,111.11118110208335,112.13459868541668,42.0,88.0
422,112.21305289375002,112.46129606041669,54.0,86.0
423,112.21773672708335,112.63225597708335,59.0,88.0
424,112.47534756041668,112.95192760208334,51.0,80.0
425,112.23061726875002,112.96597910208334,47.0,101.0
426,112.74232606041667,113.21188035208334,54.0,96.0
427,113.84302689375002,114.07721856041668,52.0,87.0
428,114.12874072708334,114.48588301875002,52.0,64.0
429,114.13108264375,114.49056685208335,59.0,76.0
430,113.29618935208335,115.45075268541669,40.0,87.0
431,113.58658701875001,115.45075268541669,47.0,88.0
432,114.70016839375,115.91679410208334,52.0,87.0
433,114.70133935208335,116.02100939375,56.0,86.0
434,116.14044714375001,116.29735556041669,52.0,89.0
435,116.41796426875001,116.75168739375002,52.0,84.0
436,116.42733193541667,116.86292843541668,59.0,87.0
437,116.96011797708334,117.09360722708334,56.0,87.0
438,116.96245989375001,117.12873597708335,52.0,87.0
439,115.85356235208334,117.38985968541668,47.0,81.0
440,115.55613893541668,117.66971872708335,40.0,86.0
441,117.84770439375,118.49641531041668,51.0,78.0
442,117.84887535208335,118.51749256041668,54.0,78.0
443,118.39805481041668,118.56433089375003,58.0,80.0
444,118.68493960208335,119.07838160208334,54.0,88.0
445,118.68493960208335,119.07955256041669,58.0,87.0
446,118.68962343541668,119.09009118541668,51.0,87.0
447,118.68728151875001,119.10648460208336,63.0,92.0
448,118.12522151875001,119.57486793541668,46.0,76.0
449,117.86175589375001,119.63224489375001,39.0,89.0
450,119.24114481041667,120.12638931041668,58.0,83.0
451,120.61350797708334,120.94137631041667,56.0,80.0
452,120.89922181041669,121.61819022708335,58.0,98.0
453,121.73294414375002,121.98938401875002,59.0,88.0
454,121.73762797708335,122.13575381041667,56.0,83.0
455,120.36643576875002,122.14160860208335,51.0,82.0
456,120.09008960208334,122.21889185208335,44.0,88.0
457,122.36057781041669,122.75753268541669,52.0,82.0
458,122.35003918541668,122.96947614375001,59.0,81.0
459,123.17907768541667,123.63926431041668,56.0,81.0
460,122.89687672708334,123.80085656041669,52.0,86.0
461,123.74347960208334,123.88984939375001,59.0,89.0
462,122.63575301875002,124.38399381041668,47.0,79.0
463,122.34301343541668,124.40390010208336,40.0,89.0
464,124.37696806041669,124.68024626875001,52.0,72.0
465,124.44137076875,124.92497656041668,56.0,82.0
466,124.49289293541668,124.95776339375001,59.0,72.0
467,124.55846660208334,125.15565535208336,64.0,81.0
468,125.10296222708334,125.29031556041667,52.0,74.0
469,125.41677906041667,126.02216451875002,52.0,81.0
470,125.41560810208335,126.05378039375002,56.0,80.0
471,125.40858235208336,126.10061872708334,59.0,83.0
472,124.83129989375001,126.15214089375002,47.0,80.0
473,124.55612468541668,126.16267951875002,40.0,84.0
474,127.32427018541668,127.65448043541667,54.0,83.0
475,126.79968085208336,127.69078014375,61.0,81.0
476,127.63925797708335,127.80085022708334,66.0,84.0
477,128.20483085208335,128.38984226875002,61.0,84.0
478,128.20717276875,128.47180935208334,70.0,85.0
479,127.06197551875002,128.67672706041668,49.0,77.0
480,126.79850989375001,128.77157468541668,42.0,86.0
481,128.8383193104167,128.97532143541667,61.0,74.0
482,128.91677351875,129.05377564375001,66.0,81.0
483,129.02333072708336,129.17321339375002,73.0,86.0
484,130.01161956041668,130.13808306041668,73.0,42.0
485,130.09592856041667,130.22122110208335,78.0,68.0
486,130.1837504354167,130.28913668541668,85.0,86.0
487,129.00576635208336,130.55026039375002,42.0,85.0
488,131.34768301875002,131.53503635208335,54.0,81.0
489,131.34768301875002,132.0069325604167,63.0,85.0
490,131.62871301875,132.02800981041668,54.0,77.0
491,131.90974301875002,132.04674514375,59.0,79.0
492,132.19077301875,132.44370001875,54.0,80.0
493,132.19077301875,132.46477726875003,59.0,82.0
494,132.19077301875,132.60177939375,66.0,87.0
495,131.34768301875002,132.62754047708336,35.0,85.0
496,132.75283301875,132.96477647708335,54.0,87.0
497,132.75283301875,133.08070135208334,63.0,87.0
498,133.03386301875003,133.16032651875003,59.0,84.0
499,133.59592301875,134.2376081854167,54.0,80.0
500,133.59592301875,134.23877914375,58.0,82.0
501,134.15798301875003,134.4518935604167,61.0,80.0
502,134.43901301875002,135.01161164375003,66.0,87.0
503,135.00107301875002,135.34299285208334,61.0,87.0
504,135.28210301875,135.42495993541667,54.0,87.0
505,133.87695301875002,135.45306293541668,49.0,75.0
506,133.59592301875,135.47765306041669,42.0,85.0
507,135.84416301875,136.13338972708334,56.0,77.0
508,135.84416301875,136.43666793541666,59.0,83.0
509,136.40622301875,136.78912639375002,56.0,83.0
510,136.68725301875003,136.89802551875002,63.0,89.0
511,137.24931301875,137.40739239375,56.0,81.0
512,137.24931301875,137.44954689375,59.0,87.0
513,135.84416301875,137.51043672708334,44.0,84.0
514,136.12519301875,137.52800110208335,51.0,76.0
515,138.09240301875002,138.42495518541668,54.0,79.0
516,138.09240301875002,138.67202739375,61.0,80.0
517,138.65446301875,138.82659389375002,54.0,81.0
518,138.93549301875,139.25165176875,54.0,87.0
519,138.93549301875,139.38514101875,61.0,88.0
520,139.49755301875,139.80785697708336,58.0,86.0
521,138.37343301875,139.94251718541668,49.0,81.0
522,139.77858301875,139.99755222708336,54.0,75.0
523,138.09240301875002,140.01043276875,42.0,85.0
524,140.34064301875003,140.64860506041668,52.0,78.0
525,140.34064301875003,141.2212036854167,56.0,80.0
526,140.90270301875,141.23876806041667,59.0,83.0
527,141.18373301875002,141.86640172708334,64.0,87.0
528,141.74579301875002,142.06897751875002,59.0,88.0
529,142.02682301875,142.1204996854167,52.0,86.0
530,140.62167301875002,142.1240125604167,47.0,85.0
531,140.34064301875003,142.15445747708333,40.0,81.0
532,142.58888301875,142.7844330604167,54.0,82.0
533,142.58888301875,143.18607176875003,39.0,88.0
534,142.58888301875,143.18841368541666,58.0,85.0
535,143.15094301875,143.26803885208335,54.0,80.0
536,143.43197301875,143.62049731041668,58.0,83.0
537,143.71300301875002,144.03150368541668,56.0,83.0
538,143.71300301875002,144.3195594354167,59.0,87.0
539,143.99403301875003,144.48466456041666,51.0,82.0
540,143.71300301875002,144.56546068541667,44.0,88.0
541,144.27506301875002,144.63688914375,56.0,83.0
542,144.55609301875,144.73993347708335,59.0,82.0
543,144.83712301875002,145.16147847708334,56.0,79.0
544,144.83712301875002,145.36171235208334,61.0,83.0
545,145.39918301875002,145.58653635208333,56.0,78.0
546,145.68021301875,146.05140681041667,56.0,83.0
547,145.68021301875,146.20831522708335,64.0,89.0
548,146.24227301875,146.42728443541668,56.0,80.0
549,145.11815301875,146.51744822708335,44.0,78.0
550,144.83712301875002,146.52798685208336,37.0,81.0
551,146.24227301875,146.60409914375003,61.0,84.0
552,146.52330301875003,146.9507028104167,56.0,76.0
553,146.80433301875001,147.65444876875,61.0,80.0
554,147.64742301875003,148.49051301875,54.0,87.0
555,147.92845301875002,148.56311243541668,61.0,89.0
556,147.36639301875002,149.02329906041666,49.0,78.0
557,147.08536301875,149.05023110208333,42.0,89.0
558,148.77154301875,149.09004368541667,54.0,89.0
559,148.49051301875,149.16381406041668,66.0,88.0
560,149.33360301875,149.65210368541668,54.0,88.0
561,149.33360301875,149.91791122708335,61.0,87.0
562,149.89566301875,150.04788760208334,54.0,77.0
563,149.61463301875,150.43079097708335,49.0,82.0
564,149.33360301875,150.46709068541668,42.0,90.0
565,150.17669301875003,150.56310926875,54.0,85.0
566,150.17669301875003,150.58067364375,58.0,87.0
567,150.17669301875003,150.63805060208335,61.0,87.0
568,151.58184301875002,151.93078860208334,54.0,81.0
569,151.58184301875002,152.01392664375,59.0,87.0
570,151.58184301875002,152.07950031041668,63.0,87.0
571,152.14390301875,152.26685364375,54.0,77.0
572,152.42493301875,152.69659535208336,54.0,91.0
573,152.42493301875,152.86404239375003,63.0,90.0
574,151.86287301875,153.02446368541666,42.0,77.0
575,151.58184301875002,153.05139572708333,35.0,87.0
576,152.98699301875,153.1298499354167,54.0,87.0
577,152.98699301875,153.3019808104167,59.0,88.0
578,153.26802301875,153.42493143541668,54.0,81.0
579,152.98699301875,153.65795214375,63.0,75.0
580,153.83008301875003,153.95888843541667,54.0,83.0
581,153.83008301875003,154.14858368541667,58.0,87.0
582,154.39214301875,154.91673235208333,58.0,73.0
583,154.11111301875002,154.98347697708334,54.0,78.0
584,153.83008301875003,155.49167289375,46.0,83.0
585,155.23523301875002,155.54436601875,58.0,89.0
586,154.67317301875002,155.59471722708335,66.0,85.0
587,155.51626301875,155.6415555604167,54.0,88.0
588,156.07832301875,156.4073623104167,56.0,77.0
589,156.07832301875,156.69307614375003,59.0,81.0
590,156.64038301875001,156.99167051875003,56.0,89.0
591,156.92141301875,157.46942151875,63.0,91.0
592,156.35935301875003,157.66145868541668,51.0,80.0
593,157.48347301875003,158.00454947708334,59.0,89.0
594,156.07832301875,158.11930339375002,44.0,87.0
595,158.04553301875,158.2059543104167,56.0,86.0
596,157.76450301875002,158.20712526875002,51.0,79.0
597,158.32656301875,158.98229968541668,54.0,82.0
598,158.32656301875,158.98815447708336,58.0,80.0
599,158.88862301875002,159.22351710208335,61.0,78.0
600,159.16965301875,159.63452347708335,66.0,88.0
601,159.73171301875,160.00220439375002,61.0,90.0
602,158.32656301875,160.21531881041668,42.0,88.0
603,158.60759301875,160.23522510208335,49.0,81.0
604,160.01274301875003,160.35700476875002,54.0,88.0
605,160.29377301875002,160.40618501875002,61.0,82.0
606,160.57480301875,161.1989238104167,56.0,82.0
607,161.13686301875003,161.37222564375003,52.0,83.0
608,161.41789301875002,161.62163976875001,52.0,73.0
609,160.85583301875002,162.06426201875001,47.0,81.0
610,161.41789301875002,162.13451951875,56.0,80.0
611,161.97995301875,162.28908601875003,52.0,80.0
612,160.57480301875,162.57362889375003,40.0,84.0
613,162.26098301875,162.59353518541667,47.0,90.0
614,162.54201301875003,162.68369897708334,56.0,78.0
615,162.54201301875003,162.69072472708336,59.0,80.0
616,162.54201301875003,162.70009239375003,52.0,80.0
617,162.82304301875,163.11695356041668,51.0,83.0
618,163.10407301875,163.3593419354167,46.0,85.0
619,162.82304301875,163.36168385208333,39.0,88.0
620,162.82304301875,163.36753864375,54.0,83.0
621,163.38510301875002,163.68252643541666,51.0,89.0
622,163.66613301875003,163.8019641854167,54.0,88.0
623,163.94716301875002,164.31133106041668,56.0,76.0
624,163.94716301875002,164.59353201875,59.0,87.0
625,164.22819301875,164.68252485208336,51.0,82.0
626,163.94716301875002,164.74341468541667,44.0,87.0
627,164.50922301875002,164.94716143541666,56.0,82.0
628,165.07128301875002,165.70242956041668,64.0,72.0
629,165.63334301875,165.93662122708335,56.0,91.0
630,165.91437301875,166.29610543541668,61.0,88.0
631,166.47643301875001,166.60289651875001,56.0,87.0
632,165.35231301875,166.64973485208333,44.0,83.0
633,165.07128301875002,166.6965731854167,37.0,88.0
634,166.75746301875,167.02912535208333,56.0,73.0
635,166.47643301875001,167.04200589375,64.0,88.0
636,167.03849301875002,167.1918885604167,61.0,78.0
637,167.88158301875,168.23755435208335,54.0,90.0
638,167.60055301875002,168.29961514375003,49.0,83.0
639,168.16261301875,168.85347843541666,61.0,89.0
640,168.72467301875002,168.92256497708334,54.0,89.0
641,169.00570301875,169.35581956041668,66.0,83.0
642,168.44364301875,169.39094831041666,49.0,88.0
643,167.31952301875003,169.40734172708335,42.0,89.0
644,169.28673301875,169.44832526875,54.0,86.0
645,169.00570301875,169.47642826875,61.0,89.0
646,169.54083097708335,169.66612351875,35.0,87.0
647,169.53614714375001,170.32186018541668,66.0,80.0
648,169.53848906041668,170.35933085208336,59.0,79.0
649,170.64504468541668,170.78555968541667,59.0,83.0
650,170.35815989375,171.0595639354167,54.0,89.0
651,170.92256181041668,171.17431785208333,59.0,85.0
652,170.9190489354167,171.3300553104167,66.0,86.0
653,171.17900168541667,171.63216256041667,54.0,79.0
654,170.09352331041669,171.6356754354167,47.0,78.0
655,171.48696372708335,171.81014822708335,63.0,87.0
656,171.48227989375002,171.87689285208336,59.0,81.0
657,172.31248935208333,172.44246572708334,59.0,86.0
658,172.02443360208335,172.69187985208333,54.0,82.0
659,172.59937414375003,172.9600293104167,63.0,91.0
660,172.5946903104167,172.96471314375003,69.0,88.0
661,172.60171606041666,172.96939697708336,59.0,89.0
662,172.87337839375002,173.23871739375,54.0,87.0
663,171.77384851875001,173.29258147708333,47.0,90.0
664,173.16845989375003,173.52208931041667,59.0,89.0
665,173.16963085208334,173.5572180604167,66.0,89.0
666,173.4483189354167,173.58415010208336,47.0,88.0
667,174.02091756041668,174.12396189375,40.0,88.0
668,174.01389181041668,174.65674793541666,59.0,87.0
669,174.01623372708335,174.6989024354167,64.0,86.0
670,174.01272085208336,174.7937500604167,68.0,85.0
671,174.87571714375002,175.03262556041668,59.0,82.0
672,174.59937097708337,175.31482651875,47.0,61.0
673,175.15791810208333,175.55604393541668,59.0,91.0
674,175.16143097708334,175.6298143104167,64.0,93.0
675,175.43426426875,175.66611401875002,56.0,72.0
676,175.73988439375,175.84878351875,52.0,85.0
677,175.99983714375003,176.17313897708334,59.0,86.0
678,175.16026001875002,176.17313897708334,68.0,90.0
679,176.29843151875002,176.62044506041667,47.0,88.0
680,176.3007734354167,176.65791572708335,59.0,88.0
681,176.30194439375003,176.90732985208336,64.0,87.0
682,176.56306810208335,177.14386343541668,52.0,79.0
683,176.82067893541668,177.29842993541666,56.0,81.0
684,177.06892210208335,177.37220031041667,59.0,92.0
685,177.37337126875002,177.76915518541668,52.0,98.0
686,177.6567431854167,177.96353426875,59.0,93.0
687,177.94011510208335,178.03496272708335,56.0,82.0
688,177.65791414375002,178.04667231041668,64.0,94.0
689,178.51622660208335,178.83004343541668,63.0,88.0
690,178.51388468541668,179.0794575604167,66.0,87.0
691,179.03261922708333,179.12863781041668,63.0,81.0
692,179.34409414375,179.51505406041667,63.0,93.0
693,179.34292318541668,179.57711485208335,70.0,91.0
694,179.93074426875,180.08413981041667,63.0,92.0
695,178.80311139375002,180.10990089375002,46.0,80.0
696,178.55252631041668,180.16727785208334,39.0,88.0
697,179.92606043541667,180.24573206041669,66.0,91.0
698,180.50100097708335,180.64737076875002,63.0,80.0
699,180.77851810208335,180.9764100604167,68.0,85.0
700,180.78437289375,180.99280347708333,63.0,87.0
701,181.32652660208333,181.44245147708335,56.0,74.0
702,181.04900947708336,181.67313026875001,51.0,79.0
703,181.5981889354167,181.99631476875,58.0,96.0
704,181.87102222708336,182.26797710208336,51.0,87.0
705,182.18718097708336,182.45298851875003,59.0,92.0
706,182.19537768541667,182.45767235208336,56.0,87.0
707,182.19303576875,182.47874960208333,63.0,89.0
708,180.78554385208335,182.54666518541669,44.0,90.0
709,182.47172385208336,182.56188764375003,51.0,87.0
710,183.0314419354167,183.13448626875,37.0,89.0
711,183.03495481041668,183.38975518541667,56.0,87.0
712,183.03261289375,183.53495401875,64.0,86.0
713,183.87921576875002,184.24104189375,56.0,89.0
714,183.5513474354167,184.47757547708335,49.0,83.0
715,184.14736522708336,184.48694314375,61.0,90.0
716,184.40731797708335,184.55954256041667,56.0,82.0
717,184.14502331041666,184.60638089375,64.0,94.0
718,184.14033947708333,184.77851176875,68.0,91.0
719,184.67898031041668,184.79373422708335,49.0,88.0
720,185.29841726875003,185.53377989375002,63.0,87.0
721,185.29490439375002,185.61808889375,66.0,85.0
722,185.82183564375,185.91551231041666,63.0,77.0
723,186.10754947708335,186.21644860208335,63.0,88.0
724,186.11223331041668,186.23284201875003,70.0,87.0
725,185.54314756041668,186.50450435208336,46.0,78.0
726,186.3897504354167,186.6040358104167,63.0,92.0
727,186.38389564375,186.68249001875,70.0,92.0
728,186.67195139375002,186.84408226875001,46.0,83.0
729,185.29724631041668,186.86047568541667,39.0,89.0
730,186.94478468541666,187.08647064375003,66.0,87.0
731,186.94946851875,187.10169310208335,63.0,89.0
732,187.53143481041667,187.76094264375,61.0,79.0
733,187.51972522708334,188.11105918541668,65.0,89.0
734,188.06304989375002,188.19068435208334,61.0,86.0
735,188.34056701875,188.53143322708334,68.0,90.0
736,188.33471222708334,188.67194822708336,65.0,89.0
737,188.3429089354167,188.7539153104167,61.0,90.0
738,187.79255851875,189.07944172708335,44.0,77.0
739,188.92604618541668,189.08412556041668,61.0,92.0
740,187.51269947708334,189.12159622708333,37.0,90.0
741,188.92019139375003,189.26679506041668,73.0,94.0
742,188.92838810208335,189.27147889375001,65.0,96.0
743,189.76211043541667,190.12627847708336,54.0,86.0
744,189.77030714375002,190.18365543541668,61.0,87.0
745,190.33470906041669,190.47990789375,54.0,79.0
746,190.61222618541666,190.94243643541668,61.0,90.0
747,190.61105522708334,191.01035201875,54.0,92.0
748,191.17897001875002,191.28435626875,58.0,94.0
749,191.17194426875,191.31480118541668,61.0,94.0
750,190.04431139375,191.37452006041667,49.0,88.0
751,191.16608947708335,191.44126468541668,66.0,87.0
752,189.7691361854167,191.74571385208333,42.0,88.0
753,191.98576031041668,192.48224664375002,70.0,89.0
754,191.99512797708334,192.50332389375,42.0,89.0
755,191.99278606041668,192.50683676875002,66.0,85.0
756,191.99044414375,192.51854635208335,78.0,80.0
757,194.29840301875,194.64734860208335,54.0,81.0
758,194.29840301875,194.73048664375,59.0,87.0
759,194.29840301875,194.7960603104167,63.0,87.0
760,194.86046301875,194.98341364375,54.0,77.0
761,195.14149301875,195.41315535208335,54.0,91.0
762,195.14149301875,195.58060239375,63.0,90.0
763,194.57943301875002,195.74102368541668,42.0,77.0
764,194.29840301875,195.76795572708335,35.0,87.0
765,195.70355301875003,195.84640993541666,54.0,87.0
766,195.70355301875003,196.01854081041668,59.0,88.0
767,195.98458301875002,196.1414914354167,54.0,81.0
768,195.70355301875003,196.37451214375,63.0,75.0
769,196.54664301875002,196.67544843541668,54.0,83.0
770,196.54664301875002,196.86514368541668,58.0,87.0
771,197.10870301875002,197.63329235208334,58.0,73.0
772,196.82767301875003,197.70003697708336,54.0,78.0
773,196.54664301875002,198.20823289375,46.0,83.0
774,197.95179301875,198.26092601875,58.0,89.0
775,197.38973301875,198.31127722708334,66.0,85.0
776,198.23282301875003,198.35811556041668,54.0,88.0
777,198.79488301875,199.12392231041667,56.0,77.0
778,198.79488301875,199.40963614375,59.0,81.0
779,199.35694301875003,199.70823051875,56.0,89.0
780,199.63797301875002,200.18598151875,63.0,91.0
781,199.07591301875001,200.3780186854167,51.0,80.0
782,200.20003301875002,200.72110947708336,59.0,89.0
783,198.79488301875,200.83586339375,44.0,87.0
784,200.76209301875002,200.92251431041666,56.0,86.0
785,200.48106301875,200.92368526875,51.0,79.0
786,201.04312301875,201.6988596854167,54.0,82.0
787,201.04312301875,201.70471447708334,58.0,80.0
788,201.60518301875,201.94007710208334,61.0,78.0
789,201.88621301875003,202.35108347708334,66.0,88.0
790,202.44827301875,202.71876439375,61.0,90.0
791,201.04312301875,202.9318788104167,42.0,88.0
792,201.32415301875002,202.95178510208333,49.0,81.0
793,202.72930301875002,203.07356476875,54.0,88.0
794,203.01033301875,203.12274501875,61.0,82.0
795,203.29136301875002,203.91548381041667,56.0,82.0
796,203.85342301875002,204.08878564375001,52.0,83.0
797,204.13445301875,204.33819976875,52.0,73.0
798,203.57239301875,204.78082201875,47.0,81.0
799,204.13445301875,204.85107951875003,56.0,80.0
800,204.69651301875,205.00564601875,52.0,80.0
801,203.29136301875002,205.29018889375,40.0,84.0
802,204.97754301875003,205.31009518541669,47.0,90.0
803,205.25857301875,205.40025897708335,56.0,78.0
804,205.25857301875,205.40728472708335,59.0,80.0
805,205.25857301875,205.41665239375,52.0,80.0
806,205.53960301875,205.8335135604167,51.0,83.0
807,205.82063301875002,206.07590193541668,46.0,85.0
808,205.53960301875,206.07824385208335,39.0,88.0
809,205.53960301875,206.08409864375002,54.0,83.0
810,206.10166301875,206.39908643541668,51.0,89.0
811,206.38269301875002,206.51852418541668,54.0,88.0
812,206.66372301875,207.0278910604167,56.0,76.0
813,206.66372301875,207.31009201875003,59.0,87.0
814,206.94475301875002,207.39908485208335,51.0,82.0
815,206.66372301875,207.45997468541668,44.0,87.0
816,207.22578301875,207.66372143541668,56.0,82.0
817,207.78784301875,208.4189895604167,64.0,72.0
818,208.34990301875,208.65318122708334,56.0,91.0
819,208.63093301875,209.0126654354167,61.0,88.0
820,209.19299301875,209.31945651875,56.0,87.0
821,208.06887301875003,209.36629485208334,44.0,83.0
822,207.78784301875,209.41313318541668,37.0,88.0
823,209.47402301875002,209.74568535208334,56.0,73.0
824,209.19299301875,209.75856589375002,64.0,88.0
825,209.75505301875,209.90844856041667,61.0,78.0
826,210.59814301875002,210.95411435208334,54.0,90.0
827,210.31711301875,211.01617514375002,49.0,83.0
828,210.87917301875,211.57003843541668,61.0,89.0
829,211.44123301875,211.63912497708336,54.0,89.0
830,211.72226301875,212.0723795604167,66.0,83.0
831,211.16020301875002,212.10750831041668,49.0,88.0
832,210.03608301875002,212.12390172708334,42.0,89.0
833,212.00329301875,212.16488526875003,54.0,86.0
834,211.72226301875,212.19298826875,61.0,89.0
835,212.28432301875,212.63326860208335,54.0,81.0
836,212.28432301875,212.71640664375002,59.0,87.0
837,212.28432301875,212.78198031041669,63.0,87.0
838,212.84638301875,212.96933364375002,54.0,77.0
839,213.12741301875002,213.39907535208334,54.0,91.0
840,213.12741301875002,213.56652239375,63.0,90.0
841,212.56535301875002,213.72694368541667,42.0,77.0
842,212.28432301875,213.75387572708334,35.0,87.0
843,213.68947301875002,213.83232993541668,54.0,87.0
844,213.68947301875002,214.00446081041667,59.0,88.0
845,213.97050301875,214.1274114354167,54.0,81.0
846,213.68947301875002,214.36043214375002,63.0,75.0
847,214.53256301875,214.66136843541668,54.0,83.0
848,214.53256301875,214.85106368541668,58.0,87.0
849,215.09462301875,215.61921235208334,58.0,73.0
850,214.81359301875003,215.68595697708335,54.0,78.0
851,214.53256301875,216.19415289375002,46.0,83.0
852,215.93771301875,216.24684601875,58.0,89.0
853,215.37565301875,216.29719722708336,66.0,85.0
854,216.21874301875002,216.34403556041667,54.0,88.0
855,216.78080301875002,217.10984231041667,56.0,77.0
856,216.78080301875002,217.39555614375,59.0,81.0
857,217.34286301875002,217.69415051875,56.0,89.0
858,217.62389301875,218.17190151875002,63.0,91.0
859,217.06183301875,218.36393868541668,51.0,80.0
860,218.18595301875,218.70702947708335,59.0,89.0
861,216.78080301875002,218.82178339375002,44.0,87.0
862,218.74801301875002,218.90843431041668,56.0,86.0
863,218.46698301875,218.90960526875,51.0,79.0
864,219.02904301875,219.6847796854167,54.0,82.0
865,219.02904301875,219.69063447708334,58.0,80.0
866,219.59110301875,219.92599710208336,61.0,78.0
867,219.87213301875002,220.33700347708336,66.0,88.0
868,220.43419301875002,220.70468439375,61.0,90.0
869,219.02904301875,220.91779881041668,42.0,88.0
870,219.31007301875002,220.93770510208336,49.0,81.0
871,220.71522301875,221.05948476875002,54.0,88.0
872,220.99625301875002,221.10866501875,61.0,82.0
873,221.27728301875,221.90140381041667,56.0,82.0
874,221.83934301875001,222.07470564375,52.0,83.0
875,222.12037301875,222.32411976875002,52.0,73.0
876,221.55831301875,222.76674201875002,47.0,81.0
877,222.12037301875,222.83699951875002,56.0,80.0
878,222.68243301875,222.99156601875,52.0,80.0
879,221.27728301875,223.27610889375,40.0,84.0
880,222.96346301875002,223.29601518541668,47.0,90.0
881,223.24449301875,223.38617897708335,56.0,78.0
882,223.24449301875,223.39320472708334,59.0,80.0
883,223.24449301875,223.40257239375,52.0,80.0
884,223.52552301875002,223.81943356041668,51.0,83.0
885,223.80655301875,224.06182193541667,46.0,85.0
886,223.52552301875002,224.06416385208334,39.0,88.0
887,223.52552301875002,224.07001864375002,54.0,83.0
888,224.08758301875002,224.38500643541667,51.0,89.0
889,224.36861301875,224.50444418541667,54.0,88.0
890,224.64964301875003,225.01381106041669,56.0,76.0
891,224.64964301875003,225.29601201875002,59.0,87.0
892,224.93067301875,225.38500485208334,51.0,82.0
893,224.64964301875003,225.44589468541668,44.0,87.0
894,225.21170301875,225.64964143541667,56.0,82.0
895,225.77376301875,226.40490956041668,64.0,72.0
896,226.33582301875,226.63910122708336,56.0,91.0
897,226.61685301875002,226.9985854354167,61.0,88.0
898,227.17891301875002,227.30537651875002,56.0,87.0
899,226.05479301875002,227.35221485208334,44.0,83.0
900,225.77376301875,227.39905318541668,37.0,88.0
901,227.45994301875,227.73160535208333,56.0,73.0
902,227.17891301875002,227.74448589375,64.0,88.0
903,227.74097301875003,227.89436856041667,61.0,78.0
904,228.58406301875002,228.94003435208336,54.0,90.0
905,228.30303301875,229.00209514375,49.0,83.0
906,228.86509301875,229.55595843541667,61.0,89.0
907,229.42715301875,229.62504497708335,54.0,89.0
908,229.70818301875002,230.05829956041669,66.0,83.0
909,229.14612301875002,230.09342831041667,49.0,88.0
910,228.02200301875,230.10982172708336,42.0,89.0
911,229.98921301875,230.15080526875002,54.0,86.0
912,229.70818301875002,230.17890826875,61.0,89.0
913,230.23511426875,230.3358166854167,35.0,86.0
914,230.23745618541668,230.58523081041668,54.0,84.0
915,230.23979810208334,230.82644822708335,63.0,88.0
916,231.09108481041667,231.44354326875,59.0,88.0
917,231.09342672708334,231.45056901875,63.0,93.0
918,231.38031151875,231.77960831041668,54.0,81.0
919,231.65899960208336,231.86274635208335,63.0,98.0
920,231.65782864375,231.86391731041667,59.0,89.0
921,231.6566576854167,231.87328497708336,66.0,93.0
922,230.82059343541667,232.05127064375,47.0,79.0
923,232.42129347708334,232.75970043541668,59.0,79.0
924,232.45876414375002,232.84752231041668,63.0,87.0
925,232.51848301875,233.01145647708336,66.0,62.0
926,233.02199510208334,233.14728764375002,59.0,73.0
927,232.75267468541668,233.93651356041667,54.0,83.0
928,232.49740576875,234.03955789375001,47.0,89.0
929,233.32058947708336,234.11332826875002,71.0,84.0
930,233.31824756041667,234.16602139375001,66.0,87.0
931,233.31473468541668,234.17070522708335,63.0,91.0
932,233.31590564375,234.20466301875,59.0,87.0
933,235.05126589375,236.6695303104167,47.0,81.0
934,235.62386451875003,236.71168481041667,56.0,78.0
935,235.32878301875002,236.71519768541668,52.0,78.0
936,235.91894601875,236.71519768541668,59.0,73.0
937,234.75267151875002,236.77491656041667,40.0,80.0
938,237.40372118541669,237.96461022708334,46.0,70.0
939,237.05243368541667,238.01613239375,39.0,88.0
940,237.8322919354167,238.20816956041668,51.0,76.0
941,238.70816876875,238.93533468541668,56.0,72.0
942,238.82526460208334,239.00325026875,59.0,75.0
943,238.92128318541668,239.02901135208336,63.0,74.0
944,238.97163439375,239.17069731041667,68.0,79.0
945,238.56531185208334,239.47865935208335,51.0,79.0
946,238.34751360208335,239.53135247708335,44.0,87.0
947,240.22690172708334,241.12268485208335,44.0,75.0
948,239.93533310208335,241.18708756041667,37.0,82.0
949,240.42128081041668,241.92713322708335,56.0,72.0
950,240.60395031041668,241.96343293541668,61.0,68.0
951,240.78661981041668,242.19176981041667,64.0,59.0
952,242.72923968541667,243.25851285208336,61.0,81.0
953,243.18474247708335,243.30535118541667,54.0,75.0
954,242.97631189375002,243.39902785208335,66.0,73.0
955,243.88497556041668,244.28310139375,66.0,74.0
956,243.60862939375002,244.65780806041667,73.0,82.0
957,244.18356993541667,244.76319431041668,78.0,70.0
958,242.54657018541667,245.48216272708333,49.0,83.0
959,242.34165247708336,245.62150676875,42.0,84.0
960,247.04539210208335,247.44937272708336,61.0,76.0
961,247.37208947708334,247.75030901875002,63.0,87.0
962,247.71869314375002,247.90253360208334,66.0,87.0
963,248.09457076875,248.26201781041667,71.0,89.0
964,248.50206426875002,248.63321160208335,73.0,92.0
965,248.9329769354167,249.26318718541668,75.0,74.0
966,248.92829310208336,249.47630160208334,71.0,76.0
967,249.39316356041667,249.54538814375002,75.0,75.0
968,249.44468572708334,249.61681660208333,78.0,73.0
969,249.80182801875,249.91189810208334,71.0,52.0
970,249.87325647708334,249.95522356041667,75.0,76.0
971,249.98566847708335,250.11564485208334,83.0,84.0
972,250.71985935208335,250.80299739375002,83.0,67.0
973,250.75615906041668,250.85217764375003,87.0,77.0
974,250.81821985208336,250.97278635208335,95.0,81.0
975,246.73743006041667,251.5500688104167,54.0,72.0
976,246.48567401875002,251.58636851875002,47.0,88.0
