,start,end,pitch,velocity
0,17.03948799375,17.3443339875,64.0,107.0
1,17.34560949375,17.6504554875,64.0,110.0
2,17.65173099375,17.9565769875,64.0,104.0
3,17.957852493750003,18.263973993750003,64.0,114.0
4,18.263973993750003,18.570095493750003,65.0,110.0
5,18.570095493750003,18.874941487500003,67.0,117.0
6,18.876216993750003,19.79458149375,67.0,117.0
7,19.79458149375,20.10070299375,69.0,108.0
8,20.10070299375,20.71294599375,60.0,107.0
9,20.71294599375,22.243553493750003,62.0,110.0
10,22.243553493750003,22.548399487500003,64.0,114.0
11,22.549674993750003,22.854520987500003,64.0,108.0
12,22.855796493750002,23.161917993750002,64.0,107.0
13,23.161917993750002,23.468039493750002,65.0,114.0
14,23.468039493750002,24.0790069875,67.0,110.0
15,24.08028249375,24.69252549375,67.0,114.0
16,24.69252549375,24.998646993750004,72.0,114.0
17,24.998646993750004,25.610889993750003,71.0,116.0
18,25.610889993750003,26.529254493750003,67.0,116.0
19,26.529254493750003,27.75374049375,69.0,113.0
20,27.75374049375,28.08537211875,65.0,113.0
21,28.05986199375,28.365983493750004,64.0,93.0
22,28.365983493750004,28.672104993750004,62.0,98.0
23,28.672104993750004,28.978226493750004,69.0,114.0
24,28.978226493750004,29.895315487500003,67.0,114.0
25,29.896590993750003,30.202712493750003,67.0,114.0
26,30.202712493750003,31.121076993750002,60.0,114.0
27,31.121076993750002,31.4259229875,67.0,113.0
28,31.42719849375,31.73331999375,67.0,110.0
29,31.73331999375,32.0381659875,65.0,107.0
30,32.039441493750004,32.34556299375,65.0,113.0
31,32.34556299375,32.651684493750004,64.0,110.0
32,32.651684493750004,32.95780599375,65.0,116.0
33,32.95780599375,33.2626519875,72.0,108.0
34,33.26392749375,33.87617049375,72.0,88.0
35,33.87617049375,34.182291993750006,64.0,104.0
36,34.182291993750006,36.631263993750004,62.0,98.0
37,36.631263993750004,36.936109987500004,64.0,107.0
38,36.93738549375001,37.24223148750001,64.0,110.0
39,37.24350699375,37.5483529875,64.0,104.0
40,37.549628493750006,37.85574999375,64.0,114.0
41,37.85574999375,38.161871493750006,65.0,110.0
42,38.161871493750006,38.466717487500006,67.0,117.0
43,38.46799299375,39.386357493750005,67.0,117.0
44,39.386357493750005,39.69247899375,69.0,108.0
45,39.69247899375,40.30472199375,60.0,107.0
46,40.30472199375,41.83532949375,62.0,110.0
47,41.83532949375,42.1401754875,64.0,114.0
48,42.141450993750006,42.446296987500006,64.0,108.0
49,42.44757249375,42.753693993750005,64.0,107.0
50,42.753693993750005,43.05981549375,65.0,114.0
51,43.05981549375,43.670782987500004,67.0,110.0
52,43.67205849375,44.28430149375001,67.0,114.0
53,44.28430149375001,44.59042299375,72.0,114.0
54,44.59042299375,45.20266599375,71.0,116.0
55,45.20266599375,46.121030493750006,67.0,116.0
56,46.121030493750006,47.345516493750004,69.0,113.0
57,47.345516493750004,47.677148118750004,65.0,113.0
58,47.65163799375001,47.957759493750004,64.0,93.0
59,47.957759493750004,48.26388099375001,62.0,98.0
60,48.26388099375001,48.57000249375,69.0,114.0
61,48.57000249375,49.180969987500006,67.0,114.0
62,49.18224549375,49.488366993750006,67.0,116.0
63,49.488366993750006,50.100609993750005,74.0,119.0
64,50.100609993750005,50.712852993750005,72.0,120.0
65,50.712852993750005,51.01897449375001,64.0,110.0
66,51.01897449375001,51.325095993750004,67.0,114.0
67,51.325095993750004,51.629941987500004,65.0,110.0
68,51.63121749375001,51.937338993750004,65.0,114.0
69,51.937338993750004,52.24346049375001,64.0,113.0
70,52.24346049375001,52.54958199375,65.0,114.0
71,52.54958199375,52.8544279875,67.0,108.0
72,52.855703493750006,53.16182499375,67.0,113.0
73,53.16182499375,53.4666709875,69.0,119.0
74,53.467946493750006,53.77406799375,69.0,119.0
75,53.77406799375,54.0789139875,67.0,100.0
76,54.080189493750005,54.38631099375001,67.0,117.0
77,54.38631099375001,54.69115698750001,74.0,114.0
78,54.692432493750005,55.304675493750004,74.0,116.0
79,55.304675493750004,55.61079699375001,72.0,114.0
80,55.61079699375001,55.91691849375,74.0,116.0
81,55.91691849375,56.22303999375001,76.0,117.0
82,56.22303999375001,56.52916149375,67.0,113.0
83,56.52916149375,56.835282993750006,72.0,113.0
84,56.835282993750006,57.14140449375,76.0,116.0
85,57.14140449375,57.447525993750006,74.0,116.0
86,57.447525993750006,57.75364749375001,67.0,113.0
87,57.75364749375001,58.059768993750005,71.0,113.0
88,58.059768993750005,58.36589049375001,74.0,114.0
89,58.36589049375001,58.8237972375,72.0,116.0
90,58.825072743750006,59.28297948750001,72.0,114.0
91,59.284254993750004,59.589100987500004,72.0,108.0
92,59.59037649375001,60.2013439875,72.0,114.0
93,60.20261949375001,60.50874099375,72.0,114.0
94,60.50874099375,60.82379103750001,67.0,114.0
95,60.814862493750006,61.12098399375001,69.0,114.0
96,61.12098399375001,61.42582998750001,72.0,108.0
97,61.427105493750005,61.73322699375001,72.0,108.0
98,61.73322699375001,62.039348493750005,69.0,102.0
99,62.039348493750005,62.344194487500005,67.0,116.0
100,62.34546999375001,62.651591493750004,67.0,114.0
101,62.651591493750004,62.95771299375001,72.0,110.0
102,62.95771299375001,63.263834493750004,76.0,116.0
103,63.263834493750004,63.56995599375001,77.0,114.0
104,63.56995599375001,63.90413863125001,76.0,110.0
105,63.87607749375,64.18219899375,74.0,116.0
106,64.18219899375,64.48832049375001,72.0,108.0
107,64.48832049375001,65.10056349375,74.0,119.0
108,65.10056349375,65.40668499375,72.0,110.0
109,65.40668499375,65.71280649375001,74.0,104.0
110,65.71280649375001,66.0176524875,76.0,116.0
111,66.01892799375001,66.3237739875,76.0,110.0
112,66.32504949375,66.63117099375,76.0,116.0
113,66.63117099375,66.93601698750001,68.0,119.0
114,66.93729249375001,67.2421384875,68.0,116.0
115,67.24341399375001,67.54953549375,68.0,116.0
116,67.54953549375,67.85565699375,69.0,108.0
117,67.85565699375,68.16177849375,71.0,107.0
118,68.16177849375,68.62096074375,74.0,117.0
119,68.62096074375,69.08014299375,76.0,116.0
120,69.08014299375,69.38626449375,74.0,113.0
121,69.38626449375,69.9972319875,72.0,114.0
122,69.99850749375001,70.30462899375,72.0,114.0
123,70.30462899375,70.60947498750001,79.0,116.0
124,70.61075049375,71.06993274375,79.0,119.0
125,71.06993274375,71.52911499375001,77.0,116.0
126,71.52911499375001,71.83523649375,76.0,114.0
127,71.83523649375,72.44747949375001,72.0,116.0
128,72.44747949375001,72.75360099375001,69.0,114.0
129,72.75360099375001,73.05972249375,76.0,116.0
130,73.05972249375,73.36584399375,77.0,117.0
131,73.36584399375,73.67196549375001,76.0,117.0
132,73.67196549375001,73.97808699375001,74.0,113.0
133,73.97808699375001,74.28420849375,72.0,114.0
134,74.28420849375,74.89645149375,74.0,116.0
135,74.89645149375,75.20257299375001,72.0,114.0
136,75.20257299375001,75.50869449375001,74.0,116.0
137,75.50869449375001,75.81481599375,76.0,117.0
138,75.81481599375,76.12093749375,67.0,113.0
139,76.12093749375,76.42705899375001,72.0,113.0
140,76.42705899375001,76.73318049375001,76.0,116.0
141,76.73318049375001,77.03930199375,74.0,116.0
142,77.03930199375,77.34542349375,67.0,113.0
143,77.34542349375,77.65154499375001,71.0,113.0
144,77.65154499375001,77.95766649375001,74.0,114.0
145,77.95766649375001,78.41557323750001,72.0,116.0
146,78.41684874375001,78.87475548750001,72.0,114.0
147,78.87603099375,79.18087698750001,72.0,108.0
148,79.18215249375001,79.7931199875,72.0,114.0
149,79.79439549375,80.10051699375,72.0,114.0
150,80.10051699375,80.41556703750001,67.0,114.0
151,80.40663849375001,80.71275999375001,69.0,114.0
152,80.71275999375001,81.0176059875,72.0,108.0
153,81.01888149375,81.32500299375,72.0,108.0
154,81.32500299375,81.63112449375001,69.0,102.0
155,81.63112449375001,81.93597048750001,67.0,116.0
156,81.93724599375001,82.24336749375001,67.0,114.0
157,82.24336749375001,82.54948899375,72.0,110.0
158,82.54948899375,82.85561049375,76.0,116.0
159,82.85561049375,83.16173199375001,77.0,114.0
160,83.16173199375001,83.49591463125,76.0,110.0
161,83.46785349375001,83.77397499375,74.0,116.0
162,83.77397499375,84.08009649375,72.0,108.0
163,84.08009649375,84.69233949375001,74.0,119.0
164,84.69233949375001,84.99846099375,72.0,110.0
165,84.99846099375,85.30458249375,74.0,104.0
166,85.30458249375,85.60942848750001,76.0,116.0
167,85.61070399375001,85.91554998750001,76.0,110.0
168,85.91682549375001,86.22294699375001,76.0,116.0
169,86.22294699375001,86.5277929875,68.0,119.0
170,86.52906849375,86.83391448750001,68.0,116.0
171,86.83518999375,87.14131149375001,68.0,116.0
172,87.14131149375001,87.44743299375001,69.0,108.0
173,87.44743299375001,87.75355449375,71.0,107.0
174,87.75355449375,88.21273674375001,74.0,117.0
175,88.21273674375001,88.67191899375001,76.0,116.0
176,88.67191899375001,88.97804049375002,74.0,113.0
177,88.97804049375002,89.58900798750001,72.0,114.0
178,89.59028349375001,89.89640499375001,72.0,114.0
179,89.89640499375001,90.2012509875,79.0,116.0
180,90.20252649375001,90.66170874375001,79.0,119.0
181,90.66170874375001,91.12089099375001,77.0,116.0
182,91.12089099375001,91.42701249375001,76.0,114.0
183,91.42701249375001,92.34537699375001,72.0,116.0
184,92.34537699375001,92.65149849375001,67.0,110.0
185,92.65149849375001,92.96272201875001,79.0,114.0
186,92.95761999375001,93.26246598750001,77.0,114.0
187,93.26374149375,93.56986299375001,77.0,110.0
188,93.56986299375001,93.87598449375001,76.0,116.0
189,93.87598449375001,94.33516674375001,72.0,117.0
190,94.33516674375001,94.79434899375,67.0,117.0
191,94.79434899375,95.40659199375001,74.0,116.0
192,95.40659199375001,95.93465158125001,72.0,117.0
193,105.20247999375,105.50732598750001,64.0,107.0
194,105.50860149375,105.81344748750001,64.0,110.0
195,105.81472299375001,106.11956898750002,64.0,104.0
196,106.12084449375001,106.42696599375002,64.0,114.0
197,106.42696599375002,106.73308749375,65.0,110.0
198,106.73308749375,107.03793348750001,67.0,117.0
199,107.03920899375001,107.95757349375,67.0,117.0
200,107.95757349375,108.26369499375001,69.0,108.0
201,108.26369499375001,108.87593799375001,60.0,107.0
202,108.87593799375001,110.40654549375002,62.0,110.0
203,110.40654549375002,110.71139148750001,64.0,114.0
204,110.71266699375,111.01751298750001,64.0,108.0
205,111.01878849375001,111.32490999375001,64.0,107.0
206,111.32490999375001,111.63103149375002,65.0,114.0
207,111.63103149375002,112.24199898750001,67.0,110.0
208,112.24327449375001,112.85551749375001,67.0,114.0
209,112.85551749375001,113.16163899375002,72.0,114.0
210,113.16163899375002,113.77388199375001,71.0,116.0
211,113.77388199375001,114.69224649375,67.0,116.0
212,114.69224649375,115.91673249375,69.0,113.0
213,115.91673249375,116.24836411875,65.0,113.0
214,116.22285399375001,116.52897549375001,64.0,93.0
215,116.52897549375001,116.83509699375001,62.0,98.0
216,116.83509699375001,117.14121849375002,69.0,114.0
217,117.14121849375002,117.75218598750001,67.0,114.0
218,117.75346149375001,118.05958299375001,67.0,116.0
219,118.05958299375001,118.67182599375,74.0,119.0
220,118.67182599375,119.28406899375001,72.0,120.0
221,119.28406899375001,119.59019049375001,64.0,110.0
222,119.59019049375001,119.89631199375002,67.0,114.0
223,119.89631199375002,120.20115798750001,65.0,110.0
224,120.20243349375001,120.50855499375001,65.0,114.0
225,120.50855499375001,120.81467649375001,64.0,113.0
226,120.81467649375001,121.12079799375002,65.0,114.0
227,121.12079799375002,121.42564398750001,67.0,108.0
228,121.42691949375,121.73304099375001,67.0,113.0
229,121.73304099375001,122.03788698750002,69.0,119.0
230,122.03916249375001,122.34528399375002,69.0,119.0
231,122.34528399375002,122.65012998750001,67.0,100.0
232,122.65140549375,122.95752699375001,67.0,117.0
233,122.95752699375001,123.26237298750002,74.0,114.0
234,123.26364849375001,123.87589149375002,74.0,116.0
235,123.87589149375002,124.18201299375,72.0,114.0
236,124.18201299375,124.48813449375001,74.0,116.0
237,124.48813449375001,124.79425599375001,76.0,117.0
238,124.79425599375001,125.10037749375002,67.0,113.0
239,125.10037749375002,125.40649899375,72.0,113.0
240,125.40649899375,125.71262049375001,76.0,116.0
241,125.71262049375001,126.01874199375001,74.0,116.0
242,126.01874199375001,126.32486349375002,67.0,113.0
243,126.32486349375002,126.63098499375002,71.0,113.0
244,126.63098499375002,126.93710649375001,74.0,114.0
245,126.93710649375001,127.39501323750001,72.0,116.0
246,127.39628874375,127.85419548750001,72.0,114.0
247,127.85547099375002,128.1603169875,72.0,108.0
248,128.16159249375002,128.77255998750002,72.0,114.0
249,128.77383549375,129.07995699375002,72.0,114.0
250,129.07995699375002,129.39500703750002,67.0,114.0
251,129.38607849375,129.69219999375002,69.0,114.0
252,129.69219999375002,129.9970459875,72.0,108.0
253,129.99832149375,130.30444299375,72.0,108.0
254,130.30444299375,130.61056449375002,69.0,102.0
255,130.61056449375002,130.91541048750003,67.0,116.0
256,130.91668599375,131.22280749375003,67.0,114.0
257,131.22280749375003,131.52892899375001,72.0,110.0
258,131.52892899375001,131.83505049375,76.0,116.0
259,131.83505049375,132.14117199375002,77.0,114.0
260,132.14117199375002,132.47535463125,76.0,110.0
261,132.44729349375,132.75341499375,74.0,116.0
262,132.75341499375,133.05953649375002,72.0,108.0
263,133.05953649375002,133.67177949375002,74.0,119.0
264,133.67177949375002,133.97790099375,72.0,110.0
265,133.97790099375,134.28402249375,74.0,104.0
266,134.28402249375,134.5888684875,76.0,116.0
267,134.59014399375002,134.89498998750003,76.0,110.0
268,134.89626549375,135.20238699375003,76.0,116.0
269,135.20238699375003,135.5072329875,68.0,119.0
270,135.50850849375,135.81335448750002,68.0,116.0
271,135.81462999375,136.12075149375002,68.0,116.0
272,136.12075149375002,136.42687299375,69.0,108.0
273,136.42687299375,136.73299449375,71.0,107.0
274,136.73299449375,137.19217674375003,74.0,117.0
275,137.19217674375003,137.65135899375002,76.0,116.0
276,137.65135899375002,137.95748049375,74.0,113.0
277,137.95748049375,138.5684479875,72.0,114.0
278,138.56972349375002,138.87584499375,72.0,114.0
279,138.87584499375,139.18069098750001,79.0,116.0
280,139.18196649375002,139.64114874375002,79.0,119.0
281,139.64114874375002,140.10033099375002,77.0,116.0
282,140.10033099375002,140.40645249375,76.0,114.0
283,140.40645249375,141.01869549375002,72.0,116.0
284,141.01869549375002,141.32481699375,69.0,114.0
285,141.32481699375,141.63093849375002,76.0,116.0
286,141.63093849375002,141.93705999375,77.0,117.0
287,141.93705999375,142.24318149375,76.0,117.0
288,142.24318149375,142.54930299375002,74.0,113.0
289,142.54930299375002,142.85542449375,72.0,114.0
290,142.85542449375,143.46766749375,74.0,116.0
291,143.46766749375,143.77378899375,72.0,114.0
292,143.77378899375,144.07991049375002,74.0,116.0
293,144.07991049375002,144.38603199375,76.0,117.0
294,144.38603199375,144.69215349375003,67.0,113.0
295,144.69215349375003,144.99827499375002,72.0,113.0
296,144.99827499375002,145.30439649375,76.0,116.0
297,145.30439649375,145.61051799375002,74.0,116.0
298,145.61051799375002,145.91663949375,67.0,113.0
299,145.91663949375,146.22276099375,71.0,113.0
300,146.22276099375,146.52888249375002,74.0,114.0
301,146.52888249375002,146.9867892375,72.0,116.0
302,146.98806474375002,147.4459714875,72.0,114.0
303,147.44724699375,147.75209298750002,72.0,108.0
304,147.75336849375,148.36433598750003,72.0,114.0
305,148.36561149375,148.67173299375003,72.0,114.0
306,148.67173299375003,148.9867830375,67.0,114.0
307,148.97785449375002,149.28397599375,69.0,114.0
308,149.28397599375,149.5888219875,72.0,108.0
309,149.59009749375002,149.89621899375,72.0,108.0
310,149.89621899375,150.20234049375,69.0,102.0
311,150.20234049375,150.5071864875,67.0,116.0
312,150.50846199375002,150.81458349375,67.0,114.0
313,150.81458349375,151.12070499375002,72.0,110.0
314,151.12070499375002,151.42682649375,76.0,116.0
315,151.42682649375,151.73294799375,77.0,114.0
316,151.73294799375,152.06713063125002,76.0,110.0
317,152.03906949375002,152.34519099375,74.0,116.0
318,152.34519099375,152.65131249375003,72.0,108.0
319,152.65131249375003,153.26355549375,74.0,119.0
320,153.26355549375,153.56967699375002,72.0,110.0
321,153.56967699375002,153.87579849375,74.0,104.0
322,153.87579849375,154.18064448750002,76.0,116.0
323,154.18191999375003,154.4867659875,76.0,110.0
324,154.48804149375002,154.79416299375,76.0,116.0
325,154.79416299375,155.0990089875,68.0,119.0
326,155.10028449375002,155.4051304875,68.0,116.0
327,155.40640599375,155.71252749375,68.0,116.0
328,155.71252749375,156.01864899375002,69.0,108.0
329,156.01864899375002,156.32477049375,71.0,107.0
330,156.32477049375,156.78395274375,74.0,117.0
331,156.78395274375,157.24313499375,76.0,116.0
332,157.24313499375,157.54925649375002,74.0,113.0
333,157.54925649375002,158.16022398750002,72.0,114.0
334,158.16149949375003,158.46762099375002,72.0,114.0
335,158.46762099375002,158.77246698750002,79.0,116.0
336,158.77374249375,159.23292474375,79.0,119.0
337,159.23292474375,159.69210699375,77.0,116.0
338,159.69210699375,159.99822849375002,76.0,114.0
339,159.99822849375002,160.91659299375002,72.0,116.0
340,160.91659299375002,161.22271449375,67.0,110.0
341,161.22271449375,161.53393801875,79.0,114.0
342,161.52883599375002,161.83368198750003,77.0,114.0
343,161.83495749375,162.14107899375003,77.0,110.0
344,162.14107899375003,162.44720049375002,76.0,116.0
345,162.44720049375002,162.90638274375002,72.0,117.0
346,162.90638274375002,163.36556499375,67.0,117.0
347,163.36556499375,163.97780799375002,74.0,116.0
348,163.97780799375002,164.50586758125002,72.0,117.0
349,177.75327549375,178.05939699375003,72.0,114.0
350,178.05939699375003,178.36551849375002,74.0,116.0
351,178.36551849375002,178.67163999375,76.0,117.0
352,178.67163999375,178.97776149375002,67.0,113.0
353,178.97776149375002,179.28388299375,72.0,113.0
354,179.28388299375,179.59000449375003,76.0,116.0
355,179.59000449375003,179.89612599375002,74.0,116.0
356,179.89612599375002,180.20224749375,67.0,113.0
357,180.20224749375,180.50836899375003,71.0,113.0
358,180.50836899375003,180.81449049375001,74.0,114.0
359,180.81449049375001,181.27239723750003,72.0,116.0
360,181.27367274375,181.73157948750003,72.0,114.0
361,181.73285499375,182.03770098750002,72.0,108.0
362,182.03897649375003,182.64994398750002,72.0,114.0
363,182.65121949375,182.95734099375002,72.0,114.0
364,182.95734099375002,183.27239103750003,67.0,114.0
365,183.26346249375,183.56958399375003,69.0,114.0
366,183.56958399375003,183.8744299875,72.0,108.0
367,183.87570549375002,184.18182699375,72.0,108.0
368,184.18182699375,184.48794849375003,69.0,102.0
369,184.48794849375003,184.7927944875,67.0,116.0
370,184.79406999375,185.10019149375003,67.0,114.0
371,185.10019149375003,185.40631299375002,72.0,110.0
372,185.40631299375002,185.71243449375,76.0,116.0
373,185.71243449375,186.01728048750002,77.0,114.0
374,186.01855599375003,186.32467749375002,77.0,110.0
375,186.32467749375002,186.63079899375,79.0,116.0
376,186.63079899375,186.93692049375002,76.0,108.0
377,186.93692049375002,187.54916349375003,74.0,119.0
378,187.54916349375003,187.85528499375002,72.0,110.0
379,187.85528499375002,188.16140649375,74.0,104.0
380,188.16140649375,188.46625248750001,76.0,116.0
381,188.46752799375002,188.77237398750003,76.0,110.0
382,188.77364949375,189.07977099375003,76.0,116.0
383,189.07977099375003,189.3846169875,68.0,119.0
384,189.38589249375002,189.69073848750003,68.0,116.0
385,189.69201399375,189.99813549375003,68.0,116.0
386,189.99813549375003,190.30425699375002,69.0,108.0
387,190.30425699375002,190.61037849375,71.0,107.0
388,190.61037849375,191.06956074375003,74.0,117.0
389,191.06956074375003,191.52874299375003,76.0,116.0
390,191.52874299375003,191.83486449375002,74.0,113.0
391,191.83486449375002,192.44583198750001,72.0,114.0
392,192.44710749375002,192.75322899375,72.0,114.0
393,192.75322899375,193.05807498750002,79.0,116.0
394,193.05935049375003,193.51853274375003,79.0,119.0
395,193.51853274375003,193.97771499375003,77.0,116.0
396,193.97771499375003,194.28383649375002,76.0,114.0
397,194.28383649375002,194.89607949375002,72.0,116.0
398,194.89607949375002,195.20220099375,69.0,114.0
399,195.20220099375,195.50832249375003,76.0,116.0
400,195.50832249375003,195.81444399375002,77.0,117.0
401,195.81444399375002,196.12056549375,76.0,117.0
402,196.12056549375,196.42668699375002,74.0,113.0
403,196.42668699375002,196.73280849375,72.0,114.0
404,196.73280849375,197.34505149375002,74.0,116.0
405,197.34505149375002,197.65117299375,72.0,114.0
406,197.65117299375,197.95729449375003,74.0,116.0
407,197.95729449375003,198.26341599375002,76.0,117.0
408,198.26341599375002,198.56953749375,67.0,113.0
409,198.56953749375,198.87565899375002,72.0,113.0
410,198.87565899375002,199.18178049375,76.0,116.0
411,199.18178049375,199.48790199375003,74.0,116.0
412,199.48790199375003,199.79402349375002,67.0,113.0
413,199.79402349375002,200.10014499375,71.0,113.0
414,200.10014499375,200.40626649375002,74.0,114.0
415,200.40626649375002,200.8641732375,72.0,116.0
416,200.86544874375002,201.3233554875,72.0,114.0
417,201.32463099375002,201.62947698750003,72.0,108.0
418,201.63075249375,202.2417199875,72.0,114.0
419,202.24299549375002,202.54911699375003,72.0,114.0
420,202.54911699375003,202.8641670375,67.0,114.0
421,202.85523849375002,203.16135999375,69.0,114.0
422,203.16135999375,203.46620598750002,72.0,108.0
423,203.46748149375003,203.77360299375002,72.0,108.0
424,203.77360299375002,204.07972449375,69.0,102.0
425,204.07972449375,204.3845704875,67.0,116.0
426,204.38584599375002,204.69196749375,67.0,114.0
427,204.69196749375,204.99808899375003,72.0,110.0
428,204.99808899375003,205.30421049375002,76.0,116.0
429,205.30421049375002,205.61033199375,77.0,114.0
430,205.61033199375,205.94451463125003,76.0,110.0
431,205.91645349375003,206.22257499375002,74.0,116.0
432,206.22257499375002,206.52869649375003,72.0,108.0
433,206.52869649375003,207.14093949375,74.0,119.0
434,207.14093949375,207.44706099375003,72.0,110.0
435,207.44706099375003,207.75318249375002,74.0,104.0
436,207.75318249375002,208.05802848750002,76.0,116.0
437,208.05930399375,208.3641499875,76.0,110.0
438,208.36542549375002,208.67154699375,76.0,116.0
439,208.67154699375,208.97639298750002,68.0,119.0
440,208.97766849375003,209.2825144875,68.0,116.0
441,209.28378999375002,209.58991149375,68.0,116.0
442,209.58991149375,209.89603299375003,69.0,108.0
443,209.89603299375003,210.20215449375002,71.0,107.0
444,210.20215449375002,210.66133674375,74.0,117.0
445,210.66133674375,211.12051899375,76.0,116.0
446,211.12051899375,211.42664049375003,74.0,113.0
447,211.42664049375003,212.03760798750002,72.0,114.0
448,212.03888349375,212.34500499375002,72.0,114.0
449,212.34500499375002,212.64985098750003,79.0,116.0
450,212.65112649375,213.11030874375,79.0,119.0
451,213.11030874375,213.56949099375,77.0,116.0
452,213.56949099375,213.87561249375003,76.0,114.0
453,213.87561249375003,214.79397699375002,72.0,116.0
454,214.79397699375002,215.10009849375,67.0,110.0
455,215.10009849375,215.41132201875,79.0,114.0
456,215.40621999375003,215.7110659875,77.0,114.0
457,215.71234149375002,216.01846299375,77.0,110.0
458,216.01846299375,216.32458449375002,76.0,116.0
459,216.32458449375002,216.78376674375002,72.0,117.0
460,216.78376674375002,217.24294899375002,67.0,117.0
461,217.24294899375002,217.85519199375003,74.0,116.0
462,217.85519199375003,218.38325158125002,72.0,117.0
