,start,end,pitch,velocity
0,0.8150484937500001,1.6479540750000001,48.0,38.0
1,1.1211699937500001,1.9336674750000002,55.0,78.0
2,1.42729149375,1.9591776000000003,60.0,90.0
3,1.7334129937500002,2.0624936062500003,64.0,86.0
4,2.03953449375,2.97575608125,50.0,87.0
5,2.65177749375,3.2525409375000005,62.0,89.0
6,2.3456559937500003,3.27932656875,57.0,81.0
7,2.95789899375,3.3201427687500003,65.0,86.0
8,3.2640204937500004,4.234680750000001,52.0,84.0
9,3.8762634937500002,4.2474358125,64.0,88.0
10,3.5701419937500005,4.5025370625,59.0,81.0
11,4.18238499375,4.511465606250001,67.0,89.0
12,5.10074949375,5.462993268750001,65.0,84.0
13,4.48850649375,5.51656453125,53.0,89.0
14,4.794627993750001,5.711716987500001,60.0,71.0
15,5.40687099375,5.72447205,69.0,85.0
16,6.32523549375,6.64921408125,67.0,91.0
17,6.631356993750001,6.94513153125,69.0,87.0
18,6.9374784937500005,7.4553340312500005,71.0,87.0
19,6.0191139937500004,7.818853312500001,62.0,76.0
20,5.712992493750001,7.834159387500001,55.0,86.0
21,8.774207493750001,10.266549806250001,65.0,86.0
22,8.46808599375,10.280580375000001,60.0,78.0
23,8.16196449375,10.325223093750001,53.0,88.0
24,9.69257199375,10.3698658125,72.0,86.0
25,9.080328993750001,10.391549418750001,77.0,90.0
26,10.610936493750001,11.45914815,48.0,100.0
27,10.917057993750001,11.508892893750001,55.0,87.0
28,11.223179493750001,11.622412950000001,60.0,94.0
29,11.52930099375,11.826493950000001,64.0,104.0
30,12.447665493750002,12.747409462500002,57.0,87.0
31,11.83542249375,12.779297118750002,42.0,86.0
32,12.753786993750001,12.977000587500001,60.0,91.0
33,12.141543993750002,12.998684193750002,54.0,86.0
34,13.059908493750001,13.941283312500001,41.0,91.0
35,13.672151493750002,14.145364312500002,53.0,87.0
36,13.36602999375,14.188731525000001,48.0,83.0
37,13.978272993750002,14.23592525625,57.0,86.0
38,15.508880493750002,16.2040314,67.0,83.0
39,14.896637493750001,16.2116844375,55.0,83.0
40,15.20275899375,16.223163993750003,59.0,71.0
41,14.284394493750002,16.256327156250002,43.0,88.0
42,14.590515993750001,16.256327156250002,50.0,82.0
43,17.03948799375,18.709125675000003,55.0,79.0
44,16.73336649375,18.742288837500002,48.0,86.0
45,17.65173099375,19.186165012500002,60.0,72.0
46,17.34560949375,19.22315469375,64.0,83.0
47,17.804791743750002,19.232083237500003,67.0,65.0
48,19.182338493750002,20.1096315375,41.0,77.0
49,19.947642243750003,20.3290186125,57.0,75.0
50,19.79458149375,20.418304050000003,53.0,78.0
51,19.488459993750002,20.423406075000003,48.0,64.0
52,20.10070299375,20.503762968750003,67.0,71.0
53,20.40682449375,21.357076650000003,43.0,82.0
54,20.71294599375,21.381311268750004,50.0,79.0
55,21.01906749375,21.527994487500003,55.0,76.0
56,21.32518899375,21.636412518750003,59.0,78.0
57,22.243553493750003,23.5841105625,60.0,75.0
58,21.937431993750003,23.628753281250003,55.0,70.0
59,21.631310493750004,23.711661187500003,48.0,73.0
60,22.549674993750003,24.048394837500002,67.0,81.0
61,22.549674993750003,24.090486543750004,62.0,77.0
62,24.08028249375,25.0483917375,41.0,82.0
63,24.69252549375,25.302217481250004,53.0,84.0
64,24.38640399375,25.337931656250003,48.0,77.0
65,24.998646993750004,25.395329437500003,67.0,78.0
66,24.998646993750004,25.397880450000002,57.0,81.0
67,25.304768493750004,26.2371635625,43.0,79.0
68,25.610889993750003,26.26650020625,50.0,78.0
69,25.917011493750003,26.311142925000002,55.0,83.0
70,26.223132993750003,26.420836462500002,67.0,81.0
71,26.223132993750003,26.45272411875,59.0,82.0
72,26.529254493750003,27.443792475000002,41.0,81.0
73,27.141497493750002,27.730781381250004,53.0,81.0
74,26.835375993750002,27.735883406250004,48.0,72.0
75,27.44761899375,27.799658718750003,57.0,86.0
76,27.75374049375,28.594299112500003,43.0,83.0
77,28.05986199375,28.642768350000004,50.0,75.0
78,28.365983493750004,28.742257837500002,55.0,79.0
79,28.519044243750002,28.850675868750002,59.0,83.0
80,29.590469493750003,29.845570743750002,64.0,86.0
81,29.284347993750004,29.897866500000003,59.0,77.0
82,28.978226493750004,29.927203143750003,52.0,85.0
83,29.896590993750003,30.221845087500004,67.0,84.0
84,30.202712493750003,31.103219906250004,45.0,86.0
85,30.508833993750002,31.127454525000005,52.0,83.0
86,30.814955493750002,31.414443431250003,57.0,84.0
87,31.121076993750002,31.559851143750002,60.0,83.0
88,31.121076993750002,31.637657025000003,69.0,83.0
89,32.039441493750004,32.7422454375,62.0,83.0
90,32.34556299375,33.17719306875,69.0,88.0
91,31.73331999375,33.424641281250004,57.0,74.0
92,31.42719849375,33.515202225,50.0,83.0
93,32.651684493750004,33.88892555625,65.0,86.0
94,33.87617049375,35.6912158875,43.0,78.0
95,33.87617049375,35.77412379375,67.0,84.0
96,33.87617049375,35.818766512500005,59.0,78.0
97,36.93738549375001,37.23457845,60.0,82.0
98,36.32514249375,37.36595559375,48.0,84.0
99,36.631263993750004,37.41952685625,55.0,78.0
100,37.24350699375,37.47309811875,64.0,82.0
101,37.24350699375,37.47820014375,72.0,83.0
102,38.774114493750005,39.73329519375,41.0,83.0
103,39.386357493750005,39.994773975,53.0,86.0
104,39.08023599375,39.998600493750004,48.0,74.0
105,39.69247899375,40.055998275,57.0,85.0
106,39.998600493750004,40.91441398125001,43.0,83.0
107,40.30472199375,40.942475118750004,50.0,81.0
108,40.610843493750004,41.249872125,55.0,85.0
109,40.91696499375001,41.307269906250006,59.0,83.0
110,41.83532949375,43.080223593750006,60.0,83.0
111,41.529207993750006,43.0891521375,55.0,76.0
112,41.22308649375,43.170784537500005,48.0,84.0
113,42.141450993750006,43.585324068750005,64.0,77.0
114,43.67205849375,44.682259443750006,41.0,86.0
115,44.28430149375001,44.899095506250006,53.0,85.0
116,43.978179993750004,44.9590443,48.0,77.0
117,44.59042299375,45.00623803125001,57.0,89.0
118,44.89654449375001,45.837868106250006,43.0,84.0
119,45.508787493750006,45.885061837500004,55.0,85.0
120,45.20266599375,45.93990860625001,50.0,81.0
121,45.81490899375,46.131234543750004,59.0,87.0
122,46.121030493750006,47.07383366250001,41.0,87.0
123,46.733273493750005,47.350618518750004,53.0,83.0
124,46.42715199375,47.393985731250005,48.0,79.0
125,47.03939499375,47.40801630000001,57.0,88.0
126,47.957759493750004,48.19755466875,55.0,87.0
127,47.65163799375001,48.20265669375001,50.0,86.0
128,47.345516493750004,48.23964637500001,43.0,83.0
129,48.26388099375001,49.257500362500004,59.0,91.0
130,48.57000249375,49.42459168125001,40.0,88.0
131,48.87612399375001,49.461581362500006,47.0,74.0
132,49.18224549375,49.78428444375,52.0,88.0
133,49.488366993750006,49.851886275000005,67.0,91.0
134,49.79448849375,50.691169387500004,64.0,92.0
135,50.100609993750005,50.705199956250006,52.0,80.0
136,49.79448849375,50.71667951250001,45.0,80.0
137,50.40673149375,50.74091413125001,57.0,86.0
138,51.63121749375001,52.341674475000005,58.0,93.0
139,51.937338993750004,52.6324899,62.0,88.0
140,51.937338993750004,52.643969456250005,70.0,89.0
141,52.24346049375001,52.66437755625,65.0,92.0
142,52.54958199375,52.90927475625001,58.0,90.0
143,51.325095993750004,53.187335118750006,53.0,85.0
144,51.01897449375001,53.200090181250005,46.0,103.0
145,52.855703493750006,53.224324800000005,62.0,108.0
146,52.855703493750006,53.32253878125,70.0,113.0
147,53.16182499375,53.331467325000006,58.0,93.0
148,53.467946493750006,54.170750437500004,67.0,107.0
149,53.467946493750006,54.173301450000004,72.0,90.0
150,53.467946493750006,54.1835055,64.0,93.0
151,54.080189493750005,54.47176991250001,60.0,87.0
152,54.38631099375001,55.058502787500004,67.0,110.0
153,54.38631099375001,55.085288418750004,72.0,92.0
154,54.38631099375001,55.096767975000006,64.0,104.0
155,54.99855399375001,55.41819555000001,60.0,88.0
156,53.77406799375,55.49089940625001,55.0,78.0
157,53.467946493750006,55.567429781250006,48.0,84.0
158,55.304675493750004,55.650337687500006,64.0,107.0
159,55.304675493750004,55.66691926875001,67.0,110.0
160,55.304675493750004,55.689878381250004,72.0,94.0
161,56.52916149375,56.78808926250001,64.0,80.0
162,56.52916149375,56.84166052500001,60.0,94.0
163,55.91691849375,56.86079311875,48.0,96.0
164,56.22303999375001,57.168190125,55.0,83.0
165,56.835282993750006,57.19114923750001,72.0,92.0
166,57.14140449375,57.79063717500001,71.0,88.0
167,57.14140449375,57.899055206250004,62.0,91.0
168,57.75364749375001,58.011299756250004,59.0,87.0
169,57.447525993750006,58.04191190625001,55.0,81.0
170,57.14140449375,58.21027873125001,47.0,88.0
171,58.059768993750005,58.354410937500006,71.0,87.0
172,58.36589049375001,58.86333793125001,62.0,86.0
173,58.36589049375001,59.022776212500005,69.0,87.0
174,58.97813349375001,59.242163287500006,57.0,86.0
175,58.36589049375001,59.30466309375001,45.0,84.0
176,58.672011993750004,59.615886618750004,52.0,80.0
177,59.284254993750004,59.6503252875,60.0,86.0
178,59.284254993750004,59.6554273125,69.0,87.0
179,60.20261949375001,60.429659606250006,55.0,89.0
180,59.89649799375,60.444965681250004,52.0,81.0
181,59.59037649375001,60.814862493750006,43.0,87.0
182,60.50874099375,60.95771919375001,67.0,88.0
183,60.814862493750006,61.50873789375001,65.0,71.0
184,60.814862493750006,61.52659498125001,57.0,83.0
185,60.814862493750006,61.536799031250005,60.0,80.0
186,61.427105493750005,61.76001262500001,53.0,87.0
187,61.12098399375001,61.809757368750006,48.0,81.0
188,60.814862493750006,61.822512431250004,41.0,88.0
189,61.73322699375001,61.88501223750001,57.0,84.0
190,61.73322699375001,61.974297675,60.0,86.0
191,61.73322699375001,61.98195071250001,65.0,87.0
192,62.039348493750005,62.89393768125001,40.0,89.0
193,62.34546999375001,62.943682425000006,47.0,83.0
194,62.651591493750004,63.004906725000005,52.0,102.0
195,62.95771299375001,63.18220209375001,59.0,88.0
196,62.95771299375001,63.29572215,67.0,88.0
197,62.95771299375001,63.30592620000001,64.0,90.0
198,63.87607749375,64.10821963125001,62.0,104.0
199,63.56995599375001,64.1554133625,57.0,80.0
200,63.263834493750004,64.20515810625001,50.0,91.0
201,64.18219899375,64.423269675,65.0,113.0
202,64.18219899375,64.71536060625,74.0,100.0
203,64.48832049375001,64.78041142500001,71.0,86.0
204,64.48832049375001,64.7880644625,67.0,92.0
205,65.10056349375,65.2523487375,59.0,92.0
206,65.10056349375,65.34163417500001,67.0,94.0
207,64.48832049375001,65.38500138750001,43.0,85.0
208,64.79444199375001,65.4207155625,50.0,85.0
209,65.10056349375,65.60183745,55.0,100.0
210,65.40668499375,65.66816377500001,62.0,91.0
211,65.71280649375001,65.97556078125001,60.0,90.0
212,65.71280649375001,66.37989626250001,64.0,98.0
213,65.71280649375001,66.392651325,67.0,91.0
214,66.32504949375,66.56612017500001,60.0,93.0
215,65.71280649375001,66.637548525,48.0,86.0
216,66.63117099375,66.89392528125,67.0,98.0
217,66.01892799375001,66.95642508750001,55.0,76.0
218,66.93729249375001,67.58524966875001,67.0,83.0
219,66.93729249375001,67.60820878125001,71.0,91.0
220,66.63117099375,67.64264745000001,64.0,96.0
221,67.54953549375,67.81866731250001,59.0,88.0
222,67.24341399375001,67.85693250000001,55.0,78.0
223,66.93729249375001,67.96535053125001,47.0,87.0
224,67.85565699375,67.99341166875,71.0,91.0
225,68.16177849375,68.83014376875,69.0,90.0
226,68.16177849375,68.83524579375,60.0,89.0
227,67.85565699375,68.93728629375,64.0,93.0
228,68.77402149375001,69.05973489375,57.0,88.0
229,68.16177849375,69.1196836875,45.0,86.0
230,68.46789999375001,69.38498898750001,52.0,78.0
231,69.08014299375,69.44493778125,69.0,88.0
232,69.08014299375,69.47682543750001,64.0,89.0
233,69.08014299375,69.494682525,60.0,86.0
234,69.69238599375001,70.2013129875,52.0,84.0
235,69.99850749375001,70.25360874375001,55.0,102.0
236,69.38626449375,70.61075049375,43.0,91.0
237,70.30462899375,71.21406495000001,67.0,100.0
238,70.61075049375,71.31227893125,65.0,74.0
239,70.61075049375,71.31738095625,57.0,83.0
240,70.61075049375,71.34926861250001,60.0,79.0
241,70.61075049375,71.586512775,41.0,88.0
242,71.52911499375001,71.7140634,57.0,86.0
243,71.22299349375001,71.8798792125,53.0,87.0
244,70.91687199375001,71.97554218125,48.0,81.0
245,71.52911499375001,72.05717458125001,65.0,93.0
246,71.52911499375001,72.22809241875001,60.0,94.0
247,71.83523649375,72.7217133375,52.0,91.0
248,72.14135799375,72.75104998125,59.0,86.0
249,72.75360099375001,73.04186540625001,71.0,102.0
250,72.44747949375001,73.56354746250001,62.0,89.0
251,73.05972249375,73.72936327500001,69.0,87.0
252,73.05972249375,73.7421183375,65.0,88.0
253,73.67196549375001,73.87859750625,62.0,91.0
254,73.36584399375,73.91431168125001,57.0,54.0
255,73.05972249375,74.00104610625,50.0,87.0
256,73.97808699375001,74.2880350125,69.0,87.0
257,73.97808699375001,74.30589210000001,65.0,92.0
258,74.28420849375,75.17961388125,43.0,89.0
259,74.59032999375,75.20002198125,50.0,86.0
260,75.20257299375001,75.36711330000001,59.0,89.0
261,74.89645149375,75.49976595000001,55.0,93.0
262,75.50869449375001,75.84287713125,60.0,88.0
263,75.50869449375001,76.19491685625,64.0,98.0
264,75.50869449375001,76.2038454,67.0,100.0
265,76.12093749375,76.34415108750001,60.0,88.0
266,75.50869449375001,76.39644684375001,48.0,83.0
267,76.42705899375001,76.657925625,67.0,91.0
268,76.42705899375001,76.7114968875,64.0,96.0
269,75.81481599375,76.74083353125,55.0,78.0
270,76.73318049375001,77.413025325,71.0,88.0
271,76.73318049375001,77.4921067125,62.0,100.0
272,77.34542349375,77.56736158125001,59.0,84.0
273,77.03930199375,77.5788411375,55.0,77.0
274,76.73318049375001,77.66557556250001,47.0,85.0
275,77.65154499375001,77.7982282125,71.0,100.0
276,77.95766649375001,78.6859805625,69.0,100.0
277,78.56990949375,78.8135311875,57.0,87.0
278,77.95766649375001,78.85944941250001,60.0,96.0
279,77.95766649375001,78.86072491875001,45.0,84.0
280,78.87603099375,79.1553668625,69.0,98.0
281,78.26378799375001,79.18215249375001,52.0,84.0
282,79.79439549375,80.00995605000001,55.0,84.0
283,79.48827399375001,80.0227111125,52.0,82.0
284,79.79439549375,80.086486425,62.0,96.0
285,79.18215249375001,80.2778123625,43.0,86.0
286,79.18215249375001,80.34541419375,67.0,104.0
287,80.40663849375001,81.06735073125,65.0,92.0
288,80.40663849375001,81.1196464875,57.0,84.0
289,80.40663849375001,81.20127888750001,60.0,91.0
290,81.01888149375,81.290564325,53.0,90.0
291,80.71275999375001,81.36071716875001,48.0,81.0
292,80.40663849375001,81.39388033125,41.0,87.0
293,81.32500299375,81.4716862125,57.0,86.0
294,81.32500299375,81.54183905625001,65.0,87.0
295,81.32500299375,81.5788287375,60.0,76.0
296,81.63112449375001,82.0022968125,64.0,88.0
297,81.63112449375001,82.42704039375,40.0,85.0
298,82.24336749375001,82.57499911875001,60.0,102.0
299,81.93724599375001,82.62346835625,52.0,88.0
300,82.54948899375,83.17448705625,69.0,92.0
301,82.85561049375,83.28928261875001,62.0,90.0
302,82.85561049375,83.29310913750001,65.0,90.0
303,83.16173199375001,83.53800633750001,57.0,84.0
304,83.77397499375,83.83775030625,57.0,86.0
305,82.85561049375,83.87346448125001,50.0,86.0
306,83.46785349375001,83.89132156875,69.0,113.0
307,84.08009649375,84.54438076875,59.0,93.0
308,84.08009649375,84.54438076875,67.0,93.0
309,83.46785349375001,84.57244190625,62.0,113.0
310,84.69233949375001,84.87218587500001,59.0,107.0
311,84.84540024375,84.97550188125001,62.0,113.0
312,84.08009649375,84.9869814375,43.0,91.0
313,84.38621799375001,85.02907314375001,50.0,87.0
314,84.99846099375,85.21912357500001,67.0,110.0
315,84.53927874375,85.24973572500001,55.0,100.0
316,85.30458249375,85.52141855625001,60.0,96.0
317,85.30458249375,85.6119795,64.0,108.0
318,85.30458249375,85.62856108125001,67.0,91.0
319,85.61070399375001,85.95253966875,55.0,81.0
320,85.91682549375001,86.22549800625,60.0,87.0
321,85.91682549375001,86.22932452500001,64.0,92.0
322,85.30458249375,86.29309983750001,48.0,87.0
323,85.91682549375001,86.44998710625,72.0,104.0
324,86.22294699375001,86.54054805000001,55.0,81.0
325,86.52906849375,87.00355681875001,62.0,94.0
326,86.52906849375,87.02651593125,71.0,93.0
327,86.83518999375,87.17192364375,55.0,80.0
328,87.14131149375001,87.44233096875001,59.0,86.0
329,87.14131149375001,87.46529008125,71.0,100.0
330,87.14131149375001,87.474218625,62.0,102.0
331,86.52906849375,87.57370811250001,47.0,85.0
332,87.75355449375,88.45253191875001,69.0,102.0
333,87.75355449375,88.49334811875,60.0,92.0
334,87.75355449375,88.53926634375001,64.0,102.0
335,88.05967599375,88.59028659375001,52.0,78.0
336,88.36579749375001,88.66681696875001,57.0,86.0
337,87.75355449375,88.72676576250001,45.0,87.0
338,88.67191899375001,88.923193725,69.0,110.0
339,88.97804049375002,89.55201830625,67.0,102.0
340,89.59028349375001,89.6400282375,55.0,68.0
341,89.28416199375,89.70763006875,52.0,78.0
342,89.59028349375001,89.92574163750001,62.0,91.0
343,89.59028349375001,89.9384967,67.0,83.0
344,89.89640499375001,89.99461897500001,55.0,88.0
345,88.97804049375002,90.04436371875,43.0,88.0
346,90.20252649375001,90.80328993750001,57.0,88.0
347,90.20252649375001,90.892575375,65.0,92.0
348,90.20252649375001,91.0685952375,60.0,89.0
349,91.12089099375001,91.2981863625,57.0,86.0
350,91.12089099375001,91.35303313125002,65.0,86.0
351,91.12089099375001,91.39895135625001,60.0,80.0
352,90.81476949375,91.63874653125,53.0,85.0
353,91.42701249375001,91.63874653125,53.0,81.0
354,90.50864799375,91.65787912500001,48.0,79.0
355,90.20252649375001,91.70507285625001,41.0,89.0
356,91.42701249375001,91.70507285625001,41.0,81.0
357,91.42701249375001,92.54052945000001,65.0,88.0
358,91.42701249375001,92.54180495625,60.0,80.0
359,91.42701249375001,92.5507335,68.0,84.0
360,93.56986299375001,94.43082971250001,59.0,84.0
361,93.87598449375001,94.51628863125,67.0,100.0
362,92.65149849375001,94.6042985625,43.0,84.0
363,92.95761999375001,94.66934938125002,50.0,84.0
364,93.26374149375,95.106848025,55.0,86.0
365,94.48822749375,95.10939903750001,62.0,88.0
366,95.10047049375001,95.28924541875001,60.0,78.0
367,95.10047049375001,95.55965274375001,64.0,83.0
368,94.79434899375,95.72801956875001,67.0,83.0
369,96.01883499375,96.21398745,64.0,83.0
370,95.71271349375002,96.22801801875,60.0,80.0
371,95.40659199375001,96.2522526375,55.0,76.0
372,95.10047049375001,96.29179333125,48.0,78.0
373,96.01883499375,96.65021058750001,72.0,86.0
374,96.32495649375001,97.26500460000001,50.0,90.0
375,96.93719949375001,97.46015705625001,62.0,93.0
376,96.63107799375001,97.51883034375001,57.0,83.0
377,97.24332099375,97.57622812500001,74.0,90.0
378,97.39638174375001,98.37341953125001,71.0,88.0
379,97.54944249375,98.50224566250002,52.0,75.0
380,98.16168549375001,98.52010275,64.0,86.0
381,98.46780699375,98.79178558125001,74.0,87.0
382,97.85556399375001,98.80071412500001,59.0,77.0
383,98.77392849375,99.60555856875001,65.0,82.0
384,98.77392849375,99.77137438125001,53.0,82.0
385,98.77392849375,99.8185681125,72.0,86.0
386,99.99841449375,100.95504418125,48.0,93.0
387,100.61065749375001,101.04432961875001,60.0,87.0
388,100.30453599375001,101.086421325,55.0,81.0
389,100.91677899375001,101.18463530625002,72.0,87.0
390,101.22290049375,102.17697916875001,43.0,88.0
391,101.52902199375,102.38998871250001,50.0,84.0
392,102.14126499375001,102.43208041875,59.0,84.0
393,101.83514349375001,102.43463143125001,55.0,88.0
394,102.14126499375001,102.47034560625,67.0,86.0
395,102.44738649375002,104.44738029375002,57.0,79.0
396,102.44738649375002,104.46013535625,41.0,76.0
397,102.44738649375002,104.48309446875001,53.0,76.0
398,102.44738649375002,104.49840054375001,65.0,79.0
399,105.50860149375,105.80579445000001,60.0,82.0
400,104.89635849375001,105.93717159375001,48.0,84.0
401,105.20247999375,105.99074285625001,55.0,78.0
402,105.81472299375001,106.04431411875001,64.0,82.0
403,105.81472299375001,106.04941614375001,72.0,83.0
404,107.34533049375001,108.30451119375002,41.0,83.0
405,107.95757349375,108.56598997500001,53.0,86.0
406,107.65145199375002,108.56981649375001,48.0,74.0
407,108.26369499375001,108.62721427500001,57.0,85.0
408,108.56981649375001,109.48562998125001,43.0,83.0
409,108.87593799375001,109.51369111875,50.0,81.0
410,109.18205949375,109.82108812500002,55.0,85.0
411,109.48818099375,109.87848590625,59.0,83.0
412,110.40654549375002,111.65143959375001,60.0,83.0
413,110.10042399375001,111.66036813750001,55.0,76.0
414,109.79430249375001,111.7420005375,48.0,84.0
415,110.71266699375,112.15654006875,64.0,77.0
416,112.24327449375001,113.25347544375,41.0,86.0
417,112.85551749375001,113.47031150625001,53.0,85.0
418,112.54939599375001,113.53026030000001,48.0,77.0
419,113.16163899375002,113.57745403125001,57.0,89.0
420,113.46776049375,114.40908410625,43.0,84.0
421,114.08000349375001,114.45627783750001,55.0,85.0
422,113.77388199375001,114.51112460625001,50.0,81.0
423,114.38612499375002,114.70245054375,59.0,87.0
424,114.69224649375,115.64504966250001,41.0,87.0
425,115.30448949375001,115.92183451875002,53.0,83.0
426,114.99836799375001,115.96520173125,48.0,79.0
427,115.61061099375002,115.9792323,57.0,88.0
428,116.52897549375001,116.76877066875001,55.0,87.0
429,116.22285399375001,116.77387269375001,50.0,86.0
430,115.91673249375,116.81086237500001,43.0,83.0
431,116.83509699375001,117.82871636250002,59.0,91.0
432,117.14121849375002,117.99580768125001,40.0,88.0
433,117.44733999375,118.0327973625,47.0,74.0
434,117.75346149375001,118.35550044375002,52.0,88.0
435,118.05958299375001,118.423102275,67.0,91.0
436,118.36570449375002,119.26238538750002,64.0,92.0
437,118.67182599375,119.27641595625,52.0,80.0
438,118.36570449375002,119.28789551250001,45.0,80.0
439,118.97794749375001,119.31213013125002,57.0,86.0
440,120.20243349375001,120.91289047500001,58.0,93.0
441,120.50855499375001,121.20370590000002,62.0,88.0
442,120.50855499375001,121.21518545625001,70.0,89.0
443,120.81467649375001,121.23559355625001,65.0,92.0
444,121.12079799375002,121.48049075625,58.0,90.0
445,119.89631199375002,121.75855111875,53.0,85.0
446,119.59019049375001,121.77130618125001,46.0,103.0
447,121.42691949375,121.79554080000001,62.0,108.0
448,121.42691949375,121.89375478125001,70.0,113.0
449,121.73304099375001,121.90268332500001,58.0,93.0
450,122.03916249375001,122.74196643750001,67.0,107.0
451,122.03916249375001,122.74451745000002,72.0,90.0
452,122.03916249375001,122.75472150000002,64.0,93.0
453,122.65140549375,123.04298591250001,60.0,87.0
454,122.95752699375001,123.62971878750001,67.0,110.0
455,122.95752699375001,123.65650441875002,72.0,92.0
456,122.95752699375001,123.66798397500001,64.0,104.0
457,123.56976999375001,123.98941155000001,60.0,88.0
458,122.34528399375002,124.06211540625002,55.0,78.0
459,122.03916249375001,124.13864578125,48.0,84.0
460,123.87589149375002,124.2215536875,64.0,107.0
461,123.87589149375002,124.23813526875001,67.0,110.0
462,123.87589149375002,124.26109438125002,72.0,94.0
463,125.10037749375002,125.35930526250002,64.0,80.0
464,125.10037749375002,125.41287652500002,60.0,94.0
465,124.48813449375001,125.43200911875002,48.0,96.0
466,124.79425599375001,125.73940612500002,55.0,83.0
467,125.40649899375,125.7623652375,72.0,92.0
468,125.71262049375001,126.36185317500001,71.0,88.0
469,125.71262049375001,126.47027120625002,62.0,91.0
470,126.32486349375002,126.58251575625002,59.0,87.0
471,126.01874199375001,126.61312790625001,55.0,81.0
472,125.71262049375001,126.78149473125,47.0,88.0
473,126.63098499375002,126.92562693750001,71.0,87.0
474,126.93710649375001,127.43455393125001,62.0,86.0
475,126.93710649375001,127.59399221250001,69.0,87.0
476,127.54934949375001,127.81337928750001,57.0,86.0
477,126.93710649375001,127.87587909375002,45.0,84.0
478,127.24322799375001,128.18710261875,52.0,80.0
479,127.85547099375002,128.2215412875,60.0,86.0
480,127.85547099375002,128.22664331250002,69.0,87.0
481,128.77383549375,129.00087560625002,55.0,89.0
482,128.46771399375,129.01618168125,52.0,81.0
483,128.16159249375002,129.38607849375,43.0,87.0
484,129.07995699375002,129.52893519375002,67.0,88.0
485,129.38607849375,130.07995389375,65.0,71.0
486,129.38607849375,130.09781098125,57.0,83.0
487,129.38607849375,130.10801503125,60.0,80.0
488,129.99832149375,130.33122862500002,53.0,87.0
489,129.69219999375002,130.38097336875,48.0,81.0
490,129.38607849375,130.39372843125003,41.0,88.0
491,130.30444299375,130.4562282375,57.0,84.0
492,130.30444299375,130.54551367500002,60.0,86.0
493,130.30444299375,130.5531667125,65.0,87.0
494,130.61056449375002,131.46515368125,40.0,89.0
495,130.91668599375,131.514898425,47.0,83.0
496,131.22280749375003,131.576122725,52.0,102.0
497,131.52892899375001,131.75341809375,59.0,88.0
498,131.52892899375001,131.86693815,67.0,88.0
499,131.52892899375001,131.8771422,64.0,90.0
500,132.44729349375,132.67943563125002,62.0,104.0
501,132.14117199375002,132.7266293625,57.0,80.0
502,131.83505049375,132.77637410625002,50.0,91.0
503,132.75341499375,132.99448567500002,65.0,113.0
504,132.75341499375,133.28657660625,74.0,100.0
505,133.05953649375002,133.351627425,71.0,86.0
506,133.05953649375002,133.3592804625,67.0,92.0
507,133.67177949375002,133.82356473750002,59.0,92.0
508,133.67177949375002,133.91285017500002,67.0,94.0
509,133.05953649375002,133.9562173875,43.0,85.0
510,133.36565799375,133.9919315625,50.0,85.0
511,133.67177949375002,134.17305345000003,55.0,100.0
512,133.97790099375,134.239379775,62.0,91.0
513,134.28402249375,134.54677678125,60.0,90.0
514,134.28402249375,134.9511122625,64.0,98.0
515,134.28402249375,134.96386732500002,67.0,91.0
516,134.89626549375,135.137336175,60.0,93.0
517,134.28402249375,135.20876452500002,48.0,86.0
518,135.20238699375003,135.46514128125003,67.0,98.0
519,134.59014399375002,135.5276410875,55.0,76.0
520,135.50850849375,136.15646566875,67.0,83.0
521,135.50850849375,136.17942478125002,71.0,91.0
522,135.20238699375003,136.21386345000002,64.0,96.0
523,136.12075149375002,136.38988331250002,59.0,88.0
524,135.81462999375,136.42814850000002,55.0,78.0
525,135.50850849375,136.53656653125,47.0,87.0
526,136.42687299375,136.56462766875,71.0,91.0
527,136.73299449375,137.40135976875,69.0,90.0
528,136.73299449375,137.40646179375003,60.0,89.0
529,136.42687299375,137.50850229375,64.0,93.0
530,137.34523749375,137.63095089375003,57.0,88.0
531,136.73299449375,137.6908996875,45.0,86.0
532,137.03911599375002,137.9562049875,52.0,78.0
533,137.65135899375002,138.01615378125,69.0,88.0
534,137.65135899375002,138.04804143750002,64.0,89.0
535,137.65135899375002,138.06589852500002,60.0,86.0
536,138.26360199375,138.7725289875,52.0,84.0
537,138.56972349375002,138.82482474375,55.0,102.0
538,137.95748049375,139.18196649375002,43.0,91.0
539,138.87584499375,139.78528095000001,67.0,100.0
540,139.18196649375002,139.88349493125003,65.0,74.0
541,139.18196649375002,139.88859695625,57.0,83.0
542,139.18196649375002,139.92048461250002,60.0,79.0
543,139.18196649375002,140.157728775,41.0,88.0
544,140.10033099375002,140.2852794,57.0,86.0
545,139.79420949375,140.4510952125,53.0,87.0
546,139.48808799375,140.54675818125003,48.0,81.0
547,140.10033099375002,140.62839058125002,65.0,93.0
548,140.10033099375002,140.79930841875,60.0,94.0
549,140.40645249375,141.29292933750003,52.0,91.0
550,140.71257399375003,141.32226598125,59.0,86.0
551,141.32481699375,141.61308140625002,71.0,102.0
552,141.01869549375002,142.13476346250002,62.0,89.0
553,141.63093849375002,142.30057927500002,69.0,87.0
554,141.63093849375002,142.3133343375,65.0,88.0
555,142.24318149375,142.44981350625002,62.0,91.0
556,141.93705999375,142.48552768125,57.0,54.0
557,141.63093849375002,142.57226210625,50.0,87.0
558,142.54930299375002,142.8592510125,69.0,87.0
559,142.54930299375002,142.87710810000002,65.0,92.0
560,142.85542449375,143.75082988125,43.0,89.0
561,143.16154599375002,143.77123798125,50.0,86.0
562,143.77378899375,143.93832930000002,59.0,89.0
563,143.46766749375,144.07098195,55.0,93.0
564,144.07991049375002,144.41409313125,60.0,88.0
565,144.07991049375002,144.76613285625,64.0,98.0
566,144.07991049375002,144.77506140000003,67.0,100.0
567,144.69215349375003,144.91536708750002,60.0,88.0
568,144.07991049375002,144.96766284375002,48.0,83.0
569,144.99827499375002,145.229141625,67.0,91.0
570,144.99827499375002,145.28271288750003,64.0,96.0
571,144.38603199375,145.31204953125,55.0,78.0
572,145.30439649375,145.98424132500003,71.0,88.0
573,145.30439649375,146.06332271250002,62.0,100.0
574,145.91663949375,146.13857758125002,59.0,84.0
575,145.61051799375002,146.15005713750003,55.0,77.0
576,145.30439649375,146.2367915625,47.0,85.0
577,146.22276099375,146.3694442125,71.0,100.0
578,146.52888249375002,147.2571965625,69.0,100.0
579,147.14112549375002,147.3847471875,57.0,87.0
580,146.52888249375002,147.43066541250002,60.0,96.0
581,146.52888249375002,147.43194091875,45.0,84.0
582,147.44724699375,147.7265828625,69.0,98.0
583,146.83500399375,147.75336849375,52.0,84.0
584,148.36561149375,148.58117205000002,55.0,84.0
585,148.05948999375002,148.5939271125,52.0,82.0
586,148.36561149375,148.65770242500002,62.0,96.0
587,147.75336849375,148.8490283625,43.0,86.0
588,147.75336849375,148.91663019375002,67.0,104.0
589,148.97785449375002,149.63856673125002,65.0,92.0
590,148.97785449375002,149.69086248750003,57.0,84.0
591,148.97785449375002,149.77249488750002,60.0,91.0
592,149.59009749375002,149.861780325,53.0,90.0
593,149.28397599375,149.93193316875002,48.0,81.0
594,148.97785449375002,149.96509633125,41.0,87.0
595,149.89621899375,150.04290221250002,57.0,86.0
596,149.89621899375,150.11305505625,65.0,87.0
597,149.89621899375,150.15004473750002,60.0,76.0
598,150.20234049375,150.5735128125,64.0,88.0
599,150.20234049375,150.99825639375,40.0,85.0
600,150.81458349375,151.14621511875,60.0,102.0
601,150.50846199375002,151.19468435625,52.0,88.0
602,151.12070499375002,151.74570305625002,69.0,92.0
603,151.42682649375,151.86049861875,62.0,90.0
604,151.42682649375,151.8643251375,65.0,90.0
605,151.73294799375,152.1092223375,57.0,84.0
606,152.34519099375,152.40896630625002,57.0,86.0
607,151.42682649375,152.44468048125,50.0,86.0
608,152.03906949375002,152.46253756875,69.0,113.0
609,152.65131249375003,153.11559676875,59.0,93.0
610,152.65131249375003,153.11559676875,67.0,93.0
611,152.03906949375002,153.14365790625,62.0,113.0
612,153.26355549375,153.443401875,59.0,107.0
613,153.41661624375,153.54671788125,62.0,113.0
614,152.65131249375003,153.5581974375,43.0,91.0
615,152.95743399375002,153.60028914375002,50.0,87.0
616,153.56967699375002,153.79033957500002,67.0,110.0
617,153.11049474375002,153.82095172500001,55.0,100.0
618,153.87579849375,154.09263455625,60.0,96.0
619,153.87579849375,154.1831955,64.0,108.0
620,153.87579849375,154.19977708125,67.0,91.0
621,154.18191999375003,154.52375566875003,55.0,81.0
622,154.48804149375002,154.79671400625003,60.0,87.0
623,154.48804149375002,154.800540525,64.0,92.0
624,153.87579849375,154.86431583750002,48.0,87.0
625,154.48804149375002,155.02120310625003,72.0,104.0
626,154.79416299375,155.11176405,55.0,81.0
627,155.10028449375002,155.57477281875,62.0,94.0
628,155.10028449375002,155.59773193125002,71.0,93.0
629,155.40640599375,155.74313964375003,55.0,80.0
630,155.71252749375,156.01354696875,59.0,86.0
631,155.71252749375,156.03650608125002,71.0,100.0
632,155.71252749375,156.045434625,62.0,102.0
633,155.10028449375002,156.1449241125,47.0,85.0
634,156.32477049375,157.02374791875002,69.0,102.0
635,156.32477049375,157.06456411875,60.0,92.0
636,156.32477049375,157.11048234375002,64.0,102.0
637,156.63089199375003,157.16150259375001,52.0,78.0
638,156.93701349375002,157.23803296875002,57.0,86.0
639,156.32477049375,157.2979817625,45.0,87.0
640,157.24313499375,157.49440972500003,69.0,110.0
641,157.54925649375002,158.12323430625003,67.0,102.0
642,158.16149949375003,158.2112442375,55.0,68.0
643,157.85537799375,158.27884606875003,52.0,78.0
644,158.16149949375003,158.4969576375,62.0,91.0
645,158.16149949375003,158.50971270000002,67.0,83.0
646,158.46762099375002,158.565834975,55.0,88.0
647,157.54925649375002,158.61557971875,43.0,88.0
648,158.77374249375,159.3745059375,57.0,88.0
649,158.77374249375,159.46379137500003,65.0,92.0
650,158.77374249375,159.63981123750003,60.0,89.0
651,159.69210699375,159.8694023625,57.0,86.0
652,159.69210699375,159.92424913125,65.0,86.0
653,159.69210699375,159.97016735625002,60.0,80.0
654,159.38598549375,160.20996253125003,53.0,85.0
655,159.99822849375002,160.20996253125003,53.0,81.0
656,159.07986399375002,160.22909512500001,48.0,79.0
657,158.77374249375,160.27628885625,41.0,89.0
658,159.99822849375002,160.27628885625,41.0,81.0
659,159.99822849375002,161.11174545000003,65.0,88.0
660,159.99822849375002,161.11302095625,60.0,80.0
661,159.99822849375002,161.12194950000003,68.0,84.0
662,162.14107899375003,163.0020457125,59.0,84.0
663,162.44720049375002,163.08750463125003,67.0,100.0
664,161.22271449375,163.1755145625,43.0,84.0
665,161.52883599375002,163.24056538125,50.0,84.0
666,161.83495749375,163.67806402500003,55.0,86.0
667,163.05944349375002,163.68061503750002,62.0,88.0
668,163.36556499375,164.29923556875002,67.0,83.0
669,164.28392949375,164.55178580625002,60.0,90.0
670,163.67168649375,164.59005099375003,48.0,89.0
671,163.97780799375002,164.90765205000002,55.0,80.0
672,164.59005099375003,165.54030315000003,71.0,88.0
673,165.20229399375,165.70611896250003,55.0,84.0
674,165.50841549375002,165.7341801,59.0,88.0
675,164.89617249375002,165.91147546875,47.0,87.0
676,165.81453699375,166.11938298750002,71.0,88.0
677,166.12065849375003,166.94846205000002,69.0,89.0
678,166.73290149375,166.97397217500003,57.0,85.0
679,166.12065849375003,167.03902299375002,45.0,84.0
680,166.42677999375002,167.32473639375002,52.0,81.0
681,167.03902299375002,167.33494044375,69.0,88.0
682,167.95738749375002,168.12958083750001,55.0,86.0
683,167.65126599375,168.14871343125,52.0,81.0
684,167.34514449375,168.15126444375002,67.0,87.0
685,167.34514449375,168.2316213375,43.0,85.0
686,168.26350899375,168.54029385,67.0,89.0
687,168.56963049375003,169.25712836250003,65.0,94.0
688,168.56963049375003,169.29666905625,57.0,81.0
689,168.56963049375003,169.34258728125002,60.0,82.0
690,169.18187349375,169.4867194875,53.0,85.0
691,168.87575199375001,169.4969235375,48.0,83.0
692,168.56963049375003,169.5173316375,41.0,85.0
693,169.48799499375002,169.70865757500002,60.0,74.0
694,169.79411649375,170.14615621875,64.0,86.0
695,169.79411649375,170.57472631875,40.0,84.0
696,170.10023799375003,170.73799111875002,52.0,84.0
697,170.40635949375002,170.76477675,60.0,96.0
698,170.71248099375,170.94589863750002,67.0,88.0
699,171.01860249375002,171.33747905625,62.0,86.0
700,171.01860249375002,171.45099911250003,65.0,91.0
701,171.63084549375003,173.02880034375002,62.0,84.0
702,171.32472399375,173.055585975,57.0,81.0
703,171.01860249375002,173.0887491375,50.0,76.0
704,172.24308849375,173.40379918125,74.0,87.0
705,171.93696699375002,173.4203807625,65.0,84.0
706,178.97776149375002,179.23668926250002,64.0,80.0
707,178.97776149375002,179.290260525,60.0,94.0
708,178.36551849375002,179.30939311875002,48.0,96.0
709,178.67163999375,179.61679012500002,55.0,83.0
710,179.28388299375,179.6397492375,72.0,92.0
711,179.59000449375003,180.23923717500003,71.0,88.0
712,179.59000449375003,180.34765520625,62.0,91.0
713,180.20224749375,180.45989975625002,59.0,87.0
714,179.89612599375002,180.49051190625002,55.0,81.0
715,179.59000449375003,180.65887873125,47.0,88.0
716,180.50836899375003,180.8030109375,71.0,87.0
717,180.81449049375001,181.31193793125001,62.0,86.0
718,180.81449049375001,181.47137621250002,69.0,87.0
719,181.42673349375002,181.6907632875,57.0,86.0
720,180.81449049375001,181.75326309375,45.0,84.0
721,181.12061199375,182.06448661875,52.0,80.0
722,181.73285499375,182.0989252875,60.0,86.0
723,181.73285499375,182.10402731250002,69.0,87.0
724,182.65121949375,182.87825960625003,55.0,89.0
725,182.34509799375002,182.89356568125,52.0,81.0
726,182.03897649375003,183.26346249375,43.0,87.0
727,182.95734099375002,183.40631919375002,67.0,88.0
728,183.26346249375,183.95733789375,65.0,71.0
729,183.26346249375,183.97519498125,57.0,83.0
730,183.26346249375,183.98539903125,60.0,80.0
731,183.87570549375002,184.20861262500003,53.0,87.0
732,183.56958399375003,184.25835736875,48.0,81.0
733,183.26346249375,184.27111243125,41.0,88.0
734,184.18182699375,184.3336122375,57.0,84.0
735,184.18182699375,184.42289767500003,60.0,86.0
736,184.18182699375,184.4305507125,65.0,87.0
737,184.48794849375003,185.34253768125,40.0,89.0
738,184.79406999375,185.39228242500002,47.0,83.0
739,185.10019149375003,185.453506725,52.0,102.0
740,185.40631299375002,185.63080209375002,59.0,88.0
741,185.40631299375002,185.74432215000002,67.0,88.0
742,185.40631299375002,185.75452620000002,64.0,90.0
743,186.32467749375002,186.55681963125002,62.0,104.0
744,186.01855599375003,186.6040133625,57.0,80.0
745,185.71243449375,186.65375810625002,50.0,91.0
746,186.63079899375,186.87186967500003,65.0,113.0
747,186.63079899375,187.16396060625001,74.0,100.0
748,186.93692049375002,187.229011425,71.0,86.0
749,186.93692049375002,187.23666446250002,67.0,92.0
750,187.54916349375003,187.70094873750003,59.0,92.0
751,187.54916349375003,187.79023417500002,67.0,94.0
752,186.93692049375002,187.8336013875,43.0,85.0
753,187.24304199375,187.86931556250002,50.0,85.0
754,187.54916349375003,188.05043745,55.0,100.0
755,187.85528499375002,188.116763775,62.0,91.0
756,188.16140649375,188.42416078125,60.0,90.0
757,188.16140649375,188.8284962625,64.0,98.0
758,188.16140649375,188.84125132500003,67.0,91.0
759,188.77364949375,189.014720175,60.0,93.0
760,188.16140649375,189.08614852500003,48.0,86.0
761,189.07977099375003,189.34252528125,67.0,98.0
762,188.46752799375002,189.4050250875,55.0,76.0
763,189.38589249375002,190.03384966875,67.0,83.0
764,189.38589249375002,190.05680878125003,71.0,91.0
765,189.07977099375003,190.09124745000003,64.0,96.0
766,189.99813549375003,190.26726731250002,59.0,88.0
767,189.69201399375,190.30553250000003,55.0,78.0
768,189.38589249375002,190.41395053125,47.0,87.0
769,190.30425699375002,190.44201166875,71.0,91.0
770,190.61037849375,191.27874376875002,69.0,90.0
771,190.61037849375,191.28384579375003,60.0,89.0
772,190.30425699375002,191.38588629375002,64.0,93.0
773,191.22262149375,191.50833489375003,57.0,88.0
774,190.61037849375,191.5682836875,45.0,86.0
775,190.91649999375002,191.8335889875,52.0,78.0
776,191.52874299375003,191.89353778125002,69.0,88.0
777,191.52874299375003,191.92542543750002,64.0,89.0
778,191.52874299375003,191.94328252500003,60.0,86.0
779,192.14098599375,192.64991298750002,52.0,84.0
780,192.44710749375002,192.70220874375002,55.0,102.0
781,191.83486449375002,193.05935049375003,43.0,91.0
782,192.75322899375,193.66266495000002,67.0,100.0
783,193.05935049375003,193.76087893125,65.0,74.0
784,193.05935049375003,193.76598095625002,57.0,83.0
785,193.05935049375003,193.79786861250003,60.0,79.0
786,193.05935049375003,194.03511277500002,41.0,88.0
787,193.97771499375003,194.1626634,57.0,86.0
788,193.67159349375,194.3284792125,53.0,87.0
789,193.36547199375002,194.42414218125,48.0,81.0
790,193.97771499375003,194.50577458125002,65.0,93.0
791,193.97771499375003,194.67669241875,60.0,94.0
792,194.28383649375002,195.1703133375,52.0,91.0
793,194.58995799375,195.19964998125002,59.0,86.0
794,195.20220099375,195.49046540625002,71.0,102.0
795,194.89607949375002,196.01214746250002,62.0,89.0
796,195.50832249375003,196.17796327500002,69.0,87.0
797,195.50832249375003,196.19071833750002,65.0,88.0
798,196.12056549375,196.32719750625003,62.0,91.0
799,195.81444399375002,196.36291168125,57.0,54.0
800,195.50832249375003,196.44964610625001,50.0,87.0
801,196.42668699375002,196.73663501250002,69.0,87.0
802,196.42668699375002,196.75449210000002,65.0,92.0
803,196.73280849375,197.62821388125002,43.0,89.0
804,197.03892999375003,197.64862198125002,50.0,86.0
805,197.65117299375,197.81571330000003,59.0,89.0
806,197.34505149375002,197.94836595,55.0,93.0
807,197.95729449375003,198.29147713125002,60.0,88.0
808,197.95729449375003,198.64351685625002,64.0,98.0
809,197.95729449375003,198.6524454,67.0,100.0
810,198.56953749375,198.79275108750002,60.0,88.0
811,197.95729449375003,198.84504684375003,48.0,83.0
812,198.87565899375002,199.10652562500002,67.0,91.0
813,198.87565899375002,199.16009688750003,64.0,96.0
814,198.26341599375002,199.18943353125002,55.0,78.0
815,199.18178049375,199.861625325,71.0,88.0
816,199.18178049375,199.94070671250003,62.0,100.0
817,199.79402349375002,200.01596158125002,59.0,84.0
818,199.48790199375003,200.0274411375,55.0,77.0
819,199.18178049375,200.1141755625,47.0,85.0
820,200.10014499375,200.24682821250002,71.0,100.0
821,200.40626649375002,201.13458056250002,69.0,100.0
822,201.01850949375003,201.26213118750002,57.0,87.0
823,200.40626649375002,201.30804941250003,60.0,96.0
824,200.40626649375002,201.30932491875,45.0,84.0
825,201.32463099375002,201.60396686250002,69.0,98.0
826,200.71238799375,201.63075249375,52.0,84.0
827,202.24299549375002,202.45855605000003,55.0,84.0
828,201.93687399375003,202.47131111250002,52.0,82.0
829,202.24299549375002,202.53508642500003,62.0,96.0
830,201.63075249375,202.7264123625,43.0,86.0
831,201.63075249375,202.79401419375003,67.0,104.0
832,202.85523849375002,203.51595073125003,65.0,92.0
833,202.85523849375002,203.56824648750003,57.0,84.0
834,202.85523849375002,203.64987888750002,60.0,91.0
835,203.46748149375003,203.73916432500002,53.0,90.0
836,203.16135999375,203.80931716875003,48.0,81.0
837,202.85523849375002,203.84248033125002,41.0,87.0
838,203.77360299375002,203.92028621250003,57.0,86.0
839,203.77360299375002,203.99043905625,65.0,87.0
840,203.77360299375002,204.02742873750003,60.0,76.0
841,204.07972449375,204.45089681250002,64.0,88.0
842,204.07972449375,204.87564039375002,40.0,85.0
843,204.69196749375,205.02359911875,60.0,102.0
844,204.38584599375002,205.07206835625,52.0,88.0
845,204.99808899375003,205.62308705625003,69.0,92.0
846,205.30421049375002,205.73788261875,62.0,90.0
847,205.30421049375002,205.7417091375,65.0,90.0
848,205.61033199375,205.9866063375,57.0,84.0
849,206.22257499375002,206.28635030625003,57.0,86.0
850,205.30421049375002,206.32206448125,50.0,86.0
851,205.91645349375003,206.33992156875001,69.0,113.0
852,206.52869649375003,206.99298076875002,59.0,93.0
853,206.52869649375003,206.99298076875002,67.0,93.0
854,205.91645349375003,207.02104190625002,62.0,113.0
855,207.14093949375,207.320785875,59.0,107.0
856,207.29400024375002,207.42410188125,62.0,113.0
857,206.52869649375003,207.43558143750002,43.0,91.0
858,206.83481799375002,207.47767314375002,50.0,87.0
859,207.44706099375003,207.66772357500002,67.0,110.0
860,206.98787874375003,207.69833572500002,55.0,100.0
861,207.75318249375002,207.97001855625,60.0,96.0
862,207.75318249375002,208.06057950000002,64.0,108.0
863,207.75318249375002,208.07716108125,67.0,91.0
864,208.05930399375,208.40113966875003,55.0,81.0
865,208.36542549375002,208.67409800625,60.0,87.0
866,208.36542549375002,208.677924525,64.0,92.0
867,207.75318249375002,208.74169983750002,48.0,87.0
868,208.36542549375002,208.89858710625003,72.0,104.0
869,208.67154699375,208.98914805,55.0,81.0
870,208.97766849375003,209.45215681875,62.0,94.0
871,208.97766849375003,209.47511593125003,71.0,93.0
872,209.28378999375002,209.62052364375003,55.0,80.0
873,209.58991149375,209.89093096875,59.0,86.0
874,209.58991149375,209.91389008125003,71.0,100.0
875,209.58991149375,209.92281862500002,62.0,102.0
876,208.97766849375003,210.0223081125,47.0,85.0
877,210.20215449375002,210.90113191875002,69.0,102.0
878,210.20215449375002,210.94194811875002,60.0,92.0
879,210.20215449375002,210.98786634375003,64.0,102.0
880,210.50827599375003,211.03888659375002,52.0,78.0
881,210.81439749375002,211.11541696875003,57.0,86.0
882,210.20215449375002,211.1753657625,45.0,87.0
883,211.12051899375,211.37179372500003,69.0,110.0
884,211.42664049375003,212.00061830625003,67.0,102.0
885,212.03888349375,212.08862823750002,55.0,68.0
886,211.73276199375002,212.15623006875003,52.0,78.0
887,212.03888349375,212.3743416375,62.0,91.0
888,212.03888349375,212.38709670000003,67.0,83.0
889,212.34500499375002,212.443218975,55.0,88.0
890,211.42664049375003,212.49296371875002,43.0,88.0
891,212.65112649375,213.2518899375,57.0,88.0
892,212.65112649375,213.34117537500003,65.0,92.0
893,212.65112649375,213.51719523750003,60.0,89.0
894,213.56949099375,213.74678636250002,57.0,86.0
895,213.56949099375,213.80163313125001,65.0,86.0
896,213.56949099375,213.84755135625002,60.0,80.0
897,213.26336949375002,214.08734653125003,53.0,85.0
898,213.87561249375003,214.08734653125003,53.0,81.0
899,212.95724799375003,214.10647912500002,48.0,79.0
900,212.65112649375,214.15367285625,41.0,89.0
901,213.87561249375003,214.15367285625,41.0,81.0
902,213.87561249375003,214.98912945,65.0,88.0
903,213.87561249375003,214.99040495625002,60.0,80.0
904,213.87561249375003,214.99933350000003,68.0,84.0
905,216.01846299375,216.8794297125,59.0,84.0
906,216.32458449375002,216.96488863125003,67.0,100.0
907,215.10009849375,217.05289856250002,43.0,84.0
908,215.40621999375003,217.11794938125,50.0,84.0
909,215.71234149375002,217.55544802500003,55.0,86.0
910,216.93682749375003,217.55799903750002,62.0,88.0
911,217.24294899375002,218.17661956875003,67.0,83.0
912,217.54907049375,218.381976075,48.0,38.0
913,217.85519199375003,218.66768947500003,55.0,78.0
914,218.16131349375001,218.6931996,60.0,90.0
915,218.46743499375003,218.79651560625,64.0,86.0
916,218.77355649375002,219.70977808125002,50.0,87.0
917,219.38579949375003,219.98656293750003,62.0,89.0
918,219.07967799375,220.01334856875002,57.0,81.0
919,219.69192099375002,220.05416476875,65.0,86.0
920,219.99804249375003,220.96870275000003,52.0,84.0
921,220.61028549375,220.98145781250003,64.0,88.0
922,220.30416399375002,221.23655906250002,59.0,81.0
923,220.91640699375003,221.24548760625,67.0,89.0
924,221.83477149375003,222.19701526875002,65.0,84.0
925,221.22252849375002,222.25058653125,53.0,89.0
926,221.52864999375,222.44573898750002,60.0,71.0
927,222.14089299375001,222.45849405,69.0,85.0
928,223.05925749375,223.38323608125003,67.0,91.0
929,223.36537899375003,223.67915353125002,69.0,87.0
930,223.67150049375002,224.18935603125001,71.0,87.0
931,222.75313599375002,224.55287531250002,62.0,76.0
932,222.44701449375003,224.56818138750003,55.0,86.0
933,225.50822949375,227.00057180625,65.0,86.0
934,225.20210799375002,227.014602375,60.0,78.0
935,224.89598649375003,227.05924509375,53.0,88.0
936,226.42659399375003,227.10388781250003,72.0,86.0
937,225.81435099375003,227.12557141875,77.0,90.0
938,227.34495849375003,228.19317015000001,48.0,100.0
939,227.65107999375002,228.24291489375003,55.0,87.0
940,227.95720149375003,228.35643495000002,60.0,94.0
941,228.26332299375002,228.56051595000002,64.0,104.0
942,229.18168749375002,229.4814314625,57.0,87.0
943,228.56944449375,229.51331911875002,42.0,86.0
944,229.48780899375,229.71102258750003,60.0,91.0
945,228.87556599375003,229.73270619375003,54.0,86.0
946,229.79393049375003,230.67530531250003,41.0,91.0
947,230.40617349375003,230.87938631250003,53.0,87.0
948,230.10005199375001,230.92275352500002,48.0,83.0
949,230.71229499375002,230.96994725625,57.0,86.0
950,231.63065949375002,232.94570643750004,55.0,83.0
951,231.93678099375003,232.95718599375002,59.0,71.0
952,231.01841649375,232.99034915625003,43.0,88.0
953,231.32453799375003,232.99034915625003,50.0,82.0
954,232.39596324375003,233.09111415,67.0,83.0
955,235.80794246250002,236.03625808125003,62.0,80.0
956,236.05666618125002,236.11533946875002,64.0,83.0
957,236.26074718125003,236.40487938750002,67.0,78.0
958,236.46100166250002,236.56941969375004,72.0,79.0
959,236.69441930625,236.77477620000002,76.0,76.0
960,236.95079606250002,237.16508111250002,79.0,84.0
961,237.29008072500002,237.63701842500004,84.0,80.0
962,237.66635506875002,238.45844445000003,88.0,86.0
963,235.60768798125002,238.58599507500003,60.0,72.0
964,235.31559705000004,238.61788273125003,55.0,38.0
965,234.87172087500002,238.6395663375,48.0,78.0
