,start,end,pitch,velocity
0,32.842806314583335,33.19886695625,67.0,96.0
1,33.29735181458334,33.4886397125,74.0,94.0
2,33.524624564583334,33.78977610625,72.0,80.0
3,33.75189731458333,34.1931852375,74.0,90.0
4,34.20644281458333,34.666670133333334,67.0,84.0
5,34.660988314583335,35.10985199583333,70.0,93.0
6,35.11742775416667,35.3636399,67.0,85.0
7,35.342806564583334,35.581442952083336,65.0,82.0
8,35.57007931458333,35.9090945,67.0,90.0
9,36.48106425416667,36.929927935416664,67.0,94.0
10,36.93371581458333,37.047352189583336,72.0,97.0
11,37.160988564583334,37.272731,72.0,94.0
12,37.38826131458333,37.83333711666667,72.0,98.0
13,37.842806814583334,38.26515534166666,67.0,87.0
14,38.297352314583335,38.8068220625,70.0,86.0
15,38.75189781458333,38.979170564583335,72.0,85.0
16,38.979170564583335,39.1704584625,74.0,87.0
17,39.20644331458333,39.75757973333333,72.0,98.0
18,40.115534314583336,40.52841314375,74.0,96.0
19,40.57007981458333,40.74242831666667,79.0,96.0
20,40.797352564583335,41.07576168333333,77.0,76.0
21,41.02462531458333,41.365534439583335,79.0,95.0
22,41.479170814583334,41.8295496375,67.0,87.0
23,41.933716314583336,42.28788301666667,70.0,97.0
24,42.38826181458333,42.8068224625,74.0,90.0
25,42.84280731458333,43.35985282083333,72.0,101.0
26,43.751898314583336,43.844701354166666,72.0,91.0
27,43.97917106458333,44.06250440625,72.0,85.0
28,44.20644381458333,44.37121655833333,72.0,87.0
29,44.433716564583335,44.547352939583334,74.0,90.0
30,44.66098931458333,44.8522772125,77.0,90.0
31,44.88826206458333,45.138262089583336,79.0,77.0
32,45.115534814583334,45.60795910625,72.0,93.0
33,45.570080314583336,46.98106530416667,74.0,103.0
34,47.39015625416667,47.74053507708334,67.0,92.0
35,47.844701754166664,47.95644418958333,74.0,101.0
36,48.07197450416667,48.17235330208333,74.0,95.0
37,48.299247254166666,48.59470182916667,74.0,91.0
38,48.75379275416667,49.060610966666665,67.0,84.0
39,49.20833825416667,49.67614133125,70.0,91.0
40,49.66098981458333,49.907201960416664,67.0,72.0
41,49.888262564583336,50.13636865,65.0,72.0
42,50.11553531458333,50.706444464583335,67.0,71.0
43,51.02462631458333,51.40720211041667,67.0,89.0
44,51.47917181458333,51.570080914583336,72.0,93.0
45,51.706444564583336,51.80114154375,72.0,87.0
46,51.93371731458333,52.214020372916664,72.0,87.0
47,52.388262814583335,52.77462648958333,67.0,71.0
48,52.84280831458333,53.16856592291666,70.0,91.0
49,53.29735381458333,53.58902051041667,74.0,92.0
50,53.75189931458333,54.28977815625,74.0,100.0
51,54.66099031458333,54.97159640625,74.0,103.0
52,55.11553581458333,55.28030855833333,79.0,94.0
53,55.342808564583336,55.55871767708334,77.0,82.0
54,55.570081314583334,55.8750055875,79.0,94.0
55,56.024626814583335,56.30492987291667,74.0,91.0
56,56.47917231458333,56.89583902291667,70.0,92.0
57,56.93371781458333,57.36932391875,74.0,97.0
58,57.388263314583334,57.96212700833333,72.0,100.0
59,58.29735431458333,58.38068765625,72.0,100.0
60,58.524627064583335,58.6022785875,72.0,89.0
61,58.75189981458333,58.85985437083333,72.0,94.0
62,58.97917256458333,59.09659681875,74.0,87.0
63,59.206445314583334,59.4886423125,77.0,93.0
64,59.660990814583336,59.984854483333336,65.0,91.0
65,60.11553631458333,61.5113697875,67.0,98.0
66,61.935612254166664,62.47349109583333,74.0,103.0
67,62.61743050416667,62.73106687916667,74.0,91.0
68,62.84470325416667,63.160991164583336,74.0,98.0
69,63.29924875416667,63.61553666458333,82.0,103.0
70,63.753794254166664,65.05871862708334,79.0,100.0
71,65.57197625416667,65.66667323333333,82.0,104.0
72,65.79924900416667,66.06629448541666,82.0,98.0
73,66.25379450416666,66.3522793625,84.0,108.0
74,66.48106725416666,66.80303698333333,79.0,99.0
75,66.93561275416667,67.24811278541667,77.0,103.0
76,67.39015825416666,68.42993108541667,74.0,105.0
77,69.20834025416667,69.81250698125,74.0,105.0
78,70.11743125416666,70.36932521875,79.0,105.0
79,70.57197675416667,70.84849193333334,67.0,92.0
80,71.02652225416666,71.32765864791666,72.0,100.0
81,71.47917381458333,71.78788596666666,74.0,100.0
82,71.93371931458333,72.8295527375,72.0,99.0
83,72.84281031458333,72.94697699166666,72.0,101.0
84,73.07008306458333,73.33712854583334,72.0,97.0
85,73.52462856458334,73.62690130208334,79.0,101.0
86,73.75190131458334,74.068189225,77.0,98.0
87,74.20644681458333,74.40531047083333,74.0,97.0
88,74.43371956458333,74.61743170416666,72.0,90.0
89,74.66099231458334,75.97917426458334,74.0,100.0
90,76.48106825416667,77.01515921666666,74.0,105.0
91,77.16288650416666,77.27652287916666,74.0,93.0
92,77.39015925416666,77.71402292291667,74.0,97.0
93,77.84470475416667,78.18561387916667,82.0,109.0
94,78.29925025416667,79.50947764791667,79.0,103.0
95,79.66288675416666,79.89205344375,77.0,99.0
96,79.89015950416666,80.11743225416667,79.0,97.0
97,80.11743225416667,80.7840989875,84.0,106.0
98,80.79925050416666,81.06629598541667,82.0,100.0
99,81.02652325416666,81.46781117708333,79.0,90.0
100,81.48106875416667,81.96212940833334,77.0,97.0
101,81.93561425416667,82.4545537,74.0,97.0
102,83.75190231458333,84.47349329583334,74.0,103.0
103,84.43372056458334,84.62122058333334,79.0,61.0
104,84.66099331458334,85.04735698958334,79.0,68.0
105,85.11553881458333,85.54167522083333,74.0,76.0
106,85.57008431458333,86.0000086,70.0,80.0
107,86.02462981458334,86.50190258958334,74.0,79.0
108,86.47917531458333,87.07197840416667,72.0,97.0
109,87.38826631458333,87.51516026666667,72.0,105.0
110,87.61553906458333,87.96213000833333,72.0,95.0
111,88.07197850416667,88.3068270125,74.0,94.0
112,88.29925125416666,88.64016037916667,77.0,91.0
113,88.75379675416667,89.22728165,65.0,87.0
114,89.20834225416667,90.38826661458333,67.0,98.0
115,120.11554231458334,120.47160295625,67.0,96.0
116,120.57008781458333,120.7613757125,74.0,94.0
117,120.79736056458333,121.06251210625,72.0,80.0
118,121.02463331458333,121.4659212375,74.0,90.0
119,121.47917881458334,121.93940613333334,67.0,84.0
120,121.93372431458333,122.38258799583333,70.0,93.0
121,122.39016375416666,122.6363759,67.0,85.0
122,122.61554256458334,122.85607289166667,65.0,82.0
123,122.84281531458333,123.1818305,67.0,90.0
124,123.75380025416666,124.20266393541667,67.0,94.0
125,124.20645181458333,124.32198212916667,72.0,97.0
126,124.43372456458333,124.54736093958333,72.0,94.0
127,124.66099731458333,125.10607311666666,72.0,98.0
128,125.11554281458334,125.53789134166666,67.0,87.0
129,125.57008831458333,126.08145200208334,70.0,86.0
130,126.02463381458334,126.25190656458334,72.0,85.0
131,126.25190656458334,126.4431944625,74.0,87.0
132,126.47917931458333,127.03031573333334,72.0,98.0
133,127.38827031458334,127.80114914375,74.0,96.0
134,127.84281581458333,128.01516431666667,79.0,96.0
135,128.07008856458333,128.34849768333333,77.0,76.0
136,128.29736131458333,128.63827043958332,79.0,95.0
137,128.75190681458332,129.1022856375,67.0,87.0
138,129.20645231458334,129.56061901666666,70.0,97.0
139,129.66099781458334,130.0795584625,74.0,90.0
140,130.11554331458333,130.63258882083332,72.0,101.0
141,131.02463431458332,131.11933129375,72.0,91.0
142,131.25190706458332,131.33524040625,72.0,85.0
143,131.47917981458335,131.64205861875,72.0,87.0
144,131.70645256458334,131.818195,74.0,90.0
145,131.93372531458334,132.1250132125,77.0,90.0
146,132.16099806458334,132.41099808958333,79.0,77.0
147,132.38827081458334,132.88069510625,72.0,93.0
148,132.84281631458333,134.25380130416667,74.0,103.0
149,134.66289225416668,135.01327107708335,67.0,92.0
150,135.11743775416667,135.22728625,74.0,101.0
151,135.34471050416667,135.4431953625,74.0,95.0
152,135.57198325416667,135.86743782916668,74.0,91.0
153,136.02652875416666,136.33334696666665,67.0,84.0
154,136.48107425416666,136.94698339166666,70.0,91.0
155,136.93372581458334,137.17993796041668,67.0,72.0
156,137.16099856458334,137.40910465,65.0,72.0
157,137.38827131458333,137.977286525,67.0,71.0
158,138.29736231458332,138.67993811041666,67.0,89.0
159,138.75190781458332,138.84281691458332,72.0,93.0
160,138.97918056458334,139.07577148333334,72.0,87.0
161,139.20645331458334,139.48675637291666,72.0,87.0
162,139.66099881458334,140.04736248958332,67.0,71.0
163,140.11554431458333,140.43940798333333,70.0,91.0
164,140.57008981458333,140.86365045,74.0,92.0
165,141.02463531458332,141.56251415625,74.0,100.0
166,141.93372631458334,142.24433240625,74.0,103.0
167,142.38827181458333,142.55304455833334,79.0,94.0
168,142.61554456458333,142.83145367708335,77.0,82.0
169,142.84281731458333,143.1477415875,79.0,94.0
170,143.29736281458332,143.57766587291667,74.0,91.0
171,143.75190831458335,144.16857502291666,70.0,92.0
172,144.20645381458334,144.64205991875,74.0,97.0
173,144.66099931458334,145.23486300833332,72.0,100.0
174,145.57009031458333,145.65342365625,72.0,100.0
175,145.79736306458332,145.8750145875,72.0,89.0
176,146.02463581458332,146.13259037083333,72.0,94.0
177,146.25190856458335,146.36933281875,74.0,87.0
178,146.47918131458334,146.7613783125,77.0,93.0
179,146.93372681458334,147.25948442291667,65.0,91.0
180,147.38827231458333,148.7841057875,67.0,98.0
181,149.20834825416668,149.74622709583332,74.0,103.0
182,149.89016650416667,150.00569681875,74.0,91.0
183,150.11743925416667,150.43372716458333,74.0,98.0
184,150.57198475416666,150.88827266458333,82.0,103.0
185,151.02653025416666,152.33145462708333,79.0,100.0
186,152.84471225416667,152.93940923333332,82.0,104.0
187,153.07198500416666,153.33903048541666,82.0,98.0
188,153.52653050416666,153.62690930208333,84.0,108.0
189,153.75380325416666,154.07577298333334,79.0,99.0
190,154.20834875416668,154.522742725,77.0,103.0
191,154.66289425416667,155.70266708541666,74.0,105.0
192,156.48107625416665,157.08524298125,74.0,105.0
193,157.39016725416667,157.64206121875,79.0,105.0
194,157.84471275416666,158.12122793333333,67.0,92.0
195,158.29925825416666,158.6022885875,72.0,100.0
196,158.75190981458334,159.06062196666667,74.0,100.0
197,159.20645531458334,160.1022887375,72.0,99.0
198,160.11554631458333,160.22160693125,72.0,101.0
199,160.34281906458332,160.60986454583335,72.0,97.0
200,160.79736456458332,160.89963730208333,79.0,101.0
201,161.02463731458334,161.340925225,77.0,98.0
202,161.47918281458334,161.67804647083332,74.0,97.0
203,161.70645556458334,161.89016770416666,72.0,90.0
204,161.93372831458333,163.25191026458333,74.0,100.0
205,163.75380425416665,164.28789521666667,74.0,105.0
206,164.43562250416667,164.54736493958333,74.0,93.0
207,164.66289525416667,164.98675892291666,74.0,97.0
208,165.11744075416667,165.45834987916666,82.0,109.0
209,165.57198625416666,166.78221364791668,79.0,103.0
210,166.93562275416667,167.16478944375,77.0,99.0
211,167.16289550416667,167.39016825416667,79.0,97.0
212,167.39016825416667,168.0568349875,84.0,106.0
213,168.07198650416666,168.340925925,82.0,100.0
214,168.29925925416666,168.74244111666667,79.0,90.0
215,168.75380475416668,169.23486540833332,77.0,97.0
216,169.20835025416667,169.72539576041666,74.0,97.0
217,171.02463831458334,171.74433535625,74.0,103.0
218,171.70645656458333,171.89395658333333,79.0,61.0
219,171.93372931458333,172.32009298958334,79.0,68.0
220,172.38827481458333,172.81251728125,74.0,76.0
221,172.84282031458332,173.2727446,70.0,80.0
222,173.29736581458334,173.77463858958333,74.0,79.0
223,173.75191131458334,174.34471440416667,72.0,97.0
224,174.66100231458333,174.78789626666668,72.0,105.0
225,174.88827506458333,175.23486600833334,72.0,95.0
226,175.34471450416666,175.5795630125,74.0,94.0
227,175.57198725416666,175.91289637916665,77.0,91.0
228,176.02653275416665,176.50001765,65.0,87.0
229,176.48107825416668,177.66100261458334,67.0,98.0
230,178.29736631458334,178.83524515625,74.0,103.0
231,178.97918456458333,179.09282093958333,74.0,91.0
232,179.20645731458333,179.522745225,74.0,98.0
233,179.66100281458333,179.977290725,82.0,103.0
234,180.11554831458332,181.4204726875,79.0,100.0
235,181.93373031458333,182.02653335416667,82.0,104.0
236,182.16100306458333,182.42804854583332,82.0,98.0
237,182.61554856458332,182.71403342291666,84.0,108.0
238,182.84282131458335,183.16479104375,79.0,99.0
239,183.29736681458334,183.60986684583332,77.0,103.0
240,183.75191231458334,184.79168514583333,74.0,105.0
241,185.57009431458334,186.17236710208334,74.0,105.0
242,186.47918531458333,186.73107927916666,79.0,105.0
243,186.93373081458333,187.21024599375,67.0,92.0
244,187.38827631458332,187.68941270833332,72.0,100.0
245,187.84471575416666,188.15342790625,74.0,100.0
246,188.29926125416665,189.19509467708332,72.0,99.0
247,189.20835225416667,189.31251893125,72.0,101.0
248,189.43562500416667,189.70267048541666,72.0,97.0
249,189.89017050416666,189.99244324166668,79.0,101.0
250,190.11744325416666,190.43373116458332,77.0,98.0
251,190.57198875416665,190.77085241041667,74.0,97.0
252,190.79926150416668,191.11554941458334,72.0,90.0
253,191.02653425416668,192.24623134583334,74.0,100.0
254,192.84282231458334,193.37691327708333,74.0,105.0
255,193.52464056458334,193.63827693958333,74.0,93.0
256,193.75191331458333,194.07577698333333,74.0,97.0
257,194.20645881458333,194.54736793958332,82.0,109.0
258,194.66100431458332,195.87123170833334,79.0,103.0
259,196.02464081458334,196.25380750416667,77.0,99.0
260,196.25191356458333,196.47918631458333,79.0,97.0
261,196.47918631458333,197.14585304791666,84.0,106.0
262,197.16100456458332,197.42805004583334,82.0,100.0
263,197.38827731458332,197.8295652375,79.0,90.0
264,197.84282281458334,198.32198952916667,77.0,97.0
265,198.29736831458334,198.82009563958334,74.0,97.0
266,200.11744425416666,200.83903523541667,74.0,103.0
267,200.79926250416668,200.98676252291668,79.0,61.0
268,201.02653525416667,201.41289892916666,79.0,68.0
269,201.48108075416667,201.90721716041668,74.0,76.0
270,201.93562625416666,202.36744447916666,70.0,80.0
271,202.39017175416666,202.86744452916668,74.0,79.0
272,202.84471725416665,203.43941428333332,72.0,97.0
273,203.75380825416667,203.88070220625,72.0,105.0
274,203.98108100416667,204.32388406875,72.0,95.0
275,204.43373256458332,204.70645986458334,79.0,94.0
276,204.66100531458332,204.9204750375,77.0,91.0
277,205.11555081458334,205.59092965,72.0,87.0
278,205.57009631458334,206.75380855416665,74.0,98.0
279,207.39017225416666,207.92805109583333,74.0,103.0
280,208.07199050416668,208.18562687916668,74.0,91.0
281,208.29926325416668,208.61555116458334,74.0,98.0
282,208.75380875416667,209.068202725,82.0,103.0
283,209.20835425416666,210.51327862708334,79.0,100.0
284,211.02653625416667,211.12123323333333,82.0,104.0
285,211.25380900416667,211.522748425,82.0,98.0
286,211.70835450416666,211.8068393625,84.0,108.0
287,211.93562725416666,212.25759698333334,79.0,99.0
288,212.39017275416666,212.704566725,77.0,103.0
289,212.84471825416668,213.886385025,74.0,105.0
290,214.66290025416666,215.26706698125,74.0,105.0
291,215.57199125416668,215.82199127916667,79.0,105.0
292,216.02653675416667,216.30494587291668,67.0,92.0
293,216.48108225416667,216.7841125875,72.0,100.0
294,216.93373381458332,217.24244596666668,74.0,100.0
295,217.39017325416665,218.28600667708332,72.0,99.0
296,218.29926425416667,218.40532487083334,72.0,101.0
297,218.52653700416667,218.795476425,72.0,97.0
298,218.98108250416666,219.08524918125,79.0,101.0
299,219.20835525416666,219.52653710416666,77.0,98.0
300,219.66290075416666,219.86176441041667,74.0,97.0
301,219.89017350416665,220.07199170416666,72.0,90.0
302,220.11744625416668,221.42994638541666,74.0,100.0
303,221.93373431458332,222.46782527708334,74.0,105.0
304,222.61555256458334,222.727295,74.0,93.0
305,222.84282531458334,223.16858292291667,74.0,97.0
306,223.29737081458333,223.636386,82.0,109.0
307,223.75191631458333,224.96403764791665,79.0,103.0
308,225.11555281458334,225.34661344375,77.0,99.0
309,225.34282556458334,225.57009831458333,79.0,97.0
310,225.57009831458333,226.2386589875,84.0,106.0
311,226.25191656458333,226.51896204583332,82.0,100.0
312,226.47918931458332,226.9204772375,79.0,90.0
313,226.93373481458335,227.41290152916667,77.0,97.0
314,227.38828031458334,227.9091137,74.0,97.0
315,229.20835625416666,229.88449268541666,74.0,103.0
316,229.89017450416665,230.16290180416667,79.0,61.0
317,230.11744725416668,230.16290180416667,79.0,68.0
318,230.57199275416667,230.99812916041665,74.0,76.0
319,231.02653825416667,231.45646253958333,70.0,80.0
320,231.48108375416666,231.95835652916668,74.0,79.0
321,231.93562925416666,232.52843234375,72.0,97.0
322,232.84472025416667,232.97350814583334,72.0,105.0
323,233.07199300416667,233.41479606875,72.0,95.0
324,233.52653850416667,233.75949307291665,74.0,94.0
325,233.75381125416666,234.09661431875,77.0,91.0
326,234.20835675416666,234.68184165,65.0,87.0
327,234.66290225416665,235.84282661458334,67.0,98.0
328,236.47919031458332,236.77464488958333,72.0,87.0
329,236.93373581458334,237.80873590208333,72.0,91.0
330,237.98297834375,238.44888748125,74.0,94.0
331,238.52464506458332,239.42805424583332,77.0,101.0
332,239.20646331458335,240.28222099791665,65.0,72.0
333,241.70646356458334,245.49055485208333,67.0,72.0
