,start,end,pitch,velocity
0,1.4791668145833334,1.8882577645833334,70.0,57.0
1,1.0246213145833334,1.9337123145833333,67.0,56.0
2,1.9337123145833333,2.3068184125,74.0,69.0
3,2.3882578145833335,3.087121520833333,67.0,49.0
4,2.842803314583333,3.19886395625,70.0,54.0
5,0.5700758145833333,3.2064397145833334,62.0,54.0
6,0.11553031458333334,3.22727305,55.0,43.0
7,3.7518943145833332,3.856060991666667,70.0,86.0
8,4.660985314583333,4.981061104166667,58.0,43.0
9,4.206439814583334,4.996212620833333,55.0,57.0
10,4.660985314583333,5.0795459625,62.0,88.0
11,3.7518943145833332,5.1477277875,43.0,90.0
12,5.115530814583333,5.2840914375,57.0,52.0
13,5.115530814583333,5.554924797916667,60.0,70.0
14,5.570076314583333,6.060606666666667,63.0,77.0
15,5.570076314583333,6.077652122916667,58.0,68.0
16,5.570076314583333,6.1041672770833335,55.0,73.0
17,6.024621814583333,6.632576420833333,51.0,25.0
18,6.479167314583333,6.928030995833334,63.0,72.0
19,6.479167314583333,6.958334029166666,58.0,75.0
20,6.479167314583333,6.969697666666667,55.0,64.0
21,6.933712814583333,6.984849183333333,51.0,55.0
22,5.570076314583333,7.0000007,39.0,74.0
23,7.388258314583333,7.765152291666666,36.0,63.0
24,7.388258314583333,7.839015935416667,63.0,66.0
25,7.388258314583333,7.84659169375,48.0,60.0
26,7.388258314583333,7.8655310895833335,58.0,70.0
27,7.388258314583333,7.871212908333333,55.0,66.0
28,8.297349314583334,8.678031170833334,41.0,62.0
29,8.297349314583334,8.678031170833334,57.0,67.0
30,8.297349314583334,8.717803902083332,60.0,72.0
31,8.297349314583334,8.765152391666666,53.0,65.0
32,8.297349314583334,8.765152391666666,65.0,76.0
33,9.206440314583332,9.507576708333334,62.0,69.0
34,9.206440314583332,9.659091875,65.0,70.0
35,9.206440314583332,9.729167639583332,70.0,66.0
36,9.660985814583332,9.827652497916667,60.0,54.0
37,9.660985814583332,10.068182825,69.0,75.0
38,10.115531314583333,10.31818285,62.0,74.0
39,10.115531314583333,10.405304070833333,58.0,57.0
40,10.115531314583333,10.503788929166667,70.0,80.0
41,9.206440314583332,10.522728325,46.0,66.0
42,9.660985814583332,10.5340919625,53.0,51.0
43,10.570076814583333,10.632576820833334,65.0,83.0
44,11.024622314583333,11.4659102375,62.0,67.0
45,11.024622314583333,11.477273875,58.0,67.0
46,11.024622314583333,11.535986002083334,65.0,76.0
47,11.933713314583333,12.242425466666667,62.0,54.0
48,11.933713314583333,12.27841031875,65.0,51.0
49,11.933713314583333,12.282198197916667,58.0,50.0
50,11.024622314583333,12.285986077083333,43.0,77.0
51,11.933713314583333,12.293561835416666,55.0,45.0
52,11.479167814583333,12.314395170833333,50.0,40.0
53,12.842804314583333,13.3295467875,63.0,52.0
54,12.842804314583333,13.339016485416666,58.0,56.0
55,12.842804314583333,13.376895277083333,55.0,54.0
56,13.297349814583333,14.04545595,51.0,52.0
57,13.751895314583333,14.117425654166667,55.0,73.0
58,13.751895314583333,14.121213533333334,63.0,74.0
59,12.842804314583333,14.126895352083332,48.0,51.0
60,13.751895314583333,14.15341050625,58.0,74.0
61,14.660986314583333,15.100380297916667,39.0,78.0
62,14.660986314583333,15.10795605625,55.0,73.0
63,14.660986314583333,15.109849995833333,63.0,69.0
64,14.660986314583333,15.117425754166666,58.0,59.0
65,15.115531814583333,15.206440914583334,51.0,64.0
66,15.570077314583333,16.068183425,41.0,84.0
67,15.570077314583333,16.089016760416666,57.0,74.0
68,15.570077314583333,16.098486458333333,65.0,77.0
69,15.570077314583333,16.109850095833334,60.0,74.0
70,16.024622814583335,16.518941045833333,53.0,70.0
71,16.479168314583333,16.856062291666667,58.0,79.0
72,16.479168314583333,16.9886380625,62.0,73.0
73,17.388259314583333,17.564395695833333,60.0,75.0
74,17.160986564583332,17.753789654166667,58.0,59.0
75,17.615532064583334,17.795456325,62.0,67.0
76,16.933713814583335,17.871213908333335,53.0,57.0
77,16.479168314583333,17.9090927,46.0,75.0
78,17.84280481458333,18.013259377083333,65.0,71.0
79,18.070077564583332,18.25568364375,67.0,68.0
80,18.297350314583333,18.679926110416666,70.0,75.0
81,18.297350314583333,18.714017022916668,65.0,72.0
82,18.297350314583333,18.717804902083333,62.0,74.0
83,18.75189581458333,19.310607991666668,50.0,50.0
84,19.206441314583333,19.60795650625,62.0,69.0
85,19.206441314583333,19.63068378125,65.0,75.0
86,19.206441314583333,19.64204741875,55.0,58.0
87,19.206441314583333,19.65341105625,58.0,70.0
88,19.66098681458333,19.712123183333333,50.0,59.0
89,18.297350314583333,19.7386383375,43.0,82.0
90,20.115532314583334,20.609850545833332,63.0,68.0
91,20.115532314583334,20.617426304166667,58.0,55.0
92,20.115532314583334,20.640153579166668,55.0,67.0
93,20.570077814583332,21.22159303125,51.0,47.0
94,21.024623314583334,21.342805164583332,63.0,77.0
95,21.024623314583334,21.3977294125,58.0,72.0
96,21.024623314583334,21.433714264583333,55.0,79.0
97,20.115532314583334,21.566290035416667,39.0,68.0
98,21.479168814583332,21.570077914583333,51.0,65.0
99,21.933714314583334,22.509471947916666,60.0,52.0
100,21.933714314583334,22.520835585416666,58.0,63.0
101,21.933714314583334,22.554926497916668,36.0,63.0
102,21.933714314583334,22.566290135416665,48.0,59.0
103,21.933714314583334,22.570078014583334,55.0,65.0
104,21.933714314583334,22.621214383333335,64.0,55.0
105,22.842805314583334,23.304926572916667,57.0,73.0
106,22.842805314583334,23.31250233125,41.0,74.0
107,22.842805314583334,23.327653847916668,60.0,73.0
108,22.842805314583334,23.367426579166665,65.0,72.0
109,23.751896314583334,24.206441814583332,65.0,76.0
110,23.751896314583334,24.212123633333334,60.0,64.0
111,23.751896314583334,24.229169089583333,62.0,70.0
112,24.660987314583334,24.895835822916666,65.0,67.0
113,24.660987314583334,24.986744922916667,58.0,51.0
114,24.660987314583334,24.990532802083333,60.0,59.0
115,24.206441814583332,25.0568206875,53.0,42.0
116,23.751896314583334,25.066290385416668,46.0,73.0
117,25.570078314583334,25.975381385416668,67.0,35.0
118,25.570078314583334,25.996214720833333,58.0,54.0
119,25.115532814583332,26.047351089583334,62.0,54.0
120,26.479169314583334,26.553032958333333,67.0,32.0
121,26.479169314583334,26.7840935875,55.0,52.0
122,26.479169314583334,26.850381472916666,62.0,71.0
123,26.479169314583334,26.859851170833334,58.0,61.0
124,26.024623814583332,26.86363905,50.0,36.0
125,25.570078314583334,26.939396633333335,43.0,62.0
126,27.388260314583334,27.905305820833334,58.0,62.0
127,27.388260314583334,27.914775518749998,63.0,54.0
128,27.388260314583334,27.931820975,55.0,57.0
129,27.842805814583333,28.52462406458333,48.0,40.0
130,28.297351314583334,28.655305895833333,63.0,67.0
131,28.297351314583334,28.708336204166667,55.0,69.0
132,28.297351314583334,28.712124083333332,58.0,73.0
133,27.388260314583334,28.7386392375,36.0,67.0
134,29.206442314583335,29.740533277083333,57.0,56.0
135,29.206442314583335,29.746215095833332,60.0,65.0
136,29.206442314583335,29.753790854166667,65.0,65.0
137,29.206442314583335,30.357957581249998,38.0,55.0
138,29.206442314583335,30.4659121375,50.0,57.0
139,30.115533314583335,30.535987902083335,57.0,67.0
140,30.115533314583335,30.5568212375,60.0,67.0
141,30.115533314583335,30.604169727083335,65.0,75.0
142,31.024624314583335,31.63447286041667,62.0,63.0
143,31.024624314583335,31.888260764583332,58.0,54.0
144,31.933715314583335,32.827654797916665,55.0,49.0
145,31.024624314583335,32.842806314583335,43.0,57.0
146,31.479169814583333,32.842806314583335,50.0,44.0
147,32.38826081458333,32.86742752916667,57.0,42.0
148,32.842806314583335,33.30113969375,58.0,42.0
149,32.842806314583335,33.386366975,62.0,49.0
150,32.842806314583335,34.115533714583336,43.0,58.0
151,33.75189731458333,34.13257917083333,57.0,39.0
152,33.75189731458333,34.19129129791666,55.0,49.0
153,33.75189731458333,34.204548875,60.0,47.0
154,34.20644281458333,34.280306458333335,58.0,34.0
155,33.29735181458334,34.373109497916666,50.0,37.0
156,34.20644281458333,34.57197315416666,62.0,52.0
157,34.660988314583335,35.11553381458333,58.0,44.0
158,34.660988314583335,35.26894292083333,65.0,51.0
159,35.11553381458333,35.660988414583336,50.0,38.0
160,35.57007931458333,35.810609641666666,58.0,44.0
161,35.57007931458333,35.91288237916667,62.0,48.0
162,34.660988314583335,35.95454905,43.0,46.0
163,35.57007931458333,36.263261202083335,55.0,51.0
164,36.479170314583335,36.8750036875,60.0,56.0
165,36.479170314583335,37.075761283333335,63.0,59.0
166,36.479170314583335,37.70833710416667,48.0,54.0
167,37.38826131458333,37.7386401375,60.0,49.0
168,37.38826131458333,37.85606439166666,65.0,71.0
169,36.93371581458333,38.05492804791667,55.0,42.0
170,37.842806814583334,38.23485230833333,67.0,52.0
171,38.297352314583335,38.691291747916665,63.0,44.0
172,38.297352314583335,38.83901903541667,70.0,51.0
173,39.20644331458333,39.50568576875,60.0,51.0
174,39.20644331458333,39.575761533333335,63.0,43.0
175,39.20644331458333,39.6250039625,67.0,47.0
176,38.75189781458333,39.65720093541667,55.0,35.0
177,38.297352314583335,39.683716089583335,48.0,48.0
178,40.115534314583336,40.48295859375,67.0,21.0
179,40.115534314583336,40.53977678125,62.0,30.0
180,40.115534314583336,40.54356466041666,58.0,42.0
181,40.115534314583336,41.36932231875,43.0,60.0
182,41.02462531458333,41.4204586875,62.0,49.0
183,41.02462531458333,41.44886778125,67.0,47.0
184,40.57007981458333,41.4545496,50.0,43.0
185,41.02462531458333,41.47538293541667,58.0,37.0
186,41.02462531458333,41.54167082083333,55.0,47.0
187,41.933716314583336,42.35795878125,63.0,51.0
188,41.933716314583336,42.40530727083333,67.0,55.0
189,42.38826181458333,42.69129214791667,62.0,38.0
190,42.38826181458333,42.821973979166664,65.0,63.0
191,42.84280731458333,43.117428554166665,60.0,45.0
192,42.84280731458333,43.16477704375,63.0,44.0
193,42.38826181458333,43.18750431875,55.0,41.0
194,42.84280731458333,43.20076189583333,67.0,53.0
195,41.933716314583336,43.22917098958333,48.0,50.0
196,43.751898314583336,44.03977713125,65.0,57.0
197,43.751898314583336,44.07386804375,69.0,54.0
198,43.751898314583336,44.113640775,60.0,44.0
199,43.751898314583336,44.41288322916667,41.0,61.0
200,44.20644381458333,44.99053480208333,48.0,46.0
201,44.66098931458333,45.09280753958333,60.0,50.0
202,44.66098931458333,45.115534814583334,57.0,56.0
203,44.66098931458333,45.17614088125,53.0,59.0
204,45.115534814583334,45.42235302708333,65.0,61.0
205,45.570080314583336,46.03788339166667,62.0,54.0
206,46.251898564583335,46.445080402083335,60.0,61.0
207,46.02462581458333,46.61174708541667,58.0,53.0
208,46.47917131458333,46.668565272916666,62.0,64.0
209,45.79735306458333,46.797353164583335,53.0,50.0
210,45.570080314583336,46.83144407708333,46.0,54.0
211,46.70644406458333,46.886368325,65.0,66.0
212,46.933716814583335,47.16667138333333,67.0,60.0
213,47.16098956458333,47.22727745,69.0,53.0
214,47.388262314583336,47.93750479375,70.0,75.0
215,48.29735331458333,48.38068665625,70.0,30.0
216,47.388262314583336,48.5340957625,43.0,60.0
217,48.29735331458333,48.666671533333336,55.0,43.0
218,48.29735331458333,48.685610929166664,62.0,51.0
219,48.29735331458333,48.7613685125,65.0,53.0
220,47.84280781458333,48.92803519583333,50.0,42.0
221,49.20644431458334,50.015156516666664,43.0,46.0
222,49.66098981458333,50.06439894583333,50.0,49.0
223,50.11553531458333,50.26705048125,74.0,54.0
224,50.11553531458333,50.282201997916665,65.0,52.0
225,50.570080814583335,50.626899002083334,57.0,53.0
226,50.570080814583335,50.62879294166667,72.0,54.0
227,50.11553531458333,50.63258082083333,55.0,49.0
228,50.570080814583335,50.6363687,63.0,48.0
229,51.02462631458333,51.6704597125,63.0,60.0
230,51.02462631458333,51.74621729583333,67.0,53.0
231,51.93371731458333,52.19886885625,62.0,52.0
232,51.02462631458333,52.250005225,48.0,56.0
233,51.93371731458333,52.31061129166667,65.0,59.0
234,51.93371731458333,52.32576280833333,60.0,47.0
235,51.47917181458333,52.45644463958333,55.0,40.0
236,52.388262814583335,52.45644463958333,63.0,33.0
237,52.388262814583335,53.24621744583333,67.0,59.0
238,53.75189931458333,54.00568721875,60.0,53.0
239,53.299247754166664,54.16477814375,55.0,44.0
240,53.97917206458333,54.178035720833336,63.0,68.0
241,52.84470225416667,54.225384210416664,48.0,41.0
242,54.206444814583335,54.365535739583336,65.0,62.0
243,54.43371756458333,54.65530849583333,67.0,57.0
244,54.66099031458333,55.24621764583333,70.0,64.0
245,55.570081314583334,55.831444977083336,70.0,57.0
246,54.66099031458333,55.878793466666664,43.0,56.0
247,55.570081314583334,55.91477831875,62.0,51.0
248,55.570081314583334,55.967808627083336,55.0,49.0
249,55.570081314583334,55.96970256666667,67.0,53.0
250,55.11553581458333,56.03599045208333,50.0,44.0
251,56.024626814583335,56.19129349791667,69.0,50.0
252,56.47917231458333,56.94697539166667,67.0,54.0
253,56.47917231458333,56.96212690833333,63.0,53.0
254,56.47917231458333,56.96970266666666,58.0,61.0
255,56.93371781458333,57.66099061458333,55.0,41.0
256,56.47917231458333,57.662884554166666,48.0,59.0
257,57.388263314583334,57.662884554166666,58.0,61.0
258,57.388263314583334,57.785990627083336,63.0,69.0
259,57.842808814583336,58.05493004791666,65.0,59.0
260,58.29735431458333,58.73296041875,69.0,55.0
261,58.29735431458333,58.78977860625,65.0,56.0
262,58.29735431458333,58.80114224375,60.0,52.0
263,58.29735431458333,58.9886422625,38.0,43.0
264,58.75189981458333,59.29167259583333,50.0,46.0
265,59.206445314583334,59.54167262083333,69.0,53.0
266,59.206445314583334,59.67614233125,41.0,71.0
267,59.206445314583334,59.689399908333336,60.0,52.0
268,59.206445314583334,59.75189991458333,65.0,70.0
269,60.11553631458333,60.54167272083333,62.0,51.0
270,60.11553631458333,60.543566660416666,58.0,49.0
271,60.11553631458333,60.56629393541667,65.0,69.0
272,61.024627314583334,61.2613697625,57.0,67.0
273,60.79735456458333,61.27841521875,55.0,55.0
274,60.11553631458333,61.29356673541667,43.0,78.0
275,61.25190006458333,61.35796068125,58.0,63.0
276,60.57008181458333,61.484854633333335,50.0,57.0
277,61.479172814583336,61.66856677291667,62.0,60.0
278,61.70644556458333,61.859854670833336,67.0,65.0
279,61.93371831458333,62.25568804375,74.0,63.0
280,62.61553656458333,62.842809314583334,57.0,71.0
281,62.842809314583334,62.98485478333333,58.0,70.0
282,63.07008206458333,63.151521466666665,62.0,76.0
283,61.93371831458333,63.16477904375,43.0,66.0
284,62.38826381458333,63.202657835416666,55.0,73.0
285,62.160991064583335,63.2613699625,50.0,65.0
286,63.297354814583336,63.48674877291667,65.0,72.0
287,63.524627564583334,63.82197607916667,70.0,63.0
288,63.75190031458333,64.08144580208334,39.0,70.0
289,63.979173064583335,64.17993066041667,46.0,68.0
290,64.20644581458333,64.46023371875,51.0,57.0
291,63.75190031458333,64.61743070416667,63.0,80.0
292,63.75190031458333,64.70076404583334,67.0,77.0
293,64.66099131458333,64.85417315208333,55.0,87.0
294,64.43371856458333,64.86174891041667,53.0,70.0
295,64.88826406458334,65.04356711041666,58.0,78.0
296,65.11553681458334,65.36743077916667,63.0,74.0
297,65.34280956458333,65.51705200625,67.0,75.0
298,65.57008231458333,65.88447628541667,60.0,68.0
299,65.57008231458333,65.95644598958333,65.0,66.0
300,65.57008231458333,66.00758235833334,36.0,82.0
301,65.79735506458333,66.17424904166667,48.0,67.0
302,66.02462781458334,66.20833995416666,60.0,64.0
303,66.25190056458334,66.30871875208334,69.0,37.0
304,66.47917331458333,66.84659759375,69.0,86.0
305,66.47917331458333,66.85985517083333,60.0,61.0
306,66.47917331458333,66.90720366041667,41.0,78.0
307,66.47917331458333,66.96023396875,65.0,69.0
308,66.70644606458333,67.00190063958334,48.0,74.0
309,67.16099156458333,67.29167339583333,60.0,59.0
310,66.93371881458333,67.3522794625,53.0,77.0
311,67.38826431458334,67.82576435833333,70.0,77.0
312,67.38826431458334,67.87311284791667,65.0,71.0
313,68.07008256458333,68.2840977375,60.0,74.0
314,68.29735531458333,68.48674927291667,62.0,66.0
315,68.52462806458334,68.65530989583333,65.0,75.0
316,67.84280981458333,68.72349172083334,58.0,59.0
317,67.61553706458334,68.86364325,53.0,67.0
318,67.38826431458334,68.86743112916666,46.0,78.0
319,68.75190081458334,68.94129477291666,67.0,62.0
320,68.97917356458333,69.03030993333333,69.0,61.0
321,69.20644631458333,69.5340978625,43.0,79.0
322,69.43371906458333,69.61932514375,50.0,63.0
323,69.66099181458333,69.94887063125,55.0,53.0
324,69.20644631458333,70.07765852291666,62.0,69.0
325,69.20644631458333,70.17803732083334,70.0,85.0
326,70.11553731458334,70.28977975625,58.0,76.0
327,69.88826456458334,70.30493127291666,57.0,59.0
328,70.34281006458333,70.55114341875,62.0,57.0
329,70.57008281458333,70.75947677291667,65.0,58.0
330,70.79735556458333,71.05493134791666,70.0,67.0
331,71.02462831458334,71.38826471458333,36.0,80.0
332,71.47917381458333,71.76515869166667,48.0,60.0
333,71.02462831458334,71.99811326041667,63.0,74.0
334,71.02462831458334,72.0340981125,67.0,72.0
335,71.02462831458334,72.03977993125,58.0,69.0
336,71.70644656458333,72.08902236041666,50.0,57.0
337,71.93371931458333,72.26705268125,51.0,71.0
338,72.16099206458334,72.33334056666666,55.0,64.0
339,72.38826481458334,72.56061331666666,58.0,53.0
340,72.61553756458333,72.74053757708333,67.0,65.0
341,72.84281031458333,73.28220429791666,58.0,68.0
342,72.84281031458333,73.29167399583334,67.0,85.0
343,72.84281031458333,73.30871945208334,63.0,65.0
344,72.84281031458333,73.34849218333333,39.0,80.0
345,73.07008306458333,73.49811341041666,46.0,72.0
346,73.52462856458334,73.57576493333333,58.0,41.0
347,73.29735581458333,73.60417402708333,51.0,68.0
348,73.75190131458334,74.03599225208333,69.0,66.0
349,73.75190131458334,74.13826498958333,60.0,75.0
350,73.75190131458334,74.21023469375,65.0,71.0
351,73.75190131458334,74.25568924375,41.0,78.0
352,73.97917406458333,74.31629531041666,48.0,61.0
353,74.20644681458333,74.39584077291667,60.0,68.0
354,74.20644681458333,74.52841654375,53.0,62.0
355,74.66099231458334,75.03031053333333,70.0,66.0
356,74.66099231458334,75.10606811666666,62.0,54.0
357,74.66099231458334,75.12311357291667,65.0,64.0
358,75.11553781458333,75.26894692083333,58.0,72.0
359,74.88826506458334,75.3977348125,53.0,69.0
360,75.34281056458333,75.40341663125,60.0,68.0
361,74.66099231458334,75.45834087916667,46.0,80.0
362,75.57008331458333,75.69697726666666,62.0,70.0
363,75.79735606458333,75.95455305,65.0,76.0
364,76.02462881458334,76.29735611458334,60.0,65.0
365,76.02462881458334,76.3068258125,50.0,83.0
366,76.02462881458334,76.33523490625,67.0,79.0
367,76.25190156458333,76.38258339583334,69.0,79.0
368,76.47917431458333,76.82387131875,43.0,79.0
369,76.70644706458333,76.91288647916667,50.0,70.0
370,76.47917431458333,77.02841679375,62.0,69.0
371,76.47917431458333,77.09470467916667,70.0,85.0
372,76.93371981458333,77.1931895375,55.0,64.0
373,77.16099256458334,77.2613713625,62.0,50.0
374,77.16099256458334,77.34470470416666,69.0,73.0
375,77.38826531458334,77.5454623,62.0,73.0
376,77.38826531458334,77.65720473541667,58.0,82.0
377,77.38826531458334,77.68371988958333,70.0,87.0
378,77.16099256458334,77.70644716458334,57.0,68.0
379,77.84281081458333,78.09281083958334,70.0,82.0
380,78.29735631458334,78.47538663541667,39.0,75.0
381,78.29735631458334,78.76705333125,63.0,56.0
382,78.52462906458334,78.79735636458334,51.0,54.0
383,78.29735631458334,79.00568971875,58.0,64.0
384,78.29735631458334,79.022735175,67.0,79.0
385,78.97917456458333,79.27841701875,55.0,76.0
386,78.75379575416666,79.295462475,53.0,68.0
387,79.20644731458333,79.37311399791666,58.0,71.0
388,79.43372006458333,79.57387159375,63.0,83.0
389,79.66099281458334,79.86743222916667,67.0,81.0
390,79.88826556458334,80.16099286458333,70.0,75.0
391,80.11553831458333,80.522735325,65.0,75.0
392,80.11553831458333,80.59091715,41.0,79.0
393,80.57008381458333,80.6477353375,53.0,66.0
394,80.34281106458333,80.66856867291666,48.0,62.0
395,80.11553831458333,80.67993231041666,69.0,80.0
396,80.79735656458334,80.91288687916666,60.0,64.0
397,81.02462931458334,81.2613717625,65.0,87.0
398,81.25190206458333,81.44129602291666,67.0,73.0
399,81.47917481458333,81.59849300833334,69.0,70.0
400,81.70644756458333,81.9090991,70.0,62.0
401,81.93372031458334,82.07008396458333,65.0,48.0
402,81.93372031458334,82.2613718625,46.0,66.0
403,82.16099306458334,82.34659914375,53.0,63.0
404,81.93372031458334,82.61175068541667,74.0,74.0
405,82.38826581458333,82.71970524166666,58.0,54.0
406,82.61553856458333,82.94129617291667,60.0,62.0
407,82.84281131458333,82.97159920625,62.0,85.0
408,83.07008406458333,83.13069013125,65.0,64.0
409,83.29735681458334,83.48485683333334,70.0,56.0
410,83.52462956458334,83.74053867708334,72.0,53.0
411,83.75190231458333,83.9090993,70.0,86.0
412,84.20644781458333,84.73296301875,50.0,51.0
413,84.66099331458334,84.9886448625,55.0,65.0
414,84.66099331458334,85.00379637916667,58.0,68.0
415,84.66099331458334,85.02652365416667,62.0,60.0
416,83.75190231458333,85.07387214375,43.0,72.0
417,84.66099331458334,85.11743275416667,65.0,77.0
418,85.57008431458333,86.05114496875,63.0,57.0
419,85.57008431458333,86.05493284791666,58.0,54.0
420,85.57008431458333,86.08902376041667,67.0,56.0
421,86.47917531458333,86.88826626458334,58.0,64.0
422,86.47917531458333,86.93750869375,67.0,65.0
423,85.57008431458333,86.93940263333333,36.0,70.0
424,86.47917531458333,86.9431905125,63.0,74.0
425,86.02462981458334,86.99811476041667,48.0,45.0
426,87.38826631458333,87.795463325,60.0,63.0
427,87.38826631458333,87.82576635833334,57.0,54.0
428,87.38826631458333,87.83144817708333,65.0,64.0
429,88.29735731458334,88.59091795,65.0,67.0
430,87.38826631458333,88.64205431875,38.0,62.0
431,88.29735731458334,88.64963007708333,57.0,65.0
432,88.29735731458334,88.73485735833333,60.0,58.0
433,87.84281181458333,88.78031190833333,50.0,44.0
434,88.75190281458333,88.977281625,58.0,42.0
435,88.75190281458333,89.15152406666667,62.0,56.0
436,89.20644831458333,89.59659986875,57.0,61.0
437,89.20644831458333,89.66667563333333,60.0,70.0
438,89.66099381458334,90.08713022083333,58.0,52.0
439,89.66099381458334,90.15531204583333,62.0,56.0
440,90.11553931458333,90.58713027083333,60.0,69.0
441,89.20644831458333,90.61743330416667,43.0,61.0
442,90.11553931458333,90.62311512291667,55.0,53.0
443,89.66099381458334,90.71402422291666,50.0,51.0
444,90.57008481458334,90.90531212083333,58.0,66.0
445,91.02463031458333,91.59091825,62.0,79.0
446,91.02463031458333,91.62122128333333,67.0,82.0
447,91.02463031458333,91.63826673958333,58.0,82.0
448,91.02463031458333,92.06629708541666,55.0,53.0
449,91.02463031458333,92.13069103125,43.0,79.0
450,92.38826681458333,92.44129712291667,55.0,64.0
451,91.93372131458334,92.44129712291667,58.0,82.0
452,91.93372131458334,92.45834257916667,62.0,85.0
453,91.93372131458334,92.45834257916667,67.0,84.0
454,92.38826681458333,92.52841834375,43.0,79.0
455,92.84281231458333,93.24053962708334,51.0,71.0
456,92.84281231458333,93.35985782083333,63.0,77.0
457,92.84281231458333,93.3636457,58.0,76.0
458,92.84281231458333,93.3977366125,67.0,72.0
459,93.29735781458334,93.74243361666666,51.0,27.0
460,93.75190331458333,94.25758518333333,65.0,84.0
461,93.75190331458333,94.26894882083333,58.0,82.0
462,93.75190331458333,94.2727367,63.0,87.0
463,93.75190331458333,94.28220639791667,67.0,86.0
464,92.84281231458333,94.28978215625,39.0,67.0
465,94.20644881458334,94.31629731041667,51.0,60.0
466,94.66099431458333,94.91857009791667,48.0,73.0
467,94.66099431458333,95.09849435833333,58.0,75.0
468,94.66099431458333,95.10796405625,67.0,84.0
469,94.66099431458333,95.113645875,36.0,71.0
470,94.66099431458333,95.12311557291666,63.0,80.0
471,95.11553981458333,95.204554975,48.0,54.0
472,95.57008531458334,95.82197927916667,60.0,79.0
473,95.57008531458334,95.84281261458334,69.0,80.0
474,95.57008531458334,95.8750095875,65.0,79.0
475,95.57008531458334,96.00190353958334,41.0,70.0
476,95.57008531458334,96.10607021666667,53.0,81.0
477,96.02463081458333,96.11175203541667,62.0,79.0
478,96.02463081458333,96.15531264583333,70.0,88.0
479,96.47917631458333,96.81250968125,74.0,84.0
480,96.47917631458333,96.87311574791667,65.0,82.0
481,97.38826731458333,97.55114611875,60.0,81.0
482,97.16099456458333,97.65531279583334,58.0,77.0
483,97.61554006458333,97.78031280833333,62.0,76.0
484,96.47917631458333,97.78599462708333,46.0,70.0
485,96.93372181458334,97.78978250625,53.0,44.0
486,97.84281281458334,98.01894919583333,65.0,76.0
487,98.07008556458334,98.28220679791667,67.0,75.0
488,98.29735831458333,98.41099468958333,63.0,51.0
489,98.29735831458333,98.78599472708333,62.0,52.0
490,98.29735831458333,98.886373525,70.0,80.0
491,99.20644931458334,99.47160085625,62.0,59.0
492,98.29735831458333,99.47538873541667,43.0,79.0
493,98.75190381458333,99.51326752708333,50.0,42.0
494,99.20644931458334,99.52463116458333,70.0,66.0
495,99.20644931458334,99.62122208333334,55.0,51.0
496,99.66099481458333,100.08713122083333,65.0,77.0
497,100.11554031458333,100.61932824375,63.0,60.0
498,100.11554031458333,100.63258582083333,67.0,58.0
499,100.11554031458333,100.64584339791666,58.0,57.0
500,101.02463131458333,101.28788891666666,58.0,73.0
501,100.11554031458333,101.32008588958334,48.0,69.0
502,100.57008581458334,101.42993438541667,55.0,46.0
503,101.25190406458333,101.4886465125,63.0,77.0
504,101.47917681458333,101.68372228958333,67.0,73.0
505,101.70644956458334,102.03978293125,70.0,69.0
506,101.93372231458333,102.34470720416667,58.0,68.0
507,101.93372231458333,102.35417690208334,63.0,77.0
508,101.93372231458333,102.37879811666667,39.0,68.0
509,101.93372231458333,102.40341933125,67.0,77.0
510,102.38826781458333,102.50569206875,51.0,54.0
511,102.84281331458334,103.24432850625,60.0,69.0
512,102.84281331458334,103.2613739625,65.0,70.0
513,102.84281331458334,103.28599517708334,69.0,72.0
514,102.84281331458334,103.31251033125,41.0,61.0
515,102.84281331458334,103.45834367916666,53.0,61.0
516,103.29735881458333,103.52084368541666,67.0,67.0
517,103.52463156458333,103.73485885833334,69.0,67.0
518,103.75190431458333,104.18372253958333,65.0,70.0
519,103.75190431458333,104.30493467291667,70.0,75.0
520,104.66099531458333,104.85607109166666,58.0,60.0
521,104.66099531458333,104.87879836666667,65.0,69.0
522,103.75190431458333,104.91478321875,46.0,70.0
523,104.66099531458333,104.93561655416667,60.0,69.0
524,104.20644981458334,104.96213170833333,53.0,44.0
525,104.88826806458333,104.96213170833333,53.0,20.0
526,104.88826806458333,105.06629838541667,62.0,56.0
527,105.11554081458333,105.295465075,65.0,67.0
528,105.34281356458334,105.62122268333333,67.0,62.0
529,105.57008631458334,105.93940453333333,62.0,66.0
530,105.57008631458334,106.00758635833333,58.0,62.0
531,105.57008631458334,106.022737875,65.0,71.0
532,106.02463181458333,106.5341015625,50.0,41.0
533,106.47917731458334,106.70076824583333,58.0,54.0
534,106.47917731458334,106.72160158125,62.0,55.0
535,106.47917731458334,106.7386470375,55.0,58.0
536,105.57008631458334,106.80304098333333,43.0,70.0
537,106.70645006458334,106.90341978125,50.0,53.0
538,106.93372281458333,107.07387434375,57.0,66.0
539,107.16099556458333,107.38448043541666,58.0,62.0
540,107.38826831458333,107.81061684166667,55.0,63.0
541,107.38826831458333,107.81629866041666,62.0,70.0
542,107.84281381458334,108.25379870416667,51.0,53.0
543,108.07008656458333,108.46213205833334,55.0,65.0
544,108.29735931458333,108.57387449375,62.0,89.0
545,107.38826831458333,108.64205631875,39.0,57.0
546,107.61554106458334,108.72160178125,46.0,61.0
547,108.52463206458333,108.73675329791666,51.0,68.0
548,108.75190481458333,108.93372301458334,55.0,70.0
549,109.20645031458334,109.59092005,60.0,62.0
550,108.97917756458334,109.60985944583334,65.0,70.0
551,109.66099581458333,110.00758675833333,53.0,63.0
552,109.88826856458333,110.23107162916666,57.0,69.0
553,110.11554131458334,110.35417770208333,60.0,65.0
554,110.11554131458334,110.36175346041667,53.0,67.0
555,109.20645031458334,110.42235952708333,41.0,77.0
556,109.43372306458333,110.49243529166667,48.0,60.0
557,110.34281406458334,110.59092015,57.0,63.0
558,110.57008681458333,110.85417775208333,65.0,58.0
559,110.79735956458333,111.19698081666667,62.0,65.0
560,111.25190506458333,111.62311722291666,58.0,49.0
561,111.47917781458334,111.82008693958333,60.0,65.0
562,111.70645056458333,111.92804149583333,62.0,72.0
563,111.93372331458333,112.20645061458333,58.0,59.0
564,110.79735956458333,112.25948092291667,46.0,64.0
565,111.02463231458333,112.2727385,53.0,57.0
566,112.16099606458333,112.31819305,60.0,62.0
567,112.38826881458333,112.71781430208333,65.0,52.0
568,112.61554156458334,112.98675372291666,62.0,72.0
569,113.29735981458333,114.11175383541666,55.0,51.0
570,113.07008706458333,114.21213263333333,50.0,54.0
571,112.84281431458334,114.23485990833333,43.0,66.0
572,113.52463256458333,114.24622354583333,57.0,52.0
573,113.75190531458334,114.26895082083334,58.0,56.0
574,114.20645081458333,114.58145085208334,62.0,77.0
575,114.66099631458333,115.04925392916667,58.0,52.0
576,114.66099631458333,115.06629938541667,63.0,63.0
577,114.66099631458333,115.13637515,55.0,60.0
578,115.11554181458334,115.48107215416667,62.0,63.0
579,114.66099631458333,115.99243584166666,36.0,48.0
580,115.57008731458333,116.01895099583334,55.0,49.0
581,114.66099631458333,116.02463281458333,48.0,54.0
582,115.57008731458333,116.06629948541666,60.0,64.0
583,116.47917831458334,116.93561775416667,57.0,64.0
584,116.47917831458334,116.96402684791667,60.0,62.0
585,116.47917831458334,116.99432988125,53.0,63.0
586,116.47917831458334,117.61554206458334,50.0,64.0
587,117.38826931458333,117.74811783541666,57.0,47.0
588,117.38826931458333,117.80114814375,53.0,55.0
589,116.47917831458334,117.8068299625,38.0,53.0
590,117.38826931458333,117.85986027083334,60.0,58.0
591,117.84281481458333,117.96970876666667,50.0,50.0
592,118.29736031458333,118.84849673333333,62.0,62.0
593,118.29736031458333,118.92804219583333,58.0,51.0
594,118.29736031458333,119.05304220833334,43.0,64.0
595,118.75190581458334,119.08145130208334,50.0,40.0
596,118.97917856458334,119.10417857708333,55.0,57.0
597,119.20645131458333,119.31629981041667,57.0,57.0
598,119.43372406458333,119.613648325,58.0,50.0
599,119.66099681458333,119.86743622916667,60.0,46.0
600,119.88826956458334,119.97160290625,62.0,51.0
601,120.11554231458334,120.57387569375,58.0,42.0
602,120.11554231458334,120.659102975,62.0,49.0
603,120.11554231458334,121.38826971458333,43.0,58.0
604,121.02463331458333,121.40531517083333,57.0,39.0
605,121.02463331458333,121.46402729791667,55.0,49.0
606,121.02463331458333,121.477284875,60.0,47.0
607,121.47917881458334,121.55304245833334,58.0,34.0
608,120.57008781458333,121.64584549791667,50.0,37.0
609,121.47917881458334,121.84470915416667,62.0,52.0
610,121.93372431458333,122.38826981458334,58.0,44.0
611,121.93372431458333,122.54167892083333,65.0,51.0
612,122.38826981458334,122.93372441458334,50.0,38.0
613,122.84281531458333,123.08334564166667,58.0,44.0
614,122.84281531458333,123.18561837916667,62.0,48.0
615,121.93372431458333,123.22728505,43.0,46.0
616,122.84281531458333,123.53599720208334,55.0,51.0
617,123.75190631458334,124.14773968749999,60.0,56.0
618,123.75190631458334,124.34849728333333,63.0,59.0
619,123.75190631458334,124.98107310416667,48.0,54.0
620,124.66099731458333,125.0113761375,60.0,49.0
621,124.66099731458333,125.12880039166667,65.0,71.0
622,124.20645181458333,125.32766404791667,55.0,42.0
623,125.11554281458334,125.50758830833334,67.0,52.0
624,125.57008831458333,125.96402774791666,63.0,44.0
625,125.57008831458333,126.11175503541666,70.0,51.0
626,126.47917931458333,126.77842176875,60.0,51.0
627,126.47917931458333,126.84849753333333,63.0,43.0
628,126.47917931458333,126.8977399625,67.0,47.0
629,126.02463381458334,126.92993693541666,55.0,35.0
630,125.57008831458333,126.95645208958334,48.0,48.0
631,127.38827031458334,127.75569459375,67.0,21.0
632,127.38827031458334,127.81251278124999,62.0,30.0
633,127.38827031458334,127.81630066041667,58.0,42.0
634,127.38827031458334,128.64205831875,43.0,60.0
635,128.29736131458333,128.6931946875,62.0,49.0
636,128.29736131458333,128.72160378125,67.0,47.0
637,127.84281581458333,128.7272856,50.0,43.0
638,128.29736131458333,128.74811893541667,58.0,37.0
639,128.29736131458333,128.81440682083334,55.0,47.0
640,129.20645231458334,129.63069478124999,63.0,51.0
641,129.20645231458334,129.67804327083334,67.0,55.0
642,129.66099781458334,129.96402814791668,62.0,38.0
643,129.66099781458334,130.09470997916668,65.0,63.0
644,130.11554331458333,130.39016455416666,60.0,45.0
645,130.11554331458333,130.43751304375,63.0,44.0
646,129.66099781458334,130.46024031875,55.0,41.0
647,130.11554331458333,130.47349789583333,67.0,53.0
648,129.20645231458334,130.50190698958335,48.0,50.0
649,131.02463431458332,131.31251313125,65.0,57.0
650,131.02463431458332,131.34660404375,69.0,54.0
651,131.02463431458332,131.386376775,60.0,44.0
652,131.02463431458332,131.68561922916666,41.0,61.0
653,131.47917981458335,132.26327080208333,48.0,46.0
654,131.93372531458334,132.36554353958334,60.0,50.0
655,131.93372531458334,132.38827081458334,57.0,56.0
656,131.93372531458334,132.44887688125,53.0,59.0
657,132.38827081458334,132.69508902708333,65.0,61.0
658,132.84281631458333,133.31061939166668,62.0,54.0
659,133.52463456458332,133.71781640208334,60.0,61.0
660,133.29736181458333,133.88448308541666,58.0,53.0
661,133.75190731458332,133.94130127291666,62.0,64.0
662,133.07008906458333,134.07008916458332,53.0,50.0
663,132.84281631458333,134.10418007708333,46.0,54.0
664,133.97918006458335,134.159104325,65.0,66.0
665,134.20645281458334,134.43940738333333,67.0,60.0
666,134.43372556458334,134.50001345,69.0,53.0
667,134.66099831458334,135.21024079375,70.0,75.0
668,135.57008931458333,135.65342265625,70.0,30.0
669,134.66099831458334,135.8068317625,43.0,60.0
670,135.57008931458333,135.93940753333334,55.0,43.0
671,135.57008931458333,135.95834692916668,62.0,51.0
672,135.57008931458333,136.0341045125,65.0,53.0
673,135.11554381458333,136.20077119583334,50.0,42.0
674,136.47918031458335,137.28789251666666,43.0,46.0
675,136.93372581458334,137.33713494583333,50.0,49.0
676,137.38827131458333,137.53978648125,74.0,54.0
677,137.38827131458333,137.55493799791665,65.0,52.0
678,137.84281681458333,137.89963500208333,57.0,53.0
679,137.84281681458333,137.90152894166667,72.0,54.0
680,137.38827131458333,137.90531682083332,55.0,49.0
681,137.84281681458333,137.9091047,63.0,48.0
682,138.29736231458332,138.9431957125,63.0,60.0
683,138.29736231458332,139.01895329583334,67.0,53.0
684,139.20645331458334,139.47160485625,62.0,52.0
685,138.29736231458332,139.522741225,48.0,56.0
686,139.20645331458334,139.58334729166666,65.0,59.0
687,139.20645331458334,139.59849880833335,60.0,47.0
688,138.75190781458332,139.72918063958332,55.0,40.0
689,139.66099881458334,139.72918063958332,63.0,33.0
690,139.66099881458334,140.51895344583335,67.0,59.0
691,141.02463531458332,141.27842321875,60.0,53.0
692,140.57198375416667,141.43751414375,55.0,44.0
693,141.25190806458335,141.45077172083333,63.0,68.0
694,140.11743825416667,141.49812021041666,48.0,41.0
695,141.47918081458334,141.63827173958333,65.0,62.0
696,141.70645356458334,141.92804449583332,67.0,57.0
697,141.93372631458334,142.51895364583334,70.0,64.0
698,142.84281731458333,143.10418097708333,70.0,57.0
699,141.93372631458334,143.15152946666666,43.0,56.0
700,142.84281731458333,143.18751431875,62.0,51.0
701,142.84281731458333,143.24054462708332,55.0,49.0
702,142.84281731458333,143.24243856666666,67.0,53.0
703,142.38827181458333,143.30872645208333,50.0,44.0
704,143.29736281458332,143.46402949791667,69.0,50.0
705,143.75190831458335,144.21971139166666,67.0,54.0
706,143.75190831458335,144.23486290833333,63.0,53.0
707,143.75190831458335,144.24243866666666,58.0,61.0
708,144.20645381458334,144.93372661458332,55.0,41.0
709,143.75190831458335,144.93562055416666,48.0,59.0
710,144.66099931458334,144.93562055416666,58.0,61.0
711,144.66099931458334,145.05872662708333,63.0,69.0
712,145.11554481458333,145.32766604791667,65.0,59.0
713,145.57009031458333,146.00569641875,69.0,55.0
714,145.57009031458333,146.06251460625,65.0,56.0
715,145.57009031458333,146.07387824375,60.0,52.0
716,145.57009031458333,146.2613782625,38.0,43.0
717,146.02463581458332,146.56440859583333,50.0,46.0
718,146.47918131458334,146.81440862083332,69.0,53.0
719,146.47918131458334,146.94887833125,41.0,71.0
720,146.47918131458334,146.96213590833332,60.0,52.0
721,146.47918131458334,147.02463591458334,65.0,70.0
722,147.38827231458333,147.81440872083334,62.0,51.0
723,147.38827231458333,147.81630266041665,58.0,49.0
724,147.38827231458333,147.83902993541668,65.0,69.0
725,148.29736331458332,148.5341057625,57.0,67.0
726,148.07009056458332,148.55115121875,55.0,55.0
727,147.38827231458333,148.56630273541666,43.0,78.0
728,148.52463606458332,148.63069668125,58.0,63.0
729,147.84281781458333,148.75759063333334,50.0,57.0
730,148.75190881458335,148.94130277291666,62.0,60.0
731,148.97918156458334,149.13259067083334,67.0,65.0
732,149.20645431458334,149.52842404375,74.0,63.0
733,149.88827256458333,150.11554531458333,57.0,71.0
734,150.11554531458333,150.25759078333334,58.0,70.0
735,150.34281806458333,150.42425746666666,62.0,76.0
736,149.20645431458334,150.43751504375,43.0,66.0
737,149.66099981458333,150.47539383541667,55.0,73.0
738,149.43372706458334,150.5341059625,50.0,65.0
739,150.57009081458332,150.75948477291666,65.0,72.0
740,150.79736356458332,151.09471207916667,70.0,63.0
741,151.02463631458332,151.35418180208333,39.0,70.0
742,151.25190906458334,151.45266666041667,46.0,68.0
743,151.47918181458334,151.73296971875,51.0,57.0
744,151.02463631458332,151.89016670416666,63.0,80.0
745,151.02463631458332,151.97350004583333,67.0,77.0
746,151.93372731458334,152.12690915208333,55.0,87.0
747,151.70645456458334,152.13448491041666,53.0,70.0
748,152.16100006458333,152.31630311041667,58.0,78.0
749,152.38827281458333,152.64016677916666,63.0,74.0
750,152.61554556458333,152.78978800625,67.0,75.0
751,152.84281831458333,153.15721228541668,60.0,68.0
752,152.84281831458333,153.22918198958334,65.0,66.0
753,152.84281831458333,153.28031835833335,36.0,82.0
754,153.07009106458332,153.44698504166666,48.0,67.0
755,153.29736381458332,153.48107595416667,60.0,64.0
756,153.52463656458335,153.58145475208335,69.0,37.0
757,153.75190931458334,154.11933359374999,69.0,86.0
758,153.75190931458334,154.13259117083334,60.0,61.0
759,153.75190931458334,154.17993966041666,41.0,78.0
760,153.75190931458334,154.23296996875,65.0,69.0
761,153.97918206458334,154.27463663958332,48.0,74.0
762,154.43372756458334,154.56440939583334,60.0,59.0
763,154.20645481458334,154.6250154625,53.0,77.0
764,154.66100031458333,155.09850035833333,70.0,77.0
765,154.66100031458333,155.14584884791665,65.0,71.0
766,155.34281856458333,155.5568337375,60.0,74.0
767,155.57009131458332,155.75948527291666,62.0,66.0
768,155.79736406458332,155.92804589583332,65.0,75.0
769,155.11554581458333,155.99622772083333,58.0,59.0
770,154.88827306458333,156.13637925,53.0,67.0
771,154.66100031458333,156.14016712916666,46.0,78.0
772,156.02463681458335,156.21403077291666,67.0,62.0
773,156.25190956458334,156.30304593333332,69.0,61.0
774,156.47918231458334,156.80683386249999,43.0,79.0
775,156.70645506458334,156.89206114375,50.0,63.0
776,156.93372781458334,157.22160663125,55.0,53.0
777,156.47918231458334,157.35039452291667,62.0,69.0
778,156.47918231458334,157.45077332083332,70.0,85.0
779,157.38827331458333,157.56251575625,58.0,76.0
780,157.16100056458333,157.57766727291667,57.0,59.0
781,157.61554606458333,157.82387941875,62.0,57.0
782,157.84281881458332,158.03221277291667,65.0,58.0
783,158.07009156458332,158.32766734791667,70.0,67.0
784,158.29736431458332,158.66100071458334,36.0,80.0
785,158.75190981458334,159.03789469166668,48.0,60.0
786,158.29736431458332,159.27084926041667,63.0,74.0
787,158.29736431458332,159.3068341125,67.0,72.0
788,158.29736431458332,159.31251593125,58.0,69.0
789,158.97918256458334,159.36175836041667,50.0,57.0
790,159.20645531458334,159.53978868125,51.0,71.0
791,159.43372806458333,159.60607656666667,55.0,64.0
792,159.66100081458333,159.83334931666667,58.0,53.0
793,159.88827356458333,160.01327357708334,67.0,65.0
794,160.11554631458333,160.55494029791666,58.0,68.0
795,160.11554631458333,160.56440999583333,67.0,85.0
796,160.11554631458333,160.58145545208333,63.0,65.0
797,160.11554631458333,160.62122818333333,39.0,80.0
798,160.34281906458332,160.77084941041667,46.0,72.0
799,160.79736456458332,160.84850093333333,58.0,41.0
800,160.57009181458332,160.87691002708334,51.0,68.0
801,161.02463731458334,161.30872825208334,69.0,66.0
802,161.02463731458334,161.41100098958333,60.0,75.0
803,161.02463731458334,161.48297069375,65.0,71.0
804,161.02463731458334,161.52842524375,41.0,78.0
805,161.25191006458334,161.58903131041666,48.0,61.0
806,161.47918281458334,161.66857677291668,60.0,68.0
807,161.47918281458334,161.80115254375,53.0,62.0
808,161.93372831458333,162.30304653333334,70.0,66.0
809,161.93372831458333,162.37880411666666,62.0,54.0
810,161.93372831458333,162.39584957291666,65.0,64.0
811,162.38827381458333,162.54168292083332,58.0,72.0
812,162.16100106458333,162.67047081249999,53.0,69.0
813,162.61554656458333,162.67615263125,60.0,68.0
814,161.93372831458333,162.73107687916666,46.0,80.0
815,162.84281931458332,162.96971326666667,62.0,70.0
816,163.07009206458332,163.22728905,65.0,76.0
817,163.29736481458335,163.57009211458333,60.0,65.0
818,163.29736481458335,163.5795618125,50.0,83.0
819,163.29736481458335,163.60797090625,67.0,79.0
820,163.52463756458334,163.65531939583335,69.0,79.0
821,163.75191031458334,164.09660731875,43.0,79.0
822,163.97918306458334,164.18562247916665,50.0,70.0
823,163.75191031458334,164.30115279375,62.0,69.0
824,163.75191031458334,164.36744067916666,70.0,85.0
825,164.20645581458334,164.4659255375,55.0,64.0
826,164.43372856458333,164.5341073625,62.0,50.0
827,164.43372856458333,164.61744070416665,69.0,73.0
828,164.66100131458333,164.8181983,62.0,73.0
829,164.66100131458333,164.92994073541666,58.0,82.0
830,164.66100131458333,164.95645588958334,70.0,87.0
831,164.43372856458333,164.97918316458333,57.0,68.0
832,165.11554681458333,165.36554683958335,70.0,82.0
833,165.57009231458332,165.74812263541668,39.0,75.0
834,165.57009231458332,166.03978933125,63.0,56.0
835,165.79736506458335,166.07009236458333,51.0,54.0
836,165.57009231458332,166.27842571875,58.0,64.0
837,165.57009231458332,166.295471175,67.0,79.0
838,166.25191056458334,166.55115301875,55.0,76.0
839,166.02653175416665,166.568198475,53.0,68.0
840,166.47918331458334,166.64584999791666,58.0,71.0
841,166.70645606458334,166.84660759375,63.0,83.0
842,166.93372881458333,167.14016822916668,67.0,81.0
843,167.16100156458333,167.43372886458334,70.0,75.0
844,167.38827431458333,167.795471325,65.0,75.0
845,167.38827431458333,167.86365315,36.0,79.0
846,167.84281981458332,167.9204713375,48.0,66.0
847,167.61554706458332,167.94130467291666,43.0,62.0
848,167.38827431458333,167.95266831041667,69.0,80.0
849,168.29736531458335,168.53410776249999,65.0,87.0
850,168.52463806458334,168.71403202291665,67.0,73.0
851,168.295471375,168.77085021041665,41.0,79.0
852,168.750016875,168.82766839791665,57.0,66.0
853,168.522744125,168.84850173333334,48.0,62.0
854,168.75191081458334,168.87122900833333,69.0,70.0
855,168.97918356458334,169.1818351,70.0,62.0
856,169.20645631458333,169.34281996458333,65.0,48.0
857,169.20645631458333,169.5341078625,46.0,66.0
858,169.43372906458333,169.61933514375,53.0,63.0
859,169.20645631458333,169.88448668541668,74.0,74.0
860,169.66100181458333,169.99244124166665,58.0,54.0
861,169.88827456458333,170.21403217291666,60.0,62.0
862,170.11554731458332,170.24433520624999,62.0,85.0
863,170.34282006458332,170.40342613125,65.0,64.0
864,170.57009281458332,170.75759283333332,70.0,56.0
865,170.79736556458334,171.01327467708333,72.0,53.0
866,171.02463831458334,171.1818353,70.0,86.0
867,171.47918381458334,172.00569901875,50.0,51.0
868,171.93372931458333,172.2613808625,55.0,65.0
869,171.93372931458333,172.27653237916667,58.0,68.0
870,171.93372931458333,172.29925965416666,62.0,60.0
871,171.02463831458334,172.34660814375,43.0,72.0
872,171.93372931458333,172.39016875416667,65.0,77.0
873,172.84282031458332,173.32388096875,63.0,57.0
874,172.84282031458332,173.32766884791667,58.0,54.0
875,172.84282031458332,173.36175976041667,67.0,56.0
876,173.75191131458334,174.16100226458335,58.0,64.0
877,173.75191131458334,174.21024469375,67.0,65.0
878,172.84282031458332,174.21213863333332,36.0,70.0
879,173.75191131458334,174.2159265125,63.0,74.0
880,173.29736581458334,174.27085076041666,48.0,45.0
881,174.66100231458333,175.068199325,60.0,63.0
882,174.66100231458333,175.09850235833332,57.0,54.0
883,174.66100231458333,175.10418417708334,65.0,64.0
884,175.57009331458335,175.86365394999999,65.0,67.0
885,174.66100231458333,175.91479031875,38.0,62.0
886,175.57009331458335,175.92236607708332,57.0,65.0
887,175.57009331458335,176.00759335833334,60.0,58.0
888,175.11554781458332,176.05304790833333,50.0,44.0
889,176.02463881458334,176.250017625,58.0,42.0
890,176.02463881458334,176.42426006666668,62.0,56.0
891,176.47918431458334,176.86933586875,57.0,61.0
892,176.47918431458334,176.93941163333332,60.0,70.0
893,176.93372981458333,177.35986622083334,58.0,52.0
894,176.93372981458333,177.42804804583332,62.0,56.0
895,177.38827531458332,177.85986627083332,60.0,69.0
896,176.47918431458334,177.89016930416668,43.0,61.0
897,177.38827531458332,177.89585112291667,55.0,53.0
898,176.93372981458333,177.98676022291667,50.0,51.0
899,177.84282081458332,178.17804812083332,58.0,66.0
900,178.29736631458334,178.71024514375,70.0,57.0
901,178.29736631458334,178.75948757291667,74.0,60.0
902,178.75191181458334,179.16100276458334,69.0,49.0
903,178.75191181458334,179.26706338125,72.0,62.0
904,179.20645731458333,179.48676037291668,67.0,62.0
905,178.29736631458334,179.60797250625,55.0,50.0
906,178.75191181458334,179.62123008333333,62.0,41.0
907,179.20645731458333,179.64016947916667,74.0,61.0
908,179.20645731458333,179.66668463333335,70.0,60.0
909,179.66100281458333,179.77085131041667,77.0,53.0
910,180.11554831458332,180.568199875,67.0,50.0
911,180.11554831458332,180.568199875,70.0,57.0
912,180.11554831458332,180.98107870416666,75.0,60.0
913,181.02463931458334,181.42236662708333,63.0,52.0
914,180.11554831458332,181.46971511666666,51.0,54.0
915,180.568199875,181.53789694166667,58.0,45.0
916,181.02463931458334,181.57766967291667,65.0,52.0
917,181.02463931458334,181.57766967291667,70.0,56.0
918,181.93373031458333,182.38259399583333,65.0,55.0
919,181.93373031458333,182.80304858333332,74.0,56.0
920,181.93373031458333,183.1022910375,53.0,68.0
921,182.38827581458332,183.250018325,60.0,50.0
922,182.84282131458335,183.32198802916668,72.0,67.0
923,182.84282131458335,183.3295637875,65.0,58.0
924,183.29736681458334,183.77274565,70.0,57.0
925,183.75191231458334,184.13259417083333,74.0,57.0
926,183.75191231458334,184.16857902291667,65.0,51.0
927,184.66100331458333,184.9204730375,58.0,53.0
928,183.75191231458334,185.00759425833334,46.0,53.0
929,184.88827606458332,185.03789729166667,60.0,61.0
930,184.20645781458333,185.05304880833333,53.0,43.0
931,185.11554881458332,185.18562457916667,62.0,46.0
932,185.34282156458335,185.522745825,65.0,57.0
933,185.57009431458334,186.05494284791666,70.0,61.0
934,186.02463981458334,186.45835197916668,67.0,65.0
935,185.57009431458334,186.71403382291666,43.0,60.0
936,186.02463981458334,186.79926110416667,50.0,46.0
937,186.47918531458333,186.82577625833332,55.0,47.0
938,186.47918531458333,186.88070050625,65.0,58.0
939,186.93373081458333,186.99244294166667,62.0,56.0
940,187.38827631458332,187.97539758541666,58.0,50.0
941,187.38827631458332,188.11554911458333,63.0,40.0
942,187.38827631458332,188.21403397291667,67.0,52.0
943,187.38827631458332,188.50380672916666,48.0,45.0
944,187.38827631458332,188.55304915833332,55.0,57.0
945,188.75191281458333,189.295473475,74.0,60.0
946,189.20645831458333,189.64395835833332,65.0,54.0
947,189.20645831458333,189.66857957291666,72.0,68.0
948,189.66100381458332,190.19888265625,70.0,68.0
949,190.11554931458332,190.25948872291667,72.0,75.0
950,190.11554931458332,190.32767054791665,65.0,61.0
951,189.20645831458333,190.44888268125,53.0,63.0
952,189.66100381458332,190.44888268125,60.0,41.0
953,190.57009481458334,190.73486755833332,77.0,69.0
954,191.02464031458334,191.28789791666668,74.0,69.0
955,191.70645856458333,191.79357978541665,60.0,59.0
956,191.47918581458333,191.95456465,58.0,62.0
957,191.02464031458334,192.0795646625,46.0,59.0
958,191.93373131458333,192.09850405833333,62.0,72.0
959,191.25191306458333,192.1477464875,53.0,60.0
960,192.16100406458332,192.30115559375,65.0,70.0
961,192.38827681458332,192.61554956458332,67.0,64.0
962,192.38827681458332,192.64964047708332,45.0,76.0
963,192.61554956458332,192.67236775208335,69.0,71.0
964,192.84282231458334,193.17994356041666,43.0,85.0
965,193.07009506458334,193.28221629791668,50.0,65.0
966,193.29736781458334,193.54736783958333,55.0,62.0
967,192.84282231458334,193.75380725416667,70.0,86.0
968,192.84282231458334,193.79357998541667,62.0,76.0
969,193.52464056458334,193.9091103,57.0,66.0
970,193.75191331458333,193.91668605833334,58.0,81.0
971,193.97918606458333,194.19130729791667,62.0,67.0
972,194.20645881458333,194.38259519583335,67.0,61.0
973,194.66100431458332,194.93941343333333,58.0,58.0
974,194.66100431458332,195.00380737916666,63.0,70.0
975,194.66100431458332,195.09282253958332,67.0,67.0
976,194.43373156458333,195.09850435833334,70.0,64.0
977,195.11554981458335,195.37312559791667,58.0,52.0
978,195.11554981458335,195.53600440208334,65.0,63.0
979,195.57009531458334,195.79926200416668,51.0,74.0
980,195.57009531458334,195.94698929166665,58.0,73.0
981,194.66100431458332,195.95077717083333,39.0,69.0
982,195.57009531458334,196.01706505625,67.0,81.0
983,196.477292375,196.86744392916665,60.0,72.0
984,196.477292375,196.88827726458334,64.0,73.0
985,196.47918631458333,196.89395908333333,36.0,68.0
986,196.51517116666668,196.91858029791666,55.0,64.0
987,196.47918631458333,196.94888333125,48.0,72.0
988,197.386383375,197.7272925,29.0,68.0
989,197.386383375,197.7272925,41.0,72.0
990,197.386383375,197.77653492916667,60.0,72.0
991,197.38827731458332,197.8295652375,65.0,73.0
992,197.386383375,197.83145917708333,57.0,68.0
993,197.84282281458334,197.89395918333332,63.0,59.0
994,197.84282281458334,197.8977470625,41.0,58.0
995,198.29736831458334,198.69698956666667,34.0,70.0
996,198.75191381458333,199.25948962291667,46.0,59.0
997,198.29736831458334,199.36176236041666,62.0,65.0
998,198.29736831458334,199.53600480208334,58.0,56.0
999,199.66100481458332,199.71024724375,53.0,77.0
1000,198.29736831458334,199.71024724375,65.0,64.0
1001,199.20645931458333,199.77274725,50.0,68.0
1002,200.11555031458334,200.30115639375,62.0,52.0
1003,200.11555031458334,200.34661094375,58.0,55.0
1004,200.11555031458334,200.53032308333334,65.0,64.0
1005,200.57009581458334,200.62691400208334,60.0,26.0
1006,200.57009581458334,200.66289885416666,62.0,36.0
1007,200.57009581458334,200.87880796666667,57.0,38.0
1008,201.02464131458333,201.33145952708333,55.0,59.0
1009,200.11555031458334,201.43941408333333,43.0,77.0
1010,201.02464131458333,201.44509590208332,58.0,58.0
1011,200.57009581458334,201.44888378125,50.0,51.0
1012,201.02464131458333,201.46971711666666,62.0,61.0
1013,201.93373231458332,202.26517174166668,55.0,51.0
1014,201.93373231458332,202.39395963333334,58.0,59.0
1015,201.93373231458332,202.92236877708334,63.0,62.0
1016,201.93373231458332,203.0909294,48.0,53.0
1017,202.84282331458334,203.21024759375,55.0,55.0
1018,202.38827781458332,203.24433850625,51.0,49.0
1019,202.84282331458334,203.26706578125,58.0,52.0
1020,203.75191431458333,204.24623254583332,53.0,51.0
1021,203.75191431458333,204.25191436458334,57.0,52.0
1022,203.75191431458333,204.26327800208333,60.0,51.0
1023,203.75191431458333,204.31252043125,65.0,32.0
1024,203.75191431458333,205.00570231875,38.0,55.0
1025,204.66100531458332,205.04736898958333,57.0,40.0
1026,204.43373256458332,205.0909296,50.0,27.0
1027,204.66100531458332,205.16100536458333,53.0,50.0
1028,204.66100531458332,205.17805082083333,60.0,62.0
1029,205.57009631458334,205.9659296875,58.0,44.0
1030,205.57009631458334,205.99055090208333,62.0,50.0
1031,206.02464181458333,206.29358123541667,57.0,66.0
1032,206.25191456458333,206.50570246875,58.0,70.0
1033,206.47918731458333,206.5568388375,60.0,78.0
1034,206.47918731458333,206.81252068125,55.0,65.0
1035,206.70646006458333,206.8522934125,62.0,70.0
1036,205.57009631458334,206.98297524375,43.0,56.0
1037,206.93373281458332,207.0795661625,55.0,52.0
1038,206.02464181458333,207.10039949791667,50.0,44.0
1039,206.93373281458332,207.11176313541665,67.0,88.0
1040,207.16100556458332,207.37312679791665,69.0,85.0
1041,207.38827831458335,207.67615713125,43.0,84.0
1042,207.61555106458334,207.80873290208334,50.0,72.0
1043,207.84282381458334,208.11933899375,55.0,77.0
1044,207.38827831458335,208.3068390125,62.0,83.0
1045,207.38827831458335,208.34661174375,70.0,85.0
1046,208.07009656458334,208.42994508541668,57.0,79.0
1047,208.29736931458334,208.44130872291666,58.0,92.0
1048,208.52464206458333,208.82388451875,62.0,78.0
1049,208.75191481458333,208.99055120208334,65.0,88.0
1050,208.97918756458333,209.28032395833333,70.0,84.0
1051,209.20646031458332,209.53032398333335,58.0,77.0
1052,209.20646031458332,209.54926337916666,39.0,78.0
1053,209.20646031458332,209.5795664125,63.0,87.0
1054,209.20646031458332,209.65153611666668,67.0,87.0
1055,209.43373306458332,209.659111875,46.0,72.0
1056,209.66100581458332,209.74623309583333,58.0,50.0
1057,209.66100581458332,209.85608159166668,65.0,70.0
1058,209.88827856458335,209.92994523541665,63.0,71.0
1059,209.66100581458332,209.95077857083334,51.0,70.0
1060,209.88827856458335,209.97161190625,58.0,76.0
1061,209.88827856458335,210.01327857708333,67.0,90.0
1062,209.88827856458335,210.17236950208334,53.0,88.0
1063,210.11555131458334,210.21024829375,55.0,95.0
1064,210.34282406458334,210.4432028625,58.0,85.0
1065,210.57009681458334,210.7159301625,63.0,84.0
1066,210.79736956458333,210.85039987291665,40.0,54.0
1067,210.79736956458333,210.94888473125,70.0,89.0
1068,211.02464231458333,211.3295665875,55.0,76.0
1069,211.02464231458333,211.36744537916667,58.0,76.0
1070,211.02464231458333,211.36933931875,63.0,75.0
1071,211.02464231458333,211.49623327083333,36.0,89.0
1072,211.47918781458333,211.74244541666667,55.0,67.0
1073,211.25191506458333,211.91479391875,48.0,75.0
1074,211.70646056458332,212.0000212,58.0,77.0
1075,211.93373331458332,212.33335456666666,65.0,76.0
1076,211.93373331458332,212.38827881458334,57.0,79.0
1077,211.93373331458332,212.41100608958334,60.0,79.0
1078,212.16100606458332,212.69699096666668,48.0,69.0
1079,211.93373331458332,212.71024854375,41.0,87.0
1080,212.38827881458334,212.73486975833333,53.0,82.0
1081,212.61555156458334,212.840930375,58.0,77.0
1082,212.61555156458334,212.91668795833334,77.0,88.0
1083,212.84282431458334,213.18562737916668,74.0,85.0
1084,213.07009706458334,213.18941525833333,70.0,29.0
1085,212.84282431458334,213.250021325,65.0,79.0
1086,213.52464256458333,213.6932031875,60.0,73.0
1087,213.75191531458333,213.82767289791667,62.0,81.0
1088,213.29736981458333,214.05305170833333,58.0,78.0
1089,213.97918806458333,214.10418807708334,65.0,91.0
1090,212.84282431458334,214.16100626458334,46.0,81.0
1091,213.07009706458334,214.1818396,53.0,74.0
1092,214.20646081458332,214.32577900833334,67.0,84.0
1093,214.43373356458332,214.61555176458333,70.0,86.0
1094,214.66100631458335,214.9659305875,43.0,79.0
1095,214.88827906458334,215.07199120416666,50.0,72.0
1096,215.11555181458334,215.40532457083333,55.0,70.0
1097,214.66100631458335,215.52085488541667,74.0,90.0
1098,215.57009731458334,215.72161248125,58.0,92.0
1099,215.34282456458334,215.74244581666667,57.0,76.0
1100,215.79737006458333,215.93752159375,67.0,78.0
1101,216.02464281458333,216.2159307125,70.0,77.0
1102,216.25191556458333,216.58903681041667,74.0,76.0
1103,216.47918831458333,216.81630956041667,72.0,87.0
1104,217.16100656458335,217.4886581125,63.0,69.0
1105,216.70646106458332,217.54358236041668,55.0,69.0
1106,216.93373381458332,217.55873387708334,60.0,57.0
1107,217.38827931458334,217.69130964791665,70.0,83.0
1108,217.61555206458334,217.82009753958334,63.0,63.0
1109,216.47918831458333,217.87691572708334,48.0,72.0
1110,217.84282481458334,217.90343088125,55.0,80.0
1111,217.84282481458334,218.068203625,65.0,76.0
1112,218.07009756458334,218.41290062916667,70.0,83.0
1113,218.29737031458333,218.65343095625,67.0,81.0
1114,218.29737031458333,218.66290065416666,63.0,81.0
1115,218.29737031458333,218.72161278125,58.0,79.0
1116,218.29737031458333,218.76896127083333,39.0,85.0
1117,218.75191581458333,218.84661279375,51.0,82.0
1118,218.52464306458333,218.85418855208334,46.0,80.0
1119,219.20646131458332,219.47350679583334,53.0,73.0
1120,219.20646131458332,219.52843104375,63.0,84.0
1121,219.20646131458332,219.53790074166668,58.0,57.0
1122,219.20646131458332,219.58903711041665,41.0,78.0
1123,219.43562800416666,219.59471892916667,48.0,82.0
1124,219.66100681458335,219.88449168541666,53.0,62.0
1125,219.88827956458334,220.05873412708334,63.0,78.0
1126,220.11555231458334,220.34282506458334,34.0,78.0
1127,220.34282506458334,220.63449176041667,46.0,47.0
1128,220.11555231458334,220.81062814166665,62.0,77.0
1129,220.57009781458333,220.84850693333334,48.0,73.0
1130,220.11555231458334,220.84850693333334,53.0,77.0
1131,220.11555231458334,220.84850693333334,58.0,78.0
1132,220.79737056458333,220.909113,50.0,90.0
1133,221.02464331458333,221.14396150833332,53.0,73.0
1134,221.25191606458333,221.431840325,53.0,54.0
1135,221.25191606458333,221.51896154583332,45.0,98.0
1136,221.25191606458333,221.55494639791667,60.0,85.0
1137,221.47918881458332,222.04168887083333,65.0,71.0
1138,221.93373431458332,222.43752224375,58.0,82.0
1139,221.93373431458332,222.5113858875,62.0,89.0
1140,222.61555256458334,222.71024954375,57.0,65.0
1141,222.61555256458334,222.76896167083333,60.0,72.0
1142,222.38827981458334,222.84661319375,55.0,72.0
1143,222.84282531458334,223.05873442708332,58.0,85.0
1144,222.84282531458334,223.12881019166667,62.0,87.0
1145,223.07009806458333,223.17994656041665,55.0,74.0
1146,221.93373431458332,223.21024959375,43.0,91.0
1147,222.16100706458334,223.22161323125,50.0,72.0
1148,223.29737081458333,223.48297689375,58.0,85.0
1149,223.52464356458333,223.65721933541667,65.0,83.0
1150,223.75191631458333,224.15153756666666,63.0,87.0
1151,223.75191631458333,224.19888605625,55.0,71.0
1152,223.75191631458333,224.24055272708333,58.0,88.0
1153,224.43373456458335,224.50759820833332,53.0,86.0
1154,224.43373456458335,224.55873457708333,62.0,87.0
1155,224.20646181458332,224.86176491041667,51.0,75.0
1156,223.97918906458332,224.97540128541667,46.0,76.0
1157,224.88828006458334,225.0568406875,63.0,89.0
1158,224.88828006458334,225.08335584166667,55.0,82.0
1159,224.88828006458334,225.1250225125,58.0,86.0
1160,223.75191631458333,225.13449221041665,39.0,84.0
1161,225.11555281458334,225.23487100833333,46.0,33.0
1162,225.11555281458334,225.23487100833333,51.0,78.0
1163,225.34282556458334,225.39396193333334,55.0,53.0
1164,225.57009831458333,225.94509835208333,65.0,88.0
1165,225.57009831458333,225.96782562708333,57.0,89.0
1166,225.57009831458333,225.98676502291667,60.0,82.0
1167,226.25191656458333,226.34282566458333,55.0,59.0
1168,226.47918931458332,226.51896204583332,58.0,51.0
1169,226.47918931458332,226.53032568333333,55.0,72.0
1170,226.02464381458333,226.57767417291666,53.0,70.0
1171,226.47918931458332,226.59661356875,63.0,74.0
1172,226.70646206458332,226.931840875,63.0,89.0
1173,226.70646206458332,226.96782572708332,55.0,84.0
1174,226.93373481458335,226.98108330416667,53.0,79.0
1175,225.79737106458333,227.01328027708334,48.0,76.0
1176,226.70646206458332,227.022749975,58.0,76.0
1177,225.57009831458333,227.03032573333334,41.0,94.0
1178,227.16100756458334,227.29926515416668,60.0,69.0
1179,227.38828031458334,227.76517429166665,46.0,81.0
1180,227.38828031458334,227.83146217708332,53.0,80.0
1181,227.38828031458334,227.85987127083334,62.0,81.0
1182,227.38828031458334,227.99812886041667,58.0,71.0
1183,228.07009856458333,228.38070465625,46.0,75.0
1184,227.38828031458334,228.41479556875,34.0,87.0
1185,228.29737131458333,228.45835617916666,58.0,78.0
1186,228.29737131458333,228.50759860833332,53.0,87.0
1187,228.29737131458333,228.62312892291666,62.0,82.0
1188,228.75191681458332,228.81631076041666,33.0,72.0
1189,228.75191681458332,228.82388651875,53.0,85.0
1190,228.75191681458332,228.85797743125,45.0,76.0
1191,228.75191681458332,228.86744712916666,60.0,81.0
1192,229.20646231458332,229.61744720416667,58.0,87.0
1193,229.20646231458332,229.76896237083332,65.0,93.0
1194,229.66100781458334,230.2841139375,50.0,64.0
1195,230.11555331458334,230.39017455416666,65.0,70.0
1196,230.11555331458334,230.42615940625,55.0,88.0
1197,230.11555331458334,230.54926547916668,58.0,91.0
1198,230.11555331458334,230.59472002916667,62.0,91.0
1199,230.57009881458333,230.61555336458332,50.0,82.0
1200,229.20646231458332,230.66858367291667,43.0,98.0
1201,230.79737156458333,231.01328067708334,60.0,67.0
1202,231.02464431458333,231.45078072083334,48.0,79.0
1203,231.02464431458333,231.568204975,55.0,81.0
1204,231.02464431458333,231.58525043125,63.0,91.0
1205,231.02464431458333,231.59093225,58.0,80.0
1206,231.70646256458332,232.14206866875,48.0,55.0
1207,231.93373531458334,232.42615960625,63.0,93.0
1208,231.02464431458333,232.431841425,36.0,87.0
1209,231.93373531458334,232.47540203541666,58.0,91.0
1210,231.93373531458334,232.4886596125,55.0,89.0
1211,232.38828081458334,232.50949294791667,48.0,78.0
1212,232.84282631458333,233.250023325,50.0,79.0
1213,232.84282631458333,233.36176576041666,60.0,69.0
1214,232.84282631458333,233.39017485416667,65.0,74.0
1215,232.84282631458333,233.39396273333332,57.0,69.0
1216,232.84282631458333,233.4545688,53.0,84.0
1217,233.52464456458333,233.94509915208334,50.0,55.0
1218,233.75191731458332,234.20646281458332,57.0,78.0
1219,232.84282631458333,234.21214463333334,38.0,68.0
1220,233.75191731458332,234.23108402916665,53.0,78.0
1221,233.75191731458332,234.24055372708332,60.0,76.0
1222,234.20646281458332,234.33714464583332,50.0,85.0
1223,233.75191731458332,234.44509920208333,65.0,70.0
1224,234.66100831458334,235.11744775416668,58.0,70.0
1225,234.66100831458334,235.12691745208332,62.0,64.0
1226,235.11555381458334,235.477296275,57.0,56.0
1227,235.57009931458333,235.6250235625,58.0,74.0
1228,235.11555381458334,235.6250235625,60.0,72.0
1229,235.57009931458333,235.75759933333333,62.0,85.0
1230,235.57009931458333,235.86555388958334,55.0,73.0
1231,234.66100831458334,235.88070540625,43.0,77.0
1232,235.11555381458334,235.89585692291666,50.0,60.0
1233,236.02464481458333,236.06631148541666,65.0,80.0
