,start,end,pitch,velocity
0,12.4118234875,12.5157707,64.0,98.0
1,12.727612487499998,13.418400924999998,62.0,100.0
2,13.674979487499998,13.767084612499998,64.0,109.0
3,13.990768487499999,14.771030474999998,62.0,91.0
4,14.938135487499999,15.026293249999998,62.0,103.0
5,15.253924487499999,15.530239862499998,62.0,103.0
6,15.569713487499998,15.623660774999998,64.0,75.0
7,15.885502487499998,16.0065549375,62.0,109.0
8,16.0433969875,16.185502037499997,64.0,111.0
9,16.201291487499997,16.4328700875,67.0,106.0
10,16.5170804875,16.999974499999997,66.0,109.0
11,17.4644474875,17.55260525,64.0,100.0
12,17.780236487499998,18.497340674999997,62.0,91.0
13,18.727603487499998,18.813129675,64.0,103.0
14,19.043392487499997,19.789444,62.0,82.0
15,19.990759487499997,20.119706662499997,62.0,100.0
16,20.3065484875,20.5670744125,61.0,91.0
17,20.622337487499998,20.7328636375,62.0,98.0
18,20.7802319875,20.885494987499996,64.0,100.0
19,20.938126487499996,21.223652374999997,62.0,88.0
20,21.2539154875,21.522336137499998,61.0,73.0
21,22.2012824875,22.464439987499997,66.0,115.0
22,21.569704487499997,22.5065451875,62.0,103.0
23,22.517071487499997,22.792071075,64.0,85.0
24,22.832860487499996,23.052597,62.0,106.0
25,23.1486494875,23.401280687499998,61.0,95.0
26,23.464438487499997,23.67891185,62.0,106.0
27,23.780227487499996,23.9197009625,69.0,100.0
28,24.0960164875,24.735489212499996,69.0,113.0
29,25.043383487499998,25.130225462499997,64.0,103.0
30,25.359172487499997,25.599961599999997,64.0,109.0
31,25.674961487499996,25.928908474999997,66.0,106.0
32,25.990750487499998,26.269697437499996,67.0,109.0
33,26.306539487499997,26.564433837499998,64.0,103.0
34,26.622328487499995,27.290748537499997,66.0,115.0
35,27.253906487499997,27.290748537499997,66.0,113.0
36,27.569695487499995,27.853905587499998,64.0,91.0
37,27.885484487499998,28.139431475,62.0,109.0
38,28.201273487499996,28.457852049999996,61.0,109.0
39,28.517062487499995,28.747325299999996,62.0,115.0
40,28.832851487499997,28.99469335,69.0,109.0
41,29.148640487499996,29.343377037499998,69.0,111.0
42,29.464429487499995,29.628902925,67.0,115.0
43,30.096007487499996,30.272323012499996,66.0,106.0
44,30.4117964875,30.7249539125,64.0,109.0
45,30.727585487499997,30.830216912499996,66.0,91.0
46,30.8854799875,30.999953499999997,67.0,95.0
47,31.043374487499996,31.327584587499995,66.0,115.0
48,31.3591634875,31.643373587499998,64.0,98.0
49,31.674952487499997,32.452582899999996,62.0,115.0
50,32.3065304875,32.5565301125,66.0,113.0
51,32.62231948749999,32.886792774999996,64.0,106.0
52,32.938108487499996,33.173634449999994,62.0,106.0
53,33.2538974875,33.521002349999996,61.0,106.0
54,33.56968648749999,33.73810728749999,62.0,111.0
55,33.885475487499995,33.999948999999994,69.0,113.0
56,34.2012644875,34.939421274999994,69.0,115.0
57,35.1486314875,35.236789249999994,64.0,109.0
58,35.46442048749999,35.717051687499996,64.0,103.0
59,35.780209487499995,36.039419624999994,66.0,109.0
60,36.0959984875,36.261787712499995,67.0,106.0
61,36.40389276249999,36.6591555375,73.0,113.0
62,36.727576487499995,37.1367864,69.0,115.0
63,37.35915448749999,37.601259387499994,66.0,111.0
64,37.674943487499995,37.95389043749999,64.0,100.0
65,37.9907324875,38.136784899999995,62.0,106.0
66,38.30652148749999,38.578889499999995,61.0,91.0
67,38.622310487499995,38.74073136249999,62.0,109.0
68,38.9380994875,39.040730912499995,69.0,95.0
69,39.25388848749999,39.56704591249999,69.0,113.0
70,39.569677487499995,39.706519387499995,67.0,117.0
71,40.20125548749999,40.36178156249999,66.0,111.0
72,40.517044487499994,40.6565179625,64.0,113.0
73,40.8328334875,40.9144123125,66.0,113.0
74,40.990727987499994,41.102569925,67.0,95.0
75,41.14862248749999,41.3959905375,66.0,111.0
76,41.464411487499994,41.7486215875,64.0,103.0
77,41.7802004875,42.902567225,62.0,109.0
78,43.0433564875,43.18414574999999,69.0,103.0
79,43.359145487499994,43.455197975,62.0,98.0
80,43.674934487499996,43.749934374999995,62.0,109.0
81,43.832828987499994,43.906513087499995,62.0,79.0
82,43.9907234875,44.06046022499999,62.0,100.0
83,44.148617987499996,44.249933625,62.0,95.0
84,44.306512487499994,44.402564975,69.0,103.0
85,44.622301487499996,44.69466979999999,62.0,100.0
86,44.9380904875,45.0012482875,62.0,103.0
87,45.095984987499996,45.16835329999999,62.0,103.0
88,45.253879487499994,45.33677409999999,62.0,103.0
89,45.4117739875,45.4986159625,62.0,100.0
90,45.569668487499996,45.6630894,64.0,111.0
91,45.8854574875,45.98414155,64.0,113.0
92,46.20124648749999,46.44466717499999,64.0,111.0
93,46.517035487499996,46.619666912499994,66.0,111.0
94,46.8328244875,47.23150809999999,66.0,115.0
95,47.464402487499996,47.53677079999999,62.0,109.0
96,47.62229698749999,47.699928449999994,62.0,77.0
97,47.7801914875,47.84992822499999,62.0,95.0
98,47.938085987499996,48.043348987499996,62.0,85.0
99,48.09598048749999,48.18413825,69.0,113.0
100,48.411769487499996,48.497295675,62.0,111.0
101,48.7275584875,48.876242475,62.0,113.0
102,49.04334748749999,49.097294774999995,62.0,100.0
103,49.2012419875,49.307820774999996,62.0,103.0
104,49.359136487499995,49.45518897499999,69.0,106.0
105,49.6749254875,49.763083249999994,62.0,109.0
106,49.99071448749999,50.060451224999994,62.0,113.0
107,50.1486089875,50.220977299999994,62.0,100.0
108,50.306503487499995,50.37492443749999,62.0,82.0
109,50.46439798749999,50.557818899999994,62.0,76.0
110,50.6222924875,50.705187099999996,64.0,103.0
111,50.93808148749999,51.014397162499996,64.0,103.0
112,51.253870487499995,51.381501875,64.0,111.0
113,51.41176498749999,51.60518575,66.0,113.0
114,51.88544848749999,52.135448112499994,62.0,109.0
115,52.5170264875,52.744657724999996,66.0,111.0
116,52.83281548749999,52.913078524999996,69.0,113.0
117,53.148604487499995,53.28281481249999,69.0,106.0
118,53.4643934875,53.54597231249999,69.0,113.0
119,53.78018248749999,53.907813874999995,69.0,111.0
120,54.095971487499995,54.15255034999999,69.0,113.0
121,54.25386598749999,54.345971112499996,69.0,115.0
122,54.72754948749999,54.795970437499996,62.0,103.0
123,54.8854439875,54.964391237499996,62.0,98.0
124,55.043338487499994,55.136759399999995,62.0,103.0
125,55.3591274875,55.45254839999999,62.0,109.0
126,55.67491648749999,55.77360054999999,64.0,109.0
127,55.990705487499994,56.07754746249999,64.0,109.0
128,56.3064944875,56.57886249999999,64.0,106.0
129,56.62228348749999,56.69333601249999,66.0,98.0
130,56.930177762499994,57.0735986,66.0,113.0
131,57.56965048749999,57.82096589999999,66.0,113.0
132,57.885439487499994,57.974913037499995,69.0,111.0
133,58.201228487499996,58.323596724999994,69.0,117.0
134,58.51701748749999,58.61438576249999,69.0,113.0
135,58.832806487499994,58.94333263749999,69.0,115.0
136,59.148595487499996,59.20649013749999,69.0,111.0
137,59.306489987499994,59.4143845625,69.0,117.0
138,59.780173487499994,59.849910224999995,62.0,106.0
139,59.93806798749999,60.018331024999995,62.0,103.0
140,60.095962487499996,60.18806761249999,62.0,103.0
141,60.41175148749999,60.52096184999999,62.0,109.0
142,60.727540487499994,60.8314877,64.0,111.0
143,61.043329487499996,61.1367504,64.0,100.0
144,61.35911848749999,61.6301707125,64.0,100.0
145,61.67490748749999,61.78543363749999,66.0,106.0
146,61.990696487499996,62.25122241249999,62.0,111.0
147,63.25385248749999,63.338062887499994,62.0,103.0
148,63.56964148749999,63.678851849999994,62.0,111.0
149,63.72753598749999,63.86437788749999,59.0,103.0
150,63.885430487499995,64.21964051249999,62.0,117.0
151,64.3591139875,64.41569285,62.0,113.0
152,64.5170084875,64.59858731249999,62.0,113.0
153,64.67490298749999,64.802534375,59.0,82.0
154,64.83279748749999,64.902534225,62.0,117.0
155,64.9906919875,65.13016546249999,59.0,53.0
156,65.1485864875,65.3472704,62.0,120.0
157,65.78016448749999,65.89990114999999,64.0,111.0
158,66.0959534875,66.18937439999999,64.0,106.0
159,66.41174248749999,66.655163175,64.0,106.0
160,66.72753148749999,66.8643733875,67.0,109.0
161,67.0433204875,67.5512144625,66.0,115.0
162,67.67489848749999,67.81700353749999,66.0,113.0
163,67.9906874875,68.09858206249999,66.0,115.0
164,68.30647648749999,68.4064763375,62.0,113.0
165,68.46437098749999,68.61173918749999,59.0,91.0
166,68.62226548749999,68.73410742499999,62.0,111.0
167,68.7801599875,68.9301597625,59.0,77.0
168,68.9380544875,69.22489616249999,62.0,120.0
169,69.41173798749999,69.5248957125,59.0,111.0
170,69.56963248749999,69.65647446249999,62.0,109.0
171,69.7275269875,69.88410569999999,59.0,85.0
172,69.8854214875,69.999895,62.0,115.0
173,70.0433159875,70.19594733749999,59.0,100.0
174,70.20121048749999,70.48278901249999,62.0,111.0
175,70.8327884875,70.91041994999999,64.0,115.0
176,70.9906829875,71.05778815,64.0,111.0
177,71.14857748749999,71.2209458,64.0,109.0
178,71.30647198749999,71.38147187499999,64.0,109.0
179,71.46436648749999,71.72226083749999,64.0,111.0
180,71.7801554875,71.9156816,66.0,111.0
181,72.7275224875,72.94199585,66.0,115.0
182,72.09594448749999,72.98673262499999,62.0,109.0
183,73.04331148749999,73.33278473749999,64.0,100.0
184,73.35910048749999,73.61304747499999,62.0,109.0
185,73.6748894875,73.92620489999999,61.0,100.0
186,73.99067848749999,74.13278353749999,62.0,109.0
187,74.30646748749999,74.41436206249999,69.0,117.0
188,74.6222564875,74.9156771,69.0,113.0
189,74.93804548749999,75.1051505,67.0,111.0
190,75.5696234875,75.6643601875,64.0,109.0
191,75.88541248749999,76.1248858125,64.0,111.0
192,76.20120148749999,76.36304335,66.0,111.0
193,76.5169904875,76.81567424999999,67.0,109.0
194,76.83277948749999,77.0840949,64.0,103.0
195,77.14856848749999,77.6354098625,66.0,115.0
196,77.78014648749999,78.01304087499999,66.0,111.0
197,78.09593548749999,78.35777719999999,64.0,98.0
198,78.4117244875,78.64856623749999,62.0,106.0
199,78.72751348749999,78.9827762625,61.0,106.0
200,79.04330248749999,79.1893549,62.0,111.0
201,79.3590914875,79.4748807875,69.0,100.0
202,79.67488048749999,79.9854063375,69.0,115.0
203,79.99066948749999,80.20909021249999,67.0,113.0
204,80.62224748749999,80.8143524625,66.0,113.0
205,80.93803648749999,81.14856248749999,64.0,109.0
206,81.2538254875,81.33803588749998,66.0,109.0
207,81.41171998749999,81.49724617499999,67.0,106.0
208,81.56961448749999,81.83671935,66.0,111.0
209,81.88540348749999,82.16435043749999,64.0,100.0
210,82.2011924875,82.81698103749999,62.0,109.0
211,82.83277048749999,83.11434901249999,66.0,113.0
212,83.1485594875,83.41303277499999,64.0,103.0
213,83.46434848749999,83.660400825,62.0,106.0
214,83.78013748749999,84.02750553749999,61.0,109.0
215,84.0959264875,84.2117157875,62.0,113.0
216,84.41171548749999,84.51039954999999,69.0,115.0
217,84.72750448749998,85.01697773749999,69.0,113.0
218,85.0432934875,85.2538194875,67.0,109.0
219,85.67487148749998,85.728818775,66.0,100.0
220,85.8327659875,85.93145005,66.0,103.0
221,85.9906604875,86.23802853749999,64.0,106.0
222,86.30644948749999,86.54460702499999,66.0,95.0
223,86.62223848749998,86.744606725,67.0,103.0
224,86.9380274875,87.15381663749999,73.0,113.0
225,87.25381648749999,87.72223683749999,69.0,113.0
226,87.8853944875,88.1196046625,66.0,111.0
227,88.20118348749999,88.47881464999999,64.0,91.0
228,88.51697248749998,88.72881427499999,62.0,100.0
229,88.8327614875,89.09328741249999,61.0,106.0
230,89.14855048749999,89.25644506249999,62.0,113.0
231,89.46433948749998,89.59197087499999,69.0,109.0
232,89.7801284875,90.04065441249999,69.0,113.0
233,90.09591748749999,90.31302242499999,67.0,113.0
234,90.7274954875,90.78012698749998,66.0,111.0
235,90.88538998749999,90.99986349999999,66.0,106.0
236,91.04328448749999,91.27749466249999,64.0,111.0
237,91.35907348749998,91.4459154625,66.0,100.0
238,91.5169679875,91.61565205,67.0,103.0
239,91.6748624875,91.9643357375,66.0,111.0
240,91.99065148749999,92.2735458,64.0,100.0
241,92.30644048749998,93.4353861625,62.0,109.0
242,98.62222048749999,98.76300975,69.0,103.0
243,98.93800948749998,99.03406197499999,62.0,98.0
244,99.25379848749999,99.32879837499999,62.0,109.0
245,99.41169298749999,99.48537708749998,62.0,79.0
246,99.56958748749999,99.639324225,62.0,100.0
247,99.72748198749998,99.82879762499999,62.0,95.0
248,99.88537648749998,99.98142897499999,69.0,103.0
249,100.20116548749999,100.2735338,62.0,100.0
250,100.51695448749999,100.58011228749999,62.0,103.0
251,100.67484898749998,100.74721729999999,62.0,103.0
252,100.83274348749998,100.9156381,62.0,103.0
253,100.9906379875,101.07747996249999,62.0,100.0
254,101.14853248749999,101.24195339999999,64.0,111.0
255,101.46432148749999,101.56300554999999,64.0,113.0
256,101.78011048749998,102.02353117499999,64.0,111.0
257,102.09589948749999,102.19853091249999,66.0,111.0
258,102.41168848749999,102.8103721,66.0,115.0
259,103.04326648749999,103.1156348,62.0,109.0
260,103.20116098749999,103.27879244999998,62.0,77.0
261,103.35905548749999,103.428792225,62.0,95.0
262,103.51694998749998,103.62221298749999,62.0,85.0
263,103.67484448749998,103.76300224999999,69.0,113.0
264,103.99063348749999,104.07615967499999,62.0,111.0
265,104.30642248749999,104.455106475,62.0,113.0
266,104.62221148749998,104.67615877499999,62.0,100.0
267,104.7801059875,104.88668477499999,62.0,103.0
268,104.93800048749999,105.034052975,69.0,106.0
269,105.25378948749999,105.34194724999999,62.0,109.0
270,105.56957848749998,105.63931522499999,62.0,113.0
271,105.7274729875,105.79984129999998,62.0,100.0
272,105.88536748749999,105.9537884375,62.0,82.0
273,106.04326198749999,106.13668289999998,62.0,76.0
274,106.20115648749999,106.28405109999999,64.0,103.0
275,106.51694548749998,106.59326116249999,64.0,103.0
276,106.83273448749999,106.960365875,64.0,111.0
277,106.99062898749999,107.18404974999999,66.0,113.0
278,107.46431248749998,107.71431211249998,62.0,109.0
279,108.09589048749999,108.32352172499999,66.0,111.0
280,108.41167948749998,108.49194252499998,69.0,113.0
281,108.72746848749999,108.86167881249999,69.0,106.0
282,109.04325748749999,109.1248363125,69.0,113.0
283,109.35904648749998,109.48667787499998,69.0,111.0
284,109.67483548749999,109.73141435,69.0,113.0
285,109.83272998749999,109.92483511249999,69.0,115.0
286,110.30641348749998,110.37483443749998,62.0,103.0
287,110.46430798749999,110.54325523749999,62.0,98.0
288,110.62220248749999,110.71562339999998,62.0,103.0
289,110.93799148749999,111.0314124,62.0,109.0
290,111.2537804875,111.35246455,64.0,109.0
291,111.56956948749999,111.65641146249999,64.0,109.0
292,111.88535848749999,112.15772649999998,64.0,106.0
293,112.2011474875,112.2722000125,66.0,98.0
294,112.50904176249999,112.65246259999999,66.0,113.0
295,113.1485144875,113.39982989999999,66.0,113.0
296,113.46430348749999,113.55377703749998,69.0,111.0
297,113.78009248749999,113.90246072499998,69.0,117.0
298,114.0958814875,114.19324976249999,69.0,113.0
299,114.41167048749999,114.52219663749999,69.0,115.0
300,114.72745948749998,114.7853541375,69.0,111.0
301,114.88535398749998,114.99324856249999,69.0,117.0
302,115.35903748749999,115.42877422499998,62.0,106.0
303,115.51693198749999,115.59719502499999,62.0,103.0
304,115.67482648749998,115.76693161249999,62.0,103.0
305,115.9906154875,116.09982584999999,62.0,109.0
306,116.30640448749999,116.41035169999999,64.0,111.0
307,116.62219348749998,116.71561439999999,64.0,100.0
308,116.9379824875,117.20903471249999,64.0,100.0
309,117.25377148749999,117.36429763749999,66.0,106.0
310,117.56956048749998,117.83008641249998,62.0,111.0
311,118.8327164875,118.91692688749998,62.0,103.0
312,119.14850548749999,119.25771584999998,62.0,111.0
313,119.30639998749999,119.4432418875,59.0,103.0
314,119.46429448749998,119.79850451249999,62.0,117.0
315,119.93797798749999,119.99455684999998,62.0,113.0
316,120.09587248749999,120.17745131249998,62.0,113.0
317,120.25376698749999,120.38139837499999,59.0,82.0
318,120.41166148749998,120.48139822499999,62.0,117.0
319,120.56955598749998,120.70902946249998,59.0,53.0
320,120.7274504875,120.92613439999998,62.0,120.0
321,121.35902848749998,121.47876514999999,64.0,111.0
322,121.6748174875,121.76823839999999,64.0,106.0
323,121.99060648749999,122.23402717499998,64.0,106.0
324,122.30639548749998,122.44323738749999,67.0,109.0
325,122.6221844875,123.13007846249998,66.0,115.0
326,123.25376248749998,123.39586753749998,66.0,113.0
327,123.5695514875,123.67744606249998,66.0,115.0
328,123.88534048749999,123.98534033749999,62.0,113.0
329,124.04323498749999,124.19060318749999,59.0,91.0
330,124.20112948749998,124.31297142499999,62.0,111.0
331,124.35902398749998,124.5090237625,59.0,77.0
332,124.51691848749999,124.80376016249998,62.0,120.0
333,124.99060198749999,125.1037597125,59.0,111.0
334,125.14849648749998,125.23533846249998,62.0,109.0
335,125.30639098749998,125.46296969999999,59.0,85.0
336,125.46428548749999,125.57875899999999,62.0,115.0
337,125.62217998749999,125.77481133749998,59.0,100.0
338,125.78007448749999,126.06165301249999,62.0,111.0
339,126.41165248749999,126.48928394999999,64.0,115.0
340,126.56954698749999,126.63665214999999,64.0,111.0
341,126.72744148749999,126.79980979999999,64.0,109.0
342,126.88533598749999,126.96033587499998,64.0,109.0
343,127.04323048749998,127.30112483749998,64.0,111.0
344,127.35901948749999,127.49454559999998,66.0,111.0
345,127.67480848749999,128.22217608749997,62.0,109.0
346,128.3063864875,128.52085985,66.0,115.0
347,128.6221754875,128.91164873749997,64.0,100.0
348,128.93796448749998,129.19191147499998,62.0,109.0
349,129.25375348749998,129.5050689,61.0,100.0
350,129.56954248749997,129.7116475375,62.0,109.0
351,129.8853314875,129.99322606249999,69.0,117.0
352,130.2011204875,130.4945411,69.0,113.0
353,130.5169094875,130.6840145,67.0,111.0
354,131.14848748749998,131.24322418749998,64.0,109.0
355,131.46427648749997,131.70374981249998,64.0,111.0
356,131.7800654875,131.94190734999998,66.0,111.0
357,132.0958544875,132.39453824999998,67.0,109.0
358,132.4116434875,132.66295889999998,64.0,103.0
359,132.72743248749998,133.2142738625,66.0,115.0
360,133.35901048749997,133.59190487499998,66.0,111.0
361,133.6747994875,133.9366412,64.0,98.0
362,133.9905884875,134.2274302375,62.0,106.0
363,134.3063774875,134.5616402625,61.0,106.0
364,134.62216648749998,134.7682189,62.0,111.0
365,134.93795548749998,135.0537447875,69.0,100.0
366,135.25374448749997,135.56427033749998,69.0,115.0
367,135.5695334875,135.78795421249998,67.0,113.0
368,136.2011114875,136.3932164625,66.0,113.0
369,136.51690048749998,136.7274264875,64.0,109.0
370,136.83268948749998,136.9168998875,66.0,109.0
371,136.99058398749997,137.076110175,67.0,106.0
372,137.14847848749997,137.41558335,66.0,111.0
373,137.4642674875,137.74321443749997,64.0,100.0
374,137.7800564875,138.39584503749998,62.0,109.0
375,138.41163448749998,138.6932130125,66.0,113.0
376,138.72742348749998,138.991896775,64.0,103.0
377,139.04321248749997,139.239264825,62.0,106.0
378,139.3590014875,139.60636953749997,61.0,109.0
379,139.6747904875,139.79057978749998,62.0,113.0
380,139.99057948749999,140.08926355,69.0,115.0
381,140.30636848749998,140.5958417375,69.0,113.0
382,140.62215748749998,140.8326834875,67.0,109.0
383,141.2537354875,141.307682775,66.0,100.0
384,141.4116299875,141.51031404999998,66.0,103.0
385,141.5695244875,141.8168925375,64.0,106.0
386,141.88531348749999,142.123471025,66.0,95.0
387,142.20110248749998,142.323470725,67.0,103.0
388,142.51689148749998,142.73268063749998,73.0,113.0
389,142.83268048749997,143.30110083749997,69.0,113.0
390,143.4642584875,143.69846866249998,66.0,111.0
391,143.78004748749998,144.05767864999999,64.0,91.0
392,144.09583648749998,144.30767827499997,62.0,100.0
393,144.41162548749998,144.67215141249997,61.0,106.0
394,144.72741448749997,144.8353090625,62.0,113.0
395,145.0432034875,145.170834875,69.0,109.0
396,145.3589924875,145.61951841249999,69.0,113.0
397,145.67478148749998,145.891886425,67.0,113.0
398,146.30635948749998,146.3589909875,66.0,111.0
399,146.46425398749997,146.57872749999999,66.0,106.0
400,146.62214848749997,146.85635866249999,64.0,111.0
401,146.9379374875,147.0247794625,66.0,100.0
402,147.0958319875,147.19451604999998,67.0,103.0
403,147.2537264875,147.54319973749998,66.0,111.0
404,147.56951548749998,147.85240979999998,64.0,100.0
405,147.88530448749998,149.0142501625,62.0,109.0
406,161.14844248749998,161.36291584999998,67.0,115.0
407,161.46423148749997,161.7537047375,65.0,100.0
408,161.7800204875,162.03396747499997,63.0,109.0
409,162.0958094875,162.34712489999998,62.0,100.0
410,162.4115984875,162.55370353749998,63.0,109.0
411,162.72738748749998,162.83528206249997,70.0,117.0
412,163.04317648749998,163.33659709999998,70.0,113.0
413,163.35896548749997,163.52607049999997,68.0,111.0
414,163.9905434875,164.0852801875,65.0,109.0
415,164.3063324875,164.5458058125,65.0,111.0
416,164.62212148749998,164.78396335,67.0,111.0
417,164.93791048749998,165.23659425,68.0,109.0
418,165.25369948749997,165.5050149,65.0,103.0
419,165.5694884875,166.05632986249998,67.0,115.0
420,166.2010664875,166.43396087499997,67.0,111.0
421,166.51685548749998,166.77869719999998,65.0,98.0
422,166.83264448749998,167.06948623749997,63.0,106.0
423,167.14843348749997,167.40369626249998,62.0,106.0
424,167.4642224875,167.61027489999998,63.0,111.0
425,167.7800114875,167.89580078749998,70.0,100.0
426,168.0958004875,168.4063263375,70.0,115.0
427,168.41158948749998,168.63001021249997,68.0,113.0
428,169.04316748749997,169.23527246249998,67.0,113.0
429,169.3589564875,169.56948248749998,65.0,109.0
430,169.6747454875,169.75895588749998,67.0,109.0
431,169.8326399875,169.91816617499998,68.0,106.0
432,169.99053448749999,170.25763934999998,67.0,111.0
433,170.30632348749998,170.5852704375,65.0,100.0
434,170.62211248749998,171.2379010375,63.0,109.0
435,171.2536904875,171.53526901249998,67.0,113.0
436,171.5694794875,171.83395277499997,65.0,103.0
437,171.88526848749999,172.08132082499998,63.0,106.0
438,172.20105748749998,172.4484255375,62.0,109.0
439,172.51684648749998,172.6326357875,63.0,113.0
440,172.83263548749997,172.93131954999998,70.0,115.0
441,173.1484244875,173.43789773749998,70.0,113.0
442,173.4642134875,173.67473948749998,68.0,109.0
443,174.09579148749998,174.14973877499997,67.0,100.0
444,174.25368598749998,174.35237005,67.0,103.0
445,174.41158048749998,174.65894853749998,65.0,106.0
446,174.72736948749997,174.96552702499997,67.0,95.0
447,175.0431584875,175.16552672499998,68.0,103.0
448,175.3589474875,175.57473663749997,74.0,113.0
449,175.67473648749998,176.1431568375,70.0,113.0
450,176.30631448749998,176.5405246625,67.0,111.0
451,176.62210348749997,176.89973464999997,65.0,91.0
452,176.9378924875,177.149734275,63.0,100.0
453,177.2536814875,177.51420741249999,62.0,106.0
454,177.56947048749998,177.67736506249997,63.0,113.0
455,177.88525948749998,178.01289087499998,70.0,109.0
456,178.20104848749997,178.46157441249997,70.0,113.0
457,178.51683748749997,178.73394242499998,68.0,113.0
458,179.1484154875,179.20104698749998,67.0,111.0
459,179.3063099875,179.42078349999997,67.0,106.0
460,179.46420448749998,179.69841466249997,65.0,111.0
461,179.77999348749998,179.86683546249998,67.0,100.0
462,179.93788798749998,180.03657205,68.0,103.0
463,180.09578248749997,181.99051648749997,67.0,111.0
464,182.37735801249997,182.65104181249998,68.0,115.0
465,182.64051551249997,182.81288367499997,67.0,98.0
466,183.15761999999998,183.71814547499997,65.0,115.0
467,183.89446099999998,186.4194572125,63.0,109.0
