,start,end,pitch,velocity
0,2.9381534874999997,3.1894688999999996,54.0,69.0
1,2.6223644874999996,3.518415775,47.0,88.0
2,3.2539424875,3.6394682249999994,59.0,75.0
3,3.2539424875,3.8486784374999994,66.0,63.0
4,3.2539424875,3.8631520999999998,62.0,64.0
5,4.2013094875,4.461835412499999,50.0,43.0
6,3.8855204874999996,4.481572225,43.0,88.0
7,4.517098487499999,4.868413749999999,55.0,66.0
8,4.517098487499999,5.063150299999999,62.0,49.0
9,4.517098487499999,5.0907818375,59.0,52.0
10,5.464465487499999,5.726307199999999,52.0,66.0
11,5.1486764874999995,6.096043487499999,45.0,100.0
12,6.096043487499999,6.2460432625,52.0,77.0
13,5.7802544875,6.248674837499999,57.0,69.0
14,5.7802544875,6.360516774999999,64.0,67.0
15,5.7802544875,6.367095712499999,61.0,63.0
16,6.7276214874999996,6.989463199999999,57.0,47.0
17,7.043410487499999,7.2355154624999996,69.0,61.0
18,7.043410487499999,7.247357549999999,66.0,61.0
19,7.043410487499999,7.286831174999999,62.0,58.0
20,6.411832487499999,7.303936412499999,50.0,100.0
21,7.359199487499999,7.536830799999999,49.0,71.0
22,7.990777487499999,8.259198137499999,54.0,62.0
23,8.3065664875,8.690776437499999,59.0,67.0
24,8.622355487499998,8.752618449999998,54.0,72.0
25,7.674988487499999,8.865776174999999,47.0,91.0
26,8.3065664875,8.8749866875,66.0,59.0
27,8.3065664875,8.907881374999999,62.0,65.0
28,8.938144487499999,9.740774862499999,43.0,88.0
29,9.569722487499998,9.844722074999998,59.0,68.0
30,9.569722487499998,9.877616762499999,55.0,64.0
31,9.569722487499998,10.12103745,62.0,71.0
32,10.2013004875,10.9684046,45.0,91.0
33,10.517089487499998,10.993404562499999,52.0,61.0
34,10.832878487499999,11.021036099999998,64.0,47.0
35,10.832878487499999,11.02629925,61.0,44.0
36,10.832878487499999,11.057878149999999,57.0,73.0
37,11.1486674875,11.2855093875,49.0,88.0
38,11.780245487499998,12.048666137499998,57.0,65.0
39,12.096034487499999,12.3855077375,69.0,62.0
40,12.096034487499999,12.396034037499998,66.0,62.0
41,12.096034487499999,12.468402349999998,62.0,56.0
42,11.464456487499998,12.5039286125,50.0,75.0
43,13.043401487499999,13.2947169,54.0,69.0
44,12.727612487499998,13.623663774999999,47.0,88.0
45,13.3591904875,13.744716224999998,59.0,75.0
46,13.3591904875,13.953926437499998,66.0,63.0
47,13.3591904875,13.968400099999998,62.0,64.0
48,14.3065574875,14.567083412499999,50.0,43.0
49,13.990768487499999,14.586820224999999,43.0,88.0
50,14.622346487499998,14.973661749999998,55.0,66.0
51,14.622346487499998,15.168398299999998,62.0,49.0
52,14.622346487499998,15.196029837499998,59.0,52.0
53,15.569713487499998,15.831555199999999,52.0,66.0
54,15.253924487499999,16.201291487499997,45.0,100.0
55,16.201291487499997,16.3512912625,52.0,77.0
56,15.885502487499998,16.353922837499997,57.0,69.0
57,15.885502487499998,16.465764774999997,64.0,67.0
58,15.885502487499998,16.4723437125,61.0,63.0
59,16.8328694875,17.0947112,57.0,47.0
60,17.148658487499997,17.340763462499996,69.0,61.0
61,17.148658487499997,17.35260555,66.0,61.0
62,17.148658487499997,17.392079175,62.0,58.0
63,16.5170804875,17.409184412499997,50.0,100.0
64,17.4644474875,17.642078799999997,49.0,71.0
65,18.096025487499997,18.364446137499996,54.0,62.0
66,18.4118144875,18.796024437499998,59.0,67.0
67,18.727603487499998,18.85786645,54.0,72.0
68,17.780236487499998,18.971024174999997,47.0,91.0
69,18.4118144875,18.980234687499998,66.0,59.0
70,18.4118144875,19.013129375,62.0,65.0
71,19.043392487499997,19.846022862499996,43.0,88.0
72,19.674970487499998,19.949970075,59.0,68.0
73,19.674970487499998,19.982864762499997,55.0,64.0
74,19.674970487499998,20.22628545,62.0,71.0
75,20.3065484875,21.0736526,45.0,91.0
76,20.622337487499998,21.098652562499996,52.0,61.0
77,20.938126487499996,21.1262841,64.0,47.0
78,20.938126487499996,21.131547249999997,61.0,44.0
79,20.938126487499996,21.163126149999997,57.0,73.0
80,21.2539154875,21.3907573875,49.0,88.0
81,21.885493487499996,22.1539141375,57.0,65.0
82,22.2012824875,22.4907557375,69.0,62.0
83,22.2012824875,22.501282037499998,66.0,62.0
84,22.2012824875,22.573650349999998,62.0,56.0
85,21.569704487499997,22.609176612499997,50.0,75.0
86,23.1486494875,23.397333324999998,54.0,64.0
87,23.464438487499997,23.596017237499996,59.0,95.0
88,23.464438487499997,23.605227749999997,66.0,73.0
89,23.464438487499997,23.609175112499997,62.0,73.0
90,22.832860487499996,23.644701374999997,47.0,100.0
91,23.780227487499996,23.947332499999998,45.0,95.0
92,24.411805487499997,24.684173499999996,50.0,67.0
93,24.0960164875,25.0118045875,43.0,103.0
94,24.727594487499996,25.105225499999996,55.0,88.0
95,24.727594487499996,25.218383224999997,62.0,85.0
96,24.727594487499996,25.223646374999998,59.0,95.0
97,25.043383487499998,25.2525937,50.0,79.0
98,25.990750487499998,26.106539787499997,61.0,71.0
99,25.990750487499998,26.110487149999997,64.0,73.0
100,25.359172487499997,26.139434474999998,45.0,106.0
101,25.674961487499996,26.151276562499998,52.0,69.0
102,25.990750487499998,26.165750224999996,57.0,85.0
103,26.306539487499997,26.434170874999996,49.0,106.0
104,26.938117487499998,27.209169712499996,57.0,64.0
105,26.622328487499995,27.3644326375,50.0,103.0
106,27.253906487499997,27.406537837499997,66.0,100.0
107,27.253906487499997,27.406537837499997,69.0,100.0
108,27.253906487499997,27.418379924999996,57.0,33.0
109,27.253906487499997,27.4407483125,62.0,73.0
110,28.201273487499996,28.584167649999998,54.0,79.0
111,28.517062487499995,28.649957024999996,59.0,103.0
112,28.517062487499995,28.715746399999997,62.0,73.0
113,28.517062487499995,28.730220062499995,66.0,77.0
114,27.885484487499998,28.747325299999996,47.0,100.0
115,28.832851487499997,29.047324849999995,45.0,100.0
116,29.464429487499995,29.7052186,50.0,48.0
117,29.148640487499996,30.006533937499995,43.0,106.0
118,29.780218487499997,30.117060087499997,55.0,76.0
119,29.780218487499997,30.164428437499996,50.0,51.0
120,29.780218487499997,30.324954512499996,62.0,82.0
121,29.780218487499997,30.328901874999996,59.0,82.0
122,30.4117964875,31.074953387499995,64.0,77.0
123,31.043374487499996,31.074953387499995,64.0,82.0
124,30.4117964875,31.078900749999995,57.0,76.0
125,31.043374487499996,31.078900749999995,57.0,79.0
126,30.4117964875,31.078900749999995,61.0,88.0
127,31.043374487499996,31.078900749999995,61.0,85.0
128,30.4117964875,31.093374412499998,45.0,77.0
129,31.043374487499996,31.528900074999996,49.0,82.0
130,31.674952487499997,32.922319037499996,50.0,98.0
131,31.674952487499997,32.930213762499996,62.0,82.0
132,31.674952487499997,32.93547691249999,57.0,82.0
133,31.674952487499997,32.9565295125,66.0,106.0
134,33.2617922125,33.510476049999994,54.0,64.0
135,33.57758121249999,33.709159962499996,59.0,95.0
136,33.57758121249999,33.71837047499999,66.0,73.0
137,33.57758121249999,33.72231783749999,62.0,73.0
138,32.946003212499996,33.7578441,47.0,100.0
139,33.893370212499995,34.060475225,45.0,95.0
140,34.52494821249999,34.797316224999996,50.0,67.0
141,34.2091592125,35.1249473125,43.0,103.0
142,34.840737212499995,35.218368225,55.0,88.0
143,34.840737212499995,35.33152595,62.0,85.0
144,34.840737212499995,35.3367891,59.0,95.0
145,35.1565262125,35.365736424999994,50.0,79.0
146,36.1038932125,36.21968251249999,61.0,71.0
147,36.1038932125,36.22362987499999,64.0,73.0
148,35.47231521249999,36.2525772,45.0,106.0
149,35.788104212499995,36.2644192875,52.0,69.0
150,36.1038932125,36.27889295,57.0,85.0
151,36.41968221249999,36.547313599999995,49.0,106.0
152,37.0512602125,37.322312437499995,57.0,64.0
153,36.735471212499995,37.4775753625,50.0,103.0
154,37.36704921249999,37.51968056249999,66.0,100.0
155,37.36704921249999,37.51968056249999,69.0,100.0
156,37.36704921249999,37.53152265,57.0,33.0
157,37.36704921249999,37.553891037499994,62.0,73.0
158,38.31441621249999,38.697310374999994,54.0,79.0
159,38.630205212499995,38.763099749999995,59.0,103.0
160,38.630205212499995,38.828889124999996,62.0,73.0
161,38.630205212499995,38.8433627875,66.0,77.0
162,37.9986272125,38.860468024999996,47.0,100.0
163,38.9459942125,39.160467575,45.0,100.0
164,39.577572212499994,39.818361325,50.0,48.0
165,39.2617832125,40.1196766625,43.0,106.0
166,39.8933612125,40.230202812499996,55.0,76.0
167,39.8933612125,40.277571162499996,50.0,51.0
168,39.8933612125,40.438097237499996,62.0,82.0
169,39.8933612125,40.442044599999996,59.0,82.0
170,40.524939212499994,41.1880961125,64.0,77.0
171,41.1565172125,41.1880961125,64.0,82.0
172,40.524939212499994,41.192043475,57.0,76.0
173,41.1565172125,41.192043475,57.0,79.0
174,40.524939212499994,41.192043475,61.0,88.0
175,41.1565172125,41.192043475,61.0,85.0
176,40.524939212499994,41.20651713749999,45.0,77.0
177,41.1565172125,41.6420428,49.0,82.0
178,41.7880952125,43.03546176249999,50.0,98.0
179,41.7880952125,43.0433564875,57.0,82.0
180,41.7880952125,43.0433564875,62.0,82.0
181,41.7880952125,43.0433564875,66.0,106.0
182,43.359145487499994,43.66177661249999,54.0,75.0
183,43.674934487499996,43.82625005,59.0,88.0
184,43.674934487499996,43.840723712499994,62.0,70.0
185,43.0433564875,43.851250012499996,47.0,103.0
186,43.674934487499996,43.863092099999996,66.0,71.0
187,43.9907234875,44.188091612499996,47.0,103.0
188,44.622301487499996,44.88677477499999,50.0,70.0
189,44.306512487499994,45.255195275,43.0,106.0
190,44.9380904875,45.32887937499999,55.0,88.0
191,44.9380904875,45.41572135,62.0,77.0
192,44.9380904875,45.4196687125,59.0,85.0
193,45.253879487499994,45.44993182499999,50.0,71.0
194,45.8854574875,46.177562312499994,52.0,69.0
195,45.569668487499996,46.28940425,45.0,100.0
196,46.20124648749999,46.29993054999999,52.0,51.0
197,46.20124648749999,46.336772599999996,61.0,68.0
198,46.20124648749999,46.338088387499994,64.0,72.0
199,46.20124648749999,46.3591409875,57.0,79.0
200,46.517035487499996,46.74598251249999,49.0,103.0
201,47.14861348749999,47.413086775,57.0,76.0
202,47.464402487499996,47.805191449999995,66.0,88.0
203,47.464402487499996,47.8117703875,69.0,88.0
204,47.464402487499996,47.860454524999994,62.0,79.0
205,46.8328244875,47.886770274999996,50.0,106.0
206,47.7801914875,47.97887539999999,49.0,88.0
207,48.411769487499996,48.69597958749999,54.0,71.0
208,48.09598048749999,48.92229503749999,47.0,100.0
209,48.7275584875,48.936768699999995,59.0,77.0
210,48.7275584875,48.94597921249999,66.0,73.0
211,48.7275584875,48.970979175,62.0,72.0
212,49.04334748749999,49.24729454999999,47.0,106.0
213,49.6749254875,49.939398774999994,50.0,69.0
214,49.99071448749999,50.224924662499994,62.0,75.0
215,49.359136487499995,50.29992454999999,43.0,106.0
216,49.99071448749999,50.381503374999994,55.0,75.0
217,49.99071448749999,50.45650326249999,59.0,79.0
218,50.306503487499995,50.481503225,50.0,59.0
219,50.6222924875,51.05518657499999,45.0,106.0
220,50.93808148749999,51.05518657499999,52.0,51.0
221,51.253870487499995,51.735448712499995,61.0,85.0
222,51.253870487499995,51.747290799999995,64.0,106.0
223,51.253870487499995,51.7617644625,49.0,79.0
224,51.88544848749999,52.849920725,69.0,98.0
225,51.88544848749999,52.855183874999994,66.0,82.0
226,51.88544848749999,52.91965746249999,50.0,100.0
227,53.4643934875,53.76044567499999,54.0,69.0
228,53.78018248749999,53.935445412499995,66.0,73.0
229,53.78018248749999,53.949919075,62.0,72.0
230,53.78018248749999,53.951234862499994,59.0,77.0
231,53.148604487499995,53.985445337499996,47.0,98.0
232,54.095971487499995,54.2670238625,47.0,100.0
233,54.72754948749999,54.936759699999996,50.0,55.0
234,54.4117604875,55.434127374999996,43.0,103.0
235,55.043338487499994,55.49070623749999,55.0,70.0
236,55.043338487499994,55.57754821249999,59.0,77.0
237,55.043338487499994,55.57754821249999,62.0,88.0
238,55.67491648749999,55.97228446249999,45.0,98.0
239,56.14859998749999,56.4749152875,45.0,82.0
240,56.14859998749999,56.499915249999994,64.0,82.0
241,56.14859998749999,56.518336274999996,61.0,73.0
242,56.62228348749999,56.777546412499994,49.0,100.0
243,57.2538614875,57.501229537499995,57.0,55.0
244,57.56965048749999,57.9933340625,69.0,75.0
245,57.56965048749999,58.0012287875,66.0,76.0
246,57.56965048749999,58.040702412499996,62.0,88.0
247,57.885439487499994,58.048597137499996,49.0,95.0
248,56.938072487499994,58.076228674999996,50.0,95.0
249,57.885439487499994,58.107807574999995,57.0,85.0
250,58.51701748749999,58.86043802499999,54.0,66.0
251,58.674911987499996,58.92096424999999,59.0,88.0
252,58.201228487499996,58.99070098749999,47.0,103.0
253,58.832806487499994,59.106490287499994,66.0,72.0
254,58.832806487499994,59.114385012499994,62.0,69.0
255,58.99070098749999,59.192016474999996,47.0,88.0
256,59.780173487499994,60.044646775,50.0,57.0
257,59.93806798749999,60.355172624999994,55.0,77.0
258,59.46438448749999,60.46175141249999,43.0,103.0
259,60.41175148749999,60.569645987499996,50.0,57.0
260,60.095962487499996,61.11175043749999,62.0,88.0
261,60.727540487499994,61.1564872125,45.0,103.0
262,60.095962487499996,61.161750362499994,59.0,85.0
263,61.043329487499996,61.19464504999999,52.0,69.0
264,61.35911848749999,61.790696787499996,57.0,88.0
265,61.35911848749999,61.810433599999996,61.0,103.0
266,61.35911848749999,61.826223049999996,64.0,100.0
267,61.35911848749999,61.82885462499999,49.0,91.0
268,61.990696487499996,62.87358989999999,62.0,100.0
269,61.990696487499996,62.8749056875,66.0,113.0
270,61.990696487499996,62.899905649999994,50.0,103.0
271,63.56964148749999,63.843325287499994,54.0,82.0
272,63.25385248749999,63.982798762499996,47.0,109.0
273,63.885430487499995,64.04858813749999,59.0,106.0
274,63.885430487499995,64.1459564125,66.0,88.0
275,63.885430487499995,64.1577985,62.0,79.0
276,64.2012194875,64.4222717875,47.0,103.0
277,64.83279748749999,65.0854286875,50.0,79.0
278,64.5170084875,65.51042804999999,43.0,109.0
279,65.1485864875,65.58937529999999,59.0,98.0
280,65.1485864875,65.59332266249999,55.0,103.0
281,65.1485864875,65.59332266249999,62.0,95.0
282,65.46437548749999,65.6406910125,50.0,72.0
283,65.78016448749999,66.1275323875,45.0,98.0
284,65.78016448749999,66.14200604999999,64.0,113.0
285,65.78016448749999,66.1512165625,61.0,103.0
286,66.2538479875,66.539373875,45.0,100.0
287,66.2538479875,66.63674214999999,64.0,106.0
288,66.2538479875,66.65253159999999,61.0,95.0
289,66.72753148749999,66.8959522875,61.0,95.0
290,66.72753148749999,66.91437331249999,49.0,109.0
291,66.72753148749999,66.9156891,64.0,109.0
292,67.0433204875,67.18279396249999,66.0,113.0
293,67.0433204875,67.18674132499999,62.0,98.0
294,67.35910948749999,67.62753013749999,57.0,98.0
295,67.0433204875,68.0301611125,50.0,109.0
296,67.67489848749999,68.04331898749999,62.0,100.0
297,67.67489848749999,68.11437151249999,66.0,109.0
298,67.67489848749999,68.11831887499999,69.0,113.0
299,67.9906874875,68.14726619999999,49.0,106.0
300,67.9906874875,68.19463454999999,57.0,113.0
301,68.62226548749999,68.902528225,54.0,91.0
302,68.7801599875,68.97094917499999,59.0,109.0
303,68.30647648749999,69.07094902499999,47.0,111.0
304,68.7801599875,69.37226436249999,66.0,103.0
305,69.25384348749999,69.45779055,47.0,106.0
306,68.9380544875,69.53015886249999,62.0,100.0
307,69.8854214875,70.16173686249999,50.0,73.0
308,69.56963248749999,70.63542036249999,43.0,111.0
309,70.20121048749999,70.7012097375,59.0,98.0
310,70.20121048749999,70.702525525,62.0,106.0
311,70.20121048749999,70.7064728875,55.0,91.0
312,70.8327884875,71.10120913749999,45.0,82.0
313,70.8327884875,71.10778807499999,64.0,109.0
314,70.8327884875,71.10910386249999,61.0,98.0
315,71.30647198749999,71.39857711249999,61.0,91.0
316,71.30647198749999,71.40120868749999,45.0,103.0
317,71.30647198749999,71.40252447499999,64.0,103.0
318,71.46436648749999,71.89331321249999,61.0,95.0
319,71.46436648749999,71.89989214999999,49.0,109.0
320,71.46436648749999,71.91305002499999,64.0,117.0
321,72.09594448749999,72.315681,66.0,117.0
322,72.09594448749999,72.3196283625,62.0,115.0
323,72.7275224875,72.9775221125,66.0,115.0
324,72.7275224875,72.9854168375,69.0,115.0
325,72.41173348749999,73.00646943749999,57.0,91.0
326,72.7275224875,73.03541676249999,62.0,98.0
327,72.09594448749999,73.04331148749999,50.0,115.0
328,73.6748894875,73.9248891125,54.0,75.0
329,73.35910048749999,74.134099325,47.0,106.0
330,73.99067848749999,74.1472572,59.0,100.0
331,73.99067848749999,74.1577835,62.0,95.0
332,73.99067848749999,74.1775203125,66.0,95.0
333,74.30646748749999,74.51041455,47.0,109.0
334,74.93804548749999,75.15646621249999,50.0,77.0
335,74.6222564875,75.56304454999999,43.0,111.0
336,75.25383448749999,75.69462329999999,55.0,98.0
337,75.25383448749999,75.713044325,59.0,88.0
338,75.25383448749999,75.72225483749999,62.0,88.0
339,76.20120148749999,76.48935895,52.0,70.0
340,76.5169904875,76.60646403749999,52.0,67.0
341,76.5169904875,76.64725345,57.0,103.0
342,75.88541248749999,76.6564639625,45.0,103.0
343,76.83277948749999,76.95514772499999,45.0,113.0
344,75.88541248749999,77.0169897375,64.0,103.0
345,75.88541248749999,77.0209371,61.0,85.0
346,77.4643574875,77.72883077499999,57.0,66.0
347,77.78014648749999,78.2209353,66.0,100.0
348,77.78014648749999,78.2209353,69.0,103.0
349,77.78014648749999,78.23935632499999,62.0,95.0
350,77.14856848749999,78.28672467499999,50.0,109.0
351,78.09593548749999,78.29856676249999,49.0,98.0
352,78.72751348749999,79.11040764999998,54.0,85.0
353,78.4117244875,79.19067068749999,47.0,111.0
354,79.04330248749999,79.22356537499999,59.0,100.0
355,79.3590914875,79.56830169999999,47.0,100.0
356,79.04330248749999,79.6209332,62.0,79.0
357,79.04330248749999,79.628827925,66.0,85.0
358,79.99066948749999,80.25645856249999,50.0,73.0
359,80.3064584875,80.54987917499999,62.0,77.0
360,79.67488048749999,80.68803686249998,43.0,113.0
361,80.3064584875,80.7590893875,55.0,91.0
362,80.3064584875,80.849878725,59.0,85.0
363,80.62224748749999,80.85514187499999,62.0,72.0
364,81.0959309875,81.37487793749999,57.0,70.0
365,81.2538254875,81.39461474999999,64.0,64.0
366,81.2538254875,81.41040419999999,61.0,50.0
367,80.93803648749999,81.4406673125,45.0,106.0
368,81.56961448749999,82.01698223749999,61.0,75.0
369,81.56961448749999,82.03408747499999,64.0,91.0
370,81.56961448749999,82.0511927125,49.0,109.0
371,82.2011924875,82.99987549999999,66.0,113.0
372,82.2011924875,83.00777022499999,62.0,106.0
373,82.2011924875,83.03145439999999,50.0,113.0
374,83.78013748749999,84.06697916249999,54.0,72.0
375,83.46434848749999,84.30776827499999,47.0,109.0
376,84.0959264875,84.46697856249999,59.0,103.0
377,84.41171548749999,84.62092569999999,47.0,100.0
378,84.0959264875,84.6669782625,66.0,85.0
379,84.0959264875,84.686715075,62.0,82.0
380,85.0432934875,85.265661575,50.0,55.0
381,84.72750448749998,85.33802988749999,43.0,113.0
382,85.35908248749999,85.55381903749999,62.0,76.0
383,85.35908248749999,85.7485555875,55.0,85.0
384,85.67487148749998,85.8327659875,50.0,69.0
385,85.35908248749999,85.8406607125,59.0,77.0
386,85.67487148749998,85.84197649999999,62.0,69.0
387,85.9906604875,86.32487051249998,61.0,79.0
388,85.9906604875,86.32618629999999,64.0,98.0
389,85.9906604875,86.3669757125,45.0,103.0
390,86.46434398749999,86.6643436875,45.0,88.0
391,86.46434398749999,86.72355412499999,64.0,98.0
392,86.46434398749999,86.73013306249999,61.0,85.0
393,86.7801329875,86.91302752499999,45.0,88.0
394,86.9380274875,87.11171143749999,61.0,79.0
395,86.9380274875,87.11960616249999,64.0,98.0
396,87.56960548749998,87.82618405,57.0,91.0
397,87.25381648749999,88.3222359375,50.0,106.0
398,87.8853944875,88.34065696249999,62.0,98.0
399,88.20118348749999,88.36434113749999,49.0,103.0
400,87.8853944875,88.39592003749999,66.0,98.0
401,88.20118348749999,88.413025275,57.0,103.0
402,87.8853944875,88.413025275,69.0,95.0
403,88.8327614875,89.11565579999998,54.0,82.0
404,88.51697248749998,89.3011818375,47.0,111.0
405,89.14855048749999,89.313023925,59.0,98.0
406,89.14855048749999,89.38670802499999,62.0,85.0
407,89.14855048749999,89.4038132625,66.0,91.0
408,89.46433948749998,89.55644461249999,66.0,49.0
409,89.46433948749998,89.6735497,47.0,103.0
410,90.09591748749999,90.35381183749999,50.0,75.0
411,90.41170648749998,90.64986402499999,62.0,76.0
412,89.7801284875,90.81433746249999,43.0,111.0
413,90.41170648749998,90.83275848749999,55.0,82.0
414,90.41170648749998,90.92881097499999,59.0,79.0
415,90.7274954875,90.95117936249999,62.0,60.0
416,91.04328448749999,91.27749466249999,57.0,98.0
417,91.04328448749999,91.30907356249999,45.0,95.0
418,91.04328448749999,91.33670509999999,61.0,100.0
419,91.04328448749999,91.33670509999999,64.0,103.0
420,91.5169679875,91.59328366249999,61.0,85.0
421,91.5169679875,91.59723102499999,64.0,106.0
422,91.5169679875,91.60117838749998,57.0,98.0
423,91.5169679875,91.61565205,45.0,79.0
424,91.6748624875,92.0564408625,64.0,111.0
425,91.6748624875,92.06565137499999,61.0,100.0
426,91.6748624875,92.10249342499999,49.0,109.0
427,91.6748624875,92.1038092125,57.0,106.0
428,92.30644048749998,92.7774924125,57.0,109.0
429,92.30644048749998,93.57880699999998,50.0,98.0
430,92.30644048749998,93.58801751249999,66.0,106.0
431,93.5695964875,93.58801751249999,66.0,111.0
432,92.30644048749998,93.58933329999999,62.0,111.0
433,93.5695964875,93.58933329999999,62.0,103.0
434,93.88538548749999,93.9511748625,66.0,106.0
435,93.88538548749999,93.955122225,62.0,95.0
436,94.20117448749998,94.27091122499999,66.0,111.0
437,94.20117448749998,94.27485858749999,62.0,103.0
438,94.51696348749999,94.57485813749999,66.0,100.0
439,94.51696348749999,94.581437075,62.0,91.0
440,94.67485798749999,94.74459472499998,66.0,103.0
441,94.67485798749999,94.75380523749999,62.0,88.0
442,94.99064698749999,95.060383725,66.0,106.0
443,94.99064698749999,95.06564687499998,62.0,95.0
444,95.3064359875,95.36433063749999,66.0,98.0
445,95.3064359875,95.36696221249998,62.0,77.0
446,95.46433048749999,95.53538301249999,66.0,111.0
447,95.46433048749999,95.54722509999999,62.0,103.0
448,95.78011948749999,95.85248779999999,66.0,113.0
449,95.78011948749999,95.85775095,62.0,100.0
450,96.09590848749998,96.27090822499999,66.0,111.0
451,96.09590848749998,96.2774871625,62.0,106.0
452,96.41169748749999,96.476171075,66.0,106.0
453,96.41169748749999,96.48538158749999,62.0,91.0
454,96.72748648749999,96.79196007499999,66.0,111.0
455,96.72748648749999,96.79459164999999,62.0,100.0
456,97.04327548749998,97.10906486249999,66.0,103.0
457,97.04327548749998,97.1143280125,62.0,82.0
458,97.2011699875,97.27090672499999,66.0,113.0
459,97.2011699875,97.28143302499998,62.0,100.0
460,97.51695898749999,97.5853799375,66.0,115.0
461,97.51695898749999,97.58669572499998,62.0,106.0
462,97.83274798749999,97.89590578749998,62.0,88.0
463,97.83274798749999,97.89985314999998,66.0,109.0
464,97.99064248749998,98.06037922499999,66.0,117.0
465,97.99064248749998,98.065642375,62.0,109.0
466,98.30643148749999,98.38801031249999,66.0,117.0
467,98.30643148749999,98.38932609999999,62.0,113.0
468,98.93800948749998,99.21827222499999,54.0,82.0
469,99.25379848749999,99.62090319999999,59.0,79.0
470,99.25379848749999,99.64985052499999,62.0,62.0
471,99.56958748749999,99.73142934999998,54.0,85.0
472,98.62222048749999,99.75116616249998,47.0,100.0
473,100.20116548749999,100.46563877499999,50.0,64.0
474,99.88537648749998,100.86695396249999,43.0,100.0
475,100.51695448749999,100.92221703749999,55.0,77.0
476,100.51695448749999,100.92879597499999,62.0,70.0
477,100.51695448749999,100.94984857499999,59.0,75.0
478,100.83274348749998,101.09326941249999,50.0,70.0
479,101.46432148749999,101.73405792499999,52.0,82.0
480,101.14853248749999,102.14589941249999,45.0,98.0
481,101.78011048749998,102.19063618749999,57.0,79.0
482,101.78011048749998,102.2945834,64.0,69.0
483,101.78011048749998,102.3143202125,61.0,68.0
484,102.09589948749999,102.31958336249998,52.0,95.0
485,102.72747748749998,102.98800341249999,57.0,75.0
486,103.04326648749999,103.26037142499999,69.0,82.0
487,103.04326648749999,103.26431878749999,66.0,77.0
488,103.04326648749999,103.34326603749999,62.0,68.0
489,102.41168848749999,103.35642391249999,50.0,85.0
490,103.35905548749999,103.56168676249999,49.0,103.0
491,103.99063348749999,104.26694886249999,54.0,109.0
492,103.67484448749998,104.4195802125,47.0,111.0
493,104.30642248749999,104.64721144999999,59.0,106.0
494,104.62221148749998,104.83142169999999,47.0,106.0
495,104.30642248749999,104.88800056249998,62.0,100.0
496,104.30642248749999,104.88800056249998,66.0,111.0
497,105.25378948749999,105.50642068749998,50.0,91.0
498,105.7274729875,105.92484111249999,50.0,72.0
499,104.93800048749999,106.01036729999998,43.0,111.0
500,105.56957848749998,106.0208936,55.0,109.0
501,105.56957848749998,106.04326198749999,59.0,100.0
502,105.56957848749998,106.05378828749998,62.0,103.0
503,106.20115648749999,106.64194529999999,45.0,106.0
504,106.20115648749999,106.70773467499998,61.0,103.0
505,106.20115648749999,106.71562939999998,64.0,113.0
506,106.83273448749999,107.22615495,61.0,100.0
507,106.83273448749999,107.2419444,64.0,111.0
508,106.83273448749999,107.2695759375,49.0,106.0
509,107.30641798749998,108.1301009625,50.0,100.0
510,107.46431248749998,108.24589026249998,62.0,103.0
511,107.46431248749998,108.24589026249998,66.0,113.0
512,109.04325748749999,109.33930967499998,54.0,98.0
513,108.72746848749999,109.53404622499998,47.0,106.0
514,109.35904648749998,109.53667779999999,59.0,103.0
515,109.35904648749998,109.56036197499999,62.0,91.0
516,109.35904648749998,109.56299354999999,66.0,95.0
517,109.67483548749999,109.87746676249999,47.0,103.0
518,110.30641348749998,110.55641311249998,50.0,82.0
519,109.99062448749999,111.039307125,43.0,113.0
520,110.62220248749999,111.08667547499999,59.0,103.0
521,110.62220248749999,111.09193862499998,55.0,100.0
522,110.62220248749999,111.10114913749999,62.0,106.0
523,110.93799148749999,111.12220173749999,50.0,88.0
524,111.2537804875,111.586674725,45.0,100.0
525,111.2537804875,111.58930629999999,61.0,95.0
526,111.2537804875,111.59193787499999,64.0,109.0
527,111.72746398749999,111.9669373125,45.0,85.0
528,111.72746398749999,112.01298987499999,61.0,95.0
529,111.72746398749999,112.02877932499999,64.0,109.0
530,112.2011474875,112.34325253749999,45.0,95.0
531,112.2011474875,112.38404194999998,61.0,98.0
532,112.2011474875,112.38798931249998,64.0,109.0
533,112.83272548749999,113.09983034999999,57.0,91.0
534,112.51693648749999,113.58930329999998,50.0,113.0
535,113.1485144875,113.59061908749999,62.0,100.0
536,113.46430348749999,113.61956641249999,49.0,103.0
537,113.1485144875,113.70903996249999,69.0,113.0
538,113.1485144875,113.71693468749999,66.0,109.0
539,113.46430348749999,113.72088204999999,57.0,100.0
540,114.0958814875,114.36561792499998,54.0,100.0
541,113.78009248749999,114.54588081249999,47.0,111.0
542,114.41167048749999,114.63009121249999,59.0,103.0
543,114.72745948749998,114.94588021249999,47.0,106.0
544,114.41167048749999,114.99719592499999,62.0,88.0
545,114.41167048749999,115.00114328749999,66.0,88.0
546,115.35903748749999,115.58930029999999,50.0,79.0
547,115.83272098749998,116.02482596249999,50.0,66.0
548,115.0432484875,116.08929954999999,43.0,113.0
549,115.67482648749998,116.12877317499999,59.0,91.0
550,115.67482648749998,116.13929947499999,55.0,95.0
551,115.67482648749998,116.14456262499999,62.0,85.0
552,116.30640448749999,116.57350934999998,45.0,88.0
553,116.30640448749999,116.59061458749999,61.0,98.0
554,116.30640448749999,116.59193037499999,64.0,109.0
555,116.78008798749998,116.87350889999999,45.0,85.0
556,116.78008798749998,116.87745626249999,61.0,79.0
557,116.78008798749998,116.88535098749999,64.0,100.0
558,116.9379824875,117.36298184999998,61.0,85.0
559,116.9379824875,117.36561342499999,64.0,106.0
560,116.9379824875,117.39324496249999,49.0,111.0
561,117.56956048749998,118.5156117,62.0,95.0
562,117.56956048749998,118.5156117,66.0,113.0
563,117.56956048749998,118.5274537875,50.0,106.0
564,118.8327164875,119.83797813749999,59.0,82.0
565,118.8327164875,119.87613597499998,47.0,71.0
566,120.09587248749999,121.14981827499999,43.0,91.0
567,120.09587248749999,121.17350244999999,55.0,76.0
568,121.35902848749998,121.69323851249999,45.0,79.0
569,121.35902848749998,121.70508059999999,64.0,88.0
570,121.35902848749998,121.71823847499999,61.0,98.0
571,121.35902848749998,121.71955426249998,57.0,79.0
572,121.83271198749999,122.08271161249999,45.0,67.0
573,121.83271198749999,122.15771149999999,57.0,79.0
574,121.83271198749999,122.16692201249998,61.0,95.0
575,121.83271198749999,122.16955358749999,64.0,88.0
576,122.30639548749998,122.48402679999998,64.0,77.0
577,122.30639548749998,122.49455309999999,57.0,79.0
578,122.30639548749998,122.49455309999999,61.0,95.0
579,122.30639548749998,122.54718459999998,45.0,68.0
580,122.6221844875,123.52744628749998,66.0,100.0
581,122.6221844875,123.53139364999998,50.0,77.0
582,122.6221844875,123.53270943749999,57.0,85.0
583,122.6221844875,123.534025225,62.0,98.0
584,123.5695514875,123.76560382499999,49.0,100.0
585,124.20112948749998,124.481392225,54.0,82.0
586,123.88534048749999,124.68928664999999,47.0,106.0
587,124.51691848749999,124.77876019999998,59.0,98.0
588,124.51691848749999,124.78533913749999,66.0,88.0
589,124.51691848749999,124.79586543749998,62.0,91.0
590,124.83270748749999,125.03402297499998,47.0,100.0
591,125.46428548749999,125.71296932499999,50.0,79.0
592,125.14849648749998,126.16691601249998,43.0,109.0
593,125.78007448749999,126.19981069999999,59.0,79.0
594,125.78007448749999,126.20507384999999,62.0,77.0
595,125.78007448749999,126.24323168749999,55.0,95.0
596,126.09586348749998,126.26033692499999,50.0,38.0
597,126.41165248749999,126.67217841249999,45.0,106.0
598,126.41165248749999,126.697178375,61.0,100.0
599,126.41165248749999,126.69849416249998,64.0,109.0
600,126.88533598749999,126.96165166249999,61.0,88.0
601,126.88533598749999,126.97086217499998,64.0,106.0
602,126.88533598749999,126.99191477499998,45.0,69.0
603,127.04323048749998,127.43007201249999,61.0,73.0
604,127.04323048749998,127.44454567499999,64.0,95.0
605,127.04323048749998,127.50112453749999,49.0,106.0
606,127.67480848749999,128.5221756375,62.0,100.0
607,127.67480848749999,128.52480721249998,66.0,113.0
608,127.67480848749999,128.54717559999997,50.0,100.0
609,129.25375348749998,129.512963625,54.0,85.0
610,128.93796448749998,129.69717387499998,47.0,88.0
611,129.56954248749997,129.734015925,59.0,103.0
612,129.56954248749997,129.7721737625,62.0,98.0
613,129.56954248749997,129.77348955,66.0,95.0
614,129.8853314875,130.08664697499998,47.0,106.0
615,130.5169094875,130.75111966249997,50.0,88.0
616,130.2011204875,131.16559272499998,43.0,111.0
617,130.83269848749998,131.2563820625,55.0,100.0
618,130.83269848749998,131.26032942499998,59.0,91.0
619,130.83269848749998,131.26822414999998,62.0,88.0
620,131.30638198749998,131.318224075,67.0,76.0
621,131.14848748749998,131.32085565,50.0,70.0
622,131.7800654875,132.112959725,52.0,75.0
623,131.46427648749997,132.34716989999998,45.0,109.0
624,132.0958544875,132.3905908875,57.0,98.0
625,132.4116434875,132.54453802499998,45.0,100.0
626,131.46427648749997,132.660327325,61.0,85.0
627,132.0958544875,132.66822205,64.0,85.0
628,133.04322148749998,133.29980005,57.0,77.0
629,133.35901048749997,133.681378425,69.0,106.0
630,133.35901048749997,133.6826942125,66.0,103.0
631,132.72743248749998,133.7116415375,50.0,115.0
632,133.35901048749997,133.72085205,62.0,98.0
633,133.6747994875,133.855062375,49.0,106.0
634,134.3063774875,134.6090086125,54.0,85.0
635,133.9905884875,134.7905872875,47.0,111.0
636,134.62216648749998,134.7984820125,59.0,103.0
637,134.93795548749998,135.14321833749997,47.0,106.0
638,134.62216648749998,135.15111306249997,66.0,91.0
639,134.62216648749998,135.16295515,62.0,77.0
640,135.5695334875,135.8313752,50.0,72.0
641,135.25374448749997,136.24058511249999,43.0,113.0
642,135.8853224875,136.35900598749998,55.0,91.0
643,135.8853224875,136.3616375625,59.0,88.0
644,135.8853224875,136.36426913749997,62.0,77.0
645,136.51690048749998,137.00768922499998,45.0,106.0
646,136.51690048749998,137.0418997,64.0,106.0
647,136.51690048749998,137.05374178749997,61.0,95.0
648,137.14847848749997,137.6379514375,49.0,103.0
649,137.14847848749997,137.64189879999998,61.0,77.0
650,137.14847848749997,137.65110931249998,64.0,106.0
651,137.7800564875,138.63400257499998,62.0,103.0
652,137.7800564875,138.644528875,66.0,113.0
653,137.7800564875,138.676107775,50.0,109.0
654,139.3590014875,139.63136949999998,54.0,79.0
655,139.04321248749997,139.82347447499998,47.0,109.0
656,139.6747904875,139.82610605,59.0,103.0
657,139.6747904875,139.8418955,62.0,91.0
658,139.6747904875,139.849790225,66.0,88.0
659,139.99057948749999,140.1997897,47.0,106.0
660,140.62215748749998,140.8734729,50.0,72.0
661,140.30636848749998,141.3576827,43.0,111.0
662,140.93794648749997,141.37741951249998,59.0,79.0
663,140.93794648749997,141.3879458125,62.0,77.0
664,140.93794648749997,141.418208925,55.0,85.0
665,141.5695244875,141.91031345,45.0,95.0
666,141.5695244875,141.9195239625,61.0,85.0
667,141.5695244875,141.92215553749998,64.0,109.0
668,142.04320798749998,142.2984707625,45.0,91.0
669,142.04320798749998,142.38136537499997,64.0,103.0
670,142.04320798749998,142.38926009999997,61.0,91.0
671,142.51689148749998,142.6800491375,61.0,88.0
672,142.51689148749998,142.6958385875,64.0,100.0
673,142.51689148749998,142.71031225,49.0,106.0
674,142.83268048749997,143.15373263749999,62.0,98.0
675,142.83268048749997,143.155048425,66.0,111.0
676,143.1484694875,143.40504804999998,57.0,76.0
677,143.4642584875,143.812942175,62.0,77.0
678,143.4642584875,143.81688953749997,66.0,103.0
679,143.4642584875,143.81688953749997,69.0,109.0
680,142.83268048749997,143.8458368625,50.0,98.0
681,143.78004748749998,143.94452092499998,57.0,103.0
682,143.78004748749998,143.96820509999998,49.0,111.0
683,144.41162548749998,144.497151675,66.0,68.0
684,144.41162548749998,144.68399349999999,54.0,98.0
685,144.09583648749998,144.85767744999998,47.0,113.0
686,144.72741448749997,144.96688781249998,59.0,109.0
687,144.72741448749997,144.98530883749999,66.0,75.0
688,144.72741448749997,145.2563610625,62.0,85.0
689,145.0432034875,145.25767685,47.0,103.0
690,145.67478148749998,145.912939025,50.0,77.0
691,145.3589924875,146.33925417499998,43.0,111.0
692,146.14846498749998,146.35372783749997,50.0,77.0
693,145.99057048749998,146.41951721249998,55.0,95.0
694,145.99057048749998,146.42609614999998,59.0,82.0
695,145.99057048749998,146.44320138749998,62.0,82.0
696,146.62214848749997,146.94056906249997,64.0,103.0
697,146.62214848749997,146.9458322125,61.0,77.0
698,146.62214848749997,146.9537269375,45.0,98.0
699,146.9379374875,146.9537269375,45.0,98.0
700,147.0958319875,147.1747792375,61.0,73.0
701,147.0958319875,147.17872659999998,64.0,95.0
702,147.2537264875,147.66293639999998,61.0,77.0
703,147.2537264875,147.6668837625,49.0,113.0
704,147.2537264875,147.67214691249998,64.0,100.0
705,147.72740998749998,149.20898671249998,50.0,100.0
706,147.88530448749998,149.3247760125,62.0,95.0
707,147.88530448749998,149.339249675,66.0,109.0
708,149.46424948749998,149.7984595125,54.0,42.0
709,149.78003848749998,150.091880125,59.0,67.0
710,149.1484604875,150.281353525,47.0,72.0
711,149.78003848749998,150.3774060125,66.0,71.0
712,149.78003848749998,150.4010901875,62.0,70.0
713,150.7274054875,150.99319456249998,50.0,52.0
714,150.41161648749997,151.4089834125,43.0,79.0
715,151.0431944875,151.455035975,55.0,71.0
716,151.0431944875,151.59319366249997,62.0,69.0
717,151.0431944875,151.60240417499998,59.0,71.0
718,151.99056148749997,152.49713967499997,52.0,46.0
719,151.67477248749998,152.5116133375,45.0,85.0
720,152.30635048749997,152.6379289375,57.0,70.0
721,152.30635048749997,152.8839812,64.0,67.0
722,152.30635048749997,152.90371801249998,61.0,68.0
723,153.0958229875,153.40371726249998,57.0,62.0
724,153.56950648749998,153.6852957875,62.0,77.0
725,152.9379284875,153.77740091249998,50.0,95.0
726,153.56950648749998,153.90108493749997,69.0,69.0
727,153.56950648749998,153.93529541249998,66.0,71.0
728,153.88529548749997,154.09055833749997,49.0,106.0
729,154.5168734875,154.9931885625,54.0,75.0
730,154.20108448749997,155.02608324999997,47.0,111.0
731,155.14845148749998,155.37476693749997,47.0,106.0
732,154.8326624875,155.47345099999998,66.0,109.0
733,154.8326624875,155.47871414999997,62.0,106.0
734,155.78002948749997,156.070818525,50.0,71.0
735,156.2537129875,156.43266008749998,50.0,82.0
736,156.09581848749997,156.51950206249998,55.0,98.0
737,155.46424048749998,156.5221336375,43.0,111.0
738,156.7273964875,157.02344867499997,45.0,88.0
739,156.7273964875,157.044501275,67.0,88.0
740,156.7273964875,157.04713285,61.0,88.0
741,156.7273964875,157.04713285,64.0,106.0
742,156.09581848749997,157.08265911249998,59.0,79.0
743,156.09581848749997,157.09581698749997,62.0,76.0
744,157.20107998749998,157.276079875,67.0,88.0
745,157.20107998749998,157.28529038749997,64.0,95.0
746,157.20107998749998,157.28660617499997,61.0,75.0
747,157.19318526249998,157.3063429875,45.0,73.0
748,157.35897448749998,157.74055286249998,61.0,76.0
749,157.35897448749998,157.74186865,49.0,73.0
750,157.35897448749998,157.7431844375,64.0,100.0
751,157.35897448749998,157.75239495,67.0,88.0
752,157.9905524875,158.84186699999998,69.0,91.0
753,157.9905524875,158.844498575,62.0,85.0
754,157.9905524875,158.8537090875,66.0,100.0
755,157.9905524875,158.876077475,50.0,76.0
756,159.25370848749998,159.34186624999998,62.0,88.0
757,159.25370848749998,159.344497825,66.0,103.0
758,159.25370848749998,159.3458136125,69.0,95.0
759,159.25370848749998,159.36423463749998,50.0,91.0
760,159.56949748749997,159.65107631249998,62.0,79.0
761,159.56949748749997,159.65107631249998,66.0,98.0
762,159.56949748749997,159.65107631249998,69.0,82.0
763,159.56949748749997,159.66423418749997,50.0,82.0
764,159.8852864875,159.96686531249998,62.0,91.0
765,159.8852864875,159.96686531249998,66.0,106.0
766,159.8852864875,159.96686531249998,69.0,98.0
767,159.8852864875,159.9787074,50.0,82.0
768,160.2010754875,160.25765435,69.0,85.0
769,160.2010754875,160.25897013749997,62.0,75.0
770,160.2010754875,160.26686486249997,66.0,103.0
771,160.2010754875,160.31028584999999,50.0,88.0
772,160.3589699875,161.112916225,67.0,58.0
773,160.3589699875,161.1905476875,63.0,92.0
774,160.3589699875,161.191863475,70.0,84.0
775,160.3589699875,161.22607394999997,51.0,84.0
776,162.0958094875,162.37080907499998,55.0,75.0
777,162.4115984875,162.5563351125,67.0,95.0
778,161.7800204875,162.55896668749998,48.0,100.0
779,162.4115984875,162.55896668749998,72.0,71.0
780,162.4115984875,162.57344034999997,60.0,100.0
781,162.4115984875,162.57344034999997,63.0,100.0
782,162.72738748749998,162.92607139999998,48.0,106.0
783,163.35896548749997,163.57475463749998,51.0,51.0
784,163.04317648749998,163.99580663749998,44.0,109.0
785,163.6747544875,164.12738538749997,63.0,79.0
786,163.6747544875,164.12870117499997,60.0,85.0
787,163.6747544875,164.13659589999997,56.0,95.0
788,163.6747544875,164.16685901249997,68.0,72.0
789,163.9905434875,164.16817479999997,51.0,65.0
790,164.62212148749998,164.9089631625,53.0,75.0
791,164.3063324875,165.01159458749999,46.0,106.0
792,164.93791048749998,165.18133117499997,58.0,100.0
793,164.93791048749998,165.33396252499998,65.0,79.0
794,164.93791048749998,165.36685721249998,62.0,85.0
795,165.25369948749997,165.3786993,46.0,109.0
796,164.93791048749998,165.38922559999997,70.0,68.0
797,165.8852774875,166.17475073749998,58.0,85.0
798,166.2010664875,166.30764527499997,63.0,95.0
799,166.2010664875,166.3365926,70.0,76.0
800,166.2010664875,166.34053996249997,67.0,79.0
801,166.2010664875,166.34185574999998,75.0,70.0
802,165.5694884875,166.38264516249998,51.0,100.0
803,166.51685548749998,166.7405393625,50.0,100.0
804,167.14843348749997,167.455011975,55.0,75.0
805,167.4642224875,167.58001178749998,67.0,91.0
806,166.83264448749998,167.59974859999997,48.0,109.0
807,167.4642224875,167.60501175,63.0,85.0
808,167.4642224875,167.61816962499998,60.0,91.0
809,167.4642224875,167.64316958749998,72.0,75.0
810,167.7800114875,167.98132697499997,48.0,111.0
811,168.41158948749998,168.6905364375,51.0,76.0
812,168.72737848749998,169.08395689999998,63.0,95.0
813,168.72737848749998,169.08658847499999,60.0,91.0
814,168.72737848749998,169.1050095,68.0,75.0
815,168.72737848749998,169.10632528749997,56.0,82.0
816,168.0958004875,169.17079887499997,44.0,109.0
817,169.04316748749997,169.1905356875,51.0,91.0
818,169.3589564875,169.6431665875,46.0,109.0
819,169.3589564875,169.87474518749997,62.0,95.0
820,169.3589564875,169.8800083375,65.0,103.0
821,169.3589564875,169.89185042499997,68.0,85.0
822,169.99053448749999,170.397112825,50.0,88.0
823,169.99053448749999,170.41553384999997,62.0,91.0
824,169.99053448749999,170.4510601125,65.0,106.0
825,169.99053448749999,170.4589548375,68.0,98.0
826,170.62211248749998,171.5615847625,51.0,95.0
827,170.62211248749998,171.5694794875,63.0,88.0
828,170.62211248749998,171.57211106249997,67.0,109.0
829,170.62211248749998,171.57211106249997,70.0,98.0
830,171.88526848749999,172.64316208749997,48.0,106.0
831,172.20105748749998,172.6721094125,55.0,75.0
832,172.51684648749998,172.69053043749997,60.0,98.0
833,172.83263548749997,173.0510562125,48.0,106.0
834,172.51684648749998,173.05631936249998,67.0,95.0
835,172.51684648749998,173.08131932499998,63.0,91.0
836,173.4642134875,173.7576341,51.0,66.0
837,173.1484244875,174.18789661249997,44.0,111.0
838,173.78000248749998,174.20500184999997,56.0,88.0
839,173.78000248749998,174.23131759999998,60.0,88.0
840,173.78000248749998,174.23921232499998,63.0,77.0
841,174.09579148749998,174.2800017375,51.0,82.0
842,174.56947498749997,174.64842223749997,53.0,69.0
843,174.41158048749998,174.7576326,62.0,82.0
844,174.41158048749998,174.7576326,65.0,103.0
845,174.41158048749998,174.76947468749998,46.0,103.0
846,174.88526398749997,175.15763199999998,46.0,98.0
847,174.88526398749997,175.25105291249997,62.0,95.0
848,174.88526398749997,175.25236869999998,65.0,106.0
849,175.3589474875,175.52342092499998,62.0,95.0
850,175.3589474875,175.5326314375,65.0,106.0
851,175.3589474875,175.55236824999997,50.0,100.0
852,175.67473648749998,175.97999918749997,67.0,111.0
853,175.67473648749998,175.98263076249998,63.0,98.0
854,175.99052548749998,176.29052503749998,58.0,88.0
855,176.30631448749998,176.53394572499997,63.0,73.0
856,175.67473648749998,176.58394564999998,51.0,100.0
857,176.62210348749997,176.83789263749998,50.0,95.0
858,177.2536814875,177.60631253749997,55.0,71.0
859,176.9378924875,177.75104916249998,48.0,103.0
860,177.56947048749998,177.7773649125,60.0,75.0
861,177.56947048749998,177.87868054999998,67.0,75.0
862,177.56947048749998,177.89183842499997,63.0,70.0
863,177.56947048749998,178.05236449999998,72.0,70.0
864,177.88525948749998,178.08920654999997,48.0,98.0
865,178.51683748749997,178.7773634125,51.0,67.0
866,178.20104848749997,179.1799943875,44.0,109.0
867,178.8326264875,179.22473116249998,56.0,73.0
868,178.8326264875,179.26288899999997,60.0,75.0
869,178.8326264875,179.26946793749997,63.0,73.0
870,178.8326264875,179.28525738749997,68.0,68.0
871,179.1484154875,179.31157313749998,51.0,58.0
872,179.43657294999997,179.84709865,46.0,100.0
873,179.74841458749998,180.03262468749998,53.0,91.0
874,180.05499307499997,180.42736093749997,58.0,76.0
875,180.997096925,181.36420163749997,72.0,75.0
876,181.32735958749998,181.7010432375,74.0,71.0
877,181.63525386249998,181.96814809999998,75.0,71.0
878,180.38393994999998,183.25367248749998,62.0,85.0
879,180.70893946249998,183.25367248749998,65.0,82.0
880,182.00630593749997,183.25367248749998,77.0,73.0
881,184.31946036249997,184.6418283,65.0,69.0
882,184.69445979999998,184.83130169999998,67.0,95.0
883,185.06945923749998,185.41682713749998,70.0,79.0
884,185.4839323,185.79577393749997,75.0,71.0
885,185.87603697499998,186.23524696249999,77.0,70.0
886,186.31814157499997,186.50761497499997,79.0,61.0
887,186.776035625,187.3786663,82.0,66.0
888,183.58393514999997,188.47603307499998,58.0,60.0
889,183.96288194999997,188.48919094999997,63.0,71.0
890,183.1681463,188.50103303749998,51.0,91.0
891,187.39708732499997,188.53129614999997,87.0,60.0
