,start,end,pitch,velocity
0,30.996004837500003,31.1588834625,66.0,83.0
1,31.2232773375,31.353959025,66.0,83.0
2,31.450549837500002,31.702443525,66.0,84.0
3,31.677822337500004,31.905094837500002,63.0,84.0
4,31.905094837500002,32.412670087500004,68.0,83.0
5,32.5869123375,33.8122899,66.0,83.0
6,34.632364837500006,34.7800919625,66.0,84.0
7,34.859637337500004,34.975167525,66.0,83.0
8,35.0869098375,35.2876672125,66.0,78.0
9,35.3141823375,35.528197275,63.0,83.0
10,35.5414548375,35.952439275,68.0,82.0
11,35.9959998375,37.2535743375,66.0,83.0
12,38.2687248375,38.399406525,66.0,84.0
13,38.4959973375,38.5944820875,66.0,82.0
14,38.7232698375,38.901299962500005,66.0,82.0
15,38.950542337499996,39.096375525,63.0,82.0
16,39.1778148375,39.5300872125,68.0,79.0
17,39.632359837500005,39.7762990875,66.0,84.0
18,39.8596323375,40.4732680875,68.0,78.0
19,40.5414498375,40.990313025000006,66.0,83.0
20,40.99599483750001,41.3728884,68.0,77.0
21,41.4505398375,41.914554525,66.0,82.0
22,41.9050848375,44.44106715,61.0,82.0
23,45.5414448375,45.68349015,66.0,81.0
24,45.7687173375,45.878565712500006,66.0,78.0
25,45.995989837500005,46.2005350875,66.0,81.0
26,46.2232623375,46.3861409625,63.0,83.0
27,46.4505348375,46.86530715000001,68.0,82.0
28,46.9050798375,48.47136615,66.0,83.0
29,49.1778048375,49.308486525,66.0,83.0
30,49.4050773375,49.5111378375,66.0,82.0
31,49.6323498375,49.8255314625,66.0,80.0
32,49.8596223375,50.0641675875,63.0,81.0
33,50.086894837500004,50.4940914,68.0,83.0
34,50.5414398375,52.0944685875,66.0,84.0
35,52.8141648375,52.956210150000004,66.0,82.0
36,53.0414373375,53.147497837500005,66.0,83.0
37,53.268709837500005,53.4581035875,66.0,83.0
38,53.4959823375,53.649391275,63.0,82.0
39,53.7232548375,54.1134059625,68.0,83.0
40,54.177799837500004,54.3217390875,66.0,83.0
41,54.4050723375,54.952420275,68.0,82.0
42,55.0868898375,55.5073439625,61.0,83.0
43,55.5414348375,55.9277980875,68.0,83.0
44,55.9959798375,56.323631025000005,66.0,83.0
45,56.450524837500005,57.634235775,66.0,83.0
46,58.2687048375,58.6285529625,70.0,84.0
47,58.7232498375,59.088779775,71.0,87.0
48,59.1777948375,60.3179452125,73.0,83.0
49,60.541429837500004,60.9429445875,63.0,82.0
50,60.9959748375,61.950519337500005,62.0,85.0
51,61.9050648375,62.778170025,71.0,87.0
52,62.8141548375,63.7421842125,70.0,83.0
53,64.1777898375,64.54710765,71.0,85.0
54,64.6323348375,65.9959698375,70.0,83.0
55,66.45051483750001,66.823620525,68.0,82.0
56,66.9050598375,67.2724837125,66.0,83.0
57,67.3596048375,67.77058927499999,66.0,83.0
58,67.8141498375,68.16452827500001,63.0,80.0
59,68.2686948375,68.611497525,63.0,84.0
60,68.7232398375,69.09255765,65.0,86.0
61,69.1777848375,69.5376329625,66.0,83.0
62,69.63232983750001,70.13043540000001,68.0,76.0
63,70.0868748375,71.4505098375,70.0,80.0
64,71.4505098375,71.93535783749999,73.0,86.0
65,71.9050548375,72.7686903375,68.0,80.0
66,72.81414483750001,73.6929318375,70.0,83.0
67,73.7232348375,74.6399005875,66.0,83.0
68,74.6323248375,74.8255064625,61.0,86.0
69,74.85959733749999,75.00164265000001,73.0,84.0
70,75.0868698375,75.202400025,73.0,84.0
71,75.3141423375,75.4486119,73.0,81.0
72,75.5414148375,75.9183084,73.0,84.0
73,75.99595983750001,76.1304294,73.0,84.0
74,76.22323233750001,76.35012615,73.0,84.0
75,76.4505048375,76.7648984625,73.0,83.0
76,76.9050498375,77.293307025,71.0,83.0
77,77.3595948375,77.95050333750001,65.0,83.0
78,78.2686848375,78.42588165000001,61.0,89.0
79,78.4959573375,78.611487525,73.0,80.0
80,78.7232298375,78.846335775,73.0,81.0
81,78.95050233750001,79.0603507125,73.0,83.0
82,79.17777483750001,79.48648665,73.0,84.0
83,79.6323198375,79.74785002499999,73.0,82.0
84,79.8595923375,79.97133465,73.0,82.0
85,80.0868648375,80.38421302500001,73.0,86.0
86,80.5414098375,80.73080358749999,71.0,85.0
87,80.7686823375,80.94103064999999,70.0,83.0
88,80.9959548375,81.67777233749999,66.0,84.0
89,81.90504483750001,82.14557490000001,63.0,84.0
90,82.13231733750001,82.2667869,73.0,71.0
91,82.35958983750001,82.475120025,73.0,86.0
92,82.58686233750001,82.747847025,73.0,83.0
93,82.8141348375,83.15314964999999,75.0,87.0
94,83.2686798375,83.4637554,75.0,84.0
95,83.4959523375,83.62474008750002,78.0,67.0
96,83.7232248375,84.16261833749999,75.0,98.0
97,84.1777698375,84.58117852500001,73.0,84.0
98,84.63231483749999,85.36905652499999,71.0,84.0
99,85.54140483750001,85.66829865,63.0,84.0
100,85.76867733750001,85.884207525,63.0,86.0
101,85.9959498375,86.126631525,66.0,83.0
102,86.2232223375,86.35958583749999,68.0,82.0
103,86.4504948375,86.78950965000001,70.0,82.0
104,86.9050398375,87.32360002499999,61.0,83.0
105,87.3595848375,87.6664027125,63.0,82.0
106,87.81412983749999,88.16829615,66.0,84.0
107,88.26867483750001,88.60768965,71.0,83.0
108,88.72321983750001,89.03950739999999,71.0,80.0
109,89.1777648375,89.51677964999999,71.0,86.0
110,89.6323098375,89.98647615000002,73.0,83.0
111,90.0868548375,90.8368540875,68.0,81.0
112,90.99594483749999,91.7913985875,70.0,84.0
113,91.90503483750001,92.8217005875,66.0,83.0
114,92.8141248375,93.0073064625,61.0,86.0
115,93.0413973375,93.18344264999999,73.0,84.0
116,93.2686698375,93.38420002500001,73.0,84.0
117,93.4959423375,93.63041190000001,73.0,81.0
118,93.7232148375,94.10010840000001,73.0,84.0
119,94.17775983749999,94.3122294,73.0,84.0
120,94.40503233749999,94.53192615,73.0,84.0
121,94.63230483750002,94.9466984625,73.0,83.0
122,95.08684983750001,95.475107025,71.0,83.0
123,95.54139483750001,96.13230333749999,65.0,83.0
124,96.4504848375,96.60768164999999,61.0,89.0
125,96.6777573375,96.79328752500001,73.0,80.0
126,96.9050298375,97.02813577500001,73.0,81.0
127,97.1323023375,97.2421507125,73.0,83.0
128,97.35957483749999,97.66828665,73.0,84.0
129,97.81411983750002,97.929650025,73.0,82.0
130,98.04139233750001,98.15313465,73.0,82.0
131,98.26866483750001,98.56601302499999,73.0,86.0
132,98.72320983750001,98.9126035875,71.0,85.0
133,98.9504823375,99.12283065,70.0,83.0
134,99.1777548375,99.8595723375,66.0,84.0
135,100.0868448375,100.3273749,63.0,84.0
136,100.3141173375,100.44858690000001,73.0,71.0
137,100.54138983749999,100.656920025,73.0,86.0
138,100.76866233749999,100.92964702500001,73.0,83.0
139,100.99593483749999,101.33494965,75.0,87.0
140,101.45047983750001,101.6455554,75.0,84.0
141,101.67775233750001,101.8065400875,78.0,67.0
142,101.90502483750001,102.3444183375,75.0,98.0
143,102.3595698375,102.762978525,73.0,84.0
144,102.8141148375,103.550856525,71.0,84.0
145,103.72320483749999,103.85009865,63.0,84.0
146,103.95047733749999,104.066007525,63.0,86.0
147,104.17774983749999,104.308431525,66.0,83.0
148,104.40502233750001,104.5413858375,68.0,82.0
149,104.63229483750001,104.97130965,70.0,82.0
150,105.08683983750001,105.505400025,61.0,83.0
151,105.5413848375,105.84820271250001,63.0,82.0
152,105.9959298375,106.35009615000001,66.0,84.0
153,106.4504748375,106.78948965000001,71.0,83.0
154,106.90501983749999,107.2213074,71.0,80.0
155,107.35956483749999,107.69857965,71.0,86.0
156,107.81410983750001,108.16827615,70.0,83.0
157,108.26865483750001,109.01865408750001,68.0,81.0
158,109.1777448375,110.08683483749999,70.0,84.0
159,110.08683483749999,111.9050148375,66.0,83.0
160,125.5413648375,125.68341015000001,66.0,81.0
161,125.7686373375,125.87848571250001,66.0,78.0
162,125.9959098375,126.20045508749999,66.0,81.0
163,126.22318233749999,126.38606096250001,63.0,83.0
164,126.45045483749999,126.86522715000001,68.0,82.0
165,126.90499983750001,128.47128615,66.0,83.0
166,129.1777248375,129.308406525,66.0,83.0
167,129.4049973375,129.5110578375,66.0,82.0
168,129.6322698375,129.8254514625,66.0,80.0
169,129.8595423375,130.0640875875,63.0,81.0
170,130.08681483750001,130.4940114,68.0,83.0
171,130.5413598375,132.0943885875,66.0,84.0
172,132.8140848375,132.95613015,66.0,82.0
173,133.0413573375,133.1474178375,66.0,83.0
174,133.26862983750001,133.4580235875,66.0,83.0
175,133.4959023375,133.649311275,63.0,82.0
176,133.7231748375,134.1133259625,68.0,83.0
177,134.1777198375,134.3216590875,66.0,83.0
178,134.4049923375,134.952340275,68.0,82.0
179,135.0868098375,135.5072639625,61.0,83.0
180,135.5413548375,135.9277180875,68.0,83.0
181,135.9958998375,136.323551025,66.0,83.0
182,136.45044483750002,137.634155775,66.0,83.0
183,138.2686248375,138.6284729625,70.0,84.0
184,138.7231698375,139.088699775,71.0,87.0
185,139.1777148375,140.3178652125,73.0,83.0
186,140.5413498375,140.9428645875,63.0,82.0
187,140.9958948375,141.9504393375,62.0,85.0
188,141.9049848375,142.778090025,71.0,87.0
189,142.81407483750002,143.7421042125,70.0,83.0
190,144.1777098375,144.54702765000002,71.0,85.0
191,144.6322548375,145.99588983750002,70.0,83.0
192,146.4504348375,146.823540525,68.0,82.0
193,146.9049798375,147.27240371250002,66.0,83.0
194,147.3595248375,147.770509275,66.0,83.0
195,147.8140698375,148.164448275,63.0,80.0
196,148.2686148375,148.611417525,63.0,84.0
197,148.72315983750002,149.09247765,65.0,86.0
198,149.17770483750002,149.5375529625,66.0,83.0
199,149.6322498375,150.1303554,68.0,76.0
200,150.0867948375,151.4504298375,70.0,80.0
201,151.4504298375,151.9352778375,73.0,86.0
202,151.90497483750002,152.7686103375,68.0,80.0
203,152.8140648375,153.6928518375,70.0,83.0
204,153.7231548375,154.6398205875,66.0,83.0
205,154.6322448375,154.82542646250002,61.0,86.0
206,154.85951733750002,155.00156265,73.0,84.0
207,155.08678983750002,155.202320025,73.0,84.0
208,155.31406233750002,155.4485319,73.0,81.0
209,155.54133483750002,155.9182284,73.0,84.0
210,155.9958798375,156.1303494,73.0,84.0
211,156.2231523375,156.35004615,73.0,84.0
212,156.4504248375,156.76481846250002,73.0,83.0
213,156.9049698375,157.29322702500002,71.0,83.0
214,157.3595148375,157.9504233375,65.0,83.0
215,158.26860483750002,158.42580165,61.0,89.0
216,158.49587733750002,158.611407525,73.0,80.0
217,158.72314983750002,158.846255775,73.0,81.0
218,158.95042233750002,159.0602707125,73.0,83.0
219,159.1776948375,159.48640665000002,73.0,84.0
220,159.6322398375,159.74777002500002,73.0,82.0
221,159.8595123375,159.97125465000002,73.0,82.0
222,160.0867848375,160.384133025,73.0,86.0
223,160.5413298375,160.73072358750002,71.0,85.0
224,160.7686023375,160.94095065000002,70.0,83.0
225,160.9958748375,161.67769233750002,66.0,84.0
226,161.90496483750002,162.14549490000002,63.0,84.0
227,162.13223733750002,162.2667069,73.0,71.0
228,162.3595098375,162.475040025,73.0,86.0
229,162.5867823375,162.747767025,73.0,83.0
230,162.8140548375,163.15306965000002,75.0,87.0
231,163.2685998375,163.4636754,75.0,84.0
232,163.4958723375,163.62466008750002,78.0,67.0
233,163.7231448375,164.1625383375,75.0,98.0
234,164.1776898375,164.58109852500002,73.0,84.0
235,164.63223483750002,165.36897652500002,71.0,84.0
236,165.5413248375,165.66821865,63.0,84.0
237,165.7685973375,165.884127525,63.0,86.0
238,165.9958698375,166.126551525,66.0,83.0
239,166.2231423375,166.3595058375,68.0,82.0
240,166.4504148375,166.78942965000002,70.0,82.0
241,166.9049598375,167.32352002500002,61.0,83.0
242,167.3595048375,167.6663227125,63.0,82.0
243,167.81404983750002,168.16821615,66.0,84.0
244,168.26859483750002,168.60760965,71.0,83.0
245,168.7231398375,169.03942740000002,71.0,80.0
246,169.1776848375,169.51669965000002,71.0,86.0
247,169.6322298375,169.98639615000002,73.0,83.0
248,170.0867748375,170.8367740875,68.0,81.0
249,170.99586483750002,171.7913185875,70.0,84.0
250,171.90495483750001,172.8216205875,66.0,83.0
251,172.8140448375,173.0072264625,61.0,86.0
252,173.0413173375,173.18336265000002,73.0,84.0
253,173.2685898375,173.38412002500002,73.0,84.0
254,173.4958623375,173.63033190000002,73.0,81.0
255,173.7231348375,174.1000284,73.0,84.0
256,174.17767983750002,174.3121494,73.0,84.0
257,174.40495233750002,174.53184615,73.0,84.0
258,174.63222483750002,174.9466184625,73.0,83.0
259,175.08676983750001,175.475027025,71.0,83.0
260,175.5413148375,176.13222333750002,65.0,83.0
261,176.4504048375,176.60760165000002,61.0,89.0
262,176.6776773375,176.793207525,73.0,80.0
263,176.9049498375,177.028055775,73.0,81.0
264,177.1322223375,177.2420707125,73.0,83.0
265,177.35949483750002,177.66820665,73.0,84.0
266,177.81403983750002,177.929570025,73.0,82.0
267,178.04131233750002,178.15305465,73.0,82.0
268,178.26858483750001,178.56593302500002,73.0,86.0
269,178.7231298375,178.9125235875,71.0,85.0
270,178.9504023375,179.12275065,70.0,83.0
271,179.1776748375,179.8594923375,66.0,84.0
272,180.0867648375,180.3272949,63.0,84.0
273,180.3140373375,180.4485069,73.0,71.0
274,180.54130983750002,180.656840025,73.0,86.0
275,180.76858233750002,180.929567025,73.0,83.0
276,180.99585483750002,181.33486965,75.0,87.0
277,181.45039983750002,181.6454754,75.0,84.0
278,181.6776723375,181.8064600875,78.0,67.0
279,181.9049448375,182.3443383375,75.0,98.0
280,182.3594898375,182.762898525,73.0,84.0
281,182.8140348375,183.550776525,71.0,84.0
282,183.7231248375,183.85001865,63.0,84.0
283,183.95039733750002,184.065927525,63.0,86.0
284,184.17766983750002,184.308351525,66.0,83.0
285,184.40494233750002,184.5413058375,68.0,82.0
286,184.63221483750002,184.97122965,70.0,82.0
287,185.0867598375,185.505320025,61.0,83.0
288,185.5413048375,185.84812271250001,63.0,82.0
289,185.9958498375,186.35001615000002,66.0,84.0
290,186.4503948375,186.78940965,71.0,83.0
291,186.9049398375,187.2212274,71.0,80.0
292,187.35948483750002,187.69849965,71.0,86.0
293,187.81402983750002,188.16819615,70.0,83.0
294,188.2685748375,189.0185740875,68.0,81.0
295,189.1776648375,190.0867548375,70.0,84.0
296,190.0867548375,191.00342058750002,66.0,83.0
297,190.99584483750002,191.1890264625,61.0,86.0
298,191.2231173375,191.36516265,73.0,84.0
299,191.4503898375,191.565920025,73.0,84.0
300,191.6776623375,191.8121319,73.0,81.0
301,191.9049348375,192.2818284,73.0,84.0
302,192.3594798375,192.49394940000002,73.0,84.0
303,192.5867523375,192.71364615000002,73.0,84.0
304,192.8140248375,193.1284184625,73.0,83.0
305,193.2685698375,193.656827025,71.0,83.0
306,193.72311483750002,194.3140233375,65.0,83.0
307,194.6322048375,194.78940165,61.0,89.0
308,194.8594773375,194.975007525,73.0,80.0
309,195.0867498375,195.20985577500002,73.0,81.0
310,195.3140223375,195.42387071250002,73.0,83.0
311,195.5412948375,195.85000665,73.0,84.0
312,195.9958398375,196.111370025,73.0,82.0
313,196.2231123375,196.33485465,73.0,82.0
314,196.4503848375,196.747733025,73.0,86.0
315,196.90492983750002,197.0943235875,71.0,85.0
316,197.13220233750002,197.30455065,70.0,83.0
317,197.35947483750002,198.0412923375,66.0,84.0
318,198.2685648375,198.5090949,63.0,84.0
319,198.4958373375,198.63030690000002,73.0,71.0
320,198.7231098375,198.83864002500002,73.0,86.0
321,198.9503823375,199.11136702500002,73.0,83.0
322,199.1776548375,199.51666965,75.0,87.0
323,199.6321998375,199.82727540000002,75.0,84.0
324,199.85947233750002,199.9882600875,78.0,67.0
325,200.08674483750002,200.52613833750002,75.0,98.0
326,200.54128983750002,200.944698525,73.0,84.0
327,200.9958348375,201.732576525,71.0,84.0
328,201.9049248375,202.03181865000002,63.0,84.0
329,202.1321973375,202.24772752500002,63.0,86.0
330,202.3594698375,202.49015152500002,66.0,83.0
331,202.5867423375,202.72310583750001,68.0,82.0
332,202.8140148375,203.15302965,70.0,82.0
333,203.26855983750002,203.687120025,61.0,83.0
334,203.72310483750002,204.0299227125,63.0,82.0
335,204.1776498375,204.53181615,66.0,84.0
336,204.6321948375,204.97120965000002,71.0,83.0
337,205.0867398375,205.4030274,71.0,80.0
338,205.5412848375,205.88029965,71.0,86.0
339,205.9958298375,206.34999615,73.0,83.0
340,206.45037483750002,207.2003740875,68.0,81.0
341,207.3594648375,208.15491858750002,70.0,84.0
342,208.2685548375,209.1852205875,66.0,83.0
343,209.1776448375,209.37082646250002,61.0,86.0
344,209.4049173375,209.54696265,73.0,84.0
345,209.63218983750002,209.747720025,73.0,84.0
346,209.85946233750002,209.9939319,73.0,81.0
347,210.08673483750002,210.4636284,73.0,84.0
348,210.5412798375,210.6757494,73.0,84.0
349,210.7685523375,210.89544615,73.0,84.0
350,210.9958248375,211.31021846250002,73.0,83.0
351,211.4503698375,211.83862702500002,71.0,83.0
352,211.9049148375,212.4958233375,65.0,83.0
353,212.81400483750002,212.97120165,61.0,89.0
354,213.04127733750002,213.156807525,73.0,80.0
355,213.26854983750002,213.391655775,73.0,81.0
356,213.49582233750002,213.6056707125,73.0,83.0
357,213.7230948375,214.03180665000002,73.0,84.0
358,214.1776398375,214.293170025,73.0,82.0
359,214.4049123375,214.51665465000002,73.0,82.0
360,214.6321848375,214.929533025,73.0,86.0
361,215.0867298375,215.2761235875,71.0,85.0
362,215.3140023375,215.48635065000002,70.0,83.0
363,215.5412748375,216.22309233750002,66.0,84.0
364,216.45036483750002,216.69089490000002,63.0,84.0
365,216.67763733750002,216.8121069,73.0,71.0
366,216.9049098375,217.020440025,73.0,86.0
367,217.1321823375,217.293167025,73.0,83.0
368,217.3594548375,217.69846965000002,75.0,87.0
369,217.8139998375,218.0090754,75.0,84.0
370,218.0412723375,218.17006008750002,78.0,67.0
371,218.2685448375,218.7079383375,75.0,98.0
372,218.7230898375,219.12649852500002,73.0,84.0
373,219.17763483750002,219.91437652500002,71.0,84.0
374,220.08672483750001,220.21361865,63.0,84.0
375,220.3139973375,220.429527525,63.0,86.0
376,220.5412698375,220.671951525,66.0,83.0
377,220.7685423375,220.9049058375,68.0,82.0
378,220.9958148375,221.33482965000002,70.0,82.0
379,221.4503598375,221.86892002500002,61.0,83.0
380,221.9049048375,222.2117227125,63.0,82.0
381,222.35944983750002,222.71361615,66.0,84.0
382,222.81399483750002,223.15300965,71.0,83.0
383,223.26853983750001,223.58482740000002,71.0,80.0
384,223.7230848375,224.06209965000002,71.0,86.0
385,224.1776298375,224.53179615000002,70.0,83.0
386,224.6321748375,225.3821740875,68.0,81.0
387,225.54126483750002,226.45035483750002,70.0,84.0
388,226.45035483750002,228.2685348375,66.0,83.0
