,start,end,pitch,velocity
0,2.3882551875,2.738633625,66.0,80.0
1,1.9337101875,2.7708305625,59.0,80.0
2,3.7518901875,4.0018899375,59.0,68.0
3,1.4791651875,4.0757535,54.0,60.0
4,1.0246201875,4.079541375,47.0,83.0
5,3.7518901875,4.185601875,63.0,76.0
6,4.6609801875,5.6685549375,61.0,81.0
7,5.5700701875,6.208327125,56.0,81.0
8,6.0246151875,6.276508875,65.0,83.0
9,6.9337051875,7.1609776875,56.0,62.0
10,7.3882501875,7.6212045,56.0,77.0
11,7.3882501875,7.6571893125,61.0,78.0
12,5.1155251875,7.71968925,53.0,69.0
13,4.6609801875,7.731052875,46.0,83.0
14,8.2973401875,9.185596875,63.0,78.0
15,9.2064301875,9.6685509375,59.0,79.0
16,9.6609751875,10.2470675625,56.0,82.0
17,8.7518851875,11.061546862499998,51.0,62.0
18,8.2973401875,11.11622255625,44.0,82.0
19,11.02006875,11.3669766,56.0,78.0
20,11.02006875,11.4235376625,63.0,80.0
21,11.925045749999999,12.888469181249999,66.0,74.0
22,11.925045749999999,12.903552131249999,58.0,74.0
23,12.83002275,13.35604063125,61.0,85.0
24,13.282511249999999,13.5389214,58.0,71.0
25,13.73499975,13.923536625,58.0,73.0
26,12.37753425,14.06682465,49.0,66.0
27,13.73499975,14.360942175,66.0,74.0
28,11.925045749999999,15.02270660625,42.0,78.0
29,14.18748825,15.05287250625,49.0,58.0
30,14.639976749999999,15.186733687499999,58.0,71.0
31,15.54495375,16.1369595375,59.0,71.0
32,15.54495375,16.2199157625,63.0,76.0
33,15.54495375,16.6172313375,47.0,77.0
34,15.997442249999999,16.622913150000002,54.0,46.0
35,16.4505648375,16.823670525,59.0,84.0
36,16.4505648375,17.1892004625,63.0,83.0
37,17.359654837500003,17.567987962500002,59.0,69.0
38,16.905109837500003,17.605866712500003,54.0,68.0
39,17.359654837500003,17.755487775000002,66.0,79.0
40,17.359654837500003,17.808518025,63.0,79.0
41,17.814199837500002,18.424047712500002,47.0,65.0
42,18.2687448375,18.4695022125,59.0,78.0
43,18.2687448375,18.543365775,63.0,82.0
44,18.2687448375,18.626699025,66.0,81.0
45,18.7232898375,18.8748048375,54.0,72.0
46,19.1778348375,19.5452587125,58.0,70.0
47,19.1778348375,19.60775865,61.0,75.0
48,19.6323798375,20.2460155875,53.0,75.0
49,19.1778348375,20.261167087500002,46.0,83.0
50,20.0869248375,20.7687423375,58.0,77.0
51,20.0869248375,20.780105962500002,65.0,84.0
52,20.0869248375,20.7971514,61.0,82.0
53,20.541469837500003,20.8028332125,46.0,71.0
54,20.996014837500002,21.215711587500003,58.0,72.0
55,20.996014837500002,21.424044712500002,65.0,81.0
56,20.996014837500002,21.4789689,61.0,76.0
57,21.450559837500002,21.7232868375,58.0,72.0
58,20.996014837500002,21.740332275,53.0,81.0
59,20.996014837500002,21.8141958375,46.0,69.0
60,21.9051048375,22.081241025,58.0,78.0
61,21.9051048375,22.3217710875,51.0,87.0
62,21.9051048375,22.35018015,63.0,82.0
63,22.3596498375,22.505483025,58.0,83.0
64,22.8141948375,23.1475278375,63.0,78.0
65,22.8141948375,23.1891944625,56.0,78.0
66,22.8141948375,23.1891944625,59.0,76.0
67,23.2687398375,23.8255574625,51.0,53.0
68,23.723284837500003,23.8823755875,56.0,81.0
69,22.8141948375,23.906996775000003,44.0,82.0
70,23.723284837500003,23.988436087500002,59.0,84.0
71,23.723284837500003,24.024420900000003,63.0,84.0
72,24.177829837500003,24.477071962500002,56.0,84.0
73,24.632374837500002,24.880480650000003,56.0,82.0
74,24.632374837500002,25.153207650000002,61.0,84.0
75,25.0869198375,25.316086275000004,56.0,77.0
76,25.5414648375,25.7062374,56.0,83.0
77,24.632374837500002,25.804722150000003,49.0,78.0
78,25.5414648375,25.9505553375,61.0,83.0
79,25.5414648375,25.9543432125,65.0,84.0
80,25.9960098375,26.1172218375,56.0,81.0
81,26.4505548375,26.8558574625,58.0,71.0
82,26.4505548375,27.2990388375,54.0,74.0
83,27.3596448375,27.456235650000004,58.0,77.0
84,27.3596448375,27.507371962500002,61.0,81.0
85,26.905099837500003,27.89562915,49.0,70.0
86,26.4505548375,28.054719900000002,42.0,82.0
87,28.268734837500002,28.744113150000004,66.0,81.0
88,27.814189837500003,28.7611585875,54.0,81.0
89,28.268734837500002,28.7725222125,58.0,66.0
90,29.1778248375,29.658884962500004,58.0,72.0
91,28.268734837500002,29.679718275,42.0,79.0
92,28.7232798375,29.6891879625,49.0,63.0
93,29.1778248375,29.763051525,61.0,74.0
94,30.086914837500004,30.535778025,66.0,66.0
95,30.086914837500004,30.6020658375,63.0,82.0
96,30.086914837500004,30.6759294,59.0,66.0
97,30.996004837500003,31.0944895875,59.0,56.0
98,30.996004837500003,31.399413525,70.0,78.0
99,30.996004837500003,31.444868025,63.0,81.0
100,31.450549837500002,31.9543372125,59.0,51.0
101,31.905094837500002,32.0717613375,63.0,77.0
102,31.905094837500002,32.175927900000005,70.0,74.0
103,32.3596398375,32.552821462500006,59.0,57.0
104,32.8141848375,32.9656998375,59.0,76.0
105,32.8141848375,33.0982754625,63.0,81.0
106,30.5414598375,33.158881462500005,54.0,63.0
107,30.086914837500004,33.164563275000006,47.0,82.0
108,32.8141848375,33.3482752125,70.0,80.0
109,33.268729837500004,33.35016915,59.0,80.0
110,33.7232748375,34.028198775,58.0,52.0
111,33.7232748375,34.300925775,61.0,50.0
112,33.7232748375,34.3369105875,65.0,64.0
113,34.1778198375,34.68350115,58.0,69.0
114,34.632364837500006,34.736531400000004,61.0,77.0
115,34.632364837500006,34.747895025000005,65.0,80.0
116,34.632364837500006,34.800925275,68.0,67.0
117,35.5414548375,35.929712025,61.0,76.0
118,35.5414548375,35.9467574625,65.0,75.0
119,35.9959998375,36.30471165,58.0,46.0
120,36.450544837500004,36.6437264625,70.0,79.0
121,36.450544837500004,36.65319615,61.0,75.0
122,36.450544837500004,36.656984025,68.0,75.0
123,33.7232748375,36.956226150000006,46.0,80.0
124,36.9050898375,37.04713515,65.0,80.0
125,37.359634837499996,37.679710275000005,56.0,69.0
126,37.359634837499996,37.747892025,59.0,66.0
127,37.359634837499996,37.7819829,63.0,74.0
128,38.2687248375,38.38046715,59.0,74.0
129,38.2687248375,38.384255025,63.0,76.0
130,38.7232698375,38.922133275,56.0,78.0
131,39.1778148375,39.28387533750001,59.0,74.0
132,39.1778148375,39.28387533750001,63.0,78.0
133,40.0869048375,40.22895015,59.0,85.0
134,40.0869048375,40.238419837500004,56.0,78.0
135,40.0869048375,40.2725107125,63.0,82.0
136,37.814179837500006,40.308495525,51.0,58.0
137,37.359634837499996,40.346374275,44.0,80.0
138,40.5414498375,40.745995087500006,44.0,82.0
139,40.99599483750001,41.444858025,54.0,69.0
140,40.99599483750001,41.461903462500004,58.0,68.0
141,41.4505398375,41.649403275,61.0,72.0
142,41.9050848375,42.0679634625,66.0,84.0
143,40.99599483750001,42.566069025000004,42.0,82.0
144,42.3596298375,42.577432650000006,54.0,76.0
145,42.814174837500005,43.0225079625,58.0,60.0
146,42.814174837500005,43.2819774,61.0,66.0
147,43.2687198375,43.7762950875,54.0,65.0
148,43.7232648375,43.791446587500005,61.0,79.0
149,43.7232648375,43.797128400000005,58.0,81.0
150,42.814174837500005,43.8369010875,42.0,63.0
151,43.7232648375,43.8634162125,66.0,79.0
152,44.1778098375,44.289552150000006,46.0,82.0
153,44.6323548375,44.7971274,59.0,71.0
154,44.6323548375,44.90886971250001,63.0,77.0
155,45.5414448375,45.6929598375,59.0,67.0
156,45.5414448375,45.7118992125,63.0,82.0
157,45.5414448375,45.757353712500006,70.0,80.0
158,46.4505348375,46.5338680875,59.0,52.0
159,46.4505348375,46.6778073375,63.0,76.0
160,46.4505348375,46.730837587500005,70.0,77.0
161,46.9050798375,47.083109962500004,59.0,56.0
162,47.3596248375,47.4959883375,63.0,78.0
163,47.3596248375,47.5149277125,59.0,73.0
164,45.0868998375,47.5490185875,54.0,40.0
165,44.6323548375,47.596367025000006,47.0,83.0
166,47.3596248375,47.596367025000006,70.0,81.0
167,47.8141698375,48.156972525,47.0,72.0
168,48.2687148375,48.683487150000005,58.0,67.0
169,48.2687148375,48.7232598375,61.0,74.0
170,49.1778048375,49.3141683375,68.0,76.0
171,49.1778048375,49.331213775,61.0,69.0
172,49.6323498375,49.80469815,58.0,46.0
173,50.086894837500004,50.1967432125,58.0,55.0
174,50.086894837500004,50.550909525,68.0,69.0
175,50.5414398375,50.7876517125,58.0,55.0
176,50.086894837500004,50.78954565,61.0,59.0
177,50.9959848375,51.232727025,61.0,82.0
178,50.9959848375,51.249772462500005,58.0,80.0
179,48.2687148375,51.2611360875,46.0,79.0
180,50.9959848375,51.2800754625,68.0,76.0
181,48.7232598375,51.293333025,53.0,76.0
182,51.4505298375,51.613408462500004,46.0,83.0
183,51.9050748375,52.3709834625,59.0,65.0
184,51.9050748375,52.3728774,63.0,72.0
185,52.8141648375,52.9959828375,56.0,69.0
186,52.8141648375,53.353937025,59.0,82.0
187,52.8141648375,53.4656793375,63.0,82.0
188,53.268709837500005,53.497876275,56.0,59.0
189,52.3596198375,54.056587837500004,51.0,49.0
190,53.7232548375,54.2724967125,59.0,57.0
191,54.177799837500004,54.4770419625,56.0,61.0
192,53.7232548375,54.494087400000005,63.0,68.0
193,51.9050748375,54.5243904,44.0,78.0
194,54.6323448375,54.823632525,56.0,79.0
195,54.6323448375,55.0546929,61.0,80.0
196,54.6323448375,55.0679504625,49.0,85.0
197,54.6323448375,55.119086775,65.0,84.0
198,55.0868898375,55.1967382125,56.0,72.0
199,55.5414348375,56.043328275,54.0,71.0
200,55.5414348375,56.073631275000004,58.0,74.0
201,55.9959798375,56.1474948375,61.0,69.0
202,56.450524837500005,56.59257015,65.0,75.0
203,56.9050698375,57.369084525,54.0,71.0
204,57.359614837500004,57.6588569625,66.0,82.0
205,57.8141598375,58.1285534625,54.0,74.0
206,58.2687048375,58.482719775,54.0,69.0
207,58.2687048375,58.6759014,65.0,83.0
208,58.2687048375,58.711886212500005,58.0,82.0
209,55.5414348375,59.0338555875,42.0,82.0
210,58.7232498375,59.079310087500005,61.0,83.0
211,59.1777948375,59.749763962500005,63.0,82.0
212,59.1777948375,60.1474908375,59.0,70.0
213,60.0868848375,60.484611712500005,63.0,79.0
214,59.6323398375,60.6758994,54.0,54.0
215,60.0868848375,60.770596275,66.0,81.0
216,59.1777948375,60.7724902125,47.0,79.0
217,60.541429837500004,60.86529315,59.0,82.0
218,60.9959748375,61.225141275,59.0,77.0
219,60.9959748375,61.535747025,62.0,71.0
220,61.4505198375,61.990292025,59.0,77.0
221,60.9959748375,62.3293068375,47.0,82.0
222,61.9050648375,62.331200775,62.0,77.0
223,61.9050648375,62.3671855875,66.0,82.0
224,62.3596098375,62.4618824625,59.0,78.0
225,62.8141548375,63.429684525,61.0,63.0
226,62.8141548375,63.528169275,58.0,63.0
227,63.723244837500005,63.89559315,58.0,76.0
228,63.2686998375,64.0395324,53.0,75.0
229,63.723244837500005,64.09445658749999,65.0,83.0
230,63.723244837500005,64.09824446249999,61.0,82.0
231,62.8141548375,64.119077775,46.0,82.0
232,64.1777898375,64.72513777500001,58.0,86.0
233,64.6323348375,65.1758949,66.0,82.0
234,65.08687983749999,65.7800609625,58.0,84.0
235,65.5414248375,66.0092274,46.0,77.0
236,65.5414248375,66.020591025,63.0,79.0
237,64.6323348375,66.0224849625,39.0,83.0
238,65.9959698375,66.3880149,61.0,77.0
239,66.45051483750001,67.01680215,56.0,77.0
240,66.45051483750001,67.03195364999999,59.0,79.0
241,66.9050598375,67.76680139999999,51.0,67.0
242,66.45051483750001,67.93346790000001,44.0,82.0
243,67.3596048375,67.93536183750001,63.0,82.0
244,67.3596048375,67.9846042125,59.0,78.0
245,68.2686948375,68.90884571250001,63.0,75.0
246,67.8141498375,69.2573302125,56.0,76.0
247,68.7232398375,69.41263308750001,51.0,65.0
248,68.2686948375,69.45619365,44.0,71.0
249,69.1777848375,69.45619365,59.0,81.0
250,69.1777848375,69.5944510875,63.0,84.0
251,69.1777848375,69.61907227500001,68.0,79.0
252,69.63232983750001,70.0641475875,44.0,83.0
253,70.0868748375,70.308465525,56.0,75.0
254,70.0868748375,70.7516469,61.0,74.0
255,70.5414198375,71.08119202500001,56.0,75.0
256,70.9959648375,71.384222025,61.0,78.0
257,70.9959648375,71.672100525,65.0,83.0
258,70.0868748375,71.72891865,49.0,83.0
259,71.4505098375,71.7535398375,56.0,81.0
260,71.9050548375,72.10770615,56.0,82.0
261,71.9050548375,72.535736025,61.0,79.0
262,72.3595998375,72.6020238375,56.0,76.0
263,71.9050548375,72.98649315,49.0,86.0
264,72.81414483750001,73.0035385875,61.0,86.0
265,72.81414483750001,73.005432525,65.0,84.0
266,72.81414483750001,73.013008275,56.0,84.0
267,73.7232348375,73.9277800875,54.0,82.0
268,73.7232348375,74.02626483750001,58.0,82.0
269,74.1777798375,74.53194615000001,54.0,82.0
270,74.4050523375,74.5982339625,61.0,79.0
271,74.6323248375,74.9334609,66.0,87.0
272,73.9505073375,75.10391527499999,49.0,64.0
273,74.85959733749999,75.149369775,61.0,82.0
274,73.7232348375,75.3368695875,42.0,83.0
275,75.0868698375,75.73838433750001,54.0,82.0
276,75.3141423375,76.07929308749999,61.0,77.0
277,76.22323233750001,76.38042915,58.0,76.0
278,75.76868733750001,76.611489525,49.0,74.0
279,75.99595983750001,76.6967167125,54.0,82.0
280,75.5414148375,76.73270152500001,42.0,83.0
281,76.4505048375,76.853913525,66.0,89.0
282,76.6777773375,76.99027702500001,61.0,84.0
283,76.9050498375,77.1626253375,54.0,84.0
284,77.1323223375,77.27436765,58.0,75.0
285,77.3595948375,77.6058067125,58.0,72.0
286,77.3595948375,77.6361097125,61.0,76.0
287,77.8141398375,78.17966977500001,58.0,82.0
288,78.04141233749999,78.346336275,61.0,73.0
289,78.2686848375,78.5186845875,70.0,87.0
290,77.5868673375,78.6474723375,53.0,76.0
291,77.3595948375,78.66830565000001,46.0,83.0
292,78.4959573375,78.7573207125,65.0,83.0
293,78.7232298375,78.990275025,61.0,87.0
294,78.95050233750001,79.67777433750001,65.0,86.0
295,79.6323198375,79.8520165875,61.0,81.0
296,79.17777483750001,80.13989508750001,46.0,87.0
297,79.40504733750001,80.15504658750001,53.0,75.0
298,79.8595923375,80.2061829,58.0,84.0
299,80.0868648375,80.36527365,70.0,86.0
300,80.3141373375,80.5944400875,65.0,83.0
301,80.5414098375,80.7421672125,61.0,83.0
302,80.7686823375,80.94292458749999,58.0,83.0
303,80.9959548375,81.2421667125,63.0,86.0
304,81.22322733749999,81.45996952499999,58.0,83.0
305,81.45049983749999,81.7383783375,66.0,79.0
306,81.67777233749999,81.93913571249999,58.0,77.0
307,80.9959548375,82.12284765000001,51.0,86.0
308,81.90504483750001,82.12852946250001,63.0,79.0
309,82.13231733750001,82.37852921250001,58.0,82.0
310,82.35958983750001,82.64178652500001,66.0,75.0
311,82.58686233750001,82.85958933750001,58.0,75.0
312,82.8141348375,83.2819374,63.0,82.0
313,83.2686798375,83.5451947125,59.0,82.0
314,83.4959523375,83.7004975875,63.0,81.0
315,83.7232248375,83.9883760875,66.0,88.0
316,83.0414073375,84.0111033375,54.0,75.0
317,82.8141348375,84.08117902500001,47.0,86.0
318,83.9504973375,84.19860315,63.0,82.0
319,84.1777698375,84.4807998375,59.0,76.0
320,84.40504233749999,84.7724662125,63.0,81.0
321,85.08685983750001,85.37663227499999,63.0,82.0
322,85.31413233750001,85.61337446249999,56.0,82.0
323,85.54140483750001,85.82928333750002,68.0,85.0
324,85.76867733750001,86.03572252500001,63.0,82.0
325,84.85958733749999,86.25731321250001,51.0,79.0
326,85.9959498375,86.25731321250001,59.0,79.0
327,84.63231483749999,86.28572227500001,44.0,83.0
328,86.2232223375,86.9486004,63.0,82.0
329,86.9050398375,87.1304184,59.0,82.0
330,87.1323123375,87.32170608749999,56.0,83.0
331,87.3595848375,87.6095845875,63.0,86.0
332,87.58685733749999,87.82549346249999,59.0,86.0
333,87.81412983749999,88.09253865,56.0,85.0
334,86.6777673375,88.1304174,51.0,74.0
335,86.4504948375,88.156932525,44.0,83.0
336,88.04140233749999,88.4126140875,63.0,82.0
337,88.49594733750001,88.75541677500001,61.0,82.0
338,88.72321983750001,89.03003771249999,56.0,83.0
339,88.95049233750001,89.0944315875,61.0,82.0
340,89.1777648375,89.4201888375,63.0,83.0
341,89.4050373375,89.5982189625,61.0,84.0
342,88.26867483750001,89.9088247125,49.0,96.0
343,89.6323098375,89.93723377500001,56.0,82.0
344,89.8595823375,89.96564283750001,61.0,84.0
345,90.0868548375,90.23647589999999,56.0,83.0
346,90.0868548375,90.46753627500001,65.0,86.0
347,90.3141273375,90.5641270875,56.0,78.0
348,90.5413998375,90.7724602125,61.0,77.0
349,90.76867233749999,90.8785207125,56.0,83.0
350,90.99594483749999,91.1152629,56.0,88.0
351,91.22321733749999,91.353899025,56.0,85.0
352,90.99594483749999,91.42018683750001,65.0,83.0
353,91.45048983750002,91.72132289999999,61.0,89.0
354,91.67776233750001,91.8482167125,56.0,85.0
355,90.0868548375,91.88230758750001,49.0,98.0
356,91.90503483750001,92.1095800875,54.0,82.0
357,91.90503483750001,92.20806483749999,58.0,82.0
358,92.35957983750001,92.71374614999999,54.0,82.0
359,92.5868523375,92.7800339625,61.0,79.0
360,92.8141248375,93.11526090000001,66.0,87.0
361,92.13230733750001,93.285715275,49.0,64.0
362,93.0413973375,93.331169775,61.0,82.0
363,91.90503483750001,93.5186695875,42.0,83.0
364,93.2686698375,93.92018433749999,54.0,82.0
365,93.4959423375,94.2610930875,61.0,77.0
366,94.40503233749999,94.56222915000001,58.0,76.0
367,93.9504873375,94.793289525,49.0,74.0
368,94.17775983749999,94.87851671250002,54.0,82.0
369,93.7232148375,94.91450152499999,42.0,83.0
370,94.63230483750002,95.035713525,66.0,89.0
371,94.85957733750001,95.172077025,61.0,84.0
372,95.08684983750001,95.34442533750001,54.0,84.0
373,95.31412233750001,95.45616765,58.0,75.0
374,95.54139483750001,95.78760671250001,58.0,72.0
375,95.54139483750001,95.81790971250001,61.0,76.0
376,95.9959398375,96.36146977499999,58.0,82.0
377,96.2232123375,96.52813627500001,61.0,73.0
378,96.4504848375,96.7004845875,70.0,87.0
379,95.7686673375,96.82927233750002,53.0,76.0
380,95.54139483750001,96.85010564999999,46.0,83.0
381,96.6777573375,96.9391207125,65.0,83.0
382,96.9050298375,97.172075025,61.0,87.0
383,97.1323023375,97.85957433749999,65.0,86.0
384,97.81411983750002,98.03381658750001,61.0,81.0
385,97.35957483749999,98.32169508749999,46.0,87.0
386,97.58684733749999,98.33684658749999,53.0,75.0
387,98.04139233750001,98.3879829,58.0,84.0
388,98.26866483750001,98.54707365000002,70.0,86.0
389,98.49593733750001,98.77624008750001,65.0,83.0
390,98.72320983750001,98.9239672125,61.0,83.0
391,98.9504823375,99.1247245875,58.0,83.0
392,99.1777548375,99.4239667125,63.0,86.0
393,99.4050273375,99.641769525,58.0,83.0
394,99.6322998375,99.9201783375,66.0,79.0
395,99.8595723375,100.1209357125,58.0,77.0
396,99.1777548375,100.30464764999999,51.0,86.0
397,100.0868448375,100.3103294625,63.0,79.0
398,100.3141173375,100.5603292125,58.0,82.0
399,100.54138983749999,100.823586525,66.0,75.0
400,100.76866233749999,101.0413893375,58.0,75.0
401,100.99593483749999,101.46373740000001,63.0,82.0
402,101.45047983750001,101.72699471250002,59.0,82.0
403,101.67775233750001,101.8822975875,63.0,81.0
404,101.90502483750001,102.17017608750001,66.0,88.0
405,101.22320733750001,102.19290333750001,54.0,75.0
406,100.99593483749999,102.26297902499999,47.0,86.0
407,102.1322973375,102.38040315,63.0,82.0
408,102.3595698375,102.66259983750001,59.0,76.0
409,102.5868423375,102.95426621249999,63.0,81.0
410,103.2686598375,103.558432275,63.0,82.0
411,103.4959323375,103.7951744625,56.0,82.0
412,103.72320483749999,104.0110833375,68.0,85.0
413,103.95047733749999,104.21752252499999,63.0,82.0
414,103.0413873375,104.43911321249999,51.0,79.0
415,104.17774983749999,104.43911321249999,59.0,79.0
416,102.8141148375,104.467522275,44.0,83.0
417,104.40502233750001,105.13040040000001,63.0,82.0
418,105.08683983750001,105.3122184,59.0,82.0
419,105.3141123375,105.5035060875,56.0,83.0
420,105.5413848375,105.7913845875,63.0,86.0
421,105.7686573375,106.0072934625,59.0,86.0
422,105.9959298375,106.27433865,56.0,85.0
423,104.85956733750001,106.31221740000001,51.0,74.0
424,104.63229483750001,106.33873252500001,44.0,83.0
425,106.2232023375,106.59441408750001,63.0,82.0
426,106.6777473375,106.937216775,61.0,82.0
427,106.90501983749999,107.2118377125,56.0,83.0
428,107.13229233749999,107.2762315875,61.0,82.0
429,107.35956483749999,107.60198883749999,63.0,83.0
430,107.58683733750001,107.78001896250001,61.0,84.0
431,106.4504748375,108.09062471249999,49.0,96.0
432,107.81410983750001,108.11903377499999,56.0,82.0
433,108.04138233750001,108.1474428375,61.0,84.0
434,108.26865483750001,108.4182759,56.0,83.0
435,108.26865483750001,108.649336275,65.0,86.0
436,108.4959273375,108.74592708750001,56.0,78.0
437,108.7231998375,108.9542602125,61.0,77.0
438,108.9504723375,109.06032071250002,56.0,83.0
439,109.1777448375,109.29706290000001,56.0,88.0
440,109.4050173375,109.53569902500001,56.0,85.0
441,109.1777448375,109.6019868375,65.0,83.0
442,109.6322898375,109.9031229,61.0,89.0
443,109.8595623375,110.03001671250001,56.0,85.0
444,109.8595623375,110.03948640000002,54.0,69.0
445,108.26865483750001,110.06410758749999,49.0,98.0
446,110.08683483749999,110.23077408750001,59.0,78.0
447,110.08683483749999,110.24024377500001,47.0,98.0
448,110.08683483749999,110.444789025,66.0,83.0
449,110.54137983749999,110.6928948375,59.0,71.0
450,110.31410733749999,110.7004705875,54.0,79.0
451,110.76865233750001,111.02433389999999,66.0,82.0
452,111.6777423375,111.8122119,54.0,67.0
453,111.9050148375,111.99024202500001,47.0,98.0
454,111.9050148375,112.01675714999999,59.0,83.0
455,111.9050148375,112.1284994625,66.0,82.0
456,113.0413773375,113.1284984625,47.0,82.0
457,113.26864983749999,113.47319508749999,54.0,82.0
458,113.72319483749999,114.19478527500002,58.0,76.0
459,113.72319483749999,114.21372464999999,61.0,82.0
460,114.40501233750001,114.7875877125,58.0,82.0
461,114.85955733750001,114.97129964999999,65.0,85.0
462,114.17773983750001,115.0868298375,53.0,77.0
463,113.72319483749999,115.13796615000001,46.0,85.0
464,115.3141023375,115.53190515,58.0,69.0
465,115.5413748375,115.7913745875,65.0,78.0
466,115.5413748375,115.831147275,70.0,81.0
467,115.5413748375,115.86523815000001,61.0,75.0
468,115.5413748375,116.5641010875,46.0,83.0
469,117.13228233750002,117.3027367125,59.0,80.0
470,117.13228233750002,117.34440333750001,56.0,70.0
471,117.35955483750001,117.62281215000002,63.0,77.0
472,117.35955483750001,117.64364546249999,68.0,77.0
473,117.81409983750001,117.997811775,56.0,82.0
474,118.04137233750001,118.1606904,63.0,84.0
475,118.4959173375,118.62659902499999,59.0,83.0
476,118.7231898375,118.959932025,56.0,81.0
477,117.58682733750001,120.1625823375,51.0,76.0
478,117.35955483750001,120.36523365,44.0,83.0
479,120.08682483749999,120.4012184625,56.0,81.0
480,120.31409733750002,120.42583965,51.0,82.0
481,120.08682483749999,120.4618244625,59.0,77.0
482,120.08682483749999,120.51864258750001,68.0,82.0
483,120.08682483749999,120.57735464999999,63.0,82.0
484,120.54136983750001,120.7061424,56.0,82.0
485,120.99591483750001,121.664474775,54.0,76.0
486,120.99591483750001,121.672050525,58.0,77.0
487,121.9050048375,122.20992877500001,61.0,76.0
488,122.1322773375,122.6587919625,54.0,78.0
489,122.3595498375,122.68341315,58.0,75.0
490,122.5868223375,122.861443275,61.0,75.0
491,120.99591483750001,123.1663672125,42.0,83.0
492,122.8140948375,123.77432114999999,66.0,83.0
493,123.72318483750001,124.558411275,54.0,67.0
494,123.72318483750001,124.565987025,58.0,71.0
495,123.72318483750001,124.6095475875,61.0,77.0
496,124.6322748375,124.7970474,59.0,71.0
497,124.6322748375,124.90878971250001,63.0,77.0
498,125.5413648375,125.69287983750002,59.0,67.0
499,125.5413648375,125.71181921249999,63.0,82.0
500,125.5413648375,125.7572737125,70.0,80.0
501,126.45045483749999,126.5337880875,59.0,52.0
502,126.45045483749999,126.67772733749999,63.0,76.0
503,126.45045483749999,126.7307575875,70.0,77.0
504,126.90499983750001,127.0830299625,59.0,56.0
505,127.35954483750001,127.4959083375,63.0,78.0
506,127.35954483750001,127.5148477125,59.0,73.0
507,125.0868198375,127.5489385875,54.0,40.0
508,124.6322748375,127.59628702500001,47.0,83.0
509,127.35954483750001,127.59628702500001,70.0,81.0
510,127.8140898375,128.156892525,47.0,72.0
511,128.2686348375,128.68340715,58.0,67.0
512,128.2686348375,128.7231798375,61.0,74.0
513,129.1777248375,129.3140883375,68.0,76.0
514,129.1777248375,129.331133775,61.0,69.0
515,129.6322698375,129.80461815,58.0,46.0
516,130.08681483750001,130.1966632125,58.0,55.0
517,130.08681483750001,130.550829525,68.0,69.0
518,130.5413598375,130.7875717125,58.0,55.0
519,130.08681483750001,130.78946565,61.0,59.0
520,130.9959048375,131.232647025,61.0,82.0
521,130.9959048375,131.2496924625,58.0,80.0
522,128.2686348375,131.2610560875,46.0,79.0
523,130.9959048375,131.2799954625,68.0,76.0
524,128.7231798375,131.293253025,53.0,76.0
525,131.4504498375,131.6133284625,46.0,83.0
526,131.9049948375,132.3709034625,59.0,65.0
527,131.9049948375,132.3727974,63.0,72.0
528,132.8140848375,132.9959028375,56.0,69.0
529,132.8140848375,133.353857025,59.0,82.0
530,132.8140848375,133.4655993375,63.0,82.0
531,133.26862983750001,133.497796275,56.0,59.0
532,132.3595398375,134.0565078375,51.0,49.0
533,133.7231748375,134.2724167125,59.0,57.0
534,134.1777198375,134.4769619625,56.0,61.0
535,133.7231748375,134.49400740000002,63.0,68.0
536,131.9049948375,134.5243104,44.0,78.0
537,134.6322648375,134.823552525,56.0,79.0
538,134.6322648375,135.0546129,61.0,80.0
539,134.6322648375,135.0678704625,49.0,85.0
540,134.6322648375,135.119006775,65.0,84.0
541,135.0868098375,135.1966582125,56.0,72.0
542,135.5413548375,136.043248275,54.0,71.0
543,135.5413548375,136.073551275,58.0,74.0
544,135.9958998375,136.1474148375,61.0,69.0
545,136.45044483750002,136.59249015,65.0,75.0
546,136.9049898375,137.369004525,54.0,71.0
547,137.3595348375,137.6587769625,66.0,82.0
548,137.8140798375,138.1284734625,54.0,74.0
549,138.2686248375,138.482639775,54.0,69.0
550,138.2686248375,138.6758214,65.0,83.0
551,138.2686248375,138.7118062125,58.0,82.0
552,135.5413548375,139.0337755875,42.0,82.0
553,138.7231698375,139.0792300875,61.0,83.0
554,139.1777148375,139.7496839625,63.0,82.0
555,139.1777148375,140.1474108375,59.0,70.0
556,140.0868048375,140.4845317125,63.0,79.0
557,139.63225983750002,140.6758194,54.0,54.0
558,140.0868048375,140.770516275,66.0,81.0
559,139.1777148375,140.7724102125,47.0,79.0
560,140.5413498375,140.86521315,59.0,82.0
561,140.9958948375,141.225061275,59.0,77.0
562,140.9958948375,141.535667025,62.0,71.0
563,141.4504398375,141.990212025,59.0,77.0
564,140.9958948375,142.3292268375,47.0,82.0
565,141.9049848375,142.331120775,62.0,77.0
566,141.9049848375,142.3671055875,66.0,82.0
567,142.3595298375,142.4618024625,59.0,78.0
568,142.81407483750002,143.429604525,61.0,63.0
569,142.81407483750002,143.528089275,58.0,63.0
570,143.7231648375,143.89551315,58.0,76.0
571,143.2686198375,144.0394524,53.0,75.0
572,143.7231648375,144.0943765875,65.0,83.0
573,143.7231648375,144.0981644625,61.0,82.0
574,142.81407483750002,144.118997775,46.0,82.0
575,144.1777098375,144.725057775,58.0,86.0
576,144.6322548375,145.1758149,66.0,82.0
577,145.0867998375,145.77998096250002,58.0,84.0
578,145.54134483750002,146.00914740000002,46.0,77.0
579,145.54134483750002,146.02051102500002,63.0,79.0
580,144.6322548375,146.02240496250002,39.0,83.0
581,145.99588983750002,146.3879349,61.0,77.0
582,146.4504348375,147.01672215000002,56.0,77.0
583,146.4504348375,147.03187365000002,59.0,79.0
584,146.9049798375,147.76672140000002,51.0,67.0
585,146.4504348375,147.9333879,44.0,82.0
586,147.3595248375,147.9352818375,63.0,82.0
587,147.3595248375,147.98452421250002,59.0,78.0
588,148.2686148375,148.9087657125,63.0,75.0
589,147.8140698375,149.2572502125,56.0,76.0
590,148.72315983750002,149.41255308750002,51.0,65.0
591,148.2686148375,149.45611365000002,44.0,71.0
592,149.17770483750002,149.45611365000002,59.0,81.0
593,149.17770483750002,149.5943710875,63.0,84.0
594,149.17770483750002,149.618992275,68.0,79.0
595,149.6322498375,150.0640675875,44.0,83.0
596,150.0867948375,150.308385525,56.0,75.0
597,150.0867948375,150.7515669,61.0,74.0
598,150.5413398375,151.081112025,56.0,75.0
599,150.9958848375,151.38414202500002,61.0,78.0
600,150.9958848375,151.67202052500002,65.0,83.0
601,150.0867948375,151.72883865,49.0,83.0
602,151.4504298375,151.7534598375,56.0,81.0
603,151.90497483750002,152.10762615000002,56.0,82.0
604,151.90497483750002,152.535656025,61.0,79.0
605,152.35951983750002,152.60194383750002,56.0,76.0
606,151.90497483750002,152.98641315,49.0,86.0
607,152.8140648375,153.0034585875,61.0,86.0
608,152.8140648375,153.005352525,65.0,84.0
609,152.8140648375,153.012928275,56.0,84.0
610,153.7231548375,153.9277000875,54.0,82.0
611,153.7231548375,154.0261848375,58.0,82.0
612,154.1776998375,154.53186615,54.0,82.0
613,154.4049723375,154.59815396250002,61.0,79.0
614,154.6322448375,154.9333809,66.0,87.0
615,153.9504273375,155.10383527500002,49.0,64.0
616,154.85951733750002,155.149289775,61.0,82.0
617,153.7231548375,155.33678958750002,42.0,83.0
618,155.08678983750002,155.7383043375,54.0,82.0
619,155.31406233750002,156.07921308750002,61.0,77.0
620,156.2231523375,156.38034915,58.0,76.0
621,155.76860733750001,156.611409525,49.0,74.0
622,155.9958798375,156.6966367125,54.0,82.0
623,155.54133483750002,156.732621525,42.0,83.0
624,156.4504248375,156.853833525,66.0,89.0
625,156.6776973375,156.99019702500001,61.0,84.0
626,156.9049698375,157.1625453375,54.0,84.0
627,157.1322423375,157.27428765000002,58.0,75.0
628,157.3595148375,157.6057267125,58.0,72.0
629,157.3595148375,157.6360297125,61.0,76.0
630,157.8140598375,158.179589775,58.0,82.0
631,158.0413323375,158.346256275,61.0,73.0
632,158.26860483750002,158.51860458750002,70.0,87.0
633,157.5867873375,158.6473923375,53.0,76.0
634,157.3595148375,158.66822565,46.0,83.0
635,158.49587733750002,158.75724071250002,65.0,83.0
636,158.72314983750002,158.99019502500002,61.0,87.0
637,158.95042233750002,159.67769433750001,65.0,86.0
638,159.6322398375,159.8519365875,61.0,81.0
639,159.1776948375,160.1398150875,46.0,87.0
640,159.4049673375,160.1549665875,53.0,75.0
641,159.8595123375,160.20610290000002,58.0,84.0
642,160.0867848375,160.36519365,70.0,86.0
643,160.3140573375,160.5943600875,65.0,83.0
644,160.5413298375,160.7420872125,61.0,83.0
645,160.7686023375,160.94284458750002,58.0,83.0
646,160.9958748375,161.2420867125,63.0,86.0
647,161.2231473375,161.45988952500002,58.0,83.0
648,161.45041983750002,161.7382983375,66.0,79.0
649,161.67769233750002,161.93905571250002,58.0,77.0
650,160.9958748375,162.12276765000001,51.0,86.0
651,161.90496483750002,162.12844946250001,63.0,79.0
652,162.13223733750002,162.37844921250002,58.0,82.0
653,162.3595098375,162.64170652500002,66.0,75.0
654,162.5867823375,162.85950933750001,58.0,75.0
655,162.8140548375,163.2818574,63.0,82.0
656,163.2685998375,163.5451147125,59.0,82.0
657,163.4958723375,163.7004175875,63.0,81.0
658,163.7231448375,163.9882960875,66.0,88.0
659,163.0413273375,164.0110233375,54.0,75.0
660,162.8140548375,164.08109902500001,47.0,86.0
661,163.9504173375,164.19852315,63.0,82.0
662,164.1776898375,164.4807198375,59.0,76.0
663,164.4049623375,164.7723862125,63.0,81.0
664,165.08677983750002,165.37655227500002,63.0,82.0
665,165.31405233750002,165.61329446250002,56.0,82.0
666,165.5413248375,165.82920333750002,68.0,85.0
667,165.7685973375,166.03564252500001,63.0,82.0
668,164.85950733750002,166.2572332125,51.0,79.0
669,165.9958698375,166.2572332125,59.0,79.0
670,164.63223483750002,166.28564227500001,44.0,83.0
671,166.2231423375,166.9485204,63.0,82.0
672,166.9049598375,167.1303384,59.0,82.0
673,167.1322323375,167.32162608750002,56.0,83.0
674,167.3595048375,167.6095045875,63.0,86.0
675,167.5867773375,167.8254134625,59.0,86.0
676,167.81404983750002,168.09245865,56.0,85.0
677,166.6776873375,168.1303374,51.0,74.0
678,166.4504148375,168.156852525,44.0,83.0
679,168.04132233750002,168.4125340875,63.0,82.0
680,168.49586733750002,168.75533677500002,61.0,82.0
681,168.7231398375,169.02995771250002,56.0,83.0
682,168.9504123375,169.0943515875,61.0,82.0
683,169.1776848375,169.4201088375,63.0,83.0
684,169.4049573375,169.5981389625,61.0,84.0
685,168.26859483750002,169.9087447125,49.0,96.0
686,169.6322298375,169.937153775,56.0,82.0
687,169.8595023375,169.96556283750002,61.0,84.0
688,170.0867748375,170.23639590000002,56.0,83.0
689,170.0867748375,170.46745627500002,65.0,86.0
690,170.3140473375,170.5640470875,56.0,78.0
691,170.5413198375,170.7723802125,61.0,77.0
692,170.7685923375,170.8784407125,56.0,83.0
693,170.99586483750002,171.1151829,56.0,88.0
694,171.22313733750002,171.353819025,56.0,85.0
695,170.99586483750002,171.42010683750001,65.0,83.0
696,171.45040983750002,171.72124290000002,61.0,89.0
697,171.67768233750002,171.8481367125,56.0,85.0
698,170.0867748375,171.8822275875,49.0,98.0
699,171.90495483750001,172.1095000875,54.0,82.0
700,171.90495483750001,172.20798483750002,58.0,82.0
701,172.3594998375,172.71366615000002,54.0,82.0
702,172.5867723375,172.7799539625,61.0,79.0
703,172.8140448375,173.1151809,66.0,87.0
704,172.1322273375,173.285635275,49.0,64.0
705,173.0413173375,173.331089775,61.0,82.0
706,171.90495483750001,173.5185895875,42.0,83.0
707,173.2685898375,173.92010433750002,54.0,82.0
708,173.4958623375,174.2610130875,61.0,77.0
709,174.40495233750002,174.56214915,58.0,76.0
710,173.9504073375,174.793209525,49.0,74.0
711,174.17767983750002,174.87843671250002,54.0,82.0
712,173.7231348375,174.91442152500002,42.0,83.0
713,174.63222483750002,175.035633525,66.0,89.0
714,174.85949733750002,175.171997025,61.0,84.0
715,175.08676983750001,175.34434533750002,54.0,84.0
716,175.3140423375,175.45608765,58.0,75.0
717,175.5413148375,175.7875267125,58.0,72.0
718,175.5413148375,175.81782971250001,61.0,76.0
719,175.9958598375,176.36138977500002,58.0,82.0
720,176.2231323375,176.528056275,61.0,73.0
721,176.4504048375,176.7004045875,70.0,87.0
722,175.7685873375,176.82919233750002,53.0,76.0
723,175.5413148375,176.85002565000002,46.0,83.0
724,176.6776773375,176.9390407125,65.0,83.0
725,176.9049498375,177.171995025,61.0,87.0
726,177.1322223375,177.8594943375,65.0,86.0
727,177.81403983750002,178.03373658750002,61.0,81.0
728,177.35949483750002,178.32161508750002,46.0,87.0
729,177.58676733750002,178.33676658750002,53.0,75.0
730,178.04131233750002,178.3879029,58.0,84.0
731,178.26858483750001,178.54699365000002,70.0,86.0
732,178.4958573375,178.77616008750002,65.0,83.0
733,178.7231298375,178.9238872125,61.0,83.0
734,178.9504023375,179.1246445875,58.0,83.0
735,179.1776748375,179.4238867125,63.0,86.0
736,179.4049473375,179.641689525,58.0,83.0
737,179.6322198375,179.9200983375,66.0,79.0
738,179.8594923375,180.1208557125,58.0,77.0
739,179.1776748375,180.30456765,51.0,86.0
740,180.0867648375,180.3102494625,63.0,79.0
741,180.3140373375,180.5602492125,58.0,82.0
742,180.54130983750002,180.823506525,66.0,75.0
743,180.76858233750002,181.0413093375,58.0,75.0
744,180.99585483750002,181.46365740000002,63.0,82.0
745,181.45039983750002,181.72691471250002,59.0,82.0
746,181.6776723375,181.8822175875,63.0,81.0
747,181.9049448375,182.1700960875,66.0,88.0
748,181.22312733750002,182.19282333750002,54.0,75.0
749,180.99585483750002,182.262899025,47.0,86.0
750,182.1322173375,182.38032315,63.0,82.0
751,182.3594898375,182.6625198375,59.0,76.0
752,182.5867623375,182.95418621250002,63.0,81.0
753,183.2685798375,183.558352275,63.0,82.0
754,183.4958523375,183.7950944625,56.0,82.0
755,183.7231248375,184.0110033375,68.0,85.0
756,183.95039733750002,184.217442525,63.0,82.0
757,183.0413073375,184.43903321250002,51.0,79.0
758,184.17766983750002,184.43903321250002,59.0,79.0
759,182.8140348375,184.467442275,44.0,83.0
760,184.40494233750002,185.13032040000002,63.0,82.0
761,185.0867598375,185.3121384,59.0,82.0
762,185.3140323375,185.5034260875,56.0,83.0
763,185.5413048375,185.7913045875,63.0,86.0
764,185.7685773375,186.0072134625,59.0,86.0
765,185.9958498375,186.27425865,56.0,85.0
766,184.8594873375,186.3121374,51.0,74.0
767,184.63221483750002,186.33865252500001,44.0,83.0
768,186.2231223375,186.59433408750002,63.0,82.0
769,186.6776673375,186.937136775,61.0,82.0
770,186.9049398375,187.2117577125,56.0,83.0
771,187.13221233750002,187.2761515875,61.0,82.0
772,187.35948483750002,187.60190883750002,63.0,83.0
773,187.58675733750002,187.7799389625,61.0,84.0
774,186.4503948375,188.09054471250002,49.0,96.0
775,187.81402983750002,188.11895377500002,56.0,82.0
776,188.0413023375,188.1473628375,61.0,84.0
777,188.2685748375,188.4181959,56.0,83.0
778,188.2685748375,188.649256275,65.0,86.0
779,188.4958473375,188.7458470875,56.0,78.0
780,188.7231198375,188.9541802125,61.0,77.0
781,188.9503923375,189.06024071250002,56.0,83.0
782,189.1776648375,189.29698290000002,56.0,88.0
783,189.4049373375,189.53561902500002,56.0,85.0
784,189.1776648375,189.6019068375,65.0,83.0
785,189.6322098375,189.9030429,61.0,89.0
786,189.8594823375,190.02993671250002,56.0,85.0
787,188.2685748375,190.06402758750002,49.0,98.0
788,189.906830775,190.54698165000002,54.0,71.0
789,190.03561852500002,190.75531477500002,66.0,82.0
790,189.997739775,190.78751171250002,61.0,75.0
791,189.9655428375,190.79698140000002,58.0,76.0
792,190.959860025,191.8727379,54.0,75.0
793,191.861374275,191.98637415000002,58.0,72.0
794,191.8594803375,192.01857108750002,61.0,72.0
795,191.853798525,192.25341933750002,66.0,78.0
796,192.25910115000002,192.4162979625,54.0,76.0
797,190.4579665875,192.48826758750002,49.0,68.0
798,190.02614883750002,192.543191775,42.0,83.0
799,192.72690371250002,192.921979275,54.0,84.0
800,192.73069158750002,192.94281258750001,42.0,84.0
801,192.72122190000002,192.95417621250002,66.0,81.0
802,193.081070025,193.19849415000002,56.0,81.0
803,193.0791760875,193.20228202500002,68.0,81.0
804,193.073494275,193.22500927500002,44.0,83.0
805,193.3746303375,193.47500902500002,57.0,69.0
806,193.368948525,193.49394840000002,69.0,78.0
807,193.3575849,193.505312025,45.0,83.0
808,193.68334215000002,194.0185690875,70.0,81.0
809,193.68902396250002,194.2988718375,58.0,82.0
810,194.5715988375,194.634098775,58.0,73.0
811,194.5602352125,194.6435684625,61.0,85.0
812,194.1132659625,194.649250275,53.0,72.0
813,194.5545534,194.66629571250002,65.0,84.0
814,193.69091790000002,194.70228052500002,46.0,87.0
815,195.2969769,195.63220383750001,65.0,83.0
816,195.21364365000002,195.63220383750001,70.0,74.0
817,195.361370775,195.63409777500001,61.0,78.0
818,195.45227977500002,195.63977958750002,58.0,75.0
819,195.747734025,195.91818840000002,61.0,89.0
820,195.755309775,195.93333990000002,58.0,88.0
821,195.755309775,195.93523383750002,65.0,85.0
822,196.17955177500002,196.2837183375,58.0,61.0
823,196.41061215000002,196.66629371250002,58.0,81.0
824,195.490158525,196.7041724625,53.0,93.0
825,196.41250608750002,196.740157275,70.0,84.0
826,196.40682427500002,196.7647784625,61.0,88.0
827,196.41440002500002,196.7647784625,65.0,91.0
828,195.4844767125,196.997732775,46.0,88.0
829,196.8329602125,197.14545990000002,61.0,75.0
830,197.0715963375,197.2723537125,58.0,86.0
831,197.35947483750002,197.60568671250002,63.0,86.0
832,197.58674733750001,197.823489525,58.0,83.0
833,197.8140198375,198.10189833750002,66.0,79.0
834,198.0412923375,198.3026557125,58.0,77.0
835,197.35947483750002,198.48636765,51.0,86.0
836,198.2685648375,198.4920494625,63.0,79.0
837,198.4958373375,198.7420492125,58.0,82.0
838,198.7231098375,199.005306525,66.0,75.0
839,198.9503823375,199.2231093375,58.0,75.0
840,199.1776548375,199.6454574,63.0,82.0
841,199.6321998375,199.9087147125,59.0,82.0
842,199.85947233750002,200.06401758750002,63.0,81.0
843,200.08674483750002,200.35189608750002,66.0,88.0
844,199.4049273375,200.3746233375,54.0,75.0
845,199.1776548375,200.444699025,47.0,86.0
846,200.31401733750002,200.56212315000002,63.0,82.0
847,200.54128983750002,200.8443198375,59.0,76.0
848,200.76856233750001,201.1359862125,63.0,81.0
849,201.4503798375,201.740152275,63.0,82.0
850,201.6776523375,201.9768944625,56.0,82.0
851,201.9049248375,202.1928033375,68.0,85.0
852,202.1321973375,202.399242525,63.0,82.0
853,201.2231073375,202.6208332125,51.0,79.0
854,202.3594698375,202.6208332125,59.0,79.0
855,200.9958348375,202.649242275,44.0,83.0
856,202.5867423375,203.3121204,63.0,82.0
857,203.26855983750002,203.49393840000002,59.0,82.0
858,203.49583233750002,203.6852260875,56.0,83.0
859,203.72310483750002,203.97310458750002,63.0,86.0
860,203.95037733750002,204.18901346250001,59.0,86.0
861,204.1776498375,204.45605865000002,56.0,85.0
862,203.04128733750002,204.49393740000002,51.0,74.0
863,202.8140148375,204.520452525,44.0,83.0
864,204.4049223375,204.7761340875,63.0,82.0
865,204.8594673375,205.118936775,61.0,82.0
866,205.0867398375,205.3935577125,56.0,83.0
867,205.3140123375,205.45795158750002,61.0,82.0
868,205.5412848375,205.7837088375,63.0,83.0
869,205.7685573375,205.96173896250002,61.0,84.0
870,204.6321948375,206.2723447125,49.0,96.0
871,205.9958298375,206.300753775,56.0,82.0
872,206.2231023375,206.3291628375,61.0,84.0
873,206.45037483750002,206.5999959,56.0,83.0
874,206.45037483750002,206.831056275,65.0,86.0
875,206.67764733750002,206.92764708750002,56.0,78.0
876,206.90491983750002,207.13598021250002,61.0,77.0
877,207.13219233750002,207.2420407125,56.0,83.0
878,207.3594648375,207.4787829,56.0,88.0
879,207.5867373375,207.717419025,56.0,85.0
880,207.3594648375,207.7837068375,65.0,83.0
881,207.8140098375,208.0848429,61.0,89.0
882,208.0412823375,208.2117367125,56.0,85.0
883,206.45037483750002,208.2458275875,49.0,98.0
884,208.2685548375,208.4731000875,54.0,82.0
885,208.2685548375,208.5715848375,58.0,82.0
886,208.7230998375,209.07726615,54.0,82.0
887,208.9503723375,209.14355396250002,61.0,79.0
888,209.1776448375,209.4787809,66.0,87.0
889,208.4958273375,209.649235275,49.0,64.0
890,209.4049173375,209.694689775,61.0,82.0
891,208.2685548375,209.88218958750002,42.0,83.0
892,209.63218983750002,210.2837043375,54.0,82.0
893,209.85946233750002,210.6246130875,61.0,77.0
894,210.7685523375,210.92574915,58.0,76.0
895,210.31400733750002,211.156809525,49.0,74.0
896,210.5412798375,211.2420367125,54.0,82.0
897,210.08673483750002,211.278021525,42.0,83.0
898,210.9958248375,211.399233525,66.0,89.0
899,211.2230973375,211.53559702500002,61.0,84.0
900,211.4503698375,211.7079453375,54.0,84.0
901,211.6776423375,211.81968765000002,58.0,75.0
902,211.9049148375,212.1511267125,58.0,72.0
903,211.9049148375,212.1814297125,61.0,76.0
904,212.3594598375,212.724989775,58.0,82.0
905,212.5867323375,212.891656275,61.0,73.0
906,212.81400483750002,213.06400458750002,70.0,87.0
907,212.1321873375,213.1927923375,53.0,76.0
908,211.9049148375,213.21362565,46.0,83.0
909,213.04127733750002,213.30264071250002,65.0,83.0
910,213.26854983750002,213.53559502500002,61.0,87.0
911,213.49582233750002,214.22309433750002,65.0,86.0
912,214.1776398375,214.3973365875,61.0,81.0
913,213.7230948375,214.6852150875,46.0,87.0
914,213.9503673375,214.7003665875,53.0,75.0
915,214.4049123375,214.75150290000002,58.0,84.0
916,214.6321848375,214.91059365,70.0,86.0
917,214.8594573375,215.1397600875,65.0,83.0
918,215.0867298375,215.2874872125,61.0,83.0
919,215.3140023375,215.48824458750002,58.0,83.0
920,215.5412748375,215.7874867125,63.0,86.0
921,215.7685473375,216.005289525,58.0,83.0
922,215.99581983750002,216.2836983375,66.0,79.0
923,216.22309233750002,216.48445571250002,58.0,77.0
924,215.5412748375,216.66816765000002,51.0,86.0
925,216.45036483750002,216.67384946250002,63.0,79.0
926,216.67763733750002,216.92384921250002,58.0,82.0
927,216.9049098375,217.18710652500002,66.0,75.0
928,217.1321823375,217.40490933750002,58.0,75.0
929,217.3594548375,217.8272574,63.0,82.0
930,217.8139998375,218.0905147125,59.0,82.0
931,218.0412723375,218.2458175875,63.0,81.0
932,218.2685448375,218.5336960875,66.0,88.0
933,217.5867273375,218.5564233375,54.0,75.0
934,217.3594548375,218.62649902500002,47.0,86.0
935,218.4958173375,218.74392315,63.0,82.0
936,218.7230898375,219.0261198375,59.0,76.0
937,218.9503623375,219.3177862125,63.0,81.0
938,219.63217983750002,219.921952275,63.0,82.0
939,219.85945233750002,220.15869446250002,56.0,82.0
940,220.08672483750001,220.37460333750002,68.0,85.0
941,220.3139973375,220.58104252500002,63.0,82.0
942,219.40490733750002,220.8026332125,51.0,79.0
943,220.5412698375,220.8026332125,59.0,79.0
944,219.17763483750002,220.83104227500002,44.0,83.0
945,220.7685423375,221.4939204,63.0,82.0
946,221.4503598375,221.6757384,59.0,82.0
947,221.6776323375,221.86702608750002,56.0,83.0
948,221.9049048375,222.1549045875,63.0,86.0
949,222.1321773375,222.3708134625,59.0,86.0
950,222.35944983750002,222.63785865,56.0,85.0
951,221.2230873375,222.6757374,51.0,74.0
952,220.9958148375,222.702252525,44.0,83.0
953,222.58672233750002,222.9579340875,63.0,82.0
954,223.04126733750002,223.30073677500002,61.0,82.0
955,223.26853983750001,223.57535771250002,56.0,83.0
956,223.4958123375,223.6397515875,61.0,82.0
957,223.7230848375,223.9655088375,63.0,83.0
958,223.9503573375,224.1435389625,61.0,84.0
959,222.81399483750002,224.4541447125,49.0,96.0
960,224.1776298375,224.482553775,56.0,82.0
961,224.4049023375,224.51096283750002,61.0,84.0
962,224.6321748375,224.78179590000002,56.0,83.0
963,224.6321748375,225.01285627500002,65.0,86.0
964,224.8594473375,225.1094470875,56.0,78.0
965,225.0867198375,225.3177802125,61.0,77.0
966,225.3139923375,225.4238407125,56.0,83.0
967,225.54126483750002,225.6605829,56.0,88.0
968,225.76853733750002,225.899219025,56.0,85.0
969,225.54126483750002,225.96550683750002,65.0,83.0
970,225.99580983750002,226.26664290000002,61.0,89.0
971,226.22308233750002,226.3935367125,56.0,85.0
972,226.1908854,226.421945775,54.0,73.0
973,224.6321748375,226.4276275875,49.0,98.0
974,226.27421865000002,226.47497602500002,58.0,75.0
975,226.3518700875,226.56209715,61.0,70.0
976,226.4011124625,226.6549000875,66.0,80.0
977,226.906793775,227.331035775,54.0,59.0
978,227.3291418375,227.45414171250002,58.0,71.0
979,227.338611525,227.48633865000002,61.0,74.0
980,228.247701525,228.331034775,58.0,69.0
981,228.2344439625,228.3632317125,61.0,77.0
982,229.16247333750002,229.2211854,58.0,61.0
983,229.1283824625,229.270427775,61.0,76.0
984,226.406794275,229.65110921250002,42.0,83.0
985,230.0601997125,230.63785065000002,58.0,59.0
986,230.0412603375,230.6908809,61.0,68.0
987,229.6018668375,230.92572915,54.0,68.0
988,230.9768654625,231.14353196250002,61.0,50.0
989,231.85375852500002,232.07534921250002,58.0,59.0
990,231.84428883750002,232.08671283750002,61.0,59.0
991,232.7723182125,232.9654998375,58.0,67.0
992,232.770424275,232.967393775,61.0,66.0
993,230.5090629,233.1605754,49.0,57.0
994,230.0545179,233.224969275,42.0,72.0
995,233.6851960875,234.03557452500002,58.0,65.0
996,233.679514275,234.06587752500002,61.0,63.0
997,234.6132254625,235.00716446250001,58.0,51.0
998,234.603755775,235.04125533750002,61.0,56.0
999,234.1757259,235.1321643375,49.0,39.0
1000,233.6908779,235.25527027500002,42.0,65.0
1001,235.04693715000002,235.6548910875,54.0,60.0
1002,235.4503458375,235.78557277500002,58.0,46.0
1003,235.4692852125,235.78557277500002,61.0,60.0
1004,235.50148215000002,235.80640608750002,66.0,59.0
1005,235.47117915,235.914360525,42.0,58.0
