,start,end,pitch,velocity
0,17.390073454166668,17.648693954166667,75.0,114.0
1,17.648693954166667,17.956883383333334,73.0,108.0
2,17.907314454166666,18.42455545416667,72.0,109.0
3,18.42455545416667,18.941796454166667,75.0,100.0
4,18.941796454166667,19.200416954166666,80.0,110.0
5,19.200416954166666,19.71765795416667,80.0,110.0
6,19.71765795416667,19.974123283333334,84.0,109.0
7,19.976278454166668,20.234898954166667,84.0,116.0
8,20.234898954166667,21.528001454166667,85.0,116.0
9,21.528001454166667,21.786621954166666,82.0,110.0
10,21.786621954166666,22.04524245416667,80.0,93.0
11,22.04524245416667,22.301707783333335,82.0,107.0
12,22.303862954166668,22.821103954166666,82.0,107.0
13,22.821103954166666,23.077569283333336,75.0,92.0
14,23.07972445416667,23.596965454166668,75.0,100.0
15,23.596965454166668,23.853430783333334,82.0,98.0
16,23.855585954166667,24.114206454166666,82.0,91.0
17,24.114206454166666,24.37282695416667,85.0,110.0
18,24.37282695416667,26.700411454166666,84.0,116.0
19,26.700411454166666,26.956876783333335,80.0,110.0
20,26.95903195416667,27.215497283333335,80.0,98.0
21,27.217652454166668,27.732738283333333,80.0,110.0
22,27.734893454166667,27.991358783333336,80.0,107.0
23,27.99351395416667,29.803857454166668,80.0,107.0
24,29.803857454166668,30.321098454166666,84.0,119.0
25,30.321098454166666,33.94178545416667,82.0,116.0
26,33.94178545416667,34.20040595416667,75.0,114.0
27,34.20040595416667,34.508595383333336,73.0,108.0
28,34.45902645416667,34.97626745416667,72.0,109.0
29,34.97626745416667,35.493508454166665,75.0,100.0
30,35.493508454166665,35.752128954166665,80.0,110.0
31,35.752128954166665,36.26936995416667,80.0,110.0
32,36.26936995416667,36.525835283333336,84.0,109.0
33,36.52799045416667,36.78661095416667,84.0,116.0
34,36.78661095416667,38.079713454166665,85.0,116.0
35,38.079713454166665,38.33833395416667,82.0,110.0
36,38.33833395416667,38.59695445416667,80.0,93.0
37,38.59695445416667,38.85341978333334,82.0,107.0
38,38.85557495416667,39.37281595416667,82.0,107.0
39,39.37281595416667,39.63143645416667,75.0,92.0
40,39.63143645416667,40.148677454166666,79.0,100.0
41,40.148677454166666,40.40514278333333,82.0,98.0
42,40.407297954166665,40.665918454166665,82.0,91.0
43,40.665918454166665,40.92453895416667,85.0,110.0
44,40.92453895416667,43.25212345416667,84.0,116.0
45,43.25212345416667,43.51074395416667,80.0,108.0
46,43.51074395416667,43.76936445416667,82.0,104.0
47,43.76936445416667,44.28660545416667,84.0,113.0
48,44.28660545416667,44.56031215,85.0,113.0
49,44.54522595416667,45.83832845416667,84.0,113.0
50,45.83832845416667,46.09694895416667,80.0,116.0
51,46.09694895416667,46.87281045416667,89.0,119.0
52,46.87281045416667,51.01073845416667,87.0,119.0
53,51.01073845416667,51.784444783333335,84.0,123.0
54,51.78659995416667,52.30384095416667,84.0,116.0
55,52.30384095416667,53.07970245416667,87.0,117.0
56,53.07970245416667,55.148666454166666,77.0,119.0
57,55.148666454166666,55.92237278333334,82.0,114.0
58,55.92452795416667,56.70038945416667,82.0,114.0
59,56.70038945416667,57.273664895833335,85.0,116.0
60,57.21763045416667,59.803835454166666,84.0,119.0
61,59.803835454166666,60.06030078333333,80.0,110.0
62,60.062455954166666,60.359869529166666,80.0,107.0
63,60.32107645416667,60.57969695416667,79.0,116.0
64,60.57969695416667,61.35555845416667,80.0,114.0
65,61.35555845416667,61.87279945416667,89.0,116.0
66,61.87279945416667,62.390040454166666,84.0,119.0
67,62.390040454166666,62.90728145416667,82.0,116.0
68,62.90728145416667,63.168057125000004,80.0,114.0
69,63.16590195416667,67.04520945416667,82.0,119.0
70,67.04520945416667,67.30382995416667,84.0,119.0
71,67.30382995416667,67.56245045416667,82.0,110.0
72,67.56245045416667,68.33615678333334,80.0,113.0
73,68.33831195416667,69.11417345416668,80.0,113.0
74,69.11417345416668,69.63141445416667,77.0,116.0
75,69.63141445416667,71.18313745416667,75.0,116.0
76,71.18313745416667,71.44175795416668,84.0,116.0
77,71.44175795416668,71.70037845416667,82.0,104.0
78,71.70037845416667,72.47408478333334,80.0,114.0
79,72.47623995416667,72.99348095416667,80.0,117.0
80,72.99348095416667,73.76934245416668,89.0,116.0
81,73.76934245416668,75.32106545416667,87.0,114.0
82,75.32106545416667,75.57968595416666,80.0,113.0
83,75.57968595416666,75.83830645416667,82.0,108.0
84,75.83830645416667,76.35554745416667,84.0,116.0
85,76.35554745416667,76.61201278333334,80.0,107.0
86,76.61416795416667,77.12925378333334,80.0,107.0
87,77.13140895416667,77.64864995416667,80.0,117.0
88,77.64864995416667,77.90727045416666,89.0,116.0
89,77.90727045416666,78.42451145416668,87.0,116.0
90,78.42451145416668,78.68097678333334,80.0,116.0
91,78.68313195416667,79.45683828333334,80.0,117.0
92,79.45899345416667,79.74778634583333,80.0,113.0
93,79.71761395416667,79.97623445416667,72.0,106.0
94,79.97623445416667,80.31028593333333,73.0,102.0
95,80.23485495416666,80.74994078333334,80.0,113.0
96,80.75209595416666,81.78657795416667,80.0,114.0
97,81.78657795416667,82.04519845416667,75.0,104.0
98,82.04519845416667,82.5969221875,84.0,116.0
99,82.56243945416666,82.82105995416667,82.0,104.0
100,82.82105995416667,83.59692145416668,80.0,104.0
101,83.59692145416668,84.11416245416667,82.0,113.0
102,84.11416245416667,85.76717848333334,80.0,114.0
103,100.14863345416667,100.40725395416668,75.0,114.0
104,100.40725395416668,100.71544338333334,73.0,108.0
105,100.66587445416667,101.18311545416667,72.0,109.0
106,101.18311545416667,101.70035645416667,75.0,100.0
107,101.70035645416667,101.95897695416667,80.0,110.0
108,101.95897695416667,102.47621795416667,80.0,110.0
109,102.47621795416667,102.73268328333334,84.0,109.0
110,102.73483845416668,102.99345895416667,84.0,116.0
111,102.99345895416667,104.28656145416667,85.0,116.0
112,104.28656145416667,104.54518195416667,82.0,110.0
113,104.54518195416667,104.80380245416667,80.0,93.0
114,104.80380245416667,105.06026778333334,82.0,107.0
115,105.06242295416668,105.57966395416668,82.0,107.0
116,105.57966395416668,105.83828445416667,75.0,92.0
117,105.83828445416667,106.35552545416667,79.0,100.0
118,106.35552545416667,106.61199078333334,82.0,98.0
119,106.61414595416667,106.87276645416667,82.0,91.0
120,106.87276645416667,107.13138695416667,85.0,110.0
121,107.13138695416667,109.45897145416667,84.0,116.0
122,109.45897145416667,109.71759195416666,80.0,108.0
123,109.71759195416666,109.97621245416667,82.0,104.0
124,109.97621245416667,111.00853928333333,84.0,113.0
125,111.01069445416667,111.52793545416667,84.0,119.0
126,111.52793545416667,112.04302128333333,82.0,110.0
127,112.04517645416666,112.30379695416667,82.0,113.0
128,112.30379695416667,113.07965845416668,77.0,113.0
129,113.07965845416668,117.21758645416668,82.0,116.0
130,117.21758645416668,117.99129278333334,84.0,123.0
131,117.99344795416667,118.51068895416667,84.0,116.0
132,118.51068895416667,119.28655045416667,87.0,117.0
133,119.28655045416667,121.35551445416667,77.0,119.0
134,121.35551445416667,122.12922078333334,82.0,114.0
135,122.13137595416667,122.90723745416668,82.0,114.0
136,122.90723745416668,123.48051289583334,85.0,116.0
137,123.42447845416667,126.01068345416667,84.0,119.0
138,126.01068345416667,126.26714878333334,80.0,110.0
139,126.26930395416667,126.56671752916667,80.0,107.0
140,126.52792445416667,126.78654495416667,79.0,116.0
141,126.78654495416667,127.56240645416668,80.0,114.0
142,127.56240645416668,128.07964745416666,89.0,116.0
143,128.07964745416666,128.59688845416667,84.0,119.0
144,128.59688845416667,129.11412945416666,82.0,116.0
145,129.11412945416666,129.374905125,80.0,114.0
146,129.37274995416666,133.25205745416667,82.0,119.0
147,133.25205745416667,133.51067795416668,84.0,119.0
148,133.51067795416668,133.76929845416666,82.0,110.0
149,133.76929845416666,134.54300478333334,80.0,113.0
150,134.54515995416668,135.32102145416667,80.0,113.0
151,135.32102145416667,135.83826245416668,77.0,116.0
152,135.83826245416668,137.38998545416666,75.0,116.0
153,137.38998545416666,137.64860595416667,84.0,116.0
154,137.64860595416667,137.90722645416668,82.0,104.0
155,137.90722645416668,138.68093278333333,80.0,114.0
156,138.68308795416667,139.20032895416668,80.0,117.0
157,139.20032895416668,139.97619045416667,89.0,116.0
158,139.97619045416667,141.52791345416668,87.0,114.0
159,141.52791345416668,141.78653395416669,80.0,113.0
160,141.78653395416669,142.04515445416666,82.0,108.0
161,142.04515445416666,142.56239545416668,84.0,116.0
162,142.56239545416668,142.81886078333335,80.0,107.0
163,142.82101595416668,143.33610178333333,80.0,107.0
164,143.33825695416667,143.85549795416668,80.0,117.0
165,143.85549795416668,144.1141184541667,89.0,116.0
166,144.1141184541667,144.63135945416667,87.0,116.0
167,144.63135945416667,144.88782478333334,80.0,116.0
168,144.88997995416668,145.66368628333333,80.0,117.0
169,145.66584145416667,145.95463434583334,80.0,113.0
170,145.92446195416667,146.18308245416668,72.0,106.0
171,146.18308245416668,146.51713393333333,73.0,102.0
172,146.4417029541667,146.95678878333334,80.0,113.0
173,146.95894395416667,147.99342595416667,80.0,114.0
174,147.99342595416667,148.25204645416667,75.0,104.0
175,148.25204645416667,148.8037701875,84.0,116.0
176,148.76928745416666,149.02790795416666,82.0,104.0
177,149.02790795416666,149.80376945416668,80.0,104.0
178,149.80376945416668,150.32101045416667,82.0,113.0
179,150.32101045416667,151.35549245416667,80.0,114.0
180,158.59686645416667,159.37057278333333,84.0,123.0
181,159.37272795416666,159.88996895416668,84.0,116.0
182,159.88996895416668,160.66583045416667,87.0,117.0
183,160.66583045416667,162.73479445416666,77.0,119.0
184,162.73479445416666,163.50850078333335,82.0,114.0
185,163.51065595416668,164.28651745416667,82.0,114.0
186,164.28651745416667,164.85979289583335,85.0,116.0
187,164.80375845416668,167.38996345416666,84.0,119.0
188,167.38996345416666,167.64642878333333,80.0,110.0
189,167.64858395416667,167.94599752916668,80.0,107.0
190,167.90720445416667,168.16582495416668,79.0,116.0
191,168.16582495416668,168.94168645416667,80.0,114.0
192,168.94168645416667,169.45892745416668,89.0,116.0
193,169.45892745416668,169.97616845416667,84.0,119.0
194,169.97616845416667,170.49340945416668,82.0,116.0
195,170.49340945416668,170.75418512500002,80.0,114.0
196,170.7520299541667,174.63133745416667,82.0,119.0
197,174.63133745416667,174.88995795416668,84.0,119.0
198,174.88995795416668,175.14857845416668,82.0,110.0
199,175.14857845416668,175.92228478333334,80.0,113.0
200,175.92443995416667,176.70030145416666,80.0,113.0
201,176.70030145416666,177.21754245416668,77.0,116.0
202,177.21754245416668,178.76926545416669,75.0,116.0
203,178.76926545416669,179.02788595416666,84.0,116.0
204,179.02788595416666,179.28650645416667,82.0,104.0
205,179.28650645416667,180.06021278333333,80.0,114.0
206,180.06236795416666,180.57960895416667,80.0,117.0
207,180.57960895416667,181.35547045416666,89.0,116.0
208,181.35547045416666,182.90719345416667,87.0,114.0
209,182.90719345416667,183.16581395416668,80.0,113.0
210,183.16581395416668,183.4244344541667,82.0,108.0
211,183.4244344541667,183.94167545416667,84.0,116.0
212,183.94167545416667,184.19814078333334,80.0,107.0
213,184.20029595416668,184.71538178333333,80.0,107.0
214,184.71753695416666,185.23477795416667,80.0,117.0
215,185.23477795416667,185.49339845416668,89.0,116.0
216,185.49339845416668,186.01063945416666,87.0,116.0
217,186.01063945416666,186.26710478333334,80.0,116.0
218,186.26925995416667,187.04296628333333,80.0,117.0
219,187.04512145416666,187.33391434583334,80.0,113.0
220,187.30374195416667,187.56236245416667,72.0,106.0
221,187.56236245416667,187.89641393333335,73.0,102.0
222,187.82098295416668,188.33606878333333,80.0,113.0
223,188.33822395416666,189.37270595416666,80.0,114.0
224,189.37270595416666,189.63132645416667,75.0,104.0
225,193.51063395416668,193.76925445416668,63.0,90.0
226,193.76925445416668,194.28649545416667,72.0,119.0
227,194.28649545416667,194.57528834583334,70.0,93.0
228,194.54511595416668,195.32097745416667,68.0,102.0
229,195.32097745416667,196.09683895416669,70.0,113.0
230,196.09683895416669,197.90718245416667,68.0,113.0
