,start,end,pitch,velocity
0,44.96632563333333,45.35521448333333,71.0,127.0
1,45.524676333333325,45.661468729166664,71.0,117.0
2,45.80769508333333,46.07184591666666,71.0,122.0
3,46.090713833333325,46.67326076041666,71.0,99.0
4,46.68033622916666,46.95392102083333,66.0,97.0
5,46.93977008333333,47.19684544791666,64.0,90.0
6,47.222788833333325,48.94212773958333,62.0,95.0
7,48.920901333333326,49.140240864583326,59.0,81.0
8,49.486938833333326,49.85486320833333,64.0,97.0
9,50.052976333333326,50.25816492708333,64.0,95.0
10,50.33599508333333,50.52231576041666,67.0,92.0
11,50.61901383333333,50.923258989583324,66.0,93.0
12,50.90203258333332,51.140240031249995,64.0,72.0
13,51.18505133333333,51.810051072916664,62.0,85.0
14,51.75108883333333,53.71099367708332,64.0,97.0
15,54.01523883333333,54.89561073124999,64.0,100.0
16,55.134036633333324,55.627092139583326,67.0,102.0
17,55.68959213333332,56.07848098333332,64.0,100.0
18,56.245147633333325,56.91644386249999,76.0,122.0
19,56.80070313333332,57.09236977083332,71.0,107.0
20,57.07848088333332,57.351629004166654,69.0,77.0
21,57.356258633333326,58.18264743958332,67.0,92.0
22,58.18959188333332,58.45116593124999,64.0,92.0
23,58.46736963333332,59.02061031874999,69.0,102.0
24,59.022925133333324,59.48820286458332,71.0,100.0
25,59.57848063333332,60.02523984791666,72.0,112.0
26,60.134036133333325,60.41412869791666,71.0,99.0
27,60.41181388333332,60.65255459999999,69.0,89.0
28,60.68959163333332,62.45103442708332,69.0,117.0
29,62.92509083333332,63.314241614583324,71.0,122.0
30,63.49112833333332,63.61612828124999,71.0,93.0
31,63.774147083333325,63.88499609374999,71.0,93.0
32,64.05716583333333,64.43688265624999,71.0,117.0
33,64.62320333333332,64.89442963541666,66.0,117.0
34,64.90622208333332,65.179806875,64.0,93.0
35,65.18924083333333,66.57839119791666,62.0,100.0
36,67.45339083333333,67.80952276041666,64.0,117.0
37,68.01942833333332,68.15622072916666,64.0,112.0
38,68.30244708333332,68.44631494791666,67.0,96.0
39,68.58546583333333,68.87791854166666,66.0,127.0
40,68.86848458333333,69.12555994791666,64.0,82.0
41,69.15150333333332,69.71989932291666,62.0,99.0
42,69.71754083333332,71.46046463541666,64.0,96.0
43,71.98169083333332,72.86140744791666,64.0,99.0
44,73.11376583333332,73.61376562499998,67.0,117.0
45,73.67980333333333,74.07131260416665,64.0,100.0
46,74.24584083333332,74.92036885416665,76.0,127.0
47,74.81187833333333,75.09018010416665,71.0,122.0
48,75.09489708333332,75.36376489583333,69.0,100.0
49,75.37791583333332,76.09489666666666,67.0,96.0
50,76.22697208333332,76.52414177083332,64.0,97.0
51,76.50999083333332,76.84017937499999,69.0,112.0
52,77.07602833333333,77.30951880208332,69.0,112.0
53,77.35904708333332,77.58546208333333,72.0,117.0
54,77.64206583333332,78.21282031249999,71.0,122.0
55,78.49112208333332,78.70338614583332,69.0,92.0
56,78.77414083333332,79.42272546874999,71.0,102.0
57,79.34017833333333,80.66621737291665,67.0,107.0
58,81.02501363333332,81.39769878124999,74.0,127.0
59,81.58056913333331,81.77732837291664,74.0,127.0
60,81.85834688333331,82.00418020208332,76.0,99.0
61,82.13612463333331,82.42084682708331,76.0,122.0
62,82.69168013333332,82.98334677083332,71.0,102.0
63,82.96945788333332,83.21019859999998,69.0,100.0
64,83.24723563333332,83.64538374166665,67.0,100.0
65,84.63612438333331,84.89769843124998,67.0,97.0
66,84.91390213333331,85.15695766458332,64.0,100.0
67,85.46945763333332,85.80047611874998,74.0,127.0
68,86.02501313333332,86.24955014791665,74.0,122.0
69,86.30279088333332,86.44862420208331,76.0,112.0
70,86.58056863333331,86.97177229791664,76.0,127.0
71,87.13612413333331,87.42547595624998,72.0,122.0
72,87.41390188333331,87.68473518958332,71.0,96.0
73,87.69167963333331,89.38446382291664,69.0,112.0
74,89.94814283333332,90.58021804166665,69.0,127.0
75,90.79719908333331,91.06370840624999,67.0,93.0
76,91.08021783333332,91.57314215624999,69.0,117.0
77,91.64625533333331,92.22172679166665,71.0,117.0
78,92.21229283333332,92.78776429166665,74.0,127.0
79,92.77833033333332,93.16983960416665,76.0,127.0
80,93.34436783333332,93.80899028124998,74.0,112.0
81,93.91040533333332,94.23351840624998,71.0,112.0
82,94.47644283333332,95.03776335416664,69.0,122.0
83,95.32549908333331,95.45757449999998,67.0,96.0
84,95.60851783333331,95.81842340624998,69.0,107.0
85,95.89153658333332,96.17927231249999,67.0,95.0
86,96.17455533333332,96.37738543749998,69.0,122.0
87,96.45757408333331,96.63917778124998,71.0,117.0
88,96.74059283333331,97.23351715624999,74.0,127.0
89,97.30663033333332,98.57313923958331,74.0,127.0
90,99.00474283333331,99.35379929166665,74.0,127.0
91,99.57078033333332,99.79719533333332,74.0,127.0
92,99.85379908333331,99.99059147916665,76.0,100.0
93,100.13681783333331,100.43398752083331,76.0,117.0
94,100.70285533333332,100.96464767708332,71.0,122.0
95,100.98587408333331,101.26181736458332,69.0,112.0
96,101.26889283333331,102.20993017708332,67.0,102.0
97,103.52634216666665,103.89783738541665,74.0,127.0
98,104.08708966666666,104.27634194791665,74.0,122.0
99,104.36746341666665,104.51232318749999,76.0,99.0
100,104.64783716666666,104.92120157291666,76.0,117.0
101,105.20858466666665,105.46793038541665,72.0,117.0
102,105.48895841666665,105.74596768749998,71.0,117.0
103,105.76933216666666,106.72493936458332,69.0,107.0
104,108.01232216666665,108.35811645833333,69.0,127.0
105,108.57306966666665,108.79269577083332,69.0,117.0
106,108.85344341666665,109.17120033333332,67.0,97.0
107,109.13381716666666,109.66419084374999,69.0,112.0
108,109.69456466666665,109.92353656249999,69.0,99.0
109,109.97493841666666,110.22260189583332,71.0,99.0
110,110.25531216666666,110.73428398958332,74.0,112.0
111,110.81605966666666,111.06605959374998,74.0,127.0
112,111.09643341666666,111.41185388541666,76.0,99.0
113,111.37680716666665,111.816059375,74.0,112.0
114,111.93755466666666,112.16185366666666,71.0,117.0
115,112.49830216666666,112.94222727083333,69.0,122.0
116,113.33942341666665,113.52400280208332,71.0,122.0
117,113.61979716666666,113.88147933333332,66.0,122.0
118,113.90017091666665,114.12680636458332,64.0,97.0
119,114.18054466666666,114.46559131249998,62.0,92.0
120,114.46091841666666,114.74129216666665,64.0,97.0
121,114.74129216666665,114.90484352083332,67.0,112.0
122,115.30203966666666,116.91315267708333,67.0,102.0
123,154.71659963333332,155.10548848333332,71.0,127.0
124,155.54298843958333,155.67724768541666,71.0,117.0
125,155.82076618958334,156.08002542291666,71.0,122.0
126,156.09854393958332,156.2767846625,71.0,99.0
127,156.36474761666665,156.63558092291666,66.0,97.0
128,156.66104388333332,156.91335867291667,64.0,90.0
129,156.93882163333333,158.53835851041666,62.0,95.0
130,158.60548813333332,158.82076588958333,59.0,81.0
131,159.16104363333332,159.52215470833332,64.0,97.0
132,159.71659913333332,159.91798800208332,64.0,95.0
133,159.99437688333333,160.17724723541664,67.0,92.0
134,160.27215463333332,160.57076571458333,66.0,93.0
135,160.54993238333333,160.78372865625,64.0,72.0
136,160.8277101333333,161.44113599791666,62.0,85.0
137,161.38326563333334,163.33548367708332,64.0,97.0
138,163.63972883333332,164.52887940624998,64.0,100.0
139,164.77180383333334,165.27416211458333,67.0,102.0
140,165.33784133333333,165.73406758333334,64.0,100.0
141,165.90387883333332,166.5878408125,76.0,122.0
142,166.46991633333334,166.76708602083332,71.0,107.0
143,166.75293508333334,167.03123685416665,69.0,77.0
144,167.03595383333334,167.87793461458332,67.0,92.0
145,167.88501008333333,168.15151940625,64.0,92.0
146,168.16802883333332,168.73170784375,69.0,102.0
147,168.73406633333332,168.97699076041667,69.0,99.0
148,169.01708508333334,169.26708497916667,71.0,90.0
149,169.30010383333334,169.75529232291666,72.0,112.0
150,169.86614133333333,170.15151857291667,71.0,99.0
151,170.14916008333333,170.394443,69.0,89.0
152,170.43217883333332,172.22227242708334,69.0,117.0
153,172.69632883333333,173.08547961458333,71.0,122.0
154,173.26236633333332,173.38736628125,71.0,93.0
155,173.54538508333334,173.65623409375,71.0,93.0
156,173.82840383333334,174.20812065625,71.0,117.0
157,174.39444133333333,174.66566763541667,66.0,117.0
158,174.67746008333333,174.951044875,64.0,93.0
159,174.96047883333333,176.34962919791667,62.0,100.0
160,177.22462883333333,177.58076076041667,64.0,117.0
161,177.79066633333332,177.92745872916666,64.0,112.0
162,178.07368508333332,178.21755294791666,67.0,96.0
163,178.35670383333334,178.64915654166666,66.0,127.0
164,178.63972258333334,178.89679794791667,64.0,82.0
165,178.92274133333333,179.49113732291667,62.0,99.0
166,179.48877883333333,181.23170263541667,64.0,96.0
167,181.75292883333333,182.63264544791667,64.0,99.0
168,182.88500383333331,183.385003625,67.0,117.0
169,183.45104133333334,183.84255060416666,64.0,100.0
170,184.01707883333333,184.69160685416665,76.0,127.0
171,184.58311633333332,184.86141810416666,71.0,122.0
172,184.86613508333332,185.13500289583334,69.0,100.0
173,185.14915383333334,185.86613466666665,67.0,96.0
174,185.99821008333333,186.29537977083334,64.0,97.0
175,186.28122883333333,186.611417375,69.0,112.0
176,186.84447113333334,187.07363777708335,69.0,112.0
177,187.12224888333333,187.34447108333333,72.0,117.0
178,187.40002663333334,187.9602117625,71.0,122.0
179,188.23335988333335,188.44169319583335,69.0,92.0
180,188.51113763333333,189.14985334374998,71.0,102.0
181,189.06807766666665,190.38817073958333,67.0,107.0
182,190.75032016666665,191.12648828125,74.0,127.0
183,191.31106766666667,191.50966573958334,74.0,127.0
184,191.59144141666667,191.73863763541667,76.0,99.0
185,191.87181516666666,192.15919826041667,76.0,122.0
186,192.43256266666666,192.72695510416665,71.0,102.0
187,192.71293641666665,192.955927,69.0,100.0
188,192.99331016666667,193.39517920833333,67.0,100.0
189,194.39517891666665,194.65919753125,67.0,97.0
190,194.67555266666668,194.92087969791666,64.0,100.0
191,195.23630016666667,195.57041221875,74.0,127.0
192,195.79704766666666,196.02368311458332,74.0,122.0
193,196.07742141666665,196.22461763541665,76.0,112.0
194,196.35779516666668,196.75265486458332,76.0,127.0
195,196.91854266666667,197.21059865625,72.0,122.0
196,197.19891641666666,197.47228082291667,71.0,96.0
197,197.47929016666666,199.16386911458332,69.0,112.0
198,199.72228016666665,200.34844820833334,69.0,127.0
199,200.56340141666666,200.82742003125,67.0,93.0
200,200.84377516666666,201.33209278125,69.0,117.0
201,201.40452266666665,201.97461595833332,71.0,117.0
202,201.96527016666667,202.53536345833334,74.0,127.0
203,202.52601766666666,202.91386802083332,76.0,127.0
204,203.08676516666665,203.54704540625,74.0,112.0
205,203.64751266666667,203.96760603125,71.0,112.0
206,204.20826016666666,204.76433477083333,69.0,122.0
207,205.04938141666668,205.18022249999999,67.0,96.0
208,205.32975516666667,205.53769903124999,69.0,107.0
209,205.61012891666667,205.8957543,67.0,95.0
210,205.89106386666668,206.09275250000002,69.0,122.0
211,206.17248986666667,206.35307155,71.0,117.0
212,206.45391586666668,208.15888838333333,74.0,127.0
213,208.70532386666667,209.05241593333335,74.0,127.0
214,209.26817586666667,209.49331666666666,74.0,127.0
215,209.54960186666668,209.68562443333334,76.0,100.0
216,209.83102786666666,210.12652516666668,76.0,117.0
217,210.39387986666668,210.65419891666667,71.0,122.0
218,210.67530586666666,210.94969621666667,69.0,112.0
219,210.95673186666667,211.89247331666667,67.0,102.0
220,213.20813986666667,213.58102931666667,74.0,127.0
221,213.77099186666666,213.96095441666668,74.0,122.0
222,214.05241786666667,214.19782130000002,76.0,99.0
223,214.33384386666668,214.60823421666666,76.0,117.0
224,214.89669586666668,215.15701491666667,72.0,117.0
225,215.17812186666666,215.4360957,71.0,117.0
226,215.45954786666667,216.41874148333335,69.0,107.0
227,217.71095586666667,218.05804793333334,69.0,127.0
228,218.27380786666666,218.49425823333334,69.0,117.0
229,218.55523386666667,218.87418333333335,67.0,97.0
230,218.83665986666668,219.36902405,69.0,112.0
231,219.39951186666667,219.6293431,69.0,99.0
232,219.68093786666668,219.92953083333333,71.0,99.0
233,219.96236386666666,220.44313328333334,74.0,112.0
234,220.52521586666666,220.77615405,74.0,127.0
235,220.80664186666667,221.12324611666668,76.0,99.0
236,221.08806786666668,221.5289686,74.0,112.0
237,221.65091986666667,221.87606066666666,71.0,117.0
238,222.21377186666666,222.65936303333334,69.0,122.0
239,223.05804986666666,223.24332198333335,71.0,122.0
240,223.33947586666667,223.60214013333334,66.0,122.0
241,223.62090186666666,223.84838788333334,64.0,97.0
242,223.90232786666667,224.18844430000001,62.0,92.0
243,224.18375386666668,224.46517986666666,64.0,97.0
244,224.46517986666666,226.13335892708335,67.0,112.0
245,228.98477283333335,229.36448965625002,75.0,127.0
246,229.55081033333335,229.75128194791668,75.0,127.0
247,229.83382908333334,229.98241392708334,77.0,99.0
248,230.11684783333334,230.40694205208334,77.0,122.0
249,230.68288533333336,230.98005502083333,72.0,102.0
250,230.96590408333336,231.21118700000002,70.0,100.0
251,231.24892283333335,231.65458304166668,68.0,100.0
252,232.66401658333334,232.93052590625,68.0,97.0
253,232.94703533333336,233.19467673958334,65.0,100.0
254,233.51307283333335,233.85033684375,75.0,127.0
255,234.07911033333335,234.30788382291666,75.0,122.0
256,234.36212908333334,234.51071392708334,77.0,112.0
257,234.64514783333334,235.04373257291667,77.0,127.0
258,235.21118533333333,235.50599653125002,73.0,122.0
259,235.49420408333336,235.77014736458335,72.0,96.0
260,235.77722283333335,237.47769382291668,70.0,112.0
261,238.04137283333336,238.6734480416667,70.0,127.0
262,238.89042908333334,239.15693840625002,68.0,93.0
263,239.17344783333334,239.66637215625002,70.0,117.0
264,239.73948533333333,240.31495679166667,72.0,117.0
265,240.30552283333336,240.88099429166667,75.0,127.0
266,240.87156033333335,241.26306960416667,77.0,127.0
267,241.43759783333334,241.90222028125,75.0,112.0
268,242.00363533333334,242.32674840625,72.0,112.0
269,242.56967283333336,243.1309933541667,70.0,122.0
270,243.41872908333335,243.55080450000003,68.0,96.0
271,243.70174783333334,243.91165340625003,70.0,107.0
272,243.98476658333334,244.27250231250002,68.0,95.0
273,244.26778533333334,244.47061543750002,70.0,122.0
274,244.55080408333333,244.73240778125,72.0,117.0
275,244.83382283333333,246.5484447604167,75.0,127.0
276,247.09797283333336,247.44702929166667,75.0,127.0
277,247.66121513333334,247.88343733333335,75.0,127.0
278,247.93899288333333,248.07325212916666,77.0,100.0
279,248.21677063333334,248.50843727083333,77.0,117.0
280,248.77232613333334,249.02927055208335,72.0,122.0
281,249.05010388333335,249.32093718958333,70.0,112.0
282,249.32788163333333,250.25149265208333,68.0,102.0
283,251.55010363333335,251.91815915208335,75.0,127.0
284,252.10565913333335,252.29315911458335,75.0,122.0
285,252.38343688333333,252.5269553875,77.0,99.0
286,252.66121463333334,252.93204793958333,77.0,117.0
287,253.21677013333334,253.47371455208335,73.0,117.0
288,253.49454788333333,253.7491774875,72.0,117.0
289,253.77232563333334,254.71908479791668,70.0,107.0
290,256.0078248333333,256.35688129166664,70.0,127.0
291,256.57386233333335,256.79556035416664,70.0,117.0
292,256.85688108333335,257.1776356666667,68.0,97.0
293,257.13989983333335,257.67527696875,70.0,112.0
294,257.70593733333334,257.9370693125,70.0,99.0
295,257.98895608333333,258.23895597916663,72.0,99.0
296,258.27197483333333,258.75546519791664,75.0,112.0
297,258.8380123333333,259.09037071874997,75.0,127.0
298,259.1210310833333,259.4394271770833,77.0,99.0
299,259.4040498333333,259.847445875,75.0,112.0
300,259.9700873333333,260.19650233333334,72.0,117.0
301,260.5361248333333,260.9842378541667,70.0,122.0
302,261.38518108333335,261.57150176041665,72.0,122.0
303,261.66819983333335,261.93235066666665,67.0,122.0
304,261.95121858333334,262.17999207291666,65.0,97.0
305,262.23423733333334,262.52197306249997,63.0,92.0
306,262.51725608333334,262.80027483333333,65.0,97.0
307,262.80027483333333,263.16584071875,68.0,112.0
308,263.3663123333333,264.488953375,68.0,127.0
309,265.03140597916666,265.51017936458334,70.0,127.0
310,265.61395290625,266.5361223333333,70.0,127.0
311,266.71772603125,267.19178243749997,70.0,127.0
312,267.3309333229167,270.72479983333335,77.0,127.0
313,270.70829040625,271.4252712395833,75.0,107.0
314,271.85687483333334,276.47715592708334,75.0,127.0
