,start,end,pitch,velocity
0,2.648147883333333,4.7361106374999995,62.0,79.0
1,2.648147883333333,4.787036558333333,66.0,92.0
2,2.648147883333333,4.789351372916666,69.0,81.0
3,2.648147883333333,4.814814333333333,38.0,90.0
4,5.148147633333333,6.756943768749999,38.0,70.0
5,5.148147633333333,7.048610406249999,69.0,92.0
6,5.148147633333333,7.148147433333333,66.0,107.0
7,5.148147633333333,7.164351135416666,50.0,86.0
8,5.148147633333333,7.187499281249999,62.0,92.0
9,7.648147383333333,8.613425064583332,50.0,59.0
10,7.925925133333332,8.828702820833332,55.0,82.0
11,8.203702883333333,8.912036145833332,62.0,90.0
12,8.759258383333332,9.060184279166666,50.0,77.0
13,7.370369633333333,9.115739829166666,43.0,90.0
14,9.037036133333332,9.115739829166666,62.0,31.0
15,9.037036133333332,9.518517566666667,67.0,93.0
16,8.481480633333332,9.539350897916666,71.0,102.0
17,9.314813883333333,9.592591633333333,62.0,92.0
18,10.148147133333332,10.78472114375,52.0,86.0
19,10.425924883333332,11.03472111875,59.0,93.0
20,10.981480383333333,11.449072929166666,52.0,95.0
21,9.592591633333333,11.583332174999999,40.0,83.0
22,9.870369383333333,11.648146983333332,47.0,65.0
23,10.703702633333332,11.668980314583333,67.0,100.0
24,11.259258133333333,11.689813645833333,64.0,85.0
25,11.537035883333333,11.770832156249998,59.0,74.0
26,12.092591383333332,13.046294991666665,52.0,76.0
27,12.370369133333332,13.057869064583333,56.0,90.0
28,11.814813633333332,13.416665324999999,44.0,100.0
29,12.925924633333333,13.539350497916665,64.0,72.0
30,12.648146883333332,13.564813458333331,59.0,75.0
31,13.203702383333333,13.828702320833331,52.0,67.0
32,13.481480133333331,13.898146758333333,56.0,93.0
33,13.759257883333332,13.988424527083332,59.0,86.0
34,14.592591133333332,14.999998499999998,57.0,92.0
35,14.870368883333333,15.166665149999998,60.0,77.0
36,14.314813383333332,15.210646627083332,52.0,57.0
37,15.425924383333331,15.627313252083331,52.0,74.0
38,14.037035633333332,15.6666651,45.0,85.0
39,15.703702133333332,16.12036875833333,60.0,93.0
40,15.148146633333331,16.16897986458333,64.0,97.0
41,15.981479883333332,16.28703540833333,57.0,90.0
42,16.81481313333333,17.4861093625,50.0,74.0
43,17.092590883333333,17.840275993749998,57.0,82.0
44,16.25925763333333,18.226850029166666,38.0,78.0
45,16.537035383333333,18.42360926875,45.0,57.0
46,17.64814638333333,18.4305537125,50.0,73.0
47,18.20370188333333,18.481479633333333,57.0,83.0
48,17.925924133333332,18.481479633333333,62.0,86.0
49,17.37036863333333,18.481479633333333,66.0,112.0
50,19.31481288333333,19.581016560416664,62.0,79.0
51,18.75925738333333,19.687498031249998,54.0,75.0
52,19.037035133333333,19.84259060833333,59.0,82.0
53,19.870368383333332,20.108794285416664,54.0,44.0
54,18.481479633333333,20.166664649999998,47.0,83.0
55,19.59259063333333,20.749997925,66.0,117.0
56,20.14814613333333,20.754627554166664,62.0,93.0
57,21.259257133333332,21.858794110416664,52.0,75.0
58,21.53703488333333,22.386571835416664,59.0,77.0
59,20.70370163333333,22.78703475833333,40.0,79.0
60,20.981479383333333,22.865738454166664,47.0,41.0
61,22.09259038333333,22.872682897916665,52.0,72.0
62,22.370368133333333,22.898145858333333,64.0,92.0
63,21.814812633333332,22.90509030208333,67.0,100.0
64,22.64814588333333,22.91203474583333,59.0,82.0
65,23.47878553333333,23.84469459375,55.0,83.0
66,23.751512783333332,24.019694579166664,59.0,71.0
67,23.203701383333332,24.128785479166666,50.0,76.0
68,22.92592363333333,25.03105813125,43.0,83.0
69,24.29696728333333,25.096967216666666,50.0,50.0
70,24.56969453333333,25.110603579166664,59.0,86.0
71,24.02424003333333,25.160603574999996,62.0,107.0
72,25.66060353333333,26.00605805,55.0,88.0
73,25.38787628333333,26.281058027083333,50.0,53.0
74,25.933330783333332,26.42423983333333,62.0,83.0
75,26.47878528333333,26.740148897916665,50.0,48.0
76,25.11514903333333,26.806057983333332,43.0,83.0
77,26.751512533333333,27.251512491666666,67.0,93.0
78,26.20605803333333,27.260603399999997,71.0,117.0
79,27.024239783333332,27.306057941666666,62.0,82.0
80,27.842421533333333,28.444694210416664,52.0,72.0
81,28.115148783333332,28.51060329583333,59.0,74.0
82,28.66060328333333,28.967421439583333,52.0,69.0
83,27.29696703333333,29.156057787499996,40.0,77.0
84,27.569694283333334,29.317421410416664,47.0,52.0
85,28.933330533333333,29.412875947916667,64.0,85.0
86,29.206057783333332,29.4287850375,59.0,85.0
87,28.38787603333333,29.4287850375,67.0,99.0
88,29.751512283333334,30.701512204166665,52.0,66.0
89,30.024239533333333,30.869694008333333,56.0,93.0
90,29.47878503333333,31.01742126875,44.0,85.0
91,30.56969403333333,31.176512164583333,64.0,45.0
92,30.296966783333332,31.212875797916666,59.0,82.0
93,30.84242128333333,31.321966697916665,52.0,59.0
94,31.115148533333333,31.54923940625,56.0,89.0
95,31.38787578333333,31.621966672916663,59.0,83.0
96,32.206057533333336,32.57423932083333,57.0,72.0
97,32.47878478333333,32.7560574875,60.0,77.0
98,31.933330283333333,32.890148385416666,52.0,45.0
99,33.02423928333333,33.332067537499995,52.0,56.0
100,31.66060303333333,33.420030491666665,45.0,86.0
101,33.29966013333333,33.7765119375,60.0,102.0
102,33.57743788333333,33.86216007708333,57.0,85.0
103,32.751512033333334,33.87373415,64.0,95.0
104,34.41077113333333,35.07512291875,50.0,76.0
105,34.68854888333333,35.197808091666666,57.0,88.0
106,33.85521563333333,35.540400649999995,38.0,78.0
107,34.13299338333333,35.54965990833333,45.0,47.0
108,35.24410438333333,35.621419160416664,50.0,64.0
109,35.79965988333333,36.02882652708333,57.0,86.0
110,35.52188213333333,36.03114134166666,62.0,99.0
111,34.96632663333333,36.075122818749996,66.0,127.0
112,36.91077088333333,37.16771530208333,62.0,89.0
113,36.35521538333333,37.260307885416665,54.0,92.0
114,36.63299313333333,37.276511587499996,59.0,74.0
115,36.07743763333333,38.06123373125,47.0,88.0
116,37.46632638333333,38.25567815625,54.0,81.0
117,38.02188188333333,38.26493741458333,59.0,89.0
118,37.74410413333333,38.27419667291666,62.0,88.0
119,37.188548633333326,38.36215962708333,66.0,127.0
120,38.57743738333333,39.81586318541666,54.0,82.0
121,38.29965963333333,39.94549280208333,47.0,88.0
122,39.13299288333333,40.50567793125,62.0,40.0
123,38.85521513333333,40.51030756041666,59.0,69.0
124,39.41077063333333,40.51493718958333,66.0,83.0
125,41.077437133333326,41.767251879166665,55.0,64.0
126,41.35521488333333,41.774196322916666,57.0,50.0
127,40.79965938333333,41.77882595208333,50.0,57.0
128,40.52188163333333,42.59364068541666,43.0,73.0
129,42.18854813333333,42.71169622916666,57.0,64.0
130,41.91077038333333,42.72095548749999,50.0,61.0
131,42.466325883333326,42.75799252083333,59.0,67.0
132,41.63299263333333,42.76956659375,62.0,97.0
133,43.29965913333333,43.994103508333325,55.0,41.0
134,44.13299238333333,44.33438125208333,55.0,61.0
135,42.74410363333333,44.60521455833333,43.0,72.0
136,43.85521463333333,45.00336266666666,71.0,85.0
137,43.02188138333333,45.01030711041666,50.0,40.0
138,44.68854788333333,45.01725155416666,67.0,52.0
139,44.41077013333333,45.038084885416666,69.0,63.0
140,43.57743688333333,45.04271451458333,62.0,76.0
141,45.524676333333325,46.09307232291666,55.0,44.0
142,44.96632563333333,46.46571367708333,43.0,59.0
143,45.244103383333325,46.609581541666664,50.0,41.0
144,45.80769508333333,46.746373937499996,57.0,43.0
145,46.656751333333325,47.17326055208333,59.0,58.0
146,46.090713833333325,47.201562427083324,62.0,73.0
147,47.788826333333326,48.53410904166666,54.0,60.0
148,48.63788258333333,48.83127872916666,54.0,36.0
149,47.222788833333325,48.96335414583333,47.0,81.0
150,48.920901333333326,49.555335031249996,62.0,55.0
151,48.354863833333326,49.63552367708333,66.0,93.0
152,49.486938833333326,51.383164458333326,40.0,77.0
153,50.052976333333326,51.45863612499999,47.0,35.0
154,50.61901383333333,51.55533419791666,52.0,67.0
155,51.18505133333333,51.69684357291666,64.0,66.0
156,50.61901383333333,51.75108883333333,67.0,81.0
157,52.88316383333333,53.531748468749996,52.0,44.0
158,51.75108883333333,53.82891815625,40.0,76.0
159,52.31712633333333,54.10957841666666,47.0,50.0
160,53.44920133333333,54.969684797916656,64.0,60.0
161,52.88316383333333,55.004407016666654,67.0,89.0
162,54.01523883333333,56.06227728124999,40.0,66.0
163,55.134036633333324,56.238203189583324,52.0,51.0
164,54.57848113333333,56.286814295833324,47.0,44.0
165,55.134036633333324,57.08311051249999,67.0,89.0
166,55.68959213333332,57.11088828749999,64.0,85.0
167,56.245147633333325,57.844684510416656,40.0,72.0
168,56.80070313333332,57.886351172916655,47.0,48.0
169,57.356258633333326,58.025240047916654,52.0,56.0
170,57.91181413333332,58.553017772916654,64.0,72.0
171,57.356258633333326,58.57385110416666,67.0,93.0
172,59.022925133333324,59.897925045833325,52.0,50.0
173,58.46736963333332,59.981258370833324,45.0,77.0
174,60.134036133333325,60.726628666666656,60.0,56.0
175,59.57848063333332,60.77755458749999,64.0,96.0
176,60.68959163333332,62.14561000624999,38.0,66.0
177,61.80070263333332,62.154869264583326,50.0,78.0
178,61.245147133333326,62.196535927083325,45.0,52.0
179,62.35905333333332,62.94631723958332,57.0,96.0
180,61.80070263333332,62.99348703124999,66.0,122.0
181,62.07848038333332,63.000562499999994,62.0,79.0
182,62.92509083333332,64.4864109375,43.0,78.0
183,63.49112833333332,64.54537317708332,50.0,48.0
184,64.05716583333333,64.61612786458332,55.0,71.0
185,64.05716583333333,65.14442953124998,62.0,117.0
186,64.62320333333332,65.19395781249999,59.0,90.0
187,65.75527833333332,66.57603270833333,54.0,67.0
188,65.18924083333333,66.79065526041666,47.0,81.0
189,66.88735333333332,67.46518328124999,59.0,89.0
190,66.60433458333333,67.46990026041665,62.0,85.0
191,66.32131583333333,67.51707005208333,66.0,112.0
192,68.58546583333333,69.18688067708332,52.0,73.0
193,67.45339083333333,69.51471072916665,40.0,86.0
194,68.01942833333332,69.77886156249998,47.0,63.0
195,69.15150333333332,69.82367286458333,62.0,76.0
196,68.86848458333333,69.83546531249999,59.0,60.0
197,68.58546583333333,69.88263510416665,67.0,86.0
198,70.84961583333332,71.42037031249998,52.0,59.0
199,69.71754083333332,71.79772864583333,40.0,82.0
200,70.28357833333332,71.99820026041665,47.0,52.0
201,70.56659708333332,72.62084151041665,59.0,53.0
202,70.84961583333332,72.62555848958333,67.0,79.0
203,73.11376583333332,73.68452031249998,52.0,77.0
204,71.98169083333332,74.01706734374999,40.0,73.0
205,72.83074708333332,74.34489739583333,47.0,35.0
206,73.67980333333333,74.97461411458332,64.0,75.0
207,73.11376583333332,75.21282156249998,67.0,95.0
208,73.96282208333332,75.4958403125,59.0,43.0
209,75.37791583333332,75.63263270833332,52.0,73.0
210,75.66093458333333,76.03829291666665,64.0,79.0
211,74.24584083333332,76.05244385416665,40.0,71.0
212,74.81187833333333,76.10197213541666,47.0,54.0
213,76.22697208333332,76.52885874999998,64.0,82.0
214,75.37791583333332,76.58310401041666,67.0,100.0
215,75.94395333333333,76.61376437499999,59.0,92.0
216,77.64206583333332,77.71282052083332,57.0,32.0
217,76.50999083333332,78.17036749999998,38.0,76.0
218,77.07602833333333,78.22461276041665,45.0,41.0
219,77.64206583333332,78.37319760416665,50.0,74.0
220,78.20810333333333,78.78593328124998,57.0,74.0
221,77.92508458333333,78.82602760416665,62.0,60.0
222,77.64206583333332,78.84725401041666,66.0,102.0
223,79.34017833333333,79.72461213541666,55.0,86.0
224,79.62319708333332,80.01234786458332,57.0,72.0
225,79.05715958333332,80.03121578124998,50.0,37.0
226,78.77414083333332,80.84214328124999,43.0,81.0
227,80.18923458333333,80.93010623541664,50.0,100.0
228,80.74723588333332,81.00418030208331,57.0,102.0
229,80.46945813333332,81.00880993124998,59.0,117.0
230,79.90621583333332,81.01575437499999,62.0,127.0
231,81.58056913333331,82.04816167916665,55.0,99.0
232,81.30279138333331,82.24029128958331,50.0,89.0
233,81.85834688333331,82.42084682708331,62.0,97.0
234,82.41390238333332,82.80279123333331,50.0,102.0
235,81.02501363333332,82.81899493541665,43.0,102.0
236,82.13612463333331,83.29121711041665,71.0,112.0
237,82.96945788333332,83.29584673958331,66.0,97.0
238,82.69168013333332,83.30047636874998,67.0,96.0
239,83.80279113333332,84.47871699166664,52.0,93.0
240,84.08056888333331,84.74260585416665,55.0,83.0
241,84.63612438333331,84.97408731249999,52.0,95.0
242,83.24723563333332,85.31436505624998,40.0,93.0
243,83.52501338333332,85.36066134791665,47.0,72.0
244,84.35834663333331,85.38380949374998,64.0,99.0
245,84.91390213333331,85.40232801041665,59.0,100.0
246,85.19167988333332,85.46714281874998,55.0,97.0
247,85.74723538333332,86.68473528958332,52.0,75.0
248,86.58056863333331,86.86760564166664,64.0,72.0
249,85.46945763333332,87.16390190833332,44.0,92.0
250,86.02501313333332,87.33519818749998,56.0,100.0
251,87.41390188333331,87.65001297083332,56.0,76.0
252,86.85834638333331,87.65927222916665,52.0,76.0
253,87.13612413333331,87.69630926249998,62.0,62.0
254,86.30279088333332,87.71482777916665,59.0,82.0
255,88.25003033333331,88.60380377083331,57.0,82.0
256,88.53304908333331,88.87267158333331,59.0,75.0
257,87.96945738333332,88.90097345833331,52.0,75.0
258,89.09908658333332,89.41748267708331,52.0,89.0
259,87.69167963333331,89.42455814583332,45.0,82.0
260,89.38210533333331,89.95285981249998,60.0,100.0
261,88.81606783333332,89.96936923958332,64.0,100.0
262,89.66512408333331,89.97408621874999,57.0,93.0
263,90.51418033333331,91.12738762499998,50.0,81.0
264,90.79719908333331,91.39625543749999,57.0,82.0
265,89.94814283333332,91.60616101041666,38.0,90.0
266,90.23116158333332,91.65097231249999,45.0,55.0
267,91.36323658333332,91.80191564583332,50.0,73.0
268,91.08021783333332,92.13446267708332,66.0,117.0
269,91.64625533333331,92.15097210416666,62.0,99.0
270,91.92927408333331,92.19814189583332,57.0,95.0
271,92.77833033333332,93.19578298958332,55.0,77.0
272,93.06134908333331,93.39389611458331,57.0,89.0
273,92.49531158333332,93.45521684374998,50.0,72.0
274,93.62738658333332,93.92455627083332,50.0,92.0
275,92.21229283333332,93.95993361458332,43.0,93.0
276,93.91040533333332,94.43163153124998,59.0,99.0
277,94.19342408333331,94.46936736458332,55.0,90.0
278,93.34436783333332,94.47172585416665,62.0,107.0
279,95.04248033333332,95.65804611458331,50.0,86.0
280,95.32549908333331,95.79483851041665,57.0,89.0
281,95.89153658333332,96.22880059374998,50.0,88.0
282,94.47644283333332,96.49530991666666,38.0,96.0
283,96.17455533333332,96.60851741666664,64.0,89.0
284,94.75946158333332,96.71464944791666,45.0,74.0
285,96.45757408333331,96.77361168749998,62.0,92.0
286,95.60851783333331,96.86087580208331,66.0,122.0
287,97.30663033333332,97.97879986458332,50.0,83.0
288,97.58964908333331,98.16983752083331,57.0,90.0
289,96.74059283333331,98.42691288541664,38.0,74.0
290,97.02361158333332,98.45521476041665,45.0,77.0
291,98.15568658333332,98.61323356249999,50.0,86.0
292,98.72172408333331,98.98587491666665,57.0,93.0
293,98.43870533333332,98.98823340624998,62.0,99.0
294,97.87266783333331,98.99059189583332,66.0,127.0
295,99.57078033333332,99.96228960416664,55.0,89.0
296,99.28776158333332,100.27596871874998,50.0,88.0
297,99.85379908333331,100.30898757291665,57.0,83.0
298,100.41983658333332,100.67219496874998,50.0,58.0
299,99.00474283333331,100.67691194791665,43.0,86.0
300,100.70285533333332,101.22408153124998,59.0,89.0
301,100.13681783333331,101.23587397916666,62.0,112.0
302,100.98587408333331,101.25238340624998,55.0,83.0
303,101.83493033333332,102.46700554166665,48.0,85.0
304,102.11794908333331,102.53304324999998,55.0,78.0
305,101.26889283333331,102.82540779166665,36.0,85.0
306,101.55191158333332,102.89783767708332,43.0,51.0
307,102.68398658333331,103.03335165624999,48.0,97.0
308,102.96559466666666,103.43054780208332,60.0,88.0
309,102.40096783333331,103.43755714583332,64.0,107.0
310,103.24596841666666,103.51933282291665,55.0,96.0
311,103.52634216666665,103.85110842708332,40.0,83.0
312,103.80671591666666,104.71559415624999,44.0,89.0
313,104.08708966666666,104.91185578124998,52.0,76.0
314,104.36746341666665,105.08942582291665,56.0,95.0
315,104.64783716666666,105.22727624999999,47.0,63.0
316,105.20858466666665,105.67587424999999,52.0,78.0
317,104.64783716666666,105.72026676041665,59.0,89.0
318,105.48895841666665,105.73895834374999,56.0,89.0
319,104.92821091666666,105.75998637499998,62.0,66.0
320,106.33007966666665,106.62680855208332,57.0,93.0
321,106.61045341666666,107.00531311458332,59.0,81.0
322,106.04970591666665,107.06606076041666,52.0,67.0
323,107.17120091666665,107.46559335416666,52.0,63.0
324,105.76933216666666,107.50064007291665,45.0,88.0
325,107.45157466666666,107.92821004166666,60.0,79.0
326,106.89082716666665,107.99596703124999,64.0,102.0
327,107.73194841666665,108.02166795833332,57.0,92.0
328,108.57306966666665,109.22026573958333,50.0,86.0
329,108.85344341666665,109.54035910416665,57.0,86.0
330,109.41419091666666,109.79736837499999,50.0,93.0
331,108.01232216666665,110.14316266666665,38.0,79.0
332,109.97493841666666,110.27634019791665,64.0,72.0
333,108.29269591666666,110.31138691666665,45.0,60.0
334,109.69456466666665,110.31839626041665,57.0,89.0
335,109.13381716666666,110.40951772916665,66.0,102.0
336,110.81605966666666,111.43989126041666,50.0,67.0
337,111.09643341666666,111.63615288541665,57.0,82.0
338,111.65718091666666,111.97727428124999,50.0,82.0
339,110.25531216666666,112.34176015624999,38.0,76.0
340,112.21792841666665,112.49129282291665,64.0,82.0
341,110.53568591666665,112.50998440624998,45.0,55.0
342,111.37680716666665,112.51933019791666,66.0,127.0
343,111.93755466666666,112.55437691666666,57.0,78.0
344,113.05904966666665,113.68521770833333,50.0,76.0
345,113.33942341666665,113.84175971874998,57.0,85.0
346,112.49830216666666,114.13147926041665,38.0,74.0
347,112.77867591666666,114.19222690624999,45.0,65.0
348,113.90017091666665,114.31138574999999,50.0,82.0
349,113.61979716666666,114.66185293749999,66.0,122.0
350,114.18054466666666,114.66886228124999,62.0,92.0
351,114.46091841666666,114.72493703125,57.0,92.0
352,115.30203966666666,115.72260029166665,55.0,89.0
353,115.58241341666665,115.93755349999999,57.0,85.0
354,115.02166591666665,116.01699272916666,50.0,78.0
355,116.42494533333333,116.77164330208333,57.0,97.0
356,116.14316091666666,117.02871866666666,50.0,88.0
357,114.74129216666665,117.03579413541667,43.0,86.0
358,116.99098283333333,117.03579413541667,43.0,90.0
359,116.70796408333332,117.04286960416667,59.0,97.0
360,115.86278716666665,117.05466205208333,62.0,107.0
361,117.27400158333333,118.25749173958333,50.0,59.0
362,117.55702033333333,118.47683127083333,55.0,82.0
363,117.84003908333332,118.56130014583333,62.0,90.0
364,118.40607658333333,118.70944827916666,50.0,77.0
365,118.68630013333333,118.76500382916666,62.0,31.0
366,118.68630013333333,119.16778156666666,67.0,93.0
367,118.12305783333333,119.18861489791666,71.0,102.0
368,118.96407788333333,119.24185563333333,62.0,92.0
369,119.79741113333333,120.43398514375,52.0,86.0
370,120.07518888333333,120.68398511875,59.0,93.0
371,120.63074438333334,121.09833692916666,52.0,95.0
372,119.24185563333333,121.232596175,40.0,83.0
373,119.51963338333333,121.29741098333334,47.0,65.0
374,120.35296663333332,121.31824431458332,67.0,100.0
375,120.90852213333334,121.33907764583333,64.0,85.0
376,121.18629988333333,121.42009615625,59.0,74.0
377,121.74185538333333,122.69555899166666,52.0,76.0
378,122.01963313333333,122.70713306458333,56.0,90.0
379,121.46407763333333,123.065929325,44.0,100.0
380,122.57518863333333,123.18861449791666,64.0,72.0
381,122.29741088333333,123.21407745833334,59.0,75.0
382,122.85296638333332,123.47796632083333,52.0,67.0
383,123.13074413333332,123.54741075833333,56.0,93.0
384,123.40852188333334,123.63768852708333,59.0,86.0
385,124.24185513333333,124.64926249999999,57.0,92.0
386,124.51963288333333,124.81592915,60.0,77.0
387,123.96407738333333,124.85991062708332,52.0,57.0
388,125.07518838333333,125.27657725208333,52.0,74.0
389,123.68629963333333,125.31592909999999,45.0,85.0
390,125.35296613333333,125.76963275833333,60.0,93.0
391,124.79741063333333,125.81824386458332,64.0,97.0
392,125.63074388333332,125.93629940833333,57.0,90.0
393,126.46407713333333,127.13537336249999,50.0,74.0
394,126.74185488333333,127.48953999375,57.0,82.0
395,125.90852163333332,127.87611402916666,38.0,78.0
396,126.18629938333333,128.07287326875,45.0,57.0
397,127.29741038333333,128.0798177125,50.0,73.0
398,127.85296588333333,128.13074363333334,57.0,83.0
399,127.57518813333333,128.13074363333334,62.0,86.0
400,127.01963263333333,128.13074363333334,66.0,112.0
401,128.96407688333332,129.23028056041667,62.0,79.0
402,128.40852138333332,129.33676203125,54.0,75.0
403,128.68629913333334,129.49185460833334,59.0,82.0
404,129.51963238333332,129.75805828541667,54.0,44.0
405,128.13074363333334,129.81592865,47.0,83.0
406,129.24185463333333,130.399261925,66.0,117.0
407,129.79741013333333,130.40389155416665,62.0,93.0
408,130.90852113333332,131.50805811041667,52.0,75.0
409,131.18629888333334,132.03583583541666,59.0,77.0
410,130.35296563333333,132.43629875833332,40.0,79.0
411,130.63074338333334,132.51500245416668,47.0,41.0
412,131.74185438333333,132.52194689791665,52.0,72.0
413,132.01963213333332,132.54740985833334,64.0,92.0
414,131.46407663333332,132.55435430208334,67.0,100.0
415,132.29740988333333,132.56129874583334,59.0,82.0
416,133.13074313333334,133.50342828125,55.0,83.0
417,133.40852088333332,133.68166900416665,59.0,71.0
418,132.85296538333333,133.79278010416667,50.0,76.0
419,132.57518763333331,134.71176149375,43.0,83.0
420,133.96407638333332,134.77889111666667,50.0,50.0
421,134.24185413333333,134.79278000416667,59.0,86.0
422,133.68629863333334,134.843705925,62.0,107.0
423,135.35296513333333,135.70481695,55.0,88.0
424,135.07518738333334,135.98490951458334,50.0,53.0
425,135.63074288333334,136.13074283333333,62.0,83.0
426,136.18629838333334,136.45250206041666,50.0,48.0
427,134.79740963333333,136.51963168333333,43.0,83.0
428,136.46407613333332,136.97333534166665,67.0,93.0
429,135.90852063333332,136.9825946,71.0,117.0
430,136.74185388333333,137.02889089166666,62.0,82.0
431,137.5724935333333,138.17476621041664,52.0,72.0
432,137.8452207833333,138.2406752958333,59.0,74.0
433,138.3906752833333,138.69749343958333,52.0,69.0
434,137.01963163333332,138.88612978749998,40.0,77.0
435,137.29740938333333,139.04749341041665,47.0,52.0
436,138.6634025333333,139.14294794791664,64.0,85.0
437,138.9361297833333,139.15885703749998,59.0,85.0
438,138.1179480333333,139.15885703749998,67.0,99.0
439,139.48158428333332,140.43158420416665,52.0,66.0
440,139.75431153333332,140.59976600833332,56.0,93.0
441,139.20885703333332,140.74749326875,44.0,85.0
442,140.2997660333333,140.9065841645833,64.0,45.0
443,140.02703878333332,140.94294779791664,59.0,82.0
444,140.5724932833333,141.05203869791666,52.0,59.0
445,140.8452205333333,141.27931140624997,56.0,89.0
446,141.1179477833333,141.35203867291665,59.0,83.0
447,141.93882313333333,142.31382309583333,57.0,72.0
448,142.2166008833333,142.49900826249998,60.0,77.0
449,141.6634022833333,142.63558232291666,52.0,45.0
450,142.77215638333334,143.08234153749999,52.0,56.0
451,141.3906750333333,143.17030449166666,45.0,86.0
452,143.04993413333332,143.5267859375,60.0,102.0
453,143.32771188333334,143.61243407708332,57.0,85.0
454,142.49437863333333,143.62400814999998,64.0,95.0
455,144.16104513333332,144.82539691875,50.0,76.0
456,144.43882288333333,144.94808209166666,57.0,88.0
457,143.60548963333332,145.29067465,38.0,78.0
458,143.88326738333333,145.29993390833332,45.0,47.0
459,144.99437838333333,145.37169316041667,50.0,64.0
460,145.54993388333332,145.77910052708333,57.0,86.0
461,145.27215613333334,145.78141534166667,62.0,99.0
462,144.71660063333331,145.82539681875,66.0,127.0
463,146.66104488333332,146.91798930208333,62.0,89.0
464,146.10548938333332,147.01058188541666,54.0,92.0
465,146.38326713333333,147.0267855875,59.0,74.0
466,145.82771163333334,147.81150773125,47.0,88.0
467,147.21660038333331,148.00595215625,54.0,81.0
468,147.7721558833333,148.01521141458332,59.0,89.0
469,147.49437813333333,148.02447067291666,62.0,88.0
470,146.93882263333333,148.11243362708333,66.0,127.0
471,148.32771138333334,149.56613718541666,54.0,82.0
472,148.04993363333332,149.6957668020833,47.0,88.0
473,148.88326688333333,150.25595193125,62.0,40.0
474,148.60548913333332,150.26058156041665,59.0,69.0
475,149.16104463333332,150.26521118958334,66.0,83.0
476,150.82771113333334,151.51752587916667,55.0,64.0
477,151.10548888333332,151.52447032291667,57.0,50.0
478,150.54993338333333,151.52909995208333,50.0,57.0
479,150.2721556333333,152.34391468541665,43.0,73.0
480,151.93882213333333,152.46197022916667,57.0,64.0
481,151.66104438333332,152.47122948749998,50.0,61.0
482,152.21659988333332,152.50826652083333,59.0,67.0
483,151.38326663333333,152.51984059375,62.0,97.0
484,153.04993313333333,153.74437750833332,55.0,41.0
485,153.88326638333334,154.08465525208334,55.0,61.0
486,152.49437763333333,154.35548855833332,43.0,72.0
487,153.60548863333332,154.75363666666667,71.0,85.0
488,152.7721553833333,154.76058111041667,50.0,40.0
489,154.43882188333333,154.76752555416667,67.0,52.0
490,154.16104413333332,154.78835888541667,69.0,63.0
491,153.32771088333334,154.79298851458333,62.0,76.0
492,155.2721551333333,155.83002544791665,55.0,44.0
493,154.71659963333332,156.19576615208334,43.0,59.0
494,154.99437738333333,156.33696984166664,50.0,41.0
495,155.54993288333333,156.47122908749998,57.0,43.0
496,156.38326613333334,156.89021052708333,59.0,58.0
497,155.8277106333333,156.91798830208333,62.0,73.0
498,157.49437713333333,158.22585854166667,54.0,60.0
499,158.32771038333334,158.51752517916665,54.0,36.0
500,156.93882163333333,158.64715479583333,47.0,81.0
501,158.60548813333332,159.22817325625,62.0,55.0
502,158.04993263333333,159.30687695208331,66.0,93.0
503,159.16104363333332,161.0221545583333,40.0,77.0
504,159.71659913333332,161.09622862499998,47.0,35.0
505,160.27215463333332,161.19113602291665,52.0,67.0
506,160.8277101333333,161.33002489791664,64.0,66.0
507,160.27215463333332,161.38326563333334,67.0,81.0
508,162.50765383333334,163.15623846875,52.0,44.0
509,161.38326563333334,163.45340815625,40.0,76.0
510,161.94161633333334,163.73406841666667,47.0,50.0
511,163.07369133333333,164.60435107291667,64.0,60.0
512,162.50765383333334,164.63972841666666,67.0,89.0
513,163.63972883333332,165.71755815625,40.0,66.0
514,164.77180383333334,165.89680336458332,52.0,51.0
515,164.20576633333334,165.94633164583334,47.0,44.0
516,164.77180383333334,166.7576520625,67.0,89.0
517,165.33784133333333,166.7859539375,64.0,85.0
518,165.90387883333332,167.53359513541668,40.0,72.0
519,166.46991633333334,167.57604794791666,47.0,48.0
520,167.03595383333334,167.71755732291666,52.0,56.0
521,167.60199133333333,168.25529294791667,64.0,72.0
522,167.03595383333334,168.27651935416665,67.0,93.0
523,168.73406633333332,169.62557539583332,52.0,50.0
524,168.16802883333332,169.71048102083333,45.0,77.0
525,169.86614133333333,170.46991466666665,60.0,56.0
526,169.30010383333334,170.5218014375,64.0,96.0
527,170.43217883333332,171.91566878125,38.0,66.0
528,171.56425383333334,171.92510273958334,50.0,78.0
529,170.99821633333332,171.96755555208333,45.0,52.0
530,172.13029133333333,172.71755523958333,57.0,96.0
531,171.56425383333334,172.76472503125,66.0,122.0
532,171.84727258333334,172.77180049999998,62.0,79.0
533,172.69632883333333,174.2576489375,43.0,78.0
534,173.26236633333332,174.31661117708333,50.0,48.0
535,173.82840383333334,174.38736586458333,55.0,71.0
536,173.82840383333334,174.91566753125,62.0,117.0
537,174.39444133333333,174.96519581249999,59.0,90.0
538,175.52651633333332,176.34727070833333,54.0,67.0
539,174.96047883333333,176.56189326041667,47.0,81.0
540,176.65859133333333,177.23642128125,59.0,89.0
541,176.37557258333334,177.24113826041668,62.0,85.0
542,176.09255383333334,177.28830805208332,66.0,112.0
543,178.35670383333334,178.95811867708332,52.0,73.0
544,177.22462883333333,179.28594872916665,40.0,86.0
545,177.79066633333332,179.5500995625,47.0,63.0
546,178.92274133333333,179.59491086458334,62.0,76.0
547,178.63972258333334,179.6067033125,59.0,60.0
548,178.35670383333334,179.65387310416668,67.0,86.0
549,180.62085383333334,181.1916083125,52.0,59.0
550,179.48877883333333,181.5689666458333,40.0,82.0
551,180.05481633333332,181.76943826041668,47.0,52.0
552,180.33783508333332,182.39207951041666,59.0,53.0
553,180.62085383333334,182.39679648958332,67.0,79.0
554,182.88500383333331,183.4557583125,52.0,77.0
555,181.75292883333333,183.78830534374998,40.0,73.0
556,182.60198508333332,184.11613539583334,47.0,35.0
557,183.45104133333334,184.74585211458333,64.0,75.0
558,182.88500383333331,184.9840595625,67.0,95.0
559,183.73406008333333,185.2670783125,59.0,43.0
560,185.14915383333334,185.40387070833333,52.0,73.0
561,185.43217258333334,185.80953091666666,64.0,79.0
562,184.01707883333333,185.82368185416667,40.0,71.0
563,184.58311633333332,185.87321013541666,47.0,54.0
564,185.99821008333333,186.30009675,64.0,82.0
565,185.14915383333334,186.35434201041667,67.0,100.0
566,185.71519133333334,186.385002375,59.0,92.0
567,187.40002663333334,187.46947107083335,57.0,32.0
568,186.28122883333333,187.91854510000002,38.0,76.0
569,186.84447113333334,187.97178583541668,45.0,41.0
570,187.40002663333334,188.11761915416668,50.0,74.0
571,187.95558213333334,188.52271170625,57.0,74.0
572,187.67780438333335,188.56206355416668,62.0,60.0
573,187.40002663333334,188.5828968854167,66.0,102.0
574,189.06807766666665,189.44891867708333,55.0,86.0
575,189.34845141666665,189.73396532291667,57.0,72.0
576,188.78891538333335,189.75265690625,50.0,37.0
577,188.51113763333333,190.56574078124999,43.0,81.0
578,189.90919891666667,190.65452580208333,50.0,100.0
579,190.46994641666666,190.72929213541667,57.0,102.0
580,190.18957266666666,190.73396503125,59.0,117.0
581,189.62882516666667,190.740974375,62.0,127.0
582,191.31106766666667,191.78303014583332,55.0,99.0
583,191.03069391666665,191.97695532291667,50.0,89.0
584,191.59144141666667,192.15919826041667,62.0,97.0
585,192.15218891666666,192.54471216666667,50.0,102.0
586,190.75032016666665,192.56106730208333,43.0,102.0
587,191.87181516666666,193.03770267708333,71.0,112.0
588,192.71293641666665,193.04237557291665,66.0,97.0
589,192.43256266666666,193.04704846875,67.0,96.0
590,193.55405766666667,194.23630045833332,52.0,93.0
591,193.83443141666666,194.50265552083331,55.0,83.0
592,194.39517891666665,194.7363003125,52.0,95.0
593,192.99331016666667,195.07975815625,40.0,93.0
594,193.27368391666667,195.12648711458334,47.0,72.0
595,194.11480516666666,195.14985159375,64.0,99.0
596,194.67555266666668,195.16854317708334,59.0,100.0
597,194.95592641666667,195.23396371875,55.0,97.0
598,195.51667391666666,196.46293532291665,52.0,75.0
599,196.35779516666668,196.64751470833332,64.0,72.0
600,195.23630016666667,196.94658004166666,44.0,92.0
601,195.79704766666666,197.1194771875,56.0,100.0
602,197.19891641666666,197.43723410416666,56.0,76.0
603,196.63816891666667,197.44657989583334,52.0,76.0
604,196.91854266666667,197.48396306249998,62.0,62.0
605,196.07742141666665,197.50265464583333,59.0,82.0
606,198.04003766666665,198.39050485416666,57.0,82.0
607,198.32041141666667,198.65685991666666,59.0,75.0
608,197.75966391666665,198.68489729166666,52.0,75.0
609,198.88115891666666,199.19657938541667,52.0,89.0
610,197.47929016666666,199.20358872916665,45.0,82.0
611,199.16153266666666,199.7269530625,60.0,100.0
612,198.60078516666667,199.74330819791666,64.0,100.0
613,199.44190641666665,199.74798109374998,57.0,93.0
614,200.28302766666667,200.890504125,50.0,81.0
615,200.56340141666666,201.1568591875,57.0,82.0
616,199.72228016666665,201.36480305208332,38.0,90.0
617,200.00265391666667,201.4091955625,45.0,55.0
618,201.12414891666666,201.55872822916666,50.0,73.0
619,200.84377516666666,201.88816738541666,66.0,117.0
620,201.40452266666665,201.90452252083332,62.0,99.0
621,201.68489641666667,201.95125147916667,57.0,95.0
622,202.52601766666666,202.93956894791665,55.0,77.0
623,202.80639141666666,203.13583057291666,57.0,89.0
624,202.24564391666667,203.19657821875,50.0,72.0
625,203.36713891666665,203.66153135416667,50.0,92.0
626,201.96527016666667,203.69657807291665,43.0,93.0
627,203.64751266666667,204.16386765625,59.0,99.0
628,203.92788641666667,204.20125082291668,55.0,90.0
629,203.08676516666665,204.20358727083334,62.0,107.0
630,204.76900766666665,205.37882057291665,50.0,86.0
631,205.04938141666668,205.51433455208334,57.0,89.0
632,205.61012891666667,205.94500385,50.0,88.0
633,204.20826016666666,206.21001333333334,38.0,96.0
634,205.89106386666668,206.32258373333335,64.0,89.0
635,204.48863391666666,206.42811848333335,45.0,74.0
636,206.17248986666667,206.4867489,62.0,92.0
637,205.32975516666667,206.57352191666666,66.0,122.0
638,207.01676786666667,207.68515461666667,50.0,83.0
639,207.29819386666668,207.87511716666668,57.0,90.0
640,206.45391586666668,208.13074578333334,38.0,74.0
641,206.73534186666666,208.15888838333333,45.0,77.0
642,207.86104586666667,208.3160179,50.0,86.0
643,208.42389786666666,208.68656213333333,57.0,93.0
644,208.14247186666668,208.68890735,62.0,99.0
645,207.57961986666666,208.69125256666666,66.0,127.0
646,209.26817586666667,209.65748183333335,55.0,89.0
647,208.98674986666668,209.96939565,50.0,88.0
648,209.54960186666668,210.00222868333333,57.0,83.0
649,210.11245386666667,210.36339205000002,50.0,58.0
650,208.70532386666667,210.36808248333332,43.0,86.0
651,210.39387986666668,210.91217275,59.0,89.0
652,209.83102786666666,210.92389883333334,62.0,112.0
653,210.67530586666666,210.94031535,55.0,83.0
654,211.51958386666666,212.14810193333335,48.0,85.0
655,211.80100986666667,212.21376800000002,55.0,78.0
656,210.95673186666667,212.50457486666667,36.0,85.0
657,211.23815786666668,212.57727658333334,43.0,51.0
658,212.36386186666667,212.71329915,48.0,97.0
659,212.64528786666668,213.11198598333334,60.0,88.0
660,212.08243586666666,213.11902163333335,64.0,107.0
661,212.92671386666666,213.20110421666666,55.0,96.0
662,213.20813986666667,213.53412498333333,40.0,83.0
663,213.48956586666668,214.40185515000002,44.0,89.0
664,213.77099186666666,214.59885335,52.0,76.0
665,214.05241786666667,214.77708981666666,56.0,95.0
666,214.33384386666668,214.9154576,47.0,63.0
667,214.89669586666668,215.3657392,52.0,78.0
668,214.33384386666668,215.41029831666668,59.0,89.0
669,215.17812186666666,215.42906005,56.0,89.0
670,214.61526986666667,215.450167,62.0,66.0
671,216.02239986666666,216.32024238333332,57.0,93.0
672,216.30382586666667,216.70016748333333,59.0,81.0
673,215.74097386666668,216.76114311666666,52.0,67.0
674,216.86667786666666,217.16217516666666,52.0,63.0
675,215.45954786666667,217.19735341666666,45.0,88.0
676,217.14810386666667,217.62652806666668,60.0,79.0
677,216.58525186666668,217.69453935,64.0,102.0
678,217.42952986666666,217.72033673333334,57.0,92.0
679,218.27380786666666,218.92343288333333,50.0,86.0
680,218.55523386666667,219.24472756666668,57.0,86.0
681,219.11808586666666,219.5027014,50.0,93.0
682,217.71095586666667,219.84979346666668,38.0,79.0
683,219.68093786666668,219.98347081666668,64.0,72.0
684,217.99238186666668,220.01864906666668,45.0,60.0
685,219.39951186666667,220.02568471666666,57.0,89.0
686,218.83665986666668,220.11714816666668,66.0,102.0
687,220.52521586666666,221.15138871666667,50.0,67.0
688,220.80664186666667,221.34838691666667,57.0,82.0
689,221.36949386666666,221.69078855,50.0,82.0
690,219.96236386666666,222.05664235,38.0,76.0
691,221.93234586666668,222.20673621666668,64.0,82.0
692,220.24378986666667,222.22549795,45.0,55.0
693,221.08806786666668,222.23487881666668,66.0,127.0
694,221.65091986666667,222.27005706666668,57.0,78.0
695,222.77662386666668,223.40514193333334,50.0,76.0
696,223.05804986666666,223.56227145,57.0,85.0
697,222.21377186666666,223.85307831666668,38.0,74.0
698,222.49519786666667,223.91405395,45.0,65.0
699,223.62090186666666,224.03366,50.0,82.0
700,223.33947586666667,224.3854425,66.0,122.0
701,223.90232786666667,224.39247815,62.0,92.0
702,224.18375386666668,224.44876335,57.0,92.0
703,225.02803186666668,225.45017086666667,55.0,89.0
704,225.30945786666666,225.6659308,57.0,85.0
705,224.74660586666667,225.74566816666666,50.0,78.0
706,226.15458533333336,226.50128330208335,57.0,97.0
707,225.87230986666668,226.75835866666668,50.0,88.0
708,224.46517986666666,226.76543413541668,43.0,86.0
709,226.43760408333335,226.7725096041667,59.0,97.0
710,225.59088386666667,226.78430205208335,62.0,107.0
711,226.72062283333335,226.82675486458334,60.0,97.0
712,226.72062283333335,226.86920767708335,63.0,95.0
713,226.72062283333335,227.09798116666667,56.0,96.0
714,226.72062283333335,227.11213210416668,44.0,107.0
715,227.00364158333335,227.13100002083334,60.0,24.0
716,227.28666033333334,227.40222632291668,60.0,99.0
717,227.28666033333334,227.41166028125002,63.0,90.0
718,227.28666033333334,227.42581121875003,56.0,88.0
719,227.28666033333334,227.46354705208336,44.0,107.0
720,227.56967908333334,227.82439595833335,60.0,96.0
721,227.56967908333334,227.82675444791667,63.0,89.0
722,227.56967908333334,227.83382991666667,56.0,88.0
723,227.56967908333334,227.87392423958335,44.0,89.0
724,228.13571658333333,228.22062220833334,60.0,97.0
725,228.13571658333333,228.23477314583334,63.0,97.0
726,228.13571658333333,228.2512825729167,56.0,92.0
727,228.13571658333333,228.27250897916667,44.0,102.0
728,228.41873533333336,228.58618809375002,56.0,97.0
729,228.41873533333336,228.62864090625,60.0,117.0
730,228.41873533333336,228.63807486458336,63.0,102.0
731,228.41873533333336,228.80552762500002,44.0,127.0
732,228.70175408333336,228.80552762500002,44.0,88.0
733,228.70175408333336,228.9729803854167,60.0,93.0
734,228.70175408333336,228.9800558541667,56.0,88.0
735,228.98477283333335,229.00128226041667,44.0,102.0
736,228.70175408333336,229.00128226041667,63.0,90.0
737,229.55081033333335,230.02722522916667,56.0,99.0
738,229.26779158333335,230.22297986458335,51.0,89.0
739,229.83382908333334,230.40694205208334,63.0,97.0
740,230.39986658333333,230.79609283333335,51.0,102.0
741,230.11684783333334,231.29373413541668,72.0,112.0
742,230.96590408333336,231.29845111458334,67.0,97.0
743,230.68288533333336,231.30316809375,68.0,96.0
744,231.81496033333335,232.50363929166667,53.0,93.0
745,232.09797908333334,232.7725071041667,56.0,83.0
746,232.66401658333334,233.0083560625,53.0,95.0
747,231.24892283333335,233.35505403125,41.0,93.0
748,231.53194158333335,233.40222382291668,48.0,72.0
749,232.38099783333334,233.42580871875,65.0,99.0
750,232.94703533333336,233.44467663541667,60.0,100.0
751,233.23005408333336,233.51071434375,56.0,97.0
752,233.79609158333335,234.75127986458335,53.0,75.0
753,234.64514783333334,234.93760054166668,65.0,72.0
754,233.51307283333335,235.23948720833334,45.0,92.0
755,234.07911033333335,235.4140154375,57.0,100.0
756,235.49420408333336,235.73477002083334,57.0,76.0
757,234.92816658333334,235.74420397916668,53.0,76.0
758,235.21118533333333,235.7819398125,63.0,62.0
759,234.36212908333334,235.80080772916668,60.0,82.0
760,236.34326033333335,236.69703377083334,58.0,82.0
761,236.62627908333334,236.96590158333333,60.0,75.0
762,236.06024158333335,236.99420345833335,53.0,75.0
763,237.19231658333334,237.51071267708335,53.0,89.0
764,235.77722283333335,237.51778814583335,46.0,82.0
765,237.47533533333333,238.0460898125,61.0,100.0
766,236.90929783333334,238.06259923958334,65.0,100.0
767,237.75835408333336,238.06731621875002,58.0,93.0
768,238.60741033333335,239.22061762500002,51.0,81.0
769,238.89042908333334,239.4894854375,58.0,82.0
770,238.04137283333336,239.6993910104167,39.0,90.0
771,238.32439158333335,239.74420231250002,46.0,55.0
772,239.45646658333334,239.89514564583334,51.0,73.0
773,239.17344783333334,240.22769267708335,67.0,117.0
774,239.73948533333333,240.24420210416667,63.0,99.0
775,240.02250408333333,240.29137189583335,58.0,95.0
776,240.87156033333335,241.28901298958334,56.0,77.0
777,241.15457908333335,241.48712611458333,58.0,89.0
778,240.58854158333335,241.54844684375,51.0,72.0
779,241.72061658333334,242.01778627083334,51.0,92.0
780,240.30552283333336,242.05316361458335,44.0,93.0
781,242.00363533333334,242.52486153125,60.0,99.0
782,242.28665408333336,242.56259736458335,56.0,90.0
783,241.43759783333334,242.56495585416667,63.0,107.0
784,243.13571033333335,243.75127611458333,51.0,86.0
785,243.41872908333335,243.88806851041667,58.0,89.0
786,243.98476658333334,244.32203059375001,51.0,88.0
787,242.56967283333336,244.5885399166667,39.0,96.0
788,244.26778533333334,244.70174741666668,65.0,89.0
789,242.85269158333335,244.8078794479167,46.0,74.0
790,244.55080408333333,244.86684168750003,63.0,92.0
791,243.70174783333334,244.95410580208335,67.0,122.0
792,245.39986033333335,246.07202986458336,51.0,83.0
793,245.68287908333335,246.26306752083335,58.0,90.0
794,244.83382283333333,246.52014288541667,39.0,74.0
795,245.11684158333335,246.5484447604167,46.0,77.0
796,246.24891658333334,246.7064635625,51.0,86.0
797,246.81495408333333,247.07910491666667,58.0,93.0
798,246.53193533333334,247.08146340625,63.0,99.0
799,245.96589783333334,247.08382189583335,67.0,127.0
800,247.66121513333334,248.04547435416669,56.0,89.0
801,247.38099158333335,248.35334469375002,51.0,88.0
802,247.93899288333333,248.38575209791668,58.0,83.0
803,248.49454838333335,248.74223354375002,51.0,58.0
804,247.09797283333336,248.74686317291668,44.0,86.0
805,248.77232613333334,249.28390015625,60.0,89.0
806,248.21677063333334,249.29547422916667,63.0,112.0
807,249.05010388333335,249.31167793125002,56.0,83.0
808,249.88343713333333,250.50380744166668,49.0,85.0
809,250.16121488333334,250.56862225,56.0,78.0
810,249.32788163333333,250.85565925833333,37.0,85.0
811,249.60565938333335,250.9274185104167,44.0,51.0
812,250.71677038333334,251.06167775625,49.0,97.0
813,250.99454813333335,251.45519623541668,61.0,88.0
814,250.43899263333333,251.46214067916668,65.0,107.0
815,251.27232588333334,251.54315918958335,56.0,96.0
816,251.55010363333335,251.87186286041668,41.0,83.0
817,251.82788138333333,252.72834425625,45.0,89.0
818,252.10565913333335,252.92278868125,53.0,76.0
819,252.38343688333333,253.09871458958335,57.0,95.0
820,252.66121463333334,253.23528865,48.0,63.0
821,253.21677013333334,253.67973305,53.0,78.0
822,252.66121463333334,253.72371452708333,60.0,89.0
823,253.49454788333333,253.74223304375002,57.0,89.0
824,252.93899238333333,253.763066375,63.0,66.0
825,254.32788113333334,254.62186258541666,58.0,93.0
826,254.60565888333335,254.99686254791666,60.0,81.0
827,254.05010338333335,255.05704772708333,53.0,67.0
828,255.16121438333334,255.45593827083331,53.0,63.0
829,253.77232563333334,255.49131561458333,46.0,88.0
830,255.44178733333334,255.92291920833333,61.0,79.0
831,254.88343663333333,255.99131540624998,65.0,102.0
832,255.72480608333333,256.0172587916667,58.0,92.0
833,256.57386233333335,257.22716394791667,51.0,86.0
834,256.85688108333335,257.55027702083333,58.0,86.0
835,257.42291858333334,257.809710875,51.0,93.0
836,256.0078248333333,258.15876733333334,39.0,79.0
837,257.98895608333333,258.2932012395833,65.0,72.0
838,256.2908435833333,258.32857858333335,46.0,60.0
839,257.70593733333334,258.3356540520833,58.0,89.0
840,257.13989983333335,258.42763514583334,67.0,102.0
841,258.8380123333333,259.4677290520833,51.0,67.0
842,259.1210310833333,259.66584217708333,58.0,82.0
843,259.6870685833333,260.01018165625,51.0,82.0
844,258.27197483333333,260.37810603125,39.0,76.0
845,260.2531060833333,260.52904936458333,65.0,82.0
846,258.5549935833333,260.54791728124997,46.0,55.0
847,259.4040498333333,260.55735123958334,67.0,127.0
848,259.9700873333333,260.5927285833333,58.0,78.0
849,261.10216233333335,261.73423754166663,51.0,76.0
850,261.38518108333335,261.89225634375,58.0,85.0
851,260.5361248333333,262.18470905208335,39.0,74.0
852,260.8191435833333,262.24602978125,46.0,65.0
853,261.95121858333334,262.36631275,51.0,82.0
854,261.66819983333335,262.7200861875,67.0,122.0
855,262.23423733333334,262.72716165625,63.0,92.0
856,262.51725608333334,262.78376540625,58.0,92.0
857,263.3663123333333,263.7908404583333,56.0,89.0
858,263.6493310833333,264.0078215,58.0,85.0
859,263.08329358333333,264.0880101458333,51.0,78.0
860,264.4983873333333,264.8450853020833,58.0,97.0
861,262.80027483333333,265.0644248333333,44.0,86.0
862,264.2153685833333,265.0644248333333,51.0,88.0
863,264.7814060833333,265.0644248333333,60.0,97.0
864,263.9323498333333,265.0644248333333,63.0,107.0
865,265.08093426041665,267.0880088958333,55.0,100.0
866,265.07621728124997,267.10923530208333,61.0,127.0
867,265.0738587916667,267.11395228124996,58.0,127.0
868,265.07150030208334,267.14225415625,43.0,83.0
869,267.2861220208333,269.1634797291667,58.0,112.0
870,267.27904655208334,269.16583821874997,61.0,107.0
871,267.29319748958335,269.38046077083334,55.0,92.0
872,267.3002729583333,269.43942301041665,43.0,93.0
873,269.57385691666667,270.6210262916667,56.0,100.0
874,269.57621540625,270.62338478124997,53.0,93.0
875,269.58093238541665,270.6540451458333,60.0,79.0
876,269.583290875,270.72479983333335,41.0,99.0
877,270.68706399999996,271.24130905208335,46.0,112.0
878,270.68234702083333,271.33093165625,58.0,100.0
879,270.69413946875,271.34508259375,62.0,81.0
880,270.6894224895833,271.366309,65.0,72.0
881,271.81678051041666,275.7979109270833,63.0,117.0
882,271.82385597916664,275.80262790625,66.0,117.0
883,271.82149748958335,275.894609,59.0,93.0
884,271.82621446875,275.90640144791666,47.0,117.0
885,276.38281634375,278.4724381145833,63.0,122.0
886,276.38517483333334,278.47479660416667,60.0,127.0
887,276.375740875,278.4795135833333,56.0,117.0
888,276.3875333229167,278.5526267604167,44.0,117.0
889,278.61630597916667,280.5313995208333,60.0,76.0
890,278.6210229583333,280.55734290624997,63.0,58.0
891,278.611589,280.74130509375,56.0,73.0
892,278.6139474895833,280.81677676041664,44.0,65.0
893,280.88045597916664,281.30734259375,44.0,117.0
894,280.875739,281.3097010833333,60.0,96.0
895,280.8780974895833,281.31205957291667,63.0,97.0
896,280.86866353125,281.3262105104167,56.0,107.0
897,281.42526707291665,284.43941676041663,51.0,83.0
898,281.4323425416667,284.4441337395833,60.0,102.0
899,281.4276255625,284.4559261875,44.0,93.0
900,281.42998405208334,284.470077125,56.0,102.0
901,281.4323425416667,284.4795110833333,63.0,102.0
