,start,end,pitch,velocity
0,1.6177476375000002,1.79981218125,66.0,111.0
1,1.8351381375,2.076079275,63.0,92.0
2,2.2699191375,2.4130345500000003,66.0,102.0
3,2.4873096375,2.7518014125000003,63.0,114.0
4,2.9220906375,3.213756225,70.0,105.0
5,3.3568716375000003,3.9927388500000003,68.0,105.0
6,5.095995637500001,5.249980575,68.0,97.0
7,5.3133861375,5.49726226875,61.0,105.0
8,5.7481671375,5.859579768750001,68.0,97.0
9,5.9655576375,6.1612090875000005,61.0,111.0
10,6.4003386375,6.667547793750001,71.0,102.0
11,6.8351196375,7.4918201062500005,70.0,100.0
12,8.5742436375,8.75630818125,66.0,111.0
13,8.791634137500001,9.032575275000001,63.0,92.0
14,9.2264151375,9.36953055,66.0,102.0
15,9.4438056375,9.7082974125,63.0,114.0
16,9.8785866375,10.170252225,70.0,105.0
17,10.3133676375,10.94923485,68.0,105.0
18,11.6177106375,11.7264058875,68.0,102.0
19,11.8351011375,11.93383265625,66.0,94.0
20,12.052491637500001,12.14941156875,65.0,109.0
21,12.2698821375,12.59143891875,65.0,99.0
22,12.7046631375,12.837814818750001,65.0,93.0
23,12.922053637500001,13.19832073125,66.0,97.0
24,13.3568346375,13.639442287500001,65.0,105.0
25,13.791615637500001,14.316976012500001,63.0,105.0
26,15.5307396375,15.63037695,66.0,102.0
27,15.7481301375,15.8423326875,66.0,105.0
28,15.965520637500001,16.0597231875,66.0,100.0
29,16.1829111375,16.27983106875,66.0,102.0
30,16.4003016375,16.701025162500002,66.0,105.0
31,16.8350826375,17.162074181250002,63.0,102.0
32,17.269863637500002,17.7082678125,66.0,105.0
33,19.008987637500002,19.112248125,61.0,102.0
34,19.2263781375,19.3205806875,61.0,89.0
35,19.4437686375,19.5343480125,61.0,97.0
36,19.6611591375,19.75807906875,61.0,94.0
37,19.8785496375,20.127642918750002,61.0,108.0
38,20.313330637500002,20.5814455875,63.0,105.0
39,20.748111637500003,21.35408765625,61.0,111.0
40,22.4872356375,22.582343981250002,56.0,105.0
41,22.7046261375,22.7952055125,56.0,102.0
42,22.9220166375,23.01893656875,56.0,111.0
43,23.1394071375,23.2481023875,56.0,100.0
44,23.3567976375,23.64031108125,56.0,111.0
45,23.791578637500002,24.0886789875,58.0,97.0
46,24.2263596375,24.655705875000002,56.0,108.0
47,25.9654836375,26.0560630125,56.0,114.0
48,26.1828741375,26.424721068750003,56.0,105.0
49,26.6176551375,26.74174888125,56.0,111.0
50,26.835045637500002,27.12308805,61.0,102.0
51,27.269826637500003,27.5669269875,59.0,105.0
52,27.7046076375,28.52253939375,58.0,108.0
53,29.2263411375,29.44192005,58.0,114.0
54,29.4437316375,29.54336895,66.0,102.0
55,29.6611221375,29.7553246875,66.0,105.0
56,29.878512637500002,29.9727151875,66.0,100.0
57,30.095903137500002,30.192823068750002,66.0,102.0
58,30.313293637500003,30.6140171625,66.0,105.0
59,30.7480746375,31.07506618125,63.0,102.0
60,31.1828556375,31.6212598125,66.0,105.0
61,32.9219796375,33.025240125,61.0,102.0
62,33.1393701375,33.2335726875,61.0,89.0
63,33.3567606375,33.4473400125,61.0,97.0
64,33.5741511375,33.67107106875,61.0,94.0
65,33.7915416375,34.04063491875,61.0,108.0
66,34.226322637500004,34.4944375875,63.0,105.0
67,34.6611036375,35.267079656250004,61.0,111.0
68,36.4002276375,36.49533598125,56.0,105.0
69,36.6176181375,36.7081975125,56.0,102.0
70,36.8350086375,36.93192856875,56.0,111.0
71,37.052399137500004,37.1610943875,56.0,100.0
72,37.269789637500004,37.55330308125,56.0,111.0
73,37.704570637500005,38.0016709875,58.0,97.0
74,38.1393516375,38.568697875000005,56.0,108.0
75,39.8784756375,39.963620250000005,58.0,111.0
76,40.0958661375,40.18101075,58.0,108.0
77,40.313256637500004,40.41017656875,58.0,111.0
78,40.530647137500004,40.648400325000004,58.0,111.0
79,40.748037637500005,41.003471475000005,66.0,105.0
80,41.1828186375,41.474484225000005,65.0,105.0
81,41.6175996375,43.42646975625,63.0,105.0
82,45.0958476375,45.18099225,63.0,111.0
83,45.3132381375,45.49711426875,63.0,102.0
84,45.7480191375,45.84493906875,63.0,105.0
85,45.9654096375,46.25345205,63.0,102.0
86,46.4001906375,46.6827982875,70.0,102.0
87,46.834971637500004,47.3422161375,68.0,105.0
88,48.5740956375,48.6682981875,68.0,102.0
89,48.7914861375,48.8856886875,68.0,92.0
90,49.0088766375,49.10851395,68.0,97.0
91,49.2262671375,49.33767976875,68.0,100.0
92,49.4436576375,49.71992473125,73.0,111.0
93,49.878438637500004,50.196372243750005,71.0,102.0
94,50.313219637500005,51.0342314625,70.0,105.0
95,52.0523436375,52.15198095,63.0,94.0
96,52.2697341375,52.36665406875,63.0,97.0
97,52.4871246375,52.58766774375,63.0,100.0
98,52.7045151375,52.8132103875,63.0,97.0
99,52.921905637500004,53.19545535,63.0,97.0
100,53.356686637500005,53.669185481250004,70.0,97.0
101,53.791467637500006,54.420994293750006,68.0,100.0
102,55.5305916375,55.62751156875,68.0,102.0
103,55.7479821375,55.8385615125,68.0,89.0
104,55.9653726375,56.07678526875,68.0,100.0
105,56.182763137500004,56.28874100625,66.0,100.0
106,56.400153637500004,56.67098596875,68.0,111.0
107,56.834934637500005,57.144716100000004,71.0,111.0
108,57.269715637500006,58.1392776375,70.0,108.0
109,59.0088396375,59.1447087,70.0,100.0
110,59.2262301375,59.394707775,70.0,97.0
111,59.661011137500005,59.7733295625,70.0,105.0
112,59.878401637500005,60.19995841875,70.0,108.0
113,60.313182637500006,60.65285529375,73.0,102.0
114,60.7479636375,62.068610925,68.0,105.0
115,62.487087637500004,62.5776670125,68.0,105.0
116,62.704478137500004,62.801398068750004,68.0,100.0
117,62.921868637500005,63.021505950000005,68.0,105.0
118,63.139259137500005,63.26154129375,68.0,105.0
119,63.356649637500006,63.632916731250006,73.0,94.0
120,63.79143063750001,64.07132090625001,68.0,111.0
121,64.2262116375,64.7334561375,70.0,108.0
122,65.9653356375,66.06225556875,63.0,108.0
123,66.1827261375,66.27058813125001,63.0,102.0
124,66.4001166375,66.4943191875,63.0,108.0
125,66.6175071375,66.7080865125,63.0,108.0
126,66.8348976375,67.10844735,63.0,111.0
127,67.26967863750001,67.59123541875,70.0,102.0
128,67.70445963750001,68.23253739375001,68.0,111.0
129,69.0088026375,69.11478050625,68.0,105.0
130,69.2261931375,69.33217100625001,66.0,100.0
131,69.4435836375,69.525105075,65.0,105.0
132,69.6609741375,70.1736534,65.0,109.0
133,70.3131456375,70.60118805,66.0,100.0
134,70.7479266375,71.04230960625,65.0,112.0
135,71.1827076375,72.92002005,63.0,108.0
136,86.83482363750001,87.01688818125001,66.0,111.0
137,87.0522141375,87.293155275,63.0,92.0
138,87.4869951375,87.63011055,66.0,102.0
139,87.70438563750001,87.9688774125,63.0,114.0
140,88.13916663750001,88.430832225,70.0,105.0
141,88.5739476375,89.20981485,68.0,105.0
142,90.3130716375,90.467056575,68.0,97.0
143,90.53046213750001,90.71433826875,61.0,105.0
144,90.96524313750001,91.07665576875,68.0,97.0
145,91.1826336375,91.3782850875,61.0,111.0
146,91.6174146375,91.88462379375001,71.0,102.0
147,92.0521956375,92.70889610625001,70.0,100.0
148,93.79131963750001,93.97338418125001,66.0,111.0
149,94.0087101375,94.249651275,63.0,92.0
150,94.4434911375,94.58660655,66.0,102.0
151,94.66088163750001,94.92537341250001,63.0,114.0
152,95.0956626375,95.387328225,70.0,105.0
153,95.5304436375,96.16631085,68.0,105.0
154,96.8347866375,96.9434818875,68.0,102.0
155,97.05217713750001,97.15090865625001,66.0,94.0
156,97.2695676375,97.36648756875,65.0,109.0
157,97.48695813750001,97.80851491875,65.0,99.0
158,97.92173913750001,98.05489081875001,65.0,93.0
159,98.1391296375,98.41539673125,66.0,97.0
160,98.5739106375,98.85651828750001,65.0,105.0
161,99.00869163750001,99.5340520125,63.0,105.0
162,100.74781563750001,100.84745295,66.0,102.0
163,100.9652061375,101.05940868750001,66.0,105.0
164,101.18259663750001,101.2767991875,66.0,100.0
165,101.3999871375,101.49690706875,66.0,102.0
166,101.6173776375,101.91810116250001,66.0,105.0
167,102.0521586375,102.37915018125001,63.0,102.0
168,102.4869396375,102.9253438125,66.0,105.0
169,104.2260636375,104.329324125,61.0,102.0
170,104.44345413750001,104.5376566875,61.0,89.0
171,104.6608446375,104.75142401250001,61.0,97.0
172,104.8782351375,104.97515506875,61.0,94.0
173,105.0956256375,105.34471891875,61.0,108.0
174,105.53040663750001,105.7985215875,63.0,105.0
175,105.96518763750001,106.57116365625001,61.0,111.0
176,107.7043116375,107.79941998125001,56.0,105.0
177,107.9217021375,108.01228151250001,56.0,102.0
178,108.1390926375,108.23601256875,56.0,111.0
179,108.3564831375,108.4651783875,56.0,100.0
180,108.5738736375,108.85738708125001,56.0,111.0
181,109.0086546375,109.30575498750001,58.0,97.0
182,109.4434356375,109.872781875,56.0,108.0
183,111.1825596375,111.27313901250001,56.0,114.0
184,111.3999501375,111.64179706875001,56.0,105.0
185,111.8347311375,111.95882488125001,56.0,111.0
186,112.05212163750001,112.34016405,61.0,102.0
187,112.48690263750001,112.7840029875,59.0,105.0
188,112.92168363750001,113.73961539375,58.0,108.0
189,114.4434171375,114.65899605,58.0,114.0
190,114.6608076375,114.76044495000001,66.0,102.0
191,114.87819813750001,114.9724006875,66.0,105.0
192,115.0955886375,115.1897911875,66.0,100.0
193,115.31297913750001,115.40989906875001,66.0,102.0
194,115.5303696375,115.83109316250001,66.0,105.0
195,115.9651506375,116.29214218125,63.0,102.0
196,116.3999316375,116.8383358125,66.0,105.0
197,118.13905563750001,118.242316125,61.0,102.0
198,118.3564461375,118.4506486875,61.0,89.0
199,118.57383663750001,118.66441601250001,61.0,97.0
200,118.7912271375,118.88814706875,61.0,94.0
201,119.00861763750001,119.25771091875,61.0,108.0
202,119.44339863750001,119.71151358750001,63.0,105.0
203,119.87817963750001,120.48415565625001,61.0,111.0
204,121.6173036375,121.71241198125,56.0,105.0
205,121.83469413750001,121.92527351250001,56.0,102.0
206,122.0520846375,122.14900456875,56.0,111.0
207,122.26947513750001,122.3781703875,56.0,100.0
208,122.4868656375,122.77037908125001,56.0,111.0
209,122.9216466375,123.21874698750001,58.0,97.0
210,123.3564276375,123.785773875,56.0,108.0
211,125.09555163750001,125.18069625000001,58.0,111.0
212,125.3129421375,125.39808675,58.0,108.0
213,125.53033263750001,125.62725256875001,58.0,111.0
214,125.7477231375,125.865476325,58.0,111.0
215,125.96511363750001,126.220547475,66.0,105.0
216,126.39989463750001,126.691560225,65.0,105.0
217,126.83467563750001,128.64354575625,63.0,105.0
218,130.3129236375,130.39806825,63.0,111.0
219,130.5303141375,130.71419026875,63.0,102.0
220,130.96509513750001,131.06201506875001,63.0,105.0
221,131.1824856375,131.47052805,63.0,102.0
222,131.6172666375,131.8998742875,70.0,102.0
223,132.0520476375,132.5592921375,68.0,105.0
224,133.7911716375,133.88537418750002,68.0,102.0
225,134.0085621375,134.1027646875,68.0,92.0
226,134.2259526375,134.32558995,68.0,97.0
227,134.4433431375,134.55475576875,68.0,100.0
228,134.66073363750002,134.93700073125,73.0,111.0
229,135.0955146375,135.41344824375,71.0,102.0
230,135.53029563750002,136.2513074625,70.0,105.0
231,137.2694196375,137.36905695000002,63.0,94.0
232,137.48681013750002,137.58373006875001,63.0,97.0
233,137.7042006375,137.80474374375,63.0,100.0
234,137.9215911375,138.0302863875,63.0,97.0
235,138.1389816375,138.41253135,63.0,97.0
236,138.5737626375,138.88626148125002,70.0,97.0
237,139.0085436375,139.63807029375002,68.0,100.0
238,140.7476676375,140.84458756875,68.0,102.0
239,140.9650581375,141.0556375125,68.0,89.0
240,141.18244863750002,141.29386126875002,68.0,100.0
241,141.3998391375,141.50581700625,66.0,100.0
242,141.6172296375,141.88806196875,68.0,111.0
243,142.05201063750002,142.3617921,71.0,111.0
244,142.4867916375,143.3563536375,70.0,108.0
245,144.2259156375,144.36178470000002,70.0,100.0
246,144.4433061375,144.61178377500002,70.0,97.0
247,144.87808713750002,144.9904055625,70.0,105.0
248,145.0954776375,145.41703441875,70.0,108.0
249,145.5302586375,145.86993129375,73.0,102.0
250,145.9650396375,147.285686925,68.0,105.0
251,147.70416363750002,147.79474301250002,68.0,105.0
252,147.9215541375,148.01847406875,68.0,100.0
253,148.1389446375,148.23858195,68.0,105.0
254,148.3563351375,148.47861729375,68.0,105.0
255,148.57372563750002,148.84999273125,73.0,94.0
256,149.0085066375,149.28839690625,68.0,111.0
257,149.44328763750002,149.9505321375,70.0,108.0
258,151.1824116375,151.27933156875,63.0,108.0
259,151.39980213750002,151.48766413125,63.0,102.0
260,151.6171926375,151.71139518750002,63.0,108.0
261,151.8345831375,151.9251625125,63.0,108.0
262,152.0519736375,152.32552335,63.0,111.0
263,152.4867546375,152.80831141875,70.0,102.0
264,152.9215356375,153.44961339375,68.0,111.0
265,154.22587863750002,154.33185650625,68.0,105.0
266,154.4432691375,154.54924700625,66.0,100.0
267,154.6606596375,154.74218107500002,65.0,105.0
268,154.8780501375,155.3907294,65.0,109.0
269,155.5302216375,155.81826405,66.0,100.0
270,155.96500263750002,156.25938560625002,65.0,112.0
271,156.3997836375,158.13709605,63.0,108.0
272,158.1389076375,158.22405225,63.0,111.0
273,158.3562981375,158.54017426875,63.0,102.0
274,158.79107913750002,158.88799906875002,63.0,105.0
275,159.0084696375,159.29651205000002,63.0,102.0
276,159.4432506375,159.72585828750002,70.0,102.0
277,159.87803163750002,160.3852761375,68.0,105.0
278,161.61715563750002,161.7113581875,68.0,102.0
279,161.8345461375,161.92874868750002,68.0,92.0
280,162.0519366375,162.15157395,68.0,97.0
281,162.2693271375,162.38073976875,68.0,100.0
282,162.48671763750002,162.76298473125001,73.0,111.0
283,162.9214986375,163.23943224375,71.0,102.0
284,163.3562796375,164.0772914625,70.0,105.0
285,165.0954036375,165.19504095000002,63.0,94.0
286,165.31279413750002,165.40971406875002,63.0,97.0
287,165.5301846375,165.63072774375001,63.0,100.0
288,165.7475751375,165.85627038750002,63.0,97.0
289,165.9649656375,166.23851535,63.0,97.0
290,166.39974663750002,166.71224548125002,70.0,97.0
291,166.8345276375,167.46405429375,68.0,100.0
292,168.5736516375,168.67057156875,68.0,102.0
293,168.7910421375,168.8816215125,68.0,89.0
294,169.00843263750002,169.11984526875,68.0,100.0
295,169.22582313750002,169.33180100625,66.0,100.0
296,169.4432136375,169.71404596875,68.0,111.0
297,169.8779946375,170.1877761,71.0,111.0
298,170.3127756375,171.1823376375,70.0,108.0
299,172.05189963750001,172.18776870000002,70.0,100.0
300,172.2692901375,172.437767775,70.0,97.0
301,172.7040711375,172.8163895625,70.0,105.0
302,172.92146163750002,173.24301841875,70.0,108.0
303,173.3562426375,173.69591529375,73.0,102.0
304,173.79102363750002,175.111670925,68.0,105.0
305,175.53014763750002,175.6207270125,68.0,105.0
306,175.74753813750002,175.84445806875001,68.0,100.0
307,175.9649286375,176.06456595,68.0,105.0
308,176.1823191375,176.30460129375,68.0,105.0
309,176.3997096375,176.67597673125002,73.0,94.0
310,176.8344906375,177.11438090625,68.0,111.0
311,177.2692716375,177.7765161375,70.0,108.0
312,179.0083956375,179.10531556875,63.0,108.0
313,179.2257861375,179.31364813125,63.0,102.0
314,179.44317663750002,179.53737918750002,63.0,108.0
315,179.6605671375,179.75114651250001,63.0,108.0
316,179.8779576375,180.15150735,63.0,111.0
317,180.31273863750002,180.63429541875,70.0,102.0
318,180.7475196375,181.27559739375002,68.0,111.0
319,182.05186263750002,182.15784050625,68.0,105.0
320,182.26925313750002,182.37523100625,66.0,100.0
321,182.4866436375,182.568165075,65.0,105.0
322,182.7040341375,183.2167134,65.0,109.0
323,183.3562056375,183.64424805000002,66.0,100.0
324,183.7909866375,184.08536960625,65.0,112.0
325,184.2257676375,185.96308005,63.0,108.0
326,185.96489163750002,187.05003255,63.0,111.0
327,187.2692346375,187.55184228750002,70.0,102.0
328,187.70401563750002,188.2112601375,68.0,105.0
329,189.0083586375,189.1532856375,63.0,108.0
330,189.2257491375,189.34621970625,66.0,97.0
331,189.4431396375,189.74658054375,68.0,105.0
332,189.8779206375,190.12429653750002,68.0,108.0
333,190.3127016375,190.57991079375,73.0,97.0
334,190.7474826375,191.0409598125,68.0,105.0
335,191.1822636375,192.0337097625,70.0,105.0
336,192.9213876375,194.039137125,63.0,117.0
337,194.22573063750002,194.56812067500002,70.0,102.0
338,194.6605116375,195.76105104375,68.0,105.0
339,195.9648546375,196.08532520625002,68.0,102.0
340,196.18224513750002,196.29365776875002,66.0,102.0
341,196.3996356375,196.51104826875002,65.0,109.0
342,196.6170261375,198.299990925,65.0,93.0
343,199.07625616875,199.61973241875,66.0,92.0
344,199.78911585,200.292737175,65.0,99.0
345,200.50106973750002,203.26192908750002,63.0,100.0
