,start,end,pitch,velocity
0,1.6177476375000002,2.12770951875,66.0,97.0
1,1.6177476375000002,2.1304269000000002,63.0,92.0
2,2.0525286375,2.7391203,58.0,66.0
3,2.2699191375,2.9383949250000003,63.0,97.0
4,2.2699191375,2.94111230625,66.0,102.0
5,2.9220906375,3.2373068625,58.0,58.0
6,1.6177476375000002,3.23821265625,51.0,94.0
7,3.1394811375000002,3.2635748812500003,63.0,94.0
8,3.1394811375000002,3.2635748812500003,66.0,97.0
9,3.3568716375000003,3.86683351875,63.0,89.0
10,3.3568716375000003,3.8849493937500004,68.0,87.0
11,4.0090431375,4.518099225,63.0,100.0
12,4.0090431375,4.53168613125,68.0,94.0
13,3.7916526375000004,4.71465646875,59.0,53.0
14,3.3568716375000003,4.747265043750001,56.0,94.0
15,4.6612146375000005,4.85414870625,63.0,78.0
16,4.6612146375000005,4.92298903125,68.0,94.0
17,5.095995637500001,5.5670083875000005,61.0,94.0
18,5.095995637500001,5.5670083875000005,65.0,90.0
19,5.095995637500001,5.576066325,68.0,97.0
20,5.530776637500001,5.887659375,56.0,49.0
21,5.7481671375,6.240013143750001,61.0,97.0
22,5.7481671375,6.2445421125000005,68.0,102.0
23,5.7481671375,6.2463537,65.0,105.0
24,6.4003386375,6.5996132625,61.0,102.0
25,6.4003386375,6.625881281250001,65.0,105.0
26,6.4003386375,6.67117096875,68.0,105.0
27,5.095995637500001,6.7282359750000005,49.0,97.0
28,6.1829481375,6.78892415625,56.0,1.0
29,6.8351196375,7.3604800125,61.0,80.0
30,6.8351196375,7.365914775,66.0,94.0
31,7.487291137500001,7.922072137500001,61.0,97.0
32,7.487291137500001,7.9401880125,66.0,108.0
33,6.8351196375,8.29435336875,54.0,92.0
34,8.139462637500001,8.326056150000001,61.0,92.0
35,8.139462637500001,8.360476312500001,66.0,100.0
36,7.2699006375,8.474606325,58.0,42.0
37,8.5742436375,8.87768454375,63.0,82.0
38,8.5742436375,8.92297423125,66.0,92.0
39,8.791634137500001,9.391269600000001,58.0,84.0
40,9.2264151375,9.5361966,63.0,102.0
41,9.2264151375,9.57514573125,66.0,111.0
42,9.661196137500001,9.78528988125,63.0,92.0
43,9.4438056375,10.11137563125,58.0,44.0
44,9.8785866375,10.1159046,63.0,100.0
45,9.8785866375,10.14579579375,66.0,105.0
46,8.5742436375,10.20920135625,51.0,97.0
47,10.3133676375,10.776228243750001,63.0,87.0
48,10.3133676375,10.796155706250001,68.0,92.0
49,10.7481486375,11.054306925,59.0,44.0
50,10.9655391375,11.307929175,63.0,97.0
51,10.9655391375,11.331479812500001,68.0,100.0
52,10.3133676375,11.694703106250001,56.0,100.0
53,11.182929637500001,11.73184065,59.0,48.0
54,11.6177106375,11.7952462125,68.0,102.0
55,11.6177106375,11.80430415,63.0,94.0
56,12.052491637500001,12.41299755,62.0,41.0
57,12.052491637500001,12.4184323125,58.0,69.0
58,12.052491637500001,12.922053637500001,46.0,97.0
59,12.7046631375,13.15484263125,58.0,102.0
60,12.7046631375,13.1611831875,65.0,93.0
61,12.7046631375,13.16390056875,62.0,105.0
62,13.3568346375,13.491797906250001,58.0,100.0
63,13.3568346375,13.5198775125,62.0,102.0
64,13.574225137500001,13.655746575,58.0,60.0
65,13.3568346375,13.66027554375,65.0,87.0
66,13.791615637500001,14.3133528375,63.0,100.0
67,13.791615637500001,14.32875133125,58.0,84.0
68,13.791615637500001,15.127661418750002,51.0,94.0
69,15.5307396375,15.834180543750001,63.0,71.0
70,15.5307396375,16.0289262,66.0,67.0
71,15.965520637500001,16.11316501875,63.0,78.0
72,15.7481301375,16.5361707,58.0,66.0
73,16.1829111375,16.866785418750002,63.0,97.0
74,16.1829111375,16.896676612500002,66.0,114.0
75,15.5307396375,17.1448641,51.0,100.0
76,17.0524731375,17.14939306875,66.0,49.0
77,16.8350826375,17.1593568,58.0,82.0
78,17.0524731375,17.52982644375,63.0,100.0
79,17.7046446375,17.8314557625,63.0,80.0
80,17.9220351375,18.5307285375,66.0,94.0
81,17.487254137500003,18.556996556250002,58.0,67.0
82,17.9220351375,18.56061973125,70.0,100.0
83,17.9220351375,18.576018225000002,63.0,92.0
84,17.269863637500002,18.63670640625,51.0,102.0
85,19.008987637500002,19.2915952875,61.0,82.0
86,19.008987637500002,19.548840712500002,65.0,68.0
87,19.2263781375,20.56242391875,56.0,78.0
88,19.008987637500002,20.5633297125,49.0,97.0
89,19.6611591375,20.9220240375,68.0,92.0
90,19.4437686375,20.9564442,61.0,73.0
91,19.6611591375,21.0089802375,65.0,99.0
92,21.1828926375,21.35771083125,61.0,87.0
93,20.9655021375,21.720934125,56.0,67.0
94,21.4002831375,22.05064305,65.0,102.0
95,21.4002831375,22.05698360625,61.0,92.0
96,21.4002831375,22.06604154375,68.0,100.0
97,20.748111637500003,22.0868748,49.0,97.0
98,22.4872356375,22.751727412500003,56.0,89.0
99,22.4872356375,22.98813958125,59.0,92.0
100,22.7046261375,23.38397145,51.0,69.0
101,22.9220166375,23.791578637500002,56.0,76.0
102,22.4872356375,23.981795325,44.0,89.0
103,23.791578637500002,24.05878779375,51.0,67.0
104,23.1394071375,24.206432175,63.0,94.0
105,23.1394071375,24.41567053125,59.0,94.0
106,24.008969137500003,24.4654891875,56.0,89.0
107,24.6611406375,24.80878501875,56.0,92.0
108,24.4437501375,25.256247131250003,51.0,62.0
109,24.2263596375,25.45733334375,44.0,94.0
110,24.8785311375,25.46639128125,59.0,108.0
111,24.8785311375,25.469108662500002,56.0,102.0
112,24.8785311375,25.532514225,63.0,100.0
113,26.4002646375,27.2752614,58.0,100.0
114,26.6176551375,27.345913312500002,62.0,109.0
115,25.9654836375,27.460043325,46.0,100.0
116,27.269826637500003,27.570550162500002,53.0,50.0
117,27.4872171375,27.808773918750003,62.0,12.0
118,26.6176551375,27.845911462500002,65.0,90.0
119,27.4872171375,27.91022281875,58.0,89.0
120,28.1393886375,28.2480838875,58.0,82.0
121,27.9219981375,28.6176477375,53.0,65.0
122,28.356779137500002,28.896632212500002,62.0,102.0
123,28.356779137500002,28.899349593750003,58.0,97.0
124,28.356779137500002,28.908407531250003,65.0,96.0
125,27.7046076375,29.3042394,46.0,102.0
126,29.0089506375,29.3748913125,62.0,74.0
127,29.0089506375,29.381231868750003,58.0,84.0
128,29.0089506375,29.381231868750003,65.0,63.0
129,29.4437316375,29.74717254375,63.0,71.0
130,29.4437316375,29.9419182,66.0,67.0
131,29.878512637500002,30.026157018750002,63.0,78.0
132,29.6611221375,30.449162700000002,58.0,66.0
133,30.095903137500002,30.77977741875,63.0,97.0
134,30.095903137500002,30.8096686125,66.0,114.0
135,29.4437316375,31.057856100000002,51.0,100.0
136,30.9654651375,31.06238506875,66.0,49.0
137,30.7480746375,31.0723488,58.0,82.0
138,30.9654651375,31.442818443750003,63.0,100.0
139,31.617636637500002,31.744447762500002,63.0,80.0
140,31.835027137500003,32.4437205375,66.0,94.0
141,31.4002461375,32.46998855625,58.0,67.0
142,31.835027137500003,32.47361173125,70.0,100.0
143,31.835027137500003,32.489010225,63.0,92.0
144,31.1828556375,32.54969840625,51.0,102.0
145,32.9219796375,33.204587287500004,61.0,82.0
146,32.9219796375,33.461832712500005,65.0,68.0
147,33.1393701375,34.47541591875,56.0,78.0
148,32.9219796375,34.4763217125,49.0,97.0
149,33.5741511375,34.835016037500004,68.0,92.0
150,33.3567606375,34.8694362,61.0,73.0
151,33.5741511375,34.9219722375,65.0,99.0
152,35.0958846375,35.27070283125,61.0,87.0
153,34.8784941375,35.633926125,56.0,67.0
154,35.3132751375,35.96363505,65.0,102.0
155,35.3132751375,35.96997560625,61.0,92.0
156,35.3132751375,35.97903354375,68.0,100.0
157,34.6611036375,35.9998668,49.0,97.0
158,36.4002276375,36.6647194125,56.0,89.0
159,36.4002276375,36.90113158125,59.0,92.0
160,36.6176181375,37.29696345,51.0,69.0
161,36.8350086375,37.704570637500005,56.0,76.0
162,36.4002276375,37.894787325,44.0,89.0
163,37.704570637500005,37.97177979375,51.0,67.0
164,37.052399137500004,38.119424175,63.0,94.0
165,37.052399137500004,38.328662531250004,59.0,94.0
166,37.9219611375,38.3784811875,56.0,89.0
167,38.5741326375,38.721777018750004,56.0,92.0
168,38.3567421375,39.16923913125,51.0,62.0
169,38.1393516375,39.370325343750004,44.0,94.0
170,38.7915231375,39.37938328125,59.0,108.0
171,38.7915231375,39.3821006625,56.0,102.0
172,38.7915231375,39.445506225,63.0,100.0
173,39.8784756375,40.175575987500004,58.0,87.0
174,39.8784756375,40.40655339375,65.0,77.0
175,39.8784756375,40.411988156250004,62.0,99.0
176,40.313256637500004,40.44278514375,58.0,89.0
177,40.0958661375,40.6139801625,53.0,40.0
178,40.530647137500004,40.7770230375,62.0,99.0
179,40.530647137500004,40.822312725,58.0,94.0
180,40.530647137500004,40.847674950000005,65.0,99.0
181,40.748037637500005,41.05147854375,53.0,52.0
182,39.8784756375,41.079558150000004,46.0,94.0
183,40.965428137500005,41.17285490625,58.0,100.0
184,40.965428137500005,41.24531840625,62.0,109.0
185,41.1828186375,41.336803575000005,46.0,80.0
186,41.4002091375,41.52883185,58.0,108.0
187,41.6175996375,41.806910531250004,58.0,100.0
188,41.6175996375,41.86125815625,63.0,102.0
189,42.0523806375,42.36487948125,58.0,69.0
190,42.2697711375,42.515241243750005,63.0,114.0
191,42.4871616375,42.75799396875,58.0,80.0
192,42.7045521375,42.923754225,63.0,105.0
193,42.7045521375,42.9509280375,66.0,117.0
194,41.6175996375,43.148391075,51.0,97.0
195,42.9219426375,43.15654321875,58.0,80.0
196,43.1393331375,43.25074576875,63.0,84.0
197,43.356723637500004,43.632084937500004,63.0,100.0
198,43.356723637500004,43.636613906250005,66.0,100.0
199,43.356723637500004,43.64476605,58.0,97.0
200,43.356723637500004,43.66016454375,51.0,105.0
201,45.0958476375,45.3784552875,63.0,97.0
202,45.0958476375,45.39023060625,66.0,108.0
203,45.5306286375,45.639323887500005,63.0,97.0
204,45.7480191375,45.991677656250005,66.0,117.0
205,45.7480191375,46.012510912500005,63.0,111.0
206,46.1828001375,46.27972006875,63.0,87.0
207,46.4001906375,46.517943825,63.0,102.0
208,46.4001906375,46.6139579625,66.0,108.0
209,45.3132381375,46.70363154375,58.0,87.0
210,46.617581137500004,46.7117836875,63.0,78.0
211,45.0958476375,46.74620385,51.0,102.0
212,46.834971637500004,47.3331582,68.0,87.0
213,46.834971637500004,47.33587558125,63.0,97.0
214,47.269752637500005,47.677359825,59.0,52.0
215,47.487143137500006,47.76341023125,63.0,102.0
216,47.487143137500006,47.84764905,68.0,108.0
217,47.9219241375,48.025184625,63.0,73.0
218,46.834971637500004,48.192756468750005,56.0,105.0
219,46.834971637500004,48.287864812500004,51.0,45.0
220,48.1393146375,48.29420536875,63.0,100.0
221,48.1393146375,48.29601695625,68.0,100.0
222,48.5740956375,48.865761225,61.0,87.0
223,48.5740956375,48.90471035625,65.0,90.0
224,48.5740956375,49.068659025,68.0,94.0
225,49.2262671375,49.272462618750005,61.0,82.0
226,48.7914861375,49.37934628125,56.0,84.0
227,49.2262671375,49.5342370125,65.0,93.0
228,49.2262671375,49.55325868125,68.0,102.0
229,49.6610481375,49.77608394375,61.0,105.0
230,49.878438637500004,49.96358325,61.0,84.0
231,49.4436576375,50.06774953125,56.0,66.0
232,49.878438637500004,50.0922059625,65.0,102.0
233,49.878438637500004,50.154705731250004,68.0,102.0
234,50.095829137500004,50.18369113125,61.0,69.0
235,48.5740956375,50.2624951875,49.0,100.0
236,50.313219637500005,50.77517445,61.0,84.0
237,50.313219637500005,50.79600770625,66.0,97.0
238,50.748000637500006,51.06593424375,58.0,73.0
239,50.9653911375,51.2027091,61.0,102.0
240,50.9653911375,51.206332275,70.0,100.0
241,50.9653911375,51.232600293750004,66.0,108.0
242,51.4001721375,51.4762588125,61.0,80.0
243,50.313219637500005,51.709047806250005,54.0,92.0
244,51.6175626375,51.765207018750004,61.0,97.0
245,51.8349531375,51.938213625,61.0,71.0
246,51.6175626375,51.9508947375,66.0,108.0
247,51.6175626375,51.980785931250004,70.0,97.0
248,51.1827816375,51.99527863125,58.0,55.0
249,52.0523436375,52.255241437500004,70.0,89.0
250,52.0523436375,52.535131706250006,63.0,92.0
251,52.0523436375,52.552341787500005,66.0,100.0
252,52.4871246375,52.83766681875,58.0,84.0
253,52.7045151375,53.085854306250006,63.0,105.0
254,52.7045151375,53.0885716875,70.0,102.0
255,52.7045151375,53.11665129375,66.0,105.0
256,53.356686637500005,53.48078038125,63.0,97.0
257,53.139296137500004,53.50070784375,58.0,42.0
258,53.356686637500005,53.597627775,66.0,108.0
259,53.356686637500005,53.62751896875,70.0,100.0
260,53.574077137500005,53.677337625,63.0,76.0
261,53.574077137500005,53.689112943750004,58.0,64.0
262,52.0523436375,53.69635929375,51.0,100.0
263,53.791467637500006,54.3041469,63.0,100.0
264,53.791467637500006,54.322262775000006,68.0,102.0
265,54.4436391375,54.7262467875,63.0,97.0
266,54.4436391375,54.87570275625,71.0,97.0
267,54.4436391375,54.8856664875,68.0,102.0
268,54.2262486375,55.1103033375,59.0,52.0
269,53.791467637500006,55.13294818125,56.0,100.0
270,55.0958106375,55.22896231875,68.0,108.0
271,55.0958106375,55.240737637500004,71.0,102.0
272,55.0958106375,55.2588535125,63.0,105.0
273,55.5305916375,55.810481906250004,61.0,89.0
274,55.5305916375,56.007944943750005,65.0,96.0
275,55.5305916375,56.0342129625,68.0,94.0
276,55.9653726375,56.085843206250004,61.0,71.0
277,56.182763137500004,56.64471795,68.0,100.0
278,56.182763137500004,56.64743533125,61.0,97.0
279,56.182763137500004,56.64743533125,65.0,105.0
280,55.7479821375,56.90105758125,56.0,51.0
281,56.834934637500005,56.914644487500006,68.0,94.0
282,56.834934637500005,56.9255140125,65.0,105.0
283,55.5305916375,56.950876237500005,49.0,102.0
284,56.834934637500005,56.968086318750004,61.0,97.0
285,57.269715637500006,57.5523232875,58.0,94.0
286,57.269715637500006,57.739822593750006,62.0,79.0
287,57.269715637500006,57.80322815625,65.0,77.0
288,57.7044966375,57.822249825,58.0,82.0
289,57.269715637500006,58.1030458875,46.0,73.0
290,57.9218871375,58.15648771875,58.0,111.0
291,57.9218871375,58.19815423125,62.0,105.0
292,57.9218871375,58.28239305,65.0,87.0
293,58.3566681375,58.66916698125,53.0,96.0
294,58.5740586375,58.820434537500006,58.0,114.0
295,58.5740586375,58.92822399375,62.0,112.0
296,58.5740586375,58.98257161875,65.0,96.0
297,58.7914491375,59.06499885,53.0,74.0
298,59.0088396375,59.291447287500006,63.0,97.0
299,59.0088396375,59.30322260625,66.0,108.0
300,59.443620637500004,59.5523158875,63.0,97.0
301,59.661011137500005,59.90466965625,66.0,117.0
302,59.661011137500005,59.9255029125,63.0,111.0
303,60.095792137500005,60.192712068750005,63.0,87.0
304,60.313182637500006,60.430935825000006,63.0,102.0
305,60.313182637500006,60.526949962500005,66.0,108.0
306,59.2262301375,60.61662354375,58.0,87.0
307,60.53057313750001,60.624775687500005,63.0,78.0
308,59.0088396375,60.65919585,51.0,102.0
309,60.7479636375,61.2461502,68.0,87.0
310,60.7479636375,61.24886758125,63.0,97.0
311,61.1827446375,61.590351825000006,59.0,52.0
312,61.4001351375,61.67640223125,63.0,102.0
313,61.4001351375,61.760641050000004,68.0,108.0
314,61.8349161375,61.938176625000004,63.0,73.0
315,60.7479636375,62.10574846875,56.0,105.0
316,60.7479636375,62.2008568125,51.0,45.0
317,62.0523066375,62.20719736875,63.0,100.0
318,62.0523066375,62.20900895625,68.0,100.0
319,62.487087637500004,62.778753225,61.0,87.0
320,62.487087637500004,62.81770235625,65.0,90.0
321,62.487087637500004,62.981651025000005,68.0,94.0
322,63.139259137500005,63.18545461875,61.0,82.0
323,62.704478137500004,63.292338281250004,56.0,84.0
324,63.139259137500005,63.4472290125,65.0,93.0
325,63.139259137500005,63.46625068125,68.0,102.0
326,63.574040137500006,63.689075943750005,61.0,105.0
327,63.79143063750001,63.87657525,61.0,84.0
328,63.356649637500006,63.980741531250004,56.0,66.0
329,63.79143063750001,64.0051979625,65.0,102.0
330,63.79143063750001,64.06769773125001,68.0,102.0
331,64.00882113750001,64.09668313125,61.0,69.0
332,62.487087637500004,64.1754871875,49.0,100.0
333,64.2262116375,64.68816645,61.0,84.0
334,64.2262116375,64.70899970625,66.0,97.0
335,64.6609926375,64.97892624375001,58.0,73.0
336,64.87838313750001,65.11570110000001,61.0,102.0
337,64.87838313750001,65.119324275,70.0,100.0
338,64.87838313750001,65.14559229375,66.0,108.0
339,65.31316413750001,65.38925081250001,61.0,80.0
340,64.2262116375,65.62203980625,54.0,92.0
341,65.5305546375,65.67819901875,61.0,97.0
342,65.7479451375,65.851205625,61.0,71.0
343,65.5305546375,65.86388673750001,66.0,108.0
344,65.5305546375,65.89377793125,70.0,97.0
345,65.0957736375,65.90827063125,58.0,55.0
346,65.9653356375,66.1682334375,70.0,89.0
347,65.9653356375,66.44812370625,63.0,92.0
348,65.9653356375,66.4653337875,66.0,100.0
349,66.4001166375,66.75065881875,58.0,84.0
350,66.6175071375,66.99884630625,63.0,105.0
351,66.6175071375,67.00156368750001,70.0,102.0
352,66.6175071375,67.02964329375,66.0,105.0
353,67.26967863750001,67.39377238125,63.0,97.0
354,67.0522881375,67.41369984375001,58.0,42.0
355,67.26967863750001,67.51061977500001,66.0,108.0
356,67.26967863750001,67.54051096875,70.0,100.0
357,67.4870691375,67.59032962500001,63.0,76.0
358,67.4870691375,67.60210494375,58.0,64.0
359,65.9653356375,67.60935129375001,51.0,100.0
360,67.70445963750001,68.21713890000001,63.0,100.0
361,67.70445963750001,68.235254775,68.0,102.0
362,68.3566311375,68.6392387875,63.0,97.0
363,68.3566311375,68.78869475625001,71.0,97.0
364,68.3566311375,68.7986584875,68.0,102.0
365,68.13924063750001,69.0232953375,59.0,52.0
366,67.70445963750001,69.04594018125,56.0,100.0
367,69.0088026375,69.14195431875001,68.0,108.0
368,69.0088026375,69.1537296375,71.0,102.0
369,69.0088026375,69.1718455125,63.0,105.0
370,69.4435836375,69.67184366250001,61.0,82.0
371,69.4435836375,69.68724215625001,65.0,102.0
372,69.4435836375,69.79774899375,68.0,92.0
373,69.6609741375,69.85390820625,56.0,82.0
374,69.4435836375,69.86658931875,49.0,100.0
375,69.8783646375,70.01695108125,61.0,87.0
376,70.3131456375,70.56223891875,46.0,100.0
377,70.3131456375,70.60752860625,58.0,92.0
378,70.53053613750001,70.77147727500001,50.0,116.0
379,70.3131456375,70.80770902500001,62.0,74.0
380,70.7479266375,71.00064309375,53.0,99.0
381,70.3131456375,71.01151261875,65.0,68.0
382,70.96531713750001,71.07129500625,58.0,100.0
383,71.1827076375,71.64737983125,58.0,97.0
384,71.1827076375,71.67274205625,63.0,105.0
385,71.83487913750001,72.11114623125,58.0,108.0
386,71.83487913750001,72.17998655625,63.0,108.0
387,71.83487913750001,72.18632711250001,66.0,102.0
388,72.2696601375,72.3964712625,58.0,69.0
389,72.4870506375,72.5450214375,58.0,73.0
390,72.7044411375,72.85480290000001,58.0,92.0
391,72.4870506375,72.85661448750001,63.0,105.0
392,72.4870506375,72.87382456875001,66.0,102.0
393,71.1827076375,72.90462155625,51.0,105.0
394,71.6174886375,72.923643225,54.0,58.0
395,72.9218316375,73.14918586875001,61.0,84.0
396,72.9218316375,73.1500916625,58.0,92.0
397,72.9218316375,73.1537148375,66.0,94.0
398,72.9218316375,73.16820753750001,51.0,100.0
399,72.9218316375,73.24248262500001,39.0,97.0
400,73.5740031375,73.72708228125,61.0,87.0
401,73.5740031375,73.7334228375,66.0,92.0
402,73.5740031375,74.18269653750001,58.0,80.0
403,74.0087841375,74.28867440625001,61.0,100.0
404,74.0087841375,74.32128298125001,66.0,102.0
405,73.5740031375,74.34392782500001,51.0,92.0
406,74.4435651375,74.65642666875,37.0,82.0
407,74.66095563750001,74.97073710000001,39.0,84.0
408,74.66095563750001,75.191750775,61.0,97.0
409,74.66095563750001,75.19446815625001,66.0,92.0
410,75.3131271375,75.43359770625,61.0,92.0
411,75.3131271375,75.45171358125,66.0,94.0
412,75.7479081375,75.9073278375,61.0,100.0
413,75.7479081375,75.95080593750001,66.0,100.0
414,74.66095563750001,75.95805228750001,58.0,82.0
415,74.66095563750001,76.1283415125,51.0,102.0
416,76.1826891375,76.2623989875,61.0,62.0
417,76.4000796375,76.72707118125,39.0,100.0
418,76.4000796375,76.93993271250001,61.0,87.0
419,76.4000796375,76.9580485875,66.0,80.0
420,77.05225113750001,77.16004059375,61.0,84.0
421,77.05225113750001,77.17634488125,66.0,94.0
422,77.48703213750001,77.62018381875001,61.0,94.0
423,77.48703213750001,77.6319591375,66.0,97.0
424,76.4000796375,77.6645677125,58.0,87.0
425,76.4000796375,77.75967605625,51.0,92.0
426,77.92181313750001,78.0522474375,42.0,97.0
427,78.1392036375,78.4544198625,39.0,97.0
428,78.1392036375,78.66999877500001,61.0,73.0
429,78.1392036375,78.68811465,66.0,80.0
430,78.7913751375,78.91728046875001,61.0,87.0
431,78.7913751375,78.93630213750001,66.0,94.0
432,79.2261561375,79.36474258125,61.0,94.0
433,79.2261561375,79.40640909375,66.0,97.0
434,79.2261561375,79.5594882375,42.0,108.0
435,78.1392036375,79.65912555,58.0,71.0
436,78.1392036375,79.71709635,51.0,76.0
437,79.6609371375,79.77597294375,63.0,66.0
438,79.6609371375,79.80314675625,44.0,108.0
439,79.8783276375,80.25423204375001,39.0,92.0
440,79.8783276375,80.35839832500001,61.0,89.0
441,79.8783276375,80.37923158125001,66.0,89.0
442,80.5304991375,80.64553494375001,61.0,92.0
443,80.5304991375,80.65096970625001,66.0,92.0
444,80.9652801375,81.09480864375,61.0,92.0
445,80.9652801375,81.11292451875,66.0,94.0
446,79.8783276375,81.423611775,58.0,84.0
447,79.8783276375,81.44444503125,51.0,100.0
448,81.4000611375,81.49426368750001,63.0,66.0
449,81.4000611375,81.62560378125,37.0,84.0
450,81.61745163750001,81.92723310000001,39.0,97.0
451,81.61745163750001,82.15730471250001,61.0,80.0
452,81.61745163750001,82.16002209375,66.0,84.0
453,82.2696231375,82.4145501375,66.0,102.0
454,82.2696231375,82.4199849,61.0,87.0
455,82.7044041375,82.8493311375,61.0,82.0
456,81.61745163750001,82.85748328125,58.0,82.0
457,82.7044041375,82.86382383750001,66.0,97.0
458,81.61745163750001,82.93719313125,51.0,89.0
459,83.13918513750001,83.22704713125,61.0,73.0
460,83.3565756375,83.71074099375001,39.0,89.0
461,83.3565756375,83.89642871250001,61.0,87.0
462,83.3565756375,83.89914609375,66.0,82.0
463,84.00874713750001,84.11472500625,61.0,89.0
464,84.00874713750001,84.1156308,66.0,100.0
465,84.44352813750001,84.5884551375,61.0,100.0
466,84.44352813750001,84.60294783750001,66.0,102.0
467,83.3565756375,84.72522999375,58.0,89.0
468,83.3565756375,84.81852675,51.0,102.0
469,84.44352813750001,84.84841794375001,37.0,100.0
470,84.87830913750001,85.00783764375001,38.0,79.0
471,85.0956996375,85.55493706875001,39.0,100.0
472,85.0956996375,85.60747310625,61.0,97.0
473,85.0956996375,85.61381366250001,66.0,97.0
474,85.7478711375,85.9109140125,61.0,94.0
475,85.7478711375,85.93718203125,66.0,100.0
476,86.40004263750001,86.62558528125001,61.0,111.0
477,85.0956996375,86.6862734625,58.0,89.0
478,85.0956996375,86.6953314,51.0,102.0
479,86.6174331375,86.83391784375,62.0,63.0
480,86.83482363750001,87.34478551875,66.0,97.0
481,86.83482363750001,87.34750290000001,63.0,92.0
482,87.26960463750001,87.9561963,58.0,66.0
483,87.4869951375,88.155470925,63.0,97.0
484,87.4869951375,88.15818830625001,66.0,102.0
485,88.13916663750001,88.4543828625,58.0,58.0
486,86.83482363750001,88.45528865625,51.0,94.0
487,88.3565571375,88.48065088125,63.0,94.0
488,88.3565571375,88.48065088125,66.0,97.0
489,88.5739476375,89.08390951875,63.0,89.0
490,88.5739476375,89.10202539375001,68.0,87.0
491,89.2261191375,89.735175225,63.0,100.0
492,89.2261191375,89.74876213125,68.0,94.0
493,89.0087286375,89.93173246875,59.0,53.0
494,88.5739476375,89.96434104375001,56.0,94.0
495,89.8782906375,90.07122470625,63.0,78.0
496,89.8782906375,90.14006503125,68.0,94.0
497,90.3130716375,90.7840843875,61.0,94.0
498,90.3130716375,90.7840843875,65.0,90.0
499,90.3130716375,90.793142325,68.0,97.0
500,90.7478526375,91.104735375,56.0,49.0
501,90.96524313750001,91.45708914375001,61.0,97.0
502,90.96524313750001,91.4616181125,68.0,102.0
503,90.96524313750001,91.4634297,65.0,105.0
504,91.6174146375,91.8166892625,61.0,102.0
505,91.6174146375,91.84295728125001,65.0,105.0
506,91.6174146375,91.88824696875001,68.0,105.0
507,90.3130716375,91.94531197500001,49.0,97.0
508,91.40002413750001,92.00600015625001,56.0,1.0
509,92.0521956375,92.57755601250001,61.0,80.0
510,92.0521956375,92.582990775,66.0,94.0
511,92.7043671375,93.1391481375,61.0,97.0
512,92.7043671375,93.15726401250001,66.0,108.0
513,92.0521956375,93.51142936875,54.0,92.0
514,93.35653863750001,93.54313215,61.0,92.0
515,93.35653863750001,93.5775523125,66.0,100.0
516,92.4869766375,93.691682325,58.0,42.0
517,93.79131963750001,94.09476054375,63.0,82.0
518,93.79131963750001,94.14005023125,66.0,92.0
519,94.0087101375,94.6083456,58.0,84.0
520,94.4434911375,94.7532726,63.0,102.0
521,94.4434911375,94.79222173125001,66.0,111.0
522,94.8782721375,95.00236588125,63.0,92.0
523,94.66088163750001,95.32845163125,58.0,44.0
524,95.0956626375,95.3329806,63.0,100.0
525,95.0956626375,95.36287179375,66.0,105.0
526,93.79131963750001,95.42627735625001,51.0,97.0
527,95.5304436375,95.99330424375,63.0,87.0
528,95.5304436375,96.01323170625001,68.0,92.0
529,95.9652246375,96.27138292500001,59.0,44.0
530,96.18261513750001,96.525005175,63.0,97.0
531,96.18261513750001,96.5485558125,68.0,100.0
532,95.5304436375,96.91177910625001,56.0,100.0
533,96.4000056375,96.94891665,59.0,48.0
534,96.8347866375,97.01232221250001,68.0,102.0
535,96.8347866375,97.02138015,63.0,94.0
536,97.2695676375,97.63007355,62.0,41.0
537,97.2695676375,97.63550831250001,58.0,69.0
538,97.2695676375,98.1391296375,46.0,97.0
539,97.92173913750001,98.37191863125001,58.0,102.0
540,97.92173913750001,98.3782591875,65.0,93.0
541,97.92173913750001,98.38097656875,62.0,105.0
542,98.5739106375,98.70887390625,58.0,100.0
543,98.5739106375,98.73695351250001,62.0,102.0
544,98.7913011375,98.872822575,58.0,60.0
545,98.5739106375,98.87735154375001,65.0,87.0
546,99.00869163750001,99.53042883750001,63.0,100.0
547,99.00869163750001,99.54582733125001,58.0,84.0
548,99.00869163750001,100.34473741875,51.0,94.0
549,100.74781563750001,101.05125654375,63.0,71.0
550,100.74781563750001,101.2460022,66.0,67.0
551,101.18259663750001,101.33024101875,63.0,78.0
552,100.9652061375,101.7532467,58.0,66.0
553,101.3999871375,102.08386141875,63.0,97.0
554,101.3999871375,102.11375261250001,66.0,114.0
555,100.74781563750001,102.3619401,51.0,100.0
556,102.26954913750001,102.36646906875,66.0,49.0
557,102.0521586375,102.3764328,58.0,82.0
558,102.26954913750001,102.74690244375,63.0,100.0
559,102.9217206375,103.0485317625,63.0,80.0
560,103.13911113750001,103.7478045375,66.0,94.0
561,102.70433013750001,103.77407255625,58.0,67.0
562,103.13911113750001,103.77769573125,70.0,100.0
563,103.13911113750001,103.793094225,63.0,92.0
564,102.4869396375,103.85378240625,51.0,102.0
565,104.2260636375,104.50867128750001,61.0,82.0
566,104.2260636375,104.7659167125,65.0,68.0
567,104.44345413750001,105.77949991875,56.0,78.0
568,104.2260636375,105.7804057125,49.0,97.0
569,104.8782351375,106.1391000375,68.0,92.0
570,104.6608446375,106.1735202,61.0,73.0
571,104.8782351375,106.2260562375,65.0,99.0
572,106.39996863750001,106.57478683125001,61.0,87.0
573,106.1825781375,106.938010125,56.0,67.0
574,106.6173591375,107.26771905000001,65.0,102.0
575,106.6173591375,107.27405960625,61.0,92.0
576,106.6173591375,107.28311754375001,68.0,100.0
577,105.96518763750001,107.30395080000001,49.0,97.0
578,107.7043116375,107.96880341250001,56.0,89.0
579,107.7043116375,108.20521558125,59.0,92.0
580,107.9217021375,108.60104745000001,51.0,69.0
581,108.1390926375,109.0086546375,56.0,76.0
582,107.7043116375,109.198871325,44.0,89.0
583,109.0086546375,109.27586379375,51.0,67.0
584,108.3564831375,109.42350817500001,63.0,94.0
585,108.3564831375,109.63274653125,59.0,94.0
586,109.22604513750001,109.6825651875,56.0,89.0
587,109.8782166375,110.02586101875,56.0,92.0
588,109.66082613750001,110.47332313125001,51.0,62.0
589,109.4434356375,110.67440934375,44.0,94.0
590,110.09560713750001,110.68346728125,59.0,108.0
591,110.09560713750001,110.68618466250001,56.0,102.0
592,110.09560713750001,110.749590225,63.0,100.0
593,111.6173406375,112.49233740000001,58.0,100.0
594,111.8347311375,112.56298931250001,62.0,109.0
595,111.1825596375,112.677119325,46.0,100.0
596,112.48690263750001,112.7876261625,53.0,50.0
597,112.7042931375,113.02584991875001,62.0,12.0
598,111.8347311375,113.0629874625,65.0,90.0
599,112.7042931375,113.12729881875,58.0,89.0
600,113.35646463750001,113.46515988750001,58.0,82.0
601,113.1390741375,113.8347237375,53.0,65.0
602,113.5738551375,114.1137082125,62.0,102.0
603,113.5738551375,114.11642559375001,58.0,97.0
604,113.5738551375,114.12548353125001,65.0,96.0
605,112.92168363750001,114.5213154,46.0,102.0
606,114.2260266375,114.5919673125,62.0,74.0
607,114.2260266375,114.59830786875001,58.0,84.0
608,114.2260266375,114.59830786875001,65.0,63.0
609,114.6608076375,114.96424854375,63.0,71.0
610,114.6608076375,115.15899420000001,66.0,67.0
611,115.0955886375,115.24323301875,63.0,78.0
612,114.87819813750001,115.66623870000001,58.0,66.0
613,115.31297913750001,115.99685341875,63.0,97.0
614,115.31297913750001,116.02674461250001,66.0,114.0
615,114.6608076375,116.2749321,51.0,100.0
616,116.18254113750001,116.27946106875001,66.0,49.0
617,115.9651506375,116.2894248,58.0,82.0
618,116.18254113750001,116.65989444375,63.0,100.0
619,116.8347126375,116.96152376250001,63.0,80.0
620,117.05210313750001,117.6607965375,66.0,94.0
621,116.61732213750001,117.68706455625001,58.0,67.0
622,117.05210313750001,117.69068773125001,70.0,100.0
623,117.05210313750001,117.706086225,63.0,92.0
624,116.3999316375,117.76677440625001,51.0,102.0
625,118.13905563750001,118.42166328750001,61.0,82.0
626,118.13905563750001,118.6789087125,65.0,68.0
627,118.3564461375,119.69249191875001,56.0,78.0
628,118.13905563750001,119.6933977125,49.0,97.0
629,118.7912271375,120.0520920375,68.0,92.0
630,118.57383663750001,120.0865122,61.0,73.0
631,118.7912271375,120.1390482375,65.0,99.0
632,120.31296063750001,120.48777883125001,61.0,87.0
633,120.0955701375,120.85100212500001,56.0,67.0
634,120.5303511375,121.18071105,65.0,102.0
635,120.5303511375,121.18705160625001,61.0,92.0
636,120.5303511375,121.19610954375001,68.0,100.0
637,119.87817963750001,121.21694280000001,49.0,97.0
638,121.6173036375,121.88179541250001,56.0,89.0
639,121.6173036375,122.11820758125,59.0,92.0
640,121.83469413750001,122.51403945000001,51.0,69.0
641,122.0520846375,122.9216466375,56.0,76.0
642,121.6173036375,123.111863325,44.0,89.0
643,122.9216466375,123.18885579375001,51.0,67.0
644,122.26947513750001,123.33650017500001,63.0,94.0
645,122.26947513750001,123.54573853125001,59.0,94.0
646,123.13903713750001,123.5955571875,56.0,89.0
647,123.7912086375,123.93885301875001,56.0,92.0
648,123.57381813750001,124.38631513125,51.0,62.0
649,123.3564276375,124.58740134375,44.0,94.0
650,124.0085991375,124.59645928125,59.0,108.0
651,124.0085991375,124.5991766625,56.0,102.0
652,124.0085991375,124.66258222500001,63.0,100.0
653,125.09555163750001,125.3926519875,58.0,87.0
654,125.09555163750001,125.62362939375001,65.0,77.0
655,125.09555163750001,125.62906415625001,62.0,99.0
656,125.53033263750001,125.65986114375,58.0,89.0
657,125.3129421375,125.8310561625,53.0,40.0
658,125.7477231375,125.9940990375,62.0,99.0
659,125.7477231375,126.03938872500001,58.0,94.0
660,125.7477231375,126.06475095,65.0,99.0
661,125.96511363750001,126.26855454375,53.0,52.0
662,125.09555163750001,126.29663415,46.0,94.0
663,126.1825041375,126.38993090625,58.0,100.0
664,126.1825041375,126.46239440625001,62.0,109.0
665,126.39989463750001,126.55387957500001,46.0,80.0
666,126.6172851375,126.74590785000001,58.0,108.0
667,126.83467563750001,127.02398653125,58.0,100.0
668,126.83467563750001,127.07833415625001,63.0,102.0
669,127.2694566375,127.58195548125,58.0,69.0
670,127.4868471375,127.73231724375,63.0,114.0
671,127.7042376375,127.97506996875,58.0,80.0
672,127.92162813750001,128.140830225,63.0,105.0
673,127.92162813750001,128.1680040375,66.0,117.0
674,126.83467563750001,128.365467075,51.0,97.0
675,128.13901863750002,128.37361921875,58.0,80.0
676,128.3564091375,128.46782176875,63.0,84.0
677,128.5737996375,128.84916093750002,63.0,100.0
678,128.5737996375,128.85368990625,66.0,100.0
679,128.5737996375,128.86184205,58.0,97.0
680,128.5737996375,128.87724054375002,51.0,105.0
681,130.3129236375,130.5955312875,63.0,97.0
682,130.3129236375,130.60730660625,66.0,108.0
683,130.7477046375,130.8563998875,63.0,97.0
684,130.96509513750001,131.20875365625,66.0,117.0
685,130.96509513750001,131.2295869125,63.0,111.0
686,131.3998761375,131.49679606875,63.0,87.0
687,131.6172666375,131.735019825,63.0,102.0
688,131.6172666375,131.83103396250002,66.0,108.0
689,130.5303141375,131.92070754375,58.0,87.0
690,131.83465713750002,131.9288596875,63.0,78.0
691,130.3129236375,131.96327985000002,51.0,102.0
692,132.0520476375,132.5502342,68.0,87.0
693,132.0520476375,132.55295158125,63.0,97.0
694,132.4868286375,132.89443582500002,59.0,52.0
695,132.70421913750002,132.98048623125,63.0,102.0
696,132.70421913750002,133.06472505,68.0,108.0
697,133.1390001375,133.242260625,63.0,73.0
698,132.0520476375,133.40983246875,56.0,105.0
699,132.0520476375,133.5049408125,51.0,45.0
700,133.3563906375,133.51128136875002,63.0,100.0
701,133.3563906375,133.51309295625,68.0,100.0
702,133.7911716375,134.08283722500002,61.0,87.0
703,133.7911716375,134.12178635625,65.0,90.0
704,133.7911716375,134.285735025,68.0,94.0
705,134.4433431375,134.48953861875,61.0,82.0
706,134.0085621375,134.59642228125,56.0,84.0
707,134.4433431375,134.75131301250002,65.0,93.0
708,134.4433431375,134.77033468125,68.0,102.0
709,134.8781241375,134.99315994375002,61.0,105.0
710,135.0955146375,135.18065925000002,61.0,84.0
711,134.66073363750002,135.28482553125,56.0,66.0
712,135.0955146375,135.3092819625,65.0,102.0
713,135.0955146375,135.37178173125,68.0,102.0
714,135.3129051375,135.40076713125,61.0,69.0
715,133.7911716375,135.4795711875,49.0,100.0
716,135.53029563750002,135.99225045,61.0,84.0
717,135.53029563750002,136.01308370625,66.0,97.0
718,135.9650766375,136.28301024375,58.0,73.0
719,136.1824671375,136.4197851,61.0,102.0
720,136.1824671375,136.423408275,70.0,100.0
721,136.1824671375,136.44967629375,66.0,108.0
722,136.6172481375,136.6933348125,61.0,80.0
723,135.53029563750002,136.92612380625002,54.0,92.0
724,136.8346386375,136.98228301875,61.0,97.0
725,137.0520291375,137.155289625,61.0,71.0
726,136.8346386375,137.1679707375,66.0,108.0
727,136.8346386375,137.19786193125,70.0,97.0
728,136.39985763750002,137.21235463125,58.0,55.0
729,137.2694196375,137.4723174375,70.0,89.0
730,137.2694196375,137.75220770625,63.0,92.0
731,137.2694196375,137.7694177875,66.0,100.0
732,137.7042006375,138.05474281875001,58.0,84.0
733,137.9215911375,138.30293030625,63.0,105.0
734,137.9215911375,138.3056476875,70.0,102.0
735,137.9215911375,138.33372729375,66.0,105.0
736,138.5737626375,138.69785638125,63.0,97.0
737,138.35637213750002,138.71778384375,58.0,42.0
738,138.5737626375,138.814703775,66.0,108.0
739,138.5737626375,138.84459496875002,70.0,100.0
740,138.7911531375,138.894413625,63.0,76.0
741,138.7911531375,138.90618894375,58.0,64.0
742,137.2694196375,138.91343529375,51.0,100.0
743,139.0085436375,139.5212229,63.0,100.0
744,139.0085436375,139.539338775,68.0,102.0
745,139.6607151375,139.9433227875,63.0,97.0
746,139.6607151375,140.09277875625,71.0,97.0
747,139.6607151375,140.1027424875,68.0,102.0
748,139.4433246375,140.32737933750002,59.0,52.0
749,139.0085436375,140.35002418125,56.0,100.0
750,140.31288663750001,140.44603831875,68.0,108.0
751,140.31288663750001,140.4578136375,71.0,102.0
752,140.31288663750001,140.47592951250002,63.0,105.0
753,140.7476676375,141.02755790625,61.0,89.0
754,140.7476676375,141.22502094375,65.0,96.0
755,140.7476676375,141.2512889625,68.0,94.0
756,141.18244863750002,141.30291920625,61.0,71.0
757,141.3998391375,141.86179395000002,68.0,100.0
758,141.3998391375,141.86451133125001,61.0,97.0
759,141.3998391375,141.86451133125001,65.0,105.0
760,140.9650581375,142.11813358125002,56.0,51.0
761,142.05201063750002,142.13172048750002,68.0,94.0
762,142.05201063750002,142.1425900125,65.0,105.0
763,140.7476676375,142.1679522375,49.0,102.0
764,142.05201063750002,142.18516231875,61.0,97.0
765,142.4867916375,142.7693992875,58.0,94.0
766,142.4867916375,142.95689859375,62.0,79.0
767,142.4867916375,143.02030415625,65.0,77.0
768,142.92157263750002,143.03932582500002,58.0,82.0
769,142.4867916375,143.3201218875,46.0,73.0
770,143.1389631375,143.37356371875,58.0,111.0
771,143.1389631375,143.41523023125,62.0,105.0
772,143.1389631375,143.49946905000002,65.0,87.0
773,143.5737441375,143.88624298125,53.0,96.0
774,143.7911346375,144.0375105375,58.0,114.0
775,143.7911346375,144.14529999375,62.0,112.0
776,143.7911346375,144.19964761875002,65.0,96.0
777,144.00852513750002,144.28207485000001,53.0,74.0
778,144.2259156375,144.5085232875,63.0,97.0
779,144.2259156375,144.52029860625,66.0,108.0
780,144.6606966375,144.7693918875,63.0,97.0
781,144.87808713750002,145.12174565625,66.0,117.0
782,144.87808713750002,145.1425789125,63.0,111.0
783,145.3128681375,145.40978806875,63.0,87.0
784,145.5302586375,145.648011825,63.0,102.0
785,145.5302586375,145.74402596250002,66.0,108.0
786,144.4433061375,145.83369954375001,58.0,87.0
787,145.74764913750002,145.8418516875,63.0,78.0
788,144.2259156375,145.87627185,51.0,102.0
789,145.9650396375,146.4632262,68.0,87.0
790,145.9650396375,146.46594358125,63.0,97.0
791,146.3998206375,146.80742782500002,59.0,52.0
792,146.61721113750002,146.89347823125001,63.0,102.0
793,146.61721113750002,146.97771705,68.0,108.0
794,147.0519921375,147.155252625,63.0,73.0
795,145.9650396375,147.32282446875,56.0,105.0
796,145.9650396375,147.4179328125,51.0,45.0
797,147.2693826375,147.42427336875,63.0,100.0
798,147.2693826375,147.42608495625,68.0,100.0
799,147.70416363750002,147.995829225,61.0,87.0
800,147.70416363750002,148.03477835625,65.0,90.0
801,147.70416363750002,148.198727025,68.0,94.0
802,148.3563351375,148.40253061875,61.0,82.0
803,147.9215541375,148.50941428125,56.0,84.0
804,148.3563351375,148.6643050125,65.0,93.0
805,148.3563351375,148.68332668125,68.0,102.0
806,148.7911161375,148.90615194375002,61.0,105.0
807,149.0085066375,149.09365125,61.0,84.0
808,148.57372563750002,149.19781753125,56.0,66.0
809,149.0085066375,149.2222739625,65.0,102.0
810,149.0085066375,149.28477373125,68.0,102.0
811,149.2258971375,149.31375913125,61.0,69.0
812,147.70416363750002,149.3925631875,49.0,100.0
813,149.44328763750002,149.90524245,61.0,84.0
814,149.44328763750002,149.92607570625,66.0,97.0
815,149.8780686375,150.19600224375,58.0,73.0
816,150.0954591375,150.33277710000002,61.0,102.0
817,150.0954591375,150.33640027500002,70.0,100.0
818,150.0954591375,150.36266829375,66.0,108.0
819,150.53024013750002,150.60632681250001,61.0,80.0
820,149.44328763750002,150.83911580625002,54.0,92.0
821,150.7476306375,150.89527501875,61.0,97.0
822,150.9650211375,151.068281625,61.0,71.0
823,150.7476306375,151.08096273750002,66.0,108.0
824,150.7476306375,151.11085393125,70.0,97.0
825,150.3128496375,151.12534663125,58.0,55.0
826,151.1824116375,151.3853094375,70.0,89.0
827,151.1824116375,151.66519970625,63.0,92.0
828,151.1824116375,151.6824097875,66.0,100.0
829,151.6171926375,151.96773481875002,58.0,84.0
830,151.8345831375,152.21592230625,63.0,105.0
831,151.8345831375,152.2186396875,70.0,102.0
832,151.8345831375,152.24671929375,66.0,105.0
833,152.4867546375,152.61084838125,63.0,97.0
834,152.26936413750002,152.63077584375,58.0,42.0
835,152.4867546375,152.727695775,66.0,108.0
836,152.4867546375,152.75758696875002,70.0,100.0
837,152.7041451375,152.807405625,63.0,76.0
838,152.7041451375,152.81918094375,58.0,64.0
839,151.1824116375,152.82642729375002,51.0,100.0
840,152.9215356375,153.4342149,63.0,100.0
841,152.9215356375,153.452330775,68.0,102.0
842,153.5737071375,153.8563147875,63.0,97.0
843,153.5737071375,154.00577075625,71.0,97.0
844,153.5737071375,154.0157344875,68.0,102.0
845,153.35631663750002,154.2403713375,59.0,52.0
846,152.9215356375,154.26301618125,56.0,100.0
847,154.22587863750002,154.35903031875,68.0,108.0
848,154.22587863750002,154.3708056375,71.0,102.0
849,154.22587863750002,154.38892151250002,63.0,105.0
850,154.6606596375,154.8889196625,61.0,82.0
851,154.6606596375,154.90431815625,65.0,102.0
852,154.6606596375,155.01482499375,68.0,92.0
853,154.8780501375,155.07098420625002,56.0,82.0
854,154.6606596375,155.08366531875,49.0,100.0
855,155.09544063750002,155.23402708125002,61.0,87.0
856,155.5302216375,155.77931491875,46.0,100.0
857,155.5302216375,155.82460460625,58.0,92.0
858,155.7476121375,155.98855327500002,50.0,116.0
859,155.5302216375,156.024785025,62.0,74.0
860,155.96500263750002,156.21771909375002,53.0,99.0
861,155.5302216375,156.22858861875,65.0,68.0
862,156.18239313750001,156.28837100625,58.0,100.0
863,156.3997836375,156.86445583125,58.0,97.0
864,156.3997836375,156.88981805625002,63.0,105.0
865,157.05195513750002,157.32822223125,58.0,108.0
866,157.05195513750002,157.39706255625,63.0,108.0
867,157.05195513750002,157.4034031125,66.0,102.0
868,157.4867361375,157.61354726250002,58.0,69.0
869,157.7041266375,157.76209743750002,58.0,73.0
870,157.92151713750002,158.0718789,58.0,92.0
871,157.7041266375,158.07369048750002,63.0,105.0
872,157.7041266375,158.09090056875002,66.0,102.0
873,156.3997836375,158.12169755625,51.0,105.0
874,156.8345646375,158.140719225,54.0,58.0
875,158.1389076375,158.60720300625002,66.0,87.0
876,158.5736886375,158.86173105,63.0,82.0
877,158.3562981375,159.10538956875,58.0,64.0
878,158.1389076375,159.184193625,51.0,94.0
879,158.79107913750002,159.234918075,66.0,102.0
880,159.87803163750002,160.09451634375,56.0,78.0
881,159.87803163750002,160.372595025,59.0,84.0
882,160.5302031375,160.67784751875,66.0,44.0
883,160.0954221375,161.27023663125001,51.0,64.0
884,159.87803163750002,161.303751,44.0,73.0
885,160.3128126375,161.5084603875,56.0,87.0
886,160.5302031375,161.53382261250002,59.0,94.0
887,162.0519366375,162.17240720625,61.0,78.0
888,161.8345461375,162.39523246875,56.0,78.0
889,162.2693271375,162.87530315625,65.0,105.0
890,162.2693271375,162.91968705000002,61.0,94.0
891,161.61715563750002,163.14160651875,49.0,94.0
892,163.3562796375,163.6388872875,61.0,73.0
893,163.7910606375,163.8671473125,61.0,51.0
894,163.3562796375,163.8780168375,66.0,84.0
895,164.0084511375,164.51841301875,61.0,94.0
896,164.0084511375,164.51841301875,66.0,102.0
897,163.57367013750002,164.66696319375,58.0,55.0
898,163.3562796375,164.72493399375,54.0,71.0
899,164.6606226375,165.14703388125,61.0,100.0
900,164.6606226375,165.18870039375,66.0,102.0
901,165.5301846375,165.70500283125,63.0,84.0
902,165.31279413750002,166.16424026250002,58.0,89.0
903,165.0954036375,166.2113415375,51.0,78.0
904,165.7475751375,166.21224733125,66.0,108.0
905,165.7475751375,166.2367037625,63.0,102.0
906,166.8345276375,167.10535996875,56.0,76.0
907,166.8345276375,167.33543158125002,59.0,82.0
908,167.26930863750002,167.40246031875,56.0,62.0
909,167.0519181375,167.96314665,51.0,62.0
910,166.8345276375,168.18868929375,44.0,92.0
911,167.4866991375,168.292855575,56.0,71.0
912,167.4866991375,168.40970296875,59.0,89.0
913,167.4866991375,168.9033605625,68.0,92.0
914,169.00843263750002,169.1587944,61.0,92.0
915,168.7910421375,169.33995315,56.0,76.0
916,168.5736516375,169.74212557500002,49.0,94.0
917,169.22582313750002,170.02926219375001,65.0,99.0
918,169.22582313750002,170.0410375125,61.0,89.0
919,170.7475566375,170.865309825,58.0,97.0
920,170.5301661375,171.02925849375,53.0,40.0
921,170.96494713750002,171.220380975,62.0,96.0
922,170.96494713750002,171.24121423125,58.0,100.0
923,170.96494713750002,171.27744598125,65.0,90.0
924,171.1823376375,171.47672060625,53.0,61.0
925,170.3127756375,171.70316904375,46.0,97.0
926,171.3997281375,171.75389349375,58.0,102.0
927,171.6171186375,171.88432779375,50.0,28.0
928,171.3997281375,171.9395812125,62.0,102.0
929,171.83450913750002,171.99392883750002,53.0,96.0
930,172.05189963750001,172.3345072875,63.0,97.0
931,172.05189963750001,172.34628260625,66.0,108.0
932,172.4866806375,172.5953758875,63.0,97.0
933,172.7040711375,172.94772965625,66.0,117.0
934,172.7040711375,172.9685629125,63.0,111.0
935,173.1388521375,173.23577206875,63.0,87.0
936,173.3562426375,173.473995825,63.0,102.0
937,173.3562426375,173.5700099625,66.0,108.0
938,172.2692901375,173.65968354375002,58.0,87.0
939,173.5736331375,173.6678356875,63.0,78.0
940,172.05189963750001,173.70225585,51.0,102.0
941,173.79102363750002,174.2892102,68.0,87.0
942,173.79102363750002,174.29192758125,63.0,97.0
943,174.2258046375,174.633411825,59.0,52.0
944,174.4431951375,174.71946223125002,63.0,102.0
945,174.4431951375,174.80370105,68.0,108.0
946,174.8779761375,174.981236625,63.0,73.0
947,173.79102363750002,175.14880846875002,56.0,105.0
948,173.79102363750002,175.2439168125,51.0,45.0
949,175.0953666375,175.25025736875,63.0,100.0
950,175.0953666375,175.25206895625,68.0,100.0
951,175.53014763750002,175.821813225,61.0,87.0
952,175.53014763750002,175.86076235625,65.0,90.0
953,175.53014763750002,176.02471102500002,68.0,94.0
954,176.1823191375,176.22851461875,61.0,82.0
955,175.74753813750002,176.33539828125,56.0,84.0
956,176.1823191375,176.4902890125,65.0,93.0
957,176.1823191375,176.50931068125,68.0,102.0
958,176.61710013750002,176.73213594375,61.0,105.0
959,176.8344906375,176.91963525,61.0,84.0
960,176.3997096375,177.02380153125,56.0,66.0
961,176.8344906375,177.0482579625,65.0,102.0
962,176.8344906375,177.11075773125,68.0,102.0
963,177.0518811375,177.13974313125001,61.0,69.0
964,175.53014763750002,177.2185471875,49.0,100.0
965,177.2692716375,177.73122645,61.0,84.0
966,177.2692716375,177.75205970625,66.0,97.0
967,177.7040526375,178.02198624375,58.0,73.0
968,177.9214431375,178.15876110000002,61.0,102.0
969,177.9214431375,178.16238427500002,70.0,100.0
970,177.9214431375,178.18865229375,66.0,108.0
971,178.35622413750002,178.43231081250002,61.0,80.0
972,177.2692716375,178.66509980625,54.0,92.0
973,178.57361463750001,178.72125901875,61.0,97.0
974,178.7910051375,178.894265625,61.0,71.0
975,178.57361463750001,178.90694673750002,66.0,108.0
976,178.57361463750001,178.93683793125,70.0,97.0
977,178.1388336375,178.95133063125002,58.0,55.0
978,179.0083956375,179.21129343750002,70.0,89.0
979,179.0083956375,179.49118370625,63.0,92.0
980,179.0083956375,179.5083937875,66.0,100.0
981,179.44317663750002,179.79371881875002,58.0,84.0
982,179.6605671375,180.04190630625,63.0,105.0
983,179.6605671375,180.0446236875,70.0,102.0
984,179.6605671375,180.07270329375,66.0,105.0
985,180.31273863750002,180.43683238125,63.0,97.0
986,180.0953481375,180.45675984375,58.0,42.0
987,180.31273863750002,180.553679775,66.0,108.0
988,180.31273863750002,180.58357096875,70.0,100.0
989,180.5301291375,180.633389625,63.0,76.0
990,180.5301291375,180.64516494375002,58.0,64.0
991,179.0083956375,180.65241129375002,51.0,100.0
992,180.7475196375,181.2601989,63.0,100.0
993,180.7475196375,181.278314775,68.0,102.0
994,181.3996911375,181.6822987875,63.0,97.0
995,181.3996911375,181.83175475625,71.0,97.0
996,181.3996911375,181.8417184875,68.0,102.0
997,181.18230063750002,182.0663553375,59.0,52.0
998,180.7475196375,182.08900018125001,56.0,100.0
999,182.05186263750002,182.18501431875,68.0,108.0
1000,182.05186263750002,182.19678963750002,71.0,102.0
1001,182.05186263750002,182.2149055125,63.0,105.0
1002,182.4866436375,182.7149036625,61.0,82.0
1003,182.4866436375,182.73030215625002,65.0,102.0
1004,182.4866436375,182.84080899375002,68.0,92.0
1005,182.7040341375,182.89696820625002,56.0,82.0
1006,182.4866436375,182.90964931875,49.0,100.0
1007,182.9214246375,183.06001108125,61.0,87.0
1008,183.3562056375,183.60529891875,46.0,100.0
1009,183.3562056375,183.65058860625,58.0,92.0
1010,183.5735961375,183.81453727500002,50.0,116.0
1011,183.3562056375,183.850769025,62.0,74.0
1012,183.7909866375,184.04370309375,53.0,99.0
1013,183.3562056375,184.05457261875,65.0,68.0
1014,184.00837713750002,184.11435500625,58.0,100.0
1015,184.2257676375,184.69043983125002,58.0,97.0
1016,184.2257676375,184.71580205625,63.0,105.0
1017,184.87793913750002,185.15420623125001,58.0,108.0
1018,184.87793913750002,185.22304655625,63.0,108.0
1019,184.87793913750002,185.2293871125,66.0,102.0
1020,185.3127201375,185.4395312625,58.0,69.0
1021,185.5301106375,185.58808143750002,58.0,73.0
1022,185.7475011375,185.8978629,58.0,92.0
1023,185.5301106375,185.89967448750002,63.0,105.0
1024,185.5301106375,185.91688456875002,66.0,102.0
1025,184.2257676375,185.94768155625002,51.0,105.0
1026,184.6605486375,185.966703225,54.0,58.0
1027,185.96489163750002,186.2474992875,63.0,97.0
1028,185.96489163750002,186.25927460625002,66.0,108.0
1029,186.3996726375,186.50836788750001,63.0,97.0
1030,186.6170631375,186.86072165625,66.0,117.0
1031,186.6170631375,186.8815549125,63.0,111.0
1032,187.0518441375,187.14876406875,63.0,87.0
1033,187.2692346375,187.386987825,63.0,102.0
1034,187.2692346375,187.4830019625,66.0,108.0
1035,186.1822821375,187.57267554375002,58.0,87.0
1036,187.4866251375,187.5808276875,63.0,78.0
1037,185.96489163750002,187.61524785,51.0,102.0
1038,187.70401563750002,188.20220220000002,68.0,87.0
1039,187.70401563750002,188.20491958125,63.0,97.0
1040,188.1387966375,188.546403825,59.0,52.0
1041,188.3561871375,188.63245423125002,63.0,102.0
1042,188.3561871375,188.71669305,68.0,108.0
1043,188.79096813750002,188.894228625,63.0,73.0
1044,187.70401563750002,189.06180046875002,56.0,105.0
1045,187.70401563750002,189.1569088125,51.0,45.0
1046,189.0083586375,189.16324936875,63.0,100.0
1047,189.0083586375,189.16506095625002,68.0,100.0
1048,189.4431396375,189.734805225,61.0,87.0
1049,189.4431396375,189.77375435625,65.0,90.0
1050,189.4431396375,189.93770302500002,68.0,94.0
1051,190.0953111375,190.14150661875001,61.0,82.0
1052,189.66053013750002,190.24839028125,56.0,84.0
1053,190.0953111375,190.4032810125,65.0,93.0
1054,190.0953111375,190.42230268125002,68.0,102.0
1055,190.53009213750002,190.64512794375,61.0,105.0
1056,190.7474826375,190.83262725,61.0,84.0
1057,190.3127016375,190.93679353125,56.0,66.0
1058,190.7474826375,190.9612499625,65.0,102.0
1059,190.7474826375,191.02374973125,68.0,102.0
1060,190.9648731375,191.05273513125002,61.0,69.0
1061,189.4431396375,191.1315391875,49.0,100.0
1062,191.1822636375,191.64421845,61.0,84.0
1063,191.1822636375,191.66505170625,66.0,97.0
1064,191.61704463750002,191.93497824375,58.0,73.0
1065,191.8344351375,192.07175310000002,61.0,102.0
1066,191.8344351375,192.075376275,70.0,100.0
1067,191.8344351375,192.10164429375,66.0,108.0
1068,192.2692161375,192.34530281250002,61.0,80.0
1069,191.1822636375,192.57809180625,54.0,92.0
1070,192.48660663750002,192.63425101875,61.0,97.0
1071,192.7039971375,192.807257625,61.0,71.0
1072,192.48660663750002,192.8199387375,66.0,108.0
1073,192.48660663750002,192.84982993125,70.0,97.0
1074,192.0518256375,192.86432263125002,58.0,55.0
1075,192.9213876375,193.12428543750002,70.0,89.0
1076,192.9213876375,193.40417570625002,63.0,92.0
1077,192.9213876375,193.42138578750001,66.0,100.0
1078,193.35616863750002,193.70671081875,58.0,84.0
1079,193.5735591375,193.95489830625002,63.0,105.0
1080,193.83895670625,193.95489830625002,63.0,105.0
1081,193.5735591375,193.9576156875,70.0,102.0
1082,193.83895670625,193.9576156875,70.0,102.0
1083,193.5735591375,193.98569529375,66.0,105.0
1084,193.83895670625,193.98569529375,66.0,105.0
1085,194.22573063750002,194.34982438125002,63.0,97.0
1086,194.22573063750002,194.34982438125002,63.0,97.0
1087,194.0083401375,194.36975184375,58.0,42.0
1088,194.0083401375,194.36975184375,58.0,42.0
1089,194.22573063750002,194.466671775,66.0,108.0
1090,194.22573063750002,194.466671775,66.0,108.0
1091,194.22573063750002,194.49656296875,70.0,100.0
1092,194.22573063750002,194.49656296875,70.0,100.0
1093,194.44312113750001,194.546381625,63.0,76.0
1094,194.44312113750001,194.546381625,63.0,76.0
1095,194.44312113750001,194.55815694375002,58.0,64.0
1096,194.44312113750001,194.55815694375002,58.0,64.0
1097,192.9213876375,194.56540329375002,51.0,100.0
1098,193.83895670625,194.56540329375002,51.0,100.0
1099,194.6605116375,195.1731909,63.0,100.0
1100,194.6605116375,195.19130677500002,68.0,102.0
1101,195.31268313750002,195.5952907875,63.0,97.0
1102,195.31268313750002,195.74474675625,71.0,97.0
1103,195.31268313750002,195.7547104875,68.0,102.0
1104,195.09529263750002,195.9793473375,59.0,52.0
1105,194.6605116375,196.00199218125002,56.0,100.0
1106,195.9648546375,196.09800631875,68.0,108.0
1107,195.9648546375,196.10978163750002,71.0,102.0
1108,195.9648546375,196.1278975125,63.0,105.0
1109,196.3996356375,196.93314815625,62.0,102.0
1110,196.8344166375,196.96122776250002,58.0,102.0
1111,196.6170261375,197.09709682500002,53.0,57.0
1112,197.05180713750002,197.386950825,58.0,94.0
1113,197.05180713750002,197.39147979375002,62.0,105.0
1114,197.05180713750002,197.40053773125,65.0,90.0
1115,197.2691976375,197.5518052875,53.0,68.0
1116,197.4865881375,197.76647840625,58.0,102.0
1117,197.7039786375,197.83350714375,50.0,17.0
1118,197.4865881375,197.94582556875,62.0,87.0
1119,197.4865881375,197.97843414375,65.0,79.0
1120,196.3996356375,198.0083253375,46.0,97.0
1121,197.92136913750002,198.06357875625,58.0,57.0
1122,197.92136913750002,198.0844120125,53.0,25.0
1123,198.13875963750002,198.618830325,46.0,100.0
1124,198.13875963750002,198.92136543750001,58.0,97.0
1125,198.13875963750002,198.93948131250002,62.0,93.0
1126,198.13875963750002,198.94763345625,70.0,84.0
1127,198.13875963750002,198.96937250625,65.0,85.0
1128,201.0916472625,201.35613903750001,63.0,44.0
1129,201.29454506250002,201.61066708125,65.0,68.0
1130,201.56718898125,201.99019466250002,66.0,78.0
1131,200.85161191875002,202.23294738750002,58.0,47.0
1132,202.4141061375,205.713006975,63.0,49.0
1133,201.923165925,205.7528619,70.0,87.0
1134,200.5644753,205.76826039375,51.0,89.0
