,start,end,pitch,velocity
0,49.20068345416667,49.46155295416667,71.0,90.0
1,49.54850945416667,49.79850939166667,71.0,86.0
2,49.89633545416667,50.18111799166667,71.0,91.0
3,50.24423738750001,50.49096205833334,71.0,93.0
4,50.593582054166674,50.879608000000005,71.0,100.0
5,50.94292672083334,51.285721175000006,68.0,85.0
6,51.29227138750001,52.73331813750001,75.0,91.0
7,53.388339387500004,53.739867458333336,83.0,86.0
8,53.73768405416667,54.04991085,82.0,87.0
9,54.08702872083334,54.373054666666675,80.0,84.0
10,54.436373387500005,54.698381887500005,78.0,86.0
11,54.78571805416667,55.03680953333334,75.0,90.0
12,55.13506272083334,55.438555900000004,78.0,85.0
13,55.484407387500006,56.56955925833334,75.0,95.0
14,56.881786054166675,57.12632732083334,78.0,85.0
15,57.23113072083334,57.44728773333334,75.0,87.0
16,57.58047538750001,57.805366016666675,73.0,85.0
17,57.929820054166676,58.16344430000001,73.0,80.0
18,58.279164720833336,58.54117322083334,73.0,82.0
19,58.6285093875,58.87523405833334,71.0,88.0
20,58.97785405416667,59.20929489583334,73.0,85.0
21,59.32719872083334,59.60885785833334,68.0,89.0
22,59.676543387500004,59.92763486666667,78.0,85.0
23,60.02588805416667,60.26387910833334,78.0,85.0
24,60.37523272083334,60.67217568750001,78.0,90.0
25,60.724577387500005,60.94510120833334,75.0,86.0
26,61.07392205416667,61.283528854166676,73.0,82.0
27,61.42326672083334,61.702742454166675,75.0,85.0
28,61.77261138750001,62.00186882500001,73.0,84.0
29,62.121956054166674,62.35776370416667,73.0,84.0
30,62.47130072083334,62.70274156250001,73.0,88.0
31,62.82064538750001,63.056453037500006,75.0,91.0
32,63.169990054166675,63.42326493750001,73.0,85.0
33,63.51933472083334,63.76605939166667,68.0,85.0
34,63.86867938750001,65.51059932083334,70.0,85.0
35,65.96474738750001,66.2267558875,71.0,84.0
36,66.31409205416668,66.53461587500001,71.0,79.0
37,66.66343672083335,66.92544522083334,71.0,87.0
38,67.01278138750001,67.23330520833335,71.0,85.0
39,67.36212605416668,67.58701668333335,71.0,88.0
40,67.71147072083335,67.98439624166667,68.0,85.0
41,68.06081538750001,69.46256086250001,75.0,91.0
42,70.15688338750002,70.40142465416668,83.0,86.0
43,70.50622805416667,70.7595029375,82.0,87.0
44,70.85557272083334,71.1590659,80.0,90.0
45,71.2049173875,71.486576525,78.0,85.0
46,71.55426205416667,71.81190374583335,75.0,90.0
47,71.90360672083334,72.2136501125,78.0,90.0
48,72.2529513875,73.33155304583335,75.0,93.0
49,73.65033005416667,73.88613770416667,78.0,85.0
50,73.99967472083334,74.23111556250001,75.0,89.0
51,74.34901938750001,74.58264363333333,73.0,85.0
52,74.69836405416667,74.90360404583333,73.0,85.0
53,75.04770872083334,75.27914956250001,73.0,84.0
54,75.39705338750001,75.65251167500001,71.0,88.0
55,75.74639805416668,76.00403974583334,73.0,85.0
56,76.09574272083334,76.3795852625,68.0,79.0
57,76.44508738750001,76.68089503750001,78.0,85.0
58,76.79443205416668,77.03023970416668,78.0,86.0
59,77.14377672083334,77.36648394583334,78.0,86.0
60,77.49312138750001,77.72892903750001,75.0,90.0
61,77.84246605416668,78.09137412916667,73.0,88.0
62,78.19181072083335,78.4363519875,75.0,98.0
63,78.54115538750001,78.79224686666667,82.0,84.0
64,78.89050005416668,79.08918983333334,82.0,85.0
65,79.23984472083335,79.45818513750001,82.0,81.0
66,79.58918938750001,79.83373065416667,83.0,85.0
67,79.93853405416668,80.15032425833334,82.0,86.0
68,80.28787872083335,80.5586208375,80.0,86.0
69,80.6372233875,82.51931777916667,82.0,88.0
70,82.73319647083333,82.99189205833333,83.0,86.0
71,83.08102247083333,83.32015284583333,82.0,86.0
72,83.42884847083334,83.65493537083334,80.0,86.0
73,83.77667447083334,84.08537004583334,78.0,90.0
74,84.12450047083334,84.39841344583334,71.0,90.0
75,84.47232647083334,84.78102204583334,73.0,88.0
76,84.82015247083334,86.21145647083334,75.0,90.0
77,86.90710847083334,87.20058665833334,80.0,86.0
78,87.25493447083333,87.47449963333334,78.0,85.0
79,87.60276047083335,87.80058650833334,80.0,85.0
80,87.95058647083334,88.17232554583333,83.0,91.0
81,88.29841247083334,88.53319502083333,71.0,84.0
82,88.64623847083334,88.89406449583333,78.0,85.0
83,88.99406447083334,90.23971633333333,75.0,88.0
84,90.38536847083334,90.63536840833333,78.0,86.0
85,90.73319447083334,90.97232484583334,75.0,90.0
86,91.0811438625,91.323501725,73.0,86.0
87,91.43048852916667,91.65974596666666,73.0,86.0
88,91.77983319583333,92.03965829166667,73.0,84.0
89,92.1291778625,92.38900295833334,71.0,85.0
90,92.47852252916667,92.77546549583333,73.0,84.0
91,92.82786719583333,93.1248101625,68.0,89.0
92,93.1772118625,93.40210249166667,71.0,85.0
93,93.52655652916667,93.74708035,71.0,85.0
94,93.87590119583334,94.14227650416666,71.0,88.0
95,94.2252458625,94.43485266249999,73.0,85.0
96,94.57459052916667,94.82568200833333,75.0,91.0
97,94.92393519583334,95.15755944166666,83.0,88.0
98,95.2732798625,95.53310495833333,82.0,84.0
99,95.62262452916667,95.82568111666667,83.0,86.0
100,95.97196919583334,96.18157599583333,82.0,79.0
101,96.3213138625,96.58768917083333,83.0,84.0
102,96.67065852916667,96.930483625,82.0,88.0
103,97.02000319583334,97.26017765416667,80.0,89.0
104,97.3693478625,99.27982650833333,82.0,90.0
105,99.4654158625,99.72524095833333,83.0,86.0
106,99.81476052916666,100.0549349875,82.0,86.0
107,100.16410519583333,100.39117922916667,80.0,86.0
108,100.5134498625,100.82349325416666,78.0,90.0
109,100.86279452916666,101.13790345416666,71.0,90.0
110,101.21213919583333,101.5221825875,73.0,88.0
111,101.5614838625,102.95886252916667,75.0,90.0
112,103.6575518625,103.952311425,80.0,86.0
113,104.00689652916667,104.22742035,78.0,85.0
114,104.35624119583333,104.554930975,80.0,85.0
115,104.7055858625,104.9282930875,83.0,91.0
116,105.05493052916667,105.29073817916667,71.0,84.0
117,105.40427519583334,105.65318327083334,78.0,85.0
118,105.7536198625,107.00471045,75.0,88.0
119,107.15099852916667,107.40209000833333,78.0,86.0
120,107.50034319583334,107.74051765416667,75.0,90.0
121,107.8496878625,108.092045725,73.0,86.0
122,108.19903252916667,108.42828996666667,73.0,86.0
123,108.54837719583334,108.80820229166667,73.0,84.0
124,108.89772186249999,109.15754695833334,71.0,85.0
125,109.24706652916666,109.54400949583334,73.0,84.0
126,109.59641119583333,109.8933541625,68.0,89.0
127,109.9457558625,110.17064649166667,71.0,85.0
128,110.29510052916666,110.51562435,71.0,85.0
129,110.64444519583333,110.91082050416667,71.0,88.0
130,110.9937898625,111.2033966625,73.0,85.0
131,111.34313452916666,111.59422600833334,75.0,91.0
132,111.69247919583333,111.92610344166667,83.0,88.0
133,112.0418238625,112.30164895833333,82.0,84.0
134,112.39116852916666,112.59422511666666,83.0,86.0
135,112.74051319583333,112.95011999583333,82.0,79.0
136,113.0898578625,113.35623317083333,83.0,84.0
137,113.43920252916666,113.699027625,82.0,88.0
138,113.78854719583333,114.02872165416667,80.0,89.0
139,114.1378918625,116.04837050833333,80.0,90.0
140,141.3455694625,141.60757796250002,71.0,90.0
141,141.69491412916668,141.94600560833337,71.0,86.0
142,142.04425879583334,142.33028474166667,71.0,91.0
143,142.3936034625,142.64032813333336,71.0,93.0
144,142.74294812916668,143.028974075,71.0,100.0
145,143.09229279583334,143.43508725,68.0,85.0
146,143.4416374625,144.8826842125,75.0,91.0
147,145.5377054625,145.88923353333337,83.0,86.0
148,145.88705012916668,146.19927692500002,82.0,87.0
149,146.23639479583335,146.52242074166668,80.0,84.0
150,146.58573946250002,146.84774796250002,78.0,86.0
151,146.93508412916668,147.18617560833334,75.0,90.0
152,147.28442879583335,147.58792197500003,78.0,85.0
153,147.63377346250002,148.71892533333335,75.0,95.0
154,149.03115212916668,149.27569339583334,78.0,85.0
155,149.38049679583335,149.59665380833334,75.0,87.0
156,149.72984146250002,149.9547320916667,73.0,85.0
157,150.0791861291667,150.31281037500003,73.0,80.0
158,150.42853079583335,150.69053929583336,73.0,82.0
159,150.77787546250002,151.02460013333337,71.0,88.0
160,151.1272201291667,151.35866097083334,73.0,85.0
161,151.47656479583335,151.75822393333334,68.0,89.0
162,151.82590946250002,152.076108725,78.0,85.0
163,152.1739347875,152.41089125000002,78.0,85.0
164,152.5217607875,152.8174128875,78.0,90.0
165,152.8695867875,153.08915195,75.0,86.0
166,153.2174127875,153.42610838750002,73.0,82.0
167,153.56523878750002,153.84349958750002,75.0,85.0
168,153.91306478750002,154.14132560000002,73.0,84.0
169,154.26089078750002,154.49567333750002,73.0,84.0
170,154.60871678750001,154.8391515125,73.0,88.0
171,154.9565427875,155.19132533750002,75.0,91.0
172,155.3043687875,155.5565426375,73.0,85.0
173,155.6521947875,155.89784690000002,68.0,85.0
174,156.0000207875,157.63480298750002,70.0,85.0
175,158.08697678750002,158.34812154583335,71.0,84.0
176,158.4354577125,158.65598153333335,71.0,79.0
177,158.78480237916668,159.04681087916669,71.0,87.0
178,159.13414704583334,159.35467086666668,71.0,85.0
179,159.4834917125,159.7083823416667,71.0,88.0
180,159.83283637916668,160.1057619,68.0,85.0
181,160.18218104583335,161.58392652083336,75.0,91.0
182,162.27824904583335,162.5227903125,83.0,86.0
183,162.62759371250002,162.88086859583333,82.0,87.0
184,162.97693837916668,163.28043155833336,80.0,90.0
185,163.32628304583335,163.60794218333334,78.0,85.0
186,163.67562771250002,163.93326940416668,75.0,90.0
187,164.02497237916668,164.33501577083334,78.0,90.0
188,164.37431704583335,165.45291870416668,75.0,93.0
189,165.77169571250002,166.00750336250002,78.0,85.0
190,166.1210403791667,166.35248122083334,75.0,89.0
191,166.47038504583335,166.7040092916667,73.0,85.0
192,166.81972971250002,167.0249697041667,73.0,85.0
193,167.1690743791667,167.40051522083334,73.0,84.0
194,167.51841904583335,167.77387733333336,71.0,88.0
195,167.86776371250002,168.12540540416668,73.0,85.0
196,168.2171083791667,168.50095092083336,68.0,79.0
197,168.56645304583336,168.80226069583335,78.0,85.0
198,168.91579771250002,169.15160536250002,78.0,86.0
199,169.2651423791667,169.48784960416668,78.0,86.0
200,169.61448704583336,169.85029469583336,75.0,90.0
201,169.96383171250002,170.21273978750003,73.0,88.0
202,170.3131763791667,170.55771764583335,75.0,98.0
203,170.66252104583336,170.91361252500002,82.0,84.0
204,171.01186571250003,171.2105554916667,82.0,85.0
205,171.3612103791667,171.57955079583334,82.0,81.0
206,171.71055504583336,171.95509631250002,83.0,85.0
207,172.05989971250003,172.27168991666667,82.0,86.0
208,172.4092443791667,172.67998649583336,80.0,86.0
209,172.75858904583336,174.6406834375,82.0,88.0
210,174.85465704583333,175.11448214166668,83.0,86.0
211,175.20400171250003,175.44417617083334,82.0,86.0
212,175.55334637916667,175.7804204125,80.0,86.0
213,175.90269104583336,176.21273443750002,78.0,90.0
214,176.2520357125,176.52714463750002,71.0,90.0
215,176.6013803791667,176.91142377083335,73.0,88.0
216,176.95072504583334,178.3481037125,75.0,90.0
217,179.04679304583334,179.34155260833336,80.0,86.0
218,179.3961377125,179.61666153333334,78.0,85.0
219,179.74548237916667,179.94417215833334,80.0,85.0
220,180.09482704583334,180.31753427083333,83.0,91.0
221,180.4441717125,180.6799793625,71.0,84.0
222,180.79351637916668,181.04242445416668,78.0,85.0
223,181.14286104583334,182.39395163333336,75.0,88.0
224,182.5402397125,182.79133119166667,78.0,86.0
225,182.88958437916668,183.12975883750002,75.0,90.0
226,183.23892904583334,183.48128690833335,73.0,86.0
227,183.5882737125,183.81753115,73.0,86.0
228,183.93761837916668,184.19744347500003,73.0,84.0
229,184.28696304583335,184.5467881416667,71.0,85.0
230,184.6363077125,184.9332506791667,73.0,84.0
231,184.98565237916668,185.28259534583336,68.0,89.0
232,185.33499704583335,185.55988767500003,71.0,85.0
233,185.68434171250001,185.90486553333335,71.0,85.0
234,186.03368637916668,186.3000616875,71.0,88.0
235,186.38303104583335,186.59263784583334,73.0,85.0
236,186.73237571250002,186.98346719166668,75.0,91.0
237,187.08172037916668,187.31534462500002,83.0,88.0
238,187.43106504583335,187.69089014166667,82.0,84.0
239,187.78040971250002,187.98346630000003,83.0,86.0
240,188.12975437916668,188.33936117916667,82.0,79.0
241,188.47886175416667,188.74407907916668,83.0,84.0
242,188.82668775416667,189.08538334166667,82.0,88.0
243,189.17451375416667,189.41364412916667,80.0,89.0
244,189.52233975416667,191.42451319166668,82.0,90.0
245,191.60929575416668,191.86799134166668,83.0,86.0
246,191.95712175416668,192.19625212916668,82.0,86.0
247,192.30494775416668,192.53103465416666,80.0,86.0
248,192.65277375416667,192.96146932916668,78.0,90.0
249,193.00059975416667,193.27451272916667,71.0,90.0
250,193.34842575416667,193.65712132916667,73.0,88.0
251,193.69631819583333,195.0936968625,75.0,90.0
252,195.79238619583333,196.08714575833332,80.0,86.0
253,196.1417308625,196.36225468333333,78.0,85.0
254,196.49107552916666,196.68976530833334,80.0,85.0
255,196.84042019583333,197.06312742083333,83.0,91.0
256,197.1897648625,197.4255725125,71.0,84.0
257,197.53910952916667,197.78801760416667,78.0,85.0
258,197.88845419583333,199.13954478333332,75.0,88.0
259,199.2858328625,199.53692434166666,78.0,86.0
260,199.63517752916667,199.8753519875,75.0,90.0
261,199.98452219583334,200.22688005833334,73.0,86.0
262,200.3338668625,200.5631243,73.0,86.0
263,200.68321152916667,200.943036625,73.0,84.0
264,201.03255619583334,201.29238129166666,71.0,85.0
265,201.3819008625,201.67884382916668,73.0,84.0
266,201.73124552916667,202.02818849583332,68.0,89.0
267,202.08059019583334,202.305480825,71.0,85.0
268,202.4299348625,202.65045868333334,71.0,85.0
269,202.77927952916667,203.0456548375,71.0,88.0
270,203.12862419583334,203.33823099583333,73.0,85.0
271,203.4779688625,203.72906034166667,75.0,91.0
272,203.82731352916667,204.060937775,83.0,88.0
273,204.17665819583334,204.43648329166666,82.0,84.0
274,204.5260028625,204.72905945,83.0,86.0
275,204.87534752916667,205.08495432916666,82.0,79.0
276,205.22469219583334,205.49106750416667,83.0,84.0
277,205.5740368625,205.83386195833333,82.0,88.0
278,205.92338152916668,206.1635559875,80.0,89.0
279,206.27272619583334,208.18320484166668,80.0,90.0
280,212.54710083749998,212.80579642499998,84.0,86.0
281,212.89492683749998,213.13405721249998,83.0,86.0
282,213.24275283749998,213.4688397375,81.0,86.0
283,213.5905788375,213.89927441249998,79.0,90.0
284,213.9384048375,214.2123178125,72.0,90.0
285,214.2862308375,214.5949264125,74.0,88.0
286,214.6340568375,216.0253608375,76.0,90.0
287,216.72101283749998,217.01449102499998,81.0,86.0
288,217.06883883749998,217.28840399999999,79.0,85.0
289,217.41666483749998,217.614490875,81.0,85.0
290,217.76449083749998,217.9862299125,84.0,91.0
291,218.1123168375,218.34709938749998,72.0,84.0
292,218.4601428375,218.7079688625,79.0,85.0
293,218.8079688375,220.05362069999998,76.0,88.0
294,220.1992728375,220.449272775,79.0,86.0
295,220.5470988375,220.7862292125,76.0,90.0
296,220.89492483749999,221.136229125,74.0,86.0
297,221.24275083749998,221.47101164999998,74.0,86.0
298,221.59057683749998,221.850126675,74.0,84.0
299,221.93964624583333,222.19947134166668,72.0,85.0
300,222.2889909125,222.58593387916667,74.0,84.0
301,222.63833557916666,222.93527854583334,69.0,89.0
302,222.98768024583333,223.212570875,72.0,85.0
303,223.3370249125,223.55754873333333,72.0,85.0
304,223.68636957916667,223.9527448875,72.0,88.0
305,224.03571424583333,224.24532104583332,74.0,85.0
306,224.3850589125,224.63615039166666,76.0,91.0
307,224.73440357916667,224.968027825,84.0,88.0
308,225.08374824583333,225.34357334166666,83.0,84.0
309,225.4330929125,225.6361495,84.0,86.0
310,225.78243757916667,225.99204437916666,83.0,79.0
311,226.13178224583334,226.39815755416666,84.0,84.0
312,226.4811269125,226.74095200833332,83.0,88.0
313,226.83047157916667,227.0706460375,81.0,89.0
314,227.17981624583334,229.09029489166667,83.0,90.0
315,229.27588424583334,229.53570934166666,84.0,86.0
316,229.6252289125,229.86540337083335,83.0,86.0
317,229.97457357916667,230.2016476125,81.0,86.0
318,230.32391824583334,230.6339616375,79.0,90.0
319,230.6732629125,230.9483718375,72.0,90.0
320,231.02260757916667,231.33265097083333,74.0,88.0
321,231.37195224583334,232.7693309125,76.0,90.0
322,233.46802024583334,233.76277980833333,81.0,86.0
323,233.8173649125,234.03788873333335,79.0,85.0
324,234.16670957916668,234.36539935833332,81.0,85.0
325,234.51605424583335,234.73876147083334,84.0,91.0
326,234.8653989125,235.1012065625,72.0,84.0
327,235.21474357916668,235.46365165416665,79.0,85.0
328,235.56408824583335,236.81517883333333,76.0,88.0
329,236.96146691250001,237.21255839166668,79.0,86.0
330,237.31081157916668,237.5509860375,76.0,90.0
331,237.66015624583332,237.90251410833332,74.0,86.0
332,238.00950091250002,238.23875835,74.0,86.0
333,238.35884557916665,238.618670675,74.0,84.0
334,238.70819024583335,238.96801534166667,72.0,85.0
335,239.0575349125,239.35447787916667,74.0,84.0
336,239.40687957916668,239.70382254583333,69.0,89.0
337,239.75622424583332,239.981114875,72.0,85.0
338,240.1055689125,240.32609273333333,72.0,85.0
339,240.45491357916666,240.7212888875,72.0,88.0
340,240.80425824583332,241.01386504583334,74.0,85.0
341,241.1536029125,241.40469439166668,76.0,91.0
342,241.50294757916666,241.736571825,84.0,88.0
343,241.85229224583333,242.11211734166667,83.0,84.0
344,242.2016369125,242.4046935,84.0,86.0
345,242.55098157916666,242.76058837916668,83.0,79.0
346,242.90032624583333,243.16670155416668,84.0,84.0
347,243.2496709125,243.50949600833334,83.0,88.0
348,243.59901557916666,243.8391900375,81.0,89.0
349,243.94836024583333,245.85883889166666,81.0,90.0
