,start,end,pitch,velocity
0,1.2215908520833334,8.312936675,44.0,68.0
1,1.5034964333333334,8.828670916666667,51.0,66.0
2,1.69798943125,9.217656912499999,56.0,70.0
3,1.8924824291666666,9.232954114583332,63.0,60.0
4,1.8444055083333333,9.235139429166667,59.0,54.0
5,9.455856202083334,11.173513464583333,56.0,68.0
6,9.455856202083334,11.3942302375,59.0,69.0
7,9.455856202083334,11.42700995625,44.0,73.0
8,11.553758202083333,13.3610133625,42.0,62.0
9,11.553758202083333,13.457167204166666,58.0,68.0
10,11.553758202083333,13.581730135416667,54.0,57.0
11,13.651660202083333,15.29501676875,52.0,68.0
12,13.651660202083333,15.568181091666666,56.0,75.0
13,13.651660202083333,15.644667102083334,40.0,70.0
14,15.749562202083332,17.3732509375,42.0,71.0
15,15.749562202083332,17.596153025,54.0,67.0
16,15.749562202083332,17.674824349999998,58.0,71.0
17,17.49781386875,17.83872294375,42.0,71.0
18,17.847464202083334,19.56512146458333,56.0,68.0
19,17.847464202083334,19.7858382375,59.0,69.0
20,17.847464202083334,19.818617956249998,44.0,73.0
21,19.94536620208333,21.7526213625,42.0,62.0
22,19.94536620208333,21.848775204166667,58.0,68.0
23,19.94536620208333,21.973338135416665,54.0,57.0
24,22.043268202083333,23.68662476875,52.0,68.0
25,22.043268202083333,23.959789091666668,56.0,75.0
26,22.043268202083333,24.036275102083334,40.0,70.0
27,24.141170202083334,25.747780160416664,42.0,71.0
28,24.141170202083334,25.967607585416665,54.0,67.0
29,24.141170202083334,26.045193735416664,58.0,71.0
30,25.870624897916663,26.206831547916664,42.0,71.0
31,26.899581272916667,27.3600652125,56.0,88.0
32,26.55770093958333,27.4386677625,51.0,83.0
33,26.215452231249998,27.68320902916667,44.0,89.0
34,27.2421613875,27.838230725,59.0,84.0
35,27.2421613875,28.281461770833335,63.0,86.0
36,27.940850720833335,28.307662620833334,56.0,86.0
37,28.988884720833333,29.45176640416667,54.0,90.0
38,29.3382293875,29.7443425625,61.0,84.0
39,28.639540054166666,29.919014895833335,49.0,79.0
40,28.2901953875,29.934298725,42.0,87.0
41,29.687574054166667,30.095870633333334,54.0,86.0
42,29.3382293875,30.20940765,66.0,85.0
43,30.036918720833334,30.3469621125,61.0,78.0
44,30.3862633875,31.122070591666667,59.0,78.0
45,31.084952720833336,31.48888249166667,56.0,84.0
46,30.3862633875,31.512899937500002,40.0,87.0
47,30.73560805416667,31.5522012125,47.0,74.0
48,31.434297387500003,32.030366725,64.0,86.0
49,31.434297387500003,32.06093438333333,59.0,86.0
50,32.482331387500004,32.5740343625,63.0,60.0
51,32.831676054166664,33.53254879166667,54.0,85.0
52,33.18102072083333,33.574033470833335,59.0,90.0
53,32.482331387500004,33.938661966666665,47.0,89.0
54,33.879710054166665,34.3032904625,54.0,77.0
55,34.22905472083333,34.39281003333333,59.0,71.0
56,33.5303653875,34.39281003333333,63.0,86.0
57,34.5783993875,34.783639379166665,56.0,85.0
58,34.5783993875,34.90809341666667,61.0,85.0
59,34.927744054166666,35.45831126666667,56.0,79.0
60,35.27708872083333,35.51289637083333,64.0,73.0
61,35.6264333875,35.8622410375,56.0,85.0
62,35.6264333875,35.908092525,64.0,84.0
63,35.6264333875,36.25307038333334,68.0,84.0
64,35.97577805416667,36.281454637500005,64.0,68.0
65,35.97577805416667,36.325122720833335,61.0,80.0
66,34.5783993875,36.35787378333333,49.0,86.0
67,36.325122720833335,36.5696639875,56.0,85.0
68,36.6744673875,37.02381205416667,56.0,80.0
69,36.6744673875,37.270536725,59.0,77.0
70,36.6744673875,37.30547119166667,63.0,84.0
71,37.373156720833336,37.52162820416667,56.0,72.0
72,37.02381205416667,37.80938195416667,51.0,75.0
73,36.6744673875,38.11155579166667,44.0,86.0
74,37.72242545416667,38.18112099166667,56.0,86.0
75,37.72242545416667,38.22025141666667,59.0,95.0
76,37.72242545416667,38.268077491666666,63.0,86.0
77,38.070251454166666,38.363729641666666,51.0,79.0
78,38.41807745416667,38.55938176666667,44.0,83.0
79,38.76590345416667,39.13764249166667,58.0,81.0
80,38.76590345416667,39.53546847916667,63.0,84.0
81,39.46155545416667,39.65938149166667,58.0,73.0
82,39.113729454166666,39.92894664166667,46.0,67.0
83,39.80938145416667,40.22894656666667,58.0,84.0
84,38.76590345416667,40.27459872916667,39.0,88.0
85,40.15720745416667,40.32894654166667,46.0,75.0
86,39.80938145416667,40.90720726666667,67.0,85.0
87,39.80938145416667,40.90938117916667,63.0,87.0
88,40.50503345416667,40.98112029166667,58.0,80.0
89,41.54851145416667,42.68981551666667,56.0,78.0
90,41.89633745416667,42.70503290416667,63.0,77.0
91,41.20068545416667,42.74851115416667,51.0,67.0
92,40.85285945416667,42.79416331666667,44.0,86.0
93,42.93981545416667,43.38981534166667,56.0,73.0
94,42.93981545416667,44.82024976666667,44.0,83.0
95,43.28764145416667,44.86372801666667,51.0,73.0
96,43.63546745416667,45.38329310416667,56.0,76.0
97,42.93981545416667,45.53981480416667,63.0,76.0
98,43.98329345416667,45.60503217916667,68.0,75.0
99,45.72242345416667,46.17677116666667,56.0,79.0
100,45.37459745416667,46.90937967916667,51.0,76.0
101,45.02677145416667,46.92024924166667,44.0,80.0
102,46.41807545416667,47.36155347916667,68.0,71.0
103,46.765901454166666,47.405031729166666,56.0,70.0
104,46.07024945416667,47.46372736666667,63.0,79.0
105,47.11372745416667,48.81372702916667,44.0,84.0
106,47.46155345416667,48.98981394166667,51.0,76.0
107,48.15720545416667,49.12242260416667,63.0,79.0
108,48.15720545416667,49.14416172916667,68.0,79.0
109,47.80937945416667,49.355031241666666,56.0,82.0
110,49.20068345416667,50.683101625000006,44.0,86.0
111,49.89633545416667,51.28353777083334,56.0,84.0
112,49.54850945416667,51.29227138750001,51.0,76.0
113,50.24423738750001,51.97567689166667,63.0,82.0
114,51.29227138750001,52.827204516666676,42.0,80.0
115,51.641616054166676,52.846855154166676,49.0,80.0
116,51.99096072083334,52.90799047083334,54.0,89.0
117,52.34030538750001,53.42109045000001,63.0,80.0
118,53.388339387500004,54.135063612500005,59.0,80.0
119,53.388339387500004,54.44074019583334,40.0,78.0
120,53.73768405416667,54.471307854166675,47.0,76.0
121,54.08702872083334,54.6328797625,56.0,90.0
122,54.436373387500005,54.67654784583334,59.0,85.0
123,54.436373387500005,54.76825082083334,64.0,78.0
124,55.484407387500006,56.28571671666667,66.0,82.0
125,55.484407387500006,56.29445033333334,63.0,78.0
126,56.18309672083334,56.600126916666675,58.0,86.0
127,55.83375205416667,56.79444988750001,46.0,71.0
128,55.484407387500006,56.85776860833334,39.0,85.0
129,56.53244138750001,57.602309429166674,63.0,85.0
130,57.58047538750001,58.01060600833334,61.0,81.0
131,57.929820054166676,58.462570670833344,56.0,86.0
132,58.279164720833336,58.536806412500006,61.0,79.0
133,58.6285093875,59.29444765833334,56.0,80.0
134,58.6285093875,59.34029914583334,61.0,84.0
135,58.6285093875,59.346849358333344,64.0,75.0
136,57.58047538750001,59.36649999583334,49.0,82.0
137,59.676543387500004,59.87741657083334,58.0,79.0
138,59.676543387500004,60.14597528333334,63.0,82.0
139,60.02588805416667,60.75077823750001,58.0,76.0
140,60.37523272083334,60.91016674166667,63.0,79.0
141,59.676543387500004,61.52151990833334,51.0,85.0
142,60.724577387500005,61.73986032500001,66.0,85.0
143,61.77261138750001,61.883965,58.0,76.0
144,61.77261138750001,62.21584243333334,61.0,77.0
145,62.121956054166674,62.971300275000004,58.0,83.0
146,62.47130072083334,63.00405133750001,61.0,28.0
147,62.47130072083334,63.049902825000004,64.0,86.0
148,61.77261138750001,63.51278450833334,46.0,84.0
149,63.169990054166675,63.56300280416667,64.0,85.0
150,62.82064538750001,63.886146620833344,68.0,79.0
151,63.51933472083334,63.940731725000006,61.0,73.0
152,64.56736872083334,64.81409339166667,55.0,82.0
153,64.21802405416668,65.08920231666667,46.0,79.0
154,64.91671338750001,65.33374358333334,51.0,79.0
155,63.86867938750001,65.52588315000001,39.0,86.0
156,65.26605805416668,65.6110359125,46.0,79.0
157,65.61540272083334,65.89487845416667,51.0,87.0
158,64.91671338750001,65.91671249583334,55.0,79.0
159,64.91671338750001,65.93417972916667,58.0,82.0
160,63.86867938750001,66.07391759583334,63.0,79.0
161,65.96474738750001,67.45164562500001,44.0,86.0
162,66.66343672083335,68.05208177083334,56.0,84.0
163,66.31409205416668,68.06081538750001,51.0,76.0
164,67.01278138750001,68.74422089166667,63.0,82.0
165,68.06081538750001,69.59574851666667,42.0,80.0
166,68.41016005416668,69.61539915416668,49.0,80.0
167,68.75950472083335,69.67653447083335,54.0,89.0
168,69.10884938750002,70.18963445,63.0,80.0
169,70.15688338750002,70.90360761250001,59.0,80.0
170,70.15688338750002,71.20928419583333,40.0,78.0
171,70.50622805416667,71.23985185416667,47.0,76.0
172,70.85557272083334,71.4014237625,56.0,90.0
173,71.2049173875,71.44509184583335,59.0,85.0
174,71.2049173875,71.53679482083334,64.0,78.0
175,72.2529513875,73.05426071666668,66.0,82.0
176,72.2529513875,73.06299433333334,63.0,78.0
177,72.95164072083334,73.36867091666667,58.0,86.0
178,72.60229605416667,73.56299388750001,46.0,71.0
179,72.2529513875,73.62631260833334,39.0,85.0
180,73.3009853875,74.37085342916667,63.0,85.0
181,74.34901938750001,74.77915000833335,61.0,81.0
182,74.69836405416667,75.23111467083334,56.0,86.0
183,75.04770872083334,75.3053504125,61.0,79.0
184,75.39705338750001,76.06299165833335,56.0,80.0
185,75.39705338750001,76.10884314583333,61.0,84.0
186,75.39705338750001,76.11539335833334,64.0,75.0
187,74.34901938750001,76.13504399583334,49.0,82.0
188,76.44508738750001,76.64596057083334,58.0,79.0
189,76.44508738750001,76.91451928333333,63.0,82.0
190,76.79443205416668,77.5193222375,58.0,76.0
191,77.14377672083334,77.67871074166668,63.0,79.0
192,76.44508738750001,78.29006390833334,51.0,85.0
193,77.49312138750001,78.50840432500001,66.0,85.0
194,78.54115538750001,78.65250900000001,58.0,76.0
195,78.54115538750001,78.98438643333334,61.0,77.0
196,78.89050005416668,79.73984427500001,58.0,83.0
197,79.23984472083335,79.77259533750001,61.0,28.0
198,79.23984472083335,79.81844682500001,64.0,86.0
199,78.54115538750001,80.28132850833335,46.0,84.0
200,79.93853405416668,80.33154680416668,64.0,85.0
201,79.58918938750001,80.65469062083335,68.0,79.0
202,80.28787872083335,80.70927572500001,61.0,73.0
203,81.33591272083333,81.58263739166668,55.0,82.0
204,80.98656805416667,81.85774631666668,46.0,79.0
205,81.6852573875,82.10228758333335,51.0,79.0
206,80.6372233875,82.29442715000002,39.0,86.0
207,82.03460205416667,82.3795799125,46.0,79.0
208,82.38394672083334,82.66342245416668,51.0,87.0
209,81.6852573875,82.68525649583334,55.0,79.0
210,81.6852573875,82.70272372916668,58.0,82.0
211,80.6372233875,82.84189209583334,63.0,79.0
212,82.73319647083333,83.10493550833334,68.0,82.0
213,82.73319647083333,83.12667463333334,56.0,80.0
214,82.73319647083333,83.18537027083333,59.0,76.0
215,83.42884847083334,83.64841363333333,56.0,85.0
216,83.08102247083333,83.89189183333333,51.0,86.0
217,83.77667447083334,84.12884829583334,59.0,89.0
218,83.77667447083334,84.14406568333334,63.0,89.0
219,82.73319647083333,84.31797868333334,44.0,86.0
220,84.12450047083334,84.33319607083334,51.0,88.0
221,84.47232647083334,84.76580465833334,58.0,86.0
222,84.82015247083334,85.05058719583334,54.0,79.0
223,84.82015247083334,85.17232629583334,59.0,83.0
224,84.82015247083334,85.55276098333334,47.0,87.0
225,85.16797847083333,85.60058705833333,54.0,85.0
226,85.51580447083334,85.62667400833334,59.0,78.0
227,85.86363047083334,86.32884774583334,54.0,85.0
228,85.86363047083334,86.34623904583334,63.0,87.0
229,85.86363047083334,86.36797817083334,59.0,93.0
230,86.21145647083334,86.53754334583334,47.0,51.0
231,86.55928247083334,86.63754332083334,54.0,79.0
232,86.55928247083334,86.82884762083334,59.0,84.0
233,86.90710847083334,87.28754315833334,56.0,78.0
234,86.90710847083334,87.58754308333334,59.0,77.0
235,87.60276047083335,87.78754303333334,56.0,70.0
236,87.25493447083333,88.11145599583334,47.0,40.0
237,86.90710847083334,88.11580382083334,40.0,84.0
238,87.95058647083334,88.42884722083333,56.0,84.0
239,87.95058647083334,88.52884719583334,59.0,85.0
240,87.95058647083334,88.53536893333334,64.0,80.0
241,88.64623847083334,88.92449927083334,59.0,84.0
242,88.99406447083334,89.21362963333334,54.0,76.0
243,88.99406447083334,89.47667304583334,59.0,77.0
244,89.34189047083333,89.85493382083334,54.0,73.0
245,89.68971647083333,89.93102075833335,63.0,76.0
246,90.03754247083334,90.22449894583335,54.0,86.0
247,88.99406447083334,90.42232498333334,47.0,82.0
248,90.03754247083334,90.42449889583334,59.0,87.0
249,90.38536847083334,90.74189012083335,54.0,78.0
250,90.73319447083334,90.98536832083335,59.0,73.0
251,91.0811438625,91.28638385416667,56.0,85.0
252,91.0811438625,91.36498640416667,61.0,84.0
253,91.0811438625,91.533108525,49.0,87.0
254,91.43048852916667,91.56149277916667,56.0,83.0
255,91.77983319583333,91.952322125,61.0,75.0
256,92.1291778625,92.58332592916666,56.0,85.0
257,92.1291778625,92.58769273749999,61.0,86.0
258,92.1291778625,92.6269940125,64.0,86.0
259,92.47852252916667,92.80821655833333,52.0,72.0
260,92.82786719583333,92.91301995833334,61.0,83.0
261,92.82786719583333,93.04184080416667,56.0,83.0
262,93.1772118625,93.62699312083333,56.0,81.0
263,93.1772118625,93.629176525,59.0,78.0
264,93.87590119583334,93.98725480833333,59.0,71.0
265,93.87590119583334,94.03528969999999,63.0,79.0
266,94.2252458625,94.36498372916667,56.0,89.0
267,94.2252458625,94.38026755833333,68.0,85.0
268,93.52655652916667,94.73179562916667,51.0,75.0
269,94.57459052916667,94.73834584166667,56.0,84.0
270,94.57459052916667,94.7623632875,63.0,84.0
271,93.1772118625,94.78638073333333,44.0,85.0
272,94.92393519583334,95.06803987083333,59.0,81.0
273,95.2732798625,95.4042841125,58.0,79.0
274,95.2732798625,95.72087771666666,61.0,80.0
275,95.62262452916667,96.01782068333333,58.0,78.0
276,95.97196919583334,96.1248074875,64.0,86.0
277,96.3213138625,96.58113895833333,61.0,85.0
278,96.3213138625,96.64664108333334,58.0,85.0
279,95.2732798625,96.80166277916666,46.0,85.0
280,96.3213138625,96.82131341666667,68.0,85.0
281,96.67065852916667,97.01126957916667,64.0,88.0
282,97.02000319583334,97.323496375,61.0,86.0
283,97.3693478625,97.62480615,58.0,78.0
284,97.3693478625,97.62698955416667,63.0,82.0
285,97.71869252916666,98.04401975,46.0,76.0
286,97.3693478625,98.06148698333334,39.0,88.0
287,98.06803719583333,98.20995846666666,51.0,86.0
288,98.4173818625,98.554936325,51.0,93.0
289,98.4173818625,98.5942376,55.0,89.0
290,98.76672652916666,99.05056907083333,51.0,87.0
291,99.11607119583333,99.3999137375,67.0,76.0
292,99.11607119583333,99.41083075833333,63.0,84.0
293,99.4654158625,99.838777975,68.0,82.0
294,99.4654158625,99.86061201666666,56.0,80.0
295,99.4654158625,99.91956392916667,59.0,76.0
296,100.16410519583333,100.38462901666666,56.0,85.0
297,99.81476052916666,100.62917028333334,51.0,86.0
298,100.5134498625,100.8671613375,59.0,89.0
299,100.5134498625,100.88244516666667,63.0,89.0
300,99.4654158625,101.0571175,44.0,86.0
301,100.86279452916666,101.07240132916667,51.0,88.0
302,101.21213919583333,101.50689875833334,58.0,86.0
303,101.5614838625,101.79292470416667,54.0,79.0
304,101.5614838625,101.9151953375,59.0,83.0
305,101.5614838625,102.29729106666667,47.0,87.0
306,101.91082852916666,102.34532595833333,54.0,85.0
307,102.26017319583333,102.37152680833333,59.0,78.0
308,102.6095178625,103.07676635416666,54.0,85.0
309,102.6095178625,103.0942335875,63.0,87.0
310,102.6095178625,103.11606762916666,59.0,93.0
311,102.95886252916667,103.28637315416667,47.0,51.0
312,103.30820719583333,103.38680974583333,54.0,79.0
313,103.30820719583333,103.5789493125,59.0,84.0
314,103.6575518625,104.03964759166666,56.0,78.0
315,103.6575518625,104.34095736666667,59.0,77.0
316,104.35624119583333,104.54183055,56.0,70.0
317,104.00689652916667,104.86715777083333,47.0,40.0
318,103.6575518625,104.87152457916667,40.0,84.0
319,104.7055858625,105.18593477916667,56.0,84.0
320,104.7055858625,105.28637137083334,59.0,85.0
321,104.7055858625,105.29292158333334,64.0,80.0
322,105.40427519583334,105.68375092916666,59.0,84.0
323,105.7536198625,105.97414368333334,54.0,76.0
324,105.7536198625,106.2383355875,59.0,77.0
325,106.10296452916667,106.6182479125,54.0,73.0
326,106.45230919583334,106.69466705833334,63.0,76.0
327,106.8016538625,106.98942662083333,54.0,86.0
328,105.7536198625,107.1881164,47.0,82.0
329,106.8016538625,107.19029980416667,59.0,87.0
330,107.15099852916667,107.5090768125,54.0,78.0
331,107.50034319583334,107.75361807916667,59.0,73.0
332,107.8496878625,108.05492785416666,56.0,85.0
333,107.8496878625,108.13353040416666,61.0,84.0
334,107.8496878625,108.30165252500001,49.0,87.0
335,108.19903252916667,108.33003677916668,56.0,83.0
336,108.54837719583334,108.720866125,61.0,75.0
337,108.89772186249999,109.35186992916667,56.0,85.0
338,108.89772186249999,109.3562367375,61.0,86.0
339,108.89772186249999,109.3955380125,64.0,86.0
340,109.24706652916666,109.57676055833333,52.0,72.0
341,109.59641119583333,109.68156395833333,61.0,83.0
342,109.59641119583333,109.81038480416666,56.0,83.0
343,109.9457558625,110.39553712083334,56.0,81.0
344,109.9457558625,110.397720525,59.0,78.0
345,110.64444519583333,110.75579880833334,59.0,71.0
346,110.64444519583333,110.8038337,63.0,79.0
347,110.9937898625,111.13352772916667,56.0,89.0
348,110.9937898625,111.14881155833334,68.0,85.0
349,110.29510052916666,111.50033962916666,51.0,75.0
350,111.34313452916666,111.50688984166666,56.0,84.0
351,111.34313452916666,111.5309072875,63.0,84.0
352,109.9457558625,111.55492473333334,44.0,85.0
353,111.69247919583333,111.83658387083334,59.0,81.0
354,112.0418238625,112.39771874166667,58.0,84.0
355,112.0418238625,112.441386825,63.0,85.0
356,112.74051319583333,112.93046935833334,63.0,86.0
357,112.39116852916666,113.16409360416667,46.0,73.0
358,112.0418238625,113.21867870833333,39.0,90.0
359,113.0898578625,113.27763062083334,63.0,88.0
360,113.0898578625,113.30164806666667,67.0,86.0
361,113.43920252916666,113.54400592916667,63.0,76.0
362,113.43920252916666,113.7383289,67.0,82.0
363,113.43920252916666,113.86059953333333,70.0,84.0
364,113.78854719583333,113.99597059166666,63.0,78.0
365,114.1378918625,114.46321908333334,68.0,79.0
366,114.1378918625,114.47631950833333,63.0,85.0
367,114.83658119583333,115.04618799583334,56.0,70.0
368,114.83658119583333,115.05273820833334,59.0,55.0
369,115.1859258625,115.54837095416667,63.0,85.0
370,115.53527052916667,115.93265008750001,59.0,89.0
371,115.1859258625,115.95448412916667,56.0,84.0
372,114.48723652916667,116.03527008333333,51.0,78.0
373,114.1378918625,116.083304975,44.0,84.0
374,115.88461519583333,116.12478965416668,63.0,83.0
375,116.2339598625,116.58548793333334,59.0,61.0
376,116.2339598625,117.10732152916667,68.0,83.0
377,116.93264919583333,117.17064025,56.0,78.0
378,116.58330452916667,117.419548325,51.0,74.0
379,116.2339598625,117.45448279166666,44.0,85.0
380,117.2819938625,118.17500616666666,59.0,85.0
381,117.2819938625,118.17500616666666,63.0,84.0
382,117.2819938625,118.22304105833334,56.0,85.0
383,118.3300278625,118.703389975,68.0,82.0
384,118.3300278625,118.72522401666667,56.0,80.0
385,118.3300278625,118.78417592916666,59.0,76.0
386,119.02871719583334,119.24924101666667,56.0,85.0
387,118.67937252916667,119.49307040833332,51.0,86.0
388,119.37785304583333,119.73002687083333,59.0,89.0
389,119.37785304583333,119.74524425833333,63.0,89.0
390,118.3300278625,119.91915725833333,44.0,86.0
391,119.72567904583333,119.93437464583333,51.0,88.0
392,120.07350504583333,120.36698323333333,58.0,86.0
393,120.42133104583333,120.65176577083334,54.0,79.0
394,120.42133104583333,120.77350487083334,59.0,83.0
395,120.42133104583333,121.15393955833333,47.0,87.0
396,120.76915704583332,121.20176563333332,54.0,85.0
397,121.11698304583334,121.22785258333333,59.0,78.0
398,121.46480904583333,121.93002632083333,54.0,85.0
399,121.46480904583333,121.94741762083333,63.0,87.0
400,121.46480904583333,121.96915674583333,59.0,93.0
401,121.81263504583333,122.13872192083333,47.0,51.0
402,122.16046104583333,122.23872189583334,54.0,79.0
403,122.16046104583333,122.43002619583334,59.0,84.0
404,122.50828704583333,122.88872173333333,56.0,78.0
405,122.50828704583333,123.18872165833334,59.0,77.0
406,123.20393904583334,123.38872160833333,56.0,70.0
407,122.85611304583333,123.71263457083333,47.0,40.0
408,122.50828704583333,123.71698239583333,40.0,84.0
409,123.55176504583333,124.03002579583332,56.0,84.0
410,123.55176504583333,124.13002577083333,59.0,85.0
411,123.55176504583333,124.13654750833334,64.0,80.0
412,124.24741704583333,124.52567784583333,59.0,84.0
413,124.59524304583333,124.81480820833333,54.0,76.0
414,124.59524304583333,125.07785162083333,59.0,77.0
415,124.94306904583333,125.45611239583333,54.0,73.0
416,125.29089504583334,125.53219933333332,63.0,76.0
417,125.63872104583334,125.82567752083332,54.0,86.0
418,124.59524304583333,126.02350355833333,47.0,82.0
419,125.63872104583334,126.02567747083333,59.0,87.0
420,125.98654704583333,126.34306869583332,54.0,78.0
421,126.33437304583333,126.58654689583334,59.0,73.0
422,126.68219904583333,126.88654682083333,56.0,85.0
423,126.68219904583333,126.96480767083334,61.0,84.0
424,126.68219904583333,127.13219893333333,49.0,87.0
425,127.03002504583333,127.16045979583333,56.0,83.0
426,127.37785104583332,127.54959013333333,61.0,75.0
427,127.72567704583334,128.17785084583332,56.0,85.0
428,127.72567704583334,128.18219867083334,61.0,86.0
429,127.72567704583334,128.22132909583334,64.0,86.0
430,128.07350304583332,128.40176383333332,52.0,72.0
431,128.42132904583332,128.50611163333332,61.0,83.0
432,128.42132904583332,128.63437247083334,56.0,83.0
433,128.76915504583334,129.21698102083334,56.0,81.0
434,128.76915504583334,129.21915493333333,59.0,78.0
435,129.46480704583334,129.57567658333332,59.0,71.0
436,129.46480704583334,129.62350265833334,63.0,79.0
437,129.81263304583334,129.95176344583334,56.0,89.0
438,129.81263304583334,129.96698083333334,68.0,85.0
439,129.11698104583334,130.31698074583332,51.0,75.0
440,130.16045904583333,130.32350248333333,56.0,84.0
441,130.16045904583333,130.34741552083332,63.0,84.0
442,128.76915504583334,130.37132855833335,44.0,85.0
443,130.50828504583333,130.65176327083333,59.0,81.0
444,130.85611104583333,131.21045878333334,58.0,84.0
445,130.85611104583333,131.25393703333333,63.0,85.0
446,131.55176304583333,131.74089343333333,63.0,86.0
447,131.20393704583333,131.97350207083332,46.0,73.0
448,130.85611104583333,132.02784988333332,39.0,90.0
449,131.89958904583332,132.08654552083334,63.0,88.0
450,131.89958904583332,132.11045855833333,67.0,86.0
451,132.24741504583332,132.35176284583332,63.0,76.0
452,132.24741504583332,132.54524105833332,67.0,82.0
453,132.24741504583332,132.66698015833333,70.0,84.0
454,132.59524104583332,132.80176273333333,63.0,78.0
455,133.63871904583334,133.97824979583334,59.0,84.0
456,132.94306704583335,134.0264953375,63.0,81.0
457,132.94306704583335,134.88833615000001,44.0,84.0
458,133.29089304583334,134.88833615000001,51.0,82.0
459,133.9870217125,135.31377410833335,68.0,85.0
460,134.68877504583335,135.5988614,63.0,72.0
461,134.68877504583335,135.6142122541667,59.0,61.0
462,135.74140504583335,136.43657944166668,56.0,85.0
463,136.0922817125,136.5659652125,59.0,69.0
464,136.0922817125,136.57035117083333,63.0,77.0
465,135.39052837916668,136.6449124625,51.0,84.0
466,135.03965171250002,136.65807033750002,44.0,85.0
467,137.1449117125,137.9212263375,63.0,80.0
468,137.84666504583333,138.92341781666667,59.0,76.0
469,137.1449117125,138.93657569166666,56.0,76.0
470,137.1449117125,139.0659614625,44.0,84.0
471,137.49578837916667,139.098846575,51.0,80.0
472,138.1975417125,139.29535295000002,68.0,80.0
473,139.2495014625,140.31936950416667,63.0,80.0
474,139.94819079583334,140.33902014166668,59.0,85.0
475,139.2495014625,140.62941289583335,56.0,77.0
476,139.2495014625,141.2560498916667,44.0,84.0
477,139.59884612916667,141.26478350833335,51.0,82.0
478,140.2975354625,141.30626818750002,68.0,87.0
479,140.64688012916668,141.31281840000003,63.0,74.0
480,140.99622479583334,141.3281022291667,56.0,77.0
481,141.3455694625,142.83246770000002,44.0,86.0
482,142.04425879583334,143.43290384583335,56.0,84.0
483,141.69491412916668,143.4416374625,51.0,76.0
484,142.3936034625,144.12504296666668,63.0,82.0
485,143.4416374625,144.9765705916667,42.0,80.0
486,143.79098212916668,144.99622122916668,49.0,80.0
487,144.14032679583335,145.05735654583336,54.0,89.0
488,144.4896714625,145.57045652500003,63.0,80.0
489,145.5377054625,146.28442968750002,59.0,80.0
490,145.5377054625,146.59010627083336,40.0,78.0
491,145.88705012916668,146.62067392916668,47.0,76.0
492,146.23639479583335,146.78224583750003,56.0,90.0
493,146.58573946250002,146.82591392083336,59.0,85.0
494,146.58573946250002,146.91761689583336,64.0,78.0
495,147.63377346250002,148.43508279166667,66.0,82.0
496,147.63377346250002,148.44381640833336,63.0,78.0
497,148.33246279583335,148.7494929916667,58.0,86.0
498,147.98311812916668,148.94381596250003,46.0,71.0
499,147.63377346250002,149.00713468333336,39.0,85.0
500,148.68180746250002,149.75167550416668,63.0,85.0
501,149.72984146250002,150.15997208333334,61.0,81.0
502,150.0791861291667,150.61193674583336,56.0,86.0
503,150.42853079583335,150.68617248750002,61.0,79.0
504,150.77787546250002,151.44381373333334,56.0,80.0
505,150.77787546250002,151.48966522083336,61.0,84.0
506,150.77787546250002,151.49621543333336,64.0,75.0
507,149.72984146250002,151.51586607083334,49.0,82.0
508,151.82590946250002,152.0261087375,58.0,79.0
509,151.82590946250002,152.293499975,63.0,82.0
510,152.1739347875,152.8956737375,58.0,76.0
511,152.5217607875,153.05436935,63.0,79.0
512,151.82590946250002,153.66306485,51.0,85.0
513,152.8695867875,153.8804561,66.0,85.0
514,153.91306478750002,154.023934325,58.0,76.0
515,153.91306478750002,154.354369025,61.0,77.0
516,154.26089078750002,155.10654275000002,58.0,83.0
517,154.60871678750001,155.1391514375,61.0,28.0
518,154.60871678750001,155.1848036,64.0,86.0
519,153.91306478750002,155.64567305,46.0,84.0
520,155.3043687875,155.6956730375,64.0,85.0
521,154.9565427875,156.01741208750002,68.0,79.0
522,155.6521947875,156.07175990000002,61.0,73.0
523,156.6956727875,156.9413249,55.0,82.0
524,156.3478467875,157.215237875,46.0,79.0
525,157.0434987875,157.458716075,51.0,79.0
526,156.0000207875,157.650020375,39.0,86.0
527,157.3913247875,157.7348029625,46.0,79.0
528,157.73915078750002,158.01741158750002,51.0,87.0
529,157.0434987875,158.0391507125,55.0,79.0
530,157.0434987875,158.05654201250002,58.0,82.0
531,156.0000207875,158.19567241250002,63.0,79.0
532,158.08697678750002,159.57301128333336,44.0,86.0
533,158.78480237916668,160.17344742916669,56.0,84.0
534,158.4354577125,160.18218104583335,51.0,76.0
535,159.13414704583334,160.86558655000002,63.0,82.0
536,160.18218104583335,161.717114175,42.0,80.0
537,160.5315257125,161.7367648125,49.0,80.0
538,160.88087037916668,161.7979001291667,54.0,89.0
539,161.23021504583335,162.31100010833336,63.0,80.0
540,162.27824904583335,163.02497327083336,59.0,80.0
541,162.27824904583335,163.3306498541667,40.0,78.0
542,162.62759371250002,163.36121751250002,47.0,76.0
543,162.97693837916668,163.52278942083336,56.0,90.0
544,163.32628304583335,163.5664575041667,59.0,85.0
545,163.32628304583335,163.65816047916667,64.0,78.0
546,164.37431704583335,165.175626375,66.0,82.0
547,164.37431704583335,165.18435999166667,63.0,78.0
548,165.07300637916669,165.490036575,58.0,86.0
549,164.72366171250002,165.68435954583336,46.0,71.0
550,164.37431704583335,165.74767826666667,39.0,85.0
551,165.42235104583335,166.49221908750002,63.0,85.0
552,166.47038504583335,166.90051566666668,61.0,81.0
553,166.81972971250002,167.35248032916667,56.0,86.0
554,167.1690743791667,167.42671607083335,61.0,79.0
555,167.51841904583335,168.18435731666668,56.0,80.0
556,167.51841904583335,168.2302088041667,61.0,84.0
557,167.51841904583335,168.23675901666667,64.0,75.0
558,166.47038504583335,168.25640965416667,49.0,82.0
559,168.56645304583336,168.76732622916668,58.0,79.0
560,168.56645304583336,169.0358849416667,63.0,82.0
561,168.91579771250002,169.64068789583334,58.0,76.0
562,169.2651423791667,169.80007640000002,63.0,79.0
563,168.56645304583336,170.41142956666667,51.0,85.0
564,169.61448704583336,170.62976998333335,66.0,85.0
565,170.66252104583336,170.77387465833334,58.0,76.0
566,170.66252104583336,171.1057520916667,61.0,77.0
567,171.01186571250003,171.86120993333336,58.0,83.0
568,171.3612103791667,171.89396099583334,61.0,28.0
569,171.3612103791667,171.93981248333336,64.0,86.0
570,170.66252104583336,172.4026941666667,46.0,84.0
571,172.05989971250003,172.45291246250002,64.0,85.0
572,171.71055504583336,172.77605627916668,68.0,79.0
573,172.4092443791667,172.83064138333336,61.0,73.0
574,173.4572783791667,173.70400305,55.0,82.0
575,173.10793371250003,173.97911197500002,46.0,79.0
576,173.80662304583336,174.22365324166668,51.0,79.0
577,172.75858904583336,174.41579280833335,39.0,86.0
578,174.15596771250003,174.50094557083335,46.0,79.0
579,174.5053123791667,174.78478811250002,51.0,87.0
580,173.80662304583336,174.8066221541667,55.0,79.0
581,173.80662304583336,174.8240893875,58.0,82.0
582,172.75858904583336,174.9638272541667,63.0,79.0
583,174.85465704583333,175.22801915833335,68.0,82.0
584,174.85465704583333,175.24985320000002,56.0,80.0
585,174.85465704583333,175.3088051125,59.0,76.0
586,175.55334637916667,175.7738702,56.0,85.0
587,175.20400171250003,176.0184114666667,51.0,86.0
588,175.90269104583336,176.25640252083335,59.0,89.0
589,175.90269104583336,176.27168635,63.0,89.0
590,174.85465704583333,176.44635868333336,44.0,86.0
591,176.2520357125,176.46164251250002,51.0,88.0
592,176.6013803791667,176.8961399416667,58.0,86.0
593,176.95072504583334,177.18216588750002,54.0,79.0
594,176.95072504583334,177.30443652083335,59.0,83.0
595,176.95072504583334,177.68653225000003,47.0,87.0
596,177.3000697125,177.73456714166667,54.0,85.0
597,177.64941437916667,177.76076799166668,59.0,78.0
598,177.99875904583334,178.46600753750002,54.0,85.0
599,177.99875904583334,178.48347477083334,63.0,87.0
600,177.99875904583334,178.5053088125,59.0,93.0
601,178.3481037125,178.6756143375,47.0,51.0
602,178.69744837916667,178.77605092916667,54.0,79.0
603,178.69744837916667,178.96819049583334,59.0,84.0
604,179.04679304583334,179.42888877500002,56.0,78.0
605,179.04679304583334,179.73019855,59.0,77.0
606,179.74548237916667,179.93107173333334,56.0,70.0
607,179.3961377125,180.25639895416668,47.0,40.0
608,179.04679304583334,180.26076576250003,40.0,84.0
609,180.09482704583334,180.57517596250003,56.0,84.0
610,180.09482704583334,180.6756125541667,59.0,85.0
611,180.09482704583334,180.6821627666667,64.0,80.0
612,180.79351637916668,181.0729921125,59.0,84.0
613,181.14286104583334,181.36338486666668,54.0,76.0
614,181.14286104583334,181.62757677083334,59.0,77.0
615,181.4922057125,182.00748909583336,54.0,73.0
616,181.84155037916668,182.08390824166668,63.0,76.0
617,182.19089504583334,182.3786678041667,54.0,86.0
618,181.14286104583334,182.57735758333334,47.0,82.0
619,182.19089504583334,182.57954098750002,59.0,87.0
620,182.5402397125,182.89831799583334,54.0,78.0
621,182.88958437916668,183.14285926250002,59.0,73.0
622,183.23892904583334,183.44416903750002,56.0,85.0
623,183.23892904583334,183.52277158750002,61.0,84.0
624,183.23892904583334,183.69089370833336,49.0,87.0
625,183.5882737125,183.71927796250003,56.0,83.0
626,183.93761837916668,184.11010730833334,61.0,75.0
627,184.28696304583335,184.74111111250002,56.0,85.0
628,184.28696304583335,184.74547792083337,61.0,86.0
629,184.28696304583335,184.78477919583335,64.0,86.0
630,184.6363077125,184.96600174166667,52.0,72.0
631,184.98565237916668,185.07080514166668,61.0,83.0
632,184.98565237916668,185.1996259875,56.0,83.0
633,185.33499704583335,185.78477830416668,56.0,81.0
634,185.33499704583335,185.78696170833337,59.0,78.0
635,186.03368637916668,186.1450399916667,59.0,71.0
636,186.03368637916668,186.19307488333334,63.0,79.0
637,186.38303104583335,186.52276891250003,56.0,89.0
638,186.38303104583335,186.5380527416667,68.0,85.0
639,185.68434171250001,186.88958081250001,51.0,75.0
640,186.73237571250002,186.89613102500002,56.0,84.0
641,186.73237571250002,186.92014847083334,63.0,84.0
642,185.33499704583335,186.9441659166667,44.0,85.0
643,187.08172037916668,187.22582505416668,59.0,81.0
644,187.43106504583335,187.56206929583334,58.0,79.0
645,187.43106504583335,187.87866290000002,61.0,80.0
646,187.78040971250002,188.17560586666667,58.0,78.0
647,188.12975437916668,188.28259267083334,64.0,86.0
648,188.47886175416667,188.73755734166667,61.0,85.0
649,188.47886175416667,188.80277471666668,58.0,85.0
650,187.43106504583335,188.95712250416668,46.0,85.0
651,188.47886175416667,188.97668771666667,68.0,85.0
652,188.82668775416667,189.16581810416668,64.0,88.0
653,189.17451375416667,189.47668759166666,61.0,86.0
654,189.52233975416667,189.77668751666667,58.0,78.0
655,189.52233975416667,189.77886142916668,63.0,82.0
656,189.87016575416666,190.19407871666667,46.0,76.0
657,189.52233975416667,190.21147001666668,39.0,88.0
658,190.21799175416666,190.35929606666667,51.0,86.0
659,190.5658177541667,190.70277424166667,51.0,93.0
660,190.5658177541667,190.74190466666667,55.0,89.0
661,190.91364375416669,191.19625237916668,51.0,87.0
662,191.26146975416668,191.54407837916668,67.0,76.0
663,191.26146975416668,191.55494794166668,63.0,84.0
664,191.60929575416668,191.98103479166667,68.0,82.0
665,191.60929575416668,192.00277391666668,56.0,80.0
666,191.60929575416668,192.06146955416668,59.0,76.0
667,192.30494775416668,192.52451291666668,56.0,85.0
668,191.95712175416668,192.76799111666668,51.0,86.0
669,192.65277375416667,193.00494757916667,59.0,89.0
670,192.65277375416667,193.02016496666667,63.0,89.0
671,191.60929575416668,193.19407796666667,44.0,86.0
672,193.00059975416667,193.20929535416667,51.0,88.0
673,193.34842575416667,193.64190394166667,58.0,86.0
674,193.69631819583333,193.9277590375,54.0,79.0
675,193.69631819583333,194.05002967083334,59.0,83.0
676,193.69631819583333,194.4321254,47.0,87.0
677,194.0456628625,194.48016029166666,54.0,85.0
678,194.39500752916666,194.50636114166667,59.0,78.0
679,194.74435219583333,195.2116006875,54.0,85.0
680,194.74435219583333,195.22906792083333,63.0,87.0
681,194.74435219583333,195.2509019625,59.0,93.0
682,195.0936968625,195.4212074875,47.0,51.0
683,195.44304152916666,195.52164407916666,54.0,79.0
684,195.44304152916666,195.71378364583333,59.0,84.0
685,195.79238619583333,196.174481925,56.0,78.0
686,195.79238619583333,196.4757917,59.0,77.0
687,196.49107552916666,196.67666488333333,56.0,70.0
688,196.1417308625,197.00199210416667,47.0,40.0
689,195.79238619583333,197.0063589125,40.0,84.0
690,196.84042019583333,197.3207691125,56.0,84.0
691,196.84042019583333,197.42120570416665,59.0,85.0
692,196.84042019583333,197.42775591666665,64.0,80.0
693,197.53910952916667,197.8185852625,59.0,84.0
694,197.88845419583333,198.10897801666667,54.0,76.0
695,197.88845419583333,198.37316992083333,59.0,77.0
696,198.2377988625,198.75308224583333,54.0,73.0
697,198.58714352916667,198.82950139166667,63.0,76.0
698,198.93648819583333,199.12426095416666,54.0,86.0
699,197.88845419583333,199.32295073333333,47.0,82.0
700,198.93648819583333,199.3251341375,59.0,87.0
701,199.2858328625,199.64391114583333,54.0,78.0
702,199.63517752916667,199.8884524125,59.0,73.0
703,199.98452219583334,200.1897621875,56.0,85.0
704,199.98452219583334,200.2683647375,61.0,84.0
705,199.98452219583334,200.43648685833332,49.0,87.0
706,200.3338668625,200.4648711125,56.0,83.0
707,200.68321152916667,200.85570045833333,61.0,75.0
708,201.03255619583334,201.4867042625,56.0,85.0
709,201.03255619583334,201.49107107083333,61.0,86.0
710,201.03255619583334,201.53037234583334,64.0,86.0
711,201.3819008625,201.71159489166666,52.0,72.0
712,201.73124552916667,201.81639829166667,61.0,83.0
713,201.73124552916667,201.9452191375,56.0,83.0
714,202.08059019583334,202.53037145416667,56.0,81.0
715,202.08059019583334,202.53255485833333,59.0,78.0
716,202.77927952916667,202.89063314166665,59.0,71.0
717,202.77927952916667,202.93866803333333,63.0,79.0
718,203.12862419583334,203.2683620625,56.0,89.0
719,203.12862419583334,203.28364589166665,68.0,85.0
720,202.4299348625,203.6351739625,51.0,75.0
721,203.4779688625,203.641724175,56.0,84.0
722,203.4779688625,203.66574162083333,63.0,84.0
723,202.08059019583334,203.68975906666668,44.0,85.0
724,203.82731352916667,203.97141820416667,59.0,81.0
725,204.17665819583334,204.532553075,58.0,84.0
726,204.17665819583334,204.57622115833334,63.0,85.0
727,204.87534752916667,205.06530369166666,63.0,86.0
728,204.5260028625,205.2989279375,46.0,73.0
729,204.17665819583334,205.35351304166667,39.0,90.0
730,205.22469219583334,205.41246495416667,63.0,88.0
731,205.22469219583334,205.4364824,67.0,86.0
732,205.5740368625,205.6788402625,63.0,76.0
733,205.5740368625,205.87316323333334,67.0,82.0
734,205.5740368625,205.99543386666667,70.0,84.0
735,205.92338152916668,206.130804925,63.0,78.0
736,206.27272619583334,206.59805341666666,68.0,79.0
737,206.27272619583334,206.61115384166666,63.0,85.0
738,206.97141552916668,207.18102232916667,56.0,70.0
739,206.97141552916668,207.18757254166667,59.0,55.0
740,207.32076019583334,207.6832052875,63.0,85.0
741,207.6701048625,208.06748442083332,59.0,89.0
742,207.32076019583334,208.0893184625,56.0,84.0
743,206.6220708625,208.17010441666667,51.0,78.0
744,206.27272619583334,208.21813930833332,44.0,84.0
745,208.01944952916668,208.2596239875,63.0,83.0
746,209.06748352916668,209.52753637499998,52.0,89.0
747,209.4166668375,209.753623275,56.0,87.0
748,209.4166668375,209.78405805,59.0,86.0
749,208.36879419583335,210.2101449,40.0,98.0
750,208.7181388625,210.2818840125,47.0,80.0
751,209.7644928375,210.30579705,52.0,84.0
752,210.1123188375,210.35797094999998,56.0,84.0
753,210.4601448375,210.6297100125,59.0,75.0
754,210.4601448375,210.6384056625,52.0,85.0
755,210.4601448375,210.6449274,56.0,86.0
756,210.4601448375,210.7492752,64.0,83.0
757,211.1557968375,211.3905793875,64.0,84.0
758,211.1557968375,211.40797068749998,68.0,84.0
759,211.5036228375,211.70579669999998,64.0,89.0
760,211.5036228375,211.723188,68.0,84.0
761,211.5036228375,211.72536191249998,71.0,85.0
762,211.8514488375,212.0210140125,64.0,85.0
763,211.8514488375,212.2166661375,68.0,81.0
764,210.4601448375,212.45797042499998,40.0,98.0
765,211.8514488375,212.47753563749998,71.0,74.0
766,210.8079708375,212.4862312875,47.0,83.0
767,212.19927483749998,212.5079704125,64.0,98.0
768,211.8514488375,212.52753562499998,76.0,84.0
769,212.54710083749998,212.918839875,69.0,82.0
770,212.54710083749998,212.94057899999999,57.0,80.0
771,212.54710083749998,212.99927463749998,60.0,76.0
772,213.24275283749998,213.46231799999998,57.0,85.0
773,212.89492683749998,213.70579619999998,52.0,86.0
774,213.5905788375,213.9427526625,60.0,89.0
775,213.5905788375,213.95797005,64.0,89.0
776,212.54710083749998,214.13188305,45.0,86.0
777,213.9384048375,214.1471004375,52.0,88.0
778,214.2862308375,214.579709025,59.0,86.0
779,214.6340568375,214.86449156249998,55.0,79.0
780,214.6340568375,214.9862306625,60.0,83.0
781,214.6340568375,215.36666535,48.0,87.0
782,214.9818828375,215.414491425,55.0,85.0
783,215.3297088375,215.440578375,60.0,78.0
784,215.6775348375,216.14275211249998,55.0,85.0
785,215.6775348375,216.1601434125,64.0,87.0
786,215.6775348375,216.1818825375,60.0,93.0
787,216.0253608375,216.3514477125,48.0,51.0
788,216.3731868375,216.45144768749998,55.0,79.0
789,216.3731868375,216.6427519875,60.0,84.0
790,216.72101283749998,217.101447525,57.0,78.0
791,216.72101283749998,217.40144744999998,60.0,77.0
792,217.41666483749998,217.60144739999998,57.0,70.0
793,217.06883883749998,217.9253603625,48.0,40.0
794,216.72101283749998,217.92970818749998,41.0,84.0
795,217.76449083749998,218.24275158749998,57.0,84.0
796,217.76449083749998,218.34275156249998,60.0,85.0
797,217.76449083749998,218.3492733,65.0,80.0
798,218.4601428375,218.7384036375,60.0,84.0
799,218.8079688375,219.027534,55.0,76.0
800,218.8079688375,219.2905774125,60.0,77.0
801,219.1557948375,219.6688381875,55.0,73.0
802,219.5036208375,219.74492512499998,64.0,76.0
803,219.8514468375,220.03840331249998,55.0,86.0
804,218.8079688375,220.23622935,48.0,82.0
805,219.8514468375,220.2384032625,60.0,87.0
806,220.1992728375,220.55579448749998,55.0,78.0
807,220.5470988375,220.79927268749998,60.0,73.0
808,220.89492483749999,221.0992726125,57.0,85.0
809,220.89492483749999,221.17753346249998,62.0,84.0
810,220.89492483749999,221.344924725,50.0,87.0
811,221.24275083749998,221.3731855875,57.0,83.0
812,221.59057683749998,221.76279050833332,62.0,75.0
813,221.93964624583333,222.3937943125,57.0,85.0
814,221.93964624583333,222.39816112083332,62.0,86.0
815,221.93964624583333,222.43746239583334,65.0,86.0
816,222.2889909125,222.61868494166666,53.0,72.0
817,222.63833557916666,222.72348834166667,62.0,83.0
818,222.63833557916666,222.8523091875,57.0,83.0
819,222.98768024583333,223.43746150416666,57.0,81.0
820,222.98768024583333,223.43964490833332,60.0,78.0
821,223.68636957916667,223.79772319166668,60.0,71.0
822,223.68636957916667,223.84575808333332,64.0,79.0
823,224.03571424583333,224.1754521125,57.0,89.0
824,224.03571424583333,224.19073594166667,69.0,85.0
825,223.3370249125,224.5422640125,52.0,75.0
826,224.3850589125,224.548814225,57.0,84.0
827,224.3850589125,224.57283167083332,64.0,84.0
828,222.98768024583333,224.59684911666668,45.0,85.0
829,224.73440357916667,224.87850825416666,60.0,81.0
830,225.08374824583333,225.21475249583332,59.0,79.0
831,225.08374824583333,225.5313461,62.0,80.0
832,225.4330929125,225.82828906666666,59.0,78.0
833,225.78243757916667,225.93527587083332,65.0,86.0
834,226.13178224583334,226.39160734166666,62.0,85.0
835,226.13178224583334,226.45710946666668,59.0,85.0
836,225.08374824583333,226.6121311625,47.0,85.0
837,226.13178224583334,226.6317818,69.0,85.0
838,226.4811269125,226.8217379625,65.0,88.0
839,226.83047157916667,227.13396475833332,62.0,86.0
840,227.17981624583334,227.43527453333334,59.0,78.0
841,227.17981624583334,227.4374579375,64.0,82.0
842,227.5291609125,227.85448813333335,47.0,76.0
843,227.17981624583334,227.87195536666667,40.0,88.0
844,227.87850557916667,228.02042685,52.0,86.0
845,228.22785024583334,228.36540470833333,52.0,93.0
846,228.22785024583334,228.40470598333334,56.0,89.0
847,228.5771949125,228.86103745416668,52.0,87.0
848,228.92653957916667,229.21038212083334,68.0,76.0
849,228.92653957916667,229.22129914166666,64.0,84.0
850,229.27588424583334,229.64924635833333,69.0,82.0
851,229.27588424583334,229.6710804,57.0,80.0
852,229.27588424583334,229.7300323125,60.0,76.0
853,229.97457357916667,230.1950974,57.0,85.0
854,229.6252289125,230.43963866666667,52.0,86.0
855,230.32391824583334,230.67762972083332,60.0,89.0
856,230.32391824583334,230.69291355000001,64.0,89.0
857,229.27588424583334,230.86758588333333,45.0,86.0
858,230.6732629125,230.8828697125,52.0,88.0
859,231.02260757916667,231.31736714166667,59.0,86.0
860,231.37195224583334,231.6033930875,55.0,79.0
861,231.37195224583334,231.72566372083332,60.0,83.0
862,231.37195224583334,232.10775945,48.0,87.0
863,231.7212969125,232.15579434166668,55.0,85.0
864,232.07064157916668,232.18199519166666,60.0,78.0
865,232.41998624583334,232.8872347375,55.0,85.0
866,232.41998624583334,232.90470197083334,64.0,87.0
867,232.41998624583334,232.9265360125,60.0,93.0
868,232.7693309125,233.0968415375,48.0,51.0
869,233.11867557916668,233.19727812916668,55.0,79.0
870,233.11867557916668,233.38941769583334,60.0,84.0
871,233.46802024583334,233.850115975,57.0,78.0
872,233.46802024583334,234.15142575,60.0,77.0
873,234.16670957916668,234.35229893333334,57.0,70.0
874,233.8173649125,234.67762615416666,48.0,40.0
875,233.46802024583334,234.6819929625,41.0,84.0
876,234.51605424583335,234.9964031625,57.0,84.0
877,234.51605424583335,235.09683975416667,60.0,85.0
878,234.51605424583335,235.10338996666667,65.0,80.0
879,235.21474357916668,235.4942193125,60.0,84.0
880,235.56408824583335,235.78461206666668,55.0,76.0
881,235.56408824583335,236.04880397083335,60.0,77.0
882,235.9134329125,236.42871629583334,55.0,73.0
883,236.26277757916668,236.50513544166668,64.0,76.0
884,236.61212224583335,236.79989500416667,55.0,86.0
885,235.56408824583335,236.99858478333334,48.0,82.0
886,236.61212224583335,237.0007681875,60.0,87.0
887,236.96146691250001,237.31954519583334,55.0,78.0
888,237.31081157916668,237.5640864625,60.0,73.0
889,237.66015624583332,237.8653962375,57.0,85.0
890,237.66015624583332,237.9439987875,62.0,84.0
891,237.66015624583332,238.11212090833334,50.0,87.0
892,238.00950091250002,238.1405051625,57.0,83.0
893,238.35884557916665,238.53133450833334,62.0,75.0
894,238.70819024583335,239.1623383125,57.0,85.0
895,238.70819024583335,239.16670512083334,62.0,86.0
896,238.70819024583335,239.20600639583333,65.0,86.0
897,239.0575349125,239.38722894166668,53.0,72.0
898,239.40687957916668,239.49203234166666,62.0,83.0
899,239.40687957916668,239.62085318750002,57.0,83.0
900,239.75622424583332,240.20600550416668,57.0,81.0
901,239.75622424583332,240.20818890833334,60.0,78.0
902,240.45491357916666,240.56626719166667,60.0,71.0
903,240.45491357916666,240.61430208333334,64.0,79.0
904,240.80425824583332,240.9439961125,57.0,89.0
905,240.80425824583332,240.95927994166667,69.0,85.0
906,240.1055689125,241.3108080125,52.0,75.0
907,241.1536029125,241.317358225,57.0,84.0
908,241.1536029125,241.34137567083334,64.0,84.0
909,239.75622424583332,241.36539311666667,45.0,85.0
910,241.50294757916666,241.64705225416668,60.0,81.0
911,241.85229224583333,242.208187125,59.0,84.0
912,241.85229224583333,242.25185520833332,64.0,85.0
913,242.55098157916666,242.74093774166667,64.0,86.0
914,242.2016369125,242.9745619875,47.0,73.0
915,241.85229224583333,243.02914709166666,40.0,90.0
916,242.90032624583333,243.08809900416668,64.0,88.0
917,242.90032624583333,243.11211645,68.0,86.0
918,243.2496709125,243.3544743125,64.0,76.0
919,243.2496709125,243.54879728333333,68.0,82.0
920,243.2496709125,243.67106791666666,71.0,84.0
921,243.59901557916666,243.806438975,64.0,78.0
922,243.94836024583333,244.27368746666667,69.0,79.0
923,243.94836024583333,244.28678789166668,64.0,85.0
924,244.64704957916666,244.85665637916668,57.0,70.0
925,244.64704957916666,244.86320659166665,60.0,55.0
926,244.99639424583333,245.3588393375,64.0,85.0
927,245.3457389125,245.74311847083334,60.0,89.0
928,244.99639424583333,245.7649525125,57.0,84.0
929,244.2977049125,245.84573846666666,52.0,78.0
930,243.94836024583333,245.89377335833333,45.0,84.0
931,245.69508357916666,245.9352580375,64.0,83.0
932,246.04442824583333,246.36975546666667,69.0,79.0
933,246.04442824583333,246.38285589166668,60.0,85.0
934,246.74311757916666,246.95272437916668,57.0,70.0
935,246.74311757916666,246.95927459166666,60.0,55.0
936,247.09246224583333,247.4549073375,64.0,85.0
937,247.4418069125,247.83918647083334,60.0,89.0
938,247.09246224583333,247.8610205125,57.0,84.0
939,246.3937729125,247.94180646666666,52.0,78.0
940,246.04442824583333,247.98984135833334,45.0,84.0
941,247.79115157916667,248.0313260375,64.0,83.0
942,248.14049624583333,249.85665192083334,57.0,68.0
943,248.14049624583333,250.07717574166668,60.0,69.0
944,248.14049624583333,250.10992680416666,45.0,73.0
945,250.23656424583334,252.04223949166666,43.0,62.0
946,250.23656424583334,252.138309275,59.0,68.0
947,250.23656424583334,252.2627633125,55.0,57.0
948,252.33263224583334,253.97455217916666,53.0,68.0
949,252.33263224583334,254.2474777,57.0,75.0
950,252.33263224583334,254.32389684583333,41.0,70.0
951,254.42870024583334,256.0509695416667,43.0,71.0
952,254.42870024583334,256.27367676666665,55.0,67.0
953,254.42870024583334,256.3522793166667,59.0,71.0
954,256.17542357916665,256.51603462916665,43.0,71.0
955,256.52476824583334,258.2409239208333,57.0,68.0
956,256.52476824583334,258.4614477416667,60.0,69.0
957,256.52476824583334,258.4941988041667,45.0,73.0
958,258.62083624583335,260.4265114916667,43.0,62.0
959,258.62083624583335,260.522581275,59.0,68.0
960,258.62083624583335,260.6470353125,55.0,57.0
961,260.71690424583335,262.3588241791667,53.0,68.0
962,260.71690424583335,262.6317497,57.0,75.0
963,260.71690424583335,262.7081688458333,41.0,70.0
964,262.81297224583335,264.43524154166664,43.0,71.0
965,262.81297224583335,264.65794876666666,55.0,67.0
966,262.81297224583335,264.7365513166667,59.0,71.0
967,264.55969557916666,264.90030662916666,43.0,71.0
968,265.43087384166665,266.03567679583335,57.0,66.0
969,265.6513976625,266.10772913333335,60.0,72.0
970,265.92432318333334,266.312969125,64.0,32.0
971,266.208165725,266.45925720416665,69.0,74.0
972,268.3544520208333,268.56405882083334,81.0,65.0
973,268.43305457083335,268.56842562916665,72.0,77.0
974,268.49637329166666,268.62956094583336,69.0,71.0
975,264.91340705416667,269.2299970916667,45.0,84.0
976,265.2169002333333,269.2387307083333,52.0,61.0
