,start,end,pitch,velocity
0,0.7594343166666668,1.6011349083333335,64.0,72.0
1,1.605896816666667,2.7439929083333334,67.0,82.0
2,2.7487548166666667,3.0297074083333335,64.0,70.0
3,3.0344693166666667,4.640055741666666,65.0,84.0
4,4.644601191666666,4.6968738666666665,77.0,75.0
5,4.701419316666667,4.969600866666666,79.0,71.0
6,4.974146316666666,6.081397752083333,79.0,76.0
7,6.104016816666666,6.4159218125,74.0,78.0
8,6.3897313166666665,7.22663670625,83.0,91.0
9,7.246874816666667,7.52663693125,71.0,78.0
10,7.532589316666666,11.233400316666668,79.0,79.0
11,11.233400316666668,11.511702333333334,72.0,98.0
12,11.516419316666667,11.794721333333333,64.0,75.0
13,11.799438316666667,13.775854333333335,65.0,79.0
14,13.780571316666666,13.830099641666667,77.0,82.0
15,13.834816625000002,14.058873333333334,79.0,79.0
16,14.063590316666668,16.340714020833335,79.0,83.0
17,16.345431004166667,18.719252866666668,83.0,86.0
18,16.436232933333336,18.80415856666667,79.0,79.0
19,16.521138633333337,18.870196333333332,76.0,62.0
20,26.72870831666667,27.20297278541667,79.0,76.0
21,27.16988456666667,27.575521618750003,81.0,80.0
22,27.61106081666667,27.899050868750003,83.0,80.0
23,27.90517831666667,29.16902691666667,84.0,75.0
24,35.2319543,35.65307060833334,67.0,68.0
25,35.54020658333334,35.83025499166667,60.0,73.0
26,35.8436045,36.20889559166667,59.0,68.0
27,36.13729368333333,36.43947800833333,60.0,57.0
28,36.4406916,37.03386954375,62.0,78.0
29,36.9795263,38.21896553958333,64.0,75.0
30,43.74893731666666,44.379012537499996,72.0,75.0
31,44.304493316666665,44.864589395833335,74.0,78.0
32,44.881416316666666,45.461072889583335,76.0,79.0
33,45.46965131666666,46.81504067708334,79.0,81.0
34,48.07003281666667,48.15604203541667,78.0,56.0
35,48.207647566666665,48.3704916875,79.0,68.0
36,48.34526231666666,49.761547452083335,78.0,81.0
37,50.27186881666667,50.561249266666664,79.0,45.0
38,50.54709831666666,51.42445721666666,84.0,82.0
39,51.396155316666665,51.65323090833333,79.0,62.0
40,51.67917431666666,51.973985774999996,77.0,69.0
41,51.962193316666664,52.41384447083333,81.0,72.0
42,52.811250316666666,54.360779341666664,83.0,75.0
43,54.22634531666667,54.48695864583333,79.0,82.0
44,54.50936431666666,54.7723361375,74.0,82.0
45,54.792383316666665,55.05063815416666,67.0,62.0
46,55.07540231666666,55.202760866666665,74.0,72.0
47,55.163845754166665,55.8761102375,76.0,75.0
48,61.91225231666666,62.299044949999995,79.0,73.0
49,62.33678081666666,62.71060174583333,83.0,84.0
50,62.76130931666666,63.117441558333326,76.0,76.0
51,63.044328316666665,63.40046055833333,79.0,76.0
52,63.42168698333333,63.777819224999995,71.0,76.0
53,63.89338531666666,63.99951744166666,72.0,78.0
54,64.03489481666666,64.1811213,74.0,75.0
55,64.17640431666666,64.73300834999999,72.0,80.0
56,66.86508481666667,66.97121694166667,74.0,78.0
57,66.92758484583332,67.20824535416666,72.0,80.0
58,67.28961331666666,67.59693789166667,71.0,83.0
59,67.57263231666667,67.74392875000001,72.0,80.0
60,67.85041031666667,68.13513276666667,74.0,83.0
61,68.12818831666667,68.36661443333334,76.0,77.0
62,71.50578331666667,71.82522801666667,69.0,67.0
63,71.78356131666666,72.03819115,72.0,78.0
64,72.06133931666668,72.31372045833334,71.0,78.0
65,72.34705381666667,72.65657785833334,69.0,58.0
66,72.63276831666667,72.94229235833335,71.0,58.0
67,72.91848281666668,73.22800685833334,72.0,58.0
68,73.20419731666668,73.51372135833334,76.0,58.0
69,90.48303681666668,90.59375118541669,67.0,77.0
70,90.48303681666668,90.61041786458335,79.0,90.0
71,90.7687513166667,90.86398948333336,69.0,78.0
72,90.7687513166667,90.90327522708336,81.0,94.0
73,91.05446581666669,91.15446589166669,72.0,69.0
74,91.05446581666669,91.17232304791669,84.0,91.0
75,91.34018031666669,91.6848066916667,74.0,75.0
76,91.34018031666669,91.73036746666669,86.0,94.0
77,91.9009283166667,92.0235919416667,76.0,58.0
78,91.9009283166667,92.03877886666669,88.0,68.0
79,92.18130231666669,92.35770429166669,76.0,77.0
80,92.18130231666669,92.41494731666668,88.0,81.0
81,106.33782231666669,106.72092447500002,67.0,71.0
82,106.61560031666669,106.96050800000002,72.0,73.0
83,106.89337831666668,107.15148037500002,74.0,68.0
84,107.17115631666668,107.42925837500002,76.0,68.0
85,107.44893431666668,107.70356415000002,74.0,71.0
86,107.72671231666669,107.94576010000003,72.0,64.0
87,108.01242681666669,108.5481415041667,67.0,66.0
88,108.01242681666669,108.55885579791669,74.0,68.0
89,123.3052003166667,123.58350233333337,67.0,100.0
90,123.5882193166667,123.86652133333337,69.0,86.0
91,123.8712383166667,124.14954033333336,72.0,95.0
92,124.1542573166667,124.43255933333336,74.0,90.0
93,124.4372763166667,124.7202953166667,76.0,82.0
94,124.72501230000003,124.79930478750003,79.0,78.0
95,124.80402177083337,124.99859733333336,81.0,81.0
96,125.0033143166667,126.13067333333336,79.0,80.0
97,126.1353903166667,126.27218283333336,77.0,84.0
98,126.2768998166667,126.41369233333336,76.0,80.0
99,126.4184093166667,127.26274933333336,74.0,93.0
100,127.2674663166667,127.40425883333336,74.0,83.0
101,127.4089758166667,127.54576833333337,72.0,84.0
102,127.5504853166667,129.80992033333337,74.0,94.0
103,152.4561573166667,152.83587447500003,74.0,80.0
104,152.4561573166667,152.86889335833337,86.0,58.0
105,153.3052143166667,153.6412993791667,76.0,82.0
106,153.3052143166667,153.67431826250004,88.0,90.0
107,165.1920123166667,165.54814455833338,67.0,78.0
108,165.4750313166667,165.75922956250002,69.0,81.0
109,165.7580503166667,166.1153618041667,67.0,75.0
110,166.04106931666672,168.25805148333336,76.0,82.0
111,168.3052213166667,168.93729708333336,67.0,79.0
