,start,end,pitch,velocity
0,18.874913316666667,19.155865908333332,67.0,57.0
1,19.16062781666667,19.441580408333333,72.0,55.0
2,19.446342316666666,19.727294908333334,72.0,66.0
3,19.732056816666667,20.298723908333333,72.0,84.0
4,20.30348581666667,20.584438408333334,71.0,69.0
5,20.589200316666666,22.208873358333335,72.0,77.0
6,22.21325931666667,22.472030858333333,74.0,91.0
7,22.476416816666667,22.735188358333335,72.0,74.0
8,22.73957431666667,22.998345858333334,71.0,66.0
9,23.002731816666667,23.261503358333336,69.0,62.0
10,23.26588931666667,23.827210333333337,67.0,64.0
11,23.83192731666667,24.110229333333336,67.0,66.0
12,24.114946316666668,24.393248333333336,69.0,80.0
13,24.39796531666667,28.194393858333335,71.0,74.0
14,28.19929581666667,28.488511358333337,60.0,52.0
15,28.49341331666667,28.782628858333336,69.0,61.0
16,28.78753081666667,29.076746358333338,69.0,66.0
17,29.08164831666667,29.368055950000002,69.0,63.0
18,29.37291031666667,30.24184195,71.0,62.0
19,30.246696316666668,30.519844683333336,72.0,62.0
20,30.52447431666667,30.936511683333336,71.0,57.0
21,30.941141316666666,31.492067683333335,67.0,41.0
22,31.49669731666667,32.179130308333335,64.0,52.0
23,32.18363481666667,32.44940080833334,64.0,75.0
24,32.45390531666667,32.72705368333334,62.0,63.0
25,32.73168331666667,33.004831683333336,60.0,59.0
26,33.00946131666667,33.282609683333334,62.0,63.0
27,33.28723931666667,33.56038768333334,60.0,47.0
28,33.56501731666667,33.83816568333334,62.0,51.0
29,33.84279531666667,34.115943683333334,60.0,54.0
30,34.12057331666667,34.39372168333334,62.0,56.0
31,34.39835131666667,34.96253695,64.0,64.0
32,34.96739131666667,37.578340624999996,67.0,83.0
33,37.583148316666666,37.866802125,64.0,61.0
34,37.87160981666666,38.155263624999996,64.0,66.0
35,38.16007131666667,38.732186625,64.0,66.0
36,38.73699431666667,39.020648125,66.0,54.0
37,39.025455816666664,39.854825866666665,68.0,66.0
38,39.85937131666667,40.400279866666665,68.0,84.0
39,40.40482531666667,40.67546765833333,69.0,77.0
40,40.68005481666667,41.23623690833333,71.0,66.0
41,41.24099881666666,41.52195140833333,71.0,87.0
42,41.526713316666665,43.18875168333333,71.0,87.0
43,43.19338131666667,43.466529683333334,69.0,68.0
44,43.471159316666665,45.17063185833333,72.0,96.0
45,45.175533816666665,45.464749358333336,69.0,63.0
46,45.46965131666666,45.758866858333334,69.0,63.0
47,45.76376881666667,46.05298435833333,71.0,79.0
48,46.05788631666667,46.349965325,72.0,89.0
49,46.35491581666667,46.646994825,71.0,59.0
50,46.65194531666667,46.93289790833334,69.0,57.0
51,46.93765981666667,48.06544565833333,72.0,66.0
52,48.07003281666667,48.34067515833333,72.0,90.0
53,48.34526231666666,48.89113415833333,72.0,94.0
54,48.895721316666666,49.716822658333335,71.0,89.0
55,49.721409816666664,50.26728165833333,69.0,90.0
56,50.27186881666667,50.54251115833333,64.0,87.0
57,50.54709831666666,55.35370433333333,62.0,65.0
58,55.358421316666664,55.63672333333333,67.0,66.0
59,55.64144031666666,55.91974233333333,72.0,83.0
60,55.92445931666666,56.20276133333333,72.0,75.0
61,56.207478316666666,56.768799333333334,72.0,90.0
62,56.773516316666665,57.05181833333333,71.0,87.0
63,57.05653531666666,58.46691333333333,72.0,93.0
64,58.47163031666666,58.749932333333334,74.0,96.0
65,58.754649316666665,59.03295133333333,72.0,83.0
66,59.03766831666667,59.31597033333333,71.0,82.0
67,59.320687316666664,59.892921858333324,69.0,59.0
68,59.89782381666666,60.18703935833333,71.0,81.0
69,60.19194131666666,60.77527435833333,71.0,79.0
70,60.78017631666666,61.058478333333326,76.0,84.0
71,61.063195316666665,64.45470633333333,71.0,86.0
72,64.45942331666666,64.73772533333333,64.0,66.0
73,64.74244231666667,65.02074433333333,69.0,75.0
74,65.02546131666666,65.30376333333334,69.0,66.0
75,65.30848031666666,65.86980133333333,69.0,89.0
76,65.87451831666667,66.15282033333332,71.0,87.0
77,66.15753731666666,66.71885833333333,72.0,83.0
78,66.72357531666667,67.28489633333334,71.0,87.0
79,67.28961331666666,67.84578068333333,69.0,81.0
80,67.85041031666667,68.40133668333334,64.0,84.0
81,68.40596631666666,68.67911468333334,64.0,87.0
82,68.68374431666668,68.967398125,62.0,76.0
83,68.97220581666667,69.25585962500001,60.0,64.0
84,69.26066731666667,69.54432112500001,62.0,73.0
85,69.54912881666668,69.83278262500001,60.0,62.0
86,69.83759031666668,70.121244125,62.0,61.0
87,70.12605181666667,70.40970562500002,60.0,64.0
88,70.41451331666667,70.67790603333334,62.0,61.0
89,70.68237031666668,71.22337568333333,64.0,65.0
90,71.22800531666667,73.77086440833334,67.0,66.0
91,73.77562631666667,74.05657890833334,64.0,61.0
92,74.06134081666667,74.34229340833335,64.0,66.0
93,74.34705531666667,74.91372240833334,64.0,66.0
94,74.91848431666668,75.19943690833334,66.0,54.0
95,75.20419881666668,76.05658040833335,68.0,66.0
96,76.06134231666668,76.61226868333335,68.0,84.0
97,76.61689831666668,76.89004668333335,69.0,77.0
98,76.89467631666668,77.44560268333335,71.0,66.0
99,77.45023231666669,77.72338068333335,71.0,87.0
100,77.72801031666668,79.42140733333335,71.0,87.0
101,79.42612431666669,79.70442633333334,69.0,68.0
102,79.70914331666668,81.40254033333335,72.0,96.0
103,81.40725731666669,81.68555933333334,69.0,67.0
104,81.69027631666668,81.96857833333335,69.0,68.0
105,81.97329531666668,82.25159733333335,71.0,82.0
106,82.25631431666669,82.67612583333334,72.0,80.0
107,82.68084281666668,83.10065433333335,71.0,66.0
108,83.10537131666669,83.24216383333335,69.0,57.0
109,83.24688081666669,83.38367333333335,72.0,63.0
110,83.38839031666669,84.23273033333335,72.0,64.0
111,84.23744731666669,84.51574933333335,72.0,89.0
112,84.52046631666668,85.08178733333335,72.0,92.0
113,85.08650431666669,85.64257941666669,69.0,68.0
114,85.6472523166667,86.06314041666668,76.0,97.0
115,86.06781331666669,86.48370141666669,76.0,98.0
116,86.4883743166667,87.04970090833335,72.0,93.0
117,87.05446281666669,90.47827490833336,74.0,92.0
118,90.48303681666668,90.76398940833336,67.0,75.0
119,90.7687513166667,91.04970390833336,69.0,68.0
120,91.05446581666669,91.33541840833335,72.0,66.0
121,91.34018031666669,91.6158814166667,74.0,68.0
122,91.62055431666668,91.89625541666669,76.0,66.0
123,91.9009283166667,92.17662941666669,76.0,67.0
124,92.18130231666669,92.4570034166667,76.0,62.0
125,92.46167631666668,92.73737741666669,76.0,66.0
126,92.74205031666669,93.01775141666668,72.0,66.0
127,93.02242431666669,93.2981254166667,74.0,65.0
128,93.3027983166667,94.98036941666669,76.0,64.0
129,94.98504231666669,95.26074341666668,67.0,89.0
130,95.26541631666669,95.5411174166667,69.0,66.0
131,95.54579031666668,95.82149141666669,72.0,87.0
132,95.82616431666669,96.11537985833336,74.0,75.0
133,96.12028181666669,96.40949735833335,74.0,66.0
134,96.41439931666669,96.70361485833335,74.0,65.0
135,96.70851681666669,96.99773235833335,74.0,79.0
136,97.00263431666669,97.41852241666669,74.0,86.0
137,97.42319531666669,97.83908341666668,71.0,68.0
138,97.84375631666668,98.40243233333335,72.0,84.0
139,98.40714931666668,99.53450833333335,74.0,79.0
140,99.53922531666667,99.81752733333335,69.0,81.0
141,99.82224431666668,100.10054633333334,69.0,66.0
142,100.10526331666668,100.38356533333335,71.0,82.0
143,100.38828231666668,100.66658433333335,72.0,91.0
144,100.67130131666669,101.51564133333335,72.0,90.0
145,101.52035831666669,102.08702540833336,72.0,95.0
146,102.09178731666668,102.65845440833336,64.0,72.0
147,102.66321631666669,103.51559790833335,62.0,75.0
148,103.52035981666668,104.65845590833335,69.0,91.0
149,104.66321781666669,104.94417040833335,67.0,81.0
150,104.94893231666668,108.57909390833336,67.0,92.0
151,108.5838558166667,108.86480840833336,76.0,100.0
152,108.8695703166667,109.15052290833336,74.0,91.0
153,109.1552848166667,109.43623740833335,72.0,90.0
154,109.44099931666669,109.71930133333336,74.0,93.0
155,109.72401831666669,110.00232033333336,76.0,97.0
156,110.0070373166667,110.28533933333335,76.0,93.0
157,110.29005631666669,110.56835833333336,76.0,95.0
158,110.57307531666669,110.99288683333336,76.0,98.0
159,110.9976038166667,111.41741533333335,72.0,90.0
160,111.42213231666669,111.70043433333336,79.0,91.0
161,111.70515131666669,113.09721590833335,76.0,100.0
162,113.10197781666669,113.38293040833337,67.0,90.0
163,113.38769231666669,113.66864490833336,69.0,79.0
164,113.6734068166667,113.95435940833336,72.0,87.0
165,113.9591213166667,114.24833685833336,74.0,92.0
166,114.2532388166667,114.54245435833336,74.0,90.0
167,114.5473563166667,114.83657185833336,74.0,90.0
168,114.84147381666669,115.13068935833336,74.0,81.0
169,115.13559131666669,115.57186560833337,79.0,82.0
170,115.5767675666667,116.01304185833337,79.0,91.0
171,116.0179438166667,116.30715935833337,81.0,94.0
172,116.3120613166667,116.5802428666667,76.0,77.0
173,116.5847883166667,117.6711508666667,74.0,77.0
174,117.6756963166667,117.9438778666667,69.0,87.0
175,117.9484233166667,118.2166048666667,69.0,77.0
176,118.2211503166667,118.4893318666667,71.0,96.0
177,118.4938773166667,118.91368883333337,72.0,99.0
178,118.91840581666669,120.18727433333336,72.0,98.0
179,120.1919913166667,120.47029333333336,69.0,93.0
180,120.4750103166667,120.75331233333337,72.0,87.0
181,120.7580293166667,121.31935033333336,76.0,93.0
182,121.3240673166667,121.88538833333337,77.0,94.0
183,121.8901053166667,122.45142633333336,76.0,99.0
184,122.4561433166667,122.73444533333337,72.0,93.0
185,122.7391623166667,123.30048333333336,74.0,98.0
186,123.3052003166667,126.69671133333337,72.0,99.0
187,126.70142831666669,126.97973033333336,71.0,81.0
188,126.9844473166667,127.26274933333336,71.0,77.0
189,127.2674663166667,127.54576833333337,72.0,77.0
190,127.5504853166667,127.82878733333337,74.0,69.0
191,127.8335043166667,128.11180633333336,74.0,77.0
192,128.1165233166667,128.39482533333336,72.0,67.0
193,128.3995423166667,128.67784433333335,74.0,81.0
194,128.6825613166667,129.24388233333337,67.0,81.0
195,129.24859931666668,129.52690133333337,71.0,87.0
196,129.5316183166667,129.80992033333337,72.0,87.0
197,129.8146373166667,131.22501533333337,74.0,99.0
198,131.2297323166667,131.50803433333337,67.0,76.0
199,131.5127513166667,131.79105333333337,76.0,96.0
200,131.7957703166667,132.07407233333336,77.0,72.0
201,132.0787893166667,132.35709133333336,74.0,82.0
202,132.3618083166667,132.64011033333335,72.0,80.0
203,132.6448273166667,132.92312933333338,72.0,75.0
204,132.9278463166667,133.20614833333337,69.0,79.0
205,133.2108653166667,133.63067683333335,72.0,92.0
206,133.6353938166667,134.05520533333336,69.0,86.0
207,134.0599223166667,135.75331933333337,67.0,96.0
208,135.7580363166667,136.03633833333336,69.0,93.0
209,136.0410553166667,136.31935733333336,69.0,90.0
210,136.3240743166667,136.60237633333338,71.0,80.0
211,136.6070933166667,136.88539533333338,72.0,90.0
212,136.89011231666672,137.16841433333337,71.0,79.0
213,137.1731313166667,137.45143333333337,69.0,66.0
214,137.4561503166667,137.73445233333337,71.0,83.0
215,137.7391693166667,138.15898083333337,72.0,93.0
216,138.1636978166667,138.58350933333338,72.0,93.0
217,138.5882263166667,138.86652833333338,64.0,72.0
218,138.87124531666672,140.28162333333336,67.0,91.0
219,140.2863403166667,140.56464233333338,67.0,95.0
220,140.5693593166667,140.84766133333338,65.0,75.0
221,140.85237831666672,141.13068033333337,64.0,69.0
222,141.1353973166667,141.41369933333337,65.0,87.0
223,141.4184163166667,141.69671833333337,64.0,74.0
224,141.7014353166667,141.97973733333336,65.0,85.0
225,141.9844543166667,142.26275633333336,64.0,66.0
226,142.2674733166667,142.54577533333338,65.0,85.0
227,142.5504923166667,143.11181333333337,72.0,90.0
228,143.1165303166667,143.39483233333337,64.0,72.0
229,143.3995493166667,143.67785133333336,65.0,81.0
230,143.6825683166667,143.96087033333336,64.0,69.0
231,143.9655873166667,144.24388933333336,65.0,84.0
232,144.2486063166667,144.52690833333338,64.0,64.0
233,144.5316253166667,144.95143683333336,65.0,87.0
234,144.9561538166667,145.37596533333337,72.0,103.0
235,145.3806823166667,149.33823133333337,74.0,90.0
236,149.3429483166667,149.62125033333336,67.0,87.0
237,149.6259673166667,150.04577883333337,69.0,94.0
238,150.0504958166667,150.47030733333338,72.0,84.0
239,150.4750243166667,150.75332633333338,74.0,91.0
240,150.75804331666671,151.03634533333337,76.0,86.0
241,151.0410623166667,151.31936433333337,76.0,87.0
242,151.3240813166667,151.60238333333336,76.0,87.0
243,151.6071003166667,151.88540233333336,76.0,72.0
244,151.8901193166667,152.30993083333337,72.0,83.0
245,152.3146478166667,152.73445933333338,74.0,90.0
246,152.73917631666671,153.86653533333336,76.0,92.0
247,153.8712523166667,154.14955433333336,67.0,85.0
248,154.1542713166667,154.43257333333338,69.0,90.0
249,154.4372903166667,154.71559233333338,72.0,83.0
250,154.72030931666671,154.99861133333337,72.0,98.0
251,155.0033283166667,155.28163033333337,74.0,91.0
252,155.2863473166667,155.56464933333336,74.0,90.0
253,155.5693663166667,155.8476683333334,74.0,79.0
254,155.8523853166667,156.27219683333337,74.0,95.0
255,156.2769138166667,156.69672533333338,71.0,97.0
256,156.70144231666671,156.97974433333337,72.0,95.0
257,156.9844613166667,158.39483933333338,74.0,97.0
258,158.3995563166667,158.67785833333338,69.0,96.0
259,158.6825753166667,158.96087733333337,69.0,90.0
260,158.9655943166667,159.24389633333337,71.0,89.0
261,159.2486133166667,159.66842483333338,72.0,98.0
262,159.6731418166667,160.37597233333338,72.0,91.0
263,160.3806893166667,160.94201033333337,72.0,103.0
264,160.9467273166667,161.50804833333336,64.0,93.0
265,161.5127653166667,162.35710533333338,62.0,97.0
266,162.3618223166667,163.7722003333334,69.0,106.0
267,163.7769173166667,164.19672883333337,67.0,109.0
268,164.2014458166667,167.45144733333336,67.0,109.0
269,167.4561643166667,167.7344663333334,76.0,103.0
270,167.7391833166667,168.01748533333338,74.0,91.0
271,168.02220231666672,168.30050433333338,72.0,92.0
272,168.3052213166667,168.58352333333337,74.0,97.0
273,168.5882403166667,169.14956133333337,76.0,97.0
274,169.1542783166667,169.29107083333338,76.0,90.0
275,169.2957878166667,169.43258033333336,76.0,65.0
276,169.4372973166667,169.85710883333337,76.0,90.0
277,169.8618258166667,170.28163733333338,72.0,103.0
278,170.28635431666672,170.7061658333334,79.0,87.0
279,170.7108828166667,171.97975133333338,76.0,99.0
280,171.98446831666672,172.26277033333338,67.0,98.0
281,172.26748731666672,172.54578933333337,69.0,92.0
282,172.5505063166667,172.82880833333337,72.0,93.0
283,172.8335253166667,173.11717912500004,74.0,97.0
284,173.12198681666672,173.40564062500005,74.0,99.0
285,173.4104483166667,173.69410212500003,74.0,95.0
286,173.6989098166667,174.27102512500005,74.0,91.0
287,174.2758328166667,174.70371737500005,79.0,97.0
288,174.7085250666667,174.99217887500004,79.0,101.0
289,174.99698656666672,175.27800983333339,79.0,93.0
290,175.28272681666672,175.56102883333338,76.0,95.0
291,175.56574581666672,176.55159533333338,74.0,91.0
292,176.55631231666672,176.69310483333336,69.0,93.0
293,176.6978218166667,176.83461433333338,69.0,74.0
294,176.83933131666672,177.11763333333337,69.0,91.0
295,177.1223503166667,177.40065233333337,71.0,96.0
296,177.4053693166667,177.68367133333336,72.0,103.0
297,177.6883883166667,179.13160095000003,72.0,103.0
298,179.1364553166667,179.42286295000002,69.0,87.0
299,179.4277173166667,179.71412495000004,72.0,89.0
300,179.7189793166667,180.14686387500004,76.0,91.0
301,180.1516715666667,180.86801762500002,77.0,100.0
302,180.87282531666668,181.30070987500002,77.0,103.0
303,181.30551756666668,183.03147887500003,72.0,97.0
304,183.0362865666667,184.04109412500003,74.0,103.0
305,184.04590181666669,188.85795033333335,72.0,97.0
