,start,end,pitch,velocity
0,0.7594343166666668,1.3085000666666669,62.0,47.0
1,0.7594343166666668,1.3143411916666667,64.0,59.0
2,0.7594343166666668,1.377325216666667,67.0,61.0
3,1.605896816666667,2.3320878375000005,67.0,56.0
4,0.7594343166666668,2.4368498208333333,48.0,63.0
5,1.605896816666667,2.4439926833333336,62.0,59.0
6,1.039808316666667,2.4975641520833336,55.0,49.0
7,1.3201823166666669,2.6868500083333338,60.0,46.0
8,3.0344693166666667,3.5975537666666666,69.0,61.0
9,3.0344693166666667,3.676993066666667,65.0,50.0
10,3.595217316666667,4.399146891666667,62.0,49.0
11,3.0344693166666667,4.565055816666666,50.0,68.0
12,3.8755913166666667,4.575283079166667,64.0,51.0
13,3.314843316666667,4.619601216666666,57.0,50.0
14,4.428692316666666,4.6968738666666665,65.0,61.0
15,5.246873316666666,5.792111820833333,60.0,56.0
16,5.246873316666666,5.825445179166666,64.0,56.0
17,6.104016816666666,6.813541158333333,59.0,46.0
18,5.246873316666666,7.0433032354166665,45.0,58.0
19,5.818302316666666,7.1540176041666665,57.0,40.0
20,6.675445816666667,7.215922412499999,60.0,39.0
21,5.532587816666666,7.26592245,52.0,55.0
22,7.246874816666667,7.537351225,59.0,42.0
23,7.246874816666667,7.55163695,62.0,61.0
24,7.532589316666666,8.088542114583333,60.0,63.0
25,7.532589316666666,8.142113583333334,64.0,70.0
26,8.389732816666665,8.75520928125,59.0,69.0
27,7.818303816666666,8.91235225625,52.0,56.0
28,8.675447316666666,8.949257045833333,60.0,75.0
29,8.104018316666666,8.961161816666667,57.0,61.0
30,7.532589316666666,9.077828570833333,45.0,58.0
31,8.961161816666667,9.199257233333332,62.0,70.0
32,9.246876316666667,9.551638449999999,64.0,60.0
33,9.532590816666666,9.8016386375,67.0,53.0
34,9.818305316666667,10.166182837500001,60.0,56.0
35,9.818305316666667,10.271135716666667,64.0,73.0
36,10.101324316666666,11.009343608333333,55.0,57.0
37,10.667362316666667,11.466890991666666,67.0,59.0
38,10.384343316666667,11.484579679166668,60.0,34.0
39,10.667362316666667,11.499909875,62.0,54.0
40,9.818305316666667,11.543541970833333,48.0,66.0
41,11.516419316666667,11.706277895833335,55.0,53.0
42,12.082457316666666,12.405570675,65.0,55.0
43,12.082457316666666,12.427976345833333,60.0,69.0
44,12.082457316666666,12.453919754166668,57.0,47.0
45,12.931514316666668,13.7180712875,65.0,61.0
46,12.648495316666667,13.77113735,57.0,39.0
47,12.082457316666666,13.801797741666668,50.0,59.0
48,12.365476316666667,13.806514725000001,53.0,54.0
49,14.346609316666667,14.679156641666667,64.0,63.0
50,14.629628316666668,15.521138166666667,57.0,35.0
51,14.912647316666668,15.577741966666668,59.0,57.0
52,15.195666316666667,15.695666550000002,60.0,72.0
53,16.04472331666667,16.32774231666667,64.0,50.0
54,16.32774231666667,16.607223579166668,71.0,75.0
55,15.761704316666668,17.6237334875,57.0,25.0
56,14.346609316666667,17.731044858333334,45.0,63.0
57,16.610761316666668,17.755809020833333,64.0,16.0
58,16.610761316666668,17.77467695416667,72.0,63.0
59,16.610761316666668,17.779393937500004,69.0,19.0
60,18.685054737500003,19.427294683333333,64.0,51.0
61,18.747554766666667,19.4296756375,67.0,58.0
62,18.874913316666667,20.782057604166667,48.0,63.0
63,19.446342316666666,20.997533956250003,60.0,58.0
64,18.874913316666667,21.020153020833334,72.0,78.0
65,19.16062781666667,21.20339241041667,55.0,53.0
66,21.160629316666668,21.683654847916667,67.0,62.0
67,19.732056816666667,21.704488150000003,62.0,54.0
68,21.950101816666667,22.516986931250003,62.0,59.0
69,21.68694431666667,22.613478014583336,60.0,41.0
70,21.160629316666668,22.774661983333335,48.0,73.0
71,21.423786816666667,22.840451358333336,55.0,55.0
72,22.476416816666667,22.853609233333334,67.0,73.0
73,23.26588931666667,23.603153625000004,62.0,55.0
74,23.26588931666667,23.61258759166667,67.0,60.0
75,23.83192731666667,24.63853146666667,62.0,54.0
76,24.114946316666668,25.016699368750004,67.0,59.0
77,23.26588931666667,25.068169931250004,52.0,72.0
78,23.54890831666667,25.201748295833337,59.0,40.0
79,24.96400331666667,25.34635606666667,69.0,63.0
80,25.55223831666667,25.918659702083335,67.0,47.0
81,25.55223831666667,25.922336170833336,71.0,73.0
82,26.14047331666667,27.108610087500004,62.0,49.0
83,26.43459081666667,27.278953139583336,67.0,59.0
84,25.84635581666667,27.46767853541667,59.0,51.0
85,25.55223831666667,27.505668712500004,52.0,59.0
86,27.90517831666667,28.468903525,64.0,62.0
87,28.78753081666667,29.37655109166667,60.0,57.0
88,27.90517831666667,29.905677058333335,45.0,63.0
89,28.49341331666667,29.96271586666667,57.0,46.0
90,28.19929581666667,30.11562841666667,52.0,60.0
91,29.37291031666667,30.175094408333337,62.0,56.0
92,30.246696316666668,31.141372958333335,60.0,61.0
93,30.246696316666668,31.54299365,64.0,61.0
94,31.357808316666667,31.701558591666668,57.0,50.0
95,31.08003031666667,31.855493900000003,52.0,11.0
96,30.246696316666668,31.899475416666668,45.0,47.0
97,31.635586316666668,31.899475416666668,60.0,60.0
98,31.91336431666667,32.25120244166667,62.0,71.0
99,32.45390531666667,32.81848894166667,62.0,44.0
100,32.45390531666667,32.82543339166667,66.0,75.0
101,32.45390531666667,32.83585006666667,69.0,71.0
102,32.73168331666667,33.8265916,57.0,41.0
103,33.00946131666667,33.837008275,60.0,61.0
104,33.28723931666667,33.91571204166667,66.0,72.0
105,34.39835131666667,34.612471858333336,60.0,51.0
106,34.12057331666667,34.66687005000001,57.0,43.0
107,32.45390531666667,34.67612931666667,50.0,69.0
108,34.67612931666667,34.980740825,60.0,69.0
109,34.67612931666667,34.9989447,65.0,69.0
110,34.67612931666667,35.01593498333333,69.0,62.0
111,35.25865331666667,35.6397211,60.0,61.0
112,34.67612931666667,35.665206525,72.0,59.0
113,35.54991531666667,36.143361641666665,65.0,77.0
114,34.96739131666667,36.153070375,59.0,32.0
115,34.67612931666667,36.27078876666667,55.0,60.0
116,36.423701316666666,36.814477833333335,72.0,78.0
117,37.006225316666665,37.59757139166666,71.0,75.0
118,37.29468681666666,37.88242712291667,59.0,37.0
119,37.583148316666666,38.08314825,64.0,59.0
120,37.87160981666666,38.67569624791666,69.0,62.0
121,37.006225316666665,38.79588853958333,52.0,75.0
122,38.44853281666666,38.991801975,59.0,56.0
123,38.73699431666667,39.691189666666666,64.0,55.0
124,39.025455816666664,39.78323502916667,68.0,61.0
125,39.58664431666667,40.30255269166667,59.0,68.0
126,39.85937131666667,40.70872455625,64.0,57.0
127,40.13209831666667,40.74886219166667,74.0,75.0
128,40.68005481666667,40.99457006041666,59.0,56.0
129,39.31391731666667,41.056474868749994,52.0,58.0
130,40.95528431666666,41.28623694583333,69.0,70.0
131,41.24099881666666,41.49099900416666,71.0,73.0
132,41.526713316666665,41.9827322,45.0,62.0
133,41.80449131666666,42.061435966666664,52.0,46.0
134,42.08226931666667,42.45379739166667,57.0,47.0
135,41.526713316666665,42.68180683333333,64.0,58.0
136,41.526713316666665,42.75240874166666,72.0,75.0
137,42.91560331666666,43.208427625,64.0,59.0
138,42.360047316666666,43.244307283333335,59.0,61.0
139,43.19338131666667,43.471159316666665,71.0,71.0
140,42.637825316666664,43.525557508333335,60.0,71.0
141,43.471159316666665,44.07069683333333,64.0,62.0
142,43.471159316666665,44.13319688333333,72.0,52.0
143,44.304493316666665,44.516031749999996,64.0,68.0
144,44.59295481666666,44.88021439375,71.0,79.0
145,44.02671531666667,44.93656334791667,60.0,71.0
146,44.881416316666666,45.28215141041667,72.0,76.0
147,45.028475066666665,45.33852393125,60.0,57.0
148,43.74893731666666,45.48068072291667,57.0,46.0
149,45.322592566666664,45.76009234791667,67.0,76.0
150,45.76376881666667,45.88509228541667,64.0,62.0
151,46.05788631666667,46.69480249166667,60.0,59.0
152,46.05788631666667,46.74718348333334,65.0,71.0
153,46.05788631666667,46.81265972291667,69.0,60.0
154,46.05788631666667,47.60551746041667,53.0,74.0
155,47.22337431666667,47.926684118749996,60.0,57.0
156,47.22337431666667,47.97943643958333,69.0,57.0
157,47.22337431666667,47.98058322916667,65.0,63.0
158,47.794803316666666,47.993197914583334,53.0,72.0
159,48.34526231666666,48.706501035416665,66.0,71.0
160,48.34526231666666,48.7282900375,62.0,50.0
161,48.34526231666666,49.06315259583333,72.0,58.0
162,48.620491816666664,49.2787490375,57.0,43.0
163,48.895721316666666,49.80053829791667,62.0,68.0
164,49.721409816666664,49.99319894791667,57.0,51.0
165,48.34526231666666,50.03792374166667,50.0,50.0
166,49.17095081666667,50.05397879583333,69.0,79.0
167,49.996639316666666,50.07576779791667,66.0,82.0
168,50.54709831666666,50.97752304583333,60.0,72.0
169,50.54709831666666,51.08129667916666,57.0,59.0
170,50.54709831666666,51.13790047916666,65.0,63.0
171,51.11313631666666,51.73459887083333,55.0,50.0
172,51.396155316666665,51.9952122,60.0,76.0
173,50.54709831666666,52.32186329583333,43.0,71.0
174,51.962193316666664,52.471627516666665,55.0,47.0
175,52.24521231666667,52.485778466666666,60.0,69.0
176,50.830117316666666,52.547099249999995,50.0,57.0
177,52.52823131666666,52.65794835833333,65.0,75.0
178,52.811250316666666,53.2864863875,67.0,74.0
179,52.811250316666666,53.30535432083333,59.0,68.0
180,52.811250316666666,54.409128420833326,43.0,60.0
181,53.94332631666666,54.4468642875,60.0,69.0
182,53.94332631666666,54.50228884166666,50.0,50.0
183,53.94332631666666,54.5459209375,65.0,63.0
184,53.94332631666666,54.583656804166665,57.0,54.0
185,54.50936431666666,54.634364375,62.0,70.0
186,55.07540231666666,55.790025291666666,67.0,63.0
187,55.07540231666666,55.81007247083333,72.0,73.0
188,55.07540231666666,55.836015879166666,64.0,56.0
189,56.207478316666666,56.858422016666665,67.0,69.0
190,55.07540231666666,56.92799752083333,48.0,56.0
191,56.207478316666666,56.9374314875,64.0,60.0
192,56.207478316666666,56.975167354166665,72.0,68.0
193,57.339554316666664,57.933894216666665,67.0,68.0
194,57.339554316666664,57.96101687083333,72.0,61.0
195,57.339554316666664,57.9669131,64.0,61.0
196,58.47163031666666,58.791205937499996,62.0,59.0
197,58.47163031666666,58.864319179166664,67.0,61.0
198,58.47163031666666,58.936253175,71.0,73.0
199,57.339554316666664,59.02587585833333,48.0,61.0
200,59.03766831666667,59.17564007916666,72.0,79.0
201,59.03766831666667,59.17799857083333,64.0,41.0
202,59.03766831666667,59.18861178333333,67.0,49.0
203,59.60370631666666,60.40027454583333,71.0,77.0
204,59.60370631666666,60.402725524999994,67.0,67.0
205,59.60370631666666,60.40517650416666,62.0,61.0
206,59.60370631666666,61.049044366666664,59.0,57.0
207,60.78017631666666,61.383950183333326,67.0,68.0
208,60.78017631666666,61.39928037916666,62.0,59.0
209,60.78017631666666,61.40281811666666,71.0,74.0
210,59.60370631666666,61.43583699999999,52.0,50.0
211,61.34621431666666,61.5455068625,59.0,37.0
212,61.91225231666666,62.60800735833333,71.0,69.0
213,61.91225231666666,62.641026241666665,67.0,58.0
214,61.91225231666666,62.65046020833333,62.0,56.0
215,61.91225231666666,63.090318904166665,59.0,63.0
216,63.044328316666665,63.31201712083333,67.0,61.0
217,63.044328316666665,63.33324354583333,62.0,61.0
218,63.044328316666665,63.35564921666666,71.0,73.0
219,61.91225231666666,63.81201735416666,52.0,59.0
220,63.32734731666666,63.816734337499994,59.0,61.0
221,63.61036631666666,63.87451738333333,62.0,63.0
222,63.89338531666666,64.04786652083332,67.0,63.0
223,64.17640431666666,64.9558858125,72.0,69.0
224,64.17640431666666,64.97947072916666,64.0,63.0
225,64.17640431666666,64.98772545,67.0,38.0
226,65.30848031666666,65.61626347916666,72.0,73.0
227,65.30848031666666,65.71767862083333,64.0,68.0
228,65.30848031666666,65.73536730833332,67.0,69.0
229,64.17640431666666,65.7483390125,57.0,61.0
230,66.44055631666666,66.876877275,60.0,60.0
231,66.44055631666666,66.8945659625,69.0,67.0
232,66.44055631666666,66.89928294583333,64.0,68.0
233,67.00659431666666,67.17758496249999,60.0,54.0
234,66.72357531666667,67.84578068333333,57.0,27.0
235,67.57263231666667,68.04138269166667,69.0,69.0
236,67.57263231666667,68.05411418333334,60.0,63.0
237,66.44055631666666,68.09925310833334,45.0,58.0
238,67.28961331666666,68.10619755833333,64.0,58.0
239,68.12818831666667,68.25318841666667,57.0,47.0
240,68.68374431666668,69.04672503750001,62.0,53.0
241,68.68374431666668,69.05153272916668,69.0,58.0
242,68.68374431666668,69.05634042083334,66.0,72.0
243,68.97220581666667,69.65249418750001,57.0,36.0
244,69.26066731666667,69.95658068541668,62.0,41.0
245,69.54912881666668,70.16811911875001,67.0,61.0
246,68.68374431666668,70.39167678125001,50.0,52.0
247,70.12605181666667,70.41210947083334,57.0,51.0
248,70.41451331666667,70.5361650375,69.0,69.0
249,70.41451331666667,70.546209675,62.0,63.0
250,70.95022731666667,71.31828316666667,65.0,69.0
251,70.95022731666667,71.32638502500001,60.0,76.0
252,71.50578331666667,71.87383916666667,60.0,61.0
253,71.22800531666667,72.034718925,55.0,35.0
254,71.78356131666666,72.11133935416667,62.0,82.0
255,70.95022731666667,72.41014910208334,43.0,62.0
256,72.34705381666667,72.55538730625001,55.0,53.0
257,72.63276831666667,72.71253028125001,65.0,80.0
258,73.20419731666668,73.55300710208334,62.0,63.0
259,73.20419731666668,73.58395950625001,68.0,63.0
260,73.77562631666667,73.96134074166667,64.0,54.0
261,73.48991181666668,74.12086467083334,59.0,59.0
262,74.06134081666667,74.40657917083334,64.0,53.0
263,74.34705531666667,74.46729350208334,59.0,73.0
264,74.06134081666667,74.46967445625,71.0,84.0
265,73.20419731666668,74.47562684166668,52.0,69.0
266,74.63276981666668,75.05181775000001,64.0,35.0
267,74.91848431666668,75.21134167916668,69.0,73.0
268,75.20419881666668,75.88158027708334,71.0,76.0
269,75.48991331666667,75.91967554375,68.0,59.0
270,75.48991331666667,75.93515174583334,64.0,69.0
271,75.48991331666667,76.05896136250001,74.0,73.0
272,76.06134231666668,76.33912031666668,64.0,56.0
273,75.77562781666667,76.72106506666668,59.0,58.0
274,76.61689831666668,76.96527822500002,64.0,60.0
275,76.61689831666668,76.96990785833334,68.0,58.0
276,76.61689831666668,76.98148194166669,71.0,78.0
277,76.89467631666668,77.07060238333335,59.0,71.0
278,75.48991331666667,77.12500057500002,52.0,71.0
279,77.17245431666669,77.37152855000002,69.0,75.0
280,77.45023231666669,77.69213065833335,71.0,79.0
281,77.72801031666668,78.23390677916669,45.0,71.0
282,78.01102931666668,78.28697284166668,52.0,59.0
283,78.29404831666669,78.59947298750002,55.0,53.0
284,77.72801031666668,78.87777500416668,67.0,69.0
285,77.72801031666668,78.89428444583335,72.0,80.0
286,77.72801031666668,78.94735050833334,64.0,71.0
287,79.14310531666668,79.53579417916669,64.0,62.0
288,79.42612431666669,79.60536968333335,72.0,76.0
289,78.86008631666668,79.63838856666668,59.0,48.0
290,78.57706731666669,79.72565275833335,57.0,62.0
291,79.70914331666668,79.93437927083335,71.0,72.0
292,79.99216231666668,80.34121908333336,64.0,63.0
293,79.99216231666668,80.38131344166668,72.0,78.0
294,80.55820031666669,80.72801171666669,64.0,53.0
295,80.27518131666669,80.84357780833335,60.0,69.0
296,80.55820031666669,80.90489859166668,71.0,68.0
297,80.84121931666668,81.17140815000002,64.0,51.0
298,80.84121931666668,81.25513460416668,72.0,78.0
299,81.12423831666669,81.56055927500002,60.0,57.0
300,79.99216231666668,81.57824796250001,57.0,60.0
301,81.40725731666669,81.65371969583335,64.0,72.0
302,81.40725731666669,81.76574805000001,67.0,77.0
303,81.97329531666668,82.11598406250002,64.0,48.0
304,82.25631431666669,82.87305988750002,69.0,69.0
305,82.25631431666669,83.15961662500001,65.0,75.0
306,82.25631431666669,83.16197511666668,60.0,62.0
307,82.25631431666669,83.75631501666669,53.0,72.0
308,83.38839031666669,84.05112647500002,69.0,72.0
309,83.38839031666669,84.07706988333335,65.0,79.0
310,83.38839031666669,84.10183404583336,60.0,76.0
311,83.95442831666668,84.37777757083335,53.0,62.0
312,84.23744731666669,84.48037195833335,52.0,69.0
313,84.52046631666668,85.25472871666669,66.0,55.0
314,84.52046631666668,85.42412134166669,62.0,76.0
315,84.52046631666668,85.44865406666669,69.0,73.0
316,84.52046631666668,86.04211236666669,50.0,73.0
317,85.6472523166667,86.1332339166667,66.0,82.0
318,85.6472523166667,86.1542619666667,72.0,74.0
319,85.6472523166667,86.1811311416667,69.0,71.0
320,85.6472523166667,86.21617789166669,62.0,70.0
321,86.20800031666668,86.30613121666669,50.0,79.0
322,86.76874831666669,87.12232001041669,65.0,78.0
323,86.76874831666669,87.12827239583335,72.0,30.0
324,86.76874831666669,87.1366057354167,60.0,75.0
325,86.76874831666669,87.14732002916669,69.0,73.0
326,87.34017731666668,87.50327267708336,60.0,61.0
327,87.6258918166667,87.67708233125002,69.0,69.0
328,87.05446281666669,87.7044633041667,55.0,49.0
329,87.6258918166667,88.16041602708336,60.0,80.0
330,87.6258918166667,88.24613037708336,65.0,84.0
331,86.76874831666669,88.65803544791669,43.0,79.0
332,88.19732081666669,88.66160687916668,55.0,69.0
333,88.48303531666669,88.6937497604167,60.0,77.0
334,88.48303531666669,88.75089266041668,69.0,79.0
335,88.76874981666668,88.96041662708336,50.0,73.0
336,89.05446431666668,89.34970263333335,71.0,90.0
337,89.05446431666668,89.38184551458336,62.0,80.0
338,89.05446431666668,89.39136933125002,43.0,80.0
339,89.3401788166667,89.72708386875001,55.0,55.0
340,89.62589331666669,89.74375054791669,64.0,76.0
341,89.62589331666669,89.75922675000002,72.0,90.0
342,89.62589331666669,89.95684594583335,57.0,68.0
343,89.91160781666669,90.14851275625003,59.0,68.0
344,90.19732231666669,90.29256048333336,65.0,77.0
345,90.19732231666669,90.31517954791669,74.0,90.0
346,90.19732231666669,90.48541777083335,60.0,62.0
347,90.7687513166667,90.88303711666669,64.0,79.0
348,90.7687513166667,90.88303711666669,69.0,47.0
349,90.48303681666668,90.90803713541669,62.0,71.0
350,90.7687513166667,90.91279904375003,72.0,70.0
351,90.7687513166667,90.98541814583335,77.0,86.0
352,91.34018031666669,91.88690961666668,67.0,72.0
353,91.34018031666669,91.9534984416667,72.0,81.0
354,91.34018031666669,91.96868536666669,64.0,68.0
355,92.18130231666669,92.37172299166669,64.0,69.0
356,92.18130231666669,92.46167631666668,71.0,84.0
357,91.9009283166667,92.46518099166668,60.0,71.0
358,92.46167631666668,92.71868581666669,64.0,63.0
359,92.46167631666668,92.75606901666669,72.0,82.0
360,92.46167631666668,92.7700877166667,67.0,80.0
361,91.62055431666668,92.92312519166668,55.0,63.0
362,92.74205031666669,92.95116259166669,60.0,45.0
363,92.88223731666669,93.11354586666668,72.0,83.0
364,92.88223731666669,93.1334056916667,64.0,71.0
365,91.34018031666669,93.14976084166669,48.0,80.0
366,93.02242431666669,93.2770973666667,55.0,72.0
367,93.3027983166667,93.47803206666669,71.0,80.0
368,93.58317231666669,93.89041549166669,71.0,83.0
369,93.58317231666669,93.93948094166669,62.0,70.0
370,93.58317231666669,93.94415384166669,67.0,79.0
371,94.1439203166667,94.40209804166669,62.0,63.0
372,93.86354631666669,94.71985524166669,59.0,62.0
373,94.42429431666669,94.77709826666668,67.0,83.0
374,94.70466831666668,94.80279921666668,71.0,86.0
375,94.98504231666669,95.3027995166667,59.0,56.0
376,95.26541631666669,95.39275284166669,72.0,78.0
377,95.26541631666669,95.4207902416667,84.0,74.0
378,93.58317231666669,95.60653801666669,47.0,76.0
379,95.54579031666668,95.61121091666669,59.0,54.0
380,95.54579031666668,95.64158476666668,74.0,63.0
381,95.54579031666668,95.6894819916667,86.0,83.0
382,95.82616431666669,96.37028169166669,67.0,78.0
383,95.82616431666669,96.39111501458336,71.0,84.0
384,96.12028181666669,96.95361473333335,59.0,68.0
385,96.70851681666669,96.97322256666669,67.0,69.0
386,97.00263431666669,97.22576529166669,69.0,76.0
387,96.41439931666669,97.35777471666668,64.0,69.0
388,97.28300831666668,97.48978414166669,71.0,79.0
389,95.82616431666669,97.57623279166668,52.0,77.0
390,97.56338231666669,97.65099919166668,59.0,77.0
391,97.56338231666669,98.01899006666669,72.0,78.0
392,98.12413031666668,98.38356440000001,62.0,63.0
393,98.12413031666668,98.54394183333335,71.0,81.0
394,98.12413031666668,98.61941356666668,67.0,73.0
395,98.40714931666668,98.93191371250002,59.0,61.0
396,98.69016831666669,99.12884776666668,64.0,68.0
397,98.97318731666668,99.20785723750001,71.0,74.0
398,99.25620631666668,99.66540462083334,69.0,75.0
399,99.25620631666668,99.87177264166668,59.0,61.0
400,98.12413031666668,99.91658398333335,52.0,81.0
401,99.68073481666669,100.01210289583335,67.0,77.0
402,100.10526331666668,100.21611242500002,64.0,69.0
403,100.38828231666668,100.84229196250001,45.0,78.0
404,100.67130131666669,100.93427313750001,52.0,62.0
405,100.38828231666668,100.97554674166668,64.0,78.0
406,100.38828231666668,101.03097129583335,72.0,86.0
407,100.95432031666668,101.28686764166667,57.0,53.0
408,101.23733931666668,101.42955638750001,64.0,73.0
409,101.23733931666668,101.49913189166668,71.0,80.0
410,101.23733931666668,101.63345363958335,59.0,70.0
411,101.52035831666669,101.70607274166669,64.0,45.0
412,101.52035831666669,101.83226331250002,72.0,83.0
413,101.52035831666669,101.84535856041668,60.0,81.0
414,101.80607281666668,102.05131109583336,59.0,62.0
415,101.94893006666669,102.10369208750002,64.0,76.0
416,101.94893006666669,102.17035880416668,71.0,82.0
417,102.09178731666668,102.24297790625002,57.0,56.0
418,102.3775018166667,102.48702570833335,64.0,56.0
419,102.3775018166667,102.62988295833335,69.0,76.0
420,102.66321631666669,103.20369291250002,66.0,79.0
421,102.66321631666669,103.22988340833335,74.0,83.0
422,102.94893081666669,103.45845500833336,57.0,57.0
423,103.23464531666669,103.62512180000002,62.0,59.0
424,103.52035981666668,103.91678868541669,69.0,73.0
425,103.80607431666668,104.12988408333335,57.0,57.0
426,104.09178881666669,104.29655087500002,66.0,72.0
427,104.09178881666669,104.31202707708336,62.0,61.0
428,102.66321631666669,104.48464625416669,50.0,68.0
429,104.37750331666669,104.50369388750002,57.0,73.0
430,104.37750331666669,104.54655106250001,64.0,70.0
431,104.37750331666669,104.76917027708336,67.0,71.0
432,104.94893231666668,105.54731242500002,65.0,83.0
433,104.94893231666668,105.56583095833335,60.0,82.0
434,104.94893231666668,105.58087726666669,57.0,69.0
435,105.78226631666668,106.12022955000002,60.0,82.0
436,105.50448831666668,106.50911875000001,55.0,72.0
437,106.61560031666669,106.71398002500001,67.0,80.0
438,105.22671031666668,106.79731342500001,50.0,68.0
439,104.94893231666668,106.92925797500001,43.0,80.0
440,106.61560031666669,106.96050800000002,55.0,68.0
441,107.17115631666668,107.48481397500002,69.0,38.0
442,107.17115631666668,107.59476776666668,43.0,79.0
443,107.44893431666668,107.66421226666668,50.0,69.0
444,107.72671231666669,107.85052193333335,69.0,68.0
445,107.72671231666669,108.06837923958336,55.0,56.0
446,108.01242681666669,108.43623665833336,57.0,68.0
447,108.29814131666669,108.52790339375002,59.0,78.0
448,108.5838558166667,108.97195134583336,60.0,72.0
449,108.8695703166667,109.01837995208336,62.0,79.0
450,109.44099931666669,109.78415985416669,72.0,79.0
451,109.44099931666669,109.78769759166669,76.0,79.0
452,109.44099931666669,109.87496178333336,67.0,74.0
453,110.0070373166667,110.3325091666667,60.0,68.0
454,110.29005631666669,110.64265082083335,62.0,78.0
455,110.29005631666669,110.67095272083336,67.0,79.0
456,110.57307531666669,110.93510378750003,60.0,58.0
457,110.85609431666668,111.14972652916668,62.0,83.0
458,110.85609431666668,111.16269823333336,67.0,83.0
459,110.85609431666668,111.21576429583335,64.0,78.0
460,109.72401831666669,111.29713225833336,55.0,72.0
461,111.1391133166667,111.39029267916669,60.0,56.0
462,109.44099931666669,111.48345310000002,48.0,82.0
463,111.42213231666669,111.56246257083336,55.0,54.0
464,111.42213231666669,111.56364181666669,62.0,73.0
465,111.42213231666669,111.58722673333335,67.0,78.0
466,111.70515131666669,112.29890179166668,67.0,79.0
467,111.70515131666669,112.44473524166669,62.0,75.0
468,112.53848531666668,112.84721572083336,59.0,68.0
469,112.81626331666669,113.1876921666667,67.0,82.0
470,112.81626331666669,113.19007312083336,62.0,79.0
471,113.10197781666669,113.4484066479167,59.0,58.0
472,111.70515131666669,113.53293052083336,47.0,59.0
473,112.12181831666669,113.57340674166669,55.0,57.0
474,113.38769231666669,113.59245437500003,67.0,81.0
475,113.53054956666669,113.75435925833335,69.0,68.0
476,113.9591213166667,114.16622905625003,40.0,86.0
477,114.2532388166667,114.56818963958337,52.0,58.0
478,113.6734068166667,114.8451502854167,71.0,80.0
479,113.9591213166667,114.9002973166667,67.0,78.0
480,113.9591213166667,114.92358161875003,62.0,73.0
481,114.5473563166667,115.2532383166667,55.0,72.0
482,115.13559131666669,115.48608133750002,62.0,79.0
483,114.84147381666669,115.67113026458337,59.0,80.0
484,115.42970881666669,115.79613020208336,55.0,79.0
485,115.7238263166667,115.83779684791669,62.0,63.0
486,115.7238263166667,115.96034580625003,69.0,79.0
487,116.0179438166667,116.23730645208336,71.0,83.0
488,116.3120613166667,116.6916063916667,62.0,78.0
489,116.3120613166667,116.6984245666667,74.0,82.0
490,116.3120613166667,116.7029700166667,67.0,79.0
491,116.8575153166667,117.0313787791667,62.0,73.0
492,117.1302423166667,117.2097876916667,62.0,79.0
493,116.5847883166667,117.2302422166667,52.0,72.0
494,117.1302423166667,117.2438785666667,71.0,86.0
495,117.4029693166667,117.5006964916667,67.0,54.0
496,117.4029693166667,117.5222873791667,79.0,80.0
497,117.4029693166667,117.5427419041667,52.0,53.0
498,116.3120613166667,117.7859234791667,40.0,82.0
499,117.6756963166667,117.7870598416667,69.0,60.0
500,117.6756963166667,117.8143325416667,81.0,83.0
501,117.6756963166667,118.0302414166667,52.0,70.0
502,117.9484233166667,118.0586504791667,71.0,72.0
503,117.9484233166667,118.1086504291667,83.0,82.0
504,118.2211503166667,118.2756957166667,86.0,39.0
505,117.9484233166667,118.2813775291667,53.0,70.0
506,118.2211503166667,118.2984229666667,55.0,72.0
507,118.2211503166667,118.3245593041667,74.0,74.0
508,118.4938773166667,118.79694349583336,84.0,84.0
509,118.4938773166667,118.8759529666667,72.0,78.0
510,119.0599153166667,119.40543434583337,57.0,57.0
511,119.3429343166667,119.5198211916667,60.0,78.0
512,119.3429343166667,119.53868912500003,64.0,73.0
513,119.3429343166667,119.57524574583337,67.0,79.0
514,119.6259533166667,119.86298172916669,57.0,40.0
515,119.90897231666669,120.0292553916667,64.0,76.0
516,119.90897231666669,120.08821768333337,72.0,83.0
517,120.1919913166667,120.31699137500003,62.0,68.0
518,120.1919913166667,120.38774612500004,71.0,76.0
519,118.4938773166667,120.39246310833336,45.0,79.0
520,120.1919913166667,120.40897255000003,57.0,48.0
521,120.4750103166667,120.60354811250004,64.0,73.0
522,120.4750103166667,120.65307643750003,72.0,82.0
523,118.7768963166667,120.68963305833337,52.0,73.0
524,120.7580293166667,121.13420873750003,65.0,81.0
525,120.7580293166667,121.16133139166669,60.0,81.0
526,120.7580293166667,121.19552952083336,57.0,73.0
527,121.3240673166667,121.57052969583336,57.0,72.0
528,121.0410483166667,121.73208637500004,55.0,58.0
529,121.6070863166667,121.8830298416667,60.0,83.0
530,121.8901053166667,122.35472817500003,67.0,81.0
531,121.8901053166667,122.42194518750003,59.0,82.0
532,121.8901053166667,122.51038862500003,62.0,81.0
533,120.7580293166667,122.5516622291667,43.0,79.0
534,121.8901053166667,122.8983605041667,55.0,61.0
535,123.0221813166667,123.57288912083337,67.0,80.0
536,123.0221813166667,123.6731250166667,62.0,80.0
537,123.5882193166667,123.92902136250004,60.0,63.0
538,123.8712383166667,124.14600259583337,64.0,82.0
539,123.8712383166667,124.19435167500004,72.0,93.0
540,123.3052003166667,124.4726536916667,55.0,73.0
541,124.1542573166667,124.55048391666669,60.0,51.0
542,123.0221813166667,124.77100288750003,48.0,86.0
543,124.4372763166667,124.78633308333336,69.0,76.0
544,124.4372763166667,124.80991800000004,65.0,84.0
545,124.7202953166667,125.09293700000003,55.0,73.0
546,125.0033143166667,125.87831472500004,64.0,83.0
547,125.0033143166667,125.90072039583336,72.0,84.0
548,126.1353903166667,126.42784328333336,64.0,73.0
549,126.4184093166667,126.56935278333337,65.0,76.0
550,126.5599188166667,126.65661697500003,67.0,74.0
551,126.70142831666669,126.89482463333337,69.0,82.0
552,125.8523713166667,126.99388128333337,60.0,69.0
553,126.8429378166667,127.0552020666667,71.0,79.0
554,125.2863333166667,127.09175868750003,48.0,78.0
555,127.1259568166667,127.27218330000004,74.0,73.0
556,126.9844473166667,127.2745417916667,72.0,76.0
557,125.5693523166667,127.30756067500003,55.0,68.0
558,127.2674663166667,127.44435319166669,76.0,75.0
559,127.5504853166667,127.8901081166667,71.0,83.0
560,127.5504853166667,127.9360987041667,67.0,78.0
561,127.5504853166667,127.94199493333336,62.0,76.0
562,128.1165233166667,128.28515547083336,62.0,80.0
563,127.8335043166667,128.63185374583335,59.0,80.0
564,128.3995423166667,129.0469482791667,62.0,84.0
565,128.3995423166667,129.0469482791667,71.0,84.0
566,128.9655803166667,129.32053331250003,59.0,79.0
567,127.5504853166667,129.5917598541667,52.0,83.0
568,129.24859931666668,129.59647683750003,62.0,83.0
569,129.24859931666668,129.64954290000003,74.0,86.0
570,129.5316183166667,129.74152407500003,59.0,79.0
571,129.8146373166667,130.2037884416667,67.0,76.0
572,129.8146373166667,130.21558090000002,64.0,75.0
573,129.8146373166667,130.24506204583338,71.0,86.0
574,130.3806753166667,130.54105275000003,64.0,76.0
575,130.3806753166667,130.59176032083337,69.0,77.0
576,130.0976563166667,130.73680755833337,59.0,78.0
577,130.6636943166667,130.7769019166667,67.0,76.0
578,130.6636943166667,130.82643024166669,64.0,79.0
579,130.6636943166667,130.9997793791667,71.0,84.0
580,130.9467133166667,131.26393044583335,59.0,71.0
581,131.2297323166667,131.58586455833336,67.0,79.0
582,131.2297323166667,131.59294003333338,74.0,91.0
583,131.2297323166667,131.59883626250004,64.0,80.0
584,129.8146373166667,131.61416645833336,52.0,82.0
585,131.5127513166667,131.62124193333338,59.0,84.0
586,131.7957703166667,132.0292609916667,69.0,78.0
587,132.05874213750002,132.38067625000002,69.0,80.0
588,132.0611006291667,132.43845929583335,77.0,86.0
589,132.50921404583337,132.59765748333336,67.0,77.0
590,132.50921404583337,132.7721858666667,76.0,79.0
591,132.3370441541667,132.90190290833337,60.0,62.0
592,132.66015751250004,132.96440293750004,65.0,58.0
593,132.91841235000004,133.03869542500004,69.0,80.0
594,132.91251612083337,133.03869542500004,77.0,84.0
595,133.20968607083336,133.3559125541667,60.0,78.0
596,133.53751641250003,133.5858654916667,64.0,44.0
597,133.50213903750003,133.84176183750003,72.0,86.0
598,132.07761007083337,133.88893167083336,53.0,75.0
599,133.7733655791667,133.89011091666669,60.0,80.0
600,134.0634600541667,134.18138463750003,71.0,72.0
601,134.34529980833338,134.78987548750004,64.0,75.0
602,134.16723368750004,134.8028471916667,72.0,77.0
603,134.35237528333337,134.8099226666667,67.0,81.0
604,134.9195925291667,135.2096870041667,60.0,60.0
605,135.1955360541667,135.5386965916667,67.0,78.0
606,135.1955360541667,135.5882249166667,62.0,78.0
607,134.62713956250002,135.82997031250002,55.0,71.0
608,135.48327203750003,135.8641684416667,60.0,57.0
609,135.7509608416667,135.87949863750003,62.0,73.0
610,135.81228162500003,136.09647987083338,64.0,62.0
611,134.36298849583338,136.16723462083337,48.0,79.0
612,136.0552062666667,136.2037912416667,55.0,78.0
613,136.05992325000003,136.30166864583336,65.0,75.0
614,136.32879130000003,136.4832725041667,67.0,82.0
615,136.59530085833336,136.86181041666669,64.0,79.0
616,136.59176312083338,136.92077270833337,72.0,86.0
617,136.89836703750004,137.0776124041667,64.0,35.0
618,136.6035555791667,137.1271407291667,45.0,76.0
619,136.85709343333338,137.1695935791667,52.0,59.0
620,136.91605572500004,137.1943577416667,71.0,82.0
621,137.1943577416667,137.47148051250002,69.0,79.0
622,137.1802067916667,137.50803713333337,57.0,52.0
623,137.19199925000004,137.6471881416667,64.0,61.0
624,137.43964087500004,137.80520708333336,71.0,58.0
625,137.46912202083337,137.84765993333338,59.0,71.0
626,137.7320938416667,137.99860340000004,64.0,73.0
627,137.7285561041667,138.16605630833337,72.0,84.0
628,138.1000185416667,138.26865069583337,64.0,63.0
629,137.77218820000004,138.3052073166667,60.0,77.0
630,138.1035562791667,138.3335092166667,67.0,79.0
631,138.2521412541667,138.38185829583335,59.0,77.0
632,138.5457734666667,138.79931132083337,69.0,76.0
633,138.81935850000002,139.08233032083336,40.0,83.0
634,139.1330378916667,139.48445315000004,52.0,54.0
635,138.83468869583336,139.85945332500003,67.0,77.0
636,138.83115095833335,139.86063257083336,62.0,75.0
637,139.72148156250003,140.0174722666667,59.0,76.0
638,140.00096282500004,140.29105730000003,62.0,78.0
639,139.99506659583338,140.3464818541667,67.0,79.0
640,140.23445350000003,140.38657621250005,59.0,73.0
641,140.4172366041667,140.60945367500003,64.0,82.0
642,140.56110459583337,140.65898200000004,59.0,79.0
643,139.4337455791667,140.71440655416671,55.0,71.0
644,140.4172366041667,140.73091599583336,69.0,79.0
645,140.83586887500005,140.9266708041667,64.0,79.0
646,140.84058585833338,140.9337462791667,71.0,83.0
647,141.1353973166667,141.42431254583337,38.0,83.0
648,141.4184163166667,141.75214288750004,50.0,72.0
649,141.4184163166667,142.0092184791667,72.0,3.0
650,141.1353973166667,142.0339826416667,60.0,80.0
651,141.1353973166667,142.07171850833336,65.0,82.0
652,141.1353973166667,142.07761473750003,69.0,82.0
653,141.9844543166667,142.51275645000004,57.0,76.0
654,142.2674733166667,142.51275645000004,60.0,95.0
655,141.7014353166667,142.52454890833337,53.0,80.0
656,142.5504923166667,142.63775650833338,60.0,52.0
657,142.5504923166667,142.7379924041667,67.0,81.0
658,142.83351131666672,142.92431324583336,60.0,51.0
659,142.83351131666672,143.17077562500003,69.0,81.0
660,143.1165303166667,143.2120492291667,40.0,83.0
661,143.1165303166667,143.3004926666667,72.0,81.0
662,143.3995493166667,143.93138918750003,41.0,86.0
663,143.3995493166667,143.94671938333337,60.0,83.0
664,143.6825683166667,143.97148354583337,48.0,80.0
665,143.3995493166667,143.97502128333338,65.0,82.0
666,143.3995493166667,144.01629488750004,69.0,82.0
667,143.9655873166667,144.28634218333337,53.0,70.0
668,144.2486063166667,144.65072914583337,55.0,73.0
669,144.5316253166667,144.77454995833338,69.0,75.0
670,144.5316253166667,144.82761602083337,57.0,73.0
671,144.5316253166667,144.99978591250004,77.0,84.0
672,144.9561538166667,145.1153520041667,67.0,75.0
673,144.81464431666672,145.1471916416667,59.0,71.0
674,144.9561538166667,145.27219170000004,76.0,84.0
675,145.0976633166667,145.37124835000003,57.0,37.0
676,145.3806823166667,145.4691257541667,55.0,74.0
677,145.3806823166667,145.49388991666672,69.0,68.0
678,145.3806823166667,145.4974276541667,77.0,84.0
679,145.6637013166667,146.23445630000003,65.0,84.0
680,145.6637013166667,146.37596580000005,60.0,90.0
681,145.6637013166667,146.39011675000003,57.0,79.0
682,146.5127583166667,146.87124905000005,57.0,76.0
683,146.79577731666672,146.90308868750003,60.0,83.0
684,146.2297393166667,146.9372868166667,55.0,79.0
685,145.9467203166667,146.95379625833337,50.0,80.0
686,145.6637013166667,146.96087173333336,43.0,90.0
687,147.0787963166667,147.1460133291667,60.0,90.0
688,147.0787963166667,147.1566265416667,57.0,79.0
689,147.0787963166667,147.15898503333338,65.0,84.0
690,147.0787963166667,147.16959824583336,55.0,84.0
691,147.0787963166667,147.17549447500005,43.0,84.0
692,147.6448343166667,148.15426851666672,55.0,84.0
693,147.6448343166667,148.23327798750003,67.0,84.0
694,147.6448343166667,148.24389120000004,62.0,90.0
695,147.6448343166667,148.2497874291667,59.0,86.0
696,148.2108723166667,148.4514384666667,55.0,72.0
697,148.4938913166667,148.54459888750003,67.0,53.0
698,147.6448343166667,148.56346682083336,43.0,90.0
699,148.4938913166667,148.6106366541667,59.0,76.0
700,148.77691031666672,148.87478772083338,60.0,68.0
701,149.0599293166667,149.3111086791667,65.0,84.0
702,149.0599293166667,149.34766530000005,57.0,78.0
703,149.0599293166667,149.4278540166667,60.0,84.0
704,149.3429483166667,149.84059005833336,55.0,62.0
705,149.0599293166667,149.9443636916667,43.0,83.0
706,149.6259673166667,149.9479014291667,59.0,90.0
707,149.6259673166667,149.9549769041667,62.0,93.0
708,149.9089863166667,149.99153352500002,50.0,90.0
709,149.6259673166667,149.99271277083338,67.0,84.0
710,150.1920053166667,150.4891752666667,88.0,84.0
711,150.1920053166667,150.55049605000005,79.0,78.0
712,150.75804331666671,151.0976661166667,60.0,71.0
713,151.0410623166667,151.25450581250004,64.0,78.0
714,151.0410623166667,151.3771473791667,67.0,78.0
715,151.3240813166667,151.60592107083338,64.0,84.0
716,151.3240813166667,151.64837392083336,72.0,91.0
717,151.6071003166667,151.81346833750004,60.0,54.0
718,151.74860981666671,152.02927032500003,64.0,84.0
719,151.74860981666671,152.07054392916672,71.0,84.0
720,151.8901193166667,152.0953080916667,60.0,68.0
721,150.1920053166667,152.1872892666667,48.0,83.0
722,150.4750243166667,152.23210060833338,55.0,75.0
723,152.1731383166667,152.27455345833337,64.0,73.0
724,152.1731383166667,152.33351575000003,72.0,86.0
725,152.4561573166667,152.68493100833336,67.0,72.0
726,152.4561573166667,152.69436497500004,64.0,69.0
727,152.4561573166667,152.72030838333336,74.0,84.0
728,152.8806858166667,153.01276135000003,76.0,84.0
729,153.3052143166667,153.33941244583337,74.0,68.0
730,153.0221953166667,153.3476671666667,60.0,58.0
731,153.3052143166667,153.43375211250003,72.0,75.0
732,153.3052143166667,153.45969552083338,65.0,79.0
733,153.5882333166667,153.72384658750002,60.0,42.0
734,153.5882333166667,153.84412966250005,64.0,80.0
735,153.5882333166667,153.90073346250003,71.0,84.0
736,152.73917631666671,154.03280899583336,55.0,61.0
737,153.8712523166667,154.0410637166667,60.0,69.0
738,152.4561573166667,154.25804495000003,48.0,80.0
739,154.0127618166667,154.25922419583338,64.0,83.0
740,154.0127618166667,154.29460157083338,72.0,86.0
741,154.1542713166667,154.2957808166667,55.0,78.0
742,154.4372903166667,154.56346962083336,71.0,80.0
743,154.72030931666671,155.06582834583338,71.0,82.0
744,154.72030931666671,155.0740830666667,67.0,75.0
745,154.72030931666671,155.07997929583337,62.0,74.0
746,155.2863473166667,155.4243190791667,62.0,55.0
747,155.2863473166667,155.48328137083337,69.0,71.0
748,155.0033283166667,155.66960221250002,59.0,71.0
749,155.5693663166667,155.89365892083336,67.0,80.0
750,155.5693663166667,155.91488534583337,71.0,80.0
751,155.8523853166667,156.43375351250003,59.0,73.0
752,156.1354043166667,156.56582904583337,64.0,62.0
753,154.72030931666671,156.60120642083336,52.0,81.0
754,156.4184233166667,156.62479133750003,67.0,90.0
755,156.5599328166667,156.83351785000002,69.0,72.0
756,156.70144231666671,156.89601787916672,71.0,68.0
757,156.8429518166667,156.9632348916667,72.0,82.0
758,156.9844613166667,157.40073509583337,67.0,75.0
759,156.9844613166667,157.40073509583337,74.0,90.0
760,157.2674803166667,157.7556880916667,59.0,57.0
761,157.5504993166667,157.82762208750003,64.0,72.0
762,157.8335183166667,158.16488639583338,67.0,76.0
763,157.8335183166667,158.1696033791667,71.0,81.0
764,158.1165373166667,158.41960349583337,59.0,74.0
765,156.9844613166667,158.55757525833337,52.0,78.0
766,158.3995563166667,158.5870564041667,62.0,73.0
767,158.3995563166667,158.83941501250004,67.0,80.0
768,158.9655943166667,159.0717264416667,71.0,84.0
769,159.2486133166667,159.47267002500004,45.0,79.0
770,159.2486133166667,159.53752854583337,64.0,80.0
771,159.2486133166667,159.5776229041667,72.0,90.0
772,159.6731418166667,159.8394154791667,64.0,78.0
773,159.5316323166667,159.84884944583337,57.0,50.0
774,159.6731418166667,159.95498157083335,71.0,82.0
775,160.09767031666672,160.47384973750005,72.0,84.0
776,160.09767031666672,160.48564219583338,64.0,79.0
777,159.8146513166667,160.74035929583337,59.0,68.0
778,160.3806893166667,160.87007633750005,60.0,83.0
779,160.6637083166667,161.04224622916672,64.0,82.0
780,160.6637083166667,161.0457839666667,69.0,80.0
781,160.9467273166667,161.07290662083338,59.0,83.0
782,161.2297463166667,161.3641803416667,71.0,75.0
783,161.5127653166667,161.86889755833337,62.0,73.0
784,161.5127653166667,161.87597303333337,66.0,83.0
785,161.5127653166667,161.90781267083338,72.0,83.0
786,162.07880331666672,162.12715239583338,72.0,58.0
787,162.07880331666672,162.27102038750004,62.0,76.0
788,161.7957843166667,162.55875637083338,57.0,72.0
789,162.3618223166667,162.96913392083337,62.0,82.0
790,162.3618223166667,162.99743582083337,69.0,83.0
791,161.5127653166667,163.2462566916667,50.0,79.0
792,162.9278603166667,163.25569065833338,57.0,71.0
793,163.2108793166667,163.3488510791667,62.0,80.0
794,163.2108793166667,163.3594642916667,69.0,79.0
795,163.7769173166667,164.35828551250003,69.0,78.0
796,163.7769173166667,164.3783326916667,60.0,81.0
797,163.7769173166667,164.38069118333337,65.0,80.0
798,164.3429553166667,164.9974367541667,55.0,77.0
799,164.6259743166667,164.9974367541667,60.0,90.0
800,164.9089933166667,165.27102178750005,65.0,84.0
801,165.1920123166667,165.3759746666667,67.0,84.0
802,163.7769173166667,165.63305025833336,43.0,81.0
803,165.4750313166667,165.7073427458334,55.0,69.0
804,165.4750313166667,165.8040409041667,69.0,86.0
805,164.05993631666672,165.8889466041667,50.0,76.0
806,165.7580503166667,165.97856928750002,72.0,83.0
807,166.04106931666672,166.29578641666672,74.0,84.0
808,166.04106931666672,166.30050340000003,71.0,86.0
809,166.3240883166667,166.45616385000005,69.0,59.0
810,166.04106931666672,166.4832865041667,43.0,79.0
811,166.3240883166667,166.57644692500003,50.0,75.0
812,166.3240883166667,166.5788054166667,72.0,84.0
813,166.6071073166667,166.84885271250005,74.0,84.0
814,166.6071073166667,166.93729615000004,55.0,53.0
815,166.6071073166667,166.94555087083336,69.0,76.0
816,166.8901263166667,166.98800372083338,71.0,83.0
817,166.8901263166667,167.01512637500002,76.0,80.0
818,167.1731453166667,167.2722019666667,72.0,84.0
819,166.8901263166667,167.28399442500003,57.0,72.0
820,167.1731453166667,167.3005038666667,77.0,84.0
821,167.1731453166667,167.45498507083337,59.0,71.0
822,167.4561643166667,167.55993795000003,74.0,81.0
823,167.4561643166667,167.5941360791667,79.0,55.0
824,167.4561643166667,167.80286259166672,60.0,79.0
825,167.7391833166667,167.82998524583337,79.0,70.0
826,167.7391833166667,167.83941921250005,81.0,74.0
827,167.7391833166667,167.8488531791667,76.0,79.0
828,167.7391833166667,167.88894753750003,62.0,60.0
829,168.02220231666672,168.09531555833337,83.0,78.0
830,168.02220231666672,168.26158922083337,77.0,79.0
831,168.3052213166667,168.6059290041667,84.0,80.0
832,168.3052213166667,168.6330516583334,79.0,82.0
833,168.3052213166667,168.66842903333338,76.0,79.0
834,168.8712593166667,169.2462594916667,60.0,69.0
835,169.1542783166667,169.2462594916667,65.0,75.0
836,169.1542783166667,169.33470292916672,62.0,83.0
837,169.1542783166667,169.38658974583336,67.0,72.0
838,169.2957878166667,169.43258033333336,60.0,70.0
839,169.4372973166667,169.71442008750003,64.0,83.0
840,169.4372973166667,169.71913707083337,72.0,84.0
841,169.5788068166667,169.79932578750004,60.0,68.0
842,168.5882403166667,169.94437302500003,55.0,72.0
843,169.8618258166667,170.0882410166667,62.0,84.0
844,170.00333531666672,170.1519202916667,55.0,23.0
845,169.8618258166667,170.16017501250005,71.0,83.0
846,170.00333531666672,170.16725048750004,60.0,84.0
847,168.3052213166667,170.17904294583337,48.0,83.0
848,170.28635431666672,170.3948449333334,62.0,76.0
849,170.28635431666672,170.44437325833337,72.0,84.0
850,170.5693733166667,170.79696776250003,62.0,70.0
851,170.5693733166667,170.9585244416667,71.0,79.0
852,170.5693733166667,171.02456220833338,67.0,83.0
853,170.8523923166667,171.14838302083336,55.0,73.0
854,170.5693733166667,171.15427925000003,48.0,84.0
855,171.1354113166667,171.1990905916667,67.0,84.0
856,171.1354113166667,171.21913777083336,64.0,81.0
857,171.1354113166667,171.25805288333336,72.0,90.0
858,171.1354113166667,171.4821095916667,60.0,76.0
859,171.4184303166667,171.80522295000003,62.0,76.0
860,171.7014493166667,171.80522295000003,77.0,83.0
861,171.7014493166667,171.82409088333338,71.0,61.0
862,171.7014493166667,172.0552230666667,64.0,76.0
863,171.98446831666672,172.11182686666672,76.0,72.0
864,171.98446831666672,172.12126083333337,74.0,69.0
865,171.98446831666672,172.1460249958334,71.0,81.0
866,171.98446831666672,172.36772321250004,62.0,79.0
867,172.26748731666672,172.38305340833338,60.0,82.0
868,172.26748731666672,172.3913081291667,67.0,62.0
869,172.26748731666672,172.48682704166671,72.0,84.0
870,172.5505063166667,172.7380064041667,74.0,80.0
871,172.8335253166667,173.14963104375005,62.0,77.0
872,172.8335253166667,173.1844868083334,67.0,82.0
873,172.8335253166667,173.19770796041672,71.0,83.0
874,173.2662175666667,173.4645348479167,62.0,71.0
875,173.2662175666667,173.57150598750005,69.0,63.0
876,173.12198681666672,173.70972712291672,59.0,78.0
877,173.55467906666672,173.95612132083338,71.0,91.0
878,173.55467906666672,173.97174631875004,62.0,84.0
879,173.55467906666672,173.99698670000004,67.0,80.0
880,173.9873713166667,174.30708281250006,59.0,78.0
881,174.2758328166667,174.46453471458338,62.0,79.0
882,172.8335253166667,174.6688616104167,52.0,83.0
883,174.56429431666672,174.73496737083337,67.0,79.0
884,174.56429431666672,174.77222698125004,59.0,83.0
885,174.8527558166667,175.06429425000005,69.0,80.0
886,175.1412173166667,175.41244385833338,62.0,79.0
887,175.1412173166667,175.43602877500004,67.0,80.0
888,175.1412173166667,175.44310425000003,71.0,83.0
889,175.56574581666672,175.8346138666667,62.0,79.0
890,175.56574581666672,175.93249127083337,69.0,79.0
891,175.4242363166667,176.07164227916672,59.0,73.0
892,175.9902743166667,176.27329331666672,62.0,61.0
893,175.9902743166667,176.39475563750005,71.0,86.0
894,176.55631231666672,176.8464067916667,64.0,75.0
895,176.55631231666672,176.8888596416667,67.0,80.0
896,176.27329331666672,176.97258609583338,59.0,78.0
897,175.1412173166667,176.97848232500004,52.0,82.0
898,176.83933131666672,177.0480578291667,69.0,78.0
899,176.9808408166667,177.12824654583338,71.0,82.0
900,177.1223503166667,177.2697560458334,74.0,78.0
901,177.26385981666672,177.3063126666667,72.0,53.0
902,177.26385981666672,177.33461456666672,71.0,59.0
903,177.4053693166667,177.50560521250006,67.0,58.0
904,177.4053693166667,177.50914295000004,47.0,70.0
905,177.4053693166667,177.54216183333338,62.0,68.0
906,177.4053693166667,177.8923978458334,45.0,54.0
907,177.6883883166667,177.94546390833338,52.0,78.0
908,177.9714073166667,178.32213530833337,57.0,60.0
909,177.4053693166667,178.53087307500004,72.0,84.0
910,177.4053693166667,178.54179540000004,64.0,73.0
911,178.2626693166667,178.7032030916667,59.0,79.0
912,178.5539313166667,179.20441645000002,60.0,80.0
913,178.8451933166667,179.28451350000003,64.0,82.0
914,179.1364553166667,179.2893678666667,59.0,76.0
915,178.8451933166667,179.30271737500004,72.0,91.0
916,179.4277173166667,179.5624259916667,64.0,61.0
917,179.4277173166667,179.5842706416667,71.0,79.0
918,179.7189793166667,179.9966235104167,43.0,81.0
919,179.7189793166667,180.31032539166668,60.0,80.0
920,180.0074408166667,180.38724845833335,55.0,59.0
921,179.7189793166667,180.6384503479167,65.0,79.0
922,179.7189793166667,180.66970034375004,69.0,82.0
923,180.5843638166667,181.06994067500003,60.0,84.0
924,180.29590231666668,181.14806566458336,57.0,50.0
925,180.87282531666668,181.2514310354167,65.0,80.0
926,181.1612868166667,181.37042140416668,67.0,72.0
927,181.4497483166667,181.72979635625003,69.0,72.0
928,181.73820981666668,181.95575786458335,72.0,79.0
929,182.0266713166667,182.4233058791667,67.0,79.0
930,183.18051731666668,183.34878652500004,86.0,77.0
931,183.18051731666668,183.35239229375003,74.0,54.0
932,184.3343633166667,185.15983540000002,64.0,38.0
933,184.3343633166667,185.1728071041667,72.0,47.0
934,185.6079488166667,185.69403376250003,67.0,76.0
935,185.4664393166667,185.72941113750002,65.0,71.0
936,185.8909678166667,186.0713924291667,72.0,73.0
937,186.0324773166667,186.3048831041667,77.0,78.0
938,186.3154963166667,186.42044919583336,79.0,60.0
939,186.5985153166667,186.95110982083335,84.0,78.0
940,186.8815343166667,187.09851555000003,89.0,79.0
941,185.18342031666668,187.57964785000004,60.0,61.0
942,187.16455331666668,187.6067705041667,91.0,73.0
943,184.9004013166667,187.63978938750003,55.0,59.0
944,184.3343633166667,187.65747807500003,48.0,76.0
945,187.7305913166667,187.82139324583338,96.0,63.0
946,188.7211578166667,188.8732805291667,36.0,76.0
947,188.5796483166667,189.09379950000002,76.0,54.0
948,188.5796483166667,189.12799762916669,74.0,48.0
949,188.7211578166667,189.17870520000002,79.0,62.0
950,188.8626673166667,189.26007316250002,84.0,36.0
