,start,end,pitch,velocity
0,0.7383646875,1.0441520833333333,61.0,70.0
1,1.2753571875,1.7258342291666666,66.0,69.0
2,0.9173621875,1.7497005625,73.0,77.0
3,1.6333521874999999,1.8600823541666667,61.0,69.0
4,2.1703446875,2.419449541666667,68.0,71.0
5,2.3493421875,3.0712987708333332,73.0,74.0
6,2.7073371875,3.13245625,68.0,70.0
7,3.0653321875,3.3129453958333333,61.0,70.0
8,3.6023246875,3.8350214375,63.0,68.0
9,3.7813221875,4.5331116875,73.0,73.0
10,4.1393171875,4.5465365,66.0,65.0
11,4.4973121875,5.3311422083333335,63.0,59.0
12,4.6763096875,5.389316395833333,72.0,68.0
13,5.3922996874999995,6.105306395833333,70.0,72.0
14,6.4662846875,6.772072083333334,61.0,70.0
15,7.0032771875,7.453754229166667,66.0,69.0
16,6.6452821875,7.4776205625,73.0,77.0
17,7.3612721875,7.588002354166667,61.0,69.0
18,7.8982646875,8.147369541666666,68.0,71.0
19,8.0772621875,8.799218770833333,73.0,74.0
20,8.4352571875,8.86037625,68.0,70.0
21,8.7932521875,9.040865395833332,61.0,70.0
22,9.3302446875,9.5629414375,63.0,68.0
23,9.5092421875,10.260892437499999,73.0,73.0
24,9.8672371875,10.274349368749998,66.0,65.0
25,10.225007287499999,11.54596038333333,63.0,59.0
26,10.405114787499999,11.935570383333332,72.0,68.0
27,11.937193758333331,12.376652041666665,70.0,41.0
28,12.322759891666664,12.563777562499997,65.0,71.0
29,12.502400391666665,12.960483666666665,73.0,72.0
30,12.861681391666664,13.298806608333331,68.0,71.0
31,13.220962391666664,13.756889883333331,65.0,67.0
32,13.759883891666664,13.993416541666665,65.0,70.0
33,13.939524391666664,14.391619649999997,73.0,73.0
34,14.298805391666665,14.726948583333332,68.0,68.0
35,14.658086391666664,15.19401388333333,65.0,69.0
36,15.197007891666665,15.479941679166664,63.0,74.0
37,15.376648391666665,15.842216687499997,73.0,75.0
38,15.735929391666664,16.156587562499997,66.0,69.0
39,16.095210391666665,16.451497383333333,63.0,69.0
40,16.274850891666663,16.688024041666665,70.0,41.0
41,16.634131891666662,16.8751495625,65.0,71.0
42,16.813772391666664,17.271855666666664,73.0,72.0
43,17.173053391666663,17.61017860833333,68.0,71.0
44,17.532334391666666,18.06826188333333,65.0,67.0
45,18.071255891666667,18.42754288333333,61.0,68.0
46,18.250896391666664,18.640117474999997,73.0,77.0
47,18.610177391666664,18.996404466666664,66.0,73.0
48,18.969458391666663,19.503505785416664,61.0,61.0
49,19.506481972916664,19.753505535416664,68.0,69.0
50,19.685053222916665,20.167195597916663,75.0,78.0
51,20.042195722916667,20.400826316666667,73.0,72.0
52,20.399338222916665,20.932075785416664,68.0,70.0
53,20.935051972916664,21.204396941666666,63.0,68.0
54,21.113623222916665,21.673146472916663,73.0,75.0
55,21.470765722916664,21.918681941666666,66.0,62.0
56,21.827908222916665,22.091300816666664,63.0,66.0
57,22.006479472916666,23.432073285416664,72.0,74.0
58,23.435049472916663,23.845763347916666,70.0,41.0
59,23.792191972916665,24.031775066666665,65.0,71.0
60,23.970763222916666,24.426119910416666,73.0,72.0
61,24.327905722916665,24.762429097916666,68.0,71.0
62,24.685048222916663,25.217785785416666,65.0,67.0
63,25.220761972916662,25.452904597916664,65.0,70.0
64,25.399333222916663,25.848737535416664,73.0,73.0
65,25.756475722916665,26.182070535416663,68.0,68.0
66,26.113618222916664,26.646355785416663,65.0,69.0
67,26.649331972916663,26.930581691666664,63.0,74.0
68,26.827903222916664,27.290700379166665,73.0,75.0
69,27.185045722916662,27.603200066666666,66.0,69.0
70,27.542188222916664,27.896354535416663,63.0,69.0
71,27.72075947291666,28.131473347916664,70.0,41.0
72,28.077901972916663,28.317485066666663,65.0,71.0
73,28.256473222916664,28.711829910416665,73.0,72.0
74,28.613615722916663,29.048139097916664,68.0,71.0
75,28.970758222916665,29.503495785416664,65.0,67.0
76,29.506471972916664,29.860638285416663,61.0,68.0
77,29.68504322291666,30.07194759791666,73.0,77.0
78,30.042185722916663,30.426113910416664,66.0,73.0
79,30.399328222916665,30.93206578541666,61.0,61.0
80,30.935041972916665,31.182065535416662,63.0,69.0
81,31.113613222916662,31.595755597916664,72.0,78.0
82,31.470755722916664,31.82932975,68.0,72.0
83,31.827845191666665,32.181170075,63.0,70.0
84,32.36228619166666,32.63099125,65.0,68.0
85,32.540433191666665,33.098627125,73.0,75.0
86,32.89672719166666,33.34357925,68.0,62.0
87,33.25302119166667,33.51578801666667,65.0,66.0
88,33.431168191666664,33.962640074999996,77.0,74.0
89,33.78746219166666,33.989362125,73.0,78.0
90,33.965609191666665,34.289242908333335,68.0,69.0
91,34.321903191666664,34.826653025,65.0,74.0
92,35.56893219166667,36.16869375833333,69.0,70.0
93,36.281520191666665,36.47154365833333,69.0,76.0
94,36.281520191666665,36.501234825,72.0,77.0
95,37.706696191666666,38.8215995,70.0,65.0
96,37.706696191666666,38.92997225833333,73.0,69.0
97,39.131872191666666,40.25568285,68.0,67.0
98,39.131872191666666,40.448675433333335,72.0,73.0
99,40.55704819166667,41.8679132,73.0,69.0
100,41.98222419166667,42.932341525,72.0,74.0
101,44.119988191666664,44.64403728333333,73.0,65.0
102,44.119988191666664,44.713811525,77.0,73.0
103,44.83257619166667,45.90442730833333,72.0,68.0
104,44.83257619166667,45.916303775,75.0,74.0
105,46.25775219166667,47.5329878,70.0,66.0
106,46.25775219166667,47.552287058333334,73.0,69.0
107,47.68292819166666,48.77853224166667,72.0,73.0
108,47.68292819166666,48.78150135833333,68.0,68.0
109,49.10810419166667,50.25715234166667,73.0,72.0
110,49.10810419166667,50.279420716666664,77.0,76.0
111,50.53328019166666,51.74467979166667,72.0,71.0
112,50.53328019166666,51.771401841666666,75.0,77.0
113,51.95845619166667,52.57306334166667,70.0,68.0
114,51.95845619166667,52.752694899999995,73.0,72.0
115,52.67104419166667,53.235176358333334,70.0,76.0
116,53.38363219166666,54.565340625,68.0,71.0
117,53.38363219166666,54.56830974166667,72.0,70.0
118,54.808808191666664,56.04989895833333,70.0,69.0
119,56.233984191666664,57.4023316,68.0,73.0
120,57.659160191666665,58.8453223,66.0,70.0
121,57.659160191666665,58.94924138333333,70.0,70.0
122,59.084336191666665,60.36551003333334,73.0,71.0
123,59.084336191666665,60.37441738333333,66.0,68.0
124,60.509512191666666,61.74169560833333,70.0,60.0
125,60.509512191666666,61.780294125,73.0,68.0
126,62.64727619166666,63.11936574166667,68.0,62.0
127,62.64727619166666,63.23070761666666,72.0,69.0
128,63.35986419166667,64.66924464166667,73.0,66.0
129,63.35986419166667,64.68260566666666,70.0,62.0
130,65.49762819166666,66.10332799166667,77.0,75.0
131,66.21021619166666,67.454276075,73.0,75.0
132,67.45724519166666,67.78978625833332,75.0,77.0
133,67.45724519166666,67.810570075,72.0,68.0
134,69.4241975875,69.62101226041666,68.0,72.0
135,69.6044858375,69.87191340833333,65.0,73.0
136,69.9650623375,70.14234578333333,77.0,77.0
137,70.14536146249999,70.32328653333333,68.0,45.0
138,70.3263022125,70.51478216041666,65.0,67.0
139,70.50724296249999,70.69270723125,70.0,70.0
140,72.31107239999999,72.61685979583332,61.0,70.0
141,72.84806489999998,73.29854194166666,66.0,69.0
142,72.4900699,73.32240827499999,73.0,77.0
143,73.20605989999999,73.43279006666666,61.0,69.0
144,73.74305239999998,73.99215725416666,68.0,71.0
145,73.92204989999999,74.64400648333333,73.0,74.0
146,74.2800449,74.7051639625,68.0,70.0
147,74.63803989999998,74.88565310833332,61.0,70.0
148,75.17503239999999,75.40772915,63.0,68.0
149,75.35402989999999,76.10581939999999,73.0,73.0
150,75.71202489999999,76.11924421249999,66.0,65.0
151,76.07001989999999,76.90384992083332,63.0,59.0
152,76.24901739999999,76.96202410833332,72.0,68.0
153,76.96500739999999,77.67801410833331,70.0,72.0
154,78.03899239999998,78.34477979583332,61.0,70.0
155,78.57598489999998,79.02646194166665,66.0,69.0
156,78.21798989999999,79.05032827499998,73.0,77.0
157,78.93397989999998,79.16071006666665,61.0,69.0
158,79.4709724,79.72007725416665,68.0,71.0
159,79.64996989999999,80.37192648333333,73.0,74.0
160,80.00796489999999,80.43308396249999,68.0,70.0
161,80.3659599,80.61357310833333,61.0,70.0
162,80.90295239999999,81.13564914999999,63.0,68.0
163,81.08194989999998,81.83373939999998,73.0,73.0
164,81.43994489999999,81.84716421249999,66.0,65.0
165,81.79793989999999,83.04793910833332,63.0,59.0
166,81.97693739999998,83.40593410833333,72.0,68.0
167,83.40891739999999,83.82061164999999,70.0,41.0
168,83.7669124,84.00706737916666,65.0,71.0
169,83.94590989999999,84.40080844999999,73.0,72.0
170,84.30282759999999,84.73631863333333,68.0,71.0
171,84.65912159999999,85.19059348333332,65.0,67.0
172,85.19356259999999,85.4251537,65.0,70.0
173,85.37170959999999,85.82004621666665,73.0,73.0
174,85.7280036,86.15258728333332,68.0,68.0
175,86.08429759999999,86.61576948333332,65.0,69.0
176,86.61873859999999,86.89932012499999,63.0,74.0
177,86.7968856,87.25858324166666,73.0,75.0
178,87.15317959999999,87.57034049166666,66.0,69.0
179,87.50947359999999,87.86279848333332,63.0,69.0
180,87.68762059999999,88.09735869999999,70.0,41.0
181,88.0439146,88.28292849166665,65.0,71.0
182,88.22206159999999,88.67633645,73.0,72.0
183,88.5783556,89.01184663333332,68.0,71.0
184,88.93464959999999,89.46612148333332,65.0,67.0
185,89.46909059999999,89.82241548333332,61.0,68.0
186,89.64723759999998,90.03322276666665,73.0,77.0
187,90.00353159999999,90.38654764999998,66.0,73.0
188,90.3598256,90.89129748333332,61.0,61.0
189,90.8942666,91.14070328333332,68.0,69.0
190,91.07241359999999,91.55341049999998,75.0,78.0
191,91.4287076,91.78648615833332,73.0,72.0
192,91.78500159999999,92.31647348333333,68.0,70.0
193,92.31944259999999,92.58814765833333,63.0,68.0
194,92.49758959999998,93.05578353333333,73.0,75.0
195,92.85388359999999,93.30073565833332,66.0,62.0
196,93.2101776,93.472944425,63.0,66.0
197,93.38832459999999,94.81053148333332,72.0,74.0
198,94.81350059999998,95.2232387,70.0,41.0
199,95.16979459999999,95.40880849166666,65.0,71.0
200,95.34794159999998,95.80221644999999,73.0,72.0
201,95.70423559999999,96.13772663333333,68.0,71.0
202,96.0605296,96.59200148333332,65.0,67.0
203,96.59497059999998,96.82656169999998,65.0,70.0
204,96.77311759999999,97.22145421666666,73.0,73.0
205,97.12941159999998,97.55399528333332,68.0,68.0
206,97.48570559999999,98.01717748333333,65.0,69.0
207,98.02014659999999,98.30072812499999,63.0,74.0
208,98.19829359999999,98.65999124166666,73.0,75.0
209,98.55458759999999,98.97174849166666,66.0,69.0
210,98.91088159999998,99.26420648333333,63.0,69.0
211,99.08902859999999,99.49876669999999,70.0,41.0
212,99.44532259999998,99.68433649166666,65.0,71.0
213,99.62346959999999,100.07774444999998,73.0,72.0
214,99.97976359999998,100.41325463333332,68.0,71.0
215,100.33605759999999,100.86752948333333,65.0,67.0
216,100.87049859999999,101.22382348333332,61.0,68.0
217,101.04864559999999,101.43463076666666,73.0,77.0
218,101.40493959999999,101.78795564999999,66.0,73.0
219,101.7612336,102.29270548333332,61.0,61.0
220,102.29567459999998,102.54211128333333,63.0,69.0
221,102.4738216,102.95481849999999,72.0,78.0
222,102.83011559999998,103.18789415833332,68.0,72.0
223,103.18640959999999,103.53973448333332,63.0,70.0
224,103.72085059999999,103.98955565833333,65.0,68.0
225,103.89899759999999,104.45938157083332,73.0,75.0
226,104.25651773749999,104.70550313333332,68.0,62.0
227,104.61451273749998,104.87853404999998,65.0,66.0
228,104.79351023749999,105.32751944583332,77.0,74.0
229,105.15150523749999,105.35436907083331,73.0,78.0
230,105.33050273749998,105.65568152916666,68.0,69.0
231,105.68849773749999,106.19565732083332,65.0,74.0
232,106.94148023749999,107.54410515416664,69.0,70.0
233,107.65747023749998,107.84840090416665,69.0,76.0
234,107.65747023749998,107.87823382083332,72.0,77.0
235,109.08945023749999,110.20967625833332,70.0,65.0
236,109.08945023749999,110.31856640416665,73.0,69.0
237,110.52143023749998,111.65060613333331,68.0,67.0
238,110.52143023749998,111.84452009166665,72.0,73.0
239,111.95341023749998,113.26784813333332,73.0,69.0
240,113.38243135208332,114.3348113520833,72.0,74.0
241,115.52528635208331,116.05058344583331,73.0,65.0
242,115.52528635208331,116.12052385208331,77.0,73.0
243,116.23957135208332,117.31397503958331,72.0,68.0
244,116.23957135208332,117.32587978958331,75.0,74.0
245,117.66814135208331,118.9464138833333,70.0,66.0
246,117.66814135208331,118.96575910208331,73.0,69.0
247,119.09671135208332,120.19492453958331,72.0,73.0
248,119.09671135208332,120.19790072708331,68.0,68.0
249,120.52528135208331,121.67706591458331,73.0,72.0
250,120.52528135208331,121.69938732083331,77.0,76.0
251,121.95385135208332,123.16813585208331,72.0,71.0
252,121.95385135208332,123.1949215395833,75.0,77.0
253,123.38242135208331,123.99849216458331,70.0,68.0
254,123.38242135208331,124.17855150833331,73.0,72.0
255,124.09670635208332,124.6621819770833,70.0,76.0
256,124.8109913520833,125.9955139770833,68.0,71.0
257,124.8109913520833,125.99849016458332,72.0,70.0
258,126.23956135208331,127.48360772708331,70.0,69.0
259,127.66813135208331,128.8392611333333,68.0,73.0
260,129.0967013520833,130.28568825833332,66.0,70.0
261,129.0967013520833,130.3898548208333,70.0,70.0
262,130.5252713520833,131.8094962583333,73.0,71.0
263,130.5252713520833,131.81842482083331,66.0,68.0
264,131.95384135208332,133.1889591645833,70.0,60.0
265,131.95384135208332,133.22764960208332,73.0,68.0
266,134.0966963520833,134.56991016458332,68.0,62.0
267,134.0966963520833,134.68151719583332,72.0,69.0
268,134.8109813520833,136.1234800395833,73.0,66.0
269,134.8109813520833,136.1368728833333,70.0,62.0
270,136.9538363520833,137.5609786020833,77.0,75.0
271,137.66812135208332,138.91514391458333,73.0,75.0
272,138.91812010208332,139.2514531020833,75.0,77.0
273,138.91812010208332,139.2722864145833,72.0,68.0
274,140.5252613520833,140.9136538208333,73.0,76.0
275,140.8824038520833,141.3184153208333,68.0,71.0
276,141.23954635208332,141.6428197583333,75.0,80.0
277,141.5966888520833,142.01930747708332,68.0,73.0
278,141.9538313520833,142.3079976645833,73.0,80.0
279,142.31097385208332,142.7068067895833,73.0,77.0
280,142.6681163520833,143.0803183208333,68.0,77.0
281,143.0252588520833,143.4136513208333,73.0,78.0
282,143.38240135208332,143.9151389145833,72.0,76.0
283,143.7395438520833,144.13835297708331,68.0,76.0
284,144.0966863520833,144.5312097270833,75.0,82.0
285,144.45382885208332,144.9389474145833,68.0,73.0
286,144.8109713520833,145.15323291458333,72.0,77.0
287,145.1681138520833,145.5356730083333,73.0,79.0
288,145.52525635208332,145.9196011958333,68.0,70.0
289,145.88239885208333,146.22912469583332,72.0,77.0
290,146.2395413520833,146.82585028958331,70.0,79.0
291,146.9538263520833,147.3972782895833,70.0,79.0
292,147.4895401020833,147.73209938333332,70.0,77.0
293,147.84668260208332,147.9285277583333,72.0,76.0
294,147.84668260208332,147.93894441458332,68.0,71.0
295,148.02525385208332,148.1309085083333,68.0,71.0
296,148.02525385208332,148.1323966020833,72.0,78.0
297,148.2038251020833,148.2975750083333,68.0,68.0
298,148.2038251020833,148.2975750083333,72.0,76.0
299,148.3823963520833,148.4791224458333,68.0,69.0
300,148.3823963520833,148.48061053958332,72.0,76.0
301,148.5609676020833,149.0892408833333,70.0,73.0
302,148.5609676020833,149.0937051645833,73.0,78.0
303,149.2752526020833,149.51334760208331,68.0,71.0
304,149.4538238520833,149.6547165083333,70.0,79.0
305,149.6323951020833,149.8169187270833,73.0,81.0
306,149.8109663520833,150.0222756645833,75.0,79.0
307,149.98953760208332,150.2201921333333,73.0,78.0
308,150.16810885208332,150.3734657895833,70.0,72.0
309,150.34668010208333,150.5178108833333,68.0,78.0
310,150.5252513520833,150.82733438333332,73.0,81.0
311,150.8823938520833,151.0475722583333,70.0,77.0
312,151.06096510208332,151.1829887895833,68.0,77.0
313,151.23953635208332,151.5862621958333,65.0,88.0
314,151.5966788520833,151.7990596020833,63.0,76.0
315,151.7752501020833,151.9508451645833,61.0,80.0
316,151.9538213520833,152.12941641458332,58.0,75.0
317,152.1323926020833,152.30798766458332,62.0,75.0
318,152.31096385208332,152.48655891458333,65.0,86.0
319,152.48953510208332,152.6651301645833,70.0,80.0
320,152.6681063520833,152.8437014145833,74.0,78.0
321,152.8466776020833,153.0222726645833,77.0,78.0
322,153.0252488520833,153.3794151645833,82.0,78.0
323,153.38239135208332,153.56393878958332,80.0,78.0
324,153.5609626020833,153.7425100395833,77.0,75.0
325,153.7395338520833,153.9121527270833,75.0,77.0
326,153.9181051020833,154.0951882583333,73.0,75.0
327,154.0966763520833,154.79161613333332,82.0,77.0
328,155.1681038520833,155.3898298208333,85.0,82.0
329,155.3466751020833,155.70530569583332,80.0,79.0
330,155.70381760208332,156.5817929145833,89.0,82.0
331,156.5966738520833,156.77673319583332,87.0,79.0
332,156.77524510208332,156.9880425083333,85.0,76.0
333,156.95381635208332,157.1204828520833,87.0,78.0
334,157.1323876020833,157.3377445395833,89.0,79.0
335,157.3109588520833,157.50143485208332,87.0,81.0
336,157.4895301020833,157.6740537270833,85.0,86.0
337,157.6681013520833,157.8436964145833,82.0,77.0
338,157.84667260208332,158.2008389145833,85.0,77.0
339,158.2038151020833,158.3794101645833,77.0,78.0
340,158.3823863520833,158.5579814145833,82.0,78.0
341,158.5609576020833,158.73655266458331,77.0,78.0
342,158.7395288520833,158.91512391458332,80.0,78.0
343,158.91810010208332,159.2722664145833,77.0,78.0
344,159.27524260208332,159.4508376645833,77.0,78.0
345,159.4538138520833,159.6294089145833,75.0,78.0
346,159.6323851020833,159.8079801645833,73.0,78.0
347,159.8109563520833,159.98655141458332,75.0,78.0
348,159.9895276020833,160.1651226645833,76.0,78.0
349,160.16809885208332,160.3436939145833,75.0,78.0
350,160.3466701020833,160.5222651645833,73.0,78.0
351,160.5252413520833,160.6145269770833,85.0,74.0
352,160.5252413520833,160.62196744583332,78.0,66.0
353,160.7038126020833,160.7930982270833,85.0,77.0
354,160.7038126020833,160.7975625083333,78.0,65.0
355,160.8823838520833,160.9686932895833,85.0,77.0
356,160.8823838520833,160.9701813833333,78.0,64.0
357,161.0609551020833,161.1547050083333,85.0,78.0
358,161.0609551020833,161.17256213333332,78.0,69.0
359,161.59666885208333,161.6844663833333,80.0,77.0
360,161.59666885208333,161.68893066458332,85.0,79.0
361,161.7752401020833,161.8407162270833,80.0,69.0
362,161.7752401020833,161.85113288333332,85.0,77.0
363,161.9538113520833,162.0222636645833,80.0,71.0
364,161.9538113520833,162.03268032083332,85.0,78.0
365,162.1323826020833,162.24250153958332,80.0,74.0
366,162.1323826020833,162.2469658208333,84.0,71.0
367,162.4895251020833,162.6323821020833,73.0,79.0
368,162.6680963520833,162.8362509458333,75.0,81.0
369,162.8466676020833,163.0073817270833,77.0,75.0
370,163.0252388520833,163.17702441458331,75.0,77.0
371,163.2038101020833,163.35708375833332,73.0,79.0
372,163.3823813520833,164.6174991645833,70.0,60.0
373,163.3823813520833,164.6174991645833,70.0,77.0
374,163.3823813520833,164.65618960208332,73.0,68.0
375,165.5252363520833,165.99845016458332,68.0,62.0
376,165.5252363520833,166.1100571958333,72.0,69.0
377,166.2395213520833,167.5520200395833,73.0,66.0
378,166.2395213520833,167.5654128833333,70.0,62.0
379,168.3823763520833,168.9895186020833,77.0,75.0
380,169.4538038520833,169.6829702895833,65.0,81.0
381,169.6323751020833,169.8541010708333,68.0,72.0
382,169.8109463520833,169.98654141458331,70.0,77.0
383,169.9895176020833,170.1963626333333,73.0,74.0
384,170.16808885208332,171.3421948208333,70.0,78.0
385,172.3109438520833,172.5163007895833,70.0,79.0
386,172.48951510208332,172.6353482895833,68.0,72.0
387,172.66808635208332,172.87493138333332,65.0,72.0
388,172.8466576020833,172.9805860395833,68.0,62.0
389,173.2038001020833,174.6145129770833,68.0,75.0
390,174.81094135208332,175.92849975833332,70.0,65.0
391,174.81094135208332,176.03713060208332,73.0,69.0
392,176.2395113520833,177.3659983208333,68.0,67.0
393,176.2395113520833,177.55945050833333,72.0,73.0
394,177.6680813520833,178.9820681333333,73.0,69.0
395,179.0966513520833,180.04903135208332,72.0,74.0
396,181.2395063520833,181.7648034458333,73.0,65.0
397,181.2395063520833,181.8347438520833,77.0,73.0
398,181.9537913520833,183.0281950395833,72.0,68.0
399,181.9537913520833,183.0400997895833,75.0,74.0
400,183.3823613520833,184.6606338833333,70.0,66.0
401,183.3823613520833,184.6799791020833,73.0,69.0
402,184.8109313520833,185.9091445395833,72.0,73.0
403,184.8109313520833,185.9121207270833,68.0,68.0
404,186.23950135208332,187.3912859145833,73.0,72.0
405,186.23950135208332,187.4136073208333,77.0,76.0
406,187.6680713520833,188.88235585208332,72.0,71.0
407,187.6680713520833,188.9091415395833,75.0,77.0
408,189.0966413520833,189.7127121645833,70.0,68.0
409,189.0966413520833,189.8927715083333,73.0,72.0
410,189.8109263520833,190.3764019770833,70.0,76.0
411,190.52521135208332,191.70973397708332,68.0,71.0
412,190.52521135208332,191.7127101645833,72.0,70.0
413,191.9537813520833,193.1978277270833,70.0,69.0
414,193.3823513520833,194.55348113333332,68.0,73.0
415,194.8109213520833,195.9999082583333,66.0,70.0
416,194.8109213520833,196.10407482083332,70.0,70.0
417,196.2394913520833,197.5237162583333,73.0,71.0
418,196.2394913520833,197.5326448208333,66.0,68.0
419,197.6680613520833,198.90317916458332,70.0,60.0
420,197.6680613520833,198.9418696020833,73.0,68.0
421,199.81091635208332,200.2841301645833,68.0,62.0
422,199.81091635208332,200.3957371958333,72.0,69.0
423,200.5252013520833,201.8377000395833,73.0,66.0
424,200.5252013520833,201.8510928833333,70.0,62.0
425,202.66805635208328,203.27519860208332,77.0,75.0
426,203.3823413520833,204.6293639145833,73.0,75.0
427,204.6323401020833,204.96567310208331,75.0,77.0
428,204.6323401020833,204.9865064145833,72.0,68.0
429,206.5966238520833,206.7915641333333,68.0,72.0
430,206.7751951020833,207.04007578958328,65.0,73.0
431,207.13233760208328,207.3079326645833,77.0,77.0
432,207.3109088520833,207.4865039145833,68.0,45.0
433,207.4894801020833,207.67549182083332,65.0,67.0
434,207.6680513520833,207.85108688333332,70.0,70.0
435,209.4752237583333,209.78848767499997,61.0,70.0
436,210.02534575833332,210.48683699166665,66.0,69.0
437,209.65859775833331,210.5112868583333,73.0,77.0
438,210.39209375833332,210.62436749166665,61.0,69.0
439,210.9422157583333,211.19741124166663,68.0,71.0
440,211.12558975833332,211.86623199583332,73.0,74.0
441,211.4923377583333,211.92927009374998,68.0,70.0
442,211.86008193749998,212.1153093583333,61.0,70.0
443,212.41358718749999,212.65343946249996,63.0,68.0
444,212.59808893749997,213.37299628749997,73.0,73.0
445,212.96709243749999,213.38683391874997,66.0,65.0
446,213.33609593749998,214.1956467020833,63.0,59.0
447,213.5205976875,214.2561305020833,72.0,68.0
448,214.25923223541665,215.00057155416664,70.0,72.0
449,215.37634764166663,215.69567096874997,61.0,70.0
450,215.93785846874997,216.41194284374996,66.0,69.0
451,215.56291102499995,216.43719534374995,73.0,77.0
452,216.31408940624993,216.55398815624994,61.0,69.0
453,216.88550849374994,217.15382461041662,68.0,71.0
454,217.07831049374994,217.87005227291664,73.0,74.0
455,217.46915649374995,217.9382038395833,68.0,70.0
456,217.8634033395833,218.14019762499996,61.0,70.0
457,218.46745743749997,218.73061481249997,63.0,68.0
458,218.66988618749997,219.52008693749997,73.0,73.0
459,219.07474368749996,219.53526909374997,66.0,65.0
460,219.47960118749995,220.89322862499995,63.0,59.0
461,219.68202993749995,221.29808612499997,72.0,68.0
