,start,end,pitch,velocity
0,12.322759891666664,12.457490266666664,70.0,80.0
1,12.682040891666665,13.149106191666665,70.0,74.0
2,13.220962391666664,13.349704749999997,68.0,69.0
3,13.400602891666665,13.605692462499997,70.0,68.0
4,13.580243391666665,13.903596291666664,68.0,76.0
5,13.939524391666664,14.828744866666664,65.0,77.0
6,15.197007891666665,15.439522566666664,63.0,70.0
7,15.556288891666664,16.039821237499996,63.0,75.0
8,16.095210391666665,16.26287485833333,61.0,71.0
9,16.274850891666663,16.481437466666662,63.0,69.0
10,16.454491391666664,16.66706598333333,65.0,77.0
11,16.813772391666664,17.710477887499998,65.0,77.0
12,18.071255891666667,18.28832149583333,70.0,76.0
13,18.430536891666662,18.695506629166665,70.0,77.0
14,18.789817891666665,18.988919445833332,72.0,77.0
15,19.149098891666664,19.449934410416663,73.0,77.0
16,19.506481972916664,19.659755629166664,68.0,65.0
17,19.863624472916666,20.009457660416665,68.0,76.0
18,20.042195722916667,20.522850004166663,65.0,79.0
19,20.577909472916666,21.744574972916666,63.0,66.0
20,23.792191972916665,24.010941754166666,70.0,71.0
21,24.149334472916664,24.583857847916665,70.0,73.0
22,24.685048222916663,24.796655254166666,68.0,71.0
23,24.863619472916664,25.012428847916663,70.0,78.0
24,25.042190722916665,25.281773816666664,68.0,77.0
25,25.399333222916663,26.345760847916665,65.0,78.0
26,26.649331972916663,26.851712722916666,63.0,76.0
27,27.006474472916665,27.421652629166665,63.0,75.0
28,27.542188222916664,27.661235722916665,61.0,76.0
29,27.72075947291666,27.829390316666665,63.0,77.0
30,27.899330722916666,28.107663847916662,65.0,77.0
31,28.256473222916664,29.210341316666664,65.0,77.0
32,29.506471972916664,29.738614597916666,66.0,74.0
33,29.863614472916666,30.074923785416665,66.0,77.0
34,30.220756972916664,30.457363879166664,68.0,70.0
35,30.577899472916663,31.149327472916664,66.0,78.0
36,31.292184472916663,31.646350785416665,65.0,81.0
37,31.64932697291666,31.833783425,63.0,75.0
38,31.827845191666665,34.124456933333335,65.0,73.0
39,34.856344191666665,35.42789915,69.0,72.0
40,35.56893219166667,35.816853433333335,69.0,74.0
41,35.92522619166667,36.058836441666664,70.0,77.0
42,36.10337319166666,36.701650199999996,72.0,75.0
43,36.99410819166667,37.270236041666664,70.0,73.0
44,37.35040219166667,37.47955876666666,72.0,75.0
45,37.52854919166666,39.023499433333335,73.0,68.0
46,39.131872191666666,40.220053449999995,72.0,73.0
47,40.55704819166667,41.1375105,73.0,78.0
48,41.26963619166666,41.52646478333333,73.0,75.0
49,41.62593019166667,41.747663974999995,72.0,73.0
50,41.804077191666664,42.071297691666665,70.0,77.0
51,42.16037119166667,42.567140175,68.0,73.0
52,42.694812191666664,42.92788785,70.0,79.0
53,43.05110619166666,43.25894435833333,72.0,76.0
54,43.40740019166667,43.967078683333334,73.0,78.0
55,44.119988191666664,44.399085158333335,73.0,79.0
56,44.47628219166667,44.56980936666667,72.0,71.0
57,44.654429191666665,45.865828791666665,72.0,78.0
58,46.25775219166667,46.90205050833333,73.0,78.0
59,46.970340191666665,47.495873841666665,72.0,77.0
60,47.68292819166666,47.93678766666666,73.0,78.0
61,48.03922219166667,48.144625833333336,75.0,78.0
62,48.21736919166666,48.661252133333335,75.0,81.0
63,48.751810191666664,48.88096676666667,70.0,71.0
64,48.92995719166667,49.03684539166667,72.0,78.0
65,49.10810419166667,49.68559738333333,73.0,78.0
66,49.820692191666666,50.13541855833333,73.0,76.0
67,50.176986191666664,50.263090575,72.0,65.0
68,50.35513319166667,51.72834965,72.0,76.0
69,51.95845619166667,52.52852659166666,73.0,78.0
70,52.67104419166667,52.9308419,73.0,78.0
71,53.027338191666665,53.149071975,72.0,80.0
72,53.20548519166667,53.45934466666667,70.0,77.0
73,53.561779191666666,53.95815626666666,68.0,71.0
74,54.09622019166667,54.36492525,70.0,78.0
75,54.452514191666666,54.805839074999994,72.0,75.0
76,54.808808191666664,55.340280074999995,73.0,78.0
77,55.52139619166667,56.01426955833333,73.0,77.0
78,56.233984191666664,56.69568183333333,75.0,78.0
79,56.768425191666665,57.179647849999995,73.0,80.0
80,57.302866191666666,57.58196315833333,75.0,81.0
81,57.659160191666665,59.71972715833333,77.0,77.0
82,60.865806191666664,61.087005383333334,75.0,78.0
83,61.22210019166667,61.432907475,75.0,79.0
84,61.57839419166666,61.769902216666665,75.0,78.0
85,61.934688191666666,62.33403438333333,75.0,79.0
86,62.46912919166667,62.99763195833333,73.0,78.0
87,63.00357019166667,63.296028183333334,72.0,78.0
88,63.35986419166667,63.891336075,73.0,72.0
89,64.07245219166666,64.372332975,73.0,77.0
90,64.42874619166668,64.53118071666667,72.0,72.0
91,64.60689319166667,65.423400275,73.0,75.0
92,65.49762819166666,65.80790088333333,73.0,79.0
93,65.85392219166667,65.96823318333333,72.0,73.0
94,66.03206919166666,67.76306420833333,73.0,78.0
95,68.34798019166666,68.59656523541666,68.0,78.0
96,68.70532565416666,68.81259620416665,70.0,73.0
97,68.88410990416666,70.8691244625,70.0,77.0
98,77.6809974,80.34806014999998,73.0,75.0
99,80.3659599,80.58224854583332,70.0,77.0
100,80.54495739999999,80.76124604583332,72.0,77.0
101,80.7239549,80.89996910833332,70.0,70.0
102,80.90295239999999,82.62729498333331,68.0,70.0
103,83.7669124,83.901160525,70.0,80.0
104,84.12468059999999,84.58786279999998,70.0,74.0
105,84.65912159999999,84.78679361666666,68.0,69.0
106,84.83726859999999,85.04065309166666,70.0,68.0
107,85.01541559999998,85.33608019999998,68.0,76.0
108,85.37170959999999,86.25353725,65.0,77.0
109,86.61873859999999,86.85923704999999,63.0,70.0
110,86.97503259999999,87.45454494166665,63.0,75.0
111,87.50947359999999,87.67574413333332,61.0,71.0
112,87.68762059999999,87.89248964999999,63.0,69.0
113,87.86576759999998,88.07657488333332,65.0,77.0
114,88.22206159999999,89.11131204166665,65.0,77.0
115,89.46909059999999,89.68435155833332,70.0,76.0
116,89.82538459999999,90.08815142499999,70.0,77.0
117,90.18167859999998,90.37912485833333,72.0,77.0
118,90.53797259999999,90.83785338333333,73.0,77.0
119,90.8942666,91.04717610833332,68.0,65.0
120,91.25056059999999,91.39604731666665,68.0,76.0
121,91.4287076,91.90821994166666,65.0,79.0
122,91.96314859999998,93.12704233333332,63.0,66.0
123,95.16979459999999,95.388024675,70.0,71.0
124,95.5260886,95.95957963333332,70.0,73.0
125,96.0605296,96.17187147499999,68.0,71.0
126,96.23867659999999,96.38713243333332,70.0,78.0
127,96.41682359999999,96.65583749166666,68.0,77.0
128,96.77311759999999,97.71729669999999,65.0,78.0
129,98.02014659999999,98.22204653333333,63.0,76.0
130,98.3764406,98.79063237499999,63.0,75.0
131,98.91088159999998,99.02964626666666,61.0,76.0
132,99.08902859999999,99.19740135833332,63.0,77.0
133,99.26717559999999,99.47501376666665,65.0,77.0
134,99.62346959999999,100.57507149166665,65.0,77.0
135,100.87049859999999,101.1020897,66.0,74.0
136,101.22679259999998,101.43759988333332,66.0,77.0
137,101.58308659999999,101.81913137499998,68.0,70.0
138,101.93938059999999,102.50945099999998,66.0,78.0
139,102.65196859999999,103.00529348333332,65.0,81.0
140,103.0082626,103.19234783333332,63.0,75.0
141,103.18640959999999,105.49010884166665,65.0,73.0
142,106.04649273749999,106.22250694583332,65.0,78.0
143,106.22549023749998,106.79977388333332,69.0,72.0
144,106.94148023749999,107.19058509166665,69.0,74.0
145,107.29947523749999,107.43372336249999,70.0,77.0
146,107.47847273749998,108.07960600833331,72.0,75.0
147,108.37346023749998,108.65090636249998,70.0,73.0
148,108.73145523749999,108.86122842499998,72.0,75.0
149,108.91045273749998,110.41254009166666,73.0,68.0
150,110.52143023749998,111.61480663333332,72.0,73.0
151,111.95341023749998,112.5357060083333,73.0,78.0
152,112.66814635208331,112.92558657083332,73.0,75.0
153,113.0252888520833,113.14731253958331,72.0,73.0
154,113.20386010208331,113.47171697708332,70.0,77.0
155,113.56100260208332,113.96874028958331,68.0,73.0
156,114.09671635208332,114.33034707083331,70.0,79.0
157,114.45385885208331,114.66219197708331,72.0,76.0
158,114.81100135208331,115.37201269583332,73.0,78.0
159,115.52528635208331,115.80504797708332,73.0,79.0
160,115.88242885208331,115.97617875833332,72.0,71.0
161,116.06100010208331,117.27528460208332,72.0,78.0
162,117.66814135208331,118.31397403958331,73.0,78.0
163,118.38242635208331,118.90921153958331,72.0,77.0
164,119.09671135208332,119.35117538333331,73.0,78.0
165,119.45385385208331,119.55950850833331,75.0,78.0
166,119.63242510208332,120.07736513333332,75.0,81.0
167,120.16813885208332,120.29760300833331,70.0,71.0
168,120.3467101020833,120.45385285208332,72.0,78.0
169,120.52528135208331,121.10414982083331,73.0,78.0
170,121.23956635208332,121.5550422270833,73.0,76.0
171,121.59670885208331,121.68301828958332,72.0,65.0
172,121.77528010208331,123.15176682083332,72.0,76.0
173,123.38242135208331,123.95384935208331,73.0,78.0
174,124.09670635208332,124.35712275833332,73.0,78.0
175,124.45384885208331,124.57587253958332,72.0,80.0
176,124.63242010208332,124.88688413333331,70.0,77.0
177,124.98956260208331,125.38688363333331,68.0,71.0
178,125.52527635208331,125.79462132083331,70.0,78.0
179,125.8824188520833,126.23658516458332,72.0,75.0
180,126.23956135208331,126.77229891458332,73.0,78.0
181,126.95384635208332,127.44789347708331,73.0,77.0
182,127.66813135208331,128.1309285083333,75.0,78.0
183,128.2038451020833,128.6160470708333,73.0,80.0
184,128.73955885208332,129.0193204770833,75.0,81.0
185,129.0967013520833,131.1621754770833,77.0,77.0
186,132.31098385208333,132.5327098208333,75.0,78.0
187,132.6681263520833,132.8794356645833,75.0,79.0
188,133.02526885208331,133.2172329458333,75.0,78.0
189,133.38241135208332,133.7827085708333,75.0,79.0
190,133.9181251020833,134.4478864770833,73.0,78.0
191,134.45383885208332,134.74699332083333,72.0,78.0
192,134.8109813520833,135.34371891458332,73.0,72.0
193,135.52526635208332,135.82586128958332,73.0,77.0
194,135.8824088520833,135.98508732083332,72.0,72.0
195,136.0609801020833,136.8794316645833,73.0,75.0
196,136.9538363520833,137.2648479458333,73.0,79.0
197,137.3109788520833,137.4255620708333,72.0,73.0
198,137.4895501020833,139.2246674145833,73.0,78.0
199,139.81097635208332,140.05948800833332,68.0,78.0
200,140.1681188520833,140.2752616020833,70.0,73.0
201,140.3466901020833,142.31097385208332,70.0,77.0
202,163.73952385208332,163.9612498208333,75.0,78.0
203,164.0966663520833,164.3079756645833,75.0,79.0
204,164.4538088520833,164.6457729458333,75.0,78.0
205,164.8109513520833,165.2112485708333,75.0,79.0
206,165.3466651020833,165.8764264770833,73.0,78.0
207,165.88237885208332,166.17553332083332,72.0,78.0
208,166.2395213520833,166.77225891458332,73.0,72.0
209,166.9538063520833,167.2544012895833,73.0,77.0
210,167.3109488520833,167.4136273208333,72.0,72.0
211,167.4895201020833,168.3079716645833,73.0,75.0
212,168.3823763520833,168.6933879458333,73.0,79.0
213,168.7395188520833,168.8541020708333,72.0,73.0
214,168.9180901020833,170.6532074145833,73.0,78.0
215,171.2395163520833,171.48802800833332,73.0,78.0
216,171.5966588520833,171.7038016020833,75.0,73.0
217,171.7752301020833,173.7395138520833,75.0,77.0
218,174.0966563520833,174.3734417895833,70.0,73.0
219,174.4537988520833,174.5832630083333,72.0,75.0
220,174.6323701020833,176.1308805083333,73.0,68.0
221,176.2395113520833,177.3302840708333,72.0,73.0
222,177.6680813520833,178.24992600833332,73.0,78.0
223,178.3823663520833,178.6398065708333,73.0,75.0
224,178.7395088520833,178.86153253958332,72.0,73.0
225,178.9180801020833,179.18593697708332,70.0,77.0
226,179.27522260208332,179.68296028958332,68.0,73.0
227,179.8109363520833,180.0445670708333,70.0,79.0
228,180.1680788520833,180.3764119770833,72.0,76.0
229,180.5252213520833,181.0862326958333,73.0,78.0
230,181.2395063520833,181.5192679770833,73.0,79.0
231,181.59664885208332,181.6903987583333,72.0,71.0
232,181.77522010208332,182.9895046020833,72.0,78.0
233,183.3823613520833,184.0281940395833,73.0,78.0
234,184.09664635208333,184.6234315395833,72.0,77.0
235,184.8109313520833,185.0653953833333,73.0,78.0
236,185.1680738520833,185.2737285083333,75.0,78.0
237,185.3466451020833,185.79158513333329,75.0,81.0
238,185.8823588520833,186.0118230083333,70.0,71.0
239,186.06093010208332,186.1680728520833,72.0,78.0
240,186.23950135208332,186.8183698208333,73.0,78.0
241,186.95378635208328,187.2692622270833,73.0,76.0
242,187.3109288520833,187.3972382895833,72.0,65.0
243,187.4895001020833,188.8659868208333,72.0,76.0
244,189.0966413520833,189.6680693520833,73.0,78.0
245,189.8109263520833,190.0713427583333,73.0,78.0
246,190.1680688520833,190.2900925395833,72.0,80.0
247,190.3466401020833,190.6011041333333,70.0,77.0
248,190.70378260208332,191.1011036333333,68.0,71.0
249,191.2394963520833,191.5088413208333,70.0,78.0
250,191.5966388520833,191.9508051645833,72.0,75.0
251,191.9537813520833,192.4865189145833,73.0,78.0
252,192.66806635208331,193.16211347708332,73.0,77.0
253,193.3823513520833,193.8451485083333,75.0,78.0
254,193.9180651020833,194.33026707083332,73.0,80.0
255,194.4537788520833,194.7335404770833,75.0,81.0
256,194.8109213520833,196.8763954770833,77.0,77.0
257,198.0252038520833,198.24692982083332,75.0,78.0
258,198.3823463520833,198.5936556645833,75.0,79.0
259,198.7394888520833,198.9314529458333,75.0,78.0
260,199.0966313520833,199.4969285708333,75.0,79.0
261,199.63234510208332,200.16210647708328,73.0,78.0
262,200.1680588520833,200.4612133208333,72.0,78.0
263,200.5252013520833,201.0579389145833,73.0,72.0
264,201.2394863520833,201.5400812895833,73.0,77.0
265,201.5966288520833,201.6993073208333,72.0,72.0
266,201.77520010208332,202.59365166458332,73.0,75.0
267,202.66805635208328,202.97906794583332,73.0,79.0
268,203.0251988520833,203.1397820708333,72.0,73.0
269,203.2037701020833,204.9388874145833,73.0,78.0
270,205.5251963520833,205.7737080083333,68.0,78.0
271,205.8823388520833,205.9894816020833,70.0,73.0
272,206.0609101020833,208.0251938520833,70.0,77.0
