,start,end,pitch,velocity
0,0.3803696875,1.6795932083333334,42.0,77.0
1,0.7383646875,1.7034595416666667,49.0,60.0
2,0.9173621875,1.8198079166666667,54.0,68.0
3,2.3493421875,3.1384228333333333,61.0,64.0
4,2.1703446875,3.1458810625,56.0,64.0
5,1.8123496875,3.1563225833333335,49.0,72.0
6,3.6023246875,4.597252458333333,51.0,60.0
7,3.2443296875,4.609185625,44.0,62.0
8,3.7813221875,4.773266666666666,56.0,71.0
9,4.6763096875,6.044148916666667,44.0,75.0
10,5.3922996874999995,6.073981833333333,58.0,69.0
11,6.1082896875,7.4075132083333335,42.0,77.0
12,6.4662846875,7.431379541666667,49.0,60.0
13,6.6452821875,7.547727916666666,54.0,68.0
14,8.0772621875,8.866342833333333,61.0,64.0
15,7.8982646875,8.8738010625,56.0,64.0
16,7.5402696875,8.884242583333334,49.0,72.0
17,9.3302446875,10.325199289583331,51.0,60.0
18,8.9722496875,10.337262006249999,44.0,62.0
19,9.5092421875,10.503345285416664,56.0,71.0
20,10.405114787499999,11.86738863333333,44.0,75.0
21,10.405114787499999,11.935570383333332,51.0,69.0
22,12.322759891666664,12.679046883333331,53.0,67.0
23,11.937193758333331,13.31227964583333,46.0,70.0
24,12.502400391666665,13.35269875833333,61.0,70.0
25,13.400602891666665,14.638625337499997,49.0,70.0
26,13.759883891666664,14.714972549999997,56.0,53.0
27,13.939524391666664,14.722457570833331,61.0,72.0
28,14.837726891666664,15.622157074999997,39.0,78.0
29,15.197007891666665,15.73293538333333,46.0,71.0
30,15.376648391666665,16.27185688333333,51.0,71.0
31,16.274850891666663,17.680537804166665,46.0,69.0
32,16.993412891666665,17.69550784583333,58.0,66.0
33,17.352693891666664,17.711974891666664,53.0,71.0
34,18.250896391666664,18.915566241666664,54.0,65.0
35,17.711974891666664,18.917063245833333,42.0,65.0
36,18.071255891666667,19.03382957083333,49.0,70.0
37,19.685053222916665,20.345766847916664,56.0,66.0
38,19.149098891666664,20.402314410416665,37.0,67.0
39,19.506481972916664,20.457373879166663,49.0,70.0
40,20.935051972916664,21.289218285416666,51.0,70.0
41,20.577909472916666,21.646360785416665,44.0,64.0
42,21.113623222916665,21.872551035416663,56.0,73.0
43,21.470765722916664,23.356180504166666,51.0,61.0
44,22.006479472916666,23.374037629166665,44.0,66.0
45,23.792191972916665,24.003501285416665,58.0,67.0
46,23.435049472916663,24.775821941666663,46.0,70.0
47,23.970763222916666,24.816000472916663,61.0,70.0
48,24.863619472916664,26.094273004166663,49.0,70.0
49,25.220761972916662,26.170165785416664,61.0,53.0
50,25.399333222916663,26.177606254166662,65.0,72.0
51,26.292189472916665,27.071950597916665,39.0,78.0
52,26.827903222916664,27.717783285416665,51.0,71.0
53,27.72075947291666,29.118079504166666,46.0,69.0
54,28.435044472916665,29.13296044166666,58.0,66.0
55,28.792186972916664,29.149329472916662,53.0,71.0
56,29.68504322291666,30.34575684791666,54.0,65.0
57,29.149329472916662,30.347244941666663,42.0,65.0
58,29.506471972916664,30.463316254166664,49.0,70.0
59,31.113613222916662,31.77432684791666,56.0,66.0
60,30.577899472916663,31.83081430833333,44.0,67.0
61,30.935041972916665,31.885742966666665,51.0,70.0
62,32.005992191666664,33.230752816666666,46.0,64.0
63,32.36228619166666,33.3703013,53.0,64.0
64,32.540433191666665,33.39850790833333,58.0,48.0
65,33.78746219166666,34.0294452,53.0,66.0
66,33.431168191666664,34.853375074999995,46.0,68.0
67,34.321903191666664,34.853375074999995,53.0,69.0
68,33.965609191666665,34.853375074999995,58.0,64.0
69,34.856344191666665,35.386331516666665,57.0,68.0
70,35.390785191666666,35.79458505833333,53.0,79.0
71,35.747079191666664,36.10485775,60.0,75.0
72,34.856344191666665,36.15533273333333,41.0,73.0
73,35.21263819166666,36.165724641666664,48.0,64.0
74,36.10337319166666,36.51162673333333,53.0,76.0
75,36.281520191666665,36.51756496666667,65.0,83.0
76,36.281520191666665,36.588823766666664,41.0,77.0
77,38.24113719166667,38.62860691666667,58.0,69.0
78,37.706696191666666,38.915126674999996,46.0,73.0
79,38.062990191666664,39.14077954166667,53.0,65.0
80,38.95372519166666,39.179378058333334,58.0,68.0
81,38.597431191666665,39.18828540833333,65.0,74.0
82,39.66631319166667,40.05229835833333,56.0,72.0
83,39.488166191666664,40.25271373333333,53.0,72.0
84,39.131872191666666,40.4071078,44.0,76.0
85,40.022607191666665,40.485789391666664,63.0,75.0
86,41.09148919166667,41.484897149999995,54.0,78.0
87,40.55704819166667,41.817438216666666,42.0,78.0
88,40.913342191666665,41.854552174999995,49.0,55.0
89,41.804077191666664,41.99113154166666,54.0,68.0
90,41.447783191666666,42.03566829166667,61.0,74.0
91,42.338518191666665,42.712626891666666,56.0,72.0
92,42.16037119166667,42.89968124166666,51.0,71.0
93,42.872959191666666,43.25152156666667,56.0,77.0
94,41.98222419166667,43.279728175,44.0,75.0
95,43.229253191666665,43.333172274999995,51.0,77.0
96,42.51666519166666,43.56327881666667,63.0,75.0
97,43.94184119166667,44.25211388333333,58.0,76.0
98,43.763694191666666,44.52081894166666,53.0,67.0
99,44.29813519166667,44.678182125,65.0,81.0
100,43.40740019166667,44.704904174999996,46.0,77.0
101,44.654429191666665,44.8429681,58.0,75.0
102,45.188870191666666,45.340295141666665,56.0,73.0
103,45.01072319166666,45.45460613333333,51.0,62.0
104,45.36701719166666,45.714403841666666,63.0,78.0
105,44.83257619166667,45.74854868333333,44.0,77.0
106,45.72331119166667,45.90888098333333,56.0,78.0
107,45.90145819166666,46.10632724166666,51.0,70.0
108,46.079605191666666,46.2681441,56.0,72.0
109,46.61404619166667,46.878297575,54.0,74.0
110,46.435899191666664,47.014876941666664,49.0,64.0
111,46.79219319166667,47.359294475,61.0,77.0
112,46.25775219166667,47.54189515,42.0,75.0
113,47.32663419166666,47.549317941666665,54.0,73.0
114,47.14848719166667,47.55970985,49.0,72.0
115,47.504781191666666,47.6933201,61.0,70.0
116,48.03922219166667,48.276751524999995,56.0,76.0
117,47.861075191666664,48.58702421666666,51.0,69.0
118,48.21736919166666,48.74587195833333,63.0,79.0
119,48.57366319166667,48.79931605833333,56.0,77.0
120,47.68292819166666,48.90323514166667,44.0,77.0
121,48.751810191666664,48.953710125,51.0,75.0
122,48.92995719166667,49.039814508333336,56.0,77.0
123,49.10810419166667,49.4035313,58.0,71.0
124,49.10810419166667,49.44064525833333,61.0,70.0
125,49.64254519166667,49.880074525,58.0,77.0
126,49.99883919166666,50.17550163333333,58.0,78.0
127,49.10810419166667,50.353648633333336,46.0,78.0
128,49.46439819166666,50.35661775,53.0,67.0
129,50.35513319166667,50.57187870833333,58.0,73.0
130,49.99883919166666,50.58672429166667,65.0,77.0
131,50.88957419166667,50.98755504166667,56.0,77.0
132,50.711427191666665,51.251806425,51.0,67.0
133,51.067721191666664,51.33642625,56.0,77.0
134,51.067721191666664,51.64224526666666,63.0,77.0
135,51.42401519166667,51.737257,51.0,78.0
136,50.53328019166666,51.741710675,44.0,78.0
137,51.602162191666665,51.83375329166667,56.0,77.0
138,51.78030919166666,52.01486940833333,63.0,76.0
139,52.31475019166666,52.454298675000004,54.0,74.0
140,52.136603191666666,52.792777975,49.0,66.0
141,52.492897191666664,53.068905825,54.0,70.0
142,51.95845619166667,53.2336918,42.0,77.0
143,53.027338191666665,53.27080575833333,49.0,77.0
144,53.20548519166667,53.388085866666664,54.0,75.0
145,52.492897191666664,53.44004540833333,61.0,77.0
146,53.561779191666666,54.124426799999995,51.0,71.0
147,53.73992619166667,54.26991351666666,56.0,76.0
148,53.918073191666664,54.48368991666666,63.0,79.0
149,53.38363219166666,54.566825183333336,44.0,78.0
150,54.27436719166667,54.63066119166666,51.0,71.0
151,54.452514191666666,54.68262073333334,56.0,75.0
152,54.63066119166666,54.83849935833334,63.0,76.0
153,55.16510219166666,55.42638445833333,58.0,77.0
154,54.98695519166667,55.703996866666664,53.0,67.0
155,54.808808191666664,56.07216733333333,46.0,78.0
156,55.877690191666666,56.106312175,53.0,77.0
157,55.343249191666665,56.131549666666665,61.0,78.0
158,55.343249191666665,56.134518783333334,65.0,79.0
159,56.05583719166667,56.26070624166667,58.0,66.0
160,56.41213119166667,56.997047175,51.0,65.0
161,56.59027819166667,57.112842725,56.0,76.0
162,56.768425191666665,57.351856616666666,63.0,78.0
163,56.233984191666664,57.48398230833333,44.0,78.0
164,57.12471919166667,57.498827891666664,51.0,78.0
165,57.302866191666666,57.54633375833333,56.0,77.0
166,57.48101319166666,57.819492491666665,63.0,77.0
167,57.83730719166667,58.42964596666667,49.0,67.0
168,58.01545419166666,58.54395695833333,54.0,72.0
169,58.193601191666666,58.780001733333336,61.0,79.0
170,57.659160191666665,58.965571525,42.0,77.0
171,58.549895191666664,58.992293575,49.0,76.0
172,58.72804219166667,59.16450234166666,54.0,72.0
173,58.90618919166667,59.32483464166667,61.0,77.0
174,59.44063019166667,60.42934604166666,54.0,77.0
175,59.618777191666666,60.44270706666667,61.0,79.0
176,59.26248319166666,60.450129858333334,49.0,69.0
177,59.084336191666665,60.46646,42.0,77.0
178,60.865806191666664,61.07364435833333,58.0,71.0
179,61.04395319166667,61.31859648333334,66.0,77.0
180,60.68765919166667,61.456660408333335,46.0,63.0
181,60.509512191666666,61.47595966666667,39.0,83.0
182,61.400247191666665,61.59175521666667,58.0,73.0
183,61.57839419166666,61.827799991666666,63.0,73.0
184,61.75654119166667,61.927265399999996,58.0,74.0
185,62.290982191666664,62.555233575,56.0,76.0
186,62.11283519166666,62.669544566666666,51.0,66.0
187,62.46912919166667,63.07334443333333,63.0,78.0
188,61.934688191666666,63.195078216666666,44.0,75.0
189,62.825423191666665,63.25149143333333,51.0,72.0
190,63.00357019166667,63.290089949999995,56.0,75.0
191,63.716158191666665,63.970017666666664,58.0,77.0
192,63.53801119166667,64.158556575,53.0,68.0
193,63.89430519166667,64.45992191666667,65.0,78.0
194,63.35986419166667,64.66182185,46.0,79.0
195,64.42874619166668,64.666275525,58.0,73.0
196,64.25059919166667,64.70190492500001,53.0,73.0
197,64.60689319166667,64.960218075,65.0,78.0
198,65.14133419166666,65.39519366666667,58.0,77.0
199,64.78504019166667,65.62084653333334,46.0,78.0
200,64.96318719166666,65.63569211666666,53.0,69.0
201,65.67577519166667,66.09738975833334,44.0,78.0
202,65.31948119166667,66.23100000833333,61.0,77.0
203,66.03206919166666,66.287413225,56.0,76.0
204,66.38836319166666,66.99851666666666,49.0,64.0
205,66.56651019166667,67.05047620833332,54.0,76.0
206,66.74465719166668,67.43794593333334,61.0,77.0
207,66.21021619166666,67.47654445,42.0,77.0
208,67.10095119166667,67.52405031666666,49.0,77.0
209,67.45724519166666,67.712589225,60.0,78.0
210,67.45724519166666,67.72446569166667,56.0,66.0
211,67.45724519166666,67.79572449166668,44.0,78.0
212,69.2439093375,69.86139659375,53.0,73.0
213,69.4241975875,70.02215361666667,58.0,74.0
214,69.6044858375,70.2177377625,65.0,78.0
215,70.14536146249999,70.36852172083333,58.0,71.0
216,69.0636210875,70.37907659791667,46.0,79.0
217,69.9650623375,70.39264715416665,53.0,72.0
218,70.3263022125,70.4348666625,65.0,78.0
219,70.50724296249999,70.76960704999999,61.0,67.0
220,70.50724296249999,70.80277952083333,58.0,69.0
221,70.50724296249999,70.99427514791665,46.0,78.0
222,71.95225658749999,73.25230092083332,42.0,77.0
223,72.31107239999999,73.27616725416665,49.0,60.0
224,72.4900699,73.39251562916665,54.0,68.0
225,73.92204989999999,74.71113054583333,61.0,64.0
226,73.74305239999998,74.71858877499999,56.0,64.0
227,73.3850574,74.72903029583333,49.0,72.0
228,75.17503239999999,76.16996017083332,51.0,60.0
229,74.81703739999999,76.18189333749999,44.0,62.0
230,75.35402989999999,76.34597437916665,56.0,71.0
231,76.24901739999999,77.61685662916665,44.0,75.0
232,76.96500739999999,77.64668954583333,58.0,69.0
233,77.6809974,78.98022092083332,42.0,77.0
234,78.03899239999998,79.00408725416665,49.0,60.0
235,78.21798989999999,79.12043562916665,54.0,68.0
236,79.64996989999999,80.43905054583333,61.0,64.0
237,79.4709724,80.44650877499998,56.0,64.0
238,79.11297739999999,80.45695029583332,49.0,72.0
239,80.90295239999999,81.89788017083332,51.0,60.0
240,80.54495739999999,81.90981333749998,44.0,62.0
241,81.08194989999998,82.07389437916666,56.0,71.0
242,81.97693739999998,83.34477662916666,44.0,75.0
243,81.97693739999998,83.40593410833333,51.0,69.0
244,83.7669124,84.12171148333333,53.0,67.0
245,83.40891739999999,84.74967965833332,46.0,70.0
246,83.94590989999999,84.78976273333332,61.0,70.0
247,84.83726859999999,86.06499834166665,49.0,70.0
248,85.19356259999999,86.14071081666665,56.0,53.0
249,85.37170959999999,86.14813360833332,61.0,72.0
250,86.2624446,87.04035316666666,39.0,78.0
251,86.61873859999999,87.15021048333332,46.0,71.0
252,86.7968856,87.68465148333333,51.0,71.0
253,87.68762059999999,89.08162087499998,46.0,69.0
254,88.40020859999998,89.09646645833332,58.0,66.0
255,88.75650259999999,89.1127966,53.0,71.0
256,89.64723759999998,90.30638149999999,54.0,65.0
257,89.1127966,90.30786605833332,42.0,65.0
258,89.46909059999999,90.42366160833332,49.0,70.0
259,91.07241359999999,91.7315575,56.0,66.0
260,90.53797259999999,91.78797071666665,37.0,67.0
261,90.8942666,91.84289937499999,49.0,70.0
262,92.31944259999999,92.67276748333332,51.0,70.0
263,91.96314859999998,93.02906148333332,44.0,64.0
264,92.49758959999998,93.25471434999999,56.0,73.0
265,92.85388359999999,94.73481900833332,51.0,61.0
266,93.38832459999999,94.75263370833332,44.0,66.0
267,95.16979459999999,95.38060188333333,58.0,67.0
268,94.81350059999998,96.15108765833332,46.0,70.0
269,95.34794159999998,96.19117073333332,61.0,70.0
270,96.23867659999999,97.46640634166666,49.0,70.0
271,96.59497059999998,97.54211881666666,61.0,53.0
272,96.77311759999999,97.54954160833333,65.0,72.0
273,97.66385259999998,98.44176116666665,39.0,78.0
274,98.19829359999999,99.08605948333332,51.0,71.0
275,99.08902859999999,100.48302887499999,46.0,69.0
276,99.80161659999999,100.49787445833331,58.0,66.0
277,100.1579106,100.51420459999999,53.0,71.0
278,101.04864559999999,101.70778949999999,54.0,65.0
279,100.51420459999999,101.70927405833332,42.0,65.0
280,100.87049859999999,101.82506960833332,49.0,70.0
281,102.4738216,103.13296549999998,56.0,66.0
282,101.93938059999999,103.18937871666665,44.0,67.0
283,102.29567459999998,103.24430737499999,51.0,70.0
284,103.36455659999999,104.59213804999999,46.0,64.0
285,103.72085059999999,104.73235275833332,53.0,64.0
286,103.89899759999999,104.76069402916666,58.0,48.0
287,105.15150523749999,105.39464350833332,53.0,66.0
288,104.79351023749999,106.22250694583332,46.0,68.0
289,105.68849773749999,106.22250694583332,53.0,69.0
290,105.33050273749998,106.22250694583332,58.0,64.0
291,106.22549023749998,106.75800779999999,57.0,68.0
292,106.76248273749998,107.16821040416664,53.0,79.0
293,107.12047773749998,107.47996438333331,60.0,75.0
294,106.22549023749998,107.53068034166665,41.0,73.0
295,106.58348523749999,107.54112186249998,48.0,64.0
296,107.47847273749998,107.88867534166666,53.0,76.0
297,107.65747023749998,107.89464192499999,65.0,83.0
298,107.65747023749998,107.96624092499998,41.0,77.0
299,109.62644273749999,110.01576229999998,58.0,69.0
300,109.08945023749999,110.30364994583331,46.0,73.0
301,109.44744523749998,110.53038011249998,53.0,65.0
302,110.34243273749999,110.56916290416665,58.0,68.0
303,109.98443773749999,110.57811277916664,65.0,74.0
304,111.05842273749998,111.44625065416665,56.0,72.0
305,110.87942523749999,111.64762284166665,53.0,72.0
306,110.52143023749998,111.80275400833332,44.0,76.0
307,111.41641773749998,111.88181123749999,63.0,75.0
308,112.48957510208331,112.88391994583331,54.0,78.0
309,111.95341023749998,113.21725294583331,42.0,78.0
310,112.31100385208332,113.25445528958332,49.0,55.0
311,113.20386010208331,113.39135991458332,54.0,68.0
312,112.84671760208332,113.43600272708332,61.0,74.0
313,113.73957385208331,114.11457347708331,56.0,72.0
314,113.56100260208332,114.30207328958332,51.0,71.0
315,114.27528760208331,114.65475150833332,56.0,77.0
316,113.38243135208332,114.68302528958331,44.0,75.0
317,114.63243010208332,114.73659666458332,51.0,77.0
318,113.91814510208332,114.96725119583331,63.0,75.0
319,115.34671510208331,115.65772669583332,58.0,76.0
320,115.16814385208332,115.92707166458331,53.0,67.0
321,115.70385760208332,116.08480960208331,65.0,81.0
322,114.81100135208331,116.1115952895833,46.0,77.0
323,116.06100010208331,116.24998800833332,58.0,75.0
324,116.59671385208331,116.7484994145833,56.0,73.0
325,116.41814260208331,116.8630826333333,51.0,62.0
326,116.77528510208332,117.12349903958331,63.0,78.0
327,116.23957135208332,117.15772519583331,44.0,77.0
328,117.13242760208331,117.3184393208333,56.0,78.0
329,117.31099885208332,117.51635578958332,51.0,70.0
330,117.48957010208332,117.67855800833331,56.0,72.0
331,118.02528385208332,118.29016453958332,54.0,74.0
332,117.84671260208331,118.42706916458332,49.0,64.0
333,118.20385510208331,118.77230691458331,61.0,77.0
334,117.66814135208331,118.95534244583331,42.0,75.0
335,118.73956885208331,118.96278291458331,54.0,73.0
336,118.56099760208332,118.97319957083332,49.0,72.0
337,118.91814010208331,119.10712800833332,61.0,70.0
338,119.45385385208331,119.69194885208331,56.0,76.0
339,119.27528260208331,120.00296044583331,51.0,69.0
340,119.63242510208332,120.16218647708331,63.0,79.0
341,119.98956760208331,120.21575785208331,56.0,77.0
342,119.09671135208332,120.31992441458331,44.0,77.0
343,120.16813885208332,120.3705196020833,51.0,75.0
344,120.3467101020833,120.45682903958331,56.0,77.0
345,120.52528135208331,120.82141200833331,58.0,71.0
346,120.52528135208331,120.85861435208331,61.0,70.0
347,121.06099510208331,121.29909010208331,58.0,77.0
348,121.4181376020833,121.59522075833331,58.0,78.0
349,120.52528135208331,121.77379200833332,46.0,78.0
350,120.88242385208332,121.77676819583331,53.0,67.0
351,121.77528010208331,121.99254178958331,58.0,73.0
352,121.4181376020833,122.00742272708331,65.0,77.0
353,122.31099385208331,122.40920803958332,56.0,77.0
354,122.13242260208331,122.67408872708332,51.0,67.0
355,122.48956510208332,122.75891007083331,56.0,77.0
356,122.48956510208332,123.06545738333331,63.0,77.0
357,122.84670760208331,123.16069538333332,51.0,78.0
358,121.95385135208332,123.16515966458331,44.0,78.0
359,123.02527885208332,123.25742147708331,56.0,77.0
360,123.20385010208331,123.43896891458331,63.0,76.0
361,123.73956385208331,123.87944466458332,54.0,74.0
362,123.56099260208332,124.2187300395833,49.0,66.0
363,123.91813510208331,124.49551547708332,54.0,70.0
364,123.38242135208331,124.66069388333331,42.0,77.0
365,124.45384885208331,124.6978962270833,49.0,77.0
366,124.63242010208332,124.81545563333331,54.0,75.0
367,123.91813510208331,124.8675389145833,61.0,77.0
368,124.98956260208331,125.55355013333332,51.0,71.0
369,125.16813385208332,125.6993833208333,56.0,76.0
370,125.34670510208332,125.91366882083331,63.0,79.0
371,124.8109913520833,125.99700207083332,44.0,78.0
372,125.70384760208331,126.06099010208331,51.0,71.0
373,125.8824188520833,126.11307338333332,56.0,75.0
374,126.06099010208331,126.2693232270833,63.0,76.0
375,126.59670385208331,126.85860835208331,58.0,77.0
376,126.41813260208332,127.13688188333332,53.0,67.0
377,126.23956135208331,127.50592913333331,46.0,78.0
378,127.31098885208331,127.54015528958331,53.0,77.0
379,126.77527510208331,127.56545288333331,61.0,78.0
380,126.77527510208331,127.56842907083332,65.0,79.0
381,127.48956010208332,127.69491703958332,58.0,66.0
382,127.84670260208331,128.4330115395833,51.0,65.0
383,128.0252738520833,128.5490828520833,56.0,76.0
384,128.2038451020833,128.78866594583332,63.0,78.0
385,127.66813135208331,128.92110628958332,44.0,78.0
386,128.56098760208332,128.9359872270833,51.0,78.0
387,128.73955885208332,128.9836062270833,56.0,77.0
388,128.9181301020833,129.25741547708333,63.0,77.0
389,129.2752726020833,129.8690220083333,49.0,67.0
390,129.4538438520833,129.9836052270833,54.0,72.0
391,129.6324151020833,130.22021213333332,61.0,79.0
392,129.0967013520833,130.40622385208331,42.0,77.0
393,129.98955760208332,130.4330095395833,49.0,76.0
394,130.16812885208333,130.60562841458332,54.0,72.0
395,130.3467001020833,130.76634253958332,61.0,77.0
396,130.88241385208332,131.8734842895833,54.0,77.0
397,131.06098510208332,131.88687713333331,61.0,79.0
398,130.7038426020833,131.8943176020833,49.0,69.0
399,130.5252713520833,131.9106866333333,42.0,77.0
400,132.31098385208333,132.51931697708332,58.0,71.0
401,132.4895551020833,132.7648524458333,66.0,77.0
402,132.13241260208332,132.90324516458332,46.0,63.0
403,131.95384135208332,132.9225903833333,39.0,83.0
404,132.8466976020833,133.0386616958333,58.0,73.0
405,133.02526885208331,133.27526860208332,63.0,73.0
406,133.20384010208332,133.3749708833333,58.0,74.0
407,133.7395538520833,134.00443453958331,56.0,76.0
408,133.5609826020833,134.1190177583333,51.0,66.0
409,133.9181251020833,134.52377925833332,63.0,78.0
410,133.38241135208332,134.6458029458333,44.0,75.0
411,134.27526760208332,134.70235050833332,51.0,72.0
412,134.45383885208332,134.7410409458333,56.0,75.0
413,135.1681238520833,135.4225878833333,58.0,77.0
414,134.9895526020833,135.6115757895833,53.0,68.0
415,135.34669510208332,135.91365882083332,65.0,78.0
416,134.8109813520833,136.11603957083332,46.0,79.0
417,135.8824088520833,136.12050385208332,58.0,73.0
418,135.7038376020833,136.1562181020833,53.0,73.0
419,136.0609801020833,136.41514641458332,65.0,78.0
420,136.59669385208332,136.85115788333331,58.0,77.0
421,136.2395513520833,137.07734813333332,46.0,78.0
422,136.41812260208332,137.0922290708333,53.0,69.0
423,137.1324076020833,137.55502622708332,44.0,78.0
424,136.77526510208332,137.68895466458332,61.0,77.0
425,137.4895501020833,137.7455022270833,56.0,76.0
426,137.84669260208332,138.4582991333333,49.0,64.0
427,138.0252638520833,138.51038241458332,54.0,76.0
428,138.2038351020833,138.89877488333332,61.0,77.0
429,137.66812135208332,138.93746532083333,42.0,77.0
430,138.5609776020833,138.98508432083332,49.0,77.0
431,138.91812010208332,139.17407222708331,60.0,78.0
432,138.91812010208332,139.1859769770833,56.0,66.0
433,138.91812010208332,139.2574054770833,44.0,78.0
434,140.7038326020833,141.2797248833333,53.0,70.0
435,140.8824038520833,141.3273438833333,58.0,79.0
436,141.06097510208332,141.5922245708333,65.0,83.0
437,140.5252613520833,141.8184148208333,46.0,79.0
438,141.4181176020833,141.8184148208333,53.0,80.0
439,141.5966888520833,141.86156953958331,58.0,77.0
440,141.7752601020833,142.1413311645833,65.0,79.0
441,142.13240260208332,142.7112710708333,53.0,76.0
442,142.31097385208332,142.85859235208332,58.0,79.0
443,142.4895451020833,143.0267469458333,61.0,77.0
444,142.4895451020833,143.1294254145833,65.0,78.0
445,143.0252588520833,143.29013953958332,58.0,77.0
446,141.9538313520833,143.29460382083332,46.0,78.0
447,142.8466876020833,143.29460382083332,53.0,78.0
448,143.20383010208332,143.3288299770833,61.0,78.0
449,143.7395438520833,144.1190077583333,56.0,78.0
450,143.9181151020833,144.2603766645833,63.0,77.0
451,144.45382885208332,144.5401382895833,56.0,78.0
452,143.56097260208333,144.66067388333332,51.0,73.0
453,143.38240135208332,144.6740667270833,44.0,78.0
454,144.45382885208332,144.6919238520833,60.0,82.0
455,144.6324001020833,144.88686413333332,56.0,75.0
456,145.1681138520833,145.27674469583332,56.0,81.0
457,145.3466851020833,145.59519675833332,56.0,79.0
458,145.3466851020833,145.61900625833331,63.0,78.0
459,144.9895426020833,145.7276371020833,51.0,72.0
460,145.70382760208332,145.8719821958333,56.0,77.0
461,145.70382760208332,145.9062083520833,60.0,78.0
462,144.8109713520833,146.0877557895833,44.0,79.0
463,145.88239885208333,146.13388669583333,51.0,73.0
464,146.0609701020833,146.16067238333332,56.0,81.0
465,146.2395413520833,146.4701958833333,58.0,75.0
466,146.2395413520833,146.5907314770833,63.0,71.0
467,146.2395413520833,146.59370766458332,67.0,78.0
468,146.59668385208332,146.7053146958333,58.0,77.0
469,146.7752551020833,146.9984691645833,58.0,77.0
470,146.7752551020833,147.02971913333332,63.0,79.0
471,147.1323976020833,147.3645402270833,58.0,78.0
472,146.2395413520833,147.5386471958333,51.0,76.0
473,147.4895401020833,147.7157303520833,58.0,75.0
474,147.1323976020833,147.7469803208333,63.0,79.0
475,147.84668260208332,148.12346803958332,58.0,78.0
476,148.02525385208332,148.13983707083332,63.0,73.0
477,147.66811135208332,148.3318011645833,51.0,83.0
478,148.2038251020833,148.39727728958331,58.0,72.0
479,148.2038251020833,148.4017415708333,63.0,74.0
480,148.2038251020833,148.4270391645833,67.0,77.0
481,148.3823963520833,148.62346753958332,51.0,77.0
482,148.5609676020833,148.7216817270833,58.0,80.0
483,148.5609676020833,148.7782292895833,63.0,83.0
484,148.7395388520833,148.8392411333333,51.0,81.0
485,148.91811010208332,149.0877527895833,58.0,83.0
486,149.2752526020833,149.8332877583333,49.0,76.0
487,149.4538238520833,149.9374543208333,54.0,77.0
488,149.6323951020833,150.0222756645833,61.0,79.0
489,149.0966813520833,150.3630491333333,42.0,78.0
490,149.98953760208332,150.42257288333332,49.0,81.0
491,150.16810885208332,150.4553109458333,54.0,79.0
492,150.34668010208333,150.52822753958333,58.0,70.0
493,150.7038226020833,151.1844768833333,51.0,77.0
494,151.06096510208332,151.27971488333333,60.0,79.0
495,150.8823938520833,151.28566725833332,56.0,78.0
496,151.23953635208332,151.4181076020833,51.0,77.0
497,151.4181076020833,151.6175121645833,56.0,79.0
498,151.4181076020833,151.65025022708332,60.0,88.0
499,151.4181076020833,151.6636430708333,63.0,81.0
500,150.5252513520833,151.78566675833332,44.0,78.0
501,151.5966788520833,151.80947625833332,51.0,78.0
502,151.7752501020833,151.8690000083333,56.0,78.0
503,151.9538213520833,152.1859639770833,58.0,78.0
504,151.9538213520833,152.19935682083332,61.0,81.0
505,152.31096385208332,152.42257088333332,58.0,79.0
506,152.48953510208332,152.67554682083332,65.0,83.0
507,152.48953510208332,152.6814991958333,58.0,79.0
508,152.8466776020833,153.0222726645833,58.0,77.0
509,152.8466776020833,153.0282250395833,61.0,79.0
510,152.1323926020833,153.2484629145833,53.0,76.0
511,151.9538213520833,153.29161763333332,46.0,79.0
512,153.2038201020833,153.4329865395833,58.0,81.0
513,153.7395338520833,153.8511408833333,58.0,79.0
514,153.9181051020833,154.1398310708333,58.0,75.0
515,153.9181051020833,154.1398310708333,61.0,79.0
516,153.5609626020833,154.3273308833333,53.0,78.0
517,154.2752476020833,154.4791164458333,65.0,84.0
518,154.2752476020833,154.4820926333333,58.0,80.0
519,153.38239135208332,154.6398305708333,46.0,78.0
520,154.45381885208332,154.6413186645833,53.0,77.0
521,154.63239010208332,154.7573899770833,61.0,78.0
522,154.63239010208332,154.7767351958333,58.0,76.0
523,154.9895326020833,155.1651276645833,60.0,69.0
524,155.1681038520833,155.31393703958332,56.0,71.0
525,155.3466751020833,155.5148296958333,56.0,63.0
526,155.3466751020833,155.6085796020833,63.0,78.0
527,155.8823888520833,155.9686982895833,56.0,75.0
528,154.9895326020833,156.06840057083332,51.0,72.0
529,154.81096135208332,156.0803053208333,44.0,78.0
530,155.8823888520833,156.1338766958333,60.0,77.0
531,156.0609601020833,156.2395313520833,56.0,77.0
532,156.5966738520833,156.6681023520833,56.0,77.0
533,156.77524510208332,156.95084016458333,63.0,78.0
534,156.77524510208332,156.9657211020833,56.0,77.0
535,157.1323876020833,157.3079826645833,56.0,79.0
536,157.1323876020833,157.33923263333332,60.0,79.0
537,156.2395313520833,157.54607766458332,44.0,78.0
538,156.4181026020833,157.54607766458332,51.0,69.0
539,157.4895301020833,157.61750616458332,56.0,77.0
540,158.0252438520833,158.3094697583333,58.0,74.0
541,158.2038151020833,158.4032196645833,63.0,77.0
542,158.3823863520833,158.73655266458331,55.0,77.0
543,158.5609576020833,158.75738597708332,58.0,79.0
544,158.5609576020833,158.8154216333333,67.0,77.0
545,157.84667260208332,158.96423100833331,46.0,62.0
546,157.6681013520833,158.9672071958333,39.0,81.0
547,158.91810010208332,159.23655216458332,58.0,79.0
548,158.91810010208332,159.2678021333333,63.0,81.0
549,159.4538138520833,159.5564923208333,58.0,80.0
550,159.27524260208332,159.7469683208333,46.0,65.0
551,159.6323851020833,159.8347658520833,63.0,84.0
552,159.6323851020833,159.8392301333333,58.0,84.0
553,159.8109563520833,160.03268232083332,46.0,74.0
554,159.09667135208332,160.0624441958333,39.0,80.0
555,159.9895276020833,160.2023250083333,58.0,80.0
556,159.9895276020833,160.4017295708333,63.0,83.0
557,160.3466701020833,160.4969675708333,58.0,79.0
558,160.5252413520833,160.6130388833333,58.0,73.0
559,160.5252413520833,160.6338721958333,42.0,78.0
560,160.7038126020833,160.7901220395833,58.0,73.0
561,160.5252413520833,160.8020267895833,54.0,74.0
562,160.7038126020833,160.8273243833333,42.0,55.0
563,160.8823838520833,160.9582766333333,58.0,73.0
564,160.8823838520833,160.9761337583333,54.0,64.0
565,160.8823838520833,160.98803850833332,42.0,63.0
566,161.0609551020833,161.2097644770833,42.0,74.0
567,161.0609551020833,161.2276216020833,58.0,78.0
568,161.0609551020833,161.2425025395833,54.0,74.0
569,161.59666885208333,161.6770259145833,60.0,76.0
570,161.59666885208333,161.68893066458332,56.0,76.0
571,161.59666885208333,161.69637113333332,44.0,78.0
572,161.7752401020833,161.8600614458333,56.0,75.0
573,161.7752401020833,161.8600614458333,60.0,77.0
574,161.7752401020833,161.8689900083333,44.0,72.0
575,161.9538113520833,162.03565650833332,60.0,78.0
576,161.9538113520833,162.03863269583331,56.0,74.0
577,161.9538113520833,162.0639302895833,44.0,77.0
578,162.1323826020833,162.2990491020833,60.0,81.0
579,162.1323826020833,162.3020252895833,44.0,77.0
580,162.1323826020833,162.30648957083332,56.0,78.0
581,162.4895251020833,163.1413101645833,56.0,73.0
582,162.4895251020833,163.2930957270833,60.0,75.0
583,163.2038101020833,163.3466671020833,56.0,77.0
584,162.4895251020833,163.37940516458332,44.0,78.0
585,162.4895251020833,163.37940516458332,68.0,72.0
586,163.0252388520833,163.3823813520833,51.0,73.0
587,163.73952385208332,163.9478569770833,58.0,71.0
588,163.9180951020833,164.1933924458333,66.0,77.0
589,163.56095260208332,164.33178516458332,46.0,63.0
590,163.3823813520833,164.3511303833333,39.0,83.0
591,164.2752376020833,164.4672016958333,58.0,73.0
592,164.4538088520833,164.7038086020833,63.0,73.0
593,164.63238010208332,164.8035108833333,58.0,74.0
594,165.1680938520833,165.4329745395833,56.0,76.0
595,164.9895226020833,165.5475577583333,51.0,66.0
596,165.3466651020833,165.95231925833332,63.0,78.0
597,164.8109513520833,166.0743429458333,44.0,75.0
598,165.70380760208332,166.13089050833332,51.0,72.0
599,165.88237885208332,166.1695809458333,56.0,75.0
600,166.5966638520833,166.8511278833333,58.0,77.0
601,166.4180926020833,167.0401157895833,53.0,68.0
602,166.77523510208331,167.34219882083332,65.0,78.0
603,166.2395213520833,167.54457957083332,46.0,79.0
604,167.3109488520833,167.54904385208332,58.0,73.0
605,167.1323776020833,167.5847581020833,53.0,73.0
606,167.4895201020833,167.84368641458332,65.0,78.0
607,168.02523385208332,168.2796978833333,58.0,77.0
608,167.6680913520833,168.50588813333331,46.0,78.0
609,167.8466626020833,168.5207690708333,53.0,69.0
610,168.5609476020833,168.98356622708332,44.0,78.0
611,168.20380510208332,169.11749466458332,61.0,77.0
612,168.9180901020833,169.1740422270833,56.0,76.0
613,169.4538038520833,169.8168987270833,54.0,77.0
614,169.6323751020833,170.05350563333332,61.0,78.0
615,169.9895176020833,170.2335649770833,54.0,75.0
616,169.2752326020833,170.3332672583333,49.0,65.0
617,169.09666135208332,170.3585648520833,42.0,79.0
618,170.34666010208332,170.6041003208333,54.0,79.0
619,170.16808885208332,170.7558858833333,61.0,76.0
620,170.8823738520833,171.0520165395833,54.0,75.0
621,170.7038026020833,171.1785045083333,49.0,71.0
622,171.0609451020833,171.6323731020833,61.0,79.0
623,171.5966588520833,171.8154086333333,54.0,79.0
624,171.4180876020833,171.8332657583333,49.0,84.0
625,170.52523135208332,171.8362419458333,42.0,79.0
626,171.7752301020833,171.9924917895833,61.0,78.0
627,172.3109438520833,172.5654078833333,56.0,75.0
628,172.48951510208332,172.8957646958333,63.0,78.0
629,172.8466576020833,173.05350263333332,56.0,84.0
630,172.1323726020833,173.2439786333333,51.0,72.0
631,171.9538013520833,173.2484429145833,44.0,78.0
632,173.2038001020833,173.48951410208332,56.0,80.0
633,173.2038001020833,173.5282045395833,63.0,78.0
634,173.7395138520833,173.8258232895833,56.0,86.0
635,173.56094260208332,173.9910016958333,51.0,77.0
636,173.9180851020833,174.1368348833333,56.0,81.0
637,173.9180851020833,174.1398110708333,60.0,81.0
638,173.9180851020833,174.15171582083332,63.0,79.0
639,174.0966563520833,174.3407037270833,51.0,78.0
640,174.2752276020833,174.4299893520833,63.0,77.0
641,174.2752276020833,174.53415591458332,56.0,78.0
642,174.2752276020833,174.6844533833333,60.0,78.0
643,174.6323701020833,174.79159613333331,56.0,77.0
644,174.4537988520833,174.8645127270833,51.0,78.0
645,173.3823713520833,174.8868341333333,44.0,79.0
646,175.3466551020833,175.7350475708333,58.0,69.0
647,174.81094135208332,176.0222496645833,46.0,73.0
648,175.1680838520833,176.2484399145833,53.0,65.0
649,176.0609401020833,176.2871303520833,58.0,68.0
650,175.7037976020833,176.2960589145833,65.0,74.0
651,176.7752251020833,177.1621294770833,56.0,72.0
652,176.5966538520833,177.3630221333333,53.0,72.0
653,176.2395113520833,177.51778388333332,44.0,76.0
654,177.13236760208332,177.5966528520833,63.0,75.0
655,178.2037951020833,178.5981399458333,54.0,78.0
656,177.6680813520833,178.93147294583332,42.0,78.0
657,178.0252238520833,178.9686752895833,49.0,55.0
658,178.9180801020833,179.1055799145833,54.0,68.0
659,178.5609376020833,179.1502227270833,61.0,74.0
660,179.45379385208332,179.8287934770833,56.0,72.0
661,179.27522260208332,180.0162932895833,51.0,71.0
662,179.9895076020833,180.3689715083333,56.0,77.0
663,179.0966513520833,180.3972452895833,44.0,75.0
664,180.3466501020833,180.4508166645833,51.0,77.0
665,179.63236510208333,180.6814711958333,63.0,75.0
666,181.0609351020833,181.3719466958333,58.0,76.0
667,180.8823638520833,181.64129166458332,53.0,67.0
668,181.41807760208332,181.7990296020833,65.0,81.0
669,180.5252213520833,181.82581528958332,46.0,77.0
670,181.77522010208332,181.9642080083333,58.0,75.0
671,182.3109338520833,182.46271941458332,56.0,73.0
672,182.1323626020833,182.57730263333332,51.0,62.0
673,182.48950510208329,182.8377190395833,63.0,78.0
674,181.9537913520833,182.8719451958333,44.0,77.0
675,182.8466476020833,183.03265932083332,56.0,78.0
676,183.0252188520833,183.23057578958333,51.0,70.0
677,183.2037901020833,183.39277800833332,56.0,72.0
678,183.73950385208332,184.0043845395833,54.0,74.0
679,183.5609326020833,184.14128916458333,49.0,64.0
680,183.91807510208332,184.4865269145833,61.0,77.0
681,183.3823613520833,184.66956244583332,42.0,75.0
682,184.4537888520833,184.6770029145833,54.0,73.0
683,184.2752176020833,184.6874195708333,49.0,72.0
684,184.6323601020833,184.8213480083333,61.0,70.0
685,185.1680738520833,185.4061688520833,56.0,76.0
686,184.9895026020833,185.71718044583332,51.0,69.0
687,185.3466451020833,185.87640647708332,63.0,79.0
688,185.7037876020833,185.9299778520833,56.0,77.0
689,184.8109313520833,186.0341444145833,44.0,77.0
690,185.8823588520833,186.0847396020833,51.0,75.0
691,186.06093010208332,186.1710490395833,56.0,77.0
692,186.7752151020833,186.96866728958332,65.0,86.0
693,186.5966438520833,186.97461966458332,58.0,81.0
694,186.4180726020833,187.22015513333332,53.0,78.0
695,187.1323576020833,187.4106311333333,58.0,81.0
696,186.23950135208332,187.5549762270833,46.0,80.0
697,187.1323576020833,187.5594405083333,61.0,81.0
698,187.4895001020833,187.6769999145833,58.0,78.0
699,188.20378510208332,188.44634438333333,63.0,77.0
700,188.0252138520833,188.4597372270833,56.0,78.0
701,187.8466426020833,188.63682038333332,51.0,78.0
702,188.56092760208332,188.8243201958333,56.0,78.0
703,187.6680713520833,188.9448557895833,44.0,77.0
704,188.56092760208332,189.0073557270833,60.0,77.0
705,188.9180701020833,189.08920088333332,56.0,77.0
706,189.4537838520833,189.5817599145833,54.0,76.0
707,189.6323551020833,189.84366441458332,54.0,77.0
708,189.6323551020833,189.8555691645833,61.0,79.0
709,189.9894976020833,190.23354497708328,54.0,78.0
710,189.0966413520833,190.40765194583332,42.0,77.0
711,189.2752126020833,190.4225328833333,49.0,68.0
712,189.9894976020833,190.5058661333333,58.0,77.0
713,190.3466401020833,190.51925897708333,54.0,78.0
714,190.8823538520833,190.9835442270833,56.0,79.0
715,191.0609251020833,191.2588415708333,63.0,78.0
716,191.0609251020833,191.2752106020833,56.0,78.0
717,190.70378260208332,191.52223416458332,51.0,75.0
718,191.4180676020833,191.5817579145833,56.0,76.0
719,191.4180676020833,191.6308650083333,60.0,78.0
720,190.52521135208332,191.8272933833333,44.0,76.0
721,191.5966388520833,191.84366241458332,51.0,73.0
722,191.7752101020833,191.9627099145833,56.0,78.0
723,192.3109238520833,192.4403880083333,58.0,79.0
724,192.4894951020833,192.8734232895833,65.0,81.0
725,192.84663760208332,193.0683635708333,58.0,78.0
726,191.9537813520833,193.2424705395833,46.0,78.0
727,192.1323526020833,193.2737205083333,53.0,70.0
728,193.02520885208332,193.2737205083333,65.0,73.0
729,193.2037801020833,193.39127991458332,58.0,77.0
730,193.73949385208329,193.96121982083332,56.0,79.0
731,193.5609226020833,194.3034813833333,51.0,72.0
732,193.9180651020833,194.3704456020833,63.0,78.0
733,194.2752076020833,194.4761002583333,56.0,82.0
734,193.3823513520833,194.6799691020833,44.0,77.0
735,194.4537788520833,194.7082428833333,51.0,78.0
736,194.6323501020833,194.8287784770833,56.0,79.0
737,195.16806385208332,195.3168732270833,54.0,78.0
738,195.34663510208333,195.5013968520833,54.0,71.0
739,195.34663510208333,195.76776563333328,61.0,78.0
740,194.98949260208332,195.85705125833329,49.0,70.0
741,195.7037776020833,195.96717019583332,54.0,91.0
742,194.8109213520833,196.1100271958333,42.0,77.0
743,196.0609201020833,196.2290746958333,54.0,82.0
744,196.0609201020833,196.3124079458333,61.0,73.0
745,196.5966338520833,196.7127051645833,54.0,81.0
746,196.4180626020833,196.8719311958333,49.0,73.0
747,196.7752051020833,197.0073477270833,54.0,78.0
748,196.7752051020833,197.04008578958332,61.0,78.0
749,196.9537763520833,197.1606213833333,49.0,78.0
750,197.1323476020833,197.3347283520833,54.0,82.0
751,197.1323476020833,197.3659783208333,61.0,79.0
752,196.2394913520833,197.5058591333333,42.0,79.0
753,197.48949010208332,197.5207400708333,61.0,60.0
754,197.31091885208332,197.5326448208333,49.0,77.0
755,197.48949010208332,197.6472280395833,54.0,83.0
756,198.0252038520833,198.2335369770833,58.0,71.0
757,198.20377510208328,198.4790724458333,66.0,77.0
758,197.8466326020833,198.6174651645833,46.0,63.0
759,197.6680613520833,198.63681038333328,39.0,83.0
760,198.5609176020833,198.7528816958333,58.0,73.0
761,198.7394888520833,198.9894886020833,63.0,73.0
762,198.9180601020833,199.0891908833333,58.0,74.0
763,199.45377385208332,199.7186545395833,56.0,76.0
764,199.2752026020833,199.8332377583333,51.0,66.0
765,199.63234510208332,200.2379992583333,63.0,78.0
766,199.0966313520833,200.3600229458333,44.0,75.0
767,199.9894876020833,200.4165705083333,51.0,72.0
768,200.1680588520833,200.4552609458333,56.0,75.0
769,200.8823438520833,201.1368078833333,58.0,77.0
770,200.7037726020833,201.3257957895833,53.0,68.0
771,201.0609151020833,201.6278788208333,65.0,78.0
772,200.5252013520833,201.8302595708333,46.0,79.0
773,201.5966288520833,201.8347238520833,58.0,73.0
774,201.4180576020833,201.8704381020833,53.0,73.0
775,201.77520010208332,202.1293664145833,65.0,78.0
776,202.3109138520833,202.5653778833333,58.0,77.0
777,201.95377135208332,202.7915681333333,46.0,78.0
778,202.1323426020833,202.8064490708333,53.0,69.0
779,202.8466276020833,203.2692462270833,44.0,78.0
780,202.4894851020833,203.4031746645833,61.0,77.0
781,203.2037701020833,203.45972222708332,56.0,76.0
782,203.5609126020833,204.1725191333333,49.0,64.0
783,203.7394838520833,204.2246024145833,54.0,76.0
784,203.91805510208331,204.6129948833333,61.0,77.0
785,203.3823413520833,204.6516853208333,42.0,77.0
786,204.27519760208332,204.6993043208333,49.0,77.0
787,204.6323401020833,204.8882922270833,60.0,78.0
788,204.6323401020833,204.90019697708328,56.0,66.0
789,204.6323401020833,204.9716254770833,44.0,78.0
790,206.41805260208332,207.0296591333333,53.0,73.0
791,206.5966238520833,207.1888851645833,58.0,74.0
792,206.7751951020833,207.3823373520833,65.0,78.0
793,207.3109088520833,207.5311467270833,58.0,71.0
794,206.23948135208332,207.5415633833333,46.0,79.0
795,207.13233760208328,207.55495622708332,53.0,72.0
796,207.4894801020833,207.5966228520833,65.0,78.0
797,207.6680513520833,207.9269796645833,61.0,67.0
798,207.6680513520833,207.9597177270833,58.0,69.0
799,207.6680513520833,208.1487056333333,46.0,78.0
800,209.1084757583333,210.43946537499997,42.0,77.0
801,209.4752237583333,210.46391524166663,49.0,60.0
802,209.65859775833331,210.58310834166664,54.0,68.0
803,211.12558975833332,211.9354201520833,61.0,64.0
804,210.9422157583333,211.94310772499998,56.0,64.0
805,210.5754677583333,211.9538703270833,49.0,72.0
806,212.41358718749999,213.4391094145833,51.0,60.0
807,212.04458368749997,213.45140953124996,44.0,62.0
808,212.59808893749997,213.62053613541664,56.0,71.0
809,213.5205976875,214.93696096875,44.0,75.0
810,214.25923223541665,214.9679783020833,58.0,69.0
811,215.00367714166663,216.36301612499994,42.0,77.0
812,215.37634764166663,216.38826862499994,49.0,60.0
813,215.56291102499995,216.51137456249995,54.0,68.0
814,217.07831049374994,217.94651500624997,61.0,64.0
815,216.88550849374994,217.9531639395833,56.0,64.0
816,216.50348315624996,217.96479957291663,49.0,72.0
817,218.46745743749997,219.59262390624997,51.0,60.0
818,218.0628713395833,219.60611915624997,44.0,62.0
819,218.66988618749997,219.79167884374996,56.0,71.0
820,219.68202993749995,221.22892296874997,44.0,75.0
821,219.68202993749995,221.29808612499997,51.0,69.0
