,start,end,pitch,velocity
0,28.300962314583337,28.651290958333337,63.0,82.0
1,28.695698814583338,29.106882668750004,61.0,82.0
2,29.09043531458334,29.475303402083338,63.0,82.0
3,29.48517181458334,29.896355668750004,65.0,81.0
4,29.87990831458334,30.305894787500005,66.0,84.0
5,30.274644814583336,30.779578587500005,68.0,74.0
6,30.669381314583337,31.034512577083337,70.0,73.0
7,31.064117814583337,31.414446458333337,66.0,81.0
8,31.458854314583338,31.74010407083334,68.0,81.0
9,31.853590814583338,32.16280107291667,68.0,76.0
10,32.248327314583335,32.585498075000004,68.0,81.0
11,32.643063814583336,32.78286632500001,66.0,81.0
12,32.84043206458334,33.90457587916667,68.0,76.0
13,35.208851064583335,35.34536410416667,70.0,77.0
14,35.40621931458334,35.58385073958334,70.0,82.0
15,35.603587564583336,35.86016628958334,73.0,81.0
16,35.998324064583336,36.66279717291667,73.0,82.0
17,36.78779706458334,36.886481189583336,70.0,80.0
18,36.98516531458334,37.13648097291667,70.0,83.0
19,37.18253356458334,37.50161223541667,73.0,81.0
20,37.57727006458334,38.592071816666675,63.0,83.0
21,40.93253031458334,41.28285895833334,63.0,82.0
22,41.32726681458334,41.738450668750005,61.0,82.0
23,41.72200331458334,42.10687140208334,63.0,82.0
24,42.11673981458334,42.527923668750006,65.0,81.0
25,42.51147631458334,42.9374627875,66.0,84.0
26,42.90621281458334,43.411146587500006,68.0,74.0
27,43.30094931458334,43.66608057708334,70.0,73.0
28,43.69568581458334,44.04601445833334,66.0,81.0
29,44.09042231458334,44.37167207083334,68.0,81.0
30,44.48515881458334,44.79436907291667,68.0,76.0
31,44.87989531458334,45.217066075000005,68.0,81.0
32,45.27463181458334,45.41443432500001,70.0,81.0
33,45.47200006458334,46.53614387916667,68.0,76.0
34,47.840419064583344,47.97693210416667,70.0,77.0
35,48.03778731458334,48.21541873958334,70.0,82.0
36,48.23515556458334,48.49173428958334,73.0,81.0
37,48.62989206458334,49.29436517291668,73.0,82.0
38,49.41936506458334,49.518049189583344,70.0,80.0
39,49.61673331458334,49.768048972916674,70.0,83.0
40,49.81410156458334,50.133180235416674,73.0,81.0
41,50.20883806458334,51.223639816666676,63.0,83.0
42,53.56409831458334,54.35521605000001,66.0,82.0
43,54.35357131458334,55.133175902083345,70.0,81.0
44,55.14304431458334,56.014754085416676,68.0,81.0
45,55.93251731458334,56.73350346250001,73.0,81.0
46,56.721990314583344,58.13481803750001,70.0,77.0
47,59.87988231458334,60.54271068750001,75.0,83.0
48,60.66935531458334,61.39632836875001,73.0,77.0
49,61.45882831458334,62.28284075833334,70.0,82.0
50,62.248301314583344,63.075603229166674,73.0,82.0
51,63.037774314583345,65.47362746666667,75.0,82.0
52,66.19566631458335,66.56079757708335,70.0,83.0
53,66.59040281458334,66.8979683375,68.0,81.0
54,66.98513931458335,67.30750745625001,68.0,83.0
55,67.37987581458334,67.70717816250001,70.0,83.0
56,67.77461231458334,68.05750680625,73.0,69.0
57,68.16934881458334,68.47198013125,73.0,83.0
58,68.56408531458334,68.89961133958334,75.0,87.0
59,68.95882181458335,69.29270310416668,73.0,87.0
60,69.35355831458334,69.63974227708334,66.0,80.0
61,69.74829481458335,70.05257086666667,66.0,83.0
62,70.14303131458334,70.43908368958334,68.0,84.0
63,70.53776781458335,70.82230704166668,73.0,74.0
64,70.93250431458334,71.76145096458335,70.0,76.0
65,72.51145031458334,72.85026581041667,75.0,87.0
66,72.90618681458335,73.27625228333335,73.0,85.0
67,73.30092331458334,73.66934404791668,75.0,87.0
68,73.69565981458335,74.04434372291668,78.0,83.0
69,74.09039631458334,74.46704072500002,75.0,92.0
70,74.48513281458334,74.90618508125002,73.0,82.0
71,74.87986931458335,75.28118475625001,70.0,82.0
72,75.27460581458334,75.68250019791668,68.0,80.0
73,75.66934231458335,78.12657702708334,70.0,83.0
74,78.82723431458335,79.19236557708335,70.0,83.0
75,79.22197081458334,79.5295363375,68.0,81.0
76,79.61670731458335,79.93907545625001,68.0,83.0
77,80.01144381458334,80.33874616250002,70.0,83.0
78,80.40618031458335,80.68907480625,73.0,69.0
79,80.80091681458335,81.10354813125001,73.0,83.0
80,81.19565331458334,81.53117933958335,75.0,87.0
81,81.59038981458335,81.92427110416668,73.0,87.0
82,81.98512631458334,82.27953395416668,78.0,81.0
83,82.37986281458335,82.72196778125002,77.0,83.0
84,82.77459931458334,83.19894105208334,75.0,82.0
85,83.16933581458335,83.48512501458335,77.0,82.0
86,83.56407231458334,83.90782201666669,75.0,82.0
87,83.95880881458335,84.32887428333335,73.0,83.0
88,84.35354531458334,84.98183424375001,70.0,82.0
89,85.14301831458334,85.48183381041667,78.0,87.0
90,85.53775481458335,85.90782028333335,77.0,85.0
91,85.93249131458334,86.30091204791668,75.0,87.0
92,86.32722781458335,86.67591172291668,77.0,83.0
93,86.72196431458335,87.09860872500002,75.0,92.0
94,87.11670081458335,87.53775308125002,73.0,82.0
95,87.51143731458335,87.91275275625001,70.0,82.0
96,87.90617381458334,88.31406819791668,68.0,80.0
97,88.30091031458335,90.75814502708334,66.0,83.0
98,104.04926963958334,104.39932870000001,63.0,82.0
99,104.44373655625,104.85492041041668,61.0,82.0
100,104.83847305625001,105.22334114375,63.0,82.0
101,105.23320955625,105.64439341041667,65.0,81.0
102,105.62794605625001,106.05393252916667,66.0,84.0
103,106.02268255625,106.52761632916668,68.0,74.0
104,106.41741905625001,106.78255031875001,70.0,73.0
105,106.81215555625,107.16248420000001,66.0,81.0
106,107.20689205625001,107.4881418125,68.0,81.0
107,107.60162855625,107.91083881458334,68.0,76.0
108,107.99636505625001,108.33353581666668,68.0,81.0
109,108.39110155625,108.53090406666668,66.0,81.0
110,108.58846980625,109.65261362083334,68.0,76.0
111,110.95688880625,111.09340184583334,73.0,77.0
112,111.15425705625,111.33188848125,73.0,82.0
113,111.35162530625001,111.60820403125001,70.0,81.0
114,111.74636180625001,112.41083491458335,73.0,82.0
115,112.53583480625001,112.63451893125001,70.0,80.0
116,112.73320305625,112.88451871458335,70.0,83.0
117,112.93057130625002,113.24964997708335,73.0,81.0
118,113.32530780625001,114.34010955833334,63.0,83.0
119,116.68056805625001,117.03089670000001,63.0,82.0
120,117.07530455625002,117.48648841041668,61.0,82.0
121,117.47004105625001,117.85490914375,63.0,82.0
122,117.86477755625,118.27596141041667,65.0,81.0
123,118.25951405625001,118.68550052916667,66.0,84.0
124,118.65425055625,119.15918432916668,68.0,74.0
125,119.04898705625001,119.41411831875001,70.0,73.0
126,119.44372355625,119.79405220000001,66.0,81.0
127,119.83846005625001,120.1197098125,68.0,81.0
128,120.23319655625001,120.54240681458334,68.0,76.0
129,120.62793305625001,120.96510381666667,68.0,81.0
130,121.02266955625001,121.16247206666668,70.0,81.0
131,121.22003780625002,122.28418162083335,68.0,76.0
132,123.58845680625001,123.72496984583334,70.0,77.0
133,123.78582505625002,123.96345648125,70.0,82.0
134,123.98319330625002,124.23977203125001,73.0,81.0
135,124.37792980625001,125.04240291458335,73.0,82.0
136,125.16740280625001,125.26608693125002,70.0,80.0
137,125.36477105625,125.51608671458334,70.0,83.0
138,125.56213930625,125.88121797708334,73.0,81.0
139,125.95687580625001,126.97167755833334,63.0,83.0
140,129.31213605625,130.10325379166667,66.0,82.0
141,130.10160905625003,130.88121364375002,70.0,81.0
142,130.89108205625,131.76279182708333,68.0,81.0
143,131.68055505625,132.4815412041667,73.0,81.0
144,132.47002805625002,133.88285577916668,70.0,77.0
145,135.62792005625002,136.29074842916668,75.0,83.0
146,136.41739305625,137.14436611041668,73.0,77.0
147,137.20686605625002,138.03087850000003,70.0,82.0
148,137.99633905625,138.82364097083334,73.0,82.0
149,138.78581205625002,141.22166520833335,75.0,82.0
150,141.94370405625,142.30883531875003,70.0,83.0
151,142.33844055625002,142.64600607916668,68.0,81.0
152,142.73317705625,143.05554519791667,68.0,83.0
153,143.12791355625,143.45521590416666,70.0,83.0
154,143.52265005625003,143.80554454791667,73.0,69.0
155,143.91738655625002,144.22001787291669,73.0,83.0
156,144.31212305625002,144.64764908125002,75.0,87.0
157,144.70685955625,145.04074084583334,73.0,87.0
158,145.10159605625,145.38778001875002,66.0,80.0
159,145.49633255625002,145.80060860833333,66.0,83.0
160,145.89106905625002,146.18712143125,68.0,84.0
161,146.28580555625,146.57034478333335,73.0,74.0
162,146.68054205625,147.50948870625,70.0,76.0
163,148.25948805625,148.59830355208334,75.0,87.0
164,148.65422455625003,149.02429002500003,73.0,85.0
165,149.04896105625002,149.41738178958335,75.0,87.0
166,149.44369755625002,149.79238146458334,78.0,83.0
167,149.83843405625,150.21507846666668,75.0,92.0
168,150.23317055625,150.65422282291667,73.0,82.0
169,150.62790705625002,151.0292224979167,70.0,82.0
170,151.02264355625002,151.43053793958336,68.0,80.0
171,151.41738005625,153.87461476875,70.0,83.0
172,154.57527205625001,154.94040331875001,70.0,83.0
173,154.97000855625,155.2775740791667,68.0,81.0
174,155.36474505625,155.6871131979167,68.0,83.0
175,155.75948155625002,156.08678390416668,70.0,83.0
176,156.15421805625002,156.43711254791668,73.0,69.0
177,156.54895455625,156.8515858729167,73.0,83.0
178,156.94369105625003,157.27921708125,75.0,87.0
179,157.33842755625002,157.67230884583336,73.0,87.0
180,157.73316405625002,158.02757169583336,78.0,81.0
181,158.12790055625,158.4700055229167,77.0,83.0
182,158.52263705625,158.94697879375002,75.0,82.0
183,158.91737355625003,159.23316275625,77.0,82.0
184,159.31211005625002,159.65585975833335,75.0,82.0
185,159.70684655625,160.076912025,73.0,83.0
186,160.10158305625,160.72987198541668,70.0,82.0
187,160.89105605625002,161.22987155208335,78.0,87.0
188,161.28579255625002,161.65585802500001,77.0,85.0
189,161.68052905625,162.04894978958336,75.0,87.0
190,162.07526555625003,162.42394946458336,77.0,83.0
191,162.47000205625002,162.8466464666667,75.0,92.0
192,162.86473855625002,163.28579082291668,73.0,82.0
193,163.25947505625,163.66079049791668,70.0,82.0
194,163.65421155625,164.06210593958335,68.0,80.0
195,164.04894805625003,166.50618276875002,66.0,83.0
196,167.20684005625003,167.57197131875,70.0,83.0
197,167.60157655625002,167.90914207916668,68.0,81.0
198,167.99631305625002,168.3186811979167,68.0,83.0
199,168.39104955625004,168.7183519041667,70.0,83.0
200,168.78578605625,169.0686805479167,73.0,69.0
201,169.18052255625003,169.4831538729167,73.0,83.0
202,169.57525905625002,169.91078508125003,75.0,87.0
203,169.96999555625,170.30387684583337,73.0,87.0
204,170.36473205625003,170.65091601875002,66.0,80.0
205,170.75946855625,171.06374460833337,66.0,83.0
206,171.15420505625002,171.45025743125,68.0,84.0
207,171.54894155625,171.83348078333336,73.0,74.0
208,171.94367805625,172.77262470625,70.0,76.0
209,173.52262405625004,173.86143955208337,75.0,87.0
210,173.91736055625,174.287426025,73.0,85.0
211,174.31209705625002,174.68051778958335,75.0,87.0
212,174.70683355625002,175.05551746458335,78.0,83.0
213,175.10157005625,175.47821446666669,75.0,92.0
214,175.49630655625003,175.9173588229167,73.0,82.0
215,175.89104305625,176.29235849791667,70.0,82.0
216,176.28577955625002,176.69367393958333,73.0,80.0
217,176.71834497083336,176.88117377708335,73.0,78.0
218,176.9222921625,179.13775076875004,70.0,83.0
219,179.83840805625002,180.20353931875002,70.0,83.0
220,180.23314455625,180.54071007916667,68.0,81.0
221,180.62788105625003,180.9502491979167,68.0,83.0
222,181.02261755625003,181.34991990416668,70.0,83.0
223,181.41735405625002,181.7002485479167,73.0,69.0
224,181.81209055625004,182.11472187291668,73.0,83.0
225,182.20682705625,182.54235308125,75.0,87.0
226,182.60156355625003,182.93544484583336,73.0,87.0
227,182.99630005625002,183.29070769583336,78.0,81.0
228,183.39103655625001,183.7331415229167,77.0,83.0
229,183.78577305625004,184.21011479375002,75.0,82.0
230,184.18050955625,184.49629875625004,77.0,82.0
231,184.57524605625002,184.91899575833335,75.0,82.0
232,184.96998255625002,185.34004802500002,73.0,83.0
233,185.36471905625,185.99300798541668,70.0,82.0
234,186.15419205625003,186.49300755208336,78.0,87.0
235,186.54892855625002,186.91899402500002,77.0,85.0
236,186.94366505625004,187.31208578958336,75.0,87.0
237,187.33840155625,187.68708546458333,77.0,83.0
238,187.73313805625003,188.10978246666667,75.0,92.0
239,188.12787455625002,188.54892682291668,73.0,82.0
240,188.52261105625,188.92392649791668,70.0,82.0
241,188.91734755625004,189.32524193958335,68.0,80.0
242,189.31208405625,191.76931876875003,66.0,83.0
243,217.73311205625004,218.09824331875,70.0,83.0
244,218.12784855625003,218.4354140791667,68.0,81.0
245,218.52258505625002,218.8449531979167,68.0,83.0
246,218.91732155625004,219.2446239041667,70.0,83.0
247,219.31205805625,219.5949525479167,73.0,69.0
248,219.70679455625003,220.0094258729167,73.0,83.0
249,220.10153105625002,220.43705708125003,75.0,87.0
250,220.49626755625002,220.83014884583338,73.0,87.0
251,220.89100405625004,221.17718801875003,66.0,80.0
252,221.28574055625,221.59001660833337,66.0,83.0
253,221.68047705625003,221.97652943125001,68.0,84.0
254,222.07521355625002,222.35975278333336,73.0,74.0
255,222.46995005625,223.29889670625002,70.0,76.0
256,224.04889605625004,224.38771155208337,75.0,87.0
257,224.44363255625,224.813698025,73.0,85.0
258,224.83836905625003,225.20678978958335,75.0,87.0
259,225.23310555625002,225.58178946458338,78.0,83.0
260,225.62784205625002,226.0044864666667,75.0,92.0
261,226.02257855625004,226.4436308229167,73.0,82.0
262,226.41731505625003,226.8186304979167,70.0,82.0
263,226.81205155625003,227.21994593958334,68.0,80.0
264,227.20678805625005,229.66402276875004,70.0,83.0
265,230.36468005625002,230.72981131875002,70.0,83.0
266,230.75941655625002,231.06698207916668,68.0,81.0
267,231.15415305625004,231.4765211979167,68.0,83.0
268,231.54888955625003,231.8761919041667,70.0,83.0
269,231.94362605625003,232.2265205479167,73.0,69.0
270,232.33836255625002,232.64099387291668,73.0,83.0
271,232.73309905625004,233.06862508125002,75.0,87.0
272,233.12783555625003,233.46171684583337,73.0,87.0
273,233.52257205625003,233.81697969583337,78.0,81.0
274,233.91730855625002,234.2594135229167,77.0,83.0
275,234.31204505625,234.73638679375003,75.0,82.0
276,234.70678155625004,235.02257075625002,77.0,82.0
277,235.10151805625003,235.44526775833336,75.0,82.0
278,235.49625455625002,235.86632002500002,73.0,83.0
279,235.89099105625002,236.5192799854167,70.0,82.0
280,236.68046405625003,237.01927955208336,78.0,87.0
281,237.07520055625002,237.44526602500002,77.0,85.0
282,237.46993705625002,237.83835778958337,75.0,87.0
283,237.86467355625004,238.21335746458337,77.0,83.0
284,238.25941005625003,238.6360544666667,75.0,92.0
285,238.65414655625003,239.0751988229167,73.0,82.0
286,239.04888305625002,239.4501984979167,70.0,82.0
287,239.44361955625004,239.85151393958336,68.0,80.0
288,239.83835605625003,242.29559076875003,66.0,83.0
289,242.99624805625004,243.36137931875004,70.0,83.0
290,243.39098455625003,243.6985500791667,68.0,81.0
291,243.78572105625003,244.10808919791668,68.0,83.0
292,244.18045755625002,244.5077599041667,70.0,83.0
293,244.57519405625004,244.8580885479167,73.0,69.0
294,244.96993055625003,245.2725618729167,73.0,83.0
295,245.36466705625003,245.70019308125003,75.0,87.0
296,245.75940355625002,246.09328484583335,73.0,87.0
297,246.15414005625004,246.44032401875003,66.0,80.0
298,246.54887655625004,246.85315260833337,66.0,83.0
299,246.94361305625003,247.23966543125002,68.0,84.0
300,247.33834955625002,247.62288878333337,73.0,74.0
301,247.73308605625002,248.56203270625002,70.0,76.0
302,249.31203205625002,249.65084755208338,75.0,87.0
303,249.70676855625004,250.07683402500004,73.0,85.0
304,250.10150505625003,250.46992578958336,75.0,87.0
305,250.49624155625003,250.84492546458335,78.0,83.0
306,250.89097805625002,251.2676224666667,75.0,92.0
307,251.28571455625004,251.7067668229167,73.0,82.0
308,251.68045105625004,252.0817664979167,70.0,82.0
309,252.07518755625003,252.48308193958337,68.0,80.0
310,252.46992405625002,254.92715876875002,70.0,83.0
311,255.62781605625003,255.99294731875003,70.0,83.0
312,256.02255255625005,256.3301180791667,68.0,81.0
313,256.41728905625007,256.7396571979167,68.0,83.0
314,256.81202555625003,257.1393279041667,70.0,83.0
315,257.20676205625,257.4896565479167,73.0,69.0
316,257.60149855625,257.9041298729167,73.0,83.0
317,257.99623505625004,258.33176108125,75.0,87.0
318,258.39097155625007,258.72485284583337,73.0,87.0
319,258.78570805625003,259.08011569583334,78.0,81.0
320,259.18044455625,259.52254952291673,77.0,83.0
321,259.57518105625,259.99952279375003,75.0,82.0
322,259.96991755625004,260.28570675625,77.0,82.0
323,260.36465405625006,260.70840375833336,75.0,82.0
324,260.75939055625,261.129456025,73.0,83.0
325,261.15412705625,261.7824159854167,70.0,82.0
326,261.94360005625003,262.28241555208336,78.0,87.0
327,262.33833655625006,262.70840202500005,77.0,85.0
328,262.73307305625,263.1014937895834,75.0,87.0
329,263.12780955625004,263.47649346458337,77.0,83.0
330,263.52254605625,263.8991904666667,75.0,92.0
331,263.91728255625003,264.3383348229167,73.0,82.0
332,264.31201905625005,264.71333449791666,70.0,82.0
333,264.7067555562501,265.1146499395834,68.0,80.0
334,265.10149205625004,267.55872676875003,66.0,83.0
