,start,end,pitch,velocity
0,3.037826314583334,3.455589110416667,63.0,77.0
1,3.037826314583334,3.4736812000000006,58.0,75.0
2,3.827299314583334,4.052628066666667,66.0,79.0
3,3.827299314583334,4.276312083333334,58.0,82.0
4,3.037826314583334,4.300983114583334,51.0,81.0
5,4.222035814583334,4.429272477083334,63.0,77.0
6,4.419404064583334,4.675982789583334,66.0,78.0
7,4.616772314583334,5.070719289583334,63.0,77.0
8,5.011508814583334,5.154600795833334,58.0,65.0
9,5.406245314583334,5.5444030895833345,58.0,82.0
10,4.616772314583334,5.697363483333334,51.0,75.0
11,5.406245314583334,5.771376577083334,66.0,82.0
12,5.406245314583334,5.827297581250001,63.0,83.0
13,5.800981814583334,6.018086889583334,58.0,75.0
14,6.195718314583334,6.411178654166668,56.0,75.0
15,6.195718314583334,6.809204625000001,65.0,80.0
16,6.590454814583334,6.835520391666668,56.0,73.0
17,6.985191314583334,7.166112210416668,56.0,81.0
18,6.985191314583334,7.378283079166668,61.0,82.0
19,6.195718314583334,7.652953893750001,49.0,82.0
20,7.577296064583335,7.832230054166668,61.0,75.0
21,7.3799278145833345,7.845387937500001,56.0,76.0
22,7.774664314583334,8.534532077083334,65.0,82.0
23,7.774664314583334,8.598676758333335,49.0,81.0
24,8.169400814583335,8.634860937500001,56.0,73.0
25,8.564137314583334,9.001636935416668,61.0,82.0
26,8.958873814583335,9.402952377083334,56.0,72.0
27,9.353610314583335,9.786175729166668,63.0,76.0
28,9.748346814583336,9.978609772916668,54.0,63.0
29,10.143083314583334,10.460517250000002,59.0,79.0
30,10.143083314583334,10.495056693750001,63.0,82.0
31,9.353610314583335,10.557556639583336,47.0,82.0
32,10.537819814583335,10.819069570833335,54.0,64.0
33,10.932556314583335,11.1611745375,56.0,82.0
34,10.932556314583335,11.409529585416669,61.0,77.0
35,11.327292814583336,11.666108310416668,56.0,81.0
36,10.932556314583335,11.870055502083336,49.0,74.0
37,11.722029314583335,12.031239572916668,65.0,82.0
38,11.722029314583335,12.152949993750001,61.0,82.0
39,12.116765814583335,12.36183139166667,56.0,79.0
40,12.511502314583336,13.080580768750002,63.0,75.0
41,12.906238814583336,13.253277987500002,58.0,68.0
42,13.300975314583335,13.708869697916668,63.0,81.0
43,13.300975314583335,13.855251150000003,66.0,79.0
44,12.511502314583336,13.949001068750002,51.0,76.0
45,13.695711814583335,13.990119454166669,58.0,74.0
46,13.893080064583335,14.305908654166668,63.0,76.0
47,14.287816564583336,14.583868939583336,58.0,76.0
48,14.485184814583336,14.799329279166669,63.0,73.0
49,14.090448314583336,15.134855304166669,51.0,85.0
50,14.879921314583335,15.30755252291667,58.0,77.0
51,14.879921314583335,15.523012862500002,66.0,81.0
52,14.879921314583335,15.554262835416669,63.0,78.0
53,15.472026064583336,15.651302225000002,58.0,76.0
54,15.274657814583335,15.669394314583336,51.0,77.0
55,15.669394314583336,16.08715711041667,63.0,77.0
56,15.669394314583336,16.105249200000003,58.0,75.0
57,16.458867314583337,16.68419606666667,66.0,79.0
58,16.458867314583337,16.907880083333335,58.0,82.0
59,15.669394314583336,16.932551114583337,51.0,81.0
60,16.853603814583337,17.060840477083335,63.0,77.0
61,17.050972064583338,17.307550789583335,66.0,78.0
62,17.248340314583334,17.702287289583335,63.0,77.0
63,17.643076814583335,17.786168795833337,58.0,65.0
64,18.037813314583335,18.175971089583335,58.0,82.0
65,17.248340314583334,18.328931483333335,51.0,75.0
66,18.037813314583335,18.402944577083336,66.0,82.0
67,18.037813314583335,18.458865581250002,63.0,83.0
68,18.432549814583336,18.649654889583335,58.0,75.0
69,18.827286314583336,19.04274665416667,56.0,75.0
70,18.827286314583336,19.440772625000005,65.0,80.0
71,19.222022814583337,19.46708839166667,56.0,73.0
72,19.616759314583337,19.79768021041667,56.0,81.0
73,19.616759314583337,20.00985107916667,61.0,82.0
74,18.827286314583336,20.284521893750004,49.0,82.0
75,20.208864064583338,20.46379805416667,61.0,75.0
76,20.011495814583338,20.4769559375,56.0,76.0
77,20.406232314583335,21.166100077083335,65.0,82.0
78,20.406232314583335,21.23024475833334,49.0,81.0
79,20.800968814583335,21.266428937500002,56.0,73.0
80,21.195705314583336,21.63320493541667,61.0,82.0
81,21.590441814583336,22.034520377083336,56.0,72.0
82,21.985178314583337,22.41774372916667,63.0,76.0
83,22.379914814583337,22.61017777291667,54.0,63.0
84,22.774651314583338,23.092085250000004,59.0,79.0
85,22.774651314583338,23.126624693750003,63.0,82.0
86,21.985178314583337,23.189124639583337,47.0,82.0
87,23.169387814583338,23.450637570833337,54.0,64.0
88,23.56412431458334,23.792742537500004,56.0,82.0
89,23.56412431458334,24.04109758541667,61.0,77.0
90,23.958860814583335,24.29767631041667,56.0,81.0
91,23.56412431458334,24.501623502083337,49.0,74.0
92,24.353597314583336,24.66280757291667,65.0,82.0
93,24.353597314583336,24.784517993750004,61.0,82.0
94,24.748333814583336,24.99339939166667,56.0,79.0
95,25.143070314583337,25.712148768750005,63.0,75.0
96,25.537806814583337,25.884845987500004,58.0,68.0
97,25.932543314583338,26.34043769791667,63.0,81.0
98,25.932543314583338,26.486819150000002,66.0,79.0
99,25.143070314583337,26.580569068750005,51.0,76.0
100,26.32727981458334,26.621687454166672,58.0,74.0
101,26.52464806458334,26.93747665416667,63.0,76.0
102,26.91938456458334,27.215436939583338,58.0,76.0
103,27.116752814583336,27.430897279166672,63.0,73.0
104,26.72201631458334,27.766423304166672,51.0,85.0
105,27.511489314583336,27.93912052291667,58.0,77.0
106,27.511489314583336,28.154580862500005,66.0,81.0
107,27.511489314583336,28.18583083541667,63.0,78.0
108,28.103594064583337,28.282870225000003,58.0,76.0
109,27.906225814583337,28.300962314583337,51.0,77.0
110,28.300962314583337,28.72365931666667,63.0,73.0
111,28.300962314583337,28.73352772916667,58.0,70.0
112,28.300962314583337,29.228593089583338,51.0,75.0
113,29.09043531458334,29.475303402083338,58.0,77.0
114,29.09043531458334,29.49997443333334,66.0,82.0
115,29.68254006458334,29.90786881666667,58.0,79.0
116,29.68254006458334,29.934184583333337,63.0,81.0
117,30.07727656458334,30.36839473333334,58.0,78.0
118,30.274644814583336,30.468723593750006,63.0,73.0
119,29.87990831458334,30.787802264583338,51.0,69.0
120,30.669381314583337,30.851946945833337,58.0,80.0
121,30.669381314583337,31.105236200000004,66.0,81.0
122,31.064117814583337,31.208854531250005,58.0,77.0
123,31.458854314583338,31.631551533333337,56.0,76.0
124,31.458854314583338,31.86181449166667,61.0,75.0
125,31.853590814583338,31.978590706250007,56.0,66.0
126,31.458854314583338,32.12990636458334,49.0,77.0
127,32.248327314583335,32.57069545625001,56.0,78.0
128,32.248327314583335,32.58878754583334,65.0,81.0
129,32.643063814583336,32.83549785833334,49.0,67.0
130,32.84043206458334,33.07562922916667,56.0,82.0
131,32.84043206458334,33.14141864583334,61.0,85.0
132,33.23516856458334,33.463786787500005,56.0,81.0
133,33.43253681458334,33.677602391666674,61.0,75.0
134,33.037800314583336,33.99010212083334,49.0,77.0
135,33.82727331458334,34.072338891666675,56.0,81.0
136,33.82727331458334,34.24832558125001,65.0,84.0
137,34.22200981458334,34.37332547291667,56.0,78.0
138,34.61674631458334,34.86181189166667,54.0,75.0
139,34.61674631458334,35.00983807916667,59.0,70.0
140,35.01148281458334,35.16773267916667,54.0,63.0
141,34.61674631458334,35.52135079375,47.0,79.0
142,35.40621931458334,35.55260076666667,54.0,82.0
143,35.40621931458334,35.76641637083334,59.0,87.0
144,35.40621931458334,35.968718827083336,63.0,82.0
145,35.80095581458334,36.060824010416674,54.0,72.0
146,35.998324064583336,36.19240284375,59.0,77.0
147,36.19569231458334,36.425955272916674,56.0,81.0
148,36.19569231458334,36.68417873333334,61.0,70.0
149,36.19569231458334,36.7104945,49.0,74.0
150,36.59042881458334,36.77792865208334,56.0,77.0
151,36.98516531458334,37.38483602083334,65.0,83.0
152,36.98516531458334,37.42430967083334,56.0,85.0
153,37.37990181458334,37.587138477083336,61.0,75.0
154,37.77463831458334,37.983519712500005,58.0,71.0
155,37.77463831458334,38.21049320000001,63.0,77.0
156,38.16937481458334,38.30259838333334,58.0,71.0
157,38.564111314583336,38.748321681250005,58.0,80.0
158,38.564111314583336,39.019703025000005,66.0,81.0
159,38.958847814583336,39.113452943750005,58.0,74.0
160,37.77463831458334,39.177597625000004,51.0,76.0
161,39.15621606458334,39.417728995833336,58.0,77.0
162,39.15621606458334,39.54930782916667,66.0,83.0
163,39.55095256458334,39.781215522916675,58.0,81.0
164,39.74832081458334,39.9769390375,63.0,78.0
165,39.94568906458334,40.087136310416675,58.0,81.0
166,40.14305731458334,40.43910968958334,65.0,86.0
167,40.34042556458334,40.5887806125,58.0,76.0
168,39.35358431458334,40.59535955416667,51.0,76.0
169,40.53779381458334,40.7072015625,63.0,70.0
170,40.93253031458334,41.12003015208334,58.0,70.0
171,40.93253031458334,41.34206943333334,63.0,73.0
172,41.32726681458334,41.40621411458334,58.0,52.0
173,41.72200331458334,41.99173992291667,58.0,79.0
174,41.72200331458334,42.073976693750005,66.0,78.0
175,40.93253031458334,42.371673804166676,51.0,78.0
176,42.31410806458334,42.707199829166676,63.0,78.0
177,42.70884456458334,42.90785755000001,58.0,82.0
178,42.90621281458334,43.15621259791667,63.0,75.0
179,43.10358106458334,43.22035727916667,58.0,75.0
180,43.30094931458334,43.47858073958334,58.0,82.0
181,42.51147631458334,43.57562012916667,51.0,78.0
182,43.30094931458334,43.756541025000004,66.0,80.0
183,43.69568581458334,43.86344882708334,58.0,81.0
184,44.09042231458334,44.27792215208334,56.0,81.0
185,44.09042231458334,44.481869343750006,61.0,76.0
186,44.48515881458334,44.63811920833334,56.0,73.0
187,44.87989531458334,45.335487025000006,56.0,82.0
188,44.87989531458334,45.488447418750006,65.0,82.0
189,44.09042231458334,45.51311845000001,49.0,72.0
190,45.47200006458334,45.72364458333334,63.0,72.0
191,45.66936831458334,45.87660497708334,61.0,81.0
192,45.86673656458334,46.05917060833334,56.0,79.0
193,46.06410481458334,46.22199941458334,61.0,70.0
194,46.26147306458334,46.35522298333334,56.0,66.0
195,46.45884131458334,46.647985887500006,56.0,86.0
196,45.66936831458334,46.807525222916674,49.0,80.0
197,46.45884131458334,46.861801491666675,65.0,83.0
198,46.85357781458334,47.08877497916667,56.0,77.0
199,47.24831431458334,47.65291922708334,59.0,70.0
200,47.24831431458334,47.67265605208334,63.0,80.0
201,47.64305081458334,47.82561644583334,54.0,73.0
202,48.03778731458334,48.272984479166674,54.0,83.0
203,47.24831431458334,48.31081339375001,47.0,81.0
204,48.03778731458334,48.50653690833334,63.0,82.0
205,48.43252381458334,48.53614214583334,54.0,73.0
206,48.43252381458334,48.65291836041668,59.0,82.0
207,48.82726031458334,49.027918035416675,56.0,82.0
208,48.82726031458334,49.307523056250005,61.0,74.0
209,49.22199681458334,49.38153615000001,56.0,71.0
210,48.82726031458334,49.95719354583334,49.0,73.0
211,49.61673331458334,49.983509312500004,65.0,82.0
212,49.61673331458334,50.042719787500005,56.0,81.0
213,49.81410156458334,50.073969760416674,61.0,75.0
214,50.40620631458334,50.588771945833344,58.0,66.0
215,50.40620631458334,50.69239027708334,63.0,77.0
216,50.800942814583344,51.09206098333334,58.0,71.0
217,51.195679314583344,51.414429125000005,66.0,81.0
218,51.39304756458334,51.67429732083334,65.0,72.0
219,50.40620631458334,51.73186306041667,51.0,77.0
220,51.59041581458334,51.79600774166668,63.0,71.0
221,51.78778406458334,52.13646797291668,58.0,66.0
222,51.98515231458334,52.44238876041668,63.0,81.0
223,52.37988881458334,52.54271762083334,58.0,72.0
224,52.77462531458334,52.967059358333344,58.0,82.0
225,51.98515231458334,53.01640142083334,51.0,79.0
226,52.77462531458334,53.01969089166668,66.0,81.0
227,52.97199356458334,53.16113813750001,65.0,77.0
228,53.16936181458334,53.32067747291668,63.0,81.0
229,53.56409831458334,54.04600579166667,59.0,71.0
230,53.95883481458334,54.14962412291668,54.0,74.0
231,54.35357131458334,54.50488697291667,54.0,76.0
232,53.56409831458334,54.62659739375001,47.0,81.0
233,54.35357131458334,54.73514993125001,59.0,83.0
234,54.35357131458334,54.88153138333334,63.0,81.0
235,54.74830781458334,54.988439185416674,54.0,74.0
236,54.94567606458334,55.12824169583334,59.0,80.0
237,55.14304431458334,55.37166253750001,56.0,80.0
238,55.14304431458334,55.60850443750001,61.0,75.0
239,55.53778081458334,55.76146483125001,56.0,77.0
240,55.14304431458334,56.15126712500001,49.0,77.0
241,55.93251731458334,56.33547749166667,61.0,82.0
242,55.93251731458334,56.355214316666675,65.0,81.0
243,56.327253814583344,56.475280002083345,56.0,75.0
244,56.721990314583344,57.16606887708334,63.0,78.0
245,57.116726814583345,57.30916085833334,58.0,69.0
246,56.721990314583344,57.41113445416668,39.0,79.0
247,57.511463314583345,57.65948950208334,58.0,79.0
248,57.511463314583345,58.11837068333334,66.0,82.0
249,57.90619981458334,58.402909910416675,58.0,75.0
250,58.30093631458334,58.71376490416667,63.0,74.0
251,58.69567281458334,58.883172652083346,58.0,77.0
252,58.69567281458334,59.13152770000001,46.0,66.0
253,58.30093631458334,59.23021182500001,39.0,78.0
254,59.09040931458334,59.27790915208334,58.0,83.0
255,59.09040931458334,59.50652737500001,66.0,82.0
256,59.48514581458334,59.90948755208334,65.0,81.0
257,59.87988231458334,59.96376382083334,47.0,64.0
258,59.87988231458334,60.46211865208334,63.0,76.0
259,60.66935531458334,60.81902623750001,59.0,83.0
260,60.27461881458334,60.82231570833334,47.0,81.0
261,60.66935531458334,61.09369705208334,63.0,83.0
262,61.06409181458334,61.330538952083344,59.0,76.0
263,61.26146006458334,61.33876262916667,61.0,60.0
264,61.45882831458334,61.70060442083334,56.0,73.0
265,61.45882831458334,61.90948581875001,61.0,76.0
266,61.85356481458334,62.034485710416675,56.0,76.0
267,62.248301314583344,62.69237987708334,65.0,81.0
268,61.45882831458334,62.70882723125001,49.0,80.0
269,62.248301314583344,62.71376143750001,56.0,81.0
270,62.643037814583344,62.86672183125001,61.0,77.0
271,63.037774314583345,63.373300339583345,59.0,79.0
272,63.037774314583345,63.37987928125001,47.0,62.0
273,63.037774314583345,63.54599755833334,63.0,66.0
274,63.432510814583345,63.682510597916675,54.0,83.0
275,63.827247314583346,64.13645757291668,59.0,85.0
276,63.827247314583346,64.1545496625,63.0,82.0
277,64.41935206458334,64.65125975833334,54.0,79.0
278,64.61672031458335,64.81902277083334,59.0,83.0
279,64.81408856458334,65.02132522708334,54.0,75.0
280,65.01145681458334,65.13481197083334,59.0,75.0
281,65.20882506458334,65.26310133333334,54.0,69.0
282,64.61672031458335,65.48678535,47.0,78.0
283,65.40619331458335,65.60849577083334,54.0,83.0
284,65.40619331458335,65.64961415625001,63.0,83.0
285,65.80092981458334,65.96869282708334,59.0,83.0
286,65.80092981458334,66.02461383125001,54.0,83.0
287,65.60356156458334,66.05421906875002,47.0,82.0
288,66.19566631458335,66.59369228541668,61.0,81.0
289,66.19566631458335,66.74665267916667,54.0,79.0
290,66.59040281458334,67.03448137708334,49.0,75.0
291,66.19566631458335,67.11836288333335,42.0,83.0
292,66.98513931458335,67.32395481041668,54.0,82.0
293,66.98513931458335,67.48513888125001,58.0,86.0
294,67.37987581458334,67.59369141875001,49.0,71.0
295,66.98513931458335,67.59369141875001,61.0,84.0
296,67.57724406458334,67.69895448541668,54.0,82.0
297,67.77461231458334,68.03448051041667,56.0,76.0
298,67.77461231458334,68.24500664375002,61.0,70.0
299,68.16934881458334,68.42921701041668,56.0,83.0
300,68.56408531458334,68.70388782500001,56.0,81.0
301,67.77461231458334,68.78941406666668,49.0,85.0
302,68.56408531458334,68.84040086458334,61.0,84.0
303,68.56408531458334,68.87000610208334,65.0,83.0
304,68.95882181458335,69.15619006458334,56.0,81.0
305,69.35355831458334,69.58053180208334,58.0,76.0
306,69.35355831458334,69.81079476041668,63.0,75.0
307,69.74829481458335,69.86671576458335,58.0,77.0
308,70.14303131458334,70.27296541250001,58.0,82.0
309,70.14303131458334,70.34697850625001,66.0,81.0
310,70.53776781458335,70.66112297083335,58.0,74.0
311,69.35355831458334,70.77296497916667,51.0,81.0
312,70.73513606458334,71.04105685208334,63.0,82.0
313,71.32724081458335,71.48349067916668,58.0,87.0
314,71.12987256458334,71.81737196875001,53.0,76.0
315,70.93250431458334,71.88316138541667,46.0,82.0
316,71.72197731458334,72.10026646041668,61.0,97.0
317,71.72197731458334,72.10355593125001,58.0,84.0
318,72.11671381458335,72.25816106041668,53.0,79.0
319,72.51145031458334,72.76967377500002,63.0,75.0
320,72.51145031458334,72.77954218750001,59.0,74.0
321,72.90618681458335,73.36671273125,54.0,50.0
322,72.51145031458334,73.40289691041667,47.0,88.0
323,73.30092331458334,73.51967312500001,59.0,85.0
324,73.49829156458334,73.65454142916668,54.0,81.0
325,73.30092331458334,73.70223875625001,63.0,84.0
326,73.69565981458335,73.92756750833334,59.0,83.0
327,73.89302806458335,74.02625163333335,63.0,76.0
328,74.09039631458334,74.31572506666667,56.0,76.0
329,74.09039631458334,74.54927749583335,61.0,82.0
330,74.48513281458334,74.68250106458335,56.0,82.0
331,74.87986931458335,74.98348764583335,56.0,84.0
332,74.09039631458334,75.08052703541668,49.0,85.0
333,74.87986931458335,75.21868481041668,65.0,83.0
334,74.87986931458335,75.23019795833335,61.0,84.0
335,75.27460581458334,75.35519785000001,56.0,76.0
336,75.66934231458335,76.02953937083335,58.0,76.0
337,75.66934231458335,76.06243407916668,54.0,81.0
338,76.06407881458334,76.50322317083335,49.0,62.0
339,76.45881531458335,76.61835465000001,54.0,84.0
340,76.45881531458335,76.68085459583334,66.0,82.0
341,76.65618356458334,77.04763059375001,49.0,78.0
342,75.66934231458335,77.04927532916668,42.0,83.0
343,76.85355181458334,77.07394636041668,58.0,81.0
344,76.85355181458334,77.12986736458335,54.0,83.0
345,77.44565656458335,77.65782743333334,56.0,86.0
346,77.64302481458334,77.81901150416668,61.0,81.0
347,77.84039306458334,77.94401139583334,56.0,84.0
348,77.05092006458335,78.01473501875002,49.0,83.0
349,78.03776131458335,78.14631385208334,56.0,88.0
350,78.03776131458335,78.27295847916668,65.0,85.0
351,78.23512956458335,78.42920834375,49.0,83.0
352,78.43249781458334,78.72690545416668,56.0,86.0
353,78.62986606458334,78.77789225208335,61.0,83.0
354,78.82723431458335,79.21703660833334,58.0,77.0
355,78.82723431458335,79.41769432916668,61.0,81.0
356,79.41933906458334,79.69565461458335,58.0,82.0
357,79.61670731458335,79.82394397708335,61.0,88.0
358,79.81407556458335,79.82394397708335,61.0,82.0
359,79.61670731458335,79.84861500833334,66.0,83.0
360,79.22197081458334,79.90124654166668,49.0,70.0
361,78.82723431458335,79.97854910625001,42.0,83.0
362,80.01144381458334,80.12493055833335,58.0,80.0
363,80.40618031458335,80.59532488750001,56.0,85.0
364,80.60354856458335,80.71539057291668,56.0,81.0
365,80.40618031458335,80.83381152291668,61.0,81.0
366,80.99828506458334,81.26308746666668,56.0,86.0
367,80.99828506458334,81.30914005833334,65.0,82.0
368,81.39302156458335,81.60354769791668,61.0,88.0
369,81.59038981458335,81.85848168750002,56.0,81.0
370,80.40618031458335,81.86012642291668,49.0,83.0
371,81.78775806458334,81.96045528333335,61.0,76.0
372,81.98512631458334,82.2137445375,58.0,74.0
373,81.98512631458334,82.41440225833334,63.0,74.0
374,82.37986281458335,82.53611267916668,58.0,82.0
375,81.98512631458334,82.83216505416668,51.0,81.0
376,82.77459931458334,82.95716494583334,58.0,81.0
377,82.77459931458334,83.02130962708334,66.0,81.0
378,82.97196756458335,83.25321732083334,63.0,79.0
379,83.16933581458335,83.40617771458335,61.0,75.0
380,83.36670406458335,83.64466435000001,58.0,82.0
381,83.95880881458335,84.20387439166667,58.0,87.0
382,84.15617706458335,84.24992698333335,61.0,88.0
383,83.76144056458335,84.38315055208335,53.0,82.0
384,84.35354531458334,84.53775568125002,58.0,82.0
385,84.35354531458334,84.60518983333334,65.0,83.0
386,83.56407231458334,84.66933451458334,46.0,82.0
387,84.55091356458334,84.7104529,53.0,83.0
388,84.74828181458335,84.88972906041668,58.0,85.0
389,85.14301831458334,85.60683370208335,59.0,76.0
390,85.14301831458334,85.70880729791668,63.0,81.0
391,85.53775481458335,85.97525443541667,54.0,76.0
392,85.14301831458334,86.04597805833335,47.0,87.0
393,85.93249131458334,86.10518853333335,59.0,84.0
394,86.12985956458334,86.27130681041668,54.0,82.0
395,85.93249131458334,86.29762257708335,66.0,83.0
396,86.32722781458335,86.59038548125001,59.0,87.0
397,86.72196431458335,86.93742465416668,56.0,75.0
398,86.72196431458335,87.15946393541668,61.0,77.0
399,87.11670081458335,87.32064800625001,56.0,83.0
400,87.51143731458335,87.70058188750001,56.0,85.0
401,87.51143731458335,87.72031871250002,65.0,82.0
402,86.72196431458335,87.88643698958334,49.0,83.0
403,87.70880556458334,87.94235799375001,61.0,77.0
404,87.90617381458334,88.05255526666669,56.0,83.0
405,88.30091031458335,88.51472591875002,54.0,81.0
406,88.30091031458335,88.80748882291668,63.0,79.0
407,88.69564681458334,89.29926471250002,54.0,81.0
408,88.89301506458335,89.31242259583334,59.0,82.0
409,89.28775156458335,89.5953170875,63.0,82.0
410,88.30091031458335,89.64301441458335,47.0,83.0
411,89.48511981458334,89.73018539166668,59.0,74.0
412,89.68248806458335,89.85025107708334,54.0,81.0
413,89.87985631458335,90.11011927291668,54.0,66.0
414,89.87985631458335,90.37985588125001,59.0,79.0
415,90.27459281458334,90.50485577291668,54.0,81.0
416,89.87985631458335,90.75978976250002,47.0,82.0
417,90.66932931458335,91.10353946458335,59.0,84.0
418,90.66932931458335,91.29103930208335,63.0,85.0
419,91.06406581458334,91.36176292500001,54.0,87.0
420,91.26143406458334,91.41768392916669,59.0,76.0
421,90.86669756458335,91.42590760625001,47.0,84.0
422,91.45880231458335,91.66238826458334,58.0,72.0
423,91.45880231458335,91.97550292083335,63.0,78.0
424,91.85255213958334,92.10828976458335,58.0,81.0
425,91.45880231458335,92.51156832708334,51.0,82.0
426,92.24599463958334,92.62304370208335,66.0,77.0
427,92.24599463958334,92.69517482708335,58.0,82.0
428,92.63943713958335,92.88042067083335,63.0,80.0
429,93.03287963958334,93.45255163958335,61.0,82.0
430,93.42632213958335,93.61484667083334,56.0,82.0
431,93.03287963958334,93.95583017083334,49.0,81.0
432,93.81976463958334,94.19189567083335,56.0,83.0
433,93.81976463958334,94.21320713958335,65.0,83.0
434,94.21320713958335,94.38205954583334,61.0,82.0
435,94.40992838958334,94.50828901458334,56.0,77.0
436,94.60664963958334,95.07222326458334,59.0,76.0
437,95.00009213958334,95.17878060833334,54.0,81.0
438,94.60664963958334,95.46074773333335,47.0,76.0
439,95.39353463958335,95.58205917083335,54.0,80.0
440,95.39353463958335,95.71156732708334,63.0,82.0
441,95.78697713958334,96.03287870208334,59.0,76.0
442,95.98369838958334,96.13451801458335,54.0,82.0
443,96.37714088958334,96.53943592083334,58.0,79.0
444,96.57386213958334,96.82140304583335,63.0,74.0
445,96.77058338958335,96.95255054583335,58.0,76.0
446,96.96730463958335,97.20828817083334,66.0,80.0
447,97.16402588958334,97.36730451458334,58.0,81.0
448,97.36074713958334,97.56238642083335,63.0,79.0
449,96.18041963958335,97.57714051458335,51.0,75.0
450,97.75418963958334,97.93287810833334,58.0,77.0
451,97.75418963958334,98.18369770208335,63.0,78.0
452,98.14763213958335,98.30336979583335,58.0,74.0
453,98.54107463958334,98.91320567083335,58.0,82.0
454,98.54107463958334,98.96894335833335,66.0,81.0
455,97.75418963958334,99.02795973333335,51.0,88.0
456,98.93451713958335,99.14763182708334,63.0,81.0
457,99.13123838958334,99.25582851458334,58.0,74.0
458,99.32795963958334,99.50336942083335,56.0,82.0
459,99.32795963958334,99.77058245208335,61.0,82.0
460,99.72140213958335,99.89189388958334,56.0,82.0
461,99.32795963958334,100.41812323333335,49.0,74.0
462,100.11484463958334,100.45746748333335,65.0,82.0
463,100.11484463958334,100.58041826458334,56.0,82.0
464,100.50828713958335,100.61812317083334,61.0,82.0
465,100.90172963958335,101.06730335833335,54.0,76.0
466,100.90172963958335,101.33943442083334,47.0,79.0
467,100.90172963958335,101.35910654583334,59.0,71.0
468,101.29517213958334,101.49517207708334,54.0,68.0
469,101.68861463958335,101.90172932708334,59.0,85.0
470,101.68861463958335,102.12140138958334,63.0,79.0
471,102.08205713958334,102.37713901458335,54.0,83.0
472,102.47549963958335,102.68205695208334,54.0,77.0
473,102.47549963958335,102.90336835833335,59.0,76.0
474,102.86894213958334,102.96730276458335,54.0,74.0
475,102.47549963958335,103.15090926458335,47.0,74.0
476,103.06566338958335,103.29025348333334,54.0,83.0
477,103.06566338958335,103.34599117083334,63.0,82.0
478,103.45910588958334,103.69845007708335,59.0,88.0
479,103.65582713958335,103.92631885833335,54.0,81.0
480,103.26238463958335,103.97549917083334,47.0,77.0
481,103.85254838958335,103.98205654583334,59.0,73.0
482,104.04926963958334,104.47169705833335,63.0,73.0
483,104.04926963958334,104.48156547083335,58.0,70.0
484,104.04926963958334,104.97663083125,51.0,75.0
485,104.83847305625001,105.22334114375,58.0,77.0
486,104.83847305625001,105.24801217500001,66.0,82.0
487,105.43057780625001,105.65590655833334,58.0,79.0
488,105.43057780625001,105.68222232500001,63.0,81.0
489,105.82531430625001,106.11643247500001,58.0,78.0
490,106.02268255625,106.21676133541668,63.0,73.0
491,105.62794605625001,106.53584000625001,51.0,69.0
492,106.41741905625001,106.59998468750001,58.0,80.0
493,106.41741905625001,106.85327394166667,66.0,81.0
494,106.81215555625,106.95689227291668,58.0,77.0
495,107.20689205625001,107.37958927500001,56.0,76.0
496,107.20689205625001,107.60985223333334,61.0,75.0
497,107.60162855625,107.72662844791668,56.0,66.0
498,107.20689205625001,107.87794410625001,49.0,77.0
499,107.99636505625001,108.31873319791667,56.0,78.0
500,107.99636505625001,108.3368252875,65.0,81.0
501,108.39110155625,108.5835356,49.0,67.0
502,108.58846980625,108.82366697083334,56.0,82.0
503,108.58846980625,108.8894563875,61.0,85.0
504,108.98320630625001,109.21182452916668,56.0,81.0
505,109.18057455625001,109.42564013333335,61.0,75.0
506,108.78583805625001,109.7381398625,49.0,77.0
507,109.57531105625002,109.82037663333334,56.0,81.0
508,109.57531105625002,109.99636332291668,65.0,84.0
509,109.97004755625001,110.12136321458334,56.0,78.0
510,110.36478405625002,110.60984963333334,54.0,75.0
511,110.36478405625002,110.75787582083335,59.0,70.0
512,110.75952055625001,110.91577042083334,54.0,63.0
513,110.36478405625002,111.26938853541668,47.0,79.0
514,111.15425705625,111.30063850833335,54.0,82.0
515,111.15425705625,111.5144541125,59.0,87.0
516,111.15425705625,111.71675656875001,63.0,82.0
517,111.54899355625001,111.80886175208335,54.0,72.0
518,111.74636180625001,111.94044058541668,59.0,77.0
519,111.94373005625,112.17399301458335,56.0,81.0
520,111.94373005625,112.432216475,61.0,70.0
521,111.94373005625,112.45853224166667,49.0,74.0
522,112.33846655625001,112.52596639375001,56.0,77.0
523,112.73320305625,113.13287376250001,65.0,83.0
524,112.73320305625,113.17234741250002,56.0,85.0
525,113.12793955625001,113.33517621875001,61.0,75.0
526,113.52267605625,113.73155745416668,58.0,71.0
527,113.52267605625,113.95853094166668,63.0,77.0
528,113.91741255625001,114.05063612500001,58.0,71.0
529,114.31214905625001,114.49635942291667,58.0,80.0
530,114.31214905625001,114.76774076666668,66.0,81.0
531,114.70688555625001,114.86149068541667,58.0,74.0
532,113.52267605625,114.92563536666668,51.0,76.0
533,114.90425380625001,115.16576673750001,58.0,77.0
534,114.90425380625001,115.29734557083334,66.0,83.0
535,115.29899030625,115.52925326458335,58.0,81.0
536,115.49635855625002,115.72497677916668,63.0,78.0
537,115.69372680625001,115.83517405208335,58.0,81.0
538,115.89109505625001,116.18714743125001,65.0,86.0
539,116.08846330625,116.33681835416668,58.0,76.0
540,115.10162205625001,116.34339729583334,51.0,76.0
541,116.28583155625,116.45523930416668,63.0,70.0
542,116.68056805625001,116.86806789375001,58.0,70.0
543,116.68056805625001,117.09010717500001,63.0,73.0
544,117.07530455625002,117.15425185625001,58.0,52.0
545,117.47004105625001,117.73977766458334,58.0,79.0
546,117.47004105625001,117.82201443541668,66.0,78.0
547,116.68056805625001,118.11971154583334,51.0,78.0
548,118.06214580625002,118.45523757083335,63.0,78.0
549,118.45688230625001,118.65589529166668,58.0,82.0
550,118.65425055625,118.90425033958334,63.0,75.0
551,118.85161880625002,118.96839502083334,58.0,75.0
552,119.04898705625001,119.22661848125001,58.0,82.0
553,118.25951405625001,119.32365787083334,51.0,78.0
554,119.04898705625001,119.50457876666668,66.0,80.0
555,119.44372355625,119.61148656875001,58.0,81.0
556,119.83846005625001,120.02595989375001,56.0,81.0
557,119.83846005625001,120.22990708541667,61.0,76.0
558,120.23319655625001,120.38615695000001,56.0,73.0
559,120.62793305625001,121.08352476666667,56.0,82.0
560,120.62793305625001,121.23648516041668,65.0,82.0
561,119.83846005625001,121.26115619166669,49.0,72.0
562,121.22003780625002,121.47168232500002,63.0,72.0
563,121.41740605625002,121.62464271875001,61.0,81.0
564,121.61477430625001,121.80720835000001,56.0,79.0
565,121.81214255625001,121.97003715625002,61.0,70.0
566,122.00951080625,122.10326072500001,56.0,66.0
567,122.20687905625002,122.39602362916668,56.0,86.0
568,121.41740605625002,122.55556296458334,49.0,80.0
569,122.20687905625002,122.60983923333335,65.0,83.0
570,122.60161555625001,122.83681272083334,56.0,77.0
571,122.99635205625,123.40095696875001,59.0,70.0
572,122.99635205625,123.42069379375002,63.0,80.0
573,123.39108855625001,123.57365418750001,54.0,73.0
574,123.78582505625002,124.02102222083334,54.0,83.0
575,122.99635205625,124.05885113541667,47.0,81.0
576,123.78582505625002,124.25457465000001,63.0,82.0
577,124.18056155625001,124.28417988750002,54.0,73.0
578,124.18056155625001,124.40095610208334,59.0,82.0
579,124.57529805625,124.77595577708334,56.0,82.0
580,124.57529805625,125.05556079791668,61.0,74.0
581,124.97003455625001,125.12957389166668,56.0,71.0
582,124.57529805625,125.70523128750001,49.0,73.0
583,125.36477105625,125.73154705416668,65.0,82.0
584,125.36477105625,125.79075752916668,56.0,81.0
585,125.56213930625,125.82200750208335,61.0,75.0
586,126.15424405625001,126.33680968750001,58.0,66.0
587,126.15424405625001,126.44042801875001,63.0,77.0
588,126.54898055625002,126.84009872500002,58.0,71.0
589,126.94371705625001,127.16246686666668,66.0,81.0
590,127.14108530625,127.42233506250001,65.0,72.0
591,126.15424405625001,127.47990080208335,51.0,77.0
592,127.33845355625002,127.54404548333335,63.0,71.0
593,127.53582180625001,127.88450571458334,58.0,66.0
594,127.73319005625001,128.19042650208334,63.0,81.0
595,128.12792655625,128.29075536250002,58.0,72.0
596,128.52266305625,128.7150971,58.0,82.0
597,127.73319005625001,128.76443916250003,51.0,79.0
598,128.52266305625,128.76772863333335,66.0,81.0
599,128.72003130625,128.90917587916667,65.0,77.0
600,128.91739955625002,129.06871521458334,63.0,81.0
601,129.31213605625,129.79404353333334,59.0,71.0
602,129.70687255625,129.89766186458334,54.0,74.0
603,130.10160905625003,130.25292471458334,54.0,76.0
604,129.31213605625,130.37463513541667,47.0,81.0
605,130.10160905625003,130.48318767291667,59.0,83.0
606,130.10160905625003,130.62956912500002,63.0,81.0
607,130.49634555625002,130.73647692708334,54.0,74.0
608,130.69371380625,130.87627943750002,59.0,80.0
609,130.89108205625,131.1197002791667,56.0,80.0
610,130.89108205625,131.3565421791667,61.0,75.0
611,131.28581855625,131.5095025729167,56.0,77.0
612,130.89108205625,131.89930486666668,49.0,77.0
613,131.68055505625,132.08351523333334,61.0,82.0
614,131.68055505625,132.10325205833334,65.0,81.0
615,132.07529155625002,132.22331774375002,56.0,75.0
616,132.47002805625002,132.91410661875,63.0,78.0
617,132.86476455625,133.05719860000002,58.0,69.0
618,132.47002805625002,133.15917219583335,39.0,79.0
619,133.25950105625,133.40752724375002,58.0,79.0
620,133.25950105625,133.866408425,66.0,82.0
621,133.65423755625002,134.15094765208335,58.0,75.0
622,134.04897405625002,134.46180264583336,63.0,74.0
623,134.44371055625,134.63121039375002,58.0,77.0
624,134.44371055625,134.87956544166667,46.0,66.0
625,134.04897405625002,134.97824956666668,39.0,78.0
626,134.83844705625,135.02594689375002,58.0,83.0
627,134.83844705625,135.25456511666667,66.0,82.0
628,135.23318355625003,135.65752529375,65.0,81.0
629,135.62792005625002,135.7118015625,47.0,64.0
630,135.62792005625002,136.21015639375003,63.0,76.0
631,136.41739305625,136.56706397916668,59.0,83.0
632,136.02265655625,136.57035345000003,47.0,81.0
633,136.41739305625,136.84173479375002,63.0,83.0
634,136.81212955625,137.07857669375002,59.0,76.0
635,137.00949780625,137.08680037083334,61.0,60.0
636,137.20686605625002,137.44864216250002,56.0,73.0
637,137.20686605625002,137.65752356041668,61.0,76.0
638,137.60160255625001,137.78252345208335,56.0,76.0
639,137.99633905625,138.44041761875002,65.0,81.0
640,137.20686605625002,138.4568649729167,49.0,80.0
641,137.99633905625,138.4617991791667,56.0,81.0
642,138.39107555625003,138.61475957291668,61.0,77.0
643,138.78581205625002,139.12133808125003,59.0,79.0
644,138.78581205625002,139.12791702291668,47.0,62.0
645,138.78581205625002,139.29403530000002,63.0,66.0
646,139.18054855625002,139.43054833958334,54.0,83.0
647,139.57528505625,139.88449531458335,59.0,85.0
648,139.57528505625,139.9025874041667,63.0,82.0
649,140.16738980625001,140.39929750000002,54.0,79.0
650,140.36475805625003,140.5670605125,59.0,83.0
651,140.56212630625,140.76936296875002,54.0,75.0
652,140.75949455625002,140.88284971250002,59.0,75.0
653,140.95686280625,141.01113907500002,54.0,69.0
654,140.36475805625003,141.23482309166667,47.0,78.0
655,141.15423105625,141.35653351250002,54.0,83.0
656,141.15423105625,141.3976518979167,63.0,83.0
657,141.54896755625,141.71673056875002,59.0,83.0
658,141.54896755625,141.7726515729167,54.0,83.0
659,141.35159930625002,141.80225681041668,47.0,82.0
660,141.94370405625,142.34173002708334,61.0,81.0
661,141.94370405625,142.49469042083336,54.0,79.0
662,142.33844055625002,142.78251911875003,49.0,75.0
663,141.94370405625,142.866400625,42.0,83.0
664,142.73317705625,143.07199255208334,54.0,82.0
665,142.73317705625,143.2331766229167,58.0,86.0
666,143.12791355625,143.3417291604167,49.0,71.0
667,142.73317705625,143.3417291604167,61.0,84.0
668,143.32528180625002,143.44699222708334,54.0,82.0
669,143.52265005625003,143.78251825208335,56.0,76.0
670,143.52265005625003,143.99304438541668,61.0,70.0
671,143.91738655625002,144.17725475208334,56.0,83.0
672,144.31212305625002,144.4519255666667,56.0,81.0
673,143.52265005625003,144.53745180833334,49.0,85.0
674,144.31212305625002,144.58843860625,61.0,84.0
675,144.31212305625002,144.61804384375,65.0,83.0
676,144.70685955625,144.90422780625002,56.0,81.0
677,145.10159605625,145.32856954375,58.0,76.0
678,145.10159605625,145.55883250208336,63.0,75.0
679,145.49633255625002,145.61475350625,58.0,77.0
680,145.89106905625002,146.0210031541667,58.0,82.0
681,145.89106905625002,146.09501624791667,66.0,81.0
682,146.28580555625,146.4091607125,58.0,74.0
683,145.10159605625,146.52100272083334,51.0,81.0
684,146.48317380625002,146.78909459375,63.0,82.0
685,147.07527855625,147.23152842083334,58.0,87.0
686,146.87791030625002,147.56540971041667,53.0,76.0
687,146.68054205625,147.63119912708333,46.0,82.0
688,147.47001505625002,147.84830420208334,61.0,97.0
689,147.47001505625002,147.8515936729167,58.0,84.0
690,147.86475155625,148.00619880208336,53.0,79.0
691,148.25948805625,148.51771151666668,63.0,75.0
692,148.25948805625,148.52757992916668,59.0,74.0
693,148.65422455625003,149.11475047291668,54.0,50.0
694,148.25948805625,149.15093465208335,47.0,88.0
695,149.04896105625002,149.26771086666668,59.0,85.0
696,149.24632930625,149.40257917083335,54.0,81.0
697,149.04896105625002,149.4502764979167,63.0,84.0
698,149.44369755625002,149.67560525000002,59.0,83.0
699,149.64106580625003,149.77428937500002,63.0,76.0
700,149.83843405625,150.06376280833337,56.0,76.0
701,149.83843405625,150.29731523750002,61.0,82.0
702,150.23317055625,150.43053880625,56.0,82.0
703,150.62790705625002,150.73152538750003,56.0,84.0
704,149.83843405625,150.82856477708336,49.0,85.0
705,150.62790705625002,150.96672255208335,65.0,83.0
706,150.62790705625002,150.97823570000003,61.0,84.0
707,151.02264355625002,151.10323559166667,56.0,76.0
708,151.41738005625,151.7775771125,58.0,76.0
709,151.41738005625,151.81047182083336,54.0,81.0
710,151.81211655625003,152.25126091250002,49.0,62.0
711,152.20685305625003,152.3663923916667,54.0,84.0
712,152.20685305625003,152.42889233750003,66.0,82.0
713,152.40422130625,152.79566833541668,49.0,78.0
714,151.41738005625,152.79731307083335,42.0,83.0
715,152.60158955625002,152.82198410208335,58.0,81.0
716,152.60158955625002,152.87790510625,54.0,83.0
717,153.19369430625002,153.40586517500003,56.0,86.0
718,153.39106255625,153.56704924583335,61.0,81.0
719,153.58843080625002,153.69204913750002,56.0,84.0
720,152.79895780625003,153.76277276041668,49.0,83.0
721,153.78579905625003,153.89435159375,56.0,88.0
722,153.78579905625003,154.02099622083335,65.0,85.0
723,153.98316730625,154.1772460854167,49.0,83.0
724,154.18053555625002,154.47494319583336,56.0,86.0
725,154.37790380625,154.52592999375003,61.0,83.0
726,154.57527205625001,154.96507435,58.0,77.0
727,154.57527205625001,155.16573207083334,61.0,81.0
728,155.16737680625002,155.44369235625,58.0,82.0
729,155.36474505625,155.57198171875,61.0,88.0
730,155.56211330625,155.57198171875,61.0,82.0
731,155.36474505625,155.59665275000003,66.0,83.0
732,154.97000855625,155.64928428333334,49.0,70.0
733,154.57527205625001,155.72658684791668,42.0,83.0
734,155.75948155625002,155.87296830000003,58.0,80.0
735,156.15421805625002,156.34336262916668,56.0,85.0
736,156.35158630625,156.46342831458335,56.0,81.0
737,156.15421805625002,156.58184926458335,61.0,81.0
738,156.74632280625002,157.01112520833334,56.0,86.0
739,156.74632280625002,157.05717780000003,65.0,82.0
740,157.14105930625,157.35158543958335,61.0,88.0
741,157.33842755625002,157.60651942916667,56.0,81.0
742,156.15421805625002,157.60816416458334,49.0,83.0
743,157.53579580625,157.70849302500002,61.0,76.0
744,157.73316405625002,157.9617822791667,58.0,74.0
745,157.73316405625002,158.16244,63.0,74.0
746,158.12790055625,158.28415042083336,58.0,82.0
747,157.73316405625002,158.58020279583334,51.0,81.0
748,158.52263705625,158.70520268750002,58.0,81.0
749,158.52263705625,158.76934736875,66.0,81.0
750,158.72000530625002,159.0012550625,63.0,79.0
751,158.91737355625003,159.15421545625003,61.0,75.0
752,159.11474180625,159.39270209166668,58.0,82.0
753,159.70684655625,159.95191213333334,58.0,87.0
754,159.90421480625002,159.99796472500003,61.0,88.0
755,159.50947830625,160.13118829375003,53.0,82.0
756,160.10158305625,160.2857934229167,58.0,82.0
757,160.10158305625,160.353227575,65.0,83.0
758,159.31211005625002,160.41737225625002,46.0,82.0
759,160.29895130625002,160.45849064166669,53.0,83.0
760,160.49631955625,160.63776680208335,58.0,85.0
761,160.89105605625002,161.35487144375003,59.0,76.0
762,160.89105605625002,161.45684503958336,63.0,81.0
763,161.28579255625002,161.72329217708335,54.0,76.0
764,160.89105605625002,161.7940158,47.0,87.0
765,161.68052905625,161.85322627500003,59.0,84.0
766,161.87789730625002,162.01934455208334,54.0,82.0
767,161.68052905625,162.04566031875,66.0,83.0
768,162.07526555625003,162.33842322291667,59.0,87.0
769,162.47000205625002,162.68546239583335,56.0,75.0
770,162.47000205625002,162.90750167708336,61.0,77.0
771,162.86473855625002,163.06868574791667,56.0,83.0
772,163.25947505625,163.44861962916667,56.0,85.0
773,163.25947505625,163.46835645416667,65.0,82.0
774,162.47000205625002,163.63447473125,49.0,83.0
775,163.45684330625002,163.6903957354167,61.0,77.0
776,163.65421155625,163.80059300833335,56.0,83.0
777,164.04894805625003,164.26276366041668,54.0,81.0
778,164.04894805625003,164.55552656458335,63.0,79.0
779,164.44368455625002,165.0473024541667,54.0,81.0
780,164.64105280625,165.06046033750002,59.0,82.0
781,165.03578930625002,165.34335482916669,63.0,82.0
782,164.04894805625003,165.39105215625003,47.0,83.0
783,165.23315755625003,165.47822313333336,59.0,74.0
784,165.43052580625002,165.59828881875,54.0,81.0
785,165.62789405625003,165.85815701458336,54.0,66.0
786,165.62789405625003,166.1278936229167,59.0,79.0
787,166.02263055625002,166.25289351458335,54.0,81.0
788,165.62789405625003,166.5078275041667,47.0,82.0
789,166.41736705625001,166.85157720625003,59.0,84.0
790,166.41736705625001,167.03907704375,63.0,85.0
791,166.81210355625,167.10980066666667,54.0,87.0
792,167.00947180625002,167.16572167083336,59.0,76.0
793,166.61473530625003,167.17394534791669,47.0,84.0
794,167.20684005625003,167.60486602708335,61.0,81.0
795,167.20684005625003,167.75782642083334,54.0,79.0
796,167.60157655625002,168.04565511875,49.0,75.0
797,167.20684005625003,168.12953662500001,42.0,83.0
798,167.99631305625002,168.33512855208335,54.0,82.0
799,167.99631305625002,168.4963126229167,58.0,86.0
800,168.39104955625004,168.6048651604167,49.0,71.0
801,167.99631305625002,168.6048651604167,61.0,84.0
802,168.58841780625002,168.71012822708335,54.0,82.0
803,168.78578605625,169.04565425208335,56.0,76.0
804,168.78578605625,169.25618038541668,61.0,70.0
805,169.18052255625003,169.44039075208335,56.0,83.0
806,169.57525905625002,169.7150615666667,56.0,81.0
807,168.78578605625,169.80058780833335,49.0,85.0
808,169.57525905625002,169.85157460625,61.0,84.0
809,169.57525905625002,169.88117984375003,65.0,83.0
810,169.96999555625,170.16736380625002,56.0,81.0
811,170.36473205625003,170.59170554375004,58.0,76.0
812,170.36473205625003,170.82196850208334,63.0,75.0
813,170.75946855625,170.87788950625003,58.0,77.0
814,171.15420505625002,171.28413915416667,58.0,82.0
815,171.15420505625002,171.35815224791668,66.0,81.0
816,171.54894155625,171.6722967125,58.0,74.0
817,170.36473205625003,171.78413872083337,51.0,81.0
818,171.74630980625003,172.05223059375004,63.0,82.0
819,172.33841455625003,172.49466442083335,58.0,87.0
820,172.14104630625002,172.82854571041668,53.0,76.0
821,171.94367805625,172.89433512708337,46.0,82.0
822,172.73315105625002,173.11144020208337,61.0,97.0
823,172.73315105625002,173.11472967291667,58.0,84.0
824,173.12788755625002,173.26933480208334,53.0,79.0
825,173.52262405625004,173.78084751666668,63.0,75.0
826,173.52262405625004,173.79071592916668,59.0,74.0
827,173.91736055625,174.37788647291669,54.0,50.0
828,173.52262405625004,174.41407065208335,47.0,88.0
829,174.31209705625002,174.5308468666667,59.0,85.0
830,174.50946530625004,174.66571517083335,54.0,81.0
831,174.31209705625002,174.7134124979167,63.0,84.0
832,174.70683355625002,174.93874125000002,59.0,83.0
833,174.90420180625,175.037425375,63.0,76.0
834,175.10157005625,175.32689880833334,56.0,76.0
835,175.10157005625,175.56045123750002,61.0,82.0
836,175.49630655625003,175.69367480625002,56.0,82.0
837,175.89104305625,175.9946613875,56.0,84.0
838,175.10157005625,176.09170077708336,49.0,85.0
839,175.89104305625,176.22985855208336,65.0,83.0
840,175.89104305625,176.2413717,61.0,84.0
841,176.28577955625002,176.36637159166668,56.0,76.0
842,176.68051605625,177.04071311250001,58.0,76.0
843,176.68051605625,177.07360782083336,54.0,81.0
844,177.07525255625,177.51439691250002,49.0,62.0
845,177.46998905625003,177.62952839166667,54.0,84.0
846,177.46998905625003,177.6920283375,66.0,82.0
847,177.66735730625004,178.05880433541668,49.0,78.0
848,176.68051605625,178.06044907083336,42.0,83.0
849,177.86472555625002,178.08512010208335,58.0,81.0
850,177.86472555625002,178.14104110625001,54.0,83.0
851,178.45683030625003,178.669001175,56.0,86.0
852,178.65419855625004,178.83018524583335,61.0,81.0
853,178.85156680625002,178.95518513750002,56.0,84.0
854,178.06209380625,179.02590876041668,49.0,83.0
855,179.04893505625,179.15748759375003,56.0,88.0
856,179.04893505625,179.28413222083336,65.0,85.0
857,179.24630330625,179.44038208541667,49.0,83.0
858,179.44367155625002,179.73807919583334,56.0,86.0
859,179.64103980625003,179.78906599375,61.0,83.0
860,179.83840805625002,180.22821035000004,58.0,77.0
861,179.83840805625002,180.42886807083335,61.0,81.0
862,180.43051280625002,180.70682835625,58.0,82.0
863,180.62788105625003,180.83511771875004,61.0,88.0
864,180.82524930625002,180.83511771875004,61.0,82.0
865,180.62788105625003,180.85978875,66.0,83.0
866,180.23314455625,180.91242028333335,49.0,70.0
867,179.83840805625002,180.98972284791668,42.0,83.0
868,181.02261755625003,181.1361043,58.0,80.0
869,181.41735405625002,181.60649862916668,56.0,85.0
870,181.61472230625003,181.72656431458336,56.0,81.0
871,181.41735405625002,181.84498526458336,61.0,81.0
872,182.00945880625002,182.27426120833337,56.0,86.0
873,182.00945880625002,182.3203138,65.0,82.0
874,182.40419530625002,182.61472143958335,61.0,88.0
875,182.60156355625003,182.8696554291667,56.0,81.0
876,181.41735405625002,182.87130016458337,49.0,83.0
877,182.79893180625004,182.97162902500003,61.0,76.0
878,182.99630005625002,183.22491827916667,58.0,74.0
879,182.99630005625002,183.42557600000004,63.0,74.0
880,183.39103655625001,183.54728642083336,58.0,82.0
881,182.99630005625002,183.84333879583335,51.0,81.0
882,183.78577305625004,183.96833868750002,58.0,81.0
883,183.78577305625004,184.03248336875004,66.0,81.0
884,183.98314130625002,184.2643910625,63.0,79.0
885,184.18050955625,184.41735145625,61.0,75.0
886,184.37787780625,184.65583809166668,58.0,82.0
887,184.96998255625002,185.21504813333337,58.0,87.0
888,185.16735080625003,185.261100725,61.0,88.0
889,184.77261430625003,185.39432429375,53.0,82.0
890,185.36471905625,185.54892942291667,58.0,82.0
891,185.36471905625,185.61636357500004,65.0,83.0
892,184.57524605625002,185.68050825625002,46.0,82.0
893,185.56208730625002,185.7216266416667,53.0,83.0
894,185.75945555625003,185.90090280208335,58.0,85.0
895,186.15419205625003,186.61800744375,59.0,76.0
896,186.15419205625003,186.71998103958336,63.0,81.0
897,186.54892855625002,186.98642817708335,54.0,76.0
898,186.15419205625003,187.0571518,47.0,87.0
899,186.94366505625004,187.11636227500003,59.0,84.0
900,187.14103330625002,187.28248055208337,54.0,82.0
901,186.94366505625004,187.30879631875,66.0,83.0
902,187.33840155625,187.6015592229167,59.0,87.0
903,187.73313805625003,187.94859839583336,56.0,75.0
904,187.73313805625003,188.17063767708333,61.0,77.0
905,188.12787455625002,188.3318217479167,56.0,83.0
906,188.52261105625,188.7117556291667,56.0,85.0
907,188.52261105625,188.7314924541667,65.0,82.0
908,187.73313805625003,188.89761073125004,49.0,83.0
909,188.71997930625002,188.95353173541668,61.0,77.0
910,188.91734755625004,189.06372900833335,56.0,83.0
911,189.31208405625,189.52589966041668,54.0,81.0
912,189.31208405625,189.81866256458335,63.0,79.0
913,189.70682055625002,190.31043845416667,54.0,81.0
914,189.90418880625003,190.32359633750002,59.0,82.0
915,190.29892530625003,190.6064908291667,63.0,82.0
916,189.31208405625,190.65418815625003,47.0,83.0
917,190.49629355625,190.74135913333336,59.0,74.0
918,190.69366180625002,190.86142481875004,54.0,81.0
919,190.89103005625003,191.12129301458336,54.0,66.0
920,190.89103005625003,191.39102962291668,59.0,79.0
921,191.28576655625002,191.51602951458335,54.0,81.0
922,190.89103005625003,191.77096350416667,47.0,82.0
923,191.68050305625002,192.11471320625003,59.0,84.0
924,191.68050305625002,192.30221304375002,63.0,85.0
925,192.07523955625004,192.3729366666667,54.0,87.0
926,192.27260780625002,192.42885767083334,59.0,76.0
927,191.87787130625003,192.4370813479167,47.0,84.0
928,192.46997605625,192.86800202708335,58.0,77.0
929,192.46997605625,193.1130676041667,66.0,78.0
930,193.06208080625004,193.39102788958337,58.0,87.0
931,193.25944905625002,193.46668571875003,61.0,82.0
932,192.86471255625003,193.71833023750003,49.0,76.0
933,192.46997605625,193.77096177083337,42.0,82.0
934,193.45681730625,193.84990907083335,66.0,82.0
935,193.65418555625,193.9370800479167,58.0,75.0
936,193.85155380625002,193.99793525833337,61.0,71.0
937,194.04892205625003,194.29892183958336,56.0,82.0
938,194.04892205625003,194.55879003541668,65.0,79.0
939,194.44365855625003,194.89760553125,56.0,82.0
940,194.64102680625,194.93214497500003,61.0,87.0
941,194.04892205625003,195.19530264166667,49.0,85.0
942,195.03576330625003,195.28247361875003,65.0,90.0
943,195.23313155625002,195.51109184166668,61.0,78.0
944,195.43049980625003,195.53905234375003,56.0,77.0
945,195.62786805625,195.88444678125,58.0,81.0
946,195.62786805625,196.08674923750002,63.0,76.0
947,196.02260455625003,196.2018807166667,58.0,79.0
948,196.41734105625002,196.60977510000004,58.0,81.0
949,196.41734105625002,196.78905126041667,66.0,80.0
950,196.61470930625,196.91405115208335,63.0,74.0
951,195.62786805625,196.92556430000002,51.0,81.0
952,196.81207755625002,197.01766948333335,58.0,75.0
953,197.20681405625004,197.6278663229167,58.0,75.0
954,197.20681405625004,197.63280052916667,61.0,76.0
955,197.60155055625,197.84003719166668,53.0,77.0
956,197.79891880625001,198.04069491250004,65.0,85.0
957,197.79891880625001,198.0620764729167,58.0,83.0
958,197.20681405625004,198.33016834583336,46.0,81.0
959,197.99628705625003,198.36141831875003,53.0,81.0
960,198.19365530625004,198.3976024979167,61.0,82.0
961,198.39102355625002,198.5110892416667,58.0,81.0
962,198.78576005625,198.93707571458336,59.0,73.0
963,198.78576005625,199.20352285208335,63.0,77.0
964,199.18049655625003,199.42556213333336,59.0,83.0
965,198.98312830625002,199.44365422291668,54.0,77.0
966,198.78576005625,199.73806186250002,47.0,86.0
967,199.57523305625003,199.83510125208335,54.0,77.0
968,199.37786480625002,199.86141701875002,66.0,83.0
969,199.77260130625,200.02260108958336,59.0,82.0
970,199.96996955625002,200.2232588104167,63.0,73.0
971,200.36470605625004,200.55549536458335,56.0,80.0
972,200.36470605625004,200.78082411666668,61.0,77.0
973,200.75944255625,200.85319247500001,56.0,77.0
974,200.95681080625002,201.19694217708337,56.0,83.0
975,200.95681080625002,201.30056050833338,65.0,82.0
976,200.36470605625004,201.46338931458337,49.0,83.0
977,201.35154730625004,201.5949681479167,61.0,82.0
978,201.54891555625002,201.65253388750003,56.0,79.0
979,201.94365205625002,202.33674382083336,58.0,76.0
980,201.94365205625002,202.51601998125003,61.0,81.0
981,202.53575680625002,202.80549341458334,58.0,81.0
982,202.73312505625,202.93542751250004,61.0,87.0
983,202.33838855625004,203.04398005000002,49.0,71.0
984,201.94365205625002,203.0900326416667,42.0,82.0
985,202.93049330625,203.23476935833335,66.0,83.0
986,203.12786155625002,203.34825610208335,61.0,81.0
987,203.32522980625004,203.39759816458337,58.0,70.0
988,203.52259805625002,203.63115059375002,56.0,85.0
989,203.52259805625002,203.73147945416667,61.0,81.0
990,203.71996630625003,203.97490029583335,56.0,82.0
991,203.91733455625,204.02424235833337,61.0,74.0
992,203.52259805625002,204.23476849166667,49.0,82.0
993,204.11470280625002,204.37128153125002,56.0,81.0
994,204.11470280625002,204.3975972979167,65.0,82.0
995,204.31207105625003,204.64101813958337,49.0,82.0
996,204.50943930625004,204.73970226458334,61.0,92.0
997,204.70680755625003,204.86470215625002,56.0,86.0
998,205.10154405625002,205.53410947083336,58.0,80.0
999,205.10154405625002,205.6262146541667,61.0,81.0
1000,205.49628055625004,205.9518722666667,49.0,74.0
1001,205.89101705625,206.02588536041668,58.0,82.0
1002,205.89101705625,206.14101683958336,61.0,86.0
1003,205.10154405625002,206.31535879375002,42.0,82.0
1004,206.08838530625002,206.33345088333334,49.0,77.0
1005,205.89101705625,206.3515429729167,66.0,81.0
1006,206.28575355625003,206.44200342083337,58.0,82.0
1007,206.68049005625002,206.87621357083336,56.0,82.0
1008,206.68049005625002,207.28904216041667,65.0,82.0
1009,207.07522655625002,207.31042372083334,56.0,76.0
1010,207.46996305625004,207.57687085833334,56.0,86.0
1011,207.46996305625004,207.71996283958336,61.0,81.0
1012,206.68049005625002,207.90746267708334,49.0,82.0
1013,207.66733130625002,207.9255547666667,56.0,82.0
1014,207.86469955625003,208.1377256354167,61.0,81.0
1015,208.25943605625002,208.44858062916668,58.0,76.0
1016,208.25943605625002,208.71338303125003,63.0,76.0
1017,208.65417255625002,208.81535662708336,58.0,73.0
1018,209.04890905625,209.2380536291667,58.0,81.0
1019,209.04890905625,209.29890883958336,66.0,80.0
1020,209.24627730625002,209.43871135,63.0,75.0
1021,208.25943605625002,209.48640867708338,51.0,75.0
1022,209.44364555625003,209.68048745625003,58.0,80.0
1023,209.83838205625003,209.99463192083334,58.0,76.0
1024,209.83838205625003,210.06371080833335,61.0,76.0
1025,210.23311855625002,210.33673688750002,58.0,84.0
1026,210.03575030625,210.4913420166667,53.0,81.0
1027,210.43048680625003,210.70351288541667,58.0,84.0
1028,210.43048680625003,210.7725917729167,65.0,82.0
1029,209.83838205625003,210.93048637291668,46.0,81.0
1030,210.62785505625004,210.93048637291668,53.0,81.0
1031,210.82522330625002,211.01272314375,61.0,82.0
1032,211.02259155625,211.14430197708336,58.0,82.0
1033,211.41732805625003,212.02259068958335,59.0,78.0
1034,211.41732805625003,212.07851169375004,63.0,80.0
1035,211.81206455625002,212.32357727083337,54.0,69.0
1036,211.41732805625003,212.39265615833335,47.0,84.0
1037,212.20680105625001,212.58509020208336,59.0,82.0
1038,212.20680105625001,212.70844535833336,66.0,80.0
1039,212.60153755625004,212.72324797708336,54.0,80.0
1040,212.20680105625001,212.7462742729167,63.0,82.0
1041,212.99627405625003,213.18870810000004,56.0,78.0
1042,212.99627405625003,213.4123921166667,61.0,77.0
1043,213.39101055625002,213.47982626875003,56.0,74.0
1044,213.58837880625003,214.0242336916667,65.0,84.0
1045,213.98311530625003,214.19364143958336,61.0,83.0
1046,212.99627405625003,214.22160194166668,49.0,84.0
1047,214.18048355625,214.27916768125004,56.0,82.0
1048,214.57522005625003,214.75778568750002,54.0,81.0
1049,214.57522005625003,215.0998906541667,59.0,77.0
1050,214.96995655625003,215.17883795416668,54.0,70.0
1051,215.36469305625002,215.69857434583338,63.0,77.0
1052,215.36469305625002,215.71337696458335,54.0,81.0
1053,214.57522005625003,215.97982410208334,47.0,82.0
1054,215.95679780625002,216.19692917708335,54.0,80.0
1055,215.95679780625002,216.3531790416667,59.0,81.0
1056,216.35153430625002,216.51600784791668,54.0,82.0
1057,216.54890255625003,216.70515242083337,59.0,81.0
1058,216.74627080625004,216.84988913750004,54.0,74.0
1059,216.94363905625002,217.14923098333335,54.0,82.0
1060,216.94363905625002,217.1771914854167,63.0,82.0
1061,216.15416605625,217.29725717083335,47.0,75.0
1062,217.14100730625003,217.32192820208337,59.0,81.0
1063,217.33837555625,217.5669937791667,54.0,82.0
1064,217.53574380625003,217.65416475625003,59.0,82.0
1065,217.73311205625004,218.13113802708335,61.0,81.0
1066,217.73311205625004,218.28409842083335,54.0,79.0
1067,218.12784855625003,218.57192711875,49.0,75.0
1068,217.73311205625004,218.65580862500002,42.0,83.0
1069,218.52258505625002,218.86140055208335,54.0,82.0
1070,218.52258505625002,219.0225846229167,58.0,86.0
1071,218.91732155625004,219.1311371604167,49.0,71.0
1072,218.52258505625002,219.1311371604167,61.0,84.0
1073,219.11468980625003,219.23640022708338,54.0,82.0
1074,219.31205805625,219.57192625208336,56.0,76.0
1075,219.31205805625,219.7824523854167,61.0,70.0
1076,219.70679455625003,219.96666275208338,56.0,83.0
1077,220.10153105625002,220.2413335666667,56.0,81.0
1078,219.31205805625,220.32685980833335,49.0,85.0
1079,220.10153105625002,220.37784660625005,61.0,84.0
1080,220.10153105625002,220.40745184375004,65.0,83.0
1081,220.49626755625002,220.69363580625003,56.0,81.0
1082,220.89100405625004,221.11797754375004,58.0,76.0
1083,220.89100405625004,221.34824050208334,63.0,75.0
1084,221.28574055625,221.40416150625003,58.0,77.0
1085,221.68047705625003,221.81041115416667,58.0,82.0
1086,221.68047705625003,221.88442424791668,66.0,81.0
1087,222.07521355625002,222.19856871250002,58.0,74.0
1088,220.89100405625004,222.31041072083337,51.0,81.0
1089,222.27258180625003,222.57850259375004,63.0,82.0
1090,222.86468655625004,223.02093642083338,58.0,87.0
1091,222.66731830625002,223.35481771041668,53.0,76.0
1092,222.46995005625,223.42060712708337,46.0,82.0
1093,223.25942305625003,223.63771220208338,61.0,97.0
1094,223.25942305625003,223.64100167291667,58.0,84.0
1095,223.65415955625002,223.79560680208334,53.0,79.0
1096,224.04889605625004,224.3071195166667,63.0,75.0
1097,224.04889605625004,224.31698792916671,59.0,74.0
1098,224.44363255625,224.9041584729167,54.0,50.0
1099,224.04889605625004,224.94034265208336,47.0,88.0
1100,224.83836905625003,225.0571188666667,59.0,85.0
1101,225.03573730625004,225.19198717083336,54.0,81.0
1102,224.83836905625003,225.2396844979167,63.0,84.0
1103,225.23310555625002,225.46501325000003,59.0,83.0
1104,225.43047380625,225.56369737500003,63.0,76.0
1105,225.62784205625002,225.85317080833335,56.0,76.0
1106,225.62784205625002,226.08672323750002,61.0,82.0
1107,226.02257855625004,226.21994680625002,56.0,82.0
1108,226.41731505625003,226.5209333875,56.0,84.0
1109,225.62784205625002,226.61797277708337,49.0,85.0
1110,226.41731505625003,226.75613055208336,65.0,83.0
1111,226.41731505625003,226.7676437,61.0,84.0
1112,226.81205155625003,226.89264359166668,56.0,76.0
1113,227.20678805625005,227.56698511250002,58.0,76.0
1114,227.20678805625005,227.59987982083337,54.0,81.0
1115,227.60152455625,228.04066891250002,49.0,62.0
1116,227.99626105625003,228.15580039166667,54.0,84.0
1117,227.99626105625003,228.2183003375,66.0,82.0
1118,228.19362930625005,228.5850763354167,49.0,78.0
1119,227.20678805625005,228.58672107083336,42.0,83.0
1120,228.39099755625003,228.61139210208336,58.0,81.0
1121,228.39099755625003,228.66731310625002,54.0,83.0
1122,228.98310230625003,229.195273175,56.0,86.0
1123,229.18047055625004,229.35645724583335,61.0,81.0
1124,229.37783880625003,229.48145713750003,56.0,84.0
1125,228.58836580625,229.5521807604167,49.0,83.0
1126,229.57520705625,229.68375959375004,56.0,88.0
1127,229.57520705625,229.81040422083336,65.0,85.0
1128,229.77257530625002,229.96665408541668,49.0,83.0
1129,229.96994355625003,230.26435119583334,56.0,86.0
1130,230.16731180625004,230.31533799375,61.0,83.0
1131,230.36468005625002,230.75448235000005,58.0,77.0
1132,230.36468005625002,230.95514007083335,61.0,81.0
1133,230.95678480625003,231.23310035625002,58.0,82.0
1134,231.15415305625004,231.36138971875005,61.0,88.0
1135,231.35152130625002,231.36138971875005,61.0,82.0
1136,231.15415305625004,231.38606075,66.0,83.0
1137,230.75941655625002,231.43869228333335,49.0,70.0
1138,230.36468005625002,231.51599484791672,42.0,83.0
1139,231.54888955625003,231.66237630000003,58.0,80.0
1140,231.94362605625003,232.13277062916669,56.0,85.0
1141,232.14099430625004,232.25283631458336,56.0,81.0
1142,231.94362605625003,232.37125726458336,61.0,81.0
1143,232.53573080625003,232.80053320833335,56.0,86.0
1144,232.53573080625003,232.8465858,65.0,82.0
1145,232.93046730625002,233.14099343958335,61.0,88.0
1146,233.12783555625003,233.3959274291667,56.0,81.0
1147,231.94362605625003,233.39757216458335,49.0,83.0
1148,233.32520380625002,233.49790102500003,61.0,76.0
1149,233.52257205625003,233.7511902791667,58.0,74.0
1150,233.52257205625003,233.95184800000004,63.0,74.0
1151,233.91730855625002,234.07355842083336,58.0,82.0
1152,233.52257205625003,234.36961079583335,51.0,81.0
1153,234.31204505625,234.49461068750003,58.0,81.0
1154,234.31204505625,234.55875536875004,66.0,81.0
1155,234.50941330625002,234.79066306250002,63.0,79.0
1156,234.70678155625004,234.94362345625004,61.0,75.0
1157,234.90414980625002,235.1821100916667,58.0,82.0
1158,235.49625455625002,235.74132013333337,58.0,87.0
1159,235.69362280625003,235.78737272500004,61.0,88.0
1160,235.29888630625004,235.92059629375004,53.0,82.0
1161,235.89099105625002,236.0752014229167,58.0,82.0
1162,235.89099105625002,236.142635575,65.0,83.0
1163,235.10151805625003,236.20678025625003,46.0,82.0
1164,236.08835930625003,236.2478986416667,53.0,83.0
1165,236.28572755625004,236.42717480208336,58.0,85.0
1166,236.68046405625003,237.14427944375004,59.0,76.0
1167,236.68046405625003,237.24625303958337,63.0,81.0
1168,237.07520055625002,237.51270017708336,54.0,76.0
1169,236.68046405625003,237.58342380000002,47.0,87.0
1170,237.46993705625002,237.64263427500003,59.0,84.0
1171,237.66730530625003,237.80875255208335,54.0,82.0
1172,237.46993705625002,237.83506831875002,66.0,83.0
1173,237.86467355625004,238.12783122291668,59.0,87.0
1174,238.25941005625003,238.47487039583336,56.0,75.0
1175,238.25941005625003,238.69690967708337,61.0,77.0
1176,238.65414655625003,238.85809374791668,56.0,83.0
1177,239.04888305625002,239.2380276291667,56.0,85.0
1178,239.04888305625002,239.2577644541667,65.0,82.0
1179,238.25941005625003,239.42388273125002,49.0,83.0
1180,239.24625130625003,239.4798037354167,61.0,77.0
1181,239.44361955625004,239.59000100833336,56.0,83.0
1182,239.83835605625003,240.0521716604167,54.0,81.0
1183,239.83835605625003,240.34493456458335,63.0,79.0
1184,240.23309255625003,240.8367104541667,54.0,81.0
1185,240.43046080625004,240.84986833750003,59.0,82.0
1186,240.82519730625003,241.1327628291667,63.0,82.0
1187,239.83835605625003,241.18046015625004,47.0,83.0
1188,241.02256555625002,241.26763113333337,59.0,74.0
1189,241.21993380625003,241.38769681875002,54.0,81.0
1190,241.41730205625004,241.64756501458336,54.0,66.0
1191,241.41730205625004,241.91730162291668,59.0,79.0
1192,241.81203855625003,242.04230151458336,54.0,81.0
1193,241.41730205625004,242.2972355041667,47.0,82.0
1194,242.20677505625002,242.64098520625004,59.0,84.0
1195,242.20677505625002,242.82848504375002,63.0,85.0
1196,242.60151155625002,242.8992086666667,54.0,87.0
1197,242.79887980625003,242.95512967083337,59.0,76.0
1198,242.40414330625003,242.9633533479167,47.0,84.0
1199,242.99624805625004,243.39427402708336,61.0,81.0
1200,242.99624805625004,243.54723442083338,54.0,79.0
1201,243.39098455625003,243.83506311875004,49.0,75.0
1202,242.99624805625004,243.91894462500002,42.0,83.0
1203,243.78572105625003,244.12453655208336,54.0,82.0
1204,243.78572105625003,244.2857206229167,58.0,86.0
1205,244.18045755625002,244.3942731604167,49.0,71.0
1206,243.78572105625003,244.3942731604167,61.0,84.0
1207,244.37782580625003,244.49953622708335,54.0,82.0
1208,244.57519405625004,244.83506225208336,56.0,76.0
1209,244.57519405625004,245.0455883854167,61.0,70.0
1210,244.96993055625003,245.22979875208335,56.0,83.0
1211,245.36466705625003,245.5044695666667,56.0,81.0
1212,244.57519405625004,245.58999580833336,49.0,85.0
1213,245.36466705625003,245.64098260625002,61.0,84.0
1214,245.36466705625003,245.67058784375004,65.0,83.0
1215,245.75940355625002,245.95677180625003,56.0,81.0
1216,246.15414005625004,246.38111354375002,58.0,76.0
1217,246.15414005625004,246.61137650208337,63.0,75.0
1218,246.54887655625004,246.66729750625004,58.0,77.0
1219,246.94361305625003,247.0735471541667,58.0,82.0
1220,246.94361305625003,247.1475602479167,66.0,81.0
1221,247.33834955625002,247.46170471250002,58.0,74.0
1222,246.15414005625004,247.57354672083338,51.0,81.0
1223,247.53571780625003,247.84163859375002,63.0,82.0
1224,248.12782255625004,248.28407242083335,58.0,87.0
1225,247.93045430625003,248.61795371041669,53.0,76.0
1226,247.73308605625002,248.68374312708337,46.0,82.0
1227,248.52255905625003,248.90084820208335,61.0,97.0
1228,248.52255905625003,248.9041376729167,58.0,84.0
1229,248.91729555625002,249.05874280208337,53.0,79.0
1230,249.31203205625002,249.5702555166667,63.0,75.0
1231,249.31203205625002,249.5801239291667,59.0,74.0
1232,249.70676855625004,250.1672944729167,54.0,50.0
1233,249.31203205625002,250.20347865208336,47.0,88.0
1234,250.10150505625003,250.3202548666667,59.0,85.0
1235,250.29887330625004,250.45512317083336,54.0,81.0
1236,250.10150505625003,250.5028204979167,63.0,84.0
1237,250.49624155625003,250.72814925000003,59.0,83.0
1238,250.69360980625004,250.82683337500004,63.0,76.0
1239,250.89097805625002,251.11630680833338,56.0,76.0
1240,250.89097805625002,251.34985923750003,61.0,82.0
1241,251.28571455625004,251.48308280625002,56.0,82.0
1242,251.68045105625004,251.78406938750004,56.0,84.0
1243,250.89097805625002,251.88110877708337,49.0,85.0
1244,251.68045105625004,252.01926655208337,65.0,83.0
1245,251.68045105625004,252.03077970000004,61.0,84.0
1246,252.07518755625003,252.1557795916667,56.0,76.0
1247,252.46992405625002,252.83012111250002,58.0,76.0
1248,252.46992405625002,252.86301582083337,54.0,81.0
1249,252.86466055625004,253.30380491250003,49.0,62.0
1250,253.25939705625004,253.4189363916667,54.0,84.0
1251,253.25939705625004,253.48143633750004,66.0,82.0
1252,253.45676530625002,253.8482123354167,49.0,78.0
1253,252.46992405625002,253.84985707083337,42.0,83.0
1254,253.65413355625003,253.87452810208336,58.0,81.0
1255,253.65413355625003,253.93044910625002,54.0,83.0
1256,254.24623830625004,254.45840917500004,56.0,86.0
1257,254.44360655625002,254.61959324583336,61.0,81.0
1258,254.64097480625003,254.74459313750003,56.0,84.0
1259,253.85150180625004,254.8153167604167,49.0,83.0
1260,254.83834305625004,254.94689559375004,56.0,88.0
1261,254.83834305625004,255.07354022083337,65.0,85.0
1262,255.03571130625002,255.2297900854167,49.0,83.0
1263,255.23307955625003,255.52748719583337,56.0,86.0
1264,255.43044780625004,255.57847399375004,61.0,83.0
1265,255.62781605625003,256.01761835,58.0,77.0
1266,255.62781605625003,256.2182760708333,61.0,81.0
1267,256.21992080625,256.49623635625005,58.0,82.0
1268,256.41728905625007,256.62452571875,61.0,88.0
1269,256.61465730625,256.62452571875,61.0,82.0
1270,256.41728905625007,256.64919675000004,66.0,83.0
1271,256.02255255625005,256.7018282833334,49.0,70.0
1272,255.62781605625003,256.7791308479167,42.0,83.0
1273,256.81202555625003,256.92551230000004,58.0,80.0
1274,257.20676205625,257.3959066291667,56.0,85.0
1275,257.40413030625007,257.51597231458334,56.0,81.0
1276,257.20676205625,257.63439326458337,61.0,81.0
1277,257.79886680625003,258.06366920833335,56.0,86.0
1278,257.79886680625003,258.10972180000005,65.0,82.0
1279,258.19360330625,258.40412943958336,61.0,88.0
1280,258.39097155625007,258.65906342916674,56.0,81.0
1281,257.20676205625,258.66070816458335,49.0,83.0
1282,258.58833980625,258.76103702500006,61.0,76.0
1283,258.78570805625003,259.0143262791667,58.0,74.0
1284,258.78570805625003,259.2149840000001,63.0,74.0
1285,259.18044455625,259.3366944208334,58.0,82.0
1286,258.78570805625003,259.6327467958333,51.0,81.0
1287,259.57518105625,259.7577466875,58.0,81.0
1288,259.57518105625,259.82189136875,66.0,81.0
1289,259.77254930625,260.05379906250005,63.0,79.0
1290,259.96991755625004,260.20675945625004,61.0,75.0
1291,260.16728580625,260.4452460916667,58.0,82.0
1292,260.75939055625,261.0044561333334,58.0,87.0
1293,260.95675880625004,261.05050872500004,61.0,88.0
1294,260.56202230625,261.18373229375004,53.0,82.0
1295,261.15412705625,261.3383374229167,58.0,82.0
1296,261.15412705625,261.405771575,65.0,83.0
1297,260.36465405625006,261.46991625625003,46.0,82.0
1298,261.35149530625006,261.5110346416667,53.0,83.0
1299,261.54886355625,261.69031080208333,58.0,85.0
1300,261.94360005625003,262.40741544375004,59.0,76.0
1301,261.94360005625003,262.50938903958337,63.0,81.0
1302,262.33833655625006,262.77583617708336,54.0,76.0
1303,261.94360005625003,262.8465598,47.0,87.0
1304,262.73307305625,262.905770275,59.0,84.0
1305,262.93044130625003,263.07188855208335,54.0,82.0
1306,262.73307305625,263.09820431875005,66.0,83.0
1307,263.12780955625004,263.3909672229167,59.0,87.0
1308,263.52254605625,263.7380063958334,56.0,75.0
1309,263.52254605625,263.9600456770834,61.0,77.0
1310,263.91728255625003,264.1212297479167,56.0,83.0
1311,264.31201905625005,264.50116362916674,56.0,85.0
1312,264.31201905625005,264.52090045416674,65.0,82.0
1313,263.52254605625,264.68701873125,49.0,83.0
1314,264.50938730625,264.7429397354167,61.0,77.0
1315,264.7067555562501,264.85313700833336,56.0,83.0
1316,265.10149205625004,265.3153076604167,54.0,81.0
1317,265.10149205625004,265.6080705645834,63.0,79.0
1318,265.49622855625,266.0998464541667,54.0,81.0
1319,265.69359680625007,266.1130043375,59.0,82.0
1320,266.08833330625004,266.3958988291667,63.0,82.0
1321,265.10149205625004,266.44359615625,47.0,83.0
1322,266.28570155625005,266.53076713333337,59.0,74.0
1323,266.48306980625,266.65083281875,54.0,81.0
1324,266.68043805625007,266.91070101458337,54.0,66.0
1325,266.68043805625007,267.1804376229167,59.0,79.0
1326,267.07517455625003,267.30543751458333,54.0,81.0
1327,266.68043805625007,267.5603715041667,47.0,82.0
1328,267.46991105625,267.90412120625,59.0,84.0
1329,267.46991105625,268.09162104375,63.0,85.0
1330,267.86464755625,268.16234466666674,54.0,87.0
1331,268.06201580625003,268.2182656708334,59.0,76.0
1332,267.66727930625007,268.2264893479167,47.0,84.0
1333,268.25938405625004,268.65741002708336,58.0,77.0
1334,268.25938405625004,268.90247560416674,66.0,78.0
1335,268.85148880625,269.18043588958335,58.0,87.0
1336,269.04885705625003,269.25609371875004,61.0,82.0
1337,268.65412055625006,269.5077382375,49.0,76.0
1338,268.25938405625004,269.5603697708334,42.0,82.0
1339,269.24622530625004,269.6393170708334,66.0,82.0
1340,269.44359355625,269.7264880479167,58.0,75.0
1341,269.64096180625006,269.7873432583334,61.0,71.0
1342,269.83833005625,270.08832983958337,56.0,82.0
1343,269.83833005625,270.34819803541666,65.0,79.0
1344,270.23306655625004,270.68701353125005,56.0,82.0
1345,270.43043480625,270.721552975,61.0,87.0
1346,269.83833005625,270.9847106416667,49.0,85.0
1347,270.82517130625,271.07188161875,65.0,90.0
1348,271.02253955625,271.3004998416667,61.0,78.0
1349,271.21990780625003,271.32846034375007,56.0,77.0
1350,271.41727605625005,271.67385478125004,58.0,81.0
1351,271.41727605625005,271.8761572375,63.0,76.0
1352,271.81201255625,271.9912887166667,58.0,79.0
1353,272.20674905625003,272.3991831000001,58.0,81.0
1354,272.20674905625003,272.5784592604167,66.0,80.0
1355,272.40411730625004,272.7034591520834,63.0,74.0
1356,271.41727605625005,272.7149723,51.0,81.0
1357,272.60148555625005,272.8070774833334,58.0,75.0
1358,272.9962220562501,273.4172743229167,58.0,75.0
1359,272.9962220562501,273.4222085291667,61.0,76.0
1360,273.39095855625004,273.6294451916667,53.0,77.0
1361,273.58832680625005,273.8301029125,65.0,85.0
1362,273.58832680625005,273.8514844729167,58.0,83.0
1363,272.9962220562501,274.11957634583337,46.0,81.0
1364,273.78569505625,274.15082631875003,53.0,81.0
1365,273.9830633062501,274.18701049791673,61.0,82.0
1366,274.18043155625,274.3004972416667,58.0,81.0
1367,274.57516805625005,274.72648371458337,59.0,73.0
1368,274.57516805625005,274.99293085208336,63.0,77.0
1369,274.96990455625007,275.2149701333334,59.0,83.0
1370,274.77253630625,275.2330622229167,54.0,77.0
1371,274.57516805625005,275.5274698625,47.0,86.0
1372,275.36464105625004,275.6245092520834,54.0,77.0
1373,275.16727280625,275.65082501875,66.0,83.0
1374,275.56200930625005,275.8120090895834,59.0,82.0
1375,275.75937755625,276.0126668104167,63.0,73.0
1376,276.15411405625,276.3449033645834,56.0,80.0
1377,276.15411405625,276.5702321166667,61.0,77.0
1378,276.54885055625004,276.642600475,56.0,77.0
1379,276.74621880625,276.9863501770834,56.0,83.0
1380,276.74621880625,277.08996850833336,65.0,82.0
1381,276.15411405625,277.2527973145834,49.0,83.0
1382,277.14095530625,277.38437614791667,61.0,82.0
1383,277.33832355625003,277.44194188750004,56.0,79.0
1384,277.73306005625,278.12615182083334,58.0,76.0
1385,277.73306005625,278.30542798125003,61.0,81.0
1386,278.32516480625003,278.5949014145834,58.0,81.0
1387,278.52253305625004,278.7248355125,61.0,87.0
1388,278.12779655625,278.83338805000005,49.0,71.0
1389,277.73306005625,278.8794406416667,42.0,82.0
1390,278.71990130625,279.02417735833336,66.0,83.0
1391,278.91726955625006,279.13766410208336,61.0,81.0
1392,279.11463780625,279.1870061645834,58.0,70.0
1393,279.31200605625,279.42055859375,56.0,85.0
1394,279.31200605625,279.5208874541667,61.0,81.0
1395,279.50937430625004,279.76430829583336,56.0,82.0
1396,279.70674255625005,279.81365035833335,61.0,74.0
1397,279.31200605625,280.0241764916667,49.0,82.0
1398,279.90411080625006,280.16068953125,56.0,81.0
1399,279.90411080625006,280.1870052979167,65.0,82.0
1400,280.10147905625,280.43042613958335,49.0,82.0
1401,280.29884730625,280.5291102645834,61.0,92.0
1402,280.49621555625004,280.65411015625,56.0,86.0
1403,280.89095205625006,281.3235174708334,58.0,80.0
1404,280.89095205625006,281.41562265416667,61.0,81.0
1405,281.28568855625,281.7412802666667,49.0,74.0
1406,281.68042505625004,281.8152933604167,58.0,82.0
1407,281.68042505625004,281.93042483958334,61.0,86.0
1408,280.89095205625006,282.10476679375006,42.0,82.0
1409,281.87779330625006,282.1228588833334,49.0,77.0
1410,281.68042505625004,282.1409509729167,66.0,81.0
1411,282.07516155625,282.2314114208334,58.0,82.0
1412,282.46989805625003,282.66562157083337,56.0,82.0
1413,282.46989805625003,283.0784501604167,65.0,82.0
1414,282.86463455625005,283.0998317208334,56.0,76.0
1415,283.2593710562501,283.3662788583334,56.0,86.0
1416,283.2593710562501,283.50937083958337,61.0,81.0
1417,282.46989805625003,283.6968706770834,49.0,82.0
1418,283.45673930625003,283.7149627666667,56.0,82.0
1419,283.65410755625004,283.9271336354167,61.0,81.0
1420,284.04884405625,284.2379886291667,58.0,76.0
1421,284.04884405625,284.50279103125,63.0,76.0
1422,284.44358055625,284.60476462708334,58.0,73.0
1423,284.83831705625005,285.02746162916674,58.0,81.0
1424,284.83831705625005,285.0883168395834,66.0,80.0
1425,285.03568530625,285.22811935000004,63.0,75.0
1426,284.04884405625,285.27581667708336,51.0,75.0
1427,285.23305355625007,285.46989545625,58.0,80.0
1428,285.62779005625003,285.7840399208334,58.0,76.0
1429,285.62779005625003,285.85311880833336,61.0,76.0
1430,286.02252655625,286.1261448875,58.0,84.0
1431,285.82515830625005,286.28075001666673,53.0,81.0
1432,286.21989480625007,286.4929208854167,58.0,84.0
1433,286.21989480625007,286.5619997729167,65.0,82.0
1434,285.62779005625003,286.7198943729167,46.0,81.0
1435,286.41726305625,286.7198943729167,53.0,81.0
1436,286.61463130625003,286.80213114375005,61.0,82.0
1437,286.81199955625004,286.93370997708337,58.0,82.0
1438,287.20673605625007,287.81199868958333,59.0,78.0
1439,287.20673605625007,287.86791969375,63.0,80.0
1440,287.60147255625003,288.1129852708334,54.0,69.0
1441,287.20673605625007,288.18206415833333,47.0,84.0
1442,287.99620905625,288.3744982020834,59.0,82.0
1443,287.99620905625,288.4978533583334,66.0,80.0
1444,288.39094555625,288.51265597708334,54.0,80.0
1445,287.99620905625,288.5356822729167,63.0,82.0
1446,288.78568205625004,288.9781161,56.0,78.0
1447,288.78568205625004,289.20180011666673,61.0,77.0
1448,289.18041855625006,289.26923426875004,56.0,74.0
1449,289.37778680625,289.8136416916667,65.0,84.0
1450,289.77252330625004,289.9830494395834,61.0,83.0
1451,288.78568205625004,290.0110099416667,49.0,84.0
1452,289.96989155625005,290.06857568125,56.0,82.0
1453,290.34489123125,290.6771277854167,54.0,70.0
1454,290.33995702500005,291.21331153125004,63.0,77.0
1455,290.3531149083334,291.2692325354167,47.0,85.0
1456,290.7708777041667,291.405745575,54.0,81.0
1457,291.1771273520834,291.47811393333336,59.0,82.0
1458,291.82350837083334,292.07515288958336,56.0,68.0
1459,291.9123240833334,292.7462049395834,61.0,65.0
1460,292.0011397958334,292.82515223958336,65.0,77.0
1461,291.9698898229167,292.91232321666666,49.0,73.0
1462,293.4106780479167,295.3827158125,39.0,70.0
1463,293.3613359854167,295.4353473458334,58.0,52.0
1464,293.5208753208334,295.44521575833335,66.0,69.0
1465,293.42054646041674,295.4501499645834,63.0,62.0
