,start,end,pitch,velocity
0,29.408996800000004,29.687405000000005,64.0,108.0
1,29.863540800000003,30.369221000000003,69.0,108.0
2,30.545356800000004,30.664674600000005,69.0,97.0
3,30.772628800000003,31.07187026666667,69.0,111.0
4,31.227172800000005,31.376793533333338,69.0,100.0
5,31.454444800000005,31.547247533333337,67.0,111.0
6,31.681716800000004,31.996109733333338,67.0,108.0
7,32.1362608,32.69497113333334,62.0,102.0
8,32.81807680000001,32.91277346666667,62.0,94.0
9,33.045348800000006,33.153303,60.0,100.0
10,33.272620800000006,33.365423533333335,62.0,105.0
11,33.499892800000005,34.04723953333334,64.0,105.0
12,34.1817088,34.289663000000004,67.0,102.0
13,34.4089808,34.65898000000001,64.0,94.0
14,34.86352480000001,35.08700893333334,62.0,100.0
15,35.09079680000001,35.314280933333336,64.0,114.0
16,35.318068800000006,36.164657000000005,57.0,82.0
17,36.6817008,36.83510940000001,57.0,105.0
18,36.90897280000001,37.016927,60.0,94.0
19,37.13624480000001,37.30859273333334,62.0,105.0
20,37.590788800000006,37.7498792,62.0,102.0
21,38.045332800000004,38.179802066666674,62.0,94.0
22,38.2726048,38.594573466666674,60.0,89.0
23,38.7271488,38.88434526666667,57.0,97.0
24,38.95442080000001,39.32752566666667,62.0,100.0
25,39.40896480000001,39.579418800000006,64.0,94.0
26,39.636236800000006,40.08699293333334,62.0,100.0
27,40.318052800000004,40.448734200000004,57.0,94.0
28,40.5453248,40.65517293333334,60.0,78.0
29,40.7725968,40.880551000000004,62.0,105.0
30,40.99986880000001,41.10024726666667,62.0,92.0
31,41.22714080000001,41.32183746666667,62.0,100.0
32,41.45441280000001,41.56236700000001,62.0,97.0
33,41.681684800000006,42.01691100000001,67.0,105.0
34,42.136228800000005,42.249864800000005,69.0,108.0
35,42.363500800000004,43.662739066666674,64.0,105.0
36,43.954404800000006,44.17788893333334,64.0,108.0
37,44.181676800000005,44.40516093333334,64.0,108.0
38,44.408948800000005,44.914629000000005,69.0,108.0
39,45.0907648,45.21008260000001,69.0,97.0
40,45.31803680000001,45.61727826666667,69.0,111.0
41,45.77258080000001,45.922201533333336,69.0,100.0
42,45.999852800000006,46.09265553333334,67.0,111.0
43,46.227124800000006,46.541517733333336,67.0,108.0
44,46.681668800000004,47.24037913333334,62.0,102.0
45,47.36348480000001,47.45818146666667,62.0,94.0
46,47.59075680000001,47.698711,60.0,100.0
47,47.81802880000001,47.91083153333334,62.0,105.0
48,48.04530080000001,48.59264753333334,64.0,105.0
49,48.727116800000005,48.835071000000006,67.0,102.0
50,48.954388800000004,49.20438800000001,64.0,94.0
51,49.40893280000001,49.63241693333334,62.0,100.0
52,49.63620480000001,49.85968893333334,64.0,114.0
53,49.86347680000001,50.71006500000001,57.0,82.0
54,51.2271088,51.38051740000001,57.0,105.0
55,51.45438080000001,51.562335000000004,60.0,94.0
56,51.68165280000001,51.85400073333334,62.0,105.0
57,52.13619680000001,52.295287200000004,62.0,102.0
58,52.36346880000001,52.58695293333334,62.0,114.0
59,52.590740800000006,53.04149693333334,62.0,94.0
60,53.045284800000005,53.367253466666675,60.0,89.0
61,53.49982880000001,53.72331293333334,62.0,100.0
62,53.72710080000001,53.95058493333334,62.0,114.0
63,54.18164480000001,54.35209880000001,64.0,94.0
64,54.40891680000001,54.85967293333334,62.0,100.0
65,54.863460800000006,54.98846040000001,60.0,102.0
66,55.090732800000005,55.20058093333334,62.0,100.0
67,55.318004800000004,55.583155466666675,67.0,105.0
68,55.77254880000001,56.918378466666674,64.0,92.0
69,57.136180800000005,57.471407000000006,64.0,105.0
70,57.59072480000001,57.71193653333334,62.0,92.0
71,57.81799680000001,58.37670713333334,62.0,102.0
72,58.49981280000001,58.723296933333344,60.0,105.0
73,58.72708480000001,58.950568933333344,62.0,105.0
74,58.954356800000006,61.67783293333334,57.0,111.0
75,62.59070880000001,62.94298040000001,64.0,82.0
76,63.04525280000001,63.691084066666676,57.0,108.0
77,63.95434080000001,64.23464293333335,60.0,102.0
78,64.40888480000001,65.35774540000001,62.0,105.0
79,65.7725168,65.89372853333334,60.0,89.0
80,65.9997888,66.1134248,62.0,105.0
81,66.2270608,66.71758953333334,64.0,105.0
82,66.9088768,67.04902786666668,62.0,108.0
83,67.13614880000002,67.4316024,60.0,94.0
84,67.59069280000001,67.79334366666667,62.0,108.0
85,68.04523680000001,69.06606686666667,64.0,105.0
86,69.40886880000001,69.52439873333334,64.0,94.0
87,69.6361408,69.74409500000002,67.0,111.0
88,69.8634128,69.96189733333334,69.0,108.0
89,70.0906848,70.20621473333334,72.0,105.0
90,70.3179568,70.89560646666668,69.0,100.0
91,71.22704480000002,71.32742326666667,67.0,97.0
92,71.45431680000002,71.54901346666668,69.0,108.0
93,71.68158880000001,71.93537586666667,67.0,111.0
94,72.13613280000001,72.70431280000001,57.0,105.0
95,73.04522080000001,73.17969006666668,64.0,94.0
96,73.27249280000001,73.37855306666668,67.0,108.0
97,73.49976480000001,75.31415293333335,62.0,105.0
98,77.13611680000001,77.75732693333335,64.0,108.0
99,78.04520480000001,78.35012806666667,57.0,108.0
100,78.4997488,78.81035386666667,64.0,102.0
101,78.9542928,79.92966846666668,62.0,102.0
102,80.31792480000001,80.44860620000001,60.0,92.0
103,80.54519680000001,80.65883280000001,62.0,102.0
104,80.77246880000001,81.26867933333334,64.0,108.0
105,81.45428480000001,81.57549653333335,62.0,105.0
106,81.68155680000001,81.99973760000002,60.0,108.0
107,82.13610080000001,82.34822133333334,67.0,102.0
108,82.5906448,83.5679144,64.0,102.0
109,83.95427680000002,84.06412493333335,64.0,102.0
110,84.18154880000002,84.29139693333335,67.0,102.0
111,84.40882080000002,84.71563800000001,69.0,111.0
112,84.86336480000001,84.999728,69.0,111.0
113,85.09063680000001,85.16828806666668,67.0,102.0
114,85.31790880000001,85.54707473333335,64.0,105.0
115,85.77245280000001,85.88608880000001,60.0,105.0
116,85.99972480000001,86.09442146666667,64.0,100.0
117,86.22699680000001,86.56411693333334,62.0,114.0
118,86.68154080000001,87.13229693333335,62.0,114.0
119,87.5906288,87.70615873333334,60.0,102.0
120,87.81790080000002,87.93911253333334,62.0,105.0
121,88.04517280000002,88.45805026666667,60.0,114.0
122,88.49971680000002,90.87849706666668,57.0,102.0
123,91.6815248,92.03379640000001,64.0,82.0
124,92.13606880000002,92.78190006666668,57.0,108.0
125,93.04515680000002,93.32545893333335,60.0,102.0
126,93.49970080000001,94.44856140000002,62.0,105.0
127,94.86333280000001,94.98454453333335,60.0,89.0
128,95.09060480000001,95.20424080000001,62.0,105.0
129,95.31787680000001,95.80840553333334,64.0,105.0
130,95.99969280000002,96.13984386666668,62.0,108.0
131,96.22696480000002,96.5224184,60.0,94.0
132,96.68150880000002,96.88415966666668,62.0,108.0
133,97.13605280000002,98.15688286666668,64.0,105.0
134,98.49968480000001,98.61521473333335,64.0,94.0
135,98.72695680000001,98.83491100000002,67.0,111.0
136,98.95422880000001,99.05271333333334,69.0,108.0
137,99.18150080000001,99.29703073333334,72.0,105.0
138,99.40877280000001,99.98642246666668,69.0,100.0
139,100.31786080000002,100.41823926666667,67.0,97.0
140,100.54513280000002,100.63982946666668,69.0,108.0
141,100.77240480000002,101.02619186666668,67.0,111.0
142,101.22694880000002,101.79512880000001,57.0,105.0
143,102.13603680000001,102.27050606666668,64.0,94.0
144,102.36330880000001,102.46936906666669,67.0,108.0
145,102.59058080000001,104.40496893333335,62.0,105.0
146,106.22693280000001,106.84814293333335,64.0,108.0
147,107.13602080000001,107.44094406666667,57.0,108.0
148,107.59056480000001,107.90116986666668,64.0,102.0
149,108.04510880000001,109.02048446666669,62.0,102.0
150,109.40874080000002,109.53942220000002,60.0,92.0
151,109.63601280000002,109.74964880000002,62.0,102.0
152,109.86328480000002,110.35949533333334,64.0,108.0
153,110.54510080000001,110.66631253333335,62.0,105.0
154,110.77237280000001,111.09055360000002,60.0,108.0
155,111.22691680000001,111.43903733333335,67.0,102.0
156,111.68146080000001,112.65873040000001,64.0,102.0
157,113.04509280000002,113.15494093333335,64.0,102.0
158,113.27236480000002,113.38221293333335,67.0,102.0
159,113.49963680000002,113.80645400000002,69.0,111.0
160,113.95418080000002,114.09054400000001,69.0,111.0
161,114.18145280000002,114.25910406666668,67.0,102.0
162,114.40872480000002,114.63789073333335,64.0,105.0
163,114.86326880000001,114.97690480000001,60.0,105.0
164,115.09054080000001,115.18523746666668,64.0,100.0
165,115.31781280000001,115.65493293333334,62.0,114.0
166,115.77235680000001,116.22311293333335,62.0,114.0
167,116.68144480000001,116.79697473333334,60.0,102.0
168,116.90871680000002,117.02992853333335,62.0,105.0
169,117.13598880000002,117.54886626666668,60.0,114.0
170,117.59053280000002,119.96931306666669,57.0,102.0
171,149.8631568,150.2154284,64.0,82.0
172,150.3177008,150.9635320666667,57.0,108.0
173,151.2267888,151.50709093333336,60.0,102.0
174,151.6813328,152.63019340000002,62.0,105.0
175,153.04496480000003,153.16617653333336,60.0,89.0
176,153.27223680000003,153.38587280000002,62.0,105.0
177,153.49950880000003,153.99003753333335,64.0,105.0
178,154.18132480000003,154.32147586666667,62.0,108.0
179,154.40859680000003,154.70405040000003,60.0,94.0
180,154.86314080000002,155.06579166666668,62.0,108.0
181,155.31768480000002,156.33851486666669,64.0,105.0
182,156.68131680000002,156.79684673333335,64.0,94.0
183,156.90858880000002,157.016543,67.0,111.0
184,157.13586080000002,157.23434533333335,69.0,108.0
185,157.36313280000002,157.47866273333335,72.0,105.0
186,157.59040480000002,158.1680544666667,69.0,100.0
187,158.4994928,158.5998712666667,67.0,97.0
188,158.7267648,158.82146146666668,69.0,108.0
189,158.9540368,159.2078238666667,67.0,111.0
190,159.4085808,159.97676080000002,57.0,105.0
191,160.3176688,160.4521380666667,64.0,94.0
192,160.54494080000003,160.65100106666668,67.0,108.0
193,160.77221280000003,162.58660093333336,62.0,105.0
194,164.40856480000002,165.02977493333336,64.0,108.0
195,165.31765280000002,165.62257606666668,57.0,108.0
196,165.77219680000002,166.0828018666667,64.0,102.0
197,166.22674080000002,167.2021164666667,62.0,102.0
198,167.5903728,167.72105420000003,60.0,92.0
199,167.8176448,167.93128080000002,62.0,102.0
200,168.0449168,168.54112733333335,64.0,108.0
201,168.72673280000004,168.84794453333336,62.0,105.0
202,168.95400480000004,169.27218560000003,60.0,108.0
203,169.40854880000003,169.62066933333335,67.0,102.0
204,169.86309280000003,170.84036240000003,64.0,102.0
205,171.22672480000003,171.33657293333334,64.0,102.0
206,171.45399680000003,171.56384493333334,67.0,102.0
207,171.68126880000003,171.988086,69.0,111.0
208,172.13581280000002,172.27217600000003,69.0,111.0
209,172.36308480000002,172.4407360666667,67.0,102.0
210,172.59035680000002,172.81952273333334,64.0,105.0
211,173.04490080000002,173.15853680000004,60.0,105.0
212,173.27217280000002,173.36686946666669,64.0,100.0
213,173.49944480000002,173.83656493333336,62.0,114.0
214,173.95398880000002,174.40474493333335,62.0,114.0
215,174.86307680000002,174.97860673333335,60.0,102.0
216,175.09034880000002,175.21156053333337,62.0,105.0
217,175.31762080000001,175.7304982666667,60.0,114.0
218,175.7721648,178.15094506666668,57.0,102.0
219,178.49942880000003,178.77783700000003,64.0,108.0
220,178.95397280000003,179.45965300000003,69.0,108.0
221,179.63578880000003,179.75510660000003,69.0,97.0
222,179.86306080000003,180.1623022666667,69.0,111.0
223,180.31760480000003,180.46722553333336,69.0,100.0
224,180.54487680000003,180.63767953333337,67.0,111.0
225,180.77214880000002,181.08654173333335,67.0,108.0
226,181.22669280000002,181.78540313333335,62.0,102.0
227,181.90850880000002,182.00320546666669,62.0,94.0
228,182.13578080000002,182.24373500000002,60.0,100.0
229,182.36305280000002,182.45585553333336,62.0,105.0
230,182.59032480000002,183.13767153333336,64.0,105.0
231,183.27214080000002,183.380095,67.0,102.0
232,183.49941280000002,183.74941200000004,64.0,94.0
233,183.95395680000001,184.17744093333334,62.0,100.0
234,184.1812288,184.40471293333337,64.0,114.0
235,184.4085008,185.25508900000003,57.0,82.0
236,185.77213280000004,185.92554140000001,57.0,105.0
237,185.99940480000004,186.10735900000003,60.0,94.0
238,186.22667680000004,186.39902473333336,62.0,105.0
239,186.68122080000003,186.84031120000003,62.0,102.0
240,187.13576480000003,187.2702340666667,62.0,94.0
241,187.36303680000003,187.6850054666667,60.0,89.0
242,187.81758080000003,187.97477726666668,57.0,97.0
243,188.04485280000003,188.4179576666667,62.0,100.0
244,188.49939680000003,188.66985080000003,64.0,94.0
245,188.72666880000003,189.17742493333336,62.0,100.0
246,189.40848480000002,189.5391662,57.0,94.0
247,189.63575680000002,189.74560493333337,60.0,78.0
248,189.86302880000002,189.97098300000002,62.0,105.0
249,190.09030080000002,190.19067926666668,62.0,92.0
250,190.31757280000002,190.4122694666667,62.0,100.0
251,190.54484480000002,190.65279900000002,62.0,97.0
252,190.77211680000002,191.10734300000001,67.0,105.0
253,191.22666080000002,191.34029680000003,69.0,108.0
254,191.45393280000002,192.75317106666668,64.0,105.0
255,193.0448368,193.26832093333337,64.0,108.0
256,193.2721088,193.49559293333337,64.0,108.0
257,193.4993808,194.005061,69.0,108.0
258,194.18119680000004,194.3005146,69.0,97.0
259,194.40846880000004,194.70771026666668,69.0,111.0
260,194.86301280000004,195.01263353333337,69.0,100.0
261,195.09028480000003,195.18308753333335,67.0,111.0
262,195.31755680000003,195.63194973333336,67.0,108.0
263,195.77210080000003,196.33081113333336,62.0,102.0
264,196.45391680000003,196.5486134666667,62.0,94.0
265,196.68118880000003,196.78914300000002,60.0,100.0
266,196.90846080000003,197.00126353333337,62.0,105.0
267,197.13573280000003,197.68307953333337,64.0,105.0
268,197.81754880000003,197.92550300000002,67.0,102.0
269,198.04482080000002,198.29482000000002,64.0,94.0
270,198.49936480000002,198.72284893333335,62.0,100.0
271,198.72663680000002,198.95012093333335,64.0,114.0
272,198.95390880000002,199.80049700000004,57.0,82.0
273,200.31754080000002,200.47094940000002,57.0,105.0
274,200.54481280000002,200.65276700000004,60.0,94.0
275,200.77208480000002,200.94443273333337,62.0,105.0
276,201.22662880000001,201.38571920000004,62.0,102.0
277,201.4539008,201.67738493333337,62.0,114.0
278,201.6811728,202.13192893333337,62.0,94.0
279,202.13571680000004,202.4576854666667,60.0,89.0
280,202.59026080000004,202.81374493333337,62.0,100.0
281,202.81753280000004,203.04101693333337,62.0,114.0
282,203.27207680000004,203.44253080000001,64.0,94.0
283,203.49934880000004,203.95010493333336,62.0,100.0
284,203.95389280000003,204.07889240000003,60.0,102.0
285,204.18116480000003,204.29101293333335,62.0,100.0
286,204.40843680000003,204.6735874666667,67.0,105.0
287,204.86298080000003,206.0088104666667,64.0,92.0
288,206.22661280000003,206.56183900000002,64.0,105.0
289,206.68115680000002,206.80236853333335,62.0,92.0
290,206.90842880000002,207.46713913333335,62.0,102.0
291,207.59024480000002,207.81372893333335,60.0,105.0
292,207.81751680000002,208.04100093333335,62.0,105.0
293,208.04478880000002,210.76826493333337,57.0,111.0
294,211.22659680000004,211.50500500000004,64.0,108.0
295,211.68114080000004,212.18682100000004,69.0,108.0
296,212.36295680000003,212.48227460000004,69.0,97.0
297,212.59022880000003,212.8894702666667,69.0,111.0
298,213.04477280000003,213.19439353333337,69.0,100.0
299,213.27204480000003,213.36484753333337,67.0,111.0
300,213.49931680000003,213.81370973333335,67.0,108.0
301,213.95386080000003,214.51257113333335,62.0,102.0
302,214.63567680000003,214.7303734666667,62.0,94.0
303,214.86294880000003,214.97090300000002,60.0,100.0
304,215.09022080000003,215.18302353333337,62.0,105.0
305,215.31749280000002,215.86483953333337,64.0,105.0
306,215.99930880000002,216.10726300000002,67.0,102.0
307,216.22658080000002,216.47658000000004,64.0,94.0
308,216.68112480000002,216.90460893333335,62.0,100.0
309,216.90839680000002,217.13188093333335,64.0,114.0
310,217.13566880000002,217.98225700000003,57.0,82.0
311,218.49930080000001,218.65270940000002,57.0,105.0
312,218.72657280000004,218.83452700000004,60.0,94.0
313,218.95384480000004,219.12619273333337,62.0,105.0
314,219.40838880000004,219.56747920000004,62.0,102.0
315,219.86293280000004,219.9974020666667,62.0,94.0
316,220.09020480000004,220.4121734666667,60.0,89.0
317,220.54474880000004,220.70194526666668,57.0,97.0
318,220.77202080000004,221.1451256666667,62.0,100.0
319,221.22656480000003,221.39701880000004,64.0,94.0
320,221.45383680000003,221.90459293333336,62.0,100.0
321,222.13565280000003,222.26633420000002,57.0,94.0
322,222.36292480000003,222.47277293333337,60.0,78.0
323,222.59019680000003,222.69815100000002,62.0,105.0
324,222.81746880000003,222.91784726666668,62.0,92.0
325,223.04474080000003,223.1394374666667,62.0,100.0
326,223.27201280000003,223.37996700000002,62.0,97.0
327,223.49928480000003,223.83451100000002,67.0,105.0
328,223.95382880000003,224.06746480000004,69.0,108.0
329,224.18110080000002,225.4803390666667,64.0,105.0
330,225.77200480000002,225.99548893333338,64.0,108.0
331,225.99927680000002,226.22276093333338,64.0,108.0
332,226.22654880000002,226.73222900000002,69.0,108.0
333,226.90836480000002,227.02768260000002,69.0,97.0
334,227.13563680000004,227.4348782666667,69.0,111.0
335,227.59018080000004,227.73980153333335,69.0,100.0
336,227.81745280000004,227.91025553333336,67.0,111.0
337,228.04472480000004,228.35911773333336,67.0,108.0
338,228.49926880000004,229.05797913333336,62.0,102.0
339,229.18108480000004,229.2757814666667,62.0,94.0
340,229.40835680000004,229.51631100000003,60.0,100.0
341,229.63562880000003,229.72843153333335,62.0,105.0
342,229.86290080000003,230.41024753333338,64.0,105.0
343,230.54471680000003,230.65267100000003,67.0,102.0
344,230.77198880000003,231.02198800000002,64.0,94.0
345,231.22653280000003,231.45001693333336,62.0,100.0
346,231.45380480000003,231.67728893333336,64.0,114.0
347,231.68107680000003,232.52766500000004,57.0,82.0
348,233.04470880000002,233.19811740000003,57.0,105.0
349,233.27198080000002,233.37993500000002,60.0,94.0
350,233.49925280000002,233.67160073333338,62.0,105.0
351,233.95379680000002,234.11288720000002,62.0,102.0
352,234.18106880000002,234.40455293333338,62.0,114.0
353,234.40834080000002,234.85909693333338,62.0,94.0
354,234.86288480000002,235.1848534666667,60.0,89.0
355,235.31742880000004,235.54091293333337,62.0,100.0
356,235.54470080000004,235.76818493333337,62.0,114.0
357,235.99924480000004,236.16969880000002,64.0,94.0
358,236.22651680000004,236.67727293333337,62.0,100.0
359,236.68106080000004,236.80606040000004,60.0,102.0
360,236.90833280000004,237.01818093333335,62.0,100.0
361,237.13560480000004,237.4007554666667,67.0,105.0
362,237.59014880000004,238.7359784666667,64.0,92.0
363,238.95378080000003,239.28900700000003,64.0,105.0
364,239.40832480000003,239.52953653333336,62.0,92.0
365,239.63559680000003,241.44998493333335,62.0,102.0
366,242.2530126666667,242.56740560000003,60.0,108.0
367,242.57876920000004,243.2814184666667,62.0,94.0
368,243.51058440000003,243.7643714666667,60.0,100.0
369,243.76815933333336,246.26057560000004,57.0,84.0
