,start,end,pitch,velocity
0,1.2272688,1.4905255333333336,57.0,47.0
1,0.9999968000000001,1.5852222000000002,52.0,44.0
2,0.7727248000000001,2.435598266666667,45.0,80.0
3,1.4545408000000002,2.4659012000000002,60.0,80.0
4,2.1363568,2.5132495333333336,52.0,39.0
5,2.3636288000000003,2.679915666666667,57.0,60.0
6,2.5909008000000004,3.844684666666667,43.0,82.0
7,2.8181728,3.8977148000000006,50.0,58.0
8,3.0454448000000003,4.0568052,55.0,67.0
9,3.2727168000000004,4.2215774,59.0,94.0
10,4.6363488,5.437482600000001,59.0,62.0
11,4.4090768,5.4715734000000005,52.0,100.0
12,4.8636208000000005,6.128768266666667,64.0,47.0
13,5.090892800000001,6.212101333333334,67.0,92.0
14,6.454524800000001,6.986720066666668,52.0,66.0
15,6.2272528000000005,7.678005733333334,45.0,80.0
16,6.681796800000001,7.9355806666666675,57.0,67.0
17,6.909068800000001,8.060580266666667,60.0,94.0
18,8.2727008,8.795426400000002,57.0,64.0
19,8.499972800000002,9.475348466666668,62.0,66.0
20,8.045428800000002,9.702620466666668,50.0,92.0
21,9.4090608,9.772696000000002,57.0,52.0
22,9.636332800000002,10.132543333333334,62.0,62.0
23,8.727244800000001,10.153376600000001,65.0,94.0
24,10.090876800000002,10.895798466666669,57.0,71.0
25,9.863604800000001,11.176100600000002,50.0,89.0
26,10.545420800000002,11.490493533333336,65.0,94.0
27,10.318148800000001,11.562463000000001,62.0,80.0
28,11.681780800000002,13.043518866666668,52.0,94.0
29,12.363596800000002,13.147685200000002,67.0,74.0
30,12.136324800000002,13.231018266666668,64.0,76.0
31,11.909052800000001,13.302987733333335,59.0,97.0
32,13.727228800000002,14.204500000000001,59.0,82.0
33,13.954500800000002,14.268893733333336,64.0,78.0
34,14.181772800000001,14.681771200000002,67.0,114.0
35,14.636316800000001,14.893891733333335,64.0,67.0
36,14.409044800000002,15.009421666666668,59.0,76.0
37,13.499956800000001,15.043512466666668,52.0,97.0
38,14.863588800000002,15.227224000000001,71.0,97.0
39,15.090860800000002,15.251845133333335,64.0,67.0
40,15.772676800000003,16.035933533333335,57.0,47.0
41,15.545404800000002,16.130630200000002,52.0,44.0
42,15.318132800000003,16.981006266666668,45.0,80.0
43,15.999948800000002,17.011309200000003,60.0,80.0
44,16.681764800000003,17.058657533333335,52.0,39.0
45,16.909036800000003,17.225323666666668,57.0,60.0
46,17.136308800000002,18.390092666666668,43.0,82.0
47,17.3635808,18.4431228,50.0,58.0
48,17.590852800000004,18.6022132,55.0,67.0
49,17.818124800000003,18.766985400000003,59.0,94.0
50,19.181756800000002,19.9828906,59.0,62.0
51,18.954484800000003,20.016981400000002,52.0,100.0
52,19.4090288,20.67417626666667,64.0,47.0
53,19.6363008,20.757509333333335,67.0,92.0
54,20.999932800000003,21.53212806666667,52.0,66.0
55,20.772660800000004,22.223413733333338,45.0,80.0
56,21.227204800000003,22.48098866666667,57.0,67.0
57,21.454476800000002,22.60598826666667,60.0,94.0
58,22.818108800000005,23.382500933333336,57.0,78.0
59,22.5908368,24.215831600000005,50.0,92.0
60,23.045380800000004,24.41280066666667,62.0,92.0
61,23.272652800000003,24.465830800000003,65.0,97.0
62,24.863556800000005,25.15711646666667,64.0,94.0
63,24.636284800000002,25.16279826666667,59.0,73.0
64,24.409012800000003,25.71961466666667,52.0,97.0
65,25.318100800000003,26.13438606666667,64.0,15.0
66,25.090828800000004,26.14006786666667,67.0,108.0
67,26.454460800000003,26.94120166666667,52.0,62.0
68,26.681732800000002,27.596502600000004,57.0,71.0
69,26.909004800000005,27.893850133333338,60.0,102.0
70,26.227188800000004,27.89574406666667,45.0,94.0
71,27.590820800000003,27.920365200000003,52.0,33.0
72,27.818092800000002,27.982865000000004,57.0,71.0
73,28.045364800000005,29.602178000000002,57.0,87.0
74,28.045364800000005,29.602178000000002,60.0,82.0
75,28.045364800000005,29.69687466666667,45.0,89.0
76,29.863540800000003,30.448766200000005,60.0,71.0
77,29.863540800000003,30.619220200000004,57.0,62.0
78,30.772628800000003,31.319975533333338,60.0,84.0
79,30.772628800000003,31.499899200000005,64.0,84.0
80,29.863540800000003,31.50368706666667,45.0,84.0
81,30.318084800000005,31.528308200000005,52.0,22.0
82,31.681716800000004,32.29913906666667,59.0,69.0
83,31.681716800000004,32.3067148,55.0,62.0
84,31.681716800000004,32.68550146666667,43.0,84.0
85,32.1362608,32.698759,50.0,29.0
86,32.5908048,32.79724353333334,55.0,84.0
87,32.5908048,32.802925333333334,59.0,92.0
88,32.5908048,32.8294404,62.0,84.0
89,33.499892800000005,33.804816066666675,59.0,78.0
90,33.499892800000005,34.1248908,64.0,82.0
91,33.9544368,34.172239133333335,59.0,41.0
92,34.4089808,34.59837413333334,59.0,92.0
93,33.499892800000005,34.765040266666674,52.0,84.0
94,34.4089808,34.7839796,64.0,87.0
95,34.4089808,34.8237522,67.0,78.0
96,35.318068800000006,35.863521600000006,60.0,73.0
97,35.318068800000006,35.95253646666667,57.0,78.0
98,35.318068800000006,36.38624720000001,45.0,94.0
99,35.772612800000005,36.44495913333334,52.0,62.0
100,36.2271568,36.50177713333334,57.0,80.0
101,36.2271568,36.5112468,60.0,82.0
102,36.2271568,36.552913333333336,64.0,76.0
103,37.13624480000001,37.67222793333334,62.0,66.0
104,37.13624480000001,37.67790973333334,65.0,78.0
105,38.045332800000004,38.607831000000004,62.0,82.0
106,38.045332800000004,38.607831000000004,65.0,97.0
107,37.590788800000006,39.060481066666675,57.0,51.0
108,38.95442080000001,39.532070466666674,65.0,71.0
109,38.95442080000001,39.56994913333334,62.0,55.0
110,39.40896480000001,40.15706846666667,57.0,32.0
111,37.13624480000001,40.29343166666667,50.0,87.0
112,39.863508800000005,40.312371000000006,69.0,82.0
113,39.863508800000005,40.32373460000001,65.0,87.0
114,39.863508800000005,40.3578254,62.0,76.0
115,40.7725968,41.403276600000005,59.0,66.0
116,40.7725968,41.42221593333334,55.0,62.0
117,41.681684800000006,42.0850926,59.0,100.0
118,41.681684800000006,42.096456200000006,62.0,80.0
119,41.681684800000006,42.102138000000004,55.0,89.0
120,41.22714080000001,42.166531733333336,50.0,52.0
121,40.7725968,42.37297046666667,43.0,87.0
122,42.5907728,42.81993873333334,48.0,84.0
123,42.5907728,42.81993873333334,55.0,84.0
124,42.5907728,42.85024166666667,60.0,92.0
125,43.49986080000001,43.840768800000006,64.0,92.0
126,43.49986080000001,43.92788973333334,59.0,94.0
127,43.49986080000001,44.06235900000001,52.0,92.0
128,44.408948800000005,44.91084113333334,60.0,76.0
129,44.408948800000005,44.954401600000004,57.0,80.0
130,45.31803680000001,45.721444600000005,57.0,92.0
131,45.31803680000001,45.74606573333334,60.0,102.0
132,45.31803680000001,45.77258080000001,64.0,84.0
133,44.8634928,45.78773226666667,52.0,58.0
134,44.408948800000005,45.81992913333334,45.0,89.0
135,46.227124800000006,46.755532200000005,59.0,80.0
136,46.227124800000006,46.76310793333334,55.0,71.0
137,46.227124800000006,47.19681866666667,43.0,87.0
138,46.681668800000004,47.225227666666676,50.0,41.0
139,47.1362128,47.321818266666675,55.0,82.0
140,47.1362128,47.3237122,59.0,97.0
141,47.1362128,47.34454546666667,62.0,82.0
142,48.04530080000001,48.28772426666667,59.0,78.0
143,48.04530080000001,48.53582953333334,64.0,82.0
144,48.499844800000005,48.657041266666674,59.0,69.0
145,48.04530080000001,49.139994266666676,52.0,87.0
146,48.954388800000004,49.175979000000005,59.0,94.0
147,48.954388800000004,49.45628113333334,64.0,89.0
148,48.954388800000004,49.50362946666667,67.0,76.0
149,49.40893280000001,49.630523000000004,59.0,48.0
150,49.86347680000001,50.41650533333334,60.0,78.0
151,49.86347680000001,50.488474800000006,57.0,78.0
152,50.772564800000005,50.96953386666667,57.0,84.0
153,50.772564800000005,51.19680586666667,60.0,92.0
154,50.318020800000006,51.25172993333334,52.0,44.0
155,50.772564800000005,51.278245000000005,64.0,73.0
156,49.86347680000001,51.338850866666675,45.0,92.0
157,51.68165280000001,51.89945513333334,57.0,89.0
158,51.68165280000001,52.29718113333334,62.0,82.0
159,52.13619680000001,52.41081713333334,57.0,39.0
160,52.590740800000006,53.10778460000001,65.0,80.0
161,52.590740800000006,53.16460260000001,62.0,87.0
162,51.68165280000001,53.29717793333334,50.0,87.0
163,53.045284800000005,53.38808673333334,57.0,50.0
164,53.49982880000001,54.020660466666676,65.0,76.0
165,53.49982880000001,54.04906946666667,62.0,80.0
166,54.40891680000001,54.58694653333334,57.0,100.0
167,53.49982880000001,54.60967373333334,50.0,82.0
168,54.40891680000001,54.86535473333334,62.0,102.0
169,54.40891680000001,54.95815746666668,65.0,87.0
170,54.863460800000006,55.01308153333334,57.0,73.0
171,55.318004800000004,55.83883646666668,62.0,69.0
172,55.318004800000004,55.86535153333334,59.0,78.0
173,55.318004800000004,55.89186660000001,55.0,69.0
174,55.77254880000001,56.443001200000005,50.0,49.0
175,56.22709280000001,56.80663640000001,62.0,84.0
176,56.22709280000001,56.81042426666667,59.0,100.0
177,56.22709280000001,56.83693933333334,55.0,82.0
178,57.136180800000005,57.75739093333334,62.0,76.0
179,57.136180800000005,57.776330266666676,59.0,82.0
180,57.136180800000005,57.82557253333334,55.0,71.0
181,58.04526880000001,58.28958620000001,55.0,87.0
182,55.318004800000004,58.592615533333344,43.0,87.0
183,58.04526880000001,58.65132746666667,59.0,100.0
184,58.49981280000001,58.67216073333334,55.0,57.0
185,57.59072480000001,58.766857400000006,50.0,67.0
186,58.04526880000001,58.77443313333334,62.0,87.0
187,58.954356800000006,59.522536800000005,60.0,80.0
188,58.954356800000006,59.90321740000001,57.0,82.0
189,59.408900800000005,60.02253520000001,52.0,62.0
190,59.86344480000001,60.35586746666667,64.0,87.0
191,59.86344480000001,60.38048860000001,60.0,87.0
192,60.31798880000001,60.87669913333334,52.0,53.0
193,60.77253280000001,61.283894800000006,57.0,62.0
194,60.77253280000001,61.293364466666674,60.0,66.0
195,61.227076800000006,61.76305993333334,52.0,51.0
196,61.681620800000005,62.36343680000001,57.0,102.0
197,61.681620800000005,62.374800400000005,64.0,102.0
198,61.681620800000005,62.378588266666675,60.0,105.0
199,58.954356800000006,62.46760313333334,45.0,89.0
200,62.13616480000001,62.48275460000001,52.0,84.0
201,63.04525280000001,63.65509933333334,52.0,92.0
202,62.59070880000001,63.81987153333334,45.0,102.0
203,63.499796800000006,64.37668793333334,60.0,102.0
204,63.95434080000001,64.38994546666667,52.0,57.0
205,63.499796800000006,64.42782413333335,57.0,102.0
206,64.86342880000001,65.75736533333334,50.0,80.0
207,65.3179728,65.87289526666667,59.0,92.0
208,64.40888480000001,65.88994066666667,43.0,87.0
209,65.3179728,65.93350113333334,55.0,89.0
210,66.2270608,66.58880206666667,41.0,84.0
211,66.2270608,66.83122553333334,53.0,87.0
212,66.2270608,67.03766426666668,57.0,89.0
213,67.13614880000002,67.42213273333334,59.0,92.0
214,67.13614880000002,67.4656932,55.0,82.0
215,67.13614880000002,67.50925366666668,43.0,94.0
216,68.04523680000001,68.24788766666667,55.0,80.0
217,68.04523680000001,68.5565988,60.0,82.0
218,68.49978080000001,68.75735573333334,55.0,41.0
219,68.95432480000001,69.13993026666668,55.0,89.0
220,68.04523680000001,69.42970206666668,48.0,87.0
221,68.95432480000001,69.4543232,60.0,100.0
222,68.95432480000001,69.58879246666667,64.0,84.0
223,69.40886880000001,69.6190954,55.0,84.0
224,69.8634128,70.40697166666668,57.0,82.0
225,69.8634128,70.62666793333334,53.0,71.0
226,70.3179568,71.27249920000001,48.0,55.0
227,69.8634128,71.391817,41.0,87.0
228,70.7725008,71.47893793333334,57.0,94.0
229,70.7725008,71.51113480000001,60.0,97.0
230,71.68158880000001,72.39181380000001,57.0,82.0
231,71.68158880000001,72.65885840000001,53.0,69.0
232,72.13613280000001,72.92400906666667,48.0,69.0
233,71.68158880000001,72.95052413333335,41.0,78.0
234,72.59067680000001,73.16832646666667,57.0,97.0
235,73.04522080000001,73.20620513333334,53.0,89.0
236,72.59067680000001,73.266811,60.0,97.0
237,73.49976480000001,74.12855066666668,59.0,89.0
238,73.49976480000001,74.45051933333335,55.0,80.0
239,73.9543088,74.9315784,50.0,57.0
240,74.4088528,74.94672986666667,59.0,92.0
241,74.4088528,74.97135100000001,62.0,84.0
242,73.49976480000001,75.10013846666668,43.0,97.0
243,75.31794080000002,75.99407500000001,59.0,87.0
244,74.8633968,76.03384760000002,55.0,57.0
245,76.22702880000001,76.37854346666667,55.0,69.0
246,75.31794080000002,76.63801233333335,43.0,92.0
247,75.77248480000002,76.67210313333334,50.0,67.0
248,76.22702880000001,76.75922406666668,59.0,89.0
249,76.68157280000001,76.86339040000001,55.0,71.0
250,76.22702880000001,76.8690722,62.0,78.0
251,77.13611680000001,77.77816020000002,60.0,82.0
252,77.13611680000001,78.12096213333335,57.0,84.0
253,78.04520480000001,78.55846073333335,64.0,92.0
254,78.04520480000001,78.56982433333334,60.0,87.0
255,77.13611680000001,78.70618753333335,45.0,87.0
256,77.59066080000001,78.72133900000001,52.0,78.0
257,78.4997488,78.83497500000001,57.0,87.0
258,78.9542928,79.60012406666668,59.0,97.0
259,78.9542928,79.90504733333334,55.0,89.0
260,79.40883680000002,80.23648566666668,50.0,76.0
261,79.86338080000002,80.34633380000001,59.0,89.0
262,78.9542928,80.39936393333335,43.0,87.0
263,79.86338080000002,80.41451540000001,62.0,82.0
264,80.31792480000001,80.64178740000001,55.0,89.0
265,80.77246880000001,81.10011926666668,41.0,94.0
266,80.77246880000001,81.22890673333335,53.0,87.0
267,80.77246880000001,81.50163313333334,57.0,94.0
268,81.68155680000001,82.13610080000001,59.0,92.0
269,81.68155680000001,82.17397946666668,55.0,84.0
270,81.68155680000001,82.23837320000001,43.0,97.0
271,82.5906448,82.81223500000002,55.0,82.0
272,82.5906448,83.11147646666667,60.0,87.0
273,83.0451888,83.27435473333334,55.0,60.0
274,83.4997328,83.70238366666668,55.0,92.0
275,82.5906448,83.92397386666667,48.0,82.0
276,83.4997328,83.99973120000001,60.0,100.0
277,83.4997328,84.04329166666668,64.0,97.0
278,83.95427680000002,84.14177620000001,55.0,92.0
279,84.40882080000002,84.91450100000002,57.0,87.0
280,84.40882080000002,85.13798513333334,53.0,78.0
281,84.40882080000002,85.8633616,41.0,92.0
282,85.31790880000001,85.88230093333334,57.0,102.0
283,85.31790880000001,85.89177060000002,60.0,102.0
284,85.77245280000001,85.96563400000001,53.0,24.0
285,84.86336480000001,86.01487626666668,48.0,55.0
286,86.22699680000001,86.81411613333334,59.0,84.0
287,86.22699680000001,86.86146446666667,55.0,80.0
288,87.1360848,87.32926600000002,55.0,94.0
289,86.22699680000001,87.60956813333334,43.0,84.0
290,86.68154080000001,87.71373446666668,50.0,80.0
291,87.1360848,87.71941626666668,59.0,102.0
292,87.5906288,87.79896146666668,55.0,89.0
293,87.1360848,87.87093093333334,62.0,94.0
294,88.04517280000002,88.58873166666667,60.0,97.0
295,88.04517280000002,88.63039820000002,57.0,97.0
296,88.49971680000002,89.1247148,52.0,76.0
297,88.95426080000001,89.47130460000001,64.0,97.0
298,88.95426080000001,89.51107720000002,60.0,105.0
299,88.95426080000001,89.54327406666668,57.0,97.0
300,88.04517280000002,89.70236446666668,45.0,89.0
301,89.40880480000001,89.81789440000001,52.0,80.0
302,89.86334880000001,90.35577146666668,60.0,87.0
303,89.86334880000001,90.35577146666668,64.0,80.0
304,89.86334880000001,90.36524113333334,57.0,84.0
305,90.31789280000001,90.94289080000001,52.0,78.0
306,90.77243680000001,91.18152640000001,57.0,97.0
307,90.77243680000001,91.21751113333335,60.0,100.0
308,91.2269808,91.57735846666668,59.0,97.0
309,89.86334880000001,91.58304026666669,45.0,89.0
310,91.2269808,91.60008566666667,52.0,76.0
311,92.13606880000002,92.74591533333334,52.0,92.0
312,91.6815248,92.91068753333334,45.0,102.0
313,92.59061280000002,93.46750393333335,60.0,102.0
314,93.04515680000002,93.48076146666668,52.0,57.0
315,92.59061280000002,93.51864013333335,57.0,102.0
316,93.95424480000001,94.84818133333334,50.0,80.0
317,94.40878880000001,94.96371126666668,59.0,92.0
318,93.49970080000001,94.98075666666668,43.0,87.0
319,94.40878880000001,95.02431713333334,55.0,89.0
320,95.31787680000001,95.67961806666668,41.0,84.0
321,95.31787680000001,95.92204153333334,53.0,87.0
322,95.31787680000001,96.12848026666668,57.0,89.0
323,96.22696480000002,96.51294873333335,59.0,92.0
324,96.22696480000002,96.55650920000001,55.0,82.0
325,96.22696480000002,96.60006966666668,43.0,94.0
326,97.13605280000002,97.33870366666667,55.0,80.0
327,97.13605280000002,97.6474148,60.0,82.0
328,97.59059680000001,97.84817173333334,55.0,41.0
329,98.04514080000001,98.23074626666669,55.0,89.0
330,97.13605280000002,98.52051806666668,48.0,87.0
331,98.04514080000001,98.54513920000001,60.0,100.0
332,98.04514080000001,98.67960846666668,64.0,84.0
333,98.49968480000001,98.70991140000001,55.0,84.0
334,98.95422880000001,99.49778766666668,57.0,82.0
335,98.95422880000001,99.71748393333334,53.0,71.0
336,99.40877280000001,100.36331520000002,48.0,55.0
337,98.95422880000001,100.482633,41.0,87.0
338,99.8633168,100.56975393333335,57.0,94.0
339,99.8633168,100.60195080000001,60.0,97.0
340,100.77240480000002,101.48262980000001,57.0,82.0
341,100.77240480000002,101.74967440000002,53.0,69.0
342,101.22694880000002,102.01482506666667,48.0,69.0
343,100.77240480000002,102.04134013333335,41.0,78.0
344,101.68149280000002,102.25914246666667,57.0,97.0
345,102.13603680000001,102.29702113333335,53.0,89.0
346,101.68149280000002,102.35762700000001,60.0,97.0
347,102.59058080000001,103.21936666666669,59.0,89.0
348,102.59058080000001,103.54133533333335,55.0,80.0
349,103.04512480000001,104.02239440000001,50.0,57.0
350,103.49966880000001,104.03754586666668,59.0,92.0
351,103.49966880000001,104.06216700000002,62.0,84.0
352,102.59058080000001,104.19095446666668,43.0,97.0
353,104.40875680000002,105.08489100000001,59.0,87.0
354,103.95421280000001,105.12466360000002,55.0,57.0
355,105.31784480000002,105.46935946666667,55.0,69.0
356,104.40875680000002,105.72882833333335,43.0,92.0
357,104.86330080000002,105.76291913333334,50.0,67.0
358,105.31784480000002,105.85004006666668,59.0,89.0
359,105.77238880000002,105.95420640000002,55.0,71.0
360,105.31784480000002,105.95988820000001,62.0,78.0
361,106.22693280000001,106.86897620000002,60.0,82.0
362,106.22693280000001,107.21177813333335,57.0,84.0
363,107.13602080000001,107.64927673333335,64.0,92.0
364,107.13602080000001,107.66064033333335,60.0,87.0
365,106.22693280000001,107.79700353333335,45.0,87.0
366,106.68147680000001,107.81215500000002,52.0,78.0
367,107.59056480000001,107.92579100000002,57.0,87.0
368,108.04510880000001,108.69094006666668,59.0,97.0
369,108.04510880000001,108.99586333333335,55.0,89.0
370,108.49965280000002,109.32730166666668,50.0,76.0
371,108.95419680000002,109.43714980000001,59.0,89.0
372,108.04510880000001,109.49017993333335,43.0,87.0
373,108.95419680000002,109.50533140000002,62.0,82.0
374,109.40874080000002,109.73260340000002,55.0,89.0
375,109.86328480000002,110.19093526666668,41.0,94.0
376,109.86328480000002,110.31972273333335,53.0,87.0
377,109.86328480000002,110.59244913333335,57.0,94.0
378,110.77237280000001,111.22691680000001,59.0,92.0
379,110.77237280000001,111.26479546666668,55.0,84.0
380,110.77237280000001,111.32918920000002,43.0,97.0
381,111.68146080000001,111.90305100000002,55.0,82.0
382,111.68146080000001,112.20229246666668,60.0,87.0
383,112.13600480000001,112.36517073333334,55.0,60.0
384,112.59054880000001,112.79319966666668,55.0,92.0
385,111.68146080000001,113.01478986666667,48.0,82.0
386,112.59054880000001,113.09054720000002,60.0,100.0
387,112.59054880000001,113.13410766666668,64.0,97.0
388,113.04509280000002,113.23259220000001,55.0,92.0
389,113.49963680000002,114.00531700000002,57.0,87.0
390,113.49963680000002,114.22880113333335,53.0,78.0
391,113.49963680000002,114.95417760000001,41.0,92.0
392,114.40872480000002,114.97311693333334,57.0,102.0
393,114.40872480000002,114.98258660000002,60.0,102.0
394,114.86326880000001,115.05645000000001,53.0,24.0
395,113.95418080000002,115.10569226666668,48.0,55.0
396,115.31781280000001,115.90493213333335,59.0,84.0
397,115.31781280000001,115.95228046666668,55.0,80.0
398,116.22690080000001,116.42008200000002,55.0,94.0
399,115.31781280000001,116.70038413333334,43.0,84.0
400,115.77235680000001,116.80455046666668,50.0,80.0
401,116.22690080000001,116.81023226666669,59.0,102.0
402,116.68144480000001,116.88977746666669,55.0,89.0
403,116.22690080000001,116.96174693333334,62.0,94.0
404,117.13598880000002,117.67954766666668,60.0,97.0
405,117.13598880000002,117.72121420000002,57.0,97.0
406,117.59053280000002,118.21553080000001,52.0,76.0
407,118.04507680000002,118.56212060000001,64.0,97.0
408,118.04507680000002,118.60189320000002,60.0,105.0
409,118.04507680000002,118.63409006666669,57.0,97.0
410,117.13598880000002,118.79318046666668,45.0,89.0
411,118.49962080000002,118.90871040000002,52.0,80.0
412,118.95416480000002,119.44658746666668,60.0,87.0
413,118.95416480000002,119.44658746666668,64.0,80.0
414,118.95416480000002,119.45605713333335,57.0,84.0
415,118.95416480000002,120.67385626666669,45.0,89.0
416,120.77234080000001,122.33672973333334,45.0,92.0
417,121.45415680000002,122.50339586666668,60.0,80.0
418,120.99961280000002,122.55831993333335,52.0,80.0
419,121.22688480000002,122.58862286666668,57.0,78.0
420,123.27233280000002,123.69278600000001,59.0,80.0
421,122.59051680000002,123.70036173333335,43.0,69.0
422,122.81778880000002,123.70036173333335,50.0,64.0
423,123.04506080000002,123.71172533333335,55.0,58.0
424,124.63596480000001,125.32535653333335,59.0,76.0
425,124.40869280000001,125.41058353333335,52.0,92.0
426,124.86323680000001,125.93330913333335,64.0,49.0
427,125.09050880000001,125.93709700000002,67.0,84.0
428,126.45414080000002,126.96171493333335,52.0,62.0
429,126.68141280000002,127.18898693333335,57.0,66.0
430,126.90868480000002,127.43330433333335,60.0,97.0
431,126.22686880000002,127.49769806666669,45.0,71.0
432,127.13595680000002,127.50716773333335,52.0,66.0
433,127.36322880000002,127.61133406666669,57.0,66.0
434,127.59050080000002,127.64921273333334,60.0,49.0
435,128.04504480000003,128.30451366666668,60.0,67.0
436,128.04504480000003,128.51663420000003,65.0,67.0
437,128.27231680000003,129.07345060000003,57.0,64.0
438,128.04504480000003,129.1018596,53.0,80.0
439,128.49958880000003,129.4124646666667,60.0,50.0
440,128.72686080000003,129.79693313333334,65.0,82.0
441,130.09049280000002,130.68329393333335,50.0,66.0
442,130.31776480000002,130.69465753333336,55.0,64.0
443,130.54503680000002,130.8461722,59.0,89.0
444,129.86322080000002,131.19465593333334,43.0,89.0
445,130.77230880000002,131.28556473333336,62.0,97.0
446,130.99958080000002,131.31397373333334,50.0,66.0
447,131.22685280000002,131.39920073333334,55.0,66.0
448,131.68139680000002,131.92950206666669,60.0,69.0
449,131.68139680000002,132.1245772,64.0,80.0
450,132.13594080000001,132.41056113333335,60.0,67.0
451,131.90866880000002,132.4351822666667,55.0,64.0
452,132.3632128,132.71737833333336,62.0,97.0
453,132.5904848,132.92760493333336,55.0,51.0
454,131.68139680000002,133.06586206666668,48.0,94.0
455,132.8177568,133.10374073333335,64.0,84.0
456,133.4995728,133.8101778666667,59.0,97.0
457,133.4995728,133.82532933333334,64.0,97.0
458,134.1813888,134.27987333333334,59.0,87.0
459,133.4995728,134.33669133333336,52.0,105.0
460,134.4086608,134.687069,59.0,108.0
461,134.4086608,134.92002280000003,64.0,114.0
462,134.4086608,134.95221966666668,68.0,105.0
463,134.4086608,134.9976740666667,52.0,105.0
464,134.8632048,135.12077973333336,59.0,105.0
465,135.3177488,135.79502000000002,53.0,84.0
466,135.3177488,136.02418593333334,57.0,97.0
467,135.99956480000003,136.1283522666667,53.0,73.0
468,135.77229280000003,136.31395773333335,48.0,58.0
469,136.22683680000003,136.4976692666667,53.0,108.0
470,135.3177488,136.66433540000003,41.0,94.0
471,136.22683680000003,136.68327473333335,57.0,120.0
472,136.22683680000003,136.73441093333335,60.0,105.0
473,136.68138080000003,136.95978900000003,53.0,66.0
474,136.45410880000003,136.96168293333335,48.0,66.0
475,136.90865280000003,137.06016746666668,57.0,92.0
476,137.13592480000003,137.45410560000002,59.0,100.0
477,137.13592480000003,137.66433220000002,55.0,89.0
478,137.59046880000002,138.20031533333335,50.0,78.0
479,137.13592480000003,138.31963313333335,43.0,97.0
480,138.04501280000002,138.3783450666667,55.0,100.0
481,138.04501280000002,138.4029662,59.0,111.0
482,138.04501280000002,138.437057,62.0,105.0
483,138.49955680000002,138.59235953333337,43.0,66.0
484,138.49955680000002,138.6302382,50.0,76.0
485,138.95410080000002,139.22303933333336,59.0,82.0
486,138.95410080000002,139.45409920000003,64.0,89.0
487,139.40864480000002,139.68326513333335,59.0,73.0
488,138.95410080000002,139.98061266666667,52.0,108.0
489,139.86318880000002,140.10182440000003,59.0,100.0
490,139.86318880000002,140.19462713333334,64.0,105.0
491,140.09046080000002,140.2306118666667,52.0,87.0
492,139.86318880000002,140.39538406666668,67.0,108.0
493,140.54500480000002,140.6340196666667,64.0,78.0
494,140.31773280000002,140.64348933333335,59.0,97.0
495,140.77227680000001,141.25712373333334,57.0,97.0
496,140.77227680000001,141.3783354666667,60.0,100.0
497,141.4540928,141.56962273333335,57.0,71.0
498,141.2268208,141.76280393333334,52.0,82.0
499,141.6813648,141.9256822,64.0,97.0
500,141.6813648,141.92757613333336,57.0,105.0
501,141.6813648,141.92947006666668,60.0,102.0
502,140.77227680000001,141.95598513333334,45.0,94.0
503,141.9086368,142.12075733333336,52.0,58.0
504,142.1359088,142.31393853333336,45.0,84.0
505,142.5904528,143.13211773333336,57.0,89.0
506,142.5904528,143.15863280000002,53.0,82.0
507,143.0449968,143.57151026666668,48.0,60.0
508,143.4995408,143.71166133333335,53.0,105.0
509,142.5904528,143.94272120000002,41.0,97.0
510,143.4995408,144.00143313333336,60.0,108.0
511,143.7268128,144.11506913333335,48.0,87.0
512,143.95408480000003,144.23817480000002,53.0,82.0
513,144.18135680000003,144.3158260666667,57.0,102.0
514,144.40862880000003,144.8158244666667,59.0,105.0
515,144.40862880000003,144.857491,55.0,84.0
516,144.40862880000003,145.5146858666667,43.0,97.0
517,144.86317280000003,145.56960993333334,50.0,78.0
518,145.31771680000003,145.60370073333334,55.0,97.0
519,145.31771680000003,145.60370073333334,59.0,108.0
520,145.31771680000003,145.69650346666668,62.0,100.0
521,145.77226080000003,145.9862752666667,43.0,92.0
522,146.22680480000002,146.62074293333336,57.0,92.0
523,146.22680480000002,146.63021260000002,60.0,94.0
524,146.68134880000002,147.2987710666667,52.0,87.0
525,147.13589280000002,147.46164933333336,72.0,108.0
526,147.36316480000002,147.70596673333336,52.0,87.0
527,147.59043680000002,147.75142113333337,71.0,102.0
528,146.22680480000002,147.90482973333334,45.0,92.0
529,148.04498080000002,148.8101298666667,64.0,76.0
530,148.04498080000002,148.83664493333336,69.0,84.0
531,148.95406880000002,149.32717366666668,64.0,71.0
532,148.95406880000002,149.52414273333335,69.0,67.0
533,148.49952480000002,149.56391533333334,52.0,51.0
534,148.04498080000002,149.5999000666667,45.0,92.0
535,150.3177008,150.92754733333337,52.0,92.0
536,149.8631568,151.09231953333335,45.0,102.0
537,150.7722448,151.64913593333335,60.0,102.0
538,151.2267888,151.66239346666669,52.0,57.0
539,150.7722448,151.70027213333336,57.0,102.0
540,152.13587680000003,153.02981333333335,50.0,80.0
541,152.59042080000003,153.14534326666669,59.0,92.0
542,151.6813328,153.1623886666667,43.0,87.0
543,152.59042080000003,153.20594913333335,55.0,89.0
544,153.49950880000003,153.86125006666668,41.0,84.0
545,153.49950880000003,154.10367353333336,53.0,87.0
546,153.49950880000003,154.3101122666667,57.0,89.0
547,154.40859680000003,154.69458073333337,59.0,92.0
548,154.40859680000003,154.73814120000003,55.0,82.0
549,154.40859680000003,154.7817016666667,43.0,94.0
550,155.31768480000002,155.52033566666668,55.0,80.0
551,155.31768480000002,155.82904680000001,60.0,82.0
552,155.77222880000002,156.02980373333335,55.0,41.0
553,156.22677280000002,156.41237826666668,55.0,89.0
554,155.31768480000002,156.7021500666667,48.0,87.0
555,156.22677280000002,156.72677120000003,60.0,100.0
556,156.22677280000002,156.8612404666667,64.0,84.0
557,156.68131680000002,156.89154340000002,55.0,84.0
558,157.13586080000002,157.6794196666667,57.0,82.0
559,157.13586080000002,157.89911593333335,53.0,71.0
560,157.59040480000002,158.54494720000002,48.0,55.0
561,157.13586080000002,158.66426500000003,41.0,87.0
562,158.04494880000001,158.75138593333335,57.0,94.0
563,158.04494880000001,158.78358280000003,60.0,97.0
564,158.9540368,159.66426180000002,57.0,82.0
565,158.9540368,159.9313064,53.0,69.0
566,159.4085808,160.19645706666668,48.0,69.0
567,158.9540368,160.22297213333334,41.0,78.0
568,159.8631248,160.44077446666668,57.0,97.0
569,160.3176688,160.47865313333335,53.0,89.0
570,159.8631248,160.53925900000002,60.0,97.0
571,160.77221280000003,161.40099866666668,59.0,89.0
572,160.77221280000003,161.72296733333334,55.0,80.0
573,161.22675680000003,162.20402640000003,50.0,57.0
574,161.68130080000003,162.21917786666668,59.0,92.0
575,161.68130080000003,162.24379900000002,62.0,84.0
576,160.77221280000003,162.3725864666667,43.0,97.0
577,162.59038880000003,163.26652300000003,59.0,87.0
578,162.13584480000003,163.30629560000003,55.0,57.0
579,163.49947680000002,163.65099146666668,55.0,69.0
580,162.59038880000003,163.91046033333336,43.0,92.0
581,163.04493280000003,163.94455113333336,50.0,67.0
582,163.49947680000002,164.0316720666667,59.0,89.0
583,163.95402080000002,164.1358384,55.0,71.0
584,163.49947680000002,164.14152020000003,62.0,78.0
585,164.40856480000002,165.05060820000003,60.0,82.0
586,164.40856480000002,165.39341013333336,57.0,84.0
587,165.31765280000002,165.83090873333336,64.0,92.0
588,165.31765280000002,165.84227233333334,60.0,87.0
589,164.40856480000002,165.97863553333335,45.0,87.0
590,164.86310880000002,165.99378700000003,52.0,78.0
591,165.77219680000002,166.107423,57.0,87.0
592,166.22674080000002,166.8725720666667,59.0,97.0
593,166.22674080000002,167.17749533333335,55.0,89.0
594,166.68128480000001,167.50893366666668,50.0,76.0
595,167.1358288,167.61878180000002,59.0,89.0
596,166.22674080000002,167.67181193333334,43.0,87.0
597,167.1358288,167.68696340000002,62.0,82.0
598,167.5903728,167.91423540000002,55.0,89.0
599,168.0449168,168.3725672666667,41.0,94.0
600,168.0449168,168.50135473333336,53.0,87.0
601,168.0449168,168.77408113333337,57.0,94.0
602,168.95400480000004,169.40854880000003,59.0,92.0
603,168.95400480000004,169.44642746666668,55.0,84.0
604,168.95400480000004,169.5108212,43.0,97.0
605,169.86309280000003,170.084683,55.0,82.0
606,169.86309280000003,170.38392446666668,60.0,87.0
607,170.31763680000003,170.54680273333335,55.0,60.0
608,170.77218080000003,170.9748316666667,55.0,92.0
609,169.86309280000003,171.1964218666667,48.0,82.0
610,170.77218080000003,171.2721792,60.0,100.0
611,170.77218080000003,171.3157396666667,64.0,97.0
612,171.22672480000003,171.41422420000004,55.0,92.0
613,171.68126880000003,172.18694900000003,57.0,87.0
614,171.68126880000003,172.41043313333336,53.0,78.0
615,171.68126880000003,173.13580960000002,41.0,92.0
616,172.59035680000002,173.15474893333337,57.0,102.0
617,172.59035680000002,173.16421860000003,60.0,102.0
618,173.04490080000002,173.23808200000002,53.0,24.0
619,172.13581280000002,173.2873242666667,48.0,55.0
620,173.49944480000002,174.08656413333335,59.0,84.0
621,173.49944480000002,174.1339124666667,55.0,80.0
622,174.40853280000002,174.60171400000002,55.0,94.0
623,173.49944480000002,174.88201613333337,43.0,84.0
624,173.95398880000002,174.9861824666667,50.0,80.0
625,174.40853280000002,174.99186426666668,59.0,102.0
626,174.86307680000002,175.0714094666667,55.0,89.0
627,174.40853280000002,175.14337893333337,62.0,94.0
628,175.31762080000001,175.8611796666667,60.0,97.0
629,175.31762080000001,175.90284620000003,57.0,97.0
630,175.7721648,176.39716280000002,52.0,76.0
631,176.2267088,176.74375260000002,64.0,97.0
632,176.2267088,176.7835252,60.0,105.0
633,176.2267088,176.8157220666667,57.0,97.0
634,175.31762080000001,176.9748124666667,45.0,89.0
635,176.6812528,177.09034240000003,52.0,80.0
636,177.13579680000004,177.62821946666668,60.0,87.0
637,177.13579680000004,177.62821946666668,64.0,80.0
638,177.13579680000004,177.63768913333337,57.0,84.0
639,177.13579680000004,178.8554882666667,45.0,89.0
640,178.95397280000003,179.42177433333336,57.0,97.0
641,178.95397280000003,179.62063733333335,60.0,94.0
642,179.63578880000003,179.72859153333334,57.0,73.0
643,179.40851680000003,179.91419700000003,52.0,73.0
644,179.86306080000003,180.1168478666667,57.0,111.0
645,179.86306080000003,180.1793476666667,60.0,111.0
646,178.95397280000003,180.37442280000002,45.0,97.0
647,180.09033280000003,180.61116446666668,52.0,76.0
648,180.31760480000003,180.6338916666667,57.0,94.0
649,180.77214880000002,181.29298046666668,55.0,87.0
650,180.77214880000002,181.3554802666667,59.0,97.0
651,181.45396480000002,181.5486614666667,55.0,69.0
652,180.77214880000002,181.7702516666667,43.0,87.0
653,181.22669280000002,181.80055460000003,50.0,64.0
654,181.68123680000002,182.15282620000002,55.0,105.0
655,181.68123680000002,182.1679776666667,59.0,111.0
656,182.59032480000002,182.86873300000002,59.0,97.0
657,182.59032480000002,183.12252006666668,64.0,92.0
658,183.04486880000002,183.3460042,59.0,57.0
659,183.27214080000002,183.40092826666668,64.0,80.0
660,182.59032480000002,183.6679728666667,52.0,97.0
661,183.49941280000002,183.77782100000002,59.0,108.0
662,183.49941280000002,183.9369114,67.0,97.0
663,183.72668480000002,183.95395680000001,52.0,97.0
664,183.49941280000002,183.98425973333335,64.0,94.0
665,183.95395680000001,184.147138,59.0,100.0
666,184.4085008,184.97668080000003,57.0,89.0
667,184.4085008,185.0145594666667,60.0,78.0
668,184.8630448,185.43122480000002,52.0,48.0
669,185.3175888,185.5600122666667,57.0,105.0
670,185.3175888,185.59220913333337,60.0,117.0
671,185.3175888,185.6471332,64.0,100.0
672,184.4085008,185.87061733333337,45.0,94.0
673,185.54486080000004,185.89523846666668,52.0,66.0
674,185.77213280000004,186.03538953333336,57.0,92.0
675,186.22667680000004,186.50129713333337,57.0,100.0
676,186.22667680000004,186.8100082666667,62.0,92.0
677,187.13576480000003,187.44258200000002,57.0,102.0
678,187.13576480000003,187.6281874666667,62.0,100.0
679,187.13576480000003,187.75129313333335,65.0,97.0
680,186.68122080000003,187.7872778666667,53.0,41.0
681,186.22667680000004,187.79674753333336,50.0,87.0
682,187.59030880000003,187.91038353333334,57.0,64.0
683,188.04485280000003,188.2929580666667,57.0,89.0
684,188.04485280000003,188.55053300000003,65.0,84.0
685,188.04485280000003,188.57326020000002,62.0,89.0
686,188.49939680000003,188.76833533333337,57.0,69.0
687,188.04485280000003,189.05242533333336,50.0,94.0
688,188.95394080000003,189.41037873333335,57.0,111.0
689,188.95394080000003,189.5315904666667,62.0,105.0
690,189.40848480000002,189.65280220000002,50.0,87.0
691,189.63575680000002,189.74939280000004,57.0,97.0
692,189.86302880000002,190.42173913333335,59.0,89.0
693,189.86302880000002,190.46529960000004,55.0,97.0
694,189.86302880000002,190.9065860666667,43.0,97.0
695,190.31757280000002,190.9804494666667,50.0,69.0
696,190.77211680000002,191.2077214666667,55.0,97.0
697,190.77211680000002,191.3005242,59.0,108.0
698,190.77211680000002,191.39332693333336,62.0,102.0
699,191.22666080000002,191.48991753333337,43.0,97.0
700,191.68120480000002,191.90847680000002,55.0,89.0
701,191.68120480000002,192.21718793333335,60.0,100.0
702,192.13574880000002,192.2777938,55.0,67.0
703,191.68120480000002,192.35165720000003,48.0,80.0
704,192.59029280000001,192.85544346666669,59.0,89.0
705,192.59029280000001,193.07892760000001,52.0,111.0
706,192.59029280000001,193.10733660000002,64.0,97.0
707,193.0448368,193.2020332666667,59.0,105.0
708,193.4993808,194.02589426666668,60.0,87.0
709,193.4993808,194.06377293333335,57.0,94.0
710,193.95392480000004,194.4690746666667,52.0,84.0
711,194.40846880000004,194.63574080000004,57.0,111.0
712,194.40846880000004,194.69255880000003,64.0,102.0
713,193.4993808,195.0258910666667,45.0,100.0
714,194.63574080000004,195.14899673333335,52.0,84.0
715,195.09028480000003,195.20013293333335,60.0,84.0
716,194.86301280000004,195.20392080000002,57.0,89.0
717,195.31755680000003,195.83460060000002,59.0,105.0
718,195.31755680000003,195.86300960000003,55.0,97.0
719,195.31755680000003,196.31944753333335,43.0,89.0
720,195.77210080000003,196.38762913333335,50.0,73.0
721,196.22664480000003,196.67171913333337,55.0,102.0
722,196.22664480000003,196.67550700000004,59.0,111.0
723,196.22664480000003,196.71149173333336,62.0,66.0
724,196.68118880000003,196.81755200000003,43.0,97.0
725,197.13573280000003,197.4065652666667,59.0,100.0
726,197.13573280000003,197.8213366666667,64.0,92.0
727,197.59027680000003,197.88194253333336,59.0,78.0
728,198.04482080000002,198.21148693333336,59.0,100.0
729,197.13573280000003,198.41603173333337,52.0,73.0
730,198.04482080000002,198.54103133333336,64.0,100.0
731,198.04482080000002,198.59784933333336,67.0,97.0
732,198.49936480000002,198.66413700000004,59.0,102.0
733,198.95390880000002,199.4747404666667,57.0,94.0
734,198.95390880000002,199.50125553333336,60.0,87.0
735,199.63572480000002,199.6925428,57.0,42.0
736,199.40845280000002,199.94443593333335,52.0,58.0
737,199.86299680000002,200.34405586666668,60.0,105.0
738,199.86299680000002,200.35352553333337,57.0,102.0
739,199.86299680000002,200.35920733333336,64.0,97.0
740,198.95390880000002,200.4861008666667,45.0,94.0
741,200.31754080000002,200.58837326666668,52.0,76.0
742,200.77208480000002,200.99556893333335,57.0,100.0
743,200.77208480000002,201.38193133333337,62.0,97.0
744,201.22662880000001,201.4008706666667,57.0,60.0
745,201.6811728,201.91412660000003,57.0,102.0
746,201.6811728,202.1508682666667,62.0,108.0
747,201.6811728,202.35162520000003,65.0,92.0
748,200.77208480000002,202.4482158,50.0,92.0
749,202.13571680000004,202.4576854666667,57.0,57.0
750,202.36298880000004,202.4633672666667,62.0,67.0
751,202.59026080000004,202.83457820000004,57.0,71.0
752,202.59026080000004,203.04480480000004,69.0,78.0
753,202.59026080000004,203.09783493333336,62.0,92.0
754,203.04480480000004,203.2304102666667,57.0,73.0
755,202.59026080000004,203.63949986666668,50.0,87.0
756,203.49934880000004,203.76828733333335,57.0,105.0
757,203.49934880000004,204.03533193333337,62.0,108.0
758,203.49934880000004,204.10919533333336,65.0,97.0
759,203.95389280000003,204.12624073333336,50.0,84.0
760,204.40843680000003,204.9804046666667,59.0,97.0
761,204.40843680000003,204.98419253333336,55.0,92.0
762,204.86298080000003,205.43116080000001,50.0,55.0
763,205.31752480000003,205.5201756666667,55.0,102.0
764,205.31752480000003,205.5258574666667,59.0,111.0
765,205.31752480000003,205.54669073333335,62.0,102.0
766,204.40843680000003,205.91600773333337,43.0,100.0
767,205.54479680000003,205.93305313333337,50.0,73.0
768,205.77206880000003,205.93684100000002,55.0,67.0
769,205.99934080000003,206.09971926666668,59.0,58.0
770,206.22661280000003,206.79100493333337,55.0,73.0
771,206.22661280000003,206.79479280000004,59.0,84.0
772,206.22661280000003,207.30426086666668,43.0,94.0
773,206.68115680000002,207.31183660000002,50.0,41.0
774,207.13570080000002,207.57888120000004,55.0,94.0
775,207.13570080000002,207.58645693333335,59.0,111.0
776,207.59024480000002,207.84781973333335,43.0,97.0
777,208.04478880000002,208.32509093333337,57.0,92.0
778,208.04478880000002,208.33077273333336,60.0,92.0
779,208.49933280000002,208.5997112666667,60.0,43.0
780,208.49933280000002,208.607287,57.0,43.0
781,208.95387680000002,209.43114800000004,57.0,111.0
782,208.95387680000002,209.44440553333337,60.0,114.0
783,209.63569280000002,209.7360712666667,57.0,76.0
784,209.63569280000002,209.74364700000004,60.0,78.0
785,209.40842080000002,209.74554093333336,52.0,87.0
786,208.04478880000002,209.77205600000002,45.0,94.0
787,209.86296480000001,210.14326693333336,57.0,108.0
788,209.86296480000001,210.1508426666667,60.0,105.0
789,210.31750880000004,210.3610692666667,57.0,43.0
790,210.31750880000004,210.38947826666669,60.0,73.0
791,210.31750880000004,210.39137220000003,64.0,76.0
792,210.54478080000004,210.65841680000003,60.0,102.0
793,210.54478080000004,210.66031073333335,57.0,92.0
794,210.54478080000004,210.66031073333335,64.0,105.0
795,209.86296480000001,210.83455260000002,52.0,97.0
796,210.77205280000004,211.00500660000003,60.0,120.0
797,210.77205280000004,211.0144762666667,57.0,114.0
798,210.77205280000004,211.02773380000002,64.0,114.0
799,211.45386880000004,211.53909580000004,60.0,44.0
800,211.45386880000004,211.55235333333337,64.0,69.0
801,211.22659680000004,211.57697446666668,57.0,100.0
802,209.86296480000001,211.61485313333336,45.0,105.0
803,210.99932480000004,211.6451560666667,52.0,94.0
804,211.68114080000004,212.14894233333337,57.0,97.0
805,211.68114080000004,212.34780533333335,60.0,94.0
806,212.36295680000003,212.45575953333335,57.0,73.0
807,212.13568480000004,212.64136500000004,52.0,73.0
808,212.59022880000003,212.8440158666667,57.0,111.0
809,212.59022880000003,212.9065156666667,60.0,111.0
810,211.68114080000004,213.10159080000003,45.0,97.0
811,212.81750080000003,213.33833246666669,52.0,76.0
812,213.04477280000003,213.3610596666667,57.0,94.0
813,213.49931680000003,214.02014846666668,55.0,87.0
814,213.49931680000003,214.0826482666667,59.0,97.0
815,214.18113280000003,214.2758294666667,55.0,69.0
816,213.49931680000003,214.4974196666667,43.0,87.0
817,213.95386080000003,214.52772260000003,50.0,64.0
818,214.40840480000003,214.87999420000003,55.0,105.0
819,214.40840480000003,214.8951456666667,59.0,111.0
820,215.31749280000002,215.59590100000003,59.0,97.0
821,215.31749280000002,215.8496880666667,64.0,92.0
822,215.77203680000002,216.07317220000002,59.0,57.0
823,215.99930880000002,216.1280962666667,64.0,80.0
824,215.31749280000002,216.3951408666667,52.0,97.0
825,216.22658080000002,216.50498900000002,59.0,108.0
826,216.22658080000002,216.66407940000002,67.0,97.0
827,216.45385280000002,216.68112480000002,52.0,97.0
828,216.22658080000002,216.71142773333335,64.0,94.0
829,216.68112480000002,216.87430600000002,59.0,100.0
830,217.13566880000002,217.70384880000003,57.0,89.0
831,217.13566880000002,217.7417274666667,60.0,78.0
832,217.59021280000002,218.15839280000003,52.0,48.0
833,218.04475680000002,218.2871802666667,57.0,105.0
834,218.04475680000002,218.31937713333338,60.0,117.0
835,218.04475680000002,218.37430120000002,64.0,100.0
836,217.13566880000002,218.59778533333335,45.0,94.0
837,218.27202880000002,218.6224064666667,52.0,66.0
838,218.49930080000001,218.76255753333336,57.0,92.0
839,218.95384480000004,219.22846513333337,57.0,100.0
840,218.95384480000004,219.5371762666667,62.0,92.0
841,219.86293280000004,220.16975000000002,57.0,102.0
842,219.86293280000004,220.3553554666667,62.0,100.0
843,219.86293280000004,220.47846113333335,65.0,97.0
844,219.40838880000004,220.5144458666667,53.0,41.0
845,218.95384480000004,220.52391553333337,50.0,87.0
846,220.31747680000004,220.63755153333335,57.0,64.0
847,220.77202080000004,221.0201260666667,57.0,89.0
848,220.77202080000004,221.27770100000004,65.0,84.0
849,220.77202080000004,221.30042820000003,62.0,89.0
850,221.22656480000003,221.49550333333337,57.0,69.0
851,220.77202080000004,221.77959333333337,50.0,94.0
852,221.68110880000003,222.13754673333335,57.0,111.0
853,221.68110880000003,222.2587584666667,62.0,105.0
854,222.13565280000003,222.37997020000003,50.0,87.0
855,222.36292480000003,222.47656080000002,57.0,97.0
856,222.59019680000003,223.14890713333335,59.0,89.0
857,222.59019680000003,223.19246760000004,55.0,97.0
858,222.59019680000003,223.63375406666668,43.0,97.0
859,223.04474080000003,223.7076174666667,50.0,69.0
860,223.49928480000003,223.9348894666667,55.0,97.0
861,223.49928480000003,224.02769220000002,59.0,108.0
862,223.49928480000003,224.12049493333336,62.0,102.0
863,223.95382880000003,224.21708553333337,43.0,97.0
864,224.40837280000002,224.63564480000002,55.0,89.0
865,224.40837280000002,224.94435593333336,60.0,100.0
866,224.86291680000002,225.00496180000002,55.0,67.0
867,224.40837280000002,225.07882520000004,48.0,80.0
868,225.31746080000002,225.5826114666667,59.0,89.0
869,225.31746080000002,225.80609560000002,52.0,111.0
870,225.31746080000002,225.83450460000003,64.0,97.0
871,225.77200480000002,225.9292012666667,59.0,105.0
872,226.22654880000002,226.7530622666667,60.0,87.0
873,226.22654880000002,226.79094093333336,57.0,94.0
874,226.68109280000002,227.1962426666667,52.0,84.0
875,227.13563680000004,227.36290880000004,57.0,111.0
876,227.13563680000004,227.41972680000003,64.0,102.0
877,226.22654880000002,227.7530590666667,45.0,100.0
878,227.36290880000004,227.87616473333335,52.0,84.0
879,227.81745280000004,227.92730093333336,60.0,84.0
880,227.59018080000004,227.93108880000003,57.0,89.0
881,228.04472480000004,228.56176860000002,59.0,105.0
882,228.04472480000004,228.59017760000003,55.0,97.0
883,228.04472480000004,229.04661553333335,43.0,89.0
884,228.49926880000004,229.11479713333335,50.0,73.0
885,228.95381280000004,229.39888713333337,55.0,102.0
886,228.95381280000004,229.40267500000002,59.0,111.0
887,228.95381280000004,229.43865973333337,62.0,66.0
888,229.40835680000004,229.54472000000004,43.0,97.0
889,229.86290080000003,230.1337332666667,59.0,100.0
890,229.86290080000003,230.5485046666667,64.0,92.0
891,230.31744480000003,230.60911053333336,59.0,78.0
892,230.77198880000003,230.93865493333337,59.0,100.0
893,229.86290080000003,231.14319973333338,52.0,73.0
894,230.77198880000003,231.26819933333337,64.0,100.0
895,230.77198880000003,231.32501733333336,67.0,97.0
896,231.22653280000003,231.39130500000002,59.0,102.0
897,231.68107680000003,232.2019084666667,57.0,94.0
898,231.68107680000003,232.22842353333337,60.0,87.0
899,232.36289280000003,232.41971080000002,57.0,42.0
900,232.13562080000003,232.67160393333336,52.0,58.0
901,232.59016480000003,233.07122386666668,60.0,105.0
902,232.59016480000003,233.08069353333337,57.0,102.0
903,232.59016480000003,233.08637533333336,64.0,97.0
904,231.68107680000003,233.2132688666667,45.0,94.0
905,233.04470880000002,233.31554126666668,52.0,76.0
906,233.49925280000002,233.72273693333335,57.0,100.0
907,233.49925280000002,234.10909933333338,62.0,97.0
908,233.95379680000002,234.1280386666667,57.0,60.0
909,234.40834080000002,234.64129460000004,57.0,102.0
910,234.40834080000002,234.8780362666667,62.0,108.0
911,234.40834080000002,235.07879320000004,65.0,92.0
912,233.49925280000002,235.17538380000002,50.0,92.0
913,234.86288480000002,235.1848534666667,57.0,57.0
914,235.09015680000002,235.1905352666667,62.0,67.0
915,235.31742880000004,235.56174620000004,57.0,71.0
916,235.31742880000004,235.77197280000004,69.0,78.0
917,235.31742880000004,235.82500293333337,62.0,92.0
918,235.77197280000004,235.9575782666667,57.0,73.0
919,235.31742880000004,236.3666678666667,50.0,87.0
920,236.22651680000004,236.49545533333335,57.0,105.0
921,236.22651680000004,236.76249993333337,62.0,108.0
922,236.22651680000004,236.83636333333337,65.0,97.0
923,236.68106080000004,236.85340873333337,50.0,84.0
924,237.13560480000004,237.7075726666667,59.0,97.0
925,237.13560480000004,237.71136053333336,55.0,92.0
926,237.59014880000004,238.15832880000002,50.0,55.0
927,238.04469280000004,238.2473436666667,55.0,102.0
928,238.04469280000004,238.25302546666668,59.0,111.0
929,238.04469280000004,238.27385873333336,62.0,102.0
930,237.13560480000004,238.64317573333335,43.0,100.0
931,238.27196480000003,238.66022113333335,50.0,73.0
932,238.49923680000003,238.66400900000002,55.0,67.0
933,238.72650880000003,238.8268872666667,59.0,58.0
934,238.92726573333337,240.03332280000004,52.0,97.0
935,238.93105360000004,240.16589813333337,59.0,64.0
936,239.03521993333337,240.35718540000002,64.0,94.0
937,240.61286640000003,242.45566353333336,59.0,58.0
938,240.4007458666667,242.47649680000004,52.0,27.0
939,240.85718380000003,243.17346426666668,71.0,39.0
940,240.68104800000003,243.18293393333337,64.0,33.0
941,240.73218420000003,243.1848278666667,67.0,57.0
942,243.95376480000004,244.21702153333337,57.0,47.0
943,243.72649280000005,244.31171820000003,52.0,44.0
944,243.49922080000002,245.16209426666668,45.0,80.0
945,244.18103680000004,245.19239720000004,60.0,80.0
946,244.86285280000004,245.23974553333338,52.0,39.0
947,245.09012480000004,245.40641166666668,57.0,60.0
948,245.31739680000004,246.5711806666667,43.0,82.0
949,245.54466880000004,246.62421080000004,50.0,58.0
950,245.77194080000004,246.78330120000004,55.0,67.0
951,245.99921280000004,246.94807340000003,59.0,94.0
952,247.36284480000003,248.16397860000004,59.0,62.0
953,247.13557280000003,248.19806940000004,52.0,100.0
954,247.59011680000003,248.8552642666667,64.0,47.0
955,247.81738880000003,248.93859733333338,67.0,92.0
956,249.18102080000003,249.7132160666667,52.0,66.0
957,248.95374880000003,250.40450173333338,45.0,80.0
958,249.40829280000003,250.6620766666667,57.0,67.0
959,249.63556480000003,250.7870762666667,60.0,94.0
960,250.99919680000002,251.56358893333336,57.0,78.0
961,250.77192480000002,252.39691960000005,50.0,92.0
962,251.22646880000002,252.5938886666667,62.0,92.0
963,251.45374080000002,252.64691880000004,65.0,97.0
964,253.04464480000004,253.3382044666667,64.0,94.0
965,252.81737280000004,253.3438862666667,59.0,73.0
966,252.59010080000004,253.9007026666667,52.0,97.0
967,253.49918880000004,254.3154740666667,64.0,15.0
968,253.27191680000004,254.3211558666667,67.0,108.0
969,254.63554880000004,255.1222896666667,52.0,62.0
970,254.86282080000004,255.77759060000002,57.0,71.0
971,255.09009280000004,256.0749381333334,60.0,102.0
972,254.40827680000004,256.0768320666667,45.0,94.0
973,255.77190880000003,256.10145320000004,52.0,33.0
974,255.99918080000003,256.16395300000005,57.0,71.0
975,256.7870570666667,259.50674533333336,57.0,62.0
976,257.49349420000004,259.50674533333336,64.0,67.0
977,257.10713180000005,259.5086392666667,60.0,84.0
978,256.23213460000005,259.5237907333334,45.0,84.0
979,258.0256894666667,259.5237907333334,69.0,33.0
980,256.4991792,259.5294725333334,52.0,80.0
