,start,end,pitch,velocity
0,35.41733274166667,36.273263975000006,66.0,87.0
1,36.43639938333334,36.64614490833333,66.0,93.0
2,36.72029736666667,37.05080546666667,64.0,85.0
3,37.2202968,38.184278758333335,66.0,90.0
4,38.44275304166667,38.64826128333333,66.0,87.0
5,38.692752758333334,38.821989900000005,62.0,83.0
6,38.94487111666667,39.09953195833334,64.0,93.0
7,39.19063355,39.36436216666667,66.0,83.0
8,39.46817560833334,39.75207359166667,64.0,87.0
9,39.93003949166667,40.59105569166667,64.0,93.0
10,40.76690295,41.135546600000005,62.0,87.0
11,41.243597325,41.771139100000006,62.0,87.0
12,41.764783175000005,42.86012091666667,59.0,67.0
13,43.55291674166667,43.94274680833334,64.0,87.0
14,44.06139074166667,44.51266141666667,64.0,87.0
15,44.56986474166667,45.021135416666674,64.0,87.0
16,45.07833874166667,45.26901649166667,62.0,72.0
17,45.33257574166667,46.37706608333334,64.0,80.0
18,46.60376074166667,47.002065375,69.0,95.0
19,47.11223474166667,47.38765815833334,66.0,87.0
20,47.36647174166667,47.87494574166667,64.0,93.0
21,47.87494574166667,49.97875691666667,66.0,74.0
22,51.18002674166667,51.32833165833334,62.0,87.0
23,51.43426374166667,51.59528050833334,64.0,87.0
24,51.68850074166667,52.08044945,66.0,87.0
25,52.19697474166667,52.824092675,66.0,87.0
26,52.95968574166667,53.19909225000001,66.0,74.0
27,53.21392274166667,53.78171870833334,71.0,102.0
28,53.72239674166667,54.724514250000006,69.0,102.0
29,55.24781874166667,55.38129316666667,69.0,83.0
30,55.50205574166667,55.646123375,69.0,93.0
31,55.75629274166667,55.925784075,71.0,93.0
32,56.01052974166667,56.133410958333336,62.0,67.0
33,56.26476674166667,56.396122525,62.0,70.0
34,56.51900374166667,56.917308375000005,62.0,87.0
35,57.02747774166667,57.24781647500001,62.0,85.0
36,57.28171474166667,57.67154480833334,69.0,93.0
37,57.79018874166667,58.79230625,66.0,80.0
38,59.315610741666674,59.53171219166667,64.0,87.0
39,59.56984774166667,60.89823606666667,62.0,74.0
40,61.09526974166667,61.60162510000001,65.0,87.0
41,61.60374374166667,61.866455308333336,64.0,80.0
42,61.85798074166667,62.94484391666667,62.0,80.0
43,63.38340274166667,63.593148266666674,59.0,87.0
44,63.637639741666675,63.78594465833334,57.0,80.0
45,63.89187674166667,64.03806301666667,69.0,93.0
46,64.14611374166667,64.25628310833334,69.0,87.0
47,64.40035074166667,64.52323195833334,69.0,87.0
48,64.65458774166667,64.79229945,69.0,93.0
49,64.90882474166668,65.03170595833333,71.0,66.0
50,65.16306174166667,65.294417525,69.0,93.0
51,65.41729874166667,65.57407822500001,66.0,80.0
52,65.67153574166667,68.599498525,69.0,95.0
53,69.23085374166668,69.34949767500001,69.0,83.0
54,69.48509074166667,69.60161603333334,71.0,87.0
55,69.73932774166667,69.87703945000001,69.0,93.0
56,69.99356474166667,70.60373354166667,66.0,87.0
57,70.75627574166667,71.3389022,69.0,93.0
58,71.51898674166667,71.90246088333333,66.0,93.0
59,72.02746074166667,72.43635858333334,64.0,93.0
60,72.53593474166668,72.70118879166667,66.0,95.0
61,72.79017174166667,73.14610354166668,64.0,87.0
62,73.29864574166668,73.696950375,66.0,80.0
63,73.80711974166667,73.95966194166667,69.0,93.0
64,74.06135674166667,76.48296416666668,62.0,90.0
65,77.11220074166667,77.48296303333333,66.0,83.0
66,77.62067474166668,77.77321694166667,64.0,80.0
67,77.87491174166668,78.06982677500001,62.0,85.0
68,78.12914874166667,78.52957201666668,59.0,83.0
69,78.63762274166668,79.34101177500001,62.0,90.0
70,79.65457074166667,80.078299075,64.0,87.0
71,80.16304474166667,80.95329808333334,57.0,93.0
72,81.17999274166668,81.62067020833334,66.0,93.0
73,81.68846674166667,81.819822525,69.0,102.0
74,81.94270374166668,82.65244870000001,66.0,74.0
75,82.70541474166667,84.34736203333334,64.0,87.0
76,85.50202174166668,85.62066567500001,69.0,83.0
77,85.75625874166667,85.87278403333335,71.0,87.0
78,86.01049574166667,86.14820745,69.0,93.0
79,86.26473274166668,86.87490154166667,66.0,87.0
80,87.02744374166667,87.61007020000001,69.0,93.0
81,87.79015474166667,88.17362888333334,66.0,93.0
82,88.29862874166668,88.70752658333335,64.0,93.0
83,88.80710274166667,88.97235679166667,66.0,95.0
84,89.06133974166667,89.41727154166668,64.0,87.0
85,89.56981374166668,89.968118375,66.0,80.0
86,90.07828774166667,90.23082994166667,69.0,93.0
87,90.33252474166667,92.75413216666668,62.0,90.0
88,93.38336874166667,93.75413103333334,66.0,83.0
89,93.89184274166668,94.04438494166668,64.0,80.0
90,94.14607974166667,94.34099477500001,62.0,85.0
91,94.40031674166667,94.80074001666668,59.0,83.0
92,94.90879074166668,95.41726474166667,62.0,90.0
93,95.41726474166667,95.67150174166667,62.0,100.0
94,95.67150174166667,96.095230075,64.0,87.0
95,96.17997574166668,96.97022908333334,57.0,93.0
96,97.45116074166667,97.89183820833334,66.0,93.0
97,97.95963474166668,98.09099052500001,69.0,102.0
98,98.21387174166668,98.92361670000001,66.0,74.0
99,98.97658274166668,100.61853003333334,64.0,87.0
100,101.51895274166668,101.95963020833334,66.0,87.0
101,102.02742674166667,102.34946027500001,69.0,103.0
102,102.53590074166668,103.18208645000001,64.0,93.0
103,103.29861174166668,106.01682900000002,62.0,83.0
104,123.89392738333335,124.10367290833334,66.0,93.0
105,124.17782536666668,124.50833346666668,64.0,85.0
106,124.67782480000001,125.64180675833335,66.0,90.0
107,125.90028104166667,126.10578928333335,66.0,87.0
108,126.15028075833334,126.27951790000002,62.0,83.0
109,126.40239911666667,126.55705995833334,64.0,93.0
110,126.64816155000001,126.82189016666668,66.0,83.0
111,126.92570360833335,127.20960159166668,64.0,87.0
112,127.38756749166667,128.04858369166666,64.0,93.0
113,128.22443095,128.59307460000002,62.0,87.0
114,128.70112532500002,129.22866710000002,62.0,87.0
115,129.22231117500002,130.31764891666668,59.0,67.0
116,131.01044474166667,131.40027480833334,64.0,87.0
117,131.51891874166668,131.97018941666667,64.0,87.0
118,132.0273927416667,132.47866341666668,64.0,87.0
119,132.53586674166667,132.7265444916667,62.0,72.0
120,132.79010374166668,133.83459408333334,64.0,80.0
121,134.0612887416667,134.45959337500003,69.0,95.0
122,134.56976274166666,134.84518615833335,66.0,87.0
123,134.82399974166668,135.3324737416667,64.0,93.0
124,135.3324737416667,137.43628491666666,66.0,74.0
125,138.6375547416667,138.78585965833335,62.0,87.0
126,138.89179174166668,139.05280850833336,64.0,87.0
127,139.14602874166667,139.53797745,66.0,87.0
128,139.65450274166668,140.281620675,66.0,87.0
129,140.41721374166667,140.65662025,66.0,74.0
130,140.6714507416667,141.23924670833335,71.0,102.0
131,141.17992474166667,142.18204225000002,69.0,102.0
132,142.7053467416667,142.8388211666667,69.0,83.0
133,142.95958374166668,143.103651375,69.0,93.0
134,143.21382074166667,143.38331207500002,71.0,93.0
135,143.46805774166668,143.59093895833334,62.0,67.0
136,143.72229474166667,143.853650525,62.0,70.0
137,143.9765317416667,144.374836375,62.0,87.0
138,144.48500574166667,144.705344475,62.0,85.0
139,144.7392427416667,145.12907280833335,69.0,93.0
140,145.2477167416667,146.24983425000002,66.0,80.0
141,146.77313874166668,146.98924019166668,64.0,87.0
142,147.02737574166667,148.35576406666667,62.0,74.0
143,148.55279774166667,149.0591531,65.0,87.0
144,149.06127174166667,149.32398330833334,64.0,80.0
145,149.3155087416667,150.40237191666668,62.0,80.0
146,150.84093074166668,151.05067626666667,59.0,87.0
147,151.09516774166667,151.24347265833336,57.0,80.0
148,151.3494047416667,151.49559101666668,69.0,93.0
149,151.60364174166668,151.71381110833335,69.0,87.0
150,151.85787874166667,151.98075995833335,69.0,87.0
151,152.11211574166668,152.24982745000003,69.0,93.0
152,152.36635274166667,152.48923395833336,71.0,66.0
153,152.6205897416667,152.75194552500002,69.0,93.0
154,152.87482674166668,153.03160622500002,66.0,80.0
155,153.12906374166667,156.05702652500003,69.0,95.0
156,156.6883817416667,156.807025675,69.0,83.0
157,156.94261874166668,157.05914403333335,71.0,87.0
158,157.19685574166667,157.33456745,69.0,93.0
159,157.45109274166668,158.06126154166668,66.0,87.0
160,158.21380374166668,158.7964302,69.0,93.0
161,158.97651474166668,159.35998888333336,66.0,93.0
162,159.48498874166668,159.89388658333334,64.0,93.0
163,159.9934627416667,160.15871679166668,66.0,95.0
164,160.24769974166668,160.6036315416667,64.0,87.0
165,160.7561737416667,161.15447837500002,66.0,80.0
166,161.2646477416667,161.4171899416667,69.0,93.0
167,161.51888474166668,163.94049216666667,62.0,90.0
168,164.5697287416667,164.94049103333336,66.0,83.0
169,165.07820274166667,165.23074494166667,64.0,80.0
170,165.3324397416667,165.52735477500002,62.0,85.0
171,165.58667674166668,165.9871000166667,59.0,83.0
172,166.09515074166669,166.79853977500002,62.0,90.0
173,167.11209874166667,167.53582707500001,64.0,87.0
174,167.62057274166668,168.41082608333335,57.0,93.0
175,168.6375207416667,169.07819820833336,66.0,93.0
176,169.14599474166667,169.277350525,69.0,102.0
177,169.4002317416667,170.1099767,66.0,74.0
178,170.16294274166668,171.80489003333335,64.0,87.0
179,172.95954974166668,173.07819367500002,69.0,83.0
180,173.2137867416667,173.33031203333334,71.0,87.0
181,173.46802374166668,173.60573545000003,69.0,93.0
182,173.72226074166667,174.33242954166667,66.0,87.0
183,174.48497174166667,175.06759820000002,69.0,93.0
184,175.2476827416667,175.63115688333335,66.0,93.0
185,175.75615674166667,176.16505458333336,64.0,93.0
186,176.26463074166668,176.4298847916667,66.0,95.0
187,176.51886774166667,176.87479954166668,64.0,87.0
188,177.02734174166667,177.425646375,66.0,80.0
189,177.53581574166668,177.68835794166668,69.0,93.0
190,177.79005274166667,180.2116601666667,62.0,90.0
191,180.84089674166668,181.21165903333335,66.0,83.0
192,181.3493707416667,181.5019129416667,64.0,80.0
193,181.60360774166668,181.798522775,62.0,85.0
194,181.8578447416667,182.25826801666668,59.0,83.0
195,182.36631874166667,182.87479274166668,62.0,90.0
196,182.87479274166668,183.12902974166667,62.0,100.0
197,183.12902974166667,183.552758075,64.0,87.0
198,183.63750374166668,184.42775708333335,57.0,93.0
199,184.90868874166668,185.34936620833335,66.0,93.0
200,185.4171627416667,185.54851852500002,69.0,102.0
201,185.67139974166668,186.38114470000002,66.0,74.0
202,186.43411074166667,188.07605803333334,64.0,87.0
203,188.97648074166668,189.41715820833335,66.0,87.0
204,189.48495474166668,189.806988275,69.0,103.0
205,189.9934287416667,190.63961445,64.0,93.0
206,190.7561397416667,193.47435700000003,62.0,83.0
207,194.5696947416667,194.9192706166667,61.0,102.0
208,195.07816874166667,195.41079548333335,61.0,103.0
209,195.58664274166668,195.73071037500003,69.0,102.0
210,195.8408797416667,196.1840996916667,69.0,103.0
211,196.34935374166668,197.1692680666667,61.0,102.0
212,197.3663017416667,197.55486085,61.0,103.0
213,197.62053874166668,197.74977588333334,62.0,95.0
214,197.8747757416667,198.02308065833336,64.0,102.0
215,198.12901274166668,198.52308009166669,64.0,103.0
216,198.6374867416667,198.98070669166668,62.0,95.0
217,199.14596074166667,199.29426565833336,62.0,93.0
218,199.4001977416667,199.7497736166667,64.0,90.0
219,199.9086717416667,202.150194625,62.0,102.0
220,202.7052787416667,203.03366820000002,61.0,93.0
221,203.2137527416667,203.54426084166667,61.0,103.0
222,203.72222674166667,203.86629437500002,69.0,93.0
223,203.9764637416667,204.36629380833335,69.0,102.0
224,204.4849377416667,204.61841216666667,61.0,87.0
225,204.7391747416667,205.34298761666668,61.0,70.0
226,205.50188574166668,205.67561435833335,61.0,93.0
227,205.75612274166667,205.87052939166668,59.0,93.0
228,206.0103597416667,206.1438341666667,57.0,102.0
229,206.26459674166668,206.59086755833334,59.0,103.0
230,206.7730707416667,208.76247526666668,62.0,102.0
231,208.80696674166668,208.94255980833336,66.0,95.0
232,209.06120374166667,209.19891545000002,66.0,70.0
233,209.3154407416667,209.67984710833335,66.0,95.0
234,209.8239147416667,210.02730434166668,64.0,102.0
235,210.0781517416667,210.26671085,62.0,102.0
236,210.33238874166668,210.8090831166667,71.0,105.0
237,210.84086274166668,211.04213370000002,74.0,93.0
238,211.09509974166667,211.47433660000002,71.0,87.0
239,211.60357374166668,215.06543422500002,69.0,105.0
240,217.70526174166667,217.82390567500002,70.0,83.0
241,217.9594987416667,218.07602403333334,72.0,87.0
242,218.21373574166668,218.35144745000002,70.0,93.0
243,218.4679727416667,219.0781415416667,67.0,87.0
244,219.2306837416667,219.81331020000002,70.0,93.0
245,219.9933947416667,220.37686888333334,67.0,93.0
246,220.5018687416667,220.91076658333336,65.0,93.0
247,221.01034274166668,221.1755967916667,67.0,95.0
248,221.2645797416667,221.62051154166667,65.0,87.0
249,221.77305374166667,222.171358375,67.0,80.0
250,222.28152774166668,222.43406994166668,70.0,93.0
251,222.5357647416667,224.9573721666667,63.0,90.0
252,225.58660874166668,225.95737103333335,67.0,83.0
253,226.0950827416667,226.2476249416667,65.0,80.0
254,226.34931974166668,226.544234775,63.0,85.0
255,226.6035567416667,227.00398001666667,60.0,83.0
256,227.1120307416667,227.815419775,63.0,90.0
257,228.12897874166669,228.55270707500003,65.0,87.0
258,228.6374527416667,229.42770608333336,58.0,93.0
259,229.65440074166668,230.09507820833335,67.0,93.0
260,230.16287474166668,230.29423052500002,70.0,102.0
261,230.41711174166667,231.12685670000002,67.0,74.0
262,231.1798227416667,232.82177003333337,65.0,87.0
263,233.9764297416667,234.095073675,70.0,83.0
264,234.23066674166668,234.34719203333336,72.0,87.0
265,234.4849037416667,234.62261545,70.0,93.0
266,234.7391407416667,235.34930954166668,67.0,87.0
267,235.50185174166668,236.0844782,70.0,93.0
268,236.26456274166668,236.64803688333336,67.0,93.0
269,236.7730367416667,237.18193458333334,65.0,93.0
270,237.2815107416667,237.44676479166668,67.0,95.0
271,237.53574774166668,237.8916795416667,65.0,87.0
272,238.0442217416667,238.44252637500003,67.0,80.0
273,238.5526957416667,238.7052379416667,70.0,93.0
274,238.80693274166669,241.22854016666668,63.0,90.0
275,241.8577767416667,242.22853903333336,67.0,83.0
276,242.36625074166668,242.51879294166667,65.0,80.0
277,242.6204877416667,242.81540277500002,63.0,85.0
278,242.87472474166668,243.2751480166667,60.0,83.0
279,243.3831987416667,243.8916727416667,63.0,90.0
280,243.8916727416667,244.14590974166669,63.0,100.0
281,244.14590974166669,244.56963807500003,65.0,87.0
282,244.6543837416667,245.44463708333336,58.0,93.0
283,245.9255687416667,246.36624620833337,67.0,93.0
284,246.4340427416667,246.56539852500003,70.0,102.0
285,246.6882797416667,247.3980247,67.0,74.0
286,247.4509907416667,249.09293803333335,65.0,87.0
287,249.9933607416667,250.43403820833336,67.0,87.0
288,250.5018347416667,250.82386827500002,70.0,103.0
289,251.01030874166668,251.65649445000003,65.0,93.0
290,251.7730197416667,254.491237,63.0,83.0
