,start,end,pitch,velocity
0,3.383470741666667,3.9067752333333337,57.0,45.0
1,3.891944741666667,4.43643565,62.0,54.0
2,4.400418741666667,5.08474,57.0,49.0
3,4.9088927416666674,5.502112408333334,69.0,69.0
4,4.9088927416666674,5.527536108333334,62.0,60.0
5,5.417366741666667,6.122874416666667,57.0,45.0
6,2.874996741666667,6.1525354000000005,50.0,68.0
7,5.925840741666667,6.2076200833333335,66.0,59.0
8,5.925840741666667,6.3241453750000005,62.0,60.0
9,6.942788741666667,7.561432108333334,62.0,53.0
10,6.942788741666667,7.997872291666668,66.0,50.0
11,7.959736741666667,8.584736033333334,62.0,71.0
12,8.468210741666667,8.648295283333335,69.0,70.0
13,8.976684741666668,9.283887783333334,74.0,80.0
14,9.485158741666668,9.644056866666668,62.0,29.0
15,9.993632741666667,10.273293441666668,66.0,61.0
16,9.993632741666667,10.286005291666667,69.0,85.0
17,6.942788741666667,10.302954425000001,38.0,41.0
18,9.993632741666667,10.319903558333333,62.0,70.0
19,7.4512627416666675,10.332615408333334,45.0,51.0
20,11.010580741666667,11.766935816666667,55.0,65.0
21,11.010580741666667,12.122867616666667,62.0,69.0
22,11.519054741666668,12.252104758333335,50.0,51.0
23,12.027528741666668,12.578375575,55.0,72.0
24,12.536002741666668,13.406764466666667,50.0,30.0
25,13.044476741666667,13.792357250000002,59.0,65.0
26,14.061424741666668,14.286000758333335,55.0,74.0
27,14.061424741666668,14.345322725,62.0,72.0
28,13.552950741666669,14.468203941666667,50.0,36.0
29,11.010580741666667,14.493627641666668,43.0,80.0
30,15.078372741666668,16.093202100000003,66.0,60.0
31,15.078372741666668,16.131337650000003,57.0,63.0
32,16.09532074166667,16.718201391666668,62.0,70.0
33,16.60379474166667,17.211844900000003,57.0,50.0
34,17.620742741666668,17.836844191666668,57.0,43.0
35,17.112268741666668,18.031759225000002,66.0,85.0
36,15.078372741666668,18.24150475,38.0,68.0
37,15.586846741666667,18.249979316666668,45.0,53.0
38,18.129216741666667,18.309301283333333,57.0,68.0
39,18.129216741666667,18.33260634166667,62.0,74.0
40,19.14616474166667,19.866502908333334,62.0,67.0
41,19.14616474166667,19.879214758333337,66.0,61.0
42,19.14616474166667,20.423705666666667,38.0,74.0
43,19.65463874166667,20.447010725000002,45.0,50.0
44,20.16311274166667,20.597434283333335,66.0,87.0
45,20.16311274166667,20.70972229166667,69.0,87.0
46,20.67158674166667,20.788112033333334,62.0,72.0
47,21.18006074166667,21.4576028,61.0,64.0
48,21.18006074166667,21.868619283333334,64.0,74.0
49,21.18006074166667,22.44488981666667,49.0,64.0
50,22.197008741666668,22.48726265,64.0,67.0
51,21.68853474166667,22.506330425,61.0,64.0
52,22.197008741666668,22.7542115,69.0,80.0
53,23.213956741666667,23.953362683333335,59.0,65.0
54,23.213956741666667,24.28810806666667,62.0,70.0
55,23.72243074166667,24.627090733333336,54.0,59.0
56,23.213956741666667,24.650395791666668,47.0,68.0
57,24.23090474166667,24.824124408333336,59.0,80.0
58,24.73937874166667,24.836836258333335,62.0,68.0
59,25.24785274166667,26.285987158333334,57.0,67.0
60,25.24785274166667,26.32200406666667,61.0,61.0
61,26.26480074166667,26.572003783333336,64.0,87.0
62,25.75632674166667,26.76691881666667,52.0,68.0
63,25.24785274166667,26.800817083333335,45.0,74.0
64,26.77327474166667,27.006325325000002,62.0,71.0
65,27.027511741666668,27.305053800000003,61.0,68.0
66,27.281748741666668,28.226662925000003,59.0,68.0
67,27.790222741666668,28.480899925000003,50.0,68.0
68,27.281748741666668,28.48937449166667,43.0,74.0
69,28.29869674166667,28.773272475000002,55.0,83.0
70,29.31564474166667,30.404626558333337,57.0,71.0
71,29.31564474166667,30.521151850000003,42.0,68.0
72,29.82411874166667,30.565643325000003,50.0,44.0
73,30.33259274166667,30.832592175000002,62.0,80.0
74,31.34954074166667,32.40038700833334,57.0,68.0
75,31.34954074166667,32.51903094166667,64.0,70.0
76,32.36648874166667,32.936403350000006,61.0,80.0
77,31.34954074166667,34.27326624166667,45.0,83.0
78,31.85801474166667,34.28174080833334,52.0,68.0
79,32.87496274166667,34.31352043333334,57.0,65.0
80,33.38343674166667,34.32623228333333,69.0,87.0
81,35.41733274166667,36.209704725,62.0,61.0
82,35.41733274166667,36.49148406666667,66.0,55.0
83,36.43428074166667,37.19063581666667,62.0,83.0
84,37.19699174166667,37.468177875,64.0,87.0
85,37.45122874166667,37.87071979166667,66.0,52.0
86,36.94275474166667,38.815633975000004,54.0,54.0
87,35.41733274166667,38.88554915,50.0,69.0
88,35.92580674166667,39.52326029166667,57.0,50.0
89,39.48512474166667,40.26690351666667,64.0,80.0
90,40.24783574166667,40.81351306666667,61.0,60.0
91,40.75630974166667,41.12071610833334,64.0,71.0
92,41.51902074166667,41.713935775,69.0,85.0
93,39.99359874166667,42.921561525,57.0,55.0
94,39.48512474166667,43.31774751666667,49.0,66.0
95,42.79020574166667,43.33681529166667,64.0,87.0
96,43.04444274166667,43.39401861666667,57.0,68.0
97,43.29867974166667,43.55503538333334,61.0,58.0
98,44.06139074166667,44.41732254166667,64.0,65.0
99,43.80715374166667,44.84528815833334,59.0,52.0
100,43.55291674166667,44.87918642500001,52.0,63.0
101,44.315627741666674,45.648253350000005,67.0,68.0
102,46.09528674166667,46.4236762,57.0,80.0
103,46.34952374166667,46.67579455833334,62.0,85.0
104,46.85799774166667,47.01689586666667,57.0,74.0
105,45.84104974166667,47.03596364166667,52.0,59.0
106,45.58681274166667,47.13130251666667,45.0,72.0
107,46.85799774166667,47.139777083333335,64.0,80.0
108,47.11223474166667,47.41096321666667,62.0,74.0
109,47.36647174166667,48.06138620833334,57.0,68.0
110,47.62070874166667,48.72240240833334,66.0,60.0
111,48.38341974166667,49.067741000000005,57.0,66.0
112,48.89189374166667,49.17367308333334,62.0,53.0
113,49.146130741666674,49.38765589166667,64.0,70.0
114,49.40036774166667,49.538079450000005,62.0,71.0
115,49.654604741666674,49.849519775000005,66.0,64.0
116,47.62070874166667,49.94062136666667,38.0,68.0
117,48.12918274166667,49.972400991666674,45.0,51.0
118,50.67155274166667,50.97239985833334,57.0,68.0
119,50.67155274166667,51.27960290000001,64.0,72.0
120,51.18002674166667,51.51689076666667,57.0,64.0
121,50.67155274166667,51.540195825000005,45.0,87.0
122,51.43426374166667,51.55290767500001,61.0,68.0
123,50.92578974166667,51.56350088333334,52.0,63.0
124,51.68850074166667,52.283839050000005,66.0,71.0
125,52.19697474166667,52.54231333333334,59.0,61.0
126,52.45121174166667,52.69909281666667,62.0,85.0
127,51.94273774166667,53.13977028333334,54.0,56.0
128,51.68850074166667,53.271126066666675,47.0,63.0
129,52.95968574166667,53.332566675,59.0,68.0
130,52.95968574166667,53.383414075000005,66.0,66.0
131,53.72239674166667,54.781717575,61.0,68.0
132,54.485107741666674,55.07832740833334,49.0,63.0
133,54.73934474166667,55.08680197500001,57.0,74.0
134,53.72239674166667,55.08892061666667,42.0,68.0
135,54.993581741666674,55.31349663333334,61.0,74.0
136,55.24781874166667,55.49569981666667,66.0,93.0
137,55.50205574166667,55.61646239166667,57.0,83.0
138,55.75629274166667,56.091038125000004,55.0,80.0
139,55.75629274166667,56.097394050000005,59.0,70.0
140,55.75629274166667,56.18637700000001,43.0,83.0
141,56.77324074166667,57.20756228333334,61.0,63.0
142,56.77324074166667,57.298663875,57.0,55.0
143,56.77324074166667,57.586799141666674,45.0,83.0
144,57.79018874166667,58.086798575,57.0,65.0
145,57.79018874166667,58.35798470833334,62.0,69.0
146,58.298662741666675,58.47874728333334,57.0,53.0
147,58.55289974166667,58.81984859166667,64.0,70.0
148,58.807136741666675,59.040187325000005,62.0,72.0
149,59.06137374166667,59.357983575000006,57.0,93.0
150,57.79018874166667,59.48298343333334,50.0,68.0
151,59.315610741666674,59.68425439166667,66.0,83.0
152,59.56984774166667,59.8473898,57.0,65.0
153,60.33255874166667,60.66730412500001,55.0,70.0
154,60.58679574166667,60.921541125000005,59.0,74.0
155,61.09526974166667,61.19272725833334,62.0,87.0
156,60.07832174166667,61.58043868333334,50.0,61.0
157,59.824084741666674,61.67577755833334,43.0,83.0
158,61.85798074166667,62.576200266666675,62.0,69.0
159,62.620691741666676,62.82408134166667,58.0,64.0
160,61.85798074166667,63.091030191666675,55.0,68.0
161,62.87492874166667,63.239335108333336,67.0,93.0
162,61.85798074166667,63.432131500000004,43.0,87.0
163,62.36645474166667,63.440606066666675,50.0,61.0
164,63.129165741666675,63.44272470833334,62.0,74.0
165,63.38340274166667,63.48721618333334,55.0,80.0
166,63.89187674166667,64.43848629166668,59.0,68.0
167,63.89187674166667,64.66094366666667,64.0,70.0
168,64.65458774166667,65.03806188333334,59.0,66.0
169,64.90882474166668,65.21390914166668,64.0,74.0
170,63.89187674166667,65.319841225,40.0,72.0
171,64.40035074166667,65.35585813333334,47.0,54.0
172,65.16306174166667,65.49992576666668,67.0,80.0
173,65.41729874166667,65.58467143333334,59.0,71.0
174,65.92577274166668,66.43424674166667,57.0,70.0
175,65.92577274166668,66.52111105,64.0,74.0
176,66.68848374166667,67.10585615000001,57.0,68.0
177,66.94272074166668,67.25627970833334,64.0,70.0
178,67.45119474166667,67.71178766666667,57.0,66.0
179,65.92577274166668,67.75416050000001,45.0,87.0
180,67.19695774166668,67.76475370833334,69.0,93.0
181,66.43424674166667,67.80077061666667,52.0,56.0
182,67.70543174166667,68.5677189,64.0,69.0
183,68.46814274166667,68.62704086666668,57.0,61.0
184,68.21390574166668,68.81559997500001,52.0,60.0
185,68.72237974166667,69.09102339166667,57.0,72.0
186,68.72237974166667,69.19483683333334,61.0,68.0
187,69.23085374166668,69.43000605833333,57.0,80.0
188,69.48509074166667,69.65246343333334,64.0,80.0
189,67.95966874166668,69.78805650000001,45.0,87.0
190,68.97661674166667,69.80924291666668,52.0,70.0
191,69.99356474166667,70.14186965833333,57.0,72.0
192,69.99356474166667,70.26686951666667,62.0,80.0
193,70.24780174166668,70.633394525,57.0,61.0
194,70.50203874166667,70.66093686666667,62.0,65.0
195,69.99356474166667,71.76051189166667,50.0,71.0
196,70.75627574166667,71.968138775,66.0,65.0
197,71.51898674166667,72.01474889166667,57.0,80.0
198,71.77322374166667,72.057121725,62.0,68.0
199,72.53593474166668,72.78805310000001,61.0,80.0
200,72.28169774166668,72.87279876666668,57.0,80.0
201,72.79017174166667,73.341018575,64.0,80.0
202,73.29864574166668,73.60373014166667,61.0,71.0
203,73.55288274166668,73.696950375,57.0,55.0
204,72.02746074166667,73.74144185,49.0,68.0
205,74.06135674166667,75.07194881666668,62.0,69.0
206,74.06135674166667,75.19271139166668,59.0,55.0
207,74.56983074166668,75.21601645000001,54.0,63.0
208,75.33254174166667,75.67152440833334,54.0,49.0
209,75.07830474166667,75.896100425,66.0,80.0
210,74.06135674166667,75.9405919,47.0,80.0
211,75.58677874166668,76.14821878333333,59.0,69.0
212,75.84101574166667,76.55923526666668,62.0,74.0
213,76.60372674166668,76.93635348333333,57.0,70.0
214,76.34948974166667,77.103726175,52.0,63.0
215,76.09525274166667,77.9999116,45.0,80.0
216,77.62067474166668,78.07830134166667,52.0,34.0
217,76.85796374166668,78.60584311666668,62.0,87.0
218,78.63762274166668,79.05075786666667,55.0,72.0
219,78.89185974166668,79.226605125,59.0,90.0
220,78.38338574166667,79.60160470000001,50.0,52.0
221,78.12914874166667,79.607960625,43.0,85.0
222,79.40033374166667,79.61219790833334,55.0,71.0
223,79.40033374166667,79.63762160833333,62.0,93.0
224,80.16304474166667,80.67999330833334,62.0,68.0
225,80.67151874166667,81.476602575,57.0,68.0
226,80.92575574166668,81.50414491666668,62.0,70.0
227,80.16304474166667,81.54863639166668,42.0,68.0
228,80.41728174166667,81.58677194166667,50.0,49.0
229,81.43422974166667,81.75626327500001,66.0,69.0
230,81.68846674166667,81.80499203333333,57.0,74.0
231,82.19694074166668,82.76473670833334,59.0,63.0
232,82.19694074166668,82.97871951666667,64.0,72.0
233,82.95965174166668,83.29651576666667,59.0,68.0
234,83.21388874166668,83.49990536666667,64.0,102.0
235,82.70541474166667,83.57405782500001,47.0,60.0
236,83.46812574166667,83.8219389,59.0,93.0
237,82.19694074166668,83.929989625,40.0,80.0
238,83.72236274166667,84.01261665000001,47.0,80.0
239,83.97659974166667,84.34100610833335,59.0,83.0
240,84.73931074166667,85.10159846666667,57.0,80.0
241,84.48507374166667,85.16727635833334,52.0,58.0
242,84.23083674166668,85.16939500000001,45.0,93.0
243,85.24778474166668,85.5507505,57.0,85.0
244,85.24778474166668,85.70752998333334,61.0,80.0
245,85.75625874166667,85.91727550833335,57.0,74.0
246,85.24778474166668,86.06981770833335,52.0,83.0
247,85.24778474166668,86.08252955833333,45.0,80.0
248,86.26473274166668,86.42574950833334,57.0,80.0
249,86.26473274166668,86.58464763333335,62.0,80.0
250,86.51896974166668,86.94057943333334,57.0,71.0
251,86.77320674166667,87.06557929166668,62.0,68.0
252,87.53591774166668,87.84947670833334,62.0,70.0
253,87.02744374166667,87.84947670833334,66.0,83.0
254,86.26473274166668,88.07617136666667,50.0,83.0
255,87.79015474166667,88.14608654166668,57.0,74.0
256,88.29862874166668,88.80498410000001,61.0,70.0
257,88.80710274166667,89.16515318333335,57.0,80.0
258,89.06133974166667,89.59735608333334,61.0,80.0
259,88.29862874166668,89.90879640833334,45.0,70.0
260,89.56981374166668,89.94693195833334,64.0,93.0
261,89.82405074166667,89.97023701666667,57.0,65.0
262,88.55286574166668,89.99354207500001,52.0,61.0
263,90.33252474166667,90.85371059166667,62.0,72.0
264,90.58676174166668,91.62277751666667,54.0,53.0
265,90.84099874166668,91.85159081666667,59.0,66.0
266,90.33252474166667,92.17362435000001,47.0,68.0
267,91.09523574166667,92.31557334166668,66.0,80.0
268,91.85794674166668,92.49565788333334,54.0,45.0
269,92.11218374166667,92.88336930833334,62.0,69.0
270,92.62065774166668,93.41091108333335,54.0,67.0
271,92.87489474166668,93.75201239166668,57.0,72.0
272,93.89184274166668,94.02531716666668,54.0,31.0
273,92.36642074166667,94.28802873333335,45.0,74.0
274,94.14607974166667,94.62489275833335,57.0,58.0
275,93.12913174166667,94.71175706666668,62.0,90.0
276,94.90879074166668,95.29862080833334,55.0,70.0
277,95.16302774166668,95.54014595833334,59.0,83.0
278,95.67150174166667,95.88760319166667,55.0,80.0
279,94.65455374166667,95.93209466666667,50.0,53.0
280,95.67150174166667,95.94692515833334,62.0,90.0
281,94.40031674166667,95.98082342500001,43.0,83.0
282,96.43421274166667,96.73929714166667,57.0,72.0
283,96.43421274166667,96.98717821666668,62.0,66.0
284,96.43421274166667,97.67573675833334,42.0,74.0
285,96.68844974166667,97.71175366666668,50.0,49.0
286,96.94268674166668,97.735058725,57.0,68.0
287,97.19692374166668,97.87277043333334,66.0,70.0
288,97.70539774166667,98.03166855833334,61.0,68.0
289,97.95963474166668,98.09310916666668,57.0,83.0
290,98.46810874166667,98.77319314166668,59.0,56.0
291,98.46810874166667,98.993531875,64.0,69.0
292,98.97658274166668,99.45115847500001,59.0,66.0
293,99.23081974166668,99.58675154166667,64.0,87.0
294,99.73929374166667,99.94056470000001,59.0,85.0
295,98.46810874166667,99.96810704166667,40.0,74.0
296,98.72234574166667,99.98505617500001,47.0,59.0
297,99.99353074166667,100.50836066666668,59.0,69.0
298,99.73929374166667,100.86217382500001,67.0,74.0
299,101.01047874166667,102.00412168333334,57.0,72.0
300,101.26471574166668,102.06344365000001,61.0,69.0
301,100.75624174166667,102.30920608333334,52.0,55.0
302,100.50200474166668,102.34310435,45.0,83.0
303,102.28166374166668,102.57191765,57.0,74.0
304,102.02742674166667,102.97022228333334,64.0,80.0
305,102.79013774166667,103.20539150833335,57.0,74.0
306,103.04437474166667,103.33674729166668,62.0,61.0
307,103.29861174166668,103.84310265,64.0,69.0
308,103.80708574166668,104.17572939166668,62.0,68.0
309,102.53590074166668,104.34310208333335,50.0,70.0
310,104.06132274166667,104.38335627500001,57.0,68.0
311,104.56979674166668,104.94055903333334,57.0,65.0
312,105.07827074166667,105.38971106666668,57.0,67.0
313,104.56979674166668,105.42784661666667,66.0,49.0
314,105.58674474166668,105.82191396666667,57.0,63.0
315,105.58674474166668,106.47233695833334,66.0,51.0
316,106.09521874166667,106.47445560000001,57.0,44.0
317,104.56979674166668,106.55072670000001,50.0,61.0
318,107.11216674166667,107.63547123333335,57.0,45.0
319,107.62064074166668,108.16513165,62.0,54.0
320,108.12911474166667,108.81343600000001,57.0,49.0
321,108.63758874166668,109.23080840833335,69.0,69.0
322,108.63758874166668,109.25623210833334,62.0,60.0
323,109.14606274166668,109.85157041666668,57.0,45.0
324,106.60369274166668,109.8812314,50.0,68.0
325,109.65453674166667,109.93631608333334,66.0,59.0
326,109.65453674166667,110.05284137500001,62.0,60.0
327,110.67148474166667,111.29012810833335,62.0,53.0
328,110.67148474166667,111.72656829166668,66.0,50.0
329,111.68843274166667,112.31343203333334,62.0,71.0
330,112.19690674166668,112.37699128333334,69.0,70.0
331,112.70538074166667,113.01258378333334,74.0,80.0
332,113.21385474166668,113.37275286666667,62.0,29.0
333,113.72232874166667,114.00198944166668,66.0,61.0
334,113.72232874166667,114.01470129166668,69.0,85.0
335,110.67148474166667,114.03165042500001,38.0,41.0
336,113.72232874166667,114.04859955833334,62.0,70.0
337,111.17995874166668,114.06131140833334,45.0,51.0
338,114.73927674166667,115.49563181666667,55.0,65.0
339,114.73927674166667,115.85156361666668,62.0,69.0
340,115.24775074166668,115.98080075833334,50.0,51.0
341,115.75622474166667,116.30707157500001,55.0,72.0
342,116.26469874166668,117.13546046666667,50.0,30.0
343,116.77317274166667,117.52105325000001,59.0,65.0
344,117.79012074166668,118.01469675833334,55.0,74.0
345,117.79012074166668,118.07401872500002,62.0,72.0
346,117.28164674166668,118.19689994166667,50.0,36.0
347,114.73927674166667,118.22232364166668,43.0,80.0
348,118.80706874166668,119.90028784166668,57.0,74.0
349,119.82401674166668,120.50410071666667,64.0,65.0
350,120.33249074166667,120.70537167500001,57.0,70.0
351,119.31554274166668,121.07189668333335,52.0,64.0
352,120.84096474166668,121.39816750000001,69.0,80.0
353,120.84096474166668,121.43630305,57.0,80.0
354,121.85791274166668,122.08248875833334,57.0,70.0
355,118.80706874166668,122.85367432500001,45.0,87.0
356,121.85791274166668,122.85367432500001,64.0,71.0
357,122.36638674166667,122.87697938333335,57.0,45.0
358,121.34943874166667,122.88969123333334,52.0,50.0
359,122.87486074166668,123.667232725,62.0,61.0
360,122.87486074166668,123.94901206666668,66.0,55.0
361,123.89180874166668,124.64816381666668,62.0,83.0
362,124.65451974166668,124.925705875,64.0,87.0
363,124.90875674166668,125.32824779166668,66.0,52.0
364,124.40028274166667,126.27316197500001,54.0,54.0
365,122.87486074166668,126.34307715000001,50.0,76.0
366,126.39816183333335,126.68841574166667,50.0,75.0
367,126.65028019166668,126.92358496666668,52.0,67.0
368,123.38333474166667,126.98078829166668,57.0,50.0
369,126.94265274166668,127.72443151666668,64.0,80.0
370,127.70536374166667,128.27104106666667,61.0,60.0
371,128.21383774166668,128.57824410833334,64.0,71.0
372,128.97654874166668,129.171463775,69.0,85.0
373,126.94265274166668,129.915107,50.0,66.0
374,129.69476826666667,129.97442896666666,45.0,62.0
375,127.45112674166668,130.379089525,57.0,55.0
376,129.9490052666667,130.53375036666668,50.0,71.0
377,130.24773374166668,130.79434329166668,64.0,87.0
378,130.50197074166667,130.85154661666667,57.0,68.0
379,130.47019111666668,130.9977328916667,38.0,69.0
380,130.75620774166669,131.01256338333334,61.0,58.0
381,131.51891874166668,131.8748505416667,64.0,65.0
382,131.2646817416667,132.30281615833334,59.0,52.0
383,131.01044474166667,132.33671442500003,40.0,63.0
384,131.01044474166667,132.33671442500003,52.0,63.0
385,131.77315574166667,133.10578135,67.0,68.0
386,133.55281474166668,133.8812042,57.0,80.0
387,133.80705174166667,134.13332255833333,62.0,85.0
388,134.31552574166668,134.47442386666668,57.0,74.0
389,133.2985777416667,134.49349164166668,52.0,59.0
390,133.04434074166667,134.5888305166667,45.0,72.0
391,134.31552574166668,134.59730508333334,64.0,80.0
392,134.56976274166666,134.86849121666668,62.0,74.0
393,134.82399974166668,135.51891420833334,57.0,68.0
394,135.07823674166667,136.17993040833335,66.0,60.0
395,135.84094774166667,136.525269,57.0,66.0
396,136.34942174166667,136.63120108333334,62.0,53.0
397,136.6036587416667,136.84518389166666,64.0,70.0
398,136.85789574166668,136.99560745000002,62.0,71.0
399,137.11213274166667,137.307047775,66.0,64.0
400,135.07823674166667,137.39814936666667,38.0,68.0
401,135.58671074166668,137.42992899166669,45.0,51.0
402,138.12908074166668,138.42992785833334,57.0,68.0
403,138.12908074166668,138.7371309,64.0,72.0
404,138.6375547416667,138.97441876666667,57.0,64.0
405,138.12908074166668,138.997723825,45.0,87.0
406,138.89179174166668,139.01043567500002,61.0,68.0
407,138.38331774166667,139.02102888333334,52.0,63.0
408,139.14602874166667,139.74136705,66.0,71.0
409,139.65450274166668,139.99984133333334,59.0,61.0
410,139.90873974166666,140.15662081666667,62.0,85.0
411,139.4002657416667,140.59729828333334,54.0,56.0
412,139.14602874166667,140.72865406666668,47.0,63.0
413,140.41721374166667,140.790094675,59.0,68.0
414,140.41721374166667,140.84094207500002,66.0,66.0
415,141.17992474166667,142.239245575,61.0,68.0
416,141.9426357416667,142.53585540833333,49.0,63.0
417,142.19687274166668,142.544329975,57.0,74.0
418,141.17992474166667,142.54644861666668,42.0,68.0
419,142.45110974166667,142.77102463333335,61.0,74.0
420,142.7053467416667,142.95322781666667,66.0,93.0
421,142.95958374166668,143.07399039166668,57.0,83.0
422,143.21382074166667,143.548566125,55.0,80.0
423,143.21382074166667,143.55492205000002,59.0,70.0
424,143.21382074166667,143.64390500000002,43.0,83.0
425,144.23076874166668,144.66509028333334,61.0,63.0
426,144.23076874166668,144.756191875,57.0,55.0
427,144.23076874166668,145.04432714166668,45.0,83.0
428,145.2477167416667,145.544326575,57.0,65.0
429,145.2477167416667,145.81551270833336,62.0,69.0
430,145.75619074166667,145.93627528333334,57.0,53.0
431,146.0104277416667,146.27737659166667,64.0,70.0
432,146.26466474166668,146.497715325,62.0,72.0
433,146.51890174166667,146.81551157500002,57.0,93.0
434,145.2477167416667,146.94051143333334,50.0,68.0
435,146.77313874166668,147.14178239166668,66.0,83.0
436,147.02737574166667,147.30491780000003,57.0,65.0
437,147.79008674166667,148.124832125,55.0,70.0
438,148.0443237416667,148.379069125,59.0,74.0
439,148.55279774166667,148.65025525833335,62.0,87.0
440,147.53584974166668,149.03796668333334,50.0,61.0
441,147.2816127416667,149.13330555833335,43.0,83.0
442,149.3155087416667,150.03372826666669,62.0,69.0
443,150.0782197416667,150.28160934166667,58.0,64.0
444,149.3155087416667,150.54855819166667,55.0,68.0
445,150.33245674166668,150.69686310833336,67.0,93.0
446,149.3155087416667,150.88965950000002,43.0,87.0
447,149.82398274166667,150.89813406666667,50.0,61.0
448,150.5866937416667,150.90025270833334,62.0,74.0
449,150.84093074166668,150.94474418333334,55.0,80.0
450,151.3494047416667,151.8960142916667,59.0,68.0
451,151.3494047416667,152.1184716666667,64.0,70.0
452,152.11211574166668,152.49558988333334,59.0,66.0
453,152.36635274166667,152.67143714166667,64.0,74.0
454,151.3494047416667,152.777369225,40.0,72.0
455,151.85787874166667,152.81338613333335,47.0,54.0
456,152.6205897416667,152.95745376666667,67.0,80.0
457,152.87482674166668,153.04219943333334,59.0,71.0
458,153.3833007416667,153.8917747416667,57.0,70.0
459,153.3833007416667,153.97863905000003,64.0,74.0
460,154.14601174166668,154.56338415000002,57.0,68.0
461,154.40024874166667,154.71380770833335,64.0,70.0
462,154.90872274166668,155.16931566666668,57.0,66.0
463,153.3833007416667,155.2116885,45.0,87.0
464,154.6544857416667,155.22228170833336,69.0,93.0
465,153.8917747416667,155.25829861666668,52.0,56.0
466,155.16295974166667,156.0252469,64.0,69.0
467,155.9256707416667,156.08456886666667,57.0,61.0
468,155.67143374166668,156.27312797500002,52.0,60.0
469,156.17990774166668,156.54855139166668,57.0,72.0
470,156.17990774166668,156.65236483333334,61.0,68.0
471,156.6883817416667,156.88753405833336,57.0,80.0
472,156.94261874166668,157.10999143333333,64.0,80.0
473,155.4171967416667,157.2455845,45.0,87.0
474,156.43414474166667,157.26677091666667,52.0,70.0
475,157.45109274166668,157.59939765833334,57.0,72.0
476,157.45109274166668,157.72439751666667,62.0,80.0
477,157.70532974166667,158.09092252500002,57.0,61.0
478,157.9595667416667,158.11846486666667,62.0,65.0
479,157.45109274166668,159.21803989166668,50.0,71.0
480,158.21380374166668,159.42566677500002,66.0,65.0
481,158.97651474166668,159.47227689166667,57.0,80.0
482,159.2307517416667,159.51464972500003,62.0,68.0
483,159.9934627416667,160.2455811,61.0,80.0
484,159.73922574166667,160.33032676666667,57.0,80.0
485,160.24769974166668,160.79854657500002,64.0,80.0
486,160.7561737416667,161.06125814166668,61.0,71.0
487,161.01041074166667,161.15447837500002,57.0,55.0
488,159.48498874166668,161.19896985000003,49.0,68.0
489,161.51888474166668,162.5294768166667,62.0,69.0
490,161.51888474166668,162.65023939166667,59.0,55.0
491,162.0273587416667,162.67354445,54.0,63.0
492,162.79006974166668,163.12905240833334,54.0,49.0
493,162.53583274166667,163.353628425,66.0,80.0
494,161.51888474166668,163.3981199,47.0,80.0
495,163.04430674166667,163.60574678333336,59.0,69.0
496,163.2985437416667,164.0167632666667,62.0,74.0
497,164.0612547416667,164.39388148333336,57.0,70.0
498,163.80701774166667,164.56125417500002,52.0,63.0
499,163.55278074166668,165.45743960000001,45.0,80.0
500,165.07820274166667,165.53582934166667,52.0,34.0
501,164.31549174166668,166.06337111666667,62.0,87.0
502,166.09515074166669,166.50828586666668,55.0,72.0
503,166.34938774166667,166.68413312500002,59.0,90.0
504,165.84091374166667,167.05913270000002,50.0,52.0
505,165.58667674166668,167.065488625,43.0,85.0
506,166.85786174166668,167.06972590833334,55.0,71.0
507,166.85786174166668,167.09514960833334,62.0,93.0
508,167.62057274166668,168.13752130833336,62.0,68.0
509,168.12904674166668,168.934130575,57.0,68.0
510,168.38328374166667,168.96167291666669,62.0,70.0
511,167.62057274166668,169.0061643916667,42.0,68.0
512,167.8748097416667,169.04429994166668,50.0,49.0
513,168.89175774166668,169.213791275,66.0,69.0
514,169.14599474166667,169.26252003333335,57.0,74.0
515,169.65446874166668,170.22226470833334,59.0,63.0
516,169.65446874166668,170.43624751666667,64.0,72.0
517,170.41717974166667,170.75404376666668,59.0,68.0
518,170.6714167416667,170.9574333666667,64.0,102.0
519,170.16294274166668,171.031585825,47.0,60.0
520,170.92565374166668,171.27946690000002,59.0,93.0
521,169.65446874166668,171.38751762500002,40.0,80.0
522,171.17989074166667,171.47014465,47.0,80.0
523,171.43412774166669,171.79853410833334,59.0,83.0
524,172.19683874166668,172.55912646666667,57.0,80.0
525,171.9426017416667,172.62480435833334,52.0,58.0
526,171.68836474166667,172.626923,45.0,93.0
527,172.7053127416667,173.00827850000002,57.0,85.0
528,172.7053127416667,173.16505798333336,61.0,80.0
529,173.2137867416667,173.37480350833334,57.0,74.0
530,172.7053127416667,173.52734570833334,52.0,83.0
531,172.7053127416667,173.54005755833336,45.0,80.0
532,173.72226074166667,173.88327750833335,57.0,80.0
533,173.72226074166667,174.04217563333336,62.0,80.0
534,173.9764977416667,174.39810743333334,57.0,71.0
535,174.23073474166668,174.5231072916667,62.0,68.0
536,174.99344574166668,175.30700470833335,62.0,70.0
537,174.48497174166667,175.30700470833335,66.0,83.0
538,173.72226074166667,175.5336993666667,50.0,83.0
539,175.2476827416667,175.60361454166667,57.0,74.0
540,175.75615674166667,176.2625121,61.0,70.0
541,176.26463074166668,176.62268118333336,57.0,80.0
542,176.51886774166667,177.05488408333335,61.0,80.0
543,175.75615674166667,177.36632440833336,45.0,70.0
544,177.02734174166667,177.40445995833335,64.0,93.0
545,177.2815787416667,177.42776501666668,57.0,65.0
546,176.0103937416667,177.45107007500002,52.0,61.0
547,177.79005274166667,178.3112385916667,62.0,72.0
548,178.0442897416667,179.08030551666667,54.0,53.0
549,178.29852674166668,179.30911881666668,59.0,66.0
550,177.79005274166667,179.63115235,47.0,68.0
551,178.5527637416667,179.7731013416667,66.0,80.0
552,179.3154747416667,179.95318588333336,54.0,45.0
553,179.56971174166668,180.34089730833335,62.0,69.0
554,180.0781857416667,180.86843908333336,54.0,67.0
555,180.33242274166668,181.20954039166668,57.0,72.0
556,181.3493707416667,181.4828451666667,54.0,31.0
557,179.82394874166667,181.74555673333336,45.0,74.0
558,181.60360774166668,182.08242075833334,57.0,58.0
559,180.5866597416667,182.16928506666667,62.0,90.0
560,182.36631874166667,182.75614880833334,55.0,70.0
561,182.6205557416667,182.99767395833334,59.0,83.0
562,183.12902974166667,183.3451311916667,55.0,80.0
563,182.11208174166669,183.3896226666667,50.0,53.0
564,183.12902974166667,183.40445315833335,62.0,90.0
565,181.8578447416667,183.438351425,43.0,83.0
566,183.8917407416667,184.1968251416667,57.0,72.0
567,183.8917407416667,184.44470621666667,62.0,66.0
568,183.8917407416667,185.13326475833335,42.0,74.0
569,184.14597774166668,185.16928166666668,50.0,49.0
570,184.40021474166667,185.192586725,57.0,68.0
571,184.6544517416667,185.33029843333335,66.0,70.0
572,185.16292574166667,185.48919655833336,61.0,68.0
573,185.4171627416667,185.5506371666667,57.0,83.0
574,185.9256367416667,186.2307211416667,59.0,56.0
575,185.9256367416667,186.45105987500003,64.0,69.0
576,186.43411074166667,186.90868647500002,59.0,66.0
577,186.6883477416667,187.0442795416667,64.0,87.0
578,187.1968217416667,187.3980927,59.0,85.0
579,185.9256367416667,187.42563504166668,40.0,74.0
580,186.17987374166668,187.442584175,47.0,59.0
581,187.45105874166669,187.96588866666667,59.0,69.0
582,187.1968217416667,188.319701825,67.0,74.0
583,188.46800674166667,189.46164968333335,57.0,72.0
584,188.7222437416667,189.52097165,61.0,69.0
585,188.21376974166668,189.76673408333335,52.0,55.0
586,187.9595327416667,189.80063235000003,45.0,83.0
587,189.73919174166667,190.02944565,57.0,74.0
588,189.48495474166668,190.42775028333335,64.0,80.0
589,190.24766574166668,190.66291950833335,57.0,74.0
590,190.5019027416667,190.79427529166668,62.0,61.0
591,190.7561397416667,191.30063065000002,64.0,69.0
592,191.2646137416667,191.6332573916667,62.0,68.0
593,189.9934287416667,191.80063008333335,50.0,70.0
594,191.51885074166668,191.840884275,57.0,68.0
595,192.0273247416667,192.26673125000002,57.0,72.0
596,192.0273247416667,192.58876478333335,62.0,74.0
597,192.5357987416667,192.8408831416667,57.0,87.0
598,192.0273247416667,192.90232375000002,38.0,87.0
599,193.04427274166667,193.175628525,38.0,87.0
600,193.04427274166667,193.17774716666668,57.0,87.0
601,193.04427274166667,193.21800135833334,62.0,74.0
602,193.2985097416667,193.7561363416667,64.0,83.0
603,193.2985097416667,193.76461090833334,40.0,80.0
604,193.2985097416667,193.77096683333335,59.0,80.0
605,194.0612207416667,194.57816930833334,61.0,64.0
606,194.0612207416667,194.60994893333336,54.0,71.0
607,194.82393174166668,194.92138925833336,54.0,61.0
608,194.5696947416667,195.20316860000003,49.0,56.0
609,195.07816874166667,195.25613464166668,54.0,87.0
610,195.07816874166667,195.30274475833335,61.0,87.0
611,195.58664274166668,195.77520185000003,54.0,68.0
612,194.0612207416667,195.89596442500002,42.0,69.0
613,195.3324057416667,195.94045590000002,49.0,55.0
614,195.8408797416667,196.35782830833335,54.0,58.0
615,195.8408797416667,196.40231978333335,57.0,80.0
616,196.34935374166668,197.08240375833336,49.0,58.0
617,196.85782774166668,197.16291214166668,57.0,93.0
618,196.85782774166668,197.20104769166667,61.0,74.0
619,196.85782774166668,197.21587818333336,54.0,80.0
620,196.0951167416667,197.34935260833336,42.0,68.0
621,197.3663017416667,197.46375925833334,54.0,65.0
622,197.3663017416667,197.4807083916667,57.0,80.0
623,197.3663017416667,197.54638628333336,61.0,66.0
624,197.62053874166668,197.71799625833336,49.0,64.0
625,198.12901274166668,198.67350365000001,59.0,68.0
626,198.12901274166668,198.70316463333336,62.0,70.0
627,198.89172374166668,198.97435076666667,59.0,54.0
628,199.14596074166667,199.26460467500002,59.0,85.0
629,199.14596074166667,199.26460467500002,62.0,93.0
630,199.14596074166667,199.30062158333334,66.0,80.0
631,198.6374867416667,199.64384153333336,54.0,37.0
632,198.12901274166668,199.7116380666667,47.0,83.0
633,199.65443474166668,199.74129905,59.0,63.0
634,199.9086717416667,200.48282363333334,59.0,80.0
635,199.9086717416667,200.51248461666668,62.0,87.0
636,200.92561974166668,201.02307725833336,59.0,69.0
637,200.92561974166668,201.03578910833335,66.0,56.0
638,200.41714574166667,201.2179922916667,54.0,49.0
639,201.1798567416667,201.40443275833334,59.0,93.0
640,201.1798567416667,201.44892423333334,66.0,93.0
641,199.9086717416667,201.55485631666667,47.0,74.0
642,201.4340937416667,201.5739240916667,54.0,71.0
643,201.68833074166668,201.76883912500003,59.0,72.0
644,202.19680474166668,202.56968567500002,54.0,72.0
645,202.19680474166668,202.58027888333336,57.0,93.0
646,202.19680474166668,202.64807541666667,61.0,65.0
647,202.95951574166668,203.01883770833336,61.0,49.0
648,202.95951574166668,203.04002412500003,54.0,67.0
649,203.2137527416667,203.332396675,54.0,93.0
650,203.2137527416667,203.332396675,61.0,93.0
651,202.45104174166667,203.53366763333335,49.0,36.0
652,202.19680474166668,203.57815910833335,42.0,87.0
653,203.72222674166667,203.87053165833336,57.0,63.0
654,203.72222674166667,203.87688758333334,61.0,54.0
655,203.72222674166667,203.88112486666668,54.0,51.0
656,203.72222674166667,203.88959943333336,42.0,69.0
657,203.9764637416667,204.46163268333336,57.0,90.0
658,203.9764637416667,204.48705638333334,61.0,72.0
659,203.9764637416667,204.49341230833335,54.0,74.0
660,204.7391747416667,204.81756448333334,54.0,37.0
661,204.4849377416667,205.33239440833336,49.0,41.0
662,205.2476487416667,205.49129253333336,54.0,87.0
663,203.9764637416667,205.55697042500003,42.0,87.0
664,205.2476487416667,205.57603820000003,61.0,83.0
665,205.50188574166668,205.65442794166668,49.0,74.0
666,205.75612274166667,206.05696985833336,54.0,74.0
667,206.0103597416667,206.11205454166668,57.0,54.0
668,206.26459674166668,206.76883345833335,55.0,80.0
669,206.26459674166668,206.79425715833335,59.0,85.0
670,207.02730774166668,207.09934155833335,55.0,49.0
671,206.7730707416667,207.3260362166667,50.0,41.0
672,207.2815447416667,207.58027321666668,55.0,93.0
673,206.26459674166668,207.5866291416667,43.0,87.0
674,207.2815447416667,207.6311206166667,59.0,93.0
675,207.2815447416667,207.67984937500003,62.0,93.0
676,207.53578174166668,207.73281541666668,50.0,59.0
677,207.79001874166667,208.1967979416667,42.0,105.0
678,208.29849274166668,208.6417126916667,52.0,87.0
679,208.29849274166668,208.84298365,55.0,87.0
680,208.80696674166668,208.93832252500002,52.0,80.0
681,208.5527297416667,209.17137310833334,47.0,65.0
682,209.06120374166667,209.41713554166668,52.0,102.0
683,209.06120374166667,209.45527109166667,59.0,87.0
684,208.29849274166668,209.80060968333336,40.0,93.0
685,209.56967774166668,209.85569436666668,55.0,102.0
686,209.3154407416667,209.88323670833336,47.0,71.0
687,209.8239147416667,209.91925361666668,52.0,102.0
688,210.33238874166668,210.64594770833335,57.0,93.0
689,210.33238874166668,210.66501548333335,64.0,95.0
690,210.84086274166668,210.93832025833336,57.0,70.0
691,211.09509974166667,211.27730292500001,57.0,90.0
692,211.09509974166667,211.27942156666668,64.0,93.0
693,211.60357374166668,211.798488775,57.0,72.0
694,211.60357374166668,211.9319632,64.0,87.0
695,211.60357374166668,212.04425120833335,69.0,74.0
696,210.5866257416667,212.192556125,52.0,68.0
697,210.33238874166668,212.20950525833337,45.0,93.0
698,212.1120477416667,212.281539075,57.0,54.0
699,212.36628474166668,213.29001250833335,64.0,80.0
700,212.36628474166668,213.30908028333334,57.0,71.0
701,213.3832327416667,213.65230023333336,57.0,83.0
702,213.3832327416667,213.69679170833336,61.0,87.0
703,213.3832327416667,213.96162191666667,64.0,95.0
704,214.14594374166668,214.23916397500003,64.0,49.0
705,213.63746974166668,214.27518088333335,52.0,70.0
706,214.14594374166668,214.27518088333335,61.0,72.0
707,213.8917067416667,214.28153680833336,57.0,80.0
708,212.36628474166668,214.31967235833335,45.0,83.0
709,214.40018074166667,214.59721441666667,61.0,74.0
710,214.40018074166667,214.6099262666667,57.0,74.0
711,214.40018074166667,214.61840083333334,64.0,87.0
712,214.40018074166667,214.65229910000002,45.0,93.0
713,215.4171287416667,216.20102615833335,45.0,87.0
714,215.4171287416667,216.20738208333336,52.0,87.0
715,215.4171287416667,216.27305997500002,69.0,83.0
716,215.4171287416667,216.3048396,61.0,68.0
717,215.4171287416667,216.31543280833336,64.0,83.0
718,215.4171287416667,216.31755145000002,57.0,80.0
719,216.43407674166667,217.59297373333337,61.0,87.0
720,216.43407674166667,217.59721101666668,57.0,93.0
721,216.43407674166667,217.60356694166668,64.0,93.0
722,216.43407674166667,217.61839743333334,69.0,87.0
723,216.43407674166667,217.66077026666667,52.0,93.0
724,216.43407674166667,217.6734821166667,45.0,102.0
725,218.4679727416667,218.61627765833336,58.0,72.0
726,218.4679727416667,218.74127751666668,63.0,80.0
727,218.7222097416667,219.107802525,58.0,61.0
728,218.97644674166668,219.13534486666668,63.0,65.0
729,218.4679727416667,220.2349198916667,51.0,71.0
730,219.2306837416667,220.442546775,67.0,65.0
731,219.9933947416667,220.48915689166668,58.0,80.0
732,220.24763174166668,220.531529725,63.0,68.0
733,221.01034274166668,221.26246110000002,62.0,80.0
734,220.7561057416667,221.3472067666667,58.0,80.0
735,221.2645797416667,221.81542657500003,65.0,80.0
736,221.77305374166667,222.0781381416667,62.0,71.0
737,222.0272907416667,222.171358375,58.0,55.0
738,220.5018687416667,222.21584985,50.0,68.0
739,222.5357647416667,223.54635681666667,63.0,69.0
740,222.5357647416667,223.6671193916667,60.0,55.0
741,223.04423874166667,223.69042445000002,55.0,63.0
742,223.8069497416667,224.14593240833335,55.0,49.0
743,223.55271274166668,224.37050842500003,67.0,80.0
744,222.5357647416667,224.41499990000003,48.0,80.0
745,224.0611867416667,224.62262678333335,60.0,69.0
746,224.31542374166668,225.03364326666667,63.0,74.0
747,225.07813474166667,225.41076148333335,58.0,70.0
748,224.82389774166668,225.57813417500003,53.0,63.0
749,224.5696607416667,226.47431960000003,46.0,80.0
750,226.0950827416667,226.55270934166668,53.0,34.0
751,225.3323717416667,227.0802511166667,63.0,87.0
752,227.1120307416667,227.5251658666667,56.0,72.0
753,227.3662677416667,227.70101312500003,60.0,90.0
754,226.85779374166668,228.0760127,51.0,52.0
755,226.6035567416667,228.08236862500002,44.0,85.0
756,227.8747417416667,228.08660590833335,56.0,71.0
757,227.8747417416667,228.11202960833336,63.0,93.0
758,228.6374527416667,229.15440130833335,63.0,68.0
759,229.1459267416667,229.95101057500003,58.0,68.0
760,229.4001637416667,229.9785529166667,63.0,70.0
761,228.6374527416667,230.02304439166667,43.0,68.0
762,228.89168974166668,230.0611799416667,51.0,49.0
763,229.9086377416667,230.23067127500002,67.0,69.0
764,230.16287474166668,230.27940003333336,58.0,74.0
765,230.6713487416667,231.23914470833336,60.0,63.0
766,230.6713487416667,231.45312751666668,65.0,72.0
767,231.4340597416667,231.7709237666667,60.0,68.0
768,231.68829674166668,231.97431336666668,65.0,102.0
769,231.1798227416667,232.04846582500002,48.0,60.0
770,231.9425337416667,232.29634690000003,60.0,93.0
771,230.6713487416667,232.40439762500003,41.0,80.0
772,232.19677074166668,232.48702465000002,48.0,80.0
773,232.4510077416667,232.81541410833336,60.0,83.0
774,233.2137187416667,233.57600646666668,58.0,80.0
775,232.95948174166668,233.64168435833335,53.0,58.0
776,232.7052447416667,233.64380300000002,46.0,93.0
777,233.72219274166667,234.02515850000003,58.0,85.0
778,233.72219274166667,234.18193798333334,62.0,80.0
779,234.23066674166668,234.39168350833336,58.0,74.0
780,233.72219274166667,234.54422570833336,53.0,83.0
781,233.72219274166667,234.55693755833335,46.0,80.0
782,234.7391407416667,234.90015750833336,58.0,80.0
783,234.7391407416667,235.05905563333334,63.0,80.0
784,234.99337774166668,235.41498743333335,58.0,71.0
785,235.2476147416667,235.53998729166668,63.0,68.0
786,236.0103257416667,236.32388470833337,63.0,70.0
787,235.50185174166668,236.32388470833337,67.0,83.0
788,234.7391407416667,236.55057936666668,51.0,83.0
789,236.26456274166668,236.6204945416667,58.0,74.0
790,236.7730367416667,237.27939210000002,62.0,70.0
791,237.2815107416667,237.63956118333334,58.0,80.0
792,237.53574774166668,238.07176408333336,62.0,80.0
793,236.7730367416667,238.38320440833334,46.0,70.0
794,238.0442217416667,238.42133995833336,65.0,93.0
795,238.29845874166668,238.4446450166667,58.0,65.0
796,237.02727374166668,238.46795007500003,53.0,61.0
797,238.80693274166669,239.32811859166668,63.0,72.0
798,239.06116974166667,240.09718551666668,55.0,53.0
799,239.3154067416667,240.3259988166667,60.0,66.0
800,238.80693274166669,240.64803235000002,48.0,68.0
801,239.56964374166668,240.78998134166667,67.0,80.0
802,240.33235474166668,240.97006588333335,55.0,45.0
803,240.5865917416667,241.35777730833337,63.0,69.0
804,241.0950657416667,241.88531908333334,55.0,67.0
805,241.3493027416667,242.2264203916667,58.0,72.0
806,242.36625074166668,242.49972516666668,55.0,31.0
807,240.84082874166668,242.76243673333335,46.0,74.0
808,242.6204877416667,243.09930075833336,58.0,58.0
809,241.60353974166668,243.1861650666667,63.0,90.0
810,243.3831987416667,243.77302880833335,56.0,70.0
811,243.63743574166668,244.01455395833335,60.0,83.0
812,244.14590974166669,244.36201119166668,56.0,80.0
813,243.1289617416667,244.40650266666668,51.0,53.0
814,244.14590974166669,244.42133315833337,63.0,90.0
815,242.87472474166668,244.45523142500002,44.0,83.0
816,244.90862074166668,245.21370514166668,58.0,72.0
817,244.90862074166668,245.4615862166667,63.0,66.0
818,244.90862074166668,246.15014475833337,43.0,74.0
819,245.1628577416667,246.1861616666667,51.0,49.0
820,245.4170947416667,246.20946672500003,58.0,68.0
821,245.67133174166668,246.34717843333337,67.0,70.0
822,246.17980574166668,246.50607655833335,63.0,68.0
823,246.4340427416667,246.56751716666668,58.0,83.0
824,246.94251674166668,247.24760114166668,60.0,56.0
825,246.94251674166668,247.467939875,65.0,69.0
826,247.4509907416667,247.925566475,60.0,66.0
827,247.70522774166668,248.06115954166668,65.0,87.0
828,248.21370174166668,248.41497270000002,60.0,85.0
829,246.94251674166668,248.4425150416667,41.0,74.0
830,247.1967537416667,248.45946417500002,48.0,59.0
831,248.4679387416667,248.9827686666667,60.0,69.0
832,248.21370174166668,249.33658182500002,68.0,74.0
833,249.48488674166668,250.47852968333336,58.0,72.0
834,249.7391237416667,250.53785165000002,62.0,69.0
835,249.2306497416667,250.78361408333336,53.0,55.0
836,248.97641274166668,250.81751235000002,46.0,83.0
837,250.7560717416667,251.04632565000003,58.0,74.0
838,250.5018347416667,251.44463028333337,65.0,80.0
839,251.2645457416667,251.67979950833336,58.0,74.0
840,251.51878274166668,251.8111552916667,63.0,61.0
841,251.7730197416667,252.31751065000003,65.0,69.0
842,252.28149374166668,252.65013739166668,63.0,68.0
843,251.01030874166668,252.81751008333336,51.0,70.0
844,252.5357307416667,252.85776427500002,58.0,68.0
845,253.8069157416667,255.0526770416667,58.0,68.0
846,253.55267874166668,255.05903296666668,51.0,56.0
847,253.04420474166668,255.0781007416667,39.0,74.0
848,253.2984417416667,255.08657530833335,46.0,54.0
849,254.31538974166668,255.10776172500002,63.0,47.0
850,255.58657474166668,256.10987923333334,58.0,45.0
851,256.0950487416667,256.63953965,63.0,54.0
852,256.60352274166667,257.287844,58.0,49.0
853,257.1119967416667,257.70521640833334,70.0,69.0
854,257.1119967416667,257.7306401083334,63.0,60.0
855,257.6204707416667,258.3259784166667,58.0,45.0
856,255.0781007416667,258.35563940000003,51.0,68.0
857,258.1289447416667,258.4107240833334,67.0,59.0
858,258.1289447416667,258.527249375,63.0,60.0
859,259.14589274166667,259.76453610833335,63.0,53.0
860,259.14589274166667,260.2009762916667,67.0,50.0
861,260.1628407416667,260.78784003333334,63.0,71.0
862,260.67131474166666,260.85139928333336,70.0,70.0
863,261.1797887416667,261.48699178333334,75.0,80.0
864,261.6882627416667,261.8471608666667,63.0,29.0
865,262.1967367416667,262.4763974416667,67.0,61.0
866,262.1967367416667,262.4891092916667,70.0,85.0
867,259.14589274166667,262.50605842500005,39.0,41.0
868,262.1967367416667,262.52300755833335,63.0,70.0
869,259.6543667416667,262.53571940833336,46.0,51.0
870,263.21368474166667,263.9700398166667,56.0,65.0
871,263.21368474166667,264.32597161666666,63.0,69.0
872,263.7221587416667,264.45520875833336,51.0,51.0
873,264.2306327416667,264.78147957500005,56.0,72.0
874,264.7391067416667,265.6098684666667,51.0,30.0
875,265.2475807416667,265.99546125,60.0,65.0
876,266.2645287416667,266.4891047583334,56.0,74.0
877,266.2645287416667,266.548426725,63.0,72.0
878,265.7560547416667,266.67130794166667,51.0,36.0
879,263.21368474166667,266.6967316416667,44.0,80.0
880,267.28147674166667,268.29630610000004,67.0,60.0
881,267.28147674166667,268.33444165000003,58.0,63.0
882,268.2984247416667,268.9213053916667,63.0,70.0
883,268.8068987416667,269.4149489,58.0,50.0
884,269.82384674166667,270.03994819166667,58.0,43.0
885,269.3153727416667,270.234863225,67.0,85.0
886,267.28147674166667,270.44460875000004,39.0,68.0
887,267.7899507416667,270.45308331666666,46.0,53.0
888,270.3323207416667,270.51240528333335,58.0,68.0
889,270.3323207416667,270.5357103416667,63.0,74.0
890,271.34926874166666,272.06960690833336,63.0,67.0
891,271.34926874166666,272.0823187583334,67.0,61.0
892,271.34926874166666,272.6268096666667,39.0,74.0
893,271.8577427416667,272.65011472500004,46.0,50.0
894,272.3662167416667,272.80053828333337,67.0,87.0
895,272.3662167416667,272.9128262916667,70.0,87.0
896,272.8746907416667,272.99121603333333,63.0,72.0
897,273.3831647416667,273.6607068,62.0,64.0
898,273.3831647416667,274.07172328333337,65.0,74.0
899,273.3831647416667,274.6479938166667,50.0,64.0
900,274.4001127416667,274.69036665000004,65.0,67.0
901,273.89163874166667,274.70943442500004,62.0,64.0
902,274.4001127416667,274.95731550000005,70.0,80.0
903,275.4170607416667,276.15646668333335,60.0,65.0
904,275.4170607416667,276.49121206666666,63.0,70.0
905,275.9255347416667,276.83019473333337,55.0,59.0
906,275.4170607416667,276.8534997916667,48.0,68.0
907,276.4340087416667,277.0272284083334,60.0,80.0
908,276.9424827416667,277.03994025833333,63.0,68.0
909,277.4509567416667,278.48909115833334,58.0,67.0
910,277.4509567416667,278.5251080666667,62.0,61.0
911,278.4679047416667,278.77510778333334,65.0,87.0
912,277.95943074166667,278.9700228166667,53.0,68.0
913,277.4509567416667,279.00392108333335,46.0,74.0
914,278.9763787416667,279.20942932500003,63.0,71.0
915,279.23061574166667,279.50815780000005,62.0,68.0
916,279.4848527416667,280.429766925,60.0,68.0
917,279.9933267416667,280.684003925,51.0,68.0
918,279.4848527416667,280.6924784916667,44.0,74.0
919,280.50180074166667,280.97637647500005,56.0,83.0
920,281.5187487416667,282.60773055833334,58.0,71.0
921,281.5187487416667,282.72425585,43.0,68.0
922,282.0272227416667,282.76874732500005,51.0,44.0
923,282.5356967416667,283.035696175,63.0,80.0
924,283.5526447416667,284.6034910083334,58.0,68.0
925,283.5526447416667,284.7221349416667,65.0,70.0
926,284.56959274166667,285.13950735000003,62.0,80.0
927,283.5526447416667,286.4763702416667,46.0,83.0
928,284.0611187416667,286.4848448083334,53.0,68.0
929,285.0780667416667,286.51662443333333,58.0,65.0
930,285.5865407416667,286.52933628333335,70.0,87.0
931,288.3577240416667,288.6352661,51.0,47.0
932,288.59501190833333,288.72636769166667,53.0,70.0
933,288.8089947166667,288.9572996333334,55.0,68.0
934,289.05475715,289.251790825,58.0,72.0
935,289.33865513333336,289.51238375,63.0,72.0
936,289.607722625,289.76662075,65.0,70.0
937,289.9149256666667,290.0547560166667,67.0,71.0
938,290.21577278333336,290.5526368083334,70.0,58.0
939,290.6034842083334,290.7729755416667,75.0,67.0
940,291.0208566166667,291.13950055000004,79.0,80.0
941,291.72848293333334,291.8725505666667,75.0,49.0
942,291.8534827916667,291.94670302500003,82.0,53.0
943,291.91916068333336,292.0314486916667,87.0,65.0
944,288.08865655000005,293.1818711166667,46.0,44.0
945,287.72001290000003,293.2517862916667,39.0,93.0
