,start,end,pitch,velocity
0,2.9485279374999998,3.4588218,78.0,97.0
1,3.6544099374999996,4.0073509375,74.0,96.0
2,4.0073509375,4.1279391125,69.0,73.0
3,4.1838214375,4.7661740875,74.0,99.0
4,4.7132329375,4.7661740875,74.0,97.0
5,5.0661739374999994,5.5161737125,78.0,122.0
6,5.772055937499999,6.2720556875,73.0,117.0
7,6.4779379375,6.842643637499999,70.0,112.0
8,7.007349437499999,7.270584599999999,70.0,102.0
9,7.5367609374999995,7.8235255,71.0,97.0
10,7.8897019375,8.2014664875,73.0,127.0
11,8.2426429375,8.392642862499999,73.0,117.0
12,8.4191134375,9.620583425,74.0,99.0
13,9.6544069375,9.7955833375,73.0,107.0
14,9.8308774375,9.9779361875,74.0,93.0
15,10.3602889375,10.4838182875,73.0,112.0
16,10.7132299375,10.8367592875,74.0,107.0
17,11.066170937499999,11.17058265,78.0,127.0
18,11.4191119375,12.436758487499999,67.0,100.0
19,12.477934937499999,13.0249934875,76.0,90.0
20,13.1838169375,13.444110924999999,73.0,97.0
21,13.5367579375,14.060287087499999,73.0,100.0
22,14.2426399375,14.989698387499999,78.0,117.0
23,14.948521937499999,15.2485217875,74.0,100.0
24,15.301462937499998,15.461756975,69.0,72.0
25,15.477933437499999,15.8470509,74.0,97.0
26,16.0073449375,16.2838153875,74.0,92.0
27,16.3602859375,16.705873999999998,78.0,127.0
28,17.066167937499998,17.532344175,73.0,117.0
29,17.7720499375,17.879402825,70.0,117.0
30,18.124990937499998,18.2132261875,70.0,100.0
31,18.3014614375,18.766167087499998,70.0,117.0
32,18.8308729375,19.1220492625,71.0,99.0
33,19.1838139375,19.361755025,73.0,112.0
34,19.5367549375,19.667637225,73.0,112.0
35,19.7132254375,20.8485189875,74.0,107.0
36,20.948518937499998,21.0838129875,73.0,117.0
37,21.1249894375,21.408812825,74.0,93.0
38,21.6544009375,21.8691067125,73.0,127.0
39,22.007341937499998,22.2132241875,74.0,100.0
40,22.3602829375,22.639694562499997,79.0,102.0
41,22.7132239375,23.485282375,67.0,102.0
42,23.772046937499997,24.2941055,76.0,117.0
43,24.4779289375,24.6455759125,74.0,107.0
44,24.830869937499997,25.5058696,74.0,122.0
45,25.5367519375,26.0102811125,74.0,117.0
46,26.2426339375,26.4102809125,81.0,127.0
47,26.4191044375,26.6455749125,78.0,97.0
48,26.772045437499997,27.18233935,81.0,107.0
49,27.3014569375,27.5764568,81.0,107.0
50,27.654397937499997,27.91175075,78.0,102.0
51,28.0073389375,28.2470447,81.0,107.0
52,28.3602799375,29.107338387499997,73.0,112.0
53,29.0661619375,29.332338274999998,81.0,107.0
54,29.4191029375,29.6235146,78.0,107.0
55,29.595573437499997,29.998514412499997,81.0,102.0
56,30.1249849375,30.40586715,81.0,117.0
57,30.4779259375,30.773514024999997,78.0,127.0
58,30.830866937499998,31.111749149999998,81.0,100.0
59,31.1838079375,31.835278199999998,71.0,107.0
60,31.8896899375,32.0588075,78.0,127.0
61,32.066160437499995,32.2661603375,76.0,89.0
62,32.4191014375,32.7220424625,78.0,112.0
63,32.9485129375,33.191159875,78.0,122.0
64,33.3014539375,33.573512625,76.0,117.0
65,33.6543949375,33.98233595,74.0,117.0
66,34.007335937499995,34.620570924999996,67.0,99.0
67,34.7132179375,35.0367471875,76.0,127.0
68,35.0661589375,35.432335224999996,74.0,90.0
69,35.4190999375,35.75880565,76.0,97.0
70,35.7720409375,36.05292315,74.0,100.0
71,36.124981937499996,36.42939355,76.0,99.0
72,36.4779229375,36.7161581125,74.0,107.0
73,36.8308639375,37.38233425,74.0,127.0
74,37.5367459375,37.7058635,81.0,107.0
75,37.7132164375,37.920569275,78.0,99.0
76,38.066157437499996,38.4588043,81.0,100.0
77,38.5955689375,38.82351,81.0,122.0
78,38.9485099375,39.1999804,78.0,117.0
79,39.3014509375,39.6132154875,81.0,99.0
80,39.6543919375,40.2690975125,73.0,122.0
81,40.3602739375,40.520567975,81.0,107.0
82,40.5367444375,40.7661560875,78.0,97.0
83,40.8896854375,41.226449975,81.0,99.0
84,41.4190969375,41.62939095,81.0,112.0
85,41.772037937499995,42.0367436875,78.0,112.0
86,42.124978937499996,42.37056705,81.0,107.0
87,42.4779199375,42.992625562499995,71.0,117.0
88,43.1838019375,43.3764489,78.0,122.0
89,43.3602724375,43.5749782125,76.0,88.0
90,43.713213437499995,44.030860337499995,78.0,117.0
91,44.2426249375,44.552918899999995,78.0,127.0
92,44.5955659375,44.842624637499995,76.0,99.0
93,44.9485069375,45.251447962499995,74.0,117.0
94,45.3014479375,45.732330075,67.0,102.0
95,46.007329937499996,46.245565112499996,76.0,112.0
96,46.3602709375,46.679388425,74.0,107.0
97,46.7132119375,46.994094149999995,76.0,97.0
98,47.0661529375,47.317623399999995,74.0,112.0
99,47.4190939375,47.673505575,76.0,107.0
100,47.772034937499996,49.8190927375,74.0,117.0
101,59.419087937499995,59.929381799999994,78.0,97.0
102,60.1249699375,60.4779109375,74.0,96.0
103,60.4779109375,60.5984991125,69.0,73.0
104,60.6543814375,61.2367340875,74.0,99.0
105,61.183792937499994,61.2367340875,74.0,97.0
106,61.536733937499996,61.9867337125,78.0,122.0
107,62.2426159375,62.7426156875,73.0,117.0
108,62.948497937499994,63.313203637499996,70.0,112.0
109,63.477909437499996,63.7411446,70.0,102.0
110,64.0073209375,64.2940855,71.0,97.0
111,64.3602619375,64.67202648749999,73.0,127.0
112,64.7132029375,64.8632028625,73.0,117.0
113,64.8896734375,66.091143425,74.0,99.0
114,66.12496693749999,66.2661433375,73.0,107.0
115,66.3014374375,66.4484961875,74.0,93.0
116,66.8308489375,66.95437828749999,73.0,112.0
117,67.1837899375,67.3073192875,74.0,107.0
118,67.5367309375,67.64114264999999,78.0,127.0
119,67.8896719375,68.90731848749999,67.0,100.0
120,68.9484949375,69.49555348749999,76.0,90.0
121,69.6543769375,69.914670925,73.0,97.0
122,70.00731793749999,70.53084708749999,73.0,100.0
123,70.7131999375,71.46025838749999,78.0,117.0
124,71.4190819375,71.7190817875,74.0,100.0
125,71.7720229375,71.93231697499999,69.0,72.0
126,71.94849343749999,72.31761089999999,74.0,97.0
127,72.4779049375,72.75437538749999,74.0,92.0
128,72.8308459375,73.176434,78.0,127.0
129,73.53672793749999,74.002904175,73.0,117.0
130,74.24260993749999,74.34996282499999,70.0,117.0
131,74.5955509375,74.68378618749999,70.0,100.0
132,74.7720214375,75.2367270875,70.0,117.0
133,75.3014329375,75.59260926249999,71.0,99.0
134,75.6543739375,75.832315025,73.0,112.0
135,76.0073149375,76.138197225,73.0,112.0
136,76.18378543749999,77.31907898749999,74.0,107.0
137,77.41907893749999,77.5543729875,73.0,117.0
138,77.5955494375,77.87937282499999,74.0,93.0
139,78.12496093749999,78.33966671249999,73.0,127.0
140,78.4779019375,78.6837841875,74.0,100.0
141,78.8308429375,79.1102545625,79.0,102.0
142,79.1837839375,79.955842375,67.0,102.0
143,80.2426069375,80.76466549999999,76.0,117.0
144,80.9484889375,81.1161359125,74.0,107.0
145,81.30142993749999,81.9764296,74.0,122.0
146,82.00731193749999,82.4808411125,74.0,117.0
147,82.7131939375,82.88084091249999,81.0,127.0
148,82.8896644375,83.1161349125,78.0,97.0
149,83.24260543749999,83.65289935,81.0,107.0
150,83.7720169375,84.0470168,81.0,107.0
151,84.1249579375,84.38231075,78.0,102.0
152,84.4778989375,84.7176047,81.0,107.0
153,84.8308399375,85.5778983875,73.0,112.0
154,85.53672193749999,85.80289827499999,81.0,107.0
155,85.88966293749999,86.0940746,78.0,107.0
156,86.0661334375,86.46907441249999,81.0,102.0
157,86.5955449375,86.87642715,81.0,117.0
158,86.9484859375,87.24407402499999,78.0,127.0
159,87.3014269375,87.58230915,81.0,100.0
160,87.6543679375,88.3058382,71.0,107.0
161,88.3602499375,88.52936749999999,78.0,127.0
162,88.5367204375,88.73672033749999,76.0,89.0
163,88.8896614375,89.19260246249999,78.0,112.0
164,89.41907293749999,89.661719875,78.0,122.0
165,89.77201393749999,90.044072625,76.0,117.0
166,90.1249549375,90.45289595,74.0,117.0
167,90.4778959375,91.091130925,67.0,99.0
168,91.1837779375,91.50730718749999,76.0,127.0
169,91.5367189375,91.902895225,74.0,90.0
170,91.8896599375,92.22936564999999,76.0,97.0
171,92.2426009375,92.52348314999999,74.0,100.0
172,92.5955419375,92.89995354999999,76.0,99.0
173,92.94848293749999,93.18671811249999,74.0,107.0
174,93.30142393749999,93.85289424999999,74.0,127.0
175,94.00730593749999,94.1764235,81.0,107.0
176,94.1837764375,94.391129275,78.0,99.0
177,94.5367174375,94.92936429999999,81.0,100.0
178,95.0661289375,95.29406999999999,81.0,122.0
179,95.4190699375,95.6705404,78.0,117.0
180,95.7720109375,96.08377548749999,81.0,99.0
181,96.1249519375,96.7396575125,73.0,122.0
182,96.83083393749999,96.991127975,81.0,107.0
183,97.0073044375,97.2367160875,78.0,97.0
184,97.3602454375,97.697009975,81.0,99.0
185,97.88965693749999,98.09995095,81.0,112.0
186,98.2425979375,98.5073036875,78.0,112.0
187,98.5955389375,98.84112705,81.0,107.0
188,98.9484799375,99.4631855625,71.0,117.0
189,99.6543619375,99.84700889999999,78.0,122.0
190,99.83083243749999,100.04553821249999,76.0,88.0
191,100.1837734375,100.5014203375,78.0,117.0
192,100.71318493749999,101.0234789,78.0,127.0
193,101.06612593749999,101.3131846375,76.0,99.0
194,101.41906693749999,101.7220079625,74.0,117.0
195,101.77200793749999,102.202890075,67.0,102.0
196,102.4778899375,102.7161251125,76.0,112.0
197,102.8308309375,103.14994842499999,74.0,107.0
198,103.1837719375,103.46465415,76.0,97.0
199,103.5367129375,103.7881834,74.0,112.0
200,103.8896539375,104.144065575,76.0,107.0
201,104.2425949375,104.59553593749999,74.0,117.0
202,104.94847693749999,105.13524154999999,78.0,112.0
203,105.30141793749999,105.49259431249999,78.0,117.0
204,105.65435893749999,105.83818237499999,78.0,117.0
205,106.0072999375,106.15141751249999,78.0,127.0
206,106.3602409375,106.53229967499999,78.0,112.0
207,106.7131819375,106.9543582875,78.0,117.0
208,107.0661229375,107.4778874375,76.0,112.0
209,108.1249459375,108.30288702499999,78.0,127.0
210,108.47788693749999,108.649945675,78.0,117.0
211,108.83082793749999,108.9837690375,78.0,112.0
212,109.18376893749999,109.3455335625,78.0,99.0
213,109.53670993749999,109.708768675,78.0,107.0
214,109.8896509375,110.338180125,74.0,127.0
215,110.5955329375,110.75141521249999,78.0,122.0
216,110.9484739375,111.0925915125,78.0,122.0
217,111.3014149375,111.467591325,78.0,127.0
218,111.6543559375,111.8220029125,78.0,127.0
219,112.0072969375,112.15876745,78.0,127.0
220,112.36023793749999,112.56170842499999,78.0,127.0
221,112.71317893749999,113.08670816249999,76.0,127.0
222,113.41906093749999,113.738178425,76.0,88.0
223,113.7720019375,113.8661195375,74.0,79.0
224,114.1249429375,114.35876635,76.0,107.0
225,114.4778839375,114.67788383749999,74.0,100.0
226,114.8308249375,115.0131777875,76.0,107.0
227,115.1837659375,115.46758932499999,78.0,122.0
228,115.5367069375,116.061706675,74.0,102.0
229,116.24258893749999,116.42935354999999,78.0,112.0
230,116.59552993749999,116.7867063125,78.0,117.0
231,116.94847093749999,117.132294375,78.0,117.0
232,117.30141193749999,117.44552951249999,78.0,127.0
233,117.6543529375,117.82641167499999,78.0,112.0
234,118.0072939375,118.2484702875,78.0,117.0
235,118.3602349375,118.7719994375,76.0,112.0
236,119.4190579375,119.59699902499999,78.0,127.0
237,119.7719989375,119.944057675,78.0,117.0
238,120.12493993749999,120.2778810375,78.0,112.0
239,120.47788093749999,120.6396455625,78.0,99.0
240,120.83082193749999,121.002880675,78.0,107.0
241,121.18376293749999,121.63229212499999,74.0,127.0
242,121.8896449375,122.04552721249999,78.0,122.0
243,122.2425859375,122.38670351249999,78.0,122.0
244,122.5955269375,122.761703325,78.0,127.0
245,122.9484679375,123.1161149125,78.0,127.0
246,123.3014089375,123.45287945,78.0,127.0
247,123.6543499375,123.85582042499999,78.0,127.0
248,124.00729093749999,124.3808201625,76.0,127.0
249,124.71317293749999,125.032290425,76.0,88.0
250,125.06611393749999,125.1602315375,74.0,79.0
251,125.4190549375,125.65287835,76.0,107.0
252,125.7719959375,125.97199583749999,74.0,100.0
253,126.1249369375,126.3072897875,76.0,107.0
254,126.4778779375,126.76170132499999,78.0,122.0
255,126.8308189375,127.355818675,74.0,102.0
