,start,end,pitch,velocity
0,2.9485279374999998,4.701468237499999,50.0,99.0
1,2.9485279374999998,5.132350375,62.0,85.0
2,2.9485279374999998,5.2352915,66.0,100.0
3,2.9485279374999998,5.308820874999999,69.0,82.0
4,5.772055937499999,7.370584549999999,66.0,90.0
5,5.772055937499999,7.38234925,69.0,79.0
6,5.772055937499999,7.385290425,49.0,77.0
7,5.772055937499999,7.3867610125,61.0,96.0
8,8.595583937499999,10.067642025,47.0,66.0
9,8.595583937499999,10.089700837499999,59.0,92.0
10,8.595583937499999,10.136759637499999,62.0,92.0
11,8.595583937499999,10.155877275,66.0,90.0
12,11.4191119375,14.079404725,43.0,67.0
13,11.4191119375,14.161757625,55.0,79.0
14,11.4191119375,14.1661693875,59.0,92.0
15,11.4191119375,14.1661693875,62.0,85.0
16,14.2426399375,15.995580237499999,50.0,99.0
17,14.2426399375,16.426462375,62.0,85.0
18,14.2426399375,16.5294035,66.0,100.0
19,14.2426399375,16.602932875,69.0,82.0
20,17.066167937499998,18.66469655,66.0,90.0
21,17.066167937499998,18.67646125,69.0,79.0
22,17.066167937499998,18.679402425,49.0,77.0
23,17.066167937499998,18.680873012499998,61.0,96.0
24,19.8896959375,21.361754025,47.0,66.0
25,19.8896959375,21.3838128375,59.0,92.0
26,19.8896959375,21.430871637499997,62.0,92.0
27,19.8896959375,21.449989275,66.0,90.0
28,22.7132239375,25.373516724999998,43.0,67.0
29,22.7132239375,25.455869625,55.0,79.0
30,22.7132239375,25.4602813875,59.0,92.0
31,22.7132239375,25.4602813875,62.0,85.0
32,25.5367519375,27.2896922375,50.0,99.0
33,25.5367519375,27.720574374999998,62.0,85.0
34,25.5367519375,27.8235155,66.0,100.0
35,25.5367519375,27.897044875,69.0,82.0
36,28.3602799375,29.958808549999997,66.0,90.0
37,28.3602799375,29.970573249999998,69.0,79.0
38,28.3602799375,29.973514424999998,49.0,77.0
39,28.3602799375,29.9749850125,61.0,96.0
40,31.1838079375,32.655866025,47.0,66.0
41,31.1838079375,32.6779248375,59.0,92.0
42,31.1838079375,32.724983637499996,62.0,92.0
43,31.1838079375,32.744101275,66.0,90.0
44,34.007335937499995,36.667628725,43.0,67.0
45,34.007335937499995,36.749981625,55.0,79.0
46,34.007335937499995,36.754393387499995,59.0,92.0
47,34.007335937499995,36.754393387499995,62.0,85.0
48,36.8308639375,38.5838042375,50.0,99.0
49,36.8308639375,39.014686375,62.0,85.0
50,36.8308639375,39.1176275,66.0,100.0
51,36.8308639375,39.191156875,69.0,82.0
52,39.6543919375,41.25292055,66.0,90.0
53,39.6543919375,41.26468525,69.0,79.0
54,39.6543919375,41.267626424999996,49.0,77.0
55,39.6543919375,41.2690970125,61.0,96.0
56,42.4779199375,43.949978025,47.0,66.0
57,42.4779199375,43.9720368375,59.0,92.0
58,42.4779199375,44.0190956375,62.0,92.0
59,42.4779199375,44.038213275,66.0,90.0
60,45.3014479375,47.961740725,43.0,67.0
61,45.3014479375,48.044093624999995,55.0,79.0
62,45.3014479375,48.0485053875,59.0,92.0
63,45.3014479375,48.0485053875,62.0,85.0
64,48.1249759375,49.4249752875,78.0,122.0
65,48.1249759375,49.877916237499996,50.0,99.0
66,48.1249759375,50.2837983875,69.0,82.0
67,49.1837989375,50.2837983875,69.0,96.0
68,48.1249759375,50.308798374999995,62.0,85.0
69,48.1249759375,50.411739499999996,66.0,100.0
70,50.2426219375,50.9132098375,78.0,117.0
71,50.9485039375,52.13526805,73.0,100.0
72,52.0073269375,52.13526805,73.0,102.0
73,50.9485039375,52.54703255,66.0,90.0
74,50.9485039375,52.55879725,69.0,79.0
75,50.9485039375,52.561738424999994,49.0,77.0
76,50.9485039375,52.563209012499996,61.0,96.0
77,52.7132089375,53.01762055,74.0,92.0
78,53.0661499375,53.75879665,70.0,99.0
79,53.772031937499996,55.1632077125,71.0,93.0
80,53.772031937499996,55.244090025,47.0,66.0
81,53.772031937499996,55.2661488375,59.0,92.0
82,53.772031937499996,55.3132076375,62.0,92.0
83,53.772031937499996,55.332325274999995,66.0,90.0
84,54.8308549375,56.2279130625,78.0,127.0
85,55.8896779375,56.769089262499996,74.0,122.0
86,56.5955599375,57.849971075,67.0,107.0
87,56.5955599375,59.255852725,43.0,67.0
88,57.654382937499996,59.2896762375,81.0,117.0
89,56.5955599375,59.338205625,55.0,79.0
90,56.5955599375,59.3426173875,59.0,92.0
91,56.5955599375,59.3426173875,62.0,85.0
92,58.7132059375,59.5396761125,78.0,127.0
93,59.419087937499995,61.172028237499994,50.0,99.0
94,59.419087937499995,61.602910375,62.0,85.0
95,59.419087937499995,61.705851499999994,66.0,100.0
96,59.419087937499995,61.779380874999994,69.0,82.0
97,62.2426159375,63.841144549999996,66.0,90.0
98,62.2426159375,63.852909249999996,69.0,79.0
99,62.2426159375,63.855850425,49.0,77.0
100,62.2426159375,63.857321012499995,61.0,96.0
101,65.0661439375,66.538202025,47.0,66.0
102,65.0661439375,66.5602608375,59.0,92.0
103,65.0661439375,66.6073196375,62.0,92.0
104,65.0661439375,66.626437275,66.0,90.0
105,67.8896719375,70.549964725,43.0,67.0
106,67.8896719375,70.632317625,55.0,79.0
107,67.8896719375,70.6367293875,59.0,92.0
108,67.8896719375,70.6367293875,62.0,85.0
109,70.7131999375,72.4661402375,50.0,99.0
110,70.7131999375,72.89702237499999,62.0,85.0
111,70.7131999375,72.99996349999999,66.0,100.0
112,70.7131999375,73.073492875,69.0,82.0
113,73.53672793749999,75.13525655,66.0,90.0
114,73.53672793749999,75.14702125,69.0,79.0
115,73.53672793749999,75.149962425,49.0,77.0
116,73.53672793749999,75.1514330125,61.0,96.0
117,76.3602559375,77.832314025,47.0,66.0
118,76.3602559375,77.8543728375,59.0,92.0
119,76.3602559375,77.9014316375,62.0,92.0
120,76.3602559375,77.920549275,66.0,90.0
121,79.1837839375,81.844076725,43.0,67.0
122,79.1837839375,81.926429625,55.0,79.0
123,79.1837839375,81.9308413875,59.0,92.0
124,79.1837839375,81.9308413875,62.0,85.0
125,82.00731193749999,83.7602522375,50.0,99.0
126,82.00731193749999,84.19113437499999,62.0,85.0
127,82.00731193749999,84.29407549999999,66.0,100.0
128,82.00731193749999,84.367604875,69.0,82.0
129,84.8308399375,86.42936854999999,66.0,90.0
130,84.8308399375,86.44113325,69.0,79.0
131,84.8308399375,86.444074425,49.0,77.0
132,84.8308399375,86.44554501249999,61.0,96.0
133,87.6543679375,89.126426025,47.0,66.0
134,87.6543679375,89.14848483749999,59.0,92.0
135,87.6543679375,89.1955436375,62.0,92.0
136,87.6543679375,89.214661275,66.0,90.0
137,90.4778959375,93.13818872499999,43.0,67.0
138,90.4778959375,93.220541625,55.0,79.0
139,90.4778959375,93.2249533875,59.0,92.0
140,90.4778959375,93.2249533875,62.0,85.0
141,93.30142393749999,95.0543642375,50.0,99.0
142,93.30142393749999,95.485246375,62.0,85.0
143,93.30142393749999,95.58818749999999,66.0,100.0
144,93.30142393749999,95.661716875,69.0,82.0
145,96.1249519375,97.72348054999999,66.0,90.0
146,96.1249519375,97.73524524999999,69.0,79.0
147,96.1249519375,97.738186425,49.0,77.0
148,96.1249519375,97.73965701249999,61.0,96.0
149,98.9484799375,100.420538025,47.0,66.0
150,98.9484799375,100.44259683749999,59.0,92.0
151,98.9484799375,100.4896556375,62.0,92.0
152,98.9484799375,100.508773275,66.0,90.0
153,101.77200793749999,104.43230072499999,43.0,67.0
154,101.77200793749999,104.514653625,55.0,79.0
155,101.77200793749999,104.51906538749999,59.0,92.0
156,101.77200793749999,104.51906538749999,62.0,85.0
157,104.59553593749999,106.3484762375,50.0,99.0
158,104.59553593749999,106.779358375,62.0,85.0
159,104.59553593749999,106.8822995,66.0,100.0
160,104.59553593749999,106.955828875,69.0,82.0
161,107.4190639375,109.01759254999999,66.0,90.0
162,107.4190639375,109.02935724999999,69.0,79.0
163,107.4190639375,109.032298425,49.0,77.0
164,107.4190639375,109.03376901249999,61.0,96.0
165,110.2425919375,111.714650025,47.0,66.0
166,110.2425919375,111.73670883749999,59.0,92.0
167,110.2425919375,111.78376763749999,62.0,92.0
168,110.2425919375,111.802885275,66.0,90.0
169,113.06611993749999,115.72641272499999,43.0,67.0
170,113.06611993749999,115.80876562499999,55.0,79.0
171,113.06611993749999,115.81317738749999,59.0,92.0
172,113.06611993749999,115.81317738749999,62.0,85.0
173,115.8896479375,117.6425882375,50.0,99.0
174,115.8896479375,118.073470375,62.0,85.0
175,115.8896479375,118.1764115,66.0,100.0
176,115.8896479375,118.249940875,69.0,82.0
177,118.7131759375,120.31170454999999,66.0,90.0
178,118.7131759375,120.32346924999999,69.0,79.0
179,118.7131759375,120.32641042499999,49.0,77.0
180,118.7131759375,120.3278810125,61.0,96.0
181,121.5367039375,123.008762025,47.0,66.0
182,121.5367039375,123.03082083749999,59.0,92.0
183,121.5367039375,123.07787963749999,62.0,92.0
184,121.5367039375,123.09699727499999,66.0,90.0
185,124.36023193749999,127.02052472499999,43.0,67.0
186,124.36023193749999,127.10287762499999,55.0,79.0
187,124.36023193749999,127.10728938749999,59.0,92.0
188,124.36023193749999,127.10728938749999,62.0,85.0
189,127.1837599375,128.9367002375,50.0,99.0
190,127.1837599375,129.36758237499998,62.0,85.0
191,127.1837599375,129.47052349999998,66.0,100.0
192,127.1837599375,129.544052875,69.0,82.0
193,130.0072879375,131.60581655,66.0,90.0
194,130.0072879375,131.61758125,69.0,79.0
195,130.0072879375,131.620522425,49.0,77.0
196,130.0072879375,131.62199301249998,61.0,96.0
197,132.8308159375,134.302874025,47.0,66.0
198,132.8308159375,134.3249328375,59.0,92.0
199,132.8308159375,134.3719916375,62.0,92.0
200,132.8308159375,134.391109275,66.0,90.0
201,135.6543439375,138.31463672499999,43.0,67.0
202,135.6543439375,138.396989625,55.0,79.0
203,135.6543439375,138.4014013875,59.0,92.0
204,135.6543439375,138.4014013875,62.0,85.0
205,138.4778719375,140.2308122375,50.0,99.0
206,138.4778719375,140.661694375,62.0,85.0
207,138.4778719375,140.7646355,66.0,100.0
208,138.4778719375,140.838164875,69.0,82.0
