,start,end,pitch,velocity
0,31.062468937500004,32.152240575,69.0,73.0
1,32.1533769375,32.698830937500006,69.0,82.0
2,32.698830937500006,33.494284687500006,67.0,82.0
3,33.5170119375,33.789738937500005,65.0,82.0
4,33.789738937500005,34.335192937500004,64.0,82.0
5,34.335192937500004,35.561328075000006,65.0,82.0
6,35.4261009375,35.9715549375,67.0,82.0
7,35.9715549375,37.061326575,69.0,82.0
8,37.0624629375,37.35223537500001,69.0,82.0
9,37.335189937500004,37.6079169375,72.0,82.0
10,37.6079169375,38.697688575,74.0,82.0
11,38.6988249375,39.244278937500006,74.0,82.0
12,39.244278937500006,40.0624599375,76.0,82.0
13,40.0624599375,40.396550512500006,74.0,82.0
14,40.335186937500005,40.6079139375,72.0,82.0
15,40.6079139375,40.8908682,67.0,82.0
16,40.880640937500004,43.606774575,69.0,82.0
17,43.6079109375,43.902228825,69.0,81.0
18,43.880637937500005,44.1533649375,72.0,81.0
19,44.1533649375,45.243136575,74.0,81.0
20,45.24427293750001,45.789726937500006,74.0,81.0
21,45.789726937500006,46.880634937500005,72.0,81.0
22,46.880634937500005,47.187452812500005,69.0,81.0
23,47.1533619375,47.49313432500001,67.0,81.0
24,47.426088937500005,48.2442699375,69.0,81.0
25,48.2442699375,48.516996937500004,70.0,81.0
26,48.516996937500004,48.835178437500005,69.0,81.0
27,48.78972393750001,49.102223625,67.0,81.0
28,49.0624509375,50.1533589375,65.0,81.0
29,50.1533589375,50.561313075,62.0,81.0
30,50.426085937500005,50.79426738750001,64.0,81.0
31,50.6988129375,51.793130025,65.0,81.0
32,51.78972093750001,52.373811262500006,69.0,81.0
33,53.1533559375,53.426082937500006,64.0,81.0
34,52.33517493750001,53.476082887500006,67.0,81.0
35,53.426082937500006,53.971536937500005,60.0,82.0
36,53.971536937500005,57.2442609375,62.0,82.0
37,57.2442609375,58.334032575,69.0,83.0
38,58.33516893750001,58.88062293750001,69.0,85.0
39,59.6988039375,59.971530937500006,65.0,86.0
40,58.88062293750001,60.00221272500001,67.0,85.0
41,59.971530937500006,60.516984937500006,64.0,86.0
42,60.516984937500006,61.74312007500001,65.0,86.0
43,61.607892937500004,62.153346937500004,67.0,86.0
44,62.153346937500004,63.243118575000004,69.0,87.0
45,63.2442549375,63.53402737500001,69.0,87.0
46,63.516981937500006,63.7897089375,72.0,87.0
47,63.7897089375,64.879480575,74.0,87.0
48,64.88061693750001,65.4260709375,74.0,87.0
49,65.4260709375,66.24425193750001,76.0,87.0
50,66.24425193750001,66.5783425125,74.0,88.0
51,66.5169789375,66.7897059375,72.0,89.0
52,66.7897059375,67.0726602,67.0,89.0
53,67.0624329375,69.788566575,69.0,89.0
54,69.78970293750001,70.08402082500001,69.0,90.0
55,70.0624299375,70.3351569375,72.0,90.0
56,70.3351569375,71.42492857500001,74.0,90.0
57,71.4260649375,71.97151893750001,74.0,90.0
58,71.97151893750001,73.0624269375,72.0,90.0
59,73.0624269375,73.3692448125,69.0,91.0
60,73.33515393750001,73.674926325,67.0,91.0
61,73.6078809375,74.42606193750001,69.0,91.0
62,74.42606193750001,74.69878893750001,70.0,92.0
63,74.69878893750001,75.0169704375,69.0,92.0
64,74.9715159375,75.28401562500001,67.0,92.0
65,75.2442429375,76.3351509375,65.0,92.0
66,76.3351509375,76.743105075,62.0,92.0
67,76.6078779375,76.9760593875,64.0,92.0
68,76.88060493750001,77.97492202500001,65.0,92.0
69,77.97151293750001,78.5556032625,69.0,94.0
70,79.33514793750001,79.6078749375,64.0,94.0
71,78.5169669375,79.6578748875,67.0,94.0
72,79.6078749375,80.1533289375,60.0,94.0
73,80.1533289375,82.3351449375,62.0,94.0
74,82.3351449375,82.90787163750001,69.0,92.0
75,82.88059893750001,83.44196201250001,72.0,91.0
76,83.4260529375,85.1396875875,74.0,91.0
77,85.06241493750001,86.56468616250001,76.0,91.0
78,86.56241343750001,86.56468616250001,76.0,90.0
79,87.78968493750001,88.3351389375,79.0,90.0
80,88.3351389375,89.4260469375,77.0,90.0
81,89.4260469375,89.697637575,74.0,90.0
82,89.69877393750001,89.970364575,74.0,90.0
83,89.97150093750001,91.061272575,74.0,90.0
84,91.06240893750001,91.6078629375,74.0,90.0
85,91.6078629375,92.42604393750001,72.0,89.0
86,92.42604393750001,92.6987709375,74.0,89.0
87,92.6987709375,92.98172520000001,72.0,89.0
88,92.9714979375,93.24422493750001,67.0,89.0
89,93.24422493750001,93.78967893750001,70.0,89.0
90,93.78967893750001,95.42490457500001,69.0,87.0
91,95.4260409375,95.97149493750001,69.0,86.0
92,95.97149493750001,96.5169489375,72.0,86.0
93,96.5169489375,98.15331093750001,74.0,86.0
94,98.15331093750001,99.78967293750001,76.0,86.0
95,99.78967293750001,100.88058093750001,73.0,84.0
96,100.88058093750001,101.4260349375,76.0,84.0
97,101.4260349375,103.0919423625,77.0,84.0
98,103.06239693750001,104.15330493750001,67.0,83.0
99,104.15330493750001,104.727168,69.0,81.0
100,104.6987589375,105.51693993750001,67.0,80.0
101,105.51693993750001,105.85330323750001,64.0,80.0
102,105.7896669375,106.33512093750001,60.0,80.0
103,106.33512093750001,109.63625400000001,62.0,80.0
104,135.7896369375,136.879408575,69.0,83.0
105,136.88054493750002,137.4259989375,69.0,85.0
106,138.2441799375,138.5169069375,65.0,85.0
107,137.4259989375,138.547588725,67.0,85.0
108,138.5169069375,139.06236093750002,64.0,85.0
109,139.06236093750002,140.288496075,65.0,85.0
110,140.1532689375,140.6987229375,67.0,86.0
111,140.6987229375,141.78849457500002,69.0,86.0
112,141.78963093750002,142.079403375,69.0,86.0
113,142.06235793750002,142.3350849375,72.0,86.0
114,142.3350849375,143.424856575,74.0,86.0
115,143.4259929375,143.97144693750002,74.0,86.0
116,143.97144693750002,144.7896279375,76.0,86.0
117,144.7896279375,145.1237185125,74.0,86.0
118,145.0623549375,145.3350819375,72.0,86.0
119,145.3350819375,145.6180362,67.0,86.0
120,145.6078089375,148.333942575,69.0,86.0
121,148.33507893750001,148.62939682500001,69.0,86.0
122,148.60780593750002,148.88053293750002,72.0,86.0
123,148.88053293750002,149.970304575,74.0,86.0
124,149.9714409375,150.5168949375,74.0,86.0
125,150.5168949375,151.60780293750003,72.0,86.0
126,151.60780293750003,151.9146208125,69.0,86.0
127,151.8805299375,152.220302325,67.0,86.0
128,152.1532569375,152.9714379375,69.0,86.0
129,152.9714379375,153.24416493750002,70.0,86.0
130,153.24416493750002,153.56234643750003,69.0,87.0
131,153.51689193750002,153.829391625,67.0,86.0
132,153.78961893750002,154.8805269375,65.0,87.0
133,154.8805269375,155.28848107500002,62.0,89.0
134,155.1532539375,155.52143538750002,64.0,89.0
135,155.42598093750001,156.52029802500002,65.0,89.0
136,156.5168889375,157.1009792625,69.0,89.0
137,157.88052393750002,158.15325093750002,64.0,89.0
138,157.0623429375,158.20325088750002,67.0,89.0
139,158.15325093750002,158.69870493750003,60.0,89.0
140,158.69870493750003,160.88052093750002,62.0,89.0
141,160.88052093750002,161.4532476375,69.0,89.0
142,161.4259749375,161.9873380125,72.0,89.0
143,161.9714289375,163.68506358750003,74.0,89.0
144,163.6077909375,165.243016575,76.0,89.0
145,165.24415293750002,166.3350609375,76.0,89.0
146,166.3350609375,166.8805149375,79.0,89.0
147,166.8805149375,167.97142293750002,77.0,89.0
148,167.97142293750002,168.24301357500002,74.0,86.0
149,168.24414993750003,168.51574057500002,74.0,86.0
150,168.5168769375,169.606648575,74.0,86.0
151,169.6077849375,170.15323893750002,74.0,86.0
152,170.15323893750002,170.9714199375,72.0,86.0
153,170.9714199375,171.2441469375,74.0,84.0
154,171.2441469375,171.5271012,72.0,83.0
155,171.5168739375,171.7896009375,67.0,83.0
156,171.7896009375,172.33505493750002,70.0,82.0
157,172.33505493750002,173.970280575,69.0,82.0
158,173.9714169375,174.51687093750002,69.0,82.0
159,174.51687093750002,175.06232493750002,72.0,82.0
160,175.06232493750002,176.6986869375,74.0,82.0
161,176.6986869375,178.3350489375,76.0,82.0
162,178.3350489375,179.42595693750002,73.0,81.0
163,179.42595693750002,179.97141093750002,76.0,81.0
164,179.97141093750002,181.63731836250003,77.0,81.0
165,181.60777293750002,182.6986809375,67.0,81.0
166,182.6986809375,183.272544,69.0,81.0
167,183.2441349375,184.06231593750002,67.0,82.0
168,184.06231593750002,184.3986792375,64.0,82.0
169,184.33504293750002,184.88049693750003,60.0,83.0
170,184.88049693750003,188.1532209375,62.0,83.0
171,188.1532209375,193.09071600000001,75.0,85.0
172,210.51683493750002,210.78842557500002,76.0,96.0
173,210.78956193750003,211.06115257500002,76.0,96.0
174,211.06228893750003,212.152060575,76.0,96.0
175,212.1531969375,212.69865093750002,76.0,96.0
176,212.69865093750002,213.51683193750003,74.0,96.0
177,213.51683193750003,213.7895589375,76.0,96.0
178,213.7895589375,214.06114957500003,74.0,96.0
179,214.04183141250002,214.3350129375,69.0,96.0
180,214.3350129375,214.88046693750002,72.0,96.0
181,214.88046693750002,216.51569257500003,71.0,96.0
182,216.5168289375,217.06228293750002,71.0,95.0
183,217.06228293750002,217.60773693750002,74.0,95.0
184,217.60773693750002,219.2440989375,76.0,95.0
185,219.2440989375,220.87932457500003,78.0,94.0
186,220.8804609375,221.97136893750002,78.0,94.0
187,221.97136893750002,222.51682293750002,81.0,94.0
188,222.51682293750002,223.6077309375,79.0,94.0
189,223.6077309375,223.879321575,76.0,94.0
190,223.8804579375,224.152048575,76.0,94.0
191,224.15318493750001,225.24295657500002,76.0,94.0
192,225.24409293750003,225.7895469375,76.0,94.0
193,225.7895469375,226.60772793750002,78.0,94.0
194,226.60772793750002,226.88045493750002,79.0,94.0
195,226.88045493750002,227.14977285,78.0,94.0
196,227.14977285,227.42590893750003,74.0,94.0
197,227.42590893750003,227.9713629375,78.0,94.0
198,227.9713629375,229.6168158375,76.0,94.0
199,229.60772493750002,230.1872698125,71.0,94.0
200,230.15317893750003,230.6986329375,74.0,94.0
201,230.6986329375,232.33499493750003,76.0,94.0
202,232.33499493750003,233.97135693750002,78.0,94.0
203,233.97135693750002,235.06226493750003,76.0,94.0
204,235.06226493750003,235.6077189375,78.0,94.0
205,235.6077189375,244.33498293750003,79.0,95.0
206,244.33498293750003,245.67816341250003,67.0,61.0
207,245.42589093750001,246.047481225,71.0,60.0
208,245.97134493750002,247.43384347500003,69.0,60.0
209,247.3349799375,247.62588873750002,67.0,60.0
210,247.6077069375,248.15429730000002,62.0,60.0
211,248.15316093750002,255.3088356,64.0,60.0
212,255.3088356,256.63610700000004,71.0,63.0
213,256.63724336250004,257.297469975,71.0,63.0
214,257.2713336375,258.27701445,69.0,63.0
215,258.1599691125,258.4508779125,66.0,63.0
216,258.452014275,258.892922925,66.0,63.0
217,258.892922925,260.0486035875,67.0,63.0
218,259.95655822500004,260.53610310000005,69.0,63.0
219,260.49178496250005,261.64519290000004,71.0,63.0
220,261.60996566250003,261.64519290000004,71.0,63.0
221,261.938374425,262.2815559,74.0,63.0
222,262.2270105,263.2815549,76.0,63.0
223,263.2826912625,263.8076907375,76.0,63.0
224,263.8076907375,264.6906444,78.0,63.0
225,264.6906444,265.1508712125,76.0,63.0
226,265.00996226250004,265.4008709625,74.0,63.0
227,265.4008709625,265.9179159,69.0,63.0
228,265.9054159125,268.55200417500004,71.0,63.0
229,268.55314053750004,268.97359466250003,71.0,63.0
230,268.8724584,269.1917762625,74.0,62.0
231,269.161094475,270.24063885000004,76.0,62.0
232,270.24177521250004,270.78495648750004,76.0,62.0
233,270.78495648750004,271.90768263750005,74.0,62.0
234,271.90768263750005,272.21677323750004,71.0,61.0
235,272.18381872500004,272.53040928750005,69.0,61.0
236,272.5088184,273.40540841250004,71.0,61.0
237,273.35881755,273.63722636250003,72.0,61.0
238,273.61677183750004,273.9349533375,71.0,60.0
239,273.88268066250004,274.2008621625,69.0,61.0
240,274.1917712625,275.23154295,67.0,60.0
241,275.23154295,275.60313348750003,64.0,60.0
242,275.56108807500004,275.9417695125,66.0,60.0
243,275.908815,277.17017737500004,67.0,60.0
244,277.006541175,277.64744962500004,71.0,60.0
245,278.4849487875,278.8644938625,66.0,60.0
246,277.611086025,279.08608455,69.0,60.0
247,278.8633575,279.406538775,62.0,60.0
248,279.35994791250005,282.97698975000003,64.0,60.0
249,282.97812611250004,283.4531256375,64.0,60.0
250,283.43267111250003,283.89176156250005,66.0,60.0
251,283.8599434125,285.6531234375,67.0,60.0
252,285.6531234375,286.115622975,71.0,62.0
253,286.115622975,289.59743767500004,69.0,62.0
254,289.41902876250003,291.53152665000005,67.0,63.0
255,291.50766303750004,299.454246,64.0,64.0
