,start,end,pitch,velocity
0,1.6079529375000001,2.8795425750000003,58.0,56.0
1,2.1534069375000002,2.9943151875000003,62.0,62.0
2,2.6988609375,3.29545125,65.0,62.0
3,3.2443149375000004,4.464768262500001,60.0,87.0
4,3.78635985,4.885222387500001,64.0,69.0
5,4.3318138500000005,4.9840859250000005,67.0,58.0
6,5.9715849375,6.8352204375,65.0,49.0
7,4.8806769375000005,7.4147653125,69.0,49.0
8,4.8806769375000005,7.468174350000001,53.0,58.0
9,6.517038937500001,7.523856112500001,77.0,58.0
10,4.8806769375000005,7.534083375000001,72.0,59.0
11,7.062492937500001,7.554537900000001,65.0,63.0
12,5.562494437500001,7.64090145,60.0,40.0
13,7.6079469375,8.33180985,69.0,58.0
14,8.1534009375,9.194308987500001,58.0,57.0
15,8.6988549375,9.302263425000001,62.0,61.0
16,9.244308937500001,9.824990175,74.0,61.0
17,10.3352169375,11.1397615875,67.0,61.0
18,9.7897629375,11.197716075,60.0,79.0
19,10.880670937500001,11.456806725000002,79.0,60.0
20,10.880670937500001,11.477261250000002,76.0,61.0
21,13.062486937500001,14.034076875,77.0,63.0
22,11.9715789375,14.088622275,69.0,60.0
23,11.9715789375,14.0965768125,72.0,62.0
24,13.6079409375,14.3829401625,65.0,47.0
25,12.517032937500002,14.505667312500002,60.0,67.0
26,11.426124937500001,14.526121837500002,53.0,73.0
27,14.153394937500002,14.63180355,69.0,64.0
28,14.153394937500002,14.632939912500001,77.0,72.0
29,14.153394937500002,14.656803525,72.0,59.0
30,15.2443029375,15.9238477125,62.0,56.0
31,14.698848937500001,16.147711125,58.0,59.0
32,15.789756937500002,16.206801975,65.0,64.0
33,16.0624839375,16.393165425000003,74.0,60.0
34,16.8806649375,17.402255325000002,67.0,59.0
35,16.3352109375,17.5102097625,60.0,81.0
36,17.420437125000003,17.670436875,76.0,67.0
37,17.4261189375,17.9238457125,79.0,72.0
38,17.971572937500003,19.3102079625,57.0,69.0
39,19.062480937500002,19.443162375,64.0,75.0
40,18.517026937500003,19.60452585,72.0,64.0
41,19.3352079375,19.626116737500002,76.0,72.0
42,20.1533889375,20.662479337500002,74.0,46.0
43,20.418161400000002,20.6670247875,76.0,62.0
44,19.8806619375,20.7363429,69.0,59.0
45,19.6079349375,20.870433675,62.0,65.0
46,21.244296937500003,22.361341275,55.0,59.0
47,21.789750937500003,22.3738412625,67.0,54.0
48,21.517023937500003,22.4579320875,62.0,58.0
49,22.062477937500002,22.7817954,70.0,59.0
50,22.335204937500002,22.854522600000003,74.0,64.0
51,22.8806589375,23.9579305875,57.0,65.0
52,23.1533859375,24.0181578,64.0,64.0
53,23.4261129375,24.038612325000003,69.0,60.0
54,23.6988399375,24.053385037500004,72.0,58.0
55,23.9715669375,24.477248250000002,76.0,63.0
56,24.789747937500003,25.1920202625,69.0,51.0
57,25.062474937500003,25.38633825,81.0,61.0
58,25.335201937500003,25.5090654,79.0,74.0
59,25.607928937500002,25.8852013875,81.0,67.0
60,25.880655937500002,26.1942919875,74.0,62.0
61,26.1533829375,26.717018737500002,76.0,66.0
62,26.6988369375,27.2465636625,72.0,69.0
63,24.517020937500003,27.789744937500004,62.0,70.0
64,27.2442909375,27.889744837500004,69.0,67.0
65,28.335198937500003,28.899971100000002,62.0,57.0
66,28.607925937500003,29.007925537500004,64.0,61.0
67,28.880652937500003,29.156789025000002,65.0,74.0
68,27.789744937500004,29.451106912500002,74.0,66.0
69,28.062471937500003,29.474970525000003,57.0,58.0
70,27.789744937500004,29.504515950000002,50.0,75.0
71,29.314743412500004,29.517015937500002,77.0,54.0
72,29.3488342875,29.538606825000002,81.0,73.0
73,29.422697850000002,29.66815215,86.0,64.0
74,31.607922937500003,32.7090582,69.0,59.0
75,31.062468937500004,32.712467287500004,62.0,63.0
76,32.1533769375,33.74087535,77.0,60.0
77,33.244284937500005,33.8283752625,81.0,58.0
78,32.698830937500006,33.857920687500005,64.0,73.0
79,33.789738937500005,34.335192937500004,77.0,65.0
80,35.417010037500006,35.981782200000005,81.0,74.0
81,35.1533739375,36.06814575,79.0,61.0
82,34.8806469375,36.1238275125,77.0,64.0
83,34.6079199375,36.753372337500004,72.0,66.0
84,35.4261009375,36.8999631,53.0,55.0
85,34.335192937500004,36.953372137500004,41.0,70.0
86,34.335192937500004,36.971553937500005,65.0,63.0
87,34.8806469375,37.3260990375,48.0,71.0
88,37.0624629375,37.327235400000006,60.0,68.0
89,37.335189937500004,37.692007762500005,55.0,60.0
90,38.1533709375,38.6965522125,50.0,64.0
91,37.6079169375,38.749961250000005,46.0,59.0
92,38.6988249375,39.272688,60.0,64.0
93,39.789732937500006,40.359050550000006,55.0,59.0
94,39.244278937500006,40.429505025000005,48.0,71.0
95,40.335186937500005,40.862459137500004,64.0,61.0
96,41.9715489375,42.5670028875,57.0,54.0
97,43.0624569375,43.5374564625,53.0,54.0
98,41.426094937500004,43.5760927875,48.0,64.0
99,40.880640937500004,43.605638212500004,41.0,59.0
100,42.5170029375,43.662456337500004,60.0,67.0
101,43.6079109375,44.17950127500001,57.0,62.0
102,44.6988189375,45.5363181,50.0,68.0
103,44.1533649375,45.561318075,46.0,58.0
104,45.5169999375,45.796545112500006,60.0,61.0
105,46.335180937500006,46.7090442,60.0,60.0
106,46.0624539375,46.7829077625,55.0,58.0
107,45.789726937500006,47.0829074625,48.0,65.0
108,46.880634937500005,47.44086165,64.0,74.0
109,47.971542937500004,48.4124515875,57.0,58.0
110,47.426088937500005,48.622678650000005,45.0,74.0
111,47.6988159375,48.624951375,52.0,62.0
112,48.2442699375,48.624951375,60.0,60.0
113,48.516996937500004,48.82722390000001,64.0,62.0
114,48.78972393750001,49.08404182500001,60.0,67.0
115,49.6079049375,50.331767850000006,57.0,59.0
116,49.0624509375,50.50563131250001,50.0,71.0
117,50.1533589375,50.720403825000005,65.0,71.0
118,50.971539937500005,51.4999485,50.0,72.0
119,50.6988129375,51.553357537500005,46.0,37.0
120,51.2442669375,51.79540275,53.0,69.0
121,51.516993937500004,52.293129525000005,62.0,65.0
122,51.78972093750001,52.298811337500005,65.0,74.0
123,52.880628937500006,53.426082937500006,64.0,55.0
124,52.880628937500006,53.489719237500005,67.0,61.0
125,52.33517493750001,53.4919919625,48.0,81.0
126,53.426082937500006,53.909037000000005,64.0,57.0
127,52.880628937500006,53.939718787500006,55.0,53.0
128,54.516990937500005,55.77948967500001,65.0,58.0
129,56.1533529375,56.447670825,64.0,62.0
130,55.6078989375,56.7124432875,62.0,63.0
131,56.426079937500006,56.7669886875,65.0,67.0
132,55.062444937500004,57.229488225000004,57.0,58.0
133,53.971536937500005,57.2442609375,50.0,77.0
134,56.6988069375,57.35903355000001,67.0,69.0
135,57.7897149375,58.394259787500005,62.0,56.0
136,57.2442609375,58.5272142,50.0,77.0
137,57.2442609375,58.63630500000001,69.0,83.0
138,57.49539705,58.71698673750001,57.0,56.0
139,58.88062293750001,59.764712962500006,52.0,76.0
140,58.33516893750001,59.8238038125,65.0,67.0
141,59.6988039375,60.047667225000005,69.0,65.0
142,59.971530937500006,60.435166837500006,65.0,69.0
143,61.356756825000005,61.970392575000005,57.0,58.0
144,61.607892937500004,62.045392500000005,60.0,63.0
145,61.062438937500005,62.2738013625,53.0,61.0
146,62.153346937500004,63.11357325,57.0,66.0
147,62.153346937500004,63.11470961250001,60.0,65.0
148,60.516984937500006,63.123800512500004,41.0,68.0
149,62.6988009375,63.20902770000001,53.0,56.0
150,60.7897119375,63.286300350000005,48.0,66.0
151,63.2442549375,63.74652716250001,60.0,69.0
152,63.2442549375,63.7897089375,57.0,67.0
153,63.7897089375,64.7635716,62.0,64.0
154,63.7897089375,64.78629885000001,46.0,65.0
155,63.7897089375,64.8260715375,65.0,77.0
156,64.3351629375,64.9601623125,53.0,64.0
157,64.88061693750001,65.4124345875,65.0,74.0
158,64.88061693750001,65.4487981875,62.0,63.0
159,65.4260709375,66.247661025,48.0,70.0
160,65.9715249375,66.3169791375,64.0,62.0
161,65.6987979375,66.31925186250001,55.0,65.0
162,66.24425193750001,66.5533425375,67.0,68.0
163,66.5169789375,66.71016056250001,64.0,73.0
164,67.0624329375,68.174931825,57.0,58.0
165,67.0624329375,68.51811330000001,60.0,59.0
166,67.8806139375,68.98402192500001,53.0,63.0
167,68.69879493750001,69.6942484875,57.0,59.0
168,68.69879493750001,69.7056121125,60.0,69.0
169,67.0624329375,69.80902110000001,41.0,76.0
170,67.6078869375,69.8737937625,48.0,52.0
171,68.4328861125,69.9237937125,45.0,33.0
172,69.2442489375,69.9942481875,53.0,59.0
173,69.78970293750001,70.20902070000001,60.0,76.0
174,69.78970293750001,70.2181116,57.0,65.0
175,70.3351569375,71.229474225,62.0,64.0
176,70.3351569375,71.27492872500001,46.0,56.0
177,70.88061093750001,71.2908378,50.0,81.0
178,70.3351569375,71.33061048750001,65.0,77.0
179,71.17265610000001,71.49765577500001,53.0,74.0
180,71.4260649375,71.8624281375,65.0,67.0
181,71.4260649375,71.87151903750001,62.0,67.0
182,72.5169729375,72.861290775,60.0,59.0
183,72.24424593750001,73.05901785,55.0,60.0
184,71.97151893750001,73.1362905,48.0,90.0
185,72.7896999375,73.63174455000001,64.0,59.0
186,73.0624269375,73.63742636250001,67.0,73.0
187,74.1533349375,74.7578797875,52.0,69.0
188,73.6078809375,74.75901615000001,45.0,74.0
189,74.69878893750001,75.2328793125,60.0,65.0
190,75.78969693750001,76.26924191250001,69.0,72.0
191,75.78969693750001,76.28060553750001,65.0,65.0
192,76.0624239375,76.52833256250001,57.0,55.0
193,75.2442429375,76.64196881250001,50.0,76.0
194,76.3351509375,76.870377675,65.0,79.0
195,76.3351509375,76.8896958375,69.0,75.0
196,76.88060493750001,77.747649525,62.0,62.0
197,77.4260589375,77.943103875,50.0,90.0
198,76.88060493750001,77.96810385,65.0,75.0
199,76.88060493750001,78.0169674375,46.0,67.0
200,77.6987859375,78.15219457500001,53.0,83.0
201,77.97151293750001,78.4896942375,62.0,76.0
202,78.24423993750001,78.5260578375,65.0,73.0
203,79.06242093750001,79.55673862500001,60.0,61.0
204,78.5169669375,79.67605668750001,48.0,87.0
205,79.33514793750001,79.7396929875,64.0,68.0
206,79.6078749375,80.0306017875,67.0,72.0
207,78.7896939375,80.0783290125,55.0,60.0
208,80.1533289375,81.56469116250001,65.0,64.0
209,80.1533289375,82.3351449375,50.0,81.0
210,82.3351449375,82.82264445000001,50.0,83.0
211,81.2442369375,83.2533258375,62.0,43.0
212,81.78969093750001,83.27718945000001,69.0,67.0
213,81.78969093750001,83.2783258125,65.0,72.0
214,82.88059893750001,83.3124166875,48.0,75.0
215,80.69878293750001,83.4146893125,57.0,62.0
216,84.24423393750001,84.63173355,62.0,64.0
217,84.5169609375,84.8646878625,65.0,87.0
218,83.97150693750001,84.9283241625,53.0,60.0
219,83.6987799375,84.947642325,50.0,72.0
220,83.4260529375,85.0692331125,46.0,108.0
221,85.6078689375,85.9919594625,60.0,62.0
222,85.33514193750001,86.14991385,55.0,59.0
223,85.06241493750001,86.20673197500001,48.0,81.0
224,85.8805959375,86.24309557500001,64.0,65.0
225,86.15332293750001,86.47036807500001,67.0,65.0
226,86.42604993750001,86.7237769125,64.0,72.0
227,86.6987769375,87.80900310000001,45.0,75.0
228,87.2442309375,87.84536670000001,57.0,63.0
229,87.51695793750001,87.8544576,60.0,60.0
230,86.9715039375,87.8624121375,52.0,61.0
231,87.78968493750001,88.09763917500001,64.0,67.0
232,88.0624119375,88.3896843375,60.0,68.0
233,88.88059293750001,89.697637575,62.0,59.0
234,88.3351389375,89.97150093750001,50.0,70.0
235,88.643093175,89.97150093750001,57.0,57.0
236,89.4260469375,90.01809180000001,65.0,86.0
237,89.69877393750001,90.04650086250001,69.0,64.0
238,90.7896819375,91.1033179875,62.0,58.0
239,89.97150093750001,91.233999675,46.0,63.0
240,90.24422793750001,91.26240873750001,50.0,63.0
241,91.06240893750001,91.3305904875,65.0,68.0
242,91.33513593750001,91.61240838750001,62.0,74.0
243,92.15331693750001,92.529452925,60.0,61.0
244,91.8805899375,92.59536195000001,55.0,62.0
245,91.6078629375,92.679452775,48.0,83.0
246,92.42604393750001,92.90104346250001,64.0,63.0
247,92.6987709375,92.9351343375,67.0,67.0
248,93.24422493750001,94.1908149,57.0,61.0
249,93.24422493750001,94.2396784875,60.0,64.0
250,93.78967893750001,94.3874056125,53.0,51.0
251,94.3351329375,94.79990520000001,57.0,63.0
252,94.3351329375,94.833996075,60.0,65.0
253,94.60785993750001,95.03854132500001,53.0,58.0
254,94.88058693750001,95.81240418750001,57.0,68.0
255,94.88058693750001,95.820358725,60.0,71.0
256,95.4260409375,95.84990415000001,53.0,49.0
257,93.24422493750001,95.8783132125,41.0,63.0
258,93.78967893750001,95.98626765,48.0,77.0
259,95.97149493750001,96.47944897500001,60.0,86.0
260,95.97149493750001,96.50217622500001,57.0,83.0
261,96.5169489375,97.59535695000001,46.0,85.0
262,97.3271754,97.60444785000001,62.0,65.0
263,96.78967593750001,97.7214931875,50.0,67.0
264,97.06240293750001,97.78172040000001,53.0,67.0
265,97.6078569375,97.9714929375,65.0,85.0
266,97.8805839375,98.1908109,62.0,69.0
267,98.6987649375,99.1351281375,60.0,61.0
268,98.42603793750001,99.27262800000001,55.0,61.0
269,98.9714919375,99.32490067500001,64.0,67.0
270,98.15331093750001,99.36694608750001,48.0,90.0
271,99.24421893750001,99.4760368875,67.0,83.0
272,100.33512693750001,100.8373991625,57.0,59.0
273,99.78967293750001,100.94648996250001,61.0,111.0
274,99.78967293750001,100.96353540000001,45.0,63.0
275,100.60785393750001,101.0283080625,49.0,64.0
276,100.0623999375,101.0760352875,52.0,67.0
277,100.88058093750001,101.17944427500001,64.0,75.0
278,101.1533079375,101.33853502500001,61.0,75.0
279,101.97148893750001,102.39080670000001,62.0,61.0
280,102.2442159375,102.41580667500001,65.0,79.0
281,101.69876193750001,102.52262475,57.0,65.0
282,101.4260349375,102.60444285000001,50.0,70.0
283,102.5169429375,102.6919427625,69.0,63.0
284,102.78966993750001,102.9669424875,65.0,70.0
285,103.06239693750001,104.1851230875,43.0,75.0
286,103.6078509375,104.2271685,50.0,63.0
287,103.33512393750001,104.2942138875,46.0,74.0
288,103.88057793750001,104.34080475,55.0,59.0
289,104.42603193750001,104.6873953125,62.0,72.0
290,104.15330493750001,104.7373952625,58.0,64.0
291,105.24421293750001,105.5237581125,65.0,65.0
292,105.24421293750001,105.5510308125,62.0,67.0
293,105.51693993750001,105.88398502500002,57.0,54.0
294,104.6987589375,106.0237576125,45.0,72.0
295,104.9714859375,106.06353030000001,52.0,45.0
296,105.7896669375,106.2873937125,64.0,74.0
297,105.7896669375,106.30443915000001,60.0,68.0
298,106.88057493750001,107.25443820000001,65.0,62.0
299,106.88057493750001,107.26352910000001,69.0,64.0
300,107.1533019375,107.59421058750002,62.0,59.0
301,107.4260289375,107.8055740125,65.0,73.0
302,107.4260289375,107.8692103125,69.0,74.0
303,107.69875593750001,109.49534505000001,62.0,48.0
304,107.97148293750001,109.54307227500001,69.0,74.0
305,106.60784793750001,109.54534500000001,57.0,63.0
306,107.97148293750001,109.57375406250002,65.0,64.0
307,106.33512093750001,109.61125402500001,50.0,79.0
308,109.6078449375,109.61125402500001,50.0,81.0
309,110.15329893750001,110.53625310000001,62.0,56.0
310,109.88057193750001,110.715798375,57.0,58.0
311,110.42602593750001,110.78057103750001,64.0,64.0
312,110.6987529375,111.31466141250002,65.0,69.0
313,111.7896609375,112.22261505000002,60.0,58.0
314,111.51693393750001,112.36011491250001,55.0,65.0
315,112.0623879375,112.38511488750001,64.0,58.0
316,111.24420693750001,112.43511483750001,48.0,77.0
317,112.33511493750001,112.98625065,67.0,70.0
318,113.42602293750001,113.72261355,62.0,65.0
319,112.88056893750002,113.93170425000001,46.0,59.0
320,113.1532959375,113.93170425000001,50.0,58.0
321,113.69874993750001,114.06238593750001,65.0,74.0
322,113.97147693750001,114.50102186250001,62.0,71.0
323,115.3351119375,115.65102071250001,60.0,63.0
324,115.06238493750001,115.66238433750001,57.0,58.0
325,114.5169309375,116.00442945,45.0,76.0
326,115.6078389375,116.00670217500002,62.0,66.0
327,114.78965793750001,116.0180658,52.0,59.0
328,117.24420093750001,117.54192791250001,62.0,74.0
329,116.15329293750001,117.68851867500001,43.0,61.0
330,116.6987469375,117.80442765000001,46.0,9.0
331,116.6987469375,117.87147303750001,50.0,65.0
332,116.97147393750001,117.89988210000001,55.0,64.0
333,117.51692793750001,117.90442755000001,58.0,60.0
334,118.0623819375,118.88851747500001,52.0,61.0
335,118.33510893750001,118.90101746250001,57.0,63.0
336,118.60783593750001,118.97942647500001,60.0,58.0
337,117.7896549375,119.1532899375,45.0,73.0
338,118.8805629375,119.25215347500001,64.0,74.0
339,119.14533540000001,119.3305624875,60.0,62.0
340,119.97147093750002,120.4328341125,67.0,76.0
341,119.97147093750002,120.4328341125,79.0,93.0
342,120.51692493750001,120.85328823750001,69.0,79.0
343,120.51692493750001,120.85328823750001,81.0,79.0
344,120.2441979375,121.2691969125,62.0,67.0
345,119.6919257625,122.05896885000001,57.0,64.0
346,121.06237893750001,122.0601052125,66.0,92.0
347,121.06237893750001,122.0601052125,78.0,112.0
348,121.3271514,122.07487792500001,62.0,58.0
349,121.88055993750001,122.17601418750002,69.0,60.0
350,119.42601693750001,122.22487777500001,50.0,75.0
351,122.15328693750001,122.51692293750001,66.0,64.0
352,123.24419493750001,123.545331,65.0,70.0
353,122.97146793750001,123.583967325,62.0,58.0
354,123.51692193750002,124.26919391250001,69.0,70.0
355,122.69533185000002,124.36805745000001,51.0,73.0
356,124.60782993750001,125.23964748750001,55.0,52.0
357,125.1532839375,125.58396532500001,64.0,73.0
358,125.42601093750001,125.80328328750001,67.0,64.0
359,124.33510293750001,125.92828316250001,49.0,80.0
360,124.8805569375,126.03169215000001,60.0,70.0
361,125.69873793750001,126.14191931250001,64.0,74.0
362,126.51691893750001,127.002145725,60.0,61.0
363,126.2441919375,127.11123652500001,55.0,64.0
364,126.78964593750001,127.13964558750001,64.0,63.0
365,125.97146493750002,127.49305432500002,48.0,85.0
366,127.06237293750002,127.58850877500001,67.0,72.0
367,127.3350999375,127.67259960000001,64.0,61.0
368,128.4260079375,128.820325725,62.0,74.0
369,127.60782693750001,129.1532799375,47.0,82.0
370,127.915781175,129.17373446250002,53.0,58.0
371,128.1532809375,129.20668897500002,57.0,58.0
372,128.6987349375,129.2532798375,65.0,83.0
373,128.9714619375,129.25555256250001,62.0,74.0
374,130.06236993750002,130.32259695000002,58.0,68.0
375,129.2441889375,130.4760058875,43.0,74.0
376,129.78964293750002,130.58850577500002,55.0,60.0
377,130.3350969375,130.63850572500002,62.0,74.0
378,129.51691593750002,130.6760056875,50.0,63.0
379,130.74418743750002,130.8123691875,62.0,11.0
380,130.6078239375,130.865778225,58.0,74.0
381,131.6987319375,132.0191861625,60.0,67.0
382,130.8805509375,132.02714070000002,45.0,73.0
383,131.4260049375,132.079413375,57.0,59.0
384,131.1532779375,132.206685975,52.0,64.0
385,131.97145893750002,132.54418563750002,62.0,71.0
386,133.3350939375,133.59304822500002,67.0,69.0
387,133.8805479375,134.124865875,67.0,62.0
388,133.6078209375,134.12600223750002,69.0,93.0
389,133.8805479375,134.88054693750001,62.0,65.0
390,132.51691293750002,134.97031957500002,50.0,61.0
391,133.0623669375,134.983955925,57.0,64.0
392,134.15327493750002,135.0623649375,66.0,75.0
393,136.3350909375,136.9396357875,62.0,56.0
394,135.7896369375,137.0725902,50.0,77.0
395,135.7896369375,137.181681,69.0,83.0
396,136.04077305,137.2623627375,57.0,56.0
397,137.4259989375,138.3100889625,52.0,76.0
398,136.88054493750002,138.36917981250002,65.0,67.0
399,138.2441799375,138.593043225,69.0,65.0
400,138.5169069375,138.98054283750002,65.0,69.0
401,139.90213282500002,140.515768575,57.0,58.0
402,140.1532689375,140.59076850000002,60.0,63.0
403,139.60781493750002,140.8191773625,53.0,61.0
404,140.6987229375,141.65894925,57.0,66.0
405,140.6987229375,141.6600856125,60.0,65.0
406,139.06236093750002,141.6691765125,41.0,68.0
407,141.24417693750001,141.7544037,53.0,56.0
408,139.33508793750002,141.83167635,48.0,66.0
409,141.78963093750002,142.2919031625,60.0,69.0
410,141.78963093750002,142.3350849375,57.0,67.0
411,142.3350849375,143.3089476,62.0,64.0
412,142.3350849375,143.33167485,46.0,65.0
413,142.3350849375,143.37144753750002,65.0,77.0
414,142.8805389375,143.50553831250002,53.0,64.0
415,143.4259929375,143.9578105875,65.0,74.0
416,143.4259929375,143.99417418750002,62.0,63.0
417,143.97144693750002,144.79303702500002,48.0,70.0
418,144.5169009375,144.8623551375,64.0,62.0
419,144.24417393750002,144.86462786250001,55.0,65.0
420,144.7896279375,145.09871853750002,67.0,68.0
421,145.0623549375,145.2555365625,64.0,73.0
422,145.6078089375,146.72030782500002,57.0,58.0
423,145.6078089375,147.06348930000001,60.0,59.0
424,146.42598993750002,147.529397925,53.0,63.0
425,147.2441709375,148.2396244875,57.0,59.0
426,147.2441709375,148.2509881125,60.0,69.0
427,145.6078089375,148.3543971,41.0,76.0
428,145.8998541,148.41916976250002,48.0,52.0
429,146.9782621125,148.46916971250002,45.0,33.0
430,147.7896249375,148.5396241875,53.0,59.0
431,148.33507893750001,148.7543967,60.0,76.0
432,148.33507893750001,148.76348760000002,57.0,65.0
433,148.88053293750002,149.77485022500002,62.0,64.0
434,148.88053293750002,149.820304725,46.0,56.0
435,149.4259869375,149.83621380000002,50.0,81.0
436,148.88053293750002,149.8759864875,65.0,77.0
437,149.67939577500002,150.043031775,53.0,74.0
438,150.2055316125,150.40780413750002,65.0,67.0
439,149.9714409375,150.4168950375,62.0,67.0
440,151.06234893750002,151.40666677500002,60.0,59.0
441,150.78962193750002,151.60439385,55.0,60.0
442,150.5168949375,151.6816665,48.0,90.0
443,151.33507593750002,152.17712055,64.0,59.0
444,151.60780293750003,152.1828023625,67.0,73.0
445,152.6987109375,153.3032557875,52.0,69.0
446,152.1532569375,153.30439215,45.0,74.0
447,153.24416493750002,153.77825531250002,60.0,65.0
448,154.3350729375,154.8146179125,69.0,72.0
449,154.3350729375,154.8259815375,65.0,65.0
450,154.6077999375,155.0737085625,57.0,55.0
451,153.78961893750002,155.18734481250002,50.0,76.0
452,154.8805269375,155.41575367500002,65.0,79.0
453,154.8805269375,155.4350718375,69.0,75.0
454,155.42598093750001,156.29302552500002,62.0,62.0
455,155.97143493750002,156.48847987500002,50.0,90.0
456,155.42598093750001,156.51347985,65.0,75.0
457,155.42598093750001,156.5623434375,46.0,67.0
458,156.24416193750002,156.69757057500001,53.0,83.0
459,156.5168889375,157.0350702375,62.0,76.0
460,156.7896159375,157.07143383750002,65.0,73.0
461,157.6077969375,158.102114625,60.0,61.0
462,157.0623429375,158.2214326875,48.0,87.0
463,157.88052393750002,158.2850689875,64.0,68.0
464,158.15325093750002,158.57597778750002,67.0,72.0
465,157.3350699375,158.6237050125,55.0,60.0
466,158.69870493750003,159.48734051250003,65.0,64.0
467,159.5168859375,159.788476575,67.0,56.0
468,159.7896129375,160.0987035375,69.0,68.0
469,160.0623399375,160.3725669,67.0,64.0
470,158.69870493750003,160.88052093750002,50.0,81.0
471,160.88052093750002,161.36802045000002,50.0,83.0
472,160.33506693750002,161.611202025,66.0,81.0
473,161.4259749375,161.85779268750002,48.0,75.0
474,159.2441589375,161.9600653125,57.0,62.0
475,162.78960993750002,163.17710955,62.0,64.0
476,163.06233693750002,163.4100638625,65.0,87.0
477,162.51688293750001,163.47370016250002,53.0,60.0
478,162.2441559375,163.493018325,50.0,72.0
479,161.9714289375,163.6146091125,46.0,83.0
480,164.1532449375,164.5373354625,60.0,62.0
481,163.8805179375,164.69528985000002,55.0,59.0
482,163.6077909375,164.752107975,48.0,81.0
483,164.4259719375,164.78847157500002,64.0,65.0
484,164.6986989375,165.01574407500001,67.0,65.0
485,164.97142593750002,165.2691529125,64.0,72.0
486,165.24415293750002,166.35437910000002,45.0,75.0
487,165.78960693750003,166.3907427,57.0,63.0
488,166.0623339375,166.39983360000002,60.0,60.0
489,165.51687993750002,166.4077881375,52.0,61.0
490,166.3350609375,166.64301517500002,64.0,67.0
491,166.6077879375,166.9350603375,60.0,68.0
492,167.42596893750002,168.24301357500002,62.0,59.0
493,166.8805149375,168.5168769375,50.0,70.0
494,167.18846917500002,168.5168769375,57.0,57.0
495,167.97142293750002,168.5634678,65.0,86.0
496,168.24414993750003,168.59187686250002,69.0,64.0
497,169.3350579375,169.64869398750002,62.0,58.0
498,168.5168769375,169.779375675,46.0,63.0
499,168.7896039375,169.80778473750001,50.0,63.0
500,169.6077849375,169.87596648750002,65.0,68.0
501,169.88051193750002,170.15778438750002,62.0,74.0
502,170.69869293750003,171.07482892500002,60.0,61.0
503,170.42596593750002,171.14073795000002,55.0,62.0
504,170.15323893750002,171.22482877500002,48.0,83.0
505,170.9714199375,171.44641946250002,64.0,63.0
506,171.2441469375,171.48051033750002,67.0,67.0
507,171.7896009375,172.73619090000003,57.0,61.0
508,171.7896009375,172.78505448750002,60.0,64.0
509,172.5714183375,172.9327816125,53.0,51.0
510,172.88050893750003,173.34528120000002,57.0,63.0
511,172.88050893750003,173.37937207500002,60.0,65.0
512,173.1532359375,173.58391732500002,53.0,58.0
513,173.4259629375,174.35778018750003,57.0,68.0
514,173.4259629375,174.365734725,60.0,71.0
515,173.9714169375,174.39528015000002,53.0,49.0
516,171.7896009375,174.42368921250002,41.0,63.0
517,172.33505493750002,174.53164365,48.0,77.0
518,174.51687093750002,175.024824975,60.0,86.0
519,174.51687093750002,175.047552225,57.0,83.0
520,175.06232493750002,176.14073295,46.0,85.0
521,175.87255140000002,176.14982385000002,62.0,65.0
522,175.33505193750003,176.26686918750002,50.0,67.0
523,175.6077789375,176.32709640000002,53.0,67.0
524,176.1532329375,176.51686893750002,65.0,85.0
525,176.4259599375,176.7361869,62.0,69.0
526,177.24414093750002,177.6805041375,60.0,61.0
527,176.97141393750002,177.818004,55.0,61.0
528,177.51686793750002,177.870276675,64.0,67.0
529,176.6986869375,177.9123220875,48.0,90.0
530,177.78959493750003,178.02141288750002,67.0,83.0
531,178.8805029375,179.38277516250002,57.0,59.0
532,178.3350489375,179.49186596250001,61.0,82.0
533,178.3350489375,179.50891140000002,45.0,63.0
534,179.15322993750002,179.5736840625,49.0,64.0
535,178.6077759375,179.62141128750002,52.0,67.0
536,179.42595693750002,179.724820275,64.0,75.0
537,179.69868393750002,179.883911025,61.0,75.0
538,180.5168649375,180.93618270000002,62.0,61.0
539,180.7895919375,180.961182675,65.0,79.0
540,180.24413793750003,181.06800075,57.0,65.0
541,179.97141093750002,181.14981885,50.0,70.0
542,181.0623189375,181.23731876250002,69.0,63.0
543,181.3350459375,181.5123184875,65.0,70.0
544,181.60777293750002,182.73049908750002,43.0,75.0
545,182.15322693750002,182.7725445,50.0,63.0
546,181.88049993750002,182.8395898875,46.0,74.0
547,182.42595393750003,182.88618075000002,55.0,59.0
548,182.9714079375,183.2327713125,62.0,72.0
549,182.6986809375,183.2827712625,58.0,64.0
550,183.7895889375,184.06913411250002,65.0,65.0
551,183.7895889375,184.09640681250002,62.0,67.0
552,184.06231593750002,184.42936102500002,57.0,54.0
553,183.2441349375,184.56913361250002,45.0,72.0
554,183.5168619375,184.6089063,52.0,45.0
555,184.33504293750002,184.8327697125,64.0,74.0
556,184.33504293750002,184.84981515,60.0,68.0
557,185.4259509375,185.86913231250003,58.0,60.0
558,185.6986779375,185.86913231250003,62.0,63.0
559,185.9714049375,186.274813725,65.0,75.0
560,184.88049693750003,186.52254075000002,46.0,67.0
561,186.2486773875,186.53504073750003,58.0,67.0
562,185.1532239375,186.59072250000003,53.0,68.0
563,187.33958538750002,187.60094876250002,60.0,66.0
564,187.06231293750002,187.67253960000002,56.0,72.0
565,187.8804939375,188.01231198750003,60.0,33.0
566,186.78958593750002,188.03276651250002,51.0,42.0
567,187.6077669375,188.05435740000001,63.0,104.0
568,186.51685893750002,188.09526645000003,44.0,85.0
569,188.1532209375,188.94412923750002,59.0,60.0
570,188.1532209375,188.95435650000002,62.0,74.0
571,188.69867493750002,189.22708350000002,55.0,58.0
572,188.97140193750002,189.77253750000003,62.0,83.0
573,188.1532209375,189.78958293750003,43.0,71.0
574,189.3804924375,189.78958293750003,55.0,52.0
575,188.97140193750002,189.79981020000002,59.0,69.0
576,188.4259479375,189.824810175,50.0,74.0
577,189.78958293750003,190.78276376250002,57.0,68.0
578,189.78958293750003,190.79980920000003,61.0,95.0
579,190.8804909375,191.23162695000002,61.0,114.0
580,189.78958293750003,191.23617240000002,42.0,77.0
581,190.0623099375,191.2963996125,49.0,66.0
582,190.8804909375,191.306626875,57.0,70.0
583,190.3350369375,191.33276321250003,54.0,59.0
584,191.97139893750003,192.272535,53.0,59.0
585,191.42594493750002,192.93162525000002,41.0,74.0
586,192.5168529375,193.00776153750002,53.0,67.0
587,191.69867193750002,193.0623069375,48.0,63.0
588,192.2441259375,193.06344330000002,56.0,74.0
589,193.60776093750002,193.96344240000002,53.0,69.0
590,193.88048793750002,194.3998056,57.0,63.0
591,194.15321493750002,194.6441235375,60.0,61.0
592,193.0623069375,194.66457806250003,41.0,87.0
593,194.42594193750003,194.67707805,53.0,59.0
594,193.33503393750001,194.6986689375,48.0,81.0
595,195.2441229375,195.84184961250003,58.0,57.0
596,195.5168499375,195.8816223,62.0,60.0
597,195.78957693750002,196.24753102500003,65.0,90.0
598,196.06230393750002,196.47366716250002,58.0,59.0
599,196.33503093750002,196.94525760000002,65.0,90.0
600,196.33503093750002,197.32480267500003,62.0,86.0
601,194.6986689375,197.8486657875,46.0,90.0
602,194.9713959375,197.8600294125,53.0,60.0
603,197.4259389375,197.90207482500003,62.0,100.0
604,197.4259389375,197.92366571250002,70.0,100.0
605,196.88048493750003,197.93957478750002,58.0,59.0
606,197.9713929375,198.92707380000002,64.0,93.0
607,199.06230093750003,199.54070955,64.0,93.0
608,198.78957393750002,204.03047778750002,59.0,51.0
609,198.24411993750002,204.06456866250002,51.0,61.0
610,198.51684693750002,204.0736595625,54.0,67.0
611,199.6077549375,204.09752317500002,63.0,104.0
612,197.9713929375,204.13729586250003,47.0,87.0
613,204.5168409375,205.61911256250002,48.0,86.0
614,205.0622949375,205.70888520000003,60.0,51.0
615,204.7895679375,206.0782030125,55.0,67.0
616,205.33502193750002,206.20433925,64.0,56.0
617,205.60774893750002,206.23729376250003,67.0,73.0
618,206.6986569375,207.15888375000003,62.0,62.0
619,206.15320293750003,207.2668381875,50.0,75.0
620,206.42592993750003,207.28501998750002,57.0,60.0
621,207.2441109375,207.7941103875,69.0,74.0
622,206.9713839375,207.7997922,66.0,52.0
623,208.33501893750002,208.638427725,62.0,62.0
624,208.60774593750003,208.87706385,66.0,90.0
625,208.88047293750003,209.20092716250002,62.0,85.0
626,208.06229193750002,209.41115422500002,54.0,60.0
627,207.78956493750002,209.4259269375,47.0,58.0
628,209.1531999375,209.45888145,66.0,69.0
629,209.4259269375,209.6600176125,79.0,95.0
630,209.60092676250002,209.8872901125,78.0,61.0
631,209.7816084,210.00660817500003,74.0,69.0
632,209.97138093750002,210.12251715000002,69.0,72.0
633,210.18274436250002,210.33842602500002,67.0,69.0
634,210.3804714375,210.55888035,66.0,64.0
635,210.51683493750002,210.8531982375,64.0,79.0
636,210.51683493750002,210.9077436375,47.0,93.0
637,209.97138093750002,210.97251630000002,52.0,68.0
638,209.4259269375,210.98387992500002,40.0,68.0
639,211.06228893750003,211.797515475,67.0,76.0
640,211.06228893750003,212.01569707500002,64.0,74.0
641,211.6077429375,212.16115147500003,60.0,58.0
642,212.1531969375,212.37819671250003,64.0,86.0
643,212.1531969375,212.40887850000001,67.0,83.0
644,211.06228893750003,212.447514825,48.0,87.0
645,211.3350159375,212.6906964,55.0,60.0
646,212.42251485000003,212.72024182500002,60.0,51.0
647,212.69865093750002,213.39978660000003,69.0,83.0
648,212.69865093750002,213.53274101250003,66.0,85.0
649,213.51683193750003,213.64751362500002,69.0,50.0
650,213.24410493750003,213.70546811250003,62.0,60.0
651,212.97137793750002,213.81114982500003,57.0,59.0
652,212.69865093750002,213.85887705000002,50.0,90.0
653,213.7895589375,213.8691043125,69.0,79.0
654,213.7895589375,213.91683153750003,66.0,93.0
655,214.3350129375,214.58842177500003,43.0,86.0
656,214.3350129375,214.75887615000002,55.0,86.0
657,214.3350129375,214.811148825,59.0,86.0
658,214.3350129375,214.81455791250002,62.0,86.0
659,214.88046693750002,215.0168304375,43.0,87.0
660,214.88046693750002,215.0168304375,43.0,87.0
661,214.88046693750002,215.0168304375,59.0,87.0
662,214.88046693750002,215.02023952500002,62.0,87.0
663,214.88046693750002,215.0554667625,55.0,87.0
664,216.5168289375,216.98728301250003,64.0,100.0
665,216.5168289375,216.99864663750003,52.0,79.0
666,217.05887385000003,217.5725097,62.0,74.0
667,217.05887385000003,217.611146025,47.0,85.0
668,217.60773693750002,218.58955413750002,67.0,87.0
669,217.60773693750002,218.59637231250002,64.0,83.0
670,217.60773693750002,219.0100082625,48.0,81.0
671,218.6986449375,219.0645536625,64.0,76.0
672,218.6986449375,219.065690025,72.0,72.0
673,218.6986449375,219.0827354625,67.0,83.0
674,218.15319093750003,219.09523545000002,60.0,59.0
675,217.88046393750002,219.28387162500002,55.0,60.0
676,219.2440989375,220.10773443750003,66.0,112.0
677,219.2440989375,220.13955258750002,69.0,65.0
678,219.78955293750002,220.24409793750002,62.0,65.0
679,219.78955293750002,220.3815978,54.0,69.0
680,219.51682593750002,220.38955233750002,57.0,60.0
681,219.2440989375,220.40773413750003,50.0,87.0
682,220.33500693750003,220.96114267500002,66.0,100.0
683,220.8804609375,220.96114267500002,66.0,83.0
684,220.8804609375,221.46114217500002,71.0,95.0
685,220.8804609375,221.53159665,63.0,63.0
686,221.4259149375,221.81341455,54.0,73.0
687,221.1531879375,221.82818726250002,51.0,63.0
688,221.6986419375,221.96227803750003,71.0,30.0
689,221.6986419375,222.08273246250002,66.0,66.0
690,221.6986419375,222.09636881250003,63.0,74.0
691,221.97136893750002,222.48955023750003,51.0,77.0
692,221.97136893750002,222.49977750000002,54.0,77.0
693,220.8804609375,222.54409563750002,47.0,74.0
694,222.51682293750002,223.13273141250002,55.0,61.0
695,222.51682293750002,223.1463677625,64.0,75.0
696,222.51682293750002,223.16114047500002,59.0,70.0
697,223.06227693750003,223.43386747500003,52.0,64.0
698,223.19864043750002,223.6304581875,55.0,61.0
699,223.3350039375,223.64977635000002,59.0,59.0
700,223.6077309375,223.88613975,52.0,66.0
701,222.78954993750003,223.88954883750003,47.0,59.0
702,222.51682293750002,223.9634124,40.0,65.0
703,223.74409443750002,224.08159410000002,55.0,64.0
704,223.8804579375,224.1804576375,64.0,63.0
705,224.15318493750001,224.1804576375,64.0,74.0
706,223.8804579375,224.18613945,59.0,63.0
707,224.69863893750002,225.04977495000003,57.0,63.0
708,224.15318493750001,225.05886585000002,60.0,67.0
709,224.15318493750001,225.079320375,69.0,76.0
710,224.15318493750001,225.452047275,45.0,77.0
711,224.97136593750002,225.65318343750002,48.0,59.0
712,225.38045643750002,225.67136523750003,57.0,63.0
713,224.42591193750002,225.756592425,52.0,62.0
714,225.24409293750003,225.8122741875,64.0,87.0
715,225.24409293750003,225.87477412500002,69.0,79.0
716,225.24409293750003,225.95431950000003,60.0,87.0
717,226.3350009375,226.74181871250002,62.0,68.0
718,226.3350009375,226.80431865000003,66.0,72.0
719,226.02250125,227.188409175,54.0,68.0
720,225.7895469375,227.19636371250002,47.0,80.0
721,226.60772793750002,227.2395454875,59.0,58.0
722,226.88045493750002,227.3179545,66.0,93.0
723,226.88045493750002,227.34295447500003,62.0,76.0
724,227.9713629375,228.50431695000003,52.0,69.0
725,228.10772643750002,228.90658927500002,55.0,64.0
726,228.7895439375,229.16908901250002,52.0,75.0
727,229.33499793750002,229.48727051250003,52.0,60.0
728,229.06227093750002,230.05090631250002,55.0,53.0
729,229.06227093750002,230.07022447500003,64.0,86.0
730,228.5168169375,230.0815881,59.0,70.0
731,227.42590893750003,230.2270425,40.0,71.0
732,227.69863593750003,230.36795145000002,47.0,63.0
733,229.60772493750002,230.4327241125,52.0,75.0
734,230.15317893750003,230.48045133750003,55.0,85.0
735,230.15317893750003,230.4872695125,59.0,93.0
736,230.15317893750003,230.4997695,64.0,95.0
737,231.51681393750002,231.60772293750003,72.0,61.0
738,231.51681393750002,231.62931382500003,67.0,58.0
739,231.51681393750002,231.66113197500002,64.0,61.0
740,231.24408693750001,231.89635901250003,60.0,65.0
741,230.6986329375,232.01113162500002,48.0,79.0
742,231.78954093750002,232.0531770375,64.0,90.0
743,231.78954093750002,232.05658612500002,67.0,95.0
744,231.78954093750002,232.07931337500003,72.0,90.0
745,230.9713599375,232.3099949625,55.0,61.0
746,232.06226793750002,232.3361313,60.0,67.0
747,232.33499493750003,233.25885765,69.0,86.0
748,232.33499493750003,233.28613035,66.0,90.0
749,232.33499493750003,233.30999396250002,74.0,79.0
750,232.8804489375,233.42817566250002,62.0,70.0
751,232.60772193750003,233.47363016250003,57.0,60.0
752,232.33499493750003,233.53953918750003,50.0,86.0
753,233.1531759375,233.55885735,54.0,85.0
754,233.4259029375,233.95090241250003,74.0,83.0
755,233.4259029375,233.96226603750003,69.0,87.0
756,233.4259029375,234.00544781250002,66.0,104.0
757,234.51681093750003,234.7463561625,71.0,67.0
758,234.51681093750003,234.81453791250001,66.0,72.0
759,234.51681093750003,234.85658332500003,63.0,87.0
760,233.97135693750002,235.224764775,47.0,85.0
761,234.51681093750003,235.24862838750002,54.0,63.0
762,234.24408393750002,235.30544651250003,51.0,81.0
763,235.06226493750003,235.5849916875,71.0,77.0
764,235.06226493750003,235.59976440000003,66.0,76.0
765,235.06226493750003,235.62021892500002,63.0,98.0
766,236.42589993750002,236.66112697500003,66.0,74.0
767,236.15317293750002,236.84180861250002,64.0,65.0
768,236.69862693750002,237.11112652500003,67.0,76.0
769,236.97135393750003,237.19976280000003,69.0,79.0
770,237.24408093750003,238.24748902500002,79.0,52.0
771,237.24408093750003,238.261125375,83.0,77.0
772,237.24408093750003,238.88044293750002,71.0,90.0
773,237.24408093750003,238.9940791875,64.0,62.0
774,235.8804459375,239.03044278750002,59.0,58.0
775,238.79862483750003,239.0327155125,79.0,46.0
776,238.838397525,239.061124575,83.0,73.0
777,238.90885200000002,239.66339670000002,88.0,72.0
778,235.6077189375,240.2827142625,52.0,73.0
779,244.33498293750003,245.56111807500002,76.0,51.0
780,244.33498293750003,245.68384522500003,81.0,59.0
781,244.33498293750003,245.774754225,57.0,63.0
782,244.8804369375,245.87134503750002,69.0,56.0
783,244.60770993750003,245.97134493750002,64.0,53.0
784,244.33498293750003,246.1190720625,72.0,49.0
785,246.24407193750002,248.0077065375,62.0,60.0
786,245.97134493750002,248.05543376250003,59.0,70.0
787,246.24407193750002,248.14179731250002,78.0,59.0
788,245.97134493750002,248.15316093750002,74.0,64.0
789,248.15316093750002,248.63611500000002,88.0,69.0
790,248.69861493750003,248.9508874125,83.0,69.0
791,248.97134193750003,249.25202347500002,81.0,58.0
792,249.24406893750003,249.49406868750003,83.0,72.0
793,249.5167959375,249.83156835000003,79.0,58.0
794,249.7895229375,250.76565832500003,81.0,73.0
795,250.33497693750002,250.88611275000002,78.0,79.0
796,248.15316093750002,251.39633951250002,64.0,72.0
797,250.88043093750002,251.415657675,74.0,63.0
798,251.9713389375,252.69747457500003,64.0,60.0
799,251.42588493750003,253.68383722500002,76.0,75.0
800,253.33383757500002,253.68383722500002,76.0,61.0
801,253.06224693750002,253.75088261250002,64.0,58.0
802,252.4997475,256.64974335,71.0,63.0
803,256.088380275,256.64974335,71.0,58.0
804,251.69861193750003,256.7508796125,59.0,58.0
805,252.23952048750002,256.7645159625,67.0,57.0
806,251.42588493750003,256.79519775,52.0,67.0
807,255.36224463750003,256.90201582500003,79.0,50.0
808,255.42474457500003,256.920197625,83.0,66.0
809,255.420199125,256.9281521625,64.0,74.0
810,257.8667875875,258.94974105,69.0,52.0
811,257.25997001250005,258.9531501375,81.0,63.0
812,257.22474277500004,258.95883195000005,62.0,76.0
813,257.2554245625,259.00087736250003,78.0,59.0
814,258.9270138,259.64405853750003,71.0,50.0
815,258.90087746250003,259.71224028750004,74.0,66.0
816,259.4849677875,260.08610355,67.0,49.0
817,260.26905791250005,260.6724666,67.0,56.0
818,260.00201272500004,261.54973845,74.0,62.0
819,258.91337745000004,261.561102075,55.0,68.0
820,261.115647975,261.63496563750004,67.0,58.0
821,259.19974080000003,261.6508747125,62.0,61.0
822,260.5076940375,261.71110192500004,79.0,76.0
823,259.7167857375,262.1599651125,71.0,63.0
824,261.64405653750003,262.16791965000004,74.0,60.0
825,262.1724651,263.3713275375,60.0,74.0
826,262.73496453750005,263.37587298750003,72.0,58.0
827,262.42246485000004,263.74064535,67.0,65.0
828,262.997464275,263.87700885000004,76.0,54.0
829,263.2713276375,263.88609975,79.0,71.0
830,264.3849628875,264.970189575,74.0,60.0
831,264.092917725,265.015644075,69.0,63.0
832,264.692917125,265.056553125,66.0,67.0
833,263.7940543875,265.0917803625,62.0,75.0
834,265.2281438625,265.4735981625,81.0,73.0
835,264.93155325000004,265.4849617875,78.0,54.0
836,266.0917793625,266.72132418750004,67.0,52.0
837,266.3451882,266.85882405,69.0,59.0
838,266.61905156250003,267.4360962,71.0,62.0
839,267.41791440000003,267.99632291250003,72.0,73.0
840,265.4906436,268.588367775,55.0,70.0
841,265.78609785000003,268.60882230000004,62.0,57.0
842,266.90882400000004,268.6258677375,67.0,58.0
843,268.0054138125,269.1463217625,71.0,74.0
844,269.74973025,270.41791140000004,72.0,58.0
845,269.1440490375,270.44972955000003,60.0,77.0
846,269.4485941875,270.7485928875,67.0,60.0
847,270.00541181250003,270.8781382125,76.0,64.0
848,270.2872297125,270.90541091250003,79.0,72.0
849,271.3985922375,271.9804098375,74.0,60.0
850,271.10654707500004,272.07131883750003,69.0,58.0
851,271.6554101625,272.09518245000004,66.0,36.0
852,270.7997292,272.11336425,62.0,69.0
853,271.96109167500003,272.45881845,78.0,62.0
854,272.2349550375,272.50540931250003,81.0,61.0
855,273.41336295,273.7088172,74.0,53.0
856,273.07131783750003,273.95995331250003,66.0,68.0
857,272.51336385,273.97358966250005,59.0,68.0
858,272.79290902500003,274.0633623,62.0,63.0
859,273.66108997500004,274.1985894375,78.0,81.0
860,274.9906341,275.2758610875,78.0,58.0
861,274.724725275,275.356542825,76.0,60.0
862,274.4451801,275.851996875,71.0,62.0
863,274.1644985625,275.8667695875,64.0,61.0
864,275.27131563750004,275.93836042500004,79.0,76.0
865,275.88040593750003,277.07699565,57.0,60.0
866,276.4644962625,277.1179047,69.0,53.0
867,276.1667692875,277.4508589125,64.0,65.0
868,277.0179048,277.6758586875,76.0,62.0
869,276.733814175,277.683813225,72.0,60.0
870,277.5985860375,279.0451755,59.0,61.0
871,278.13835822500005,279.09403908750005,62.0,58.0
872,278.7076758375,279.2849479875,78.0,63.0
873,280.17812891250003,280.4644922625,78.0,66.0
874,280.83494643750004,281.13494613750004,78.0,54.0
875,281.18040063750004,282.3735812625,79.0,44.0
876,279.90199282500004,283.1099441625,76.0,58.0
877,279.62472037500004,283.1713077375,71.0,61.0
878,279.3190388625,283.1758531875,64.0,60.0
879,283.82130708750003,285.829259625,76.0,50.0
880,283.8394888875,285.83266871250004,60.0,60.0
881,284.9724423,285.8394868875,79.0,56.0
882,284.63494263750005,285.85312323750003,72.0,51.0
883,284.25767028750005,285.897441375,67.0,57.0
884,286.5258498375,291.04061805000003,81.0,10.0
885,287.024712975,291.04289077500005,74.0,63.0
886,286.315622775,291.083799825,62.0,62.0
887,287.34062175,291.10766343750004,86.0,73.0
888,286.73266781250004,291.10993616250005,69.0,60.0
889,286.28948643750005,291.12925432500003,78.0,59.0
890,292.13948058750003,292.65879825,64.0,61.0
891,293.0485705875,293.688342675,64.0,58.0
892,294.4451601,294.84175061250005,78.0,54.0
893,293.39743387500005,295.11675033750004,74.0,58.0
894,294.83834152500003,296.9906121,79.0,52.0
895,292.3349349375,297.3644753625,67.0,56.0
896,292.65084371250003,297.4360662,71.0,62.0
897,296.5303852875,297.5803842375,91.0,77.0
898,293.97129693750003,297.59174786250003,64.0,59.0
899,291.8349354375,297.7894749375,59.0,61.0
900,291.55311753750004,299.33606430000003,52.0,67.0
901,297.42697530000004,301.9190162625,79.0,58.0
902,297.497429775,302.0087889,83.0,77.0
903,297.60652057500005,302.03833432500005,88.0,61.0
904,298.6417468125,302.54742472500004,67.0,1.0
905,297.76788405,302.55878835000004,64.0,38.0
906,297.71674773750004,302.55878835000004,71.0,59.0
907,297.73833862500004,302.60197012500004,28.0,39.0
