,start,end,pitch,velocity
0,28.9080246375,29.04405375,65.0,91.0
1,29.1286123875,29.319788437499998,65.0,88.0
2,29.3492001375,29.67824353125,74.0,95.0
3,29.7903756375,30.50912405625,74.0,97.0
4,30.6727266375,30.961328943749997,74.0,92.0
5,31.1139021375,31.452136687499998,74.0,92.0
6,31.5550776375,31.92456211875,77.0,80.0
7,31.9962531375,32.35470823125,72.0,91.0
8,32.4374286375,32.77750141875,69.0,90.0
9,32.8786041375,34.59735035625,70.0,87.0
10,35.9668326375,36.095508824999996,67.0,91.0
11,36.1874203875,36.369405281249996,67.0,91.0
12,36.4080081375,36.757272074999996,75.0,89.0
13,36.8491836375,37.5182998125,75.0,93.0
14,37.7315346375,38.021975175,79.0,88.0
15,38.1727101375,38.51645938125,79.0,91.0
16,38.6138856375,38.90616440625,77.0,92.0
17,39.0550611375,39.46866316875,72.0,91.0
18,39.4962366375,39.86755935,77.0,74.0
19,39.9374121375,41.68189359375,74.0,98.0
20,43.0256406375,43.1359345125,74.0,96.0
21,43.2462283875,43.39696335,74.0,95.0
22,43.4668161375,43.7829919125,79.0,92.0
23,43.9079916375,44.637769443749995,79.0,91.0
24,44.7903426375,45.124900724999996,77.0,90.0
25,45.2315181375,46.060560431249996,79.0,90.0
26,46.1138691375,46.49070654375,77.0,80.0
27,46.555044637499996,46.843646943749995,74.0,93.0
28,46.996220137499996,47.297690062499996,77.0,89.0
29,47.437395637499996,47.7756301875,75.0,92.0
30,47.878571137499996,48.192908681249996,75.0,93.0
31,48.319746637499996,48.62673125625,74.0,93.0
32,48.760922137499996,49.670846606249995,67.0,82.0
33,50.084448637499996,50.213124825,67.0,91.0
34,50.305036387499996,50.4888595125,67.0,83.0
35,50.525624137499996,50.8417999125,75.0,91.0
36,50.966799637499996,51.6469452,75.0,92.0
37,51.849150637499996,52.1579734875,67.0,92.0
38,52.290326137499996,52.62672245625,74.0,95.0
39,52.731501637499996,53.007236325,72.0,92.0
40,53.172677137499996,53.5550292375,72.0,92.0
41,53.613852637499996,53.74988175,69.0,92.0
42,53.834440387499995,55.6763481,70.0,91.0
43,57.143256637499995,57.27928575,65.0,91.0
44,57.363844387499995,57.5550204375,65.0,88.0
45,57.584432137499995,57.91347553125,74.0,95.0
46,58.025607637499995,58.74435605625,74.0,97.0
47,58.907958637499995,59.19656094375,74.0,92.0
48,59.349134137499995,59.6873686875,74.0,92.0
49,59.790309637499995,60.15979411875,72.0,80.0
50,60.231485137499995,60.58994023125,70.0,91.0
51,60.672660637499995,61.012733418749995,69.0,90.0
52,61.113836137499995,62.83258235625,70.0,87.0
53,64.2020646375,64.33074082499999,67.0,91.0
54,64.4226523875,64.60463728124999,67.0,91.0
55,64.6432401375,64.992504075,75.0,89.0
56,65.0844156375,65.7535318125,75.0,93.0
57,65.9667666375,66.25720717499999,79.0,88.0
58,66.4079421375,66.75169138125,77.0,91.0
59,67.2902931375,67.5108808875,72.0,91.0
60,67.5108808875,67.7314686375,72.0,91.0
61,67.7314686375,68.10279135,77.0,74.0
62,68.1726441375,69.91712559375,74.0,98.0
63,71.2608726375,71.3711665125,74.0,96.0
64,71.4814603875,71.63219535,74.0,95.0
65,71.7020481375,72.01822391249999,79.0,92.0
66,72.1432236375,72.87300144375,79.0,91.0
67,73.0255746375,73.360132725,77.0,90.0
68,73.4667501375,74.29579243124999,79.0,90.0
69,74.3491011375,74.72593854375,77.0,80.0
70,74.7902766375,75.07887894375,74.0,93.0
71,75.2314521375,75.53292206249999,77.0,89.0
72,75.6726276375,76.0108621875,75.0,92.0
73,76.1138031375,76.42814068125,75.0,93.0
74,76.5549786375,76.86196325625,74.0,93.0
75,76.9961541375,77.90607860624999,67.0,82.0
76,78.3196806375,78.44835682499999,67.0,91.0
77,78.54026838749999,78.7240915125,67.0,83.0
78,78.7608561375,79.6432071375,75.0,91.0
79,80.0843826375,80.3932054875,67.0,92.0
80,80.5255581375,80.86195445625,74.0,95.0
81,81.4079091375,81.76636423125,72.0,87.0
82,81.8490846375,81.96856966874999,65.0,93.0
83,82.06967238749999,82.2093779625,65.0,82.0
84,82.2902601375,82.624818225,72.0,91.0
85,82.7314356375,84.71672538749999,70.0,93.0
86,84.9373131375,85.2608418375,75.0,93.0
87,85.3784886375,85.6762821,77.0,91.0
88,85.8196641375,86.12297229375,79.0,92.0
89,86.2608396375,86.54760371249999,79.0,92.0
90,86.7020151375,86.9740733625,79.0,93.0
91,87.1431906375,87.28289621249999,75.0,97.0
92,87.36377838749999,87.48326341875,74.0,93.0
93,87.5843661375,88.45384951874999,72.0,95.0
94,88.9078926375,89.2681859625,79.0,87.0
95,89.3490681375,89.69649384374999,77.0,92.0
96,89.7902436375,89.9115669,77.0,85.0
97,90.01083138749999,90.1358311125,77.0,83.0
98,90.2314191375,90.5549478375,77.0,92.0
99,90.6725946375,90.81046198125,74.0,91.0
100,90.89318238749999,91.0034762625,72.0,87.0
101,91.1137701375,91.94281243124999,70.0,84.0
102,92.4372966375,92.55678166874999,72.0,96.0
103,92.65788438749999,92.771854725,74.0,96.0
104,92.8784721375,93.17442736875,75.0,93.0
105,93.3196476375,93.45935321249999,75.0,87.0
106,93.54023538749999,93.67258803749999,75.0,87.0
107,93.7608231375,94.0990576875,75.0,96.0
108,94.2019986375,94.51265971875,74.0,97.0
109,94.6431741375,95.14317303749999,72.0,90.0
110,95.0843496375,95.76265696875,70.0,91.0
111,95.9667006375,96.20015600625,70.0,94.0
112,96.20015600625,96.3416998125,72.0,92.0
113,96.4446407625,96.61375803749999,74.0,94.0
114,96.73691953125,96.88397803125,74.0,95.0
115,96.98875721249999,97.15603625624999,74.0,92.0
116,97.2608154375,97.4740502625,74.0,96.0
117,97.57699121249999,97.7608143375,74.0,93.0
118,97.86926998125,98.06779895625,75.0,92.0
119,98.16522521249999,99.13029661875,77.0,92.0
120,99.4961046375,99.65235429375,75.0,92.0
121,99.71669238749999,99.84904503749999,77.0,92.0
122,99.9372801375,100.24794121875,79.0,86.0
123,100.3784556375,100.70566079999999,79.0,92.0
124,100.8196311375,101.11742459999999,79.0,91.0
125,101.2608066375,101.49242377499999,75.0,95.0
126,101.48139438749999,101.63396758124999,74.0,87.0
127,101.7019821375,102.60455368125,72.0,91.0
128,103.0255086375,103.44646359375,79.0,91.0
129,103.4666841375,103.75896290624999,77.0,93.0
130,103.9078596375,104.20749133125,77.0,93.0
131,104.3490351375,104.551240575,77.0,95.0
132,104.68175499374999,104.830651725,74.0,98.0
133,104.99057784375,105.16704804375,77.0,93.0
134,105.2828566125,106.32881019375,79.0,93.0
135,106.5549126375,106.8637354875,77.0,90.0
136,106.9960881375,107.3416756125,75.0,92.0
137,107.4372636375,107.73505709999999,74.0,92.0
138,107.8784391375,108.19093844999999,75.0,87.0
139,108.3196146375,108.6762315,70.0,91.0
140,108.7607901375,109.48689148125,74.0,93.0
141,109.6431411375,110.01997854375,72.0,95.0
142,110.0843166375,110.4115218,69.0,88.0
143,110.5254921375,113.2901919375,70.0,93.0
144,141.8489526375,141.98498175,65.0,91.0
145,142.06954038749998,142.2607164375,65.0,88.0
146,142.2901281375,142.61917153125,74.0,95.0
147,142.7313036375,143.45005205625,74.0,97.0
148,143.6136546375,143.90225694375,74.0,92.0
149,144.0548301375,144.3930646875,74.0,92.0
150,144.4960056375,144.86549011875,77.0,80.0
151,144.9371811375,145.29563623125,72.0,91.0
152,145.3783566375,145.71842941875,69.0,90.0
153,145.8195321375,147.53827835625,70.0,87.0
154,148.9077606375,149.03643682499998,67.0,91.0
155,149.12834838749998,149.31033328125,67.0,91.0
156,149.3489361375,149.698200075,75.0,89.0
157,149.7901116375,150.4592278125,75.0,93.0
158,150.6724626375,150.962903175,79.0,88.0
159,151.1136381375,151.45738738125,79.0,91.0
160,151.5548136375,151.84709240625,77.0,92.0
161,151.9959891375,152.40959116874998,72.0,91.0
162,152.4371646375,152.80848735,77.0,74.0
163,152.8783401375,154.62282159375,74.0,98.0
164,155.9665686375,156.07686251249999,74.0,96.0
165,156.18715638749998,156.33789135,74.0,95.0
166,156.4077441375,156.7239199125,79.0,92.0
167,156.8489196375,157.57869744375,79.0,91.0
168,157.7312706375,158.065828725,77.0,90.0
169,158.1724461375,159.00148843124998,79.0,90.0
170,159.0547971375,159.43163454375,77.0,80.0
171,159.4959726375,159.78457494375,74.0,93.0
172,159.9371481375,160.2386180625,77.0,89.0
173,160.3783236375,160.7165581875,75.0,92.0
174,160.8194991375,161.13383668125,75.0,93.0
175,161.2606746375,161.56765925624998,74.0,93.0
176,161.7018501375,162.61177460624998,67.0,82.0
177,163.0253766375,163.154052825,67.0,91.0
178,163.24596438749998,163.42978751249998,67.0,83.0
179,163.4665521375,163.7827279125,75.0,91.0
180,163.9077276375,164.5878732,75.0,92.0
181,164.7900786375,165.0989014875,67.0,92.0
182,165.2312541375,165.56765045625,74.0,95.0
183,165.6724296375,165.948164325,72.0,92.0
184,166.1136051375,166.4959572375,72.0,92.0
185,166.5547806375,166.69080975,69.0,92.0
186,166.77536838749998,168.6172761,70.0,91.0
187,170.0841846375,170.22021375,65.0,91.0
188,170.30477238749998,170.4959484375,65.0,88.0
189,170.5253601375,170.85440353125,74.0,95.0
190,170.9665356375,171.68528405625,74.0,97.0
191,171.8488866375,172.13748894375,74.0,92.0
192,172.2900621375,172.62829668749998,74.0,92.0
193,172.7312376375,173.10072211874999,72.0,80.0
194,173.1724131375,173.53086823125,70.0,91.0
195,173.6135886375,173.95366141875,69.0,90.0
196,174.0547641375,175.77351035625,70.0,87.0
197,177.1429926375,177.271668825,67.0,91.0
198,177.3635803875,177.54556528125,67.0,91.0
199,177.5841681375,177.93343207499998,75.0,89.0
200,178.0253436375,178.69445981249999,75.0,93.0
201,178.9076946375,179.198135175,79.0,88.0
202,179.3488701375,179.69261938124998,77.0,91.0
203,180.2312211375,180.4518088875,72.0,91.0
204,180.4518088875,180.6723966375,72.0,91.0
205,180.6723966375,181.04371935,77.0,74.0
206,181.1135721375,182.85805359375,74.0,98.0
207,184.20180063749999,184.31209451249998,74.0,96.0
208,184.4223883875,184.57312335,74.0,95.0
209,184.6429761375,184.9591519125,79.0,92.0
210,185.08415163749999,185.81392944375,79.0,91.0
211,185.96650263749999,186.30106072499999,77.0,90.0
212,186.4076781375,187.23672043125,79.0,90.0
213,187.2900291375,187.66686654375,77.0,80.0
214,187.73120463749999,188.01980694374998,74.0,93.0
215,188.1723801375,188.4738500625,77.0,89.0
216,188.61355563749999,188.9517901875,75.0,92.0
217,189.0547311375,189.36906868124998,75.0,93.0
218,189.49590663749998,189.80289125625,74.0,93.0
219,189.9370821375,190.84700660625,67.0,82.0
220,191.26060863749998,191.389284825,67.0,91.0
221,191.4811963875,191.66501951249998,67.0,83.0
222,191.7017841375,192.5841351375,75.0,91.0
223,193.02531063749998,193.3341334875,67.0,92.0
224,193.4664861375,193.80288245625,74.0,95.0
225,194.3488371375,194.70729223125,72.0,87.0
226,194.79001263749998,194.90949766875,65.0,93.0
227,195.0106003875,195.1503059625,65.0,82.0
228,195.2311881375,195.565746225,72.0,91.0
229,195.67236363749998,197.6576533875,70.0,93.0
230,197.8782411375,198.2017698375,75.0,93.0
231,198.31941663749998,198.6172101,77.0,91.0
232,198.7605921375,199.06390029374998,79.0,92.0
233,199.20176763749998,199.4885317125,79.0,92.0
234,199.6429431375,199.9150013625,79.0,93.0
235,200.08411863749998,200.2238242125,75.0,97.0
236,200.3047063875,200.42419141874998,74.0,93.0
237,200.98485195,201.39477751875,72.0,95.0
238,201.84882063749998,202.2091139625,79.0,87.0
239,202.2899961375,202.63742184375,77.0,92.0
240,202.73117163749998,202.85249489999998,77.0,85.0
241,202.9517593875,203.07675911249999,77.0,83.0
242,203.1723471375,203.4958758375,77.0,92.0
243,203.61352263749998,203.75138998125,74.0,91.0
244,203.8341103875,204.53447649375,72.0,87.0
245,204.49771186875,204.88374043125,70.0,84.0
246,205.37822463749998,205.49770966875,72.0,96.0
247,205.5988123875,205.71278272499998,74.0,96.0
248,205.8194001375,206.11535536875,75.0,93.0
249,206.26057563749998,206.4002812125,75.0,87.0
250,206.4811633875,206.6135160375,75.0,87.0
251,206.7017511375,207.03998568749998,75.0,96.0
252,207.14292663749998,207.45358771875,74.0,97.0
253,207.36902908125,208.0841010375,72.0,90.0
254,208.02527763749998,208.70358496875,70.0,91.0
255,208.90762863749998,209.14108400625,70.0,94.0
256,209.14108400625,209.28262781249998,72.0,92.0
257,209.3855687625,209.5546860375,74.0,94.0
258,209.67784753125,209.82490603124998,74.0,95.0
259,209.9296852125,210.09696425625,74.0,92.0
260,210.2017434375,210.4149782625,74.0,96.0
261,210.5179192125,210.70174233749998,74.0,93.0
262,210.81019798124998,211.00872695625,75.0,92.0
263,211.1061532125,212.07122461875,77.0,92.0
264,212.43703263749998,212.59328229374998,75.0,92.0
265,212.6576203875,212.7899730375,77.0,92.0
266,212.8782081375,213.18886921875,79.0,86.0
267,213.31938363749998,213.6465888,79.0,92.0
268,213.7605591375,214.0583526,79.0,91.0
269,214.20173463749998,214.433351775,75.0,95.0
270,214.4223223875,215.08592386875,74.0,87.0
271,215.080409175,215.54548168124998,72.0,91.0
272,215.96643663749998,216.38739159374998,79.0,91.0
273,216.4076121375,216.69989090625,77.0,93.0
274,216.84878763749998,217.14841933124998,77.0,93.0
275,217.2899631375,217.492168575,77.0,95.0
276,217.62268299375,217.77157972499998,74.0,98.0
277,217.93150584375,218.10797604375,77.0,93.0
278,218.2237846125,219.26973819375,79.0,93.0
279,219.49584063749998,219.8046634875,77.0,90.0
280,219.9370161375,220.2826036125,75.0,92.0
281,220.37819163749998,220.6759851,74.0,92.0
282,220.8193671375,221.13186645,75.0,87.0
283,221.26054263749998,221.61715949999999,70.0,91.0
284,221.7017181375,222.42781948125,74.0,93.0
285,222.5840691375,222.96090654374999,72.0,95.0
286,223.02524463749998,223.3524498,69.0,88.0
287,223.4664201375,225.67229763749998,70.0,93.0
288,226.1134731375,226.4370018375,75.0,93.0
289,226.55464863749998,226.8524421,77.0,91.0
290,226.9958241375,227.29913229375,79.0,92.0
291,227.43699963749998,227.7237637125,79.0,92.0
292,227.8781751375,228.1502333625,79.0,93.0
293,228.31935063749998,228.4590562125,75.0,97.0
294,228.5399383875,228.65942341874998,74.0,93.0
295,228.7605261375,229.63000951875,72.0,95.0
296,230.08405263749998,230.4443459625,79.0,87.0
297,230.5252281375,230.87265384375,77.0,92.0
298,230.96640363749998,231.08772689999998,77.0,85.0
299,231.1869913875,231.31199111249998,77.0,83.0
300,231.4075791375,231.7311078375,77.0,92.0
301,231.84875463749998,231.98662198124998,74.0,91.0
302,232.0693423875,232.1796362625,72.0,87.0
303,232.2899301375,233.11897243125,70.0,84.0
304,233.61345663749998,233.73294166875,72.0,96.0
305,233.8340443875,233.94801472499998,74.0,96.0
306,234.0546321375,234.35058736874998,75.0,93.0
307,234.49580763749998,234.6355132125,75.0,87.0
308,234.7163953875,234.8487480375,75.0,87.0
309,234.9369831375,235.2752176875,75.0,96.0
310,235.37815863749998,235.68881971874998,74.0,97.0
311,235.8193341375,236.3193330375,72.0,90.0
312,236.26050963749998,236.93881696875,70.0,91.0
313,237.14286063749998,237.37631600625,70.0,94.0
314,237.37631600625,237.51785981249998,72.0,92.0
315,237.62080076249998,237.7899180375,74.0,94.0
316,237.91307953125,238.06013803125,74.0,95.0
317,238.1649172125,238.33219625625,74.0,92.0
318,238.4369754375,238.6502102625,74.0,96.0
319,238.7531512125,238.9369743375,74.0,93.0
320,239.04542998124998,239.24395895625,75.0,92.0
321,239.3413852125,240.30645661875,77.0,92.0
322,240.67226463749998,240.82851429375,75.0,92.0
323,240.8928523875,241.0252050375,77.0,92.0
324,241.1134401375,241.42410121875,79.0,86.0
325,241.55461563749998,241.88182079999999,79.0,92.0
326,241.9957911375,242.2935846,79.0,91.0
327,242.43696663749998,242.668583775,75.0,95.0
328,242.6575543875,242.81012758125,74.0,87.0
329,242.8781421375,243.78071368124998,72.0,91.0
330,244.20166863749998,244.62262359374998,79.0,91.0
331,244.6428441375,244.93512290625,77.0,93.0
332,245.08401963749998,245.38365133124998,77.0,93.0
333,245.5251951375,245.727400575,77.0,95.0
334,245.85791499375,246.00681172499998,74.0,98.0
335,246.16673784374998,246.34320804375,77.0,93.0
336,246.4590166125,247.50497019374998,79.0,93.0
337,247.73107263749998,248.0398954875,77.0,90.0
338,248.1722481375,248.5178356125,75.0,92.0
339,248.61342363749998,248.9112171,74.0,92.0
340,249.0545991375,249.36709845,75.0,87.0
341,249.49577463749998,249.85239149999998,70.0,91.0
342,249.9369501375,250.66305148125,74.0,93.0
343,250.8193011375,251.19613854374998,72.0,95.0
344,251.26047663749998,251.58768179999998,69.0,88.0
345,251.7016521375,253.9075296375,70.0,93.0
346,254.7898806375,255.0987034875,77.0,90.0
347,255.2310561375,255.5766436125,75.0,92.0
348,255.6722316375,255.9700251,74.0,92.0
349,256.1134071375,256.42590645,75.0,87.0
350,256.5545826375,256.9111995,70.0,91.0
351,256.9957581375,257.4369336375,74.0,93.0
352,257.4111984,257.56744805625,72.0,87.0
353,257.65752138749997,259.58398773749997,72.0,92.0
354,259.62259059375,260.38729479375,69.0,87.0
355,260.49758866875,263.58581716875,70.0,91.0
356,263.6133906375,263.74941975,65.0,91.0
357,263.8339783875,264.02515443749996,65.0,88.0
358,264.0545661375,264.38360953125,74.0,95.0
359,264.4957416375,265.21449005625,74.0,97.0
360,265.3780926375,265.66669494375,74.0,92.0
361,265.8192681375,266.15750268749997,74.0,92.0
362,266.2604436375,266.62992811875,77.0,80.0
363,266.7016191375,267.06007423125,77.0,91.0
364,267.1427946375,267.48286741875,69.0,90.0
365,267.5839701375,269.30271635625,70.0,87.0
366,270.6721986375,270.800874825,67.0,91.0
367,270.8927863875,271.07477128125,67.0,91.0
368,271.1133741375,271.462638075,75.0,89.0
369,271.5545496375,272.2236658125,75.0,93.0
370,272.4369006375,272.727341175,79.0,88.0
371,272.8780761375,273.22182538124997,77.0,91.0
372,273.7604271375,273.9810148875,72.0,91.0
373,273.9810148875,274.2016026375,72.0,91.0
374,274.2016026375,274.57292535,77.0,74.0
375,274.6427781375,276.38725959375,74.0,98.0
376,277.7310066375,277.84130051249997,74.0,96.0
377,277.9515943875,278.10232935,74.0,95.0
378,278.1721821375,278.48835791249996,79.0,92.0
379,278.6133576375,279.34313544375,79.0,91.0
380,279.4957086375,279.830266725,77.0,90.0
381,279.9368841375,280.76592643124997,79.0,90.0
382,280.8192351375,281.19607254375,77.0,80.0
383,281.2604106375,281.54901294375,74.0,93.0
384,281.7015861375,282.0030560625,77.0,89.0
385,282.1427616375,282.4809961875,75.0,92.0
386,282.5839371375,282.89827468125,75.0,93.0
387,283.0251126375,283.33209725625,74.0,93.0
388,283.4662881375,284.37621260624996,67.0,82.0
389,284.7898146375,284.918490825,67.0,91.0
390,285.0104023875,285.1942255125,67.0,83.0
391,285.2309901375,286.1133411375,75.0,91.0
392,286.1133411375,286.44606099375,75.0,92.0
393,286.5545166375,286.91297173124997,77.0,92.0
394,286.97547159375,287.418485325,74.0,95.0
395,287.3817207,288.33760094999997,72.0,85.0
396,288.3523068,288.67767373124997,69.0,87.0
397,288.77693821875,291.933181275,70.0,91.0
