,start,end,pitch,velocity
0,3.34706989375,3.6941438875,68.0,127.0
1,3.66621839375,5.3616947999999995,66.0,99.0
2,5.74068364375,5.86834304375,56.0,88.0
3,5.90025789375,6.093076779166666,68.0,99.0
4,6.05983214375,6.208768110416667,66.0,88.0
5,6.21940639375,6.377650858333333,64.0,85.0
6,6.37898064375,6.601054808333333,66.0,102.0
7,6.77791626875,7.17685189375,68.0,127.0
8,8.29387164375,8.414882116666666,56.0,77.0
9,8.45344589375,8.537222375,68.0,82.0
10,8.61302014375,8.747328470833333,66.0,95.0
11,8.77259439375,8.888285725,64.0,82.0
12,8.93216864375,9.18748744375,66.0,100.0
13,9.41089139375,9.599720922916667,64.0,86.0
14,9.57046564375,10.515943075,61.0,81.0
15,12.76195064375,12.890939829166667,56.0,86.0
16,12.92152489375,13.003971589583333,68.0,93.0
17,13.08109914375,13.150247985416666,68.0,86.0
18,13.24067339375,13.331098802083334,68.0,97.0
19,13.55982189375,13.664874941666666,68.0,117.0
20,13.87897039375,13.9547681625,66.0,107.0
21,14.03854464375,14.452107908333334,66.0,102.0
22,15.31513864375,15.41088319375,56.0,93.0
23,15.47471289375,15.534553237499999,66.0,90.0
24,15.634287143749999,15.687478560416666,66.0,78.0
25,15.79386139375,15.863010235416667,66.0,99.0
26,15.95343564375,16.0611482625,66.0,97.0
27,16.11300989375,16.243328864583333,68.0,107.0
28,16.43215839375,16.513275304166665,64.0,92.0
29,16.59173264375,16.797849383333332,64.0,90.0
30,17.86832664375,17.92417763125,61.0,88.0
31,18.02790089375,18.102368877083332,61.0,93.0
32,18.18747514375,18.281889908333333,61.0,99.0
33,18.34704939375,18.493325789583334,64.0,100.0
34,18.66619789375,18.946782616666667,68.0,127.0
35,19.30449489375,19.515930775,61.0,122.0
36,19.62364339375,19.764600647916666,64.0,99.0
37,19.942791893749998,20.275238247916665,68.0,117.0
38,20.90023739375,21.11566263125,54.0,99.0
39,21.21938589375,21.456087697916665,66.0,99.0
40,21.53853439375,21.86167225,64.0,102.0
41,22.97470264375,23.055819554166668,59.0,95.0
42,23.13427689375,23.19810659375,68.0,99.0
43,23.29385114375,23.360340414583334,68.0,89.0
44,23.45342539375,23.50794659583333,68.0,78.0
45,23.61299964375,23.67682934375,68.0,90.0
46,23.77257389375,23.91619071875,68.0,96.0
47,24.09172239375,24.1914563,66.0,117.0
48,24.25129664375,24.772572527083334,66.0,107.0
49,25.52789064375,25.614326695833334,59.0,90.0
50,25.68746489375,25.749964808333335,66.0,93.0
51,25.84703914375,25.904219916666666,66.0,99.0
52,26.00661339375,26.065123952083333,66.0,93.0
53,26.16618764375,26.2340067,66.0,99.0
54,26.32576189375,26.622304041666666,68.0,127.0
55,26.64491039375,26.981346104166665,64.0,100.0
56,28.08107864375,28.13692963125,61.0,89.0
57,28.24065289375,28.433471779166666,61.0,102.0
58,28.55980139375,28.712726716666666,64.0,100.0
59,28.87894989375,29.257938737499998,68.0,127.0
60,29.51724689375,29.942778227083334,61.0,102.0
61,30.15554389375,30.405543552083333,64.0,97.0
62,30.47469239375,30.813787675,66.0,127.0
63,30.79384089375,31.362989052083332,64.0,89.0
64,31.43213789375,31.69144605,64.0,100.0
65,31.75128639375,31.962722275,66.0,99.0
66,32.07043489375,32.53320021875,68.0,117.0
67,32.70873189375,32.78984880416667,71.0,117.0
68,33.02788039375,33.55713498958333,71.0,117.0
69,33.98532589375,34.26192126041666,68.0,127.0
70,34.30447439375,34.598356970833336,64.0,93.0
71,34.62362289375,35.103675429166664,66.0,112.0
72,35.26191989375,35.33638787708333,71.0,122.0
73,35.58106839375,36.14489741041667,71.0,122.0
74,36.53851389375,36.75127956041667,64.0,107.0
75,36.85766239375,37.066438704166664,66.0,107.0
76,37.17681089375,37.47069347083333,68.0,117.0
77,37.81510789375,38.0185650625,68.0,117.0
78,38.13425639375,38.32973485,71.0,122.0
79,38.45340489375,38.726010904166664,69.0,127.0
80,38.77255339375,38.888244725,68.0,117.0
81,39.09170189375,39.37760575833333,66.0,127.0
82,39.41085039375,39.57574378541667,64.0,95.0
83,39.72999889375,40.019892114583335,64.0,107.0
84,40.36829589375,40.593029629166665,68.0,117.0
85,40.68744439375,40.88292285,71.0,112.0
86,41.00659289375,41.16749692916667,69.0,102.0
87,41.32574139375,41.594358047916664,68.0,127.0
88,41.64488989375,41.914836333333334,66.0,127.0
89,41.96403839375,42.061112729166666,64.0,95.0
90,42.28318689375,42.87361161875,68.0,127.0
91,42.92148389375,42.98930295,71.0,102.0
92,43.24063239375,43.86563153958333,71.0,127.0
93,44.51722639375,44.77919412083333,64.0,99.0
94,44.83637489375,45.31775721458333,66.0,112.0
95,45.47467189375,45.60898022083333,71.0,112.0
96,45.793820393749996,46.114298679166666,73.0,127.0
97,46.11296889375,46.72732975625,71.0,100.0
98,46.75126589375,46.85764872708333,64.0,107.0
99,47.07041439375,47.23131842916666,66.0,122.0
100,47.389562893749996,47.785838947916666,68.0,122.0
101,48.02785989375,48.233976633333334,68.0,127.0
102,48.34700839375,48.59434848125,71.0,117.0
103,48.66615689375,48.92280547916667,69.0,107.0
104,48.98530539375,49.237964622916664,68.0,122.0
105,49.30445389375,49.60631518333334,66.0,107.0
106,49.62360239375,49.88955947708333,64.0,100.0
107,49.94275089375,50.12892085208333,61.0,107.0
108,50.26189939375,50.4493991375,61.0,112.0
109,50.58104789375,51.17413218958333,63.0,100.0
110,51.21934489375,51.76455691458333,64.0,97.0
111,51.85764189375,52.16615211041667,68.0,122.0
112,52.49593889375,52.756576835416666,71.0,115.0
113,53.13423589375,53.410831260416664,68.0,122.0
114,53.77253289375,53.941415641666666,71.0,99.0
115,53.93210714375,54.11561753125,68.0,112.0
116,54.09168139375,54.229979077083335,66.0,107.0
117,54.41082989375,54.77253152708333,66.0,127.0
118,55.04912689375,55.275190414583335,71.0,127.0
119,55.36827539375,55.64620054583333,69.0,117.0
120,55.68742389375,55.93210441041666,68.0,122.0
121,56.00657239375,56.17545514166667,71.0,100.0
122,56.32572089375,56.505241925,69.0,112.0
123,56.64486939375,56.829709566666665,68.0,112.0
124,56.96401789375,57.16348570625,64.0,97.0
125,57.28316639375,57.429442789583334,66.0,122.0
126,57.60231489375,57.866942191666666,64.0,99.0
127,58.08103764375,58.229973610416664,59.0,90.0
128,58.24061189375,58.39486700208333,68.0,107.0
129,58.40018614375,58.56374975,66.0,127.0
130,58.55976039375,58.74194099583333,64.0,96.0
131,58.71933464375,59.090344775,66.0,122.0
132,59.19805739375,59.46933361875,68.0,122.0
133,59.83635439375,60.158162464583334,66.0,127.0
134,60.15550289375,60.39486426875,64.0,102.0
135,60.63422564375,60.74858718958333,59.0,95.0
136,60.79379989375,60.91879972291667,68.0,107.0
137,60.95337414375,61.086352685416664,66.0,112.0
138,61.11294839375,61.269863072916664,64.0,89.0
139,61.27252264375,61.483958525,66.0,127.0
140,61.75124539375,62.44539338125,61.0,117.0
141,62.70869089375,63.047786175,71.0,117.0
142,63.34698789375,63.751242660416665,68.0,122.0
143,63.98528489375,64.27916747083333,71.0,127.0
144,64.30443339375,64.49858206458333,68.0,122.0
145,64.62358189375,64.91081554375,66.0,117.0
146,65.26187889375,65.47065520416666,71.0,127.0
147,65.58102739375,65.760548425,69.0,107.0
148,65.90017589375,66.06772885625,68.0,122.0
149,66.21932439375,66.4068241375,71.0,112.0
150,66.53847289375,66.73794070625,69.0,127.0
151,66.85762139375,67.0770359875,68.0,127.0
152,67.17676989375,67.388205775,64.0,102.0
153,67.49591839375,67.81639667916667,66.0,122.0
154,67.81506689375,68.24458758333333,64.0,96.0
155,68.29378964375,68.38687462291666,59.0,88.0
156,68.45336389375,68.58501265,68.0,112.0
157,68.61293814375,68.73261883125,66.0,99.0
158,68.77251239375,68.97330999166667,64.0,77.0
159,68.93208664375,69.239267075,66.0,127.0
160,69.41080939375,69.60362827916667,68.0,127.0
161,70.04910639375,70.3642655375,66.0,127.0
162,70.36825489375,70.64485026041666,64.0,96.0
163,70.84697764375,70.96399876041667,59.0,89.0
164,71.00655189375,71.17277507083334,68.0,107.0
165,71.16612614375,71.31506211041666,66.0,99.0
166,71.32570039375,71.46931721874999,64.0,93.0
167,71.48527464375,71.79378486041666,66.0,112.0
168,71.96399739375,72.12889078541667,64.0,96.0
169,72.12357164375,72.64750709791667,61.0,96.0
170,76.59165064375,76.72063982916667,56.0,86.0
171,76.75122489375,76.83367158958333,68.0,93.0
172,76.91079914375,76.97994798541667,68.0,86.0
173,77.07037339375,77.16079880208333,68.0,97.0
174,77.38952189375,77.49457494166667,68.0,117.0
175,77.70867039375,77.7844681625,66.0,107.0
176,77.86824464375,78.28180790833333,66.0,102.0
177,79.14483864375,79.24058319375,56.0,93.0
178,79.30441289375,79.3642532375,66.0,90.0
179,79.46398714375,79.51717856041667,66.0,78.0
180,79.62356139375,79.69271023541667,66.0,99.0
181,79.78313564375,79.8908482625,66.0,97.0
182,79.94270989375,80.07302886458334,68.0,107.0
183,80.26185839375,80.34297530416667,64.0,92.0
184,80.42143264375,80.62754938333333,64.0,90.0
185,81.69802664375,81.75387763125,61.0,88.0
186,81.85760089375,81.93206887708334,61.0,93.0
187,82.01717514375,82.11158990833333,61.0,99.0
188,82.17674939375,82.32302578958333,64.0,100.0
189,82.49589789375,82.77648261666667,68.0,127.0
190,83.13419489375,83.345630775,61.0,122.0
191,83.45334339375,83.59430064791667,64.0,99.0
192,83.77249189375,84.10493824791666,68.0,117.0
193,84.72993739375,84.94536263125,54.0,99.0
194,85.04908589375,85.28578769791666,66.0,99.0
195,85.36823439375,85.69137225,64.0,102.0
196,86.80440264375,86.88551955416666,59.0,95.0
197,86.96397689375,87.02780659375,68.0,99.0
198,87.12355114375,87.19004041458334,68.0,89.0
199,87.28312539375,87.33764659583333,68.0,78.0
200,87.44269964375,87.50652934375,68.0,90.0
201,87.60227389375,87.74589071875,68.0,96.0
202,87.92142239375,88.0211563,66.0,117.0
203,88.08099664375,88.60227252708333,66.0,107.0
204,89.35759064375,89.44402669583333,59.0,90.0
205,89.51716489374999,89.57966480833333,66.0,93.0
206,89.67673914375,89.73391991666666,66.0,99.0
207,89.83631339375,89.89482395208333,66.0,93.0
208,89.99588764375,90.0637067,66.0,99.0
209,90.15546189375,90.45200404166667,68.0,127.0
210,90.47461039375,90.81104610416666,64.0,100.0
211,91.91077864374999,91.96662963125,61.0,89.0
212,92.07035289375,92.26317177916667,61.0,102.0
213,92.38950139375,92.54242671666667,64.0,100.0
214,92.70864989374999,93.0876387375,68.0,127.0
215,93.34694689375,93.77247822708333,61.0,102.0
216,93.98524389375,94.23524355208333,64.0,97.0
217,94.30439239374999,94.643487675,66.0,127.0
218,94.62354089375,95.19268905208334,64.0,89.0
219,95.26183789375,95.52114605,64.0,100.0
220,95.58098639375,95.79242227499999,66.0,99.0
221,95.90013489374999,96.36290021875,68.0,117.0
222,96.53843189375,96.61954880416667,71.0,117.0
223,96.85758039375,97.38683498958333,71.0,117.0
224,97.81502589375,98.09162126041667,68.0,127.0
225,98.13417439375,98.42805697083334,64.0,93.0
226,98.45332289375,98.93337542916666,66.0,112.0
227,99.09161989374999,99.16608787708333,71.0,122.0
228,99.41076839375,99.97459741041666,71.0,122.0
229,100.36821389375,100.58097956041667,64.0,107.0
230,100.68736239374999,100.89613870416666,66.0,107.0
231,101.00651089375,101.30039347083333,68.0,117.0
232,101.64480789375,101.8482650625,68.0,117.0
233,101.96395639375,102.15943485,71.0,122.0
234,102.28310489375,102.55571090416666,69.0,127.0
235,102.60225339375,102.717944725,68.0,117.0
236,102.92140189375,103.20730575833333,66.0,127.0
237,103.24055039375,103.40544378541667,64.0,95.0
238,103.55969889375,103.84959211458333,64.0,107.0
239,104.19799589375,104.42272962916667,68.0,117.0
240,104.51714439375,104.71262285,71.0,112.0
241,104.83629289375,104.99719692916666,69.0,102.0
242,105.15544139375,105.42405804791666,68.0,127.0
243,105.47458989375,105.74453633333333,66.0,127.0
244,105.79373839375,105.89081272916667,64.0,95.0
245,106.11288689375,106.70331161874999,68.0,127.0
246,106.75118389375,106.81900295,71.0,102.0
247,107.07033239375,107.69533153958334,71.0,127.0
248,108.34692639375,108.60889412083333,64.0,99.0
249,108.66607489375,109.14745721458333,66.0,112.0
250,109.30437189375,109.43868022083333,71.0,112.0
251,109.62352039375,109.94399867916667,73.0,127.0
252,109.94266889375,110.55702975625,71.0,100.0
253,110.58096589375,110.68734872708333,64.0,107.0
254,110.90011439375,111.06101842916667,66.0,122.0
255,111.21926289375,111.61553894791666,68.0,122.0
256,111.85755989375,112.06367663333333,68.0,127.0
257,112.17670839375,112.42404848125,71.0,117.0
258,112.49585689375,112.75250547916667,69.0,107.0
259,112.81500539375,113.06766462291667,68.0,122.0
260,113.13415389375,113.43601518333334,66.0,107.0
261,113.45330239375,113.71925947708333,64.0,100.0
262,113.77245089375,113.95862085208333,61.0,107.0
263,114.09159939375,114.2790991375,61.0,112.0
264,114.41074789375,115.00383218958333,63.0,100.0
265,115.04904489375,115.59425691458333,64.0,97.0
266,115.68734189375,115.99585211041666,68.0,122.0
267,116.32563889375,116.58627683541667,71.0,85.0
268,116.96393589375,117.24053126041666,68.0,122.0
269,117.60223289375,117.77111564166667,71.0,99.0
270,117.76180714375,117.94531753125,68.0,112.0
271,117.92138139375,118.05967907708333,66.0,107.0
272,118.24052989375,118.60223152708333,66.0,127.0
273,118.87882689375,119.10489041458334,71.0,127.0
274,119.19797539375,119.47590054583333,69.0,117.0
275,119.51712389375,119.76180441041667,68.0,122.0
276,119.83627239375,120.00515514166666,71.0,100.0
277,120.15542089375,120.334941925,69.0,112.0
278,120.47456939375,120.65940956666667,68.0,112.0
279,120.79371789375,120.99318570625,64.0,97.0
280,121.11286639375,121.25914278958334,66.0,122.0
281,121.43201489375,121.69664219166667,64.0,99.0
282,121.91073764375,122.05967361041667,59.0,90.0
283,122.07031189375,122.22456700208333,68.0,107.0
284,122.22988614375,122.39344975,66.0,127.0
285,122.38946039375,122.57164099583333,64.0,96.0
286,122.54903464375,122.920044775,66.0,122.0
287,123.02775739375,123.29903361875,68.0,122.0
288,123.66605439375,123.98786246458333,66.0,127.0
289,123.98520289375,124.22456426875,64.0,102.0
290,124.46392564375,124.57828718958334,59.0,95.0
291,124.62349989375,124.74849972291666,68.0,107.0
292,124.78307414375,124.91605268541666,66.0,112.0
293,124.94264839375,125.09956307291667,64.0,89.0
294,125.10222264375,125.313658525,66.0,127.0
295,125.58094539375,126.27509338125,61.0,117.0
296,126.53839089375,126.877486175,71.0,117.0
297,127.17668789375,127.58094266041667,68.0,122.0
298,127.81498489375,128.10886747083333,71.0,127.0
299,128.13413339375,128.32828206458333,68.0,122.0
300,128.45328189375,128.74051554375,66.0,117.0
301,129.09157889375,129.30035520416666,71.0,127.0
302,129.41072739375,129.590248425,69.0,107.0
303,129.72987589375,129.89742885625,68.0,122.0
304,130.04902439375,130.2365241375,71.0,112.0
305,130.36817289375,130.56764070625,69.0,127.0
306,130.68732139375,130.90673598749999,68.0,127.0
307,131.00646989375,131.217905775,64.0,102.0
308,131.32561839375,131.64609667916667,66.0,122.0
309,131.64476689375,132.07428758333333,64.0,96.0
310,132.12348964375,132.21657462291665,59.0,88.0
311,132.28306389375,132.41471265,68.0,112.0
312,132.44263814375,132.56231883125,66.0,99.0
313,132.60221239375,132.80300999166667,64.0,77.0
314,132.76178664374999,133.068967075,66.0,127.0
315,133.24050939375,133.43332827916666,68.0,127.0
316,133.87880639375,134.1939655375,66.0,127.0
317,134.19795489375,134.47455026041666,64.0,96.0
318,134.67667764375,134.79369876041667,59.0,89.0
319,134.83625189375,135.00247507083333,68.0,107.0
320,134.99582614375,135.14476211041668,66.0,99.0
321,135.15540039375,135.29901721875,64.0,93.0
322,135.31497464375,135.62348486041665,66.0,112.0
323,135.79369739375,135.95859078541667,64.0,96.0
324,135.95327164374999,136.47720709791668,61.0,96.0
325,137.86816264375,137.99316247291668,59.0,93.0
326,138.02773689375,138.17268350416666,64.0,99.0
327,138.34688539375,138.48518307708332,61.0,117.0
328,138.50645964375,138.6141722625,59.0,78.0
329,138.66603389375,138.909384625,66.0,122.0
330,138.98518239375,139.53571355625,64.0,122.0
331,140.42135064375,140.52640369166667,59.0,90.0
332,140.58092489375,140.65007373541667,64.0,97.0
333,140.74049914375,140.85353090416666,64.0,79.0
334,140.90007339375,141.05831785833334,61.0,89.0
335,141.05964764375,141.18863682916665,59.0,85.0
336,141.21922189375,141.37081743125,66.0,127.0
337,141.53837039375,142.16868868125,68.0,122.0
338,142.97453864375,143.08092147708334,61.0,89.0
339,143.13411289375,143.26709143541666,64.0,96.0
340,143.45326139375,143.57959100833332,61.0,100.0
341,143.61283564375,143.92400543125,64.0,96.0
342,144.09155839375,144.21389865208334,64.0,96.0
343,144.25113264375,144.37613247291665,61.0,73.0
344,144.41070689375,144.48916423333333,64.0,97.0
345,144.57028114375,144.68996183125,64.0,83.0
346,144.72985539375,144.84022758333333,61.0,89.0
347,144.88942964375,145.04900389375,64.0,102.0
348,145.36815239375,145.52107771666667,64.0,93.0
349,145.52772664375,145.64474776041666,61.0,83.0
350,145.68730089375,145.76841780416666,64.0,93.0
351,145.84687514375,145.95990690416667,64.0,86.0
352,146.00644939375,146.09953437291668,61.0,96.0
353,146.16602364375,146.57825712291665,64.0,100.0
354,146.64474639375,147.24314983125,68.0,122.0
355,148.08091464375,148.18197833541666,59.0,96.0
356,148.24048889375,148.37612700625,71.0,100.0
357,148.55963739375,148.62080752291666,71.0,96.0
358,148.71921164375,148.79633919791667,71.0,92.0
359,148.87878589375,149.15804083125,68.0,127.0
360,149.19793439375,149.67000821666667,66.0,107.0
361,150.63410264375,150.73782590625,59.0,90.0
362,150.79367689375,150.93064479166668,71.0,100.0
363,151.11282539375,151.23782522291665,71.0,100.0
364,151.27239964375,151.40537818541665,68.0,102.0
365,151.43197389375,151.58888857291666,71.0,122.0
366,151.75112239375,152.27505784791666,73.0,127.0
367,153.02771639375,153.10883330416667,61.0,117.0
368,153.18729064375,153.31362025833334,61.0,70.0
369,153.34686489375,153.51973699791665,64.0,99.0
370,153.66601339375,153.92931090625,66.0,127.0
371,153.98516189375,154.16734249583334,64.0,122.0
372,154.62345889375,155.0981922875,61.0,117.0
373,155.26175589375,155.71920207708334,63.0,117.0
374,155.90005289375,156.175318475,64.0,122.0
375,156.53834989375,159.01441033958332,68.0,127.0
376,159.72983489375,160.13408966041666,71.0,100.0
377,160.36813189375,160.64472726041666,68.0,122.0
378,161.00642889375,161.17531164166667,71.0,99.0
379,161.16600314375,161.34951353125,68.0,112.0
380,161.32557739375,161.46387507708334,66.0,107.0
381,161.64472589375,162.00642752708333,66.0,127.0
382,162.28302289375,162.50908641458332,71.0,127.0
383,162.60217139375,162.88009654583334,69.0,117.0
384,162.92131989375,163.16600041041667,68.0,122.0
385,163.24046839375,163.40935114166666,71.0,100.0
386,163.55961689375,163.739137925,69.0,112.0
387,163.87876539375,164.06360556666667,68.0,112.0
388,164.19791389375,164.39738170625,64.0,97.0
389,164.51706239375,164.66333878958332,66.0,122.0
390,164.83621089375,165.10083819166667,64.0,99.0
391,165.31493364375,165.46386961041668,59.0,90.0
392,165.47450789375,165.62876300208333,68.0,107.0
393,165.63408214375,165.79764575,66.0,127.0
394,165.79365639375,165.97583699583333,64.0,96.0
395,165.95323064375,166.324240775,66.0,122.0
396,166.43195339375,166.70322961875,68.0,122.0
397,167.07025039375,167.39205846458333,66.0,127.0
398,167.38939889375,167.62876026875,64.0,102.0
399,167.86812164375,167.98248318958332,59.0,95.0
400,168.02769589375,168.15269572291666,68.0,107.0
401,168.18727014375,168.32024868541666,66.0,112.0
402,168.34684439375,168.50375907291667,64.0,89.0
403,168.50641864375,168.717854525,66.0,127.0
404,168.98514139375,169.67928938125,61.0,117.0
405,169.94258689375,170.281682175,71.0,117.0
406,170.58088389375,170.98513866041665,68.0,122.0
407,171.21918089375,171.51306347083334,71.0,127.0
408,171.53832939375,171.73247806458332,68.0,122.0
409,171.85747789375,172.14471154375,66.0,117.0
410,172.49577489375,172.70455120416668,71.0,127.0
411,172.81492339375,172.994444425,69.0,107.0
412,173.13407189375,173.30162485625,68.0,122.0
413,173.45322039375,173.6407201375,71.0,112.0
414,173.77236889375,173.97183670625,69.0,127.0
415,174.09151739375,174.3109319875,68.0,127.0
416,174.41066589375,174.622101775,64.0,102.0
417,174.72981439375,175.05029267916666,66.0,122.0
418,175.04896289375,175.47848358333334,64.0,96.0
419,175.52768564375,175.62077062291667,59.0,88.0
420,175.68725989375,175.81890865,68.0,112.0
421,175.84683414375,175.96651483125,66.0,99.0
422,176.00640839375,176.20720599166665,64.0,77.0
423,176.16598264375,176.473163075,66.0,127.0
424,176.64470539375,176.83752427916667,68.0,127.0
425,177.28300239375,177.5981615375,66.0,127.0
426,177.60215089375,177.87874626041668,64.0,96.0
427,178.08087364375,178.19789476041666,59.0,89.0
428,178.24044789375,178.40667107083334,68.0,107.0
429,178.40002214375,178.54895811041666,66.0,99.0
430,178.55959639375,178.70321321875,64.0,93.0
431,178.71917064375,179.02768086041667,66.0,112.0
432,179.19789339375,179.36278678541666,64.0,96.0
433,179.35746764375,179.88140309791666,61.0,96.0
434,180.15533889375,180.55959366041665,71.0,100.0
435,180.79363589375,181.07023126041668,68.0,122.0
436,181.43193289375,181.60081564166666,71.0,99.0
437,181.59150714375,181.77501753125,68.0,112.0
438,181.75108139375,181.88937907708333,66.0,107.0
439,182.07022989375,182.43193152708332,66.0,127.0
440,182.70852689375,182.93459041458334,71.0,127.0
441,183.02767539375,183.30560054583333,69.0,117.0
442,183.34682389374998,183.59150441041666,68.0,122.0
443,183.66597239375,183.83485514166668,71.0,100.0
444,183.98512089375,184.164641925,69.0,112.0
445,184.30426939375,184.48910956666666,68.0,112.0
446,184.62341789375,184.82288570625,64.0,97.0
447,184.94256639374998,185.08884278958334,66.0,122.0
448,185.26171489375,185.52634219166666,64.0,99.0
449,185.74043764375,185.88937361041667,59.0,90.0
450,185.90001189375,186.05426700208332,68.0,107.0
451,186.05958614375,186.22314975,66.0,127.0
452,186.21916039375,186.40134099583332,64.0,96.0
453,186.37873464375,186.749744775,66.0,122.0
454,186.85745739375,187.12873361875,68.0,122.0
455,187.49575439375,187.81756246458332,66.0,127.0
456,187.81490289375,188.05426426875,64.0,102.0
457,188.29362564375,188.40798718958334,59.0,95.0
458,188.45319989375,188.57819972291668,68.0,107.0
459,188.61277414375,188.74575268541668,66.0,112.0
460,188.77234839375,188.92926307291665,64.0,89.0
461,188.93192264375,189.143358525,66.0,127.0
462,189.41064539375,190.10479338125,61.0,117.0
463,190.36809089375,190.707186175,71.0,117.0
464,191.00638789375,191.41064266041667,68.0,122.0
465,191.64468489375,191.93856747083333,71.0,127.0
466,191.96383339375,192.15798206458334,68.0,122.0
467,192.28298189375,192.57021554375,66.0,117.0
468,192.92127889374999,193.13005520416667,71.0,127.0
469,193.24042739375,193.419948425,69.0,107.0
470,193.55957589375,193.72712885625,68.0,122.0
471,193.87872439375,194.0662241375,71.0,112.0
472,194.19787289375,194.39734070625,69.0,127.0
473,194.51702139374999,194.7364359875,68.0,127.0
474,194.83616989375,195.047605775,64.0,102.0
475,195.15531839375,195.47579667916668,66.0,122.0
476,195.47446689375,195.90398758333333,64.0,96.0
477,195.95318964375,196.04627462291666,59.0,88.0
478,196.11276389374999,196.24441265,68.0,112.0
479,196.27233814375,196.39201883125,66.0,99.0
480,196.43191239375,196.63270999166667,64.0,77.0
481,196.59148664375,196.898667075,66.0,127.0
482,197.07020939375,197.26302827916666,68.0,127.0
483,197.70850639374999,198.0236655375,66.0,127.0
484,198.02765489375,198.30425026041667,64.0,96.0
485,198.50637764375,198.62339876041668,59.0,89.0
486,198.66595189375,198.83217507083333,68.0,107.0
487,198.82552614375,198.97446211041665,66.0,99.0
488,198.98510039375,199.12871721875,64.0,93.0
489,199.14467464375,199.45318486041666,66.0,112.0
490,199.62339739375,199.78829078541668,64.0,96.0
491,199.78297164375,200.30690709791668,61.0,96.0
