,start,end,pitch,velocity
0,1.43217889375,1.8590400125,64.0,69.0
1,1.43217889375,1.8749974375,68.0,66.0
2,1.75132739375,2.1874970104166667,52.0,38.0
3,2.07047589375,2.5718049958333333,68.0,66.0
4,2.07047589375,2.5984007041666666,64.0,71.0
5,2.07047589375,2.78856001875,59.0,59.0
6,2.38962439375,2.8537195041666665,52.0,53.0
7,2.70877289375,3.21941049375,68.0,68.0
8,2.70877289375,3.224729635416667,64.0,71.0
9,1.43217889375,3.47871865,40.0,50.0
10,3.02792139375,3.5039845729166665,52.0,63.0
11,3.34706989375,3.9973349625,64.0,77.0
12,3.34706989375,4.014622172916667,68.0,89.0
13,3.66621839375,4.143611358333334,59.0,60.0
14,4.30451539375,4.7646211479166665,54.0,60.0
15,4.62366389375,5.1303121375,66.0,68.0
16,4.62366389375,5.1555780604166666,63.0,71.0
17,4.94281239375,5.4175457875,54.0,83.0
18,5.58110939375,5.890949395833333,54.0,78.0
19,3.98536689375,5.978715233333333,47.0,73.0
20,5.2619608937499995,6.026587508333333,63.0,74.0
21,5.2619608937499995,6.046534289583334,66.0,83.0
22,6.21940639375,6.503980472916667,66.0,90.0
23,6.21940639375,6.521267683333333,63.0,72.0
24,5.90025789375,6.587756954166666,59.0,95.0
25,6.85770339375,7.371000564583333,56.0,63.0
26,7.17685189375,7.522596102083333,61.0,56.0
27,7.17685189375,7.579776875,64.0,70.0
28,7.49600039375,7.912223229166667,56.0,71.0
29,7.81514889375,8.156903745833333,61.0,61.0
30,7.81514889375,8.312488639583334,64.0,72.0
31,6.53855489375,8.359031129166667,49.0,93.0
32,8.13429739375,8.534562804166667,56.0,75.0
33,8.77259439375,9.049189760416667,56.0,96.0
34,8.45344589375,9.057168472916667,61.0,66.0
35,8.45344589375,9.07578546875,64.0,69.0
36,9.41089139375,9.851050366666666,52.0,66.0
37,9.73003989375,10.035890539583333,64.0,52.0
38,9.73003989375,10.230039210416667,61.0,69.0
39,9.73003989375,10.51195371875,57.0,72.0
40,10.36833689375,11.155569860416666,61.0,96.0
41,10.36833689375,11.231367629166666,64.0,93.0
42,10.04918839375,11.410888660416667,52.0,85.0
43,9.09174289375,11.486686429166667,45.0,75.0
44,11.32578239375,11.58509055,61.0,72.0
45,11.32578239375,11.603707545833334,64.0,78.0
46,11.00663389375,11.618335185416667,57.0,88.0
47,12.2951959625,12.900248327083334,56.0,83.0
48,12.603706179166666,13.042535366666666,52.0,78.0
49,11.982696389583333,13.122322491666667,47.0,89.0
50,12.9334929625,13.514609189583334,59.0,93.0
51,11.639611752083333,13.56780060625,40.0,81.0
52,13.255301033333334,13.622321808333334,47.0,59.0
53,13.533226185416666,13.908225672916666,56.0,77.0
54,13.852374685416667,14.15024661875,59.0,72.0
55,14.4813631875,15.01992628125,54.0,93.0
56,15.150245252083334,15.67019135,54.0,92.0
57,14.801841472916667,15.836414527083333,59.0,88.0
58,15.783223110416667,16.015935558333332,54.0,90.0
59,14.17418275625,16.09572268333333,47.0,77.0
60,15.469393752083333,16.6834878375,66.0,107.0
61,16.07976525833333,16.698115477083334,63.0,96.0
62,16.410881827083333,16.7473175375,59.0,89.0
63,17.035880972916665,17.446784666666666,56.0,74.0
64,17.662209904166666,18.061145529166666,56.0,86.0
65,17.356359258333335,18.204762354166668,61.0,75.0
66,16.71141333125,18.226038920833332,49.0,102.0
67,18.30582604583333,18.45077265625,49.0,31.0
68,18.285879264583333,18.65024046875,56.0,89.0
69,18.944123045833333,19.227367339583335,56.0,85.0
70,18.620985189583333,19.24864390625,61.0,55.0
71,17.981358404166667,19.289867254166666,64.0,73.0
72,19.606356183333332,20.0425258,52.0,55.0
73,20.244653183333334,20.75662056875,52.0,69.0
74,19.913536614583332,20.97204580625,57.0,92.0
75,20.874971470833334,21.277896452083333,52.0,86.0
76,19.23268648125,21.317790014583334,45.0,75.0
77,21.511938685416666,21.843055254166668,57.0,97.0
78,21.194119970833334,21.855023322916665,61.0,112.0
79,20.582418679166665,21.86566160625,64.0,96.0
80,22.457416116666668,23.23800015625,56.0,112.0
81,22.780553972916668,23.255287366666668,52.0,83.0
82,23.11034075625,23.495978527083334,59.0,77.0
83,21.803161691666666,23.817786597916665,40.0,86.0
84,22.150235685416668,23.831084452083335,47.0,70.0
85,23.116989683333333,23.90023329375,64.0,76.0
86,23.428159470833332,23.970711920833335,52.0,90.0
87,24.081084110416665,24.377626258333333,59.0,74.0
88,23.7446484,24.381615614583332,56.0,95.0
89,24.078424539583335,24.398902825,64.0,85.0
90,24.707413041666666,25.139593302083334,54.0,67.0
91,25.37629510625,25.784539229166665,54.0,92.0
92,25.006614760416667,26.158208931249998,59.0,93.0
93,25.6675181125,26.1621982875,66.0,99.0
94,25.668847897916667,26.179485497916666,63.0,92.0
95,25.995975110416666,26.39757030625,54.0,95.0
96,24.393583683333333,26.4813467875,47.0,81.0
97,26.630282754166668,27.026558808333334,59.0,92.0
98,26.299166185416667,27.0398566625,63.0,92.0
99,26.295176829166667,27.04384601875,66.0,93.0
100,27.900227827083334,28.339057014583332,49.0,85.0
101,28.234003966666666,28.70341821875,61.0,95.0
102,28.228684825,28.740652210416666,56.0,83.0
103,26.94012275625,28.900226460416665,37.0,82.0
104,27.28320739375,28.90953495833333,44.0,45.0
105,27.581079327083334,28.9148541,52.0,85.0
106,28.5398546125,28.9387902375,49.0,97.0
107,28.837726545833334,29.430810841666666,56.0,70.0
108,29.151555904166667,29.43745976875,52.0,75.0
109,28.845705258333332,29.44543848125,61.0,97.0
110,29.807140114583333,30.292511791666666,52.0,66.0
111,30.46671368125,30.8377238125,52.0,79.0
112,30.140916254166665,30.880276945833334,57.0,93.0
113,30.781872825,31.453414460416667,61.0,88.0
114,30.78586218125,31.579744075,64.0,89.0
115,31.075755402083335,31.905541502083334,52.0,100.0
116,29.494640541666666,31.909530858333333,45.0,82.0
117,31.739318325,32.04782854166667,61.0,95.0
118,31.40022304375,32.058466825,57.0,107.0
119,31.740648110416668,32.07841360625,64.0,96.0
120,32.72601910416667,33.33107146875,56.0,83.0
121,33.034529320833336,33.473358508333334,52.0,78.0
122,32.41351953125,33.55314563333334,47.0,89.0
123,33.36431610416667,33.94543233125,59.0,93.0
124,32.07043489375,33.99862374791667,40.0,81.0
125,33.686124175,34.05314495,47.0,59.0
126,33.96404932708333,34.339048814583336,56.0,77.0
127,34.283197827083335,34.58106976041667,59.0,72.0
128,34.912186329166666,35.450749422916665,54.0,93.0
129,35.58106839375,36.10101449166667,54.0,92.0
130,35.232664614583335,36.26723766875,59.0,88.0
131,36.214046252083335,36.4467587,54.0,90.0
132,34.60500589791667,36.526545825,47.0,77.0
133,35.90021689375,37.11431097916667,66.0,107.0
134,36.5105884,37.12893861875,63.0,96.0
135,36.84170496875,37.17814067916667,59.0,89.0
136,37.46670411458334,37.87760780833333,56.0,74.0
137,38.09303304583333,38.49196867083333,56.0,86.0
138,37.7871824,38.63558549583333,61.0,75.0
139,37.142236472916665,38.6568620625,49.0,102.0
140,38.7366491875,38.88159579791667,49.0,31.0
141,38.71670240625,39.08106361041666,56.0,89.0
142,39.3749461875,39.65819048125,56.0,85.0
143,39.05180833125,39.67946704791667,61.0,55.0
144,38.412181545833334,39.72069039583333,64.0,73.0
145,40.037179325,40.473348941666664,52.0,55.0
146,40.675476325,41.187443710416666,52.0,69.0
147,40.34435975625,41.402868947916666,57.0,92.0
148,41.3057946125,41.70871959375,52.0,86.0
149,39.66350962291666,41.74861315625,45.0,75.0
150,41.94276182708333,42.273878395833336,57.0,97.0
151,41.6249431125,42.28584646458334,61.0,112.0
152,41.013241820833336,42.296484747916665,64.0,96.0
153,42.888239258333336,43.66882329791667,56.0,112.0
154,43.211377114583335,43.686110508333336,52.0,83.0
155,43.54116389791667,43.92680166875,59.0,77.0
156,42.23398483333333,44.24860973958333,40.0,86.0
157,42.58105882708333,44.26190759375,47.0,70.0
158,43.547812825,44.33105643541666,64.0,76.0
159,43.8589826125,44.4015350625,52.0,90.0
160,44.51190725208333,44.8084494,59.0,74.0
161,44.17547154166667,44.81243875625,56.0,95.0
162,44.50924768125,44.829725966666665,64.0,85.0
163,45.13823618333333,45.57041644375,54.0,67.0
164,45.80711824791667,46.21536237083333,54.0,92.0
165,45.43743790208333,46.589032072916666,59.0,93.0
166,46.09834125416667,46.59302142916667,66.0,99.0
167,46.099671039583335,46.61030863958333,63.0,92.0
168,46.42679825208333,46.82839344791667,54.0,95.0
169,44.824406825,46.912169929166666,47.0,81.0
170,47.061105895833336,47.45738195,59.0,92.0
171,46.72998932708333,47.470679804166664,63.0,92.0
172,46.725999970833335,47.47466916041667,66.0,93.0
173,48.33105096875,48.76988015625,49.0,85.0
174,48.664827108333334,49.13424136041667,61.0,95.0
175,48.659507966666666,49.171475352083334,56.0,83.0
176,47.37094589791667,49.33104960208333,37.0,82.0
177,47.71403053541667,49.3403581,44.0,45.0
178,48.01190246875,49.345677241666664,52.0,85.0
179,48.970677754166665,49.369613379166665,49.0,97.0
180,49.2685496875,49.861633983333334,56.0,70.0
181,49.582379045833335,49.86828291041667,52.0,75.0
182,49.2765284,49.876261622916665,61.0,97.0
183,49.925463683333334,49.94275089375,45.0,82.0
184,49.94275089375,52.33902421458333,57.0,92.0
185,49.94275089375,52.36827949375,45.0,68.0
186,49.94275089375,52.38290713333333,61.0,102.0
187,49.94275089375,52.39088584583333,64.0,93.0
188,49.94275089375,52.39221563125,52.0,79.0
189,52.81508739375,53.163491172916665,47.0,69.0
190,52.81508739375,53.21402301875,59.0,73.0
191,52.49593889375,53.27918250416667,40.0,93.0
192,53.13423589375,53.80577752916667,68.0,102.0
193,53.13423589375,53.8164158125,64.0,99.0
194,53.45338439375,53.8722668,59.0,97.0
195,54.25125564375,54.45870216875,59.0,95.0
196,54.09168139375,54.65949976666666,54.0,96.0
197,53.77253289375,54.727318822916665,47.0,96.0
198,54.41082989375,54.95870148541667,66.0,122.0
199,54.41082989375,55.01189290208333,63.0,122.0
200,54.72997839375,55.06641410416667,59.0,96.0
201,55.52784964375,55.622264408333336,61.0,42.0
202,55.36827539375,55.804445010416664,56.0,102.0
203,55.68742389375,56.1302424375,61.0,77.0
204,55.04912689375,56.291146472916665,49.0,107.0
205,56.16614664375,56.323061322916665,61.0,37.0
206,56.00657239375,56.332369820833335,56.0,107.0
207,55.68742389375,56.398859091666665,64.0,92.0
208,56.80444364375,57.015879525,57.0,93.0
209,56.32572089375,57.240613260416666,45.0,93.0
210,56.64486939375,57.24194304583333,52.0,89.0
211,56.96401789375,57.55710218958333,64.0,92.0
212,56.96401789375,57.590346825,61.0,99.0
213,57.28316639375,57.63157017291667,57.0,107.0
214,57.60231489375,58.49460090833333,40.0,93.0
215,57.92146339375,58.52252640208334,47.0,74.0
216,58.24061189375,58.94539816458333,64.0,99.0
217,58.24061189375,58.9547066625,68.0,95.0
218,58.55976039375,59.00922786458333,59.0,95.0
219,59.35763164375,59.55178031458333,59.0,83.0
220,59.19805739375,59.73795027291666,54.0,83.0
221,58.87890889375,59.77784383541667,47.0,83.0
222,59.51720589375,60.079705125,66.0,102.0
223,59.51720589375,60.15550289375,63.0,112.0
224,59.83635439375,60.20337516875,59.0,100.0
225,60.47465139375,60.880235945833334,56.0,95.0
226,60.15550289375,61.17677809375,49.0,90.0
227,61.11294839375,61.41480968333333,56.0,99.0
228,60.63422564375,61.48794788125,61.0,69.0
229,60.79379989375,61.51454358958333,64.0,93.0
230,61.91081964375,62.11560659791667,57.0,93.0
231,61.43209689375,62.58236127916667,45.0,77.0
232,61.75124539375,62.58502085,52.0,68.0
233,62.07039389375,62.6727866875,61.0,93.0
234,62.38954239375,62.682095185416664,57.0,96.0
235,62.07039389375,62.68741432708333,64.0,93.0
236,63.02783939375,63.376243172916666,47.0,69.0
237,63.02783939375,63.42677501875,59.0,73.0
238,62.70869089375,63.491934504166665,40.0,93.0
239,63.34698789375,64.01852952916667,68.0,102.0
240,63.34698789375,64.0291678125,64.0,99.0
241,63.66613639375,64.0850188,59.0,97.0
242,64.46400764375,64.67145416875,59.0,95.0
243,64.30443339375,64.87225176666666,54.0,96.0
244,63.98528489375,64.94007082291667,47.0,96.0
245,64.62358189375,65.17145348541666,66.0,122.0
246,64.62358189375,65.22464490208333,63.0,122.0
247,64.94273039375,65.27916610416666,59.0,96.0
248,65.74060164375,65.83501640833333,61.0,42.0
249,65.58102739375,66.01719701041667,56.0,102.0
250,65.90017589375,66.3429944375,61.0,77.0
251,65.26187889375,66.50389847291666,49.0,107.0
252,66.37889864375,66.53581332291667,61.0,37.0
253,66.21932439375,66.54512182083333,56.0,107.0
254,65.90017589375,66.61161109166666,64.0,92.0
255,67.01719564375,67.228631525,57.0,93.0
256,66.53847289375,67.45336526041666,45.0,93.0
257,66.85762139375,67.45469504583333,52.0,89.0
258,67.17676989375,67.76985418958333,64.0,92.0
259,67.17676989375,67.803098825,61.0,99.0
260,67.49591839375,67.84432217291666,57.0,107.0
261,67.81506689375,68.70735290833333,40.0,93.0
262,68.13421539375,68.73527840208334,47.0,74.0
263,68.45336389375,69.15815016458333,64.0,99.0
264,68.45336389375,69.1674586625,68.0,95.0
265,68.77251239375,69.22197986458333,59.0,95.0
266,69.57038364375,69.76453231458333,59.0,83.0
267,69.41080939375,69.95070227291667,54.0,83.0
268,69.09166089375,69.99059583541667,47.0,83.0
269,69.72995789375,70.292457125,66.0,102.0
270,69.72995789375,70.36825489375,63.0,112.0
271,70.04910639375,70.41612716875,59.0,100.0
272,70.68740339375,71.09298794583333,56.0,95.0
273,70.36825489375,71.38953009375,49.0,90.0
274,71.32570039375,71.62756168333333,56.0,99.0
275,70.84697764375,71.70069988125,61.0,69.0
276,71.00655189375,71.72729558958333,64.0,93.0
277,72.12357164375,72.32835859791666,57.0,93.0
278,71.64484889375,72.79511327916667,45.0,77.0
279,71.96399739375,72.79777285,52.0,68.0
280,72.28314589375,72.8855386875,61.0,93.0
281,72.60229439375,72.89484718541667,57.0,96.0
282,72.28314589375,72.90016632708333,64.0,93.0
283,72.92144289375,75.49989681666666,59.0,79.0
284,72.92144289375,75.50388617291667,64.0,82.0
285,72.92144289375,75.5185138125,47.0,63.0
286,72.92144289375,75.51984359791666,52.0,74.0
287,72.92144289375,75.52250316875,68.0,78.0
288,72.92144289375,75.52915209583334,40.0,61.0
289,76.1248959625,76.72994832708333,56.0,83.0
290,76.43340617916667,76.87223536666667,52.0,78.0
291,75.81239638958333,76.95202249166667,47.0,89.0
292,76.7631929625,77.34430918958333,59.0,93.0
293,77.08500103333333,77.45202180833333,47.0,59.0
294,77.36292618541667,77.73792567291666,56.0,77.0
295,77.68207468541667,77.97994661875,59.0,72.0
296,78.3110631875,78.84962628125,54.0,93.0
297,78.97994525208334,79.49989135,54.0,92.0
298,78.63154147291667,79.66611452708334,59.0,88.0
299,79.61292311041666,79.84563555833333,54.0,90.0
300,78.00388275625,79.92542268333334,47.0,77.0
301,79.29909375208334,80.5131878375,66.0,107.0
302,79.90946525833333,80.52781547708334,63.0,96.0
303,80.24058182708333,80.5770175375,59.0,89.0
304,80.86558097291666,81.27648466666666,56.0,74.0
305,81.49190990416666,81.89084552916667,56.0,86.0
306,81.18605925833333,82.03446235416666,61.0,75.0
307,80.54111333125,82.05573892083333,49.0,102.0
308,82.13552604583333,82.28047265625,49.0,31.0
309,82.11557926458333,82.47994046875,56.0,89.0
310,82.77382304583334,83.05706733958333,56.0,85.0
311,82.45068518958334,83.07834390625,61.0,55.0
312,81.81105840416667,83.11956725416667,64.0,73.0
313,83.43605618333333,83.8722258,52.0,55.0
314,84.07435318333333,84.58632056875,52.0,69.0
315,83.74323661458334,84.80174580625,57.0,92.0
316,84.70467147083333,85.10759645208333,52.0,86.0
317,83.06238648125,85.14749001458333,45.0,75.0
318,85.34163868541667,85.67275525416666,57.0,97.0
319,85.02381997083333,85.68472332291667,61.0,112.0
320,84.41211867916667,85.69536160625,64.0,96.0
321,86.28711611666667,87.06770015625,56.0,112.0
322,86.61025397291667,87.08498736666667,52.0,83.0
323,86.94004075625,87.32567852708333,59.0,77.0
324,85.63286169166666,87.64748659791667,40.0,86.0
325,85.97993568541666,87.66078445208333,47.0,70.0
326,86.94668968333333,87.72993329375,64.0,76.0
327,87.25785947083334,87.80041192083333,52.0,90.0
328,87.91078411041667,88.20732625833334,59.0,74.0
329,87.5743484,88.21131561458333,56.0,95.0
330,87.90812453958333,88.228602825,64.0,85.0
331,88.53711304166667,88.96929330208333,54.0,67.0
332,89.20599510625,89.61423922916667,54.0,92.0
333,88.83631476041667,89.98790893125,59.0,93.0
334,89.4972181125,89.99189828749999,66.0,99.0
335,89.49854789791667,90.00918549791666,63.0,92.0
336,89.82567511041667,90.22727030625,54.0,95.0
337,88.22328368333334,90.3110467875,47.0,81.0
338,90.45998275416666,90.85625880833334,59.0,92.0
339,90.12886618541667,90.8695566625,63.0,92.0
340,90.12487682916667,90.87354601875,66.0,93.0
341,91.72992782708333,92.16875701458333,49.0,85.0
342,92.06370396666667,92.53311821875,61.0,95.0
343,92.058384825,92.57035221041667,56.0,83.0
344,90.76982275625,92.72992646041666,37.0,82.0
345,91.11290739374999,92.73923495833333,44.0,45.0
346,91.41077932708333,92.7445541,52.0,85.0
347,92.3695546125,92.7684902375,49.0,97.0
348,92.66742654583334,93.26051084166667,56.0,70.0
349,92.98125590416667,93.26715976875,52.0,75.0
350,92.67540525833333,93.27513848125,61.0,97.0
351,93.63684011458334,94.12221179166667,52.0,66.0
352,94.29641368125,94.6674238125,52.0,79.0
353,93.97061625416667,94.70997694583333,57.0,93.0
354,94.611572825,95.28311446041667,61.0,88.0
355,94.61556218125,95.409444075,64.0,89.0
356,94.90545540208333,95.73524150208333,52.0,100.0
357,93.32434054166667,95.73923085833333,45.0,82.0
358,95.569018325,95.87752854166666,61.0,95.0
359,95.22992304375,95.888166825,57.0,107.0
360,95.57034811041666,95.90811360625,64.0,96.0
361,96.55571910416667,97.16077146875,56.0,83.0
362,96.86422932083333,97.30305850833334,52.0,78.0
363,96.24321953125,97.38284563333333,47.0,89.0
364,97.19401610416666,97.77513233125,59.0,93.0
365,95.90013489374999,97.82832374791667,40.0,81.0
366,97.515824175,97.88284495,47.0,59.0
367,97.79374932708333,98.16874881458334,56.0,77.0
368,98.11289782708333,98.41076976041667,59.0,72.0
369,98.74188632916666,99.28044942291666,54.0,93.0
370,99.41076839375,99.93071449166666,54.0,92.0
371,99.06236461458333,100.09693766875,59.0,88.0
372,100.04374625208334,100.2764587,54.0,90.0
373,98.43470589791667,100.356245825,47.0,77.0
374,99.72991689375,100.94401097916666,66.0,107.0
375,100.3402884,100.95863861875,63.0,96.0
376,100.67140496875,101.00784067916666,59.0,89.0
377,101.29640411458334,101.70730780833333,56.0,74.0
378,101.92273304583334,102.32166867083333,56.0,86.0
379,101.6168824,102.46528549583333,61.0,75.0
380,100.97193647291667,102.4865620625,49.0,102.0
381,102.5663491875,102.71129579791666,49.0,31.0
382,102.54640240625,102.91076361041667,56.0,89.0
383,103.2046461875,103.48789048125,56.0,85.0
384,102.88150833125,103.50916704791666,61.0,55.0
385,102.24188154583334,103.55039039583333,64.0,73.0
386,103.866879325,104.30304894166666,52.0,55.0
387,104.505176325,105.01714371041666,52.0,69.0
388,104.17405975625,105.23256894791666,57.0,92.0
389,105.1354946125,105.53841959374999,52.0,86.0
390,103.49320962291667,105.57831315625,45.0,75.0
391,105.77246182708333,106.10357839583334,57.0,97.0
392,105.4546431125,106.11554646458333,61.0,112.0
393,104.84294182083333,106.12618474791667,64.0,96.0
394,106.71793925833333,107.49852329791666,56.0,112.0
395,107.04107711458333,107.51581050833333,52.0,83.0
396,107.37086389791666,107.75650166875,59.0,77.0
397,106.06368483333333,108.07830973958333,40.0,86.0
398,106.41075882708333,108.09160759375,47.0,70.0
399,107.377512825,108.16075643541667,64.0,76.0
400,107.6886826125,108.2312350625,52.0,90.0
401,108.34160725208334,108.6381494,59.0,74.0
402,108.00517154166667,108.64213875625,56.0,95.0
403,108.33894768125,108.65942596666666,64.0,85.0
404,108.96793618333334,109.40011644375,54.0,67.0
405,109.63681824791666,110.04506237083334,54.0,92.0
406,109.26713790208333,110.41873207291667,59.0,93.0
407,109.92804125416667,110.42272142916667,66.0,99.0
408,109.92937103958333,110.44000863958334,63.0,92.0
409,110.25649825208333,110.65809344791667,54.0,95.0
410,108.654106825,110.74186992916667,47.0,81.0
411,110.89080589583334,111.28708195,59.0,92.0
412,110.55968932708333,111.30037980416667,63.0,92.0
413,110.55569997083333,111.30436916041667,66.0,93.0
414,112.16075096875,112.59958015625,49.0,85.0
415,112.49452710833333,112.96394136041667,61.0,95.0
416,112.48920796666667,113.00117535208334,56.0,83.0
417,111.20064589791667,113.16074960208333,37.0,82.0
418,111.54373053541667,113.1700581,44.0,45.0
419,111.84160246875,113.17537724166667,52.0,85.0
420,112.80037775416666,113.19931337916667,49.0,97.0
421,113.0982496875,113.69133398333334,56.0,70.0
422,113.41207904583334,113.69798291041667,52.0,75.0
423,113.1062284,113.70596162291666,61.0,97.0
424,113.75516368333334,113.77245089375,45.0,82.0
425,113.77245089375,116.16872421458334,57.0,92.0
426,113.77245089375,116.19797949375,45.0,68.0
427,113.77245089375,116.21260713333334,61.0,102.0
428,113.77245089375,116.22058584583333,64.0,93.0
429,113.77245089375,116.22191563125,52.0,79.0
430,116.64478739375,116.99319117291667,47.0,69.0
431,116.64478739375,117.04372301875,59.0,73.0
432,116.32563889375,117.10888250416667,40.0,93.0
433,116.96393589375,117.63547752916666,68.0,102.0
434,116.96393589375,117.6461158125,64.0,99.0
435,117.28308439375,117.7019668,59.0,97.0
436,118.08095564375,118.28840216875,59.0,95.0
437,117.92138139375,118.48919976666667,54.0,96.0
438,117.60223289375,118.55701882291666,47.0,96.0
439,118.24052989375,118.78840148541667,66.0,122.0
440,118.24052989375,118.84159290208333,63.0,122.0
441,118.55967839375,118.89611410416667,59.0,96.0
442,119.35754964375,119.45196440833334,61.0,42.0
443,119.19797539375,119.63414501041666,56.0,102.0
444,119.51712389375,119.9599424375,61.0,77.0
445,118.87882689375,120.12084647291667,49.0,107.0
446,119.99584664375,120.15276132291666,61.0,37.0
447,119.83627239375,120.16206982083334,56.0,107.0
448,119.51712389375,120.22855909166667,64.0,92.0
449,120.63414364375,120.845579525,57.0,93.0
450,120.15542089375,121.07031326041667,45.0,93.0
451,120.47456939375,121.07164304583333,52.0,89.0
452,120.79371789375,121.38680218958334,64.0,92.0
453,120.79371789375,121.420046825,61.0,99.0
454,121.11286639375,121.46127017291667,57.0,107.0
455,121.43201489375,122.32430090833333,40.0,93.0
456,121.75116339375,122.35222640208333,47.0,74.0
457,122.07031189375,122.77509816458333,64.0,99.0
458,122.07031189375,122.7844066625,68.0,95.0
459,122.38946039375,122.83892786458333,59.0,95.0
460,123.18733164375,123.38148031458333,59.0,83.0
461,123.02775739375,123.56765027291667,54.0,83.0
462,122.70860889375,123.60754383541666,47.0,83.0
463,123.34690589375,123.909405125,66.0,102.0
464,123.34690589375,123.98520289375,63.0,112.0
465,123.66605439375,124.03307516875,59.0,100.0
466,124.30435139375,124.70993594583334,56.0,95.0
467,123.98520289375,125.00647809375,49.0,90.0
468,124.94264839375,125.24450968333333,56.0,99.0
469,124.46392564375,125.31764788125,61.0,69.0
470,124.62349989375,125.34424358958333,64.0,93.0
471,125.74051964375,125.94530659791667,57.0,93.0
472,125.26179689375,126.41206127916666,45.0,77.0
473,125.58094539375,126.41472085,52.0,68.0
474,125.90009389375,126.5024866875,61.0,93.0
475,126.21924239375,126.51179518541666,57.0,96.0
476,125.90009389375,126.51711432708333,64.0,93.0
477,126.85753939375,127.20594317291666,47.0,69.0
478,126.85753939375,127.25647501875,59.0,73.0
479,126.53839089375,127.32163450416667,40.0,93.0
480,127.17668789375,127.84822952916666,68.0,102.0
481,127.17668789375,127.8588678125,64.0,99.0
482,127.49583639375,127.9147188,59.0,97.0
483,128.29370764375,128.50115416875,59.0,95.0
484,128.13413339375,128.70195176666667,54.0,96.0
485,127.81498489375,128.76977082291666,47.0,96.0
486,128.45328189375,129.00115348541667,66.0,122.0
487,128.45328189375,129.05434490208333,63.0,122.0
488,128.77243039375,129.10886610416668,59.0,96.0
489,129.57030164374999,129.66471640833333,61.0,42.0
490,129.41072739375,129.84689701041665,56.0,102.0
491,129.72987589375,130.1726944375,61.0,77.0
492,129.09157889375,130.33359847291666,49.0,107.0
493,130.20859864375,130.36551332291666,61.0,37.0
494,130.04902439375,130.37482182083332,56.0,107.0
495,129.72987589375,130.44131109166668,64.0,92.0
496,130.84689564375,131.058331525,57.0,93.0
497,130.36817289375,131.28306526041666,45.0,93.0
498,130.68732139375,131.28439504583332,52.0,89.0
499,131.00646989375,131.59955418958333,64.0,92.0
500,131.00646989375,131.632798825,61.0,99.0
501,131.32561839375,131.67402217291666,57.0,107.0
502,131.64476689375,132.53705290833332,40.0,93.0
503,131.96391539375,132.56497840208334,47.0,74.0
504,132.28306389375,132.98785016458334,64.0,99.0
505,132.28306389375,132.9971586625,68.0,95.0
506,132.60221239375,133.05167986458332,59.0,95.0
507,133.40008364375,133.59423231458334,59.0,83.0
508,133.24050939375,133.78040227291666,54.0,83.0
509,132.92136089375,133.82029583541666,47.0,83.0
510,133.55965789375,134.122157125,66.0,102.0
511,133.55965789375,134.19795489375,63.0,112.0
512,133.87880639375,134.24582716875,59.0,100.0
513,134.51710339375,134.92268794583333,56.0,95.0
514,134.19795489375,135.21923009374999,49.0,90.0
515,135.15540039375,135.45726168333334,56.0,99.0
516,134.67667764375,135.53039988125,61.0,69.0
517,134.83625189375,135.55699558958332,64.0,93.0
518,135.95327164374999,136.15805859791666,57.0,93.0
519,135.47454889375,136.62481327916666,45.0,77.0
520,135.79369739375,136.62747285,52.0,68.0
521,136.11284589375,136.7152386875,61.0,93.0
522,136.43199439375,136.72454718541667,57.0,96.0
523,136.11284589375,136.72986632708333,64.0,93.0
524,136.75114289375,137.93332212916667,52.0,79.0
525,136.75114289375,137.9758752625,64.0,90.0
526,136.75114289375,137.99449225833334,68.0,78.0
527,136.75114289375,138.01177946875,59.0,81.0
528,139.30433089375,140.53172283333333,47.0,66.0
529,139.30433089375,140.55831854166667,63.0,81.0
530,139.30433089375,140.57959510833334,59.0,74.0
531,139.30433089375,140.59023339166666,66.0,74.0
532,141.85751889375,143.217889375,64.0,75.0
533,141.85751889375,143.26310207916666,68.0,78.0
534,141.85751889375,143.27241057708332,61.0,90.0
535,141.85751889375,143.28038928958333,49.0,55.0
536,144.41070689375,146.37878931041666,45.0,55.0
537,144.41070689375,146.40006587708334,52.0,57.0
538,144.41070689375,146.42001265833332,64.0,75.0
539,144.41070689375,146.42666158541667,57.0,78.0
540,144.41070689375,146.43597008333333,61.0,83.0
541,147.28304339375,147.67665987708332,59.0,53.0
542,147.60219189375,148.00644666041666,68.0,64.0
543,147.60219189375,148.05165936458334,64.0,75.0
544,147.92134039375,148.38676528958334,59.0,52.0
545,148.24048889375,148.70192443333335,64.0,66.0
546,148.55963739375,148.92665816875,59.0,70.0
547,146.96389489375,149.29899808541666,52.0,79.0
548,148.87878589375,149.50245525416668,64.0,71.0
549,148.87878589375,149.51841267916666,68.0,66.0
550,149.19793439375,149.64474229375,59.0,64.0
551,149.83623139375,150.22984787708333,59.0,59.0
552,150.15537989375,150.5822410125,66.0,73.0
553,150.15537989375,150.59553886666666,63.0,69.0
554,150.47452839375,150.87479380416667,59.0,61.0
555,150.79367689375,151.18064445,66.0,65.0
556,150.79367689375,151.20724015833332,63.0,62.0
557,149.51708289375,151.38410161875,47.0,59.0
558,151.11282539375,151.50378230625,59.0,61.0
559,151.43197389375,151.99181355416667,66.0,75.0
560,151.43197389375,152.0184092625,63.0,72.0
561,151.75112239375,152.08622831875,59.0,73.0
562,152.38941939375,152.77638695,56.0,59.0
563,152.70856789375,153.07824823958333,61.0,56.0
564,152.70856789375,153.08489716666668,64.0,65.0
565,153.02771639375,153.40803502291666,56.0,68.0
566,153.34686489375,153.72718352291668,64.0,58.0
567,153.34686489375,153.73117287916668,61.0,58.0
568,153.66601339375,154.03037459791668,56.0,88.0
569,152.07027089375,154.30165082291666,49.0,64.0
570,154.30431039375,154.59420361458334,56.0,79.0
571,153.98516189375,154.60883125416666,64.0,64.0
572,153.98516189375,154.62611846458333,61.0,61.0
573,154.94260739375,155.41468121666668,52.0,53.0
574,155.26175589375,155.6567021625,64.0,68.0
575,155.26175589375,155.67930851458334,61.0,72.0
576,155.58090439375,155.96521237916667,57.0,72.0
577,155.90005289375,156.34154165208332,61.0,63.0
578,155.90005289375,156.35085014999999,64.0,74.0
579,156.21920139375,156.62478594583334,57.0,78.0
580,156.53834989375,157.02372157083335,61.0,97.0
581,156.85749839375,157.0449981375,57.0,83.0
582,156.53834989375,157.05297685,64.0,92.0
583,154.62345889375,157.07558320208332,45.0,66.0
584,157.17664689375,159.781696525,45.0,67.0
585,157.17664689375,159.7896752375,52.0,69.0
586,157.17664689375,159.79233480833332,57.0,76.0
587,157.17664689375,159.80164330624999,61.0,81.0
588,157.17664689375,159.8295688,64.0,69.0
589,160.04898339375,160.39738717291667,47.0,69.0
590,160.04898339375,160.44791901874999,59.0,73.0
591,159.72983489375,160.51307850416666,40.0,93.0
592,160.36813189375,161.03967352916666,68.0,102.0
593,160.36813189375,161.0503118125,64.0,99.0
594,160.68728039375,161.1061628,59.0,97.0
595,161.48515164375,161.69259816875,59.0,95.0
596,161.32557739375,161.89339576666666,54.0,96.0
597,161.00642889375,161.96121482291667,47.0,96.0
598,161.64472589375,162.19259748541666,66.0,122.0
599,161.64472589375,162.24578890208332,63.0,122.0
600,161.96387439375,162.30031010416667,59.0,96.0
601,162.76174564375,162.85616040833332,61.0,42.0
602,162.60217139375,163.03834101041667,56.0,102.0
603,162.92131989375,163.3641384375,61.0,77.0
604,162.28302289375,163.52504247291665,49.0,107.0
605,163.40004264375,163.55695732291667,61.0,37.0
606,163.24046839375,163.56626582083334,56.0,107.0
607,162.92131989375,163.63275509166667,64.0,92.0
608,164.03833964375,164.249775525,57.0,93.0
609,163.55961689375,164.47450926041665,45.0,93.0
610,163.87876539375,164.47583904583334,52.0,89.0
611,164.19791389375,164.79099818958332,64.0,92.0
612,164.19791389375,164.824242825,61.0,99.0
613,164.51706239375,164.86546617291665,57.0,107.0
614,164.83621089375,165.72849690833334,40.0,93.0
615,165.15535939375,165.75642240208333,47.0,74.0
616,165.47450789375,166.17929416458333,64.0,99.0
617,165.47450789375,166.1886026625,68.0,95.0
618,165.79365639375,166.24312386458334,59.0,95.0
619,166.59152764375,166.78567631458333,59.0,83.0
620,166.43195339375,166.97184627291668,54.0,83.0
621,166.11280489375,167.01173983541668,47.0,83.0
622,166.75110189375,167.313601125,66.0,102.0
623,166.75110189375,167.38939889375,63.0,112.0
624,167.07025039375,167.43727116875,59.0,100.0
625,167.70854739375,168.11413194583332,56.0,95.0
626,167.38939889375,168.41067409375,49.0,90.0
627,168.34684439375,168.64870568333333,56.0,99.0
628,167.86812164375,168.72184388125,61.0,69.0
629,168.02769589375,168.74843958958334,64.0,93.0
630,169.14471564375,169.34950259791665,57.0,93.0
631,168.66599289375,169.81625727916668,45.0,77.0
632,168.98514139375,169.81891685,52.0,68.0
633,169.30428989375,169.9066826875,61.0,93.0
634,169.62343839375,169.91599118541666,57.0,96.0
635,169.30428989375,169.92131032708332,64.0,93.0
636,170.26173539375,170.61013917291666,47.0,69.0
637,170.26173539375,170.66067101875,59.0,73.0
638,169.94258689375,170.72583050416665,40.0,93.0
639,170.58088389375,171.25242552916666,68.0,102.0
640,170.58088389375,171.2630638125,64.0,99.0
641,170.90003239375,171.3189148,59.0,97.0
642,171.69790364375,171.90535016875,59.0,95.0
643,171.53832939375,172.10614776666665,54.0,96.0
644,171.21918089375,172.17396682291667,47.0,96.0
645,171.85747789375,172.40534948541668,66.0,122.0
646,171.85747789375,172.45854090208334,63.0,122.0
647,172.17662639375,172.51306210416666,59.0,96.0
648,172.97449764375,173.06891240833332,61.0,42.0
649,172.81492339375,173.25109301041667,56.0,102.0
650,173.13407189375,173.5768904375,61.0,77.0
651,172.49577489375,173.73779447291668,49.0,107.0
652,173.61279464375,173.76970932291667,61.0,37.0
653,173.45322039375,173.77901782083333,56.0,107.0
654,173.13407189375,173.84550709166666,64.0,92.0
655,174.25109164375,174.462527525,57.0,93.0
656,173.77236889375,174.68726126041668,45.0,93.0
657,174.09151739375,174.68859104583333,52.0,89.0
658,174.41066589375,175.00375018958334,64.0,92.0
659,174.41066589375,175.036994825,61.0,99.0
660,174.72981439375,175.07821817291668,57.0,107.0
661,175.04896289375,175.94124890833334,40.0,93.0
662,175.36811139375,175.96917440208333,47.0,74.0
663,175.68725989375,176.39204616458332,64.0,99.0
664,175.68725989375,176.4013546625,68.0,95.0
665,176.00640839375,176.45587586458333,59.0,95.0
666,176.80427964375,176.99842831458332,59.0,83.0
667,176.64470539375,177.18459827291667,54.0,83.0
668,176.32555689375,177.22449183541667,47.0,83.0
669,176.96385389375,177.52635312499999,66.0,102.0
670,176.96385389375,177.60215089375,63.0,112.0
671,177.28300239375,177.65002316875,59.0,100.0
672,177.92129939375,178.32688394583334,56.0,95.0
673,177.60215089375,178.62342609375,49.0,90.0
674,178.55959639375,178.86145768333333,56.0,99.0
675,178.08087364375,178.93459588125,61.0,69.0
676,178.24044789375,178.96119158958334,64.0,93.0
677,179.35746764375,179.56225459791668,57.0,93.0
678,178.87874489375,180.02900927916667,45.0,77.0
679,179.19789339375,180.03166885,52.0,68.0
680,179.51704189375,180.1194346875,61.0,93.0
681,179.83619039375,180.12874318541665,57.0,96.0
682,179.51704189375,180.13406232708334,64.0,93.0
683,180.47448739375,180.82289117291666,47.0,69.0
684,180.47448739375,180.87342301875,59.0,73.0
685,180.15533889375,180.93858250416667,40.0,93.0
686,180.79363589375,181.46517752916665,68.0,102.0
687,180.79363589375,181.4758158125,64.0,99.0
688,181.11278439375,181.5316668,59.0,97.0
689,181.91065564375,182.11810216875,59.0,95.0
690,181.75108139375,182.31889976666668,54.0,96.0
691,181.43193289375,182.38671882291666,47.0,96.0
692,182.07022989375,182.61810148541667,66.0,122.0
693,182.07022989375,182.67129290208334,63.0,122.0
694,182.38937839375,182.72581410416666,59.0,96.0
695,183.18724964375,183.28166440833334,61.0,42.0
696,183.02767539375,183.46384501041666,56.0,102.0
697,183.34682389374998,183.7896424375,61.0,77.0
698,182.70852689375,183.95054647291667,49.0,107.0
699,183.82554664375,183.98246132291666,61.0,37.0
700,183.66597239375,183.99176982083333,56.0,107.0
701,183.34682389374998,184.05825909166666,64.0,92.0
702,184.46384364375,184.675279525,57.0,93.0
703,183.98512089375,184.90001326041667,45.0,93.0
704,184.30426939375,184.90134304583333,52.0,89.0
705,184.62341789375,185.21650218958334,64.0,92.0
706,184.62341789375,185.249746825,61.0,99.0
707,184.94256639374998,185.29097017291667,57.0,107.0
708,185.26171489375,186.15400090833333,40.0,93.0
709,185.58086339375,186.18192640208332,47.0,74.0
710,185.90001189375,186.60479816458334,64.0,99.0
711,185.90001189375,186.6141066625,68.0,95.0
712,186.21916039375,186.66862786458333,59.0,95.0
713,187.01703164375,187.21118031458334,59.0,83.0
714,186.85745739375,187.39735027291667,54.0,83.0
715,186.53830889374998,187.43724383541667,47.0,83.0
716,187.17660589375,187.739105125,66.0,102.0
717,187.17660589375,187.81490289375,63.0,112.0
718,187.49575439375,187.86277516875,59.0,100.0
719,188.13405139374998,188.53963594583334,56.0,95.0
720,187.81490289375,188.83617809375,49.0,90.0
721,188.77234839375,189.07420968333332,56.0,99.0
722,188.29362564375,189.14734788125,61.0,69.0
723,188.45319989375,189.17394358958333,64.0,93.0
724,189.57021964375,189.77500659791667,57.0,93.0
725,189.09149689375,190.24176127916667,45.0,77.0
726,189.41064539375,190.24442085,52.0,68.0
727,189.72979389374999,190.3321866875,61.0,93.0
728,190.04894239375,190.34149518541668,57.0,96.0
729,189.72979389374999,190.34681432708334,64.0,93.0
730,190.68723939375,191.03564317291668,47.0,69.0
731,190.68723939375,191.08617501875,59.0,73.0
732,190.36809089375,191.15133450416667,40.0,93.0
733,191.00638789375,191.67792952916668,68.0,102.0
734,191.00638789375,191.6885678125,64.0,99.0
735,191.32553639374999,191.7444188,59.0,97.0
736,192.12340764375,192.33085416875,59.0,95.0
737,191.96383339375,192.53165176666667,54.0,96.0
738,191.64468489375,192.59947082291666,47.0,96.0
739,192.28298189375,192.83085348541667,66.0,122.0
740,192.28298189375,192.88404490208333,63.0,122.0
741,192.60213039375,192.93856610416665,59.0,96.0
742,193.40000164375,193.49441640833334,61.0,42.0
743,193.24042739375,193.67659701041666,56.0,102.0
744,193.55957589375,194.0023944375,61.0,77.0
745,192.92127889374999,194.16329847291667,49.0,107.0
746,194.03829864375,194.19521332291666,61.0,37.0
747,193.87872439375,194.20452182083332,56.0,107.0
748,193.55957589375,194.27101109166668,64.0,92.0
749,194.67659564375,194.888031525,57.0,93.0
750,194.19787289375,195.11276526041667,45.0,93.0
751,194.51702139374999,195.11409504583332,52.0,89.0
752,194.83616989375,195.42925418958333,64.0,92.0
753,194.83616989375,195.462498825,61.0,99.0
754,195.15531839375,195.50372217291667,57.0,107.0
755,195.47446689375,196.36675290833332,40.0,93.0
756,195.79361539375,196.39467840208334,47.0,74.0
757,196.11276389374999,196.81755016458334,64.0,99.0
758,196.11276389374999,196.8268586625,68.0,95.0
759,196.43191239375,196.88137986458332,59.0,95.0
760,197.22978364375,197.42393231458334,59.0,83.0
761,197.07020939375,197.61010227291666,54.0,83.0
762,196.75106089375,197.64999583541666,47.0,83.0
763,197.38935789375,197.951857125,66.0,102.0
764,197.70850639374999,198.02765489375,59.0,100.0
765,197.38935789375,198.02765489375,63.0,112.0
766,198.02765489375,201.20318246875,61.0,71.0
767,198.02765489375,201.22179946458334,56.0,78.0
768,198.02765489375,201.2311079625,64.0,73.0
769,198.02765489375,201.25770367083334,49.0,99.0
