,start,end,pitch,velocity
0,35.62936636875,35.88375219375,79.0,101.0
1,35.892524118749996,36.146909943749996,79.0,93.0
2,36.15568186875,36.41006769375,79.0,93.0
3,36.41883961875,36.67322544375,84.0,88.0
4,36.68199736875,37.72585644375,84.0,88.0
5,37.73462836875,37.98901419375,86.0,93.0
6,37.99778611875,38.25217194375,86.0,93.0
7,38.26094386875,38.51532969375,84.0,88.0
8,38.52410161875,38.77848744375,82.0,82.0
9,38.78725936875,39.83111844375,82.0,69.0
10,39.83989036875,40.09427619375,77.0,97.0
11,40.103048118749996,40.357433943749996,77.0,78.0
12,40.36620586875,40.62059169375,77.0,78.0
13,40.62936361875,40.88374944375,75.0,85.0
14,40.892521368749996,41.146907193749996,77.0,88.0
15,41.15567911875,41.41006494375,77.0,85.0
16,41.41883686875,41.67322269375,77.0,91.0
17,41.68199461875,41.93638044375,82.0,73.0
18,41.94515236875,42.19953819375,79.0,88.0
19,42.20831011875,42.46269594375,75.0,75.0
20,42.47146786875,42.72585369375,77.0,88.0
21,42.73462561875,42.98901144375,79.0,82.0
22,42.99778336875,44.04164244375,79.0,88.0
23,44.05041436875,44.30480019375,79.0,91.0
24,44.31357211875,44.56795794375,79.0,85.0
25,44.57672986875,44.83111569375,79.0,82.0
26,44.83988761875,45.09427344375,84.0,80.0
27,45.10304536875,46.146904443749996,84.0,88.0
28,46.15567636875,46.41006219375,86.0,99.0
29,46.41883411875,46.67321994375,86.0,80.0
30,46.681991868749996,46.936377693749996,86.0,95.0
31,46.94514961875,47.19953544375,89.0,70.0
32,47.20830736875,48.25216644375,89.0,82.0
33,48.26093836875,48.51532419375,82.0,97.0
34,48.52409611875,48.77848194375,82.0,82.0
35,48.78725386875,49.04163969375,82.0,93.0
36,49.05041161875,49.30479744375,79.0,93.0
37,49.31356936875,49.56795519375,79.0,93.0
38,49.57672711875,50.09427069375,86.0,103.0
39,50.10304261875,50.35742844375,87.0,75.0
40,50.36620036875,50.62058619375,86.0,95.0
41,50.62935811875,50.88374394375,84.0,82.0
42,50.892515868749996,51.146901693749996,84.0,82.0
43,51.15567361875,51.41005944375,82.0,82.0
44,51.41883136875,52.46269044375,84.0,85.0
45,52.47146236875,52.72584819375,79.0,101.0
46,52.73462011875,52.98900594375,79.0,93.0
47,52.99777786875,53.25216369375,79.0,93.0
48,53.26093561875,53.51532144375,84.0,88.0
49,53.52409336875,54.56795244375,84.0,88.0
50,54.57672436875,54.83111019375,86.0,93.0
51,54.83988211875,55.09426794375,86.0,93.0
52,55.10303986875,55.35742569375,84.0,88.0
53,55.36619761875,55.62058344375,82.0,82.0
54,55.62935536875,56.67321444375,82.0,69.0
55,56.681986368749996,56.936372193749996,77.0,97.0
56,56.94514411875,57.19952994375,77.0,78.0
57,57.20830186875,57.46268769375,77.0,78.0
58,57.471459618749996,57.725845443749996,75.0,85.0
59,57.73461736875,57.98900319375,77.0,88.0
60,57.99777511875,58.25216094375,77.0,85.0
61,58.26093286875,58.51531869375,77.0,91.0
62,58.52409061875,58.77847644375,82.0,73.0
63,58.78724836875,59.04163419375,79.0,88.0
64,59.05040611875,59.30479194375,75.0,75.0
65,59.31356386875,59.56794969375,77.0,88.0
66,59.57672161875,59.83110744375,79.0,82.0
67,59.83987936875,60.88373844375,79.0,88.0
68,60.892510368749996,61.146896193749996,79.0,91.0
69,61.15566811875,61.41005394375,79.0,85.0
70,61.41882586875,61.67321169375,79.0,82.0
71,61.681983618749996,61.936369443749996,84.0,80.0
72,61.94514136875,62.98900044375,84.0,88.0
73,62.99777236875,63.25215819375,86.0,99.0
74,63.26093011875,63.51531594375,86.0,80.0
75,63.52408786875,63.77847369375,86.0,95.0
76,63.78724561875,64.04163144374999,89.0,70.0
77,64.05040336875,65.09426244375,89.0,82.0
78,65.10303436875,65.35742019375,82.0,97.0
79,65.36619211874999,65.62057794374999,82.0,82.0
80,65.62934986875,65.88373569375,82.0,93.0
81,65.89250761875,66.14689344375,79.0,93.0
82,66.15566536875,66.41005119375,79.0,93.0
83,66.41882311875,66.93636669375,86.0,103.0
84,66.94513861875,67.19952444375,87.0,75.0
85,67.20829636875,67.46268219375,89.0,95.0
86,67.47145411875,67.72583994375,89.0,82.0
87,67.73461186875,67.98899769375,87.0,82.0
88,67.99776961875,68.25215544375,86.0,82.0
89,68.26092736875,69.30478644375,84.0,85.0
90,70.89250486875,71.14689069375,79.0,99.0
91,71.15566261875,71.41004844375,82.0,95.0
92,71.41882036875,71.93636394375,84.0,99.0
93,71.94513586875,72.19952169375,84.0,99.0
94,72.20829361875,72.46267944375,84.0,99.0
95,72.47145136875,72.98899494375,84.0,103.0
96,72.99776686875,73.25215269375,84.0,97.0
97,73.26092461875,73.51531044375,91.0,99.0
98,73.52408236875,73.77846819375,91.0,97.0
99,73.78724011874999,74.04162594374999,89.0,88.0
100,74.05039786875,74.30478369375,89.0,97.0
101,74.31355561875,74.56794144375,91.0,97.0
102,74.57671336874999,75.57671281875,89.0,99.0
103,75.62934436875,76.1797826625,86.0,101.0
104,76.15565986874999,76.1797826625,86.0,93.0
105,76.41881761875,76.66881748125,84.0,93.0
106,76.68197536875,76.903466475,82.0,95.0
107,76.94513311875,77.22144875625,82.0,95.0
108,77.20829086875,77.447325825,84.0,93.0
109,77.47144861875,77.74776425625,86.0,91.0
110,77.73460636875,77.74776425625,86.0,99.0
111,77.99776411875,78.254342925,84.0,85.0
112,78.26092186875,78.51092173125,84.0,93.0
113,78.52407961875,78.7938163125,82.0,88.0
114,78.78723736875,79.82671048125,84.0,91.0
115,79.83986836875,80.09425419375,89.0,95.0
116,80.10302611875,80.35741194375,89.0,97.0
117,80.36618386875,80.62056969375,89.0,95.0
118,80.62934161875,80.88372744375,87.0,97.0
119,80.89249936875,81.93635844375,89.0,101.0
120,81.94513036875,82.19951619375,91.0,101.0
121,82.20828811875,82.46267394375,91.0,85.0
122,82.47144586875,82.72583169375,87.0,82.0
123,82.73460361875,82.98898944375,86.0,78.0
124,82.99776136875,84.04162044375,84.0,97.0
125,84.05039236875,84.30477819375,82.0,85.0
126,84.31355011875,84.56793594375,82.0,78.0
127,84.57670786874999,84.83109369374999,82.0,70.0
128,84.83986561875,85.09425144375,84.0,78.0
129,85.10302336875,85.35740919375,86.0,85.0
130,85.36618111874999,85.62056694374999,86.0,93.0
131,85.62933886875,85.88372469375,86.0,91.0
132,85.89249661875,86.14688244375,87.0,91.0
133,86.15565436874999,86.41004019374999,89.0,67.0
134,86.41881211875,86.67319794375,89.0,82.0
135,86.68196986875,86.93635569375,87.0,95.0
136,86.94512761874999,87.19951344374999,86.0,88.0
137,87.73460086875,87.98898669375,79.0,99.0
138,87.99775861875,88.25214444375,82.0,95.0
139,87.20828536875,88.25214444375,84.0,95.0
140,88.26091636875,88.77845994375,84.0,99.0
141,88.78723186875,89.04161769375,84.0,99.0
142,89.05038961875,89.30477544375,84.0,99.0
143,89.31354736875,89.83109094375,84.0,103.0
144,89.83986286875,90.09424869375,84.0,97.0
145,90.10302061875,90.35740644375,91.0,99.0
146,90.36617836875,90.62056419375,91.0,97.0
147,90.62933611875,90.88372194375,89.0,88.0
148,90.89249386875,91.14687969375,89.0,97.0
149,91.15565161875,91.41003744375,91.0,97.0
150,91.41880936875,92.41880881875,89.0,99.0
151,92.47144036875,93.0218786625,86.0,101.0
152,92.99775586875,93.0218786625,86.0,93.0
153,93.26091361875,93.51091348125,84.0,93.0
154,93.52407136875,93.745562475,82.0,95.0
155,93.78722911875,94.06354475625,82.0,95.0
156,94.05038686875,94.289421825,84.0,93.0
157,94.31354461875,94.58986025624999,86.0,91.0
158,94.57670236874999,94.58986025624999,86.0,99.0
159,94.83986011875,95.096438925,84.0,85.0
160,95.10301786875,95.35301773124999,84.0,93.0
161,95.36617561874999,95.6359123125,82.0,88.0
162,95.62933336875,96.66880648125,84.0,91.0
163,96.68196436875,96.93635019375,89.0,95.0
164,96.94512211874999,97.19950794374999,89.0,97.0
165,97.20827986875,97.46266569375,89.0,95.0
166,97.47143761875,97.72582344375,87.0,97.0
167,97.73459536874999,98.77845444375,89.0,101.0
168,98.78722636875,99.04161219375,89.0,101.0
169,99.05038411875,99.30476994375,91.0,85.0
170,99.31354186875,99.56792769375,87.0,82.0
171,99.57669961875,99.83108544375,86.0,78.0
172,99.83985736875,100.88371644375,84.0,97.0
173,100.89248836875,101.14687419375,82.0,85.0
174,101.15564611875,101.41003194375,82.0,78.0
175,101.41880386875,101.67318969375,82.0,70.0
176,101.68196161875,101.93634744375,84.0,78.0
177,101.94511936875,102.19950519375,86.0,85.0
178,102.20827711875,102.46266294375,86.0,93.0
179,102.47143486875,102.72582069375,86.0,91.0
180,102.73459261875,102.98897844375,87.0,91.0
181,102.99775036875,103.25213619375,89.0,67.0
182,103.26090811875,103.51529394375,89.0,82.0
183,103.52406586875,103.77845169375,87.0,95.0
184,103.78722361875,104.04160944375,86.0,88.0
185,104.05038136875,105.09424044375,84.0,95.0
186,140.89246636875,141.14685219375,79.0,101.0
187,141.15562411874998,141.41000994375,79.0,93.0
188,141.41878186875,141.67316769375,79.0,93.0
189,141.68193961875,141.93632544375,84.0,88.0
190,141.94509736875,142.98895644375,84.0,88.0
191,142.99772836875,143.25211419375,86.0,93.0
192,143.26088611875,143.51527194375,86.0,93.0
193,143.52404386875,143.77842969374998,84.0,88.0
194,143.78720161875,144.04158744375,82.0,82.0
195,144.05035936875,145.09421844375,82.0,69.0
196,145.10299036875,145.35737619374999,77.0,97.0
197,145.36614811875,145.62053394375,77.0,78.0
198,145.62930586875,145.88369169375,77.0,78.0
199,145.89246361874999,146.14684944375,75.0,85.0
200,146.15562136875,146.41000719375,77.0,88.0
201,146.41877911875,146.67316494375,77.0,85.0
202,146.68193686875,146.93632269375,77.0,91.0
203,146.94509461875,147.19948044375,82.0,73.0
204,147.20825236875,147.46263819375,79.0,88.0
205,147.47141011875,147.72579594375,75.0,75.0
206,147.73456786875,147.98895369375,77.0,88.0
207,147.99772561875,148.25211144375,79.0,82.0
208,148.26088336875,149.30474244375,79.0,88.0
209,149.31351436875,149.56790019375,79.0,91.0
210,149.57667211875,149.83105794375,79.0,85.0
211,149.83982986875,150.09421569375,79.0,82.0
212,150.10298761875,150.35737344375,84.0,80.0
213,150.36614536875,151.41000444375,84.0,88.0
214,151.41877636875,151.67316219375,86.0,99.0
215,151.68193411875,151.93631994375,86.0,80.0
216,151.94509186874998,152.19947769375,86.0,95.0
217,152.20824961875,152.46263544375,89.0,70.0
218,152.47140736875,153.51526644375,89.0,82.0
219,153.52403836874998,153.77842419375,82.0,97.0
220,153.78719611875,154.04158194375,82.0,82.0
221,154.05035386875,154.30473969375,82.0,93.0
222,154.31351161875,154.56789744374998,79.0,93.0
223,154.57666936875,154.83105519375,79.0,93.0
224,154.83982711875,155.35737069375,86.0,103.0
225,155.36614261875,155.62052844375,87.0,75.0
226,155.62930036875,155.88368619375,86.0,95.0
227,155.89245811875,156.14684394374999,84.0,82.0
228,156.15561586875,156.41000169375,84.0,82.0
229,156.41877361875,156.67315944375,82.0,82.0
230,156.68193136874999,157.72579044375,84.0,85.0
231,157.73456236875,157.98894819375,79.0,101.0
232,157.99772011875,158.25210594375,79.0,93.0
233,158.26087786875,158.51526369375,79.0,93.0
234,158.52403561875,158.77842144375,84.0,88.0
235,158.78719336875,159.83105244375,84.0,88.0
236,159.83982436875,160.09421019375,86.0,93.0
237,160.10298211875,160.35736794375,86.0,93.0
238,160.36613986875,160.62052569375,84.0,88.0
239,160.62929761875,160.88368344375,82.0,82.0
240,160.89245536875,161.93631444375,82.0,69.0
241,161.94508636875,162.19947219374998,77.0,97.0
242,162.20824411875,162.46262994375,77.0,78.0
243,162.47140186875,162.72578769375,77.0,78.0
244,162.73455961874998,162.98894544375,75.0,85.0
245,162.99771736875,163.25210319375,77.0,88.0
246,163.26087511875,163.51526094375,77.0,85.0
247,163.52403286875,163.77841869374998,77.0,91.0
248,163.78719061875,164.04157644375,82.0,73.0
249,164.05034836875,164.30473419375,79.0,88.0
250,164.31350611874998,164.56789194375,75.0,75.0
251,164.57666386875,164.83104969375,77.0,88.0
252,164.83982161875,165.09420744375,79.0,82.0
253,165.10297936875,166.14683844375,79.0,88.0
254,166.15561036875,166.40999619375,79.0,91.0
255,166.41876811875,166.67315394375,79.0,85.0
256,166.68192586875,166.93631169374999,79.0,82.0
257,166.94508361875,167.19946944375,84.0,80.0
258,167.20824136875,168.25210044375,84.0,88.0
259,168.26087236875,168.51525819375,86.0,99.0
260,168.52403011875,168.77841594375,86.0,80.0
261,168.78718786875,169.04157369375,86.0,95.0
262,169.05034561875,169.30473144375,89.0,70.0
263,169.31350336875,170.35736244375,89.0,82.0
264,170.36613436875,170.62052019375,82.0,97.0
265,170.62929211875,170.88367794375,82.0,82.0
266,170.89244986875,171.14683569375,82.0,93.0
267,171.15560761875,171.40999344375,79.0,93.0
268,171.41876536875,171.67315119375,79.0,93.0
269,171.68192311875,172.19946669375,86.0,103.0
270,172.20823861875,172.46262444375,87.0,75.0
271,172.47139636875,172.72578219375,89.0,95.0
272,172.73455411875,172.98893994374998,89.0,82.0
273,172.99771186875,173.25209769375,87.0,82.0
274,173.26086961875,173.51525544375,86.0,82.0
275,173.52402736874998,174.56788644374998,84.0,85.0
276,176.15560486875,176.40999069375,79.0,99.0
277,176.41876261875,176.67314844375,82.0,95.0
278,176.68192036874999,177.19946394375,84.0,99.0
279,177.20823586875,177.46262169375,84.0,99.0
280,177.47139361875,177.72577944374999,84.0,99.0
281,177.73455136875,178.25209494375,84.0,103.0
282,178.26086686874999,178.51525269375,84.0,97.0
283,178.52402461875,178.77841044375,91.0,99.0
284,178.78718236875,179.04156819375,91.0,97.0
285,179.05034011875,179.30472594375,89.0,88.0
286,179.31349786875,179.56788369375,89.0,97.0
287,179.57665561875,179.83104144375,91.0,97.0
288,179.83981336875,180.83981281875,89.0,99.0
289,180.89244436875,181.4428826625,86.0,101.0
290,181.41875986875,181.4428826625,86.0,93.0
291,181.68191761875,181.93191748125,84.0,93.0
292,181.94507536875,182.166566475,82.0,95.0
293,182.20823311875,182.48454875625,82.0,95.0
294,182.47139086875,182.710425825,84.0,93.0
295,182.73454861874998,183.01086425625,86.0,91.0
296,182.99770636875,183.01086425625,86.0,99.0
297,183.26086411875,183.51744292499998,84.0,85.0
298,183.52402186875,183.77402173125,84.0,93.0
299,183.78717961875,184.0569163125,82.0,88.0
300,184.05033736875,185.08981048125,84.0,91.0
301,185.10296836875,185.35735419374998,89.0,95.0
302,185.36612611875,185.62051194375,89.0,97.0
303,185.62928386875,185.88366969375,89.0,95.0
304,185.89244161874998,186.14682744375,87.0,97.0
305,186.15559936875,187.19945844375,89.0,101.0
306,187.20823036875,187.46261619375,91.0,101.0
307,187.47138811874999,187.72577394375,91.0,85.0
308,187.73454586875,187.98893169375,87.0,82.0
309,187.99770361875,188.25208944375,86.0,78.0
310,188.26086136875,189.30472044375,84.0,97.0
311,189.31349236875,189.56787819375,82.0,85.0
312,189.57665011875,189.83103594375,82.0,78.0
313,189.83980786875,190.09419369375,82.0,70.0
314,190.10296561875,190.35735144375,84.0,78.0
315,190.36612336875,190.62050919375,86.0,85.0
316,190.62928111875,190.88366694375,86.0,93.0
317,190.89243886875,191.14682469375,86.0,91.0
318,191.15559661875,191.40998244375,87.0,91.0
319,191.41875436875,191.67314019375,89.0,67.0
320,191.68191211875,191.93629794375,89.0,82.0
321,191.94506986875,192.19945569375,87.0,95.0
322,192.20822761875,192.46261344375,86.0,88.0
323,192.99770086875,193.25208669375,79.0,99.0
324,193.26085861875,193.51524444375,82.0,95.0
325,192.47138536875,193.51524444375,84.0,95.0
326,193.52401636874998,194.04155994375,84.0,99.0
327,194.05033186875,194.30471769375,84.0,99.0
328,194.31348961875,194.56787544374998,84.0,99.0
329,194.57664736875,195.09419094375,84.0,103.0
330,195.10296286874998,195.35734869375,84.0,97.0
331,195.36612061875,195.62050644375,91.0,99.0
332,195.62927836875,195.88366419375,91.0,97.0
333,195.89243611875,196.14682194374998,89.0,88.0
334,196.15559386875,196.40997969375,89.0,97.0
335,196.41875161875,196.67313744375,91.0,97.0
336,196.68190936874998,197.68190881875,89.0,99.0
337,197.73454036875,198.2849786625,86.0,101.0
338,198.26085586874999,198.2849786625,86.0,93.0
339,198.52401361875,198.77401348125,84.0,93.0
340,198.78717136875,199.008662475,82.0,95.0
341,199.05032911875,199.32664475625,82.0,95.0
342,199.31348686875,199.55252182499999,84.0,93.0
343,199.57664461875,199.85296025625,86.0,91.0
344,199.83980236875,199.85296025625,86.0,99.0
345,200.10296011875,200.359538925,84.0,85.0
346,200.36611786875,200.61611773125,84.0,93.0
347,200.62927561875,200.8990123125,82.0,88.0
348,200.89243336875,201.93190648125,84.0,91.0
349,201.94506436875,202.19945019375,89.0,95.0
350,202.20822211875,202.46260794375,89.0,97.0
351,202.47137986875,202.72576569375,89.0,95.0
352,202.73453761875,202.98892344375,87.0,97.0
353,202.99769536875,204.04155444375,89.0,101.0
354,204.05032636875,204.30471219375,89.0,101.0
355,204.31348411874998,204.56786994375,91.0,85.0
356,204.57664186875,204.83102769375,87.0,82.0
357,204.83979961875,205.09418544375,86.0,78.0
358,205.10295736875,206.14681644375,84.0,97.0
359,206.15558836875,206.40997419375,82.0,85.0
360,206.41874611875,206.67313194375,82.0,78.0
361,206.68190386875,206.93628969374998,82.0,70.0
362,206.94506161875,207.19944744375,84.0,78.0
363,207.20821936875,207.46260519375,86.0,85.0
364,207.47137711874998,207.72576294375,86.0,93.0
365,207.73453486875,207.98892069375,86.0,91.0
366,207.99769261875,208.25207844375,87.0,91.0
367,208.26085036875,208.51523619374998,89.0,67.0
368,208.52400811875,208.77839394375,89.0,82.0
369,208.78716586875,209.04155169375,87.0,95.0
370,209.05032361874999,209.30470944375,86.0,88.0
371,209.31348136875,210.35734044375,84.0,95.0
372,211.94505886875,212.19944469375,79.0,99.0
373,212.20821661875,212.46260244375,82.0,95.0
374,212.47137436875,212.98891794375,84.0,99.0
375,212.99768986875,213.25207569375,84.0,99.0
376,213.26084761875,213.51523344375,84.0,99.0
377,213.52400536875,214.04154894375,84.0,103.0
378,214.05032086875,214.30470669375,84.0,97.0
379,214.31347861875,214.56786444374998,91.0,99.0
380,214.57663636875,214.83102219375,91.0,97.0
381,214.83979411875,215.09417994375,89.0,88.0
382,215.10295186874998,215.35733769375,89.0,97.0
383,215.36610961875,215.62049544375,91.0,97.0
384,215.62926736875,216.62926681874998,89.0,99.0
385,216.68189836874998,217.2323366625,86.0,101.0
386,217.20821386875,217.2323366625,86.0,93.0
387,217.47137161875,217.72137148125,84.0,93.0
388,217.73452936875,217.956020475,82.0,95.0
389,217.99768711875,218.27400275624998,82.0,95.0
390,218.26084486874998,218.499879825,84.0,93.0
391,218.52400261875,218.80031825625,86.0,91.0
392,218.78716036875,218.80031825625,86.0,99.0
393,219.05031811875,219.306896925,84.0,85.0
394,219.31347586875,219.56347573125,84.0,93.0
395,219.57663361875,219.8463703125,82.0,88.0
396,219.83979136874999,220.87926448125,84.0,91.0
397,220.89242236875,221.14680819375,89.0,95.0
398,221.15558011875,221.40996594375,89.0,97.0
399,221.41873786875,221.67312369375,89.0,95.0
400,221.68189561875,221.93628144375,87.0,97.0
401,221.94505336875,222.98891244375,89.0,101.0
402,222.99768436875,223.25207019375,91.0,101.0
403,223.26084211875,223.51522794375,91.0,85.0
404,223.52399986875,223.77838569375,87.0,82.0
405,223.78715761875,224.04154344375,86.0,78.0
406,224.05031536875,225.09417444375,84.0,97.0
407,225.10294636875,225.35733219374998,82.0,85.0
408,225.36610411875,225.62048994375,82.0,78.0
409,225.62926186875,225.88364769375,82.0,70.0
410,225.89241961874998,226.14680544375,84.0,78.0
411,226.15557736875,226.40996319375,86.0,85.0
412,226.41873511875,226.67312094375,86.0,93.0
413,226.68189286875,226.93627869374998,86.0,91.0
414,226.94505061875,227.19943644375,87.0,91.0
415,227.20820836875,227.46259419375,89.0,67.0
416,227.47136611874998,227.72575194375,89.0,82.0
417,227.73452386875,227.98890969375,87.0,95.0
418,227.99768161875,228.25206744375,86.0,88.0
419,228.78715486875,229.04154069375,79.0,99.0
420,229.05031261874998,229.30469844375,82.0,95.0
421,228.26083936875,229.30469844375,84.0,95.0
422,229.31347036875,229.83101394375,84.0,99.0
423,229.83978586875,230.09417169374998,84.0,99.0
424,230.10294361875,230.35732944375,84.0,99.0
425,230.36610136875,230.88364494375,84.0,103.0
426,230.89241686875,231.14680269375,84.0,97.0
427,231.15557461875,231.40996044375,91.0,99.0
428,231.41873236875,231.67311819374999,91.0,97.0
429,231.68189011875,231.93627594375,89.0,88.0
430,231.94504786875,232.19943369375,89.0,97.0
431,232.20820561875,232.46259144375,91.0,97.0
432,232.47136336875,233.47136281875,89.0,99.0
433,233.52399436875,234.0744326625,86.0,101.0
434,234.05030986875,234.0744326625,86.0,93.0
435,234.31346761875,234.56346748125,84.0,93.0
436,234.57662536875,234.798116475,82.0,95.0
437,234.83978311875,235.11609875624998,82.0,95.0
438,235.10294086874998,235.341975825,84.0,93.0
439,235.36609861875,235.64241425625,86.0,91.0
440,235.62925636875,235.64241425625,86.0,99.0
441,235.89241411875,236.148992925,84.0,85.0
442,236.15557186875,236.40557173125,84.0,93.0
443,236.41872961875,236.6884663125,82.0,88.0
444,236.68188736874998,237.72136048125,84.0,91.0
445,237.73451836875,237.98890419375,89.0,95.0
446,237.99767611875,238.25206194375,89.0,97.0
447,238.26083386874998,238.51521969375,89.0,95.0
448,238.52399161875,238.77837744375,87.0,97.0
449,238.78714936875,239.83100844375,89.0,101.0
450,239.83978036874998,240.09416619375,89.0,101.0
451,240.10293811875,240.35732394375,91.0,85.0
452,240.36609586875,240.62048169375,87.0,82.0
453,240.62925361875,240.88363944374998,86.0,78.0
454,240.89241136875,241.93627044375,84.0,97.0
455,241.94504236875,242.19942819375,82.0,85.0
456,242.20820011875,242.46258594374999,82.0,78.0
457,242.47135786875,242.72574369375,82.0,70.0
458,242.73451561875,242.98890144375,84.0,78.0
459,242.99767336875,243.25205919375,86.0,85.0
460,243.26083111875,243.51521694375,86.0,93.0
461,243.52398886875,243.77837469375,86.0,91.0
462,243.78714661875,244.04153244375,87.0,91.0
463,244.05030436875,244.30469019375,89.0,67.0
464,244.31346211875,244.56784794375,89.0,82.0
465,244.57661986875,244.83100569375,87.0,95.0
466,244.83977761875,245.09416344375,86.0,88.0
467,245.10293536875,246.14679444375,84.0,95.0
468,248.28275818125,248.44503879375,70.0,81.0
469,248.5393369875,248.6796877875,70.0,85.0
470,248.84416138125,249.07661739374998,70.0,70.0
471,249.11609105624999,249.37047688125,72.0,80.0
472,249.4253014125,249.62047674375,74.0,91.0
473,249.75644158125,249.9603888375,74.0,85.0
474,250.13802031875,250.39679210625,74.0,85.0
475,250.48451135624998,250.73451121875,75.0,88.0
476,250.8551251875,251.07003735,77.0,91.0
477,251.22135305625,251.42091435,77.0,82.0
478,251.58977390625,251.8989842625,75.0,99.0
479,252.04152804375,253.271790525,74.0,93.0
480,253.87047440625,254.84415808125,72.0,95.0
