,start,end,pitch,velocity
0,1.41885886875,1.67324469375,67.0,99.0
1,1.68201661875,1.93640244375,70.0,88.0
2,1.94517436875,2.42324428125,48.0,75.0
3,1.94517436875,2.46271794375,72.0,97.0
4,2.20833211875,2.5043845875,55.0,66.0
5,2.47148986875,2.72587569375,72.0,85.0
6,2.47148986875,2.798244075,60.0,66.0
7,2.73464761875,2.98903344375,72.0,88.0
8,2.73464761875,3.1929807,62.0,60.0
9,2.99780536875,3.25219119375,72.0,88.0
10,3.26096311875,3.51534894375,67.0,97.0
11,2.99780536875,3.7521909187499998,63.0,75.0
12,3.52412086875,3.77850669375,72.0,88.0
13,3.78727861875,4.04166444375,79.0,82.0
14,4.05043636875,4.30482219375,77.0,99.0
15,4.05043636875,4.5394711875,53.0,69.0
16,4.31359411875,4.56797994375,77.0,85.0
17,4.31359411875,4.6096465875,60.0,64.0
18,4.57675186875,4.83113769375,77.0,88.0
19,4.57675186875,4.89692713125,63.0,61.0
20,4.83990961875,5.09429544375,79.0,75.0
21,4.83990961875,5.6578916249999995,65.0,55.0
22,5.10306736875,5.6578916249999995,68.0,76.0
23,5.10306736875,6.14692644375,77.0,88.0
24,6.1556983687499995,6.4100841937499995,74.0,99.0
25,6.1556983687499995,6.54166306875,46.0,73.0
26,6.41885611875,6.67324194375,74.0,78.0
27,6.41885611875,6.70394368125,53.0,62.0
28,6.6820138687499995,6.93639969375,74.0,91.0
29,6.6820138687499995,6.9780663375,58.0,67.0
30,6.94517161875,7.19955744375,72.0,85.0
31,6.94517161875,7.62938176875,60.0,63.0
32,7.20832936875,7.6973641875,62.0,80.0
33,7.20832936875,7.72587294375,70.0,95.0
34,7.73464486875,7.98903069375,72.0,54.0
35,7.99780261875,8.25218844375,74.0,70.0
36,8.26096036875,8.51534619375,74.0,76.0
37,8.26096036875,8.70832854375,48.0,72.0
38,8.52411811875,8.77850394375,72.0,70.0
39,8.52411811875,8.8113986625,55.0,70.0
40,8.78727586875,9.04166169375,72.0,80.0
41,8.78727586875,9.09429324375,60.0,57.0
42,9.05043361875,9.30481944375,70.0,78.0
43,9.05043361875,9.39253869375,62.0,55.0
44,9.31359136875,9.59429296875,63.0,73.0
45,9.57674911875,9.80043320625,62.0,64.0
46,9.31359136875,9.83113494375,72.0,76.0
47,9.839906868749999,10.094292693749999,72.0,78.0
48,9.839906868749999,10.094292693749999,84.0,78.0
49,9.839906868749999,10.122801449999999,60.0,73.0
50,10.10306461875,10.35745044375,75.0,64.0
51,10.10306461875,10.35745044375,87.0,85.0
52,10.10306461875,10.3903451625,55.0,72.0
53,10.36622236875,10.833327375,41.0,72.0
54,10.36622236875,10.88376594375,77.0,76.0
55,10.36622236875,10.88376594375,89.0,82.0
56,10.62938011875,10.91446768125,48.0,63.0
57,10.892537868749999,11.14692369375,77.0,63.0
58,10.892537868749999,11.14692369375,89.0,70.0
59,10.892537868749999,11.219292075,53.0,70.0
60,11.15569561875,11.41008144375,75.0,64.0
61,11.15569561875,11.41008144375,87.0,67.0
62,11.15569561875,11.5745550375,55.0,59.0
63,11.41885336875,11.69516900625,56.0,85.0
64,11.68201111875,11.99341445625,58.0,72.0
65,11.41885336875,12.19955469375,77.0,66.0
66,11.41885336875,12.19955469375,89.0,80.0
67,11.94516886875,12.241221337499999,60.0,72.0
68,12.20832661875,12.35744934375,63.0,49.0
69,12.20832661875,12.46271244375,79.0,73.0
70,12.20832661875,12.46271244375,91.0,73.0
71,12.47148436875,12.728063174999999,79.0,70.0
72,12.47148436875,12.728063174999999,91.0,66.0
73,12.47148436875,12.98902794375,48.0,75.0
74,12.7368351,12.98902794375,77.0,76.0
75,12.7368351,12.98902794375,89.0,58.0
76,12.7368351,13.061396325,55.0,69.0
77,12.99779986875,13.25218569375,75.0,69.0
78,12.99779986875,13.25218569375,87.0,73.0
79,12.99779986875,13.3113961875,60.0,78.0
80,13.26095761875,13.51534344375,74.0,67.0
81,13.26095761875,13.51534344375,86.0,73.0
82,13.26095761875,13.59429076875,62.0,69.0
83,13.52411536875,14.08990453125,63.0,69.0
84,14.05043086875,14.133764156249999,62.0,73.0
85,13.52411536875,14.56797444375,72.0,73.0
86,13.52411536875,14.56797444375,84.0,78.0
87,14.57674636875,14.98464088125,46.0,88.0
88,14.57674636875,15.094289943749999,70.0,91.0
89,14.57674636875,15.094289943749999,82.0,73.0
90,14.839904118749999,15.14253553125,53.0,66.0
91,15.10306186875,15.35744769375,70.0,64.0
92,15.10306186875,15.35744769375,82.0,72.0
93,15.10306186875,15.42762309375,58.0,70.0
94,15.36621961875,15.62060544375,72.0,56.0
95,15.36621961875,15.62060544375,84.0,76.0
96,15.36621961875,15.679815937499999,60.0,73.0
97,15.62937736875,15.934201762499999,62.0,85.0
98,15.89253511875,16.142534981249998,60.0,60.0
99,15.62937736875,16.14692094375,74.0,58.0
100,15.62937736875,16.14692094375,86.0,76.0
101,16.15569286875,16.41007869375,74.0,62.0
102,16.15569286875,16.41007869375,86.0,75.0
103,16.15569286875,16.41446465625,58.0,61.0
104,16.41885061875,16.56358738125,55.0,58.0
105,16.41885061875,16.67323644375,75.0,55.0
106,16.41885061875,16.67323644375,87.0,78.0
107,16.68200836875,16.93639419375,77.0,59.0
108,16.68200836875,16.93639419375,89.0,70.0
109,16.68200836875,17.10525375,48.0,82.0
110,16.94516611875,17.19955194375,77.0,64.0
111,16.94516611875,17.19955194375,89.0,69.0
112,16.94516611875,17.21051685,55.0,69.0
113,17.20832386875,17.46270969375,75.0,66.0
114,17.20832386875,17.46270969375,87.0,48.0
115,17.20832386875,17.554814906249998,60.0,70.0
116,17.47148161875,17.72586744375,74.0,70.0
117,17.47148161875,17.72586744375,86.0,72.0
118,17.47148161875,17.9166568125,62.0,66.0
119,17.73463936875,17.98902519375,63.0,63.0
120,17.73463936875,18.78727036875,72.0,75.0
121,17.73463936875,18.78727036875,84.0,75.0
122,35.62936636875,36.24778708125,63.0,82.0
123,35.62936636875,36.2850677625,67.0,71.0
124,35.62936636875,37.0833129375,60.0,61.0
125,36.68199736875,37.1096287125,63.0,87.0
126,36.68199736875,37.1227866,67.0,74.0
127,35.62936636875,37.21269883125,48.0,60.0
128,37.73462836875,38.2499789625,62.0,70.0
129,37.73462836875,38.33331225,70.0,81.0
130,37.73462836875,38.3508561,65.0,70.0
131,37.73462836875,39.1973468625,46.0,60.0
132,37.73462836875,39.254364375,58.0,70.0
133,38.78725936875,39.2587503375,70.0,69.0
134,38.78725936875,39.26532928125,62.0,54.0
135,38.78725936875,39.2675222625,65.0,69.0
136,39.83989036875,40.33550413125,62.0,56.0
137,39.83989036875,40.40348655,65.0,62.0
138,39.83989036875,40.4210304,70.0,71.0
139,39.83989036875,41.260942218749996,46.0,51.0
140,39.83989036875,41.27848606875,58.0,59.0
141,40.892521368749996,41.3026088625,62.0,70.0
142,40.892521368749996,41.33550358125,70.0,77.0
143,40.892521368749996,41.388135131249996,65.0,78.0
144,41.94515236875,42.5964678,67.0,67.0
145,41.94515236875,42.62497655625,63.0,77.0
146,41.94515236875,42.6315555,60.0,61.0
147,42.9824325,43.271906025,60.0,67.0
148,42.99778336875,43.41444980625,63.0,82.0
149,42.99778336875,43.44515154375,67.0,72.0
150,41.94515236875,43.48462520625,48.0,50.0
151,44.05041436875,44.62497545625,67.0,71.0
152,44.05041436875,44.6447122875,63.0,78.0
153,44.05041436875,44.6710280625,60.0,64.0
154,45.131554125,45.464887275,60.0,76.0
155,45.10304536875,45.504360937499996,63.0,78.0
156,44.05041436875,45.50655391875,48.0,54.0
157,45.10304536875,45.5131328625,67.0,73.0
158,46.15567636875,46.681991868749996,62.0,73.0
159,46.15567636875,46.6973427375,65.0,78.0
160,46.15567636875,46.6973427375,70.0,82.0
161,46.15567636875,47.5087458,58.0,64.0
162,46.15567636875,47.5833071625,46.0,56.0
163,47.20830736875,47.59865803125,62.0,71.0
164,47.20830736875,47.60742995625,70.0,80.0
165,47.20830736875,47.657868525,65.0,75.0
166,48.26093836875,48.78725386875,62.0,75.0
167,48.26093836875,48.8420784,65.0,72.0
168,48.26093836875,48.844271381249996,58.0,78.0
169,48.26093836875,49.58111308125,43.0,66.0
170,48.26093836875,49.605235875,55.0,78.0
171,49.31356936875,49.67321829375,58.0,71.0
172,49.31356936875,49.69953406875,62.0,71.0
173,49.31356936875,49.71269195625,65.0,69.0
174,50.36620036875,50.7324282375,67.0,78.0
175,50.36620036875,50.75655103125,63.0,87.0
176,50.892515868749996,51.166638524999996,62.0,56.0
177,50.62935811875,51.67321719375,60.0,20.0
178,51.15567361875,51.8464627125,63.0,72.0
179,51.41883136875,51.86181358125,67.0,54.0
180,50.36620036875,51.91444513125,48.0,75.0
181,52.4692693875,52.9122516,60.0,64.0
182,52.4692693875,53.094269043749996,67.0,74.0
183,52.4692693875,53.1447076125,63.0,85.0
184,53.52409336875,53.68637398125,62.0,75.0
185,52.4692693875,53.86181248125,55.0,70.0
186,53.26093561875,53.93198788125,60.0,51.0
187,53.78725111875,53.984619431249996,63.0,87.0
188,52.4692693875,54.0833035875,48.0,61.0
189,54.05040886875,54.3026017125,65.0,79.0
190,54.57672436875,55.236811725,62.0,75.0
191,54.31356661875,55.28725029375,70.0,74.0
192,54.57672436875,55.30918010625,65.0,79.0
193,54.57672436875,55.87058330625,58.0,72.0
194,55.62935536875,56.19295155,62.0,71.0
195,55.62935536875,56.23900415625,65.0,81.0
196,54.57672436875,56.2455831,46.0,62.0
197,56.15567086875,56.2675129125,58.0,69.0
198,55.62935536875,56.2675129125,70.0,83.0
199,56.681986368749996,57.1359334875,62.0,76.0
200,56.681986368749996,57.14689839375,65.0,81.0
201,56.681986368749996,57.2061088875,70.0,87.0
202,57.471459618749996,57.820143637499996,60.0,46.0
203,57.73461736875,57.947336549999996,62.0,67.0
204,57.99777511875,58.28724864375,65.0,76.0
205,57.20830186875,58.33988019375,58.0,63.0
206,58.26093286875,58.4341783875,70.0,86.0
207,56.681986368749996,58.5306695625,46.0,70.0
208,58.52409061875,58.6797922875,58.0,62.0
209,58.52409061875,58.730230856249996,72.0,56.0
210,56.94514411875,58.756546631249996,53.0,60.0
211,58.78724836875,59.19514288125,74.0,78.0
212,59.31356386875,60.2061072375,60.0,63.0
213,59.57672161875,60.2938264875,62.0,55.0
214,58.78724836875,60.40128256875,48.0,76.0
215,59.83987936875,60.41444045625,67.0,78.0
216,59.83987936875,60.43637026875,63.0,90.0
217,59.05040611875,60.47584393125,55.0,74.0
218,60.36619486875,60.48900181875,60.0,63.0
219,60.892510368749996,61.43636971875,60.0,70.0
220,60.892510368749996,61.46707145625,67.0,78.0
221,60.892510368749996,61.51970300625,63.0,89.0
222,60.892510368749996,62.26312365,55.0,75.0
223,61.973650125,62.458298981249996,60.0,46.0
224,61.94514136875,62.51970245625,63.0,87.0
225,62.471456868749996,62.52408841875,55.0,53.0
226,61.94514136875,62.53286034375,67.0,73.0
227,62.471456868749996,62.58110593125,60.0,74.0
228,60.892510368749996,62.6008427625,48.0,72.0
229,62.99777236875,63.58549134375,58.0,76.0
230,62.99777236875,63.723649162499996,65.0,85.0
231,62.99777236875,63.8201403375,62.0,76.0
232,62.99777236875,63.863999962499996,70.0,79.0
233,63.78724561875,64.271894475,58.0,53.0
234,62.99777236875,64.30917515624999,46.0,65.0
235,64.05040336875,64.429789125,70.0,86.0
236,64.57671886874999,64.62496445625,58.0,48.0
237,64.57671886874999,64.68417495,46.0,61.0
238,64.05040336875,64.71706966875,62.0,87.0
239,64.05040336875,64.7236486125,65.0,81.0
240,64.83987661875,64.90566605625,56.0,41.0
241,64.83987661875,64.9604905875,44.0,54.0
242,65.10303436875,65.59645515,55.0,78.0
243,65.10303436875,65.640314775,70.0,85.0
244,65.10303436875,65.84426203125,62.0,82.0
245,65.10303436875,65.85741991875,65.0,82.0
246,65.89250761875,66.29820915,55.0,59.0
247,66.15566536875,66.7236475125,70.0,85.0
248,66.15566536875,66.73022645625,62.0,82.0
249,66.68198086875,66.73899838125,55.0,76.0
250,65.10303436875,66.77847204375,43.0,81.0
251,66.15566536875,66.7938229125,65.0,82.0
252,67.20829636875,67.32671735625,36.0,79.0
253,67.20829636875,67.39469977499999,48.0,75.0
254,67.20829636875,67.62496280625,60.0,80.0
255,67.20829636875,67.6973311875,67.0,79.0
256,67.20829636875,67.98461173125,63.0,86.0
257,68.26092736875,68.38812028125,63.0,9.0
258,67.73461186875,68.73022535625,48.0,64.0
259,68.52408511875,68.73899728125,62.0,76.0
260,68.26092736875,68.74338324375,60.0,78.0
261,67.99776961875,68.8771551,55.0,70.0
262,68.78724286875,69.09864620625,63.0,87.0
263,69.05040061875,69.31355836875,65.0,55.0
264,69.31355836875,69.45610214999999,63.0,61.0
265,69.31355836875,69.45610214999999,63.0,81.0
266,69.31355836875,69.45610214999999,67.0,78.0
267,69.31355836875,69.4955758125,48.0,71.0
268,69.31355836875,69.51969860625,36.0,68.0
269,69.31355836875,69.55040034375,55.0,76.0
270,69.31355836875,69.5569792875,60.0,69.0
271,69.83987386875,69.99338255625,53.0,71.0
272,69.83987386875,70.0306632375,31.0,70.0
273,69.83987386875,70.05917199375,43.0,65.0
274,69.83987386875,70.15127720625,58.0,70.0
275,70.10303161875,70.2850490625,36.0,78.0
276,70.10303161875,70.2938209875,55.0,79.0
277,70.10303161875,70.30478589375,63.0,75.0
278,70.10303161875,70.3113648375,60.0,68.0
279,71.4166273875,71.78285525625,72.0,97.0
280,71.4166273875,71.79162718124999,67.0,90.0
281,71.4166273875,71.81355699375,63.0,98.0
282,72.2104866,72.4253987625,62.0,86.0
283,72.47145136875,72.66004775625,63.0,91.0
284,72.73460911875,72.885924825,67.0,92.0
285,71.4166273875,73.08548611875,48.0,85.0
286,71.6841711,73.12057381875,55.0,81.0
287,71.94732885,73.12934574375,60.0,90.0
288,72.99776686875,73.219257975,70.0,94.0
289,73.26092461875,73.74776645625,72.0,90.0
290,73.52408236875,73.80697694999999,63.0,94.0
291,73.52408236875,74.131538175,68.0,91.0
292,74.05039786875,74.70829224375,65.0,78.0
293,74.31355561875,74.71267820625,67.0,62.0
294,74.83987111875,75.0175026,65.0,85.0
295,73.7894331,75.11618675625,60.0,77.0
296,74.57671336874999,75.1446955125,75.0,97.0
297,73.52408236875,75.149081475,53.0,87.0
298,75.10302886875,75.32671295624999,70.0,89.0
299,75.36618661874999,75.728028525,75.0,85.0
300,75.62934436875,75.9780283875,74.0,89.0
301,75.62934436875,75.98241435,70.0,87.0
302,75.62934436875,76.02408099375,65.0,80.0
303,76.41881761875,76.64250170625,60.0,78.0
304,76.68197536875,76.89908051249999,62.0,84.0
305,76.15565986874999,77.14688739374999,58.0,85.0
306,76.94513311875,77.14688739374999,63.0,87.0
307,75.62934436875,77.2411855875,46.0,75.0
308,77.20829086875,77.4692556375,67.0,85.0
309,75.89250211875,77.47144861875,53.0,73.0
310,77.47144861875,77.78723791875,75.0,94.0
311,77.73460636875,78.12057106875,74.0,90.0
312,77.73460636875,78.13811491875,67.0,76.0
313,78.52407961875,78.7411847625,62.0,78.0
314,78.78723736875,79.0218863625,63.0,93.0
315,79.05039511875,79.24776343125,62.0,81.0
316,79.05039511875,79.2587283375,65.0,85.0
317,78.26092186875,79.26969324375,60.0,72.0
318,77.99776411875,79.34864056875,55.0,83.0
319,79.31355286875,79.359605475,63.0,69.0
320,77.73460636875,79.38592125,48.0,81.0
321,79.31355286875,79.55039484375,67.0,80.0
322,79.57671061875,79.69951756875,70.0,89.0
323,79.57671061875,79.74995613749999,67.0,29.0
324,79.83986836875,80.16881555625,60.0,81.0
325,79.83986836875,80.16881555625,68.0,86.0
326,79.83986836875,80.23899095624999,63.0,89.0
327,80.36618386875,80.6271486375,60.0,66.0
328,80.62934161875,80.83548185625,63.0,64.0
329,80.10302611875,81.01092035625,53.0,66.0
330,80.89249936875,81.20828866875,60.0,89.0
331,80.89249936875,81.2324114625,68.0,89.0
332,79.83986836875,81.2411833875,41.0,84.0
333,80.89249936875,81.27846406875,63.0,87.0
334,81.15565711875,81.35302543125,53.0,85.0
335,81.41881486875,81.5482007625,68.0,79.0
336,81.41881486875,81.7236392625,60.0,87.0
337,81.68197261875,81.9341654625,68.0,82.0
338,81.94513036875,82.51969145625,67.0,87.0
339,81.94513036875,82.622761575,63.0,93.0
340,82.73460361875,82.9253929875,62.0,70.0
341,82.47363885,83.08328763749999,60.0,79.0
342,82.99776136875,83.36618221875,63.0,100.0
343,82.99776136875,83.3903050125,67.0,89.0
344,83.26091911875,83.46267339375,60.0,88.0
345,81.94513036875,83.53723475625,48.0,72.0
346,82.20828811875,83.54162071875,55.0,82.0
347,83.52407686875,83.79162058125,65.0,82.0
348,83.78723461875,84.5481991125,70.0,84.0
349,84.05039236875,84.60302364374999,62.0,81.0
350,84.05039236875,84.6622341375,65.0,82.0
351,84.83986561875,84.956093625,60.0,81.0
352,84.83986561875,85.08109355625,63.0,86.0
353,84.57670786874999,85.3903039125,58.0,80.0
354,85.10302336875,85.5569704875,62.0,87.0
355,84.05039236875,85.68635638125,46.0,75.0
356,85.10302336875,85.72144408125,65.0,87.0
357,84.31355011875,85.76530370625,53.0,75.0
358,85.62933886875,85.780654575,58.0,87.0
359,85.89249661875,86.1008298375,65.0,74.0
360,86.15565436874999,86.75433825,67.0,80.0
361,86.15565436874999,86.78284700625,63.0,82.0
362,86.94512761874999,87.1446889125,62.0,89.0
363,87.20828536875,87.40126771874999,63.0,85.0
364,86.68196986875,87.53284659375,60.0,82.0
365,87.47144311875,87.64907459999999,65.0,82.0
366,86.15565436874999,87.7938113625,48.0,85.0
367,87.73460086875,87.8596008,60.0,85.0
368,86.41881211875,87.87056570625,55.0,81.0
369,87.73460086875,87.94732005,67.0,77.0
370,87.99775861875,88.1753901,70.0,81.0
371,88.26091636875,88.83986341875,67.0,86.0
372,88.26091636875,88.8639862125,63.0,98.0
373,89.05038961875,89.2324070625,62.0,54.0
374,88.78723186875,89.4034596,60.0,82.0
375,88.26091636875,89.429775375,48.0,86.0
376,88.52407411875,89.464863075,55.0,82.0
377,89.31354736875,89.66661735,63.0,96.0
378,89.31354736875,89.67319629375,67.0,87.0
379,89.57670511875,89.76530150625,60.0,87.0
380,89.57670511875,89.87056460625,48.0,89.0
381,89.83986286875,90.02845925625,65.0,89.0
382,90.10302061875,90.289424025,67.0,78.0
383,90.36617836875,90.67319574375,60.0,81.0
384,90.36617836875,90.67319574375,68.0,77.0
385,90.36617836875,90.73898518125,53.0,85.0
386,90.36617836875,90.89249386875,63.0,86.0
387,90.89249386875,90.9780201375,60.0,49.0
388,90.36617836875,91.4517040875,41.0,89.0
389,91.15565161875,91.605212775,68.0,97.0
390,91.15565161875,91.7192478,60.0,84.0
391,91.15565161875,91.74775655625,63.0,94.0
392,91.68196711875,91.9955634375,53.0,84.0
393,91.94512486875,92.1534580875,60.0,85.0
394,91.94512486875,92.1797738625,68.0,91.0
395,91.68196711875,92.184159825,41.0,84.0
396,91.94512486875,92.23459839375,63.0,89.0
397,92.20828261875,92.35740534375,53.0,74.0
398,92.47144036875,92.87494891875,62.0,78.0
399,92.47144036875,92.8815278625,70.0,102.0
400,92.47144036875,92.956089225,65.0,89.0
401,93.26091361875,93.39249249375,60.0,74.0
402,93.26091361875,93.46266789375,63.0,87.0
403,93.52407136875,93.675387075,60.0,65.0
404,93.52407136875,93.70389583125,65.0,80.0
405,92.99775586875,93.86179048125,58.0,84.0
406,93.78722911875,93.903457125,70.0,80.0
407,92.73459811875,93.92757991875,53.0,74.0
408,92.47144036875,93.97143954375,46.0,80.0
409,93.78722911875,94.236790275,63.0,86.0
410,94.31354461875,94.4955620625,68.0,89.0
411,94.57670236874999,95.0131056375,63.0,89.0
412,94.57670236874999,95.03722843125,67.0,87.0
413,94.57670236874999,95.50214045625,48.0,85.0
414,95.10301786875,95.587666725,60.0,76.0
415,94.83986011875,95.71705261875,55.0,77.0
416,95.36617561874999,95.72143858125,67.0,74.0
417,95.89249111875,96.08985943125,74.0,77.0
418,95.62933336875,96.13810501875,75.0,94.0
419,95.62933336875,96.26091196875,48.0,76.0
420,95.89249111875,96.26091196875,55.0,82.0
421,96.15564886874999,96.26091196875,60.0,85.0
422,96.15564886874999,96.3815259375,70.0,90.0
423,96.41880661875,96.58985915625,67.0,77.0
424,96.68196436875,97.149069375,53.0,85.0
425,96.68196436875,97.184157075,72.0,94.0
426,96.68196436875,97.342051725,63.0,96.0
427,96.68196436875,97.6095954375,68.0,90.0
428,97.47143761875,97.8376654875,53.0,74.0
429,97.73459536874999,98.0745074625,63.0,92.0
430,97.73459536874999,98.08985833125,72.0,92.0
431,97.73459536874999,98.1183670875,68.0,89.0
432,97.99775311875,98.18196354375,53.0,82.0
433,96.68196436875,98.3025775125,41.0,83.0
434,98.26091086875,98.34424415625,53.0,47.0
435,98.26091086875,98.3815248375,63.0,82.0
436,98.26091086875,98.5218756375,70.0,87.0
437,98.52406861875,98.93196313125,75.0,82.0
438,98.78722636875,99.131524425,70.0,94.0
439,98.78722636875,99.1534542375,72.0,92.0
440,98.78722636875,99.184155975,65.0,78.0
441,99.57669961875,99.69512060625,63.0,80.0
442,99.57669961875,99.73898023125,65.0,74.0
443,99.57669961875,99.89687488125,62.0,87.0
444,99.31354186875,100.131523875,60.0,82.0
445,99.05038411875,100.26310275,55.0,87.0
446,100.10301511875,100.43634826875,63.0,102.0
447,100.10301511875,100.43854125,67.0,87.0
448,100.36617286875,100.47582193125,60.0,82.0
449,100.36617286875,100.48897981875,55.0,51.0
450,98.78722636875,100.49336578124999,48.0,87.0
451,100.62933061875,100.74117266249999,67.0,69.0
452,100.62933061875,100.83547085625,65.0,54.0
453,100.89248836875,101.3727512625,62.0,87.0
454,100.89248836875,101.499944175,70.0,91.0
455,100.89248836875,101.53283889375,65.0,87.0
456,101.68196161875,102.01090880625,60.0,75.0
457,101.42099685,102.29818935,58.0,80.0
458,101.94511936875,102.29818935,63.0,81.0
459,102.20827711875,102.49336468125,65.0,74.0
460,100.89248836875,102.605206725,46.0,78.0
461,101.15564611875,102.66441721875,53.0,76.0
462,102.73459261875,102.88810130625,62.0,56.0
463,102.47143486875,102.8902942875,70.0,86.0
464,102.99775036875,103.45389046875,67.0,81.0
465,102.99775036875,103.59204828749999,63.0,89.0
466,103.78722361875,103.96704808125,62.0,67.0
467,104.05038136875,104.1183637875,63.0,78.0
468,104.31353911875,104.4604688625,67.0,62.0
469,102.99775036875,104.68195996875,48.0,86.0
470,103.52406586875,104.71924065,60.0,80.0
471,104.57669686875,104.75652133125,72.0,92.0
472,103.26090811875,104.90125809375,55.0,82.0
473,104.83985461875,105.09424044375,74.0,79.0
474,105.10301236875,105.236784225,67.0,63.0
475,105.10301236875,105.2411701875,75.0,90.0
476,106.68195886875,106.93634469375,67.0,99.0
477,106.94511661874999,107.19950244374999,70.0,88.0
478,107.20827436875,107.68634428125,48.0,75.0
479,107.20827436875,107.72581794375,72.0,97.0
480,107.47143211875,107.7674845875,55.0,66.0
481,107.73458986874999,107.98897569374999,72.0,85.0
482,107.73458986874999,108.061344075,60.0,66.0
483,107.99774761875,108.25213344375,72.0,88.0
484,107.99774761875,108.4560807,62.0,60.0
485,108.26090536875,108.51529119375,72.0,88.0
486,108.52406311875,108.77844894374999,67.0,97.0
487,108.26090536875,109.01529091875,63.0,75.0
488,108.78722086875,109.04160669375,72.0,88.0
489,109.05037861875,109.30476444375,79.0,82.0
490,109.31353636875,109.56792219375,77.0,99.0
491,109.31353636875,109.80257118749999,53.0,69.0
492,109.57669411875,109.83107994375,77.0,85.0
493,109.57669411875,109.8727465875,60.0,64.0
494,109.83985186875,110.09423769375,77.0,88.0
495,109.83985186875,110.16002713125,63.0,61.0
496,110.10300961875,110.35739544375,79.0,75.0
497,110.10300961875,110.920991625,65.0,55.0
498,110.36616736875,110.920991625,68.0,76.0
499,110.36616736875,111.41002644375,77.0,88.0
500,111.41879836875,111.67318419375,74.0,99.0
501,111.41879836875,111.80476306874999,46.0,73.0
502,111.68195611875,111.93634194375,74.0,78.0
503,111.68195611875,111.96704368125,53.0,62.0
504,111.94511386875,112.19949969375,74.0,91.0
505,111.94511386875,112.2411663375,58.0,67.0
506,112.20827161875,112.46265744375,72.0,85.0
507,112.20827161875,112.89248176875,60.0,63.0
508,112.47142936875,112.9604641875,62.0,80.0
509,112.47142936875,112.98897294375,70.0,95.0
510,112.99774486875,113.25213069375,72.0,54.0
511,113.26090261875,113.51528844375,74.0,70.0
512,113.52406036875,113.77844619375,74.0,76.0
513,113.52406036875,113.97142854375,48.0,72.0
514,113.78721811875,114.04160394375,72.0,70.0
515,113.78721811875,114.0744986625,55.0,70.0
516,114.05037586875,114.30476169375,72.0,80.0
517,114.05037586875,114.35739324375,60.0,57.0
518,114.31353361875,114.56791944375,70.0,78.0
519,114.31353361875,114.65563869374999,62.0,55.0
520,114.57669136875,114.85739296874999,63.0,73.0
521,114.83984911875,115.06353320625,62.0,64.0
522,114.57669136875,115.09423494375,72.0,76.0
523,115.10300686875,115.35739269375,72.0,78.0
524,115.10300686875,115.35739269375,84.0,78.0
525,115.10300686875,115.38590144999999,60.0,73.0
526,115.36616461874999,115.62055044374999,75.0,64.0
527,115.36616461874999,115.62055044374999,87.0,85.0
528,115.36616461874999,115.65344516249999,55.0,72.0
529,115.62932236875,116.096427375,41.0,72.0
530,115.62932236875,116.14686594375,77.0,76.0
531,115.62932236875,116.14686594375,89.0,82.0
532,115.89248011875,116.17756768125,48.0,63.0
533,116.15563786874999,116.41002369374999,77.0,63.0
534,116.15563786874999,116.41002369374999,89.0,70.0
535,116.15563786874999,116.48239207499999,53.0,70.0
536,116.41879561875,116.67318144375,75.0,64.0
537,116.41879561875,116.67318144375,87.0,67.0
538,116.41879561875,116.8376550375,55.0,59.0
539,116.68195336875,116.95826900624999,56.0,85.0
540,116.94511111874999,117.25651445625,58.0,72.0
541,116.68195336875,117.46265469375,77.0,66.0
542,116.68195336875,117.46265469375,89.0,80.0
543,117.20826886875,117.5043213375,60.0,72.0
544,117.47142661875,117.62054934375,63.0,49.0
545,117.47142661875,117.72581244375,79.0,73.0
546,117.47142661875,117.72581244375,91.0,73.0
547,117.73458436874999,117.991163175,79.0,70.0
548,117.73458436874999,117.991163175,91.0,66.0
549,117.73458436874999,118.25212794375,48.0,75.0
550,117.9999351,118.25212794375,77.0,76.0
551,117.9999351,118.25212794375,89.0,58.0
552,117.9999351,118.324496325,55.0,69.0
553,118.26089986875,118.51528569375,75.0,69.0
554,118.26089986875,118.51528569375,87.0,73.0
555,118.26089986875,118.5744961875,60.0,78.0
556,118.52405761874999,118.77844344374999,74.0,67.0
557,118.52405761874999,118.77844344374999,86.0,73.0
558,118.52405761874999,118.85739076875,62.0,69.0
559,118.78721536875,119.35300453125,63.0,69.0
560,119.31353086875,119.39686415625,62.0,73.0
561,118.78721536875,119.83107444375,72.0,73.0
562,118.78721536875,119.83107444375,84.0,78.0
563,119.83984636875,120.24774088125,46.0,88.0
564,119.83984636875,120.35738994375,70.0,91.0
565,119.83984636875,120.35738994375,82.0,73.0
566,120.10300411875,120.40563553125,53.0,66.0
567,120.36616186875,120.62054769375,70.0,64.0
568,120.36616186875,120.62054769375,82.0,72.0
569,120.36616186875,120.69072309375,58.0,70.0
570,120.62931961875,120.88370544375,72.0,56.0
571,120.62931961875,120.88370544375,84.0,76.0
572,120.62931961875,120.9429159375,60.0,73.0
573,120.89247736875,121.1973017625,62.0,85.0
574,121.15563511875,121.40563498125,60.0,60.0
575,120.89247736875,121.41002094375,74.0,58.0
576,120.89247736875,121.41002094375,86.0,76.0
577,121.41879286875,121.67317869375,74.0,62.0
578,121.41879286875,121.67317869375,86.0,75.0
579,121.41879286875,121.67756465625,58.0,61.0
580,121.68195061875,121.82668738125,55.0,58.0
581,121.68195061875,121.93633644375,75.0,55.0
582,121.68195061875,121.93633644375,87.0,78.0
583,121.94510836875,122.19949419375,77.0,59.0
584,121.94510836875,122.19949419375,89.0,70.0
585,121.94510836875,122.36835375,48.0,82.0
586,122.20826611875,122.46265194375,77.0,64.0
587,122.20826611875,122.46265194375,89.0,69.0
588,122.20826611875,122.47361685,55.0,69.0
589,122.47142386875,122.72580969375,75.0,66.0
590,122.47142386875,122.72580969375,87.0,48.0
591,122.47142386875,122.81791490625,60.0,70.0
592,122.73458161875,122.98896744375,74.0,70.0
593,122.73458161875,122.98896744375,86.0,72.0
594,122.73458161875,123.1797568125,62.0,66.0
595,122.99773936875,123.25212519375,63.0,63.0
596,122.99773936875,124.05037036875,72.0,75.0
597,122.99773936875,124.05037036875,84.0,75.0
598,140.89246636875,141.51088708125,63.0,82.0
599,140.89246636875,141.5481677625,67.0,71.0
600,140.89246636875,142.3464129375,60.0,61.0
601,141.94509736875,142.3727287125,63.0,87.0
602,141.94509736875,142.3858866,67.0,74.0
603,140.89246636875,142.47579883125,48.0,60.0
604,142.99772836875,143.5130789625,62.0,70.0
605,142.99772836875,143.59641225,70.0,81.0
606,142.99772836875,143.6139561,65.0,70.0
607,142.99772836875,144.4604468625,46.0,60.0
608,142.99772836875,144.517464375,58.0,70.0
609,144.05035936875,144.52185033749998,70.0,69.0
610,144.05035936875,144.52842928125,62.0,54.0
611,144.05035936875,144.5306222625,65.0,69.0
612,145.10299036875,145.59860413125,62.0,56.0
613,145.10299036875,145.66658655,65.0,62.0
614,145.10299036875,145.6841304,70.0,71.0
615,145.10299036875,146.52404221875,46.0,51.0
616,145.10299036875,146.54158606875,58.0,59.0
617,146.15562136875,146.5657088625,62.0,70.0
618,146.15562136875,146.59860358125,70.0,77.0
619,146.15562136875,146.65123513125,65.0,78.0
620,147.20825236875,147.8595678,67.0,67.0
621,147.20825236875,147.88807655624998,63.0,77.0
622,147.20825236875,147.8946555,60.0,61.0
623,148.289392125,148.57886565,60.0,67.0
624,148.26088336875,148.67754980625,63.0,82.0
625,148.26088336875,148.70825154375,67.0,72.0
626,147.20825236875,148.74772520625,48.0,50.0
627,149.2981635,149.84202285,60.0,65.0
628,149.31351436875,149.88807545625,67.0,71.0
629,149.31351436875,149.9078122875,63.0,78.0
630,150.3507945,150.68412765,60.0,76.0
631,150.36614536875,150.7674609375,63.0,78.0
632,149.31351436875,150.76965391875,48.0,54.0
633,150.36614536875,150.7762328625,67.0,73.0
634,151.41877636875,151.94509186874998,62.0,73.0
635,151.41877636875,151.9604427375,65.0,78.0
636,151.41877636875,151.9604427375,70.0,82.0
637,151.41877636875,152.7718458,58.0,64.0
638,151.41877636875,152.8464071625,46.0,56.0
639,152.47140736875,152.86175803125,62.0,71.0
640,152.47140736875,152.87052995625,70.0,80.0
641,152.47140736875,152.920968525,65.0,75.0
642,153.52403836874998,154.05035386875,62.0,75.0
643,153.52403836874998,154.1051784,65.0,72.0
644,153.52403836874998,154.10737138125,58.0,78.0
645,153.52403836874998,154.84421308125,43.0,66.0
646,153.52403836874998,154.86833587499999,55.0,78.0
647,154.57666936875,154.93631829375,58.0,71.0
648,154.57666936875,154.96263406875,62.0,71.0
649,154.57666936875,154.97579195625,65.0,69.0
650,155.62930036875,155.9955282375,67.0,78.0
651,155.62930036875,156.01965103125,63.0,87.0
652,156.15561586875,156.429738525,62.0,56.0
653,155.89245811875,156.93631719375,60.0,20.0
654,156.41877361875,157.1095627125,63.0,72.0
655,156.68193136874999,157.12491358124998,67.0,54.0
656,155.62930036875,157.17754513124999,48.0,75.0
657,157.7323693875,158.1753516,60.0,64.0
658,157.7323693875,158.35736904375,67.0,74.0
659,157.7323693875,158.4078076125,63.0,85.0
660,158.78719336875,158.94947398125,62.0,75.0
661,157.7323693875,159.12491248125,55.0,70.0
662,158.52403561875,159.19508788125,60.0,51.0
663,159.05035111875,159.24771943125,63.0,87.0
664,157.7323693875,159.3464035875,48.0,61.0
665,159.31350886875,159.5657017125,65.0,79.0
666,159.83982436875,160.499911725,62.0,75.0
667,159.57666661875,160.55035029375,70.0,74.0
668,159.83982436875,160.57228010625,65.0,79.0
669,159.83982436875,161.13368330625,58.0,72.0
670,160.89245536875,161.45605154999998,62.0,71.0
671,160.89245536875,161.50210415625,65.0,81.0
672,159.83982436875,161.50868309999998,46.0,62.0
673,161.41877086875,161.5306129125,58.0,69.0
674,160.89245536875,161.5306129125,70.0,83.0
675,161.94508636875,162.3990334875,62.0,76.0
676,161.94508636875,162.40999839375,65.0,81.0
677,161.94508636875,162.4692088875,70.0,87.0
678,162.73455961874998,163.0832436375,60.0,46.0
679,162.99771736875,163.21043655,62.0,67.0
680,163.26087511875,163.55034864375,65.0,76.0
681,162.47140186875,163.60298019375,58.0,63.0
682,163.52403286875,163.6972783875,70.0,86.0
683,161.94508636875,163.7937695625,46.0,70.0
684,163.78719061875,163.9428922875,58.0,62.0
685,163.78719061875,163.99333085625,72.0,56.0
686,162.20824411875,164.01964663125,53.0,60.0
687,164.05034836875,164.45824288125,74.0,78.0
688,164.57666386875,165.4692072375,60.0,63.0
689,164.83982161875,165.5569264875,62.0,55.0
690,164.05034836875,165.66438256875,48.0,76.0
691,165.10297936875,165.67754045625,67.0,78.0
692,165.10297936875,165.69947026875,63.0,90.0
693,164.31350611874998,165.73894393125,55.0,74.0
694,165.62929486875,165.75210181875,60.0,63.0
695,166.15561036875,166.69946971875,60.0,70.0
696,166.15561036875,166.73017145625,67.0,78.0
697,166.15561036875,166.78280300625,63.0,89.0
698,166.94508361875,167.429732475,60.0,46.0
699,166.15561036875,167.52622365,55.0,75.0
700,167.20824136875,167.78280245625,63.0,87.0
701,167.73455686875,167.78718841875,55.0,53.0
702,167.20824136875,167.79596034375,67.0,73.0
703,167.73455686875,167.84420593125,60.0,74.0
704,166.15561036875,167.8639427625,48.0,72.0
705,168.26087236875,168.84859134375,58.0,76.0
706,168.26087236875,168.9867491625,65.0,85.0
707,168.26087236875,169.0832403375,62.0,76.0
708,168.26087236875,169.12709996249998,70.0,79.0
709,169.05034561875,169.534994475,58.0,53.0
710,168.26087236875,169.57227515625,46.0,65.0
711,169.31350336875,169.692889125,70.0,86.0
712,169.83981886875,169.88806445625,58.0,48.0
713,169.83981886875,169.94727495,46.0,61.0
714,169.31350336875,169.98016966875,62.0,87.0
715,169.31350336875,169.9867486125,65.0,81.0
716,170.10297661875,170.16876605625,56.0,41.0
717,170.10297661875,170.22359058749998,44.0,54.0
718,170.36613436875,170.85955515,55.0,78.0
719,170.36613436875,170.903414775,70.0,85.0
720,170.36613436875,171.10736203125,62.0,82.0
721,170.36613436875,171.12051991875,65.0,82.0
722,171.15560761875,171.56130915,55.0,59.0
723,171.41876536875,171.9867475125,70.0,85.0
724,171.41876536875,171.99332645625,62.0,82.0
725,171.94508086875,172.00209838125,55.0,76.0
726,170.36613436875,172.04157204375,43.0,81.0
727,171.41876536875,172.0569229125,65.0,82.0
728,172.47139636875,172.58981735625,36.0,79.0
729,172.47139636875,172.657799775,48.0,75.0
730,172.47139636875,172.88806280625,60.0,80.0
731,172.47139636875,172.9604311875,67.0,79.0
732,172.47139636875,173.24771173125,63.0,86.0
733,173.52402736874998,173.65122028125,63.0,9.0
734,172.99771186875,173.99332535625,48.0,64.0
735,173.78718511875,174.00209728125,62.0,76.0
736,173.52402736874998,174.00648324374998,60.0,78.0
737,173.26086961875,174.1402551,55.0,70.0
738,174.05034286875,174.36174620625,63.0,87.0
739,174.31350061875,174.57665836875,65.0,55.0
740,174.57665836875,174.71920215,63.0,61.0
741,174.57665836875,174.71920215,63.0,81.0
742,174.57665836875,174.71920215,67.0,78.0
743,174.57665836875,174.7586758125,48.0,71.0
744,174.57665836875,174.78279860625,36.0,68.0
745,174.57665836875,174.81350034375,55.0,76.0
746,174.57665836875,174.8200792875,60.0,69.0
747,175.10297386874998,175.25648255625,53.0,71.0
748,175.10297386874998,175.2937632375,31.0,70.0
749,175.10297386874998,175.32227199375,43.0,65.0
750,175.10297386874998,175.41437720625,58.0,70.0
751,175.36613161875,175.5481490625,36.0,78.0
752,175.36613161875,175.5569209875,55.0,79.0
753,175.36613161875,175.56788589375,63.0,75.0
754,175.36613161875,175.5744648375,60.0,68.0
755,176.6797273875,177.04595525625,72.0,97.0
756,176.6797273875,177.05472718125,67.0,90.0
757,176.6797273875,177.07665699375,63.0,98.0
758,177.4735866,177.6884987625,62.0,86.0
759,177.73455136875,177.92314775625,63.0,91.0
760,177.99770911875,178.149024825,67.0,92.0
761,176.6797273875,178.34858611875,48.0,85.0
762,176.9472711,178.38367381875,55.0,81.0
763,177.21042885,178.39244574375,60.0,90.0
764,178.26086686874999,178.48235797499999,70.0,94.0
765,178.52402461875,179.01086645625,72.0,90.0
766,178.78718236875,179.07007695,63.0,94.0
767,178.78718236875,179.39463817499998,68.0,91.0
768,179.31349786875,179.97139224375,65.0,78.0
769,179.57665561875,179.97577820625,67.0,62.0
770,180.10297111875,180.2806026,65.0,85.0
771,179.0525331,180.37928675625,60.0,77.0
772,179.83981336875,180.4077955125,75.0,97.0
773,178.78718236875,180.412181475,53.0,87.0
774,180.36612886875,180.58981295625,70.0,89.0
775,180.62928661875,180.991128525,75.0,85.0
776,180.89244436875,181.2411283875,74.0,89.0
777,180.89244436875,181.24551435,70.0,87.0
778,180.89244436875,181.28718099374998,65.0,80.0
779,181.68191761875,181.90560170625,60.0,78.0
780,181.94507536875,182.1621805125,62.0,84.0
781,181.41875986875,182.40998739375,58.0,85.0
782,182.20823311875,182.40998739375,63.0,87.0
783,180.89244436875,182.5042855875,46.0,75.0
784,182.47139086875,182.7323556375,67.0,85.0
785,181.15560211875,182.73454861874998,53.0,73.0
786,182.73454861874998,183.05033791875,74.0,94.0
787,182.99770636875,183.38367106875,72.0,90.0
788,182.99770636875,183.40121491875,67.0,76.0
789,183.78717961875,184.0042847625,62.0,78.0
790,184.05033736875,184.2849863625,63.0,93.0
791,184.31349511874998,184.51086343125,62.0,81.0
792,184.31349511874998,184.5218283375,65.0,85.0
793,183.52402186875,184.53279324375,60.0,72.0
794,183.26086411875,184.61174056875,55.0,83.0
795,184.57665286875,184.622705475,63.0,69.0
796,182.99770636875,184.64902125,48.0,81.0
797,184.57665286875,184.81349484375,67.0,80.0
798,184.83981061875,184.96261756875,70.0,89.0
799,184.83981061875,185.0130561375,67.0,29.0
800,185.10296836875,185.43191555625,60.0,81.0
801,185.10296836875,185.43191555625,68.0,86.0
802,185.10296836875,185.50209095625,63.0,89.0
803,185.62928386875,185.8902486375,60.0,66.0
804,185.89244161874998,186.09858185625,63.0,64.0
805,185.36612611875,186.27402035625,53.0,66.0
806,186.15559936875,186.47138866875,60.0,89.0
807,186.15559936875,186.4955114625,68.0,89.0
808,185.10296836875,186.5042833875,41.0,84.0
809,186.15559936875,186.54156406875,63.0,87.0
810,186.41875711875,186.61612543125,53.0,85.0
811,186.68191486875,186.8113007625,68.0,79.0
812,186.68191486875,186.9867392625,60.0,87.0
813,186.94507261875,187.19726546249998,68.0,82.0
814,187.20823036875,187.78279145625,67.0,87.0
815,187.20823036875,187.885861575,63.0,93.0
816,187.99770361875,188.18849298749998,62.0,70.0
817,187.73673885,188.3463876375,60.0,79.0
818,188.26086136875,188.62928221875,63.0,100.0
819,188.26086136875,188.6534050125,67.0,89.0
820,188.52401911875,188.72577339375,60.0,88.0
821,187.20823036875,188.80033475625,48.0,72.0
822,187.47138811874999,188.80472071875,55.0,82.0
823,188.78717686875,189.05472058125,65.0,82.0
824,189.05033461875,189.8112991125,70.0,84.0
825,189.31349236875,189.86612364375,62.0,81.0
826,189.31349236875,189.9253341375,65.0,82.0
827,190.10296561875,190.219193625,60.0,81.0
828,190.10296561875,190.34419355625,63.0,86.0
829,189.83980786875,190.6534039125,58.0,80.0
830,190.36612336875,190.8200704875,62.0,87.0
831,189.31349236875,190.94945638125,46.0,75.0
832,190.36612336875,190.98454408125,65.0,87.0
833,189.57665011875,191.02840370625,53.0,75.0
834,190.89243886875,191.043754575,58.0,87.0
835,191.15559661875,191.3639298375,65.0,74.0
836,191.41875436875,192.01743825,67.0,80.0
837,191.41875436875,192.04594700625,63.0,82.0
838,192.20822761875,192.4077889125,62.0,89.0
839,192.47138536875,192.66436771875,63.0,85.0
840,191.94506986875,192.79594659375,60.0,82.0
841,192.73454311875,192.9121746,65.0,82.0
842,191.41875436875,193.0569113625,48.0,85.0
843,192.99770086875,193.1227008,60.0,85.0
844,191.68191211875,193.13366570624999,55.0,81.0
845,192.99770086875,193.21042005,67.0,77.0
846,193.26085861875,193.4384901,70.0,81.0
847,193.52401636874998,194.10296341875,67.0,86.0
848,193.52401636874998,194.1270862125,63.0,98.0
849,194.31348961875,194.4955070625,62.0,54.0
850,194.57664736875,194.65120873125,62.0,36.0
851,194.05033186875,194.6665596,60.0,82.0
852,193.52401636874998,194.692875375,48.0,86.0
853,193.78717411875,194.727963075,55.0,82.0
854,194.57664736875,194.92971735,63.0,96.0
855,194.57664736875,194.93629629375,67.0,87.0
856,194.83980511875,195.02840150625,60.0,87.0
857,194.83980511875,195.13366460625,48.0,89.0
858,195.10296286874998,195.29155925625,65.0,89.0
859,195.36612061875,195.552524025,67.0,78.0
860,195.62927836875,195.93629574375,60.0,81.0
861,195.62927836875,195.93629574375,68.0,77.0
862,195.62927836875,196.00208518125,53.0,85.0
863,195.62927836875,196.15559386875,63.0,86.0
864,196.15559386875,196.2411201375,60.0,49.0
865,195.62927836875,196.7148040875,41.0,89.0
866,196.41875161875,196.868312775,68.0,97.0
867,196.41875161875,196.98234779999999,60.0,84.0
868,196.41875161875,197.01085655625,63.0,94.0
869,196.94506711875,197.2586634375,53.0,84.0
870,197.20822486875,197.4165580875,60.0,85.0
871,197.20822486875,197.4428738625,68.0,91.0
872,196.94506711875,197.447259825,41.0,84.0
873,197.20822486875,197.49769839375,63.0,89.0
874,197.47138261875,197.62050534374998,53.0,74.0
875,197.73454036875,198.13804891875,62.0,78.0
876,197.73454036875,198.1446278625,70.0,102.0
877,197.73454036875,198.219189225,65.0,89.0
878,198.52401361875,198.65559249375,60.0,74.0
879,198.52401361875,198.72576789375,63.0,87.0
880,198.78717136875,198.93848707499998,60.0,65.0
881,198.78717136875,198.96699583125,65.0,80.0
882,198.26085586874999,199.12489048125,58.0,84.0
883,199.05032911875,199.166557125,70.0,80.0
884,197.99769811875,199.19067991875,53.0,74.0
885,197.73454036875,199.23453954375,46.0,80.0
886,199.05032911875,199.49989027499998,63.0,86.0
887,199.57664461875,199.66436386875,63.0,28.0
888,199.57664461875,199.7586620625,68.0,89.0
889,199.83980236875,200.2762056375,63.0,89.0
890,199.83980236875,200.30032843125,67.0,87.0
891,199.83980236875,200.76524045624998,48.0,85.0
892,200.36611786875,200.850766725,60.0,76.0
893,200.10296011875,200.98015261875,55.0,77.0
894,200.62927561875,200.98453858125,67.0,74.0
895,201.15559111875,201.35295943124999,74.0,77.0
896,200.89243336875,201.40120501875,75.0,94.0
897,200.89243336875,201.52401196875,48.0,76.0
898,201.15559111875,201.52401196875,55.0,82.0
899,201.41874886875,201.52401196875,60.0,85.0
900,201.41874886875,201.6446259375,70.0,90.0
901,201.68190661875,201.85295915625,67.0,77.0
902,201.94506436875,202.412169375,53.0,85.0
903,201.94506436875,202.447257075,72.0,94.0
904,201.94506436875,202.60515172499998,63.0,96.0
905,201.94506436875,202.8726954375,68.0,90.0
906,202.73453761875,203.10076548749998,53.0,74.0
907,202.99769536875,203.3376074625,63.0,92.0
908,202.99769536875,203.35295833125,72.0,92.0
909,202.99769536875,203.3814670875,68.0,89.0
910,203.26085311875,203.44506354375,53.0,82.0
911,201.94506436875,203.5656775125,41.0,83.0
912,203.52401086875,203.60734415625,53.0,47.0
913,203.52401086875,203.6446248375,63.0,82.0
914,203.52401086875,203.7849756375,70.0,87.0
915,203.78716861875,204.19506313125,75.0,82.0
916,204.05032636875,204.394624425,70.0,94.0
917,204.05032636875,204.4165542375,72.0,92.0
918,204.05032636875,204.447255975,65.0,78.0
919,204.83979961875,204.95822060625,63.0,80.0
920,204.83979961875,205.00208023125,65.0,74.0
921,204.83979961875,205.15997488125,62.0,87.0
922,204.57664186875,205.394623875,60.0,82.0
923,204.31348411874998,205.52620275,55.0,87.0
924,205.36611511875,205.69944826875,63.0,102.0
925,205.36611511875,205.70164125,67.0,87.0
926,205.62927286875,205.73892193125,60.0,82.0
927,205.62927286875,205.75207981875,55.0,51.0
928,204.05032636875,205.75646578125,48.0,87.0
929,205.89243061874998,206.0042726625,67.0,69.0
930,205.89243061874998,206.09857085625,65.0,54.0
931,206.15558836875,206.63585126249998,62.0,87.0
932,206.15558836875,206.763044175,70.0,91.0
933,206.15558836875,206.79593889375,65.0,87.0
934,206.94506161875,207.27400880625,60.0,75.0
935,206.68409685,207.56128935,58.0,80.0
936,207.20821936875,207.56128935,63.0,81.0
937,207.47137711874998,207.75646468125,65.0,74.0
938,206.15558836875,207.868306725,46.0,78.0
939,206.41874611875,207.92751721874998,53.0,76.0
940,207.99769261875,208.15120130625,62.0,56.0
941,207.73453486875,208.1533942875,70.0,86.0
942,208.26085036875,208.71699046875,67.0,81.0
943,208.26085036875,208.8551482875,63.0,89.0
944,209.05032361874999,209.23014808125,62.0,67.0
945,209.31348136875,209.3814637875,63.0,78.0
946,209.57663911875,209.7235688625,67.0,62.0
947,208.26085036875,209.94505996875,48.0,86.0
948,208.78716586875,209.98234065,60.0,80.0
949,209.83979686875,210.01962133125,72.0,92.0
950,208.52400811875,210.16435809375,55.0,82.0
951,210.10295461875,210.35734044375,74.0,79.0
952,210.36611236875,211.02400674375,67.0,63.0
953,210.36611236875,211.0305856875,75.0,90.0
954,211.15558561875,211.80251508749998,62.0,63.0
955,211.41874336875,211.96260271875,63.0,73.0
956,211.68190111875,212.0305851375,70.0,70.0
957,210.36611236875,212.14681314375,48.0,55.0
958,210.62927011875,212.20821661875,55.0,70.0
959,210.89242786875,212.21698854375,60.0,73.0
960,211.94505886875,212.2498832625,67.0,62.0
961,212.20821661875,212.33540953125,65.0,69.0
962,212.4691813875,212.83540925625,72.0,97.0
963,212.4691813875,212.84418118125,67.0,90.0
964,212.4691813875,212.86611099375,63.0,98.0
965,213.2630406,213.4779527625,62.0,86.0
966,213.52400536875,213.71260175625,63.0,91.0
967,213.78716311875,213.938478825,67.0,92.0
968,212.4691813875,214.13804011874998,48.0,85.0
969,212.7367251,214.17312781875,55.0,81.0
970,212.99988285,214.18189974375,60.0,90.0
971,214.05032086875,214.271811975,70.0,94.0
972,214.31347861875,214.80032045625,72.0,90.0
973,214.57663636875,214.85953095,63.0,94.0
974,214.57663636875,215.184092175,68.0,91.0
975,215.10295186874998,215.76084624375,65.0,78.0
976,215.36610961875,215.76523220625,67.0,62.0
977,215.89242511875,216.0700566,65.0,85.0
978,214.84198709999998,216.16874075625,60.0,77.0
979,215.62926736875,216.1972495125,75.0,97.0
980,214.57663636875,216.201635475,53.0,87.0
981,216.15558286875,216.37926695625,70.0,89.0
982,216.41874061875,216.780582525,75.0,85.0
983,216.68189836874998,217.0305823875,74.0,89.0
984,216.68189836874998,217.03496834999999,70.0,87.0
985,216.68189836874998,217.07663499375,65.0,80.0
986,217.47137161875,217.69505570625,60.0,78.0
987,217.73452936875,217.9516345125,62.0,84.0
988,217.20821386875,218.19944139375,58.0,85.0
989,217.99768711875,218.19944139375,63.0,87.0
990,216.68189836874998,218.2937395875,46.0,75.0
991,218.26084486874998,218.52180963749998,67.0,85.0
992,216.94505611875,218.52400261875,53.0,73.0
993,218.52400261875,218.83979191875,75.0,94.0
994,218.78716036875,219.17312506874998,74.0,90.0
995,218.78716036875,219.19066891875,67.0,76.0
996,219.57663361875,219.7937387625,62.0,78.0
997,219.83979136874999,220.07444036249998,63.0,93.0
998,220.10294911875,220.30031743125,62.0,81.0
999,220.10294911875,220.3112823375,65.0,85.0
1000,219.31347586875,220.32224724374998,60.0,72.0
1001,219.05031811875,220.40119456875,55.0,83.0
1002,220.36610686875,220.412159475,63.0,69.0
1003,218.78716036875,220.43847525,48.0,81.0
1004,220.36610686875,220.60294884375,67.0,80.0
1005,220.62926461875,220.75207156874998,70.0,89.0
1006,220.62926461875,220.8025101375,67.0,29.0
1007,220.89242236875,221.22136955625,60.0,81.0
1008,220.89242236875,221.22136955625,68.0,86.0
1009,220.89242236875,221.29154495625,63.0,89.0
1010,221.41873786875,221.6797026375,60.0,66.0
1011,221.68189561875,221.88803585624999,63.0,64.0
1012,221.15558011875,222.06347435625,53.0,66.0
1013,221.94505336875,222.26084266875,60.0,89.0
1014,221.94505336875,222.2849654625,68.0,89.0
1015,220.89242236875,222.2937373875,41.0,84.0
1016,221.94505336875,222.33101806874998,63.0,87.0
1017,222.20821111875,222.40557943125,53.0,85.0
1018,222.47136886875,222.6007547625,68.0,79.0
1019,222.47136886875,222.7761932625,60.0,87.0
1020,222.73452661875,222.9867194625,68.0,82.0
1021,222.99768436875,223.57224545625,67.0,87.0
1022,222.99768436875,223.67531557499998,63.0,93.0
1023,223.78715761875,223.9779469875,62.0,70.0
1024,223.52619285,224.1358416375,60.0,79.0
1025,224.05031536875,224.41873621874998,63.0,100.0
1026,224.05031536875,224.4428590125,67.0,89.0
1027,224.31347311874998,224.51522739375,60.0,88.0
1028,222.99768436875,224.58978875625,48.0,72.0
1029,223.26084211875,224.59417471875,55.0,82.0
1030,224.57663086875,224.84417458125,65.0,82.0
1031,224.83978861875,225.6007531125,70.0,84.0
1032,225.10294636875,225.65557764375,62.0,81.0
1033,225.10294636875,225.7147881375,65.0,82.0
1034,225.89241961874998,226.008647625,60.0,81.0
1035,225.89241961874998,226.13364755625,63.0,86.0
1036,225.62926186875,226.4428579125,58.0,80.0
1037,226.15557736875,226.6095244875,62.0,87.0
1038,225.10294636875,226.73891038125,46.0,75.0
1039,226.15557736875,226.77399808125,65.0,87.0
1040,225.36610411875,226.81785770625,53.0,75.0
1041,226.68189286875,226.833208575,58.0,87.0
1042,226.94505061875,227.1533838375,65.0,74.0
1043,227.20820836875,227.80689225,67.0,80.0
1044,227.20820836875,227.83540100625,63.0,82.0
1045,227.99768161875,228.1972429125,62.0,89.0
1046,228.26083936875,228.45382171875,63.0,85.0
1047,227.73452386875,228.58540059375,60.0,82.0
1048,228.52399711875,228.7016286,65.0,82.0
1049,227.20820836875,228.8463653625,48.0,85.0
1050,228.78715486875,228.9121548,60.0,85.0
1051,227.47136611874998,228.92311970625,55.0,81.0
1052,228.78715486875,228.99987405,67.0,77.0
1053,229.05031261874998,229.2279441,70.0,81.0
1054,229.31347036875,229.89241741875,67.0,86.0
1055,229.31347036875,229.9165402125,63.0,98.0
1056,230.10294361875,230.2849610625,62.0,54.0
1057,229.83978586875,230.4560136,60.0,82.0
1058,229.31347036875,230.482329375,48.0,86.0
1059,229.57662811875,230.517417075,55.0,82.0
1060,230.36610136875,230.71917135,63.0,96.0
1061,230.36610136875,230.72575029375,67.0,87.0
1062,230.62925911874999,230.81785550625,60.0,87.0
1063,230.62925911874999,230.92311860625,48.0,89.0
1064,230.89241686875,231.08101325625,65.0,89.0
1065,231.15557461875,231.341978025,67.0,78.0
1066,231.41873236875,231.72574974375,60.0,81.0
1067,231.41873236875,231.72574974375,68.0,77.0
1068,231.41873236875,231.79153918125,53.0,85.0
1069,231.41873236875,231.94504786875,63.0,86.0
1070,231.94504786875,232.0305741375,60.0,49.0
1071,231.41873236875,232.5042580875,41.0,89.0
1072,232.20820561875,232.657766775,68.0,97.0
1073,232.20820561875,232.7718018,60.0,84.0
1074,232.20820561875,232.80031055625,63.0,94.0
1075,232.73452111875,233.0481174375,53.0,84.0
1076,232.99767886875,233.2060120875,60.0,85.0
1077,232.99767886875,233.2323278625,68.0,91.0
1078,232.73452111875,233.236713825,41.0,84.0
1079,232.99767886875,233.28715239375,63.0,89.0
1080,233.26083661875,233.40995934375,53.0,74.0
1081,233.52399436875,233.92750291875,62.0,78.0
1082,233.52399436875,233.9340818625,70.0,102.0
1083,233.52399436875,234.008643225,65.0,89.0
1084,234.31346761875,234.44504649375,60.0,74.0
1085,234.31346761875,234.51522189375,63.0,87.0
1086,234.57662536875,234.727941075,60.0,65.0
1087,234.57662536875,234.75644983125,65.0,80.0
1088,234.05030986875,234.91434448125,58.0,84.0
1089,234.83978311875,234.956011125,70.0,80.0
1090,233.78715211875,234.98013391875,53.0,74.0
1091,233.52399436875,235.02399354375,46.0,80.0
1092,234.83978311875,235.289344275,63.0,86.0
1093,235.36609861875,235.45381786875,63.0,28.0
1094,235.36609861875,235.5481160625,68.0,89.0
1095,235.62925636875,236.0656596375,63.0,89.0
1096,235.62925636875,236.08978243125,67.0,87.0
1097,235.62925636875,236.55469445625,48.0,85.0
1098,236.15557186875,236.640220725,60.0,76.0
1099,235.89241411875,236.76960661875,55.0,77.0
1100,236.41872961875,236.77399258124998,67.0,74.0
1101,236.94504511875,237.14241343125,74.0,77.0
1102,236.68188736874998,237.19065901874998,75.0,94.0
1103,236.68188736874998,237.31346596875,48.0,76.0
1104,236.94504511875,237.31346596875,55.0,82.0
1105,237.20820286875,237.31346596875,60.0,85.0
1106,237.20820286875,237.4340799375,70.0,90.0
1107,237.47136061875,237.64241315625,67.0,77.0
1108,237.73451836875,238.201623375,53.0,85.0
1109,237.73451836875,238.236711075,72.0,94.0
1110,237.73451836875,238.394605725,63.0,96.0
1111,237.73451836875,238.6621494375,68.0,90.0
1112,238.52399161875,238.8902194875,53.0,74.0
1113,238.78714936875,239.1270614625,63.0,92.0
1114,238.78714936875,239.14241233125,72.0,92.0
1115,238.78714936875,239.1709210875,68.0,89.0
1116,239.05030711875,239.23451754375,53.0,82.0
1117,237.73451836875,239.3551315125,41.0,83.0
1118,239.31346486875,239.39679815625,53.0,47.0
1119,239.31346486875,239.4340788375,63.0,82.0
1120,239.31346486875,239.5744296375,70.0,87.0
1121,239.57662261875,239.98451713125,75.0,82.0
1122,239.83978036874998,240.184078425,70.0,94.0
1123,239.83978036874998,240.2060082375,72.0,92.0
1124,239.83978036874998,240.236709975,65.0,78.0
1125,240.62925361875,240.79153423124998,65.0,74.0
1126,240.62925361875,240.94942888125,62.0,87.0
1127,240.36609586875,241.18407787499999,60.0,82.0
1128,240.10293811875,241.31565675,55.0,87.0
1129,241.15556911875,241.48890226875,63.0,102.0
1130,241.15556911875,241.49109525,67.0,87.0
1131,241.41872686874999,241.52837593125,60.0,82.0
1132,241.41872686874999,241.54153381875,55.0,51.0
1133,239.83978036874998,241.54591978125,48.0,87.0
1134,241.68188461875,241.7937266625,67.0,69.0
1135,241.94504236875,242.4253052625,62.0,87.0
1136,241.94504236875,242.55249817499998,70.0,91.0
1137,241.94504236875,242.58539289375,65.0,87.0
1138,242.73451561875,243.06346280625,60.0,75.0
1139,242.47355085,243.35074335,58.0,80.0
1140,242.99767336875,243.35074335,63.0,81.0
1141,243.26083111875,243.54591868125,65.0,74.0
1142,241.94504236875,243.657760725,46.0,78.0
1143,242.20820011875,243.71697121875,53.0,76.0
1144,243.78714661875,243.94065530625,62.0,56.0
1145,243.52398886875,243.9428482875,70.0,86.0
1146,244.05030436875,244.50644446875,67.0,81.0
1147,244.05030436875,244.6446022875,63.0,89.0
1148,244.83977761875,245.01960208124999,62.0,67.0
1149,245.10293536875,245.1709177875,63.0,78.0
1150,245.36609311875,245.5130228625,67.0,62.0
1151,244.05030436875,245.73451396875,48.0,86.0
1152,244.57661986875,245.77179465,60.0,80.0
1153,245.62925086875,245.80907533125,72.0,92.0
1154,244.31346211875,245.95381209375,55.0,82.0
1155,245.89240861874998,246.14679444375,74.0,79.0
1156,246.15556636875,246.289338225,67.0,63.0
1157,246.1709172375,246.289338225,67.0,70.0
1158,246.15556636875,246.2937241875,75.0,90.0
1159,246.16433829375,246.763022175,63.0,67.0
1160,246.9603904875,247.2060043875,62.0,58.0
1161,247.24328506875,247.33977624375,63.0,63.0
1162,247.49109195,247.7147760375,67.0,78.0
1163,246.6972327375,247.84196895,60.0,85.0
1164,246.4340749875,247.85074087499999,55.0,75.0
1165,246.1884610875,247.85293385625,48.0,72.0
1166,247.78275845625,248.10293371875,72.0,70.0
1167,248.05030216875,248.18626700625,74.0,60.0
1168,248.1796880625,248.28056519999998,75.0,51.0
1169,248.26082836875,248.8112666625,74.0,59.0
1170,248.26082836875,248.8375824375,65.0,66.0
1171,248.26082836875,248.8902139875,70.0,72.0
1172,249.05030161874998,249.23451204375,65.0,72.0
1173,249.464775075,249.55468730625,65.0,42.0
1174,249.43626631875,249.80907313125,70.0,82.0
1175,248.52398611875,250.08758175,53.0,55.0
1176,248.26082836875,250.096353675,46.0,57.0
1177,249.73670475,250.13363435624998,74.0,61.0
1178,248.78714386875,250.13802031875,58.0,62.0
1179,250.12266945,250.640213025,77.0,66.0
1180,250.87047605625,251.7674053875,70.0,63.0
1181,250.8726690375,251.90117724375,65.0,64.0
1182,250.4910903,251.99766841875,74.0,69.0
1183,251.96258071875,252.0656508375,70.0,76.0
1184,252.51959795625,252.72135223125,82.0,43.0
1185,252.68187856875,253.06345730625,89.0,53.0
1186,252.55468565625,253.12047481874998,86.0,54.0
1187,252.81784340625,253.19942214374998,94.0,55.0
1188,250.868283075,253.51521144375,62.0,64.0
1189,250.86170413125,253.52398336875,55.0,69.0
1190,254.57661436875,254.92310540625,67.0,91.0
1191,254.83977211875,255.12924564374998,70.0,69.0
1192,255.10292986874998,255.46915773749998,67.0,63.0
1193,255.10292986874998,255.50205245625,72.0,82.0
1194,255.10292986874998,255.5437191,48.0,72.0
1195,255.36608761875,255.62924536875,55.0,62.0
1196,255.62924536875,255.789333,67.0,61.0
1197,255.62924536875,255.8112628125,72.0,67.0
1198,255.62924536875,255.95380659375,60.0,61.0
1199,255.89240311875,256.01740305,67.0,66.0
1200,255.89240311875,256.04591180625,72.0,72.0
1201,256.15556086875,256.26520993125,67.0,73.0
1202,256.15556086875,256.37047303125,72.0,91.0
1203,255.89240311875,256.54371855,62.0,69.0
1204,256.41871861875,256.570034325,63.0,63.0
1205,256.41871861875,256.68406935,67.0,80.0
1206,256.68187636875,256.92749026875,72.0,76.0
1207,256.94503411875,257.13801646875,79.0,78.0
1208,257.20819186875,257.49766539374997,79.0,78.0
1209,257.47134961874997,257.64678811875,77.0,72.0
1210,257.20819186875,257.657753025,53.0,75.0
1211,257.47134961874997,257.74766525625,60.0,56.0
1212,257.73450736875,257.9867002125,77.0,69.0
1213,257.73450736875,258.061261575,65.0,62.0
1214,257.99766511875,258.28713864375,79.0,76.0
1215,258.26082286875,258.60731390625,68.0,75.0
1216,257.99766511875,258.6621384375,67.0,62.0
1217,258.26082286875,258.7147699875,77.0,82.0
1218,258.78713836875,259.166524125,72.0,85.0
1219,259.05029611875,259.28713809375,65.0,53.0
1220,259.31345386875,259.50205025625,70.0,56.0
1221,259.31345386875,259.68626068125,74.0,85.0
1222,259.31345386875,259.77397993125,46.0,75.0
1223,259.57661161875,259.833190425,53.0,64.0
1224,259.83976936875,259.98012016875,65.0,57.0
1225,259.83976936875,260.07661134375,74.0,66.0
1226,259.83976936875,260.14678674375,58.0,61.0
1227,260.10292711875,260.22792705,65.0,50.0
1228,260.10292711875,260.3200322625,72.0,54.0
1229,260.36608486875,260.62485665625,65.0,54.0
1230,260.36608486875,260.71257590625,70.0,69.0
1231,260.10292711875,260.7366987,60.0,49.0
1232,260.62924261874997,260.76082149375,62.0,66.0
1233,260.89240036875,261.1182774375,72.0,69.0
1234,261.15555811875,261.31345276875,74.0,61.0
1235,261.41871586875,261.692838525,74.0,88.0
1236,261.41871586875,261.7937156625,48.0,70.0
1237,261.68187361875,261.8463472125,72.0,64.0
1238,261.68187361875,261.93187348125,55.0,58.0
1239,261.94503136875,262.15117160625,72.0,72.0
1240,261.94503136875,262.2454698,60.0,59.0
1241,262.20818911875,262.5042415875,70.0,64.0
1242,262.47134686875,262.84634666249997,72.0,70.0
1243,262.73450461875,262.89459225,63.0,75.0
1244,262.20818911875,262.90117119375,62.0,58.0
1245,262.99766236875,263.24327626875,67.0,70.0
1246,263.26082011875,263.40555688125,72.0,72.0
1247,263.52397786875,263.9296794,53.0,67.0
1248,263.52397786875,263.94283728749997,77.0,75.0
1249,263.78713561874997,264.04152144375,60.0,61.0
1250,264.05029336875,264.2761704375,77.0,78.0
1251,264.05029336875,264.3507318,65.0,58.0
1252,264.31345111875,264.640205325,79.0,82.0
1253,264.83976661875,264.9516086625,68.0,76.0
1254,264.57660886875,264.955994625,77.0,93.0
1255,264.31345111875,264.99766126875,67.0,56.0
1256,265.10292436875,265.2937137375,72.0,91.0
1257,265.36608211875,265.59634515,75.0,63.0
1258,265.49766099375,265.7147661375,77.0,70.0
1259,265.62923986875,265.78274855625,72.0,75.0
1260,265.62923986875,265.8112573125,79.0,78.0
1261,265.62923986875,266.01081860625,48.0,70.0
1262,265.89239761875,266.02397649375,72.0,63.0
1263,265.89239761875,266.11169574375,79.0,76.0
1264,265.89239761875,266.1270466125,55.0,66.0
1265,266.15555536875,266.41432715625,75.0,67.0
1266,266.15555536875,266.46695870625,60.0,53.0
1267,266.41871311875,266.7147655875,74.0,78.0
1268,266.68187086874997,267.06344960625,63.0,59.0
1269,266.41871311875,267.0875724,62.0,72.0
1270,266.68187086874997,267.5130107625,72.0,91.0
1271,267.47134411875,267.6007300125,74.0,48.0
1272,267.59415106875,267.72572994374997,72.0,52.0
1273,267.73450186875,268.08537886875,65.0,64.0
1274,267.73450186875,268.1095016625,46.0,72.0
1275,267.73450186875,268.12046656875,70.0,61.0
1276,267.99765961875,268.236694575,53.0,63.0
1277,268.26081736875,268.43625586875,65.0,54.0
1278,268.26081736875,268.50204530625,70.0,56.0
1279,268.26081736875,268.57222070625,58.0,53.0
1280,268.52397511875,268.6621329375,65.0,46.0
1281,268.52397511875,268.73888728125,72.0,64.0
1282,268.78713286875,269.0875713,74.0,72.0
1283,268.78713286875,269.10292216875,65.0,63.0
1284,268.52397511875,269.166518625,60.0,57.0
1285,269.05029061875,269.16871160625,62.0,69.0
1286,269.31344836875,269.4603781125,65.0,60.0
1287,269.31344836875,269.50643071875,74.0,62.0
1288,269.57660611875,269.70818499375,75.0,53.0
1289,269.83976386874997,269.98011466875,77.0,72.0
1290,269.83976386874997,270.17748298125,48.0,67.0
1291,270.10292161875,270.3024829125,77.0,66.0
1292,270.10292161875,270.324412725,55.0,63.0
1293,270.36607936875,270.605114325,75.0,75.0
1294,270.36607936875,270.67748270625,60.0,54.0
1295,270.62923711875,270.9077457375,74.0,64.0
1296,270.62923711875,271.07221933125,62.0,57.0
1297,270.89239486875,271.13362280625,63.0,53.0
1298,270.89239486875,271.1928333,72.0,72.0
1299,271.15555261875,271.4779208625,67.0,55.0
1300,271.41871036875,271.74765755625,70.0,23.0
1301,271.68186811875,271.80906103125,72.0,58.0
1302,271.94502586875,272.6972184375,84.0,55.0
1303,272.01739425,272.7147622875,96.0,73.0
