,start,end,pitch,velocity
0,39.243890875,39.85985339583333,78.0,96.0
1,39.966780875000005,40.1881659375,76.0,103.0
2,40.328225875,40.584249416666665,74.0,107.0
3,40.689670875000004,41.28003104166667,76.0,107.0
4,41.412560875000004,41.6700904375,74.0,101.0
5,41.774005875,42.03454747916667,73.0,100.0
6,42.135450875000004,42.807136166666666,74.0,103.0
7,42.858340875,43.156533,73.0,98.0
8,43.219785875,43.53906229166667,71.0,98.0
9,43.581230875,44.701710375000005,69.0,97.0
10,45.027010875,45.647491458333334,71.0,98.0
11,45.749900875,46.35833329166667,74.0,101.0
12,46.472790875,47.05260889583334,73.0,98.0
13,47.195680875,47.79808920833334,69.0,96.0
14,47.918570875,49.35832679166667,66.0,96.0
15,50.087240875,50.368866770833336,74.0,107.0
16,50.448685875,50.73633585416667,76.0,100.0
17,50.810130875,51.42308135416667,78.0,100.0
18,51.533020875,51.81012870833334,76.0,105.0
19,51.894465875,52.192658,74.0,102.0
20,52.255910875000005,52.83271685416667,76.0,100.0
21,52.978800875000005,53.26494483333334,74.0,98.0
22,53.340245875,53.635425958333336,73.0,100.0
23,53.701690875000004,54.289039,74.0,101.0
24,54.424580875000004,54.69867666666667,73.0,96.0
25,54.786025875,54.9893386875,71.0,96.0
26,55.147470875,56.17909514583334,69.0,100.0
27,56.593250875,57.15198460416667,71.0,102.0
28,57.316140875,57.89595889583334,78.0,100.0
29,58.039030875,58.67908972916667,73.0,97.0
30,58.761920875,58.99836614583334,74.0,102.0
31,59.123365875000005,59.406497791666666,76.0,97.0
32,59.484810875,61.933600750000004,74.0,101.0
33,62.376370875,63.40498310416667,71.0,103.0
34,63.460705875,63.8266689375,74.0,107.0
35,63.822150875000005,64.60226966666667,73.0,96.0
36,64.545040875,64.9019678125,74.0,105.0
37,64.906485875,65.2905211875,76.0,100.0
38,65.267930875,66.36280802083334,78.0,95.0
39,66.352265875,66.7272650625,81.0,97.0
40,66.713710875,67.93358775,78.0,96.0
41,68.159490875,69.16099472916667,71.0,105.0
42,69.243825875,69.62183710416667,74.0,101.0
43,69.605270875,70.29352239583334,73.0,97.0
44,70.32816087500001,70.7031600625,74.0,96.0
45,70.689605875,71.04352077083334,76.0,98.0
46,71.051050875,73.10526329166667,74.0,102.0
47,73.21972087500001,73.545021375,74.0,107.0
48,73.581165875,73.888394125,76.0,101.0
49,73.942610875,74.55857339583333,78.0,96.0
50,74.665500875,74.8868859375,76.0,103.0
51,75.026945875,75.28296941666667,74.0,107.0
52,75.388390875,75.97875104166667,76.0,107.0
53,76.111280875,76.3688104375,74.0,101.0
54,76.47272587500001,76.73326747916667,73.0,100.0
55,76.834170875,77.50585616666667,74.0,103.0
56,77.557060875,77.855253,73.0,98.0
57,77.91850587500001,78.23778229166668,71.0,98.0
58,78.279950875,79.400430375,69.0,97.0
59,79.725730875,80.34621145833334,71.0,98.0
60,80.448620875,81.05705329166668,74.0,101.0
61,81.17151087500001,81.75132889583334,73.0,98.0
62,81.894400875,82.16699064583334,74.0,110.0
63,82.255845875,82.52542360416668,76.0,98.0
64,82.61729087500001,84.02843239583333,78.0,97.0
65,84.06307087500001,84.64740695833333,76.0,99.0
66,84.785960875,85.06758677083333,74.0,107.0
67,85.147405875,85.43505585416666,76.0,100.0
68,85.50885087500001,86.12180135416666,78.0,100.0
69,86.231740875,86.50884870833333,76.0,105.0
70,86.593185875,86.891378,74.0,102.0
71,86.954630875,87.53143685416667,76.0,100.0
72,87.677520875,87.96366483333334,74.0,98.0
73,88.038965875,88.33414595833334,73.0,100.0
74,88.400410875,88.987759,74.0,101.0
75,89.123300875,89.39739666666667,73.0,96.0
76,89.484745875,89.6880586875,71.0,96.0
77,89.846190875,90.87781514583334,69.0,100.0
78,91.291970875,91.85070460416667,71.0,102.0
79,92.014860875,92.59467889583334,78.0,100.0
80,92.737750875,93.37780972916667,73.0,97.0
81,93.46064087500001,93.69708614583334,74.0,102.0
82,93.822085875,94.10521779166667,76.0,97.0
83,96.35220087500001,96.6142485,78.0,100.0
84,94.183530875,96.63232075,74.0,101.0
85,96.713645875,96.9802115625,81.0,98.0
86,97.075090875,98.00279970833334,83.0,96.0
87,98.159425875,98.41695543750001,83.0,100.0
88,98.520870875,99.18653208333333,81.0,98.0
89,99.243760875,99.50430247916667,76.0,98.0
90,99.60520587500001,99.85068727083333,81.0,101.0
91,99.966650875,100.5765893125,78.0,100.0
92,100.689540875,101.26032277083334,74.0,102.0
93,101.412430875,101.99375491666667,71.0,97.0
94,102.135320875,102.40640462500001,71.0,107.0
95,102.49676587500001,102.767849625,73.0,98.0
96,102.858210875,103.4771854375,74.0,103.0
97,103.581100875,104.26332831250001,78.0,103.0
98,104.303990875,104.99826647916667,76.0,103.0
99,105.026880875,105.59766277083334,81.0,98.0
100,105.74977087500001,107.58862231250001,78.0,100.0
101,107.918440875,108.20157279166666,78.0,105.0
102,108.279885875,108.52235522916666,81.0,97.0
103,108.64133087500001,109.51934102083334,83.0,97.0
104,109.725665875,109.98168941666667,83.0,98.0
105,110.08711087500001,110.70909747916667,81.0,96.0
106,110.810000875,111.171445875,76.0,107.0
107,111.171445875,111.44403564583334,81.0,98.0
108,111.532890875,112.10367277083334,78.0,97.0
109,112.255780875,112.92294810416666,74.0,101.0
110,112.978670875,113.54945277083334,71.0,102.0
111,113.701560875,113.96963258333334,78.0,97.0
112,114.063005875,114.30396920833334,76.0,97.0
113,114.424450875,114.99071470833334,74.0,103.0
114,115.147340875,115.7211348125,78.0,98.0
115,115.870230875,116.4530609375,76.0,100.0
116,116.59312087500001,117.22715564583334,78.0,102.0
117,117.316010875,120.08859522916667,71.0,102.0
118,143.340050875,144.36866310416667,71.0,103.0
119,144.424385875,144.7903489375,74.0,107.0
120,144.78583087500002,145.56594966666668,73.0,96.0
121,145.508720875,145.86564781250001,74.0,105.0
122,145.870165875,146.2542011875,76.0,100.0
123,146.231610875,147.32648802083335,78.0,95.0
124,147.315945875,147.6909450625,81.0,97.0
125,147.67739087500001,148.89726775,78.0,96.0
126,149.123170875,150.12467472916668,71.0,105.0
127,150.207505875,150.58551710416668,74.0,101.0
128,150.568950875,151.25720239583333,73.0,97.0
129,151.291840875,151.6668400625,74.0,96.0
130,151.653285875,152.00720077083335,76.0,98.0
131,152.014730875,154.06894329166667,74.0,102.0
132,154.18340087500002,154.50870137500002,74.0,107.0
133,154.544845875,154.852074125,76.0,101.0
134,154.906290875,155.52225339583333,78.0,96.0
135,155.629180875,155.8505659375,76.0,103.0
136,155.990625875,156.24664941666668,74.0,107.0
137,156.352070875,156.94243104166668,76.0,107.0
138,157.07496087500002,157.3324904375,74.0,101.0
139,157.43640587500002,157.69694747916668,73.0,100.0
140,157.797850875,158.46953616666667,74.0,103.0
141,158.520740875,158.81893300000002,73.0,98.0
142,158.882185875,159.20146229166667,71.0,98.0
143,159.243630875,160.364110375,69.0,97.0
144,160.689410875,161.30989145833334,71.0,98.0
145,161.412300875,162.02073329166666,74.0,101.0
146,162.135190875,162.71500889583334,73.0,98.0
147,162.858080875,163.13067064583333,74.0,110.0
148,163.21952587500002,163.48910360416667,76.0,98.0
149,163.58097087500002,164.99211239583335,78.0,97.0
150,165.026750875,165.61108695833335,76.0,99.0
151,165.749640875,166.03126677083333,74.0,107.0
152,166.11108587500001,166.39873585416666,76.0,100.0
153,166.47253087500002,167.08548135416666,78.0,100.0
154,167.195420875,167.47252870833333,76.0,105.0
155,167.556865875,167.855058,74.0,102.0
156,167.918310875,168.49511685416667,76.0,100.0
157,168.641200875,168.92734483333334,74.0,98.0
158,169.002645875,169.29782595833333,73.0,100.0
159,169.36409087500002,169.951439,74.0,101.0
160,170.086980875,170.36107666666666,73.0,96.0
161,170.448425875,170.6517386875,71.0,96.0
162,170.809870875,171.84149514583333,69.0,100.0
163,172.25565087500001,172.81438460416666,71.0,102.0
164,172.978540875,173.55835889583335,78.0,100.0
165,173.701430875,174.34148972916668,73.0,97.0
166,174.424320875,174.66076614583335,74.0,102.0
167,174.785765875,175.06889779166667,76.0,97.0
168,177.315880875,177.5779285,78.0,100.0
169,175.147210875,177.59600075,74.0,101.0
170,177.677325875,177.9438915625,81.0,98.0
171,178.038770875,178.96647970833334,83.0,96.0
172,179.123105875,179.38063543750002,83.0,100.0
173,179.484550875,180.15021208333334,81.0,98.0
174,180.207440875,180.46798247916666,76.0,98.0
175,180.568885875,180.81436727083334,81.0,101.0
176,180.930330875,181.54026931250002,78.0,100.0
177,181.65322087500002,182.22400277083335,74.0,102.0
178,182.376110875,182.95743491666667,71.0,97.0
179,183.099000875,183.370084625,71.0,107.0
180,183.460445875,183.731529625,73.0,98.0
181,183.821890875,184.4408654375,74.0,103.0
182,184.54478087500001,185.2270083125,78.0,103.0
183,185.267670875,185.96194647916667,76.0,103.0
184,185.990560875,186.56134277083333,81.0,98.0
185,186.713450875,188.55230231250002,78.0,100.0
186,188.882120875,189.16525279166666,78.0,105.0
187,189.243565875,189.48603522916667,81.0,97.0
188,189.605010875,190.48302102083335,83.0,97.0
189,190.68934587500001,190.94536941666667,83.0,98.0
190,191.05079087500002,191.67277747916668,81.0,96.0
191,191.773680875,192.135125875,76.0,107.0
192,192.135125875,192.40771564583335,81.0,98.0
193,192.496570875,193.06735277083334,78.0,97.0
194,193.219460875,193.88662810416668,74.0,101.0
195,193.94235087500002,194.51313277083335,71.0,102.0
196,194.665240875,194.93331258333333,78.0,97.0
197,195.026685875,195.26764920833335,76.0,97.0
198,195.388130875,195.95439470833335,74.0,103.0
199,196.111020875,196.6848148125,78.0,98.0
200,196.83391087500002,197.4167409375,76.0,100.0
201,197.556800875,198.19083564583335,78.0,102.0
202,198.279690875,200.26763837500002,71.0,102.0
203,200.44836087500002,200.7104085,78.0,100.0
204,200.809805875,201.07637156250001,81.0,98.0
205,201.171250875,202.09895970833335,83.0,96.0
206,202.255585875,202.5131154375,83.0,100.0
207,202.617030875,203.28269208333333,81.0,98.0
208,203.33992087500002,203.60046247916668,76.0,98.0
209,203.701365875,203.94684727083333,81.0,101.0
210,204.062810875,204.6727493125,78.0,100.0
211,204.785700875,205.35648277083334,74.0,102.0
212,205.508590875,206.0899149166667,71.0,97.0
213,206.23148087500002,206.50256462500002,71.0,107.0
214,206.59292587500002,206.864009625,73.0,98.0
215,206.954370875,207.5733454375,74.0,103.0
216,207.677260875,208.35948831250002,78.0,103.0
217,208.400150875,209.09442647916669,76.0,103.0
218,209.12304087500002,209.69382277083335,81.0,98.0
219,209.845930875,211.6847823125,78.0,100.0
220,212.014600875,212.29773279166668,78.0,105.0
221,212.37604587500002,212.61851522916666,81.0,97.0
222,212.73749087500002,213.61550102083334,83.0,97.0
223,213.821825875,214.07784941666668,83.0,98.0
224,214.183270875,214.80525747916667,81.0,96.0
225,214.906160875,215.26760587500002,76.0,107.0
226,215.26760587500002,215.54019564583334,81.0,98.0
227,215.62905087500002,216.19983277083335,78.0,97.0
228,216.351940875,217.01910810416666,74.0,101.0
229,217.074830875,217.64561277083334,71.0,102.0
230,217.797720875,218.06579258333335,78.0,97.0
231,218.159165875,218.40012920833334,76.0,97.0
232,218.52061087500002,219.08687470833334,74.0,103.0
233,219.243500875,219.8172948125,78.0,98.0
234,219.966390875,220.5492209375,76.0,100.0
235,220.689280875,221.32331564583333,78.0,102.0
236,221.41217087500002,224.18475522916668,71.0,102.0
