,start,end,pitch,velocity
0,2.6385485,4.769567979166667,54.0,89.0
1,2.9999935,5.0466758125,62.0,91.0
2,3.1099330208333336,5.3358318125,66.0,85.0
3,3.2575230625000002,5.551192791666667,71.0,96.0
4,5.478903791666667,5.686734666666667,66.0,87.0
5,5.246976583333334,5.756011625,64.0,93.0
6,2.8493914166666667,5.855409,59.0,89.0
7,5.902095645833334,6.16263725,64.0,91.0
8,5.7966741875,8.177693125000001,66.0,84.0
9,6.2304081875,8.444258812500001,64.0,88.0
10,6.0617338541666665,8.637029479166667,59.0,89.0
11,4.873483416666667,9.283112416666667,54.0,59.0
12,8.573776604166667,9.850882270833333,64.0,77.0
13,8.2906446875,10.060219166666666,66.0,85.0
14,9.793653479166666,10.159616541666667,59.0,91.0
15,9.960821791666667,10.272568104166668,64.0,91.0
16,5.6520961875,10.290640354166667,71.0,98.0
17,10.153592458333334,10.311724645833333,66.0,85.0
18,9.588834645833334,10.384013645833333,54.0,78.0
19,2.3855370000000002,10.406603958333333,47.0,97.0
20,10.328290875,11.135518041666668,57.0,89.0
21,10.335820979166668,11.463830583333333,64.0,95.0
22,11.239433479166667,11.469854666666667,57.0,90.0
23,11.4171439375,11.673167479166667,61.0,83.0
24,11.027084541666667,12.454792291666667,52.0,91.0
25,11.802685270833333,12.4698525,64.0,91.0
26,12.841839645833334,13.036116333333334,61.0,88.0
27,12.841839645833334,13.072260833333333,64.0,92.0
28,12.847863729166667,13.103887270833333,69.0,88.0
29,13.015032041666666,13.1249715625,57.0,96.0
30,13.236417104166668,13.664127020833334,61.0,78.0
31,13.213826791666667,13.725873875000001,69.0,91.0
32,13.219850875,13.7936448125,64.0,89.0
33,14.2725594375,14.385511000000001,71.0,90.0
34,14.271053416666668,14.436715708333335,61.0,85.0
35,14.269547395833333,14.468342145833335,57.0,84.0
36,14.825269083333334,15.007497604166668,61.0,85.0
37,14.819245,15.012015666666667,57.0,85.0
38,14.802678770833333,15.058702312500001,69.0,89.0
39,15.362918520833334,15.7364116875,57.0,92.0
40,15.356894437500001,15.9397245,61.0,89.0
41,15.355388416666667,16.012013500000002,69.0,92.0
42,15.725869541666667,16.02857972916667,52.0,85.0
43,10.334314958333334,16.049664020833333,45.0,97.0
44,15.893037854166668,16.054182083333334,57.0,87.0
45,16.013519520833334,17.174661583333332,58.0,81.0
46,16.090326583333333,17.231890375,70.0,87.0
47,16.085808520833336,17.246950583333334,62.0,96.0
48,17.320745604166667,17.4894199375,58.0,79.0
49,17.487913916666667,17.7243591875,62.0,88.0
50,17.671648458333333,17.858395041666668,70.0,90.0
51,17.126468916666667,18.484899708333334,53.0,78.0
52,18.191225645833335,18.489417770833334,70.0,87.0
53,18.197249729166668,18.510502062500002,62.0,92.0
54,18.195743708333335,18.521044208333333,58.0,80.0
55,16.060206166666667,18.6821884375,46.0,90.0
56,18.956284229166666,19.266524520833332,62.0,88.0
57,18.957790250000002,19.275560645833334,58.0,77.0
58,19.534596229166667,19.673150145833333,62.0,92.0
59,19.52556010416667,19.682186270833334,58.0,84.0
60,20.063209541666666,20.149052729166666,62.0,88.0
61,20.040619229166666,20.174655083333334,70.0,81.0
62,20.057185458333333,20.194233354166666,58.0,76.0
63,20.560196416666667,20.840316291666667,58.0,83.0
64,20.572244583333333,20.876460791666666,62.0,96.0
65,18.950260145833333,21.055677270833336,53.0,79.0
66,18.945742083333332,21.153568625000002,46.0,88.0
67,21.1038699375,21.810193708333333,62.0,97.0
68,21.100857895833332,21.820735854166667,58.0,86.0
69,21.105375958333333,21.837302083333334,70.0,92.0
70,21.894530875,22.433686333333334,69.0,68.0
71,21.894530875,22.4683248125,57.0,77.0
72,21.894530875,22.474348895833334,66.0,83.0
73,21.894530875,22.606878729166667,62.0,85.0
74,22.978865875,23.1008535625,66.0,77.0
75,22.978865875,23.120431833333335,62.0,87.0
76,22.978865875,23.158082354166666,69.0,85.0
77,23.521033375000002,23.775550895833334,69.0,91.0
78,23.701755875,23.8915145,66.0,74.0
79,24.063200875,24.268019708333334,69.0,82.0
80,24.063200875,24.272537770833335,66.0,87.0
81,24.063200875,24.424645875,62.0,91.0
82,24.786090875,24.983379604166668,66.0,84.0
83,24.786090875,25.016512062500002,62.0,90.0
84,24.786090875,25.021030125,57.0,82.0
85,25.328258375,25.454764125,57.0,75.0
86,25.328258375,25.471330354166668,66.0,84.0
87,25.870425875000002,26.03608816666667,57.0,80.0
88,25.870425875000002,26.049642354166668,62.0,88.0
89,26.412593375,26.596327916666667,57.0,87.0
90,26.412593375,26.600845979166667,66.0,88.0
91,26.954760875,27.186688083333333,57.0,96.0
92,26.954760875,27.6731328125,66.0,86.0
93,26.954760875,27.682168937500002,62.0,100.0
94,27.677650875,27.682168937500002,62.0,91.0
95,21.894530875,27.69421710416667,42.0,86.0
96,27.316205875,27.695723125,57.0,98.0
97,21.894530875,27.703253229166666,50.0,83.0
98,27.677650875,28.002951375000002,55.0,91.0
99,28.039095875,28.495420187500002,50.0,85.0
100,28.400540875,28.700239020833333,55.0,96.0
101,28.400540875,28.855359166666666,62.0,95.0
102,27.677650875,28.9156,43.0,96.0
103,28.761985875,28.966804708333335,50.0,87.0
104,28.942708375000002,29.06319004166667,55.0,97.0
105,29.123430875,29.554152833333333,61.0,99.0
106,29.846320875,30.030055416666666,57.0,96.0
107,29.846320875,30.097826354166667,61.0,97.0
108,29.484875875,30.15204310416667,52.0,91.0
109,29.123430875,30.225838125000003,45.0,97.0
110,30.569210875,30.706258770833333,57.0,96.0
111,30.569210875,30.947222104166666,62.0,99.0
112,30.930655875,31.164089104166667,57.0,91.0
113,30.569210875,31.308667104166666,50.0,91.0
114,31.292100875000003,31.673124145833334,57.0,97.0
115,31.292100875000003,31.891497166666667,49.0,90.0
116,31.292100875000003,31.905051354166666,61.0,96.0
117,32.014990875,32.31017095833334,62.0,96.0
118,32.014990875,32.37794189583333,59.0,92.0
119,32.376435875,32.84782039583333,54.0,81.0
120,32.014990875,32.9592659375,47.0,96.0
121,32.737880875,32.978844208333335,59.0,98.0
122,32.737880875,32.984868291666665,66.0,96.0
123,33.460770875,34.008962458333336,62.0,93.0
124,33.460770875,34.030046750000004,55.0,91.0
125,33.822215875,34.335768979166666,50.0,84.0
126,34.183660875,34.49691320833333,55.0,97.0
127,33.460770875,34.76347889583334,43.0,96.0
128,34.545105875000004,34.7845631875,50.0,89.0
129,34.183660875,34.843298000000004,62.0,96.0
130,34.725828375,34.87341841666667,55.0,96.0
131,34.906550875,35.2815500625,61.0,102.0
132,35.267995875000004,35.5300435,57.0,95.0
133,35.087273375,35.72582620833334,52.0,89.0
134,34.906550875,35.810163375,45.0,97.0
135,35.629440875,35.85383797916667,57.0,99.0
136,35.629440875,35.882452375,61.0,98.0
137,35.990885875000004,36.164078270833336,45.0,97.0
138,36.352330875,36.7905829375,62.0,93.0
139,36.352330875,36.79811304166667,59.0,93.0
140,36.713775875,37.24841327083333,54.0,91.0
141,37.075220875,37.328232375,62.0,91.0
142,37.075220875,37.36136483333333,66.0,96.0
143,37.075220875,37.362870854166665,59.0,89.0
144,37.617388375000004,37.906544375,59.0,85.0
145,37.617388375000004,37.93967683333334,62.0,89.0
146,38.159555875,38.32823020833334,59.0,80.0
147,38.521000875,38.668590916666666,62.0,87.0
148,38.521000875,38.70925347916667,59.0,86.0
149,37.798110875,39.01798775,54.0,81.0
150,36.352330875,39.09178277083333,47.0,97.0
151,39.243890875,39.43214347916667,57.0,90.0
152,39.243890875,39.85081727083333,62.0,92.0
153,39.605335875,40.08123845833333,57.0,89.0
154,39.966780875000005,40.13846725,66.0,92.0
155,39.243890875,40.165575625,50.0,85.0
156,40.689670875000004,41.42912710416667,61.0,89.0
157,40.689670875000004,41.652018187500005,45.0,96.0
158,41.051115875,41.69268075,52.0,89.0
159,41.412560875000004,41.748403520833335,57.0,92.0
160,41.774005875,42.04810166666667,61.0,93.0
161,42.135450875000004,42.397498500000005,62.0,91.0
162,42.135450875000004,42.460751375,59.0,89.0
163,42.496895875,42.89297935416667,54.0,85.0
164,42.135450875000004,42.95924427083334,47.0,97.0
165,42.858340875,42.966774375,66.0,88.0
166,42.858340875,43.01044897916667,59.0,96.0
167,43.581230875,44.08574785416667,57.0,86.0
168,43.581230875,44.087253875,61.0,88.0
169,43.942675875,44.4080363125,52.0,82.0
170,43.581230875,44.45020489583334,45.0,88.0
171,44.304120875,44.49538552083334,57.0,87.0
172,44.304120875,44.51948185416667,64.0,97.0
173,45.027010875,45.460744875,55.0,90.0
174,45.027010875,45.77851527083334,62.0,91.0
175,45.749900875,46.0074304375,55.0,96.0
176,45.027010875,46.01044247916667,43.0,97.0
177,45.388455875,46.07670739583334,50.0,85.0
178,46.472790875,46.906524875,57.0,90.0
179,46.472790875,47.004416229166665,61.0,91.0
180,47.195680875,47.44718635416667,57.0,98.0
181,46.834235875000005,47.647487125000005,52.0,91.0
182,46.472790875,47.68965570833333,45.0,97.0
183,47.918570875,48.11887164583334,57.0,96.0
184,47.918570875,48.436642041666666,62.0,94.0
185,48.280015875000004,48.71073783333333,57.0,89.0
186,48.641460875,48.908026562500005,62.0,86.0
187,49.002905875,49.20320664583333,57.0,71.0
188,49.364350875,49.56013358333333,57.0,97.0
189,49.364350875,49.78302466666667,66.0,96.0
190,49.725795875,50.12489139583334,57.0,78.0
191,50.087240875,50.60531204166667,64.0,96.0
192,47.918570875,50.65501072916667,50.0,92.0
193,50.810130875,51.03452797916667,57.0,89.0
194,50.810130875,51.36886460416667,62.0,95.0
195,51.171575875,51.62639416666667,57.0,89.0
196,51.533020875,51.87789964583334,62.0,97.0
197,50.810130875,51.90199597916667,50.0,99.0
198,51.533020875,52.10982685416667,66.0,98.0
199,52.255910875000005,52.85530716666667,61.0,98.0
200,52.255910875000005,53.367354250000005,45.0,90.0
201,52.978800875000005,53.47879979166667,57.0,97.0
202,52.617355875,53.566149,52.0,88.0
203,52.978800875000005,53.56916104166667,61.0,96.0
204,53.701690875000004,54.126388750000004,62.0,96.0
205,53.701690875000004,54.1806055,59.0,95.0
206,54.063135875,54.55409866666667,54.0,85.0
207,53.701690875000004,54.67458033333334,47.0,97.0
208,54.424580875000004,54.6821104375,59.0,98.0
209,55.147470875,55.6218674375,57.0,90.0
210,55.147470875,55.901987312500005,61.0,85.0
211,55.508915875,56.12939645833333,52.0,89.0
212,55.147470875,56.159516875,45.0,96.0
213,55.870360875,56.161022895833334,57.0,92.0
214,56.593250875,57.05409325,55.0,90.0
215,56.593250875,57.34626129166667,59.0,92.0
216,57.316140875,57.751380895833336,55.0,102.0
217,56.593250875,57.86583847916667,43.0,97.0
218,56.954695875,57.908007062500005,50.0,91.0
219,58.039030875,58.49987325,57.0,88.0
220,58.039030875,58.825173750000005,61.0,96.0
221,58.039030875,59.100775562500004,45.0,96.0
222,58.761920875,59.151980270833334,57.0,98.0
223,58.400475875000005,59.18511272916667,52.0,91.0
224,59.123365875000005,59.30258235416667,61.0,98.0
225,59.484810875,59.97577366666667,62.0,92.0
226,59.484810875,59.98330377083334,59.0,91.0
227,59.846255875000004,60.331194583333335,54.0,64.0
228,60.207700875,60.591736187500004,59.0,97.0
229,60.569145875000004,61.01492804166667,54.0,86.0
230,60.930590875,61.28299975,66.0,96.0
231,60.930590875,61.4320958125,59.0,98.0
232,61.653480875,62.039022208333336,64.0,96.0
233,62.014925875,62.2724554375,62.0,96.0
234,59.484810875,62.278479520833336,47.0,97.0
235,61.292035875,62.299563812500004,54.0,80.0
236,62.376370875,62.88992397916667,55.0,95.0
237,62.376370875,63.15950170833334,59.0,95.0
238,63.099260875,63.51341660416667,55.0,102.0
239,62.376370875,63.6459464375,43.0,98.0
240,62.737815875,63.695645125000006,50.0,90.0
241,63.460705875,63.8085966875,62.0,92.0
242,63.822150875000005,64.3417280625,57.0,88.0
243,63.822150875000005,64.563113125,61.0,85.0
244,64.18359587500001,64.93961833333334,52.0,89.0
245,64.545040875,64.96371466666668,57.0,95.0
246,63.822150875000005,65.17154554166667,45.0,96.0
247,65.267930875,65.4893159375,57.0,93.0
248,65.267930875,65.76341172916666,62.0,96.0
249,65.62937587500001,66.0224473125,57.0,85.0
250,65.990820875,66.48780775,62.0,90.0
251,66.352265875,66.56762685416668,57.0,79.0
252,66.713710875,66.88690327083333,57.0,96.0
253,66.713710875,67.09473414583334,62.0,98.0
254,66.713710875,67.13087864583333,66.0,97.0
255,67.07515587500001,67.2965409375,57.0,80.0
256,67.436600875,67.71973279166667,61.0,102.0
257,65.267930875,67.96973225,50.0,98.0
258,67.798045875,67.99834664583334,62.0,96.0
259,68.159490875,68.7152125625,55.0,94.0
260,68.159490875,68.71671858333333,59.0,91.0
261,68.882380875,69.34924733333334,55.0,97.0
262,68.159490875,69.42756041666667,43.0,98.0
263,68.520935875,69.45617481250001,50.0,92.0
264,69.605270875,70.02243864583333,57.0,93.0
265,69.605270875,70.093221625,61.0,95.0
266,70.32816087500001,70.64141320833333,57.0,100.0
267,69.605270875,70.798039375,45.0,98.0
268,69.966715875,70.93358125,52.0,90.0
269,71.051050875,71.58568827083333,62.0,93.0
270,71.051050875,71.59171235416667,59.0,92.0
271,71.412495875,71.9140008125,54.0,90.0
272,71.77394087500001,71.96068745833334,66.0,96.0
273,71.77394087500001,72.34773481250001,59.0,96.0
274,72.496830875,72.58568610416667,59.0,80.0
275,72.858275875,72.948637125,66.0,85.0
276,72.496830875,72.98327560416666,71.0,92.0
277,72.858275875,73.31911825,59.0,87.0
278,73.581165875,73.94411689583333,59.0,96.0
279,73.21972087500001,73.94411689583333,66.0,103.0
280,72.135385875,73.9832734375,54.0,89.0
281,71.051050875,73.99833364583334,47.0,97.0
282,73.942610875,74.16700797916667,57.0,92.0
283,73.942610875,74.49682654166666,62.0,96.0
284,74.304055875,74.77242835416666,57.0,89.0
285,73.942610875,74.79351264583333,50.0,99.0
286,74.665500875,74.90797022916666,62.0,96.0
287,74.665500875,74.94712677083334,66.0,91.0
288,75.388390875,76.11429291666667,61.0,93.0
289,75.388390875,76.13989527083334,64.0,97.0
290,76.111280875,76.5314606875,57.0,97.0
291,75.388390875,76.64742429166667,45.0,93.0
292,75.749835875,76.707665125,52.0,92.0
293,76.47272587500001,76.76489391666667,61.0,107.0
294,76.834170875,77.15344729166667,62.0,97.0
295,76.834170875,77.3627841875,59.0,92.0
296,77.195615875,77.66700039583334,54.0,89.0
297,76.834170875,77.81760247916667,47.0,97.0
298,77.557060875,77.91097577083333,62.0,98.0
299,77.557060875,77.93055404166667,66.0,98.0
300,77.91850587500001,78.1037464375,59.0,93.0
301,78.279950875,78.77091366666667,61.0,93.0
302,78.279950875,78.90494952083334,57.0,96.0
303,79.002840875,79.36277985416667,57.0,87.0
304,78.279950875,79.38537016666668,45.0,97.0
305,78.641395875,79.38838220833334,52.0,88.0
306,79.002840875,79.64741779166667,64.0,98.0
307,79.725730875,80.20313947916667,55.0,91.0
308,79.725730875,80.52693395833333,62.0,94.0
309,80.448620875,80.8552465,55.0,97.0
310,79.725730875,80.97572816666667,43.0,98.0
311,80.087175875,81.01187266666668,50.0,87.0
312,80.810065875,81.1579566875,59.0,98.0
313,81.17151087500001,81.60223283333333,57.0,93.0
314,81.17151087500001,81.86879852083334,61.0,91.0
315,81.894400875,82.42602622916667,57.0,96.0
316,81.532955875,82.43506235416667,52.0,91.0
317,81.17151087500001,82.4456045,45.0,98.0
318,82.61729087500001,82.83265185416667,57.0,95.0
319,82.61729087500001,83.0826513125,62.0,97.0
320,82.978735875,83.17150654166667,57.0,90.0
321,82.61729087500001,83.57361410416667,50.0,100.0
322,83.340180875,83.71668608333334,62.0,97.0
323,83.340180875,83.755842625,66.0,96.0
324,83.701625875,83.95313135416667,57.0,99.0
325,84.06307087500001,84.52993733333334,57.0,101.0
326,84.06307087500001,84.53144335416667,61.0,99.0
327,84.785960875,84.90644254166666,57.0,95.0
328,84.785960875,85.16397210416667,61.0,101.0
329,84.06307087500001,85.29499591666666,45.0,97.0
330,84.424515875,85.30102000000001,52.0,96.0
331,84.785960875,85.36728491666668,64.0,101.0
332,85.50885087500001,85.98174141666667,62.0,100.0
333,85.870295875,86.32812620833333,57.0,97.0
334,86.231740875,86.60372802083333,62.0,97.0
335,86.231740875,86.68053508333334,66.0,96.0
336,85.50885087500001,86.846197375,50.0,97.0
337,86.593185875,87.01035364583333,57.0,98.0
338,86.954630875,87.38234079166666,61.0,96.0
339,87.31607587500001,87.55854522916667,57.0,97.0
340,86.954630875,87.94258054166667,49.0,96.0
341,87.677520875,88.2513148125,64.0,99.0
342,88.400410875,88.96215664583333,59.0,92.0
343,88.400410875,88.99077104166668,62.0,96.0
344,88.76185587500001,89.557034875,54.0,90.0
345,89.123300875,89.56757702083334,62.0,96.0
346,88.400410875,89.59619141666667,47.0,98.0
347,89.484745875,89.64890214583333,59.0,75.0
348,89.123300875,89.86275710416668,66.0,97.0
349,89.846190875,90.27691283333334,57.0,91.0
350,89.846190875,90.60823741666667,61.0,86.0
351,90.569080875,90.88233320833334,57.0,97.0
352,89.846190875,90.96817639583334,45.0,97.0
353,90.20763587500001,91.03745335416667,52.0,95.0
354,91.291970875,91.85070460416667,59.0,92.0
355,91.291970875,91.8657648125,55.0,94.0
356,92.014860875,92.16245091666667,55.0,93.0
357,91.65341587500001,92.40943833333334,50.0,84.0
358,91.291970875,92.41094435416667,43.0,97.0
359,92.014860875,92.46516110416667,62.0,96.0
360,92.376305875,92.57058256250001,55.0,96.0
361,92.014860875,92.62329329166667,59.0,94.0
362,92.737750875,93.2302196875,57.0,96.0
363,92.737750875,93.47570108333333,61.0,95.0
364,93.46064087500001,93.73323064583333,57.0,103.0
365,92.737750875,93.858230375,45.0,98.0
366,93.099195875,94.00582041666667,52.0,90.0
367,94.183530875,94.70461408333334,59.0,92.0
368,94.183530875,94.8476860625,62.0,94.0
369,94.544975875,94.99075804166667,54.0,85.0
370,94.90642087500001,95.37027529166667,59.0,107.0
371,95.267865875,95.74376845833334,54.0,93.0
372,95.629310875,96.00280404166666,59.0,101.0
373,95.629310875,96.01937027083333,62.0,102.0
374,95.629310875,96.04196058333333,66.0,102.0
375,96.35220087500001,96.59015216666667,62.0,110.0
376,96.35220087500001,96.63382677083334,59.0,102.0
377,95.990755875,96.71213985416667,54.0,98.0
378,94.183530875,96.8265974375,47.0,97.0
379,96.713645875,96.92448879166668,61.0,113.0
380,97.075090875,97.57057172916667,59.0,105.0
381,97.075090875,97.61274031250001,55.0,99.0
382,97.436535875,97.96213714583334,50.0,93.0
383,97.79798087500001,98.1006910625,55.0,98.0
384,97.79798087500001,98.15189577083333,62.0,105.0
385,97.075090875,98.23020885416668,43.0,100.0
386,98.159425875,98.41695543750001,50.0,107.0
387,98.520870875,98.92599047916667,57.0,99.0
388,98.520870875,99.01785775,61.0,107.0
389,98.882315875,99.39135091666667,52.0,92.0
390,99.243760875,99.58562760416667,57.0,97.0
391,99.243760875,99.58562760416667,61.0,102.0
392,99.243760875,99.63080822916668,64.0,102.0
393,98.520870875,99.79647052083334,45.0,98.0
394,99.60520587500001,99.831109,52.0,98.0
395,99.966650875,100.17146970833333,57.0,100.0
396,99.966650875,100.3777945625,62.0,103.0
397,99.966650875,100.64285422916667,50.0,103.0
398,100.328095875,100.64436025,57.0,103.0
399,100.689540875,101.0238775,61.0,110.0
400,101.05098587500001,101.21363612500001,57.0,98.0
401,100.689540875,101.32809370833334,49.0,101.0
402,101.412430875,101.7332133125,62.0,98.0
403,101.412430875,101.95610439583334,59.0,94.0
404,101.773875875,102.23170620833334,54.0,96.0
405,102.135320875,102.30700725,59.0,93.0
406,101.412430875,102.34013970833334,47.0,105.0
407,102.135320875,102.40791064583334,62.0,98.0
408,102.135320875,102.44857320833334,66.0,101.0
409,102.49676587500001,102.70459675000001,59.0,103.0
410,102.858210875,103.36573989583334,59.0,97.0
411,102.858210875,103.39887235416667,55.0,99.0
412,103.581100875,103.73471500000001,55.0,102.0
413,103.581100875,103.93049770833333,59.0,102.0
414,102.858210875,103.93953383333334,43.0,97.0
415,103.581100875,103.99073854166667,62.0,100.0
416,103.219655875,103.99375058333334,50.0,90.0
417,103.94254587500001,104.12326837500001,55.0,96.0
418,104.303990875,104.75730314583333,61.0,96.0
419,104.303990875,104.78892958333334,57.0,91.0
420,104.665435875,105.17296489583333,52.0,94.0
421,104.303990875,105.21362745833333,45.0,97.0
422,105.026880875,105.47718110416668,57.0,100.0
423,105.388325875,105.6503735,61.0,107.0
424,105.74977087500001,106.15790252083333,57.0,97.0
425,105.74977087500001,106.183504875,62.0,101.0
426,106.472660875,106.67296164583334,62.0,101.0
427,106.834105875,106.94555141666667,64.0,102.0
428,106.111215875,106.96814172916667,45.0,84.0
429,105.74977087500001,107.01482837500001,38.0,98.0
430,107.19555087500001,107.50579116666667,66.0,102.0
431,107.918440875,108.18651258333334,62.0,107.0
432,107.19555087500001,108.25428352083334,38.0,102.0
433,107.556995875,108.27235577083334,45.0,93.0
434,108.279885875,108.36271702083334,66.0,107.0
435,108.64133087500001,108.7000656875,57.0,84.0
436,108.64133087500001,108.7633185625,60.0,84.0
437,108.64133087500001,109.12626958333334,55.0,86.0
438,108.64133087500001,109.39132925,59.0,87.0
439,108.64133087500001,109.7482561875,43.0,92.0
440,109.364220875,109.75578629166667,55.0,102.0
441,109.002775875,109.84162947916667,50.0,87.0
442,109.725665875,110.032894125,59.0,96.0
443,110.08711087500001,110.50879670833334,57.0,95.0
444,110.08711087500001,110.76783229166666,61.0,97.0
445,110.810000875,111.30548172916667,57.0,100.0
446,110.44855587500001,111.31301183333333,52.0,94.0
447,110.08711087500001,111.36722858333334,45.0,99.0
448,111.171445875,111.45156575,61.0,97.0
449,111.532890875,111.7090953125,57.0,96.0
450,111.532890875,111.89282985416668,62.0,100.0
451,111.89433587500001,112.23921464583334,57.0,98.0
452,111.532890875,112.24975679166667,50.0,102.0
453,112.255780875,112.93198422916667,61.0,110.0
454,112.255780875,112.93349025,49.0,103.0
455,112.978670875,113.37475435416667,62.0,97.0
456,112.978670875,113.38379047916668,59.0,93.0
457,113.34011587500001,113.67746454166667,54.0,100.0
458,112.978670875,113.79794620833334,47.0,101.0
459,113.701560875,113.83710275,59.0,97.0
460,113.701560875,114.0133071875,62.0,99.0
461,114.424450875,115.01330502083334,55.0,96.0
462,114.424450875,115.0479435,62.0,94.0
463,115.147340875,115.28890683333334,55.0,98.0
464,114.78589587500001,115.46511127083333,50.0,91.0
465,114.424450875,115.47113535416668,43.0,98.0
466,115.147340875,115.5584845625,59.0,98.0
467,115.508785875,115.71812277083333,55.0,92.0
468,115.870230875,116.3807719375,57.0,89.0
469,115.870230875,116.60968710416667,61.0,98.0
470,115.870230875,116.84763839583334,45.0,98.0
471,116.23167587500001,116.87324075000001,52.0,96.0
472,116.59312087500001,116.91842137500001,57.0,97.0
473,116.954565875,117.20607135416667,61.0,98.0
474,117.316010875,117.69402210416668,62.0,98.0
475,117.316010875,117.84763622916667,59.0,93.0
476,117.677455875,118.13378018750001,54.0,88.0
477,118.03890087500001,118.5404058125,59.0,100.0
478,118.400345875,118.90787489583333,54.0,92.0
479,118.761790875,119.18347670833334,66.0,100.0
480,118.761790875,119.20606702083333,62.0,97.0
481,118.761790875,119.30245235416668,59.0,97.0
482,119.123235875,119.7693188125,54.0,84.0
483,117.316010875,119.96058345833333,47.0,98.0
484,119.48468087500001,120.03889654166667,62.0,96.0
485,120.207570875,120.71058183333334,64.0,101.0
486,120.207570875,120.74220827083333,59.0,98.0
487,120.569015875,121.056966625,47.0,92.0
488,120.207570875,121.075038875,40.0,101.0
489,120.93046087500001,121.09913520833334,59.0,99.0
490,120.93046087500001,121.34009854166668,67.0,98.0
491,121.653350875,122.1729280625,61.0,96.0
492,121.653350875,122.26479533333334,57.0,93.0
493,122.37624087500001,122.69551729166668,64.0,100.0
494,122.014795875,122.79792670833334,52.0,90.0
495,121.653350875,122.88828795833334,45.0,98.0
496,122.73768587500001,123.18648008333334,57.0,102.0
497,123.099130875,123.53437089583333,62.0,101.0
498,123.460575875,123.9169001875,57.0,87.0
499,123.822020875,124.20756220833334,62.0,102.0
500,124.18346587500001,124.27834518750001,64.0,110.0
501,124.544910875,124.71358520833334,57.0,97.0
502,124.544910875,124.9108739375,66.0,93.0
503,124.906355875,125.27834302083333,57.0,96.0
504,125.267800875,125.47563175,62.0,98.0
505,123.099130875,125.55093279166667,50.0,102.0
506,125.990690875,126.17291939583333,61.0,96.0
507,125.990690875,126.56749685416668,64.0,98.0
508,126.352135875,126.59159318750001,61.0,87.0
509,126.713580875,126.84761672916667,61.0,88.0
510,126.713580875,127.12773660416667,67.0,96.0
511,126.713580875,127.16689314583334,64.0,97.0
512,127.07502587500001,127.18948345833334,61.0,74.0
513,127.436470875,127.68948237500001,61.0,89.0
514,127.797915875,127.99219256250001,61.0,91.0
515,127.436470875,128.00725277083333,64.0,97.0
516,125.990690875,128.24671008333334,37.0,84.0
517,128.159360875,128.33405929166668,61.0,101.0
518,128.159360875,128.3717098125,64.0,98.0
519,128.159360875,128.37923991666668,67.0,91.0
520,128.882250875,129.34610529166667,54.0,95.0
521,128.882250875,129.37622570833335,61.0,97.0
522,129.60514087500002,129.84158614583333,58.0,93.0
523,129.966585875,130.21809135416666,54.0,100.0
524,129.24369587500001,130.48465704166668,49.0,92.0
525,130.328030875,130.66086147916667,66.0,93.0
526,130.328030875,130.67893372916666,61.0,97.0
527,130.328030875,130.68646383333333,58.0,94.0
528,130.328030875,130.94098135416667,54.0,101.0
529,130.689475875,131.14730620833333,49.0,96.0
530,128.882250875,131.2000169375,42.0,103.0
531,131.050920875,131.22863133333334,54.0,98.0
532,131.050920875,131.231643375,58.0,96.0
533,131.050920875,131.25875175000002,61.0,98.0
534,131.231643375,131.35212504166668,49.0,99.0
535,131.412365875,131.51025722916668,42.0,101.0
536,132.135255875,132.40332758333335,55.0,100.0
537,132.31597837500001,132.5373634375,59.0,100.0
538,132.49670087500002,132.69700164583332,62.0,97.0
539,132.67742337500002,132.94097702083334,67.0,97.0
540,131.954533375,133.10362727083333,50.0,88.0
541,131.773810875,133.12772360416668,43.0,102.0
542,132.858145875,133.20302464583335,62.0,96.0
543,133.038868375,133.34910866666667,55.0,103.0
544,133.581035875,133.98916752083335,55.0,103.0
545,133.761758375,134.0102518125,59.0,105.0
546,133.942480875,134.14880572916667,62.0,98.0
547,134.123203375,134.448503875,67.0,100.0
548,133.219590875,134.48916643750002,43.0,98.0
549,133.400313375,134.4936845,50.0,92.0
550,134.303925875,134.53434706250002,62.0,99.0
551,134.484648375,134.6382625,55.0,112.0
552,135.026815875,135.40482710416669,57.0,99.0
553,135.207538375,135.406333125,61.0,103.0
554,135.38826087500001,135.81747681250002,64.0,98.0
555,135.74970587500002,135.96506685416668,69.0,103.0
556,134.846093375,136.0343438125,52.0,85.0
557,134.665370875,136.05392208333333,45.0,99.0
558,135.930428375,136.48313802083334,64.0,101.0
559,136.472595875,136.83554689583335,57.0,98.0
560,136.653318375,136.86265527083333,61.0,101.0
561,136.834040875,136.996691125,64.0,99.0
562,137.014763375,137.276811,69.0,101.0
563,136.111150875,137.43193114583335,45.0,99.0
564,136.291873375,137.4530154375,52.0,97.0
565,137.195485875,137.51777433333334,64.0,98.0
566,137.376208375,137.60813558333334,57.0,92.0
567,137.556930875,137.97560466666667,67.0,98.0
568,137.918375875,138.20602585416668,61.0,98.0
569,138.099098375,138.25572454166667,64.0,96.0
570,138.279820875,138.45451929166668,67.0,100.0
571,138.46054337500001,138.61265147916666,64.0,107.0
572,138.64126587500002,138.91385564583334,61.0,98.0
573,138.82198837500002,138.99969883333333,64.0,99.0
574,139.002710875,139.201505625,67.0,101.0
575,139.183433375,139.3686739375,64.0,107.0
576,139.364155875,139.66987810416668,61.0,102.0
577,139.544878375,139.74367312500002,64.0,105.0
578,137.737653375,140.096082,55.0,99.0
579,139.906323375,140.12469639583333,64.0,103.0
580,137.556930875,140.14276864583334,49.0,102.0
581,139.725600875,140.14879272916667,67.0,100.0
582,140.087045875,140.25572020833334,61.0,97.0
583,140.448490875,140.882224875,59.0,98.0
584,140.448490875,140.9996945,62.0,97.0
585,140.990658375,141.16836883333335,59.0,96.0
586,141.171380875,141.3746936875,66.0,105.0
587,141.352103375,141.5463800625,59.0,101.0
588,141.53282587500001,141.69246408333333,62.0,96.0
589,141.71354837500002,141.87770464583335,59.0,99.0
590,141.89427087500002,142.07649939583334,66.0,98.0
591,142.074993375,142.23161954166667,59.0,92.0
592,142.255715875,142.40330591666668,62.0,86.0
593,142.436438375,142.562944125,59.0,95.0
594,142.617160875,142.6939679375,59.0,98.0
595,140.809935875,142.74667866666667,54.0,84.0
596,142.797883375,143.02529252083335,59.0,102.0
597,142.617160875,143.0463768125,66.0,107.0
598,142.978605875,143.15782235416668,62.0,103.0
599,140.448490875,143.30993045833333,47.0,97.0
600,143.159328375,143.33101475,59.0,102.0
601,143.340050875,143.85360397916668,55.0,95.0
602,143.340050875,144.12318170833333,59.0,95.0
603,144.062940875,144.47709660416666,55.0,102.0
604,143.340050875,144.6096264375,43.0,98.0
605,143.701495875,144.659325125,50.0,90.0
606,144.424385875,144.7722766875,62.0,92.0
607,144.78583087500002,145.3054080625,57.0,88.0
608,144.78583087500002,145.526793125,61.0,85.0
609,145.147275875,145.90329833333334,52.0,89.0
610,145.508720875,145.9273946666667,57.0,95.0
611,144.78583087500002,146.13522554166667,45.0,96.0
612,146.231610875,146.4529959375,57.0,93.0
613,146.231610875,146.72709172916666,62.0,96.0
614,146.593055875,146.9861273125,57.0,85.0
615,146.954500875,147.45148775,62.0,90.0
616,147.315945875,147.53130685416667,57.0,79.0
617,147.67739087500001,147.85058327083334,57.0,96.0
618,147.67739087500001,148.05841414583332,62.0,98.0
619,147.67739087500001,148.09455864583333,66.0,97.0
620,148.03883587500002,148.2602209375,57.0,80.0
621,148.400280875,148.68341279166668,61.0,102.0
622,146.231610875,148.93341225,50.0,98.0
623,148.761725875,148.96202664583333,62.0,96.0
624,149.123170875,149.6788925625,55.0,94.0
625,149.123170875,149.68039858333333,59.0,91.0
626,149.846060875,150.31292733333333,55.0,97.0
627,149.123170875,150.39124041666668,43.0,98.0
628,149.484615875,150.4198548125,50.0,92.0
629,150.568950875,150.98611864583333,57.0,93.0
630,150.568950875,151.056901625,61.0,95.0
631,151.291840875,151.60509320833333,57.0,100.0
632,150.568950875,151.761719375,45.0,98.0
633,150.93039587500002,151.89726125,52.0,90.0
634,152.014730875,152.54936827083333,62.0,93.0
635,152.014730875,152.55539235416668,59.0,92.0
636,152.376175875,152.87768081250002,54.0,90.0
637,152.737620875,152.92436745833334,66.0,96.0
638,152.737620875,153.3114148125,59.0,96.0
639,153.460510875,153.54936610416667,59.0,80.0
640,153.82195587500001,153.91231712500002,66.0,85.0
641,153.460510875,153.94695560416667,71.0,92.0
642,153.82195587500001,154.28279825,59.0,87.0
643,154.544845875,154.90779689583334,59.0,96.0
644,154.18340087500002,154.90779689583334,66.0,103.0
645,153.099065875,154.9469534375,54.0,89.0
646,152.014730875,154.96201364583334,47.0,97.0
647,154.906290875,155.13068797916668,57.0,92.0
648,154.906290875,155.46050654166666,62.0,96.0
649,155.267735875,155.73610835416667,57.0,89.0
650,154.906290875,155.75719264583333,50.0,99.0
651,155.629180875,155.87165022916668,62.0,96.0
652,155.629180875,155.91080677083335,66.0,91.0
653,156.352070875,157.07797291666668,61.0,93.0
654,156.352070875,157.10357527083335,64.0,97.0
655,157.07496087500002,157.4951406875,57.0,97.0
656,156.352070875,157.61110429166666,45.0,93.0
657,156.713515875,157.67134512500002,52.0,92.0
658,157.43640587500002,157.72857391666668,61.0,107.0
659,157.797850875,158.11712729166666,62.0,97.0
660,157.797850875,158.3264641875,59.0,92.0
661,158.159295875,158.63068039583334,54.0,89.0
662,157.797850875,158.78128247916666,47.0,97.0
663,158.520740875,158.87465577083333,62.0,98.0
664,158.520740875,158.89423404166666,66.0,98.0
665,158.882185875,159.06742643750002,59.0,93.0
666,159.243630875,159.73459366666668,61.0,93.0
667,159.243630875,159.86862952083334,57.0,96.0
668,159.96652087500001,160.32645985416667,57.0,87.0
669,159.243630875,160.34905016666667,45.0,97.0
670,159.605075875,160.35206220833334,52.0,88.0
671,159.96652087500001,160.61109779166668,64.0,98.0
672,160.689410875,161.16681947916666,55.0,91.0
673,160.689410875,161.49061395833334,62.0,94.0
674,161.412300875,161.8189265,55.0,97.0
675,160.689410875,161.93940816666668,43.0,98.0
676,161.050855875,161.97555266666666,50.0,87.0
677,161.773745875,162.1216366875,59.0,98.0
678,162.135190875,162.56591283333333,57.0,93.0
679,162.135190875,162.83247852083335,61.0,91.0
680,162.858080875,163.38970622916668,57.0,96.0
681,162.496635875,163.39874235416667,52.0,91.0
682,162.135190875,163.4092845,45.0,98.0
683,163.58097087500002,163.79633185416668,57.0,95.0
684,163.58097087500002,164.0463313125,62.0,97.0
685,163.942415875,164.13518654166668,57.0,90.0
686,163.58097087500002,164.53729410416668,50.0,100.0
687,164.303860875,164.68036608333333,62.0,97.0
688,164.303860875,164.719522625,66.0,96.0
689,164.665305875,164.91681135416667,57.0,99.0
690,165.026750875,165.49361733333333,57.0,101.0
691,165.026750875,165.49512335416668,61.0,99.0
692,165.749640875,165.87012254166666,57.0,95.0
693,165.749640875,166.12765210416669,61.0,101.0
694,165.026750875,166.25867591666668,45.0,97.0
695,165.388195875,166.2647,52.0,96.0
696,165.749640875,166.33096491666666,64.0,101.0
697,166.47253087500002,166.94542141666668,62.0,100.0
698,166.833975875,167.29180620833333,57.0,97.0
699,167.195420875,167.56740802083334,62.0,97.0
700,167.195420875,167.64421508333334,66.0,96.0
701,166.47253087500002,167.809877375,50.0,97.0
702,167.556865875,167.97403364583334,57.0,98.0
703,167.918310875,168.34602079166666,61.0,96.0
704,168.279755875,168.52222522916668,57.0,97.0
705,167.918310875,168.90626054166668,49.0,96.0
706,168.641200875,169.2149948125,64.0,99.0
707,169.36409087500002,169.92583664583333,59.0,92.0
708,169.36409087500002,169.9544510416667,62.0,96.0
709,169.72553587500002,170.520714875,54.0,90.0
710,170.086980875,170.53125702083335,62.0,96.0
711,169.36409087500002,170.55987141666668,47.0,98.0
712,170.448425875,170.61258214583333,59.0,75.0
713,170.086980875,170.82643710416667,66.0,97.0
714,170.809870875,171.24059283333335,57.0,91.0
715,170.809870875,171.57191741666668,61.0,86.0
716,171.532760875,171.84601320833335,57.0,97.0
717,170.809870875,171.93185639583334,45.0,97.0
718,171.171315875,172.00113335416668,52.0,95.0
719,172.25565087500001,172.81438460416666,59.0,92.0
720,172.25565087500001,172.82944481250001,55.0,94.0
721,172.978540875,173.12613091666668,55.0,93.0
722,172.61709587500002,173.37311833333334,50.0,84.0
723,172.25565087500001,173.37462435416668,43.0,97.0
724,172.978540875,173.42884110416668,62.0,96.0
725,173.339985875,173.5342625625,55.0,96.0
726,172.978540875,173.58697329166668,59.0,94.0
727,173.701430875,174.1938996875,57.0,96.0
728,173.701430875,174.43938108333333,61.0,95.0
729,174.424320875,174.69691064583333,57.0,103.0
730,173.701430875,174.82191037500002,45.0,98.0
731,174.062875875,174.96950041666668,52.0,90.0
732,175.147210875,175.66829408333334,59.0,92.0
733,175.147210875,175.8113660625,62.0,94.0
734,175.50865587500002,175.95443804166666,54.0,85.0
735,175.87010087500002,176.33395529166668,59.0,107.0
736,176.231545875,176.70744845833335,54.0,93.0
737,176.592990875,176.96648404166666,59.0,101.0
738,176.592990875,176.98305027083333,62.0,102.0
739,176.592990875,177.00564058333333,66.0,102.0
740,177.315880875,177.55383216666667,62.0,110.0
741,177.315880875,177.59750677083335,59.0,102.0
742,176.954435875,177.67581985416666,54.0,98.0
743,175.147210875,177.7902774375,47.0,97.0
744,177.677325875,177.8881687916667,61.0,113.0
745,178.038770875,178.53425172916667,59.0,105.0
746,178.038770875,178.5764203125,55.0,99.0
747,178.40021587500001,178.92581714583335,50.0,93.0
748,178.76166087500002,179.06437106250002,55.0,98.0
749,178.76166087500002,179.11557577083335,62.0,105.0
750,178.038770875,179.1938888541667,43.0,100.0
751,179.123105875,179.38063543750002,50.0,107.0
752,179.484550875,179.88967047916668,57.0,99.0
753,179.484550875,179.98153775,61.0,107.0
754,179.845995875,180.35503091666666,52.0,92.0
755,180.207440875,180.54930760416667,57.0,97.0
756,180.207440875,180.54930760416667,61.0,102.0
757,180.207440875,180.59448822916667,64.0,102.0
758,179.484550875,180.76015052083335,45.0,98.0
759,180.568885875,180.794789,52.0,98.0
760,180.930330875,181.13514970833333,57.0,100.0
761,180.930330875,181.3414745625,62.0,103.0
762,180.930330875,181.60653422916667,50.0,103.0
763,181.291775875,181.60804025000002,57.0,103.0
764,181.65322087500002,181.9875575,61.0,110.0
765,182.01466587500002,182.177316125,57.0,98.0
766,181.65322087500002,182.29177370833335,49.0,101.0
767,182.376110875,182.6968933125,62.0,98.0
768,182.376110875,182.91978439583335,59.0,94.0
769,182.737555875,183.19538620833333,54.0,96.0
770,183.099000875,183.27068725,59.0,93.0
771,182.376110875,183.30381970833335,47.0,105.0
772,183.099000875,183.37159064583335,62.0,98.0
773,183.099000875,183.41225320833334,66.0,101.0
774,183.460445875,183.66827675000002,59.0,103.0
775,183.821890875,184.32941989583335,59.0,97.0
776,183.821890875,184.36255235416667,55.0,99.0
777,184.54478087500001,184.698395,55.0,102.0
778,184.54478087500001,184.89417770833333,59.0,102.0
779,183.821890875,184.90321383333335,43.0,97.0
780,184.54478087500001,184.95441854166668,62.0,100.0
781,184.183335875,184.95743058333335,50.0,90.0
782,184.90622587500002,185.08694837500002,55.0,96.0
783,185.267670875,185.72098314583334,61.0,96.0
784,185.267670875,185.75260958333334,57.0,91.0
785,185.629115875,186.13664489583334,52.0,94.0
786,185.267670875,186.17730745833333,45.0,97.0
787,185.990560875,186.4408611041667,57.0,100.0
788,186.352005875,186.6140535,61.0,107.0
789,186.713450875,187.12158252083333,57.0,97.0
790,186.713450875,187.147184875,62.0,101.0
791,187.436340875,187.63664164583335,62.0,101.0
792,187.79778587500002,187.90923141666667,64.0,102.0
793,187.074895875,187.93182172916667,45.0,84.0
794,186.713450875,187.97850837500002,38.0,98.0
795,188.15923087500002,188.46947116666666,66.0,102.0
796,188.882120875,189.15019258333334,62.0,107.0
797,188.15923087500002,189.21796352083334,38.0,102.0
798,188.520675875,189.23603577083335,45.0,93.0
799,189.243565875,189.32639702083333,66.0,107.0
800,189.605010875,189.6637456875,57.0,84.0
801,189.605010875,189.7269985625,60.0,84.0
802,189.605010875,190.08994958333335,55.0,86.0
803,189.605010875,190.35500925,59.0,87.0
804,189.605010875,190.71193618750002,43.0,92.0
805,190.327900875,190.71946629166666,55.0,102.0
806,189.966455875,190.80530947916668,50.0,87.0
807,190.68934587500001,190.996574125,59.0,96.0
808,191.05079087500002,191.47247670833335,57.0,95.0
809,191.05079087500002,191.73151229166666,61.0,97.0
810,191.773680875,192.26916172916668,57.0,100.0
811,191.412235875,192.27669183333333,52.0,94.0
812,191.05079087500002,192.33090858333335,45.0,99.0
813,192.135125875,192.41524575,61.0,97.0
814,192.496570875,192.6727753125,57.0,96.0
815,192.496570875,192.85650985416666,62.0,100.0
816,192.858015875,193.20289464583334,57.0,98.0
817,192.496570875,193.21343679166668,50.0,102.0
818,193.219460875,193.89566422916667,61.0,110.0
819,193.219460875,193.89717025000002,49.0,103.0
820,193.94235087500002,194.33843435416668,62.0,97.0
821,193.94235087500002,194.34747047916667,59.0,93.0
822,194.30379587500002,194.64114454166668,54.0,100.0
823,193.94235087500002,194.76162620833335,47.0,101.0
824,194.665240875,194.80078275,59.0,97.0
825,194.665240875,194.97698718750001,62.0,99.0
826,195.388130875,195.97698502083335,55.0,96.0
827,195.388130875,196.0116235,62.0,94.0
828,196.111020875,196.25258683333334,55.0,98.0
829,195.749575875,196.42879127083333,50.0,91.0
830,195.388130875,196.4348153541667,43.0,98.0
831,196.111020875,196.5221645625,59.0,98.0
832,196.472465875,196.68180277083334,55.0,92.0
833,196.83391087500002,197.3444519375,57.0,89.0
834,196.83391087500002,197.57336710416666,61.0,98.0
835,196.83391087500002,197.81131839583335,45.0,98.0
836,197.19535587500002,197.83692075000002,52.0,96.0
837,197.556800875,197.88210137500002,57.0,97.0
838,197.918245875,198.16975135416666,61.0,98.0
839,198.279690875,198.65770210416667,62.0,98.0
840,198.279690875,198.81131622916666,59.0,93.0
841,198.641135875,199.09746018750002,54.0,88.0
842,199.002580875,199.5040858125,59.0,100.0
843,199.364025875,199.87155489583333,54.0,92.0
844,199.725470875,200.14715670833334,66.0,100.0
845,199.725470875,200.16974702083334,62.0,97.0
846,199.725470875,200.26613235416667,59.0,97.0
847,200.08691587500002,200.7329988125,54.0,84.0
848,198.279690875,200.92426345833334,47.0,98.0
849,200.44836087500002,201.00257654166668,62.0,96.0
850,201.171250875,201.66673172916668,59.0,105.0
851,201.171250875,201.70890031250002,55.0,99.0
852,201.532695875,202.05829714583334,50.0,93.0
853,201.894140875,202.1968510625,55.0,98.0
854,201.894140875,202.24805577083333,62.0,105.0
855,201.171250875,202.32636885416667,43.0,100.0
856,202.255585875,202.5131154375,50.0,107.0
857,202.617030875,203.02215047916667,57.0,99.0
858,202.617030875,203.11401775000002,61.0,107.0
859,202.97847587500002,203.48751091666668,52.0,92.0
860,203.33992087500002,203.6817876041667,57.0,97.0
861,203.33992087500002,203.6817876041667,61.0,102.0
862,203.33992087500002,203.7269682291667,64.0,102.0
863,202.617030875,203.89263052083334,45.0,98.0
864,203.701365875,203.927269,52.0,98.0
865,204.062810875,204.26762970833335,57.0,100.0
866,204.062810875,204.4739545625,62.0,103.0
867,204.062810875,204.73901422916668,50.0,103.0
868,204.424255875,204.74052025,57.0,103.0
869,204.785700875,205.1200375,61.0,110.0
870,205.147145875,205.30979612500002,57.0,98.0
871,204.785700875,205.42425370833334,49.0,101.0
872,205.508590875,205.8293733125,62.0,98.0
873,205.508590875,206.05226439583333,59.0,94.0
874,205.870035875,206.32786620833335,54.0,96.0
875,206.23148087500002,206.40316725,59.0,93.0
876,205.508590875,206.43629970833334,47.0,105.0
877,206.23148087500002,206.50407064583334,62.0,98.0
878,206.23148087500002,206.54473320833333,66.0,101.0
879,206.59292587500002,206.80075675,59.0,103.0
880,206.954370875,207.46189989583334,59.0,97.0
881,206.954370875,207.49503235416668,55.0,99.0
882,207.677260875,207.83087500000002,55.0,102.0
883,207.677260875,208.02665770833335,59.0,102.0
884,206.954370875,208.03569383333334,43.0,97.0
885,207.677260875,208.08689854166667,62.0,100.0
886,207.315815875,208.08991058333334,50.0,90.0
887,208.038705875,208.219428375,55.0,96.0
888,208.400150875,208.85346314583333,61.0,96.0
889,208.400150875,208.88508958333335,57.0,91.0
890,208.761595875,209.26912489583333,52.0,94.0
891,208.400150875,209.30978745833335,45.0,97.0
892,209.12304087500002,209.57334110416667,57.0,100.0
893,209.48448587500002,209.7465335,61.0,107.0
894,209.845930875,210.25406252083334,57.0,97.0
895,209.845930875,210.279664875,62.0,101.0
896,210.568820875,210.76912164583334,62.0,101.0
897,210.930265875,211.0417114166667,64.0,102.0
898,210.207375875,211.0643017291667,45.0,84.0
899,209.845930875,211.110988375,38.0,98.0
900,211.291710875,211.60195116666668,66.0,102.0
901,212.014600875,212.28267258333335,62.0,107.0
902,211.291710875,212.35044352083335,38.0,102.0
903,211.653155875,212.36851577083334,45.0,93.0
904,212.37604587500002,212.45887702083334,66.0,107.0
905,212.73749087500002,212.7962256875,57.0,84.0
906,212.73749087500002,212.85947856250002,60.0,84.0
907,212.73749087500002,213.22242958333334,55.0,86.0
908,212.73749087500002,213.48748925,59.0,87.0
909,212.73749087500002,213.8444161875,43.0,92.0
910,213.460380875,213.85194629166668,55.0,102.0
911,213.098935875,213.93778947916667,50.0,87.0
912,213.821825875,214.129054125,59.0,96.0
913,214.183270875,214.60495670833333,57.0,95.0
914,214.183270875,214.86399229166668,61.0,97.0
915,214.906160875,215.40164172916667,57.0,100.0
916,214.544715875,215.40917183333335,52.0,94.0
917,214.183270875,215.46338858333334,45.0,99.0
918,215.26760587500002,215.54772575,61.0,97.0
919,215.62905087500002,215.8052553125,57.0,96.0
920,215.62905087500002,215.98898985416668,62.0,100.0
921,215.990495875,216.33537464583335,57.0,98.0
922,215.62905087500002,216.34591679166667,50.0,102.0
923,216.351940875,217.02814422916668,61.0,110.0
924,216.351940875,217.02965025,49.0,103.0
925,217.074830875,217.47091435416667,62.0,97.0
926,217.074830875,217.47995047916666,59.0,93.0
927,217.436275875,217.77362454166666,54.0,100.0
928,217.074830875,217.89410620833334,47.0,101.0
929,217.797720875,217.93326275,59.0,97.0
930,217.797720875,218.1094671875,62.0,99.0
931,218.52061087500002,219.10946502083334,55.0,96.0
932,218.52061087500002,219.1441035,62.0,94.0
933,219.243500875,219.38506683333335,55.0,98.0
934,218.88205587500002,219.56127127083334,50.0,91.0
935,218.52061087500002,219.56729535416667,43.0,98.0
936,219.243500875,219.6546445625,59.0,98.0
937,219.604945875,219.81428277083333,55.0,92.0
938,219.966390875,220.4769319375,57.0,89.0
939,219.966390875,220.70584710416668,61.0,98.0
940,219.966390875,220.94379839583334,45.0,98.0
941,220.327835875,220.96940075,52.0,96.0
942,220.689280875,221.014581375,57.0,97.0
943,221.050725875,221.30223135416668,61.0,98.0
944,221.41217087500002,221.79018210416666,62.0,98.0
945,221.41217087500002,221.94379622916668,59.0,93.0
946,221.77361587500002,222.2299401875,54.0,88.0
947,222.13506087500002,222.6365658125,59.0,100.0
948,222.496505875,223.00403489583334,54.0,92.0
949,222.857950875,223.27963670833333,66.0,100.0
950,222.857950875,223.30222702083333,62.0,97.0
951,222.857950875,223.3986123541667,59.0,97.0
952,223.219395875,223.86547881250002,54.0,84.0
953,221.41217087500002,224.05674345833333,47.0,98.0
954,223.580840875,224.13505654166667,62.0,96.0
955,224.303730875,224.629031375,55.0,91.0
956,224.303730875,224.63505545833334,62.0,91.0
957,224.66517587500002,225.1215001875,50.0,85.0
958,225.02662087500002,225.32631902083335,55.0,96.0
959,225.02662087500002,225.48143916666666,62.0,95.0
960,224.303730875,225.54168,43.0,96.0
961,225.388065875,225.59288470833334,50.0,87.0
962,225.568788375,225.68927004166667,55.0,97.0
963,225.749510875,226.18023283333335,61.0,99.0
964,226.472400875,226.65613541666667,57.0,96.0
965,226.472400875,226.72390635416667,61.0,97.0
966,226.110955875,226.77812310416667,52.0,91.0
967,225.749510875,226.851918125,45.0,97.0
968,227.195290875,227.33233877083333,57.0,96.0
969,227.195290875,227.5733021041667,62.0,99.0
970,227.55673587500002,227.79016910416667,57.0,91.0
971,227.195290875,227.93474710416666,50.0,91.0
972,227.91818087500002,228.29920414583333,57.0,97.0
973,227.91818087500002,228.51757716666668,49.0,90.0
974,227.91818087500002,228.53113135416666,61.0,96.0
975,228.641070875,228.93625095833335,62.0,96.0
976,228.641070875,229.00402189583335,59.0,92.0
977,229.002515875,229.47390039583334,54.0,81.0
978,228.641070875,229.5853459375,47.0,96.0
979,229.363960875,229.60492420833333,59.0,98.0
980,229.363960875,229.6109482916667,66.0,96.0
981,230.086850875,230.63504245833334,62.0,93.0
982,230.086850875,230.65612675,55.0,91.0
983,230.448295875,230.9618489791667,50.0,84.0
984,230.80974087500002,231.12299320833336,55.0,97.0
985,230.086850875,231.38955889583335,43.0,96.0
986,231.17118587500002,231.4106431875,50.0,89.0
987,230.80974087500002,231.469378,62.0,96.0
988,231.35190837500002,231.49949841666668,55.0,96.0
989,231.532630875,231.9076300625,61.0,102.0
990,231.894075875,232.1561235,57.0,95.0
991,231.713353375,232.35190620833333,52.0,89.0
992,231.532630875,232.436243375,45.0,97.0
993,232.255520875,232.4799179791667,57.0,99.0
994,232.255520875,232.50853237500002,61.0,98.0
995,232.616965875,232.79015827083333,45.0,97.0
996,232.85792920833333,233.51304827083334,59.0,72.0
997,232.91666402083334,233.51907235416667,62.0,77.0
998,232.97991689583336,233.51907235416667,66.0,74.0
999,233.66967443750002,234.70129870833335,54.0,67.0
1000,234.04015556250002,235.16214108333335,59.0,85.0
1001,234.0341314791667,235.2494902916667,66.0,76.0
1002,235.31274316666668,235.57328477083334,59.0,76.0
1003,235.51304393750002,235.6666580625,62.0,72.0
1004,232.93172422916666,235.72840491666668,47.0,84.0
1005,235.14557485416668,235.7299109375,54.0,71.0
1006,235.76003135416667,235.833826375,59.0,52.0
1007,235.86394679166668,236.36093366666668,59.0,60.0
1008,235.89557322916667,236.38201795833334,66.0,75.0
1009,235.8910551666667,236.3985841875,62.0,83.0
1010,236.59135485416667,236.70731845833333,62.0,70.0
1011,236.5793066875,236.72689672916667,66.0,69.0
1012,236.58533077083334,236.737438875,59.0,70.0
1013,236.5702705625,236.76304122916667,71.0,77.0
1014,237.10792,237.22388360416667,59.0,74.0
1015,237.10490795833334,237.24496789583335,66.0,70.0
1016,238.20731520833334,238.59135052083334,54.0,67.0
1017,235.869970875,238.59586858333333,47.0,85.0
1018,238.382013625,238.6033986875,59.0,75.0
1019,238.55972408333335,238.64255522916667,62.0,71.0
1020,238.74044658333335,239.20128895833335,62.0,76.0
1021,238.7374345416667,239.20580702083333,59.0,74.0
1022,239.45580647916668,239.60038447916668,71.0,79.0
1023,239.47387872916667,239.63652897916668,59.0,76.0
1024,239.98140775000002,240.15008208333333,59.0,72.0
1025,239.98140775000002,240.15008208333333,66.0,70.0
1026,240.52206922916668,240.71182785416667,62.0,71.0
1027,240.52206922916668,240.731406125,59.0,60.0
1028,241.09435714583333,241.22086289583333,66.0,70.0
1029,241.09586316666667,241.22236891666668,59.0,74.0
1030,238.72689239583335,241.34285058333333,47.0,84.0
1031,241.60791025,241.97387331250002,71.0,71.0
1032,241.60489820833334,241.98893352083334,59.0,73.0
1033,242.36845077083333,242.49043845833333,66.0,70.0
1034,242.36995679166668,242.5070046875,59.0,69.0
1035,242.9136303125,243.03863004166666,59.0,66.0
1036,242.92417245833335,243.04465412500002,62.0,71.0
1037,243.4648339375,243.5913396875,66.0,70.0
1038,243.45880985416667,243.6003758125,59.0,69.0
1039,244.01151950000002,244.14404933333333,59.0,68.0
1040,244.01754358333335,244.165133625,71.0,57.0
1041,241.60941627083335,244.23892864583334,47.0,83.0
1042,244.57326527083333,244.85338514583333,59.0,47.0
1043,244.61543385416667,244.85489116666668,71.0,38.0
1044,245.27808302083335,245.41362489583335,62.0,67.0
1045,245.27356495833334,245.4332031666667,59.0,57.0
1046,245.79314214583334,245.92115391666667,59.0,68.0
1047,245.80067225000002,245.92115391666667,66.0,68.0
1048,246.33530964583335,246.4557913125,59.0,68.0
1049,246.33079158333334,246.46181539583336,71.0,69.0
1050,246.84283866666667,246.95428420833335,66.0,62.0
1051,246.84585070833333,246.95579022916667,59.0,62.0
1052,244.51453045833335,247.11241639583335,47.0,73.0
1053,247.3804881041667,247.63801766666668,62.0,66.0
1054,247.37446402083333,247.65006583333334,59.0,54.0
1055,247.36392187500002,247.72687289583334,47.0,72.0
