,start,end,pitch,velocity
0,1.31578875,1.692981525,41.0,77.0
1,1.84210425,2.16447249375,46.0,81.0
2,2.1052619999999997,4.71929565,53.0,90.0
3,4.2105239999999995,6.2478035812499995,60.0,95.0
4,6.315786,8.15131130625,56.0,82.0
5,9.9999945,10.3508715,41.0,77.0
6,10.26315225,10.54385385,46.0,85.0
7,10.52631,11.71271285625,53.0,83.0
8,12.631572,14.232448312499999,63.0,95.0
9,14.2105185,14.76534275625,60.0,76.0
10,14.736834,16.4254295625,61.0,93.0
11,56.3157585,56.427600543749996,61.0,93.0
12,56.57891625,56.6710214625,60.0,68.0
13,56.842074,56.95830200625,61.0,77.0
14,57.10523175,57.2280387,61.0,66.0
15,57.3683895,57.4868104875,61.0,76.0
16,57.63154725,57.7499682375,61.0,88.0
17,57.894705,58.008740025,61.0,74.0
18,58.15786275,58.2675118125,61.0,69.0
19,58.4210205,58.5262836,61.0,76.0
20,58.68417825,58.80479221875,61.0,82.0
21,58.947336,59.999967,63.0,88.0
22,59.999967,61.096457625,63.0,90.0
23,61.052597999999996,62.728035675,61.0,82.0
24,67.8946995,68.1885589875,41.0,58.0
25,68.68417275,68.8289095125,51.0,67.0
26,68.15785724999999,68.9692603125,48.0,40.0
27,68.94733049999999,69.52627755,51.0,59.0
28,69.473646,71.23899590625,53.0,71.0
29,73.68417,75.15566041875,46.0,95.0
30,75.52627425,75.850835475,48.0,83.0
31,75.789432,76.28285278125,49.0,74.0
32,76.3157475,76.78943145,53.0,79.0
33,76.842063,77.31793993125,58.0,96.0
34,77.3683785,77.87057120625,53.0,72.0
35,77.894694,79.87495606875,54.0,82.0
36,91.578897,92.59424731874999,56.0,96.0
37,92.631528,94.77407068125,51.0,88.0
38,94.2104745,94.8113513625,56.0,96.0
39,94.73679,96.8069643,53.0,86.0
40,108.94730849999999,109.10739613125,82.0,85.0
41,109.21046625,109.3201153125,84.0,79.0
42,109.473624,109.9078342875,84.0,100.0
43,109.9999395,110.4516936375,85.0,117.0
44,110.52625499999999,111.03721963125,87.0,96.0
45,111.0525705,111.54379829999999,89.0,102.0
46,111.578886,112.15125410625,82.0,95.0
47,122.10519599999999,124.37493159374999,60.0,99.0
48,124.210458,128.24335051875,49.0,99.0
49,128.420982,130.90124379374998,58.0,95.0
50,130.526244,132.061330875,60.0,99.0
51,132.1051905,132.65562879375,58.0,95.0
52,132.631506,135.1885221375,53.0,83.0
53,134.73676799999998,136.15124090625,60.0,93.0
54,136.31571449999998,136.85299490625,58.0,102.0
55,136.84203,139.85299325625,65.0,97.0
56,153.684126,157.97579030625,53.0,99.0
57,157.89464999999998,159.999912,54.0,91.0
58,159.999912,162.105174,56.0,91.0
59,162.105174,164.23455879375,58.0,93.0
60,164.210436,166.30911905624998,60.0,107.0
61,166.315698,166.88806610625,61.0,81.0
62,166.8420135,167.4165745875,60.0,80.0
63,166.315698,167.4516622875,65.0,107.0
64,167.368329,167.89683748125,61.0,88.0
65,167.368329,167.89683748125,61.0,97.0
66,167.8946445,168.50210030625,65.0,80.0
67,168.42096,169.03499475,63.0,87.0
68,168.9472755,169.48894186875,60.0,86.0
69,169.473591,169.96701178125,61.0,92.0
70,169.9999065,170.5832395125,63.0,86.0
71,170.526222,172.41876481875,65.0,93.0
72,170.526222,172.657799775,61.0,91.0
73,172.631484,173.75867636249998,60.0,79.0
74,173.684115,174.7586758125,53.0,77.0
75,177.3683235,177.90998986875,41.0,86.0
76,174.736746,177.96262141875,58.0,77.0
77,177.89463899999998,178.4516562375,49.0,93.0
78,178.4209545,178.98455068125,51.0,79.0
79,178.94727,181.0042864125,53.0,89.0
80,199.99989,201.53497687499998,49.0,66.0
81,202.105152,202.93629189375,51.0,92.0
82,202.63146749999999,203.05032691875,56.0,92.0
83,203.157783,203.56348453125,56.0,83.0
84,203.6840985,204.11830878749998,56.0,92.0
85,204.210414,205.3112905875,61.0,107.0
86,209.473569,209.71260395625,61.0,99.0
87,209.73672675,209.8595337,60.0,85.0
88,209.9998845,210.09418269374999,60.0,78.0
89,210.26304224999998,210.99330500624998,53.0,100.0
90,211.578831,212.64900585,63.0,102.0
91,212.631462,214.0042682625,65.0,95.0
92,218.947248,219.33979164375,84.0,127.0
93,219.47356349999998,219.9077737875,85.0,127.0
94,219.999879,220.37487879374999,87.0,127.0
95,220.5261945,220.86610659375,89.0,127.0
96,221.05250999999998,221.92312355625,89.0,127.0
97,235.789344,236.33978229375,63.0,96.0
98,236.3156595,236.8200451875,62.0,102.0
99,236.841975,237.4077641625,63.0,99.0
100,237.3682905,237.93407966249998,65.0,99.0
101,237.894606,239.24328946875,67.0,127.0
102,252.63144,253.03494855,86.0,127.0
103,253.1577555,253.5305623125,87.0,127.0
104,253.684071,254.078807625,89.0,127.0
105,254.2103865,254.57222840625,91.0,127.0
106,254.736702,256.20380645625,91.0,127.0
107,270.526167,270.79151773125,63.0,95.0
108,270.78932475,271.06783336875,62.0,86.0
109,271.0524825,271.64239445625,58.0,73.0
110,271.578798,272.16213101249997,60.0,69.0
111,271.84195575,272.16213101249997,60.0,88.0
112,272.36827125,272.61607813125,60.0,71.0
113,272.63142899999997,273.15555151875,67.0,95.0
114,273.1577445,273.20379710625,60.0,59.0
115,273.94721775,274.4603753625,67.0,81.0
116,273.42090225,274.552480575,65.0,78.0
117,274.47353325,274.73449801875,60.0,55.0
118,274.736691,274.95379614374997,65.0,66.0
119,274.99984875,275.24326966875,65.0,67.0
120,275.2630065,275.85730441875,60.0,76.0
121,275.78932199999997,276.14239198125,67.0,56.0
122,276.05247975,276.6358127625,65.0,51.0
123,276.57879525,277.19502298125,67.0,51.0
124,277.10511075,277.27616328749997,65.0,55.0
125,277.3682685,277.920899775,65.0,58.0
126,277.894584,278.23888205625,67.0,52.0
127,278.15774175,278.33537323125,65.0,49.0
128,278.4208995,278.66870638125,65.0,51.0
129,278.68405725,278.99326760625,58.0,67.0
130,278.68405725,279.0173904,63.0,48.0
131,278.94721499999997,279.0173904,63.0,88.0
132,279.21037275,279.4735305,62.0,93.0
133,279.4735305,280.0305477375,58.0,77.0
134,280.26300375,280.41870541875,63.0,53.0
135,280.5261615,280.76081049375,63.0,54.0
136,280.78931925,281.33975754375,65.0,64.0
137,281.31563475,281.46256449375,63.0,43.0
138,279.999846,281.50642411875,60.0,86.0
139,281.5787925,281.86826602499997,63.0,42.0
140,281.84195024999997,282.455985,67.0,57.0
141,282.36826575,282.91431808125,63.0,35.0
142,282.89458125,283.44501954375,65.0,56.0
143,283.42089675,284.043703425,63.0,40.0
144,283.94721225,286.19940399374997,67.0,58.0
145,286.05247425,286.56343888125,63.0,40.0
146,286.57878975,289.24545495,60.0,31.0
