,start,end,pitch,velocity
0,19.4736735,19.59648045,65.0,90.0
1,19.736831249999998,19.8596382,65.0,66.0
2,19.999989,20.15569066875,65.0,70.0
3,20.26314675,20.44516419375,66.0,66.0
4,20.5263045,20.80042715625,68.0,83.0
5,21.5789355,21.69516350625,63.0,93.0
6,21.84209325,21.96709318125,63.0,86.0
7,22.105251,22.23463689375,63.0,73.0
8,22.36840875,22.52849638125,65.0,69.0
9,22.631566499999998,22.88814530625,66.0,81.0
10,23.6841975,23.79165358125,61.0,73.0
11,23.94735525,24.061390275,61.0,72.0
12,24.210513,24.361828706249998,61.0,86.0
13,24.47367075,24.60305664375,63.0,83.0
14,24.736828499999998,25.026302025,65.0,88.0
15,25.7894595,26.114020725,65.0,93.0
16,26.315775,26.543845049999998,63.0,96.0
17,26.57893275,26.82673963125,61.0,77.0
18,27.10524825,27.35086215,58.0,88.0
19,28.9473525,29.18638745625,58.0,93.0
20,29.21051025,29.482439924999998,56.0,82.0
21,29.9999835,30.17761498125,58.0,83.0
22,30.26314125,30.61182526875,61.0,77.0
23,30.78945675,31.51094758125,63.0,76.0
24,31.31577225,31.91007016875,61.0,85.0
25,32.1052455,32.1973507125,65.0,79.0
26,32.36840325,32.4605084625,65.0,75.0
27,32.631561,32.73463111875,65.0,74.0
28,32.89471875,33.048227437499996,66.0,85.0
29,33.1578765,33.37936760625,68.0,95.0
30,34.2105075,34.3113846375,63.0,95.0
31,34.473665249999996,34.5745423875,63.0,86.0
32,34.736823,34.8727878375,63.0,83.0
33,34.99998075,35.13813856875,65.0,89.0
34,35.2631385,35.48901556875,66.0,97.0
35,36.3157695,36.4254185625,61.0,77.0
36,36.57892725,36.6798043875,61.0,78.0
37,36.842085,36.96489195,61.0,85.0
38,37.10524275,37.2412075875,63.0,95.0
39,37.3684005,37.6096284375,65.0,96.0
40,37.894716,38.35304908125,63.0,97.0
41,38.4210315,38.837697937499996,65.0,78.0
42,38.947347,39.30041698125,63.0,92.0
43,39.473662499999996,39.66006590625,65.0,83.0
44,39.73682025,40.44076723125,58.0,88.0
45,41.84208225,41.95392429375,56.0,85.0
46,42.10524,42.445152093749996,56.0,82.0
47,42.6315555,42.75436245,58.0,93.0
48,42.89471325,43.201730624999996,61.0,95.0
49,43.42102875,44.05480033125,63.0,99.0
50,43.94734425,44.480238693749996,61.0,100.0
51,44.7368175,44.850852525,60.0,90.0
52,44.99997525,45.271904925,61.0,76.0
53,45.7894485,45.9297993,60.0,79.0
54,46.05260625,46.3201499625,61.0,82.0
55,46.8420795,46.96269346875,60.0,93.0
56,47.10523725,47.38593885,61.0,99.0
57,47.8947105,48.00655254375,56.0,86.0
58,48.15786825,48.517517175,56.0,86.0
59,48.68418375,48.80041175625,63.0,100.0
60,48.9473415,49.1008501875,63.0,90.0
61,49.21049925,49.32234129375,61.0,78.0
62,49.473656999999996,49.63155165,63.0,97.0
63,49.73681475,49.8727795875,65.0,99.0
64,50.263130249999996,50.80918258125,63.0,86.0
65,50.78944575,51.377164725,65.0,88.0
66,52.1052345,52.6622517375,61.0,99.0
67,53.1578655,53.27409350625,60.0,90.0
68,53.42102325,53.88374229375,61.0,92.0
69,54.2104965,54.33549643125,60.0,86.0
70,54.473654249999996,54.8376891375,61.0,100.0
71,55.263127499999996,55.3727765625,60.0,81.0
72,55.52628525,55.94514466875,61.0,89.0
73,56.052600749999996,56.4780391125,63.0,102.0
74,56.57891625,58.603037943749996,63.0,95.0
75,61.5789135,61.7192643,65.0,97.0
76,61.84207125,61.9604922375,63.0,56.0
77,62.105229,62.311369237499996,63.0,78.0
78,62.36838675,62.51531649375,61.0,64.0
79,62.6315445,62.7499654875,63.0,90.0
80,62.89470225,63.2587371375,65.0,102.0
81,63.42101775,63.5306668125,60.0,89.0
82,63.6841755,63.79163158125,60.0,83.0
83,63.94733325,64.03505249999999,60.0,90.0
84,64.210491,64.31575409999999,60.0,90.0
85,64.47364875,64.66005215625,63.0,93.0
86,64.7368065,64.83110469374999,61.0,97.0
87,64.99996425,65.66443756875,61.0,100.0
88,65.52627975,65.88154271249999,60.0,88.0
89,66.05259525,67.05917364375,58.0,83.0
90,69.9999615,70.16004913125,65.0,82.0
91,70.26311925,70.37934725625,63.0,86.0
92,70.526277,70.675399725,63.0,89.0
93,70.78943475,70.9253995875,61.0,75.0
94,71.0525925,71.18197839375,63.0,93.0
95,71.31575025,71.70390793125,65.0,95.0
96,71.84206575,71.929785,63.0,97.0
97,72.1052235,72.201714675,63.0,95.0
98,72.36838125,72.5262759,61.0,85.0
99,72.631539,72.73899508125,63.0,90.0
100,72.89469675,73.0218896625,61.0,85.0
101,73.1578545,73.26531058125,63.0,93.0
102,73.42101225,73.90566110625,68.0,107.0
103,73.94732775,74.1183802875,63.0,95.0
104,74.2104855,75.0131166375,65.0,97.0
105,77.63153625,77.72583444375,56.0,89.0
106,77.894694,78.01750095,58.0,90.0
107,78.15785174999999,78.2675008125,56.0,89.0
108,78.4210095,78.54162346875,58.0,93.0
109,78.68416725,78.7938163125,56.0,92.0
110,78.94732499999999,79.13811436875,58.0,107.0
111,79.21048275,79.412237025,54.0,75.0
112,79.4736405,79.66004390625,58.0,99.0
113,79.73679824999999,80.16004363125,65.0,95.0
114,80.26311375,80.3639908875,63.0,88.0
115,80.5262715,80.86618359375,63.0,95.0
116,81.84206025,81.94732335,60.0,90.0
117,82.105218,82.24337581875,60.0,95.0
118,82.36837575,82.4867967375,58.0,89.0
119,82.6315335,82.73021765625,60.0,100.0
120,82.89469125,83.01969118125,58.0,93.0
121,83.157849,83.30916470625,60.0,127.0
122,83.42100675,83.55477860625,56.0,92.0
123,83.6841645,83.7894276,60.0,78.0
124,83.94732225,84.36618166875,63.0,102.0
125,84.47363775,84.58328681249999,61.0,88.0
126,84.7367955,85.20828646875,61.0,99.0
127,86.05258425,86.16442629375,56.0,93.0
128,86.315742,86.42319808124999,58.0,96.0
129,86.57889975,86.69074179374999,60.0,92.0
130,86.8420575,86.96267146875,61.0,117.0
131,87.10521525,87.25214499375,58.0,83.0
132,87.368373,87.5087238,61.0,99.0
133,87.63153075,87.92758321875,65.0,90.0
134,88.15784624999999,89.11617905625,63.0,100.0
135,89.21047725,89.3025824625,60.0,85.0
136,89.473635,89.57231915625,60.0,82.0
137,89.73679274999999,89.86617864375,60.0,90.0
138,89.9999505,90.12056446875,61.0,99.0
139,90.26310825,90.8201254875,63.0,100.0
140,91.0525815,91.166616525,61.0,90.0
141,91.31573925,91.9166161125,61.0,96.0
142,95.2631055,95.394684375,65.0,122.0
143,95.52626325,95.60301759375,63.0,85.0
144,95.789421,95.89687708125,63.0,112.0
145,96.05257875,96.16442079375,61.0,95.0
146,96.3157365,96.42757854375,63.0,100.0
147,96.57889425,96.86617479375,65.0,117.0
148,97.10520975,97.184157075,60.0,90.0
149,97.3683675,97.44073588124999,60.0,86.0
150,97.63152525,97.71705151875,60.0,93.0
151,97.894683,97.9867882125,60.0,99.0
152,98.15784075,98.359595025,63.0,122.0
153,98.4209985,98.51529669375,61.0,85.0
154,98.68415625,99.219243675,61.0,112.0
155,99.21047175,99.4429277625,53.0,93.0
156,99.4736295,100.46705000625,58.0,100.0
157,103.6841535,103.85959199999999,65.0,102.0
158,103.94731125,104.04160944375,63.0,92.0
159,104.210469,104.35301278125,63.0,107.0
160,104.47362675,104.62055649375,61.0,85.0
161,104.7367845,104.85081952499999,63.0,107.0
162,104.99994225,105.2850298125,65.0,102.0
163,105.52625775,105.6095910375,63.0,100.0
164,105.7894155,105.94073120624999,63.0,100.0
165,106.05257325,106.17318721875,61.0,90.0
166,106.315731,106.43195900625,63.0,112.0
167,106.57888875,106.71923955,61.0,96.0
168,106.8420465,106.9429236375,63.0,102.0
169,107.10520425,107.6008180125,68.0,102.0
170,107.63151975,107.83985296875,63.0,93.0
171,107.8946775,109.01529091875,65.0,127.0
172,111.31572824999999,111.45388606875,56.0,89.0
173,111.578886,111.69072804375,58.0,99.0
174,111.84204375,111.95827175625,56.0,86.0
175,112.10520149999999,112.2060786375,58.0,93.0
176,112.36835925,112.48020129375,56.0,88.0
177,112.631517,112.72142923125,58.0,95.0
178,112.89467475,113.061341325,54.0,97.0
179,113.1578325,113.30476224375,58.0,90.0
180,113.42099025,113.815726875,65.0,100.0
181,113.94730575,114.12274425,66.0,102.0
182,114.2104635,114.7674807375,63.0,97.0
183,115.52625225,115.64686621874999,60.0,78.0
184,115.78941,115.9429186875,60.0,100.0
185,116.05256775,116.166602775,58.0,85.0
186,116.3157255,116.43633946874999,60.0,107.0
187,116.57888325,116.7148480875,58.0,93.0
188,116.842041,116.98458478124999,60.0,122.0
189,117.10519875,117.2981811,56.0,83.0
190,117.3683565,117.4955494125,60.0,99.0
191,117.63151425,118.05256665,63.0,100.0
192,118.15782975,118.289408625,61.0,102.0
193,118.4209875,119.48239042499999,61.0,117.0
194,119.4736185,119.5832675625,56.0,92.0
195,119.73677624999999,119.84423233125,56.0,82.0
196,119.999934,120.11177604375,58.0,97.0
197,120.26309175,120.40344255,56.0,83.0
198,120.52624949999999,120.66002135625,58.0,97.0
199,120.78940725,120.99774046875,54.0,88.0
200,121.052565,121.201687725,58.0,107.0
201,121.31572274999999,121.61616118124999,65.0,92.0
202,121.84203825,122.54817821249999,63.0,117.0
203,123.157827,123.2587041375,60.0,100.0
204,123.42098475,123.5481776625,60.0,95.0
205,123.6841425,123.80914243125,61.0,107.0
206,123.94730025,124.34422985625,63.0,107.0
207,124.47361575,124.65563319374999,61.0,107.0
208,124.7367735,125.63808879375,61.0,107.0
209,141.5788695,141.6709747125,65.0,79.0
210,141.84202725,141.9341324625,65.0,75.0
211,142.105185,142.20825511875,65.0,74.0
212,142.36834275,142.5218514375,66.0,85.0
213,142.6315005,142.85299160625,68.0,95.0
214,143.6841315,143.7850086375,63.0,95.0
215,143.94728925,144.0481663875,63.0,86.0
216,144.210447,144.3464118375,63.0,83.0
217,144.47360475,144.61176256875,65.0,89.0
218,144.7367625,144.96263956875,66.0,97.0
219,145.7893935,145.8990425625,61.0,77.0
220,146.05255125,146.15342838749999,61.0,78.0
221,146.315709,146.43851595,61.0,85.0
222,146.57886675,146.7148315875,63.0,95.0
223,146.8420245,147.0832524375,65.0,96.0
224,147.36834,147.82667308125,63.0,97.0
225,147.8946555,148.3113219375,65.0,78.0
226,148.420971,148.77404098125,63.0,92.0
227,148.9472865,149.13368990625,65.0,83.0
228,149.21044425,149.91439123125,58.0,88.0
229,151.31570625,151.42754829375,56.0,85.0
230,151.578864,151.91877609375,56.0,82.0
231,152.1051795,152.22798645,58.0,93.0
232,152.36833725,152.675354625,61.0,95.0
233,152.89465275,153.52842433125,63.0,99.0
234,153.42096825,153.95386269375,61.0,100.0
235,154.2104415,154.324476525,60.0,90.0
236,154.47359925,154.745528925,61.0,76.0
237,155.2630725,155.4034233,60.0,79.0
238,155.52623025,155.79377396249998,61.0,82.0
239,156.31570349999998,156.43631746875,60.0,93.0
240,156.57886125,156.85956285,61.0,99.0
241,157.3683345,157.48017654375,56.0,86.0
242,157.63149225,157.991141175,56.0,86.0
243,158.15780775,158.27403575625,63.0,100.0
244,158.4209655,158.5744741875,63.0,90.0
245,158.68412325,158.79596529375,61.0,78.0
246,158.947281,159.10517565,63.0,97.0
247,159.21043875,159.3464035875,65.0,99.0
248,159.73675425,160.28280658125,63.0,86.0
249,160.26306975,160.850788725,65.0,88.0
250,161.5788585,162.1358757375,61.0,99.0
251,162.6314895,162.74771750624998,60.0,90.0
252,162.89464725,163.35736629375,61.0,92.0
253,163.6841205,163.80912043125,60.0,86.0
254,163.94727825,164.3113131375,61.0,100.0
255,164.7367515,164.8464005625,60.0,81.0
256,164.99990925,165.41876866875,61.0,89.0
257,165.52622475,165.9516631125,63.0,102.0
258,166.05254025,168.07666194375,63.0,95.0
259,171.0525375,171.1928883,65.0,97.0
260,171.31569525,171.4341162375,63.0,56.0
261,171.578853,171.7849932375,63.0,78.0
262,171.84201075,171.98894049375,61.0,64.0
263,172.1051685,172.2235894875,63.0,90.0
264,172.36832625,172.7323611375,65.0,102.0
265,172.89464175,173.0042908125,60.0,89.0
266,173.1577995,173.26525558125,60.0,83.0
267,173.42095725,173.5086765,60.0,90.0
268,173.684115,173.7893781,60.0,90.0
269,173.94727275,174.13367615625,63.0,93.0
270,174.2104305,174.30472869375,61.0,97.0
271,174.47358825,175.13806156875,61.0,100.0
272,174.99990375,175.3551667125,60.0,88.0
273,175.52621925,176.53279764375,58.0,83.0
274,179.47358549999998,179.63367313125,65.0,82.0
275,179.73674325,179.85297125625,63.0,86.0
276,179.999901,180.149023725,63.0,89.0
277,180.26305875,180.3990235875,61.0,75.0
278,180.5262165,180.65560239375,63.0,93.0
279,180.78937425,181.17753193125,65.0,95.0
280,181.31568975,181.403409,63.0,97.0
281,181.5788475,181.675338675,63.0,95.0
282,181.84200525,181.9998999,61.0,85.0
283,182.105163,182.21261908125,63.0,90.0
284,182.36832075,182.4955136625,61.0,85.0
285,182.6314785,182.73893458125,63.0,93.0
286,182.89463625,183.37928510625,68.0,107.0
287,183.42095175,183.5920042875,63.0,95.0
288,183.6841095,184.4867406375,65.0,97.0
289,187.10516024999998,187.19945844375,56.0,89.0
290,187.368318,187.49112495,58.0,90.0
291,187.63147575,187.7411248125,56.0,89.0
292,187.8946335,188.01524746875,58.0,93.0
293,188.15779125,188.26744031249999,56.0,92.0
294,188.420949,188.61173836875,58.0,107.0
295,188.68410674999998,188.885861025,54.0,75.0
296,188.9472645,189.13366790625,58.0,99.0
297,189.21042225,189.63366763125,65.0,95.0
298,189.73673775,189.8376148875,63.0,88.0
299,189.9998955,190.33980759375,63.0,95.0
300,191.31568425,191.42094735,60.0,90.0
301,191.578842,191.71699981875,60.0,95.0
302,191.84199974999999,191.9604207375,58.0,89.0
303,192.1051575,192.20384165625,60.0,100.0
304,192.36831525,192.49331518124998,58.0,93.0
305,192.631473,192.78278870625,60.0,127.0
306,192.89463075,193.02840260624998,56.0,92.0
307,193.1577885,193.26305159999998,60.0,78.0
308,193.42094625,193.83980566875,63.0,102.0
309,193.94726175,194.0569108125,61.0,88.0
310,194.2104195,194.68191046875,61.0,99.0
311,195.52620825,195.63805029374998,56.0,93.0
312,195.789366,195.89682208125,58.0,96.0
313,196.05252375,196.16436579375,60.0,92.0
314,196.3156815,196.43629546875,61.0,117.0
315,196.57883925,196.72576899375,58.0,83.0
316,196.841997,196.98234779999999,61.0,99.0
317,197.10515475,197.40120721875,65.0,90.0
318,197.63147025,198.58980305625,63.0,100.0
319,198.68410125,198.7762064625,60.0,85.0
320,198.947259,199.04594315625,60.0,82.0
321,199.21041675,199.33980264375,60.0,90.0
322,199.47357449999998,199.59418846875,61.0,99.0
323,199.73673225,200.2937494875,63.0,100.0
324,200.5262055,200.640240525,61.0,90.0
325,200.78936325,201.3902401125,61.0,96.0
326,204.7367295,204.868308375,65.0,122.0
327,204.99988725,205.07664159375,63.0,85.0
328,205.263045,205.37050108124998,63.0,112.0
329,205.52620275,205.63804479375,61.0,95.0
330,205.7893605,205.90120254375,63.0,100.0
331,206.05251825,206.33979879375,65.0,117.0
332,206.57883375,206.657781075,60.0,90.0
333,206.8419915,206.91435988125,60.0,86.0
334,207.10514925,207.19067551875,60.0,93.0
335,207.368307,207.4604122125,60.0,99.0
336,207.63146475,207.833219025,63.0,122.0
337,207.8946225,207.98892069375,61.0,85.0
338,208.15778025,208.692867675,61.0,112.0
339,208.68409574999998,208.9165517625,53.0,93.0
340,208.9472535,209.94067400625,58.0,100.0
341,213.1577775,213.333216,65.0,102.0
342,213.42093524999999,213.51523344375,63.0,92.0
343,213.684093,213.82663678125,63.0,107.0
344,213.94725075,214.09418049375,61.0,85.0
345,214.2104085,214.324443525,63.0,107.0
346,214.47356625,214.7586538125,65.0,102.0
347,214.99988175,215.0832150375,63.0,100.0
348,215.2630395,215.41435520625,63.0,100.0
349,215.52619725,215.64681121875,61.0,90.0
350,215.789355,215.90558300625,63.0,112.0
351,216.05251275,216.19286355,61.0,96.0
352,216.3156705,216.4165476375,63.0,102.0
353,216.57882825,217.0744420125,68.0,102.0
354,217.10514375,217.31347696875,63.0,93.0
355,217.3683015,218.48891491875,65.0,127.0
356,220.78935225,220.92751006875,56.0,89.0
357,221.05250999999998,221.16435204375,58.0,99.0
358,221.31566775,221.43189575625,56.0,86.0
359,221.5788255,221.6797026375,58.0,93.0
360,221.84198325,221.95382529375,56.0,88.0
361,222.105141,222.19505323125,58.0,95.0
362,222.36829875,222.534965325,54.0,97.0
363,222.63145649999998,222.77838624375,58.0,90.0
364,222.89461425,223.289350875,65.0,100.0
365,223.42092975,223.59636824999998,66.0,102.0
366,223.6840875,224.2411047375,63.0,97.0
367,224.99987625,225.12049021875,60.0,78.0
368,225.263034,225.4165426875,60.0,100.0
369,225.52619175,225.640226775,58.0,85.0
370,225.7893495,225.90996346875,60.0,107.0
371,226.05250725,226.1884720875,58.0,93.0
372,226.315665,226.45820878125,60.0,122.0
373,226.57882275,226.7718051,56.0,83.0
374,226.8419805,226.9691734125,60.0,99.0
375,227.10513825,227.52619065,63.0,100.0
376,227.63145375,227.763032625,61.0,102.0
377,227.8946115,228.956014425,61.0,117.0
378,228.9472425,229.0568915625,56.0,92.0
379,229.21040025,229.31785633125,56.0,82.0
380,229.473558,229.58540004374998,58.0,97.0
381,229.73671575,229.87706655,56.0,83.0
382,229.9998735,230.13364535624999,58.0,97.0
383,230.26303124999998,230.47136446874998,54.0,88.0
384,230.526189,230.675311725,58.0,107.0
385,230.78934675,231.08978518125,65.0,92.0
386,231.31566225,232.0218022125,63.0,117.0
387,232.631451,232.7323281375,60.0,100.0
388,232.89460875,233.0218016625,60.0,95.0
389,233.1577665,233.28276643125,61.0,107.0
390,233.42092424999998,233.81785385625,63.0,107.0
391,233.94723975,234.12925719375,61.0,107.0
392,234.2103975,235.11171279375,61.0,107.0
393,238.4209215,238.67750030624998,67.0,127.0
394,238.68407925,238.80030725625,65.0,82.0
395,238.947237,239.0919737625,65.0,107.0
396,239.21039475,239.36609641875,63.0,95.0
397,239.47355249999998,239.58539454375,65.0,112.0
398,239.73671025,240.05469253125,67.0,122.0
399,240.26302575,240.34855201874998,65.0,112.0
400,240.5261835,240.62925361875,65.0,100.0
401,240.78934125,240.9077622375,63.0,97.0
402,241.05249899999998,241.14460421249998,65.0,112.0
403,241.31565675,241.4253058125,63.0,100.0
404,241.5788145,241.65556884375,65.0,99.0
405,241.84197225,242.15995453125,67.0,127.0
406,242.36828775,242.482322775,60.0,97.0
407,242.63144549999998,243.75425189999999,63.0,102.0
408,246.8419695,247.02398694375,67.0,127.0
409,247.10512725,247.21258333125,65.0,96.0
410,247.368285,247.5305656125,65.0,99.0
411,247.63144275,247.80030230625,63.0,89.0
412,247.8946005,247.991091675,65.0,92.0
413,248.15775825,248.4954773625,70.0,107.0
414,248.68407375,248.78933684999998,67.0,117.0
415,248.9472315,249.1095121125,67.0,102.0
416,249.21038925,249.37486284375,65.0,100.0
417,249.473547,249.6007399125,65.0,96.0
418,249.73670475,249.86170468125,63.0,95.0
419,249.9998625,250.1270554125,65.0,97.0
420,250.26302024999998,250.8814409625,67.0,112.0
421,251.0524935,251.32223019375,60.0,99.0
422,251.31565125,251.60293179375,65.0,93.0
423,251.578809,252.82442235,63.0,102.0
424,254.47354425,254.74328094375,58.0,93.0
425,254.736702,254.96038608749998,60.0,97.0
426,254.99985974999998,255.131438625,67.0,102.0
427,255.2630175,255.3814384875,67.0,107.0
428,255.52617525,255.65117518124998,67.0,112.0
429,255.789333,255.955999575,67.0,122.0
430,256.05249075,256.20380645625,67.0,102.0
431,256.3156485,256.45819228125,68.0,90.0
432,256.57880625,257.18187609375,67.0,122.0
433,257.10512175,257.21696379375,65.0,92.0
434,257.36827949999997,258.078805425,65.0,112.0
435,258.68406825,258.78933135,62.0,112.0
436,258.947226,259.15994518125,62.0,117.0
437,259.21038375,259.33099771875,60.0,92.0
438,259.4735415,259.66652385,62.0,112.0
439,259.73669925,259.8638921625,60.0,90.0
440,259.999857,260.14240078125,62.0,127.0
441,260.26301474999997,260.35292698125,65.0,112.0
442,260.5261725,260.6007338625,65.0,97.0
443,260.78933025,261.19064581875,65.0,112.0
444,261.31564575,261.41871586875,63.0,89.0
445,261.5788035,262.19283825,63.0,97.0
446,262.89459225,263.00424131249997,58.0,99.0
447,263.15775,263.289328875,60.0,97.0
448,263.42090774999997,263.57660941874997,58.0,95.0
449,263.6840655,263.833188225,60.0,89.0
450,263.94722325,264.08757405,56.0,95.0
451,264.210381,264.38581949999997,60.0,100.0
452,264.47353875,264.7717842,67.0,112.0
453,264.99985425,265.8463450125,65.0,107.0
454,266.315643,266.40555523125,62.0,117.0
455,266.57880074999997,266.692835775,62.0,97.0
456,266.8419585,266.973537375,63.0,93.0
457,267.10511625,267.65555454375,65.0,117.0
458,267.63143175,267.72572994374997,63.0,99.0
459,267.8945895,268.75204516875,63.0,102.0
