,start,end,pitch,velocity
0,1.84210425,2.1973672125,41.0,74.0
1,2.6315775,3.745611975,53.0,56.0
2,2.1052619999999997,4.18640120625,46.0,86.0
3,3.157893,4.2916643062499995,61.0,90.0
4,3.6842085,4.3114011375,58.0,65.0
5,5.263155,5.60745305625,56.0,46.0
6,4.7368395,5.7894705,51.0,60.0
7,4.2105239999999995,5.82236521875,44.0,55.0
8,5.7894705,6.4912244999999995,60.0,62.0
9,5.263155,6.6008735624999995,63.0,82.0
10,6.8421015,7.8223641187499995,49.0,56.0
11,7.368417,8.73025835625,54.0,47.0
12,7.368417,9.1184160375,58.0,73.0
13,8.421047999999999,9.5394684375,61.0,57.0
14,8.9473635,9.6447315375,54.0,51.0
15,7.8947325,9.92324015625,49.0,43.0
16,6.315786,9.97148574375,42.0,65.0
17,9.73683675,10.48464335625,61.0,55.0
18,8.421047999999999,10.499994225,66.0,58.0
19,9.9999945,10.510959131249999,63.0,56.0
20,9.473679,10.51534509375,58.0,83.0
21,11.0526255,12.311396737499999,53.0,55.0
22,10.52631,12.495607162499999,46.0,74.0
23,12.1052565,12.6710456625,58.0,59.0
24,11.578941,12.8113964625,61.0,69.0
25,11.578941,12.815782425,65.0,61.0
26,13.684203,13.723676662499999,56.0,31.0
27,13.1578875,14.11622030625,51.0,57.0
28,12.631572,14.197360612499999,44.0,50.0
29,14.2105185,14.815781325,56.0,60.0
30,13.684203,14.8903426875,63.0,82.0
31,15.789465,17.9517445125,54.0,54.0
32,15.263149499999999,18.01534096875,49.0,38.0
33,14.736834,18.18200754375,42.0,70.0
34,16.842095999999998,18.8771826,66.0,43.0
35,16.3157805,18.956129925,58.0,44.0
36,16.842095999999998,19.0657789875,61.0,43.0
37,19.4736735,20.40569053125,44.0,49.0
38,18.947358,20.51095363125,37.0,61.0
39,19.999989,20.6534974125,49.0,51.0
40,20.5263045,21.061391925,56.0,74.0
41,19.999989,21.142532231249998,65.0,83.0
42,21.5789355,22.70832084375,53.0,39.0
43,21.05262,22.7368296,48.0,71.0
44,22.105251,23.1798118125,65.0,70.0
45,22.105251,23.197355662499998,68.0,69.0
46,22.631566499999998,23.254373175,60.0,65.0
47,23.157882,24.65130223125,46.0,73.0
48,23.6841975,24.6666531,53.0,38.0
49,24.736828499999998,25.322354493749998,61.0,66.0
50,24.210513,25.328933437499998,65.0,86.0
51,25.7894595,26.8727922375,51.0,41.0
52,25.263144,26.9166518625,44.0,71.0
53,27.10524825,27.4517392875,56.0,63.0
54,26.8420905,27.4605112125,60.0,67.0
55,26.315775,27.4780550625,63.0,96.0
56,28.421037,28.885949025,54.0,52.0
57,27.368406,29.04603665625,42.0,63.0
58,27.8947215,29.464896075,49.0,48.0
59,28.9473525,29.56358023125,58.0,62.0
60,28.421037,29.6140188,61.0,88.0
61,29.9999835,30.98901804375,51.0,52.0
62,29.473668,31.01533381875,44.0,61.0
63,30.78945675,31.20831616875,60.0,70.0
64,31.31577225,31.61182471875,60.0,61.0
65,30.526298999999998,31.62498260625,63.0,96.0
66,31.0526145,31.63375453125,56.0,85.0
67,32.1052455,32.84866614375,44.0,44.0
68,31.57893,32.8771749,37.0,79.0
69,32.631561,33.16445544375,49.0,60.0
70,33.1578765,33.7192797,56.0,89.0
71,32.631561,33.7762972125,65.0,88.0
72,32.89471875,33.78287615625,61.0,63.0
73,34.2105075,35.1798052125,53.0,56.0
74,33.684191999999996,35.1929631,48.0,69.0
75,34.736823,35.84208555,65.0,75.0
76,34.736823,35.86182238125,68.0,71.0
77,35.2631385,35.9078749875,60.0,72.0
78,36.3157695,37.177611131249996,53.0,52.0
79,35.789454,37.28287423125,46.0,69.0
80,36.842085,37.96708438125,65.0,89.0
81,37.63155825,37.97585630625,58.0,74.0
82,37.3684005,37.98901419375,61.0,70.0
83,37.894716,39.3727853625,41.0,71.0
84,38.15787375,39.482434425,48.0,59.0
85,38.4210315,39.53725895625,53.0,50.0
86,38.947347,40.03725868125,60.0,82.0
87,39.473662499999996,40.09866215625,56.0,77.0
88,39.999978,41.70392443125,42.0,79.0
89,40.5262935,42.078924225,49.0,56.0
90,41.052609,42.166643475,61.0,93.0
91,41.5789245,42.1754154,58.0,83.0
92,42.10524,43.77190575,44.0,69.0
93,42.6315555,44.210502,51.0,59.0
94,43.6841865,44.212694981249996,60.0,69.0
95,43.157871,44.22804585,63.0,97.0
96,44.7368175,45.7499748375,53.0,59.0
97,44.210502,46.2412026375,46.0,65.0
98,45.7894485,46.324535925,61.0,72.0
99,45.263132999999996,46.35743064375,65.0,89.0
100,46.8420795,47.464886175,56.0,57.0
101,46.315764,47.967078881249996,44.0,78.0
102,47.8947105,48.421026,56.0,79.0
103,47.368395,48.421026,63.0,96.0
104,48.421026,50.254358325,42.0,69.0
105,48.9473415,50.383744218749996,49.0,48.0
106,49.473656999999996,50.41883191875,61.0,90.0
107,49.9999725,50.43856875,58.0,69.0
108,51.0526035,51.5745330375,58.0,66.0
109,50.526288,51.58111198125,46.0,71.0
110,51.578919,52.219269525,44.0,70.0
111,52.1052345,52.7368131,56.0,76.0
112,53.1578655,53.7587423625,58.0,60.0
113,52.63155,54.47584723125,46.0,74.0
114,53.684181,54.6622506375,61.0,90.0
115,54.2104965,54.8069874,58.0,67.0
116,54.736812,56.68637233125,44.0,73.0
117,56.3157585,56.83549505625,60.0,69.0
118,55.263127499999996,56.842074,56.0,61.0
119,55.789443,56.842074,63.0,95.0
120,57.894705,58.236810075,54.0,49.0
121,56.842074,58.37058193125,42.0,67.0
122,57.894705,58.499967825,61.0,79.0
123,57.3683895,58.94075705625,49.0,62.0
124,58.4210205,58.947336,58.0,55.0
125,58.947336,60.552598275,44.0,73.0
126,58.947336,60.921019125,56.0,66.0
127,58.947336,60.98461558125,60.0,58.0
128,58.947336,61.0131243375,63.0,70.0
129,61.5789135,62.190755268749996,56.0,86.0
130,61.84207125,62.25654470625,61.0,56.0
131,62.36838675,62.54382525,56.0,48.0
132,61.052597999999996,62.578912949999996,49.0,82.0
133,62.105229,63.1534740375,68.0,97.0
134,62.6315445,63.1885617375,65.0,81.0
135,62.89470225,63.26970204375,61.0,51.0
136,63.6841755,64.35303478125,53.0,72.0
137,63.15786,64.69513985625,41.0,63.0
138,63.42101775,64.71706966875,48.0,42.0
139,63.94733325,64.73022755625,60.0,61.0
140,64.47364875,65.2324202625,53.0,56.0
141,64.210491,65.30478864375,69.0,99.0
142,64.7368065,65.30917460625,65.0,58.0
143,64.99996425,65.3990868375,60.0,72.0
144,65.7894375,66.201717975,58.0,71.0
145,65.52627975,66.36838455,53.0,40.0
146,66.05259525,66.37057753124999,61.0,61.0
147,66.57891075,66.8464544625,53.0,52.0
148,65.263122,66.9429456375,46.0,68.0
149,66.315753,67.33987524375,65.0,85.0
150,67.10522625,67.3639980375,58.0,68.0
151,66.8420685,67.37496294374999,61.0,58.0
152,67.8946995,68.2587343875,56.0,73.0
153,67.63154175,68.47364655,51.0,41.0
154,68.15785724999999,68.4868044375,60.0,73.0
155,68.68417275,68.87934808125,51.0,59.0
156,67.36838399999999,68.92978665,44.0,63.0
157,68.94733049999999,69.40127761875,60.0,74.0
158,68.421015,69.42759339375,63.0,93.0
159,69.21048825,69.5394354375,56.0,72.0
160,69.9999615,70.62057519375,49.0,68.0
161,70.26311925,70.90566275625,56.0,66.0
162,69.473646,70.96706623125,37.0,66.0
163,69.73680374999999,71.00653989375,44.0,56.0
164,70.78943475,71.53066241249999,49.0,66.0
165,71.31575025,71.5569781875,56.0,79.0
166,71.0525925,71.58110098125,61.0,75.0
167,70.526277,71.5920658875,65.0,90.0
168,72.1052235,72.7499599875,53.0,76.0
169,71.578908,73.14250363125,41.0,70.0
170,71.84206575,73.14250363125,48.0,44.0
171,72.36838125,73.21267903125,60.0,65.0
172,72.89469675,73.64688931875,53.0,72.0
173,73.1578545,73.70171385,65.0,81.0
174,73.42101225,73.72583664375,60.0,73.0
175,72.631539,73.745573475,68.0,96.0
176,74.2104855,74.5613625,58.0,81.0
177,74.47364325,74.7675027375,61.0,72.0
178,73.94732775,74.7850465875,53.0,48.0
179,74.99995875,75.254344575,53.0,39.0
180,73.68417,75.271888425,46.0,71.0
181,74.736801,75.77408113125,65.0,96.0
182,75.52627425,75.80916883125,58.0,70.0
183,75.2631165,75.81355479375,61.0,66.0
184,76.3157475,76.69951921875,56.0,85.0
185,76.57890525,76.85960685,60.0,79.0
186,76.05258975,76.92978225,51.0,58.0
187,77.10522075,77.4517117875,51.0,61.0
188,75.789432,77.46267669375,44.0,69.0
189,77.3683785,77.91223785,60.0,79.0
190,76.842063,77.94074660625,63.0,99.0
191,77.63153625,77.9517115125,56.0,82.0
192,78.4210095,79.07232493125,54.0,74.0
193,78.68416725,79.33986864375,58.0,71.0
194,79.21048275,79.51530714375,54.0,78.0
195,77.894694,79.81355259375,42.0,68.0
196,78.94732499999999,80.026271775,65.0,85.0
197,78.15785174999999,80.0394296625,49.0,56.0
198,79.73679824999999,80.05478053125,58.0,59.0
199,79.4736405,80.05916649375,61.0,61.0
200,80.78942925,81.12056941875,60.0,75.0
201,80.5262715,81.1622360625,56.0,88.0
202,81.31574475,81.48021834375,56.0,78.0
203,80.26311375,81.49337623125,51.0,61.0
204,79.999956,81.5657446125,44.0,72.0
205,81.052587,81.605218275,63.0,100.0
206,81.5789025,82.0920601125,60.0,86.0
207,81.84206025,82.14688464375,63.0,68.0
208,82.6315335,83.28504191249999,53.0,75.0
209,82.89469125,83.6885504625,56.0,58.0
210,82.105218,83.69074344375,41.0,81.0
211,82.36837575,83.69951536875,48.0,57.0
212,83.42100675,84.0832870875,53.0,66.0
213,83.6841645,84.21048,60.0,85.0
214,83.94732225,84.2148659625,56.0,93.0
215,83.157849,84.31355011875,65.0,96.0
216,84.7367955,85.1227602,58.0,86.0
217,84.99995325,85.2674969625,61.0,88.0
218,84.47363775,85.32670745625,53.0,77.0
219,85.52626875,85.7324089875,53.0,39.0
220,84.21048,85.798198425,46.0,76.0
221,85.7894265,86.2060929375,61.0,93.0
222,85.263111,86.22144380625,65.0,97.0
223,86.05258425,86.33986479375,58.0,69.0
224,86.8420575,87.4736361,51.0,69.0
225,86.315742,87.73679385,39.0,75.0
226,86.57889975,87.7411798125,46.0,65.0
227,87.10521525,87.75653068125,58.0,58.0
228,87.63153075,88.0131094875,51.0,66.0
229,87.368373,88.3859163,66.0,93.0
230,87.8946885,88.40126716875,63.0,93.0
231,88.15784624999999,88.421004,58.0,76.0
232,88.94731949999999,89.32670525625,56.0,79.0
233,89.21047725,89.4867928875,60.0,76.0
234,88.68416175,89.59644195,51.0,40.0
235,89.73679274999999,89.89249441875,51.0,41.0
236,88.421004,89.94512596875,44.0,75.0
237,89.9999505,90.4078450125,60.0,76.0
238,89.473635,90.44512569375,63.0,96.0
239,90.26310825,90.55038879375,56.0,69.0
240,91.0525815,91.62056364375,49.0,70.0
241,91.31573925,91.903458225,56.0,59.0
242,90.52626599999999,92.51968595625,37.0,70.0
243,90.78942375,92.631528,44.0,41.0
244,91.84205475,92.631528,49.0,71.0
245,92.36837025,92.631528,56.0,73.0
246,92.1052125,92.631528,61.0,71.0
247,91.578897,92.631528,65.0,89.0
248,92.631528,93.01529971875,60.0,65.0
249,92.631528,93.02845760625,56.0,66.0
250,92.631528,93.02845760625,63.0,60.0
251,93.1578435,93.50214155625,56.0,66.0
252,93.1578435,93.5569660875,63.0,66.0
253,93.1578435,93.56573801249999,60.0,67.0
254,93.1578435,93.91003606875,51.0,40.0
255,93.684159,94.0657377375,56.0,92.0
256,93.684159,94.0701237,63.0,89.0
257,93.684159,94.07670264375,60.0,92.0
258,92.631528,94.56354448125,44.0,69.0
259,93.94731675,94.66880758125,51.0,52.0
260,94.2104745,94.70389528125,60.0,107.0
261,94.2104745,94.7148601875,63.0,97.0
262,94.2104745,94.728018075,56.0,97.0
263,95.52626325,95.94731565,49.0,68.0
264,95.2631055,96.2674909125,44.0,38.0
265,94.73679,96.27845581875,37.0,75.0
266,96.05257875,96.58108723125,49.0,61.0
267,95.789421,96.79599939375,65.0,96.0
268,96.3157365,96.80915728125,61.0,83.0
269,96.57889425,96.8376660375,56.0,73.0
270,97.3683675,97.7587181625,56.0,83.0
271,97.63152525,97.9253847375,60.0,78.0
272,97.10520975,97.991174175,51.0,43.0
273,96.842052,98.728015875,44.0,73.0
274,98.4209985,98.94950698125,60.0,90.0
275,98.68415625,98.95827890625,56.0,83.0
276,97.894683,98.96047188749999,63.0,97.0
277,98.15784075,98.99775256875,51.0,59.0
278,99.4736295,99.833278425,58.0,79.0
279,99.73678724999999,99.98020816875,61.0,85.0
280,99.21047175,100.09862915625,53.0,56.0
281,100.26310275,100.78722526874999,53.0,50.0
282,98.94731399999999,100.8025761375,46.0,76.0
283,100.78941825,101.05915494375,58.0,39.0
284,100.52626049999999,101.08108475625,61.0,69.0
285,99.999945,101.09862860625,65.0,90.0
286,101.84204925,102.219242025,60.0,77.0
287,101.5788915,102.39248754375,56.0,83.0
288,101.052576,102.60739970624999,44.0,68.0
289,101.31573374999999,102.61397864999999,51.0,53.0
290,102.36836475,102.675382125,63.0,69.0
291,102.89468025,103.1622239625,63.0,55.0
292,102.6315225,103.1797678125,60.0,72.0
293,102.105207,103.18634675625,68.0,97.0
294,103.6841535,104.3464338375,49.0,64.0
295,103.157838,104.64906524999999,37.0,69.0
296,103.42099575,104.66880208124999,44.0,55.0
297,103.94731125,104.78941605,56.0,63.0
298,104.47362675,104.89467915,49.0,61.0
299,104.210469,105.2280123,65.0,93.0
300,104.7367845,105.26967894375,61.0,86.0
301,104.99994225,105.2938017375,56.0,72.0
302,105.7894155,106.12274864999999,56.0,77.0
303,106.05257325,106.3376608125,60.0,79.0
304,105.52625775,106.44073093125,51.0,42.0
305,105.2631,107.16441474375,44.0,70.0
306,106.8420465,107.3552041125,60.0,86.0
307,106.57888875,107.36178305625,51.0,71.0
308,106.315731,107.36616901875,63.0,95.0
309,107.10520425,107.37494094375,56.0,88.0
310,107.8946775,108.2323966125,58.0,86.0
311,108.15783525,108.37494039375,61.0,95.0
312,107.63151975,108.5306420625,53.0,55.0
313,108.68415075,108.98020321874999,53.0,36.0
314,107.368362,108.99336110624999,46.0,73.0
315,108.94730849999999,109.45388716875,61.0,70.0
316,108.420993,109.46923803749999,65.0,99.0
317,109.21046625,109.47581698124999,58.0,71.0
318,109.9999395,110.33985159375,56.0,77.0
319,110.26309725,110.51309711249999,60.0,78.0
320,109.73678174999999,110.62493915625,51.0,56.0
321,110.78941275,110.95827230625,51.0,48.0
322,109.473624,110.98458808125,44.0,74.0
323,110.52625499999999,111.50213165625,63.0,93.0
324,111.0525705,111.53283339375,60.0,72.0
325,111.31572824999999,111.578886,56.0,61.0
326,112.10520149999999,112.78721866875,54.0,72.0
327,112.89467475,113.0744992125,54.0,59.0
328,112.36835925,113.219235975,58.0,65.0
329,111.578886,113.53721825625,42.0,69.0
330,113.1578325,113.6709901125,61.0,81.0
331,113.42099025,113.6797620375,58.0,78.0
332,112.631517,113.69949886875,66.0,96.0
333,111.84204375,113.73458656875,49.0,59.0
334,114.2104635,114.53721770625,56.0,77.0
335,114.47362125,114.72142813125,60.0,86.0
336,113.94730575,114.84862104375,51.0,44.0
337,114.99993675,115.2587085375,51.0,53.0
338,113.684148,115.30037518125,44.0,73.0
339,114.736779,115.77186615,63.0,99.0
340,115.2630945,115.78721701875,60.0,79.0
341,115.52625225,115.80695385,56.0,69.0
342,116.57888325,116.87932168125,56.0,68.0
343,116.3157255,116.89467255,53.0,72.0
344,115.78941,117.2411635875,41.0,78.0
345,116.05256775,117.28283023125,48.0,45.0
346,116.842041,117.4385319,60.0,99.0
347,117.10519875,117.5920405875,53.0,77.0
348,117.3683565,117.68853176249999,56.0,81.0
349,117.63151425,117.88809305625,60.0,85.0
350,118.4209875,118.77844344374999,58.0,72.0
351,118.68414525,118.97581175625,61.0,83.0
352,118.15782975,119.113969575,53.0,55.0
353,119.21046075,119.43633781875,53.0,43.0
354,117.894672,119.5130921625,46.0,63.0
355,118.947303,119.920986675,65.0,93.0
356,119.4736185,119.96265331875,61.0,93.0
357,119.73677624999999,119.999934,58.0,58.0
358,120.52624949999999,121.17537195,54.0,78.0
359,120.78940725,121.19072281875,58.0,63.0
360,121.31572274999999,121.52844193125,54.0,76.0
361,119.999934,121.92756451875,42.0,77.0
362,121.5788805,121.9429153875,58.0,79.0
363,121.052565,122.08765215,66.0,95.0
364,121.84203825,122.11835388749999,61.0,72.0
365,120.26309175,122.1271258125,49.0,46.0
366,122.6315115,122.9867744625,56.0,76.0
367,122.89466924999999,123.16221296249999,60.0,79.0
368,122.36835375,123.46703735625,51.0,54.0
369,122.10519599999999,123.50651101875,44.0,71.0
370,123.6841425,124.13808961875,60.0,77.0
371,123.157827,124.16440539375,63.0,97.0
372,123.94730025,124.20387905625,56.0,61.0
373,124.7367735,125.342036325,49.0,71.0
374,124.99993125,125.359580175,56.0,67.0
375,125.263089,125.84861499375,61.0,100.0
376,124.210458,126.1008078375,37.0,70.0
377,125.52624675,128.10299971875,49.0,72.0
378,126.31572,128.14247338125,37.0,59.0
379,124.47361575,128.18633300625,44.0,54.0
380,125.7894045,128.254315425,56.0,70.0
381,126.31572,128.3508066,61.0,72.0
382,126.05256225,128.3551925625,65.0,77.0
383,129.473613,130.66659479999998,54.0,55.0
384,129.473613,131.3376470625,61.0,72.0
385,129.9999285,131.6622082875,58.0,58.0
386,131.0525595,131.71045387499998,54.0,47.0
387,128.420982,132.30913775625,42.0,86.0
388,128.9472975,132.44071663124998,49.0,54.0
389,132.1051905,132.57668146875,58.0,66.0
390,131.578875,132.62492705625,61.0,89.0
391,130.526244,132.64685686875,66.0,70.0
392,133.1578215,134.25431212499998,53.0,62.0
393,132.631506,134.66439961875,46.0,75.0
394,134.2104525,134.6972943375,58.0,74.0
395,133.684137,134.710452225,61.0,79.0
396,133.684137,134.71922415,65.0,79.0
397,135.2630835,136.0043111625,51.0,63.0
398,136.05255675,136.26088996875,51.0,29.0
399,134.73676799999998,136.76088969375,44.0,78.0
400,136.31571449999998,136.79159143125,56.0,74.0
401,135.789399,136.80474931875,60.0,68.0
402,135.789399,136.815714225,63.0,65.0
403,137.3683455,138.12930999374998,49.0,38.0
404,137.89466099999999,138.4341343875,61.0,81.0
405,138.4209765,138.4341343875,61.0,50.0
406,137.89466099999999,138.76527455625,58.0,77.0
407,137.89466099999999,139.324484775,54.0,34.0
408,138.947292,139.84202835,66.0,72.0
409,138.947292,139.84860729375,61.0,72.0
410,138.947292,139.87711604999998,58.0,60.0
411,140.5262385,141.0043084125,58.0,65.0
412,139.999923,141.00650139375,61.0,82.0
413,139.999923,141.02843120625,66.0,82.0
414,139.47360749999999,141.03720313125,54.0,55.0
415,136.84203,141.05036101875,42.0,86.0
416,138.4209765,141.05036101875,49.0,43.0
417,141.5788695,142.32229014375,44.0,44.0
418,141.052554,142.3507989,37.0,79.0
419,142.105185,142.63807944375,49.0,60.0
420,142.6315005,143.1929037,56.0,89.0
421,142.105185,143.2499212125,65.0,88.0
422,142.36834275,143.25650015624998,61.0,63.0
423,143.6841315,144.6534292125,53.0,56.0
424,143.157816,144.6665871,48.0,69.0
425,144.210447,145.31570955,65.0,75.0
426,144.210447,145.33544638125,68.0,71.0
427,144.7367625,145.3814989875,60.0,72.0
428,145.7893935,146.65123513125,53.0,52.0
429,145.263078,146.75649823125,46.0,69.0
430,146.315709,147.44070838125,65.0,89.0
431,147.10518224999998,147.44948030625,58.0,74.0
432,146.8420245,147.46263819375,61.0,70.0
433,147.36834,148.8464093625,41.0,71.0
434,147.63149775,148.956058425,48.0,59.0
435,147.8946555,149.01088295625,53.0,50.0
436,148.420971,149.51088268125,60.0,82.0
437,148.9472865,149.57228615625,56.0,77.0
438,149.473602,151.17754843125,42.0,79.0
439,149.9999175,151.552548225,49.0,56.0
440,150.526233,151.640267475,61.0,93.0
441,151.0525485,151.6490394,58.0,83.0
442,151.578864,153.24552975,44.0,69.0
443,152.1051795,153.684126,51.0,59.0
444,153.1578105,153.68631898125,60.0,69.0
445,152.631495,153.70166985,63.0,97.0
446,153.684126,154.00210828125,65.0,74.0
447,153.94728375,154.18193274375,61.0,78.0
448,154.2104415,154.54158166874998,65.0,78.0
449,154.47359925,154.72579209375,61.0,73.0
450,154.736757,155.0481603375,65.0,81.0
451,154.736757,155.0481603375,65.0,89.0
452,154.2104415,155.2235988375,53.0,59.0
453,154.99991475,155.2586865375,61.0,87.0
454,155.2630725,155.59421266875,65.0,80.0
455,153.684126,155.7148266375,46.0,65.0
456,155.2630725,155.798159925,61.0,72.0
457,155.52623025,155.798159925,61.0,83.0
458,155.789388,156.08982643125,63.0,58.0
459,156.05254575,156.38368591875,61.0,64.0
460,156.31570349999998,156.62491385625,63.0,64.0
461,156.57886125,156.868334775,61.0,80.0
462,156.31570349999998,156.938510175,56.0,57.0
463,156.842019,157.1621942625,63.0,69.0
464,156.842019,157.1621942625,63.0,96.0
465,157.10517675,157.42096605,61.0,73.0
466,155.789388,157.44070288125,44.0,78.0
467,157.3683345,157.657808025,63.0,74.0
468,157.3683345,157.89464999999998,56.0,79.0
469,157.63149225,157.89684298125,61.0,65.0
470,157.89464999999998,158.1709656375,65.0,78.0
471,158.15780775,158.45824618125,61.0,77.0
472,158.4209655,158.71921095,65.0,79.0
473,158.68412325,158.9604388875,61.0,80.0
474,158.947281,158.9604388875,61.0,90.0
475,158.947281,159.22578961874999,65.0,81.0
476,159.21043875,159.51526314375,61.0,80.0
477,157.89464999999998,159.727982325,42.0,69.0
478,159.47359649999999,159.79157878125,65.0,68.0
479,158.4209655,159.85736821875,49.0,48.0
480,159.73675425,159.89245591875,61.0,79.0
481,159.47359649999999,159.91219275,58.0,69.0
482,159.999912,160.2762276375,63.0,75.0
483,160.26306975,160.58982395625,61.0,80.0
484,160.5262275,160.780613325,63.0,69.0
485,160.5262275,161.0481570375,58.0,66.0
486,159.999912,161.05473598125,46.0,71.0
487,160.78938525,161.1007885875,61.0,77.0
488,161.052543,161.3727182625,63.0,70.0
489,161.31570075,161.59420936875,61.0,76.0
490,161.052543,161.692893525,44.0,70.0
491,161.5788585,161.86613904375,63.0,80.0
492,161.84201625,162.096402075,61.0,78.0
493,161.5788585,162.2104371,56.0,76.0
494,162.105174,162.4341211875,65.0,85.0
495,162.36833175,162.675349125,61.0,76.0
496,162.6314895,162.9472788,65.0,79.0
497,162.89464725,163.1621909625,61.0,74.0
498,163.157805,163.1621909625,61.0,90.0
499,162.6314895,163.2323663625,58.0,60.0
500,163.157805,163.52841883125,65.0,78.0
501,163.42096275,163.7192082,61.0,77.0
502,162.105174,163.94947123125,46.0,74.0
503,163.6841205,164.0042957625,65.0,78.0
504,163.94727825,164.1358746375,61.0,81.0
505,163.6841205,164.2806114,58.0,67.0
506,164.210436,164.499909525,63.0,47.0
507,164.47359375,164.78280410624998,61.0,77.0
508,164.7367515,165.0042952125,63.0,76.0
509,164.99990925,165.28280383125,61.0,76.0
510,165.263067,165.56789139375,63.0,78.0
511,165.263067,165.56789139375,63.0,95.0
512,165.52622475,165.81350529374998,61.0,75.0
513,165.7893825,166.09859285625,63.0,77.0
514,164.210436,166.15999633125,44.0,73.0
515,165.7893825,166.30911905624998,60.0,69.0
516,164.7367515,166.315698,56.0,61.0
517,166.05254025,166.32227694374998,61.0,78.0
518,167.368329,167.710434075,54.0,49.0
519,166.315698,167.84420593125,42.0,67.0
520,167.368329,167.973591825,61.0,79.0
521,166.8420135,168.41438105625,49.0,62.0
522,167.8946445,168.42096,58.0,55.0
523,168.42096,170.026222275,44.0,73.0
524,168.42096,170.394643125,56.0,66.0
525,168.42096,170.45823958124998,60.0,58.0
526,168.42096,170.4867483375,63.0,70.0
527,171.0525375,171.66437926875,56.0,86.0
528,171.31569525,171.73016870625,61.0,56.0
529,171.84201075,172.01744925,56.0,48.0
530,170.526222,172.05253695,49.0,82.0
531,171.578853,172.6270980375,68.0,97.0
532,172.1051685,172.6621857375,65.0,81.0
533,172.36832625,172.74332604375,61.0,51.0
534,173.1577995,173.82665878125,53.0,72.0
535,172.631484,174.16876385625,41.0,63.0
536,172.89464175,174.19069366875,48.0,42.0
537,173.42095725,174.20385155625,60.0,61.0
538,173.94727275,174.7060442625,53.0,56.0
539,173.684115,174.77841264375,69.0,99.0
540,174.2104305,174.78279860625,65.0,58.0
541,174.47358825,174.8727108375,60.0,72.0
542,175.2630615,175.675341975,58.0,71.0
543,174.99990375,175.84200855,53.0,40.0
544,175.52621925,175.84420153125,61.0,61.0
545,176.05253475,176.3200784625,53.0,52.0
546,174.736746,176.4165696375,46.0,68.0
547,175.789377,176.81349924375,65.0,85.0
548,176.57885025,176.83762203749998,58.0,68.0
549,176.31569249999998,176.84858694375,61.0,58.0
550,177.3683235,177.7323583875,56.0,73.0
551,177.10516575,177.94727054999998,51.0,41.0
552,177.63148125,177.96042843749998,60.0,73.0
553,178.15779675,178.35297208125,51.0,59.0
554,176.842008,178.40341064999998,44.0,63.0
555,178.4209545,178.87490161875,60.0,74.0
556,177.89463899999998,178.90121739375,63.0,93.0
557,178.68411225,179.0130594375,56.0,72.0
558,179.47358549999998,180.09419919375,49.0,68.0
559,179.73674325,180.37928675625,56.0,66.0
560,178.94727,180.44069023125,37.0,66.0
561,179.21042775,180.48016389375,44.0,56.0
562,180.26305875,181.0042864125,49.0,66.0
563,180.78937425,181.0306021875,56.0,79.0
564,180.5262165,181.05472498125,61.0,75.0
565,179.999901,181.06568988749999,65.0,90.0
566,181.5788475,182.2235839875,53.0,76.0
567,181.05253199999999,182.61612763125,41.0,70.0
568,181.31568975,182.61612763125,48.0,44.0
569,181.84200525,182.68630303125,60.0,65.0
570,182.36832075,183.12051331875,53.0,72.0
571,182.6314785,183.17533785,65.0,81.0
572,182.89463625,183.19946064375,60.0,73.0
573,182.105163,183.219197475,68.0,96.0
574,183.6841095,184.0349865,58.0,81.0
575,183.94726725,184.2411267375,61.0,72.0
576,183.42095175,184.2586705875,53.0,48.0
577,184.47358275,184.727968575,53.0,39.0
578,183.157794,184.745512425,46.0,71.0
579,184.210425,185.24770513125,65.0,96.0
580,184.99989825,185.28279283125,58.0,70.0
581,184.7367405,185.28717879375,61.0,66.0
582,185.7893715,186.17314321875,56.0,85.0
583,186.05252925,186.33323085,60.0,79.0
584,185.52621375,186.40340625,51.0,58.0
585,186.57884475,186.9253357875,51.0,61.0
586,185.263056,186.93630069374998,44.0,69.0
587,186.8420025,187.38586185,60.0,79.0
588,186.315687,187.41437060625,63.0,99.0
589,187.10516024999998,187.4253355125,56.0,82.0
590,187.8946335,188.54594893125,54.0,74.0
591,188.15779125,188.81349264375,58.0,71.0
592,188.68410674999998,188.98893114375,54.0,78.0
593,187.368318,189.28717659375,42.0,68.0
594,188.420949,189.499895775,65.0,85.0
595,187.63147575,189.5130536625,49.0,56.0
596,189.21042225,189.52840453125,58.0,59.0
597,188.9472645,189.53279049374999,61.0,61.0
598,190.26305324999998,190.59419341875,60.0,75.0
599,189.9998955,190.6358600625,56.0,88.0
600,190.78936875,190.95384234374998,56.0,78.0
601,189.73673775,190.96700023124998,51.0,61.0
602,189.47358,191.0393686125,44.0,72.0
603,190.526211,191.078842275,63.0,100.0
604,191.0525265,191.5656841125,60.0,86.0
605,191.31568425,191.62050864375,63.0,68.0
606,192.1051575,192.7586659125,53.0,75.0
607,192.36831525,193.1621744625,56.0,58.0
608,191.578842,193.16436744375,41.0,81.0
609,191.84199974999999,193.17313936875,48.0,57.0
610,192.89463075,193.5569110875,53.0,66.0
611,193.1577885,193.684104,60.0,85.0
612,193.42094625,193.6884899625,56.0,93.0
613,192.631473,193.78717411875,65.0,96.0
614,194.2104195,194.5963842,58.0,86.0
615,194.47357725,194.7411209625,61.0,88.0
616,193.94726175,194.80033145625,53.0,77.0
617,194.99989275,195.2060329875,53.0,39.0
618,193.684104,195.271822425,46.0,76.0
619,195.2630505,195.6797169375,61.0,93.0
620,194.736735,195.69506780625,65.0,97.0
621,195.52620825,195.81348879375,58.0,69.0
622,196.3156815,196.9472601,51.0,69.0
623,195.789366,197.21041785,39.0,75.0
624,196.05252375,197.2148038125,46.0,65.0
625,196.57883925,197.23015468124999,58.0,58.0
626,197.10515475,197.4867334875,51.0,66.0
627,196.841997,197.8595403,66.0,93.0
628,197.3683125,197.87489116875,63.0,93.0
629,197.63147025,197.89462799999998,58.0,76.0
630,198.4209435,198.80032925625,56.0,79.0
631,198.68410125,198.9604168875,60.0,76.0
632,198.15778575,199.07006595,51.0,40.0
633,199.21041675,199.36611841875,51.0,41.0
634,197.89462799999998,199.41874996875,44.0,75.0
635,199.47357449999998,199.8814690125,60.0,76.0
636,198.947259,199.91874969375,63.0,96.0
637,199.73673225,200.02401279375,56.0,69.0
638,200.5262055,201.09418764375,49.0,70.0
639,200.78936325,201.377082225,56.0,59.0
640,199.99989,201.99330995625,37.0,70.0
641,200.26304775,202.105152,44.0,41.0
642,201.31567875,202.105152,49.0,71.0
643,201.84199425,202.105152,56.0,73.0
644,201.5788365,202.105152,61.0,71.0
645,201.05252099999998,202.105152,65.0,89.0
646,202.105152,202.48892371875,60.0,65.0
647,202.105152,202.50208160625,56.0,66.0
648,202.105152,202.50208160625,63.0,60.0
649,202.63146749999999,202.97576555625,56.0,66.0
650,202.63146749999999,203.0305900875,63.0,66.0
651,202.63146749999999,203.0393620125,60.0,67.0
652,202.63146749999999,203.38366006875,51.0,40.0
653,203.157783,203.5393617375,56.0,92.0
654,203.157783,203.54374769999998,63.0,89.0
655,203.157783,203.55032664375,60.0,92.0
656,202.105152,204.03716848125,44.0,69.0
657,203.42094075,204.14243158125,51.0,52.0
658,203.6840985,204.17751928125,60.0,107.0
659,203.6840985,204.1884841875,63.0,97.0
660,203.6840985,204.201642075,56.0,97.0
661,204.99988725,205.42093965,49.0,68.0
662,204.7367295,205.7411149125,44.0,38.0
663,204.210414,205.75207981875,37.0,75.0
664,205.52620275,206.05471123125,49.0,61.0
665,205.263045,206.26962339375,65.0,96.0
666,205.7893605,206.28278128125,61.0,83.0
667,206.05251825,206.3112900375,56.0,73.0
668,206.8419915,207.2323421625,56.0,83.0
669,207.10514925,207.3990087375,60.0,78.0
670,206.57883375,207.464798175,51.0,43.0
671,206.315676,208.20163987499998,44.0,73.0
672,207.8946225,208.42313098124998,60.0,90.0
673,208.15778025,208.43190290625,56.0,83.0
674,207.368307,208.4340958875,63.0,97.0
675,207.63146475,208.47137656875,51.0,59.0
676,208.9472535,209.306902425,58.0,79.0
677,209.21041125,209.45383216874998,61.0,85.0
678,208.68409574999998,209.57225315624999,53.0,56.0
679,209.73672675,210.26084926875,53.0,50.0
680,208.420938,210.27620013749998,46.0,76.0
681,210.26304224999998,210.53277894375,58.0,39.0
682,209.9998845,210.55470875625,61.0,69.0
683,209.473569,210.57225260625,65.0,90.0
684,211.31567325,211.692866025,60.0,77.0
685,211.0525155,211.86611154375,56.0,83.0
686,210.5262,212.08102370625,44.0,68.0
687,210.78935775,212.08760265,51.0,53.0
688,211.84198874999998,212.149006125,63.0,69.0
689,212.36830425,212.6358479625,63.0,55.0
690,212.1051465,212.6533918125,60.0,72.0
691,211.578831,212.65997075625,68.0,97.0
692,213.1577775,213.8200578375,49.0,64.0
693,212.631462,214.12268925,37.0,69.0
694,212.89461975,214.14242608125,44.0,55.0
695,213.42093524999999,214.26304005,56.0,63.0
696,213.94725075,214.36830315,49.0,61.0
697,213.684093,214.7016363,65.0,93.0
698,214.2104085,214.74330294375,61.0,86.0
699,214.47356625,214.7674257375,56.0,72.0
700,215.2630395,215.59637265,56.0,77.0
701,215.52619725,215.8112848125,60.0,79.0
702,214.99988175,215.91435493125,51.0,42.0
703,214.736724,216.63803874375,44.0,70.0
704,216.3156705,216.8288281125,60.0,86.0
705,216.05251275,216.83540705625,51.0,71.0
706,215.789355,216.83979301875,63.0,95.0
707,216.57882825,216.84856494375,56.0,88.0
708,217.3683015,217.7060206125,58.0,86.0
709,217.63145925,217.84856439375,61.0,95.0
710,217.10514375,218.0042660625,53.0,55.0
711,218.15777475,218.45382721875,53.0,36.0
712,216.841986,218.46698510625,46.0,73.0
713,218.4209325,218.92751116875,61.0,70.0
714,217.89461699999998,218.9428620375,65.0,99.0
715,218.68409025,218.94944098125,58.0,71.0
716,219.47356349999998,219.81347559374998,56.0,77.0
717,219.73672125,219.9867211125,60.0,78.0
718,219.21040575,220.09856315625,51.0,56.0
719,220.26303675,220.43189630625,51.0,48.0
720,218.947248,220.45821208125,44.0,74.0
721,219.999879,220.97575565625,63.0,93.0
722,220.5261945,221.00645739375,60.0,72.0
723,220.78935225,221.05250999999998,56.0,61.0
724,221.5788255,222.26084266875,54.0,72.0
725,222.36829875,222.5481232125,54.0,59.0
726,221.84198325,222.692859975,58.0,65.0
727,221.05250999999998,223.01084225625,42.0,69.0
728,222.63145649999998,223.1446141125,61.0,81.0
729,222.89461425,223.15338603749998,58.0,78.0
730,222.105141,223.17312286875,66.0,96.0
731,221.31566775,223.20821056875,49.0,59.0
732,223.6840875,224.01084170625,56.0,77.0
733,223.94724525,224.19505213125,60.0,86.0
734,223.42092975,224.32224504375,51.0,44.0
735,224.47356075,224.73233253749999,51.0,53.0
736,223.157772,224.77399918125,44.0,73.0
737,224.21040299999999,225.24549015,63.0,99.0
738,224.7367185,225.26084101875,60.0,79.0
739,224.99987625,225.28057785,56.0,69.0
740,226.05250725,226.35294568125,56.0,68.0
741,225.7893495,226.36829655,53.0,72.0
742,225.263034,226.71478758749998,41.0,78.0
743,225.52619175,226.75645423125,48.0,45.0
744,226.315665,226.9121559,60.0,99.0
745,226.57882275,227.0656645875,53.0,77.0
746,226.8419805,227.1621557625,56.0,81.0
747,227.10513825,227.36171705625,60.0,85.0
748,227.8946115,228.25206744375,58.0,72.0
749,228.15776925,228.44943575624998,61.0,83.0
750,227.63145375,228.587593575,53.0,55.0
751,228.68408474999998,228.90996181875,53.0,43.0
752,227.368296,228.9867161625,46.0,63.0
753,228.420927,229.394610675,65.0,93.0
754,228.9472425,229.43627731875,61.0,93.0
755,229.21040025,229.473558,58.0,58.0
756,229.9998735,230.64899595,54.0,78.0
757,230.26303124999998,230.66434681875,58.0,63.0
758,230.78934675,231.00206593125,54.0,76.0
759,229.473558,231.40118851875,42.0,77.0
760,231.0525045,231.4165393875,58.0,79.0
761,230.526189,231.56127615,66.0,95.0
762,231.31566225,231.5919778875,61.0,72.0
763,229.73671575,231.6007498125,49.0,46.0
764,232.1051355,232.4603984625,56.0,76.0
765,232.36829325,232.6358369625,60.0,79.0
766,231.84197774999998,232.94066135625,51.0,54.0
767,231.57882,232.98013501875,44.0,71.0
768,233.1577665,233.61171361875,60.0,77.0
769,232.631451,233.63802939375,63.0,97.0
770,233.42092424999998,233.67750305625,56.0,61.0
771,234.2103975,234.88802870625,44.0,66.0
772,234.736713,235.60732655625,61.0,95.0
773,233.684082,235.7498703375,37.0,96.0
774,235.2630285,235.78276505624999,44.0,41.0
775,234.736713,235.90995796875,49.0,71.0
776,235.789344,236.12487013125,65.0,74.0
777,235.789344,236.15118590625,61.0,89.0
778,236.3156595,236.73890488125,58.0,86.0
779,236.3156595,236.73890488125,65.0,90.0
780,236.3156595,236.76083469374998,62.0,96.0
781,236.3156595,236.7717996,46.0,79.0
782,236.3156595,236.78715046874999,53.0,75.0
783,236.841975,236.97136089375,46.0,64.0
784,236.841975,236.97136089375,53.0,55.0
785,236.841975,236.97136089375,58.0,69.0
786,236.841975,236.9779398375,65.0,69.0
787,236.841975,236.991097725,62.0,74.0
788,237.10513275,237.2279397,46.0,66.0
789,237.10513275,237.236711625,53.0,60.0
790,237.10513275,237.236711625,65.0,66.0
791,237.10513275,237.24548355,58.0,65.0
792,237.10513275,237.2586414375,62.0,68.0
793,237.3682905,237.4954834125,46.0,79.0
794,237.3682905,237.49767639375,53.0,75.0
795,237.3682905,237.50425533749998,65.0,81.0
796,237.3682905,237.5086413,58.0,85.0
797,237.3682905,237.51741322499998,62.0,88.0
798,237.63144825,237.8551323375,62.0,102.0
799,237.63144825,237.87486916875,65.0,93.0
800,237.63144825,237.8814481125,46.0,83.0
801,237.63144825,237.88364109375,58.0,89.0
802,237.63144825,237.8902200375,53.0,85.0
803,238.4209215,239.04592115625,51.0,92.0
804,238.68407925,239.26960524375,58.0,82.0
805,237.894606,239.3332017,39.0,79.0
806,238.15776375,239.36171045625,46.0,67.0
807,239.21039475,239.38583325,51.0,96.0
808,239.47355249999998,239.8463593125,63.0,71.0
809,238.947237,240.05030656875,67.0,122.0
810,239.73671025,240.22574506875,58.0,97.0
811,240.78934125,241.13144632499998,62.0,95.0
812,240.26302575,241.19504278125,50.0,72.0
813,240.5261835,241.28276203125,58.0,96.0
814,239.999868,241.62048114375,38.0,89.0
815,241.31565675,241.72574424375,50.0,67.0
816,241.5788145,242.03714758125,62.0,100.0
817,241.05249899999998,242.10293701875,67.0,122.0
818,241.84197225,242.1402177,58.0,90.0
819,242.89460325,243.18626975625,63.0,72.0
820,242.63144549999998,243.254252175,60.0,86.0
821,242.36828775,243.31565565,55.0,69.0
822,243.42091875,243.79591854375,55.0,69.0
823,242.10513,244.05249735,48.0,76.0
824,243.157761,244.12925169375,67.0,127.0
825,243.6840765,244.1358306375,63.0,96.0
826,243.94723425,244.28276038125,60.0,86.0
827,244.47354975,244.83977761875,58.0,75.0
828,244.7367075,245.12267219999998,62.0,88.0
829,244.99986525,245.40556678125,58.0,78.0
830,245.52618075,245.9340752625,53.0,66.0
831,244.21039199999998,246.01521556875,46.0,73.0
832,245.78933849999999,246.2147768625,62.0,97.0
833,245.263023,246.24328561875,65.0,99.0
834,246.05249625,246.3507417,58.0,79.0
835,246.8419695,247.5217936875,51.0,89.0
836,247.10512725,247.6621444875,58.0,78.0
837,246.315654,247.97574080625,39.0,88.0
838,246.57881175,247.98231975,46.0,43.0
839,247.63144275,248.12267055,51.0,74.0
840,247.8946005,248.28714414375,63.0,85.0
841,248.15775825,248.420916,58.0,90.0
842,247.368285,248.420916,67.0,127.0
843,248.68407375,249.52398556875,50.0,43.0
844,249.21038925,249.55468730625,62.0,82.0
845,248.9472315,249.7761784125,58.0,76.0
846,248.420916,250.27837111875,38.0,93.0
847,249.473547,250.42310788125,67.0,112.0
848,249.73670475,250.45380961875,50.0,69.0
849,249.9998625,250.46696750625,62.0,112.0
850,250.26302024999998,250.5305639625,58.0,95.0
851,251.31565125,251.58977390625,63.0,48.0
852,251.0524935,251.66652825,60.0,67.0
853,250.78933575,251.72135278125,55.0,85.0
854,251.84196674999998,252.08100170625,55.0,90.0
855,250.526178,252.13363325625,48.0,83.0
856,251.578809,252.32661560625,67.0,117.0
857,252.1051245,252.61170316874998,63.0,85.0
858,252.36828225,252.6796855875,60.0,90.0
859,253.1577555,253.63801839375,58.0,75.0
860,253.42091324999998,253.6489833,62.0,82.0
861,252.89459775,253.745474475,53.0,69.0
862,253.94722875,254.12266725,53.0,68.0
863,252.63144,254.15556196875,46.0,86.0
864,253.684071,254.70380728125,65.0,96.0
865,254.47354425,254.7060002625,58.0,75.0
866,254.2103865,254.7060002625,62.0,99.0
867,255.2630175,255.8638943625,56.0,89.0
868,255.52617525,256.28275378125,63.0,83.0
869,256.05249075,256.37924495625,56.0,90.0
870,254.736702,256.67749040625,44.0,82.0
871,256.3156485,256.79591139375,68.0,93.0
872,254.99985974999998,256.80906928125,51.0,72.0
873,255.789333,256.841964,72.0,96.0
874,256.57880625,256.89459555,63.0,85.0
875,257.36827949999997,257.99327915624997,58.0,97.0
876,257.63143725,258.008630025,65.0,89.0
877,257.10512175,258.01082300625,53.0,79.0
878,258.15775275,258.33538423125,53.0,71.0
879,256.841964,258.34854211875,46.0,74.0
880,258.4209105,258.46257714374997,65.0,31.0
881,257.894595,258.48889291874997,70.0,93.0
882,258.4209105,258.94064705625,74.0,112.0
883,258.68406825,258.9516119625,70.0,81.0
884,259.73669925,260.05248855,62.0,96.0
885,259.21038375,260.10731308124997,55.0,66.0
886,259.4735415,260.148979725,58.0,76.0
887,258.947226,260.42310238125,43.0,90.0
888,260.26301474999997,260.5656461625,55.0,96.0
889,260.5261725,260.94503191875,62.0,117.0
890,259.999857,261.01520731875,67.0,117.0
891,260.78933025,261.04152309375,58.0,93.0
892,261.84196125,262.096347075,63.0,95.0
893,261.31564575,262.2103821,55.0,83.0
894,261.5788035,262.22134700624997,60.0,79.0
895,262.36827675,262.68625903125,55.0,95.0
896,261.052488,262.81345194375,48.0,81.0
897,262.89459225,263.11608335625,60.0,93.0
898,262.6314345,263.14239913125,63.0,100.0
899,262.105119,263.15775,67.0,117.0
900,263.94722325,264.289328325,60.0,74.0
901,263.6840655,264.33538093125,56.0,93.0
902,264.47353875,264.745468425,56.0,81.0
903,264.210381,264.80029295625,63.0,96.0
904,263.15775,265.0568717625,44.0,92.0
905,264.7366965,265.11608225624997,60.0,92.0
906,263.42090774999997,265.2235383375,51.0,88.0
907,264.99985425,265.26520498125,63.0,97.0
908,265.7893275,266.1095027625,58.0,92.0
909,266.05248525,266.2805553,62.0,93.0
910,265.52616975,266.40994119375,53.0,72.0
911,266.57880074999997,266.77836204375,53.0,55.0
912,265.263012,266.87046725625,46.0,72.0
913,266.8419585,267.34415120625,62.0,99.0
914,266.315643,267.4077476625,65.0,90.0
915,267.10511625,267.42309853125,58.0,83.0
916,267.8945895,268.4779225125,51.0,82.0
917,268.15774725,268.58757157499997,58.0,92.0
918,267.368274,269.24765893125,39.0,73.0
919,268.68406275,271.19064031875,51.0,75.0
920,267.63143175,271.21695609375,46.0,52.0
921,269.47353599999997,271.27835956875,63.0,76.0
922,268.420905,271.28055255,67.0,99.0
923,269.21037825,271.2937104375,58.0,55.0
924,268.9472205,271.3112542875,65.0,73.0
925,269.47353599999997,271.40116651875,39.0,47.0
926,271.578798,273.1621304625,44.0,85.0
927,272.1051135,273.67528807499997,51.0,52.0
928,272.63142899999997,273.69502490625,56.0,59.0
929,272.63142899999997,273.798095025,63.0,83.0
930,273.1577445,273.8287967625,60.0,60.0
931,273.68406,275.0524803,46.0,72.0
932,274.2103755,275.096339925,53.0,58.0
933,274.736691,275.8638833625,62.0,76.0
934,275.2630065,275.86826932499997,58.0,49.0
935,274.736691,275.88800615625,65.0,70.0
936,276.57879525,276.9428301375,63.0,60.0
937,276.3156375,277.01081255625,60.0,74.0
938,275.78932199999997,277.76519810625,48.0,69.0
939,276.05247975,277.94502256875,55.0,47.0
940,277.3682685,278.59414501875,62.0,59.0
941,277.63142625,278.605109925,63.0,63.0
942,276.841953,278.76081159375,67.0,82.0
943,278.4208995,279.1445833125,55.0,48.0
944,277.894584,279.4866883875,48.0,58.0
945,278.94721499999997,280.0130038875,67.0,95.0
946,279.4735305,280.05028456875,60.0,56.0
947,280.5261615,281.21256463125,56.0,82.0
948,281.052477,281.6270380875,60.0,40.0
949,281.31563475,281.67747665625,56.0,43.0
950,279.999846,281.991072975,44.0,89.0
951,280.26300375,282.09852905625,51.0,49.0
952,281.84195024999997,282.17747638125,60.0,53.0
953,281.5787925,282.19502023125,63.0,58.0
954,280.78931925,282.23887985625,68.0,99.0
955,282.6314235,283.46256339375,53.0,57.0
956,282.105108,283.56782649375,46.0,78.0
957,283.157739,283.8287912625,65.0,74.0
958,283.157739,283.83975616875,62.0,90.0
959,283.6840545,284.1007209375,58.0,72.0
960,284.21037,289.21036725,48.0,89.0
961,284.47352775,289.473525,36.0,69.0
962,284.47352775,289.473525,43.0,96.0
963,284.21037,289.473525,60.0,53.0
964,284.47352775,289.473525,67.0,102.0
965,284.341948875,289.605103875,63.0,75.0
