,start,end,pitch,velocity
0,29.99140886458333,30.38866874791666,71.0,117.0
1,30.40236736458333,30.71572322083333,66.0,107.0
2,30.81332586458333,31.068462599999997,69.0,113.0
3,31.22428436458333,31.48627040833333,71.0,116.0
4,31.63524286458333,32.03250274791666,71.0,114.0
5,32.86811836458333,33.18661120208333,69.0,116.0
6,33.27907686458333,33.52393963749999,71.0,113.0
7,33.69003536458333,34.02393914583333,74.0,116.0
8,34.10099386458333,34.39722645,73.0,119.0
9,34.51195236458333,34.77565073541666,69.0,113.0
10,34.92291086458333,35.37154056041666,71.0,117.0
11,36.56674486458333,36.984552672916664,66.0,113.0
12,36.97770336458333,37.33386739791666,69.0,100.0
13,37.38866186458333,37.737976589583326,71.0,108.0
14,37.799620364583326,38.19859257499999,74.0,100.0
15,38.210578864583326,38.589003149999996,73.0,110.0
16,39.032495864583325,39.37838593541666,69.0,116.0
17,39.44345436458333,39.78763210833333,64.0,108.0
18,39.85441286458333,40.496535520833326,66.0,96.0
19,43.14208086458333,43.52221747708333,71.0,116.0
20,43.55303936458333,43.92461434166666,66.0,110.0
21,43.96399786458333,44.23797019791666,71.0,113.0
22,44.374956364583326,44.74139436041666,78.0,108.0
23,44.785914864583326,45.284202045833325,76.0,117.0
24,46.429748864583324,46.844132018749995,76.0,113.0
25,46.840707364583324,47.23111793958333,74.0,108.0
26,47.25166586458333,47.60269291666666,76.0,113.0
27,47.66262436458333,48.02906236041666,78.0,110.0
28,48.07358286458333,48.65919872708333,74.0,113.0
29,49.71741686458333,50.04789599166666,66.0,114.0
30,50.12837536458333,50.53590921041666,69.0,100.0
31,50.53933386458333,50.87494997291666,71.0,108.0
32,50.950292364583326,51.32186734166666,74.0,114.0
33,51.361250864583326,51.78590798124999,73.0,117.0
34,52.183167864583325,52.489674412499994,74.0,116.0
35,52.594126364583325,53.17118059166666,73.0,113.0
36,53.416043364583324,53.785906014583325,71.0,114.0
37,56.29275286458333,56.69001274791666,71.0,117.0
38,56.70371136458333,57.017067220833326,66.0,107.0
39,57.11466986458333,57.36980659999999,69.0,113.0
40,57.525628364583326,57.787614408333326,71.0,116.0
41,57.936586864583326,58.33384674791666,71.0,114.0
42,59.169462364583325,59.48795520208333,69.0,116.0
43,59.580420864583324,59.82528363749999,71.0,113.0
44,59.991379364583324,60.325283145833325,74.0,116.0
45,60.40233786458332,60.69857044999999,73.0,119.0
46,60.81329636458332,61.07699473541666,69.0,113.0
47,61.22425486458332,61.672884560416655,71.0,117.0
48,62.86808886458333,63.28589667291666,66.0,113.0
49,63.27904736458333,63.635211397916656,69.0,100.0
50,63.69000586458333,64.03932058958333,71.0,108.0
51,64.10096436458332,64.49993657499999,74.0,100.0
52,64.51192286458333,64.89034715,73.0,110.0
53,65.33383986458333,65.67972993541666,69.0,116.0
54,65.74479836458332,66.08897610833333,64.0,108.0
55,66.15575686458332,66.79787952083332,66.0,96.0
56,69.44342486458332,69.82356147708333,71.0,116.0
57,69.85438336458333,70.22595834166665,66.0,110.0
58,70.26534186458332,70.53931419791665,71.0,113.0
59,70.67630036458333,71.04273836041666,78.0,108.0
60,71.08725886458332,71.58554604583333,76.0,117.0
61,72.73109286458332,73.14547601874999,76.0,113.0
62,73.14205136458332,73.53246193958333,74.0,108.0
63,73.55300986458333,73.90403691666666,76.0,113.0
64,73.96396836458332,74.33040636041666,78.0,110.0
65,74.37492686458333,74.96054272708332,74.0,113.0
66,76.01876086458333,76.34923999166665,66.0,114.0
67,76.42971936458332,76.83725321041666,69.0,100.0
68,76.84067786458333,77.17629397291665,71.0,108.0
69,77.25163636458332,77.62321134166666,74.0,114.0
70,77.66259486458333,78.08725198124999,73.0,117.0
71,78.48451186458333,78.7910184125,74.0,116.0
72,78.89547036458332,79.47252459166666,73.0,113.0
73,79.71738736458332,80.08725001458332,71.0,114.0
74,81.77217986458332,82.01190565625,74.0,110.0
75,82.18313836458333,82.43998742708332,76.0,110.0
76,82.59409686458332,83.17971272708333,78.0,117.0
77,83.41601386458332,83.69683550624998,78.0,117.0
78,83.82697236458333,84.09067073541665,81.0,116.0
79,84.23793086458332,84.71909477499999,76.0,117.0
80,85.47080636458332,85.72765542708332,74.0,114.0
81,85.88176486458332,86.38518902708333,76.0,117.0
82,86.70368186458332,86.99306514166666,76.0,117.0
83,87.11464036458332,87.39546200624999,78.0,116.0
84,87.52559886458332,87.99306415833333,71.0,119.0
85,88.75847436458332,88.99648782916665,71.0,117.0
86,89.16943286458333,89.36806280625,76.0,119.0
87,89.58039136458332,89.78929526874998,76.0,117.0
88,89.99134986458333,90.22251402083332,76.0,117.0
89,90.40230836458332,90.65402044583332,78.0,117.0
90,90.81326686458333,91.15573228124998,74.0,119.0
91,91.22422536458332,91.54100587499998,76.0,107.0
92,91.63518386458333,92.00675884166665,81.0,110.0
93,92.04614236458332,92.30641608124999,76.0,116.0
94,92.45710086458332,92.89203194374998,78.0,116.0
95,94.92285186458332,95.22935841249999,78.0,107.0
96,95.33381036458331,95.58723477291666,81.0,114.0
97,95.74476886458332,96.32353541874998,83.0,117.0
98,96.56668586458332,96.91771291666666,83.0,117.0
99,96.97764436458333,97.35435632291666,81.0,116.0
100,97.38860286458332,97.79784903749999,76.0,116.0
101,98.62147836458333,98.97593007083331,74.0,114.0
102,99.03243686458332,99.54613498958332,76.0,113.0
103,99.85435386458332,100.37832595208332,81.0,116.0
104,100.67627086458332,101.13859917708332,78.0,116.0
105,101.49818786458331,101.79784510416665,71.0,117.0
106,101.90914636458332,102.16770775416666,73.0,116.0
107,102.32010486458331,102.86804953124998,74.0,117.0
108,102.73106336458332,103.04099456666665,73.0,116.0
109,103.14202186458331,103.40229558124999,74.0,110.0
110,103.55298036458332,103.77900753958332,78.0,117.0
111,103.96393886458333,104.39030830833332,73.0,117.0
112,104.78585586458333,105.11291033749998,73.0,117.0
113,105.19681436458332,105.36975939999999,66.0,116.0
114,105.60777286458332,106.04270394374998,76.0,119.0
115,106.42968986458332,106.77900458958332,74.0,116.0
116,106.84064836458332,107.20879868749999,73.0,116.0
117,107.25160686458332,107.65914071041665,71.0,117.0
118,108.07352386458332,108.31324965624998,74.0,110.0
119,108.48448236458331,108.74133142708332,76.0,110.0
120,108.89544086458332,109.48105672708331,78.0,117.0
121,109.71735786458332,109.99817950624998,78.0,117.0
122,110.12831636458331,110.39201473541665,81.0,116.0
123,110.53927486458332,111.02043877499999,76.0,117.0
124,111.77215036458333,112.02899942708332,74.0,114.0
125,112.18310886458332,112.68653302708331,76.0,117.0
126,113.00502586458332,113.29440914166665,76.0,117.0
127,113.41598436458332,113.69680600624999,78.0,116.0
128,113.82694286458332,114.29440815833331,71.0,119.0
129,115.05981836458332,115.29783182916665,71.0,117.0
130,115.47077686458331,115.66940680624998,76.0,119.0
131,115.88173536458332,116.09063926874998,76.0,117.0
132,116.29269386458331,116.52385802083332,76.0,117.0
133,116.70365236458332,116.95536444583331,78.0,117.0
134,117.11461086458331,117.45707628124998,74.0,119.0
135,117.52556936458332,117.84234987499998,76.0,107.0
136,117.93652786458331,118.30810284166665,81.0,110.0
137,118.34748636458332,118.60776008124998,76.0,116.0
138,118.75844486458331,119.19337594374998,78.0,116.0
139,121.22419586458332,121.53070241249998,78.0,107.0
140,121.63515436458331,121.88857877291665,81.0,114.0
141,122.04611286458332,122.62487941874998,83.0,117.0
142,122.86802986458332,123.21905691666664,83.0,117.0
143,123.27898836458331,123.65570032291664,81.0,116.0
144,123.68994686458332,124.09919303749999,76.0,116.0
145,124.92282236458331,125.27727407083331,74.0,114.0
146,125.33378086458332,125.84747898958332,76.0,113.0
147,126.15569786458332,126.67966995208332,81.0,116.0
148,126.97761486458332,127.43994317708332,78.0,116.0
149,127.79953186458332,128.09918910416664,71.0,117.0
150,128.2104903645833,128.46905175416666,73.0,116.0
151,128.62144886458333,129.16939353125,74.0,117.0
152,129.03240736458332,129.34233856666665,73.0,116.0
153,129.4433658645833,129.70363958124997,74.0,110.0
154,129.8543243645833,130.08035153958332,78.0,117.0
155,130.26528286458333,130.69165230833332,73.0,117.0
156,131.0871998645833,131.41425433749998,73.0,117.0
157,131.4981583645833,131.6711034,66.0,116.0
158,131.90911686458332,132.34404794374998,76.0,119.0
159,132.7310338645833,133.0803485895833,74.0,116.0
160,133.1419923645833,133.51014268749998,73.0,116.0
161,133.55295086458332,133.96048471041664,71.0,117.0
162,164.78579686458332,165.18305674791665,71.0,117.0
163,165.1967553645833,165.51011122083332,66.0,107.0
164,165.6077138645833,165.86285059999997,69.0,113.0
165,166.01867236458332,166.28065840833332,71.0,116.0
166,166.42963086458332,166.82689074791665,71.0,114.0
167,167.66250636458332,167.98099920208332,69.0,116.0
168,168.07346486458331,168.31832763749998,71.0,113.0
169,168.4844233645833,168.8183271458333,74.0,116.0
170,168.8953818645833,169.19161444999997,73.0,119.0
171,169.30634036458332,169.57003873541663,69.0,113.0
172,169.7172988645833,170.16592856041663,71.0,117.0
173,171.3611328645833,171.77894067291663,66.0,113.0
174,171.7720913645833,172.12825539791663,69.0,100.0
175,172.18304986458332,172.53236458958332,71.0,108.0
176,172.59400836458332,172.992980575,74.0,100.0
177,173.0049668645833,173.38339114999997,73.0,110.0
178,173.82688386458332,174.17277393541664,69.0,116.0
179,174.23784236458332,174.5820201083333,64.0,108.0
180,174.6488008645833,175.2909235208333,66.0,96.0
181,177.9364688645833,178.3166054770833,71.0,116.0
182,178.3474273645833,178.71900234166665,66.0,110.0
183,178.75838586458332,179.03235819791664,71.0,113.0
184,179.1693443645833,179.53578236041665,78.0,108.0
185,179.5803028645833,180.07859004583332,76.0,117.0
186,181.2241368645833,181.63852001874997,76.0,113.0
187,181.63509536458332,182.0255059395833,74.0,108.0
188,182.0460538645833,182.39708091666665,76.0,113.0
189,182.4570123645833,182.82345036041664,78.0,110.0
190,182.8679708645833,183.45358672708332,74.0,113.0
191,184.5118048645833,184.84228399166665,66.0,114.0
192,184.92276336458332,185.33029721041663,69.0,100.0
193,185.3337218645833,185.66933797291665,71.0,108.0
194,185.7446803645833,186.11625534166663,74.0,114.0
195,186.1556388645833,186.58029598124998,73.0,117.0
196,186.9775558645833,187.28406241249996,74.0,116.0
197,187.3885143645833,187.96556859166665,73.0,113.0
198,188.21043136458331,188.5802940145833,71.0,114.0
199,190.2652238645833,190.50494965624998,74.0,110.0
200,190.6761823645833,190.9330314270833,76.0,110.0
201,191.08714086458332,191.6727567270833,78.0,117.0
202,191.9090578645833,192.18987950624998,78.0,117.0
203,192.3200163645833,192.58371473541663,81.0,116.0
204,192.73097486458332,193.21213877499997,76.0,117.0
205,193.9638503645833,194.2206994270833,74.0,114.0
206,194.37480886458331,194.8782330270833,76.0,117.0
207,195.1967258645833,195.48610914166665,76.0,117.0
208,195.60768436458332,195.88850600624997,78.0,116.0
209,196.0186428645833,196.4861081583333,71.0,119.0
210,197.25151836458332,197.48953182916665,71.0,117.0
211,197.6624768645833,197.86110680624998,76.0,119.0
212,198.0734353645833,198.28233926874998,76.0,117.0
213,198.4843938645833,198.7155580208333,76.0,117.0
214,198.89535236458332,199.1470644458333,78.0,117.0
215,199.3063108645833,199.64877628124998,74.0,119.0
216,199.7172693645833,200.03404987499997,76.0,107.0
217,200.1282278645833,200.49980284166665,81.0,110.0
218,200.53918636458332,200.79946008124998,76.0,116.0
219,200.9501448645833,201.38507594374997,78.0,116.0
220,203.41589586458332,203.72240241249997,78.0,107.0
221,203.8268543645833,204.08027877291664,81.0,114.0
222,204.2378128645833,204.81657941874997,83.0,117.0
223,205.05972986458332,205.41075691666663,83.0,117.0
224,205.4706883645833,205.84740032291663,81.0,116.0
225,205.8816468645833,206.29089303749998,76.0,116.0
226,207.1145223645833,207.4689740708333,74.0,114.0
227,207.5254808645833,208.0391789895833,76.0,113.0
228,208.34739786458331,208.8713699520833,81.0,116.0
229,209.1693148645833,209.6316431770833,78.0,116.0
230,209.9912318645833,210.29088910416664,71.0,117.0
231,210.4021903645833,210.66075175416663,73.0,116.0
232,210.8131488645833,211.36109353124996,74.0,117.0
233,211.22410736458332,211.53403856666665,73.0,116.0
234,211.6350658645833,211.89533958124997,74.0,110.0
235,212.0460243645833,212.27205153958332,78.0,117.0
236,212.4569828645833,212.88335230833331,73.0,117.0
237,213.2788998645833,213.60595433749998,73.0,117.0
238,213.6898583645833,213.86280339999996,66.0,116.0
239,214.1008168645833,214.53574794374998,76.0,119.0
240,214.9227338645833,215.2720485895833,74.0,116.0
241,215.3336923645833,215.70184268749998,73.0,116.0
242,215.7446508645833,216.15218471041663,71.0,117.0
243,216.5665678645833,216.80629365624998,74.0,110.0
244,216.9775263645833,217.2343754270833,76.0,110.0
245,217.3884848645833,217.9741007270833,78.0,117.0
246,218.2104018645833,218.49122350624998,78.0,117.0
247,218.6213603645833,218.88505873541664,81.0,116.0
248,219.03231886458332,219.51348277499997,76.0,117.0
249,220.2651943645833,220.5220434270833,74.0,114.0
250,220.67615286458332,221.1795770270833,76.0,117.0
251,221.4980698645833,221.78745314166665,76.0,117.0
252,221.9090283645833,222.18985000624997,78.0,116.0
253,222.3199868645833,222.7874521583333,71.0,119.0
254,223.5528623645833,223.79087582916662,71.0,117.0
255,223.9638208645833,224.16245080624998,76.0,119.0
256,224.3747793645833,224.58368326874998,76.0,117.0
257,224.7857378645833,225.0169020208333,76.0,117.0
258,225.19669636458332,225.4484084458333,78.0,117.0
259,225.6076548645833,225.95012028124998,74.0,119.0
260,226.0186133645833,226.33539387499997,76.0,107.0
261,226.4295718645833,226.80114684166665,81.0,110.0
262,226.84053036458332,227.10080408124998,76.0,116.0
263,227.2514888645833,227.68641994374997,78.0,116.0
264,229.7172398645833,230.02374641249997,78.0,107.0
265,230.1281983645833,230.38162277291664,81.0,114.0
266,230.5391568645833,231.11792341874997,83.0,117.0
267,231.3610738645833,231.71210091666663,83.0,117.0
268,231.7720323645833,232.14874432291663,81.0,116.0
269,232.1829908645833,232.59223703749996,76.0,116.0
270,233.4158663645833,233.7703180708333,74.0,114.0
271,233.8268248645833,234.3405229895833,76.0,113.0
272,234.64874186458331,235.1727139520833,81.0,116.0
273,235.4706588645833,235.9329871770833,78.0,116.0
274,236.2925758645833,236.59223310416664,71.0,117.0
275,236.7035343645833,236.96209575416663,73.0,116.0
276,237.1144928645833,237.66243753124996,74.0,117.0
277,237.5254513645833,237.83538256666662,73.0,116.0
278,237.9364098645833,238.19668358124997,74.0,110.0
279,238.3473683645833,238.5733955395833,78.0,117.0
280,238.7583268645833,239.18469630833332,73.0,117.0
281,239.5802438645833,239.90729833749998,73.0,117.0
282,239.9912023645833,240.16414739999996,66.0,116.0
283,240.4021608645833,240.83709194374998,76.0,119.0
284,241.2240778645833,241.5733925895833,74.0,116.0
285,241.6350363645833,242.00318668749998,73.0,116.0
286,242.0459948645833,242.45352871041663,71.0,117.0
287,244.5117458645833,244.86962222499997,71.0,110.0
288,244.9227043645833,245.22921091249998,73.0,107.0
289,245.3336628645833,245.75318299999998,74.0,108.0
290,245.7446213645833,246.0733881645833,73.0,104.0
291,246.1555798645833,246.50660691666664,74.0,110.0
292,246.5665383645833,247.4603731020833,78.0,104.0
293,247.3884553645833,248.2206463270833,73.0,96.0
294,249.8542063645833,250.19495945416662,73.0,116.0
295,250.2651648645833,250.6453014770833,66.0,113.0
296,250.8816026145833,253.31995638124997,76.0,116.0
297,253.5528328645833,255.14872170624997,74.0,108.0
298,255.1966668645833,255.81824159583329,71.0,116.0
