,start,end,pitch,velocity
0,2.868147864583333,3.345887120833333,62.0,83.0
1,2.457189364583333,3.4315034749999995,57.0,76.0
2,2.046230864583333,3.479448633333333,50.0,87.0
3,3.690064864583333,4.907529420833333,45.0,89.0
4,4.101023364583333,4.991433447916666,52.0,74.0
5,4.5119818645833325,5.373282387499999,57.0,83.0
6,5.3338988645833325,6.613007195833332,52.0,91.0
7,5.744857364583333,6.633555120833332,59.0,86.0
8,6.1558158645833325,7.058212237499999,64.0,82.0
9,6.1558158645833325,7.090746452083333,67.0,86.0
10,7.7996498645833325,8.186635785416666,59.0,78.0
11,7.388691364583332,8.195197420833333,54.0,75.0
12,6.9777328645833325,8.248279560416666,47.0,87.0
13,8.210608364583333,8.693484602083332,66.0,81.0
14,8.210608364583333,8.886977562499998,62.0,81.0
15,9.032525364583332,9.874990289583332,59.0,68.0
16,8.621566864583333,9.916086139583332,52.0,86.0
17,9.443483864583332,10.217455706249998,71.0,72.0
18,9.443483864583332,10.229441995833332,64.0,73.0
19,9.443483864583332,10.239715958333331,67.0,78.0
20,10.676359364583332,11.460605168749998,57.0,75.0
21,10.265400864583333,11.583892718749999,50.0,84.0
22,11.087317864583332,11.886974612499998,62.0,77.0
23,11.087317864583332,11.893823920833333,69.0,79.0
24,11.087317864583332,11.916084172916666,66.0,78.0
25,12.731151864583332,13.18320621458333,57.0,78.0
26,12.320193364583332,13.368137539583332,54.0,79.0
27,11.909234864583333,13.40409640833333,42.0,88.0
28,13.55306886458333,14.237999697916665,54.0,84.0
29,13.55306886458333,14.609574674999998,42.0,84.0
30,13.55306886458333,14.741423860416665,66.0,88.0
31,13.55306886458333,14.772245747916665,58.0,85.0
32,13.142110364583331,14.880122354166664,61.0,86.0
33,14.374985864583332,15.005122231249999,54.0,83.0
34,15.19690286458333,15.727724260416664,67.0,88.0
35,15.19690286458333,15.744847531249999,59.0,88.0
36,15.19690286458333,15.758546147916665,62.0,89.0
37,16.01881986458333,16.530805662499997,59.0,88.0
38,15.19690286458333,16.559915222916665,43.0,89.0
39,16.01881986458333,16.57875082083333,67.0,90.0
40,16.01881986458333,16.734572585416664,62.0,91.0
41,15.60786136458333,16.763682145833332,55.0,76.0
42,16.84073686458333,17.275667943749998,69.0,86.0
43,16.84073686458333,17.296215868749997,61.0,87.0
44,16.84073686458333,17.301352849999997,64.0,91.0
45,17.66265386458333,18.217447839583333,61.0,89.0
46,17.66265386458333,18.219160166666665,69.0,89.0
47,17.66265386458333,18.265392997916663,64.0,91.0
48,16.84073686458333,18.49826948125,45.0,85.0
49,18.484570864583333,19.02395389583333,67.0,87.0
50,18.484570864583333,19.061625091666663,62.0,87.0
51,18.484570864583333,19.089022325,64.0,86.0
52,18.484570864583333,19.107857922916665,59.0,83.0
53,19.30648786458333,19.842446241666664,67.0,88.0
54,19.30648786458333,19.89724070833333,62.0,89.0
55,19.30648786458333,19.909226997916665,59.0,87.0
56,19.30648786458333,19.957172156249996,64.0,88.0
57,18.484570864583333,20.04621316458333,52.0,85.0
58,20.12840486458333,20.597582485416662,66.0,83.0
59,20.12840486458333,20.640390662499996,59.0,86.0
60,20.12840486458333,20.655801606249998,62.0,87.0
61,20.53936336458333,21.27395168333333,54.0,77.0
62,20.12840486458333,21.296211935416665,47.0,87.0
63,20.95032186458333,21.357855710416665,66.0,89.0
64,20.95032186458333,21.534225399999997,59.0,87.0
65,20.95032186458333,21.587307539583332,62.0,90.0
66,21.77223886458333,22.22429321458333,67.0,94.0
67,21.77223886458333,22.299635606249996,59.0,87.0
68,21.77223886458333,22.30134793333333,62.0,89.0
69,22.594155864583332,23.044497887499997,59.0,92.0
70,22.594155864583332,23.05134719583333,67.0,96.0
71,22.594155864583332,23.11299097083333,62.0,100.0
72,21.77223886458333,23.145525185416663,43.0,88.0
73,22.18319736458333,23.263675754166663,55.0,77.0
74,23.41607286458333,23.84244230833333,66.0,80.0
75,23.41607286458333,23.854428597916662,69.0,83.0
76,23.41607286458333,23.869839541666664,61.0,75.0
77,23.82703136458333,24.30477062083333,54.0,73.0
78,24.23798986458333,24.58730458958333,69.0,83.0
79,23.41607286458333,24.614701822916665,42.0,85.0
80,24.23798986458333,24.619838804166662,61.0,85.0
81,24.23798986458333,24.621551131249998,66.0,84.0
82,24.64894836458333,24.999975416666665,54.0,81.0
83,25.05990686458333,25.534221466666665,62.0,82.0
84,25.05990686458333,25.549632410416663,64.0,83.0
85,25.05990686458333,25.549632410416663,67.0,79.0
86,25.05990686458333,25.669495306249996,59.0,75.0
87,25.05990686458333,25.873262229166663,52.0,78.0
88,25.88182386458333,26.438330166666663,57.0,82.0
89,25.88182386458333,26.443467147916664,66.0,87.0
90,25.88182386458333,26.60613822083333,61.0,82.0
91,26.70374086458333,27.136959616666662,59.0,82.0
92,26.70374086458333,27.487986668749997,66.0,84.0
93,26.70374086458333,27.599287929166664,62.0,84.0
94,27.93661636458333,28.205451716666662,66.0,83.0
95,27.93661636458333,28.24483523958333,61.0,86.0
96,27.52565786458333,29.448601179166662,59.0,76.0
97,27.11469936458333,29.460587468749996,54.0,64.0
98,28.34757486458333,29.460587468749996,66.0,85.0
99,28.34757486458333,29.47257375833333,62.0,88.0
100,26.70374086458333,29.48798470208333,47.0,80.0
101,30.81332586458333,32.71058427291666,59.0,77.0
102,30.40236736458333,32.75168012291666,54.0,69.0
103,29.99140886458333,32.81674855208333,47.0,82.0
104,31.22428436458333,33.30476177083333,61.0,72.0
105,31.63524286458333,33.33044667708333,62.0,80.0
106,33.27907686458333,33.33044667708333,62.0,74.0
107,33.07359761458333,33.79619964374999,59.0,56.0
108,33.27907686458333,33.87496668958333,67.0,89.0
109,33.27907686458333,34.13352807916666,43.0,83.0
110,34.10099386458333,34.49140443958333,45.0,71.0
111,34.10099386458333,34.68832205416666,69.0,84.0
112,34.10099386458333,34.700308343749995,61.0,80.0
113,34.10099386458333,34.926335518749994,64.0,79.0
114,34.92291086458333,35.357841943749996,59.0,81.0
115,34.92291086458333,35.57188282916666,62.0,80.0
116,34.92291086458333,35.71058132291666,66.0,79.0
117,34.92291086458333,36.24482737291666,47.0,70.0
118,35.74482786458333,36.320169764583326,59.0,77.0
119,35.33386936458333,36.52736134166666,54.0,71.0
120,36.15578636458333,36.77736109583333,61.0,76.0
121,36.56674486458333,36.96571707499999,66.0,76.0
122,36.56674486458333,36.986264999999996,62.0,82.0
123,36.97770336458333,37.684894449999994,54.0,62.0
124,36.56674486458333,37.71914099166666,47.0,58.0
125,37.38866186458333,37.825305270833326,61.0,83.0
126,38.210578864583326,38.66948252291666,69.0,78.0
127,38.210578864583326,38.70372906458333,64.0,75.0
128,38.210578864583326,38.7122907,61.0,71.0
129,38.210578864583326,39.44174203749999,45.0,76.0
130,38.621537364583325,39.47598857916666,52.0,63.0
131,39.032495864583325,39.84413890208333,57.0,79.0
132,41.08728836458333,41.501671518749994,71.0,81.0
133,40.26537136458333,42.48968424583333,61.0,78.0
134,39.85441286458333,42.570163618749994,54.0,86.0
135,41.49824686458333,42.68146487916666,73.0,85.0
136,40.67632986458333,42.70543745833333,66.0,80.0
137,43.14208086458333,43.63523106458333,66.0,78.0
138,43.14208086458333,43.691737858333326,61.0,78.0
139,43.96399786458333,44.36810705625,59.0,82.0
140,43.14208086458333,44.44173712083333,47.0,81.0
141,43.55303936458333,44.568449324999996,54.0,70.0
142,44.374956364583326,44.794476499999995,62.0,81.0
143,44.785914864583326,45.188311729166664,71.0,86.0
144,44.785914864583326,45.20714732708333,67.0,86.0
145,44.785914864583326,45.21913361666666,64.0,81.0
146,45.196873364583325,45.99139313124999,59.0,65.0
147,44.785914864583326,46.04276294374999,52.0,86.0
148,46.429748864583324,47.29447404166666,69.0,81.0
149,46.429748864583324,47.316734293749995,61.0,75.0
150,45.607831864583325,47.650638074999996,64.0,89.0
151,46.429748864583324,47.69002159791666,45.0,84.0
152,47.25166586458333,47.83385707291666,57.0,80.0
153,46.840707364583324,48.04961028541666,52.0,60.0
154,48.07358286458333,48.47769205624999,59.0,77.0
155,48.07358286458333,48.796184893749995,66.0,80.0
156,48.07358286458333,48.84584237916666,62.0,84.0
157,48.89549986458333,49.21056804791666,59.0,83.0
158,48.48454136458333,49.215705029166664,54.0,75.0
159,48.07358286458333,49.253376225,47.0,76.0
160,49.71741686458333,50.16090957916666,59.0,82.0
161,49.71741686458333,50.16090957916666,67.0,87.0
162,49.71741686458333,50.17460819583333,62.0,78.0
163,49.71741686458333,51.01536079374999,43.0,77.0
164,50.53933386458333,51.017073120833324,59.0,81.0
165,50.53933386458333,51.03419639166666,67.0,87.0
166,50.12837536458333,51.35268922916666,55.0,77.0
167,51.361250864583326,51.78419565416666,64.0,81.0
168,51.361250864583326,51.79275728958333,69.0,86.0
169,51.361250864583326,51.80303125208333,61.0,80.0
170,52.183167864583325,52.63522221458333,61.0,79.0
171,52.183167864583325,52.66946875624999,69.0,80.0
172,51.361250864583326,52.70371529791666,45.0,78.0
173,52.183167864583325,52.736249512499995,64.0,83.0
174,51.772209364583325,52.86809869791666,57.0,66.0
175,53.005084864583324,53.357824243749995,59.0,69.0
176,53.005084864583324,53.594125381249995,62.0,75.0
177,53.005084864583324,53.655769156249995,66.0,81.0
178,54.23796036458332,54.57700112708333,64.0,77.0
179,54.64891886458333,55.52563033124999,66.0,79.0
180,54.64891886458333,55.53247963958333,62.0,84.0
181,53.82700186458332,55.56843850833332,59.0,76.0
182,53.416043364583324,55.57528781666666,54.0,71.0
183,53.005084864583324,55.61124668541666,47.0,80.0
184,56.29275286458333,56.75679350416666,71.0,85.0
185,56.29275286458333,56.77562910208333,66.0,82.0
186,56.29275286458333,56.77734142916666,62.0,78.0
187,57.11466986458333,57.62665566249999,62.0,81.0
188,57.11466986458333,57.63179264374999,71.0,83.0
189,57.11466986458333,57.64206660624999,66.0,82.0
190,57.525628364583326,58.02049089166666,59.0,72.0
191,57.936586864583326,58.29103857083332,71.0,83.0
192,57.936586864583326,58.34925769166666,62.0,80.0
193,57.936586864583326,58.362956308333324,66.0,79.0
194,58.347545364583326,59.10439393541666,59.0,71.0
195,56.29275286458333,59.25165406458333,47.0,78.0
196,56.70371136458333,59.25507871874999,54.0,63.0
197,58.758503864583325,59.318434820833325,62.0,86.0
198,58.758503864583325,59.40918815624999,66.0,85.0
199,59.580420864583324,60.14891345624999,59.0,87.0
200,59.580420864583324,60.27220100624999,67.0,87.0
201,59.580420864583324,60.41089949999999,43.0,84.0
202,60.40233786458332,60.910899008333324,45.0,76.0
203,60.40233786458332,60.94343322291666,61.0,86.0
204,60.40233786458332,60.955419512499994,69.0,87.0
205,60.40233786458332,61.09069335208333,64.0,87.0
206,61.22425486458332,61.640350345833326,59.0,80.0
207,61.22425486458332,61.99137739791666,62.0,78.0
208,61.22425486458332,62.04274721041666,66.0,71.0
209,62.04617186458332,62.56158231666666,59.0,83.0
210,61.22425486458332,62.57185627916666,47.0,75.0
211,61.63521336458332,62.611239802083325,54.0,75.0
212,62.45713036458333,62.945143583333326,61.0,83.0
213,62.86808886458333,63.27391038333332,66.0,81.0
214,62.86808886458333,63.29274598124999,62.0,88.0
215,63.69000586458333,64.07699178541665,59.0,81.0
216,63.27904736458333,64.11123832708333,54.0,66.0
217,62.86808886458333,64.14548486874999,47.0,80.0
218,63.69000586458333,64.17459442916666,66.0,88.0
219,63.69000586458333,64.19856700833333,62.0,89.0
220,64.51192286458333,65.46397672291666,61.0,87.0
221,64.51192286458333,65.69856553333332,69.0,86.0
222,64.51192286458333,65.75335999999999,45.0,83.0
223,64.92288136458332,65.78931886874999,52.0,72.0
224,65.33383986458333,66.07356516458333,64.0,87.0
225,65.33383986458333,66.10781170624999,57.0,81.0
226,66.97767386458332,67.6745909875,66.0,85.0
227,67.38863236458333,67.76020734166666,71.0,90.0
228,66.56671536458333,67.96054961041666,61.0,80.0
229,67.79959086458332,68.25506986874998,66.0,89.0
230,67.79959086458332,68.25678219583332,73.0,91.0
231,68.21054936458333,69.01705542083333,61.0,83.0
232,68.62150786458332,69.02390472916666,69.0,104.0
233,66.15575686458332,69.03760334583332,54.0,86.0
234,69.03246636458333,69.46568511666666,66.0,86.0
235,69.44342486458332,69.64547946041665,71.0,88.0
236,69.44342486458332,70.04616399791665,62.0,85.0
237,70.26534186458332,70.72253319583332,59.0,83.0
238,69.44342486458332,70.72767017708333,47.0,80.0
239,70.26534186458332,70.73280715833333,66.0,82.0
240,69.85438336458333,70.73965646666666,54.0,70.0
241,70.26534186458332,70.81671118541665,61.0,88.0
242,71.49821736458333,72.24136731875,59.0,87.0
243,71.08725886458332,72.2773261875,52.0,89.0
244,71.90917586458332,72.34753159791666,64.0,98.0
245,72.32013436458332,72.72081890208332,67.0,91.0
246,72.73109286458332,73.14033903749998,69.0,87.0
247,72.73109286458332,73.21910608333333,61.0,91.0
248,72.73109286458332,74.09239289583333,45.0,83.0
249,73.55300986458333,74.11465314791666,61.0,91.0
250,73.55300986458333,74.15061201666666,69.0,88.0
251,73.14205136458332,74.34752963124998,57.0,78.0
252,74.37492686458333,74.74136486041665,59.0,81.0
253,74.37492686458333,74.90061127916665,66.0,88.0
254,74.37492686458333,74.93314549374999,62.0,89.0
255,75.19684386458333,75.57355582291666,59.0,87.0
256,74.78588536458332,75.58725443958332,54.0,76.0
257,74.37492686458333,75.67629544791666,47.0,78.0
258,75.60780236458332,75.85780211874999,61.0,86.0
259,76.01876086458333,76.47252754166665,66.0,87.0
260,76.01876086458333,76.499924775,59.0,87.0
261,76.01876086458333,76.50334942916666,62.0,88.0
262,76.01876086458333,77.32526642916666,43.0,84.0
263,76.84067786458333,77.32697875624999,59.0,88.0
264,76.84067786458333,77.44341699791666,66.0,89.0
265,76.42971936458332,77.56670454791666,55.0,71.0
266,76.84067786458333,77.64375926666666,62.0,91.0
267,77.66259486458333,78.10095059791665,69.0,89.0
268,77.66259486458333,78.12663550416666,61.0,86.0
269,77.66259486458333,78.12834783125,64.0,88.0
270,78.07355336458332,78.61122406874999,57.0,77.0
271,78.48451186458333,78.90745665416665,61.0,89.0
272,78.48451186458333,78.99136068124999,69.0,88.0
273,77.66259486458333,79.06156609166666,45.0,81.0
274,78.48451186458333,79.15745640833332,64.0,93.0
275,79.30642886458332,79.65916824374999,59.0,88.0
276,79.30642886458332,79.96053781041665,66.0,88.0
277,79.30642886458332,79.96396246458332,62.0,92.0
278,80.12834586458332,80.71396172708332,59.0,88.0
279,79.30642886458332,80.72252336249998,47.0,84.0
280,79.71738736458332,80.94341355625,54.0,81.0
281,80.53930436458332,81.02731758333333,61.0,92.0
282,80.95026286458332,81.20197494583333,62.0,90.0
283,81.15574211458332,81.24820777708332,66.0,90.0
284,81.77217986458332,82.24991912083333,59.0,88.0
285,81.56670061458333,82.29786427916666,54.0,87.0
286,80.95026286458332,82.32697383958332,47.0,87.0
287,82.18313836458333,82.53930239791666,73.0,108.0
288,82.59409686458332,82.96738416874999,62.0,89.0
289,82.59409686458332,83.05813750416665,69.0,91.0
290,82.59409686458332,83.14546618541665,66.0,98.0
291,82.59409686458332,83.58553424583332,50.0,84.0
292,83.00505536458333,83.68827387083333,57.0,81.0
293,83.82697236458333,83.97423249375,50.0,85.0
294,83.41601386458332,84.00334205416665,69.0,96.0
295,83.41601386458332,84.05128721249999,66.0,110.0
296,84.23793086458332,84.63861540208332,69.0,88.0
297,84.23793086458332,84.68142357916666,61.0,88.0
298,84.23793086458332,84.73108106458332,64.0,96.0
299,84.64888936458333,85.09409440625,57.0,83.0
300,85.05984786458332,85.47080636458332,69.0,91.0
301,85.05984786458332,85.48621730833332,64.0,104.0
302,85.05984786458332,85.49135428958333,61.0,90.0
303,84.23793086458332,85.50505290624999,45.0,87.0
304,85.47080636458332,85.68827190416665,57.0,84.0
305,85.88176486458332,86.42457255,67.0,86.0
306,85.88176486458332,86.50162726874998,59.0,84.0
307,85.88176486458332,86.51190123125,62.0,84.0
308,85.88176486458332,86.54101079166665,64.0,83.0
309,85.88176486458332,86.85779130208333,52.0,86.0
310,86.70368186458332,87.21053068124999,67.0,89.0
311,86.70368186458332,87.22251697083333,59.0,88.0
312,86.70368186458332,87.23450326041666,62.0,89.0
313,86.70368186458332,87.33553055833332,64.0,89.0
314,87.11464036458332,87.53929748124999,52.0,82.0
315,87.52559886458332,88.06840654999999,59.0,88.0
316,87.52559886458332,88.09066680208332,66.0,90.0
317,87.52559886458332,88.11463938124999,62.0,88.0
318,87.52559886458332,88.45196781666665,47.0,80.0
319,88.34751586458331,88.89717285833332,59.0,92.0
320,88.34751586458331,88.90059751249998,66.0,94.0
321,88.34751586458331,88.97080292291666,62.0,96.0
322,88.75847436458332,89.17456984583332,47.0,82.0
323,89.16943286458333,89.62833652291665,59.0,86.0
324,89.16943286458333,89.67799400833331,67.0,85.0
325,89.16943286458333,89.68313098958332,62.0,85.0
326,89.16943286458333,89.76018570833332,64.0,84.0
327,89.99134986458333,90.45025352291665,67.0,91.0
328,89.99134986458333,90.52217126041666,62.0,98.0
329,89.99134986458333,90.53758220416665,59.0,91.0
330,89.99134986458333,90.54956849374999,64.0,98.0
331,89.16943286458333,90.56497943749999,52.0,87.0
332,90.81326686458333,91.30641706458331,67.0,91.0
333,90.81326686458333,91.32182800833333,59.0,94.0
334,90.81326686458333,91.37491014791665,62.0,98.0
335,91.63518386458333,92.03244374791666,62.0,104.0
336,91.63518386458333,92.05299167291666,67.0,91.0
337,91.63518386458333,92.08381356041666,59.0,98.0
338,90.81326686458333,92.10949846666665,43.0,89.0
339,92.45710086458332,92.93484012083331,66.0,96.0
340,92.45710086458332,93.04956603541666,61.0,104.0
341,92.45710086458332,93.07182628749999,58.0,95.0
342,93.27901786458332,93.78929133541665,66.0,94.0
343,93.27901786458332,93.91600353958331,58.0,91.0
344,93.27901786458332,93.94511309999999,61.0,98.0
345,92.45710086458332,94.12148278958333,54.0,88.0
346,94.10093486458332,94.50675638333333,66.0,92.0
347,94.10093486458332,94.62833160624999,58.0,88.0
348,94.10093486458332,94.67113978333332,61.0,98.0
349,94.71737261458333,95.02216683541666,54.0,85.0
350,94.92285186458332,95.21394746874999,58.0,90.0
351,94.92285186458332,95.25675564583332,66.0,93.0
352,94.10093486458332,95.27559124374999,42.0,88.0
353,94.92285186458332,95.31668709374999,61.0,96.0
354,95.33381036458331,95.63346760416665,54.0,88.0
355,95.74476886458332,96.24819302708332,67.0,94.0
356,95.74476886458332,96.31668611041665,59.0,92.0
357,95.74476886458332,96.32011076458332,62.0,98.0
358,96.15572736458331,96.65915152708332,55.0,74.0
359,96.56668586458332,96.98278134583332,67.0,92.0
360,96.56668586458332,97.01360323333331,59.0,94.0
361,95.74476886458332,97.02558952291665,43.0,88.0
362,96.56668586458332,97.25846600624999,62.0,98.0
363,96.97764436458333,97.37490424791666,55.0,87.0
364,97.38860286458332,97.910862625,69.0,93.0
365,97.38860286458332,97.91599960624998,61.0,94.0
366,97.38860286458332,97.95024614791666,64.0,104.0
367,97.79956136458333,98.21736917291665,57.0,76.0
368,98.21051986458332,98.60435509374999,61.0,92.0
369,98.21051986458332,98.61634138333332,64.0,104.0
370,98.21051986458332,98.64887559791666,69.0,89.0
371,98.62147836458333,98.70538239166666,57.0,83.0
372,97.38860286458332,98.72764264374999,45.0,86.0
373,99.03243686458332,99.50846379374998,69.0,93.0
374,99.03243686458332,99.51188844791665,61.0,96.0
375,99.03243686458332,99.52216241041666,66.0,108.0
376,99.44339536458332,99.86462782708332,54.0,81.0
377,99.85435386458332,100.24305211249998,66.0,107.0
378,99.03243686458332,100.24990142083333,42.0,90.0
379,99.85435386458332,100.27558632708332,61.0,100.0
380,99.85435386458332,100.53586004374999,69.0,90.0
381,100.26531236458332,100.64202432291665,54.0,87.0
382,100.67627086458332,101.18996898958332,66.0,88.0
383,100.67627086458332,101.21394156874999,59.0,89.0
384,100.67627086458332,101.29613326874998,62.0,96.0
385,100.67627086458332,101.31668119374999,69.0,88.0
386,101.29270861458332,101.62661239583332,54.0,88.0
387,101.49818786458331,101.72592736666665,69.0,88.0
388,101.49818786458331,101.95880384999998,59.0,98.0
389,100.67627086458332,101.97592712083332,47.0,86.0
390,101.90914636458332,101.98791341041665,54.0,89.0
391,101.90914636458332,102.22763920208332,62.0,88.0
392,102.32010486458331,102.82524135416665,67.0,93.0
393,102.32010486458331,102.86633720416665,59.0,96.0
394,102.32010486458331,102.89202211041665,62.0,107.0
395,102.73106336458332,103.11804928541665,55.0,80.0
396,103.14202186458331,103.55640501874998,67.0,92.0
397,102.32010486458331,103.57181596249998,43.0,88.0
398,103.14202186458331,103.57181596249998,59.0,98.0
399,103.14202186458331,103.83722666041665,62.0,108.0
400,103.55298036458332,103.95708955624998,55.0,83.0
401,103.96393886458333,104.53756843749998,69.0,88.0
402,103.96393886458333,104.58722592291666,61.0,91.0
403,103.96393886458333,104.58893824999998,66.0,91.0
404,104.78585586458333,105.12832128124998,69.0,88.0
405,104.78585586458333,105.20537599999999,61.0,89.0
406,104.78585586458333,105.24989650416666,66.0,89.0
407,103.96393886458333,105.54441676249999,54.0,86.0
408,105.60777286458332,106.12832029791666,67.0,87.0
409,105.60777286458332,106.17626545624998,59.0,88.0
410,105.60777286458332,106.27558042708331,64.0,88.0
411,105.60777286458332,106.43140219166665,52.0,81.0
412,106.42968986458332,106.89373050416665,61.0,88.0
413,106.42968986458332,106.94510031666665,45.0,84.0
414,106.42968986458332,106.97934685833332,69.0,88.0
415,106.42968986458332,107.14886723958332,64.0,89.0
416,107.25160686458332,107.65400372916665,59.0,85.0
417,107.25160686458332,107.93140071666666,62.0,89.0
418,107.25160686458332,107.93140071666666,66.0,88.0
419,108.07352386458332,108.48961934583332,59.0,83.0
420,108.07352386458332,108.50331796249999,61.0,88.0
421,107.66256536458332,108.53927683124999,54.0,81.0
422,107.25160686458332,108.56153708333332,47.0,80.0
423,108.48448236458331,108.79955054791665,62.0,85.0
424,108.89544086458332,109.63002918333332,66.0,98.0
425,108.89544086458332,109.64201547291665,57.0,96.0
426,108.89544086458332,109.64886478124998,62.0,100.0
427,109.71735786458332,110.17968617708331,57.0,91.0
428,109.71735786458332,110.26530253124999,66.0,100.0
429,109.71735786458332,110.43139825833332,62.0,104.0
430,108.89544086458332,110.50160366874998,50.0,87.0
431,110.53927486458332,111.07352091458331,69.0,92.0
432,110.53927486458332,111.10263047499998,64.0,96.0
433,110.53927486458332,111.11632909166666,61.0,89.0
434,111.36119186458332,111.79954759791666,61.0,98.0
435,111.36119186458332,111.80810923333331,69.0,98.0
436,111.36119186458332,111.90571187708332,64.0,108.0
437,110.53927486458332,111.98276659583331,45.0,87.0
438,112.18310886458332,112.68995768124998,67.0,87.0
439,112.18310886458332,112.73105353124998,62.0,87.0
440,112.18310886458332,112.76530007291665,64.0,88.0
441,112.18310886458332,112.77557403541665,59.0,87.0
442,113.00502586458332,113.45879254166665,67.0,91.0
443,113.00502586458332,113.48447744791665,59.0,89.0
444,113.00502586458332,113.49303908333331,62.0,92.0
445,113.00502586458332,113.49988839166666,64.0,94.0
446,112.18310886458332,113.61803896041665,52.0,87.0
447,113.82694286458332,114.48447646458332,59.0,90.0
448,113.82694286458332,114.49303809999998,66.0,94.0
449,113.82694286458332,114.51187369791666,62.0,98.0
450,113.82694286458332,114.80639395624999,47.0,81.0
451,114.64885986458332,115.19680453124998,59.0,102.0
452,114.64885986458332,115.21050314791665,66.0,100.0
453,114.64885986458332,115.26187296041665,62.0,108.0
454,115.05981836458332,115.29098252083332,47.0,79.0
455,115.47077686458331,115.93824215833332,67.0,88.0
456,115.47077686458331,115.99646127916665,62.0,91.0
457,115.47077686458331,115.99817360624998,64.0,91.0
458,115.47077686458331,116.00673524166665,59.0,87.0
459,116.29269386458331,116.76015915833332,67.0,91.0
460,116.29269386458331,116.77214544791666,62.0,104.0
461,116.29269386458331,116.77728242916665,59.0,96.0
462,116.29269386458331,116.81666595208331,64.0,102.0
463,115.47077686458331,116.96050142708332,52.0,91.0
464,117.11461086458331,117.64714458749998,66.0,91.0
465,117.11461086458331,117.69680207291665,57.0,88.0
466,117.11461086458331,117.73447326874998,62.0,91.0
467,117.93652786458331,118.30810284166665,66.0,102.0
468,117.93652786458331,118.31837680416665,57.0,98.0
469,117.93652786458331,118.32008913124999,62.0,104.0
470,117.11461086458331,118.74474624791665,50.0,87.0
471,118.75844486458331,119.32351280208331,66.0,93.0
472,118.75844486458331,119.32864978333332,58.0,91.0
473,118.75844486458331,119.46734827708332,61.0,102.0
474,119.58036186458332,120.10262162499998,66.0,92.0
475,119.58036186458332,120.17453936249998,58.0,93.0
476,119.58036186458332,120.22077219374998,61.0,102.0
477,118.75844486458331,120.64714163749998,54.0,87.0
478,120.40227886458332,120.95193585833331,58.0,88.0
479,120.40227886458332,121.00330567083331,66.0,88.0
480,120.40227886458332,121.07864806249998,61.0,100.0
481,121.22419586458332,121.62659272916665,58.0,100.0
482,121.22419586458332,121.67967486874998,66.0,94.0
483,121.01871661458331,121.85604455833332,54.0,100.0
484,122.04611286458332,122.55124935416666,67.0,89.0
485,122.04611286458332,122.61631778333332,62.0,96.0
486,122.04611286458332,122.63172872708331,59.0,88.0
487,122.45707136458331,122.91426269583332,55.0,79.0
488,122.86802986458332,123.31665956041665,62.0,107.0
489,122.86802986458332,123.46563201666665,59.0,93.0
490,122.86802986458332,123.47933063333332,67.0,89.0
491,122.04611286458332,123.48446761458332,43.0,83.0
492,123.68994686458332,124.33378184791665,57.0,86.0
493,123.68994686458332,124.34405581041665,64.0,90.0
494,123.68994686458332,124.35775442708332,61.0,91.0
495,124.51186386458332,125.00843871874999,64.0,98.0
496,124.51186386458332,125.03926060624998,57.0,94.0
497,123.68994686458332,125.13172626874999,45.0,86.0
498,124.51186386458332,125.16939746458331,61.0,102.0
499,125.33378086458332,125.85946527916666,67.0,88.0
500,125.33378086458332,125.88001320416664,62.0,87.0
501,125.33378086458332,125.91768439999998,59.0,89.0
502,125.33378086458332,125.96391723124998,64.0,85.0
503,126.15569786458332,126.61802617708332,59.0,90.0
504,126.15569786458332,126.63343712083332,62.0,91.0
505,126.15569786458332,126.67453297083331,67.0,89.0
506,126.15569786458332,126.67795762499998,64.0,92.0
507,125.33378086458332,126.92966970624998,52.0,84.0
508,126.97761486458332,127.30466933749999,59.0,90.0
509,126.97761486458332,127.42966921458331,66.0,88.0
510,126.97761486458332,127.48103902708331,62.0,93.0
511,127.59405261458332,128.15912055208332,59.0,94.0
512,127.38857336458332,128.21562734583333,54.0,82.0
513,126.97761486458332,128.24302457916664,47.0,86.0
514,127.79953186458332,128.26014784999998,61.0,108.0
515,128.62144886458333,129.2156263625,67.0,94.0
516,128.62144886458333,129.22418799791666,59.0,90.0
517,128.2104903645833,129.30124271666665,62.0,90.0
518,129.4433658645833,129.90055719583333,59.0,94.0
519,129.4433658645833,129.92795442916665,67.0,90.0
520,129.4433658645833,130.15055694999998,62.0,94.0
521,128.62144886458333,130.18994047291665,43.0,87.0
522,130.26528286458333,130.87487130625,57.0,87.0
523,130.26528286458333,130.88172061458332,64.0,89.0
524,130.26528286458333,130.88856992291664,61.0,89.0
525,131.0871998645833,131.47418578541664,57.0,86.0
526,131.0871998645833,131.48445974791665,64.0,89.0
527,131.0871998645833,131.52213094374997,61.0,91.0
528,130.26528286458333,131.69507597916666,45.0,85.0
529,131.90911686458332,132.59918467916665,59.0,87.0
530,131.90911686458332,132.59918467916665,67.0,89.0
531,131.90911686458332,132.61459562291665,64.0,94.0
532,132.7310338645833,133.20706079374997,67.0,89.0
533,132.7310338645833,133.25329362499997,59.0,91.0
534,132.7310338645833,133.27897853124998,64.0,93.0
535,131.90911686458332,133.3988414270833,52.0,88.0
536,133.55295086458332,134.10432018541664,59.0,88.0
537,133.55295086458332,134.1282927645833,66.0,90.0
538,133.55295086458332,134.39370346249999,62.0,91.0
539,134.78582636458333,135.25842863958331,61.0,87.0
540,135.19678486458332,135.57349682291664,62.0,87.0
541,133.55295086458332,136.32863306666664,47.0,83.0
542,134.1693886145833,136.34746866458332,54.0,85.0
543,134.3748678645833,136.36459193541666,59.0,88.0
544,136.84061886458332,137.57178252916665,74.0,87.0
545,136.84061886458332,138.03068618749998,66.0,85.0
546,137.6625358645833,138.07691901874998,62.0,72.0
547,137.2515773645833,138.15226141041666,57.0,66.0
548,136.84061886458332,138.16253537291664,50.0,82.0
549,138.48445286458332,139.80808169999997,45.0,82.0
550,138.8954113645833,139.88342409166665,57.0,74.0
551,139.3063698645833,140.034108875,64.0,98.0
552,139.3063698645833,140.11458824791666,69.0,100.0
553,140.7447246145833,140.96903946249998,64.0,86.0
554,140.12828686458332,141.35945003749998,52.0,89.0
555,140.5392453645833,141.3714363270833,59.0,84.0
556,140.9502038645833,141.3714363270833,67.0,98.0
557,141.36116236458332,141.73616199583333,71.0,82.0
558,142.3885586145833,142.93479095416666,59.0,84.0
559,142.1830793645833,142.94506491666664,54.0,66.0
560,142.59403786458333,143.013558,61.0,87.0
561,141.77212086458331,143.03239359791664,47.0,85.0
562,143.00499636458332,143.41253021041663,62.0,88.0
563,143.4159548645833,143.49129725625,67.0,82.0
564,143.4159548645833,143.82006405624998,71.0,83.0
565,143.4159548645833,143.9142420458333,64.0,80.0
566,143.4159548645833,144.65225501874997,52.0,79.0
567,143.8269133645833,144.6539673458333,59.0,72.0
568,144.23787186458333,144.6950631958333,67.0,91.0
569,144.64883036458332,145.01184370624998,71.0,84.0
570,145.0597888645833,145.66424032499998,69.0,78.0
571,145.0597888645833,145.66766497916666,62.0,80.0
572,145.0597888645833,145.70019919374997,66.0,86.0
573,145.0597888645833,145.993007125,50.0,83.0
574,145.88170586458332,146.26869178541665,62.0,84.0
575,145.88170586458332,146.33376021458332,69.0,86.0
576,145.88170586458332,146.3440341770833,66.0,88.0
577,146.7036228645833,147.34403319375,66.0,87.0
578,146.7036228645833,147.37485508125,71.0,98.0
579,147.52553986458332,147.84232037499999,66.0,98.0
580,147.32006061458333,148.00841610208332,61.0,88.0
581,146.7036228645833,148.02553937291665,54.0,84.0
582,147.93649836458331,148.27896378124998,71.0,100.0
583,148.3474568645833,148.69848391666665,66.0,88.0
584,148.3474568645833,148.7275934770833,73.0,90.0
585,148.3474568645833,148.74985372916666,70.0,89.0
586,148.96389461458332,149.50670229999997,66.0,92.0
587,149.16937386458332,149.5238255708333,70.0,100.0
588,148.7584153645833,149.57519538333332,61.0,87.0
589,148.3474568645833,149.60601727083332,54.0,91.0
590,149.5803323645833,149.94677036041665,73.0,89.0
591,149.9912908645833,151.37485114791664,43.0,96.0
592,150.60772861458332,151.40909768958332,59.0,86.0
593,150.40224936458333,151.48786473541665,55.0,78.0
594,150.81320786458332,151.55978247291665,62.0,96.0
595,151.6351248645833,152.157384625,61.0,87.0
596,151.6351248645833,152.1847818583333,69.0,88.0
597,151.6351248645833,152.21902839999998,64.0,90.0
598,152.45704186458332,152.65567180624998,69.0,85.0
599,151.6351248645833,152.87827432708332,45.0,87.0
600,152.45704186458332,152.9861509333333,61.0,93.0
601,152.25156261458332,153.0580686708333,57.0,77.0
602,153.2789588645833,153.73957484999997,67.0,82.0
603,153.2789588645833,153.93991711874997,62.0,83.0
604,153.2789588645833,153.9758759875,59.0,81.0
605,153.2789588645833,153.9775883145833,64.0,81.0
606,153.2789588645833,154.26697159166665,52.0,81.0
607,154.10087586458332,154.60087537291665,67.0,88.0
608,154.10087586458332,154.6402588958333,62.0,87.0
609,154.10087586458332,154.64368355,59.0,86.0
610,154.10087586458332,154.83203952916665,64.0,88.0
611,154.5118343645833,154.95703940624998,52.0,83.0
612,154.9227928645833,155.33203903749998,59.0,86.0
613,154.9227928645833,155.43991564374997,62.0,88.0
614,154.9227928645833,155.445052625,66.0,87.0
615,155.7447098645833,155.96731238541665,59.0,88.0
616,155.53923061458332,156.02553150625,54.0,71.0
617,154.9227928645833,156.10601087916663,47.0,84.0
618,155.9501891145833,156.2840928958333,61.0,86.0
619,156.1556683645833,156.46046258541665,62.0,88.0
620,156.5666268645833,157.24642071666665,59.0,88.0
621,156.5666268645833,157.27724260416664,62.0,88.0
622,156.5666268645833,157.29265354791664,66.0,89.0
623,157.3885438645833,157.81662563541664,62.0,91.0
624,157.3885438645833,157.91080362499997,59.0,87.0
625,157.3885438645833,158.08203633333332,66.0,90.0
626,156.5666268645833,158.11114589374998,43.0,87.0
627,158.21046086458333,158.69504942916666,69.0,83.0
628,158.21046086458333,158.75326854999997,61.0,80.0
629,158.21046086458333,158.773816475,66.0,82.0
630,159.0323778645833,159.36799397291665,66.0,87.0
631,159.0323778645833,159.42107611249997,69.0,86.0
632,159.0323778645833,159.50155548541665,61.0,87.0
633,158.21046086458333,159.79950039791663,42.0,83.0
634,159.85429486458332,160.25669172916665,67.0,81.0
635,159.85429486458332,160.26525336458332,62.0,83.0
636,159.85429486458332,160.26696569166666,64.0,82.0
637,159.85429486458332,160.27552732708332,52.0,79.0
638,159.85429486458332,160.28751361666664,59.0,80.0
639,160.6762118645833,161.17621137291664,45.0,83.0
640,160.6762118645833,161.2601154,57.0,76.0
641,160.6762118645833,161.3645673520833,64.0,83.0
642,160.6762118645833,161.51182748124998,61.0,78.0
643,161.49812886458332,162.15566246458332,59.0,83.0
644,161.49812886458332,162.32518284583333,66.0,85.0
645,161.49812886458332,162.55977165624998,62.0,83.0
646,162.3200458645833,163.44846941249997,54.0,72.0
647,162.7310043645833,163.47415431874998,59.0,79.0
648,163.14196286458332,163.52038714999998,61.0,83.0
649,163.14196286458332,163.52552413124997,66.0,80.0
650,161.49812886458332,163.54093507499996,47.0,76.0
651,164.78579686458332,165.24983750416663,71.0,85.0
652,164.78579686458332,165.2686731020833,66.0,82.0
653,164.78579686458332,165.27038542916665,62.0,78.0
654,165.6077138645833,166.11969966249998,62.0,81.0
655,165.6077138645833,166.12483664374997,71.0,83.0
656,165.6077138645833,166.13511060624998,66.0,82.0
657,166.01867236458332,166.51353489166664,59.0,72.0
658,166.42963086458332,166.7840825708333,71.0,83.0
659,166.42963086458332,166.84230169166665,62.0,80.0
660,166.42963086458332,166.8560003083333,66.0,79.0
661,166.8405893645833,167.59743793541665,59.0,71.0
662,164.78579686458332,167.7446980645833,47.0,78.0
663,165.1967553645833,167.74812271874998,54.0,63.0
664,167.2515478645833,167.81147882083332,62.0,86.0
665,167.2515478645833,167.90223215624997,66.0,85.0
666,168.07346486458331,168.64195745624997,59.0,87.0
667,168.07346486458331,168.76524500624998,67.0,87.0
668,168.07346486458331,168.90394349999997,43.0,84.0
669,168.8953818645833,169.4039430083333,45.0,76.0
670,168.8953818645833,169.43647722291664,61.0,86.0
671,168.8953818645833,169.44846351249998,69.0,87.0
672,168.8953818645833,169.58373735208332,64.0,87.0
673,169.7172988645833,170.13339434583332,59.0,80.0
674,169.7172988645833,170.48442139791663,62.0,78.0
675,169.7172988645833,170.53579121041665,66.0,71.0
676,170.5392158645833,171.05462631666666,59.0,83.0
677,169.7172988645833,171.06490027916664,47.0,75.0
678,170.1282573645833,171.1042838020833,54.0,75.0
679,170.95017436458332,171.4381875833333,61.0,83.0
680,171.3611328645833,171.7669543833333,66.0,81.0
681,171.3611328645833,171.78578998125,62.0,88.0
682,172.18304986458332,172.57003578541665,59.0,81.0
683,171.7720913645833,172.6042823270833,54.0,66.0
684,171.3611328645833,172.63852886874997,47.0,80.0
685,172.18304986458332,172.66763842916663,66.0,88.0
686,172.18304986458332,172.6916110083333,62.0,89.0
687,173.0049668645833,173.95702072291664,61.0,87.0
688,173.0049668645833,174.19160953333332,69.0,86.0
689,173.0049668645833,174.24640399999998,45.0,83.0
690,173.4159253645833,174.28236286874997,52.0,72.0
691,173.82688386458332,174.5666091645833,64.0,87.0
692,173.82688386458332,174.60085570624997,57.0,81.0
693,175.47071786458332,176.16763498749998,66.0,85.0
694,175.8816763645833,176.25325134166664,71.0,90.0
695,175.0597593645833,176.45359361041665,61.0,80.0
696,176.2926348645833,176.74811386874998,66.0,89.0
697,176.2926348645833,176.74982619583332,73.0,91.0
698,176.7035933645833,177.5100994208333,61.0,83.0
699,177.11455186458332,177.51694872916664,69.0,104.0
700,174.6488008645833,177.5306473458333,54.0,86.0
701,177.5255103645833,177.95872911666663,66.0,86.0
702,177.9364688645833,178.13852346041665,71.0,88.0
703,177.9364688645833,178.53920799791663,62.0,85.0
704,178.75838586458332,179.2155771958333,59.0,83.0
705,177.9364688645833,179.22071417708332,47.0,80.0
706,178.75838586458332,179.2258511583333,66.0,82.0
707,178.3474273645833,179.23270046666664,54.0,70.0
708,178.75838586458332,179.30975518541663,61.0,88.0
709,179.99126136458332,180.73441131874998,59.0,87.0
710,179.5803028645833,180.77037018749996,52.0,89.0
711,180.40221986458332,180.84057559791665,64.0,98.0
712,180.8131783645833,181.21386290208332,67.0,91.0
713,181.2241368645833,181.63338303749998,69.0,87.0
714,181.2241368645833,181.7121500833333,61.0,91.0
715,181.2241368645833,182.5854368958333,45.0,83.0
716,182.0460538645833,182.60769714791664,61.0,91.0
717,182.0460538645833,182.64365601666665,69.0,88.0
718,181.63509536458332,182.84057363124998,57.0,78.0
719,182.8679708645833,183.23440886041664,59.0,81.0
720,182.8679708645833,183.39365527916664,66.0,88.0
721,182.8679708645833,183.42618949374997,62.0,89.0
722,183.6898878645833,184.06659982291663,59.0,87.0
723,183.27892936458332,184.08029843958332,54.0,76.0
724,182.8679708645833,184.16933944791666,47.0,78.0
725,184.1008463645833,184.35084611874998,61.0,86.0
726,184.5118048645833,184.96557154166663,66.0,87.0
727,184.5118048645833,184.99296877499998,59.0,87.0
728,184.5118048645833,184.99639342916663,62.0,88.0
729,184.5118048645833,185.81831042916664,43.0,84.0
730,185.3337218645833,185.82002275624998,59.0,88.0
731,185.3337218645833,185.93646099791664,66.0,89.0
732,184.92276336458332,186.05974854791666,55.0,71.0
733,185.3337218645833,186.13680326666665,62.0,91.0
734,186.1556388645833,186.59399459791663,69.0,89.0
735,186.1556388645833,186.61967950416664,61.0,86.0
736,186.1556388645833,186.62139183124998,64.0,88.0
737,186.56659736458332,187.10426806874997,57.0,77.0
738,186.9775558645833,187.40050065416665,61.0,89.0
739,186.9775558645833,187.48440468124997,69.0,88.0
740,186.1556388645833,187.55461009166663,45.0,81.0
741,186.9775558645833,187.6505004083333,64.0,93.0
742,187.79947286458332,188.15221224374997,59.0,88.0
743,187.79947286458332,188.45358181041664,66.0,88.0
744,187.79947286458332,188.45700646458332,62.0,92.0
745,188.6213898645833,189.2070057270833,59.0,88.0
746,187.79947286458332,189.21556736249997,47.0,84.0
747,188.21043136458331,189.43645755624996,54.0,81.0
748,189.0323483645833,189.5203615833333,61.0,92.0
749,189.44330686458332,189.6950189458333,62.0,90.0
750,189.64878611458332,189.7412517770833,66.0,90.0
751,190.2652238645833,190.7429631208333,59.0,88.0
752,190.0597446145833,190.79090827916664,54.0,87.0
753,189.44330686458332,190.8200178395833,47.0,87.0
754,190.6761823645833,191.03234639791665,73.0,108.0
755,191.08714086458332,191.46042816874998,62.0,89.0
756,191.08714086458332,191.55118150416664,69.0,91.0
757,191.08714086458332,191.63851018541664,66.0,98.0
758,191.08714086458332,192.0785782458333,50.0,84.0
759,191.4980993645833,192.1813178708333,57.0,81.0
760,192.3200163645833,192.46727649374998,50.0,85.0
761,191.9090578645833,192.49638605416663,69.0,96.0
762,191.9090578645833,192.54433121249997,66.0,110.0
763,192.73097486458332,193.1316594020833,69.0,88.0
764,192.73097486458332,193.17446757916665,61.0,88.0
765,192.73097486458332,193.22412506458332,64.0,96.0
766,193.1419333645833,193.58713840624998,57.0,83.0
767,193.5528918645833,193.9638503645833,69.0,91.0
768,193.5528918645833,193.97926130833332,64.0,104.0
769,193.5528918645833,193.9843982895833,61.0,90.0
770,192.73097486458332,193.99809690624997,45.0,87.0
771,193.9638503645833,194.18131590416664,57.0,84.0
772,194.37480886458331,194.91761654999996,67.0,86.0
773,194.37480886458331,194.99467126874998,59.0,84.0
774,194.37480886458331,195.00494523124996,62.0,84.0
775,194.37480886458331,195.03405479166665,64.0,83.0
776,194.37480886458331,195.3508353020833,52.0,86.0
777,195.1967258645833,195.70357468124996,67.0,89.0
778,195.1967258645833,195.7155609708333,59.0,88.0
779,195.1967258645833,195.72754726041663,62.0,89.0
780,195.1967258645833,195.82857455833332,64.0,89.0
781,195.60768436458332,196.03234148124997,52.0,82.0
782,196.0186428645833,196.56145054999996,59.0,88.0
783,196.0186428645833,196.58371080208332,66.0,90.0
784,196.0186428645833,196.60768338124998,62.0,88.0
785,196.0186428645833,196.94501181666664,47.0,80.0
786,196.8405598645833,197.3902168583333,59.0,92.0
787,196.8405598645833,197.39364151249998,66.0,94.0
788,196.8405598645833,197.46384692291664,62.0,96.0
789,197.25151836458332,197.6676138458333,47.0,82.0
790,197.6624768645833,198.12138052291664,59.0,86.0
791,197.6624768645833,198.1710380083333,67.0,85.0
792,197.6624768645833,198.1761749895833,62.0,85.0
793,197.6624768645833,198.2532297083333,64.0,84.0
794,198.4843938645833,198.94329752291665,67.0,91.0
795,198.4843938645833,199.01521526041665,62.0,98.0
796,198.4843938645833,199.03062620416665,59.0,91.0
797,198.4843938645833,199.04261249374997,64.0,98.0
798,197.6624768645833,199.05802343749997,52.0,87.0
799,199.3063108645833,199.7994610645833,67.0,91.0
800,199.3063108645833,199.8148720083333,59.0,94.0
801,199.3063108645833,199.86795414791663,62.0,98.0
802,200.1282278645833,200.52548774791663,62.0,104.0
803,200.1282278645833,200.54603567291664,67.0,91.0
804,200.1282278645833,200.57685756041664,59.0,98.0
805,199.3063108645833,200.60254246666665,43.0,89.0
806,200.9501448645833,201.4278841208333,66.0,96.0
807,200.9501448645833,201.54261003541663,61.0,104.0
808,200.9501448645833,201.56487028749999,58.0,95.0
809,201.7720618645833,202.28233533541663,66.0,94.0
810,201.7720618645833,202.4090475395833,58.0,91.0
811,201.7720618645833,202.43815709999998,61.0,98.0
812,200.9501448645833,202.6145267895833,54.0,88.0
813,202.5939788645833,202.9998003833333,66.0,92.0
814,202.5939788645833,203.12137560624998,58.0,88.0
815,202.5939788645833,203.1641837833333,61.0,98.0
816,203.2104166145833,203.51521083541664,54.0,85.0
817,203.41589586458332,203.70699146874998,58.0,90.0
818,203.41589586458332,203.7497996458333,66.0,93.0
819,202.5939788645833,203.76863524374997,42.0,88.0
820,203.41589586458332,203.80973109374997,61.0,96.0
821,203.8268543645833,204.12651160416664,54.0,88.0
822,204.2378128645833,204.74123702708332,67.0,94.0
823,204.2378128645833,204.80973011041664,59.0,92.0
824,204.2378128645833,204.81315476458332,62.0,98.0
825,204.6487713645833,205.1521955270833,55.0,74.0
826,205.05972986458332,205.4758253458333,67.0,92.0
827,205.05972986458332,205.5066472333333,59.0,94.0
828,204.2378128645833,205.51863352291664,43.0,88.0
829,205.05972986458332,205.75151000624996,62.0,98.0
830,205.4706883645833,205.86794824791664,55.0,87.0
831,205.8816468645833,206.40390662499996,69.0,93.0
832,205.8816468645833,206.40904360624998,61.0,94.0
833,205.8816468645833,206.44329014791663,64.0,104.0
834,206.2926053645833,206.71041317291665,57.0,76.0
835,206.70356386458332,207.09739909374997,61.0,92.0
836,206.70356386458332,207.10938538333332,64.0,104.0
837,206.70356386458332,207.14191959791663,69.0,89.0
838,207.1145223645833,207.19842639166663,57.0,83.0
839,205.8816468645833,207.22068664374999,45.0,86.0
840,207.5254808645833,208.00150779374997,69.0,93.0
841,207.5254808645833,208.00493244791664,61.0,96.0
842,207.5254808645833,208.01520641041665,66.0,108.0
843,207.9364393645833,208.3576718270833,54.0,81.0
844,208.34739786458331,208.73609611249998,66.0,107.0
845,207.5254808645833,208.7429454208333,42.0,90.0
846,208.34739786458331,208.76863032708332,61.0,100.0
847,208.34739786458331,209.02890404374998,69.0,90.0
848,208.7583563645833,209.13506832291665,54.0,87.0
849,209.1693148645833,209.68301298958332,66.0,88.0
850,209.1693148645833,209.70698556874999,59.0,89.0
851,209.1693148645833,209.78917726874997,62.0,96.0
852,209.1693148645833,209.80972519374998,69.0,88.0
853,209.78575261458332,210.11965639583332,54.0,88.0
854,209.9912318645833,210.21897136666664,69.0,88.0
855,209.9912318645833,210.45184784999998,59.0,98.0
856,209.1693148645833,210.46897112083332,47.0,86.0
857,210.4021903645833,210.48095741041664,54.0,89.0
858,210.4021903645833,210.7206832020833,62.0,88.0
859,210.8131488645833,211.31828535416665,67.0,93.0
860,210.8131488645833,211.35938120416665,59.0,96.0
861,210.8131488645833,211.38506611041663,62.0,107.0
862,211.22410736458332,211.61109328541664,55.0,80.0
863,211.6350658645833,212.04944901874998,67.0,92.0
864,210.8131488645833,212.06485996249998,43.0,88.0
865,211.6350658645833,212.06485996249998,59.0,98.0
866,211.6350658645833,212.33027066041663,62.0,108.0
867,212.0460243645833,212.45013355624997,55.0,83.0
868,212.4569828645833,213.03061243749997,69.0,88.0
869,212.4569828645833,213.08026992291664,61.0,91.0
870,212.4569828645833,213.08198224999998,66.0,91.0
871,213.2788998645833,213.62136528124998,69.0,88.0
872,213.2788998645833,213.69841999999997,61.0,89.0
873,213.2788998645833,213.74294050416663,66.0,89.0
874,212.4569828645833,214.03746076249996,54.0,86.0
875,214.1008168645833,214.62136429791664,67.0,87.0
876,214.1008168645833,214.66930945624998,59.0,88.0
877,214.1008168645833,214.7686244270833,64.0,88.0
878,214.1008168645833,214.92444619166665,52.0,81.0
879,214.9227338645833,215.38677450416662,61.0,88.0
880,214.9227338645833,215.43814431666664,45.0,84.0
881,214.9227338645833,215.4723908583333,69.0,88.0
882,214.9227338645833,215.6419112395833,64.0,89.0
883,215.7446508645833,216.14704772916664,59.0,85.0
884,215.7446508645833,216.42444471666664,62.0,89.0
885,215.7446508645833,216.42444471666664,66.0,88.0
886,216.5665678645833,216.98266334583332,59.0,83.0
887,216.5665678645833,216.99636196249998,61.0,88.0
888,216.1556093645833,217.03232083124996,54.0,81.0
889,215.7446508645833,217.05458108333332,47.0,80.0
890,216.9775263645833,217.29259454791665,62.0,85.0
891,217.3884848645833,218.1230731833333,66.0,98.0
892,217.3884848645833,218.13505947291665,57.0,96.0
893,217.3884848645833,218.14190878124998,62.0,100.0
894,218.2104018645833,218.6727301770833,57.0,91.0
895,218.2104018645833,218.75834653124997,66.0,100.0
896,218.2104018645833,218.9244422583333,62.0,104.0
897,217.3884848645833,218.99464766874996,50.0,87.0
898,219.03231886458332,219.5665649145833,69.0,92.0
899,219.03231886458332,219.59567447499998,64.0,96.0
900,219.03231886458332,219.60937309166664,61.0,89.0
901,219.8542358645833,220.29259159791664,61.0,98.0
902,219.8542358645833,220.3011532333333,69.0,98.0
903,219.8542358645833,220.39875587708332,64.0,108.0
904,219.03231886458332,220.4758105958333,45.0,87.0
905,220.67615286458332,221.18300168124998,67.0,87.0
906,220.67615286458332,221.22409753124998,62.0,87.0
907,220.67615286458332,221.25834407291663,64.0,88.0
908,220.67615286458332,221.26861803541664,59.0,87.0
909,221.4980698645833,221.95183654166664,67.0,91.0
910,221.4980698645833,221.97752144791664,59.0,89.0
911,221.4980698645833,221.9860830833333,62.0,92.0
912,221.4980698645833,221.99293239166664,64.0,94.0
913,220.67615286458332,222.11108296041664,52.0,87.0
914,222.3199868645833,222.9775204645833,59.0,90.0
915,222.3199868645833,222.98608209999998,66.0,94.0
916,222.3199868645833,223.00491769791662,62.0,98.0
917,222.3199868645833,223.29943795624996,47.0,81.0
918,223.1419038645833,223.68984853124996,59.0,102.0
919,223.1419038645833,223.70354714791662,66.0,100.0
920,223.1419038645833,223.75491696041664,62.0,108.0
921,223.5528623645833,223.7840265208333,47.0,79.0
922,223.9638208645833,224.4312861583333,67.0,88.0
923,223.9638208645833,224.48950527916665,62.0,91.0
924,223.9638208645833,224.49121760624996,64.0,91.0
925,223.9638208645833,224.49977924166663,59.0,87.0
926,224.7857378645833,225.2532031583333,67.0,91.0
927,224.7857378645833,225.26518944791664,62.0,104.0
928,224.7857378645833,225.27032642916663,59.0,96.0
929,224.7857378645833,225.3097099520833,64.0,102.0
930,223.9638208645833,225.4535454270833,52.0,91.0
931,225.6076548645833,226.14018858749998,66.0,91.0
932,225.6076548645833,226.18984607291662,57.0,88.0
933,225.6076548645833,226.22751726874998,62.0,91.0
934,226.4295718645833,226.80114684166665,66.0,102.0
935,226.4295718645833,226.81142080416663,57.0,98.0
936,226.4295718645833,226.81313313124997,62.0,104.0
937,225.6076548645833,227.23779024791665,50.0,87.0
938,227.2514888645833,227.8165568020833,66.0,93.0
939,227.2514888645833,227.8216937833333,58.0,91.0
940,227.2514888645833,227.96039227708332,61.0,102.0
941,228.0734058645833,228.59566562499998,66.0,92.0
942,228.0734058645833,228.66758336249998,58.0,93.0
943,228.0734058645833,228.71381619374998,61.0,102.0
944,227.2514888645833,229.14018563749997,54.0,87.0
945,228.8953228645833,229.4449798583333,58.0,88.0
946,228.8953228645833,229.4963496708333,66.0,88.0
947,228.8953228645833,229.57169206249998,61.0,100.0
948,229.7172398645833,230.11963672916664,58.0,100.0
949,229.7172398645833,230.17271886874997,66.0,94.0
950,229.5117606145833,230.3490885583333,54.0,100.0
951,230.5391568645833,231.04429335416663,67.0,89.0
952,230.5391568645833,231.1093617833333,62.0,96.0
953,230.5391568645833,231.1247727270833,59.0,88.0
954,230.9501153645833,231.4073066958333,55.0,79.0
955,231.3610738645833,231.80970356041664,62.0,107.0
956,231.3610738645833,231.95867601666663,59.0,93.0
957,231.3610738645833,231.9723746333333,67.0,89.0
958,230.5391568645833,231.9775116145833,43.0,83.0
959,232.1829908645833,232.82682584791664,57.0,86.0
960,232.1829908645833,232.83709981041665,64.0,90.0
961,232.1829908645833,232.8507984270833,61.0,91.0
962,233.00490786458332,233.50148271874997,64.0,98.0
963,233.00490786458332,233.53230460624997,57.0,94.0
964,232.1829908645833,233.62477026874996,45.0,86.0
965,233.00490786458332,233.6624414645833,61.0,102.0
966,233.8268248645833,234.35250927916664,67.0,88.0
967,233.8268248645833,234.37305720416663,62.0,87.0
968,233.8268248645833,234.41072839999998,59.0,89.0
969,233.8268248645833,234.45696123124998,64.0,85.0
970,234.64874186458331,235.1110701770833,59.0,90.0
971,234.64874186458331,235.1264811208333,62.0,91.0
972,234.64874186458331,235.1675769708333,67.0,89.0
973,234.64874186458331,235.17100162499997,64.0,92.0
974,233.8268248645833,235.42271370624997,52.0,84.0
975,235.4706588645833,235.79771333749997,59.0,90.0
976,235.4706588645833,235.9227132145833,66.0,88.0
977,235.4706588645833,235.9740830270833,62.0,93.0
978,236.0870966145833,236.6521645520833,59.0,94.0
979,235.8816173645833,236.7086713458333,54.0,82.0
980,235.4706588645833,236.73606857916664,47.0,86.0
981,236.2925758645833,236.75319184999998,61.0,108.0
982,237.1144928645833,237.70867036249996,67.0,94.0
983,237.1144928645833,237.71723199791663,59.0,90.0
984,236.7035343645833,237.79428671666665,62.0,90.0
985,237.9364098645833,238.3936011958333,59.0,94.0
986,237.9364098645833,238.42099842916664,67.0,90.0
987,237.9364098645833,238.64360094999998,62.0,94.0
988,237.1144928645833,238.68298447291664,43.0,87.0
989,238.7583268645833,239.36791530624996,57.0,87.0
990,238.7583268645833,239.3747646145833,64.0,89.0
991,238.7583268645833,239.38161392291664,61.0,89.0
992,239.5802438645833,239.96722978541663,57.0,86.0
993,239.5802438645833,239.97750374791664,64.0,89.0
994,239.5802438645833,240.01517494374997,61.0,91.0
995,238.7583268645833,240.18811997916663,45.0,85.0
996,240.4021608645833,241.09222867916662,59.0,87.0
997,240.4021608645833,241.09222867916662,67.0,89.0
998,240.4021608645833,241.10763962291662,64.0,94.0
999,241.2240778645833,241.70010479374997,67.0,89.0
1000,241.2240778645833,241.74633762499997,59.0,91.0
1001,241.2240778645833,241.77202253124997,64.0,93.0
1002,240.4021608645833,241.8918854270833,52.0,88.0
1003,242.0459948645833,242.59736418541664,59.0,88.0
1004,242.0459948645833,242.6213367645833,66.0,90.0
1005,242.0459948645833,242.88674746249995,62.0,91.0
1006,243.2788703645833,243.7514726395833,61.0,87.0
1007,243.6898288645833,244.06654082291664,62.0,87.0
1008,242.0459948645833,244.82167706666664,47.0,83.0
1009,242.6624326145833,244.84051266458331,54.0,85.0
1010,242.8679118645833,244.85763593541662,59.0,88.0
1011,245.3336628645833,246.74462038124997,59.0,76.0
1012,246.1555798645833,246.7668806333333,55.0,81.0
1013,245.3336628645833,246.80455182916663,67.0,82.0
1014,245.7446213645833,246.8233874270833,50.0,68.0
1015,245.3336628645833,246.86619560416662,43.0,84.0
1016,247.3884553645833,249.3353712583333,42.0,78.0
1017,247.3884553645833,249.33708358541662,69.0,74.0
1018,247.3884553645833,249.34222056666664,61.0,67.0
1019,247.3884553645833,249.3559191833333,66.0,73.0
1020,249.8542063645833,251.48605407499997,64.0,67.0
1021,249.6487271145833,251.49119105624996,59.0,66.0
1022,249.8542063645833,251.51516363541663,67.0,78.0
1023,249.8542063645833,251.52201294374996,62.0,64.0
1024,249.8542063645833,251.5288622520833,52.0,65.0
1025,252.5254366145833,254.2771472208333,42.0,48.0
1026,252.7309158645833,254.3901608083333,66.0,70.0
1027,252.5254366145833,254.45351691041662,57.0,44.0
1028,252.7309158645833,254.58879074999996,61.0,61.0
1029,257.2514593645833,259.66412822499996,54.0,74.0
1030,257.6624178645833,259.67268986041665,59.0,83.0
1031,256.8405008645833,259.7291966541666,47.0,87.0
1032,258.0733763645833,259.8987170354166,61.0,73.0
1033,258.4843348645833,260.01857993125,62.0,78.0
1034,260.1281688645833,262.85419358124994,52.0,86.0
1035,260.5391273645833,262.8730291791666,59.0,82.0
1036,260.9500858645833,263.20350830624994,71.0,92.0
1037,261.77200286458327,263.40727522916666,64.0,77.0
1038,261.3610443645833,263.4774806395833,67.0,84.0
