,start,end,pitch,velocity
0,24.665682875,25.0348687,70.0,85.0
1,25.014519875,25.433124275,68.0,85.0
2,25.363356875,25.8008566125,70.0,85.0
3,25.712193875,26.2514377375,71.0,85.0
4,26.409867875,26.764518825,70.0,85.0
5,27.107541875,27.8502739875,68.0,85.0
6,28.502889875,28.712192075,66.0,85.0
7,28.851726875,29.5944589875,66.0,85.0
8,29.549400875,29.968005275,65.0,85.0
9,29.898237875,30.6177141875,66.0,85.0
10,30.595911875,31.061027875,68.0,85.0
11,30.944748875,31.270330075,70.0,85.0
12,31.293585875,31.735446075,68.0,85.0
13,31.642422875,33.2688753875,70.0,85.0
14,35.828466875,36.061024875,70.0,85.0
15,36.177303875,36.409861875,68.0,85.0
16,36.526140875,36.921489475,70.0,85.0
17,36.874977875,37.270326475,71.0,85.0
18,37.572651875,37.921488875,70.0,85.0
19,38.2892212125,39.4520112125,68.0,85.0
20,39.665673875,39.921487675,66.0,85.0
21,40.014510875,40.7572429875,66.0,85.0
22,40.712184875,41.061021875,65.0,85.0
23,41.061021875,41.433114675,70.0,85.0
24,41.758695875,42.130788675,68.0,85.0
25,42.107532875,44.898228875,66.0,85.0
26,47.002878775,48.0348549,73.0,85.0
27,48.386598875,48.8022963,63.0,85.0
28,49.084272875,49.316830875,68.0,85.0
29,49.433109875,50.52903945,68.0,85.0
30,50.828457875,50.973806625,66.0,85.0
31,51.177294875,51.741248025,66.0,85.0
32,51.874968875,52.1322361625,63.0,85.0
33,52.223805875000004,52.74996835,63.0,85.0
34,52.921479875,53.229619225,66.0,85.0
35,53.270316875,53.467991175,70.0,85.0
36,53.619153875,54.309560437500004,70.0,85.0
37,58.154034875,59.351708575,73.0,85.0
38,59.549382875,60.247056875,63.0,85.0
39,60.247056875,60.4926962625,68.0,85.0
40,60.595893875,61.962172125,68.0,85.0
41,62.340078875,62.8720553,63.0,85.0
42,63.037752875,63.3211829375,66.0,85.0
43,63.386589875,64.392403225,70.0,85.0
44,64.433100875,64.770309975,68.0,85.0
45,64.781937875,66.5886228375,66.0,85.0
46,66.526122875,66.80809945,70.0,85.0
47,66.874959875,67.05519232500001,71.0,85.0
48,67.223796875,67.40112235,73.0,85.0
49,67.572633875,69.020307425,73.0,85.0
50,69.316818875,69.6583884375,70.0,85.0
51,69.665655875,70.0580975,71.0,85.0
52,70.014492875,70.12205095,73.0,85.0
53,70.363329875,70.8793179375,73.0,85.0
54,71.061003875,71.4185618,75.0,85.0
55,71.409840875,71.7746662375,77.0,85.0
56,71.758677875,72.991235275,73.0,85.0
57,73.154025875,73.4258280375,73.0,85.0
58,73.502862875,74.1583857375,73.0,85.0
59,74.200536875,74.4374553375,71.0,85.0
60,74.549373875,75.31972225,71.0,85.0
61,75.247047875,75.572629075,70.0,85.0
62,75.595884875,75.8735009875,68.0,85.0
63,75.944721875,77.2019885625,71.0,85.0
64,77.688906875,77.9461741625,70.0,85.0
65,78.037743875,78.4054762125,71.0,85.0
66,78.386580875,78.531929625,73.0,85.0
67,78.735417875,80.270300675,73.0,85.0
68,80.479602875,80.8298933625,70.0,85.0
69,80.828439875,81.22669545,71.0,85.0
70,81.177276875,81.3851255875,73.0,85.0
71,81.52611387500001,82.04064845,73.0,85.0
72,82.223787875,82.5973341625,77.0,85.0
73,82.921461875,84.1961704125,73.0,85.0
74,84.316809875,84.6758212875,73.0,85.0
75,84.66564687500001,85.2717511625,77.0,85.0
76,85.363320875,85.6525648875,78.0,85.0
77,85.712157875,86.607506175,73.0,85.0
78,86.409831875,86.700529375,71.0,85.0
79,86.758668875,86.8444246375,70.0,85.0
80,87.107505875,87.6031451125,70.0,85.0
81,87.456342875,89.1976209,68.0,85.0
82,90.247038875,90.8793059375,70.0,85.0
83,90.944712875,91.0813407,73.0,85.0
84,91.293549875,92.5072119375,68.0,85.0
85,92.340060875,92.6467467375,70.0,85.0
86,92.688897875,94.3240713125,66.0,85.0
87,95.828430875,96.357500325,63.0,85.0
88,96.526104875,96.933081375,70.0,85.0
89,97.049360375,98.287731725,68.0,85.0
90,98.619126875,98.810987225,66.0,85.0
91,99.142382375,101.4636019125,66.0,85.0
92,125.130738875,125.4999247,70.0,75.0
93,125.479575875,125.898180275,68.0,75.0
94,125.828412875,126.2659126125,70.0,75.0
95,126.177249875,126.7164937375,71.0,75.0
96,126.87492387500001,127.229574825,70.0,75.0
97,127.572597875,128.3153299875,68.0,75.0
98,128.967945875,129.177248075,66.0,75.0
99,129.316782875,130.0595149875,66.0,75.0
100,130.014456875,130.433061275,65.0,75.0
101,130.363293875,131.0827701875,66.0,75.0
102,131.060967875,131.526083875,68.0,75.0
103,131.409804875,131.735386075,70.0,75.0
104,131.758641875,132.200502075,68.0,75.0
105,132.107478875,133.7339313875,70.0,75.0
106,136.293522875,136.526080875,70.0,75.0
107,136.642359875,136.874917875,68.0,75.0
108,136.991196875,137.386545475,70.0,75.0
109,137.340033875,137.735382475,71.0,75.0
110,138.037707875,138.386544875,70.0,75.0
111,138.6874167875,139.8502067875,68.0,75.0
112,140.13072987500001,140.386543675,66.0,75.0
113,140.479566875,141.2222989875,66.0,75.0
114,141.177240875,141.526077875,65.0,75.0
115,141.526077875,141.898170675,70.0,75.0
116,142.223751875,142.595844675,68.0,75.0
117,142.921425875,145.712121875,66.0,75.0
118,147.49409755,148.62200385,73.0,75.0
119,148.851654875,149.2673523,63.0,75.0
120,149.54932887500001,149.781886875,68.0,75.0
121,149.898165875,150.99409545,68.0,75.0
122,151.293513875,151.438862625,66.0,75.0
123,151.642350875,152.206304025,66.0,75.0
124,152.340024875,152.5972921625,63.0,75.0
125,152.688861875,153.21502435,63.0,75.0
126,153.386535875,153.694675225,66.0,75.0
127,153.735372875,153.933047175,70.0,75.0
128,154.084209875,154.7746164375,70.0,75.0
129,158.619090875,159.4141485375,73.0,75.0
130,160.014438875,160.712112875,63.0,75.0
131,160.712112875,160.9577522625,68.0,75.0
132,161.060949875,162.427228125,68.0,75.0
133,162.805134875,163.3371113,63.0,75.0
134,163.502808875,163.7862389375,66.0,75.0
135,163.851645875,164.857459225,70.0,75.0
136,164.898156875,165.235365975,68.0,75.0
137,165.246993875,167.0536788375,66.0,75.0
138,166.991178875,167.27315545,70.0,75.0
139,167.340015875,167.520248325,71.0,75.0
140,167.688852875,167.86617835,73.0,75.0
141,168.037689875,169.485363425,73.0,75.0
142,169.781874875,170.1234444375,70.0,75.0
143,170.130711875,170.5231535,71.0,75.0
144,170.479548875,170.58710695,73.0,75.0
145,170.828385875,171.3443739375,73.0,75.0
146,171.526059875,171.8836178,75.0,75.0
147,171.874896875,172.2397222375,77.0,75.0
148,172.223733875,173.456291275,73.0,75.0
149,173.619081875,173.8908840375,73.0,75.0
150,173.967918875,174.6234417375,73.0,75.0
151,174.665592875,174.9025113375,71.0,75.0
152,175.014429875,175.78477825,71.0,75.0
153,175.712103875,176.037685075,70.0,75.0
154,176.060940875,176.3385569875,68.0,75.0
155,176.409777875,177.6670445625,71.0,75.0
156,178.153962875,178.4112301625,70.0,75.0
157,178.502799875,178.8705322125,71.0,75.0
158,178.851636875,178.996985625,73.0,75.0
159,179.200473875,180.735356675,73.0,75.0
160,180.944658875,181.2949493625,70.0,75.0
161,181.293495875,181.69175145,71.0,75.0
162,181.642332875,181.8501815875,73.0,75.0
163,181.991169875,182.50570445,73.0,75.0
164,182.688843875,183.0623901625,77.0,75.0
165,183.386517875,184.6612264125,73.0,75.0
166,184.781865875,185.1408772875,73.0,75.0
167,185.130702875,185.7368071625,77.0,75.0
168,185.828376875,186.1176208875,78.0,75.0
169,186.177213875,187.072562175,73.0,75.0
170,186.874887875,187.165585375,71.0,75.0
171,187.223724875,187.3094806375,70.0,75.0
172,187.572561875,188.0682011125,70.0,75.0
173,189.34290965,189.6001769375,75.0,112.0
174,187.921398875,189.6626769,68.0,75.0
175,189.665583875,189.9025023375,75.0,99.0
176,190.014420875,190.19174635,73.0,100.0
177,190.18883937500001,190.3763392625,71.0,66.0
178,190.363257875,190.938838925,73.0,96.0
179,192.107442875,192.3240125125,70.0,112.0
180,192.456279875,192.78476805,71.0,89.0
181,192.805116875,192.927209825,73.0,85.0
182,193.153953875,193.8138372,73.0,112.0
183,193.851627875,194.2658718125,77.0,112.0
184,194.549301875,195.933021975,73.0,100.0
185,195.944649875,196.12197535,73.0,100.0
186,196.293486875,196.88941675,73.0,117.0
187,196.991160875,197.2600560625,71.0,77.0
188,197.339997875,197.857439425,71.0,85.0
189,198.037671875,198.3211019375,70.0,85.0
190,198.386508875,198.5972645625,68.0,75.0
191,198.735345875,200.1263334125,71.0,96.0
192,200.479530875,200.76150745,70.0,75.0
193,200.828367875,201.008600325,71.0,75.0
194,201.177204875,201.35453035,73.0,75.0
195,201.526041875,202.973715425,73.0,75.0
196,203.270226875,203.6117964375,70.0,75.0
197,203.619063875,204.0115055,71.0,75.0
198,203.967900875,204.07545895,73.0,75.0
199,204.316737875,204.8327259375,73.0,75.0
200,205.014411875,205.3719698,75.0,75.0
201,205.363248875,205.7280742375,77.0,75.0
202,205.712085875,206.944643275,73.0,75.0
203,207.107433875,207.3792360375,73.0,75.0
204,207.456270875,208.0623751625,77.0,75.0
205,208.153944875,208.4431888875,78.0,75.0
206,208.502781875,209.398130175,73.0,75.0
207,209.200455875,209.491153375,71.0,75.0
208,209.549292875,209.6350486375,70.0,75.0
209,209.898129875,210.3937691125,70.0,75.0
210,210.246966875,211.9882449,68.0,75.0
211,213.173023125,213.82561280208333,70.0,89.0
212,213.84081550833332,214.26649128333332,73.0,92.0
213,214.20399126874997,215.4725726458333,68.0,70.0
214,215.36953208125,215.7006132395833,70.0,63.0
215,215.70230242916665,217.88304618125,66.0,69.0
216,218.64318149374998,219.54351954166665,63.0,78.0
217,219.48439790625,220.14656022291666,70.0,83.0
218,220.12122237916665,221.83837576666667,68.0,70.0
219,222.006778275,222.57101348333333,66.0,66.0
220,222.913253825,225.3807707625,66.0,76.0
