,start,end,pitch,velocity
0,19.1180944125,19.2969932625,82.0,91.0
1,19.3933234125,19.5630479625,82.0,93.0
2,19.6685524125,20.393322112499998,82.0,100.0
3,20.7694684125,21.003413062499998,82.0,93.0
4,21.0446974125,21.2476788,84.0,96.0
5,21.3199264125,21.477036299999998,82.0,90.0
6,21.5951554125,22.0997419125,79.0,93.0
7,22.1456134125,22.7373557625,77.0,103.0
8,22.6960714125,23.234788754166665,75.0,95.0
9,23.5208299,23.72792368958333,67.0,85.0
10,23.7954294,24.055154760416666,72.0,89.0
11,24.0700289,24.311447627083332,75.0,87.0
12,24.3446284,25.174147722916665,72.0,86.0
13,25.1684269,26.70961659375,70.0,89.0
14,30.1112179,30.267968447916665,72.0,95.0
15,30.3858174,30.532270466666667,72.0,98.0
16,30.6604169,30.901835627083333,72.0,93.0
17,30.9350164,31.653551758333332,75.0,95.0
18,32.0334144,32.320599710416666,77.0,105.0
19,32.3080139,32.740508112499995,84.0,96.0
20,32.8572129,33.01968427083333,82.0,91.0
21,33.1318124,33.3446270125,79.0,91.0
22,33.406411899999995,33.60091987916667,77.0,96.0
23,33.6810114,35.04485558333333,79.0,100.0
24,38.89935139583333,39.06104843333333,77.0,95.0
25,39.17458039583333,39.31678204583333,77.0,94.0
26,39.449809395833334,39.63100182083333,77.0,95.0
27,39.72503839583333,40.38788157083333,82.0,91.0
28,40.82595439583333,40.99338537083333,79.0,90.0
29,41.10118339583333,41.31448587083333,79.0,89.0
30,41.376412395833334,41.53810943333333,77.0,94.0
31,41.65164139583333,41.866090658333334,79.0,93.0
32,41.92687039583333,42.18260400833333,77.0,96.0
33,42.20209939583333,42.41769544583333,75.0,89.0
34,42.47732839583333,45.50484739583333,72.0,84.0
35,46.33053439583333,46.51172682083333,70.0,95.0
36,46.60576339583333,46.80530442083333,70.0,90.0
37,46.88099239583333,48.34888039583333,72.0,100.0
38,48.53236639583333,48.78924679583333,72.0,100.0
39,48.80759539583333,49.042686833333335,79.0,91.0
40,49.08282439583333,49.93488750833333,77.0,93.0
41,49.90851139583333,50.102318483333335,79.0,93.0
42,50.18374039583333,50.33052919583333,70.0,93.0
43,50.45896939583333,50.65277648333333,67.0,93.0
44,50.73419839583333,50.92685869583333,70.0,89.0
45,51.00942739583333,51.21470235833333,77.0,93.0
46,51.28465639583333,53.59199284583333,75.0,95.0
47,55.68832039583333,56.38556719583333,72.0,96.0
48,56.51400739583333,56.69634660833333,72.0,93.0
49,56.78923639583333,56.98877742083333,72.0,96.0
50,57.06446539583333,57.20781383333333,75.0,96.0
51,57.339694395833334,57.48533640833333,77.0,95.0
52,57.61492339583333,58.07478518333333,79.0,96.0
53,58.165381395833336,59.85574617083333,72.0,103.0
54,60.091984395833336,60.76170829583333,72.0,96.0
55,60.91767139583333,61.07019413333333,72.0,100.0
56,61.192900395833334,61.37982675833333,72.0,93.0
57,61.46812939583333,61.61950534583333,75.0,100.0
58,61.743358395833326,61.92569760833333,77.0,93.0
59,62.01858739583333,62.400467633333335,79.0,96.0
60,62.56904539583333,64.08624525833334,79.0,96.0
61,64.49564839583333,64.86606075833333,79.0,93.0
62,65.04610639583333,65.24106027083333,79.0,96.0
63,65.32133539583333,65.48303243333334,77.0,95.0
64,65.59656439583333,66.07936193333333,79.0,98.0
65,66.14702239583333,66.35573772083333,77.0,91.0
66,66.42225139583333,67.34656212083333,79.0,96.0
67,67.52316739583333,67.72041484583333,79.0,96.0
68,67.79839639583332,68.17454269583334,84.0,95.0
69,68.34885439583333,68.53119360833333,84.0,93.0
70,68.62408339583334,69.09082590833333,82.0,94.0
71,69.17454139583333,69.4037520125,79.0,90.0
72,69.44951859583333,72.97926633541665,82.0,91.0
73,73.29391159583332,73.48384291666666,79.0,96.0
74,73.56851109583332,73.96896869999999,82.0,98.0
75,74.11771009583332,74.27560480833333,82.0,91.0
76,74.39230959583332,74.56965510624998,82.0,93.0
77,74.66690909583332,74.88658869583332,79.0,94.0
78,74.94150859583333,75.13029575208333,77.0,96.0
79,75.21610809583332,76.56393397499998,79.0,100.0
80,76.58910559583332,77.00558150416666,79.0,100.0
81,77.13830459583332,77.31107344791666,75.0,100.0
82,77.41290409583333,77.65203449375,77.0,93.0
83,77.68750359583332,77.93921980416665,75.0,93.0
84,77.96210309583333,80.29619884583332,72.0,95.0
85,82.08109559583332,82.32022599374999,67.0,91.0
86,82.35569509583333,82.64288040624999,70.0,89.0
87,82.63029459583332,82.89688494375,72.0,91.0
88,82.90489409583333,83.22297185,70.0,95.0
89,83.17949359583332,83.43120980416666,72.0,96.0
90,83.45409309583331,83.71496262083332,75.0,96.0
91,83.72869259583332,84.02617538749999,77.0,90.0
92,84.00329209583332,84.32594650833332,79.0,93.0
93,84.27789159583332,84.84196473541665,77.0,105.0
94,85.10169009583332,85.27331478333332,77.0,93.0
95,85.37628959583333,85.62800580416666,77.0,95.0
96,85.65088909583332,85.92205610208332,79.0,95.0
97,85.92548859583331,86.20008809583332,75.0,103.0
98,86.20008809583332,86.51587752083333,72.0,91.0
99,86.47468759583332,89.25500753333333,75.0,98.0
100,107.09257236874998,107.27180011875,82.0,91.0
101,107.36830736874998,107.53834395208332,82.0,93.0
102,107.64404236875,108.37014453541666,82.0,100.0
103,108.74698236874998,108.98135711874998,82.0,93.0
104,109.02271736875,109.22607193124999,84.0,96.0
105,109.29845236874999,109.45585109791665,82.0,90.0
106,109.57418736874999,110.07970153541666,79.0,93.0
107,110.12565736874998,110.71848761874999,77.0,103.0
108,110.67712736874999,111.21658236875,75.0,95.0
109,111.50275424374999,111.70994268125,67.0,85.0
110,111.77747924375,112.03732330624999,72.0,89.0
111,112.05220424375,112.29373330624999,75.0,87.0
112,112.32692924374999,113.15682768125,72.0,86.0
113,113.15110424375,114.69299830624999,70.0,89.0
114,118.09615424375,118.25297643124999,72.0,95.0
115,118.37087924375,118.51739924374999,72.0,98.0
116,118.64560424375,118.88713330624999,72.0,93.0
117,118.92032924374999,119.63919299374999,75.0,95.0
118,120.01922924374999,120.30654580625,77.0,105.0
119,120.29395424375,120.72664611875,84.0,96.0
120,120.84340424375,121.00594986875,82.0,91.0
121,121.11812924374999,121.33104111875,79.0,91.0
122,121.39285424375,121.58745111875,77.0,96.0
123,121.66757924375,123.03204674374999,79.0,100.0
124,126.88735424375,127.04875518124999,77.0,95.0
125,127.16207924374999,127.30402049374999,77.0,94.0
126,127.43680424374999,127.61766486875,77.0,95.0
127,127.71152924375,128.37315861874998,82.0,91.0
128,128.81042924374998,128.97755361875,79.0,90.0
129,129.08515424375,129.29806611875,79.0,89.0
130,129.35987924375,129.52128018125,77.0,94.0
131,129.63460424375,129.84866080625,79.0,93.0
132,129.90932924375,130.16459455625,77.0,96.0
133,130.18405424374998,130.39925549375,75.0,89.0
134,130.45877924375,133.48075424375,72.0,84.0
135,134.30492924375,134.48578986875,70.0,95.0
136,134.57965424374999,134.77882986875,70.0,90.0
137,134.85437924375,136.31957924374998,72.0,100.0
138,136.50272924375,136.75913924374998,72.0,100.0
139,136.77745424375,137.01211518125,79.0,91.0
140,137.05217924375,137.90268205625,77.0,93.0
141,137.87635424375,138.06980643125,79.0,93.0
142,138.15107924375,138.29759924375,70.0,93.0
143,138.42580424375,138.61925643125,67.0,93.0
144,138.70052924375,138.89283674375,70.0,89.0
145,138.97525424375,139.18015330625,77.0,93.0
146,139.24997924375,141.55993324374998,75.0,95.0
147,143.6601148270833,144.35864349374998,72.0,96.0
148,144.48731982708333,144.66999426458332,72.0,93.0
149,144.76305482708332,144.9629627020833,72.0,96.0
150,145.03878982708332,145.18240180624997,75.0,96.0
151,145.31452482708332,145.46043459791665,77.0,95.0
152,145.59025982708332,146.05096705625,79.0,96.0
153,146.1417298270833,147.83520228541664,72.0,103.0
154,148.07187482708332,148.74282999374998,72.0,96.0
155,148.8990798270833,149.05188297291664,72.0,100.0
156,149.1748148270833,149.36208484791663,72.0,93.0
157,149.4505498270833,149.60220407708331,75.0,100.0
158,149.7262848270833,149.9089592645833,77.0,93.0
159,150.0020198270833,150.3846021395833,79.0,96.0
160,150.55348982708333,152.0734790145833,79.0,96.0
161,152.4836348270833,152.85472818124998,79.0,93.0
162,153.0351048270833,153.23041711874998,79.0,96.0
163,153.31083982708333,153.4728341395833,77.0,95.0
164,153.58657482708333,154.07025997291666,79.0,98.0
165,154.13804482708332,154.34714386874998,77.0,91.0
166,154.41377982708332,155.33978986875,79.0,96.0
167,155.5167198270833,155.71432991041664,79.0,96.0
168,155.7924548270833,156.16929266041666,84.0,95.0
169,156.3439248270833,156.52659926458333,84.0,93.0
170,156.61965982708332,157.08726043124997,82.0,94.0
171,157.17093203541663,157.39986953541663,79.0,90.0
172,157.44565703541664,160.97701797291663,82.0,91.0
173,161.29180703541664,161.48182516041663,79.0,96.0
174,161.56653203541663,161.96717266041665,82.0,98.0
175,162.11598203541664,162.27394891041664,82.0,91.0
176,162.39070703541665,162.56813359791664,82.0,93.0
177,162.66543203541664,162.88521203541663,79.0,94.0
178,162.94015703541663,163.12903047291664,77.0,96.0
179,163.21488203541665,164.56332391041664,79.0,100.0
180,164.58850703541663,165.00517328541665,79.0,100.0
181,165.13795703541663,165.31080484791664,75.0,100.0
182,165.41268203541665,165.65192172291665,77.0,93.0
183,165.68740703541664,165.93923828541665,75.0,93.0
184,165.96213203541663,168.29729453541665,72.0,95.0
185,170.08536319791665,170.32526210624997,67.0,91.0
186,170.36084519791663,170.64895345624998,70.0,89.0
187,170.63632719791664,170.90377430624997,72.0,91.0
188,170.91180919791663,171.23084803958332,70.0,95.0
189,171.1872701145833,171.4395633645833,72.0,96.0
190,171.46249911458332,171.72396666458332,75.0,96.0
191,171.73772811458332,172.0358928645833,77.0,90.0
192,172.01295711458332,172.3363511895833,79.0,93.0
193,172.2881861145833,172.8535523520833,77.0,105.0
194,173.11409870625,173.28643308124998,77.0,93.0
195,173.38983370625,173.64259078958332,77.0,95.0
196,173.66556870624999,173.93790138125,79.0,95.0
197,173.9413512375,174.21733973749997,75.0,103.0
198,174.21733973749997,174.5347265125,72.0,91.0
199,174.49332823749998,177.28771179999998,75.0,98.0
