,start,end,pitch,velocity
0,2.8795834125,3.231647175,58.0,84.0
1,2.8795834125,3.2809590374999997,63.0,91.0
2,2.8795834125,3.3337112625,51.0,95.0
3,3.7052704125,3.7855455375,67.0,80.0
4,3.7052704125,3.800453775,63.0,79.0
5,3.7052704125,3.8061877125,51.0,82.0
6,3.7052704125,3.8337106125,58.0,78.0
7,3.8428849124999997,3.9300407625,67.0,82.0
8,3.8428849124999997,3.9438022125,63.0,79.0
9,3.8428849124999997,3.95871045,58.0,80.0
10,3.9804994125,4.089444225,67.0,85.0
11,3.8428849124999997,4.0905910125,51.0,85.0
12,3.9804994125,4.0905910125,63.0,83.0
13,3.9804994125,4.0974717375,58.0,74.0
14,4.2557284125,4.355498925,58.0,91.0
15,4.2557284125,4.3589392875,67.0,93.0
16,4.2557284125,4.360086075,63.0,89.0
17,4.2557284125,4.36237965,51.0,95.0
18,4.5309574125,4.6318747125,58.0,86.0
19,4.5309574125,4.6318747125,63.0,85.0
20,4.5309574125,4.6341682875,51.0,90.0
21,4.5309574125,4.6364618625,67.0,90.0
22,4.8061864125,4.9231587375,58.0,84.0
23,4.8061864125,4.928892675,51.0,87.0
24,4.8061864125,4.9346266125,63.0,80.0
25,4.8061864125,4.9346266125,67.0,84.0
26,5.0814154125,7.1937979875,51.0,91.0
27,5.0814154125,7.217880525,58.0,88.0
28,5.0814154125,7.217880525,63.0,84.0
29,5.0814154125,7.2362291249999995,67.0,86.0
30,7.2832474125,7.614669,55.0,85.0
31,7.2832474125,7.763751375,62.0,84.0
32,7.8337054125,8.011457475,55.0,81.0
33,8.1089344125,8.3887505625,58.0,91.0
34,8.1089344125,8.4070991625,62.0,90.0
35,7.5584764125,8.5814108625,50.0,75.0
36,8.1089344125,8.5882915875,55.0,91.0
37,7.2832474125,8.7614565,43.0,89.0
38,8.659392412499999,8.841731625,50.0,82.0
39,8.9346214125,9.0217772625,58.0,95.0
40,8.9346214125,9.044713012499999,55.0,92.0
41,8.9346214125,9.0791166375,62.0,94.0
42,9.4850794125,10.07796855,60.0,90.0
43,9.4850794125,10.0997575125,63.0,90.0
44,10.3107664125,10.451821275,60.0,93.0
45,10.585995412499999,10.8566372625,60.0,91.0
46,10.585995412499999,10.8726922875,67.0,91.0
47,10.585995412499999,10.8864537375,63.0,90.0
48,10.8612244125,11.3130586875,55.0,75.0
49,11.1364534125,11.355489825,60.0,93.0
50,11.1364534125,11.649067425,63.0,96.0
51,11.1364534125,11.681177475,67.0,95.0
52,11.4116824125,11.69264535,55.0,87.0
53,9.4850794125,11.7167278875,48.0,91.0
54,11.6869114125,11.895626737499999,53.0,83.0
55,11.6869114125,11.919709274999999,56.0,84.0
56,11.6869114125,11.919709274999999,60.0,81.0
57,11.6869114125,12.4220022,41.0,93.0
58,12.5125984125,12.5653506375,65.0,84.0
59,12.5125984125,12.577965299999999,68.0,79.0
60,12.5125984125,12.5871396,60.0,80.0
61,12.650212912499999,12.704111925,65.0,87.0
62,12.650212912499999,12.7155798,68.0,83.0
63,12.650212912499999,12.7350751875,60.0,82.0
64,12.7878274125,12.866955749999999,65.0,93.0
65,12.7878274125,12.8898915,60.0,86.0
66,12.7878274125,12.8956254375,68.0,90.0
67,13.0630564125,13.1375976,65.0,98.0
68,13.0630564125,13.15135905,60.0,91.0
69,13.0630564125,13.162826925,68.0,91.0
70,13.0630564125,13.17888195,41.0,91.0
71,13.3382854125,13.4254412625,65.0,89.0
72,13.3382854125,13.444936649999999,60.0,82.0
73,13.3382854125,13.4495238,68.0,82.0
74,13.3382854125,13.47245955,41.0,89.0
75,13.613514412499999,13.6972299,65.0,85.0
76,13.613514412499999,13.7121381375,68.0,86.0
77,13.613514412499999,13.7236060125,41.0,90.0
78,13.613514412499999,13.740807825,60.0,83.0
79,13.8887434125,15.841722525,46.0,91.0
80,13.8887434125,15.93117195,58.0,87.0
81,13.8887434125,15.9541077,65.0,90.0
82,13.8887434125,15.956401275,62.0,85.0
83,16.090575412499998,16.488510675,63.0,87.0
84,16.090575412499998,16.4965381875,58.0,81.0
85,16.090575412499998,16.506859275,67.0,83.0
86,16.6410334125,17.0194732875,63.0,98.0
87,16.6410334125,17.0263540125,67.0,96.0
88,16.090575412499998,17.0332347375,39.0,94.0
89,16.6410334125,17.043555825,58.0,91.0
90,17.4667204125,17.860068525,60.0,87.0
91,17.4667204125,17.8772703375,63.0,89.0
92,17.4667204125,17.883004275,56.0,89.0
93,17.4667204125,17.919701475,44.0,91.0
94,18.017178412499998,18.1318571625,60.0,89.0
95,18.017178412499998,18.144471825,56.0,89.0
96,18.017178412499998,18.1731415125,44.0,88.0
97,18.017178412499998,18.1754350875,63.0,88.0
98,18.2924074125,18.4277283375,51.0,105.0
99,18.2924074125,18.44493015,63.0,91.0
100,18.2924074125,18.4598383875,58.0,89.0
101,18.8428654125,19.7557082625,62.0,89.0
102,18.8428654125,19.759148624999998,65.0,90.0
103,18.8428654125,19.7969926125,58.0,83.0
104,19.6685524125,20.1375885,53.0,84.0
105,18.8428654125,20.2075425375,46.0,94.0
106,19.943781412499998,22.584833025,58.0,85.0
107,19.943781412499998,22.5963009,62.0,89.0
108,19.943781412499998,22.6089155625,65.0,89.0
109,19.943781412499998,22.6318513125,70.0,85.0
110,22.6960714125,23.278267008333334,63.0,89.0
111,22.6960714125,23.29085281875,58.0,85.0
112,22.6960714125,23.75767196875,51.0,92.0
113,23.5208299,23.964765758333332,58.0,89.0
114,23.5208299,24.110074660416668,63.0,92.0
115,23.5208299,24.12266047083333,67.0,91.0
116,24.0700289,24.173003712499998,58.0,72.0
117,24.3446284,24.480783985416668,58.0,86.0
118,23.7954294,24.770257625,46.0,91.0
119,24.6192279,24.98650473125,58.0,69.0
120,24.3446284,25.1203719875,63.0,91.0
121,24.3446284,25.183301039583334,67.0,89.0
122,24.8938274,25.95446796875,51.0,94.0
123,25.7176259,26.03684781875,58.0,83.0
124,25.7176259,26.13753430208333,63.0,91.0
125,25.7176259,26.327465622916666,67.0,92.0
126,26.2668249,26.340051433333333,63.0,59.0
127,26.2668249,26.4247196125,58.0,86.0
128,25.9922254,26.783987291666666,46.0,91.0
129,26.5414244,26.861790483333333,63.0,93.0
130,26.5414244,26.89497125625,67.0,98.0
131,27.0906234,27.685588983333332,62.0,74.0
132,27.0906234,27.71190476875,65.0,57.0
133,26.8160239,27.74622970625,58.0,90.0
134,27.0906234,28.067739954166665,46.0,93.0
135,27.9144219,28.25195045208333,58.0,90.0
136,27.9144219,28.352636935416665,62.0,98.0
137,27.9144219,28.469341722916667,65.0,94.0
138,28.4636209,28.582614016666668,58.0,76.0
139,28.7382204,28.82403274375,58.0,90.0
140,28.1890214,29.073460622916667,53.0,91.0
141,28.7382204,29.153552143749998,62.0,103.0
142,29.0128199,29.195886233333333,58.0,81.0
143,28.7382204,29.33204181875,65.0,95.0
144,29.287419399999997,30.317167525,48.0,95.0
145,30.1112179,30.47620640208333,60.0,90.0
146,30.1112179,30.534558795833334,63.0,90.0
147,30.6604169,30.713048470833332,63.0,64.0
148,30.1112179,30.734787597916664,67.0,91.0
149,30.6604169,30.78513083958333,60.0,86.0
150,30.3858174,30.827464929166666,55.0,83.0
151,30.9350164,31.059730339583332,60.0,92.0
152,30.9350164,31.1615609875,63.0,91.0
153,30.9350164,31.19931841875,67.0,94.0
154,31.2096159,31.325176522916664,60.0,78.0
155,31.4842154,32.156984175,62.0,79.0
156,31.4842154,32.16156083333333,58.0,84.0
157,31.4842154,32.17643497291667,65.0,89.0
158,32.3080139,32.61121751458333,58.0,89.0
159,32.3080139,32.64897494583333,62.0,98.0
160,32.3080139,32.6924532,65.0,92.0
161,31.4842154,32.81030215208333,46.0,90.0
162,32.5826134,32.890393672916666,53.0,92.0
163,32.8572129,32.96133187708333,58.0,89.0
164,33.1318124,33.24737302291666,58.0,90.0
165,33.1318124,33.27940963125,62.0,92.0
166,33.1318124,33.2897071125,65.0,90.0
167,33.406411899999995,33.52540501666667,58.0,60.0
168,33.6810114,34.22906623541667,58.0,86.0
169,33.6810114,34.22906623541667,63.0,85.0
170,33.6810114,34.628379675,39.0,94.0
171,34.5048099,34.85149176875,58.0,90.0
172,34.5048099,34.92128580833333,63.0,96.0
173,34.5048099,34.97734987291666,67.0,96.0
174,35.0540089,35.174146181249995,58.0,87.0
175,35.3286084,35.369798325,58.0,77.0
176,34.7794094,35.70160605416667,46.0,90.0
177,35.3286084,35.968196402083336,63.0,98.0
178,35.3286084,35.979638047916666,67.0,94.0
179,35.6032079,35.98535887083333,58.0,89.0
180,36.1524069,36.23135425625,63.0,92.0
181,36.1524069,36.24050757291667,58.0,89.0
182,36.1524069,36.253093383333336,67.0,92.0
183,35.877807399999995,36.305724954166664,39.0,96.0
184,36.7016059,37.04027861666667,58.0,89.0
185,36.7016059,37.1203701375,63.0,91.0
186,36.7016059,37.2988598125,67.0,91.0
187,37.2508049,37.37323051041666,58.0,89.0
188,36.9762054,37.40297878958333,46.0,89.0
189,37.5254044,37.59748676875,58.0,83.0
190,37.5254044,37.68787577083333,63.0,93.0
191,37.5254044,37.7656789625,67.0,94.0
192,37.8000039,37.86522128125,58.0,82.0
193,38.0746034,38.64247099583333,56.0,91.0
194,38.0746034,38.78237907083333,53.0,89.0
195,38.89935139583333,38.95554398333333,53.0,78.0
196,38.0746034,38.992241183333334,41.0,91.0
197,38.89935139583333,39.305314170833334,56.0,91.0
198,38.89935139583333,39.32480955833333,65.0,91.0
199,39.449809395833334,39.49109374583333,56.0,53.0
200,38.89935139583333,39.50714877083333,60.0,89.0
201,39.17458039583333,39.55875420833333,48.0,89.0
202,39.449809395833334,39.60691928333333,53.0,92.0
203,39.72503839583333,39.77205668333333,53.0,81.0
204,39.72503839583333,39.81678139583333,56.0,98.0
205,39.72503839583333,39.82939605833333,60.0,92.0
206,39.72503839583333,39.90967118333333,65.0,90.0
207,40.27549639583333,40.91196345833333,58.0,81.0
208,40.27549639583333,40.91655060833333,63.0,85.0
209,40.27549639583333,41.29040333333333,39.0,95.0
210,41.10118339583333,41.42801783333333,58.0,89.0
211,41.376412395833334,41.601182745833334,46.0,84.0
212,41.10118339583333,41.60806347083333,67.0,92.0
213,41.10118339583333,41.70783398333333,63.0,91.0
214,41.65164139583333,41.753705483333334,58.0,90.0
215,41.92687039583333,42.02090697083333,58.0,89.0
216,41.92687039583333,42.25026447083333,63.0,92.0
217,42.20209939583333,42.25485162083333,58.0,67.0
218,41.92687039583333,42.283521308333334,67.0,94.0
219,42.47732839583333,43.04498820833333,67.0,80.0
220,42.47732839583333,43.08283219583333,60.0,83.0
221,42.47732839583333,43.086272558333334,63.0,84.0
222,42.47732839583333,43.47732709583333,48.0,90.0
223,43.30301539583333,43.616088383333334,60.0,90.0
224,43.30301539583333,43.70897817083333,63.0,90.0
225,43.30301539583333,43.75255609583333,67.0,90.0
226,43.85347339583333,43.905078833333334,63.0,69.0
227,43.85347339583333,43.94980354583333,60.0,89.0
228,43.57824439583333,44.05874835833333,55.0,92.0
229,44.12870239583333,44.24567472083333,60.0,91.0
230,44.40393139583333,44.81448132083333,60.0,87.0
231,44.12870239583333,44.92457292083333,63.0,93.0
232,44.12870239583333,44.97961872083333,67.0,95.0
233,44.67916039583333,45.57136107083333,48.0,91.0
234,45.50484739583333,45.83397540833333,60.0,91.0
235,45.50484739583333,45.96585597083333,67.0,93.0
236,45.50484739583333,45.96700275833333,63.0,92.0
237,46.05530539583333,46.120672283333334,63.0,45.0
238,46.05530539583333,46.17571808333333,60.0,90.0
239,45.78007639583333,46.26287393333333,43.0,90.0
240,46.33053439583333,46.59888267083333,67.0,98.0
241,46.33053439583333,46.62411199583333,63.0,94.0
242,46.60576339583333,46.68030458333333,60.0,85.0
243,46.88099239583333,47.55645023333333,60.0,88.0
244,46.88099239583333,47.58053277083333,56.0,86.0
245,46.88099239583333,47.82823887083333,44.0,90.0
246,47.70667939583333,47.97732124583333,63.0,89.0
247,47.70667939583333,47.98534875833333,56.0,90.0
248,47.70667939583333,47.99452305833333,60.0,91.0
249,47.98190839583333,48.32135749583333,51.0,93.0
250,48.25713739583333,48.36608220833333,56.0,91.0
251,48.53236639583333,48.60232043333333,56.0,90.0
252,48.53236639583333,48.74337529583333,60.0,96.0
253,48.53236639583333,48.85232010833333,63.0,93.0
254,48.80759539583333,48.88098979583333,56.0,88.0
255,49.08282439583333,49.801860158333334,58.0,86.0
256,49.08282439583333,49.80300694583333,62.0,83.0
257,49.08282439583333,50.06218092083333,46.0,90.0
258,49.90851139583333,50.24107977083333,58.0,91.0
259,49.90851139583333,50.33052919583333,62.0,92.0
260,50.18374039583333,50.48649229583333,53.0,91.0
261,50.45896939583333,50.50713447083333,62.0,57.0
262,49.90851139583333,50.52548307083333,65.0,93.0
263,50.45896939583333,50.62525358333333,58.0,89.0
264,50.73419839583333,50.92915227083333,62.0,93.0
265,50.73419839583333,50.95896874583333,70.0,80.0
266,50.73419839583333,51.08970252083333,65.0,94.0
267,51.00942739583333,51.13442723333333,58.0,81.0
268,51.28465639583333,51.44405985833333,58.0,88.0
269,51.28465639583333,51.447500220833334,63.0,90.0
270,51.559885395833334,51.996811433333335,58.0,92.0
271,51.559885395833334,52.00713252083333,63.0,91.0
272,51.28465639583333,52.33970089583333,39.0,91.0
273,52.11034339583333,52.39359990833333,58.0,89.0
274,52.11034339583333,52.46928788333333,63.0,91.0
275,52.11034339583333,52.587406995833334,67.0,93.0
276,52.66080139583333,52.76859942083333,63.0,67.0
277,52.66080139583333,52.81103055833333,58.0,90.0
278,52.38557239583333,53.15621359583333,46.0,89.0
279,52.93603039583333,53.31217669583333,63.0,93.0
280,52.93603039583333,53.34084638333333,67.0,92.0
281,53.21125939583333,53.377543583333335,58.0,86.0
282,53.486488395833334,53.62180932083333,58.0,86.0
283,53.486488395833334,53.62410289583333,63.0,88.0
284,53.486488395833334,53.63557077083333,39.0,95.0
285,53.76171739583333,54.15506550833333,58.0,90.0
286,53.76171739583333,54.17226732083333,63.0,90.0
287,54.31217539583333,54.62066123333333,58.0,90.0
288,54.31217539583333,54.678000608333335,63.0,100.0
289,54.31217539583333,54.74795464583333,67.0,94.0
290,54.86263339583333,54.934881008333335,63.0,73.0
291,54.86263339583333,54.984192870833326,58.0,91.0
292,54.58740439583333,55.20093570833333,46.0,90.0
293,53.76171739583333,55.20666964583333,39.0,96.0
294,55.13786239583333,55.273183320833326,58.0,91.0
295,55.13786239583333,55.29611907083333,63.0,95.0
296,55.413091395833334,55.561026983333335,62.0,100.0
297,55.68832039583333,56.01515483333333,63.0,92.0
298,55.68832039583333,56.15276933333333,60.0,90.0
299,55.68832039583333,56.66194298333333,48.0,95.0
300,56.51400739583333,56.874098670833334,60.0,89.0
301,56.51400739583333,56.96584167083333,63.0,91.0
302,57.06446539583333,57.12753870833333,63.0,55.0
303,56.51400739583333,57.14474052083333,67.0,93.0
304,57.06446539583333,57.16194233333333,60.0,83.0
305,56.78923639583333,57.46010708333333,55.0,89.0
306,57.339694395833334,57.475015320833336,60.0,92.0
307,57.61492339583333,57.761712195833326,60.0,77.0
308,57.339694395833334,57.78235437083333,63.0,94.0
309,57.339694395833334,57.81561120833333,67.0,91.0
310,57.890152395833326,58.42914252083333,63.0,90.0
311,57.890152395833326,58.45322505833333,60.0,89.0
312,58.44061039583333,58.805288820833326,55.0,81.0
313,58.71583939583333,58.95322440833333,60.0,91.0
314,58.71583939583333,58.993361970833334,67.0,96.0
315,59.266297395833334,59.40849904583333,60.0,85.0
316,58.99106839583333,59.45666412083333,55.0,76.0
317,57.890152395833326,59.61721437083333,48.0,94.0
318,59.54152639583333,59.71469130833333,60.0,96.0
319,59.54152639583333,59.77547104583333,63.0,98.0
320,59.816755395833326,59.929140570833326,62.0,96.0
321,60.091984395833336,60.70322213333333,60.0,90.0
322,60.091984395833336,60.72042394583333,56.0,90.0
323,60.64244239583333,61.12638672083333,51.0,85.0
324,60.91767139583333,61.54267058333333,56.0,95.0
325,60.91767139583333,61.54840452083333,63.0,96.0
326,60.91767139583333,61.55643203333333,60.0,95.0
327,61.46812939583333,61.79611062083333,51.0,87.0
328,61.743358395833326,61.83395460833333,56.0,91.0
329,60.091984395833336,61.86033072083333,44.0,90.0
330,61.743358395833326,62.047257083333335,60.0,96.0
331,61.743358395833326,62.09083500833333,63.0,95.0
332,62.01858739583333,62.12294505833333,56.0,84.0
333,62.29381639583333,62.60115544583333,58.0,84.0
334,62.29381639583333,62.658494820833326,63.0,82.0
335,62.84427439583333,62.96583387083333,58.0,89.0
336,62.56904539583333,63.25597110833333,46.0,82.0
337,63.119503395833334,63.424548870833334,58.0,90.0
338,63.119503395833334,63.541521195833326,63.0,96.0
339,63.119503395833334,63.54840192083333,67.0,95.0
340,63.669961395833326,63.765144758333335,63.0,56.0
341,63.669961395833326,63.79954838333333,58.0,89.0
342,62.29381639583333,64.06674987083333,39.0,91.0
343,63.94519039583333,64.10803422083333,63.0,94.0
344,63.94519039583333,64.11491494583333,58.0,92.0
345,63.39473239583333,64.14243784583333,46.0,65.0
346,64.49564839583333,64.90963868333333,67.0,90.0
347,64.49564839583333,65.04725318333334,62.0,91.0
348,65.04610639583333,65.21583094583333,58.0,85.0
349,64.77087739583334,65.72500459583333,50.0,77.0
350,64.49564839583333,65.91766489583333,43.0,100.0
351,65.32133539583333,65.95321530833333,58.0,91.0
352,65.32133539583333,66.00023359583332,62.0,98.0
353,65.32133539583333,66.01858219583333,67.0,90.0
354,65.87179339583332,66.18830674583333,50.0,77.0
355,66.14702239583333,66.30298549583333,58.0,92.0
356,66.14702239583333,66.52546227083333,62.0,96.0
357,66.42225139583333,66.54266408333334,58.0,83.0
358,66.69748039583334,67.36032357083333,63.0,92.0
359,66.69748039583334,67.37179144583334,60.0,88.0
360,67.24793839583333,67.67339655833334,55.0,83.0
361,67.52316739583333,68.16880875833333,67.0,93.0
362,67.52316739583333,68.17568948333333,63.0,96.0
363,67.52316739583333,68.18142342083333,60.0,91.0
364,68.07362539583333,68.35229475833333,55.0,87.0
365,66.69748039583334,68.45091848333334,48.0,90.0
366,68.34885439583333,68.50252392083333,60.0,92.0
367,68.34885439583333,68.58623940833333,63.0,94.0
368,68.62408339583334,68.71238603333333,60.0,74.0
369,68.34885439583333,68.71353282083334,67.0,94.0
370,68.89931239583333,69.03119295833334,58.0,91.0
371,68.89931239583333,69.04151404583334,62.0,95.0
372,68.89931239583333,69.04495440833333,65.0,94.0
373,69.17454139583333,69.57880919374999,58.0,91.0
374,69.17454139583333,69.57995335833333,62.0,96.0
375,69.17454139583333,69.58338585208332,65.0,95.0
376,69.72411809583332,70.03990752083332,58.0,92.0
377,69.72411809583332,70.06736747083332,70.0,91.0
378,69.72411809583332,70.08567410416666,65.0,103.0
379,69.72411809583332,70.09368325624999,62.0,96.0
380,70.27331709583332,70.32480450208332,65.0,81.0
381,70.27331709583332,70.43922096041666,58.0,98.0
382,70.54791659583333,70.75272205625,65.0,94.0
383,70.54791659583333,70.76073120833333,62.0,94.0
384,69.99871759583333,70.93464422499999,53.0,88.0
385,70.82251609583332,70.97697831458332,65.0,62.0
386,68.89931239583333,70.98384330208332,46.0,91.0
387,70.82251609583332,71.03418654374998,58.0,86.0
388,71.09711559583332,71.21038788958332,62.0,81.0
389,71.09711559583332,71.21153205416665,58.0,84.0
390,71.09711559583332,71.21839704166665,65.0,89.0
391,71.09711559583332,71.26759611874999,46.0,90.0
392,71.37171509583332,71.72755028124999,62.0,94.0
393,71.37171509583332,71.72755028124999,65.0,95.0
394,71.37171509583332,71.73555943333332,58.0,91.0
395,71.64631459583332,71.95638319791665,53.0,94.0
396,71.92091409583333,72.23555935625,58.0,94.0
397,71.92091409583333,72.28132593958333,62.0,103.0
398,71.92091409583333,72.28132593958333,65.0,105.0
399,71.92091409583333,72.28247010416665,70.0,90.0
400,72.47011309583333,72.50214970416665,62.0,67.0
401,72.47011309583333,72.57079957916666,65.0,87.0
402,72.47011309583333,72.61885449166665,58.0,94.0
403,72.19551359583332,72.66919773333332,53.0,94.0
404,71.37171509583332,72.73098262083332,46.0,95.0
405,72.74471259583332,72.85455239583332,58.0,90.0
406,72.74471259583332,72.94951805624999,62.0,98.0
407,73.01931209583333,73.17148598541665,58.0,85.0
408,72.74471259583332,73.17949513749998,65.0,96.0
409,73.29391159583332,73.91519296458333,58.0,90.0
410,73.29391159583332,73.91976962291666,63.0,91.0
411,73.84311059583332,74.17377416041666,46.0,80.0
412,74.11771009583332,74.53876266249999,58.0,90.0
413,74.11771009583332,74.73899146458332,63.0,95.0
414,74.11771009583332,74.75958642708332,67.0,95.0
415,73.29391159583332,74.84883126458332,39.0,93.0
416,74.66690909583332,74.85912874583332,46.0,84.0
417,74.94150859583333,74.99871682499999,58.0,89.0
418,74.94150859583333,75.34539869374998,63.0,93.0
419,75.21610809583332,75.35684033958333,58.0,84.0
420,74.94150859583333,75.37171447916666,67.0,95.0
421,75.49070759583333,75.64974647291666,58.0,89.0
422,75.49070759583333,75.85684026249999,63.0,90.0
423,75.76530709583332,76.14288140833332,58.0,76.0
424,76.03990659583332,76.15317888958332,63.0,85.0
425,75.49070759583333,76.59139392499999,51.0,90.0
426,76.31450609583332,76.64059300208332,58.0,91.0
427,76.31450609583332,76.91748083124999,63.0,93.0
428,76.31450609583332,76.91976916041665,67.0,96.0
429,76.86370509583332,77.00672566875,58.0,89.0
430,77.13830459583332,77.25844187708333,58.0,90.0
431,76.58910559583332,77.46667983124999,46.0,93.0
432,77.13830459583332,77.5387622,63.0,94.0
433,77.41290409583333,77.56164549166665,58.0,86.0
434,77.13830459583332,77.57651963125,67.0,95.0
435,77.68750359583332,78.31908244583332,63.0,86.0
436,77.68750359583332,78.32137077499999,60.0,88.0
437,77.68750359583332,78.67262930208332,48.0,90.0
438,78.51130209583332,78.83281234374999,60.0,90.0
439,78.78590159583332,79.00558119583332,55.0,91.0
440,78.51130209583332,79.11542099583332,67.0,91.0
441,78.51130209583332,79.12915097083332,63.0,91.0
442,79.06050109583332,79.49871613124999,60.0,96.0
443,79.33510059583332,79.67949413541666,43.0,92.0
444,79.60970009583332,79.98613024374998,63.0,83.0
445,79.60970009583332,79.99070690208332,60.0,94.0
446,80.15889909583332,80.45752605208332,60.0,90.0
447,79.88429959583333,80.90832689791665,48.0,93.0
448,80.70809809583332,81.06164495208333,60.0,89.0
449,80.70809809583332,81.11084402916666,63.0,91.0
450,80.70809809583332,81.12228567499999,67.0,93.0
451,81.25729709583332,81.29391036249999,63.0,74.0
452,80.98269759583332,81.35340692083332,55.0,76.0
453,81.25729709583332,81.39802933958332,60.0,95.0
454,81.53189659583332,81.64745721874999,60.0,93.0
455,81.53189659583332,81.72182791666665,63.0,95.0
456,81.53189659583332,81.78475696874999,67.0,93.0
457,82.08109559583332,82.21267452291666,58.0,83.0
458,82.08109559583332,82.21381868749998,43.0,95.0
459,82.08109559583332,82.21725118124999,55.0,79.0
460,82.35569509583333,82.48269736458332,43.0,80.0
461,82.35569509583333,82.48727402291665,58.0,84.0
462,82.35569509583333,82.49413901041666,55.0,83.0
463,82.63029459583332,82.74699938333332,43.0,94.0
464,82.63029459583332,82.75958519374998,55.0,85.0
465,82.63029459583332,82.76530601666666,58.0,85.0
466,82.90489409583333,83.03189636458332,43.0,96.0
467,82.90489409583333,83.03189636458332,58.0,89.0
468,82.90489409583333,83.03418469374999,55.0,87.0
469,83.17949359583332,83.31908167499999,60.0,85.0
470,83.17949359583332,83.33738830833332,63.0,90.0
471,83.17949359583332,83.35111828333332,48.0,91.0
472,83.45409309583331,83.60741114999999,48.0,90.0
473,83.45409309583331,83.61198780833332,60.0,86.0
474,83.45409309583331,83.61542030208332,63.0,89.0
475,83.72869259583332,83.86942483958332,60.0,85.0
476,83.72869259583332,83.87514566249999,48.0,91.0
477,83.72869259583332,83.87743399166665,63.0,89.0
478,84.00329209583332,84.15088932708332,60.0,89.0
479,84.00329209583332,84.17377261875,63.0,90.0
480,84.00329209583332,84.18635842916666,48.0,91.0
481,84.27789159583332,85.06393266458332,65.0,90.0
482,84.27789159583332,85.10169009583332,60.0,89.0
483,84.27789159583332,85.22411570624999,53.0,100.0
484,85.37628959583333,85.92320026666665,62.0,76.0
485,85.37628959583333,85.93235358333332,65.0,89.0
486,85.37628959583333,85.95523687499998,58.0,85.0
487,85.37628959583333,85.97239934374998,46.0,90.0
488,86.47468759583332,87.10855477499999,55.0,76.0
489,86.47468759583332,87.12571724374999,58.0,81.0
490,86.47468759583332,87.13029390208332,51.0,81.0
491,87.29848609583333,87.72983614374999,51.0,90.0
492,87.29848609583333,87.78246771458332,63.0,90.0
493,87.29848609583333,87.85226175416665,55.0,93.0
494,87.29848609583333,87.87400088124998,58.0,91.0
495,86.47468759583332,88.48498476875,39.0,91.0
496,87.57308559583332,88.49757057916665,46.0,90.0
497,88.39688409583331,88.74127763541665,51.0,91.0
498,88.12228459583332,88.75157511666666,55.0,91.0
499,88.12228459583332,88.75271928125,58.0,90.0
500,88.12228459583332,88.75500761041665,63.0,90.0
501,88.94608309583332,89.05020207291665,51.0,83.0
502,88.94608309583332,89.05477873125,58.0,88.0
503,88.94608309583332,89.05821122499998,55.0,89.0
504,88.94608309583332,89.06736454166665,63.0,89.0
505,88.67148359583332,89.70695254374999,39.0,94.0
506,89.49528209583332,89.86141476249999,51.0,91.0
507,89.49528209583332,90.13830259166666,55.0,90.0
508,89.49528209583332,90.15660922499998,63.0,89.0
509,89.49528209583332,90.16461837708331,58.0,89.0
510,90.04448109583332,90.39345129374999,51.0,86.0
511,90.59368009583332,90.81335969583333,51.0,87.0
512,90.31908059583333,90.82136884791666,55.0,81.0
513,89.76988159583333,90.84081964583332,46.0,89.0
514,90.31908059583333,90.85340545624999,58.0,84.0
515,90.31908059583333,90.86713543124999,63.0,85.0
516,90.86827959583331,91.21953812291665,58.0,84.0
517,90.86827959583331,91.26873719999999,63.0,91.0
518,90.86827959583331,91.32138811874998,51.0,95.0
519,91.69226686874998,91.77239499374998,67.0,80.0
520,91.69226686874998,91.78727593124998,63.0,79.0
521,91.69226686874998,91.79299936874999,51.0,82.0
522,91.69226686874998,91.82047186874998,58.0,78.0
523,91.82962936874998,91.91662561874998,67.0,82.0
524,91.82962936874998,91.93036186874998,63.0,79.0
525,91.82962936874998,91.94524280624998,58.0,80.0
526,91.96699186874999,92.07573718124998,67.0,85.0
527,91.82962936874998,92.07688186874998,51.0,85.0
528,91.96699186874999,92.07688186874998,63.0,83.0
529,91.96699186874999,92.08374999374998,58.0,74.0
530,92.24171686874998,92.34130468124998,58.0,91.0
531,92.24171686874998,92.34473874374999,67.0,93.0
532,92.24171686874998,92.34588343124999,63.0,89.0
533,92.24171686874998,92.34817280624998,51.0,95.0
534,92.51644186874998,92.61717436874999,58.0,86.0
535,92.51644186874998,92.61717436874999,63.0,85.0
536,92.51644186874998,92.61946374374998,51.0,90.0
537,92.51644186874998,92.62175311874998,67.0,90.0
538,92.79116686874998,92.90792499374999,58.0,84.0
539,92.79116686874998,92.91364843124998,51.0,87.0
540,92.79116686874998,92.91937186874998,63.0,80.0
541,92.79116686874998,92.91937186874998,67.0,84.0
542,93.06589186874999,95.17440624374998,51.0,91.0
543,93.06589186874999,95.19844468124998,58.0,88.0
544,93.06589186874999,95.19844468124998,63.0,84.0
545,93.06589186874999,95.21675968124998,67.0,86.0
546,95.26369186874999,95.59450655624998,55.0,85.0
547,95.26369186874999,95.74331593124998,62.0,84.0
548,95.81314186874998,95.99056843124998,55.0,81.0
549,96.08786686874998,96.36717061874998,58.0,91.0
550,96.08786686874998,96.38548561874998,62.0,90.0
551,95.53841686874998,96.55947811874998,50.0,75.0
552,96.08786686874998,96.56634624374998,55.0,91.0
553,95.26369186874999,96.73919405624999,43.0,89.0
554,96.63731686874998,96.81932218124999,50.0,82.0
555,96.91204186874998,96.99903811874998,58.0,95.0
556,96.91204186874998,97.02193186874999,55.0,92.0
557,96.91204186874998,97.05627249374999,62.0,94.0
558,97.46149186874999,98.05329530624998,60.0,90.0
559,97.46149186874999,98.07504436874999,63.0,90.0
560,98.28566686874998,98.42646343124999,60.0,93.0
561,98.56039186874999,98.83053811874998,60.0,91.0
562,98.56039186874999,98.84656374374998,67.0,91.0
563,98.56039186874999,98.86029999374998,63.0,90.0
564,98.83511686874998,99.28612374374998,55.0,75.0
565,99.10984186874998,99.32847718124998,60.0,93.0
566,99.10984186874998,99.62151718124998,63.0,96.0
567,99.10984186874998,99.65356843124998,67.0,95.0
568,99.38456686874999,99.66501530624998,55.0,87.0
569,97.46149186874999,99.68905374374998,48.0,91.0
570,99.65929186874999,99.86762499374998,53.0,83.0
571,99.65929186874999,99.89166343124998,56.0,84.0
572,99.65929186874999,99.89166343124998,60.0,81.0
573,99.65929186874999,100.39303655624998,41.0,93.0
574,100.48346686874999,100.53612249374999,65.0,84.0
575,100.48346686874999,100.54871405624998,68.0,79.0
576,100.48346686874999,100.55787155624998,60.0,80.0
577,100.62082936874998,100.67462968124998,65.0,87.0
578,100.62082936874998,100.68607655624999,68.0,83.0
579,100.62082936874998,100.70553624374998,60.0,82.0
580,100.75819186874998,100.83717530624997,65.0,93.0
581,100.75819186874998,100.86006905624998,60.0,86.0
582,100.75819186874998,100.86579249374998,68.0,90.0
583,101.03291686874998,101.10732155624999,65.0,98.0
584,101.03291686874998,101.12105780624998,60.0,91.0
585,101.03291686874998,101.13250468124998,68.0,91.0
586,101.03291686874998,101.14853030624998,41.0,91.0
587,101.30764186874998,101.39463811874998,65.0,89.0
588,101.30764186874998,101.41409780624998,60.0,82.0
589,101.30764186874998,101.41867655624998,68.0,82.0
590,101.30764186874998,101.44157030624999,41.0,89.0
591,101.58236686874999,101.66592905624998,65.0,85.0
592,101.58236686874999,101.68080999374999,68.0,86.0
593,101.58236686874999,101.69225686874998,41.0,90.0
594,101.58236686874999,101.70942718124998,60.0,83.0
595,101.85709186874999,103.81017697291665,46.0,91.0
596,101.85709186874999,103.89979084791665,58.0,87.0
597,101.85709186874999,103.92276876458332,65.0,90.0
598,101.85709186874999,103.92506655624999,62.0,85.0
599,104.05948736874998,104.45815422291665,63.0,87.0
600,104.05948736874998,104.46619649374999,58.0,81.0
601,104.05948736874998,104.47653655624998,67.0,83.0
602,104.61095736875,104.99009299374998,63.0,98.0
603,104.61095736875,104.99698636874999,67.0,96.0
604,104.05948736874998,105.00387974374999,39.0,94.0
605,104.61095736875,105.01421980624998,58.0,91.0
606,105.43816236874999,105.83223363958332,60.0,87.0
607,105.43816236874999,105.84946707708332,63.0,89.0
608,105.43816236874999,105.85521155624998,56.0,89.0
609,105.43816236874999,105.89197622291665,44.0,91.0
610,105.98963236875,106.10452195208332,60.0,89.0
611,105.98963236875,106.11715980624999,56.0,89.0
612,105.98963236875,106.14588220208333,44.0,88.0
613,105.98963236875,106.14817999374999,63.0,88.0
614,106.26536736874999,106.40093707708333,51.0,105.0
615,106.26536736874999,106.41817051458332,63.0,91.0
616,106.26536736874999,106.43310616041666,58.0,89.0
617,106.81683736874999,107.73135845208333,62.0,89.0
618,106.81683736874999,107.73480513958332,65.0,90.0
619,106.81683736874999,107.77271870208332,58.0,83.0
620,107.64404236875,108.11394076458332,53.0,84.0
621,106.81683736874999,108.18402341041666,46.0,94.0
622,107.91977736874999,110.56568447291666,58.0,85.0
623,107.91977736874999,110.57717343124999,62.0,89.0
624,107.91977736874999,110.58981128541666,65.0,89.0
625,107.91977736874999,110.61278920208332,70.0,85.0
626,110.67712736874999,111.26008049375,63.0,89.0
627,110.67712736874999,111.27267205624999,58.0,85.0
628,110.67712736874999,111.73970455624999,51.0,92.0
629,111.50275424374999,111.94689299375,58.0,89.0
630,111.50275424374999,112.09226830624999,63.0,92.0
631,111.50275424374999,112.10485986875,67.0,91.0
632,112.05220424375,112.15522611875,58.0,72.0
633,112.32692924374999,112.46314705625,58.0,86.0
634,111.77747924375,112.75275299375,46.0,91.0
635,112.60165424374999,112.96909893124999,58.0,69.0
636,112.32692924374999,113.10302736874999,63.0,91.0
637,112.32692924374999,113.16598518125,67.0,89.0
638,112.87637924375,113.93750455624999,51.0,94.0
639,113.70055424374999,114.01992205625,58.0,83.0
640,113.70055424374999,114.12065455624999,63.0,91.0
641,113.70055424374999,114.31067268125,67.0,92.0
642,114.25000424375,114.32326424374999,63.0,59.0
643,114.25000424375,114.40797111875,58.0,86.0
644,113.97527924375,114.76740299375,46.0,91.0
645,114.52472924374999,114.84524174375,63.0,93.0
646,114.52472924374999,114.87843768124999,67.0,98.0
647,115.07417924375,115.66941674374999,62.0,74.0
648,115.07417924375,115.69574455624999,65.0,57.0
649,114.79945424374999,115.73008518124999,58.0,90.0
650,115.07417924375,116.05174236875,46.0,93.0
651,115.89835424374999,116.23603705625,58.0,90.0
652,115.89835424374999,116.33676955624999,62.0,98.0
653,115.89835424374999,116.45352768125,65.0,94.0
654,116.44780424375,116.56685174375,58.0,76.0
655,116.72252924374999,116.80838080625,58.0,90.0
656,116.17307924375,117.05792268124999,53.0,91.0
657,116.72252924374999,117.13805080624999,62.0,103.0
658,116.99725424374999,117.18040424374999,58.0,81.0
659,116.72252924374999,117.31662205625,65.0,95.0
660,117.27197924375,118.30219799375,48.0,95.0
661,118.09615424375,118.46130955625,60.0,90.0
662,118.09615424375,118.51968861875,63.0,90.0
663,118.64560424375,118.69825986875,63.0,64.0
664,118.09615424375,118.72000893124999,67.0,91.0
665,118.64560424375,118.77037518124999,60.0,86.0
666,118.37087924375,118.81272861874999,55.0,83.0
667,118.92032924374999,119.04510018124999,60.0,92.0
668,118.92032924374999,119.14697736874999,63.0,91.0
669,118.92032924374999,119.18475205624999,67.0,94.0
670,119.19505424375,119.31066768125,60.0,78.0
671,119.46977924375,120.14285549374999,62.0,79.0
672,119.46977924375,120.14743424375,58.0,84.0
673,119.46977924375,120.16231518125,65.0,89.0
674,120.29395424375,120.59729643124999,58.0,89.0
675,120.29395424375,120.63507111874999,62.0,98.0
676,120.29395424375,120.67856924374999,65.0,92.0
677,119.46977924375,120.79647205625,46.0,90.0
678,120.56867924375,120.87660018125,53.0,92.0
679,120.84340424375,120.94757080625,58.0,89.0
680,121.11812924374999,121.23374268124999,58.0,90.0
681,121.11812924374999,121.26579393124999,62.0,92.0
682,121.11812924374999,121.27609611874999,65.0,90.0
683,121.39285424375,121.51190174374999,58.0,60.0
684,121.66757924375,122.21588455624999,58.0,86.0
685,121.66757924375,122.21588455624999,63.0,85.0
686,121.66757924375,122.61538049375,39.0,94.0
687,122.49175424375,122.83859455625,58.0,90.0
688,122.49175424375,122.90842049374999,63.0,96.0
689,122.49175424375,122.96451018124999,67.0,96.0
690,123.04120424374999,123.16139643125,58.0,87.0
691,123.31592924374999,123.35713799375,58.0,77.0
692,122.76647924375,123.68909736875,46.0,90.0
693,123.31592924374999,123.95580955624999,63.0,98.0
694,123.31592924374999,123.96725643125,67.0,94.0
695,123.59065424375,123.97297986874999,58.0,89.0
696,124.14010424374999,124.21908768124999,63.0,92.0
697,124.14010424374999,124.22824518124999,58.0,89.0
698,124.14010424374999,124.24083674375,67.0,92.0
699,123.86537924375,124.29349236875,39.0,96.0
700,124.68955424375,125.02838174374999,58.0,89.0
701,124.68955424375,125.10850986874999,63.0,91.0
702,124.68955424375,125.28708111875,67.0,91.0
703,125.23900424374999,125.36148580624999,58.0,89.0
704,124.96427924375,125.39124768125,46.0,89.0
705,125.51372924374999,125.58584455625,58.0,83.0
706,125.51372924374999,125.67627486875,63.0,93.0
707,125.51372924374999,125.75411361875,67.0,94.0
708,125.78845424375,125.85370143124999,58.0,82.0
709,126.06317924375,126.63094424375,56.0,91.0
710,126.06317924375,126.77059611874999,53.0,89.0
711,126.88735424375,126.94344393124999,53.0,78.0
712,126.06317924375,126.98007393124999,41.0,91.0
713,126.88735424375,127.29257361875,56.0,91.0
714,126.88735424375,127.31203330624999,65.0,91.0
715,127.43680424374999,127.47801299374999,56.0,53.0
716,126.88735424375,127.49403861875,60.0,89.0
717,127.16207924374999,127.54554955625,48.0,89.0
718,127.43680424374999,127.59362643124999,53.0,92.0
719,127.71152924375,127.75846143125,53.0,81.0
720,127.71152924375,127.80310424375,56.0,98.0
721,127.71152924375,127.81569580624999,60.0,92.0
722,127.71152924375,127.89582393124999,65.0,90.0
723,128.26097924375,128.89628080625,58.0,81.0
724,128.26097924375,128.90085955625,63.0,85.0
725,128.26097924375,129.27402768125,39.0,95.0
726,129.08515424375,129.41139018125,58.0,89.0
727,129.35987924375,129.58423799374998,46.0,84.0
728,129.08515424375,129.59110611875,67.0,92.0
729,129.08515424375,129.69069393125,63.0,91.0
730,129.63460424375,129.73648143124998,58.0,90.0
731,129.90932924375,130.00319361875,58.0,89.0
732,129.90932924375,130.23213111875,63.0,92.0
733,130.18405424374998,130.23670986874998,58.0,67.0
734,129.90932924375,130.26532705625,67.0,94.0
735,130.45877924375,131.02539955625,67.0,80.0
736,130.45877924375,131.06317424374998,60.0,83.0
737,130.45877924375,131.06660830625,63.0,84.0
738,130.45877924375,131.45694674375,48.0,90.0
739,131.28295424375,131.59545393125,60.0,90.0
740,131.28295424375,131.68817361875,63.0,90.0
741,131.28295424375,131.73167174374998,67.0,90.0
742,131.83240424375,131.88391518125,63.0,69.0
743,131.83240424375,131.92855799375,60.0,89.0
744,131.55767924375,132.03730330625,55.0,92.0
745,132.10712924375,132.22388736874998,60.0,91.0
746,132.38185424374998,132.79165236875,60.0,87.0
747,132.10712924375,132.90154236875,63.0,93.0
748,132.10712924375,132.95648736875,67.0,95.0
749,132.65657924375,133.54714611875,48.0,91.0
750,133.48075424375,133.80927955625,60.0,91.0
751,133.48075424375,133.94091861875,67.0,93.0
752,133.48075424375,133.94206330625,63.0,92.0
753,134.03020424375,134.09545143124998,63.0,45.0
754,134.03020424375,134.15039643125,60.0,90.0
755,133.75547924375,134.23739268125,43.0,90.0
756,134.30492924375,134.57278611875,67.0,98.0
757,134.30492924375,134.59796924375,63.0,94.0
758,134.57965424374999,134.65405893125,60.0,85.0
759,134.85437924375,135.52860018125,60.0,88.0
760,134.85437924375,135.55263861875,56.0,86.0
761,134.85437924375,135.79989111875,44.0,90.0
762,135.67855424375,135.94870049374998,63.0,89.0
763,135.67855424375,135.95671330624998,56.0,90.0
764,135.67855424375,135.96587080625,60.0,91.0
765,135.95327924375,136.29210674375,51.0,93.0
766,136.22800424374998,136.33674955625,56.0,91.0
767,136.50272924375,136.57255518124998,56.0,90.0
768,136.50272924375,136.71335174375,60.0,96.0
769,136.50272924375,136.82209705625,63.0,93.0
770,136.77745424375,136.85071424375,56.0,88.0
771,137.05217924375,137.76989830624998,58.0,86.0
772,137.05217924375,137.77104299375,62.0,83.0
773,137.05217924375,138.02974236875,46.0,90.0
774,137.87635424375,138.20831361875,58.0,91.0
775,137.87635424375,138.29759924375,62.0,92.0
776,138.15107924375,138.45327674375,53.0,91.0
777,138.42580424375,138.47388111875,62.0,57.0
778,137.87635424375,138.49219611875,65.0,93.0
779,138.42580424375,138.59178393125,58.0,89.0
780,138.70052924375,138.89512611875,62.0,93.0
781,138.70052924375,138.92488799375,70.0,80.0
782,138.70052924375,139.05538236875,65.0,94.0
783,138.97525424375,139.10002518125,58.0,81.0
784,139.24997924375,139.40909080625,58.0,88.0
785,139.24997924375,139.41252486874998,63.0,90.0
786,139.52470424375,139.96181913958333,58.0,92.0
787,139.52470424375,139.9721592020833,63.0,91.0
788,139.24997924375,140.30533899374998,39.0,91.0
789,140.0755598270833,140.35933709791664,58.0,89.0
790,140.0755598270833,140.43516422291665,63.0,91.0
791,140.0755598270833,140.55350049375,67.0,93.0
792,140.6270298270833,140.73502603541664,63.0,67.0
793,140.6270298270833,140.77753518125,58.0,90.0
794,140.3512948270833,141.12335282708332,46.0,89.0
795,140.9027648270833,141.27960266041666,63.0,93.0
796,140.9027648270833,141.30832505624997,67.0,92.0
797,141.1784998270833,141.34508972291664,58.0,86.0
798,141.45423482708333,141.58980453541665,58.0,86.0
799,141.45423482708333,141.59210232708332,63.0,88.0
800,141.45423482708333,141.60359128541666,39.0,95.0
801,141.72996982708332,142.12404109791666,58.0,90.0
802,141.72996982708332,142.14127453541664,63.0,90.0
803,142.28143982708332,142.59049280624998,58.0,90.0
804,142.28143982708332,142.64793759791664,63.0,100.0
805,142.28143982708332,142.71802024374998,67.0,94.0
806,142.8329098270833,142.9052902645833,63.0,73.0
807,142.8329098270833,142.95469278541665,58.0,91.0
808,142.55717482708332,143.17183409791664,46.0,90.0
809,141.72996982708332,143.17757857708332,39.0,96.0
810,143.1086448270833,143.24421453541666,58.0,91.0
811,143.1086448270833,143.26719245208332,63.0,95.0
812,143.3843798270833,143.5325873895833,62.0,100.0
813,143.6601148270833,143.9875501395833,63.0,92.0
814,143.6601148270833,144.1254176395833,60.0,90.0
815,143.6601148270833,144.6355273895833,48.0,95.0
816,144.48731982708333,144.84807311875,60.0,89.0
817,144.48731982708333,144.93998478541664,63.0,91.0
818,145.03878982708332,145.10197909791665,63.0,55.0
819,144.48731982708333,145.11921253541664,67.0,93.0
820,145.03878982708332,145.13644597291665,60.0,83.0
821,144.76305482708332,145.4351588895833,55.0,89.0
822,145.31452482708332,145.45009453541664,60.0,92.0
823,145.59025982708332,145.73731849374997,60.0,77.0
824,145.31452482708332,145.75799861874998,63.0,94.0
825,145.31452482708332,145.79131659791665,67.0,91.0
826,145.8659948270833,146.40597586874998,63.0,90.0
827,145.8659948270833,146.43010268125,60.0,89.0
828,146.4174648270833,146.7828137020833,55.0,81.0
829,146.6931998270833,146.9310212645833,60.0,91.0
830,146.6931998270833,146.97123261874998,67.0,96.0
831,147.24466982708333,147.38713291041665,60.0,85.0
832,146.9689348270833,147.43538653541665,55.0,76.0
833,145.8659948270833,147.59623195208331,48.0,94.0
834,147.52040482708333,147.69388809791664,60.0,96.0
835,147.52040482708333,147.75477957708333,63.0,98.0
836,147.79613982708332,147.90873161874998,62.0,96.0
837,148.07187482708332,148.68423630624997,60.0,90.0
838,148.07187482708332,148.70146974374998,56.0,90.0
839,148.62334482708332,149.10817886874997,51.0,85.0
840,148.8990798270833,149.52522805624997,56.0,95.0
841,148.8990798270833,149.53097253541665,63.0,96.0
842,148.8990798270833,149.53901480624998,60.0,95.0
843,149.4505498270833,149.77913403541663,51.0,87.0
844,149.7262848270833,149.81704759791666,56.0,91.0
845,148.07187482708332,149.84347220208332,44.0,90.0
846,149.7262848270833,150.03074222291664,60.0,96.0
847,149.7262848270833,150.07440026458332,63.0,95.0
848,150.0020198270833,150.10656934791666,56.0,84.0
849,150.2777548270833,150.58565891041664,58.0,84.0
850,150.2777548270833,150.64310370208332,63.0,82.0
851,150.82922482708332,150.95100778541664,58.0,89.0
852,150.55348982708333,151.24167843124997,46.0,82.0
853,151.10495982708332,151.41056611874998,58.0,90.0
854,151.10495982708332,151.52775349374997,63.0,96.0
855,151.10495982708332,151.53464686874997,67.0,95.0
856,151.65642982708331,151.75178818125,63.0,56.0
857,151.65642982708331,151.78625505624998,58.0,89.0
858,150.2777548270833,152.05394778541665,39.0,91.0
859,151.9321648270833,152.09530803541665,63.0,94.0
860,151.9321648270833,152.10220141041665,58.0,92.0
861,151.38069482708332,152.12977491041664,46.0,65.0
862,152.4836348270833,152.89838622291666,67.0,90.0
863,152.4836348270833,153.03625372291665,62.0,91.0
864,153.0351048270833,153.20514141041664,58.0,85.0
865,152.7593698270833,153.71525116041664,50.0,77.0
866,152.4836348270833,153.90826566041665,43.0,100.0
867,153.31083982708333,153.94388143125,58.0,91.0
868,153.31083982708333,153.99098616041664,62.0,98.0
869,153.31083982708333,154.00936849374997,67.0,90.0
870,153.86230982708332,154.17940507708332,50.0,77.0
871,154.13804482708332,154.29429466041665,58.0,92.0
872,154.13804482708332,154.51718045208332,62.0,96.0
873,154.41377982708332,154.5344138895833,58.0,83.0
874,154.68951482708331,155.35357661874997,63.0,92.0
875,154.68951482708331,155.36506557708333,60.0,88.0
876,155.2409848270833,155.66722518125,55.0,83.0
877,155.5167198270833,156.16354818124998,67.0,93.0
878,155.5167198270833,156.17044155624998,63.0,96.0
879,155.5167198270833,156.17618603541666,60.0,91.0
880,156.0681898270833,156.3473715145833,55.0,87.0
881,154.68951482708331,156.44617655624998,48.0,90.0
882,156.3439248270833,156.49787686874998,60.0,92.0
883,156.3439248270833,156.5817462645833,63.0,94.0
884,156.61965982708332,156.70812480624997,60.0,74.0
885,156.3439248270833,156.70927370208332,67.0,94.0
886,156.89539482708332,157.02751784791664,58.0,91.0
887,156.89539482708332,157.03785791041665,62.0,95.0
888,156.89539482708332,157.04130459791665,65.0,94.0
889,157.17093203541663,157.57500672291664,58.0,91.0
890,157.17093203541663,157.57615141041663,62.0,96.0
891,157.17093203541663,157.57958547291665,65.0,95.0
892,157.72038203541663,158.03631578541663,58.0,92.0
893,157.72038203541663,158.06378828541665,70.0,91.0
894,157.72038203541663,158.08210328541665,65.0,103.0
895,157.72038203541663,158.09011609791665,62.0,96.0
896,158.26983203541664,158.32134297291663,65.0,81.0
897,158.26983203541664,158.43581172291664,58.0,98.0
898,158.54455703541663,158.74945609791664,65.0,94.0
899,158.54455703541663,158.75746891041663,62.0,94.0
900,157.99510703541665,158.93146141041663,53.0,88.0
901,158.81928203541665,158.97381484791663,65.0,62.0
902,156.89539482708332,158.98068297291664,46.0,91.0
903,158.81928203541665,159.03104922291664,58.0,86.0
904,159.09400703541664,159.20733109791664,62.0,81.0
905,159.09400703541664,159.20847578541665,58.0,84.0
906,159.09400703541664,159.21534391041664,65.0,89.0
907,159.09400703541664,159.26456547291664,46.0,90.0
908,159.36873203541663,159.72472984791665,62.0,94.0
909,159.36873203541663,159.72472984791665,65.0,95.0
910,159.36873203541663,159.73274266041665,58.0,91.0
911,159.64345703541665,159.95366734791665,53.0,94.0
912,159.91818203541663,160.23297109791665,58.0,94.0
913,159.91818203541663,160.27875859791664,62.0,103.0
914,159.91818203541663,160.27875859791664,65.0,105.0
915,159.91818203541663,160.27990328541665,70.0,90.0
916,160.46763203541664,160.49968328541664,62.0,67.0
917,160.46763203541664,160.56836453541663,65.0,87.0
918,160.46763203541664,160.61644141041663,58.0,94.0
919,160.19290703541665,160.66680766041665,53.0,94.0
920,159.36873203541663,160.72862078541664,46.0,95.0
921,160.74235703541663,160.85224703541664,58.0,90.0
922,160.74235703541663,160.94725609791664,62.0,98.0
923,161.01708203541665,161.16932547291663,58.0,85.0
924,160.74235703541663,161.17733828541665,65.0,96.0
925,161.29180703541664,161.91337234791663,58.0,90.0
926,161.29180703541664,161.91795109791664,63.0,91.0
927,161.84125703541665,162.17207172291663,46.0,80.0
928,162.11598203541664,162.53722703541663,58.0,90.0
929,162.11598203541664,162.73754734791663,63.0,95.0
930,162.11598203541664,162.75815172291664,67.0,95.0
931,161.29180703541664,162.84743734791664,39.0,93.0
932,162.66543203541664,162.85773953541664,46.0,84.0
933,162.94015703541663,162.99739141041664,58.0,89.0
934,162.94015703541663,163.34423172291665,63.0,93.0
935,163.21488203541665,163.35567859791664,58.0,84.0
936,162.94015703541663,163.37055953541665,67.0,95.0
937,163.48960703541664,163.64871859791663,58.0,89.0
938,163.48960703541664,163.85590703541664,63.0,90.0
939,163.76433203541663,164.14207891041664,58.0,76.0
940,164.03905703541665,164.15238109791665,63.0,85.0
941,163.48960703541664,164.59079641041663,51.0,90.0
942,164.31378203541664,164.64001797291664,58.0,91.0
943,164.31378203541664,164.91703234791663,63.0,93.0
944,164.31378203541664,164.91932172291664,67.0,96.0
945,164.86323203541664,165.00631797291663,58.0,89.0
946,165.13795703541663,165.25814922291664,58.0,90.0
947,164.58850703541663,165.46648234791664,46.0,93.0
948,165.13795703541663,165.53859766041663,63.0,94.0
949,165.41268203541665,165.56149141041664,58.0,86.0
950,165.13795703541663,165.57637234791665,67.0,95.0
951,165.68740703541664,166.31927453541664,63.0,86.0
952,165.68740703541664,166.32156391041664,60.0,88.0
953,165.68740703541664,166.67298297291663,48.0,90.0
954,166.51158203541664,166.83323922291663,60.0,90.0
955,166.78630703541663,167.00608703541664,55.0,91.0
956,166.51158203541664,167.11597703541665,67.0,91.0
957,166.51158203541664,167.12971328541664,63.0,91.0
958,167.06103203541664,167.49944734791663,60.0,96.0
959,167.33575703541663,167.68030797291664,43.0,92.0
960,167.61048203541665,167.98708422291665,63.0,83.0
961,167.61048203541665,167.99166297291663,60.0,94.0
962,168.15993203541663,168.45869547291665,60.0,90.0
963,167.88520703541664,168.90970234791664,48.0,93.0
964,168.70938203541664,169.06309047291663,60.0,89.0
965,168.70938203541664,169.11231203541664,63.0,91.0
966,168.70938203541664,169.12375891041665,67.0,93.0
967,169.25891719791665,169.29564813124998,63.0,74.0
968,168.98410703541663,169.35533589791663,55.0,76.0
969,169.25891719791665,169.40010172291665,60.0,95.0
970,169.53439919791663,169.65033120624997,60.0,93.0
971,169.53439919791663,169.7249409145833,63.0,95.0
972,169.53439919791663,169.78807220624998,67.0,93.0
973,170.08536319791665,170.2173649895833,58.0,83.0
974,170.08536319791665,170.21851283124997,43.0,95.0
975,170.08536319791665,170.22195635624996,55.0,79.0
976,170.36084519791663,170.48825562291663,43.0,80.0
977,170.36084519791663,170.4928469895833,58.0,84.0
978,170.36084519791663,170.4997340395833,55.0,83.0
979,170.63632719791664,170.75340704791662,43.0,94.0
980,170.63632719791664,170.76603330624997,55.0,85.0
981,170.63632719791664,170.77177251458332,58.0,85.0
982,170.91180919791663,171.03921962291665,43.0,96.0
983,170.91180919791663,171.03921962291665,58.0,89.0
984,170.91180919791663,171.04151530624998,55.0,87.0
985,171.1872701145833,171.32717818958332,60.0,85.0
986,171.1872701145833,171.34552678958332,63.0,90.0
987,171.1872701145833,171.35928823958332,48.0,91.0
988,171.46249911458332,171.61616863958332,48.0,90.0
989,171.46249911458332,171.6207557895833,60.0,86.0
990,171.46249911458332,171.6241961520833,63.0,89.0
991,171.73772811458332,171.87878297708332,60.0,85.0
992,171.73772811458332,171.88451691458332,48.0,91.0
993,171.73772811458332,171.8868104895833,63.0,89.0
994,172.01295711458332,172.16089270208332,60.0,89.0
995,172.01295711458332,172.1838284520833,63.0,90.0
996,172.01295711458332,172.1964431145833,48.0,91.0
997,172.2881861145833,173.07618514375,65.0,90.0
998,172.2881861145833,173.11409870625,60.0,89.0
999,172.2881861145833,173.23703056041666,53.0,100.0
1000,173.38983370625,173.9390513333333,62.0,76.0
1001,173.38983370625,173.94825095,65.0,89.0
1002,173.38983370625,173.97124999166664,58.0,85.0
1003,173.38983370625,173.98849927291664,46.0,90.0
1004,174.49332823749998,175.13040169166663,55.0,76.0
1005,174.49332823749998,175.14765097291664,58.0,81.0
1006,174.49332823749998,175.15225078125,51.0,81.0
1007,175.32129373749999,175.75482567291664,51.0,90.0
1008,175.32129373749999,175.80772346874997,63.0,90.0
1009,175.32129373749999,175.8778705458333,55.0,93.0
1010,175.32129373749999,175.89971963541666,58.0,91.0
1011,174.49332823749998,176.51379404791663,39.0,91.0
1012,175.59728223749997,176.5264435208333,46.0,90.0
1013,176.42524773749997,176.77138331458332,51.0,91.0
1014,176.1492592375,176.78173288333332,55.0,91.0
1015,176.1492592375,176.78288283541664,58.0,90.0
1016,176.1492592375,176.78518273958332,63.0,90.0
1017,176.97722473749997,177.0818703770833,51.0,83.0
1018,176.97722473749997,177.08647018541666,58.0,88.0
1019,176.97722473749997,177.08992004166666,55.0,89.0
1020,176.97722473749997,177.0991196583333,63.0,89.0
1021,176.70123623749998,177.74194287291664,39.0,94.0
1022,177.5292017375,177.89718640416663,51.0,91.0
1023,177.5292017375,178.17547480833332,55.0,90.0
1024,177.5292017375,178.19387404166665,63.0,89.0
1025,177.5292017375,178.20192370624997,58.0,89.0
1026,178.08117873749998,178.43191412291665,51.0,86.0
1027,178.63315573749998,178.85394653749998,51.0,87.0
1028,178.3571672375,178.8619962020833,55.0,81.0
1029,177.80519023749997,178.88154538749998,46.0,89.0
1030,178.3571672375,178.89419486041663,58.0,84.0
1031,178.3571672375,178.90799428541663,63.0,85.0
1032,178.9091442375,179.2276809645833,56.0,84.0
1033,178.9091442375,179.44272200416665,60.0,91.0
1034,179.46112123749998,180.12234368541664,56.0,91.0
1035,179.7371097375,180.33508482083332,60.0,96.0
1036,179.7371097375,180.36498357499997,63.0,95.0
1037,180.56507523749997,180.65822135624998,56.0,92.0
1038,178.9091442375,180.93190995208332,44.0,91.0
1039,179.18513273749997,180.94570937708332,51.0,81.0
1040,180.56507523749997,180.95030918541664,60.0,94.0
1041,180.84106373749998,180.96065875416664,56.0,89.0
1042,180.56507523749997,180.97790803541665,63.0,95.0
1043,180.56507523749997,181.1032528125,68.0,87.0
1044,181.1170522375,181.14925089583332,68.0,63.0
1045,181.1170522375,182.12211035833332,65.0,89.0
1046,181.1170522375,182.1244102625,46.0,91.0
1047,181.1170522375,182.12786011875,62.0,86.0
1048,181.1170522375,182.13130997499997,58.0,90.0
1049,182.22790594999998,182.517693875,46.0,93.0
1050,182.22675599791665,182.517693875,62.0,87.0
1051,182.23480566249998,182.53379320416664,58.0,90.0
1052,182.23365571041666,182.53379320416664,65.0,93.0
1053,182.23710556666666,182.53724306041664,70.0,90.0
1054,182.63383903541666,182.82818093749998,62.0,89.0
1055,182.61658975416665,182.8362306020833,46.0,91.0
1056,182.6361389395833,182.8431303145833,58.0,89.0
1057,182.63153913124998,182.8431303145833,65.0,92.0
1058,182.63843884374998,182.85807969166666,70.0,85.0
1059,182.97997461249997,183.04437192916666,62.0,83.0
1060,182.97422485208332,183.10646934166664,65.0,91.0
1061,182.97882466041665,183.10646934166664,70.0,89.0
1062,182.96962504374997,183.15361737708332,46.0,91.0
1063,182.97652475624997,183.15936713749997,58.0,91.0
1064,183.33875966249997,184.0839286125,60.0,85.0
1065,183.33990961458332,184.11957712708332,63.0,84.0
1066,183.33070999791664,184.32886840624997,44.0,92.0
1067,183.33530980624997,184.34956754374997,56.0,86.0
1068,184.51631059583332,185.2752789708333,44.0,94.0
1069,184.50941088333332,185.2856285395833,59.0,90.0
1070,184.51401069166664,185.2913783,56.0,91.0
1071,184.5117107875,185.29252825208332,63.0,91.0
1072,185.55011751874997,186.0204479208333,56.0,92.0
1073,185.54896756666665,186.02619768124998,59.0,93.0
1074,185.54781761458332,186.0572463875,63.0,93.0
1075,185.53746804583332,186.13544312916665,44.0,90.0
1076,186.59427401041665,187.09680307083332,58.0,84.0
1077,186.61152329166666,187.1761497645833,39.0,106.0
1078,187.0450552270833,187.1968489020833,46.0,67.0
1079,186.6000237708333,187.29689473333332,63.0,84.0
1080,187.28999502083332,187.45328821666664,58.0,87.0
1081,187.844271925,188.00641516874998,63.0,88.0
1082,188.0075651208333,188.1697083645833,65.0,90.0
1083,188.1904075020833,188.26860424375,67.0,88.0
1084,188.3835994520833,188.50089456458332,70.0,84.0
1085,188.5698916895833,188.69983627499997,75.0,78.0
1086,188.76308363958333,188.8585296625,77.0,88.0
1087,188.98157453541666,189.0793204625,79.0,93.0
1088,189.2046652395833,189.34725929791665,82.0,84.0
1089,189.46225450625,189.53585143958333,87.0,90.0
1090,187.67522896875,189.91533562708332,58.0,89.0
1091,187.4785871625,189.95673390208333,51.0,87.0
