,start,end,pitch,velocity
0,19.92414878125,20.17005003125,67.0,109.0
1,20.17005003125,20.659803354166666,70.0,97.0
2,20.661852531250002,20.90570460416667,70.0,97.0
3,20.90775378125,21.151605854166668,70.0,108.0
4,21.15365503125,21.39955628125,70.0,102.0
5,21.39955628125,21.891358781250002,67.0,102.0
6,21.891358781250002,23.85856878125,70.0,108.0
7,23.85856878125,24.10447003125,72.0,108.0
8,24.10447003125,24.59627253125,75.0,108.0
9,24.59627253125,25.08807503125,77.0,105.0
10,25.08807503125,25.333976281250003,75.0,111.0
11,25.333976281250003,25.82577878125,67.0,96.0
12,25.82577878125,27.792988781250003,70.0,100.0
13,27.792988781250003,28.038890031250002,72.0,105.0
14,28.038890031250002,28.528643354166668,75.0,100.0
15,28.53069253125,28.774544604166667,75.0,100.0
16,28.77659378125,29.76019878125,75.0,102.0
17,29.76019878125,30.004050854166668,70.0,97.0
18,30.00610003125,30.497902531250002,70.0,108.0
19,30.497902531250002,30.74380378125,72.0,97.0
20,30.74380378125,31.727408781250002,67.0,105.0
21,31.727408781250002,31.97126085416667,65.0,105.0
22,31.97331003125,32.46511253125,65.0,111.0
23,32.46511253125,32.71101378125,63.0,89.0
24,32.71101378125,32.95691503125,65.0,105.0
25,32.95691503125,33.20281628125,63.0,92.0
26,33.20281628125,33.69461878125,67.0,102.0
27,33.69461878125,35.66182878125,65.0,114.0
28,35.66182878125,35.907730031250004,67.0,109.0
29,35.907730031250004,36.39748335416667,70.0,97.0
30,36.39953253125,36.64338460416667,70.0,97.0
31,36.64543378125,36.889285854166666,70.0,108.0
32,36.89133503125,37.137236281250004,70.0,102.0
33,37.137236281250004,37.62903878125,67.0,102.0
34,37.62903878125,39.596248781250004,70.0,108.0
35,39.596248781250004,39.84215003125,72.0,108.0
36,39.84215003125,40.33190335416667,75.0,108.0
37,40.33395253125,40.57985378125,75.0,105.0
38,40.57985378125,40.825755031250004,77.0,114.0
39,40.825755031250004,41.07165628125,75.0,111.0
40,41.07165628125,41.56345878125,67.0,96.0
41,41.56345878125,43.53066878125,70.0,100.0
42,43.53066878125,43.77657003125,72.0,105.0
43,43.77657003125,44.266323354166666,75.0,100.0
44,44.26837253125,44.514273781250004,75.0,100.0
45,44.514273781250004,44.76017503125,77.0,114.0
46,44.76017503125,45.49787878125,75.0,102.0
47,45.49787878125,45.74173085416667,70.0,97.0
48,45.743780031250004,46.23353335416667,70.0,108.0
49,46.23558253125,46.48148378125,70.0,97.0
50,46.48148378125,46.72738503125,72.0,114.0
51,46.72738503125,47.46508878125,75.0,105.0
52,47.46508878125,47.95689128125,72.0,114.0
53,47.95689128125,48.20074335416667,75.0,94.0
54,48.202792531250005,48.44869378125,75.0,97.0
55,48.44869378125,48.69459503125,77.0,105.0
56,48.69459503125,48.94049628125,75.0,111.0
57,48.94049628125,49.432298781250005,72.0,111.0
58,49.432298781250005,50.90770628125,77.0,111.0
59,50.90770628125,51.15360753125,75.0,108.0
60,51.15360753125,51.39950878125,77.0,100.0
61,51.39950878125,51.643360854166666,79.0,109.0
62,51.64541003125,51.88926210416667,79.0,96.0
63,51.891311281250005,52.13516335416667,79.0,105.0
64,52.13721253125,52.38311378125,79.0,105.0
65,52.38311378125,52.62901503125,77.0,111.0
66,52.62901503125,52.87491628125,79.0,112.0
67,52.87491628125,53.36671878125,77.0,111.0
68,53.36671878125,54.84212628125,75.0,111.0
69,54.84212628125,55.08802753125,79.0,109.0
70,55.08802753125,55.33392878125,82.0,111.0
71,55.33392878125,55.82368210416667,84.0,105.0
72,55.82573128125,56.06958335416667,84.0,111.0
73,56.07163253125,56.31753378125,84.0,108.0
74,56.31753378125,56.56343503125,82.0,114.0
75,56.56343503125,56.809336281250005,84.0,108.0
76,56.809336281250005,57.30113878125,82.0,120.0
77,57.30113878125,58.77654628125,79.0,105.0
78,58.77654628125,59.02244753125,75.0,108.0
79,59.02244753125,59.268348781250005,77.0,100.0
80,59.268348781250005,59.51220085416667,79.0,109.0
81,59.51425003125,59.75810210416667,79.0,96.0
82,59.76015128125,60.00400335416667,79.0,105.0
83,60.00605253125,60.25195378125,79.0,105.0
84,60.25195378125,60.497855031250005,77.0,111.0
85,60.497855031250005,60.74375628125,79.0,112.0
86,60.74375628125,61.23555878125,77.0,111.0
87,61.23555878125,62.25604896875,75.0,111.0
88,62.21916378125,62.46506503125,77.0,105.0
89,62.46506503125,62.71096628125,79.0,105.0
90,62.71096628125,62.956867531250005,77.0,114.0
91,62.956867531250005,63.20276878125,75.0,100.0
92,63.20276878125,63.69252210416667,72.0,108.0
93,63.69457128125,63.938423354166666,72.0,108.0
94,63.94047253125,64.18637378125,72.0,108.0
95,64.18637378125,64.43022585416666,75.0,111.0
96,64.43227503125,64.67817628125,75.0,100.0
97,64.67817628125,65.16997878125001,77.0,111.0
98,65.16997878125001,66.64333710416668,75.0,114.0
99,66.64538628125,66.89128753125,75.0,108.0
100,66.89128753125,67.13718878125,77.0,100.0
101,67.13718878125,67.38104085416667,79.0,109.0
102,67.38309003125,67.62694210416667,79.0,96.0
103,67.62899128125001,67.87284335416668,79.0,105.0
104,67.87489253125,68.12079378125,79.0,105.0
105,68.12079378125,68.36669503125,77.0,111.0
106,68.36669503125,68.61259628125,79.0,112.0
107,68.61259628125,69.10439878125,77.0,111.0
108,69.10439878125,70.57980628125,75.0,111.0
109,70.57980628125,70.82570753125,79.0,109.0
110,70.82570753125,71.07160878125,82.0,111.0
111,71.07160878125,71.56136210416668,84.0,105.0
112,71.56341128125,71.80726335416666,84.0,111.0
113,71.80931253125,72.05521378125,84.0,108.0
114,72.05521378125,72.30111503125,82.0,114.0
115,72.30111503125,72.54701628125001,84.0,108.0
116,72.54701628125001,73.03881878125,82.0,120.0
117,73.03881878125,74.51422628125,79.0,105.0
118,74.51422628125,74.76012753125,75.0,108.0
119,74.76012753125,75.00602878125001,77.0,100.0
120,75.00602878125001,75.24988085416668,79.0,109.0
121,75.25193003125,75.49578210416666,79.0,96.0
122,75.49783128125,75.74168335416667,79.0,105.0
123,75.74373253125,75.98963378125,79.0,105.0
124,75.98963378125,76.23553503125001,77.0,111.0
125,76.23553503125001,76.48143628125,79.0,112.0
126,76.48143628125,76.97323878125,77.0,111.0
127,76.97323878125,77.99372896875,75.0,111.0
128,77.95684378125,78.20274503125,77.0,105.0
129,78.20274503125,78.44864628125,79.0,105.0
130,78.44864628125,78.69454753125001,77.0,114.0
131,78.69454753125001,78.94044878125,75.0,100.0
132,78.94044878125,79.43020210416667,72.0,108.0
133,79.43225128125,79.67610335416667,72.0,108.0
134,79.67815253125,79.92405378125001,72.0,108.0
135,79.92405378125001,80.16790585416668,75.0,111.0
136,80.16995503125,80.41585628125,75.0,100.0
137,80.41585628125,80.90765878125,77.0,111.0
138,80.90765878125,83.27855666666667,75.0,114.0
139,98.61254878125,98.85845003125,67.0,109.0
140,98.85845003125,99.34820335416667,70.0,97.0
141,99.35025253125,99.59410460416667,70.0,97.0
142,99.59615378125001,99.84000585416668,70.0,108.0
143,99.84205503125,100.08795628125,70.0,102.0
144,100.08795628125,100.57975878125,67.0,102.0
145,100.57975878125,102.54696878125,70.0,108.0
146,102.54696878125,102.79287003125,72.0,108.0
147,102.79287003125,103.28262335416667,75.0,108.0
148,103.28467253125001,103.53057378125,75.0,105.0
149,103.53057378125,103.77647503125,77.0,114.0
150,103.77647503125,104.02237628125,75.0,111.0
151,104.02237628125,104.51417878125001,67.0,96.0
152,104.51417878125001,106.48138878125,70.0,100.0
153,106.48138878125,106.72729003125,72.0,105.0
154,106.72729003125,107.21704335416668,75.0,100.0
155,107.21909253125,107.46499378125,75.0,100.0
156,107.46499378125,107.71089503125,77.0,114.0
157,107.71089503125,108.44859878125,75.0,102.0
158,108.44859878125,108.69245085416667,70.0,97.0
159,108.69450003125,109.18425335416667,70.0,108.0
160,109.18630253125,109.43220378125001,70.0,97.0
161,109.43220378125001,109.67810503125,72.0,114.0
162,109.67810503125,110.41580878125,75.0,105.0
163,110.41580878125,110.90761128125,72.0,114.0
164,110.90761128125,111.15146335416667,75.0,94.0
165,111.15351253125,111.39941378125,75.0,97.0
166,111.39941378125,111.64531503125001,77.0,105.0
167,111.64531503125001,111.89121628125001,75.0,111.0
168,111.89121628125001,112.38301878125,72.0,111.0
169,112.38301878125,115.82563628125,77.0,111.0
170,115.82563628125,116.07153753125,75.0,108.0
171,116.07153753125,116.31743878125,77.0,100.0
172,116.31743878125,116.56129085416667,79.0,109.0
173,116.56334003125001,116.80719210416667,79.0,96.0
174,116.80924128125001,117.05309335416668,79.0,105.0
175,117.05514253125,117.30104378125,79.0,105.0
176,117.30104378125,117.54694503125,77.0,111.0
177,117.54694503125,117.79284628125001,79.0,112.0
178,117.79284628125001,118.28464878125,77.0,111.0
179,118.28464878125,119.76005628125,75.0,111.0
180,119.76005628125,120.00595753125,79.0,109.0
181,120.00595753125,120.25185878125001,82.0,111.0
182,120.25185878125001,120.74161210416668,84.0,105.0
183,120.74366128125,120.98751335416667,84.0,111.0
184,120.98956253125,121.23546378125,84.0,108.0
185,121.23546378125,121.48136503125001,82.0,114.0
186,121.48136503125001,121.72726628125001,84.0,108.0
187,121.72726628125001,122.21906878125,82.0,120.0
188,122.21906878125,123.69447628125,79.0,105.0
189,123.69447628125,123.94037753125001,75.0,108.0
190,123.94037753125001,124.18627878125001,77.0,100.0
191,124.18627878125001,124.43013085416668,79.0,109.0
192,124.43218003125,124.67603210416667,79.0,96.0
193,124.67808128125,124.92193335416667,79.0,105.0
194,124.92398253125,125.16988378125001,79.0,105.0
195,125.16988378125001,125.41578503125001,77.0,111.0
196,125.41578503125001,125.66168628125,79.0,112.0
197,125.66168628125,126.15348878125,77.0,111.0
198,126.15348878125,127.17397896875,75.0,111.0
199,127.13709378125,127.38299503125,77.0,105.0
200,127.38299503125,127.62889628125001,79.0,105.0
201,127.62889628125001,127.87479753125001,77.0,114.0
202,127.87479753125001,128.12069878125,75.0,100.0
203,128.12069878125,128.61045210416668,72.0,108.0
204,128.61250128125,128.85635335416666,72.0,108.0
205,128.85840253125,129.10430378125,72.0,108.0
206,129.10430378125,129.34815585416666,75.0,111.0
207,129.35020503125,129.59610628125,75.0,100.0
208,129.59610628125,130.08790878125,77.0,111.0
209,130.08790878125,131.56126710416666,75.0,114.0
210,131.56331628125,131.80921753125,75.0,108.0
211,131.80921753125,132.05511878125,77.0,100.0
212,132.05511878125,132.29897085416667,79.0,109.0
213,132.30102003125,132.54487210416667,79.0,96.0
214,132.54692128125,132.79077335416667,79.0,105.0
215,132.79282253125,133.03872378125,79.0,105.0
216,133.03872378125,133.28462503125002,77.0,111.0
217,133.28462503125002,133.53052628125002,79.0,112.0
218,133.53052628125002,134.02232878125,77.0,111.0
219,134.02232878125,135.49773628125,75.0,111.0
220,135.49773628125,135.74363753125002,79.0,109.0
221,135.74363753125002,135.98953878125002,82.0,111.0
222,135.98953878125002,136.47929210416666,84.0,105.0
223,136.48134128125,136.72519335416666,84.0,111.0
224,136.72724253125,136.97314378125,84.0,108.0
225,136.97314378125,137.21904503125,82.0,114.0
226,137.21904503125,137.46494628125,84.0,108.0
227,137.46494628125,137.95674878125,82.0,120.0
228,137.95674878125,139.43215628125,79.0,105.0
229,139.43215628125,139.67805753125,75.0,108.0
230,139.67805753125,139.92395878125,77.0,100.0
231,139.92395878125,140.16781085416667,79.0,109.0
232,140.16986003125,140.41371210416668,79.0,96.0
233,140.41576128125,140.65961335416668,79.0,105.0
234,140.66166253125002,140.90756378125002,79.0,105.0
235,140.90756378125002,141.15346503125,77.0,111.0
236,141.15346503125,141.39936628125,79.0,112.0
237,141.39936628125,141.89116878125,77.0,111.0
238,141.89116878125,142.91165896875,75.0,111.0
239,142.87477378125,143.12067503125002,77.0,105.0
240,143.12067503125002,143.36657628125002,79.0,105.0
241,143.36657628125002,143.61247753125,77.0,114.0
242,143.61247753125,143.85837878125,75.0,100.0
243,143.85837878125,144.34813210416667,72.0,108.0
244,144.35018128125,144.59403335416667,72.0,108.0
245,144.59608253125,144.84198378125,72.0,108.0
246,144.84198378125,145.08583585416667,75.0,111.0
247,145.08788503125,145.33378628125,75.0,100.0
248,145.33378628125,145.82558878125002,77.0,111.0
249,145.82558878125002,147.54075,75.0,114.0
250,178.77635628125,178.92184785416669,75.0,108.0
251,179.02225753125,179.16160157291668,77.0,100.0
252,179.26815878125,179.41365035416666,79.0,109.0
253,179.51406003125,179.62881394791668,79.0,96.0
254,179.75996128125,179.88496108333334,79.0,105.0
255,180.00586253125002,180.15545245833334,79.0,105.0
256,180.25176378125002,180.3849602916667,77.0,111.0
257,180.49766503125,180.6513533125,79.0,112.0
258,180.74356628125,181.09807391666666,77.0,111.0
259,181.23536878125,182.25585896875,75.0,111.0
260,182.71077628125002,182.84807114583333,79.0,109.0
261,182.95667753125,183.06118556250001,82.0,111.0
262,183.20257878125,183.5775781875,84.0,105.0
263,183.69438128125,183.82143026041666,84.0,111.0
264,183.94028253125,184.06733151041666,84.0,108.0
265,184.18618378125,184.28044592708335,82.0,114.0
266,184.43208503125,184.55298647916666,84.0,108.0
267,184.67798628125,185.03249391666668,82.0,120.0
268,185.16978878125002,186.32962301041667,79.0,105.0
269,186.64519628125,186.79068785416666,75.0,108.0
270,186.89109753125,187.0304415729167,77.0,100.0
271,187.13699878125,187.28249035416667,79.0,109.0
272,187.38290003125002,187.49765394791666,79.0,96.0
273,187.62880128125002,187.75380108333334,79.0,105.0
274,187.87470253125,188.02429245833335,79.0,105.0
275,188.12060378125,188.25380029166666,77.0,111.0
276,188.36650503125,188.5201933125,79.0,112.0
277,188.61240628125,188.96691391666667,77.0,111.0
278,189.10420878125,190.12469896875,75.0,111.0
279,190.08781378125002,190.26404301041669,77.0,105.0
280,190.33371503125,190.44846894791667,79.0,105.0
281,190.57961628125,190.71076361458333,77.0,114.0
282,190.82551753125,190.94641897916668,75.0,100.0
283,191.07141878125,191.41772970833335,72.0,108.0
284,191.56322128125,191.68207355208335,72.0,108.0
285,191.80912253125,191.93617151041667,72.0,108.0
286,192.05502378125001,192.18207276041667,75.0,111.0
287,192.30092503125002,192.42592483333334,75.0,100.0
288,192.54682628125002,192.87879296875002,77.0,111.0
289,193.03862878125,194.20870889583335,75.0,114.0
290,194.51403628125001,194.65952785416667,75.0,108.0
291,194.75993753125002,194.89928157291666,77.0,100.0
292,195.00583878125002,195.15133035416667,79.0,109.0
293,195.25174003125,195.36649394791667,79.0,96.0
294,195.49764128125,195.62264108333335,79.0,105.0
295,195.74354253125,195.89313245833333,79.0,105.0
296,195.98944378125,196.12264029166667,77.0,111.0
297,196.23534503125,196.3890333125,79.0,112.0
298,196.48124628125,196.83575391666668,77.0,111.0
299,196.97304878125001,197.99353896875002,75.0,111.0
300,198.44845628125,198.58575114583334,79.0,109.0
301,198.69435753125,198.7988655625,82.0,111.0
302,198.94025878125,199.3152581875,84.0,105.0
303,199.43206128125001,199.55911026041667,84.0,111.0
304,199.67796253125002,199.80501151041668,84.0,108.0
305,199.92386378125002,200.01812592708333,82.0,114.0
306,200.16976503125,200.29066647916667,84.0,108.0
307,200.41566628125,200.77017391666666,82.0,120.0
308,200.90746878125,202.06730301041668,79.0,105.0
309,202.38287628125002,202.52836785416667,75.0,108.0
310,202.62877753125,202.76812157291667,77.0,100.0
311,202.87467878125,203.02017035416668,79.0,109.0
312,203.12058003125,203.23533394791667,79.0,96.0
313,203.36648128125,203.49148108333335,79.0,105.0
314,203.61238253125,203.76197245833333,79.0,105.0
315,203.85828378125,203.99148029166668,77.0,111.0
316,204.10418503125,204.2578733125,79.0,112.0
317,204.35008628125001,204.70459391666668,77.0,111.0
318,204.84188878125002,205.86237896875,75.0,111.0
319,205.82549378125,206.00172301041667,77.0,105.0
320,206.07139503125,206.18614894791668,79.0,105.0
321,206.31729628125,206.44844361458334,77.0,114.0
322,206.56319753125,206.68409897916666,75.0,100.0
323,206.80909878125001,207.15540970833334,72.0,108.0
324,207.30090128125002,207.41975355208334,72.0,108.0
325,207.54680253125,207.67385151041668,72.0,108.0
326,207.79270378125,207.91975276041669,75.0,111.0
327,208.03860503125,208.16360483333335,75.0,100.0
328,208.28450628125,208.61647296875,77.0,111.0
329,209.75991378125002,209.90540535416667,77.0,111.0
330,208.77630878125,209.94638889583334,75.0,114.0
331,210.00581503125,210.17999508333335,79.0,105.0
332,210.25171628125,210.38491279166666,77.0,111.0
333,210.49761753125,210.62876486458333,75.0,111.0
334,210.74351878125,211.11441983333333,72.0,114.0
335,211.23532128125,212.21482792708335,72.0,108.0
336,212.21892628125002,212.61851581250002,72.0,111.0
337,212.72507302083335,213.1267117291667,75.0,105.0
338,213.19843292708333,213.58777657291668,72.0,117.0
339,213.66769447916667,213.98326775,75.0,105.0
340,214.09597248958335,216.17383805208334,77.0,111.0
341,216.62260783333335,219.33571829166667,75.0,97.0
