,start,end,pitch,velocity
0,2.21925878125,3.6290926145833335,51.0,106.0
1,2.71106128125,3.6372893229166667,58.0,99.0
2,3.20286378125,3.663928625,67.0,120.0
3,3.69466628125,4.1926163125,63.0,104.0
4,4.67827128125,5.313516177083334,55.0,81.0
5,5.6618762812500005,5.854498927083333,55.0,74.0
6,4.18646878125,5.983597083333334,48.0,101.0
7,5.17007378125,6.211055739583333,63.0,106.0
8,6.15367878125,6.577858437500001,60.0,96.0
9,6.64548128125,7.200808270833334,51.0,87.0
10,6.15367878125,7.37088996875,44.0,101.0
11,7.13728378125,7.4077751562500005,56.0,96.0
12,7.13728378125,7.6659714687500005,60.0,104.0
13,7.13728378125,7.6803157083333335,63.0,106.0
14,7.62908628125,7.7643319687500005,56.0,99.0
15,8.12088878125,8.331954020833333,58.0,99.0
16,8.612691281250001,9.161870739583334,58.0,89.0
17,8.12088878125,9.161870739583334,63.0,101.0
18,8.12088878125,9.47334565625,51.0,101.0
19,9.10449378125,10.0450660625,67.0,110.0
20,9.59629628125,10.170065864583334,58.0,106.0
21,10.08809878125,10.745884625,63.0,101.0
22,10.57990128125,11.139326625,58.0,89.0
23,10.08809878125,11.61268653125,51.0,96.0
24,11.56350628125,11.7909649375,58.0,106.0
25,11.071703781250001,11.95080075,67.0,117.0
26,12.05530878125,12.690553677083333,63.0,101.0
27,12.05530878125,12.973340114583333,60.0,91.0
28,12.54711128125,13.135225104166667,55.0,83.0
29,12.05530878125,13.256126552083334,48.0,96.0
30,13.03891378125,13.532765458333333,63.0,104.0
31,13.03891378125,13.563503114583334,67.0,113.0
32,13.530716281250001,13.696699625,60.0,106.0
33,14.02251878125,14.551206468750001,56.0,101.0
34,14.02251878125,14.6680095625,60.0,96.0
35,14.02251878125,14.758173354166667,44.0,104.0
36,14.51432128125,14.8893206875,51.0,91.0
37,15.00612378125,15.563499947916668,62.0,91.0
38,15.00612378125,15.614729375000001,58.0,99.0
39,15.00612378125,15.840138854166668,46.0,104.0
40,15.989728781250001,16.2417775625,58.0,89.0
41,15.989728781250001,16.721285,63.0,101.0
42,16.48153128125,17.049153333333333,58.0,82.0
43,15.989728781250001,17.69874246875,51.0,91.0
44,17.46513628125,17.815545562500002,58.0,101.0
45,16.973333781250002,17.930299479166667,67.0,117.0
46,17.95693878125,19.3893135625,58.0,96.0
47,17.95693878125,19.403657802083334,63.0,101.0
48,17.95693878125,19.461034760416666,51.0,101.0
49,20.41595128125,20.922098020833335,58.0,89.0
50,19.92414878125,20.969229093750002,63.0,104.0
51,19.92414878125,21.49176925,51.0,99.0
52,20.90775378125,21.946686562500002,67.0,113.0
53,21.39955628125,22.02660446875,58.0,106.0
54,21.891358781250002,22.899553906250002,62.0,107.0
55,22.87496378125,23.4712743125,65.0,104.0
56,21.891358781250002,23.6188150625,46.0,89.0
57,22.38316128125,23.682339552083334,53.0,55.0
58,23.36676628125,23.80733935416667,62.0,113.0
59,23.85856878125,24.321682802083334,63.0,101.0
60,24.350371281250002,24.98766535416667,55.0,65.0
61,23.85856878125,25.170042114583335,48.0,94.0
62,24.84217378125,25.409795833333334,67.0,117.0
63,25.333976281250003,25.49176291666667,60.0,94.0
64,25.82577878125,26.706924927083335,62.0,77.0
65,25.82577878125,26.8524165,58.0,99.0
66,26.809383781250002,27.27454697916667,62.0,86.0
67,26.31758128125,27.319628875,53.0,56.0
68,26.809383781250002,27.342169822916667,65.0,101.0
69,25.82577878125,27.354464885416668,46.0,89.0
70,27.30118628125,27.65774309375,58.0,112.0
71,27.792988781250003,28.81347896875,60.0,99.0
72,28.28479128125,29.077822812500003,51.0,82.0
73,27.792988781250003,29.167986604166668,44.0,96.0
74,28.77659378125,29.311429,63.0,106.0
75,29.268396281250002,29.424133739583333,56.0,94.0
76,29.76019878125,30.01634591666667,58.0,91.0
77,30.252001281250003,30.790934854166668,58.0,82.0
78,29.76019878125,30.82167251041667,63.0,96.0
79,29.76019878125,31.198721093750002,51.0,99.0
80,30.74380378125,31.29708159375,67.0,113.0
81,31.23560628125,31.4138846875,58.0,94.0
82,31.727408781250002,31.993801802083336,60.0,73.0
83,32.219211281250004,32.98560351041667,48.0,58.0
84,31.727408781250002,33.08806236458334,41.0,101.0
85,32.71101378125,33.241750645833335,57.0,107.0
86,33.20281628125,33.61060252083333,53.0,94.0
87,31.727408781250002,33.751995739583336,65.0,99.0
88,33.69461878125,34.360601333333335,62.0,104.0
89,33.69461878125,34.4630601875,58.0,104.0
90,34.18642128125,34.85445301041667,53.0,80.0
91,34.678223781250004,35.374943989583336,62.0,104.0
92,33.69461878125,35.4466651875,46.0,106.0
93,34.678223781250004,35.50199296875,65.0,104.0
94,35.66182878125,35.915926739583334,58.0,101.0
95,35.66182878125,36.35240145833333,63.0,106.0
96,36.15363128125,36.50608973958334,58.0,94.0
97,36.64543378125,37.206908302083335,63.0,109.0
98,35.66182878125,37.530678281250005,51.0,104.0
99,36.64543378125,37.711005864583335,67.0,113.0
100,37.137236281250004,37.780677885416665,58.0,112.0
101,37.62903878125,38.45280796875,62.0,110.0
102,38.61264378125,39.09010204166667,62.0,117.0
103,37.62903878125,39.10444628125,46.0,80.0
104,38.12084128125,39.1105938125,53.0,87.0
105,39.10444628125,39.30526563541667,58.0,115.0
106,39.596248781250004,40.33805088541667,63.0,104.0
107,39.596248781250004,40.35854265625,60.0,99.0
108,40.08805128125,41.09214805208333,55.0,59.0
109,40.57985378125,41.19050855208334,67.0,113.0
110,39.596248781250004,41.268377281250004,48.0,91.0
111,41.07165628125,41.30731164583334,60.0,106.0
112,41.56345878125,42.368785375,62.0,96.0
113,41.56345878125,42.516326125,58.0,101.0
114,42.54706378125,43.098292416666666,65.0,106.0
115,42.055261281250004,43.13107925,53.0,82.0
116,41.56345878125,43.17821032291667,46.0,99.0
117,43.03886628125,43.305259302083336,58.0,106.0
118,43.53066878125,44.155667791666666,60.0,99.0
119,43.53066878125,44.36468385416667,56.0,101.0
120,44.02247128125,44.89542071875,51.0,87.0
121,43.53066878125,44.94050261458334,44.0,96.0
122,44.514273781250004,45.04501064583334,60.0,106.0
123,44.514273781250004,45.0859941875,63.0,109.0
124,45.00607628125,45.198698927083335,56.0,112.0
125,45.49787878125,45.76632097916667,58.0,104.0
126,45.49787878125,46.186402281250004,63.0,106.0
127,45.98968128125,46.40976258333333,58.0,85.0
128,45.49787878125,46.96918792708333,51.0,99.0
129,46.48148378125,47.02451570833333,63.0,109.0
130,46.48148378125,47.04500747916667,67.0,113.0
131,46.973286281250004,47.153613864583335,58.0,106.0
132,47.46508878125,47.83394065625,60.0,89.0
133,47.46508878125,47.838039010416665,65.0,96.0
134,47.95689128125,48.59213617708333,48.0,76.0
135,47.46508878125,48.62287383333334,41.0,104.0
136,48.44869378125,48.63311971875,53.0,104.0
137,48.44869378125,48.9712339375,57.0,113.0
138,48.94049628125,49.02451254166667,53.0,89.0
139,48.44869378125,49.03066007291667,60.0,106.0
140,49.432298781250005,50.07164203125,58.0,106.0
141,49.432298781250005,50.09828133333333,62.0,110.0
142,49.92410128125,50.532706875,53.0,104.0
143,49.432298781250005,50.8646735625,46.0,106.0
144,50.41590378125,51.28065651041667,62.0,123.0
145,50.41590378125,51.282705687500005,58.0,118.0
146,50.41590378125,51.28680404166667,70.0,109.0
147,50.41590378125,51.30114828125,65.0,115.0
148,50.90770628125,51.305246635416665,53.0,104.0
149,51.39950878125,51.670000156250005,58.0,104.0
150,51.39950878125,51.98557342708334,63.0,106.0
151,51.891311281250005,52.196638666666665,58.0,94.0
152,52.38311378125,52.58393313541667,63.0,112.0
153,52.38311378125,52.67409692708333,67.0,107.0
154,52.38311378125,52.76426071875,58.0,109.0
155,51.39950878125,52.913850645833335,51.0,106.0
156,52.87491628125,53.301145114583335,62.0,117.0
157,53.36671878125,53.66180028125,63.0,106.0
158,53.36671878125,53.79294761458333,60.0,99.0
159,54.350323781250005,54.655651166666665,63.0,109.0
160,54.350323781250005,54.66794622916667,60.0,104.0
161,54.350323781250005,54.84622463541667,67.0,117.0
162,53.85852128125,54.94048678125,55.0,83.0
163,53.36671878125,55.03884728125,48.0,99.0
164,54.84212628125,55.12696189583333,60.0,106.0
165,55.33392878125,55.91384589583333,60.0,101.0
166,55.33392878125,55.919993427083334,56.0,104.0
167,55.33392878125,56.03269816666667,44.0,101.0
168,55.82573128125,56.1761405625,51.0,80.0
169,56.31753378125,56.74991014583333,58.0,104.0
170,56.31753378125,56.879008302083335,62.0,113.0
171,56.809336281250005,57.09827025,58.0,104.0
172,56.31753378125,57.172040625,46.0,109.0
173,57.30113878125,57.52244990625,58.0,99.0
174,57.30113878125,57.87081001041667,63.0,101.0
175,57.79294128125,58.1187604375,58.0,96.0
176,58.28474378125,58.536792562500004,63.0,109.0
177,58.28474378125,58.655644833333334,67.0,120.0
178,57.30113878125,58.97121810416667,51.0,104.0
179,58.77654628125,59.01015246875,65.0,112.0
180,59.02244753125,59.139250625,63.0,104.0
181,59.268348781250005,59.51220085416667,58.0,99.0
182,59.76015128125,60.03474101041667,58.0,104.0
183,59.268348781250005,60.06547866666667,67.0,117.0
184,60.25195378125,60.499904208333334,63.0,115.0
185,60.25195378125,60.602363062500004,58.0,112.0
186,59.268348781250005,61.063427906250006,51.0,104.0
187,60.74375628125,61.120804864583334,62.0,120.0
188,61.23555878125,61.64949255208334,63.0,106.0
189,61.23555878125,61.680230208333334,60.0,101.0
190,62.21916378125,62.51834363541667,67.0,117.0
191,62.21916378125,62.56752388541667,60.0,109.0
192,61.727361281250005,62.71916298958334,55.0,88.0
193,61.23555878125,62.81342513541667,48.0,101.0
194,62.71096628125,62.94662164583333,65.0,112.0
195,62.956867531250005,63.09211321875,63.0,104.0
196,63.20276878125,63.63719432291667,60.0,104.0
197,63.20276878125,63.81752190625,44.0,106.0
198,63.69457128125,64.02448879166667,51.0,96.0
199,64.18637378125,64.70071722916667,58.0,106.0
200,64.18637378125,64.71711064583333,62.0,113.0
201,64.18637378125,64.97530695833333,46.0,106.0
202,64.67817628125,64.98145448958334,53.0,85.0
203,64.92407753125,65.07981498958334,58.0,112.0
204,65.16997878125001,65.4220275625,58.0,106.0
205,65.16997878125001,65.79292861458333,63.0,112.0
206,65.66178128125,65.926125125,58.0,82.0
207,66.15358378125,66.294977,58.0,109.0
208,66.15358378125,66.37899326041666,63.0,112.0
209,66.15358378125,66.53473071875,67.0,120.0
210,66.39948503125001,66.57366508333334,58.0,104.0
211,66.64538628125,66.95276284375001,65.0,106.0
212,65.16997878125001,66.98145132291667,51.0,101.0
213,66.89128753125,67.02858239583334,58.0,99.0
214,67.13718878125,67.40768015625001,58.0,104.0
215,67.13718878125,67.72325342708334,63.0,106.0
216,67.62899128125001,67.93431866666667,58.0,94.0
217,68.12079378125,68.32161313541667,63.0,112.0
218,68.12079378125,68.41177692708334,67.0,107.0
219,68.12079378125,68.50194071875,58.0,109.0
220,67.13718878125,68.65153064583333,51.0,106.0
221,68.61259628125,69.03882511458333,62.0,117.0
222,69.10439878125,69.39948028125,63.0,106.0
223,69.10439878125,69.53062761458334,60.0,99.0
224,70.08800378125001,70.39333116666667,63.0,109.0
225,70.08800378125001,70.40562622916667,60.0,104.0
226,70.08800378125001,70.58390463541667,67.0,117.0
227,69.59620128125,70.67816678125,55.0,83.0
228,69.10439878125,70.77652728125,48.0,99.0
229,70.57980628125,70.86464189583333,60.0,106.0
230,71.07160878125,71.65152589583333,60.0,101.0
231,71.07160878125,71.65767342708334,56.0,104.0
232,71.07160878125,71.77037816666667,44.0,101.0
233,71.56341128125,71.9138205625,51.0,80.0
234,72.05521378125,72.48759014583334,58.0,104.0
235,72.05521378125,72.61668830208333,62.0,113.0
236,72.54701628125001,72.83595025,58.0,104.0
237,72.05521378125,72.909720625,46.0,109.0
238,73.03881878125,73.26012990625,58.0,99.0
239,73.03881878125,73.60849001041667,63.0,101.0
240,73.53062128125,73.8564404375,58.0,96.0
241,74.02242378125,74.27447256250001,63.0,109.0
242,74.02242378125,74.39332483333334,67.0,120.0
243,73.03881878125,74.70889810416666,51.0,104.0
244,74.51422628125,74.74783246875,65.0,112.0
245,74.76012753125,74.876930625,63.0,104.0
246,75.00602878125001,75.24988085416668,58.0,99.0
247,75.49783128125,75.77242101041666,58.0,104.0
248,75.00602878125001,75.80315866666668,67.0,117.0
249,75.98963378125,76.23758420833333,63.0,115.0
250,75.98963378125,76.3400430625,58.0,112.0
251,75.00602878125001,76.80110790625,51.0,104.0
252,76.48143628125,76.85848486458333,62.0,120.0
253,76.97323878125,77.38717255208334,63.0,106.0
254,76.97323878125,77.41791020833334,60.0,101.0
255,77.95684378125,78.25602363541667,67.0,117.0
256,77.95684378125,78.30520388541667,60.0,109.0
257,77.46504128125001,78.45684298958334,55.0,88.0
258,76.97323878125,78.55110513541666,48.0,101.0
259,78.44864628125,78.68430164583333,65.0,112.0
260,78.69454753125001,78.82979321875,63.0,104.0
261,78.94044878125,79.37487432291667,60.0,104.0
262,78.94044878125,79.55520190625,44.0,106.0
263,79.43225128125,79.76216879166667,51.0,96.0
264,79.92405378125001,80.43839722916667,58.0,106.0
265,79.92405378125001,80.45479064583334,62.0,113.0
266,79.92405378125001,80.71298695833333,46.0,106.0
267,80.41585628125,80.71913448958334,53.0,85.0
268,80.66175753125,80.81749498958334,58.0,112.0
269,80.90765878125,81.1597075625,58.0,106.0
270,80.90765878125,81.53060861458334,63.0,112.0
271,81.39946128125,81.663805125,58.0,82.0
272,81.89126378125,82.032657,58.0,109.0
273,81.89126378125,82.11667326041668,63.0,112.0
274,81.89126378125,82.27241071875001,67.0,120.0
275,82.13716503125,82.31134508333334,58.0,104.0
276,82.38306628125001,82.69044284375,65.0,106.0
277,80.90765878125,82.71913132291667,51.0,101.0
278,82.62896753125,82.76626239583334,58.0,99.0
279,82.87486878125,84.28470261458334,51.0,106.0
280,83.36667128125,84.29289932291667,58.0,99.0
281,83.85847378125,84.319538625,67.0,120.0
282,84.35027628125,84.8482263125,63.0,104.0
283,85.33388128125,85.96912617708334,55.0,81.0
284,86.31748628125,86.51010892708334,55.0,74.0
285,84.84207878125001,86.63920708333333,48.0,101.0
286,85.82568378125,86.86666573958334,63.0,106.0
287,86.80928878125,87.23346843750001,60.0,96.0
288,87.30109128125001,87.85641827083333,51.0,87.0
289,86.80928878125,88.02649996875,44.0,101.0
290,87.79289378125,88.06338515625,56.0,96.0
291,87.79289378125,88.32158146875,60.0,104.0
292,87.79289378125,88.33592570833333,63.0,106.0
293,88.28469628125,88.41994196875001,56.0,99.0
294,88.77649878125,88.98756402083333,58.0,99.0
295,89.26830128125,89.81748073958333,58.0,89.0
296,88.77649878125,89.81748073958333,63.0,101.0
297,88.77649878125,90.12895565625,51.0,101.0
298,89.76010378125001,90.70067606250001,67.0,110.0
299,90.25190628125,90.82567586458333,58.0,106.0
300,90.74370878125,91.401494625,63.0,101.0
301,91.23551128125,91.794936625,58.0,89.0
302,90.74370878125,92.26829653125,51.0,96.0
303,92.21911628125001,92.4465749375,58.0,106.0
304,91.72731378125,92.60641075000001,67.0,117.0
305,92.71091878125,93.34616367708334,63.0,101.0
306,92.71091878125,93.62895011458333,60.0,91.0
307,93.20272128125,93.79083510416667,55.0,83.0
308,92.71091878125,93.91173655208334,48.0,96.0
309,93.69452378125,94.18837545833334,63.0,104.0
310,93.69452378125,94.21911311458334,67.0,113.0
311,94.18632628125,94.352309625,60.0,106.0
312,94.67812878125001,95.20681646875,56.0,101.0
313,94.67812878125001,95.3236195625,60.0,96.0
314,94.67812878125001,95.41378335416667,44.0,104.0
315,95.16993128125,95.5449306875,51.0,91.0
316,95.66173378125,96.21910994791666,62.0,91.0
317,95.66173378125,96.270339375,58.0,99.0
318,95.66173378125,96.49574885416666,46.0,104.0
319,96.64533878125,96.8973875625,58.0,89.0
320,96.64533878125,97.376895,63.0,101.0
321,97.13714128125001,97.70476333333333,58.0,82.0
322,96.64533878125,98.35435246875001,51.0,91.0
323,98.12074628125,98.4711555625,58.0,101.0
324,97.62894378125,98.58590947916667,67.0,117.0
325,98.61254878125,98.86664673958333,58.0,101.0
326,98.61254878125,99.30312145833334,63.0,106.0
327,99.10435128125,99.45680973958333,58.0,94.0
328,99.59615378125001,100.15762830208334,63.0,109.0
329,98.61254878125,100.48139828125001,51.0,104.0
330,99.59615378125001,100.66172586458333,67.0,113.0
331,100.08795628125,100.73139788541667,58.0,112.0
332,100.57975878125,101.40352796875,62.0,110.0
333,101.56336378125,102.04082204166667,62.0,117.0
334,100.57975878125,102.05516628125001,46.0,80.0
335,101.07156128125,102.0613138125,53.0,87.0
336,102.05516628125001,102.25598563541666,58.0,115.0
337,102.54696878125,103.28877088541667,63.0,104.0
338,102.54696878125,103.30926265625,60.0,99.0
339,103.03877128125,104.04286805208334,55.0,59.0
340,103.53057378125,104.14122855208333,67.0,113.0
341,102.54696878125,104.21909728125,48.0,91.0
342,104.02237628125,104.25803164583334,60.0,106.0
343,104.51417878125001,105.319505375,62.0,96.0
344,104.51417878125001,105.46704612500001,58.0,101.0
345,105.49778378125,106.04901241666667,65.0,106.0
346,105.00598128125,106.08179925,53.0,82.0
347,104.51417878125001,106.12893032291667,46.0,99.0
348,105.98958628125,106.25597930208333,58.0,106.0
349,106.48138878125,107.10638779166668,60.0,99.0
350,106.48138878125,107.31540385416668,56.0,101.0
351,106.97319128125001,107.84614071875001,51.0,87.0
352,106.48138878125,107.89122261458334,44.0,96.0
353,107.46499378125,107.99573064583333,60.0,106.0
354,107.46499378125,108.03671418750001,63.0,109.0
355,107.95679628125,108.14941892708333,56.0,112.0
356,108.44859878125,108.71704097916667,58.0,104.0
357,108.44859878125,109.13712228125,63.0,106.0
358,108.94040128125,109.36048258333334,58.0,85.0
359,108.44859878125,109.91990792708334,51.0,99.0
360,109.43220378125001,109.97523570833334,63.0,109.0
361,109.43220378125001,109.99572747916667,67.0,113.0
362,109.92400628125,110.10433386458334,58.0,106.0
363,110.41580878125,110.78466065625,60.0,89.0
364,110.41580878125,110.78875901041667,65.0,96.0
365,110.90761128125,111.54285617708334,48.0,76.0
366,110.41580878125,111.57359383333333,41.0,104.0
367,111.39941378125,111.58383971875,53.0,104.0
368,111.39941378125,111.9219539375,57.0,113.0
369,111.89121628125001,111.97523254166667,53.0,89.0
370,111.39941378125,111.98138007291666,60.0,106.0
371,112.38301878125,113.02236203125,58.0,106.0
372,112.38301878125,113.04900133333334,62.0,110.0
373,112.87482128125001,113.483426875,53.0,104.0
374,112.38301878125,113.8153935625,46.0,106.0
375,113.36662378125,114.23137651041667,62.0,123.0
376,113.36662378125,114.2334256875,58.0,118.0
377,113.36662378125,114.23752404166667,70.0,109.0
378,113.36662378125,114.25186828125,65.0,115.0
379,113.85842628125,114.25596663541667,53.0,104.0
380,114.35022878125001,114.63301521875,56.0,106.0
381,114.35022878125001,114.81334280208334,60.0,109.0
382,114.84203128125,115.12276854166667,56.0,109.0
383,114.35022878125001,115.14530948958334,44.0,109.0
384,114.59613003125,115.14940784375,51.0,104.0
385,115.08793253125,115.26416176041667,60.0,115.0
386,115.33383378125001,115.62071857291667,58.0,106.0
387,115.33383378125001,115.80104615625001,62.0,120.0
388,115.82563628125,116.06539000000001,58.0,115.0
389,115.57973503125001,116.28465194791667,53.0,94.0
390,115.33383378125001,116.29694701041667,46.0,112.0
391,116.07153753125,116.30104536458333,62.0,117.0
392,116.31743878125,116.58793015625001,58.0,104.0
393,116.31743878125,116.90350342708334,63.0,106.0
394,116.80924128125001,117.11456866666667,58.0,94.0
395,117.30104378125,117.50186313541667,63.0,112.0
396,117.30104378125,117.59202692708334,67.0,107.0
397,117.30104378125,117.68219071875001,58.0,109.0
398,116.31743878125,117.83178064583333,51.0,106.0
399,117.79284628125001,118.21907511458333,62.0,117.0
400,118.28464878125,118.57973028125001,63.0,106.0
401,118.28464878125,118.71087761458334,60.0,99.0
402,119.26825378125001,119.57358116666667,63.0,109.0
403,119.26825378125001,119.58587622916667,60.0,104.0
404,119.26825378125001,119.76415463541667,67.0,117.0
405,118.77645128125,119.85841678125,55.0,83.0
406,118.28464878125,119.95677728125,48.0,99.0
407,119.76005628125,120.04489189583333,60.0,106.0
408,120.25185878125001,120.83177589583333,60.0,101.0
409,120.25185878125001,120.83792342708334,56.0,104.0
410,120.25185878125001,120.95062816666668,44.0,101.0
411,120.74366128125,121.09407056250001,51.0,80.0
412,121.23546378125,121.66784014583334,58.0,104.0
413,121.23546378125,121.79693830208333,62.0,113.0
414,121.72726628125001,122.01620025000001,58.0,104.0
415,121.23546378125,122.089970625,46.0,109.0
416,122.21906878125,122.44037990625,58.0,99.0
417,122.21906878125,122.78874001041667,63.0,101.0
418,122.71087128125001,123.0366904375,58.0,96.0
419,123.20267378125,123.45472256250001,63.0,109.0
420,123.20267378125,123.57357483333334,67.0,120.0
421,122.21906878125,123.88914810416667,51.0,104.0
422,123.69447628125,123.92808246875,65.0,112.0
423,123.94037753125001,124.057180625,63.0,104.0
424,124.18627878125001,124.43013085416668,58.0,99.0
425,124.67808128125,124.95267101041667,58.0,104.0
426,124.18627878125001,124.98340866666668,67.0,117.0
427,125.16988378125001,125.41783420833333,63.0,115.0
428,125.16988378125001,125.5202930625,58.0,112.0
429,124.18627878125001,125.98135790625001,51.0,104.0
430,125.66168628125,126.03873486458333,62.0,120.0
431,126.15348878125,126.56742255208334,63.0,106.0
432,126.15348878125,126.59816020833334,60.0,101.0
433,127.13709378125,127.43627363541667,67.0,117.0
434,127.13709378125,127.48545388541667,60.0,109.0
435,126.64529128125001,127.63709298958334,55.0,88.0
436,126.15348878125,127.73135513541668,48.0,101.0
437,127.62889628125001,127.86455164583334,65.0,112.0
438,127.87479753125001,128.01004321875,63.0,104.0
439,128.12069878125,128.55512432291667,60.0,104.0
440,128.12069878125,128.73545190625,44.0,106.0
441,128.61250128125,128.94241879166668,51.0,96.0
442,129.10430378125,129.61864722916667,58.0,106.0
443,129.10430378125,129.63504064583333,62.0,113.0
444,129.10430378125,129.89323695833335,46.0,106.0
445,129.59610628125,129.89938448958333,53.0,85.0
446,129.84200753125,129.99774498958334,58.0,112.0
447,130.08790878125,130.33995756250002,58.0,106.0
448,130.08790878125,130.71085861458334,63.0,112.0
449,130.57971128125,130.844055125,58.0,82.0
450,131.07151378125002,131.212907,58.0,109.0
451,131.07151378125002,131.29692326041666,63.0,112.0
452,131.07151378125002,131.45266071875,67.0,120.0
453,131.31741503125,131.49159508333335,58.0,104.0
454,131.56331628125,131.87069284375,65.0,106.0
455,130.08790878125,131.89938132291667,51.0,101.0
456,131.80921753125,131.94651239583334,58.0,99.0
457,132.05511878125,132.32561015625,58.0,104.0
458,132.05511878125,132.64118342708335,63.0,106.0
459,132.54692128125,132.85224866666667,58.0,94.0
460,133.03872378125,133.23954313541668,63.0,112.0
461,133.03872378125,133.32970692708335,67.0,107.0
462,133.03872378125,133.41987071875,58.0,109.0
463,132.05511878125,133.56946064583335,51.0,106.0
464,133.53052628125002,133.95675511458333,62.0,117.0
465,134.02232878125,134.31741028125,63.0,106.0
466,134.02232878125,134.44855761458334,60.0,99.0
467,135.00593378125,135.31126116666667,63.0,109.0
468,135.00593378125,135.32355622916668,60.0,104.0
469,135.00593378125,135.50183463541669,67.0,117.0
470,134.51413128125,135.59609678125,55.0,83.0
471,134.02232878125,135.69445728125,48.0,99.0
472,135.49773628125,135.78257189583334,60.0,106.0
473,135.98953878125002,136.56945589583333,60.0,101.0
474,135.98953878125002,136.57560342708334,56.0,104.0
475,135.98953878125002,136.68830816666667,44.0,101.0
476,136.48134128125,136.8317505625,51.0,80.0
477,136.97314378125,137.40552014583335,58.0,104.0
478,136.97314378125,137.53461830208335,62.0,113.0
479,137.46494628125,137.75388025,58.0,104.0
480,136.97314378125,137.82765062500002,46.0,109.0
481,137.95674878125,138.17805990625,58.0,99.0
482,137.95674878125,138.52642001041667,63.0,101.0
483,138.44855128125002,138.7743704375,58.0,96.0
484,138.94035378125,139.1924025625,63.0,109.0
485,138.94035378125,139.31125483333335,67.0,120.0
486,137.95674878125,139.62682810416666,51.0,104.0
487,139.43215628125,139.66576246875002,65.0,112.0
488,139.67805753125,139.794860625,63.0,104.0
489,139.92395878125,140.16781085416667,58.0,99.0
490,140.41576128125,140.69035101041666,58.0,104.0
491,139.92395878125,140.72108866666667,67.0,117.0
492,140.90756378125002,141.15551420833333,63.0,115.0
493,140.90756378125002,141.2579730625,58.0,112.0
494,139.92395878125,141.71903790625,51.0,104.0
495,141.39936628125,141.77641486458333,62.0,120.0
496,141.89116878125,142.30510255208333,63.0,106.0
497,141.89116878125,142.33584020833334,60.0,101.0
498,142.87477378125,143.17395363541667,67.0,117.0
499,142.87477378125,143.22313388541667,60.0,109.0
500,142.38297128125,143.37477298958333,55.0,88.0
501,141.89116878125,143.46903513541668,48.0,101.0
502,143.36657628125002,143.60223164583334,65.0,112.0
503,143.61247753125,143.74772321875,63.0,104.0
504,143.85837878125,144.29280432291668,60.0,104.0
505,143.85837878125,144.47313190625002,44.0,106.0
506,144.35018128125,144.68009879166667,51.0,96.0
507,144.84198378125,145.35632722916668,58.0,106.0
508,144.84198378125,145.37272064583334,62.0,113.0
509,144.84198378125,145.63091695833333,46.0,106.0
510,145.33378628125,145.63706448958334,53.0,85.0
511,145.57968753125002,145.73542498958335,58.0,112.0
512,145.82558878125002,147.05099667708333,58.0,106.0
513,145.82558878125002,147.29689792708334,63.0,112.0
514,145.82558878125002,147.63706132291668,51.0,101.0
515,147.79279878125,149.20263261458334,46.0,106.0
516,148.28460128125002,149.21082932291668,53.0,99.0
517,148.77640378125,149.237468625,62.0,120.0
518,149.26820628125,149.76615631250002,58.0,104.0
519,150.25181128125,150.88705617708334,50.0,81.0
520,151.23541628125,151.42803892708335,50.0,74.0
521,149.76000878125,151.55713708333334,43.0,101.0
522,150.74361378125002,151.78459573958335,58.0,106.0
523,151.72721878125,152.1513984375,55.0,96.0
524,152.21902128125,152.77434827083334,46.0,87.0
525,151.72721878125,152.94442996875,39.0,101.0
526,152.71082378125,152.98131515625002,51.0,96.0
527,152.71082378125,153.23951146875,55.0,104.0
528,152.71082378125,153.25385570833333,58.0,106.0
529,153.20262628125002,153.33787196875,51.0,99.0
530,153.69442878125,153.90549402083334,53.0,99.0
531,154.18623128125,154.73541073958333,53.0,89.0
532,153.69442878125,154.73541073958333,58.0,101.0
533,153.69442878125,155.04688565625,46.0,101.0
534,154.67803378125,155.6186060625,62.0,110.0
535,155.16983628125,155.74360586458334,53.0,106.0
536,155.66163878125002,156.319424625,58.0,101.0
537,156.15344128125,156.712866625,53.0,89.0
538,155.66163878125002,157.18622653125,46.0,96.0
539,157.13704628125,157.36450493750002,53.0,106.0
540,156.64524378125,157.52434075,62.0,117.0
541,157.62884878125,158.26409367708334,58.0,101.0
542,157.62884878125,158.54688011458333,55.0,91.0
543,158.12065128125002,158.70876510416667,50.0,83.0
544,157.62884878125,158.82966655208335,43.0,96.0
545,158.61245378125,159.10630545833334,58.0,104.0
546,158.61245378125,159.13704311458335,62.0,113.0
547,159.10425628125,159.27023962500002,55.0,106.0
548,159.59605878125,160.12474646875,51.0,101.0
549,159.59605878125,160.2415495625,55.0,96.0
550,159.59605878125,160.33171335416668,39.0,104.0
551,160.08786128125,160.4628606875,46.0,91.0
552,160.57966378125002,161.13703994791666,57.0,91.0
553,160.57966378125002,161.188269375,53.0,99.0
554,160.57966378125002,161.41367885416668,41.0,104.0
555,161.56326878125,161.8153175625,53.0,89.0
556,161.56326878125,162.294825,58.0,101.0
557,162.05507128125,162.62269333333333,53.0,82.0
558,161.56326878125,163.27228246875,46.0,91.0
559,163.03867628125002,163.38908556250001,53.0,101.0
560,162.54687378125,163.5038394791667,62.0,117.0
561,163.53047878125,164.94031261458335,51.0,106.0
562,164.02228128125,164.94850932291666,58.0,99.0
563,164.51408378125,164.975148625,67.0,120.0
564,165.00588628125,165.5038363125,63.0,104.0
565,165.98949128125,166.62473617708335,55.0,81.0
566,166.97309628125,167.16571892708333,55.0,74.0
567,165.49768878125002,167.29481708333333,48.0,101.0
568,166.48129378125,167.52227573958334,63.0,106.0
569,167.46489878125,167.88907843750002,60.0,96.0
570,167.95670128125002,168.51202827083333,51.0,87.0
571,167.46489878125,168.68210996875,44.0,101.0
572,168.44850378125,168.71899515625,56.0,96.0
573,168.44850378125,168.97719146875,60.0,104.0
574,168.44850378125,168.99153570833334,63.0,106.0
575,168.94030628125,169.07555196875,56.0,99.0
576,169.43210878125,169.64317402083333,58.0,99.0
577,169.92391128125,170.47309073958334,58.0,89.0
578,169.43210878125,170.47309073958334,63.0,101.0
579,169.43210878125,170.78456565625,51.0,101.0
580,170.41571378125002,171.3562860625,67.0,110.0
581,170.90751628125,171.48128586458333,58.0,106.0
582,171.39931878125,172.057104625,63.0,101.0
583,171.89112128125,172.45054662500002,58.0,89.0
584,171.39931878125,172.92390653125,51.0,96.0
585,172.87472628125002,173.1021849375,58.0,106.0
586,172.38292378125,173.26202075,67.0,117.0
587,173.36652878125,174.00177367708335,63.0,101.0
588,173.36652878125,174.28456011458334,60.0,91.0
589,173.85833128125,174.44644510416668,55.0,83.0
590,173.36652878125,174.56734655208334,48.0,96.0
591,174.35013378125,174.84398545833335,63.0,104.0
592,174.35013378125,174.87472311458333,67.0,113.0
593,174.84193628125,175.007919625,60.0,106.0
594,175.33373878125002,175.86242646875002,56.0,101.0
595,175.33373878125002,175.9792295625,60.0,96.0
596,175.33373878125002,176.06939335416666,44.0,104.0
597,175.82554128125,176.2005406875,51.0,91.0
598,176.31734378125,176.87471994791667,62.0,91.0
599,176.31734378125,176.92594937500002,58.0,99.0
600,176.31734378125,177.15135885416666,46.0,104.0
601,177.30094878125,177.5529975625,58.0,89.0
602,177.30094878125,178.03250500000001,63.0,101.0
603,177.79275128125002,178.36037333333334,58.0,82.0
604,177.30094878125,179.00996246875002,51.0,91.0
605,178.77635628125,179.1267655625,58.0,101.0
606,178.28455378125,179.24151947916667,67.0,117.0
607,179.26815878125,179.53865015625001,58.0,104.0
608,179.26815878125,179.85422342708333,63.0,106.0
609,179.75996128125,180.06528866666667,58.0,94.0
610,180.25176378125002,180.45258313541666,63.0,112.0
611,180.25176378125002,180.54274692708333,67.0,107.0
612,180.25176378125002,180.63291071875,58.0,109.0
613,179.26815878125,180.78250064583335,51.0,106.0
614,180.74356628125,181.16979511458334,62.0,117.0
615,181.23536878125,181.53045028125,63.0,106.0
616,181.23536878125,181.66159761458334,60.0,99.0
617,182.21897378125,182.52430116666667,63.0,109.0
618,182.21897378125,182.53659622916666,60.0,104.0
619,182.21897378125,182.71487463541666,67.0,117.0
620,181.72717128125,182.80913678125,55.0,83.0
621,181.23536878125,182.90749728125002,48.0,99.0
622,182.71077628125002,182.99561189583335,60.0,106.0
623,183.20257878125,183.78249589583334,60.0,101.0
624,183.20257878125,183.78864342708334,56.0,104.0
625,183.20257878125,183.90134816666668,44.0,101.0
626,183.69438128125,184.0447905625,51.0,80.0
627,184.18618378125,184.61856014583333,58.0,104.0
628,184.18618378125,184.74765830208335,62.0,113.0
629,184.67798628125,184.96692025000002,58.0,104.0
630,184.18618378125,185.040690625,46.0,109.0
631,185.16978878125002,185.39109990625002,58.0,99.0
632,185.16978878125002,185.73946001041668,63.0,101.0
633,185.66159128125,185.98741043750002,58.0,96.0
634,186.15339378125,186.4054425625,63.0,109.0
635,186.15339378125,186.52429483333333,67.0,120.0
636,185.16978878125002,186.83986810416667,51.0,104.0
637,186.64519628125,186.87880246875,65.0,112.0
638,186.89109753125,187.00790062500002,63.0,104.0
639,187.13699878125,187.38085085416668,58.0,99.0
640,187.62880128125002,187.90339101041667,58.0,104.0
641,187.13699878125,187.93412866666668,67.0,117.0
642,188.12060378125,188.36855420833334,63.0,115.0
643,188.12060378125,188.47101306250002,58.0,112.0
644,187.13699878125,188.93207790625002,51.0,104.0
645,188.61240628125,188.98945486458334,62.0,120.0
646,189.10420878125,189.51814255208333,63.0,106.0
647,189.10420878125,189.54888020833334,60.0,101.0
648,190.08781378125002,190.38699363541667,67.0,117.0
649,190.08781378125002,190.43617388541668,60.0,109.0
650,189.59601128125001,190.58781298958334,55.0,88.0
651,189.10420878125,190.68207513541668,48.0,101.0
652,190.57961628125,190.81527164583335,65.0,112.0
653,190.82551753125,190.96076321875,63.0,104.0
654,191.07141878125,191.5058443229167,60.0,104.0
655,191.07141878125,191.68617190625,44.0,106.0
656,191.56322128125,191.89313879166667,51.0,96.0
657,192.05502378125001,192.5693672291667,58.0,106.0
658,192.05502378125001,192.58576064583335,62.0,113.0
659,192.05502378125001,192.84395695833334,46.0,106.0
660,192.54682628125002,192.85010448958334,53.0,85.0
661,192.79272753125,192.94846498958333,58.0,112.0
662,193.03862878125,193.2906775625,58.0,106.0
663,193.03862878125,193.66157861458333,63.0,112.0
664,193.53043128125,193.794775125,58.0,82.0
665,194.02223378125,194.16362700000002,58.0,109.0
666,194.02223378125,194.24764326041668,63.0,112.0
667,194.02223378125,194.40338071875001,67.0,120.0
668,194.26813503125,194.44231508333334,58.0,104.0
669,194.51403628125001,194.82141284375,65.0,106.0
670,193.03862878125,194.8501013229167,51.0,101.0
671,194.75993753125002,194.89723239583333,58.0,99.0
672,195.00583878125002,195.27633015625,58.0,104.0
673,195.00583878125002,195.59190342708334,63.0,106.0
674,195.49764128125,195.8029686666667,58.0,94.0
675,195.98944378125,196.19026313541667,63.0,112.0
676,195.98944378125,196.28042692708334,67.0,107.0
677,195.98944378125,196.37059071875,58.0,109.0
678,195.00583878125002,196.52018064583334,51.0,106.0
679,196.48124628125,196.90747511458335,62.0,117.0
680,196.97304878125001,197.26813028125,63.0,106.0
681,196.97304878125001,197.39927761458335,60.0,99.0
682,197.95665378125,198.2619811666667,63.0,109.0
683,197.95665378125,198.27427622916667,60.0,104.0
684,197.95665378125,198.45255463541667,67.0,117.0
685,197.46485128125002,198.54681678125002,55.0,83.0
686,196.97304878125001,198.64517728125,48.0,99.0
687,198.44845628125,198.73329189583333,60.0,106.0
688,198.94025878125,199.52017589583335,60.0,101.0
689,198.94025878125,199.52632342708333,56.0,104.0
690,198.94025878125,199.63902816666666,44.0,101.0
691,199.43206128125001,199.7824705625,51.0,80.0
692,199.92386378125002,200.35624014583334,58.0,104.0
693,199.92386378125002,200.48533830208333,62.0,113.0
694,200.41566628125,200.70460025,58.0,104.0
695,199.92386378125002,200.778370625,46.0,109.0
696,200.90746878125,201.12877990625,58.0,99.0
697,200.90746878125,201.47714001041666,63.0,101.0
698,201.39927128125,201.7250904375,58.0,96.0
699,201.89107378125001,202.1431225625,63.0,109.0
700,201.89107378125001,202.26197483333334,67.0,120.0
701,200.90746878125,202.57754810416668,51.0,104.0
702,202.38287628125002,202.61648246875,65.0,112.0
703,202.62877753125,202.745580625,63.0,104.0
704,202.87467878125,203.11853085416666,58.0,99.0
705,203.36648128125,203.64107101041668,58.0,104.0
706,202.87467878125,203.67180866666666,67.0,117.0
707,203.85828378125,204.10623420833335,63.0,115.0
708,203.85828378125,204.2086930625,58.0,112.0
709,202.87467878125,204.66975790625,51.0,104.0
710,204.35008628125001,204.72713486458335,62.0,120.0
711,204.84188878125002,205.25582255208334,63.0,106.0
712,204.84188878125002,205.28656020833333,60.0,101.0
713,205.82549378125,206.12467363541668,67.0,117.0
714,205.82549378125,206.17385388541666,60.0,109.0
715,205.33369128125,206.32549298958335,55.0,88.0
716,204.84188878125002,206.41975513541666,48.0,101.0
717,206.31729628125,206.55295164583333,65.0,112.0
718,206.56319753125,206.69844321875001,63.0,104.0
719,206.80909878125001,207.24352432291667,60.0,104.0
720,206.80909878125001,207.42385190625,44.0,106.0
721,207.30090128125002,207.63081879166668,51.0,96.0
722,207.79270378125,208.30704722916667,58.0,106.0
723,207.79270378125,208.32344064583333,62.0,113.0
724,207.79270378125,208.58163695833335,46.0,106.0
725,208.28450628125,208.58778448958333,53.0,85.0
726,208.53040753125,208.68614498958334,58.0,112.0
727,208.77630878125,209.02835756250002,58.0,106.0
728,208.77630878125,209.39925861458335,63.0,112.0
729,209.26811128125001,209.532455125,58.0,82.0
730,209.75991378125002,209.901307,58.0,109.0
731,209.75991378125002,209.98532326041666,63.0,112.0
732,209.75991378125002,210.14106071875,67.0,120.0
733,210.00581503125,210.17999508333335,58.0,104.0
734,210.25171628125,210.55909284375,65.0,106.0
735,208.77630878125,210.58778132291667,51.0,101.0
736,210.49761753125,210.63491239583334,58.0,99.0
737,210.74351878125,211.31319001041666,56.0,96.0
738,210.74351878125,211.72917295833335,60.0,96.0
739,211.72712378125001,212.31318842708333,56.0,109.0
740,210.74351878125,212.31728678125,44.0,101.0
741,211.23532128125,212.34187690625,51.0,91.0
742,212.71072878125,215.84596971875,46.0,104.0
743,212.71072878125,216.39924753125,58.0,104.0
744,212.71072878125,216.42588683333335,62.0,99.0
745,216.64514878125001,218.05498261458334,51.0,106.0
746,217.13695128125002,218.06317932291668,58.0,99.0
747,217.62875378125,218.08981862500002,67.0,120.0
748,218.12055628125,218.61850631250002,63.0,104.0
749,219.10416128125001,219.73940617708334,55.0,81.0
750,220.08776628125,220.28038892708335,55.0,74.0
751,218.61235878125,220.40948708333335,48.0,101.0
752,219.59596378125002,220.63694573958335,63.0,106.0
753,220.57956878125,221.0037484375,60.0,96.0
754,221.07137128125,221.62669827083334,51.0,87.0
755,220.57956878125,221.79677996875,44.0,101.0
756,221.56317378125001,221.83366515625002,56.0,96.0
757,221.56317378125001,222.09186146875,60.0,104.0
758,221.56317378125001,222.10620570833333,63.0,106.0
759,222.05497628125002,222.19022196875,56.0,99.0
760,222.54677878125,222.75784402083335,58.0,99.0
761,223.03858128125,223.58776073958333,58.0,89.0
762,222.54677878125,223.58776073958333,63.0,101.0
763,222.54677878125,223.89923565625,51.0,101.0
764,223.53038378125,224.4709560625,67.0,110.0
765,224.02218628125001,224.59595586458335,58.0,106.0
766,224.51398878125002,225.171774625,63.0,101.0
767,225.00579128125,225.565216625,58.0,89.0
768,224.51398878125002,226.03857653125002,51.0,96.0
769,225.98939628125,226.21685493750002,58.0,106.0
770,225.49759378125,226.37669075,67.0,117.0
771,226.48119878125001,227.11644367708334,63.0,101.0
772,226.48119878125001,227.39923011458333,60.0,91.0
773,226.97300128125002,227.56111510416667,55.0,83.0
774,226.48119878125001,227.68201655208335,48.0,96.0
775,227.46480378125,227.95865545833334,63.0,104.0
776,227.46480378125,227.98939311458335,67.0,113.0
777,227.95660628125,228.12258962500002,60.0,106.0
778,228.44840878125,228.97709646875,56.0,101.0
779,228.44840878125,229.0938995625,60.0,96.0
780,228.44840878125,229.18406335416668,44.0,104.0
781,228.94021128125001,229.3152106875,51.0,91.0
782,229.43201378125002,229.98938994791666,62.0,91.0
783,229.43201378125002,230.040619375,58.0,99.0
784,229.43201378125002,230.26602885416668,46.0,104.0
785,230.41561878125,230.66766756250001,58.0,89.0
786,230.41561878125,231.147175,63.0,101.0
787,230.90742128125,231.47504333333333,58.0,82.0
788,230.41561878125,232.12463246875,51.0,91.0
789,231.89102628125002,232.24143556250002,58.0,101.0
790,231.39922378125002,232.3561894791667,67.0,117.0
791,232.60004155208335,234.88077564583335,58.0,80.0
792,232.34594359375,235.10003759375002,51.0,106.0
793,233.26192575000002,235.99347880208333,67.0,49.0
794,232.89922140625,236.00987221875002,63.0,96.0
795,234.03446551041668,236.03446234375002,75.0,91.0
796,233.61643338541668,236.03651152083333,70.0,67.0
