,start,end,pitch,velocity
0,29.50213580416667,29.821580264583336,55.0,78.0
1,29.978326304166668,30.37713584791667,55.0,77.0
2,30.45451680416667,30.754119993750002,57.0,85.0
3,30.93070730416667,31.341421610416667,58.0,85.0
4,31.406897804166668,31.488247014583337,57.0,76.0
5,31.64499305416667,31.922770845833334,55.0,74.0
6,32.12118355416667,32.73824707708334,57.0,78.0
7,33.311659804166666,33.6529296625,55.0,79.0
8,33.78785030416667,34.105310637500004,55.0,74.0
9,34.26404080416667,34.50213605416667,57.0,71.0
10,34.74023130416667,35.20650116875,58.0,89.0
11,35.21642180416667,35.47039007083333,57.0,92.0
12,35.69261230416667,36.131104389583335,55.0,72.0
13,36.16880280416667,36.625152033333336,53.0,68.0
14,37.12118380416667,37.46840604375,60.0,86.0
15,37.59737430416667,37.91880289166667,60.0,89.0
16,38.073564804166665,38.37316799375,60.0,78.0
17,38.549755304166666,38.896977543750005,58.0,76.0
18,39.02594580416667,39.32158073958334,57.0,74.0
19,39.50213630416667,39.817612510416666,55.0,66.0
20,39.97832680416667,40.35134269583334,53.0,73.0
21,40.93070780416667,41.26404115416667,60.0,82.0
22,41.40689830416667,41.73824752708333,60.0,77.0
23,41.88308880416667,42.26999358541667,61.0,89.0
24,42.35927930416667,42.78983488125,60.0,83.0
25,42.83546980416667,43.148961883333335,58.0,90.0
26,43.311660304166665,43.67277143333334,58.0,96.0
27,43.787850804166666,44.571581002083335,57.0,83.0
28,44.74023180416667,45.01404134166667,55.0,83.0
29,45.21642230416667,45.47237469791667,55.0,81.0
30,45.69261280416667,45.91681916458333,57.0,75.0
31,46.16880330416667,46.44261284166667,58.0,97.0
32,46.644993804166674,46.734279522916665,57.0,92.0
33,46.88308905416667,47.14300970208333,55.0,86.0
34,47.35927955416667,47.98824783958334,57.0,78.0
35,48.549755804166665,48.855311375,55.0,81.0
36,49.025946304166666,49.331501875,55.0,85.0
37,49.50213680416667,49.81364475625,57.0,75.0
38,49.97832730416667,50.29181938333333,58.0,81.0
39,50.45451780416667,50.547771777083334,57.0,82.0
40,50.69261305416667,50.91086703333333,55.0,86.0
41,51.16880355416667,51.84737501666667,53.0,86.0
42,52.35927980416667,52.69658140833334,60.0,90.0
43,52.83547030416667,53.158883018750004,60.0,88.0
44,53.311660804166664,53.617216375,60.0,85.0
45,53.787851304166665,54.162851322916666,58.0,85.0
46,54.264041804166666,54.74023230416667,57.0,79.0
47,54.74023230416667,55.101343433333334,55.0,72.0
48,55.21642280416667,55.668803779166666,53.0,77.0
49,56.16880380416667,56.51205778958334,60.0,86.0
50,56.64499430416667,56.96840701875,60.0,86.0
51,57.12118480416667,57.402930850000004,61.0,90.0
52,57.59737530416667,58.07951818541667,60.0,92.0
53,58.07356580416667,58.26602613125,58.0,76.0
54,58.549756304166664,59.17475633541667,58.0,82.0
55,59.264042054166666,60.22832781666666,60.0,92.0
56,61.883089804166666,62.24023267916667,53.0,83.0
57,62.35928030416667,62.76205810208334,60.0,96.0
58,62.83547080416667,63.214439077083334,64.0,93.0
59,63.31166130416667,63.779915295833334,65.0,96.0
60,63.78785180416667,64.11920102708334,65.0,99.0
61,64.26404230416667,64.59935978125,64.0,89.0
62,64.74023280416667,65.16285187291666,62.0,93.0
63,65.69261380416667,65.99221699374999,62.0,90.0
64,66.16880430416667,66.51999479791667,62.0,89.0
65,66.64499480416667,66.9743599,64.0,77.0
66,67.12118530416666,67.52396310208334,65.0,85.0
67,67.59737580416666,67.86920121458334,65.0,82.0
68,68.07356630416666,68.4148361625,64.0,90.0
69,68.54975680416666,69.10531238749999,65.0,93.0
70,69.50213780416667,69.79975686666667,62.0,90.0
71,69.97832830416667,70.331502925,62.0,96.0
72,70.45451880416667,70.80174104375,65.0,99.0
73,70.93070930416667,71.26404265416667,67.0,102.0
74,71.40689980416667,71.72237601041667,67.0,99.0
75,71.88309030416667,72.18269349375001,65.0,97.0
76,72.35928080416667,73.39697926875,67.0,117.0
77,73.78785230416668,74.141026925,60.0,100.0
78,74.26404280416668,74.57158250208334,67.0,99.0
79,74.74023330416667,75.03785236666667,67.0,107.0
80,75.21642380416667,75.39697936875001,65.0,107.0
81,75.69261430416667,75.92078891874999,67.0,117.0
82,76.16880480416667,76.31166195416667,67.0,127.0
83,76.40690005416667,76.53190006041666,65.0,102.0
84,76.64499530416667,77.00809056041666,67.0,127.0
85,77.12118580416667,77.51205883958333,69.0,122.0
86,78.07356680416666,78.19856681041668,60.0,112.0
87,78.31166205416667,78.43864618750001,65.0,99.0
88,78.54975730416666,78.80372557083334,67.0,112.0
89,79.02594780416666,79.29975734166666,65.0,112.0
90,79.50213830416666,79.63507481875,67.0,122.0
91,79.74023355416668,79.92277324583333,67.0,112.0
92,80.21642405416667,80.331503425,65.0,102.0
93,80.45451930416667,80.7957891625,69.0,122.0
94,81.40690030416667,81.75412254375,69.0,112.0
95,81.88309080416667,82.15094796041666,70.0,122.0
96,82.35928130416667,82.76999561041667,72.0,117.0
97,82.83547180416667,82.90491625208332,70.0,99.0
98,83.31166230416667,83.70848772083333,70.0,127.0
99,84.02594805416666,84.58745601875,65.0,102.0
100,85.21642430416667,85.63507511875,62.0,102.0
101,85.69261480416667,86.04975767916667,65.0,112.0
102,86.16880530416667,86.55571008541668,72.0,99.0
103,86.64499580416667,87.06563074583333,70.0,122.0
104,87.12118630416667,87.41483711250001,69.0,127.0
105,87.59737680416667,87.73229744583332,70.0,127.0
106,87.83547205416667,88.31364668124999,69.0,127.0
107,88.54975780416666,88.68071019166666,70.0,112.0
108,88.78785305416667,89.0815038625,69.0,100.0
109,89.26404355416668,89.62317055625,65.0,100.0
110,89.74023405416668,89.87912295000001,65.0,95.0
111,89.97832930416666,90.2124563,67.0,122.0
112,90.45451980416667,90.73031346875001,65.0,99.0
113,90.93071030416667,91.21840873125001,67.0,127.0
114,91.40690080416667,91.69856748541667,65.0,102.0
115,91.88309130416667,92.18467862083334,67.0,127.0
116,92.12118655416667,92.45253577708334,65.0,107.0
117,92.59737705416667,92.96245643750001,69.0,122.0
118,93.31166280416667,93.42674217500002,60.0,99.0
119,93.54975805416666,93.65888504374999,65.0,99.0
120,93.78785330416667,94.08547236666666,67.0,127.0
121,94.26404380416668,94.51999619791667,65.0,102.0
122,94.74023430416668,94.99618669791667,67.0,122.0
123,94.97832955416666,94.99618669791667,67.0,112.0
124,95.45452005416666,95.63507561875,65.0,96.0
125,95.69261530416668,95.93467880833333,67.0,107.0
126,96.16880580416668,96.60134550833334,69.0,112.0
127,97.12118680416665,97.28586935208332,69.0,102.0
128,97.35928205416667,97.47039317083335,70.0,117.0
129,97.59737730416666,97.86920271458334,72.0,112.0
130,98.07356780416666,98.35531384999999,70.0,127.0
131,98.54975830416666,98.86920276458335,69.0,122.0
132,99.02594880416666,99.34142501041666,65.0,100.0
133,100.45452030416666,100.82356794166668,62.0,107.0
134,100.93071080416667,101.27594891666666,65.0,102.0
135,101.40690130416667,101.81563148333333,72.0,127.0
136,101.88309180416667,102.19261562916668,70.0,117.0
137,102.35928230416667,102.64698073125001,69.0,122.0
138,102.83547280416667,102.96245693750001,70.0,122.0
139,103.07356805416666,103.44856807291666,69.0,117.0
140,103.78785380416667,104.06563159583334,65.0,96.0
141,104.26404430416667,104.57952051041667,67.0,127.0
142,104.74023480416668,105.13507609375,67.0,112.0
143,105.21642530416668,107.26602858125,65.0,117.0
144,120.93071180416666,121.25015626458332,55.0,78.0
145,121.40690230416666,121.80571184791665,55.0,77.0
146,121.88309280416667,122.18269599375,57.0,85.0
147,122.35928330416667,122.76999761041668,58.0,85.0
148,122.83547380416667,122.91682301458334,57.0,76.0
149,123.07356905416665,123.35134684583335,55.0,74.0
150,123.54975955416666,124.16682307708334,57.0,78.0
151,124.74023580416667,125.0815056625,55.0,79.0
152,125.21642630416667,125.53388663749999,55.0,74.0
153,125.69261680416668,125.93071205416666,57.0,71.0
154,126.16880730416668,126.63507716875,58.0,89.0
155,126.64499780416668,126.89896607083332,57.0,92.0
156,127.12118830416668,127.55968038958335,55.0,72.0
157,127.59737880416668,128.05372803333333,53.0,68.0
158,128.54975980416665,128.89698204375,60.0,86.0
159,129.02595030416666,129.34737889166666,60.0,89.0
160,129.50214080416666,129.80174399375,60.0,78.0
161,129.97833130416666,130.32555354375,58.0,76.0
162,130.45452180416666,130.75015673958333,57.0,74.0
163,130.93071230416666,131.24618851041666,55.0,66.0
164,131.40690280416666,131.77991869583335,53.0,73.0
165,132.35928380416667,132.69261715416667,60.0,82.0
166,132.83547430416667,133.16682352708332,60.0,77.0
167,133.31166480416667,133.69856958541666,61.0,89.0
168,133.78785530416667,134.21841088125,60.0,83.0
169,134.26404580416667,134.57753788333332,58.0,90.0
170,134.74023630416667,135.10134743333333,58.0,96.0
171,135.21642680416667,136.00015700208334,57.0,83.0
172,136.16880780416668,136.44261734166668,55.0,83.0
173,136.64499830416668,136.90095069791667,55.0,81.0
174,137.12118880416668,137.34539516458332,57.0,75.0
175,137.59737930416668,137.87118884166668,58.0,97.0
176,138.07356980416668,138.16285552291666,57.0,92.0
177,138.31166505416667,138.57158570208333,55.0,86.0
178,138.78785555416667,139.41682383958334,57.0,78.0
179,139.97833180416666,140.283887375,55.0,81.0
180,140.45452230416666,140.760077875,55.0,85.0
181,140.93071280416666,141.24222075625,57.0,75.0
182,141.40690330416666,141.72039538333334,58.0,81.0
183,141.88309380416666,141.97634777708333,57.0,82.0
184,142.12118905416668,142.33944303333334,55.0,86.0
185,142.59737955416668,143.27595101666668,53.0,86.0
186,143.78785580416667,144.12515740833334,60.0,90.0
187,144.26404630416667,144.58745901875,60.0,88.0
188,144.74023680416667,145.045792375,60.0,85.0
189,145.21642730416667,145.59142732291667,58.0,85.0
190,145.69261780416667,146.16880830416667,57.0,79.0
191,146.16880830416667,146.52991943333333,55.0,72.0
192,146.64499880416668,147.09737977916666,53.0,77.0
193,147.59737980416668,147.94063378958333,60.0,86.0
194,148.07357030416668,148.39698301875,60.0,86.0
195,148.54976080416668,148.83150685,61.0,90.0
196,149.02595130416665,149.50809418541667,60.0,92.0
197,149.50214180416665,149.69460213125,58.0,76.0
198,149.97833230416666,150.60333233541667,58.0,82.0
199,150.69261805416667,151.65690381666667,60.0,92.0
200,153.31166580416667,153.66880867916666,53.0,83.0
201,153.78785630416667,154.19063410208332,60.0,96.0
202,154.26404680416667,154.64301507708333,64.0,93.0
203,154.74023730416667,155.20849129583334,65.0,96.0
204,155.21642780416667,155.54777702708333,65.0,99.0
205,155.69261830416667,156.02793578125,64.0,89.0
206,156.16880880416667,156.59142787291665,62.0,93.0
207,157.12118980416665,157.42079299374998,62.0,90.0
208,157.59738030416665,157.94857079791666,62.0,89.0
209,158.07357080416665,158.4029359,64.0,77.0
210,158.54976130416665,158.95253910208334,65.0,85.0
211,159.02595180416665,159.29777721458333,65.0,82.0
212,159.50214230416665,159.8434121625,64.0,90.0
213,159.97833280416666,160.53388838749999,65.0,93.0
214,160.93071380416666,161.22833286666665,62.0,90.0
215,161.40690430416666,161.760078925,62.0,96.0
216,161.88309480416666,162.23031704375,65.0,99.0
217,162.35928530416666,162.69261865416667,67.0,102.0
218,162.83547580416666,163.15095201041666,67.0,99.0
219,163.31166630416666,163.61126949375,65.0,97.0
220,163.78785680416667,164.82555526874998,67.0,117.0
221,165.21642830416667,165.569602925,60.0,100.0
222,165.69261880416667,166.00015850208334,67.0,99.0
223,166.16880930416667,166.46642836666666,67.0,107.0
224,166.64499980416667,166.82555536875,65.0,107.0
225,167.12119030416667,167.34936491874998,67.0,117.0
226,167.59738080416665,167.74023795416667,67.0,127.0
227,167.83547605416666,167.96047606041665,65.0,102.0
228,168.07357130416665,168.43666656041665,67.0,127.0
229,168.54976180416665,168.94063483958334,69.0,122.0
230,169.50214280416665,169.62714281041667,60.0,112.0
231,169.74023805416667,169.8672221875,65.0,99.0
232,169.97833330416665,170.23230157083333,67.0,112.0
233,170.45452380416666,170.72833334166666,65.0,112.0
234,170.93071430416666,171.06365081875,67.0,122.0
235,171.16880955416667,171.35134924583332,67.0,112.0
236,171.64500005416667,171.760079425,65.0,102.0
237,171.88309530416666,172.2243651625,69.0,122.0
238,172.83547630416666,173.18269854375,69.0,112.0
239,173.31166680416666,173.57952396041665,70.0,122.0
240,173.78785730416666,174.19857161041665,72.0,117.0
241,174.26404780416667,174.33349225208332,70.0,99.0
242,174.74023830416667,175.13706372083334,70.0,127.0
243,175.45452405416665,176.01603201875,65.0,102.0
244,176.64500030416667,177.06365111875,62.0,102.0
245,177.12119080416667,177.47833367916667,65.0,112.0
246,177.59738130416667,177.98428608541667,72.0,99.0
247,178.07357180416665,178.49420674583334,70.0,122.0
248,178.54976230416665,178.8434131125,69.0,127.0
249,179.02595280416665,179.16087344583332,70.0,127.0
250,179.26404805416666,179.74222268124998,69.0,127.0
251,179.97833380416665,180.10928619166665,70.0,112.0
252,180.21642905416667,180.5100798625,69.0,100.0
253,180.69261955416667,181.05174655624998,65.0,100.0
254,181.16881005416667,181.30769895,65.0,95.0
255,181.40690530416666,181.6410323,67.0,122.0
256,181.88309580416666,182.15888946875,65.0,99.0
257,182.35928630416666,182.64698473125,67.0,127.0
258,182.83547680416666,183.12714348541667,65.0,102.0
259,183.31166730416666,183.61325462083332,67.0,127.0
260,183.54976255416665,183.88111177708333,65.0,107.0
261,184.02595305416665,184.3910324375,69.0,122.0
262,184.74023880416667,184.855318175,60.0,99.0
263,184.97833405416665,185.08746104374998,65.0,99.0
264,185.21642930416667,185.51404836666666,67.0,127.0
265,185.69261980416667,185.94857219791666,65.0,102.0
266,186.16881030416667,186.42476269791666,67.0,122.0
267,186.40690555416666,186.42476269791666,67.0,112.0
268,186.88309605416666,187.06365161875,65.0,96.0
269,187.12119130416667,187.36325480833332,67.0,107.0
270,187.59738180416667,188.02992150833333,69.0,112.0
271,188.54976280416665,188.71444535208332,69.0,102.0
272,188.78785805416666,188.89896917083334,70.0,117.0
273,189.02595330416665,189.29777871458333,72.0,112.0
274,189.50214380416665,189.78388984999998,70.0,127.0
275,189.97833430416665,190.2977787645833,69.0,122.0
276,190.45452480416665,190.77000101041665,65.0,100.0
277,191.88309630416666,192.25214394166667,62.0,107.0
278,192.35928680416666,192.70452491666666,65.0,102.0
279,192.83547730416666,193.24420748333333,72.0,127.0
280,193.31166780416666,193.62119162916667,70.0,117.0
281,193.78785830416666,194.07555673125,69.0,122.0
282,194.26404880416666,194.3910329375,70.0,122.0
283,194.50214405416665,194.87714407291665,69.0,117.0
284,195.21642980416667,195.49420759583333,65.0,96.0
285,195.69262030416667,196.00809651041666,67.0,127.0
286,196.16881080416667,196.56365209375,67.0,112.0
287,196.64500130416667,198.69460458125,65.0,117.0
288,202.83547780416666,203.12317623125,69.0,96.0
289,203.31166830416666,203.6846841958333,65.0,99.0
290,203.78785880416666,203.89896992083334,67.0,117.0
291,204.02595405416665,205.68468429583334,69.0,127.0
292,208.07357330416667,210.78190677291667,72.0,122.0
293,210.93071630416665,211.28389092499998,60.0,100.0
294,211.40690680416665,211.71444650208332,65.0,99.0
295,211.88309730416665,212.18071636666667,67.0,107.0
296,212.35928780416666,212.53984336874998,65.0,107.0
297,212.83547830416666,213.06365291875,67.0,117.0
298,213.07357355416667,213.21643070416667,67.0,127.0
299,213.54976405416667,213.67476406041666,65.0,102.0
300,213.78785930416666,214.15095456041666,67.0,127.0
301,214.26404980416666,214.65492283958332,69.0,122.0
302,215.21643080416666,215.34143081041665,60.0,112.0
303,215.45452605416665,215.5815101875,65.0,99.0
304,215.69262130416666,215.94658957083334,67.0,112.0
305,216.16881180416667,216.44262134166667,65.0,112.0
306,216.64500230416667,216.77793881875,67.0,122.0
307,216.88309755416665,217.06563724583333,67.0,112.0
308,217.35928805416665,217.474367425,65.0,102.0
309,217.59738330416667,217.9386531625,69.0,122.0
310,218.54976430416667,218.89698654375,69.0,112.0
311,219.02595480416667,219.29381196041666,70.0,122.0
312,219.50214530416665,219.91285961041666,72.0,117.0
313,219.97833580416665,220.04778025208333,70.0,99.0
314,220.45452630416665,220.85135172083332,70.0,127.0
315,220.93071680416665,221.49222476875,65.0,102.0
316,222.35928830416665,222.77793911875,62.0,102.0
317,222.83547880416666,223.19262167916665,65.0,112.0
318,223.31166930416666,223.69857408541665,72.0,99.0
319,223.78785980416666,224.20849474583332,70.0,122.0
320,224.26405030416666,224.55770111249998,69.0,127.0
321,224.74024080416666,224.87516144583333,70.0,127.0
322,224.97833605416665,225.45651068125,69.0,127.0
323,225.69262180416666,225.82357419166667,70.0,112.0
324,225.93071705416665,226.2243678625,69.0,100.0
325,226.40690755416665,226.76603455625,65.0,100.0
326,226.88309805416665,227.02198694999998,65.0,95.0
327,227.12119330416667,227.3553203,67.0,122.0
328,227.59738380416667,227.87317746875,65.0,99.0
329,228.07357430416667,228.36127273124998,67.0,127.0
330,228.54976480416667,228.84143148541665,65.0,102.0
331,229.02595530416667,229.32754262083333,67.0,127.0
332,229.26405055416666,229.59539977708332,65.0,107.0
333,229.74024105416666,230.10532043749998,69.0,122.0
334,230.45452680416665,230.569606175,60.0,99.0
335,230.69262205416666,230.80174904375,65.0,99.0
336,230.93071730416665,231.22833636666667,67.0,127.0
337,231.40690780416665,231.66286019791667,65.0,102.0
338,231.88309830416665,232.13905069791667,67.0,122.0
339,232.12119355416667,232.13905069791667,67.0,112.0
340,232.59738405416667,232.77793961875,65.0,96.0
341,232.83547930416665,233.07754280833333,67.0,107.0
342,233.31166980416666,233.7442095083333,69.0,112.0
343,234.26405080416666,234.42873335208333,69.0,102.0
344,234.50214605416667,234.61325717083332,70.0,117.0
345,234.74024130416666,235.01206671458334,72.0,112.0
346,235.21643180416666,235.49817785,70.0,127.0
347,235.69262230416666,236.01206676458332,69.0,122.0
348,236.16881280416666,236.48428901041666,65.0,100.0
349,237.59738430416667,237.96643194166666,62.0,107.0
350,238.07357480416667,238.41881291666667,65.0,102.0
351,238.54976530416667,238.95849548333334,72.0,127.0
352,239.02595580416667,239.33547962916666,70.0,117.0
353,239.50214630416667,239.78984473124999,69.0,122.0
354,239.97833680416667,240.10532093749998,70.0,122.0
355,240.21643205416666,240.59143207291666,69.0,117.0
356,240.93071780416665,241.2084955958333,65.0,96.0
357,241.40690830416665,241.72238451041665,67.0,127.0
358,241.88309880416665,242.27794009375,67.0,112.0
359,242.35928930416665,244.40889258125,65.0,117.0
360,257.1211948041667,257.54182974583335,60.0,86.0
361,257.59738530416666,257.99421072083334,67.0,100.0
362,258.0735758041667,258.37317899375,65.0,96.0
363,258.54976630416667,258.9386552125,67.0,100.0
364,259.0259568041667,259.3116711041667,65.0,92.0
365,259.50214730416667,259.81365525625,67.0,102.0
366,259.7402425541667,259.9842901854167,65.0,77.0
367,260.21643305416666,260.8196076875,69.0,97.0
368,260.9307188041667,261.17873468958334,60.0,97.0
369,261.16881405416666,261.44460771875004,65.0,75.0
370,261.4069093041667,261.7719886875,67.0,92.0
371,261.88309980416665,262.19063950208334,65.0,96.0
372,262.3592903041667,262.6529411125,67.0,102.0
373,262.83548080416665,262.9882585895833,67.0,112.0
374,263.07357605416667,263.15889351875,65.0,76.0
375,263.3116713041667,263.4584967083333,65.0,92.0
376,263.78786180416665,263.9267507,67.0,93.0
377,264.2640523041667,266.86524291041667,69.0,79.0
