,start,end,pitch,velocity
0,11.480159304166667,12.021825997916666,65.0,58.0
1,11.480159304166667,12.099206954166666,60.0,60.0
2,11.956349804166667,12.615079995833334,41.0,58.0
3,12.432540304166666,13.033730810416667,65.0,53.0
4,12.432540304166666,13.251984789583334,60.0,59.0
5,12.908730804166666,13.539683216666667,41.0,52.0
6,13.384921304166667,13.88690545625,65.0,59.0
7,13.384921304166667,13.914683235416666,60.0,58.0
8,13.861111804166667,14.44642929375,41.0,44.0
9,14.337302304166666,15.1428579,65.0,44.0
10,14.337302304166666,15.166667425,60.0,45.0
11,15.289683304166667,15.902778572916667,57.0,63.0
12,15.289683304166667,15.918651589583334,60.0,67.0
13,15.289683304166667,15.918651589583334,64.0,63.0
14,15.765873804166667,16.39484208958333,45.0,62.0
15,16.242064304166668,16.890873860416665,57.0,52.0
16,16.242064304166668,16.902778622916667,60.0,56.0
17,16.242064304166668,16.91071513125,64.0,53.0
18,16.718254804166666,17.2380961,45.0,53.0
19,17.194445304166667,17.69642945625,57.0,41.0
20,17.194445304166667,17.734127870833333,64.0,44.0
21,17.194445304166667,17.738096125,60.0,45.0
22,17.67063580416667,18.156746939583332,45.0,47.0
23,18.146826304166666,18.93650888333333,57.0,52.0
24,18.146826304166666,18.974207297916667,60.0,53.0
25,18.146826304166666,18.98015967916667,64.0,53.0
26,18.623016804166667,19.186508895833335,45.0,49.0
27,19.099207304166665,19.662699395833332,62.0,57.0
28,19.099207304166665,19.668651777083333,65.0,60.0
29,19.099207304166665,19.68452479375,58.0,66.0
30,19.575397804166666,20.200397835416666,46.0,49.0
31,20.051588304166668,20.67262008125,58.0,55.0
32,20.051588304166668,20.7023819875,65.0,52.0
33,20.051588304166668,20.7261915125,62.0,50.0
34,20.527778804166665,20.974207397916665,46.0,55.0
35,21.003969304166667,21.525794727083333,58.0,59.0
36,21.003969304166667,21.52976298125,65.0,55.0
37,21.003969304166667,21.549604252083334,62.0,50.0
38,21.480159804166668,21.91071538125,46.0,53.0
39,21.956350304166666,22.692461452083332,58.0,58.0
40,21.956350304166666,22.72817573958333,65.0,53.0
41,21.956350304166666,22.73214399375,62.0,48.0
42,22.432540804166667,22.92262019375,46.0,58.0
43,22.908731304166665,23.444445616666666,58.0,59.0
44,22.908731304166665,23.456350379166665,65.0,60.0
45,22.908731304166665,23.474207522916668,61.0,51.0
46,23.384921804166666,23.95238215,46.0,41.0
47,23.861112304166667,24.4880964625,58.0,46.0
48,23.861112304166667,24.517858368749998,65.0,36.0
49,23.861112304166667,24.52976313125,61.0,34.0
50,24.337302804166665,24.9404774375,46.0,45.0
51,24.813493304166666,25.323413964583334,58.0,58.0
52,24.813493304166666,25.339286981249998,65.0,59.0
53,24.813493304166666,25.343255235416667,61.0,36.0
54,25.289683804166668,26.170636229166668,46.0,37.0
55,26.242064804166667,28.963140062500003,58.0,45.0
56,26.242064804166667,28.9695503125,61.0,36.0
57,26.242064804166667,28.988246889583337,65.0,48.0
58,29.50213580416667,30.25808822291667,48.0,57.0
59,30.45451680416667,31.21840573125,48.0,57.0
60,29.978326304166668,31.521977175000004,60.0,64.0
61,29.978326304166668,31.63308829166667,57.0,63.0
62,30.93070730416667,31.64697718125,53.0,58.0
63,29.02594530416667,32.04777085208334,41.0,69.0
64,31.406897804166668,32.0576914875,48.0,61.0
65,32.35927880416667,32.91681851458333,53.0,56.0
66,31.88308830416667,33.06165979166667,57.0,66.0
67,31.88308830416667,33.12515185833334,60.0,67.0
68,33.311659804166666,34.39499319166667,52.0,57.0
69,33.78785030416667,34.41285033541667,60.0,61.0
70,33.78785030416667,34.41880271666667,57.0,66.0
71,34.26404080416667,34.92872337708334,45.0,36.0
72,34.74023130416667,35.492215468750004,60.0,58.0
73,34.74023130416667,35.547771027083336,57.0,61.0
74,35.21642180416667,36.141025025000005,45.0,36.0
75,32.83546930416667,36.16086629583334,40.0,71.0
76,36.16880280416667,36.64499330416667,52.0,61.0
77,35.69261230416667,36.64499330416667,57.0,71.0
78,35.69261230416667,36.64499330416667,60.0,69.0
79,37.12118380416667,37.720390183333336,46.0,55.0
80,37.59737430416667,38.379120375,58.0,65.0
81,38.073564804166665,38.64697753125,46.0,50.0
82,38.78785055416667,39.09142199791667,53.0,24.0
83,37.59737430416667,39.19459660625,62.0,62.0
84,38.549755304166666,39.41086645833334,58.0,68.0
85,37.59737430416667,39.43070772916667,65.0,60.0
86,36.64499330416667,40.0219776,34.0,73.0
87,39.50213630416667,40.3076919,62.0,69.0
88,39.02594580416667,40.32554904375,46.0,52.0
89,39.97832680416667,40.37713634791667,58.0,58.0
90,40.93070780416667,41.52793005625,46.0,58.0
91,40.45451730416667,41.54578720000001,61.0,59.0
92,40.45451730416667,41.59935863125,58.0,65.0
93,41.88308880416667,42.55173963125,46.0,52.0
94,41.40689830416667,43.349358718750004,53.0,63.0
95,40.45451730416667,43.37316824375,34.0,66.0
96,42.83546980416667,43.484279360416664,46.0,55.0
97,42.35927930416667,44.23031114375,61.0,75.0
98,43.311660304166665,44.25610479583334,58.0,78.0
99,43.787850804166666,44.32158098958334,53.0,58.0
100,44.74023180416667,45.4624540625,48.0,65.0
101,45.21642230416667,46.125152508333336,57.0,76.0
102,45.69261280416667,46.28586680208333,48.0,40.0
103,44.26404130416667,47.35134304583333,41.0,71.0
104,46.644993804166674,47.379120825,48.0,38.0
105,47.59737480416667,48.12118435416667,53.0,77.0
106,47.12118430416667,48.13308911666667,57.0,81.0
107,46.16880330416667,48.17277165833333,60.0,78.0
108,48.549755804166665,49.1053113875,52.0,54.0
109,49.025946304166666,49.773962214583335,57.0,75.0
110,49.50213680416667,50.5815019375,52.0,49.0
111,50.45451780416667,51.0100733875,57.0,59.0
112,48.073565304166664,51.023962277083335,40.0,76.0
113,50.93070830416667,51.4148353125,52.0,79.0
114,49.97832730416667,51.553724208333335,60.0,72.0
115,51.40689880416667,51.89499406666667,57.0,66.0
116,51.88308930416667,52.482295683333334,58.0,56.0
117,51.88308930416667,52.519994097916666,62.0,38.0
118,51.88308930416667,52.79777188958333,65.0,24.0
119,52.35927980416667,52.96443856458333,53.0,45.0
120,53.311660804166664,54.00412115625,53.0,53.0
121,54.025946554166666,54.309676727083335,65.0,1.0
122,52.83547030416667,54.381105302083334,58.0,85.0
123,54.264041804166666,54.867216437500005,53.0,52.0
124,51.88308930416667,55.15888311875,46.0,74.0
125,54.74023230416667,55.74618473541667,65.0,67.0
126,53.787851304166665,55.80174029375,62.0,76.0
127,55.21642280416667,55.82356569166667,53.0,50.0
128,56.16880380416667,56.736264150000004,53.0,58.0
129,57.12118480416667,57.53785149166667,61.0,67.0
130,57.59737530416667,58.143010252083336,61.0,78.0
131,56.64499430416667,58.20848644583334,58.0,85.0
132,55.69261330416667,58.88308965416667,46.0,93.0
133,58.07356580416667,59.410867458333335,53.0,60.0
134,58.549756304166664,59.52594682916667,61.0,89.0
135,59.025946804166665,59.5457881,58.0,93.0
136,59.97832780416667,60.72039133333334,52.0,67.0
137,60.93070880416667,61.563645343750004,52.0,53.0
138,60.45451830416667,62.21840728125,57.0,90.0
139,61.883089804166666,62.56364539375,52.0,48.0
140,59.502137304166666,62.585470791666665,45.0,83.0
141,61.40689930416667,63.315629558333335,64.0,93.0
142,62.35928030416667,63.351343845833334,60.0,92.0
143,62.83547080416667,63.82356609166667,57.0,75.0
144,64.26404230416667,65.41285188541667,50.0,85.0
145,64.74023280416667,66.17872493958333,57.0,86.0
146,65.69261380416667,66.2957884375,50.0,69.0
147,63.31166130416667,66.331502725,38.0,82.0
148,63.78785180416667,66.34935986875,45.0,59.0
149,65.21642330416667,67.2005503875,65.0,93.0
150,66.16880430416667,67.20253451458333,62.0,96.0
151,66.64499480416667,67.25412181875001,57.0,90.0
152,68.54975680416666,69.05769333750001,58.0,117.0
153,67.59737580416666,69.20451874166667,50.0,85.0
154,68.07356630416666,69.52991558333333,55.0,95.0
155,69.50213780416667,70.14301085208334,50.0,66.0
156,67.12118530416666,70.27793149375,43.0,88.0
157,69.97832830416667,70.98031248125,58.0,107.0
158,69.02594730416666,71.00412200625,62.0,99.0
159,70.45451880416667,71.14697915625001,55.0,77.0
160,71.88309030416667,73.03983639375,48.0,90.0
161,72.83547130416667,73.63110626458334,64.0,96.0
162,72.83547130416667,73.63507451875,60.0,99.0
163,72.35928080416667,73.664836425,55.0,64.0
164,73.31166180416668,73.85928087916668,48.0,93.0
165,70.93070930416667,74.03785231666666,36.0,82.0
166,71.40689980416667,74.09539200208334,43.0,62.0
167,74.02594755416666,74.2243602625,48.0,100.0
168,73.78785230416668,74.3076936,60.0,102.0
169,73.78785230416668,74.64896345833333,64.0,102.0
170,74.26404280416668,74.65491583958334,55.0,97.0
171,74.50213805416666,74.78785235416666,60.0,112.0
172,75.45451905416667,75.5100746125,60.0,37.0
173,75.21642380416667,75.76801113333335,53.0,93.0
174,75.45451905416667,75.96443971458334,57.0,86.0
175,75.93070955416667,76.20253496458334,53.0,95.0
176,74.74023330416667,76.45253497708333,41.0,75.0
177,74.97832855416667,76.6529318125,48.0,86.0
178,76.40690005416667,77.21047152291666,57.0,102.0
179,75.69261430416667,77.2243604125,65.0,107.0
180,76.16880480416667,77.24618581041668,60.0,102.0
181,77.35928105416667,77.41880486666668,60.0,43.0
182,77.12118580416667,77.67078900625,53.0,96.0
183,77.83547155416667,78.12316998125,53.0,107.0
184,77.35928105416667,78.13507474375001,57.0,90.0
185,76.64499530416667,78.41285253541668,41.0,79.0
186,77.59737630416666,78.55769381249999,65.0,107.0
187,76.88309055416667,78.58745571875,48.0,76.0
188,78.07356680416666,78.70451921666667,60.0,96.0
189,78.31166205416667,78.91682081458333,57.0,85.0
190,79.02594780416666,79.59737640416667,53.0,90.0
191,79.26404305416668,79.77396371458335,57.0,83.0
192,79.74023355416668,80.02396372708333,53.0,90.0
193,78.54975730416666,80.31166215416667,41.0,78.0
194,78.78785255416668,80.50015422708333,48.0,78.0
195,79.97832880416667,81.04380504791666,57.0,85.0
196,79.50213830416666,81.141027275,64.0,100.0
197,80.21642405416667,81.25610664583334,60.0,95.0
198,80.93070980416667,81.50610665833334,53.0,88.0
199,80.45451930416667,81.75213841666667,41.0,78.0
200,81.16880505416667,81.75809079791667,57.0,71.0
201,81.64499555416667,81.77396381458334,53.0,89.0
202,80.69261455416667,81.78190032291667,48.0,75.0
203,81.40690030416667,82.38110670208334,64.0,97.0
204,81.88309080416667,82.39697971875,60.0,100.0
205,82.12118605416667,82.45055115,57.0,92.0
206,82.83547180416667,83.32753532083333,46.0,90.0
207,83.07356705416666,83.65491628958333,50.0,75.0
208,83.78785280416668,84.1053131375,53.0,85.0
209,82.35928130416667,84.12515440833334,34.0,86.0
210,84.02594805416666,84.13507504374999,62.0,55.0
211,82.59737655416666,84.31364648125,41.0,58.0
212,83.54975755416666,84.41880521666667,46.0,95.0
213,83.31166230416667,84.521979825,58.0,107.0
214,84.74023380416668,85.3195989125,46.0,93.0
215,84.97832905416666,85.57753543333334,53.0,97.0
216,84.50213855416666,85.75610687083334,41.0,38.0
217,84.26404330416668,85.83348782708333,34.0,95.0
218,85.21642430416667,86.10134498333333,62.0,97.0
219,85.45451955416667,86.1053132375,46.0,100.0
220,85.69261480416667,86.14697990625001,58.0,117.0
221,85.93071005416667,86.33348785208334,53.0,89.0
222,86.64499580416667,87.21642440416667,46.0,96.0
223,86.88309105416667,87.64896410833333,53.0,89.0
224,86.16880530416667,87.94856729791667,34.0,93.0
225,86.40690055416667,88.0815038125,41.0,69.0
226,87.35928155416667,88.32753557083333,46.0,96.0
227,87.83547205416667,88.65491653958333,53.0,90.0
228,87.12118630416667,88.76404352916667,61.0,127.0
229,87.59737680416667,88.81166257916666,58.0,95.0
230,88.54975780416666,89.15491656458335,46.0,93.0
231,88.07356730416666,89.30769434999999,34.0,73.0
232,88.31166255416667,89.32951974791666,41.0,52.0
233,89.26404355416668,89.44658324583334,46.0,99.0
234,88.78785305416667,89.5576943625,53.0,89.0
235,89.50213880416666,89.98229755833333,58.0,112.0
236,89.74023405416668,90.00213882916667,53.0,99.0
237,89.02594830416666,90.02198010000001,61.0,122.0
238,90.45451980416667,91.01404364166666,53.0,92.0
239,91.16880555416667,91.37515477083333,53.0,96.0
240,90.69261505416667,91.39896429583334,57.0,82.0
241,89.97832930416666,91.70253573958334,41.0,93.0
242,90.21642455416668,91.96840876875001,48.0,75.0
243,91.64499605416667,92.48229768333334,57.0,95.0
244,91.40690080416667,92.50809133541667,60.0,88.0
245,90.93071030416667,92.51602784375001,65.0,97.0
246,92.59737705416667,92.66682150208334,60.0,45.0
247,92.35928180416667,92.90491675208334,53.0,86.0
248,92.59737705416667,93.36920248958333,57.0,92.0
249,93.07356755416666,93.44856757291666,53.0,83.0
250,91.88309130416667,93.65094853541666,41.0,81.0
251,92.12118655416667,93.84737711666668,48.0,85.0
252,92.83547230416667,93.87713902291668,65.0,97.0
253,93.31166280416667,93.96642474166666,60.0,89.0
254,93.54975805416666,94.20650411874999,57.0,93.0
255,94.26404380416668,94.85134542083333,53.0,83.0
256,94.97832955416666,95.19063115208334,53.0,88.0
257,94.50213905416666,95.31166290416667,57.0,82.0
258,93.78785330416667,95.521980375,41.0,85.0
259,94.02594855416666,95.78190102291666,48.0,82.0
260,94.74023430416668,96.02198039999999,64.0,99.0
261,95.45452005416666,96.24221850625,57.0,95.0
262,95.21642480416668,96.44063121458333,60.0,97.0
263,96.16880580416668,96.77594869166666,53.0,86.0
264,96.40690105416667,96.97039314583333,57.0,74.0
265,96.88309155416667,97.03785346666666,53.0,81.0
266,95.69261530416668,97.06563124583334,41.0,76.0
267,95.93071055416667,97.07158362708333,48.0,85.0
268,96.64499630416668,97.55571063541666,64.0,107.0
269,97.12118680416665,97.58944079583333,60.0,100.0
270,97.35928205416667,97.63309159166667,57.0,82.0
271,98.07356780416666,98.58944084583334,46.0,97.0
272,98.31166305416667,99.03190118541667,50.0,81.0
273,97.59737730416666,99.30571072291667,34.0,93.0
274,97.83547255416667,99.474361525,41.0,63.0
275,98.78785355416667,99.57753613333333,46.0,86.0
276,99.02594880416666,99.59142502291667,53.0,78.0
277,98.54975830416666,100.24618696041668,58.0,93.0
278,99.26404405416667,100.24618696041668,62.0,81.0
279,100.21642505416668,100.50610760833334,53.0,71.0
280,99.97832980416666,100.55571078541666,46.0,88.0
281,100.45452030416666,101.23825050208333,62.0,89.0
282,99.50213930416666,101.32952034791666,34.0,90.0
283,100.93071080416667,101.33745685625001,58.0,90.0
284,101.16880605416668,101.44658384583335,53.0,74.0
285,99.74023455416668,101.48428226041668,41.0,59.0
286,100.69261555416668,101.617218775,46.0,88.0
287,102.12118705416665,102.49023469166667,53.0,73.0
288,101.88309180416667,102.49420294583334,46.0,93.0
289,101.40690130416667,103.18269504374999,34.0,88.0
290,101.64499655416668,103.39896489583333,41.0,67.0
291,102.59737755416666,103.51206013958333,46.0,78.0
292,103.07356805416666,103.89698079375,53.0,79.0
293,102.35928230416667,103.99618714791666,61.0,97.0
294,102.83547280416667,104.0815046125,58.0,76.0
295,103.78785380416667,104.34539351458332,46.0,77.0
296,103.31166330416667,104.56166336666666,34.0,75.0
297,103.54975855416666,104.60729828958333,41.0,51.0
298,104.02594905416666,104.65491733958333,53.0,81.0
299,104.50213955416666,104.66483797500001,46.0,92.0
300,104.26404430416667,105.164838,61.0,100.0
301,104.74023480416668,105.17872688958334,58.0,100.0
302,104.97833005416666,105.18071101666666,53.0,90.0
303,105.69261580416668,106.23825075208333,53.0,95.0
304,105.93071105416666,106.50015552708334,57.0,93.0
305,106.40690155416667,106.67079045624999,53.0,99.0
306,105.21642530416668,106.94459999374999,41.0,90.0
307,105.45452055416666,107.141028575,48.0,70.0
308,106.16880630416668,107.51801272083333,65.0,127.0
309,106.88309205416667,107.7005524125,57.0,112.0
310,106.64499680416668,107.95452067916668,60.0,99.0
311,107.59737780416665,108.19063180208335,53.0,86.0
312,107.83547305416667,108.474361975,57.0,82.0
313,108.31166355416667,108.60928261666666,53.0,83.0
314,107.12118730416668,108.86325088333334,41.0,75.0
315,108.07356830416666,108.95253660208334,65.0,99.0
316,107.35928255416667,109.04777470208333,48.0,62.0
317,108.78785405416667,109.34142551041666,57.0,83.0
318,108.54975880416666,109.7719810875,60.0,81.0
319,109.50213980416666,110.06166364166666,53.0,78.0
320,109.74023505416667,110.25015571458334,57.0,69.0
321,110.21642555416668,110.45253667708334,53.0,78.0
322,109.02594930416666,110.76404462916668,41.0,66.0
323,109.26404455416667,110.96444146458333,48.0,82.0
324,109.97833030416666,111.50213990416665,64.0,97.0
325,110.45452080416666,111.59340975,57.0,66.0
326,110.69261605416668,111.71840975625,60.0,72.0
327,111.40690180416667,111.9624573875,53.0,76.0
328,111.64499705416668,112.27396533958333,57.0,85.0
329,112.12118755416668,112.34936216874999,53.0,88.0
330,110.93071130416666,112.64301297708334,41.0,61.0
331,111.88309230416667,112.74420345833335,64.0,95.0
332,111.16880655416668,112.83547330416667,48.0,75.0
333,112.35928280416667,112.84936219375001,60.0,90.0
334,112.59737805416665,113.01404474166668,57.0,83.0
335,113.31166380416667,113.91483843750001,53.0,78.0
336,113.54975905416666,114.10729876458333,57.0,63.0
337,112.83547330416667,114.63904482291667,41.0,76.0
338,113.07356855416666,114.87317181875,48.0,72.0
339,114.02594955416666,115.01206071458333,53.0,78.0
340,114.50214005416666,115.34936231875,57.0,82.0
341,113.78785430416667,115.38507660625001,65.0,99.0
342,114.26404480416667,115.50015597708332,60.0,72.0
343,115.21642580416668,115.74817186250002,53.0,83.0
344,115.45452105416666,116.21047347291668,57.0,73.0
345,115.93071155416666,116.23031474375,53.0,92.0
346,114.97833055416666,116.56364809375,48.0,60.0
347,116.16880680416668,116.59936238124999,60.0,95.0
348,114.74023530416667,116.60729888958335,41.0,66.0
349,116.40690205416666,116.65094968541666,57.0,96.0
350,115.69261630416668,116.65491793958333,65.0,107.0
351,116.88309255416667,117.20650526874999,53.0,72.0
352,116.88309255416667,117.24817193749999,61.0,27.0
353,117.12118780416668,117.6410291,58.0,107.0
354,117.35928305416667,117.67872751458333,53.0,71.0
355,117.83547355416667,118.64301327708333,53.0,69.0
356,118.31166405416667,118.88110852708334,58.0,78.0
357,118.07356880416665,119.0696006,61.0,81.0
358,118.78785455416667,119.13309266666667,53.0,63.0
359,118.54975930416666,119.17674346250001,46.0,40.0
360,119.02594980416666,119.36126728125001,58.0,79.0
361,117.59737830416668,119.43071172916666,65.0,88.0
362,119.26404505416667,119.76602920625001,53.0,72.0
363,119.50214030416666,119.9624577875,65.0,39.0
364,119.50214030416666,120.52793400625,61.0,102.0
365,116.64499730416668,120.53190226041667,41.0,81.0
366,120.45452130416666,120.53190226041667,41.0,69.0
367,119.74023555416667,120.53983876875,58.0,89.0
368,119.97833080416666,120.569600675,53.0,81.0
369,120.21642605416667,120.60531496249999,65.0,72.0
370,120.93071180416666,121.68666422291668,48.0,57.0
371,121.88309280416667,122.64698173125001,48.0,57.0
372,121.40690230416666,122.95055317500001,60.0,64.0
373,121.40690230416666,123.06166429166666,57.0,63.0
374,122.35928330416667,123.07555318125,53.0,58.0
375,122.83547380416667,123.48626748750002,48.0,61.0
376,123.78785480416667,124.34539451458335,53.0,56.0
377,123.31166430416667,124.49023579166666,57.0,66.0
378,123.31166430416667,124.55372785833333,60.0,67.0
379,124.74023580416667,125.82356919166668,52.0,57.0
380,125.21642630416667,125.84142633541666,60.0,61.0
381,125.21642630416667,125.84737871666667,57.0,66.0
382,125.69261680416668,126.35729937708334,45.0,36.0
383,126.16880730416668,126.92079146875,60.0,58.0
384,126.16880730416668,126.97634702708334,57.0,61.0
385,126.64499780416668,127.569601025,45.0,36.0
386,124.26404530416667,127.58944229583332,40.0,71.0
387,127.59737880416668,128.07356930416668,52.0,61.0
388,127.12118830416668,128.07356930416668,57.0,71.0
389,127.12118830416668,128.07356930416668,60.0,69.0
390,128.54975980416665,129.14896618333333,46.0,55.0
391,129.02595030416666,129.807696375,58.0,65.0
392,129.50214080416666,130.07555353125,46.0,50.0
393,130.21642655416667,130.51999799791668,53.0,24.0
394,129.02595030416666,130.62317260625,62.0,62.0
395,129.97833130416666,130.83944245833334,58.0,68.0
396,129.02595030416666,130.85928372916666,65.0,60.0
397,128.07356930416668,131.4505536,34.0,73.0
398,130.93071230416666,131.7362679,62.0,69.0
399,130.45452180416666,131.75412504375,46.0,52.0
400,131.40690280416666,131.80571234791668,58.0,58.0
401,132.35928380416667,132.95650605625,46.0,58.0
402,131.88309330416666,132.9743632,61.0,59.0
403,131.88309330416666,133.02793463125,58.0,65.0
404,133.31166480416667,133.98031563125,46.0,52.0
405,132.83547430416667,134.77793471875,53.0,63.0
406,131.88309330416666,134.80174424375,34.0,66.0
407,134.26404580416667,134.91285536041667,46.0,55.0
408,133.78785530416667,135.65888714375,61.0,75.0
409,134.74023630416667,135.68468079583334,58.0,78.0
410,135.21642680416667,135.75015698958333,53.0,58.0
411,136.16880780416668,136.8910300625,48.0,65.0
412,136.64499830416668,137.55372850833334,57.0,76.0
413,137.12118880416668,137.71444280208334,48.0,40.0
414,135.69261730416667,138.77991904583334,41.0,71.0
415,138.07356980416668,138.807696825,48.0,38.0
416,139.02595080416665,139.54976035416666,53.0,77.0
417,138.54976030416668,139.56166511666666,57.0,81.0
418,137.59737930416668,139.60134765833334,60.0,78.0
419,139.97833180416666,140.5338873875,52.0,54.0
420,140.45452230416666,141.20253821458334,57.0,75.0
421,140.93071280416666,142.0100779375,52.0,49.0
422,141.88309380416666,142.4386493875,57.0,59.0
423,139.50214130416666,142.45253827708333,40.0,76.0
424,142.35928430416666,142.8434113125,52.0,79.0
425,141.40690330416666,142.98230020833333,60.0,72.0
426,142.83547480416667,143.32357006666666,57.0,66.0
427,143.31166530416667,143.91087168333334,58.0,56.0
428,143.31166530416667,143.94857009791667,62.0,38.0
429,143.31166530416667,144.22634788958334,65.0,24.0
430,143.78785580416667,144.39301456458332,53.0,45.0
431,144.74023680416667,145.43269715625001,53.0,53.0
432,145.45452255416666,145.73825272708334,65.0,1.0
433,144.26404630416667,145.80968130208333,58.0,85.0
434,145.69261780416667,146.2957924375,53.0,52.0
435,143.31166530416667,146.58745911875,46.0,74.0
436,146.16880830416667,147.17476073541667,65.0,67.0
437,145.21642730416667,147.23031629375,62.0,76.0
438,146.64499880416668,147.25214169166668,53.0,50.0
439,147.59737980416668,148.16484015,53.0,58.0
440,148.54976080416668,148.96642749166668,61.0,67.0
441,149.02595130416665,149.57158625208334,61.0,78.0
442,148.07357030416668,149.63706244583332,58.0,85.0
443,147.12118930416668,150.31166565416666,46.0,93.0
444,149.50214180416665,150.83944345833334,53.0,60.0
445,149.97833230416666,150.95452282916668,61.0,89.0
446,150.45452280416666,150.9743641,58.0,93.0
447,151.40690380416666,152.14896733333333,52.0,67.0
448,152.35928480416666,152.99222134375,52.0,53.0
449,151.88309430416666,153.64698328125,57.0,90.0
450,153.31166580416667,153.99222139375001,52.0,48.0
451,150.93071330416666,154.01404679166666,45.0,83.0
452,152.83547530416666,154.74420555833333,64.0,93.0
453,153.78785630416667,154.77991984583335,60.0,92.0
454,154.26404680416667,155.25214209166666,57.0,75.0
455,155.69261830416667,156.84142788541666,50.0,85.0
456,156.16880880416667,157.60730093958333,57.0,86.0
457,157.12118980416665,157.7243644375,50.0,69.0
458,154.74023730416667,157.760078725,38.0,82.0
459,155.21642780416667,157.77793586875,45.0,59.0
460,156.64499930416667,158.62912638749998,65.0,93.0
461,157.59738030416665,158.63111051458333,62.0,96.0
462,158.07357080416665,158.68269781875,57.0,90.0
463,159.97833280416666,160.4862693375,58.0,117.0
464,159.02595180416665,160.63309474166667,50.0,85.0
465,159.50214230416665,160.95849158333334,55.0,95.0
466,160.93071380416666,161.57158685208333,50.0,66.0
467,158.54976130416665,161.70650749375,43.0,88.0
468,161.40690430416666,162.40888848125,58.0,107.0
469,160.45452330416666,162.43269800625,62.0,99.0
470,161.88309480416666,162.57555515625,55.0,77.0
471,163.31166630416666,164.46841239375,48.0,90.0
472,164.26404730416667,165.05968226458333,64.0,96.0
473,164.26404730416667,165.06365051875,60.0,99.0
474,163.78785680416667,165.093412425,55.0,64.0
475,164.74023780416667,165.28785687916667,48.0,93.0
476,162.35928530416666,165.46642831666665,36.0,82.0
477,162.83547580416666,165.52396800208334,43.0,62.0
478,165.45452355416666,165.6529362625,48.0,100.0
479,165.21642830416667,165.73626959999999,60.0,102.0
480,165.21642830416667,166.07753945833332,64.0,102.0
481,165.69261880416667,166.08349183958333,55.0,97.0
482,165.93071405416666,166.21642835416665,60.0,112.0
483,166.88309505416666,166.9386506125,60.0,37.0
484,166.64499980416667,167.19658713333334,53.0,93.0
485,166.88309505416666,167.39301571458333,57.0,86.0
486,167.35928555416666,167.6311109645833,53.0,95.0
487,166.16880930416667,167.88111097708332,41.0,75.0
488,166.40690455416666,168.0815078125,48.0,86.0
489,167.83547605416666,168.63904752291666,57.0,102.0
490,167.12119030416667,168.6529364125,65.0,107.0
491,167.59738080416665,168.67476181041667,60.0,102.0
492,168.78785705416666,168.84738086666667,60.0,43.0
493,168.54976180416665,169.09936500625,53.0,96.0
494,169.26404755416667,169.55174598125,53.0,107.0
495,168.78785705416666,169.56365074375,57.0,90.0
496,168.07357130416665,169.84142853541667,41.0,79.0
497,169.02595230416665,169.98626981249998,65.0,107.0
498,168.31166655416666,170.01603171874999,48.0,76.0
499,169.50214280416665,170.13309521666665,60.0,96.0
500,169.74023805416667,170.34539681458332,57.0,85.0
501,170.45452380416666,171.02595240416667,53.0,90.0
502,170.69261905416667,171.20253971458334,57.0,83.0
503,171.16880955416667,171.45253972708332,53.0,90.0
504,169.97833330416665,171.74023815416666,41.0,78.0
505,170.21642855416667,171.92873022708332,48.0,78.0
506,171.40690480416666,172.47238104791666,57.0,85.0
507,170.93071430416666,172.569603275,64.0,100.0
508,171.64500005416667,172.68468264583333,60.0,95.0
509,172.35928580416666,172.93468265833332,53.0,88.0
510,171.88309530416666,173.18071441666666,41.0,78.0
511,172.59738105416665,173.18666679791667,57.0,71.0
512,173.07357155416665,173.20253981458333,53.0,89.0
513,172.12119055416667,173.21047632291666,48.0,75.0
514,172.83547630416666,173.80968270208334,64.0,97.0
515,173.31166680416666,173.82555571875,60.0,100.0
516,173.54976205416665,173.87912715,57.0,92.0
517,174.26404780416667,174.75611132083333,46.0,90.0
518,174.50214305416665,175.08349228958332,50.0,75.0
519,175.21642880416667,175.53388913749998,53.0,85.0
520,173.78785730416666,175.55373040833334,34.0,86.0
521,175.45452405416665,175.56365104374999,62.0,55.0
522,174.02595255416665,175.74222248125,41.0,58.0
523,174.97833355416665,175.84738121666666,46.0,95.0
524,174.74023830416667,175.95055582499998,58.0,107.0
525,176.16880980416667,176.7481749125,46.0,93.0
526,176.40690505416666,177.00611143333333,53.0,97.0
527,175.93071455416666,177.1846828708333,41.0,38.0
528,175.69261930416667,177.26206382708332,34.0,95.0
529,176.64500030416667,177.52992098333334,62.0,97.0
530,176.88309555416666,177.5338892375,46.0,100.0
531,177.12119080416667,177.57555590625,58.0,117.0
532,177.35928605416666,177.76206385208332,53.0,89.0
533,178.07357180416665,178.64500040416667,46.0,96.0
534,178.31166705416666,179.07754010833332,53.0,89.0
535,177.59738130416667,179.37714329791666,34.0,93.0
536,177.83547655416666,179.51007981249998,41.0,69.0
537,178.78785755416666,179.75611157083333,46.0,96.0
538,179.26404805416666,180.08349253958332,53.0,90.0
539,178.54976230416665,180.19261952916665,61.0,127.0
540,179.02595280416665,180.24023857916666,58.0,95.0
541,179.97833380416665,180.58349256458334,46.0,93.0
542,179.50214330416665,180.73627034999998,34.0,73.0
543,179.74023855416667,180.75809574791666,41.0,52.0
544,180.69261955416667,180.87515924583332,46.0,99.0
545,180.21642905416667,180.9862703625,53.0,89.0
546,180.93071480416666,181.41087355833332,58.0,112.0
547,181.16881005416667,181.43071482916665,53.0,99.0
548,180.45452430416665,181.4505561,61.0,122.0
549,181.88309580416666,182.44261964166665,53.0,92.0
550,182.59738155416667,182.80373077083334,53.0,96.0
551,182.12119105416667,182.82754029583333,57.0,82.0
552,181.40690530416666,183.13111173958333,41.0,93.0
553,181.64500055416667,183.39698476875,48.0,75.0
554,183.07357205416665,183.91087368333334,57.0,95.0
555,182.83547680416666,183.93666733541667,60.0,88.0
556,182.35928630416666,183.94460384375,65.0,97.0
557,184.02595305416665,184.09539750208333,60.0,45.0
558,183.78785780416666,184.33349275208332,53.0,86.0
559,184.02595305416665,184.79777848958332,57.0,92.0
560,184.50214355416665,184.87714357291665,53.0,83.0
561,183.31166730416666,185.07952453541665,41.0,81.0
562,183.54976255416665,185.27595311666667,48.0,85.0
563,184.26404830416666,185.30571502291667,65.0,97.0
564,184.74023880416667,185.39500074166665,60.0,89.0
565,184.97833405416665,185.63508011874998,57.0,93.0
566,185.69261980416667,186.27992142083332,53.0,83.0
567,186.40690555416666,186.61920715208333,53.0,88.0
568,185.93071505416665,186.74023890416666,57.0,82.0
569,185.21642930416667,186.950556375,41.0,85.0
570,185.45452455416665,187.21047702291665,48.0,82.0
571,186.16881030416667,187.45055639999998,64.0,99.0
572,186.88309605416666,187.67079450625,57.0,95.0
573,186.64500080416667,187.86920721458333,60.0,97.0
574,187.59738180416667,188.20452469166665,53.0,86.0
575,187.83547705416666,188.39896914583332,57.0,74.0
576,188.31166755416666,188.46642946666665,53.0,81.0
577,187.12119130416667,188.49420724583334,41.0,76.0
578,187.35928655416666,188.50015962708332,48.0,85.0
579,188.07357230416667,188.98428663541665,64.0,107.0
580,188.54976280416665,189.01801679583332,60.0,100.0
581,188.78785805416666,189.06166759166666,57.0,82.0
582,189.50214380416665,190.01801684583333,46.0,97.0
583,189.74023905416666,190.46047718541666,50.0,81.0
584,189.02595330416665,190.73428672291666,34.0,93.0
585,189.26404855416666,190.902937525,41.0,63.0
586,190.21642955416667,191.00611213333332,46.0,86.0
587,190.45452480416665,191.02000102291666,53.0,78.0
588,189.97833430416665,191.67476296041667,58.0,93.0
589,190.69262005416667,191.67476296041667,62.0,81.0
590,191.64500105416667,191.93468360833333,53.0,71.0
591,191.40690580416666,191.98428678541666,46.0,88.0
592,191.88309630416666,192.66682650208332,62.0,89.0
593,190.93071530416665,192.75809634791665,34.0,90.0
594,192.35928680416666,192.76603285625,58.0,90.0
595,192.59738205416667,192.87515984583334,53.0,74.0
596,191.16881055416667,192.91285826041667,41.0,59.0
597,192.12119155416667,193.045794775,46.0,88.0
598,193.54976305416665,193.91881069166666,53.0,73.0
599,193.31166780416666,193.92277894583333,46.0,93.0
600,192.83547730416666,194.61127104374998,34.0,88.0
601,193.07357255416667,194.82754089583332,41.0,67.0
602,194.02595355416665,194.94063613958332,46.0,78.0
603,194.50214405416665,195.32555679375,53.0,79.0
604,193.78785830416666,195.42476314791665,61.0,97.0
605,194.26404880416666,195.5100806125,58.0,76.0
606,195.21642980416667,195.7739695145833,46.0,77.0
607,194.74023930416666,195.99023936666666,34.0,75.0
608,194.97833455416665,196.03587428958332,41.0,51.0
609,195.45452505416665,196.08349333958333,53.0,81.0
610,195.93071555416665,196.093413975,46.0,92.0
611,195.69262030416667,196.593414,61.0,100.0
612,196.16881080416667,196.60730288958334,58.0,100.0
613,196.40690605416665,196.60928701666666,53.0,90.0
614,197.12119180416667,197.68071564166667,53.0,99.0
615,197.35928705416666,197.78785850416665,57.0,92.0
616,196.64500130416667,198.44063631458332,41.0,95.0
617,196.88309655416666,198.58547759166666,48.0,97.0
618,197.83547755416666,198.69658870833334,53.0,100.0
619,198.07357280416667,199.09539825208333,57.0,76.0
620,197.59738230416667,199.33547762916666,65.0,107.0
621,198.31166805416666,199.39301731458332,60.0,102.0
622,199.02595380416665,199.6053189125,53.0,90.0
623,199.26404905416666,199.96643004166665,57.0,82.0
624,198.54976330416667,200.33547767916667,41.0,73.0
625,199.50214430416665,200.47833482916667,65.0,100.0
626,198.78785855416666,200.53587451458333,48.0,82.0
627,199.74023955416666,200.60333483541666,53.0,93.0
628,200.21643005416666,201.03587453958332,57.0,90.0
629,200.93071580416665,201.48031900625,53.0,89.0
630,201.16881105416667,201.53984281875,57.0,75.0
631,200.45452530416665,202.2243666625,41.0,83.0
632,200.69262055416667,202.43666826041667,48.0,75.0
633,201.64500155416667,202.63904922291667,53.0,96.0
634,201.88309680416666,202.92674764999998,57.0,69.0
635,202.12119205416667,202.98230320833332,67.0,73.0
636,201.40690630416665,203.15095401041665,64.0,95.0
637,199.97833480416665,203.20849369583334,60.0,88.0
638,202.83547780416666,203.35730322708332,53.0,89.0
639,202.35928730416666,203.66285879791667,41.0,70.0
640,202.59738255416667,203.67277943333332,48.0,73.0
641,203.54976355416667,203.68071594166665,53.0,97.0
642,203.07357305416667,203.71643022916666,57.0,82.0
643,203.31166830416666,204.25412866874998,64.0,102.0
644,203.78785880416666,204.2719858125,60.0,102.0
645,204.02595405416665,204.32357311666667,57.0,95.0
646,204.74023980416666,205.2719858625,46.0,100.0
647,204.97833505416665,205.59143032291666,50.0,82.0
648,204.26404930416666,205.96047796041665,34.0,100.0
649,204.50214455416665,206.15095416041666,41.0,68.0
650,205.45452555416665,206.28587480208333,46.0,96.0
651,205.93071605416665,206.46047798541667,50.0,93.0
652,205.69262080416667,206.5815097375,53.0,90.0
653,205.21643030416666,206.62317640625,58.0,122.0
654,206.64500180416667,207.15889071875,46.0,107.0
655,206.88309705416665,207.43270025625,53.0,76.0
656,206.16881130416667,207.84936694375,41.0,60.0
657,206.16881130416667,207.93666853541666,34.0,61.0
658,207.12119230416667,207.98428758541667,62.0,102.0
659,207.35928755416666,208.19262092916665,46.0,100.0
660,207.83547805416666,208.66881142916665,53.0,92.0
661,207.59738280416667,208.85928762916666,58.0,107.0
662,208.54976380416667,209.09936700625,46.0,97.0
663,208.78785905416666,209.54976385416666,53.0,75.0
664,208.07357330416667,209.91682736458333,34.0,75.0
665,208.31166855416666,210.05571626041666,41.0,63.0
666,209.26404955416666,210.21643055416666,46.0,93.0
667,209.74024005416666,210.56166866666666,53.0,89.0
668,209.02595430416665,210.67079565625,61.0,107.0
669,209.50214480416665,210.78587502708334,58.0,89.0
670,210.45452580416665,211.00412900625,46.0,99.0
671,210.93071630416665,211.00412900625,46.0,93.0
672,210.69262105416666,211.44262109166667,53.0,89.0
673,209.97833530416665,211.77000206041666,34.0,72.0
674,210.21643055416666,211.7957957125,41.0,64.0
675,210.93071630416665,211.86325603333333,61.0,127.0
676,211.40690680416665,211.87119254166666,58.0,112.0
677,211.64500205416667,211.902938575,53.0,95.0
678,212.83547830416666,213.95651010625,53.0,82.0
679,213.31166880416666,214.80373237083333,57.0,64.0
680,211.88309730416665,215.39301811458333,41.0,90.0
681,212.35928780416666,215.75611337083333,48.0,41.0
682,214.26404980416666,215.77397051458334,53.0,52.0
683,213.78785930416666,216.045795925,65.0,81.0
684,215.21643080416666,216.81563723333332,57.0,57.0
685,214.74024030416666,217.2243674125,60.0,74.0
686,217.12119280416667,217.8434150625,53.0,61.0
687,216.64500230416667,218.38508175625,64.0,92.0
688,218.07357380416667,218.53984366875,53.0,58.0
689,216.16881180416667,218.59738335416665,48.0,66.0
690,215.69262130416666,218.63309764166667,41.0,62.0
691,217.59738330416667,219.58944689583333,60.0,78.0
692,218.54976430416667,219.58944689583333,64.0,89.0
693,219.02595480416667,219.60730403958334,57.0,73.0
694,220.93071680416665,221.4624628625,50.0,66.0
695,220.45452630416665,221.54182794583332,46.0,72.0
696,221.40690730416665,222.01206606458334,58.0,77.0
697,222.35928830416665,222.89500261666666,62.0,72.0
698,219.50214530416665,222.93468515833334,34.0,82.0
699,219.97833580416665,223.3196058125,41.0,52.0
700,222.83547880416666,223.37119311666666,58.0,68.0
701,221.88309780416665,223.38905026041667,46.0,45.0
702,224.26405030416666,225.37912972499998,46.0,66.0
703,225.21643130416666,226.02595515416667,61.0,95.0
704,224.74024080416666,226.06166944166665,53.0,68.0
705,225.69262180416666,226.23032024375,46.0,93.0
706,226.40690755416665,226.77992344583333,46.0,100.0
707,226.16881230416666,226.78785995416666,58.0,127.0
708,223.78785980416666,227.01206631458334,41.0,41.0
709,223.31166930416666,227.08746314375,34.0,70.0
710,226.64500280416667,227.14301870208334,53.0,97.0
711,226.88309805416665,227.1529393375,58.0,117.0
712,226.16881230416666,227.2005583875,61.0,127.0
713,227.59738380416667,228.10730446458334,53.0,102.0
714,227.83547905416665,228.16484415,57.0,92.0
715,228.31166955416666,228.50214575416666,53.0,95.0
716,227.12119330416667,228.80174894375,41.0,97.0
717,227.35928855416665,229.02595530416667,48.0,96.0
718,228.78786005416666,229.53587596458334,57.0,100.0
719,228.07357430416667,229.54182834583332,65.0,112.0
720,228.54976480416667,229.59143152291665,60.0,97.0
721,229.74024105416666,229.78389185,60.0,36.0
722,229.50214580416667,230.07754265833333,53.0,99.0
723,229.74024105416666,230.21444742708331,57.0,96.0
724,230.21643155416666,230.4981776,53.0,107.0
725,229.02595530416667,230.8334950770833,41.0,83.0
726,229.97833630416665,230.950558575,65.0,117.0
727,229.26405055416666,230.99420937083332,48.0,100.0
728,230.45452680416665,231.01405064166667,60.0,92.0
729,230.69262205416666,231.03786016666666,57.0,107.0
730,231.40690780416665,231.99619354791665,53.0,93.0
731,231.64500305416666,232.01603481875,57.0,83.0
732,232.12119355416667,232.426749125,53.0,93.0
733,230.93071730416665,232.73825707708332,41.0,85.0
734,231.16881255416666,232.91484438749998,48.0,77.0
735,232.35928880416665,233.38111425208334,57.0,93.0
736,231.88309830416665,233.58547934166666,64.0,122.0
737,232.59738405416667,233.60333648541666,60.0,117.0
738,233.31166980416666,233.88111427708333,53.0,92.0
739,233.54976505416667,234.08547936666665,57.0,99.0
740,232.83547930416665,234.20849524583332,41.0,78.0
741,233.07357455416667,234.25413016874998,48.0,90.0
742,234.02595555416667,234.45651113124998,53.0,102.0
743,234.26405080416666,234.77595559166667,60.0,122.0
744,233.78786030416666,234.77793971875,64.0,117.0
745,234.50214605416667,234.79182860833333,57.0,117.0
746,234.97833655416667,235.76603500625,46.0,83.0
747,235.21643180416666,235.88111437708332,53.0,86.0
748,235.45452705416665,236.11325724583332,58.0,107.0
749,234.74024130416666,236.47833662916665,34.0,122.0
750,235.69262230416666,236.62516203333334,62.0,93.0
751,236.40690805416665,236.66682870208334,58.0,107.0
752,236.16881280416666,236.71643187916666,53.0,90.0
753,235.93071755416665,236.7561144208333,46.0,102.0
754,237.35928905416665,237.59936843124999,58.0,100.0
755,237.59738430416667,237.61920970208334,61.0,72.0
756,236.88309855416665,237.64301922708333,46.0,93.0
757,237.12119380416667,237.66682875208332,53.0,89.0
758,236.64500330416666,238.42278117083333,34.0,79.0
759,237.59738430416667,238.45055895,62.0,107.0
760,237.83547955416665,238.63905102291665,46.0,96.0
761,238.07357480416667,238.69063832708332,53.0,90.0
762,238.31167005416665,238.71841610625,58.0,97.0
763,238.78786055416666,239.55373360833332,46.0,96.0
764,239.26405105416666,239.56563837083334,58.0,102.0
765,239.02595580416667,239.63111456458333,53.0,85.0
766,238.54976530416667,240.33547967916667,34.0,92.0
767,239.74024155416666,240.54579715,46.0,89.0
768,240.21643205416666,240.83547970416666,53.0,93.0
769,239.97833680416667,241.0100828875,58.0,97.0
770,239.50214630416667,241.01801939583333,61.0,127.0
771,241.16881305416666,241.4505591,58.0,99.0
772,240.69262255416666,241.47238449791666,46.0,83.0
773,240.93071780416665,241.60532101249999,53.0,88.0
774,240.45452730416665,241.81365435625,34.0,93.0
775,241.64500355416666,241.94857499791667,46.0,99.0
776,241.40690830416665,242.21444802708334,61.0,127.0
777,241.88309880416665,242.29976549166665,58.0,122.0
778,242.12119405416666,242.34540041458334,53.0,93.0
779,242.83547980416665,243.41286078541665,53.0,82.0
780,243.07357505416667,243.53190841041666,57.0,93.0
781,242.35928930416665,244.16087669583334,41.0,90.0
782,242.59738455416667,244.32754337083333,48.0,74.0
783,243.54976555416667,244.33349575208334,53.0,92.0
784,244.02595605416667,244.85928942916667,57.0,92.0
785,243.31167030416665,244.88706720833332,65.0,102.0
786,243.78786080416666,244.9386545125,60.0,86.0
787,244.97833705416667,245.06167039166667,60.0,37.0
788,244.74024180416666,245.31167040416665,53.0,85.0
789,244.97833705416667,245.38111485208333,57.0,88.0
790,244.26405130416666,245.99619424791666,41.0,70.0
791,245.21643230416666,246.06365456875,65.0,100.0
792,244.50214655416667,246.188654575,48.0,63.0
793,245.45452755416667,246.20452759166665,53.0,99.0
794,245.69262280416666,246.26206727708333,60.0,92.0
795,245.93071805416665,246.34936886875,57.0,78.0
796,246.64500380416666,247.20254351458334,53.0,86.0
797,246.88309905416665,247.48230543333332,57.0,78.0
798,246.16881330416666,247.98428958541666,41.0,71.0
799,246.40690855416665,248.14897213333333,48.0,50.0
800,247.35928955416665,248.19262292916665,53.0,83.0
801,247.83548005416665,248.66087692083332,57.0,83.0
802,247.12119430416666,248.87119439166665,64.0,96.0
803,247.59738480416667,248.88706740833334,60.0,89.0
804,248.54976580416667,249.1291309125,53.0,90.0
805,248.78786105416665,249.33349600208334,57.0,89.0
806,248.07357530416667,249.35730552708333,41.0,78.0
807,248.31167055416665,249.36524203541666,48.0,64.0
808,249.26405155416666,249.37317854375,53.0,82.0
809,249.02595630416667,249.92476587291665,64.0,102.0
810,249.50214680416667,249.94857539791667,60.0,89.0
811,249.74024205416666,250.01405159166666,57.0,89.0
812,250.45452780416667,250.96841671875,46.0,89.0
813,250.69262305416666,251.46048023541667,53.0,78.0
814,249.97833730416667,251.69063897708332,34.0,95.0
815,250.21643255416666,251.8672262875,41.0,54.0
816,251.16881355416666,252.18270249374999,46.0,89.0
817,251.64500405416666,252.50809933541666,53.0,88.0
818,250.93071830416665,252.58349616458332,62.0,97.0
819,251.40690880416665,252.59936918124998,58.0,92.0
820,252.35928980416665,252.807702525,46.0,81.0
821,252.59738505416666,253.37317874375,53.0,71.0
822,252.83548030416665,253.63309939166666,62.0,93.0
823,251.88309930416665,253.64698828125,34.0,64.0
824,252.12119455416666,253.80770257499998,41.0,56.0
825,253.31167080416665,253.84540098958334,58.0,82.0
826,253.07357555416667,254.03587718958332,46.0,86.0
827,253.54976605416667,254.33944863333332,53.0,74.0
828,254.26405180416666,254.79976611666666,46.0,63.0
829,254.50214705416667,254.94659152083332,53.0,69.0
830,253.78786130416665,255.56167091666666,34.0,65.0
831,255.45452805416667,255.56167091666666,34.0,58.0
832,254.02595655416667,255.71048044791667,41.0,40.0
833,255.69262330416666,255.71048044791667,41.0,43.0
834,254.97833755416667,255.89698839375,46.0,68.0
835,254.97833755416667,256.06563919583334,53.0,69.0
836,254.74024230416666,256.46048048541667,61.0,102.0
837,255.45452805416667,256.48429001041666,58.0,99.0
838,255.93071855416665,256.5497662041667,46.0,88.0
839,256.8830995541667,257.13111543958337,46.0,92.0
840,256.40690905416665,257.19659163333336,53.0,75.0
841,257.1211948041667,257.57952816041666,58.0,97.0
842,257.35929005416665,257.59936943125,53.0,85.0
843,256.64500430416666,257.60135355833336,61.0,117.0
844,258.54976630416667,259.72833779166666,53.0,82.0
845,259.0259568041667,260.5180203708333,57.0,71.0
846,257.59738530416666,261.22040135833333,41.0,79.0
847,258.0735758041667,261.46444898958333,48.0,57.0
848,259.50214730416667,261.55373470833337,65.0,88.0
849,259.9783378041667,261.95849663333337,53.0,55.0
850,260.4545283041667,262.40889348125,60.0,71.0
851,260.9307188041667,262.4783379291667,57.0,54.0
852,262.83548080416665,263.521988775,53.0,40.0
853,262.3592903041667,264.0200046729167,64.0,69.0
854,263.78786180416665,264.1866713479167,53.0,39.0
855,261.4069093041667,264.29778246458335,41.0,65.0
856,261.88309980416665,264.33746500625,48.0,37.0
857,264.74024280416666,265.3910364875,57.0,41.0
858,264.2640523041667,265.46841744375,64.0,74.0
859,263.3116713041667,265.474369825,60.0,59.0
860,266.1688143041667,267.38508420625,46.0,56.0
861,267.1211953041667,268.2581001229167,58.0,79.0
862,265.2164333041667,268.5061160083333,34.0,56.0
863,266.64500480416666,268.6291318875,50.0,50.0
864,265.69262380416666,268.96444936458334,41.0,34.0
865,268.0735763041667,268.9902430166667,53.0,56.0
866,268.54976680416667,269.03984619375,58.0,47.0
867,267.59738580416666,269.26206842708336,46.0,36.0
868,269.9783383041667,270.07357640416666,46.0,31.0
869,269.9783383041667,270.88508438125,58.0,57.0
870,270.45452880416667,271.1846875708333,46.0,35.0
871,269.9783383041667,271.5795288604167,61.0,50.0
872,272.3592908041667,273.18865592500003,53.0,31.0
873,271.4069098041667,273.2283384666667,46.0,32.0
874,270.9307193041667,273.24421148333334,58.0,56.0
875,271.88310030416665,273.26206862708335,61.0,52.0
876,269.50214780416667,273.28587815208334,41.0,33.0
877,269.0259573041667,273.31762418541666,34.0,39.0
