,start,end,pitch,velocity
0,22.216001506250002,22.480946787500002,68.0,86.0
1,22.54208800625,22.84371801875,67.0,90.0
2,22.86817450625,23.76491238125,65.0,90.0
3,23.84643400625,24.21871609375,63.0,88.0
4,24.172520506250002,24.546161287500002,60.0,87.0
5,24.49860700625,24.83284566875,63.0,87.0
6,24.82469350625,25.16980171875,65.0,88.0
7,25.150780006250002,25.50404038125,67.0,87.0
8,25.47686650625,27.20512495625,65.0,90.0
9,27.43338550625,27.7255046625,68.0,87.0
10,27.75947200625,28.07604765,67.0,89.0
11,28.085558506250003,28.915720387500002,65.0,92.0
12,29.063818006250003,29.37360018125,63.0,88.0
13,29.38990450625,29.653491093750002,60.0,88.0
14,29.71599100625,29.9972406125,63.0,88.0
15,30.042077506250003,30.29343585,65.0,89.0
16,30.36816400625,30.690174425000002,60.0,90.0
17,30.69425050625,32.40348724375,58.0,83.0
18,32.65076950625,32.90212785,58.0,87.0
19,32.97685600625,33.2689751625,60.0,87.0
20,33.30294250625,34.13718046875,63.0,87.0
21,34.28120200625,34.5298429625,60.0,89.0
22,34.60728850625,34.8667990125,65.0,86.0
23,34.93337500625,35.26761366875,67.0,84.0
24,35.25946150625,35.5651676,65.0,92.0
25,35.58554800625,35.843699818750004,63.0,87.0
26,35.91163450625,36.2390797,65.0,87.0
27,36.23772100625,36.55022056875,63.0,83.0
28,36.56380750625,36.937448287500004,60.0,89.0
29,36.88989400625,37.21326311875,58.0,76.0
30,37.21598050625,37.800218818750004,56.0,88.0
31,37.86815350625,38.0624467125,65.0,93.0
32,38.19424000625,38.418424475,68.0,86.0
33,38.52032650625,38.728206650000004,70.0,86.0
34,38.84641300625,39.3559231625,70.0,88.0
35,39.49858600625,39.75402043125,67.0,87.0
36,39.82467250625,40.059726525,65.0,88.0
37,40.15075900625,40.434726000000005,60.0,88.0
38,40.47684550625,40.74314948125,67.0,86.0
39,40.80293200625,41.05293165625,65.0,86.0
40,41.12901850625,43.0026571875,63.0,86.0
41,43.08553750625,43.3504827875,68.0,86.0
42,43.41162400625,43.71325401875,67.0,90.0
43,43.737710506250004,44.63444838125,65.0,90.0
44,44.715970006250004,45.08825209375,63.0,88.0
45,45.04205650625,45.4156972875,60.0,87.0
46,45.36814300625,45.70238166875,63.0,87.0
47,45.694229506250004,46.039337718750005,65.0,88.0
48,46.02031600625,46.373576381250004,67.0,87.0
49,46.34640250625,48.07466095625,65.0,90.0
50,48.30292150625,48.595040662500004,68.0,87.0
51,48.629008006250004,48.94558365,67.0,89.0
52,48.95509450625,49.7852563875,65.0,92.0
53,49.93335400625,50.24313618125,63.0,88.0
54,50.25944050625,50.52302709375,60.0,88.0
55,50.585527006250004,50.866776612500004,63.0,88.0
56,50.91161350625,51.162971850000005,65.0,89.0
57,51.23770000625,51.559710425,60.0,90.0
58,51.563786506250004,53.27302324375,58.0,83.0
59,53.520305506250004,53.77166385,58.0,87.0
60,53.84639200625,54.1385111625,60.0,87.0
61,54.17247850625,55.00671646875,63.0,87.0
62,55.15073800625,55.3993789625,60.0,89.0
63,55.476824506250004,55.7363350125,65.0,86.0
64,55.80291100625,56.137149668750006,67.0,84.0
65,56.12899750625,56.4347036,65.0,92.0
66,56.455084006250004,56.71323581875,63.0,87.0
67,56.78117050625,57.1086157,65.0,87.0
68,57.10725700625,57.41975656875,63.0,83.0
69,57.433343506250004,57.8069842875,60.0,89.0
70,57.75943000625,58.08279911875,58.0,76.0
71,58.08551650625,58.66975481875,56.0,88.0
72,58.73768950625,58.9319827125,65.0,93.0
73,59.06377600625,59.287960475000006,68.0,86.0
74,59.389862506250005,59.59774265,70.0,86.0
75,59.71594900625,60.04203550625,70.0,88.0
76,60.04203550625,60.368122006250005,70.0,88.0
77,60.368122006250005,60.69420850625,67.0,88.0
78,60.69420850625,61.02029500625,65.0,88.0
79,61.02029500625,61.34094673125,60.0,88.0
80,61.346381506250005,61.69148971875,63.0,86.0
81,61.67246800625,62.00670666875,65.0,89.0
82,61.99855450625,63.842301925,68.0,86.0
83,63.95507350625,64.440127175,65.0,95.0
84,64.60724650625001,66.5651242,72.0,86.0
85,66.56376550625001,67.20642765000001,65.0,91.0
86,67.21593850625,69.059685925,63.0,87.0
87,69.17245750625,69.76213059375,60.0,92.0
88,69.82463050625,71.52163900000001,68.0,86.0
89,71.78114950625,72.4700072375,60.0,87.0
90,72.43332250625001,74.255330825,58.0,89.0
91,74.38984150625001,74.63440638125,58.0,89.0
92,74.71592800625,75.00668846875,60.0,87.0
93,75.04201450625,75.80560039375,63.0,87.0
94,76.02027400625,76.31375185625001,65.0,92.0
95,76.34636050625001,76.60722970625001,68.0,86.0
96,76.67244700625,77.1710876125,68.0,87.0
97,77.32462000625,77.63711956875001,67.0,86.0
98,77.65070650625,77.88576052500001,65.0,89.0
99,77.97679300625,78.3042382,60.0,90.0
100,78.30287950625001,78.6113029875,67.0,90.0
101,78.62896600625,78.8694548,65.0,87.0
102,78.95505250625,79.52570388125001,63.0,89.0
103,79.60722550625,79.8939098875,63.0,90.0
104,79.93331200625,80.24173548750001,65.0,87.0
105,80.25939850625001,82.01754821875001,72.0,90.0
106,82.21591750625001,82.59771045000001,65.0,87.0
107,82.54200400625,82.9129274,67.0,87.0
108,82.86809050625,84.52162080000001,63.0,86.0
109,84.82460950625,85.37080439375,60.0,88.0
110,85.47678250625,87.4319428125,68.0,86.0
111,87.43330150625,88.0868332,60.0,87.0
112,88.08547450625001,89.82867858750001,58.0,87.0
113,90.04199350625001,90.28655838125,58.0,87.0
114,90.36808000625,90.67786218125,60.0,86.0
115,90.69416650625,91.527045775,63.0,87.0
116,91.67242600625,91.92786043125,65.0,88.0
117,91.99851250625001,92.6710659125,68.0,85.0
118,92.65068550625,93.47677130625,60.0,92.0
119,93.95503150625001,94.5460632875,65.0,93.0
120,94.60720450625,96.41426719375,72.0,90.0
121,96.56372350625,97.1982334875,65.0,91.0
122,97.21589650625,99.7471429625,68.0,86.0
123,120.04195150625,120.30689678750001,68.0,86.0
124,120.36803800625,120.66966801875,67.0,90.0
125,120.69412450625,121.59086238125,65.0,90.0
126,121.67238400625,122.04466609375001,63.0,88.0
127,121.99847050625,122.3721112875,60.0,87.0
128,122.32455700625,122.65879566875,63.0,87.0
129,122.65064350625,122.99575171875,65.0,88.0
130,122.97673000625001,123.32999038125,67.0,87.0
131,123.30281650625001,125.03107495625001,65.0,90.0
132,125.25933550625001,125.5514546625,68.0,87.0
133,125.58542200625,125.90199765,67.0,89.0
134,125.91150850625,126.74167038750001,65.0,92.0
135,126.88976800625001,127.19955018125,63.0,88.0
136,127.21585450625001,127.47944109375,60.0,88.0
137,127.54194100625,127.8231906125,63.0,88.0
138,127.86802750625,128.11938585000001,65.0,89.0
139,128.19411400625,128.51612442500002,60.0,90.0
140,128.52020050625,130.22943724375,58.0,83.0
141,130.47671950625,130.72807785,58.0,87.0
142,130.80280600625,131.0949251625,60.0,87.0
143,131.12889250625,131.96313046875,63.0,87.0
144,132.10715200625,132.3557929625,60.0,89.0
145,132.43323850625,132.6927490125,65.0,86.0
146,132.75932500625,133.09356366875,67.0,84.0
147,133.08541150625,133.3911176,65.0,92.0
148,133.41149800625,133.66964981875,63.0,87.0
149,133.73758450625002,134.0650297,65.0,87.0
150,134.06367100625002,134.37617056875,63.0,83.0
151,134.38975750625,134.7633982875,60.0,89.0
152,134.71584400625,135.03921311875,58.0,76.0
153,135.04193050625,135.62616881875002,56.0,88.0
154,135.69410350625,135.8883967125,65.0,93.0
155,136.02019000625,136.244374475,68.0,86.0
156,136.34627650625,136.55415665,70.0,86.0
157,136.67236300625,137.1818731625,70.0,88.0
158,137.32453600625,137.57997043125002,67.0,87.0
159,137.65062250625002,137.885676525,65.0,88.0
160,137.97670900625002,138.26067600000002,60.0,88.0
161,138.30279550625,138.56909948125,67.0,86.0
162,138.62888200625,138.87888165625,65.0,86.0
163,138.95496850625,140.8286071875,63.0,86.0
164,140.91148750625,141.1764327875,68.0,86.0
165,141.23757400625001,141.53920401875,67.0,90.0
166,141.56366050625002,142.46039838125,65.0,90.0
167,142.54192000625,142.91420209375,63.0,88.0
168,142.86800650625,143.2416472875,60.0,87.0
169,143.19409300625,143.52833166875,63.0,87.0
170,143.52017950625,143.86528771875,65.0,88.0
171,143.84626600625,144.19952638125,67.0,87.0
172,144.17235250625,145.90061095625,65.0,90.0
173,146.12887150625,146.4209906625,68.0,87.0
174,146.45495800625,146.77153365,67.0,89.0
175,146.78104450625,147.6112063875,65.0,92.0
176,147.75930400625,148.06908618125001,63.0,88.0
177,148.08539050625,148.34897709375,60.0,88.0
178,148.41147700625,148.6927266125,63.0,88.0
179,148.73756350625,148.98892185,65.0,89.0
180,149.06365000625001,149.385660425,60.0,90.0
181,149.38973650625002,151.09897324375,58.0,83.0
182,151.34625550625,151.59761385000002,58.0,87.0
183,151.67234200625,151.96446116250002,60.0,87.0
184,151.99842850625,152.83266646875,63.0,87.0
185,152.97668800625001,153.22532896250001,60.0,89.0
186,153.30277450625002,153.5622850125,65.0,86.0
187,153.62886100625002,153.96309966875,67.0,84.0
188,153.95494750625,154.2606536,65.0,92.0
189,154.28103400625,154.53918581875,63.0,87.0
190,154.60712050625,154.9345657,65.0,87.0
191,154.93320700625,155.24570656875,63.0,83.0
192,155.25929350625,155.6329342875,60.0,89.0
193,155.58538000625,155.90874911875,58.0,76.0
194,155.91146650625,156.49570481875,56.0,88.0
195,156.56363950625,156.7579327125,65.0,93.0
196,156.88972600625002,157.113910475,68.0,86.0
197,157.21581250625002,157.42369265,70.0,86.0
198,157.54189900625,157.86798550625,70.0,88.0
199,157.86798550625,158.19407200625,70.0,88.0
200,158.19407200625,158.52015850625,67.0,88.0
201,158.52015850625,158.84624500625,65.0,88.0
202,158.84624500625,159.16689673125,60.0,88.0
203,159.17233150625,159.51743971875,63.0,86.0
204,159.49841800625,159.83265666875002,65.0,89.0
205,159.82450450625,161.668251925,68.0,86.0
206,161.78102350625,162.266077175,65.0,95.0
207,162.43319650625,164.39107420000002,72.0,86.0
208,164.38971550625,165.03237765,65.0,91.0
209,165.04188850625002,166.885635925,63.0,87.0
210,166.99840750625,167.58808059375,60.0,92.0
211,167.65058050625,169.347589,68.0,86.0
212,169.60709950625,170.2959572375,60.0,87.0
213,170.25927250625,172.081280825,58.0,89.0
214,172.21579150625,172.46035638125,58.0,89.0
215,172.54187800625002,172.83263846875002,60.0,87.0
216,172.86796450625002,173.63155039375002,63.0,87.0
217,173.84622400625,174.13970185625,65.0,92.0
218,174.17231050625,174.43317970625,68.0,86.0
219,174.49839700625,174.9970376125,68.0,87.0
220,175.15057000625,175.46306956875,67.0,86.0
221,175.47665650625,175.711710525,65.0,89.0
222,175.80274300625,176.13018820000002,60.0,90.0
223,176.12882950625,176.43725298750002,67.0,90.0
224,176.45491600625002,176.6954048,65.0,87.0
225,176.78100250625002,177.35165388125,63.0,89.0
226,177.43317550625,177.7198598875,63.0,90.0
227,177.75926200625,178.0676854875,65.0,87.0
228,178.08534850625,179.84349821875,72.0,90.0
229,180.04186750625001,180.42366045,65.0,87.0
230,180.36795400625002,180.7388774,67.0,87.0
231,180.69404050625002,182.3475708,63.0,86.0
232,182.65055950625,183.19675439375,60.0,88.0
233,183.30273250625,185.25789281250002,68.0,86.0
234,185.25925150625,185.9127832,60.0,87.0
235,185.91142450625,187.6546285875,58.0,87.0
236,187.86794350625001,188.11250838125,58.0,87.0
237,188.19403000625002,188.50381218125,60.0,86.0
238,188.52011650625002,189.352995775,63.0,87.0
239,189.49837600625,189.75381043125,65.0,88.0
240,189.82446250625,190.49701591250002,68.0,85.0
241,190.47663550625,191.30272130625002,60.0,92.0
242,191.78098150625001,192.3720132875,65.0,93.0
243,192.43315450625002,194.24021719375,72.0,90.0
244,194.38967350625,195.0241834875,65.0,91.0
245,195.04184650625,196.99836550625,68.0,86.0
246,196.99836550625,197.65053850625,65.0,87.0
247,197.65053850625,199.6084162,72.0,86.0
248,199.60705750625002,200.24971965,65.0,91.0
249,200.25923050625002,202.102977925,63.0,87.0
250,202.21574950625,202.80542259375,60.0,92.0
251,202.86792250625,204.564931,68.0,86.0
252,204.82444150625,205.5132992375,60.0,87.0
253,205.47661450625,207.298622825,58.0,89.0
254,207.43313350625002,207.67769838125,58.0,89.0
255,207.75922000625002,208.04998046875002,60.0,87.0
256,208.08530650625002,208.84889239375002,63.0,87.0
257,209.06356600625,209.35704385625002,65.0,92.0
258,209.38965250625,209.65052170625,68.0,86.0
259,209.71573900625,210.2143796125,68.0,87.0
260,210.36791200625,210.68041156875,67.0,86.0
261,210.69399850625,210.929052525,65.0,89.0
262,211.02008500625,211.3475302,60.0,90.0
263,211.34617150625002,211.65459498750002,67.0,90.0
264,211.67225800625002,211.9127468,65.0,87.0
265,211.99834450625002,212.56899588125,63.0,89.0
266,212.65051750625,212.9372018875,63.0,90.0
267,212.97660400625,213.2850274875,65.0,87.0
268,213.30269050625,215.06084021875,72.0,90.0
269,215.25920950625002,215.64100245,65.0,87.0
270,215.58529600625002,215.9562194,67.0,87.0
271,215.91138250625002,217.5649128,63.0,86.0
272,217.86790150625,218.41409639375001,60.0,88.0
273,218.52007450625,220.47523481250002,68.0,86.0
274,220.47659350625,221.1301252,60.0,87.0
275,221.12876650625,222.87197058750002,58.0,87.0
276,223.08528550625002,223.32985038125,58.0,87.0
277,223.41137200625002,223.72115418125,60.0,86.0
278,223.73745850625002,224.570337775,63.0,87.0
279,224.71571800625,224.97115243125,65.0,88.0
280,225.04180450625,225.71435791250002,68.0,85.0
281,225.69397750625,226.52006330625,60.0,92.0
282,226.99832350625002,227.5893552875,65.0,93.0
283,227.65049650625002,229.45755919375,72.0,90.0
284,230.13690606875002,230.47929689375002,65.0,87.0
285,230.43717738750001,230.8610898375,68.0,80.0
286,230.75647041875,231.65728437500002,65.0,86.0
287,231.94396875625,234.83255166875,68.0,85.0
