,start,end,pitch,velocity
0,1.77309534375,3.28939756875,56.0,83.0
1,1.8668452125000001,3.3695605,60.0,84.0
2,1.9497255312500001,3.3831474375,63.0,77.0
3,1.9048886375,3.4266256375,44.0,87.0
4,1.99048634375,3.478256,68.0,77.0
5,4.603254425,5.407601125,67.0,74.0
6,4.4701024375000005,5.6018943312500005,60.0,65.0
7,4.5516240625,5.8899374062500005,63.0,76.0
8,5.5869487,6.513577837500001,55.0,74.0
9,5.91982866875,6.5760777500000005,60.0,74.0
10,6.21602390625,6.59102338125,63.0,79.0
11,4.61955875,6.62906680625,48.0,77.0
12,6.5190126125,6.6548819875000005,72.0,80.0
13,7.07607705,7.641293650000001,56.0,72.0
14,7.1548812875,7.7146631125,60.0,77.0
15,7.20243556875,7.7554239250000006,63.0,82.0
16,7.838304243750001,8.49591201875,56.0,72.0
17,8.127706012500001,8.51765111875,60.0,78.0
18,7.5407503125,8.614118375,51.0,78.0
19,8.46873814375,8.6304227,68.0,79.0
20,7.19700079375,8.67525959375,44.0,88.0
21,9.56928008125,9.8070514875,63.0,70.0
22,9.65351909375,9.823355812500001,67.0,73.0
23,9.752703737500001,9.84917099375,70.0,79.0
24,9.80569279375,9.95243171875,75.0,88.0
25,10.46601795625,10.71058283125,51.0,88.0
26,10.7744414375,10.88993040625,55.0,87.0
27,11.11547356875,11.51764691875,58.0,86.0
28,11.448353537500001,11.808407381250001,63.0,87.0
29,9.80841018125,11.93884198125,39.0,88.0
30,10.12090974375,11.949711531250001,46.0,74.0
31,11.771722650000001,11.97688540625,67.0,87.0
32,12.41981956875,12.87090589375,60.0,81.0
33,12.442917362500001,13.152155500000001,65.0,88.0
34,13.418459475,14.54753398125,65.0,82.0
35,13.0950903625,14.599164343750001,60.0,84.0
36,12.7690038625,14.646718625,48.0,76.0
37,12.4537869125,14.714653312500001,41.0,89.0
38,14.9130226,15.120902743750001,60.0,79.0
39,15.009489856250001,15.692912812500001,65.0,86.0
40,15.0679136875,16.12633611875,68.0,82.0
41,15.6657389375,16.17524909375,60.0,74.0
42,15.342369825,16.221444681250002,48.0,77.0
43,15.98503196875,16.2363903125,65.0,79.0
44,15.03666373125,16.30568369375,41.0,90.0
45,17.5081276625,18.05568124375,60.0,67.0
46,17.6711709125,18.30839828125,67.0,76.0
47,17.5950840625,18.360028643750002,63.0,78.0
48,17.96736615,18.9483430375,55.0,77.0
49,18.30568089375,18.97959299375,60.0,85.0
50,18.60459351875,18.98502776875,63.0,82.0
51,17.6331274875,18.99589731875,48.0,78.0
52,20.00948285625,20.582851618750002,68.0,72.0
53,20.190189125,20.68475365,56.0,78.0
54,20.11546096875,20.698340587500002,60.0,78.0
55,20.0733414625,20.90350334375,63.0,76.0
56,21.22687245625,21.619534950000002,63.0,82.0
57,20.90214465,21.74861085625,56.0,88.0
58,20.5624712125,22.766272475,51.0,79.0
59,20.225515162500002,22.79752243125,44.0,86.0
60,22.158936368750002,22.798881125,56.0,79.0
61,21.831491175,22.80295720625,63.0,77.0
62,21.54208940625,22.828772387500003,68.0,82.0
63,22.86817450625,23.26219569375,60.0,83.0
64,22.86817450625,23.6222495375,68.0,80.0
65,23.52034750625,24.039368518750003,60.0,92.0
66,23.84643400625,24.44154186875,65.0,89.0
67,24.49860700625,24.907573825,60.0,71.0
68,24.82469350625,25.15349739375,68.0,82.0
69,23.194261006250002,25.255399425,48.0,71.0
70,22.86817450625,25.31382325625,41.0,88.0
71,25.150780006250002,25.474149118750002,67.0,71.0
72,25.47686650625,26.14806121875,65.0,81.0
73,26.129039506250002,26.83556025625,60.0,86.0
74,25.80295300625,26.86545151875,48.0,73.0
75,25.47686650625,26.91164710625,41.0,87.0
76,26.45512600625,26.991810037500002,65.0,95.0
77,27.107299006250003,27.25403793125,60.0,73.0
78,27.43338550625,27.62903740625,60.0,90.0
79,27.43338550625,27.64126565,68.0,82.0
80,28.085558506250003,28.51082965,60.0,82.0
81,28.085558506250003,28.77577493125,65.0,87.0
82,28.73773150625,29.229578643750003,60.0,88.0
83,29.063818006250003,29.2526764375,65.0,86.0
84,29.38990450625,29.72957794375,68.0,86.0
85,29.71599100625,30.11544696875,65.0,86.0
86,28.41164500625,30.25675111875,48.0,79.0
87,28.085558506250003,30.3124575625,41.0,88.0
88,30.36816400625,30.5298485625,65.0,74.0
89,30.042077506250003,30.5461528875,60.0,86.0
90,30.69425050625,31.3668039125,63.0,82.0
91,31.34642350625,31.72957514375,58.0,95.0
92,31.67251000625,32.0135421375,63.0,88.0
93,31.020337006250003,32.19968318125,46.0,80.0
94,30.69425050625,32.243161381250005,39.0,87.0
95,31.998596506250003,32.343704718750004,65.0,90.0
96,32.32468300625,32.5189762125,63.0,86.0
97,32.65076950625,32.91163870625,67.0,92.0
98,32.65076950625,32.9265843375,58.0,82.0
99,33.30294250625,33.690170225,56.0,76.0
100,33.30294250625,34.12359353125,44.0,87.0
101,33.62902900625,34.12359353125,51.0,84.0
102,33.30294250625,34.20511515625,63.0,82.0
103,33.95511550625,34.32739759375,56.0,90.0
104,34.60728850625,34.995874918750005,56.0,78.0
105,34.60728850625,35.263537587500004,41.0,87.0
106,34.60728850625,35.27576583125,60.0,82.0
107,34.93337500625,35.277124525,48.0,75.0
108,35.25946150625,35.576037150000005,56.0,88.0
109,35.91163450625,36.027123475,56.0,66.0
110,35.91163450625,36.874948375,65.0,86.0
111,35.91163450625,37.085545906250005,49.0,87.0
112,36.23772100625,37.086904600000004,53.0,87.0
113,36.88989400625,37.114078475,61.0,84.0
114,36.56380750625,37.11543716875,56.0,90.0
115,37.21598050625,37.55429525,60.0,78.0
116,37.21598050625,37.566523493750005,63.0,81.0
117,37.21598050625,37.57467565625,56.0,81.0
118,37.21598050625,37.633099487500004,44.0,82.0
119,38.52032650625,38.88989120625,56.0,77.0
120,38.5352721375,39.103206125,70.0,83.0
121,38.52032650625,39.1820103625,61.0,80.0
122,39.17249950625,39.589618487500005,56.0,91.0
123,38.84641300625,39.592335875,53.0,74.0
124,38.52032650625,39.60184673125,49.0,86.0
125,39.49858600625,39.8450529125,61.0,92.0
126,39.82467250625,40.4782042,62.0,82.0
127,40.15075900625,40.744508175,53.0,87.0
128,39.82467250625,40.7580951125,46.0,85.0
129,40.47684550625,40.917062281250004,58.0,88.0
130,40.80293200625,40.9483122375,62.0,91.0
131,41.12901850625,41.74858285625,63.0,87.0
132,41.78119150625,42.18608224375,58.0,95.0
133,42.10727800625,42.33689725,63.0,87.0
134,42.43336450625,42.773037943750005,65.0,95.0
135,42.75945100625,43.107276606250004,63.0,88.0
136,41.45510500625,43.23499381875,46.0,80.0
137,41.12901850625,43.2363525125,39.0,87.0
138,43.08553750625,43.37901535625,58.0,92.0
139,43.3830914375,43.711895325,60.0,80.0
140,43.737710506250004,44.13173169375,60.0,83.0
141,43.737710506250004,44.4917855375,68.0,80.0
142,44.38988350625,44.90890451875,60.0,92.0
143,44.715970006250004,45.311077868750004,65.0,89.0
144,45.36814300625,45.777109825000004,60.0,71.0
145,45.694229506250004,46.023033393750005,68.0,82.0
146,44.06379700625,46.124935425000004,48.0,71.0
147,43.737710506250004,46.18335925625,41.0,88.0
148,46.02031600625,46.34368511875,67.0,71.0
149,46.34640250625,47.017597218750005,65.0,81.0
150,46.99857550625,47.70509625625,60.0,86.0
151,46.672489006250004,47.73498751875,48.0,73.0
152,46.34640250625,47.781183106250005,41.0,87.0
153,47.32466200625,47.8613460375,65.0,95.0
154,47.97683500625,48.12357393125,60.0,73.0
155,48.30292150625,48.49857340625,60.0,90.0
156,48.30292150625,48.510801650000005,68.0,82.0
157,48.95509450625,49.38036565,60.0,82.0
158,48.95509450625,49.64531093125,65.0,87.0
159,49.607267506250004,50.09911464375,60.0,88.0
160,49.93335400625,50.1222124375,65.0,86.0
161,50.25944050625,50.599113943750005,68.0,86.0
162,50.585527006250004,50.98498296875,65.0,86.0
163,49.28118100625,51.12628711875,48.0,79.0
164,48.95509450625,51.181993562500004,41.0,88.0
165,51.23770000625,51.3993845625,65.0,74.0
166,50.91161350625,51.4156888875,60.0,86.0
167,51.563786506250004,52.2363399125,63.0,82.0
168,52.21595950625,52.59911114375,58.0,95.0
169,52.542046006250004,52.8830781375,63.0,88.0
170,51.88987300625,53.06921918125,46.0,80.0
171,51.563786506250004,53.11269738125,39.0,87.0
172,52.86813250625,53.21324071875,65.0,90.0
173,53.19421900625,53.388512212500004,63.0,86.0
174,53.520305506250004,53.78117470625,67.0,92.0
175,53.520305506250004,53.7961203375,58.0,82.0
176,54.17247850625,54.559706225,56.0,76.0
177,54.17247850625,54.993129531250005,44.0,87.0
178,54.498565006250004,54.993129531250005,51.0,84.0
179,54.17247850625,55.07465115625,63.0,82.0
180,54.82465150625,55.19693359375,56.0,90.0
181,55.476824506250004,56.16704093125,53.0,86.0
182,55.476824506250004,56.1819865625,60.0,82.0
183,56.12899750625,56.455084006250004,56.0,82.0
184,55.80291100625,56.51214914375,48.0,81.0
185,55.476824506250004,56.536605631250005,41.0,87.0
186,56.455084006250004,57.134430881250005,53.0,82.0
187,56.78117050625,57.186061243750004,65.0,87.0
188,56.78117050625,57.1874199375,56.0,84.0
189,56.78117050625,57.19693079375,60.0,81.0
190,56.78117050625,57.20644165,41.0,87.0
191,58.08551650625,58.201005475,37.0,82.0
192,58.08551650625,58.412961700000004,56.0,79.0
193,58.08551650625,58.45779859375,61.0,79.0
194,58.08551650625,58.543396300000005,65.0,86.0
195,58.411603006250004,59.0651347,49.0,78.0
196,59.06377600625,59.21051493125,61.0,95.0
197,58.73768950625,59.22953664375,56.0,87.0
198,59.389862506250005,59.79203585625,58.0,80.0
199,59.389862506250005,60.092307175,63.0,81.0
200,60.04203550625,60.46323056875,58.0,90.0
201,59.389862506250005,60.532523950000005,39.0,88.0
202,59.71594900625,60.57600215,46.0,82.0
203,60.368122006250005,60.65616508125,63.0,86.0
204,60.69420850625,61.201001275,65.0,86.0
205,61.346381506250005,61.497196512500004,60.0,83.0
206,60.69420850625,61.5515442625,41.0,89.0
207,61.02029500625,61.55833773125,48.0,82.0
208,61.67246800625,62.093663068750004,60.0,77.0
209,61.346381506250005,62.11268478125,65.0,85.0
210,61.346381506250005,62.146652125,68.0,82.0
211,62.65072750625,63.14529203125,56.0,87.0
212,62.97681400625,63.153444193750005,63.0,84.0
213,62.324641006250005,63.472737225,51.0,82.0
214,63.302900506250005,63.4808893875,56.0,87.0
215,63.302900506250005,63.715943406250005,63.0,86.0
216,63.62898700625,63.7417585875,56.0,89.0
217,63.302900506250005,63.798823725000005,68.0,82.0
218,63.95507350625,64.19012752500001,68.0,80.0
219,63.95507350625,64.25670351875,72.0,86.0
220,64.28116000625,64.59637695625,70.0,88.0
221,61.99855450625,64.65480078750001,44.0,87.0
222,64.60724650625001,65.02300679375,60.0,86.0
223,64.60724650625001,65.3776258625,68.0,81.0
224,64.93333300625,65.37898455625,48.0,66.0
225,64.60724650625001,65.43604969375001,41.0,88.0
226,65.25941950625,65.6384950625,60.0,97.0
227,65.58550600625,65.80017961875001,65.0,86.0
228,65.91159250625,66.3613201375,61.0,76.0
229,66.23767900625,66.65343929375,56.0,86.0
230,65.91159250625,66.67653708750001,68.0,83.0
231,65.91159250625,66.69691749375001,49.0,90.0
232,66.56376550625001,66.9319715125,61.0,91.0
233,67.21593850625,67.59637275625,63.0,75.0
234,67.21593850625,67.79745943125,68.0,75.0
235,67.86811150625,68.048817775,63.0,91.0
236,67.54202500625,68.29745873125,46.0,86.0
237,67.21593850625,68.31648044375001,39.0,88.0
238,68.19419800625,68.3395782375,63.0,80.0
239,68.19419800625,68.3939259875,68.0,87.0
240,68.52028450625001,68.88984920625,67.0,83.0
241,68.52028450625001,68.91158830625,63.0,84.0
242,68.84637100625,69.26756606875,46.0,77.0
243,68.52028450625001,69.27028345625,39.0,91.0
244,69.17245750625,69.30832688125,63.0,81.0
245,69.17245750625,69.407511525,67.0,86.0
246,69.17245750625,69.52028310625,70.0,86.0
247,69.49854400625,69.5787069375,63.0,78.0
248,69.82463050625,70.516205625,61.0,78.0
249,69.82463050625,70.5515316625,58.0,78.0
250,70.47680350625001,70.84093343125001,65.0,89.0
251,70.80289000625,70.9645745625,61.0,81.0
252,70.80289000625,70.97136803125001,58.0,44.0
253,70.15071700625,71.22816115,53.0,84.0
254,69.82463050625,71.24310678125,46.0,86.0
255,71.12897650625,71.4482695375,70.0,87.0
256,71.12897650625,71.55424765000001,58.0,83.0
257,71.45506300625,71.92381235,53.0,82.0
258,71.78114950625,72.12354033125,61.0,91.0
259,71.78114950625,72.1873989375,65.0,92.0
260,72.10723600625,72.26484448125001,58.0,82.0
261,72.43332250625001,72.7743546375,58.0,81.0
262,72.43332250625001,72.90343054375,63.0,81.0
263,73.08549550625,73.46864714375,63.0,83.0
264,72.75940900625,73.50804926250001,46.0,81.0
265,72.43332250625001,73.527070975,39.0,91.0
266,73.41158200625,73.62082084375,58.0,90.0
267,73.73766850625,74.016200725,58.0,86.0
268,73.73766850625,74.10723320625,67.0,86.0
269,73.73766850625,74.12082014375001,63.0,88.0
270,73.73766850625,74.2607656,39.0,91.0
271,74.06375500625,74.28929816875001,46.0,85.0
272,74.38984150625001,74.51212394375,58.0,89.0
273,75.04201450625,75.43603569375,56.0,79.0
274,75.04201450625,75.48494866875001,60.0,75.0
275,75.36810100625,75.76619827500001,51.0,80.0
276,75.04201450625,75.77299174375,44.0,86.0
277,75.04201450625,75.7906547625,63.0,79.0
278,75.69418750625,76.14119775,56.0,93.0
279,76.02027400625,76.20777374375,60.0,86.0
280,76.34636050625001,76.81918593125,65.0,87.0
281,76.34636050625001,76.86130543750001,60.0,83.0
282,76.67244700625,77.0189139125,48.0,75.0
283,76.34636050625001,77.037935625,41.0,88.0
284,76.99853350625,77.1656528375,65.0,88.0
285,76.99853350625,77.16701153125,60.0,83.0
286,76.99853350625,77.18467455,56.0,82.0
287,77.65070650625,77.8449997125,56.0,83.0
288,77.65070650625,78.05831463125,61.0,83.0
289,77.65070650625,78.26211869375,49.0,89.0
290,77.97679300625,78.35722725625,56.0,86.0
291,78.30287950625001,78.79472664375,61.0,85.0
292,78.95505250625,79.18603044375,63.0,83.0
293,78.95505250625,79.21184562500001,58.0,79.0
294,79.28113900625,79.6384754625,46.0,82.0
295,78.95505250625,79.64391023750001,39.0,88.0
296,79.60722550625,80.02842056875001,63.0,87.0
297,79.60722550625,80.04336620000001,67.0,81.0
298,79.93331200625,80.157496475,58.0,76.0
299,80.25939850625001,80.548800275,60.0,87.0
300,80.25939850625001,80.7172783,68.0,83.0
301,80.91157150625,81.309668775,65.0,92.0
302,80.58548500625,81.38167954375,48.0,84.0
303,81.23765800625,81.4482555375,68.0,88.0
304,80.25939850625001,81.45233161875001,41.0,87.0
305,81.56374450625,81.9156461875,72.0,87.0
306,81.56374450625,81.929233125,65.0,87.0
307,81.56374450625,81.94689614375001,68.0,86.0
308,82.21591750625001,82.353145575,65.0,90.0
309,81.88983100625,82.374884675,44.0,81.0
310,81.56374450625,82.4047759375,37.0,83.0
311,82.21591750625001,82.52977576250001,68.0,87.0
312,82.86809050625,83.01482943125,39.0,88.0
313,82.86809050625,83.38982890625,63.0,86.0
314,82.86809050625,83.40205715,67.0,81.0
315,83.52026350625,83.7390132,63.0,88.0
316,83.52026350625,83.91428469375,67.0,80.0
317,83.52026350625,83.97406721875001,70.0,87.0
318,83.84635000625,84.33547975625001,58.0,85.0
319,83.52026350625,84.3911862,51.0,89.0
320,84.17243650625001,84.62624021875,75.0,89.0
321,84.17243650625001,84.65341409375,70.0,83.0
322,84.17243650625001,84.6602075625,63.0,85.0
323,84.17243650625001,84.67243580625001,67.0,78.0
324,84.49852300625,84.76482698125,58.0,87.0
325,84.82460950625,84.94553325,63.0,84.0
326,84.82460950625,85.07460915625,67.0,82.0
327,85.15069600625,85.342271825,63.0,75.0
328,84.82460950625,85.36536961875001,70.0,85.0
329,85.47678250625,85.86536891875001,56.0,86.0
330,85.47678250625,85.96319486875001,65.0,87.0
331,85.47678250625,86.18194456250001,37.0,81.0
332,85.80286900625,86.19689019375001,44.0,69.0
333,86.12895550625001,86.266183575,56.0,88.0
334,86.12895550625001,86.4319442125,61.0,88.0
335,86.78112850625,87.18058446875,62.0,86.0
336,86.78112850625,87.18601924375,58.0,86.0
337,87.10721500625,87.50938835625,53.0,90.0
338,86.78112850625,87.55558394375001,46.0,87.0
339,87.43330150625,87.5569426375,58.0,86.0
340,87.43330150625,87.6330294875,62.0,87.0
341,87.75938800625,87.97949639375,58.0,86.0
342,87.43330150625,88.11264838125,65.0,88.0
343,88.08547450625001,88.5433543,58.0,77.0
344,88.08547450625001,88.59906074375,63.0,82.0
345,88.73764750625,89.0460709875,65.0,86.0
346,89.06373400625,89.1737882,63.0,87.0
347,88.41156100625,89.2199837875,46.0,82.0
348,88.08547450625001,89.27297284375,39.0,87.0
349,89.38982050625,89.63030930000001,58.0,79.0
350,89.38982050625,89.78112430625,63.0,84.0
351,89.38982050625,89.85992854375,67.0,82.0
352,89.38982050625,90.135743375,39.0,92.0
353,89.71590700625,90.1520477,46.0,82.0
354,90.04199350625001,90.40204735,58.0,89.0
355,90.36808000625,90.51481893125,63.0,84.0
356,90.69416650625,91.1004159375,60.0,83.0
357,90.69416650625,91.11807895625,56.0,81.0
358,91.02025300625,91.36264383125,51.0,84.0
359,90.69416650625,91.3667199125,44.0,87.0
360,91.34633950625,91.46318716875,56.0,84.0
361,91.34633950625,91.59090438125,60.0,87.0
362,91.34633950625,91.61807825625,63.0,86.0
363,91.99851250625001,92.66698983125,56.0,82.0
364,91.99851250625001,93.12079354375,53.0,86.0
365,92.97677200625,93.14660872500001,56.0,80.0
366,92.65068550625,93.168347825,60.0,84.0
367,93.30285850625,94.5623676125,53.0,85.0
368,91.99851250625001,94.57459585625,41.0,88.0
369,93.30285850625,94.57459585625,56.0,86.0
370,92.32459900625,94.57731324375,48.0,76.0
371,93.30285850625,94.60176973125,60.0,80.0
372,93.30285850625,94.63845446250001,65.0,85.0
373,94.60720450625,94.63845446250001,65.0,86.0
374,94.60720450625,94.7199760875,37.0,86.0
375,94.60720450625,94.9862800625,56.0,84.0
376,95.58546400625,95.78383329375,61.0,87.0
377,95.25937750625,96.00122429375,56.0,89.0
378,94.93329100625,96.05964812500001,49.0,86.0
379,95.91155050625001,96.09089808125,61.0,78.0
380,95.91155050625001,96.09361546875,65.0,83.0
381,95.91155050625001,96.15747407500001,68.0,76.0
382,96.56372350625,96.95638600000001,67.0,86.0
383,96.56372350625,96.983559875,39.0,88.0
384,96.56372350625,97.07595105,63.0,88.0
385,97.21589650625,97.49035264375,68.0,82.0
386,97.21589650625,97.53383084375001,63.0,84.0
387,97.86806950625001,98.32187321875,56.0,80.0
388,98.19415600625,98.58002503125,58.0,89.0
389,98.52024250625,98.84089423125,60.0,90.0
390,98.84632900625,98.96589405625001,63.0,90.0
391,99.17241550625,99.37078479375,68.0,87.0
392,99.49850200625,99.77975161250001,70.0,87.0
393,97.54198300625,99.80692548750001,51.0,74.0
394,97.21589650625,99.83681675,44.0,86.0
395,99.82458850625001,100.2145336125,60.0,81.0
396,99.82458850625001,100.4862723625,65.0,86.0
397,100.47676150625,100.93464130000001,60.0,90.0
398,100.80284800625,100.96045648125,65.0,93.0
399,100.15067500625,101.27023865625,48.0,71.0
400,99.82458850625001,101.53382524375,41.0,87.0
401,101.12893450625,101.5406187125,60.0,87.0
402,101.45502100625,101.63165119375,48.0,83.0
403,101.12893450625,101.66969461875,68.0,82.0
404,101.78110750625001,101.874857375,60.0,82.0
405,101.78110750625001,101.94958553125001,65.0,84.0
406,102.43328050625,103.0025731875,63.0,81.0
407,102.43328050625,103.00664926875001,56.0,79.0
408,103.08545350625,103.48626816250001,60.0,87.0
409,103.41154000625001,103.61806145625,56.0,86.0
410,102.75936700625,103.85990894375,51.0,80.0
411,103.73762650625001,104.1438759375,63.0,85.0
412,103.73762650625001,104.43327770625001,56.0,87.0
413,102.43328050625,104.51072325,44.0,86.0
414,104.06371300625,104.51751671875,51.0,83.0
415,104.38979950625,104.53110365625001,60.0,79.0
416,104.38979950625,104.565071,63.0,79.0
417,104.38979950625,104.5895274875,68.0,85.0
418,105.04197250625,105.733547625,60.0,82.0
419,105.36805900625001,105.82458010625001,55.0,83.0
420,105.04197250625,105.94414515625,48.0,87.0
421,105.04197250625,105.96724295,67.0,77.0
422,105.69414550625001,105.9971342125,63.0,87.0
423,106.02023200625,106.23490561875,60.0,87.0
424,106.34631850625,106.755285325,58.0,91.0
425,106.99849150625,107.18599124375001,58.0,86.0
426,106.99849150625,107.36262143125,65.0,86.0
427,106.67240500625,107.44686044375,53.0,91.0
428,106.34631850625,107.50392558125,46.0,86.0
429,107.32457800625001,107.53381684375,58.0,79.0
430,107.65066450625001,107.80012081875,58.0,87.0
431,107.65066450625001,108.1058269125,63.0,86.0
432,107.97675100625,108.35990264375,58.0,86.0
433,108.30283750625,108.4210438625,65.0,87.0
434,107.65066450625001,108.80011941875,51.0,91.0
435,108.62892400625,108.84631500625001,67.0,88.0
436,108.95501050625,109.16017326250001,58.0,79.0
437,108.95501050625,109.4101729125,63.0,86.0
438,109.28109700625001,110.1302806,58.0,80.0
439,109.60718350625001,110.19142181875,63.0,78.0
440,108.95501050625,110.25799781250001,51.0,86.0
441,110.24576956875,110.69685589375,60.0,81.0
442,110.2688673625,110.9781055,65.0,88.0
443,111.244409475,112.37348398125,65.0,82.0
444,110.92104036250001,112.42511434375001,60.0,84.0
445,110.5949538625,112.472668625,48.0,76.0
446,110.2797369125,112.54060331250001,41.0,89.0
447,112.73897260000001,112.94685274375,60.0,79.0
448,112.83543985625,113.5188628125,65.0,86.0
449,112.8938636875,113.95228611875001,68.0,82.0
450,113.4916889375,114.00119909375,60.0,74.0
451,113.168319825,114.04739468125,48.0,77.0
452,113.81098196875,114.0623403125,65.0,79.0
453,112.86261373125001,114.13163369375,41.0,90.0
454,115.33407766250001,115.88163124375001,60.0,67.0
455,115.49712091250001,116.13434828125,67.0,76.0
456,115.4210340625,116.18597864375,63.0,78.0
457,115.79331615000001,116.7742930375,55.0,77.0
458,116.13163089375,116.80554299375001,60.0,85.0
459,116.43054351875,116.81097776875,63.0,82.0
460,115.45907748750001,116.82184731875,48.0,78.0
461,117.83543285625001,118.40880161875,68.0,72.0
462,118.01613912500001,118.51070365000001,56.0,78.0
463,117.94141096875,118.5242905875,60.0,78.0
464,117.8992914625,118.72945334375001,63.0,76.0
465,119.05282245625,119.44548495000001,63.0,82.0
466,118.72809465,119.57456085625,56.0,88.0
467,118.3884212125,120.592222475,51.0,79.0
468,118.05146516250001,120.62347243125001,44.0,86.0
469,119.98488636875001,120.624831125,56.0,79.0
470,119.657441175,120.62890720625,63.0,77.0
471,119.36803940625,120.6547223875,68.0,82.0
472,120.69412450625,121.08814569375001,60.0,83.0
473,120.69412450625,121.4481995375,68.0,80.0
474,121.34629750625001,121.86531851875,60.0,92.0
475,121.67238400625,122.26749186875,65.0,89.0
476,122.32455700625,122.733523825,60.0,71.0
477,122.65064350625,122.97944739375001,68.0,82.0
478,121.02021100625001,123.081349425,48.0,71.0
479,120.69412450625,123.13977325625001,41.0,88.0
480,122.97673000625001,123.30009911875,67.0,71.0
481,123.30281650625001,123.97401121875001,65.0,81.0
482,123.95498950625,124.66151025625001,60.0,86.0
483,123.62890300625,124.69140151875,48.0,73.0
484,123.30281650625001,124.73759710625,41.0,87.0
485,124.28107600625,124.81776003750001,65.0,95.0
486,124.93324900625001,125.07998793125,60.0,73.0
487,125.25933550625001,125.45498740625,60.0,90.0
488,125.25933550625001,125.46721565,68.0,82.0
489,125.91150850625,126.33677965000001,60.0,82.0
490,125.91150850625,126.60172493125,65.0,87.0
491,126.56368150625,127.05552864375001,60.0,88.0
492,126.88976800625001,127.0786264375,65.0,86.0
493,127.21585450625001,127.55552794375001,68.0,86.0
494,127.54194100625,127.94139696875,65.0,86.0
495,126.23759500625,128.08270111875,48.0,79.0
496,125.91150850625,128.1384075625,41.0,88.0
497,128.19411400625,128.3557985625,65.0,74.0
498,127.86802750625,128.3721028875,60.0,86.0
499,128.52020050625,129.1927539125,63.0,82.0
500,129.17237350625,129.55552514375,58.0,95.0
501,129.49846000625,129.8394921375,63.0,88.0
502,128.84628700625,130.02563318125002,46.0,80.0
503,128.52020050625,130.06911138125,39.0,87.0
504,129.82454650625002,130.16965471875,65.0,90.0
505,130.15063300625002,130.3449262125,63.0,86.0
506,130.47671950625,130.73758870625,67.0,92.0
507,130.47671950625,130.7525343375,58.0,82.0
508,131.12889250625,131.516120225,56.0,76.0
509,131.12889250625,131.94954353125001,44.0,87.0
510,131.45497900625,131.94954353125001,51.0,84.0
511,131.12889250625,132.03106515625,63.0,82.0
512,131.78106550625,132.15334759375,56.0,90.0
513,132.43323850625,132.82182491875,56.0,78.0
514,132.43323850625,133.0894875875,41.0,87.0
515,132.43323850625,133.10171583125,60.0,82.0
516,132.75932500625,133.103074525,48.0,75.0
517,133.08541150625,133.40198715,56.0,88.0
518,133.73758450625002,133.853073475,56.0,66.0
519,133.73758450625002,134.700898375,65.0,86.0
520,133.73758450625002,134.91149590625,49.0,87.0
521,134.06367100625002,134.9128546,53.0,87.0
522,134.71584400625,134.940028475,61.0,84.0
523,134.38975750625,134.94138716875,56.0,90.0
524,135.04193050625,135.38024525,60.0,78.0
525,135.04193050625,135.39247349375,63.0,81.0
526,135.04193050625,135.40062565625,56.0,81.0
527,135.04193050625,135.4590494875,44.0,82.0
528,136.34627650625,136.71584120625002,56.0,77.0
529,136.3612221375,136.929156125,70.0,83.0
530,136.34627650625,137.0079603625,61.0,80.0
531,136.99844950625,137.4155684875,56.0,91.0
532,136.67236300625,137.418285875,53.0,74.0
533,136.34627650625,137.42779673125,49.0,86.0
534,137.32453600625,137.6710029125,61.0,92.0
535,137.65062250625002,138.3041542,62.0,82.0
536,137.97670900625002,138.570458175,53.0,87.0
537,137.65062250625002,138.5840451125,46.0,85.0
538,138.30279550625,138.74301228125,58.0,88.0
539,138.62888200625,138.7742622375,62.0,91.0
540,138.95496850625,139.57453285625002,63.0,87.0
541,139.60714150625,140.01203224375,58.0,95.0
542,139.93322800625,140.16284725,63.0,87.0
543,140.25931450625,140.59898794375002,65.0,95.0
544,140.58540100625,140.93322660625,63.0,88.0
545,139.28105500625,141.06094381875002,46.0,80.0
546,138.95496850625,141.0623025125,39.0,87.0
547,140.91148750625,141.20496535625,58.0,92.0
548,141.2090414375,141.537845325,60.0,80.0
549,141.56366050625002,141.95768169375,60.0,83.0
550,141.56366050625002,142.3177355375,68.0,80.0
551,142.21583350625,142.73485451875,60.0,92.0
552,142.54192000625,143.13702786875,65.0,89.0
553,143.19409300625,143.603059825,60.0,71.0
554,143.52017950625,143.84898339375002,68.0,82.0
555,141.88974700625002,143.950885425,48.0,71.0
556,141.56366050625002,144.00930925625,41.0,88.0
557,143.84626600625,144.16963511875,67.0,71.0
558,144.17235250625,144.84354721875002,65.0,81.0
559,144.82452550625,145.53104625625,60.0,86.0
560,144.49843900625,145.56093751875,48.0,73.0
561,144.17235250625,145.60713310625002,41.0,87.0
562,145.15061200625001,145.6872960375,65.0,95.0
563,145.80278500625002,145.94952393125,60.0,73.0
564,146.12887150625,146.32452340625,60.0,90.0
565,146.12887150625,146.33675165,68.0,82.0
566,146.78104450625,147.20631565,60.0,82.0
567,146.78104450625,147.47126093125001,65.0,87.0
568,147.43321750625,147.92506464375,60.0,88.0
569,147.75930400625,147.9481624375,65.0,86.0
570,148.08539050625,148.42506394375002,68.0,86.0
571,148.41147700625,148.81093296875,65.0,86.0
572,147.10713100625,148.95223711875,48.0,79.0
573,146.78104450625,149.0079435625,41.0,88.0
574,149.06365000625001,149.2253345625,65.0,74.0
575,148.73756350625,149.24163888750002,60.0,86.0
576,149.38973650625002,150.0622899125,63.0,82.0
577,150.04190950625,150.42506114375,58.0,95.0
578,150.36799600625,150.7090281375,63.0,88.0
579,149.71582300625002,150.89516918125,46.0,80.0
580,149.38973650625002,150.93864738125,39.0,87.0
581,150.69408250625,151.03919071875,65.0,90.0
582,151.02016900625,151.2144622125,63.0,86.0
583,151.34625550625,151.60712470625,67.0,92.0
584,151.34625550625,151.6220703375,58.0,82.0
585,151.99842850625,152.38565622500002,56.0,76.0
586,151.99842850625,152.81907953125,44.0,87.0
587,152.32451500625,152.81907953125,51.0,84.0
588,151.99842850625,152.90060115625002,63.0,82.0
589,152.65060150625,153.02288359375,56.0,90.0
590,153.30277450625002,153.99299093125,53.0,86.0
591,153.30277450625002,154.0079365625,60.0,82.0
592,153.95494750625,154.28103400625,56.0,82.0
593,153.62886100625002,154.33809914375001,48.0,81.0
594,153.30277450625002,154.36255563125002,41.0,87.0
595,154.28103400625,154.96038088125002,53.0,82.0
596,154.60712050625,155.01201124375,65.0,87.0
597,154.60712050625,155.01336993750002,56.0,84.0
598,154.60712050625,155.02288079375,60.0,81.0
599,154.60712050625,155.03239165,41.0,87.0
600,155.91146650625,156.026955475,37.0,82.0
601,155.91146650625,156.23891170000002,56.0,79.0
602,155.91146650625,156.28374859375,61.0,79.0
603,155.91146650625,156.36934630000002,65.0,86.0
604,156.23755300625,156.8910847,49.0,78.0
605,156.88972600625002,157.03646493125,61.0,95.0
606,156.56363950625,157.05548664375002,56.0,87.0
607,157.21581250625002,157.61798585625002,58.0,80.0
608,157.21581250625002,157.918257175,63.0,81.0
609,157.86798550625,158.28918056875,58.0,90.0
610,157.21581250625002,158.35847395000002,39.0,88.0
611,157.54189900625,158.40195215,46.0,82.0
612,158.19407200625,158.48211508125002,63.0,86.0
613,158.52015850625,159.02695127500002,65.0,86.0
614,159.17233150625,159.32314651250002,60.0,83.0
615,158.52015850625,159.3774942625,41.0,89.0
616,158.84624500625,159.38428773125,48.0,82.0
617,159.49841800625,159.91961306875,60.0,77.0
618,159.17233150625,159.93863478125002,65.0,85.0
619,159.17233150625,159.972602125,68.0,82.0
620,160.47667750625,160.97124203125,56.0,87.0
621,160.80276400625002,160.97939419375,63.0,84.0
622,160.15059100625,161.298687225,51.0,82.0
623,161.12885050625002,161.30683938750002,56.0,87.0
624,161.12885050625002,161.54189340625,63.0,86.0
625,161.45493700625,161.5677085875,56.0,89.0
626,161.12885050625002,161.624773725,68.0,82.0
627,161.78102350625,162.01607752500001,68.0,80.0
628,161.78102350625,162.08265351875,72.0,86.0
629,162.10711000625,162.42232695625,70.0,88.0
630,159.82450450625,162.4807507875,44.0,87.0
631,162.43319650625,162.84895679375,60.0,86.0
632,162.43319650625,163.2035758625,68.0,81.0
633,162.75928300625,163.20493455625,48.0,66.0
634,162.43319650625,163.26199969375,41.0,88.0
635,163.08536950625,163.4644450625,60.0,97.0
636,163.41145600625,163.62612961875,65.0,86.0
637,163.73754250625,164.1872701375,61.0,76.0
638,164.06362900625,164.47938929375002,56.0,86.0
639,163.73754250625,164.50248708750001,68.0,83.0
640,163.73754250625,164.52286749375,49.0,90.0
641,164.38971550625,164.75792151250002,61.0,91.0
642,165.04188850625002,165.42232275625,63.0,75.0
643,165.04188850625002,165.62340943125,68.0,75.0
644,165.69406150625,165.874767775,63.0,91.0
645,165.36797500625,166.12340873125,46.0,86.0
646,165.04188850625002,166.14243044375002,39.0,88.0
647,166.02014800625,166.1655282375,63.0,80.0
648,166.02014800625,166.21987598750002,68.0,87.0
649,166.34623450625,166.71579920625,67.0,83.0
650,166.34623450625,166.73753830625,63.0,84.0
651,166.67232100625,167.09351606875,46.0,77.0
652,166.34623450625,167.09623345625002,39.0,91.0
653,166.99840750625,167.13427688125,63.0,81.0
654,166.99840750625,167.233461525,67.0,86.0
655,166.99840750625,167.34623310625,70.0,86.0
656,167.32449400625,167.4046569375,63.0,78.0
657,167.65058050625,168.342155625,61.0,78.0
658,167.65058050625,168.3774816625,58.0,78.0
659,168.30275350625,168.66688343125,65.0,89.0
660,168.62884000625002,168.7905245625,61.0,81.0
661,168.62884000625002,168.79731803125,58.0,44.0
662,167.97666700625,169.05411115,53.0,84.0
663,167.65058050625,169.06905678125,46.0,86.0
664,168.95492650625002,169.27421953750002,70.0,87.0
665,168.95492650625002,169.38019765,58.0,83.0
666,169.28101300625,169.74976235,53.0,82.0
667,169.60709950625,169.94949033125002,61.0,91.0
668,169.60709950625,170.0133489375,65.0,92.0
669,169.93318600625,170.09079448125001,58.0,82.0
670,170.25927250625,170.60030463750002,58.0,81.0
671,170.25927250625,170.72938054375,63.0,81.0
672,170.91144550625,171.29459714375,63.0,83.0
673,170.58535900625,171.33399926250001,46.0,81.0
674,170.25927250625,171.353020975,39.0,91.0
675,171.23753200625,171.44677084375002,58.0,90.0
676,171.56361850625,171.842150725,58.0,86.0
677,171.56361850625,171.93318320625,67.0,86.0
678,171.56361850625,171.94677014375,63.0,88.0
679,171.56361850625,172.08671560000002,39.0,91.0
680,171.88970500625,172.11524816875,46.0,85.0
681,172.21579150625,172.33807394375,58.0,89.0
682,172.86796450625002,173.26198569375,56.0,79.0
683,172.86796450625002,173.31089866875,60.0,75.0
684,173.19405100625,173.592148275,51.0,80.0
685,172.86796450625002,173.59894174375,44.0,86.0
686,172.86796450625002,173.6166047625,63.0,79.0
687,173.52013750625,173.96714775,56.0,93.0
688,173.84622400625,174.03372374375002,60.0,86.0
689,174.17231050625,174.64513593125,65.0,87.0
690,174.17231050625,174.6872554375,60.0,83.0
691,174.49839700625,174.84486391250002,48.0,75.0
692,174.17231050625,174.863885625,41.0,88.0
693,174.82448350625,174.9916028375,65.0,88.0
694,174.82448350625,174.99296153125002,60.0,83.0
695,174.82448350625,175.01062455000002,56.0,82.0
696,175.47665650625,175.6709497125,56.0,83.0
697,175.47665650625,175.88426463125,61.0,83.0
698,175.47665650625,176.08806869375002,49.0,89.0
699,175.80274300625,176.18317725625002,56.0,86.0
700,176.12882950625,176.62067664375002,61.0,85.0
701,176.78100250625002,177.01198044375002,63.0,83.0
702,176.78100250625002,177.037795625,58.0,79.0
703,177.10708900625,177.4644254625,46.0,82.0
704,176.78100250625002,177.4698602375,39.0,88.0
705,177.43317550625,177.85437056875,63.0,87.0
706,177.43317550625,177.86931620000001,67.0,81.0
707,177.75926200625,177.983446475,58.0,76.0
708,178.08534850625,178.374750275,60.0,87.0
709,178.08534850625,178.5432283,68.0,83.0
710,178.73752150625,179.135618775,65.0,92.0
711,178.41143500625,179.20762954375002,48.0,84.0
712,179.06360800625,179.2742055375,68.0,88.0
713,178.08534850625,179.27828161875001,41.0,87.0
714,179.38969450625,179.7415961875,72.0,87.0
715,179.38969450625,179.755183125,65.0,87.0
716,179.38969450625,179.77284614375,68.0,86.0
717,180.04186750625001,180.17909557500002,65.0,90.0
718,179.71578100625,180.200834675,44.0,81.0
719,179.38969450625,180.2307259375,37.0,83.0
720,180.04186750625001,180.35572576250001,68.0,87.0
721,180.69404050625002,180.84077943125,39.0,88.0
722,180.69404050625002,181.21577890625,63.0,86.0
723,180.69404050625002,181.22800715,67.0,81.0
724,181.34621350625,181.5649632,63.0,88.0
725,181.34621350625,181.74023469375,67.0,80.0
726,181.34621350625,181.80001721875,70.0,87.0
727,181.67230000625,182.16142975625002,58.0,85.0
728,181.34621350625,182.2171362,51.0,89.0
729,181.99838650625,182.45219021875002,75.0,89.0
730,181.99838650625,182.47936409375,70.0,83.0
731,181.99838650625,182.4861575625,63.0,85.0
732,181.99838650625,182.49838580625,67.0,78.0
733,182.32447300625,182.59077698125,58.0,87.0
734,182.65055950625,182.77148325000002,63.0,84.0
735,182.65055950625,182.90055915625,67.0,82.0
736,182.97664600625,183.16822182500002,63.0,75.0
737,182.65055950625,183.19131961875001,70.0,85.0
738,183.30273250625,183.69131891875,56.0,86.0
739,183.30273250625,183.78914486875001,65.0,87.0
740,183.30273250625,184.0078945625,37.0,81.0
741,183.62881900625,184.02284019375,44.0,69.0
742,183.95490550625001,184.09213357500002,56.0,88.0
743,183.95490550625001,184.25789421250002,61.0,88.0
744,184.60707850625002,185.00653446875,62.0,86.0
745,184.60707850625002,185.01196924375,58.0,86.0
746,184.93316500625,185.33533835625002,53.0,90.0
747,184.60707850625002,185.38153394375001,46.0,87.0
748,185.25925150625,185.38289263750002,58.0,86.0
749,185.25925150625,185.45897948750002,62.0,87.0
750,185.58533800625,185.80544639375,58.0,86.0
751,185.25925150625,185.93859838125002,65.0,88.0
752,185.91142450625,186.3693043,58.0,77.0
753,185.91142450625,186.42501074375,63.0,82.0
754,186.56359750625,186.8720209875,65.0,86.0
755,186.88968400625,186.9997382,63.0,87.0
756,186.23751100625,187.04593378750002,46.0,82.0
757,185.91142450625,187.09892284375002,39.0,87.0
758,187.21577050625,187.4562593,58.0,79.0
759,187.21577050625,187.60707430625,63.0,84.0
760,187.21577050625,187.68587854375,67.0,82.0
761,187.21577050625,187.961693375,39.0,92.0
762,187.54185700625,187.9779977,46.0,82.0
763,187.86794350625001,188.22799735,58.0,89.0
764,188.19403000625002,188.34076893125,63.0,84.0
765,188.52011650625002,188.9263659375,60.0,83.0
766,188.52011650625002,188.94402895625,56.0,81.0
767,188.84620300625,189.18859383125002,51.0,84.0
768,188.52011650625002,189.1926699125,44.0,87.0
769,189.17228950625,189.28913716875002,56.0,84.0
770,189.17228950625,189.41685438125,60.0,87.0
771,189.17228950625,189.44402825625,63.0,86.0
772,189.82446250625,190.49293983125,56.0,82.0
773,189.82446250625,190.94674354375002,53.0,86.0
774,190.80272200625,190.972558725,56.0,80.0
775,190.47663550625,190.99429782500002,60.0,84.0
776,191.12880850625,192.3883176125,53.0,85.0
777,189.82446250625,192.40054585625,41.0,88.0
778,191.12880850625,192.40054585625,56.0,86.0
779,190.15054900625,192.40326324375002,48.0,76.0
780,191.12880850625,192.42771973125,60.0,80.0
781,191.12880850625,192.4644044625,65.0,85.0
782,192.43315450625002,192.4644044625,65.0,86.0
783,192.43315450625002,192.54592608750002,37.0,86.0
784,192.43315450625002,192.81223006250002,56.0,84.0
785,193.41141400625,193.60978329375,61.0,87.0
786,193.08532750625,193.82717429375,56.0,89.0
787,192.75924100625,193.885598125,49.0,86.0
788,193.73750050625,193.91684808125,61.0,78.0
789,193.73750050625,193.91956546875,65.0,83.0
790,193.73750050625,193.98342407500002,68.0,76.0
791,194.38967350625,194.78233600000002,67.0,86.0
792,194.38967350625,194.809509875,39.0,88.0
793,194.38967350625,194.90190105000002,63.0,88.0
794,195.04184650625,195.31630264375002,68.0,82.0
795,195.04184650625,195.35978084375,63.0,84.0
796,195.69401950625002,196.14782321875,56.0,80.0
797,196.02010600625002,196.40597503125,58.0,89.0
798,196.34619250625002,196.66684423125,60.0,90.0
799,196.67227900625,196.79184405625,63.0,90.0
800,196.99836550625,197.19673479375,68.0,87.0
801,197.32445200625,197.6057016125,70.0,87.0
802,195.36793300625,197.6328754875,51.0,74.0
803,195.04184650625,197.66276675,44.0,86.0
804,197.65053850625,198.06629879375,60.0,86.0
805,197.65053850625,198.4209178625,68.0,81.0
806,197.97662500625,198.42227655625,48.0,66.0
807,197.65053850625,198.47934169375,41.0,88.0
808,198.30271150625,198.6817870625,60.0,97.0
809,198.62879800625,198.84347161875002,65.0,86.0
810,198.95488450625,199.4046121375,61.0,76.0
811,199.28097100625,199.69673129375002,56.0,86.0
812,198.95488450625,199.71982908750002,68.0,83.0
813,198.95488450625,199.74020949375,49.0,90.0
814,199.60705750625002,199.97526351250002,61.0,91.0
815,200.25923050625002,200.63966475625,63.0,75.0
816,200.25923050625002,200.84075143125,68.0,75.0
817,200.91140350625,201.092109775,63.0,91.0
818,200.58531700625,201.34075073125,46.0,86.0
819,200.25923050625002,201.35977244375002,39.0,88.0
820,201.23749000625,201.38287023750001,63.0,80.0
821,201.23749000625,201.43721798750002,68.0,87.0
822,201.56357650625,201.93314120625,67.0,83.0
823,201.56357650625,201.95488030625,63.0,84.0
824,201.88966300625,202.31085806875,46.0,77.0
825,201.56357650625,202.31357545625002,39.0,91.0
826,202.21574950625,202.35161888125,63.0,81.0
827,202.21574950625,202.450803525,67.0,86.0
828,202.21574950625,202.56357510625,70.0,86.0
829,202.54183600625,202.6219989375,63.0,78.0
830,202.86792250625,203.559497625,61.0,78.0
831,202.86792250625,203.5948236625,58.0,78.0
832,203.52009550625002,203.88422543125,65.0,89.0
833,203.84618200625002,204.0078665625,61.0,81.0
834,203.84618200625002,204.01466003125,58.0,44.0
835,203.19400900625,204.27145315,53.0,84.0
836,202.86792250625,204.28639878125,46.0,86.0
837,204.17226850625002,204.49156153750002,70.0,87.0
838,204.17226850625002,204.59753965000002,58.0,83.0
839,204.49835500625,204.96710435,53.0,82.0
840,204.82444150625,205.16683233125002,61.0,91.0
841,204.82444150625,205.23069093750001,65.0,92.0
842,205.15052800625,205.30813648125002,58.0,82.0
843,205.47661450625,205.81764663750002,58.0,81.0
844,205.47661450625,205.94672254375,63.0,81.0
845,206.12878750625,206.51193914375,63.0,83.0
846,205.80270100625,206.55134126250002,46.0,81.0
847,205.47661450625,206.570362975,39.0,91.0
848,206.45487400625,206.66411284375002,58.0,90.0
849,206.78096050625,207.059492725,58.0,86.0
850,206.78096050625,207.15052520625,67.0,86.0
851,206.78096050625,207.16411214375,63.0,88.0
852,206.78096050625,207.30405760000002,39.0,91.0
853,207.10704700625,207.33259016875002,46.0,85.0
854,207.43313350625002,207.55541594375,58.0,89.0
855,208.08530650625002,208.47932769375,56.0,79.0
856,208.08530650625002,208.52824066875002,60.0,75.0
857,208.41139300625,208.809490275,51.0,80.0
858,208.08530650625002,208.81628374375,44.0,86.0
859,208.08530650625002,208.8339467625,63.0,79.0
860,208.73747950625,209.18448975,56.0,93.0
861,209.06356600625,209.25106574375002,60.0,86.0
862,209.38965250625,209.86247793125,65.0,87.0
863,209.38965250625,209.9045974375,60.0,83.0
864,209.71573900625,210.06220591250002,48.0,75.0
865,209.38965250625,210.081227625,41.0,88.0
866,210.04182550625,210.2089448375,65.0,88.0
867,210.04182550625,210.21030353125002,60.0,83.0
868,210.04182550625,210.22796655000002,56.0,82.0
869,210.69399850625,210.8882917125,56.0,83.0
870,210.69399850625,211.10160663125,61.0,83.0
871,210.69399850625,211.30541069375002,49.0,89.0
872,211.02008500625,211.40051925625002,56.0,86.0
873,211.34617150625002,211.83801864375002,61.0,85.0
874,211.99834450625002,212.22932244375002,63.0,83.0
875,211.99834450625002,212.255137625,58.0,79.0
876,212.32443100625,212.6817674625,46.0,82.0
877,211.99834450625002,212.6872022375,39.0,88.0
878,212.65051750625,213.07171256875,63.0,87.0
879,212.65051750625,213.08665820000002,67.0,81.0
880,212.97660400625,213.200788475,58.0,76.0
881,213.30269050625,213.592092275,60.0,87.0
882,213.30269050625,213.7605703,68.0,83.0
883,213.95486350625,214.352960775,65.0,92.0
884,213.62877700625,214.42497154375002,48.0,84.0
885,214.28095000625,214.4915475375,68.0,88.0
886,213.30269050625,214.49562361875002,41.0,87.0
887,214.60703650625,214.9589381875,72.0,87.0
888,214.60703650625,214.972525125,65.0,87.0
889,214.60703650625,214.99018814375,68.0,86.0
890,215.25920950625002,215.39643757500002,65.0,90.0
891,214.93312300625,215.418176675,44.0,81.0
892,214.60703650625,215.4480679375,37.0,83.0
893,215.25920950625002,215.57306776250002,68.0,87.0
894,215.91138250625002,216.05812143125002,39.0,88.0
895,215.91138250625002,216.43312090625,63.0,86.0
896,215.91138250625002,216.44534915,67.0,81.0
897,216.56355550625,216.7823052,63.0,88.0
898,216.56355550625,216.95757669375,67.0,80.0
899,216.56355550625,217.01735921875002,70.0,87.0
900,216.88964200625,217.37877175625002,58.0,85.0
901,216.56355550625,217.4344782,51.0,89.0
902,217.21572850625,217.66953221875002,75.0,89.0
903,217.21572850625,217.69670609375,70.0,83.0
904,217.21572850625,217.7034995625,63.0,85.0
905,217.21572850625,217.71572780625002,67.0,78.0
906,217.54181500625,217.80811898125,58.0,87.0
907,217.86790150625,217.98882525000002,63.0,84.0
908,217.86790150625,218.11790115625,67.0,82.0
909,218.19398800625,218.38556382500002,63.0,75.0
910,217.86790150625,218.40866161875002,70.0,85.0
911,218.52007450625,218.90866091875,56.0,86.0
912,218.52007450625,219.00648686875002,65.0,87.0
913,218.52007450625,219.22523656250002,37.0,81.0
914,218.84616100625001,219.24018219375,44.0,69.0
915,219.17224750625002,219.30947557500002,56.0,88.0
916,219.17224750625002,219.47523621250002,61.0,88.0
917,219.82442050625002,220.22387646875,62.0,86.0
918,219.82442050625002,220.22931124375,58.0,86.0
919,220.15050700625,220.55268035625002,53.0,90.0
920,219.82442050625002,220.59887594375002,46.0,87.0
921,220.47659350625,220.6002346375,58.0,86.0
922,220.47659350625,220.67632148750002,62.0,87.0
923,220.80268000625,221.02278839375,58.0,86.0
924,220.47659350625,221.15594038125002,65.0,88.0
925,221.12876650625,221.5866463,58.0,77.0
926,221.12876650625,221.64235274375,63.0,82.0
927,221.78093950625,222.0893629875,65.0,86.0
928,222.10702600625,222.2170802,63.0,87.0
929,221.45485300625,222.26327578750002,46.0,82.0
930,221.12876650625,222.31626484375002,39.0,87.0
931,222.43311250625,222.6736013,58.0,79.0
932,222.43311250625,222.82441630625001,63.0,84.0
933,222.43311250625,222.90322054375,67.0,82.0
934,222.43311250625,223.179035375,39.0,92.0
935,222.75919900625001,223.1953397,46.0,82.0
936,223.08528550625002,223.44533935,58.0,89.0
937,223.41137200625002,223.55811093125,63.0,84.0
938,223.73745850625002,224.1437079375,60.0,83.0
939,223.73745850625002,224.16137095625,56.0,81.0
940,224.06354500625,224.40593583125002,51.0,84.0
941,223.73745850625002,224.4100119125,44.0,87.0
942,224.38963150625,224.50647916875002,56.0,84.0
943,224.38963150625,224.63419638125,60.0,87.0
944,224.38963150625,224.66137025625,63.0,86.0
945,225.04180450625,225.71028183125,56.0,82.0
946,225.04180450625,226.16408554375002,53.0,86.0
947,226.02006400625,226.189900725,56.0,80.0
948,225.69397750625,226.21163982500002,60.0,84.0
949,226.34615050625,227.6056596125,53.0,85.0
950,225.04180450625,227.61788785625,41.0,88.0
951,226.34615050625,227.61788785625,56.0,86.0
952,225.36789100625,227.62060524375002,48.0,76.0
953,226.34615050625,227.64506173125,60.0,80.0
954,226.34615050625,227.6817464625,65.0,85.0
955,227.6518552,227.7605507,37.0,87.0
956,227.67767038125,227.91136570625,56.0,71.0
957,227.78636588125002,227.98881125,61.0,77.0
958,227.87468097500002,228.1382675625,65.0,82.0
959,228.60973429375,228.92902732500002,61.0,79.0
960,228.84071223125,229.19533130000002,68.0,82.0
961,229.5132656375,230.31489495,73.0,34.0
962,228.14777841875002,230.35157968125,49.0,80.0
963,228.41136500625,230.36244923125,56.0,72.0
964,229.1165270625,230.36652531250002,61.0,81.0
965,231.74831685625,232.26054440000001,56.0,49.0
966,231.81625154375,232.52005490625,60.0,84.0
967,231.842066725,232.55673963750002,63.0,80.0
968,232.46842454375002,233.222499575,56.0,82.0
969,232.8393479375,233.66271635,63.0,86.0
970,233.50510787500002,233.85836825,56.0,53.0
971,232.15049020625,234.2197807875,51.0,71.0
972,233.831194375,234.27141115,60.0,80.0
973,231.86244713125,234.28092200625,44.0,87.0
974,233.8284769875,234.29858502500002,63.0,83.0
975,233.81217266250002,234.38146534375002,68.0,83.0
976,234.16679173125002,234.99695361250002,56.0,74.0
977,234.48880215,235.26325758750002,63.0,80.0
978,235.16950771875,235.809452475,56.0,87.0
979,236.17494109375002,236.31081046875002,56.0,72.0
980,235.48200728125002,236.4208646625,68.0,86.0
981,236.483364575,236.69396210625,56.0,87.0
982,234.8339103625,236.7170599,51.0,77.0
983,236.4915167375,236.77276634375002,63.0,86.0
984,234.483367375,236.80129891250002,44.0,88.0
985,237.00102689375,237.49423272500002,56.0,73.0
986,237.070320275,237.9344495,60.0,81.0
987,237.12195063750002,237.98743855625,63.0,75.0
988,237.1545592875,238.043145,68.0,83.0
989,237.94531905,238.5648834,56.0,87.0
990,238.36787280625,238.65319849375,63.0,78.0
991,239.18444775,239.82167511875002,68.0,62.0
992,239.31216496250002,239.852925075,80.0,72.0
993,237.515971825,239.91950106875,51.0,79.0
994,237.1762983875,239.94667494375,44.0,88.0
