,start,end,pitch,velocity
0,37.95710778749999,38.27454091875,69.0,83.0
1,38.351843287499996,38.481777056249996,69.0,82.0
2,38.549211037499994,38.662697493749995,69.0,82.0
3,38.7465787875,39.049209337499995,69.0,84.0
4,39.141314287499995,39.582102262499994,71.0,82.0
5,39.5360497875,39.860061843749996,72.0,82.0
6,39.930785287499994,40.045916475,72.0,75.0
7,40.1281530375,40.2399947625,72.0,81.0
8,40.3255207875,40.687361662499995,72.0,83.0
9,40.72025628749999,41.124860174999995,74.0,85.0
10,41.114991787499996,41.414332875,76.0,82.0
11,41.5097272875,41.726831812499995,76.0,84.0
12,41.7070950375,41.897883862499995,74.0,87.0
13,41.904462787499995,42.369921731249995,72.0,78.0
14,42.2991982875,42.677486474999995,69.0,80.0
15,42.693933787499994,44.141297287499995,71.0,83.0
16,44.2728757875,44.57057214375,74.0,92.0
17,44.667611287499994,44.77945301249999,74.0,86.0
18,44.86497903749999,44.968597106249995,74.0,87.0
19,45.0623467875,45.406095618749994,74.0,90.0
20,45.45708228749999,45.909383381249995,76.0,83.0
21,45.851817787499996,46.165961456249995,77.0,82.0
22,46.24655328749999,46.37319759374999,77.0,77.0
23,46.4439210375,46.56069695625,77.0,79.0
24,46.641288787499995,47.040958481249994,77.0,82.0
25,47.0360242875,47.42253613125,79.0,82.0
26,47.430759787499994,47.7399692625,81.0,82.0
27,47.8254952875,48.036020887499994,81.0,82.0
28,48.022863037499995,48.24983595,79.0,76.0
29,48.22023078749999,48.614966287499996,77.0,82.0
30,48.614966287499996,49.027793831249994,77.0,85.0
31,49.00970178749999,49.996540537499996,76.0,85.0
32,50.193908287499994,50.516275612499996,76.0,85.0
33,50.5886437875,51.121536712499996,74.0,85.0
34,51.1807470375,51.292588762499996,74.0,87.0
35,51.378114787499996,51.733376737499995,74.0,85.0
36,51.77285028749999,52.15278320624999,72.0,82.0
37,52.167585787499995,53.17087185,74.0,84.0
38,53.74652778749999,54.23830243124999,72.0,83.0
39,54.338631037499994,54.45376222499999,72.0,83.0
40,54.53599878749999,54.90770805,72.0,83.0
41,54.930734287499995,55.35343021874999,71.0,83.0
42,55.3254697875,56.387966174999995,69.0,82.0
43,56.50967628749999,56.82710941874999,76.0,84.0
44,56.904411787499996,57.38138384999999,74.0,83.0
45,57.4965150375,57.626448806249996,74.0,83.0
46,57.693882787499994,57.991579143749995,74.0,85.0
47,58.0886182875,58.391248837499994,76.0,84.0
48,58.48335378749999,59.930717287499995,71.0,82.0
49,60.06229578749999,60.70867516874999,71.0,80.0
50,60.65439903749999,60.884661412499995,64.0,81.0
51,60.8517667875,61.271173256249995,72.0,79.0
52,61.24650228749999,61.6280799375,71.0,81.0
53,61.641237787499996,63.14123268749999,69.0,82.0
54,64.7991217875,65.11655491875,69.0,83.0
55,65.1938572875,65.32379105624999,69.0,82.0
56,65.39122503749999,65.50471149375,69.0,82.0
57,65.58859278749999,65.8912233375,69.0,84.0
58,65.98332828749999,66.4241162625,71.0,82.0
59,66.3780637875,66.70207584375,72.0,82.0
60,66.77279928749999,66.88793047499999,72.0,75.0
61,66.97016703749999,67.0820087625,72.0,81.0
62,67.16753478749999,67.52937566249999,72.0,83.0
63,67.5622702875,67.96687417499999,74.0,85.0
64,67.9570057875,68.25634687499999,76.0,82.0
65,68.35174128749999,68.56884581249999,76.0,84.0
66,68.54910903749999,68.73989786249999,74.0,87.0
67,68.74647678749999,69.21193573125,72.0,78.0
68,69.1412122875,69.51950047499999,69.0,80.0
69,69.53594778749999,70.98331128749999,71.0,83.0
70,71.11488978749999,71.41258614374999,74.0,92.0
71,71.50962528749999,71.62146701249999,74.0,86.0
72,71.7069930375,71.81061110625,74.0,87.0
73,71.9043607875,72.24810961875,74.0,90.0
74,72.29909628749999,72.75139738124999,76.0,83.0
75,72.69383178749999,73.00797545625,77.0,82.0
76,73.0885672875,73.21521159375,77.0,77.0
77,73.2859350375,73.40271095624999,77.0,79.0
78,73.4833027875,73.88297248125,77.0,82.0
79,73.87803828749999,74.26455013124999,79.0,82.0
80,74.27277378749999,74.58198326249999,81.0,82.0
81,74.6675092875,74.8780348875,81.0,82.0
82,74.8648770375,75.09184995,79.0,76.0
83,75.06224478749999,75.45698028749999,77.0,82.0
84,75.45698028749999,75.86980783124999,77.0,85.0
85,75.8517157875,76.83855453749999,76.0,85.0
86,77.03592228749999,77.35828961249999,76.0,85.0
87,77.4306577875,77.9635507125,74.0,85.0
88,78.02276103749999,78.1346027625,74.0,87.0
89,78.22012878749999,78.57539073749999,74.0,85.0
90,78.6148642875,78.99479720625,72.0,82.0
91,79.0095997875,80.01288584999999,74.0,84.0
92,80.58854178749999,80.98327728749999,72.0,83.0
93,80.98327728749999,81.18064503749999,72.0,82.0
94,81.18064503749999,81.295776225,72.0,83.0
95,81.3780127875,81.74972204999999,72.0,83.0
96,81.7727482875,82.19544421875,71.0,83.0
97,82.16748378749999,83.229980175,69.0,82.0
98,83.35169028749999,83.66912341874999,76.0,84.0
99,83.74642578749999,84.22339785,74.0,83.0
100,84.3385290375,84.46846280624999,74.0,83.0
101,84.5358967875,84.83359314375,74.0,85.0
102,84.93063228749999,85.23326283749999,76.0,84.0
103,85.32536778749999,86.7727312875,71.0,82.0
104,86.9043097875,87.2990452875,71.0,80.0
105,87.2990452875,87.72667541249999,64.0,81.0
106,87.69378078749999,88.11318725624999,72.0,79.0
107,88.08851628749998,88.4700939375,71.0,81.0
108,88.4832517875,89.98324668749999,69.0,82.0
109,91.64113578749999,92.28751516874999,77.0,84.0
110,92.4306067875,93.10165713749998,77.0,83.0
111,93.22007778749999,94.27435051875,77.0,82.0
112,94.40428428749999,94.60165203749999,77.0,82.0
113,94.60165203749999,94.79901978749999,77.0,82.0
114,94.79901978749999,95.1049398,76.0,85.0
115,95.1937552875,95.40921508125,76.0,82.0
116,95.3911230375,95.55395143124998,74.0,85.0
117,95.58849078749999,95.90263445624998,72.0,83.0
118,95.98322628749999,96.28421210625,74.0,85.0
119,96.37796178749998,97.22499838124999,76.0,82.0
120,97.9569037875,98.59341478124999,77.0,84.0
121,98.74637478749999,99.43387245,77.0,82.0
122,99.5358457875,100.58847378749999,77.0,82.0
123,100.7200522875,100.87136756249998,77.0,81.0
124,100.9174200375,101.05393273124999,79.0,76.0
125,101.11478778749999,101.40097102499999,81.0,83.0
126,101.50952328749999,101.71182523124999,81.0,83.0
127,101.70689103749999,101.88452201249999,79.0,82.0
128,101.90425878749998,102.22333665,77.0,84.0
129,102.2989942875,102.68550613125,77.0,82.0
130,102.69372978749999,104.05063306874999,76.0,83.0
131,104.27267178749999,104.81049890624999,74.0,87.0
132,105.0621427875,105.74964044999999,74.0,92.0
133,105.85161378749999,106.96674157499999,74.0,88.0
134,107.03582028749999,107.13943835624998,72.0,85.0
135,107.23318803749999,107.39601643124999,74.0,92.0
136,107.43055578749998,107.71838375624999,76.0,83.0
137,107.8252912875,108.1410796875,77.0,83.0
138,108.22002678749999,108.50127583124998,76.0,84.0
139,108.61476228749999,108.93219541874998,77.0,79.0
140,109.0094977875,109.29239156249999,76.0,86.0
141,109.40423328749999,109.7002849125,77.0,84.0
142,109.79896878749999,110.07692836874999,76.0,87.0
143,110.19370428749998,110.50126903124999,77.0,82.0
144,110.5884397875,112.09172414999999,76.0,85.0
145,112.16738178749999,112.50948588749999,71.0,84.0
146,112.56211728749999,112.76112976875,72.0,81.0
147,112.75948503749999,112.92231343124999,76.0,81.0
148,112.95685278749998,113.34007516874999,72.0,82.0
149,113.3515882875,113.72987647499998,71.0,83.0
150,113.74632378749999,115.90421118749998,69.0,82.0
151,135.8515117875,136.16894491875,69.0,83.0
152,136.24624728749998,136.37618105624998,69.0,82.0
153,136.4436150375,136.55710149375,69.0,82.0
154,136.64098278749998,136.94361333749998,69.0,84.0
155,137.03571828749998,137.47650626249998,71.0,82.0
156,137.4304537875,137.75446584374998,72.0,82.0
157,137.8251892875,137.940320475,72.0,75.0
158,138.02255703749998,138.13439876249998,72.0,81.0
159,138.2199247875,138.58176566249998,72.0,83.0
160,138.6146602875,139.019264175,74.0,85.0
161,139.00939578749998,139.308736875,76.0,82.0
162,139.40413128749998,139.62123581249998,76.0,84.0
163,139.6014990375,139.7922878625,74.0,87.0
164,139.79886678749997,140.26432573124998,72.0,78.0
165,140.1936022875,140.57189047499998,69.0,80.0
166,140.5883377875,142.0357012875,71.0,83.0
167,142.16727978749998,142.46497614375,74.0,92.0
168,142.56201528749997,142.67385701249998,74.0,86.0
169,142.7593830375,142.86300110624998,74.0,87.0
170,142.9567507875,143.30049961875,74.0,90.0
171,143.3514862875,143.80378738124998,76.0,83.0
172,143.7462217875,144.06036545625,77.0,82.0
173,144.1409572875,144.26760159375,77.0,77.0
174,144.3383250375,144.45510095625,77.0,79.0
175,144.53569278749998,144.93536248125,77.0,82.0
176,144.93042828749998,145.31694013125,79.0,82.0
177,145.32516378749997,145.6343732625,81.0,82.0
178,145.7198992875,145.93042488749998,81.0,82.0
179,145.91726703749998,146.14423994999999,79.0,76.0
180,146.1146347875,146.5093702875,77.0,82.0
181,146.5093702875,146.92219783124997,77.0,85.0
182,146.9041057875,147.8909445375,76.0,85.0
183,148.08831228749997,148.4106796125,76.0,85.0
184,148.4830477875,149.0159407125,74.0,85.0
185,149.07515103749998,149.18699276249998,74.0,87.0
186,149.2725187875,149.6277807375,74.0,85.0
187,149.6672542875,150.04718720625,72.0,82.0
188,150.06198978749998,151.06527584999998,74.0,84.0
189,151.6409317875,152.13270643124997,72.0,83.0
190,152.23303503749997,152.34816622499997,72.0,83.0
191,152.4304027875,152.80211204999998,72.0,83.0
192,152.82513828749998,153.24783421874997,71.0,83.0
193,153.21987378749998,154.28237017499998,69.0,82.0
194,154.4040802875,154.72151341875,76.0,84.0
195,154.7988157875,155.27578784999997,74.0,83.0
196,155.3909190375,155.52085280625,74.0,83.0
197,155.58828678749998,155.88598314375,74.0,85.0
198,155.98302228749998,156.28565283749998,76.0,84.0
199,156.37775778749997,157.8251212875,71.0,82.0
200,157.95669978749999,158.60307916874999,71.0,80.0
201,158.5488030375,158.7790654125,64.0,81.0
202,158.74617078749998,159.16557725624997,72.0,79.0
203,159.14090628749997,159.52248393749997,71.0,81.0
204,159.5356417875,161.0356366875,69.0,82.0
205,162.6935257875,163.01095891875,69.0,83.0
206,163.0882612875,163.21819505624998,69.0,82.0
207,163.28562903749997,163.39911549374997,69.0,82.0
208,163.48299678749999,163.7856273375,69.0,84.0
209,163.87773228749998,164.3185202625,71.0,82.0
210,164.27246778749998,164.59647984375,72.0,82.0
211,164.66720328749997,164.78233447499997,72.0,75.0
212,164.86457103749999,164.9764127625,72.0,81.0
213,165.0619387875,165.42377966249998,72.0,83.0
214,165.4566742875,165.861278175,74.0,85.0
215,165.8514097875,166.15075087499997,76.0,82.0
216,166.24614528749998,166.46324981249998,76.0,84.0
217,166.4435130375,166.6343018625,74.0,87.0
218,166.64088078749998,167.10633973125,72.0,78.0
219,167.03561628749998,167.41390447499998,69.0,80.0
220,167.43035178749997,168.8777152875,71.0,83.0
221,169.00929378749998,169.30699014374997,74.0,92.0
222,169.40402928749998,169.51587101249999,74.0,86.0
223,169.6013970375,169.70501510625,74.0,87.0
224,169.79876478749998,170.14251361874997,74.0,90.0
225,170.19350028749997,170.64580138124998,76.0,83.0
226,170.5882357875,170.90237945624997,77.0,82.0
227,170.9829712875,171.10961559375,77.0,77.0
228,171.18033903749998,171.29711495624997,77.0,79.0
229,171.3777067875,171.77737648124997,77.0,82.0
230,171.77244228749998,172.15895413124997,79.0,82.0
231,172.16717778749998,172.47638726249997,81.0,82.0
232,172.56191328749998,172.7724388875,81.0,82.0
233,172.7592810375,172.98625395,79.0,76.0
234,172.95664878749997,173.3513842875,77.0,82.0
235,173.3513842875,173.76421183124998,77.0,85.0
236,173.7461197875,174.7329585375,76.0,85.0
237,174.93032628749998,175.2526936125,76.0,85.0
238,175.32506178749998,175.85795471249997,74.0,85.0
239,175.91716503749998,176.0290067625,74.0,87.0
240,176.1145327875,176.4697947375,74.0,85.0
241,176.5092682875,176.88920120625,72.0,82.0
242,176.9040037875,177.90728984999998,74.0,84.0
243,178.48294578749997,178.8776812875,72.0,83.0
244,178.8776812875,179.07504903749998,72.0,82.0
245,179.07504903749998,179.19018022499998,72.0,83.0
246,179.2724167875,179.64412604999998,72.0,83.0
247,179.6671522875,180.08984821874998,71.0,83.0
248,180.06188778749998,181.124384175,69.0,82.0
249,181.24609428749997,181.56352741874997,76.0,84.0
250,181.6408297875,182.11780184999998,74.0,83.0
251,182.23293303749998,182.36286680624997,74.0,83.0
252,182.4303007875,182.72799714374997,74.0,85.0
253,182.82503628749998,183.1276668375,76.0,84.0
254,183.21977178749998,184.66713528749997,71.0,82.0
255,184.7987137875,185.1934492875,71.0,80.0
256,185.1934492875,185.6210794125,64.0,81.0
257,185.58818478749998,186.00759125624998,72.0,79.0
258,185.98292028749998,186.36449793749998,71.0,81.0
259,186.37765578749998,187.8776506875,69.0,82.0
260,189.53553978749997,190.18191916874997,77.0,84.0
261,190.3250107875,190.9960611375,77.0,83.0
262,191.11448178749998,192.16875451874998,77.0,82.0
263,192.29868828749997,192.49605603749998,77.0,82.0
264,192.49605603749998,192.6934237875,77.0,82.0
265,192.6934237875,192.9993438,76.0,85.0
266,193.0881592875,193.30361908125,76.0,82.0
267,193.28552703749997,193.44835543124998,74.0,85.0
268,193.4828947875,193.79703845625,72.0,83.0
269,193.87763028749998,194.17861610625,74.0,85.0
270,194.27236578749998,195.11940238124998,76.0,82.0
271,195.8513077875,196.48781878124998,77.0,84.0
272,196.64077878749998,197.32827644999998,77.0,82.0
273,197.43024978749997,198.48287778749997,77.0,82.0
274,198.6144562875,198.7657715625,77.0,81.0
275,198.81182403749997,198.94833673124998,79.0,76.0
276,199.0091917875,199.29537502499997,81.0,83.0
277,199.40392728749998,199.60622923124998,81.0,83.0
278,199.6012950375,199.7789260125,79.0,82.0
279,199.79866278749998,200.11774064999997,77.0,84.0
280,200.19339828749997,200.57991013125,77.0,82.0
281,200.58813378749997,201.94503706874997,76.0,83.0
282,202.16707578749998,202.70490290624997,74.0,87.0
283,202.95654678749997,203.64404444999997,74.0,92.0
284,203.7460177875,204.86114557499997,74.0,88.0
285,204.93022428749998,205.03384235624998,72.0,85.0
286,205.1275920375,205.29042043124997,74.0,92.0
287,205.32495978749998,205.61278775625,76.0,83.0
288,205.71969528749997,206.03548368749998,77.0,83.0
289,206.11443078749997,206.39567983125,76.0,84.0
290,206.50916628749997,206.82659941875,77.0,79.0
291,206.9039017875,207.18679556249998,76.0,86.0
292,207.2986372875,207.59468891249998,77.0,84.0
293,207.69337278749998,207.97133236874998,76.0,87.0
294,208.08810828749998,208.39567303124997,77.0,82.0
295,208.48284378749997,209.98612814999998,76.0,85.0
296,210.06178578749999,210.4038898875,71.0,84.0
297,210.45652128749998,210.65553376875,72.0,81.0
298,210.65388903749997,210.81671743124997,76.0,81.0
299,210.85125678749998,211.23447916874997,72.0,82.0
300,211.24599228749997,211.62428047499998,71.0,83.0
301,211.64072778749997,213.7986151875,69.0,82.0
302,214.79861178749996,215.44499116874997,77.0,84.0
303,215.58808278749999,216.2591331375,77.0,83.0
304,216.37755378749998,217.43182651874997,77.0,82.0
305,217.56176028749996,217.75912803749998,77.0,82.0
306,217.75912803749998,217.9564957875,77.0,82.0
307,217.9564957875,218.26241579999999,76.0,85.0
308,218.35123128749999,218.56669108124999,76.0,82.0
309,218.54859903749997,218.71142743124997,74.0,85.0
310,218.74596678749998,219.06011045625,72.0,83.0
311,219.14070228749998,219.44168810624998,74.0,85.0
312,219.53543778749997,220.38247438124998,76.0,82.0
313,221.11437978749998,221.75089078124998,77.0,84.0
314,221.90385078749998,222.59134844999997,77.0,82.0
315,222.69332178749997,223.74594978749997,77.0,82.0
316,223.87752828749998,224.0288435625,77.0,81.0
317,224.07489603749997,224.21140873124997,79.0,76.0
318,224.27226378749998,224.55844702499996,81.0,83.0
319,224.66699928749998,224.86930123124998,81.0,83.0
320,224.8643670375,225.0419980125,79.0,82.0
321,225.06173478749997,225.38081264999997,77.0,84.0
322,225.45647028749997,225.84298213124998,77.0,82.0
323,225.85120578749996,227.20810906875,76.0,83.0
324,227.43014778749998,227.96797490624996,74.0,87.0
325,228.21961878749997,228.90711645,74.0,92.0
326,229.0090897875,230.124217575,74.0,88.0
327,230.19329628749998,230.29691435624997,72.0,85.0
328,230.3906640375,230.55349243124996,74.0,92.0
329,230.58803178749997,230.87585975624998,76.0,83.0
330,230.98276728749997,231.29855568749997,77.0,83.0
331,231.37750278749996,231.65875183125,76.0,84.0
332,231.7722382875,232.08967141875,77.0,79.0
333,232.16697378749998,232.44986756249997,76.0,86.0
334,232.56170928749998,232.85776091249997,77.0,84.0
335,232.95644478749998,233.23440436874998,76.0,87.0
336,233.35118028749997,233.65874503124996,77.0,82.0
337,233.74591578749997,235.24920014999998,76.0,85.0
338,235.32485778749998,235.66696188749998,71.0,84.0
339,235.71959328749998,235.91860576874998,72.0,81.0
340,235.9169610375,236.07978943124996,76.0,81.0
341,236.11432878749997,236.49755116874996,72.0,82.0
342,236.50906428749997,236.88735247499997,71.0,83.0
343,236.90379978749996,239.06168718749998,69.0,82.0
