,start,end,pitch,velocity
0,2.0312430937499997,2.5328861249999997,55.0,62.0
1,2.4259785937499996,2.87992441875,62.0,80.0
2,2.4259785937499996,2.8996611937499996,57.0,80.0
3,2.82071409375,3.2631467999999995,55.0,70.0
4,3.21544959375,3.6693954187499997,62.0,80.0
5,3.21544959375,3.6891321937499995,57.0,80.0
6,3.6101850937499997,4.2269593125,55.0,53.0
7,4.00492059375,4.472024268749999,62.0,74.0
8,4.00492059375,4.5526161,57.0,73.0
9,1.6365075937499998,4.6841946,50.0,81.0
10,4.39965609375,4.8914307374999995,55.0,72.0
11,5.18912709375,5.5805731312499995,55.0,56.0
12,5.583862593749999,5.996690137499999,60.0,68.0
13,5.97859809375,6.600306506249999,55.0,76.0
14,6.373333593749999,6.738463931249999,60.0,75.0
15,6.768069093749999,7.342080299999999,55.0,70.0
16,7.162804593749999,7.708855368749999,60.0,76.0
17,4.7943915937499995,7.7894472,48.0,83.0
18,7.557540093749999,7.932538818749999,55.0,81.0
19,7.957209787499999,8.812470037499999,69.0,80.0
20,8.3519452875,9.75819050625,57.0,65.0
21,8.746680787499999,10.416083006249998,62.0,76.0
22,7.957209787499999,10.98516001875,50.0,83.0
23,9.9308872875,11.018054643749998,57.0,60.0
24,10.325622787499999,11.138120025,65.0,75.0
25,10.720358287499998,11.226935512499999,62.0,73.0
26,9.141416287499998,11.878249087499999,69.0,74.0
27,11.1150937875,11.9769329625,67.0,74.0
28,11.509829287499999,12.713772562499999,55.0,69.0
29,11.904564787499998,13.149626343749999,60.0,78.0
30,12.2993002875,13.539427649999999,64.0,82.0
31,11.1150937875,14.118373049999999,48.0,80.0
32,13.483506787499998,14.180872837499999,60.0,82.0
33,13.088771287499998,14.194030687499998,55.0,66.0
34,13.878242287499999,14.32725391875,64.0,81.0
35,14.272977787499999,15.052580399999998,65.0,71.0
36,15.0624487875,16.340404968749997,62.0,80.0
37,14.667713287499998,16.47856239375,57.0,70.0
38,15.457184287499999,17.05421833125,69.0,78.0
39,16.246655287499998,17.070665643749997,65.0,74.0
40,14.272977787499999,17.27132285625,50.0,83.0
41,16.641390787499997,17.325598987499998,57.0,73.0
42,17.036126287499997,17.47198006875,62.0,81.0
43,17.4308617875,18.26474053125,64.0,80.0
44,17.8255972875,19.1545401375,55.0,68.0
45,18.2203327875,19.47197326875,60.0,82.0
46,18.615068287499998,19.8453272625,64.0,84.0
47,19.799274787499996,20.259799537499998,60.0,83.0
48,17.4308617875,20.439075243749997,48.0,83.0
49,19.404539287499997,20.4637462125,55.0,68.0
50,20.1940102875,20.624929875,64.0,76.0
51,20.5887457875,21.136441293749996,62.0,77.0
52,20.5887457875,21.401243025,65.0,76.0
53,20.9834812875,22.3913712375,57.0,73.0
54,21.378216787499998,22.736764799999996,62.0,83.0
55,21.772952287499997,23.04761900625,65.0,80.0
56,21.772952287499997,23.4834727875,69.0,77.0
57,23.3518942875,23.6018934375,65.0,71.0
58,20.5887457875,23.6051829,50.0,83.0
59,22.9571587875,23.61340655625,62.0,77.0
60,22.562423287499996,23.631498599999997,57.0,71.0
61,23.746629787499998,24.24991755,60.0,78.0
62,23.746629787499998,24.565705949999998,64.0,82.0
63,24.141365287499998,25.366690068749996,55.0,73.0
64,24.536100787499997,25.888069874999996,60.0,84.0
65,24.930836287499996,25.920964499999997,64.0,83.0
66,23.746629787499998,26.643001518749998,48.0,82.0
67,25.7203072875,26.680830337499998,55.0,74.0
68,26.1150427875,26.794316793749996,64.0,84.0
69,26.904513787499997,27.200565412499998,59.0,76.0
70,26.904513787499997,27.417669937499998,64.0,82.0
71,27.299249287499997,27.953852324999996,59.0,78.0
72,27.693984787499996,29.123256243749996,68.0,80.0
73,28.4834557875,29.147927212499997,71.0,79.0
74,27.693984787499996,29.397926362499998,64.0,83.0
75,28.878191287499998,29.69233325625,56.0,70.0
76,28.088720287499996,29.702201643749998,59.0,77.0
77,26.904513787499997,29.763056699999996,52.0,85.0
78,29.272926787499998,29.95220079375,68.0,76.0
79,29.272926787499998,29.95220079375,76.0,82.0
80,29.272926787499998,29.981805956249996,71.0,81.0
81,30.062397787499997,30.3387126375,76.0,80.0
82,30.062397787499997,30.361738874999997,68.0,67.0
83,29.667662287499997,30.402857156249997,64.0,78.0
84,30.062397787499997,30.767987493749995,40.0,83.0
85,30.457133287499996,30.77127695625,68.0,70.0
86,30.062397787499997,30.782790074999998,71.0,77.0
87,30.457133287499996,30.782790074999998,76.0,77.0
88,30.457133287499996,30.792658462499997,64.0,72.0
89,30.851868787499996,31.1577888,76.0,81.0
90,30.851868787499996,31.15943353125,40.0,84.0
91,30.851868787499996,31.170946649999998,68.0,69.0
92,30.851868787499996,31.175880843749997,64.0,78.0
93,30.851868787499996,31.189038693749996,71.0,77.0
94,31.2466042875,31.526208599999997,76.0,82.0
95,31.2466042875,31.541011181249996,64.0,82.0
96,31.2466042875,31.544300643749995,40.0,85.0
97,31.2466042875,31.552524299999998,68.0,78.0
98,31.2466042875,31.560747956249998,71.0,82.0
99,31.641339787499998,32.045943675,57.0,78.0
100,31.641339787499998,32.059101524999996,64.0,81.0
101,31.641339787499998,32.06732518125,60.0,81.0
102,32.233443037499995,32.328837449999995,57.0,70.0
103,32.0360752875,32.51140261875,52.0,71.0
104,32.43081078749999,32.86666456875,60.0,83.0
105,32.43081078749999,32.86666456875,64.0,83.0
106,32.43081078749999,32.873243493749996,57.0,82.0
107,32.825546287499996,33.03771661875,52.0,68.0
108,31.641339787499998,33.0558086625,45.0,83.0
109,33.022914037499994,33.200545012499994,60.0,81.0
110,33.022914037499994,33.361728674999995,57.0,77.0
111,33.022914037499994,33.406136418749995,64.0,82.0
112,33.615017287499995,33.88310848125,57.0,81.0
113,33.81238503749999,33.89626633125,60.0,75.0
114,33.4176495375,34.06731838125,52.0,71.0
115,34.0097527875,34.1939626875,60.0,83.0
116,34.0097527875,34.216988924999995,57.0,81.0
117,34.0097527875,34.24330462499999,64.0,83.0
118,34.207120537499996,34.521264206249995,52.0,75.0
119,33.2202817875,34.54429044374999,45.0,80.0
120,34.404488287499994,34.654487437499995,57.0,83.0
121,34.7992237875,35.26797219375,60.0,79.0
122,34.7992237875,35.27948531249999,57.0,77.0
123,35.19395928749999,35.728496943749995,52.0,68.0
124,35.588694787499996,35.79922038749999,64.0,84.0
125,35.588694787499996,35.92257523124999,57.0,83.0
126,34.7992237875,36.193955887499996,45.0,82.0
127,35.9834302875,36.20875846875,52.0,70.0
128,36.1807980375,36.40777095,57.0,81.0
129,36.1807980375,36.439020843749994,60.0,82.0
130,36.7729012875,37.037703018749994,57.0,82.0
131,36.970269037499996,37.07388710625,60.0,78.0
132,36.57553353749999,37.25809700625,52.0,70.0
133,37.167636787499994,37.3946097,57.0,83.0
134,37.167636787499994,37.60020110625,60.0,87.0
135,37.167636787499994,37.766318962499994,64.0,85.0
136,37.5623722875,37.876515956249996,57.0,84.0
137,37.759740037499995,37.91270004374999,60.0,76.0
138,37.3650045375,37.940660474999994,52.0,79.0
139,36.378165787499995,37.9998708,45.0,79.0
140,37.95710778749999,37.9998708,45.0,82.0
141,37.95710778749999,38.335395975,57.0,76.0
142,37.95710778749999,38.35019855625,60.0,76.0
143,38.351843287499996,38.88309148125,52.0,67.0
144,38.7465787875,39.12651170625,57.0,82.0
145,39.141314287499995,39.31730053125,52.0,74.0
146,38.7465787875,39.68407559999999,64.0,83.0
147,39.33868203749999,39.76302269999999,57.0,77.0
148,40.3255207875,40.4998623,57.0,81.0
149,39.930785287499994,40.50479649374999,48.0,75.0
150,39.5360497875,40.54920423749999,41.0,68.0
151,40.3255207875,40.76795349375,60.0,82.0
152,40.72025628749999,40.914334575,57.0,68.0
153,41.114991787499996,41.368280399999996,55.0,77.0
154,41.114991787499996,41.61663481874999,60.0,76.0
155,41.5097272875,41.993278274999994,55.0,76.0
156,41.114991787499996,42.09031741875,48.0,82.0
157,41.904462787499995,42.215316993749994,60.0,81.0
158,41.904462787499995,42.475184531249994,64.0,82.0
159,42.2991982875,42.60676303125,55.0,77.0
160,42.496566037499996,42.790972931249996,60.0,73.0
161,43.0886692875,43.43241811874999,59.0,81.0
162,42.8913015375,43.720246087499994,47.0,72.0
163,43.48340478749999,43.744917056249996,59.0,82.0
164,42.693933787499994,43.78439060624999,40.0,85.0
165,43.878140287499996,44.141297287499995,59.0,80.0
166,43.48340478749999,44.16432352499999,64.0,82.0
167,44.2728757875,44.73504526874999,62.0,81.0
168,44.667611287499994,45.16925431874999,57.0,76.0
169,45.0623467875,45.506424224999996,62.0,82.0
170,45.0623467875,45.55576616249999,65.0,82.0
171,44.2728757875,45.608397562499995,50.0,83.0
172,45.45708228749999,45.78109434375,57.0,81.0
173,45.851817787499996,46.486684049999994,60.0,77.0
174,46.641288787499995,46.746551587499994,57.0,73.0
175,46.24655328749999,46.901156324999995,48.0,81.0
176,45.851817787499996,47.00477439375,41.0,72.0
177,46.641288787499995,47.10181353749999,60.0,81.0
178,46.641288787499995,47.338654837499995,65.0,75.0
179,47.0360242875,47.50477269375,57.0,75.0
180,47.430759787499994,48.00148153124999,62.0,76.0
181,48.22023078749999,48.36661186874999,57.0,75.0
182,47.8254952875,48.514637681249994,45.0,70.0
183,47.430759787499994,48.53108499374999,38.0,83.0
184,48.22023078749999,48.672531881249995,62.0,79.0
185,48.614966287499996,48.7629921,57.0,73.0
186,48.22023078749999,48.99325447499999,65.0,80.0
187,49.00970178749999,49.239964162499994,59.0,76.0
188,49.00970178749999,49.993251074999996,64.0,81.0
189,49.404437287499995,50.044237743749996,47.0,70.0
190,49.60180503749999,50.09029021874999,52.0,82.0
191,49.7991727875,50.11989538125,56.0,82.0
192,49.00970178749999,50.12154011249999,40.0,84.0
193,49.996540537499996,50.26463173124999,59.0,81.0
194,50.193908287499994,50.443907437499995,64.0,83.0
195,50.5886437875,50.799169387499994,57.0,72.0
196,50.5886437875,51.096865743749994,62.0,75.0
197,50.98337928749999,51.45212769374999,57.0,74.0
198,51.378114787499996,51.85179738749999,62.0,81.0
199,51.378114787499996,51.8781130875,65.0,77.0
200,50.5886437875,51.996533737499995,50.0,82.0
201,51.77285028749999,52.277782781249996,57.0,73.0
202,52.167585787499995,52.725149681249995,62.0,75.0
203,52.5623212875,52.98008302499999,57.0,75.0
204,52.957056787499994,53.200477012499995,65.0,80.0
205,53.15442453749999,53.38962110625,64.0,78.0
206,52.167585787499995,53.420871,50.0,72.0
207,53.3517922875,53.65606756875,62.0,75.0
208,53.74652778749999,54.239947162499995,57.0,71.0
209,53.74652778749999,54.271197056249996,60.0,72.0
210,54.141263287499996,54.739945462499996,52.0,75.0
211,54.53599878749999,55.136325693749995,60.0,82.0
212,53.74652778749999,55.142904618749995,45.0,82.0
213,54.53599878749999,55.19224655625,64.0,83.0
214,54.930734287499995,55.320535593749995,52.0,73.0
215,55.3254697875,55.73994206249999,57.0,75.0
216,55.3254697875,55.744876256249995,60.0,77.0
217,56.1149407875,56.302440149999995,57.0,76.0
218,55.720205287499994,56.34520316249999,52.0,75.0
219,56.1149407875,56.3682294,60.0,83.0
220,55.3254697875,56.4438870375,45.0,82.0
221,56.312308537499995,56.514610481249996,59.0,76.0
222,56.50967628749999,57.00145093124999,57.0,83.0
223,56.904411787499996,57.437304712499994,62.0,76.0
224,57.693882787499994,57.855066449999995,57.0,77.0
225,57.29914728749999,58.02447376874999,45.0,65.0
226,56.904411787499996,58.06230258749999,38.0,83.0
227,58.0886182875,58.282696574999996,57.0,82.0
228,57.693882787499994,58.476774862499994,65.0,79.0
229,58.48335378749999,59.07052284374999,62.0,76.0
230,58.48335378749999,59.1215095125,59.0,75.0
231,58.878089287499996,59.34354823125,53.0,72.0
232,58.48335378749999,59.366574468749995,47.0,82.0
233,59.27282478749999,59.45374522499999,59.0,81.0
234,59.27282478749999,59.67578394374999,65.0,78.0
235,60.06229578749999,60.63795172499999,59.0,77.0
236,60.06229578749999,60.64782011249999,64.0,81.0
237,60.8517667875,61.03104249374999,59.0,82.0
238,60.457031287499994,61.055713462499995,47.0,75.0
239,60.06229578749999,61.09847647499999,40.0,79.0
240,60.8517667875,61.32380465625,68.0,77.0
241,60.8517667875,61.32873884999999,64.0,83.0
242,61.24650228749999,61.68400079999999,59.0,79.0
243,62.2333410375,62.406037818749994,57.0,75.0
244,62.430708787499995,62.62478707499999,60.0,82.0
245,62.62807653749999,62.85998364374999,57.0,78.0
246,62.82544428749999,63.004719993749994,60.0,73.0
247,63.022812037499996,63.22182451874999,57.0,64.0
248,63.220179787499994,63.51294194999999,64.0,80.0
249,63.41754753749999,63.628073137499996,57.0,68.0
250,63.6149152875,63.774454218749995,60.0,68.0
251,63.812283037499995,63.88300648124999,57.0,58.0
252,62.03597328749999,64.1083346625,52.0,75.0
253,61.641237787499996,64.3320181125,45.0,82.0
254,64.0096507875,64.43399145,57.0,81.0
255,64.0096507875,64.5030701625,60.0,86.0
256,64.0096507875,64.50635962499999,64.0,85.0
257,64.40438628749999,64.74484565624999,52.0,81.0
258,64.7991217875,65.17740997499999,57.0,76.0
259,64.7991217875,65.19221255625,60.0,76.0
260,65.1938572875,65.72510548125,52.0,67.0
261,65.58859278749999,65.96852570624999,57.0,82.0
262,65.98332828749999,66.15931453124999,52.0,74.0
263,64.7991217875,66.17082764999999,45.0,82.0
264,65.58859278749999,66.52608959999999,64.0,83.0
265,66.1806960375,66.6050367,57.0,77.0
266,67.16753478749999,67.3418763,57.0,81.0
267,66.77279928749999,67.34681049375,48.0,75.0
268,66.3780637875,67.3912182375,41.0,68.0
269,67.16753478749999,67.60996749374999,60.0,82.0
270,67.5622702875,67.75634857499999,57.0,68.0
271,67.9570057875,68.2102944,55.0,77.0
272,67.9570057875,68.45864881874999,60.0,76.0
273,68.35174128749999,68.83529227499999,55.0,76.0
274,67.9570057875,68.93233141875,48.0,82.0
275,68.74647678749999,69.05733099375,60.0,81.0
276,68.74647678749999,69.31719853125,64.0,82.0
277,69.1412122875,69.44877703124999,55.0,77.0
278,69.3385800375,69.63298693124999,60.0,73.0
279,69.93068328749999,70.27443211875,59.0,81.0
280,69.73331553749999,70.5622600875,47.0,72.0
281,70.3254187875,70.58693105625,59.0,82.0
282,69.53594778749999,70.62640460624999,40.0,85.0
283,70.7201542875,70.98331128749999,59.0,80.0
284,70.3254187875,71.00633752499999,64.0,82.0
285,71.11488978749999,71.57705926874999,62.0,81.0
286,71.50962528749999,72.01126831875,57.0,76.0
287,71.9043607875,72.348438225,62.0,82.0
288,71.9043607875,72.3977801625,65.0,82.0
289,71.11488978749999,72.4504115625,50.0,83.0
290,72.29909628749999,72.62310834374999,57.0,81.0
291,72.69383178749999,73.32869805,60.0,77.0
292,73.4833027875,73.5885655875,57.0,73.0
293,73.0885672875,73.743170325,48.0,81.0
294,72.69383178749999,73.84678839374999,41.0,72.0
295,73.4833027875,73.9438275375,60.0,81.0
296,73.4833027875,74.1806688375,65.0,75.0
297,73.87803828749999,74.34678669374999,57.0,75.0
298,74.27277378749999,74.84349553125,62.0,76.0
299,75.06224478749999,75.20862586874999,57.0,75.0
300,74.6675092875,75.35665168124999,45.0,70.0
301,74.27277378749999,75.37309899374999,38.0,83.0
302,75.06224478749999,75.51454588124999,62.0,79.0
303,75.45698028749999,75.6050061,57.0,73.0
304,75.06224478749999,75.83526847499999,65.0,80.0
305,75.8517157875,76.0819781625,59.0,76.0
306,75.8517157875,76.835265075,64.0,81.0
307,76.2464512875,76.88625174375,47.0,70.0
308,76.44381903749999,76.93230421874999,52.0,82.0
309,76.64118678749999,76.96190938125,56.0,82.0
310,75.8517157875,76.96355411249999,40.0,84.0
311,76.83855453749999,77.10664573125,59.0,81.0
312,77.03592228749999,77.2859214375,64.0,83.0
313,77.4306577875,77.64118338749999,57.0,72.0
314,77.4306577875,77.93887974375,62.0,75.0
315,77.82539328749999,78.29414169374999,57.0,74.0
316,78.22012878749999,78.69381138749999,62.0,81.0
317,78.22012878749999,78.72012708749999,65.0,77.0
318,77.4306577875,78.8385477375,50.0,82.0
319,78.6148642875,79.11979678124999,57.0,73.0
320,79.0095997875,79.56716368125,62.0,75.0
321,79.40433528749999,79.82209702499999,57.0,75.0
322,79.79907078749999,80.0424910125,65.0,80.0
323,79.9964385375,80.23163510625,64.0,78.0
324,79.0095997875,80.262885,50.0,72.0
325,80.1938062875,80.49808156875,62.0,75.0
326,80.58854178749999,81.0819611625,57.0,71.0
327,80.58854178749999,81.11321105625,60.0,72.0
328,80.98327728749999,81.5819594625,52.0,75.0
329,81.3780127875,81.97833969374999,60.0,82.0
330,80.58854178749999,81.98491861874999,45.0,82.0
331,81.3780127875,82.03426055624999,64.0,83.0
332,81.7727482875,82.16254959374999,52.0,73.0
333,82.16748378749999,82.5819560625,57.0,75.0
334,82.16748378749999,82.58689025624999,60.0,77.0
335,82.9569547875,83.14445414999999,57.0,76.0
336,82.56221928749999,83.18721716249999,52.0,75.0
337,82.9569547875,83.2102434,60.0,83.0
338,82.16748378749999,83.2859010375,45.0,82.0
339,83.1543225375,83.35662448125,59.0,76.0
340,83.35169028749999,83.84346493125,57.0,83.0
341,83.74642578749999,84.27931871249999,62.0,76.0
342,84.5358967875,84.69708044999999,57.0,77.0
343,84.1411612875,84.86648776874999,45.0,65.0
344,83.74642578749999,84.90431658749999,38.0,83.0
345,84.93063228749999,85.124710575,57.0,82.0
346,84.5358967875,85.31878886249999,65.0,79.0
347,85.32536778749999,85.91253684374999,62.0,76.0
348,85.32536778749999,85.96352351249999,59.0,75.0
349,85.7201032875,86.18556223124999,53.0,72.0
350,85.32536778749999,86.20858846875,47.0,82.0
351,86.11483878749999,86.295759225,59.0,81.0
352,86.11483878749999,86.51779794375,65.0,78.0
353,86.9043097875,87.47996572499999,59.0,77.0
354,86.9043097875,87.48983411249999,64.0,81.0
355,87.69378078749999,87.87305649374998,59.0,82.0
356,87.2990452875,87.89772746249999,47.0,75.0
357,86.9043097875,87.94049047499999,40.0,79.0
358,87.69378078749999,88.16581865625,68.0,77.0
359,87.69378078749999,88.17075284999999,64.0,83.0
360,88.08851628749998,88.52601479999998,59.0,79.0
361,89.07535503749999,89.24805181874999,57.0,75.0
362,89.27272278749999,89.46680107499999,60.0,82.0
363,89.47009053749998,89.70199764374999,57.0,78.0
364,89.6674582875,89.84673399375,60.0,73.0
365,89.8648260375,90.06383851874999,57.0,64.0
366,90.0621937875,90.35495594999999,64.0,80.0
367,90.25956153749999,90.47008713749999,57.0,68.0
368,90.45692928749999,90.61646821874999,60.0,68.0
369,90.65429703749999,90.72502048124998,57.0,58.0
370,88.87798728749999,90.95034866249999,52.0,75.0
371,88.4832517875,91.17403211249999,45.0,82.0
372,90.85166478749998,91.27600544999999,57.0,81.0
373,90.85166478749998,91.34508416249999,60.0,86.0
374,90.85166478749998,91.348373625,64.0,85.0
375,91.2464002875,91.58685965624998,52.0,81.0
376,91.64113578749999,92.07698956875,65.0,82.0
377,92.03587128749999,92.3056072125,57.0,82.0
378,92.23323903749998,92.33356764374999,62.0,81.0
379,92.4306067875,92.72830314375,65.0,88.0
380,92.6279745375,92.83192121249999,57.0,88.0
381,92.82534228749999,93.0259995,62.0,75.0
382,91.83850353749999,93.07534143749999,45.0,69.0
383,91.64113578749999,93.1148149875,38.0,84.0
384,93.02271003749999,93.24474875624999,57.0,79.0
385,93.22007778749999,93.68389199999999,65.0,81.0
386,93.61481328749998,93.8944176,57.0,83.0
387,93.8121810375,93.94869373124999,62.0,81.0
388,93.41744553749999,94.17566664374999,45.0,70.0
389,94.0095487875,94.23981116249999,65.0,92.0
390,93.22007778749999,94.32862664999999,38.0,82.0
391,94.20691653749999,94.42402106249999,62.0,81.0
392,94.40428428749999,94.57204687499998,57.0,82.0
393,94.79901978749999,94.91579570625,55.0,75.0
394,94.79901978749999,95.0424400125,60.0,76.0
395,94.99638753749998,95.17895270624999,55.0,78.0
396,95.1937552875,95.42895185625,60.0,72.0
397,95.3911230375,95.58026713125,55.0,73.0
398,95.58849078749999,95.86645036875,64.0,82.0
399,95.78585853749999,96.02598929999999,55.0,81.0
400,94.79901978749999,96.24473855624998,48.0,85.0
401,95.98322628749999,96.24473855624998,60.0,76.0
402,96.18059403749999,96.42894845624998,55.0,81.0
403,96.37796178749998,96.5819084625,60.0,82.0
404,96.5753295375,96.79078933125,55.0,82.0
405,96.7726972875,97.00295966249999,60.0,76.0
406,96.97006503749999,97.15920913125,55.0,76.0
407,96.37796178749998,97.47170806874999,48.0,87.0
408,97.16743278749999,97.47993172499999,64.0,86.0
409,97.36480053749999,97.6147996875,55.0,81.0
410,97.56216828749999,97.83354894374999,60.0,81.0
411,97.75953603749998,97.95361432499999,55.0,74.0
412,97.9569037875,98.19538981874999,62.0,78.0
413,98.35163928749999,98.60492789999999,57.0,85.0
414,98.54900703749999,98.7365064,62.0,81.0
415,98.74637478749999,98.95690038749999,65.0,82.0
416,98.94374253749999,99.16413652499999,62.0,81.0
417,98.1542715375,99.40591201874999,45.0,71.0
418,97.9569037875,99.414135675,38.0,82.0
419,99.14111028749998,99.414135675,57.0,82.0
420,99.3384780375,99.52762213124998,62.0,78.0
421,99.5358457875,99.85985784374999,65.0,83.0
422,99.73321353749999,99.95854171874998,57.0,81.0
423,99.93058128749999,100.16577785624999,62.0,83.0
424,100.12794903749999,100.31051420624999,57.0,86.0
425,99.73321353749999,100.5621580875,45.0,71.0
426,99.5358457875,100.60821056249999,38.0,85.0
427,100.32531678749999,100.60985529374999,65.0,83.0
428,100.52268453749998,100.75623637499999,57.0,78.0
429,100.7200522875,100.94044627499999,62.0,81.0
430,100.9174200375,101.0884720875,57.0,81.0
431,101.11478778749999,101.36972113124999,53.0,80.0
432,101.11478778749999,101.53912844999999,60.0,78.0
433,101.50952328749999,101.77761448124998,53.0,83.0
434,101.70689103749999,101.83353534374999,57.0,87.0
435,101.31215553749999,101.99307427499998,48.0,78.0
436,101.90425878749998,102.24636288749998,60.0,87.0
437,101.11478778749999,102.25623127499999,41.0,83.0
438,102.1016265375,102.28090224374999,48.0,82.0
439,102.2989942875,102.57530913749999,53.0,86.0
440,102.69372978749999,102.75787430624999,41.0,78.0
441,102.49636203749999,102.76445323124999,60.0,73.0
442,102.69372978749999,103.06050485624999,59.0,81.0
443,103.08846528749999,103.31379346874999,52.0,87.0
444,102.89109753749999,103.45195089375,47.0,78.0
445,103.28583303749998,103.53418745625,59.0,83.0
446,103.4832007875,103.72004208749999,56.0,95.0
447,103.6805685375,103.89767306249999,52.0,90.0
448,102.69372978749999,103.98484381875,40.0,81.0
449,103.87793628749999,104.05556726249999,47.0,88.0
450,104.07530403749999,104.23977716249999,52.0,86.0
451,104.27267178749999,104.68549933124999,62.0,80.0
452,104.66740728749998,104.94372213749999,57.0,83.0
453,104.8647750375,105.0621427875,62.0,82.0
454,105.0621427875,105.25457634374999,65.0,88.0
455,105.25951053749999,105.4733256,62.0,75.0
456,104.47003953749999,105.66575915624999,45.0,82.0
457,104.27267178749999,105.68714066249998,38.0,85.0
458,105.45687828749999,105.74964044999999,57.0,82.0
459,105.65424603749999,106.25786240624998,62.0,81.0
460,106.2463492875,106.532532525,57.0,83.0
461,106.4437170375,106.65917683125,62.0,81.0
462,106.64108478749999,106.861478775,65.0,85.0
463,106.04898153749998,106.93878114374999,45.0,69.0
464,105.85161378749999,107.00292566249999,38.0,87.0
465,106.83845253749999,107.04897813749999,62.0,81.0
466,107.03582028749999,107.28088524374999,57.0,81.0
467,107.23318803749999,107.42726632499999,62.0,78.0
468,107.43055578749998,107.71344956249999,64.0,83.0
469,107.8252912875,108.09667194375,59.0,86.0
470,108.02265903749999,108.23976356249999,64.0,81.0
471,108.22002678749999,108.50621002499999,68.0,90.0
472,108.41739453749999,108.55884142499998,64.0,82.0
473,107.6279235375,108.88449821249999,47.0,82.0
474,107.43055578749998,108.90587971874999,40.0,83.0
475,108.81213003749998,108.91739283749999,64.0,79.0
476,108.61476228749999,108.93712961249999,59.0,77.0
477,109.0094977875,109.4469963,59.0,81.0
478,109.0094977875,109.6048905,64.0,83.0
479,109.60160103749999,109.75785050625,59.0,81.0
480,109.79896878749999,110.09502041249999,59.0,82.0
481,109.79896878749999,110.24962514999999,68.0,77.0
482,109.40423328749999,110.37955891874999,47.0,82.0
483,109.0094977875,110.42232193124998,40.0,87.0
484,110.19370428749998,110.47495333124999,59.0,87.0
485,110.5884397875,110.86146517499999,59.0,83.0
486,110.5884397875,110.87626775624999,64.0,83.0
487,110.5884397875,111.17889830624999,40.0,86.0
488,110.98317528749999,111.19699035,59.0,83.0
489,110.98317528749999,111.20027981249999,64.0,84.0
490,111.37791078749999,111.59994950624998,59.0,82.0
491,111.37791078749999,111.62626520624998,64.0,85.0
492,111.37791078749999,111.69863338124999,68.0,79.0
493,111.37791078749999,111.98810608125,47.0,82.0
494,111.37791078749999,112.03580328749999,40.0,85.0
495,111.7726462875,112.08678995624999,59.0,85.0
496,112.16738178749999,112.56211728749999,59.0,81.0
497,112.16738178749999,112.67066954999999,64.0,84.0
498,112.56211728749999,112.94040547499999,47.0,75.0
499,112.16738178749999,112.97823429374999,68.0,74.0
500,112.16738178749999,113.00126053124998,40.0,87.0
501,112.75948503749999,113.00126053124998,59.0,83.0
502,112.95685278749998,113.14928634374999,64.0,83.0
503,113.1542205375,113.40915388124999,59.0,82.0
504,113.3515882875,113.45191689375,64.0,77.0
505,113.74632378749999,114.26276939999998,57.0,79.0
506,113.74632378749999,114.34007176875,60.0,78.0
507,114.5357947875,114.7890834,57.0,75.0
508,114.14105928749998,114.79237286249999,52.0,74.0
509,114.93053028749999,115.17066104999999,52.0,76.0
510,114.5357947875,115.17888470624999,64.0,81.0
511,113.74632378749999,115.20355567499999,45.0,82.0
512,115.12789803749999,115.46013374999998,57.0,83.0
513,115.72000128749998,115.99796086874998,57.0,81.0
514,115.9173690375,116.05881592499999,60.0,83.0
515,115.52263353749998,116.31210453749999,52.0,70.0
516,116.1147367875,116.39927529375,64.0,87.0
517,116.31210453749999,116.56539314999999,57.0,82.0
518,116.50947228749999,116.73480046875,60.0,83.0
519,115.32526578749999,116.74795831875,45.0,81.0
520,116.90420778749998,117.1476280125,57.0,80.0
521,116.90420778749998,117.36802199999998,62.0,81.0
522,117.2989432875,117.59828437499999,57.0,81.0
523,117.69367878749999,117.96670417499999,65.0,83.0
524,117.89104653749999,118.13117729999999,57.0,77.0
525,116.90420778749998,118.34992655624998,50.0,83.0
526,118.08841428749999,118.37459752499998,62.0,77.0
527,118.28578203749998,118.52097860624998,57.0,79.0
528,118.48314978749998,118.75617517499998,65.0,82.0
529,118.6805175375,118.90091152499998,57.0,80.0
530,118.87788528749999,119.12788443749999,62.0,76.0
531,119.07525303749999,119.19038422499999,57.0,82.0
532,119.27262078749999,119.40419928749999,57.0,83.0
533,119.27262078749999,119.45189649374998,62.0,85.0
534,119.27262078749999,119.59498811249999,65.0,82.0
535,118.48314978749998,119.637751125,50.0,83.0
536,119.46998853749999,119.64761951249999,57.0,77.0
537,119.66735628749998,119.93873694374999,62.0,75.0
538,119.86472403749998,120.01603931249998,57.0,75.0
539,120.0620917875,120.28741996874999,60.0,79.0
540,120.25945953749999,120.47491933124999,55.0,80.0
541,120.45682728749999,120.66570815624999,60.0,73.0
542,120.65419503749999,120.74301052499999,55.0,72.0
543,120.85156278749999,120.97491763125,55.0,86.0
544,120.85156278749999,121.16735118749999,64.0,82.0
545,121.04893053749998,121.22656151249998,55.0,80.0
546,121.24629828749998,121.44695549999999,60.0,69.0
547,120.0620917875,121.51438948124999,48.0,83.0
548,121.4436660375,121.68708626249999,55.0,76.0
549,121.64103378749999,121.93873014374999,64.0,82.0
550,121.83840153749999,122.06372971874998,55.0,80.0
551,122.03576928749999,122.25287381249998,60.0,79.0
552,121.64103378749999,122.31537359999999,48.0,87.0
553,122.23313703749999,122.47820199374999,55.0,79.0
554,122.43050478749998,122.60155683749998,60.0,82.0
555,122.43050478749998,122.67721447499999,48.0,83.0
556,122.43050478749998,122.70846436874999,64.0,86.0
557,122.62787253749998,122.82195082499999,55.0,82.0
558,122.8252402875,123.03576588749999,60.0,82.0
559,123.02260803749999,123.14267341875,55.0,81.0
560,123.21997578749999,123.34662009374999,57.0,81.0
561,123.21997578749999,123.43214611874998,62.0,78.0
562,123.41734353749999,123.60155343749999,57.0,75.0
563,123.61471128749999,123.84497366249998,62.0,78.0
564,123.21997578749999,123.85155258749998,38.0,84.0
565,123.81207903749998,124.03247302499999,57.0,81.0
566,124.00944678749998,124.16898571875,62.0,81.0
567,124.00944678749998,124.27095905624999,65.0,81.0
568,124.2068145375,124.38937970624998,57.0,76.0
569,124.00944678749998,124.59497111249999,38.0,87.0
570,124.40418228749999,124.60319476874999,62.0,77.0
571,124.60155003749999,124.83181241249999,57.0,77.0
572,124.79891778749999,124.95845671874999,62.0,78.0
573,124.79891778749999,125.07358790624998,65.0,81.0
574,124.99628553749999,125.20187694375,57.0,74.0
575,125.19365328749998,125.36635006875,62.0,77.0
576,124.79891778749999,125.40253415624998,38.0,84.0
577,125.39102103749998,125.54233631249998,57.0,82.0
578,125.5883887875,125.72819094375,62.0,82.0
579,125.5883887875,125.78411180624998,38.0,87.0
580,125.5883887875,125.82687481874999,65.0,81.0
581,125.78575653749999,126.00286106249999,57.0,84.0
582,125.98312428749999,126.14595268125,62.0,75.0
583,125.98312428749999,126.2725969875,65.0,79.0
584,126.18049203749999,126.28246537499999,57.0,74.0
585,126.37785978749999,126.61305635624998,60.0,80.0
586,126.57522753749998,126.76437163124999,55.0,81.0
587,126.77259528749998,126.93377894999999,60.0,75.0
588,126.37785978749999,126.95844991874999,48.0,84.0
589,126.9699630375,127.22489638124999,55.0,82.0
590,127.16733078749999,127.39265896874998,60.0,84.0
591,127.16733078749999,127.42555359374998,64.0,82.0
592,127.16733078749999,127.44529036875,48.0,82.0
593,127.36469853749999,127.58673725624999,55.0,78.0
594,127.56206628749999,127.79232866249998,60.0,81.0
595,127.75943403749999,127.95351232499999,55.0,80.0
596,127.95680178749998,128.1673273875,60.0,84.0
597,127.95680178749998,128.20186674374997,64.0,85.0
598,128.1541695375,128.3844319125,55.0,80.0
599,128.35153728749998,128.519299875,60.0,81.0
600,127.95680178749998,128.5620628875,48.0,83.0
601,128.5489050375,128.71502289375,55.0,82.0
602,128.74627278749998,128.90581171875,60.0,86.0
603,128.74627278749998,128.953508925,48.0,88.0
604,128.74627278749998,129.00942978749998,64.0,85.0
605,128.9436405375,129.17390291249998,55.0,83.0
606,129.1410082875,129.3581128125,60.0,82.0
607,129.33837603749998,129.4699545375,55.0,82.0
608,129.5357437875,129.78409820624998,62.0,77.0
609,129.73311153749998,129.97324229999998,57.0,70.0
610,129.9304792875,130.1673205875,62.0,76.0
611,129.5357437875,130.21337306249998,38.0,85.0
612,130.12784703749998,130.37620145625,57.0,81.0
613,130.3252147875,130.6048191,65.0,83.0
614,130.5225825375,130.75942383749998,57.0,81.0
615,130.71995028749998,130.93869954374998,62.0,81.0
616,130.3252147875,130.95843631875,38.0,86.0
617,130.9173180375,131.1574488,57.0,81.0
618,131.11468578749998,131.28738256875,62.0,79.0
619,131.11468578749998,131.30711934374997,65.0,81.0
620,131.3120535375,131.51435548125,57.0,81.0
621,131.11468578749998,131.65251290625,38.0,83.0
622,131.50942128749998,131.729815275,62.0,76.0
623,131.7067890375,131.86468323749997,57.0,81.0
624,131.9041567875,132.05053786874998,62.0,82.0
625,131.9041567875,132.16731378749998,65.0,81.0
626,131.9041567875,132.20185314375,38.0,84.0
627,132.10152453749998,132.30711594374998,57.0,81.0
628,132.2988922875,132.492970575,62.0,77.0
629,132.49626003749998,132.59987810624997,57.0,76.0
630,132.6936277875,133.01106091875,59.0,82.0
631,132.6936277875,133.09494221249997,64.0,79.0
632,133.48309878749998,133.683756,59.0,81.0
633,133.48309878749998,133.86467643749998,64.0,81.0
634,133.48309878749998,133.8712553625,68.0,76.0
635,133.0883632875,133.89592633125,47.0,76.0
636,133.87783428749998,134.01434698125,59.0,82.0
637,132.6936277875,134.03737321875,40.0,84.0
638,134.27256978749998,134.6804631375,64.0,79.0
639,134.27256978749998,134.80710744375,71.0,81.0
640,134.86467303749998,134.99460680624998,64.0,81.0
641,134.6673052875,135.150856275,47.0,71.0
642,135.4567762875,135.795590925,47.0,72.0
643,134.27256978749998,135.80216984999998,40.0,84.0
644,135.0620407875,135.80216984999998,64.0,83.0
645,135.0620407875,135.80216984999998,68.0,82.0
646,135.0620407875,135.81861716249998,71.0,82.0
647,135.8515117875,136.229799975,57.0,76.0
648,135.8515117875,136.24460255625,60.0,76.0
649,136.24624728749998,136.77749548124999,52.0,67.0
650,136.64098278749998,137.02091570624998,57.0,82.0
651,137.03571828749998,137.21170453124998,52.0,74.0
652,135.8515117875,137.22321764999998,45.0,82.0
653,136.64098278749998,137.57847959999998,64.0,83.0
654,137.2330860375,137.65742669999997,57.0,77.0
655,138.2199247875,138.3942663,57.0,81.0
656,137.8251892875,138.39920049375,48.0,75.0
657,137.4304537875,138.44360823749997,41.0,68.0
658,138.2199247875,138.66235749375,60.0,82.0
659,138.6146602875,138.80873857499998,57.0,68.0
660,139.00939578749998,139.26268439999998,55.0,77.0
661,139.00939578749998,139.51103881875,60.0,76.0
662,139.40413128749998,139.88768227499997,55.0,76.0
663,139.00939578749998,139.98472141874998,48.0,82.0
664,139.79886678749997,140.10972099375,60.0,81.0
665,139.79886678749997,140.36958853124997,64.0,82.0
666,140.1936022875,140.50116703125,55.0,77.0
667,140.39097003749998,140.68537693124998,60.0,73.0
668,140.9830732875,141.32682211875,59.0,81.0
669,140.78570553749998,141.6146500875,47.0,72.0
670,141.3778087875,141.63932105625,59.0,82.0
671,140.5883377875,141.67879460625,40.0,85.0
672,141.77254428749998,142.0357012875,59.0,80.0
673,141.3778087875,142.058727525,64.0,82.0
674,142.16727978749998,142.62944926875,62.0,81.0
675,142.56201528749997,143.06365831875,57.0,76.0
676,142.9567507875,143.400828225,62.0,82.0
677,142.9567507875,143.45017016249997,65.0,82.0
678,142.16727978749998,143.5028015625,50.0,83.0
679,143.3514862875,143.67549834374998,57.0,81.0
680,143.7462217875,144.38108805,60.0,77.0
681,144.53569278749998,144.64095558749997,57.0,73.0
682,144.1409572875,144.795560325,48.0,81.0
683,143.7462217875,144.89917839375,41.0,72.0
684,144.53569278749998,144.99621753749997,60.0,81.0
685,144.53569278749998,145.23305883749998,65.0,75.0
686,144.93042828749998,145.39917669374998,57.0,75.0
687,145.32516378749997,145.89588553124997,62.0,76.0
688,146.1146347875,146.26101586874998,57.0,75.0
689,145.7198992875,146.40904168125,45.0,70.0
690,145.32516378749997,146.42548899374998,38.0,83.0
691,146.1146347875,146.56693588124998,62.0,79.0
692,146.5093702875,146.6573961,57.0,73.0
693,146.1146347875,146.887658475,65.0,80.0
694,146.9041057875,147.13436816249998,59.0,76.0
695,146.9041057875,147.887655075,64.0,81.0
696,147.29884128749998,147.93864174375,47.0,70.0
697,147.4962090375,147.98469421874998,52.0,82.0
698,147.69357678749998,148.01429938125,56.0,82.0
699,146.9041057875,148.0159441125,40.0,84.0
700,147.8909445375,148.15903573125,59.0,81.0
701,148.08831228749997,148.33831143749998,64.0,83.0
702,148.4830477875,148.69357338749998,57.0,72.0
703,148.4830477875,148.99126974375,62.0,75.0
704,148.8777832875,149.34653169375,57.0,74.0
705,149.2725187875,149.74620138749998,62.0,81.0
706,149.2725187875,149.77251708749998,65.0,77.0
707,148.4830477875,149.8909377375,50.0,82.0
708,149.6672542875,150.17218678125,57.0,73.0
709,150.06198978749998,150.61955368124998,62.0,75.0
710,150.45672528749998,150.87448702499998,57.0,75.0
711,150.85146078749997,151.0948810125,65.0,80.0
712,151.0488285375,151.28402510625,64.0,78.0
713,150.06198978749998,151.31527499999999,50.0,72.0
714,151.2461962875,151.55047156875,62.0,75.0
715,151.6409317875,152.1343511625,57.0,71.0
716,151.6409317875,152.16560105624998,60.0,72.0
717,152.0356672875,152.63434946249998,52.0,75.0
718,152.4304027875,153.03072969374998,60.0,82.0
719,151.6409317875,153.03730861875,45.0,82.0
720,152.4304027875,153.08665055625,64.0,83.0
721,152.82513828749998,153.21493959375,52.0,73.0
722,153.21987378749998,153.6343460625,57.0,75.0
723,153.21987378749998,153.63928025624998,60.0,77.0
724,154.0093447875,154.19684414999998,57.0,76.0
725,153.61460928749997,154.2396071625,52.0,75.0
726,154.0093447875,154.2626334,60.0,83.0
727,153.21987378749998,154.33829103749997,45.0,82.0
728,154.20671253749998,154.40901448124998,59.0,76.0
729,154.4040802875,154.89585493124997,57.0,83.0
730,154.7988157875,155.3317087125,62.0,76.0
731,155.58828678749998,155.74947045,57.0,77.0
732,155.1935512875,155.91887776874998,45.0,65.0
733,154.7988157875,155.95670658749998,38.0,83.0
734,155.98302228749998,156.177100575,57.0,82.0
735,155.58828678749998,156.3711788625,65.0,79.0
736,156.37775778749997,156.96492684375,62.0,76.0
737,156.37775778749997,157.0159135125,59.0,75.0
738,156.7724932875,157.23795223124998,53.0,72.0
739,156.37775778749997,157.26097846874998,47.0,82.0
740,157.1672287875,157.348149225,59.0,81.0
741,157.1672287875,157.57018794374997,65.0,78.0
742,157.95669978749999,158.53235572499997,59.0,77.0
743,157.95669978749999,158.54222411249998,64.0,81.0
744,158.74617078749998,158.92544649374997,59.0,82.0
745,158.35143528749998,158.95011746249997,47.0,75.0
746,157.95669978749999,158.992880475,40.0,79.0
747,158.74617078749998,159.21820865624997,68.0,77.0
748,158.74617078749998,159.22314285,64.0,83.0
749,159.14090628749997,159.5784048,59.0,79.0
750,160.12774503749998,160.30044181875,57.0,75.0
751,160.3251127875,160.51919107499998,60.0,82.0
752,160.52248053749997,160.75438764375,57.0,78.0
753,160.71984828749999,160.89912399374998,60.0,73.0
754,160.9172160375,161.11622851874998,57.0,64.0
755,161.11458378749998,161.40734594999998,64.0,80.0
756,161.3119515375,161.52247713749998,57.0,68.0
757,161.50931928749998,161.66885821875,60.0,68.0
758,161.7066870375,161.77741048124997,57.0,58.0
759,159.9303772875,162.00273866249998,52.0,75.0
760,159.5356417875,162.2264221125,45.0,82.0
761,161.90405478749997,162.32839545,57.0,81.0
762,161.90405478749997,162.39747416249998,60.0,86.0
763,161.90405478749997,162.400763625,64.0,85.0
764,162.2987902875,162.63924965624997,52.0,81.0
765,162.6935257875,163.071813975,57.0,76.0
766,162.6935257875,163.08661655625,60.0,76.0
767,163.0882612875,163.61950948125,52.0,67.0
768,163.48299678749999,163.86292970625,57.0,82.0
769,163.87773228749998,164.05371853124998,52.0,74.0
770,162.6935257875,164.06523165,45.0,82.0
771,163.48299678749999,164.4204936,64.0,83.0
772,164.0751000375,164.49944069999998,57.0,77.0
773,165.0619387875,165.23628029999998,57.0,81.0
774,164.66720328749997,165.24121449375,48.0,75.0
775,164.27246778749998,165.28562223749998,41.0,68.0
776,165.0619387875,165.50437149374997,60.0,82.0
777,165.4566742875,165.65075257499998,57.0,68.0
778,165.8514097875,166.1046984,55.0,77.0
779,165.8514097875,166.35305281874997,60.0,76.0
780,166.24614528749998,166.72969627499998,55.0,76.0
781,165.8514097875,166.82673541875,48.0,82.0
782,166.64088078749998,166.95173499375,60.0,81.0
783,166.64088078749998,167.21160253124998,64.0,82.0
784,167.03561628749998,167.34318103125,55.0,77.0
785,167.2329840375,167.52739093124998,60.0,73.0
786,167.8250872875,168.16883611875,59.0,81.0
787,167.62771953749998,168.45666408749997,47.0,72.0
788,168.2198227875,168.48133505624997,59.0,82.0
789,167.43035178749997,168.52080860624997,40.0,85.0
790,168.6145582875,168.8777152875,59.0,80.0
791,168.2198227875,168.90074152499997,64.0,82.0
792,169.00929378749998,169.47146326874997,62.0,81.0
793,169.40402928749998,169.90567231875,57.0,76.0
794,169.79876478749998,170.24284222499998,62.0,82.0
795,169.79876478749998,170.29218416249998,65.0,82.0
796,169.00929378749998,170.34481556249997,50.0,83.0
797,170.19350028749997,170.51751234374998,57.0,81.0
798,170.5882357875,171.22310205,60.0,77.0
799,171.3777067875,171.48296958749998,57.0,73.0
800,170.9829712875,171.63757432499997,48.0,81.0
801,170.5882357875,171.74119239374997,41.0,72.0
802,171.3777067875,171.83823153749998,60.0,81.0
803,171.3777067875,172.0750728375,65.0,75.0
804,171.77244228749998,172.24119069374999,57.0,75.0
805,172.16717778749998,172.73789953124998,62.0,76.0
806,172.95664878749997,173.10302986874999,57.0,75.0
807,172.56191328749998,173.25105568125,45.0,70.0
808,172.16717778749998,173.26750299374999,38.0,83.0
809,172.95664878749997,173.40894988124998,62.0,79.0
810,173.3513842875,173.49941009999998,57.0,73.0
811,172.95664878749997,173.72967247499997,65.0,80.0
812,173.7461197875,173.9763821625,59.0,76.0
813,173.7461197875,174.72966907499998,64.0,81.0
814,174.1408552875,174.78065574374997,47.0,70.0
815,174.33822303749997,174.82670821874999,52.0,82.0
816,174.53559078749998,174.85631338124998,56.0,82.0
817,173.7461197875,174.85795811249997,40.0,84.0
818,174.7329585375,175.00104973125,59.0,81.0
819,174.93032628749998,175.1803254375,64.0,83.0
820,175.32506178749998,175.5355873875,57.0,72.0
821,175.32506178749998,175.83328374374997,62.0,75.0
822,175.71979728749997,176.18854569374997,57.0,74.0
823,176.1145327875,176.5882153875,62.0,81.0
824,176.1145327875,176.61453108749998,65.0,77.0
825,175.32506178749998,176.73295173749997,50.0,82.0
826,176.5092682875,177.01420078124997,57.0,73.0
827,176.9040037875,177.46156768125,62.0,75.0
828,177.29873928749998,177.71650102499999,57.0,75.0
829,177.69347478749998,177.93689501249997,65.0,80.0
830,177.8908425375,178.12603910624998,64.0,78.0
831,176.9040037875,178.157289,50.0,72.0
832,178.08821028749998,178.39248556874998,62.0,75.0
833,178.48294578749997,178.97636516249997,57.0,71.0
834,178.48294578749997,179.00761505625,60.0,72.0
835,178.8776812875,179.4763634625,52.0,75.0
836,179.2724167875,179.87274369374998,60.0,82.0
837,178.48294578749997,179.87932261875,45.0,82.0
838,179.2724167875,179.92866455624997,64.0,83.0
839,179.6671522875,180.05695359375,52.0,73.0
840,180.06188778749998,180.4763600625,57.0,75.0
841,180.06188778749998,180.48129425624998,60.0,77.0
842,180.85135878749998,181.03885814999998,57.0,76.0
843,180.45662328749998,181.08162116249997,52.0,75.0
844,180.85135878749998,181.10464739999998,60.0,83.0
845,180.06188778749998,181.18030503749998,45.0,82.0
846,181.0487265375,181.25102848125,59.0,76.0
847,181.24609428749997,181.73786893124998,57.0,83.0
848,181.6408297875,182.1737227125,62.0,76.0
849,182.4303007875,182.59148445,57.0,77.0
850,182.0355652875,182.76089176874999,45.0,65.0
851,181.6408297875,182.7987205875,38.0,83.0
852,182.82503628749998,183.01911457499997,57.0,82.0
853,182.4303007875,183.2131928625,65.0,79.0
854,183.21977178749998,183.80694084374997,62.0,76.0
855,183.21977178749998,183.85792751249997,59.0,75.0
856,183.61450728749998,184.07996623124998,53.0,72.0
857,183.21977178749998,184.10299246875,47.0,82.0
858,184.00924278749997,184.190163225,59.0,81.0
859,184.00924278749997,184.41220194374998,65.0,78.0
860,184.7987137875,185.37436972499998,59.0,77.0
861,184.7987137875,185.3842381125,64.0,81.0
862,185.58818478749998,185.76746049374998,59.0,82.0
863,185.1934492875,185.79213146249998,47.0,75.0
864,184.7987137875,185.83489447499997,40.0,79.0
865,185.58818478749998,186.06022265624998,68.0,77.0
866,185.58818478749998,186.06515685,64.0,83.0
867,185.98292028749998,186.4204188,59.0,79.0
868,186.96975903749998,187.14245581875,57.0,75.0
869,187.1671267875,187.361205075,60.0,82.0
870,187.36449453749998,187.59640164374997,57.0,78.0
871,187.5618622875,187.74113799375,60.0,73.0
872,187.75923003749998,187.95824251874998,57.0,64.0
873,187.9565977875,188.24935994999998,64.0,80.0
874,188.15396553749997,188.36449113749998,57.0,68.0
875,188.35133328749998,188.51087221875,60.0,68.0
876,188.5487010375,188.61942448124998,57.0,58.0
877,186.77239128749997,188.84475266249999,52.0,75.0
878,186.37765578749998,189.0684361125,45.0,82.0
879,188.74606878749998,189.17040945,57.0,81.0
880,188.74606878749998,189.23948816249998,60.0,86.0
881,188.74606878749998,189.24277762499997,64.0,85.0
882,189.14080428749998,189.48126365624998,52.0,81.0
883,189.53553978749997,189.97139356875,65.0,82.0
884,189.9302752875,190.2000112125,57.0,82.0
885,190.12764303749998,190.22797164374998,62.0,81.0
886,190.3250107875,190.62270714374998,65.0,88.0
887,190.52237853749997,190.72632521249997,57.0,88.0
888,190.7197462875,190.9204035,62.0,75.0
889,189.73290753749998,190.9697454375,45.0,69.0
890,189.53553978749997,191.0092189875,38.0,84.0
891,190.91711403749997,191.13915275624998,57.0,79.0
892,191.11448178749998,191.578296,65.0,81.0
893,191.50921728749998,191.78882159999998,57.0,83.0
894,191.7065850375,191.84309773124997,62.0,81.0
895,191.3118495375,192.07007064374997,45.0,70.0
896,191.90395278749997,192.13421516249997,65.0,92.0
897,191.11448178749998,192.22303064999997,38.0,82.0
898,192.1013205375,192.31842506249998,62.0,81.0
899,192.29868828749997,192.466450875,57.0,82.0
900,192.6934237875,192.81019970625,55.0,75.0
901,192.6934237875,192.9368440125,60.0,76.0
902,192.89079153749998,193.07335670624997,55.0,78.0
903,193.0881592875,193.32335585624998,60.0,72.0
904,193.28552703749997,193.47467113124998,55.0,73.0
905,193.4828947875,193.76085436875,64.0,82.0
906,193.68026253749997,193.92039329999997,55.0,81.0
907,192.6934237875,194.13914255625,48.0,85.0
908,193.87763028749998,194.13914255625,60.0,76.0
909,194.0749980375,194.32335245624998,55.0,81.0
910,194.27236578749998,194.47631246249998,60.0,82.0
911,194.4697335375,194.68519333125,55.0,82.0
912,194.66710128749997,194.89736366249997,60.0,76.0
913,194.8644690375,195.05361313125,55.0,76.0
914,194.27236578749998,195.36611206874997,48.0,87.0
915,195.06183678749997,195.37433572499998,64.0,86.0
916,195.25920453749998,195.5092036875,55.0,81.0
917,195.4565722875,195.72795294374998,60.0,81.0
918,195.65394003749998,195.84801832499997,55.0,74.0
919,195.8513077875,196.08979381874997,62.0,78.0
920,196.2460432875,196.4993319,57.0,85.0
921,196.44341103749997,196.63091039999998,62.0,81.0
922,196.64077878749998,196.8513043875,65.0,82.0
923,196.8381465375,197.05854052499998,62.0,81.0
924,196.04867553749997,197.30031601874998,45.0,71.0
925,195.8513077875,197.308539675,38.0,82.0
926,197.03551428749998,197.308539675,57.0,82.0
927,197.2328820375,197.42202613125,62.0,78.0
928,197.43024978749997,197.75426184375,65.0,83.0
929,197.6276175375,197.85294571875,57.0,81.0
930,197.82498528749997,198.06018185624998,62.0,83.0
931,198.02235303749998,198.20491820624997,57.0,86.0
932,197.6276175375,198.45656208749998,45.0,71.0
933,197.43024978749997,198.50261456249999,38.0,85.0
934,198.2197207875,198.50425929374998,65.0,83.0
935,198.41708853749998,198.650640375,57.0,78.0
936,198.6144562875,198.83485027499998,62.0,81.0
937,198.81182403749997,198.9828760875,57.0,81.0
938,199.0091917875,199.26412513124998,53.0,80.0
939,199.0091917875,199.43353244999997,60.0,78.0
940,199.40392728749998,199.67201848124998,53.0,83.0
941,199.6012950375,199.72793934374997,57.0,87.0
942,199.20655953749997,199.88747827499998,48.0,78.0
943,199.79866278749998,200.14076688749998,60.0,87.0
944,199.0091917875,200.15063527499998,41.0,83.0
945,199.9960305375,200.17530624375,48.0,82.0
946,200.19339828749997,200.46971313749998,53.0,86.0
947,200.58813378749997,200.65227830624997,41.0,78.0
948,200.3907660375,200.65885723124998,60.0,73.0
949,200.58813378749997,200.95490885624997,59.0,81.0
950,200.9828692875,201.20819746874997,52.0,87.0
951,200.78550153749998,201.34635489374998,47.0,78.0
952,201.18023703749998,201.42859145625,59.0,83.0
953,201.3776047875,201.61444608749997,56.0,95.0
954,201.57497253749997,201.79207706249997,52.0,90.0
955,200.58813378749997,201.87924781874997,40.0,81.0
956,201.7723402875,201.9499712625,47.0,88.0
957,201.96970803749997,202.13418116249997,52.0,86.0
958,202.16707578749998,202.57990333125,62.0,80.0
959,202.56181128749998,202.83812613749998,57.0,83.0
960,202.7591790375,202.95654678749997,62.0,82.0
961,202.95654678749997,203.14898034374997,65.0,88.0
962,203.1539145375,203.3677296,62.0,75.0
963,202.3644435375,203.56016315624998,45.0,82.0
964,202.16707578749998,203.5815446625,38.0,85.0
965,203.35128228749997,203.64404444999997,57.0,82.0
966,203.54865003749998,204.15226640625,62.0,81.0
967,204.1407532875,204.42693652499997,57.0,83.0
968,204.33812103749997,204.55358083124997,62.0,81.0
969,204.5354887875,204.75588277499998,65.0,85.0
970,203.94338553749998,204.83318514374997,45.0,69.0
971,203.7460177875,204.89732966249997,38.0,87.0
972,204.73285653749997,204.94338213749998,62.0,81.0
973,204.93022428749998,205.17528924374997,57.0,81.0
974,205.1275920375,205.32167032499999,62.0,78.0
975,205.32495978749998,205.60785356249997,64.0,83.0
976,205.71969528749997,205.99107594375,59.0,86.0
977,205.9170630375,206.13416756249998,64.0,81.0
978,206.11443078749997,206.40061402499998,68.0,90.0
979,206.31179853749998,206.45324542499998,64.0,82.0
980,205.5223275375,206.7789022125,47.0,82.0
981,205.32495978749998,206.80028371874997,40.0,83.0
982,206.70653403749998,206.81179683749997,64.0,79.0
983,206.50916628749997,206.83153361249998,59.0,77.0
984,206.9039017875,207.34140029999998,59.0,81.0
985,206.9039017875,207.4992945,64.0,83.0
986,207.49600503749997,207.65225450625,59.0,81.0
987,207.69337278749998,207.98942441249997,59.0,82.0
988,207.69337278749998,208.14402914999997,68.0,77.0
989,207.2986372875,208.27396291875,47.0,82.0
990,206.9039017875,208.31672593124998,40.0,87.0
991,208.08810828749998,208.36935733124997,59.0,87.0
992,208.48284378749997,208.755869175,59.0,83.0
993,208.48284378749997,208.77067175624998,64.0,83.0
994,208.48284378749997,209.07330230624999,40.0,86.0
995,208.87757928749997,209.09139434999997,59.0,83.0
996,208.87757928749997,209.09468381249997,64.0,84.0
997,209.27231478749997,209.49435350624998,59.0,82.0
998,209.27231478749997,209.52066920624998,64.0,85.0
999,209.27231478749997,209.59303738124999,68.0,79.0
1000,209.27231478749997,209.88251008125,47.0,82.0
1001,209.27231478749997,209.93020728749997,40.0,85.0
1002,209.6670502875,209.98119395624997,59.0,85.0
1003,210.06178578749999,210.45652128749998,59.0,81.0
1004,210.06178578749999,210.56507354999997,64.0,84.0
1005,210.45652128749998,210.834809475,47.0,75.0
1006,210.06178578749999,210.87263829375,68.0,74.0
1007,210.06178578749999,210.89566453125,40.0,87.0
1008,210.65388903749997,210.89566453125,59.0,83.0
1009,210.85125678749998,211.04369034374997,64.0,83.0
1010,211.0486245375,211.30355788125,59.0,82.0
1011,211.24599228749997,211.34632089374998,64.0,77.0
1012,211.64072778749997,212.15717339999998,57.0,79.0
1013,211.64072778749997,212.23447576874997,60.0,78.0
1014,212.4301987875,212.6834874,57.0,75.0
1015,212.03546328749997,212.68677686249998,52.0,74.0
1016,212.82493428749999,213.06506505,52.0,76.0
1017,212.4301987875,213.07328870624997,64.0,81.0
1018,211.64072778749997,213.09795967499997,45.0,82.0
1019,213.02230203749997,213.35453775,57.0,83.0
1020,213.61440528749998,213.89236486874998,57.0,81.0
1021,213.8117730375,213.95321992499998,60.0,83.0
1022,213.41703753749997,214.20650853749999,52.0,70.0
1023,214.00914078749997,214.29367929375,64.0,87.0
1024,214.20650853749999,214.45979714999999,57.0,82.0
1025,214.40387628749997,214.62920446874998,60.0,83.0
1026,213.21966978749998,214.64236231874997,45.0,81.0
1027,214.79861178749996,215.23446556874998,65.0,82.0
1028,215.1933472875,215.46308321249998,57.0,82.0
1029,215.39071503749997,215.49104364374998,62.0,81.0
1030,215.58808278749999,215.88577914374997,65.0,88.0
1031,215.78545053749997,215.98939721249997,57.0,88.0
1032,215.98281828749998,216.1834755,62.0,75.0
1033,214.99597953749998,216.2328174375,45.0,69.0
1034,214.79861178749996,216.27229098749999,38.0,84.0
1035,216.18018603749996,216.40222475624998,57.0,79.0
1036,216.37755378749998,216.841368,65.0,81.0
1037,216.77228928749997,217.05189359999997,57.0,83.0
1038,216.96965703749999,217.10616973125,62.0,81.0
1039,216.5749215375,217.33314264374997,45.0,70.0
1040,217.16702478749997,217.3972871625,65.0,92.0
1041,216.37755378749998,217.48610265,38.0,82.0
1042,217.36439253749998,217.58149706249998,62.0,81.0
1043,217.56176028749996,217.729522875,57.0,82.0
1044,217.9564957875,218.07327170624998,55.0,75.0
1045,217.9564957875,218.19991601249998,60.0,76.0
1046,218.15386353749997,218.33642870625,55.0,78.0
1047,218.35123128749999,218.58642785624997,60.0,72.0
1048,218.54859903749997,218.73774313124997,55.0,73.0
1049,218.74596678749998,219.02392636874998,64.0,82.0
1050,218.94333453749996,219.18346529999997,55.0,81.0
1051,217.9564957875,219.40221455625,48.0,85.0
1052,219.14070228749998,219.40221455625,60.0,76.0
1053,219.3380700375,219.58642445624997,55.0,81.0
1054,219.53543778749997,219.73938446249997,60.0,82.0
1055,219.73280553749998,219.94826533124998,55.0,82.0
1056,219.93017328749997,220.1604356625,60.0,76.0
1057,220.12754103749998,220.31668513124998,55.0,76.0
1058,219.53543778749997,220.62918406874996,48.0,87.0
1059,220.32490878749996,220.63740772499997,64.0,86.0
1060,220.52227653749998,220.77227568749998,55.0,81.0
1061,220.7196442875,220.99102494374998,60.0,81.0
1062,220.91701203749997,221.111090325,55.0,74.0
1063,221.11437978749998,221.35286581875,62.0,78.0
1064,221.50911528749998,221.76240389999998,57.0,85.0
1065,221.70648303749996,221.89398239999997,62.0,81.0
1066,221.90385078749998,222.1143763875,65.0,82.0
1067,222.1012185375,222.32161252499998,62.0,81.0
1068,221.31174753749997,222.56338801874998,45.0,71.0
1069,221.11437978749998,222.57161167499999,38.0,82.0
1070,222.29858628749997,222.57161167499999,57.0,82.0
1071,222.49595403749998,222.68509813125,62.0,78.0
1072,222.69332178749997,223.01733384374998,65.0,83.0
1073,222.89068953749998,223.11601771875,57.0,81.0
1074,223.08805728749996,223.32325385624998,62.0,83.0
1075,223.28542503749998,223.46799020624997,57.0,86.0
1076,222.89068953749998,223.71963408749997,45.0,71.0
1077,222.69332178749997,223.76568656249998,38.0,85.0
1078,223.4827927875,223.76733129374998,65.0,83.0
1079,223.68016053749997,223.913712375,57.0,78.0
1080,223.87752828749998,224.09792227499997,62.0,81.0
1081,224.07489603749997,224.24594808749998,57.0,81.0
1082,224.27226378749998,224.52719713124998,53.0,80.0
1083,224.27226378749998,224.69660444999997,60.0,78.0
1084,224.66699928749998,224.93509048124997,53.0,83.0
1085,224.8643670375,224.99101134375,57.0,87.0
1086,224.46963153749996,225.15055027499997,48.0,78.0
1087,225.06173478749997,225.40383888749997,60.0,87.0
1088,224.27226378749998,225.41370727499998,41.0,83.0
1089,225.25910253749998,225.43837824374998,48.0,82.0
1090,225.45647028749997,225.73278513749997,53.0,86.0
1091,225.85120578749996,225.91535030625,41.0,78.0
1092,225.65383803749998,225.92192923124998,60.0,73.0
1093,225.85120578749996,226.21798085624997,59.0,81.0
1094,226.2459412875,226.47126946874997,52.0,87.0
1095,226.04857353749998,226.60942689374997,47.0,78.0
1096,226.44330903749997,226.69166345624998,59.0,83.0
1097,226.64067678749998,226.87751808749996,56.0,95.0
1098,226.83804453749997,227.05514906249996,52.0,90.0
1099,225.85120578749996,227.14231981874997,40.0,81.0
1100,227.03541228749998,227.21304326249998,47.0,88.0
1101,227.23278003749996,227.39725316249996,52.0,86.0
1102,227.43014778749998,227.84297533125,62.0,80.0
1103,227.82488328749997,228.10119813749998,57.0,83.0
1104,228.02225103749998,228.21961878749997,62.0,82.0
1105,228.21961878749997,228.41205234375,65.0,88.0
1106,228.41698653749998,228.63080159999998,62.0,75.0
1107,227.6275155375,228.82323515624998,45.0,82.0
1108,227.43014778749998,228.8446166625,38.0,85.0
1109,228.61435428749996,228.90711645,57.0,82.0
1110,228.81172203749998,229.41533840625,62.0,81.0
1111,229.40382528749998,229.69000852499997,57.0,83.0
1112,229.60119303749997,229.81665283124997,62.0,81.0
1113,229.79856078749998,230.01895477499997,65.0,85.0
1114,229.20645753749997,230.09625714374997,45.0,69.0
1115,229.0090897875,230.16040166249996,38.0,87.0
1116,229.99592853749996,230.20645413749997,62.0,81.0
1117,230.19329628749998,230.43836124374997,57.0,81.0
1118,230.3906640375,230.58474232499998,62.0,78.0
1119,230.58803178749997,230.8709255625,64.0,83.0
1120,230.98276728749997,231.25414794374998,59.0,86.0
1121,231.18013503749998,231.39723956249998,64.0,81.0
1122,231.37750278749996,231.66368602499998,68.0,90.0
1123,231.57487053749998,231.71631742499997,64.0,82.0
1124,230.78539953749998,232.04197421249998,47.0,82.0
1125,230.58803178749997,232.06335571875,40.0,83.0
1126,231.96960603749997,232.0748688375,64.0,79.0
1127,231.7722382875,232.09460561249998,59.0,77.0
1128,232.16697378749998,232.60447229999997,59.0,81.0
1129,232.16697378749998,232.76236649999998,64.0,83.0
1130,232.75907703749996,232.91532650624998,59.0,81.0
1131,232.95644478749998,233.25249641249997,59.0,82.0
1132,232.95644478749998,233.40710115,68.0,77.0
1133,232.56170928749998,233.53703491874998,47.0,82.0
1134,232.16697378749998,233.57979793124997,40.0,87.0
1135,233.35118028749997,233.63242933124997,59.0,87.0
1136,233.74591578749997,234.01894117499998,59.0,83.0
1137,233.74591578749997,234.03374375624998,64.0,83.0
1138,233.74591578749997,234.33637430624998,40.0,86.0
1139,234.14065128749996,234.35446634999997,59.0,83.0
1140,234.14065128749996,234.3577558125,64.0,84.0
1141,234.5353867875,234.75742550624997,59.0,82.0
1142,234.5353867875,234.78374120624997,64.0,85.0
1143,234.5353867875,234.85610938124998,68.0,79.0
1144,234.5353867875,235.14558208124998,47.0,82.0
1145,234.5353867875,235.1932792875,40.0,85.0
1146,234.93012228749998,235.24426595625,59.0,85.0
1147,235.32485778749998,235.71959328749998,59.0,81.0
1148,235.32485778749998,235.82814555,64.0,84.0
1149,235.71959328749998,236.09788147499998,47.0,75.0
1150,235.32485778749998,236.13571029374998,68.0,74.0
1151,235.32485778749998,236.15873653124999,40.0,87.0
1152,235.9169610375,236.15873653124999,59.0,83.0
1153,236.11432878749997,236.30676234374997,64.0,83.0
1154,236.31169653749998,236.56662988124998,59.0,82.0
1155,236.50906428749997,236.60939289374997,64.0,77.0
1156,236.90379978749996,237.42024539999997,57.0,79.0
1157,236.90379978749996,237.49754776874997,60.0,78.0
1158,237.69327078749998,237.94655939999998,57.0,75.0
1159,237.2985352875,237.94984886249998,52.0,74.0
1160,238.08800628749998,238.32813704999998,52.0,76.0
1161,237.69327078749998,238.33636070624996,64.0,81.0
1162,236.90379978749996,238.36103167499996,45.0,82.0
1163,238.28537403749996,238.61760974999999,57.0,83.0
1164,238.48274178749998,238.61760974999999,57.0,80.0
1165,238.48274178749998,238.946556,62.0,81.0
1166,238.87747728749997,239.17681837499998,57.0,81.0
1167,239.27221278749997,239.54523817499998,65.0,83.0
1168,239.46958053749998,239.70971129999998,57.0,77.0
1169,238.48274178749998,239.92846055624997,50.0,83.0
1170,239.66694828749996,239.95313152499997,62.0,77.0
1171,239.86431603749998,240.09951260625,57.0,79.0
1172,240.0616837875,240.33470917499997,65.0,82.0
1173,240.25905153749997,240.479445525,57.0,80.0
1174,240.45641928749998,240.70641843749996,62.0,76.0
1175,240.65378703749997,240.76891822499996,57.0,82.0
1176,240.85115478749998,240.98273328749997,57.0,83.0
1177,240.85115478749998,241.03043049374998,62.0,85.0
1178,240.85115478749998,241.17352211249997,65.0,82.0
1179,240.0616837875,241.21628512499998,50.0,83.0
1180,241.04852253749996,241.22615351249996,57.0,77.0
1181,241.24589028749998,241.51727094374996,62.0,75.0
1182,241.4432580375,241.5945733125,57.0,75.0
1183,241.64062578749997,241.86595396874998,60.0,79.0
1184,241.83799353749998,242.05345333124998,55.0,80.0
1185,242.03536128749997,242.24424215624998,60.0,73.0
1186,242.23272903749998,242.32154452499998,55.0,72.0
1187,242.43009678749996,242.55345163124997,55.0,86.0
1188,242.43009678749996,242.74588518749997,64.0,82.0
1189,242.62746453749997,242.80509551249997,55.0,80.0
1190,242.8248322875,243.02548949999996,60.0,69.0
1191,241.64062578749997,243.09292348124998,48.0,83.0
1192,243.02220003749997,243.26562026249997,55.0,76.0
1193,243.21956778749998,243.51726414374997,64.0,82.0
1194,243.41693553749997,243.64226371874997,55.0,80.0
1195,243.61430328749998,243.83140781249998,60.0,79.0
1196,243.21956778749998,243.89390759999998,48.0,87.0
1197,243.81167103749996,244.05673599374998,55.0,79.0
1198,244.00903878749997,244.1800908375,60.0,82.0
1199,244.00903878749997,244.255748475,48.0,83.0
1200,244.00903878749997,244.28699836874998,64.0,86.0
1201,244.2064065375,244.40048482499998,55.0,82.0
1202,244.40377428749997,244.61429988749998,60.0,82.0
1203,244.60114203749998,244.72120741874997,55.0,81.0
1204,244.79850978749997,244.92515409374997,57.0,81.0
1205,244.79850978749997,245.01068011874997,62.0,78.0
1206,244.99587753749998,245.18008743749996,57.0,75.0
1207,245.19324528749996,245.4235076625,62.0,78.0
1208,244.79850978749997,245.43008658749997,38.0,84.0
1209,245.39061303749997,245.61100702499996,57.0,81.0
1210,245.5879807875,245.74751971874997,62.0,81.0
1211,245.5879807875,245.84949305624997,65.0,81.0
1212,245.78534853749997,245.96791370625,57.0,76.0
1213,245.5879807875,246.17350511249998,38.0,87.0
1214,245.98271628749998,246.18172876874996,62.0,77.0
1215,246.18008403749997,246.41034641249996,57.0,77.0
1216,246.37745178749998,246.53699071874996,62.0,78.0
1217,246.37745178749998,246.65212190625,65.0,81.0
1218,246.57481953749996,246.78041094374998,57.0,74.0
1219,246.77218728749997,246.94488406874999,62.0,77.0
1220,246.37745178749998,246.98106815625,38.0,84.0
1221,246.9695550375,247.1208703125,57.0,82.0
1222,247.16692278749997,247.30672494374997,62.0,82.0
1223,247.16692278749997,247.36264580625,38.0,87.0
1224,247.16692278749997,247.40540881874998,65.0,81.0
1225,247.36429053749998,247.58139506249998,57.0,84.0
1226,247.56165828749997,247.72448668124997,62.0,75.0
1227,247.56165828749997,247.85113098749997,65.0,79.0
1228,247.75902603749998,247.86099937499998,57.0,74.0
1229,247.95639378749996,248.19159035624998,60.0,80.0
1230,248.15376153749997,248.34290563124998,55.0,81.0
1231,248.3511292875,248.51231294999997,60.0,75.0
1232,247.95639378749996,248.53698391874997,48.0,84.0
1233,248.54849703749997,248.80343038124997,55.0,82.0
1234,248.74586478749998,248.97119296875,60.0,84.0
1235,248.74586478749998,249.00408759374997,64.0,82.0
1236,248.74586478749998,249.02382436874998,48.0,82.0
1237,248.94323253749997,249.16527125624998,55.0,78.0
1238,249.14060028749998,249.37086266249997,60.0,81.0
1239,249.33796803749996,249.53204632499998,55.0,80.0
1240,249.53533578749997,249.74586138749999,60.0,84.0
1241,249.53533578749997,249.78040074374996,64.0,85.0
1242,249.7327035375,249.96296591249998,55.0,80.0
1243,249.93007128749997,250.09783387499996,60.0,81.0
1244,249.53533578749997,250.14059688749998,48.0,83.0
1245,250.12743903749998,250.29355689374998,55.0,82.0
1246,250.32480678749997,250.48434571874998,60.0,86.0
1247,250.32480678749997,250.53204292499998,48.0,88.0
1248,250.32480678749997,250.58796378749997,64.0,85.0
1249,250.52217453749998,250.75243691249997,55.0,83.0
1250,250.71954228749996,250.9366468125,60.0,82.0
1251,250.91691003749997,251.04848853749996,55.0,82.0
1252,251.24585628749998,251.46131608124998,57.0,73.0
1253,251.33467177499998,251.518881675,62.0,72.0
1254,251.40868468124998,251.58796038749998,65.0,74.0
1255,251.11921198124998,251.99091954374998,38.0,85.0
