,start,end,pitch,velocity
0,4.302083333333333,4.791666666666667,77.0,84.0
1,4.747916666666667,5.039583333333333,72.0,83.0
2,5.019791666666666,5.310416666666667,77.0,83.0
3,5.272916666666666,5.480208333333334,72.0,83.0
4,5.470833333333333,5.65,77.0,83.0
5,5.639583333333333,5.769791666666666,72.0,77.0
6,5.769791666666666,5.889583333333333,77.0,73.0
7,5.85625,5.995833333333334,72.0,76.0
8,5.995833333333334,6.092708333333333,77.0,76.0
9,6.066666666666666,6.203125,72.0,73.0
10,6.203125,6.296875,77.0,72.0
11,6.261458333333334,6.379166666666666,72.0,69.0
12,6.379166666666666,6.483333333333333,77.0,75.0
13,6.448958333333334,6.559375,72.0,67.0
14,6.559375,6.655208333333333,77.0,54.0
15,6.605208333333334,6.716666666666667,72.0,57.0
16,6.715625,6.826041666666667,77.0,58.0
17,6.788541666666666,6.896875,72.0,61.0
18,6.971875,7.133333333333333,72.0,57.0
19,6.878125,7.164583333333333,77.0,54.0
20,7.1343749999999995,7.220833333333333,72.0,68.0
21,7.297916666666667,7.45,72.0,63.0
22,7.20625,7.513541666666667,77.0,48.0
23,7.451041666666667,9.234375,72.0,57.0
24,9.220833333333333,9.321875,74.0,79.0
25,9.310416666666667,9.448958333333334,72.0,80.0
26,9.416666666666666,10.744791666666666,74.0,79.0
27,10.745833333333334,11.091666666666667,74.0,83.0
28,11.091666666666667,11.205208333333333,72.0,49.0
29,11.159375,11.475,74.0,83.0
30,11.472916666666666,11.610416666666666,72.0,40.0
31,11.563541666666666,12.016666666666666,74.0,82.0
32,11.998958333333333,12.0875,72.0,38.0
33,12.04375,12.40625,74.0,53.0
34,12.369791666666666,12.525,72.0,63.0
35,12.470833333333333,13.269791666666666,74.0,72.0
36,13.270833333333334,14.770833333333334,74.0,86.0
37,14.770833333333334,15.270833333333334,70.0,98.0
38,15.270833333333334,16.770833333333332,72.0,100.0
39,16.770833333333332,17.020833333333332,70.0,84.0
40,17.020833333333332,17.270833333333332,72.0,84.0
41,17.270833333333332,17.520833333333332,74.0,84.0
42,17.520833333333332,17.645833333333332,72.0,75.0
43,17.645833333333332,17.770833333333332,70.0,83.0
44,17.770833333333332,18.020833333333332,72.0,83.0
45,17.770833333333332,18.020833333333332,72.0,95.0
46,18.020833333333332,18.145833333333332,70.0,84.0
47,18.145833333333332,18.270833333333332,69.0,67.0
48,18.270833333333332,18.520833333333332,70.0,86.0
49,18.520833333333332,18.645833333333332,69.0,76.0
50,18.645833333333332,18.770833333333332,67.0,76.0
51,18.770833333333332,19.020833333333332,69.0,84.0
52,19.020833333333332,19.145833333333332,67.0,72.0
53,19.145833333333332,19.270833333333332,65.0,79.0
54,19.270833333333332,19.395833333333332,67.0,86.0
55,19.395833333333332,19.520833333333332,65.0,71.0
56,19.520833333333332,20.770833333333332,62.0,76.0
57,20.770833333333332,21.270833333333332,65.0,91.0
58,21.270833333333332,22.770833333333332,67.0,101.0
59,22.770833333333332,23.020833333333332,65.0,91.0
60,23.020833333333332,23.270833333333332,67.0,90.0
61,23.270833333333332,24.770833333333332,70.0,106.0
62,24.770833333333332,25.020833333333332,67.0,90.0
63,25.020833333333332,25.270833333333332,74.0,86.0
64,25.270833333333332,25.395833333333332,72.0,86.0
65,25.395833333333332,25.520833333333332,74.0,84.0
66,25.520833333333332,26.270833333333332,72.0,90.0
67,26.270833333333332,26.770833333333332,70.0,98.0
68,26.770833333333332,27.270833333333332,69.0,98.0
69,27.270833333333332,29.270833333333332,67.0,100.0
70,45.270833333333336,48.828125,74.0,95.0
71,51.770833333333336,52.30416666666667,62.0,98.0
72,52.270833333333336,53.27291666666667,65.0,90.0
73,53.270833333333336,55.18333333333333,67.0,90.0
74,57.270833333333336,58.02916666666667,70.0,91.0
75,58.270833333333336,59.24791666666667,69.0,95.0
76,59.270833333333336,60.645833333333336,67.0,95.0
77,61.270833333333336,63.39375,74.0,98.0
78,65.27083333333333,66.35520833333334,70.0,94.0
79,68.02083333333333,68.19270833333333,77.0,86.0
80,68.14583333333333,68.2875,79.0,83.0
81,68.27083333333333,68.55,82.0,90.0
82,68.52083333333333,68.81354166666667,81.0,94.0
83,68.77083333333333,68.98958333333333,79.0,84.0
84,69.02083333333333,69.28125,77.0,83.0
85,69.27083333333333,71.59479166666667,74.0,81.0
86,75.26041666666667,77.24479166666667,67.0,95.0
87,79.28541666666666,79.76979166666666,74.0,94.0
88,79.778125,80.25416666666666,72.0,91.0
89,80.28854166666666,80.76770833333333,74.0,90.0
90,80.76458333333333,81.303125,77.0,90.0
91,81.26458333333333,83.27916666666667,70.0,94.0
92,89.27083333333333,90.23333333333333,70.0,91.0
93,90.27083333333333,91.290625,74.0,93.0
94,91.27083333333333,93.01354166666667,70.0,98.0
95,93.27083333333333,94.76666666666667,74.0,86.0
96,94.77083333333333,95.26666666666667,70.0,98.0
97,95.27083333333333,96.76666666666667,72.0,100.0
98,96.77083333333333,97.01666666666667,70.0,84.0
99,97.02083333333333,97.26666666666667,72.0,84.0
100,97.27083333333333,97.51666666666667,74.0,84.0
101,97.52083333333333,97.64166666666667,72.0,75.0
102,97.64583333333333,97.76666666666667,70.0,83.0
103,97.77083333333333,98.01666666666667,72.0,83.0
104,97.77083333333333,98.01666666666667,72.0,95.0
105,98.02083333333333,98.14166666666667,70.0,84.0
106,98.14583333333333,98.26666666666667,69.0,67.0
107,98.27083333333333,98.51666666666667,70.0,86.0
108,98.52083333333333,98.64166666666667,69.0,76.0
109,98.64583333333333,98.76666666666667,67.0,76.0
110,98.77083333333333,99.01666666666667,69.0,84.0
111,99.02083333333333,99.14166666666667,67.0,72.0
112,99.14583333333333,99.26666666666667,65.0,79.0
113,99.27083333333333,99.39166666666667,67.0,86.0
114,99.39583333333333,99.51666666666667,65.0,71.0
115,99.52083333333333,100.76666666666667,62.0,76.0
116,100.77083333333333,101.26666666666667,65.0,91.0
117,101.27083333333333,102.76666666666667,67.0,101.0
118,102.77083333333333,103.01666666666667,65.0,91.0
119,103.02083333333333,103.26666666666667,67.0,90.0
120,103.27083333333333,104.76666666666667,70.0,106.0
121,104.77083333333333,105.01666666666667,67.0,90.0
122,105.02083333333333,105.26666666666667,74.0,86.0
123,105.27083333333333,105.39166666666667,72.0,86.0
124,105.39583333333333,105.51666666666667,74.0,84.0
125,105.52083333333333,106.26666666666667,72.0,90.0
126,106.27083333333333,106.76666666666667,70.0,98.0
127,106.77083333333333,107.26666666666667,69.0,98.0
128,106.77083333333333,107.26666666666667,72.0,98.0
129,107.27083333333333,109.26666666666667,67.0,100.0
130,107.27083333333333,109.27083333333333,70.0,98.0
131,112.27083333333333,112.41041666666666,62.0,77.0
132,112.52083333333333,112.79375,62.0,73.0
133,112.77083333333333,113.02916666666667,65.0,78.0
134,113.02083333333333,113.3125,62.0,79.0
135,113.27083333333333,114.89375,67.0,81.0
136,114.27083333333333,115.26875,65.0,83.0
137,115.27083333333333,116.88229166666666,62.0,84.0
138,120.52083333333333,120.78333333333333,62.0,84.0
139,120.77083333333333,120.99583333333334,65.0,83.0
140,121.02083333333333,121.28958333333333,62.0,82.0
141,121.27083333333333,122.29270833333334,67.0,81.0
142,122.27083333333333,122.79270833333334,70.0,91.0
143,122.77083333333333,123.2375,69.0,86.0
144,123.27083333333333,124.84375,67.0,82.0
145,125.27083333333333,127.39375,74.0,98.0
146,129.27083333333334,130.35520833333334,70.0,94.0
147,132.02083333333334,132.19270833333334,77.0,86.0
148,132.14583333333334,132.2875,79.0,83.0
149,132.27083333333334,132.55,82.0,90.0
150,132.52083333333334,132.81354166666665,81.0,94.0
151,132.77083333333334,132.98958333333334,79.0,84.0
152,133.02083333333334,133.28125,77.0,83.0
153,133.27083333333334,135.59479166666665,74.0,81.0
154,143.28541666666666,143.76979166666666,74.0,94.0
155,143.778125,144.25416666666666,72.0,91.0
156,144.28854166666667,144.76770833333333,74.0,90.0
157,144.76458333333332,145.303125,77.0,90.0
158,145.26458333333332,147.27916666666667,70.0,94.0
159,153.27083333333334,154.23333333333332,70.0,91.0
160,154.27083333333334,155.290625,74.0,93.0
161,155.27083333333334,157.01354166666667,70.0,98.0
162,159.27083333333334,159.51666666666665,80.0,90.0
163,159.52083333333334,159.76666666666665,75.0,93.0
164,159.77083333333334,160.01666666666665,78.0,86.0
165,160.02083333333334,160.26666666666665,73.0,84.0
166,160.27083333333334,160.51666666666665,75.0,86.0
167,160.52083333333334,160.76666666666665,71.0,91.0
168,160.77083333333334,161.01666666666665,73.0,90.0
169,161.02083333333334,161.26666666666665,66.0,91.0
170,161.27083333333334,163.26666666666665,68.0,91.0
171,163.27083333333334,163.63541666666666,78.0,91.0
172,165.27083333333334,165.63541666666666,75.0,91.0
173,168.02083333333334,168.19270833333334,78.0,86.0
174,168.14583333333334,168.2875,80.0,83.0
175,168.27083333333334,168.55,83.0,90.0
176,168.52083333333334,168.81354166666665,82.0,94.0
177,168.77083333333334,168.98958333333334,80.0,84.0
178,169.02083333333334,169.28125,78.0,83.0
179,169.27083333333334,171.59479166666665,75.0,81.0
180,173.259375,175.22708333333333,71.0,98.0
181,175.26041666666666,177.24479166666666,68.0,95.0
182,179.28541666666666,179.76979166666666,75.0,94.0
183,179.778125,180.25416666666666,73.0,91.0
184,180.28854166666667,180.76770833333333,75.0,90.0
185,180.76458333333332,181.303125,78.0,90.0
186,181.26458333333332,183.27916666666667,71.0,94.0
187,189.27083333333334,190.23333333333332,71.0,91.0
188,190.27083333333334,191.290625,75.0,93.0
189,191.27083333333334,193.01354166666667,71.0,98.0
190,193.27083333333334,194.76666666666665,75.0,86.0
191,194.77083333333334,195.26666666666665,71.0,98.0
192,195.27083333333334,196.76666666666665,73.0,100.0
193,196.77083333333334,197.01666666666665,71.0,84.0
194,197.02083333333334,197.26666666666665,73.0,84.0
195,197.27083333333334,197.51666666666665,75.0,84.0
196,197.52083333333334,197.64166666666665,73.0,75.0
197,197.64583333333334,197.76666666666665,71.0,83.0
198,197.77083333333334,198.01666666666665,73.0,83.0
199,197.77083333333334,198.01666666666665,73.0,95.0
200,198.02083333333334,198.14166666666665,71.0,84.0
201,198.14583333333334,198.26666666666665,70.0,67.0
202,198.27083333333334,198.51666666666665,71.0,86.0
203,198.52083333333334,198.64166666666665,70.0,76.0
204,198.64583333333334,198.76666666666665,68.0,76.0
205,198.77083333333334,199.01666666666665,70.0,84.0
206,199.02083333333334,199.14166666666665,68.0,72.0
207,199.14583333333334,199.26666666666665,66.0,79.0
208,199.27083333333334,199.39166666666665,68.0,86.0
209,199.39583333333334,199.51666666666665,66.0,71.0
210,199.52083333333334,200.76666666666665,63.0,76.0
211,200.77083333333334,201.26666666666665,66.0,91.0
212,201.27083333333334,202.76666666666665,68.0,101.0
213,202.77083333333334,203.01666666666665,66.0,91.0
214,203.02083333333334,203.26666666666665,68.0,90.0
215,203.27083333333334,204.76666666666665,71.0,106.0
216,204.77083333333334,205.01666666666665,68.0,90.0
217,205.02083333333334,205.26666666666665,75.0,86.0
218,205.27083333333334,205.39166666666665,73.0,86.0
219,205.39583333333334,205.51666666666665,75.0,84.0
220,205.52083333333334,206.26666666666665,73.0,90.0
221,206.27083333333334,206.76666666666665,71.0,98.0
222,206.77083333333334,207.26666666666665,70.0,98.0
223,206.77083333333334,207.26666666666665,73.0,98.0
224,207.27083333333334,209.26666666666665,68.0,100.0
225,207.27083333333334,209.27083333333334,71.0,98.0
226,209.27083333333334,210.76666666666665,75.0,86.0
227,210.77083333333334,211.26666666666665,71.0,98.0
228,211.27083333333334,212.76666666666665,73.0,100.0
229,212.77083333333334,213.01666666666665,71.0,84.0
230,213.02083333333334,213.26666666666665,73.0,84.0
231,213.27083333333334,213.51666666666665,75.0,84.0
232,213.52083333333334,213.64166666666665,73.0,75.0
233,213.64583333333334,213.76666666666665,71.0,83.0
234,213.77083333333334,214.01666666666665,73.0,83.0
235,213.77083333333334,214.01666666666665,73.0,95.0
236,214.02083333333334,214.14166666666665,71.0,84.0
237,214.14583333333334,214.26666666666665,70.0,67.0
238,214.27083333333334,214.51666666666665,71.0,86.0
239,214.52083333333334,214.64166666666665,70.0,76.0
240,214.64583333333334,214.76666666666665,68.0,76.0
241,214.77083333333334,215.01666666666665,70.0,84.0
242,215.02083333333334,215.14166666666665,68.0,72.0
243,215.14583333333334,215.26666666666665,66.0,79.0
244,215.27083333333334,215.39166666666665,68.0,86.0
245,215.39583333333334,215.51666666666665,66.0,71.0
246,215.52083333333334,216.76666666666665,63.0,76.0
247,216.77083333333334,217.26666666666665,66.0,91.0
248,217.27083333333334,218.76666666666665,68.0,101.0
249,218.77083333333334,219.01666666666665,66.0,91.0
250,219.02083333333334,219.26666666666665,68.0,90.0
251,219.27083333333334,220.76666666666665,71.0,106.0
252,220.77083333333334,221.01666666666665,68.0,90.0
253,221.02083333333334,221.26666666666665,75.0,86.0
254,221.27083333333334,221.39166666666665,73.0,86.0
255,221.39583333333334,221.51666666666665,75.0,84.0
256,221.52083333333334,222.26666666666665,73.0,90.0
257,222.27083333333334,222.76666666666665,71.0,98.0
258,222.77083333333334,223.26666666666665,70.0,98.0
259,222.77083333333334,223.26666666666665,73.0,98.0
260,223.27083333333334,225.26666666666665,68.0,100.0
261,223.27083333333334,225.27083333333334,71.0,98.0
