,start,end,pitch,velocity
0,28.770833333333332,29.01875,67.0,87.0
1,29.020833333333332,29.26875,70.0,96.0
2,29.270833333333332,29.76875,74.0,99.0
3,29.770833333333332,30.030208333333334,72.0,89.0
4,30.020833333333332,30.28333333333333,70.0,77.0
5,30.270833333333332,30.76875,72.0,83.0
6,30.770833333333332,31.01875,70.0,87.0
7,31.020833333333332,31.284375,67.0,76.0
8,31.270833333333332,31.76875,70.0,87.0
9,31.770833333333332,32.01875,70.0,65.0
10,32.020833333333336,32.26875,67.0,65.0
11,32.270833333333336,33.26875,62.0,72.0
12,33.270833333333336,33.51770833333333,67.0,87.0
13,33.520833333333336,33.76875,67.0,75.0
14,33.770833333333336,34.01875,67.0,81.0
15,34.020833333333336,34.26875,70.0,68.0
16,34.270833333333336,34.51875,69.0,76.0
17,34.520833333333336,34.76875,67.0,72.0
18,34.770833333333336,35.01875,65.0,66.0
19,35.020833333333336,35.51875,67.0,81.0
20,35.520833333333336,35.770833333333336,65.0,85.0
21,35.770833333333336,36.770833333333336,62.0,66.0
22,36.770833333333336,37.03958333333333,67.0,86.0
23,37.020833333333336,37.26875,70.0,86.0
24,37.270833333333336,37.76875,74.0,100.0
25,37.770833333333336,38.03854166666667,72.0,89.0
26,38.020833333333336,38.28541666666666,70.0,84.0
27,38.270833333333336,38.786458333333336,72.0,90.0
28,38.770833333333336,39.01875,70.0,82.0
29,39.020833333333336,39.270833333333336,67.0,68.0
30,39.270833333333336,39.76770833333333,70.0,80.0
31,39.770833333333336,40.020833333333336,69.0,82.0
32,40.020833333333336,40.342708333333334,67.0,55.0
33,40.270833333333336,41.26875,62.0,65.0
34,41.270833333333336,41.51770833333333,67.0,99.0
35,41.520833333333336,41.76770833333333,67.0,90.0
36,41.770833333333336,42.01875,67.0,87.0
37,42.020833333333336,42.26770833333333,70.0,98.0
38,42.270833333333336,42.51979166666666,70.0,93.0
39,42.520833333333336,42.76875,67.0,77.0
40,42.770833333333336,43.26875,65.0,87.0
41,43.270833333333336,44.76770833333333,67.0,103.0
42,44.770833333333336,45.01875,67.0,90.0
43,45.020833333333336,45.26875,70.0,93.0
44,45.270833333333336,45.76875,74.0,99.0
45,45.770833333333336,46.01875,72.0,90.0
46,46.020833333333336,46.26875,70.0,90.0
47,46.270833333333336,46.76875,72.0,92.0
48,46.770833333333336,47.01875,70.0,86.0
49,47.020833333333336,47.26875,67.0,75.0
50,47.270833333333336,47.76875,70.0,90.0
51,47.770833333333336,48.01875,70.0,79.0
52,48.020833333333336,48.31875,67.0,79.0
53,48.270833333333336,49.26875,62.0,91.0
54,49.270833333333336,49.51770833333333,67.0,97.0
55,49.520833333333336,49.76770833333333,67.0,87.0
56,49.770833333333336,50.01875,67.0,91.0
57,50.020833333333336,50.26875,70.0,99.0
58,50.270833333333336,50.51875,69.0,82.0
59,50.520833333333336,50.76875,67.0,84.0
60,50.770833333333336,51.01875,65.0,68.0
61,51.020833333333336,51.51875,67.0,87.0
62,51.520833333333336,52.01875,62.0,80.0
63,52.020833333333336,52.76875,62.0,67.0
64,52.770833333333336,53.01875,67.0,90.0
65,53.020833333333336,53.26875,70.0,91.0
66,53.270833333333336,53.76875,74.0,86.0
67,53.770833333333336,54.01875,72.0,93.0
68,54.020833333333336,54.26875,70.0,87.0
69,54.270833333333336,54.76875,72.0,96.0
70,54.770833333333336,55.01875,70.0,84.0
71,55.020833333333336,55.26875,67.0,68.0
72,55.270833333333336,55.76875,70.0,87.0
73,55.770833333333336,56.01875,67.0,84.0
74,56.020833333333336,56.26875,70.0,84.0
75,56.270833333333336,57.01770833333333,62.0,72.0
76,57.020833333333336,57.26875,62.0,79.0
77,57.270833333333336,57.51770833333333,67.0,77.0
78,57.520833333333336,57.76770833333333,67.0,81.0
79,57.770833333333336,58.01875,67.0,81.0
80,58.020833333333336,58.26770833333333,70.0,66.0
81,58.270833333333336,58.51875,70.0,61.0
82,58.520833333333336,58.76770833333333,65.0,89.0
83,58.770833333333336,59.01875,65.0,68.0
84,59.020833333333336,59.270833333333336,62.0,66.0
85,59.270833333333336,60.64375,67.0,87.0
86,60.770833333333336,61.01875,74.0,66.0
87,61.020833333333336,61.171875,77.0,91.0
88,61.270833333333336,61.51875,79.0,100.0
89,61.520833333333336,61.76875,79.0,97.0
90,61.770833333333336,62.01875,79.0,99.0
91,62.020833333333336,62.26875,79.0,98.0
92,62.270833333333336,62.51875,79.0,97.0
93,62.520833333333336,62.76875,77.0,66.0
94,62.770833333333336,63.01875,77.0,90.0
95,63.020833333333336,63.26875,74.0,87.0
96,63.270833333333336,63.51875,77.0,98.0
97,63.520833333333336,63.76875,74.0,91.0
98,63.770833333333336,64.28333333333333,72.0,95.0
99,64.27083333333333,64.76875,74.0,106.0
100,64.77083333333333,65.01875,67.0,90.0
101,65.02083333333333,65.26875,70.0,94.0
102,65.27083333333333,65.54166666666667,72.0,94.0
103,65.52083333333333,65.78229166666667,74.0,93.0
104,65.77083333333333,66.06875,72.0,97.0
105,66.02083333333333,66.26875,74.0,93.0
106,66.27083333333333,66.76875,77.0,90.0
107,66.77083333333333,67.27083333333333,72.0,103.0
108,67.27083333333333,68.76770833333333,74.0,105.0
109,68.77083333333333,69.01875,74.0,89.0
110,69.02083333333333,69.26875,77.0,99.0
111,69.27083333333333,69.51770833333333,79.0,99.0
112,69.52083333333333,69.76770833333333,79.0,95.0
113,69.77083333333333,70.01770833333333,79.0,93.0
114,70.02083333333333,70.26770833333333,79.0,97.0
115,70.27083333333333,70.51875,79.0,95.0
116,70.52083333333333,70.76770833333333,77.0,83.0
117,70.77083333333333,71.01875,77.0,92.0
118,71.02083333333333,71.26875,74.0,87.0
119,71.27083333333333,71.51875,77.0,93.0
120,71.52083333333333,71.76875,74.0,96.0
121,71.77083333333333,72.26875,72.0,94.0
122,72.27083333333333,72.76875,74.0,108.0
123,72.77083333333333,73.04270833333334,67.0,87.0
124,73.02083333333333,73.26875,70.0,87.0
125,73.27083333333333,73.53020833333333,72.0,90.0
126,73.52083333333333,73.83229166666666,74.0,81.0
127,73.77083333333333,74.02604166666667,72.0,86.0
128,74.02083333333333,74.28333333333333,70.0,66.0
129,74.27083333333333,74.53854166666666,67.0,72.0
130,74.52083333333333,74.64479166666666,70.0,61.0
131,74.64583333333333,74.82291666666667,67.0,64.0
132,74.77083333333333,75.26875,65.0,79.0
133,75.27083333333333,76.76875,67.0,91.0
134,76.77083333333333,77.01875,74.0,100.0
135,77.02083333333333,77.26875,77.0,95.0
136,77.27083333333333,77.51770833333333,79.0,99.0
137,77.52083333333333,77.76770833333333,79.0,97.0
138,77.77083333333333,78.01770833333333,79.0,93.0
139,78.02083333333333,78.26770833333333,79.0,97.0
140,78.27083333333333,78.52916666666667,79.0,95.0
141,78.52083333333333,78.76770833333333,77.0,87.0
142,78.77083333333333,79.01875,77.0,87.0
143,79.02083333333333,79.26875,74.0,80.0
144,79.27083333333333,79.51875,77.0,95.0
145,79.52083333333333,79.76875,74.0,86.0
146,79.77083333333333,80.26875,72.0,97.0
147,80.27083333333333,80.76875,74.0,103.0
148,80.77083333333333,81.01875,67.0,91.0
149,81.02083333333333,81.26875,70.0,95.0
150,81.27083333333333,81.51875,72.0,98.0
151,81.52083333333333,81.76875,74.0,93.0
152,81.77083333333333,82.071875,72.0,92.0
153,82.02083333333333,82.26875,74.0,87.0
154,82.27083333333333,82.77083333333333,77.0,83.0
155,82.77083333333333,83.26875,72.0,87.0
156,83.27083333333333,84.76770833333333,74.0,94.0
157,84.77083333333333,85.01875,74.0,99.0
158,85.02083333333333,85.26875,77.0,95.0
159,85.27083333333333,85.76770833333333,79.0,101.0
160,85.77083333333333,86.26770833333333,79.0,103.0
161,86.27083333333333,86.51875,79.0,100.0
162,86.52083333333333,86.76770833333333,77.0,90.0
163,86.77083333333333,87.01875,77.0,85.0
164,87.02083333333333,87.26875,74.0,86.0
165,87.27083333333333,87.51875,77.0,92.0
166,87.52083333333333,87.76770833333333,74.0,87.0
167,87.77083333333333,88.01770833333333,74.0,87.0
168,88.02083333333333,88.26875,74.0,91.0
169,88.27083333333333,88.76875,67.0,92.0
170,88.77083333333333,89.01875,67.0,91.0
171,89.02083333333333,89.26875,70.0,91.0
172,89.27083333333333,89.52708333333334,72.0,93.0
173,89.52083333333333,89.81354166666667,74.0,92.0
174,89.77083333333333,90.01875,72.0,86.0
175,90.02083333333333,90.26875,70.0,81.0
176,90.27083333333333,90.51875,67.0,74.0
177,90.52083333333333,90.659375,70.0,56.0
178,90.64583333333333,90.82083333333333,67.0,67.0
179,90.77083333333333,91.26875,65.0,79.0
180,91.27083333333333,92.58229166666666,67.0,98.0
181,93.52083333333333,93.634375,74.0,75.0
182,93.77083333333333,93.91145833333333,74.0,79.0
183,94.02083333333333,94.15104166666667,74.0,84.0
184,94.27083333333333,94.45625,74.0,90.0
185,94.77083333333333,94.97708333333333,72.0,83.0
186,95.02083333333333,95.22291666666666,70.0,95.0
187,95.27083333333333,95.46145833333333,72.0,86.0
188,95.52083333333333,95.73020833333334,70.0,83.0
189,95.77083333333333,95.96145833333333,72.0,84.0
190,96.02083333333333,96.22916666666667,70.0,84.0
191,96.27083333333333,96.44791666666667,72.0,93.0
192,96.77083333333333,96.88333333333333,72.0,84.0
193,96.89583333333333,97.22708333333333,74.0,83.0
194,97.52083333333333,97.63645833333334,74.0,90.0
195,97.77083333333333,97.88229166666666,74.0,93.0
196,98.02083333333333,98.165625,74.0,90.0
197,98.27083333333333,98.459375,72.0,98.0
198,99.02083333333333,99.30208333333333,69.0,91.0
199,99.27083333333333,99.46770833333333,70.0,84.0
200,99.52083333333333,99.725,69.0,83.0
201,99.77083333333333,100.00833333333333,70.0,84.0
202,100.02083333333333,100.27604166666667,65.0,83.0
203,100.27083333333333,100.578125,62.0,86.0
204,101.52083333333333,101.634375,74.0,86.0
205,101.77083333333333,101.88854166666667,74.0,83.0
206,102.02083333333333,102.15104166666667,74.0,84.0
207,102.27083333333333,102.40625,74.0,83.0
208,102.52083333333333,102.646875,74.0,84.0
209,102.77083333333333,102.89583333333333,74.0,84.0
210,103.02083333333333,103.16770833333334,70.0,82.0
211,103.27083333333333,103.490625,72.0,84.0
212,103.39583333333333,103.490625,72.0,91.0
213,103.52083333333333,103.68645833333333,70.0,83.0
214,103.77083333333333,103.95416666666667,72.0,84.0
215,104.02083333333333,104.19375,70.0,95.0
216,104.27083333333333,104.43645833333333,72.0,95.0
217,104.77083333333333,104.92083333333333,74.0,91.0
218,105.64583333333333,105.76145833333334,74.0,82.0
219,105.89583333333333,106.003125,74.0,86.0
220,106.02083333333333,106.178125,74.0,86.0
221,106.27083333333333,106.40520833333333,72.0,95.0
222,106.52083333333333,106.709375,70.0,90.0
223,106.77083333333333,107.22604166666666,69.0,98.0
224,107.27083333333333,108.13333333333333,67.0,100.0
225,108.77083333333333,109.01875,67.0,87.0
226,109.02083333333333,109.26875,70.0,96.0
227,109.27083333333333,109.76875,74.0,99.0
228,109.77083333333333,110.03020833333333,72.0,89.0
229,110.02083333333333,110.28333333333333,70.0,77.0
230,110.27083333333333,110.76875,72.0,83.0
231,110.77083333333333,111.01875,70.0,87.0
232,111.02083333333333,111.284375,67.0,76.0
233,111.27083333333333,111.76875,70.0,87.0
234,111.77083333333333,112.01875,70.0,65.0
235,112.02083333333333,112.26875,67.0,65.0
236,112.27083333333333,113.26875,62.0,72.0
237,113.27083333333333,113.51770833333333,67.0,87.0
238,113.52083333333333,113.76875,67.0,75.0
239,113.77083333333333,114.01875,67.0,81.0
240,114.02083333333333,114.26875,70.0,68.0
241,114.27083333333333,114.51875,69.0,76.0
242,114.52083333333333,114.76875,67.0,72.0
243,114.77083333333333,115.01875,65.0,66.0
244,115.02083333333333,115.51875,67.0,81.0
245,115.52083333333333,116.01875,62.0,85.0
246,116.02083333333333,116.76875,62.0,66.0
247,116.77083333333333,117.03958333333333,67.0,86.0
248,117.02083333333333,117.26875,70.0,86.0
249,117.27083333333333,117.76875,74.0,100.0
250,117.77083333333333,118.03854166666666,72.0,89.0
251,118.02083333333333,118.28541666666666,70.0,84.0
252,118.27083333333333,118.78645833333333,72.0,90.0
253,118.77083333333333,119.01875,70.0,82.0
254,119.02083333333333,119.34166666666667,67.0,68.0
255,119.27083333333333,119.76770833333333,70.0,80.0
256,119.77083333333333,120.01875,70.0,82.0
257,120.02083333333333,120.34270833333333,67.0,55.0
258,120.27083333333333,121.01875,62.0,65.0
259,121.02083333333333,121.26875,62.0,65.0
260,121.27083333333333,121.51770833333333,67.0,99.0
261,121.52083333333333,121.76770833333333,67.0,90.0
262,121.77083333333333,122.01875,67.0,87.0
263,122.02083333333333,122.26770833333333,70.0,98.0
264,122.27083333333333,122.39375,69.0,93.0
265,122.39583333333333,122.51979166666666,70.0,93.0
266,122.52083333333333,122.76875,67.0,77.0
267,122.77083333333333,123.01875,65.0,87.0
268,123.02083333333333,123.51875,62.0,87.0
269,123.52083333333333,124.76875,67.0,103.0
270,124.77083333333333,125.01875,74.0,66.0
271,125.02083333333333,125.171875,77.0,91.0
272,125.27083333333333,125.51875,79.0,100.0
273,125.52083333333333,125.76875,79.0,97.0
274,125.77083333333333,126.01875,79.0,99.0
275,126.02083333333333,126.26875,79.0,98.0
276,126.27083333333333,126.51875,79.0,97.0
277,126.52083333333333,126.76875,77.0,66.0
278,126.77083333333333,127.01875,77.0,90.0
279,127.02083333333333,127.26875,74.0,87.0
280,127.27083333333333,127.51875,77.0,98.0
281,127.52083333333333,127.76875,74.0,91.0
282,127.77083333333333,128.28333333333333,72.0,95.0
283,128.27083333333334,128.76875,74.0,106.0
284,128.77083333333334,129.01875,67.0,90.0
285,129.02083333333334,129.26875,70.0,94.0
286,129.27083333333334,129.54166666666666,72.0,94.0
287,129.52083333333334,129.78229166666665,74.0,93.0
288,129.77083333333334,130.06875,72.0,97.0
289,130.02083333333334,130.26875,74.0,93.0
290,130.27083333333334,130.76875,77.0,90.0
291,130.77083333333334,131.321875,72.0,103.0
292,131.27083333333334,132.76770833333333,74.0,105.0
293,132.77083333333334,133.01875,74.0,89.0
294,133.02083333333334,133.26875,77.0,99.0
295,133.27083333333334,133.51770833333333,79.0,99.0
296,133.52083333333334,133.76770833333333,79.0,95.0
297,133.77083333333334,134.01770833333333,79.0,93.0
298,134.02083333333334,134.26770833333333,79.0,97.0
299,134.27083333333334,134.51875,79.0,95.0
300,134.52083333333334,134.76770833333333,77.0,83.0
301,134.77083333333334,135.01875,77.0,92.0
302,135.02083333333334,135.26875,74.0,87.0
303,135.27083333333334,135.51875,77.0,93.0
304,135.52083333333334,135.76875,74.0,96.0
305,135.77083333333334,136.26875,72.0,94.0
306,136.27083333333334,136.76875,74.0,108.0
307,136.77083333333334,137.04270833333334,67.0,87.0
308,137.02083333333334,137.26875,70.0,87.0
309,137.27083333333334,137.53020833333332,72.0,90.0
310,137.52083333333334,137.83229166666666,74.0,81.0
311,137.77083333333334,138.02604166666666,72.0,86.0
312,138.02083333333334,138.28333333333333,70.0,66.0
313,138.52083333333334,138.64479166666666,70.0,61.0
314,138.64583333333334,138.82291666666666,67.0,64.0
315,138.77083333333334,139.26875,65.0,79.0
316,139.27083333333334,140.76875,67.0,91.0
317,140.77083333333334,141.01875,74.0,100.0
318,141.02083333333334,141.26875,77.0,95.0
319,141.27083333333334,141.51770833333333,79.0,99.0
320,141.52083333333334,141.76770833333333,79.0,97.0
321,141.77083333333334,142.01770833333333,79.0,93.0
322,142.02083333333334,142.26770833333333,79.0,97.0
323,142.27083333333334,142.52916666666667,79.0,95.0
324,142.52083333333334,142.76770833333333,77.0,87.0
325,142.77083333333334,143.01875,77.0,87.0
326,143.02083333333334,143.26875,74.0,80.0
327,143.27083333333334,143.51875,77.0,95.0
328,143.52083333333334,143.76875,74.0,86.0
329,143.77083333333334,144.26875,72.0,97.0
330,144.27083333333334,144.76875,74.0,103.0
331,144.77083333333334,145.01875,67.0,91.0
332,145.02083333333334,145.26875,70.0,95.0
333,145.27083333333334,145.51875,72.0,98.0
334,145.52083333333334,145.76875,74.0,93.0
335,145.77083333333334,146.071875,72.0,92.0
336,146.02083333333334,146.26875,74.0,87.0
337,146.27083333333334,147.01875,77.0,83.0
338,147.02083333333334,147.51875,72.0,87.0
339,147.52083333333334,148.76770833333333,74.0,94.0
340,148.77083333333334,149.01875,74.0,99.0
341,149.02083333333334,149.26875,77.0,95.0
342,149.27083333333334,149.76770833333333,79.0,101.0
343,149.77083333333334,150.26770833333333,79.0,103.0
344,150.27083333333334,150.51875,79.0,100.0
345,150.52083333333334,150.76770833333333,77.0,90.0
346,150.77083333333334,151.01875,77.0,85.0
347,151.02083333333334,151.26875,74.0,86.0
348,151.27083333333334,151.51875,77.0,92.0
349,151.52083333333334,151.76770833333333,74.0,87.0
350,151.77083333333334,152.01770833333333,74.0,87.0
351,152.02083333333334,152.14375,72.0,91.0
352,152.14583333333334,152.26875,74.0,91.0
353,152.27083333333334,152.76875,67.0,92.0
354,152.77083333333334,153.01875,67.0,91.0
355,153.02083333333334,153.26875,70.0,91.0
356,153.27083333333334,153.52708333333334,72.0,93.0
357,153.52083333333334,153.81354166666665,74.0,92.0
358,153.77083333333334,154.01875,72.0,86.0
359,154.02083333333334,154.26875,70.0,81.0
360,154.27083333333334,155.02083333333334,67.0,74.0
361,155.27083333333334,155.64375,65.0,79.0
362,155.64583333333334,157.08229166666666,67.0,98.0
363,160.77083333333334,161.01875,75.0,66.0
364,161.02083333333334,161.171875,78.0,91.0
365,161.27083333333334,161.51875,80.0,100.0
366,161.52083333333334,161.76875,80.0,97.0
367,161.77083333333334,162.01875,80.0,99.0
368,162.02083333333334,162.26875,80.0,98.0
369,162.27083333333334,162.51875,80.0,97.0
370,162.52083333333334,162.76875,78.0,66.0
371,162.77083333333334,163.01875,78.0,90.0
372,163.02083333333334,163.26875,75.0,87.0
373,163.27083333333334,163.51875,78.0,98.0
374,163.52083333333334,163.76875,75.0,91.0
375,163.77083333333334,164.28333333333333,73.0,95.0
376,164.27083333333334,164.76875,75.0,106.0
377,164.77083333333334,165.01875,68.0,90.0
378,165.02083333333334,165.26875,71.0,94.0
379,165.27083333333334,165.54166666666666,73.0,94.0
380,165.52083333333334,165.78229166666665,75.0,93.0
381,165.77083333333334,166.06875,73.0,97.0
382,166.02083333333334,166.26875,75.0,93.0
383,166.27083333333334,166.76875,78.0,90.0
384,166.77083333333334,167.321875,73.0,103.0
385,167.27083333333334,168.76770833333333,75.0,105.0
386,168.77083333333334,169.01875,75.0,89.0
387,169.02083333333334,169.26875,78.0,99.0
388,169.27083333333334,169.51770833333333,80.0,99.0
389,169.52083333333334,169.76770833333333,80.0,95.0
390,169.77083333333334,170.01770833333333,80.0,93.0
391,170.02083333333334,170.26770833333333,80.0,97.0
392,170.27083333333334,170.51875,80.0,95.0
393,170.52083333333334,170.76770833333333,78.0,83.0
394,170.77083333333334,171.01875,78.0,92.0
395,171.02083333333334,171.26875,75.0,87.0
396,171.27083333333334,171.51875,78.0,93.0
397,171.52083333333334,171.76875,75.0,96.0
398,171.77083333333334,172.26875,73.0,94.0
399,172.27083333333334,172.76875,75.0,108.0
400,172.77083333333334,173.04270833333334,68.0,87.0
401,173.02083333333334,173.26875,71.0,87.0
402,173.27083333333334,173.53020833333332,73.0,90.0
403,173.52083333333334,173.83229166666666,75.0,81.0
404,173.77083333333334,174.02604166666666,73.0,86.0
405,174.02083333333334,174.28333333333333,71.0,66.0
406,174.27083333333334,174.53854166666667,68.0,72.0
407,174.52083333333334,174.64479166666666,71.0,61.0
408,174.64583333333334,174.82291666666666,68.0,64.0
409,174.77083333333334,175.26875,66.0,79.0
410,175.27083333333334,176.76875,68.0,91.0
411,176.77083333333334,177.01875,75.0,100.0
412,177.02083333333334,177.26875,78.0,95.0
413,177.27083333333334,177.51770833333333,80.0,99.0
414,177.52083333333334,177.76770833333333,80.0,97.0
415,177.77083333333334,178.01770833333333,80.0,93.0
416,178.02083333333334,178.26770833333333,80.0,97.0
417,178.27083333333334,178.52916666666667,80.0,95.0
418,178.52083333333334,178.76770833333333,78.0,87.0
419,178.77083333333334,179.01875,78.0,87.0
420,179.02083333333334,179.26875,75.0,80.0
421,179.27083333333334,179.51875,78.0,95.0
422,179.52083333333334,179.76875,75.0,86.0
423,179.77083333333334,180.26875,73.0,97.0
424,180.27083333333334,180.76875,75.0,103.0
425,180.77083333333334,181.01875,68.0,91.0
426,181.02083333333334,181.26875,71.0,95.0
427,181.27083333333334,181.51875,73.0,98.0
428,181.52083333333334,181.76875,75.0,93.0
429,181.77083333333334,182.071875,73.0,92.0
430,182.02083333333334,182.26875,75.0,87.0
431,182.27083333333334,182.76875,78.0,83.0
432,182.77083333333334,183.26875,73.0,87.0
433,183.27083333333334,184.76770833333333,75.0,94.0
434,184.77083333333334,185.01875,75.0,99.0
435,185.02083333333334,185.26875,78.0,95.0
436,185.27083333333334,185.76770833333333,80.0,101.0
437,185.77083333333334,186.26770833333333,80.0,103.0
438,186.27083333333334,186.51875,80.0,100.0
439,186.52083333333334,186.76770833333333,78.0,90.0
440,186.77083333333334,187.01875,78.0,85.0
441,187.02083333333334,187.26875,75.0,86.0
442,187.27083333333334,187.51875,78.0,92.0
443,187.52083333333334,187.76770833333333,75.0,87.0
444,187.77083333333334,188.01770833333333,75.0,87.0
445,188.02083333333334,188.14375,73.0,91.0
446,188.14583333333334,188.26875,75.0,91.0
447,188.27083333333334,188.76875,68.0,92.0
448,188.77083333333334,189.01875,68.0,91.0
449,189.02083333333334,189.26875,71.0,91.0
450,189.27083333333334,189.52708333333334,73.0,93.0
451,189.52083333333334,189.81354166666665,75.0,92.0
452,189.77083333333334,190.01875,73.0,86.0
453,190.02083333333334,190.26875,71.0,81.0
454,190.27083333333334,190.51875,68.0,74.0
455,190.77083333333334,191.26875,66.0,79.0
456,191.27083333333334,192.70729166666666,68.0,98.0
457,193.52083333333334,193.634375,75.0,75.0
458,193.77083333333334,193.91145833333334,75.0,79.0
459,194.02083333333334,194.15104166666666,75.0,84.0
460,194.27083333333334,194.45625,75.0,90.0
461,194.77083333333334,194.97708333333333,73.0,83.0
462,195.02083333333334,195.22291666666666,71.0,95.0
463,195.27083333333334,195.46145833333333,73.0,86.0
464,195.52083333333334,195.73020833333334,71.0,83.0
465,195.77083333333334,195.96145833333333,73.0,84.0
466,196.02083333333334,196.22916666666666,71.0,84.0
467,196.27083333333334,196.44791666666666,73.0,93.0
468,196.77083333333334,196.88333333333333,73.0,84.0
469,196.89583333333334,197.22708333333333,75.0,83.0
470,197.52083333333334,197.63645833333334,75.0,90.0
471,197.77083333333334,197.88229166666667,75.0,93.0
472,198.02083333333334,198.165625,75.0,90.0
473,198.27083333333334,198.459375,73.0,98.0
474,199.02083333333334,199.30208333333334,70.0,91.0
475,199.27083333333334,199.46770833333332,71.0,84.0
476,199.52083333333334,199.725,70.0,83.0
477,199.77083333333334,200.00833333333333,71.0,84.0
478,200.02083333333334,200.27604166666666,66.0,83.0
479,200.27083333333334,200.578125,63.0,86.0
480,201.52083333333334,201.634375,75.0,86.0
481,201.77083333333334,201.88854166666667,75.0,83.0
482,202.02083333333334,202.15104166666666,75.0,84.0
483,202.27083333333334,202.40625,75.0,83.0
484,202.52083333333334,202.646875,75.0,84.0
485,202.77083333333334,202.89583333333334,75.0,84.0
486,203.02083333333334,203.16770833333334,71.0,82.0
487,203.27083333333334,203.490625,73.0,84.0
488,203.39583333333334,203.490625,73.0,91.0
489,203.52083333333334,203.68645833333332,71.0,83.0
490,203.77083333333334,203.95416666666665,73.0,84.0
491,204.02083333333334,204.19375,71.0,95.0
492,204.27083333333334,204.43645833333332,73.0,95.0
493,204.77083333333334,204.92083333333332,75.0,91.0
494,205.64583333333334,205.76145833333334,75.0,82.0
495,205.89583333333334,206.00312499999998,75.0,86.0
496,206.02083333333334,206.178125,75.0,86.0
497,206.27083333333334,206.40520833333332,73.0,95.0
498,206.52083333333334,206.709375,71.0,90.0
499,206.77083333333334,207.22604166666667,70.0,98.0
500,207.27083333333334,208.13333333333333,68.0,100.0
501,208.77083333333334,209.01874999999998,68.0,87.0
502,209.02083333333334,209.26874999999998,71.0,96.0
503,209.52083333333334,209.634375,75.0,75.0
504,209.77083333333334,209.91145833333334,75.0,79.0
505,210.02083333333334,210.15104166666666,75.0,84.0
506,210.27083333333334,210.45624999999998,75.0,90.0
507,210.77083333333334,210.97708333333333,73.0,83.0
508,211.02083333333334,211.22291666666666,71.0,95.0
509,211.27083333333334,211.46145833333333,73.0,86.0
510,211.52083333333334,211.73020833333334,71.0,83.0
511,211.77083333333334,211.96145833333333,73.0,84.0
512,212.02083333333334,212.22916666666666,71.0,84.0
513,212.27083333333334,212.44791666666666,73.0,93.0
514,212.77083333333334,212.88333333333333,73.0,84.0
515,212.89583333333334,213.22708333333333,75.0,83.0
516,213.52083333333334,213.63645833333334,75.0,90.0
517,213.77083333333334,213.88229166666667,75.0,93.0
518,214.02083333333334,214.165625,75.0,90.0
519,214.27083333333334,214.459375,73.0,98.0
520,215.02083333333334,215.30208333333334,70.0,91.0
521,215.27083333333334,215.46770833333332,71.0,84.0
522,215.52083333333334,215.725,70.0,83.0
523,215.77083333333334,216.00833333333333,71.0,84.0
524,216.02083333333334,216.27604166666666,66.0,83.0
525,216.27083333333334,216.578125,63.0,86.0
526,217.52083333333334,217.634375,75.0,86.0
527,217.77083333333334,217.88854166666667,75.0,83.0
528,218.02083333333334,218.15104166666666,75.0,84.0
529,218.27083333333334,218.40625,75.0,83.0
530,218.52083333333334,218.646875,75.0,84.0
531,218.77083333333334,218.89583333333334,75.0,84.0
532,219.02083333333334,219.16770833333334,71.0,82.0
533,219.27083333333334,219.490625,73.0,84.0
534,219.39583333333334,219.490625,73.0,91.0
535,219.52083333333334,219.68645833333332,71.0,83.0
536,219.77083333333334,219.95416666666665,73.0,84.0
537,220.02083333333334,220.19375,71.0,95.0
538,220.27083333333334,220.43645833333332,73.0,95.0
539,220.77083333333334,220.92083333333332,75.0,91.0
540,221.64583333333334,221.76145833333334,75.0,82.0
541,221.89583333333334,222.00312499999998,75.0,86.0
542,222.02083333333334,222.178125,75.0,86.0
543,222.27083333333334,222.40520833333332,73.0,95.0
544,222.52083333333334,222.709375,71.0,90.0
545,222.77083333333334,223.22604166666667,70.0,98.0
546,223.27083333333334,224.13333333333333,68.0,100.0
547,224.77083333333334,225.01874999999998,68.0,87.0
548,225.02083333333334,225.26874999999998,71.0,96.0
