,start,end,pitch,velocity
0,14.020833333333334,14.365625,67.0,86.0
1,13.770833333333334,14.845833333333333,65.0,86.0
2,13.520833333333334,14.866666666666667,62.0,78.0
3,13.270833333333334,14.888541666666667,55.0,79.0
4,14.270833333333334,15.542708333333334,70.0,91.0
5,15.520833333333334,16.938541666666666,57.0,80.0
6,15.770833333333334,16.946875,62.0,82.0
7,15.270833333333334,16.948958333333334,50.0,84.0
8,16.020833333333332,17.204166666666666,67.0,75.0
9,16.270833333333332,17.389583333333334,69.0,84.0
10,17.270833333333332,18.0375,51.0,86.0
11,17.770833333333332,18.126041666666666,63.0,84.0
12,17.520833333333332,18.16875,58.0,82.0
13,18.020833333333332,18.463541666666668,70.0,84.0
14,18.270833333333332,18.626041666666666,69.0,50.0
15,18.520833333333332,18.964583333333334,60.0,82.0
16,18.270833333333332,18.976041666666667,53.0,81.0
17,18.770833333333332,19.020833333333332,65.0,82.0
18,19.020833333333332,19.551041666666666,67.0,76.0
19,20.270833333333332,20.678125,72.0,79.0
20,19.270833333333332,20.894791666666666,46.0,86.0
21,20.020833333333332,20.9,62.0,73.0
22,19.520833333333332,20.935416666666665,53.0,78.0
23,20.770833333333332,20.944791666666667,72.0,81.0
24,19.770833333333332,20.99375,58.0,83.0
25,21.020833333333332,21.414583333333333,70.0,69.0
26,22.020833333333332,22.35,70.0,79.0
27,22.270833333333332,22.508333333333333,74.0,77.0
28,21.770833333333332,22.59375,65.0,80.0
29,21.520833333333332,22.744791666666668,62.0,76.0
30,21.270833333333332,22.804166666666667,55.0,82.0
31,22.520833333333332,22.819791666666667,77.0,80.0
32,22.770833333333332,23.089583333333334,74.0,79.0
33,23.020833333333332,23.407291666666666,72.0,80.0
34,23.770833333333332,24.384375,62.0,63.0
35,23.520833333333332,24.909375,57.0,78.0
36,23.270833333333332,24.994791666666668,50.0,84.0
37,24.020833333333332,25.005208333333332,67.0,80.0
38,24.270833333333332,25.461458333333333,69.0,84.0
39,25.770833333333332,26.08125,58.0,53.0
40,25.520833333333332,26.1875,55.0,59.0
41,25.270833333333332,26.344791666666666,51.0,80.0
42,26.020833333333332,26.46875,63.0,84.0
43,26.520833333333332,26.827083333333334,60.0,76.0
44,26.270833333333332,26.922916666666666,53.0,84.0
45,26.770833333333332,27.073958333333334,65.0,76.0
46,27.020833333333332,27.256249999999998,67.0,78.0
47,27.270833333333332,27.763541666666665,70.0,83.0
48,27.270833333333332,27.809375,62.0,74.0
49,28.020833333333332,28.34583333333333,57.0,56.0
50,27.770833333333332,28.672916666666666,55.0,73.0
51,27.520833333333332,28.6875,50.0,75.0
52,28.270833333333332,28.695833333333333,62.0,79.0
53,27.270833333333332,28.727083333333333,43.0,80.0
54,30.020833333333332,30.365624999999998,67.0,86.0
55,29.770833333333332,30.84583333333333,65.0,86.0
56,29.520833333333332,30.866666666666667,62.0,78.0
57,29.270833333333332,30.888541666666665,55.0,79.0
58,30.270833333333332,31.542708333333334,70.0,91.0
59,31.520833333333332,32.938541666666666,57.0,80.0
60,31.770833333333332,32.946875,62.0,82.0
61,31.270833333333332,32.94895833333333,50.0,84.0
62,32.020833333333336,33.204166666666666,67.0,75.0
63,32.270833333333336,33.389583333333334,69.0,84.0
64,33.270833333333336,34.0375,51.0,86.0
65,33.770833333333336,34.126041666666666,63.0,84.0
66,33.520833333333336,34.16875,58.0,82.0
67,34.020833333333336,34.463541666666664,70.0,84.0
68,34.270833333333336,34.626041666666666,69.0,50.0
69,34.520833333333336,34.96458333333333,60.0,82.0
70,34.270833333333336,34.97604166666667,53.0,81.0
71,34.770833333333336,35.020833333333336,65.0,82.0
72,35.020833333333336,35.55104166666666,67.0,76.0
73,36.270833333333336,36.678125,72.0,79.0
74,35.270833333333336,36.89479166666666,46.0,86.0
75,36.020833333333336,36.9,62.0,73.0
76,35.520833333333336,36.93541666666667,53.0,78.0
77,35.770833333333336,36.99375,58.0,83.0
78,38.020833333333336,38.35,70.0,79.0
79,37.770833333333336,38.59375,65.0,80.0
80,37.520833333333336,38.744791666666664,62.0,76.0
81,37.270833333333336,38.80416666666667,55.0,82.0
82,39.770833333333336,40.384375,62.0,63.0
83,39.520833333333336,40.909375,57.0,78.0
84,39.270833333333336,40.994791666666664,50.0,84.0
85,40.020833333333336,41.005208333333336,67.0,80.0
86,40.270833333333336,41.46145833333333,69.0,84.0
87,41.770833333333336,42.08125,58.0,53.0
88,41.520833333333336,42.1875,55.0,59.0
89,41.270833333333336,42.344791666666666,51.0,80.0
90,42.020833333333336,42.46875,63.0,84.0
91,42.520833333333336,42.827083333333334,60.0,76.0
92,42.270833333333336,42.922916666666666,53.0,84.0
93,42.770833333333336,43.07395833333333,65.0,76.0
94,43.020833333333336,43.25625,67.0,78.0
95,43.270833333333336,43.76354166666667,70.0,83.0
96,43.270833333333336,43.809375,62.0,74.0
97,44.020833333333336,44.34583333333333,57.0,56.0
98,43.770833333333336,44.672916666666666,55.0,73.0
99,43.520833333333336,44.6875,50.0,75.0
100,44.270833333333336,44.69583333333333,62.0,79.0
101,43.270833333333336,44.72708333333333,43.0,80.0
102,45.770833333333336,46.84583333333333,65.0,86.0
103,45.520833333333336,46.86666666666667,62.0,78.0
104,45.270833333333336,46.88854166666667,55.0,79.0
105,46.270833333333336,47.54270833333333,70.0,91.0
106,47.520833333333336,48.938541666666666,57.0,80.0
107,47.770833333333336,48.946875,62.0,82.0
108,47.270833333333336,48.94895833333333,50.0,84.0
109,48.020833333333336,49.204166666666666,67.0,75.0
110,48.270833333333336,49.389583333333334,69.0,84.0
111,49.270833333333336,50.0375,51.0,86.0
112,49.770833333333336,50.126041666666666,63.0,84.0
113,49.520833333333336,50.16875,58.0,82.0
114,50.020833333333336,50.463541666666664,70.0,84.0
115,50.270833333333336,50.626041666666666,69.0,50.0
116,50.520833333333336,50.96458333333333,60.0,82.0
117,50.270833333333336,50.97604166666667,53.0,81.0
118,50.770833333333336,51.020833333333336,65.0,82.0
119,51.020833333333336,51.55104166666666,67.0,76.0
120,52.270833333333336,52.678125,72.0,79.0
121,51.270833333333336,52.89479166666666,46.0,86.0
122,52.020833333333336,52.9,62.0,73.0
123,51.520833333333336,52.93541666666667,53.0,78.0
124,51.770833333333336,52.99375,58.0,83.0
125,54.020833333333336,54.35,70.0,79.0
126,53.770833333333336,54.59375,65.0,80.0
127,53.520833333333336,54.744791666666664,62.0,76.0
128,53.270833333333336,54.80416666666667,55.0,82.0
129,55.770833333333336,56.384375,62.0,63.0
130,55.520833333333336,56.909375,57.0,78.0
131,55.270833333333336,56.994791666666664,50.0,84.0
132,56.020833333333336,57.005208333333336,67.0,80.0
133,56.270833333333336,57.46145833333333,69.0,84.0
134,57.770833333333336,58.08125,58.0,53.0
135,57.520833333333336,58.1875,55.0,59.0
136,57.270833333333336,58.344791666666666,51.0,80.0
137,58.020833333333336,58.46875,63.0,84.0
138,58.520833333333336,58.827083333333334,60.0,76.0
139,58.270833333333336,58.922916666666666,53.0,84.0
140,58.770833333333336,59.07395833333333,65.0,76.0
141,59.020833333333336,59.25625,67.0,78.0
142,59.270833333333336,59.76354166666667,70.0,83.0
143,59.270833333333336,59.809374999999996,62.0,74.0
144,60.020833333333336,60.34583333333333,57.0,56.0
145,59.770833333333336,60.672916666666666,55.0,73.0
146,59.520833333333336,60.6875,50.0,75.0
147,60.270833333333336,60.69583333333333,58.0,79.0
148,59.270833333333336,60.72708333333333,43.0,80.0
149,61.270833333333336,61.69479166666667,70.0,96.0
150,61.520833333333336,61.728125,50.0,73.0
151,61.520833333333336,61.829166666666666,62.0,72.0
152,61.770833333333336,62.079166666666666,55.0,55.0
153,61.770833333333336,62.09166666666667,69.0,80.0
154,62.020833333333336,62.58020833333333,70.0,83.0
155,62.520833333333336,62.71145833333333,62.0,90.0
156,62.270833333333336,62.72708333333333,58.0,83.0
157,62.020833333333336,62.74270833333333,57.0,75.0
158,62.770833333333336,63.016666666666666,67.0,78.0
159,63.020833333333336,63.196875,70.0,84.0
160,61.270833333333336,63.270833333333336,43.0,84.0
161,63.520833333333336,63.815625,50.0,80.0
162,63.270833333333336,63.93958333333333,65.0,79.0
163,63.270833333333336,63.9625,60.0,80.0
164,63.270833333333336,64.10104166666666,69.0,84.0
165,64.27083333333333,64.575,60.0,84.0
166,64.52083333333333,64.703125,65.0,82.0
167,64.02083333333333,64.71041666666666,57.0,86.0
168,63.770833333333336,64.78541666666666,53.0,75.0
169,63.270833333333336,65.14583333333333,38.0,90.0
170,65.27083333333333,65.70833333333333,67.0,80.0
171,65.27083333333333,65.73854166666666,63.0,79.0
172,65.52083333333333,66.009375,46.0,83.0
173,65.77083333333333,66.11458333333333,51.0,83.0
174,65.27083333333333,66.27083333333333,39.0,81.0
175,66.27083333333333,66.65833333333333,65.0,82.0
176,66.27083333333333,66.69270833333333,57.0,79.0
177,66.27083333333333,66.77395833333333,60.0,84.0
178,66.52083333333333,66.84895833333333,48.0,80.0
179,66.77083333333333,67.209375,53.0,73.0
180,67.02083333333333,67.22708333333333,57.0,82.0
181,66.27083333333333,67.27083333333333,41.0,84.0
182,67.27083333333333,67.53020833333333,58.0,90.0
183,67.27083333333333,67.6,62.0,84.0
184,67.27083333333333,67.64583333333333,46.0,86.0
185,67.52083333333333,67.7375,53.0,78.0
186,67.77083333333333,68.03333333333333,58.0,75.0
187,68.02083333333333,68.35729166666667,74.0,83.0
188,68.02083333333333,68.60104166666666,60.0,75.0
189,68.02083333333333,68.60625,65.0,78.0
190,68.27083333333333,68.79166666666667,72.0,86.0
191,68.27083333333333,68.84583333333333,62.0,76.0
192,68.77083333333333,68.884375,60.0,80.0
193,68.77083333333333,69.04791666666667,65.0,72.0
194,68.77083333333333,69.053125,70.0,90.0
195,69.02083333333333,69.23125,69.0,81.0
196,69.27083333333333,69.62083333333334,70.0,80.0
197,69.27083333333333,69.65,67.0,79.0
198,70.02083333333333,70.21770833333333,58.0,75.0
199,69.77083333333333,70.31875,55.0,73.0
200,70.27083333333333,70.540625,58.0,80.0
201,70.27083333333333,70.57291666666667,67.0,81.0
202,70.27083333333333,70.60416666666667,62.0,83.0
203,69.52083333333333,70.66041666666666,50.0,78.0
204,70.52083333333333,70.79375,55.0,60.0
205,70.77083333333333,70.91354166666666,62.0,69.0
206,69.27083333333333,70.91666666666667,43.0,84.0
207,70.77083333333333,70.984375,58.0,77.0
208,70.77083333333333,71.0625,67.0,78.0
209,71.02083333333333,71.10104166666666,50.0,80.0
210,71.27083333333333,71.50416666666666,38.0,86.0
211,71.27083333333333,71.725,57.0,83.0
212,71.52083333333333,71.753125,50.0,79.0
213,71.27083333333333,71.83333333333333,62.0,82.0
214,71.27083333333333,71.92604166666666,65.0,82.0
215,72.27083333333333,72.44791666666667,65.0,80.0
216,72.02083333333333,72.50416666666666,57.0,75.0
217,71.77083333333333,72.52604166666667,53.0,72.0
218,73.27083333333333,73.75833333333333,58.0,79.0
219,73.27083333333333,73.81875,63.0,54.0
220,73.27083333333333,73.83854166666667,39.0,82.0
221,73.02083333333333,73.85833333333333,70.0,86.0
222,73.27083333333333,73.87708333333333,67.0,80.0
223,73.52083333333333,73.91458333333333,46.0,80.0
224,73.77083333333333,73.93645833333333,51.0,83.0
225,74.27083333333333,74.60520833333334,60.0,80.0
226,74.27083333333333,74.63125,65.0,83.0
227,74.27083333333333,74.928125,41.0,83.0
228,74.52083333333333,75.13541666666667,53.0,72.0
229,75.02083333333333,75.240625,69.0,82.0
230,75.27083333333333,75.715625,70.0,83.0
231,75.27083333333333,75.72708333333333,67.0,74.0
232,75.27083333333333,75.74375,62.0,76.0
233,76.02083333333333,76.30625,57.0,72.0
234,76.27083333333333,76.434375,58.0,86.0
235,75.77083333333333,76.84375,55.0,71.0
236,75.27083333333333,76.87604166666667,43.0,80.0
237,75.52083333333333,76.89895833333333,50.0,76.0
238,76.77083333333333,76.94166666666666,62.0,80.0
239,77.27083333333333,77.61458333333333,62.0,74.0
240,77.27083333333333,77.62291666666667,70.0,80.0
241,77.27083333333333,77.64375,67.0,73.0
242,77.27083333333333,77.65729166666667,43.0,78.0
243,77.52083333333333,77.72916666666667,50.0,73.0
244,77.77083333333333,77.93541666666667,62.0,74.0
245,77.77083333333333,78.10104166666666,70.0,80.0
246,77.77083333333333,78.10833333333333,55.0,51.0
247,78.02083333333333,78.36979166666667,57.0,67.0
248,78.27083333333333,78.54375,60.0,77.0
249,78.27083333333333,78.5625,58.0,77.0
250,78.27083333333333,78.63541666666667,69.0,86.0
251,78.52083333333333,78.75729166666666,57.0,73.0
252,78.77083333333333,78.871875,62.0,72.0
253,78.77083333333333,78.91458333333333,67.0,78.0
254,79.02083333333333,79.228125,69.0,73.0
255,79.27083333333333,79.46875,38.0,83.0
256,79.52083333333333,79.81354166666667,50.0,60.0
257,79.27083333333333,80.04166666666667,60.0,75.0
258,79.27083333333333,80.06770833333333,65.0,80.0
259,80.02083333333333,80.60416666666667,57.0,75.0
260,80.27083333333333,80.64479166666666,60.0,68.0
261,80.52083333333333,80.80833333333334,72.0,84.0
262,80.77083333333333,80.859375,57.0,80.0
263,79.77083333333333,80.90208333333334,53.0,72.0
264,81.02083333333333,81.13020833333333,67.0,71.0
265,81.27083333333333,81.759375,63.0,77.0
266,81.27083333333333,81.79479166666667,67.0,72.0
267,81.27083333333333,81.84895833333333,58.0,71.0
268,81.27083333333333,81.94375,39.0,82.0
269,81.52083333333333,81.98541666666667,46.0,79.0
270,81.77083333333333,81.99375,51.0,75.0
271,82.02083333333333,82.08333333333333,58.0,39.0
272,82.27083333333333,82.821875,69.0,86.0
273,82.27083333333333,82.85833333333333,60.0,78.0
274,82.27083333333333,82.859375,65.0,79.0
275,82.27083333333333,82.86875,41.0,83.0
276,82.52083333333333,82.878125,48.0,78.0
277,83.02083333333333,83.14583333333333,60.0,71.0
278,82.77083333333333,83.14791666666666,53.0,79.0
279,83.27083333333333,83.51979166666666,62.0,76.0
280,83.27083333333333,83.52708333333334,65.0,80.0
281,83.27083333333333,83.56666666666666,70.0,79.0
282,83.27083333333333,83.70208333333333,46.0,86.0
283,83.52083333333333,83.74375,53.0,72.0
284,83.77083333333333,84.04375,58.0,59.0
285,84.02083333333333,84.0625,70.0,68.0
286,84.02083333333333,84.16770833333334,65.0,72.0
287,84.02083333333333,84.3375,74.0,80.0
288,84.02083333333333,84.43020833333333,60.0,78.0
289,84.27083333333333,84.45416666666667,65.0,73.0
290,84.27083333333333,84.5,72.0,84.0
291,84.52083333333333,84.64479166666666,70.0,82.0
292,84.27083333333333,84.79479166666667,62.0,76.0
293,84.77083333333333,84.85729166666667,60.0,78.0
294,84.77083333333333,84.96145833333333,69.0,82.0
295,85.02083333333333,85.184375,67.0,79.0
296,85.27083333333333,85.60729166666667,67.0,79.0
297,85.27083333333333,85.659375,70.0,84.0
298,85.27083333333333,85.67395833333333,43.0,78.0
299,85.52083333333333,85.70208333333333,50.0,72.0
300,85.77083333333333,86.01875,55.0,60.0
301,86.02083333333333,86.14166666666667,74.0,73.0
302,86.02083333333333,86.19583333333333,70.0,83.0
303,86.02083333333333,86.30729166666667,57.0,71.0
304,86.27083333333333,86.52708333333334,74.0,72.0
305,86.27083333333333,86.53125,58.0,75.0
306,86.27083333333333,86.62708333333333,70.0,84.0
307,86.52083333333333,86.78125,57.0,73.0
308,86.77083333333333,86.87916666666666,55.0,63.0
309,86.77083333333333,86.97708333333333,69.0,57.0
310,86.77083333333333,87.03229166666667,72.0,55.0
311,87.02083333333333,87.15104166666667,67.0,67.0
312,87.02083333333333,87.21666666666667,70.0,80.0
313,87.27083333333333,87.57291666666667,69.0,79.0
314,87.27083333333333,87.58229166666666,65.0,72.0
315,88.02083333333333,88.146875,53.0,68.0
316,88.02083333333333,88.1625,57.0,78.0
317,87.77083333333333,88.32395833333334,50.0,73.0
318,88.27083333333333,88.58333333333333,53.0,79.0
319,88.27083333333333,88.621875,60.0,82.0
320,88.52083333333333,88.778125,50.0,58.0
321,88.77083333333333,88.81666666666666,53.0,67.0
322,88.77083333333333,88.85416666666667,57.0,71.0
323,87.27083333333333,88.87708333333333,38.0,82.0
324,87.52083333333333,88.915625,45.0,82.0
325,89.27083333333333,89.41458333333333,51.0,76.0
326,89.27083333333333,89.571875,63.0,84.0
327,89.27083333333333,89.596875,55.0,75.0
328,89.27083333333333,89.60416666666667,58.0,86.0
329,89.27083333333333,89.83020833333333,39.0,83.0
330,89.52083333333333,89.90625,51.0,63.0
331,89.77083333333333,89.96145833333333,55.0,72.0
332,90.02083333333333,90.18541666666667,58.0,69.0
333,90.27083333333333,90.60833333333333,53.0,69.0
334,90.27083333333333,90.740625,65.0,78.0
335,90.27083333333333,90.75208333333333,57.0,77.0
336,90.27083333333333,90.8125,60.0,83.0
337,90.27083333333333,90.81666666666666,41.0,82.0
338,90.77083333333333,90.9,53.0,79.0
339,91.02083333333333,91.14583333333333,57.0,56.0
340,91.27083333333333,91.784375,58.0,90.0
341,91.27083333333333,91.79895833333333,62.0,83.0
342,92.02083333333333,92.35833333333333,57.0,73.0
343,92.27083333333333,92.79270833333334,58.0,84.0
344,92.27083333333333,92.81666666666666,62.0,80.0
345,91.77083333333333,92.83541666666666,55.0,19.0
346,91.27083333333333,92.846875,43.0,83.0
347,94.02083333333333,94.365625,67.0,86.0
348,93.77083333333333,94.84583333333333,65.0,86.0
349,93.52083333333333,94.86666666666666,62.0,78.0
350,93.27083333333333,94.88854166666667,55.0,79.0
351,94.27083333333333,95.54270833333334,70.0,91.0
352,95.52083333333333,96.93854166666667,57.0,80.0
353,95.77083333333333,96.946875,62.0,82.0
354,95.27083333333333,96.94895833333334,50.0,84.0
355,96.02083333333333,97.20416666666667,67.0,75.0
356,96.27083333333333,97.38958333333333,69.0,84.0
357,97.27083333333333,98.0375,51.0,86.0
358,97.77083333333333,98.12604166666667,63.0,84.0
359,97.52083333333333,98.16875,58.0,82.0
360,98.02083333333333,98.46354166666667,70.0,84.0
361,98.27083333333333,98.62604166666667,69.0,50.0
362,98.52083333333333,98.96458333333334,60.0,82.0
363,98.27083333333333,98.97604166666666,53.0,81.0
364,98.77083333333333,99.02083333333333,65.0,82.0
365,99.02083333333333,99.55104166666666,67.0,76.0
366,100.27083333333333,100.678125,72.0,79.0
367,99.27083333333333,100.89479166666666,46.0,86.0
368,100.02083333333333,100.9,62.0,73.0
369,99.52083333333333,100.93541666666667,53.0,78.0
370,100.77083333333333,100.94479166666666,72.0,81.0
371,99.77083333333333,100.99375,58.0,83.0
372,101.02083333333333,101.41458333333333,70.0,69.0
373,102.02083333333333,102.35,70.0,79.0
374,102.27083333333333,102.50833333333333,74.0,77.0
375,101.77083333333333,102.59375,65.0,80.0
376,101.52083333333333,102.74479166666667,62.0,76.0
377,101.27083333333333,102.80416666666666,55.0,82.0
378,102.52083333333333,102.81979166666666,77.0,80.0
379,102.77083333333333,103.08958333333334,74.0,79.0
380,103.02083333333333,103.40729166666667,72.0,80.0
381,103.77083333333333,104.38437499999999,62.0,63.0
382,103.52083333333333,104.909375,57.0,78.0
383,103.27083333333333,104.99479166666667,50.0,84.0
384,104.02083333333333,105.00520833333333,67.0,80.0
385,104.27083333333333,105.46145833333333,69.0,84.0
386,105.77083333333333,106.08125,58.0,53.0
387,105.52083333333333,106.1875,55.0,59.0
388,105.27083333333333,106.34479166666667,51.0,80.0
389,106.02083333333333,106.46875,63.0,84.0
390,106.52083333333333,106.82708333333333,60.0,76.0
391,106.27083333333333,106.92291666666667,53.0,84.0
392,106.77083333333333,107.07395833333334,65.0,76.0
393,107.02083333333333,107.25625,67.0,78.0
394,107.27083333333333,107.76354166666667,70.0,83.0
395,107.27083333333333,107.809375,62.0,74.0
396,108.02083333333333,108.34583333333333,57.0,56.0
397,107.77083333333333,108.67291666666667,55.0,73.0
398,107.52083333333333,108.6875,50.0,75.0
399,108.27083333333333,108.69583333333333,62.0,79.0
400,107.27083333333333,108.72708333333333,43.0,80.0
401,110.02083333333333,110.365625,67.0,86.0
402,109.77083333333333,110.84583333333333,65.0,86.0
403,109.52083333333333,110.86666666666666,62.0,78.0
404,109.27083333333333,110.88854166666667,55.0,79.0
405,110.27083333333333,111.54270833333334,70.0,91.0
406,111.52083333333333,112.93854166666667,57.0,80.0
407,111.77083333333333,112.94687499999999,62.0,82.0
408,111.27083333333333,112.94895833333334,50.0,84.0
409,112.02083333333333,113.20416666666667,67.0,75.0
410,112.27083333333333,113.38958333333333,69.0,84.0
411,113.27083333333333,114.0375,51.0,86.0
412,113.77083333333333,114.12604166666667,63.0,84.0
413,113.52083333333333,114.16875,58.0,82.0
414,114.02083333333333,114.46354166666667,70.0,84.0
415,114.27083333333333,114.62604166666667,69.0,50.0
416,114.52083333333333,114.96458333333334,60.0,82.0
417,114.27083333333333,114.97604166666666,53.0,81.0
418,114.77083333333333,115.02083333333333,65.0,82.0
419,115.02083333333333,115.55104166666666,67.0,76.0
420,116.27083333333333,116.678125,72.0,79.0
421,115.27083333333333,116.89479166666666,46.0,86.0
422,116.02083333333333,116.89999999999999,62.0,73.0
423,115.52083333333333,116.93541666666667,53.0,78.0
424,115.77083333333333,116.99374999999999,58.0,83.0
425,118.02083333333333,118.35,70.0,79.0
426,118.27083333333333,118.50833333333333,74.0,77.0
427,117.77083333333333,118.59375,65.0,80.0
428,117.52083333333333,118.74479166666667,62.0,76.0
429,117.27083333333333,118.80416666666666,55.0,82.0
430,119.77083333333333,120.38437499999999,62.0,63.0
431,119.52083333333333,120.909375,57.0,78.0
432,119.27083333333333,120.99479166666667,50.0,84.0
433,120.02083333333333,121.00520833333333,67.0,80.0
434,120.27083333333333,121.46145833333333,69.0,84.0
435,121.77083333333333,122.08125,58.0,53.0
436,121.52083333333333,122.1875,55.0,59.0
437,121.27083333333333,122.34479166666667,51.0,80.0
438,122.02083333333333,122.46875,63.0,84.0
439,122.52083333333333,122.82708333333333,60.0,76.0
440,122.27083333333333,122.92291666666667,53.0,84.0
441,122.77083333333333,123.07395833333334,65.0,76.0
442,123.02083333333333,123.25625,67.0,78.0
443,123.27083333333333,123.76354166666667,70.0,83.0
444,123.27083333333333,123.809375,62.0,74.0
445,124.02083333333333,124.34583333333333,57.0,56.0
446,123.77083333333333,124.67291666666667,55.0,73.0
447,123.52083333333333,124.6875,50.0,75.0
448,124.27083333333333,124.69583333333333,58.0,79.0
449,123.27083333333333,124.72708333333333,43.0,80.0
450,125.27083333333333,125.69479166666666,70.0,96.0
451,125.52083333333333,125.72812499999999,50.0,73.0
452,125.52083333333333,125.82916666666667,62.0,72.0
453,125.77083333333333,126.07916666666667,55.0,55.0
454,125.77083333333333,126.09166666666667,69.0,80.0
455,126.02083333333333,126.39583333333333,57.0,75.0
456,126.02083333333333,126.58020833333333,70.0,83.0
457,126.52083333333333,126.71145833333333,62.0,90.0
458,126.27083333333333,126.72708333333333,58.0,83.0
459,125.27083333333333,126.89583333333333,43.0,84.0
460,126.77083333333333,127.01666666666667,67.0,78.0
461,127.02083333333333,127.19687499999999,70.0,84.0
462,127.52083333333333,127.815625,50.0,80.0
463,127.27083333333333,127.93958333333333,65.0,79.0
464,127.27083333333333,127.96249999999999,60.0,80.0
465,127.27083333333333,128.10104166666667,69.0,84.0
466,128.27083333333334,128.575,60.0,84.0
467,128.52083333333334,128.703125,65.0,82.0
468,128.02083333333334,128.71041666666667,57.0,86.0
469,127.77083333333333,128.78541666666666,53.0,75.0
470,127.27083333333333,129.02083333333334,38.0,90.0
471,128.77083333333334,129.04479166666667,67.0,78.0
472,129.02083333333334,129.30625,69.0,83.0
473,129.27083333333334,129.70833333333334,67.0,80.0
474,129.27083333333334,129.73854166666666,63.0,79.0
475,129.27083333333334,129.88854166666667,39.0,81.0
476,129.52083333333334,130.009375,46.0,83.0
477,129.77083333333334,130.11458333333334,51.0,83.0
478,130.27083333333334,130.65833333333333,65.0,82.0
479,130.27083333333334,130.69270833333334,57.0,79.0
480,130.27083333333334,130.77395833333333,60.0,84.0
481,130.27083333333334,130.80104166666666,41.0,84.0
482,130.52083333333334,130.84895833333334,48.0,80.0
483,130.77083333333334,131.209375,53.0,73.0
484,131.02083333333334,131.22708333333333,57.0,82.0
485,131.27083333333334,131.53020833333332,58.0,90.0
486,131.27083333333334,131.6,62.0,84.0
487,131.27083333333334,131.64583333333334,46.0,86.0
488,131.52083333333334,131.7375,53.0,78.0
489,131.77083333333334,132.03333333333333,58.0,75.0
490,132.02083333333334,132.35729166666667,74.0,83.0
491,132.02083333333334,132.60104166666667,60.0,75.0
492,132.02083333333334,132.60625,65.0,78.0
493,132.27083333333334,132.79166666666666,72.0,86.0
494,132.27083333333334,132.84583333333333,62.0,76.0
495,132.77083333333334,132.884375,60.0,80.0
496,132.77083333333334,133.04791666666665,65.0,72.0
497,132.77083333333334,133.053125,70.0,90.0
498,133.02083333333334,133.23125,69.0,81.0
499,133.27083333333334,133.62083333333334,70.0,80.0
500,133.27083333333334,133.65,67.0,79.0
501,134.02083333333334,134.21770833333332,58.0,75.0
502,133.77083333333334,134.31875,55.0,73.0
503,134.27083333333334,134.540625,58.0,80.0
504,134.27083333333334,134.57291666666666,67.0,81.0
505,134.27083333333334,134.60416666666666,62.0,83.0
506,133.52083333333334,134.66041666666666,50.0,78.0
507,134.52083333333334,134.79375,55.0,60.0
508,134.77083333333334,134.91354166666667,62.0,69.0
509,133.27083333333334,134.91666666666666,43.0,84.0
510,134.77083333333334,134.984375,58.0,77.0
511,134.77083333333334,135.0625,67.0,78.0
512,135.02083333333334,135.10104166666667,50.0,80.0
513,135.27083333333334,135.50416666666666,38.0,86.0
514,135.27083333333334,135.725,57.0,83.0
515,135.52083333333334,135.753125,50.0,79.0
516,135.27083333333334,135.83333333333334,62.0,82.0
517,135.27083333333334,135.92604166666666,65.0,82.0
518,136.27083333333334,136.44791666666666,65.0,80.0
519,136.02083333333334,136.50416666666666,57.0,75.0
520,135.77083333333334,136.52604166666666,53.0,72.0
521,137.02083333333334,137.27083333333334,70.0,86.0
522,137.27083333333334,137.75833333333333,58.0,79.0
523,137.27083333333334,137.81875,63.0,54.0
524,137.27083333333334,137.83854166666666,39.0,82.0
525,137.27083333333334,137.87708333333333,67.0,80.0
526,137.52083333333334,137.91458333333333,46.0,80.0
527,137.77083333333334,137.93645833333332,51.0,83.0
528,138.27083333333334,138.60520833333334,60.0,80.0
529,138.27083333333334,138.63125,65.0,83.0
530,138.27083333333334,138.65208333333334,69.0,84.0
531,138.27083333333334,138.928125,41.0,83.0
532,138.52083333333334,139.13541666666666,53.0,72.0
533,139.02083333333334,139.240625,69.0,82.0
534,139.27083333333334,139.715625,70.0,83.0
535,139.27083333333334,139.72708333333333,67.0,74.0
536,139.27083333333334,139.74375,62.0,76.0
537,140.02083333333334,140.30625,57.0,72.0
538,140.27083333333334,140.434375,58.0,86.0
539,139.77083333333334,140.84375,55.0,71.0
540,139.27083333333334,140.87604166666665,43.0,80.0
541,139.52083333333334,140.89895833333333,50.0,76.0
542,140.77083333333334,140.94166666666666,62.0,80.0
543,141.27083333333334,141.61458333333334,62.0,74.0
544,141.27083333333334,141.62291666666667,70.0,80.0
545,141.27083333333334,141.64375,67.0,73.0
546,141.27083333333334,141.65729166666665,43.0,78.0
547,141.52083333333334,141.72916666666666,50.0,73.0
548,141.77083333333334,141.93541666666667,62.0,74.0
549,141.77083333333334,142.10104166666667,70.0,80.0
550,141.77083333333334,142.10833333333332,55.0,51.0
551,142.02083333333334,142.36979166666666,57.0,67.0
552,142.27083333333334,142.54375,60.0,77.0
553,142.27083333333334,142.5625,58.0,77.0
554,142.27083333333334,142.63541666666666,69.0,86.0
555,142.52083333333334,142.75729166666667,57.0,73.0
556,142.77083333333334,142.871875,62.0,72.0
557,142.77083333333334,142.91458333333333,67.0,78.0
558,143.02083333333334,143.228125,69.0,73.0
559,143.27083333333334,143.46875,38.0,83.0
560,143.52083333333334,143.81354166666665,50.0,60.0
561,143.27083333333334,144.04166666666666,60.0,75.0
562,143.27083333333334,144.06770833333334,65.0,80.0
563,144.02083333333334,144.60416666666666,57.0,75.0
564,144.27083333333334,144.64479166666666,60.0,68.0
565,144.77083333333334,144.859375,57.0,80.0
566,143.77083333333334,144.90208333333334,53.0,72.0
567,145.27083333333334,145.759375,63.0,77.0
568,145.27083333333334,145.79479166666667,67.0,72.0
569,145.27083333333334,145.84895833333334,58.0,71.0
570,145.27083333333334,145.94375,39.0,82.0
571,145.52083333333334,145.98541666666665,46.0,79.0
572,145.77083333333334,145.99375,51.0,75.0
573,146.02083333333334,146.08333333333334,58.0,39.0
574,146.27083333333334,146.821875,69.0,86.0
575,146.27083333333334,146.85833333333332,60.0,78.0
576,146.27083333333334,146.859375,65.0,79.0
577,146.27083333333334,146.86875,41.0,83.0
578,146.52083333333334,146.878125,48.0,78.0
579,147.02083333333334,147.14583333333334,60.0,71.0
580,146.77083333333334,147.14791666666667,53.0,79.0
581,147.27083333333334,147.51979166666666,62.0,76.0
582,147.27083333333334,147.52708333333334,65.0,80.0
583,147.27083333333334,147.56666666666666,70.0,79.0
584,147.27083333333334,147.70208333333332,46.0,86.0
585,147.52083333333334,147.74375,53.0,72.0
586,147.77083333333334,148.04375,58.0,59.0
587,148.02083333333334,148.0625,70.0,68.0
588,148.02083333333334,148.16770833333334,65.0,72.0
589,148.02083333333334,148.3375,74.0,80.0
590,148.02083333333334,148.43020833333333,60.0,78.0
591,148.27083333333334,148.45416666666665,65.0,73.0
592,148.27083333333334,148.5,72.0,84.0
593,148.52083333333334,148.64479166666666,70.0,82.0
594,148.27083333333334,148.79479166666667,62.0,76.0
595,148.77083333333334,148.85729166666667,60.0,78.0
596,148.77083333333334,148.96145833333333,69.0,82.0
597,149.02083333333334,149.184375,67.0,79.0
598,149.27083333333334,149.60729166666667,67.0,79.0
599,149.27083333333334,149.659375,70.0,84.0
600,149.27083333333334,149.67395833333333,43.0,78.0
601,149.52083333333334,149.70208333333332,50.0,72.0
602,149.77083333333334,150.01875,55.0,60.0
603,150.02083333333334,150.14166666666665,74.0,73.0
604,150.02083333333334,150.19583333333333,70.0,83.0
605,150.02083333333334,150.30729166666666,57.0,71.0
606,150.27083333333334,150.52708333333334,74.0,72.0
607,150.27083333333334,150.53125,58.0,75.0
608,150.27083333333334,150.62708333333333,70.0,84.0
609,150.52083333333334,150.78125,57.0,73.0
610,150.77083333333334,150.87916666666666,55.0,63.0
611,150.77083333333334,150.97708333333333,69.0,57.0
612,150.77083333333334,151.03229166666665,72.0,55.0
613,151.02083333333334,151.15104166666666,67.0,67.0
614,151.02083333333334,151.21666666666667,70.0,80.0
615,151.27083333333334,151.57291666666666,69.0,79.0
616,151.27083333333334,151.58229166666666,65.0,72.0
617,152.02083333333334,152.146875,53.0,68.0
618,152.02083333333334,152.1625,57.0,78.0
619,151.77083333333334,152.32395833333334,50.0,73.0
620,152.27083333333334,152.58333333333334,53.0,79.0
621,152.27083333333334,152.621875,60.0,82.0
622,152.52083333333334,152.778125,50.0,58.0
623,152.77083333333334,152.81666666666666,53.0,67.0
624,152.77083333333334,152.85416666666666,57.0,71.0
625,151.27083333333334,152.87708333333333,38.0,82.0
626,151.52083333333334,152.915625,45.0,82.0
627,153.27083333333334,153.41458333333333,51.0,76.0
628,153.27083333333334,153.571875,63.0,84.0
629,153.27083333333334,153.596875,55.0,75.0
630,153.27083333333334,153.60416666666666,58.0,86.0
631,153.27083333333334,153.83020833333333,39.0,83.0
632,153.52083333333334,153.90625,51.0,63.0
633,153.77083333333334,153.96145833333333,55.0,72.0
634,154.02083333333334,154.18541666666667,58.0,69.0
635,154.27083333333334,154.60833333333332,53.0,69.0
636,154.27083333333334,154.75208333333333,57.0,77.0
637,154.27083333333334,154.8125,60.0,83.0
638,154.27083333333334,154.81666666666666,41.0,82.0
639,154.77083333333334,154.9,53.0,79.0
640,155.02083333333334,155.14583333333334,57.0,56.0
641,155.27083333333334,155.784375,58.0,90.0
642,155.27083333333334,155.79895833333333,62.0,83.0
643,156.02083333333334,156.35833333333332,57.0,73.0
644,156.27083333333334,156.79270833333334,58.0,84.0
645,156.27083333333334,156.81666666666666,62.0,80.0
646,155.77083333333334,156.83541666666667,55.0,19.0
647,155.27083333333334,156.846875,43.0,83.0
648,157.27083333333334,157.32604166666667,62.0,91.0
649,157.27083333333334,157.334375,55.0,72.0
650,157.27083333333334,157.33645833333333,43.0,91.0
651,157.27083333333334,157.33958333333334,58.0,95.0
652,157.27083333333334,157.34479166666665,67.0,84.0
653,157.39583333333334,157.45520833333333,62.0,84.0
654,157.39583333333334,157.45729166666666,55.0,76.0
655,157.39583333333334,157.465625,58.0,67.0
656,157.39583333333334,157.475,43.0,84.0
657,157.39583333333334,157.49166666666667,67.0,75.0
658,157.52083333333334,157.56875,62.0,99.0
659,157.52083333333334,157.57604166666667,58.0,84.0
660,157.52083333333334,157.58958333333334,43.0,91.0
661,157.52083333333334,157.59479166666665,55.0,77.0
662,157.52083333333334,157.59791666666666,67.0,81.0
663,158.02083333333334,158.08958333333334,62.0,84.0
664,158.02083333333334,158.09479166666665,58.0,83.0
665,158.02083333333334,158.10208333333333,55.0,73.0
666,158.02083333333334,158.10416666666666,43.0,93.0
667,158.02083333333334,158.10416666666666,67.0,80.0
668,158.27083333333334,158.35104166666667,62.0,84.0
669,158.27083333333334,158.353125,58.0,84.0
670,158.27083333333334,158.3625,43.0,86.0
671,158.27083333333334,158.36458333333334,55.0,83.0
672,158.27083333333334,158.36666666666667,67.0,82.0
673,158.52083333333334,158.58020833333333,62.0,86.0
674,158.52083333333334,158.58854166666666,58.0,95.0
675,158.52083333333334,158.59375,55.0,90.0
676,158.52083333333334,158.60104166666667,43.0,94.0
677,158.52083333333334,158.62083333333334,67.0,86.0
678,161.27083333333334,161.65833333333333,44.0,84.0
679,161.27083333333334,161.69479166666667,71.0,96.0
680,161.52083333333334,161.728125,51.0,73.0
681,161.52083333333334,161.82916666666665,63.0,72.0
682,161.77083333333334,162.07916666666665,56.0,55.0
683,161.77083333333334,162.09166666666667,70.0,80.0
684,162.02083333333334,162.58020833333333,71.0,83.0
685,162.52083333333334,162.71145833333333,63.0,90.0
686,162.27083333333334,162.72708333333333,59.0,83.0
687,162.02083333333334,162.74270833333333,58.0,75.0
688,162.77083333333334,163.01666666666665,68.0,78.0
689,163.02083333333334,163.196875,71.0,84.0
690,163.27083333333334,163.49583333333334,39.0,90.0
691,163.52083333333334,163.815625,51.0,80.0
692,163.27083333333334,163.93958333333333,66.0,79.0
693,163.27083333333334,163.9625,61.0,80.0
694,163.27083333333334,164.10104166666667,70.0,84.0
695,164.27083333333334,164.575,61.0,84.0
696,164.52083333333334,164.703125,66.0,82.0
697,164.02083333333334,164.71041666666667,58.0,86.0
698,163.77083333333334,164.78541666666666,54.0,75.0
699,164.77083333333334,165.04479166666667,68.0,78.0
700,165.27083333333334,165.70833333333334,68.0,80.0
701,165.27083333333334,165.73854166666666,64.0,79.0
702,165.27083333333334,165.88854166666667,40.0,81.0
703,165.52083333333334,166.009375,47.0,83.0
704,165.77083333333334,166.11458333333334,52.0,83.0
705,166.27083333333334,166.65833333333333,66.0,82.0
706,166.27083333333334,166.69270833333334,58.0,79.0
707,166.27083333333334,166.77395833333333,61.0,84.0
708,166.27083333333334,166.80104166666666,42.0,84.0
709,166.52083333333334,166.84895833333334,49.0,80.0
710,166.77083333333334,167.209375,54.0,73.0
711,167.02083333333334,167.22708333333333,58.0,82.0
712,167.27083333333334,167.53020833333332,59.0,90.0
713,167.27083333333334,167.6,63.0,84.0
714,167.27083333333334,167.64583333333334,47.0,86.0
715,167.52083333333334,167.7375,54.0,78.0
716,167.77083333333334,168.03333333333333,59.0,75.0
717,168.02083333333334,168.35729166666667,75.0,83.0
718,168.02083333333334,168.60104166666667,61.0,75.0
719,168.02083333333334,168.60625,66.0,78.0
720,168.27083333333334,168.79166666666666,73.0,86.0
721,168.27083333333334,168.84583333333333,63.0,76.0
722,168.77083333333334,168.884375,61.0,80.0
723,168.77083333333334,169.04791666666665,66.0,72.0
724,168.77083333333334,169.053125,71.0,90.0
725,169.02083333333334,169.23125,70.0,81.0
726,169.27083333333334,169.62083333333334,71.0,80.0
727,169.27083333333334,169.65,68.0,79.0
728,170.02083333333334,170.21770833333332,59.0,75.0
729,169.77083333333334,170.31875,56.0,73.0
730,170.27083333333334,170.540625,59.0,80.0
731,170.27083333333334,170.57291666666666,68.0,81.0
732,170.27083333333334,170.60416666666666,63.0,83.0
733,169.52083333333334,170.66041666666666,51.0,78.0
734,170.52083333333334,170.79375,56.0,60.0
735,170.77083333333334,170.91354166666667,63.0,69.0
736,169.27083333333334,170.91666666666666,44.0,84.0
737,170.77083333333334,170.984375,59.0,77.0
738,170.77083333333334,171.0625,68.0,78.0
739,171.02083333333334,171.10104166666667,51.0,80.0
740,171.27083333333334,171.50416666666666,39.0,86.0
741,171.27083333333334,171.725,58.0,83.0
742,171.52083333333334,171.753125,51.0,79.0
743,171.27083333333334,171.83333333333334,63.0,82.0
744,171.27083333333334,171.92604166666666,66.0,82.0
745,172.27083333333334,172.44791666666666,66.0,80.0
746,172.02083333333334,172.50416666666666,58.0,75.0
747,171.77083333333334,172.52604166666666,54.0,72.0
748,173.27083333333334,173.75833333333333,59.0,79.0
749,173.27083333333334,173.81875,64.0,54.0
750,173.27083333333334,173.83854166666666,40.0,82.0
751,173.02083333333334,173.85833333333332,71.0,86.0
752,173.27083333333334,173.87708333333333,68.0,80.0
753,173.52083333333334,173.91458333333333,47.0,80.0
754,173.77083333333334,173.93645833333332,52.0,83.0
755,174.27083333333334,174.60520833333334,61.0,80.0
756,174.27083333333334,174.63125,66.0,83.0
757,174.27083333333334,174.65208333333334,70.0,84.0
758,174.27083333333334,174.928125,42.0,83.0
759,174.52083333333334,175.13541666666666,54.0,72.0
760,175.02083333333334,175.240625,70.0,82.0
761,175.27083333333334,175.715625,71.0,83.0
762,175.27083333333334,175.72708333333333,68.0,74.0
763,175.27083333333334,175.74375,63.0,76.0
764,176.02083333333334,176.30625,58.0,72.0
765,176.27083333333334,176.434375,59.0,86.0
766,175.77083333333334,176.84375,56.0,71.0
767,175.27083333333334,176.87604166666665,44.0,80.0
768,175.52083333333334,176.89895833333333,51.0,76.0
769,176.77083333333334,176.94166666666666,63.0,80.0
770,177.27083333333334,177.61458333333334,63.0,74.0
771,177.27083333333334,177.62291666666667,71.0,80.0
772,177.27083333333334,177.64375,68.0,73.0
773,177.27083333333334,177.65729166666665,44.0,78.0
774,177.52083333333334,177.72916666666666,51.0,73.0
775,177.77083333333334,177.93541666666667,63.0,74.0
776,177.77083333333334,178.10104166666667,71.0,80.0
777,177.77083333333334,178.10833333333332,56.0,51.0
778,178.02083333333334,178.36979166666666,58.0,67.0
779,178.27083333333334,178.54375,61.0,77.0
780,178.27083333333334,178.5625,59.0,77.0
781,178.27083333333334,178.63541666666666,70.0,86.0
782,178.52083333333334,178.75729166666667,58.0,73.0
783,178.77083333333334,178.871875,63.0,72.0
784,178.77083333333334,178.91458333333333,68.0,78.0
785,179.02083333333334,179.228125,70.0,73.0
786,179.27083333333334,179.46875,39.0,83.0
787,179.52083333333334,179.81354166666665,51.0,60.0
788,179.27083333333334,180.04166666666666,61.0,75.0
789,179.27083333333334,180.06770833333334,66.0,80.0
790,180.02083333333334,180.60416666666666,58.0,75.0
791,180.27083333333334,180.64479166666666,61.0,68.0
792,180.77083333333334,180.859375,58.0,80.0
793,179.77083333333334,180.90208333333334,54.0,72.0
794,181.27083333333334,181.759375,64.0,77.0
795,181.27083333333334,181.79479166666667,68.0,72.0
796,181.27083333333334,181.84895833333334,59.0,71.0
797,181.27083333333334,181.94375,40.0,82.0
798,181.52083333333334,181.98541666666665,47.0,79.0
799,181.77083333333334,181.99375,52.0,75.0
800,182.02083333333334,182.08333333333334,59.0,39.0
801,182.27083333333334,182.821875,70.0,86.0
802,182.27083333333334,182.85833333333332,61.0,78.0
803,182.27083333333334,182.859375,66.0,79.0
804,182.27083333333334,182.86875,42.0,83.0
805,182.52083333333334,182.878125,49.0,78.0
806,183.02083333333334,183.14583333333334,61.0,71.0
807,182.77083333333334,183.14791666666667,54.0,79.0
808,183.27083333333334,183.51979166666666,63.0,76.0
809,183.27083333333334,183.52708333333334,66.0,80.0
810,183.27083333333334,183.56666666666666,71.0,79.0
811,183.27083333333334,183.70208333333332,47.0,86.0
812,183.52083333333334,183.74375,54.0,72.0
813,183.77083333333334,184.04375,59.0,59.0
814,184.02083333333334,184.0625,71.0,68.0
815,184.02083333333334,184.16770833333334,66.0,72.0
816,184.02083333333334,184.3375,75.0,80.0
817,184.02083333333334,184.43020833333333,61.0,78.0
818,184.27083333333334,184.45416666666665,66.0,73.0
819,184.27083333333334,184.5,73.0,84.0
820,184.52083333333334,184.64479166666666,71.0,82.0
821,184.27083333333334,184.79479166666667,63.0,76.0
822,184.77083333333334,184.85729166666667,61.0,78.0
823,184.77083333333334,184.96145833333333,70.0,82.0
824,185.02083333333334,185.184375,68.0,79.0
825,185.27083333333334,185.60729166666667,68.0,79.0
826,185.27083333333334,185.659375,71.0,84.0
827,185.27083333333334,185.67395833333333,44.0,78.0
828,185.52083333333334,185.70208333333332,51.0,72.0
829,185.77083333333334,186.01875,56.0,60.0
830,186.02083333333334,186.14166666666665,75.0,73.0
831,186.02083333333334,186.19583333333333,71.0,83.0
832,186.02083333333334,186.30729166666666,58.0,71.0
833,186.27083333333334,186.52708333333334,75.0,72.0
834,186.27083333333334,186.53125,59.0,75.0
835,186.27083333333334,186.62708333333333,71.0,84.0
836,186.52083333333334,186.78125,58.0,73.0
837,186.77083333333334,186.87916666666666,56.0,63.0
838,186.77083333333334,186.97708333333333,70.0,57.0
839,186.77083333333334,187.03229166666665,73.0,55.0
840,187.02083333333334,187.15104166666666,68.0,67.0
841,187.02083333333334,187.21666666666667,71.0,80.0
842,187.27083333333334,187.57291666666666,70.0,79.0
843,187.27083333333334,187.58229166666666,66.0,72.0
844,188.02083333333334,188.146875,54.0,68.0
845,188.02083333333334,188.1625,58.0,78.0
846,187.77083333333334,188.32395833333334,51.0,73.0
847,188.27083333333334,188.58333333333334,54.0,79.0
848,188.27083333333334,188.621875,61.0,82.0
849,188.52083333333334,188.778125,51.0,58.0
850,188.77083333333334,188.81666666666666,54.0,67.0
851,188.77083333333334,188.85416666666666,58.0,71.0
852,187.27083333333334,188.87708333333333,39.0,82.0
853,187.52083333333334,188.915625,46.0,82.0
854,189.27083333333334,189.41458333333333,52.0,76.0
855,189.27083333333334,189.571875,64.0,84.0
856,189.27083333333334,189.596875,56.0,75.0
857,189.27083333333334,189.60416666666666,59.0,86.0
858,189.27083333333334,189.83020833333333,40.0,83.0
859,189.52083333333334,189.90625,52.0,63.0
860,189.77083333333334,189.96145833333333,56.0,72.0
861,190.02083333333334,190.18541666666667,59.0,69.0
862,190.27083333333334,190.60833333333332,54.0,69.0
863,190.27083333333334,190.740625,66.0,78.0
864,190.27083333333334,190.75208333333333,58.0,77.0
865,190.27083333333334,190.8125,61.0,83.0
866,190.27083333333334,190.81666666666666,42.0,82.0
867,190.77083333333334,190.9,54.0,79.0
868,191.02083333333334,191.14583333333334,58.0,56.0
869,191.27083333333334,191.784375,59.0,90.0
870,191.27083333333334,191.79895833333333,63.0,83.0
871,192.02083333333334,192.35833333333332,58.0,73.0
872,192.27083333333334,192.79270833333334,59.0,84.0
873,192.27083333333334,192.81666666666666,63.0,80.0
874,191.77083333333334,192.83541666666667,56.0,19.0
875,191.27083333333334,192.846875,44.0,83.0
876,194.02083333333334,194.365625,68.0,86.0
877,193.77083333333334,194.84583333333333,66.0,86.0
878,193.52083333333334,194.86666666666667,63.0,78.0
879,193.27083333333334,194.88854166666667,56.0,79.0
880,194.27083333333334,195.54270833333334,71.0,91.0
881,195.52083333333334,196.93854166666665,58.0,80.0
882,195.77083333333334,196.946875,63.0,82.0
883,195.27083333333334,196.94895833333334,51.0,84.0
884,196.02083333333334,197.20416666666665,68.0,75.0
885,196.27083333333334,197.38958333333332,70.0,84.0
886,197.27083333333334,198.0375,52.0,86.0
887,197.77083333333334,198.12604166666665,64.0,84.0
888,197.52083333333334,198.16875,59.0,82.0
889,198.02083333333334,198.46354166666666,71.0,84.0
890,198.27083333333334,198.62604166666665,70.0,50.0
891,198.52083333333334,198.96458333333334,61.0,82.0
892,198.27083333333334,198.97604166666667,54.0,81.0
893,198.77083333333334,199.02083333333334,66.0,82.0
894,199.02083333333334,199.55104166666666,68.0,76.0
895,200.27083333333334,200.678125,73.0,79.0
896,199.27083333333334,200.89479166666666,47.0,86.0
897,200.02083333333334,200.9,63.0,73.0
898,199.52083333333334,200.93541666666667,54.0,78.0
899,200.77083333333334,200.94479166666667,73.0,81.0
900,199.77083333333334,200.99375,59.0,83.0
901,201.02083333333334,201.41458333333333,71.0,69.0
902,202.02083333333334,202.35,71.0,79.0
903,202.27083333333334,202.50833333333333,75.0,77.0
904,201.77083333333334,202.59375,66.0,80.0
905,201.52083333333334,202.74479166666666,63.0,76.0
906,201.27083333333334,202.80416666666667,56.0,82.0
907,202.52083333333334,202.81979166666667,78.0,80.0
908,202.77083333333334,203.08958333333334,75.0,79.0
909,203.02083333333334,203.40729166666665,73.0,80.0
910,203.77083333333334,204.384375,63.0,63.0
911,203.52083333333334,204.90937499999998,58.0,78.0
912,203.27083333333334,204.99479166666666,51.0,84.0
913,204.02083333333334,205.00520833333334,68.0,80.0
914,204.27083333333334,205.46145833333333,70.0,84.0
915,205.77083333333334,206.08124999999998,59.0,53.0
916,205.52083333333334,206.1875,56.0,59.0
917,205.27083333333334,206.34479166666665,52.0,80.0
918,206.02083333333334,206.46875,64.0,84.0
919,206.52083333333334,206.82708333333332,61.0,76.0
920,206.27083333333334,206.92291666666665,54.0,84.0
921,206.77083333333334,207.07395833333334,66.0,76.0
922,207.02083333333334,207.25625,68.0,78.0
923,207.27083333333334,207.76354166666667,71.0,83.0
924,207.27083333333334,207.809375,63.0,74.0
925,208.02083333333334,208.34583333333333,58.0,56.0
926,207.77083333333334,208.67291666666665,56.0,73.0
927,207.52083333333334,208.6875,51.0,75.0
928,208.27083333333334,208.69583333333333,63.0,79.0
929,207.27083333333334,208.72708333333333,44.0,80.0
930,210.02083333333334,210.365625,68.0,86.0
931,209.77083333333334,210.84583333333333,66.0,86.0
932,209.52083333333334,210.86666666666667,63.0,78.0
933,209.27083333333334,210.88854166666667,56.0,79.0
934,210.27083333333334,211.54270833333334,71.0,91.0
935,211.52083333333334,212.93854166666665,58.0,80.0
936,211.77083333333334,212.946875,63.0,82.0
937,211.27083333333334,212.94895833333334,51.0,84.0
938,212.02083333333334,213.20416666666665,68.0,75.0
939,212.27083333333334,213.38958333333332,70.0,84.0
940,213.27083333333334,214.0375,52.0,86.0
941,213.77083333333334,214.12604166666665,64.0,84.0
942,213.52083333333334,214.16875,59.0,82.0
943,214.02083333333334,214.46354166666666,71.0,84.0
944,214.27083333333334,214.62604166666665,70.0,50.0
945,214.52083333333334,214.96458333333334,61.0,82.0
946,214.27083333333334,214.97604166666667,54.0,81.0
947,214.77083333333334,215.02083333333334,66.0,82.0
948,215.02083333333334,215.55104166666666,68.0,76.0
949,216.27083333333334,216.678125,73.0,79.0
950,215.27083333333334,216.89479166666666,47.0,86.0
951,216.02083333333334,216.9,63.0,73.0
952,215.52083333333334,216.93541666666667,54.0,78.0
953,216.77083333333334,216.94479166666667,73.0,81.0
954,215.77083333333334,216.99375,59.0,83.0
955,217.02083333333334,217.41458333333333,71.0,69.0
956,218.02083333333334,218.35,71.0,79.0
957,218.27083333333334,218.50833333333333,75.0,77.0
958,217.77083333333334,218.59375,66.0,80.0
959,217.52083333333334,218.74479166666666,63.0,76.0
960,217.27083333333334,218.80416666666667,56.0,82.0
961,218.52083333333334,218.81979166666667,78.0,80.0
962,218.77083333333334,219.08958333333334,75.0,79.0
963,219.02083333333334,219.40729166666665,73.0,80.0
964,219.77083333333334,220.384375,63.0,63.0
965,219.52083333333334,220.90937499999998,58.0,78.0
966,219.27083333333334,220.99479166666666,51.0,84.0
967,220.02083333333334,221.00520833333334,68.0,80.0
968,220.27083333333334,221.46145833333333,70.0,84.0
969,221.77083333333334,222.08124999999998,59.0,53.0
970,221.52083333333334,222.1875,56.0,59.0
971,221.27083333333334,222.34479166666665,52.0,80.0
972,222.02083333333334,222.46875,64.0,84.0
973,222.52083333333334,222.82708333333332,61.0,76.0
974,222.27083333333334,222.92291666666665,54.0,84.0
975,222.77083333333334,223.07395833333334,66.0,76.0
976,223.02083333333334,223.25625,68.0,78.0
977,223.27083333333334,223.76354166666667,71.0,83.0
978,223.27083333333334,223.809375,63.0,74.0
979,224.02083333333334,224.34583333333333,58.0,56.0
980,223.77083333333334,224.67291666666665,56.0,73.0
981,223.52083333333334,224.6875,51.0,75.0
982,224.27083333333334,224.69583333333333,63.0,79.0
983,223.27083333333334,224.72708333333333,44.0,80.0
