,start,end,pitch,velocity
0,35.22474079166666,35.93197791666666,77.0,95.0
1,36.01421479166666,36.405662316666664,77.0,90.0
2,36.40895179166666,36.78559667916666,74.0,103.0
3,36.80368879166666,37.57395924166666,79.0,94.0
4,37.61449979166666,38.38240729166666,77.0,93.0
5,38.23305679166666,38.95708204166666,74.0,91.0
6,39.012276791666665,39.34019854166666,72.0,94.0
7,39.40188679166666,39.760652666666665,70.0,95.0
8,39.79149679166666,41.376431104166656,70.0,90.0
9,41.32995679166666,41.38444391666666,65.0,90.0
10,41.39405929166666,42.09598166666666,67.0,76.0
11,42.09918679166666,42.47739154166666,67.0,90.0
12,42.48380179166666,42.86200654166666,70.0,95.0
13,42.86841679166666,42.95816029166666,70.0,95.0
14,42.91328854166666,43.19533954166666,72.0,82.0
15,43.25303179166666,43.63123654166666,72.0,61.0
16,43.63764679166666,44.01585154166666,70.0,84.0
17,44.02226179166666,44.40046654166666,67.0,86.0
18,44.40687679166666,45.55431154166666,67.0,80.0
19,45.56072179166666,47.47738654166666,65.0,80.0
20,47.48379679166666,48.22754679166666,67.0,100.0
21,48.23379679166666,48.97754679166666,70.0,95.0
22,48.98379679166666,49.72754679166666,70.0,101.0
23,49.73379679166666,50.112001541666665,70.0,95.0
24,50.11841179166666,50.49661654166666,72.0,95.0
25,50.50302679166666,51.285921841666664,74.0,93.0
26,51.29250079166666,52.07539584166666,77.0,84.0
27,52.08197479166666,53.654343841666666,77.0,93.0
28,53.660922791666664,54.443817841666664,82.0,95.0
29,54.45039679166666,54.838554841666664,82.0,95.0
30,54.84513379166666,55.23329184166666,82.0,95.0
31,55.23987079166666,55.63320412499999,79.0,90.0
32,55.63987079166666,56.033204125,77.0,82.0
33,56.03987079166666,56.46740642499999,77.0,84.0
34,56.47465279166666,56.90218842499999,74.0,91.0
35,56.909434791666655,59.80077588333333,72.0,84.0
36,59.809866791666664,60.17861679166666,77.0,86.0
37,60.184866791666664,60.92861679166666,77.0,90.0
38,60.934866791666664,61.30361679166666,74.0,98.0
39,61.309866791666664,62.05361679166666,79.0,91.0
40,62.059866791666664,62.863921033333334,77.0,90.0
41,62.870677791666665,64.08013753333333,70.0,101.0
42,64.08689429166667,64.48554303333333,74.0,95.0
43,64.49229979166667,66.004958675,74.0,100.0
44,66.01128779166666,66.764452675,72.0,91.0
45,66.77078179166666,67.144199675,72.0,93.0
46,67.15052879166667,67.523946675,74.0,91.0
47,67.53027579166667,67.89447345,72.0,95.0
48,67.90064629166667,68.26484395,70.0,84.0
49,68.27101679166667,68.63521445,70.0,91.0
50,68.64138729166667,69.00558495,65.0,86.0
51,69.01175779166667,69.764922675,65.0,84.0
52,69.77125179166667,72.043404675,67.0,84.0
53,72.04973379166667,72.41848379166667,79.0,98.0
54,72.61223379166667,72.9787462,77.0,86.0
55,72.79973379166667,72.9787462,77.0,93.0
56,73.54047479166667,73.92863284166667,74.0,98.0
57,73.93521179166667,74.71810684166667,77.0,86.0
58,74.72468579166667,75.11284384166667,74.0,93.0
59,75.11942279166666,76.31300598333333,77.0,95.0
60,76.31985529166667,76.72396448333333,74.0,98.0
61,76.73081379166666,77.48397867499999,72.0,98.0
62,77.49030779166667,77.87342429166667,72.0,91.0
63,77.87991779166667,78.26303429166667,74.0,90.0
64,78.26952779166666,78.65264429166666,72.0,93.0
65,78.65913779166667,79.04225429166667,70.0,98.0
66,79.04874779166667,79.422165675,72.0,101.0
67,79.42849479166667,79.801912675,70.0,93.0
68,79.80824179166667,80.561406675,67.0,94.0
69,80.56773579166668,80.94115367500001,72.0,94.0
70,80.94748279166667,81.131027175,74.0,94.0
71,81.13735629166668,81.700647675,72.0,94.0
72,81.70697679166668,82.08039467500001,70.0,94.0
73,84.42516579166667,84.81332384166667,82.0,98.0
74,84.81990279166668,85.20806084166668,82.0,98.0
75,85.21463979166667,85.60279784166667,82.0,91.0
76,85.60937679166668,85.99753484166668,79.0,95.0
77,86.00411379166667,86.757278675,82.0,101.0
78,86.76360779166667,87.137025675,84.0,94.0
79,87.14335479166667,87.516772675,86.0,95.0
80,87.52310179166668,87.89651967500001,84.0,95.0
81,87.90284879166667,88.276266675,82.0,95.0
82,88.28259579166667,88.656013675,82.0,94.0
83,88.66234279166667,89.035760675,79.0,98.0
84,89.04208979166667,90.53615195,77.0,95.0
85,90.54232479166667,90.88938344166667,79.0,99.0
86,90.89526579166667,91.24232444166667,79.0,90.0
87,91.24820679166668,91.63132329166667,79.0,98.0
88,91.63781679166668,92.02093329166668,77.0,91.0
89,92.02742679166667,92.87742594166667,79.0,98.0
90,92.88456879166667,93.66746384166666,82.0,95.0
91,93.67404279166666,94.03824045,79.0,90.0
92,94.04441329166667,94.40861095,77.0,83.0
93,94.41478379166666,94.77898145,77.0,91.0
94,94.78515429166667,95.14935195,74.0,95.0
95,95.15552479166666,96.68790967499999,72.0,93.0
96,96.69423879166666,97.81348824166665,77.0,95.0
97,97.81958579166665,98.17934124166665,74.0,98.0
98,98.18543879166666,98.96833384166665,77.0,91.0
99,98.97491279166665,99.36307084166666,77.0,84.0
100,99.36964979166666,99.75780784166666,74.0,93.0
101,99.76438679166665,100.56844103333331,79.0,106.0
102,100.57519779166665,100.94861567499999,79.0,98.0
103,100.95494479166665,101.32836267499998,70.0,95.0
104,101.33469179166666,101.70810967499999,72.0,98.0
105,101.71443879166665,102.84735067499999,74.0,98.0
106,102.85367979166665,103.22709767499998,72.0,95.0
107,103.23342679166666,103.98659167499999,72.0,86.0
108,103.99292079166665,104.36633867499998,70.0,98.0
109,104.37266779166666,105.12583267499998,67.0,98.0
110,105.13216179166665,105.91505684166664,72.0,84.0
111,108.96934779166664,109.34755254166664,82.0,98.0
112,105.92163579166665,109.73216754166664,70.0,101.0
113,109.35396279166665,109.73216754166664,82.0,98.0
114,109.73857779166664,110.11678254166664,82.0,91.0
115,110.12319279166664,110.50139754166665,79.0,95.0
116,110.50780779166664,111.35780694166664,82.0,101.0
117,111.36494979166663,111.7635985333333,84.0,94.0
118,111.77035529166663,112.1690040333333,86.0,95.0
119,112.17576079166663,112.54917867499996,84.0,95.0
120,112.55550779166663,112.92892567499996,82.0,95.0
121,112.93525479166664,113.29945244999998,82.0,94.0
122,113.30562529166664,113.66982294999997,79.0,98.0
123,113.67599579166664,115.15130494999997,77.0,95.0
124,115.15747779166664,115.52167544999998,79.0,99.0
125,115.52784829166664,115.89204594999997,79.0,90.0
126,115.89821879166664,116.26241644999998,79.0,98.0
127,116.26858929166664,116.63278694999997,77.0,91.0
128,116.63895979166664,117.4653473583333,79.0,98.0
129,117.47229179166663,118.23511154166664,82.0,95.0
130,118.24152179166663,118.59694319999996,79.0,90.0
131,118.60296729166663,118.97171729166664,77.0,83.0
132,118.97796729166663,119.34671729166664,77.0,91.0
133,119.35296729166663,119.72171729166664,74.0,95.0
134,119.72796729166663,121.31226498333329,72.0,93.0
135,121.31911429166662,122.08834429166662,77.0,95.0
136,122.08834429166662,122.42969010416662,77.0,95.0
137,122.47295929166663,122.85116404166662,74.0,98.0
138,122.85757429166662,123.61073917499995,77.0,91.0
139,123.61706829166663,123.99048617499996,77.0,84.0
140,123.99681529166662,124.37023317499995,74.0,93.0
141,124.37656229166663,125.12972717499996,79.0,106.0
142,125.13605629166662,125.50947417499995,79.0,98.0
143,125.51580329166663,125.88922117499996,70.0,95.0
144,125.89555029166662,126.26896817499996,72.0,98.0
145,126.27529729166662,127.42777079166663,74.0,98.0
146,127.43426429166662,127.81738079166662,72.0,95.0
147,127.82387429166663,128.59660079166662,72.0,86.0
148,128.60309429166662,129.05757773749997,67.0,86.0
149,128.99270429166663,129.4499829708333,74.0,93.0
150,129.75219829166662,130.07814779999995,74.0,95.0
151,130.13194529166663,130.3851099583333,72.0,91.0
152,130.51169229166663,131.01960390416662,70.0,98.0
153,133.68592929166664,134.77739074166664,82.0,104.0
154,134.78348829166663,135.14324374166665,82.0,100.0
155,135.14934129166664,135.87494974166663,82.0,106.0
156,135.88104729166665,136.634212175,82.0,106.0
157,136.64054129166664,137.39370617499998,84.0,106.0
158,137.40003529166665,137.78819334166664,82.0,104.0
159,137.79477229166665,138.18293034166666,79.0,101.0
160,138.18950929166667,139.74180304166666,77.0,98.0
161,139.74821329166664,140.31872554166665,82.0,100.0
162,140.32513579166664,140.51103304166665,79.0,91.0
163,140.51744329166664,140.89564804166665,79.0,91.0
164,140.90205829166666,141.28026304166664,77.0,84.0
165,141.28667329166666,142.04949304166666,74.0,100.0
166,142.05590329166665,142.81872304166666,77.0,95.0
167,142.82513329166665,143.20333804166665,74.0,91.0
168,143.20974829166664,143.58795304166665,72.0,90.0
169,143.59436329166664,143.97256804166665,70.0,98.0
170,143.97897829166666,144.35718304166664,67.0,91.0
171,144.36359329166666,145.87657329166666,72.0,98.0
172,145.88282329166665,146.43907329166666,77.0,90.0
173,146.44532329166665,147.026156625,77.0,90.0
174,147.03282329166666,147.42615662499998,74.0,101.0
175,147.43282329166666,147.82615662499998,77.0,94.0
176,147.83282329166664,148.226156625,79.0,100.0
177,148.23282329166665,149.026156625,77.0,98.0
178,149.03282329166666,149.3882447,72.0,91.0
179,149.39426879166666,149.7496902,72.0,98.0
180,149.75571429166666,150.1111357,72.0,98.0
181,150.11715979166667,150.47258119999998,70.0,106.0
182,150.47860529166667,150.86172179166667,72.0,98.0
183,150.86821529166667,152.06187953333335,74.0,100.0
184,152.06863629166668,152.63192767500001,72.0,98.0
185,152.6382567916667,152.82180117500002,72.0,103.0
186,152.82813029166667,153.21628834166665,72.0,98.0
187,153.22286729166666,153.61102534166668,70.0,98.0
188,153.61760429166668,154.40049934166666,67.0,100.0
189,154.40707829166666,155.160243175,70.0,103.0
190,155.16657229166665,157.58578585833334,72.0,98.0
191,157.59273029166667,158.41911785833335,74.0,114.0
192,158.42606229166668,159.25244985833334,77.0,104.0
193,159.25939429166667,161.33577985833332,72.0,101.0
194,161.34272429166668,162.73480056666668,67.0,101.0
195,162.74299729166668,165.7050649166667,72.0,103.0
196,165.71101729166668,172.41415617500002,70.0,104.0
