,start,end,pitch,velocity
0,10.544119791666667,10.716417129166667,53.0,63.0
1,10.544119791666667,11.339728085416667,65.0,78.0
2,10.544119791666667,11.381957825,62.0,60.0
3,10.544119791666667,11.414052427083334,60.0,57.0
4,11.354930791666666,11.79243089375,58.0,68.0
5,11.760336291666666,11.890403889583334,60.0,49.0
6,10.544119791666667,12.006957970833334,70.0,62.0
7,12.165741791666667,13.170676404166667,60.0,20.0
8,12.165741791666667,13.210150104166667,62.0,62.0
9,11.760336291666666,13.226597479166667,65.0,72.0
10,10.544119791666667,13.241400116666668,46.0,73.0
11,12.955215791666667,13.372979116666666,58.0,69.0
12,10.949525291666667,13.410808079166667,53.0,58.0
13,13.744689791666667,13.917766541666667,65.0,62.0
14,13.744689791666667,14.356868666666667,60.0,32.0
15,13.744689791666667,14.457830104166668,62.0,59.0
16,13.744689791666667,14.586035104166667,70.0,80.0
17,14.129304791666668,14.911355291666668,53.0,73.0
18,14.513919791666668,15.345649679166666,58.0,73.0
19,14.898534791666668,15.519429854166667,65.0,75.0
20,14.898534791666668,15.649002791666666,60.0,59.0
21,15.283149791666666,15.758758691666666,62.0,76.0
22,15.649002791666666,16.114855741666666,58.0,55.0
23,15.283149791666666,16.123679266666667,53.0,73.0
24,16.014855791666665,16.376620316666667,60.0,78.0
25,13.744689791666667,16.461914391666664,46.0,80.0
26,16.014855791666665,16.545737879166666,65.0,79.0
27,16.367796791666667,16.747846204166663,53.0,71.0
28,16.720737791666664,17.25989399583333,58.0,72.0
29,16.720737791666664,17.451158906249997,65.0,47.0
30,17.805074291666664,18.222609479166664,60.0,68.0
31,18.166519791666666,18.249853041666665,65.0,79.0
32,18.166519791666666,19.008801666666667,58.0,42.0
33,16.720737791666664,19.015295166666665,46.0,82.0
34,18.935749791666666,19.038022416666667,74.0,58.0
35,18.935749791666666,19.044515916666665,86.0,63.0
36,17.443628791666665,19.102957416666666,53.0,54.0
37,19.714969791666665,19.90332577083333,82.0,52.0
38,19.714969791666665,20.064284516666664,70.0,53.0
39,20.926496791666665,21.355067791666663,72.0,68.0
40,20.926496791666665,21.436236541666663,65.0,53.0
41,20.536886791666664,21.519028666666664,58.0,58.0
42,21.316106791666662,21.983313916666663,70.0,79.0
43,20.125928291666664,22.290131791666663,53.0,62.0
44,22.095326791666665,22.351820041666663,58.0,63.0
45,22.095326791666665,22.432988791666663,60.0,77.0
46,22.095326791666665,22.432988791666663,67.0,77.0
47,19.714969791666665,22.519027666666663,46.0,70.0
48,22.484936791666662,22.733313166666665,65.0,78.0
49,22.874546791666663,23.659681791666664,60.0,67.0
50,22.874546791666663,23.678912541666662,62.0,69.0
51,22.874546791666663,23.680515104166663,65.0,75.0
52,23.634040791666663,23.976989166666662,58.0,59.0
53,24.018655791666664,24.468975854166665,60.0,69.0
54,22.874546791666663,24.537886041666663,53.0,70.0
55,24.403270791666664,24.579552666666665,65.0,77.0
56,22.874546791666663,25.233398166666664,46.0,70.0
57,25.172500791666664,25.408077479166664,58.0,74.0
58,25.172500791666664,25.438526166666662,65.0,73.0
59,25.557115791666664,25.683718229166665,41.0,32.0
60,25.557115791666664,25.89525647916666,60.0,79.0
61,25.941730791666664,26.039487104166664,34.0,98.0
62,25.941730791666664,26.327948354166665,53.0,55.0
63,25.941730791666664,26.384038041666663,58.0,72.0
64,25.941730791666664,26.468973854166663,62.0,62.0
65,27.09557579166666,27.23179360416666,60.0,67.0
66,27.09557579166666,27.491408729166665,65.0,75.0
67,27.09557579166666,27.537883041666664,53.0,61.0
68,27.480190791666665,27.701344416666664,62.0,76.0
69,27.480190791666665,27.83916479166666,70.0,83.0
70,27.480190791666665,27.86480579166666,58.0,61.0
71,26.710960791666665,27.980190291666663,46.0,50.0
72,27.86480579166666,28.092369666666663,65.0,78.0
73,28.24942079166666,28.41442079166666,65.0,84.0
74,27.86480579166666,28.462754124999996,53.0,73.0
75,28.24942079166666,28.46442079166666,60.0,78.0
76,29.049420791666662,29.382212666666664,36.0,81.0
77,29.439030791666664,29.83351091666666,48.0,73.0
78,29.049420791666662,29.865978416666664,55.0,74.0
79,29.049420791666662,30.023445791666663,64.0,82.0
80,30.607860791666663,31.093249916666664,72.0,83.0
81,30.607860791666663,31.148444666666663,64.0,76.0
82,30.607860791666663,31.42928854166666,60.0,68.0
83,31.387080791666662,31.49097679166666,67.0,82.0
84,30.218250791666662,31.542924791666664,55.0,61.0
85,29.82864079166666,31.581885791666664,52.0,63.0
86,32.166300791666664,33.029936291666665,58.0,79.0
87,32.166300791666664,33.08513104166666,65.0,76.0
88,33.335130791666664,33.66305254166666,58.0,63.0
89,32.55591079166666,34.690365791666665,48.0,59.0
90,32.94552079166666,34.70130329166666,53.0,58.0
91,32.166300791666664,34.71692829166666,41.0,77.0
92,33.72474079166666,34.74349079166666,57.0,62.0
93,33.72474079166666,34.75911579166666,60.0,76.0
94,33.72474079166666,34.76380329166666,65.0,37.0
95,35.22474079166666,35.97967530416666,58.0,73.0
96,35.22474079166666,36.09809640416666,46.0,75.0
97,35.22474079166666,36.30862280416666,70.0,78.0
98,35.22474079166666,36.92868882083332,62.0,70.0
99,35.22474079166666,36.93206719999999,65.0,77.0
100,37.61449979166666,37.74207717291666,65.0,68.0
101,36.80368879166666,38.23305679166666,41.0,66.0
102,36.80368879166666,38.24929054166666,53.0,62.0
103,38.23305679166666,39.02039366666666,55.0,58.0
104,38.23305679166666,39.11454941666666,43.0,70.0
105,38.23305679166666,39.12266629166666,67.0,71.0
106,38.23305679166666,39.12915979166666,58.0,68.0
107,38.23305679166666,39.86681722916666,62.0,76.0
108,39.79149679166666,40.77867529166666,43.0,71.0
109,40.56072679166666,40.78989322916666,58.0,78.0
110,40.56072679166666,40.80591885416666,67.0,80.0
111,41.32995679166666,41.94534079166666,55.0,30.0
112,41.32995679166666,41.95014847916666,58.0,78.0
113,41.32995679166666,42.01425097916666,63.0,73.0
114,42.48380179166666,42.863609104166656,65.0,72.0
115,42.86841679166666,43.67290316666666,63.0,75.0
116,42.86841679166666,43.70815954166666,58.0,70.0
117,42.86841679166666,43.91168497916666,67.0,72.0
118,43.63764679166666,43.92130035416666,70.0,79.0
119,41.32995679166666,43.95014647916666,39.0,75.0
120,41.32995679166666,43.990210541666656,51.0,60.0
121,44.40687679166666,45.12482479166666,65.0,75.0
122,44.40687679166666,45.227388791666655,57.0,70.0
123,45.94533679166666,46.17450322916666,65.0,62.0
124,45.94533679166666,46.19052885416666,57.0,70.0
125,45.94533679166666,46.21937497916666,60.0,68.0
126,45.94533679166666,46.890848666666656,53.0,57.0
127,46.714566791666655,46.90687429166666,63.0,77.0
128,46.714566791666655,46.92450247916666,58.0,80.0
129,46.714566791666655,46.94693835416666,55.0,59.0
130,44.40687679166666,46.96937422916666,41.0,76.0
131,47.48379679166666,47.64160929166666,34.0,81.0
132,47.48379679166666,47.76035929166666,53.0,68.0
133,47.48379679166666,47.802546791666664,58.0,82.0
134,47.48379679166666,47.87598429166666,65.0,73.0
135,48.98379679166666,49.277546791666666,62.0,67.0
136,48.98379679166666,49.277546791666666,65.0,71.0
137,48.98379679166666,49.47754679166666,70.0,77.0
138,49.73379679166666,49.88283510416666,60.0,70.0
139,49.73379679166666,49.92610429166666,65.0,84.0
140,48.98379679166666,50.03668110416666,46.0,73.0
141,50.50302679166666,50.882961154166665,70.0,79.0
142,50.50302679166666,50.90598747916666,65.0,79.0
143,50.50302679166666,50.955329604166664,62.0,74.0
144,52.08197479166666,52.537567079166664,58.0,76.0
145,52.08197479166666,52.56388287916666,53.0,60.0
146,52.08197479166666,52.925725129166665,65.0,69.0
147,50.50302679166666,53.03427780416666,43.0,75.0
148,52.476711791666666,53.154343641666664,50.0,57.0
149,52.871448791666666,53.23658051666666,60.0,82.0
150,53.266185791666665,53.45368586666666,65.0,75.0
151,53.660922791666664,54.62144949166667,58.0,82.0
152,53.660922791666664,54.65269950416666,55.0,71.0
153,53.660922791666664,54.79743640416666,63.0,75.0
154,54.84513379166666,55.22013394166666,62.0,51.0
155,55.23987079166666,56.11595764166666,63.0,67.0
156,55.23987079166666,56.17030539166666,58.0,68.0
157,55.23987079166666,56.18117494166666,55.0,53.0
158,55.23987079166666,56.27356611666666,51.0,52.0
159,53.660922791666664,56.315232724999994,39.0,79.0
160,56.909434791666655,57.72907682916666,60.0,82.0
161,56.909434791666655,57.78046568124999,58.0,69.0
162,57.76657679166666,57.78046568124999,58.0,72.0
163,58.24276729166666,58.58998953124999,60.0,80.0
164,58.24276729166666,58.68324350416666,57.0,71.0
165,58.24276729166666,58.85759414374999,53.0,51.0
166,58.71895779166666,59.18032138958333,58.0,83.0
167,58.99168504166666,59.425775914583326,53.0,40.0
168,59.26441229166666,59.57804862916666,60.0,82.0
169,59.53713954166666,59.823929291666666,65.0,80.0
170,56.909434791666655,59.86611679166666,41.0,75.0
171,59.809866791666664,60.105179291666666,74.0,76.0
172,60.559866791666664,61.57080429166666,58.0,66.0
173,60.934866791666664,61.65674179166666,65.0,80.0
174,61.684866791666664,62.11054247916666,62.0,68.0
175,61.684866791666664,62.127434375,70.0,73.0
176,60.184866791666664,62.262569541666664,53.0,71.0
177,62.059866791666664,62.53959663333333,65.0,80.0
178,59.809866791666664,62.553110149999995,46.0,74.0
179,62.870677791666665,63.58858336458333,58.0,80.0
180,62.870677791666665,63.64939418958333,65.0,82.0
181,64.08689429166667,64.47540789583333,60.0,72.0
182,63.276083291666666,65.32932547083334,50.0,72.0
183,64.49229979166667,65.397363475,58.0,43.0
184,64.49229979166667,65.46540147916667,62.0,57.0
185,63.681488791666666,65.57616102083334,55.0,54.0
186,65.25179379166667,65.6869205625,65.0,77.0
187,62.870677791666665,65.69008512083333,43.0,74.0
188,65.63154079166667,65.72805982083334,50.0,80.0
189,66.01128779166666,66.4511614,55.0,68.0
190,66.01128779166666,66.47806014583334,58.0,81.0
191,66.77078179166666,67.25495921666666,55.0,68.0
192,67.15052879166667,67.51761755833333,62.0,72.0
193,67.53027579166667,68.31731310416667,58.0,75.0
194,67.53027579166667,68.41299215000001,55.0,57.0
195,67.53027579166667,68.42533783333333,63.0,73.0
196,66.01128779166666,68.55959713958333,39.0,83.0
197,66.39103479166667,68.65064655416667,51.0,41.0
198,68.27101679166667,68.92688121875,62.0,80.0
199,69.01175779166667,69.92473287083334,60.0,83.0
200,69.77125179166667,70.26017605416666,53.0,47.0
201,70.15099879166667,70.53865718750001,58.0,79.0
202,70.53074579166667,70.85511302083333,60.0,80.0
203,70.91049279166667,71.08612577916666,62.0,78.0
204,71.29023979166666,71.4595436625,63.0,79.0
205,69.01175779166667,71.52758166666666,41.0,77.0
206,71.66998679166667,71.79498684583334,65.0,77.0
207,72.04973379166667,72.95405483333333,62.0,80.0
208,72.04973379166667,73.01578325,70.0,91.0
209,73.17010429166668,73.56350111666667,65.0,83.0
210,73.54047479166667,73.91711967916667,67.0,82.0
211,72.79973379166667,74.02238287916667,58.0,86.0
212,73.93521179166667,74.38751460416667,65.0,78.0
213,72.42473379166667,74.39902776666666,53.0,72.0
214,74.32994879166667,74.75758054166667,60.0,75.0
215,72.04973379166667,74.78060686666667,46.0,84.0
216,74.72468579166667,75.10955436666667,62.0,82.0
217,74.72468579166667,75.17040965416666,53.0,75.0
218,75.11942279166666,76.03732132291667,65.0,83.0
219,75.11942279166666,76.059581575,60.0,72.0
220,75.51415979166667,76.67944397916666,53.0,76.0
221,76.31985529166667,76.79410495833334,67.0,73.0
222,75.90889679166666,76.95707971249999,58.0,77.0
223,76.73081379166666,77.55848954166666,65.0,79.0
224,77.11056079166666,77.76952829166666,53.0,73.0
225,75.11942279166666,77.81173604166666,46.0,81.0
226,77.49030779166667,77.81822954166667,62.0,93.0
227,77.87991779166667,78.63478716666667,60.0,82.0
228,78.26952779166666,79.05033007083334,65.0,83.0
229,78.26952779166666,79.12153263333333,57.0,82.0
230,79.04874779166667,79.64684931666667,53.0,76.0
231,79.42849479166667,80.32722935833334,57.0,75.0
232,79.80824179166667,80.40159647916667,63.0,84.0
233,78.65913779166667,80.49178639166666,48.0,75.0
234,80.18798879166667,80.65317886666666,53.0,63.0
235,78.26952779166666,80.82881185416667,41.0,78.0
236,80.56773579166668,80.94906507083334,60.0,84.0
237,80.94748279166667,81.26552090416666,63.0,84.0
238,81.32722979166667,81.68324260416667,34.0,79.0
239,81.70697679166668,82.12628077083333,46.0,76.0
240,81.32722979166667,82.15317951666667,53.0,78.0
241,81.32722979166667,82.1848251,58.0,86.0
242,81.32722979166667,82.46963535,62.0,84.0
243,83.04358629166667,83.25740216666668,58.0,75.0
244,83.24095479166668,83.47286277916668,60.0,76.0
245,83.43832329166668,83.54523122916667,62.0,78.0
246,82.08672379166667,83.80509975416668,48.0,76.0
247,82.46647079166667,83.81003396666668,50.0,79.0
248,83.63569179166667,83.83306029166667,65.0,84.0
249,82.84621779166667,83.84950766666668,53.0,79.0
250,83.83306029166667,84.07154722916667,70.0,80.0
251,84.03042879166668,84.18667885416667,72.0,82.0
252,84.22779729166668,84.39884999166668,77.0,82.0
253,84.42516579166667,84.98766601666668,62.0,86.0
254,84.42516579166667,85.10115290416667,65.0,84.0
255,84.42516579166667,85.18503451666668,70.0,98.0
256,85.21463979166667,85.99260062916667,58.0,80.0
257,84.81990279166668,86.01360746666667,53.0,79.0
258,84.42516579166667,86.02784797916667,46.0,91.0
259,85.60937679166668,86.04841760833334,62.0,73.0
260,86.00411379166667,86.0784809125,65.0,83.0
261,86.00411379166667,86.08164547083334,70.0,83.0
262,87.38069666666667,87.6449372875,70.0,76.0
263,87.44715239166666,87.86170953333334,75.0,61.0
264,87.52310179166668,88.19398815833334,82.0,61.0
265,88.28259579166667,88.47246929166667,63.0,75.0
266,87.52310179166668,88.49145664166667,51.0,76.0
267,87.90284879166667,88.51360855,58.0,68.0
268,88.92025429583333,89.37436841666667,72.0,59.0
269,89.04208979166667,89.42658362916667,81.0,82.0
270,88.98512774166667,89.4487355375,77.0,71.0
271,89.80158379166667,90.03152214375001,65.0,55.0
272,89.42183679166666,90.07473203541667,60.0,71.0
273,89.80158379166667,90.12411476875,69.0,70.0
274,89.04208979166667,90.17195429166668,53.0,72.0
275,90.17195429166668,90.26454691666667,72.0,90.0
276,90.54232479166667,91.27093404166668,43.0,75.0
277,90.89526579166667,91.29041454166668,50.0,52.0
278,90.54232479166667,91.66054404166667,70.0,86.0
279,91.24820679166668,91.70437516666668,55.0,68.0
280,90.54232479166667,91.78067379166667,62.0,80.0
281,91.63781679166668,92.02742679166667,69.0,82.0
282,91.63781679166668,92.12385526666667,57.0,75.0
283,92.02742679166667,92.76314034166667,70.0,90.0
284,92.02742679166667,92.84885454166667,62.0,71.0
285,92.02742679166667,92.86849737916667,58.0,78.0
286,92.88456879166667,93.25627946666667,57.0,79.0
287,92.88456879166667,93.34180581666666,65.0,83.0
288,93.54246379166666,93.95182066666666,59.0,60.0
289,93.58687170416667,94.34225290208333,62.0,71.0
290,93.67404279166666,94.353055375,43.0,73.0
291,93.67404279166666,94.37620353125,65.0,72.0
292,94.04441329166667,94.39009242499999,50.0,69.0
293,94.78515429166667,94.87929012708334,59.0,82.0
294,94.41478379166666,94.89780865208333,53.0,75.0
295,95.15552479166666,95.58571916666666,63.0,80.0
296,95.15552479166666,95.62305679166667,58.0,62.0
297,95.15552479166666,95.64253729166667,67.0,70.0
298,95.15552479166666,95.70260216666667,70.0,69.0
299,95.15552479166666,96.23379555416666,48.0,71.0
300,95.93474479166666,96.25594746249999,65.0,79.0
301,95.54513479166667,96.33189686249999,55.0,61.0
302,96.31449179166665,96.56607417916666,67.0,81.0
303,96.69423879166666,97.49946441666665,70.0,84.0
304,96.69423879166666,97.50098880416665,62.0,76.0
305,96.69423879166666,97.50556196666665,65.0,79.0
306,96.69423879166666,97.75861029166666,46.0,78.0
307,97.07398579166666,97.77690294166665,53.0,69.0
308,97.45373279166665,97.77995171666666,58.0,76.0
309,97.81958579166665,98.17019491666666,70.0,83.0
310,98.18543879166666,98.56701789166665,60.0,75.0
311,98.18543879166666,98.61636001666666,65.0,80.0
312,98.18543879166666,98.63774160416665,69.0,83.0
313,98.97491279166665,99.18872866666666,72.0,80.0
314,98.18543879166666,99.35813662916665,57.0,80.0
315,98.18543879166666,99.37787347916665,50.0,72.0
316,99.36964979166666,99.70188676666666,69.0,84.0
317,99.76438679166665,100.25425177083332,62.0,76.0
318,99.76438679166665,100.30830583749999,70.0,84.0
319,100.16979229166665,100.80621054999999,58.0,80.0
320,100.57519779166665,100.84418524999998,62.0,72.0
321,99.76438679166665,100.87899539166665,55.0,72.0
322,100.57519779166665,100.95019795416665,69.0,78.0
323,100.95494479166665,101.04355242499999,70.0,91.0
324,101.33469179166666,101.77140084166665,70.0,83.0
325,101.33469179166666,101.85051479999998,62.0,75.0
326,101.33469179166666,101.99766676249999,43.0,68.0
327,101.71443879166665,102.09102123333332,69.0,78.0
328,101.71443879166665,102.09893262916665,50.0,74.0
329,102.09418579166666,102.20652761249998,62.0,56.0
330,102.09418579166666,102.23817319583333,70.0,84.0
331,102.47393279166666,102.53564167916666,57.0,80.0
332,102.09418579166666,102.54197079583332,55.0,56.0
333,102.47393279166666,102.56886954166666,72.0,83.0
334,102.85367979166665,103.18595841666665,67.0,78.0
335,102.85367979166665,103.20969260416665,63.0,75.0
336,103.23342679166666,103.65431304999998,62.0,73.0
337,103.61317379166665,103.70019914583332,63.0,84.0
338,103.61317379166665,104.04513600416665,60.0,73.0
339,103.99292079166665,104.32045257916666,67.0,50.0
340,104.37266779166666,104.56254129166665,67.0,34.0
341,104.37266779166666,104.62583245833332,60.0,58.0
342,104.37266779166666,104.62741473749999,75.0,81.0
343,102.85367979166665,104.79355404999998,48.0,76.0
344,103.23342679166666,104.94861740833332,55.0,63.0
345,105.13216179166665,105.56308301666665,53.0,80.0
346,105.13216179166665,105.56308301666665,74.0,84.0
347,105.13216179166665,105.58446460416664,65.0,76.0
348,105.52689879166665,105.65847779166664,72.0,83.0
349,105.92163579166665,106.35359800416664,65.0,73.0
350,105.92163579166665,106.80138300833332,70.0,84.0
351,106.68112979166665,107.15264898333331,58.0,75.0
352,107.06087679166664,107.4327123958333,67.0,78.0
353,107.44062379166664,107.68271250416664,62.0,77.0
354,107.44062379166664,107.76024418333331,65.0,82.0
355,106.30138279166664,107.78081381249999,53.0,60.0
356,107.44062379166664,107.78397837083331,58.0,55.0
357,108.20011779166664,108.32191254166665,58.0,72.0
358,108.20011779166664,108.36678429166665,53.0,80.0
359,105.92163579166665,108.39402785416664,46.0,79.0
360,108.20011779166664,108.41005347916665,62.0,81.0
361,108.96934779166664,109.51742416666664,62.0,86.0
362,108.96934779166664,109.62800097916664,65.0,84.0
363,108.96934779166664,109.70973166666664,70.0,98.0
364,109.73857779166664,110.49658985416664,58.0,80.0
365,109.35396279166665,110.51852206666663,53.0,79.0
366,108.96934779166664,110.53459347916663,46.0,91.0
367,110.12319279166664,110.55780774166664,62.0,73.0
368,110.50780779166664,110.59173627916664,65.0,83.0
369,110.50780779166664,110.59530770416663,70.0,83.0
370,112.03217967708329,112.30708996249997,70.0,76.0
371,112.1081932083333,112.5286090458333,75.0,61.0
372,112.17576079166663,112.8466471583333,82.0,61.0
373,112.93525479166664,113.12044004166664,63.0,75.0
374,112.17576079166663,113.13895856666663,51.0,76.0
375,112.55550779166663,113.16056351249998,58.0,68.0
376,113.52167474999997,113.9645761395833,72.0,59.0
377,113.59266242916664,114.04482308124997,77.0,71.0
378,113.67599579166664,114.05099592291664,81.0,82.0
379,114.41673679166664,114.64667514374997,65.0,55.0
380,114.04636629166664,114.68988503541664,60.0,71.0
381,114.41673679166664,114.73926776874997,69.0,70.0
382,113.67599579166664,114.78710729166664,53.0,72.0
383,114.78710729166664,114.87969991666664,72.0,90.0
384,115.15747779166664,115.91982373749997,43.0,75.0
385,115.52784829166664,115.93834226249997,50.0,52.0
386,115.15747779166664,116.29019423749997,70.0,86.0
387,115.89821879166664,116.33186091874997,55.0,68.0
388,115.15747779166664,116.4043918083333,62.0,80.0
389,116.26858929166664,116.63895979166664,69.0,82.0
390,116.26858929166664,116.73270964166663,57.0,75.0
391,116.63895979166664,117.35423642499997,70.0,90.0
392,116.63895979166664,117.43756962499997,62.0,71.0
393,116.63895979166664,117.45666681666664,58.0,78.0
394,117.47229179166663,117.83447091666663,57.0,79.0
395,117.47229179166663,117.91780416666664,65.0,83.0
396,118.24152179166663,118.91546729166663,43.0,73.0
397,118.16780391666663,118.91546729166663,62.0,71.0
398,118.24152179166663,118.93890479166663,65.0,72.0
399,118.60296729166663,118.95296729166662,50.0,69.0
400,119.35296729166663,119.44827979166664,59.0,82.0
401,118.97796729166663,119.46702979166663,53.0,75.0
402,119.72796729166663,120.15264635416663,63.0,80.0
403,119.72796729166663,120.18950529166663,58.0,62.0
404,119.72796729166663,120.20873604166663,67.0,70.0
405,119.72796729166663,120.26803085416662,70.0,69.0
406,119.72796729166663,120.82082711041663,48.0,71.0
407,120.49719729166662,120.84479968958328,65.0,79.0
408,120.11258229166663,120.92699138958329,55.0,61.0
409,120.90815579166663,121.18041579791662,67.0,81.0
410,121.31911429166662,122.13642116666662,70.0,84.0
411,121.31911429166662,122.13802372916662,62.0,76.0
412,121.31911429166662,122.14283141666662,65.0,79.0
413,121.31911429166662,122.40885679166662,46.0,78.0
414,121.70372929166662,122.42808754166663,53.0,69.0
415,122.08834429166662,122.43129266666662,58.0,76.0
416,122.47295929166663,122.84154866666663,70.0,83.0
417,122.85757429166662,123.22466305833329,60.0,75.0
418,122.85757429166662,123.27213143333329,65.0,80.0
419,122.85757429166662,123.29270106249996,69.0,83.0
420,123.61706829166663,123.8227645833333,72.0,80.0
421,122.85757429166662,123.98573933749995,57.0,80.0
422,122.85757429166662,124.00472668749995,50.0,72.0
423,123.99681529166662,124.3164356833333,69.0,84.0
424,124.37656229166663,124.83542324999996,62.0,76.0
425,124.37656229166663,124.8860561833333,70.0,84.0
426,124.75630929166662,125.36706904999996,58.0,80.0
427,125.13605629166662,125.40504374999996,62.0,72.0
428,124.37656229166663,125.43985389166663,55.0,72.0
429,125.13605629166662,125.51105645416662,69.0,78.0
430,125.51580329166663,125.60441092499995,70.0,91.0
431,125.89555029166662,126.33225934166663,70.0,83.0
432,125.89555029166662,126.41137329999995,62.0,75.0
433,125.89555029166662,126.55852526249996,43.0,68.0
434,126.27529729166662,126.65187973333329,69.0,78.0
435,126.27529729166662,126.65991441666662,50.0,74.0
436,126.65504429166663,126.77030391666662,62.0,56.0
437,126.65504429166663,126.80277141666663,70.0,84.0
438,127.04465429166663,127.10796591666663,57.0,80.0
439,126.65504429166663,127.11445941666663,55.0,56.0
440,127.04465429166663,127.14205679166663,72.0,83.0
441,127.43426429166662,127.77517304166663,67.0,78.0
442,127.43426429166662,127.79952366666663,63.0,75.0
443,127.82387429166663,128.25569204166663,62.0,73.0
444,128.21348429166662,128.30276991666662,63.0,84.0
445,128.21348429166662,128.65666566666664,60.0,73.0
446,128.60309429166662,128.93913291666664,67.0,50.0
447,128.99270429166663,129.18257779166663,67.0,34.0
448,128.99270429166663,129.2458689583333,60.0,58.0
449,127.43426429166662,129.41359054999995,48.0,76.0
450,127.82387429166663,129.5686539083333,55.0,63.0
451,129.75219829166662,130.1667554333333,53.0,80.0
452,129.75219829166662,130.1667554333333,74.0,84.0
453,129.75219829166662,130.18732506249995,65.0,76.0
454,130.13194529166663,130.25852762499997,72.0,83.0
455,130.32181879166663,130.65726197499995,62.0,43.0
456,130.51169229166663,130.91359119999996,70.0,90.0
457,130.51169229166663,130.95789501666664,65.0,76.0
458,130.51169229166663,131.61454087083328,46.0,84.0
459,131.27118629166662,131.6715029208333,58.0,86.0
460,130.89143929166661,131.9230853083333,53.0,77.0
461,131.65093329166663,132.0671385666666,60.0,82.0
462,132.0306802916666,132.25637437499995,62.0,79.0
463,132.23901329166662,132.3535964416666,63.0,80.0
464,132.4473462916666,132.66783204999996,65.0,84.0
465,132.0306802916666,132.6747764833333,46.0,83.0
466,132.4473462916666,132.81887347499995,53.0,73.0
467,132.65567929166662,132.91709443124995,67.0,75.0
468,132.86401229166663,133.0009984583333,69.0,84.0
469,132.86401229166663,133.2681214833333,58.0,60.0
470,133.06949154166662,133.33147758541662,70.0,98.0
471,133.27497079166662,133.36914878124995,60.0,83.0
472,133.27497079166662,133.52325821874996,72.0,80.0
473,133.48045004166661,133.77586815416663,74.0,83.0
474,133.68592929166664,134.48928150416663,70.0,96.0
475,133.68592929166664,134.50452537916664,67.0,83.0
476,133.68592929166664,134.53501312916663,75.0,93.0
477,134.41763529166664,134.78806145416664,63.0,84.0
478,134.78348829166663,135.00604886666665,67.0,76.0
479,134.78348829166663,135.18745097916664,74.0,84.0
480,134.05178229166663,135.25757280416664,58.0,79.0
481,135.14934129166664,135.35056044166663,70.0,79.0
482,135.14934129166664,135.35665799166665,67.0,80.0
483,135.14934129166664,135.60208437916663,75.0,90.0
484,135.51519429166663,135.91427515416666,58.0,69.0
485,135.14934129166664,135.97123720416664,63.0,84.0
486,135.88104729166665,136.12155372499998,65.0,82.0
487,135.88104729166665,136.16585754166664,74.0,90.0
488,133.68592929166664,136.31459178333333,51.0,83.0
489,136.26079429166666,136.34307280833332,58.0,86.0
490,136.26079429166666,136.5914906375,70.0,90.0
491,136.64054129166664,136.70857929583332,65.0,73.0
492,136.64054129166664,137.26079472499998,63.0,73.0
493,136.64054129166664,137.2781997958333,72.0,83.0
494,137.40003529166665,137.64839065416666,60.0,84.0
495,137.40003529166665,137.69937751666666,63.0,79.0
496,137.40003529166665,137.77668017916665,70.0,84.0
497,137.02028829166665,137.80793019166666,55.0,76.0
498,136.64054129166664,137.83260125416666,48.0,83.0
499,137.79477229166665,138.12043031666664,67.0,82.0
500,138.18950929166667,138.65497000416664,60.0,84.0
501,138.18950929166667,138.69279896666666,65.0,86.0
502,138.97898329166665,139.30270091666665,72.0,83.0
503,138.58424629166666,139.40366235416664,57.0,82.0
504,138.18950929166667,139.41007260416666,50.0,86.0
505,138.97898329166665,139.42770079166664,60.0,78.0
506,139.36359829166665,139.62161085416665,69.0,84.0
507,139.74821329166664,140.34596910416664,65.0,84.0
508,139.74821329166664,140.37321266666666,62.0,77.0
509,139.74821329166664,140.54468685416666,70.0,90.0
510,140.51744329166664,141.04789147916665,58.0,79.0
511,140.90205829166666,141.13442985416665,62.0,76.0
512,140.90205829166666,141.27064766666666,69.0,84.0
513,140.13282829166664,141.48058335416664,53.0,75.0
514,141.28667329166666,141.55430122916664,65.0,80.0
515,141.28667329166666,141.56712172916664,62.0,80.0
516,141.28667329166666,141.67128829166666,58.0,80.0
517,141.28667329166666,141.72096772916666,70.0,90.0
518,141.67128829166666,142.11199297916664,53.0,69.0
519,142.05590329166665,142.48378747916666,60.0,83.0
520,142.05590329166665,142.50462079166664,65.0,91.0
521,139.74821329166664,142.53346691666664,46.0,84.0
522,142.44051829166665,142.53346691666664,53.0,78.0
523,142.82513329166665,143.39404297916664,43.0,81.0
524,142.82513329166665,143.39404297916664,62.0,73.0
525,142.82513329166665,143.43731216666666,70.0,81.0
526,143.20974829166664,143.59436329166664,50.0,79.0
527,143.59436329166664,143.90365785416665,67.0,84.0
528,143.59436329166664,143.93090141666664,62.0,75.0
529,143.59436329166664,144.15205504166664,55.0,56.0
530,143.97897829166666,144.32352922916664,57.0,80.0
531,143.97897829166666,144.35237535416664,65.0,79.0
532,144.36359329166666,144.80269541666664,63.0,80.0
533,144.36359329166666,144.80910566666665,58.0,80.0
534,144.36359329166666,144.84596460416665,67.0,80.0
535,144.36359329166666,145.54376079166664,48.0,83.0
536,144.74820829166666,145.56094829166665,55.0,76.0
537,145.13282329166665,145.58282329166664,58.0,78.0
538,145.50782329166665,145.74688579166664,70.0,86.0
539,146.25782329166665,146.92782329166664,57.0,82.0
540,146.63282329166665,147.0194899583333,62.0,75.0
541,146.63282329166665,147.06448995833333,72.0,83.0
542,147.03282329166666,147.3944899583333,69.0,90.0
543,147.43282329166666,147.80782329166666,60.0,78.0
544,147.43282329166666,148.04282329166665,65.0,82.0
545,145.88282329166665,148.3644899583333,50.0,73.0
546,147.43282329166666,148.38615662499998,57.0,79.0
547,148.23282329166665,148.48782329166664,60.0,78.0
548,148.23282329166665,148.57615662499998,69.0,86.0
549,149.03282329166666,149.71655769583333,63.0,83.0
550,149.03282329166666,149.72107576458333,67.0,78.0
551,149.03282329166666,150.12770195208333,48.0,77.0
552,149.75571429166666,150.18794286874999,60.0,83.0
553,149.39426879166666,150.2180633270833,55.0,76.0
554,150.11715979166667,150.42890653541667,67.0,76.0
555,150.47860529166667,150.83899454166666,60.0,73.0
556,150.47860529166667,151.01756579166667,65.0,77.0
557,151.25782529166668,151.57201455416669,62.0,72.0
558,151.25782529166668,151.57370374375,72.0,79.0
559,150.47860529166667,151.62437943125002,50.0,84.0
560,151.25782529166668,151.64633889583334,65.0,75.0
561,150.86821529166667,151.64802808541668,57.0,78.0
562,151.66323079166668,151.8422848875,69.0,86.0
563,152.06863629166668,152.5528137166667,60.0,78.0
564,152.06863629166668,152.69996567916667,67.0,80.0
565,152.4483832916667,153.05345932916666,55.0,72.0
566,152.82813029166667,153.12911725416666,60.0,55.0
567,152.82813029166667,153.20313044166667,65.0,83.0
568,153.22286729166666,153.57319637916666,67.0,81.0
569,152.06863629166668,153.70313064166666,48.0,79.0
570,153.61760429166668,154.00905181666667,60.0,79.0
571,153.61760429166668,154.08635447916666,64.0,84.0
572,154.40707829166666,154.65391384166665,60.0,62.0
573,154.40707829166666,154.704546775,64.0,77.0
574,154.01234129166667,154.723534125,55.0,69.0
575,154.40707829166666,154.7377746375,72.0,86.0
576,153.61760429166668,154.75517970833334,52.0,84.0
577,155.16657229166665,155.84062321666667,41.0,80.0
578,155.54631929166666,155.88809159166667,48.0,80.0
579,155.16657229166665,156.37919056666667,63.0,79.0
580,155.16657229166665,156.391343325,58.0,54.0
581,155.92606629166667,156.40523219166667,53.0,58.0
582,155.16657229166665,156.818425975,67.0,75.0
583,157.38439729166666,157.62398024166666,63.0,83.0
584,157.59273029166667,157.70731344166668,65.0,82.0
585,157.17606429166668,157.7194662,60.0,80.0
586,156.75939829166668,157.85488265,57.0,81.0
587,156.34273229166666,157.891340925,55.0,73.0
588,157.80106329166668,157.91391033333335,67.0,68.0
589,158.00939629166666,158.26460421666667,70.0,84.0
590,158.21772929166667,158.328840225,72.0,82.0
591,158.42606229166668,158.87745045833333,63.0,84.0
592,158.42606229166668,158.89307543333334,58.0,90.0
593,158.42606229166668,158.97293641666667,55.0,79.0
594,158.42606229166668,159.50418556666668,51.0,67.0
595,159.25939429166667,159.68994915833335,63.0,80.0
596,159.25939429166667,159.73856019166666,58.0,83.0
597,159.25939429166667,159.77154625,55.0,69.0
598,159.67606029166666,159.797587875,51.0,74.0
599,158.42606229166668,159.82710171666668,39.0,83.0
600,160.09272629166668,160.61876711666667,65.0,84.0
601,160.09272629166668,160.67953090833333,57.0,90.0
602,160.09272629166668,160.71251696666667,60.0,90.0
603,160.09272629166668,161.24203000833333,51.0,81.0
604,161.34272429166668,161.474668525,51.0,57.0
605,160.92605829166666,161.51459901666666,65.0,80.0
606,160.92605829166666,161.52501566666666,57.0,84.0
607,160.92605829166666,161.54237675000002,60.0,90.0
608,160.09272629166668,161.59793221666666,39.0,90.0
609,162.74299729166668,162.89612229166667,34.0,94.0
610,162.74299729166668,163.1367472916667,58.0,80.0
611,162.74299729166668,163.14143479166668,53.0,81.0
612,162.74299729166668,163.19455979166668,62.0,83.0
613,163.49299729166668,163.74725858750003,60.0,83.0
614,163.49299729166668,163.77282676250002,65.0,82.0
615,163.8339062916667,164.2741302625,53.0,76.0
616,164.17481529166668,164.31008913125,65.0,79.0
617,164.17481529166668,164.35803428958334,62.0,84.0
618,164.17481529166668,164.51899303541668,70.0,91.0
619,164.17481529166668,164.66796549166668,58.0,71.0
620,164.9967322916667,165.0354227291667,70.0,68.0
621,164.9967322916667,165.41042235416668,60.0,84.0
622,163.49299729166668,165.4446485104167,46.0,79.0
623,164.9967322916667,165.4907794166667,65.0,86.0
624,165.3538747916667,165.4952436979167,58.0,80.0
625,164.58577379166667,165.57113647916668,53.0,58.0
626,165.71101729166668,166.18571919791668,62.0,81.0
627,165.71101729166668,166.1991120416667,65.0,82.0
628,165.71101729166668,166.2020882291667,70.0,90.0
629,165.71101729166668,166.3151833541667,46.0,83.0
630,166.0681597916667,166.4208380104167,53.0,76.0
631,166.4253022916667,166.54881407291668,62.0,78.0
632,166.4253022916667,166.6276830416667,69.0,81.0
633,166.78244479166668,166.8345280729167,62.0,61.0
634,166.4253022916667,166.8613137604167,58.0,86.0
635,166.78244479166668,166.8836351666667,70.0,90.0
636,167.1395872916667,167.23835275833335,65.0,77.0
637,166.78244479166668,167.27693301875001,60.0,80.0
638,167.1395872916667,167.28156265,74.0,82.0
639,167.1395872916667,167.55471089375,62.0,81.0
640,167.5099577916667,167.64730351875002,60.0,78.0
641,167.8803282916667,168.22446421458335,70.0,84.0
642,167.8803282916667,168.22446421458335,77.0,84.0
643,167.8803282916667,168.25841484375002,65.0,83.0
644,169.3618102916667,169.56242764583334,60.0,80.0
645,169.17662504166668,169.57631653958336,58.0,81.0
646,169.5469955416667,169.7090326354167,65.0,72.0
647,169.73218079166668,169.85255120416667,70.0,80.0
648,169.9173660416667,170.05008213750003,72.0,76.0
649,170.10255129166669,170.2583952916667,74.0,73.0
650,170.10255129166669,170.3704081666667,58.0,44.0
651,170.2973562916667,170.44670679166668,77.0,73.0
652,170.4921612916667,170.67884941666668,72.0,79.0
653,170.6869662916667,170.87203104166667,70.0,79.0
654,170.8817712916667,171.01164129166668,65.0,79.0
655,170.8817712916667,171.06683604166668,58.0,56.0
656,168.62106929166669,171.0863165416667,46.0,90.0
657,171.0765762916667,171.21293979166668,63.0,75.0
658,168.9914397916667,171.3817707916667,53.0,79.0
659,171.2713812916667,171.4580694166667,62.0,73.0
660,171.46618629166667,171.68630775833336,60.0,84.0
661,171.66099129166668,172.02808005833333,70.0,74.0
662,171.66099129166668,172.05023196666667,58.0,80.0
663,171.66099129166668,172.0597256416667,63.0,83.0
664,171.66099129166668,172.06447247916668,67.0,83.0
665,171.66099129166668,172.28915612083335,51.0,73.0
666,172.42048529166667,172.7464348,58.0,84.0
667,172.42048529166667,172.76858670833334,67.0,81.0
668,172.42048529166667,172.77649810416668,63.0,86.0
669,172.04073829166668,173.42839712083335,55.0,58.0
670,173.17997929166668,173.60403010833335,63.0,84.0
671,173.17997929166668,173.6198529,58.0,80.0
672,173.17997929166668,173.67365039166668,70.0,84.0
673,173.93947329166667,174.19105567916668,58.0,86.0
674,173.55972629166666,174.23852405416667,55.0,77.0
675,173.93947329166667,174.26858735833335,67.0,84.0
676,174.31922029166668,174.56605584166667,63.0,84.0
677,174.6989672916667,175.1499168541667,65.0,83.0
678,174.6989672916667,175.19263839166666,60.0,79.0
679,175.07871429166667,175.48852459583335,48.0,81.0
680,175.45846129166668,175.78599307916667,58.0,82.0
681,175.45846129166668,175.84453740833334,65.0,86.0
682,175.45846129166668,175.84928424583333,53.0,56.0
683,176.21795529166667,176.35039563541667,57.0,84.0
684,176.21795529166667,176.36825276041668,60.0,91.0
685,175.8382082916667,176.39801463541667,48.0,78.0
686,176.21795529166667,176.46795504166667,53.0,69.0
687,176.57509779166668,176.68521672916668,58.0,79.0
688,176.57509779166668,176.71795479166667,63.0,84.0
689,176.57509779166668,176.72837144791666,55.0,79.0
690,176.93224029166666,177.08997822916666,58.0,84.0
691,174.6989672916667,177.18819241666668,41.0,82.0
692,176.93224029166666,177.18819241666668,65.0,82.0
693,176.93224029166666,177.33551369791667,45.0,82.0
694,177.28938279166667,177.43075169791666,67.0,82.0
695,177.64652529166668,178.03576596666667,65.0,81.0
696,177.64652529166668,178.05000647916668,62.0,82.0
697,177.64652529166668,178.200323,70.0,91.0
698,178.0262722916667,178.45981678333334,53.0,75.0
699,178.40601929166667,178.7462093125,58.0,76.0
700,178.40601929166667,178.7462093125,60.0,80.0
701,178.40601929166667,178.77785489583334,65.0,84.0
702,177.64652529166668,178.93450053333333,46.0,86.0
703,178.97563979166668,179.08956389166667,58.0,77.0
704,178.78576629166668,179.1607664541667,53.0,72.0
705,179.16551329166668,179.42658935416668,62.0,75.0
706,179.3553867916667,179.5911463875,65.0,78.0
707,179.54526029166666,179.68291857916668,70.0,84.0
708,179.73513379166667,179.96298199166668,72.0,82.0
709,179.54526029166666,179.99304529583335,53.0,72.0
710,179.92500729166667,180.11962762916667,74.0,78.0
711,179.92500729166667,180.31424796666667,58.0,75.0
712,180.11488079166668,180.33481759583336,77.0,81.0
713,179.16551329166668,180.38386825,46.0,84.0
714,180.30475429166668,180.45665309166668,74.0,79.0
715,180.30475429166668,180.57690630833335,53.0,75.0
716,180.4946277916667,180.659184825,72.0,76.0
717,180.68450129166666,181.14943947916666,70.0,83.0
718,180.68450129166666,181.23785395416667,46.0,84.0
719,181.05035429166665,181.44059749166667,53.0,76.0
720,181.23328079166666,181.44669504166666,65.0,60.0
721,181.41620729166667,181.58846307916667,72.0,82.0
722,181.59913379166667,181.76681641666667,74.0,83.0
723,181.41620729166667,181.83541385416666,58.0,82.0
724,181.78206029166665,182.01834035416667,60.0,77.0
725,181.96498679166666,182.14791329166667,70.0,82.0
726,181.78206029166665,182.17687665416668,65.0,69.0
727,182.14791329166667,182.42230304166665,77.0,82.0
728,182.33083979166668,182.58998566666668,65.0,68.0
729,182.51376629166666,182.71346105416666,72.0,83.0
730,182.69669279166666,182.92230214166668,65.0,78.0
731,182.87961929166667,183.09455792916665,72.0,83.0
732,182.87961929166667,183.23785035416665,45.0,86.0
733,183.06254579166665,183.30492340416666,65.0,79.0
734,183.24547229166666,183.46803286666668,70.0,83.0
735,183.42839879166667,183.58236192916667,72.0,81.0
736,183.61132529166667,183.96041002916667,75.0,93.0
737,183.61132529166667,184.02595869166666,67.0,74.0
738,183.97717829166666,184.44211647916666,46.0,83.0
739,183.61132529166667,184.57778696666665,39.0,82.0
740,184.34303129166668,184.60370155416666,58.0,77.0
741,184.34303129166668,184.64333562916667,67.0,81.0
742,184.34303129166668,184.83845722916666,51.0,68.0
743,184.70888429166666,184.95278629166665,58.0,83.0
744,184.70888429166666,184.97717649166665,70.0,83.0
745,184.70888429166666,185.20631629166664,53.0,61.0
746,185.07473729166665,185.28855316666665,55.0,76.0
747,185.07473729166665,185.33954002916664,58.0,79.0
748,185.07473729166665,185.49414535416665,63.0,90.0
749,185.46947429166664,185.64381646666666,67.0,78.0
750,185.86421129166666,185.98098765416665,40.0,79.0
751,185.86421129166666,186.11914560416665,58.0,76.0
752,185.86421129166666,186.13394824166664,67.0,83.0
753,186.25894829166666,186.36914570416664,41.0,82.0
754,186.25894829166666,186.39217202916666,63.0,83.0
755,186.65368529166665,187.01717227916666,58.0,84.0
756,186.65368529166665,187.24085657916666,65.0,83.0
757,187.44315929166666,187.66519885416665,63.0,83.0
758,187.64052779166664,187.73756730416665,65.0,81.0
759,187.83789629166665,188.04348847916665,70.0,93.0
760,188.03526479166666,188.26552804166664,72.0,79.0
761,188.23263329166664,188.32309385416664,74.0,82.0
762,188.43000179166665,188.63394924166664,77.0,82.0
763,188.62737029166664,188.87572565416664,82.0,51.0
764,188.82473879166665,188.95138357916665,84.0,79.0
765,189.02210729166666,189.14922579166665,86.0,84.0
766,189.27634429166665,189.46278475833333,87.0,83.0
767,189.53058129166666,189.65769979166666,89.0,82.0
768,189.78481829166665,189.88227580833333,93.0,84.0
769,187.24579079166665,190.61320718333332,58.0,90.0
770,187.04842229166664,190.67888507499998,53.0,76.0
771,190.29329229166666,190.72337654999998,94.0,80.0
772,186.85105379166666,190.82507135,46.0,84.0
773,190.29329229166666,190.83142727499998,86.0,62.0
774,190.29329229166666,190.86532554166666,82.0,63.0
