,start,end,pitch,velocity
0,17.56615085,17.761410183333332,73.0,90.0
1,17.837030849999998,18.041319516666665,75.0,93.0
2,18.10791085,18.58965509375,77.0,91.0
3,18.644245075,18.814699506249998,80.0,90.0
4,18.911624574999998,19.9388074875,77.0,91.0
5,20.248522075,20.66184621875,77.0,91.0
6,20.783281074999998,20.974903049999998,80.0,85.0
7,21.050660575,21.931898843749998,77.0,90.0
8,22.120178574999997,22.305116062499998,77.0,90.0
9,22.387558074999998,22.5858645375,75.0,93.0
10,22.654937574999998,22.78082875625,73.0,89.0
11,22.922317075,23.09499966875,70.0,83.0
12,23.189696575,23.350124275,77.0,92.0
13,23.457076075,23.853689,75.0,93.0
14,23.991835074999997,24.143350124999998,73.0,90.0
15,24.259214574999998,24.426326762499997,77.0,89.0
16,24.526594075,24.944374543749998,75.0,91.0
17,25.061353075,25.24072015625,73.0,87.0
18,25.328732574999997,25.9994094875,75.0,89.0
19,26.130871074999998,26.27235939375,73.0,89.0
20,26.398250575,26.560906437499998,75.0,89.0
21,26.665630075,27.063357081249997,77.0,90.0
22,27.200389074999997,27.408722268749997,68.0,82.0
23,27.467768575,27.87329415,70.0,91.0
24,28.002527575,28.181894656249998,73.0,85.0
25,28.269907075,28.490495162499997,75.0,90.0
26,28.537286574999996,28.75676058125,73.0,84.0
27,28.804666075,29.216876137499998,70.0,84.0
28,29.339425074999998,29.580066625,68.0,87.0
29,29.606804574999998,30.273025162499998,70.0,91.0
30,30.408943074999996,30.625074837499998,73.0,89.0
31,30.676322575,30.85568965625,75.0,90.0
32,30.943702074999997,31.37262335625,77.0,90.0
33,31.478461075,31.661170399999996,75.0,92.0
34,31.745840575,31.902926031249997,77.0,91.0
35,32.013220075,32.182560425,80.0,91.0
36,32.280599575,32.46887930625,77.0,93.0
37,32.547979075,32.7551981875,77.0,86.0
38,32.815358575,33.350117575,80.0,84.0
39,33.350117575,34.43300455,75.0,90.0
40,34.687015075,34.879751131249996,73.0,90.0
41,34.954394574999995,35.15604328125,75.0,93.0
42,35.221774075,35.70194309375,77.0,91.0
43,35.75653307499999,35.92698750625,80.0,90.0
44,36.023912575,37.0510954875,77.0,91.0
45,37.360810074999996,37.77413421875,77.0,91.0
46,37.895569075,38.08719105,80.0,85.0
47,38.162948575,39.04418684375,77.0,90.0
48,39.232466575,39.4174040625,77.0,90.0
49,39.499846074999994,39.69815253749999,75.0,93.0
50,39.767225575,39.893116756249995,73.0,89.0
51,40.034605075,40.20728766875,70.0,83.0
52,40.301984575,40.462412275,77.0,92.0
53,40.569364074999996,40.965976999999995,75.0,93.0
54,41.104123075,41.255638125,73.0,90.0
55,41.371502574999994,41.538614762499996,77.0,89.0
56,41.638882075,42.056662543749994,75.0,91.0
57,42.173641075,42.35300815625,73.0,87.0
58,42.441020574999996,43.111697487499995,75.0,89.0
59,43.243159074999994,43.38464739375,73.0,89.0
60,43.510538575,43.6731944375,75.0,89.0
61,43.777918075,44.175645081249996,77.0,90.0
62,44.312677074999996,44.52101026875,68.0,82.0
63,44.580056575,44.98558215,70.0,91.0
64,45.114815574999994,45.29418265625,73.0,85.0
65,45.382195075,45.602783162499996,75.0,90.0
66,45.649574575,45.86904858125,73.0,84.0
67,45.91695407499999,46.3291641375,70.0,84.0
68,46.451713075,46.69235462499999,68.0,87.0
69,46.719092575,47.3853131625,70.0,91.0
70,47.78861057499999,47.96797765625,73.0,90.0
71,48.055990075,48.323369575,80.0,90.0
72,48.323369575,48.5060789,77.0,92.0
73,48.590749075,48.74783453124999,73.0,91.0
74,48.858128574999995,49.027468924999994,80.0,91.0
75,49.125508075,49.31378780625,77.0,93.0
76,49.392887574999996,49.6001066875,73.0,86.0
77,49.66026707499999,49.86748618749999,75.0,86.0
78,49.927646575,50.195026075,70.0,84.0
79,50.195026075,51.81437203749999,73.0,90.0
80,53.72435727291667,53.890646429166665,73.0,90.0
81,53.995849772916664,54.205125241666664,75.0,93.0
82,54.267342272916665,54.47322408541667,77.0,90.0
83,54.538834772916665,54.71765334791667,80.0,90.0
84,54.80805508541667,54.94979608125,77.0,90.0
85,55.07591208541667,55.48327793958333,77.0,90.0
86,55.61162608541667,55.848233102083334,75.0,95.0
87,55.879483085416666,56.06921512708333,73.0,84.0
88,56.147340085416666,56.59042020625,73.0,87.0
89,56.683054085416664,56.88171469375,75.0,91.0
90,56.950911085416664,57.34711623125,80.0,90.0
91,57.48662508541667,58.02233908541667,77.0,93.0
92,58.29019608541667,58.520106677083334,77.0,98.0
93,58.55805308541667,58.75001726875,80.0,93.0
94,58.825910085416666,59.00336534791667,85.0,92.0
95,59.093767085416665,59.27680270208333,82.0,88.0
96,59.361624085416665,59.51340971875,80.0,93.0
97,59.629481085416664,59.79242742708333,77.0,95.0
98,59.89733808541666,60.12948081875,75.0,93.0
99,60.16519508541667,60.96876608541667,80.0,90.0
100,60.96876608541667,62.363854627083334,77.0,90.0
101,62.84376508541666,63.02568463125,80.0,89.0
102,63.11162208541667,63.25894343541667,82.0,93.0
103,63.37947908541667,63.614970031249996,80.0,89.0
104,63.64733608541667,63.843764552083336,78.0,90.0
105,63.91519308541667,64.05693408125,77.0,95.0
106,64.18305008541667,64.61943378125,75.0,91.0
107,64.71876408541667,64.86608543541666,77.0,90.0
108,64.98662108541667,65.13617457708334,78.0,89.0
109,65.25447808541666,65.62501360208333,80.0,93.0
110,65.79019208541666,65.96876341875,72.0,89.0
111,66.05804908541667,66.59376308541667,73.0,90.0
112,66.59376308541667,66.76452192291667,77.0,91.0
113,66.86162008541666,67.03461106458333,77.0,91.0
114,67.12947708541667,67.27791450625,75.0,95.0
115,67.39733408541667,67.59153041041667,73.0,92.0
116,67.66519108541667,67.80693208125,85.0,92.0
117,67.93304808541667,68.06139623125,85.0,94.0
118,68.20090508541666,68.33260144375001,80.0,87.0
119,68.46876208541667,68.88728864791666,82.0,91.0
120,69.00447608541667,69.18081527708333,80.0,90.0
121,69.27233308541666,69.45313656041667,77.0,89.0
122,69.54019008541667,70.64621628125,75.0,92.0
123,70.87947508541667,71.04353749791667,73.0,90.0
124,71.14733208541666,71.35380518958334,75.0,93.0
125,71.41518908541667,71.61831397708333,77.0,90.0
126,71.68304608541666,71.86050134791667,80.0,90.0
127,71.95090308541667,72.09264408125,77.0,90.0
128,72.21876008541666,72.62612593958333,77.0,90.0
129,72.75447408541666,72.99108110208334,75.0,95.0
130,73.02233108541667,73.21206312708333,73.0,84.0
131,73.29018808541667,73.73326820625,73.0,87.0
132,73.82590208541667,74.02456269375,75.0,91.0
133,74.09375908541666,74.48996423125,80.0,90.0
134,74.62947308541666,75.16518708541668,77.0,93.0
135,75.43304408541667,75.66295467708333,77.0,98.0
136,75.70090108541666,75.89286526875,80.0,93.0
137,75.96875808541667,76.14621334791667,85.0,92.0
138,76.23661508541667,76.41965070208333,82.0,88.0
139,76.50447208541667,76.65625771875,80.0,93.0
140,76.77232908541667,76.93527542708333,82.0,95.0
141,77.04018608541666,77.27232881875,75.0,93.0
142,77.30804308541667,78.11161408541668,80.0,90.0
143,78.11161408541668,79.50670262708334,77.0,90.0
144,79.98661308541666,80.16853263125,80.0,89.0
145,80.25447008541667,80.40179143541667,82.0,93.0
146,80.52232708541666,80.75781803125,80.0,89.0
147,80.79018408541667,80.98661255208333,78.0,90.0
148,81.05804108541668,81.19978208124999,77.0,95.0
149,81.32589808541667,81.76228178125,75.0,91.0
150,81.86161208541667,82.00893343541667,77.0,90.0
151,82.12946908541667,82.27902257708334,78.0,89.0
152,82.39732608541667,82.76786160208333,80.0,93.0
153,82.93304008541666,83.11161141875,72.0,89.0
154,83.20089708541667,83.73661108541667,73.0,90.0
155,84.27232508541667,84.46094105625,77.0,91.0
156,84.54018208541666,84.74665518958334,77.0,93.0
157,84.80803908541667,84.97098542708333,75.0,91.0
158,85.07589608541667,85.26562812708333,77.0,96.0
159,85.34375308541667,85.51674406458334,80.0,93.0
160,85.61161008541667,85.92969027291667,77.0,96.0
161,86.14732408541667,86.41518108541666,68.0,91.0
162,86.41518108541666,87.89955529375,75.0,93.0
163,88.02232308541667,88.53683173958333,77.0,93.0
164,88.55803708541666,88.78236732291667,80.0,91.0
165,88.82589408541668,89.07142966875,77.0,95.0
166,89.09375108541667,89.38169736041667,75.0,88.0
167,89.36160808541666,92.25111547291667,73.0,90.0
168,105.43302808541667,105.62610833958334,73.0,90.0
169,105.70088508541667,105.90289390625,75.0,93.0
170,105.96874208541666,106.44976861458333,77.0,91.0
171,106.50445608541668,106.67521492291667,80.0,90.0
172,106.77231308541667,107.80133039374999,77.0,91.0
173,108.11159808541666,108.52566036458333,77.0,91.0
174,108.64731208541667,108.83927626875,80.0,85.0
175,108.91516908541666,109.79798111458334,77.0,90.0
176,109.98659708541666,110.17186484375,77.0,90.0
177,110.25445408541667,110.45311469375,75.0,93.0
178,110.52231108541667,110.64842708958334,73.0,89.0
179,110.79016808541667,110.96315906458334,70.0,83.0
180,111.05802508541666,111.21873928541666,77.0,92.0
181,111.32588208541667,111.72320330208333,75.0,93.0
182,111.86159608541666,112.01338171875,73.0,90.0
183,112.12945308541667,112.29686371041666,77.0,89.0
184,112.39731008541668,112.81583664791667,75.0,91.0
185,112.93302408541666,113.11271148958333,73.0,87.0
186,113.20088108541667,113.87275572708333,75.0,89.0
187,114.00445208541666,114.14619308125,73.0,89.0
188,114.27230908541667,114.43525542708333,75.0,89.0
189,114.54016608541667,114.93860337291667,77.0,90.0
190,115.07588008541667,115.28458533125,68.0,82.0
191,115.34373708541668,115.74998686875,70.0,91.0
192,115.87945108541666,116.05913848958333,73.0,85.0
193,116.14730808541667,116.36829011041667,75.0,90.0
194,116.41516508541667,116.63503103958334,73.0,84.0
195,116.68302208541667,117.09596829375,70.0,84.0
196,117.21873608541667,117.45980738541667,68.0,87.0
197,117.48659308541667,118.15400344375,70.0,91.0
198,118.55802108541667,118.73770848958334,73.0,90.0
199,118.82587808541666,119.09373508541667,80.0,90.0
200,119.09373508541667,119.27677070208334,77.0,92.0
201,119.36159208541667,119.51895807291667,73.0,91.0
202,119.62944908541667,119.79909185208334,80.0,91.0
203,119.89730608541667,120.08592205625,77.0,93.0
204,120.16516308541667,120.37275226041668,73.0,86.0
205,120.43302008541667,120.64060926041667,75.0,86.0
206,120.70087708541666,120.96873408541667,70.0,84.0
207,120.96873408541667,122.57587608541667,73.0,90.0
208,124.45087508541667,124.61493749791667,73.0,90.0
209,124.71873208541668,124.92520518958334,75.0,93.0
210,124.98658908541667,125.18971397708333,77.0,90.0
211,125.25444608541667,125.43190134791666,80.0,90.0
212,125.52230308541667,125.66404408125,77.0,90.0
213,125.79016008541667,126.19752593958333,77.0,90.0
214,126.32587408541667,126.56248110208334,75.0,95.0
215,126.59373108541666,126.78346312708334,73.0,84.0
216,126.86158808541667,127.30466820625,73.0,87.0
217,127.39730208541667,127.59596269375,75.0,91.0
218,127.66515908541668,128.06136423125,80.0,90.0
219,128.20087308541667,128.73658708541666,77.0,93.0
220,129.00444408541665,129.23435467708333,77.0,98.0
221,129.27230108541667,129.46426526875,80.0,93.0
222,129.54015808541666,129.71761334791665,85.0,92.0
223,129.80801508541668,129.99105070208333,82.0,88.0
224,130.07587208541668,130.22765771874998,80.0,93.0
225,130.34372908541667,130.50667542708334,77.0,95.0
226,130.61158608541666,130.84372881875,75.0,93.0
227,130.87944308541665,131.6830140854167,80.0,90.0
228,131.6830140854167,133.07810262708335,77.0,90.0
229,133.5580130854167,133.73993263124999,80.0,89.0
230,133.82587008541668,133.97319143541665,82.0,93.0
231,134.09372708541667,134.32921803125,80.0,89.0
232,134.36158408541667,134.55801255208334,78.0,90.0
233,134.62944108541666,134.77118208125,77.0,95.0
234,134.89729808541665,135.33368178125,75.0,91.0
235,135.43301208541666,135.58033343541666,77.0,90.0
236,135.70086908541668,135.85042257708335,78.0,89.0
237,135.96872608541668,136.33926160208335,80.0,93.0
238,136.50444008541666,136.68301141875,72.0,89.0
239,136.77229708541665,137.30801108541667,73.0,90.0
240,137.30801108541667,137.47876992291668,77.0,91.0
241,137.5758680854167,137.74885906458334,77.0,91.0
242,137.84372508541668,137.99216250625,75.0,95.0
243,138.11158208541667,138.30577841041668,73.0,92.0
244,138.37943908541666,138.52118008125,85.0,92.0
245,138.64729608541666,138.77564423125,85.0,94.0
246,138.91515308541665,139.04684944375,80.0,87.0
247,139.18301008541667,139.60153664791667,82.0,91.0
248,139.71872408541668,139.89506327708335,80.0,90.0
249,139.98658108541667,140.16738456041668,77.0,89.0
250,140.25443808541667,141.36046428125002,75.0,92.0
251,141.59372308541668,141.75778549791667,73.0,90.0
252,141.86158008541668,142.06805318958334,75.0,93.0
253,142.12943708541667,142.33256197708334,77.0,90.0
254,142.39729408541666,142.57474934791668,80.0,90.0
255,142.66515108541665,142.80689208125,77.0,90.0
256,142.93300808541667,143.34037393958334,77.0,90.0
257,143.4687220854167,143.70532910208334,75.0,95.0
258,143.73657908541668,143.92631112708335,73.0,84.0
259,144.00443608541667,144.44751620625,73.0,87.0
260,144.54015008541666,144.73881069375,75.0,91.0
261,144.80800708541668,145.20421223124998,80.0,90.0
262,145.3437210854167,145.87943508541667,77.0,93.0
263,146.14729208541667,146.37720267708335,77.0,98.0
264,146.41514908541666,146.60711326875,80.0,93.0
265,146.68300608541665,146.86046134791667,85.0,92.0
266,146.95086308541667,147.13389870208334,82.0,88.0
267,147.21872008541666,147.37050571875,80.0,93.0
268,147.48657708541668,147.64952342708335,82.0,95.0
269,147.75443408541668,147.98657681875,75.0,93.0
270,148.02229108541667,148.82586208541667,80.0,90.0
271,148.82586208541667,150.22095062708334,77.0,90.0
272,150.70086108541668,150.88278063125,80.0,89.0
273,150.96871808541667,151.11603943541667,82.0,93.0
274,151.2365750854167,151.47206603125,80.0,89.0
275,151.50443208541668,151.70086055208333,78.0,90.0
276,151.77228908541667,151.91403008125002,77.0,95.0
277,152.04014608541667,152.47652978125,75.0,91.0
278,152.57586008541665,152.72318143541668,77.0,90.0
279,152.84371708541667,152.99327057708334,78.0,89.0
280,153.11157408541666,153.48210960208334,80.0,93.0
281,153.64728808541668,153.82585941874999,72.0,89.0
282,153.91514508541667,154.45085908541665,73.0,90.0
283,154.98657308541667,155.17518905625002,77.0,91.0
284,155.2544300854167,155.46090318958335,77.0,93.0
285,155.52228708541668,155.68523342708335,75.0,91.0
286,155.79014408541667,155.97987612708334,77.0,96.0
287,156.05800108541666,156.23099206458335,80.0,93.0
288,156.32585808541666,156.64393827291667,77.0,96.0
289,156.86157208541667,157.26670579791667,68.0,91.0
290,157.39728608541668,158.61380329375,75.0,93.0
291,159.00442808541666,159.25107973958333,77.0,93.0
292,159.27228508541668,159.49661532291668,80.0,91.0
293,159.54014208541668,159.78567766875,77.0,95.0
294,159.80799908541667,160.09594536041666,75.0,88.0
295,160.07585608541666,162.96536347291666,73.0,90.0
296,164.09371108541666,164.27786277291665,78.0,87.0
297,164.36156808541665,164.5758536854167,78.0,91.0
298,164.62942508541667,164.86491603125,77.0,93.0
299,164.8972820854167,165.06692485208333,75.0,100.0
300,165.16513908541668,165.39839788958335,73.0,92.0
301,165.43299608541668,165.67295131458334,70.0,93.0
302,165.70085308541667,165.8783083479167,73.0,93.0
303,165.96871008541666,166.13723678125,75.0,93.0
304,166.23656708541665,166.41848663125,75.0,94.0
305,166.50442408541667,166.69527219791667,77.0,91.0
306,166.77228108541667,167.33143257291667,75.0,100.0
307,167.57585208541667,167.75888770208334,73.0,95.0
308,167.84370908541666,168.09594109375,75.0,96.0
309,168.11156608541665,168.51446765625002,80.0,92.0
310,168.64728008541667,168.98656561875,77.0,93.0
311,169.04906558541666,169.14058339375,75.0,91.0
312,169.18299408541668,169.34482435625,77.0,91.0
313,169.45085108541667,169.66736882708335,75.0,105.0
314,169.71870808541667,170.10486859374998,73.0,91.0
315,170.25442208541665,170.44861841041666,70.0,93.0
316,170.52227908541667,171.32585008541668,73.0,91.0
317,172.66513508541667,172.80129572708336,78.0,91.0
318,172.93299208541669,173.13053662291668,78.0,90.0
319,173.20084908541668,173.34705436458336,77.0,91.0
320,173.46870608541667,173.68745596875,78.0,95.0
321,173.73656308541666,173.94750047291666,77.0,91.0
322,174.00442008541665,174.29236636041668,75.0,96.0
323,174.27227708541668,174.51669659791668,77.0,94.0
324,174.54013408541667,174.69526793125,78.0,93.0
325,174.8079910854167,174.98098206458334,78.0,90.0
326,175.07584808541668,175.24883906458334,80.0,91.0
327,175.34370508541667,175.70977631875002,82.0,90.0
328,176.14727608541665,176.31803492291667,82.0,98.0
329,176.41513308541667,176.60263298541668,85.0,106.0
330,176.6829900854167,176.95977565208335,84.0,96.0
331,177.08477558541665,177.17294518125,82.0,94.0
332,177.21870408541668,177.40173970208332,84.0,92.0
333,177.48656108541667,177.62830208125,82.0,96.0
334,177.75441808541666,177.89504301041666,84.0,94.0
335,178.02227508541665,178.18187321458333,82.0,98.0
336,178.29013208541667,178.42071237291668,80.0,100.0
337,178.55798908541666,178.73544434791665,75.0,103.0
338,178.82584608541669,182.04013008541665,80.0,91.0
339,182.30798708541667,182.47204949791666,73.0,90.0
340,182.5758440854167,182.78231718958332,75.0,93.0
341,182.84370108541668,183.04682597708333,77.0,90.0
342,183.11155808541668,183.28901334791666,80.0,90.0
343,183.37941508541667,183.52115608125,77.0,90.0
344,183.64727208541666,184.05463793958333,77.0,90.0
345,184.18298608541667,184.41959310208333,75.0,95.0
346,184.45084308541666,184.64057512708334,73.0,84.0
347,184.71870008541666,185.16178020625,73.0,87.0
348,185.25441408541667,185.45307469375,75.0,91.0
349,185.52227108541666,185.91847623125,80.0,90.0
350,186.05798508541668,186.59369908541666,77.0,93.0
351,186.86155608541668,187.09146667708333,77.0,98.0
352,187.12941308541667,187.32137726875,80.0,93.0
353,187.39727008541666,187.57472534791668,85.0,92.0
354,187.66512708541666,187.84816270208333,82.0,88.0
355,187.93298408541668,188.08476971875,80.0,93.0
356,188.20084108541667,188.36378742708334,77.0,95.0
357,188.46869808541666,188.70084081875,75.0,93.0
358,188.73655508541668,189.54012608541666,80.0,90.0
359,189.54012608541666,190.93521462708333,77.0,90.0
360,191.41512508541666,191.59704463125001,80.0,89.0
361,191.68298208541668,191.83030343541668,82.0,93.0
362,191.95083908541667,192.18633003125,80.0,89.0
363,192.21869608541667,192.41512455208334,78.0,90.0
364,192.48655308541666,192.62829408125,77.0,95.0
365,192.75441008541668,193.19079378125,75.0,91.0
366,193.29012408541666,193.43744543541666,77.0,90.0
367,193.55798108541666,193.70753457708335,78.0,89.0
368,193.82583808541668,194.19637360208333,80.0,93.0
369,194.36155208541666,194.54012341875,72.0,89.0
370,194.62940908541668,195.16512308541667,73.0,90.0
371,195.16512308541667,195.33588192291668,77.0,91.0
372,195.43298008541666,195.60597106458334,77.0,91.0
373,195.70083708541668,195.84927450625,75.0,95.0
374,195.96869408541667,196.16289041041668,73.0,92.0
375,196.23655108541666,196.37829208125,85.0,92.0
376,196.50440808541669,196.63275623125,85.0,94.0
377,196.77226508541668,196.90396144375,80.0,87.0
378,197.04012208541667,197.45864864791668,82.0,91.0
379,197.57583608541668,197.75217527708332,80.0,90.0
380,197.84369308541667,198.02449656041668,77.0,89.0
381,198.11155008541667,199.21757628125002,75.0,92.0
382,199.45083508541668,199.61489749791667,73.0,90.0
383,199.71869208541668,199.92516518958334,75.0,93.0
384,199.98654908541667,200.18967397708334,77.0,90.0
385,200.25440608541666,200.43186134791668,80.0,90.0
386,200.52226308541668,200.66400408125,77.0,90.0
387,200.79012008541667,201.19748593958334,77.0,90.0
388,201.32583408541666,201.56244110208334,75.0,95.0
389,201.59369108541668,201.78342312708332,73.0,84.0
390,201.86154808541667,202.30462820625002,73.0,87.0
391,202.39726208541668,202.59592269375,75.0,91.0
392,202.66511908541668,203.06132423125,80.0,90.0
393,203.20083308541666,203.73654708541667,77.0,93.0
394,204.00440408541667,204.23431467708335,77.0,98.0
395,204.27226108541666,204.46422526875,80.0,93.0
396,204.54011808541668,204.71757334791667,85.0,92.0
397,204.80797508541667,204.99101070208334,82.0,88.0
398,205.07583208541666,205.22761771875,80.0,93.0
399,205.34368908541668,205.50663542708332,82.0,95.0
400,205.61154608541668,205.84368881875,75.0,93.0
401,205.87940308541667,206.68297408541667,80.0,90.0
402,206.68297408541667,208.07806262708334,77.0,90.0
403,208.55797308541668,208.73989263125,80.0,89.0
404,208.82583008541667,208.97315143541667,82.0,93.0
405,209.09368708541666,209.32917803125,80.0,89.0
406,209.36154408541668,209.55797255208333,78.0,90.0
407,209.62940108541667,209.77114208125,77.0,95.0
408,209.89725808541667,210.33364178125,75.0,91.0
409,210.43297208541668,210.58029343541668,77.0,90.0
410,210.70082908541667,210.85038257708334,78.0,89.0
411,210.96868608541666,211.33922160208334,80.0,93.0
412,211.50440008541668,211.68297141875001,72.0,89.0
413,211.77225708541667,212.30797108541668,73.0,90.0
414,212.84368508541667,213.03230105625,77.0,91.0
415,213.11154208541666,213.31801518958335,77.0,93.0
416,213.37939908541668,213.54234542708335,75.0,91.0
417,213.64725608541667,213.83698812708334,77.0,96.0
418,213.91511308541666,214.08810406458335,80.0,93.0
419,214.18297008541668,214.50105027291667,77.0,96.0
420,214.71868408541667,215.12381779791667,68.0,91.0
421,215.25439808541668,216.47091529375,75.0,93.0
422,216.86154008541666,217.10819173958333,77.0,93.0
423,217.12939708541668,217.35372732291668,80.0,91.0
424,217.39725408541668,217.64278966875,77.0,95.0
425,217.66511108541667,217.95305736041666,75.0,88.0
426,217.93296808541666,220.82247547291666,73.0,90.0
