,start,end,pitch,velocity
0,1.48729846875,1.79478489375,63.0,83.0
1,1.7546779687499998,1.8983944499999998,65.0,93.0
2,0.95253946875,2.9177787937499997,49.0,89.0
3,1.2199189687499998,2.96011388125,56.0,79.0
4,2.82419596875,3.4982151249999998,68.0,85.0
5,3.6263344687499997,3.82464093125,63.0,78.0
6,3.35895496875,4.4975460062499995,56.0,76.0
7,3.8937139687499998,4.5454514999999995,61.0,83.0
8,3.09157546875,4.566619043749999,49.0,90.0
9,3.8937139687499998,4.7348453125,65.0,89.0
10,5.76537046875,6.12187646875,56.0,84.0
11,6.032749968749999,6.9474106749999995,61.0,86.0
12,6.032749968749999,6.997544331249999,65.0,85.0
13,5.230611468749999,7.254897099999999,46.0,90.0
14,5.49799096875,7.271608318749999,53.0,76.0
15,7.10226796875,7.96011053125,61.0,89.0
16,7.63702696875,8.780074331249999,53.0,78.0
17,7.9044064687499995,8.914878162499999,58.0,90.0
18,8.17178596875,8.943844275,61.0,87.0
19,8.17178596875,8.9505287625,65.0,89.0
20,7.369647468749999,9.0196018,46.0,90.0
21,8.973924468749999,9.24241805,53.0,85.0
22,9.24130396875,9.6145211875,58.0,89.0
23,10.04344246875,10.93470746875,54.0,88.0
24,9.776062968749999,11.4260173,49.0,84.0
25,10.31082196875,11.458325656249999,61.0,83.0
26,9.50868346875,11.493976256249999,42.0,90.0
27,10.31082196875,11.74575861875,65.0,82.0
28,12.182478468749999,12.508904274999999,58.0,82.0
29,11.380339968749999,13.238627493749998,54.0,79.0
30,11.91509896875,13.355606024999998,49.0,82.0
31,11.64771946875,13.386800299999999,42.0,90.0
32,13.51937596875,13.781185062499999,54.0,86.0
33,12.449857968749999,13.799010362499999,61.0,87.0
34,13.251996468749999,13.981100256249999,65.0,90.0
35,14.324919943749999,14.902447131249998,63.0,84.0
36,15.133907443749997,15.477727131249997,63.0,87.0
37,13.786755468749998,15.796827756249998,44.0,90.0
38,14.055257443749998,15.815928849999999,51.0,81.0
39,14.594582443749998,16.278849474999998,68.0,89.0
40,15.403569943749998,16.3125572875,56.0,86.0
41,15.673232443749997,16.60452685,63.0,78.0
42,16.212557443749997,17.26479685,51.0,76.0
43,16.48263085,17.29414218333333,56.0,79.0
44,15.942894943749998,17.303171516666666,44.0,90.0
45,16.753510849999998,17.422810183333333,63.0,82.0
46,16.753510849999998,17.620326849999998,68.0,77.0
47,18.10791085,18.42588515,61.0,82.0
48,18.10791085,18.564031225,65.0,84.0
49,18.644245075,18.9339062,63.0,88.0
50,18.10791085,20.024591743749998,49.0,90.0
51,18.376865575,20.03350439375,56.0,79.0
52,19.981142575,20.54375360625,61.0,84.0
53,18.911624574999998,20.58163236875,65.0,90.0
54,20.783281074999998,21.16318278125,61.0,85.0
55,20.515901575,21.94972414375,53.0,81.0
56,20.248522075,22.037736562499997,46.0,89.0
57,21.050660575,22.244955675,65.0,88.0
58,22.387558074999998,22.716212043749998,58.0,78.0
59,22.922317075,23.8002131,58.0,81.0
60,22.387558074999998,23.835863699999997,61.0,83.0
61,22.654937574999998,23.85703124375,49.0,76.0
62,22.387558074999998,23.892681843749997,42.0,88.0
63,23.189696575,24.57672773125,66.0,86.0
64,24.793973575,25.669641437499997,51.0,74.0
65,25.328732574999997,26.30132550625,63.0,89.0
66,24.526594075,26.310238156249998,44.0,89.0
67,25.061353075,26.316922643749997,56.0,90.0
68,26.665630075,27.246066406249998,61.0,85.0
69,27.735148074999998,28.136217324999997,63.0,88.0
70,27.200389074999997,28.2565381,56.0,95.0
71,28.002527575,28.403596825,61.0,94.0
72,26.665630075,28.44481783125,49.0,90.0
73,26.933009575,28.5216894375,53.0,81.0
74,27.467768575,28.576279418749998,65.0,91.0
75,28.537286574999996,28.804666075,56.0,83.0
76,28.804666075,29.729353512499998,58.0,83.0
77,29.072045574999997,30.215092937499996,53.0,80.0
78,29.606804574999998,30.232918237499998,65.0,82.0
79,29.339425074999998,30.234032318749996,61.0,76.0
80,28.804666075,30.3220447375,46.0,90.0
81,30.943702074999997,31.279040531249997,54.0,83.0
82,30.943702074999997,31.5519904375,61.0,84.0
83,31.478461075,31.812685449999996,54.0,89.0
84,31.745840575,32.155822475,58.0,88.0
85,31.211081574999998,32.3920077,49.0,79.0
86,32.280599575,32.44882584375,61.0,90.0
87,30.943702074999997,32.578059268749996,42.0,89.0
88,33.082738074999995,33.376855524999996,56.0,82.0
89,33.082738074999995,33.555108524999994,63.0,84.0
90,33.617497074999996,34.146685668749996,56.0,86.0
91,33.884876575,34.2257854375,63.0,83.0
92,34.419635575,34.8095640125,63.0,86.0
93,34.152256075,34.8095640125,68.0,89.0
94,33.350117575,34.85858358749999,51.0,86.0
95,34.687015075,34.8808652125,56.0,91.0
96,33.082738074999995,34.927656625,44.0,89.0
97,35.221774075,35.55711253125,61.0,89.0
98,35.489153575,35.87796793125,56.0,83.0
99,35.75653307499999,36.08295888124999,63.0,79.0
100,35.221774075,36.954170418749996,49.0,95.0
101,36.023912575,37.30622009375,65.0,89.0
102,37.360810074999996,37.893340912499994,61.0,85.0
103,37.895569075,38.44926745625,58.0,80.0
104,38.162948575,38.683224518749995,65.0,91.0
105,37.62818957499999,38.95060401875,53.0,79.0
106,38.697707574999995,38.95283218125,61.0,86.0
107,37.360810074999996,39.018562974999995,46.0,88.0
108,38.965087075,39.269231256249995,56.0,69.0
109,39.499846074999994,39.8073325,54.0,79.0
110,39.499846074999994,40.061343025,58.0,78.0
111,39.767225575,40.72199320625,49.0,77.0
112,39.499846074999994,40.7275636125,42.0,89.0
113,40.034605075,41.19436365625,54.0,89.0
114,40.301984575,41.52190354375,61.0,89.0
115,42.441020574999996,42.6526960125,68.0,87.0
116,42.173641075,43.315574356249996,56.0,89.0
117,42.441020574999996,43.3434263875,63.0,82.0
118,41.638882075,43.4904851125,44.0,89.0
119,41.906261575,43.492713275,51.0,77.0
120,43.777918075,44.60790860624999,65.0,90.0
121,44.312677074999996,44.977783581249994,56.0,90.0
122,44.580056575,45.02903131875,63.0,90.0
123,43.777918075,45.46686525,49.0,89.0
124,44.04529757499999,45.51031441875,53.0,77.0
125,45.114815574999994,45.5470791,61.0,92.0
126,45.91695407499999,46.1954743875,58.0,78.0
127,45.91695407499999,46.429431449999996,61.0,83.0
128,46.451713075,46.66227443125,58.0,80.0
129,46.184333575,47.43321865625,53.0,78.0
130,46.719092575,47.43990314375,65.0,90.0
131,45.91695407499999,47.4900368,46.0,89.0
132,48.055990075,48.38687220625,54.0,82.0
133,48.055990075,48.61080253749999,61.0,73.0
134,48.590749075,48.75674718125,54.0,91.0
135,48.055990075,48.7890555375,42.0,89.0
136,48.323369575,48.811337162499996,49.0,84.0
137,49.125508075,49.420739606249995,56.0,85.0
138,49.125508075,49.685890943749996,60.0,86.0
139,49.66026707499999,49.85300313125,56.0,90.0
140,49.392887574999996,49.89533821875,51.0,79.0
141,49.125508075,49.926532493749995,44.0,90.0
142,50.195026075,50.50706466249999,56.0,85.0
143,50.195026075,51.106698037499996,61.0,85.0
144,50.732400737499994,51.12927137083333,56.0,83.0
145,51.0017320375,52.074284218749995,65.0,93.0
146,50.46334273749999,52.139204487499995,53.0,75.0
147,50.195026075,52.71209738541666,49.0,91.0
148,52.35902223958333,52.90116343125,56.0,88.0
149,52.35902223958333,53.18362354791667,59.0,89.0
150,52.35902223958333,53.189318308333334,61.0,90.0
151,52.35902223958333,53.19956887708333,65.0,91.0
152,52.905719239583334,53.322575702083334,53.0,82.0
153,52.905719239583334,53.323714654166665,49.0,74.0
154,53.17906773958333,53.362439025,56.0,87.0
155,53.45241623958333,53.706257772916665,56.0,91.0
156,53.45241623958333,53.878203022916665,59.0,98.0
157,53.45241623958333,54.02639267916667,61.0,94.0
158,53.45241623958333,54.04449217916667,65.0,98.0
159,53.45241623958333,54.09652824166667,49.0,95.0
160,53.995849772916664,54.16440136666667,56.0,96.0
161,54.538834772916665,54.652921239583335,37.0,89.0
162,54.538834772916665,54.82926043125,56.0,89.0
163,54.538834772916665,55.09823350208333,65.0,90.0
164,55.07591208541667,55.459840452083334,61.0,85.0
165,55.34376908541667,56.04131335625,56.0,89.0
166,55.61162608541667,56.16408114791667,61.0,100.0
167,55.07591208541667,56.54019701875,49.0,84.0
168,56.147340085416666,56.82144686875,56.0,89.0
169,56.415197085416665,57.023455689583336,61.0,88.0
170,55.61162608541667,57.17524132291667,65.0,95.0
171,56.950911085416664,57.33372338125,56.0,88.0
172,57.21876808541667,57.37055371875,61.0,81.0
173,57.48662508541667,57.891758797916665,63.0,85.0
174,57.48662508541667,57.904035577083334,56.0,89.0
175,58.02233908541667,58.27457109375,56.0,89.0
176,58.02233908541667,58.42189244375,65.0,89.0
177,56.683054085416664,58.628365547916665,49.0,103.0
178,58.29019608541667,58.80693688125,61.0,84.0
179,58.55805308541667,58.96095465625,56.0,86.0
180,59.361624085416665,59.728811389583335,54.0,92.0
181,58.825910085416666,59.76452565625,42.0,93.0
182,59.093767085416665,59.809168489583335,49.0,84.0
183,59.629481085416664,59.84488275625,58.0,84.0
184,59.89733808541666,60.453141360416666,60.0,88.0
185,59.89733808541666,60.47881098958334,56.0,88.0
186,59.89733808541666,60.82814116041666,44.0,90.0
187,60.43305208541667,60.83595365625,51.0,85.0
188,60.70090908541667,60.878364347916666,56.0,82.0
189,60.96876608541667,61.28349806041667,56.0,89.0
190,60.96876608541667,61.516756864583336,61.0,89.0
191,61.50448008541667,61.86273882291667,56.0,86.0
192,60.96876608541667,62.17523865625,49.0,90.0
193,62.040194085416665,62.341533210416664,61.0,91.0
194,62.040194085416665,62.39287246875,56.0,91.0
195,62.040194085416665,62.585952722916666,65.0,91.0
196,62.308051085416665,62.77903297708333,49.0,91.0
197,62.575908085416664,62.85604186458333,56.0,84.0
198,62.575908085416664,62.89956862708333,61.0,91.0
199,62.84376508541666,63.10492566041667,60.0,84.0
200,63.11162208541667,63.691978918749996,58.0,78.0
201,63.11162208541667,63.92412165208333,42.0,90.0
202,63.64733608541667,63.997782327083335,49.0,78.0
203,63.91519308541667,64.04130908958334,54.0,81.0
204,64.18305008541667,64.82144260208334,60.0,90.0
205,64.18305008541667,64.84934437291666,56.0,90.0
206,64.18305008541667,64.87278186041667,44.0,89.0
207,64.71876408541667,64.89733541875,51.0,78.0
208,65.25447808541666,65.54465650208333,53.0,90.0
209,65.25447808541666,65.64621894791667,56.0,89.0
210,65.52233508541667,65.95648663958333,48.0,70.0
211,65.25447808541666,65.97545984375,41.0,95.0
212,65.79019208541666,66.09487942291666,53.0,98.0
213,66.05804908541667,66.14621868125,58.0,80.0
214,66.05804908541667,66.15849546041667,56.0,82.0
215,66.32590608541666,66.65849519375,58.0,84.0
216,66.32590608541666,66.68528089375,61.0,91.0
217,66.86162008541666,67.00670929375,58.0,89.0
218,66.86162008541666,67.09822710208333,61.0,93.0
219,66.86162008541666,67.16072706875,65.0,93.0
220,66.32590608541666,67.24889666458333,46.0,91.0
221,66.59376308541667,67.25447701875,53.0,88.0
222,67.12947708541667,67.29130735625,58.0,84.0
223,67.39733408541667,67.70760177708334,58.0,90.0
224,67.39733408541667,67.93193201458334,63.0,90.0
225,67.39733408541667,68.03461053125,51.0,89.0
226,67.93304808541667,68.31697645208334,58.0,90.0
227,68.20090508541666,68.35269071875,63.0,86.0
228,68.46876208541667,68.75894050208333,58.0,90.0
229,68.46876208541667,68.97657431458333,39.0,96.0
230,68.46876208541667,69.06920819375,63.0,90.0
231,68.46876208541667,69.10045817708334,67.0,92.0
232,69.27233308541666,69.34041340625001,63.0,80.0
233,69.00447608541667,69.36943124791667,58.0,90.0
234,69.54019008541667,69.86496669791667,56.0,86.0
235,69.54019008541667,69.90960953125,60.0,91.0
236,70.07590408541667,70.26452005625,56.0,88.0
237,70.34376108541667,70.44309138958333,56.0,74.0
238,70.34376108541667,70.51228778125,63.0,88.0
239,69.80804708541666,70.71764481458334,51.0,84.0
240,70.61161808541667,70.91853756458333,68.0,91.0
241,70.61161808541667,70.95760004375,63.0,93.0
242,70.61161808541667,70.96429646875,56.0,93.0
243,71.14733208541666,71.27009987708334,56.0,89.0
244,70.87947508541667,71.29353736458333,51.0,94.0
245,69.54019008541667,71.39956409375,44.0,90.0
246,71.41518908541667,71.59487648958333,56.0,89.0
247,71.14733208541666,71.64398360625,66.0,91.0
248,71.68304608541666,71.81474244374999,56.0,80.0
249,71.68304608541666,72.23550114791666,65.0,91.0
250,71.95090308541667,72.29688504375,56.0,84.0
251,72.21876008541666,72.38393856875,61.0,78.0
252,72.48661708541667,72.81139369791667,56.0,86.0
253,72.48661708541667,72.82813476041667,63.0,85.0
254,73.02233108541667,73.21652741041666,56.0,91.0
255,73.02233108541667,73.47322370208333,65.0,93.0
256,71.68304608541666,73.73215213541667,49.0,90.0
257,73.82590208541667,74.14063406041666,61.0,89.0
258,73.82590208541667,74.32255360625,65.0,91.0
259,74.09375908541666,74.42523212291667,56.0,90.0
260,74.36161608541667,74.46206246041666,61.0,79.0
261,74.62947308541666,75.27679416875,56.0,93.0
262,74.62947308541666,75.31920486041668,65.0,93.0
263,73.82590208541667,75.56697258541666,49.0,92.0
264,75.43304408541667,75.67523145625,61.0,95.0
265,75.70090108541666,75.84710636458334,56.0,90.0
266,75.96875808541667,76.45982925208334,54.0,87.0
267,75.96875808541667,76.52679350208334,58.0,84.0
268,76.50447208541667,76.83036476875,61.0,85.0
269,75.96875808541667,76.83371298125,42.0,91.0
270,76.23661508541667,76.84375761875,49.0,83.0
271,76.77232908541667,76.87723974375,54.0,87.0
272,77.04018608541666,77.35826627291667,56.0,87.0
273,77.04018608541666,77.57478401458333,60.0,87.0
274,77.57590008541666,77.69531966458334,56.0,92.0
275,77.30804308541667,77.70313216041667,51.0,82.0
276,77.04018608541666,77.71094465625,44.0,90.0
277,78.11161408541668,78.38505143958334,58.0,89.0
278,78.11161408541668,78.55804241875,61.0,89.0
279,78.64732808541666,78.78795301041667,58.0,90.0
280,78.91518508541667,79.38170269375,60.0,93.0
281,79.45089908541667,79.48884549375,58.0,77.0
282,78.37947108541667,79.51339905208333,53.0,79.0
283,78.11161408541668,79.74330964375,46.0,91.0
284,79.71875608541667,79.85045244375,53.0,90.0
285,79.45089908541667,79.93192561458334,61.0,93.0
286,80.25447008541667,80.56808598958334,54.0,84.0
287,80.25447008541667,80.80022872291667,61.0,86.0
288,80.79018408541667,81.09821963541667,54.0,90.0
289,80.25447008541667,81.14621068125,42.0,90.0
290,80.52232708541666,81.16518388541667,49.0,85.0
291,81.05804108541668,81.24777312708333,61.0,80.0
292,81.32589808541667,81.85268351875,60.0,89.0
293,81.32589808541667,81.85714780208333,44.0,91.0
294,81.32589808541667,81.87500493541667,56.0,87.0
295,82.39732608541667,82.70312949375,53.0,88.0
296,82.39732608541667,82.80580801041667,56.0,86.0
297,82.66518308541667,82.96540613958334,48.0,84.0
298,82.39732608541667,82.96987042291667,41.0,92.0
299,82.93304008541666,83.07366501041668,53.0,91.0
300,83.46875408541666,83.79129855625,58.0,88.0
301,83.46875408541666,83.89955742708334,61.0,88.0
302,84.00446808541668,84.37277146041667,58.0,90.0
303,83.73661108541667,84.40290537291666,53.0,89.0
304,83.46875408541666,84.41295001041667,46.0,91.0
305,84.27232508541667,84.44866427708334,61.0,88.0
306,84.54018208541666,84.83482478541667,58.0,86.0
307,84.54018208541666,84.90067296458334,63.0,87.0
308,85.07589608541667,85.25111920625,58.0,84.0
309,85.34375308541667,85.43303875208333,58.0,77.0
310,85.34375308541667,85.93638669791667,66.0,91.0
311,84.80803908541667,86.08817233125001,54.0,82.0
312,84.54018208541666,86.12053838541667,51.0,90.0
313,85.87946708541666,86.13727944791667,63.0,89.0
314,86.14732408541667,86.32254720625,58.0,86.0
315,86.68303808541667,87.00893076874999,56.0,81.0
316,86.68303808541667,87.15178783541667,63.0,84.0
317,87.21875208541667,87.57924296458333,56.0,82.0
318,87.48660908541666,87.81138569791668,63.0,90.0
319,87.75446608541667,88.28013544791668,68.0,90.0
320,88.02232308541667,88.35937647708334,63.0,90.0
321,86.95089508541668,88.40067109791667,51.0,78.0
322,88.29018008541667,88.45982285208333,56.0,88.0
323,86.68303808541667,88.49218890625,44.0,89.0
324,88.82589408541668,89.01227791458334,56.0,89.0
325,88.82589408541668,89.16741176041667,61.0,87.0
326,89.09375108541667,89.45982231875,56.0,85.0
327,89.36160808541666,89.65178650208333,63.0,82.0
328,89.62946508541667,90.17857193541667,65.0,88.0
329,90.16517908541667,90.50558068958333,61.0,85.0
330,88.82589408541668,90.70424129791667,49.0,91.0
331,90.43303608541666,91.04910718541666,56.0,79.0
332,90.70089308541667,91.25446421875,61.0,82.0
333,91.23660708541667,91.57254440625,56.0,86.0
334,91.50446408541666,91.66183007291667,61.0,93.0
335,91.77232108541668,92.14062446041666,56.0,90.0
336,91.77232108541668,92.15624945208333,63.0,94.0
337,90.96875008541667,92.62053491875,49.0,96.0
338,92.30803508541666,92.71651701041667,56.0,91.0
339,92.30803508541666,92.77232055208333,65.0,93.0
340,93.11160608541667,93.68191828125,58.0,83.0
341,93.11160608541667,93.73102539791667,61.0,91.0
342,93.91517708541667,94.03013238125,58.0,90.0
343,93.64732008541667,94.28571260208334,53.0,83.0
344,94.18303408541666,94.45535536874999,58.0,96.0
345,94.18303408541666,94.49776606041667,65.0,95.0
346,94.71874808541668,94.81026589375,58.0,85.0
347,93.11160608541667,95.02008721041668,46.0,94.0
348,94.45089108541666,95.11272108958333,53.0,87.0
349,94.98660508541667,95.84039927291667,61.0,89.0
350,94.98660508541667,95.86830104375,58.0,90.0
351,95.79017608541668,95.93191708124999,65.0,89.0
352,95.52231908541667,96.12722947708333,53.0,79.0
353,96.05803308541667,96.47655964791667,58.0,91.0
354,96.05803308541667,96.48548821458334,70.0,89.0
355,96.32589008541666,96.69084524791667,53.0,90.0
356,96.59374708541667,96.91405941458333,61.0,90.0
357,96.59374708541667,96.91852369791667,65.0,93.0
358,95.25446208541666,96.94084511458334,46.0,90.0
359,96.86160408541667,97.02901471041667,58.0,92.0
360,97.39731808541667,97.98771955625,58.0,84.0
361,97.39731808541667,98.00222847708334,54.0,89.0
362,97.93303208541667,98.08593378958334,61.0,89.0
363,98.20088908541666,98.55133532708334,66.0,91.0
364,98.73660308541668,98.85825480625,61.0,90.0
365,97.39731808541667,99.33593312291667,42.0,89.0
366,97.66517508541668,99.33816526458332,49.0,81.0
367,99.00446008541667,99.83816499791666,54.0,90.0
368,99.27231708541666,99.91070960208333,61.0,89.0
369,100.07588808541666,100.27901297708334,54.0,90.0
370,100.34374508541667,100.69865561041667,54.0,74.0
371,100.34374508541667,100.93861083958333,58.0,93.0
372,100.34374508541667,100.93972691041667,61.0,90.0
373,99.80803108541667,100.98102153125001,49.0,79.0
374,100.34374508541667,101.15066429791668,66.0,91.0
375,100.87945908541667,101.18972677708334,54.0,96.0
376,99.54017408541667,101.21874461875001,42.0,90.0
377,101.14731608541666,101.47544091041667,49.0,91.0
378,101.41517308541667,101.56695871875,54.0,90.0
379,102.21874408541666,102.82365447708334,56.0,86.0
380,102.48660108541667,102.82477054791667,63.0,85.0
381,102.75445808541667,103.10936861041667,68.0,83.0
382,103.02231508541666,103.35825240625,63.0,75.0
383,101.95088708541667,103.63727011458334,51.0,87.0
384,101.68303008541668,103.64843082291667,44.0,90.0
385,103.29017208541667,103.70869864791666,56.0,92.0
386,103.55802908541668,103.74552898541667,63.0,81.0
387,103.82588608541667,104.16963590208334,56.0,90.0
388,103.82588608541667,104.37499293541667,63.0,90.0
389,103.82588608541667,104.38280543125,68.0,89.0
390,104.36160008541667,104.47767145208334,56.0,79.0
391,104.62945708541667,105.90735818958333,56.0,83.0
392,104.09374308541666,105.91293854375,51.0,83.0
393,103.82588608541667,105.93191174791667,44.0,91.0
394,104.62945708541667,105.93972424374999,63.0,87.0
395,104.62945708541667,105.95534923541666,68.0,85.0
396,105.96874208541666,106.30467940625,61.0,89.0
397,106.23659908541667,106.62610780625,56.0,83.0
398,106.50445608541668,106.83146483958333,63.0,79.0
399,105.96874208541666,107.70423223125,49.0,95.0
400,106.77231308541667,108.05691061458333,65.0,89.0
401,108.11159808541666,108.64507994375,61.0,85.0
402,108.64731208541667,109.20199928958334,58.0,80.0
403,108.91516908541666,109.43637416458333,65.0,91.0
404,108.37945508541667,109.70423116458333,53.0,79.0
405,109.45088308541668,109.70646330625,61.0,86.0
406,108.11159808541666,109.77231148541667,46.0,88.0
407,109.71874008541667,110.02342742291667,56.0,69.0
408,110.25445408541667,110.56248963541667,54.0,79.0
409,110.25445408541667,110.81695378541667,58.0,78.0
410,110.52231108541667,111.47878378958333,49.0,77.0
411,110.25445408541667,111.48436414375,42.0,89.0
412,110.79016808541667,111.95199782291667,54.0,89.0
413,111.05802508541666,112.28012264791667,61.0,89.0
414,113.20088108541667,113.41293454375,68.0,87.0
415,112.93302408541666,114.07699668958332,56.0,89.0
416,113.20088108541667,114.10489846041668,63.0,82.0
417,112.39731008541668,114.25221981041668,44.0,89.0
418,112.66516708541667,114.25445195208334,51.0,77.0
419,114.54016608541667,115.37163885625,65.0,90.0
420,115.07588008541667,115.74217437291666,56.0,90.0
421,115.34373708541668,115.79351363125,63.0,90.0
422,114.54016608541667,116.23212946875,49.0,89.0
423,114.80802308541666,116.27565623125,53.0,77.0
424,115.87945108541666,116.31248656875,61.0,92.0
425,116.68302208541667,116.96203979375,58.0,78.0
426,116.68302208541667,117.19641466875001,61.0,83.0
427,117.21873608541667,117.42967347291668,58.0,80.0
428,116.95087908541666,118.20199448958334,53.0,78.0
429,117.48659308541667,118.20869091458334,65.0,90.0
430,116.68302208541667,118.25891410208334,46.0,89.0
431,118.82587808541666,119.15735112291667,54.0,82.0
432,118.82587808541666,119.38168136041666,61.0,73.0
433,119.36159208541667,119.52788663958333,54.0,91.0
434,118.82587808541666,119.56025269375,42.0,89.0
435,119.09373508541667,119.58257411041667,49.0,84.0
436,119.89730608541667,120.19306485625,56.0,85.0
437,119.89730608541667,120.45868971458333,60.0,86.0
438,120.43302008541667,120.62610033958333,56.0,90.0
439,120.16516308541667,120.66851103125,51.0,79.0
440,119.89730608541667,120.69976101458333,44.0,90.0
441,120.96873408541667,121.28011784791667,56.0,85.0
442,120.96873408541667,121.87609967291667,61.0,85.0
443,121.50444808541667,121.89842108958334,56.0,83.0
444,121.77230508541666,122.83257237708334,65.0,93.0
445,121.23659108541666,122.89618841458334,53.0,75.0
446,120.96873408541667,123.45757204375,49.0,91.0
447,123.11159008541667,123.64283980208333,56.0,88.0
448,123.11159008541667,123.91962536875,59.0,89.0
449,123.11159008541667,123.92520572291667,61.0,90.0
450,123.11159008541667,123.93525036041667,65.0,91.0
451,123.64730408541666,124.05578601041667,53.0,82.0
452,123.64730408541666,124.05690208125,49.0,74.0
453,123.91516108541667,124.09484848958334,56.0,87.0
454,124.18301808541666,124.43301795208333,56.0,91.0
455,124.18301808541666,124.60266071875,59.0,98.0
456,124.18301808541666,124.74886599791667,61.0,94.0
457,124.18301808541666,124.76672313125,65.0,98.0
458,124.18301808541666,124.81806238958333,49.0,95.0
459,124.71873208541668,124.88502663958333,56.0,96.0
460,125.25444608541667,125.36716923958333,37.0,89.0
461,125.25444608541667,125.54350843125,56.0,89.0
462,125.25444608541667,125.81248150208333,65.0,90.0
463,125.79016008541667,126.17408845208334,61.0,85.0
464,126.05801708541667,126.75556135625,56.0,89.0
465,126.32587408541667,126.87832914791667,61.0,100.0
466,125.79016008541667,127.25444501875,49.0,84.0
467,126.86158808541667,127.53569486875,56.0,89.0
468,127.12944508541666,127.73770368958334,61.0,88.0
469,126.32587408541667,127.88948932291667,65.0,95.0
470,127.66515908541668,128.04797138125002,56.0,88.0
471,127.93301608541667,128.08480171875,61.0,81.0
472,128.20087308541667,128.60600679791668,63.0,85.0
473,128.20087308541667,128.61828357708333,56.0,89.0
474,128.73658708541666,128.98881909375,56.0,89.0
475,128.73658708541666,129.13614044375,65.0,89.0
476,127.39730208541667,129.34261354791667,49.0,103.0
477,129.00444408541665,129.52118488125,61.0,84.0
478,129.27230108541667,129.67520265625,56.0,86.0
479,130.07587208541668,130.44305938958334,54.0,92.0
480,129.54015808541666,130.47877365624998,42.0,93.0
481,129.80801508541668,130.52341648958333,49.0,84.0
482,130.34372908541667,130.55913075625,58.0,84.0
483,130.61158608541666,131.16738936041668,60.0,88.0
484,130.61158608541666,131.19305898958334,56.0,88.0
485,130.61158608541666,131.5423891604167,44.0,90.0
486,131.14730008541667,131.55020165625,51.0,85.0
487,131.41515708541667,131.59261234791666,56.0,82.0
488,131.6830140854167,131.99774606041666,56.0,89.0
489,131.6830140854167,132.23100486458333,61.0,89.0
490,132.21872808541667,132.57698682291667,56.0,86.0
491,131.6830140854167,132.88948665625,49.0,90.0
492,132.75444208541666,133.05578121041668,61.0,91.0
493,132.75444208541666,133.10712046875,56.0,91.0
494,132.75444208541666,133.30020072291666,65.0,91.0
495,133.02229908541665,133.49328097708332,49.0,91.0
496,133.29015608541667,133.57028986458334,56.0,84.0
497,133.29015608541667,133.61381662708334,61.0,91.0
498,133.5580130854167,133.81917366041665,60.0,84.0
499,133.82587008541668,134.40622691875,58.0,78.0
500,133.82587008541668,134.63836965208333,42.0,90.0
501,134.36158408541667,134.71203032708334,49.0,78.0
502,134.62944108541666,134.75555708958333,54.0,81.0
503,134.89729808541665,135.53569060208332,60.0,90.0
504,134.89729808541665,135.56359237291667,56.0,90.0
505,134.89729808541665,135.58702986041666,44.0,89.0
506,135.43301208541666,135.61158341875,51.0,78.0
507,135.96872608541668,136.25890450208334,53.0,90.0
508,135.96872608541668,136.36046694791668,56.0,89.0
509,136.23658308541667,136.67073463958332,48.0,70.0
510,135.96872608541668,136.68970784375,41.0,95.0
511,136.50444008541666,136.80912742291667,53.0,98.0
512,136.77229708541665,136.86046668125,58.0,80.0
513,136.77229708541665,136.87274346041667,56.0,82.0
514,137.04015408541667,137.37274319375,58.0,84.0
515,137.04015408541667,137.39952889375002,61.0,91.0
516,137.5758680854167,137.72095729375002,58.0,89.0
517,137.5758680854167,137.81247510208334,61.0,93.0
518,137.5758680854167,137.87497506875002,65.0,93.0
519,137.04015408541667,137.96314466458335,46.0,91.0
520,137.30801108541667,137.96872501875,53.0,88.0
521,137.84372508541668,138.00555535625,58.0,84.0
522,138.11158208541667,138.42184977708334,58.0,90.0
523,138.11158208541667,138.64618001458334,63.0,90.0
524,138.11158208541667,138.74885853125,51.0,89.0
525,138.64729608541666,139.03122445208334,58.0,90.0
526,138.91515308541665,139.06693871875,63.0,86.0
527,139.18301008541667,139.47318850208333,58.0,90.0
528,139.18301008541667,139.69082231458333,39.0,96.0
529,139.18301008541667,139.78345619375,63.0,90.0
530,139.18301008541667,139.81470617708334,67.0,92.0
531,139.98658108541667,140.05466140625,63.0,80.0
532,139.71872408541668,140.08367924791668,58.0,90.0
533,140.25443808541667,140.57921469791665,56.0,86.0
534,140.25443808541667,140.62385753125,60.0,91.0
535,140.79015208541665,140.97876805625,56.0,88.0
536,141.05800908541667,141.15733938958334,56.0,74.0
537,141.05800908541667,141.22653578125,63.0,88.0
538,140.52229508541666,141.43189281458334,51.0,84.0
539,141.32586608541666,141.63278556458334,68.0,91.0
540,141.32586608541666,141.67184804375,63.0,93.0
541,141.32586608541666,141.67854446875,56.0,93.0
542,141.86158008541668,141.98434787708334,56.0,89.0
543,141.59372308541668,142.00778536458336,51.0,94.0
544,140.25443808541667,142.11381209375,44.0,90.0
545,142.12943708541667,142.30912448958333,56.0,89.0
546,141.86158008541668,142.35823160625,66.0,91.0
547,142.39729408541666,142.52899044375,56.0,80.0
548,142.39729408541666,142.94974914791666,65.0,91.0
549,142.66515108541665,143.01113304375002,56.0,84.0
550,142.93300808541667,143.09818656875,61.0,78.0
551,143.20086508541667,143.52564169791668,56.0,86.0
552,143.20086508541667,143.54238276041667,63.0,85.0
553,143.73657908541668,143.9307754104167,56.0,91.0
554,143.73657908541668,144.18747170208334,65.0,93.0
555,142.39729408541666,144.44640013541667,49.0,90.0
556,144.54015008541666,144.85488206041668,61.0,89.0
557,144.54015008541666,145.03680160625,65.0,91.0
558,144.80800708541668,145.13948012291667,56.0,90.0
559,145.07586408541667,145.1763104604167,61.0,79.0
560,145.3437210854167,145.99104216875,56.0,93.0
561,145.3437210854167,146.03345286041667,65.0,93.0
562,144.54015008541666,146.2812205854167,49.0,92.0
563,146.14729208541667,146.38947945625,61.0,95.0
564,146.41514908541666,146.56135436458334,56.0,90.0
565,146.68300608541665,147.17407725208335,54.0,87.0
566,146.68300608541665,147.24104150208333,58.0,84.0
567,147.21872008541666,147.54461276875,61.0,85.0
568,146.68300608541665,147.54796098125001,42.0,91.0
569,146.95086308541667,147.55800561875,49.0,83.0
570,147.48657708541668,147.59148774375,54.0,87.0
571,147.75443408541668,148.07251427291666,56.0,87.0
572,147.75443408541668,148.28903201458334,60.0,87.0
573,148.29014808541666,148.40956766458334,56.0,92.0
574,148.02229108541667,148.41738016041666,51.0,82.0
575,147.75443408541668,148.42519265625,44.0,90.0
576,148.82586208541667,149.09929943958332,58.0,89.0
577,148.82586208541667,149.27229041875,61.0,89.0
578,149.3615760854167,149.50220101041668,58.0,90.0
579,149.62943308541668,150.09595069375,60.0,93.0
580,150.16514708541666,150.20309349375,58.0,77.0
581,149.09371908541667,150.22764705208334,53.0,79.0
582,148.82586208541667,150.45755764375002,46.0,91.0
583,150.43300408541666,150.56470044374998,53.0,90.0
584,150.16514708541666,150.64617361458335,61.0,93.0
585,150.96871808541667,151.28233398958332,54.0,84.0
586,150.96871808541667,151.51447672291667,61.0,86.0
587,151.50443208541668,151.81246763541668,54.0,90.0
588,150.96871808541667,151.86045868125,42.0,90.0
589,151.2365750854167,151.87943188541666,49.0,85.0
590,151.77228908541667,151.96202112708335,61.0,80.0
591,152.04014608541667,152.56693151874998,60.0,89.0
592,152.04014608541667,152.57139580208332,44.0,91.0
593,152.04014608541667,152.58925293541665,56.0,87.0
594,153.11157408541666,153.41737749375,53.0,88.0
595,153.11157408541666,153.52005601041668,56.0,86.0
596,153.37943108541668,153.67965413958333,48.0,84.0
597,153.11157408541666,153.68411842291667,41.0,92.0
598,153.64728808541668,153.78791301041667,53.0,91.0
599,154.18300208541666,154.50554655625,58.0,88.0
600,154.18300208541666,154.61380542708332,61.0,88.0
601,154.71871608541667,155.08701946041668,58.0,90.0
602,154.45085908541665,155.11715337291668,53.0,89.0
603,154.18300208541666,155.12719801041666,46.0,91.0
604,154.98657308541667,155.16291227708334,61.0,88.0
605,155.2544300854167,155.54907278541668,58.0,86.0
606,155.2544300854167,155.61492096458335,63.0,87.0
607,155.79014408541667,155.96536720625,58.0,84.0
608,156.05800108541666,156.14728675208335,58.0,77.0
609,156.05800108541666,156.65063469791667,66.0,91.0
610,155.52228708541668,156.80242033125,54.0,82.0
611,155.2544300854167,156.83478638541666,51.0,90.0
612,156.59371508541668,156.85152744791668,63.0,89.0
613,156.86157208541667,157.03679520625002,58.0,86.0
614,157.39728608541668,157.72317876875002,56.0,81.0
615,157.39728608541668,157.86603583541665,63.0,84.0
616,157.93300008541667,158.29349096458333,56.0,82.0
617,158.20085708541666,158.52563369791667,63.0,90.0
618,158.46871408541665,158.99438344791668,68.0,90.0
619,158.73657108541667,159.07362447708334,63.0,90.0
620,157.66514308541667,159.11491909791667,51.0,78.0
621,159.00442808541666,159.17407085208333,56.0,88.0
622,157.39728608541668,159.20643690625002,44.0,89.0
623,159.54014208541668,159.72652591458333,56.0,89.0
624,159.54014208541668,159.88165976041665,61.0,87.0
625,159.80799908541667,160.17407031875,56.0,85.0
626,160.07585608541666,160.36603450208332,63.0,82.0
627,160.34371308541665,160.89281993541667,65.0,88.0
628,160.87942708541667,161.21982868958332,61.0,85.0
629,159.54014208541668,161.41848929791666,49.0,91.0
630,161.1472840854167,161.76335518541669,56.0,79.0
631,161.41514108541668,161.96871221875,61.0,82.0
632,161.95085508541666,162.28679240625002,56.0,86.0
633,162.21871208541666,162.37607807291667,61.0,93.0
634,162.48656908541668,162.8548724604167,56.0,90.0
635,162.48656908541668,162.87049745208333,63.0,94.0
636,161.68299808541667,163.33478291875002,49.0,96.0
637,163.0222830854167,163.43076501041668,56.0,91.0
638,163.0222830854167,163.48656855208333,65.0,93.0
639,163.82585408541667,164.08813073125,58.0,88.0
640,163.82585408541667,164.40509484791667,66.0,89.0
641,164.36156808541665,164.52897871041665,58.0,90.0
642,164.62942508541667,165.14839802291667,58.0,90.0
643,164.62942508541667,165.21982655624998,63.0,90.0
644,164.09371108541666,165.23545154791668,46.0,80.0
645,163.82585408541667,165.26000510625,39.0,92.0
646,164.62942508541667,165.32696935625,66.0,90.0
647,165.43299608541668,165.62049598541665,58.0,93.0
648,165.70085308541667,165.85710300208333,63.0,72.0
649,165.96871008541666,166.25442421875,56.0,84.0
650,165.96871008541666,166.30576347708333,60.0,86.0
651,166.50442408541667,166.63054008958335,63.0,89.0
652,166.77228108541667,167.00777203125,68.0,91.0
653,166.77228108541667,167.08812913125,56.0,82.0
654,166.23656708541665,167.40732538958332,51.0,83.0
655,167.30799508541668,167.45978071874998,56.0,85.0
656,167.30799508541668,167.59594136041667,60.0,94.0
657,167.30799508541668,167.61491456458333,63.0,91.0
658,165.96871008541666,167.66178953958334,44.0,89.0
659,167.57585208541667,167.67853060208336,51.0,93.0
660,168.11156608541665,168.36156595208334,60.0,92.0
661,168.11156608541665,168.66625328958332,68.0,85.0
662,168.64728008541667,168.79794964791665,60.0,86.0
663,168.37942308541668,169.00442275208334,48.0,79.0
664,168.9151370854167,169.28678867291666,65.0,93.0
665,169.45085108541667,169.60821707291666,60.0,77.0
666,168.11156608541665,169.62495813541668,41.0,92.0
667,169.18299408541668,169.65062776458333,48.0,89.0
668,169.45085108541667,169.75107413958335,68.0,93.0
669,169.71870808541667,169.98321687291667,65.0,89.0
670,169.98656508541666,170.10710073541668,60.0,83.0
671,170.25442208541665,170.71647541041665,58.0,86.0
672,170.25442208541665,170.85151998125002,61.0,88.0
673,170.7901360854167,170.89058246041668,65.0,82.0
674,170.52227908541667,171.19192158541665,53.0,83.0
675,171.05799308541668,171.43410895625,65.0,91.0
676,171.05799308541668,171.47986786041668,58.0,84.0
677,171.05799308541668,171.48210000208334,61.0,91.0
678,171.32585008541668,171.73098379791668,53.0,91.0
679,170.25442208541665,171.79013555208334,46.0,89.0
680,171.59370708541667,171.81803732291667,58.0,87.0
681,171.59370708541667,171.93968904375,61.0,90.0
682,172.12942108541665,172.25888530208334,58.0,84.0
683,172.39727808541667,172.58812619791667,58.0,89.0
684,172.39727808541667,172.87049211875,66.0,90.0
685,172.66513508541667,172.99214383958332,58.0,79.0
686,172.93299208541669,173.03678667291666,63.0,80.0
687,173.20084908541668,173.63611671041667,58.0,89.0
688,172.39727808541667,173.73098273125,51.0,95.0
689,173.20084908541668,173.73991129791668,66.0,92.0
690,173.73656308541666,174.02339328958334,63.0,94.0
691,174.00442008541665,174.19303605625,58.0,89.0
692,174.54013408541667,174.78232145625,54.0,85.0
693,174.54013408541667,175.00776776458332,61.0,87.0
694,175.07584808541668,175.31468724375,54.0,84.0
695,175.34370508541667,175.71089238958334,61.0,92.0
696,175.34370508541667,175.71982095625,54.0,84.0
697,174.8079910854167,175.94526726458332,49.0,88.0
698,175.87941908541666,176.10040111041667,54.0,91.0
699,175.87941908541666,176.10374932291666,58.0,92.0
700,175.87941908541666,176.14727608541665,61.0,94.0
701,174.54013408541667,176.17964213958334,42.0,90.0
702,176.14727608541665,176.25218674375,49.0,90.0
703,176.41513308541667,176.61379369374998,56.0,84.0
704,176.6829900854167,176.87160605625002,56.0,78.0
705,176.6829900854167,177.32473081458335,63.0,89.0
706,177.21870408541668,178.01669473125,56.0,92.0
707,177.48656108541667,178.02227508541665,68.0,90.0
708,178.02227508541665,178.35821240625,63.0,93.0
709,176.6829900854167,178.63834618541665,44.0,89.0
710,176.95084708541668,178.65397117708335,51.0,89.0
711,178.29013208541667,179.1472744854167,56.0,93.0
712,178.55798908541666,179.39504221041668,63.0,89.0
713,179.09370308541668,179.70307776041668,51.0,88.0
714,178.82584608541669,179.72316703541668,44.0,91.0
715,179.36156008541667,179.92182764375002,56.0,92.0
716,179.62941708541666,179.99437224791666,63.0,91.0
717,180.16513108541668,180.35263098541668,56.0,90.0
718,180.16513108541668,180.52338982291667,68.0,87.0
719,180.16513108541668,180.80463967291666,63.0,92.0
720,180.7008450854167,180.88499677291668,56.0,85.0
721,180.96870208541668,181.90173730208335,68.0,89.0
722,180.96870208541668,181.92963907291667,56.0,85.0
723,180.96870208541668,181.93745156875002,63.0,90.0
724,182.04013008541665,182.40954953125,56.0,90.0
725,182.04013008541665,182.63053155625,63.0,92.0
726,182.04013008541665,182.71535293958334,68.0,90.0
727,182.5758440854167,183.02896884375,56.0,90.0
728,182.84370108541668,183.05017418958334,63.0,83.0
729,180.96870208541668,183.06691525208333,44.0,89.0
730,182.30798708541667,183.07026346458335,51.0,89.0
731,183.64727208541666,184.02115581458332,63.0,83.0
732,183.11155808541668,185.08030703541667,49.0,91.0
733,183.37941508541667,185.20307482708333,56.0,82.0
734,183.91512908541668,185.33365511458334,65.0,86.0
735,185.25441408541667,185.88945838958333,68.0,85.0
736,185.79012808541668,186.12718147708333,61.0,79.0
737,186.05798508541668,186.43744916875,63.0,84.0
738,186.59369908541666,186.68744903541668,65.0,89.0
739,185.52227108541666,186.69414546041668,56.0,77.0
740,185.25441408541667,186.74771686041666,49.0,90.0
741,187.39727008541666,188.07137686875,61.0,81.0
742,187.39727008541666,188.14726968541666,66.0,85.0
743,187.39727008541666,188.23655535208334,42.0,79.0
744,188.46869808541666,188.81468004375,63.0,80.0
745,188.46869808541666,189.06244776875,68.0,81.0
746,188.73655508541668,189.10597453125,51.0,76.0
747,188.46869808541666,189.12048345208333,44.0,81.0
748,189.00441208541667,189.15619771875,63.0,86.0
749,189.54012608541666,189.82584021875002,65.0,90.0
750,189.54012608541666,189.83030450208335,61.0,84.0
751,190.07584008541667,190.30909888958334,63.0,93.0
752,189.80798308541668,190.45753631041666,56.0,84.0
753,190.34369708541666,190.63052728958334,65.0,96.0
754,189.54012608541666,190.93967891041666,49.0,93.0
755,190.61155408541666,190.96758068125,56.0,85.0
756,190.87941108541668,191.19637520208335,61.0,90.0
757,190.87941108541668,191.54793751458334,65.0,98.0
758,190.87941108541668,191.57472321458334,68.0,90.0
759,191.14726808541667,191.59927677291668,49.0,83.0
760,191.14726808541667,191.60820533958335,56.0,95.0
761,191.41512508541666,191.61378569375,61.0,91.0
762,191.68298208541668,192.26333891875,58.0,78.0
763,191.68298208541668,192.49548165208333,42.0,90.0
764,192.21869608541667,192.56914232708334,49.0,78.0
765,192.48655308541666,192.61266908958333,54.0,81.0
766,192.75441008541668,193.39280260208335,60.0,90.0
767,192.75441008541668,193.42070437291667,56.0,90.0
768,192.75441008541668,193.44414186041666,44.0,89.0
769,193.29012408541666,193.46869541875,51.0,78.0
770,193.82583808541668,194.11601650208334,53.0,90.0
771,193.82583808541668,194.21757894791668,56.0,89.0
772,194.09369508541667,194.52784663958334,48.0,70.0
773,193.82583808541668,194.54681984375,41.0,95.0
774,194.36155208541666,194.66623942291668,53.0,98.0
775,194.62940908541668,194.71757868125002,58.0,80.0
776,194.62940908541668,194.72985546041667,56.0,82.0
777,194.89726608541667,195.22985519375,58.0,84.0
778,194.89726608541667,195.25664089375002,61.0,91.0
779,195.43298008541666,195.57806929375,58.0,89.0
780,195.43298008541666,195.66958710208334,61.0,93.0
781,195.43298008541666,195.73208706875,65.0,93.0
782,194.89726608541667,195.82025666458333,46.0,91.0
783,195.16512308541667,195.82583701875,53.0,88.0
784,195.70083708541668,195.86266735625,58.0,84.0
785,195.96869408541667,196.27896177708334,58.0,90.0
786,195.96869408541667,196.50329201458334,63.0,90.0
787,195.96869408541667,196.60597053125,51.0,89.0
788,196.50440808541669,196.88833645208334,58.0,90.0
789,196.77226508541668,196.92405071875,63.0,86.0
790,197.04012208541667,197.33030050208333,58.0,90.0
791,197.04012208541667,197.54793431458333,39.0,96.0
792,197.04012208541667,197.64056819375,63.0,90.0
793,197.04012208541667,197.67181817708334,67.0,92.0
794,197.84369308541667,197.91177340625,63.0,80.0
795,197.57583608541668,197.94079124791668,58.0,90.0
796,198.11155008541667,198.43632669791668,56.0,86.0
797,198.11155008541667,198.48096953125,60.0,91.0
798,198.64726408541668,198.83588005625,56.0,88.0
799,198.91512108541667,199.01445138958334,56.0,74.0
800,198.91512108541667,199.08364778125,63.0,88.0
801,198.37940708541666,199.28900481458334,51.0,84.0
802,199.18297808541666,199.48989756458334,68.0,91.0
803,199.18297808541666,199.52896004375,63.0,93.0
804,199.18297808541666,199.53565646875,56.0,93.0
805,199.71869208541668,199.84145987708334,56.0,89.0
806,199.45083508541668,199.86489736458333,51.0,94.0
807,198.11155008541667,199.97092409375,44.0,90.0
808,199.98654908541667,200.16623648958333,56.0,89.0
809,199.71869208541668,200.21534360625,66.0,91.0
810,200.79012008541667,201.26891447291666,61.0,97.0
811,201.05797708541667,201.63944998958334,68.0,47.0
812,201.59369108541668,201.91735162708335,65.0,102.0
813,200.52226308541668,202.13275329791668,56.0,62.0
814,200.25440608541666,202.17069970625,49.0,100.0
815,201.86154808541667,202.19971754791666,61.0,80.0
816,202.12940508541666,202.79458330208334,68.0,71.0
817,202.93297608541667,203.09480635625002,61.0,82.0
818,202.66511908541668,203.31467231041668,56.0,73.0
819,203.20083308541666,203.49435971458334,63.0,87.0
820,203.73654708541667,203.87493986875,61.0,73.0
821,203.46869008541668,203.89949342708334,56.0,51.0
822,202.39726208541668,203.96868981875,49.0,92.0
823,203.73654708541667,204.12605580625,65.0,105.0
824,204.00440408541667,204.41511815208335,61.0,60.0
825,204.54011808541668,205.16623382291667,42.0,97.0
826,205.07583208541666,205.33922480208335,54.0,87.0
827,204.80797508541667,205.42181404375,49.0,97.0
828,205.34368908541668,205.61154608541668,61.0,71.0
829,205.61154608541668,205.92292984791666,56.0,71.0
830,205.61154608541668,206.12270652708335,60.0,74.0
831,206.14726008541666,206.44413492708333,56.0,73.0
832,205.87940308541667,206.51109917708334,51.0,78.0
833,205.61154608541668,206.51333131875,44.0,94.0
834,206.68297408541667,206.98877749375,58.0,78.0
835,206.68297408541667,207.19190238541668,61.0,78.0
836,207.21868808541666,207.36266122291667,58.0,84.0
837,206.95083108541667,207.57025039791668,53.0,85.0
838,207.48654508541668,207.72650031458335,58.0,92.0
839,207.48654508541668,207.82248240625,65.0,90.0
840,207.75440208541667,208.06355370625,53.0,55.0
841,208.02225908541666,208.17181257708333,58.0,94.0
842,206.68297408541667,208.28118751875002,46.0,87.0
843,208.02225908541666,208.32806249375,61.0,89.0
844,208.29011608541668,208.40730352291666,58.0,87.0
845,208.82583008541667,209.07136566875,54.0,80.0
846,208.82583008541667,209.17069597291666,61.0,78.0
847,208.82583008541667,209.35931194375001,42.0,94.0
848,209.09368708541666,209.47426723958333,49.0,73.0
849,209.36154408541668,209.49770472708335,54.0,94.0
850,209.89725808541667,210.17850793541666,56.0,82.0
851,209.89725808541667,210.29904358541668,60.0,59.0
852,210.16511508541666,210.45306136041668,51.0,60.0
853,209.89725808541667,210.47315063541666,44.0,100.0
854,210.43297208541668,210.68185588125002,56.0,102.0
855,210.96868608541666,211.21087345625,56.0,80.0
856,210.96868608541666,211.41846263125,41.0,79.0
857,211.23654308541668,211.51556079375,48.0,41.0
858,210.96868608541666,211.54011435208335,60.0,74.0
859,211.50440008541668,211.84256954791667,56.0,100.0
860,211.77225708541667,212.01779266875002,60.0,93.0
861,212.04011408541666,212.30015858958333,58.0,71.0
862,212.04011408541666,212.37493533541667,61.0,87.0
863,212.30797108541668,212.74212263958333,53.0,68.0
864,212.04011408541666,212.95975645208333,46.0,64.0
865,212.57582808541667,212.99212250625,58.0,89.0
866,212.84368508541667,213.03006891458332,65.0,90.0
867,213.11154208541666,213.26779200208333,58.0,76.0
868,213.11154208541666,213.42292584791667,63.0,92.0
869,213.37939908541668,213.73319353958334,58.0,71.0
870,213.64725608541667,213.75216674375,63.0,64.0
871,213.91511308541666,214.10149691458335,58.0,84.0
872,213.91511308541666,214.48988956458334,66.0,92.0
873,213.11154208541666,214.70417516458335,51.0,92.0
874,214.45082708541668,214.70529123541667,63.0,89.0
875,214.71868408541667,214.96421966875002,58.0,89.0
876,214.98654108541666,215.73765675625,63.0,67.0
877,215.79011208541667,215.93631736458335,56.0,87.0
878,215.52225508541667,216.16734402708335,51.0,89.0
879,216.05796908541666,216.61823664375,56.0,89.0
880,216.05796908541666,216.75216514375,60.0,96.0
881,216.05796908541666,216.86935258125,63.0,82.0
882,215.25439808541668,217.20305776041667,44.0,102.0
883,216.86154008541666,217.25997737291667,56.0,89.0
884,216.59368308541667,217.26778986875001,51.0,60.0
885,217.12939708541668,217.30685234791667,60.0,74.0
886,217.39725408541668,217.57694148958333,56.0,76.0
887,217.39725408541668,217.66734322708334,61.0,84.0
888,217.66511108541667,218.03006624791666,56.0,52.0
889,217.93296808541666,218.21198579375002,61.0,41.0
890,218.20082508541668,218.77560156458333,63.0,82.0
891,218.73653908541667,219.03564606875,61.0,78.0
892,217.39725408541668,219.26555666041668,49.0,71.0
893,219.00439608541666,219.57917256458333,56.0,52.0
894,219.27225308541668,220.11935084791668,65.0,87.0
895,219.80796708541666,220.20640437291667,56.0,80.0
896,220.07582408541668,220.20752044375,61.0,66.0
897,220.34368108541668,220.87381473125,63.0,84.0
898,220.87939508541666,221.24211810625002,61.0,55.0
899,221.14725208541668,221.63274289791667,56.0,71.0
900,221.41510908541667,221.69635893541667,65.0,82.0
901,219.54011008541667,221.71979642291666,49.0,94.0
902,221.68296608541667,222.02001947708334,59.0,78.0
903,221.68296608541667,222.30126932708333,63.0,85.0
904,222.21868008541668,222.38943892291667,59.0,82.0
905,222.48653708541667,222.89501901041666,59.0,80.0
906,222.48653708541667,222.89948329375,66.0,90.0
907,223.02225108541668,223.54457223541667,63.0,83.0
908,221.68296608541667,223.69859001041667,47.0,86.0
909,221.95082308541666,223.71756321458335,54.0,70.0
910,223.55796508541667,223.94412559375002,59.0,76.0
911,223.82582208541666,224.18631296458335,68.0,90.0
912,224.36153608541667,224.47760745208333,59.0,74.0
913,224.62939308541667,224.87158045625,59.0,86.0
914,224.62939308541667,225.01443752291667,66.0,89.0
915,224.09367908541668,225.42738373125002,54.0,83.0
916,223.82582208541666,225.46309799791666,47.0,85.0
917,225.16510708541668,225.46533013958333,65.0,93.0
918,225.43296408541667,225.73765142291668,63.0,89.0
919,225.70082108541666,225.92291918125,61.0,90.0
920,225.96867808541668,226.41287427708335,61.0,90.0
921,226.50439208541667,226.66733842708334,54.0,82.0
922,226.77224908541666,227.20305242708335,54.0,81.0
923,226.77224908541666,227.21867741875002,61.0,85.0
924,227.30796308541667,227.57358794375,58.0,79.0
925,227.57582008541667,227.90059669791668,54.0,70.0
926,225.96867808541668,227.94412346041668,42.0,89.0
927,226.23653508541668,227.94523953125,49.0,74.0
928,227.84367708541666,229.20974778541668,61.0,84.0
929,228.64724808541666,229.43296195208333,54.0,81.0
930,229.45081908541667,229.77336355625002,61.0,83.0
931,228.37939108541667,229.84032780625,49.0,78.0
932,228.11153408541668,229.85706886875002,42.0,89.0
933,229.71867608541666,230.09255981458332,54.0,81.0
934,229.98653308541668,230.2443454479167,61.0,83.0
935,228.91510508541668,230.31019362708335,66.0,89.0
936,230.79010408541666,231.35483592708334,56.0,83.0
937,231.05796108541668,231.43407695625,63.0,78.0
938,231.32581808541667,231.94635346875,68.0,86.0
939,231.59367508541666,231.95528203541667,63.0,86.0
940,230.52224708541667,232.01554986041668,51.0,83.0
941,230.25439008541667,232.06465697708333,44.0,89.0
942,231.86153208541668,232.15059443125,56.0,86.0
943,232.39724608541667,233.21644207708334,44.0,77.0
944,232.39724608541667,236.05461020625,56.0,78.0
945,232.39724608541667,236.05795841875002,63.0,78.0
946,236.85706513541666,236.95751151041668,37.0,86.0
947,237.72313610208334,237.90170743541668,61.0,82.0
948,237.87492173541668,238.01554666041667,63.0,86.0
949,238.06353770625,238.22425190625,65.0,89.0
950,238.25550188958334,238.45527856875,68.0,81.0
951,238.44523393125002,238.63719811458333,73.0,76.0
952,238.68630523125,238.80126052708334,75.0,88.0
953,238.95416223125,239.36710843958335,77.0,79.0
954,239.28675133958333,239.47313516875002,80.0,77.0
955,239.71755468125,239.89389387291666,77.0,76.0
956,239.81911712708333,239.97648311458335,80.0,45.0
957,239.89724208541668,240.06465271041668,89.0,73.0
958,237.56242190208334,240.46197392708333,56.0,78.0
959,237.34367201875,240.48764355625,49.0,70.0
