,start,end,pitch,velocity
0,0.13621781249999998,0.5048071875,67.0,96.0
1,0.5208328124999999,2.0849338124999997,72.0,112.0
2,2.0592928125,2.4631385624999997,74.0,92.0
3,2.4439078124999996,2.7996766875,65.0,96.0
4,2.8285228124999997,3.1858942499999996,67.0,95.0
5,3.2131378125,3.62179125,72.0,102.0
6,3.5977528124999996,4.682687625,70.0,107.0
7,4.3669828125,5.137815375,67.0,112.0
8,5.328520312499999,5.498391937499999,50.0,77.0
9,5.520827812499999,5.743583999999999,51.0,83.0
10,5.7131353124999995,5.96794275,53.0,75.0
11,5.9054428125,6.123391312499999,55.0,99.0
12,5.136212812499999,6.163455374999999,65.0,97.0
13,6.0977503125,6.3108911249999995,53.0,82.0
14,6.2900578125,6.509608875,55.0,82.0
15,6.482365312499999,6.610570312499999,58.0,112.0
16,6.674672812499999,7.432684874999999,60.0,122.0
17,7.443902812499999,8.1265944375,67.0,102.0
18,7.443902812499999,8.2259533125,72.0,100.0
19,8.2131328125,10.63460475,74.0,127.0
20,8.2131328125,10.7772328125,65.0,102.0
21,36.6746428125,37.4470779375,60.0,96.0
22,35.136182812499996,37.540026562499996,67.0,107.0
23,37.4438728125,39.060858374999995,68.0,117.0
24,38.9823328125,40.551241499999996,67.0,112.0
25,40.5207928125,41.509573874999994,65.0,95.0
26,41.674637812499995,42.04002206249999,63.0,102.0
27,42.0592528125,42.5272010625,60.0,93.0
28,42.443867812499995,42.616944562499995,70.0,102.0
29,42.636175312499994,42.786816187499994,72.0,86.0
30,42.82848281249999,43.05604668749999,68.0,97.0
31,43.0207903125,43.1938670625,70.0,89.0
32,43.213097812499996,43.732328062499995,72.0,100.0
33,47.0592478125,47.25636299999999,60.0,83.0
34,47.251555312499995,47.4310423125,65.0,83.0
35,47.443862812499994,47.743542,72.0,95.0
36,47.63617031249999,47.830080374999994,70.0,102.0
37,47.8284778125,48.060849375,72.0,88.0
38,48.020785312499996,48.20668256249999,70.0,99.0
39,48.213092812499994,48.823669124999995,67.0,107.0
40,59.55923531249999,59.749940249999995,82.0,95.0
41,59.75154281249999,60.14577318749999,84.0,97.0
42,60.136157812499995,60.54641381249999,87.0,117.0
43,60.52077281249999,60.95987493749999,82.0,127.0
44,60.905387812499995,61.265964374999996,80.0,102.0
45,61.29000281249999,61.682630624999994,79.0,107.0
46,61.674617812499996,62.07365587499999,80.0,95.0
47,62.05923281249999,63.456667312499995,77.0,96.0
48,73.5976828125,73.974285,72.0,112.0
49,73.9822978125,74.40377174999999,74.0,127.0
50,74.75152781249999,75.12011718749999,55.0,82.0
51,75.1361428125,75.564027,60.0,90.0
52,74.36691281249999,75.5944756875,75.0,127.0
53,75.1361428125,75.8572959375,79.0,117.0
54,75.5207578125,75.94223174999999,63.0,112.0
55,75.90537281249999,76.59607725,74.0,112.0
56,75.90537281249999,77.44383281249999,62.0,99.0
57,78.5976778125,78.78838275,70.0,127.0
58,77.44383281249999,78.96786974999999,60.0,107.0
59,78.7899853125,79.01274149999999,68.0,93.0
60,79.75152281249999,80.15697112499998,75.0,127.0
61,78.98229281249999,80.2995991875,70.0,117.0
62,78.98229281249999,80.53197074999999,58.0,102.0
63,80.1361378125,80.55120149999999,77.0,97.0
64,80.52075281249999,81.09767531249999,79.0,117.0
65,81.28998281249999,81.68741831249999,77.0,112.0
66,81.6745978125,82.06882818749999,75.0,117.0
67,82.0592128125,82.4406226875,74.0,127.0
68,82.82844281249999,83.21145524999999,72.0,102.0
69,83.2130578125,83.5976728125,70.0,107.0
70,83.5976728125,84.09446718749999,72.0,122.0
71,84.36690281249999,86.15696512499999,72.0,127.0
72,84.36690281249999,86.49190068749999,75.0,127.0
73,91.6745878125,92.09125406249998,72.0,112.0
74,92.05920281249999,92.330035875,70.0,95.0
75,92.44381781249999,92.85407381249999,63.0,100.0
76,92.82843281249998,94.13131612499998,65.0,78.0
77,96.2899678125,96.717852,79.0,86.0
78,96.67458281249999,97.047979875,77.0,99.0
79,97.05919781249999,97.46464612499999,75.0,83.0
80,97.44381281249998,98.1745813125,74.0,79.0
81,101.67457781249999,102.02233387499999,67.0,97.0
82,102.05919281249999,102.45021806249999,75.0,112.0
83,102.44380781249998,102.87008943749998,74.0,88.0
84,102.8284228125,103.24989674999999,75.0,100.0
85,103.21303781249999,103.62489637499999,77.0,93.0
86,103.59765281249999,104.76752343749999,79.0,99.0
87,110.52072281249998,111.29315793749998,60.0,96.0
88,108.98226281249998,111.38610656249999,67.0,107.0
89,111.28995281249999,112.90693837499998,68.0,117.0
90,112.82841281249999,114.39732149999999,67.0,112.0
91,114.36687281249999,115.35565387499999,65.0,95.0
92,115.52071781249998,115.88610206249999,63.0,102.0
93,115.90533281249999,116.37328106249998,60.0,93.0
94,116.28994781249999,116.46302456249998,70.0,102.0
95,116.48225531249999,116.63289618749998,72.0,86.0
96,116.67456281249999,116.90212668749999,68.0,97.0
97,116.86687031249998,117.03994706249999,70.0,89.0
98,117.05917781249998,117.57840806249999,72.0,100.0
99,120.90532781249999,121.10244299999998,60.0,83.0
100,121.09763531249999,121.27712231249998,65.0,83.0
101,121.28994281249999,121.58962199999999,72.0,95.0
102,121.48225031249999,121.67616037499998,70.0,102.0
103,121.67455781249998,121.90692937499999,72.0,88.0
104,121.86686531249998,122.05276256249999,70.0,99.0
105,122.05917281249998,122.66974912499998,67.0,107.0
106,133.4053153125,133.59602024999998,82.0,95.0
107,133.5976228125,133.9918531875,84.0,97.0
108,133.9822378125,134.3924938125,87.0,117.0
109,134.36685281249999,134.8059549375,82.0,127.0
110,134.75146781249998,135.11204437499998,80.0,102.0
111,135.13608281249998,135.52871062499997,79.0,107.0
112,135.52069781249998,135.919735875,80.0,95.0
113,135.90531281249997,137.30274731249997,77.0,96.0
114,145.13607281249998,145.4662006875,77.0,127.0
115,145.71299531249997,146.05113599999999,75.0,127.0
116,146.2899178125,147.124852875,73.0,127.0
117,148.21299281249998,149.37164549999997,84.0,127.0
118,152.8283728125,153.27228262499997,77.0,102.0
119,153.2129878125,153.66971812499997,79.0,85.0
120,153.59760281249999,154.3283713125,80.0,112.0
121,157.82836781249998,158.20657256249999,75.0,112.0
122,158.21298281249997,158.62163625,80.0,117.0
123,158.59759781249997,159.0014435625,82.0,97.0
124,158.9822128125,159.3508021875,84.0,102.0
125,159.3668278125,159.740224875,82.0,117.0
126,159.7514428125,160.169711625,84.0,100.0
127,160.13605781249998,160.52868562499998,87.0,117.0
128,160.52067281249998,161.7386203125,89.0,107.0
129,172.0591228125,172.42931474999997,68.0,127.0
130,172.4437378125,172.701750375,70.0,127.0
131,172.8283528125,173.67610837499998,71.0,127.0
132,173.59758281249998,174.34597949999997,75.0,122.0
133,174.36681281249997,175.438927125,70.0,117.0
134,175.9052728125,176.8075155,68.0,127.0
135,177.05911781249998,177.26745093749997,70.0,127.0
136,177.25142531249998,177.42930975,71.0,86.0
137,177.44373281249997,178.38603956249997,66.0,117.0
138,178.21296281249997,178.5398855625,68.0,127.0
139,178.5975778125,178.82353912499997,70.0,117.0
140,178.9821928125,179.4533461875,71.0,127.0
141,179.75142281249998,180.13603781249998,75.0,127.0
142,180.52065281249997,181.464562125,78.0,127.0
143,181.6744978125,182.03186924999997,71.0,112.0
144,182.0591128125,182.46616368749997,70.0,112.0
145,182.4437278125,182.8539838125,71.0,88.0
146,182.82834281249998,183.83475206249997,68.0,100.0
147,185.5206478125,185.89885256249997,75.0,127.0
148,185.90526281249998,186.31712137499997,76.0,99.0
149,186.28987781249998,186.70333893749998,87.0,127.0
150,186.67449281249998,187.46776124999997,85.0,127.0
151,188.5975678125,188.96134949999998,82.0,122.0
152,188.98218281249999,189.37481062499998,83.0,100.0
153,189.36679781249998,189.75942562499998,85.0,127.0
154,189.75141281249998,190.23698924999997,87.0,127.0
155,190.13602781249998,190.55429662499998,85.0,107.0
156,190.52064281249997,191.39724449999997,87.0,112.0
157,192.0591028125,192.68089706249998,84.0,127.0
158,192.82833281249998,193.60237049999998,86.0,127.0
159,193.59756281249997,194.38121587499998,79.0,102.0
160,194.36679281249997,196.67448281249997,84.0,127.0
161,197.44371281249997,199.79146687499997,81.0,127.0
162,210.13600781249997,210.2449820625,58.0,89.0
163,210.32831531249997,210.42607162499996,58.0,93.0
164,210.52062281249997,210.61357143749998,58.0,90.0
165,210.71293031249996,210.79786612499998,58.0,99.0
166,210.9052378125,210.97414799999999,58.0,100.0
167,211.0975453125,211.16645549999998,77.0,127.0
168,211.0975453125,211.18087856249997,65.0,122.0
169,211.48216031249999,212.03504437499998,77.0,127.0
170,211.48216031249999,212.18408268749997,65.0,127.0
171,227.39079824999996,227.92124643749997,74.0,58.0
172,227.42605462499998,227.92765668749996,69.0,64.0
173,227.88919518749998,228.40682287499996,72.0,63.0
174,227.90842593749997,228.41323312499998,67.0,63.0
175,228.35714343749999,228.81387374999997,69.0,67.0
176,228.349130625,228.88118137499998,74.0,61.0
177,228.76739943749996,229.71611643749998,72.0,53.0
178,228.81066862499998,230.1520134375,77.0,68.0
179,231.48214031249998,234.96771374999997,84.0,71.0
180,231.48214031249998,235.06066237499996,72.0,71.0
181,235.71290531249997,241.55745075,83.0,62.0
182,235.71290531249997,241.61674556249997,71.0,37.0
