,start,end,pitch,velocity
0,12.828512812499998,13.499986499999999,60.0,77.0
1,13.982357812499998,14.325306187499999,55.0,82.0
2,14.366972812499998,14.935882499999998,62.0,89.0
3,15.520817812499999,15.774022687499999,55.0,79.0
4,15.905432812499999,16.2259453125,63.0,99.0
5,16.2900478125,16.620175687499998,62.0,95.0
6,16.6746628125,17.03203425,60.0,83.0
7,17.0592778125,17.362162124999998,58.0,70.0
8,17.4438928125,17.9358795,55.0,77.0
9,18.982352812499997,19.4246600625,53.0,83.0
10,19.751582812499997,20.408633437499997,63.0,96.0
11,20.520812812499997,21.091325062499998,62.0,89.0
12,20.905427812499997,21.112158374999996,60.0,85.0
13,21.290042812499998,21.496773374999997,58.0,88.0
14,21.674657812499998,21.940683187499996,53.0,66.0
15,22.059272812499998,23.221130624999997,55.0,64.0
16,24.7515778125,25.041641624999997,55.0,70.0
17,25.136192812499996,25.947089437499997,60.0,70.0
18,26.290037812499996,26.669845125,55.0,88.0
19,26.674652812499996,27.429459749999996,62.0,92.0
20,27.828497812499997,28.084907812499996,55.0,74.0
21,28.213112812499997,28.5528560625,63.0,107.0
22,28.597727812499997,28.969522312499997,62.0,88.0
23,28.982342812499997,29.3092655625,63.0,99.0
24,29.366957812499997,29.7050985,65.0,97.0
25,29.751572812499997,30.418238812499997,67.0,100.0
26,31.290032812499998,31.586506874999998,65.0,96.0
27,32.059262812499995,32.5208008125,60.0,92.0
28,32.828492812499995,33.46631268749999,62.0,93.0
29,33.9823378125,34.31406825,58.0,82.0
30,34.366952812499996,35.637784874999994,60.0,93.0
31,37.4438728125,37.834898062499995,65.0,99.0
32,38.597717812499994,38.94226875,60.0,96.0
33,38.9823328125,39.6746398125,63.0,112.0
34,40.136177812499994,40.528805625,61.0,97.0
35,40.5207928125,40.942266749999995,60.0,97.0
36,40.905407812499995,41.179446,63.0,122.0
37,41.2900228125,41.549637937499995,63.0,102.0
38,41.674637812499995,42.03681693749999,65.0,97.0
39,42.0592528125,42.740341875,60.0,102.0
40,43.213097812499996,43.44707193749999,56.0,96.0
41,43.59771281249999,44.030404687499995,58.0,127.0
42,44.751557812499996,45.05123699999999,65.0,100.0
43,45.13617281249999,45.421428937499996,65.0,97.0
44,45.713095312499995,46.08969749999999,63.0,100.0
45,46.2900178125,46.554440625,65.0,95.0
46,46.67463281249999,48.23232356249999,67.0,102.0
47,48.982322812499994,49.22270718749999,65.0,107.0
48,49.3669378125,49.589693999999994,67.0,107.0
49,49.751552812499995,50.203475437499996,68.0,127.0
50,50.520782812499995,51.08488481249999,72.0,107.0
51,51.290012812499995,51.85892249999999,67.0,112.0
52,52.828472812499996,53.092895625,65.0,102.0
53,53.21308781249999,53.443856812499995,67.0,99.0
54,53.597702812499996,53.844497437499996,68.0,122.0
55,53.98231781249999,54.209881687499994,65.0,97.0
56,54.366932812499996,55.13456024999999,63.0,107.0
57,55.9053928125,56.248341187499996,61.0,102.0
58,56.67462281249999,57.235519687499995,68.0,112.0
59,57.44385281249999,57.942249749999995,67.0,122.0
60,57.828467812499994,58.21949306249999,65.0,99.0
61,58.21308281249999,58.37814674999999,63.0,100.0
62,58.597697812499995,58.943851312499994,58.0,95.0
63,58.98231281249999,60.40699087499999,60.0,102.0
64,61.29000281249999,61.62493837499999,65.0,122.0
65,61.674617812499996,61.92622012499999,67.0,99.0
66,62.05923281249999,62.624937374999995,68.0,127.0
67,62.82846281249999,63.360513562499996,72.0,127.0
68,63.59769281249999,64.2835895625,67.0,117.0
69,65.13615281249999,65.426216625,65.0,107.0
70,65.5207678125,65.7867931875,67.0,122.0
71,65.9053828125,66.131344125,68.0,117.0
72,66.28999781249999,66.5528180625,70.0,127.0
73,66.67461281249999,67.39416337499999,72.0,127.0
74,68.21307281249999,68.8797388125,70.0,127.0
75,68.9823028125,69.54480224999999,65.0,100.0
76,69.75153281249999,70.44864749999999,67.0,107.0
77,70.90537781249999,71.26114668749999,63.0,112.0
78,71.28999281249999,73.60890074999999,65.0,112.0
79,86.6745928125,87.34606649999999,60.0,77.0
80,87.82843781249998,88.17138618749999,55.0,82.0
81,88.2130528125,88.78196249999999,62.0,89.0
82,89.36689781249999,89.6201026875,55.0,79.0
83,89.7515128125,90.07202531249999,63.0,99.0
84,90.13612781249999,90.4662556875,62.0,95.0
85,90.52074281249999,90.87811425,60.0,83.0
86,90.90535781249999,91.20824212499998,58.0,70.0
87,91.2899728125,91.78195949999999,55.0,77.0
88,92.82843281249998,93.2707400625,53.0,83.0
89,93.59766281249999,94.25471343749999,63.0,96.0
90,94.36689281249998,94.93740506249999,62.0,89.0
91,94.7515078125,94.958238375,60.0,85.0
92,95.13612281249999,95.34285337499999,58.0,88.0
93,95.52073781249999,95.78676318749999,53.0,66.0
94,95.90535281249998,97.06721062499999,55.0,64.0
95,98.59765781249999,98.88772162499998,55.0,70.0
96,98.98227281249999,99.79316943749998,60.0,70.0
97,100.13611781249999,100.515925125,55.0,88.0
98,100.52073281249999,101.27553975,62.0,92.0
99,101.67457781249999,101.93098781249999,55.0,74.0
100,102.05919281249999,102.39893606249998,63.0,107.0
101,102.44380781249998,102.81560231249999,62.0,88.0
102,102.8284228125,103.15534556249999,63.0,99.0
103,103.21303781249999,103.55117849999999,65.0,97.0
104,103.59765281249999,104.2643188125,67.0,100.0
105,105.13611281249999,105.43258687499998,65.0,96.0
106,105.90534281249998,106.36688081249999,60.0,92.0
107,106.67457281249999,107.3123926875,62.0,93.0
108,107.82841781249999,108.16014824999999,58.0,82.0
109,108.21303281249999,109.483864875,60.0,93.0
110,111.28995281249999,111.68097806249999,65.0,99.0
111,112.4437978125,112.78834874999998,60.0,96.0
112,112.82841281249999,113.52071981249999,63.0,112.0
113,113.98225781249998,114.37488562499999,61.0,97.0
114,114.36687281249999,114.78834674999999,60.0,97.0
115,114.75148781249999,115.02552599999999,63.0,122.0
116,115.13610281249998,115.39571793749998,63.0,102.0
117,115.52071781249998,115.88289693749999,65.0,97.0
118,115.90533281249999,116.58642187499998,60.0,102.0
119,117.05917781249998,117.29315193749999,56.0,96.0
120,117.44379281249999,117.87648468749998,58.0,127.0
121,118.59763781249998,118.89731699999999,65.0,100.0
122,118.9822528125,119.26750893749998,65.0,97.0
123,119.55917531249999,119.93577749999999,63.0,100.0
124,120.13609781249998,120.40052062499998,65.0,95.0
125,120.52071281249998,122.07840356249999,67.0,102.0
126,122.82840281249999,123.06878718749999,65.0,107.0
127,123.21301781249998,123.43577399999998,67.0,107.0
128,123.59763281249998,124.04955543749999,68.0,127.0
129,124.36686281249999,124.93096481249998,72.0,107.0
130,125.13609281249998,125.70500249999999,67.0,112.0
131,126.67455281249998,126.93897562499998,65.0,102.0
132,127.05916781249998,127.28993681249999,67.0,99.0
133,127.44378281249999,127.69057743749998,68.0,122.0
134,127.82839781249999,128.05596168749997,65.0,97.0
135,128.21301281249998,128.98064025,63.0,107.0
136,129.7514728125,130.0944211875,61.0,102.0
137,130.5207028125,131.0815996875,68.0,112.0
138,131.28993281249998,131.78832974999997,67.0,122.0
139,131.67454781249998,132.0655730625,65.0,99.0
140,132.05916281249998,132.22422674999999,63.0,100.0
141,132.44377781249997,132.7899313125,58.0,95.0
142,132.8283928125,134.253070875,60.0,102.0
143,135.13608281249998,135.47101837499997,65.0,122.0
144,135.52069781249998,135.772300125,67.0,99.0
145,135.90531281249997,136.47101737499997,68.0,127.0
146,136.6745428125,137.2065935625,72.0,127.0
147,137.4437728125,138.1296695625,67.0,117.0
148,138.98223281249997,139.272296625,65.0,107.0
149,139.3668478125,139.6328731875,67.0,122.0
150,139.7514628125,139.97742412499997,68.0,117.0
151,140.1360778125,140.3988980625,70.0,127.0
152,140.5206928125,141.24024337499998,72.0,127.0
153,142.05915281249997,142.7258188125,70.0,127.0
154,142.8283828125,143.39088224999998,65.0,100.0
155,143.5976128125,144.2947275,67.0,107.0
156,144.75145781249998,145.10722668749997,63.0,112.0
157,145.13607281249998,146.6745328125,65.0,112.0
158,147.44376281249998,147.68414718749997,65.0,107.0
159,147.82837781249998,148.051134,67.0,107.0
160,148.21299281249998,148.66491543749999,68.0,127.0
161,148.98222281249997,149.5463248125,72.0,107.0
162,149.7514528125,150.3203625,67.0,112.0
163,151.28991281249998,151.554335625,65.0,102.0
164,151.67452781249997,151.90529681249998,67.0,99.0
165,152.05914281249997,152.30593743749998,68.0,122.0
166,152.4437578125,152.67132168749998,65.0,97.0
167,152.8283728125,153.59600024999997,63.0,107.0
168,154.36683281249998,154.70978118749997,61.0,102.0
169,155.13606281249997,155.69695968749997,68.0,112.0
170,155.9052928125,156.40368974999998,67.0,122.0
171,156.2899078125,156.68093306249997,65.0,99.0
172,156.6745228125,156.83958675,63.0,100.0
173,157.05913781249998,157.40529131249997,58.0,95.0
174,157.44375281249998,158.86843087499997,60.0,102.0
175,159.7514428125,160.08637837499998,65.0,122.0
176,160.13605781249998,160.38766012499997,67.0,99.0
177,160.52067281249998,161.08637737499998,68.0,127.0
178,161.28990281249997,161.82195356249997,72.0,127.0
179,162.05913281249997,162.74502956249998,67.0,117.0
180,163.59759281249998,163.88765662499998,65.0,107.0
181,163.98220781249998,164.24823318749998,67.0,122.0
182,164.36682281249998,164.59278412499998,68.0,117.0
183,164.75143781249997,165.01425806249998,70.0,127.0
184,165.13605281249997,165.855603375,72.0,127.0
185,166.67451281249998,167.34117881249998,70.0,127.0
186,167.44374281249998,168.00624224999999,65.0,100.0
187,168.21297281249997,168.91008749999997,67.0,107.0
188,169.3668178125,169.72258668749998,63.0,112.0
189,169.75143281249998,171.28989281249997,65.0,112.0
190,199.75140281249998,199.99178718749997,67.0,107.0
191,200.13601781249997,200.35877399999998,69.0,107.0
192,200.52063281249997,200.97255543749998,70.0,127.0
193,201.2898628125,201.85396481249998,74.0,107.0
194,202.05909281249998,202.62800249999998,69.0,112.0
195,203.59755281249997,203.86197562499999,67.0,102.0
196,203.98216781249997,204.21293681249998,69.0,99.0
197,204.36678281249996,204.61357743749997,70.0,122.0
198,204.7513978125,204.97896168749998,67.0,97.0
199,205.13601281249998,205.90364024999997,65.0,107.0
200,206.67447281249997,207.01742118749996,63.0,102.0
201,207.44370281249996,208.0045996875,70.0,112.0
202,208.2129328125,208.71132974999998,69.0,122.0
203,208.59754781249998,208.98857306249997,67.0,99.0
204,208.98216281249998,209.14722675,65.0,100.0
205,209.36677781249998,209.7129313125,60.0,95.0
206,209.75139281249997,211.17607087499997,62.0,102.0
207,212.05908281249998,212.39401837499997,67.0,122.0
208,212.44369781249998,212.695300125,69.0,99.0
209,212.82831281249997,213.39401737499998,70.0,127.0
210,213.59754281249997,214.12959356249996,74.0,127.0
211,214.3667728125,215.05266956249997,69.0,117.0
212,215.90523281249997,216.19529662499997,67.0,107.0
213,216.28984781249997,216.55587318749997,69.0,122.0
214,216.67446281249997,216.90042412499997,70.0,117.0
215,217.05907781249996,217.32189806249997,72.0,127.0
216,217.4436928125,218.16324337499998,74.0,127.0
217,218.98215281249998,219.64881881249997,72.0,127.0
218,219.75138281249997,220.31388224999998,67.0,100.0
219,220.52061281249996,221.21772749999997,69.0,107.0
220,221.67445781249998,222.03022668749998,65.0,112.0
221,222.05907281249998,223.59753281249996,67.0,112.0
222,225.32830031249998,226.15361999999996,72.0,117.0
223,227.05906781249996,227.46291356249998,67.0,81.0
224,227.63599031249998,228.67284825,69.0,102.0
225,230.32829531249996,231.91643474999998,65.0,96.0
226,231.86675531249998,234.72732937499998,67.0,92.0
