,start,end,pitch,velocity
0,0.5208328124999999,1.8814083749999997,44.0,86.0
1,0.9054478125,2.0208313125,56.0,82.0
2,1.6746778125,2.05769025,63.0,56.0
3,1.2900628124999998,2.1618568125,60.0,76.0
4,2.0592928125,2.8509586874999995,46.0,35.0
5,2.4439078124999996,3.6474322499999996,58.0,63.0
6,2.8285228124999997,3.7115347499999998,62.0,86.0
7,3.9823678124999997,4.9118540625,43.0,59.0
8,4.3669828125,4.95512325,48.0,58.0
9,3.5977528124999996,4.964738625,36.0,71.0
10,4.751597812499999,5.5240329374999995,55.0,72.0
11,5.520827812499999,6.041660625,60.0,79.0
12,5.9054428125,6.339737249999999,55.0,85.0
13,5.136212812499999,6.570506249999999,63.0,102.0
14,6.2900578125,6.580121624999999,60.0,89.0
15,6.674672812499999,6.919864874999999,44.0,96.0
16,6.866980312499999,6.919864874999999,44.0,64.0
17,7.059287812499999,7.5160181249999996,56.0,69.0
18,7.251595312499999,7.592941124999999,60.0,79.0
19,6.866980312499999,7.721146124999999,51.0,34.0
20,7.636210312499999,7.887812624999999,56.0,81.0
21,7.8285178124999995,8.177876437499998,63.0,95.0
22,7.443902812499999,8.1874918125,68.0,127.0
23,8.0208253125,8.251594312499998,60.0,95.0
24,8.5977478125,9.2035164375,58.0,97.0
25,8.2131328125,9.677874937499999,46.0,102.0
26,9.751592812499998,12.1394109375,46.0,72.0
27,8.982362812499998,12.815692312499998,62.0,86.0
28,9.751592812499998,12.818897437499999,65.0,72.0
29,9.366977812499998,12.846141,58.0,57.0
30,13.213127812499998,13.999985999999998,43.0,56.0
31,12.828512812499998,14.012806499999998,36.0,77.0
32,13.597742812499998,14.391011249999998,63.0,97.0
33,13.982357812499998,14.439088124999998,60.0,63.0
34,14.366972812499998,15.626586937499999,46.0,58.0
35,15.136202812499999,15.791650874999998,53.0,45.0
36,14.751587812499999,15.817291874999999,50.0,50.0
37,15.905432812499999,16.746778125,44.0,72.0
38,16.2900478125,16.937483062499997,56.0,90.0
39,17.0592778125,17.424662062499998,56.0,71.0
40,16.6746628125,17.463123562499998,63.0,86.0
41,17.4438928125,18.3701739375,39.0,74.0
42,17.828507812499996,18.400622624999997,51.0,81.0
43,18.213122812499996,18.972737437499998,63.0,117.0
44,18.597737812499997,19.105750124999997,55.0,66.0
45,18.982352812499997,19.876582687499997,41.0,69.0
46,19.366967812499997,19.923056999999996,48.0,37.0
47,19.751582812499997,20.4663256875,60.0,92.0
48,20.136197812499997,20.485556437499998,56.0,53.0
49,20.905427812499997,21.3317094375,58.0,73.0
50,20.520812812499997,21.538439999999998,46.0,92.0
51,21.290042812499998,22.1009394375,62.0,82.0
52,22.059272812499998,23.009592374999997,39.0,81.0
53,22.443887812499998,23.131387124999996,51.0,66.0
54,22.8285028125,23.641001999999997,63.0,102.0
55,23.2131178125,23.650617374999996,58.0,57.0
56,23.9823478125,24.596129249999997,50.0,63.0
57,23.5977328125,24.681065062499997,43.0,73.0
58,24.7515778125,25.182667125,58.0,62.0
59,24.3669628125,25.225936312499996,62.0,92.0
60,25.136192812499996,26.048050874999998,36.0,70.0
61,25.520807812499996,26.065679062499996,43.0,56.0
62,25.905422812499996,26.602537499999997,63.0,99.0
63,26.290037812499996,26.780421937499998,55.0,72.0
64,26.674652812499996,27.756382499999997,46.0,86.0
65,27.443882812499997,28.110548812499996,65.0,63.0
66,27.443882812499997,28.124971874999996,53.0,60.0
67,27.828497812499997,28.128176999999997,58.0,64.0
68,27.059267812499996,28.168241062499998,50.0,60.0
69,28.597727812499997,28.923047999999998,56.0,81.0
70,28.213112812499997,28.972727437499998,44.0,95.0
71,28.982342812499997,29.477534624999997,46.0,99.0
72,29.366957812499997,29.900611124999998,58.0,74.0
73,29.751572812499997,30.5849053125,39.0,85.0
74,30.136187812499998,30.701892374999996,51.0,77.0
75,30.520802812499998,31.203494437499998,63.0,97.0
76,30.905417812499998,31.334904562499997,55.0,58.0
77,31.290032812499998,32.4150316875,41.0,77.0
78,31.674647812499998,32.740351874999995,48.0,58.0
79,32.4438778125,32.82689025,56.0,65.0
80,32.059262812499995,32.8605440625,60.0,92.0
81,33.2131078125,33.7772098125,50.0,52.0
82,32.828492812499995,33.8284918125,43.0,71.0
83,33.9823378125,34.349324624999994,58.0,48.0
84,33.597722812499995,34.434260437499994,62.0,88.0
85,35.136182812499996,36.11695106249999,48.0,88.0
86,35.52079781249999,36.5560531875,63.0,99.0
87,35.905412812499996,36.5784890625,60.0,92.0
88,34.366952812499996,36.785219624999996,36.0,82.0
89,36.29002781249999,36.793232437499995,48.0,68.0
90,34.7515678125,36.796437562499996,43.0,37.0
91,36.6746428125,37.397398499999994,63.0,112.0
92,37.82848781249999,39.8252806875,49.0,71.0
93,37.4438728125,39.958293375,37.0,90.0
94,38.9823328125,40.554446625,61.0,100.0
95,38.597717812499994,40.5945106875,56.0,86.0
96,38.2131028125,40.629767062499994,53.0,83.0
97,40.905407812499995,41.60572762499999,43.0,57.0
98,40.5207928125,41.63136862499999,36.0,72.0
99,41.2900228125,42.01117593749999,48.0,73.0
100,41.674637812499995,42.075278437499996,51.0,93.0
101,42.636175312499994,42.7002778125,56.0,28.0
102,42.0592528125,42.8765596875,41.0,73.0
103,42.443867812499995,42.911816062499994,48.0,69.0
104,43.213097812499996,43.562456437499996,53.0,63.0
105,42.82848281249999,43.5768795,56.0,76.0
106,42.82848281249999,43.58969999999999,60.0,92.0
107,44.36694281249999,44.81245518749999,61.0,107.0
108,43.982327812499996,45.33969825,58.0,93.0
109,45.13617281249999,45.823672124999995,61.0,97.0
110,44.751557812499996,45.8445054375,65.0,88.0
111,45.90540281249999,46.0175821875,58.0,59.0
112,43.59771281249999,46.17463331249999,46.0,99.0
113,46.2900178125,46.684248187499996,58.0,66.0
114,45.90540281249999,46.70828662499999,65.0,72.0
115,45.90540281249999,46.71149174999999,61.0,72.0
116,47.443862812499994,47.884567499999996,48.0,95.0
117,48.020785312499996,48.0640545,55.0,30.0
118,47.8284778125,48.131362124999995,52.0,100.0
119,46.67463281249999,48.36854137499999,36.0,83.0
120,47.0592478125,48.4695028125,43.0,63.0
121,48.213092812499994,48.580079624999996,48.0,127.0
122,48.213092812499994,48.5977078125,52.0,117.0
123,48.213092812499994,48.60732318749999,55.0,117.0
124,48.5977078125,49.131361125,36.0,67.0
125,48.982322812499994,49.676232375,55.0,88.0
126,48.982322812499994,49.681040062499996,64.0,96.0
127,48.982322812499994,49.695463124999996,60.0,107.0
128,50.13616781249999,50.392577812499994,53.0,92.0
129,50.3284753125,50.487128999999996,56.0,112.0
130,49.94386031249999,50.58809043749999,48.0,95.0
131,49.751552812499995,50.790013312499994,41.0,102.0
132,50.71309031249999,50.822064562499996,48.0,93.0
133,51.0977053125,51.112128375,52.0,61.0
134,50.520782812499995,51.213089812499994,60.0,107.0
135,50.90539781249999,51.24033337499999,56.0,112.0
136,51.0977053125,51.30283331249999,53.0,73.0
137,51.67462781249999,52.09770431249999,51.0,97.0
138,51.8669353125,52.181037562499995,55.0,83.0
139,51.48232031249999,52.31565281249999,46.0,40.0
140,52.251550312499994,52.39898606249999,51.0,102.0
141,51.290012812499995,52.461485999999994,39.0,55.0
142,52.44385781249999,52.706678062499996,58.0,112.0
143,52.059242812499996,52.714690874999995,63.0,127.0
144,52.6361653125,52.796421562499994,55.0,95.0
145,53.40539531249999,53.5496259375,56.0,88.0
146,53.21308781249999,53.65860018749999,53.0,67.0
147,53.020780312499994,53.66661299999999,49.0,78.0
148,53.790010312499994,53.93424093749999,49.0,97.0
149,52.828472812499996,54.003151124999995,37.0,99.0
150,53.98231781249999,54.267573937499996,56.0,99.0
151,53.597702812499996,54.29642006249999,61.0,127.0
152,54.17462531249999,54.338086687499995,53.0,89.0
153,54.75154781249999,55.21629093749999,48.0,93.0
154,54.94385531249999,55.31564981249999,55.0,93.0
155,54.559240312499995,55.38135487499999,43.0,88.0
156,54.366932812499996,55.43263687499999,36.0,76.0
157,55.328470312499995,55.50635474999999,48.0,93.0
158,55.52077781249999,55.810841624999995,60.0,112.0
159,55.1361628125,55.81244418749999,63.0,122.0
160,55.71308531249999,55.85571337499999,55.0,95.0
161,56.290007812499994,56.741930437499995,58.0,93.0
162,56.48231531249999,56.804430374999995,61.0,93.0
163,56.097700312499995,56.94225074999999,53.0,57.0
164,56.866930312499996,57.02718656249999,58.0,100.0
165,55.9053928125,57.0688531875,46.0,99.0
166,57.059237812499994,57.467891249999994,61.0,86.0
167,57.25154531249999,57.48071174999999,65.0,69.0
168,56.67462281249999,57.48391687499999,70.0,127.0
169,58.02077531249999,58.195454624999996,58.0,92.0
170,57.636160312499996,58.30442887499999,51.0,72.0
171,57.828467812499994,58.390967249999996,55.0,72.0
172,57.44385281249999,58.700261812499996,39.0,100.0
173,58.405390312499996,58.84288987499999,51.0,90.0
174,58.21308281249999,58.9278256875,63.0,122.0
175,58.597697812499995,58.929428249999994,58.0,107.0
176,58.79000531249999,58.93103081249999,55.0,92.0
177,59.366927812499995,59.812440187499995,56.0,99.0
178,59.55923531249999,59.92782468749999,60.0,79.0
179,59.75154281249999,60.32526018749999,68.0,127.0
180,58.98231281249999,60.34449093749999,44.0,85.0
181,60.136157812499995,60.37333706249999,63.0,107.0
182,59.1746203125,60.3893626875,51.0,39.0
183,59.94385031249999,60.42942674999999,56.0,95.0
184,60.32846531249999,60.45186262499999,60.0,97.0
185,60.52077281249999,60.953464687499995,60.0,79.0
186,60.52077281249999,61.11372093749999,68.0,112.0
187,60.52077281249999,61.118528624999996,63.0,127.0
188,60.905387812499995,61.342887375,56.0,107.0
189,61.097695312499994,61.458271874999994,60.0,93.0
190,60.71308031249999,61.560835874999995,51.0,73.0
191,61.48231031249999,61.586476874999995,56.0,102.0
192,60.52077281249999,61.652181937499996,44.0,93.0
193,61.674617812499996,61.91980987499999,63.0,112.0
194,61.29000281249999,61.947053437499996,68.0,127.0
195,61.866925312499994,62.205065999999995,60.0,112.0
196,62.443847812499996,62.874937124999995,53.0,90.0
197,62.636155312499994,62.99192418749999,60.0,95.0
198,63.02077031249999,63.11692406249999,53.0,85.0
199,62.05923281249999,63.13775737499999,41.0,69.0
200,62.25154031249999,63.14256506249999,48.0,81.0
201,62.82846281249999,63.479103187499994,68.0,117.0
202,63.213077812499996,63.50634674999999,65.0,90.0
203,63.405385312499995,63.61051331249999,60.0,97.0
204,63.98230781249999,64.46307656249999,51.0,99.0
205,64.1746153125,64.57044825,55.0,82.0
206,63.79000031249999,64.66980712499999,46.0,65.0
207,64.55923031249999,64.67140968749999,51.0,96.0
208,63.59769281249999,64.70185837499999,39.0,73.0
209,64.3669228125,65.04480674999999,63.0,112.0
210,64.75153781249999,65.07525543749999,58.0,100.0
211,64.94384531249999,65.08967849999999,55.0,90.0
212,65.7130753125,65.868523875,56.0,76.0
213,65.3284603125,65.99352375,49.0,97.0
214,65.5207678125,66.0303826875,53.0,89.0
215,65.13615281249999,66.19865175,37.0,93.0
216,66.09769031249999,66.28198499999999,49.0,93.0
217,66.28999781249999,66.59288212499999,53.0,93.0
218,66.48230531249999,66.640959,56.0,107.0
219,65.9053828125,66.640959,61.0,117.0
220,67.0592278125,67.48230431249999,51.0,92.0
221,67.2515353125,67.567240125,56.0,86.0
222,66.8669203125,67.6265349375,48.0,61.0
223,66.67461281249999,67.7066630625,44.0,88.0
224,67.63615031249999,67.80602193749999,51.0,95.0
225,67.4438428125,67.849291125,63.0,102.0
226,67.82845781249999,68.10089343749999,56.0,112.0
227,68.02076531249999,68.12493187499999,63.0,97.0
228,68.5976878125,69.10890524999999,61.0,85.0
229,68.40538031249999,69.12653343749999,58.0,92.0
230,69.1746103125,69.2835845625,58.0,86.0
231,68.21307281249999,69.36531525,46.0,93.0
232,68.9823028125,69.6874303125,65.0,83.0
233,70.1361478125,70.6746088125,48.0,86.0
234,69.75153281249999,70.7194805625,36.0,51.0
235,69.94384031249999,70.72268568749999,43.0,67.0
236,70.5207628125,71.27556974999999,63.0,112.0
237,70.3284553125,71.38774912499998,55.0,72.0
238,71.8669153125,72.11370993749999,55.0,72.0
239,71.67460781249999,72.12973556249999,53.0,73.0
240,71.48230031249999,72.18582525,48.0,59.0
241,71.28999281249999,72.743517,41.0,76.0
242,72.2515303125,72.82685024999999,48.0,83.0
243,72.44383781249999,74.32524618749999,56.0,95.0
244,72.0592228125,74.34768206249998,60.0,97.0
245,72.82845281249999,74.35248974999999,53.0,95.0
246,72.82845281249999,74.3717205,41.0,88.0
247,74.36691281249999,75.12492487499999,36.0,79.0
248,74.75152781249999,75.14095049999999,43.0,65.0
249,75.1361428125,75.86210362499999,63.0,89.0
250,75.1361428125,75.86851387499999,60.0,82.0
251,75.5207578125,75.92139843749999,55.0,72.0
252,75.90537281249999,76.9566538125,46.0,100.0
253,76.6746028125,76.98870506249999,53.0,81.0
254,76.28998781249999,77.00312812499999,50.0,65.0
255,76.6746028125,77.39575593749998,62.0,95.0
256,77.0592178125,77.4053713125,58.0,92.0
257,77.82844781249999,78.33485756249999,56.0,90.0
258,77.44383281249999,78.37972931249999,44.0,92.0
259,78.5976778125,78.93421593749999,63.0,42.0
260,78.21306281249998,78.95665181249998,60.0,93.0
261,79.36690781249999,79.83165093749999,51.0,95.0
262,79.9438303125,80.0848558125,51.0,81.0
263,78.98229281249999,80.1137019375,39.0,93.0
264,80.1361378125,80.42139393749999,58.0,122.0
265,79.75152281249999,80.46786825,63.0,127.0
266,80.3284453125,80.64254756249998,55.0,97.0
267,80.71306031249999,81.33325199999999,43.0,85.0
268,80.52075281249999,81.36370068749999,36.0,85.0
269,81.09767531249999,81.432610875,55.0,92.0
270,80.90536781249999,81.51914924999998,48.0,95.0
271,81.28998281249999,81.9630590625,63.0,127.0
272,81.6745978125,82.01914874999999,60.0,95.0
273,82.44382781249999,82.92459656249999,53.0,88.0
274,82.63613531249999,82.98389137499998,58.0,82.0
275,82.25152031249999,83.15216043749999,50.0,54.0
276,82.0592128125,83.17139118749999,46.0,99.0
277,82.82844281249999,83.560813875,65.0,73.0
278,83.2130578125,83.5976728125,58.0,93.0
279,83.5976728125,84.0303646875,57.0,90.0
280,83.98228781249999,84.5463898125,51.0,85.0
281,83.5976728125,84.7739536875,60.0,102.0
282,83.5976728125,84.82683825,63.0,102.0
283,84.36690281249999,85.01594062499998,57.0,92.0
284,83.5976728125,85.04318418749999,45.0,81.0
285,84.75151781249998,85.06722262499999,51.0,61.0
286,85.1361328125,86.59125956249999,57.0,88.0
287,85.1361328125,86.59125956249999,60.0,97.0
288,85.1361328125,86.60568262499999,63.0,99.0
289,85.1361328125,86.60888775,45.0,61.0
290,85.1361328125,86.615298,51.0,68.0
291,87.05920781249999,87.846066,43.0,56.0
292,86.6745928125,87.8588865,36.0,77.0
293,87.44382281249999,88.23709124999999,63.0,97.0
294,87.82843781249998,88.28516812499998,60.0,63.0
295,88.2130528125,89.4726669375,46.0,58.0
296,88.98228281249999,89.63773087499999,53.0,45.0
297,88.59766781249999,89.663371875,50.0,50.0
298,89.7515128125,90.59285812499999,44.0,72.0
299,90.13612781249999,90.7835630625,56.0,90.0
300,90.90535781249999,91.27074206249999,56.0,71.0
301,90.52074281249999,91.30920356249999,63.0,86.0
302,91.2899728125,92.21625393749999,39.0,74.0
303,91.6745878125,92.24670262499998,51.0,81.0
304,92.05920281249999,92.81881743749999,63.0,117.0
305,92.44381781249999,92.95183012499999,55.0,66.0
306,92.82843281249998,93.72266268749999,41.0,69.0
307,93.2130478125,93.76913699999999,48.0,37.0
308,93.59766281249999,94.31240568749999,60.0,92.0
309,93.98227781249999,94.3316364375,56.0,53.0
310,94.7515078125,95.1777894375,58.0,73.0
311,94.36689281249998,95.38452,46.0,92.0
312,95.13612281249999,95.94701943749999,62.0,82.0
313,95.90535281249998,96.85567237499998,39.0,81.0
314,96.2899678125,96.97746712499999,51.0,66.0
315,96.67458281249999,97.48708199999999,63.0,102.0
316,97.05919781249999,97.49669737499998,58.0,57.0
317,97.8284278125,98.44220924999999,50.0,63.0
318,97.44381281249998,98.52714506249998,43.0,73.0
319,98.59765781249999,99.028747125,58.0,62.0
320,98.21304281249999,99.07201631249998,62.0,92.0
321,98.98227281249999,99.89413087499999,36.0,70.0
322,99.36688781249998,99.91175906249998,43.0,56.0
323,99.7515028125,100.44861749999998,63.0,99.0
324,100.13611781249999,100.6265019375,55.0,72.0
325,100.52073281249999,101.60246249999999,46.0,86.0
326,101.2899628125,101.95662881249999,65.0,63.0
327,101.2899628125,101.97105187499999,53.0,60.0
328,101.67457781249999,101.974257,58.0,64.0
329,100.90534781249998,102.01432106249999,50.0,60.0
330,102.44380781249998,102.769128,56.0,81.0
331,102.05919281249999,102.81880743749998,44.0,95.0
332,102.8284228125,103.32361462499999,46.0,99.0
333,103.21303781249999,103.74669112499998,58.0,74.0
334,103.59765281249999,104.43098531249998,39.0,85.0
335,103.98226781249998,104.54797237499999,51.0,77.0
336,104.3668828125,105.04957443749998,63.0,97.0
337,104.75149781249999,105.18098456249999,55.0,58.0
338,105.13611281249999,106.26111168749999,41.0,77.0
339,105.52072781249998,106.58643187499999,48.0,58.0
340,106.28995781249999,106.67297024999999,56.0,65.0
341,105.90534281249998,106.70662406249998,60.0,92.0
342,107.05918781249999,107.62328981249999,50.0,52.0
343,106.67457281249999,107.67457181249999,43.0,71.0
344,107.82841781249999,108.195404625,58.0,48.0
345,107.44380281249998,108.28034043749999,62.0,88.0
346,108.98226281249998,109.9630310625,48.0,88.0
347,109.3668778125,110.40213318749998,63.0,99.0
348,109.75149281249999,110.42456906249998,60.0,92.0
349,108.21303281249999,110.63129962499998,36.0,82.0
350,110.13610781249999,110.63931243749998,48.0,68.0
351,108.59764781249999,110.64251756249999,43.0,37.0
352,110.52072281249998,111.24347849999998,63.0,112.0
353,111.67456781249999,113.67136068749998,49.0,71.0
354,111.28995281249999,113.80437337499998,37.0,90.0
355,112.82841281249999,114.40052662499998,61.0,100.0
356,112.4437978125,114.44059068749999,56.0,86.0
357,112.05918281249998,114.47584706249998,53.0,83.0
358,114.75148781249999,115.45180762499999,43.0,57.0
359,114.36687281249999,115.477448625,36.0,72.0
360,115.13610281249998,115.85725593749999,48.0,73.0
361,115.52071781249998,115.92135843749999,51.0,93.0
362,116.48225531249999,116.54635781249999,56.0,28.0
363,115.90533281249999,116.72263968749999,41.0,73.0
364,116.28994781249999,116.75789606249998,48.0,69.0
365,117.05917781249998,117.40853643749999,53.0,63.0
366,116.67456281249999,117.42295949999999,56.0,76.0
367,116.67456281249999,117.43577999999998,60.0,92.0
368,118.21302281249999,118.6585351875,61.0,107.0
369,117.82840781249999,119.18577824999998,58.0,93.0
370,118.9822528125,119.66975212499999,61.0,97.0
371,118.59763781249998,119.69058543749999,65.0,88.0
372,119.75148281249999,119.86366218749998,58.0,59.0
373,117.44379281249999,120.02071331249999,46.0,99.0
374,120.13609781249998,120.53032818749999,58.0,66.0
375,119.75148281249999,120.55436662499999,65.0,72.0
376,119.75148281249999,120.55757174999998,61.0,72.0
377,121.28994281249999,121.73064749999999,48.0,95.0
378,121.86686531249998,121.91013449999998,55.0,30.0
379,121.67455781249998,121.97744212499998,52.0,100.0
380,120.52071281249998,122.214621375,36.0,83.0
381,120.90532781249999,122.31558281249998,43.0,63.0
382,122.05917281249998,122.42615962499998,48.0,127.0
383,122.05917281249998,122.44378781249999,52.0,117.0
384,122.05917281249998,122.45340318749999,55.0,117.0
385,122.44378781249999,122.97744112499998,36.0,67.0
386,122.82840281249999,123.52231237499998,55.0,88.0
387,122.82840281249999,123.52712006249999,64.0,96.0
388,122.82840281249999,123.54154312499999,60.0,107.0
389,123.98224781249999,124.23865781249998,53.0,92.0
390,124.17455531249999,124.33320899999998,56.0,112.0
391,123.78994031249998,124.43417043749999,48.0,95.0
392,123.59763281249998,124.63609331249998,41.0,102.0
393,124.55917031249999,124.66814456249999,48.0,93.0
394,124.94378531249998,124.95820837499998,52.0,61.0
395,124.36686281249999,125.05916981249999,60.0,107.0
396,124.75147781249999,125.08641337499999,56.0,112.0
397,124.94378531249998,125.14891331249999,53.0,73.0
398,125.52070781249999,125.94378431249999,51.0,97.0
399,125.71301531249999,126.02711756249998,55.0,83.0
400,125.32840031249998,126.16173281249999,46.0,40.0
401,126.09763031249999,126.24506606249999,51.0,102.0
402,125.13609281249998,126.30756599999998,39.0,55.0
403,126.28993781249999,126.55275806249999,58.0,112.0
404,125.90532281249999,126.56077087499999,63.0,127.0
405,126.48224531249998,126.64250156249999,55.0,95.0
406,127.25147531249999,127.39570593749998,56.0,88.0
407,127.05916781249998,127.50468018749999,53.0,67.0
408,126.86686031249998,127.51269299999998,49.0,78.0
409,127.63609031249999,127.78032093749998,49.0,97.0
410,126.67455281249998,127.84923112499999,37.0,99.0
411,127.82839781249999,128.11365393749998,56.0,99.0
412,127.44378281249999,128.14250006249998,61.0,127.0
413,128.02070531249998,128.18416668749998,53.0,89.0
414,128.59762781249998,129.0623709375,48.0,93.0
415,128.78993531249998,129.1617298125,55.0,93.0
416,128.40532031249998,129.22743487499997,43.0,88.0
417,128.21301281249998,129.278716875,36.0,76.0
418,129.17455031249997,129.35243475,48.0,93.0
419,129.36685781249997,129.656921625,60.0,112.0
420,128.98224281249998,129.65852418749998,63.0,122.0
421,129.5591653125,129.701793375,55.0,95.0
422,130.1360878125,130.58801043749997,58.0,93.0
423,130.3283953125,130.65051037499998,61.0,93.0
424,129.9437803125,130.78833074999997,53.0,57.0
425,130.7130103125,130.8732665625,58.0,100.0
426,129.7514728125,130.9149331875,46.0,99.0
427,130.9053178125,131.31397124999998,61.0,86.0
428,131.09762531249999,131.32679174999998,65.0,69.0
429,130.5207028125,131.32999687499998,70.0,127.0
430,131.86685531249998,132.041534625,58.0,92.0
431,131.48224031249998,132.15050887499999,51.0,72.0
432,131.67454781249998,132.23704725,55.0,72.0
433,131.28993281249998,132.54634181249997,39.0,100.0
434,132.25147031249998,132.688969875,51.0,90.0
435,132.05916281249998,132.7739056875,63.0,122.0
436,132.44377781249997,132.77550824999997,58.0,107.0
437,132.63608531249997,132.77711081249998,55.0,92.0
438,133.2130078125,133.6585201875,56.0,99.0
439,133.4053153125,133.7739046875,60.0,79.0
440,133.5976228125,134.1713401875,68.0,127.0
441,132.8283928125,134.19057093749998,44.0,85.0
442,133.9822378125,134.21941706249999,63.0,107.0
443,133.0207003125,134.23544268749998,51.0,39.0
444,133.7899303125,134.27550674999998,56.0,95.0
445,134.1745453125,134.297942625,60.0,97.0
446,134.36685281249999,134.79954468749997,60.0,79.0
447,134.36685281249999,134.95980093749998,68.0,112.0
448,134.36685281249999,134.96460862499998,63.0,127.0
449,134.75146781249998,135.18896737499998,56.0,107.0
450,134.94377531249998,135.30435187499998,60.0,93.0
451,134.55916031249998,135.40691587499998,51.0,73.0
452,135.32839031249998,135.432556875,56.0,102.0
453,134.36685281249999,135.4982619375,44.0,93.0
454,135.52069781249998,135.76588987499997,63.0,112.0
455,135.13608281249998,135.7931334375,68.0,127.0
456,135.71300531249997,136.051146,60.0,112.0
457,136.2899278125,136.72101712499997,53.0,90.0
458,136.4822353125,136.8380041875,60.0,95.0
459,136.8668503125,136.96300406249998,53.0,85.0
460,135.90531281249997,136.98383737499998,41.0,69.0
461,136.0976203125,136.98864506249998,48.0,81.0
462,136.6745428125,137.3251831875,68.0,117.0
463,137.0591578125,137.35242674999998,65.0,90.0
464,137.2514653125,137.4565933125,60.0,97.0
465,137.82838781249998,138.3091565625,51.0,99.0
466,138.02069531249998,138.41652824999997,55.0,82.0
467,137.63608031249998,138.51588712499998,46.0,65.0
468,138.40531031249998,138.5174896875,51.0,96.0
469,137.4437728125,138.54793837499997,39.0,73.0
470,138.21300281249998,138.89088675,63.0,112.0
471,138.59761781249998,138.92133543749998,58.0,100.0
472,138.78992531249997,138.9357585,55.0,90.0
473,139.5591553125,139.714603875,56.0,76.0
474,139.17454031249997,139.83960374999998,49.0,97.0
475,139.3668478125,139.87646268749998,53.0,89.0
476,138.98223281249997,140.04473174999998,37.0,93.0
477,139.9437703125,140.128065,49.0,93.0
478,140.1360778125,140.438962125,53.0,93.0
479,140.3283853125,140.48703899999998,56.0,107.0
480,139.7514628125,140.48703899999998,61.0,117.0
481,140.90530781249998,141.3283843125,51.0,92.0
482,141.09761531249998,141.41332012499998,56.0,86.0
483,140.7130003125,141.4726149375,48.0,61.0
484,140.5206928125,141.55274306249999,44.0,88.0
485,141.48223031249998,141.6521019375,51.0,95.0
486,141.28992281249998,141.69537112499998,63.0,102.0
487,141.67453781249998,141.9469734375,56.0,112.0
488,141.86684531249998,141.971011875,63.0,97.0
489,142.44376781249997,142.95498525,61.0,85.0
490,142.25146031249997,142.97261343749997,58.0,92.0
491,143.0206903125,143.12966456249998,58.0,86.0
492,142.05915281249997,143.21139524999998,46.0,93.0
493,142.8283828125,143.53351031249997,65.0,83.0
494,144.17453531249998,144.26748393749997,55.0,80.0
495,143.98222781249999,144.5206888125,48.0,86.0
496,143.5976128125,144.5655605625,36.0,73.0
497,143.7899203125,144.5687656875,43.0,67.0
498,144.36684281249998,145.12164975,63.0,80.0
499,144.35402231249998,145.163316375,55.0,80.0
500,144.37806074999997,145.2129958125,51.0,78.0
501,145.13607281249998,145.3219700625,65.0,80.0
502,145.13607281249998,145.34120081249998,68.0,80.0
503,145.13607281249998,145.355623875,60.0,80.0
504,145.13607281249998,145.39568793749999,53.0,80.0
505,145.71299531249997,145.88126437499997,67.0,83.0
506,145.71299531249997,145.90690537499998,70.0,83.0
507,145.71299531249997,145.9373540625,51.0,83.0
508,145.71299531249997,145.945366875,63.0,83.0
509,146.86844287499997,146.95177612499998,77.0,65.0
510,146.96299406249997,147.0270965625,75.0,70.0
511,147.0270965625,147.08158368749997,73.0,70.0
512,147.06075037499997,147.12325031249998,72.0,70.0
513,147.1136349375,147.17613487499997,70.0,70.0
514,146.2899178125,147.23062199999998,68.0,83.0
515,147.17613487499997,147.23062199999998,68.0,72.0
516,147.23062199999998,147.285109125,67.0,72.0
517,146.2899178125,147.32677575,65.0,83.0
518,147.27389118749997,147.32677575,65.0,76.0
519,147.3379936875,147.400493625,63.0,74.0
520,146.2899178125,147.4533781875,61.0,83.0
521,147.39087825,147.4533781875,61.0,74.0
522,147.432544875,147.52869862499998,60.0,72.0
523,147.50786531249997,147.60241649999998,58.0,74.0
524,147.60241649999998,147.666519,60.0,78.0
525,147.65530106249997,147.7194035625,61.0,83.0
526,147.7194035625,147.78350606249998,63.0,83.0
527,147.7610701875,147.81555731249998,65.0,85.0
528,147.79472399999997,147.85722393749998,67.0,87.0
529,147.83639062499998,147.8988905625,68.0,91.0
530,147.88927518749998,147.9533776875,70.0,96.0
531,147.94215974999997,147.99664687499998,72.0,102.0
532,147.99664687499998,148.0591468125,73.0,102.0
533,148.047928875,148.1328646875,75.0,102.0
534,146.2899178125,148.14408262499998,49.0,83.0
535,148.1328646875,148.55754374999998,77.0,127.0
536,148.59760781249997,148.8540178125,53.0,92.0
537,148.78991531249997,148.948569,56.0,112.0
538,148.40530031249997,149.04953043749998,48.0,95.0
539,148.21299281249998,149.2514533125,41.0,102.0
540,149.1745303125,149.28350456249999,48.0,93.0
541,149.5591453125,149.57356837499998,52.0,61.0
542,148.98222281249997,149.67452981249997,60.0,107.0
543,149.3668378125,149.701773375,56.0,112.0
544,149.5591453125,149.7642733125,53.0,73.0
545,150.1360678125,150.5591443125,51.0,97.0
546,150.3283753125,150.64247756249998,55.0,83.0
547,149.9437603125,150.77709281249997,46.0,40.0
548,150.71299031249998,150.86042606249998,51.0,102.0
549,149.7514528125,150.922926,39.0,55.0
550,150.90529781249998,151.16811806249999,58.0,112.0
551,150.52068281249998,151.17613087499998,63.0,127.0
552,151.09760531249998,151.25786156249998,55.0,95.0
553,151.86683531249997,152.01106593749998,56.0,88.0
554,151.67452781249997,152.1200401875,53.0,67.0
555,151.48222031249998,152.128053,49.0,78.0
556,152.25145031249997,152.39568093749998,49.0,97.0
557,151.28991281249998,152.46459112499997,37.0,99.0
558,152.4437578125,152.72901393749999,56.0,99.0
559,152.05914281249997,152.7578600625,61.0,127.0
560,152.6360653125,152.7995266875,53.0,89.0
561,153.2129878125,153.67773093749997,48.0,93.0
562,153.4052953125,153.77708981249998,55.0,93.0
563,153.0206803125,153.84279487499998,43.0,88.0
564,152.8283728125,153.894076875,36.0,76.0
565,153.78991031249998,153.96779475,48.0,93.0
566,153.98221781249998,154.27228162499998,60.0,112.0
567,153.59760281249999,154.2738841875,63.0,122.0
568,154.17452531249998,154.31715337499998,55.0,95.0
569,154.75144781249998,155.20337043749998,58.0,93.0
570,154.94375531249997,155.265870375,61.0,93.0
571,154.55914031249998,155.40369074999998,53.0,57.0
572,155.32837031249997,155.48862656249997,58.0,100.0
573,154.36683281249998,155.53029318749998,46.0,99.0
574,155.52067781249997,155.92933125,61.0,86.0
575,155.7129853125,155.94215175,65.0,69.0
576,155.13606281249997,155.945356875,70.0,127.0
577,156.4822153125,156.65689462499998,58.0,92.0
578,156.0976003125,156.765868875,51.0,72.0
579,156.2899078125,156.85240724999997,55.0,72.0
580,155.9052928125,157.16170181249998,39.0,100.0
581,156.86683031249999,157.30432987499998,51.0,90.0
582,156.6745228125,157.38926568749997,63.0,122.0
583,157.05913781249998,157.39086824999998,58.0,107.0
584,157.25144531249998,157.3924708125,55.0,92.0
585,157.82836781249998,158.27388018749997,56.0,99.0
586,158.02067531249998,158.38926468749997,60.0,79.0
587,158.21298281249997,158.78670018749997,68.0,127.0
588,157.44375281249998,158.8059309375,44.0,85.0
589,158.59759781249997,158.8347770625,63.0,107.0
590,157.63606031249998,158.8508026875,51.0,39.0
591,158.40529031249997,158.89086675,56.0,95.0
592,158.78990531249997,158.91330262499997,60.0,97.0
593,158.9822128125,159.41490468749998,60.0,79.0
594,158.9822128125,159.5751609375,68.0,112.0
595,158.9822128125,159.579968625,63.0,127.0
596,159.3668278125,159.80432737499999,56.0,107.0
597,159.5591353125,159.919711875,60.0,93.0
598,159.1745203125,160.022275875,51.0,73.0
599,159.9437503125,160.04791687499997,56.0,102.0
600,158.9822128125,160.11362193749997,44.0,93.0
601,160.13605781249998,160.38124987499998,63.0,112.0
602,159.7514428125,160.40849343749997,68.0,127.0
603,160.32836531249998,160.66650599999997,60.0,112.0
604,160.90528781249998,161.33637712499998,53.0,90.0
605,161.09759531249998,161.45336418749997,60.0,95.0
606,161.48221031249997,161.5783640625,53.0,85.0
607,160.52067281249998,161.599197375,41.0,69.0
608,160.71298031249998,161.6040050625,48.0,81.0
609,161.28990281249997,161.94054318749997,68.0,117.0
610,161.67451781249997,161.96778675,65.0,90.0
611,161.86682531249997,162.07195331249997,60.0,97.0
612,162.4437478125,162.92451656249997,51.0,99.0
613,162.6360553125,163.03188824999998,55.0,82.0
614,162.2514403125,163.131247125,46.0,65.0
615,163.0206703125,163.13284968749997,51.0,96.0
616,162.05913281249997,163.16329837499998,39.0,73.0
617,162.8283628125,163.50624674999997,63.0,112.0
618,163.2129778125,163.5366954375,58.0,100.0
619,163.40528531249998,163.55111849999997,55.0,90.0
620,164.17451531249998,164.32996387499998,56.0,76.0
621,163.78990031249998,164.45496375,49.0,97.0
622,163.98220781249998,164.4918226875,53.0,89.0
623,163.59759281249998,164.66009175,37.0,93.0
624,164.55913031249997,164.74342499999997,49.0,93.0
625,164.75143781249997,165.05432212499997,53.0,93.0
626,164.94374531249997,165.102399,56.0,107.0
627,164.36682281249998,165.102399,61.0,117.0
628,165.5206678125,165.94374431249997,51.0,92.0
629,165.7129753125,166.028680125,56.0,86.0
630,165.3283603125,166.08797493749998,48.0,61.0
631,165.13605281249997,166.1681030625,44.0,88.0
632,166.0975903125,166.26746193749997,51.0,95.0
633,165.9052828125,166.310731125,63.0,102.0
634,166.2898978125,166.56233343749997,56.0,112.0
635,166.48220531249999,166.58637187499997,63.0,97.0
636,167.05912781249998,167.57034524999997,61.0,85.0
637,166.86682031249998,167.58797343749998,58.0,92.0
638,167.63605031249998,167.7450245625,58.0,86.0
639,166.67451281249998,167.82675525,46.0,93.0
640,167.44374281249998,168.14887031249998,65.0,83.0
641,168.5975878125,169.13604881249998,48.0,86.0
642,168.21297281249997,169.18092056249998,36.0,51.0
643,168.40528031249997,169.18412568749997,43.0,67.0
644,168.9822028125,169.73700974999997,63.0,112.0
645,168.7898953125,169.75143281249998,55.0,72.0
646,170.13604781249998,170.56553456249998,53.0,92.0
647,170.32835531249998,170.67290624999998,60.0,99.0
648,169.75143281249998,171.16489293749999,41.0,86.0
649,169.94374031249998,171.27386718749997,48.0,83.0
650,170.71297031249998,171.2963030625,53.0,89.0
651,171.09758531249997,171.7386103125,60.0,99.0
652,170.52066281249998,171.87162299999997,68.0,127.0
653,170.90527781249997,171.87963581249997,65.0,107.0
654,171.67450781249997,172.13764837499997,53.0,93.0
655,171.8668153125,172.2963020625,60.0,95.0
656,172.2514303125,172.599186375,53.0,97.0
657,171.28989281249997,172.67931449999998,41.0,86.0
658,171.48220031249997,172.74822468749997,48.0,79.0
659,172.0591228125,172.7674554375,68.0,127.0
660,172.4437378125,172.79309643749997,65.0,117.0
661,172.6360453125,172.81553231249998,60.0,102.0
662,173.21296781249998,173.59598024999997,56.0,99.0
663,173.40527531249998,173.74501856249998,59.0,90.0
664,173.02066031249998,173.82995437499997,51.0,89.0
665,172.8283528125,173.9180953125,44.0,96.0
666,173.78989031249998,173.92130043749998,56.0,100.0
667,173.59758281249998,174.23700524999998,68.0,127.0
668,173.98219781249998,174.27226162499997,63.0,107.0
669,174.17450531249997,174.33155643749998,59.0,99.0
670,174.94373531249997,175.03828649999997,61.0,100.0
671,174.75142781249997,175.04469674999999,58.0,112.0
672,174.55912031249997,175.22899143749999,54.0,100.0
673,175.3283503125,175.48700399999998,54.0,107.0
674,175.1360428125,175.5334783125,61.0,127.0
675,174.36681281249997,175.5943756875,42.0,107.0
676,175.7129653125,175.86681131249998,61.0,127.0
677,175.5206578125,175.868413875,58.0,102.0
678,176.48219531249998,176.64084899999997,56.0,107.0
679,176.28988781249998,176.72578481249997,52.0,95.0
680,176.09758031249999,176.91488718749997,47.0,97.0
681,175.9052728125,176.92289999999997,40.0,82.0
682,176.67450281249998,177.01424606249998,59.0,112.0
683,176.86681031249998,177.073540875,52.0,88.0
684,177.05911781249998,177.33475856249999,56.0,102.0
685,177.25142531249998,177.39405337499997,59.0,100.0
686,178.02065531249997,178.18571924999998,63.0,112.0
687,177.63604031249997,178.29629606249998,54.0,92.0
688,177.82834781249997,178.3027063125,59.0,88.0
689,178.4052703125,178.49661637499997,54.0,99.0
690,177.44373281249997,178.5110394375,47.0,88.0
691,178.21296281249997,178.86680831249998,66.0,127.0
692,178.5975778125,178.88603906249998,63.0,127.0
693,178.7898853125,179.076744,59.0,112.0
694,179.55911531249998,179.69853824999998,63.0,99.0
695,179.36680781249999,179.80110224999999,59.0,99.0
696,179.1745003125,179.86199962499998,56.0,107.0
697,179.94373031249998,180.09116606249998,56.0,100.0
698,178.9821928125,180.1136019375,44.0,112.0
699,179.75142281249998,180.3956529375,68.0,122.0
700,180.13603781249998,180.41007599999998,63.0,112.0
701,180.32834531249998,180.522255375,59.0,112.0
702,180.90526781249997,181.31231868749998,58.0,90.0
703,180.71296031249997,181.36199812499999,54.0,96.0
704,181.48219031249997,181.62161324999997,54.0,100.0
705,180.52065281249997,181.68090806249998,42.0,112.0
706,181.28988281249997,181.7193695625,63.0,127.0
707,181.6744978125,181.9405231875,58.0,122.0
708,181.8668053125,182.03347181249998,63.0,127.0
709,182.4437278125,182.90366324999997,52.0,93.0
710,182.63603531249998,182.93090681249998,56.0,83.0
711,182.0591128125,183.49180368749998,40.0,73.0
712,182.2514203125,183.6328291875,47.0,85.0
713,183.02065031249998,183.66648299999997,52.0,86.0
714,183.21295781249998,183.79148287499999,56.0,96.0
715,182.82834281249998,184.067123625,64.0,67.0
716,183.40526531249998,184.09596974999997,59.0,69.0
717,184.17449531249997,184.25302087499998,59.0,55.0
718,183.98218781249997,184.34276437499997,52.0,117.0
719,183.59757281249998,184.36039256249998,40.0,86.0
720,183.78988031249997,184.4020591875,47.0,95.0
721,184.17449531249997,184.44532837499997,56.0,100.0
722,184.55911031249997,184.804302375,56.0,107.0
723,184.75141781249997,185.03026368749997,59.0,71.0
724,184.36680281249997,185.09276362499998,64.0,93.0
725,184.9437253125,185.1151995,56.0,117.0
726,185.5206478125,185.93410893749999,49.0,102.0
727,185.7129553125,186.06712162499997,52.0,90.0
728,185.3283403125,186.131224125,44.0,83.0
729,185.1360328125,186.20173687499997,37.0,95.0
730,186.09757031249998,186.34596749999997,49.0,97.0
731,186.28987781249998,186.58795443749997,56.0,100.0
732,185.90526281249998,186.61199287499997,61.0,127.0
733,186.48218531249998,186.62641593749998,52.0,107.0
734,187.25141531249997,187.41487668749997,61.0,117.0
735,187.05910781249997,187.44853049999998,58.0,112.0
736,186.86680031249998,187.55429962499997,54.0,100.0
737,187.63603031249997,187.8026968125,54.0,89.0
738,186.67449281249998,187.82673524999998,42.0,122.0
739,187.44372281249997,188.02064531249997,66.0,117.0
740,188.02064531249997,188.060709375,39.0,37.0
741,187.82833781249997,188.15365799999998,58.0,107.0
742,188.02064531249997,188.16167081249998,61.0,112.0
743,188.4052603125,188.60077293749998,51.0,99.0
744,188.5975678125,188.85878549999998,58.0,107.0
745,188.2129528125,188.90686237499997,39.0,100.0
746,188.7898753125,188.958144375,51.0,117.0
747,189.17449031249998,189.4084644375,51.0,99.0
748,188.98218281249999,189.4373105625,43.0,99.0
749,189.36679781249998,189.67288724999997,55.0,72.0
750,189.55910531249998,189.7161564375,51.0,117.0
751,190.13602781249998,190.59916837499998,56.0,97.0
752,189.94372031249998,190.76904,51.0,42.0
753,190.32833531249997,190.78346306249998,59.0,90.0
754,190.71295031249997,190.81391175,56.0,99.0
755,189.75141281249998,190.87480912499998,44.0,93.0
756,190.52064281249997,191.21294981249997,68.0,127.0
757,190.90525781249997,191.24179593749997,63.0,117.0
758,191.09756531249997,191.32833431249998,59.0,88.0
759,192.44371781249998,192.70974318749998,55.0,69.0
760,192.0591028125,193.15846068749997,48.0,72.0
761,192.82833281249998,193.49179368749998,55.0,100.0
762,192.82833281249998,193.51102443749997,60.0,93.0
763,193.21294781249998,193.66487043749999,48.0,50.0
764,191.28987281249996,194.24499806249997,36.0,79.0
765,193.59756281249997,194.33794668749997,60.0,107.0
766,191.6744878125,194.35717743749998,43.0,47.0
767,193.59756281249997,194.37160049999997,55.0,107.0
768,193.98217781249997,194.406856875,48.0,63.0
769,195.52063781249998,195.96615018749998,55.0,97.0
770,194.7514078125,196.26102168749998,45.0,70.0
771,195.1360228125,196.4597394375,50.0,96.0
772,195.90525281249998,196.717752,57.0,102.0
773,196.67448281249997,197.0943541875,55.0,122.0
774,194.36679281249997,197.29307193749997,38.0,99.0
775,196.28986781249998,197.36358468749998,45.0,69.0
776,197.05909781249997,197.3972385,57.0,83.0
777,197.44371281249997,199.54467225,45.0,59.0
778,197.44371281249997,199.55749274999997,38.0,59.0
779,197.44371281249997,199.59915937499997,50.0,95.0
780,197.44371281249997,199.60076193749998,54.0,100.0
781,197.44371281249997,199.64563368749998,57.0,89.0
782,200.90524781249997,201.5767215,50.0,66.0
783,200.52063281249997,201.60236249999997,43.0,82.0
784,201.2898628125,202.10556712499996,62.0,89.0
785,201.6744778125,202.14242606249996,55.0,66.0
786,202.44370781249998,202.97575856249998,48.0,56.0
787,202.05909281249998,202.99498931249997,41.0,69.0
788,202.82832281249998,203.62159124999997,60.0,92.0
789,203.59755281249997,204.5462698125,39.0,95.0
790,203.98216781249997,204.66005174999998,51.0,74.0
791,204.36678281249996,205.20171787499999,58.0,89.0
792,204.7513978125,205.21774349999998,55.0,69.0
793,205.90524281249998,206.31549881249998,53.0,56.0
794,205.52062781249998,206.33472956249997,50.0,36.0
795,205.13601281249998,206.39883206249996,46.0,72.0
796,206.28985781249997,206.65524206249998,62.0,69.0
797,205.90524281249998,206.6937035625,58.0,75.0
798,206.67447281249997,207.6231898125,36.0,81.0
799,207.05908781249997,207.63280518749997,43.0,56.0
800,207.44370281249996,208.10876624999997,48.0,82.0
801,207.44370281249996,208.23216356249998,63.0,112.0
802,207.8283178125,208.24818918749997,55.0,85.0
803,207.44370281249996,208.25139431249997,60.0,95.0
804,208.2129328125,209.12158574999998,41.0,93.0
805,208.59754781249998,209.14241906249998,48.0,79.0
806,208.98216281249998,209.52062381249996,57.0,92.0
807,208.98216281249998,209.55588018749998,60.0,90.0
808,209.36677781249998,209.59113656249997,53.0,88.0
809,210.32831531249997,210.49017412499998,58.0,96.0
810,210.13600781249997,210.91485318749997,53.0,85.0
811,209.94370031249997,210.92927625,50.0,61.0
812,210.52062281249997,210.93568649999997,65.0,79.0
813,209.75139281249997,210.93889162499997,46.0,112.0
814,210.9052378125,210.99177618749997,58.0,107.0
815,210.71293031249996,210.99177618749997,62.0,71.0
816,211.0975453125,211.150429875,46.0,112.0
817,211.0975453125,211.150429875,50.0,107.0
818,211.0975453125,211.1712631875,53.0,112.0
819,211.0975453125,211.17286574999997,58.0,127.0
820,211.0975453125,211.17607087499997,62.0,112.0
821,211.0975453125,211.17767343749998,65.0,95.0
822,211.48216031249999,212.17126218749996,53.0,112.0
823,211.48216031249999,212.20651856249998,50.0,112.0
824,211.48216031249999,212.24978774999997,65.0,97.0
825,211.48216031249999,212.27062106249997,46.0,127.0
826,211.48216031249999,212.28183899999996,62.0,107.0
827,211.48216031249999,212.28824924999998,58.0,127.0
828,213.21292781249997,213.44850449999998,55.0,89.0
829,213.40523531249997,213.54626081249998,58.0,96.0
830,213.02062031249997,213.65523506249997,50.0,89.0
831,212.82831281249997,214.23376012499998,43.0,88.0
832,213.78985031249996,214.24658062499998,50.0,90.0
833,213.98215781249996,214.32831131249998,58.0,127.0
834,214.1744653125,214.34433693749997,55.0,97.0
835,213.59754281249997,214.37959331249996,62.0,112.0
836,214.75138781249998,215.18568224999999,53.0,95.0
837,214.94369531249998,215.37638718749997,60.0,95.0
838,214.3667728125,215.42446406249996,41.0,79.0
839,214.5590803125,215.43568199999999,48.0,92.0
840,215.32831031249998,215.43888712499998,53.0,86.0
841,215.52061781249998,215.772220125,65.0,102.0
842,215.13600281249998,215.77542524999998,69.0,99.0
843,215.71292531249998,215.845938,60.0,97.0
844,215.90523281249997,216.48696299999997,39.0,99.0
845,216.09754031249997,216.49497581249997,51.0,107.0
846,216.28984781249997,216.49818093749997,63.0,122.0
847,216.48215531249997,216.656834625,55.0,88.0
848,216.67446281249997,217.18087256249999,41.0,102.0
849,217.05907781249996,217.30907756249997,57.0,99.0
850,216.86677031249997,217.333116,53.0,81.0
851,217.25138531249996,217.39882106249996,60.0,96.0
852,218.02061531249998,218.16965362499997,58.0,93.0
853,217.8283078125,218.25138431249997,53.0,89.0
854,218.21292281249998,218.59433268749999,65.0,96.0
855,217.6360003125,218.60875574999997,50.0,78.0
856,218.40523031249998,218.63439674999998,53.0,85.0
857,217.4436928125,218.75138381249997,46.0,127.0
858,218.78984531249998,218.95490925,58.0,102.0
859,218.59753781249998,218.99978099999998,62.0,89.0
860,219.36676781249997,219.80426737499997,48.0,93.0
861,219.55907531249997,219.88760062499998,55.0,92.0
862,219.94369031249997,220.12157474999998,48.0,83.0
863,218.98215281249998,220.37638218749998,36.0,90.0
864,220.13599781249997,220.41965137499997,60.0,95.0
865,219.75138281249997,220.4340744375,63.0,122.0
866,220.32830531249996,220.48856156249997,55.0,90.0
867,219.17446031249997,220.50939487499997,43.0,95.0
868,220.7129203125,221.54625281249997,45.0,90.0
869,220.52061281249996,221.55106049999998,38.0,83.0
870,220.9052278125,221.97573956249997,50.0,86.0
871,221.09753531249999,222.05907281249998,57.0,79.0
872,221.67445781249998,222.05907281249998,62.0,100.0
873,221.28984281249998,222.05907281249998,65.0,100.0
874,222.76420031249998,223.29304593749998,55.0,92.0
875,223.3058664375,223.49496881249996,63.0,107.0
876,223.04945643749997,223.55105849999998,58.0,99.0
877,222.29785462499999,225.16804406249997,46.0,71.0
878,223.5847123125,225.17445431249996,58.0,72.0
879,222.5109954375,225.18406968749997,51.0,93.0
880,224.34913462499998,225.19208249999997,55.0,82.0
881,223.59112256249998,225.19689018749997,63.0,127.0
882,222.02541899999997,225.20490299999997,39.0,86.0
883,225.32349262499997,226.35714543749998,48.0,31.0
884,225.30426187499998,226.40201718749998,43.0,36.0
885,225.2641978125,226.41002999999998,55.0,33.0
886,225.30746699999997,226.42124793749997,36.0,33.0
887,225.28182599999997,226.42445306249996,60.0,52.0
888,225.36996693749998,226.45810687499997,63.0,56.0
889,227.43727256249997,231.44047368749997,62.0,37.0
890,227.37156749999997,231.44528137499998,57.0,38.0
891,227.53182374999997,231.45649931249997,65.0,40.0
892,227.47893918749998,231.4629095625,38.0,34.0
893,227.51099043749997,231.46451212499997,45.0,29.0
894,227.49336224999996,231.47893518749999,50.0,31.0
895,232.97412599999998,233.54303568749998,62.0,72.0
896,233.48213831249998,233.60233049999997,67.0,64.0
897,234.00617624999998,234.61835512499997,74.0,70.0
898,234.52700906249999,235.05264956249997,79.0,52.0
899,235.01258549999997,235.12796999999998,74.0,70.0
900,231.44528137499998,235.1664315,43.0,72.0
901,232.01258849999996,235.17925199999996,50.0,41.0
902,232.53983156249998,235.19207249999997,55.0,88.0
903,235.92284099999998,240.54943893749999,71.0,48.0
904,235.78822574999998,240.55584918749997,50.0,26.0
905,235.7930334375,240.56065687499998,55.0,36.0
906,235.83309749999998,240.56225943749996,67.0,41.0
907,236.02540499999998,240.57027224999996,74.0,35.0
908,235.59431568749997,240.60392606249997,43.0,46.0
