,start,end,pitch,velocity
0,7.027227427083334,7.599341495833333,62.0,78.0
1,7.604149177083333,8.17786580625,62.0,92.0
2,8.181070927083333,8.56248030625,60.0,100.0
3,8.565685427083334,9.13940205625,57.0,87.0
4,9.142607177083333,9.716323806250001,60.0,92.0
5,9.719528927083333,10.10093830625,62.0,84.0
6,10.104143427083333,10.48555280625,64.0,92.0
7,10.488757927083334,10.677860056250001,65.0,87.0
8,10.681065177083333,11.06247455625,64.0,84.0
9,11.065679677083335,11.44708905625,60.0,73.0
10,11.450294177083334,13.17785430625,57.0,84.0
11,13.181059427083333,13.753173495833334,62.0,89.0
12,13.757981177083334,14.33169780625,62.0,97.0
13,14.334902927083334,14.71631230625,60.0,97.0
14,14.719517427083334,15.29323405625,57.0,89.0
15,15.296439177083334,15.87015580625,60.0,97.0
16,15.873360927083334,16.254770306250002,62.0,94.0
17,16.257975427083334,16.63938480625,64.0,92.0
18,16.642589927083336,16.83169205625,65.0,94.0
19,16.834897177083334,17.21630655625,64.0,94.0
20,17.219511677083332,17.60092105625,60.0,73.0
21,17.604126177083334,19.330083745833335,62.0,84.0
22,19.334891427083335,19.907005495833335,62.0,82.0
23,19.911813177083335,20.48552980625,62.0,87.0
24,20.488734927083335,20.87014430625,60.0,84.0
25,20.873349427083333,21.445463495833334,64.0,94.0
26,21.450271177083334,22.023987806250002,64.0,94.0
27,22.027192927083334,22.40860230625,65.0,92.0
28,22.411807427083335,22.79321680625,64.0,89.0
29,22.796421927083333,23.17783130625,65.0,92.0
30,23.181036427083335,23.56244580625,67.0,105.0
31,23.565650927083333,23.75475305625,65.0,100.0
32,23.757958177083335,24.71628930625,69.0,102.0
33,24.719494427083333,25.100903806250003,67.0,100.0
34,25.104108927083335,25.48551830625,69.0,100.0
35,25.488723427083332,26.06244005625,67.0,94.0
36,26.065645177083333,27.023976306250002,62.0,94.0
37,27.027181427083335,27.60089805625,64.0,87.0
38,27.604103177083335,28.17781980625,60.0,100.0
39,28.181024927083335,28.56243430625,64.0,80.0
40,28.565639427083333,31.63935030625,62.0,97.0
41,56.257883427083335,56.82999749583333,62.0,78.0
42,56.83480517708333,57.40852180625,62.0,92.0
43,57.411726927083336,57.79313630625,60.0,100.0
44,57.796341427083334,58.37005805625,57.0,87.0
45,58.37326317708334,58.94697980625,60.0,92.0
46,58.950184927083335,59.331594306250004,62.0,84.0
47,59.33479942708333,59.71620880625,64.0,92.0
48,59.71941392708334,59.90851605625,65.0,87.0
49,59.911721177083336,60.29313055625,64.0,84.0
50,60.296335677083334,60.677745056250004,60.0,73.0
51,60.68095017708333,62.40851030625,57.0,84.0
52,62.41171542708334,62.983829495833334,62.0,89.0
53,62.98863717708333,63.56235380625,62.0,97.0
54,63.56555892708334,63.94696830625,60.0,97.0
55,63.950173427083335,64.52389005625,57.0,89.0
56,64.52709517708334,65.10081180625001,60.0,97.0
57,65.10401692708334,65.48542630625,62.0,94.0
58,65.48863142708333,65.87004080625,64.0,92.0
59,65.87324592708333,66.06234805625,65.0,94.0
60,66.06555317708333,66.44696255625,64.0,94.0
61,66.45016767708333,66.83157705625,60.0,73.0
62,66.83478217708334,68.56073974583333,62.0,84.0
63,68.56554742708333,69.13766149583334,62.0,82.0
64,69.14246917708334,69.71618580625,62.0,87.0
65,69.71939092708334,70.10080030625001,60.0,84.0
66,70.10400542708334,70.67611949583333,64.0,94.0
67,70.68092717708333,71.25464380625,64.0,94.0
68,71.25784892708333,71.63925830625,65.0,92.0
69,71.64246342708334,72.02387280625,64.0,89.0
70,72.02707792708334,72.40848730625,65.0,92.0
71,72.41169242708334,72.79310180625001,67.0,105.0
72,72.79630692708334,72.98540905625,65.0,100.0
73,72.98861417708333,73.94694530625,69.0,102.0
74,73.95015042708333,74.33155980625,67.0,100.0
75,74.33476492708334,74.71617430625,65.0,100.0
76,74.71937942708334,75.48540330625,62.0,94.0
77,75.48860842708334,76.25463230625,69.0,94.0
78,76.25783742708333,77.02386130625,64.0,87.0
79,77.41168092708334,77.79309030625001,60.0,100.0
80,77.79629542708334,80.87000630625,62.0,97.0
81,80.87321142708333,81.12321085208333,67.0,105.0
82,81.25782592708333,81.35878723333333,65.0,100.0
83,81.45013317708333,81.72737612916667,62.0,92.0
84,81.83474767708334,82.21615705625,65.0,97.0
85,82.21936217708334,82.67288677500001,67.0,100.0
86,82.79628392708334,82.90365547500001,65.0,100.0
87,82.98859117708334,83.31070582083333,62.0,82.0
88,83.37320567708333,83.68730751875,65.0,94.0
89,83.95012742708333,84.20653709375,67.0,100.0
90,84.33474192708334,84.44371603541667,69.0,100.0
91,84.52704917708334,84.82192029375,67.0,111.0
92,85.10397092708334,85.50621359166666,65.0,108.0
93,85.48858542708334,85.88281528958333,62.0,105.0
94,87.02704342708334,87.28185053333334,67.0,105.0
95,87.41165792708334,87.52383715625,65.0,105.0
96,87.60396517708334,87.90204141458334,62.0,97.0
97,87.98857967708334,88.37800185833333,65.0,92.0
98,88.56550142708333,88.88761607083333,64.0,100.0
99,88.95011592708333,89.05588491458333,60.0,97.0
100,89.14242317708333,89.43088405208334,60.0,92.0
101,89.52703767708334,89.92447266041667,62.0,84.0
102,90.10395942708334,90.96132925,57.0,97.0
103,92.02703192708334,92.32991584583334,55.0,87.0
104,92.41164642708334,92.69369706041667,57.0,108.0
105,92.79626092708334,93.01420914375001,60.0,102.0
106,93.18087542708334,93.43728509375,67.0,111.0
107,93.56548992708333,93.69850244166668,65.0,100.0
108,93.75779717708333,94.095937425,62.0,80.0
109,94.14241167708333,94.44369303541667,65.0,102.0
110,94.52702617708334,94.865166425,67.0,105.0
111,94.91164067708334,95.03984551041667,65.0,108.0
112,95.29625517708334,95.56708788750001,62.0,102.0
113,95.68086967708334,96.03343296875,65.0,105.0
114,96.25779142708333,96.46932940208333,67.0,102.0
115,96.64240592708333,96.74657235416667,65.0,92.0
116,96.83471317708333,97.0766998,67.0,102.0
117,97.21932767708334,97.49657062916667,72.0,97.0
118,97.60394217708334,98.28663291458334,69.0,105.0
119,98.56547842708333,98.85714442291668,67.0,84.0
120,98.95009292708333,99.20329747291667,65.0,97.0
121,99.33470742708333,99.91162917708334,62.0,105.0
122,100.10393642708334,100.68566585833334,69.0,105.0
123,100.87316542708334,101.86194520416667,64.0,102.0
124,102.02700892708333,102.31546980208334,65.0,108.0
125,102.41162342708334,103.36995455625001,67.0,84.0
126,103.37315967708334,103.47572354375001,65.0,100.0
127,103.56546692708334,103.68405639791666,67.0,102.0
128,103.75777417708333,103.98694031666668,69.0,102.0
129,104.33469592708333,104.64559264791667,57.0,102.0
130,104.71931042708334,104.89559207291667,72.0,97.0
131,105.10392492708334,105.25456560625,69.0,100.0
132,105.48853942708334,105.83789759791667,67.0,108.0
133,105.87315392708334,105.96930755208334,65.0,100.0
134,106.06546117708334,106.41481934791668,67.0,100.0
135,106.83469017708333,106.91642075833333,65.0,94.0
136,107.02699742708333,107.27699685208334,67.0,105.0
137,107.41161192708334,107.5093681125,65.0,97.0
138,107.60391917708334,107.89238005208334,62.0,100.0
139,107.98853367708334,108.41641730833334,65.0,105.0
140,108.56545542708334,109.39077404166667,67.0,108.0
141,109.52699167708333,109.63115810416667,65.0,102.0
142,109.71929892708334,109.82186279375,67.0,100.0
143,109.91160617708334,110.19525937083334,69.0,100.0
144,110.48852792708334,110.71609150625001,57.0,105.0
145,110.87314242708334,111.13115465416666,72.0,102.0
146,111.25775692708334,111.46608978125,69.0,102.0
147,111.64237142708333,111.91640925833333,67.0,105.0
148,112.02698592708333,112.134357475,65.0,92.0
149,112.21929317708333,112.56865134791667,67.0,102.0
150,113.18082942708334,113.42922629166667,67.0,111.0
151,113.56544392708334,113.68403339791666,65.0,102.0
152,113.75775117708334,114.04621205208333,72.0,108.0
153,114.14236567708333,114.62313380208333,74.0,108.0
154,114.71928742708333,116.24813006458334,69.0,105.0
155,116.64235992708333,116.9131926375,57.0,105.0
156,117.02697442708333,117.21928167708333,72.0,111.0
157,117.41158892708334,117.61351153958334,69.0,102.0
158,117.79620342708334,118.02376700625,67.0,105.0
159,118.18081792708334,118.27216387083334,65.0,76.0
160,118.37312517708334,119.13594393541668,67.0,102.0
161,119.33466142708333,119.59748133541667,67.0,105.0
162,119.71927592708333,119.86030124375,65.0,94.0
163,119.91158317708334,120.19203125,62.0,108.0
164,120.29619767708334,120.65036352916667,65.0,102.0
165,120.87311942708334,121.06061899583334,72.0,102.0
166,121.25773392708334,121.44523349583334,69.0,100.0
167,121.64234842708333,121.90196321458333,67.0,105.0
168,122.02696292708333,122.12952679375,69.0,92.0
169,122.21927017708333,122.54138482083334,67.0,94.0
170,122.79619192708334,123.17760130625,65.0,108.0
171,123.18080642708334,123.41478024791667,62.0,102.0
172,123.56542092708334,123.80259986875001,60.0,97.0
173,123.95003542708334,124.58945703333333,62.0,94.0
174,124.71926442708333,124.99330225833334,62.0,89.0
175,125.10387892708334,125.35708347291667,65.0,97.0
176,125.48849342708334,125.77855686250001,67.0,97.0
177,125.87310792708334,126.15515856041667,65.0,97.0
178,126.25772242708334,126.52374745625,62.0,105.0
179,126.64233692708333,126.83143905625,60.0,84.0
180,126.83464417708333,128.36829449583334,62.0,100.0
181,154.71919542708335,155.29130949583333,62.0,78.0
182,155.29611717708335,155.86983380625,62.0,92.0
183,155.87303892708334,156.25444830625,60.0,100.0
184,156.25765342708334,156.83137005625,57.0,87.0
185,156.83457517708334,157.40829180625,60.0,92.0
186,157.41149692708333,157.79290630625002,62.0,84.0
187,157.79611142708333,158.17752080625002,64.0,92.0
188,158.18072592708333,158.36982805625001,65.0,87.0
189,158.37303317708333,158.75444255625,64.0,84.0
190,158.75764767708333,159.13905705625,60.0,73.0
191,159.14226217708332,160.86982230625,57.0,84.0
192,160.87302742708334,161.44514149583333,62.0,89.0
193,161.44994917708334,162.02366580625,62.0,97.0
194,162.02687092708334,162.40828030625,60.0,97.0
195,162.41148542708333,162.98520205625002,57.0,89.0
196,162.98840717708333,163.56212380625,60.0,97.0
197,163.56532892708333,163.94673830625,62.0,94.0
198,163.94994342708333,164.33135280625,64.0,92.0
199,164.33455792708335,164.52366005625,65.0,94.0
200,164.52686517708335,164.90827455625,64.0,94.0
201,164.91147967708335,165.29288905625,60.0,73.0
202,165.29609417708335,167.02205174583335,62.0,84.0
203,167.02685942708334,167.59897349583335,62.0,82.0
204,167.60378117708333,168.17749780625002,62.0,87.0
205,168.18070292708333,168.56211230625001,60.0,84.0
206,168.56531742708333,169.13743149583334,64.0,94.0
207,169.14223917708333,169.71595580625,64.0,94.0
208,169.71916092708335,170.10057030625,65.0,92.0
209,170.10377542708335,170.48518480625,64.0,89.0
210,170.48838992708335,170.86979930625,65.0,92.0
211,170.87300442708334,171.25441380625,67.0,105.0
212,171.25761892708334,171.44672105625,65.0,100.0
213,171.44992617708334,172.40825730625,69.0,102.0
214,172.41146242708334,172.79287180625002,67.0,100.0
215,172.79607692708333,173.17748630625002,65.0,100.0
216,173.18069142708333,173.94671530625,62.0,94.0
217,173.94992042708333,174.71594430625,69.0,94.0
218,174.71914942708335,175.48517330625,64.0,87.0
219,175.87299292708335,176.25440230625,60.0,100.0
220,176.25760742708334,179.33131830625,62.0,97.0
221,179.33452342708333,179.58452285208335,67.0,105.0
222,179.71913792708335,179.82009923333334,65.0,100.0
223,179.91144517708335,180.18868812916668,62.0,92.0
224,180.29605967708335,180.67746905625,65.0,97.0
225,180.68067417708335,181.13419877500002,67.0,100.0
226,181.25759592708334,181.36496747500001,65.0,100.0
227,181.44990317708334,181.77201782083333,62.0,82.0
228,181.83451767708334,182.14861951875,65.0,94.0
229,182.41143942708334,182.66784909375,67.0,100.0
230,182.79605392708334,182.90502803541668,69.0,100.0
231,182.98836117708333,183.28323229375002,67.0,111.0
232,183.56528292708333,183.96752559166669,65.0,108.0
233,183.94989742708333,184.34412728958333,62.0,105.0
234,185.48835542708335,185.74316253333333,67.0,105.0
235,185.87296992708335,185.98514915625,65.0,105.0
236,186.06527717708335,186.36335341458334,62.0,97.0
237,186.44989167708334,186.83931385833333,65.0,92.0
238,187.02681342708334,187.34892807083335,64.0,100.0
239,187.41142792708334,187.51719691458334,60.0,97.0
240,187.60373517708334,187.89219605208334,60.0,92.0
241,187.98834967708333,188.38578466041668,62.0,84.0
242,188.56527142708333,189.42264125,57.0,97.0
243,190.48834392708335,190.79122784583333,55.0,87.0
244,190.87295842708335,191.15500906041666,57.0,108.0
245,191.25757292708334,191.47552114375,60.0,102.0
246,191.64218742708334,191.89859709375,67.0,111.0
247,192.02680192708334,192.15981444166667,65.0,100.0
248,192.21910917708334,192.557249425,62.0,80.0
249,192.60372367708334,192.90500503541668,65.0,102.0
250,192.98833817708334,193.326478425,67.0,105.0
251,193.37295267708333,193.50115751041668,65.0,108.0
252,193.75756717708333,194.0283998875,62.0,102.0
253,194.14218167708333,194.49474496875,65.0,105.0
254,194.71910342708333,194.93064140208335,67.0,102.0
255,195.10371792708335,195.20788435416668,65.0,92.0
256,195.29602517708335,195.5380118,67.0,102.0
257,195.68063967708335,195.95788262916668,72.0,97.0
258,196.06525417708335,196.74794491458334,69.0,105.0
259,197.02679042708334,197.31845642291668,67.0,84.0
260,197.41140492708334,197.66460947291668,65.0,97.0
261,197.79601942708334,198.37294117708333,62.0,105.0
262,198.56524842708333,199.14697785833334,69.0,105.0
263,199.33447742708333,200.32325720416668,64.0,102.0
264,200.48832092708335,200.77678180208335,65.0,108.0
265,200.87293542708335,201.83126655625,67.0,84.0
266,201.83447167708334,201.93703554375,65.0,100.0
267,202.02677892708334,202.14536839791668,67.0,102.0
268,202.21908617708334,202.44825231666667,69.0,102.0
269,202.79600792708334,203.10690464791668,57.0,102.0
270,203.18062242708334,203.35690407291668,72.0,97.0
271,203.56523692708333,203.71587760625002,69.0,100.0
272,203.94985142708333,204.29920959791667,67.0,108.0
273,204.33446592708333,204.43061955208333,65.0,100.0
274,204.52677317708333,204.87613134791667,67.0,100.0
275,205.29600217708335,205.37773275833334,65.0,94.0
276,205.48830942708335,205.73830885208335,67.0,105.0
277,205.87292392708335,205.97068011250002,65.0,97.0
278,206.06523117708335,206.35369205208335,62.0,100.0
279,206.44984567708335,206.87772930833333,65.0,105.0
280,207.02676742708334,207.85208604166667,67.0,108.0
281,207.98830367708334,208.09247010416667,65.0,102.0
282,208.18061092708334,208.28317479375,67.0,100.0
283,208.37291817708333,208.65657137083335,69.0,100.0
284,208.94983992708333,209.17740350625002,57.0,105.0
285,209.33445442708333,209.59246665416669,72.0,102.0
286,209.71906892708333,209.92740178125,69.0,102.0
287,210.10368342708335,210.37772125833334,67.0,105.0
288,210.48829792708335,210.595669475,65.0,92.0
289,210.68060517708335,211.02996334791666,67.0,102.0
290,211.64214142708335,211.89053829166667,67.0,111.0
291,212.02675592708334,212.14534539791669,65.0,102.0
292,212.21906317708334,212.50752405208334,72.0,108.0
293,212.60367767708334,213.08444580208334,74.0,108.0
294,213.18059942708334,214.70944206458333,69.0,105.0
295,215.10367192708333,215.3745046375,57.0,105.0
296,215.48828642708335,215.68059367708335,72.0,111.0
297,215.87290092708335,216.07482353958335,69.0,102.0
298,216.25751542708335,216.48507900625,67.0,105.0
299,216.64212992708335,216.73347587083333,65.0,76.0
300,216.83443717708334,217.59725593541668,67.0,102.0
301,217.79597342708334,218.05879333541668,67.0,105.0
302,218.18058792708334,218.32161324375,65.0,94.0
303,218.37289517708334,218.65334325,62.0,108.0
304,218.75750967708333,219.11167552916666,65.0,102.0
305,219.33443142708333,219.52193099583334,72.0,102.0
306,219.71904592708333,219.90654549583334,69.0,100.0
307,220.10366042708333,220.36327521458335,67.0,105.0
308,220.48827492708335,220.59083879375,69.0,92.0
309,220.68058217708335,221.00269682083334,67.0,94.0
310,221.25750392708335,221.63891330625,65.0,108.0
311,221.64211842708335,221.87609224791666,62.0,102.0
312,222.02673292708334,222.26391186875,60.0,97.0
313,222.41134742708334,223.05076903333335,62.0,94.0
314,223.18057642708334,223.45461425833335,62.0,89.0
315,223.56519092708334,223.81839547291668,65.0,97.0
316,223.94980542708333,224.2398688625,67.0,97.0
317,224.33441992708333,224.61647056041667,65.0,97.0
318,224.71903442708333,224.98505945625,62.0,105.0
319,225.10364892708333,225.29275105625,60.0,84.0
320,225.29595617708333,226.82960649583333,62.0,100.0
321,227.41133592708334,227.72223264791668,57.0,102.0
322,227.79595042708334,227.97223207291668,72.0,97.0
323,228.18056492708334,228.33120560625,69.0,100.0
324,228.56517942708334,228.91453759791668,67.0,108.0
325,228.94979392708333,229.04594755208333,65.0,100.0
326,229.14210117708333,229.49145934791667,67.0,100.0
327,229.91133017708333,229.99306075833334,65.0,94.0
328,230.10363742708333,230.35363685208333,67.0,105.0
329,230.48825192708335,230.5860081125,65.0,97.0
330,230.68055917708335,230.96902005208335,62.0,100.0
331,231.06517367708335,231.49305730833333,65.0,105.0
332,231.64209542708335,232.46741404166667,67.0,108.0
333,232.60363167708334,232.70779810416667,65.0,102.0
334,232.79593892708334,232.89850279375,67.0,100.0
335,232.98824617708334,233.27189937083335,69.0,100.0
336,233.56516792708334,233.79273150625002,57.0,105.0
337,233.94978242708333,234.20779465416666,72.0,102.0
338,234.33439692708333,234.54272978125002,69.0,102.0
339,234.71901142708333,234.99304925833334,67.0,105.0
340,235.10362592708333,235.210997475,65.0,92.0
341,235.29593317708333,235.64529134791667,67.0,102.0
342,236.25746942708335,236.50586629166668,67.0,111.0
343,236.64208392708335,236.76067339791666,65.0,102.0
344,236.83439117708335,237.12285205208335,72.0,108.0
345,237.21900567708335,237.69977380208334,74.0,108.0
346,237.79592742708334,239.32477006458333,69.0,105.0
347,239.71899992708333,239.9898326375,57.0,105.0
348,240.10361442708333,240.29592167708333,72.0,111.0
349,240.48822892708333,240.69015153958335,69.0,102.0
350,240.87284342708335,241.10040700625,67.0,105.0
351,241.25745792708335,241.34880387083334,65.0,76.0
352,241.44976517708335,242.21258393541666,67.0,102.0
353,242.41130142708334,242.6741213354167,67.0,105.0
354,242.79591592708334,242.93694124375,65.0,94.0
355,242.98822317708334,243.26867125,62.0,108.0
356,243.94975942708334,244.13725899583335,72.0,102.0
357,244.33437392708333,244.52187349583335,69.0,100.0
358,244.71898842708333,244.97860321458333,67.0,105.0
359,245.10360292708333,245.20616679375001,69.0,92.0
360,245.29591017708333,245.61802482083334,67.0,94.0
361,245.87283192708335,246.25424130625,65.0,108.0
362,246.25744642708335,246.49142024791666,62.0,102.0
363,246.64206092708335,246.87923986875,60.0,97.0
364,247.02667542708335,247.66609703333333,62.0,94.0
365,247.79590442708334,248.06994225833333,62.0,89.0
366,248.18051892708334,248.43372347291668,65.0,97.0
367,248.56513342708334,248.8551968625,67.0,97.0
368,248.94974792708334,249.23179856041668,65.0,97.0
369,249.33436242708333,249.60038745625002,62.0,105.0
370,249.71897692708333,249.90807905625002,60.0,84.0
371,249.91128417708333,251.44493449583334,62.0,100.0
372,252.41127842708335,252.67730345625,72.0,90.0
373,252.79589292708334,253.02505906666667,69.0,95.0
374,253.18050742708334,253.4705708625,67.0,93.0
375,253.56512192708334,253.66608323333335,65.0,93.0
376,253.75742917708334,254.14044111666666,67.0,93.0
377,254.71896542708333,254.99140069791667,67.0,90.0
378,255.10357992708333,255.2365924416667,65.0,80.0
379,255.29588717708333,255.59075829375,62.0,93.0
380,255.68050167708333,256.02184704583334,65.0,93.0
381,256.2574234270833,256.46575628125,72.0,90.0
382,256.6420379270833,257.02344730625003,69.0,87.0
383,257.0266524270833,257.40806180625003,67.0,80.0
384,257.4112669270833,257.60036905625003,69.0,83.0
385,257.6035741770833,257.8920350520833,67.0,83.0
386,258.1804959270833,258.5026105708333,65.0,83.0
387,258.56511042708337,258.83754569791665,62.0,87.0
388,258.94972492708337,259.23017300000004,60.0,87.0
389,259.33433942708336,259.8936330125,62.0,85.0
390,260.10356842708336,260.3487601708333,62.0,83.0
391,260.48818292708336,260.73177211041667,65.0,90.0
392,260.87279742708336,261.14843781875,67.0,87.0
393,261.25741192708335,261.49459086875,65.0,87.0
394,261.64202642708335,261.8808079291667,62.0,93.0
395,262.02664092708335,262.1500380791667,60.0,80.0
396,262.21894817708335,264.11958483125,62.0,87.0
