,start,end,pitch,velocity
0,0.8733954270833334,2.1362130354166666,46.0,43.0
1,1.6426244270833334,2.1506360791666665,58.0,42.0
2,1.2580099270833334,2.3140972416666665,53.0,34.0
3,3.1810824270833336,3.612171179166667,60.0,82.0
4,2.4118534270833334,3.749991375,48.0,67.0
5,2.7964679270833335,4.01441384375,55.0,69.0
6,3.5656969270833336,4.727553229166666,64.0,84.0
7,4.334925927083334,4.84133501875,57.0,51.0
8,3.9503114270833333,6.6249847625000005,50.0,92.0
9,5.104154927083333,6.727548629166667,57.0,57.0
10,5.488769427083334,6.881394429166667,69.0,76.0
11,4.719540427083333,6.913445637500001,62.0,73.0
12,7.411841927083334,7.709918164583334,58.0,59.0
13,7.219534677083334,7.948699666666667,53.0,59.0
14,7.027227427083334,8.18748116875,46.0,56.0
15,7.604149177083333,8.224340058333334,65.0,80.0
16,7.988763677083334,8.397416583333333,53.0,71.0
17,8.181070927083333,8.415044747916667,58.0,63.0
18,8.373378177083334,8.713120985416667,65.0,93.0
19,8.950299927083334,9.185876308333334,60.0,69.0
20,8.565685427083334,9.770810860416667,48.0,69.0
21,8.757992677083333,9.977541154166667,55.0,68.0
22,9.142607177083333,10.251578985416668,64.0,80.0
23,10.488757927083334,10.749975275,62.0,68.0
24,10.296450677083334,10.905423635416668,57.0,68.0
25,10.681065177083333,11.302858618750001,69.0,85.0
26,10.104143427083333,11.459909539583334,50.0,80.0
27,11.257986927083333,11.491960747916668,62.0,67.0
28,11.065679677083335,11.564075966666667,57.0,66.0
29,11.450294177083334,11.972728872916667,65.0,69.0
30,12.027215927083335,12.208305254166667,62.0,59.0
31,12.219523177083333,12.507984052083334,64.0,71.0
32,11.834908677083334,12.753175795833334,57.0,68.0
33,11.642601427083333,12.78362444375,50.0,64.0
34,12.604137677083333,12.97593169375,65.0,80.0
35,13.565673927083333,13.988749877083334,58.0,60.0
36,13.373366677083334,14.181057127083333,53.0,69.0
37,13.181059427083333,14.464710320833333,46.0,68.0
38,14.334902927083334,14.578492110416667,53.0,64.0
39,13.757981177083334,14.621761241666666,65.0,87.0
40,14.527210177083333,14.717914866666668,58.0,50.0
41,15.104131927083333,15.28361869375,60.0,69.0
42,14.911824677083334,15.729130489583333,55.0,67.0
43,14.719517427083334,16.01438624375,48.0,80.0
44,15.873360927083334,16.121757791666667,55.0,65.0
45,15.296439177083334,16.173039725,64.0,80.0
46,16.065668177083335,16.299641997916666,60.0,67.0
47,16.642589927083336,16.849320220833334,62.0,69.0
48,16.450282677083333,17.275601291666668,57.0,70.0
49,17.219511677083332,17.671433714583333,62.0,65.0
50,16.257975427083334,17.70829260416667,50.0,72.0
51,16.834897177083334,17.76438221875,65.0,68.0
52,17.604126177083334,18.34611165,69.0,87.0
53,18.181047927083334,18.43425247291667,62.0,69.0
54,17.988740677083335,18.592905954166667,57.0,71.0
55,18.373355177083333,19.190660989583336,65.0,70.0
56,18.950276927083333,19.19707123125,62.0,67.0
57,19.142584177083332,19.275596691666667,69.0,58.0
58,17.796433427083333,19.314058141666667,50.0,80.0
59,18.757969677083334,19.315660702083335,57.0,71.0
60,19.719505927083333,20.017582164583335,58.0,59.0
61,19.527198677083334,20.25636366666667,53.0,59.0
62,19.334891427083335,20.49514516875,46.0,56.0
63,19.911813177083335,20.532004058333335,65.0,80.0
64,20.296427677083333,20.705080583333334,53.0,71.0
65,20.488734927083335,20.722708747916666,58.0,63.0
66,20.681042177083334,21.020784985416668,65.0,93.0
67,21.257963927083335,21.493540308333333,60.0,69.0
68,20.873349427083333,22.078474860416666,48.0,69.0
69,21.065656677083332,22.28520515416667,55.0,68.0
70,21.450271177083334,22.559242985416667,64.0,80.0
71,22.796421927083333,23.057639275,62.0,68.0
72,22.604114677083334,23.213087635416667,57.0,68.0
73,22.988729177083336,23.61052261875,69.0,85.0
74,22.411807427083335,23.767573539583335,50.0,80.0
75,23.565650927083333,23.799624747916667,62.0,67.0
76,23.373343677083334,23.871739966666667,57.0,66.0
77,23.757958177083335,24.280392872916668,65.0,69.0
78,24.334879927083335,24.515969254166667,62.0,59.0
79,24.527187177083334,24.815648052083333,64.0,71.0
80,24.142572677083333,25.060839795833335,57.0,68.0
81,23.950265427083334,25.09128844375,50.0,64.0
82,24.911801677083336,25.28359569375,65.0,80.0
83,25.873337927083334,26.296413877083335,58.0,60.0
84,25.681030677083335,26.488721127083334,53.0,69.0
85,25.488723427083332,26.772374320833332,46.0,68.0
86,26.642566927083333,26.886156110416668,53.0,64.0
87,26.065645177083333,26.929425241666667,65.0,87.0
88,26.834874177083336,27.025578866666667,58.0,50.0
89,27.411795927083332,27.59128269375,60.0,69.0
90,27.219488677083334,28.036794489583333,55.0,67.0
91,27.027181427083335,28.322050243750002,48.0,80.0
92,28.181024927083335,28.429421791666666,55.0,65.0
93,27.604103177083335,28.480703725,64.0,80.0
94,28.373332177083334,28.60730599791667,60.0,67.0
95,28.950253927083335,29.156984220833333,62.0,69.0
96,28.757946677083336,29.583265291666667,57.0,70.0
97,29.527175677083335,29.979097714583336,62.0,65.0
98,28.565639427083333,30.015956604166668,50.0,72.0
99,29.142561177083333,30.07204621875,65.0,68.0
100,29.911790177083333,30.65377565,69.0,87.0
101,30.488711927083333,30.741916472916667,62.0,69.0
102,30.296404677083334,30.900569954166667,57.0,71.0
103,30.681019177083336,31.498324989583335,65.0,70.0
104,31.257940927083336,31.504735231250002,62.0,67.0
105,31.450248177083335,31.583260691666666,69.0,58.0
106,30.104097427083335,31.621722141666666,50.0,80.0
107,31.065633677083333,31.623324702083334,57.0,71.0
108,31.642555427083334,31.825247314583333,58.0,80.0
109,31.642555427083334,31.967875191666668,65.0,90.0
110,32.027169927083335,32.12973379375,58.0,105.0
111,31.834862677083333,32.42620747083333,53.0,50.0
112,32.219477177083334,32.83486037708334,58.0,93.0
113,31.642555427083334,32.87973206875,46.0,87.0
114,32.79639892708333,33.03838555,53.0,102.0
115,32.219477177083334,33.06242395625,65.0,103.0
116,32.98870617708334,33.09127004375,58.0,102.0
117,33.181013427083336,33.53037159791667,60.0,87.0
118,33.181013427083336,33.53357671875,64.0,102.0
119,33.565627927083334,33.86049904375,55.0,69.0
120,33.75793517708333,34.02075508541667,60.0,110.0
121,33.95024242708333,34.19062648958334,55.0,74.0
122,34.14254967708334,34.33966460833334,60.0,105.0
123,34.14254967708334,34.363703014583336,64.0,112.0
124,33.181013427083336,34.506330891666664,48.0,93.0
125,34.33485692708334,34.58165123125,55.0,69.0
126,34.527164177083336,34.61049731875,60.0,95.0
127,34.719471427083334,35.086457762500004,62.0,93.0
128,34.719471427083334,35.13293201458333,65.0,90.0
129,35.29639317708333,35.55120028333334,62.0,105.0
130,35.10408592708333,35.777161302083336,57.0,74.0
131,35.681007677083336,35.83805859791667,62.0,102.0
132,35.681007677083336,35.849276520833335,69.0,103.0
133,34.719471427083334,36.17139116458333,50.0,87.0
134,36.065622177083334,36.17940396666667,62.0,90.0
135,35.873314927083335,36.18100652708333,57.0,68.0
136,36.25792942708333,36.46465972083333,62.0,102.0
137,36.25792942708333,36.49510836875,65.0,93.0
138,36.64254392708334,36.73549243125,62.0,105.0
139,36.45023667708333,36.903761275,57.0,87.0
140,36.83485117708334,37.0768378,62.0,105.0
141,36.83485117708334,37.12010693125,65.0,103.0
142,37.027158427083336,37.363696114583334,57.0,83.0
143,37.219465677083335,37.368503795833334,62.0,102.0
144,36.25792942708333,37.392542202083334,50.0,87.0
145,37.411772927083334,37.58965713333333,65.0,95.0
146,37.60408017708333,37.80440022916667,62.0,95.0
147,38.18100192708334,38.265937629166665,58.0,93.0
148,37.98869467708334,38.73068015,53.0,74.0
149,38.373309177083335,38.92619252083333,58.0,102.0
150,37.79638742708333,39.00792310208333,46.0,93.0
151,38.95023092708333,39.20343547291667,53.0,93.0
152,39.14253817708333,39.24510204375,58.0,103.0
153,38.373309177083335,39.256319966666666,65.0,93.0
154,39.33484542708334,39.589652533333336,60.0,80.0
155,39.33484542708334,39.65375495,64.0,102.0
156,39.719459927083335,39.825228914583334,60.0,93.0
157,39.527152677083336,39.99510031875,55.0,80.0
158,39.911767177083334,40.501509410416666,60.0,103.0
159,39.911767177083334,40.544778541666666,64.0,102.0
160,39.33484542708334,40.6922141,48.0,93.0
161,40.48868892708334,40.748303714583336,55.0,80.0
162,40.68099617708334,40.847662460416664,60.0,95.0
163,41.257917927083334,41.51272503333333,62.0,87.0
164,41.065610677083335,41.87009600625,57.0,70.0
165,40.873303427083336,42.253107945833335,50.0,93.0
166,42.027146927083336,42.27073611041667,57.0,80.0
167,41.45022517708333,42.32362060416667,65.0,93.0
168,42.219454177083335,42.55118418333333,62.0,93.0
169,42.79637592708333,42.8941321125,62.0,102.0
170,42.60406867708333,43.073618879166666,57.0,83.0
171,42.98868317708334,43.19541347083334,62.0,102.0
172,42.98868317708334,43.213041635416666,69.0,103.0
173,42.98868317708334,43.23547748125,65.0,95.0
174,43.373297677083336,43.49989995,62.0,105.0
175,43.565604927083335,43.903745175000005,62.0,93.0
176,43.565604927083335,43.922975900000004,65.0,102.0
177,43.565604927083335,43.92457846041667,69.0,103.0
178,43.18099042708334,43.99188599791667,57.0,93.0
179,42.411761427083334,44.06400121666667,50.0,95.0
180,43.95021942708333,44.13291131458333,58.0,80.0
181,43.95021942708333,44.27553919166667,65.0,90.0
182,44.33483392708334,44.43739779375,58.0,105.0
183,44.14252667708333,44.733871470833336,53.0,50.0
184,44.52714117708334,45.14252437708333,58.0,93.0
185,43.95021942708333,45.187396068750004,46.0,87.0
186,45.10406292708333,45.346049550000004,53.0,102.0
187,44.52714117708334,45.37008795625,65.0,103.0
188,45.29637017708333,45.39893404375,58.0,102.0
189,45.48867742708333,45.838035597916665,60.0,87.0
190,45.48867742708333,45.84124071875,64.0,102.0
191,45.873291927083336,46.16816304375,55.0,69.0
192,46.065599177083335,46.32841908541667,60.0,110.0
193,46.257906427083334,46.49829048958333,55.0,74.0
194,46.45021367708333,46.64732860833333,60.0,105.0
195,46.45021367708333,46.67136701458333,64.0,112.0
196,45.48867742708333,46.81399489166667,48.0,93.0
197,46.64252092708333,46.88931523125,55.0,69.0
198,46.83482817708334,46.91816131875,60.0,95.0
199,47.02713542708334,47.3941217625,62.0,93.0
200,47.02713542708334,47.440596014583335,65.0,90.0
201,47.604057177083334,47.85886428333333,62.0,105.0
202,47.411749927083335,48.08482530208334,57.0,74.0
203,47.98867167708333,48.14572259791667,62.0,102.0
204,47.98867167708333,48.15694052083334,69.0,103.0
205,47.02713542708334,48.479055164583336,50.0,87.0
206,48.37328617708334,48.487067966666665,62.0,90.0
207,48.18097892708334,48.488670527083336,57.0,68.0
208,48.565593427083336,48.772323720833334,62.0,102.0
209,48.565593427083336,48.80277236875,65.0,93.0
210,48.95020792708333,49.043156431250004,62.0,105.0
211,48.757900677083335,49.211425275,57.0,87.0
212,49.14251517708333,49.3845018,62.0,105.0
213,49.14251517708333,49.42777093125,65.0,103.0
214,49.33482242708333,49.67136011458334,57.0,83.0
215,49.52712967708334,49.67616779583334,62.0,102.0
216,48.565593427083336,49.700206202083336,50.0,87.0
217,49.719436927083336,49.897321133333335,65.0,95.0
218,49.911744177083335,50.11206422916667,62.0,95.0
219,50.48866592708333,50.57360162916667,58.0,93.0
220,50.29635867708333,51.03834415,53.0,74.0
221,50.68097317708334,51.233856520833335,58.0,102.0
222,50.104051427083334,51.315587102083335,46.0,93.0
223,51.257894927083335,51.51109947291667,53.0,93.0
224,51.450202177083334,51.552766043750005,58.0,103.0
225,50.68097317708334,51.56398396666667,65.0,93.0
226,51.64250942708333,51.89731653333334,60.0,80.0
227,51.64250942708333,51.96141895,64.0,102.0
228,52.02712392708334,52.13289291458334,60.0,93.0
229,51.83481667708333,52.30276431875,55.0,80.0
230,52.21943117708334,52.80917341041667,60.0,103.0
231,52.21943117708334,52.85244254166667,64.0,102.0
232,51.64250942708333,52.999878100000004,48.0,93.0
233,52.79635292708333,53.05596771458333,55.0,80.0
234,52.98866017708333,53.15532646041667,60.0,95.0
235,53.565581927083336,53.820389033333335,62.0,87.0
236,53.37327467708334,54.177760006250004,57.0,70.0
237,53.18096742708334,54.56077194583334,50.0,93.0
238,54.33481092708333,54.578400110416666,57.0,80.0
239,53.757889177083335,54.631284604166666,65.0,93.0
240,54.52711817708334,54.858848183333336,62.0,93.0
241,55.104039927083335,55.2017961125,62.0,102.0
242,54.911732677083336,55.38128287916667,57.0,83.0
243,55.296347177083334,55.50307747083333,62.0,102.0
244,55.296347177083334,55.52070563541667,69.0,103.0
245,55.296347177083334,55.543141481250004,65.0,95.0
246,55.68096167708333,55.80756395,62.0,105.0
247,55.87326892708334,56.211409175,62.0,93.0
248,55.87326892708334,56.2306399,65.0,102.0
249,55.87326892708334,56.23224246041667,69.0,103.0
250,55.48865442708333,56.29954999791667,57.0,93.0
251,54.71942542708334,56.37166521666667,50.0,95.0
252,56.64249792708333,56.94057416458333,58.0,59.0
253,56.450190677083334,57.179355666666666,53.0,59.0
254,56.257883427083335,57.41813716875,46.0,56.0
255,56.83480517708333,57.454996058333336,65.0,80.0
256,57.21941967708334,57.628072583333335,53.0,71.0
257,57.411726927083336,57.64570074791667,58.0,63.0
258,57.604034177083335,57.94377698541667,65.0,93.0
259,58.18095592708333,58.41653230833334,60.0,69.0
260,57.796341427083334,59.00146686041667,48.0,69.0
261,57.98864867708333,59.20819715416667,55.0,68.0
262,58.37326317708334,59.48223498541667,64.0,80.0
263,59.71941392708334,59.980631275,62.0,68.0
264,59.52710667708334,60.13607963541667,57.0,68.0
265,59.911721177083336,60.533514618750004,69.0,85.0
266,59.33479942708333,60.69056553958333,50.0,80.0
267,60.48864292708333,60.72261674791667,62.0,67.0
268,60.296335677083334,60.79473196666667,57.0,66.0
269,60.68095017708333,61.20338487291667,65.0,69.0
270,61.257871927083336,61.43896125416667,62.0,59.0
271,61.450179177083335,61.73864005208333,64.0,71.0
272,61.06556467708334,61.98383179583333,57.0,68.0
273,60.87325742708334,62.01428044375,50.0,64.0
274,61.83479367708333,62.20658769375,65.0,80.0
275,62.796329927083335,63.21940587708333,58.0,60.0
276,62.604022677083336,63.41171312708334,53.0,69.0
277,62.41171542708334,63.69536632083334,46.0,68.0
278,63.56555892708334,63.80914811041667,53.0,64.0
279,62.98863717708333,63.85241724166667,65.0,87.0
280,63.757866177083336,63.94857086666667,58.0,50.0
281,64.33478792708334,64.51427469375,60.0,69.0
282,64.14248067708334,64.95978648958334,55.0,67.0
283,63.950173427083335,65.24504224375,48.0,80.0
284,65.10401692708334,65.35241379166666,55.0,65.0
285,64.52709517708334,65.403695725,64.0,80.0
286,65.29632417708333,65.53029799791666,60.0,67.0
287,65.87324592708333,66.07997622083333,62.0,69.0
288,65.68093867708333,66.50625729166667,57.0,70.0
289,66.45016767708333,66.90208971458334,62.0,65.0
290,65.48863142708333,66.93894860416667,50.0,72.0
291,66.06555317708333,66.99503821875,65.0,68.0
292,66.83478217708334,67.57676765000001,69.0,87.0
293,67.41170392708334,67.66490847291666,62.0,69.0
294,67.21939667708334,67.82356195416666,57.0,71.0
295,67.60401117708334,68.42131698958333,65.0,70.0
296,68.18093292708333,68.42772723125,62.0,67.0
297,68.37324017708333,68.50625269166667,69.0,58.0
298,67.02708942708334,68.54471414166667,50.0,80.0
299,67.98862567708333,68.54631670208333,57.0,71.0
300,68.95016192708333,69.24823816458334,58.0,59.0
301,68.75785467708333,69.48701966666667,53.0,59.0
302,68.56554742708333,69.72580116875,46.0,56.0
303,69.14246917708334,69.76266005833334,65.0,80.0
304,69.52708367708334,69.93573658333334,53.0,71.0
305,69.71939092708334,69.95336474791667,58.0,63.0
306,69.91169817708334,70.25144098541666,65.0,93.0
307,70.48861992708333,70.72419630833333,60.0,69.0
308,70.10400542708334,71.30913086041667,48.0,69.0
309,70.29631267708334,71.51586115416667,55.0,68.0
310,70.68092717708333,71.78989898541667,64.0,80.0
311,72.02707792708334,72.288295275,62.0,68.0
312,71.83477067708334,72.44374363541667,57.0,68.0
313,72.21938517708334,72.84117861875,69.0,85.0
314,71.64246342708334,72.99822953958333,50.0,80.0
315,72.79630692708334,73.03028074791666,62.0,67.0
316,72.60399967708334,73.10239596666666,57.0,66.0
317,72.98861417708333,73.51104887291667,65.0,69.0
318,73.56553592708333,73.74662525416667,62.0,59.0
319,73.75784317708333,74.04630405208333,64.0,71.0
320,73.37322867708333,74.29149579583334,57.0,68.0
321,73.18092142708333,74.32194444375,50.0,64.0
322,74.14245767708334,74.51425169375,65.0,80.0
323,75.10399392708334,75.52706987708333,58.0,60.0
324,74.91168667708334,75.71937712708333,53.0,69.0
325,74.71937942708334,76.00303032083333,46.0,68.0
326,75.87322292708333,76.11681211041667,53.0,64.0
327,75.29630117708334,76.16008124166667,65.0,87.0
328,76.06553017708333,76.25623486666667,58.0,50.0
329,76.64245192708333,76.82193869375,60.0,69.0
330,76.45014467708333,77.26745048958334,55.0,67.0
331,76.25783742708333,77.55270624375001,48.0,80.0
332,77.41168092708334,77.66007779166667,55.0,65.0
333,76.83475917708334,77.71135972500001,64.0,80.0
334,77.60398817708334,77.83796199791666,60.0,67.0
335,78.18090992708333,78.38764022083333,62.0,69.0
336,77.98860267708334,78.81392129166667,57.0,70.0
337,78.75783167708333,79.20975371458334,62.0,65.0
338,77.79629542708334,79.24661260416667,50.0,72.0
339,78.37321717708333,79.30270221875,65.0,68.0
340,79.14244617708333,79.88443165,69.0,87.0
341,79.71936792708334,79.97257247291667,62.0,69.0
342,79.52706067708334,80.13122595416667,57.0,71.0
343,79.91167517708334,80.72898098958333,65.0,70.0
344,80.48859692708334,80.73539123125,62.0,67.0
345,80.68090417708333,80.81391669166666,69.0,58.0
346,79.33475342708334,80.85237814166666,50.0,80.0
347,80.29628967708334,80.85398070208333,57.0,71.0
348,80.87321142708333,81.25462080625,58.0,68.0
349,80.87321142708333,81.45814597916667,65.0,87.0
350,81.45013317708333,81.73058125,58.0,93.0
351,80.87321142708333,82.28025947291667,46.0,80.0
352,81.25782592708333,82.31231068125,53.0,80.0
353,82.21936217708334,82.43090015208334,58.0,102.0
354,81.83474767708334,82.58634851250001,65.0,102.0
355,82.79628392708334,82.90365547500001,60.0,83.0
356,82.98859117708334,83.26102644791666,60.0,93.0
357,82.98859117708334,83.27384693125,64.0,95.0
358,82.60397667708334,83.4325004125,55.0,68.0
359,83.37320567708333,83.66166655208333,60.0,102.0
360,82.41166942708334,83.91967877916667,48.0,93.0
361,83.75782017708333,83.92608902083333,60.0,93.0
362,83.56551292708333,83.92929414166667,55.0,80.0
363,83.95012742708333,84.35076753125,57.0,83.0
364,83.95012742708333,84.6632668125,64.0,87.0
365,84.52704917708334,84.82993309583334,57.0,83.0
366,84.91166367708334,85.09435556458334,60.0,103.0
367,83.95012742708333,85.15044517916667,45.0,87.0
368,84.33474192708334,85.15204773958334,52.0,69.0
369,85.10397092708334,85.35877803333334,57.0,95.0
370,85.29627817708334,85.49659822916666,60.0,87.0
371,85.48858542708334,85.903648575,62.0,95.0
372,85.87319992708333,86.2401862625,57.0,87.0
373,86.06550717708333,86.36839109583333,62.0,83.0
374,86.25781442708333,86.45492935833333,57.0,61.0
375,86.45012167708333,86.64723660833333,62.0,93.0
376,86.45012167708333,86.7017236625,65.0,90.0
377,85.48858542708334,86.82351825416667,50.0,80.0
378,86.64242892708333,86.82832593541667,57.0,68.0
379,86.83473617708334,87.0767228,62.0,93.0
380,87.60396517708334,87.98056687500001,58.0,93.0
381,87.21935067708334,88.01902832500001,53.0,34.0
382,87.02704342708334,88.288258475,46.0,65.0
383,87.98857967708334,88.38761722083333,62.0,93.0
384,88.18088692708334,88.39883514375,53.0,74.0
385,88.37319417708333,88.519027175,58.0,87.0
386,88.95011592708333,89.20332047291667,60.0,87.0
387,89.14242317708333,89.34594835,64.0,103.0
388,88.75780867708333,89.57671705,55.0,71.0
389,89.52703767708334,89.76261405833334,60.0,85.0
390,88.56550142708333,90.03665188958334,48.0,93.0
391,89.71934492708334,90.04626725208334,55.0,71.0
392,89.52703767708334,90.05107493333334,67.0,83.0
393,89.91165217708334,90.07511333958334,60.0,102.0
394,90.10395942708334,90.31870252291667,64.0,95.0
395,90.10395942708334,90.53825330000001,67.0,93.0
396,90.48857392708334,90.64562484791666,64.0,87.0
397,90.68088117708334,90.9709446125,67.0,105.0
398,91.06549567708333,91.29305925625,69.0,93.0
399,90.10395942708334,91.32991814583333,40.0,70.0
400,90.10395942708334,91.38120007916667,52.0,85.0
401,91.25780292708333,91.47735370416667,64.0,87.0
402,91.45011017708333,91.65043022916667,67.0,83.0
403,91.64241742708333,92.1632495625,69.0,87.0
404,92.21933917708334,92.26260830833334,69.0,36.0
405,92.02703192708334,92.28023647291667,57.0,102.0
406,91.83472467708333,92.480556525,52.0,74.0
407,92.21933917708334,92.84113261875001,64.0,102.0
408,92.79626092708334,93.04626035208334,57.0,95.0
409,92.98856817708334,93.12478581250001,64.0,93.0
410,92.60395367708334,93.22895223958334,52.0,93.0
411,91.64241742708333,93.23856760208334,45.0,93.0
412,93.18087542708334,93.59754113541668,58.0,72.0
413,93.18087542708334,93.84273287916668,62.0,93.0
414,93.75779717708333,94.16003984166667,58.0,103.0
415,93.18087542708334,94.48856472708334,46.0,74.0
416,93.56548992708333,94.57991067083334,53.0,69.0
417,94.14241167708333,94.58952603333334,65.0,85.0
418,94.52702617708334,94.65362845,58.0,87.0
419,95.10394792708334,95.39080624166667,60.0,74.0
420,95.30266541875001,95.62958774375001,64.0,105.0
421,94.91164067708334,96.05426625416666,55.0,63.0
422,94.71933342708334,96.10875330833333,48.0,87.0
423,95.68086967708334,96.16484292291668,67.0,95.0
424,95.87317692708334,96.19689413125,60.0,80.0
425,96.25779142708333,96.6632392125,57.0,93.0
426,96.25779142708333,97.057469075,64.0,80.0
427,96.83471317708333,97.25778912708334,57.0,102.0
428,97.21932767708334,97.43567333333334,60.0,95.0
429,96.25779142708333,97.63278826458334,45.0,93.0
430,96.64240592708333,97.68887787916667,52.0,74.0
431,97.41163492708334,97.69528812083334,57.0,93.0
432,97.60394217708334,97.98695411666667,60.0,83.0
433,98.18086392708334,98.43727359375,55.0,102.0
434,98.37317117708334,98.52381185625,59.0,103.0
435,98.75778567708333,98.92765708125,55.0,87.0
436,97.98855667708334,99.13118225416667,50.0,69.0
437,97.79624942708334,99.22252819791667,43.0,93.0
438,98.75778567708333,99.26259220833333,62.0,90.0
439,98.95009292708333,99.26419476875,55.0,69.0
440,99.33470742708333,99.70810400416667,55.0,85.0
441,99.33470742708333,99.80586018958334,58.0,72.0
442,99.91162917708334,100.1632311625,55.0,105.0
443,100.29624367708334,100.47573044375001,55.0,90.0
444,100.29624367708334,100.76739643958334,62.0,87.0
445,99.33470742708333,100.78502460416667,43.0,95.0
446,99.71932192708334,100.79463996666667,50.0,71.0
447,100.87316542708334,101.27220297083333,60.0,87.0
448,100.87316542708334,101.45809997916668,64.0,93.0
449,101.45008717708333,101.69527892083333,60.0,105.0
450,101.25777992708333,101.90040665416667,55.0,93.0
451,101.83470167708333,102.07989342083334,60.0,93.0
452,101.83470167708333,102.29623907708334,67.0,87.0
453,102.02700892708333,102.36995685625,55.0,87.0
454,100.87316542708334,102.38758502083334,48.0,87.0
455,102.21931617708334,102.39079014166667,60.0,102.0
456,102.41162342708334,102.81546865208334,63.0,83.0
457,102.41162342708334,103.02059638541667,70.0,74.0
458,102.41162342708334,103.15681402083334,39.0,102.0
459,102.79623792708334,103.23053180000001,46.0,68.0
460,102.98854517708334,103.41322368750001,63.0,105.0
461,103.56546692708334,103.96290191041668,63.0,95.0
462,104.33469592708333,104.61834912083334,57.0,93.0
463,104.52700317708333,104.75456675625,61.0,105.0
464,104.14238867708333,104.95488680833334,52.0,68.0
465,104.91161767708334,105.09911724583334,57.0,102.0
466,104.91161767708334,105.16001454166667,64.0,103.0
467,105.29623217708334,105.40520628541667,57.0,105.0
468,103.95008142708333,105.43886005416667,45.0,85.0
469,105.10392492708334,105.442065175,52.0,87.0
470,105.48853942708334,105.90680769583334,58.0,71.0
471,105.48853942708334,106.11834567083334,62.0,80.0
472,106.06546117708334,106.47731920416668,58.0,103.0
473,105.48853942708334,106.55584466458333,46.0,71.0
474,105.87315392708334,106.61353683958333,53.0,74.0
475,106.45007567708333,106.71930582708333,65.0,93.0
476,106.64238292708333,106.8747541875,58.0,93.0
477,106.83469017708333,107.10712544791667,65.0,93.0
478,107.41161192708334,107.66962415416667,60.0,80.0
479,107.21930467708334,108.02539256666667,55.0,80.0
480,107.98853367708334,108.21128957500001,60.0,83.0
481,107.02699742708333,108.30103295833334,48.0,87.0
482,108.18084092708334,108.34269952916667,55.0,68.0
483,108.56545542708334,108.96609553125,57.0,87.0
484,108.56545542708334,109.0093646625,60.0,90.0
485,109.14237717708333,109.26096664791667,57.0,103.0
486,109.52699167708333,109.69045283958334,57.0,102.0
487,109.71929892708334,109.89718313333334,60.0,74.0
488,108.95006992708333,109.95647786875,52.0,61.0
489,108.56545542708334,109.95808042916667,45.0,95.0
490,109.91160617708334,110.0862852625,57.0,102.0
491,110.10391342708334,110.35231029166667,65.0,83.0
492,110.29622067708334,110.52057913541667,57.0,95.0
493,110.48852792708334,110.69525822083334,62.0,93.0
494,110.68083517708334,110.98371909583334,65.0,110.0
495,110.10391342708334,111.43724369375,50.0,80.0
496,111.25775692708334,111.45487185833333,62.0,103.0
497,111.45006417708333,111.76416601875,57.0,102.0
498,112.02698592708333,112.26095974791667,55.0,102.0
499,112.21929317708333,112.48531820625,62.0,102.0
500,112.60390767708334,112.77217652083334,58.0,102.0
501,112.98852217708334,113.07506043958334,55.0,102.0
502,111.83467867708333,113.09108604375001,50.0,72.0
503,111.64237142708333,113.09429116458334,43.0,90.0
504,113.18082942708334,113.39557252291667,55.0,95.0
505,113.18082942708334,113.58146953125001,60.0,93.0
506,113.56544392708334,113.67441803541666,55.0,93.0
507,113.75775117708334,114.01095572291668,55.0,80.0
508,113.75775117708334,114.1631989625,64.0,95.0
509,114.14236567708333,114.19845529166668,55.0,85.0
510,113.18082942708334,114.20807065416668,48.0,102.0
511,114.14236567708333,114.30903196041668,60.0,85.0
512,114.71928742708333,115.09909424583334,60.0,93.0
513,114.71928742708333,115.31223478125,65.0,87.0
514,115.29620917708334,115.50133691041667,60.0,105.0
515,115.68082367708334,115.85069508125001,60.0,103.0
516,115.68082367708334,115.93402822291667,69.0,93.0
517,114.71928742708333,116.08627146250001,41.0,87.0
518,115.87313092708334,116.11351498958334,65.0,68.0
519,115.10390192708334,116.14716875833334,48.0,61.0
520,116.06543817708334,116.2593479875,60.0,105.0
521,116.25774542708334,116.86030814375,43.0,102.0
522,116.45005267708333,116.90517983541667,50.0,68.0
523,116.83466717708333,117.07985892083333,58.0,93.0
524,117.41158892708334,117.66158835208334,57.0,85.0
525,117.02697442708333,117.67120371458334,45.0,93.0
526,117.21928167708333,117.69844724166667,52.0,68.0
527,117.60389617708334,117.73049845,61.0,87.0
528,118.37312517708334,118.61991948125001,58.0,95.0
529,117.79620342708334,118.91479059791666,46.0,93.0
530,118.75773967708334,118.92921364166666,58.0,87.0
531,118.18081792708334,118.95645716875,53.0,83.0
532,118.75773967708334,118.98209813541666,62.0,93.0
533,119.33466142708333,119.7016477625,60.0,85.0
534,119.33466142708333,119.91478829791667,64.0,93.0
535,119.71927592708333,120.34908217083334,55.0,68.0
536,119.33466142708333,120.36350521458334,48.0,85.0
537,120.29619767708334,120.52055613541667,60.0,87.0
538,120.87311942708334,121.26895185000001,57.0,83.0
539,120.87311942708334,121.48369494583334,60.0,80.0
540,121.45004117708334,121.67760475625,57.0,102.0
541,121.83465567708333,122.06061669583333,57.0,80.0
542,121.83465567708333,122.07023205833333,64.0,103.0
543,122.02696292708333,122.249718825,60.0,83.0
544,120.87311942708334,122.27375723125,45.0,87.0
545,121.25773392708334,122.30100075833333,52.0,61.0
546,122.21927017708333,122.42279535,57.0,95.0
547,122.41157742708334,122.67439733541667,55.0,80.0
548,122.41157742708334,122.86990970625,62.0,80.0
549,122.79619192708334,123.02535806666667,55.0,105.0
550,122.98849917708334,123.22407555833334,59.0,95.0
551,122.60388467708334,123.45324169791667,50.0,72.0
552,123.37311367708334,123.57183116875001,55.0,95.0
553,123.37311367708334,123.65997199166667,62.0,93.0
554,122.41157742708334,123.72888208958334,43.0,93.0
555,123.75772817708334,123.99650967916666,55.0,105.0
556,124.33464992708333,124.61830312083333,58.0,67.0
557,124.14234267708333,124.98849457708334,53.0,70.0
558,123.95003542708334,125.172789025,46.0,102.0
559,125.10387892708334,125.34586555,53.0,93.0
560,124.52695717708333,125.34586555,62.0,80.0
561,125.29618617708334,125.4612499,58.0,93.0
562,125.87310792708334,126.05099213333334,60.0,93.0
563,125.68080067708334,126.15996624166667,55.0,74.0
564,126.06541517708334,126.28496595416667,64.0,103.0
565,126.25772242708334,126.46605528125001,55.0,65.0
566,125.48849342708334,126.55099098333334,48.0,93.0
567,126.45002967708334,126.57022170833334,60.0,93.0
568,126.45002967708334,126.69842654166668,64.0,105.0
569,126.64233692708333,126.78175968333333,60.0,72.0
570,127.02695142708333,127.42438641041667,62.0,85.0
571,127.02695142708333,127.61829622083334,65.0,95.0
572,127.60387317708334,127.74810361458334,62.0,93.0
573,127.02695142708333,128.02534656666668,38.0,87.0
574,127.41156592708333,128.05259009375,45.0,59.0
575,127.98848767708334,128.12791043333334,62.0,80.0
576,127.98848767708334,128.15835908125,69.0,95.0
577,128.56540942708332,128.980472575,62.0,80.0
578,128.56540942708332,129.10386972708335,65.0,87.0
579,129.14233117708335,129.38912548125,62.0,95.0
580,128.95002392708335,129.57662505,57.0,67.0
581,129.52694567708335,129.74489389375,62.0,102.0
582,129.52694567708335,129.79297070625,65.0,102.0
583,129.91156017708335,130.04136757083333,62.0,102.0
584,128.56540942708332,130.09104694375,50.0,87.0
585,129.71925292708335,130.09745718541666,57.0,74.0
586,130.10386742708334,130.28655931458334,58.0,80.0
587,130.10386742708334,130.42918719166667,65.0,90.0
588,130.48848192708334,130.59104579375,58.0,105.0
589,130.29617467708334,130.88751947083333,53.0,50.0
590,130.68078917708334,131.29617237708334,58.0,93.0
591,130.10386742708334,131.34104406875,46.0,87.0
592,131.25771092708334,131.49969755,53.0,102.0
593,130.68078917708334,131.52373595625,65.0,103.0
594,131.45001817708334,131.55258204375,58.0,102.0
595,131.64232542708334,131.99168359791668,60.0,87.0
596,131.64232542708334,131.99488871875,64.0,102.0
597,132.02693992708333,132.32181104375002,55.0,69.0
598,132.21924717708333,132.48206708541667,60.0,110.0
599,132.41155442708333,132.65193848958333,55.0,74.0
600,132.60386167708333,132.80097660833334,60.0,105.0
601,132.60386167708333,132.82501501458333,64.0,112.0
602,131.64232542708334,132.96764289166666,48.0,93.0
603,132.79616892708333,133.04296323125,55.0,69.0
604,132.98847617708333,133.07180931875,60.0,95.0
605,133.18078342708333,133.5477697625,62.0,93.0
606,133.18078342708333,133.59424401458332,65.0,90.0
607,133.75770517708332,134.01251228333334,62.0,105.0
608,133.56539792708332,134.23847330208335,57.0,74.0
609,134.14231967708335,134.29937059791666,62.0,102.0
610,134.14231967708335,134.31058852083333,69.0,103.0
611,133.18078342708333,134.63270316458335,50.0,87.0
612,134.52693417708335,134.64071596666668,62.0,90.0
613,134.33462692708335,134.64231852708335,57.0,68.0
614,134.71924142708335,134.92597172083333,62.0,102.0
615,134.71924142708335,134.95642036875,65.0,93.0
616,135.10385592708334,135.19680443125,62.0,105.0
617,134.91154867708335,135.36507327500001,57.0,87.0
618,135.29616317708334,135.5381498,62.0,105.0
619,135.29616317708334,135.58141893125,65.0,103.0
620,135.48847042708334,135.82500811458334,57.0,83.0
621,135.68077767708334,135.82981579583333,62.0,102.0
622,134.71924142708335,135.85385420208334,50.0,87.0
623,135.87308492708334,136.05096913333333,65.0,95.0
624,136.06539217708334,136.26571222916667,62.0,95.0
625,136.64231392708334,136.72724962916666,58.0,93.0
626,136.45000667708334,137.19199215,53.0,74.0
627,136.83462117708333,137.38750452083335,58.0,102.0
628,136.25769942708334,137.46923510208333,46.0,93.0
629,137.41154292708333,137.66474747291667,53.0,93.0
630,137.60385017708333,137.70641404375002,58.0,103.0
631,136.83462117708333,137.71763196666666,65.0,93.0
632,137.79615742708333,138.05096453333334,60.0,80.0
633,137.79615742708333,138.11506695,64.0,102.0
634,138.18077192708333,138.28654091458333,60.0,93.0
635,137.98846467708333,138.45641231875,55.0,80.0
636,138.37307917708333,138.96282141041667,60.0,103.0
637,138.37307917708333,139.00609054166668,64.0,102.0
638,137.79615742708333,139.1535261,48.0,93.0
639,138.95000092708335,139.20961571458335,55.0,80.0
640,139.14230817708335,139.30897446041666,60.0,95.0
641,139.71922992708335,139.97403703333333,62.0,87.0
642,139.52692267708335,140.33140800625,57.0,70.0
643,139.33461542708335,140.71441994583333,50.0,93.0
644,140.48845892708334,140.73204811041668,57.0,80.0
645,139.91153717708335,140.78493260416667,65.0,93.0
646,140.68076617708334,141.01249618333333,62.0,93.0
647,141.25768792708334,141.3554441125,62.0,102.0
648,141.06538067708334,141.53493087916667,57.0,83.0
649,141.44999517708334,141.65672547083335,62.0,102.0
650,141.44999517708334,141.67435363541668,69.0,103.0
651,141.44999517708334,141.69678948125,65.0,95.0
652,141.83460967708334,141.96121195,62.0,105.0
653,142.02691692708333,142.365057175,62.0,93.0
654,142.02691692708333,142.3842879,65.0,102.0
655,142.02691692708333,142.38589046041668,69.0,103.0
656,141.64230242708334,142.45319799791667,57.0,93.0
657,140.87307342708334,142.52531321666666,50.0,95.0
658,142.41153142708333,142.59422331458333,58.0,80.0
659,142.41153142708333,142.73685119166666,65.0,90.0
660,142.79614592708333,142.89870979375002,58.0,105.0
661,142.60383867708333,143.19518347083334,53.0,50.0
662,142.98845317708333,143.60383637708333,58.0,93.0
663,142.41153142708333,143.64870806875,46.0,87.0
664,143.56537492708333,143.80736155,53.0,102.0
665,142.98845317708333,143.83139995625,65.0,103.0
666,143.75768217708332,143.86024604375,58.0,102.0
667,143.94998942708332,144.29934759791666,60.0,87.0
668,143.94998942708332,144.30255271875,64.0,102.0
669,144.33460392708335,144.62947504375,55.0,69.0
670,144.52691117708335,144.78973108541666,60.0,110.0
671,144.71921842708335,144.95960248958335,55.0,74.0
672,144.91152567708335,145.10864060833333,60.0,105.0
673,144.91152567708335,145.13267901458335,64.0,112.0
674,143.94998942708332,145.27530689166667,48.0,93.0
675,145.10383292708335,145.35062723125,55.0,69.0
676,145.29614017708334,145.37947331875,60.0,95.0
677,145.48844742708334,145.8554337625,62.0,93.0
678,145.48844742708334,145.90190801458334,65.0,90.0
679,146.06536917708334,146.32017628333332,62.0,105.0
680,145.87306192708334,146.54613730208334,57.0,74.0
681,146.44998367708334,146.60703459791668,62.0,102.0
682,146.44998367708334,146.61825252083335,69.0,103.0
683,145.48844742708334,146.94036716458334,50.0,87.0
684,146.83459817708334,146.94837996666666,62.0,90.0
685,146.64229092708334,146.94998252708334,57.0,68.0
686,147.02690542708334,147.23363572083335,62.0,102.0
687,147.02690542708334,147.26408436875,65.0,93.0
688,147.41151992708333,147.50446843125002,62.0,105.0
689,147.21921267708333,147.672737275,57.0,87.0
690,147.60382717708333,147.8458138,62.0,105.0
691,147.60382717708333,147.88908293125002,65.0,103.0
692,147.79613442708333,148.13267211458333,57.0,83.0
693,147.98844167708333,148.13747979583334,62.0,102.0
694,147.02690542708334,148.16151820208333,50.0,87.0
695,148.18074892708333,148.35863313333334,65.0,95.0
696,148.37305617708333,148.57337622916668,62.0,95.0
697,148.94997792708332,149.03491362916668,58.0,93.0
698,148.75767067708333,149.49965615,53.0,74.0
699,149.14228517708335,149.69516852083333,58.0,102.0
700,148.56536342708333,149.77689910208335,46.0,93.0
701,149.71920692708335,149.97241147291666,53.0,93.0
702,149.91151417708335,150.01407804375,58.0,103.0
703,149.14228517708335,150.02529596666668,65.0,93.0
704,150.10382142708335,150.35862853333333,60.0,80.0
705,150.10382142708335,150.42273095000002,64.0,102.0
706,150.48843592708334,150.59420491458334,60.0,93.0
707,150.29612867708335,150.76407631875,55.0,80.0
708,150.68074317708334,151.27048541041668,60.0,103.0
709,150.68074317708334,151.31375454166667,64.0,102.0
710,150.10382142708335,151.4611901,48.0,93.0
711,151.25766492708334,151.51727971458334,55.0,80.0
712,151.44997217708334,151.61663846041668,60.0,95.0
713,152.02689392708334,152.28170103333335,62.0,87.0
714,151.83458667708334,152.63907200625002,57.0,70.0
715,151.64227942708334,153.02208394583334,50.0,93.0
716,152.79612292708333,153.03971211041667,57.0,80.0
717,152.21920117708333,153.09259660416666,65.0,93.0
718,152.98843017708333,153.32016018333334,62.0,93.0
719,153.56535192708333,153.6631081125,62.0,102.0
720,153.37304467708333,153.84259487916668,57.0,83.0
721,153.75765917708333,153.96438947083334,62.0,102.0
722,153.75765917708333,153.98201763541667,69.0,103.0
723,153.75765917708333,154.00445348125,65.0,95.0
724,154.14227367708332,154.26887595,62.0,105.0
725,154.33458092708335,154.672721175,62.0,93.0
726,154.33458092708335,154.6919519,65.0,102.0
727,154.33458092708335,154.69355446041666,69.0,103.0
728,153.94996642708333,154.76086199791666,57.0,93.0
729,153.18073742708333,154.83297721666668,50.0,95.0
730,155.10380992708335,155.40188616458335,58.0,59.0
731,154.91150267708335,155.64066766666667,53.0,59.0
732,154.71919542708335,155.87944916875,46.0,56.0
733,155.29611717708335,155.91630805833333,65.0,80.0
734,155.68073167708334,156.08938458333333,53.0,71.0
735,155.87303892708334,156.10701274791668,58.0,63.0
736,156.06534617708334,156.40508898541668,65.0,93.0
737,156.64226792708334,156.87784430833335,60.0,69.0
738,156.25765342708334,157.46277886041668,48.0,69.0
739,156.44996067708334,157.66950915416666,55.0,68.0
740,156.83457517708334,157.94354698541667,64.0,80.0
741,158.18072592708333,158.441943275,62.0,68.0
742,157.98841867708333,158.59739163541667,57.0,68.0
743,158.37303317708333,158.99482661875,69.0,85.0
744,157.79611142708333,159.15187753958332,50.0,80.0
745,158.94995492708333,159.18392874791667,62.0,67.0
746,158.75764767708333,159.25604396666668,57.0,66.0
747,159.14226217708332,159.66469687291666,65.0,69.0
748,159.71918392708335,159.90027325416668,62.0,59.0
749,159.91149117708335,160.19995205208335,64.0,71.0
750,159.52687667708335,160.44514379583333,57.0,68.0
751,159.33456942708335,160.47559244375,50.0,64.0
752,160.29610567708335,160.66789969375,65.0,80.0
753,161.25764192708334,161.68071787708334,58.0,60.0
754,161.06533467708334,161.87302512708334,53.0,69.0
755,160.87302742708334,162.15667832083335,46.0,68.0
756,162.02687092708334,162.27046011041668,53.0,64.0
757,161.44994917708334,162.31372924166666,65.0,87.0
758,162.21917817708334,162.40988286666666,58.0,50.0
759,162.79609992708333,162.97558669375002,60.0,69.0
760,162.60379267708333,163.42109848958333,55.0,67.0
761,162.41148542708333,163.70635424375,48.0,80.0
762,163.56532892708333,163.81372579166668,55.0,65.0
763,162.98840717708333,163.865007725,64.0,80.0
764,163.75763617708333,163.99160999791667,60.0,67.0
765,164.33455792708335,164.54128822083334,62.0,69.0
766,164.14225067708333,164.96756929166668,57.0,70.0
767,163.94994342708333,165.40026060416668,50.0,72.0
768,164.52686517708335,165.45635021875,65.0,68.0
769,165.29609417708335,166.03807965000001,69.0,87.0
770,165.87301592708334,166.12622047291669,62.0,69.0
771,165.68070867708335,166.28487395416667,57.0,71.0
772,166.06532317708334,166.88262898958334,65.0,70.0
773,166.64224492708334,166.88903923125,62.0,67.0
774,166.83455217708334,166.96756469166667,69.0,58.0
775,165.48840142708335,167.00602614166667,50.0,80.0
776,166.44993767708334,167.00762870208334,57.0,71.0
777,167.41147392708334,167.70955016458333,58.0,59.0
778,167.21916667708334,167.94833166666666,53.0,59.0
779,167.02685942708334,168.18711316875002,46.0,56.0
780,167.60378117708333,168.22397205833335,65.0,80.0
781,167.98839567708333,168.39704858333334,53.0,71.0
782,168.18070292708333,168.41467674791667,58.0,63.0
783,168.37301017708333,168.71275298541667,65.0,93.0
784,168.94993192708333,169.18550830833334,60.0,69.0
785,168.56531742708333,169.77044286041667,48.0,69.0
786,168.75762467708333,169.97717315416668,55.0,68.0
787,169.14223917708333,170.25121098541666,64.0,80.0
788,170.48838992708335,170.74960727500002,62.0,68.0
789,170.29608267708335,170.90505563541666,57.0,68.0
790,170.68069717708335,171.30249061875,69.0,85.0
791,170.10377542708335,171.45954153958334,50.0,80.0
792,171.25761892708334,171.49159274791668,62.0,67.0
793,171.06531167708334,171.56370796666667,57.0,66.0
794,171.44992617708334,171.97236087291668,65.0,69.0
795,172.02684792708334,172.20793725416667,62.0,59.0
796,172.21915517708334,172.50761605208334,64.0,71.0
797,171.83454067708334,172.75280779583335,57.0,68.0
798,171.64223342708334,172.78325644375,50.0,64.0
799,172.60376967708333,172.97556369375002,65.0,80.0
800,173.56530592708333,173.98838187708333,58.0,60.0
801,173.37299867708333,174.18068912708333,53.0,69.0
802,173.18069142708333,174.46434232083334,46.0,68.0
803,174.33453492708333,174.57812411041667,53.0,64.0
804,173.75761317708333,174.62139324166668,65.0,87.0
805,174.52684217708335,174.71754686666668,58.0,50.0
806,175.10376392708335,175.28325069375,60.0,69.0
807,174.91145667708335,175.72876248958335,55.0,67.0
808,174.71914942708335,176.01401824375,48.0,80.0
809,175.87299292708335,176.12138979166667,55.0,65.0
810,175.29607117708335,176.17267172500001,64.0,80.0
811,176.06530017708334,176.29927399791669,60.0,67.0
812,176.64222192708334,176.84895222083333,62.0,69.0
813,176.44991467708334,177.27523329166667,57.0,70.0
814,177.21914367708334,177.67106571458334,62.0,65.0
815,176.25760742708334,177.70792460416666,50.0,72.0
816,176.83452917708334,177.76401421875,65.0,68.0
817,177.60375817708334,178.34574365,69.0,87.0
818,178.18067992708333,178.43388447291667,62.0,69.0
819,177.98837267708333,178.59253795416666,57.0,71.0
820,178.37298717708333,179.19029298958333,65.0,70.0
821,178.94990892708333,179.19670323125,62.0,67.0
822,179.14221617708333,179.27522869166668,69.0,58.0
823,177.79606542708333,179.31369014166668,50.0,80.0
824,178.75760167708333,179.31529270208333,57.0,71.0
825,179.33452342708333,179.71593280625,58.0,68.0
826,179.33452342708333,179.91945797916668,65.0,87.0
827,179.91144517708335,180.19189325,58.0,93.0
828,179.33452342708333,180.74157147291666,46.0,80.0
829,179.71913792708335,180.77362268125,53.0,80.0
830,180.68067417708335,180.89221215208335,58.0,102.0
831,180.29605967708335,181.04766051250002,65.0,102.0
832,181.25759592708334,181.36496747500001,60.0,83.0
833,181.06528867708334,181.8938124125,55.0,68.0
834,181.83451767708334,182.12297855208334,60.0,102.0
835,180.87298142708335,182.38099077916667,48.0,93.0
836,182.21913217708334,182.38740102083335,60.0,93.0
837,182.02682492708334,182.39060614166667,55.0,80.0
838,182.41143942708334,182.81207953125,57.0,83.0
839,182.41143942708334,183.1245788125,64.0,87.0
840,182.98836117708333,183.29124509583335,57.0,83.0
841,183.37297567708333,183.55566756458333,60.0,103.0
842,182.41143942708334,183.61175717916666,45.0,87.0
843,182.79605392708334,183.61335973958333,52.0,69.0
844,183.56528292708333,183.82009003333334,57.0,95.0
845,183.75759017708333,183.95791022916669,60.0,87.0
846,183.94989742708333,184.364960575,62.0,95.0
847,184.33451192708333,184.7014982625,57.0,87.0
848,184.52681917708333,184.82970309583334,62.0,83.0
849,184.71912642708335,184.91624135833334,57.0,61.0
850,184.91143367708335,185.10854860833334,62.0,93.0
851,184.91143367708335,185.1630356625,65.0,90.0
852,183.94989742708333,185.28483025416668,50.0,80.0
853,185.10374092708335,185.28963793541666,57.0,68.0
854,185.29604817708335,185.53803480000002,62.0,93.0
855,186.06527717708335,186.44187887500001,58.0,93.0
856,185.68066267708335,186.48034032500001,53.0,34.0
857,185.48835542708335,186.749570475,46.0,65.0
858,186.44989167708334,186.84892922083333,62.0,93.0
859,186.64219892708334,186.86014714375,53.0,74.0
860,186.83450617708334,186.980339175,58.0,87.0
861,187.41142792708334,187.66463247291668,60.0,87.0
862,187.60373517708334,187.80726035,64.0,103.0
863,187.21912067708334,188.03802905,55.0,71.0
864,187.02681342708334,188.49796388958333,48.0,93.0
865,188.18065692708333,188.50757925208333,55.0,71.0
866,187.98834967708333,188.51238693333335,67.0,83.0
867,188.37296417708333,188.53642533958333,60.0,102.0
868,188.56527142708333,188.78001452291667,64.0,95.0
869,188.56527142708333,188.9995653,67.0,93.0
870,188.94988592708333,189.10693684791667,64.0,87.0
871,189.14219317708333,189.4322566125,67.0,105.0
872,189.52680767708333,189.75437125625,69.0,93.0
873,188.56527142708333,189.79123014583334,40.0,70.0
874,188.56527142708333,189.84251207916668,52.0,85.0
875,189.71911492708333,189.93866570416668,64.0,87.0
876,189.91142217708335,190.11174222916668,67.0,83.0
877,190.10372942708335,190.62456156250002,69.0,87.0
878,190.68065117708335,190.72392030833333,69.0,36.0
879,190.29603667708335,190.94186852500002,52.0,74.0
880,190.68065117708335,191.30244461875,64.0,102.0
881,191.25757292708334,191.50757235208334,57.0,95.0
882,191.44988017708334,191.58609781250001,64.0,93.0
883,191.06526567708335,191.69026423958334,52.0,93.0
884,190.10372942708335,191.69987960208334,45.0,93.0
885,191.64218742708334,192.05885313541668,58.0,72.0
886,191.64218742708334,192.30404487916667,62.0,93.0
887,192.21910917708334,192.62135184166667,58.0,103.0
888,191.64218742708334,192.94987672708334,46.0,74.0
889,192.02680192708334,193.04122267083335,53.0,69.0
890,192.60372367708334,193.05083803333335,65.0,85.0
891,192.98833817708334,193.11494045,58.0,87.0
892,193.56525992708333,193.85211824166666,60.0,74.0
893,193.37295267708333,194.51557825416668,55.0,63.0
894,193.18064542708333,194.57006530833334,48.0,87.0
895,194.33448892708333,194.65820613125,60.0,80.0
896,194.71910342708333,195.1245512125,57.0,93.0
897,194.71910342708333,195.518781075,64.0,80.0
898,195.29602517708335,195.71910112708335,57.0,102.0
899,195.68063967708335,195.89698533333333,60.0,95.0
900,194.71910342708333,196.09410026458335,45.0,93.0
901,195.10371792708335,196.15018987916667,52.0,74.0
902,195.87294692708335,196.15660012083333,57.0,93.0
903,196.06525417708335,196.44826611666667,60.0,83.0
904,196.64217592708334,196.89858559375,55.0,102.0
905,196.83448317708334,196.98512385625,59.0,103.0
906,197.21909767708334,197.38896908125,55.0,87.0
907,196.44986867708334,197.59249425416667,50.0,69.0
908,196.25756142708335,197.68384019791668,43.0,93.0
909,197.21909767708334,197.72390420833335,62.0,90.0
910,197.41140492708334,197.72550676875,55.0,69.0
911,197.79601942708334,198.16941600416666,55.0,85.0
912,197.79601942708334,198.26717218958333,58.0,72.0
913,198.37294117708333,198.6245431625,55.0,105.0
914,198.75755567708333,198.93704244375002,55.0,90.0
915,198.75755567708333,199.22870843958333,62.0,87.0
916,197.79601942708334,199.2463366041667,43.0,95.0
917,198.18063392708333,199.2559519666667,50.0,71.0
918,199.33447742708333,199.73351497083334,60.0,87.0
919,199.33447742708333,199.91941197916668,64.0,93.0
920,199.91139917708335,200.15659092083334,60.0,105.0
921,199.71909192708333,200.36171865416668,55.0,93.0
922,200.29601367708335,200.54120542083334,60.0,93.0
923,200.29601367708335,200.75755107708335,67.0,87.0
924,200.48832092708335,200.83126885625,55.0,87.0
925,199.33447742708333,200.84889702083333,48.0,87.0
926,200.68062817708335,200.85210214166668,60.0,102.0
927,200.87293542708335,201.27678065208335,63.0,83.0
928,200.87293542708335,201.48190838541666,70.0,74.0
929,200.87293542708335,201.61812602083333,39.0,102.0
930,201.25754992708335,201.69184380000002,46.0,68.0
931,201.44985717708335,201.8745356875,63.0,105.0
932,202.02677892708334,202.42421391041668,63.0,95.0
933,202.79600792708334,203.07966112083335,57.0,93.0
934,202.98831517708334,203.21587875625,61.0,105.0
935,202.60370067708334,203.41619880833335,52.0,68.0
936,203.37292967708333,203.56042924583335,57.0,102.0
937,203.37292967708333,203.62132654166666,64.0,103.0
938,203.75754417708333,203.86651828541667,57.0,105.0
939,202.41139342708334,203.90017205416666,45.0,85.0
940,203.56523692708333,203.903377175,52.0,87.0
941,203.94985142708333,204.36811969583334,58.0,71.0
942,203.94985142708333,204.57965767083334,62.0,80.0
943,204.52677317708333,204.93863120416668,58.0,103.0
944,203.94985142708333,205.01715666458335,46.0,71.0
945,204.33446592708333,205.07484883958335,53.0,74.0
946,204.91138767708333,205.18061782708335,65.0,93.0
947,205.10369492708335,205.3360661875,58.0,93.0
948,205.29600217708335,205.56843744791666,65.0,93.0
949,205.87292392708335,206.13093615416668,60.0,80.0
950,205.68061667708335,206.48670456666667,55.0,80.0
951,206.44984567708335,206.67260157500002,60.0,83.0
952,205.48830942708335,206.76234495833333,48.0,87.0
953,206.64215292708334,206.80401152916667,55.0,68.0
954,207.02676742708334,207.42740753125,57.0,87.0
955,207.02676742708334,207.4706766625,60.0,90.0
956,207.60368917708334,207.72227864791668,57.0,103.0
957,207.98830367708334,208.15176483958334,57.0,102.0
958,208.18061092708334,208.35849513333335,60.0,74.0
959,207.41138192708334,208.41778986875002,52.0,61.0
960,207.02676742708334,208.41939242916666,45.0,95.0
961,208.37291817708333,208.5475972625,57.0,102.0
962,208.56522542708333,208.81362229166666,65.0,83.0
963,208.75753267708333,208.98189113541667,57.0,95.0
964,208.94983992708333,209.15657022083334,62.0,93.0
965,209.14214717708333,209.44503109583334,65.0,110.0
966,208.56522542708333,209.89855569375,50.0,80.0
967,209.71906892708333,209.91618385833334,62.0,103.0
968,209.91137617708333,210.22547801875,57.0,102.0
969,210.48829792708335,210.72227174791666,55.0,102.0
970,210.68060517708335,210.94663020625,62.0,102.0
971,211.06521967708335,211.23348852083333,58.0,102.0
972,211.44983417708335,211.53637243958335,55.0,102.0
973,210.29599067708335,211.55239804375,50.0,72.0
974,210.10368342708335,211.55560316458335,43.0,90.0
975,211.64214142708335,211.8568845229167,55.0,95.0
976,211.64214142708335,212.04278153125,60.0,93.0
977,212.02675592708334,212.13573003541669,55.0,93.0
978,212.21906317708334,212.47226772291668,55.0,80.0
979,212.21906317708334,212.6245109625,64.0,95.0
980,212.60367767708334,212.65976729166667,55.0,85.0
981,211.64214142708335,212.66938265416667,48.0,102.0
982,212.60367767708334,212.77034396041668,60.0,85.0
983,213.18059942708334,213.56040624583335,60.0,93.0
984,213.18059942708334,213.77354678125002,65.0,87.0
985,213.75752117708333,213.96264891041668,60.0,105.0
986,214.14213567708333,214.31200708125002,60.0,103.0
987,214.14213567708333,214.39534022291667,69.0,93.0
988,213.18059942708334,214.5475834625,41.0,87.0
989,214.33444292708333,214.57482698958333,65.0,68.0
990,213.56521392708333,214.60848075833334,48.0,61.0
991,214.52675017708333,214.7206599875,60.0,105.0
992,214.71905742708333,215.32162014375,43.0,102.0
993,214.91136467708333,215.36649183541667,50.0,68.0
994,215.29597917708335,215.54117092083334,58.0,93.0
995,215.87290092708335,216.12290035208335,57.0,85.0
996,215.48828642708335,216.13251571458335,45.0,93.0
997,215.68059367708335,216.15975924166668,52.0,68.0
998,216.06520817708335,216.19181045000002,61.0,87.0
999,216.83443717708334,217.08123148125,58.0,95.0
1000,216.25751542708335,217.37610259791668,46.0,93.0
1001,217.21905167708334,217.39052564166667,58.0,87.0
1002,216.64212992708335,217.41776916875,53.0,83.0
1003,217.21905167708334,217.44341013541668,62.0,93.0
1004,217.79597342708334,218.1629597625,60.0,85.0
1005,217.79597342708334,218.37610029791668,64.0,93.0
1006,218.18058792708334,218.81039417083335,55.0,68.0
1007,217.79597342708334,218.82481721458333,48.0,85.0
1008,218.75750967708333,218.98186813541668,60.0,87.0
1009,219.33443142708333,219.73026385,57.0,83.0
1010,219.33443142708333,219.94500694583334,60.0,80.0
1011,219.91135317708333,220.13891675625,57.0,102.0
1012,220.29596767708335,220.52192869583334,57.0,80.0
1013,220.29596767708335,220.53154405833334,64.0,103.0
1014,220.48827492708335,220.711030825,60.0,83.0
1015,219.33443142708333,220.73506923125,45.0,87.0
1016,219.71904592708333,220.76231275833334,52.0,61.0
1017,220.68058217708335,220.88410735,57.0,95.0
1018,220.87288942708335,221.13570933541666,55.0,80.0
1019,220.87288942708335,221.33122170625,62.0,80.0
1020,221.25750392708335,221.48667006666668,55.0,105.0
1021,221.44981117708335,221.68538755833333,59.0,95.0
1022,221.06519667708335,221.9145536979167,50.0,72.0
1023,221.83442567708335,222.03314316875,55.0,95.0
1024,221.83442567708335,222.12128399166667,62.0,93.0
1025,220.87288942708335,222.19019408958334,43.0,93.0
1026,222.21904017708334,222.45782167916667,55.0,105.0
1027,222.79596192708334,223.07961512083335,58.0,67.0
1028,222.60365467708334,223.44980657708334,53.0,70.0
1029,222.41134742708334,223.634101025,46.0,102.0
1030,223.56519092708334,223.80717755,53.0,93.0
1031,222.98826917708334,223.80717755,62.0,80.0
1032,223.75749817708333,223.9225619,58.0,93.0
1033,224.33441992708333,224.51230413333334,60.0,93.0
1034,224.14211267708333,224.6212782416667,55.0,74.0
1035,224.52672717708333,224.7462779541667,64.0,103.0
1036,224.71903442708333,224.92736728125,55.0,65.0
1037,223.94980542708333,225.01230298333334,48.0,93.0
1038,224.91134167708333,225.03153370833334,60.0,93.0
1039,224.91134167708333,225.15973854166668,64.0,105.0
1040,225.10364892708333,225.24307168333334,60.0,72.0
1041,225.48826342708335,225.88569841041667,62.0,85.0
1042,225.48826342708335,226.07960822083334,65.0,95.0
1043,226.06518517708335,226.20941561458335,62.0,93.0
1044,225.48826342708335,226.48665856666668,38.0,87.0
1045,225.87287792708335,226.51390209375,45.0,59.0
1046,226.44979967708335,226.58922243333333,62.0,80.0
1047,226.44979967708335,226.61967108125,69.0,95.0
1048,227.02672142708334,227.441784575,62.0,80.0
1049,227.02672142708334,227.56518172708334,65.0,87.0
1050,227.60364317708334,227.85043748125,62.0,95.0
1051,227.41133592708334,228.03793705,57.0,67.0
1052,227.98825767708334,228.20620589375,62.0,102.0
1053,227.98825767708334,228.25428270625,65.0,102.0
1054,228.37287217708334,228.50267957083335,62.0,102.0
1055,227.02672142708334,228.55235894375,50.0,87.0
1056,228.18056492708334,228.55876918541668,57.0,74.0
1057,228.56517942708334,229.15652422083335,62.0,80.0
1058,228.56517942708334,229.557164325,46.0,63.0
1059,229.14210117708333,229.57799761041667,58.0,83.0
1060,228.94979392708333,229.61966418125002,53.0,59.0
1061,229.52671567708333,229.7590869375,65.0,87.0
1062,230.10363742708333,231.45619841875,48.0,74.0
1063,230.10363742708333,231.56196740625,60.0,68.0
1064,230.10363742708333,231.99305615833333,64.0,69.0
1065,232.02670992708335,232.46901660208334,57.0,67.0
1066,232.21901717708334,232.62927264375,60.0,85.0
1067,231.83440267708335,232.80715685,52.0,68.0
1068,231.64209542708335,232.87606694791668,45.0,74.0
1069,232.79593892708334,232.9321565625,57.0,68.0
1070,233.18055342708334,233.76388541875,65.0,87.0
1071,233.56516792708334,233.826385275,57.0,71.0
1072,233.18055342708334,234.2302305,50.0,72.0
1073,233.75747517708334,234.28632011458333,64.0,87.0
1074,234.14208967708333,234.51388369375002,57.0,65.0
1075,234.33439692708333,235.26868965,62.0,72.0
1076,235.29593317708333,235.79112434583334,55.0,74.0
1077,235.68054767708335,235.89208565208335,58.0,93.0
1078,235.10362592708333,236.057149375,50.0,61.0
1079,234.71901142708333,236.0763801,43.0,87.0
1080,235.87285492708335,236.16452092291667,62.0,70.0
1081,236.25746942708335,236.50907141250002,55.0,74.0
1082,236.25746942708335,236.74464779375,60.0,68.0
1083,236.64208392708335,236.84080141875,55.0,68.0
1084,236.83439117708335,237.2222107979167,64.0,95.0
1085,237.21900567708335,237.59720993541669,60.0,87.0
1086,237.41131292708334,237.78470950416667,55.0,85.0
1087,236.25746942708335,237.80394022916667,48.0,71.0
1088,237.79592742708334,238.17573424583335,60.0,93.0
1089,237.79592742708334,238.38887478125,65.0,87.0
1090,238.37284917708334,238.57797691041668,60.0,105.0
1091,238.75746367708334,238.92733508125002,60.0,103.0
1092,238.75746367708334,239.01066822291668,69.0,93.0
1093,237.79592742708334,239.1629114625,41.0,87.0
1094,238.94977092708334,239.19015498958333,65.0,68.0
1095,238.18054192708334,239.22380875833335,48.0,61.0
1096,239.14207817708333,239.3359879875,60.0,105.0
1097,239.33438542708333,239.93694814375002,43.0,102.0
1098,239.52669267708333,239.98181983541667,50.0,68.0
1099,239.91130717708333,240.15649892083334,58.0,93.0
1100,240.48822892708333,240.73822835208335,57.0,85.0
1101,240.10361442708333,240.74784371458335,45.0,93.0
1102,240.29592167708333,240.77508724166668,52.0,68.0
1103,240.68053617708335,240.80713845,61.0,87.0
1104,241.44976517708335,241.69655948125,58.0,95.0
1105,240.87284342708335,241.99143059791666,46.0,93.0
1106,241.83437967708335,242.00585364166668,58.0,87.0
1107,241.25745792708335,242.03309716875,53.0,83.0
1108,241.83437967708335,242.05873813541666,62.0,93.0
1109,242.41130142708334,242.7782877625,60.0,85.0
1110,242.41130142708334,242.99142829791668,64.0,93.0
1111,242.79591592708334,243.42572217083335,55.0,68.0
1112,242.41130142708334,243.44014521458334,48.0,85.0
1113,243.37283767708334,243.56193980625,64.0,93.0
1114,243.94975942708334,244.34559185,57.0,83.0
1115,243.94975942708334,244.56033494583335,60.0,80.0
1116,244.52668117708333,244.75424475625002,57.0,102.0
1117,244.91129567708333,245.13725669583334,57.0,80.0
1118,244.91129567708333,245.14687205833334,64.0,103.0
1119,245.10360292708333,245.326358825,60.0,83.0
1120,243.94975942708334,245.35039723125,45.0,87.0
1121,244.33437392708333,245.37764075833334,52.0,61.0
1122,245.29591017708333,245.49943535,57.0,95.0
1123,245.48821742708333,245.75103733541667,55.0,80.0
1124,245.48821742708333,245.94654970625,62.0,80.0
1125,245.87283192708335,246.10199806666668,55.0,105.0
1126,246.06513917708335,246.30071555833334,59.0,95.0
1127,245.68052467708335,246.52988169791666,50.0,72.0
1128,246.44975367708335,246.64847116875,55.0,95.0
1129,246.44975367708335,246.73661199166668,62.0,93.0
1130,245.48821742708333,246.80552208958335,43.0,93.0
1131,246.83436817708335,247.07314967916668,55.0,105.0
1132,247.41128992708335,247.69494312083333,58.0,67.0
1133,247.21898267708335,248.06513457708334,53.0,70.0
1134,247.02667542708335,248.249429025,46.0,102.0
1135,248.18051892708334,248.42250555,53.0,93.0
1136,247.60359717708334,248.42250555,62.0,80.0
1137,248.37282617708334,248.5378899,58.0,93.0
1138,248.94974792708334,249.12763213333335,60.0,93.0
1139,248.75744067708334,249.23660624166666,55.0,74.0
1140,249.14205517708334,249.36160595416666,64.0,103.0
1141,249.33436242708333,249.54269528125002,55.0,65.0
1142,248.56513342708334,249.62763098333335,48.0,93.0
1143,249.52666967708333,249.64686170833335,60.0,93.0
1144,249.52666967708333,249.77506654166666,64.0,105.0
1145,249.71897692708333,249.85839968333335,60.0,72.0
1146,250.10359142708333,250.50102641041667,62.0,85.0
1147,250.10359142708333,250.69493622083334,65.0,95.0
1148,250.68051317708333,250.82474361458335,62.0,93.0
1149,250.10359142708333,251.10198656666668,38.0,87.0
1150,250.48820592708333,251.12923009375,45.0,59.0
1151,251.06512767708335,251.20455043333334,62.0,80.0
1152,251.06512767708335,251.23499908125,69.0,95.0
1153,251.64204942708335,252.05711257500002,62.0,80.0
1154,251.64204942708335,252.18050972708335,65.0,87.0
1155,252.21897117708335,252.46576548125,62.0,95.0
1156,252.02666392708335,252.65326505000002,57.0,67.0
1157,252.60358567708334,252.82153389375,62.0,102.0
1158,252.60358567708334,252.86961070625,65.0,102.0
1159,252.98820017708334,253.11800757083333,62.0,102.0
1160,251.64204942708335,253.16768694375,50.0,87.0
1161,252.79589292708334,253.17409718541668,57.0,74.0
1162,253.75742917708334,254.15646672083335,58.0,72.0
1163,253.18050742708334,254.20294097291668,46.0,67.0
1164,253.56512192708334,254.2301845,53.0,74.0
1165,254.14204367708334,254.26704338958334,62.0,70.0
1166,254.71896542708333,255.28306669375002,64.0,69.0
1167,255.10357992708333,255.84877052083334,55.0,68.0
1168,254.71896542708333,255.88723197083334,48.0,74.0
1169,256.6420379270833,256.85037078125004,57.0,71.0
1170,256.8343451770833,257.24299808333336,60.0,90.0
1171,256.2574234270833,257.42248485,45.0,83.0
1172,256.4497306770833,257.4304976520833,52.0,68.0
1173,257.2189596770833,257.5010103104167,64.0,103.0
1174,257.4112669270833,257.6115869791667,57.0,69.0
1175,258.37280317708337,258.77344328125,62.0,74.0
1176,258.1804959270833,258.9994043,57.0,68.0
1177,257.7958814270833,259.02344270625,50.0,80.0
1178,258.75741767708337,259.2910702958333,65.0,83.0
1179,259.71895392708336,259.96574823125,58.0,64.0
1180,259.52664667708336,260.18049132708336,53.0,53.0
1181,259.33433942708336,260.3952344229167,46.0,80.0
1182,259.91126117708336,260.5154264541667,62.0,90.0
1183,260.29587567708336,260.6452338479167,53.0,70.0
1184,260.48818292708336,260.69972090208336,58.0,63.0
1185,260.87279742708336,261.35997579375,60.0,66.0
1186,260.87279742708336,261.52664207708335,64.0,71.0
1187,261.25741192708335,261.8760002479167,55.0,70.0
1188,260.87279742708336,261.9336924229167,48.0,74.0
1189,262.02664092708335,262.08914078333333,48.0,18.0
1190,262.02664092708335,262.31349924166665,55.0,85.0
1191,262.98817717708334,263.42567617083336,62.0,87.0
1192,262.41125542708335,263.75420105625,50.0,90.0
1193,262.79586992708334,263.9096494166667,57.0,68.0
1194,263.94971342708334,265.47535094375,62.0,1.0
1195,263.94971342708334,265.56188920625,50.0,74.0
1196,263.56509892708334,265.56509432708333,65.0,66.0
1197,263.94971342708334,265.59073529375,74.0,64.0
1198,263.37279167708334,265.6019532166667,69.0,87.0
