,start,end,pitch,velocity
0,18.776924641666668,18.886540035416665,67.0,73.0
1,19.007693891666666,19.225001602083335,67.0,73.0
2,19.238463141666667,19.369232383333333,62.0,55.0
3,19.469232391666665,19.62115548125,62.0,67.0
4,19.700001641666667,19.798078572916666,69.0,71.0
5,19.930770891666665,20.046155516666666,69.0,85.0
6,20.161540141666666,20.27884784375,67.0,70.0
7,20.392309391666668,20.732694035416667,69.0,111.0
8,20.853847891666668,20.980770979166667,69.0,74.0
9,21.084617141666666,21.348078702083335,69.0,75.0
10,21.546155641666665,21.6807710375,67.0,86.0
11,21.776924891666667,21.903847979166667,66.0,61.0
12,22.007694141666665,22.386540327083335,67.0,75.0
13,22.469232641666668,22.567309572916667,67.0,64.0
14,22.700001891666666,22.840386518749998,67.0,73.0
15,22.930771141666668,23.051924997916668,62.0,60.0
16,23.161540391666666,23.294232710416665,62.0,63.0
17,23.392309641666667,23.488463495833333,69.0,69.0
18,23.623078891666665,23.76346351875,69.0,85.0
19,23.853848141666667,23.975001997916667,67.0,66.0
20,24.084617391666665,24.405771264583333,69.0,104.0
21,24.54615589166667,24.65192513125,69.0,70.0
22,24.776925141666666,25.075002089583332,69.0,74.0
23,25.238463641666666,25.3846175,67.0,98.0
24,25.469232891666667,25.62115598125,66.0,63.0
25,25.700002141666666,25.930771391666667,67.0,83.0
26,26.161540641666665,26.240386802083332,67.0,75.0
27,26.392309891666667,26.617309910416665,67.0,76.0
28,26.623079141666665,26.784617616666665,62.0,74.0
29,27.084617641666668,27.175002264583334,69.0,70.0
30,26.853848391666666,27.22500226875,67.0,95.0
31,27.315386891666666,27.575002297916665,69.0,81.0
32,27.546156141666668,27.717310002083334,67.0,70.0
33,27.776925391666666,28.169233116666668,74.0,73.0
34,28.238463891666665,28.496156220833335,74.0,72.0
35,28.469233141666667,28.751925472916668,69.0,67.0
36,28.930771641666666,29.207694741666668,71.0,72.0
37,29.161540891666668,29.4115409125,69.0,73.0
38,29.392310141666666,29.940387110416665,67.0,83.0
39,29.853848641666666,29.940387110416665,67.0,81.0
40,30.084617891666667,30.24807944375,67.0,77.0
41,30.315387141666665,30.4961563875,62.0,72.0
42,30.546156391666667,30.682694864583333,67.0,83.0
43,30.776925641666665,30.89423334375,69.0,70.0
44,31.007694891666667,31.144233364583332,69.0,75.0
45,31.238464141666668,31.363464152083335,67.0,72.0
46,31.469233391666666,32.17692575833333,69.0,83.0
47,32.16154114166667,32.17692575833333,69.0,86.0
48,32.39231039166667,32.55384886666667,69.0,93.0
49,32.62307964166666,33.026925829166665,71.0,79.0
50,33.31538739166667,33.701925885416664,69.0,87.0
51,34.007695141666666,36.101926085416665,67.0,81.0
52,36.084618391666666,36.101926085416665,67.0,95.0
53,36.31538764166667,36.60577228125,69.0,69.0
54,36.54615689166667,36.66346459375,71.0,85.0
55,36.776926141666664,36.88077230416667,72.0,76.0
56,37.007695391666665,37.76731083958333,74.0,90.0
57,37.930772391666665,38.551926289583335,67.0,104.0
58,38.39231089166667,38.644233989583334,69.0,87.0
59,38.853849391666664,39.55961868125,69.0,98.0
60,39.77692639166666,40.02115718125,66.0,73.0
61,40.007695641666665,40.27692643333333,67.0,86.0
62,40.238464891666666,40.434618754166664,69.0,74.0
63,40.46923414166667,40.71154185416667,62.0,59.0
64,40.70000339166667,41.06346496041667,74.0,87.0
65,41.62308039166667,41.99038811458333,69.0,85.0
66,42.084618891666665,42.505772772916664,71.0,98.0
67,42.54615739166667,43.384619,67.0,95.0
68,43.46923439166667,43.757695954166664,67.0,77.0
69,43.70000364166667,43.940388277083336,69.0,65.0
70,43.93077289166666,44.1576959875,71.0,74.0
71,44.161542141666665,44.34808061875,67.0,72.0
72,44.39231139166667,45.192311458333336,74.0,95.0
73,45.315388391666666,45.673080729166664,67.0,90.0
74,45.77692689166667,46.05192691458333,69.0,76.0
75,46.238465391666665,46.8576962125,69.0,93.0
76,46.93077314166667,47.02885007291667,66.0,63.0
77,47.161542391666664,47.29038855625,66.0,69.0
78,47.392311641666666,47.51346549791667,67.0,74.0
79,47.62308089166667,47.97308092083333,69.0,81.0
80,48.08461939166666,48.43269634375,72.0,93.0
81,48.54615789166667,48.65385020833333,71.0,66.0
82,48.77692714166667,48.87115791875,69.0,72.0
83,49.00769639166667,49.17500409791667,69.0,76.0
84,49.238465641666664,49.369234883333334,67.0,66.0
85,49.469234891666666,49.72692722083333,71.0,93.0
86,49.93077339166667,50.33269650208333,69.0,79.0
87,50.62308114166667,50.7576965375,62.0,62.0
88,50.85385039166667,51.007696558333336,74.0,72.0
89,51.08461964166666,51.192311958333335,72.0,63.0
90,51.315388891666665,51.48654275208333,71.0,75.0
91,51.546158141666666,51.655773535416664,69.0,61.0
92,51.77692739166667,51.97500433125,69.0,85.0
93,52.00769664166667,52.27308127916667,71.0,66.0
94,52.469235141666665,52.61923515416667,71.0,76.0
95,52.70000439166667,52.803850554166665,74.0,75.0
96,52.93077364166667,53.051927497916665,76.0,73.0
97,53.16154289166666,53.2500044375,74.0,73.0
98,53.392312141666665,53.49038907291666,76.0,72.0
99,53.623081391666666,53.95385065,74.0,87.0
100,53.85385064166667,54.11731220208333,69.0,79.0
101,54.315389141666664,54.471158385416665,69.0,63.0
102,54.546158391666665,54.72308148333333,79.0,95.0
103,54.77692764166667,54.87885072708333,78.0,86.0
104,55.00769689166667,55.098081514583335,79.0,85.0
105,55.23846614166666,55.31923537916666,78.0,77.0
106,55.469235391666665,55.60769694166667,76.0,75.0
107,55.93077389166667,56.4115431625,79.0,93.0
108,56.392312391666664,56.57115856041666,78.0,79.0
109,56.623081641666666,56.9423124375,74.0,79.0
110,57.31538939166666,57.794235585416665,71.0,93.0
111,58.00769714166667,58.153851,71.0,77.0
112,58.23846639166667,58.39231255833333,79.0,87.0
113,58.469235641666664,58.588466420833335,78.0,69.0
114,58.700004891666666,58.90769721666667,79.0,85.0
115,58.93077414166667,59.03269722708333,78.0,67.0
116,59.16154339166667,59.7115434375,76.0,76.0
117,59.623081891666665,60.10000500833333,79.0,108.0
118,60.08462039166667,60.2653896375,78.0,76.0
119,60.546158891666664,60.719235829166664,74.0,77.0
120,60.776928141666666,61.29808203125,71.0,93.0
121,61.700005141666665,61.792312841666664,71.0,90.0
122,61.93077439166667,62.04423593958333,71.0,95.0
123,62.16154364166667,62.26346672708333,69.0,72.0
124,62.39231289166667,62.50962059375,69.0,79.0
125,62.623082141666664,62.709620610416664,71.0,93.0
126,62.853851391666666,63.23462065416667,71.0,95.0
127,63.31538989166667,63.41346682291667,69.0,73.0
128,63.546159141666664,63.846159166666666,69.0,74.0
129,64.00769764166667,64.13654380625,67.0,64.0
130,64.23846689166666,64.51538999166667,71.0,93.0
131,64.70000539166666,65.32692852083333,69.0,98.0
132,65.39231314166666,65.5269285375,62.0,62.0
133,65.62308239166667,65.77692855833334,74.0,72.0
134,65.85385164166667,65.96154395833334,72.0,63.0
135,66.08462089166666,66.25577475208333,71.0,75.0
136,66.31539014166667,66.42500553541667,69.0,61.0
137,66.54615939166666,66.74423633125,69.0,85.0
138,66.77692864166667,67.04231327916666,71.0,66.0
139,67.23846714166666,67.38846715416666,71.0,76.0
140,67.46923639166667,67.57308255416666,74.0,75.0
141,67.70000564166666,67.82115949791667,76.0,73.0
142,67.93077489166667,68.0192364375,74.0,73.0
143,68.16154414166667,68.25962107291667,76.0,72.0
144,68.39231339166666,68.72308265,74.0,87.0
145,68.62308264166667,68.88654420208333,69.0,79.0
146,69.08462114166667,69.24039038541666,69.0,63.0
147,69.31539039166667,69.49231348333333,79.0,95.0
148,69.54615964166666,69.64808272708333,78.0,86.0
149,69.77692889166667,69.86731351458333,79.0,85.0
150,70.00769814166667,70.08846737916667,78.0,77.0
151,70.23846739166666,70.37692894166666,76.0,75.0
152,70.70000589166666,71.1807751625,79.0,93.0
153,71.16154439166667,71.34039056041667,78.0,79.0
154,71.39231364166666,71.7115444375,74.0,79.0
155,72.08462139166667,72.56346758541666,71.0,93.0
156,72.77692914166667,72.923083,71.0,77.0
157,73.00769839166666,73.16154455833333,79.0,87.0
158,73.23846764166666,73.35769842083333,78.0,69.0
159,73.46923689166667,73.67692921666666,79.0,85.0
160,73.70000614166666,73.80192922708333,78.0,67.0
161,73.93077539166667,74.4807754375,76.0,76.0
162,74.39231389166666,74.86923700833333,79.0,108.0
163,74.85385239166666,75.0346216375,78.0,76.0
164,75.31539089166667,75.48846782916667,74.0,77.0
165,75.54616014166666,76.06731403124999,71.0,93.0
166,76.46923714166667,76.56154484166666,71.0,90.0
167,76.70000639166666,76.81346793958333,71.0,95.0
168,76.93077564166667,77.03269872708333,69.0,72.0
169,77.16154489166667,77.27885259375,69.0,79.0
170,77.39231414166666,77.47885261041667,71.0,93.0
171,77.62308339166667,78.00385265416666,71.0,95.0
172,77.85385264166666,78.03654496458333,69.0,85.0
173,78.31539114166667,78.42308345833334,69.0,83.0
174,78.54616039166666,78.65962193958333,69.0,95.0
175,78.77692964166667,78.94808350208334,69.0,85.0
176,79.23846814166667,79.33846815,69.0,79.0
177,79.46923739166667,79.86539127083333,71.0,95.0
178,80.16154514166666,80.53269901875,69.0,90.0
179,80.85385289166666,81.18077599583333,69.0,93.0
180,81.31539139166667,83.22500693541667,67.0,90.0
181,96.31539264166666,96.42500803541667,67.0,73.0
182,96.54616189166667,96.76346960208333,67.0,73.0
183,96.77693114166667,96.90770038333334,62.0,55.0
184,97.00770039166666,97.15962348125,62.0,67.0
185,97.23846964166667,97.33654657291666,69.0,71.0
186,97.46923889166666,97.58462351666667,69.0,85.0
187,97.70000814166667,97.81731584375,67.0,70.0
188,97.93077739166667,98.27116203541667,69.0,111.0
189,98.39231589166667,98.51923897916667,69.0,74.0
190,98.62308514166666,98.88654670208334,69.0,75.0
191,99.08462364166667,99.2192390375,67.0,86.0
192,99.31539289166666,99.44231597916666,66.0,61.0
193,99.54616214166667,99.92500832708333,67.0,75.0
194,100.00770064166666,100.10577757291667,67.0,64.0
195,100.23846989166667,100.37885451875,67.0,73.0
196,100.46923914166666,100.59039299791667,62.0,60.0
197,100.70000839166667,100.83270071041666,62.0,63.0
198,100.93077764166667,101.02693149583334,69.0,69.0
199,101.16154689166666,101.30193151875,69.0,85.0
200,101.39231614166667,101.51346999791667,67.0,66.0
201,101.62308539166666,101.94423926458333,69.0,104.0
202,102.08462389166667,102.19039313125,69.0,70.0
203,102.31539314166666,102.61347008958333,69.0,74.0
204,102.77693164166666,102.9230855,67.0,98.0
205,103.00770089166667,103.15962398125,66.0,63.0
206,103.23847014166667,103.46923939166666,67.0,83.0
207,103.70000864166667,103.77885480208333,67.0,75.0
208,103.93077789166666,104.15577791041666,67.0,76.0
209,104.16154714166666,104.32308561666666,62.0,74.0
210,104.62308564166666,104.71347026458334,69.0,70.0
211,104.39231639166667,104.76347026875,67.0,95.0
212,104.85385489166667,105.11347029791666,69.0,81.0
213,105.08462414166667,105.25577800208333,67.0,70.0
214,105.31539339166666,105.70770111666667,74.0,73.0
215,105.77693189166666,106.03462422083334,74.0,72.0
216,106.00770114166667,106.29039347291666,69.0,67.0
217,106.46923964166666,106.74616274166667,71.0,72.0
218,106.70000889166667,106.9500089125,69.0,73.0
219,106.93077814166666,107.47885511041666,67.0,83.0
220,107.39231664166667,107.47885511041666,67.0,81.0
221,107.62308589166666,107.78654744375,67.0,77.0
222,107.85385514166667,108.0346243875,62.0,72.0
223,108.08462439166667,108.22116286458333,67.0,83.0
224,108.31539364166666,108.43270134375,69.0,70.0
225,108.54616289166667,108.68270136458334,69.0,75.0
226,108.77693214166666,108.90193215208333,67.0,72.0
227,109.00770139166667,109.71539375833333,69.0,83.0
228,109.70000914166667,109.71539375833333,69.0,86.0
229,109.93077839166666,110.09231686666666,69.0,93.0
230,110.16154764166667,110.56539382916667,71.0,79.0
231,110.85385539166667,111.24039388541667,69.0,87.0
232,111.54616314166667,113.64039408541666,67.0,81.0
233,113.62308639166666,113.64039408541666,67.0,95.0
234,113.85385564166667,114.14424028125,69.0,69.0
235,114.08462489166666,114.20193259375,71.0,85.0
236,114.31539414166667,114.41924030416666,72.0,76.0
237,114.54616339166667,115.30577883958333,74.0,90.0
238,115.46924039166666,116.09039428958333,67.0,104.0
239,115.93077889166666,116.18270198958334,69.0,87.0
240,116.39231739166667,117.09808668125,69.0,98.0
241,117.31539439166667,117.55962518125,66.0,73.0
242,117.54616364166667,117.81539443333334,67.0,86.0
243,117.77693289166666,117.97308675416667,69.0,74.0
244,118.00770214166667,118.25000985416666,62.0,59.0
245,118.23847139166666,118.60193296041666,74.0,87.0
246,119.16154839166667,119.52885611458333,69.0,85.0
247,119.62308689166666,120.04424077291667,71.0,98.0
248,120.08462539166666,120.923087,67.0,95.0
249,121.00770239166667,121.29616395416667,67.0,77.0
250,121.23847164166666,121.47885627708334,69.0,65.0
251,121.46924089166667,121.6961639875,71.0,74.0
252,121.70001014166667,121.88654861875,67.0,72.0
253,121.93077939166666,122.73077945833333,74.0,95.0
254,122.85385639166667,123.21154872916667,67.0,90.0
255,123.31539489166667,123.59039491458333,69.0,76.0
256,123.77693339166666,124.3961642125,69.0,93.0
257,124.46924114166667,124.56731807291666,66.0,63.0
258,124.70001039166667,124.82885655625,66.0,69.0
259,124.93077964166666,125.05193349791666,67.0,74.0
260,125.16154889166667,125.51154892083333,69.0,81.0
261,125.62308739166667,125.97116434375,72.0,93.0
262,126.08462589166666,126.19231820833333,71.0,66.0
263,126.31539514166667,126.40962591875,69.0,72.0
264,126.54616439166666,126.71347209791666,69.0,76.0
265,126.77693364166666,126.90770288333333,67.0,66.0
266,127.00770289166667,127.26539522083333,71.0,93.0
267,127.46924139166667,127.87116450208333,69.0,79.0
268,128.16154914166665,128.2961645375,62.0,62.0
269,128.39231839166666,128.54616455833334,74.0,72.0
270,128.62308764166667,128.73077995833333,72.0,63.0
271,128.85385689166665,129.02501075208335,71.0,75.0
272,129.08462614166666,129.19424153541667,69.0,61.0
273,129.31539539166667,129.51347233125,69.0,85.0
274,129.54616464166668,129.81154927916666,71.0,66.0
275,130.00770314166667,130.15770315416665,71.0,76.0
276,130.23847239166668,130.34231855416667,74.0,75.0
277,130.46924164166666,130.59039549791666,76.0,73.0
278,130.70001089166666,130.7884724375,74.0,73.0
279,130.93078014166667,131.02885707291668,76.0,72.0
280,131.16154939166665,131.49231865,74.0,87.0
281,131.39231864166666,131.65578020208332,69.0,79.0
282,131.85385714166668,132.00962638541665,69.0,63.0
283,132.08462639166666,132.26154948333334,79.0,95.0
284,132.31539564166667,132.41731872708334,78.0,86.0
285,132.54616489166668,132.63654951458332,79.0,85.0
286,132.77693414166666,132.85770337916668,78.0,77.0
287,133.00770339166667,133.14616494166665,76.0,75.0
288,133.46924189166666,133.9500111625,79.0,93.0
289,133.93078039166667,134.10962656041667,78.0,79.0
290,134.16154964166665,134.4807804375,74.0,79.0
291,134.85385739166668,135.33270358541665,71.0,93.0
292,135.54616514166668,135.692319,71.0,77.0
293,135.77693439166666,135.93078055833334,79.0,87.0
294,136.00770364166667,136.12693442083332,78.0,69.0
295,136.23847289166667,136.44616521666666,79.0,85.0
296,136.46924214166665,136.57116522708333,78.0,67.0
297,136.70001139166666,137.2500114375,76.0,76.0
298,137.16154989166665,137.63847300833334,79.0,108.0
299,137.62308839166667,137.8038576375,78.0,76.0
300,138.08462689166666,138.25770382916667,74.0,77.0
301,138.31539614166667,138.83655003125,71.0,93.0
302,139.23847314166667,139.33078084166667,71.0,90.0
303,139.46924239166665,139.58270393958333,71.0,95.0
304,139.70001164166666,139.80193472708334,69.0,72.0
305,139.93078089166667,140.04808859375,69.0,79.0
306,140.16155014166665,140.24808861041666,71.0,93.0
307,140.39231939166666,140.77308865416666,71.0,95.0
308,140.85385789166668,140.95193482291666,69.0,73.0
309,141.08462714166666,141.38462716666666,69.0,74.0
310,141.54616564166668,141.67501180625,67.0,64.0
311,141.77693489166666,142.05385799166666,71.0,93.0
312,142.23847339166667,142.86539652083334,69.0,98.0
313,142.93078114166667,143.0653965375,62.0,62.0
314,143.16155039166668,143.31539655833333,74.0,72.0
315,143.39231964166666,143.50001195833335,72.0,63.0
316,143.62308889166667,143.79424275208333,71.0,75.0
317,143.85385814166668,143.96347353541665,69.0,61.0
318,144.08462739166666,144.28270433125,69.0,85.0
319,144.31539664166667,144.58078127916667,71.0,66.0
320,144.77693514166666,144.92693515416667,71.0,76.0
321,145.00770439166666,145.11155055416666,74.0,75.0
322,145.23847364166667,145.35962749791668,76.0,73.0
323,145.46924289166665,145.5577044375,74.0,73.0
324,145.70001214166666,145.79808907291667,76.0,72.0
325,145.93078139166667,146.26155065,74.0,87.0
326,146.16155064166668,146.42501220208334,69.0,79.0
327,146.62308914166667,146.77885838541667,69.0,63.0
328,146.85385839166668,147.03078148333333,79.0,95.0
329,147.08462764166666,147.18655072708333,78.0,86.0
330,147.31539689166667,147.40578151458334,79.0,85.0
331,147.54616614166667,147.62693537916667,78.0,77.0
332,147.77693539166665,147.91539694166667,76.0,75.0
333,148.23847389166667,148.7192431625,79.0,93.0
334,148.70001239166666,148.87885856041666,78.0,79.0
335,148.93078164166667,149.2500124375,74.0,79.0
336,149.62308939166667,150.10193558541667,71.0,93.0
337,150.31539714166666,150.461551,71.0,77.0
338,150.54616639166667,150.70001255833333,79.0,87.0
339,150.77693564166665,150.89616642083334,78.0,69.0
340,151.00770489166666,151.21539721666667,79.0,85.0
341,151.23847414166667,151.34039722708334,78.0,67.0
342,151.46924339166665,152.0192434375,76.0,76.0
343,151.93078189166667,152.40770500833332,79.0,108.0
344,152.39232039166666,152.5730896375,78.0,76.0
345,152.85385889166668,153.02693582916666,74.0,77.0
346,153.08462814166666,153.60578203125,71.0,93.0
347,154.00770514166666,154.10001284166665,71.0,90.0
348,154.23847439166667,154.35193593958334,71.0,95.0
349,154.46924364166668,154.57116672708332,69.0,72.0
350,154.70001289166666,154.81732059375,69.0,79.0
351,154.93078214166667,155.01732061041668,71.0,93.0
352,155.16155139166668,155.54232065416667,71.0,95.0
353,155.39232064166666,155.57501296458332,69.0,85.0
354,155.85385914166667,155.96155145833333,69.0,83.0
355,156.08462839166666,156.19808993958333,69.0,95.0
356,156.31539764166666,156.48655150208333,69.0,85.0
357,156.77693614166665,156.87693615,69.0,79.0
358,157.00770539166666,157.40385927083332,71.0,95.0
359,157.70001314166666,157.8346285375,62.0,62.0
360,157.70001314166666,158.07116701875,69.0,90.0
361,157.93078239166667,158.08462855833332,74.0,72.0
362,158.16155164166668,158.26924395833333,72.0,63.0
363,158.39232089166666,158.56347475208332,71.0,75.0
364,158.62309014166667,158.73270553541667,69.0,61.0
365,158.85385939166667,159.05193633125,69.0,85.0
366,159.08462864166665,159.35001327916666,71.0,66.0
367,159.54616714166667,159.69616715416666,71.0,76.0
368,159.77693639166665,159.88078255416667,74.0,75.0
369,160.00770564166666,160.12885949791666,76.0,73.0
370,160.23847489166667,160.3269364375,74.0,73.0
371,160.46924414166668,160.56732107291666,76.0,72.0
372,160.70001339166666,161.03078265,74.0,87.0
373,160.93078264166667,161.19424420208333,69.0,79.0
374,161.39232114166666,161.54809038541666,69.0,63.0
375,161.62309039166666,161.80001348333334,79.0,95.0
376,161.85385964166667,161.95578272708335,78.0,86.0
377,162.08462889166665,162.17501351458333,79.0,85.0
378,162.31539814166666,162.39616737916666,78.0,77.0
379,162.54616739166667,162.68462894166666,76.0,75.0
380,163.00770589166666,163.4884751625,79.0,93.0
381,163.46924439166668,163.64809056041668,78.0,79.0
382,163.70001364166666,164.0192444375,74.0,79.0
383,164.39232139166666,164.87116758541666,71.0,93.0
384,165.08462914166665,165.230783,71.0,77.0
385,165.31539839166666,165.46924455833334,79.0,87.0
386,165.54616764166667,165.66539842083333,78.0,69.0
387,165.77693689166668,165.98462921666666,79.0,85.0
388,166.00770614166666,166.10962922708333,78.0,67.0
389,166.23847539166667,166.7884754375,76.0,76.0
390,166.70001389166666,167.17693700833334,79.0,108.0
391,167.16155239166667,167.3423216375,78.0,76.0
392,167.62309089166666,167.79616782916668,74.0,77.0
393,167.85386014166667,168.37501403125,71.0,93.0
394,168.77693714166668,168.86924484166667,71.0,90.0
395,169.00770639166666,169.12116793958333,71.0,95.0
396,169.23847564166667,169.34039872708334,69.0,72.0
397,169.46924489166668,169.58655259374999,69.0,79.0
398,169.70001414166666,169.78655261041666,71.0,93.0
399,169.93078339166667,170.31155265416666,71.0,95.0
400,170.39232189166665,170.49039882291666,69.0,73.0
401,170.62309114166666,170.92309116666667,69.0,74.0
402,171.08462964166665,171.21347580625,67.0,64.0
403,171.31539889166666,171.59232199166667,71.0,93.0
404,171.77693739166668,172.40386052083332,69.0,98.0
405,172.46924514166668,172.6038605375,62.0,62.0
406,172.70001439166666,172.85386055833334,74.0,72.0
407,172.93078364166666,173.03847595833332,72.0,63.0
408,173.16155289166667,173.33270675208334,71.0,75.0
409,173.39232214166665,173.50193753541666,69.0,61.0
410,173.62309139166666,173.82116833125,69.0,85.0
411,173.85386064166667,174.11924527916668,71.0,66.0
412,174.31539914166666,174.46539915416668,71.0,76.0
413,174.54616839166667,174.65001455416666,74.0,75.0
414,174.77693764166668,174.89809149791665,76.0,73.0
415,175.00770689166666,175.0961684375,74.0,73.0
416,175.23847614166667,175.33655307291667,76.0,72.0
417,175.46924539166668,175.80001465,74.0,87.0
418,175.70001464166666,175.96347620208334,69.0,79.0
419,176.16155314166667,176.31732238541667,69.0,63.0
420,176.39232239166665,176.56924548333333,79.0,95.0
421,176.62309164166666,176.72501472708333,78.0,86.0
422,176.85386089166667,176.94424551458334,79.0,85.0
423,177.08463014166668,177.16539937916667,78.0,77.0
424,177.31539939166666,177.45386094166668,76.0,75.0
425,177.77693789166668,178.2577071625,79.0,93.0
426,178.23847639166667,178.41732256041666,78.0,79.0
427,178.46924564166667,178.7884764375,74.0,79.0
428,179.16155339166667,179.64039958541667,71.0,93.0
429,179.85386114166667,180.000015,71.0,77.0
430,180.08463039166668,180.23847655833333,79.0,87.0
431,180.31539964166666,180.43463042083334,78.0,69.0
432,180.54616889166667,180.75386121666668,79.0,85.0
433,180.77693814166668,180.87886122708332,78.0,67.0
434,181.00770739166666,181.5577074375,76.0,76.0
435,181.46924589166667,181.94616900833333,79.0,108.0
436,181.93078439166666,182.1115536375,78.0,76.0
437,182.39232289166665,182.56539982916667,74.0,77.0
438,182.62309214166666,183.14424603125,71.0,93.0
439,183.54616914166667,183.63847684166666,71.0,90.0
440,183.77693839166668,183.89039993958332,71.0,95.0
441,184.00770764166666,184.10963072708333,69.0,72.0
442,184.23847689166666,184.35578459375,69.0,79.0
443,184.46924614166667,184.55578461041665,71.0,93.0
444,184.70001539166665,185.08078465416668,71.0,95.0
445,184.93078464166666,185.11347696458333,69.0,85.0
446,185.39232314166668,185.50001545833334,69.0,83.0
447,185.62309239166666,185.73655393958333,69.0,95.0
448,185.85386164166667,186.02501550208333,69.0,85.0
449,186.31540014166666,186.41540015,69.0,79.0
450,186.54616939166667,186.94232327083333,71.0,95.0
451,187.23847714166666,187.60963101875,69.0,90.0
452,187.93078489166666,188.25770799583333,69.0,93.0
453,188.39232339166668,190.23847739166666,67.0,90.0
