,start,end,pitch,velocity
0,35.29408,35.4154034,62.0,97.0
1,35.58819733333333,35.702167800000005,62.0,82.0
2,35.882314666666666,35.99628513333334,62.0,88.0
3,36.176432000000005,36.52753456666667,62.0,102.0
4,36.47054933333334,36.52753456666667,62.0,96.0
5,36.76466666666667,37.03488696666667,64.0,86.0
6,37.058784,38.20400336666667,59.0,99.0
7,38.23525333333334,38.477900133333335,59.0,95.0
8,38.52937066666667,38.81245860000001,62.0,97.0
9,38.823488000000005,39.299590433333336,67.0,99.0
10,39.41172266666667,39.648854766666666,67.0,100.0
11,39.70584,39.9760603,66.0,99.0
12,39.999957333333334,40.2683394,66.0,97.0
13,40.29407466666667,40.549589100000006,62.0,99.0
14,40.58819200000001,41.56245566666667,59.0,97.0
15,41.764661333333336,42.03671986666667,59.0,93.0
16,42.05877866666667,42.244440233333336,62.0,88.0
17,42.352896,42.7885573,67.0,107.0
18,42.94113066666667,43.19296863333334,67.0,112.0
19,43.235248000000006,43.505468300000004,66.0,112.0
20,43.52936533333334,43.75730626666667,66.0,112.0
21,43.82348266666667,44.03855596666667,62.0,97.0
22,44.1176,45.07531956666667,59.0,90.0
23,45.29406933333334,45.494436766666674,59.0,102.0
24,45.58818666666667,45.801421733333335,62.0,93.0
25,45.882304000000005,46.30325943333334,64.0,99.0
26,46.47053866666667,46.830832400000006,64.0,102.0
27,47.058773333333335,47.312449533333336,62.0,102.0
28,47.35289066666667,47.652522700000006,59.0,81.0
29,47.64700800000001,48.51281590000001,57.0,93.0
30,48.82347733333334,49.0642859,59.0,100.0
31,49.11759466666667,49.397006133333335,57.0,95.0
32,49.411712,49.85104976666667,59.0,117.0
33,49.99994666666667,51.19112186666667,59.0,99.0
34,52.058768,52.347370633333334,59.0,117.0
35,52.35288533333334,52.62310563333334,66.0,107.0
36,52.941120000000005,53.43560476666667,69.0,102.0
37,53.23523733333334,53.97053066666667,67.0,117.0
38,55.588176000000004,56.018322600000005,64.0,117.0
39,56.17641066666667,56.50177796666667,62.0,100.0
40,56.470528,56.935601033333334,64.0,117.0
41,57.058762666666674,57.665379666666674,67.0,107.0
42,59.11758400000001,59.37677490000001,64.0,112.0
43,59.41170133333334,59.6745687,66.0,112.0
44,59.70581866666667,59.94478900000001,67.0,100.0
45,59.999936000000005,61.643316600000006,69.0,127.0
46,63.23522666666667,63.49993226666667,62.0,96.0
47,63.529344,63.7444173,71.0,117.0
48,63.82346133333334,63.9980935,69.0,122.0
49,64.11757866666667,64.26279910000001,67.0,112.0
50,64.411696,64.5881664,71.0,122.0
51,64.70581333333334,64.86757786666666,69.0,117.0
52,64.99993066666667,65.19662163333334,67.0,99.0
53,65.294048,65.39698906666668,69.0,122.0
54,65.58816533333334,65.71684166666667,69.0,122.0
55,65.88228266666667,66.01463546666668,69.0,122.0
56,66.1764,66.3308116,69.0,127.0
57,66.47051733333333,66.74073763333334,71.0,112.0
58,66.76463466666667,67.20948713333334,74.0,112.0
59,67.35286933333335,68.04220683333334,67.0,117.0
60,68.52933866666667,68.78669133333334,71.0,117.0
61,68.82345600000001,68.98705876666668,69.0,100.0
62,69.11757333333334,69.26647023333334,69.0,93.0
63,69.41169066666667,69.55323463333333,69.0,112.0
64,69.705808,69.95580773333334,69.0,117.0
65,69.99992533333334,70.16536633333334,66.0,122.0
66,70.29404266666667,70.52933653333334,62.0,107.0
67,70.58816,71.4980855,67.0,112.0
68,72.05874666666668,72.31793756666667,71.0,117.0
69,72.35286400000001,72.50359913333334,69.0,112.0
70,72.64698133333334,72.75727533333334,69.0,102.0
71,72.94109866666668,73.05690736666668,69.0,107.0
72,73.23521600000001,73.40984816666668,69.0,112.0
73,73.52933333333334,73.80690656666667,74.0,127.0
74,73.82345066666667,74.19477380000001,76.0,99.0
75,74.41168533333334,74.93558183333334,71.0,107.0
76,75.29403733333334,75.5017577,67.0,96.0
77,75.58815466666667,75.77381623333333,69.0,107.0
78,75.882272,76.20396283333334,71.0,107.0
79,76.47050666666668,76.60837416666668,71.0,127.0
80,76.76462400000001,76.90616796666667,71.0,127.0
81,77.05874133333334,77.22418233333335,67.0,112.0
82,77.35285866666668,77.49072616666668,64.0,112.0
83,77.64697600000001,77.78668173333334,71.0,127.0
84,77.94109333333334,78.06609320000001,71.0,102.0
85,78.23521066666667,78.34550466666667,71.0,122.0
86,78.529328,78.6671955,71.0,127.0
87,78.82344533333334,79.06057743333334,67.0,112.0
88,79.11756266666667,79.34182713333334,64.0,112.0
89,79.41168,80.83079613333334,69.0,127.0
90,82.94108800000001,83.15616130000001,71.0,117.0
91,83.23520533333334,83.40983750000001,69.0,122.0
92,83.52932266666667,83.67454310000001,67.0,112.0
93,83.82344,83.9999104,71.0,122.0
94,84.11755733333334,84.27932186666668,69.0,117.0
95,84.41167466666667,84.60836563333334,67.0,99.0
96,84.705792,84.80873306666668,69.0,122.0
97,84.99990933333333,85.12858566666667,69.0,122.0
98,85.29402666666667,85.42637946666667,69.0,122.0
99,85.588144,85.7425556,69.0,127.0
100,85.88226133333335,86.15248163333334,69.0,112.0
101,86.17637866666668,86.62123113333334,74.0,112.0
102,86.76461333333334,87.45395083333334,67.0,117.0
103,87.94108266666667,88.19843533333334,71.0,117.0
104,88.2352,88.39880276666668,69.0,100.0
105,88.52931733333334,88.67821423333334,69.0,93.0
106,88.82343466666667,88.96497863333335,69.0,112.0
107,89.117552,89.36755173333334,69.0,117.0
108,89.41166933333334,89.57711033333334,66.0,122.0
109,89.70578666666667,89.94108053333333,62.0,107.0
110,89.999904,90.9098295,67.0,112.0
111,91.47049066666668,91.72968156666667,71.0,117.0
112,91.76460800000001,91.91534313333334,69.0,112.0
113,92.05872533333334,92.16901933333334,69.0,102.0
114,92.35284266666667,92.46865136666668,69.0,107.0
115,92.64696,92.82159216666668,69.0,112.0
116,92.94107733333334,93.21865056666667,74.0,127.0
117,93.23519466666667,93.6065178,76.0,99.0
118,93.82342933333334,94.34732583333334,71.0,107.0
119,94.70578133333333,94.91350170000001,67.0,96.0
120,94.99989866666668,95.18556023333333,69.0,107.0
121,95.29401600000001,95.61570683333333,71.0,107.0
122,95.88225066666668,96.02011816666668,71.0,127.0
123,96.17636800000001,96.31832953125001,71.0,127.0
124,96.47135300000001,96.6372820625,67.0,112.0
125,96.766338,96.90461221875002,64.0,112.0
126,97.06132300000002,97.481676625,71.0,122.0
127,97.65129300000001,98.01818059375002,71.0,117.0
128,98.241263,98.44406518750002,67.0,102.0
129,98.53624800000001,98.78698525000001,64.0,112.0
130,98.83123300000001,100.96803059375002,69.0,112.0
131,101.48609800000001,101.62068490625,67.0,117.0
132,101.78108300000001,102.33233621875002,69.0,127.0
133,102.66603800000001,104.2552696875,67.0,127.0
134,137.675545,137.79686840000002,62.0,97.0
135,137.96966233333336,138.0836328,62.0,82.0
136,138.26377966666666,138.37775013333334,62.0,88.0
137,138.55789700000003,138.9089995666667,62.0,102.0
138,138.85201433333333,138.9089995666667,62.0,96.0
139,139.1461316666667,139.4163519666667,64.0,86.0
140,139.440249,140.58546836666667,59.0,99.0
141,140.61671833333335,140.85936513333334,59.0,95.0
142,140.91083566666669,141.1939236,62.0,97.0
143,141.20495300000002,141.68105543333334,67.0,99.0
144,141.79318766666668,142.03031976666668,67.0,100.0
145,142.08730500000001,142.35752530000002,66.0,99.0
146,142.38142233333335,142.64980440000002,66.0,97.0
147,142.67553966666668,142.9310541,62.0,99.0
148,142.969657,143.94392066666668,59.0,97.0
149,144.14612633333334,144.41818486666668,59.0,93.0
150,144.44024366666667,144.62590523333336,62.0,88.0
151,144.734361,145.17002230000003,67.0,107.0
152,145.32259566666667,145.57443363333334,67.0,112.0
153,145.616713,145.8869333,66.0,112.0
154,145.91083033333334,146.13877126666668,66.0,112.0
155,146.20494766666667,146.42002096666667,62.0,97.0
156,146.49906500000003,147.45678456666667,59.0,90.0
157,147.67553433333336,147.8759017666667,59.0,102.0
158,147.96965166666666,148.18288673333336,62.0,93.0
159,148.26376900000002,148.68472443333334,64.0,99.0
160,148.8520036666667,149.2122974,64.0,102.0
161,149.44023833333335,149.69391453333336,62.0,102.0
162,149.7343556666667,150.0339877,59.0,81.0
163,150.02847300000002,150.8942809,57.0,93.0
164,151.20494233333335,151.4457509,59.0,100.0
165,151.49905966666668,151.77847113333334,57.0,95.0
166,151.79317700000001,152.23251476666667,59.0,117.0
167,152.38141166666668,153.57258686666668,59.0,99.0
168,154.440233,154.72883563333335,59.0,117.0
169,154.73435033333334,155.00457063333334,66.0,107.0
170,155.322585,155.8170697666667,69.0,102.0
171,155.61670233333334,156.35199566666668,67.0,117.0
172,157.972244,158.4036595625,64.0,117.0
173,158.562214,158.88854115625,62.0,100.0
174,158.857199,159.32364403125,64.0,117.0
175,159.447169,160.0555755625,67.0,107.0
176,161.512064,161.7712549,64.0,112.0
177,161.80618133333334,162.0690487,66.0,112.0
178,162.10029866666667,162.339269,67.0,100.0
179,162.394416,164.0377966,69.0,127.0
180,165.62970666666666,165.89441226666668,62.0,96.0
181,165.923824,166.1388973,71.0,117.0
182,166.21794133333333,166.3925735,69.0,122.0
183,166.5120586666667,166.6572791,67.0,112.0
184,166.80617600000002,166.98264640000002,71.0,122.0
185,167.10029333333335,167.26205786666668,69.0,117.0
186,167.3944106666667,167.59110163333335,67.0,99.0
187,167.68852800000002,167.79146906666668,69.0,122.0
188,167.98264533333335,168.11132166666667,69.0,122.0
189,168.27676266666668,168.40911546666666,69.0,122.0
190,168.57088000000002,168.72529160000002,69.0,127.0
191,168.86499733333335,169.13521763333335,71.0,112.0
192,169.15911466666668,169.60396713333336,74.0,112.0
193,169.74734933333335,170.43668683333334,67.0,117.0
194,170.92381866666668,171.18117133333334,71.0,117.0
195,171.217936,171.38153876666667,69.0,100.0
196,171.51205333333334,171.66095023333335,69.0,93.0
197,171.80617066666667,171.94771463333333,69.0,112.0
198,172.100288,172.35028773333335,69.0,117.0
199,172.39440533333334,172.55984633333335,66.0,122.0
200,172.68852266666667,172.92381653333334,62.0,107.0
201,172.98264,173.89256550000002,67.0,112.0
202,174.45322666666667,174.7124175666667,71.0,117.0
203,174.747344,174.89807913333334,69.0,112.0
204,175.04146133333333,175.15175533333334,69.0,102.0
205,175.33557866666666,175.45138736666667,69.0,107.0
206,175.62969600000002,175.80432816666666,69.0,112.0
207,175.92381333333336,176.20138656666668,74.0,127.0
208,176.2179306666667,176.58925380000002,76.0,99.0
209,176.80616533333335,177.33006183333333,71.0,107.0
210,177.68851733333335,177.8962377,67.0,96.0
211,177.98263466666668,178.16829623333334,69.0,107.0
212,178.27675200000002,178.59844283333334,71.0,107.0
213,178.86498666666668,179.00285416666668,71.0,127.0
214,179.159104,179.30064796666667,71.0,127.0
215,179.45322133333335,179.61866233333333,67.0,112.0
216,179.74733866666668,179.88520616666668,64.0,112.0
217,180.041456,180.18136756666667,71.0,127.0
218,180.3360066666667,180.4611907,71.0,102.0
219,180.63055733333334,180.74101383333334,71.0,122.0
220,180.92510800000002,181.063178625,71.0,127.0
221,181.21965866666667,181.45714014166668,67.0,112.0
222,181.51420933333335,181.73880421666667,64.0,112.0
223,181.80876,183.22996696666667,69.0,127.0
224,185.343368,185.558758175,71.0,117.0
225,185.63791866666668,185.812808125,69.0,122.0
226,185.93246933333336,186.077903725,67.0,112.0
227,186.22702,186.4037504,71.0,122.0
228,186.5215706666667,186.68357353333334,69.0,117.0
229,186.81612133333334,187.01310209166667,67.0,99.0
230,187.11067200000002,187.21376473333333,69.0,122.0
231,187.40522266666667,187.53408858333336,69.0,122.0
232,187.69977333333335,187.83232113333335,69.0,122.0
233,187.994324,188.1489631,69.0,127.0
234,188.2888746666667,188.55949309166667,69.0,112.0
235,188.58342533333334,189.02893321666667,74.0,112.0
236,189.17252666666667,189.86287979166667,67.0,117.0
237,190.35072933333333,190.60846116666667,71.0,117.0
238,190.64528,190.80912380833334,69.0,100.0
239,190.93983066666667,191.08894694166668,69.0,93.0
240,191.23438133333335,191.37613384166667,69.0,112.0
241,191.528932,191.77930006666668,69.0,117.0
242,191.82348266666668,191.98916741666667,66.0,122.0
243,192.11803333333336,192.35367386666667,62.0,107.0
244,192.412584,193.323850125,67.0,112.0
245,193.88533733333335,194.14491010833333,71.0,117.0
246,194.179888,194.3308452166667,69.0,112.0
247,194.47443866666669,194.58489516666668,69.0,102.0
248,194.76898933333334,194.88496865833335,69.0,107.0
249,195.06354000000002,195.23842945833334,69.0,112.0
250,195.35809066666667,195.63607285833334,74.0,127.0
251,195.65264133333335,196.02451155,76.0,99.0
252,196.24174266666668,196.7664110416667,71.0,107.0
253,197.1253946666667,197.33342107500002,67.0,96.0
254,197.41994533333335,197.60588044166667,69.0,107.0
255,197.714496,198.0366607916667,71.0,107.0
256,198.30359733333336,198.44166795833334,71.0,127.0
257,198.598148,198.73990050833333,71.0,127.0
258,198.8926986666667,199.0583834166667,67.0,112.0
259,199.18724933333334,199.32531995833335,64.0,112.0
260,199.48180000000002,199.9015347,71.0,122.0
261,200.07090133333335,200.43724872500002,71.0,117.0
262,200.66000266666668,200.86250625000002,67.0,102.0
263,200.95455333333334,201.20492140000002,64.0,112.0
264,201.24910400000002,203.38275539166668,69.0,112.0
265,203.90006,204.03444874166667,67.0,117.0
266,204.19461066666668,204.74505222500002,69.0,127.0
267,205.0782626666667,206.66515438333334,67.0,127.0
268,211.55837733333334,211.82347293333333,62.0,96.0
269,211.85292800000002,212.068318175,71.0,117.0
270,212.14747866666667,212.32236812500003,69.0,122.0
271,212.44202933333335,212.58746372500002,67.0,112.0
272,212.73658,212.9133104,71.0,122.0
273,213.03113066666668,213.19313353333334,69.0,117.0
274,213.32568133333334,213.5226620916667,67.0,99.0
275,213.62023200000002,213.72332473333336,69.0,122.0
276,213.91478266666667,214.04364858333335,69.0,122.0
277,214.20933333333335,214.34188113333335,69.0,122.0
278,214.50388400000003,214.65852310000002,69.0,127.0
279,214.79843466666668,215.0690530916667,71.0,112.0
280,215.09298533333333,215.53849321666667,74.0,112.0
281,215.6820866666667,216.3724397916667,67.0,117.0
282,216.86028933333336,217.11802116666667,71.0,117.0
283,217.15484,217.31868380833333,69.0,100.0
284,217.4493906666667,217.59850694166667,69.0,93.0
285,217.74394133333334,217.8856938416667,69.0,112.0
286,218.03849200000002,218.28886006666667,69.0,117.0
287,218.33304266666667,218.49872741666667,66.0,122.0
288,218.62759333333335,218.8632338666667,62.0,107.0
289,218.922144,219.833410125,67.0,112.0
290,220.39489733333335,220.65447010833336,71.0,117.0
291,220.68944800000003,220.84040521666668,69.0,112.0
292,220.98399866666668,221.09445516666668,69.0,102.0
293,221.27854933333333,221.39452865833334,69.0,107.0
294,221.5731,221.74798945833334,69.0,112.0
295,221.8676506666667,222.14563285833333,74.0,127.0
296,222.16220133333334,222.53407155000002,76.0,99.0
297,222.75130266666667,223.27597104166668,71.0,107.0
298,223.6349546666667,223.842981075,67.0,96.0
299,223.92950533333334,224.1154404416667,69.0,107.0
300,224.22405600000002,224.54622079166668,71.0,107.0
301,224.81315733333335,224.95122795833333,71.0,127.0
302,225.107708,225.24946050833336,71.0,127.0
303,225.40225866666668,225.56794341666668,67.0,112.0
304,225.69680933333336,225.83487995833335,64.0,112.0
305,225.99136000000001,226.13127156666667,71.0,127.0
306,226.28591066666667,226.4110947,71.0,102.0
307,226.58046133333335,226.69091783333334,71.0,122.0
308,226.87501200000003,227.013082625,71.0,127.0
309,227.16956266666668,227.4070441416667,67.0,112.0
310,227.46411333333333,227.68870821666667,64.0,112.0
311,227.758664,229.17987096666667,69.0,127.0
312,231.293272,231.508662175,71.0,117.0
313,231.58782266666668,231.762712125,69.0,122.0
314,231.88237333333336,232.027807725,67.0,112.0
315,232.176924,232.3536544,71.0,122.0
316,232.47147466666667,232.63347753333335,69.0,117.0
317,232.76602533333335,232.96300609166667,67.0,99.0
318,233.06057600000003,233.16366873333334,69.0,122.0
319,233.35512666666668,233.48399258333336,69.0,122.0
320,233.64967733333333,233.78222513333336,69.0,122.0
321,233.944228,234.0988671,69.0,127.0
322,234.2387786666667,234.50939709166667,69.0,112.0
323,234.53332933333334,234.97883721666668,74.0,112.0
324,235.12243066666667,235.81278379166667,67.0,117.0
325,236.30063333333334,236.55836516666668,71.0,117.0
326,236.59518400000002,236.75902780833334,69.0,100.0
327,236.8897346666667,237.03885094166668,69.0,93.0
328,237.18428533333335,237.32603784166668,69.0,112.0
329,237.478836,237.72920406666668,69.0,117.0
330,237.77338666666668,237.93907141666668,66.0,122.0
331,238.06793733333336,238.30357786666667,62.0,107.0
332,238.362488,239.273754125,67.0,112.0
333,239.83524133333336,240.09481410833334,71.0,117.0
334,240.129792,240.28074921666666,69.0,112.0
335,240.4243426666667,240.5347991666667,69.0,102.0
336,240.71889333333334,240.83487265833335,69.0,107.0
337,241.01344400000002,241.18833345833335,69.0,112.0
338,241.30799466666667,241.58597685833334,74.0,127.0
339,241.60254533333335,241.97441555,76.0,99.0
340,242.19164666666668,242.7163150416667,71.0,107.0
341,243.0752986666667,243.28332507500002,67.0,96.0
342,243.36984933333335,243.55578444166667,69.0,107.0
343,243.6644,243.9865647916667,71.0,107.0
344,244.25350133333336,244.39157195833334,71.0,127.0
345,244.548052,244.68980450833334,71.0,127.0
346,244.84260266666666,245.0082874166667,67.0,112.0
347,245.13715333333334,245.27522395833336,64.0,112.0
348,245.43170400000002,245.85143870000002,71.0,122.0
349,246.02080533333333,246.38715272500002,71.0,117.0
350,246.6099066666667,246.81241025000003,67.0,102.0
351,246.90445733333337,247.15482540000002,64.0,112.0
352,247.19900800000002,249.33265939166668,69.0,112.0
353,249.849964,249.98435274166667,67.0,117.0
354,250.14451466666668,250.694956225,69.0,127.0
355,251.02816666666666,252.61505838333335,67.0,127.0
