,start,end,pitch,velocity
0,1.4705866666666667,3.362128766666667,66.0,39.0
1,1.4705866666666667,3.3694817,62.0,51.0
2,1.4705866666666667,3.3823493333333334,67.0,42.0
3,1.4705866666666667,3.3860258,43.0,63.0
4,1.4705866666666667,3.4007316666666667,59.0,41.0
5,4.41176,4.4613923,59.0,37.0
6,4.117642666666667,4.562495133333334,55.0,89.0
7,3.8235253333333334,4.6764656,50.0,68.0
8,3.529408,5.124994533333334,43.0,78.0
9,4.7058773333333335,5.319847266666667,50.0,52.0
10,4.41176,6.022052400000001,67.0,96.0
11,4.999994666666667,6.1323464,62.0,67.0
12,5.882346666666667,6.3529344000000005,50.0,61.0
13,5.294112,6.371316733333334,43.0,81.0
14,6.176464,6.895213233333334,67.0,99.0
15,6.4705813333333335,6.988963133333334,62.0,77.0
16,6.764698666666667,7.045948366666667,59.0,78.0
17,7.647050666666667,8.262858833333334,57.0,66.0
18,8.235285333333334,8.584549666666668,62.0,59.0
19,7.941168,8.786755333333334,66.0,112.0
20,8.82352,9.566166266666668,66.0,97.0
21,7.3529333333333335,9.735283733333334,54.0,65.0
22,7.058816,9.911754133333334,42.0,90.0
23,8.529402666666668,10.060651033333334,57.0,76.0
24,9.705872000000001,10.2407979,66.0,100.0
25,9.999989333333334,10.536753466666667,62.0,63.0
26,10.294106666666668,10.612121033333334,57.0,83.0
27,10.588224,12.191163466666668,40.0,86.0
28,10.882341333333335,12.371310333333334,47.0,49.0
29,11.176458666666667,12.433810266666667,52.0,93.0
30,11.470576000000001,13.073515466666668,67.0,97.0
31,12.941162666666667,13.134177166666667,52.0,66.0
32,11.764693333333334,13.1525595,64.0,78.0
33,12.058810666666668,13.356603400000001,59.0,76.0
34,12.352928,13.382338666666667,40.0,71.0
35,12.647045333333335,13.393368066666667,47.0,52.0
36,13.235280000000001,13.970573333333334,67.0,100.0
37,13.529397333333334,13.9742498,64.0,86.0
38,13.823514666666668,14.134176100000001,59.0,92.0
39,14.705866666666667,15.141527966666668,50.0,86.0
40,14.999984000000001,15.466895266666668,66.0,96.0
41,15.294101333333334,15.617630400000001,50.0,82.0
42,14.117632,15.766527300000002,38.0,74.0
43,14.411749333333335,15.928291833333335,45.0,51.0
44,15.588218666666668,16.02387996666667,66.0,92.0
45,15.882336,16.60843816666667,62.0,68.0
46,16.470570666666667,16.827187933333335,50.0,86.0
47,16.176453333333335,16.928290766666667,45.0,54.0
48,15.882336,17.152555233333334,38.0,63.0
49,17.058805333333336,17.185643433333336,45.0,63.0
50,16.764688,17.38601086666667,66.0,127.0
51,17.352922666666668,17.670937033333335,62.0,107.0
52,18.23527466666667,18.658068333333336,48.0,75.0
53,18.823509333333334,19.051450266666667,48.0,72.0
54,17.64704,19.22792066666667,36.0,97.0
55,18.529392,19.435641033333336,67.0,127.0
56,17.941157333333333,19.4448322,43.0,83.0
57,19.11762666666667,19.68564076666667,64.0,79.0
58,19.411744000000002,20.476081100000002,36.0,71.0
59,19.705861333333335,20.49078696666667,43.0,31.0
60,19.999978666666667,20.7407867,48.0,57.0
61,20.588213333333336,21.0440952,64.0,72.0
62,20.294096000000003,21.0937275,67.0,82.0
63,20.882330666666668,21.207697966666668,60.0,67.0
64,21.76468266666667,22.1966675,59.0,76.0
65,21.176448,22.792255100000002,47.0,61.0
66,21.470565333333337,22.9742402,54.0,47.0
67,22.64703466666667,23.367622133333334,59.0,88.0
68,22.0588,23.648871833333335,66.0,112.0
69,22.352917333333334,23.68931296666667,62.0,59.0
70,23.529386666666667,23.979753833333334,59.0,72.0
71,23.235269333333335,24.038577300000004,54.0,83.0
72,22.941152000000002,24.139680133333336,47.0,70.0
73,24.117621333333336,24.567988500000002,62.0,86.0
74,23.823504000000003,24.584532600000003,66.0,127.0
75,24.41173866666667,24.7444589,59.0,93.0
76,24.999973333333337,25.389678800000002,57.0,88.0
77,24.705856,25.5440904,45.0,83.0
78,25.29409066666667,25.70217846666667,64.0,99.0
79,25.882325333333334,26.2885749,59.0,70.0
80,25.588208,26.411736533333336,47.0,102.0
81,26.17644266666667,26.41908946666667,64.0,95.0
82,26.764677333333335,26.931956566666667,60.0,66.0
83,26.470560000000003,27.26835326666667,48.0,95.0
84,27.058794666666667,27.354750233333334,60.0,89.0
85,27.647029333333336,27.9098967,61.0,86.0
86,27.352912000000003,28.137837633333337,49.0,88.0
87,27.94114666666667,28.227911066666667,61.0,95.0
88,28.529381333333337,28.84555746666667,62.0,59.0
89,28.82349866666667,29.23158646666667,57.0,72.0
90,28.235264,29.737100633333334,50.0,89.0
91,29.70585066666667,29.974232733333334,64.0,56.0
92,29.117616,29.974232733333334,66.0,117.0
93,29.411733333333334,29.999968000000003,57.0,77.0
94,29.999968000000003,31.558789866666668,38.0,77.0
95,30.294085333333335,31.753642600000003,45.0,42.0
96,30.882320000000004,31.80695136666667,62.0,70.0
97,30.588202666666668,31.8087896,57.0,53.0
98,32.35290666666667,32.76650916666667,57.0,39.0
99,31.764672,33.26283216666667,38.0,69.0
100,32.647024,33.38231733333333,62.0,82.0
101,33.529376,34.74628646666667,38.0,48.0
102,33.529376,34.79591876666667,45.0,59.0
103,33.529376,35.21503596666667,57.0,76.0
104,33.529376,35.25180063333334,62.0,75.0
105,35.58819733333333,36.270181900000004,50.0,51.0
106,35.29408,36.404372933333335,43.0,72.0
107,36.176432000000005,37.02753403333334,62.0,97.0
108,35.882314666666666,37.02937226666667,55.0,59.0
109,37.64701866666667,38.088194666666666,52.0,50.0
110,37.941136,38.167238700000006,59.0,41.0
111,37.058784,38.37495906666667,40.0,79.0
112,37.352901333333335,38.3767973,47.0,41.0
113,38.23525333333334,38.817973300000006,64.0,59.0
114,37.941136,38.85841443333334,67.0,90.0
115,38.823488000000005,40.00179556666667,36.0,66.0
116,39.11760533333334,40.04958963333333,43.0,53.0
117,39.41172266666667,40.28672173333334,48.0,72.0
118,40.29407466666667,40.560618500000004,55.0,58.0
119,39.999957333333334,40.560618500000004,60.0,72.0
120,39.70584,40.60289786666667,64.0,96.0
121,41.17642666666667,41.681940833333336,55.0,73.0
122,40.58819200000001,42.09554333333334,43.0,66.0
123,40.88230933333334,42.11392566666667,50.0,62.0
124,41.764661333333336,42.338190133333335,67.0,73.0
125,42.05877866666667,42.376793033333335,62.0,85.0
126,41.470544000000004,42.376793033333335,71.0,96.0
127,42.352896,43.400689,36.0,77.0
128,42.647013333333334,43.43193896666667,43.0,53.0
129,42.94113066666667,43.53304180000001,48.0,64.0
130,43.235248000000006,44.02201186666667,67.0,102.0
131,43.52936533333334,44.0403942,64.0,78.0
132,43.82348266666667,44.19848226666667,60.0,79.0
133,44.411717333333335,45.28487816666667,54.0,67.0
134,44.1176,45.57715726666667,47.0,66.0
135,44.999952,45.69112773333334,69.0,75.0
136,45.29406933333334,45.794068800000005,66.0,71.0
137,45.58818666666667,45.832671700000006,62.0,65.0
138,44.70583466666667,45.851054033333334,59.0,81.0
139,46.47053866666667,46.80693536666667,60.0,90.0
140,46.17642133333334,46.96134696666667,55.0,46.0
141,45.882304000000005,47.141493833333335,48.0,89.0
142,47.35289066666667,47.6745815,59.0,47.0
143,47.058773333333335,47.703993233333335,55.0,81.0
144,46.764656,47.735243200000006,64.0,96.0
145,47.64700800000001,48.96318306666667,38.0,69.0
146,47.94112533333334,48.998109500000005,45.0,58.0
147,48.23524266666667,49.130462300000005,50.0,79.0
148,48.82347733333334,49.24810923333334,62.0,65.0
149,48.529360000000004,49.37127086666667,66.0,127.0
150,49.11759466666667,49.38597673333334,57.0,88.0
151,49.99994666666667,50.3712698,63.0,107.0
152,49.705829333333334,50.44479913333334,59.0,75.0
153,49.411712,50.69479886666667,51.0,100.0
154,50.294064000000006,51.203989500000006,66.0,117.0
155,50.58818133333334,51.26648943333334,63.0,107.0
156,50.88229866666667,51.2756806,59.0,58.0
157,51.176416,52.034870966666674,47.0,73.0
158,51.470533333333336,52.07163563333334,54.0,72.0
159,51.76465066666667,52.215017833333334,59.0,66.0
160,52.35288533333334,52.87310536666667,63.0,83.0
161,52.058768,52.89516416666667,66.0,99.0
162,52.64700266666667,53.812442600000004,59.0,62.0
163,53.52935466666667,54.025677666666674,52.0,70.0
164,53.23523733333334,54.1764128,47.0,58.0
165,52.941120000000005,54.42273606666667,40.0,69.0
166,54.117589333333335,54.590015300000005,64.0,83.0
167,53.823472,54.6065594,67.0,112.0
168,54.41170666666667,54.71317693333334,59.0,86.0
169,55.29405866666667,55.60839656666667,50.0,89.0
170,54.99994133333334,55.87494040000001,45.0,39.0
171,54.70582400000001,55.91170506666667,38.0,76.0
172,55.588176000000004,56.36942516666667,66.0,112.0
173,55.88229333333334,56.40251336666667,62.0,90.0
174,56.17641066666667,56.50545443333334,57.0,95.0
175,56.76464533333334,57.788541300000006,43.0,37.0
176,56.470528,57.801408933333335,36.0,77.0
177,57.058762666666674,57.87493826666667,48.0,81.0
178,57.64699733333334,57.928247033333335,55.0,83.0
179,57.352880000000006,58.180085000000005,64.0,100.0
180,57.94111466666667,58.1966291,60.0,102.0
181,58.529349333333336,59.141481033333335,54.0,76.0
182,58.235232,59.24626033333334,47.0,79.0
183,58.82346666666667,59.25361326666667,59.0,88.0
184,59.41170133333334,59.93559783333334,62.0,85.0
185,59.11758400000001,59.953980166666675,66.0,117.0
186,59.70581866666667,60.044053600000005,59.0,96.0
187,60.29405333333334,60.85287626666667,52.0,81.0
188,59.999936000000005,60.94294970000001,45.0,92.0
189,60.58817066666667,60.99442023333334,57.0,95.0
190,61.176405333333335,61.46133150000001,60.0,107.0
191,60.882288,61.4944197,64.0,122.0
192,61.470522666666675,61.86758106666667,57.0,112.0
193,62.35287466666667,62.643315533333336,57.0,93.0
194,62.646992000000004,62.78853596666667,62.0,95.0
195,61.76464000000001,63.02382983333334,38.0,96.0
196,62.35287466666667,63.02934453333334,50.0,95.0
197,62.05875733333334,63.05875626666667,45.0,97.0
198,62.646992000000004,63.30691776666667,66.0,127.0
199,62.94110933333334,63.39882943333334,62.0,127.0
200,63.23522666666667,63.474197000000004,57.0,102.0
201,63.97052000000001,64.13963746666667,59.0,92.0
202,64.11757866666667,64.18191683333333,62.0,99.0
203,64.26463733333334,64.37860780000001,67.0,99.0
204,64.411696,64.56794583333334,71.0,97.0
205,64.55875466666667,64.61390166666668,74.0,112.0
206,64.70581333333334,64.86757786666666,79.0,107.0
207,63.82346133333334,64.87860726666668,55.0,81.0
208,63.529344,64.93926896666667,43.0,93.0
209,64.852872,64.99809243333334,83.0,122.0
210,63.67640266666667,65.12676876666667,50.0,99.0
211,64.99993066666667,65.128607,86.0,127.0
212,65.14698933333334,65.238901,83.0,99.0
213,65.735224,65.8896356,62.0,92.0
214,65.88228266666667,65.95213553333333,66.0,112.0
215,66.02934133333333,66.16904706666668,71.0,99.0
216,66.1764,66.2922087,74.0,97.0
217,65.58816533333334,66.32345866666667,59.0,79.0
218,65.44110666666667,66.37860566666667,54.0,99.0
219,66.32345866666667,66.46684086666667,78.0,127.0
220,65.294048,66.56426723333334,47.0,93.0
221,66.47051733333333,66.60470836666667,74.0,97.0
222,66.617576,66.8326493,71.0,97.0
223,66.76463466666667,66.89698746666667,74.0,81.0
224,66.91169333333333,66.9870609,76.0,68.0
225,67.49992800000001,67.65617783333335,55.0,82.0
226,67.64698666666668,67.72419246666666,59.0,82.0
227,67.79404533333334,67.88228053333334,64.0,82.0
228,67.94110400000001,68.07897150000001,67.0,90.0
229,68.08816266666668,68.13595673333334,71.0,99.0
230,68.23522133333334,68.40801526666667,76.0,107.0
231,67.35286933333335,68.43191230000001,52.0,89.0
232,68.38228000000001,68.51830926666668,79.0,99.0
233,67.20581066666668,68.57713273333334,47.0,95.0
234,67.058752,68.59551506666668,40.0,83.0
235,68.52933866666667,68.658015,83.0,117.0
236,68.67639733333334,68.75360313333334,79.0,95.0
237,69.264632,69.48889646666667,62.0,88.0
238,69.41169066666667,69.5899993,66.0,112.0
239,69.55874933333334,69.62124926666667,71.0,100.0
240,69.85286666666667,69.9925724,74.0,96.0
241,69.99992533333334,70.04588116666667,78.0,122.0
242,70.146984,70.16536633333334,81.0,88.0
243,70.146984,70.26830740000001,83.0,99.0
244,69.11757333333334,70.27749856666667,59.0,93.0
245,68.97051466666667,70.32529263333333,54.0,102.0
246,68.82345600000001,70.38779256666668,47.0,95.0
247,70.29404266666667,70.41352783333333,86.0,85.0
248,70.44110133333334,70.5385277,90.0,127.0
249,71.029336,71.19293876666667,55.0,93.0
250,71.17639466666667,71.25360046666667,59.0,100.0
251,71.32345333333333,71.44110026666667,64.0,96.0
252,71.470512,71.63227653333334,67.0,97.0
253,71.61757066666667,71.67087943333334,71.0,127.0
254,71.76462933333333,71.94293796666668,76.0,102.0
255,71.91168800000001,72.05139373333334,79.0,107.0
256,70.88227733333333,72.0936731,52.0,95.0
257,70.73521866666667,72.11757013333334,47.0,88.0
258,70.58816,72.13595246666667,40.0,96.0
259,72.05874666666668,72.17455536666667,83.0,127.0
260,72.79404000000001,73.01830446666668,62.0,88.0
261,72.94109866666668,73.1194073,66.0,112.0
262,73.08815733333334,73.15065726666667,71.0,100.0
263,73.38227466666667,73.5219804,74.0,96.0
264,73.52933333333334,73.57528916666668,78.0,122.0
265,73.676392,73.69477433333334,81.0,88.0
266,73.676392,73.7977154,83.0,99.0
267,72.64698133333334,73.80690656666667,59.0,93.0
268,72.49992266666668,73.85470063333334,54.0,102.0
269,72.35286400000001,73.91720056666668,47.0,95.0
270,73.82345066666667,73.94293583333334,86.0,85.0
271,73.97050933333334,74.0679357,90.0,127.0
272,74.558744,74.72234676666667,55.0,93.0
273,74.70580266666667,74.78300846666667,59.0,100.0
274,74.85286133333334,74.97050826666667,64.0,96.0
275,74.99992,75.16168453333334,67.0,97.0
276,75.14697866666667,75.20028743333334,71.0,127.0
277,75.29403733333334,75.47234596666667,76.0,102.0
278,75.441096,75.58080173333335,79.0,107.0
279,74.41168533333334,75.62308110000001,52.0,95.0
280,74.26462666666667,75.64697813333333,47.0,88.0
281,74.117568,75.66536046666667,40.0,96.0
282,75.58815466666667,75.70396336666667,83.0,127.0
283,76.323448,76.51462426666667,52.0,76.0
284,76.47050666666668,76.5274919,55.0,100.0
285,76.61756533333335,76.74991813333334,60.0,96.0
286,76.76462400000001,76.9190356,64.0,92.0
287,76.91168266666668,76.96315320000001,67.0,112.0
288,75.882272,77.17087356666667,36.0,85.0
289,76.02933066666667,77.19844706666667,43.0,92.0
290,77.05874133333334,77.26646170000001,72.0,99.0
291,76.17638933333333,77.31425576666668,48.0,78.0
292,77.20580000000001,77.36204983333334,76.0,95.0
293,77.35285866666668,77.48888793333334,79.0,112.0
294,77.49991733333334,77.59918193333334,76.0,99.0
295,78.08815200000001,78.24991653333333,62.0,85.0
296,78.23521066666667,78.29954883333333,66.0,97.0
297,78.38226933333334,78.55506326666668,71.0,85.0
298,78.529328,78.66535726666667,74.0,93.0
299,77.94109333333334,78.72234250000001,59.0,86.0
300,77.79403466666668,78.80690123333333,54.0,99.0
301,78.67638666666667,78.82344533333334,78.0,117.0
302,78.82344533333334,78.96315106666667,74.0,90.0
303,77.64697600000001,79.0587392,47.0,82.0
304,78.970504,79.13226853333335,71.0,93.0
305,79.11756266666667,79.26645956666667,78.0,127.0
306,79.26462133333334,79.38226826666667,74.0,82.0
307,79.852856,80.0293264,60.0,77.0
308,79.99991466666667,80.06057636666667,64.0,99.0
309,80.14697333333334,80.24991440000001,69.0,92.0
310,79.70579733333334,80.38410543333335,57.0,96.0
311,80.294032,80.4374142,72.0,112.0
312,79.55873866666667,80.49439943333334,52.0,77.0
313,80.44109066666667,80.58263463333334,76.0,99.0
314,79.41168,80.64329633333334,45.0,78.0
315,80.58814933333333,80.71131096666667,72.0,95.0
316,80.735208,80.89329606666668,69.0,100.0
317,80.88226666666667,81.01829593333333,76.0,112.0
318,81.02932533333333,81.13410463333334,72.0,102.0
319,81.61756000000001,81.76278043333333,54.0,112.0
320,81.76461866666668,81.8271186,57.0,107.0
321,81.91167733333334,81.99623606666667,62.0,89.0
322,82.05873600000001,82.2296917,66.0,127.0
323,82.20579466666668,82.26094166666667,69.0,117.0
324,82.35285333333334,82.55689723333334,74.0,117.0
325,82.49991200000001,82.66902946666667,78.0,127.0
326,82.64697066666668,82.71498530000001,81.0,127.0
327,81.47050133333335,82.78483816666667,50.0,92.0
328,82.79402933333334,82.8969704,86.0,112.0
329,81.32344266666668,82.95579386666667,45.0,102.0
330,82.94108800000001,82.9741762,95.0,78.0
331,81.17638400000001,82.99991146666667,38.0,85.0
332,83.382264,83.55138146666667,59.0,92.0
333,83.52932266666667,83.59366083333335,62.0,99.0
334,83.67638133333334,83.79035180000001,67.0,99.0
335,83.82344,83.97968983333334,71.0,97.0
336,83.97049866666667,84.02564566666668,74.0,112.0
337,84.11755733333334,84.27932186666668,79.0,107.0
338,83.23520533333334,84.29035126666668,55.0,81.0
339,82.94108800000001,84.35101296666667,43.0,93.0
340,84.264616,84.40983643333334,83.0,122.0
341,83.08814666666667,84.53851276666667,50.0,99.0
342,84.41167466666667,84.540351,86.0,127.0
343,84.55873333333334,84.65064500000001,83.0,99.0
344,85.146968,85.3013796,62.0,92.0
345,85.29402666666667,85.36387953333335,66.0,112.0
346,85.44108533333333,85.58079106666668,71.0,99.0
347,85.588144,85.7039527,74.0,97.0
348,84.99990933333333,85.73520266666668,59.0,79.0
349,84.85285066666667,85.79034966666667,54.0,99.0
350,85.73520266666668,85.87858486666667,78.0,127.0
351,84.705792,85.97601123333334,47.0,93.0
352,85.88226133333335,86.01645236666667,74.0,97.0
353,86.02932000000001,86.24439330000001,71.0,97.0
354,86.17637866666668,86.30873146666667,74.0,81.0
355,86.32343733333335,86.3988049,76.0,68.0
356,86.91167200000001,87.06792183333334,55.0,82.0
357,87.05873066666668,87.13593646666668,59.0,82.0
358,87.20578933333334,87.29402453333334,64.0,82.0
359,87.35284800000001,87.49071550000001,67.0,90.0
360,87.49990666666667,87.54770073333334,71.0,99.0
361,87.64696533333334,87.81975926666668,76.0,107.0
362,86.76461333333334,87.8436563,52.0,89.0
363,87.79402400000001,87.93005326666668,79.0,99.0
364,86.61755466666668,87.98887673333334,47.0,95.0
365,86.47049600000001,88.00725906666668,40.0,83.0
366,87.94108266666667,88.069759,83.0,117.0
367,88.08814133333334,88.16534713333334,79.0,95.0
368,88.676376,88.90064046666667,62.0,88.0
369,88.82343466666667,89.0017433,66.0,112.0
370,88.97049333333334,89.03299326666668,71.0,100.0
371,89.26461066666667,89.40431640000001,74.0,96.0
372,89.41166933333334,89.45762516666667,78.0,122.0
373,89.558728,89.57711033333334,81.0,88.0
374,89.558728,89.68005140000001,83.0,99.0
375,88.52931733333334,89.68924256666668,59.0,93.0
376,88.38225866666667,89.73703663333335,54.0,102.0
377,88.2352,89.79953656666667,47.0,95.0
378,89.70578666666667,89.82527183333335,86.0,85.0
379,89.85284533333333,89.9502717,90.0,127.0
380,90.44108000000001,90.60468276666667,55.0,93.0
381,90.58813866666668,90.66534446666667,59.0,100.0
382,90.73519733333335,90.85284426666668,64.0,96.0
383,90.88225600000001,91.04402053333334,67.0,97.0
384,91.02931466666668,91.08262343333334,71.0,127.0
385,91.17637333333334,91.35468196666667,76.0,102.0
386,91.32343200000001,91.46313773333334,79.0,107.0
387,90.29402133333333,91.5054171,52.0,95.0
388,90.14696266666667,91.52931413333334,47.0,88.0
389,89.999904,91.54769646666668,40.0,96.0
390,91.47049066666668,91.58629936666668,83.0,127.0
391,92.20578400000001,92.43004846666668,62.0,88.0
392,92.35284266666667,92.5311513,66.0,112.0
393,92.49990133333334,92.56240126666667,71.0,100.0
394,92.79401866666667,92.9337244,74.0,96.0
395,92.94107733333334,92.98703316666668,78.0,122.0
396,93.088136,93.10651833333334,81.0,88.0
397,93.088136,93.2094594,83.0,99.0
398,92.05872533333334,93.21865056666667,59.0,93.0
399,91.91166666666668,93.26644463333334,54.0,102.0
400,91.76460800000001,93.32894456666668,47.0,95.0
401,93.23519466666667,93.35467983333334,86.0,85.0
402,93.38225333333334,93.4796797,90.0,127.0
403,93.970488,94.13409076666667,55.0,93.0
404,94.11754666666667,94.19475246666667,59.0,100.0
405,94.26460533333334,94.38225226666667,64.0,96.0
406,94.411664,94.57342853333334,67.0,97.0
407,94.55872266666667,94.61203143333334,71.0,127.0
408,94.70578133333333,94.88408996666668,76.0,102.0
409,94.85284,94.99254573333334,79.0,107.0
410,93.82342933333334,95.0348251,52.0,95.0
411,93.67637066666667,95.05872213333335,47.0,88.0
412,93.529312,95.07710446666667,40.0,96.0
413,94.99989866666668,95.11570736666667,83.0,127.0
414,95.73519200000001,95.92636826666667,52.0,76.0
415,95.88225066666668,95.93923590000001,55.0,100.0
416,96.02930933333334,96.16166213333334,60.0,96.0
417,96.17636800000001,96.331235125,64.0,92.0
418,96.32386050000001,96.37548287500002,67.0,112.0
419,95.29401600000001,96.58381603125001,36.0,85.0
420,95.44107466666668,96.61147087500001,43.0,92.0
421,96.47135300000001,96.67968615625001,72.0,99.0
422,95.58813333333335,96.72762121875002,48.0,78.0
423,96.6188455,96.77555628125,76.0,95.0
424,96.766338,96.90276856250001,79.0,112.0
425,96.91383050000002,97.01338793750001,76.0,99.0
426,97.50380050000001,97.66604225,62.0,85.0
427,97.65129300000001,97.71582096875001,66.0,97.0
428,97.79878550000001,97.97208918750002,71.0,85.0
429,97.946278,98.08270856250002,74.0,93.0
430,97.35630800000001,98.13986190625,59.0,86.0
431,97.20881550000001,98.22467009375,54.0,99.0
432,98.0937705,98.241263,78.0,117.0
433,98.241263,98.381380875,74.0,90.0
434,97.06132300000002,98.47725100000001,47.0,82.0
435,98.38875550000002,98.55099725000001,71.0,93.0
436,98.53624800000001,98.68558415625002,78.0,127.0
437,98.68374050000001,98.80173450000001,74.0,82.0
438,99.2737105,99.45070150000001,60.0,77.0
439,99.421203,99.48204365625001,64.0,99.0
440,99.5686955,99.67194025,69.0,92.0
441,99.12621800000001,99.80652715625001,57.0,96.0
442,99.71618800000002,99.85999318750001,72.0,112.0
443,98.97872550000001,99.91714653125001,52.0,77.0
444,99.86368050000002,100.00564203125,76.0,99.0
445,98.83123300000001,100.06648268750001,45.0,78.0
446,100.01117300000001,100.13469796875,72.0,95.0
447,100.15866550000001,100.31721993750001,69.0,100.0
448,100.30615800000001,100.4425885625,76.0,112.0
449,100.45365050000001,100.55873890625001,72.0,102.0
450,100.60114300000001,101.63174684375001,50.0,78.0
451,100.60114300000001,101.68705653125001,38.0,64.0
452,100.60114300000001,101.70549309375001,45.0,72.0
453,100.60114300000001,102.34339815625,57.0,90.0
454,100.60114300000001,102.3821149375,62.0,90.0
455,100.60114300000001,102.40976978125,66.0,93.0
456,102.96102300000001,103.41640609375001,55.0,82.0
457,102.37105300000002,103.9602846875,43.0,82.0
458,102.66603800000001,104.14096300000001,50.0,72.0
459,103.84597800000002,104.14096300000001,59.0,73.0
460,103.550993,104.14096300000001,62.0,86.0
461,103.25600800000001,104.14096300000001,67.0,107.0
462,104.14096300000001,105.69147790625001,55.0,67.0
463,104.14096300000001,105.69516521875,50.0,56.0
464,104.14096300000001,105.70069618750001,43.0,63.0
465,104.14096300000001,105.74863125000002,67.0,78.0
466,104.14096300000001,105.75416221875001,71.0,76.0
467,104.14096300000001,105.76706781250002,62.0,81.0
468,109.88145700000001,110.0413833,52.0,89.0
469,110.02851566666668,110.09469206666668,55.0,93.0
470,110.17557433333334,110.28954480000002,60.0,107.0
471,110.32263300000001,110.49542693333335,64.0,92.0
472,110.46969166666668,110.52483866666668,67.0,100.0
473,110.61675033333334,110.79322073333334,72.0,93.0
474,110.76380900000001,110.91638236666668,76.0,99.0
475,110.91086766666668,111.10572040000001,79.0,112.0
476,111.05792633333334,111.21049970000001,76.0,95.0
477,111.20498500000001,111.31160253333334,72.0,117.0
478,111.35204366666667,111.53770523333334,76.0,122.0
479,111.49910233333334,111.64248453333335,72.0,89.0
480,111.646161,111.74174913333334,67.0,88.0
481,111.79321966666667,111.98623416666668,72.0,95.0
482,111.94027833333334,112.0763076,67.0,50.0
483,112.087337,112.20130746666668,64.0,82.0
484,112.23439566666667,112.42557193333334,67.0,90.0
485,109.73439833333335,112.48807186666667,48.0,95.0
486,112.38145433333334,112.50461596666668,64.0,65.0
487,109.44028100000001,112.59285116666668,36.0,85.0
488,109.58733966666668,112.64615993333334,43.0,93.0
489,112.528513,112.75277746666667,60.0,83.0
490,112.67557166666667,112.83917443333334,67.0,92.0
491,112.82263033333334,112.94946843333334,64.0,81.0
492,113.41086500000002,113.56160013333334,62.0,95.0
493,113.55792366666668,113.62410006666667,66.0,99.0
494,113.70498233333335,113.85020276666668,71.0,95.0
495,113.85204100000001,114.01932023333335,74.0,82.0
496,113.99909966666668,114.05608490000002,78.0,89.0
497,114.14615833333335,114.30056993333335,83.0,88.0
498,114.29321700000001,114.43108450000001,86.0,52.0
499,112.96968900000002,114.57998140000001,47.0,69.0
500,114.44027566666668,114.66821660000001,90.0,112.0
501,114.58733433333335,114.71601066666668,86.0,90.0
502,113.11674766666668,114.75277533333335,54.0,92.0
503,113.26380633333335,114.75829003333334,59.0,86.0
504,114.73439300000001,114.80240763333335,83.0,107.0
505,115.32262766666668,115.86123003333334,59.0,82.0
506,115.61674500000001,115.93292113333334,78.0,99.0
507,115.02851033333334,115.97887696666668,54.0,77.0
508,114.73439300000001,116.23622963333334,47.0,48.0
509,116.20497966666667,116.26931783333335,78.0,23.0
510,115.91086233333334,116.38512653333335,74.0,83.0
511,116.20497966666667,116.38880300000001,71.0,85.0
512,116.940273,117.11122870000001,60.0,61.0
513,117.08733166666667,117.16453746666667,64.0,92.0
514,117.23439033333335,117.35019903333334,69.0,99.0
515,117.381449,117.58181643333334,72.0,99.0
516,116.79321433333334,117.79137503333334,57.0,88.0
517,117.67556633333334,118.0542424,76.0,102.0
518,116.499097,118.07630120000002,45.0,79.0
519,117.96968366666668,118.22703633333334,72.0,97.0
520,116.64615566666667,118.27666863333334,52.0,78.0
521,118.55791833333335,118.93475616666667,52.0,63.0
522,118.26380100000002,118.98255023333334,45.0,71.0
523,118.85203566666668,119.18291766666668,57.0,93.0
524,119.14615300000001,119.94762273333335,64.0,107.0
525,119.44027033333334,119.9623286,60.0,97.0
526,119.73438766666668,119.98806386666668,57.0,100.0
527,120.61673966666667,120.78953360000001,57.0,79.0
528,120.76379833333334,120.83548943333335,60.0,93.0
529,120.91085700000001,121.03401863333335,65.0,107.0
530,121.05791566666667,121.23254783333334,69.0,88.0
531,121.20497433333334,121.27298896666667,72.0,117.0
532,121.352033,121.50828283333334,77.0,90.0
533,121.49909166666667,121.65901796666668,81.0,75.0
534,121.64615033333334,121.81526780000002,84.0,127.0
535,121.793209,121.89798830000001,81.0,102.0
536,122.08732633333335,122.41269363333335,72.0,107.0
537,122.38144366666668,122.67372276666669,69.0,81.0
538,122.67556100000002,122.75460503333335,65.0,95.0
539,120.46968100000001,123.03217826666668,53.0,86.0
540,122.96967833333335,123.26931036666667,60.0,97.0
541,123.26379566666668,123.35754556666667,57.0,96.0
542,120.02850500000001,123.39614846666667,41.0,88.0
543,120.32262233333334,123.41453080000001,48.0,100.0
544,124.44026500000001,124.76011760000002,55.0,78.0
545,124.73438233333334,124.81158813333334,59.0,90.0
546,125.02849966666668,125.35570520000002,64.0,73.0
547,125.32261700000001,125.63511666666668,67.0,86.0
548,125.61673433333334,125.70313130000001,71.0,73.0
549,124.14614766666668,126.05974856666668,52.0,89.0
550,125.91085166666667,126.13879260000002,76.0,63.0
551,123.85203033333335,126.32077770000001,47.0,93.0
552,123.55791300000001,126.3428365,40.0,95.0
553,126.204969,126.5193069,79.0,107.0
554,126.49908633333334,126.92004176666669,83.0,102.0
555,126.79320366666667,127.08364453333334,79.0,102.0
556,127.96967300000001,128.25459916666668,54.0,73.0
557,128.26379033333333,128.33731966666667,57.0,78.0
558,128.55790766666667,129.03033363333336,62.0,86.0
559,128.85202500000003,129.1994511,66.0,93.0
560,129.14614233333333,129.23070106666668,69.0,92.0
561,127.67555566666668,129.5560683666667,50.0,75.0
562,127.38143833333335,129.61489183333333,45.0,63.0
563,127.087321,129.67371530000003,38.0,82.0
564,129.4402596666667,129.67371530000003,74.0,92.0
565,129.73437700000002,130.04136196666667,78.0,127.0
566,130.3226116666667,130.62040546666668,78.0,96.0
567,130.02849433333336,130.62040546666668,81.0,107.0
568,131.49908100000002,131.8023895,52.0,75.0
569,131.79319833333335,131.86488943333336,55.0,79.0
570,132.38143300000002,133.1020204666667,67.0,69.0
571,132.38143300000002,133.2564320666667,64.0,65.0
572,131.20496366666669,133.34834373333334,48.0,97.0
573,132.08731566666668,133.38143193333335,60.0,90.0
574,130.61672900000002,133.59099053333335,36.0,89.0
575,130.91084633333335,133.6553287,43.0,92.0
576,133.55790233333335,134.17187226666667,64.0,86.0
577,133.263785,134.17554873333336,67.0,82.0
578,133.85201966666668,134.21415163333336,60.0,75.0
579,135.028489,135.41267976666668,57.0,96.0
580,135.32260633333334,135.90900276666667,62.0,73.0
581,135.61672366666667,135.9549586,64.0,74.0
582,135.910841,136.00091443333335,66.0,82.0
583,134.73437166666668,136.94025166666668,50.0,82.0
584,134.44025433333334,137.01561923333335,45.0,79.0
585,134.146137,137.08914856666667,38.0,83.0
586,136.49907566666667,137.70128026666669,74.0,40.0
587,136.793193,137.71598613333333,78.0,57.0
588,136.20495833333334,137.72885376666667,69.0,69.0
589,137.96966233333336,138.6516469,50.0,51.0
590,137.675545,138.78583793333334,43.0,72.0
591,138.55789700000003,139.40899903333334,62.0,97.0
592,138.26377966666666,139.41083726666668,55.0,59.0
593,140.0284836666667,140.46965966666667,52.0,50.0
594,140.32260100000002,140.5487037,59.0,41.0
595,139.440249,140.75642406666668,40.0,79.0
596,139.73436633333336,140.7582623,47.0,41.0
597,140.61671833333335,141.1994383,64.0,59.0
598,140.32260100000002,141.23987943333333,67.0,90.0
599,141.20495300000002,142.38326056666668,36.0,66.0
600,141.49907033333335,142.43105463333336,43.0,53.0
601,141.79318766666668,142.66818673333336,48.0,72.0
602,142.67553966666668,142.94208350000002,55.0,58.0
603,142.38142233333335,142.94208350000002,60.0,72.0
604,142.08730500000001,142.9843628666667,64.0,96.0
605,143.55789166666668,144.06340583333335,55.0,73.0
606,142.969657,144.47700833333334,43.0,66.0
607,143.26377433333334,144.49539066666668,50.0,62.0
608,144.14612633333334,144.71965513333333,67.0,73.0
609,144.44024366666667,144.75825803333333,62.0,85.0
610,143.852009,144.75825803333333,71.0,96.0
611,144.734361,145.78215400000002,36.0,77.0
612,145.02847833333334,145.81340396666667,43.0,53.0
613,145.32259566666667,145.91450680000003,48.0,64.0
614,145.616713,146.40347686666667,67.0,102.0
615,145.91083033333334,146.42185920000003,64.0,78.0
616,146.20494766666667,146.5799472666667,60.0,79.0
617,146.79318233333333,147.66634316666668,54.0,67.0
618,146.49906500000003,147.95862226666668,47.0,66.0
619,147.381417,148.07259273333335,69.0,75.0
620,147.67553433333336,148.1755338,66.0,71.0
621,147.96965166666666,148.2141367,62.0,65.0
622,147.0872996666667,148.23251903333335,59.0,81.0
623,148.8520036666667,149.18840036666668,60.0,90.0
624,148.55788633333333,149.3428119666667,55.0,46.0
625,148.26376900000002,149.52295883333335,48.0,89.0
626,149.7343556666667,150.0560465,59.0,47.0
627,149.44023833333335,150.08545823333336,55.0,81.0
628,149.14612100000002,150.1167082,64.0,96.0
629,150.02847300000002,151.34464806666668,38.0,69.0
630,150.32259033333335,151.37957450000002,45.0,58.0
631,150.61670766666668,151.51192730000002,50.0,79.0
632,151.20494233333335,151.62957423333336,62.0,65.0
633,150.91082500000002,151.75273586666668,66.0,127.0
634,151.49905966666668,151.76744173333336,57.0,88.0
635,152.38141166666668,152.7527348,63.0,107.0
636,152.08729433333335,152.82626413333335,59.0,75.0
637,151.79317700000001,153.0762638666667,51.0,100.0
638,152.675529,153.58545450000003,66.0,117.0
639,152.96964633333334,153.64795443333335,63.0,107.0
640,153.26376366666668,153.6571456,59.0,58.0
641,153.557881,154.41633596666668,47.0,73.0
642,153.85199833333334,154.45310063333335,54.0,72.0
643,154.14611566666667,154.59648283333334,59.0,66.0
644,154.73435033333334,155.25457036666668,63.0,83.0
645,154.440233,155.27662916666668,66.0,99.0
646,155.02846766666667,156.19390760000002,59.0,62.0
647,155.91081966666667,156.4071426666667,52.0,70.0
648,155.61670233333334,156.55787780000003,47.0,58.0
649,155.322585,156.80420106666668,40.0,69.0
650,156.49905433333333,156.9714803,64.0,83.0
651,156.20493700000003,156.98802440000003,67.0,112.0
652,156.7931716666667,157.094663625,59.0,86.0
653,157.677259,157.99252421875,50.0,89.0
654,157.382274,158.259854375,45.0,39.0
655,157.087289,158.2967275,38.0,76.0
656,157.972244,158.75579790625,66.0,112.0
657,158.267229,158.78898371875,62.0,90.0
658,158.562214,158.89222846875,57.0,95.0
659,159.152184,160.17910053125,43.0,37.0
660,158.857199,160.192006125,36.0,77.0
661,159.447169,160.265752375,48.0,81.0
662,160.037139,160.31921840625,55.0,83.0
663,159.742154,160.5717993125,64.0,100.0
664,160.332124,160.58839221875,60.0,102.0
665,160.922094,161.53596103333334,54.0,76.0
666,160.627109,161.64074033333335,47.0,79.0
667,161.217079,161.64809326666668,59.0,88.0
668,161.80618133333334,162.33007783333335,62.0,85.0
669,161.512064,162.34846016666668,66.0,117.0
670,162.10029866666667,162.4385336,59.0,96.0
671,162.68853333333334,163.24735626666669,52.0,81.0
672,162.394416,163.3374297,45.0,92.0
673,162.98265066666667,163.38890023333335,57.0,95.0
674,163.57088533333334,163.85581150000002,60.0,107.0
675,163.276768,163.8888997,64.0,122.0
676,163.86500266666667,164.2620610666667,57.0,112.0
677,164.74735466666667,165.03779553333334,57.0,93.0
678,165.041472,165.1830159666667,62.0,95.0
679,164.15912,165.41830983333335,38.0,96.0
680,164.74735466666667,165.42382453333335,50.0,95.0
681,164.45323733333333,165.45323626666666,45.0,97.0
682,165.041472,165.70139776666667,66.0,127.0
683,165.33558933333333,165.79330943333335,62.0,127.0
684,165.62970666666666,165.86867700000002,57.0,102.0
685,166.365,166.5341174666667,59.0,92.0
686,166.5120586666667,166.57639683333335,62.0,99.0
687,166.65911733333334,166.7730878,67.0,99.0
688,166.80617600000002,166.96242583333336,71.0,97.0
689,166.95323466666667,167.00838166666668,74.0,112.0
690,167.10029333333335,167.26205786666668,79.0,107.0
691,166.21794133333333,167.27308726666666,55.0,81.0
692,165.923824,167.3337489666667,43.0,93.0
693,167.247352,167.39257243333336,83.0,122.0
694,166.07088266666668,167.52124876666667,50.0,99.0
695,167.3944106666667,167.523087,86.0,127.0
696,167.54146933333334,167.633381,83.0,99.0
697,168.129704,168.2841156,62.0,92.0
698,168.27676266666668,168.34661553333333,66.0,112.0
699,168.42382133333334,168.56352706666667,71.0,99.0
700,168.57088000000002,168.68668870000002,74.0,97.0
701,167.98264533333335,168.71793866666667,59.0,79.0
702,167.83558666666667,168.77308566666667,54.0,99.0
703,168.71793866666667,168.8613208666667,78.0,127.0
704,167.68852800000002,168.95874723333336,47.0,93.0
705,168.86499733333335,168.9991883666667,74.0,97.0
706,169.012056,169.2271293,71.0,97.0
707,169.15911466666668,169.2914674666667,74.0,81.0
708,169.30617333333333,169.3815409,76.0,68.0
709,169.894408,170.05065783333333,55.0,82.0
710,170.04146666666668,170.11867246666668,59.0,82.0
711,170.18852533333333,170.27676053333334,64.0,82.0
712,170.335584,170.4734515,67.0,90.0
713,170.48264266666666,170.53043673333335,71.0,99.0
714,170.62970133333334,170.80249526666668,76.0,107.0
715,169.74734933333335,170.8263923,52.0,89.0
716,170.77676000000002,170.91278926666666,79.0,99.0
717,169.60029066666667,170.97161273333333,47.0,95.0
718,169.453232,170.98999506666667,40.0,83.0
719,170.92381866666668,171.05249500000002,83.0,117.0
720,171.07087733333336,171.14808313333333,79.0,95.0
721,171.65911200000002,171.88337646666668,62.0,88.0
722,171.80617066666667,171.9844793,66.0,112.0
723,171.95322933333335,172.01572926666668,71.0,100.0
724,172.2473466666667,172.38705240000002,74.0,96.0
725,172.39440533333334,172.44036116666666,78.0,122.0
726,172.54146400000002,172.55984633333335,81.0,88.0
727,172.54146400000002,172.6627874,83.0,99.0
728,171.51205333333334,172.67197856666667,59.0,93.0
729,171.3649946666667,172.71977263333335,54.0,102.0
730,171.217936,172.78227256666668,47.0,95.0
731,172.68852266666667,172.80800783333333,86.0,85.0
732,172.83558133333335,172.93300770000002,90.0,127.0
733,173.42381600000002,173.58741876666667,55.0,93.0
734,173.57087466666667,173.64808046666667,59.0,100.0
735,173.71793333333335,173.83558026666668,64.0,96.0
736,173.864992,174.02675653333336,67.0,97.0
737,174.01205066666668,174.06535943333336,71.0,127.0
738,174.15910933333333,174.3374179666667,76.0,102.0
739,174.306168,174.44587373333334,79.0,107.0
740,173.27675733333334,174.4881531,52.0,95.0
741,173.12969866666668,174.51205013333333,47.0,88.0
742,172.98264,174.53043246666667,40.0,96.0
743,174.45322666666667,174.56903536666667,83.0,127.0
744,175.18852,175.41278446666666,62.0,88.0
745,175.33557866666666,175.51388730000002,66.0,112.0
746,175.48263733333334,175.54513726666667,71.0,100.0
747,175.77675466666668,175.9164604,74.0,96.0
748,175.92381333333336,175.96976916666668,78.0,122.0
749,176.070872,176.08925433333334,81.0,88.0
750,176.070872,176.1921954,83.0,99.0
751,175.04146133333333,176.20138656666668,59.0,93.0
752,174.89440266666668,176.24918063333334,54.0,102.0
753,174.747344,176.31168056666667,47.0,95.0
754,176.2179306666667,176.33741583333335,86.0,85.0
755,176.36498933333334,176.4624157,90.0,127.0
756,176.953224,177.1168267666667,55.0,93.0
757,177.1002826666667,177.1774884666667,59.0,100.0
758,177.24734133333334,177.36498826666667,64.0,96.0
759,177.39440000000002,177.55616453333334,67.0,97.0
760,177.54145866666667,177.59476743333335,71.0,127.0
761,177.68851733333335,177.86682596666668,76.0,102.0
762,177.835576,177.97528173333333,79.0,107.0
763,176.80616533333335,178.01756110000002,52.0,95.0
764,176.65910666666667,178.04145813333335,47.0,88.0
765,176.51204800000002,178.05984046666669,40.0,96.0
766,177.98263466666668,178.0984433666667,83.0,127.0
767,178.717928,178.90910426666667,52.0,76.0
768,178.86498666666668,178.92197190000002,55.0,100.0
769,179.01204533333333,179.14439813333334,60.0,96.0
770,179.159104,179.31351560000002,64.0,92.0
771,179.30616266666667,179.3576332,67.0,112.0
772,178.27675200000002,179.5653535666667,36.0,85.0
773,178.42381066666667,179.59292706666668,43.0,92.0
774,179.45322133333335,179.66094170000002,72.0,99.0
775,178.57086933333335,179.70873576666668,48.0,78.0
776,179.60028,179.75652983333333,76.0,95.0
777,179.74733866666668,179.88336793333335,79.0,112.0
778,179.89439733333336,179.99366193333333,76.0,99.0
779,180.483282,180.64528486666669,62.0,85.0
780,180.63055733333334,180.69499029166667,66.0,97.0
781,180.77783266666668,180.95088118333334,71.0,85.0
782,180.92510800000002,181.06133768333333,74.0,93.0
783,180.3360066666667,181.118406875,59.0,86.0
784,180.18873133333335,181.2030901916667,54.0,99.0
785,181.07238333333333,181.21965866666667,78.0,117.0
786,181.21965866666667,181.35957023333336,74.0,90.0
787,180.041456,181.4552992,47.0,82.0
788,181.36693400000001,181.52893686666667,71.0,93.0
789,181.51420933333335,181.66332560833334,78.0,127.0
790,181.66148466666667,181.77930493333335,74.0,82.0
791,182.250586,182.42731640000002,60.0,77.0
792,182.39786133333334,182.45861240833335,64.0,99.0
793,182.54513666666668,182.64822940000002,69.0,92.0
794,182.1033106666667,182.7826181416667,57.0,96.0
795,182.69241200000002,182.83600545000002,72.0,112.0
796,181.95603533333335,182.8930746416667,52.0,77.0
797,182.83968733333333,182.98143984166668,76.0,99.0
798,181.80876,183.04219091666667,45.0,78.0
799,182.98696266666667,183.11030575833334,72.0,95.0
800,183.134238,183.29255898333335,69.0,100.0
801,183.28151333333335,183.4177430166667,76.0,112.0
802,183.4287886666667,183.53372234166667,72.0,102.0
803,184.01789000000002,184.1633243916667,54.0,112.0
804,184.16516533333333,184.22775735000002,57.0,107.0
805,184.31244066666667,184.39712398333336,62.0,89.0
806,184.45971600000001,184.630923575,66.0,127.0
807,184.60699133333335,184.66221958333335,69.0,117.0
808,184.75426666666667,184.95861119166668,74.0,117.0
809,184.901542,185.07090863333335,78.0,127.0
810,185.04881733333335,185.11693217500002,81.0,127.0
811,183.87061466666668,185.18688795833336,50.0,92.0
812,185.1960926666667,185.2991854,86.0,112.0
813,183.72333933333334,185.35809553333334,45.0,102.0
814,185.343368,185.37650495,95.0,78.0
815,183.576064,185.40227813333334,38.0,85.0
816,185.78519400000002,185.95456063333336,59.0,92.0
817,185.93246933333336,185.9969022916667,62.0,99.0
818,186.07974466666667,186.19388305,67.0,99.0
819,186.22702,186.38350004166668,71.0,97.0
820,186.37429533333335,186.42952358333335,74.0,112.0
821,186.5215706666667,186.68357353333334,79.0,107.0
822,185.63791866666668,186.69461918333334,55.0,81.0
823,185.343368,186.75537025833336,43.0,93.0
824,186.668846,186.81428039166667,83.0,122.0
825,185.49064333333334,186.94314630833335,50.0,99.0
826,186.81612133333334,186.94498725,86.0,127.0
827,186.96339666666668,187.05544375000002,83.0,99.0
828,187.552498,187.7071371,62.0,92.0
829,187.69977333333335,187.76972911666667,66.0,112.0
830,187.84704866666667,187.98696023333335,71.0,99.0
831,187.994324,188.11030332500002,74.0,97.0
832,187.40522266666667,188.14159933333335,59.0,79.0
833,187.25794733333333,188.19682758333335,54.0,99.0
834,188.14159933333335,188.28519278333334,78.0,127.0
835,187.11067200000002,188.38276269166667,47.0,93.0
836,188.2888746666667,188.42326340833336,74.0,97.0
837,188.43615,188.651540175,71.0,97.0
838,188.58342533333334,188.71597313333334,74.0,81.0
839,188.73070066666668,188.806179275,76.0,68.0
840,189.319802,189.47628204166668,55.0,82.0
841,189.46707733333335,189.54439688333335,59.0,82.0
842,189.6143526666667,189.7027178666667,64.0,82.0
843,189.761628,189.899698625,67.0,90.0
844,189.90890333333334,189.95676781666668,71.0,99.0
845,190.05617866666668,190.22922718333334,76.0,107.0
846,189.17252666666667,190.253159425,52.0,89.0
847,190.20345400000002,190.33968368333333,79.0,99.0
848,189.02525133333336,190.39859381666668,47.0,95.0
849,188.87797600000002,190.41700323333333,40.0,83.0
850,190.35072933333333,190.47959525000002,83.0,117.0
851,190.49800466666667,190.57532421666667,79.0,95.0
852,191.087106,191.31170088333334,62.0,88.0
853,191.23438133333335,191.412952675,66.0,112.0
854,191.3816566666667,191.44424868333334,71.0,100.0
855,191.67620733333334,191.81611890000002,74.0,96.0
856,191.82348266666668,191.86950620833335,78.0,122.0
857,191.97075800000002,191.98916741666667,81.0,88.0
858,191.97075800000002,192.09226015000002,83.0,99.0
859,190.93983066666667,192.10146485833334,59.0,93.0
860,190.79255533333335,192.1493293416667,54.0,102.0
861,190.64528,192.21192135833334,47.0,95.0
862,192.11803333333336,192.23769454166668,86.0,85.0
863,192.26530866666667,192.36287857500002,90.0,127.0
864,192.85441,193.01825380833336,55.0,93.0
865,193.00168533333334,193.07900488333334,59.0,100.0
866,193.14896066666668,193.26678093333334,64.0,96.0
867,193.29623600000002,193.45823886666668,67.0,97.0
868,193.44351133333333,193.4968986416667,71.0,127.0
869,193.59078666666667,193.76935800833334,76.0,102.0
870,193.738062,193.87797356666667,79.0,107.0
871,192.7071346666667,193.92031522500002,52.0,95.0
872,192.55985933333335,193.94424746666667,47.0,88.0
873,192.412584,193.96265688333335,40.0,96.0
874,193.88533733333335,194.00131665833334,83.0,127.0
875,194.621714,194.84630888333334,62.0,88.0
876,194.76898933333334,194.947560675,66.0,112.0
877,194.91626466666668,194.97885668333333,71.0,100.0
878,195.21081533333336,195.3507269,74.0,96.0
879,195.35809066666667,195.40411420833334,78.0,122.0
880,195.505366,195.52377541666667,81.0,88.0
881,195.505366,195.62686815,83.0,99.0
882,194.47443866666669,195.63607285833334,59.0,93.0
883,194.32716333333335,195.68393734166668,54.0,102.0
884,194.179888,195.74652935833333,47.0,95.0
885,195.65264133333335,195.77230254166668,86.0,85.0
886,195.7999166666667,195.89748657500002,90.0,127.0
887,196.38901800000002,196.55286180833335,55.0,93.0
888,196.53629333333333,196.61361288333336,59.0,100.0
889,196.68356866666667,196.80138893333336,64.0,96.0
890,196.830844,196.99284686666667,67.0,97.0
891,196.97811933333335,197.03150664166668,71.0,127.0
892,197.1253946666667,197.30396600833333,76.0,102.0
893,197.27267,197.4125815666667,79.0,107.0
894,196.24174266666668,197.45492322500002,52.0,95.0
895,196.09446733333334,197.4788554666667,47.0,88.0
896,195.947192,197.49726488333334,40.0,96.0
897,197.41994533333335,197.53592465833336,83.0,127.0
898,198.15632200000002,198.34777993333336,52.0,76.0
899,198.30359733333336,198.360666525,55.0,100.0
900,198.45087266666667,198.58342046666667,60.0,96.0
901,198.598148,198.7527871,64.0,92.0
902,198.74542333333335,198.7969697,67.0,112.0
903,197.714496,199.00499610833333,36.0,85.0
904,197.86177133333334,199.03261023333334,43.0,92.0
905,198.8926986666667,199.100725075,72.0,99.0
906,198.00904666666668,199.14858955833336,48.0,78.0
907,199.039974,199.19645404166667,76.0,95.0
908,199.18724933333334,199.32347901666668,79.0,112.0
909,199.33452466666668,199.43393551666668,76.0,99.0
910,199.923626,200.08562886666667,62.0,85.0
911,200.07090133333335,200.13533429166668,66.0,97.0
912,200.2181766666667,200.39122518333335,71.0,85.0
913,200.365452,200.50168168333335,74.0,93.0
914,199.77635066666667,200.55875087500002,59.0,86.0
915,199.62907533333333,200.64343419166667,54.0,99.0
916,200.51272733333334,200.66000266666668,78.0,117.0
917,200.66000266666668,200.79991423333334,74.0,90.0
918,199.48180000000002,200.89564320000002,47.0,82.0
919,200.807278,200.96928086666668,71.0,93.0
920,200.95455333333334,201.10366960833335,78.0,127.0
921,201.10182866666668,201.21964893333336,74.0,82.0
922,201.69093,201.8676604,60.0,77.0
923,201.83820533333335,201.89895640833333,64.0,99.0
924,201.9854806666667,202.0885734,69.0,92.0
925,201.54365466666667,202.22296214166667,57.0,96.0
926,202.132756,202.27634945,72.0,112.0
927,201.39637933333336,202.33341864166667,52.0,77.0
928,202.28003133333334,202.42178384166667,76.0,99.0
929,201.24910400000002,202.48253491666668,45.0,78.0
930,202.42730666666668,202.55064975833335,72.0,95.0
931,202.57458200000002,202.73290298333336,69.0,100.0
932,202.72185733333333,202.85808701666667,76.0,112.0
933,202.86913266666667,202.97406634166668,72.0,102.0
934,203.016408,204.0454943916667,50.0,78.0
935,203.016408,204.10072264166666,38.0,64.0
936,203.016408,204.11913205833335,45.0,72.0
937,203.016408,204.75609787500002,57.0,90.0
938,203.016408,204.79475765,62.0,90.0
939,203.016408,204.82237177500002,66.0,93.0
940,205.37281333333334,205.827525925,55.0,82.0
941,204.783712,206.37060371666666,43.0,82.0
942,205.0782626666667,206.551016,50.0,72.0
943,206.25646533333335,206.551016,59.0,73.0
944,205.96191466666667,206.551016,62.0,86.0
945,205.66736400000002,206.551016,67.0,107.0
946,206.551016,207.2708241916667,43.0,55.0
947,206.551016,207.30580208333333,50.0,56.0
948,206.551016,207.307643025,55.0,79.0
949,206.551016,207.32052961666668,71.0,59.0
950,206.551016,207.33893903333336,62.0,69.0
951,206.551016,207.34262091666668,67.0,67.0
952,207.43466800000002,207.75130996666667,55.0,88.0
953,207.43466800000002,207.84151610833334,50.0,79.0
954,207.43466800000002,207.8507208166667,43.0,57.0
955,207.43466800000002,207.95933637500002,71.0,79.0
956,207.43466800000002,207.9611773166667,67.0,89.0
957,207.43466800000002,208.0090418,62.0,90.0
958,208.31832000000003,208.43798120833335,66.0,49.0
959,208.31832000000003,208.445344975,50.0,53.0
960,208.31832000000003,208.45270874166667,62.0,47.0
961,208.31832000000003,208.45270874166667,69.0,50.0
962,208.31832000000003,208.47295910000003,45.0,55.0
963,208.31832000000003,208.47480004166667,38.0,52.0
964,208.61287066666668,208.72700905000002,38.0,40.0
965,208.61287066666668,208.74725940833335,50.0,55.0
966,208.61287066666668,208.74910035000002,45.0,50.0
967,208.61287066666668,208.75278223333333,66.0,46.0
968,208.61287066666668,208.76014600000002,62.0,42.0
969,208.61287066666668,208.7619869416667,69.0,48.0
970,208.90742133333333,209.02155971666667,38.0,55.0
971,208.90742133333333,209.04733290000001,69.0,61.0
972,208.90742133333333,209.0491738416667,50.0,59.0
973,208.90742133333333,209.052855725,66.0,47.0
974,208.90742133333333,209.063901375,45.0,55.0
975,208.90742133333333,209.0712651416667,62.0,58.0
976,209.201972,209.33820168333335,50.0,77.0
977,209.201972,209.34372450833334,45.0,86.0
978,209.201972,209.34556545,62.0,76.0
979,209.201972,209.34924733333335,66.0,83.0
980,209.201972,209.35477015833334,69.0,77.0
981,209.4965226666667,209.62354764166668,50.0,71.0
982,209.4965226666667,209.62722952500002,38.0,64.0
983,209.4965226666667,209.63091140833336,45.0,77.0
984,209.4965226666667,209.63459329166668,66.0,74.0
985,209.4965226666667,209.63827517500002,69.0,73.0
986,209.4965226666667,209.643798,62.0,72.0
987,209.79107333333334,209.914416425,38.0,78.0
988,209.79107333333334,209.91625736666668,45.0,93.0
989,209.79107333333334,209.91625736666668,50.0,83.0
990,209.79107333333334,209.92362113333334,66.0,95.0
991,209.79107333333334,209.92362113333334,69.0,86.0
992,209.79107333333334,209.92730301666668,62.0,92.0
993,210.08562400000002,210.19976238333334,45.0,102.0
994,210.08562400000002,210.201603325,38.0,86.0
995,210.08562400000002,210.20528520833335,50.0,93.0
996,210.08562400000002,210.21817180000002,66.0,107.0
997,210.08562400000002,210.223694625,69.0,92.0
998,210.08562400000002,210.22553556666668,62.0,93.0
999,210.38017466666668,210.4961539916667,45.0,102.0
1000,210.38017466666668,210.50167681666667,50.0,90.0
1001,210.38017466666668,210.5182452916667,38.0,90.0
1002,210.38017466666668,210.52560905833334,62.0,97.0
1003,210.38017466666668,210.52560905833334,66.0,117.0
1004,210.38017466666668,210.53481376666667,69.0,96.0
1005,210.67472533333336,210.80175030833334,45.0,112.0
1006,210.67472533333336,210.81095501666667,38.0,85.0
1007,210.67472533333336,210.81095501666667,50.0,96.0
1008,210.67472533333336,210.82015972500002,66.0,117.0
1009,210.67472533333336,210.82936443333335,62.0,100.0
1010,210.67472533333336,210.82936443333335,69.0,97.0
1011,210.969276,211.08893720833333,45.0,85.0
1012,210.969276,211.09446003333335,50.0,90.0
1013,210.969276,211.10366474166668,62.0,96.0
1014,210.969276,211.11655133333335,38.0,78.0
1015,210.969276,211.1239151,66.0,112.0
1016,210.969276,211.12759698333335,69.0,96.0
1017,211.2638266666667,211.37612410833336,45.0,97.0
1018,211.2638266666667,211.38716975833336,50.0,95.0
1019,211.2638266666667,211.38901070000003,38.0,79.0
1020,211.2638266666667,211.39821540833336,62.0,93.0
1021,211.2638266666667,211.40005635,66.0,107.0
1022,211.2638266666667,211.416624825,69.0,93.0
1023,211.55837733333334,211.59887805000002,38.0,82.0
1024,211.55837733333334,211.648583475,45.0,95.0
1025,211.55837733333334,211.6559472416667,50.0,117.0
1026,211.55837733333334,211.65778818333334,66.0,122.0
1027,211.55837733333334,211.68356136666668,62.0,107.0
1028,211.55837733333334,211.68540230833335,69.0,100.0
1029,212.294754,212.46412063333335,59.0,92.0
1030,212.44202933333335,212.50646229166668,62.0,99.0
1031,212.5893046666667,212.70344305,67.0,99.0
1032,212.73658,212.89306004166667,71.0,97.0
1033,212.88385533333334,212.93908358333334,74.0,112.0
1034,213.03113066666668,213.19313353333334,79.0,107.0
1035,212.14747866666667,213.20417918333334,55.0,81.0
1036,211.85292800000002,213.26493025833335,43.0,93.0
1037,213.178406,213.3238403916667,83.0,122.0
1038,212.00020333333333,213.45270630833335,50.0,99.0
1039,213.32568133333334,213.45454725000002,86.0,127.0
1040,213.47295666666668,213.56500375000002,83.0,99.0
1041,214.062058,214.2166971,62.0,92.0
1042,214.20933333333335,214.2792891166667,66.0,112.0
1043,214.3566086666667,214.49652023333334,71.0,99.0
1044,214.50388400000003,214.619863325,74.0,97.0
1045,213.91478266666667,214.65115933333334,59.0,79.0
1046,213.76750733333336,214.70638758333334,54.0,99.0
1047,214.65115933333334,214.79475278333334,78.0,127.0
1048,213.62023200000002,214.89232269166666,47.0,93.0
1049,214.79843466666668,214.93282340833335,74.0,97.0
1050,214.94571000000002,215.161100175,71.0,97.0
1051,215.09298533333333,215.22553313333333,74.0,81.0
1052,215.24026066666667,215.315739275,76.0,68.0
1053,215.829362,215.98584204166667,55.0,82.0
1054,215.97663733333334,216.05395688333334,59.0,82.0
1055,216.12391266666668,216.21227786666668,64.0,82.0
1056,216.271188,216.409258625,67.0,90.0
1057,216.41846333333336,216.46632781666668,71.0,99.0
1058,216.56573866666668,216.73878718333333,76.0,107.0
1059,215.6820866666667,216.762719425,52.0,89.0
1060,216.71301400000002,216.84924368333336,79.0,99.0
1061,215.53481133333335,216.90815381666667,47.0,95.0
1062,215.387536,216.92656323333335,40.0,83.0
1063,216.86028933333336,216.98915525,83.0,117.0
1064,217.00756466666667,217.0848842166667,79.0,95.0
1065,217.59666600000003,217.82126088333334,62.0,88.0
1066,217.74394133333334,217.922512675,66.0,112.0
1067,217.89121666666668,217.95380868333336,71.0,100.0
1068,218.18576733333333,218.3256789,74.0,96.0
1069,218.33304266666667,218.37906620833334,78.0,122.0
1070,218.480318,218.49872741666667,81.0,88.0
1071,218.480318,218.60182015,83.0,99.0
1072,217.4493906666667,218.61102485833334,59.0,93.0
1073,217.30211533333335,218.65888934166668,54.0,102.0
1074,217.15484,218.72148135833334,47.0,95.0
1075,218.62759333333335,218.74725454166668,86.0,85.0
1076,218.7748686666667,218.87243857500002,90.0,127.0
1077,219.36397000000002,219.52781380833335,55.0,93.0
1078,219.51124533333336,219.58856488333333,59.0,100.0
1079,219.65852066666667,219.77634093333336,64.0,96.0
1080,219.80579600000002,219.96779886666667,67.0,97.0
1081,219.95307133333336,220.00645864166668,71.0,127.0
1082,220.10034666666667,220.27891800833333,76.0,102.0
1083,220.247622,220.3875335666667,79.0,107.0
1084,219.21669466666668,220.42987522500002,52.0,95.0
1085,219.06941933333334,220.4538074666667,47.0,88.0
1086,218.922144,220.47221688333335,40.0,96.0
1087,220.39489733333335,220.51087665833336,83.0,127.0
1088,221.13127400000002,221.35586888333336,62.0,88.0
1089,221.27854933333333,221.457120675,66.0,112.0
1090,221.42582466666667,221.48841668333336,71.0,100.0
1091,221.72037533333335,221.8602869,74.0,96.0
1092,221.8676506666667,221.91367420833336,78.0,122.0
1093,222.014926,222.0333354166667,81.0,88.0
1094,222.014926,222.13642815000003,83.0,99.0
1095,220.98399866666668,222.14563285833333,59.0,93.0
1096,220.83672333333334,222.19349734166667,54.0,102.0
1097,220.68944800000003,222.25608935833336,47.0,95.0
1098,222.16220133333334,222.28186254166667,86.0,85.0
1099,222.30947666666668,222.407046575,90.0,127.0
1100,222.89857800000001,223.06242180833334,55.0,93.0
1101,223.04585333333335,223.12317288333335,59.0,100.0
1102,223.19312866666667,223.31094893333335,64.0,96.0
1103,223.340404,223.5024068666667,67.0,97.0
1104,223.48767933333335,223.54106664166667,71.0,127.0
1105,223.6349546666667,223.81352600833335,76.0,102.0
1106,223.78223000000003,223.92214156666668,79.0,107.0
1107,222.75130266666667,223.964483225,52.0,95.0
1108,222.60402733333336,223.98841546666668,47.0,88.0
1109,222.45675200000002,224.00682488333334,40.0,96.0
1110,223.92950533333334,224.04548465833335,83.0,127.0
1111,224.665882,224.85733993333335,52.0,76.0
1112,224.81315733333335,224.87022652500002,55.0,100.0
1113,224.9604326666667,225.0929804666667,60.0,96.0
1114,225.107708,225.2623471,64.0,92.0
1115,225.25498333333334,225.3065297,67.0,112.0
1116,224.22405600000002,225.51455610833335,36.0,85.0
1117,224.37133133333333,225.54217023333334,43.0,92.0
1118,225.40225866666668,225.610285075,72.0,99.0
1119,224.51860666666667,225.65814955833335,48.0,78.0
1120,225.54953400000002,225.70601404166666,76.0,95.0
1121,225.69680933333336,225.83303901666667,79.0,112.0
1122,225.84408466666667,225.94349551666667,76.0,99.0
1123,226.433186,226.5951888666667,62.0,85.0
1124,226.58046133333335,226.64489429166667,66.0,97.0
1125,226.7277366666667,226.90078518333334,71.0,85.0
1126,226.87501200000003,227.01124168333334,74.0,93.0
1127,226.28591066666667,227.068310875,59.0,86.0
1128,226.13863533333335,227.15299419166666,54.0,99.0
1129,227.02228733333334,227.16956266666668,78.0,117.0
1130,227.16956266666668,227.30947423333333,74.0,90.0
1131,225.99136000000001,227.40520320000002,47.0,82.0
1132,227.31683800000002,227.47884086666667,71.0,93.0
1133,227.46411333333333,227.61322960833334,78.0,127.0
1134,227.61138866666667,227.72920893333335,74.0,82.0
1135,228.20049,228.3772204,60.0,77.0
1136,228.34776533333334,228.40851640833336,64.0,99.0
1137,228.49504066666668,228.59813340000002,69.0,92.0
1138,228.0532146666667,228.73252214166666,57.0,96.0
1139,228.64231600000002,228.78590945000002,72.0,112.0
1140,227.90593933333335,228.8429786416667,52.0,77.0
1141,228.78959133333336,228.9313438416667,76.0,99.0
1142,227.758664,228.99209491666667,45.0,78.0
1143,228.93686666666667,229.06020975833334,72.0,95.0
1144,229.084142,229.24246298333335,69.0,100.0
1145,229.23141733333335,229.3676470166667,76.0,112.0
1146,229.37869266666667,229.48362634166668,72.0,102.0
1147,229.96779400000003,230.11322839166667,54.0,112.0
1148,230.11506933333334,230.17766135000002,57.0,107.0
1149,230.26234466666668,230.34702798333336,62.0,89.0
1150,230.40962000000002,230.580827575,66.0,127.0
1151,230.55689533333333,230.61212358333336,69.0,117.0
1152,230.70417066666667,230.90851519166668,74.0,117.0
1153,230.851446,231.02081263333335,78.0,127.0
1154,230.99872133333335,231.06683617500002,81.0,127.0
1155,229.8205186666667,231.13679195833333,50.0,92.0
1156,231.1459966666667,231.2490894,86.0,112.0
1157,229.67324333333335,231.30799953333334,45.0,102.0
1158,231.293272,231.32640895000003,95.0,78.0
1159,229.525968,231.35218213333334,38.0,85.0
1160,231.73509800000002,231.90446463333336,59.0,92.0
1161,231.88237333333336,231.9468062916667,62.0,99.0
1162,232.02964866666667,232.14378705000001,67.0,99.0
1163,232.176924,232.33340404166668,71.0,97.0
1164,232.32419933333335,232.37942758333335,74.0,112.0
1165,232.47147466666667,232.63347753333335,79.0,107.0
1166,231.58782266666668,232.64452318333335,55.0,81.0
1167,231.293272,232.70527425833336,43.0,93.0
1168,232.61875,232.76418439166667,83.0,122.0
1169,231.44054733333334,232.89305030833336,50.0,99.0
1170,232.76602533333335,232.89489125,86.0,127.0
1171,232.9133006666667,233.00534775,83.0,99.0
1172,233.50240200000002,233.65704110000001,62.0,92.0
1173,233.64967733333333,233.71963311666667,66.0,112.0
1174,233.7969526666667,233.93686423333335,71.0,99.0
1175,233.944228,234.06020732500002,74.0,97.0
1176,233.35512666666668,234.09150333333335,59.0,79.0
1177,233.20785133333334,234.14673158333335,54.0,99.0
1178,234.09150333333335,234.23509678333335,78.0,127.0
1179,233.06057600000003,234.33266669166667,47.0,93.0
1180,234.2387786666667,234.37316740833336,74.0,97.0
1181,234.386054,234.601444175,71.0,97.0
1182,234.53332933333334,234.66587713333334,74.0,81.0
1183,234.68060466666668,234.756083275,76.0,68.0
1184,235.269706,235.42618604166668,55.0,82.0
1185,235.41698133333335,235.49430088333335,59.0,82.0
1186,235.56425666666667,235.65262186666666,64.0,82.0
1187,235.711532,235.84960262500002,67.0,90.0
1188,235.85880733333335,235.9066718166667,71.0,99.0
1189,236.00608266666669,236.17913118333334,76.0,107.0
1190,235.12243066666667,236.203063425,52.0,89.0
1191,236.15335800000003,236.28958768333334,79.0,99.0
1192,234.97515533333336,236.34849781666668,47.0,95.0
1193,234.82788000000002,236.36690723333334,40.0,83.0
1194,236.30063333333334,236.42949925000002,83.0,117.0
1195,236.44790866666668,236.52522821666668,79.0,95.0
1196,237.03701,237.26160488333335,62.0,88.0
1197,237.18428533333335,237.36285667500002,66.0,112.0
1198,237.3315606666667,237.39415268333335,71.0,100.0
1199,237.62611133333334,237.76602290000002,74.0,96.0
1200,237.77338666666668,237.81941020833335,78.0,122.0
1201,237.92066200000002,237.93907141666668,81.0,88.0
1202,237.92066200000002,238.04216415000002,83.0,99.0
1203,236.8897346666667,238.05136885833335,59.0,93.0
1204,236.74245933333336,238.0992333416667,54.0,102.0
1205,236.59518400000002,238.16182535833335,47.0,95.0
1206,238.06793733333336,238.1875985416667,86.0,85.0
1207,238.21521266666667,238.31278257500003,90.0,127.0
1208,238.804314,238.96815780833333,55.0,93.0
1209,238.95158933333335,239.02890888333334,59.0,100.0
1210,239.09886466666669,239.21668493333334,64.0,96.0
1211,239.24614000000003,239.40814286666668,67.0,97.0
1212,239.39341533333334,239.4468026416667,71.0,127.0
1213,239.54069066666668,239.71926200833335,76.0,102.0
1214,239.68796600000002,239.82787756666667,79.0,107.0
1215,238.65703866666666,239.87021922500003,52.0,95.0
1216,238.50976333333335,239.89415146666667,47.0,88.0
1217,238.362488,239.91256088333336,40.0,96.0
1218,239.83524133333336,239.95122065833334,83.0,127.0
1219,240.571618,240.79621288333334,62.0,88.0
1220,240.71889333333334,240.897464675,66.0,112.0
1221,240.86616866666668,240.92876068333334,71.0,100.0
1222,241.16071933333336,241.30063090000002,74.0,96.0
1223,241.30799466666667,241.35401820833334,78.0,122.0
1224,241.45527,241.4736794166667,81.0,88.0
1225,241.45527,241.57677215,83.0,99.0
1226,240.4243426666667,241.58597685833334,59.0,93.0
1227,240.27706733333335,241.63384134166668,54.0,102.0
1228,240.129792,241.69643335833334,47.0,95.0
1229,241.60254533333335,241.72220654166668,86.0,85.0
1230,241.74982066666666,241.84739057500002,90.0,127.0
1231,242.33892200000003,242.50276580833335,55.0,93.0
1232,242.48619733333334,242.56351688333336,59.0,100.0
1233,242.63347266666668,242.75129293333333,64.0,96.0
1234,242.78074800000002,242.94275086666667,67.0,97.0
1235,242.92802333333336,242.98141064166668,71.0,127.0
1236,243.0752986666667,243.25387000833337,76.0,102.0
1237,243.222574,243.3624855666667,79.0,107.0
1238,242.19164666666668,243.40482722500002,52.0,95.0
1239,242.04437133333334,243.4287594666667,47.0,88.0
1240,241.897096,243.44716888333335,40.0,96.0
1241,243.36984933333335,243.48582865833333,83.0,127.0
1242,244.10622600000002,244.29768393333336,52.0,76.0
1243,244.25350133333336,244.310570525,55.0,100.0
1244,244.40077666666667,244.53332446666667,60.0,96.0
1245,244.548052,244.7026911,64.0,92.0
1246,244.69532733333335,244.7468737,67.0,112.0
1247,243.6644,244.95490010833333,36.0,85.0
1248,243.81167533333334,244.98251423333335,43.0,92.0
1249,244.84260266666666,245.05062907500002,72.0,99.0
1250,243.95895066666668,245.09849355833336,48.0,78.0
1251,244.98987800000003,245.1463580416667,76.0,95.0
1252,245.13715333333334,245.27338301666668,79.0,112.0
1253,245.28442866666668,245.38383951666668,76.0,99.0
1254,245.87353000000002,246.0355328666667,62.0,85.0
1255,246.02080533333333,246.08523829166668,66.0,97.0
1256,246.1680806666667,246.34112918333335,71.0,85.0
1257,246.315356,246.45158568333335,74.0,93.0
1258,245.72625466666668,246.50865487500002,59.0,86.0
1259,245.57897933333334,246.59333819166667,54.0,99.0
1260,246.46263133333335,246.6099066666667,78.0,117.0
1261,246.6099066666667,246.74981823333334,74.0,90.0
1262,245.43170400000002,246.8455472,47.0,82.0
1263,246.757182,246.91918486666668,71.0,93.0
1264,246.90445733333337,247.05357360833335,78.0,127.0
1265,247.05173266666668,247.16955293333336,74.0,82.0
1266,247.640834,247.8175644,60.0,77.0
1267,247.78810933333335,247.84886040833334,64.0,99.0
1268,247.93538466666666,248.03847740000003,69.0,92.0
1269,247.49355866666667,248.1728661416667,57.0,96.0
1270,248.08266000000003,248.22625345,72.0,112.0
1271,247.34628333333336,248.2833226416667,52.0,77.0
1272,248.22993533333334,248.3716878416667,76.0,99.0
1273,247.19900800000002,248.43243891666668,45.0,78.0
1274,248.37721066666668,248.50055375833335,72.0,95.0
1275,248.52448600000002,248.68280698333336,69.0,100.0
1276,248.67176133333334,248.80799101666668,76.0,112.0
1277,248.81903666666668,248.9239703416667,72.0,102.0
1278,248.96631200000002,249.9953983916667,50.0,78.0
1279,248.96631200000002,250.05062664166667,38.0,64.0
1280,248.96631200000002,250.06903605833335,45.0,72.0
1281,248.96631200000002,250.70600187500003,57.0,90.0
1282,248.96631200000002,250.733616,62.0,90.0
1283,248.96631200000002,250.733616,66.0,93.0
1284,251.25644343333335,251.63935930000002,55.0,74.0
1285,250.97662030000004,251.72036073333334,50.0,58.0
1286,250.74466165,252.05725305833334,43.0,85.0
1287,251.58413105,252.23766534166668,62.0,99.0
1288,251.86947700833335,252.473305875,50.0,67.0
1289,252.46962399166668,253.99024180833334,43.0,61.0
1290,252.46778305,254.06756135833336,55.0,78.0
1291,252.16218673333333,254.08044795,59.0,72.0
1292,252.46594210833337,254.09149360000004,62.0,72.0
1293,254.82787026666668,255.20158142500003,59.0,85.0
1294,254.505705475,255.27337815,54.0,69.0
1295,254.22588234166668,255.29362850833334,47.0,78.0
1296,255.38567559166668,256.06682400833336,66.0,90.0
1297,255.12978470000002,256.07418777500004,71.0,96.0
1298,255.70599944166668,256.0778696583333,62.0,66.0
1299,255.9913454,257.11616075833336,40.0,69.0
1300,256.2638047666667,257.16034335833336,47.0,72.0
1301,256.5786057916667,257.2744817416667,52.0,85.0
1302,257.18427560000003,257.7457628083333,64.0,77.0
1303,256.869474575,257.77153599166667,67.0,89.0
1304,257.46409873333334,257.7770588166667,59.0,76.0
1305,258.3772058,258.65886987500005,59.0,58.0
1306,257.775217875,258.71225718333335,47.0,75.0
1307,258.07345042500003,258.7380303666667,54.0,54.0
1308,258.9534205416667,259.38235995,66.0,55.0
1309,258.64598328333335,259.48177080000005,71.0,95.0
1310,259.23508461666665,259.55724940833335,62.0,75.0
1311,260.13714603333335,260.53478943333334,52.0,69.0
1312,259.5241124583333,260.57529015,40.0,69.0
1313,259.80761747500003,260.5936995666667,47.0,48.0
1314,260.45194705833336,261.16439148333336,67.0,95.0
1315,260.7372930166667,261.3171896416667,64.0,79.0
1316,261.022638975,261.3282352916667,59.0,69.0
1317,261.9412688666667,262.314980025,57.0,89.0
1318,261.6319906666667,262.42911840833335,52.0,45.0
1319,261.3595313,262.97035525833337,45.0,95.0
1320,262.26895648333334,263.088175525,64.0,88.0
1321,262.85621687500003,263.1010621166667,60.0,74.0
1322,262.59848504166666,263.110266825,52.0,31.0
1323,263.17101790000004,264.004964475,64.0,82.0
1324,263.176540725,264.0068054166667,60.0,85.0
1325,263.17285884166665,264.01416918333337,57.0,90.0
1326,263.16365413333335,264.4431085916667,45.0,82.0
1327,264.0786021416667,264.6087933416667,64.0,75.0
1328,264.08228402500004,264.75790961666667,57.0,65.0
1329,264.08412496666665,264.7965693916667,60.0,72.0
1330,264.8849345916667,265.1665986666667,66.0,73.0
1331,264.88309365000003,265.17948525833333,62.0,73.0
1332,264.8867755333333,265.1942127916667,57.0,70.0
1333,265.8403833166667,266.1349339833333,54.0,66.0
1334,266.1128426833334,266.18463940833334,57.0,66.0
1335,265.49980910833335,267.815713725,50.0,79.0
1336,265.19053090833336,267.9280111666667,45.0,61.0
1337,264.89045741666666,268.014535425,38.0,95.0
1338,267.67396121666667,268.2961995,69.0,66.0
1339,266.76085415,268.32197268333334,66.0,66.0
1340,268.5576132166667,269.1596011416667,69.0,53.0
1341,268.478452725,269.18169244166666,71.0,63.0
1342,268.57786357500004,269.1835333833334,67.0,82.0
1343,266.45157595,269.21298845,62.0,77.0
1344,269.538835125,269.8002488416667,57.0,66.0
1345,269.71924740833333,269.89781875,59.0,59.0
1346,269.87572745,269.936478525,62.0,85.0
1347,270.05613973333334,270.5237389166667,67.0,69.0
1348,270.3285991,270.72992438333335,71.0,52.0
1349,270.64892295000004,270.80356205,76.0,49.0
1350,271.04840729166665,271.4239593916667,79.0,63.0
1351,271.405549975,271.51048365,83.0,70.0
1352,271.75348795,271.86762633333336,86.0,71.0
1353,269.29767176666667,272.6960500833334,55.0,88.0
1354,269.03625805,272.7383917416667,50.0,56.0
1355,268.60731864166667,272.775210575,43.0,96.0
1356,272.4014994166667,273.3348568416667,91.0,47.0
1357,272.355475875,273.33853872500003,86.0,36.0
1358,272.45672766666667,273.34406155,95.0,63.0
