,start,end,pitch,velocity
0,0.59134479375,0.8557672625,82.0,75.0
1,0.78365204375,2.22595641875,79.0,83.0
2,2.32211004375,2.5320454583333336,74.0,88.0
3,2.5144172937500002,2.7243527083333334,77.0,84.0
4,2.70672454375,3.035249429166667,79.0,82.0
5,2.8990317937500003,3.0721083187500002,81.0,85.0
6,3.09133904375,3.857362922916667,82.0,85.0
7,3.8605680437500003,5.2211418375,81.0,84.0
8,5.39902604375,5.634602425,69.0,85.0
9,5.59133329375,5.762807258333334,70.0,89.0
10,5.78364054375,6.007999002083333,74.0,85.0
11,5.9759477937500005,6.21633185625,79.0,82.0
12,6.16825504375,6.6329975645833334,81.0,83.0
13,6.55286954375,7.006394141666667,70.0,79.0
14,6.9374840437500005,7.381393279166667,79.0,84.0
15,7.32209854375,7.809276910416667,70.0,78.0
16,7.706713043750001,8.152224839583333,81.0,82.0
17,8.09132754375,8.559275185416666,70.0,77.0
18,8.47594204375,8.66824929375,79.0,85.0
19,8.66824929375,8.96632553125,70.0,84.0
20,8.86055654375,9.040043310416667,81.0,82.0
21,9.052863793750001,9.28363249375,82.0,78.0
22,9.24517104375,9.741964772916667,84.0,90.0
23,9.62978554375,10.027220527083333,70.0,73.0
24,10.014400043750001,12.0288184875,74.0,85.0
25,12.32208704375,12.54324038125,70.0,81.0
26,12.51439429375,12.700291302083334,62.0,82.0
27,12.70670154375,12.892598552083333,69.0,81.0
28,12.899008793750001,13.134585175,62.0,79.0
29,13.09131604375,13.326892425,67.0,77.0
30,13.28362329375,13.517597114583333,62.0,80.0
31,13.47593054375,13.68746851875,69.0,82.0
32,13.47593054375,13.895801372916667,82.0,75.0
33,13.66823779375,13.94708330625,62.0,78.0
34,13.860545043750001,14.0865060625,70.0,83.0
35,14.05285229375,14.309261960416666,62.0,84.0
36,14.24515954375,14.475928243750001,72.0,82.0
37,14.43746679375,14.6634278125,62.0,84.0
38,13.860545043750001,14.693876460416668,84.0,82.0
39,14.62977404375,14.796440327083333,74.0,93.0
40,14.822081293750001,15.027209027083334,62.0,84.0
41,15.01438854375,15.200285552083335,72.0,85.0
42,15.20669579375,15.344515989583334,62.0,85.0
43,15.39900304375,15.62015638125,70.0,81.0
44,15.59131029375,15.777207302083333,62.0,82.0
45,15.783617543750001,15.969514552083334,69.0,81.0
46,15.97592479375,16.211501175000002,62.0,79.0
47,16.16823204375,16.403808425,67.0,77.0
48,16.36053929375,16.594513114583332,62.0,80.0
49,16.55284654375,16.76438451875,69.0,82.0
50,16.74515379375,17.02399930625,62.0,78.0
51,16.93746104375,17.1634220625,70.0,83.0
52,17.12976829375,17.386177960416667,62.0,84.0
53,17.32207554375,17.552844243750002,72.0,82.0
54,14.62977404375,17.709895164583333,86.0,81.0
55,17.514382793750002,17.7403438125,62.0,84.0
56,17.70669004375,17.873356327083332,74.0,93.0
57,17.89899729375,18.104125027083334,62.0,84.0
58,18.09130454375,18.277201552083334,72.0,85.0
59,18.28361179375,18.421431989583333,62.0,85.0
60,17.70669004375,18.47591904375,84.0,85.0
61,18.47591904375,18.69707238125,70.0,81.0
62,18.66822629375,18.854123302083334,62.0,82.0
63,18.86053354375,19.046430552083333,69.0,81.0
64,19.05284079375,19.288417175,62.0,79.0
65,19.24514804375,19.480724425000002,67.0,77.0
66,19.437455293750002,19.671429114583333,62.0,80.0
67,19.62976254375,19.84130051875,69.0,82.0
68,19.82206979375,20.100915306250002,62.0,78.0
69,20.014377043750002,20.2403380625,70.0,83.0
70,20.20668429375,20.463093960416668,62.0,84.0
71,20.39899154375,20.62976024375,72.0,82.0
72,20.59129879375,20.8172598125,62.0,84.0
73,20.78360604375,20.950272327083333,74.0,93.0
74,20.97591329375,21.181041027083335,62.0,84.0
75,21.16822054375,21.354117552083334,72.0,85.0
76,18.47591904375,21.55283504375,82.0,85.0
77,21.360527793750002,21.575270889583333,62.0,85.0
78,21.55283504375,23.09129304375,69.0,85.0
79,21.55283504375,24.43744379375,86.0,85.0
80,25.01436554375,29.052817793750002,81.0,85.0
81,25.01436554375,29.052817793750002,86.0,85.0
82,56.93736904375,58.16172520208333,62.0,86.0
83,58.091212543750004,58.50467313125,63.0,84.0
84,58.47582704375,61.50146111041667,65.0,81.0
85,62.32197204375,63.11844457083333,62.0,85.0
86,63.091201043750004,64.28671111458334,70.0,79.0
87,64.24504454375,64.70497938333334,72.0,85.0
88,64.62965904375,67.55913948541667,69.0,80.0
89,67.70657504375001,68.85721342291667,67.0,85.0
90,68.86041854375,69.30593033958334,69.0,84.0
91,69.24503304375,70.71297838541666,70.0,75.0
92,70.78349104375,71.98701391666667,69.0,77.0
93,70.78349104375,71.9902190375,72.0,76.0
94,71.93733454375,72.40528218541667,70.0,76.0
95,72.32194904375,73.69374076041667,69.0,75.0
96,73.86040704375,74.26585482916667,67.0,73.0
97,73.86040704375,74.32354700416667,70.0,78.0
98,74.24502154375,74.73540503125,69.0,76.0
99,74.62963604375,76.25142718541667,70.0,73.0
100,76.16809404375,76.62001608125,69.0,76.0
101,76.55270854375,76.93732304375,70.0,75.0
102,76.93732304375,77.38764252083334,70.0,69.0
103,77.32193754375,77.75142373541667,72.0,80.0
104,76.93732304375,79.36199695416667,67.0,77.0
105,77.70655204375001,79.80911131041667,74.0,85.0
106,80.01423904375,81.67449163541667,70.0,72.0
107,81.55269704375,82.79948904791667,74.0,85.0
108,82.70654054375001,83.12320625208334,70.0,71.0
109,83.09115504375,85.17127846458334,65.0,70.0
110,83.09115504375,85.43570093333334,69.0,76.0
111,85.39884204375001,86.19851969166668,72.0,81.0
112,86.16807104375,87.78024682291667,74.0,86.0
113,87.70652904375001,88.56069374583333,82.0,77.0
114,88.47575804375,89.30588433958333,79.0,78.0
115,89.24498704375,90.84273977916666,81.0,80.0
116,90.78344504375,92.36196705416667,74.0,86.0
117,92.32190304375,94.66484637291667,79.0,80.0
118,94.62959004375,95.04305063125,77.0,82.0
119,95.01420454375,95.45330609791667,74.0,85.0
120,95.39881904375001,97.5670832875,77.0,73.0
121,97.70650604375,98.28342779375001,77.0,84.0
122,98.47573504375,98.85233674166668,70.0,86.0
123,98.86034954375,99.35233559166667,69.0,80.0
124,99.24496404375,99.65842463125,70.0,82.0
125,99.62957854375,100.04303913125,72.0,82.0
126,100.01419304375,100.44848691666667,74.0,86.0
127,100.39880754375001,100.70970426458334,72.0,75.0
128,100.78342204375001,101.23374152083333,74.0,76.0
129,101.16803654375,101.60072785625,77.0,84.0
130,101.55265104375,101.99495771875,81.0,83.0
131,101.93726554375,102.32188004375,82.0,81.0
132,102.32188004375,103.86033804375,79.0,77.0
133,104.62956704375,106.28981963541666,70.0,72.0
134,106.16802504375,107.41481704791667,74.0,85.0
135,107.32186854375,107.73853425208334,70.0,71.0
136,107.70648304375,109.78660646458334,65.0,70.0
137,107.70648304375,110.05102893333334,69.0,76.0
138,110.01417004375,110.81384769166667,72.0,81.0
139,110.78339904375001,112.39557482291667,74.0,86.0
140,112.32185704375,113.17602174583334,82.0,77.0
141,113.09108604375001,113.92121233958333,79.0,78.0
142,113.86031504375,115.45806777916667,81.0,80.0
143,115.39877304375,116.97729505416667,74.0,86.0
144,116.93723104375,119.28017437291668,79.0,80.0
145,119.24491804375,119.65837863125,77.0,82.0
146,119.62953254375,120.06863409791667,74.0,85.0
147,120.01414704375,122.1824112875,77.0,73.0
148,122.32183404375,122.89875579375,77.0,84.0
149,123.09106304375,125.59265985416667,67.0,66.0
150,123.09106304375,125.72246724791667,74.0,78.0
151,125.39875004375,125.78336454375001,70.0,67.0
152,125.78336454375001,126.16797904375001,69.0,73.0
153,126.16797904375001,129.24489504375,67.0,67.0
154,129.24489504375,129.64874026875,67.0,88.0
155,129.62950954375,130.08054245208334,70.0,88.0
156,130.01441355208334,130.43538045208334,69.0,86.0
157,130.40150955208335,130.81925065208335,70.0,91.0
158,130.78860555208334,131.22892725208334,72.0,88.0
159,131.17570155208335,131.60312005208334,70.0,89.0
160,131.56279755208334,131.98215155208334,69.0,85.0
161,131.94989355208335,132.25957035208336,70.0,88.0
162,132.33698955208334,132.46602155208333,70.0,85.0
163,132.53053755208333,132.91763355208334,70.0,84.0
164,132.91763355208334,133.30782086250002,69.0,83.0
165,133.30301318125,133.88794773333336,70.0,90.0
166,133.87993493125003,134.30781856250002,72.0,86.0
167,134.26454943125003,134.64435625000002,70.0,90.0
168,134.64916393125003,135.07865012291668,69.0,85.0
169,135.03377843125003,135.4199954916667,70.0,88.0
170,135.41839293125003,135.82223815625002,67.0,88.0
171,135.80300743125002,136.25332690833335,70.0,88.0
172,136.18762193125002,136.60589020000003,69.0,86.0
173,136.57223643125002,136.9872995791667,70.0,91.0
174,136.95685093125002,137.39434992500003,72.0,88.0
175,137.34146543125001,137.76614394166668,70.0,89.0
176,137.72607993125,138.14274563958335,69.0,85.0
177,138.11069443125,138.41838603125,70.0,88.0
178,138.49530893125,138.62351376458335,70.0,85.0
179,138.68761618125,139.07223068125003,70.0,84.0
180,139.07223068125003,139.46165286250002,69.0,83.0
181,139.45684518125003,140.04177973333336,70.0,90.0
182,140.03376693125003,140.4616505625,72.0,86.0
183,140.41838143125003,140.79818825,70.0,90.0
184,140.80299593125002,141.23248212291668,69.0,85.0
185,135.41839293125003,141.49209691041668,86.0,85.0
186,141.18761043125002,141.5738274916667,70.0,88.0
187,143.11068293125,144.33503908958335,62.0,86.0
188,144.26452643125003,144.67798701875003,63.0,84.0
189,144.64914093125003,147.6747749979167,65.0,81.0
190,148.49528593125,149.29175845833336,62.0,85.0
191,149.26451493125,150.46002500208334,70.0,79.0
192,150.41835843125003,150.87829327083335,72.0,85.0
193,150.80297293125003,153.7324533729167,69.0,80.0
194,153.87988893125,155.0305273104167,67.0,85.0
195,155.03373243125003,155.47924422708334,69.0,84.0
196,155.41834693125003,156.88629227291668,70.0,75.0
197,156.95680493125002,158.16032780416668,69.0,77.0
198,156.95680493125002,158.16353292500003,72.0,76.0
199,158.11064843125,158.5785960729167,70.0,76.0
200,158.49526293125,159.8670546479167,69.0,75.0
201,160.03372093125003,160.4391687166667,67.0,73.0
202,160.03372093125003,160.4968608916667,70.0,78.0
203,160.41833543125003,160.90871891875003,69.0,76.0
204,160.80294993125003,162.42474107291667,70.0,73.0
205,162.34140793125002,162.79332996875002,69.0,76.0
206,162.72602243125002,163.11063693125,70.0,75.0
207,163.11063693125,163.56095640833337,70.0,69.0
208,163.49525143125,163.9247376229167,72.0,80.0
209,163.11063693125,165.53531084166667,67.0,77.0
210,163.87986593125,165.98242519791668,74.0,85.0
211,166.18755293125002,167.8478055229167,70.0,72.0
212,167.72601093125002,168.9728029354167,74.0,85.0
213,168.87985443125,169.29652013958335,70.0,71.0
214,169.26446893125,171.34459235208334,65.0,70.0
215,169.26446893125,171.60901482083335,69.0,76.0
216,171.57215593125002,172.3718335791667,72.0,81.0
217,172.34138493125002,173.9535607104167,74.0,86.0
218,173.87984293125,174.73400763333336,82.0,77.0
219,174.64907193125003,175.47919822708334,79.0,78.0
220,175.41830093125003,177.0160536666667,81.0,80.0
221,176.95675893125002,178.53528094166668,74.0,86.0
222,178.49521693125,180.83816026041669,79.0,80.0
223,180.80290393125003,181.21636451875003,77.0,82.0
224,181.18751843125003,181.62661998541668,74.0,85.0
225,181.57213293125002,183.74039717500003,77.0,73.0
226,183.87981993125,184.45674168125004,77.0,84.0
227,184.64904893125004,185.0256506291667,70.0,86.0
228,185.03366343125003,185.5256494791667,69.0,80.0
229,185.41827793125003,185.83173851875003,70.0,82.0
230,185.80289243125003,186.21635301875003,72.0,82.0
231,186.18750693125003,186.6218008041667,74.0,86.0
232,186.57212143125003,186.88301815208337,72.0,75.0
233,186.95673593125002,187.40705540833335,74.0,76.0
234,187.34135043125002,187.77404174375002,77.0,84.0
235,187.72596493125002,188.16827160625002,81.0,83.0
236,188.11057943125002,188.49519393125001,82.0,81.0
237,188.49519393125001,190.03365193125,79.0,77.0
238,190.80288093125003,192.46313352291668,70.0,72.0
239,192.34133893125002,193.5881309354167,74.0,85.0
240,193.49518243125002,193.91184813958336,70.0,71.0
241,193.87979693125,195.95992035208337,65.0,70.0
242,193.87979693125,196.22434282083336,69.0,76.0
243,196.18748393125003,196.9871615791667,72.0,81.0
244,196.95671293125002,198.56888871041667,74.0,86.0
245,198.49517093125002,199.34933563333334,82.0,77.0
246,199.26439993125,200.09452622708335,79.0,78.0
247,200.03362893125,201.6313816666667,81.0,80.0
248,201.57208693125003,203.1506089416667,74.0,86.0
249,203.11054493125002,205.4534882604167,79.0,80.0
250,205.41823193125003,205.83169251875,77.0,82.0
251,205.80284643125003,206.2419479854167,74.0,85.0
252,206.18746093125003,208.35572517500003,77.0,73.0
253,208.49514793125002,209.07206968125,77.0,84.0
254,209.26437693125,211.7659737416667,67.0,66.0
255,209.26437693125,211.89578113541668,74.0,78.0
256,211.95667843125003,212.3765492604167,70.0,93.0
257,212.34129293125002,213.11372705208336,69.0,89.0
258,213.11052193125002,213.51276459583335,70.0,93.0
259,213.49513643125002,215.03359443125004,67.0,86.0
260,215.03359443125004,215.24833752708335,70.0,91.0
261,215.22590168125004,215.45827294166668,72.0,84.0
262,215.41820893125004,216.2323096229167,74.0,90.0
263,216.18743793125003,216.59448827708337,77.0,85.0
264,216.57205243125003,218.11051043125002,74.0,89.0
265,217.91820318125002,218.11051043125002,74.0,88.0
266,218.11051043125002,218.31563816458336,72.0,85.0
267,218.30281768125002,218.52877870000003,70.0,79.0
268,218.49512493125002,220.61050468125,72.0,84.0
269,220.61050468125,220.82044009583336,70.0,82.0
270,220.80281193125,221.2130673979167,72.0,86.0
271,221.18742643125,221.37492600000002,70.0,84.0
272,221.37973368125,221.61050238125003,69.0,84.0
273,221.57204093125003,222.53357718125002,70.0,88.0
274,222.53357718125002,222.78197404583335,74.0,86.0
275,222.72588443125002,222.94703776875002,77.0,77.0
276,222.91819168125002,223.14896038125002,74.0,88.0
277,223.11049893125002,223.81562551458336,79.0,86.0
278,223.87972793125002,224.2803680354167,79.0,88.0
279,224.26434243125004,224.45184200000003,77.0,86.0
280,224.45664968125004,224.64735437083334,74.0,79.0
281,224.64895693125004,227.34125843125003,77.0,91.0
282,227.34125843125003,227.72587293125002,82.0,85.0
283,227.72587293125002,228.13773095833335,82.0,88.0
284,228.11048743125002,228.84926778333335,79.0,87.0
285,228.87971643125002,229.26433093125002,77.0,84.0
286,229.26433093125002,229.64894543125,77.0,86.0
287,229.64894543125,229.96945751458335,74.0,91.0
288,230.03355993125,230.3957385854167,74.0,86.0
289,230.41817443125,230.7995838104167,70.0,86.0
290,230.80278893125,231.18740343125,72.0,85.0
291,231.18740343125,231.42618493333336,69.0,84.0
292,231.37971068125,231.6265049854167,70.0,85.0
293,231.57201793125,231.98227339791669,69.0,90.0
294,231.95663243125003,232.33804181041668,65.0,85.0
295,232.34124693125003,232.72906655208334,65.0,86.0
296,232.72586143125002,233.1216938541667,60.0,86.0
297,233.11047593125002,233.547974925,62.0,85.0
298,233.49509043125002,233.73226937291668,65.0,90.0
299,233.68739768125002,233.88611517291667,62.0,83.0
300,233.87970493125002,234.07201218125002,70.0,80.0
301,234.07201218125002,234.26431943125004,69.0,85.0
302,234.26431943125004,234.45662668125004,67.0,85.0
303,234.45662668125004,234.64893393125004,65.0,85.0
304,234.64893393125004,236.18739193125003,67.0,85.0
305,236.37969918125003,236.6072627604167,67.0,80.0
306,236.57200643125003,236.7995700104167,69.0,85.0
307,236.76431368125003,237.02232590833336,70.0,88.0
308,236.95662093125003,237.18258195000004,69.0,84.0
309,237.14892818125003,237.39411992500004,70.0,85.0
310,237.34123543125003,237.55117084583335,69.0,77.0
311,237.53354268125003,239.99828060208336,67.0,77.0
312,240.03353693125,241.6937895229167,70.0,72.0
313,241.57199493125,242.8187869354167,74.0,85.0
314,242.72583843125003,243.14250413958337,70.0,71.0
315,243.11045293125002,245.19057635208335,65.0,70.0
316,243.11045293125002,245.45499882083334,69.0,76.0
317,245.41813993125004,246.2178175791667,72.0,81.0
318,246.18736893125003,247.79954471041668,74.0,86.0
319,247.72582693125003,248.57999163333335,82.0,77.0
320,248.49505593125002,249.32518222708336,79.0,78.0
321,249.26428493125002,250.8620376666667,81.0,80.0
322,250.80274293125,252.3812649416667,74.0,86.0
323,252.34120093125003,254.6841442604167,79.0,80.0
324,254.64888793125004,255.06234851875,77.0,82.0
325,255.03350243125004,255.4726039854167,74.0,85.0
326,255.41811693125004,257.58638117500004,77.0,73.0
327,257.72580393125,258.30272568125,77.0,84.0
328,258.49503293125,258.8716346291667,70.0,86.0
329,258.87964743125,259.3716334791667,69.0,80.0
330,259.26426193125,259.67772251875004,70.0,82.0
331,259.64887643125,260.06233701875004,72.0,82.0
332,260.03349093125,260.4677848041667,74.0,86.0
333,260.41810543125,260.72900215208335,72.0,75.0
334,260.80271993125,261.2530394083334,74.0,76.0
335,261.18733443125006,261.62002574375003,77.0,84.0
336,261.57194893125006,262.01425560625,81.0,83.0
337,261.95656343125006,262.34117793125006,82.0,81.0
338,262.34117793125006,263.87963593125005,79.0,77.0
339,264.64886493125005,266.3091175229167,70.0,72.0
340,266.18732293125004,267.4341149354167,74.0,85.0
341,267.34116643125003,267.75783213958334,70.0,71.0
342,267.72578093125003,269.80590435208336,65.0,70.0
343,267.72578093125003,270.0703268208333,69.0,76.0
344,270.03346793125,270.8331455791667,72.0,81.0
345,270.80269693125,272.4148727104167,74.0,86.0
346,272.34115493125,273.1953196333334,82.0,77.0
347,273.11038393125,273.94051022708334,79.0,78.0
348,273.87961293125,275.4773656666667,81.0,80.0
349,275.41807093125,276.9965929416667,74.0,86.0
350,276.95652893125003,279.2994722604167,79.0,80.0
351,279.26421593125,279.67767651875,77.0,82.0
352,279.64883043125,280.08793198541673,74.0,85.0
353,280.03344493125,282.201709175,77.0,73.0
354,282.34113193125006,282.91805368125006,77.0,84.0
355,283.11036093125006,285.6119577416667,67.0,66.0
356,283.11036093125006,285.7417651354167,74.0,78.0
357,288.87957843125,289.09432152708337,70.0,91.0
358,289.07188568125,289.3042569416667,72.0,84.0
359,289.26419293125,290.0782936229167,74.0,90.0
360,290.03342193125,290.44047227708336,77.0,85.0
361,290.41803643125,291.95649443125,74.0,89.0
362,291.76418718125,291.95649443125,74.0,88.0
363,291.95649443125,292.1616221645834,72.0,85.0
364,292.14880168125,292.3747627,70.0,79.0
365,292.34110893125,294.45648868125,72.0,84.0
366,294.45648868125,294.66642409583335,70.0,82.0
367,294.64879593125,295.05905139791673,72.0,86.0
368,295.03341043125,295.22091,70.0,84.0
369,295.22571768125,295.45648638125,69.0,84.0
370,295.41802493125,296.37956118125,70.0,88.0
371,296.37956118125,296.62795804583334,74.0,86.0
372,296.57186843125004,296.79302176875,77.0,77.0
373,296.76417568125004,296.99494438125004,74.0,88.0
374,296.95648293125004,297.66160951458335,79.0,86.0
375,297.72571193125003,298.1263520354167,79.0,88.0
376,298.11032643125003,298.297826,77.0,86.0
377,298.30263368125003,298.4933383708334,74.0,79.0
378,298.49494093125,301.18724243125,77.0,91.0
379,301.18724243125,301.57185693125,82.0,85.0
380,301.57185693125,301.9837149583334,82.0,88.0
381,301.95647143125007,302.69525178333333,79.0,87.0
382,302.72570043125006,303.11031493125006,77.0,84.0
383,303.11031493125006,303.49492943125006,77.0,86.0
384,303.49492943125006,303.81544151458337,74.0,91.0
385,303.87954393125005,304.2417225854167,74.0,86.0
386,304.26415843125005,304.64556781041665,70.0,86.0
387,304.64877293125005,305.03338743125005,72.0,85.0
388,305.03338743125005,305.2721689333333,69.0,84.0
389,305.22569468125005,305.4724889854167,70.0,85.0
390,305.41800193125005,305.8282573979167,69.0,90.0
391,305.80261643125004,306.1840258104167,65.0,85.0
392,306.18723093125004,306.5750505520833,65.0,86.0
393,306.57184543125004,306.9676778541667,60.0,86.0
394,306.95645993125004,307.393958925,62.0,85.0
395,307.34107443125004,307.5782533729167,65.0,90.0
396,307.53338168125003,307.7320991729167,62.0,83.0
397,307.72568893125003,307.91799618125003,70.0,80.0
398,307.91799618125003,308.11030343125003,69.0,85.0
399,308.11030343125003,308.30261068125003,67.0,85.0
400,308.30261068125003,308.49491793125003,65.0,85.0
401,308.49491793125003,310.03337593125,67.0,85.0
402,310.22568318125,310.45324676041673,67.0,80.0
403,310.41799043125,310.64555401041673,69.0,85.0
404,310.61029768125,310.86830990833334,70.0,88.0
405,310.80260493125,311.02856595000003,69.0,84.0
406,310.99491218125,311.240103925,70.0,85.0
407,311.18721943125,311.39715484583337,69.0,77.0
408,311.37952668125,313.8442646020834,67.0,77.0
409,313.87952093125,315.5397735229167,70.0,72.0
410,315.41797893125,316.6647709354167,74.0,85.0
411,316.57182243125,316.98848813958335,70.0,71.0
412,316.95643693125004,319.03656035208337,65.0,70.0
413,316.95643693125004,319.3009828208334,69.0,76.0
414,319.26412393125,320.0638015791667,72.0,81.0
415,320.03335293125,321.64552871041667,74.0,86.0
416,321.57181093125,322.42597563333334,82.0,77.0
417,322.34103993125007,323.17116622708335,79.0,78.0
418,323.11026893125006,324.7080216666667,81.0,80.0
419,324.64872693125005,326.2272489416667,74.0,86.0
420,326.18718493125004,328.5301282604167,79.0,80.0
421,328.49487193125003,328.90833251875006,77.0,82.0
422,328.87948643125003,329.3185879854167,74.0,85.0
423,329.26410093125,331.43236517500003,77.0,73.0
424,331.57178793125,332.14870968125,77.0,84.0
425,332.34101693125,334.8426137416667,67.0,66.0
426,332.34101693125,334.97242113541665,74.0,78.0
