,start,end,pitch,velocity
0,28.86051054375,29.147368858333333,67.0,80.0
1,29.24512504375,29.53358591875,67.0,85.0
2,29.629739543750002,29.963072110416668,69.0,86.0
3,30.01435404375,30.421404389583333,70.0,87.0
4,30.39896854375,30.810826570833335,67.0,85.0
5,30.78358304375,32.35409225208333,74.0,91.0
6,35.014342543750004,35.30600853958333,72.0,84.0
7,35.39895704375,35.6922256,72.0,88.0
8,35.78357154375,36.0672247375,74.0,87.0
9,36.16818604375,36.47748020416667,74.0,90.0
10,36.55280054375,36.914979197916665,72.0,88.0
11,36.93741504375,37.32202954375,70.0,86.0
12,37.32202954375,37.70664404375,65.0,77.0
13,37.70664404375,39.62971654375,67.0,82.0
14,41.16817454375,41.427789331250004,65.0,83.0
15,41.55278904375,41.982275235416665,65.0,84.0
16,41.93740354375,42.25471050625,67.0,84.0
17,42.32201804375,42.63611988541667,67.0,85.0
18,42.706632543750004,43.145734097916666,65.0,88.0
19,43.09124704375,43.80438642916667,70.0,85.0
20,43.860476043750005,44.49508996875,70.0,86.0
21,44.62970504375,45.23707544166667,70.0,85.0
22,45.39893404375,45.98707371666667,70.0,86.0
23,46.16816304375,46.466239281250004,70.0,85.0
24,46.552777543750004,47.22264779791667,72.0,85.0
25,47.32200654375,47.60085205625,70.0,84.0
26,47.706621043750005,48.01110752291667,72.0,84.0
27,48.09123554375,48.38290153958334,70.0,93.0
28,48.47585004375,48.76591347916667,72.0,84.0
29,48.86046454375,49.10725884791667,70.0,87.0
30,49.24507904375,49.51751431458334,70.0,90.0
31,49.62969354375,49.897321133333335,65.0,81.0
32,50.01430804375,52.211418375,67.0,80.0
33,53.47583854375,53.762696858333335,67.0,80.0
34,53.86045304375,54.148913918750004,67.0,85.0
35,54.245067543750004,54.578400110416666,69.0,86.0
36,54.62968204375,55.036732389583335,70.0,87.0
37,55.01429654375,55.42615457083333,67.0,85.0
38,55.398911043750005,57.51429079375,74.0,91.0
39,59.62967054375,59.921336539583336,72.0,84.0
40,60.01428504375,60.3075536,72.0,88.0
41,60.398899543750005,60.682552737500004,74.0,87.0
42,60.78351404375,61.092808204166666,74.0,90.0
43,61.16812854375,61.53030719791667,72.0,88.0
44,61.55274304375,61.937357543750004,70.0,86.0
45,61.937357543750004,62.32197204375,65.0,77.0
46,62.32197204375,64.24504454375,67.0,82.0
47,65.78350254375,66.04311733125,65.0,83.0
48,66.16811704375,66.59760323541667,65.0,84.0
49,66.55273154375,66.87003850625,67.0,84.0
50,66.93734604375,67.25144788541667,67.0,85.0
51,67.32196054375,67.76106209791666,65.0,88.0
52,67.70657504375001,68.41971442916667,70.0,85.0
53,68.47580404375,69.11041796875,70.0,86.0
54,69.24503304375,69.85240344166667,70.0,85.0
55,70.01426204375001,70.60240171666666,70.0,86.0
56,70.78349104375,71.08156728125,70.0,85.0
57,71.16810554375,71.83797579791667,72.0,85.0
58,71.93733454375,72.21618005625,70.0,84.0
59,72.32194904375,72.62643552291667,72.0,84.0
60,72.70656354375001,72.99822953958333,70.0,93.0
61,73.09117804375,73.38124147916668,72.0,84.0
62,73.47579254375,73.72258684791667,70.0,87.0
63,73.86040704375,74.13284231458334,70.0,90.0
64,74.24502154375,74.51264913333334,65.0,81.0
65,74.62963604375,76.826746375,67.0,80.0
66,78.47578104375,78.711357425,70.0,82.0
67,78.86039554375,79.22577931875,70.0,85.0
68,79.24501004375,79.5478939625,72.0,90.0
69,79.62962454375,79.90847005625,72.0,85.0
70,80.01423904375,80.27064871041667,74.0,88.0
71,80.39885354375001,80.70013490208333,74.0,85.0
72,80.78346804375,81.02545466666668,74.0,89.0
73,81.16808254375,81.43571013333333,74.0,93.0
74,81.55269704375,81.93731154375,74.0,91.0
75,81.93731154375,82.32192604375,74.0,91.0
76,82.32192604375,82.70654054375001,74.0,91.0
77,82.70654054375001,83.09115504375,77.0,85.0
78,83.09115504375,83.47256442291668,79.0,77.0
79,83.47576954375,83.749807375,77.0,86.0
80,83.86038404375,84.25140878541667,77.0,85.0
81,84.24499854375,84.8748047875,72.0,84.0
82,85.01422754375,85.33313706666667,72.0,85.0
83,85.39884204375001,85.72255924791666,74.0,90.0
84,85.78345654375,86.06069949583333,77.0,80.0
85,86.16807104375,86.47255752291667,79.0,84.0
86,86.55268554375,86.86999250625,79.0,84.0
87,86.93730004375,87.25620956666667,79.0,85.0
88,87.32191454375,87.55268324375,79.0,84.0
89,87.70652904375001,87.96934895208334,79.0,88.0
90,88.09114354375001,88.37960441875,77.0,80.0
91,88.47575804375,88.81389829166667,77.0,78.0
92,88.86037254375,89.32030738333333,72.0,85.0
93,89.24498704375,90.01421604375,74.0,77.0
94,90.39883054375001,90.78023992291666,74.0,91.0
95,90.78344504375,91.06068799583333,72.0,88.0
96,91.16805954375,91.49177674791667,74.0,86.0
97,91.55267404375,91.85716052291667,77.0,84.0
98,91.93728854375,92.29946719791667,74.0,88.0
99,92.32190304375,93.30267001875,67.0,82.0
100,93.47574654375,93.74818181458333,67.0,79.0
101,93.86036104375,94.18407824791667,67.0,81.0
102,94.24497554375,94.53343641875,70.0,81.0
103,94.62959004375,94.99497381875,70.0,85.0
104,95.01420454375,95.39881904375001,67.0,80.0
105,95.39881904375001,96.4324705125,65.0,84.0
106,96.55266254375,96.81548245208333,65.0,80.0
107,96.93727704375,97.30426337916667,65.0,85.0
108,97.32189154375,97.59432681458334,62.0,85.0
109,97.70650604375,98.22253049791667,62.0,85.0
110,98.09112054375001,98.80105480833333,65.0,84.0
111,98.86034954375,102.34111076875,67.0,84.0
112,103.09110904375001,103.32668542500001,70.0,82.0
113,103.47572354375001,103.84110731875,70.0,85.0
114,103.86033804375,104.1632219625,72.0,90.0
115,104.24495254375,104.52379805625,72.0,85.0
116,104.62956704375,104.88597671041667,74.0,88.0
117,105.01418154375,105.31546290208334,74.0,85.0
118,105.39879604375,105.64078266666667,74.0,89.0
119,105.78341054375001,106.05103813333334,74.0,93.0
120,106.16802504375,106.55263954375,74.0,91.0
121,106.55263954375,106.93725404375,74.0,91.0
122,106.93725404375,107.32186854375,74.0,91.0
123,107.32186854375,107.70648304375,77.0,85.0
124,107.70648304375,108.08789242291667,79.0,77.0
125,108.09109754375001,108.36513537500001,77.0,86.0
126,108.47571204375001,108.86673678541668,77.0,85.0
127,108.86032654375,109.4901327875,72.0,84.0
128,109.62955554375,109.94846506666667,72.0,85.0
129,110.01417004375,110.33788724791667,74.0,90.0
130,110.39878454375,110.67602749583334,77.0,80.0
131,110.78339904375001,111.08788552291666,79.0,84.0
132,111.16801354375,111.48532050625,79.0,84.0
133,111.55262804375,111.87153756666667,79.0,85.0
134,111.93724254375,112.16801124375,79.0,84.0
135,112.32185704375,112.58467695208334,79.0,88.0
136,112.70647154375,112.99493241875,77.0,80.0
137,113.09108604375001,113.42922629166667,77.0,78.0
138,113.47570054375001,113.93563538333333,72.0,85.0
139,113.86031504375,114.62954404375,74.0,77.0
140,115.01415854375,115.39556792291667,74.0,91.0
141,115.39877304375,115.67601599583334,72.0,88.0
142,115.78338754375001,116.10710474791667,74.0,86.0
143,116.16800204375001,116.47248852291668,77.0,84.0
144,116.55261654375,116.91479519791667,74.0,88.0
145,116.93723104375,117.91799801875,67.0,82.0
146,118.09107454375,118.36350981458334,67.0,79.0
147,118.47568904375001,118.79940624791666,67.0,81.0
148,118.86030354375,119.14876441875,70.0,81.0
149,119.24491804375,119.61030181875,70.0,85.0
150,119.62953254375,120.01414704375,67.0,80.0
151,120.01414704375,121.04779851250001,65.0,84.0
152,121.16799054375001,121.43081045208334,65.0,80.0
153,121.55260504375,121.91959137916668,65.0,85.0
154,121.93721954375,122.20965481458333,62.0,85.0
155,122.32183404375,122.83785849791667,62.0,85.0
156,122.70644854375,123.41638280833334,65.0,84.0
157,123.47567754375001,126.95643876875,67.0,84.0
158,139.64915243125003,139.93601074583336,67.0,80.0
159,140.03376693125003,140.32222780625003,67.0,85.0
160,140.41838143125003,140.75171399791668,69.0,86.0
161,140.80299593125002,141.21004627708336,70.0,87.0
162,141.18761043125002,141.59946845833335,67.0,85.0
163,141.57222493125002,143.68760468125,74.0,91.0
164,145.80298443125002,146.09465042708337,72.0,84.0
165,146.18759893125002,146.4808674875,72.0,88.0
166,146.57221343125002,146.85586662500003,74.0,87.0
167,146.95682793125002,147.2661220916667,74.0,90.0
168,147.34144243125002,147.7036210854167,72.0,88.0
169,147.72605693125,148.11067143125,70.0,86.0
170,148.11067143125,148.49528593125,65.0,77.0
171,148.49528593125,150.41835843125003,67.0,82.0
172,151.95681643125002,152.21643121875002,65.0,83.0
173,152.34143093125002,152.77091712291667,65.0,84.0
174,152.72604543125001,153.04335239375,67.0,84.0
175,153.11065993125,153.4247617729167,67.0,85.0
176,153.49527443125,153.9343759854167,65.0,88.0
177,153.87988893125,154.59302831666668,70.0,85.0
178,154.64911793125003,155.28373185625003,70.0,86.0
179,155.41834693125003,156.0257173291667,70.0,85.0
180,156.18757593125002,156.7757156041667,70.0,86.0
181,156.95680493125002,157.25488116875002,70.0,85.0
182,157.34141943125002,158.0112896854167,72.0,85.0
183,158.11064843125,158.38949394375,70.0,84.0
184,158.49526293125,158.7997494104167,72.0,84.0
185,158.87987743125,159.17154342708335,70.0,93.0
186,159.26449193125,159.55455536666668,72.0,84.0
187,159.64910643125003,159.8959007354167,70.0,87.0
188,160.03372093125003,160.30615620208334,70.0,90.0
189,160.41833543125003,160.68596302083336,65.0,81.0
190,160.80294993125003,163.00006026250003,67.0,80.0
191,164.64909493125003,164.88467131250002,70.0,82.0
192,165.03370943125003,165.39909320625003,70.0,85.0
193,165.41832393125003,165.72120785,72.0,90.0
194,165.80293843125003,166.08178394375003,72.0,85.0
195,166.18755293125002,166.44396259791668,74.0,88.0
196,166.57216743125002,166.87344878958336,74.0,85.0
197,166.95678193125002,167.1987685541667,74.0,89.0
198,167.34139643125002,167.60902402083335,74.0,93.0
199,167.72601093125002,168.11062543125,74.0,91.0
200,168.11062543125,168.49523993125,74.0,91.0
201,168.49523993125,168.87985443125,74.0,91.0
202,168.87985443125,169.26446893125,77.0,85.0
203,169.26446893125,169.6458783104167,79.0,77.0
204,169.64908343125,169.92312126250002,77.0,86.0
205,170.03369793125,170.4247226729167,77.0,85.0
206,170.41831243125003,171.048118675,72.0,84.0
207,171.18754143125003,171.5064509541667,72.0,85.0
208,171.57215593125002,171.89587313541668,74.0,90.0
209,171.95677043125002,172.23401338333335,77.0,80.0
210,172.34138493125002,172.6458714104167,79.0,84.0
211,172.72599943125002,173.04330639375002,79.0,84.0
212,173.11061393125001,173.42952345416668,79.0,85.0
213,173.49522843125,173.72599713125,79.0,84.0
214,173.87984293125,174.14266283958335,79.0,88.0
215,174.26445743125004,174.55291830625004,77.0,80.0
216,174.64907193125003,174.9872121791667,77.0,78.0
217,175.03368643125003,175.49362127083336,72.0,85.0
218,175.41830093125003,176.18752993125003,74.0,77.0
219,176.57214443125002,176.95355381041668,74.0,91.0
220,176.95675893125002,177.23400188333335,72.0,88.0
221,177.34137343125002,177.66509063541668,74.0,86.0
222,177.72598793125002,178.03047441041667,77.0,84.0
223,178.11060243125002,178.47278108541667,74.0,88.0
224,178.49521693125,179.47598390625,67.0,82.0
225,179.64906043125,179.92149570208335,67.0,79.0
226,180.03367493125,180.3573921354167,67.0,81.0
227,180.41828943125003,180.70675030625003,70.0,81.0
228,180.80290393125003,181.16828770625003,70.0,85.0
229,181.18751843125003,181.57213293125002,67.0,80.0
230,181.57213293125002,182.6057844,65.0,84.0
231,182.72597643125002,182.98879633958336,65.0,80.0
232,183.11059093125002,183.47757726666669,65.0,85.0
233,183.49520543125,183.76764070208336,62.0,85.0
234,183.87981993125,184.3958443854167,62.0,85.0
235,184.26443443125004,184.97436869583336,65.0,84.0
236,185.03366343125003,188.51442465625001,67.0,84.0
237,189.26442293125,189.49999931250002,70.0,82.0
238,189.64903743125,190.01442120625,70.0,85.0
239,190.03365193125,190.33653585000002,72.0,90.0
240,190.41826643125,190.69711194375003,72.0,85.0
241,190.80288093125003,191.05929059791669,74.0,88.0
242,191.18749543125003,191.48877678958337,74.0,85.0
243,191.57210993125003,191.8140965541667,74.0,89.0
244,191.95672443125002,192.22435202083335,74.0,93.0
245,192.34133893125002,192.72595343125002,74.0,91.0
246,192.72595343125002,193.11056793125002,74.0,91.0
247,193.11056793125002,193.49518243125002,74.0,91.0
248,193.49518243125002,193.87979693125,77.0,85.0
249,193.87979693125,194.2612063104167,79.0,77.0
250,194.26441143125004,194.53844926250002,77.0,86.0
251,194.64902593125004,195.0400506729167,77.0,85.0
252,195.03364043125003,195.66344667500002,72.0,84.0
253,195.80286943125003,196.1217789541667,72.0,85.0
254,196.18748393125003,196.51120113541668,74.0,90.0
255,196.57209843125003,196.84934138333335,77.0,80.0
256,196.95671293125002,197.26119941041668,79.0,84.0
257,197.34132743125002,197.65863439375002,79.0,84.0
258,197.72594193125002,198.0448514541667,79.0,85.0
259,198.11055643125002,198.34132513125002,79.0,84.0
260,198.49517093125002,198.75799083958336,79.0,88.0
261,198.87978543125,199.16824630625,77.0,80.0
262,199.26439993125,199.60254017916668,77.0,78.0
263,199.64901443125,200.10894927083336,72.0,85.0
264,200.03362893125,200.80285793125,74.0,77.0
265,201.18747243125,201.56888181041668,74.0,91.0
266,201.57208693125003,201.84932988333335,72.0,88.0
267,201.95670143125002,202.2804186354167,74.0,86.0
268,202.34131593125002,202.6458024104167,77.0,84.0
269,202.72593043125002,203.0881090854167,74.0,88.0
270,203.11054493125002,204.09131190625004,67.0,82.0
271,204.26438843125004,204.53682370208335,67.0,79.0
272,204.64900293125004,204.9727201354167,67.0,81.0
273,205.03361743125004,205.32207830625003,70.0,81.0
274,205.41823193125003,205.78361570625003,70.0,85.0
275,205.80284643125003,206.18746093125003,67.0,80.0
276,206.18746093125003,207.22111240000004,65.0,84.0
277,207.34130443125002,207.60412433958334,65.0,80.0
278,207.72591893125002,208.0929052666667,65.0,85.0
279,208.11053343125002,208.38296870208336,62.0,85.0
280,208.49514793125002,209.01117238541667,62.0,85.0
281,208.87976243125001,209.58969669583337,65.0,84.0
282,209.64899143125,213.12975265625002,67.0,84.0
283,238.49507893125002,238.7306553125,70.0,82.0
284,238.87969343125002,239.24507720625002,70.0,85.0
285,239.26430793125002,239.56719185000003,72.0,90.0
286,239.64892243125,239.92776794375004,72.0,85.0
287,240.03353693125,240.2899465979167,74.0,88.0
288,240.41815143125,240.71943278958335,74.0,85.0
289,240.80276593125,241.04475255416668,74.0,89.0
290,241.18738043125,241.45500802083336,74.0,93.0
291,241.57199493125,241.95660943125003,74.0,91.0
292,241.95660943125003,242.34122393125003,74.0,91.0
293,242.34122393125003,242.72583843125003,74.0,91.0
294,242.72583843125003,243.11045293125002,77.0,85.0
295,243.11045293125002,243.4918623104167,79.0,77.0
296,243.49506743125002,243.76910526250003,77.0,86.0
297,243.87968193125002,244.27070667291667,77.0,85.0
298,244.26429643125002,244.89410267500003,72.0,84.0
299,245.03352543125004,245.3524349541667,72.0,85.0
300,245.41813993125004,245.7418571354167,74.0,90.0
301,245.80275443125004,246.07999738333336,77.0,80.0
302,246.18736893125003,246.4918554104167,79.0,84.0
303,246.57198343125003,246.88929039375,79.0,84.0
304,246.95659793125003,247.2755074541667,79.0,85.0
305,247.34121243125003,247.57198113125003,79.0,84.0
306,247.72582693125003,247.98864683958334,79.0,88.0
307,248.11044143125002,248.39890230625002,77.0,80.0
308,248.49505593125002,248.8331961791667,77.0,78.0
309,248.87967043125002,249.33960527083337,72.0,85.0
310,249.26428493125002,250.03351393125,74.0,77.0
311,250.41812843125,250.7995378104167,74.0,91.0
312,250.80274293125,251.07998588333334,72.0,88.0
313,251.18735743125,251.5110746354167,74.0,86.0
314,251.57197193125,251.8764584104167,77.0,84.0
315,251.95658643125,252.3187650854167,74.0,88.0
316,252.34120093125003,253.32196790625002,67.0,82.0
317,253.49504443125002,253.76747970208336,67.0,79.0
318,253.87965893125002,254.2033761354167,67.0,81.0
319,254.26427343125002,254.55273430625002,70.0,81.0
320,254.64888793125004,255.01427170625004,70.0,85.0
321,255.03350243125004,255.41811693125004,67.0,80.0
322,255.41811693125004,256.4517684,65.0,84.0
323,256.57196043125003,256.83478033958335,65.0,80.0
324,256.95657493125003,257.3235612666667,65.0,85.0
325,257.34118943125003,257.61362470208337,62.0,85.0
326,257.72580393125,258.2418283854167,62.0,85.0
327,258.11041843125,258.8203526958334,65.0,84.0
328,258.87964743125,262.36040865625,67.0,84.0
329,263.11040693125005,263.34598331250004,70.0,82.0
330,263.49502143125005,263.86040520625,70.0,85.0
331,263.87963593125005,264.18251985000006,72.0,90.0
332,264.26425043125005,264.54309594375,72.0,85.0
333,264.64886493125005,264.9052745979167,74.0,88.0
334,265.03347943125004,265.33476078958336,74.0,85.0
335,265.41809393125004,265.6600805541667,74.0,89.0
336,265.80270843125004,266.07033602083334,74.0,93.0
337,266.18732293125004,266.57193743125003,74.0,91.0
338,266.57193743125003,266.95655193125003,74.0,91.0
339,266.95655193125003,267.34116643125003,74.0,91.0
340,267.34116643125003,267.72578093125003,77.0,85.0
341,267.72578093125003,268.1071903104167,79.0,77.0
342,268.11039543125,268.3844332625,77.0,86.0
343,268.49500993125,268.8860346729167,77.0,85.0
344,268.87962443125,269.50943067500003,72.0,84.0
345,269.64885343125,269.9677629541667,72.0,85.0
346,270.03346793125,270.35718513541667,74.0,90.0
347,270.41808243125,270.6953253833334,77.0,80.0
348,270.80269693125,271.1071834104167,79.0,84.0
349,271.18731143125,271.50461839375004,79.0,84.0
350,271.57192593125,271.8908354541667,79.0,85.0
351,271.95654043125,272.18730913125,79.0,84.0
352,272.34115493125,272.6039748395833,79.0,88.0
353,272.72576943125,273.01423030625006,77.0,80.0
354,273.11038393125,273.4485241791667,77.0,78.0
355,273.49499843125,273.95493327083335,72.0,85.0
356,273.87961293125,274.64884193125,74.0,77.0
357,275.03345643125,275.4148658104167,74.0,91.0
358,275.41807093125,275.69531388333337,72.0,88.0
359,275.80268543125,276.1264026354167,74.0,86.0
360,276.18729993125004,276.4917864104167,77.0,84.0
361,276.57191443125004,276.9340930854167,74.0,88.0
362,276.95652893125003,277.93729590625003,67.0,82.0
363,278.11037243125,278.38280770208337,67.0,79.0
364,278.49498693125,278.8187041354167,67.0,81.0
365,278.87960143125,279.16806230625,70.0,81.0
366,279.26421593125,279.62959970625,70.0,85.0
367,279.64883043125,280.03344493125,67.0,80.0
368,280.03344493125,281.0670964,65.0,84.0
369,281.18728843125,281.4501083395834,65.0,80.0
370,281.57190293125007,281.9388892666667,65.0,85.0
371,281.95651743125006,282.22895270208335,62.0,85.0
372,282.34113193125006,282.8571563854167,62.0,85.0
373,282.72574643125006,283.43568069583336,65.0,84.0
374,283.49497543125005,286.97573665625004,67.0,84.0
375,287.72573493125003,287.9613113125,70.0,82.0
376,288.11034943125003,288.47573320625,70.0,85.0
377,288.49496393125,288.79784785000004,72.0,90.0
378,288.87957843125,289.15842394375,72.0,85.0
379,289.26419293125,289.52060259791665,74.0,88.0
380,289.64880743125,289.95008878958333,74.0,85.0
381,290.03342193125,290.2754085541667,74.0,89.0
382,290.41803643125,290.68566402083337,74.0,93.0
383,290.80265093125,291.18726543125,74.0,91.0
384,291.18726543125,291.57187993125,74.0,91.0
385,291.57187993125,291.95649443125,74.0,91.0
386,291.95649443125,292.34110893125,77.0,85.0
387,292.34110893125,292.7225183104167,79.0,77.0
388,292.72572343125,292.9997612625,77.0,86.0
389,293.11033793125,293.5013626729167,77.0,85.0
390,293.49495243125,294.12475867500007,72.0,84.0
391,294.26418143125,294.58309095416666,72.0,85.0
392,294.64879593125,294.9725131354167,74.0,90.0
393,295.03341043125,295.3106533833334,77.0,80.0
394,295.41802493125,295.7225114104167,79.0,84.0
395,295.80263943125,296.11994639375,79.0,84.0
396,296.18725393125,296.50616345416665,79.0,85.0
397,296.57186843125004,296.80263713125004,79.0,84.0
398,296.95648293125004,297.21930283958335,79.0,88.0
399,297.34109743125003,297.62955830625003,77.0,80.0
400,297.72571193125003,298.0638521791667,77.0,78.0
401,298.11032643125003,298.5702612708334,72.0,85.0
402,298.49494093125,299.26416993125,74.0,77.0
403,299.64878443125,300.0301938104167,74.0,91.0
404,300.03339893125,300.31064188333335,72.0,88.0
405,300.41801343125,300.74173063541673,74.0,86.0
406,300.80262793125,301.10711441041667,77.0,84.0
407,301.18724243125,301.5494210854167,74.0,88.0
408,301.57185693125,302.55262390625,67.0,82.0
409,302.72570043125006,302.99813570208335,67.0,79.0
410,303.11031493125006,303.4340321354167,67.0,81.0
411,303.49492943125006,303.78339030625,70.0,81.0
412,303.87954393125005,304.24492770625,70.0,85.0
413,304.26415843125005,304.64877293125005,67.0,80.0
414,304.64877293125005,305.68242440000006,65.0,84.0
415,305.80261643125004,306.06543633958336,65.0,80.0
416,306.18723093125004,306.5542172666667,65.0,85.0
417,306.57184543125004,306.8442807020833,62.0,85.0
418,306.95645993125004,307.4724843854167,62.0,85.0
419,307.34107443125004,308.0510086958334,65.0,84.0
420,308.11030343125003,311.59106465625,67.0,84.0
421,312.34106293125,312.5766393125,70.0,82.0
422,312.72567743125,313.09106120625006,70.0,85.0
423,313.11029193125,313.41317585,72.0,90.0
424,313.49490643125,313.77375194375,72.0,85.0
425,313.87952093125,314.1359305979167,74.0,88.0
426,314.26413543125,314.56541678958337,74.0,85.0
427,314.64874993125,314.89073655416666,74.0,89.0
428,315.03336443125,315.30099202083335,74.0,93.0
429,315.41797893125,315.80259343125,74.0,91.0
430,315.80259343125,316.18720793125,74.0,91.0
431,316.18720793125,316.57182243125,74.0,91.0
432,316.57182243125,316.95643693125004,77.0,85.0
433,316.95643693125004,317.3378463104167,79.0,77.0
434,317.34105143125004,317.6150892625,77.0,86.0
435,317.72566593125003,318.11669067291666,77.0,85.0
436,318.11028043125003,318.74008667500004,72.0,84.0
437,318.87950943125,319.1984189541667,72.0,85.0
438,319.26412393125,319.5878411354167,74.0,90.0
439,319.64873843125,319.92598138333335,77.0,80.0
440,320.03335293125,320.3378394104167,79.0,84.0
441,320.41796743125,320.73527439375005,79.0,84.0
442,320.80258193125,321.1214914541667,79.0,85.0
443,321.18719643125,321.41796513125,79.0,84.0
444,321.57181093125,321.8346308395834,79.0,88.0
445,321.95642543125007,322.24488630625,77.0,80.0
446,322.34103993125007,322.6791801791667,77.0,78.0
447,322.72565443125006,323.18558927083336,72.0,85.0
448,323.11026893125006,323.87949793125006,74.0,77.0
449,324.26411243125006,324.64552181041665,74.0,91.0
450,324.64872693125005,324.9259698833333,72.0,88.0
451,325.03334143125005,325.3570586354167,74.0,86.0
452,325.41795593125005,325.7224424104167,77.0,84.0
453,325.80257043125005,326.1647490854167,74.0,88.0
454,326.18718493125004,327.16795190625004,67.0,82.0
455,327.34102843125004,327.6134637020833,67.0,79.0
456,327.72564293125004,328.0493601354167,67.0,81.0
457,328.11025743125003,328.39871830625003,70.0,81.0
458,328.49487193125003,328.86025570625003,70.0,85.0
459,328.87948643125003,329.26410093125,67.0,80.0
460,329.26410093125,330.29775240000004,65.0,84.0
461,330.41794443125,330.68076433958333,65.0,80.0
462,330.80255893125,331.16954526666666,65.0,85.0
463,331.18717343125,331.45960870208336,62.0,85.0
464,331.57178793125,332.08781238541667,62.0,85.0
465,331.95640243125,332.66633669583337,65.0,84.0
466,332.72563143125,336.20639265625005,67.0,84.0
