,start,end,pitch,velocity
0,1.16826654375,2.7243527083333334,50.0,54.0
1,1.93749554375,2.741980872916667,58.0,74.0
2,0.78365204375,2.7612115979166667,43.0,84.0
3,1.55288104375,2.814096091666667,55.0,74.0
4,3.47595354375,5.19229575,48.0,73.0
5,3.8605680437500003,5.535243679166667,53.0,88.0
6,4.24518254375,5.596140975,60.0,44.0
7,4.24518254375,5.6698587541666665,57.0,80.0
8,5.39902604375,5.751589335416667,48.0,71.0
9,3.09133904375,5.753191895833334,41.0,82.0
10,6.16825504375,6.650625729166667,55.0,74.0
11,6.16825504375,6.9487019666666665,58.0,72.0
12,6.9374840437500005,7.84132811875,55.0,84.0
13,7.32209854375,8.483954845833333,63.0,84.0
14,6.55286954375,8.5384419,46.0,60.0
15,6.16825504375,8.55286494375,39.0,82.0
16,9.24517104375,9.697093081250001,50.0,79.0
17,9.24517104375,9.743567333333333,54.0,72.0
18,10.014400043750001,10.78362904375,50.0,89.0
19,9.62978554375,10.84132121875,45.0,69.0
20,9.24517104375,10.8942057125,38.0,89.0
21,10.78362904375,11.073692479166667,57.0,75.0
22,10.78362904375,11.18747426875,62.0,79.0
23,11.16824354375,11.507986352083334,57.0,77.0
24,10.78362904375,11.8461266,50.0,84.0
25,11.55285804375,11.945485345833333,66.0,79.0
26,11.937472543750001,12.506381491666668,57.0,73.0
27,13.860545043750001,14.6249663625,58.0,81.0
28,13.09131604375,14.6826585375,55.0,85.0
29,12.70670154375,14.890991391666667,50.0,73.0
30,12.32208704375,14.903811875,43.0,84.0
31,14.62977404375,14.953491247916666,67.0,80.0
32,13.47593054375,15.017593664583334,62.0,82.0
33,15.01438854375,15.17784970625,55.0,85.0
34,15.39900304375,16.338103447916666,57.0,78.0
35,16.16823204375,16.722717947916667,53.0,79.0
36,16.55284654375,17.10252476666667,60.0,76.0
37,17.32207554375,17.79002318541667,53.0,73.0
38,16.93746104375,17.80444622916667,65.0,80.0
39,15.783617543750001,17.81406159166667,48.0,67.0
40,15.39900304375,17.838099997916668,41.0,80.0
41,17.70669004375,17.958292029166667,60.0,77.0
42,18.47591904375,19.306045339583335,58.0,70.0
43,18.86053354375,19.461493700000002,46.0,69.0
44,19.24514804375,20.048030812500002,55.0,82.0
45,19.62976254375,20.291619995833333,46.0,68.0
46,19.82206979375,20.671426814583334,58.0,77.0
47,18.47591904375,20.810849570833334,39.0,79.0
48,20.39899154375,20.810849570833334,46.0,65.0
49,20.78360604375,20.98232353541667,63.0,84.0
50,22.32206404375,22.743537433333334,57.0,59.0
51,22.70667854375,23.1826389875,58.0,68.0
52,21.937449543750002,24.29321335625,50.0,71.0
53,21.55283504375,24.347700410416667,43.0,81.0
54,23.09129304375,25.187442068750002,62.0,75.0
55,25.39898004375,25.810838070833334,57.0,86.0
56,25.783594543750002,26.09769638541667,58.0,81.0
57,26.16820904375,26.830066495833336,55.0,71.0
58,26.16820904375,27.027181427083335,62.0,73.0
59,25.01436554375,27.193847710416666,50.0,69.0
60,24.62975104375,27.21788611666667,43.0,81.0
61,28.47589604375,28.8749335875,57.0,72.0
62,28.86051054375,29.24191992291667,58.0,78.0
63,27.706667043750002,30.16819984375,43.0,85.0
64,28.09128154375,30.169802404166667,50.0,76.0
65,29.24512504375,30.306020039583334,62.0,75.0
66,29.24512504375,30.310827720833334,55.0,72.0
67,31.16819754375,31.914990697916668,53.0,78.0
68,31.552812043750002,31.963067510416668,58.0,85.0
69,31.93742654375,32.68421969791667,62.0,75.0
70,32.70665554375,32.91659095833334,53.0,58.0
71,33.09127004375,33.28357729375,53.0,80.0
72,33.09127004375,33.29479521666667,58.0,75.0
73,30.78358304375,33.33165410625,46.0,87.0
74,33.86049904375,34.387741420833336,57.0,71.0
75,33.86049904375,35.443828735416666,60.0,78.0
76,34.62972804375,35.47587994375,57.0,78.0
77,35.78357154375,36.230685900000005,57.0,67.0
78,35.014342543750004,36.259531987500004,65.0,81.0
79,34.24511354375,36.264339668750004,48.0,65.0
80,33.86049904375,36.26594222916667,41.0,84.0
81,36.16818604375,36.52555701666667,60.0,84.0
82,36.55280054375,36.711454025,57.0,72.0
83,36.93741504375,37.79478486666667,58.0,79.0
84,37.70664404375,38.556001064583334,55.0,81.0
85,39.24510204375,39.49510146875,58.0,59.0
86,37.32202954375,39.560806445833336,50.0,72.0
87,36.93741504375,39.583242291666664,43.0,84.0
88,38.09125854375,39.65856263125,62.0,84.0
89,39.62971654375,39.74670345416667,55.0,87.0
90,39.24510204375,40.02554896666667,67.0,80.0
91,40.01433104375,40.20824085416667,57.0,70.0
92,40.01433104375,40.847662460416664,62.0,75.0
93,40.39894554375,40.903752075,57.0,74.0
94,41.16817454375,42.01753156458334,62.0,76.0
95,41.93740354375,42.1633645625,57.0,74.0
96,40.78356004375,42.26592842916667,65.0,79.0
97,40.01433104375,42.52394065625,50.0,84.0
98,42.32201804375,42.67458133541667,57.0,79.0
99,42.32201804375,43.11849057083334,62.0,75.0
100,43.09124704375,43.289964535416665,55.0,75.0
101,43.09124704375,43.56400236666667,58.0,71.0
102,43.47586154375,43.95502710833333,55.0,83.0
103,43.09124704375,44.24348798333333,39.0,79.0
104,43.860476043750005,45.442203175,58.0,85.0
105,44.24509054375,45.7787408625,63.0,80.0
106,45.39893404375,45.88450985,55.0,82.0
107,45.78354854375,45.98707371666667,58.0,70.0
108,46.16816304375,46.62168764166667,57.0,78.0
109,46.552777543750004,47.41014736666667,53.0,73.0
110,46.93739204375,47.5479675625,60.0,79.0
111,48.09123554375,48.517516614583336,53.0,71.0
112,46.16816304375,48.743477633333335,41.0,79.0
113,48.47585004375,48.96463097083333,60.0,83.0
114,47.32200654375,49.014310343750005,65.0,84.0
115,49.24507904375,50.057577175,58.0,72.0
116,50.01430804375,50.50629409166667,55.0,82.0
117,51.16815154375,51.581612131250004,55.0,71.0
118,50.398922543750004,51.62648382291667,62.0,84.0
119,49.62969354375,51.85404740208333,50.0,74.0
120,49.24507904375,51.88129092916667,43.0,83.0
121,51.552766043750005,52.07039305833334,67.0,80.0
122,51.93738054375,52.85244254166667,55.0,83.0
123,52.32199504375,53.07519843958333,58.0,75.0
124,52.32199504375,53.09442916458333,62.0,76.0
125,52.70660954375,53.1537239,50.0,69.0
126,53.09122404375,53.98545275625,55.0,85.0
127,53.86045304375,54.37968261875,58.0,73.0
128,53.47583854375,54.5864129125,50.0,70.0
129,53.86045304375,54.63288716458334,62.0,74.0
130,52.32199504375,54.655323010416666,43.0,82.0
131,55.01429654375,55.38769312083333,45.0,77.0
132,55.01429654375,55.42455201041667,57.0,71.0
133,55.398911043750005,55.83160235625,58.0,74.0
134,55.398911043750005,55.97583279375,62.0,76.0
135,55.78352554375,56.291537195833335,53.0,80.0
136,56.16814004375,57.07038155833334,58.0,85.0
137,56.552754543750005,57.249868325,65.0,85.0
138,57.32198354375,57.55916248541667,53.0,61.0
139,57.70659804375,58.06396901666667,58.0,85.0
140,57.70659804375,58.19858409166667,62.0,84.0
141,55.398911043750005,58.39730158333334,46.0,77.0
142,58.091212543750004,58.5287115375,53.0,84.0
143,58.47582704375,59.293132856250004,57.0,82.0
144,59.245056043750004,59.7402472125,53.0,85.0
145,59.62967054375,60.49665572916667,60.0,85.0
146,60.398899543750005,60.61845032083333,53.0,79.0
147,60.78351404375,60.980628975,53.0,85.0
148,58.47582704375,61.121654291666665,41.0,75.0
149,58.86044154375,61.145692697916665,48.0,68.0
150,60.78351404375,61.22742327916667,57.0,83.0
151,61.16812854375,61.51588415416667,53.0,83.0
152,61.55274304375,62.309151560416666,58.0,80.0
153,62.32197204375,62.55915098541667,55.0,85.0
154,61.937357543750004,62.940560364583334,50.0,79.0
155,62.70658654375,63.014278143750005,55.0,85.0
156,62.70658654375,63.49825138958334,62.0,80.0
157,63.47581554375,63.9229299,55.0,82.0
158,63.86043004375,63.99504511875,62.0,88.0
159,63.86043004375,64.17613444583334,58.0,86.0
160,63.86043004375,64.25465990625,67.0,84.0
161,63.091201043750004,64.33158280625,50.0,75.0
162,61.55274304375,64.34440328958334,43.0,85.0
163,64.62965904375,64.79792788750001,57.0,72.0
164,64.62965904375,65.09600412500001,62.0,80.0
165,65.01427354375001,65.50145191041666,57.0,82.0
166,65.39888804375,65.58318249166666,62.0,85.0
167,65.78350254375,66.61843652083334,57.0,84.0
168,65.78350254375,66.62805188333334,65.0,82.0
169,66.55273154375,66.95657676875,62.0,83.0
170,64.62965904375,67.12644817291667,50.0,86.0
171,66.93734604375,67.18574290833334,57.0,86.0
172,67.70657504375001,67.99503591875,55.0,79.0
173,67.70657504375001,68.20977901458333,58.0,75.0
174,68.09118954375,68.5094578125,55.0,83.0
175,68.47580404375,68.82836733541667,58.0,85.0
176,67.70657504375001,68.91490559791667,39.0,79.0
177,68.86041854375,69.34118666875,63.0,89.0
178,70.01426204375001,70.33156900625,55.0,86.0
179,70.39887654375,70.80913201041668,58.0,86.0
180,70.78349104375,71.21938747708333,53.0,78.0
181,70.78349104375,71.54470724166667,57.0,82.0
182,71.55272004375,72.00624464166667,53.0,85.0
183,71.93733454375,72.81553765208334,60.0,84.0
184,72.70656354375001,72.97739625416666,53.0,73.0
185,73.09117804375,73.40527988541668,53.0,85.0
186,73.09117804375,73.45656181875,60.0,81.0
187,70.78349104375,73.50143351041667,41.0,85.0
188,71.16810554375,73.53508727916667,48.0,77.0
189,73.86040704375,74.30271371875,55.0,84.0
190,73.86040704375,74.52707217708334,58.0,84.0
191,74.62963604375,74.79950744791667,55.0,85.0
192,75.01425054375001,75.37162151666666,55.0,87.0
193,75.01425054375001,75.75783857708333,62.0,83.0
194,75.78347954375,76.02065848541667,55.0,71.0
195,76.16809404375,76.54149062083333,62.0,81.0
196,76.16809404375,76.57354182916667,67.0,80.0
197,74.24502154375,76.61040071875,50.0,75.0
198,73.86040704375,76.61841352083333,43.0,85.0
199,76.16809404375,76.62001608125,58.0,84.0
200,76.55270854375,76.865207825,55.0,84.0
201,76.93732304375,77.40046300416667,55.0,85.0
202,76.93732304375,77.41488604791667,58.0,78.0
203,77.32193754375,77.91007721666666,50.0,72.0
204,77.70655204375001,78.02706412708334,58.0,85.0
205,77.70655204375001,78.27065331041666,62.0,84.0
206,76.93732304375,78.6152038,43.0,85.0
207,78.47578104375,78.97257477291667,55.0,85.0
208,78.86039554375,79.41007376666667,50.0,81.0
209,78.86039554375,79.48699666666667,43.0,60.0
210,79.24501004375,79.51424019375,57.0,84.0
211,80.01423904375,80.19212325000001,53.0,80.0
212,80.01423904375,80.41648170833334,58.0,78.0
213,80.39885354375001,80.66007089166666,53.0,75.0
214,80.78346804375,80.91968567916668,58.0,85.0
215,81.16808254375,81.288274575,53.0,81.0
216,81.55269704375,81.67128651458333,53.0,85.0
217,81.55269704375,81.7017351625,58.0,91.0
218,81.55269704375,81.76744013958334,62.0,86.0
219,81.93731154375,82.02064468541667,53.0,65.0
220,82.32192604375,82.46295136041667,53.0,84.0
221,80.01423904375,82.4901948875,46.0,93.0
222,82.32192604375,82.62160484166667,58.0,86.0
223,82.70654054375001,82.93250156250001,53.0,84.0
224,83.09115504375,83.53025659791668,57.0,81.0
225,83.09115504375,83.54628220208333,53.0,80.0
226,83.86038404375,84.28666511458334,60.0,78.0
227,84.24499854375,84.40685714583334,57.0,84.0
228,83.47576954375,84.46454932083334,48.0,70.0
229,83.09115504375,84.519036375,41.0,85.0
230,84.62961304375,84.84115101875,53.0,79.0
231,84.62961304375,84.99339425833334,57.0,84.0
232,84.62961304375,85.05589411458334,65.0,81.0
233,85.01422754375,85.54627760208334,48.0,71.0
234,84.62961304375,85.60396977708334,41.0,84.0
235,85.39884204375001,85.76743093958333,57.0,85.0
236,85.39884204375001,85.78185398333333,60.0,84.0
237,85.78345654375,85.97416123333333,53.0,86.0
238,86.16807104375,86.48858312708333,55.0,84.0
239,86.16807104375,86.59114699375,58.0,80.0
240,86.93730004375,87.11678681041667,58.0,80.0
241,86.93730004375,87.13281241458334,62.0,84.0
242,86.16807104375,87.37159391666667,43.0,84.0
243,87.32191454375,87.40685024583334,62.0,39.0
244,87.32191454375,87.77383658125001,55.0,84.0
245,87.70652904375001,88.02223344583334,67.0,83.0
246,87.70652904375001,88.04146417083334,43.0,76.0
247,87.70652904375001,88.05268209375001,62.0,80.0
248,87.70652904375001,88.09595122500001,58.0,74.0
249,88.09114354375001,88.43569403333333,55.0,79.0
250,88.47575804375,88.8459495,58.0,84.0
251,88.47575804375,88.95973128958333,62.0,83.0
252,88.86037254375,89.04146187083333,55.0,84.0
253,89.24498704375,89.4709480625,57.0,80.0
254,89.24498704375,89.71613980625,62.0,85.0
255,89.62960154375,90.07351077916667,57.0,77.0
256,89.24498704375,90.24658730416667,50.0,81.0
257,90.01421604375,90.36036909375001,65.0,86.0
258,90.39883054375001,90.66645813333334,57.0,83.0
259,90.78344504375,91.01100862291666,57.0,78.0
260,90.78344504375,91.23216196041668,62.0,81.0
261,91.16805954375,91.40684104583333,57.0,80.0
262,91.55267404375,91.71934032708333,57.0,85.0
263,90.78344504375,91.85876308333333,50.0,84.0
264,91.55267404375,91.94530134583334,60.0,84.0
265,91.93728854375,92.1824802875,57.0,75.0
266,92.32190304375,92.51581285416667,55.0,80.0
267,92.32190304375,92.75779947708334,58.0,73.0
268,92.70651754375,92.98536305625001,55.0,76.0
269,92.32190304375,92.99658097916667,39.0,80.0
270,93.09113204375001,93.49497726875,58.0,87.0
271,93.47574654375,93.86356616458333,55.0,79.0
272,93.86036104375,94.2305525,63.0,84.0
273,93.86036104375,94.27061651041667,58.0,84.0
274,94.24497554375,94.67446173541667,55.0,71.0
275,94.62959004375,95.03183270833334,58.0,87.0
276,95.01420454375,95.2017041125,55.0,85.0
277,95.39881904375001,95.84913852083334,53.0,78.0
278,95.39881904375001,95.9517023875,57.0,80.0
279,95.78343354375001,96.59272655416667,48.0,73.0
280,96.16804804375,96.62638032291667,60.0,84.0
281,95.39881904375001,96.66804689375,41.0,84.0
282,96.55266254375,97.22253279791667,53.0,86.0
283,96.93727704375,97.45650661875,65.0,84.0
284,97.32189154375,97.83631343750001,48.0,73.0
285,97.70650604375,97.87317232708334,53.0,80.0
286,96.93727704375,97.87958256875001,41.0,78.0
287,97.70650604375,98.07830006041667,57.0,80.0
288,98.09112054375001,98.22253049791667,53.0,81.0
289,98.47573504375,98.94368268541668,55.0,84.0
290,98.86034954375,99.365156075,50.0,72.0
291,99.24496404375,99.66162975208334,58.0,84.0
292,99.62957854375,100.08791082291667,50.0,65.0
293,100.01419304375,100.36675633541667,58.0,84.0
294,100.01419304375,100.43887155416667,62.0,82.0
295,100.78342204375001,100.89720383333334,55.0,87.0
296,100.39880754375001,101.22893383958333,50.0,60.0
297,98.47573504375,101.24656200416668,43.0,84.0
298,100.78342204375001,101.27540809166668,67.0,79.0
299,101.16803654375,101.95809882916667,55.0,85.0
300,102.32188004375,102.62155884166667,58.0,85.0
301,101.93726554375,102.79143024583334,50.0,77.0
302,102.32188004375,102.80425072916667,62.0,84.0
303,101.55265104375,102.89559667291667,43.0,86.0
304,102.70649454375,102.96450677083334,55.0,80.0
305,103.09110904375001,103.22412155833334,55.0,79.0
306,103.09110904375001,103.48373634583334,58.0,89.0
307,103.09110904375001,103.557454125,62.0,84.0
308,103.09110904375001,103.76578697916668,43.0,86.0
309,103.47572354375001,103.79623562708333,55.0,81.0
310,103.86033804375,104.57507998958333,57.0,85.0
311,103.86033804375,104.59110559375,45.0,85.0
312,104.62956704375,104.80745125,53.0,80.0
313,104.62956704375,105.03180970833334,58.0,78.0
314,105.01418154375,105.27539889166667,53.0,75.0
315,105.39879604375,105.53501367916667,58.0,85.0
316,105.78341054375001,105.90360257500001,53.0,81.0
317,106.16802504375,106.28661451458333,53.0,85.0
318,106.16802504375,106.3170631625,58.0,91.0
319,106.16802504375,106.38276813958333,62.0,86.0
320,106.55263954375,106.63597268541668,53.0,65.0
321,106.93725404375,107.07827936041667,53.0,84.0
322,104.62956704375,107.1055228875,46.0,93.0
323,106.93725404375,107.23693284166667,58.0,86.0
324,107.32186854375,107.5478295625,53.0,84.0
325,107.70648304375,108.14558459791667,57.0,81.0
326,107.70648304375,108.16161020208334,53.0,80.0
327,108.47571204375001,108.90199311458333,60.0,78.0
328,108.86032654375,109.02218514583333,57.0,84.0
329,108.09109754375001,109.07987732083333,48.0,70.0
330,107.70648304375,109.134364375,41.0,85.0
331,109.24494104375,109.45647901875,53.0,79.0
332,109.24494104375,109.60872225833333,57.0,84.0
333,109.24494104375,109.67122211458333,65.0,81.0
334,109.62955554375,110.16160560208334,48.0,71.0
335,109.24494104375,110.21929777708334,41.0,84.0
336,110.01417004375,110.38275893958334,57.0,85.0
337,110.01417004375,110.39718198333334,60.0,84.0
338,110.39878454375,110.58948923333334,53.0,86.0
339,110.78339904375001,111.10391112708334,55.0,84.0
340,110.78339904375001,111.20647499375,58.0,80.0
341,111.55262804375,111.73211481041668,58.0,80.0
342,111.55262804375,111.74814041458333,62.0,84.0
343,110.78339904375001,111.98692191666667,43.0,84.0
344,111.93724254375,112.02217824583333,62.0,39.0
345,111.93724254375,112.38916458125,55.0,84.0
346,112.32185704375,112.63756144583334,67.0,83.0
347,112.32185704375,112.65679217083334,43.0,76.0
348,112.32185704375,112.66801009375,62.0,80.0
349,112.32185704375,112.711279225,58.0,74.0
350,112.70647154375,113.05102203333334,55.0,79.0
351,113.09108604375001,113.46127750000001,58.0,84.0
352,113.09108604375001,113.57505928958334,62.0,83.0
353,113.47570054375001,113.65678987083334,55.0,84.0
354,113.86031504375,114.0862760625,57.0,80.0
355,113.86031504375,114.33146780625,62.0,85.0
356,114.24492954375,114.68883877916667,57.0,77.0
357,113.86031504375,114.86191530416667,50.0,81.0
358,114.62954404375,114.97569709375,65.0,86.0
359,115.01415854375,115.28178613333334,57.0,83.0
360,115.39877304375,115.62633662291667,57.0,78.0
361,115.39877304375,115.84748996041667,62.0,81.0
362,115.78338754375001,116.02216904583334,57.0,80.0
363,116.16800204375001,116.33466832708334,57.0,85.0
364,115.39877304375,116.47409108333333,50.0,84.0
365,116.16800204375001,116.56062934583333,60.0,84.0
366,116.55261654375,116.7978082875,57.0,75.0
367,116.93723104375,117.13114085416667,55.0,80.0
368,116.93723104375,117.37312747708334,58.0,73.0
369,117.32184554375,117.60069105625,55.0,76.0
370,116.93723104375,117.61190897916667,39.0,80.0
371,117.70646004375,118.11030526875,58.0,87.0
372,118.09107454375,118.47889416458334,55.0,79.0
373,118.47568904375001,118.8458805,63.0,84.0
374,118.47568904375001,118.88594451041666,58.0,84.0
375,118.86030354375,119.28978973541668,55.0,71.0
376,119.24491804375,119.64716070833333,58.0,87.0
377,119.62953254375,119.8170321125,55.0,85.0
378,120.01414704375,120.46446652083334,53.0,78.0
379,120.01414704375,120.5670303875,57.0,80.0
380,120.39876154375,121.20805455416667,48.0,73.0
381,120.78337604375001,121.24170832291666,60.0,84.0
382,120.01414704375,121.28337489375001,41.0,84.0
383,121.16799054375001,121.83786079791668,53.0,86.0
384,121.55260504375,122.07183461875,65.0,84.0
385,121.93721954375,122.4516414375,48.0,73.0
386,122.32183404375,122.48850032708334,53.0,80.0
387,121.55260504375,122.49491056875,41.0,78.0
388,122.32183404375,122.69362806041667,57.0,80.0
389,122.70644854375,122.83785849791667,53.0,81.0
390,123.09106304375,123.55901068541667,55.0,84.0
391,123.47567754375001,123.980484075,50.0,72.0
392,123.86029204375001,124.27695775208333,58.0,84.0
393,124.24490654375,124.70323882291667,50.0,65.0
394,124.62952104375,124.98208433541667,58.0,84.0
395,124.62952104375,125.05419955416667,62.0,82.0
396,125.39875004375,125.51253183333334,55.0,87.0
397,125.01413554375,125.84426183958334,50.0,60.0
398,123.09106304375,125.86189000416667,43.0,84.0
399,125.39875004375,125.89073609166667,67.0,79.0
400,125.78336454375001,126.57342682916666,55.0,85.0
401,126.93720804375,127.77374458125,55.0,83.0
402,127.32182254375,128.15194883958333,58.0,85.0
403,127.70643704375,128.17438468541667,67.0,80.0
404,128.09105154375,128.55098638333334,55.0,68.0
405,126.16797904375001,129.15835678125,43.0,86.0
406,126.55259354375,129.18880542916668,50.0,75.0
407,128.47566604375,129.22245919791666,58.0,71.0
408,128.47566604375,129.24329248333333,62.0,73.0
409,130.40150955208335,130.84989575208334,55.0,74.0
410,130.78860555208334,131.30312065208335,67.0,77.0
411,130.01441355208334,131.35634635208334,62.0,78.0
412,131.17570155208335,131.55795885208335,55.0,46.0
413,129.62950954375,131.88860335208335,50.0,68.0
414,129.24489504375,131.98699025208333,43.0,84.0
415,131.56279755208334,132.94505285208334,62.0,78.0
416,132.72408555208335,133.31583366458335,50.0,69.0
417,133.11070593125,133.66358927500002,55.0,29.0
418,133.49532043125,134.05140889583336,62.0,77.0
419,133.87993493125003,134.31422880416667,67.0,80.0
420,134.26454943125003,134.96326577291669,50.0,59.0
421,132.33698955208334,135.125124375,43.0,84.0
422,135.03377843125003,135.82864839791668,55.0,72.0
423,134.64916393125003,135.87672521041668,62.0,81.0
424,135.80300743125002,136.39755734583335,50.0,65.0
425,136.18762193125002,137.06101735833334,55.0,74.0
426,137.34146543125001,137.76614394166668,55.0,71.0
427,136.95685093125002,137.83024635833334,62.0,78.0
428,136.57223643125002,138.24370694583337,50.0,63.0
429,135.41839293125003,138.27896327500002,43.0,85.0
430,137.72607993125,138.50332173333337,67.0,80.0
431,138.11069443125,138.84626966250002,55.0,79.0
432,139.64915243125003,140.07222838125003,55.0,73.0
433,139.26453793125003,140.0738309416667,62.0,80.0
434,140.03376693125003,140.5161376166667,67.0,80.0
435,140.41838143125003,140.72286791041668,55.0,85.0
436,140.80299593125002,140.99850830208337,55.0,82.0
437,138.87992343125,141.50812251458336,50.0,69.0
438,138.49530893125,141.5353660416667,43.0,85.0
439,140.80299593125002,141.53857116250003,62.0,84.0
440,141.18761043125002,141.56581468958336,55.0,83.0
441,141.57222493125002,142.00491624375002,58.0,74.0
442,141.57222493125002,142.14914668125002,62.0,76.0
443,141.95683943125002,142.46485108333334,53.0,80.0
444,142.34145393125002,143.24369544583334,58.0,85.0
445,142.72606843125,143.42318221250002,65.0,85.0
446,143.49529743125,143.7324763729167,53.0,61.0
447,143.87991193125,144.23728290416668,58.0,85.0
448,143.87991193125,144.37189797916668,62.0,84.0
449,141.57222493125002,144.57061547083336,46.0,77.0
450,144.26452643125003,144.70202542500002,53.0,84.0
451,144.64914093125003,145.46644674375003,57.0,82.0
452,145.41836993125003,145.9135611,53.0,85.0
453,145.80298443125002,146.6699696166667,60.0,85.0
454,146.57221343125002,146.79176420833335,53.0,79.0
455,146.95682793125002,147.15394286250003,53.0,85.0
456,144.64914093125003,147.2949681791667,41.0,75.0
457,145.03375543125003,147.31900658541667,48.0,68.0
458,146.95682793125002,147.4007371666667,57.0,83.0
459,147.34144243125002,147.68919804166669,53.0,83.0
460,147.72605693125,148.4824654479167,58.0,80.0
461,148.49528593125,148.7324648729167,55.0,85.0
462,148.11067143125,149.11387425208335,50.0,79.0
463,148.87990043125,149.18759203125,55.0,85.0
464,148.87990043125,149.67156527708335,62.0,80.0
465,149.64912943125003,150.09624378750001,55.0,82.0
466,150.03374393125003,150.16835900625003,62.0,88.0
467,150.03374393125003,150.34944833333336,58.0,86.0
468,150.03374393125003,150.42797379375003,67.0,84.0
469,149.26451493125,150.50489669375003,50.0,75.0
470,147.72605693125,150.51771717708334,43.0,85.0
471,150.80297293125003,150.971241775,57.0,72.0
472,150.80297293125003,151.2693180125,62.0,80.0
473,151.18758743125002,151.67476579791668,57.0,82.0
474,151.57220193125002,151.7564963791667,62.0,85.0
475,151.95681643125002,152.79175040833334,57.0,84.0
476,151.95681643125002,152.80136577083334,65.0,82.0
477,152.72604543125001,153.12989065625,62.0,83.0
478,150.80297293125003,153.2997620604167,50.0,86.0
479,153.11065993125,153.35905679583334,57.0,86.0
480,153.87988893125,154.16834980625003,55.0,79.0
481,153.87988893125,154.38309290208335,58.0,75.0
482,154.26450343125003,154.68277170000002,55.0,83.0
483,154.64911793125003,155.0016812229167,58.0,85.0
484,153.87988893125,155.0882194854167,39.0,79.0
485,155.03373243125003,155.51450055625003,63.0,89.0
486,156.18757593125002,156.50488289375002,55.0,86.0
487,156.57219043125002,156.98244589791668,58.0,86.0
488,156.95680493125002,157.39270136458336,53.0,78.0
489,156.95680493125002,157.7180211291667,57.0,82.0
490,157.72603393125002,158.17955852916668,53.0,85.0
491,158.11064843125,158.98885153958335,60.0,84.0
492,158.87987743125,159.15071014166668,53.0,73.0
493,159.26449193125,159.5785937729167,53.0,85.0
494,159.26449193125,159.62987570625003,60.0,81.0
495,156.95680493125002,159.6747473979167,41.0,85.0
496,157.34141943125002,159.70840116666668,48.0,77.0
497,160.03372093125003,160.47602760625003,55.0,84.0
498,160.03372093125003,160.70038606458337,58.0,84.0
499,160.80294993125003,160.97282133541668,55.0,85.0
500,161.18756443125002,161.5449354041667,55.0,87.0
501,161.18756443125002,161.93115246458336,62.0,83.0
502,161.95679343125002,162.19397237291668,55.0,71.0
503,162.34140793125002,162.71480450833334,62.0,81.0
504,162.34140793125002,162.7468557166667,67.0,80.0
505,160.41833543125003,162.78371460625002,50.0,75.0
506,160.03372093125003,162.79172740833334,43.0,85.0
507,162.34140793125002,162.79332996875002,58.0,84.0
508,162.72602243125002,163.03852171250003,55.0,84.0
509,163.11063693125,163.57377689166668,55.0,85.0
510,163.11063693125,163.5881999354167,58.0,78.0
511,163.49525143125,164.08339110416668,50.0,72.0
512,163.87986593125,164.20037801458335,58.0,85.0
513,163.87986593125,164.4439671979167,62.0,84.0
514,163.11063693125,164.78851768750002,43.0,85.0
515,164.64909493125003,165.1458886604167,55.0,85.0
516,165.03370943125003,165.5833876541667,50.0,81.0
517,165.03370943125003,165.6603105541667,43.0,60.0
518,165.41832393125003,165.68755408125003,57.0,84.0
519,166.18755293125002,166.3654371375,53.0,80.0
520,166.18755293125002,166.58979559583335,58.0,78.0
521,166.57216743125002,166.8333847791667,53.0,75.0
522,166.95678193125002,167.0929995666667,58.0,85.0
523,167.34139643125002,167.4615884625,53.0,81.0
524,167.72601093125002,167.84460040208336,53.0,85.0
525,167.72601093125002,167.87504905000003,58.0,91.0
526,167.72601093125002,167.94075402708336,62.0,86.0
527,168.11062543125,168.1939585729167,53.0,65.0
528,168.49523993125,168.6362652479167,53.0,84.0
529,166.18755293125002,168.66350877500003,46.0,93.0
530,168.49523993125,168.79491872916668,58.0,86.0
531,168.87985443125,169.10581545000002,53.0,84.0
532,169.26446893125,169.7035704854167,57.0,81.0
533,169.26446893125,169.71959608958335,53.0,80.0
534,170.03369793125,170.45997900208334,60.0,78.0
535,170.41831243125003,170.58017103333336,57.0,84.0
536,169.64908343125,170.63786320833336,48.0,70.0
537,169.26446893125,170.6923502625,41.0,85.0
538,170.80292693125003,171.01446490625003,53.0,79.0
539,170.80292693125003,171.16670814583335,57.0,84.0
540,170.80292693125003,171.22920800208334,65.0,81.0
541,171.18754143125003,171.71959148958337,48.0,71.0
542,170.80292693125003,171.77728366458336,41.0,84.0
543,171.57215593125002,171.94074482708336,57.0,85.0
544,171.57215593125002,171.95516787083335,60.0,84.0
545,171.95677043125002,172.14747512083335,53.0,86.0
546,172.34138493125002,172.66189701458336,55.0,84.0
547,172.34138493125002,172.76446088125002,58.0,80.0
548,173.11061393125001,173.29010069791667,58.0,80.0
549,173.11061393125001,173.30612630208336,62.0,84.0
550,172.34138493125002,173.54490780416668,43.0,84.0
551,173.49522843125,173.58016413333337,62.0,39.0
552,173.49522843125,173.94715046875,55.0,84.0
553,173.87984293125,174.19554733333337,67.0,83.0
554,173.87984293125,174.21477805833337,43.0,76.0
555,173.87984293125,174.22599598125004,62.0,80.0
556,173.87984293125,174.26926511250002,58.0,74.0
557,174.26445743125004,174.60900792083336,55.0,79.0
558,174.64907193125003,175.01926338750002,58.0,84.0
559,174.64907193125003,175.13304517708335,62.0,83.0
560,175.03368643125003,175.21477575833336,55.0,84.0
561,175.41830093125003,175.64426195000001,57.0,80.0
562,175.41830093125003,175.88945369375003,62.0,85.0
563,175.80291543125003,176.2468246666667,57.0,77.0
564,175.41830093125003,176.4199011916667,50.0,81.0
565,176.18752993125003,176.53368298125002,65.0,86.0
566,176.57214443125002,176.83977202083335,57.0,83.0
567,176.95675893125002,177.18432251041668,57.0,78.0
568,176.95675893125002,177.4054758479167,62.0,81.0
569,177.34137343125002,177.58015493333335,57.0,80.0
570,177.72598793125002,177.89265421458336,57.0,85.0
571,176.95675893125002,178.03207697083334,50.0,84.0
572,177.72598793125002,178.11861523333334,60.0,84.0
573,178.11060243125002,178.35579417500003,57.0,75.0
574,178.49521693125,178.68912674166668,55.0,80.0
575,178.49521693125,178.93111336458335,58.0,73.0
576,178.87983143125,179.15867694375004,55.0,76.0
577,178.49521693125,179.16989486666668,39.0,80.0
578,179.26444593125,179.66829115625,58.0,87.0
579,179.64906043125,180.03688005208335,55.0,79.0
580,180.03367493125,180.40386638750002,63.0,84.0
581,180.03367493125,180.4439303979167,58.0,84.0
582,180.41828943125003,180.84777562291669,55.0,71.0
583,180.80290393125003,181.20514659583336,58.0,87.0
584,181.18751843125003,181.375018,55.0,85.0
585,181.57213293125002,182.02245240833335,53.0,78.0
586,181.57213293125002,182.125016275,57.0,80.0
587,181.95674743125002,182.7660404416667,48.0,73.0
588,182.34136193125002,182.7996942104167,60.0,84.0
589,181.57213293125002,182.84136078125002,41.0,84.0
590,182.72597643125002,183.3958466854167,53.0,86.0
591,183.11059093125002,183.62982050625,65.0,84.0
592,183.49520543125,184.00962732500003,48.0,73.0
593,183.87981993125,184.04648621458335,53.0,80.0
594,183.11059093125002,184.05289645625,41.0,78.0
595,183.87981993125,184.2516139479167,57.0,80.0
596,184.26443443125004,184.3958443854167,53.0,81.0
597,184.64904893125004,185.1169965729167,55.0,84.0
598,185.03366343125003,185.53846996250002,50.0,72.0
599,185.41827793125003,185.83494363958334,58.0,84.0
600,185.80289243125003,186.26122471041668,50.0,65.0
601,186.18750693125003,186.54007022291668,58.0,84.0
602,186.18750693125003,186.6121854416667,62.0,82.0
603,186.95673593125002,187.07051772083335,55.0,87.0
604,186.57212143125003,187.40224772708336,50.0,60.0
605,184.64904893125004,187.4198758916667,43.0,84.0
606,186.95673593125002,187.4487219791667,67.0,79.0
607,187.34135043125002,188.1314127166667,55.0,85.0
608,188.49519393125001,188.79487272916668,58.0,85.0
609,188.11057943125002,188.96474413333334,50.0,77.0
610,188.49519393125001,188.97756461666668,62.0,84.0
611,187.72596493125002,189.0689105604167,43.0,86.0
612,188.87980843125,189.13782065833334,55.0,80.0
613,189.26442293125,189.39743544583337,55.0,79.0
614,189.26442293125,189.65705023333336,58.0,89.0
615,189.26442293125,189.73076801250002,62.0,84.0
616,189.26442293125,189.93910086666668,43.0,86.0
617,189.64903743125,189.96954951458335,55.0,81.0
618,190.03365193125,190.74839387708334,57.0,85.0
619,190.03365193125,190.76441948125003,45.0,85.0
620,190.80288093125003,190.98076513750001,53.0,80.0
621,190.80288093125003,191.20512359583336,58.0,78.0
622,191.18749543125003,191.4487127791667,53.0,75.0
623,191.57210993125003,191.7083275666667,58.0,85.0
624,191.95672443125002,192.07691646250004,53.0,81.0
625,192.34133893125002,192.45992840208336,53.0,85.0
626,192.34133893125002,192.49037705,58.0,91.0
627,192.34133893125002,192.55608202708336,62.0,86.0
628,192.72595343125002,192.80928657291668,53.0,65.0
629,193.11056793125002,193.25159324791667,53.0,84.0
630,190.80288093125003,193.27883677500003,46.0,93.0
631,193.11056793125002,193.4102467291667,58.0,86.0
632,193.49518243125002,193.72114345000003,53.0,84.0
633,193.87979693125,194.3188984854167,57.0,81.0
634,193.87979693125,194.33492408958335,53.0,80.0
635,194.64902593125004,195.07530700208335,60.0,78.0
636,195.03364043125003,195.19549903333336,57.0,84.0
637,194.26441143125004,195.25319120833336,48.0,70.0
638,193.87979693125,195.30767826250002,41.0,85.0
639,195.41825493125003,195.62979290625003,53.0,79.0
640,195.41825493125003,195.78203614583336,57.0,84.0
641,195.41825493125003,195.84453600208334,65.0,81.0
642,195.80286943125003,196.33491948958334,48.0,71.0
643,195.41825493125003,196.39261166458334,41.0,84.0
644,196.18748393125003,196.55607282708337,57.0,85.0
645,196.18748393125003,196.57049587083335,60.0,84.0
646,196.57209843125003,196.76280312083335,53.0,86.0
647,196.95671293125002,197.27722501458334,55.0,84.0
648,196.95671293125002,197.37978888125002,58.0,80.0
649,197.72594193125002,197.9054286979167,58.0,80.0
650,197.72594193125002,197.92145430208336,62.0,84.0
651,196.95671293125002,198.1602358041667,43.0,84.0
652,198.11055643125002,198.19549213333335,62.0,39.0
653,198.11055643125002,198.56247846875002,55.0,84.0
654,198.49517093125002,198.81087533333334,67.0,83.0
655,198.49517093125002,198.83010605833334,43.0,76.0
656,198.49517093125002,198.84132398125,62.0,80.0
657,198.49517093125002,198.88459311250003,58.0,74.0
658,198.87978543125,199.22433592083337,55.0,79.0
659,199.26439993125,199.63459138750002,58.0,84.0
660,199.26439993125,199.74837317708335,62.0,83.0
661,199.64901443125,199.83010375833334,55.0,84.0
662,200.03362893125,200.25958995000002,57.0,80.0
663,200.03362893125,200.50478169375003,62.0,85.0
664,200.41824343125,200.8621526666667,57.0,77.0
665,200.03362893125,201.0352291916667,50.0,81.0
666,200.80285793125,201.14901098125,65.0,86.0
667,201.18747243125,201.45510002083336,57.0,83.0
668,201.57208693125003,201.79965051041668,57.0,78.0
669,201.57208693125003,202.02080384791668,62.0,81.0
670,201.95670143125002,202.19548293333335,57.0,80.0
671,202.34131593125002,202.50798221458336,57.0,85.0
672,201.57208693125003,202.64740497083335,50.0,84.0
673,202.34131593125002,202.73394323333335,60.0,84.0
674,202.72593043125002,202.971122175,57.0,75.0
675,203.11054493125002,203.3044547416667,55.0,80.0
676,203.11054493125002,203.54644136458336,58.0,73.0
677,203.49515943125002,203.77400494375001,55.0,76.0
678,203.11054493125002,203.7852228666667,39.0,80.0
679,203.87977393125004,204.28361915625004,58.0,87.0
680,204.26438843125004,204.65220805208335,55.0,79.0
681,204.64900293125004,205.01919438750002,63.0,84.0
682,204.64900293125004,205.0592583979167,58.0,84.0
683,205.03361743125004,205.4631036229167,55.0,71.0
684,205.41823193125003,205.82047459583336,58.0,87.0
685,205.80284643125003,205.99034600000002,55.0,85.0
686,206.18746093125003,206.63778040833336,53.0,78.0
687,206.18746093125003,206.74034427500004,57.0,80.0
688,206.57207543125003,207.3813684416667,48.0,73.0
689,206.95668993125003,207.41502221041668,60.0,84.0
690,206.18746093125003,207.45668878125002,41.0,84.0
691,207.34130443125002,208.01117468541668,53.0,86.0
692,207.72591893125002,208.24514850625002,65.0,84.0
693,208.11053343125002,208.62495532500003,48.0,73.0
694,208.49514793125002,208.66181421458336,53.0,80.0
695,207.72591893125002,208.66822445625002,41.0,78.0
696,208.49514793125002,208.8669419479167,57.0,80.0
697,208.87976243125001,209.01117238541667,53.0,81.0
698,209.26437693125,209.7323245729167,55.0,84.0
699,209.64899143125,210.15379796250002,50.0,72.0
700,210.03360593125,210.45027163958335,58.0,84.0
701,210.41822043125,210.8765527104167,50.0,65.0
702,210.80283493125,211.1553982229167,58.0,84.0
703,210.80283493125,211.2275134416667,62.0,82.0
704,211.57206393125003,211.68584572083336,55.0,87.0
705,211.18744943125,212.01757572708334,50.0,60.0
706,209.26437693125,212.0352038916667,43.0,84.0
707,211.57206393125003,212.06404997916667,67.0,79.0
708,211.95667843125003,212.7467407166667,55.0,85.0
709,213.11052193125002,213.94705846875001,55.0,83.0
710,213.49513643125002,214.32526272708336,58.0,85.0
711,213.87975093125002,214.34769857291667,67.0,80.0
712,214.26436543125004,214.72430027083334,55.0,68.0
713,212.34129293125002,215.33167066875,43.0,86.0
714,212.72590743125002,215.36211931666668,50.0,75.0
715,214.64897993125004,215.3957730854167,58.0,71.0
716,214.64897993125004,215.41660637083334,62.0,73.0
717,215.41820893125004,215.59609313750002,53.0,80.0
718,215.41820893125004,215.82045159583336,58.0,78.0
719,215.80282343125003,216.0640407791667,53.0,75.0
720,216.18743793125003,216.32365556666667,58.0,85.0
721,216.57205243125003,216.6922444625,53.0,81.0
722,216.95666693125003,217.07525640208337,53.0,85.0
723,216.95666693125003,217.10570505000004,58.0,91.0
724,216.95666693125003,217.17141002708337,62.0,86.0
725,217.34128143125002,217.4246145729167,53.0,65.0
726,217.72589593125002,217.8669212479167,53.0,84.0
727,215.41820893125004,217.89416477500004,46.0,93.0
728,217.72589593125002,218.0255747291667,58.0,86.0
729,218.11051043125002,218.33647145000003,53.0,84.0
730,218.49512493125002,218.93422648541667,57.0,81.0
731,218.49512493125002,218.95025208958336,53.0,80.0
732,219.26435393125,219.69063500208335,60.0,78.0
733,219.64896843125,219.81082703333334,57.0,84.0
734,218.87973943125002,219.86851920833334,48.0,70.0
735,218.49512493125002,219.92300626250002,41.0,85.0
736,220.03358293125,220.24512090625,53.0,79.0
737,220.03358293125,220.39736414583336,57.0,84.0
738,220.03358293125,220.45986400208335,65.0,81.0
739,220.41819743125,220.95024748958338,48.0,71.0
740,220.03358293125,221.00793966458338,41.0,84.0
741,220.80281193125,221.17140082708335,57.0,85.0
742,220.80281193125,221.18582387083336,60.0,84.0
743,221.18742643125,221.37813112083336,53.0,86.0
744,221.57204093125003,221.89255301458337,55.0,84.0
745,221.57204093125003,221.99511688125003,58.0,80.0
746,222.34126993125003,222.52075669791668,58.0,80.0
747,222.34126993125003,222.53678230208334,62.0,84.0
748,221.57204093125003,222.7755638041667,43.0,84.0
749,222.72588443125002,222.81082013333335,62.0,39.0
750,222.72588443125002,223.17780646875002,55.0,84.0
751,223.11049893125002,223.42620333333338,67.0,83.0
752,223.11049893125002,223.44543405833338,43.0,76.0
753,223.11049893125002,223.45665198125002,62.0,80.0
754,223.11049893125002,223.49992111250003,58.0,74.0
755,223.49511343125002,223.83966392083335,55.0,79.0
756,223.87972793125002,224.24991938750003,58.0,84.0
757,223.87972793125002,224.36370117708336,62.0,83.0
758,224.26434243125004,224.44543175833337,55.0,84.0
759,224.64895693125004,224.87491795000003,57.0,80.0
760,224.64895693125004,225.12010969375,62.0,85.0
761,225.03357143125004,225.47748066666668,57.0,77.0
762,224.64895693125004,225.65055719166668,50.0,81.0
763,225.41818593125004,225.76433898125003,65.0,86.0
764,225.80280043125003,226.07042802083336,57.0,83.0
765,226.18741493125003,226.4149785104167,57.0,78.0
766,226.18741493125003,226.6361318479167,62.0,81.0
767,226.57202943125003,226.81081093333336,57.0,80.0
768,226.95664393125003,227.12331021458334,57.0,85.0
769,226.18741493125003,227.26273297083335,50.0,84.0
770,226.95664393125003,227.34927123333335,60.0,84.0
771,227.34125843125003,227.58645017500004,57.0,75.0
772,227.72587293125002,227.9197827416667,55.0,80.0
773,227.72587293125002,228.16176936458334,58.0,73.0
774,228.11048743125002,228.38933294375002,55.0,76.0
775,227.72587293125002,228.4005508666667,39.0,80.0
776,228.49510193125002,228.89894715625002,58.0,87.0
777,228.87971643125002,229.26753605208336,55.0,79.0
778,229.26433093125002,229.63452238750003,63.0,84.0
779,229.26433093125002,229.6745863979167,58.0,84.0
780,229.64894543125,230.0784316229167,55.0,71.0
781,230.03355993125,230.43580259583337,58.0,87.0
782,230.41817443125,230.60567400000002,55.0,85.0
783,230.80278893125,231.25310840833336,53.0,78.0
784,230.80278893125,231.35567227500002,57.0,80.0
785,231.18740343125,231.9966964416667,48.0,73.0
786,231.57201793125,232.03035021041669,60.0,84.0
787,230.80278893125,232.07201678125003,41.0,84.0
788,231.95663243125003,232.6265026854167,53.0,86.0
789,232.34124693125003,232.86047650625002,65.0,84.0
790,232.72586143125002,233.240283325,48.0,73.0
791,233.11047593125002,233.27714221458336,53.0,80.0
792,232.34124693125003,233.28355245625002,41.0,78.0
793,233.11047593125002,233.48226994791668,57.0,80.0
794,233.49509043125002,233.6265003854167,53.0,81.0
795,233.87970493125002,234.34765257291667,55.0,84.0
796,234.26431943125004,234.76912596250003,50.0,72.0
797,234.64893393125004,235.06559963958335,58.0,84.0
798,235.03354843125004,235.4918807104167,50.0,65.0
799,235.41816293125004,235.7707262229167,58.0,84.0
800,235.41816293125004,235.84284144166668,62.0,82.0
801,236.18739193125003,236.30117372083336,55.0,87.0
802,235.80277743125004,236.63290372708337,50.0,60.0
803,233.87970493125002,236.65053189166667,43.0,84.0
804,236.18739193125003,236.6793779791667,67.0,79.0
805,236.57200643125003,237.36206871666667,55.0,85.0
806,237.72584993125002,238.56238646875002,55.0,83.0
807,238.11046443125002,238.94059072708336,58.0,85.0
808,238.49507893125002,238.9630265729167,67.0,80.0
809,238.87969343125002,239.33962827083337,55.0,68.0
810,236.95662093125003,239.94699866875004,43.0,86.0
811,237.34123543125003,239.97744731666668,50.0,75.0
812,239.26430793125002,240.01110108541667,58.0,71.0
813,239.26430793125002,240.03193437083337,62.0,73.0
814,240.03353693125,240.21142113750003,53.0,80.0
815,240.03353693125,240.43577959583337,58.0,78.0
816,240.41815143125,240.67936877916668,53.0,75.0
817,240.80276593125,240.9389835666667,58.0,85.0
818,241.18738043125,241.30757246250002,53.0,81.0
819,241.57199493125,241.69058440208335,53.0,85.0
820,241.57199493125,241.72103305000002,58.0,91.0
821,241.57199493125,241.78673802708335,62.0,86.0
822,241.95660943125003,242.0399425729167,53.0,65.0
823,242.34122393125003,242.48224924791668,53.0,84.0
824,240.03353693125,242.509492775,46.0,93.0
825,242.34122393125003,242.64090272916667,58.0,86.0
826,242.72583843125003,242.95179945,53.0,84.0
827,243.11045293125002,243.5495544854167,57.0,81.0
828,243.11045293125002,243.56558008958336,53.0,80.0
829,243.87968193125002,244.30596300208336,60.0,78.0
830,244.26429643125002,244.42615503333337,57.0,84.0
831,243.49506743125002,244.48384720833337,48.0,70.0
832,243.11045293125002,244.53833426250003,41.0,85.0
833,244.64891093125004,244.86044890625004,53.0,79.0
834,244.64891093125004,245.01269214583334,57.0,84.0
835,244.64891093125004,245.07519200208336,65.0,81.0
836,245.03352543125004,245.56557548958335,48.0,71.0
837,244.64891093125004,245.62326766458335,41.0,84.0
838,245.41813993125004,245.78672882708335,57.0,85.0
839,245.41813993125004,245.80115187083334,60.0,84.0
840,245.80275443125004,245.99345912083334,53.0,86.0
841,246.18736893125003,246.50788101458335,55.0,84.0
842,246.18736893125003,246.61044488125003,58.0,80.0
843,246.95659793125003,247.1360846979167,58.0,80.0
844,246.95659793125003,247.15211030208337,62.0,84.0
845,246.18736893125003,247.3908918041667,43.0,84.0
846,247.34121243125003,247.42614813333336,62.0,39.0
847,247.34121243125003,247.79313446875003,55.0,84.0
848,247.72582693125003,248.04153133333335,67.0,83.0
849,247.72582693125003,248.06076205833335,43.0,76.0
850,247.72582693125003,248.07197998125002,62.0,80.0
851,247.72582693125003,248.1152491125,58.0,74.0
852,248.11044143125002,248.45499192083335,55.0,79.0
853,248.49505593125002,248.8652473875,58.0,84.0
854,248.49505593125002,248.97902917708336,62.0,83.0
855,248.87967043125002,249.06075975833335,55.0,84.0
856,249.26428493125002,249.49024595000003,57.0,80.0
857,249.26428493125002,249.73543769375004,62.0,85.0
858,249.64889943125002,250.09280866666668,57.0,77.0
859,249.26428493125002,250.26588519166668,50.0,81.0
860,250.03351393125,250.37966698125,65.0,86.0
861,250.41812843125,250.68575602083337,57.0,83.0
862,250.80274293125,251.0303065104167,57.0,78.0
863,250.80274293125,251.2514598479167,62.0,81.0
864,251.18735743125,251.42613893333336,57.0,80.0
865,251.57197193125,251.73863821458337,57.0,85.0
866,250.80274293125,251.87806097083336,50.0,84.0
867,251.57197193125,251.96459923333336,60.0,84.0
868,251.95658643125,252.20177817500002,57.0,75.0
869,252.34120093125003,252.5351107416667,55.0,80.0
870,252.34120093125003,252.77709736458337,58.0,73.0
871,252.72581543125003,253.00466094375003,55.0,76.0
872,252.34120093125003,253.0158788666667,39.0,80.0
873,253.11042993125002,253.51427515625002,58.0,87.0
874,253.49504443125002,253.88286405208336,55.0,79.0
875,253.87965893125002,254.24985038750003,63.0,84.0
876,253.87965893125002,254.28991439791668,58.0,84.0
877,254.26427343125002,254.69375962291667,55.0,71.0
878,254.64888793125004,255.05113059583334,58.0,87.0
879,255.03350243125004,255.22100200000003,55.0,85.0
880,255.41811693125004,255.86843640833337,53.0,78.0
881,255.41811693125004,255.97100027500002,57.0,80.0
882,255.80273143125004,256.6120244416667,48.0,73.0
883,256.18734593125004,256.6456782104167,60.0,84.0
884,255.41811693125004,256.68734478125003,41.0,84.0
885,256.57196043125003,257.2418306854167,53.0,86.0
886,256.95657493125003,257.47580450625003,65.0,84.0
887,257.34118943125003,257.85561132500004,48.0,73.0
888,257.72580393125,257.89247021458334,53.0,80.0
889,256.95657493125003,257.89888045625,41.0,78.0
890,257.72580393125,258.0975979479167,57.0,80.0
891,258.11041843125,258.2418283854167,53.0,81.0
892,258.49503293125,258.9629805729167,55.0,84.0
893,258.87964743125,259.3844539625,50.0,72.0
894,259.26426193125,259.6809276395834,58.0,84.0
895,259.64887643125,260.10720871041667,50.0,65.0
896,260.03349093125,260.3860542229167,58.0,84.0
897,260.03349093125,260.45816944166666,62.0,82.0
898,260.80271993125,260.91650172083337,55.0,87.0
899,260.41810543125,261.24823172708335,50.0,60.0
900,258.49503293125,261.26585989166665,43.0,84.0
901,260.80271993125,261.2947059791667,67.0,79.0
902,261.18733443125006,261.9773967166667,55.0,85.0
903,262.34117793125006,262.64085672916667,58.0,85.0
904,261.95656343125006,262.8107281333333,50.0,77.0
905,262.34117793125006,262.8235486166667,62.0,84.0
906,261.57194893125006,262.91489456041666,43.0,86.0
907,262.72579243125006,262.9838046583334,55.0,80.0
908,263.11040693125005,263.24341944583335,55.0,79.0
909,263.11040693125005,263.5030342333333,58.0,89.0
910,263.11040693125005,263.57675201250004,62.0,84.0
911,263.11040693125005,263.7850848666667,43.0,86.0
912,263.49502143125005,263.81553351458336,55.0,81.0
913,263.87963593125005,264.5943778770834,57.0,85.0
914,263.87963593125005,264.61040348125005,45.0,85.0
915,264.64886493125005,264.82674913750003,53.0,80.0
916,264.64886493125005,265.05110759583334,58.0,78.0
917,265.03347943125004,265.29469677916666,53.0,75.0
918,265.41809393125004,265.5543115666667,58.0,85.0
919,265.80270843125004,265.9229004625,53.0,81.0
920,266.18732293125004,266.3059124020833,53.0,85.0
921,266.18732293125004,266.33636105000005,58.0,91.0
922,266.18732293125004,266.4020660270834,62.0,86.0
923,266.57193743125003,266.6552705729167,53.0,65.0
924,266.95655193125003,267.09757724791666,53.0,84.0
925,264.64886493125005,267.124820775,46.0,93.0
926,266.95655193125003,267.2562307291667,58.0,86.0
927,267.34116643125003,267.56712745000004,53.0,84.0
928,267.72578093125003,268.1648824854167,57.0,81.0
929,267.72578093125003,268.18090808958334,53.0,80.0
930,268.49500993125,268.92129100208336,60.0,78.0
931,268.87962443125,269.04148303333335,57.0,84.0
932,268.11039543125,269.09917520833335,48.0,70.0
933,267.72578093125003,269.1536622625,41.0,85.0
934,269.26423893125,269.47577690625,53.0,79.0
935,269.26423893125,269.6280201458334,57.0,84.0
936,269.26423893125,269.69052000208336,65.0,81.0
937,269.64885343125,270.18090348958333,48.0,71.0
938,269.26423893125,270.2385956645834,41.0,84.0
939,270.03346793125,270.40205682708336,57.0,85.0
940,270.03346793125,270.41647987083337,60.0,84.0
941,270.41808243125,270.60878712083337,53.0,86.0
942,270.80269693125,271.1232090145834,55.0,84.0
943,270.80269693125,271.22577288125,58.0,80.0
944,271.57192593125,271.7514126979167,58.0,80.0
945,271.57192593125,271.76743830208335,62.0,84.0
946,270.80269693125,272.0062198041667,43.0,84.0
947,271.95654043125,272.0414761333334,62.0,39.0
948,271.95654043125,272.40846246875003,55.0,84.0
949,272.34115493125,272.6568593333334,67.0,83.0
950,272.34115493125,272.67609005833333,43.0,76.0
951,272.34115493125,272.68730798125,62.0,80.0
952,272.34115493125,272.7305771125,58.0,74.0
953,272.72576943125,273.07031992083336,55.0,79.0
954,273.11038393125,273.48057538750004,58.0,84.0
955,273.11038393125,273.59435717708334,62.0,83.0
956,273.49499843125,273.6760877583333,55.0,84.0
957,273.87961293125,274.10557395,57.0,80.0
958,273.87961293125,274.35076569375,62.0,85.0
959,274.26422743125,274.7081366666667,57.0,77.0
960,273.87961293125,274.8812131916667,50.0,81.0
961,274.64884193125,274.99499498125,65.0,86.0
962,275.03345643125,275.30108402083334,57.0,83.0
963,275.41807093125,275.6456345104167,57.0,78.0
964,275.41807093125,275.8667878479167,62.0,81.0
965,275.80268543125,276.04146693333337,57.0,80.0
966,276.18729993125004,276.35396621458335,57.0,85.0
967,275.41807093125,276.4933889708334,50.0,84.0
968,276.18729993125004,276.57992723333336,60.0,84.0
969,276.57191443125004,276.81710617500005,57.0,75.0
970,276.95652893125003,277.1504387416667,55.0,80.0
971,276.95652893125003,277.39242536458335,58.0,73.0
972,277.34114343125003,277.61998894375006,55.0,76.0
973,276.95652893125003,277.63120686666673,39.0,80.0
974,277.72575793125003,278.12960315625,58.0,87.0
975,278.11037243125,278.49819205208337,55.0,79.0
976,278.49498693125,278.8651783875,63.0,84.0
977,278.49498693125,278.9052423979167,58.0,84.0
978,278.87960143125,279.30908762291665,55.0,71.0
979,279.26421593125,279.6664585958333,58.0,87.0
980,279.64883043125,279.83633000000003,55.0,85.0
981,280.03344493125,280.4837644083334,53.0,78.0
982,280.03344493125,280.586328275,57.0,80.0
983,280.41805943125,281.22735244166665,48.0,73.0
984,280.80267393125,281.26100621041667,60.0,84.0
985,280.03344493125,281.30267278125007,41.0,84.0
986,281.18728843125,281.8571586854167,53.0,86.0
987,281.57190293125007,282.09113250625,65.0,84.0
988,281.95651743125006,282.470939325,48.0,73.0
989,282.34113193125006,282.5077982145833,53.0,80.0
990,281.57190293125007,282.51420845625,41.0,78.0
991,282.34113193125006,282.7129259479167,57.0,80.0
992,282.72574643125006,282.8571563854167,53.0,81.0
993,283.11036093125006,283.5783085729167,55.0,84.0
994,283.49497543125005,283.99978196250004,50.0,72.0
995,283.87958993125005,284.29625563958336,58.0,84.0
996,284.26420443125005,284.7225367104167,50.0,65.0
997,284.64881893125005,285.00138222291673,58.0,84.0
998,284.64881893125005,285.0734974416667,62.0,82.0
999,285.41804793125004,285.53182972083334,55.0,87.0
1000,285.03343343125005,285.8635597270834,50.0,60.0
1001,283.11036093125006,285.8811878916667,43.0,84.0
1002,285.41804793125004,285.91003397916666,67.0,79.0
1003,285.80266243125004,286.5927247166667,55.0,85.0
1004,286.95650593125004,287.79304246875006,55.0,83.0
1005,287.34112043125003,288.17124672708337,58.0,85.0
1006,287.72573493125003,288.1936825729167,67.0,80.0
1007,288.11034943125003,288.5702842708333,55.0,68.0
1008,286.18727693125004,289.17765466875005,43.0,86.0
1009,286.57189143125004,289.20810331666667,50.0,75.0
1010,288.49496393125,289.2417570854167,58.0,71.0
1011,288.49496393125,289.2625903708333,62.0,73.0
1012,289.26419293125,289.44207713750006,53.0,80.0
1013,289.26419293125,289.6664355958334,58.0,78.0
1014,289.64880743125,289.9100247791667,53.0,75.0
1015,290.03342193125,290.16963956666666,58.0,85.0
1016,290.41803643125,290.5382284625,53.0,81.0
1017,290.80265093125,290.92124040208336,53.0,85.0
1018,290.80265093125,290.95168905,58.0,91.0
1019,290.80265093125,291.01739402708336,62.0,86.0
1020,291.18726543125,291.2705985729167,53.0,65.0
1021,291.57187993125,291.7129052479167,53.0,84.0
1022,289.26419293125,291.740148775,46.0,93.0
1023,291.57187993125,291.8715587291667,58.0,86.0
1024,291.95649443125,292.18245545,53.0,84.0
1025,292.34110893125,292.78021048541666,57.0,81.0
1026,292.34110893125,292.7962360895833,53.0,80.0
1027,293.11033793125,293.5366190020834,60.0,78.0
1028,293.49495243125,293.6568110333334,57.0,84.0
1029,292.72572343125,293.7145032083333,48.0,70.0
1030,292.34110893125,293.7689902625,41.0,85.0
1031,293.87956693125,294.09110490625005,53.0,79.0
1032,293.87956693125,294.24334814583335,57.0,84.0
1033,293.87956693125,294.3058480020834,65.0,81.0
1034,294.26418143125,294.79623148958336,48.0,71.0
1035,293.87956693125,294.85392366458336,41.0,84.0
1036,294.64879593125,295.01738482708333,57.0,85.0
1037,294.64879593125,295.03180787083335,60.0,84.0
1038,295.03341043125,295.22411512083335,53.0,86.0
1039,295.41802493125,295.73853701458336,55.0,84.0
1040,295.41802493125,295.84110088125,58.0,80.0
1041,296.18725393125,296.3667406979167,58.0,80.0
1042,296.18725393125,296.3827663020834,62.0,84.0
1043,295.41802493125,296.62154780416665,43.0,84.0
1044,296.57186843125004,296.65680413333337,62.0,39.0
1045,296.57186843125004,297.02379046875,55.0,84.0
1046,296.95648293125004,297.27218733333336,67.0,83.0
1047,296.95648293125004,297.29141805833336,43.0,76.0
1048,296.95648293125004,297.30263598125003,62.0,80.0
1049,296.95648293125004,297.3459051125,58.0,74.0
1050,297.34109743125003,297.6856479208334,55.0,79.0
1051,297.72571193125003,298.0959033875,58.0,84.0
1052,297.72571193125003,298.2096851770834,62.0,83.0
1053,298.11032643125003,298.29141575833336,55.0,84.0
1054,298.49494093125,298.72090195,57.0,80.0
1055,298.49494093125,298.96609369375005,62.0,85.0
1056,298.87955543125,299.3234646666667,57.0,77.0
1057,298.49494093125,299.49654119166667,50.0,81.0
1058,299.26416993125,299.61032298125,65.0,86.0
1059,299.64878443125,299.9164120208334,57.0,83.0
1060,300.03339893125,300.2609625104167,57.0,78.0
1061,300.03339893125,300.4821158479167,62.0,81.0
1062,300.41801343125,300.65679493333334,57.0,80.0
1063,300.80262793125,300.96929421458333,57.0,85.0
1064,300.03339893125,301.10871697083337,50.0,84.0
1065,300.80262793125,301.19525523333334,60.0,84.0
1066,301.18724243125,301.432434175,57.0,75.0
1067,301.57185693125,301.76576674166665,55.0,80.0
1068,301.57185693125,302.0077533645833,58.0,73.0
1069,301.95647143125007,302.23531694375004,55.0,76.0
1070,301.57185693125,302.2465348666667,39.0,80.0
1071,302.34108593125006,302.74493115625,58.0,87.0
1072,302.72570043125006,303.11352005208335,55.0,79.0
1073,303.11031493125006,303.4805063875,63.0,84.0
1074,303.11031493125006,303.5205703979167,58.0,84.0
1075,303.49492943125006,303.9244156229167,55.0,71.0
1076,303.87954393125005,304.28178659583335,58.0,87.0
1077,304.26415843125005,304.45165800000007,55.0,85.0
1078,304.64877293125005,305.0990924083334,53.0,78.0
1079,304.64877293125005,305.201656275,57.0,80.0
1080,305.03338743125005,305.8426804416667,48.0,73.0
1081,305.41800193125005,305.8763342104167,60.0,84.0
1082,304.64877293125005,305.91800078125004,41.0,84.0
1083,305.80261643125004,306.4724866854167,53.0,86.0
1084,306.18723093125004,306.70646050625004,65.0,84.0
1085,306.57184543125004,307.086267325,48.0,73.0
1086,306.95645993125004,307.12312621458335,53.0,80.0
1087,306.18723093125004,307.12953645625004,41.0,78.0
1088,306.95645993125004,307.32825394791666,57.0,80.0
1089,307.34107443125004,307.4724843854167,53.0,81.0
1090,307.72568893125003,308.1936365729167,55.0,84.0
1091,308.11030343125003,308.6151099625,50.0,72.0
1092,308.49491793125003,308.91158363958334,58.0,84.0
1093,308.87953243125,309.3378647104167,50.0,65.0
1094,309.26414693125,309.6167102229167,58.0,84.0
1095,309.26414693125,309.6888254416667,62.0,82.0
1096,310.03337593125,310.1471577208333,55.0,87.0
1097,309.64876143125,310.47888772708336,50.0,60.0
1098,307.72568893125003,310.4965158916667,43.0,84.0
1099,310.03337593125,310.5253619791667,67.0,79.0
1100,310.41799043125,311.20805271666666,55.0,85.0
1101,311.57183393125,311.8715127291667,58.0,85.0
1102,311.18721943125,312.0413841333334,50.0,77.0
1103,311.57183393125,312.05420461666665,62.0,84.0
1104,310.80260493125,312.1455505604167,43.0,86.0
1105,311.95644843125,312.21446065833334,55.0,80.0
1106,312.34106293125,312.47407544583336,55.0,79.0
1107,312.34106293125,312.7336902333334,58.0,89.0
1108,312.34106293125,312.8074080125,62.0,84.0
1109,312.34106293125,313.0157408666667,43.0,86.0
1110,312.72567743125,313.0461895145834,55.0,81.0
1111,313.11029193125,313.82503387708334,57.0,85.0
1112,313.11029193125,313.84105948125,45.0,85.0
1113,313.87952093125,314.05740513750004,53.0,80.0
1114,313.87952093125,314.28176359583335,58.0,78.0
1115,314.26413543125,314.5253527791667,53.0,75.0
1116,314.64874993125,314.7849675666667,58.0,85.0
1117,315.03336443125,315.15355646250003,53.0,81.0
1118,315.41797893125,315.5365684020834,53.0,85.0
1119,315.41797893125,315.56701705,58.0,91.0
1120,315.41797893125,315.63272202708333,62.0,86.0
1121,315.80259343125,315.8859265729167,53.0,65.0
1122,316.18720793125,316.3282332479167,53.0,84.0
1123,313.87952093125,316.35547677500006,46.0,93.0
1124,316.18720793125,316.4868867291667,58.0,86.0
1125,316.57182243125,316.79778345,53.0,84.0
1126,316.95643693125004,317.3955384854167,57.0,81.0
1127,316.95643693125004,317.41156408958335,53.0,80.0
1128,317.72566593125003,318.1519470020834,60.0,78.0
1129,318.11028043125003,318.27213903333336,57.0,84.0
1130,317.34105143125004,318.32983120833336,48.0,70.0
1131,316.95643693125004,318.3843182625,41.0,85.0
1132,318.49489493125003,318.70643290625003,53.0,79.0
1133,318.49489493125003,318.85867614583333,57.0,84.0
1134,318.49489493125003,318.92117600208337,65.0,81.0
1135,318.87950943125,319.4115594895834,48.0,71.0
1136,318.49489493125003,319.46925166458334,41.0,84.0
1137,319.26412393125,319.63271282708337,57.0,85.0
1138,319.26412393125,319.6471358708334,60.0,84.0
1139,319.64873843125,319.8394431208334,53.0,86.0
1140,320.03335293125,320.35386501458333,55.0,84.0
1141,320.03335293125,320.45642888125,58.0,80.0
1142,320.80258193125,320.9820686979167,58.0,80.0
1143,320.80258193125,320.99809430208336,62.0,84.0
1144,320.03335293125,321.2368758041667,43.0,84.0
1145,321.18719643125,321.27213213333334,62.0,39.0
1146,321.18719643125,321.63911846875,55.0,84.0
1147,321.57181093125,321.88751533333334,67.0,83.0
1148,321.57181093125,321.9067460583334,43.0,76.0
1149,321.57181093125,321.91796398125007,62.0,80.0
1150,321.57181093125,321.96123311250005,58.0,74.0
1151,321.95642543125007,322.30097592083337,55.0,79.0
1152,322.34103993125007,322.7112313875,58.0,84.0
1153,322.34103993125007,322.82501317708335,62.0,83.0
1154,322.72565443125006,322.9067437583334,55.0,84.0
1155,323.11026893125006,323.33622995,57.0,80.0
1156,323.11026893125006,323.58142169375003,62.0,85.0
1157,323.49488343125006,323.9387926666667,57.0,77.0
1158,323.11026893125006,324.1118691916667,50.0,81.0
1159,323.87949793125006,324.22565098125006,65.0,86.0
1160,324.26411243125006,324.53174002083335,57.0,83.0
1161,324.64872693125005,324.87629051041665,57.0,78.0
1162,324.64872693125005,325.0974438479167,62.0,81.0
1163,325.03334143125005,325.2721229333333,57.0,80.0
1164,325.41795593125005,325.58462221458336,57.0,85.0
1165,324.64872693125005,325.72404497083335,50.0,84.0
1166,325.41795593125005,325.8105832333333,60.0,84.0
1167,325.80257043125005,326.047762175,57.0,75.0
1168,326.18718493125004,326.3810947416667,55.0,80.0
1169,326.18718493125004,326.62308136458336,58.0,73.0
1170,326.57179943125004,326.85064494375,55.0,76.0
1171,326.18718493125004,326.8618628666667,39.0,80.0
1172,326.95641393125004,327.36025915625004,58.0,87.0
1173,327.34102843125004,327.7288480520833,55.0,79.0
1174,327.72564293125004,328.0958343875,63.0,84.0
1175,327.72564293125004,328.13589839791666,58.0,84.0
1176,328.11025743125003,328.5397436229167,55.0,71.0
1177,328.49487193125003,328.8971145958334,58.0,87.0
1178,328.87948643125003,329.06698600000004,55.0,85.0
1179,329.26410093125,329.71442040833335,53.0,78.0
1180,329.26410093125,329.81698427500004,57.0,80.0
1181,329.64871543125,330.4580084416667,48.0,73.0
1182,330.03332993125,330.49166221041673,60.0,84.0
1183,329.26410093125,330.53332878125,41.0,84.0
1184,330.41794443125,331.0878146854167,53.0,86.0
1185,330.80255893125,331.32178850625,65.0,84.0
1186,331.18717343125,331.701595325,48.0,73.0
1187,331.57178793125,331.7384542145834,53.0,80.0
1188,330.80255893125,331.74486445625,41.0,78.0
1189,331.57178793125,331.9435819479167,57.0,80.0
1190,331.95640243125,332.08781238541667,53.0,81.0
1191,332.34101693125,332.8089645729167,55.0,84.0
1192,332.72563143125,333.2304379625,50.0,72.0
1193,333.11024593125,333.5269116395833,58.0,84.0
1194,333.49486043125,333.9531927104167,50.0,65.0
1195,333.87947493125,334.2320382229167,58.0,84.0
1196,333.87947493125,334.3041534416667,62.0,82.0
1197,334.64870393125,334.76248572083335,55.0,87.0
1198,334.26408943125,335.09421572708334,50.0,60.0
1199,332.34101693125,335.1118438916667,43.0,84.0
1200,334.64870393125,335.1406899791667,67.0,79.0
1201,335.03331843125,335.8233807166667,55.0,85.0
1202,336.18716193125,337.02369846875,55.0,83.0
1203,336.57177643125,337.53331268125004,58.0,85.0
1204,336.95639093125,338.30254168125003,67.0,80.0
1205,335.41793293125,338.40831066875,43.0,86.0
1206,335.80254743125,338.43875931666673,50.0,75.0
