,start,end,pitch,velocity
0,11.183892739583333,11.658652291666666,79.0,86.0
1,11.760815739583332,12.076921466666667,79.0,86.0
2,12.049277239583333,12.3100945125,77.0,85.0
3,12.337738739583333,13.0312482625,75.0,86.0
4,13.203123239583332,13.394228983333333,77.0,85.0
5,13.491584739583333,13.721152016666666,79.0,86.0
6,13.780046239583333,13.977161597916666,82.0,81.0
7,14.068507739583334,14.347353856249999,79.0,81.0
8,14.356969239583332,14.62139228125,77.0,85.0
9,14.645430739583333,15.548074849999999,79.0,85.0
10,15.799276739583332,16.231968989583333,79.0,85.0
11,16.37619973958333,16.5793247125,79.0,85.0
12,16.66466123958333,16.873795827083335,77.0,79.0
13,16.953122739583332,17.18869963125,75.0,90.0
14,17.241584239583332,17.431488060416665,72.0,85.0
15,17.530045739583333,17.701920716666667,82.0,83.0
16,17.818507239583333,18.066103360416665,79.0,83.0
17,18.106968739583333,20.1562473125,77.0,84.0
18,20.414660739583333,20.860574141666667,79.0,81.0
19,20.991583739583334,21.149035641666668,75.0,86.0
20,21.280045239583334,21.474756752083334,72.0,84.0
21,21.568506739583334,22.210333577083333,70.0,81.0
22,22.433891239583332,22.653843133333332,72.0,83.0
23,22.722352739583332,23.201919983333333,75.0,88.0
24,23.299275739583333,23.50600648125,72.0,85.0
25,23.587737239583333,23.807689133333334,75.0,85.0
26,23.876198739583334,24.74158323958333,77.0,80.0
27,24.74158323958333,24.911054370833334,77.0,82.0
28,25.03004473958333,25.82812155625,77.0,83.0
29,25.895429239583333,26.173073433333332,72.0,85.0
30,26.183890739583333,26.727159897916668,75.0,84.0
31,26.760813739583334,27.311294435416666,72.0,80.0
32,27.33773673958333,29.501197989583332,70.0,79.0
33,29.645428739583334,30.195909435416667,82.0,81.0
34,30.22235173958333,30.66586129583333,77.0,84.0
35,30.799274739583332,31.376197739583333,77.0,90.0
36,31.376197739583333,31.787255377083333,79.0,81.0
37,31.953120739583333,32.355764916666665,77.0,81.0
38,32.530043739583334,32.78004370625,77.0,85.0
39,32.81850523958333,33.01081290625,75.0,81.0
40,33.106966739583335,33.67187051041667,72.0,67.0
41,33.683889739583336,34.0745146875,70.0,79.0
42,34.26081273958333,34.704322295833336,79.0,79.0
43,34.83773573958333,35.034851097916665,79.0,81.0
44,35.126197239583334,35.341341441666664,77.0,80.0
45,35.41465873958333,35.67187024375,75.0,95.0
46,35.703120239583335,35.93388943958333,72.0,85.0
47,35.99158173958333,36.21513940208333,82.0,82.0
48,36.280043239583335,36.53605282083333,79.0,83.0
49,36.56850473958333,38.70792753125,77.0,85.0
50,38.876196739583335,39.35095629166666,82.0,80.0
51,39.45311973958333,39.651437020833335,75.0,81.0
52,39.74158123958333,39.98917736041667,72.0,82.0
53,40.03004273958333,40.74759072083333,70.0,81.0
54,40.895427239583334,41.140619514583335,72.0,79.0
55,41.18388873958333,41.691100210416664,75.0,86.0
56,41.76081173958333,42.00119632291666,72.0,83.0
57,42.049273239583336,42.247590520833334,75.0,85.0
58,42.33773473958333,43.20311923958333,77.0,83.0
59,43.20311923958333,43.43148459375,77.0,69.0
60,43.491580739583334,44.27884025,77.0,85.0
61,44.35696523958333,44.59254213125,72.0,80.0
62,44.645426739583336,45.20672474166667,75.0,81.0
63,45.22234973958333,45.40984971458333,72.0,82.0
64,45.51081123958333,45.71994582708333,70.0,80.0
65,45.79927273958333,47.92307053333333,70.0,80.0
66,52.72234873958333,53.197108291666666,79.0,86.0
67,53.29927173958333,53.615377466666665,79.0,86.0
68,53.58773323958333,53.8485505125,77.0,85.0
69,53.87619473958333,54.5697042625,75.0,86.0
70,54.74157923958333,54.93268498333333,77.0,85.0
71,55.030040739583335,55.25960801666667,79.0,86.0
72,55.31850223958333,55.515617597916666,82.0,81.0
73,55.606963739583335,55.88580985625,79.0,81.0
74,55.89542523958333,56.15984828125,77.0,85.0
75,56.18388673958333,57.086530849999995,79.0,85.0
76,57.33773273958333,57.77042498958333,79.0,85.0
77,57.91465573958333,58.1177807125,79.0,85.0
78,58.203117239583335,58.41225182708333,77.0,79.0
79,58.49157873958333,58.72715563125,75.0,90.0
80,58.78004023958333,58.969944060416665,72.0,85.0
81,59.06850173958333,59.24037671666667,82.0,83.0
82,59.35696323958333,59.604559360416665,79.0,83.0
83,59.64542473958333,61.694703312499996,77.0,84.0
84,61.95311673958333,62.399030141666664,79.0,81.0
85,62.53003973958333,62.68749164166667,75.0,86.0
86,62.818501239583334,63.013212752083334,72.0,84.0
87,63.10696273958333,63.74878957708333,70.0,81.0
88,63.97234723958333,64.19229913333334,72.0,83.0
89,64.26080873958333,64.74037598333334,75.0,88.0
90,64.83773173958333,65.04446248125,72.0,85.0
91,65.12619323958333,65.34614513333334,75.0,85.0
92,65.41465473958333,66.28003923958333,77.0,80.0
93,66.28003923958333,66.44951037083334,77.0,82.0
94,66.56850073958333,67.36657755625,77.0,83.0
95,67.43388523958333,67.71152943333333,72.0,85.0
96,67.72234673958333,68.26561589791666,75.0,84.0
97,68.29926973958334,68.84975043541667,72.0,80.0
98,68.87619273958333,71.03965398958333,70.0,79.0
99,71.18388473958333,71.73544539791666,82.0,81.0
100,71.76201543958334,72.20766750208332,77.0,84.0
101,72.34172543958333,72.92143543958333,77.0,90.0
102,72.92143543958333,73.33447881458333,79.0,81.0
103,73.50114543958333,73.90573471041667,77.0,81.0
104,74.08085543958333,74.33206310624999,77.0,85.0
105,74.37071043958333,74.56394710625,75.0,81.0
106,74.66056543958334,75.22819814791666,72.0,67.0
107,75.24027543958333,75.63278741875,70.0,79.0
108,75.81998543958333,76.26563750208334,79.0,79.0
109,76.39969543958333,76.59776302291667,79.0,81.0
110,76.68955043958333,76.90573396041667,77.0,80.0
111,76.97940543958333,77.23785948125,75.0,95.0
112,77.26926043958333,77.50114443958333,72.0,85.0
113,77.55911543958334,77.78375306458334,82.0,82.0
114,77.84897043958333,78.10621675208333,79.0,83.0
115,78.13882543958333,80.28858335625,77.0,85.0
116,80.45766543958334,80.93471846041666,82.0,80.0
117,81.03737543958333,81.23665075208334,75.0,81.0
118,81.32723043958333,81.57602264791666,72.0,82.0
119,81.61708543958333,82.33809975208334,70.0,81.0
120,82.48665043958333,82.73302718958332,72.0,79.0
121,82.77650543958333,83.28616714791666,75.0,86.0
122,83.35621543958334,83.59776127291667,72.0,83.0
123,83.64607043958333,83.84534575208333,75.0,85.0
124,83.93592543958333,84.80549043958334,77.0,83.0
125,84.80549043958334,85.03399514374999,77.0,69.0
126,85.09409128958333,85.88135079999999,77.0,85.0
127,85.95947578958332,86.19505268124999,72.0,80.0
128,86.24793728958333,86.80923529166667,75.0,81.0
129,86.82486028958333,87.01236026458332,72.0,82.0
130,87.11332178958332,87.32245637708333,70.0,80.0
131,87.40178328958334,89.52558108333332,70.0,80.0
132,108.17101128958333,108.64577084166666,79.0,86.0
133,108.74793428958333,109.06404001666667,79.0,86.0
134,109.03639578958332,109.29721306249999,77.0,85.0
135,109.32485728958332,110.01836681249999,75.0,86.0
136,110.19024178958333,110.38134753333333,77.0,85.0
137,110.47870328958332,110.70827056666666,79.0,86.0
138,110.76716478958332,110.96428014791667,82.0,81.0
139,111.05562628958333,111.33447240625,79.0,81.0
140,111.34408778958333,111.60851083124999,77.0,85.0
141,111.63254928958332,112.5351934,79.0,85.0
142,112.78639528958333,113.21908753958333,79.0,85.0
143,113.36331828958333,113.5664432625,79.0,85.0
144,113.65177978958333,113.86091437708333,77.0,79.0
145,113.94024128958333,114.17581818125,75.0,90.0
146,114.22870278958332,114.41860661041666,72.0,85.0
147,114.51716428958332,114.68903926666667,82.0,83.0
148,114.80562578958333,115.05322191041665,79.0,83.0
149,115.09408728958333,117.14336586249999,77.0,84.0
150,117.40177928958332,117.84769269166665,79.0,81.0
151,117.97870228958332,118.13615419166666,75.0,86.0
152,118.26716378958332,118.46187530208333,72.0,84.0
153,118.55562528958333,119.19745212708332,70.0,81.0
154,119.42100978958334,119.64096168333333,72.0,83.0
155,119.70947128958332,120.18903853333333,75.0,88.0
156,120.28639428958333,120.49312503125,72.0,85.0
157,120.57485578958332,120.79480768333332,75.0,85.0
158,120.86331728958334,121.72870178958333,77.0,80.0
159,121.72870178958333,121.89817292083333,77.0,82.0
160,122.01716328958332,122.81524010625,77.0,83.0
161,122.88254778958333,123.16019198333333,72.0,85.0
162,123.17100928958332,123.71427844791666,75.0,84.0
163,123.74793228958333,124.29841298541666,72.0,80.0
164,124.32485528958333,126.48831653958334,70.0,79.0
165,126.63254728958333,127.18302798541666,82.0,81.0
166,127.20947028958332,127.65297984583333,77.0,84.0
167,127.78639328958333,128.36331628958334,77.0,90.0
168,128.36331628958334,128.77437392708333,79.0,81.0
169,128.94023928958333,129.34288346666665,77.0,81.0
170,129.51716228958333,129.76716225625,77.0,85.0
171,129.80562378958334,129.99793145625,75.0,81.0
172,130.09408528958332,130.65898906041667,72.0,67.0
173,130.6710082895833,131.0616332375,70.0,79.0
174,131.24793128958333,131.6914408458333,79.0,79.0
175,131.82485428958333,132.02196964791665,79.0,81.0
176,132.11331578958334,132.32845999166665,77.0,80.0
177,132.40177728958332,132.65898879374998,75.0,95.0
178,132.69023878958333,132.92100798958333,72.0,85.0
179,132.97870028958334,133.20225795208333,82.0,82.0
180,133.26716178958333,133.52317137083332,79.0,83.0
181,133.5556232895833,135.69504608124998,77.0,85.0
182,135.86331528958334,136.33807484166667,82.0,80.0
183,136.44023828958333,136.63855557083332,75.0,81.0
184,136.72869978958332,136.97629591041667,72.0,82.0
185,137.01716128958333,137.73470927083332,70.0,81.0
186,137.88254578958333,138.12773806458333,72.0,79.0
187,138.17100728958332,138.67821876041666,75.0,86.0
188,138.74793028958334,138.98831487291665,72.0,83.0
189,139.03639178958332,139.23470907083333,75.0,85.0
190,139.32485328958333,140.19023778958334,77.0,83.0
191,140.19023778958334,140.41860314374998,77.0,69.0
192,140.47869928958332,141.2659588,77.0,85.0
193,141.43302608541666,141.81884334166665,72.0,86.0
194,141.93783371041667,142.84288166666664,75.0,93.0
195,142.86571820208331,143.31283352708334,72.0,83.0
196,143.28639122291668,145.88254472291666,70.0,85.0
