,start,end,pitch,velocity
0,1.7944709145833333,2.3052881541666665,58.0,70.0
1,1.8774035958333333,2.362980454166667,63.0,75.0
2,1.90024013125,2.425480445833333,51.0,82.0
3,1.9627401229166666,2.4567304416666667,67.0,74.0
4,3.0733168979166665,3.5709129854166664,67.0,78.0
5,2.9939899854166665,3.5889418291666666,63.0,72.0
6,2.93148999375,3.6141822104166668,60.0,68.0
7,3.0516822854166668,3.6718745104166666,48.0,82.0
8,4.07812445625,5.126201239583334,58.0,66.0
9,4.129807141666666,5.4302877375,62.0,66.0
10,4.2620186625,5.691105010416667,70.0,76.0
11,4.219951360416666,5.712739622916667,65.0,77.0
12,5.6538454,5.853364604166667,62.0,69.0
13,5.4014415875,5.85937421875,58.0,68.0
14,5.96033574375,6.257210704166667,62.0,75.0
15,5.9687492041666665,6.2620183958333335,58.0,75.0
16,5.13100893125,6.335335693749999,53.0,54.0
17,5.962739589583333,6.370191458333333,65.0,80.0
18,4.231970589583333,6.401441454166666,46.0,80.0
19,5.959133820833333,6.418268375,70.0,79.0
20,6.543268358333333,7.008412527083333,65.0,77.0
21,6.624999116666666,7.075720210416667,68.0,75.0
22,6.466345291666666,7.076922133333333,60.0,74.0
23,6.550479895833333,7.086537516666667,53.0,88.0
24,7.623797060416666,8.186296985416666,63.0,75.0
25,7.562498991666667,8.23918159375,60.0,68.0
26,7.724758585416667,8.23918159375,67.0,80.0
27,7.67668166875,8.254806591666666,48.0,82.0
28,8.667066152083333,8.861777664583332,58.0,69.0
29,8.72956614375,8.883412277083334,62.0,75.0
30,8.807691133333334,9.156248779166667,65.0,79.0
31,8.861777664583332,9.1730757,70.0,75.0
32,9.135816089583333,9.531248729166666,53.0,73.0
33,8.820912285416666,9.5408641125,46.0,80.0
34,9.718748704166666,9.895431372916667,62.0,96.0
35,9.433892972916667,9.996392897916666,58.0,83.0
36,9.968748670833333,10.10696980625,62.0,52.0
37,10.25120055625,10.374998616666666,62.0,45.0
38,10.27283516875,10.472354372916666,58.0,77.0
39,10.556488977083333,11.117786979166667,62.0,70.0
40,10.563700514583333,11.122594670833333,58.0,75.0
41,10.558892822916667,11.133411977083332,65.0,79.0
42,9.995190975,11.149036975,70.0,82.0
43,11.472354239583334,12.373796427083333,58.0,62.0
44,11.760815739583332,12.661056004166666,63.0,64.0
45,11.183892739583333,13.3629789875,51.0,100.0
46,12.626200239583333,13.560094345833333,58.0,57.0
47,12.914661739583334,13.8100943125,63.0,84.0
48,12.049277239583333,13.991584672916666,67.0,99.0
49,13.203123239583332,14.402642310416667,70.0,84.0
50,14.068507739583334,15.070911452083333,63.0,67.0
51,13.780046239583333,15.081728758333332,58.0,76.0
52,14.933892239583333,15.493988318749999,55.0,12.0
53,13.491584739583333,15.554084464583333,51.0,100.0
54,15.222353739583333,15.691103677083333,58.0,87.0
55,14.356969239583332,15.939901720833333,67.0,93.0
56,15.510815239583334,16.064901704166665,63.0,87.0
57,15.799276739583332,16.421872810416666,51.0,105.0
58,16.087738239583334,16.441103577083332,58.0,84.0
59,16.37619973958333,16.786055454166664,63.0,87.0
60,16.66466123958333,17.197113091666665,67.0,63.0
61,16.953122739583332,17.608170729166666,48.0,99.0
62,17.241584239583332,17.618988035416667,55.0,52.0
63,17.530045739583333,17.8918245375,60.0,93.0
64,17.818507239583333,18.25600718125,67.0,43.0
65,18.683891739583334,18.862978254166666,58.0,78.0
66,18.395430239583334,19.084132070833334,53.0,74.0
67,18.972353239583335,19.58653585,62.0,93.0
68,18.972353239583335,19.594949310416666,58.0,84.0
69,18.972353239583335,19.816103127083334,65.0,93.0
70,19.54927623958333,19.908651191666667,53.0,50.0
71,18.106968739583333,20.100958858333332,46.0,92.0
72,20.126199239583332,20.266824220833332,62.0,65.0
73,19.837737739583332,20.299276139583334,58.0,94.0
74,20.414660739583333,20.705526085416665,63.0,78.0
75,20.703122239583333,21.188699097916665,58.0,73.0
76,20.991583739583334,21.326920233333333,63.0,71.0
77,21.280045239583334,22.288458566666666,67.0,96.0
78,20.414660739583333,22.393025860416667,51.0,76.0
79,22.14542973958333,22.721150816666665,63.0,84.0
80,22.433891239583332,22.7812469625,58.0,100.0
81,22.722352739583332,22.87740079583333,55.0,57.0
82,22.722352739583332,23.114179610416667,60.0,63.0
83,22.722352739583332,23.417064185416667,48.0,85.0
84,23.010814239583333,23.561294935416665,55.0,72.0
85,23.299275739583333,23.608169929166667,60.0,96.0
86,23.587737239583333,24.120189091666667,63.0,89.0
87,23.876198739583334,24.7716313125,41.0,54.0
88,24.164660239583334,24.871390914583333,48.0,72.0
89,24.45312173958333,25.306487010416667,53.0,82.0
90,24.74158323958333,25.360573541666668,60.0,40.0
91,25.03004473958333,25.661054270833333,41.0,96.0
92,25.318506239583332,25.66225619375,48.0,63.0
93,25.606967739583332,25.962736922916665,53.0,109.0
94,25.895429239583333,26.263217652083334,65.0,77.0
95,26.183890739583333,27.10336177083333,44.0,102.0
96,26.760813739583334,27.158650225,56.0,87.0
97,26.472352239583333,27.2235540625,51.0,84.0
98,27.049275239583334,27.312496358333334,60.0,87.0
99,27.33773673958333,27.516823254166667,58.0,76.0
100,27.33773673958333,27.693505922916668,63.0,78.0
101,27.62619823958333,28.126198172916666,58.0,76.0
102,27.914659739583332,28.268025077083333,63.0,80.0
103,28.203121239583332,28.897832685416667,67.0,87.0
104,28.780044239583333,28.93869806458333,58.0,66.0
105,27.33773673958333,29.346149933333333,51.0,92.0
106,29.068505739583333,29.562496058333334,63.0,92.0
107,29.356967239583334,29.677880658333333,58.0,97.0
108,30.22235173958333,30.34975556875,58.0,100.0
109,29.93389023958333,30.58292861458333,53.0,57.0
110,30.51081323958333,31.118986235416667,58.0,94.0
111,31.087736239583332,31.338938129166667,53.0,24.0
112,29.645428739583334,31.3846112,46.0,92.0
113,30.51081323958333,31.436293885416667,62.0,85.0
114,30.51081323958333,31.48917849375,65.0,43.0
115,31.376197739583333,31.749995766666665,58.0,108.0
116,31.664659239583333,31.861774597916664,62.0,65.0
117,31.953120739583333,32.46153413333333,41.0,68.0
118,32.24158223958333,32.492784129166665,48.0,50.0
119,31.953120739583333,32.497591820833335,60.0,48.0
120,32.530043739583334,32.85937061875,53.0,93.0
121,32.81850523958333,33.073312897916665,60.0,77.0
122,33.106966739583335,34.08292814791667,48.0,63.0
123,33.39542823958333,34.13821660208333,55.0,85.0
124,33.683889739583336,34.292062735416664,60.0,99.0
125,33.97235123958333,34.31610119375,63.0,69.0
126,34.26081273958333,34.31610119375,63.0,78.0
127,34.26081273958333,34.40744733541666,58.0,71.0
128,34.26081273958333,35.060091479166665,51.0,94.0
129,34.54927423958333,35.13581262291667,58.0,89.0
130,34.83773573958333,35.21153376666667,63.0,78.0
131,35.126197239583334,35.56970679583333,67.0,59.0
132,35.703120239583335,36.146629795833334,55.0,59.0
133,35.41465873958333,36.171870177083335,48.0,87.0
134,35.99158173958333,36.37739899583333,60.0,90.0
135,36.280043239583335,36.6995143375,67.0,48.0
136,36.56850473958333,37.038456599999996,41.0,68.0
137,36.85696623958333,37.087735439583334,48.0,57.0
138,36.56850473958333,37.21513926875,60.0,68.0
139,37.14542773958333,37.43028347083333,53.0,96.0
140,37.43388923958333,37.59013921875,60.0,30.0
141,37.722350739583334,38.730764066666666,46.0,94.0
142,38.01081223958333,38.75360060208333,53.0,70.0
143,38.299273739583334,38.84374482083333,58.0,82.0
144,38.58773523958333,38.85696597291667,62.0,90.0
145,38.876196739583335,39.05287940833333,58.0,76.0
146,38.876196739583335,39.207927464583335,63.0,71.0
147,39.16465823958333,39.73917739375,58.0,82.0
148,39.45311973958333,39.800475462499996,63.0,78.0
149,39.74158123958333,40.370186925,67.0,61.0
150,38.876196739583335,40.56730228333333,51.0,92.0
151,40.31850423958333,40.67427342291666,63.0,82.0
152,40.60696573958333,40.99638876458333,58.0,100.0
153,40.895427239583334,41.177879125,63.0,80.0
154,41.18388873958333,41.75239827916666,48.0,90.0
155,41.472350239583335,41.828119422916664,55.0,50.0
156,41.76081173958333,42.14422515,60.0,82.0
157,42.049273239583336,42.42667703541667,67.0,45.0
158,42.33773473958333,43.0384558,41.0,82.0
159,42.62619623958333,43.114176943749996,48.0,41.0
160,42.91465773958333,43.30408076458333,53.0,93.0
161,43.20311923958333,43.4783595875,60.0,77.0
162,43.491580739583334,43.8389364625,53.0,39.0
163,43.491580739583334,43.91345568333333,56.0,82.0
164,43.491580739583334,43.93749414166667,41.0,93.0
165,43.78004223958333,44.031244129166666,48.0,48.0
166,43.491580739583334,44.05768643333333,60.0,48.0
167,44.068503739583335,44.283647941666665,53.0,96.0
168,44.645426739583336,44.831724791666666,55.0,82.0
169,44.93388823958333,45.23316704583333,55.0,85.0
170,44.645426739583336,45.24037858333333,60.0,48.0
171,44.645426739583336,45.515618931249996,48.0,87.0
172,45.51081123958333,45.71994582708333,55.0,72.0
173,45.22234973958333,45.8004746625,63.0,92.0
174,46.087734239583334,46.419464964583334,58.0,46.0
175,46.37619573958333,46.69109954375,63.0,80.0
176,46.664657239583335,47.04446488125,58.0,80.0
177,46.95311873958333,47.378599452083336,67.0,70.0
178,47.241580239583335,47.40023406458333,58.0,73.0
179,47.53004173958333,47.66465710625,58.0,100.0
180,47.53004173958333,48.03244551875,63.0,92.0
181,45.79927273958333,48.09254166458333,51.0,97.0
182,47.81850323958333,48.10576281666667,58.0,78.0
183,48.10696473958333,48.3822050875,60.0,79.0
184,48.10696473958333,48.423070466666665,65.0,81.0
185,48.683887739583334,48.775233881249996,60.0,79.0
186,48.39542623958333,48.93388770625,48.0,63.0
187,48.10696473958333,48.96273385625,41.0,81.0
188,48.683887739583334,48.9879742375,68.0,81.0
189,48.683887739583334,49.0023973125,65.0,86.0
190,48.97234923958333,49.09855114583333,60.0,80.0
191,49.260810739583334,49.663454916666666,60.0,78.0
192,49.260810739583334,49.729560677083334,63.0,79.0
193,49.837733739583335,49.99638756458333,60.0,83.0
194,49.54927223958333,50.14662792916666,55.0,79.0
195,49.837733739583335,50.252397145833335,63.0,84.0
196,49.837733739583335,50.2860509875,67.0,79.0
197,50.12619523958333,50.29446444791667,60.0,76.0
198,49.260810739583334,50.326916366666666,48.0,81.0
199,50.99157973958333,51.30768546666666,58.0,83.0
200,51.28004123958333,51.66105080416666,65.0,83.0
201,51.56850273958333,51.83653155,62.0,76.0
202,51.856964239583334,51.981964222916666,58.0,79.0
203,52.14542573958333,52.24999303333333,58.0,88.0
204,50.70311823958333,52.28124302916667,53.0,75.0
205,52.14542573958333,52.6514352875,62.0,95.0
206,50.41465673958333,52.65504105625,46.0,79.0
207,52.433887239583335,52.69230066666667,53.0,85.0
208,52.14542573958333,52.69710835833333,70.0,81.0
209,53.01081023958333,53.91225242708333,58.0,62.0
210,53.29927173958333,54.199512004166664,63.0,64.0
211,52.72234873958333,54.9014349875,51.0,100.0
212,54.16465623958333,55.09855034583333,58.0,57.0
213,54.453117739583334,55.348550312499995,63.0,84.0
214,53.58773323958333,55.53004067291666,67.0,99.0
215,54.74157923958333,55.94109831041666,70.0,84.0
216,55.606963739583335,56.60936745208333,63.0,67.0
217,55.31850223958333,56.62018475833333,58.0,76.0
218,56.47234823958333,57.032444318749995,55.0,12.0
219,55.030040739583335,57.09254046458333,51.0,100.0
220,56.76080973958333,57.22955967708333,58.0,87.0
221,55.89542523958333,57.47835772083333,67.0,93.0
222,57.049271239583334,57.60335770416666,63.0,87.0
223,57.33773273958333,57.96032881041666,51.0,105.0
224,57.626194239583334,57.97955957708333,58.0,84.0
225,57.91465573958333,58.32451145416667,63.0,87.0
226,58.203117239583335,58.73556909166666,67.0,63.0
227,58.49157873958333,59.14662672916666,48.0,99.0
228,58.78004023958333,59.15744403541667,55.0,52.0
229,59.06850173958333,59.430280537499996,60.0,93.0
230,59.35696323958333,59.794463181249995,67.0,43.0
231,60.222347739583334,60.40143425416667,58.0,78.0
232,59.93388623958333,60.62258807083333,53.0,74.0
233,60.51080923958333,61.12499185,62.0,93.0
234,60.51080923958333,61.13340531041666,58.0,84.0
235,60.51080923958333,61.354559127083334,65.0,93.0
236,61.08773223958333,61.44710719166667,53.0,50.0
237,59.64542473958333,61.63941485833333,46.0,92.0
238,61.66465523958333,61.80528022083333,62.0,65.0
239,61.37619373958333,61.83773213958333,58.0,94.0
240,61.95311673958333,62.24398208541667,63.0,78.0
241,62.24157823958333,62.727155097916665,58.0,73.0
242,62.53003973958333,62.86537623333333,63.0,71.0
243,62.818501239583334,63.826914566666666,67.0,96.0
244,61.95311673958333,63.93148186041667,51.0,76.0
245,63.68388573958333,64.25960681666666,63.0,84.0
246,63.97234723958333,64.3197029625,58.0,100.0
247,64.26080873958333,64.41585679583334,55.0,57.0
248,64.26080873958333,64.65263561041667,60.0,63.0
249,64.26080873958333,64.95552018541666,48.0,85.0
250,64.54927023958334,65.09975093541667,55.0,72.0
251,64.83773173958333,65.14662592916666,60.0,96.0
252,65.12619323958333,65.65864509166667,63.0,89.0
253,65.41465473958333,66.3100873125,41.0,54.0
254,65.70311623958334,66.40984691458333,48.0,72.0
255,65.99157773958333,66.84494301041667,53.0,82.0
256,66.28003923958333,66.89902954166666,60.0,40.0
257,66.56850073958333,67.19951027083333,41.0,96.0
258,66.85696223958332,67.20071219375,48.0,63.0
259,67.14542373958334,67.50119292291666,53.0,109.0
260,67.43388523958333,67.80167365208334,65.0,77.0
261,67.72234673958333,68.64181777083333,44.0,102.0
262,68.29926973958334,68.697106225,56.0,87.0
263,68.01080823958333,68.7620100625,51.0,84.0
264,68.58773123958333,68.85095235833333,60.0,87.0
265,68.87619273958333,69.05527925416666,58.0,76.0
266,68.87619273958333,69.23196192291667,63.0,78.0
267,69.16465423958333,69.66465417291667,58.0,76.0
268,69.45311573958332,69.80648107708333,63.0,80.0
269,69.74157723958334,70.43628868541667,67.0,87.0
270,70.31850023958333,70.47715406458333,58.0,66.0
271,68.87619273958333,70.88460593333333,51.0,92.0
272,70.60696173958333,71.10095205833333,63.0,92.0
273,70.89542323958334,71.21633665833333,58.0,97.0
274,71.76201543958334,71.89003473125,58.0,100.0
275,71.47234623958333,72.12433418958334,53.0,57.0
276,72.05187043958333,72.66298139791667,58.0,94.0
277,72.63158043958333,72.88399583541667,53.0,24.0
278,71.18388473958333,72.92988954375,46.0,92.0
279,72.05187043958333,72.98182189791666,62.0,85.0
280,72.05187043958333,73.03496198124999,65.0,43.0
281,72.92143543958333,73.29703921041667,58.0,108.0
282,73.21129043958334,73.40935802291666,62.0,65.0
283,73.50114543958333,74.01201487708333,41.0,68.0
284,73.79100043958333,74.04341583541667,48.0,50.0
285,73.50114543958333,74.04824675208333,60.0,48.0
286,74.08085543958333,74.41177323125,53.0,93.0
287,74.37071043958333,74.62674902291667,60.0,77.0
288,74.66056543958334,75.64124152291666,48.0,63.0
289,74.95042043958333,75.69679706458334,55.0,85.0
290,75.24027543958333,75.85138639791667,60.0,99.0
291,75.53013043958333,75.87554098125,63.0,69.0
292,75.81998543958333,75.87554098125,63.0,78.0
293,75.81998543958333,75.96732839791666,58.0,71.0
294,75.81998543958333,76.62312533541666,51.0,94.0
295,76.10984043958334,76.69921227291667,58.0,89.0
296,76.39969543958333,76.77529921041666,63.0,78.0
297,76.68955043958333,77.13520250208333,67.0,59.0
298,77.26926043958333,77.71491250208334,55.0,59.0
299,76.97940543958333,77.74027481458333,48.0,87.0
300,77.55911543958334,77.94679650208333,60.0,90.0
301,77.84897043958333,78.27046791875,67.0,48.0
302,78.13882543958333,78.61104754375,41.0,68.0
303,78.42868043958333,78.66056443958333,48.0,57.0
304,78.13882543958333,78.78858373125,60.0,68.0
305,78.71853543958333,79.00476725208333,53.0,96.0
306,79.00839043958334,79.16539523125,60.0,30.0
307,79.29824543958333,80.31153021041666,46.0,94.0
308,79.58810043958333,80.33447706458333,53.0,70.0
309,79.87795543958333,80.42505675208334,58.0,82.0
310,80.16781043958333,80.43834177291666,62.0,90.0
311,80.45766543958334,80.63520162708333,58.0,76.0
312,80.45766543958334,80.79099868958333,63.0,71.0
313,80.74752043958333,81.32481498125,58.0,82.0
314,81.03737543958333,81.38640916874999,63.0,78.0
315,81.32723043958333,81.95887279375,67.0,61.0
316,80.45766543958334,82.15694037708333,51.0,92.0
317,81.90694043958334,82.26442827291666,63.0,82.0
318,82.19679543958333,82.58809968958333,58.0,100.0
319,82.48665043958333,82.77046679374999,63.0,80.0
320,82.77650543958333,83.34776133541666,48.0,90.0
321,83.06636043958333,83.42384827291666,55.0,50.0
322,83.35621543958334,83.74148104375,60.0,82.0
323,83.64607043958333,84.02529739791666,67.0,45.0
324,83.93592543958333,84.64003154375,41.0,82.0
325,84.22578043958333,84.71611848124999,48.0,41.0
326,84.51563543958333,84.90659131458332,53.0,93.0
327,84.80549043958334,85.0808701375,60.0,77.0
328,85.09409128958333,85.44144701249999,53.0,39.0
329,85.09409128958333,85.51596623333333,56.0,82.0
330,85.09409128958333,85.54000469166667,41.0,93.0
331,85.38255278958333,85.63375467916666,48.0,48.0
332,85.09409128958333,85.66019698333332,60.0,48.0
333,85.67101428958333,85.88615849166666,53.0,96.0
334,86.24793728958333,86.43423534166666,55.0,82.0
335,86.53639878958333,86.83567759583333,55.0,85.0
336,86.24793728958333,86.84288913333333,60.0,48.0
337,86.24793728958333,87.11812948125,48.0,87.0
338,87.11332178958332,87.32245637708333,55.0,72.0
339,86.82486028958333,87.4029852125,63.0,92.0
340,87.40178328958334,87.76356208749999,58.0,87.0
341,87.40178328958334,88.00635051666666,62.0,74.0
342,87.69024478958333,88.16019664999999,53.0,29.0
343,87.97870628958333,88.33207162708332,58.0,100.0
344,88.26716778958333,88.75755233958333,65.0,93.0
345,88.84409078958333,89.2275042,58.0,92.0
346,89.13255228958333,89.47389839791666,62.0,82.0
347,88.55562928958332,89.72269644166666,53.0,54.0
348,89.42101378958333,89.732311825,58.0,82.0
349,87.40178328958334,89.74793682291666,46.0,89.0
350,89.99793678958332,90.38495596874999,58.0,72.0
351,89.70947528958332,90.39697519791666,51.0,85.0
352,90.28639828958333,90.39817712083332,63.0,79.0
353,90.57485978958333,90.89697513124999,63.0,81.0
354,90.28639828958333,90.91740782083333,67.0,83.0
355,91.44024428958333,91.59048465416666,60.0,79.0
356,91.15178278958332,91.62534041875,55.0,73.0
357,91.44024428958333,91.77437886041666,63.0,80.0
358,90.86332128958333,91.81404231666666,48.0,82.0
359,91.44024428958333,91.8164461625,67.0,78.0
360,91.72870578958333,91.90779230416666,60.0,80.0
361,92.01716728958333,92.13375381249999,60.0,74.0
362,92.01716728958333,92.38976339375,65.0,83.0
363,92.30562878958332,92.51476337708333,60.0,82.0
364,92.01716728958333,92.761157575,53.0,81.0
365,92.88255178958333,93.28519596666666,60.0,85.0
366,92.59409028958333,93.4750997875,68.0,79.0
367,93.74793628958332,94.00394587083332,62.0,90.0
368,93.45947478958333,94.15538815833332,53.0,76.0
369,93.17101328958333,94.20827276666667,46.0,81.0
370,94.03639778958333,94.22389776458333,58.0,84.0
371,94.32485928958333,94.46788811666666,58.0,80.0
372,94.32485928958333,94.79481114999999,63.0,80.0
373,94.61332078958333,94.90538805833333,58.0,79.0
374,94.90178228958332,95.05202265416666,67.0,93.0
375,94.32485928958333,95.0760611125,51.0,88.0
376,95.19024378958332,95.34649376875,62.0,90.0
377,95.47870528958333,95.86812831458333,60.0,75.0
378,95.47870528958333,95.94745522708332,63.0,81.0
379,95.76716678958333,96.3452917125,55.0,64.0
380,96.05562828958332,96.40658978124999,60.0,88.0
381,96.34408978958332,96.54000322499999,63.0,81.0
382,95.47870528958333,96.54961860833333,48.0,80.0
383,96.63255128958333,96.81644549583334,60.0,79.0
384,96.63255128958333,97.01115700833333,65.0,81.0
385,96.92101278958333,97.25755120625,60.0,80.0
386,96.63255128958333,97.3404838875,53.0,83.0
387,97.20947428958333,97.34408965624999,65.0,84.0
388,97.78639728958333,97.86572420208333,60.0,79.0
389,98.36332028958333,98.50514719374999,58.0,90.0
390,98.65178178958332,98.77317600416666,62.0,90.0
391,98.07485878958333,98.82966638125,53.0,85.0
392,97.78639728958333,98.87293560625,46.0,79.0
393,98.94024328958332,99.08447403958333,58.0,79.0
394,98.94024328958332,99.32606054583333,63.0,79.0
395,99.22870478958333,99.41259899583332,58.0,77.0
396,99.51716628958333,99.8933681625,63.0,81.0
397,98.94024328958332,99.93182969583333,51.0,80.0
398,99.80562778958333,99.96548353749999,58.0,78.0
399,99.51716628958333,99.97269507499999,67.0,85.0
400,100.09408928958332,100.22029119583333,58.0,75.0
401,100.09408928958332,100.48110846875,63.0,78.0
402,100.38255078958332,100.52918538541667,58.0,78.0
403,100.09408928958332,100.78279112083332,51.0,75.0
404,100.67101228958333,101.12774299791666,58.0,78.0
405,100.67101228958333,101.18904106666666,63.0,82.0
406,100.67101228958333,101.25154105833333,67.0,80.0
407,101.24793528958332,101.42461795833333,60.0,82.0
408,101.24793528958332,101.58687755208332,63.0,81.0
409,101.53639678958334,101.72029099583332,60.0,75.0
410,101.24793528958332,102.14697363124999,48.0,82.0
411,101.82485828958333,102.17221401249999,67.0,79.0
412,102.11331978958333,102.26476207708333,60.0,85.0
413,102.40178128958333,102.79000239166666,60.0,79.0
414,102.40178128958333,102.80682931249999,63.0,79.0
415,102.69024278958332,102.99072351875,55.0,70.0
416,102.97870428958333,103.07966581458334,60.0,77.0
417,102.40178128958333,103.088079275,48.0,81.0
418,102.97870428958333,103.30081963125,67.0,80.0
419,102.97870428958333,103.30562732291666,63.0,80.0
420,103.26716578958333,103.38255038958333,60.0,81.0
421,103.55562728958333,103.95947338958332,60.0,81.0
422,103.55562728958333,103.982309925,56.0,79.0
423,104.13255028958332,104.24553104374999,56.0,81.0
424,104.13255028958332,104.39817525416666,60.0,86.0
425,104.13255028958332,104.43182909583332,63.0,81.0
426,104.42101178958333,104.77798289583333,56.0,82.0
427,104.70947328958333,105.06644439583333,68.0,79.0
428,104.99793478958333,105.13976169374999,56.0,81.0
429,105.28639628958332,105.37413666249999,56.0,81.0
430,103.84408878958332,105.38735781458332,51.0,77.0
431,103.55562728958333,105.45947318958332,44.0,79.0
432,105.28639628958332,105.57125202083333,60.0,86.0
433,105.28639628958332,105.60610778541667,63.0,83.0
434,105.57485778958332,105.73230969166666,51.0,83.0
435,105.86331928958333,106.22029039583333,62.0,73.0
436,105.86331928958333,106.24312693124999,58.0,76.0
437,106.44024228958332,106.63134803333332,62.0,79.0
438,106.44024228958332,106.77798262916666,65.0,81.0
439,106.72870378958334,106.87173261666666,58.0,81.0
440,106.15178078958333,107.14577104166666,53.0,71.0
441,107.01716528958333,107.29721332916665,58.0,95.0
442,107.01716528958333,107.30803063541666,70.0,80.0
443,107.59408828958333,107.75274211458333,58.0,81.0
444,107.59408828958333,108.0712516875,62.0,90.0
445,107.88254978958332,108.10971322083333,58.0,88.0
446,107.30562678958333,108.16019398333333,53.0,81.0
447,105.86331928958333,108.17942475,46.0,80.0
448,108.45947278958333,109.36091497708333,58.0,62.0
449,108.74793428958333,109.64817455416666,63.0,64.0
450,108.17101128958333,110.35009753749999,51.0,100.0
451,109.61331878958333,110.54721289583333,58.0,57.0
452,109.90178028958333,110.79721286249999,63.0,84.0
453,109.03639578958332,110.97870322291666,67.0,99.0
454,110.19024178958333,111.38976086041666,70.0,84.0
455,111.05562628958333,112.05803000208333,63.0,67.0
456,110.76716478958332,112.06884730833333,58.0,76.0
457,111.92101078958333,112.48110686874999,55.0,12.0
458,110.47870328958332,112.54120301458333,51.0,100.0
459,112.20947228958333,112.67822222708332,58.0,87.0
460,111.34408778958333,112.92702027083332,67.0,93.0
461,112.49793378958333,113.05202025416666,63.0,87.0
462,112.78639528958333,113.40899136041666,51.0,105.0
463,113.07485678958332,113.42822212708333,58.0,84.0
464,113.36331828958333,113.77317400416666,63.0,87.0
465,113.65177978958333,114.18423164166666,67.0,63.0
466,113.94024128958333,114.59528927916666,48.0,99.0
467,114.22870278958332,114.60610658541665,55.0,52.0
468,114.51716428958332,114.87894308749999,60.0,93.0
469,114.80562578958333,115.24312573124999,67.0,43.0
470,115.67101028958334,115.85009680416667,58.0,78.0
471,115.38254878958332,116.07125062083333,53.0,74.0
472,115.95947178958332,116.5736544,62.0,93.0
473,115.95947178958332,116.58206786041666,58.0,84.0
474,115.95947178958332,116.80322167708333,65.0,93.0
475,116.53639478958333,116.89576974166667,53.0,50.0
476,115.09408728958333,117.08807740833333,46.0,92.0
477,117.11331778958333,117.25394277083333,62.0,65.0
478,116.82485628958332,117.28639468958332,58.0,94.0
479,117.40177928958332,117.69264463541666,63.0,78.0
480,117.69024078958333,118.17581764791666,58.0,73.0
481,117.97870228958332,118.31403878333333,63.0,71.0
482,118.26716378958332,119.27557711666665,67.0,96.0
483,117.40177928958332,119.38014441041666,51.0,76.0
484,119.13254828958333,119.70826936666666,63.0,84.0
485,119.42100978958334,119.7683655125,58.0,100.0
486,119.70947128958332,119.86451934583333,55.0,57.0
487,119.70947128958332,120.10129816041666,60.0,63.0
488,119.70947128958332,120.40418273541667,48.0,85.0
489,119.99793278958333,120.54841348541666,55.0,72.0
490,120.28639428958333,120.59528847916667,60.0,96.0
491,120.57485578958332,121.10730764166667,63.0,89.0
492,120.86331728958334,121.7587498625,41.0,54.0
493,121.15177878958332,121.85850946458334,48.0,72.0
494,121.44024028958333,122.29360556041667,53.0,82.0
495,121.72870178958333,122.34769209166666,60.0,40.0
496,122.01716328958332,122.64817282083332,41.0,96.0
497,122.30562478958333,122.64937474375,48.0,63.0
498,122.59408628958332,122.94985547291665,53.0,109.0
499,122.88254778958333,123.25033620208333,65.0,77.0
500,123.17100928958332,124.09048032083334,44.0,102.0
501,123.74793228958333,124.145768775,56.0,87.0
502,123.45947078958332,124.21067261249999,51.0,84.0
503,124.03639378958333,124.29961490833333,60.0,87.0
504,124.32485528958333,124.50394180416666,58.0,76.0
505,124.32485528958333,124.68062447291666,63.0,78.0
506,124.61331678958334,125.11331672291666,58.0,76.0
507,124.90177828958332,125.25514362708333,63.0,80.0
508,125.19023978958333,125.88495123541665,67.0,87.0
509,125.76716278958332,125.92581661458333,58.0,66.0
510,124.32485528958333,126.33326848333333,51.0,92.0
511,126.05562428958333,126.54961460833333,63.0,92.0
512,126.34408578958332,126.66499920833333,58.0,97.0
513,127.20947028958332,127.33687411874999,58.0,100.0
514,126.92100878958333,127.57004716458333,53.0,57.0
515,127.49793178958333,128.10610478541668,58.0,94.0
516,128.07485478958333,128.32605667916667,53.0,24.0
517,126.63254728958333,128.37172975,46.0,92.0
518,127.49793178958333,128.42341243541665,62.0,85.0
519,127.49793178958333,128.47629704374998,65.0,43.0
520,128.36331628958334,128.73711431666666,58.0,108.0
521,128.65177778958332,128.84889314791667,62.0,65.0
522,128.94023928958333,129.44865268333334,41.0,68.0
523,129.22870078958334,129.47990267916666,48.0,50.0
524,128.94023928958333,129.48471037083334,60.0,48.0
525,129.51716228958333,129.84648916875,53.0,93.0
526,129.80562378958334,130.06043144791667,60.0,77.0
527,130.09408528958332,131.07004669791667,48.0,63.0
528,130.38254678958333,131.12533515208332,55.0,85.0
529,130.6710082895833,131.27918128541666,60.0,99.0
530,130.95946978958332,131.30321974375,63.0,69.0
531,131.24793128958333,131.30321974375,63.0,78.0
532,131.24793128958333,131.39456588541665,58.0,71.0
533,131.24793128958333,132.04721002916665,51.0,94.0
534,131.53639278958332,132.12293117291665,58.0,89.0
535,131.82485428958333,132.19865231666665,63.0,78.0
536,132.11331578958334,132.55682534583332,67.0,59.0
537,132.69023878958333,133.13374834583334,55.0,59.0
538,132.40177728958332,133.15898872708334,48.0,87.0
539,132.97870028958334,133.36451754583334,60.0,90.0
540,133.26716178958333,133.6866328875,67.0,48.0
541,133.5556232895833,134.02557515,41.0,68.0
542,133.84408478958332,134.07485398958332,48.0,57.0
543,133.5556232895833,134.20225781874998,60.0,68.0
544,134.13254628958333,134.41740202083332,53.0,96.0
545,134.4210077895833,134.57725776875,60.0,30.0
546,134.70946928958332,135.71788261666666,46.0,94.0
547,134.99793078958334,135.74071915208333,53.0,70.0
548,135.28639228958332,135.83086337083333,58.0,82.0
549,135.57485378958333,135.84408452291666,62.0,90.0
550,135.86331528958334,136.03999795833332,58.0,76.0
551,135.86331528958334,136.19504601458334,63.0,71.0
552,136.15177678958332,136.72629594375,58.0,82.0
553,136.44023828958333,136.7875940125,63.0,78.0
554,136.72869978958332,137.35730547499998,67.0,61.0
555,135.86331528958334,137.55442083333332,51.0,92.0
556,137.3056227895833,137.66139197291665,63.0,82.0
557,137.59408428958332,137.98350731458333,58.0,100.0
558,137.88254578958333,138.164997675,63.0,80.0
559,138.17100728958332,138.73951682916666,48.0,90.0
560,138.45946878958333,138.81523797291666,55.0,50.0
561,138.74793028958334,139.1313437,60.0,82.0
562,139.03639178958332,139.41379558541666,67.0,45.0
563,139.32485328958333,140.02557435,41.0,82.0
564,139.61331478958334,140.10129549375,48.0,41.0
565,139.90177628958332,140.2911993145833,53.0,93.0
566,140.19023778958334,140.46547813749999,60.0,77.0
567,140.35490122916667,141.15297804583332,53.0,79.0
568,140.42821852708332,141.18062227291665,56.0,79.0
569,140.48711275,141.21067034583334,60.0,80.0
570,140.45946852291667,141.24552611041668,41.0,83.0
571,140.53518966666667,141.25393957083332,65.0,76.0
572,141.7190837395833,142.74071821874998,56.0,72.0
573,141.79600680624998,142.77196821458332,60.0,79.0
574,141.89095871666666,142.77677590625,63.0,71.0
575,141.94865101666664,142.86091051041666,68.0,69.0
576,141.81764141875,142.89817012083333,44.0,80.0
577,143.3272566020833,144.2972083958333,58.0,65.0
578,143.40538159166667,144.3476891583333,39.0,81.0
579,143.40057389999998,144.4991314458333,63.0,78.0
580,143.47749696666665,144.54600643958332,67.0,79.0
581,144.713073725,145.55441976666665,67.0,76.0
582,144.65057373333332,145.57485245625,63.0,79.0
583,144.60369873958334,145.60970822083334,60.0,66.0
584,144.67220834583333,145.67341013541665,48.0,80.0
585,146.17581391458333,146.82004459791665,41.0,80.0
586,146.15417930208332,146.905381125,65.0,79.0
587,146.06523700625,146.99913111249998,60.0,66.0
588,146.19744852708334,147.02437149374998,68.0,70.0
589,147.42100605625,147.68783294374998,58.0,62.0
590,147.49071758541666,147.91018868333333,62.0,71.0
591,147.57965988125,148.059227125,65.0,73.0
592,147.61211179999998,148.10249635,70.0,78.0
593,147.94504444791664,148.49432322083334,53.0,78.0
594,147.61090987708332,148.636150125,46.0,80.0
595,148.347688625,148.79240010416666,58.0,86.0
596,148.69744819375,149.08927506458332,62.0,84.0
597,149.11090967708333,149.21187120208333,39.0,85.0
598,149.13254428958334,149.72629421041665,63.0,79.0
599,150.32725566875,150.5207652583333,65.0,81.0
600,150.7262940770833,150.87533251874999,67.0,81.0
601,151.14937094375,151.57725550208335,70.0,79.0
602,151.578457425,151.72989971249999,75.0,84.0
603,152.04239967083333,152.13014004374998,77.0,83.0
604,149.89937111041667,152.20345734166665,58.0,79.0
605,149.52196731458332,152.21547657083335,51.0,79.0
606,152.84648610208333,153.01595723333332,75.0,66.0
607,152.93542839791667,153.06283222708333,79.0,65.0
608,153.00874569583334,153.14095721666666,87.0,75.0
609,152.70586112083333,153.4606687125,58.0,53.0
610,152.60129382708334,153.47268794166666,51.0,60.0
