,start,end,pitch,velocity
0,0.2913136416666667,0.74559995,72.0,96.0
1,0.7802316416666667,1.313967125,64.0,85.0
2,1.2691496416666668,1.77232775,65.0,93.0
3,1.7580676416666667,2.1512392,72.0,112.0
4,2.246985641666667,3.1331495166666667,72.0,127.0
5,3.224821641666667,4.200620483333333,70.0,112.0
6,4.202657641666667,5.160122058333334,69.0,112.0
7,4.691575641666667,5.245682708333334,57.0,96.0
8,5.180493641666667,5.748860816666667,61.0,99.0
9,5.669411641666667,6.007579925,67.0,95.0
10,5.669411641666667,6.011654241666667,64.0,93.0
11,6.158329641666667,6.783737250000001,64.0,95.0
12,6.158329641666667,6.804108833333333,67.0,99.0
13,7.1361656416666674,8.024366675,65.0,93.0
14,7.1361656416666674,8.036589625000001,62.0,92.0
15,8.114001641666666,8.556065,67.0,100.0
16,8.602919641666666,9.144803758333333,55.0,93.0
17,9.091837641666666,9.688725033333334,58.0,82.0
18,9.580755641666666,10.045227741666666,62.0,95.0
19,10.069673641666666,10.452659408333334,67.0,100.0
20,10.558591641666668,11.092327125,55.0,85.0
21,11.047509641666668,11.617913975,58.0,88.0
22,11.536427641666668,11.882744558333334,65.0,96.0
23,12.025345641666668,12.7607598,65.0,99.0
24,13.981017641666668,14.952742166666667,64.0,86.0
25,16.425607641666666,16.816742041666668,69.0,122.0
26,16.914525641666668,17.376960583333336,70.0,112.0
27,17.40344364166667,17.812912466666667,69.0,102.0
28,17.892361641666668,18.259050141666666,67.0,100.0
29,18.38127964166667,18.550363783333335,69.0,93.0
30,18.62573864166667,19.344855533333334,70.0,112.0
31,19.114656641666667,19.782844575000002,69.0,102.0
32,20.33695164166667,20.624190966666667,69.0,117.0
33,20.825869641666667,21.131443391666668,70.0,122.0
34,21.31478764166667,21.608138441666668,69.0,117.0
35,21.803705641666667,22.215211625000002,67.0,107.0
36,22.29262364166667,22.418927458333336,69.0,99.0
37,22.537082641666668,23.072855283333336,69.0,112.0
38,23.026000641666666,23.730857425,64.0,93.0
39,23.759377641666667,24.716842058333334,65.0,93.0
40,24.737213641666667,25.651897733333335,74.0,127.0
41,25.715049641666667,26.721405858333334,72.0,117.0
42,27.18180364166667,27.601458258333334,65.0,96.0
43,27.670721641666667,28.122970791666667,70.0,122.0
44,28.15963964166667,28.69133796666667,69.0,89.0
45,28.648557641666667,29.086546683333335,70.0,93.0
46,29.13747564166667,29.220999133333336,72.0,97.0
47,29.381934641666668,30.09697721666667,69.0,97.0
48,30.11531164166667,31.55150826666667,67.0,97.0
49,32.07098364166667,32.46211804166667,69.0,122.0
50,32.55990164166667,33.022336583333335,70.0,112.0
51,33.04881964166667,33.458288466666666,69.0,102.0
52,33.537737641666666,33.90442614166667,67.0,100.0
53,34.02665564166667,34.19573978333334,69.0,93.0
54,34.27111464166667,34.990231533333336,70.0,112.0
55,34.76003264166667,35.428220575000005,69.0,102.0
56,35.98232764166667,36.269566966666666,69.0,117.0
57,36.47124564166667,36.77681939166667,70.0,122.0
58,36.96016364166667,37.25351444166667,69.0,117.0
59,37.449081641666666,37.860587625,67.0,107.0
60,37.93799964166667,38.064303458333335,69.0,99.0
61,38.18245864166667,38.71823128333334,69.0,112.0
62,38.67137664166667,39.376233425,64.0,93.0
63,39.404753641666666,40.36221805833333,65.0,93.0
64,40.38258964166667,41.297273733333334,74.0,127.0
65,41.360425641666666,41.92879281666667,72.0,117.0
66,41.84934364166667,41.95935019166667,77.0,99.0
67,42.09380264166667,42.749767625000004,77.0,112.0
68,43.07163864166667,43.21016540833334,79.0,97.0
69,43.316097641666666,43.55240800833334,81.0,96.0
70,43.80501564166667,43.95169104166667,81.0,117.0
71,44.29393364166667,44.542466958333335,81.0,127.0
72,44.78285164166667,44.882672400000004,77.0,96.0
73,45.027310641666666,45.463262525000005,77.0,95.0
74,45.51622864166667,46.742597958333334,79.0,112.0
75,46.73852364166667,46.95853674166667,77.0,112.0
76,46.982982641666666,47.18466131666667,76.0,96.0
77,47.22744164166667,47.58598150833333,74.0,99.0
78,47.71635964166667,48.1095312,74.0,97.0
79,48.20527764166667,48.53733445,74.0,112.0
80,48.69419564166667,48.808276508333336,76.0,122.0
81,48.938654641666666,49.23607975833334,74.0,112.0
82,49.42757264166667,50.169098275,73.0,122.0
83,50.894326641666666,51.153045750000004,69.0,111.0
84,51.13878564166667,51.525845725,76.0,127.0
85,51.62770364166667,51.980132033333334,76.0,117.0
86,52.11662164166667,52.53831341666667,77.0,127.0
87,52.60553964166667,52.71350903333334,79.0,102.0
88,52.84999864166667,53.38169696666667,79.0,127.0
89,53.33891664166667,53.850243383333336,77.0,122.0
90,54.07229364166667,54.21082040833333,76.0,127.0
91,54.31675264166667,54.612140600000004,77.0,122.0
92,54.80567064166667,54.99105205,76.0,127.0
93,55.05012964166667,55.388297925,74.0,127.0
94,55.53904764166667,55.644979875000004,74.0,107.0
95,55.78350664166667,56.20519841666667,74.0,127.0
96,56.76134264166667,56.887646458333336,74.0,107.0
97,57.00580164166667,57.453976475000005,74.0,112.0
98,57.49471964166667,57.777884650000004,79.0,127.0
99,57.98363764166667,58.272914125,79.0,127.0
100,58.472555641666666,58.633491150000005,77.0,112.0
101,58.71701464166667,60.605460416666666,79.0,127.0
102,61.40606364166667,61.71367455,69.0,117.0
103,61.89498164166667,62.241298558333334,72.0,127.0
104,62.38389964166667,62.742439508333334,79.0,127.0
105,62.87281764166667,63.22117171666667,77.0,122.0
106,63.36173564166667,63.87917385833334,70.0,112.0
107,63.85065364166667,63.87917385833334,70.0,127.0
108,64.33957164166667,64.47402409166666,69.0,100.0
109,64.58403064166667,64.87738144166667,70.0,122.0
110,65.07294864166667,65.52112347500001,67.0,100.0
111,65.80632564166667,66.16282835,76.0,127.0
112,66.29524364166667,66.67415509166668,77.0,127.0
113,66.78416164166667,67.16714740833334,79.0,127.0
114,67.27307964166667,67.635693825,72.0,112.0
115,67.76199764166667,68.0329397,72.0,117.0
116,68.25091564166667,68.33240197500001,70.0,127.0
117,68.49537464166667,68.79076260000001,70.0,122.0
118,68.98429264166667,69.46709916666667,69.0,127.0
119,69.71766964166667,70.00083465,69.0,107.0
120,69.96212864166667,70.21677343333333,70.0,117.0
121,70.20658764166667,70.51827286666666,72.0,112.0
122,70.69550564166667,71.08256572500001,72.0,127.0
123,71.18442364166667,71.290355875,74.0,112.0
124,71.42888264166668,72.10114489166666,65.0,112.0
125,72.40671864166667,72.53302245833333,74.0,127.0
126,72.65117764166666,73.07083225833334,74.0,127.0
127,73.14009564166668,73.52104425,76.0,112.0
128,73.62901364166667,73.96514476666667,72.0,122.0
129,74.11793164166667,74.49480593333334,67.0,112.0
130,74.60684964166667,74.96742666666667,70.0,127.0
131,75.09576764166667,75.48079056666667,69.0,122.0
132,75.58468564166667,75.99008015,67.0,102.0
133,76.07360364166666,76.86402107500001,69.0,112.0
134,77.05143964166668,77.53220900833334,69.0,107.0
135,77.54035764166667,77.87648876666667,72.0,117.0
136,78.02927564166667,78.38985266666667,79.0,122.0
137,78.51819364166667,78.893030775,77.0,127.0
138,79.00711164166667,79.2536078,70.0,117.0
139,79.49602964166667,79.73234000833334,70.0,127.0
140,79.98494764166666,80.1092143,70.0,122.0
141,80.22940664166667,80.54516618333334,69.0,102.0
142,80.71832464166667,81.10538472500001,67.0,107.0
143,81.45170164166667,81.74301528333334,76.0,127.0
144,81.94061964166667,82.23804475833333,77.0,112.0
145,82.42953764166667,82.76363160833334,79.0,122.0
146,82.91845564166667,83.24236381666667,79.0,122.0
147,83.40737364166667,83.7027616,79.0,127.0
148,83.89629164166666,84.07759873333333,76.0,97.0
149,84.14075064166667,84.41576701666668,79.0,117.0
150,84.62966864166667,85.1939615,77.0,127.0
151,85.36304564166667,85.68899097500001,74.0,122.0
152,85.85196364166667,86.20031771666667,76.0,117.0
153,86.34088164166667,86.69534719166667,77.0,127.0
154,86.82979964166667,86.94591766666667,76.0,127.0
155,87.07425864166667,87.522433475,77.0,127.0
156,88.05209464166667,88.14987824166667,76.0,112.0
157,88.29655364166668,88.61842465833334,74.0,107.0
158,88.78547164166667,89.07271096666668,76.0,102.0
159,89.27438964166667,89.55348033333334,77.0,122.0
160,89.76330764166667,89.85905408333333,76.0,112.0
161,90.00776664166668,92.6255151,77.0,127.0
162,114.20920764166667,114.60034204166668,69.0,122.0
163,114.69812564166668,115.16056058333334,70.0,112.0
164,115.18704364166668,115.59651246666667,69.0,102.0
165,115.67596164166667,116.04265014166667,67.0,100.0
166,116.16487964166667,116.33396378333335,69.0,93.0
167,116.40933864166668,117.12845553333334,70.0,112.0
168,116.89825664166668,117.566444575,69.0,102.0
169,118.12055164166668,118.40779096666667,69.0,117.0
170,118.60946964166668,118.91504339166667,70.0,122.0
171,119.09838764166668,119.39173844166667,69.0,117.0
172,119.58730564166667,119.998811625,67.0,107.0
173,120.07622364166667,120.20252745833334,69.0,99.0
174,120.32068264166668,120.85645528333335,69.0,112.0
175,120.80960064166668,121.514457425,64.0,93.0
176,121.54297764166667,122.50044205833333,65.0,93.0
177,122.52081364166668,123.43549773333334,74.0,127.0
178,123.49864964166667,124.50500585833333,72.0,117.0
179,124.96540364166667,125.38505825833334,65.0,96.0
180,125.45432164166667,125.90657079166667,70.0,122.0
181,125.94323964166668,126.47493796666667,69.0,89.0
182,126.43215764166668,126.87014668333335,70.0,93.0
183,126.92107564166668,127.00459913333334,72.0,97.0
184,127.16553464166667,127.88057721666668,69.0,97.0
185,127.89891164166667,129.33510826666668,67.0,97.0
186,129.85458364166666,130.24571804166666,69.0,122.0
187,130.34350164166668,130.80593658333333,70.0,112.0
188,130.83241964166666,131.24188846666667,69.0,102.0
189,131.32133764166667,131.68802614166668,67.0,100.0
190,131.81025564166669,131.97933978333333,69.0,93.0
191,132.05471464166666,132.77383153333335,70.0,112.0
192,132.54363264166668,133.21182057500002,69.0,102.0
193,133.76592764166668,134.05316696666668,69.0,117.0
194,134.25484564166666,134.56041939166667,70.0,122.0
195,134.74376364166667,135.0371144416667,69.0,117.0
196,135.2326816416667,135.644187625,67.0,107.0
197,135.72159964166667,135.84790345833335,69.0,99.0
198,135.96605864166668,136.50183128333333,69.0,112.0
199,136.45497664166666,137.15983342500002,64.0,93.0
200,137.18835364166668,138.14581805833333,65.0,93.0
201,138.16618964166668,139.08087373333333,74.0,127.0
202,139.14402564166667,139.71239281666666,72.0,117.0
203,139.63294364166669,139.74295019166667,77.0,99.0
204,139.87740264166666,140.533367625,77.0,112.0
205,140.8552386416667,140.99376540833333,79.0,97.0
206,141.09969764166667,141.33600800833335,81.0,96.0
207,141.58861564166668,141.73529104166667,81.0,117.0
208,142.07753364166666,142.32606695833334,81.0,127.0
209,142.56645164166667,142.6662724,77.0,96.0
210,142.81091064166668,143.246862525,77.0,95.0
211,143.29982864166666,144.52619795833334,79.0,112.0
212,144.52212364166667,144.74213674166668,77.0,112.0
213,144.76658264166667,144.96826131666668,76.0,96.0
214,145.01104164166668,145.36958150833334,74.0,99.0
215,145.49995964166666,145.8931312,74.0,97.0
216,145.98887764166668,146.32093445,74.0,112.0
217,146.4777956416667,146.59187650833334,76.0,122.0
218,146.72225464166667,147.01967975833335,74.0,112.0
219,147.21117264166668,147.95269827500002,73.0,122.0
220,148.6779266416667,148.93664575,69.0,111.0
221,148.92238564166666,149.30944572500002,76.0,127.0
222,149.41130364166668,149.76373203333335,76.0,117.0
223,149.90022164166666,150.32191341666666,77.0,127.0
224,150.38913964166667,150.49710903333334,79.0,102.0
225,150.63359864166668,151.1652969666667,79.0,127.0
226,151.12251664166666,151.63384338333333,77.0,122.0
227,151.85589364166668,151.99442040833335,76.0,127.0
228,152.1003526416667,152.3957406,77.0,122.0
229,152.58927064166667,152.77465205000001,76.0,127.0
230,152.83372964166668,153.171897925,74.0,127.0
231,153.32264764166666,153.428579875,74.0,107.0
232,153.56710664166667,153.98879841666667,74.0,127.0
233,154.54494264166667,154.67124645833334,74.0,107.0
234,154.78940164166667,155.237576475,74.0,112.0
235,155.27831964166668,155.56148465,79.0,127.0
236,155.76723764166667,156.056514125,79.0,127.0
237,156.25615564166668,156.41709115,77.0,112.0
238,156.5006146416667,158.38906041666667,79.0,127.0
239,159.18966364166667,159.49727455000001,69.0,117.0
240,159.67858164166668,160.02489855833335,72.0,127.0
241,160.16749964166667,160.52603950833335,79.0,127.0
242,160.65641764166668,161.00477171666668,77.0,122.0
243,161.14533564166666,161.66277385833334,70.0,112.0
244,161.63425364166667,161.66277385833334,70.0,127.0
245,162.1231716416667,162.25762409166668,69.0,100.0
246,162.36763064166666,162.66098144166668,70.0,122.0
247,162.85654864166668,163.304723475,67.0,100.0
248,163.58992564166667,163.94642835000002,76.0,127.0
249,164.07884364166668,164.45775509166668,77.0,127.0
250,164.56776164166666,164.95074740833334,79.0,127.0
251,165.05667964166668,165.419293825,72.0,112.0
252,165.5455976416667,165.81653970000002,72.0,117.0
253,166.03451564166667,166.11600197500002,70.0,127.0
254,166.27897464166668,166.5743626,70.0,122.0
255,166.76789264166666,167.25069916666666,69.0,127.0
256,167.50126964166668,167.78443465,69.0,107.0
257,167.7457286416667,168.00037343333335,70.0,117.0
258,167.99018764166667,168.30187286666668,72.0,112.0
259,168.47910564166668,168.866165725,72.0,127.0
260,168.96802364166666,169.073955875,74.0,112.0
261,169.21248264166667,169.88474489166668,65.0,112.0
262,170.19031864166666,170.31662245833334,74.0,127.0
263,170.43477764166667,170.85443225833333,74.0,127.0
264,170.92369564166668,171.30464425,76.0,112.0
265,171.41261364166667,171.74874476666668,72.0,122.0
266,171.90153164166668,172.27840593333335,67.0,112.0
267,172.39044964166666,172.7510266666667,70.0,127.0
268,172.87936764166668,173.26439056666666,69.0,122.0
269,173.3682856416667,173.77368015000002,67.0,102.0
270,173.85720364166667,174.64762107500002,69.0,112.0
271,174.83503964166667,175.31580900833333,69.0,107.0
272,175.32395764166668,175.6600887666667,72.0,117.0
273,175.81287564166666,176.17345266666666,79.0,122.0
274,176.30179364166668,176.676630775,77.0,127.0
275,176.7907116416667,177.0372078,70.0,117.0
276,177.27962964166667,177.51594000833333,70.0,127.0
277,177.7685476416667,177.8928143,70.0,122.0
278,178.01300664166666,178.32876618333333,69.0,102.0
279,178.50192464166668,178.888984725,67.0,107.0
280,179.23530164166667,179.52661528333334,76.0,127.0
281,179.72421964166668,180.02164475833334,77.0,112.0
282,180.21313764166666,180.54723160833333,79.0,122.0
283,180.70205564166668,181.0259638166667,79.0,122.0
284,181.1909736416667,181.4863616,79.0,127.0
285,181.67989164166667,181.86119873333334,76.0,97.0
286,181.92435064166668,182.19936701666668,79.0,117.0
287,182.4132686416667,182.9775615,77.0,127.0
288,183.14664564166668,183.472590975,74.0,122.0
289,183.63556364166666,183.98391771666667,76.0,117.0
290,184.12448164166668,184.47894719166666,77.0,127.0
291,184.6133996416667,184.72951766666668,76.0,127.0
292,184.85785864166667,185.30603347500002,77.0,127.0
293,185.83569464166666,185.93347824166668,76.0,112.0
294,186.08015364166667,186.40202465833335,74.0,107.0
295,186.56907164166668,186.85631096666668,76.0,102.0
296,187.05798964166667,188.0358256416667,77.0,122.0
297,189.0136616416667,189.718518425,85.0,127.0
298,189.99149764166668,190.44782110833336,82.0,127.0
299,190.72487464166667,190.93877626666668,83.0,117.0
300,190.96933364166668,191.2647216,82.0,122.0
301,191.45825164166666,191.70067348333333,80.0,127.0
302,191.70271064166667,191.88605489166667,78.0,117.0
303,191.94716964166668,192.29552371666668,78.0,122.0
304,192.4360876416667,192.95352585833334,71.0,112.0
305,192.92500564166667,192.95352585833334,71.0,127.0
306,193.41392364166668,193.54837609166668,70.0,100.0
307,193.6583826416667,193.95173344166668,71.0,122.0
308,194.14730064166667,194.595475475,68.0,100.0
309,194.88067764166667,195.23718035000002,77.0,127.0
310,195.36959564166668,195.74850709166668,78.0,127.0
311,195.8585136416667,196.24149940833334,80.0,127.0
312,196.34743164166667,196.710045825,73.0,112.0
313,196.8363496416667,197.10729170000002,73.0,117.0
314,197.32526764166667,197.40675397500002,71.0,127.0
315,197.56972664166668,197.8651146,71.0,122.0
316,198.0586446416667,198.5414511666667,70.0,127.0
317,198.79202164166668,199.07518665,70.0,107.0
318,199.03648064166669,199.29112543333335,71.0,117.0
319,199.2809396416667,199.59262486666668,73.0,112.0
320,199.76985764166668,200.156917725,73.0,127.0
321,200.2587756416667,200.36470787500002,75.0,112.0
322,200.50323464166667,201.17549689166668,66.0,112.0
323,201.4810706416667,201.60737445833334,75.0,127.0
324,201.72552964166667,202.14518425833333,75.0,127.0
325,202.21444764166668,202.59539625000002,77.0,112.0
326,202.70336564166666,203.03949676666667,73.0,122.0
327,203.19228364166668,203.52637760833335,80.0,127.0
328,203.6812016416667,204.0417786666667,83.0,127.0
329,204.17011964166667,204.45735896666667,82.0,127.0
330,204.65903764166669,204.97479718333335,82.0,127.0
331,205.14795564166667,205.63687364166668,82.0,127.0
332,206.12579164166667,206.38043643333336,80.0,127.0
333,206.61470964166668,206.79601673333335,80.0,127.0
334,207.1036276416667,207.380681175,82.0,127.0
335,207.59254564166667,207.93071392500002,80.0,127.0
336,208.0814636416667,208.47463520000002,78.0,117.0
337,208.57038164166667,208.81280348333334,78.0,122.0
338,209.05929964166668,209.1509717666667,80.0,127.0
339,209.3037586416667,209.57470070000002,82.0,122.0
340,209.79267664166667,210.1125105,80.0,127.0
341,210.52605364166666,210.81736728333334,77.0,127.0
342,211.01497164166668,211.31239675833334,78.0,112.0
343,211.5038896416667,211.83798360833333,80.0,122.0
344,211.99280764166667,212.3167158166667,80.0,122.0
345,212.48172564166669,212.7771136,80.0,127.0
346,212.97064364166667,213.05009281666668,82.0,127.0
347,213.21510264166668,213.49011901666668,80.0,117.0
348,213.7040206416667,214.2683135,78.0,127.0
349,214.43739764166668,214.763342975,75.0,122.0
350,214.9263156416667,215.27466971666666,77.0,117.0
351,215.41523364166667,215.7696991916667,78.0,127.0
352,215.9041516416667,216.02026966666668,77.0,127.0
353,216.14861064166666,216.59678547500002,78.0,127.0
354,217.1264466416667,217.22423024166667,77.0,112.0
355,217.37090564166667,217.69277665833334,75.0,107.0
356,217.85982364166668,218.14706296666668,77.0,102.0
357,218.3487416416667,219.04748695,78.0,122.0
358,219.08211864166668,219.50584757500002,77.0,99.0
359,219.81549564166667,223.16254678333334,78.0,127.0
