,start,end,pitch,velocity
0,0.31372238333333335,0.9880217916666667,64.0,53.0
1,0.31372238333333335,1.1530316166666668,60.0,53.0
2,0.31372238333333335,1.436196625,45.0,62.0
3,0.8026403833333334,1.50342285,52.0,56.0
4,1.2915583833333335,2.2877288083333336,60.0,72.0
5,1.7804763833333335,2.3345834500000002,57.0,55.0
6,2.2693943833333337,3.7707800750000002,46.0,76.0
7,2.7583123833333336,4.255623758333334,53.0,48.0
8,3.7361483833333335,4.280069658333334,58.0,53.0
9,3.2472303833333336,4.2882182916666665,62.0,83.0
10,4.225066383333334,5.386246633333333,49.0,86.0
11,5.202902383333334,6.2581504,61.0,96.0
12,5.691820383333334,6.2785219833333334,64.0,86.0
13,4.713984383333334,6.8204061000000005,57.0,55.0
14,6.180738383333334,7.641380908333334,38.0,71.0
15,6.669656383333334,7.673975441666667,45.0,53.0
16,7.158574383333334,8.101778691666667,50.0,62.0
17,7.158574383333334,8.181227866666667,65.0,78.0
18,7.647492383333334,8.191413658333333,62.0,76.0
19,8.625328383333335,9.623535966666667,50.0,62.0
20,8.136410383333335,9.654093341666668,43.0,74.0
21,9.603164383333334,10.175605875,58.0,79.0
22,9.114246383333334,10.185791666666667,62.0,97.0
23,10.092082383333334,11.591430916666667,36.0,71.0
24,10.581000383333334,11.632174083333334,43.0,46.0
25,11.069918383333334,12.025345641666668,48.0,64.0
26,11.558836383333334,12.025345641666668,60.0,70.0
27,11.069918383333334,12.025345641666668,64.0,95.0
28,12.514263641666668,13.345424241666667,48.0,63.0
29,12.025345641666668,13.418761941666668,41.0,85.0
30,13.003181641666668,13.483951008333333,65.0,68.0
31,13.003181641666668,13.510434066666667,69.0,76.0
32,13.981017641666668,15.975395650000001,36.0,34.0
33,13.981017641666668,15.983544283333334,64.0,62.0
34,13.981017641666668,15.989655758333335,67.0,63.0
35,13.981017641666668,16.001878708333333,43.0,55.0
36,13.981017641666668,16.001878708333333,48.0,63.0
37,13.492099641666668,16.020213133333336,60.0,81.0
38,16.425607641666666,17.199727808333336,48.0,52.0
39,15.936689641666668,17.256768241666666,41.0,63.0
40,16.914525641666668,17.444186808333335,53.0,69.0
41,16.914525641666668,17.841432683333334,69.0,71.0
42,16.914525641666668,17.847544158333335,65.0,76.0
43,17.40344364166667,17.963662183333334,60.0,77.0
44,18.38127964166667,18.951683975,57.0,69.0
45,17.892361641666668,19.031133150000002,49.0,69.0
46,18.870197641666667,19.988597566666666,61.0,85.0
47,19.35911564166667,20.002857675,57.0,71.0
48,18.870197641666667,20.002857675,64.0,79.0
49,19.848033641666667,21.673327508333333,41.0,82.0
50,20.33695164166667,21.828151541666667,48.0,58.0
51,20.825869641666667,22.64097771666667,69.0,72.0
52,20.825869641666667,22.651163508333333,65.0,76.0
53,21.31478764166667,22.860990816666668,60.0,76.0
54,21.803705641666667,23.11767276666667,41.0,66.0
55,22.29262364166667,23.156378775,48.0,38.0
56,20.825869641666667,23.380466191666667,53.0,61.0
57,22.781541641666667,23.832715341666667,69.0,92.0
58,22.781541641666667,23.836789658333334,65.0,83.0
59,23.27045964166667,23.912164516666667,60.0,69.0
60,24.24829564166667,25.016304333333334,58.0,58.0
61,23.759377641666667,25.228168800000002,46.0,83.0
62,24.737213641666667,25.73338406666667,65.0,102.0
63,25.22613164166667,25.788387341666667,62.0,82.0
64,26.20396764166667,27.006608025000002,52.0,64.0
65,25.715049641666667,27.13291184166667,45.0,74.0
66,27.18180364166667,27.73794786666667,57.0,78.0
67,26.692885641666667,27.754245133333335,60.0,95.0
68,26.692885641666667,27.766468083333336,64.0,83.0
69,28.648557641666667,28.937834125000002,55.0,67.0
70,28.15963964166667,29.11302974166667,50.0,58.0
71,27.670721641666667,29.11914121666667,43.0,69.0
72,28.648557641666667,29.6284308,67.0,85.0
73,28.648557641666667,29.630467958333334,70.0,93.0
74,29.13747564166667,29.695657025000003,62.0,89.0
75,29.626393641666667,31.10740775,36.0,82.0
76,30.11531164166667,31.119630700000002,43.0,44.0
77,30.604229641666667,31.522988050000002,48.0,82.0
78,30.604229641666667,31.580028483333336,60.0,85.0
79,31.09314764166667,31.618734491666668,55.0,100.0
80,30.604229641666667,31.618734491666668,64.0,82.0
81,32.07098364166667,32.877698341666665,48.0,59.0
82,31.58206564166667,32.90214424166667,41.0,85.0
83,32.55990164166667,33.083451333333336,53.0,88.0
84,32.55990164166667,33.51940321666667,65.0,89.0
85,32.55990164166667,33.53162616666667,69.0,92.0
86,33.04881964166667,33.619223975000004,60.0,93.0
87,34.02665564166667,34.59502281666667,57.0,89.0
88,33.537737641666666,34.841518975,49.0,117.0
89,34.51557364166667,35.47303805833334,61.0,100.0
90,34.51557364166667,35.49952111666667,64.0,88.0
91,35.00449164166667,35.5687845,57.0,92.0
92,35.98232764166667,36.85626856666667,45.0,52.0
93,35.493409641666666,36.98460954166667,38.0,73.0
94,36.47124564166667,37.163879475,50.0,58.0
95,36.47124564166667,37.408338475,62.0,89.0
96,36.47124564166667,37.432784375000004,65.0,85.0
97,36.96016364166667,37.518345025,57.0,81.0
98,37.93799964166667,38.54303566666667,55.0,86.0
99,37.449081641666666,39.095105575000005,48.0,69.0
100,38.42691764166667,39.15010885,60.0,83.0
101,38.42691764166667,39.15010885,64.0,85.0
102,38.91583564166667,39.42308806666667,55.0,69.0
103,39.89367164166667,40.41722133333334,58.0,81.0
104,40.87150764166667,40.893916383333334,66.0,47.0
105,39.404753641666666,41.003922933333335,46.0,92.0
106,40.87150764166667,41.374685750000005,58.0,89.0
107,40.38258964166667,41.405243125000005,62.0,90.0
108,40.87150764166667,41.407280283333336,65.0,37.0
109,41.360425641666666,41.87378954166667,45.0,77.0
110,41.84934364166667,42.419747975,57.0,92.0
111,42.33826164166667,42.898480183333334,38.0,76.0
112,42.82717964166667,43.37110091666667,62.0,82.0
113,43.80501564166667,44.570987175,50.0,68.0
114,43.316097641666666,44.67691940833333,43.0,76.0
115,44.29393364166667,45.222877841666666,62.0,72.0
116,44.29393364166667,45.22898931666667,58.0,85.0
117,44.78285164166667,45.35733029166667,55.0,90.0
118,45.76068764166667,46.8138985,43.0,40.0
119,45.27176964166667,46.82612145,36.0,89.0
120,46.24960564166667,47.0094657,64.0,78.0
121,46.24960564166667,47.029837283333336,60.0,88.0
122,46.73852364166667,47.129658041666666,55.0,76.0
123,46.24960564166667,47.162252575000004,48.0,66.0
124,47.22744164166667,48.05249076666667,62.0,92.0
125,47.22744164166667,48.05860224166667,55.0,88.0
126,47.22744164166667,48.0606394,59.0,96.0
127,47.71635964166667,48.41103063333333,50.0,58.0
128,48.20527764166667,48.82049945833334,62.0,112.0
129,48.20527764166667,48.94884043333334,55.0,107.0
130,47.22744164166667,49.08533004166667,43.0,73.0
131,48.20527764166667,49.08533004166667,59.0,127.0
132,48.69419564166667,49.22181965,50.0,85.0
133,49.18311364166667,49.9429737,64.0,92.0
134,49.18311364166667,49.96945675833334,57.0,90.0
135,49.18311364166667,50.01223708333334,61.0,102.0
136,49.67203164166667,50.181321225000005,52.0,79.0
137,50.40540864166667,50.570418466666666,52.0,99.0
138,49.18311364166667,50.59893868333334,45.0,93.0
139,50.16094964166667,51.13267416666667,61.0,127.0
140,50.16094964166667,51.16323154166667,64.0,102.0
141,50.64986764166667,51.265089458333335,57.0,102.0
142,51.62770364166667,52.308114525,50.0,79.0
143,52.11662164166667,52.752215041666666,62.0,93.0
144,51.13878564166667,53.01500846666667,38.0,90.0
145,51.38324464166667,53.14946091666667,45.0,79.0
146,52.36108064166667,53.38169696666667,50.0,58.0
147,52.11662164166667,53.848206225000006,65.0,93.0
148,52.84999864166667,53.85839201666667,62.0,97.0
149,52.60553964166667,53.9521013,57.0,90.0
150,53.09445764166667,54.381941708333336,38.0,83.0
151,53.58337564166667,54.45527940833334,45.0,64.0
152,54.31675264166667,54.7099242,50.0,93.0
153,54.07229364166667,54.758816,65.0,127.0
154,54.56121164166667,54.86678539166667,62.0,127.0
155,54.80567064166667,55.109207233333336,57.0,92.0
156,55.05012964166667,55.71628041666667,62.0,100.0
157,55.05012964166667,55.883327400000006,59.0,107.0
158,55.53904764166667,56.14204650833334,50.0,46.0
159,56.02796564166667,56.41095140833334,62.0,122.0
160,56.02796564166667,56.573924075,55.0,100.0
161,55.05012964166667,56.65744756666667,43.0,93.0
162,56.02796564166667,56.867274875,59.0,112.0
163,56.51688364166667,56.95690984166667,50.0,92.0
164,57.00580164166667,57.792144758333336,62.0,99.0
165,57.00580164166667,57.81251634166667,65.0,93.0
166,57.00580164166667,57.83085076666667,59.0,107.0
167,57.49471964166667,58.31976876666667,53.0,75.0
168,58.472555641666666,58.61108240833334,53.0,78.0
169,57.00580164166667,58.64163978333334,47.0,79.0
170,57.98363764166667,58.666085683333336,65.0,100.0
171,57.98363764166667,58.67423431666667,62.0,117.0
172,57.98363764166667,58.841281300000006,59.0,96.0
173,58.96147364166667,59.59502988333334,60.0,107.0
174,59.69485064166667,59.788559925,60.0,29.0
175,58.96147364166667,59.79874571666667,64.0,97.0
176,59.93930964166667,60.00042439166667,48.0,28.0
177,60.18376864166667,60.41804185,48.0,95.0
178,59.93930964166667,60.462859333333334,60.0,112.0
179,58.96147364166667,60.640092108333334,36.0,92.0
180,59.93930964166667,60.754172975,64.0,117.0
181,60.42822764166667,60.78880466666667,55.0,102.0
182,60.67268664166667,60.827510675000006,60.0,86.0
183,59.45039164166667,60.83769646666667,43.0,83.0
184,60.91714564166667,61.40402648333334,48.0,86.0
185,60.91714564166667,61.45699260000001,64.0,97.0
186,60.91714564166667,61.45699260000001,67.0,102.0
187,61.40606364166667,61.780900775000006,60.0,117.0
188,61.89498164166667,62.453163025,45.0,100.0
189,61.89498164166667,62.76281109166667,57.0,112.0
190,61.89498164166667,62.78929415,60.0,97.0
191,61.89498164166667,62.801517100000005,64.0,96.0
192,63.11727664166667,63.86287659166667,58.0,93.0
193,63.60619464166667,63.86898806666667,65.0,100.0
194,63.36173564166667,63.903619758333335,62.0,95.0
195,64.09511264166667,64.22345361666667,58.0,112.0
196,62.87281764166667,64.25604815,46.0,107.0
197,63.85065364166667,64.65329402500001,70.0,127.0
198,64.33957164166667,64.787746475,65.0,99.0
199,64.58403064166667,64.83867543333334,62.0,102.0
200,65.31740764166668,65.90818355833333,48.0,92.0
201,65.56186664166667,65.92040650833334,55.0,100.0
202,64.82848964166666,66.29524364166667,36.0,70.0
203,65.07294864166667,66.29728080000001,43.0,61.0
204,66.05078464166667,66.46229062500001,48.0,96.0
205,66.53970264166666,66.76990153333334,55.0,100.0
206,65.80632564166667,66.78619880000001,64.0,112.0
207,66.29524364166667,66.78823595833333,60.0,117.0
208,67.27307964166667,67.88218998333333,57.0,97.0
209,67.51753864166668,67.95552768333334,60.0,99.0
210,68.00645664166667,68.17757794166667,57.0,96.0
211,67.02862064166668,68.22035826666666,52.0,77.0
212,66.78416164166667,68.26925006666667,45.0,83.0
213,67.76199764166667,68.64612435833334,69.0,100.0
214,68.25091564166667,68.71335058333334,64.0,95.0
215,68.49537464166667,68.77853965,60.0,102.0
216,69.22875164166668,69.8174904,50.0,99.0
217,69.47321064166667,69.9397199,57.0,112.0
218,68.73983364166666,70.165844475,38.0,78.0
219,68.98429264166667,70.18621605833334,45.0,74.0
220,69.96212864166667,70.58346193333334,50.0,100.0
221,70.20658764166667,70.679208375,62.0,107.0
222,69.71766964166667,70.68939416666667,65.0,127.0
223,70.45104664166666,70.70161711666667,57.0,112.0
224,71.18442364166667,71.79353398333333,55.0,97.0
225,71.42888264166668,71.93613506666667,62.0,100.0
226,71.91780064166667,72.09299625833334,55.0,97.0
227,70.93996464166668,72.13170226666666,50.0,78.0
228,70.69550564166667,72.19281701666667,43.0,96.0
229,71.67334164166667,72.4820935,70.0,117.0
230,72.16225964166667,72.63284321666667,67.0,117.0
231,72.40671864166667,72.68173501666666,62.0,112.0
232,73.14009564166668,73.76550325000001,48.0,70.0
233,73.38455464166667,73.93051307500001,55.0,100.0
234,72.89563664166667,74.12200595833333,43.0,77.0
235,72.65117764166666,74.12404311666667,36.0,93.0
236,73.87347264166667,74.49888025,48.0,97.0
237,74.11793164166667,74.55592068333334,60.0,122.0
238,73.62901364166667,74.55795784166668,64.0,112.0
239,74.36239064166666,74.57221795000001,55.0,122.0
240,75.09576764166667,75.68043208333334,53.0,100.0
241,76.07360364166666,76.40769760833334,67.0,107.0
242,74.60684964166667,76.460663725,41.0,93.0
243,75.82914464166667,76.55029869166667,53.0,97.0
244,74.85130864166668,76.60122765,48.0,85.0
245,75.58468564166667,76.63789650000001,69.0,122.0
246,75.34022664166667,77.15940903333333,60.0,107.0
247,76.31806264166667,77.25311831666667,65.0,127.0
248,77.29589864166667,77.377384975,65.0,39.0
249,77.05143964166668,77.69110735833334,53.0,117.0
250,76.56252164166668,77.94371499166667,41.0,88.0
251,77.29589864166667,77.98038384166667,60.0,99.0
252,76.80698064166667,78.00890405833334,48.0,102.0
253,77.78481664166667,78.06798165000001,53.0,102.0
254,77.54035764166667,78.36948108333334,69.0,122.0
255,78.02927564166667,78.50393353333334,65.0,127.0
256,78.27373464166666,78.53652806666668,60.0,112.0
257,79.00711164166667,79.528624175,58.0,97.0
258,79.25157064166667,79.64270504166667,62.0,99.0
259,78.76265264166668,79.95439026666666,53.0,69.0
260,78.51819364166667,80.03995091666667,46.0,100.0
261,79.74048864166667,80.04606239166667,58.0,102.0
262,79.49602964166667,80.35774761666667,70.0,127.0
263,79.98494764166666,80.43923395,65.0,93.0
264,80.22940664166667,80.49220006666667,62.0,107.0
265,80.96278364166668,81.27854318333334,60.0,100.0
266,81.20724264166667,81.5026306,64.0,102.0
267,80.71832464166667,81.63708305,55.0,72.0
268,81.69616064166667,81.89783931666668,55.0,81.0
269,80.47386564166668,81.98747428333334,48.0,73.0
270,81.94061964166667,82.16063274166667,64.0,127.0
271,81.45170164166667,82.16063274166667,67.0,127.0
272,82.91845564166667,83.27088403333333,57.0,99.0
273,83.16291464166667,83.45626544166667,61.0,122.0
274,82.67399664166668,83.55608620000001,52.0,89.0
275,83.65183264166667,83.79035940833334,52.0,89.0
276,82.42953764166667,83.88610585,45.0,82.0
277,83.40737364166667,84.23649708333333,64.0,117.0
278,83.89629164166666,84.24872003333334,61.0,127.0
279,84.14075064166667,84.58688831666667,57.0,117.0
280,84.87412764166668,85.481200825,50.0,93.0
281,85.11858664166667,85.66861939166667,57.0,99.0
282,84.38520964166668,85.762328675,38.0,74.0
283,84.62966864166667,85.80918331666668,45.0,83.0
284,85.60750464166667,86.20846635000001,50.0,99.0
285,85.36304564166667,86.29198984166668,65.0,122.0
286,85.85196364166667,86.32254721666668,62.0,122.0
287,86.09642264166668,86.3429188,57.0,102.0
288,86.82979964166667,87.19445098333334,55.0,90.0
289,87.07425864166667,87.3452007,58.0,112.0
290,86.58534064166668,87.43890998333333,50.0,75.0
291,87.56317664166667,87.74040941666667,50.0,83.0
292,86.34088164166667,87.83615585833334,43.0,82.0
293,87.80763564166668,88.16413835,58.0,127.0
294,87.31871764166667,88.16821266666668,62.0,107.0
295,88.05209464166667,88.33322249166667,55.0,102.0
296,89.02993064166667,89.26012953333334,60.0,112.0
297,88.78547164166667,89.380321875,48.0,97.0
298,88.29655364166668,89.78979070000001,36.0,88.0
299,88.54101264166667,89.80405080833334,43.0,83.0
300,89.51884864166666,90.18703657500001,48.0,92.0
301,89.76330764166667,90.20944531666667,60.0,107.0
302,89.27438964166667,90.223705425,64.0,107.0
303,90.00776664166668,90.24611416666667,55.0,100.0
304,90.74114364166667,91.16079825833334,53.0,92.0
305,90.98560264166667,91.23617311666668,57.0,127.0
306,90.49668464166668,91.299325025,48.0,88.0
307,90.25222564166667,92.04696213333334,41.0,85.0
308,91.71897964166668,92.18752605833333,57.0,117.0
309,91.23006164166667,92.19567469166667,60.0,112.0
310,91.47452064166667,92.22215775000001,48.0,90.0
311,91.96343864166667,92.22215775000001,55.0,99.0
312,92.69681564166667,93.291665875,53.0,96.0
313,92.94127464166667,93.33037188333334,60.0,100.0
314,92.20789764166668,93.65428005833334,41.0,83.0
315,92.45235664166667,93.682800275,48.0,76.0
316,93.43019264166666,93.70724617500001,53.0,112.0
317,93.18573364166667,94.073934675,69.0,127.0
318,93.67465164166667,94.10652920833334,65.0,127.0
319,93.91911064166668,94.16356964166667,60.0,127.0
320,94.89694664166667,95.20252039166667,63.0,112.0
321,94.40802864166668,95.2167805,56.0,96.0
322,94.65248764166667,95.30437830833334,60.0,93.0
323,94.16356964166667,96.00108645833333,44.0,127.0
324,95.38586464166667,96.23535966666667,56.0,89.0
325,95.87478264166667,96.32499463333333,60.0,112.0
326,95.14140564166667,96.469632875,68.0,127.0
327,95.63032364166668,96.53482194166668,63.0,117.0
328,96.36370064166667,97.05837163333334,56.0,95.0
329,96.85261864166667,97.17041534166667,63.0,97.0
330,96.60815964166667,97.22541861666667,60.0,81.0
331,97.34153664166668,97.46376614166667,56.0,93.0
332,96.11924164166668,97.46987761666668,44.0,99.0
333,97.09707764166667,98.17677155833334,68.0,127.0
334,97.83045464166668,98.18492019166668,60.0,99.0
335,97.58599564166667,98.22566335833334,63.0,117.0
336,98.56383164166667,99.12405018333334,51.0,88.0
337,98.80829064166667,99.24627968333334,55.0,89.0
338,99.29720864166667,99.75353210833335,51.0,86.0
339,99.54166764166668,99.81260970000001,58.0,107.0
340,99.78612664166667,100.12836924166668,55.0,96.0
341,98.31937264166667,100.47061184166667,46.0,55.0
342,100.03058564166668,100.48690910833334,51.0,95.0
343,98.07491364166667,100.54191238333334,39.0,88.0
344,100.27504464166667,100.58265555,55.0,93.0
345,99.05274964166667,100.698773575,63.0,122.0
346,100.51950364166667,100.84952329166667,58.0,127.0
347,100.76396264166667,100.95138120833334,55.0,92.0
348,101.00842164166667,101.61345766666668,36.0,86.0
349,101.00842164166667,101.90884562500001,55.0,100.0
350,101.00842164166667,101.95162595000001,64.0,112.0
351,101.00842164166667,101.95366310833334,60.0,107.0
352,102.47517564166667,102.75019201666667,53.0,89.0
353,102.71963464166667,103.00483680833334,56.0,107.0
354,102.23071664166667,103.09650893333334,48.0,74.0
355,103.20855264166667,103.424491425,48.0,79.0
356,101.98625764166667,103.46523459166667,41.0,77.0
357,102.96409364166668,103.83192309166667,60.0,100.0
358,103.45301164166668,103.85433183333333,56.0,127.0
359,103.69747064166667,103.93378100833334,53.0,95.0
360,104.67530664166667,104.90957985,56.0,107.0
361,104.43084764166667,104.93810006666668,53.0,63.0
362,104.18638864166667,105.00736345,49.0,97.0
363,103.94192964166668,105.31293720000001,37.0,112.0
364,105.16422464166668,105.606288,49.0,112.0
365,105.40868364166667,105.77944645833334,56.0,122.0
366,104.91976564166667,105.8751929,61.0,127.0
367,105.65314264166668,105.91186175,53.0,102.0
368,106.63097864166667,106.97322124166668,55.0,95.0
369,106.38651964166667,106.98544419166667,51.0,97.0
370,106.87543764166668,107.36842995833334,58.0,102.0
371,105.89760164166667,107.739192775,39.0,88.0
372,106.14206064166667,107.83901353333334,46.0,36.0
373,107.11989664166667,108.17718181666667,51.0,96.0
374,107.36435564166668,108.40738070833333,55.0,82.0
375,107.60881464166667,108.46442114166668,58.0,122.0
376,106.87543764166668,108.56831621666667,63.0,122.0
377,108.34219164166667,108.949264825,51.0,96.0
378,108.58665064166668,109.11834896666667,55.0,89.0
379,108.09773264166667,109.23650415,46.0,55.0
380,109.07556864166668,109.24057846666668,51.0,96.0
381,107.85327364166668,109.3220648,39.0,81.0
382,109.32002764166667,109.59300685833334,58.0,117.0
383,108.83110964166667,109.63986150000001,63.0,127.0
384,109.56448664166668,109.83746585833335,55.0,107.0
385,110.78678164166668,111.308294175,60.0,93.0
386,110.54232264166667,111.57923623333333,55.0,69.0
387,110.29786364166667,111.65664825,48.0,90.0
388,109.80894564166667,113.72028964166667,36.0,83.0
389,110.05340464166667,113.72028964166667,43.0,81.0
390,111.76461764166667,113.72028964166667,48.0,73.0
391,111.76461764166667,113.72028964166667,55.0,81.0
392,111.52015864166667,113.72028964166667,60.0,55.0
393,111.03124064166667,113.72028964166667,62.0,86.0
394,111.27569964166668,113.72028964166667,64.0,85.0
395,114.20920764166667,114.98332780833334,48.0,52.0
396,113.72028964166667,115.04036824166667,41.0,63.0
397,114.69812564166668,115.22778680833333,53.0,69.0
398,114.69812564166668,115.62503268333334,69.0,71.0
399,114.69812564166668,115.63114415833334,65.0,76.0
400,115.18704364166668,115.74726218333333,60.0,77.0
401,116.16487964166667,116.735283975,57.0,69.0
402,115.67596164166667,116.81473315000001,49.0,69.0
403,116.65379764166667,117.77219756666668,61.0,85.0
404,117.14271564166667,117.78645767500001,57.0,71.0
405,116.65379764166667,117.78645767500001,64.0,79.0
406,117.63163364166667,119.45692750833334,41.0,82.0
407,118.12055164166668,119.61175154166668,48.0,58.0
408,118.60946964166668,120.42457771666668,69.0,72.0
409,118.60946964166668,120.43476350833333,65.0,76.0
410,119.09838764166668,120.64459081666668,60.0,76.0
411,119.58730564166667,120.90127276666668,41.0,66.0
412,120.07622364166667,120.939978775,48.0,38.0
413,118.60946964166668,121.16406619166668,53.0,61.0
414,120.56514164166667,121.61631534166668,69.0,92.0
415,120.56514164166667,121.62038965833334,65.0,83.0
416,121.05405964166667,121.69576451666667,60.0,69.0
417,122.03189564166668,122.79990433333334,58.0,58.0
418,121.54297764166667,123.01176880000001,46.0,83.0
419,122.52081364166668,123.51698406666668,65.0,102.0
420,123.00973164166668,123.57198734166667,62.0,82.0
421,123.98756764166667,124.79020802500001,52.0,64.0
422,123.49864964166667,124.91651184166668,45.0,74.0
423,124.96540364166667,125.52154786666668,57.0,78.0
424,124.47648564166667,125.53784513333333,60.0,95.0
425,124.47648564166667,125.55006808333334,64.0,83.0
426,126.43215764166668,126.721434125,55.0,67.0
427,125.94323964166668,126.89662974166667,50.0,58.0
428,125.45432164166667,126.90274121666667,43.0,69.0
429,126.43215764166668,127.41203080000001,67.0,85.0
430,126.43215764166668,127.41406795833333,70.0,93.0
431,126.92107564166668,127.47925702500001,62.0,89.0
432,127.40999364166667,128.89100775,36.0,82.0
433,127.89891164166667,128.9032307,43.0,44.0
434,128.38782964166668,129.30658805000002,48.0,82.0
435,128.38782964166668,129.36362848333334,60.0,85.0
436,128.87674764166667,129.40233449166666,55.0,100.0
437,128.38782964166668,129.40233449166666,64.0,82.0
438,129.85458364166666,130.66129834166668,48.0,59.0
439,129.36566564166668,130.68574424166667,41.0,85.0
440,130.34350164166668,130.86705133333334,53.0,88.0
441,130.34350164166668,131.30300321666667,65.0,89.0
442,130.34350164166668,131.31522616666666,69.0,92.0
443,130.83241964166666,131.40282397500002,60.0,93.0
444,131.81025564166669,132.37862281666668,57.0,89.0
445,131.32133764166667,132.62511897500002,49.0,117.0
446,132.29917364166667,133.25663805833335,61.0,100.0
447,132.29917364166667,133.28312111666668,64.0,88.0
448,132.78809164166668,133.3523845,57.0,92.0
449,133.76592764166668,134.63986856666668,45.0,52.0
450,133.27700964166667,134.76820954166666,38.0,73.0
451,134.25484564166666,134.947479475,50.0,58.0
452,134.25484564166666,135.191938475,62.0,89.0
453,134.25484564166666,135.21638437500002,65.0,85.0
454,134.74376364166667,135.301945025,57.0,81.0
455,135.72159964166667,136.32663566666668,55.0,86.0
456,135.2326816416667,136.878705575,48.0,69.0
457,136.21051764166668,136.93370885000002,60.0,83.0
458,136.21051764166668,136.93370885000002,64.0,85.0
459,136.69943564166667,137.2066880666667,55.0,69.0
460,137.67727164166666,138.20082133333335,58.0,81.0
461,138.65510764166666,138.67751638333334,66.0,47.0
462,137.18835364166668,138.78752293333335,46.0,92.0
463,138.65510764166666,139.15828575,58.0,89.0
464,138.16618964166668,139.188843125,62.0,90.0
465,138.65510764166666,139.19088028333334,65.0,37.0
466,139.14402564166667,139.65738954166667,45.0,77.0
467,139.63294364166669,140.203347975,57.0,92.0
468,140.12186164166667,140.68208018333334,38.0,76.0
469,140.61077964166668,141.15470091666668,62.0,82.0
470,141.58861564166668,142.354587175,50.0,68.0
471,141.09969764166667,142.46051940833334,43.0,76.0
472,142.07753364166666,143.00647784166668,62.0,72.0
473,142.07753364166666,143.01258931666666,58.0,85.0
474,142.56645164166667,143.14093029166668,55.0,90.0
475,143.54428764166667,144.5974985,43.0,40.0
476,143.0553696416667,144.60972145,36.0,89.0
477,144.03320564166668,144.7930657,64.0,78.0
478,144.03320564166668,144.81343728333334,60.0,88.0
479,144.52212364166667,144.91325804166667,55.0,76.0
480,144.03320564166668,144.945852575,48.0,66.0
481,145.01104164166668,145.83609076666667,62.0,92.0
482,145.01104164166668,145.84220224166668,55.0,88.0
483,145.01104164166668,145.84423940000002,59.0,96.0
484,145.49995964166666,146.19463063333333,50.0,58.0
485,145.98887764166668,146.60409945833334,62.0,112.0
486,145.98887764166668,146.73244043333335,55.0,107.0
487,145.01104164166668,146.8689300416667,43.0,73.0
488,145.98887764166668,146.8689300416667,59.0,127.0
489,146.4777956416667,147.00541965000002,50.0,85.0
490,146.96671364166667,147.72657370000002,64.0,92.0
491,146.96671364166667,147.75305675833334,57.0,90.0
492,146.96671364166667,147.79583708333334,61.0,102.0
493,147.45563164166668,147.964921225,52.0,79.0
494,148.18900864166667,148.35401846666667,52.0,99.0
495,146.96671364166667,148.38253868333334,45.0,93.0
496,147.94454964166667,148.91627416666668,61.0,127.0
497,147.94454964166667,148.94683154166668,64.0,102.0
498,148.43346764166668,149.04868945833334,57.0,102.0
499,149.41130364166668,150.09171452500001,50.0,79.0
500,149.90022164166666,150.53581504166667,62.0,93.0
501,148.92238564166666,150.79860846666668,38.0,90.0
502,149.16684464166667,150.93306091666668,45.0,79.0
503,150.14468064166667,151.1652969666667,50.0,58.0
504,149.90022164166666,151.63180622500002,65.0,93.0
505,150.63359864166668,151.64199201666668,62.0,97.0
506,150.38913964166667,151.73570130000002,57.0,90.0
507,150.8780576416667,152.16554170833334,38.0,83.0
508,151.36697564166667,152.23887940833333,45.0,64.0
509,152.1003526416667,152.4935242,50.0,93.0
510,151.85589364166668,152.542416,65.0,127.0
511,152.34481164166667,152.65038539166667,62.0,127.0
512,152.58927064166667,152.89280723333334,57.0,92.0
513,152.83372964166668,153.49988041666668,62.0,100.0
514,152.83372964166668,153.66692740000002,59.0,107.0
515,153.32264764166666,153.92564650833333,50.0,46.0
516,153.81156564166668,154.19455140833335,62.0,122.0
517,153.81156564166668,154.35752407500001,55.0,100.0
518,152.83372964166668,154.44104756666667,43.0,93.0
519,153.81156564166668,154.650874875,59.0,112.0
520,154.3004836416667,154.74050984166666,50.0,92.0
521,154.78940164166667,155.57574475833334,62.0,99.0
522,154.78940164166667,155.5961163416667,65.0,93.0
523,154.78940164166667,155.61445076666666,59.0,107.0
524,155.27831964166668,156.10336876666668,53.0,75.0
525,156.25615564166668,156.39468240833335,53.0,78.0
526,154.78940164166667,156.42523978333335,47.0,79.0
527,155.76723764166667,156.44968568333334,65.0,100.0
528,155.76723764166667,156.45783431666666,62.0,117.0
529,155.76723764166667,156.6248813,59.0,96.0
530,156.74507364166666,157.37862988333333,60.0,107.0
531,157.47845064166668,157.57215992500002,60.0,29.0
532,156.74507364166666,157.58234571666668,64.0,97.0
533,157.7229096416667,157.78402439166666,48.0,28.0
534,157.96736864166667,158.20164185000002,48.0,95.0
535,157.7229096416667,158.24645933333335,60.0,112.0
536,156.74507364166666,158.42369210833334,36.0,92.0
537,157.7229096416667,158.537772975,64.0,117.0
538,158.21182764166667,158.57240466666667,55.0,102.0
539,158.45628664166668,158.61111067500002,60.0,86.0
540,157.23399164166668,158.62129646666668,43.0,83.0
541,158.70074564166669,159.18762648333333,48.0,86.0
542,158.70074564166669,159.2405926,64.0,97.0
543,158.70074564166669,159.2405926,67.0,102.0
544,159.18966364166667,159.564500775,60.0,117.0
545,159.67858164166668,160.23676302500002,45.0,100.0
546,159.67858164166668,160.54641109166667,57.0,112.0
547,159.67858164166668,160.57289415,60.0,97.0
548,159.67858164166668,160.58511710000002,64.0,96.0
549,160.90087664166668,161.64647659166667,58.0,93.0
550,161.38979464166667,161.65258806666668,65.0,100.0
551,161.14533564166666,161.68721975833336,62.0,95.0
552,161.87871264166668,162.00705361666667,58.0,112.0
553,160.65641764166668,162.03964815,46.0,107.0
554,161.63425364166667,162.43689402500002,70.0,127.0
555,162.1231716416667,162.571346475,65.0,99.0
556,162.36763064166666,162.62227543333333,62.0,102.0
557,163.10100764166668,163.69178355833336,48.0,92.0
558,163.3454666416667,163.70400650833335,55.0,100.0
559,162.61208964166667,164.07884364166668,36.0,70.0
560,162.85654864166668,164.08088080000002,43.0,61.0
561,163.83438464166667,164.24589062500002,48.0,96.0
562,164.3233026416667,164.55350153333333,55.0,100.0
563,163.58992564166667,164.5697988,64.0,112.0
564,164.07884364166668,164.57183595833334,60.0,117.0
565,165.05667964166668,165.66578998333335,57.0,97.0
566,165.30113864166668,165.73912768333335,60.0,99.0
567,165.79005664166667,165.96117794166668,57.0,96.0
568,164.81222064166667,166.00395826666667,52.0,77.0
569,164.56776164166666,166.05285006666668,45.0,83.0
570,165.5455976416667,166.42972435833335,69.0,100.0
571,166.03451564166667,166.49695058333333,64.0,95.0
572,166.27897464166668,166.56213965,60.0,102.0
573,167.01235164166667,167.6010904,50.0,99.0
574,167.25681064166668,167.7233199,57.0,112.0
575,166.52343364166668,167.949444475,38.0,78.0
576,166.76789264166666,167.96981605833335,45.0,74.0
577,167.7457286416667,168.36706193333333,50.0,100.0
578,167.99018764166667,168.462808375,62.0,107.0
579,167.50126964166668,168.47299416666667,65.0,127.0
580,168.23464664166667,168.4852171166667,57.0,112.0
581,168.96802364166666,169.57713398333334,55.0,97.0
582,169.21248264166667,169.7197350666667,62.0,100.0
583,169.70140064166668,169.87659625833334,55.0,97.0
584,168.72356464166668,169.91530226666669,50.0,78.0
585,168.47910564166668,169.9764170166667,43.0,96.0
586,169.45694164166667,170.2656935,70.0,117.0
587,169.9458596416667,170.41644321666666,67.0,117.0
588,170.19031864166666,170.46533501666667,62.0,112.0
589,170.92369564166668,171.54910325,48.0,70.0
590,171.1681546416667,171.714113075,55.0,100.0
591,170.67923664166668,171.90560595833335,43.0,77.0
592,170.43477764166667,171.90764311666666,36.0,93.0
593,171.65707264166667,172.28248025000002,48.0,97.0
594,171.90153164166668,172.33952068333335,60.0,122.0
595,171.41261364166667,172.34155784166668,64.0,112.0
596,172.14599064166669,172.35581795000002,55.0,122.0
597,172.87936764166668,173.46403208333334,53.0,100.0
598,173.85720364166667,174.19129760833334,67.0,107.0
599,172.39044964166666,174.244263725,41.0,93.0
600,173.61274464166667,174.3338986916667,53.0,97.0
601,172.63490864166667,174.38482765,48.0,85.0
602,173.3682856416667,174.42149650000002,69.0,122.0
603,173.12382664166668,174.94300903333334,60.0,107.0
604,174.10166264166668,175.03671831666668,65.0,127.0
605,175.07949864166667,175.16098497500002,65.0,39.0
606,174.83503964166667,175.47470735833335,53.0,117.0
607,174.34612164166668,175.72731499166667,41.0,88.0
608,175.07949864166667,175.7639838416667,60.0,99.0
609,174.59058064166666,175.79250405833335,48.0,102.0
610,175.5684166416667,175.85158165,53.0,102.0
611,175.32395764166668,176.15308108333335,69.0,122.0
612,175.81287564166666,176.28753353333335,65.0,127.0
613,176.05733464166667,176.32012806666668,60.0,112.0
614,176.7907116416667,177.312224175,58.0,97.0
615,177.03517064166667,177.42630504166667,62.0,99.0
616,176.54625264166668,177.73799026666669,53.0,69.0
617,176.30179364166668,177.82355091666668,46.0,100.0
618,177.52408864166668,177.8296623916667,58.0,102.0
619,177.27962964166667,178.14134761666668,70.0,127.0
620,177.7685476416667,178.22283395000002,65.0,93.0
621,178.01300664166666,178.27580006666668,62.0,107.0
622,178.74638364166668,179.06214318333335,60.0,100.0
623,178.9908426416667,179.2862306,64.0,102.0
624,178.50192464166668,179.42068305,55.0,72.0
625,179.47976064166667,179.68143931666668,55.0,81.0
626,178.25746564166667,179.77107428333335,48.0,73.0
627,179.72421964166668,179.94423274166667,64.0,127.0
628,179.23530164166667,179.94423274166667,67.0,127.0
629,180.70205564166668,181.05448403333335,57.0,99.0
630,180.94651464166668,181.23986544166667,61.0,122.0
631,180.45759664166667,181.33968620000002,52.0,89.0
632,181.43543264166667,181.57395940833334,52.0,89.0
633,180.21313764166666,181.66970585,45.0,82.0
634,181.1909736416667,182.02009708333335,64.0,117.0
635,181.67989164166667,182.03232003333335,61.0,127.0
636,181.92435064166668,182.37048831666667,57.0,117.0
637,182.65772764166667,183.264800825,50.0,93.0
638,182.90218664166667,183.4522193916667,57.0,99.0
639,182.16880964166668,183.545928675,38.0,74.0
640,182.4132686416667,183.59278331666667,45.0,83.0
641,183.3911046416667,183.99206635000002,50.0,99.0
642,183.14664564166668,184.07558984166667,65.0,122.0
643,183.63556364166666,184.10614721666667,62.0,122.0
644,183.88002264166667,184.1265188,57.0,102.0
645,184.6133996416667,184.97805098333333,55.0,90.0
646,184.85785864166667,185.1288007,58.0,112.0
647,184.36894064166668,185.22250998333334,50.0,75.0
648,185.34677664166668,185.52400941666667,50.0,83.0
649,184.12448164166668,185.61975585833335,43.0,82.0
650,185.59123564166669,185.94773835,58.0,127.0
651,185.10231764166667,185.95181266666668,62.0,107.0
652,185.83569464166666,186.11682249166668,55.0,102.0
653,186.8135306416667,187.04372953333333,60.0,112.0
654,186.56907164166668,187.163921875,48.0,97.0
655,186.08015364166667,187.5733907,36.0,88.0
656,186.32461264166668,187.58765080833334,43.0,83.0
657,187.30244864166667,187.97063657500001,48.0,92.0
658,187.54690764166668,187.99304531666667,60.0,107.0
659,187.05798964166667,188.007305425,64.0,107.0
660,187.79136664166668,188.02971416666668,55.0,100.0
661,188.0358256416667,188.27009885,64.0,97.0
662,188.0358256416667,188.28639611666668,60.0,95.0
663,188.0358256416667,188.28639611666668,67.0,89.0
664,188.0358256416667,188.30880485833333,36.0,88.0
665,189.0136616416667,189.93649436666666,58.0,127.0
666,189.0136616416667,189.99557195833336,46.0,112.0
667,189.99149764166668,190.85117845833335,61.0,127.0
668,189.99149764166668,190.88988446666667,49.0,127.0
669,190.96933364166668,191.900315,56.0,122.0
670,190.96933364166668,191.91457510833334,68.0,127.0
671,192.19162864166668,192.93722859166667,59.0,93.0
672,192.68054664166667,192.94334006666668,66.0,100.0
673,192.4360876416667,192.97797175833335,63.0,95.0
674,193.16946464166668,193.29780561666666,59.0,112.0
675,191.94716964166668,193.33040015,47.0,107.0
676,192.92500564166667,193.727646025,71.0,127.0
677,193.41392364166668,193.862098475,66.0,99.0
678,193.6583826416667,193.91302743333335,63.0,102.0
679,194.39175964166668,194.98253555833335,49.0,92.0
680,194.6362186416667,194.99475850833335,56.0,100.0
681,193.90284164166667,195.36959564166668,37.0,70.0
682,194.14730064166667,195.37163280000001,44.0,61.0
683,195.12513664166667,195.536642625,49.0,96.0
684,195.61405464166668,195.84425353333333,56.0,100.0
685,194.88067764166667,195.8605508,65.0,112.0
686,195.36959564166668,195.86258795833334,61.0,117.0
687,196.34743164166667,196.95654198333335,58.0,97.0
688,196.59189064166668,197.02987968333335,61.0,99.0
689,197.08080864166666,197.25192994166667,58.0,96.0
690,196.10297264166667,197.29471026666667,53.0,77.0
691,195.8585136416667,197.34360206666668,46.0,83.0
692,196.8363496416667,197.72047635833334,70.0,100.0
693,197.32526764166667,197.78770258333336,65.0,95.0
694,197.56972664166668,197.85289165,61.0,102.0
695,198.30310364166667,198.8918424,51.0,99.0
696,198.54756264166667,199.0140719,58.0,112.0
697,197.81418564166668,199.240196475,39.0,78.0
698,198.0586446416667,199.26056805833335,46.0,74.0
699,199.03648064166669,199.65781393333336,51.0,100.0
700,199.2809396416667,199.753560375,63.0,107.0
701,198.79202164166668,199.76374616666666,66.0,127.0
702,199.52539864166667,199.7759691166667,58.0,112.0
703,200.2587756416667,200.86788598333334,56.0,97.0
704,200.50323464166667,201.01048706666668,63.0,100.0
705,200.99215264166668,201.16734825833333,56.0,97.0
706,200.01431664166668,201.20605426666668,51.0,78.0
707,199.76985764166668,201.26716901666668,44.0,96.0
708,200.74769364166667,201.55644550000002,71.0,117.0
709,201.23661164166668,201.7071952166667,68.0,117.0
710,201.4810706416667,201.75608701666667,63.0,112.0
711,202.21444764166668,202.83985525,49.0,70.0
712,202.4589066416667,203.004865075,56.0,100.0
713,201.96998864166667,203.19635795833335,44.0,77.0
714,201.72552964166667,203.1983951166667,37.0,93.0
715,202.94782464166667,203.57323225000002,49.0,97.0
716,203.19228364166668,203.63027268333335,61.0,122.0
717,202.70336564166666,203.63230984166668,65.0,112.0
718,203.43674264166668,203.64656995,56.0,122.0
719,204.17011964166667,204.75478408333333,54.0,100.0
720,205.14795564166667,205.48204960833334,68.0,107.0
721,203.6812016416667,205.53501572500002,42.0,93.0
722,204.90349664166666,205.6246506916667,54.0,97.0
723,203.92566064166667,205.67557965,49.0,85.0
724,204.65903764166669,205.71224850000002,70.0,122.0
725,204.41457864166668,206.23376103333334,61.0,107.0
726,205.39241464166668,206.32747031666668,66.0,127.0
727,206.37025064166667,206.45173697500002,66.0,39.0
728,206.12579164166667,206.76545935833335,54.0,117.0
729,205.63687364166668,207.01806699166667,42.0,88.0
730,206.37025064166667,207.05473584166668,61.0,99.0
731,205.8813326416667,207.08325605833335,49.0,102.0
732,206.85916864166668,207.14233365,54.0,102.0
733,206.61470964166668,207.44383308333335,70.0,122.0
734,207.1036276416667,207.57828553333334,66.0,127.0
735,207.34808664166667,207.61088006666668,61.0,112.0
736,208.0814636416667,208.602976175,59.0,97.0
737,208.32592264166666,208.7170570416667,63.0,99.0
738,207.83700464166668,209.02874226666668,54.0,69.0
739,207.59254564166667,209.11430291666667,47.0,100.0
740,208.81484064166668,209.12041439166669,59.0,102.0
741,208.57038164166667,209.43209961666668,71.0,127.0
742,209.05929964166668,209.51358595000002,66.0,93.0
743,209.3037586416667,209.56655206666667,63.0,107.0
744,210.03713564166668,210.35289518333335,61.0,100.0
745,210.2815946416667,210.5769826,65.0,102.0
746,209.79267664166667,210.71143505,56.0,72.0
747,210.77051264166667,210.97219131666668,56.0,81.0
748,209.54821764166667,211.06182628333335,49.0,73.0
749,211.01497164166668,211.23498474166666,65.0,127.0
750,210.52605364166666,211.23498474166666,68.0,127.0
751,211.99280764166667,212.34523603333335,58.0,99.0
752,212.23726664166668,212.5306174416667,62.0,122.0
753,211.74834864166667,212.63043820000001,53.0,89.0
754,212.7261846416667,212.86471140833333,53.0,89.0
755,211.5038896416667,212.96045785,46.0,82.0
756,212.48172564166669,213.31084908333335,65.0,117.0
757,212.97064364166667,213.32307203333335,62.0,127.0
758,213.21510264166668,213.6612403166667,58.0,117.0
759,213.94847964166667,214.555552825,51.0,93.0
760,214.19293864166667,214.74297139166669,58.0,99.0
761,213.45956164166668,214.83668067500003,39.0,74.0
762,213.7040206416667,214.88353531666667,46.0,83.0
763,214.68185664166668,215.28281835,51.0,99.0
764,214.43739764166668,215.36634184166667,66.0,122.0
765,214.9263156416667,215.39689921666667,63.0,122.0
766,215.17077464166667,215.4172708,58.0,102.0
767,215.9041516416667,216.26880298333336,56.0,90.0
768,216.14861064166666,216.41955270000003,59.0,112.0
769,215.65969264166668,216.51326198333334,51.0,75.0
770,216.63752864166668,216.81476141666667,51.0,83.0
771,215.41523364166667,216.91050785833335,44.0,82.0
772,216.88198764166668,217.23849035,59.0,127.0
773,216.39306964166667,217.24256466666668,63.0,107.0
774,217.1264466416667,217.40757449166668,56.0,102.0
775,218.10428264166669,218.33448153333333,61.0,112.0
776,217.85982364166668,218.45467387500003,49.0,97.0
777,217.37090564166667,218.8641427,37.0,88.0
778,217.61536464166667,218.87840280833333,44.0,83.0
779,218.59320064166667,219.261388575,49.0,92.0
780,218.83765964166668,219.28379731666666,61.0,107.0
781,218.3487416416667,219.29805742500002,65.0,107.0
782,219.08211864166668,219.32046616666668,56.0,100.0
783,220.30441364166668,220.78722016666669,59.0,79.0
784,219.3265776416667,220.80962890833334,47.0,83.0
785,220.30441364166668,220.82796333333334,63.0,99.0
786,219.81549564166667,220.85648355,54.0,67.0
787,220.79333164166667,221.718201525,66.0,127.0
788,222.26008564166668,222.90179051666667,61.0,102.0
789,222.26008564166668,222.93031073333336,58.0,83.0
790,221.77116764166666,222.95475663333335,53.0,69.0
791,221.28224964166668,222.98531400833335,46.0,83.0
792,222.7490036416667,223.29699923333334,65.0,81.0
793,223.7268396416667,224.56818603333335,56.0,92.0
794,223.23792164166667,224.712824275,44.0,95.0
795,224.70467564166668,225.24859691666668,63.0,112.0
796,224.21575764166667,225.26081986666668,59.0,97.0
797,225.19359364166667,226.61960447500002,37.0,99.0
798,225.68251164166668,226.84572905000002,49.0,97.0
799,226.1714296416667,227.15537711666667,56.0,127.0
800,226.66034764166668,227.16352575000002,53.0,75.0
801,228.569165,229.12123490833335,58.0,79.0
802,229.06012015833335,229.61830154166668,61.0,73.0
803,229.56737258333334,229.84238895833334,66.0,82.0
804,230.054253425,230.59002606666667,70.0,88.0
805,230.55132005833335,230.65114081666667,73.0,76.0
806,227.591329,233.88818540833336,49.0,55.0
807,228.074135525,233.90651983333333,54.0,97.0
808,227.1492656416667,234.10616135,42.0,89.0
809,231.12987302500002,234.20394495000002,82.0,44.0
810,231.1848763,234.2202422166667,85.0,63.0
811,231.29692000833336,234.22839085,90.0,83.0
812,231.07079543333336,234.23246516666669,78.0,58.0
