,start,end,pitch,velocity
0,14.177870437499998,14.416652249999999,71.0,74.0
1,14.562485437499998,14.769215999999998,71.0,76.0
2,14.947100437499998,15.399023062499998,71.0,74.0
3,15.331715437499998,15.687484312499999,73.0,81.0
4,15.716330437499998,16.39100925,71.0,87.0
5,16.4855604375,17.2948545,66.0,86.0
6,17.6394054375,17.932674374999998,71.0,77.0
7,18.0240204375,18.304468874999998,71.0,69.0
8,18.4086354375,18.738763312499998,73.0,81.0
9,18.7932504375,19.464724124999996,71.0,86.0
10,19.562480437499996,20.410235999999998,68.0,69.0
11,20.331710437499996,21.153824999999998,71.0,71.0
12,21.100940437499997,21.520811812499996,68.0,74.0
13,21.485555437499997,21.874978125,70.0,68.0
14,21.870170437499997,25.562474437499997,66.0,71.0
15,26.485550437499995,26.631383624999998,71.0,61.0
16,26.870165437499995,27.049652437499997,71.0,69.0
17,27.254780437499996,27.71151075,71.0,63.0
18,27.639395437499996,28.056061687499998,73.0,74.0
19,28.024010437499996,28.822086562499997,76.0,87.0
20,28.793240437499996,29.528816624999997,75.0,74.0
21,29.562470437499996,30.177854437499995,71.0,75.0
22,30.331700437499997,30.762789749999996,71.0,63.0
23,30.716315437499997,31.081699687499995,73.0,76.0
24,31.100930437499997,31.588109437499998,71.0,79.0
25,31.870160437499997,32.346121499999995,68.0,66.0
26,32.6393904375,33.733940624999995,71.0,77.0
27,33.4086204375,33.844517437499995,73.0,64.0
28,34.1778504375,35.176246875,75.0,59.0
29,34.9470804375,35.2643878125,70.0,68.0
30,35.7163104375,36.546437812499995,70.0,71.0
31,36.4855404375,37.6794495,71.0,79.0
32,38.79323043749999,38.9342559375,71.0,63.0
33,39.1778454375,39.304447874999994,71.0,67.0
34,39.56246043749999,39.918229312499996,71.0,67.0
35,39.9470754375,40.362139125,73.0,67.0
36,40.331690437499994,40.985535937499996,71.0,74.0
37,41.100920437499994,41.87495812499999,66.0,73.0
38,42.2547654375,42.40861143749999,71.0,75.0
39,42.639380437499995,42.939059625,71.0,75.0
40,43.0239954375,43.286815687499995,73.0,74.0
41,43.408610437499995,43.8925843125,71.0,74.0
42,44.177840437499995,44.77559624999999,68.0,67.0
43,44.947070437499995,45.60892875,71.0,69.0
44,45.716300437499996,46.139376937499996,70.0,77.0
45,46.485530437499996,49.762770749999994,66.0,69.0
46,51.10091043749999,51.24033337499999,71.0,63.0
47,51.485525437499994,51.631358625,71.0,69.0
48,51.87014043749999,52.110524812499996,71.0,74.0
49,52.254755437499995,52.538408999999994,73.0,71.0
50,52.63937043749999,53.43424143749999,76.0,83.0
51,53.40860043749999,53.97109987499999,73.0,67.0
52,54.17783043749999,54.757958062499995,71.0,81.0
53,54.94706043749999,55.291611374999995,71.0,68.0
54,55.331675437499996,55.748341687499995,73.0,79.0
55,55.71629043749999,56.432635874999995,71.0,76.0
56,56.48552043749999,57.283596562499994,68.0,76.0
57,57.25475043749999,58.07686499999999,71.0,83.0
58,58.02398043749999,58.63615931249999,73.0,81.0
59,58.793210437499994,59.23551768749999,75.0,86.0
60,59.562440437499994,60.10570912499999,70.0,75.0
61,60.331670437499994,61.16500293749999,70.0,81.0
62,61.100900437499995,61.450259062499995,71.0,81.0
63,61.48551543749999,61.92622012499999,73.0,74.0
64,61.870130437499995,63.05282156249999,71.0,64.0
65,63.408590437499996,63.77076956249999,71.0,70.0
66,63.79320543749999,64.2194870625,78.0,87.0
67,64.17782043749999,64.93743506249999,75.0,70.0
68,64.9470504375,66.22589531249999,70.0,85.0
69,66.4855104375,66.84929212499999,70.0,62.0
70,66.8701254375,67.29320193749999,78.0,100.0
71,67.25474043749999,67.7387143125,75.0,64.0
72,68.0239704375,69.62012268749999,68.0,67.0
73,70.33166043749999,70.49512181249999,68.0,71.0
74,70.71627543749999,70.8669163125,68.0,64.0
75,71.1008904375,71.26114668749999,68.0,66.0
76,71.4855054375,71.9053768125,68.0,87.0
77,71.87012043749999,72.41499168749999,70.0,76.0
78,72.63935043749998,73.17300374999999,71.0,95.0
79,73.40858043749999,73.9310158125,76.0,81.0
80,74.17781043749999,75.67300124999998,75.0,79.0
81,75.71627043749999,76.07043674999998,75.0,73.0
82,76.1008854375,76.47267993749999,78.0,95.0
83,76.4855004375,77.256333,75.0,68.0
84,77.25473043749999,78.56562656249999,70.0,68.0
85,78.79319043749999,79.156972125,70.0,61.0
86,79.1778054375,79.57524093749998,78.0,87.0
87,79.5624204375,79.96947131249999,75.0,65.0
88,79.94703543749999,80.34447093749999,78.0,93.0
89,80.33165043749999,80.95825237499999,70.0,74.0
90,81.1008804375,82.17139218749999,68.0,73.0
91,84.1778004375,84.605684625,76.0,85.0
92,84.5624154375,84.92459456249999,75.0,65.0
93,84.94703043749999,85.3717095,71.0,68.0
94,85.13933793749999,85.58805543749999,76.0,72.0
95,85.69061943749999,86.1008754375,75.0,65.0
96,86.07523443749999,86.60568262499999,76.0,87.0
97,86.4598494375,87.52715606249998,78.0,81.0
98,100.33163043749998,100.4726559375,71.0,63.0
99,100.71624543749999,100.84284787499999,71.0,67.0
100,101.10086043749999,101.45662931249998,71.0,67.0
101,101.48547543749999,101.900539125,73.0,67.0
102,101.87009043749998,102.52393593749999,71.0,74.0
103,102.63932043749999,103.41335812499999,66.0,73.0
104,103.7931654375,103.9470114375,71.0,75.0
105,104.17778043749999,104.477459625,71.0,75.0
106,104.56239543749999,104.82521568749999,73.0,74.0
107,104.94701043749998,105.43098431249999,71.0,74.0
108,105.71624043749999,106.31399624999999,68.0,67.0
109,106.48547043749998,107.14732874999999,71.0,69.0
110,107.25470043749999,107.67777693749998,70.0,77.0
111,108.02393043749998,111.30117074999998,66.0,69.0
112,112.63931043749999,112.77873337499999,71.0,63.0
113,113.02392543749998,113.16975862499999,71.0,69.0
114,113.4085404375,113.64892481249998,71.0,74.0
115,113.79315543749999,114.07680899999998,73.0,71.0
116,114.17777043749999,114.97264143749999,76.0,83.0
117,114.94700043749998,115.50949987499999,73.0,67.0
118,115.71623043749999,116.29635806249999,71.0,81.0
119,116.48546043749998,116.83001137499998,71.0,68.0
120,116.87007543749999,117.28674168749998,73.0,79.0
121,117.25469043749999,117.97103587499998,71.0,76.0
122,118.02392043749998,118.82199656249999,68.0,76.0
123,118.79315043749999,119.61526499999998,71.0,83.0
124,119.56238043749998,120.17455931249998,73.0,81.0
125,120.33161043749999,120.77391768749999,75.0,86.0
126,121.10084043749998,121.64410912499999,70.0,75.0
127,121.87007043749999,122.21942906249998,75.0,81.0
128,122.63930043749998,123.08000512499999,73.0,74.0
129,123.40853043749999,124.59122156249998,71.0,64.0
130,124.94699043749999,125.30916956249999,71.0,70.0
131,125.33160543749999,125.75788706249999,78.0,87.0
132,125.71622043749998,126.47583506249998,75.0,70.0
133,126.48545043749999,127.76429531249998,70.0,85.0
134,128.02391043749998,128.38769212499997,70.0,62.0
135,128.40852543749997,128.83160193749998,78.0,100.0
136,128.79314043749997,129.27711431249998,75.0,64.0
137,129.5623704375,131.15852268749998,68.0,67.0
138,131.87006043749997,132.0335218125,68.0,71.0
139,132.2546754375,132.4053163125,68.0,64.0
140,132.6392904375,132.7995466875,68.0,66.0
141,133.0239054375,133.44377681249998,68.0,87.0
142,133.4085204375,133.9533916875,70.0,76.0
143,134.17775043749998,134.71140375,71.0,95.0
144,134.94698043749997,135.4694158125,76.0,81.0
145,135.7162104375,137.21140125,75.0,79.0
146,137.25467043749998,137.60883675,75.0,73.0
147,137.63928543749998,138.01107993749997,78.0,95.0
148,138.02390043749998,138.79473299999998,75.0,68.0
149,138.7931304375,140.1040265625,70.0,68.0
150,140.33159043749998,140.69537212499998,70.0,61.0
151,140.71620543749998,141.11364093749998,78.0,87.0
152,141.10082043749998,141.5078713125,75.0,65.0
153,141.48543543749997,141.88287093749997,78.0,93.0
154,141.8700504375,142.496652375,70.0,74.0
155,142.6392804375,143.70979218749997,68.0,73.0
156,145.7162004375,146.14408462499998,76.0,85.0
157,146.1008154375,146.46299456249997,75.0,65.0
158,146.48543043749999,146.91010949999998,71.0,68.0
159,146.87004543749998,147.3187629375,76.0,72.0
160,147.22901943749997,147.63927543749998,75.0,65.0
161,147.6136344375,148.14408262499998,76.0,87.0
162,148.0303006875,149.09760731249997,75.0,81.0
163,148.7931204375,149.94696543749998,71.0,74.0
164,149.94696543749998,150.362029125,71.0,74.0
165,150.33158043749998,150.714592875,73.0,75.0
166,150.71619543749998,151.09760531249998,71.0,73.0
167,151.10081043749997,151.83798918749997,75.0,98.0
168,151.8700404375,152.8075395,70.0,93.0
169,153.02388543749998,153.438949125,70.0,108.0
170,153.40850043749998,153.78189749999999,71.0,85.0
171,153.79311543749998,154.2258073125,73.0,71.0
172,154.17773043749997,155.00625524999998,75.0,75.0
173,154.9469604375,155.12163974999999,71.0,61.0
174,155.3315754375,155.487024,71.0,75.0
175,155.7161904375,156.06715162499998,71.0,74.0
176,156.1008054375,156.4373435625,80.0,108.0
177,156.48542043749998,157.0527275625,78.0,117.0
178,157.25465043749998,157.63926543749997,73.0,98.0
179,157.63926543749997,158.95977693749998,71.0,72.0
180,159.1777254375,159.56554556249998,71.0,74.0
181,159.56234043749998,159.95977593749998,73.0,69.0
182,159.94695543749998,160.3540063125,71.0,74.0
183,160.33157043749998,161.06554406249998,75.0,93.0
184,161.10080043749997,161.272274625,71.0,68.0
185,161.4854154375,161.7257998125,71.0,85.0
186,161.8700304375,162.0382995,71.0,70.0
187,162.2546454375,162.4277221875,71.0,74.0
188,162.63926043749998,162.7834910625,68.0,74.0
189,163.02387543749998,163.29470849999998,71.0,83.0
190,163.40849043749998,165.1232323125,70.0,104.0
191,165.3315654375,165.73701375,71.0,93.0
192,165.7161804375,166.07515443749998,73.0,73.0
193,166.10079543749998,166.54951293749997,71.0,79.0
194,166.48541043749998,167.07835856249997,75.0,104.0
195,167.25464043749997,167.3924608125,71.0,69.0
196,167.63925543749997,167.78829374999998,71.0,93.0
197,168.0238704375,168.16810106249997,71.0,85.0
198,168.4084854375,168.69374156249998,71.0,111.0
199,168.7931004375,169.22418975,73.0,73.0
200,169.17771543749998,169.43412543749997,75.0,77.0
201,169.56233043749998,170.3796373125,76.0,111.0
202,170.71617543749997,171.10880325,75.0,85.0
203,171.10079043749997,172.00463568749998,76.0,83.0
204,172.25463543749999,172.61681456249997,75.0,98.0
205,172.63925043749998,175.6841191875,78.0,117.0
206,175.71617043749998,177.03507937499998,82.0,100.0
207,177.25463043749997,177.6392454375,78.0,112.0
208,178.0238604375,178.39405237499997,76.0,87.0
209,178.4084754375,178.80751349999997,75.0,90.0
210,178.79309043749998,181.1168060625,76.0,104.0
211,181.87001043749999,182.23379212499998,68.0,74.0
212,182.25462543749998,182.97417599999997,76.0,87.0
213,183.02385543749998,183.2353936875,75.0,77.0
214,183.40847043749997,183.93731606249997,76.0,81.0
215,184.1777004375,184.70013581249998,78.0,108.0
216,184.9469304375,186.22898043749998,75.0,98.0
217,186.48539043749997,186.87000543749997,75.0,79.0
218,186.87000543749997,187.29147937499997,78.0,90.0
219,187.25462043749997,187.91647874999998,75.0,81.0
220,188.0238504375,189.26263124999997,70.0,95.0
221,189.56231043749997,190.02064331249997,70.0,77.0
222,189.94692543749997,190.4373095625,78.0,93.0
223,190.33154043749997,190.55910431249998,75.0,71.0
224,190.7161554375,190.9821808125,78.0,95.0
225,191.1007704375,191.57352637499997,70.0,85.0
226,191.87000043749998,194.51422856249997,68.0,74.0
227,194.94692043749998,195.41647124999997,76.0,74.0
228,195.33153543749998,195.70813762499998,75.0,68.0
229,195.71615043749998,196.20332943749997,71.0,63.0
230,196.10076543749997,196.5334573125,76.0,72.0
231,196.48538043749997,196.91326462499998,75.0,74.0
232,196.86999543749997,197.2129438125,76.0,95.0
233,197.2546104375,202.11037481249997,75.0,86.0
234,202.25460543749998,202.83313049999998,70.0,83.0
235,203.02383543749997,203.24178393749997,71.0,85.0
236,203.40845043749997,204.14242406249997,71.0,90.0
237,204.1776804375,206.717742,68.0,75.0
