,start,end,pitch,velocity
0,3.8675,3.9562500000000003,79.0,75.0
1,3.8675,3.9725,72.0,75.0
2,4.1675,4.2275,72.0,71.0
3,4.1675,4.24,79.0,65.0
4,4.3175,4.3975,72.0,72.0
5,4.3175,4.3975,79.0,75.0
6,4.4675,4.61,72.0,80.0
7,4.4675,4.61125,79.0,80.0
8,6.2675,6.35625,79.0,75.0
9,6.2675,6.3725000000000005,72.0,75.0
10,6.5675,6.6275,72.0,71.0
11,6.5675,6.640000000000001,79.0,65.0
12,6.7175,6.7975,72.0,72.0
13,6.7175,6.7975,79.0,75.0
14,6.8675,7.01,72.0,80.0
15,6.8675,7.01125,79.0,80.0
16,8.6675,8.75625,79.0,75.0
17,8.6675,8.7725,72.0,75.0
18,8.9675,9.0275,72.0,71.0
19,8.9675,9.040000000000001,79.0,65.0
20,9.1175,9.1975,72.0,72.0
21,9.1175,9.1975,79.0,75.0
22,9.2675,9.41,72.0,80.0
23,9.2675,9.41125,79.0,80.0
24,11.0675,11.15625,79.0,75.0
25,11.0675,11.1725,72.0,75.0
26,11.3675,11.4275,72.0,71.0
27,11.3675,11.44,79.0,65.0
28,11.5175,11.5975,72.0,72.0
29,11.5175,11.5975,79.0,75.0
30,11.6675,11.81,72.0,80.0
31,11.6675,11.81125,79.0,80.0
32,12.5675,12.685,72.0,85.0
33,12.8675,13.061250000000001,74.0,95.0
34,13.0175,13.15375,72.0,84.0
35,13.1675,13.335,69.0,78.0
36,13.467500000000001,13.685,72.0,81.0
37,13.467500000000001,13.69875,69.0,79.0
38,13.7675,13.8375,72.0,76.0
39,13.7675,13.84125,69.0,70.0
40,13.9175,13.975,69.0,69.0
41,13.9175,13.99125,72.0,77.0
42,14.0675,14.22625,72.0,83.0
43,14.0675,14.22875,69.0,82.0
44,14.3675,14.4975,69.0,83.0
45,14.6675,14.85125,71.0,86.0
46,14.967500000000001,15.10875,71.0,82.0
47,15.1175,15.26,72.0,73.0
48,15.2675,15.5675,71.0,70.0
49,15.5675,15.717500000000001,69.0,68.0
50,15.717500000000001,15.8025,67.0,80.0
51,15.8675,16.09,72.0,77.0
52,15.8675,16.1025,69.0,75.0
53,15.8675,16.11,79.0,75.0
54,16.1675,16.24125,69.0,68.0
55,16.1675,16.2425,72.0,75.0
56,16.1675,16.2575,79.0,74.0
57,16.3175,16.3875,69.0,68.0
58,16.3175,16.392500000000002,72.0,76.0
59,16.4675,16.5675,72.0,79.0
60,16.4675,16.57875,69.0,76.0
61,16.4675,16.595,79.0,77.0
62,17.0675,17.486250000000002,67.0,76.0
63,17.0675,17.5025,71.0,82.0
64,17.517500000000002,17.69125,72.0,74.0
65,17.6675,17.86,71.0,77.0
66,17.8175,17.9725,72.0,80.0
67,17.9675,18.14125,74.0,82.0
68,18.1175,18.2225,72.0,86.0
69,18.267500000000002,18.490000000000002,72.0,77.0
70,18.267500000000002,18.5025,69.0,75.0
71,18.267500000000002,18.51,79.0,75.0
72,18.5675,18.64125,69.0,68.0
73,18.5675,18.642500000000002,72.0,75.0
74,18.5675,18.6575,79.0,74.0
75,18.7175,18.7875,69.0,68.0
76,18.7175,18.7925,72.0,76.0
77,18.8675,18.9675,72.0,79.0
78,18.8675,18.97875,69.0,76.0
79,18.8675,18.995,79.0,77.0
80,19.4675,19.9375,71.0,81.0
81,19.9175,20.08875,72.0,80.0
82,20.0675,20.2575,74.0,79.0
83,20.2175,20.39125,72.0,76.0
84,20.3675,20.51375,69.0,72.0
85,20.6675,20.83625,69.0,83.0
86,20.9675,21.083750000000002,72.0,81.0
87,21.267500000000002,21.3825,69.0,80.0
88,21.267500000000002,21.46625,74.0,87.0
89,21.4175,21.5625,72.0,81.0
90,21.5675,21.69375,69.0,82.0
91,21.8675,22.025000000000002,74.0,85.0
92,22.1675,22.28375,72.0,77.0
93,22.4675,22.64125,74.0,92.0
94,22.6175,22.7425,72.0,78.0
95,22.767500000000002,22.89,69.0,85.0
96,22.9175,23.0075,72.0,77.0
97,23.0675,23.29,72.0,77.0
98,23.0675,23.302500000000002,69.0,75.0
99,23.0675,23.31,79.0,75.0
100,23.3675,23.44125,69.0,68.0
101,23.3675,23.4425,72.0,75.0
102,23.3675,23.4575,79.0,74.0
103,23.517500000000002,23.587500000000002,69.0,68.0
104,23.517500000000002,23.5925,72.0,76.0
105,23.6675,23.767500000000002,72.0,79.0
106,23.6675,23.77875,69.0,76.0
107,23.6675,23.795,79.0,77.0
108,24.267500000000002,24.41375,67.0,73.0
109,24.267500000000002,24.41625,71.0,80.0
110,24.5675,24.69625,67.0,72.0
111,24.5675,24.7025,71.0,81.0
112,24.8675,25.04625,72.0,82.0
113,25.017500000000002,25.18,71.0,76.0
114,25.1675,25.28125,72.0,82.0
115,25.3175,25.4675,74.0,81.0
116,25.4675,25.81875,69.0,81.0
117,25.4675,25.82875,72.0,82.0
118,25.9175,26.0425,72.0,82.0
119,25.9175,26.06875,69.0,81.0
120,26.2175,26.25625,69.0,70.0
121,26.2175,26.40625,72.0,80.0
122,26.3675,26.51625,69.0,84.0
123,26.6675,26.85625,71.0,82.0
124,26.9675,27.14875,72.0,82.0
125,27.267500000000002,27.47,71.0,83.0
126,27.4175,27.565,72.0,79.0
127,27.5675,27.67875,74.0,84.0
128,27.8675,28.21875,69.0,81.0
129,27.8675,28.22875,72.0,82.0
130,28.3175,28.4425,72.0,82.0
131,28.3175,28.46875,69.0,81.0
132,28.6175,28.65625,69.0,70.0
133,28.6175,28.806250000000002,72.0,80.0
134,28.767500000000002,28.91625,69.0,84.0
135,29.0675,29.25625,71.0,82.0
136,29.3675,29.548750000000002,72.0,82.0
137,29.6675,29.87,71.0,83.0
138,29.8175,29.965,72.0,79.0
139,29.9675,30.07875,74.0,84.0
140,30.28,30.44625,69.0,80.0
141,30.27375,30.45625,72.0,82.0
142,30.555,30.681250000000002,74.0,88.0
143,30.861250000000002,30.91,74.0,81.0
144,30.86625,31.055,76.0,92.0
145,31.01875,31.185000000000002,74.0,85.0
146,31.14375,31.29125,72.0,81.0
147,31.30125,31.431250000000002,69.0,83.0
148,31.4725,31.59875,72.0,90.0
149,31.767500000000002,31.94625,72.0,83.0
150,32.0675,32.24375,74.0,90.0
151,32.2175,32.3225,72.0,82.0
152,32.3675,32.52,69.0,80.0
153,32.9675,34.823750000000004,79.0,75.0
154,33.5675,34.92125,69.0,67.0
155,33.2675,35.1225,72.0,69.0
156,35.3675,36.24125,72.0,70.0
157,35.667500000000004,36.2675,69.0,63.0
158,36.2675,36.65375,81.0,82.0
159,36.7175,37.11875,79.0,82.0
160,37.167500000000004,37.50625,72.0,81.0
161,37.4675,38.667500000000004,69.0,77.0
162,38.0675,38.8175,76.0,75.0
163,38.3675,39.37625,81.0,76.0
164,40.167500000000004,40.581250000000004,69.0,68.0
165,40.4675,41.11625,76.0,77.0
166,41.0675,41.5175,81.0,81.0
167,41.5175,41.96,79.0,71.0
168,41.9675,42.2675,76.0,84.0
169,42.2675,42.5675,74.0,82.0
170,42.5675,42.86125,69.0,71.0
171,42.7175,43.167500000000004,77.0,75.0
172,43.167500000000004,43.46375,74.0,82.0
173,43.4675,43.948750000000004,83.0,81.0
174,43.917500000000004,44.4375,79.0,76.0
175,44.3675,44.667500000000004,76.0,81.0
176,44.667500000000004,44.9675,74.0,82.0
177,44.9675,45.261250000000004,69.0,71.0
178,45.1175,45.5675,77.0,75.0
179,45.5675,45.86375,74.0,82.0
180,45.8675,46.34875,83.0,81.0
181,46.3175,46.8375,79.0,76.0
182,46.7675,47.0675,76.0,81.0
183,47.3675,49.22375,79.0,75.0
184,47.9675,49.32125,69.0,67.0
185,47.667500000000004,49.5225,72.0,69.0
186,49.7675,50.64125,72.0,70.0
187,50.0675,50.667500000000004,69.0,63.0
188,50.667500000000004,51.05375,81.0,82.0
189,51.1175,51.518750000000004,79.0,82.0
190,51.5675,51.90625,72.0,81.0
191,52.167500000000004,54.02375,79.0,75.0
192,52.7675,54.12125,69.0,67.0
193,52.4675,54.3225,72.0,69.0
194,54.5675,55.441250000000004,72.0,70.0
195,54.8675,55.4675,69.0,63.0
196,55.4675,55.85375,81.0,82.0
197,55.917500000000004,56.31875,79.0,82.0
198,56.3675,56.706250000000004,72.0,81.0
199,56.667500000000004,57.8675,69.0,77.0
200,57.2675,58.0175,76.0,75.0
201,57.5675,58.57625,81.0,76.0
202,59.3675,59.78125,69.0,68.0
203,59.667500000000004,60.316250000000004,76.0,77.0
204,60.2675,60.7175,81.0,81.0
205,60.7175,61.160000000000004,79.0,71.0
206,61.167500000000004,61.4675,76.0,84.0
207,61.4675,61.7675,74.0,82.0
208,61.7675,62.06125,69.0,71.0
209,61.917500000000004,62.3675,77.0,75.0
210,62.3675,62.66375,74.0,82.0
211,62.667500000000004,63.14875,83.0,81.0
212,63.1175,63.6375,79.0,76.0
213,63.5675,63.8675,76.0,81.0
214,63.8675,64.1675,74.0,82.0
215,64.1675,64.46125,69.0,71.0
216,64.3175,64.7675,77.0,75.0
217,64.7675,65.06375,74.0,82.0
218,65.0675,65.54875,83.0,81.0
219,65.5175,66.0375,79.0,76.0
220,65.9675,66.2675,76.0,81.0
221,66.5675,68.42375,79.0,75.0
222,67.1675,68.52125,69.0,67.0
223,66.8675,68.7225,72.0,69.0
224,68.9675,69.84125,72.0,70.0
225,69.2675,69.8675,69.0,63.0
226,69.8675,70.25375,81.0,82.0
227,70.3175,70.71875,79.0,82.0
228,70.7675,71.10625,72.0,81.0
229,71.0675,71.10625,72.0,77.0
230,71.3675,73.32625,69.0,69.0
231,71.6675,73.33500000000001,72.0,73.0
232,71.9675,73.735,77.0,70.0
233,73.7675,74.46000000000001,74.0,78.0
234,74.0675,74.72125,67.0,69.0
235,74.3675,75.88625,79.0,78.0
236,74.6675,75.9975,74.0,75.0
237,74.9675,76.02,67.0,66.0
238,76.1675,76.83,71.0,70.0
239,76.4675,77.75125,67.0,68.0
240,76.7675,78.25625000000001,76.0,81.0
241,78.5675,79.02375,76.0,76.0
242,78.8675,79.3175,69.0,77.0
243,79.4675,79.865,73.0,68.0
244,79.7675,80.15875,69.0,81.0
245,80.0675,80.60125000000001,76.0,77.0
246,80.3675,80.74375,69.0,75.0
247,81.2675,82.27875,69.0,68.0
248,80.9675,82.2925,72.0,71.0
249,81.5675,82.39375,77.0,69.0
250,83.3675,84.035,74.0,74.0
251,83.6675,84.23125,67.0,72.0
252,83.9675,84.54625,79.0,81.0
253,84.2675,84.7275,74.0,82.0
254,84.5675,85.40125,67.0,75.0
255,84.8675,85.4325,74.0,76.0
256,85.7675,86.1725,74.0,81.0
257,86.3675,86.71375,77.0,78.0
258,86.6675,87.37375,74.0,75.0
259,86.0675,87.42,71.0,74.0
260,88.1675,88.62125,76.0,76.0
261,88.4675,89.08125,71.0,81.0
262,88.7675,89.19500000000001,80.0,74.0
263,89.0675,89.45875,76.0,75.0
264,89.3675,90.05,71.0,77.0
265,89.6675,90.08375,76.0,78.0
266,90.2675,90.66375000000001,72.0,77.0
267,90.5675,92.52625,69.0,69.0
268,90.8675,92.535,72.0,73.0
269,91.1675,92.935,77.0,70.0
270,92.9675,93.66,74.0,78.0
271,93.2675,93.92125,67.0,69.0
272,93.5675,95.08625,79.0,78.0
273,93.8675,95.1975,74.0,75.0
274,94.1675,95.22,67.0,66.0
275,95.3675,96.03,71.0,70.0
276,95.6675,96.95125,67.0,68.0
277,95.9675,97.45625,76.0,81.0
278,97.7675,98.22375,76.0,76.0
279,98.0675,98.5175,69.0,77.0
280,98.6675,99.065,73.0,68.0
281,98.9675,99.35875,69.0,81.0
282,99.2675,99.80125,76.0,77.0
283,99.5675,99.94375000000001,69.0,75.0
284,100.4675,101.47875,69.0,68.0
285,100.1675,101.4925,72.0,71.0
286,100.7675,101.59375,77.0,69.0
287,102.5675,103.235,74.0,74.0
288,102.8675,103.43125,67.0,72.0
289,103.1675,103.74625,79.0,81.0
290,103.4675,103.92750000000001,74.0,82.0
291,103.7675,104.60125000000001,67.0,75.0
292,104.0675,104.63250000000001,74.0,76.0
293,104.9675,105.62625,74.0,82.0
294,105.2675,106.0625,69.0,73.0
295,105.5675,106.37875,77.0,76.0
296,106.1675,106.7925,74.0,80.0
297,106.4675,106.83375000000001,69.0,73.0
298,106.7675,107.17625,77.0,70.0
299,107.0675,107.83875,76.0,76.0
300,107.6675,108.70625,71.0,70.0
301,107.9675,108.7925,76.0,76.0
302,108.8675,109.27375,68.0,61.0
303,109.1675,109.3775,71.0,72.0
304,109.4675,109.685,72.0,81.0
305,109.4675,109.69875,69.0,79.0
306,109.7675,109.8375,72.0,76.0
307,109.7675,109.84125,69.0,70.0
308,109.9175,109.97500000000001,69.0,69.0
309,109.9175,109.99125000000001,72.0,77.0
310,110.0675,110.22625000000001,72.0,83.0
311,110.0675,110.22875,69.0,82.0
312,110.3675,110.4975,69.0,83.0
313,110.6675,110.85125000000001,71.0,86.0
314,110.9675,111.10875,71.0,82.0
315,111.1175,111.26,72.0,73.0
316,111.2675,111.5675,71.0,70.0
317,111.5675,111.7175,69.0,68.0
318,111.7175,111.80250000000001,67.0,80.0
319,111.8675,112.09,72.0,77.0
320,111.8675,112.1025,69.0,75.0
321,111.8675,112.11,79.0,75.0
322,112.1675,112.24125000000001,69.0,68.0
323,112.1675,112.2425,72.0,75.0
324,112.1675,112.25750000000001,79.0,74.0
325,112.3175,112.3875,69.0,68.0
326,112.3175,112.3925,72.0,76.0
327,112.4675,112.5675,72.0,79.0
328,112.4675,112.57875,69.0,76.0
329,112.4675,112.595,79.0,77.0
330,113.0675,113.48625,67.0,76.0
331,113.0675,113.5025,71.0,82.0
332,113.5175,113.69125,72.0,74.0
333,113.6675,113.86,71.0,77.0
334,113.8175,113.9725,72.0,80.0
335,113.9675,114.14125,74.0,82.0
336,114.1175,114.2225,72.0,86.0
337,114.2675,114.49000000000001,72.0,77.0
338,114.2675,114.5025,69.0,75.0
339,114.2675,114.51,79.0,75.0
340,114.5675,114.64125,69.0,68.0
341,114.5675,114.6425,72.0,75.0
342,114.5675,114.6575,79.0,74.0
343,114.7175,114.78750000000001,69.0,68.0
344,114.7175,114.7925,72.0,76.0
345,114.8675,114.9675,72.0,79.0
346,114.8675,114.97875,69.0,76.0
347,114.8675,114.995,79.0,77.0
348,115.4675,115.9375,71.0,81.0
349,115.9175,116.08875,72.0,80.0
350,116.0675,116.25750000000001,74.0,79.0
351,116.2175,116.39125,72.0,76.0
352,116.3675,116.51375,69.0,72.0
353,116.6675,116.83625,69.0,83.0
354,116.9675,117.08375000000001,72.0,81.0
355,117.2675,117.38250000000001,69.0,80.0
356,117.2675,117.46625,74.0,87.0
357,117.4175,117.5625,72.0,81.0
358,117.5675,117.69375000000001,69.0,82.0
359,117.8675,118.025,74.0,85.0
360,118.1675,118.28375,72.0,77.0
361,118.4675,118.64125,74.0,92.0
362,118.6175,118.7425,72.0,78.0
363,118.7675,118.89,69.0,85.0
364,118.9175,119.00750000000001,72.0,77.0
365,119.3675,121.22375,79.0,75.0
366,119.9675,121.32125,69.0,67.0
367,119.6675,121.52250000000001,72.0,69.0
368,121.7675,122.64125,72.0,70.0
369,122.0675,122.6675,69.0,63.0
370,122.6675,123.05375000000001,81.0,82.0
371,123.1175,123.51875,79.0,82.0
372,123.56750000000001,123.90625,72.0,81.0
373,123.8675,125.06750000000001,69.0,77.0
374,124.4675,125.2175,76.0,75.0
375,124.7675,125.77625,81.0,76.0
376,126.56750000000001,126.98125,69.0,68.0
377,126.8675,127.51625,76.0,77.0
378,127.4675,127.9175,81.0,81.0
379,127.9175,128.36,79.0,71.0
380,128.3675,128.6675,76.0,84.0
381,128.6675,128.9675,74.0,82.0
382,128.9675,129.26125,69.0,71.0
383,129.1175,129.5675,77.0,75.0
384,129.5675,129.86375,74.0,82.0
385,129.8675,130.34875,83.0,81.0
386,130.3175,130.8375,79.0,76.0
387,130.7675,131.0675,76.0,81.0
388,131.0675,131.3675,74.0,82.0
389,131.3675,131.66125,69.0,71.0
390,131.5175,131.9675,77.0,75.0
391,131.9675,132.26375000000002,74.0,82.0
392,132.2675,132.74875,83.0,81.0
393,132.7175,133.2375,79.0,76.0
394,133.1675,133.4675,76.0,81.0
395,133.7675,135.62375,79.0,75.0
396,134.3675,135.72125,69.0,67.0
397,134.0675,135.9225,72.0,69.0
398,136.1675,137.04125,72.0,70.0
399,136.4675,137.0675,69.0,63.0
400,137.0675,137.45375,81.0,82.0
401,137.5175,137.91875000000002,79.0,82.0
402,137.9675,138.30625,72.0,81.0
403,138.2675,138.30625,72.0,77.0
404,138.5675,140.52625,69.0,69.0
405,138.8675,140.535,72.0,73.0
406,139.1675,140.935,77.0,70.0
407,140.9675,141.66,74.0,78.0
408,141.2675,141.92125000000001,67.0,69.0
409,141.5675,143.08625,79.0,78.0
410,141.8675,143.1975,74.0,75.0
411,142.1675,143.22,67.0,66.0
412,143.3675,144.03,71.0,70.0
413,143.6675,144.95125000000002,67.0,68.0
414,143.9675,145.45625,76.0,81.0
415,145.7675,146.22375,76.0,76.0
416,146.0675,146.5175,69.0,77.0
417,146.6675,147.065,73.0,68.0
418,146.9675,147.35875000000001,69.0,81.0
419,147.2675,147.80125,76.0,77.0
420,147.5675,147.94375,69.0,75.0
421,148.4675,149.47875,69.0,68.0
422,148.1675,149.4925,72.0,71.0
423,148.7675,149.59375,77.0,69.0
424,150.5675,151.235,74.0,74.0
425,150.8675,151.43125,67.0,72.0
426,151.1675,151.74625,79.0,81.0
427,151.4675,151.9275,74.0,82.0
428,151.7675,152.60125,67.0,75.0
429,152.0675,152.6325,74.0,76.0
430,152.9675,153.3725,74.0,81.0
431,153.5675,153.91375,77.0,78.0
432,153.8675,154.57375,74.0,75.0
433,153.2675,154.62,71.0,74.0
434,155.3675,155.82125,76.0,76.0
435,155.6675,156.28125,71.0,81.0
436,155.9675,156.395,80.0,74.0
437,156.2675,156.65875,76.0,75.0
438,156.5675,157.25,71.0,77.0
439,156.8675,157.28375,76.0,78.0
440,157.4675,157.86375,72.0,77.0
441,157.7675,159.72625,69.0,69.0
442,158.0675,159.735,72.0,73.0
443,158.3675,160.135,77.0,70.0
444,160.1675,160.86,74.0,78.0
445,160.4675,161.12125,67.0,69.0
446,160.7675,162.28625,79.0,78.0
447,161.0675,162.3975,74.0,75.0
448,161.3675,162.42000000000002,67.0,66.0
449,162.5675,163.23,71.0,70.0
450,162.8675,164.15125,67.0,68.0
451,163.1675,164.65625,76.0,81.0
452,164.9675,165.42375,76.0,76.0
453,165.2675,165.7175,69.0,77.0
454,165.8675,166.26500000000001,73.0,68.0
455,166.1675,166.55875,69.0,81.0
456,166.4675,167.00125,76.0,77.0
457,166.7675,167.14375,69.0,75.0
458,167.6675,168.67875,69.0,68.0
459,167.3675,168.6925,72.0,71.0
460,167.9675,168.79375000000002,77.0,69.0
461,169.7675,170.435,74.0,74.0
462,170.0675,170.63125,67.0,72.0
463,170.3675,170.94625,79.0,81.0
464,170.6675,171.1275,74.0,82.0
465,170.9675,171.80125,67.0,75.0
466,171.2675,171.8325,74.0,76.0
467,172.1675,172.82625000000002,74.0,82.0
468,172.4675,173.26250000000002,69.0,73.0
469,172.7675,173.57875,77.0,76.0
470,173.3675,173.9925,74.0,80.0
471,173.6675,174.03375,69.0,73.0
472,173.9675,174.37625,77.0,70.0
473,174.2675,175.03875,76.0,76.0
474,174.8675,175.90625,71.0,70.0
475,175.1675,175.9925,76.0,76.0
476,175.7675,176.12625,64.0,95.0
477,176.0675,176.37,67.0,83.0
478,176.0675,176.47375,68.0,61.0
479,176.3675,176.57625000000002,69.0,84.0
480,176.3675,176.57750000000001,71.0,72.0
481,176.6675,177.51625,72.0,83.0
482,177.5675,178.1675,69.0,85.0
483,178.1675,178.4675,67.0,85.0
484,178.4675,178.7675,67.0,85.0
485,178.7675,178.9175,62.0,81.0
486,178.9175,179.0675,60.0,81.0
487,179.0675,179.3675,64.0,81.0
488,179.3675,179.5175,62.0,81.0
489,179.5175,179.6675,60.0,81.0
490,179.6675,179.9675,62.0,81.0
491,179.9675,180.2675,60.0,81.0
492,180.2675,180.4175,57.0,81.0
493,180.4175,180.5675,55.0,81.0
494,180.5675,180.7175,50.0,81.0
495,180.7175,180.8675,48.0,81.0
496,180.8675,181.0175,50.0,81.0
497,181.0175,181.1675,48.0,81.0
498,181.1675,181.4675,45.0,81.0
499,181.4675,181.7675,45.0,81.0
500,181.7675,181.9175,43.0,81.0
501,181.9175,182.0675,45.0,81.0
502,182.0675,182.2175,48.0,81.0
503,182.2175,182.3675,50.0,81.0
504,182.3675,182.5175,52.0,81.0
505,182.5175,182.6675,55.0,81.0
506,182.6675,182.8175,57.0,81.0
507,182.8175,182.9675,60.0,81.0
508,182.9675,183.1175,62.0,81.0
509,183.1175,183.2675,64.0,81.0
510,183.2675,183.4175,62.0,81.0
511,183.4175,183.5675,60.0,81.0
512,183.5675,183.7175,62.0,81.0
513,183.7175,183.8675,57.0,81.0
514,183.8675,184.0175,60.0,81.0
515,184.0175,184.1675,62.0,81.0
516,184.1675,184.3175,64.0,81.0
517,184.3175,184.4675,60.0,81.0
518,184.4675,184.6175,62.0,81.0
519,184.6175,184.7675,60.0,81.0
520,184.7675,184.9175,57.0,81.0
521,184.9175,185.0675,55.0,81.0
522,185.0675,185.3675,57.0,81.0
523,185.5175,185.6675,60.0,81.0
524,185.6675,185.8175,57.0,81.0
525,185.6675,185.8175,64.0,81.0
526,185.9675,186.5675,57.0,81.0
527,185.9675,186.5675,64.0,81.0
528,186.5675,186.7175,62.0,81.0
529,186.7175,186.8675,60.0,81.0
530,186.8675,187.0175,62.0,81.0
531,187.0175,187.1675,60.0,81.0
532,187.1675,187.7675,57.0,81.0
533,187.7675,187.9175,60.0,81.0
534,187.9175,188.0675,62.0,81.0
535,188.0675,188.3675,64.0,81.0
536,188.3675,188.9675,64.0,81.0
537,188.9675,189.1175,62.0,81.0
538,189.1175,189.2675,60.0,81.0
539,189.2675,189.4175,62.0,81.0
540,189.4175,189.7175,60.0,81.0
541,189.7175,190.7675,69.0,81.0
542,190.7675,191.3675,74.0,81.0
543,191.3675,191.9675,74.0,81.0
544,191.9675,192.5675,76.0,81.0
545,192.5675,192.7175,74.0,81.0
546,192.7175,192.8675,72.0,81.0
547,192.8675,193.0175,74.0,81.0
548,193.0175,193.16750000000002,72.0,81.0
549,193.16750000000002,193.3175,71.0,81.0
550,193.3175,193.4675,72.0,81.0
551,193.4675,193.6175,71.0,81.0
552,193.6175,193.7675,72.0,81.0
553,193.7675,193.91750000000002,67.0,81.0
554,193.91750000000002,194.0675,66.0,81.0
555,194.0675,194.2175,67.0,81.0
556,194.2175,194.3675,66.0,81.0
557,194.3675,194.5175,67.0,81.0
558,194.5175,194.66750000000002,66.0,81.0
559,194.66750000000002,194.9675,69.0,81.0
560,194.9675,195.2675,71.0,81.0
561,195.2675,195.5675,72.0,81.0
562,195.5675,195.8675,74.0,81.0
563,195.8675,197.5175,76.0,81.0
564,198.2425,198.94625,79.0,77.0
565,198.2375,198.9475,83.0,82.0
566,199.0925,200.20250000000001,79.0,81.0
567,199.09375,200.22875,83.0,85.0
568,200.32875,200.5725,84.0,80.0
569,200.62,201.58375,86.0,82.0
570,203.0325,203.7975,79.0,82.0
571,203.88625000000002,204.7825,81.0,83.0
572,203.88125,204.78375,76.0,78.0
573,204.8675,205.40125,76.0,77.0
574,205.16750000000002,205.54375000000002,69.0,75.0
575,206.0675,207.07875,69.0,68.0
576,205.7675,207.0925,72.0,71.0
577,206.3675,207.19375,77.0,69.0
578,208.16750000000002,208.835,74.0,74.0
579,208.4675,209.03125,67.0,72.0
580,208.7675,209.34625,79.0,81.0
581,209.0675,209.5275,74.0,82.0
582,209.3675,210.20125000000002,67.0,75.0
583,209.66750000000002,210.23250000000002,74.0,76.0
584,210.5675,210.9725,74.0,81.0
585,211.16750000000002,211.51375000000002,77.0,78.0
586,211.4675,212.17375,74.0,75.0
587,210.8675,212.22,71.0,74.0
588,212.9675,213.42125000000001,76.0,76.0
589,213.2675,213.88125,71.0,81.0
590,213.5675,213.995,80.0,74.0
591,213.8675,214.25875,76.0,75.0
592,214.16750000000002,214.85,71.0,77.0
593,214.4675,214.88375,76.0,78.0
594,215.0675,215.46375,72.0,77.0
595,215.3675,217.32625000000002,69.0,69.0
596,215.66750000000002,217.335,72.0,73.0
597,215.9675,217.735,77.0,70.0
598,217.7675,218.46,74.0,78.0
599,218.0675,218.72125,67.0,69.0
600,218.3675,219.88625000000002,79.0,78.0
601,218.66750000000002,219.9975,74.0,75.0
602,218.9675,220.02,67.0,66.0
603,220.16750000000002,220.83,71.0,70.0
604,220.4675,221.75125,67.0,68.0
605,220.7675,222.25625,76.0,81.0
606,222.5675,223.02375,76.0,76.0
607,222.8675,223.3175,69.0,77.0
608,223.4675,223.865,73.0,68.0
609,223.7675,224.15875,69.0,81.0
610,224.0675,224.60125,76.0,77.0
611,224.3675,224.74375,69.0,75.0
612,225.2675,226.27875,69.0,68.0
613,224.9675,226.29250000000002,72.0,71.0
614,225.5675,226.39375,77.0,69.0
615,227.3675,228.035,74.0,74.0
616,227.66750000000002,228.23125000000002,67.0,72.0
617,227.9675,228.54625000000001,79.0,81.0
618,228.2675,228.7275,74.0,82.0
619,228.5675,229.40125,67.0,75.0
620,228.8675,229.4325,74.0,76.0
621,229.7675,230.42625,74.0,82.0
622,230.0675,230.8625,69.0,73.0
623,230.3675,231.17875,77.0,76.0
624,230.9675,231.5925,74.0,80.0
625,231.2675,231.63375,69.0,73.0
626,231.5675,231.97625,77.0,70.0
627,231.8675,232.63875000000002,76.0,76.0
628,232.4675,233.50625,71.0,70.0
629,232.7675,233.5925,76.0,76.0
630,233.66750000000002,234.07375000000002,68.0,61.0
631,233.9675,234.1775,71.0,72.0
632,234.2675,234.35625000000002,79.0,75.0
633,234.2675,234.3725,72.0,75.0
634,234.5675,234.6275,72.0,71.0
635,234.5675,234.64000000000001,79.0,65.0
636,234.7175,234.7975,72.0,72.0
637,234.7175,234.7975,79.0,75.0
638,234.8675,235.01,72.0,80.0
639,234.8675,235.01125000000002,79.0,80.0
640,236.66750000000002,236.75625,79.0,75.0
641,236.66750000000002,236.7725,72.0,75.0
642,236.9675,237.0275,72.0,71.0
643,236.9675,237.04,79.0,65.0
644,237.1175,237.1975,72.0,72.0
645,237.1175,237.1975,79.0,75.0
646,237.2675,237.41,72.0,80.0
647,237.2675,237.41125,79.0,80.0
648,239.0675,239.15625,79.0,75.0
649,239.0675,239.1725,72.0,75.0
650,239.3675,239.4275,72.0,71.0
651,239.3675,239.44,79.0,65.0
652,239.5175,239.5975,72.0,72.0
653,239.5175,239.5975,79.0,75.0
654,239.66750000000002,239.81,72.0,80.0
655,239.66750000000002,239.81125,79.0,80.0
656,241.4675,241.55625,79.0,75.0
657,241.4675,241.5725,72.0,75.0
658,241.7675,241.82750000000001,72.0,71.0
659,241.7675,241.84,79.0,65.0
660,241.91750000000002,241.9975,72.0,72.0
661,241.91750000000002,241.9975,79.0,75.0
662,242.0675,242.21,72.0,80.0
663,242.0675,242.21125,79.0,80.0
664,242.9675,243.085,72.0,85.0
665,243.2675,243.46125,74.0,95.0
666,243.41750000000002,243.55375,72.0,84.0
667,243.5675,243.735,69.0,78.0
668,243.8675,244.085,72.0,81.0
669,243.8675,244.09875,69.0,79.0
670,244.16750000000002,244.2375,72.0,76.0
671,244.16750000000002,244.24125,69.0,70.0
672,244.3175,244.375,69.0,69.0
673,244.3175,244.39125,72.0,77.0
674,244.4675,244.62625,72.0,83.0
675,244.4675,244.62875,69.0,82.0
676,244.7675,244.8975,69.0,83.0
677,245.0675,245.25125,71.0,86.0
678,245.3675,245.50875,71.0,82.0
679,245.5175,245.66,72.0,73.0
680,245.66750000000002,245.9675,71.0,70.0
681,245.9675,246.1175,69.0,68.0
682,246.1175,246.20250000000001,67.0,80.0
683,246.2675,246.49,72.0,77.0
684,246.2675,246.5025,69.0,75.0
685,246.2675,246.51000000000002,79.0,75.0
686,246.5675,246.64125,69.0,68.0
687,246.5675,246.6425,72.0,75.0
688,246.5675,246.6575,79.0,74.0
689,246.7175,246.7875,69.0,68.0
690,246.7175,246.79250000000002,72.0,76.0
691,246.8675,246.9675,72.0,79.0
692,246.8675,246.97875000000002,69.0,76.0
693,246.8675,246.995,79.0,77.0
694,247.4675,247.88625000000002,67.0,76.0
695,247.4675,247.9025,71.0,82.0
696,247.91750000000002,248.09125,72.0,74.0
697,248.0675,248.26000000000002,71.0,77.0
698,248.2175,248.3725,72.0,80.0
699,248.3675,248.54125000000002,74.0,82.0
700,248.5175,248.6225,72.0,86.0
701,248.66750000000002,248.89000000000001,72.0,77.0
702,248.66750000000002,248.9025,69.0,75.0
703,248.66750000000002,248.91,79.0,75.0
704,248.9675,249.04125000000002,69.0,68.0
705,248.9675,249.04250000000002,72.0,75.0
706,248.9675,249.0575,79.0,74.0
707,249.1175,249.1875,69.0,68.0
708,249.1175,249.1925,72.0,76.0
709,249.2675,249.3675,72.0,79.0
710,249.2675,249.37875,69.0,76.0
711,249.2675,249.395,79.0,77.0
712,249.8675,250.3375,71.0,81.0
713,250.3175,250.48875,72.0,80.0
714,250.4675,250.6575,74.0,79.0
715,250.6175,250.79125000000002,72.0,76.0
716,250.7675,250.91375,69.0,72.0
717,251.0675,251.23625,69.0,83.0
718,251.3675,251.48375000000001,72.0,81.0
719,251.66750000000002,251.7825,69.0,80.0
720,251.66750000000002,251.86625,74.0,87.0
721,251.8175,251.9625,72.0,81.0
722,251.9675,252.09375,69.0,82.0
723,252.2675,252.425,74.0,85.0
724,252.5675,252.68375,72.0,77.0
725,252.8675,253.04125000000002,74.0,92.0
726,253.0175,253.1425,72.0,78.0
727,253.16750000000002,253.29,69.0,85.0
728,253.3175,253.4075,72.0,77.0
729,253.4675,253.69,72.0,77.0
730,253.4675,253.70250000000001,69.0,75.0
731,253.4675,253.71,79.0,75.0
732,253.7675,253.84125,69.0,68.0
733,253.7675,253.8425,72.0,75.0
734,253.7675,253.85750000000002,79.0,74.0
735,253.91750000000002,253.9875,69.0,68.0
736,253.91750000000002,253.9925,72.0,76.0
737,254.0675,254.16750000000002,72.0,79.0
738,254.0675,254.17875,69.0,76.0
739,254.0675,254.195,79.0,77.0
740,254.66750000000002,254.81375,67.0,73.0
741,254.66750000000002,254.81625,71.0,80.0
742,254.9675,255.09625,67.0,72.0
743,254.9675,255.1025,71.0,81.0
744,255.2675,255.44625,72.0,82.0
745,255.41750000000002,255.58,71.0,76.0
746,255.5675,255.68125,72.0,82.0
747,255.7175,255.8675,74.0,81.0
748,255.8675,256.21875,69.0,81.0
749,255.8675,256.22875,72.0,82.0
750,256.3175,256.4425,72.0,82.0
751,256.3175,256.46875,69.0,81.0
752,256.6175,256.65625,69.0,70.0
753,256.6175,256.80625,72.0,80.0
754,256.7675,256.91625,69.0,84.0
755,257.0675,257.25625,71.0,82.0
756,257.3675,257.54875,72.0,82.0
757,257.6675,257.87,71.0,83.0
758,257.8175,257.96500000000003,72.0,79.0
759,257.96750000000003,258.07875,74.0,84.0
760,258.2675,258.61875,69.0,81.0
761,258.2675,258.62875,72.0,82.0
762,258.71750000000003,258.84250000000003,72.0,82.0
763,258.71750000000003,258.86875,69.0,81.0
764,259.0175,259.05625,69.0,70.0
765,259.0175,259.20625,72.0,80.0
766,259.1675,259.31625,69.0,84.0
767,259.46750000000003,259.65625,71.0,82.0
768,259.7675,259.94875,72.0,82.0
769,260.0675,260.27,71.0,83.0
770,260.21750000000003,260.365,72.0,79.0
771,260.3675,260.47875,74.0,84.0
772,260.68,260.84625,69.0,80.0
773,260.67375,261.12375000000003,72.0,82.0
774,261.355,261.485,87.0,76.0
775,261.4425,261.86125,88.0,81.0
776,261.9075,262.08625,86.0,85.0
777,262.12625,262.24875000000003,84.0,85.0
778,262.2975,262.44125,86.0,82.0
779,262.4175,262.575,84.0,85.0
780,262.565,262.78625,81.0,66.0
781,262.7525,262.88625,79.0,76.0
782,263.02,263.235,81.0,77.0
783,263.42875,263.6125,84.0,82.0
784,263.76625,263.9125,86.0,82.0
785,264.27750000000003,264.3775,87.0,64.0
786,264.36625,264.46500000000003,88.0,74.0
787,264.5975,264.74875000000003,91.0,81.0
788,264.84875,265.12625,93.0,70.0
789,265.17,265.3825,96.0,69.0
790,265.525,265.78000000000003,93.0,67.0
791,265.78625,265.9275,96.0,72.0
792,265.92125,266.03125,93.0,67.0
793,266.03625,266.125,96.0,70.0
794,266.13,266.22375,93.0,68.0
795,266.23375,266.34125,96.0,73.0
796,266.33375,266.445,93.0,73.0
797,266.44875,266.55,96.0,71.0
798,266.5175,266.63,93.0,72.0
799,266.64375,266.7275,96.0,75.0
800,266.7225,266.8125,93.0,60.0
801,266.8075,266.92625,96.0,73.0
802,266.9325,267.06,93.0,53.0
803,267.07375,267.19625,96.0,26.0
804,267.13375,267.2375,93.0,66.0
805,267.26875,267.575,96.0,65.0
806,267.51875,267.64,93.0,69.0
807,267.6375,267.73875,96.0,50.0
808,267.71750000000003,267.81125000000003,93.0,67.0
809,267.8125,267.9175,96.0,71.0
810,267.9175,268.02875,93.0,65.0
811,268.0225,268.1225,96.0,72.0
812,268.1225,268.22,93.0,65.0
813,268.21750000000003,268.3125,96.0,71.0
814,268.3175,268.42375,93.0,68.0
815,268.41625,268.52750000000003,96.0,70.0
816,268.52875,268.64375,93.0,67.0
817,268.6325,268.76125,96.0,71.0
818,268.73625,268.86125,93.0,72.0
819,268.855,268.98875,96.0,74.0
820,268.9625,269.095,93.0,71.0
821,269.08875,269.23,96.0,74.0
822,269.205,269.36125,93.0,72.0
823,269.345,269.5025,96.0,73.0
824,269.4875,269.6125,93.0,70.0
825,269.60125,269.8325,96.0,73.0
826,269.81125000000003,270.08625,93.0,75.0
827,270.00375,270.3175,91.0,69.0
828,270.265,271.08375,93.0,65.0
