,start,end,pitch,velocity
0,3.8675,4.1975,57.0,74.0
1,3.8675,4.22375,60.0,76.0
2,4.3175,4.4037500000000005,60.0,85.0
3,4.3175,4.4075,55.0,86.0
4,3.8675,4.4925,45.0,81.0
5,4.7675,5.11875,60.0,82.0
6,4.7675,5.12875,55.0,82.0
7,5.0675,6.0525,43.0,81.0
8,5.9675,6.13875,55.0,83.0
9,5.9675,6.15875,59.0,83.0
10,5.9675,6.1675,62.0,82.0
11,6.2675,6.62,60.0,81.0
12,6.2675,6.62125,57.0,74.0
13,6.7175,6.8125,57.0,73.0
14,6.7175,6.815,60.0,75.0
15,6.7175,6.8175,64.0,78.0
16,6.2675,6.9025,45.0,82.0
17,7.1675,7.483750000000001,60.0,71.0
18,7.1675,7.50875,57.0,70.0
19,7.1675,7.7325,64.0,81.0
20,7.7675,8.10875,59.0,77.0
21,7.7675,8.11375,55.0,76.0
22,7.7675,8.12125,62.0,78.0
23,7.3175,8.20625,43.0,71.0
24,8.0675,8.27125,50.0,70.0
25,8.2175,8.34625,55.0,81.0
26,8.2175,8.3475,59.0,82.0
27,8.2175,8.365,62.0,82.0
28,8.6675,8.99,57.0,70.0
29,8.6675,9.0075,60.0,78.0
30,9.1175,9.22125,60.0,78.0
31,9.1175,9.231250000000001,57.0,74.0
32,8.6675,9.32875,45.0,82.0
33,9.5675,9.72625,60.0,76.0
34,9.5675,9.74625,57.0,75.0
35,9.8675,10.56,55.0,74.0
36,9.8675,10.5675,59.0,75.0
37,10.6175,10.79625,55.0,80.0
38,9.8675,10.91375,43.0,66.0
39,10.7675,10.9625,59.0,81.0
40,11.0675,11.40375,57.0,75.0
41,11.0675,11.415000000000001,60.0,83.0
42,11.5175,11.6175,57.0,75.0
43,11.5175,11.620000000000001,60.0,82.0
44,11.0675,11.6975,45.0,81.0
45,11.967500000000001,12.37125,57.0,76.0
46,11.967500000000001,12.4075,60.0,80.0
47,12.2675,12.731250000000001,43.0,80.0
48,12.5675,12.89875,59.0,83.0
49,12.5675,12.9025,62.0,85.0
50,12.5675,12.91,55.0,82.0
51,12.8675,13.01625,50.0,79.0
52,13.0175,13.20875,55.0,82.0
53,13.0175,13.24,59.0,86.0
54,13.0175,13.24625,62.0,86.0
55,13.1675,13.405000000000001,43.0,77.0
56,13.3175,13.4225,55.0,82.0
57,13.467500000000001,13.81875,55.0,82.0
58,13.467500000000001,13.8225,60.0,83.0
59,13.9175,13.99375,60.0,82.0
60,13.9175,14.00125,55.0,81.0
61,13.467500000000001,14.592500000000001,45.0,83.0
62,14.3675,14.70375,60.0,85.0
63,14.3675,14.713750000000001,55.0,84.0
64,14.8175,14.98875,59.0,86.0
65,14.8175,14.9925,55.0,82.0
66,15.2675,15.535,55.0,82.0
67,15.2675,15.55125,59.0,82.0
68,14.6675,15.56625,43.0,82.0
69,15.8675,16.22875,57.0,81.0
70,15.8675,16.240000000000002,60.0,83.0
71,16.3175,16.41375,60.0,83.0
72,16.3175,16.423750000000002,57.0,82.0
73,15.8675,16.91125,45.0,83.0
74,16.767500000000002,17.08125,57.0,83.0
75,16.767500000000002,17.09125,60.0,87.0
76,17.2175,17.46875,55.0,82.0
77,17.2175,17.49625,59.0,90.0
78,17.517500000000002,17.681250000000002,55.0,84.0
79,17.9675,18.09625,55.0,80.0
80,17.6675,18.1375,50.0,85.0
81,17.0675,18.16,43.0,82.0
82,18.267500000000002,18.58875,60.0,82.0
83,18.267500000000002,18.5925,57.0,82.0
84,18.7175,18.80375,60.0,80.0
85,18.7175,18.8225,57.0,78.0
86,18.267500000000002,19.26125,45.0,83.0
87,19.1675,19.605,57.0,75.0
88,19.1675,19.66875,60.0,79.0
89,19.9175,20.06,59.0,82.0
90,19.9175,20.06625,55.0,81.0
91,20.0675,20.56375,50.0,77.0
92,19.4675,20.57,43.0,82.0
93,20.3675,20.58875,59.0,84.0
94,20.3675,20.59125,55.0,83.0
95,20.6675,21.01875,55.0,82.0
96,20.6675,21.0225,60.0,83.0
97,21.1175,21.19375,60.0,82.0
98,21.1175,21.20125,55.0,81.0
99,20.6675,21.7925,45.0,83.0
100,21.5675,21.90375,60.0,85.0
101,21.5675,21.91375,55.0,84.0
102,22.017500000000002,22.18875,59.0,86.0
103,22.017500000000002,22.1925,55.0,82.0
104,22.4675,22.735,55.0,82.0
105,22.4675,22.75125,59.0,82.0
106,21.8675,22.76625,43.0,82.0
107,23.0675,23.42875,57.0,81.0
108,23.0675,23.44,60.0,83.0
109,23.517500000000002,23.61375,60.0,83.0
110,23.517500000000002,23.62375,57.0,82.0
111,23.0675,24.111250000000002,45.0,83.0
112,23.9675,24.28125,57.0,83.0
113,23.9675,24.29125,60.0,87.0
114,24.4175,24.66875,55.0,82.0
115,24.4175,24.69625,59.0,90.0
116,24.7175,24.88125,55.0,84.0
117,25.1675,25.29625,55.0,80.0
118,24.8675,25.337500000000002,50.0,85.0
119,24.267500000000002,25.36,43.0,82.0
120,25.4675,25.78875,60.0,82.0
121,25.4675,25.7925,57.0,82.0
122,25.9175,26.00375,60.0,80.0
123,25.9175,26.0225,57.0,78.0
124,25.4675,26.46125,45.0,83.0
125,26.3675,26.805,57.0,75.0
126,26.3675,26.868750000000002,60.0,79.0
127,27.1175,27.26,59.0,82.0
128,27.1175,27.26625,55.0,81.0
129,27.267500000000002,27.76375,50.0,77.0
130,26.6675,27.77,43.0,82.0
131,27.5675,27.78875,59.0,84.0
132,27.5675,27.79125,55.0,83.0
133,27.8675,28.21875,55.0,82.0
134,27.8675,28.2225,60.0,83.0
135,28.3175,28.39375,60.0,82.0
136,28.3175,28.40125,55.0,81.0
137,27.8675,28.9925,45.0,83.0
138,28.767500000000002,29.10375,60.0,85.0
139,28.767500000000002,29.11375,55.0,84.0
140,29.2175,29.38875,59.0,86.0
141,29.2175,29.392500000000002,55.0,82.0
142,29.6675,29.935000000000002,55.0,82.0
143,29.6675,29.95125,59.0,82.0
144,29.0675,29.966250000000002,43.0,82.0
145,30.267500000000002,30.62875,57.0,81.0
146,30.267500000000002,30.64,60.0,83.0
147,30.7175,30.813750000000002,60.0,83.0
148,30.7175,30.82375,57.0,82.0
149,30.267500000000002,31.31125,45.0,83.0
150,31.1675,31.48125,57.0,83.0
151,31.1675,31.49125,60.0,87.0
152,31.6175,31.868750000000002,55.0,82.0
153,31.6175,31.896250000000002,59.0,90.0
154,31.9175,32.08125,55.0,84.0
155,32.3675,32.49625,55.0,80.0
156,32.0675,32.5375,50.0,85.0
157,31.4675,32.56,43.0,82.0
158,32.667500000000004,33.01875,55.0,82.0
159,32.667500000000004,33.0225,60.0,83.0
160,33.1175,33.19375,60.0,82.0
161,33.1175,33.20125,55.0,81.0
162,32.667500000000004,33.792500000000004,45.0,83.0
163,33.5675,33.90375,60.0,85.0
164,33.5675,33.91375,55.0,84.0
165,34.0175,34.18875,59.0,86.0
166,34.0175,34.1925,55.0,82.0
167,34.4675,34.735,55.0,82.0
168,34.4675,34.75125,59.0,82.0
169,33.8675,34.76625,43.0,82.0
170,35.0675,35.42875,57.0,81.0
171,35.0675,35.44,60.0,83.0
172,35.5175,35.61375,60.0,83.0
173,35.5175,35.62375,57.0,82.0
174,35.0675,36.11125,45.0,83.0
175,35.9675,36.28125,57.0,83.0
176,35.9675,36.29125,60.0,87.0
177,36.417500000000004,36.66875,55.0,82.0
178,36.417500000000004,36.69625,59.0,90.0
179,36.7175,36.88125,55.0,84.0
180,37.167500000000004,37.29625,55.0,80.0
181,36.8675,37.3375,50.0,85.0
182,36.2675,37.36,43.0,82.0
183,37.4675,37.78875,60.0,82.0
184,37.4675,37.792500000000004,57.0,82.0
185,37.917500000000004,38.003750000000004,60.0,80.0
186,37.917500000000004,38.0225,57.0,78.0
187,37.4675,38.46125,45.0,83.0
188,38.3675,38.805,57.0,75.0
189,38.3675,38.86875,60.0,79.0
190,39.1175,39.26,59.0,82.0
191,39.1175,39.26625,55.0,81.0
192,39.2675,39.76375,50.0,77.0
193,38.667500000000004,39.77,43.0,82.0
194,39.5675,39.78875,59.0,84.0
195,39.5675,39.79125,55.0,83.0
196,39.8675,40.21875,55.0,82.0
197,39.8675,40.222500000000004,60.0,83.0
198,40.3175,40.393750000000004,60.0,82.0
199,40.3175,40.40125,55.0,81.0
200,39.8675,40.9925,45.0,83.0
201,40.7675,41.10375,60.0,85.0
202,40.7675,41.11375,55.0,84.0
203,41.0675,41.3675,43.0,82.0
204,41.2175,41.38875,59.0,86.0
205,41.2175,41.3925,55.0,82.0
206,41.3675,41.581250000000004,45.0,81.0
207,41.667500000000004,41.87125,47.0,82.0
208,41.667500000000004,41.935,55.0,82.0
209,41.667500000000004,41.95125,59.0,82.0
210,41.9675,42.1875,48.0,82.0
211,42.2675,42.5825,62.0,81.0
212,42.2675,42.59125,57.0,76.0
213,42.2675,42.595,65.0,81.0
214,42.7175,42.79625,62.0,82.0
215,42.7175,42.8075,57.0,79.0
216,42.7175,42.80875,65.0,81.0
217,42.2675,42.85125,38.0,82.0
218,43.167500000000004,43.51375,57.0,81.0
219,43.167500000000004,43.52375,62.0,82.0
220,43.167500000000004,43.53125,65.0,81.0
221,43.6175,43.761250000000004,57.0,81.0
222,43.6175,43.77125,62.0,84.0
223,43.917500000000004,44.1375,57.0,82.0
224,43.4675,44.15875,38.0,85.0
225,44.0675,44.21125,62.0,83.0
226,44.0675,44.24625,65.0,82.0
227,44.3675,44.52875,57.0,78.0
228,44.667500000000004,44.9775,60.0,79.0
229,44.667500000000004,44.9975,57.0,73.0
230,45.1175,45.206250000000004,60.0,76.0
231,45.1175,45.21375,57.0,75.0
232,45.1175,45.21375,64.0,81.0
233,44.667500000000004,45.58375,45.0,82.0
234,45.5675,46.0925,64.0,85.0
235,45.5675,46.12625,60.0,82.0
236,45.5675,46.14,57.0,81.0
237,46.3175,46.425000000000004,57.0,81.0
238,46.3175,46.425000000000004,60.0,85.0
239,46.3175,46.42875,64.0,86.0
240,45.8675,46.55625,43.0,81.0
241,46.7675,47.065,40.0,88.0
242,46.7675,47.12375,59.0,81.0
243,46.7675,47.13875,55.0,81.0
244,47.0675,47.3775,60.0,79.0
245,47.0675,47.3975,57.0,73.0
246,47.5175,47.60625,60.0,76.0
247,47.5175,47.61375,57.0,75.0
248,47.5175,47.61375,64.0,81.0
249,47.0675,47.98375,45.0,82.0
250,47.9675,48.4925,64.0,85.0
251,47.9675,48.526250000000005,60.0,82.0
252,47.9675,48.54,57.0,81.0
253,48.7175,48.825,57.0,81.0
254,48.7175,48.825,60.0,85.0
255,48.7175,48.82875,64.0,86.0
256,48.2675,48.956250000000004,43.0,81.0
257,49.167500000000004,49.465,40.0,88.0
258,49.167500000000004,49.52375,59.0,81.0
259,49.167500000000004,49.53875,55.0,81.0
260,49.4675,49.7775,60.0,79.0
261,49.4675,49.7975,57.0,73.0
262,49.917500000000004,50.00625,60.0,76.0
263,49.917500000000004,50.01375,57.0,75.0
264,49.917500000000004,50.01375,64.0,81.0
265,49.4675,50.38375,45.0,82.0
266,50.3675,50.8925,64.0,85.0
267,50.3675,50.92625,60.0,82.0
268,50.3675,50.94,57.0,81.0
269,51.1175,51.225,57.0,81.0
270,51.1175,51.225,60.0,85.0
271,51.1175,51.22875,64.0,86.0
272,50.667500000000004,51.35625,43.0,81.0
273,51.5675,51.865,40.0,88.0
274,51.5675,51.92375,59.0,81.0
275,51.5675,51.93875,55.0,81.0
276,51.8675,51.93875,55.0,82.0
277,51.8675,52.222500000000004,60.0,83.0
278,52.3175,52.393750000000004,60.0,82.0
279,52.3175,52.401250000000005,55.0,81.0
280,51.8675,52.9925,45.0,83.0
281,52.7675,53.10375,60.0,85.0
282,52.7675,53.11375,55.0,84.0
283,53.2175,53.38875,59.0,86.0
284,53.2175,53.3925,55.0,82.0
285,53.667500000000004,53.935,55.0,82.0
286,53.667500000000004,53.95125,59.0,82.0
287,53.0675,53.96625,43.0,82.0
288,54.2675,54.628750000000004,57.0,81.0
289,54.2675,54.64,60.0,83.0
290,54.7175,54.81375,60.0,83.0
291,54.7175,54.823750000000004,57.0,82.0
292,54.2675,55.31125,45.0,83.0
293,55.167500000000004,55.48125,57.0,83.0
294,55.167500000000004,55.49125,60.0,87.0
295,55.6175,55.86875,55.0,82.0
296,55.6175,55.89625,59.0,90.0
297,55.917500000000004,56.081250000000004,55.0,84.0
298,56.3675,56.49625,55.0,80.0
299,56.0675,56.5375,50.0,85.0
300,55.4675,56.56,43.0,82.0
301,56.667500000000004,56.98875,60.0,82.0
302,56.667500000000004,56.9925,57.0,82.0
303,57.1175,57.20375,60.0,80.0
304,57.1175,57.222500000000004,57.0,78.0
305,56.667500000000004,57.66125,45.0,83.0
306,57.5675,58.005,57.0,75.0
307,57.5675,58.06875,60.0,79.0
308,58.3175,58.46,59.0,82.0
309,58.3175,58.46625,55.0,81.0
310,58.4675,58.963750000000005,50.0,77.0
311,57.8675,58.97,43.0,82.0
312,58.7675,58.98875,59.0,84.0
313,58.7675,58.99125,55.0,83.0
314,59.0675,59.41875,55.0,82.0
315,59.0675,59.4225,60.0,83.0
316,59.5175,59.59375,60.0,82.0
317,59.5175,59.60125,55.0,81.0
318,59.0675,60.1925,45.0,83.0
319,59.9675,60.30375,60.0,85.0
320,59.9675,60.31375,55.0,84.0
321,60.2675,60.5675,43.0,82.0
322,60.417500000000004,60.588750000000005,59.0,86.0
323,60.417500000000004,60.5925,55.0,82.0
324,60.5675,60.78125,45.0,81.0
325,60.8675,61.07125,47.0,82.0
326,60.8675,61.135,55.0,82.0
327,60.8675,61.151250000000005,59.0,82.0
328,61.167500000000004,61.3875,48.0,82.0
329,61.4675,61.7825,62.0,81.0
330,61.4675,61.79125,57.0,76.0
331,61.4675,61.795,65.0,81.0
332,61.917500000000004,61.99625,62.0,82.0
333,61.917500000000004,62.0075,57.0,79.0
334,61.917500000000004,62.00875,65.0,81.0
335,61.4675,62.05125,38.0,82.0
336,62.3675,62.713750000000005,57.0,81.0
337,62.3675,62.72375,62.0,82.0
338,62.3675,62.73125,65.0,81.0
339,62.8175,62.96125,57.0,81.0
340,62.8175,62.971250000000005,62.0,84.0
341,63.1175,63.3375,57.0,82.0
342,62.667500000000004,63.35875,38.0,85.0
343,63.2675,63.41125,62.0,83.0
344,63.2675,63.44625,65.0,82.0
345,63.5675,63.72875,57.0,78.0
346,63.8675,64.1775,60.0,79.0
347,63.8675,64.1975,57.0,73.0
348,64.3175,64.40625,60.0,76.0
349,64.3175,64.41375000000001,57.0,75.0
350,64.3175,64.41375000000001,64.0,81.0
351,63.8675,64.78375,45.0,82.0
352,64.7675,65.2925,64.0,85.0
353,64.7675,65.32625,60.0,82.0
354,64.7675,65.34,57.0,81.0
355,65.5175,65.625,57.0,81.0
356,65.5175,65.625,60.0,85.0
357,65.5175,65.62875,64.0,86.0
358,65.0675,65.75625,43.0,81.0
359,65.9675,66.265,40.0,88.0
360,65.9675,66.32375,59.0,81.0
361,65.9675,66.33875,55.0,81.0
362,66.2675,66.5775,60.0,79.0
363,66.2675,66.5975,57.0,73.0
364,66.7175,66.80625,60.0,76.0
365,66.7175,66.81375,57.0,75.0
366,66.7175,66.81375,64.0,81.0
367,66.2675,67.18375,45.0,82.0
368,67.1675,67.6925,64.0,85.0
369,67.1675,67.72625000000001,60.0,82.0
370,67.1675,67.74,57.0,81.0
371,67.9175,68.025,57.0,81.0
372,67.9175,68.025,60.0,85.0
373,67.9175,68.02875,64.0,86.0
374,67.4675,68.15625,43.0,81.0
375,68.3675,68.665,40.0,88.0
376,68.3675,68.72375,59.0,81.0
377,68.3675,68.73875,55.0,81.0
378,68.6675,68.9775,60.0,79.0
379,68.6675,68.9975,57.0,73.0
380,69.1175,69.20625,60.0,76.0
381,69.1175,69.21375,57.0,75.0
382,69.1175,69.21375,64.0,81.0
383,68.6675,69.58375,45.0,82.0
384,69.5675,70.0925,64.0,85.0
385,69.5675,70.12625,60.0,82.0
386,69.5675,70.14,57.0,81.0
387,70.3175,70.425,57.0,81.0
388,70.3175,70.425,60.0,85.0
389,70.3175,70.42875000000001,64.0,86.0
390,69.8675,70.55625,43.0,81.0
391,70.7675,71.065,40.0,88.0
392,70.7675,71.12375,59.0,81.0
393,70.7675,71.13875,55.0,81.0
394,71.0675,71.33,60.0,79.0
395,71.0675,71.40875,53.0,76.0
396,71.3675,71.85125000000001,48.0,81.0
397,71.6675,71.9625,57.0,84.0
398,71.6675,71.97500000000001,53.0,82.0
399,71.6675,71.97500000000001,60.0,83.0
400,71.9675,72.10625,48.0,62.0
401,71.0675,72.11625000000001,41.0,83.0
402,72.1175,72.25125,57.0,85.0
403,72.1175,72.25375,53.0,82.0
404,72.1175,72.2625,60.0,83.0
405,72.2675,72.46125,41.0,82.0
406,72.4175,72.53625,57.0,86.0
407,72.4175,72.53625,60.0,82.0
408,72.4175,72.54875,53.0,82.0
409,72.5675,72.95125,48.0,78.0
410,72.8675,73.065,53.0,87.0
411,72.5675,73.06625,41.0,69.0
412,72.8675,73.08500000000001,57.0,90.0
413,72.8675,73.14,60.0,90.0
414,73.1675,73.28,41.0,56.0
415,73.1675,73.3,48.0,82.0
416,73.4675,73.7,59.0,81.0
417,73.4675,73.73625,55.0,79.0
418,73.7675,74.14625,50.0,72.0
419,73.4675,74.1925,43.0,83.0
420,74.0675,74.27,62.0,85.0
421,74.0675,74.27875,59.0,90.0
422,74.0675,74.285,67.0,80.0
423,74.0675,74.30875,55.0,83.0
424,74.5175,74.62375,62.0,79.0
425,74.5175,74.64125,55.0,79.0
426,74.5175,74.64125,59.0,83.0
427,74.8175,74.955,55.0,74.0
428,74.8175,74.95625,59.0,82.0
429,74.8175,74.965,62.0,81.0
430,74.9675,75.355,50.0,78.0
431,75.2675,75.40125,55.0,86.0
432,74.6675,75.4175,43.0,82.0
433,75.2675,75.43,62.0,86.0
434,75.2675,75.43125,59.0,88.0
435,75.5675,75.68,43.0,81.0
436,75.8675,76.125,55.0,74.0
437,75.8675,76.14,52.0,67.0
438,76.4675,76.575,64.0,83.0
439,76.1675,76.58375,47.0,81.0
440,76.4675,76.59125,52.0,84.0
441,75.8675,76.87125,40.0,81.0
442,76.7675,76.88875,47.0,70.0
443,76.9175,76.9975,52.0,76.0
444,76.9175,77.04125,59.0,78.0
445,77.0675,77.27125,40.0,83.0
446,77.2175,77.355,52.0,84.0
447,77.3675,77.735,47.0,82.0
448,77.3675,77.77875,40.0,76.0
449,77.6675,77.88,52.0,88.0
450,77.6675,77.9025,55.0,92.0
451,77.9675,78.08375,40.0,83.0
452,78.2675,78.39875,57.0,64.0
453,78.2675,78.40625,55.0,66.0
454,78.5675,78.97625000000001,52.0,75.0
455,78.2675,79.0025,45.0,83.0
456,78.8675,79.0725,57.0,84.0
457,78.8675,79.0825,60.0,88.0
458,79.1675,79.27625,45.0,77.0
459,79.3175,79.435,57.0,82.0
460,79.6175,79.755,57.0,83.0
461,79.6175,79.76375,61.0,88.0
462,79.7675,80.10875,52.0,82.0
463,79.4675,80.13375,45.0,83.0
464,80.0675,80.33625,61.0,84.0
465,80.0675,80.36875,57.0,81.0
466,80.0675,80.40375,64.0,83.0
467,80.3675,80.48375,52.0,87.0
468,80.3675,80.51,45.0,82.0
469,80.6675,80.82625,57.0,76.0
470,80.6675,80.90875,65.0,82.0
471,80.6675,81.03750000000001,60.0,81.0
472,80.9675,81.0425,57.0,58.0
473,81.2675,81.39875,57.0,83.0
474,81.2675,81.41,60.0,85.0
475,80.6675,81.65625,41.0,83.0
476,81.7175,81.81875000000001,60.0,81.0
477,81.7175,81.8275,57.0,77.0
478,81.7175,81.8375,65.0,73.0
479,81.8675,82.01875,41.0,79.0
480,82.0175,82.155,57.0,76.0
481,82.0175,82.15625,60.0,82.0
482,82.1675,82.66250000000001,41.0,81.0
483,82.4675,82.69625,57.0,84.0
484,82.4675,82.89375,60.0,90.0
485,82.4675,82.96625,65.0,83.0
486,82.7675,82.9825,57.0,77.0
487,83.0675,83.48875,59.0,81.0
488,83.0675,83.4925,55.0,82.0
489,83.6675,83.85625,62.0,82.0
490,83.6675,83.87625,59.0,83.0
491,83.0675,83.88375,43.0,82.0
492,83.6675,83.885,55.0,82.0
493,84.1175,84.25125,59.0,75.0
494,84.1175,84.2675,55.0,74.0
495,84.1175,84.26875,62.0,79.0
496,84.1175,84.275,67.0,70.0
497,84.2675,84.40875,43.0,80.0
498,84.4175,84.55875,59.0,78.0
499,84.4175,84.56875000000001,62.0,80.0
500,84.4175,84.57000000000001,55.0,75.0
501,84.5675,84.98625,43.0,77.0
502,84.8675,85.045,55.0,85.0
503,84.8675,85.135,59.0,88.0
504,84.8675,85.26125,62.0,85.0
505,85.1675,85.33,55.0,82.0
506,85.4675,85.86875,69.0,76.0
507,85.4675,85.87625,59.0,74.0
508,85.4675,85.88375,62.0,74.0
509,85.4675,86.17625,47.0,83.0
510,86.0675,86.32375,69.0,83.0
511,86.0675,86.33375,59.0,82.0
512,86.0675,86.33625,62.0,87.0
513,86.3675,86.44625,53.0,71.0
514,86.5175,86.6225,62.0,82.0
515,86.5175,86.63375,59.0,81.0
516,86.5175,86.63625,69.0,80.0
517,86.6675,86.7825,47.0,79.0
518,86.8175,86.94,62.0,82.0
519,86.8175,86.95125,59.0,81.0
520,86.8175,86.96000000000001,69.0,79.0
521,87.2675,87.3625,59.0,82.0
522,86.9675,87.395,53.0,76.0
523,87.2675,87.41125,62.0,85.0
524,86.9675,87.4925,47.0,81.0
525,87.5675,87.73125,59.0,76.0
526,87.2675,87.76375,69.0,82.0
527,87.8675,88.00125,40.0,83.0
528,88.1675,88.3175,59.0,67.0
529,88.1675,88.3175,64.0,75.0
530,88.1675,88.32375,40.0,77.0
531,88.4675,88.6075,40.0,83.0
532,88.6175,88.645,69.0,69.0
533,88.4675,88.765,59.0,82.0
534,88.4675,88.79,64.0,86.0
535,88.7675,88.85375,40.0,73.0
536,88.9175,89.02625,64.0,87.0
537,88.9175,89.03625,59.0,84.0
538,88.9175,89.04375,68.0,83.0
539,89.0675,89.16250000000001,40.0,78.0
540,89.2175,89.345,64.0,83.0
541,89.2175,89.34625,59.0,81.0
542,89.2175,89.37625,68.0,78.0
543,89.6675,89.82625,59.0,85.0
544,89.6675,89.895,64.0,88.0
545,89.3675,89.9025,40.0,82.0
546,89.9675,90.27125,59.0,87.0
547,89.9675,90.2825,64.0,56.0
548,89.6675,90.30875,68.0,85.0
549,90.2675,90.53,60.0,79.0
550,90.2675,90.60875,53.0,76.0
551,90.5675,91.05125,48.0,81.0
552,90.8675,91.16250000000001,57.0,84.0
553,90.8675,91.175,53.0,82.0
554,90.8675,91.175,60.0,83.0
555,91.1675,91.30625,48.0,62.0
556,90.2675,91.31625,41.0,83.0
557,91.3175,91.45125,57.0,85.0
558,91.3175,91.45375,53.0,82.0
559,91.3175,91.4625,60.0,83.0
560,91.4675,91.66125,41.0,82.0
561,91.6175,91.73625,57.0,86.0
562,91.6175,91.73625,60.0,82.0
563,91.6175,91.74875,53.0,82.0
564,91.7675,92.15125,48.0,78.0
565,92.0675,92.265,53.0,87.0
566,91.7675,92.26625,41.0,69.0
567,92.0675,92.285,57.0,90.0
568,92.0675,92.34,60.0,90.0
569,92.3675,92.48,41.0,56.0
570,92.3675,92.5,48.0,82.0
571,92.6675,92.9,59.0,81.0
572,92.6675,92.93625,55.0,79.0
573,92.9675,93.34625,50.0,72.0
574,92.6675,93.3925,43.0,83.0
575,93.2675,93.47,62.0,85.0
576,93.2675,93.47875,59.0,90.0
577,93.2675,93.485,67.0,80.0
578,93.2675,93.50875,55.0,83.0
579,93.7175,93.82375,62.0,79.0
580,93.7175,93.84125,55.0,79.0
581,93.7175,93.84125,59.0,83.0
582,94.0175,94.155,55.0,74.0
583,94.0175,94.15625,59.0,82.0
584,94.0175,94.165,62.0,81.0
585,94.1675,94.555,50.0,78.0
586,94.4675,94.60125000000001,55.0,86.0
587,93.8675,94.6175,43.0,82.0
588,94.4675,94.63,62.0,86.0
589,94.4675,94.63125000000001,59.0,88.0
590,94.7675,94.88,43.0,81.0
591,95.0675,95.325,55.0,74.0
592,95.0675,95.34,52.0,67.0
593,95.6675,95.775,64.0,83.0
594,95.3675,95.78375,47.0,81.0
595,95.6675,95.79125,52.0,84.0
596,95.0675,96.07125,40.0,81.0
597,95.9675,96.08875,47.0,70.0
598,96.1175,96.1975,52.0,76.0
599,96.1175,96.24125000000001,59.0,78.0
600,96.2675,96.47125,40.0,83.0
601,96.4175,96.555,52.0,84.0
602,96.5675,96.935,47.0,82.0
603,96.5675,96.97875,40.0,76.0
604,96.8675,97.08,52.0,88.0
605,96.8675,97.1025,55.0,92.0
606,97.1675,97.28375,40.0,83.0
607,97.4675,97.59875,57.0,64.0
608,97.7675,98.17625,52.0,75.0
609,97.4675,98.2025,45.0,83.0
610,98.0675,98.27250000000001,57.0,84.0
611,98.0675,98.2825,61.0,88.0
612,98.3675,98.47625000000001,45.0,77.0
613,98.5175,98.635,57.0,82.0
614,98.8175,98.955,57.0,83.0
615,98.8175,98.96375,61.0,88.0
616,98.9675,99.30875,52.0,82.0
617,98.6675,99.33375000000001,45.0,83.0
618,99.2675,99.53625,61.0,84.0
619,99.2675,99.56875000000001,57.0,81.0
620,99.2675,99.60375,64.0,83.0
621,99.5675,99.68375,52.0,87.0
622,99.5675,99.71000000000001,45.0,82.0
623,99.8675,100.02625,57.0,76.0
624,99.8675,100.10875,65.0,82.0
625,99.8675,100.2375,60.0,81.0
626,100.1675,100.2425,57.0,58.0
627,100.4675,100.59875,57.0,83.0
628,100.4675,100.61,60.0,85.0
629,99.8675,100.85625,41.0,83.0
630,100.9175,101.01875,60.0,81.0
631,100.9175,101.0275,57.0,77.0
632,100.9175,101.03750000000001,65.0,73.0
633,101.0675,101.21875,41.0,79.0
634,101.2175,101.355,57.0,76.0
635,101.2175,101.35625,60.0,82.0
636,101.3675,101.8625,41.0,81.0
637,101.6675,101.89625000000001,57.0,84.0
638,101.6675,102.09375,60.0,90.0
639,101.6675,102.16625,65.0,83.0
640,101.9675,102.1825,57.0,77.0
641,102.2675,102.68875,59.0,81.0
642,102.2675,102.6925,55.0,82.0
643,102.8675,103.05625,62.0,82.0
644,102.8675,103.07625,59.0,83.0
645,102.2675,103.08375000000001,43.0,82.0
646,102.8675,103.08500000000001,55.0,82.0
647,103.3175,103.45125,59.0,75.0
648,103.3175,103.4675,55.0,74.0
649,103.3175,103.46875,62.0,79.0
650,103.3175,103.47500000000001,67.0,70.0
651,103.4675,103.60875,43.0,80.0
652,103.6175,103.75875,59.0,78.0
653,103.6175,103.76875,62.0,80.0
654,103.6175,103.77,55.0,75.0
655,103.7675,104.18625,43.0,77.0
656,104.0675,104.245,55.0,85.0
657,104.0675,104.33500000000001,59.0,88.0
658,104.0675,104.46125,62.0,85.0
659,104.3675,104.53,55.0,82.0
660,104.6675,104.7525,57.0,71.0
661,104.6675,104.86875,62.0,81.0
662,104.6675,104.885,65.0,82.0
663,104.9675,105.0825,57.0,79.0
664,104.6675,105.175,50.0,84.0
665,105.2675,105.41125,57.0,82.0
666,105.2675,105.41625,62.0,84.0
667,105.2675,105.44625,65.0,83.0
668,105.7175,105.84125,57.0,82.0
669,105.7175,105.84375,62.0,82.0
670,105.7175,105.86625000000001,65.0,81.0
671,105.8675,106.13375,38.0,82.0
672,106.0175,106.15,57.0,82.0
673,106.0175,106.165,62.0,81.0
674,106.0175,106.1825,65.0,81.0
675,106.1675,106.31625,38.0,82.0
676,106.4675,106.58375000000001,57.0,83.0
677,106.4675,106.66250000000001,62.0,85.0
678,106.4675,106.745,65.0,86.0
679,106.7675,106.87625,57.0,82.0
680,107.0675,107.35125000000001,52.0,83.0
681,107.0675,107.3525,56.0,85.0
682,107.0675,107.3675,59.0,83.0
683,107.3675,107.73125,47.0,78.0
684,107.6675,107.75750000000001,56.0,82.0
685,107.0675,107.765,40.0,84.0
686,107.6675,107.785,52.0,83.0
687,107.6675,107.80875,64.0,85.0
688,108.1175,108.2275,52.0,81.0
689,108.1175,108.235,64.0,82.0
690,108.2675,108.41875,40.0,82.0
691,108.4175,108.5125,52.0,84.0
692,108.4175,108.53,56.0,80.0
693,108.4175,108.53,59.0,86.0
694,108.5675,108.94,47.0,83.0
695,108.8675,109.03375,52.0,84.0
696,108.5675,109.13250000000001,40.0,72.0
697,109.1675,109.4525,52.0,87.0
698,108.8675,109.45625,56.0,85.0
699,108.8675,109.505,64.0,86.0
700,108.8675,109.51375,59.0,84.0
701,109.4675,109.81875000000001,55.0,82.0
702,109.4675,109.8225,60.0,83.0
703,109.9175,109.99375,60.0,82.0
704,109.9175,110.00125,55.0,81.0
705,109.4675,110.04875,45.0,84.0
706,110.3675,110.62875,40.0,87.0
707,110.3675,110.70375,60.0,85.0
708,110.3675,110.71375,55.0,84.0
709,110.8175,110.98875,59.0,86.0
710,110.8175,110.9925,55.0,82.0
711,110.6675,111.43625,43.0,88.0
712,111.2675,111.535,55.0,82.0
713,111.2675,111.55125,59.0,82.0
714,111.8675,112.22875,57.0,81.0
715,111.8675,112.24000000000001,60.0,83.0
716,111.8675,112.2625,45.0,83.0
717,112.3175,112.41375000000001,60.0,83.0
718,112.3175,112.42375,57.0,82.0
719,112.3175,112.43125,45.0,85.0
720,112.7675,113.00375,40.0,80.0
721,112.7675,113.08125,57.0,83.0
722,112.7675,113.09125,60.0,87.0
723,113.0675,113.43375,43.0,86.0
724,113.2175,113.46875,55.0,82.0
725,113.2175,113.49625,59.0,90.0
726,113.5175,113.68125,55.0,84.0
727,113.5175,113.69875,43.0,83.0
728,113.9675,114.09625,55.0,80.0
729,113.6675,114.1375,50.0,85.0
730,113.9675,114.235,40.0,83.0
731,114.2675,114.58875,60.0,82.0
732,114.2675,114.5925,57.0,82.0
733,114.2675,114.6125,45.0,85.0
734,114.7175,114.80375000000001,60.0,80.0
735,114.7175,114.8225,57.0,78.0
736,114.7175,114.8325,45.0,86.0
737,115.1675,115.39375,40.0,85.0
738,115.1675,115.605,57.0,75.0
739,115.1675,115.66875,60.0,79.0
740,115.4675,115.8125,43.0,87.0
741,115.9175,116.06,59.0,82.0
742,115.9175,116.06625,55.0,81.0
743,115.9175,116.08,43.0,85.0
744,116.0675,116.56375,50.0,77.0
745,116.3675,116.58875,59.0,84.0
746,116.3675,116.59125,55.0,83.0
747,116.3675,116.6175,40.0,87.0
748,116.6675,117.01875,55.0,82.0
749,116.6675,117.02250000000001,60.0,83.0
750,117.1175,117.19375000000001,60.0,82.0
751,117.1175,117.20125,55.0,81.0
752,116.6675,117.24875,45.0,84.0
753,117.5675,117.82875,40.0,87.0
754,117.5675,117.90375,60.0,85.0
755,117.5675,117.91375000000001,55.0,84.0
756,118.0175,118.18875,59.0,86.0
757,118.0175,118.1925,55.0,82.0
758,117.8675,118.63625,43.0,88.0
759,118.4675,118.735,55.0,82.0
760,118.4675,118.75125,59.0,82.0
761,119.0675,119.41875,55.0,82.0
762,119.0675,119.4225,60.0,83.0
763,119.5175,119.59375,60.0,82.0
764,119.5175,119.60125000000001,55.0,81.0
765,119.0675,120.1925,45.0,83.0
766,119.9675,120.30375000000001,60.0,85.0
767,119.9675,120.31375,55.0,84.0
768,120.4175,120.58875,59.0,86.0
769,120.4175,120.5925,55.0,82.0
770,120.8675,121.135,55.0,82.0
771,120.8675,121.15125,59.0,82.0
772,120.2675,121.16625,43.0,82.0
773,121.4675,121.82875,57.0,81.0
774,121.4675,121.84,60.0,83.0
775,121.9175,122.01375,60.0,83.0
776,121.9175,122.02375,57.0,82.0
777,121.4675,122.51125,45.0,83.0
778,122.3675,122.68125,57.0,83.0
779,122.3675,122.69125,60.0,87.0
780,122.8175,123.06875000000001,55.0,82.0
781,122.8175,123.09625,59.0,90.0
782,123.1175,123.28125,55.0,84.0
783,123.56750000000001,123.69625,55.0,80.0
784,123.2675,123.7375,50.0,85.0
785,122.6675,123.76,43.0,82.0
786,123.8675,124.18875,60.0,82.0
787,123.8675,124.19250000000001,57.0,82.0
788,124.31750000000001,124.40375,60.0,80.0
789,124.31750000000001,124.4225,57.0,78.0
790,123.8675,124.86125,45.0,83.0
791,124.7675,125.205,57.0,75.0
792,124.7675,125.26875,60.0,79.0
793,125.5175,125.66,59.0,82.0
794,125.5175,125.66625,55.0,81.0
795,125.6675,126.16375000000001,50.0,77.0
796,125.06750000000001,126.17,43.0,82.0
797,125.9675,126.18875,59.0,84.0
798,125.9675,126.19125,55.0,83.0
799,126.2675,126.61875,55.0,82.0
800,126.2675,126.6225,60.0,83.0
801,126.7175,126.79375,60.0,82.0
802,126.7175,126.80125,55.0,81.0
803,126.2675,127.3925,45.0,83.0
804,127.1675,127.50375,60.0,85.0
805,127.1675,127.51375,55.0,84.0
806,127.4675,127.7675,43.0,82.0
807,127.6175,127.78875000000001,59.0,86.0
808,127.6175,127.7925,55.0,82.0
809,127.7675,127.98125,45.0,81.0
810,128.0675,128.27125,47.0,82.0
811,128.0675,128.335,55.0,82.0
812,128.0675,128.35125,59.0,82.0
813,128.3675,128.5875,48.0,82.0
814,128.6675,128.98250000000002,62.0,81.0
815,128.6675,128.99125,57.0,76.0
816,128.6675,128.995,65.0,81.0
817,129.1175,129.19625,62.0,82.0
818,129.1175,129.2075,57.0,79.0
819,129.1175,129.20875,65.0,81.0
820,128.6675,129.25125,38.0,82.0
821,129.5675,129.91375,57.0,81.0
822,129.5675,129.92375,62.0,82.0
823,129.5675,129.93125,65.0,81.0
824,130.0175,130.16125,57.0,81.0
825,130.0175,130.17125000000001,62.0,84.0
826,130.3175,130.5375,57.0,82.0
827,129.8675,130.55875,38.0,85.0
828,130.4675,130.61125,62.0,83.0
829,130.4675,130.64625,65.0,82.0
830,130.7675,130.92875,57.0,78.0
831,131.0675,131.3775,60.0,79.0
832,131.0675,131.3975,57.0,73.0
833,131.5175,131.60625,60.0,76.0
834,131.5175,131.61375,57.0,75.0
835,131.5175,131.61375,64.0,81.0
836,131.0675,131.98375000000001,45.0,82.0
837,131.9675,132.4925,64.0,85.0
838,131.9675,132.52625,60.0,82.0
839,131.9675,132.54,57.0,81.0
840,132.7175,132.825,57.0,81.0
841,132.7175,132.825,60.0,85.0
842,132.7175,132.82875,64.0,86.0
843,132.2675,132.95625,43.0,81.0
844,133.1675,133.465,40.0,88.0
845,133.1675,133.52375,59.0,81.0
846,133.1675,133.53875,55.0,81.0
847,133.4675,133.7775,60.0,79.0
848,133.4675,133.7975,57.0,73.0
849,133.9175,134.00625,60.0,76.0
850,133.9175,134.01375000000002,57.0,75.0
851,133.9175,134.01375000000002,64.0,81.0
852,133.4675,134.38375,45.0,82.0
853,134.3675,134.8925,64.0,85.0
854,134.3675,134.92625,60.0,82.0
855,134.3675,134.94,57.0,81.0
856,135.1175,135.225,57.0,81.0
857,135.1175,135.225,60.0,85.0
858,135.1175,135.22875,64.0,86.0
859,134.6675,135.35625,43.0,81.0
860,135.5675,135.865,40.0,88.0
861,135.5675,135.92375,59.0,81.0
862,135.5675,135.93875,55.0,81.0
863,135.8675,136.1775,60.0,79.0
864,135.8675,136.1975,57.0,73.0
865,136.3175,136.40625,60.0,76.0
866,136.3175,136.41375,57.0,75.0
867,136.3175,136.41375,64.0,81.0
868,135.8675,136.78375,45.0,82.0
869,136.7675,137.2925,64.0,85.0
870,136.7675,137.32625000000002,60.0,82.0
871,136.7675,137.34,57.0,81.0
872,137.5175,137.625,57.0,81.0
873,137.5175,137.625,60.0,85.0
874,137.5175,137.62875,64.0,86.0
875,137.0675,137.75625,43.0,81.0
876,137.9675,138.26500000000001,40.0,88.0
877,137.9675,138.32375,59.0,81.0
878,137.9675,138.33875,55.0,81.0
879,138.2675,138.53,60.0,79.0
880,138.2675,138.60875000000001,53.0,76.0
881,138.5675,139.05125,48.0,81.0
882,138.8675,139.1625,57.0,84.0
883,138.8675,139.175,53.0,82.0
884,138.8675,139.175,60.0,83.0
885,139.1675,139.30625,48.0,62.0
886,138.2675,139.31625,41.0,83.0
887,139.3175,139.45125000000002,57.0,85.0
888,139.3175,139.45375,53.0,82.0
889,139.3175,139.4625,60.0,83.0
890,139.4675,139.66125,41.0,82.0
891,139.6175,139.73625,57.0,86.0
892,139.6175,139.73625,60.0,82.0
893,139.6175,139.74875,53.0,82.0
894,139.7675,140.15125,48.0,78.0
895,140.0675,140.26500000000001,53.0,87.0
896,139.7675,140.26625,41.0,69.0
897,140.0675,140.285,57.0,90.0
898,140.0675,140.34,60.0,90.0
899,140.3675,140.48,41.0,56.0
900,140.3675,140.5,48.0,82.0
901,140.6675,140.9,59.0,81.0
902,140.6675,140.93625,55.0,79.0
903,140.9675,141.34625,50.0,72.0
904,140.6675,141.3925,43.0,83.0
905,141.2675,141.47,62.0,85.0
906,141.2675,141.47875,59.0,90.0
907,141.2675,141.485,67.0,80.0
908,141.2675,141.50875,55.0,83.0
909,141.7175,141.82375,62.0,79.0
910,141.7175,141.84125,55.0,79.0
911,141.7175,141.84125,59.0,83.0
912,142.0175,142.155,55.0,74.0
913,142.0175,142.15625,59.0,82.0
914,142.0175,142.165,62.0,81.0
915,142.1675,142.555,50.0,78.0
916,142.4675,142.60125,55.0,86.0
917,141.8675,142.6175,43.0,82.0
918,142.4675,142.63,62.0,86.0
919,142.4675,142.63125,59.0,88.0
920,142.7675,142.88,43.0,81.0
921,143.0675,143.32500000000002,55.0,74.0
922,143.0675,143.34,52.0,67.0
923,143.6675,143.775,64.0,83.0
924,143.3675,143.78375,47.0,81.0
925,143.6675,143.79125,52.0,84.0
926,143.0675,144.07125,40.0,81.0
927,143.9675,144.08875,47.0,70.0
928,144.1175,144.1975,52.0,76.0
929,144.1175,144.24125,59.0,78.0
930,144.2675,144.47125,40.0,83.0
931,144.4175,144.555,52.0,84.0
932,144.5675,144.935,47.0,82.0
933,144.5675,144.97875,40.0,76.0
934,144.8675,145.08,52.0,88.0
935,144.8675,145.1025,55.0,92.0
936,145.1675,145.28375,40.0,83.0
937,145.4675,145.59875,57.0,64.0
938,145.7675,146.17625,52.0,75.0
939,145.4675,146.20250000000001,45.0,83.0
940,146.0675,146.2725,57.0,84.0
941,146.0675,146.2825,61.0,88.0
942,146.3675,146.47625,45.0,77.0
943,146.5175,146.635,57.0,82.0
944,146.8175,146.955,57.0,83.0
945,146.8175,146.96375,61.0,88.0
946,146.9675,147.30875,52.0,82.0
947,146.6675,147.33375,45.0,83.0
948,147.2675,147.53625,61.0,84.0
949,147.2675,147.56875,57.0,81.0
950,147.2675,147.60375,64.0,83.0
951,147.5675,147.68375,52.0,87.0
952,147.5675,147.71,45.0,82.0
953,147.8675,148.02625,57.0,76.0
954,147.8675,148.10875000000001,65.0,82.0
955,147.8675,148.2375,60.0,81.0
956,148.1675,148.2425,57.0,58.0
957,148.4675,148.59875,57.0,83.0
958,148.4675,148.61,60.0,85.0
959,147.8675,148.85625000000002,41.0,83.0
960,148.9175,149.01875,60.0,81.0
961,148.9175,149.0275,57.0,77.0
962,148.9175,149.0375,65.0,73.0
963,149.0675,149.21875,41.0,79.0
964,149.2175,149.355,57.0,76.0
965,149.2175,149.35625000000002,60.0,82.0
966,149.3675,149.8625,41.0,81.0
967,149.6675,149.89625,57.0,84.0
968,149.6675,150.09375,60.0,90.0
969,149.6675,150.16625,65.0,83.0
970,149.9675,150.1825,57.0,77.0
971,150.2675,150.68875,59.0,81.0
972,150.2675,150.6925,55.0,82.0
973,150.8675,151.05625,62.0,82.0
974,150.8675,151.07625000000002,59.0,83.0
975,150.2675,151.08375,43.0,82.0
976,150.8675,151.085,55.0,82.0
977,151.3175,151.45125000000002,59.0,75.0
978,151.3175,151.4675,55.0,74.0
979,151.3175,151.46875,62.0,79.0
980,151.3175,151.475,67.0,70.0
981,151.4675,151.60875000000001,43.0,80.0
982,151.6175,151.75875,59.0,78.0
983,151.6175,151.76875,62.0,80.0
984,151.6175,151.77,55.0,75.0
985,151.7675,152.18625,43.0,77.0
986,152.0675,152.245,55.0,85.0
987,152.0675,152.335,59.0,88.0
988,152.0675,152.46125,62.0,85.0
989,152.3675,152.53,55.0,82.0
990,152.6675,153.06875,65.0,76.0
991,152.6675,153.07625000000002,59.0,74.0
992,152.6675,153.08375,62.0,74.0
993,152.6675,153.37625,47.0,83.0
994,153.2675,153.52375,65.0,83.0
995,153.2675,153.53375,59.0,82.0
996,153.2675,153.53625,62.0,87.0
997,153.5675,153.64625,53.0,71.0
998,153.7175,153.8225,62.0,82.0
999,153.7175,153.83375,59.0,81.0
1000,153.7175,153.83625,65.0,80.0
1001,153.8675,153.98250000000002,47.0,79.0
1002,154.0175,154.14000000000001,62.0,82.0
1003,154.0175,154.15125,59.0,81.0
1004,154.0175,154.16,65.0,79.0
1005,154.4675,154.5625,59.0,82.0
1006,154.1675,154.595,53.0,76.0
1007,154.4675,154.61125,62.0,85.0
1008,154.1675,154.6925,47.0,81.0
1009,154.7675,154.93125,59.0,76.0
1010,154.4675,154.96375,65.0,82.0
1011,155.0675,155.20125000000002,40.0,83.0
1012,155.3675,155.5175,59.0,67.0
1013,155.3675,155.5175,64.0,75.0
1014,155.3675,155.52375,40.0,77.0
1015,155.6675,155.8075,40.0,83.0
1016,155.6675,155.965,59.0,82.0
1017,155.6675,155.99,64.0,86.0
1018,155.9675,156.05375,40.0,73.0
1019,156.1175,156.22625,64.0,87.0
1020,156.1175,156.23625,59.0,84.0
1021,156.1175,156.24375,68.0,83.0
1022,156.2675,156.3625,40.0,78.0
1023,156.4175,156.54500000000002,64.0,83.0
1024,156.4175,156.54625000000001,59.0,81.0
1025,156.4175,156.57625000000002,68.0,78.0
1026,156.8675,157.02625,59.0,85.0
1027,156.8675,157.095,64.0,88.0
1028,156.5675,157.1025,40.0,82.0
1029,157.1675,157.47125,59.0,87.0
1030,157.1675,157.48250000000002,64.0,56.0
1031,156.8675,157.50875,68.0,85.0
1032,157.4675,157.73,60.0,79.0
1033,157.4675,157.80875,53.0,76.0
1034,157.7675,158.25125,48.0,81.0
1035,158.0675,158.3625,57.0,84.0
1036,158.0675,158.375,53.0,82.0
1037,158.0675,158.375,60.0,83.0
1038,158.3675,158.50625,48.0,62.0
1039,157.4675,158.51625,41.0,83.0
1040,158.5175,158.65125,57.0,85.0
1041,158.5175,158.65375,53.0,82.0
1042,158.5175,158.6625,60.0,83.0
1043,158.6675,158.86125,41.0,82.0
1044,158.8175,158.93625,57.0,86.0
1045,158.8175,158.93625,60.0,82.0
1046,158.8175,158.94875,53.0,82.0
1047,158.9675,159.35125,48.0,78.0
1048,159.2675,159.465,53.0,87.0
1049,158.9675,159.46625,41.0,69.0
1050,159.2675,159.485,57.0,90.0
1051,159.2675,159.54,60.0,90.0
1052,159.5675,159.68,41.0,56.0
1053,159.5675,159.70000000000002,48.0,82.0
1054,159.8675,160.1,59.0,81.0
1055,159.8675,160.13625,55.0,79.0
1056,160.1675,160.54625000000001,50.0,72.0
1057,159.8675,160.5925,43.0,83.0
1058,160.4675,160.67000000000002,62.0,85.0
1059,160.4675,160.67875,59.0,90.0
1060,160.4675,160.685,67.0,80.0
1061,160.4675,160.70875,55.0,83.0
1062,160.9175,161.02375,62.0,79.0
1063,160.9175,161.04125,55.0,79.0
1064,160.9175,161.04125,59.0,83.0
1065,161.2175,161.355,55.0,74.0
1066,161.2175,161.35625000000002,59.0,82.0
1067,161.2175,161.365,62.0,81.0
1068,161.3675,161.755,50.0,78.0
1069,161.6675,161.80125,55.0,86.0
1070,161.0675,161.8175,43.0,82.0
1071,161.6675,161.83,62.0,86.0
1072,161.6675,161.83125,59.0,88.0
1073,161.9675,162.08,43.0,81.0
1074,162.2675,162.525,55.0,74.0
1075,162.2675,162.54,52.0,67.0
1076,162.8675,162.975,64.0,83.0
1077,162.5675,162.98375000000001,47.0,81.0
1078,162.8675,162.99125,52.0,84.0
1079,162.2675,163.27125,40.0,81.0
1080,163.1675,163.28875,47.0,70.0
1081,163.3175,163.3975,52.0,76.0
1082,163.3175,163.44125,59.0,78.0
1083,163.4675,163.67125000000001,40.0,83.0
1084,163.6175,163.755,52.0,84.0
1085,163.7675,164.135,47.0,82.0
1086,163.7675,164.17875,40.0,76.0
1087,164.0675,164.28,52.0,88.0
1088,164.0675,164.3025,55.0,92.0
1089,164.3675,164.48375000000001,40.0,83.0
1090,164.6675,164.79875,57.0,64.0
1091,164.6675,164.80625,55.0,66.0
1092,164.9675,165.37625,52.0,75.0
1093,164.6675,165.4025,45.0,83.0
1094,165.2675,165.4725,57.0,84.0
1095,165.2675,165.48250000000002,60.0,88.0
1096,165.5675,165.67625,45.0,77.0
1097,165.7175,165.835,57.0,82.0
1098,166.0175,166.155,57.0,83.0
1099,166.0175,166.16375,61.0,88.0
1100,166.1675,166.50875,52.0,82.0
1101,165.8675,166.53375,45.0,83.0
1102,166.4675,166.73625,61.0,84.0
1103,166.4675,166.76875,57.0,81.0
1104,166.4675,166.80375,64.0,83.0
1105,166.7675,166.88375,52.0,87.0
1106,166.7675,166.91,45.0,82.0
1107,167.0675,167.22625,57.0,76.0
1108,167.0675,167.30875,65.0,82.0
1109,167.0675,167.4375,60.0,81.0
1110,167.3675,167.4425,57.0,58.0
1111,167.6675,167.79875,57.0,83.0
1112,167.6675,167.81,60.0,85.0
1113,167.0675,168.05625,41.0,83.0
1114,168.1175,168.21875,60.0,81.0
1115,168.1175,168.2275,57.0,77.0
1116,168.1175,168.2375,65.0,73.0
1117,168.2675,168.41875000000002,41.0,79.0
1118,168.4175,168.555,57.0,76.0
1119,168.4175,168.55625,60.0,82.0
1120,168.5675,169.0625,41.0,81.0
1121,168.8675,169.09625,57.0,84.0
1122,168.8675,169.29375000000002,60.0,90.0
1123,168.8675,169.36625,65.0,83.0
1124,169.1675,169.3825,57.0,77.0
1125,169.4675,169.88875000000002,59.0,81.0
1126,169.4675,169.8925,55.0,82.0
1127,170.0675,170.25625,62.0,82.0
1128,170.0675,170.27625,59.0,83.0
1129,169.4675,170.28375,43.0,82.0
1130,170.0675,170.285,55.0,82.0
1131,170.5175,170.65125,59.0,75.0
1132,170.5175,170.6675,55.0,74.0
1133,170.5175,170.66875000000002,62.0,79.0
1134,170.5175,170.675,67.0,70.0
1135,170.6675,170.80875,43.0,80.0
1136,170.8175,170.95875,59.0,78.0
1137,170.8175,170.96875,62.0,80.0
1138,170.8175,170.97,55.0,75.0
1139,170.9675,171.38625,43.0,77.0
1140,171.2675,171.445,55.0,85.0
1141,171.2675,171.535,59.0,88.0
1142,171.2675,171.66125,62.0,85.0
1143,171.5675,171.73,55.0,82.0
1144,171.8675,171.95250000000001,57.0,71.0
1145,171.8675,172.06875,62.0,81.0
1146,171.8675,172.085,65.0,82.0
1147,172.1675,172.2825,57.0,79.0
1148,171.8675,172.375,50.0,84.0
1149,172.4675,172.61125,57.0,82.0
1150,172.4675,172.61625,62.0,84.0
1151,172.4675,172.64625,65.0,83.0
1152,172.9175,173.04125,57.0,82.0
1153,172.9175,173.04375000000002,62.0,82.0
1154,172.9175,173.06625,65.0,81.0
1155,173.0675,173.33375,38.0,82.0
1156,173.2175,173.35,57.0,82.0
1157,173.2175,173.365,62.0,81.0
1158,173.2175,173.3825,65.0,81.0
1159,173.3675,173.51625,38.0,82.0
1160,173.6675,173.78375,57.0,83.0
1161,173.6675,173.8625,62.0,85.0
1162,173.6675,173.945,65.0,86.0
1163,173.9675,174.07625000000002,57.0,82.0
1164,174.2675,174.55125,52.0,83.0
1165,174.2675,174.5525,56.0,85.0
1166,174.2675,174.5675,59.0,83.0
1167,174.5675,174.93125,47.0,78.0
1168,174.8675,174.9575,56.0,82.0
1169,174.2675,174.965,40.0,84.0
1170,174.8675,174.985,52.0,83.0
1171,174.8675,175.00875,64.0,85.0
1172,175.3175,175.4275,52.0,81.0
1173,175.3175,175.435,64.0,82.0
1174,175.4675,175.61875,40.0,82.0
1175,175.6175,175.7125,52.0,84.0
1176,175.6175,175.73,56.0,80.0
1177,175.6175,175.73,59.0,86.0
1178,175.7675,176.14000000000001,47.0,83.0
1179,176.0675,176.23375000000001,52.0,84.0
1180,175.7675,176.3325,40.0,72.0
1181,176.3675,176.6525,52.0,87.0
1182,176.0675,176.65625,56.0,85.0
1183,176.0675,176.705,64.0,86.0
1184,176.0675,176.71375,59.0,84.0
1185,176.6675,177.01875,55.0,82.0
1186,176.6675,177.0225,60.0,83.0
1187,177.1175,177.19375,60.0,82.0
1188,177.1175,177.20125000000002,55.0,81.0
1189,176.6675,177.24875,45.0,84.0
1190,177.5675,177.82875,40.0,87.0
1191,177.5675,177.90375,60.0,85.0
1192,177.5675,177.91375,55.0,84.0
1193,178.0175,178.18875,59.0,86.0
1194,178.0175,178.1925,55.0,82.0
1195,177.8675,178.63625,43.0,88.0
1196,178.4675,178.735,55.0,82.0
1197,178.4675,178.75125,59.0,82.0
1198,179.0675,179.42875,57.0,81.0
1199,179.0675,179.44,60.0,83.0
1200,179.0675,179.4625,45.0,83.0
1201,179.5175,179.61375,60.0,83.0
1202,179.5175,179.62375,57.0,82.0
1203,179.5175,179.63125,45.0,85.0
1204,179.9675,180.20375,40.0,80.0
1205,179.9675,180.28125,57.0,83.0
1206,179.9675,180.29125,60.0,87.0
1207,180.2675,180.63375,43.0,86.0
1208,180.4175,180.66875000000002,55.0,82.0
1209,180.4175,180.69625,59.0,90.0
1210,180.7175,180.88125,55.0,84.0
1211,180.7175,180.89875,43.0,83.0
1212,181.1675,181.29625000000001,55.0,80.0
1213,180.8675,181.3375,50.0,85.0
1214,181.1675,181.435,40.0,83.0
1215,181.4675,181.78875,60.0,82.0
1216,181.4675,181.7925,57.0,82.0
1217,181.4675,181.8125,45.0,85.0
1218,181.9175,182.00375,60.0,80.0
1219,181.9175,182.0225,57.0,78.0
1220,181.9175,182.0325,45.0,86.0
1221,182.3675,182.59375,40.0,85.0
1222,182.3675,182.805,57.0,75.0
1223,182.3675,182.86875,60.0,79.0
1224,182.6675,183.01250000000002,43.0,87.0
1225,183.1175,183.26,59.0,82.0
1226,183.1175,183.26625,55.0,81.0
1227,183.1175,183.28,43.0,85.0
1228,183.2675,183.76375000000002,50.0,77.0
1229,183.5675,183.78875,59.0,84.0
1230,183.5675,183.79125,55.0,83.0
1231,183.5675,183.8175,40.0,87.0
1232,183.8675,184.21875,55.0,82.0
1233,183.8675,184.2225,60.0,83.0
1234,184.3175,184.39375,60.0,82.0
1235,184.3175,184.40125,55.0,81.0
1236,183.8675,184.44875,45.0,84.0
1237,184.7675,185.02875,40.0,87.0
1238,184.7675,185.10375,60.0,85.0
1239,184.7675,185.11375,55.0,84.0
1240,185.2175,185.38875000000002,59.0,86.0
1241,185.2175,185.3925,55.0,82.0
1242,185.0675,185.83625,43.0,88.0
1243,185.6675,185.935,55.0,82.0
1244,185.6675,185.95125000000002,59.0,82.0
1245,186.2675,186.61875,55.0,82.0
1246,186.2675,186.6225,60.0,83.0
1247,186.7175,186.79375000000002,60.0,82.0
1248,186.7175,186.80125,55.0,81.0
1249,186.2675,186.84875,45.0,84.0
1250,187.1675,187.42875,40.0,87.0
1251,187.1675,187.50375,60.0,85.0
1252,187.1675,187.51375000000002,55.0,84.0
1253,187.6175,187.78875,59.0,86.0
1254,187.6175,187.7925,55.0,82.0
1255,187.4675,188.23625,43.0,88.0
1256,188.0675,188.335,55.0,82.0
1257,188.0675,188.35125,59.0,82.0
1258,188.6675,189.02875,57.0,81.0
1259,188.6675,189.04,60.0,83.0
1260,188.6675,189.0625,45.0,83.0
1261,189.1175,189.21375,60.0,83.0
1262,189.1175,189.22375,57.0,82.0
1263,189.1175,189.23125000000002,45.0,85.0
1264,189.5675,189.80375,40.0,80.0
1265,189.5675,189.88125,57.0,83.0
1266,189.5675,189.89125,60.0,87.0
1267,189.8675,190.23375000000001,43.0,86.0
1268,190.0175,190.26875,55.0,82.0
1269,190.0175,190.29625000000001,59.0,90.0
1270,190.3175,190.48125000000002,55.0,84.0
1271,190.3175,190.49875,43.0,83.0
1272,190.7675,190.89625,55.0,80.0
1273,190.4675,190.9375,50.0,85.0
1274,190.7675,191.035,40.0,83.0
1275,191.0675,191.38875000000002,60.0,82.0
1276,191.0675,191.3925,57.0,82.0
1277,191.0675,191.4125,45.0,85.0
1278,191.5175,191.60375,60.0,80.0
1279,191.5175,191.6225,57.0,78.0
1280,191.5175,191.6325,45.0,86.0
1281,191.9675,192.19375,40.0,85.0
1282,191.9675,192.405,57.0,75.0
1283,191.9675,192.46875,60.0,79.0
1284,192.2675,192.6125,43.0,87.0
1285,192.7175,192.86,59.0,82.0
1286,192.7175,192.86625,55.0,81.0
1287,192.7175,192.88,43.0,85.0
1288,192.8675,193.36375,50.0,77.0
1289,193.16750000000002,193.38875000000002,59.0,84.0
1290,193.16750000000002,193.39125,55.0,83.0
1291,193.16750000000002,193.41750000000002,40.0,87.0
1292,193.4675,193.81875,55.0,82.0
1293,193.4675,193.8225,60.0,83.0
1294,193.91750000000002,193.99375,60.0,82.0
1295,193.91750000000002,194.00125,55.0,81.0
1296,193.4675,194.04875,45.0,84.0
1297,194.3675,194.62875,40.0,87.0
1298,194.3675,194.70375,60.0,85.0
1299,194.3675,194.71375,55.0,84.0
1300,194.8175,194.98875,59.0,86.0
1301,194.8175,194.9925,55.0,82.0
1302,194.66750000000002,195.43625,43.0,88.0
1303,195.2675,195.535,55.0,82.0
1304,195.2675,195.55125,59.0,82.0
1305,195.8675,196.31625,57.0,77.0
1306,195.8675,196.34,53.0,77.0
1307,195.8675,196.36375,65.0,81.0
1308,195.8675,197.84625,41.0,82.0
1309,197.66750000000002,197.86875,57.0,83.0
1310,197.66750000000002,198.0,60.0,82.0
1311,197.9675,198.07750000000001,53.0,81.0
1312,198.2675,198.56375,59.0,83.0
1313,198.2675,198.585,55.0,81.0
1314,198.7175,198.8,59.0,75.0
1315,198.7175,198.8125,55.0,73.0
1316,198.7175,198.8325,62.0,77.0
1317,198.2675,199.03125,43.0,83.0
1318,199.16750000000002,199.915,67.0,81.0
1319,199.16750000000002,199.93125,59.0,82.0
1320,199.16750000000002,199.9375,55.0,82.0
1321,199.16750000000002,199.97375,50.0,82.0
1322,199.16750000000002,200.00375,43.0,84.0
1323,200.66750000000002,201.02875,52.0,81.0
1324,200.66750000000002,201.035,64.0,81.0
1325,200.66750000000002,201.06375,40.0,87.0
1326,202.4675,202.58,43.0,92.0
1327,202.4675,202.72125,55.0,88.0
1328,202.7675,202.85625000000002,52.0,85.0
1329,203.0675,203.39375,57.0,81.0
1330,203.0675,203.40125,45.0,88.0
1331,203.0675,203.40625,69.0,82.0
1332,203.0675,203.4075,52.0,87.0
1333,203.5175,203.5875,52.0,85.0
1334,203.5175,203.59375,45.0,81.0
1335,203.5175,203.61125,57.0,82.0
1336,203.5175,203.6125,69.0,75.0
1337,203.9675,204.2725,57.0,74.0
1338,203.9675,204.36,61.0,74.0
1339,203.9675,204.65,64.0,81.0
1340,204.5675,204.7475,57.0,81.0
1341,204.8675,205.0625,57.0,83.0
1342,203.9675,205.3975,52.0,90.0
1343,205.16750000000002,205.4,57.0,82.0
1344,204.8675,205.4025,61.0,88.0
1345,203.9675,205.42125000000001,45.0,86.0
1346,204.8675,205.42875,64.0,88.0
1347,205.4675,205.62625,57.0,76.0
1348,205.4675,205.70875,65.0,82.0
1349,205.4675,205.8375,60.0,81.0
1350,205.7675,205.8425,57.0,58.0
1351,206.0675,206.19875000000002,57.0,83.0
1352,206.0675,206.21,60.0,85.0
1353,205.4675,206.45625,41.0,83.0
1354,206.5175,206.61875,60.0,81.0
1355,206.5175,206.6275,57.0,77.0
1356,206.5175,206.63750000000002,65.0,73.0
1357,206.66750000000002,206.81875,41.0,79.0
1358,206.8175,206.955,57.0,76.0
1359,206.8175,206.95625,60.0,82.0
1360,206.9675,207.4625,41.0,81.0
1361,207.2675,207.49625,57.0,84.0
1362,207.2675,207.69375,60.0,90.0
1363,207.2675,207.76625,65.0,83.0
1364,207.5675,207.7825,57.0,77.0
1365,207.8675,208.28875,59.0,81.0
1366,207.8675,208.29250000000002,55.0,82.0
1367,208.4675,208.65625,62.0,82.0
1368,208.4675,208.67625,59.0,83.0
1369,207.8675,208.68375,43.0,82.0
1370,208.4675,208.685,55.0,82.0
1371,208.91750000000002,209.05125,59.0,75.0
1372,208.91750000000002,209.0675,55.0,74.0
1373,208.91750000000002,209.06875,62.0,79.0
1374,208.91750000000002,209.07500000000002,67.0,70.0
1375,209.0675,209.20875,43.0,80.0
1376,209.2175,209.35875000000001,59.0,78.0
1377,209.2175,209.36875,62.0,80.0
1378,209.2175,209.37,55.0,75.0
1379,209.3675,209.78625,43.0,77.0
1380,209.66750000000002,209.845,55.0,85.0
1381,209.66750000000002,209.935,59.0,88.0
1382,209.66750000000002,210.06125,62.0,85.0
1383,209.9675,210.13,55.0,82.0
1384,210.2675,210.66875000000002,69.0,76.0
1385,210.2675,210.67625,59.0,74.0
1386,210.2675,210.68375,62.0,74.0
1387,210.2675,210.97625,47.0,83.0
1388,210.8675,211.12375,69.0,83.0
1389,210.8675,211.13375,59.0,82.0
1390,210.8675,211.13625000000002,62.0,87.0
1391,211.16750000000002,211.24625,53.0,71.0
1392,211.3175,211.4225,62.0,82.0
1393,211.3175,211.43375,59.0,81.0
1394,211.3175,211.43625,69.0,80.0
1395,211.4675,211.5825,47.0,79.0
1396,211.6175,211.74,62.0,82.0
1397,211.6175,211.75125,59.0,81.0
1398,211.6175,211.76,69.0,79.0
1399,212.0675,212.1625,59.0,82.0
1400,211.7675,212.195,53.0,76.0
1401,212.0675,212.21125,62.0,85.0
1402,211.7675,212.29250000000002,47.0,81.0
1403,212.3675,212.53125,59.0,76.0
1404,212.0675,212.56375,69.0,82.0
1405,212.66750000000002,212.80125,40.0,83.0
1406,212.9675,213.1175,59.0,67.0
1407,212.9675,213.1175,64.0,75.0
1408,212.9675,213.12375,40.0,77.0
1409,213.2675,213.4075,40.0,83.0
1410,213.41750000000002,213.445,69.0,69.0
1411,213.2675,213.565,59.0,82.0
1412,213.2675,213.59,64.0,86.0
1413,213.5675,213.65375,40.0,73.0
1414,213.7175,213.82625000000002,64.0,87.0
1415,213.7175,213.83625,59.0,84.0
1416,213.7175,213.84375,68.0,83.0
1417,213.8675,213.9625,40.0,78.0
1418,214.0175,214.145,64.0,83.0
1419,214.0175,214.14625,59.0,81.0
1420,214.0175,214.17625,68.0,78.0
1421,214.4675,214.62625,59.0,85.0
1422,214.4675,214.695,64.0,88.0
1423,214.16750000000002,214.70250000000001,40.0,82.0
1424,214.7675,215.07125,59.0,87.0
1425,214.7675,215.0825,64.0,56.0
1426,214.4675,215.10875000000001,68.0,85.0
1427,215.0675,215.33,60.0,79.0
1428,215.0675,215.40875,53.0,76.0
1429,215.3675,215.85125,48.0,81.0
1430,215.66750000000002,215.9625,57.0,84.0
1431,215.66750000000002,215.975,53.0,82.0
1432,215.66750000000002,215.975,60.0,83.0
1433,215.9675,216.10625000000002,48.0,62.0
1434,215.0675,216.11625,41.0,83.0
1435,216.1175,216.25125,57.0,85.0
1436,216.1175,216.25375,53.0,82.0
1437,216.1175,216.26250000000002,60.0,83.0
1438,216.2675,216.46125,41.0,82.0
1439,216.41750000000002,216.53625,57.0,86.0
1440,216.41750000000002,216.53625,60.0,82.0
1441,216.41750000000002,216.54875,53.0,82.0
1442,216.5675,216.95125000000002,48.0,78.0
1443,216.8675,217.065,53.0,87.0
1444,216.5675,217.06625,41.0,69.0
1445,216.8675,217.085,57.0,90.0
1446,216.8675,217.14000000000001,60.0,90.0
1447,217.16750000000002,217.28,41.0,56.0
1448,217.16750000000002,217.3,48.0,82.0
1449,217.4675,217.70000000000002,59.0,81.0
1450,217.4675,217.73625,55.0,79.0
1451,217.7675,218.14625,50.0,72.0
1452,217.4675,218.1925,43.0,83.0
1453,218.0675,218.27,62.0,85.0
1454,218.0675,218.27875,59.0,90.0
1455,218.0675,218.285,67.0,80.0
1456,218.0675,218.30875,55.0,83.0
1457,218.5175,218.62375,62.0,79.0
1458,218.5175,218.64125,55.0,79.0
1459,218.5175,218.64125,59.0,83.0
1460,218.8175,218.955,55.0,74.0
1461,218.8175,218.95625,59.0,82.0
1462,218.8175,218.965,62.0,81.0
1463,218.9675,219.35500000000002,50.0,78.0
1464,219.2675,219.40125,55.0,86.0
1465,218.66750000000002,219.41750000000002,43.0,82.0
1466,219.2675,219.43,62.0,86.0
1467,219.2675,219.43125,59.0,88.0
1468,219.5675,219.68,43.0,81.0
1469,219.8675,220.125,55.0,74.0
1470,219.8675,220.14000000000001,52.0,67.0
1471,220.4675,220.57500000000002,64.0,83.0
1472,220.16750000000002,220.58375,47.0,81.0
1473,220.4675,220.59125,52.0,84.0
1474,219.8675,220.87125,40.0,81.0
1475,220.7675,220.88875000000002,47.0,70.0
1476,220.91750000000002,220.9975,52.0,76.0
1477,220.91750000000002,221.04125,59.0,78.0
1478,221.0675,221.27125,40.0,83.0
1479,221.2175,221.35500000000002,52.0,84.0
1480,221.3675,221.735,47.0,82.0
1481,221.3675,221.77875,40.0,76.0
1482,221.66750000000002,221.88,52.0,88.0
1483,221.66750000000002,221.9025,55.0,92.0
1484,221.9675,222.08375,40.0,83.0
1485,222.2675,222.39875,57.0,64.0
1486,222.2675,222.40625,55.0,66.0
1487,222.5675,222.97625,52.0,75.0
1488,222.2675,223.0025,45.0,83.0
1489,222.8675,223.0725,57.0,84.0
1490,222.8675,223.0825,60.0,88.0
1491,223.16750000000002,223.27625,45.0,77.0
1492,223.3175,223.435,57.0,82.0
1493,223.6175,223.755,57.0,83.0
1494,223.6175,223.76375000000002,61.0,88.0
1495,223.7675,224.10875000000001,52.0,82.0
1496,223.4675,224.13375,45.0,83.0
1497,224.0675,224.33625,61.0,84.0
1498,224.0675,224.36875,57.0,81.0
1499,224.0675,224.40375,64.0,83.0
1500,224.3675,224.48375000000001,52.0,87.0
1501,224.3675,224.51,45.0,82.0
1502,224.66750000000002,224.82625000000002,57.0,76.0
1503,224.66750000000002,224.90875,65.0,82.0
1504,224.66750000000002,225.0375,60.0,81.0
1505,224.9675,225.04250000000002,57.0,58.0
1506,225.2675,225.39875,57.0,83.0
1507,225.2675,225.41,60.0,85.0
1508,224.66750000000002,225.65625,41.0,83.0
1509,225.7175,225.81875,60.0,81.0
1510,225.7175,225.82750000000001,57.0,77.0
1511,225.7175,225.8375,65.0,73.0
1512,225.8675,226.01875,41.0,79.0
1513,226.0175,226.155,57.0,76.0
1514,226.0175,226.15625,60.0,82.0
1515,226.16750000000002,226.6625,41.0,81.0
1516,226.4675,226.69625,57.0,84.0
1517,226.4675,226.89375,60.0,90.0
1518,226.4675,226.96625,65.0,83.0
1519,226.7675,226.98250000000002,57.0,77.0
1520,227.0675,227.48875,59.0,81.0
1521,227.0675,227.4925,55.0,82.0
1522,227.66750000000002,227.85625000000002,62.0,82.0
1523,227.66750000000002,227.87625,59.0,83.0
1524,227.0675,227.88375,43.0,82.0
1525,227.66750000000002,227.885,55.0,82.0
1526,228.1175,228.25125,59.0,75.0
1527,228.1175,228.2675,55.0,74.0
1528,228.1175,228.26875,62.0,79.0
1529,228.1175,228.275,67.0,70.0
1530,228.2675,228.40875,43.0,80.0
1531,228.41750000000002,228.55875,59.0,78.0
1532,228.41750000000002,228.56875,62.0,80.0
1533,228.41750000000002,228.57,55.0,75.0
1534,228.5675,228.98625,43.0,77.0
1535,228.8675,229.04500000000002,55.0,85.0
1536,228.8675,229.135,59.0,88.0
1537,228.8675,229.26125000000002,62.0,85.0
1538,229.16750000000002,229.33,55.0,82.0
1539,229.4675,229.5525,57.0,71.0
1540,229.4675,229.66875000000002,62.0,81.0
1541,229.4675,229.685,65.0,82.0
1542,229.7675,229.8825,57.0,79.0
1543,229.4675,229.975,50.0,84.0
1544,230.0675,230.21125,57.0,82.0
1545,230.0675,230.21625,62.0,84.0
1546,230.0675,230.24625,65.0,83.0
1547,230.5175,230.64125,57.0,82.0
1548,230.5175,230.64375,62.0,82.0
1549,230.5175,230.66625,65.0,81.0
1550,230.66750000000002,230.93375,38.0,82.0
1551,230.8175,230.95000000000002,57.0,82.0
1552,230.8175,230.965,62.0,81.0
1553,230.8175,230.98250000000002,65.0,81.0
1554,230.9675,231.11625,38.0,82.0
1555,231.2675,231.38375,57.0,83.0
1556,231.2675,231.4625,62.0,85.0
1557,231.2675,231.54500000000002,65.0,86.0
1558,231.5675,231.67625,57.0,82.0
1559,231.8675,232.15125,52.0,83.0
1560,231.8675,232.1525,56.0,85.0
1561,231.8675,232.16750000000002,59.0,83.0
1562,232.16750000000002,232.53125,47.0,78.0
1563,232.4675,232.5575,56.0,82.0
1564,231.8675,232.565,40.0,84.0
1565,232.4675,232.585,52.0,83.0
1566,232.4675,232.60875000000001,64.0,85.0
1567,232.91750000000002,233.0275,52.0,81.0
1568,232.91750000000002,233.035,64.0,82.0
1569,233.0675,233.21875,40.0,82.0
1570,233.2175,233.3125,52.0,84.0
1571,233.2175,233.33,56.0,80.0
1572,233.2175,233.33,59.0,86.0
1573,233.3675,233.74,47.0,83.0
1574,233.66750000000002,233.83375,52.0,84.0
1575,233.3675,233.9325,40.0,72.0
1576,233.9675,234.2525,52.0,87.0
1577,233.66750000000002,234.25625,56.0,85.0
1578,233.66750000000002,234.305,64.0,86.0
1579,233.66750000000002,234.31375,59.0,84.0
1580,234.2675,234.5975,57.0,74.0
1581,234.2675,234.62375,60.0,76.0
1582,234.7175,234.80375,60.0,85.0
1583,234.7175,234.8075,55.0,86.0
1584,234.2675,234.8925,45.0,81.0
1585,235.16750000000002,235.51875,60.0,82.0
1586,235.16750000000002,235.52875,55.0,82.0
1587,235.4675,236.45250000000001,43.0,81.0
1588,236.3675,236.53875,55.0,83.0
1589,236.3675,236.55875,59.0,83.0
1590,236.3675,236.5675,62.0,82.0
1591,236.66750000000002,237.02,60.0,81.0
1592,236.66750000000002,237.02125,57.0,74.0
1593,237.1175,237.2125,57.0,73.0
1594,237.1175,237.215,60.0,75.0
1595,237.1175,237.2175,64.0,78.0
1596,236.66750000000002,237.3025,45.0,82.0
1597,237.5675,237.88375,60.0,71.0
1598,237.5675,237.90875,57.0,70.0
1599,237.5675,238.1325,64.0,81.0
1600,238.16750000000002,238.50875,59.0,77.0
1601,238.16750000000002,238.51375000000002,55.0,76.0
1602,238.16750000000002,238.52125,62.0,78.0
1603,237.7175,238.60625000000002,43.0,71.0
1604,238.4675,238.67125000000001,50.0,70.0
1605,238.6175,238.74625,55.0,81.0
1606,238.6175,238.7475,59.0,82.0
1607,238.6175,238.76500000000001,62.0,82.0
1608,239.0675,239.39000000000001,57.0,70.0
1609,239.0675,239.4075,60.0,78.0
1610,239.5175,239.62125,60.0,78.0
1611,239.5175,239.63125,57.0,74.0
1612,239.0675,239.72875,45.0,82.0
1613,239.9675,240.12625,60.0,76.0
1614,239.9675,240.14625,57.0,75.0
1615,240.2675,240.96,55.0,74.0
1616,240.2675,240.9675,59.0,75.0
1617,241.0175,241.19625,55.0,80.0
1618,240.2675,241.31375,43.0,66.0
1619,241.16750000000002,241.3625,59.0,81.0
1620,241.4675,241.80375,57.0,75.0
1621,241.4675,241.815,60.0,83.0
1622,241.91750000000002,242.0175,57.0,75.0
1623,241.91750000000002,242.02,60.0,82.0
1624,241.4675,242.0975,45.0,81.0
1625,242.3675,242.77125,57.0,76.0
1626,242.3675,242.8075,60.0,80.0
1627,242.66750000000002,243.13125,43.0,80.0
1628,242.9675,243.29875,59.0,83.0
1629,242.9675,243.3025,62.0,85.0
1630,242.9675,243.31,55.0,82.0
1631,243.2675,243.41625,50.0,79.0
1632,243.41750000000002,243.60875000000001,55.0,82.0
1633,243.41750000000002,243.64000000000001,59.0,86.0
1634,243.41750000000002,243.64625,62.0,86.0
1635,243.5675,243.805,43.0,77.0
1636,243.7175,243.8225,55.0,82.0
1637,243.8675,244.21875,55.0,82.0
1638,243.8675,244.2225,60.0,83.0
1639,244.3175,244.39375,60.0,82.0
1640,244.3175,244.40125,55.0,81.0
1641,243.8675,244.9925,45.0,83.0
1642,244.7675,245.10375,60.0,85.0
1643,244.7675,245.11375,55.0,84.0
1644,245.2175,245.38875000000002,59.0,86.0
1645,245.2175,245.3925,55.0,82.0
1646,245.66750000000002,245.935,55.0,82.0
1647,245.66750000000002,245.95125000000002,59.0,82.0
1648,245.0675,245.96625,43.0,82.0
1649,246.2675,246.62875,57.0,81.0
1650,246.2675,246.64000000000001,60.0,83.0
1651,246.7175,246.81375,60.0,83.0
1652,246.7175,246.82375000000002,57.0,82.0
1653,246.2675,247.31125,45.0,83.0
1654,247.16750000000002,247.48125000000002,57.0,83.0
1655,247.16750000000002,247.49125,60.0,87.0
1656,247.6175,247.86875,55.0,82.0
1657,247.6175,247.89625,59.0,90.0
1658,247.91750000000002,248.08125,55.0,84.0
1659,248.3675,248.49625,55.0,80.0
1660,248.0675,248.5375,50.0,85.0
1661,247.4675,248.56,43.0,82.0
1662,248.66750000000002,248.98875,60.0,82.0
1663,248.66750000000002,248.9925,57.0,82.0
1664,249.1175,249.20375,60.0,80.0
1665,249.1175,249.2225,57.0,78.0
1666,248.66750000000002,249.66125,45.0,83.0
1667,249.5675,250.005,57.0,75.0
1668,249.5675,250.06875,60.0,79.0
1669,250.3175,250.46,59.0,82.0
1670,250.3175,250.46625,55.0,81.0
1671,250.4675,250.96375,50.0,77.0
1672,249.8675,250.97,43.0,82.0
1673,250.7675,250.98875,59.0,84.0
1674,250.7675,250.99125,55.0,83.0
1675,251.0675,251.41875000000002,55.0,82.0
1676,251.0675,251.4225,60.0,83.0
1677,251.5175,251.59375,60.0,82.0
1678,251.5175,251.60125,55.0,81.0
1679,251.0675,252.1925,45.0,83.0
1680,251.9675,252.30375,60.0,85.0
1681,251.9675,252.31375,55.0,84.0
1682,252.41750000000002,252.58875,59.0,86.0
1683,252.41750000000002,252.5925,55.0,82.0
1684,252.8675,253.13500000000002,55.0,82.0
1685,252.8675,253.15125,59.0,82.0
1686,252.2675,253.16625000000002,43.0,82.0
1687,253.4675,253.82875,57.0,81.0
1688,253.4675,253.84,60.0,83.0
1689,253.91750000000002,254.01375000000002,60.0,83.0
1690,253.91750000000002,254.02375,57.0,82.0
1691,253.4675,254.51125000000002,45.0,83.0
1692,254.3675,254.68125,57.0,83.0
1693,254.3675,254.69125,60.0,87.0
1694,254.8175,255.06875,55.0,82.0
1695,254.8175,255.09625,59.0,90.0
1696,255.1175,255.28125,55.0,84.0
1697,255.5675,255.69625,55.0,80.0
1698,255.2675,255.7375,50.0,85.0
1699,254.66750000000002,255.76000000000002,43.0,82.0
1700,255.8675,256.18875,60.0,82.0
1701,255.8675,256.1925,57.0,82.0
1702,256.3175,256.40375,60.0,80.0
1703,256.3175,256.4225,57.0,78.0
1704,255.8675,256.86125,45.0,83.0
1705,256.7675,257.205,57.0,75.0
1706,256.7675,257.26875,60.0,79.0
1707,257.5175,257.66,59.0,82.0
1708,257.5175,257.66625,55.0,81.0
1709,257.6675,258.16375,50.0,77.0
1710,257.0675,258.17,43.0,82.0
1711,257.96750000000003,258.18875,59.0,84.0
1712,257.96750000000003,258.19125,55.0,83.0
1713,258.2675,258.61875,55.0,82.0
1714,258.2675,258.6225,60.0,83.0
1715,258.71750000000003,258.79375,60.0,82.0
1716,258.71750000000003,258.80125,55.0,81.0
1717,258.2675,259.3925,45.0,83.0
1718,259.1675,259.50375,60.0,85.0
1719,259.1675,259.51375,55.0,84.0
1720,259.6175,259.78875,59.0,86.0
1721,259.6175,259.7925,55.0,82.0
1722,260.0675,260.335,55.0,82.0
1723,260.0675,260.35125,59.0,82.0
1724,259.46750000000003,260.36625,43.0,82.0
1725,260.69125,261.14125,69.0,76.0
1726,260.665,261.1875,64.0,75.0
1727,260.6075,261.21,60.0,72.0
1728,260.5575,261.23,57.0,67.0
1729,260.6175,261.245,45.0,83.0
1730,261.62375000000003,261.88625,60.0,85.0
1731,261.625,261.8925,55.0,84.0
1732,262.10875,262.26,60.0,81.0
1733,262.10625,262.28125,64.0,82.0
1734,262.105,262.2875,55.0,79.0
1735,262.49125,262.58625,60.0,75.0
1736,262.48125,262.595,55.0,67.0
1737,262.50625,262.69875,67.0,70.0
1738,262.93125,263.14875,67.0,61.0
1739,262.91875,263.2375,71.0,70.0
1740,263.31625,263.5725,69.0,73.0
1741,263.85875,264.04625,67.0,49.0
1742,263.91,264.1725,69.0,68.0
1743,263.99375,264.17375,74.0,79.0
1744,264.5125,264.59000000000003,67.0,54.0
1745,264.64125,264.7625,79.0,62.0
1746,265.005,265.1475,79.0,66.0
1747,265.0025,265.1625,83.0,72.0
1748,265.27750000000003,265.58,86.0,72.0
1749,265.53125,265.815,84.0,65.0
1750,265.7625,266.0375,83.0,68.0
1751,266.04375,266.29,81.0,66.0
1752,266.28375,266.53625,79.0,68.0
1753,266.5675,266.75875,81.0,48.0
1754,268.0975,269.08625,55.0,28.0
1755,268.08125,269.1375,60.0,71.0
1756,267.29625,269.1425,52.0,62.0
1757,263.8525,269.20125,45.0,64.0
1758,270.495,270.65,55.0,63.0
1759,270.5525,271.03375,59.0,73.0
1760,270.695,271.595,64.0,67.0
1761,270.8675,271.7675,67.0,67.0
1762,270.4525,272.2,52.0,69.0
1763,270.26375,272.235,45.0,63.0
