,start,end,pitch,velocity
0,30.260684025000003,30.696397875000002,70.0,107.0
1,30.689255025000005,31.117826025000003,72.0,104.0
2,31.117826025000003,32.40353902500001,75.0,108.0
3,32.40353902500001,32.832110025000006,77.0,108.0
4,32.832110025000006,33.260681025000004,79.0,100.0
5,33.260681025000004,33.68746631250001,74.0,102.0
6,33.689252025,33.903537525000004,74.0,102.0
7,33.903537525000004,34.11782302500001,72.0,89.0
8,34.11782302500001,34.546394025000005,70.0,100.0
9,34.546394025000005,37.11782002500001,72.0,108.0
10,37.11782002500001,37.546391025000005,75.0,113.0
11,37.546391025000005,37.974962025,77.0,107.0
12,37.974962025,39.260675025000005,79.0,107.0
13,39.260675025000005,39.689246025,82.0,110.0
14,39.689246025,40.11781702500001,84.0,108.0
15,40.11781702500001,40.546388025000006,75.0,116.0
16,40.546388025000006,40.79103063750001,77.0,107.0
17,40.76067352500001,40.974959025000004,79.0,91.0
18,40.974959025000004,41.403530025,80.0,86.0
19,41.403530025,43.9731703125,79.0,92.0
20,43.974956025000004,44.403527025,79.0,113.0
21,44.403527025,44.83209802500001,82.0,92.0
22,44.83209802500001,46.11781102500001,84.0,108.0
23,46.11781102500001,46.54638202500001,82.0,116.0
24,46.54638202500001,47.403524025,84.0,114.0
25,47.403524025,47.83209502500001,72.0,116.0
26,47.83209502500001,48.260666025000006,79.0,113.0
27,48.260666025000006,49.54637902500001,77.0,114.0
28,49.54637902500001,49.974950025000005,75.0,113.0
29,49.974950025000005,50.83209202500001,77.0,107.0
30,50.83209202500001,51.26066302500001,77.0,113.0
31,51.26066302500001,51.689234025000005,79.0,108.0
32,51.689234025000005,52.974947025000006,70.0,110.0
33,52.974947025000006,53.403518025000004,72.0,113.0
34,53.403518025000004,53.846374725000004,74.0,102.0
35,53.83208902500001,54.26066002500001,77.0,107.0
36,54.26066002500001,54.48208837500001,79.0,94.0
37,54.47494552500001,54.689231025000005,77.0,91.0
38,54.689231025000005,55.11780202500001,72.0,87.0
39,55.11780202500001,58.97494102500001,75.0,110.0
40,58.97494102500001,59.40172631250001,82.0,110.0
41,59.403512025000005,59.83208302500001,82.0,119.0
42,59.83208302500001,60.26065402500001,84.0,117.0
43,60.26065402500001,60.689225025000006,87.0,120.0
44,60.689225025000006,61.33208152500001,86.0,120.0
45,61.33208152500001,61.760652525000005,84.0,117.0
46,61.760652525000005,62.00708085000001,82.0,114.0
47,61.97493802500001,65.832077025,84.0,117.0
48,65.832077025,66.25886231250001,82.0,113.0
49,66.26064802500001,66.68921902500001,82.0,113.0
50,66.68921902500001,67.117790025,84.0,117.0
51,67.117790025,67.54636102500001,87.0,110.0
52,67.54636102500001,68.403503025,86.0,114.0
53,68.403503025,68.61778852500001,84.0,108.0
54,68.61778852500001,69.260645025,82.0,113.0
55,69.260645025,71.40350002500001,79.0,113.0
56,71.40350002500001,71.832071025,70.0,116.0
57,71.832071025,72.26064202500001,72.0,113.0
58,72.26064202500001,73.54635502500001,75.0,114.0
59,73.54635502500001,73.97492602500002,77.0,113.0
60,73.97492602500002,74.40349702500001,79.0,108.0
61,74.40349702500001,74.8302823125,74.0,104.0
62,74.83206802500001,75.04635352500001,74.0,107.0
63,75.04635352500001,75.260639025,72.0,93.0
64,75.260639025,75.68921002500001,70.0,100.0
65,75.68921002500001,78.26063602500001,72.0,107.0
66,78.26063602500001,78.68920702500002,75.0,114.0
67,78.68920702500002,79.117778025,77.0,107.0
68,79.117778025,80.40349102500001,79.0,113.0
69,80.40349102500001,80.83206202500001,82.0,113.0
70,80.83206202500001,81.260633025,84.0,110.0
71,81.260633025,81.70884686250001,75.0,113.0
72,81.68920402500001,81.91777522500001,77.0,102.0
73,81.90348952500001,82.11777502500001,79.0,102.0
74,82.11777502500001,82.546346025,80.0,97.0
75,82.546346025,85.11598631250001,79.0,107.0
76,85.11777202500001,85.54634302500001,79.0,113.0
77,85.54634302500001,85.97491402500002,82.0,113.0
78,85.97491402500002,87.260627025,84.0,117.0
79,87.260627025,87.68919802500001,82.0,116.0
80,87.68919802500001,88.546340025,84.0,116.0
81,88.546340025,88.97491102500001,72.0,116.0
82,88.97491102500001,89.40348202500002,79.0,116.0
83,89.40348202500002,90.68919502500002,77.0,119.0
84,90.68919502500002,91.11776602500001,75.0,116.0
85,91.11776602500001,91.97490802500002,77.0,114.0
86,91.97490802500002,92.40347902500001,77.0,116.0
87,92.40347902500001,92.83205002500002,79.0,113.0
88,92.83205002500002,94.11776302500002,70.0,116.0
89,94.11776302500002,94.54633402500001,72.0,114.0
90,94.54633402500001,94.99097643750001,74.0,110.0
91,94.97490502500001,95.40347602500002,77.0,113.0
92,95.40347602500002,95.83204702500001,79.0,104.0
93,95.83204702500001,96.26061802500001,72.0,116.0
94,96.26061802500001,99.75704310000002,75.0,116.0
95,126.26058802500002,126.69630187500002,70.0,107.0
96,126.68915902500002,127.11773002500001,72.0,104.0
97,127.11773002500001,128.40344302500003,75.0,108.0
98,128.40344302500003,128.832014025,77.0,108.0
99,128.832014025,129.260585025,79.0,100.0
100,129.260585025,129.6873703125,74.0,102.0
101,129.68915602500002,129.903441525,74.0,102.0
102,129.903441525,130.11772702500002,72.0,89.0
103,130.11772702500002,130.54629802500003,70.0,100.0
104,130.54629802500003,133.11772402500003,72.0,108.0
105,133.11772402500003,133.546295025,75.0,113.0
106,133.546295025,133.974866025,77.0,107.0
107,133.974866025,135.26057902500003,79.0,107.0
108,135.26057902500003,135.689150025,82.0,110.0
109,135.689150025,136.117721025,84.0,108.0
110,136.117721025,136.546292025,75.0,116.0
111,136.546292025,136.79093463750002,77.0,107.0
112,136.76057752500003,136.97486302500002,79.0,91.0
113,136.97486302500002,137.40343402500002,80.0,86.0
114,137.40343402500002,139.97307431250002,79.0,92.0
115,139.97486002500003,140.40343102500003,79.0,113.0
116,140.40343102500003,140.832002025,82.0,92.0
117,140.832002025,142.11771502500002,84.0,108.0
118,142.11771502500002,142.54628602500003,82.0,116.0
119,142.54628602500003,143.403428025,84.0,114.0
120,143.403428025,143.83199902500002,72.0,116.0
121,143.83199902500002,144.26057002500002,79.0,113.0
122,144.26057002500002,145.546283025,77.0,114.0
123,145.546283025,145.974854025,75.0,113.0
124,145.974854025,146.83199602500002,77.0,107.0
125,146.83199602500002,147.26056702500003,77.0,113.0
126,147.26056702500003,147.689138025,79.0,108.0
127,147.689138025,148.97485102500002,70.0,110.0
128,148.97485102500002,149.40342202500003,72.0,113.0
129,149.40342202500003,149.84627872500002,74.0,102.0
130,149.83199302500003,150.260564025,77.0,107.0
131,150.260564025,150.48199237500003,79.0,94.0
132,150.47484952500002,150.689135025,77.0,91.0
133,150.689135025,151.11770602500002,72.0,87.0
134,151.11770602500002,154.54627402500003,75.0,110.0
135,154.974845025,155.40163031250003,82.0,110.0
136,155.403416025,155.83198702500002,82.0,119.0
137,155.83198702500002,156.26055802500002,84.0,117.0
138,156.26055802500002,156.68912902500003,87.0,120.0
139,156.68912902500003,157.546271025,86.0,120.0
140,157.546271025,157.76055652500003,84.0,117.0
141,157.76055652500003,158.00698485,82.0,114.0
142,157.97484202500002,161.83198102500003,84.0,117.0
143,161.83198102500003,162.25876631250003,82.0,113.0
144,162.260552025,162.68912302500001,82.0,113.0
145,162.68912302500001,163.11769402500002,84.0,117.0
146,163.11769402500002,163.54626502500003,87.0,110.0
147,163.54626502500003,164.40340702500004,86.0,114.0
148,164.40340702500004,164.61769252500002,84.0,108.0
149,164.61769252500002,165.26054902500002,82.0,113.0
150,165.26054902500002,167.40340402500001,79.0,113.0
151,167.40340402500001,167.83197502500002,70.0,116.0
152,167.83197502500002,168.26054602500002,72.0,113.0
153,168.26054602500002,169.546259025,75.0,114.0
154,169.546259025,169.97483002500002,77.0,113.0
155,169.97483002500002,170.40340102500002,79.0,108.0
156,170.40340102500002,170.83018631250002,74.0,104.0
157,170.83197202500003,171.04625752500002,74.0,107.0
158,171.04625752500002,171.26054302500003,72.0,93.0
159,171.26054302500003,171.689114025,70.0,100.0
160,171.689114025,174.260540025,72.0,107.0
161,174.260540025,174.68911102500002,75.0,114.0
162,174.68911102500002,175.11768202500002,77.0,107.0
163,175.11768202500002,176.403395025,79.0,113.0
164,176.403395025,176.831966025,82.0,113.0
165,176.831966025,177.26053702500002,84.0,110.0
166,177.26053702500002,177.7087508625,75.0,113.0
167,177.68910802500002,177.91767922500003,77.0,102.0
168,177.903393525,178.11767902500003,79.0,102.0
169,178.11767902500003,178.54625002500003,80.0,97.0
170,178.54625002500003,181.11589031250003,79.0,107.0
171,181.11767602500004,181.546247025,79.0,113.0
172,181.546247025,181.97481802500002,82.0,113.0
173,181.97481802500002,183.26053102500003,84.0,117.0
174,183.26053102500003,183.689102025,82.0,116.0
175,183.689102025,184.54624402500002,84.0,116.0
176,184.54624402500002,184.97481502500003,72.0,116.0
177,184.97481502500003,185.40338602500003,79.0,116.0
178,185.40338602500003,186.68909902500002,77.0,119.0
179,186.68909902500002,187.11767002500002,75.0,116.0
180,187.11767002500002,187.97481202500003,77.0,114.0
181,187.97481202500003,188.403383025,77.0,116.0
182,188.403383025,188.83195402500002,79.0,113.0
183,188.83195402500002,190.11766702500003,70.0,116.0
184,190.11766702500003,190.54623802500004,72.0,114.0
185,190.54623802500004,190.99088043750004,74.0,110.0
186,190.974809025,191.40338002500002,77.0,113.0
187,191.40338002500002,191.83195102500002,79.0,104.0
188,191.83195102500002,192.26052202500003,72.0,116.0
189,192.26052202500003,195.75694710000002,75.0,116.0
190,196.18551810000002,196.61230338750002,82.0,110.0
191,196.61408910000003,197.04266010000003,82.0,119.0
192,197.04266010000003,197.47123110000004,84.0,117.0
193,197.47123110000004,197.89980210000002,87.0,120.0
194,197.89980210000002,198.54265860000004,86.0,120.0
195,198.54265860000004,198.97122960000002,84.0,117.0
196,198.97122960000002,199.21765792500003,82.0,114.0
197,199.18551510000003,203.04265410000002,84.0,117.0
198,203.04265410000002,203.46943938750002,82.0,113.0
199,203.47122510000003,203.89979610000003,82.0,113.0
200,203.89979610000003,204.32836710000004,84.0,117.0
201,204.32836710000004,204.7569381,87.0,110.0
202,204.7569381,205.61408010000002,86.0,114.0
203,205.61408010000002,205.82836560000004,84.0,108.0
204,205.82836560000004,206.47122210000003,82.0,113.0
205,206.47122210000003,208.61407710000003,79.0,113.0
206,208.61407710000003,209.04264810000004,70.0,116.0
207,209.04264810000004,209.4712191,72.0,113.0
208,209.4712191,210.75693210000003,75.0,114.0
209,210.75693210000003,211.18550310000003,77.0,113.0
210,211.18550310000003,211.61407410000004,79.0,108.0
211,211.61407410000004,212.04085938750003,74.0,104.0
212,212.04264510000002,212.25693060000003,74.0,107.0
213,212.25693060000003,212.47121610000002,72.0,93.0
214,212.47121610000002,212.89978710000003,70.0,100.0
215,212.89978710000003,215.47121310000003,72.0,107.0
216,215.47121310000003,215.89978410000003,75.0,114.0
217,215.89978410000003,216.32835510000004,77.0,107.0
218,216.32835510000004,217.61406810000003,79.0,113.0
219,217.61406810000003,218.04263910000003,82.0,113.0
220,218.04263910000003,218.47121010000004,84.0,110.0
221,218.47121010000004,218.91942393750003,75.0,113.0
222,218.89978110000004,219.12835230000002,77.0,102.0
223,219.11406660000003,219.32835210000002,79.0,102.0
224,219.32835210000002,219.75692310000002,80.0,97.0
225,219.75692310000002,222.32656338750002,79.0,107.0
226,222.32834910000003,222.75692010000003,79.0,113.0
227,222.75692010000003,223.18549110000004,82.0,113.0
228,223.18549110000004,224.47120410000002,84.0,117.0
229,224.47120410000002,224.89977510000003,82.0,116.0
230,224.89977510000003,225.75691710000004,84.0,116.0
231,225.75691710000004,226.18548810000004,72.0,116.0
232,226.18548810000004,226.61405910000002,79.0,116.0
233,226.61405910000002,227.89977210000004,77.0,119.0
234,227.89977210000004,228.32834310000004,75.0,116.0
235,228.32834310000004,229.18548510000002,77.0,114.0
236,229.18548510000002,229.61405610000003,77.0,116.0
237,229.61405610000003,230.04262710000003,79.0,113.0
238,230.04262710000003,231.32834010000002,70.0,116.0
239,231.32834010000002,231.75691110000002,72.0,114.0
240,231.75691110000002,232.19976780000002,74.0,110.0
241,232.18548210000003,232.61405310000004,77.0,113.0
242,232.61405310000004,233.04262410000004,79.0,104.0
243,233.04262410000004,233.47119510000002,72.0,116.0
244,236.16940668750004,236.93726306250002,79.0,104.0
245,233.47119510000002,236.96583446250003,75.0,116.0
246,236.93726306250002,238.20333322500002,70.0,116.0
247,238.20333322500002,238.62833280000004,72.0,104.0
248,238.62833280000004,239.06226093750004,74.0,108.0
249,239.06226093750004,239.48547480000002,77.0,100.0
250,239.48547480000002,239.93011721250002,79.0,110.0
251,239.93011721250002,240.36047392500004,72.0,88.0
252,240.36047392500004,243.75154196250003,75.0,108.0
253,243.75154196250003,245.39082603750003,74.0,117.0
254,245.39082603750003,247.54618102500004,79.0,114.0
255,247.54618102500004,249.98546430000005,75.0,108.0
