,start,end,pitch,velocity
0,1.6082082583333335,2.048506575,65.0,81.0
1,2.0559692583333335,2.496267575,65.0,81.0
2,2.5037302583333334,2.944028575,65.0,80.0
3,2.9514912583333333,3.167909075,61.0,83.0
4,3.175371758333333,3.3917895750000002,61.0,84.0
5,3.3992522583333336,3.612487325,65.0,82.0
6,3.6198402583333333,4.0536633250000005,72.0,86.0
7,4.061016258333334,5.0856585,70.0,84.0
8,5.092415258333333,5.76665775,72.0,94.0
9,5.774233508333333,6.448475999999999,67.0,95.0
10,6.4560517583333334,7.3575669999999995,63.0,86.0
11,7.365142758333333,9.175749,68.0,98.0
12,9.183324758333335,9.353779320833333,61.0,90.0
13,9.361355079166668,9.588627829166667,61.0,81.0
14,9.5962035875,9.89322744375,61.0,84.0
15,9.900370302083333,10.212870354166666,61.0,84.0
16,10.2200132125,10.4878704,60.0,83.0
17,10.495013258333334,10.823371325,58.0,75.0
18,10.830834008333333,11.110684633333333,58.0,72.0
19,11.118147316666667,11.383072575,58.0,82.0
20,11.390535258333333,11.824358325,58.0,76.0
21,11.831711258333334,12.706710325,63.0,81.0
22,12.714063258333333,15.360241575,60.0,82.0
23,15.367704258333333,15.584122075,63.0,75.0
24,15.591584758333333,15.808002575,63.0,83.0
25,15.815465258333333,16.255763575,65.0,80.0
26,16.263226258333333,16.703524575,65.0,84.0
27,16.710987258333333,17.151285575,65.0,83.0
28,17.158748258333333,17.599046575,61.0,90.0
29,17.606509258333332,17.822927075,65.0,81.0
30,17.830389758333332,18.270688075,72.0,80.0
31,18.278150758333332,18.949001,70.0,90.0
32,18.95657675833333,19.17627375,68.0,84.0
33,19.18384950833333,19.403546499999997,70.0,84.0
34,19.411122258333332,19.872059758333332,72.0,81.0
35,19.879872258333332,20.038075383333332,67.0,86.0
36,20.045887883333332,20.340809758333332,67.0,82.0
37,20.348622258333332,20.788920575,67.0,84.0
38,20.796383258333332,21.012801075,63.0,79.0
39,21.020263758333332,22.579964574999998,68.0,84.0
40,22.58742725833333,22.803845074999998,61.0,84.0
41,22.81130775833333,23.027725574999998,60.0,79.0
42,23.03518825833333,23.475486574999998,61.0,84.0
43,23.48294925833333,24.594889074999998,61.0,84.0
44,24.602351758333334,24.818769574999997,56.0,83.0
45,24.826232258333334,25.042650074999997,58.0,90.0
46,25.050112758333334,25.714291574999997,58.0,90.0
47,25.721754258333334,26.168724,56.0,72.0
48,26.176299758333332,26.6232695,55.0,82.0
49,26.630845258333334,30.289076758333334,56.0,84.0
50,30.296889258333334,30.737187575,75.0,78.0
51,30.744650258333333,31.184948575,72.0,94.0
52,31.192411258333333,31.585744591666668,70.0,86.0
53,31.592411258333332,31.985744591666666,68.0,93.0
54,31.992411258333334,32.432709575000004,70.0,90.0
55,32.440172258333334,32.880470575000004,70.0,90.0
56,32.887933258333334,33.22561967916667,70.0,90.0
57,33.2330823625,33.552112075000004,70.0,93.0
58,33.55957475833333,33.785320929166666,68.0,83.0
59,33.7927836125,34.03345515,68.0,91.0
60,34.04091783333333,36.910319575,68.0,84.0
61,36.91778225833333,37.134200075,68.0,90.0
62,37.14166275833333,37.358080575,68.0,83.0
63,37.36554325833333,37.581961075,73.0,84.0
64,37.58942375833333,38.701363575,73.0,84.0
65,38.70882625833333,38.925244075,73.0,84.0
66,38.93270675833333,39.149124575,72.0,79.0
67,39.15658725833333,39.373005075,70.0,80.0
68,39.38046775833333,40.492407575,70.0,83.0
69,40.49987025833333,40.716288075,68.0,83.0
70,40.72375075833334,44.14273645,72.0,76.0
71,44.150428758333334,44.373505699999995,63.0,76.0
72,44.38119800833333,44.60427495,63.0,71.0
73,44.61196725833333,45.033395899999995,75.0,78.0
74,45.04053875833333,45.4619674,72.0,75.0
75,45.46911025833333,45.909408575,70.0,82.0
76,45.91687125833333,46.357169575,68.0,83.0
77,46.36463225833333,46.581050075,70.0,80.0
78,46.58851275833333,47.924333075,70.0,84.0
79,47.93179575833333,48.148213575,68.0,75.0
80,48.15567625833333,48.35990150833333,68.0,83.0
81,48.36694375833333,51.259643575,68.0,84.0
82,51.26710625833333,51.707404575,68.0,95.0
83,51.71486725833333,53.03181789999999,73.0,90.0
84,53.038960758333324,53.246103649999995,73.0,86.0
85,53.253246508333326,53.4603894,72.0,78.0
86,53.46753225833333,53.91450199999999,70.0,78.0
87,53.92207775833333,54.36904749999999,70.0,82.0
88,54.376623258333325,54.71990669166666,70.0,84.0
89,54.727369374999995,54.99975731666666,68.0,91.0
90,55.00721999999999,55.488563074999995,67.0,79.0
91,55.496025758333325,57.97857394999999,68.0,82.0
92,57.98626625833332,58.20934319999999,75.0,86.0
93,58.217035508333325,58.67088169999999,75.0,84.0
94,58.67857400833332,58.90165094999999,75.0,80.0
95,58.90934325833332,59.34964157499999,77.0,86.0
96,59.35710425833332,59.79740257499999,77.0,91.0
97,59.80486525833332,60.01810032499999,77.0,86.0
98,60.02545325833332,60.23868832499999,77.0,86.0
99,60.24604125833332,60.45927632499999,77.0,93.0
100,60.46662925833332,60.67986432499999,73.0,81.0
101,60.68721725833332,60.90045232499999,77.0,84.0
102,60.90780525833332,61.34162832499999,84.0,86.0
103,61.348981258333325,61.78280432499999,82.0,84.0
104,61.79015725833332,62.003392324999986,80.0,93.0
105,62.01074525833332,62.22398032499999,80.0,86.0
106,62.23133325833332,62.44456832499999,82.0,84.0
107,62.45192125833332,62.66515632499999,84.0,95.0
108,62.67250925833332,63.10633232499999,79.0,84.0
109,63.11368525833332,63.32692032499999,79.0,86.0
110,63.334273258333326,63.81007974166666,79.0,86.0
111,63.81814425833333,64.05201524166667,75.0,72.0
112,64.06007975833333,66.500542325,80.0,68.0
113,66.50789525833332,66.72113032499999,73.0,62.0
114,66.72848325833333,66.941718325,73.0,76.0
115,66.94907125833333,67.382894325,73.0,80.0
116,67.39024725833333,67.60348232499999,72.0,86.0
117,67.61083525833332,68.044658325,70.0,78.0
118,68.05201125833332,68.485834325,70.0,77.0
119,68.49318725833332,68.70642232499999,70.0,82.0
120,68.71377525833333,69.1352039,70.0,82.0
121,69.14234675833333,69.34948965,68.0,80.0
122,69.35663250833333,69.79061524999999,75.0,80.0
123,69.79819100833332,72.75245445,72.0,80.0
124,72.76014675833333,72.9832237,75.0,81.0
125,72.99091600833333,73.21399295,75.0,77.0
126,73.22168525833334,73.64922089166667,77.0,84.0
127,73.65646725833334,74.08400289166667,77.0,91.0
128,74.09124925833333,74.31094625,77.0,83.0
129,74.31852200833333,74.76549175,77.0,80.0
130,74.77306750833334,74.9927645,73.0,81.0
131,75.00034025833334,75.216758075,77.0,84.0
132,75.22422075833335,75.664519075,84.0,73.0
133,75.67198175833335,76.1189392,82.0,73.0
134,76.12663150833333,76.34970845000001,80.0,90.0
135,76.35740075833334,76.5804777,80.0,86.0
136,76.58817000833334,76.81124695000001,82.0,90.0
137,76.81893925833334,77.25923757500001,84.0,98.0
138,77.26670025833334,77.48311807500001,79.0,93.0
139,77.49058075833335,77.70699857500001,79.0,86.0
140,77.71446125833334,78.15475957500001,79.0,86.0
141,78.16222225833334,78.378640075,75.0,75.0
142,78.38610275833335,79.91984557500001,80.0,84.0
143,79.92730825833334,80.143726075,73.0,90.0
144,80.15118875833335,80.36760657500001,72.0,83.0
145,80.37506925833334,81.51499413750001,73.0,90.0
146,81.52245682083334,81.92544172083333,73.0,86.0
147,81.93290440416668,82.19969533333334,72.0,81.0
148,82.20715801666667,83.51872461250001,70.0,80.0
149,83.52618729583334,83.93476920833334,67.0,90.0
150,83.94223189166668,87.57376057500001,68.0,91.0
151,87.58122325833334,88.02152157500001,75.0,78.0
152,88.02898425833334,88.46928257500001,72.0,94.0
153,88.47674525833334,88.91704357500001,70.0,86.0
154,88.92450625833334,89.36480457500001,68.0,93.0
155,89.37226725833334,89.78776000833334,70.0,90.0
156,89.79480225833333,90.21029500833333,70.0,90.0
157,90.21733725833334,90.55502367916668,70.0,90.0
158,90.56248636250001,90.88151607500001,70.0,93.0
159,90.88897875833335,91.11472492916668,68.0,83.0
160,91.12218761250001,91.36285915,68.0,91.0
161,91.37032183333335,94.26727857500002,68.0,84.0
162,94.27474125833335,94.49115907500001,68.0,90.0
163,94.49862175833336,94.71503957500002,68.0,83.0
164,94.72250225833335,94.93892007500001,73.0,84.0
165,94.94638275833336,96.05832257500002,73.0,84.0
166,96.06578525833335,96.28220307500001,73.0,84.0
167,96.28966575833336,96.50608357500002,72.0,79.0
168,96.51354625833335,96.95384457500002,70.0,80.0
169,96.96130725833335,97.40160557500002,70.0,83.0
170,97.40906825833335,97.84936657500002,70.0,83.0
171,97.85682925833335,98.07324707500001,68.0,83.0
172,98.08070975833336,101.63239732500001,72.0,76.0
173,101.63975025833335,101.85298532500002,63.0,71.0
174,101.86033825833334,102.30063657500001,75.0,78.0
175,102.30809925833334,102.74839757500001,72.0,75.0
176,102.75586025833334,103.19615857500001,70.0,82.0
177,103.20362125833334,103.420039075,68.0,83.0
178,103.42750175833335,104.09168057500001,70.0,80.0
179,104.09914325833334,104.53944157500001,70.0,72.0
180,104.54690425833334,104.98720257500001,70.0,83.0
181,104.99466525833334,105.211083075,68.0,80.0
182,105.21854575833335,105.658844075,70.0,82.0
183,105.66630675833335,108.56929057500001,68.0,83.0
184,108.57675325833334,109.01705157500001,63.0,80.0
185,109.02451425833334,109.240932075,73.0,90.0
186,109.24839475833335,110.36033457500001,73.0,90.0
187,110.36779725833334,110.584215075,68.0,80.0
188,110.59167775833335,110.80809557500001,68.0,81.0
189,110.81555825833334,111.03197607500002,70.0,79.0
190,111.03943875833335,112.15137857500001,70.0,80.0
191,112.15884125833334,112.59913957500001,70.0,82.0
192,112.60660225833334,116.18122757500001,68.0,90.0
193,116.18869025833334,116.64962775833334,77.0,84.0
194,116.65744025833334,117.11837775833334,77.0,86.0
195,117.12619025833334,117.5476189,77.0,90.0
196,117.55476175833334,117.76190465,73.0,79.0
197,117.76904750833334,117.97619040000001,73.0,79.0
198,117.98333325833333,118.423631575,77.0,80.0
199,118.43109425833333,118.647512075,84.0,53.0
200,118.65497475833334,119.766914575,82.0,84.0
201,119.77437725833333,120.438556075,84.0,84.0
202,120.44601875833334,121.12374545,79.0,81.0
203,121.13143775833333,122.03327457500001,75.0,83.0
204,122.04073725833334,123.824318575,80.0,83.0
205,123.83178125833334,124.048199075,73.0,62.0
206,124.05566175833334,124.272079575,73.0,76.0
207,124.27954225833334,124.607900325,73.0,80.0
208,124.61536300833333,124.943721075,72.0,86.0
209,124.95118375833334,125.167601575,72.0,78.0
210,125.17506425833334,125.503422325,70.0,78.0
211,125.51088500833333,125.839243075,70.0,77.0
212,125.84670575833334,126.063123575,70.0,82.0
213,126.07058625833334,126.510884575,70.0,82.0
214,126.51834725833334,126.958645575,75.0,80.0
215,126.96610825833334,127.406406575,70.0,80.0
216,127.41386925833334,130.067014575,72.0,80.0
217,130.07447725833336,130.290895075,75.0,81.0
218,130.29835775833334,130.51477557500002,75.0,77.0
219,130.52223825833335,130.962536575,77.0,84.0
220,130.96999925833336,131.41029757500002,77.0,91.0
221,131.41776025833335,131.82074515833335,77.0,83.0
222,131.82820784166668,132.30581957500002,73.0,81.0
223,132.31328225833334,132.52970007500002,77.0,84.0
224,132.53716275833335,132.977461075,84.0,73.0
225,132.98492375833334,133.66974175833334,82.0,73.0
226,133.67755425833334,133.90411675833334,80.0,86.0
227,133.91192925833334,134.13849175833334,82.0,90.0
228,134.14630425833334,134.586602575,84.0,98.0
229,134.59406525833336,134.810483075,79.0,93.0
230,134.81794575833334,135.03436357500001,79.0,86.0
231,135.04182625833334,135.482124575,79.0,86.0
232,135.48958725833336,135.706005075,75.0,75.0
233,135.71346775833334,137.23626445,80.0,84.0
234,137.24395675833333,137.4670337,73.0,90.0
235,137.47472600833333,137.69780295,72.0,83.0
236,137.70549525833334,138.145793575,73.0,90.0
237,138.15325625833336,139.265196075,73.0,90.0
238,139.27265875833334,139.489076575,68.0,83.0
239,139.49653925833334,139.936837575,70.0,83.0
240,139.94430025833336,140.384598575,70.0,81.0
241,140.39206125833334,140.832359575,68.0,80.0
242,140.83982225833336,141.280120575,67.0,82.0
243,140.83982225833336,141.280120575,67.0,90.0
244,141.28758325833334,144.862208575,68.0,80.0
245,141.28758325833334,144.862208575,68.0,91.0
246,144.86967125833334,145.28516400833334,77.0,84.0
247,145.29220625833335,145.75314375833335,77.0,86.0
248,145.76095625833335,146.21480245,77.0,90.0
249,146.22249475833334,146.44557170000002,73.0,79.0
250,146.45326400833335,146.67634095000003,73.0,79.0
251,146.68403325833336,147.124331575,77.0,80.0
252,147.13179425833337,147.34821207500002,84.0,53.0
253,147.35567475833335,148.46761457500003,82.0,84.0
254,148.47507725833336,149.11079165,84.0,84.0
255,149.11793450833335,149.77251857500002,79.0,81.0
256,149.77998125833338,150.66804057500002,75.0,83.0
257,150.67550325833338,152.45908457500002,80.0,83.0
258,152.46654725833338,152.68296507500003,73.0,62.0
259,152.69042775833336,152.90684557500003,73.0,76.0
260,152.91430825833336,153.35460657500002,73.0,80.0
261,153.36206925833338,153.57848707500003,72.0,86.0
262,153.58594975833336,153.80236757500003,72.0,78.0
263,153.80983025833336,154.02624807500004,70.0,78.0
264,154.03371075833337,154.47400907500003,70.0,77.0
265,154.48147175833336,154.69788957500003,70.0,82.0
266,154.70535225833336,155.14565057500002,70.0,82.0
267,155.15311325833338,155.59341157500003,75.0,80.0
268,155.60087425833336,155.81729207500004,70.0,80.0
269,155.93669500833337,158.8512263916667,72.0,80.0
270,158.74977725833338,158.9599218916667,75.0,81.0
271,158.96716825833337,159.1773128916667,75.0,77.0
272,159.18455925833337,159.62485757500002,77.0,84.0
273,159.63232025833338,160.07261857500004,77.0,91.0
274,160.08008125833337,160.48306615833337,77.0,83.0
275,160.4905288416667,160.96814057500004,73.0,81.0
276,160.97560325833336,161.19202107500004,77.0,84.0
277,161.19948375833337,161.63978207500003,84.0,73.0
278,161.64724475833336,162.31142357500002,82.0,73.0
279,162.31888625833338,162.53530407500003,80.0,86.0
280,162.54276675833336,162.75918457500003,82.0,90.0
281,162.76664725833336,163.20694557500002,84.0,98.0
282,163.21440825833338,163.43082607500003,79.0,93.0
283,163.43828875833336,163.65470657500003,79.0,86.0
284,163.66216925833336,164.10246757500002,79.0,86.0
285,164.10993025833338,164.32634807500003,75.0,75.0
286,164.33381075833336,165.89351157500002,80.0,84.0
287,165.90097425833338,166.11739207500003,73.0,90.0
288,166.12485475833336,166.34127257500003,72.0,83.0
289,166.34873525833336,166.78903357500002,73.0,90.0
290,166.79649625833338,167.90843607500003,73.0,90.0
291,167.91589875833336,168.13231657500003,68.0,83.0
292,168.13977925833336,168.58007757500002,70.0,83.0
293,168.58754025833338,169.02783857500003,70.0,81.0
294,169.03530125833336,169.47559957500005,68.0,80.0
295,169.48306225833338,169.92336057500003,67.0,82.0
296,169.48306225833338,169.92336057500003,67.0,90.0
297,169.93082325833336,173.05768757500005,68.0,80.0
298,169.93082325833336,173.05768757500005,68.0,91.0
299,173.06515025833338,173.28156807500002,72.0,82.0
300,173.28903075833335,173.50544857500003,72.0,78.0
301,173.51291125833336,173.95320957500005,73.0,82.0
302,173.96067225833337,174.84873157500004,73.0,84.0
303,174.85619425833337,175.07261207500002,68.0,71.0
304,175.08007475833335,175.29649257500003,68.0,63.0
305,175.30395525833336,175.75092500000002,70.0,82.0
306,175.75850075833335,177.11456150000004,70.0,78.0
307,177.12213725833337,177.57598345000002,68.0,83.0
308,177.58367575833336,180.59757950000005,68.0,78.0
309,180.60433625833338,181.51972095000005,72.0,95.0
310,181.52741325833338,182.44279795000006,75.0,90.0
311,182.4504902583334,184.28895195000004,72.0,95.0
312,184.29664425833337,185.18470357500004,72.0,98.0
313,185.19216625833337,185.63246457500003,70.0,94.0
314,185.6399272583334,186.08022557500004,68.0,93.0
315,186.08768825833337,187.87126957500004,65.0,69.0
316,187.87873225833337,188.76679157500004,68.0,93.0
317,188.77425425833337,189.66231357500004,72.0,93.0
318,189.66977625833337,190.55783557500004,70.0,83.0
319,190.56529825833337,191.40332600833338,75.0,82.0
320,191.41036825833336,194.98499357500003,73.0,90.0
321,194.99245625833336,195.88051557500003,72.0,99.0
322,195.88797825833336,196.77603757500003,75.0,93.0
323,196.78350025833336,198.56708157500003,72.0,86.0
324,198.57454425833336,199.46260357500003,72.0,91.0
325,199.47006625833336,199.91036457500002,70.0,90.0
326,199.91782725833338,200.35812557500003,68.0,98.0
327,200.36558825833336,200.80588657500005,65.0,93.0
328,200.81334925833337,202.14916957500003,68.0,93.0
329,202.15663225833336,203.04469157500003,68.0,94.0
330,203.05215425833336,203.94021357500003,72.0,84.0
331,203.94767625833336,204.83573557500003,70.0,84.0
332,204.84319825833336,205.73125757500003,67.0,90.0
333,205.73872025833336,209.31334557500003,68.0,99.0
334,209.32080825833336,210.20886757500003,72.0,95.0
335,210.21633025833336,211.10438957500003,75.0,90.0
336,211.11185225833336,212.89543357500003,72.0,95.0
337,212.90289625833336,213.79095557500003,72.0,98.0
338,213.79841825833336,214.23871657500004,70.0,94.0
339,214.24617925833337,214.68647757500003,68.0,93.0
340,214.69394025833336,216.47752157500003,65.0,69.0
341,216.48498425833336,217.37304357500003,63.0,93.0
342,217.38050625833336,218.26856557500003,68.0,93.0
343,218.27602825833335,219.16408757500002,70.0,83.0
344,219.17155025833335,220.05960957500002,75.0,82.0
345,220.06707225833335,223.64169757500002,73.0,90.0
346,223.64916025833338,224.51147789166671,72.0,99.0
347,224.51872425833338,225.3810418916667,75.0,93.0
348,225.38828825833338,227.19889450000005,72.0,86.0
349,227.20647025833338,228.09452957500005,72.0,91.0
350,228.10199225833338,228.54229057500004,70.0,90.0
351,228.5497532583334,228.99005157500005,68.0,98.0
352,228.99751425833338,230.82272375833338,65.0,93.0
353,230.83053625833338,231.71859557500005,63.0,94.0
354,231.72605825833338,232.61411757500005,68.0,84.0
355,232.62158025833338,233.50963957500005,67.0,84.0
356,233.51710225833338,234.40516157500005,63.0,90.0
357,234.41262425833338,237.98724957500005,68.0,99.0
358,237.99471225833338,238.88277157500005,68.0,84.0
359,238.89023425833338,239.74023440000005,72.0,86.0
360,239.7473772583334,240.59737740000006,70.0,83.0
361,240.60452025833337,241.45452040000004,67.0,90.0
362,241.46166325833337,244.9850649416667,68.0,90.0
