,start,end,pitch,velocity
0,2.5037302583333334,2.9906703458333332,61.0,78.0
1,1.6082082583333335,3.0018643708333332,49.0,82.0
2,2.0559692583333335,3.033580775,56.0,73.0
3,2.9514912583333333,3.3656701833333336,68.0,86.0
4,3.3992522583333336,4.191530825,67.0,83.0
5,4.281604258333333,4.715725981249999,58.0,75.0
6,3.3992522583333336,4.75626653125,49.0,75.0
7,3.8404282583333336,4.7664016687499995,55.0,58.0
8,4.687009758333333,5.007955779166666,70.0,84.0
9,5.092415258333333,5.6302941,58.0,80.0
10,5.092415258333333,5.880294125,63.0,80.0
11,5.092415258333333,6.39733963125,48.0,79.0
12,6.001506258333333,6.440900241666666,67.0,83.0
13,5.546960758333333,6.469309335416667,55.0,73.0
14,6.4560517583333334,6.599991166666666,70.0,84.0
15,6.9105972583333335,7.3575669999999995,60.0,80.0
16,6.9105972583333335,7.594309447916666,68.0,86.0
17,6.9105972583333335,7.798854922916666,53.0,69.0
18,7.819688258333333,8.1757489,67.0,84.0
19,7.819688258333333,8.22120345,55.0,76.0
20,7.819688258333333,8.224991329166667,58.0,77.0
21,8.274233758333333,8.641658037500001,63.0,75.0
22,8.728779258333333,9.15870354375,65.0,79.0
23,8.728779258333333,9.166279302083332,61.0,78.0
24,8.728779258333333,9.171961120833334,56.0,76.0
25,9.183324758333335,9.896798872916666,53.0,61.0
26,8.728779258333333,10.089656047916666,46.0,78.0
27,9.637870258333333,10.121798910416667,61.0,82.0
28,10.066441758333333,10.524863991666667,53.0,68.0
29,10.066441758333333,10.547252041666667,65.0,72.0
30,9.637870258333333,10.606953508333334,58.0,69.0
31,10.495013258333334,10.998744383333333,67.0,93.0
32,11.390535258333333,11.662593791666666,63.0,58.0
33,10.495013258333334,11.739799591666667,51.0,76.0
34,11.390535258333333,11.763696625,70.0,63.0
35,10.942774258333333,11.807814225,58.0,72.0
36,11.831711258333334,12.122152125,72.0,79.0
37,12.052299258333333,12.353769525,63.0,53.0
38,12.272887258333334,12.633180991666666,72.0,82.0
39,12.714063258333333,13.298621458333333,51.0,61.0
40,12.272887258333334,13.655238725,44.0,79.0
41,13.155239258333333,13.664429891666668,56.0,62.0
42,13.155239258333333,13.714062191666667,60.0,72.0
43,13.155239258333333,13.750826858333333,68.0,84.0
44,13.596415258333334,14.070679458333334,51.0,79.0
45,14.037591258333332,14.469576091666667,61.0,83.0
46,14.037591258333332,14.533914258333333,46.0,82.0
47,14.478767258333333,14.761855191666667,60.0,76.0
48,14.478767258333333,14.929271612500001,53.0,71.0
49,14.699355258333334,14.972182041666667,61.0,78.0
50,14.919943258333333,15.3098684625,63.0,82.0
51,14.919943258333333,15.423674383333333,48.0,83.0
52,15.367704258333333,15.722181716666666,67.0,86.0
53,15.367704258333333,15.815465258333333,55.0,78.0
54,15.815465258333333,16.280017295833332,65.0,69.0
55,15.815465258333333,16.2837486375,68.0,80.0
56,16.263226258333333,16.755763358333333,56.0,78.0
57,16.710987258333333,17.099046791666666,61.0,67.0
58,16.710987258333333,17.168076612500002,68.0,81.0
59,16.710987258333333,17.169942283333334,63.0,71.0
60,15.815465258333333,17.22777807916667,49.0,80.0
61,17.158748258333333,17.576658525,56.0,75.0
62,17.382628758333333,17.576658525,68.0,55.0
63,17.606509258333332,18.0132255,63.0,80.0
64,17.606509258333332,18.041210562499998,67.0,86.0
65,18.054270258333332,18.922485845833332,55.0,67.0
66,18.95657675833333,19.05695555625,61.0,73.0
67,18.502031258333332,19.06831919375,58.0,75.0
68,17.606509258333332,19.08536465,49.0,76.0
69,18.502031258333332,19.168697991666665,70.0,84.0
70,19.411122258333332,19.844716008333332,67.0,86.0
71,19.411122258333332,19.852528508333332,63.0,72.0
72,19.411122258333332,19.870106633333332,58.0,76.0
73,19.879872258333332,20.4419058,51.0,63.0
74,20.348622258333332,20.706831058333332,70.0,82.0
75,20.348622258333332,20.8169056375,63.0,77.0
76,19.411122258333332,20.828099662499998,48.0,80.0
77,20.348622258333332,20.891532470833333,55.0,75.0
78,20.796383258333332,20.988547354166666,60.0,61.0
79,21.244144258333332,21.781457458333332,60.0,76.0
80,21.244144258333332,21.930711125,68.0,83.0
81,21.244144258333332,22.285188583333333,53.0,69.0
82,22.13966625833333,22.466158654166666,63.0,80.0
83,22.13966625833333,22.527725791666665,60.0,76.0
84,22.13966625833333,22.621009333333333,56.0,80.0
85,22.58742725833333,22.731083912499997,53.0,73.0
86,23.03518825833333,23.400859741666665,65.0,77.0
87,23.03518825833333,23.4251134625,56.0,75.0
88,23.03518825833333,23.456829866666666,61.0,77.0
89,23.48294925833333,24.214292224999998,53.0,53.0
90,23.93071025833333,24.393396625,61.0,78.0
91,23.93071025833333,24.430710041666664,56.0,71.0
92,23.03518825833333,24.509068216666666,46.0,80.0
93,24.378471258333335,24.731083045833334,53.0,63.0
94,24.826232258333334,25.3225007,61.0,79.0
95,24.826232258333334,25.329963383333332,65.0,77.0
96,24.826232258333334,25.43070960833333,56.0,73.0
97,24.826232258333334,26.164936120833335,51.0,76.0
98,25.721754258333334,26.164936120833335,68.0,80.0
99,26.630845258333334,27.04688985416667,65.0,78.0
100,26.630845258333334,27.168158458333334,61.0,79.0
101,27.078606258333334,27.574874700000002,51.0,69.0
102,27.526367258333334,27.946143195833333,61.0,83.0
103,27.526367258333334,28.030098383333335,64.0,79.0
104,26.630845258333334,28.043158079166666,44.0,79.0
105,27.526367258333334,28.045023750000002,56.0,57.0
106,27.974128258333334,28.458998633333334,51.0,69.0
107,28.421889258333334,29.847670508333334,44.0,80.0
108,28.421889258333334,29.916029883333334,60.0,81.0
109,28.421889258333334,29.937514258333334,63.0,78.0
110,31.192411258333333,31.629077925,56.0,78.0
111,30.296889258333334,31.675744591666668,44.0,82.0
112,30.744650258333333,31.852411258333333,51.0,72.0
113,31.592411258333332,32.0800977875,63.0,83.0
114,31.992411258333334,32.611813975000004,58.0,76.0
115,32.887933258333334,33.18644059166667,70.0,79.0
116,32.440172258333334,33.229351020833334,51.0,61.0
117,32.887933258333334,33.229351020833334,55.0,68.0
118,32.887933258333334,33.2498734,58.0,70.0
119,31.992411258333334,33.27972413333333,43.0,78.0
120,33.33569425833333,33.721888120833334,67.0,79.0
121,33.78345525833333,34.563305666666665,41.0,69.0
122,34.23121625833333,34.6659175625,48.0,52.0
123,34.67897725833333,35.19390240833334,53.0,52.0
124,33.78345525833333,35.675245483333335,60.0,73.0
125,33.78345525833333,35.83196183333333,68.0,80.0
126,36.02226025833333,36.54091675,60.0,54.0
127,35.57449925833333,36.84128975416667,56.0,75.0
128,35.12673825833333,36.8935285375,55.0,63.0
129,36.47002125833333,36.90845390416667,68.0,80.0
130,36.91778225833333,37.29464776666667,63.0,72.0
131,37.36554325833333,37.828229625,56.0,62.0
132,37.36554325833333,37.9681549375,61.0,79.0
133,37.36554325833333,38.074498175,65.0,70.0
134,38.26106525833333,38.66031881666667,58.0,71.0
135,37.36554325833333,38.74240833333334,46.0,70.0
136,37.81330425833333,38.835691875,53.0,54.0
137,38.70882625833333,39.12300518333333,61.0,60.0
138,39.15658725833333,39.61554228333333,58.0,72.0
139,39.15658725833333,39.617407954166666,67.0,77.0
140,39.15658725833333,39.63233332083333,63.0,75.0
141,40.05210925833333,40.43830312083333,58.0,57.0
142,39.15658725833333,40.4980045875,46.0,17.0
143,39.60434825833333,40.51106428333333,55.0,68.0
144,40.49987025833333,40.69016868333333,68.0,76.0
145,40.49987025833333,40.92710887916667,63.0,70.0
146,40.94763125833333,41.84535862083333,68.0,83.0
147,40.94763125833333,41.883237412499994,60.0,74.0
148,41.85672225833333,42.38891928125,56.0,72.0
149,42.31126775833333,42.854274804166664,58.0,75.0
150,42.76581325833333,44.17158260625,56.0,54.0
151,40.94763125833333,44.22158261041666,44.0,80.0
152,41.40217675833333,44.504274941666665,51.0,63.0
153,42.76581325833333,44.51196725,60.0,81.0
154,44.61196725833333,45.21196735833333,63.0,79.0
155,45.46911025833333,45.87769217083333,56.0,59.0
156,44.61196725833333,45.95605034583333,44.0,75.0
157,45.04053875833333,46.18739352916666,51.0,53.0
158,45.91687125833333,46.351572562499996,68.0,76.0
159,46.36463225833333,47.275079625,43.0,84.0
160,46.36463225833333,47.27694529583333,58.0,84.0
161,47.26015425833333,47.521348175,55.0,62.0
162,46.81239325833333,47.67993019583333,51.0,63.0
163,47.70791525833333,48.11276582916666,67.0,69.0
164,48.15567625833333,48.77539425833333,68.0,84.0
165,48.15567625833333,48.84933788333333,60.0,73.0
166,49.00074625833333,49.58283555833333,53.0,57.0
167,49.44850725833333,49.930883645833326,55.0,78.0
168,49.89626825833333,50.278960597916665,56.0,83.0
169,49.89626825833333,50.32896060208333,53.0,46.0
170,50.35780675833333,50.90516611666666,55.0,41.0
171,50.81934525833333,51.229792841666665,60.0,78.0
172,48.57821125833333,51.3212107125,48.0,62.0
173,48.15567625833333,51.33800175,41.0,82.0
174,50.81934525833333,51.74471799166666,53.0,52.0
175,51.26710625833333,51.75031500416666,63.0,79.0
176,51.71486725833333,52.22979240833333,61.0,80.0
177,52.16262825833333,52.69431784374999,53.0,58.0
178,52.61038925833333,53.10681791249999,58.0,53.0
179,51.71486725833333,53.13003220208333,46.0,82.0
180,52.61038925833333,53.280032227083325,65.0,81.0
181,53.038960758333324,53.550865599999995,53.0,63.0
182,53.46753225833333,53.89366866458333,63.0,81.0
183,53.46753225833333,53.925865637499996,67.0,84.0
184,53.92207775833333,54.421399358333325,55.0,68.0
185,53.46753225833333,54.680727604166655,46.0,70.0
186,54.376623258333325,54.68445894583333,70.0,84.0
187,54.376623258333325,54.78147382916666,63.0,75.0
188,54.376623258333325,54.833712612499994,58.0,59.0
189,54.824384258333325,54.98110060833333,55.0,79.0
190,55.272145258333325,55.899010658333324,63.0,67.0
191,55.272145258333325,55.954980783333326,60.0,71.0
192,55.272145258333325,56.122891158333324,68.0,81.0
193,55.719906258333324,56.50721934999999,51.0,60.0
194,55.272145258333325,56.72550283749999,44.0,81.0
195,56.167667258333324,56.874756504166655,56.0,61.0
196,56.615428258333324,57.046398220833325,65.0,68.0
197,56.615428258333324,57.06703541249999,61.0,73.0
198,57.063189258333324,57.06703541249999,61.0,84.0
199,57.063189258333324,58.05934318749999,66.0,84.0
200,57.063189258333324,58.32665090208332,44.0,80.0
201,57.52472775833333,58.46126629791666,51.0,75.0
202,57.98626625833332,58.46895860624999,56.0,80.0
203,58.447804758333326,58.78626632499999,66.0,81.0
204,58.90934325833332,59.32725352499999,65.0,83.0
205,59.35710425833332,59.878394591666655,56.0,78.0
206,59.80486525833332,60.220305991666656,61.0,63.0
207,58.90934325833332,60.25890889166666,49.0,80.0
208,59.80486525833332,60.27912945833332,65.0,79.0
209,59.80486525833332,60.29935002499999,73.0,84.0
210,60.24604125833332,60.64309965833332,72.0,80.0
211,60.24604125833332,60.68721725833332,56.0,74.0
212,60.68721725833332,61.16148145833332,63.0,74.0
213,60.68721725833332,61.19089319166665,70.0,86.0
214,60.68721725833332,61.36368712499999,49.0,79.0
215,61.569569258333324,61.92802475833332,63.0,78.0
216,61.128393258333325,62.02728935833332,58.0,61.0
217,62.01074525833332,62.255230291666656,67.0,83.0
218,62.23133325833332,62.47030359166666,68.0,83.0
219,62.45192125833332,63.41088616666666,70.0,84.0
220,63.334273258333326,63.588305533333326,60.0,60.0
221,62.45192125833332,63.69919263749999,48.0,80.0
222,62.89309725833332,63.70322489583332,55.0,73.0
223,63.334273258333326,63.72338618749999,67.0,84.0
224,63.81814425833333,64.23548299583332,63.0,78.0
225,64.30201525833333,64.79833825833333,53.0,72.0
226,64.30201525833333,64.82407352499999,60.0,82.0
227,64.30201525833333,65.05017622499999,68.0,93.0
228,64.74319125833333,65.27444069166665,56.0,83.0
229,65.18436725833332,65.63289619166666,63.0,78.0
230,65.18436725833332,65.67517555833332,58.0,74.0
231,65.18436725833332,65.739513725,51.0,74.0
232,65.18436725833332,65.77076369166666,67.0,86.0
233,65.62554325833332,65.80385189166667,65.0,78.0
234,66.06671925833332,66.52627759166666,58.0,62.0
235,66.06671925833332,66.98951239166666,65.0,78.0
236,66.06671925833332,67.02076235833333,61.0,78.0
237,66.94907125833333,67.42333545833333,58.0,78.0
238,66.06671925833332,67.45458542499999,46.0,82.0
239,66.50789525833332,67.52811475833333,53.0,61.0
240,67.460100125,67.735835125,60.0,79.0
241,67.83142325833333,68.20826109166666,56.0,75.0
242,67.83142325833333,68.25605515833333,65.0,80.0
243,67.83142325833333,68.31304039166666,61.0,62.0
244,67.83142325833333,68.700907625,39.0,79.0
245,68.27259925833333,68.76377526666666,46.0,74.0
246,68.71377525833333,69.09056103541666,67.0,81.0
247,68.71377525833333,69.16734676249999,63.0,78.0
248,68.71377525833333,69.17984676458333,58.0,75.0
249,68.71377525833333,69.20306105416667,51.0,60.0
250,69.14234675833333,69.34591822083333,53.0,69.0
251,69.57091825833332,70.28682742083332,60.0,76.0
252,69.57091825833332,70.36069106458332,63.0,80.0
253,69.57091825833332,70.56654772708333,68.0,81.0
254,70.48000925833333,71.01847084166666,56.0,72.0
255,70.71077850833332,71.02231699583332,60.0,69.0
256,69.57091825833332,71.06654776875,44.0,79.0
257,70.94154775833333,71.12616315833333,61.0,72.0
258,70.02546375833332,71.35116317708332,51.0,68.0
259,71.17231700833332,71.37231702499999,63.0,68.0
260,71.40308625833333,71.9273397625,61.0,80.0
261,71.40308625833333,71.93480244583333,56.0,75.0
262,71.40308625833333,72.15308593333333,46.0,81.0
263,71.85084725833333,72.41014672916667,53.0,56.0
264,72.29860825833333,72.54668520208332,56.0,80.0
265,72.29860825833333,72.72745444791667,63.0,84.0
266,72.29860825833333,72.8332236875,48.0,82.0
267,72.76014675833333,73.11591601875,56.0,78.0
268,73.22168525833334,73.55320653333334,61.0,84.0
269,73.22168525833334,73.61842383333334,65.0,80.0
270,73.65646725833334,74.21814321041667,56.0,57.0
271,74.09124925833333,74.48518869166666,73.0,90.0
272,74.09124925833333,74.54200687916666,61.0,56.0
273,74.09124925833333,74.58746142916667,65.0,73.0
274,73.22168525833334,74.59882506666666,49.0,80.0
275,74.54579475833333,75.00593727083334,56.0,78.0
276,74.54579475833333,75.0768327625,72.0,81.0
277,75.00034025833334,75.51339973750001,63.0,69.0
278,75.00034025833334,75.64959370833334,70.0,84.0
279,75.89586225833334,76.09778535208333,61.0,60.0
280,75.89586225833334,76.19586228333334,60.0,63.0
281,75.44810125833334,76.28624690625,58.0,69.0
282,75.00034025833334,76.31124690833335,49.0,81.0
283,76.12663150833333,76.38047768333334,67.0,78.0
284,76.35740075833334,76.5689392375,68.0,80.0
285,76.58817000833334,76.71701617291667,70.0,80.0
286,76.81893925833334,77.26856592916668,63.0,79.0
287,76.81893925833334,77.27043160000001,58.0,62.0
288,77.26670025833334,77.83199852083334,55.0,76.0
289,77.71446125833334,78.20140134583335,58.0,79.0
290,76.81893925833334,78.2499087875,48.0,80.0
291,78.16222225833334,78.26483415416668,55.0,80.0
292,77.71446125833334,78.31147592500001,67.0,86.0
293,78.60998325833334,79.10273619166668,68.0,81.0
294,78.60998325833334,79.1226637,60.0,79.0
295,78.60998325833334,79.47954725833334,41.0,83.0
296,79.04476525833334,79.6232039125,53.0,53.0
297,79.47954725833334,79.75566654166667,58.0,77.0
298,79.47954725833334,79.78365160416668,67.0,90.0
299,79.92730825833334,80.16797979583335,53.0,61.0
300,79.92730825833334,80.22581559166667,63.0,80.0
301,79.47954725833334,80.37506925833334,39.0,83.0
302,80.37506925833334,80.76686013333334,56.0,74.0
303,80.37506925833334,80.80044220833334,61.0,80.0
304,80.82283025833334,81.43477029166668,51.0,39.0
305,81.27059125833334,81.69782987916668,61.0,70.0
306,81.27059125833334,81.76685970000001,65.0,75.0
307,81.27059125833334,81.77991939583335,56.0,73.0
308,81.71835225833334,81.80417311666668,51.0,79.0
309,80.37506925833334,81.80790445833334,46.0,69.0
310,82.16611325833334,82.58029218333334,67.0,81.0
311,82.16611325833334,82.65865035833335,58.0,74.0
312,82.16611325833334,82.67917273750001,63.0,81.0
313,82.61387425833334,83.2276799625,51.0,45.0
314,83.06163525833334,83.4627544875,68.0,52.0
315,82.16611325833334,83.49073955,39.0,79.0
316,83.06163525833334,83.50753058750001,56.0,77.0
317,83.06163525833334,83.5131276,61.0,78.0
318,83.06163525833334,83.53551565000001,65.0,57.0
319,83.50939625833334,83.8545453625,51.0,58.0
320,83.95715725833334,84.34521679166667,68.0,76.0
321,83.95715725833334,84.40678392916668,60.0,81.0
322,83.95715725833334,84.43290332083335,63.0,83.0
323,84.40491825833334,84.90150738333334,51.0,63.0
324,83.95715725833334,85.46400738333334,44.0,82.0
325,84.85267925833334,85.52455425833334,56.0,53.0
326,84.85267925833334,85.67885113333334,61.0,78.0
327,84.85267925833334,85.70033550833334,64.0,72.0
328,85.79017925833334,86.75659675,56.0,62.0
329,85.79017925833334,86.82376090000001,60.0,78.0
330,85.79017925833334,86.89465639166667,44.0,76.0
331,85.79017925833334,86.91517877083334,63.0,80.0
332,85.32142925833334,86.924507125,51.0,63.0
333,88.47674525833334,88.96555101666667,56.0,78.0
334,87.58122325833334,89.0177898,44.0,82.0
335,88.02898425833334,89.21555090833334,51.0,72.0
336,88.92450625833334,89.45501369583334,63.0,83.0
337,89.37226725833334,89.95677400833334,58.0,76.0
338,90.21733725833334,90.51584459166668,70.0,79.0
339,89.79480225833333,90.55875502083335,51.0,61.0
340,90.21733725833334,90.55875502083335,55.0,68.0
341,90.21733725833334,90.57927740000001,58.0,70.0
342,89.37226725833334,90.60912813333334,43.0,78.0
343,90.66509825833334,91.05129212083334,67.0,79.0
344,91.11285925833334,91.89270966666668,41.0,69.0
345,91.56062025833334,91.99532156250001,48.0,52.0
346,92.00838125833334,92.52330640833334,53.0,52.0
347,91.11285925833334,93.00774942083335,60.0,73.0
348,91.11285925833334,93.16928789583335,68.0,80.0
349,93.36544175833335,93.89787575000001,60.0,54.0
350,92.90390325833334,94.19824875416668,56.0,75.0
351,92.45614225833334,94.25048753750002,55.0,63.0
352,93.82698025833335,94.26541290416668,68.0,80.0
353,94.27474125833335,94.65160676666669,63.0,72.0
354,94.72250225833335,95.18518862500002,56.0,62.0
355,94.72250225833335,95.32511393750002,61.0,79.0
356,94.72250225833335,95.43145717500002,65.0,70.0
357,95.61802425833335,96.01727781666668,58.0,71.0
358,94.72250225833335,96.09936733333335,46.0,70.0
359,95.17026325833335,96.19265087500001,53.0,54.0
360,96.06578525833335,96.47996418333335,61.0,60.0
361,96.51354625833335,96.97250128333334,58.0,72.0
362,96.51354625833335,96.97436695416668,67.0,77.0
363,96.51354625833335,96.98929232083336,63.0,75.0
364,96.51354625833335,97.40906825833335,46.0,44.0
365,97.40906825833335,97.79526212083336,58.0,57.0
366,96.96130725833335,97.86802328333334,55.0,68.0
367,97.85682925833335,98.04712768333334,68.0,76.0
368,97.85682925833335,98.28406787916668,63.0,70.0
369,97.40906825833335,98.30459025833335,39.0,44.0
370,98.30459025833335,99.18891823333335,68.0,83.0
371,98.30459025833335,99.22623165000002,60.0,74.0
372,99.20011225833335,99.72436576250001,56.0,72.0
373,99.64787325833335,100.18019299166669,58.0,75.0
374,100.09563425833335,101.43938282500001,56.0,54.0
375,98.30459025833335,101.48717689166668,44.0,80.0
376,98.75235125833335,101.75739719166668,51.0,63.0
377,100.09563425833335,101.76475012500002,60.0,81.0
378,101.86033825833334,102.48720365833334,63.0,79.0
379,102.75586025833334,103.16444217083334,56.0,59.0
380,101.86033825833334,103.24280034583334,44.0,75.0
381,102.30809925833334,103.47414352916668,51.0,53.0
382,103.20362125833334,103.63832256250001,68.0,76.0
383,103.65138225833334,104.56182962500002,43.0,84.0
384,103.65138225833334,104.56369529583334,58.0,84.0
385,104.54690425833334,104.80809817500001,55.0,62.0
386,104.09914325833334,104.96668019583335,51.0,63.0
387,104.99466525833334,105.39951582916667,68.0,69.0
388,105.44242625833334,106.09914239166667,68.0,84.0
389,105.44242625833334,106.17750056666668,60.0,73.0
390,106.33794825833334,106.92003755833335,53.0,57.0
391,106.78570925833334,107.26705233333334,55.0,78.0
392,107.23347025833334,107.60473875416668,56.0,83.0
393,107.23347025833334,107.65324619583335,53.0,46.0
394,107.68123125833334,108.21481311666668,55.0,41.0
395,108.12899225833334,108.53943984166668,60.0,78.0
396,105.89018725833334,108.63085771250002,48.0,62.0
397,105.44242625833334,108.64764875000002,41.0,82.0
398,108.12899225833334,109.05436499166667,53.0,52.0
399,108.57675325833334,109.05996200416668,63.0,79.0
400,109.02451425833334,109.53943940833334,61.0,80.0
401,109.47227525833334,110.00772278750001,53.0,58.0
402,109.92003625833334,110.43869275000002,58.0,53.0
403,109.02451425833334,110.46294647083334,46.0,82.0
404,109.92003625833334,110.61966282083334,65.0,81.0
405,110.36779725833334,110.89764777500001,53.0,63.0
406,110.81555825833334,111.23533419583335,63.0,81.0
407,110.81555825833334,111.2670506,67.0,84.0
408,111.26331925833334,111.75585635833335,55.0,68.0
409,110.81555825833334,112.01518460416668,46.0,70.0
410,111.71108025833334,112.01891594583334,70.0,84.0
411,111.71108025833334,112.11593082916667,63.0,75.0
412,111.71108025833334,112.16816961250001,58.0,59.0
413,112.15884125833334,112.31555760833334,55.0,79.0
414,112.60660225833334,113.23346765833334,63.0,67.0
415,112.60660225833334,113.28943778333334,60.0,71.0
416,112.60660225833334,113.45734815833335,68.0,81.0
417,113.05436325833334,113.84167635000001,51.0,60.0
418,112.60660225833334,114.0599598375,44.0,81.0
419,113.50212425833334,114.20921350416668,56.0,61.0
420,113.94988525833334,114.38085522083334,63.0,68.0
421,113.94988525833334,114.4013776,60.0,73.0
422,114.39764625833334,115.36406375000001,66.0,84.0
423,114.39764625833334,115.48160101250001,61.0,84.0
424,114.39764625833334,115.62339199583334,44.0,80.0
425,114.84540725833334,115.75398895416667,51.0,75.0
426,115.29316825833334,115.76145163750002,56.0,80.0
427,115.74092925833334,116.069287325,66.0,81.0
428,116.18869025833334,116.62619025833334,65.0,83.0
429,116.65744025833334,117.19761884166667,56.0,78.0
430,117.12619025833334,117.52976175416667,61.0,63.0
431,116.18869025833334,117.56726176041667,49.0,80.0
432,117.12619025833334,117.58690462083334,65.0,79.0
433,117.12619025833334,117.60654748125,73.0,84.0
434,117.55476175833334,117.60654748125,73.0,80.0
435,117.55476175833334,117.98333325833333,56.0,74.0
436,117.98333325833333,118.46467633333333,63.0,74.0
437,117.98333325833333,118.49452706666666,70.0,86.0
438,117.98333325833333,118.669900125,49.0,79.0
439,118.87885525833333,119.24266107083334,63.0,78.0
440,118.43109425833333,119.34340729583333,58.0,61.0
441,119.32661625833333,119.57475047916667,67.0,83.0
442,119.55049675833334,119.79303396666667,68.0,83.0
443,119.77437725833333,120.74297618749999,70.0,84.0
444,120.66989925833333,120.91220697083332,60.0,60.0
445,119.77437725833333,121.01797621041666,48.0,80.0
446,120.22213825833333,121.02182236458333,55.0,73.0
447,120.66989925833333,121.04105313541666,67.0,84.0
448,121.13143775833333,121.52951471458333,63.0,78.0
449,121.59297625833334,122.09670738333334,53.0,72.0
450,121.59297625833334,122.12282677500001,60.0,82.0
451,121.59297625833334,122.3523042875,68.0,93.0
452,122.04073725833334,122.57991612916668,56.0,83.0
453,122.48849825833334,122.94372194166667,63.0,78.0
454,122.48849825833334,122.98663237083333,58.0,74.0
455,122.48849825833334,123.05193085,51.0,74.0
456,122.48849825833334,123.08364725416666,67.0,86.0
457,122.93625925833334,123.11722932916668,65.0,78.0
458,123.38402025833334,123.85043796666668,58.0,62.0
459,123.38402025833334,124.32058701666666,65.0,78.0
460,123.38402025833334,124.35230342083334,61.0,78.0
461,124.27954225833334,124.76088533333333,58.0,78.0
462,123.38402025833334,124.79260173750001,46.0,82.0
463,123.83178125833334,124.86722857083333,53.0,61.0
464,124.72730325833334,125.09110907083334,61.0,79.0
465,125.17506425833334,125.55752677916666,56.0,75.0
466,125.17506425833334,125.60603422083334,65.0,80.0
467,125.17506425833334,125.66387001666666,61.0,62.0
468,125.17506425833334,126.0575265625,39.0,79.0
469,125.62282525833334,126.12282504166667,46.0,74.0
470,126.07058625833334,126.46424280416667,67.0,81.0
471,126.07058625833334,126.54446665,63.0,78.0
472,126.07058625833334,126.55752634583334,58.0,75.0
473,126.07058625833334,126.58178006666667,51.0,60.0
474,126.51834725833334,126.73103373333333,53.0,69.0
475,126.96610825833334,127.596705,70.0,81.0
476,126.96610825833334,127.67133183333334,60.0,76.0
477,126.96610825833334,127.74409299583334,63.0,80.0
478,127.43252596666667,128.05728215833332,68.0,81.0
479,127.86163025833334,128.368875925,56.0,72.0
480,128.07902125833334,128.37249910833333,60.0,69.0
481,126.96610825833334,128.41416571666667,44.0,79.0
482,128.29641225833333,128.47032505833334,61.0,72.0
483,127.41386925833334,128.68228128333334,51.0,68.0
484,128.51380325833333,128.70220879166666,63.0,68.0
485,128.73119425833335,129.2554477625,61.0,80.0
486,128.73119425833335,129.26291044583334,56.0,75.0
487,128.73119425833335,129.48119393333334,46.0,81.0
488,129.17895525833336,129.73492516666667,53.0,56.0
489,129.62671625833335,129.86738779583334,56.0,80.0
490,129.62671625833335,130.0427608541667,63.0,84.0
491,129.62671625833335,130.14537275,48.0,82.0
492,130.07447725833336,130.41962636250003,56.0,78.0
493,130.52223825833335,130.86365602083333,61.0,84.0
494,130.52223825833335,130.93082017083336,65.0,80.0
495,130.96999925833336,131.54276020416668,56.0,57.0
496,131.41776025833335,131.8058197916667,73.0,90.0
497,131.41776025833335,131.86178991666668,61.0,56.0
498,131.41776025833335,131.9065660166667,65.0,73.0
499,130.52223825833335,131.91776004166667,49.0,80.0
500,131.86552125833336,132.31887927083335,56.0,78.0
501,131.86552125833336,132.38977476250002,73.0,81.0
502,132.31328225833334,132.8263417375,63.0,69.0
503,132.31328225833334,132.96253570833335,70.0,84.0
504,133.20880425833334,133.41388238333334,60.0,60.0
505,132.76104325833336,133.60528863333334,58.0,69.0
506,132.31328225833334,133.63067925833334,49.0,81.0
507,133.44317925833334,133.70099175833334,67.0,78.0
508,133.67755425833334,133.89239800833334,68.0,80.0
509,133.91192925833334,134.04278863333334,70.0,80.0
510,134.14630425833334,134.59593092916668,63.0,79.0
511,134.14630425833334,134.5977966,58.0,62.0
512,134.59406525833336,135.15936352083335,55.0,76.0
513,135.04182625833334,135.52876634583333,58.0,79.0
514,134.14630425833334,135.57727378750002,48.0,80.0
515,135.48958725833336,135.59219915416668,55.0,80.0
516,135.04182625833334,135.638840925,67.0,86.0
517,135.93734825833334,136.41622125833334,68.0,81.0
518,135.93734825833334,136.43558744583333,60.0,79.0
519,135.93734825833334,136.78241825833334,41.0,83.0
520,136.35988325833335,136.93049519375,53.0,53.0
521,136.78241825833334,137.06703366666667,58.0,77.0
522,136.78241825833334,137.09587982291666,67.0,90.0
523,137.24395675833333,137.49203370208335,53.0,61.0
524,137.24395675833333,137.55164909166666,65.0,80.0
525,136.78241825833334,137.70549525833334,39.0,83.0
526,137.70549525833334,138.09728613333334,56.0,74.0
527,137.70549525833334,138.13086820833334,61.0,80.0
528,138.15325625833336,138.76519629166668,51.0,39.0
529,138.60101725833334,139.02825587916666,61.0,70.0
530,138.60101725833334,139.09728570000001,65.0,75.0
531,138.60101725833334,139.11034539583335,56.0,73.0
532,139.04877825833336,139.13459911666666,51.0,79.0
533,137.70549525833334,139.13833045833334,46.0,69.0
534,139.49653925833334,139.91071818333333,67.0,81.0
535,139.49653925833334,139.98907635833334,58.0,74.0
536,139.49653925833334,140.0095987375,63.0,81.0
537,139.94430025833336,140.5581059625,51.0,45.0
538,140.39206125833334,140.79318048750002,68.0,52.0
539,139.49653925833334,140.82116555000002,39.0,79.0
540,140.39206125833334,140.8379565875,56.0,77.0
541,140.39206125833334,140.8435536,61.0,78.0
542,140.39206125833334,140.86594165,65.0,57.0
543,140.83982225833336,141.18497136250002,51.0,58.0
544,141.28758325833334,141.91444865833336,63.0,67.0
545,141.28758325833334,141.97041878333334,60.0,71.0
546,141.28758325833334,142.13832915833333,68.0,81.0
547,141.73534425833336,142.52265735,51.0,60.0
548,141.28758325833334,142.7409408375,44.0,81.0
549,142.18310525833334,142.8901945041667,56.0,61.0
550,142.63086625833336,143.06183622083336,63.0,68.0
551,142.63086625833336,143.08235860000002,60.0,73.0
552,143.07862725833334,144.04504475000002,66.0,84.0
553,143.07862725833334,144.16258201250002,61.0,84.0
554,143.07862725833334,144.30437299583335,44.0,80.0
555,143.52638825833336,144.4349699541667,51.0,75.0
556,143.97414925833334,144.44243263750002,56.0,80.0
557,144.42191025833336,144.750268325,66.0,81.0
558,144.86967125833334,145.26403725833333,65.0,83.0
559,145.29220625833335,145.83787934166668,56.0,78.0
560,145.76095625833335,146.19557167916668,61.0,63.0
561,144.86967125833334,146.2359562979167,49.0,80.0
562,145.76095625833335,146.25711014583334,65.0,79.0
563,145.76095625833335,146.27826399375002,73.0,84.0
564,146.22249475833334,146.27826399375002,73.0,80.0
565,146.22249475833334,146.68403325833336,56.0,74.0
566,146.68403325833336,147.16537633333337,63.0,74.0
567,146.68403325833336,147.1952270666667,70.0,86.0
568,146.68403325833336,147.37060012500004,49.0,79.0
569,147.57955525833336,147.94336107083336,63.0,78.0
570,147.13179425833337,148.04410729583336,58.0,61.0
571,148.02731625833337,148.2754504791667,67.0,83.0
572,148.25119675833335,148.4929344041667,68.0,83.0
573,148.47507725833336,149.40311575000004,70.0,84.0
574,149.33222025833336,149.56729478333335,60.0,60.0
575,148.47507725833336,149.6699066791667,48.0,80.0
576,148.90364875833336,149.67363802083335,55.0,73.0
577,149.33222025833336,149.6922947291667,67.0,84.0
578,149.77998125833338,150.16617512083337,63.0,78.0
579,150.22774225833336,150.73147338333337,53.0,72.0
580,150.22774225833336,150.75759277500003,60.0,82.0
581,150.22774225833336,150.98707028750002,68.0,93.0
582,150.67550325833338,151.2146821291667,56.0,83.0
583,151.12326425833336,151.5784879416667,63.0,78.0
584,151.12326425833336,151.62139837083336,58.0,74.0
585,151.12326425833336,151.68669685000003,51.0,74.0
586,151.12326425833336,151.7184132541667,67.0,86.0
587,151.57102525833338,151.7519953291667,65.0,78.0
588,152.01878625833336,152.4852039666667,58.0,62.0
589,152.01878625833336,152.9553530166667,65.0,78.0
590,152.01878625833336,152.98706942083336,61.0,78.0
591,152.91430825833336,153.39565133333338,58.0,78.0
592,152.01878625833336,153.42736773750002,46.0,82.0
593,152.46654725833338,153.50199457083338,53.0,61.0
594,153.36206925833338,153.72587507083335,61.0,79.0
595,153.80983025833336,154.1922927791667,56.0,75.0
596,153.80983025833336,154.24080022083336,65.0,80.0
597,153.80983025833336,154.2986360166667,61.0,62.0
598,153.80983025833336,154.69229256250003,39.0,79.0
599,154.25759125833338,154.7575910416667,46.0,74.0
600,154.70535225833336,155.0990088041667,67.0,81.0
601,154.70535225833336,155.17923265000002,63.0,78.0
602,154.70535225833336,155.19229234583335,58.0,75.0
603,154.70535225833336,155.2165460666667,51.0,60.0
604,155.15311325833338,155.36579973333338,53.0,69.0
605,155.60087425833336,156.30609783333335,60.0,76.0
606,155.60087425833336,156.37885899583335,63.0,80.0
607,155.60087425833336,156.58035144583337,68.0,81.0
608,156.49639625833336,157.0187840916667,56.0,72.0
609,156.72027675833337,157.02251543333335,60.0,69.0
610,155.60087425833336,157.06542586250004,44.0,79.0
611,156.94415725833338,157.12326165833338,61.0,72.0
612,156.04863525833338,157.34154514583338,51.0,68.0
613,157.16803775833336,157.36206752500004,63.0,68.0
614,157.39191825833336,157.93230291875003,61.0,80.0
615,157.39191825833336,157.93999522708336,56.0,75.0
616,157.39191825833336,158.16499524583335,46.0,81.0
617,157.85345675833335,158.42006757500005,53.0,56.0
618,158.31499525833337,158.54869058333338,56.0,80.0
619,158.31499525833337,158.71898020000003,63.0,84.0
620,158.31499525833337,158.8186177416667,48.0,82.0
621,158.74977725833338,159.0849217166667,56.0,78.0
622,159.18455925833337,159.52597702083335,61.0,84.0
623,159.18455925833337,159.59314117083338,65.0,80.0
624,159.63232025833338,160.2050812041667,56.0,57.0
625,160.08008125833337,160.4681407916667,73.0,90.0
626,160.08008125833337,160.5241109166667,61.0,56.0
627,160.08008125833337,160.5688870166667,65.0,73.0
628,159.18455925833337,160.5800810416667,49.0,80.0
629,160.52784225833338,160.98120027083337,56.0,78.0
630,160.52784225833338,161.05209576250004,73.0,81.0
631,160.97560325833336,161.48866273750002,63.0,69.0
632,160.97560325833336,161.62485670833337,70.0,84.0
633,161.87112525833336,162.06702069583338,61.0,60.0
634,161.87112525833336,162.16216990833337,60.0,63.0
635,161.42336425833338,162.24985643750003,58.0,69.0
636,160.97560325833336,162.27411015833337,49.0,81.0
637,162.09500575833337,162.34127430833337,67.0,78.0
638,162.31888625833338,162.52411005000002,68.0,80.0
639,162.54276675833336,162.6677667041667,70.0,80.0
640,162.76664725833336,163.2162739291667,63.0,79.0
641,162.76664725833336,163.21813960000003,58.0,62.0
642,163.21440825833338,163.77970652083337,55.0,76.0
643,163.66216925833336,164.14910934583335,58.0,79.0
644,162.76664725833336,164.19761678750004,48.0,80.0
645,164.10993025833338,164.2125421541667,55.0,80.0
646,163.66216925833336,164.25918392500003,67.0,86.0
647,164.55769125833336,165.06515372500004,68.0,81.0
648,164.55769125833336,165.0856761041667,60.0,79.0
649,164.55769125833336,165.45321325833336,41.0,83.0
650,165.00545225833338,165.59686991250004,53.0,53.0
651,165.45321325833336,165.7293325416667,58.0,77.0
652,165.45321325833336,165.7573176041667,67.0,90.0
653,165.90097425833338,166.14164579583337,53.0,61.0
654,165.90097425833338,166.1994815916667,65.0,80.0
655,165.45321325833336,166.34873525833336,39.0,83.0
656,166.34873525833336,166.74052613333336,56.0,74.0
657,166.34873525833336,166.77410820833336,61.0,80.0
658,166.79649625833338,167.4084362916667,51.0,39.0
659,167.24425725833336,167.67149587916668,61.0,70.0
660,167.24425725833336,167.74052570000003,65.0,75.0
661,167.24425725833336,167.75358539583337,56.0,73.0
662,167.69201825833338,167.7778391166667,51.0,79.0
663,166.34873525833336,167.78157045833336,46.0,69.0
664,168.13977925833336,168.55395818333338,67.0,81.0
665,168.13977925833336,168.63231635833336,58.0,74.0
666,168.13977925833336,168.65283873750002,63.0,81.0
667,168.58754025833338,169.20134596250003,51.0,45.0
668,169.03530125833336,169.43642048750004,68.0,52.0
669,168.13977925833336,169.46440555000004,39.0,79.0
670,169.03530125833336,169.48119658750002,56.0,77.0
671,169.03530125833336,169.48679360000003,61.0,78.0
672,169.03530125833336,169.50918165000004,65.0,57.0
673,169.48306225833338,169.82821136250004,51.0,58.0
674,169.93082325833336,170.68455427500004,44.0,73.0
675,169.93082325833336,170.7498527541667,72.0,63.0
676,170.37858425833338,170.79276318333336,51.0,53.0
677,170.37858425833338,170.84686763750003,63.0,39.0
678,170.82634525833336,171.18268838750004,70.0,68.0
679,170.82634525833336,171.2815689416667,56.0,42.0
680,171.27410625833338,171.71067323333335,68.0,62.0
681,171.72186725833336,172.15656856250004,63.0,57.0
682,171.72186725833336,172.16962825833338,60.0,62.0
683,171.27410625833338,172.24238942083338,58.0,35.0
684,172.16962825833338,172.5744788291667,61.0,63.0
685,172.61738925833336,173.0278368416667,60.0,68.0
686,173.06515025833338,173.67335895000002,56.0,69.0
687,173.51291125833336,174.00917970000003,65.0,73.0
688,174.40843325833336,174.8300748666667,61.0,73.0
689,173.51291125833336,175.0147762791667,49.0,62.0
690,174.85619425833337,175.32668253333335,65.0,68.0
691,173.96067225833337,175.41001587500003,53.0,71.0
692,175.30395525833336,175.91001592500004,58.0,53.0
693,175.30395525833336,176.0160765416667,67.0,79.0
694,175.75850075833335,176.56910690000004,55.0,72.0
695,175.30395525833336,176.6013038729167,51.0,59.0
696,176.21304625833335,176.61645538958336,65.0,54.0
697,177.12213725833337,177.69713730625003,58.0,59.0
698,177.12213725833337,177.80867577708338,63.0,71.0
699,177.12213725833337,178.02213733333338,44.0,63.0
700,178.04521425833337,178.59990175833337,61.0,73.0
701,178.04521425833337,178.69951113333337,56.0,67.0
702,178.04521425833337,178.69951113333337,64.0,79.0
703,177.58367575833336,179.01311967083336,51.0,56.0
704,178.98271425833337,179.9573766479167,58.0,48.0
705,178.98271425833337,179.96751178541672,60.0,68.0
706,178.98271425833337,180.02156585208337,63.0,63.0
707,179.79352525833337,180.43541730000004,51.0,22.0
708,180.19893075833338,180.4742686604167,56.0,11.0
709,178.98271425833337,180.57899841458337,44.0,72.0
710,180.40163350833336,180.5806876041667,58.0,54.0
711,180.60433625833338,180.8254901229167,63.0,58.0
712,180.83510550833338,181.4831824854167,72.0,77.0
713,181.52741325833338,182.01395176041672,63.0,69.0
714,181.29664400833337,182.17356715833338,60.0,78.0
715,180.83510550833338,182.18895177500005,56.0,62.0
716,181.98895175833337,182.35818255833337,72.0,69.0
717,182.4504902583334,182.9774133791667,70.0,79.0
718,182.4504902583334,183.00625953541672,63.0,59.0
719,182.91202875833338,183.78125960000006,58.0,69.0
720,183.37356725833337,183.83510575833338,68.0,69.0
721,182.4504902583334,183.86972114583338,55.0,63.0
722,183.83510575833338,184.27164425625006,70.0,71.0
723,184.29664425833337,184.73134556250005,72.0,73.0
724,184.29664425833337,185.13433046250003,63.0,47.0
725,184.7444052583334,185.45522584583338,60.0,73.0
726,184.29664425833337,185.53731536250004,53.0,60.0
727,185.19216625833337,185.8190316583334,68.0,79.0
728,186.08768825833337,186.56343432083338,61.0,79.0
729,186.08768825833337,186.5988820666667,56.0,63.0
730,186.08768825833337,186.6828372541667,65.0,75.0
731,186.98321025833337,187.42350857500003,63.0,72.0
732,186.08768825833337,187.43843394166672,49.0,62.0
733,186.98321025833337,187.4440309541667,56.0,58.0
734,186.5354492583334,187.47761302916672,53.0,31.0
735,187.4309712583334,187.7014935291667,61.0,79.0
736,187.87873225833337,188.88059749583337,68.0,84.0
737,187.87873225833337,188.96268701250003,60.0,76.0
738,187.87873225833337,189.16977647500005,44.0,77.0
739,188.3264932583334,189.24813465000005,51.0,73.0
740,188.77425425833337,189.2518659916667,56.0,68.0
741,189.22201525833339,189.57276137500003,68.0,83.0
742,189.66977625833337,190.19776110416672,58.0,76.0
743,189.66977625833337,190.31902970833337,63.0,82.0
744,190.11753725833339,190.96670650833337,55.0,72.0
745,189.66977625833337,190.97550932083337,48.0,83.0
746,190.56529825833337,191.07234025833338,58.0,76.0
747,190.98783325833338,191.37867813333338,67.0,82.0
748,192.75365125833338,193.2816361041667,68.0,82.0
749,191.85812925833338,193.89917315000002,56.0,76.0
750,193.20141225833336,194.05775517083336,65.0,69.0
751,192.30589025833336,194.12491932083336,61.0,69.0
752,191.41036825833336,194.46074007083337,49.0,76.0
753,194.09693425833336,194.53723257500002,63.0,68.0
754,194.54469525833338,194.8432025916667,61.0,60.0
755,194.99245625833336,195.43462024583337,75.0,73.0
756,195.44021725833338,195.93648570000002,72.0,60.0
757,195.88797825833336,195.93648570000002,72.0,80.0
758,195.88797825833336,196.13238113750003,68.0,60.0
759,194.99245625833336,196.19394827500003,56.0,56.0
760,195.44021725833338,196.2872318166667,63.0,48.0
761,196.36932133333337,196.76670922083338,75.0,83.0
762,196.78350025833336,197.62864914583335,72.0,79.0
763,197.23126125833338,197.9887236166667,63.0,63.0
764,196.78350025833336,198.07454447500004,55.0,69.0
765,197.67902225833336,198.1230519166667,67.0,82.0
766,198.12678325833338,198.3637234541667,70.0,78.0
767,198.57454425833336,199.27790216250003,68.0,80.0
768,199.02230525833338,199.70887212500003,60.0,25.0
769,198.57454425833336,199.75551389583336,53.0,69.0
770,199.47006625833336,199.87678250000002,67.0,67.0
771,199.47006625833336,199.88984219583335,63.0,69.0
772,199.91782725833338,200.4122300291667,68.0,76.0
773,200.36558825833336,201.0390954291667,61.0,76.0
774,200.36558825833336,201.22193117083336,65.0,78.0
775,200.81334925833337,201.60625936250003,56.0,10.0
776,201.26111025833336,201.7051399166667,63.0,75.0
777,200.36558825833336,201.7107369291667,49.0,69.0
778,201.70887125833337,202.1696919541667,65.0,76.0
779,202.15663225833336,202.59319923333337,63.0,79.0
780,202.15663225833336,202.6006619166667,60.0,61.0
781,203.05215425833336,203.34319890833336,58.0,68.0
782,203.05215425833336,203.35252726250002,63.0,76.0
783,202.60439325833337,203.36931830000003,51.0,57.0
784,202.15663225833336,203.37304964166668,44.0,80.0
785,203.05215425833336,203.41596007083336,56.0,54.0
786,203.94767625833336,204.29282536250003,56.0,74.0
787,203.94767625833336,204.34879548750004,63.0,80.0
788,203.94767625833336,205.31894432083337,39.0,77.0
789,204.84319825833336,205.32454133333337,61.0,81.0
790,204.84319825833336,205.53163079583337,55.0,75.0
791,204.39543725833337,205.68648147500002,51.0,55.0
792,205.29095925833337,205.72752623333338,58.0,53.0
793,205.73872025833336,206.19021260000002,56.0,78.0
794,205.73872025833336,206.22566034583338,60.0,80.0
795,206.18648125833337,206.69954073750003,51.0,61.0
796,206.63424225833336,207.0726749041667,61.0,78.0
797,206.63424225833336,207.0894659416667,56.0,47.0
798,205.73872025833336,207.1622271041667,44.0,76.0
799,207.08200325833337,207.5204359041667,63.0,74.0
800,207.08200325833337,207.55028663750002,51.0,56.0
801,207.52976425833336,207.88237604583335,58.0,58.0
802,207.52976425833336,208.33386838750002,60.0,59.0
803,208.42528625833336,208.68648017500004,56.0,52.0
804,208.42528625833336,208.7965547541667,58.0,71.0
805,208.42528625833336,208.80028609583337,61.0,76.0
806,207.52976425833336,208.80961445000003,44.0,77.0
807,207.97752525833337,208.8133457916667,51.0,61.0
808,208.87304725833337,209.19021130000004,60.0,62.0
809,208.87304725833337,209.1995396541667,63.0,71.0
810,209.54468875833336,210.1734198291667,72.0,77.0
811,210.21633025833336,210.6883449791667,63.0,69.0
812,209.99244975833335,210.84319565833337,60.0,78.0
813,209.54468875833336,210.85812102500003,56.0,62.0
814,210.66409125833337,211.02230005833337,72.0,69.0
815,211.11185225833336,211.6230460666667,72.0,79.0
816,211.11185225833336,211.6510311291667,63.0,59.0
817,211.55961325833337,212.40289647500003,58.0,69.0
818,212.00737425833336,212.45513525833337,68.0,69.0
819,211.11185225833336,212.48871733333337,55.0,63.0
820,212.45513525833337,212.87864253750004,70.0,71.0
821,212.90289625833336,213.33759756250004,72.0,73.0
822,212.90289625833336,213.74058246250002,63.0,47.0
823,213.35065725833337,214.06147784583337,60.0,73.0
824,212.90289625833336,214.14356736250002,53.0,60.0
825,213.79841825833336,214.42528365833337,70.0,79.0
826,214.69394025833336,215.16968632083336,61.0,79.0
827,214.69394025833336,215.2051340666667,56.0,63.0
828,214.69394025833336,215.2890892541667,65.0,75.0
829,215.58946225833336,216.02976057500004,63.0,72.0
830,214.69394025833336,216.0446859416667,49.0,62.0
831,215.58946225833336,216.0502829541667,56.0,58.0
832,215.14170125833337,216.0838650291667,53.0,31.0
833,216.03722325833337,216.3077455291667,61.0,79.0
834,216.48498425833336,217.48684949583335,68.0,84.0
835,216.48498425833336,217.56893901250004,60.0,76.0
836,216.48498425833336,217.77602847500003,44.0,77.0
837,216.93274525833337,217.85438665000004,51.0,73.0
838,217.38050625833336,217.8581179916667,56.0,68.0
839,217.82826725833337,218.17901337500004,68.0,83.0
840,218.27602825833335,218.8040131041667,58.0,76.0
841,218.27602825833335,218.92528170833336,63.0,82.0
842,218.72378925833337,219.59692320833335,55.0,72.0
843,218.27602825833335,219.60625156250003,48.0,83.0
844,219.17155025833335,219.70886345833335,58.0,76.0
845,219.61931125833337,220.03349018333336,67.0,82.0
846,221.41035525833337,221.93834010416668,68.0,82.0
847,221.85811625833335,222.00736992500003,63.0,56.0
848,220.51483325833337,222.55587715000004,56.0,76.0
849,221.85811625833335,222.71445917083338,65.0,69.0
850,220.96259425833335,222.78162332083338,61.0,69.0
851,220.06707225833335,223.11744407083336,49.0,76.0
852,222.75363825833335,223.19393657500004,63.0,68.0
853,223.20139925833337,223.4999065916667,61.0,60.0
854,223.64916025833338,224.07850748333337,75.0,73.0
855,224.0839422583334,224.56582564166672,72.0,60.0
856,224.51872425833338,224.75604276666672,68.0,60.0
857,223.64916025833338,224.81582529166673,56.0,56.0
858,224.0839422583334,224.90640487500005,63.0,48.0
859,224.51872425833338,224.9299555666667,75.0,80.0
860,224.9535062583334,225.37198393333338,75.0,83.0
861,225.38828825833338,226.24624288958339,72.0,79.0
862,225.84283375833337,226.61177322916672,63.0,63.0
863,225.38828825833338,226.69889445000004,55.0,69.0
864,226.29737925833336,226.7481368791667,67.0,82.0
865,226.7519247583334,226.9924550854167,70.0,78.0
866,227.20647025833338,227.90982816250005,68.0,80.0
867,227.6542312583334,228.34079812500005,60.0,25.0
868,227.20647025833338,228.38743989583338,53.0,69.0
869,228.10199225833338,228.50870850000004,67.0,67.0
870,228.10199225833338,228.52176819583337,63.0,69.0
871,228.5497532583334,229.04415602916671,68.0,76.0
872,228.99751425833338,229.67102142916673,61.0,76.0
873,228.99751425833338,229.85385717083338,65.0,78.0
874,229.4452752583334,230.25436438333338,56.0,10.0
875,229.89303625833338,230.35788000833338,63.0,75.0
876,228.99751425833338,230.36373938333338,49.0,69.0
877,230.36178625833338,230.84359595416672,65.0,76.0
878,230.83053625833338,232.28762517916672,49.0,73.0
879,231.72605825833338,232.54322208333338,61.0,72.0
880,231.2782972583334,232.58799818333338,56.0,73.0
881,232.1738192583334,232.6663563583334,65.0,59.0
882,232.62158025833338,233.44434109583338,67.0,79.0
883,232.62158025833338,233.46299780416672,49.0,70.0
884,233.51710225833338,234.05254978750006,58.0,77.0
885,233.0693412583334,234.08613186250005,55.0,79.0
886,233.9648632583334,234.41075858750006,65.0,36.0
887,234.41262425833338,234.83053452500005,60.0,61.0
888,234.41262425833338,234.96859416666672,68.0,54.0
889,235.30814625833338,235.6831460958334,67.0,69.0
890,234.41262425833338,235.77269829583338,53.0,53.0
891,235.30814625833338,235.82493707916672,79.0,80.0
892,235.30814625833338,235.9928474541667,60.0,58.0
893,235.7559072583334,236.13090709583338,68.0,76.0
894,235.7559072583334,236.1421011208334,75.0,69.0
895,234.8603852583334,236.15702648750005,56.0,58.0
896,236.20366825833338,236.6066531583334,73.0,76.0
897,237.09919025833338,237.48911546250005,73.0,80.0
898,237.09919025833338,237.5133691833334,61.0,33.0
899,236.20366825833338,237.52083186666673,49.0,69.0
900,236.6514292583334,237.53948857500004,56.0,42.0
901,237.09919025833338,237.56747363750006,65.0,61.0
902,237.5469512583334,237.8510556041667,72.0,75.0
903,238.4424732583334,239.2777343229167,60.0,78.0
904,237.99471225833338,239.35809147916672,56.0,80.0
905,238.89023425833338,239.38487719791672,63.0,76.0
906,239.31880575833338,239.7813058354167,72.0,75.0
907,239.7473772583334,240.60273454375005,70.0,83.0
908,240.60452025833337,240.88309173333337,63.0,62.0
909,239.7473772583334,241.01880604166672,51.0,77.0
910,240.1759487583334,241.0241631854167,58.0,71.0
911,240.60452025833337,241.10630605625005,67.0,83.0
912,241.46166325833337,242.30280875833338,60.0,40.0
913,241.46166325833337,242.42976188333338,68.0,75.0
914,242.29499625833338,243.17194938333338,56.0,62.0
915,243.23249625833338,243.65632438333338,61.0,72.0
916,243.70124625833338,244.15827750833338,63.0,76.0
917,244.16999625833338,244.61348951250005,60.0,63.0
918,241.46166325833337,244.62376348750004,44.0,81.0
919,241.87832975833336,244.63232513333338,51.0,68.0
920,244.16999625833338,244.64088677916672,56.0,50.0
921,244.16999625833338,244.65801007083337,68.0,78.0
922,244.58095525833338,244.88232519166672,63.0,72.0
923,244.9919142583334,246.21985412500007,49.0,79.0
924,245.8742662583334,246.29522169166674,61.0,76.0
925,245.4330902583334,246.4202215583334,56.0,80.0
926,246.3154422583334,246.64816249166674,68.0,79.0
927,246.7566182583334,247.55257329166673,70.0,83.0
928,246.7566182583334,247.95411094583338,49.0,73.0
929,247.6389702583334,247.9822799458334,72.0,75.0
930,247.1977942583334,248.02277288333337,58.0,47.0
931,247.6389702583334,248.04389963333338,61.0,46.0
932,248.48404025833338,248.83967388333338,65.0,61.0
933,248.48404025833338,248.84143444583339,68.0,75.0
934,248.48404025833338,248.87488513333338,72.0,77.0
935,249.3291102583334,249.75714060416672,79.0,61.0
936,248.48404025833338,249.77418606041672,53.0,74.0
937,248.9065752583334,249.8063830333334,60.0,62.0
938,249.7836557583334,250.2593280083334,77.0,70.0
939,250.2382012583334,250.6484123208334,75.0,76.0
940,251.08327125833338,251.4653133208334,61.0,54.0
941,251.08327125833338,251.4758766958334,65.0,46.0
942,250.2382012583334,251.4811583833334,49.0,72.0
943,251.08327125833338,251.50932738333339,68.0,71.0
944,250.6607362583334,251.5515808833334,56.0,50.0
945,251.5058062583334,251.92482013333338,70.0,80.0
946,251.9283412583334,252.40444369166673,63.0,48.0
947,251.9283412583334,252.58826702500008,60.0,59.0
948,251.9283412583334,252.60481112500008,68.0,73.0
949,252.8106932583334,253.23900162500007,61.0,78.0
950,253.25186925833341,253.72980992500007,63.0,63.0
951,253.6930452583334,253.89892739166675,60.0,49.0
952,253.6930452583334,254.0184125583334,68.0,68.0
953,254.1342212583334,254.5478237583334,70.0,72.0
954,254.5753972583334,254.75738235833342,72.0,71.0
955,252.36951725833342,255.12870549166675,56.0,56.0
956,255.0165732583334,255.13422019166674,73.0,69.0
957,255.4577492583334,255.56988149166673,80.0,57.0
958,255.4577492583334,256.6562773916667,72.0,53.0
959,255.4577492583334,256.67282149166675,75.0,36.0
960,256.5606892583334,257.0459828583334,79.0,78.0
961,257.0018652583334,257.2445120583334,80.0,75.0
962,257.4430412583334,257.6139969583334,84.0,69.0
963,257.8842172583334,258.44855489166673,87.0,72.0
964,255.4577492583334,258.7150987250001,56.0,30.0
965,258.5459812583334,258.8970838250001,91.0,33.0
966,251.9283412583334,258.9081132250001,44.0,73.0
