,start,end,pitch,velocity
0,35.14375,35.3,75.0,104.0
1,35.39375,35.5375,77.0,96.0
2,35.64375,36.33125,77.0,109.0
3,36.64375,36.889583333333334,77.0,106.0
4,37.01875,37.229166666666664,77.0,101.0
5,37.39375,37.579166666666666,75.0,106.0
6,37.64375,37.889583333333334,72.0,99.0
7,37.89375,38.139583333333334,75.0,114.0
8,38.64375,38.99791666666667,70.0,112.0
9,39.14375,39.50208333333333,70.0,109.0
10,39.64375,39.979166666666664,70.0,109.0
11,40.14375,40.2875,68.0,104.0
12,40.39375,41.72083333333333,70.0,109.0
13,43.14375,43.28541666666666,75.0,101.0
14,43.39375,43.51875,75.0,106.0
15,43.64375,44.0125,75.0,109.0
16,44.39375,44.76875,75.0,109.0
17,44.89375,45.0125,75.0,99.0
18,45.14375,45.266666666666666,75.0,106.0
19,45.39375,45.51875,72.0,109.0
20,45.64375,45.760416666666664,70.0,109.0
21,45.89375,46.077083333333334,72.0,109.0
22,46.39375,46.49791666666667,75.0,115.0
23,46.64375,47.416666666666664,77.0,101.0
24,47.64375,48.016666666666666,77.0,109.0
25,48.14375,48.29375,75.0,109.0
26,48.39375,50.28125,72.0,106.0
27,51.14375,51.31041666666667,77.0,106.0
28,51.39375,51.52291666666667,75.0,101.0
29,51.64375,52.20625,77.0,106.0
30,52.39375,52.760416666666664,77.0,112.0
31,52.89375,53.012499999999996,77.0,109.0
32,53.14375,53.302083333333336,77.0,104.0
33,53.39375,53.5375,75.0,106.0
34,53.64375,53.78333333333333,77.0,106.0
35,53.89375,54.31666666666666,80.0,104.0
36,54.64375,54.979166666666664,82.0,109.0
37,55.14375,55.49583333333333,82.0,112.0
38,55.64375,55.80833333333333,82.0,109.0
39,55.89375,56.199999999999996,80.0,106.0
40,56.39375,57.75416666666666,82.0,109.0
41,59.14375,59.28333333333333,82.0,104.0
42,59.39375,59.510416666666664,80.0,106.0
43,59.64375,60.15208333333333,82.0,106.0
44,60.39375,60.510416666666664,82.0,96.0
45,60.64375,61.079166666666666,82.0,109.0
46,61.14375,61.27291666666667,82.0,109.0
47,61.39375,61.52708333333333,80.0,112.0
48,61.64375,61.82083333333333,77.0,96.0
49,61.89375,62.333333333333336,80.0,101.0
50,62.39375,62.53541666666666,77.0,106.0
51,62.64375,63.00625,80.0,109.0
52,63.14375,63.53958333333333,80.0,112.0
53,63.64375,63.797916666666666,79.0,120.0
54,63.89375,64.01666666666667,77.0,94.0
55,64.14375,64.28541666666666,79.0,113.0
56,64.39375,66.46458333333334,79.0,110.0
57,67.14375,67.3,75.0,104.0
58,67.39375,67.5375,77.0,96.0
59,67.64375,68.33125,77.0,109.0
60,68.64375,68.88958333333333,77.0,106.0
61,69.01875,69.22916666666667,77.0,101.0
62,69.39375,69.57916666666667,75.0,106.0
63,69.64375,69.88958333333333,72.0,99.0
64,69.89375,70.13958333333333,75.0,114.0
65,70.64375,70.99791666666667,70.0,112.0
66,71.14375,71.50208333333333,70.0,109.0
67,71.64375,71.97916666666667,70.0,109.0
68,72.14375,72.2875,68.0,104.0
69,72.39375,73.72083333333333,70.0,109.0
70,75.14375,75.28541666666666,75.0,101.0
71,75.39375,75.51875,75.0,106.0
72,75.64375,76.0125,75.0,109.0
73,76.39375,76.76875,75.0,109.0
74,76.89375,77.0125,75.0,99.0
75,77.14375,77.26666666666667,75.0,106.0
76,77.39375,77.51875,72.0,109.0
77,77.64375,77.76041666666667,70.0,109.0
78,77.89375,78.07708333333333,72.0,109.0
79,78.39375,78.49791666666667,75.0,115.0
80,78.64375,79.41666666666667,77.0,101.0
81,79.64375,80.01666666666667,77.0,109.0
82,80.14375,80.29375,75.0,109.0
83,80.39375,82.28125,72.0,106.0
84,83.14375,83.31041666666667,77.0,106.0
85,83.39375,83.52291666666666,75.0,101.0
86,83.64375,84.20625,77.0,106.0
87,84.39375,84.76041666666667,77.0,112.0
88,84.89375,85.0125,77.0,109.0
89,85.14375,85.30208333333333,77.0,104.0
90,85.39375,85.5375,75.0,106.0
91,85.64375,85.78333333333333,77.0,106.0
92,85.89375,86.31666666666666,80.0,104.0
93,86.64375,86.97916666666667,82.0,109.0
94,87.14375,87.49583333333334,82.0,112.0
95,87.64375,87.80833333333334,82.0,109.0
96,87.89375,88.2,80.0,106.0
97,88.39375,89.75416666666666,82.0,109.0
98,91.14375,91.28333333333333,82.0,104.0
99,91.39375,91.51041666666667,80.0,106.0
100,91.64375,92.38958333333333,82.0,106.0
101,92.64375,93.07916666666667,82.0,109.0
102,93.14375,93.27291666666666,82.0,109.0
103,93.39375,93.52708333333334,80.0,112.0
104,93.64375,93.82083333333333,77.0,96.0
105,93.89375,94.33333333333333,80.0,101.0
106,94.39375,94.53541666666666,72.0,106.0
107,94.64375,94.95625,84.0,109.0
108,95.14375,95.46666666666667,84.0,109.0
109,95.64375,95.79791666666667,84.0,106.0
110,95.89375,96.18958333333333,82.0,106.0
111,96.39375,97.84583333333333,84.0,115.0
112,99.14375,99.25833333333333,84.0,106.0
113,99.39375,99.49583333333334,84.0,104.0
114,99.64375,99.96041666666666,84.0,109.0
115,100.14375,100.27291666666666,84.0,109.0
116,100.39375,100.51458333333333,84.0,109.0
117,100.64375,100.77291666666666,84.0,109.0
118,100.89375,101.17291666666667,77.0,115.0
119,101.64375,101.77291666666666,77.0,112.0
120,101.89375,102.00208333333333,79.0,117.0
121,102.14375,102.37083333333334,80.0,109.0
122,102.64375,103.00208333333333,84.0,106.0
123,103.14375,103.3875,82.0,112.0
124,103.64375,103.78125,82.0,106.0
125,103.89375,104.20833333333333,80.0,109.0
126,104.39375,106.37291666666667,82.0,112.0
127,107.14375,107.26666666666667,82.0,109.0
128,107.39375,107.50833333333333,80.0,109.0
129,107.64375,107.74166666666666,82.0,112.0
130,107.89375,108.08749999999999,82.0,112.0
131,108.39375,108.73958333333333,84.0,115.0
132,108.89375,109.00416666666666,82.0,106.0
133,109.14375,109.25833333333333,80.0,112.0
134,109.39375,109.51458333333333,77.0,112.0
135,109.64375,109.76041666666667,80.0,112.0
136,109.89375,109.9875,77.0,109.0
137,110.14375,110.24791666666667,77.0,109.0
138,110.39375,110.5,77.0,112.0
139,110.64375,110.95416666666667,80.0,112.0
140,111.14375,111.40416666666667,80.0,112.0
141,111.64375,111.77708333333334,80.0,106.0
142,111.89375,112.00208333333333,82.0,109.0
143,112.14375,112.26458333333333,80.0,112.0
144,112.39375,114.1,79.0,113.0
145,115.14375,115.25833333333333,84.0,106.0
146,115.39375,115.49583333333334,84.0,104.0
147,115.64375,115.96041666666666,84.0,109.0
148,116.14375,116.27291666666666,84.0,109.0
149,116.39375,116.51458333333333,84.0,109.0
150,116.64375,116.77291666666666,84.0,109.0
151,116.89375,117.17291666666667,77.0,115.0
152,117.64375,117.77291666666666,77.0,112.0
153,117.89375,118.00208333333333,79.0,117.0
154,118.14375,118.37083333333334,80.0,109.0
155,118.64375,119.00208333333333,84.0,106.0
156,119.14375,119.3875,82.0,112.0
157,119.64375,119.78125,82.0,106.0
158,119.89375,120.20833333333333,80.0,109.0
159,120.39375,122.37291666666667,82.0,112.0
160,123.14375,123.26666666666667,82.0,109.0
161,123.39375,123.50833333333333,80.0,109.0
162,123.64375,123.74166666666666,82.0,112.0
163,123.89375,124.08749999999999,82.0,112.0
164,124.39375,124.73958333333333,84.0,115.0
165,124.89375,125.00416666666666,82.0,106.0
166,125.14375,125.25833333333333,80.0,112.0
167,125.39375,125.51458333333333,77.0,112.0
168,125.64375,125.88958333333333,80.0,112.0
169,125.89375,126.28333333333333,77.0,96.0
170,126.39375,126.52916666666667,77.0,101.0
171,126.64375,126.98125,79.0,117.0
172,127.14375,127.45625,79.0,109.0
173,127.64375,127.78541666666666,75.0,104.0
174,127.89375,128.01875,77.0,109.0
175,128.14375,128.38958333333332,79.0,117.0
176,128.39375,130.15625,77.0,106.0
177,147.14375,147.3,75.0,104.0
178,147.39375,147.5375,77.0,96.0
179,147.64375,148.33125,77.0,109.0
180,148.64375,148.88958333333332,77.0,106.0
181,149.01875,149.22916666666666,77.0,101.0
182,149.39375,149.57916666666665,75.0,106.0
183,149.64375,149.88958333333332,72.0,99.0
184,149.89375,150.13958333333332,75.0,114.0
185,150.64375,150.99791666666667,70.0,112.0
186,151.14375,151.50208333333333,70.0,109.0
187,151.64375,151.97916666666666,70.0,109.0
188,152.14375,152.2875,68.0,104.0
189,152.39375,153.72083333333333,70.0,109.0
190,155.14375,155.28541666666666,75.0,101.0
191,155.39375,155.51875,75.0,106.0
192,155.64375,156.0125,75.0,109.0
193,156.39375,156.76875,75.0,109.0
194,156.89375,157.0125,75.0,99.0
195,157.14375,157.26666666666665,75.0,106.0
196,157.39375,157.51875,72.0,109.0
197,157.64375,157.76041666666666,70.0,109.0
198,157.89375,158.07708333333332,72.0,109.0
199,158.39375,158.49791666666667,75.0,115.0
200,158.64375,159.41666666666666,77.0,101.0
201,159.64375,160.01666666666665,77.0,109.0
202,160.14375,160.29375,75.0,109.0
203,160.39375,162.28125,72.0,106.0
204,163.14375,163.31041666666667,77.0,106.0
205,163.39375,163.52291666666667,75.0,101.0
206,163.64375,164.20625,77.0,106.0
207,164.39375,164.76041666666666,77.0,112.0
208,164.89375,165.0125,77.0,109.0
209,165.14375,165.30208333333334,77.0,104.0
210,165.39375,165.5375,75.0,106.0
211,165.64375,165.78333333333333,77.0,106.0
212,165.89375,166.31666666666666,80.0,104.0
213,166.64375,166.97916666666666,82.0,109.0
214,167.14375,167.49583333333334,82.0,112.0
215,167.64375,167.80833333333334,82.0,109.0
216,167.89375,168.2,80.0,106.0
217,168.39375,169.75416666666666,82.0,109.0
218,171.14375,171.28333333333333,82.0,104.0
219,171.39375,171.51041666666666,80.0,106.0
220,171.64375,172.38958333333332,82.0,106.0
221,172.64375,173.07916666666665,82.0,109.0
222,173.14375,173.27291666666667,82.0,109.0
223,173.39375,173.52708333333334,80.0,112.0
224,173.64375,173.82083333333333,77.0,96.0
225,173.89375,174.33333333333334,80.0,101.0
226,174.39375,174.53541666666666,72.0,106.0
227,174.64375,174.95625,84.0,109.0
228,175.14375,175.46666666666667,84.0,109.0
229,175.64375,175.79791666666665,84.0,106.0
230,175.89375,176.18958333333333,82.0,106.0
231,176.39375,177.84583333333333,84.0,115.0
232,179.14375,179.25833333333333,84.0,106.0
233,179.39375,179.49583333333334,84.0,104.0
234,179.64375,179.96041666666667,84.0,109.0
235,180.14375,180.27291666666667,84.0,109.0
236,180.39375,180.51458333333332,84.0,109.0
237,180.64375,180.77291666666667,84.0,109.0
238,180.89375,181.17291666666665,77.0,115.0
239,181.64375,181.77291666666667,77.0,112.0
240,181.89375,182.00208333333333,79.0,117.0
241,182.14375,182.37083333333334,80.0,109.0
242,182.64375,183.00208333333333,84.0,106.0
243,183.14375,183.3875,82.0,112.0
244,183.64375,183.78125,82.0,106.0
245,183.89375,184.20833333333334,80.0,109.0
246,184.39375,186.37291666666667,82.0,112.0
247,187.14375,187.26666666666665,82.0,109.0
248,187.39375,187.50833333333333,80.0,109.0
249,187.64375,187.74166666666667,82.0,112.0
250,187.89375,188.0875,82.0,112.0
251,188.39375,188.73958333333334,84.0,115.0
252,188.89375,189.00416666666666,82.0,106.0
253,189.14375,189.25833333333333,80.0,112.0
254,189.39375,189.51458333333332,77.0,112.0
255,189.64375,189.76041666666666,80.0,112.0
256,189.89375,189.9875,77.0,109.0
257,190.14375,190.24791666666667,77.0,109.0
258,190.39375,190.5,77.0,112.0
259,190.64375,190.95416666666665,80.0,112.0
260,191.14375,191.40416666666667,80.0,112.0
261,191.64375,191.77708333333334,80.0,106.0
262,191.89375,192.00208333333333,82.0,109.0
263,192.14375,192.26458333333332,80.0,112.0
264,192.39375,194.1,79.0,113.0
265,195.14375,195.25833333333333,84.0,106.0
266,195.39375,195.49583333333334,84.0,104.0
267,195.64375,195.96041666666667,84.0,109.0
268,196.14375,196.27291666666667,84.0,109.0
269,196.39375,196.51458333333332,84.0,109.0
270,196.64375,196.77291666666667,84.0,109.0
271,196.89375,197.17291666666665,77.0,115.0
272,197.64375,197.77291666666667,77.0,112.0
273,197.89375,198.00208333333333,79.0,117.0
274,198.14375,198.37083333333334,80.0,109.0
275,198.64375,199.00208333333333,84.0,106.0
276,199.14375,199.3875,82.0,112.0
277,199.64375,199.78125,82.0,106.0
278,199.89375,200.20833333333334,80.0,109.0
279,200.39375,202.37291666666667,82.0,112.0
280,203.14375,203.26666666666665,82.0,109.0
281,203.39375,203.50833333333333,80.0,109.0
282,203.64375,203.74166666666667,82.0,112.0
283,203.89375,204.0875,82.0,112.0
284,204.39375,204.73958333333334,84.0,115.0
285,204.89374999999998,205.00416666666666,82.0,106.0
286,205.14374999999998,205.25833333333333,80.0,112.0
287,205.39374999999998,205.51458333333332,77.0,112.0
288,205.64374999999998,205.88958333333332,80.0,112.0
289,205.89374999999998,206.28333333333333,77.0,96.0
290,206.39374999999998,206.52916666666667,77.0,101.0
291,206.64374999999998,206.98125,79.0,117.0
292,207.14374999999998,207.45624999999998,79.0,109.0
293,207.64374999999998,207.78541666666666,75.0,104.0
294,207.89374999999998,208.01874999999998,77.0,109.0
295,208.14374999999998,208.38958333333332,79.0,117.0
296,208.39374999999998,210.15625,77.0,106.0
297,211.14374999999998,211.25833333333333,84.0,106.0
298,211.39374999999998,211.49583333333334,84.0,104.0
299,211.64374999999998,211.96041666666667,84.0,109.0
300,212.14374999999998,212.27291666666667,84.0,109.0
301,212.39374999999998,212.51458333333332,84.0,109.0
302,212.64374999999998,212.77291666666667,84.0,109.0
303,212.89374999999998,213.17291666666665,77.0,115.0
304,213.64374999999998,213.77291666666667,77.0,112.0
305,213.89374999999998,214.00208333333333,79.0,117.0
306,214.14374999999998,214.37083333333334,80.0,109.0
307,214.64374999999998,215.00208333333333,84.0,106.0
308,215.14374999999998,215.3875,82.0,112.0
309,215.64374999999998,215.78125,82.0,106.0
310,215.89374999999998,216.20833333333334,80.0,109.0
311,216.39374999999998,218.37291666666667,82.0,112.0
312,219.14374999999998,219.26666666666665,82.0,109.0
313,219.39374999999998,219.50833333333333,80.0,109.0
314,219.64374999999998,219.74166666666667,82.0,112.0
315,219.89374999999998,220.0875,82.0,112.0
316,220.39374999999998,220.73958333333334,84.0,115.0
317,220.89374999999998,221.00416666666666,82.0,106.0
318,221.14374999999998,221.25833333333333,80.0,112.0
319,221.39374999999998,221.51458333333332,77.0,112.0
320,221.64374999999998,221.76041666666666,80.0,112.0
321,221.89374999999998,221.98749999999998,77.0,109.0
322,222.14374999999998,222.24791666666667,77.0,109.0
323,222.39374999999998,222.5,77.0,112.0
324,222.64374999999998,222.95416666666665,80.0,112.0
325,223.14374999999998,223.40416666666667,80.0,112.0
326,223.64374999999998,223.77708333333334,80.0,106.0
327,223.89374999999998,224.00208333333333,82.0,109.0
328,224.14374999999998,224.26458333333332,80.0,112.0
329,224.39374999999998,226.1,79.0,113.0
330,227.14374999999998,227.25833333333333,84.0,106.0
331,227.39374999999998,227.49583333333334,84.0,104.0
332,227.64374999999998,227.96041666666667,84.0,109.0
333,228.14374999999998,228.27291666666667,84.0,109.0
334,228.39374999999998,228.51458333333332,84.0,109.0
335,228.64374999999998,228.77291666666667,84.0,109.0
336,228.89374999999998,229.17291666666665,77.0,115.0
337,229.64374999999998,229.77291666666667,77.0,112.0
338,229.89374999999998,230.00208333333333,79.0,117.0
339,230.14374999999998,230.37083333333334,80.0,109.0
340,230.64374999999998,231.00208333333333,84.0,106.0
341,231.14374999999998,231.3875,82.0,112.0
342,231.64374999999998,231.78125,82.0,106.0
343,231.89374999999998,232.20833333333334,80.0,109.0
344,232.39374999999998,234.37291666666667,82.0,112.0
345,235.14374999999998,235.26666666666665,82.0,109.0
346,235.39374999999998,235.50833333333333,80.0,109.0
347,235.64374999999998,235.74166666666667,82.0,112.0
348,235.89374999999998,236.0875,82.0,112.0
349,236.39374999999998,236.73958333333334,84.0,115.0
350,236.89374999999998,237.00416666666666,82.0,106.0
351,237.14374999999998,237.25833333333333,80.0,112.0
352,237.39374999999998,237.51458333333332,77.0,112.0
353,237.64374999999998,237.88958333333332,80.0,112.0
354,237.89374999999998,238.28333333333333,77.0,96.0
355,238.39374999999998,238.52916666666667,77.0,101.0
356,238.64374999999998,238.98125,79.0,117.0
357,239.14374999999998,239.45624999999998,79.0,109.0
358,239.64374999999998,239.78541666666666,75.0,104.0
359,239.89374999999998,240.01874999999998,77.0,109.0
360,240.14374999999998,240.38958333333332,79.0,117.0
361,240.39374999999998,242.15625,77.0,106.0
362,243.15,243.31875,82.0,94.0
363,243.42291666666665,243.54999999999998,80.0,99.0
364,243.70624999999998,243.95,82.0,104.0
365,244.14374999999998,244.44791666666666,82.0,104.0
366,244.61041666666665,245.0,84.0,106.0
367,245.11249999999998,245.24375,82.0,104.0
368,245.40833333333333,245.54166666666666,80.0,106.0
369,245.63333333333333,245.74166666666667,77.0,99.0
370,245.88333333333333,246.04999999999998,80.0,101.0
371,246.15625,247.65208333333334,77.0,104.0
372,248.12708333333333,248.40416666666667,77.0,99.0
373,248.50833333333333,248.89166666666665,79.0,110.0
374,249.08124999999998,249.55625,79.0,113.0
375,249.73333333333332,249.99583333333334,75.0,104.0
376,250.13125,250.53333333333333,77.0,104.0
377,250.71458333333334,251.96875,79.0,110.0
378,252.475,255.25625,77.0,101.0
