,start,end,pitch,velocity
0,20.949956354166666,21.1038021875,70.0,84.0
1,21.174955885416665,21.31726328125,70.0,85.0
2,21.423032291666665,21.849954479166666,70.0,88.0
3,21.8768775,22.065338645833332,68.0,85.0
4,22.111492395833334,22.305722760416668,70.0,85.0
5,22.348030364583334,23.944180885416667,71.0,85.0
6,24.655717864583334,24.799948333333333,68.0,83.0
7,24.886486614583333,25.03264015625,68.0,82.0
8,25.128793802083333,25.47110078125,68.0,85.0
9,25.549946770833333,25.721100260416666,73.0,85.0
10,25.780715520833333,25.942253645833333,68.0,86.0
11,26.02686885416667,27.494173489583332,70.0,86.0
12,28.34417171875,28.548017447916667,66.0,87.0
13,28.561478958333332,28.774940052083334,65.0,86.0
14,28.803786145833335,29.1114778125,66.0,90.0
15,29.267246718750002,29.565323020833333,73.0,89.0
16,29.715322708333332,29.990322135416665,75.0,88.0
17,30.1845525,30.336475260416666,70.0,87.0
18,30.419167395833334,30.815320416666665,68.0,86.0
19,30.83647421875,31.538395833333333,66.0,84.0
20,31.5807034375,31.940318072916668,71.0,88.0
21,32.02685635416667,32.442240104166665,70.0,86.0
22,32.49416307291667,32.663393489583335,66.0,85.0
23,32.73262411458333,33.28646911458333,68.0,86.0
24,33.384545833333334,35.069157708333336,68.0,87.0
25,35.728771718750004,35.853771458333334,70.0,90.0
26,35.94800203125,36.073001770833336,70.0,86.0
27,36.176847708333334,36.64030828125,70.0,89.0
28,36.61915447916667,37.13646109375,73.0,86.0
29,37.09992270833333,38.3191509375,71.0,87.0
30,38.49030442708333,38.85184213541667,75.0,92.0
31,38.94991885416667,39.46145625,73.0,86.0
32,39.417225572916664,39.74222489583333,77.0,87.0
33,39.872993854166666,40.36337744791667,73.0,86.0
34,40.346069791666665,40.79414578125,71.0,88.0
35,40.79414578125,41.75375916666667,70.0,85.0
36,42.1845275,42.36145020833333,66.0,87.0
37,42.394142447916664,42.551834427083335,65.0,88.0
38,42.66144958333334,43.02106421875,66.0,87.0
39,43.12875630208333,43.29414057291667,75.0,89.0
40,43.37875578125,43.50375552083333,75.0,89.0
41,43.61337067708333,43.915293125,75.0,92.0
42,44.04798515625,44.17490796875,66.0,87.0
43,44.28260005208333,44.438368958333335,66.0,84.0
44,44.52106109375,44.8960603125,65.0,87.0
45,44.98259859375,45.13067520833334,73.0,81.0
46,45.205675052083336,45.347982447916664,73.0,83.0
47,45.453751458333336,45.75952005208333,73.0,86.0
48,45.89413515625,46.06913479166667,66.0,89.0
49,46.151826927083334,46.54413380208334,68.0,86.0
50,46.63259515625,47.678746822916665,70.0,86.0
51,47.730669791666664,47.88643869791667,70.0,86.0
52,47.92490015625,48.07489984375,68.0,82.0
53,48.174899635416665,48.596052604166665,70.0,89.0
54,48.65374479166667,48.8306675,75.0,87.0
55,48.903744270833336,49.31143572916667,73.0,85.0
56,49.328743385416665,50.069126458333336,70.0,86.0
57,50.04412651041667,52.02489161458333,68.0,83.0
58,54.21334859375,54.38642515625,66.0,87.0
59,54.44411734375,54.73065520833333,78.0,81.0
60,54.67488609375,54.972962395833335,77.0,96.0
61,54.90565484375,55.209500364583334,73.0,85.0
62,55.36719234375,55.65949942708333,70.0,87.0
63,55.59796109375,57.197957760416664,75.0,89.0
64,57.90564859375,58.07872515625,66.0,87.0
65,58.13641734375,58.422955208333335,78.0,81.0
66,58.36718609375,58.66526239583333,77.0,96.0
67,58.59795484375,58.90180036458333,73.0,85.0
68,59.05949234375,59.351799427083336,70.0,87.0
69,59.29026109375,60.89025776041667,73.0,89.0
70,61.986409322916664,62.282562552083334,70.0,89.0
71,62.355639322916666,62.617177239583334,71.0,86.0
72,62.6767925,62.86333057291667,73.0,91.0
73,62.986407239583336,63.34217572916667,75.0,89.0
74,63.42102171875,63.734482604166665,66.0,87.0
75,63.89794380208333,64.13640484375,70.0,87.0
76,64.24025078125,64.46332723958334,71.0,89.0
77,64.52678864583334,64.70371135416667,73.0,87.0
78,64.81524958333334,65.22101796875,75.0,90.0
79,65.27486401041666,65.68063239583333,66.0,86.0
80,65.74986302083333,66.17678520833333,75.0,91.0
81,66.18640057291667,66.46524614583333,73.0,88.0
82,66.43255390625,67.09409098958334,75.0,92.0
83,67.09793713541667,68.60562630208334,70.0,87.0
84,68.98254859375,69.15562515625,66.0,87.0
85,69.21331734375,69.49985520833333,78.0,81.0
86,69.44408609375,69.74216239583333,77.0,96.0
87,69.67485484375,69.97870036458333,73.0,85.0
88,70.13639234375,70.42869942708333,70.0,87.0
89,70.36716109375,71.96715776041667,75.0,89.0
90,72.6575409375,72.81523291666667,77.0,87.0
91,72.87292510416667,73.04407859375,78.0,86.0
92,73.13253994791667,73.46715463541666,77.0,102.0
93,73.57676979166666,73.9036921875,78.0,89.0
94,74.053691875,74.31138364583333,80.0,87.0
95,74.39407578125,74.65561369791666,77.0,90.0
96,74.70176744791667,74.91138239583333,73.0,91.0
97,75.00368989583333,75.27099703125,80.0,89.0
98,75.32292,75.56330411458333,77.0,88.0
99,75.61522708333334,75.83061125,73.0,89.0
100,75.89791880208334,76.72099401041666,78.0,87.0
101,76.75560932291667,77.05176255208333,70.0,89.0
102,77.12483932291667,77.38637723958334,71.0,86.0
103,77.4459925,77.63253057291666,73.0,91.0
104,77.75560723958333,78.11137572916667,75.0,89.0
105,78.66714380208333,78.90560484375,75.0,87.0
106,79.00945078125,79.23252723958333,73.0,89.0
107,79.29598864583333,79.47291135416667,70.0,87.0
108,79.58444958333334,79.99021796875,70.0,90.0
109,80.50752458333334,80.78252401041667,71.0,89.0
110,80.84790848958333,81.14213864583333,70.0,89.0
111,81.18060010416667,81.43636880208334,66.0,86.0
112,81.45175338541667,81.9113678125,68.0,85.0
113,81.90559859375,85.01328442708333,66.0,89.0
114,96.64210635416667,96.7959521875,70.0,84.0
115,96.86710588541666,97.00941328125,70.0,85.0
116,97.11518229166667,97.54210447916667,70.0,88.0
117,97.5690275,97.75748864583333,68.0,85.0
118,97.80364239583334,97.99787276041667,70.0,85.0
119,98.04018036458334,99.63633088541667,71.0,85.0
120,100.34786786458334,100.49209833333333,68.0,83.0
121,100.57863661458333,100.72479015625,68.0,82.0
122,100.82094380208333,101.16325078125,68.0,85.0
123,101.24209677083333,101.41325026041666,73.0,85.0
124,101.47286552083334,101.63440364583333,68.0,86.0
125,101.71901885416666,103.18632348958333,70.0,86.0
126,104.03632171875,104.24016744791666,66.0,87.0
127,104.25362895833334,104.46709005208334,65.0,86.0
128,104.49593614583334,104.8036278125,66.0,90.0
129,104.95939671875,105.25747302083333,73.0,89.0
130,105.40747270833333,105.68247213541667,75.0,88.0
131,105.87670250000001,106.02862526041666,70.0,87.0
132,106.11131739583334,106.50747041666666,68.0,86.0
133,106.52862421875,107.23054583333334,66.0,84.0
134,107.2728534375,107.63246807291667,71.0,88.0
135,107.71900635416667,108.13439010416667,70.0,86.0
136,108.18631307291666,108.35554348958334,66.0,85.0
137,108.42477411458333,108.97861911458334,68.0,86.0
138,109.07669583333333,110.76130770833333,68.0,87.0
139,111.42092171875,111.54592145833334,70.0,90.0
140,111.64015203125,111.76515177083333,70.0,86.0
141,111.86899770833334,112.33245828125,70.0,89.0
142,112.31130447916667,112.82861109375,73.0,86.0
143,112.79207270833334,114.0113009375,71.0,87.0
144,114.18245442708333,114.54399213541667,75.0,92.0
145,114.64206885416667,115.15360625,73.0,86.0
146,115.10937557291666,115.43437489583333,77.0,87.0
147,115.56514385416666,116.05552744791667,73.0,86.0
148,116.03821979166666,116.48629578125,71.0,88.0
149,116.48629578125,117.44590916666667,70.0,85.0
150,117.8766775,118.05360020833334,66.0,87.0
151,118.08629244791666,118.24398442708333,65.0,88.0
152,118.35359958333333,118.71321421875,66.0,87.0
153,118.82090630208333,118.98629057291667,75.0,89.0
154,119.07090578125,119.19590552083334,75.0,89.0
155,119.30552067708334,119.607443125,75.0,92.0
156,119.74013515625,119.86705796875,66.0,87.0
157,119.97475005208334,120.13051895833334,66.0,84.0
158,120.21321109375,120.5882103125,65.0,87.0
159,120.67474859375,120.82282520833333,73.0,81.0
160,120.89782505208333,121.04013244791666,73.0,83.0
161,121.14590145833333,121.45167005208333,73.0,86.0
162,121.58628515625,121.76128479166667,66.0,89.0
163,121.84397692708333,122.23628380208334,68.0,86.0
164,122.32474515625,123.37089682291666,70.0,86.0
165,123.42281979166667,123.57858869791667,70.0,86.0
166,123.61705015625,123.76704984375,68.0,82.0
167,123.86704963541666,124.28820260416667,70.0,89.0
168,124.34589479166667,124.5228175,75.0,87.0
169,124.59589427083334,125.00358572916667,73.0,85.0
170,125.02089338541667,125.76127645833333,70.0,86.0
171,125.73627651041667,127.71704161458334,68.0,83.0
172,128.05934859375,128.23242515625,66.0,87.0
173,128.29011734375,128.57665520833334,78.0,81.0
174,128.52088609375,128.81896239583332,77.0,96.0
175,128.75165484375,129.05550036458334,73.0,85.0
176,129.21319234375,129.50549942708332,70.0,87.0
177,129.44396109375,131.04395776041667,75.0,89.0
178,131.75164859375,131.92472515625,66.0,87.0
179,131.98241734375,132.26895520833332,78.0,81.0
180,132.21318609375,132.51126239583334,77.0,96.0
181,132.44395484375,132.74780036458333,73.0,85.0
182,132.90549234375,133.19779942708334,70.0,87.0
183,133.13626109375,134.73625776041666,73.0,89.0
184,135.83240932291667,136.12856255208334,70.0,89.0
185,136.20163932291666,136.46317723958333,71.0,86.0
186,136.5227925,136.70933057291666,73.0,91.0
187,136.83240723958335,137.18817572916666,75.0,89.0
188,137.26702171875,137.58048260416666,66.0,87.0
189,137.74394380208332,137.98240484375,70.0,87.0
190,138.08625078125,138.30932723958333,71.0,89.0
191,138.37278864583334,138.54971135416667,73.0,87.0
192,138.66124958333333,139.06701796875,75.0,90.0
193,139.12086401041668,139.52663239583333,66.0,86.0
194,139.59586302083332,140.02278520833335,75.0,91.0
195,140.03240057291666,140.31124614583334,73.0,88.0
196,140.27855390625,140.94009098958333,75.0,92.0
197,140.94393713541666,142.45162630208333,70.0,87.0
198,142.82854859375,143.00162515625001,66.0,87.0
199,143.05931734375,143.34585520833335,78.0,81.0
200,143.29008609375,143.58816239583334,77.0,96.0
201,143.52085484375,143.82470036458332,73.0,85.0
202,143.98239234375,144.27469942708333,70.0,87.0
203,144.21316109375,145.81315776041666,75.0,89.0
204,146.5035409375,146.66123291666668,77.0,87.0
205,146.71892510416666,146.89007859375,78.0,86.0
206,146.97853994791666,147.31315463541668,77.0,102.0
207,147.42276979166667,147.7496921875,78.0,89.0
208,147.899691875,148.15738364583333,80.0,87.0
209,148.24007578125,148.50161369791667,77.0,90.0
210,148.54776744791667,148.75738239583333,73.0,91.0
211,148.84968989583334,149.11699703125,80.0,89.0
212,149.16892,149.40930411458334,77.0,88.0
213,149.46122708333334,149.67661125,73.0,89.0
214,149.74391880208333,150.56699401041666,78.0,87.0
215,150.60160932291666,150.89776255208332,70.0,89.0
216,150.97083932291667,151.23237723958334,71.0,86.0
217,151.2919925,151.47853057291667,73.0,91.0
218,151.60160723958333,151.95737572916667,75.0,89.0
219,152.51314380208333,152.75160484375,75.0,87.0
220,152.85545078125,153.07852723958334,73.0,89.0
221,153.14198864583332,153.31891135416666,70.0,87.0
222,153.43044958333334,153.83621796875,70.0,90.0
223,154.35352458333332,154.62852401041667,71.0,89.0
224,154.69390848958332,154.98813864583335,70.0,89.0
225,155.02660010416668,155.28236880208334,66.0,86.0
226,155.29775338541666,155.7573678125,68.0,85.0
227,155.75159859375,158.85928442708334,66.0,89.0
228,159.44389859375,159.76505177083334,75.0,96.0
229,159.90543609375,160.24389692708334,75.0,94.0
230,160.36697359375,160.5112040625,73.0,86.0
231,160.59774234375,160.75543432291667,70.0,89.0
232,160.82851109375,161.16504885416666,73.0,92.0
233,161.29004859375002,161.63812479166666,75.0,89.0
234,161.75158609375,162.07466234375,75.0,92.0
235,162.21312359375,162.37081557291665,73.0,87.0
236,162.44389234375,162.6111996875,70.0,86.0
237,162.67466109375,163.02850651041666,73.0,89.0
238,163.13619859375,163.48235171875,75.0,92.0
239,163.59773609375,163.94196614583333,75.0,94.0
240,164.05927359375,164.22081171875,73.0,87.0
241,164.29004234375,164.45927276041667,70.0,81.0
242,164.52081109375,164.8727334375,73.0,89.0
243,164.98234859375,165.3342709375,75.0,87.0
244,165.44388609375,166.36696109375,75.0,92.0
245,166.82849859375,167.17272864583333,71.0,89.0
246,167.29003609375,167.64965072916667,71.0,92.0
247,167.75157359375,167.9188809375,70.0,88.0
248,167.98234234375,168.14580354166668,68.0,79.0
249,168.21311109375,168.55926421875,70.0,90.0
250,168.65157171875,168.98234026041666,71.0,89.0
251,169.11118614583333,169.40926244791666,71.0,94.0
252,169.44772390625,169.72272333333333,70.0,91.0
253,169.7534925,170.00926119791666,68.0,86.0
254,170.0419534375,171.30156619791666,73.0,88.0
255,172.13617984375,172.75156317708334,75.0,89.0
256,172.82848609375,173.77079182291666,73.0,86.0
257,174.21309859375,174.55732864583334,75.0,90.0
258,174.67463609375,175.03040458333334,75.0,91.0
259,175.13617359375,175.31886552083333,73.0,87.0
260,175.36694234375,175.54963427083334,70.0,77.0
261,175.59771109375,175.96694109375,73.0,92.0
262,176.05924859375,176.39578635416666,75.0,89.0
263,176.52078609375,176.79386244791667,75.0,102.0
264,176.98232359375,177.2650153125,73.0,90.0
265,177.21309234375,177.43232265625,70.0,89.0
266,177.44386109375,177.67462984375,73.0,96.0
267,177.74193739583333,177.98809072916666,75.0,90.0
268,178.06693671875001,178.29001317708332,77.0,87.0
269,178.37847453125,178.9265503125,75.0,102.0
270,179.03231932291666,179.17270364583334,77.0,90.0
271,179.28616494791666,179.55347208333333,78.0,87.0
272,179.70539484375,179.91308671875,77.0,87.0
273,179.98231734375,180.98231526041667,75.0,92.0
274,181.54962177083334,181.915005625,76.0,89.0
275,182.0188515625,182.37077390625,76.0,89.0
276,182.49000442708333,182.63423489583334,75.0,96.0
277,182.70346552083333,182.84769598958334,73.0,83.0
278,182.95154192708333,183.30154119791666,75.0,92.0
279,183.39000255208333,183.80346322916668,76.0,87.0
280,183.85923234375,184.33230828125,75.0,91.0
281,184.3496159375,184.75538432291665,73.0,86.0
282,184.8803840625,186.9573028125,77.0,96.0
283,187.13614859375,187.30922515625,66.0,87.0
284,187.36691734375,187.65345520833333,78.0,81.0
285,187.59768609375,187.89576239583334,77.0,96.0
286,187.82845484375,188.13230036458333,73.0,85.0
287,188.28999234375001,188.58229942708334,70.0,87.0
288,188.52076109375,190.12075776041667,75.0,89.0
289,190.82844859375,191.00152515625,66.0,87.0
290,191.05921734375,191.34575520833334,78.0,81.0
291,191.28998609375,191.58806239583333,77.0,96.0
292,191.52075484375,191.82460036458335,73.0,85.0
293,191.98229234375,192.27459942708333,70.0,87.0
294,192.21306109375,193.81305776041665,73.0,89.0
295,194.90920932291667,195.20536255208333,70.0,89.0
296,195.27843932291665,195.53997723958332,71.0,86.0
297,195.5995925,195.78613057291668,73.0,91.0
298,195.90920723958334,196.26497572916668,75.0,89.0
299,196.34382171875,196.65728260416668,66.0,87.0
300,196.82074380208334,197.05920484375,70.0,87.0
301,197.16305078125,197.38612723958335,71.0,89.0
302,197.44958864583333,197.62651135416667,73.0,87.0
303,197.73804958333332,198.14381796875,75.0,90.0
304,198.19766401041667,198.60343239583332,66.0,86.0
305,198.67266302083334,199.09958520833334,75.0,91.0
306,199.10920057291668,199.38804614583333,73.0,88.0
307,199.35535390625,200.01689098958335,75.0,92.0
308,200.02073713541668,201.52842630208335,70.0,87.0
309,201.90534859375,202.07842515625,66.0,87.0
310,202.13611734375002,202.42265520833334,78.0,81.0
311,202.36688609375,202.66496239583333,77.0,96.0
312,202.59765484375,202.90150036458334,73.0,85.0
313,203.05919234375,203.35149942708333,70.0,87.0
314,203.28996109375,204.88995776041668,75.0,89.0
315,205.5803409375,205.73803291666667,77.0,87.0
316,205.79572510416668,205.96687859375,78.0,86.0
317,206.05533994791668,206.38995463541667,77.0,102.0
318,206.49956979166666,206.8264921875,78.0,89.0
319,206.976491875,207.23418364583333,80.0,87.0
320,207.31687578125,207.57841369791666,77.0,90.0
321,207.62456744791666,207.83418239583332,73.0,91.0
322,207.92648989583333,208.19379703125,80.0,89.0
323,208.24572,208.48610411458333,77.0,88.0
324,208.53802708333333,208.75341125,73.0,89.0
325,208.82071880208335,209.64379401041666,78.0,87.0
326,209.67840932291668,209.97456255208334,70.0,89.0
327,210.04763932291667,210.30917723958333,71.0,86.0
328,210.3687925,210.55533057291666,73.0,91.0
329,210.67840723958332,211.03417572916666,75.0,89.0
330,211.58994380208333,211.82840484375,75.0,87.0
331,211.93225078125,212.15532723958333,73.0,89.0
332,212.21878864583334,212.39571135416668,70.0,87.0
333,212.50724958333333,212.91301796875,70.0,90.0
334,213.43032458333334,213.70532401041666,71.0,89.0
335,213.77070848958334,214.06493864583334,70.0,89.0
336,214.10340010416667,214.35916880208333,66.0,86.0
337,214.37455338541668,214.8341678125,68.0,85.0
338,214.82839859375,217.93608442708333,66.0,89.0
