,start,end,pitch,velocity
0,3.9057610937500002,4.371144739583333,66.0,85.0
1,4.13652984375,4.3942216145833335,58.0,80.0
2,4.36729859375,4.636528802083333,61.0,82.0
3,4.59806734375,4.8346053125,58.0,81.0
4,4.82883609375,5.1134508854166665,66.0,86.0
5,5.05960484375,5.32498890625,58.0,82.0
6,5.29037359375,5.5480653645833335,61.0,81.0
7,4.82883609375,5.592296041666667,49.0,80.0
8,3.9057610937500002,5.626911354166666,42.0,86.0
9,5.52114234375,5.771141822916666,58.0,75.0
10,5.75191109375,6.2038332291666665,66.0,85.0
11,5.98267984375,6.257679270833333,58.0,80.0
12,6.21344859375,6.4922941666666665,61.0,82.0
13,6.44421734375,6.6769091666666665,58.0,82.0
14,5.75191109375,6.961523958333333,42.0,85.0
15,6.9057548437500005,7.18267734375,58.0,85.0
16,6.67498609375,7.1922927083333335,66.0,86.0
17,7.13652359375,7.42498453125,61.0,85.0
18,7.36729234375,7.61536875,58.0,75.0
19,7.59806109375,7.911521979166666,66.0,85.0
20,7.82882984375,8.086521614583333,58.0,86.0
21,8.05959859375,8.3422903125,63.0,76.0
22,8.29036734375,8.563443697916666,58.0,85.0
23,7.59806109375,8.7807509375,51.0,90.0
24,8.52113609375,8.8269046875,66.0,87.0
25,8.75190484375,9.003827395833333,58.0,86.0
26,8.98267359375,9.301903697916666,63.0,86.0
27,9.21344234375,9.499980208333334,58.0,81.0
28,9.44421109375,9.79036421875,66.0,85.0
29,9.67497984375,9.936517760416667,58.0,81.0
30,9.44421109375,10.017286822916667,39.0,90.0
31,9.90574859375,10.20574796875,63.0,81.0
32,10.13651734375,10.4192090625,58.0,83.0
33,10.59805484375,10.832669739583334,58.0,82.0
34,10.36728609375,10.861515833333334,66.0,83.0
35,10.82882359375,11.040361614583333,63.0,81.0
36,11.05959234375,11.182669010416667,58.0,86.0
37,11.29036109375,11.771129322916666,59.0,85.0
38,11.29036109375,11.771129322916666,63.0,85.0
39,11.751898593750001,11.938436666666666,54.0,81.0
40,11.98266734375,12.457666354166667,63.0,90.0
41,12.21343609375,12.59997375,54.0,86.0
42,12.44420484375,12.74420421875,59.0,78.0
43,11.29036109375,13.001895989583334,47.0,94.0
44,12.67497359375,13.0153575,63.0,81.0
45,12.905742343750001,13.20574171875,54.0,78.0
46,13.13651109375,13.405741302083333,59.0,74.0
47,13.13651109375,13.599971666666667,63.0,85.0
48,13.36727984375,13.80574046875,54.0,84.0
49,13.59804859375,13.911509479166666,59.0,77.0
50,13.82881734375,14.321124010416666,63.0,85.0
51,14.05958609375,14.49804671875,54.0,86.0
52,14.29035484375,14.557661979166667,59.0,89.0
53,13.13651109375,14.563431197916668,47.0,86.0
54,14.52112359375,14.657661770833334,63.0,85.0
55,14.98266109375,15.3807371875,40.0,92.0
56,14.98266109375,15.388429479166668,76.0,81.0
57,14.98266109375,15.411506354166667,64.0,86.0
58,15.67496734375,16.176889375000002,75.0,90.0
59,15.67496734375,16.196120104166667,63.0,87.0
60,15.67496734375,16.265350729166666,39.0,90.0
61,16.36727359375,16.671119114583334,74.0,85.0
62,16.36727359375,16.676888333333334,62.0,87.0
63,16.36727359375,16.740349739583333,38.0,88.0
64,16.82881109375,19.923035416666668,61.0,87.0
65,16.82881109375,20.132650364583334,37.0,87.0
66,19.59803609375,20.219188645833334,65.0,85.0
67,16.82881109375,20.26726546875,73.0,86.0
68,19.59803609375,20.280726979166666,68.0,74.0
69,20.05957359375,20.380726770833334,61.0,75.0
70,20.52111109375,20.951879427083334,58.0,74.0
71,20.52111109375,20.97111015625,54.0,78.0
72,20.98264859375,21.448032239583334,49.0,68.0
73,21.44418609375,21.655724114583332,61.0,85.0
74,21.44418609375,21.673031770833333,54.0,85.0
75,21.90572359375,22.167261510416665,49.0,68.0
76,20.52111109375,22.232645989583332,42.0,85.0
77,22.13649234375,22.426876354166666,58.0,80.0
78,22.598029843750002,22.957644479166667,51.0,72.0
79,22.82879859375,23.044182760416668,56.0,80.0
80,23.05956734375,23.326874479166666,51.0,76.0
81,23.29033609375,23.63648921875,56.0,82.0
82,23.29033609375,23.640335364583333,59.0,80.0
83,23.29033609375,23.732642864583333,63.0,86.0
84,23.751873593750002,24.032642239583332,51.0,75.0
85,22.36726109375,24.1037959375,44.0,85.0
86,24.21341109375,24.453795208333332,56.0,79.0
87,24.21341109375,24.62879484375,61.0,78.0
88,24.67494859375,24.765333020833335,56.0,46.0
89,24.21341109375,25.34417796875,49.0,87.0
90,25.13648609375,25.599946666666668,56.0,86.0
91,25.59802359375,25.901869114583334,49.0,79.0
92,25.82879234375,25.92109984375,56.0,80.0
93,25.13648609375,25.934561354166668,65.0,87.0
94,26.059561093750002,26.286483697916665,58.0,82.0
95,26.059561093750002,26.484560208333335,61.0,80.0
96,26.52109859375,26.834559479166668,58.0,77.0
97,26.75186734375,26.86725171875,61.0,79.0
98,26.29032984375,27.05186671875,49.0,76.0
99,26.98263609375,27.198020260416666,58.0,85.0
100,26.98263609375,27.205712552083334,61.0,87.0
101,26.98263609375,27.359558385416666,66.0,86.0
102,27.21340484375,27.453788958333334,49.0,78.0
103,26.059561093750002,27.459558177083334,42.0,85.0
104,27.44417359375,27.863403489583334,65.0,81.0
105,27.90571109375,28.138402916666667,58.0,77.0
106,27.90571109375,28.457633020833335,63.0,81.0
107,28.36724859375,28.509555989583333,58.0,59.0
108,27.90571109375,28.938401250000002,51.0,83.0
109,28.82878609375,29.038401041666667,58.0,85.0
110,28.82878609375,29.109554739583334,63.0,87.0
111,28.82878609375,29.223016041666668,66.0,85.0
112,29.05955484375,29.2614775,51.0,83.0
113,29.29032359375,29.8037840625,58.0,77.0
114,29.52109234375,29.86724546875,63.0,79.0
115,30.21339859375,30.7037821875,53.0,85.0
116,30.67493609375,30.898012552083333,56.0,86.0
117,29.75186109375,30.944166302083335,46.0,81.0
118,30.67493609375,30.959550885416668,61.0,86.0
119,30.90570484375,31.178781197916667,53.0,85.0
120,31.13647359375,31.47108828125,56.0,84.0
121,31.36724234375,31.655703281250002,65.0,79.0
122,31.59801109375,32.07301010416667,63.0,80.0
123,32.05954859375,32.61339359375,51.0,67.0
124,31.59801109375,32.713393385416666,44.0,86.0
125,32.52108609375,32.92108526041667,56.0,85.0
126,32.52108609375,32.974931302083334,59.0,87.0
127,32.52108609375,33.28262296875,63.0,86.0
128,33.21339234375,33.36146895833333,56.0,79.0
129,32.98262359375,33.41723807291667,44.0,84.0
130,33.44416109375,33.70185286458334,56.0,81.0
131,33.44416109375,33.992236875,61.0,78.0
132,34.13646734375,34.24800557291667,56.0,85.0
133,33.44416109375,34.478774322916664,49.0,83.0
134,34.36723609375,34.565312604166664,56.0,86.0
135,34.36723609375,34.65569703125,61.0,87.0
136,34.36723609375,34.70569692708333,65.0,88.0
137,34.59800484375,34.798004427083335,49.0,85.0
138,34.82877359375,34.961465625,56.0,81.0
139,35.29031109375,35.632618072916664,58.0,80.0
140,35.29031109375,35.7114640625,54.0,78.0
141,35.75184859375,36.274924427083334,49.0,66.0
142,35.29031109375,36.41915489583334,42.0,86.0
143,36.21338609375,36.75376958333333,54.0,85.0
144,36.21338609375,36.7730003125,61.0,85.0
145,36.67492359375,36.96338453125,49.0,86.0
146,36.90569234375,37.192230208333335,58.0,75.0
147,37.13646109375,37.5345371875,56.0,76.0
148,37.13646109375,37.58261401041667,59.0,79.0
149,37.82876734375,37.89222875,56.0,65.0
150,37.59799859375,38.121074427083336,51.0,73.0
151,38.05953609375,38.27684333333333,56.0,85.0
152,38.05953609375,38.33261244791667,63.0,86.0
153,38.29030484375,38.62299645833333,51.0,81.0
154,37.13646109375,38.67107328125,44.0,86.0
155,38.52107359375,38.67299635416666,56.0,84.0
156,38.98261109375,39.22299520833333,56.0,80.0
157,38.98261109375,39.41914864583333,61.0,80.0
158,39.44414859375,39.63260973958333,56.0,77.0
159,38.98261109375,40.05568578125,49.0,85.0
160,39.90568609375,40.176839375,56.0,86.0
161,40.13645484375,40.29799296875,49.0,87.0
162,39.90568609375,40.315300625,65.0,87.0
163,40.36722359375,40.59799234375,61.0,86.0
164,40.59799234375,40.715299791666666,56.0,76.0
165,40.82876109375,41.20760645833333,54.0,84.0
166,40.82876109375,41.3422215625,58.0,83.0
167,40.82876109375,41.60183640625,42.0,86.0
168,41.29029859375,41.894143489583335,49.0,79.0
169,41.75183609375,42.221065885416664,53.0,85.0
170,41.75183609375,42.244142760416665,56.0,82.0
171,41.75183609375,42.33260411458333,61.0,79.0
172,41.75183609375,42.34991177083333,41.0,87.0
173,42.21337359375,42.48260380208333,49.0,76.0
174,42.67491109375,42.913372135416665,58.0,78.0
175,42.67491109375,43.20567921875,63.0,81.0
176,43.13644859375,43.361448125,58.0,70.0
177,42.67491109375,43.682601302083334,51.0,91.0
178,43.59798609375,43.80952411458333,58.0,85.0
179,43.59798609375,43.8576009375,63.0,90.0
180,43.59798609375,44.01144677083333,66.0,90.0
181,43.82875484375,44.02298520833333,51.0,81.0
182,44.05952359375,44.363369114583335,58.0,81.0
183,44.52106109375,44.99029088541667,58.0,80.0
184,44.52106109375,45.02875234375,61.0,86.0
185,45.21336734375,45.29413640625,58.0,79.0
186,44.98259859375,45.50182828125,53.0,77.0
187,45.444136093750004,45.66336640625,58.0,89.0
188,45.444136093750004,45.68836635416667,65.0,90.0
189,44.52106109375,45.778750781250004,46.0,85.0
190,45.67490484375,45.853750625,53.0,86.0
191,45.90567359375,46.19413453125,58.0,80.0
192,46.13644234375,46.2460575,61.0,81.0
193,46.36721109375,46.90567151041667,63.0,84.0
194,46.82874859375,47.34605520833333,54.0,78.0
195,46.36721109375,47.39028588541667,47.0,88.0
196,47.29028609375,47.592208541666665,59.0,87.0
197,47.52105484375,47.678746822916665,54.0,82.0
198,47.29028609375,47.776823541666666,63.0,88.0
199,47.751823593750004,47.85759260416667,47.0,86.0
200,48.21336109375,48.64028328125,63.0,83.0
201,48.21336109375,48.65374479166667,59.0,76.0
202,48.21336109375,48.655667864583336,56.0,80.0
203,48.67489859375,49.144128385416664,51.0,70.0
204,49.13643609375,49.2575896875,63.0,89.0
205,49.13643609375,49.278743489583334,56.0,90.0
206,48.21336109375,49.4883584375,44.0,86.0
207,49.36720484375,49.52105067708333,51.0,84.0
208,49.59797359375,49.89220375,56.0,74.0
209,49.82874234375,49.95181901041666,59.0,74.0
210,50.059511093750004,50.28066447916667,56.0,81.0
211,50.059511093750004,50.57681770833334,61.0,82.0
212,50.52104859375,50.667202135416666,56.0,76.0
213,50.059511093750004,51.0806628125,49.0,87.0
214,50.98258609375,51.09220125,56.0,89.0
215,50.98258609375,51.09989354166667,65.0,91.0
216,51.213354843750004,51.34412380208333,49.0,85.0
217,51.44412359375,51.5652771875,56.0,84.0
218,51.67489234375,51.88643036458333,56.0,31.0
219,51.90566109375,52.00181473958333,37.0,87.0
220,51.67489234375,52.207583541666665,61.0,81.0
221,51.90566109375,52.207583541666665,61.0,83.0
222,51.90566109375,52.280660312500004,56.0,83.0
223,52.59796734375,52.96527427083333,56.0,85.0
224,52.82873609375,53.09412015625,61.0,80.0
225,53.05950484375,53.23450447916667,65.0,87.0
226,52.36719859375,53.31719661458333,49.0,67.0
227,53.29027359375,53.515273125,56.0,85.0
228,53.75181109375,54.826808854166664,49.0,83.0
229,53.75181109375,54.83257807291667,56.0,78.0
230,53.75181109375,54.84796265625,61.0,81.0
231,55.59796109375,56.1114215625,59.0,85.0
232,55.59796109375,56.19795984375,63.0,85.0
233,56.29026734375,56.35949796875,59.0,66.0
234,56.05949859375,56.559497552083336,54.0,58.0
235,55.59796109375,56.611420520833335,47.0,96.0
236,56.52103609375,56.79026630208333,59.0,90.0
237,56.52103609375,56.86911229166667,63.0,90.0
238,56.75180484375,56.90757375,54.0,85.0
239,56.52103609375,56.909496822916665,66.0,86.0
240,56.98257359375,57.244111510416666,59.0,85.0
241,57.44411109375,57.68834135416667,56.0,83.0
242,57.44411109375,57.88257171875,61.0,82.0
243,57.90564859375,58.00564838541667,56.0,82.0
244,57.44411109375,58.1883403125,49.0,91.0
245,58.13641734375,58.44795515625,56.0,87.0
246,58.13641734375,58.45564744791667,65.0,90.0
247,58.36718609375,58.58257026041667,49.0,88.0
248,58.59795484375,58.776800625,56.0,86.0
249,58.59795484375,58.915261875,61.0,92.0
250,58.82872359375,58.9498771875,56.0,78.0
251,59.29026109375,59.76333703125,58.0,86.0
252,59.29026109375,59.78449083333334,61.0,89.0
253,59.98256734375,60.072951770833335,58.0,81.0
254,60.21333609375,60.336412760416664,58.0,90.0
255,60.21333609375,60.407566458333335,61.0,91.0
256,60.44410484375,60.56718151041667,58.0,85.0
257,59.75179859375,60.755642656250004,53.0,76.0
258,59.29026109375,60.780642604166665,46.0,87.0
259,60.67487359375,60.79987333333333,61.0,79.0
260,60.90564234375,61.178718697916665,58.0,85.0
261,60.90564234375,61.43641046875,63.0,86.0
262,61.36717984375,61.4652565625,58.0,69.0
263,60.90564234375,61.72487140625,51.0,94.0
264,61.59794859375,61.77487130208333,58.0,87.0
265,61.59794859375,61.88833260416667,66.0,87.0
266,61.82871734375,62.155639739583336,51.0,86.0
267,62.05948609375,62.321024010416664,58.0,86.0
268,62.05948609375,62.36333161458333,65.0,90.0
269,62.29025484375,62.41717765625,51.0,85.0
270,62.52102359375,62.62102338541667,63.0,89.0
271,62.98256109375,63.29217583333333,56.0,86.0
272,62.98256109375,63.346021875,59.0,86.0
273,62.98256109375,63.36525260416667,63.0,87.0
274,63.44409859375,63.92486682291667,51.0,76.0
275,62.98256109375,64.12102026041667,44.0,86.0
276,63.90563609375,64.14025098958334,56.0,86.0
277,63.90563609375,64.18640473958334,59.0,88.0
278,63.90563609375,64.1883278125,63.0,88.0
279,64.13640484375,64.24602,51.0,80.0
280,64.36717359375,64.51332713541667,44.0,85.0
281,64.59794234375,64.72678822916667,56.0,85.0
282,64.82871109375,64.92871088541666,37.0,87.0
283,64.82871109375,65.28255630208334,56.0,85.0
284,64.82871109375,65.33640234375,61.0,88.0
285,65.29024859375001,65.63255557291667,49.0,85.0
286,65.52101734375,65.76332453125,56.0,86.0
287,65.52101734375,65.77293989583333,65.0,90.0
288,65.75178609375,65.86332432291667,49.0,84.0
289,65.98255484375,66.09217,56.0,80.0
290,65.98255484375,66.19216979166667,61.0,89.0
291,66.21332359375,66.33063104166666,56.0,84.0
292,66.67486109375,66.98255276041667,58.0,81.0
293,66.67486109375,67.08639869791666,54.0,82.0
294,67.13639859375,67.39024421875,49.0,69.0
295,67.36716734375,67.54024390625,66.0,88.0
296,67.36716734375,67.60562838541667,54.0,91.0
297,67.59793609375001,67.85562786458334,49.0,78.0
298,66.67486109375,67.88255088541666,42.0,87.0
299,67.82870484375,68.01139677083333,58.0,87.0
300,67.82870484375,68.0883196875,61.0,87.0
301,68.29024234375,68.38062677083333,54.0,85.0
302,68.52101109375,68.64408776041667,54.0,83.0
303,68.52101109375,68.76139520833334,64.0,87.0
304,68.52101109375,68.7690875,58.0,91.0
305,68.98254859375,69.09600989583333,54.0,85.0
306,68.75177984375,69.22677885416667,49.0,83.0
307,69.21331734375,69.38639390625,54.0,89.0
308,69.21331734375,69.43447072916666,63.0,87.0
309,69.44408609375,69.71139322916667,49.0,87.0
310,68.52101109375,69.76331619791667,42.0,86.0
311,69.67485484375,69.8421621875,61.0,86.0
312,69.67485484375,69.8767775,54.0,85.0
313,69.90562359375,70.02485411458333,42.0,84.0
314,70.36716109375,70.59408369791667,59.0,83.0
315,70.36716109375,70.61139135416667,63.0,86.0
316,70.82869859375,71.05946734375,54.0,57.0
317,70.36716109375,71.08446729166667,47.0,90.0
318,71.05946734375,71.33254369791666,59.0,88.0
319,71.05946734375,71.39215895833334,66.0,85.0
320,71.29023609375,71.4113896875,54.0,73.0
321,71.52100484375,71.78831197916666,59.0,88.0
322,71.75177359375,71.85177338541666,47.0,90.0
323,72.21331109375,72.38446458333334,56.0,87.0
324,72.21331109375,72.48638744791667,61.0,87.0
325,72.44407984375,72.61331026041667,56.0,82.0
326,72.67484859375,72.72292541666667,61.0,68.0
327,72.21331109375,73.00561713541667,49.0,94.0
328,72.90561734375,73.130616875,65.0,88.0
329,72.90561734375,73.14792453125,56.0,85.0
330,73.13638609375,73.25561661458333,49.0,85.0
331,73.36715484375,73.55176984375,56.0,85.0
332,73.36715484375,73.58253901041667,61.0,89.0
333,74.05946109375,74.45946026041666,61.0,82.0
334,74.05946109375,74.47676791666667,58.0,79.0
335,74.52099859375,75.04792057291667,53.0,75.0
336,74.05946109375,75.12868963541666,46.0,87.0
337,74.98253609375,75.20368947916667,58.0,88.0
338,74.98253609375,75.20561255208334,65.0,96.0
339,75.21330484375,75.31330463541667,53.0,87.0
340,75.44407359375,75.71714994791667,61.0,87.0
341,75.67484234375,75.80561130208334,58.0,78.0
342,75.90561109375,76.13637984375,58.0,84.0
343,75.90561109375,76.17484130208334,63.0,86.0
344,76.36714859375,76.46714838541666,58.0,82.0
345,76.13637984375,76.62291729166667,46.0,81.0
346,76.59791734375,76.83830145833333,58.0,86.0
347,76.59791734375,76.84022453125,63.0,90.0
348,76.59791734375,76.89791671875,66.0,86.0
349,75.90561109375,76.91137822916667,39.0,90.0
350,76.82868609375,76.95176276041667,46.0,85.0
351,77.05945484375,77.2036853125,65.0,90.0
352,77.05945484375,77.23637755208334,58.0,86.0
353,77.75176109375,78.27483692708333,56.0,85.0
354,77.75176109375,78.27483692708333,59.0,87.0
355,77.75176109375,78.28252921875,63.0,85.0
356,78.21329859375,78.7267590625,51.0,73.0
357,78.67483609375,78.9229125,56.0,86.0
358,77.75176109375,78.96522010416666,44.0,87.0
359,78.67483609375,78.97098932291667,59.0,91.0
360,78.90560484375,79.03060458333333,51.0,85.0
361,78.67483609375,79.19406578125,63.0,87.0
362,79.13637359375,79.32098859375,56.0,77.0
363,79.59791109375,79.84983364583333,56.0,85.0
364,79.59791109375,80.04791015625,61.0,85.0
365,80.05944859375,80.17098682291666,56.0,81.0
366,79.59791109375,80.33252494791667,49.0,84.0
367,80.29021734375,80.55752447916667,56.0,88.0
368,80.29021734375,80.56906291666667,65.0,90.0
369,80.52098609375,80.78829322916667,49.0,83.0
370,80.75175484375,80.81137010416667,56.0,69.0
371,80.75175484375,81.02098505208333,61.0,88.0
372,80.98252359375,81.12867713541667,56.0,79.0
373,81.44406109375,81.71136822916667,61.0,80.0
374,81.67482984375,81.90559859375,58.0,78.0
375,82.13636734375,82.26136708333334,58.0,63.0
376,81.90559859375,82.40944369791667,61.0,76.0
377,82.36713609375,82.64598166666667,66.0,90.0
378,82.59790484375,82.84598125,58.0,75.0
379,81.44406109375,83.10944223958333,42.0,87.0
380,83.05944234375,83.28059572916666,58.0,72.0
381,82.82867359375,83.34790328125,61.0,85.0
382,83.29021109375,83.67482567708333,66.0,85.0
383,83.52097984375,83.77674854166666,58.0,74.0
384,83.75174859375,84.05174796875,61.0,75.0
385,83.98251734375,84.21713223958334,58.0,76.0
386,83.29021109375,84.3344396875,42.0,81.0
387,84.44405484375,84.70751583333333,58.0,75.0
388,84.21328609375,84.72097734375001,66.0,89.0
389,84.67482359375,84.97866911458334,61.0,74.0
390,84.90559234375,85.16328411458333,58.0,76.0
391,85.13636109375,85.39982208333333,63.0,80.0
392,85.36712984375,85.62866776041666,58.0,76.0
393,85.59789859375,85.8805903125,63.0,73.0
394,85.82866734375,85.97674395833333,58.0,72.0
395,86.05943609375,86.47481984375,66.0,87.0
396,86.29020484375,86.52097359375,58.0,75.0
397,86.52097359375,86.84020369791666,63.0,73.0
398,85.13636109375,86.85366520833334,51.0,86.0
399,86.75174234375,86.95751114583334,58.0,79.0
400,86.98251109375,87.25751052083334,63.0,85.0
401,87.21327984375,87.46520239583333,58.0,81.0
402,87.44404859375,87.76327869791666,63.0,77.0
403,87.67481734375001,87.79020171875,58.0,79.0
404,87.90558609375,88.02866276041667,58.0,87.0
405,86.98251109375,88.28443145833333,51.0,91.0
406,88.13635484375,88.31904677083334,58.0,80.0
407,87.90558609375,88.35943130208334,66.0,86.0
408,88.36712359375,88.58827697916666,63.0,78.0
409,88.59789234375,88.73635359375,58.0,81.0
410,88.82866109375,89.12096817708333,59.0,78.0
411,89.05942984375,89.2959678125,54.0,83.0
412,89.29019859375,89.538275,59.0,69.0
413,89.52096734375,89.73635151041667,54.0,75.0
414,89.75173609375,90.02673552083333,63.0,90.0
415,88.82866109375,90.276735,47.0,85.0
416,89.98250484375001,90.29404265625,54.0,79.0
417,90.21327359375,90.4959653125,59.0,85.0
418,90.44404234375,90.75173401041667,54.0,85.0
419,90.67481109375,90.93634901041666,59.0,87.0
420,90.90557984375,91.19019463541667,54.0,79.0
421,91.13634859375,91.42288645833334,59.0,78.0
422,91.36711734375,91.5113478125,54.0,73.0
423,91.59788609375,91.63442447916667,54.0,71.0
424,91.59788609375,91.8113471875,59.0,94.0
425,90.67481109375,91.91134697916667,47.0,91.0
426,91.59788609375,91.9498084375,63.0,88.0
427,91.82865484375,92.08634661458333,54.0,86.0
428,92.05942359375,92.17480796875,59.0,94.0
429,92.98249859375,93.43057458333334,64.0,85.0
430,92.98249859375,93.4498053125,52.0,87.0
431,92.98249859375,93.49788213541667,40.0,101.0
432,93.67480484375,94.02480411458333,51.0,85.0
433,93.67480484375,94.0267271875,63.0,87.0
434,93.67480484375,94.07865015625,39.0,86.0
435,94.13634234375,94.27480359375001,50.0,84.0
436,94.13634234375,94.27864973958333,62.0,75.0
437,94.13634234375,94.28634203125,38.0,84.0
438,94.36711109375,96.15556890625,49.0,82.0
439,94.36711109375,96.17864578125,61.0,86.0
440,94.36711109375,96.207491875,37.0,85.0
441,96.21326109375,96.64402942708334,58.0,74.0
442,96.21326109375,96.66326015625,54.0,78.0
443,96.67479859375,97.14018223958334,49.0,68.0
444,97.13633609375,97.34787411458333,61.0,85.0
445,97.13633609375,97.36518177083333,54.0,85.0
446,97.59787359375,97.85941151041666,49.0,68.0
447,96.21326109375,97.92479598958333,42.0,85.0
448,97.82864234375,98.11902635416666,58.0,80.0
449,98.29017984375,98.64979447916667,51.0,72.0
450,98.52094859375,98.73633276041667,56.0,80.0
451,98.75171734375,99.01902447916667,51.0,76.0
452,98.98248609375,99.32863921875,56.0,82.0
453,98.98248609375,99.33248536458333,59.0,80.0
454,98.98248609375,99.42479286458334,63.0,86.0
455,99.44402359375,99.72479223958334,51.0,75.0
456,98.05941109375,99.7959459375,44.0,85.0
457,99.90556109375,100.14594520833333,56.0,79.0
458,99.90556109375,100.32094484375,61.0,78.0
459,100.36709859375,100.45748302083334,56.0,46.0
460,99.90556109375,101.03632796875,49.0,87.0
461,100.82863609375,101.29209666666667,56.0,86.0
462,101.29017359375,101.59401911458333,49.0,79.0
463,101.52094234375001,101.61324984375,56.0,80.0
464,100.82863609375,101.62671135416667,65.0,87.0
465,101.75171109375,101.97863369791666,58.0,82.0
466,101.75171109375,102.17671020833333,61.0,80.0
467,102.21324859375,102.52670947916667,58.0,77.0
468,102.44401734375,102.55940171875,61.0,79.0
469,101.98247984375,102.74401671875,49.0,76.0
470,102.67478609375,102.89017026041667,58.0,85.0
471,102.67478609375,102.89786255208334,61.0,87.0
472,102.67478609375,103.05170838541667,66.0,86.0
473,102.90555484375,103.14593895833333,49.0,78.0
474,101.75171109375,103.15170817708334,42.0,85.0
475,103.13632359375,103.55555348958333,65.0,81.0
476,103.59786109375,103.83055291666666,58.0,77.0
477,103.59786109375,104.14978302083334,63.0,81.0
478,104.05939859375,104.20170598958333,58.0,59.0
479,103.59786109375,104.63055125,51.0,83.0
480,104.52093609375,104.73055104166667,58.0,85.0
481,104.52093609375,104.80170473958333,63.0,87.0
482,104.52093609375,104.91516604166667,66.0,85.0
483,104.75170484375,104.9536275,51.0,83.0
484,104.98247359375,105.4959340625,58.0,77.0
485,105.21324234375,105.55939546875,63.0,79.0
486,105.90554859375,106.3959321875,53.0,85.0
487,106.36708609375,106.59016255208333,56.0,86.0
488,105.44401109375,106.63631630208333,46.0,81.0
489,106.36708609375,106.65170088541667,61.0,86.0
490,106.59785484375,106.87093119791666,53.0,85.0
491,106.82862359375,107.16323828125,56.0,84.0
492,107.05939234375,107.34785328125,65.0,79.0
493,107.29016109375,107.76516010416667,63.0,80.0
494,107.75169859375,108.30554359375,51.0,67.0
495,107.29016109375,108.40554338541666,44.0,86.0
496,108.21323609375,108.61323526041667,56.0,85.0
497,108.21323609375,108.66708130208333,59.0,87.0
498,108.21323609375,108.97477296875,63.0,86.0
499,108.90554234375,109.05361895833333,56.0,79.0
500,108.67477359375,109.10938807291667,44.0,84.0
501,109.13631109375,109.39400286458333,56.0,81.0
502,109.13631109375,109.684386875,61.0,78.0
503,109.82861734375,109.94015557291667,56.0,85.0
504,109.13631109375,110.17092432291666,49.0,83.0
505,110.05938609375,110.25746260416666,56.0,86.0
506,110.05938609375,110.34784703125,61.0,87.0
507,110.05938609375,110.39784692708334,65.0,88.0
508,110.29015484375,110.49015442708334,49.0,85.0
509,110.52092359375,110.653615625,56.0,81.0
510,110.98246109375,111.32476807291667,58.0,80.0
511,110.98246109375,111.4036140625,54.0,78.0
512,111.44399859375,111.96707442708333,49.0,66.0
513,110.98246109375,112.11130489583333,42.0,86.0
514,111.90553609375,112.44591958333334,54.0,85.0
515,111.90553609375,112.4651503125,61.0,85.0
516,112.36707359375,112.65553453125,49.0,86.0
517,112.59784234375,112.88438020833334,58.0,75.0
518,112.82861109375,113.2266871875,56.0,76.0
519,112.82861109375,113.27476401041666,59.0,79.0
520,113.52091734375,113.58437875,56.0,65.0
521,113.29014859375,113.81322442708334,51.0,73.0
522,113.75168609375,113.96899333333333,56.0,85.0
523,113.75168609375,114.02476244791667,63.0,86.0
524,113.98245484375,114.31514645833333,51.0,81.0
525,112.82861109375,114.36322328125,44.0,86.0
526,114.21322359375,114.36514635416667,56.0,84.0
527,114.67476109375,114.91514520833333,56.0,80.0
528,114.67476109375,115.11129864583333,61.0,80.0
529,115.13629859375,115.32475973958333,56.0,77.0
530,114.67476109375,115.74783578125,49.0,85.0
531,115.59783609375,115.868989375,56.0,86.0
532,115.82860484375,115.99014296875,49.0,87.0
533,115.59783609375,116.007450625,65.0,87.0
534,116.05937359375,116.29014234375,61.0,86.0
535,116.29014234375,116.40744979166666,56.0,76.0
536,116.52091109375,116.89975645833333,54.0,84.0
537,116.52091109375,117.0343715625,58.0,83.0
538,116.52091109375,117.29398640625,42.0,86.0
539,116.98244859375001,117.58629348958334,49.0,79.0
540,117.44398609375,117.91321588541666,53.0,85.0
541,117.44398609375,117.93629276041666,56.0,82.0
542,117.44398609375,118.02475411458333,61.0,79.0
543,117.44398609375,118.04206177083333,41.0,87.0
544,117.90552359375,118.17475380208333,49.0,76.0
545,118.36706109375,118.60552213541666,58.0,78.0
546,118.36706109375,118.89782921875,63.0,81.0
547,118.82859859375,119.05359812500001,58.0,70.0
548,118.36706109375,119.37475130208334,51.0,91.0
549,119.29013609375001,119.50167411458334,58.0,85.0
550,119.29013609375001,119.54975093750001,63.0,90.0
551,119.29013609375001,119.70359677083333,66.0,90.0
552,119.52090484375,119.71513520833334,51.0,81.0
553,119.75167359375,120.05551911458333,58.0,81.0
554,120.21321109375,120.68244088541667,58.0,80.0
555,120.21321109375,120.72090234375,61.0,86.0
556,120.90551734375,120.98628640625,58.0,79.0
557,120.67474859375,121.19397828125,53.0,77.0
558,121.13628609375,121.35551640625,58.0,89.0
559,121.13628609375,121.38051635416667,65.0,90.0
560,120.21321109375,121.47090078125,46.0,85.0
561,121.36705484375,121.545900625,53.0,86.0
562,121.59782359375001,121.88628453125,58.0,80.0
563,121.82859234375,121.9382075,61.0,81.0
564,122.05936109375,122.59782151041667,63.0,84.0
565,122.52089859375,123.03820520833334,54.0,78.0
566,122.05936109375,123.08243588541667,47.0,88.0
567,122.98243609375,123.28435854166666,59.0,87.0
568,123.21320484375,123.37089682291666,54.0,82.0
569,122.98243609375,123.46897354166667,63.0,88.0
570,123.44397359375,123.54974260416667,47.0,86.0
571,123.90551109375001,124.33243328125,63.0,83.0
572,123.90551109375001,124.34589479166667,59.0,76.0
573,123.90551109375001,124.34781786458333,56.0,80.0
574,124.36704859375,124.83627838541666,51.0,70.0
575,124.82858609375,124.9497396875,63.0,89.0
576,124.82858609375,124.97089348958333,56.0,90.0
577,123.90551109375001,125.1805084375,44.0,86.0
578,125.05935484375,125.21320067708334,51.0,84.0
579,125.29012359375,125.58435375,56.0,74.0
580,125.52089234375,125.64396901041667,59.0,74.0
581,125.75166109375,125.97281447916667,56.0,81.0
582,125.75166109375,126.26896770833334,61.0,82.0
583,126.21319859375001,126.35935213541667,56.0,76.0
584,125.75166109375,126.7728128125,49.0,87.0
585,126.67473609375,126.78435125,56.0,89.0
586,126.67473609375,126.79204354166667,65.0,91.0
587,126.90550484375,127.03627380208333,49.0,85.0
588,127.13627359375,127.2574271875,56.0,84.0
589,127.36704234375,127.57858036458333,56.0,31.0
590,127.59781109375,127.69396473958334,37.0,87.0
591,127.36704234375,127.89973354166666,61.0,81.0
592,127.59781109375,127.89973354166666,61.0,83.0
593,127.59781109375,127.9728103125,56.0,83.0
594,128.29011734375,128.65742427083333,56.0,85.0
595,128.52088609375,128.78627015625,61.0,80.0
596,128.75165484375,128.92665447916667,65.0,87.0
597,128.05934859375,129.00934661458334,49.0,67.0
598,128.98242359375,129.207423125,56.0,85.0
599,129.44396109375,129.9574215625,59.0,85.0
600,129.44396109375,130.04395984375,63.0,85.0
601,130.13626734375,130.20549796875,59.0,66.0
602,129.90549859375,130.40549755208335,54.0,58.0
603,129.44396109375,130.45742052083332,47.0,96.0
604,130.36703609375,130.63626630208333,59.0,90.0
605,130.36703609375,130.71511229166666,63.0,90.0
606,130.59780484375,130.75357375,54.0,85.0
607,130.36703609375,130.75549682291665,66.0,86.0
608,130.82857359375,131.09011151041668,59.0,85.0
609,131.29011109375,131.53434135416666,56.0,83.0
610,131.29011109375,131.72857171875,61.0,82.0
611,131.75164859375,131.85164838541667,56.0,82.0
612,131.29011109375,132.0343403125,49.0,91.0
613,131.98241734375,132.29395515625,56.0,87.0
614,131.98241734375,132.30164744791668,65.0,90.0
615,132.21318609375,132.42857026041668,49.0,88.0
616,132.44395484375,132.622800625,56.0,86.0
617,132.44395484375,132.761261875,61.0,92.0
618,132.67472359375,132.7958771875,56.0,78.0
619,133.13626109375,133.60933703125,58.0,86.0
620,133.13626109375,133.63049083333334,61.0,89.0
621,133.82856734375,133.91895177083333,58.0,81.0
622,134.05933609375,134.18241276041667,58.0,90.0
623,134.05933609375,134.25356645833332,61.0,91.0
624,134.29010484375002,134.41318151041668,58.0,85.0
625,133.59779859375,134.60164265625,53.0,76.0
626,133.13626109375,134.62664260416668,46.0,87.0
627,134.52087359375,134.64587333333333,61.0,79.0
628,134.75164234375,135.02471869791665,58.0,85.0
629,134.75164234375,135.28241046875,63.0,86.0
630,135.21317984375,135.3112565625,58.0,69.0
631,134.75164234375,135.57087140625,51.0,94.0
632,135.44394859375,135.62087130208334,58.0,87.0
633,135.44394859375,135.73433260416667,66.0,87.0
634,135.67471734375,136.00163973958334,51.0,86.0
635,135.90548609375,136.16702401041667,58.0,86.0
636,135.90548609375,136.20933161458333,65.0,90.0
637,136.13625484375,136.26317765625,51.0,85.0
638,136.36702359375,136.46702338541667,63.0,89.0
639,136.82856109375,137.13817583333332,56.0,86.0
640,136.82856109375,137.192021875,59.0,86.0
641,136.82856109375,137.21125260416667,63.0,87.0
642,137.29009859375,137.77086682291667,51.0,76.0
643,136.82856109375,137.96702026041666,44.0,86.0
644,137.75163609375,137.98625098958334,56.0,86.0
645,137.75163609375,138.03240473958334,59.0,88.0
646,137.75163609375,138.0343278125,63.0,88.0
647,137.98240484375,138.09202,51.0,80.0
648,138.21317359375,138.35932713541666,44.0,85.0
649,138.44394234375,138.57278822916666,56.0,85.0
650,138.67471109375,138.77471088541668,37.0,87.0
651,138.67471109375,139.12855630208333,56.0,85.0
652,138.67471109375,139.18240234375,61.0,88.0
653,139.13624859375,139.47855557291666,49.0,85.0
654,139.36701734375,139.60932453125,56.0,86.0
655,139.36701734375,139.61893989583334,65.0,90.0
656,139.59778609375,139.70932432291667,49.0,84.0
657,139.82855484375,139.93817,56.0,80.0
658,139.82855484375,140.03816979166666,61.0,89.0
659,140.05932359375,140.17663104166667,56.0,84.0
660,140.52086109375,140.82855276041667,58.0,81.0
661,140.52086109375,140.93239869791668,54.0,82.0
662,140.98239859375,141.23624421875,49.0,69.0
663,141.21316734375,141.38624390625,66.0,88.0
664,141.21316734375,141.45162838541665,54.0,91.0
665,141.44393609375,141.70162786458334,49.0,78.0
666,140.52086109375,141.72855088541667,42.0,87.0
667,141.67470484375,141.85739677083333,58.0,87.0
668,141.67470484375,141.9343196875,61.0,87.0
669,142.13624234375,142.22662677083332,54.0,85.0
670,142.36701109375,142.49008776041666,54.0,83.0
671,142.36701109375,142.60739520833334,64.0,87.0
672,142.36701109375,142.6150875,58.0,91.0
673,142.82854859375,142.94200989583334,54.0,85.0
674,142.59777984375,143.07277885416667,49.0,83.0
675,143.05931734375,143.23239390625,54.0,89.0
676,143.05931734375,143.28047072916667,63.0,87.0
677,143.29008609375,143.55739322916668,49.0,87.0
678,142.36701109375,143.60931619791666,42.0,86.0
679,143.52085484375,143.6881621875,61.0,86.0
680,143.52085484375,143.7227775,54.0,85.0
681,143.75162359375,143.87085411458332,42.0,84.0
682,144.21316109375,144.44008369791666,59.0,83.0
683,144.21316109375,144.45739135416667,63.0,86.0
684,144.67469859375,144.90546734375,54.0,57.0
685,144.21316109375,144.93046729166667,47.0,90.0
686,144.90546734375,145.17854369791667,59.0,88.0
687,144.90546734375,145.23815895833334,66.0,85.0
688,145.13623609375,145.2573896875,54.0,73.0
689,145.36700484375,145.63431197916665,59.0,88.0
690,145.59777359375,145.69777338541667,47.0,90.0
691,146.05931109375,146.23046458333334,56.0,87.0
692,146.05931109375,146.33238744791666,61.0,87.0
693,146.29007984375,146.45931026041666,56.0,82.0
694,146.52084859375,146.56892541666667,61.0,68.0
695,146.05931109375,146.85161713541666,49.0,94.0
696,146.75161734375,146.976616875,65.0,88.0
697,146.75161734375,146.99392453125,56.0,85.0
698,146.98238609375,147.10161661458332,49.0,85.0
699,147.21315484375,147.39776984375,56.0,85.0
700,147.21315484375,147.42853901041667,61.0,89.0
701,147.90546109375,148.30546026041668,61.0,82.0
702,147.90546109375,148.32276791666666,58.0,79.0
703,148.36699859375,148.89392057291667,53.0,75.0
704,147.90546109375,148.97468963541667,46.0,87.0
705,148.82853609375,149.04968947916666,58.0,88.0
706,148.82853609375,149.05161255208333,65.0,96.0
707,149.05930484375,149.15930463541667,53.0,87.0
708,149.29007359375,149.56314994791666,61.0,87.0
709,149.52084234375,149.65161130208332,58.0,78.0
710,149.75161109375,149.98237984375,58.0,84.0
711,149.75161109375,150.02084130208334,63.0,86.0
712,150.21314859375,150.31314838541667,58.0,82.0
713,149.98237984375,150.46891729166666,46.0,81.0
714,150.44391734375,150.68430145833332,58.0,86.0
715,150.44391734375,150.68622453125,63.0,90.0
716,150.44391734375,150.74391671875,66.0,86.0
717,149.75161109375,150.75737822916668,39.0,90.0
718,150.67468609375,150.79776276041667,46.0,85.0
719,150.90545484375,151.0496853125,65.0,90.0
720,150.90545484375,151.08237755208333,58.0,86.0
721,151.59776109375,152.12083692708333,56.0,85.0
722,151.59776109375,152.12083692708333,59.0,87.0
723,151.59776109375,152.12852921875,63.0,85.0
724,152.05929859375001,152.5727590625,51.0,73.0
725,152.52083609375,152.7689125,56.0,86.0
726,151.59776109375,152.81122010416667,44.0,87.0
727,152.52083609375,152.81698932291667,59.0,91.0
728,152.75160484375,152.87660458333335,51.0,85.0
729,152.52083609375,153.04006578125,63.0,87.0
730,152.98237359375,153.16698859375,56.0,77.0
731,153.44391109375,153.69583364583335,56.0,85.0
732,153.44391109375,153.89391015625,61.0,85.0
733,153.90544859375,154.01698682291666,56.0,81.0
734,153.44391109375,154.17852494791666,49.0,84.0
735,154.13621734375,154.40352447916666,56.0,88.0
736,154.13621734375,154.41506291666667,65.0,90.0
737,154.36698609375,154.63429322916667,49.0,83.0
738,154.59775484375,154.65737010416666,56.0,69.0
739,154.59775484375,154.86698505208332,61.0,88.0
740,154.82852359375,154.97467713541667,56.0,79.0
741,155.29006109375,155.51890677083333,58.0,85.0
742,155.29006109375,155.6419834375,66.0,86.0
743,155.75159859375,156.04390567708333,58.0,85.0
744,155.98236734375,156.09967479166667,61.0,84.0
745,155.52082984375,156.29005901041666,49.0,71.0
746,156.21313609375,156.37659729166666,58.0,86.0
747,156.21313609375,156.49198166666667,61.0,92.0
748,156.21313609375,156.52852005208334,68.0,83.0
749,156.44390484375,156.76121187500001,49.0,85.0
750,156.67467359375001,156.77659645833333,58.0,86.0
751,155.29006109375,156.7958271875,42.0,89.0
752,156.90544234375,157.20159557291666,58.0,87.0
753,156.90544234375,157.20928786458333,61.0,88.0
754,156.90544234375,157.22082630208334,66.0,86.0
755,157.13621109375,157.43236432291667,49.0,78.0
756,157.36697984375,157.60544088541667,58.0,86.0
757,157.36697984375,157.67082536458332,61.0,96.0
758,157.36697984375,157.88236338541668,66.0,86.0
759,157.82851734375,157.93236328125,58.0,74.0
760,157.59774859375,157.9496709375,49.0,81.0
761,156.90544234375,157.98620932291666,42.0,88.0
762,158.05928609375,158.16890125,42.0,85.0
763,158.05928609375,158.1804396875,49.0,86.0
764,158.05928609375,158.22851651041665,58.0,89.0
765,158.05928609375,158.24774723958333,61.0,90.0
766,158.05928609375,158.284285625,66.0,85.0
767,158.29005484375,158.36313161458332,49.0,70.0
768,158.29005484375,158.38043927083334,42.0,75.0
769,158.52082359375,158.66313098958332,42.0,87.0
770,158.98236109375,159.14774536458333,54.0,86.0
771,158.98236109375,159.299668125,59.0,84.0
772,159.21312984375,159.49774463541667,54.0,74.0
773,159.44389859375,159.61889822916666,59.0,73.0
774,159.67466734375,159.74197489583332,54.0,70.0
775,158.98236109375,159.98620515625,47.0,106.0
776,159.90543609375,160.06505114583334,54.0,96.0
777,159.90543609375,160.18620473958333,59.0,99.0
778,160.13620484375,160.21120468750001,47.0,80.0
779,159.90543609375,160.22466619791666,63.0,90.0
780,160.36697359375,160.62466536458334,54.0,87.0
781,160.59774234375,160.70928057291667,59.0,86.0
782,160.82851109375,160.99389536458332,58.0,79.0
783,160.82851109375,161.12081817708332,63.0,87.0
784,161.05927984375,161.21697182291666,58.0,77.0
785,161.29004859375002,161.43235598958333,63.0,79.0
786,161.52081734375,161.59966333333332,58.0,70.0
787,160.82851109375,161.86312432291666,51.0,94.0
788,161.75158609375,161.88235505208334,58.0,87.0
789,161.75158609375,161.92850880208334,63.0,92.0
790,161.75158609375,161.98427791666666,66.0,87.0
791,161.98235484375,162.07081619791666,51.0,81.0
792,162.21312359375,162.28620036458332,58.0,85.0
793,162.21312359375,162.46696921875,63.0,87.0
794,162.44389234375,162.54773828125,58.0,77.0
795,162.67466109375,162.78043010416667,56.0,88.0
796,162.67466109375,162.83235307291667,61.0,86.0
797,162.67466109375,162.84389151041665,65.0,91.0
798,162.90542984375,163.00927578125,56.0,86.0
799,163.13619859375,163.24581375,61.0,82.0
800,162.67466109375,163.44389026041668,49.0,91.0
801,163.36696734375,163.46312098958333,56.0,85.0
802,163.59773609375,163.684274375,56.0,87.0
803,163.59773609375,163.71312046875,49.0,96.0
804,163.59773609375,163.71504354166666,65.0,79.0
805,163.59773609375,163.72658197916667,61.0,91.0
806,163.82850484375,163.94388921875,56.0,86.0
807,164.05927359375,164.25927317708334,61.0,87.0
808,164.29004234375,164.41696515625,56.0,85.0
809,164.52081109375,164.62850317708333,56.0,86.0
810,164.52081109375,164.74388755208332,65.0,88.0
811,164.75157984375,164.93619484375,56.0,82.0
812,164.98234859375,165.25734802083335,61.0,83.0
813,165.21311734375,165.31888635416666,56.0,85.0
814,164.52081109375,165.34388630208335,49.0,94.0
815,165.44388609375,165.59773192708334,56.0,87.0
816,165.44388609375,165.60157807291668,49.0,94.0
817,165.44388609375,165.73811625,63.0,91.0
818,165.67465484375,165.78811614583333,56.0,85.0
819,165.90542359375002,166.05734635416667,61.0,96.0
820,166.13619234375,166.268884375,56.0,73.0
821,166.36696109375,166.55542223958332,56.0,81.0
822,166.36696109375,166.63042208333334,59.0,81.0
823,166.36696109375,166.64580666666666,63.0,86.0
824,166.82849859375,166.97465213541668,59.0,88.0
825,166.59772984375,166.97657520833334,51.0,81.0
826,166.36696109375,167.09580572916667,44.0,87.0
827,167.05926734375,167.17080557291666,56.0,74.0
828,167.29003609375,167.38618973958333,56.0,87.0
829,167.29003609375,167.39580510416667,51.0,86.0
830,167.29003609375,167.422728125,59.0,90.0
831,167.29003609375,167.43618963541667,44.0,86.0
832,167.29003609375,167.52465098958334,63.0,88.0
833,167.52080484375,167.5958046875,56.0,72.0
834,167.75157359375,167.815035,56.0,80.0
835,167.75157359375,167.90157328125,59.0,90.0
836,167.75157359375,167.92272708333334,63.0,85.0
837,167.98234234375,168.10734208333332,56.0,77.0
838,168.21311109375,168.32849546875,56.0,87.0
839,168.21311109375,168.42849526041667,61.0,87.0
840,168.44387984375,168.56695651041667,56.0,79.0
841,168.67464859375,168.83234057291668,61.0,80.0
842,168.90541734375,168.98426333333333,56.0,83.0
843,168.21311109375,169.03041708333333,49.0,91.0
844,169.13618609375,169.24580125,56.0,86.0
845,169.13618609375,169.27464734375,49.0,96.0
846,169.13618609375,169.35926255208332,61.0,96.0
847,169.13618609375,169.47464692708334,65.0,92.0
848,169.36695484375,169.50733916666667,56.0,84.0
849,169.59772359375,169.90541526041667,61.0,84.0
850,170.05926109375,170.18618390625,58.0,85.0
851,170.05926109375,170.31118364583332,61.0,86.0
852,170.29002984375,170.39579885416666,58.0,72.0
853,170.52079859375,170.70541359375,61.0,87.0
854,170.75156734375,170.83618255208333,58.0,81.0
855,170.98233609375,171.07464359375,58.0,87.0
856,170.29002984375,171.08425895833332,49.0,77.0
857,170.98233609375,171.26695088541666,61.0,94.0
858,170.98233609375,171.29772005208332,66.0,87.0
859,170.05926109375,171.33233536458334,42.0,88.0
860,171.21310484375,171.39002755208332,58.0,85.0
861,171.44387359375,171.61887322916667,61.0,86.0
862,171.67464234375,171.79194979166667,58.0,81.0
863,171.90541109375,172.06310307291668,58.0,84.0
864,171.90541109375,172.13425677083333,61.0,86.0
865,171.90541109375,172.17848744791667,64.0,90.0
866,172.36694859375,172.47464067708333,58.0,79.0
867,172.13617984375,172.48425604166667,49.0,70.0
868,171.90541109375,172.66117875,42.0,91.0
869,172.59771734375,172.83040916666667,58.0,91.0
870,172.59771734375,172.89194750000001,63.0,91.0
871,172.82848609375,173.08233171875,49.0,88.0
872,172.82848609375,173.11694703125,42.0,81.0
873,173.05925484375,173.27463901041668,58.0,86.0
874,173.05925484375,173.29002359375,61.0,101.0
875,173.29002359375,173.468869375,42.0,86.0
876,173.75156109375,173.86694546875,54.0,86.0
877,173.75156109375,173.89963770833333,59.0,91.0
878,173.75156109375,174.02463744791666,63.0,87.0
879,173.98232984375,174.14386796875,54.0,78.0
880,174.21309859375,174.30348302083334,59.0,77.0
881,173.75156109375,174.32655989583333,47.0,101.0
882,174.44386734375001,174.52655947916668,54.0,71.0
883,174.67463609375,174.76886666666667,54.0,85.0
884,174.67463609375,174.79002046875001,47.0,99.0
885,174.67463609375,174.81502041666667,59.0,96.0
886,174.67463609375,174.84963572916666,63.0,85.0
887,174.90540484375,174.99963541666668,54.0,70.0
888,175.13617359375,175.25925026041668,59.0,87.0
889,175.13617359375,175.40540380208333,63.0,73.0
890,175.36694234375,175.47271135416668,54.0,80.0
891,175.59771109375,175.69194166666668,56.0,86.0
892,175.59771109375,175.8573259375,61.0,87.0
893,175.82847984375,175.93424885416667,56.0,85.0
894,176.05924859375,176.1804021875,61.0,86.0
895,175.59771109375,176.33617109375,49.0,90.0
896,176.29001734375,176.35924796875,56.0,79.0
897,176.52078609375,176.63424739583334,56.0,90.0
898,176.52078609375,176.81501625,65.0,88.0
899,176.52078609375,176.82270854166666,61.0,92.0
900,176.75155484375,176.87847765625,56.0,81.0
901,176.52078609375,177.1496309375,49.0,99.0
902,176.98232359375,177.24963072916665,61.0,87.0
903,177.21309234375,177.33424593750001,56.0,85.0
904,177.44386109375,177.59193770833335,58.0,85.0
905,177.44386109375,177.67847598958335,61.0,87.0
906,177.90539859375,177.99962916666667,58.0,85.0
907,177.90539859375,178.09001359375,61.0,90.0
908,178.13616734375,178.22078255208334,58.0,78.0
909,177.44386109375,178.25347479166666,46.0,89.0
910,177.67462984375,178.26116708333333,53.0,76.0
911,178.36693609375,178.47847432291667,58.0,87.0
912,178.36693609375,178.62462786458335,65.0,89.0
913,178.36693609375,178.66308932291668,61.0,92.0
914,178.59770484375,178.69193541666667,58.0,73.0
915,178.36693609375,178.69770463541667,53.0,91.0
916,178.36693609375,178.7188584375,46.0,87.0
917,178.82847359375,178.92078109375,58.0,81.0
918,178.82847359375,179.02462703125,61.0,86.0
919,179.05924234375001,179.15539598958333,58.0,77.0
920,179.29001109375,179.36116479166668,57.0,77.0
921,179.29001109375,179.49770296875,60.0,90.0
922,179.29001109375,179.53616442708332,63.0,87.0
923,179.52077984375,179.83616380208335,57.0,76.0
924,179.75154859375,179.88231755208332,60.0,75.0
925,179.98231734375,180.05347104166665,60.0,84.0
926,179.29001109375,180.068855625,45.0,94.0
927,179.98231734375,180.23423989583333,66.0,90.0
928,180.44385484375,180.5880853125,57.0,86.0
929,180.21308609375,180.7957771875,45.0,82.0
930,180.67462359375,181.01693057291666,63.0,87.0
931,180.67462359375,181.04577666666665,60.0,87.0
932,180.90539234375,181.11693036458334,57.0,86.0
933,181.13616109375,181.45923734375,64.0,82.0
934,181.13616109375,181.48231421875,59.0,85.0
935,181.59769859375,181.75539057291667,56.0,81.0
936,181.82846734375,181.92462098958333,59.0,85.0
937,181.36692984375,182.17269739583332,47.0,65.0
938,182.05923609375,182.20731270833335,56.0,86.0
939,182.05923609375,182.26500489583333,59.0,92.0
940,182.05923609375,182.30538942708333,64.0,91.0
941,181.13616109375,182.36692776041667,40.0,89.0
942,182.29000484375,182.47077369791666,47.0,78.0
943,182.52077359375,182.63038875,56.0,83.0
944,182.75154234375,183.27654125,64.0,85.0
945,182.75154234375,183.27846432291668,59.0,89.0
946,183.44384859375,183.7726940625,56.0,83.0
947,183.67461734375001,183.8188478125,59.0,87.0
948,183.21307984375,183.97077057291668,47.0,70.0
949,182.98231109375,183.9803859375,40.0,91.0
950,183.90538609375,184.13615484375,56.0,86.0
951,183.90538609375,184.2111546875,59.0,89.0
952,184.13615484375,184.25346229166666,47.0,86.0
953,183.90538609375,184.30730833333334,64.0,92.0
954,184.36692359375,184.56115395833334,56.0,87.0
955,184.82846109375,184.92461473958335,37.0,86.0
956,184.82846109375,185.01307609375,56.0,86.0
957,184.82846109375,185.15538348958333,61.0,85.0
958,184.82846109375,185.15538348958333,65.0,88.0
959,185.28999859375,185.42076755208333,56.0,85.0
960,185.75153609375,185.83422822916665,56.0,85.0
961,185.75153609375,185.95153567708334,61.0,87.0
962,185.75153609375,186.0573046875,65.0,87.0
963,185.98230484375,186.15730447916667,56.0,85.0
964,186.21307359375,186.2880734375,63.0,78.0
965,185.75153609375,186.5419190625,49.0,99.0
966,186.44384234375,186.77653395833335,56.0,87.0
967,186.44384234375,186.77845703125,63.0,86.0
968,186.90537984375,187.12845630208332,56.0,80.0
969,186.90537984375,187.33999432291668,61.0,79.0
970,186.90537984375,187.46114791666668,65.0,85.0
971,187.36691734375,187.47268635416665,56.0,65.0
972,187.59768609375,188.52076109375,56.0,81.0
973,187.59768609375,188.53614567708334,61.0,81.0
974,186.67461109375,188.56499177083333,49.0,85.0
975,188.98229859375,189.52845130208334,54.0,74.0
976,188.52076109375,189.76306619791666,47.0,89.0
977,189.44383609375,189.81114302083333,59.0,80.0
978,189.44383609375,189.84768140625,63.0,81.0
979,190.36691109375,190.90537151041667,61.0,80.0
980,190.82844859375,191.05537119791666,56.0,71.0
981,191.28998609375,191.838061875,65.0,86.0
982,190.36691109375,191.88806177083333,49.0,85.0
983,191.75152359375,192.08806135416665,61.0,81.0
984,192.21306109375,192.65536786458333,61.0,78.0
985,192.21306109375,192.69959854166666,58.0,73.0
986,192.67459859375,193.20921286458332,53.0,67.0
987,193.13613609375,193.59382744791668,65.0,86.0
988,193.36690484375,193.80728854166668,53.0,81.0
989,192.21306109375,193.91113447916666,46.0,80.0
990,193.59767359375,193.98613432291666,58.0,78.0
991,194.05921109375,194.62844067708335,63.0,81.0
992,194.52074859375,195.11305505208333,54.0,68.0
993,194.05921109375,195.13613192708334,51.0,87.0
994,194.98228609375,195.207285625,58.0,77.0
995,194.98228609375,195.37843911458333,66.0,81.0
996,195.90536109375,196.58420583333333,63.0,72.0
997,196.82843609375,197.11689703125,56.0,76.0
998,197.05920484375,197.36305036458333,58.0,78.0
999,196.36689859375,197.50920390625,51.0,66.0
1000,195.90536109375,197.561126875,44.0,82.0
1001,197.28997359375,197.61689598958333,59.0,86.0
1002,197.75151109375,197.99574135416665,56.0,77.0
1003,197.75151109375,198.18035635416666,61.0,80.0
1004,198.21304859375,198.66304765625,56.0,72.0
1005,198.67458609375,199.22843109375,65.0,86.0
1006,197.75151109375,199.51881510416666,49.0,85.0
1007,199.13612359375,199.52073817708333,56.0,94.0
1008,199.59766109375,199.90535276041666,58.0,81.0
1009,199.59766109375,200.00919869791667,54.0,82.0
1010,200.05919859375,200.31304421875,49.0,69.0
1011,200.28996734375,200.46304390625,66.0,88.0
1012,200.28996734375,200.52842838541667,54.0,91.0
1013,200.52073609375,200.77842786458334,49.0,78.0
1014,199.59766109375,200.80535088541666,42.0,87.0
1015,200.75150484375,200.93419677083332,58.0,87.0
1016,200.75150484375,201.0111196875,61.0,87.0
1017,201.21304234375,201.30342677083334,54.0,85.0
1018,201.44381109375,201.56688776041668,54.0,83.0
1019,201.44381109375,201.68419520833334,64.0,87.0
1020,201.44381109375,201.6918875,58.0,91.0
1021,201.90534859375,202.01880989583333,54.0,85.0
1022,201.67457984375,202.14957885416666,49.0,83.0
1023,202.13611734375002,202.30919390625,54.0,89.0
1024,202.13611734375002,202.35727072916666,63.0,87.0
1025,202.36688609375,202.63419322916667,49.0,87.0
1026,201.44381109375,202.68611619791668,42.0,86.0
1027,202.59765484375,202.7649621875,61.0,86.0
1028,202.59765484375,202.7995775,54.0,85.0
1029,202.82842359375,202.94765411458334,42.0,84.0
1030,203.28996109375,203.51688369791665,59.0,83.0
1031,203.28996109375,203.53419135416667,63.0,86.0
1032,203.75149859375,203.98226734375,54.0,57.0
1033,203.28996109375,204.00726729166666,47.0,90.0
1034,203.98226734375,204.25534369791666,59.0,88.0
1035,203.98226734375,204.31495895833334,66.0,85.0
1036,204.21303609375,204.33418968750001,54.0,73.0
1037,204.44380484375,204.71111197916667,59.0,88.0
1038,204.67457359375,204.77457338541666,47.0,90.0
1039,205.13611109375,205.30726458333334,56.0,87.0
1040,205.13611109375,205.40918744791668,61.0,87.0
1041,205.36687984375,205.53611026041668,56.0,82.0
1042,205.59764859375,205.64572541666666,61.0,68.0
1043,205.13611109375,205.92841713541668,49.0,94.0
1044,205.82841734375,206.053416875,65.0,88.0
1045,205.82841734375,206.07072453125,56.0,85.0
1046,206.05918609375001,206.17841661458334,49.0,85.0
1047,206.28995484375,206.47456984375,56.0,85.0
1048,206.28995484375,206.50533901041666,61.0,89.0
1049,206.98226109375,207.38226026041667,61.0,82.0
1050,206.98226109375,207.39956791666665,58.0,79.0
1051,207.44379859375,207.97072057291666,53.0,75.0
1052,206.98226109375,208.05148963541666,46.0,87.0
1053,207.90533609375,208.12648947916668,58.0,88.0
1054,207.90533609375,208.12841255208335,65.0,96.0
1055,208.13610484375,208.23610463541667,53.0,87.0
1056,208.36687359375,208.63994994791668,61.0,87.0
1057,208.59764234375,208.72841130208334,58.0,78.0
1058,208.82841109375,209.05917984375,58.0,84.0
1059,208.82841109375,209.09764130208333,63.0,86.0
1060,209.28994859375,209.38994838541666,58.0,82.0
1061,209.05917984375,209.54571729166668,46.0,81.0
1062,209.52071734375,209.76110145833334,58.0,86.0
1063,209.52071734375,209.76302453125,63.0,90.0
1064,209.52071734375,209.82071671875,66.0,86.0
1065,208.82841109375,209.83417822916667,39.0,90.0
1066,209.75148609375,209.87456276041667,46.0,85.0
1067,209.98225484375,210.1264853125,65.0,90.0
1068,209.98225484375,210.15917755208332,58.0,86.0
1069,210.67456109375001,211.19763692708332,56.0,85.0
1070,210.67456109375001,211.19763692708332,59.0,87.0
1071,210.67456109375001,211.20532921875,63.0,85.0
1072,211.13609859375,211.6495590625,51.0,73.0
1073,211.59763609375,211.8457125,56.0,86.0
1074,210.67456109375001,211.88802010416666,44.0,87.0
1075,211.59763609375,211.89378932291666,59.0,91.0
1076,211.82840484375,211.95340458333334,51.0,85.0
1077,211.59763609375,212.11686578125,63.0,87.0
1078,212.05917359375,212.24378859375,56.0,77.0
1079,212.52071109375,212.77263364583334,56.0,85.0
1080,212.52071109375,212.97071015625,61.0,85.0
1081,212.98224859375,213.09378682291666,56.0,81.0
1082,212.52071109375,213.25532494791668,49.0,84.0
1083,213.21301734375,213.48032447916665,56.0,88.0
1084,213.21301734375,213.49186291666666,65.0,90.0
1085,213.44378609375,213.71109322916666,49.0,83.0
1086,213.67455484375,213.73417010416668,56.0,69.0
1087,213.67455484375,213.94378505208334,61.0,88.0
1088,213.90532359375,214.05147713541666,56.0,79.0
1089,214.36686109375,214.60532213541666,58.0,85.0
1090,214.59762984375,214.93416760416667,49.0,76.0
1091,214.36686109375,214.94185989583335,66.0,86.0
1092,214.82839859375,215.13801333333333,58.0,86.0
1093,215.05916734375,215.3533975,49.0,86.0
1094,215.28993609375001,215.50532026041668,58.0,92.0
1095,215.28993609375001,215.55916630208333,61.0,96.0
1096,215.52070484375,215.81685807291666,49.0,84.0
1097,214.36686109375,215.8726271875,42.0,86.0
1098,215.75147359375,216.06685755208335,58.0,86.0
1099,215.98224234375,216.11301130208332,61.0,85.0
1100,216.21301109375,216.42454911458333,58.0,83.0
1101,216.21301109375,216.51108739583333,66.0,86.0
1102,216.21301109375,216.5187796875,61.0,85.0
1103,216.67454859375,216.77070223958333,58.0,83.0
1104,216.90531734375,216.98608640625,61.0,85.0
1105,216.90531734375,216.98993255208333,58.0,80.0
1106,216.90531734375,216.99570177083334,66.0,78.0
1107,216.44377984375,217.19762442708333,49.0,80.0
1108,217.13608609375,217.39185479166667,58.0,87.0
1109,217.13608609375,217.45531619791666,61.0,96.0
1110,217.13608609375,217.67070036458333,66.0,85.0
1111,217.59762359375,217.92839213541666,58.0,85.0
1112,217.36685484375,217.96877666666666,49.0,87.0
1113,216.21301109375,217.9726228125,42.0,88.0
1114,217.82839234375,218.02262270833333,61.0,86.0
1115,218.05916109375,218.28608369791667,59.0,83.0
1116,218.05916109375,218.30339135416668,63.0,86.0
1117,218.52069859375,218.75146734375,54.0,57.0
1118,218.05916109375,218.77646729166668,47.0,90.0
1119,218.75146734375,219.02454369791667,59.0,88.0
1120,218.75146734375,219.08415895833335,66.0,85.0
1121,218.98223609375,219.1033896875,54.0,73.0
1122,219.21300484375,219.48031197916666,59.0,88.0
1123,219.44377359375,219.54377338541667,47.0,90.0
1124,219.90531109375002,220.07646458333335,56.0,87.0
1125,219.90531109375002,220.17838744791666,61.0,87.0
1126,220.13607984375,220.30531026041666,56.0,82.0
1127,220.36684859375,220.41492541666668,61.0,68.0
1128,219.90531109375002,220.69761713541666,49.0,94.0
1129,220.59761734375,220.822616875,65.0,88.0
1130,220.59761734375,220.83992453125,56.0,85.0
1131,220.82838609375,220.94761661458332,49.0,85.0
1132,221.05915484375,221.24376984375,56.0,85.0
1133,221.05915484375,221.27453901041667,61.0,89.0
1134,221.75146109375,222.15146026041666,61.0,82.0
1135,221.75146109375,222.16876791666667,58.0,79.0
1136,222.21299859375,222.73992057291667,53.0,75.0
1137,221.75146109375,222.82068963541667,46.0,87.0
1138,222.67453609375,222.89568947916666,58.0,88.0
1139,222.67453609375,222.89761255208333,65.0,96.0
1140,222.90530484375,223.00530463541668,53.0,87.0
1141,223.13607359375,223.40914994791666,61.0,87.0
1142,223.36684234375,223.49761130208333,58.0,78.0
1143,223.59761109375,223.82837984375,58.0,84.0
1144,223.59761109375,223.86684130208334,63.0,86.0
1145,224.05914859375,224.15914838541667,58.0,82.0
1146,223.82837984375,224.31491729166666,46.0,81.0
1147,224.28991734375,224.53030145833333,58.0,86.0
1148,224.28991734375,224.53222453125,63.0,90.0
1149,224.28991734375,224.58991671875,66.0,86.0
1150,223.59761109375,224.60337822916668,39.0,90.0
1151,224.52068609375002,224.64376276041668,46.0,85.0
1152,224.75145484375,224.8956853125,65.0,90.0
1153,224.75145484375,224.92837755208333,58.0,86.0
1154,225.44376109375,225.96683692708334,56.0,85.0
1155,225.44376109375,225.96683692708334,59.0,87.0
1156,225.44376109375,225.97452921875,63.0,85.0
1157,225.90529859375,226.41875906250002,51.0,73.0
1158,226.36683609375,226.6149125,56.0,86.0
1159,225.44376109375,226.65722010416667,44.0,87.0
1160,226.36683609375,226.66298932291667,59.0,91.0
1161,226.59760484375,226.72260458333332,51.0,85.0
1162,226.36683609375,226.88606578125,63.0,87.0
1163,226.82837359375,227.01298859375,56.0,77.0
1164,227.28991109375,227.54183364583332,56.0,85.0
1165,227.28991109375,227.73991015625,61.0,85.0
1166,227.75144859375,227.86298682291667,56.0,81.0
1167,227.28991109375,228.02452494791666,49.0,84.0
1168,227.98221734375,228.24952447916667,56.0,88.0
1169,227.98221734375,228.26106291666667,65.0,90.0
1170,228.21298609375,228.48029322916668,49.0,83.0
1171,228.44375484375,228.50337010416666,56.0,69.0
1172,228.44375484375,228.71298505208333,61.0,88.0
1173,228.67452359375,228.82067713541667,56.0,79.0
1174,229.107215,229.65144463541668,54.0,78.0
1175,229.10913807291666,229.79952125,58.0,81.0
1176,229.62067546875,230.20913578125,49.0,78.0
1177,230.05721302083333,230.40144307291666,54.0,80.0
1178,230.04952072916666,230.5725965625,58.0,84.0
1179,229.11490729166667,230.59182729166668,42.0,86.0
1180,230.51490437500001,230.84374984375,49.0,81.0
1181,230.99182645833332,231.44759473958334,66.0,67.0
1182,230.99759567708332,231.49759463541668,54.0,76.0
1183,230.98990338541668,231.58413291666668,58.0,77.0
1184,231.88220921875,232.14374713541667,54.0,74.0
1185,231.89182458333335,232.76105354166666,58.0,77.0
1186,231.40528713541667,232.80913036458332,49.0,73.0
1187,232.3495159375,232.80913036458332,54.0,81.0
1188,230.97451880208334,232.83028416666667,42.0,83.0
1189,232.82836109375,232.83028416666667,42.0,86.0
1190,232.82836109375,233.29374473958333,66.0,85.0
1191,233.05912984375001,233.31682161458335,58.0,80.0
1192,233.28989859375,233.55912880208334,61.0,82.0
1193,233.52066734375,233.7572053125,58.0,81.0
1194,233.75143609375002,234.03605088541667,66.0,86.0
1195,233.98220484375,234.24758890625,58.0,82.0
1196,234.21297359375,234.47066536458334,61.0,81.0
1197,233.75143609375002,234.51489604166667,49.0,80.0
1198,234.44374234375,234.69374182291668,58.0,75.0
1199,234.67451109375,235.12643322916668,66.0,85.0
1200,234.90527984375,235.18027927083332,58.0,80.0
1201,235.13604859375,235.41489416666667,61.0,82.0
1202,235.36681734375,235.59950916666668,58.0,82.0
1203,234.67451109375,235.88412395833333,42.0,85.0
1204,235.82835484375,236.10527734375,58.0,85.0
1205,235.59758609375,236.11489270833334,66.0,86.0
1206,236.05912359375,236.34758453125,61.0,85.0
1207,236.28989234375,236.53796875,58.0,75.0
1208,236.52066109375,236.83412197916667,66.0,85.0
1209,236.75142984375,237.00912161458334,58.0,86.0
1210,236.98219859375,237.2648903125,63.0,76.0
1211,237.21296734375,237.48604369791667,58.0,85.0
1212,236.52066109375,237.7033509375,51.0,90.0
1213,237.44373609375,237.7495046875,66.0,87.0
1214,237.67450484375001,237.92642739583334,58.0,86.0
1215,237.90527359375,238.22450369791667,63.0,86.0
1216,238.13604234375,238.42258020833333,58.0,81.0
1217,238.36681109375,238.71296421875,66.0,85.0
1218,238.59757984375,238.85911776041667,58.0,81.0
1219,238.36681109375,238.93988682291666,39.0,90.0
1220,238.82834859375,239.12834796875,63.0,81.0
1221,239.05911734375,239.3418090625,58.0,83.0
1222,239.52065484375,239.75526973958333,58.0,82.0
1223,239.28988609375,239.78411583333335,66.0,83.0
1224,239.75142359375,239.96296161458332,63.0,81.0
1225,239.98219234375,240.10526901041666,58.0,86.0
1226,240.21296109375,240.69372932291668,59.0,85.0
1227,240.21296109375,240.69372932291668,63.0,85.0
1228,240.67449859375,240.86103666666668,54.0,81.0
1229,240.90526734375,241.38026635416668,63.0,90.0
1230,241.13603609375,241.52257375,54.0,86.0
1231,241.36680484375,241.66680421875,59.0,78.0
1232,240.21296109375,241.92449598958333,47.0,94.0
1233,241.59757359375,241.9379575,63.0,81.0
1234,241.82834234375,242.12834171875,54.0,78.0
1235,242.05911109375,242.32834130208334,59.0,74.0
1236,242.05911109375,242.52257166666666,63.0,85.0
1237,242.28987984375001,242.72834046875,54.0,84.0
1238,242.52064859375,242.83410947916667,59.0,77.0
1239,242.75141734375,243.24372401041666,63.0,85.0
1240,242.98218609375,243.42064671875,54.0,86.0
1241,243.21295484375,243.48026197916667,59.0,89.0
1242,242.05911109375,243.48603119791667,47.0,86.0
1243,243.44372359375,243.58026177083335,63.0,85.0
1244,243.78987671875,244.01487625000001,56.0,76.0
1245,243.84179968750001,244.22833734375,59.0,71.0
1246,243.90718416666667,244.24949114583333,63.0,74.0
1247,243.96679942708334,244.48218296875,68.0,80.0
1248,244.40526005208332,244.9264128125,56.0,80.0
1249,244.6494903125,245.03025875,59.0,77.0
1250,244.94564354166667,245.47064244791667,68.0,87.0
1251,245.18025843750002,245.57448838541666,56.0,80.0
1252,245.46487322916667,245.60525755208334,59.0,68.0
1253,244.18218359375,245.61102677083335,51.0,66.0
1254,243.92833796875001,245.77833411458334,44.0,87.0
1255,246.091795,246.35333291666666,56.0,73.0
1256,246.18794864583333,246.92640864583333,61.0,79.0
1257,246.31487145833333,247.03217765625,65.0,83.0
1258,247.23025416666667,247.51871510416666,61.0,85.0
1259,247.23025416666667,247.67833015625,56.0,81.0
1260,246.11679494791667,248.54371296875001,49.0,88.0
1261,248.11486770833332,248.70332802083334,59.0,81.0
1262,249.86101791666667,250.42447828125,54.0,58.0
1263,249.99947916666667,250.66678546875,58.0,76.0
1264,250.68217005208334,250.91293880208335,54.0,75.0
1265,250.89563114583333,251.053323125,56.0,83.0
1266,251.1110153125,251.38601473958335,58.0,77.0
1267,251.32255333333333,251.76293703125,61.0,79.0
1268,251.78409083333332,251.930244375,63.0,71.0
1269,251.99178270833335,252.15909005208334,66.0,70.0
1270,252.23216682291667,252.54947385416668,68.0,76.0
1271,252.61293526041666,253.10908807291668,66.0,75.0
1272,253.21293401041666,253.49562572916668,70.0,76.0
1273,253.72062526041668,253.87639416666667,73.0,79.0
1274,250.41486291666666,254.17831661458334,49.0,73.0
1275,250.04178677083334,254.28600869791666,42.0,80.0
1276,254.84562291666666,255.02831484375,66.0,65.0
1277,254.92831505208335,255.04369942708334,70.0,73.0
1278,255.05331479166668,255.20331447916666,78.0,77.0
1279,254.70331552083334,255.42446786458333,49.0,68.0
1280,254.51677744791667,255.4494678125,42.0,63.0
