,start,end,pitch,velocity
0,22.398518212499997,22.7176357,68.0,85.0
1,22.7514592125,23.005870849999997,75.0,83.0
2,23.1044002125,24.354399587499998,75.0,84.0
3,24.516164212499998,24.7838111375,73.0,87.0
4,24.8691052125,25.1367521375,75.0,84.0
5,25.2220462125,25.529398999999998,70.0,85.0
6,25.574987212499998,25.8426341375,66.0,80.0
7,25.9279282125,27.779397874999997,68.0,81.0
8,28.0455742125,28.3455740625,68.0,83.0
9,28.398515212499998,28.655868025,75.0,83.0
10,28.7514562125,29.936749737499998,75.0,83.0
11,30.163220212499997,30.3955730375,73.0,85.0
12,30.5161612125,30.820572825,75.0,84.0
13,30.8691022125,31.199984399999998,78.0,83.0
14,31.222043212499997,31.991160474999997,73.0,83.0
15,31.9279252125,33.42939505,75.0,82.0
16,33.6926302125,33.9661594875,75.0,87.0
17,34.0455712125,34.336747537499996,78.0,82.0
18,34.3985122125,35.0426295375,80.0,81.0
19,35.1043942125,35.3514529125,78.0,76.0
20,35.4573352125,35.7690997625,80.0,82.0
21,35.8102762125,36.861746275,73.0,86.0
22,37.2220402125,37.8573340125,75.0,84.0
23,37.9279222125,38.179392674999995,73.0,83.0
24,38.2808632125,38.605863049999996,71.0,79.0
25,38.633804212499996,39.191156875,68.0,82.0
26,39.6926272125,40.002921175,68.0,85.0
27,40.0455682125,40.666156137499996,75.0,83.0
28,40.751450212499996,40.977920687499996,73.0,82.0
29,41.1043912125,41.3661557875,75.0,83.0
30,41.4573322125,42.020567225,70.0,81.0
31,42.1632142125,42.482331699999996,68.0,82.0
32,42.516155212499996,42.794096249999996,66.0,79.0
33,42.8690962125,44.6190953375,68.0,81.0
34,44.9867422125,45.3058597,68.0,85.0
35,45.3396832125,45.59409485,75.0,83.0
36,45.6926242125,46.942623587499995,75.0,84.0
37,47.1043882125,47.3720351375,73.0,87.0
38,47.4573292125,47.7249761375,75.0,84.0
39,47.8102702125,48.117622999999995,70.0,85.0
40,48.163211212499995,48.430858137499996,66.0,80.0
41,48.516152212499996,50.367621875,68.0,81.0
42,50.6337982125,50.933798062499996,68.0,83.0
43,50.9867392125,51.244092025,75.0,83.0
44,51.3396802125,52.5249737375,75.0,83.0
45,52.7514442125,52.9837970375,73.0,85.0
46,53.1043852125,53.408796824999996,75.0,84.0
47,53.4573262125,53.788208399999995,78.0,83.0
48,53.810267212499994,54.579384475,73.0,83.0
49,54.5161492125,56.01761905,75.0,82.0
50,56.280854212499996,56.5543834875,75.0,87.0
51,56.6337952125,56.9249715375,78.0,82.0
52,56.9867362125,57.630853537499995,80.0,81.0
53,57.692618212499994,57.9396769125,78.0,76.0
54,58.045559212499995,58.357323762499995,80.0,82.0
55,58.3985002125,59.449970275,73.0,86.0
56,59.810264212499995,60.445558012499994,75.0,84.0
57,60.5161462125,60.767616675,73.0,83.0
58,60.8690872125,61.19408705,71.0,79.0
59,61.2220282125,61.779380874999994,68.0,82.0
60,62.2808512125,62.591145174999994,68.0,85.0
61,62.6337922125,63.2543801375,75.0,83.0
62,63.3396742125,63.5661446875,73.0,82.0
63,63.692615212499994,63.954379787499995,71.0,83.0
64,64.0455562125,64.60879122499999,71.0,81.0
65,64.75143821249999,65.0705557,70.0,82.0
66,65.10437921249999,65.38232024999999,71.0,79.0
67,65.4573202125,67.2073193375,71.0,81.0
68,70.3984942125,70.76908226249999,71.0,83.0
69,70.7514352125,71.1102585625,73.0,92.0
70,71.1043762125,71.8470229,75.0,84.0
71,71.8102582125,72.50437551249999,78.0,83.0
72,72.51614021249999,73.65290435,80.0,84.0
73,73.5749632125,73.9220218625,83.0,87.0
74,73.9279042125,74.6543744375,82.0,88.0
75,74.6337862125,74.9529037,78.0,82.0
76,74.9867272125,75.355844675,75.0,85.0
77,75.3396682125,75.9249620375,80.0,83.0
78,76.04555021249999,76.29996185,75.0,83.0
79,76.39849121249999,76.6984910625,75.0,85.0
80,76.75143221249999,77.79996109999999,73.0,90.0
81,77.8102552125,78.13525505,75.0,83.0
82,78.1631962125,78.48819605,73.0,92.0
83,78.5161372125,78.77643119999999,71.0,81.0
84,78.8690782125,79.2352545,71.0,81.0
85,79.2220192125,79.608783725,78.0,82.0
86,79.5749602125,81.5396651125,75.0,78.0
87,81.6926062125,81.9749590125,71.0,83.0
88,82.0455472125,82.320547075,73.0,88.0
89,82.3984882125,83.13525254999999,75.0,83.0
90,83.1043702125,83.80584044999999,78.0,83.0
91,83.81025221249999,84.591134175,80.0,83.0
92,84.8690752125,85.15878095,83.0,87.0
93,85.2220162125,85.91025116249999,82.0,84.0
94,85.9278982125,86.2543686375,80.0,81.0
95,86.2808392125,86.64407432499999,82.0,83.0
96,86.6337802125,87.24407402499999,83.0,84.0
97,87.3396622125,87.555838575,75.0,80.0
98,87.69260321249999,88.0234854,75.0,79.0
99,88.04554421249999,88.985249625,73.0,84.0
100,89.1043672125,89.3881906,80.0,82.0
101,89.4573082125,89.72348455,78.0,84.0
102,89.8102492125,90.1646608,75.0,83.0
103,90.1631902125,90.5043665125,73.0,86.0
104,90.5161312125,91.220542625,75.0,83.0
105,91.2220132125,93.6102473125,71.0,83.0
106,104.28083021249999,104.5999477,68.0,85.0
107,104.6337712125,104.88818284999999,75.0,83.0
108,104.9867122125,106.2367115875,75.0,84.0
109,106.3984762125,106.6661231375,73.0,87.0
110,106.7514172125,107.0190641375,75.0,84.0
111,107.10435821249999,107.411711,70.0,85.0
112,107.45729921249999,107.7249461375,66.0,80.0
113,107.81024021249999,109.661709875,68.0,81.0
114,109.9278862125,110.22788606249999,68.0,83.0
115,110.2808272125,110.53818002499999,75.0,83.0
116,110.6337682125,111.8190617375,75.0,83.0
117,112.04553221249999,112.2778850375,73.0,85.0
118,112.3984732125,112.702884825,75.0,84.0
119,112.7514142125,113.08229639999999,78.0,83.0
120,113.1043552125,113.873472475,73.0,83.0
121,113.8102372125,115.31170705,75.0,82.0
122,115.57494221249999,115.84847148749999,75.0,87.0
123,115.92788321249999,116.2190595375,78.0,82.0
124,116.2808242125,116.92494153749999,80.0,81.0
125,116.9867062125,117.23376491249999,78.0,76.0
126,117.3396472125,117.65141176249999,80.0,82.0
127,117.6925882125,118.744058275,73.0,86.0
128,119.10435221249999,119.73964601249999,75.0,84.0
129,119.81023421249999,120.061704675,73.0,83.0
130,120.1631752125,120.48817505,71.0,79.0
131,120.5161162125,121.07346887499999,68.0,82.0
132,121.5749392125,121.885233175,68.0,85.0
133,121.9278802125,122.5484681375,75.0,83.0
134,122.63376221249999,122.86023268749999,73.0,82.0
135,122.98670321249999,123.24846778749999,75.0,83.0
136,123.33964421249999,123.90287922499999,70.0,81.0
137,124.0455262125,124.36464369999999,68.0,82.0
138,124.3984672125,124.67640825,66.0,79.0
139,124.7514082125,126.5014073375,68.0,81.0
140,126.86905421249999,127.1881717,68.0,85.0
141,127.22199521249999,127.47640684999999,75.0,83.0
142,127.57493621249999,128.8249355875,75.0,84.0
143,128.98670021249998,129.2543471375,73.0,87.0
144,129.3396412125,129.6072881375,75.0,84.0
145,129.69258221249999,129.999935,70.0,85.0
146,130.0455232125,130.31317013749998,66.0,80.0
147,130.3984642125,132.24993387499998,68.0,81.0
148,132.5161102125,132.8161100625,68.0,83.0
149,132.86905121249998,133.126404025,75.0,83.0
150,133.2219922125,134.4072857375,75.0,83.0
151,134.6337562125,134.8661090375,73.0,85.0
152,134.9866972125,135.29110882499998,75.0,84.0
153,135.3396382125,135.6705204,78.0,83.0
154,135.6925792125,136.461696475,73.0,83.0
155,136.3984612125,137.89993105,75.0,82.0
156,138.1631662125,138.4366954875,75.0,87.0
157,138.5161072125,138.80728353749998,78.0,82.0
158,138.8690482125,139.5131655375,80.0,81.0
159,139.5749302125,139.8219889125,78.0,76.0
160,139.92787121249998,140.2396357625,80.0,82.0
161,140.2808122125,141.33228227499998,73.0,86.0
162,141.6925762125,142.3278700125,75.0,84.0
163,142.3984582125,142.64992867499998,73.0,83.0
164,142.7513992125,143.07639905,71.0,79.0
165,143.1043402125,143.661692875,68.0,82.0
166,144.1631632125,144.473457175,68.0,85.0
167,144.51610421249998,145.1366921375,75.0,83.0
168,145.22198621249998,145.4484566875,73.0,82.0
169,145.5749272125,145.8366917875,71.0,83.0
170,145.9278682125,146.491103225,71.0,81.0
171,146.6337502125,146.95286769999998,70.0,82.0
172,146.9866912125,147.26463225,71.0,79.0
173,147.3396322125,149.08963133749998,71.0,81.0
174,152.28080621249998,152.6513942625,71.0,83.0
175,152.6337472125,152.9925705625,73.0,92.0
176,152.98668821249998,153.7293349,75.0,84.0
177,153.6925702125,154.3866875125,78.0,83.0
178,154.3984522125,155.53521634999998,80.0,84.0
179,155.45727521249998,155.8043338625,83.0,87.0
180,155.8102162125,156.53668643749998,82.0,88.0
181,156.5160982125,156.8352157,78.0,82.0
182,156.86903921249998,157.238156675,75.0,85.0
183,157.2219802125,157.80727403749998,80.0,83.0
184,157.9278622125,158.18227385,75.0,83.0
185,158.2808032125,158.5808030625,75.0,85.0
186,158.6337442125,159.6822731,73.0,90.0
187,159.6925672125,160.01756705,75.0,83.0
188,160.04550821249998,160.37050804999998,73.0,92.0
189,160.3984492125,160.6587432,71.0,81.0
190,160.75139021249998,161.11756649999998,71.0,81.0
191,161.1043312125,161.49109572499998,78.0,82.0
192,161.4572722125,163.4219771125,75.0,78.0
193,163.5749182125,163.85727101249998,71.0,83.0
194,163.92785921249998,164.202859075,73.0,88.0
195,164.2808002125,165.01756455,75.0,83.0
196,164.9866822125,165.68815245,78.0,83.0
197,165.6925642125,166.473446175,80.0,83.0
198,166.7513872125,167.04109295,83.0,87.0
199,167.10432821249998,167.7925631625,82.0,84.0
200,167.81021021249998,168.13668063749998,80.0,81.0
201,168.1631512125,168.526386325,82.0,83.0
202,168.51609221249998,169.126386025,83.0,84.0
203,169.2219742125,169.43815057499998,75.0,80.0
204,169.5749152125,169.90579739999998,75.0,79.0
205,169.9278562125,170.86756162499998,73.0,84.0
206,170.98667921249998,171.2705026,80.0,82.0
207,171.3396202125,171.60579654999998,78.0,84.0
208,171.69256121249998,172.0469728,75.0,83.0
209,172.0455022125,172.3866785125,73.0,86.0
210,172.39844321249998,173.102854625,75.0,83.0
211,173.1043252125,175.4925593125,71.0,83.0
212,200.2807822125,200.6513702625,71.0,83.0
213,200.6337232125,200.9925465625,73.0,92.0
214,200.9866642125,201.7293109,75.0,84.0
215,201.6925462125,202.38666351249998,78.0,83.0
216,202.3984282125,203.53519235,80.0,84.0
217,203.45725121249998,203.8043098625,83.0,87.0
218,203.8101922125,204.53666243749998,82.0,88.0
219,204.5160742125,204.8351917,78.0,82.0
220,204.8690152125,205.238132675,75.0,85.0
221,205.2219562125,205.80725003749998,80.0,83.0
222,205.92783821249998,206.18224984999998,75.0,83.0
223,206.2807792125,206.5807790625,75.0,85.0
224,206.63372021249998,207.68224909999998,73.0,90.0
225,207.6925432125,208.01754305,75.0,83.0
226,208.04548421249999,208.37048405,73.0,92.0
227,208.3984252125,208.65871919999998,71.0,81.0
228,208.7513662125,209.11754249999998,71.0,81.0
229,209.1043072125,209.49107172499998,78.0,82.0
230,209.4572482125,211.42195311249998,75.0,78.0
231,211.5748942125,211.85724701249998,71.0,83.0
232,211.92783521249999,212.202835075,73.0,88.0
233,212.2807762125,213.01754054999998,75.0,83.0
234,212.9866582125,213.68812845,78.0,83.0
235,213.69254021249998,214.473422175,80.0,83.0
236,214.7513632125,215.04106894999998,83.0,87.0
237,215.10430421249998,215.7925391625,82.0,84.0
238,215.81018621249999,216.13665663749998,80.0,81.0
239,216.1631272125,216.52636232499998,82.0,83.0
240,216.5160682125,217.126362025,83.0,84.0
241,217.2219502125,217.43812657499998,75.0,80.0
242,217.57489121249998,217.9057734,75.0,79.0
243,217.9278322125,218.86753762499998,73.0,84.0
244,218.98665521249998,219.2704786,80.0,82.0
245,219.3395962125,219.60577254999998,78.0,84.0
246,219.69253721249999,220.0469488,75.0,83.0
247,220.0454782125,220.3866545125,73.0,86.0
248,220.3984192125,221.102830625,75.0,83.0
249,221.1043012125,222.8660650375,71.0,83.0
250,222.86900621249998,223.1513590125,71.0,83.0
251,223.2219472125,223.49694707499998,73.0,88.0
252,223.57488821249999,224.31165255,75.0,83.0
253,224.2807702125,224.98224044999998,78.0,83.0
254,224.9866522125,225.76753417499998,80.0,83.0
255,226.04547521249998,226.33518095,83.0,87.0
256,226.3984162125,227.08665116249998,82.0,84.0
257,227.1042982125,227.4307686375,80.0,81.0
258,227.45723921249999,227.820474325,82.0,83.0
259,227.8101802125,228.42047402499998,83.0,84.0
260,228.5160622125,228.732238575,75.0,80.0
261,228.8690032125,229.1998854,75.0,79.0
262,229.22194421249998,230.161649625,73.0,84.0
263,230.2807672125,230.5645906,80.0,82.0
264,230.63370821249998,230.89988455,78.0,84.0
265,230.9866492125,231.34106079999998,75.0,83.0
266,231.33959021249999,231.68076651249999,73.0,86.0
267,231.6925312125,232.39694262499998,75.0,83.0
268,232.3984132125,234.16017703749998,71.0,83.0
269,234.1631182125,234.4822357,68.0,85.0
270,234.51605921249998,234.77047084999998,75.0,83.0
271,234.8690002125,236.11899958749999,75.0,84.0
272,236.2807642125,236.54841113749998,73.0,87.0
273,236.6337052125,236.9013521375,75.0,84.0
274,236.98664621249998,237.29399899999999,70.0,85.0
275,237.3395872125,237.6072341375,66.0,80.0
276,237.69252821249998,239.543997875,68.0,81.0
277,239.8101742125,240.1101740625,68.0,83.0
278,240.1631152125,240.420468025,75.0,83.0
279,240.5160562125,241.70134973749998,75.0,83.0
280,241.9278202125,242.1601730375,73.0,85.0
281,242.28076121249998,242.585172825,75.0,84.0
282,242.6337022125,242.96458439999998,78.0,83.0
283,242.98664321249998,243.755760475,73.0,83.0
284,243.6925252125,245.19399504999998,75.0,82.0
285,245.45723021249998,245.7307594875,75.0,87.0
286,245.8101712125,246.10134753749998,78.0,82.0
287,246.16311221249998,246.80722953749998,80.0,81.0
288,246.86899421249998,247.11605291249998,78.0,76.0
289,247.2219352125,247.5336997625,80.0,82.0
290,247.5748762125,248.62634627499997,73.0,86.0
291,248.9866402125,249.6219340125,75.0,84.0
292,249.6925222125,249.94399267499998,73.0,83.0
293,250.04546321249998,250.37046304999998,71.0,79.0
294,250.3984042125,250.955756875,68.0,82.0
295,251.4572272125,251.76752117499998,68.0,85.0
296,251.8101682125,252.4307561375,75.0,83.0
297,252.51605021249998,252.7425206875,73.0,82.0
298,252.8689912125,253.1307557875,71.0,83.0
299,253.22193221249998,253.78516722499998,71.0,81.0
300,254.65134326249998,255.26899001249998,70.0,83.0
301,255.2351665,255.85281325,71.0,84.0
302,256.0807543125,260.3925168625,71.0,87.0
