,start,end,pitch,velocity
0,1.2220582125,1.6632344625,52.0,69.0
1,0.5161762125,1.6926462125,40.0,78.0
2,0.8691172125,1.7470579499999999,47.0,77.0
3,1.5749992124999999,1.9029402249999998,56.0,71.0
4,1.9279402124999998,2.8058809499999997,58.0,76.0
5,1.9279402124999998,2.8117633,54.0,70.0
6,1.9279402124999998,2.8588221,42.0,81.0
7,3.3397042125,3.7764686999999997,56.0,74.0
8,3.3397042125,4.1132332375,59.0,76.0
9,3.6926452125,4.120586175,51.0,74.0
10,4.0455862125,4.5058801,56.0,81.0
11,4.7514682125,5.238232675,56.0,68.0
12,4.7514682125,5.2691150124999995,63.0,76.0
13,4.3985272124999995,5.4455855125,51.0,69.0
14,3.3397042125,5.5220560625,44.0,79.0
15,6.1632322125,6.5647025999999995,52.0,73.0
16,6.1632322125,6.923525949999999,56.0,72.0
17,6.5161732125,7.1514670124999995,47.0,74.0
18,6.1632322125,7.1647023,40.0,81.0
19,6.8691142124999995,7.1705846499999994,52.0,81.0
20,7.574996212499999,8.00587835,54.0,68.0
21,7.574996212499999,8.2838193875,58.0,68.0
22,8.2808782125,8.72352505,54.0,82.0
23,7.9279372125,8.7279368125,49.0,73.0
24,7.574996212499999,8.7367603375,42.0,73.0
25,8.633819212499999,9.0720542875,58.0,82.0
26,9.3397012125,9.7367598375,54.0,74.0
27,8.9867602125,9.7999951,59.0,78.0
28,9.6926422125,10.0823479,61.0,70.0
29,10.0455832125,10.4897006375,54.0,68.0
30,10.3985242125,11.114700325,63.0,82.0
31,8.9867602125,11.2426414375,47.0,82.0
32,11.104406212499999,11.273523775,59.0,76.0
33,11.8102882125,12.555876074999999,56.0,68.0
34,12.516170212499999,12.919111187499999,52.0,82.0
35,11.8102882125,12.9926405625,40.0,76.0
36,12.1632292125,13.124993437499999,47.0,70.0
37,12.8691112125,13.2705816,56.0,81.0
38,13.2220522125,14.019110637499999,58.0,76.0
39,13.927934212499999,14.092640012499999,54.0,67.0
40,13.2220522125,14.2308752375,42.0,72.0
41,13.574993212499999,14.339698712499999,49.0,74.0
42,14.6338162125,15.04116895,56.0,67.0
43,14.6338162125,15.3661687875,59.0,68.0
44,14.986757212499999,15.4485216875,51.0,67.0
45,14.6338162125,15.4823452,44.0,77.0
46,15.3396982125,15.52352165,56.0,67.0
47,16.0455802125,17.069109112499998,53.0,70.0
48,16.0455802125,17.0823444,37.0,69.0
49,16.0455802125,17.5338147625,56.0,69.0
50,17.4573442125,17.5338147625,56.0,71.0
51,17.8102852125,18.4352849,44.0,56.0
52,17.4573442125,18.449990775,37.0,81.0
53,18.1632262125,18.6720494875,52.0,81.0
54,18.516167212499997,18.9132258375,56.0,75.0
55,18.8691082125,19.555872575,58.0,74.0
56,19.2220492125,19.685284275,46.0,68.0
57,18.8691082125,19.733813662499998,39.0,81.0
58,19.574990212499998,19.7926371625,54.0,82.0
59,20.2808722125,20.7514602125,56.0,70.0
60,20.9867542125,21.4985186625,56.0,82.0
61,21.3396952125,21.592636262499997,61.0,77.0
62,20.2808722125,22.508812275,44.0,78.0
63,20.633813212499998,22.508812275,51.0,73.0
64,21.6926362125,22.99410615,60.0,68.0
65,21.6926362125,23.008812024999997,56.0,69.0
66,23.1044002125,23.908811574999998,59.0,78.0
67,23.8102822125,24.2043996625,52.0,65.0
68,23.457341212499998,24.317634899999998,47.0,63.0
69,23.1044002125,24.320576074999998,40.0,81.0
70,24.1632232125,24.510281862499998,56.0,81.0
71,24.516164212499998,25.1955756375,58.0,77.0
72,24.8691052125,25.3838108375,49.0,70.0
73,24.516164212499998,25.4235167,42.0,81.0
74,25.2220462125,25.479399025,54.0,82.0
75,25.574987212499998,25.80586945,42.0,77.0
76,25.9279282125,26.314692725,59.0,75.0
77,25.9279282125,26.383810337499998,56.0,71.0
78,26.280869212499997,26.7485160375,51.0,75.0
79,25.9279282125,27.0749864625,44.0,79.0
80,26.6338102125,27.0838099875,56.0,83.0
81,26.9867512125,27.4808686125,51.0,74.0
82,27.339692212499997,27.6485155875,63.0,82.0
83,27.339692212499997,27.657339112499997,59.0,70.0
84,28.0455742125,28.2926329125,56.0,70.0
85,28.0455742125,28.386750512499997,59.0,73.0
86,27.6926332125,28.483809287499998,51.0,68.0
87,28.398515212499998,28.7455738625,58.0,68.0
88,28.7514562125,29.445573512499998,59.0,73.0
89,29.457338212499998,29.8926321125,52.0,83.0
90,29.1043972125,29.94704385,47.0,70.0
91,28.7514562125,29.961749724999997,40.0,73.0
92,29.8102792125,30.160279037499997,59.0,79.0
93,30.163220212499997,30.7926316625,58.0,79.0
94,30.8691022125,31.011749199999997,54.0,76.0
95,30.5161612125,31.111749149999998,49.0,68.0
96,30.163220212499997,31.267631424999998,42.0,81.0
97,31.5749842125,31.795572337499998,54.0,75.0
98,31.5749842125,32.316160312499996,63.0,81.0
99,31.9279252125,32.367630874999996,54.0,74.0
100,31.5749842125,32.55880725,47.0,75.0
101,32.633807212499995,32.9058659,54.0,81.0
102,32.2808662125,32.9396894125,61.0,76.0
103,32.9867482125,33.37057155,59.0,77.0
104,33.3396892125,33.701453737499996,54.0,80.0
105,32.9867482125,33.848512487499995,47.0,75.0
106,33.6926302125,33.9661594875,58.0,82.0
107,34.3985122125,34.7955708375,52.0,72.0
108,34.3985122125,35.136747137499995,56.0,71.0
109,35.1043942125,35.4749822625,52.0,86.0
110,34.3985122125,35.5220410625,40.0,80.0
111,34.751453212499996,35.5720410375,47.0,81.0
112,35.4573352125,35.820570325,59.0,74.0
113,35.8102762125,36.22939365,58.0,76.0
114,35.8102762125,36.273511275,54.0,75.0
115,36.516158212499995,36.673511075,54.0,82.0
116,35.8102762125,36.755863975,42.0,81.0
117,36.1632172125,36.799981599999995,49.0,73.0
118,37.2220402125,37.605863549999995,56.0,71.0
119,37.2220402125,37.89998105,59.0,73.0
120,37.5749812125,38.0279221625,51.0,75.0
121,37.2220402125,38.091157425,44.0,79.0
122,37.9279222125,38.355863174999996,56.0,84.0
123,38.2808632125,38.401451387499996,59.0,77.0
124,38.633804212499996,39.354392087499996,53.0,71.0
125,38.9867452125,39.5543919875,44.0,69.0
126,38.633804212499996,39.62939195,37.0,79.0
127,39.3396862125,39.647039,56.0,72.0
128,40.0455682125,40.520567975,52.0,68.0
129,40.0455682125,40.8661560375,56.0,73.0
130,40.398509212499995,41.2661558375,44.0,67.0
131,40.0455682125,41.283802887499995,37.0,83.0
132,41.1043912125,41.386744012499996,56.0,29.0
133,41.1043912125,41.485273375,52.0,73.0
134,40.751450212499996,41.773508525,61.0,80.0
135,41.8102732125,42.3308611875,46.0,76.0
136,41.4573322125,42.38233175,39.0,83.0
137,42.516155212499996,42.685272775,51.0,77.0
138,42.1632142125,42.7132139375,54.0,78.0
139,42.8690962125,43.322037162499996,56.0,72.0
140,42.8690962125,43.538213524999996,61.0,74.0
141,43.5749782125,43.979389775,56.0,82.0
142,43.2220372125,44.067625025,51.0,72.0
143,42.8690962125,44.085272075,44.0,81.0
144,43.9279192125,44.2543896375,61.0,70.0
145,44.280860212499995,44.6426247375,60.0,75.0
146,44.280860212499995,44.8102717125,56.0,71.0
147,44.9867422125,45.191153875,56.0,75.0
148,44.633801212499996,45.2602714875,51.0,76.0
149,44.280860212499995,45.355859675,44.0,81.0
150,45.3396832125,45.711741849999996,56.0,80.0
151,44.9867422125,45.723506549999996,63.0,82.0
152,45.6926242125,46.497035575,59.0,78.0
153,46.398506212499996,46.7926236625,52.0,65.0
154,46.0455652125,46.9058589,47.0,63.0
155,45.6926242125,46.908800074999995,40.0,81.0
156,46.7514472125,47.0985058625,56.0,81.0
157,47.1043882125,47.783799637499996,58.0,77.0
158,47.4573292125,47.9720348375,49.0,70.0
159,47.1043882125,48.0117407,42.0,81.0
160,47.8102702125,48.067623024999996,54.0,82.0
161,48.163211212499995,48.39409345,42.0,77.0
162,48.516152212499996,48.902916725,59.0,75.0
163,48.516152212499996,48.9720343375,56.0,71.0
164,48.8690932125,49.3367400375,51.0,75.0
165,48.516152212499996,49.6632104625,44.0,79.0
166,49.2220342125,49.6720339875,56.0,83.0
167,49.5749752125,50.0690926125,51.0,74.0
168,49.927916212499994,50.2367395875,63.0,82.0
169,49.927916212499994,50.2455631125,59.0,70.0
170,50.6337982125,50.8808569125,56.0,70.0
171,50.6337982125,50.9749745125,59.0,73.0
172,50.280857212499996,51.0720332875,51.0,68.0
173,50.9867392125,51.3337978625,58.0,68.0
174,51.3396802125,52.033797512499994,59.0,73.0
175,52.045562212499995,52.4808561125,52.0,83.0
176,51.6926212125,52.53526785,47.0,70.0
177,51.3396802125,52.549973725,40.0,73.0
178,52.398503212499996,52.7485030375,59.0,79.0
179,52.7514442125,53.3808556625,58.0,79.0
180,53.4573262125,53.5999732,54.0,76.0
181,53.1043852125,53.69997315,49.0,68.0
182,52.7514442125,53.855855424999994,42.0,81.0
183,54.163208212499995,54.383796337499994,54.0,75.0
184,54.163208212499995,54.9043843125,63.0,81.0
185,54.5161492125,54.955854875,54.0,74.0
186,54.163208212499995,55.14703125,47.0,75.0
187,55.2220312125,55.4940899,54.0,81.0
188,54.8690902125,55.5279134125,61.0,76.0
189,55.5749722125,55.95879555,59.0,77.0
190,55.927913212499995,56.2896777375,54.0,80.0
191,55.5749722125,56.4367364875,47.0,75.0
192,56.280854212499996,56.5543834875,58.0,82.0
193,56.9867362125,57.688206449999996,52.0,75.0
194,56.9867362125,57.6955593875,59.0,81.0
195,56.9867362125,57.7367358375,40.0,82.0
196,57.692618212499994,57.777912287499994,56.0,84.0
197,57.3396772125,57.7926181625,47.0,75.0
198,58.3985002125,58.58232365,55.0,71.0
199,58.3985002125,58.897029374999995,58.0,80.0
200,58.3985002125,58.9043823125,61.0,75.0
201,58.7514412125,59.1661468875,55.0,74.0
202,58.3985002125,59.1896762875,43.0,81.0
203,59.1043822125,59.3926173625,61.0,81.0
204,59.810264212499995,59.974970012499995,56.0,69.0
205,59.810264212499995,60.220558125,59.0,76.0
206,59.810264212499995,60.338205124999995,44.0,81.0
207,60.163205212499996,60.385263925,56.0,82.0
208,60.5161462125,60.752910799999995,58.0,83.0
209,60.5161462125,60.816146062499996,54.0,82.0
210,60.5161462125,60.81761665,42.0,77.0
211,61.2220282125,61.370557549999994,53.0,68.0
212,61.2220282125,61.9690866625,41.0,73.0
213,61.574969212499994,61.983792537499994,53.0,63.0
214,61.2220282125,62.024968987499996,56.0,76.0
215,61.927910212499995,62.176439499999994,59.0,62.0
216,62.6337922125,63.3161448125,56.0,70.0
217,62.6337922125,63.6043799625,40.0,79.0
218,62.9867332125,63.667615225,47.0,78.0
219,62.6337922125,63.702909325,59.0,74.0
220,63.692615212499994,63.8837915875,56.0,71.0
221,64.0455562125,64.56908536249999,54.0,76.0
222,64.0455562125,64.6132029875,58.0,74.0
223,63.3396742125,64.6705559,64.0,77.0
224,64.75143821249999,64.9014381375,54.0,74.0
225,64.3984972125,64.91173225,49.0,77.0
226,64.75143821249999,64.93379106249999,58.0,74.0
227,64.75143821249999,64.9529087,61.0,72.0
228,64.0455562125,64.9632028125,42.0,81.0
229,65.4573202125,65.7602612375,59.0,81.0
230,65.4573202125,65.95437878749999,64.0,74.0
231,65.8102612125,66.114672825,54.0,68.0
232,66.1632022125,66.6940843,59.0,82.0
233,66.1632022125,66.72349605,64.0,83.0
234,65.4573202125,66.7426136875,35.0,80.0
235,66.5161432125,66.9882018,54.0,80.0
236,66.8690842125,67.34702515,63.0,77.0
237,66.8690842125,67.35584867499999,59.0,73.0
238,67.5749662125,68.067613025,61.0,78.0
239,67.2220252125,68.091142425,42.0,57.0
240,66.8690842125,68.1646718,35.0,76.0
241,67.5749662125,68.3999658,54.0,77.0
242,67.9279072125,68.49996575,59.0,74.0
243,68.98673021249999,69.4720240875,54.0,76.0
244,69.3396712125,69.51908288749999,61.0,77.0
245,69.6926122125,69.88378858749999,54.0,78.0
246,68.63378921249999,69.9984944125,42.0,68.0
247,69.6926122125,70.0926120125,59.0,82.0
248,70.0455532125,70.255847225,54.0,84.0
249,69.6926122125,70.4779059375,63.0,82.0
250,70.3984942125,70.5779058875,54.0,83.0
251,68.28084821249999,70.9367292375,35.0,77.0
252,70.3984942125,71.04114095,59.0,86.0
253,70.7514352125,71.10290562499999,54.0,81.0
254,71.1043762125,71.2867290625,54.0,80.0
255,71.1043762125,71.8514346625,35.0,74.0
256,71.1043762125,71.861728775,63.0,82.0
257,71.4573172125,71.8661405375,54.0,78.0
258,71.8102582125,71.967611075,59.0,85.0
259,72.51614021249999,73.2837868875,59.0,76.0
260,72.51614021249999,73.285257475,52.0,74.0
261,73.2220222125,73.6014337875,56.0,82.0
262,72.86908121249999,73.6573161125,47.0,77.0
263,72.51614021249999,73.69996315,40.0,82.0
264,73.5749632125,73.8073160375,52.0,82.0
265,73.9279042125,74.3249628375,54.0,82.0
266,73.9279042125,74.40143338749999,51.0,82.0
267,73.9279042125,74.9514331125,39.0,83.0
268,74.6337862125,74.96172722499999,51.0,82.0
269,74.2808452125,74.979374275,46.0,75.0
270,74.6337862125,75.01760955,58.0,80.0
271,74.9867272125,75.3573152625,61.0,82.0
272,75.3396682125,75.73966801249999,59.0,82.0
273,76.04555021249999,76.3896676875,56.0,77.0
274,76.04555021249999,76.49996175,59.0,82.0
275,75.3396682125,76.58084406249999,44.0,82.0
276,75.6926092125,76.638196975,51.0,80.0
277,77.1043732125,77.544078875,44.0,71.0
278,76.75143221249999,77.57054945,64.0,79.0
279,76.75143221249999,77.58525532499999,37.0,83.0
280,77.4573142125,77.82937285,56.0,85.0
281,78.1631962125,78.67349007499999,61.0,78.0
282,78.8690782125,79.0484898875,54.0,81.0
283,78.5161372125,79.12348985,49.0,79.0
284,78.8690782125,79.1484898375,58.0,82.0
285,78.1631962125,79.2955485875,42.0,81.0
286,79.2220192125,79.6249601875,54.0,81.0
287,79.5749602125,80.0279011625,59.0,83.0
288,79.92790121249999,80.3308421875,54.0,83.0
289,80.28084221249999,80.6690773125,61.0,82.0
290,79.5749602125,80.82054782499999,47.0,82.0
291,80.63378321249999,80.9308418875,54.0,81.0
292,80.9867242125,81.0455477125,54.0,49.0
293,80.9867242125,81.42790046249999,57.0,76.0
294,80.9867242125,81.5455474625,63.0,82.0
295,81.3396652125,81.59113567499999,54.0,83.0
296,81.6926062125,81.82937084999999,54.0,82.0
297,80.9867242125,81.985253125,47.0,81.0
298,81.6926062125,82.097017775,59.0,83.0
299,82.0455472125,82.191135375,54.0,82.0
300,82.3984882125,82.8602526875,52.0,79.0
301,82.3984882125,83.14260548749999,56.0,76.0
302,83.1043702125,83.520546475,52.0,83.0
303,82.3984882125,83.6102523125,40.0,82.0
304,82.7514292125,83.6484875875,47.0,81.0
305,83.4573112125,83.7484875375,56.0,85.0
306,83.81025221249999,84.2808402125,54.0,77.0
307,83.81025221249999,84.5293695,58.0,76.0
308,84.51613421249999,84.74260468749999,54.0,84.0
309,83.81025221249999,84.920545775,42.0,82.0
310,84.16319321249999,84.920545775,49.0,78.0
311,85.2220162125,85.61613366249999,55.0,92.0
312,85.5749572125,85.8631923625,51.0,88.0
313,85.2220162125,86.0867216625,43.0,92.0
314,85.9278982125,86.3249568375,58.0,86.0
315,86.2808392125,86.4073097375,51.0,87.0
316,86.6337802125,87.126427025,56.0,73.0
317,86.6337802125,87.411721,59.0,78.0
318,86.9867212125,87.58230915,51.0,83.0
319,87.3396622125,87.5999562,56.0,81.0
320,86.6337802125,87.6455444125,44.0,82.0
321,88.04554421249999,88.167602975,42.0,42.0
322,88.04554421249999,88.48230869999999,52.0,70.0
323,88.04554421249999,88.77936737499999,56.0,73.0
324,88.7514262125,89.1631907125,52.0,86.0
325,88.04554421249999,89.297014175,40.0,71.0
326,88.39848521249999,89.3176024,47.0,82.0
327,89.1043672125,89.44260233749999,56.0,85.0
328,89.4573082125,90.01466087499999,58.0,78.0
329,89.8102492125,90.226425475,49.0,74.0
330,90.1631902125,90.285248975,58.0,76.0
331,90.1631902125,90.308778375,54.0,73.0
332,89.4573082125,90.3131901375,42.0,79.0
333,90.8690722125,91.114660325,54.0,74.0
334,90.8690722125,91.4896601375,61.0,77.0
335,91.2220132125,91.555836575,54.0,76.0
336,91.57495421249999,91.9690716625,59.0,76.0
337,91.92789521249999,92.349953825,54.0,82.0
338,92.28083621249999,92.597012525,59.0,76.0
339,92.28083621249999,92.6161301625,63.0,82.0
340,92.6337772125,92.8587771,54.0,67.0
341,92.9867182125,93.4896591375,54.0,51.0
342,91.2220132125,93.6602472875,42.0,58.0
343,92.9867182125,93.6720119875,59.0,72.0
344,90.8690722125,93.6955413875,35.0,76.0
345,93.5764238,94.11171765,52.0,63.0
346,93.62936495,94.4940704,56.0,61.0
347,93.7528943,94.94848193749999,64.0,64.0
348,93.71024726249999,94.96024663749999,59.0,70.0
349,94.320541075,95.24701119999999,52.0,73.0
350,94.67495266249999,95.808775625,56.0,76.0
351,95.40142288749999,95.8249520875,52.0,76.0
352,95.07201128749999,95.84554031249999,64.0,77.0
353,95.75436388749999,95.8925991125,59.0,72.0
354,93.63083553749999,95.95730496249999,40.0,81.0
355,94.00436476249999,96.185246025,47.0,72.0
356,96.3602459375,96.6484810875,51.0,70.0
357,96.438187075,96.89995155,54.0,74.0
358,96.52495173749999,97.28230429999999,59.0,81.0
359,96.823481,97.585245325,51.0,79.0
360,97.21759845,97.649951175,54.0,69.0
361,96.48083411249999,97.9043628125,39.0,81.0
362,97.567598275,98.28377438749999,59.0,71.0
363,97.9425980875,98.28818615,54.0,66.0
364,98.249950875,98.5749507125,51.0,66.0
365,99.1661268875,99.38671501249999,52.0,69.0
366,99.3528915,100.09994995,64.0,78.0
367,99.2190680375,100.10583229999999,56.0,72.0
368,99.29995034999999,100.13671463749999,59.0,70.0
369,100.0352441,100.6234791,52.0,76.0
370,99.6587737,101.04259653749999,47.0,74.0
371,100.66906731249999,101.0837729875,56.0,69.0
372,99.34259738749999,101.1984788125,40.0,81.0
373,100.34406747499999,101.4602433875,59.0,74.0
374,101.0073024375,101.4896551375,52.0,68.0
375,101.4249492875,101.5367139375,56.0,70.0
376,101.96759607499999,102.2940665,51.0,69.0
377,102.04112545,102.5337722625,54.0,74.0
378,102.1867136125,102.9573014625,59.0,77.0
379,102.4690664125,103.2367130875,51.0,76.0
380,102.86024268749999,103.5925952625,54.0,75.0
381,103.54259528749999,103.94406567499999,51.0,75.0
382,103.87200688749999,104.0940656,54.0,70.0
383,103.176419,104.42053602499999,42.0,57.0
384,102.13524305,104.45583012499999,35.0,81.0
385,104.585241825,104.92788871249999,51.0,81.0
386,104.22200671249999,104.93230047499999,54.0,77.0
387,104.22641847499999,104.94847693749999,59.0,77.0
388,104.9867122125,105.791123575,59.0,78.0
389,105.6925942125,106.0867116625,52.0,65.0
390,105.3396532125,106.1999469,47.0,63.0
391,104.9867122125,106.20288807499999,40.0,81.0
392,106.0455352125,106.3925938625,56.0,81.0
393,106.3984762125,107.0778876375,58.0,77.0
394,106.7514172125,107.26612283749999,49.0,70.0
395,106.3984762125,107.30582869999999,42.0,81.0
396,107.10435821249999,107.36171102499999,54.0,82.0
397,107.45729921249999,107.68818145,42.0,77.0
398,107.81024021249999,108.197004725,59.0,75.0
399,107.81024021249999,108.2661223375,56.0,71.0
400,108.16318121249999,108.6308280375,51.0,75.0
401,107.81024021249999,108.95729846249999,44.0,79.0
402,108.5161222125,108.96612198749999,56.0,83.0
403,108.8690632125,109.36318061249999,51.0,74.0
404,109.2220042125,109.5308275875,63.0,82.0
405,109.2220042125,109.5396511125,59.0,70.0
406,109.9278862125,110.1749449125,56.0,70.0
407,109.9278862125,110.2690625125,59.0,73.0
408,109.5749452125,110.3661212875,51.0,68.0
409,110.2808272125,110.6278858625,58.0,68.0
410,110.6337682125,111.32788551249999,59.0,73.0
411,111.33965021249999,111.7749441125,52.0,83.0
412,110.98670921249999,111.82935585,47.0,70.0
413,110.6337682125,111.84406172499999,40.0,73.0
414,111.69259121249999,112.04259103749999,59.0,79.0
415,112.04553221249999,112.6749436625,58.0,79.0
416,112.7514142125,112.8940612,54.0,76.0
417,112.3984732125,112.99406115,49.0,68.0
418,112.04553221249999,113.14994342499999,42.0,81.0
419,113.4572962125,113.67788433749999,54.0,75.0
420,113.4572962125,114.1984723125,63.0,81.0
421,113.8102372125,114.24994287499999,54.0,74.0
422,113.4572962125,114.44111925,47.0,75.0
423,114.5161192125,114.7881779,54.0,81.0
424,114.1631782125,114.8220014125,61.0,76.0
425,114.86906021249999,115.25288354999999,59.0,77.0
426,115.22200121249999,115.58376573749999,54.0,80.0
427,114.86906021249999,115.7308244875,47.0,75.0
428,115.57494221249999,115.84847148749999,58.0,82.0
429,116.2808242125,116.6778828375,52.0,72.0
430,116.2808242125,117.0190591375,56.0,71.0
431,116.9867062125,117.35729426249999,52.0,86.0
432,116.2808242125,117.4043530625,40.0,80.0
433,116.6337652125,117.4543530375,47.0,81.0
434,117.3396472125,117.70288232499999,59.0,74.0
435,117.6925882125,118.11170564999999,58.0,76.0
436,117.6925882125,118.15582327499999,54.0,75.0
437,118.3984702125,118.55582307499999,54.0,82.0
438,117.6925882125,118.638175975,42.0,81.0
439,118.0455292125,118.6822936,49.0,73.0
440,119.10435221249999,119.48817555,56.0,71.0
441,119.10435221249999,119.78229304999999,59.0,73.0
442,119.45729321249999,119.91023416249999,51.0,75.0
443,119.10435221249999,119.97346942499999,44.0,79.0
444,119.81023421249999,120.238175175,56.0,84.0
445,120.1631752125,120.28376338749999,59.0,77.0
446,120.5161162125,121.2367040875,53.0,71.0
447,120.8690572125,121.4367039875,44.0,69.0
448,120.5161162125,121.51170395,37.0,79.0
449,121.2219982125,121.52935099999999,56.0,72.0
450,121.9278802125,122.40287997499999,52.0,68.0
451,121.9278802125,122.74846803749999,56.0,73.0
452,122.2808212125,123.1484678375,44.0,67.0
453,121.9278802125,123.1661148875,37.0,83.0
454,122.98670321249999,123.26905601249999,56.0,29.0
455,122.98670321249999,123.36758537499999,52.0,73.0
456,122.63376221249999,123.655820525,61.0,80.0
457,123.69258521249999,124.21317318749999,46.0,76.0
458,123.33964421249999,124.26464374999999,39.0,83.0
459,124.3984672125,124.567584775,51.0,77.0
460,124.0455262125,124.5955259375,54.0,78.0
461,124.7514082125,125.2043491625,56.0,72.0
462,124.7514082125,125.42052552499999,61.0,74.0
463,125.4572902125,125.861701775,56.0,82.0
464,125.1043492125,125.949937025,51.0,72.0
465,124.7514082125,125.96758407499999,44.0,81.0
466,125.8102312125,126.1367016375,61.0,70.0
467,126.1631722125,126.5249367375,60.0,75.0
468,126.1631722125,126.6925837125,56.0,71.0
469,126.86905421249999,127.073465875,56.0,75.0
470,126.51611321249999,127.14258348749999,51.0,76.0
471,126.1631722125,127.23817167499999,44.0,81.0
472,127.22199521249999,127.59405385,56.0,80.0
473,126.86905421249999,127.60581855,63.0,82.0
474,127.57493621249999,128.379347575,59.0,78.0
475,128.28081821249998,128.6749356625,52.0,65.0
476,127.9278772125,128.78817089999998,47.0,63.0
477,127.57493621249999,128.791112075,40.0,81.0
478,128.6337592125,128.9808178625,56.0,81.0
479,128.98670021249998,129.6661116375,58.0,77.0
480,129.3396412125,129.8543468375,49.0,70.0
481,128.98670021249998,129.8940527,42.0,81.0
482,129.69258221249999,129.949935025,54.0,82.0
483,130.0455232125,130.27640545,42.0,77.0
484,130.3984642125,130.785228725,59.0,75.0
485,130.3984642125,130.8543463375,56.0,71.0
486,130.7514052125,131.2190520375,51.0,75.0
487,130.3984642125,131.5455224625,44.0,79.0
488,131.1043462125,131.5543459875,56.0,83.0
489,131.4572872125,131.9514046125,51.0,74.0
490,131.8102282125,132.1190515875,63.0,82.0
491,131.8102282125,132.1278751125,59.0,70.0
492,132.5161102125,132.7631689125,56.0,70.0
493,132.5161102125,132.8572865125,59.0,73.0
494,132.16316921249998,132.9543452875,51.0,68.0
495,132.86905121249998,133.2161098625,58.0,68.0
496,133.2219922125,133.9161095125,59.0,73.0
497,133.9278742125,134.3631681125,52.0,83.0
498,133.57493321249999,134.41757984999998,47.0,70.0
499,133.2219922125,134.43228572499999,40.0,73.0
500,134.2808152125,134.63081503749999,59.0,79.0
501,134.6337562125,135.2631676625,58.0,79.0
502,135.3396382125,135.4822852,54.0,76.0
503,134.9866972125,135.58228515,49.0,68.0
504,134.6337562125,135.738167425,42.0,81.0
505,136.04552021249998,136.2661083375,54.0,75.0
506,136.04552021249998,136.7866963125,63.0,81.0
507,136.3984612125,136.83816687499998,54.0,74.0
508,136.04552021249998,137.02934324999998,47.0,75.0
509,137.1043432125,137.3764019,54.0,81.0
510,136.75140221249998,137.41022541249998,61.0,76.0
511,137.45728421249999,137.84110755,59.0,77.0
512,137.8102252125,138.17198973749998,54.0,80.0
513,137.45728421249999,138.3190484875,47.0,75.0
514,138.1631662125,138.4366954875,58.0,82.0
515,138.8690482125,139.57051844999998,52.0,75.0
516,138.8690482125,139.57787138749998,59.0,81.0
517,138.8690482125,139.6190478375,40.0,82.0
518,139.5749302125,139.6602242875,56.0,84.0
519,139.2219892125,139.6749301625,47.0,75.0
520,140.2808122125,140.46463565,55.0,71.0
521,140.2808122125,140.779341375,58.0,80.0
522,140.2808122125,140.7866943125,61.0,75.0
523,140.63375321249998,141.0484588875,55.0,74.0
524,140.2808122125,141.0719882875,43.0,81.0
525,140.9866942125,141.2749293625,61.0,81.0
526,141.6925762125,141.85728201249998,56.0,69.0
527,141.6925762125,142.10287012499998,59.0,76.0
528,141.6925762125,142.220517125,44.0,81.0
529,142.0455172125,142.267575925,56.0,82.0
530,142.3984582125,142.63522279999998,58.0,83.0
531,142.3984582125,142.69845806249998,54.0,82.0
532,142.3984582125,142.69992865,42.0,77.0
533,143.1043402125,143.25286954999999,53.0,68.0
534,143.1043402125,143.8513986625,41.0,73.0
535,143.4572812125,143.8661045375,53.0,63.0
536,143.1043402125,143.9072809875,56.0,76.0
537,143.81022221249998,144.0587515,59.0,62.0
538,144.51610421249998,145.19845681249998,56.0,70.0
539,144.51610421249998,145.4866919625,40.0,79.0
540,144.8690452125,145.549927225,47.0,78.0
541,144.51610421249998,145.585221325,59.0,74.0
542,145.5749272125,145.7661035875,56.0,71.0
543,145.9278682125,146.4513973625,54.0,76.0
544,145.9278682125,146.4955149875,58.0,74.0
545,145.22198621249998,146.5528679,64.0,77.0
546,146.6337502125,146.7837501375,54.0,74.0
547,146.2808092125,146.79404424999998,49.0,77.0
548,146.6337502125,146.8161030625,58.0,74.0
549,146.6337502125,146.83522069999998,61.0,72.0
550,145.9278682125,146.8455148125,42.0,81.0
551,147.3396322125,147.6425732375,59.0,81.0
552,147.3396322125,147.8366907875,64.0,74.0
553,147.69257321249998,147.996984825,54.0,68.0
554,148.0455142125,148.5763963,59.0,82.0
555,148.0455142125,148.60580805,64.0,83.0
556,147.3396322125,148.6249256875,35.0,80.0
557,148.39845521249998,148.8705138,54.0,80.0
558,148.7513962125,149.22933715,63.0,77.0
559,148.7513962125,149.238160675,59.0,73.0
560,149.4572782125,149.949925025,61.0,78.0
561,149.10433721249998,149.973454425,42.0,57.0
562,148.7513962125,150.0469838,35.0,76.0
563,149.4572782125,150.2822778,54.0,77.0
564,149.8102192125,150.38227775,59.0,74.0
565,150.8690422125,151.3543360875,54.0,76.0
566,151.2219832125,151.4013948875,61.0,77.0
567,151.57492421249998,151.7661005875,54.0,78.0
568,150.5161012125,151.8808064125,42.0,68.0
569,151.57492421249998,151.9749240125,59.0,82.0
570,151.9278652125,152.13815922499998,54.0,84.0
571,151.57492421249998,152.36021793749998,63.0,82.0
572,152.28080621249998,152.4602178875,54.0,83.0
573,150.1631602125,152.8190412375,35.0,77.0
574,152.28080621249998,152.92345294999998,59.0,86.0
575,152.6337472125,152.985217625,54.0,81.0
576,152.98668821249998,153.16904106249999,54.0,80.0
577,152.98668821249998,153.73374666249998,35.0,74.0
578,152.98668821249998,153.744040775,63.0,82.0
579,153.3396292125,153.7484525375,54.0,78.0
580,153.6925702125,153.849923075,59.0,85.0
581,154.3984522125,155.1660988875,59.0,76.0
582,154.3984522125,155.167569475,52.0,74.0
583,155.1043342125,155.4837457875,56.0,82.0
584,154.7513932125,155.5396281125,47.0,77.0
585,154.3984522125,155.58227515,40.0,82.0
586,155.45727521249998,155.6896280375,52.0,82.0
587,155.8102162125,156.2072748375,54.0,82.0
588,155.8102162125,156.2837453875,51.0,82.0
589,155.8102162125,156.8337451125,39.0,83.0
590,156.5160982125,156.844039225,51.0,82.0
591,156.16315721249998,156.86168627499998,46.0,75.0
592,156.5160982125,156.89992155,58.0,80.0
593,156.86903921249998,157.2396272625,61.0,82.0
594,157.2219802125,157.6219800125,59.0,82.0
595,157.9278622125,158.2719796875,56.0,77.0
596,157.9278622125,158.38227375,59.0,82.0
597,157.2219802125,158.4631560625,44.0,82.0
598,157.5749212125,158.52050897499998,51.0,80.0
599,158.9866852125,159.42639087499998,44.0,71.0
600,158.6337442125,159.45286145,64.0,79.0
601,158.6337442125,159.467567325,37.0,83.0
602,159.33962621249998,159.71168484999998,56.0,85.0
603,160.04550821249998,160.555802075,61.0,78.0
604,160.75139021249998,160.9308018875,54.0,81.0
605,160.3984492125,161.00580184999998,49.0,79.0
606,160.75139021249998,161.03080183749998,58.0,82.0
607,160.04550821249998,161.1778605875,42.0,81.0
608,161.1043312125,161.50727218749998,54.0,81.0
609,161.4572722125,161.91021316249999,59.0,83.0
610,161.8102132125,162.21315418749998,54.0,83.0
611,162.1631542125,162.5513893125,61.0,82.0
612,161.4572722125,162.702859825,47.0,82.0
613,162.5160952125,162.8131538875,54.0,81.0
614,162.8690362125,162.92785971249998,54.0,49.0
615,162.8690362125,163.3102124625,57.0,76.0
616,162.8690362125,163.42785946249998,63.0,82.0
617,163.22197721249998,163.473447675,54.0,83.0
618,163.5749182125,163.71168285,54.0,82.0
619,162.8690362125,163.867565125,47.0,81.0
620,163.5749182125,163.979329775,59.0,83.0
621,163.92785921249998,164.073447375,54.0,82.0
622,164.2808002125,164.7425646875,52.0,79.0
623,164.2808002125,165.0249174875,56.0,76.0
624,164.9866822125,165.402858475,52.0,83.0
625,164.2808002125,165.49256431249998,40.0,82.0
626,164.63374121249998,165.53079958749998,47.0,81.0
627,165.3396232125,165.6307995375,56.0,85.0
628,165.6925642125,166.1631522125,54.0,77.0
629,165.6925642125,166.4116815,58.0,76.0
630,166.3984462125,166.6249166875,54.0,84.0
631,165.6925642125,166.80285777499998,42.0,82.0
632,166.0455052125,166.80285777499998,49.0,78.0
633,167.10432821249998,167.4984456625,55.0,92.0
634,167.4572692125,167.7455043625,51.0,88.0
635,167.10432821249998,167.96903366249998,43.0,92.0
636,167.81021021249998,168.20726883749998,58.0,86.0
637,168.1631512125,168.2896217375,51.0,87.0
638,168.51609221249998,169.00873902499998,56.0,73.0
639,168.51609221249998,169.29403299999998,59.0,78.0
640,168.8690332125,169.46462115,51.0,83.0
641,169.2219742125,169.4822682,56.0,81.0
642,168.51609221249998,169.5278564125,44.0,82.0
643,169.9278562125,170.04991497499998,42.0,42.0
644,169.9278562125,170.3646207,52.0,70.0
645,169.9278562125,170.661679375,56.0,73.0
646,170.6337382125,171.0455027125,52.0,86.0
647,169.9278562125,171.179326175,40.0,71.0
648,170.2807972125,171.19991439999998,47.0,82.0
649,170.98667921249998,171.3249143375,56.0,85.0
650,171.3396202125,171.896972875,58.0,78.0
651,171.69256121249998,172.108737475,49.0,74.0
652,172.0455022125,172.167560975,58.0,76.0
653,172.0455022125,172.191090375,54.0,73.0
654,171.3396202125,172.1955021375,42.0,79.0
655,172.7513842125,172.996972325,54.0,74.0
656,172.7513842125,173.3719721375,61.0,77.0
657,173.1043252125,173.43814857499999,54.0,76.0
658,173.4572662125,173.85138366249998,59.0,76.0
659,173.8102072125,174.23226582499998,54.0,82.0
660,174.1631482125,174.47932452499998,59.0,76.0
661,174.1631482125,174.4984421625,63.0,82.0
662,174.5160892125,174.74108909999998,54.0,67.0
663,174.86903021249998,175.3719711375,54.0,51.0
664,173.1043252125,175.54255928749998,42.0,58.0
665,174.86903021249998,175.5543239875,59.0,72.0
666,172.7513842125,175.5778533875,35.0,76.0
667,175.57491221249998,175.896970875,62.0,80.0
668,175.9278532125,176.1660883875,55.0,82.0
669,175.7513827125,176.2469707,50.0,75.0
670,176.1043237125,176.496970575,62.0,76.0
671,176.4572647125,176.68814695,55.0,85.0
672,176.28079421249998,176.86020568749998,50.0,75.0
673,176.6337352125,176.8704998,62.0,79.0
674,175.57491221249998,176.8807939125,43.0,90.0
675,176.8102057125,177.279323125,67.0,86.0
676,177.16314671249998,177.5660876875,50.0,82.0
677,177.3396172125,177.579322975,55.0,87.0
678,176.9866762125,177.691087625,43.0,86.0
679,177.5160877125,177.8278522625,62.0,82.0
680,177.6925582125,177.84108755,50.0,81.0
681,177.86902871249998,178.0543227375,55.0,85.0
682,178.0454992125,178.267557925,62.0,78.0
683,178.2219697125,178.37638139999999,55.0,88.0
684,178.57491071249999,178.761675325,52.0,85.0
685,178.75138121249998,178.896969375,57.0,76.0
686,178.9278517125,179.1278516125,52.0,81.0
687,179.1043222125,179.26461625,57.0,81.0
688,179.2807927125,179.44843968749998,52.0,83.0
689,179.45726321249998,179.61608666249998,61.0,82.0
690,178.3984402125,179.685204275,45.0,85.0
691,179.6337337125,179.88667476249998,52.0,81.0
692,179.9866747125,180.1690275625,52.0,81.0
693,180.16314521249998,180.29990985,57.0,82.0
694,180.3396157125,180.502850925,52.0,81.0
695,180.5160862125,180.68667436249999,61.0,83.0
696,179.8102042125,180.714615525,45.0,95.0
697,180.6925567125,180.88814485,52.0,83.0
698,180.8690272125,181.049909475,57.0,82.0
699,181.04549771249998,181.16314471249999,52.0,86.0
700,181.5749092125,181.985203125,55.0,82.0
701,181.75137971249998,181.99402665,59.0,73.0
702,181.9278502125,182.1072618875,62.0,79.0
703,182.1043207125,182.33961471249998,55.0,84.0
704,181.2219682125,182.373438225,43.0,88.0
705,181.3984387125,182.5160852125,50.0,82.0
706,182.2807912125,182.532261675,59.0,81.0
707,182.45726171249999,182.98226144999998,62.0,80.0
708,182.9866732125,183.361673025,55.0,83.0
709,183.1631437125,183.4160847625,59.0,83.0
710,182.8102027125,183.41902593749998,50.0,75.0
711,182.63373221249998,183.4925553125,43.0,98.0
712,183.33961421249998,183.614614075,67.0,83.0
713,183.5160847125,183.69990815,55.0,90.0
714,183.6925552125,183.88814334999998,59.0,77.0
715,183.8690257125,184.0190256375,55.0,85.0
716,184.2219667125,184.40431956249998,52.0,84.0
717,184.3984372125,184.57784888749998,57.0,74.0
718,184.5749077125,184.72784881249999,52.0,82.0
719,184.7513782125,184.9057899,61.0,83.0
720,184.92784871249998,185.138142725,52.0,84.0
721,185.1043192125,185.30873087499998,57.0,84.0
722,184.04549621249998,185.338142625,45.0,90.0
723,185.2807897125,185.4954954875,52.0,86.0
724,185.63373071249998,185.8543188375,52.0,85.0
725,185.8102012125,185.96755407499998,57.0,86.0
726,185.9866717125,186.155789275,52.0,83.0
727,185.4572602125,186.2484362875,45.0,87.0
728,186.1631422125,186.3425538875,61.0,86.0
729,186.33961271249999,186.5131420375,52.0,82.0
730,186.51608321249998,186.6219655125,57.0,83.0
731,186.6925537125,186.7513772125,52.0,73.0
732,186.8690242125,187.1778475875,48.0,87.0
733,186.8690242125,187.3749063125,60.0,81.0
734,187.3984357125,187.573435625,48.0,83.0
735,187.5749062125,187.7513767125,52.0,75.0
736,187.7513767125,187.9719648375,48.0,81.0
737,187.92784721249998,188.11902358749998,52.0,76.0
738,187.22196521249998,188.1807882625,43.0,83.0
739,186.8690242125,188.18225884999998,36.0,90.0
740,188.10431771249998,188.31755289999998,48.0,73.0
741,188.2807882125,188.48814105,55.0,77.0
742,188.4572587125,188.68814095,48.0,83.0
743,188.6337292125,188.8601996875,52.0,79.0
744,188.81019971249998,188.97049375,48.0,78.0
745,188.2807882125,189.31755239999998,36.0,85.0
746,189.1631407125,189.34843473749999,48.0,84.0
747,189.3396112125,189.53519935,52.0,77.0
748,188.9866702125,189.5528464,60.0,85.0
749,189.51608171249998,189.67490516249998,48.0,83.0
750,190.0454932125,190.355787175,50.0,77.0
751,190.22196371249998,190.449904775,54.0,78.0
752,190.39843421249998,190.614610575,62.0,72.0
753,190.5749047125,190.7881399,50.0,82.0
754,190.7513752125,190.967551575,54.0,82.0
755,189.6925522125,191.0366691875,38.0,95.0
756,189.8690227125,191.03961036249999,45.0,75.0
757,190.9278457125,191.149904425,50.0,83.0
758,191.2807867125,191.4807866125,50.0,88.0
759,191.10431621249998,191.4822572,62.0,86.0
760,191.4572572125,191.673433575,54.0,77.0
761,191.6337277125,191.814609975,50.0,82.0
762,191.10431621249998,192.02931575,38.0,86.0
763,191.81019821249998,192.0469628,57.0,81.0
764,191.98666871249998,192.19108037499998,50.0,87.0
765,192.1631392125,192.355786175,54.0,82.0
766,192.3396097125,192.4984331625,50.0,83.0
767,192.8690212125,193.2101975125,48.0,82.0
768,193.0454917125,193.214609275,52.0,72.0
769,193.2219622125,193.408726825,60.0,85.0
770,193.39843271249998,193.6190208375,48.0,83.0
771,192.5160802125,193.8631383625,36.0,86.0
772,192.69255071249998,193.8925501125,43.0,81.0
773,193.7513737125,193.9954912375,48.0,68.0
774,193.5749032125,194.06460884999998,52.0,71.0
775,193.9278442125,194.20872642499998,60.0,81.0
776,194.10431471249998,194.2278440625,43.0,51.0
777,194.10431471249998,194.28078521249998,48.0,86.0
778,194.28078521249998,194.48519687499999,52.0,78.0
779,194.4572557125,194.626373275,48.0,82.0
780,194.6337262125,194.720490875,43.0,66.0
781,194.6337262125,194.8543143375,55.0,81.0
782,193.9278442125,194.9249025375,36.0,86.0
783,194.8101967125,195.0249024875,48.0,88.0
784,194.98666721249998,195.19402004999998,52.0,81.0
785,195.1631377125,195.32784351249998,48.0,92.0
786,195.3396082125,195.50137283749999,61.0,81.0
787,195.3396082125,195.5954904375,66.0,78.0
788,195.69254921249998,195.9410785,61.0,86.0
789,195.86901971249998,195.9925490625,66.0,85.0
790,195.5160787125,196.2925489125,49.0,81.0
791,196.2219607125,196.38372533749998,61.0,84.0
792,196.2219607125,196.42343119999998,66.0,86.0
793,196.2219607125,196.46313706249998,70.0,86.0
794,196.3984312125,196.58960758749998,49.0,81.0
795,195.3396082125,196.6513722625,42.0,88.0
796,196.57490171249998,196.67048989999998,61.0,83.0
797,196.7513722125,196.9528427,61.0,83.0
798,196.7513722125,196.98813679999998,66.0,81.0
799,197.1043132125,197.21019551249998,61.0,85.0
800,196.9278427125,197.338136625,49.0,85.0
801,197.28078371249998,197.514607125,61.0,87.0
802,197.28078371249998,197.52637182499998,70.0,83.0
803,197.28078371249998,197.532254175,66.0,84.0
804,197.4572542125,197.6837246875,49.0,88.0
805,196.7513722125,197.74843053749998,42.0,83.0
806,197.6337247125,197.8351952,61.0,95.0
807,197.6337247125,197.89990104999998,66.0,82.0
808,197.98666571249998,198.08372448749998,49.0,88.0
809,197.8101952125,198.09107742499998,42.0,82.0
810,198.16313621249998,198.38372433749998,61.0,82.0
811,198.16313621249998,198.4513713625,70.0,83.0
812,198.5160772125,198.62195951249998,61.0,83.0
813,198.6925477125,198.7690182625,61.0,82.0
814,198.6925477125,198.7837241375,66.0,82.0
815,198.3396067125,199.02784166249998,49.0,84.0
816,198.86901821249998,199.32342975,61.0,88.0
817,198.86901821249998,199.3307826875,66.0,88.0
818,199.2219592125,199.45284145,49.0,85.0
819,198.16313621249998,199.48078261249998,42.0,86.0
820,199.57490021249998,199.7925471625,61.0,83.0
821,199.57490021249998,199.8043118625,66.0,84.0
822,199.57490021249998,199.88519417499998,73.0,95.0
823,200.1043117125,200.1807822625,73.0,82.0
824,200.1043117125,200.1807822625,78.0,83.0
825,199.9278412125,200.2601939875,49.0,78.0
826,199.57490021249998,200.86901721249998,42.0,83.0
827,200.2807822125,200.8822525,73.0,90.0
828,200.2807822125,200.8954877875,78.0,87.0
829,200.6337232125,200.8984289625,49.0,82.0
830,200.9866642125,201.1690170625,54.0,80.0
831,200.9866642125,201.73372266249999,35.0,74.0
832,200.9866642125,201.74401677499998,63.0,82.0
833,201.3396052125,201.7484285375,54.0,78.0
834,201.6925462125,201.849899075,59.0,85.0
835,202.3984282125,203.1660748875,59.0,76.0
836,202.3984282125,203.167545475,52.0,74.0
837,203.1043102125,203.4837217875,56.0,82.0
838,202.75136921249998,203.5396041125,47.0,77.0
839,202.3984282125,203.58225115,40.0,82.0
840,203.45725121249998,203.6896040375,52.0,82.0
841,203.8101922125,204.2072508375,54.0,82.0
842,203.8101922125,204.28372138749998,51.0,82.0
843,203.8101922125,204.8337211125,39.0,83.0
844,204.5160742125,204.844015225,51.0,82.0
845,204.1631332125,204.861662275,46.0,75.0
846,204.5160742125,204.89989755,58.0,80.0
847,204.8690152125,205.2396032625,61.0,82.0
848,205.2219562125,205.6219560125,59.0,82.0
849,205.92783821249998,206.2719556875,56.0,77.0
850,205.92783821249998,206.38224975,59.0,82.0
851,205.2219562125,206.4631320625,44.0,82.0
852,205.5748972125,206.520484975,51.0,80.0
853,206.9866612125,207.42636687499999,44.0,71.0
854,206.63372021249998,207.45283745,64.0,79.0
855,206.63372021249998,207.46754332499998,37.0,83.0
856,207.33960221249998,207.71166085,56.0,85.0
857,208.04548421249999,208.55577807499998,61.0,78.0
858,208.7513662125,208.9307778875,54.0,81.0
859,208.3984252125,209.00577785,49.0,79.0
860,208.7513662125,209.03077783749998,58.0,82.0
861,208.04548421249999,209.1778365875,42.0,81.0
862,209.1043072125,209.50724818749998,54.0,81.0
863,209.4572482125,209.9101891625,59.0,83.0
864,209.81018921249998,210.21313018749998,54.0,83.0
865,210.1631302125,210.5513653125,61.0,82.0
866,209.4572482125,210.702835825,47.0,82.0
867,210.51607121249998,210.8131298875,54.0,81.0
868,210.8690122125,210.92783571249998,54.0,49.0
869,210.8690122125,211.31018846249998,57.0,76.0
870,210.8690122125,211.42783546249998,63.0,82.0
871,211.22195321249998,211.473423675,54.0,83.0
872,211.5748942125,211.71165885,54.0,82.0
873,210.8690122125,211.867541125,47.0,81.0
874,211.5748942125,211.979305775,59.0,83.0
875,211.92783521249999,212.073423375,54.0,82.0
876,212.2807762125,212.7425406875,52.0,79.0
877,212.2807762125,213.02489348749998,56.0,76.0
878,212.9866582125,213.402834475,52.0,83.0
879,212.2807762125,213.49254031249998,40.0,82.0
880,212.6337172125,213.5307755875,47.0,81.0
881,213.3395992125,213.6307755375,56.0,85.0
882,213.69254021249998,214.1631282125,54.0,77.0
883,213.69254021249998,214.4116575,58.0,76.0
884,214.39842221249998,214.6248926875,54.0,84.0
885,213.69254021249998,214.80283377499998,42.0,82.0
886,214.0454812125,214.80283377499998,49.0,78.0
887,215.10430421249998,215.4984216625,55.0,92.0
888,215.4572452125,215.7454803625,51.0,88.0
889,215.10430421249998,215.96900966249999,43.0,92.0
890,215.81018621249999,216.20724483749999,58.0,86.0
891,216.1631272125,216.2895977375,51.0,87.0
892,216.5160682125,217.008715025,56.0,73.0
893,216.5160682125,217.294009,59.0,78.0
894,216.8690092125,217.46459715,51.0,83.0
895,217.2219502125,217.4822442,56.0,81.0
896,216.5160682125,217.5278324125,44.0,82.0
897,217.9278322125,218.04989097499998,42.0,42.0
898,217.9278322125,218.3645967,52.0,70.0
899,217.9278322125,218.66165537499998,56.0,73.0
900,218.6337142125,219.0454787125,52.0,86.0
901,217.9278322125,219.179302175,40.0,71.0
902,218.28077321249998,219.1998904,47.0,82.0
903,218.98665521249998,219.3248903375,56.0,85.0
904,219.3395962125,219.896948875,58.0,78.0
905,219.69253721249999,220.108713475,49.0,74.0
906,220.0454782125,220.167536975,58.0,76.0
907,220.0454782125,220.191066375,54.0,73.0
908,219.3395962125,220.1954781375,42.0,79.0
909,220.7513602125,220.99694832499998,54.0,74.0
910,220.7513602125,221.3719481375,61.0,77.0
911,221.1043012125,221.438124575,54.0,76.0
912,221.45724221249998,221.8513596625,59.0,76.0
913,221.8101832125,222.232241825,54.0,82.0
914,222.16312421249998,222.47930052499999,59.0,76.0
915,222.16312421249998,222.4984181625,63.0,82.0
916,222.5160652125,222.7410651,54.0,67.0
917,222.86900621249998,223.3719471375,54.0,51.0
918,221.1043012125,223.5425352875,42.0,58.0
919,222.86900621249998,223.5542999875,59.0,72.0
920,220.7513602125,223.5778293875,35.0,76.0
921,223.57488821249999,223.5778293875,35.0,74.0
922,223.57488821249999,223.7572410625,54.0,80.0
923,223.57488821249999,224.332240775,63.0,82.0
924,223.9278292125,224.3366525375,54.0,78.0
925,224.2807702125,224.438123075,59.0,85.0
926,224.9866522125,225.7542988875,59.0,76.0
927,224.9866522125,225.755769475,52.0,74.0
928,225.6925342125,226.0719457875,56.0,82.0
929,225.33959321249998,226.1278281125,47.0,77.0
930,224.9866522125,226.17047515,40.0,82.0
931,226.04547521249998,226.2778280375,52.0,82.0
932,226.3984162125,226.7954748375,54.0,82.0
933,226.3984162125,226.87194538749998,51.0,82.0
934,226.3984162125,227.4219451125,39.0,83.0
935,227.1042982125,227.432239225,51.0,82.0
936,226.75135721249998,227.44988627499998,46.0,75.0
937,227.1042982125,227.48812155,58.0,80.0
938,227.45723921249999,227.8278272625,61.0,82.0
939,227.8101802125,228.2101800125,59.0,82.0
940,228.5160622125,228.8601796875,56.0,77.0
941,228.5160622125,228.97047375,59.0,82.0
942,227.8101802125,229.0513560625,44.0,82.0
943,228.1631212125,229.10870897499998,51.0,80.0
944,229.5748852125,230.01459087499998,44.0,71.0
945,229.22194421249998,230.04106145,64.0,79.0
946,229.22194421249998,230.05576732499998,37.0,83.0
947,229.92782621249998,230.29988484999998,56.0,85.0
948,230.63370821249998,231.144002075,61.0,78.0
949,231.33959021249999,231.5190018875,54.0,81.0
950,230.9866492125,231.59400184999998,49.0,79.0
951,231.33959021249999,231.61900183749998,58.0,82.0
952,230.63370821249998,231.7660605875,42.0,81.0
953,231.6925312125,232.09547218749998,54.0,81.0
954,232.0454722125,232.4984131625,59.0,83.0
955,232.3984132125,232.80135418749998,54.0,83.0
956,232.7513542125,233.1395893125,61.0,82.0
957,232.0454722125,233.291059825,47.0,82.0
958,233.10429521249998,233.4013538875,54.0,81.0
959,233.4572362125,233.51605971249998,54.0,49.0
960,233.4572362125,233.89841246249998,57.0,76.0
961,233.4572362125,234.01605946249998,63.0,82.0
962,233.81017721249998,234.061647675,54.0,83.0
963,234.1631182125,234.29988285,54.0,82.0
964,233.4572362125,234.455765125,47.0,81.0
965,234.1631182125,234.567529775,59.0,83.0
966,234.51605921249998,234.661647375,54.0,82.0
967,235.5748822125,236.01605846249998,52.0,69.0
968,234.8690002125,236.0454702125,40.0,78.0
969,235.22194121249998,236.09988195,47.0,77.0
970,235.9278232125,236.25576422499998,56.0,71.0
971,236.2807642125,237.15870495,58.0,76.0
972,236.2807642125,237.1645873,54.0,70.0
973,236.2807642125,237.2116461,42.0,81.0
974,237.69252821249998,238.12929269999998,56.0,74.0
975,237.69252821249998,238.4660572375,59.0,76.0
976,238.0454692125,238.473410175,51.0,74.0
977,238.39841021249998,238.85870409999998,56.0,81.0
978,239.10429221249998,239.59105667499998,56.0,68.0
979,239.10429221249998,239.62193901249998,63.0,76.0
980,238.7513512125,239.7984095125,51.0,69.0
981,237.69252821249998,239.87488006249998,44.0,79.0
982,240.5160562125,240.9175266,52.0,73.0
983,240.5160562125,241.27634995,56.0,72.0
984,240.86899721249998,241.50429101249998,47.0,74.0
985,240.5160562125,241.5175263,40.0,81.0
986,241.2219382125,241.52340865,52.0,81.0
987,241.9278202125,242.35870235,54.0,68.0
988,241.9278202125,242.6366433875,58.0,68.0
989,242.6337022125,243.07634904999998,54.0,82.0
990,242.28076121249998,243.0807608125,49.0,73.0
991,241.9278202125,243.08958433749999,42.0,73.0
992,242.98664321249998,243.42487828749998,58.0,82.0
993,243.6925252125,244.0895838375,54.0,74.0
994,243.3395842125,244.1528191,59.0,78.0
995,244.0454662125,244.4351719,61.0,70.0
996,244.3984072125,244.8425246375,54.0,68.0
997,244.75134821249998,245.467524325,63.0,82.0
998,243.3395842125,245.5954654375,47.0,82.0
999,245.45723021249998,245.626347775,59.0,76.0
1000,246.16311221249998,246.90870007499998,56.0,68.0
1001,246.86899421249998,247.2719351875,52.0,82.0
1002,246.16311221249998,247.34546456249998,40.0,76.0
1003,246.5160532125,247.4778174375,47.0,70.0
1004,247.2219352125,247.62340559999998,56.0,81.0
1005,247.5748762125,248.37193463749998,58.0,76.0
1006,248.2807582125,248.4454640125,54.0,67.0
1007,247.5748762125,248.58369923749999,42.0,72.0
1008,247.9278172125,248.6925227125,49.0,74.0
1009,248.9866402125,249.39399294999998,56.0,67.0
1010,248.9866402125,249.71899278749999,59.0,68.0
1011,249.33958121249998,249.80134568749997,51.0,67.0
1012,248.9866402125,249.8351692,44.0,77.0
1013,249.6925222125,249.87634565,56.0,67.0
1014,250.3984042125,251.4219331125,53.0,70.0
1015,250.3984042125,251.43516839999998,37.0,69.0
1016,250.3984042125,251.88663876249998,56.0,69.0
1017,251.8101682125,251.88663876249998,56.0,71.0
1018,252.1631092125,252.7881089,44.0,56.0
1019,251.8101682125,252.802814775,37.0,81.0
1020,252.51605021249998,253.0248734875,52.0,81.0
1021,252.8689912125,253.2660498375,56.0,75.0
1022,253.05428523749998,253.52487323749997,54.0,66.0
1023,253.47634384999998,254.52487273749998,49.0,67.0
1024,253.11899108749998,254.53075508749998,58.0,70.0
1025,253.84840248749998,254.53516685,54.0,81.0
1026,253.18075576249998,254.5454609625,61.0,73.0
1027,253.143991075,254.55869625,42.0,81.0
1028,255.31898998749998,255.59693102499998,55.0,73.0
1029,254.9807548625,255.6131074875,48.0,67.0
1030,254.60281387499998,257.161636125,36.0,72.0
1031,254.8219314125,257.23663608749996,43.0,75.0
1032,255.1572253625,257.2866360625,52.0,73.0
1033,255.77781328749998,257.28810665,48.0,69.0
1034,256.138107225,257.34545956249997,55.0,71.0
1035,255.5366369375,257.5528124,60.0,80.0
1036,257.95869454999996,258.40281197499996,50.0,75.0
1037,258.332223775,258.5807530625,57.0,72.0
1038,258.1336944625,258.62340009999997,54.0,79.0
1039,258.51457662499996,258.967517575,62.0,81.0
1040,258.7248706375,259.00575284999996,50.0,83.0
1041,257.7660475875,259.1410469,45.0,62.0
1042,258.891047025,259.1660468875,54.0,82.0
1043,259.09251751249997,259.349870325,57.0,74.0
1044,257.55134181249997,259.3572232625,38.0,70.0
1045,259.49692907499997,259.77045835,50.0,69.0
1046,259.7160466125,260.026340575,45.0,64.0
1047,259.3101644625,260.026340575,62.0,81.0
1048,259.9395759125,260.1057523,50.0,67.0
1049,260.1072228875,260.3454580625,54.0,69.0
1050,260.7072225875,261.5278104125,36.0,80.0
1051,261.11163415,261.5278104125,48.0,72.0
1052,260.9101636625,261.543986875,43.0,73.0
1053,261.4689869125,261.6704574,55.0,73.0
1054,261.29986935,261.696927975,52.0,69.0
1055,261.646928,262.01310428749997,60.0,73.0
1056,261.82928085,262.2278100625,48.0,71.0
1057,262.008692525,262.2895747375,52.0,74.0
1058,262.19398655,262.4336923125,55.0,75.0
1059,262.38222175,262.76751567499997,60.0,77.0
1060,262.555751075,262.8513391625,48.0,76.0
1061,262.76016273749997,263.049868475,52.0,69.0
1062,262.973397925,263.185162525,55.0,66.0
1063,263.379280075,263.5645741,48.0,58.0
1064,263.1998684,263.79986809999997,60.0,64.0
1065,264.1836914375,264.4631030625,50.0,67.0
1066,264.408691325,264.8631028625,57.0,72.0
1067,264.6278088625,264.8836910875,54.0,72.0
1068,264.83957346249997,265.3631026125,62.0,78.0
1069,265.085161575,265.64104365,50.0,69.0
1070,265.56457309999996,265.9778081875,57.0,67.0
1071,263.9542797875,266.04104344999996,45.0,65.0
1072,265.29398499999996,266.061631675,54.0,75.0
1073,265.826337675,266.13516104999997,62.0,62.0
1074,263.7395740125,266.1513375125,38.0,76.0
1075,267.1160429125,267.5410427,48.0,66.0
1076,267.25280755,267.8219249125,52.0,58.0
1077,267.3866310125,267.826336675,55.0,64.0
1078,267.585160325,268.06310126249997,60.0,68.0
1079,267.7719249375,268.2704541,48.0,68.0
1080,266.97045475,268.69104212499997,43.0,75.0
1081,267.996924825,268.749865625,52.0,61.0
1082,266.8116313,268.8116303,36.0,77.0
1083,268.2366305875,268.932218475,55.0,66.0
1084,268.7410421,269.0101596125,48.0,57.0
1085,268.48810105,272.638098975,60.0,65.0
