,start,end,pitch,velocity
0,25.95446696666667,26.08028384375,67.0,84.0
1,26.150545216666668,26.290314683333335,67.0,82.0
2,26.348108579166666,26.6932207,75.0,85.0
3,26.744409579166668,26.980538925,74.0,94.0
4,27.140710579166665,28.24806225416667,75.0,99.0
5,28.317416954166667,28.581932554166666,67.0,87.0
6,28.704512954166667,29.28354405416667,67.0,87.0
7,29.478704954166666,29.76902695416667,67.0,87.0
8,29.86580095416667,30.133407939583336,70.0,87.0
9,30.251997410416667,31.32411032916667,70.0,92.0
10,31.405840910416668,31.583725116666667,72.0,87.0
11,31.79045541041667,32.09333932916667,68.0,92.0
12,32.17506991041667,32.28083889791667,65.0,85.0
13,32.367377160416666,32.50840247708334,65.0,85.0
14,32.559684410416665,32.85135040625,74.0,100.0
15,32.94429891041667,33.235964906250004,72.0,99.0
16,33.32891341041667,34.42666729583333,74.0,90.0
17,34.48275691041667,34.75358962083334,65.0,85.0
18,34.867371410416666,35.3657677,65.0,84.0
19,35.44429316041667,35.606151762500005,65.0,81.0
20,35.63660041041667,35.92986896666667,70.0,84.0
21,36.02121491041667,36.32089370833334,68.0,89.0
22,36.40582941041667,37.35294261666667,68.0,84.0
23,37.559672910416666,37.7215315125,68.0,97.0
24,37.751980160416664,37.88018499375,70.0,83.0
25,37.94428741041667,38.20069707708333,67.0,83.0
26,38.32890191041667,38.4330683375,67.0,84.0
27,38.52120916041667,38.6734524,67.0,83.0
28,38.713516410416666,39.042041295833336,75.0,85.0
29,39.09813091041667,39.320886808333334,74.0,90.0
30,39.48274541041667,40.52601224166667,75.0,90.0
31,40.82889616041667,41.01479316875,75.0,86.0
32,41.02120341041667,41.4907536125,67.0,88.0
33,41.59812516041667,41.748765839583335,67.0,83.0
34,41.79043241041667,42.09331632916667,72.0,85.0
35,42.17504691041667,42.540430685416666,75.0,88.0
36,42.559661410416666,43.61094104375,79.0,85.0
37,43.71350491041667,44.01638882916667,77.0,89.0
38,44.09811941041667,44.88978425625,77.0,88.0
39,45.251962910416665,45.55965451041667,75.0,89.0
40,45.63657741041667,46.39619104791667,75.0,87.0
41,46.79042091041667,47.09811251041667,75.0,84.0
42,47.17503541041667,47.84170054375,74.0,92.0
43,47.944264410416665,48.24714832916667,77.0,85.0
44,48.32887891041667,48.45868630416667,75.0,84.0
45,48.52118616041667,48.99394148333333,75.0,86.0
46,49.09810791041667,50.3753485625,74.0,90.0
47,50.636565910416664,50.735924656250006,67.0,83.0
48,50.82887316041667,50.97470615833333,67.0,82.0
49,51.02118041041667,51.32726945,75.0,89.0
50,51.405794910416674,51.60932008333334,74.0,90.0
51,51.79040941041667,52.78399686875,75.0,89.0
52,52.944252910416665,53.16861136875001,67.0,85.0
53,53.32886741041667,53.99392998333333,67.0,85.0
54,54.09809641041667,54.384954725,67.0,85.0
55,54.48271091041667,54.758351302083334,70.0,86.0
56,54.86732541041667,55.918605043750006,70.0,90.0
57,56.02116891041667,56.308027225000004,72.0,82.0
58,56.40578341041667,56.70065452708334,68.0,79.0
59,56.79039791041667,56.90578226041667,65.0,83.0
60,56.98270516041667,57.114115114583335,65.0,83.0
61,57.17501241041667,57.45065280208334,74.0,94.0
62,57.55962691041667,57.78879305,72.0,84.0
63,57.944241410416666,58.9041751,74.0,90.0
64,59.098084910416674,59.34487921458334,65.0,78.0
65,59.48269941041667,59.82244221875,65.0,84.0
66,59.86731391041667,60.24872328958334,65.0,83.0
67,60.25192841041667,60.55801745,70.0,89.0
68,60.636542910416665,60.892952577083335,68.0,84.0
69,61.02115741041667,61.79038641041667,68.0,87.0
70,61.79038641041667,62.17500091041667,68.0,84.0
71,62.17500091041667,62.55961541041667,70.0,83.0
72,62.55961541041667,62.80480715416667,67.0,81.0
73,62.94422991041667,63.05801170000001,67.0,84.0
74,63.136537160416665,63.290382960416665,67.0,84.0
75,63.328844410416664,63.64134369166666,75.0,84.0
76,63.71345891041666,63.928202006250004,74.0,84.0
77,64.09807341041667,65.07403270416667,75.0,87.0
78,65.25191691041667,65.84165914375001,67.0,85.0
79,66.02114591041666,66.308004225,67.0,89.0
80,66.40576041041668,66.69101616458333,72.0,89.0
81,66.79037491041667,67.11409211458333,75.0,84.0
82,67.17498941041667,68.24710232916667,79.0,87.0
83,68.32883291041666,68.60447330208333,77.0,85.0
84,68.71344741041666,69.54036858541667,77.0,86.0
85,69.86729091041667,70.10767497291667,75.0,87.0
86,70.25190541041667,71.67655295,75.0,94.0
87,71.76446850208335,72.43582362708334,74.0,100.0
88,72.59247315625001,72.91696146666668,74.0,94.0
89,72.97930158541668,73.38211466041668,75.0,90.0
90,73.35494076250001,73.87444175208334,74.0,99.0
91,73.87923714583334,75.02213932291667,72.0,86.0
92,75.24272743541667,75.54004184791667,72.0,90.0
93,75.62635893541668,75.91887795416667,74.0,97.0
94,76.00999043541668,76.32169102916667,75.0,94.0
95,76.39362193541668,77.77659706041668,75.0,94.0
96,77.91900199791668,78.52976095208335,77.0,87.0
97,78.67849499791669,78.96172259583335,74.0,99.0
98,79.05824149791668,79.43957027500001,72.0,86.0
99,79.43798799791668,80.15792407083335,70.0,88.0
100,80.19748099791668,80.51235413750001,67.0,88.0
101,80.57722749791668,80.85887281875002,70.0,89.0
102,80.95697399791668,81.58672027708334,72.0,89.0
103,81.71646699791668,81.97596043958335,72.0,94.0
104,82.09621349791668,82.40792208333335,74.0,94.0
105,82.47595999791668,83.93323719166668,75.0,88.0
106,83.99494599791669,84.69747702291669,74.0,100.0
107,84.75443899791668,85.32880557916668,75.0,89.0
108,85.51393199791669,88.38260035000002,80.0,100.0
109,88.55190399791668,90.19272533333334,79.0,86.0
110,90.45063649791668,90.70063627708335,74.0,94.0
111,90.83038299791667,91.07721822291668,75.0,89.0
112,91.21012949791668,91.45400952291669,77.0,85.0
113,91.59077783125002,91.85159181458336,79.0,87.0
114,91.97245683125001,92.18556093958335,75.0,85.0
115,92.35413583125002,92.64675639791669,79.0,90.0
116,92.73581483125002,92.84077655625002,75.0,85.0
117,92.92665433125002,93.36399485208335,79.0,88.0
118,93.49917283125002,93.80769668958335,75.0,89.0
119,93.88085183125001,94.15756910625002,77.0,85.0
120,94.26253083125002,94.53129646041668,79.0,90.0
121,94.64420983125002,95.79401781875002,82.0,94.0
122,95.78924683125003,96.05483180208336,80.0,92.0
123,96.17092583125002,97.40343093541668,80.0,90.0
124,97.69764183125002,97.96958811875002,77.0,85.0
125,98.07932083125002,98.43873522291669,75.0,90.0
126,98.46099983125002,98.81087224791669,74.0,99.0
127,98.84267883125003,98.96990516458335,72.0,84.0
128,99.03351833125002,99.47562983958335,70.0,94.0
129,99.60603683125002,99.90660904375002,70.0,92.0
130,99.98771583125001,100.27397508125001,72.0,85.0
131,100.36905748958335,100.64999155208336,74.0,97.0
132,100.74784498958336,101.76425811458336,80.0,100.0
133,101.88420748958336,102.05781842708336,79.0,88.0
134,102.07360123958335,102.18250264583335,77.0,88.0
135,102.26299498958336,102.57865123958337,79.0,89.0
136,102.64178248958336,102.92429483333336,67.0,85.0
137,103.02056998958336,103.26046873958336,72.0,92.0
138,103.39935748958337,103.61716030208336,74.0,88.0
139,103.77814498958335,104.09695780208335,75.0,89.0
140,104.15693248958335,104.43155342708336,74.0,90.0
141,104.53571998958336,104.87820702083336,75.0,89.0
142,104.91450748958336,105.02814373958336,74.0,85.0
143,105.10390123958337,105.60421639583336,75.0,90.0
144,105.67208248958336,105.98616045833336,72.0,89.0
145,106.05086998958336,106.34127373958336,74.0,94.0
146,106.42965748958336,106.73268748958336,75.0,87.0
147,106.80844498958336,107.87062827083336,79.0,85.0
148,107.94480748958335,108.13420123958336,77.0,83.0
149,108.13420123958336,108.26046373958336,75.0,68.0
150,108.32359498958336,109.31791217708336,77.0,84.0
151,109.27056373958337,109.31791217708336,77.0,85.0
152,109.45995748958336,109.59095483333336,79.0,87.0
153,109.64935123958335,109.78350514583336,77.0,90.0
154,109.83874498958336,110.64366842708336,75.0,94.0
155,110.78571373958336,110.90566311458336,75.0,85.0
156,110.97510748958337,111.14556186458336,77.0,85.0
157,111.16450123958336,111.28445061458336,75.0,89.0
158,111.35389498958335,112.11146998958336,74.0,97.0
159,112.11146998958336,112.49025748958336,74.0,100.0
160,112.49025748958336,112.82011827083336,75.0,87.0
161,112.86904498958336,113.24783248958336,74.0,94.0
162,113.24783248958336,114.38419498958336,72.0,85.0
163,142.48308306041667,142.73308283958335,74.0,94.0
164,142.86282956041666,143.10966478541667,75.0,89.0
165,143.24257606041667,143.48624673125,77.0,85.0
166,143.62232256041668,143.88181600208333,79.0,87.0
167,144.00206906041666,144.21409418958334,75.0,85.0
168,144.38364106041666,144.67851217708332,79.0,90.0
169,144.76825556041666,144.87402454791666,75.0,85.0
170,144.96056281041666,145.401266925,79.0,88.0
171,145.53748456041666,145.84838128125,75.0,89.0
172,145.92209906041666,146.20094457291665,77.0,85.0
173,146.30671356041665,146.57754627083332,79.0,90.0
174,146.69132806041665,147.84997924166666,82.0,94.0
175,147.84517156041667,148.11279915,80.0,92.0
176,148.22978606041667,149.47177038333334,80.0,90.0
177,149.76824406041666,150.04228189166668,77.0,85.0
178,150.15285856041666,150.51503721458334,75.0,90.0
179,150.53747306041666,150.89003635208334,74.0,99.0
180,150.92208756041666,151.05029239375,72.0,84.0
181,151.11439481041666,151.55990660625,70.0,94.0
182,151.69131656041665,151.99420047916666,70.0,92.0
183,152.07550296666665,152.36176221666665,72.0,85.0
184,152.45718196666667,152.74026055833332,74.0,97.0
185,152.83886096666666,153.86303295,80.0,100.0
186,153.98389796666666,154.15883417499998,79.0,88.0
187,154.17473746666664,154.28447017916665,77.0,88.0
188,154.36557696666665,154.6836428,79.0,89.0
189,154.74725596666664,155.0319248875,67.0,85.0
190,155.12893496666666,155.370665,72.0,92.0
191,155.51061396666665,155.73007939166666,74.0,88.0
192,155.89229296666664,156.21353945833332,75.0,89.0
193,156.27397196666666,156.55068924166665,74.0,90.0
194,156.65565096666666,157.00075239583333,75.0,89.0
195,157.03732996666665,157.15183366666665,74.0,85.0
196,157.22816946666666,157.7323038125,75.0,90.0
197,157.80068796666666,158.11716347083333,72.0,89.0
198,158.18236696666665,158.47498753333332,74.0,94.0
199,158.56404596666667,158.86938916666665,75.0,87.0
200,158.94572496666666,160.01601649583333,79.0,85.0
201,160.09076196666666,160.28160146666664,77.0,83.0
202,160.28160146666664,160.40882779999998,75.0,68.0
203,160.47244096666665,161.47434834166665,77.0,84.0
204,161.42663846666665,161.47434834166665,77.0,85.0
205,161.61747796666666,161.7494752875,79.0,87.0
206,161.80831746666667,161.94349544583332,77.0,90.0
207,161.99915696666665,162.81022484166667,75.0,94.0
208,162.95335446666667,163.0742194833333,75.0,85.0
209,163.14419396666665,163.31594951666665,77.0,85.0
210,163.33503346666666,163.45589848333333,75.0,89.0
211,163.52587296666667,164.28923096666665,74.0,97.0
212,164.28923096666665,164.67090996666667,74.0,100.0
213,164.67090996666667,165.00328876249998,75.0,87.0
214,165.05258896666666,165.43426796666665,74.0,94.0
215,165.43426796666665,166.57930496666665,72.0,85.0
216,166.96098396666665,167.25678519166667,72.0,90.0
217,167.34266296666667,167.63369320416666,74.0,97.0
218,167.72434196666666,168.03445615416666,75.0,94.0
219,168.10602096666665,169.48960734166667,75.0,94.0
220,169.63273696666664,170.24660402499998,77.0,87.0
221,170.39546690416665,170.67869450208332,74.0,99.0
222,170.77521340416666,171.15654218125,72.0,86.0
223,171.15495990416667,171.87489597708333,70.0,88.0
224,171.91445290416667,172.22932604375,67.0,88.0
225,172.29419940416665,172.575844725,70.0,89.0
226,172.67394590416666,173.30369218333334,72.0,89.0
227,173.43343890416665,173.69293234583333,72.0,94.0
228,173.81318540416666,174.12489398958334,74.0,94.0
229,174.19293190416667,175.65020909791667,75.0,88.0
230,175.71191790416665,176.41444892916667,74.0,100.0
231,176.47141090416667,177.04577748541666,75.0,89.0
232,177.23090390416667,180.09957225624999,80.0,100.0
233,180.26887590416666,181.90969723958332,79.0,86.0
234,182.16760840416666,182.41793271666666,74.0,94.0
235,182.54934267083334,182.79934209583334,75.0,89.0
236,182.93395717083334,183.180751475,77.0,85.0
237,183.31857167083334,183.58139157916668,79.0,87.0
238,183.70318617083333,183.91792926666668,75.0,85.0
239,184.08780067083333,184.3826717875,79.0,90.0
240,184.47241517083333,184.57818415833333,75.0,85.0
241,184.66472242083333,185.10542653541665,79.0,88.0
242,185.24164417083333,185.55254089166667,75.0,89.0
243,185.62625867083332,185.90510418333332,77.0,85.0
244,186.01087317083332,186.28170588125,79.0,90.0
245,186.39548767083332,187.55413885208333,82.0,94.0
246,187.54933117083334,187.81695876041667,80.0,92.0
247,187.93394567083334,189.1713188125,80.0,90.0
248,189.46552970833335,189.73747599583334,77.0,85.0
249,189.84720870833334,190.2066231,75.0,90.0
250,190.22888770833333,190.578760125,74.0,99.0
251,190.61056670833335,190.7377930416667,72.0,84.0
252,190.80140620833333,191.2420200291667,70.0,94.0
253,191.37176675,191.67081711875002,70.0,92.0
254,191.75151325000002,192.03632312500002,72.0,85.0
255,192.13125975000003,192.41290507083335,74.0,97.0
256,192.51100625,193.52999269166668,80.0,100.0
257,193.65024575,193.8242962291667,79.0,88.0
258,193.84011900000002,193.94929611875003,77.0,88.0
259,194.02999225000002,194.34644766666668,79.0,89.0
260,194.40973875,194.6929663479167,67.0,85.0
261,194.78948525,195.02999136666668,72.0,92.0
262,195.16923175000002,195.38758598750002,74.0,88.0
263,195.54897825,195.86859822083335,75.0,89.0
264,195.92872475000001,196.20404096250002,74.0,90.0
265,196.30847125000003,196.65182537708336,75.0,89.0
266,196.68821775,196.80214170000002,74.0,85.0
267,196.878091,197.37967283541667,75.0,90.0
268,197.44771075000003,197.76258388958334,72.0,89.0
269,197.82745725,198.11859623333334,74.0,94.0
270,198.20720375000002,198.51100095,75.0,87.0
271,198.58695025000003,199.65182272708336,79.0,85.0
272,199.72618975,199.916063,77.0,83.0
273,199.916063,200.0426451666667,75.0,68.0
274,200.10593625,201.1027708125,77.0,84.0
275,201.0553025,201.1027708125,77.0,85.0
276,201.24517575000002,201.37650474791667,79.0,87.0
277,201.43504900000002,201.56954255208336,77.0,90.0
278,201.62492225000003,202.43188356250002,75.0,94.0
279,202.57428850000002,202.69454155833336,75.0,85.0
280,202.76416175000003,202.93504767500002,77.0,85.0
281,202.954035,203.07428805833334,75.0,89.0
282,203.14390825,203.90340125,74.0,97.0
283,203.90340125,204.28314775,74.0,100.0
284,204.28314775,204.61384366041668,75.0,87.0
285,204.66289425000002,205.04264075,74.0,94.0
286,205.04264075,206.20168026458336,72.0,85.0
