,start,end,pitch,velocity
0,2.4406995145833332,2.94710860625,60.0,83.0
1,2.8253140145833333,3.371787116666667,55.0,76.0
2,3.2099285145833334,3.7692221,63.0,71.0
3,3.5945430145833335,4.442297475,67.0,76.0
4,3.9791575145833336,4.628194483333333,63.0,76.0
5,2.4406995145833332,4.838129897916667,48.0,80.0
6,4.748386514583333,4.886206710416666,55.0,69.0
7,4.748386514583333,5.5480641625,63.0,69.0
8,4.748386514583333,5.549666722916667,60.0,76.0
9,4.748386514583333,5.565692327083333,67.0,58.0
10,5.133001014583334,5.6682561937500004,55.0,50.0
11,6.286844514583334,6.85094578125,60.0,72.0
12,6.671459014583333,6.865368825,56.0,71.0
13,7.056073514583334,7.565687727083334,65.0,74.0
14,7.056073514583334,7.628187583333333,53.0,67.0
15,5.517615514583333,8.104148027083333,41.0,81.0
16,5.902230014583333,8.110558268750001,48.0,67.0
17,8.979146014583334,9.549657522916666,58.0,72.0
18,9.748375014583333,9.887797770833334,62.0,67.0
19,9.363760514583333,9.88940033125,53.0,74.0
20,8.594531514583334,10.749975275,46.0,83.0
21,10.132989514583334,11.017602864583333,53.0,68.0
22,10.132989514583334,11.121769291666666,58.0,70.0
23,10.132989514583334,11.214717795833334,65.0,75.0
24,11.671447514583333,12.565676227083333,39.0,81.0
25,12.056062014583334,12.596124875000001,46.0,54.0
26,12.825291014583334,12.945483045833333,58.0,69.0
27,12.440676514583334,12.958303529166667,55.0,71.0
28,13.209905514583333,13.756378616666668,55.0,74.0
29,13.209905514583333,14.00477548125,59.0,78.0
30,13.979134514583334,14.280415872916667,55.0,84.0
31,13.594520014583333,14.434261672916668,50.0,76.0
32,13.209905514583333,14.514389693750001,43.0,78.0
33,14.748363514583334,15.229131639583334,60.0,76.0
34,14.748363514583334,15.326887825,63.0,72.0
35,15.132978014583333,15.560861645833334,55.0,71.0
36,15.517592514583335,15.959899189583334,60.0,71.0
37,15.902207014583334,16.559256785416668,55.0,52.0
38,16.286821514583334,16.910217516666666,63.0,79.0
39,14.748363514583334,17.19226815,48.0,81.0
40,17.056050514583333,17.275601291666668,60.0,64.0
41,17.056050514583333,17.282011533333336,55.0,71.0
42,17.825279514583332,18.483931845833332,56.0,72.0
43,17.825279514583332,18.59130339375,60.0,77.0
44,18.594508514583335,19.416622008333334,53.0,79.0
45,18.979123014583333,19.67783935625,60.0,79.0
46,19.363737514583335,20.250368127083334,65.0,83.0
47,17.825279514583332,20.271281877083332,41.0,79.0
48,18.209894014583334,20.284151877083335,48.0,71.0
49,20.905129377083334,21.490714377083332,56.0,68.0
50,20.905129377083334,21.733635627083334,60.0,79.0
51,20.905129377083334,21.875205627083332,63.0,70.0
52,20.905129377083334,21.944381877083334,44.0,76.0
53,21.677329377083332,21.944381877083334,56.0,71.0
54,21.291229377083333,21.955643127083334,51.0,69.0
55,22.449529377083334,23.004279702083334,55.0,70.0
56,22.449529377083334,23.266245852083333,59.0,75.0
57,22.836103902083334,23.471614377083334,50.0,66.0
58,22.449529377083334,23.570255952083333,43.0,76.0
59,23.224201902083333,23.822519652083333,55.0,78.0
60,24.000397902083332,24.137849277083333,36.0,74.0
61,24.000397902083332,24.339983652083333,55.0,71.0
62,24.000397902083332,24.598715652083335,60.0,72.0
63,25.170153966666668,25.446297502083333,62.0,66.0
64,24.77799746666667,26.5347003,55.0,72.0
65,24.388495902083335,26.546259079166667,48.0,78.0
66,25.562310466666666,26.978887670833334,60.0,66.0
67,25.562310466666666,26.978887670833334,63.0,71.0
68,27.930320954166667,28.14322375416667,60.0,65.0
69,27.537011579166666,28.354513654166666,43.0,72.0
70,27.140710579166665,28.562577754166668,36.0,76.0
71,28.317416954166667,28.60935185416667,62.0,78.0
72,28.704512954166667,28.89160935416667,60.0,79.0
73,28.704512954166667,28.906125454166666,63.0,82.0
74,31.021226410416666,31.3946229875,55.0,84.0
75,31.405840910416668,31.631801929166667,56.0,92.0
76,30.63661191041667,32.308082425,48.0,68.0
77,30.251997410416667,32.57250489375,41.0,82.0
78,31.79045541041667,32.590133058333336,53.0,78.0
79,31.79045541041667,32.631799629166665,60.0,84.0
80,34.09814241041667,34.534038843750004,58.0,74.0
81,34.48275691041667,34.63980783125,60.0,85.0
82,33.713527910416666,35.296857602083335,53.0,65.0
83,33.32891341041667,35.48115205,46.0,76.0
84,35.63660041041667,35.774420606250004,53.0,73.0
85,34.867371410416666,35.88820239583333,58.0,72.0
86,34.867371410416666,35.98275346041667,62.0,80.0
87,36.40582941041667,36.87057193125,55.0,71.0
88,36.40582941041667,37.05646893958333,39.0,70.0
89,36.79044391041667,37.130186718750004,46.0,70.0
90,36.40582941041667,37.18146865208333,58.0,73.0
91,37.17505841041667,37.651018854166665,55.0,84.0
92,37.559672910416666,37.684672622916665,58.0,84.0
93,37.94428741041667,38.46832466666667,55.0,77.0
94,37.94428741041667,38.654221675,59.0,77.0
95,38.32890191041667,38.75518298125,50.0,71.0
96,37.94428741041667,38.780823947916666,43.0,82.0
97,38.713516410416666,38.8176828375,55.0,89.0
98,39.48274541041667,39.958705854166666,63.0,74.0
99,39.48274541041667,40.09492348958334,67.0,75.0
100,39.86735991041667,40.18626943333334,55.0,71.0
101,39.48274541041667,40.20550015833334,48.0,83.0
102,40.251974410416665,40.52601224166667,60.0,84.0
103,40.63658891041667,40.870562731250004,62.0,84.0
104,41.02120341041667,41.5676765125,63.0,83.0
105,41.02120341041667,41.615753325,60.0,75.0
106,43.32889041041667,43.69908186666667,55.0,82.0
107,43.71350491041667,43.97632481875,56.0,84.0
108,42.944275910416664,44.59972082083333,48.0,70.0
109,42.559661410416666,44.71831029166667,41.0,84.0
110,44.09811941041667,44.73433589583333,53.0,76.0
111,44.09811941041667,44.884976575,60.0,83.0
112,45.63657741041667,46.14779418333333,56.0,72.0
113,45.63657741041667,46.38657568541667,44.0,81.0
114,46.02119191041667,46.39779360833333,51.0,71.0
115,45.63657741041667,46.40901153125,63.0,77.0
116,46.40580641041667,46.840100283333335,56.0,88.0
117,46.79042091041667,46.90580526041667,63.0,80.0
118,47.17503541041667,47.675034260416666,50.0,69.0
119,47.17503541041667,47.960290014583336,54.0,72.0
120,47.55964991041667,48.301635383333334,45.0,71.0
121,47.17503541041667,48.31926354791667,38.0,82.0
122,47.944264410416665,48.476314468750004,50.0,85.0
123,49.48272241041667,49.77599096666667,60.0,76.0
124,49.86733691041667,50.02118271041667,62.0,75.0
125,49.09810791041667,50.07246464375,50.0,76.0
126,48.71349341041667,50.09490048958334,43.0,85.0
127,50.251951410416666,50.889770456250005,59.0,79.0
128,50.251951410416666,51.17662877083333,55.0,72.0
129,51.02118041041667,51.17983389166667,59.0,52.0
130,51.02118041041667,51.50194853541667,67.0,77.0
131,51.405794910416674,51.74714027916667,65.0,82.0
132,50.636565910416664,51.787204289583336,50.0,69.0
133,50.251951410416666,51.796819652083336,43.0,81.0
134,51.79040941041667,51.93463984791667,36.0,76.0
135,51.79040941041667,52.4426515,60.0,66.0
136,51.79040941041667,52.46829246666667,63.0,76.0
137,51.79040941041667,52.54361280625,67.0,71.0
138,52.944252910416665,53.11572687500001,60.0,76.0
139,53.32886741041667,53.548418187500005,67.0,77.0
140,53.32886741041667,53.55002074791667,63.0,76.0
141,52.55963841041667,54.18944235416667,55.0,79.0
142,52.17502391041667,54.277583177083336,48.0,74.0
143,54.09809641041667,54.4426469,63.0,73.0
144,54.09809641041667,54.49553139375,67.0,77.0
145,54.48271091041667,54.95867135416667,60.0,69.0
146,54.86732541041667,55.12373507708334,65.0,74.0
147,54.86732541041667,55.14777348333334,68.0,69.0
148,55.636554410416664,56.00674586666667,55.0,75.0
149,56.02116891041667,56.23751456666667,56.0,84.0
150,56.40578341041667,56.51315495833333,56.0,71.0
151,56.40578341041667,56.57405225416667,53.0,73.0
152,55.25193991041667,56.6061034625,48.0,64.0
153,56.40578341041667,56.60770602291667,60.0,69.0
154,56.79039791041667,57.3368710125,48.0,73.0
155,54.86732541041667,57.40578111041667,41.0,83.0
156,57.17501241041667,57.99552334375,60.0,80.0
157,57.17501241041667,57.99872846458334,65.0,82.0
158,58.71347041041667,59.192635975,58.0,75.0
159,59.098084910416674,59.22949486458334,60.0,79.0
160,58.328855910416664,59.67981434166667,53.0,79.0
161,59.48269941041667,59.8176345375,62.0,71.0
162,59.48269941041667,59.95705729375,58.0,74.0
163,57.944241410416666,60.3657102,46.0,83.0
164,59.86731391041667,60.3657102,53.0,72.0
165,60.25192841041667,60.506735516666666,58.0,79.0
166,60.25192841041667,60.538786725,65.0,83.0
167,61.02115741041667,61.43141287708333,55.0,73.0
168,61.02115741041667,61.583656116666674,58.0,68.0
169,61.02115741041667,61.8560913875,39.0,84.0
170,61.40577191041667,61.89615539791667,46.0,65.0
171,62.17500091041667,62.32243646875,58.0,89.0
172,61.79038641041667,62.33365439166667,55.0,85.0
173,62.55961541041667,63.04358865625001,55.0,84.0
174,62.55961541041667,63.05160145833334,59.0,89.0
175,62.94422991041667,63.388139145833335,50.0,78.0
176,62.55961541041667,63.42820315625001,43.0,83.0
177,63.328844410416664,63.49711325416666,55.0,81.0
178,63.328844410416664,63.503523495833335,59.0,88.0
179,63.328844410416664,63.562818231250006,62.0,85.0
180,64.09807341041667,64.21506032083333,36.0,80.0
181,64.09807341041667,64.75512318125,63.0,76.0
182,64.09807341041667,64.78236670833334,60.0,76.0
183,64.09807341041667,64.84166144375,67.0,75.0
184,64.48268791041667,65.51153169791667,48.0,74.0
185,64.86730241041667,65.51313425833334,55.0,84.0
186,65.25191691041667,65.53877522500001,62.0,83.0
187,65.63653141041667,66.1637737875,63.0,77.0
188,65.63653141041667,66.19742755625,60.0,77.0
189,66.02114591041666,66.4906961125,55.0,75.0
190,65.63653141041667,66.56601645208333,48.0,85.0
191,66.40576041041668,66.5964651,60.0,80.0
192,66.40576041041668,66.6445419125,63.0,84.0
193,66.40576041041668,66.81120819583333,67.0,81.0
194,66.79037491041667,67.09005370833333,60.0,63.0
195,67.17498941041667,67.3753094625,41.0,83.0
196,67.17498941041667,67.71344971041667,65.0,75.0
197,67.17498941041667,67.89293647708334,68.0,72.0
198,67.55960391041667,68.54998624791666,53.0,78.0
199,67.94421841041667,68.56921697291666,60.0,83.0
200,68.32883291041666,68.63171682916666,67.0,78.0
201,68.71344741041666,68.98748524166668,68.0,83.0
202,68.71344741041666,69.26312563333333,65.0,76.0
203,69.09806191041667,69.51472761875,60.0,73.0
204,68.71344741041666,69.54998394791667,53.0,83.0
205,69.48267641041667,69.64293245208333,68.0,86.0
206,69.48267641041667,69.65254781458333,65.0,76.0
207,69.48267641041667,69.65575293541667,72.0,83.0
208,70.25190541041667,70.64293015208334,63.0,78.0
209,70.25190541041667,70.65094295416667,60.0,80.0
210,70.25190541041667,70.68139160208334,56.0,72.0
211,70.63651991041667,71.02113441041666,51.0,71.0
212,70.25190541041667,71.03555745416666,44.0,83.0
213,71.02113441041666,71.18139045208333,56.0,83.0
214,71.02113441041666,71.27113383541666,63.0,72.0
215,71.02113441041666,71.346454175,60.0,79.0
216,71.02113441041666,71.39613354791666,68.0,79.0
217,71.40574891041668,71.5099153375,56.0,86.0
218,71.79004393541668,72.24560634166667,59.0,80.0
219,71.79004393541668,72.28237102708334,55.0,83.0
220,72.17367543541667,72.67399485000001,50.0,72.0
221,71.79004393541668,72.73633496875001,43.0,83.0
222,72.55730693541668,72.94413536458335,59.0,85.0
223,72.55730693541668,72.97770312083334,62.0,83.0
224,72.94093843541667,73.03524784583334,55.0,83.0
225,73.32456993541668,73.44765170833334,36.0,81.0
226,73.32456993541668,73.63147513541668,55.0,83.0
227,73.32456993541668,73.69541371875,60.0,83.0
228,74.09183293541668,74.74240802083334,55.0,84.0
229,73.70820143541667,74.76158959583334,48.0,85.0
230,74.47546443541667,74.77118038333334,62.0,84.0
231,74.85909593541668,75.13243337916667,60.0,81.0
232,74.85909593541668,75.16440267083334,63.0,80.0
233,75.24272743541667,75.39777850000002,60.0,79.0
234,75.24272743541667,75.39937696458334,67.0,78.0
235,75.62635893541668,76.36165264375,72.0,70.0
236,75.62635893541668,76.37603882500001,60.0,78.0
237,74.85909593541668,76.38083421875001,48.0,87.0
238,76.00999043541668,76.40001579375001,55.0,83.0
239,76.39362193541668,76.74688260833334,63.0,80.0
240,76.39362193541668,76.87316131041668,56.0,83.0
241,76.77725343541667,77.36362274166667,51.0,74.0
242,77.15950899791667,77.43324293333335,60.0,83.0
243,76.39362193541668,77.54874916041668,44.0,90.0
244,77.15950899791667,77.55982510000001,63.0,77.0
245,77.53925549791668,77.87311596250001,56.0,86.0
246,77.91900199791668,78.14052078958335,56.0,75.0
247,77.91900199791668,78.23071058333335,60.0,77.0
248,77.91900199791668,78.28609028125001,63.0,77.0
249,78.67849499791669,78.82406448958335,56.0,82.0
250,78.67849499791669,78.89843151250001,63.0,83.0
251,78.29874849791668,78.91425428333335,51.0,66.0
252,78.67849499791669,79.01710229375001,60.0,85.0
253,78.67849499791669,79.03925417291669,68.0,82.0
254,79.05824149791668,79.16741861666668,56.0,92.0
255,79.43798799791668,79.85570914791668,58.0,83.0
256,79.43798799791668,79.87944330416668,55.0,84.0
257,79.81773449791667,80.35570870625001,50.0,83.0
258,79.43798799791668,80.44431622291668,43.0,84.0
259,80.19748099791668,80.46963265625001,58.0,85.0
260,80.19748099791668,80.52026552291667,62.0,85.0
261,80.57722749791668,81.02184735833335,55.0,85.0
262,80.95697399791668,81.04558151458335,36.0,83.0
263,80.95697399791668,81.19906239166669,60.0,83.0
264,80.95697399791668,81.26868258333334,63.0,83.0
265,81.33672049791667,81.84621371875001,48.0,80.0
266,81.71646699791668,81.88893520000002,60.0,84.0
267,81.71646699791668,82.33671961458334,63.0,87.0
268,81.71646699791668,82.47279544375002,67.0,84.0
269,82.09621349791668,82.50127643125002,60.0,87.0
270,82.47595999791668,82.50127643125002,60.0,79.0
271,82.47595999791668,82.85254194375001,63.0,75.0
272,82.47595999791668,82.85728877500001,56.0,75.0
273,82.47595999791668,83.37469338125001,44.0,87.0
274,82.85570649791669,83.38260476666667,51.0,67.0
275,83.23545299791668,83.40317436875002,56.0,83.0
276,83.23545299791668,83.60254128125001,68.0,80.0
277,83.23545299791668,83.60412355833334,60.0,83.0
278,83.23545299791668,83.61519949791668,63.0,81.0
279,83.61519949791668,83.71013612291668,56.0,94.0
280,83.99494599791669,84.02659153958335,56.0,69.0
281,83.99494599791669,84.10095856250001,41.0,84.0
282,83.99494599791669,84.23386983750001,53.0,75.0
283,83.99494599791669,84.35728745000002,60.0,78.0
284,84.37469249791668,84.96329957291668,53.0,84.0
285,85.51393199791669,85.63893188750001,43.0,83.0
286,85.51393199791669,86.13102006041667,72.0,83.0
287,85.51393199791669,86.13418461458335,67.0,83.0
288,86.27342499791668,86.87469028958334,67.0,86.0
289,86.27342499791668,86.89051306041668,72.0,92.0
290,86.65317149791667,86.96646236041668,62.0,75.0
291,85.89367849791668,86.97912057708335,55.0,80.0
292,87.03291799791668,87.31614559583335,67.0,84.0
293,87.03291799791668,87.4996897375,72.0,84.0
294,87.41266449791668,87.57405676041668,67.0,73.0
295,87.03291799791668,87.92373999583334,62.0,85.0
296,87.79241099791668,87.99810701875002,67.0,92.0
297,87.03291799791668,88.01076523541668,55.0,87.0
298,87.79241099791668,88.21171442500001,72.0,97.0
299,88.17215749791669,88.42215727708334,67.0,83.0
300,88.36203074791668,88.51234707083334,72.0,79.0
301,88.55190399791668,88.79715694583335,71.0,89.0
302,88.55190399791668,88.81772654791668,67.0,85.0
303,88.93165049791668,89.43006777916668,50.0,83.0
304,89.31139699791667,89.45380193541668,55.0,84.0
305,89.31139699791667,89.53608034375002,59.0,84.0
306,89.69114349791668,89.93481416875001,62.0,83.0
307,89.50127024791668,89.98386475833334,50.0,84.0
308,88.55190399791668,90.00918119166668,43.0,83.0
309,89.88101674791668,90.04873811875001,55.0,74.0
310,90.07088999791668,90.45063649791668,43.0,86.0
311,90.45063649791668,90.80981339583334,43.0,78.0
312,90.83038299791667,91.17215484791669,45.0,83.0
313,90.07088999791668,91.41584162291669,59.0,87.0
314,90.07088999791668,91.41902228125002,55.0,84.0
315,90.07088999791668,91.42538359791669,62.0,88.0
316,90.07088999791668,91.43969656041669,67.0,84.0
317,91.21012949791668,91.50490005625002,47.0,83.0
318,91.59077783125002,92.09491217708336,63.0,84.0
319,91.59077783125002,92.12671876041668,67.0,84.0
320,91.59077783125002,92.20782554791668,60.0,83.0
321,91.97245683125001,92.51157841875002,55.0,78.0
322,92.35413583125002,92.73104384375002,60.0,84.0
323,92.35413583125002,92.84554754375002,63.0,87.0
324,92.35413583125002,92.99980947291668,67.0,85.0
325,92.92665433125002,93.04910967708335,60.0,83.0
326,92.73581483125002,93.29879135625002,55.0,71.0
327,93.11749383125002,93.49599217291669,72.0,85.0
328,93.11749383125002,93.53097941458336,67.0,84.0
329,93.11749383125002,93.60572488541669,63.0,83.0
330,93.11749383125002,93.65979607708336,60.0,82.0
331,93.49917283125002,93.93492302291669,55.0,77.0
332,91.59077783125002,93.99058454375002,48.0,88.0
333,93.88085183125001,94.03193310208336,60.0,85.0
334,93.88085183125001,94.11622054791668,63.0,87.0
335,93.88085183125001,94.18778536041668,67.0,84.0
336,94.64420983125002,94.74917155625002,41.0,84.0
337,94.26253083125002,94.99249191875002,60.0,87.0
338,94.64420983125002,95.05928574375002,65.0,82.0
339,94.64420983125002,95.11653759375002,68.0,84.0
340,95.02588883125001,95.12607956875001,55.0,47.0
341,95.40756783125002,95.75744024791669,65.0,81.0
342,95.40756783125002,95.78288551458336,68.0,81.0
343,95.40756783125002,95.80992111041668,72.0,84.0
344,95.78924683125003,96.07709641041669,60.0,71.0
345,95.98008633125002,96.09299970208335,65.0,75.0
346,95.02588883125001,96.09459003125002,53.0,72.0
347,96.17092583125002,96.59872437708336,65.0,83.0
348,96.17092583125002,96.64007293541668,68.0,83.0
349,96.55260483125002,97.02334226458335,60.0,72.0
350,96.17092583125002,97.08695543125002,53.0,84.0
351,96.93428383125001,97.16806221875002,65.0,85.0
352,96.93428383125001,97.28892723541668,68.0,88.0
353,97.31596283125002,97.70877413541669,67.0,89.0
354,97.69764183125002,97.81850684791668,65.0,85.0
355,98.07932083125002,98.60412945625002,53.0,70.0
356,98.46099983125002,98.89834035208335,58.0,85.0
357,97.69764183125002,99.07486688958335,46.0,90.0
358,98.46099983125002,99.07804754791668,62.0,86.0
359,98.84267883125003,99.14643170208335,53.0,66.0
360,99.03351833125002,99.14961236041668,58.0,77.0
361,99.22435783125002,99.66646933958336,58.0,80.0
362,99.22435783125002,99.67283065625001,65.0,83.0
363,99.22435783125002,99.68078230208336,62.0,84.0
364,99.79687633125002,99.89706706875002,58.0,76.0
365,99.60603683125002,100.1419777604167,53.0,72.0
366,99.22435783125002,100.23421685208335,46.0,88.0
367,100.36905748958335,100.47795889583335,46.0,89.0
368,99.98771583125001,100.58212545833337,62.0,85.0
369,99.98771583125001,100.63894358333336,58.0,85.0
370,100.74784498958336,101.07139264583336,55.0,79.0
371,100.74784498958336,101.19607686458336,58.0,78.0
372,100.74784498958336,101.61116483333336,39.0,97.0
373,101.12663248958336,101.64588702083336,46.0,79.0
374,101.50541998958336,101.89841202083336,55.0,86.0
375,101.88420748958336,101.97101295833336,39.0,73.0
376,101.50541998958336,102.11463655208335,58.0,94.0
377,101.50541998958336,102.13199764583337,63.0,92.0
378,102.07360123958335,102.32139139583336,55.0,84.0
379,102.64178248958336,102.89746405208336,55.0,97.0
380,102.83117623958336,102.96848670833336,59.0,85.0
381,102.45238873958336,103.10737545833337,50.0,83.0
382,102.26299498958336,103.20207233333336,43.0,86.0
383,103.02056998958336,103.45459733333335,55.0,86.0
384,103.02056998958336,103.46248873958336,59.0,84.0
385,103.02056998958336,103.47984983333336,62.0,92.0
386,103.39935748958337,103.54140280208335,50.0,89.0
387,103.77814498958335,104.30213436458335,63.0,77.0
388,103.77814498958335,104.30529092708336,60.0,76.0
389,104.15693248958335,104.68723498958336,55.0,77.0
390,104.53571998958336,104.87662873958335,67.0,84.0
391,104.53571998958336,104.88136358333335,63.0,90.0
392,104.53571998958336,104.88609842708335,60.0,87.0
393,103.77814498958335,105.10390123958337,48.0,92.0
394,104.91450748958336,105.17334561458335,55.0,69.0
395,105.10390123958337,105.22858545833336,60.0,85.0
396,105.29329498958336,105.69260014583335,60.0,83.0
397,105.29329498958336,105.73205717708336,63.0,87.0
398,105.29329498958336,105.78414045833335,48.0,87.0
399,105.67208248958336,105.78729702083336,55.0,76.0
400,105.29329498958336,105.80465811458336,67.0,85.0
401,105.86147623958335,106.13136233333336,60.0,85.0
402,106.05086998958336,106.18502389583335,36.0,83.0
403,106.05086998958336,106.36652623958337,72.0,87.0
404,106.05086998958336,106.41545295833336,67.0,85.0
405,106.05086998958336,106.43912717708336,63.0,84.0
406,106.42965748958336,106.52277608333335,60.0,85.0
407,106.80844498958336,107.22984608333336,60.0,83.0
408,106.80844498958336,107.23142436458336,56.0,76.0
409,106.80844498958336,107.25667686458335,53.0,79.0
410,107.18723248958337,107.74436577083335,48.0,74.0
411,107.56601998958335,107.93849436458336,56.0,89.0
412,107.56601998958335,107.99215592708336,60.0,90.0
413,106.80844498958336,108.10263561458336,41.0,85.0
414,107.94480748958335,108.17523655208336,48.0,73.0
415,108.13420123958336,108.68344311458335,53.0,83.0
416,108.32359498958336,108.75288748958336,65.0,84.0
417,108.32359498958336,108.75920061458336,60.0,86.0
418,108.32359498958336,108.77498342708336,56.0,81.0
419,108.89177623958336,109.00067764583336,53.0,77.0
420,109.08116998958336,109.18060170833336,53.0,77.0
421,108.70238248958336,109.21848045833336,48.0,73.0
422,108.32359498958336,109.26109405208337,41.0,85.0
423,109.08116998958336,109.28161170833336,56.0,88.0
424,109.08116998958336,109.28792483333336,60.0,90.0
425,109.08116998958336,109.29581623958336,65.0,85.0
426,109.45995748958336,109.59253311458336,67.0,77.0
427,109.45995748958336,109.61936389583336,55.0,79.0
428,109.83874498958336,110.21121936458336,68.0,72.0
429,109.83874498958336,110.35957780208336,56.0,84.0
430,110.21753248958336,110.62788561458336,51.0,69.0
431,109.83874498958336,110.66418608333336,44.0,84.0
432,110.59631998958336,110.73363045833337,63.0,76.0
433,110.59631998958336,110.73836530208337,60.0,83.0
434,110.59631998958336,110.77308748958336,56.0,84.0
435,110.59631998958336,110.79360514583335,68.0,79.0
436,111.35389498958335,111.83053592708336,55.0,75.0
437,111.35389498958335,111.84316217708336,59.0,76.0
438,111.35389498958335,111.84631873958335,62.0,77.0
439,111.73268248958335,112.19196233333336,50.0,68.0
440,111.35389498958335,112.30402030208336,43.0,83.0
441,112.11146998958336,112.35452530208336,55.0,84.0
442,112.11146998958336,112.39713889583336,59.0,83.0
443,112.11146998958336,112.43343936458336,62.0,84.0
444,112.49025748958336,112.55654530208336,55.0,56.0
445,112.86904498958336,112.95269389583336,36.0,83.0
446,112.86904498958336,113.13577452083337,55.0,83.0
447,112.86904498958336,113.22415827083336,60.0,79.0
448,113.81601373958335,113.99751608333335,60.0,74.0
449,114.00540748958336,114.29107639583336,62.0,77.0
450,114.19480123958336,114.31001577083336,63.0,88.0
451,113.62661998958336,114.56096248958336,55.0,84.0
452,114.38419498958336,114.61304577083337,63.0,87.0
453,114.38419498958336,114.66355077083335,60.0,83.0
454,114.38419498958336,114.69985123958335,67.0,87.0
455,113.24783248958336,115.89894867708337,48.0,79.0
456,114.76298248958337,115.89894867708337,55.0,83.0
457,115.53128930208337,115.90709730208337,60.0,62.0
458,115.14419330208337,115.90709730208337,63.0,83.0
459,115.14419330208337,115.93806207708336,67.0,84.0
460,115.14419330208337,115.95761877708337,72.0,83.0
461,115.92013510208336,116.43512820208336,60.0,83.0
462,116.31126910208337,116.87258014375004,55.0,76.0
463,116.7049178291667,117.28426582708337,63.0,71.0
464,117.1033233291667,117.98705279375004,67.0,76.0
465,117.5028037916667,118.1814226354167,63.0,76.0
466,115.92013510208336,118.40092650833337,48.0,80.0
467,118.3070927916667,118.45119457083337,55.0,69.0
468,118.3070927916667,119.14321823125003,63.0,69.0
469,118.3070927916667,119.14489383333337,60.0,76.0
470,118.3070927916667,119.1616498541667,67.0,58.0
471,118.7092372916667,119.26888838750003,55.0,50.0
472,119.9089104541667,120.4855810541667,60.0,72.0
473,120.3020949541667,120.5003254729167,56.0,71.0
474,120.6933508229167,121.20758067291669,65.0,74.0
475,120.6933508229167,121.2706465979167,53.0,67.0
476,119.1113817916667,121.75090541875002,41.0,81.0
477,119.51209300833337,121.75732390208336,48.0,67.0
478,122.62702839375002,123.19567232708336,58.0,72.0
479,123.39287314375002,123.53123178125003,62.0,67.0
480,123.01119414375002,123.53282211041669,53.0,74.0
481,122.24191939375002,124.3868288729167,46.0,83.0
482,123.77455214375003,124.65241384375003,53.0,68.0
483,123.77455214375003,124.75578523958336,58.0,70.0
484,123.77455214375003,124.84802433125002,65.0,75.0
485,125.30126814375002,126.18867181875002,39.0,81.0
486,125.68294714375003,126.21888807291668,46.0,54.0
487,126.44630514375002,126.56557983125002,58.0,69.0
488,126.06462614375002,126.57830246458336,55.0,71.0
489,126.82798414375003,127.37028638958336,55.0,74.0
490,126.82798414375003,127.61678741041669,59.0,78.0
491,127.59134214375003,127.89032402708335,55.0,84.0
492,127.20966314375002,128.04299562708334,50.0,76.0
493,126.82798414375003,128.1225120854167,43.0,78.0
494,128.31653224375003,128.86996679375002,60.0,77.0
495,128.31812257291668,129.0146867479167,63.0,84.0
496,129.2818620479167,129.48701451041669,63.0,90.0
497,129.10374518125002,129.5347243854167,67.0,85.0
498,129.47111121875002,129.72874454375003,60.0,83.0
499,128.3324355354167,129.73192520208335,48.0,84.0
500,129.6492280854167,129.9450293104167,63.0,82.0
501,130.2265175729167,130.7322422479167,59.0,85.0
502,130.62887085208337,130.85946858125,67.0,85.0
503,130.8181200229167,131.0852953229167,63.0,72.0
504,129.8496095604167,131.15845046458335,47.0,84.0
505,131.0280434729167,131.2665686916667,59.0,85.0
506,128.72206618125003,131.42954323125002,55.0,84.0
507,131.1950280354167,131.59251777083335,63.0,83.0
508,131.74441637083336,132.34409938541668,58.0,75.0
509,132.14631475000002,132.52447897291668,67.0,78.0
510,132.32352978333336,132.58935233333335,63.0,70.0
511,131.37891036458336,132.76814964375004,46.0,85.0
512,132.52447897291668,132.78239013750002,58.0,78.0
513,132.7190990541667,132.9944152666667,63.0,85.0
514,133.05454179583336,133.65106025625002,57.0,78.0
515,133.44852878958335,133.67954124375,63.0,90.0
516,133.2649846479167,133.68903490625001,60.0,79.0
517,133.8535917229167,134.20960406666669,63.0,84.0
518,132.87732676250002,134.25074327083337,45.0,83.0
519,133.65738936458337,134.32985712500002,67.0,84.0
520,134.05928774375002,134.38840137708337,60.0,75.0
521,134.24124960833336,134.4184646416667,57.0,74.0
522,135.1779576416667,135.43428652916668,63.0,76.0
523,134.80928708125003,135.44536246875003,56.0,84.0
524,134.98491983750003,135.50390672083336,60.0,83.0
525,135.38207138541668,135.7760583791667,68.0,86.0
526,135.56561552708337,135.91055193125,63.0,84.0
527,135.75865333125003,135.9374506416667,60.0,82.0
528,134.6368188791667,135.96276707500002,51.0,71.0
529,134.44852790625004,135.96434935208336,44.0,92.0
530,136.34409585208334,136.78871571250002,50.0,86.0
531,136.53396910208335,136.78871571250002,54.0,90.0
532,136.72384235208335,136.96434846875002,57.0,86.0
533,136.15422260208337,136.96751302291668,45.0,80.0
534,135.96434935208336,137.05612053958336,38.0,87.0
535,136.91371560208336,137.32827219791668,62.0,83.0
536,137.10358885208336,137.49757584583335,57.0,83.0
537,137.29346210208337,137.51339861666668,50.0,94.0
538,137.86308185208335,138.15168018125001,55.0,85.0
539,138.05295510208336,138.39000699375003,62.0,83.0
540,138.24571388958336,138.42405368125003,59.0,86.0
541,138.44026638958337,138.71588243125004,55.0,87.0
542,138.63481888958336,138.92643868125,67.0,84.0
543,137.67320860208335,138.9522118479167,50.0,83.0
544,137.48333535208334,138.9699309,43.0,87.0
545,138.82937138958334,139.13906730625,55.0,83.0
546,139.02308805625,139.25504655625002,59.0,85.0
547,139.02308805625,139.2614898479167,62.0,83.0
548,139.02308805625,139.28243054583334,43.0,83.0
549,139.40968555625003,139.49022670208336,55.0,76.0
550,139.40968555625003,139.54821632708334,59.0,77.0
551,139.40968555625003,139.58848690000002,62.0,82.0
552,139.40968555625003,139.59654101458335,43.0,83.0
553,139.79628305625002,139.9718627541667,59.0,84.0
554,139.79628305625002,139.98152769166668,67.0,78.0
555,139.79628305625002,139.99119262916668,55.0,83.0
556,139.79628305625002,139.99280345208334,62.0,85.0
557,139.79628305625002,140.02018744166668,50.0,87.0
558,139.79628305625002,140.02179826458334,43.0,85.0
559,140.18288055625,140.33590873333335,59.0,84.0
560,140.18288055625,140.34074120208334,50.0,83.0
561,140.18288055625,140.34074120208334,62.0,84.0
562,140.18288055625,140.34718449375,67.0,79.0
563,140.18288055625,140.35201696250002,43.0,83.0
564,140.18288055625,140.36490354583336,55.0,77.0
565,140.56931636875,140.69479886875,59.0,80.0
566,140.56931636875,140.69801636875002,62.0,77.0
567,140.56931636875,140.70766886875,55.0,79.0
568,140.56931636875,140.72053886875,50.0,85.0
569,140.56931636875,140.72858261875,67.0,83.0
570,140.56931636875,140.73823511875,43.0,85.0
571,140.95541636875,141.14657409583333,59.0,83.0
572,140.95541636875,141.14817051875,62.0,79.0
573,140.95541636875,141.1529597875,50.0,85.0
574,140.95541636875,141.15615263333333,55.0,80.0
575,140.95541636875,141.15774905625,67.0,79.0
576,140.95541636875,141.17052043958333,43.0,85.0
577,141.33974126875,141.51854063541666,50.0,85.0
578,141.33974126875,141.52013705833335,59.0,88.0
579,141.33974126875,141.52811917291666,62.0,89.0
580,141.33974126875,141.52811917291666,67.0,83.0
581,141.33974126875,141.53131201875001,55.0,85.0
582,141.33974126875,141.5361012875,43.0,85.0
583,141.72288276875,141.905551925,50.0,85.0
584,141.72288276875,141.9150455875,43.0,84.0
585,141.72288276875,141.94985568333334,59.0,88.0
586,141.72288276875,141.95618479166666,55.0,85.0
587,141.72288276875,141.95618479166666,67.0,82.0
588,141.72288276875,141.95776706875,62.0,89.0
589,142.10333656041666,142.36283000208334,50.0,90.0
590,142.10333656041666,142.37707049583332,55.0,85.0
591,142.10333656041666,142.38023505,43.0,87.0
592,142.10333656041666,142.38023505,59.0,88.0
593,142.10333656041666,142.38339960416667,62.0,87.0
594,142.10333656041666,142.38339960416667,67.0,84.0
595,143.62232256041668,144.12390439583334,63.0,84.0
596,143.62232256041668,144.1555499375,67.0,84.0
597,143.62232256041668,144.23624606875,60.0,83.0
598,144.00206906041666,144.54229454166668,55.0,78.0
599,144.38364106041666,144.76344787916668,60.0,84.0
600,144.38364106041666,144.87883222916668,63.0,87.0
601,144.38364106041666,145.03428058958332,67.0,85.0
602,144.96056281041666,145.0839599625,60.0,83.0
603,144.76825556041666,145.33556194791666,55.0,71.0
604,145.15287006041666,145.53427943958334,72.0,85.0
605,145.15287006041666,145.56953576875,67.0,84.0
606,145.15287006041666,145.64485610833333,63.0,83.0
607,145.15287006041666,145.69934316249999,60.0,82.0
608,145.53748456041666,145.97658611458334,55.0,77.0
609,143.62232256041668,146.03267572916667,48.0,88.0
610,145.92209906041666,146.0743423,60.0,85.0
611,145.92209906041666,146.15927800208334,63.0,87.0
612,145.92209906041666,146.23139322083333,67.0,84.0
613,146.69132806041665,146.79709704791668,41.0,84.0
614,146.30671356041665,147.04228879166666,60.0,87.0
615,146.69132806041665,147.10959632916666,65.0,82.0
616,146.69132806041665,147.16728850416666,68.0,84.0
617,147.07594256041668,147.17690386666666,55.0,47.0
618,147.46055706041668,147.81312035208333,65.0,81.0
619,147.46055706041668,147.83876131875,68.0,81.0
620,147.46055706041668,147.86600484583334,72.0,84.0
621,147.84517156041667,148.13523499583334,60.0,71.0
622,148.03747881041667,148.1512606,65.0,75.0
623,147.07594256041668,148.15286316041667,53.0,72.0
624,148.22978606041667,148.6608748125,65.0,83.0
625,148.22978606041667,148.70254138333334,68.0,83.0
626,148.61440056041667,149.08875844375,60.0,72.0
627,148.22978606041667,149.15286086041667,53.0,84.0
628,148.99901506041667,149.23459144166665,65.0,85.0
629,148.99901506041667,149.35638603333334,68.0,88.0
630,149.38362956041667,149.77946198333333,67.0,89.0
631,149.76824406041666,149.89003865208332,65.0,85.0
632,150.15285856041666,150.68170349791666,53.0,70.0
633,150.53747306041666,150.97817717499998,58.0,85.0
634,149.76824406041666,151.15606138125,46.0,90.0
635,150.53747306041666,151.15926650208334,62.0,86.0
636,150.92208756041666,151.2281766,53.0,66.0
637,151.11439481041666,151.23138172083333,58.0,77.0
638,151.30670206041665,151.75221385625,58.0,80.0
639,151.30670206041665,151.75862409791665,65.0,83.0
640,151.30670206041665,151.7666369,62.0,84.0
641,151.88362381041668,151.98458511666666,58.0,76.0
642,151.69131656041665,152.2297648958333,53.0,72.0
643,151.30670206041665,152.32200398749998,46.0,88.0
644,152.45718196666667,152.56691467916664,46.0,89.0
645,152.07550296666665,152.67187640416665,62.0,85.0
646,152.07550296666665,152.72912825416665,58.0,85.0
647,152.83886096666666,153.16487844583332,55.0,79.0
648,152.83886096666666,153.29051445,58.0,78.0
649,152.83886096666666,153.70877102083332,39.0,97.0
650,153.22053996666665,153.7437582625,46.0,79.0
651,153.60221896666667,153.99821092916665,55.0,86.0
652,153.98389796666666,154.07136607083334,39.0,73.0
653,153.60221896666667,154.21608602499998,58.0,94.0
654,153.60221896666667,154.23357964583332,63.0,92.0
655,154.17473746666664,154.42441914583333,55.0,84.0
656,154.74725596666664,155.00488929166664,55.0,97.0
657,154.93809546666665,155.07645410416666,59.0,85.0
658,154.55641646666666,155.2164030708333,50.0,83.0
659,154.36557696666665,155.31182282083333,43.0,86.0
660,155.12893496666666,155.56627548749998,55.0,86.0
661,155.12893496666666,155.57422713333332,59.0,84.0
662,155.12893496666666,155.59172075416666,62.0,92.0
663,155.51061396666665,155.65374359166665,50.0,89.0
664,155.89229296666664,156.42028224999999,63.0,77.0
665,155.89229296666664,156.42346290833333,60.0,76.0
666,156.27397196666666,156.80832256666665,55.0,77.0
667,156.65565096666666,156.99916206666666,67.0,84.0
668,156.65565096666666,157.00393305416665,63.0,90.0
669,156.65565096666666,157.00870404166665,60.0,87.0
670,155.89229296666664,157.22816946666666,48.0,92.0
671,157.03732996666665,157.29814395,55.0,69.0
672,157.22816946666666,157.35380547083332,60.0,85.0
673,157.41900896666667,157.8213622458333,60.0,83.0
674,157.41900896666667,157.86112047499998,63.0,87.0
675,157.41900896666667,157.91360133749998,48.0,87.0
676,157.80068796666666,157.91678199583333,55.0,76.0
677,157.41900896666667,157.93427561666667,67.0,85.0
678,157.99152746666667,158.26347375416665,60.0,85.0
679,158.18236696666665,158.31754494583333,36.0,83.0
680,158.18236696666665,158.5004328,72.0,87.0
681,158.18236696666665,158.54973300416665,67.0,85.0
682,158.18236696666665,158.57358794166666,63.0,84.0
683,158.56404596666667,158.65787538749998,60.0,85.0
684,158.94572496666666,159.37034285416667,60.0,83.0
685,158.94572496666666,159.3719331833333,56.0,76.0
686,158.94572496666666,159.39737845,53.0,79.0
687,159.32740396666665,159.8887901625,48.0,74.0
688,159.70908296666664,160.08440065,56.0,89.0
689,159.70908296666664,160.13847184166664,60.0,90.0
690,158.94572496666666,160.24979488333332,41.0,85.0
691,160.09076196666666,160.32295002499998,48.0,73.0
692,160.28160146666664,160.83503601666666,53.0,83.0
693,160.47244096666665,160.9050105,65.0,84.0
694,160.47244096666665,160.91137181666664,60.0,86.0
695,160.47244096666665,160.92727510833333,56.0,81.0
696,161.04495946666665,161.15469217916666,53.0,77.0
697,161.23579896666666,161.33598970416665,53.0,77.0
698,160.85411996666664,161.37415760416667,48.0,73.0
699,160.47244096666665,161.41709649166665,41.0,85.0
700,161.23579896666666,161.4377707708333,56.0,88.0
701,161.23579896666666,161.44413208749998,60.0,90.0
702,161.23579896666666,161.45208373333332,65.0,85.0
703,161.61747796666666,161.75106561666666,67.0,77.0
704,161.61747796666666,161.7781012125,55.0,79.0
705,161.99915696666665,162.37447465,68.0,72.0
706,161.99915696666665,162.52396559166667,56.0,84.0
707,162.38083596666667,162.79432154999998,51.0,69.0
708,161.99915696666665,162.83089912083332,44.0,84.0
709,162.76251496666666,162.90087360416666,63.0,76.0
710,162.76251496666666,162.90564459166666,60.0,83.0
711,162.76251496666666,162.94063183333333,56.0,84.0
712,162.76251496666666,162.96130611249998,68.0,79.0
713,163.52587296666667,164.006152375,55.0,75.0
714,163.52587296666667,164.0188750083333,59.0,76.0
715,163.52587296666667,164.02205566666666,62.0,77.0
716,163.90755196666666,164.37033775416666,50.0,68.0
717,163.52587296666667,164.48325112499998,43.0,83.0
718,164.28923096666665,164.5341416583333,55.0,84.0
719,164.28923096666665,164.57708054583333,59.0,83.0
720,164.28923096666665,164.61365811666667,62.0,84.0
721,164.67090996666667,164.73770379166666,55.0,56.0
722,165.05258896666666,165.1368764125,36.0,83.0
723,165.05258896666666,165.32135459583333,55.0,83.0
724,165.05258896666666,165.41041302916665,60.0,79.0
725,166.00678646666665,166.18967432083332,60.0,74.0
726,166.19762596666666,166.4854755458333,62.0,77.0
727,166.38846546666664,166.50455949583332,63.0,88.0
728,165.81594696666664,166.75742183333332,55.0,84.0
729,166.57930496666665,166.80990269583333,63.0,87.0
730,166.57930496666665,166.86079322916666,60.0,83.0
731,166.57930496666665,166.89737079999998,67.0,87.0
732,165.43426796666665,168.0853466875,48.0,79.0
733,166.96098396666665,168.0853466875,55.0,83.0
734,167.72434196666666,168.09329833333334,60.0,62.0
735,167.34266296666667,168.09329833333334,63.0,83.0
736,167.34266296666667,168.12351458749998,67.0,84.0
737,167.34266296666667,168.1425985375,72.0,83.0
738,168.10602096666665,168.4574837125,63.0,80.0
739,168.10602096666665,168.58311971666666,56.0,83.0
740,168.48769996666667,169.07453142916665,51.0,74.0
741,168.86937896666666,169.1445059125,60.0,83.0
742,168.10602096666665,169.26059994166667,44.0,90.0
743,168.86937896666666,169.27173224583333,63.0,77.0
744,169.25105796666665,169.5866174208333,56.0,86.0
745,169.63273696666664,169.85538305,56.0,75.0
746,169.63273696666664,169.9460318125,60.0,77.0
747,169.63273696666664,170.00169333333332,63.0,77.0
748,170.39546690416665,170.54103639583332,56.0,82.0
749,170.39546690416665,170.61540341875,63.0,83.0
750,170.01441596666666,170.63122618958332,51.0,66.0
751,170.39546690416665,170.73407419999998,60.0,85.0
752,170.39546690416665,170.75622607916665,68.0,82.0
753,170.77521340416666,170.88439052291668,56.0,92.0
754,171.15495990416667,171.57268105416665,58.0,83.0
755,171.15495990416667,171.59641521041667,55.0,84.0
756,171.53470640416666,172.0726806125,50.0,83.0
757,171.15495990416667,172.16128812916665,43.0,84.0
758,171.91445290416667,172.1866045625,58.0,85.0
759,171.91445290416667,172.23723742916667,62.0,85.0
760,172.29419940416665,172.73881926458333,55.0,85.0
761,172.67394590416666,172.76255342083334,36.0,83.0
762,172.67394590416666,172.91603429791667,60.0,83.0
763,172.67394590416666,172.98565448958334,63.0,83.0
764,173.05369240416667,173.563185625,48.0,80.0
765,173.43343890416665,173.60590710625,60.0,84.0
766,173.43343890416665,174.05369152083333,63.0,87.0
767,173.43343890416665,174.18976734999998,67.0,84.0
768,173.81318540416666,174.2182483375,60.0,87.0
769,174.19293190416667,174.2182483375,60.0,79.0
770,174.19293190416667,174.56951385,63.0,75.0
771,174.19293190416667,174.57426068125,56.0,75.0
772,174.19293190416667,175.0916652875,44.0,87.0
773,174.57267840416665,175.09957667291667,51.0,67.0
774,174.95242490416666,175.120146275,56.0,83.0
775,174.95242490416666,175.3195131875,68.0,80.0
776,174.95242490416666,175.32109546458332,60.0,83.0
777,174.95242490416666,175.33217140416667,63.0,81.0
778,175.33217140416667,175.42710802916667,56.0,94.0
779,175.71191790416665,175.74356344583333,56.0,69.0
780,175.71191790416665,175.81793046875,41.0,84.0
781,175.71191790416665,175.95084174375,53.0,75.0
782,175.71191790416665,176.07425935625,60.0,78.0
783,176.09166440416666,176.68027147916666,53.0,84.0
784,177.23090390416667,177.35590379375,43.0,83.0
785,177.23090390416667,177.84799196666665,72.0,83.0
786,177.23090390416667,177.85115652083334,67.0,83.0
787,177.99039690416666,178.59166219583332,67.0,86.0
788,177.99039690416666,178.60748496666668,72.0,92.0
789,178.37014340416667,178.68343426666667,62.0,75.0
790,177.61065040416665,178.69609248333333,55.0,80.0
791,178.74988990416665,179.03311750208331,67.0,84.0
792,178.74988990416665,179.21666164375,72.0,84.0
793,179.12963640416666,179.29102866666665,67.0,73.0
794,178.74988990416665,179.64071190208332,62.0,85.0
795,179.50938290416667,179.715078925,67.0,92.0
796,178.74988990416665,179.72773714166667,55.0,87.0
797,179.50938290416667,179.92868633125,72.0,97.0
798,179.88912940416665,180.13912918333332,67.0,83.0
799,180.07900265416666,180.22931897708332,72.0,79.0
800,180.26887590416666,180.51412885208333,71.0,89.0
801,180.26887590416666,180.53469845416666,67.0,85.0
802,180.64862240416667,181.14703968541667,50.0,83.0
803,181.02836890416665,181.17077384166666,55.0,84.0
804,181.02836890416665,181.25305225,59.0,84.0
805,181.40811540416667,181.651786075,62.0,83.0
806,181.21824215416666,181.70083666458333,50.0,84.0
807,180.26887590416666,181.72615309791667,43.0,83.0
808,181.59798865416667,181.765710025,55.0,74.0
809,181.78786190416668,182.16760840416666,43.0,86.0
810,182.16760840416666,182.52850938541667,43.0,78.0
811,182.54934267083334,182.89549572083334,45.0,83.0
812,181.78786190416668,183.142290025,59.0,87.0
813,181.78786190416668,183.14549514583334,55.0,84.0
814,181.78786190416668,183.1519053875,62.0,88.0
815,181.78786190416668,183.16632843125,67.0,84.0
816,182.93395717083334,183.23203340833334,47.0,83.0
817,183.31857167083334,183.82658332291666,63.0,84.0
818,183.31857167083334,183.85863453125,67.0,84.0
819,183.31857167083334,183.9403651125,60.0,83.0
820,183.70318617083333,184.24645415208334,55.0,78.0
821,184.08780067083333,184.46760748958334,60.0,84.0
822,184.08780067083333,184.58299183958334,63.0,87.0
823,184.08780067083333,184.73844019999999,67.0,85.0
824,184.66472242083333,184.78811957291666,60.0,83.0
825,184.47241517083333,185.03972155833333,55.0,71.0
826,184.85702967083333,185.23843905,72.0,85.0
827,184.85702967083333,185.27369537916667,67.0,84.0
828,184.85702967083333,185.34901571875,63.0,83.0
829,184.85702967083333,185.40350277291665,60.0,82.0
830,185.24164417083333,185.680745725,55.0,77.0
831,183.31857167083334,185.73683533958334,48.0,88.0
832,185.62625867083332,185.77850191041665,60.0,85.0
833,185.62625867083332,185.8634376125,63.0,87.0
834,185.62625867083332,185.93555283125,67.0,84.0
835,186.39548767083332,186.50125665833332,41.0,84.0
836,186.01087317083332,186.74644840208333,60.0,87.0
837,186.39548767083332,186.81375593958333,65.0,82.0
838,186.39548767083332,186.87144811458333,68.0,84.0
839,186.78010217083335,186.88106347708333,55.0,47.0
840,187.16471667083334,187.5172799625,65.0,81.0
841,187.16471667083334,187.54292092916666,68.0,81.0
842,187.16471667083334,187.57016445625,72.0,84.0
843,187.54933117083334,187.83939460625,60.0,71.0
844,187.74163842083334,187.85542021041667,65.0,75.0
845,186.78010217083335,187.85702277083334,53.0,72.0
846,187.93394567083334,188.36503442291666,65.0,83.0
847,187.93394567083334,188.40670099375,68.0,83.0
848,188.31856017083334,188.7912301416667,60.0,72.0
849,187.93394567083334,188.85484330833336,53.0,84.0
850,188.70217170833334,188.93595009583333,65.0,85.0
851,188.70217170833334,189.0568151125,68.0,88.0
852,189.08385070833336,189.47666201250001,67.0,89.0
853,189.46552970833335,189.58639472500002,65.0,85.0
854,189.84720870833334,190.37201733333333,53.0,70.0
855,190.22888770833333,190.66622822916668,58.0,85.0
856,189.46552970833335,190.84275476666667,46.0,90.0
857,190.22888770833333,190.84593542500002,62.0,86.0
858,190.61056670833335,190.9143195791667,53.0,66.0
859,190.80140620833333,190.9175002375,58.0,77.0
860,190.99202025000002,191.43189327916667,58.0,80.0
861,190.99202025000002,191.43822238750002,65.0,83.0
862,190.99202025000002,191.44613377291668,62.0,84.0
863,191.56164,191.66132345625002,58.0,76.0
864,191.37176675,191.90499412708334,53.0,72.0
865,190.99202025000002,191.99676619791668,46.0,88.0
866,192.13125975000003,192.24043686875,46.0,89.0
867,191.75151325000002,192.34486715625002,62.0,85.0
868,191.75151325000002,192.40182913125003,58.0,85.0
869,192.51100625,192.83537305208336,55.0,79.0
870,192.51100625,192.9603729416667,58.0,78.0
871,192.51100625,193.37651181458335,39.0,97.0
872,192.89075275000002,193.4113219104167,46.0,79.0
873,193.27049925000003,193.66448624375002,55.0,86.0
874,193.65024575,193.73727098958335,39.0,73.0
875,193.27049925000003,193.88125820416667,58.0,94.0
876,193.27049925000003,193.89866325208334,63.0,92.0
877,193.84011900000002,194.08853650208334,55.0,84.0
878,194.40973875,194.66606763750002,55.0,97.0
879,194.599612,194.73727010625,59.0,85.0
880,194.21986550000003,194.87651048958335,50.0,83.0
881,194.02999225000002,194.97144711458336,43.0,86.0
882,194.78948525,195.2246114479167,55.0,86.0
883,194.78948525,195.23252283333335,59.0,84.0
884,194.78948525,195.24992788125002,62.0,92.0
885,195.16923175000002,195.31163668750003,50.0,89.0
886,195.54897825,196.07429424166668,63.0,77.0
887,195.54897825,196.07745879583334,60.0,76.0
888,195.92872475000001,196.46036985,55.0,77.0
889,196.30847125000003,196.6502431,67.0,84.0
890,196.30847125000003,196.65498993125001,63.0,90.0
891,196.30847125000003,196.65973676250002,60.0,87.0
892,195.54897825,196.878091,48.0,92.0
893,196.68821775,196.94771119166668,55.0,69.0
894,196.878091,197.00309088958335,60.0,85.0
895,197.06796425000002,197.46828035208335,60.0,83.0
896,197.06796425000002,197.5078372791667,63.0,87.0
897,197.06796425000002,197.56005242291667,48.0,87.0
898,197.44771075000003,197.56321697708336,55.0,76.0
899,197.06796425000002,197.58062202500003,67.0,85.0
900,197.637584,197.90815338125,60.0,85.0
901,197.82745725,197.96195080208335,36.0,83.0
902,197.82745725,198.1439126666667,72.0,87.0
903,197.82745725,198.19296325625,67.0,85.0
904,197.82745725,198.21669741250003,63.0,84.0
905,198.20720375000002,198.30055809791668,60.0,85.0
906,198.58695025000003,199.00941823125,60.0,83.0
907,198.58695025000003,199.01100050833335,56.0,76.0
908,198.58695025000003,199.03631694166668,53.0,79.0
909,198.96669675,199.52524056041668,48.0,74.0
910,199.34644325000002,199.71986064166668,56.0,89.0
911,199.34644325000002,199.7736580625,60.0,90.0
912,198.58695025000003,199.88441745833336,41.0,85.0
913,199.72618975,199.9572022041667,48.0,73.0
914,199.916063,200.466695425,53.0,83.0
915,200.10593625,200.53631561666668,65.0,84.0
916,200.10593625,200.542644725,60.0,86.0
917,200.10593625,200.55846749583336,56.0,81.0
918,200.67555600000003,200.78473311875,53.0,77.0
919,200.86542925,200.96511270625,53.0,77.0
920,200.48568275000002,201.00308735625,48.0,73.0
921,200.10593625,201.0458088375,41.0,85.0
922,200.86542925,201.06637843958336,56.0,88.0
923,200.86542925,201.07270754791668,60.0,90.0
924,200.86542925,201.08061893333334,65.0,85.0
925,201.24517575000002,201.378087025,67.0,77.0
926,201.24517575000002,201.4049857354167,55.0,79.0
927,201.62492225000003,201.9983396416667,68.0,72.0
928,201.62492225000003,202.1470736875,56.0,84.0
929,202.00466875,202.4160607916667,51.0,69.0
930,201.62492225000003,202.45245316458335,44.0,84.0
931,202.38441525000002,202.52207335625002,63.0,76.0
932,202.38441525000002,202.52682018750002,60.0,83.0
933,202.38441525000002,202.56163028333336,56.0,84.0
934,202.38441525000002,202.58219988541668,68.0,79.0
935,203.14390825,203.62175592916668,55.0,75.0
936,203.14390825,203.63441414583335,59.0,76.0
937,203.14390825,203.6375787,62.0,77.0
938,203.52365475000002,203.98409738125002,50.0,68.0
939,203.14390825,204.0964390541667,43.0,83.0
940,203.90340125,204.14707192083335,55.0,84.0
941,203.90340125,204.18979340208335,59.0,83.0
942,203.90340125,204.226185775,62.0,84.0
943,204.28314775,204.34960338750003,55.0,56.0
944,204.66289425000002,204.74675493541667,36.0,83.0
945,204.66289425000002,204.93029907708336,55.0,83.0
946,204.66289425000002,205.01890659375002,60.0,79.0
947,205.61953326458337,205.80549688958337,60.0,74.0
948,205.81358226458335,206.10627283958334,62.0,77.0
949,206.00763126458335,206.12567773958335,63.0,88.0
950,205.42548426458336,206.38279266458335,55.0,84.0
951,206.20168026458336,206.43615613958335,63.0,87.0
952,206.20168026458336,206.48790253958336,60.0,83.0
953,206.20168026458336,206.52509526458334,67.0,87.0
954,205.04264075,207.73305028958336,48.0,79.0
955,207.71526246458336,207.73305028958336,48.0,84.0
956,206.58977826458334,207.73305028958336,55.0,83.0
957,207.36597426458334,207.74113566458337,60.0,62.0
958,206.97787626458336,207.74113566458337,63.0,83.0
959,206.97787626458336,207.77186008958336,67.0,84.0
960,206.97787626458336,207.79126498958337,72.0,83.0
961,208.51086336458334,209.00245416458336,62.0,73.0
962,208.90219551458335,209.15284213958336,63.0,85.0
963,208.10012631458335,210.08266026458335,55.0,66.0
964,209.28544228958336,210.80225863958336,60.0,72.0
965,209.28382521458335,210.94456123958335,67.0,75.0
966,211.69488403958334,212.09753571458336,55.0,85.0
967,212.07166251458335,212.35626771458337,56.0,94.0
968,212.89313661458334,213.09203683958336,53.0,58.0
969,212.48078248958336,213.30225658958335,62.0,79.0
970,211.26797623958336,213.51247633958334,48.0,58.0
971,210.87017578958336,213.56907396458337,41.0,81.0
972,213.30225658958335,213.64184233958335,53.0,76.0
973,213.30387366458336,213.67741798958335,60.0,80.0
974,214.10594286458337,214.54578726458337,56.0,70.0
975,214.26279913958336,214.60723611458334,63.0,67.0
976,214.22237226458336,214.72851673958337,60.0,77.0
977,214.19649906458335,215.13925378958336,44.0,86.0
978,214.57166046458335,215.14572208958336,51.0,70.0
979,215.00341948958337,215.47075416458335,56.0,90.0
980,215.41739068958336,215.55322498958336,68.0,82.0
981,215.88957658958336,216.65283598958337,59.0,76.0
982,215.87825706458335,216.99242173958336,55.0,75.0
983,216.41350888958334,217.35788068958337,50.0,75.0
984,215.90736441458336,217.44035151458337,43.0,84.0
985,216.91803628958337,218.32812568958335,62.0,81.0
986,216.91318506458336,218.33297691458336,59.0,82.0
987,217.46299056458335,218.37987208958336,55.0,76.0
988,218.86499458958335,219.08815093958336,50.0,72.0
989,219.06227773958335,219.19164373958336,51.0,71.0
990,219.28219993958336,219.48110016458335,55.0,76.0
991,219.49565383958335,219.82068591458335,60.0,72.0
992,219.78349318958337,220.10205696458337,62.0,79.0
993,220.06971546458337,220.24597663958335,60.0,68.0
994,220.41900366458336,220.62275511458336,67.0,70.0
995,221.47657071458335,221.71104658958336,67.0,69.0
996,221.50567806458335,221.74338808958336,72.0,77.0
997,218.63536993958337,221.99403471458336,43.0,68.0
998,218.26505976458336,222.02152498958336,36.0,84.0
