,start,end,pitch,velocity
0,17.5409354125,17.798478327083334,64.0,82.0
1,17.7995559125,18.078650535416667,67.0,73.0
2,18.0581764125,18.448262333333336,69.0,78.0
3,18.575417412500002,18.991365383333335,71.0,79.0
4,19.0926584125,19.539856360416668,71.0,79.0
5,19.6098994125,20.1530024625,69.0,79.0
6,20.1271404125,20.734898587500002,67.0,76.0
7,20.903001912500002,21.131450020833334,67.0,76.0
8,21.1616224125,21.409467058333334,64.0,79.0
9,21.4202429125,21.712268560416668,67.0,79.0
10,21.6788634125,21.962268377083333,64.0,83.0
11,21.9374839125,22.0926562125,71.0,79.0
12,22.196104412500002,22.737052291666668,71.0,80.0
13,22.7133454125,24.8211024875,69.0,77.0
14,25.816791412500002,26.031230910416667,64.0,79.0
15,26.0754119125,26.256446262500003,67.0,78.0
16,26.3340324125,26.729506260416667,69.0,78.0
17,26.8512734125,27.265066212500003,71.0,80.0
18,27.3685144125,27.837264068750002,71.0,79.0
19,27.8857554125,28.34803955625,69.0,79.0
20,28.402996412500002,29.071099370833334,67.0,72.0
21,29.1788579125,29.37605604375,64.0,80.0
22,29.437478412500003,29.58403002916667,74.0,84.0
23,29.696098912500002,29.891141872916666,74.0,85.0
24,29.9547194125,30.15622788541667,67.0,70.0
25,30.2133399125,30.372822554166667,71.0,79.0
26,30.4719604125,30.9374773125,71.0,77.0
27,30.9892014125,32.818941450000004,69.0,78.0
28,34.0926474125,34.27906968958334,67.0,74.0
29,34.3512679125,34.607733241666665,69.0,80.0
30,34.6098884125,34.96441401458333,67.0,79.0
31,35.127129412500004,35.578637702083334,67.0,79.0
32,35.6443704125,36.13898211875,74.0,84.0
33,36.1616114125,36.676697241666666,71.0,80.0
34,36.6788524125,36.99135218333333,74.0,80.0
35,37.1960934125,37.350188127083335,67.0,80.0
36,37.454713912500004,37.84479983333333,76.0,80.0
37,37.9719549125,38.38143737083333,74.0,85.0
38,38.4891959125,38.671307847916665,67.0,79.0
39,38.7478164125,39.230574679166665,71.0,76.0
40,39.2650574125,40.94393549166667,69.0,74.0
41,42.368503412500004,42.51182227291667,67.0,78.0
42,42.627123912500004,42.887899583333336,69.0,79.0
43,42.8857444125,43.3124682375,67.0,79.0
44,43.4029854125,43.80276960208334,74.0,85.0
45,43.9202264125,44.297381308333335,74.0,92.0
46,44.4374674125,44.607725908333336,74.0,85.0
47,44.696087912500005,44.95039807083334,71.0,74.0
48,44.954708412500004,45.39544084791667,67.0,77.0
49,45.7305699125,45.94177665416667,74.0,84.0
50,45.9891904125,46.190698885416666,71.0,79.0
51,46.2478109125,46.53337104791667,74.0,85.0
52,46.5064314125,46.69824161666667,71.0,79.0
53,46.7650519125,46.94069833541667,76.0,79.0
54,47.023672412500005,47.462249677083335,76.0,82.0
55,47.540913412500004,49.79414451875,74.0,80.0
56,53.2305644125,53.494572839583334,71.0,85.0
57,53.4891849125,53.779055389583334,74.0,89.0
58,53.7478054125,53.98595178958333,71.0,80.0
59,54.0064259125,54.45685661666667,79.0,84.0
60,54.523666912500005,54.651899577083334,76.0,79.0
61,54.782287412500004,55.452545541666666,76.0,82.0
62,55.5581489125,56.03982959375,74.0,92.0
63,56.0753899125,57.14650981666667,71.0,84.0
64,57.368492412500004,57.67021632916667,71.0,82.0
65,57.6271129125,57.871724802083335,69.0,80.0
66,57.8857334125,58.1184918625,67.0,79.0
67,58.1443539125,58.522586393750004,74.0,85.0
68,58.6615949125,58.80599135833334,74.0,85.0
69,58.9202154125,59.6378873,74.0,87.0
70,59.696076912500004,60.075386979166666,67.0,79.0
71,60.2133179125,61.2995240125,69.0,80.0
72,61.5064204125,61.6874547625,71.0,84.0
73,61.765040912500005,62.05383380416667,74.0,89.0
74,62.023661412500005,62.235945739583336,71.0,80.0
75,62.282281912500004,62.72516951875,79.0,82.0
76,62.7995229125,62.944996943750006,76.0,79.0
77,63.0581434125,63.74241015208334,76.0,81.0
78,63.8340049125,64.38034071875,74.0,89.0
79,64.3512459125,65.1659004875,71.0,80.0
80,65.64434841250001,65.89542581458333,71.0,82.0
81,65.9029689125,66.02581365,69.0,79.0
82,66.1615894125,66.39003752083333,67.0,80.0
83,66.4202099125,66.98486467083333,74.0,85.0
84,67.1960714125,67.88895883541667,76.0,82.0
85,67.97193291250001,68.39542398125,74.0,81.0
86,68.48917391250001,69.58723345208334,74.0,84.0
87,69.7822764125,70.04628483958334,71.0,85.0
88,70.0408969125,70.33076738958334,74.0,89.0
89,70.29951741250001,70.53766378958333,71.0,80.0
90,70.5581379125,71.00856861666666,79.0,84.0
91,71.0753789125,71.20361157708334,76.0,79.0
92,71.3339994125,72.00425754166668,76.0,82.0
93,72.1098609125,72.36632624166667,74.0,92.0
94,72.3684814125,73.16804979166668,76.0,84.0
95,73.14434291250001,73.40835133958333,74.0,82.0
96,73.4029634125,73.8555492875,71.0,80.0
97,73.9202044125,74.22192832916667,71.0,82.0
98,74.1788249125,74.42343680208333,69.0,80.0
99,74.4374454125,74.6702038625,67.0,79.0
100,74.6960659125,75.07429839375,67.0,85.0
101,75.2133069125,75.35770335833334,74.0,85.0
102,75.47192741250001,75.72839274166667,74.0,87.0
103,75.7305479125,76.24563374166667,74.0,87.0
104,76.2477889125,76.50425424166667,67.0,79.0
105,76.5064094125,77.79735674166668,69.0,80.0
106,78.0581324125,78.2391667625,71.0,84.0
107,78.31675291250001,78.60554580416667,74.0,89.0
108,78.5753734125,78.78765773958334,71.0,80.0
109,78.8339939125,79.27688151875,79.0,82.0
110,79.3512349125,79.49670894375001,76.0,79.0
111,79.6098554125,80.29412215208333,76.0,81.0
112,80.3857169125,80.93205271875,74.0,89.0
113,80.9029579125,81.14325946041667,76.0,79.0
114,81.1615784125,81.659422875,74.0,92.0
115,81.6788194125,82.02364674583333,71.0,80.0
116,82.1960604125,82.44713781458334,71.0,82.0
117,82.45468091250001,82.57752565,69.0,79.0
118,82.7133014125,82.94174952083334,67.0,80.0
119,82.97192191250001,83.22838724166667,74.0,85.0
120,83.2305424125,83.63032660208334,74.0,87.0
121,83.7477834125,84.14325726041668,74.0,89.0
122,84.2650244125,84.66049826041667,76.0,80.0
123,84.78226541250001,86.00963520208333,74.0,94.0
124,86.0753679125,86.51933310416668,76.0,82.0
125,86.5926089125,86.79411738541667,74.0,89.0
126,86.8512294125,89.16157254583334,76.0,82.0
127,104.43742341250001,104.69496632708334,64.0,82.0
128,104.6960439125,104.97513853541668,67.0,73.0
129,104.95466441250001,105.34475033333334,69.0,78.0
130,105.4719054125,105.88785338333334,71.0,79.0
131,105.9891464125,106.43634436041667,71.0,79.0
132,106.5063874125,107.0494904625,69.0,79.0
133,107.0236284125,107.53871424166667,67.0,76.0
134,107.5408694125,107.79733474166667,64.0,79.0
135,107.79948991250001,108.02793802083333,67.0,76.0
136,108.0581104125,108.30595505833334,64.0,79.0
137,108.3167309125,108.60875656041667,67.0,79.0
138,108.5753514125,108.85875637708334,64.0,83.0
139,108.8339719125,108.98914421250001,71.0,79.0
140,109.09259241250001,109.63354029166668,71.0,80.0
141,109.60983341250001,111.7175904875,69.0,77.0
142,112.7132794125,112.92771891041667,64.0,79.0
143,112.9718999125,113.15293426250001,67.0,78.0
144,113.2305204125,113.62599426041668,69.0,78.0
145,113.7477614125,114.16155421250001,71.0,80.0
146,114.26500241250001,114.73375206875001,71.0,79.0
147,114.78224341250001,115.03870874166667,71.0,79.0
148,115.0408639125,115.29732924166667,69.0,79.0
149,115.29948441250001,115.81457024166667,67.0,72.0
150,115.8167254125,116.07319074166666,62.0,79.0
151,116.0753459125,116.27254404375,64.0,80.0
152,116.3339664125,116.48051802916667,74.0,84.0
153,116.59258691250001,116.78762987291667,74.0,85.0
154,116.8512074125,117.05271588541667,74.0,70.0
155,117.10982791250001,117.26931055416667,67.0,79.0
156,117.3684484125,117.8339653125,71.0,77.0
157,117.8856894125,119.71542945,69.0,78.0
158,120.9891354125,121.17555768958334,67.0,74.0
159,121.24775591250001,121.50422124166667,69.0,80.0
160,121.5063764125,121.86090201458333,67.0,79.0
161,122.0236174125,122.47512570208333,74.0,79.0
162,122.5408584125,123.03547011875,74.0,84.0
163,123.0580994125,123.57318524166668,71.0,80.0
164,123.57534041250001,123.88784018333334,67.0,80.0
165,124.3512019125,124.74128783333335,76.0,80.0
166,124.8684429125,125.27792537083334,74.0,85.0
167,125.3856839125,125.56779584791667,67.0,79.0
168,125.6443044125,126.12706267916667,71.0,76.0
169,126.1615454125,127.84042349166667,69.0,74.0
170,129.2649914125,129.40831027291668,67.0,78.0
171,129.5236119125,129.78438758333334,69.0,79.0
172,129.7822324125,130.20895623750002,67.0,79.0
173,130.2994734125,130.69925760208335,74.0,85.0
174,130.8167144125,131.19386930833335,74.0,92.0
175,131.33395541250002,131.50421390833333,74.0,85.0
176,131.5925759125,131.84688607083334,71.0,74.0
177,131.8511964125,132.29192884791667,67.0,77.0
178,132.6270579125,132.83826465416666,71.0,84.0
179,132.8856784125,133.40076424166668,74.0,79.0
180,133.4029194125,133.68847954791667,74.0,85.0
181,133.66153991250002,133.83718633541667,71.0,79.0
182,133.9201604125,134.35873767708333,76.0,82.0
183,134.4374014125,136.69063251875,74.0,80.0
184,138.0580884125,138.32209683958334,71.0,85.0
185,138.31670891250002,138.60657938958335,74.0,89.0
186,138.5753294125,138.81347578958335,71.0,80.0
187,138.8339499125,139.28438061666668,79.0,84.0
188,139.35119091250002,139.47942357708334,76.0,79.0
189,139.6098114125,140.28006954166668,76.0,82.0
190,140.3856729125,140.86735359375,74.0,92.0
191,140.9029139125,141.97403381666666,71.0,84.0
192,142.1960164125,142.49774032916667,71.0,82.0
193,142.4546369125,142.69924880208333,69.0,80.0
194,142.7132574125,142.94601586250002,67.0,79.0
195,142.97187791250002,143.35011039375001,74.0,85.0
196,143.4891189125,143.63351535833334,74.0,85.0
197,143.7477394125,144.4654113,74.0,87.0
198,144.5236009125,144.90291097916668,67.0,79.0
199,145.0408419125,146.1270480125,69.0,80.0
200,146.33394441250002,146.5149787625,71.0,84.0
201,146.5925649125,146.88135780416667,74.0,89.0
202,146.8511854125,147.06346973958333,71.0,80.0
203,147.1098059125,147.55269351875,79.0,82.0
204,147.6270469125,147.77252094375,76.0,79.0
205,147.8856674125,148.56993415208333,76.0,81.0
206,148.66152891250002,149.20786471875002,74.0,89.0
207,149.1787699125,149.9934244875,71.0,80.0
208,150.4718724125,150.72294981458333,71.0,82.0
209,150.7304929125,150.85333765000001,69.0,79.0
210,150.98911341250002,151.21756152083333,67.0,80.0
211,151.2477339125,151.81238867083334,74.0,85.0
212,152.02359541250001,152.71648283541668,76.0,82.0
213,152.7994569125,153.22294798125,74.0,81.0
214,153.31669791250002,154.41475745208334,74.0,84.0
215,154.6098004125,154.87380883958335,71.0,85.0
216,154.8684209125,155.15829138958333,74.0,89.0
217,155.1270414125,155.36518778958333,71.0,80.0
218,155.3856619125,155.83609261666666,79.0,84.0
219,155.9029029125,156.03113557708335,76.0,79.0
220,156.1615234125,156.8317815416667,76.0,82.0
221,156.9373849125,157.19385024166667,74.0,92.0
222,157.1960054125,157.9955737916667,76.0,84.0
223,157.97186691250002,158.23587533958334,74.0,82.0
224,158.2304874125,158.6830732875,71.0,80.0
225,158.7477284125,159.04945232916668,71.0,82.0
226,159.00634891250002,159.25096080208334,69.0,80.0
227,159.2649694125,159.4977278625,67.0,79.0
228,159.5235899125,159.90182239375,67.0,85.0
229,160.0408309125,160.18522735833335,74.0,85.0
230,160.29945141250002,160.55591674166666,74.0,87.0
231,160.5580719125,161.07315774166668,74.0,87.0
232,161.0753129125,161.33177824166668,67.0,79.0
233,161.33393341250002,162.6248807416667,69.0,80.0
234,162.8856564125,163.0666907625,71.0,84.0
235,163.1442769125,163.43306980416668,74.0,89.0
236,163.4028974125,163.61518173958333,71.0,80.0
237,163.66151791250002,164.10440551875,79.0,82.0
238,164.1787589125,164.32423294375002,76.0,79.0
239,164.4373794125,165.12164615208334,76.0,81.0
240,165.2132409125,165.75957671875,74.0,89.0
241,165.7304819125,165.97078346041667,76.0,79.0
242,165.98910241250002,166.486946875,74.0,92.0
243,166.5063434125,166.85117074583334,71.0,80.0
244,167.0235844125,167.27466181458334,71.0,82.0
245,167.28220491250002,167.40504965,69.0,79.0
246,167.5408254125,167.76927352083334,67.0,80.0
247,167.7994459125,168.05591124166668,74.0,85.0
248,168.0580664125,168.45785060208334,74.0,87.0
249,168.5753074125,168.9707812604167,74.0,89.0
250,169.0925484125,169.48802226041667,76.0,80.0
251,169.6097894125,170.83715920208334,74.0,94.0
252,171.1615124125,171.42552083958333,71.0,85.0
253,171.4201329125,171.71000338958333,74.0,89.0
254,171.67875341250001,171.91689978958334,71.0,80.0
255,171.9373739125,172.38780461666667,79.0,84.0
256,172.4546149125,172.58284757708333,76.0,79.0
257,172.7132354125,173.38349354166667,76.0,82.0
258,173.4890969125,173.97077759375,74.0,92.0
259,174.00633791250002,175.07745781666668,71.0,84.0
260,175.29944041250002,175.60116432916666,71.0,82.0
261,175.5580609125,175.80267280208335,69.0,80.0
262,175.8166814125,176.0494398625,67.0,79.0
263,176.0753019125,176.45353439375,74.0,85.0
264,176.5925429125,176.73693935833333,74.0,85.0
265,176.8511634125,177.56883530000002,74.0,87.0
266,177.62702491250002,178.00633497916667,67.0,79.0
267,178.1442659125,179.2304720125,69.0,80.0
268,179.4373684125,179.6184027625,71.0,84.0
269,179.6959889125,179.9847818041667,74.0,89.0
270,179.95460941250002,180.16689373958334,71.0,80.0
271,180.2132299125,180.65611751875,79.0,82.0
272,180.7304709125,180.87594494375,76.0,79.0
273,180.98909141250002,181.67335815208335,76.0,81.0
274,181.7649529125,182.31128871875,74.0,89.0
275,182.28219391250002,183.0968484875,71.0,80.0
276,183.5752964125,183.82637381458335,71.0,82.0
277,183.8339169125,183.95676165,69.0,79.0
278,184.0925374125,184.32098552083335,67.0,80.0
279,184.3511579125,184.91581267083333,74.0,85.0
280,185.1270194125,185.81990683541667,76.0,82.0
281,185.9028809125,186.32637198125002,74.0,81.0
282,186.4201219125,187.51818145208335,74.0,84.0
283,187.7132244125,187.97723283958334,71.0,85.0
284,187.97184491250002,188.26171538958334,74.0,89.0
285,188.2304654125,188.46861178958335,71.0,80.0
286,188.4890859125,188.93951661666668,79.0,84.0
287,189.00632691250001,189.13455957708334,76.0,79.0
288,189.26494741250002,189.93520554166668,76.0,82.0
289,190.0408089125,190.29727424166668,74.0,92.0
290,190.29942941250002,191.09899779166668,76.0,84.0
291,191.0752909125,191.33929933958333,74.0,82.0
292,191.33391141250002,191.7864972875,71.0,80.0
293,191.8511524125,192.15287632916667,71.0,82.0
294,192.1097729125,192.35438480208333,69.0,80.0
295,192.3683934125,192.60115186250002,67.0,79.0
296,192.62701391250002,193.00524639375,67.0,85.0
297,193.1442549125,193.28865135833334,74.0,85.0
298,193.4028754125,193.65934074166668,74.0,87.0
299,193.66149591250002,194.17658174166667,74.0,87.0
300,194.1787369125,194.43520224166667,67.0,79.0
301,194.4373574125,195.72830474166668,69.0,80.0
302,195.98908041250002,196.17011476250002,71.0,84.0
303,196.2477009125,196.53649380416667,74.0,89.0
304,196.5063214125,196.71860573958335,71.0,80.0
305,196.7649419125,197.20782951875,79.0,82.0
306,197.28218291250002,197.42765694375,76.0,79.0
307,197.5408034125,198.22507015208333,76.0,81.0
308,198.31666491250002,198.86300071875002,74.0,89.0
309,198.8339059125,199.0742074604167,76.0,79.0
310,199.0925264125,199.59037087500002,74.0,92.0
311,199.60976741250002,199.95459474583333,71.0,80.0
312,200.1270084125,200.37808581458333,71.0,82.0
313,200.3856289125,200.50847365,69.0,79.0
314,200.64424941250002,200.87269752083333,67.0,80.0
315,200.9028699125,201.15933524166667,74.0,85.0
316,201.1614904125,201.56127460208333,74.0,87.0
317,201.6787314125,202.07420526041668,74.0,89.0
318,202.1959724125,202.5914462604167,76.0,80.0
319,202.7132134125,203.94058320208333,74.0,94.0
320,204.0063159125,204.45028110416666,76.0,82.0
321,204.5235569125,204.72506538541668,74.0,89.0
322,204.7821774125,207.09252054583334,76.0,82.0
323,212.25523227708334,212.79402498541668,64.0,80.0
324,212.76277500833334,213.07958512083334,63.0,77.0
325,213.07635236458333,215.38022998541666,64.0,82.0
326,221.08496718125002,221.58281164375,64.0,80.0
327,221.56988061875,225.1269900791667,63.0,67.0
328,225.09358493125,228.62267717083336,64.0,75.0
