,start,end,pitch,velocity
0,27.098333333333336,27.523333333333333,69.0,99.0
1,27.498333333333335,27.810000000000002,73.0,99.0
2,27.898333333333333,28.92666666666667,73.0,112.0
3,29.498333333333335,29.866666666666667,73.0,127.0
4,29.898333333333337,30.256666666666668,71.0,90.0
5,30.298333333333336,30.675,69.0,93.0
6,30.698333333333334,31.238333333333337,71.0,99.0
7,31.498333333333335,32.45166666666667,73.0,112.0
8,33.498333333333335,33.94166666666667,69.0,95.0
9,33.89833333333333,34.2,73.0,95.0
10,34.29833333333333,35.34,73.0,102.0
11,35.89833333333333,36.26833333333334,74.0,99.0
12,36.29833333333334,36.58833333333334,73.0,100.0
13,36.69833333333334,37.12666666666667,76.0,100.0
14,37.29833333333334,39.00666666666667,69.0,96.0
15,39.89833333333333,40.30833333333334,69.0,86.0
16,40.29833333333334,40.48166666666667,74.0,96.0
17,40.69833333333334,41.90166666666667,74.0,97.0
18,42.29833333333334,42.67333333333334,74.0,112.0
19,42.69833333333334,43.135000000000005,73.0,96.0
20,43.098333333333336,43.515,69.0,74.0
21,43.498333333333335,44.38333333333333,64.0,76.0
22,44.29833333333334,45.92666666666667,73.0,107.0
23,46.29833333333334,46.540000000000006,69.0,92.0
24,46.498333333333335,46.64666666666667,73.0,99.0
25,46.89833333333333,47.76833333333334,71.0,96.0
26,47.89833333333333,48.10166666666667,69.0,99.0
27,48.098333333333336,48.215,73.0,112.0
28,48.498333333333335,49.145,71.0,107.0
29,49.498333333333335,49.62833333333334,69.0,96.0
30,49.69833333333334,49.80166666666667,73.0,107.0
31,50.098333333333336,51.74333333333334,71.0,112.0
32,52.69833333333334,53.123333333333335,69.0,99.0
33,53.098333333333336,53.410000000000004,73.0,99.0
34,53.498333333333335,54.52666666666667,73.0,112.0
35,55.098333333333336,55.46666666666667,73.0,127.0
36,55.498333333333335,55.85666666666667,71.0,90.0
37,55.89833333333333,56.275000000000006,69.0,93.0
38,56.29833333333334,56.83833333333334,71.0,99.0
39,57.098333333333336,58.05166666666667,76.0,112.0
40,59.098333333333336,59.54166666666667,69.0,95.0
41,59.498333333333335,59.800000000000004,73.0,95.0
42,59.89833333333334,60.940000000000005,73.0,102.0
43,61.498333333333335,61.86833333333334,74.0,99.0
44,61.89833333333334,62.18833333333334,73.0,100.0
45,62.29833333333334,62.726666666666674,76.0,100.0
46,62.89833333333334,64.60666666666667,69.0,96.0
47,65.49833333333333,65.90833333333333,69.0,86.0
48,65.89833333333334,66.08166666666668,74.0,96.0
49,66.29833333333333,67.50166666666667,74.0,97.0
50,67.89833333333334,68.27333333333334,74.0,112.0
51,68.29833333333333,68.735,73.0,96.0
52,68.69833333333334,69.11500000000001,69.0,74.0
53,69.09833333333334,69.53166666666667,76.0,122.0
54,69.89833333333334,70.29833333333333,73.0,107.0
55,70.29833333333333,70.59833333333334,73.0,117.0
56,70.69833333333334,71.51833333333333,81.0,112.0
57,72.69833333333334,73.05166666666668,76.0,117.0
58,73.09833333333334,73.43666666666667,74.0,107.0
59,73.49833333333333,73.73166666666667,74.0,112.0
60,73.89833333333334,74.10333333333334,69.0,86.0
61,74.29833333333333,74.745,69.0,102.0
62,75.09833333333334,75.34166666666667,68.0,99.0
63,75.49833333333333,77.11333333333334,69.0,93.0
64,77.49833333333333,77.80166666666668,69.0,100.0
65,77.89833333333334,78.09166666666667,71.0,112.0
66,78.29833333333333,78.495,73.0,127.0
67,78.69833333333334,78.79,76.0,112.0
68,78.89833333333334,79.77000000000001,76.0,122.0
69,80.69833333333334,80.97666666666667,73.0,127.0
70,81.09833333333334,81.32000000000001,71.0,107.0
71,81.49833333333333,81.74000000000001,69.0,102.0
72,81.89833333333334,81.97833333333334,71.0,127.0
73,82.09833333333334,83.23,73.0,127.0
74,83.89833333333334,84.16833333333334,69.0,112.0
75,84.29833333333333,84.53,71.0,100.0
76,84.69833333333334,84.90833333333335,73.0,127.0
77,85.09833333333334,85.18833333333333,81.0,122.0
78,85.29833333333333,85.63166666666667,81.0,122.0
79,85.69833333333334,85.84333333333333,83.0,122.0
80,85.89833333333334,86.46833333333333,81.0,117.0
81,86.69833333333334,86.92666666666668,81.0,127.0
82,87.09833333333334,87.36833333333334,80.0,127.0
83,87.49833333333333,87.72833333333334,78.0,127.0
84,87.89833333333334,88.19166666666668,76.0,127.0
85,88.29833333333333,88.39666666666668,78.0,127.0
86,88.49833333333333,88.84333333333333,78.0,122.0
87,88.89833333333334,89.78333333333335,76.0,112.0
88,90.29833333333335,90.57666666666667,69.0,112.0
89,90.69833333333334,90.94500000000001,71.0,97.0
90,91.09833333333334,91.38666666666667,73.0,122.0
91,91.49833333333333,91.57833333333333,76.0,127.0
92,91.69833333333334,92.46833333333333,76.0,127.0
93,93.49833333333333,93.735,73.0,127.0
94,93.89833333333334,94.11833333333334,71.0,102.0
95,94.29833333333335,94.485,69.0,112.0
96,94.69833333333334,94.79833333333335,71.0,122.0
97,94.89833333333334,95.85833333333333,69.0,112.0
98,96.69833333333334,96.95666666666668,69.0,107.0
99,97.09833333333334,97.34333333333333,71.0,112.0
100,97.49833333333333,97.76833333333335,73.0,122.0
101,97.89833333333334,98.14500000000001,76.0,127.0
102,98.29833333333335,98.69000000000001,76.0,127.0
103,98.69833333333334,98.95,74.0,122.0
104,99.09833333333334,99.33500000000001,74.0,112.0
105,99.49833333333333,99.79,73.0,127.0
106,99.89833333333334,100.49000000000001,81.0,127.0
107,100.69833333333334,100.92666666666668,73.0,127.0
108,101.09833333333334,101.49000000000001,73.0,127.0
109,101.49833333333333,102.515,71.0,117.0
110,103.09833333333334,103.37666666666668,69.0,112.0
111,103.49833333333333,103.745,71.0,97.0
112,103.89833333333334,104.18666666666667,73.0,122.0
113,104.29833333333335,104.37833333333334,76.0,127.0
114,104.49833333333333,105.26833333333335,76.0,127.0
115,106.29833333333335,106.53500000000001,73.0,127.0
116,106.69833333333334,106.91833333333334,71.0,102.0
117,107.09833333333334,107.28500000000001,69.0,112.0
118,107.49833333333333,107.59833333333334,71.0,122.0
119,107.69833333333334,108.65833333333335,73.0,112.0
120,109.49833333333333,109.75666666666667,69.0,107.0
121,109.89833333333334,110.14333333333335,71.0,112.0
122,110.29833333333335,110.50833333333334,73.0,127.0
123,110.69833333333334,110.78833333333334,81.0,122.0
124,110.89833333333334,111.23166666666667,81.0,122.0
125,111.29833333333335,111.44333333333334,83.0,122.0
126,111.49833333333333,112.06833333333334,81.0,117.0
127,112.29833333333335,112.52666666666667,81.0,127.0
128,112.69833333333334,112.96833333333333,80.0,127.0
129,113.09833333333334,113.32833333333335,78.0,127.0
130,113.49833333333333,113.79166666666667,76.0,127.0
131,113.89833333333334,113.99666666666667,78.0,127.0
132,114.09833333333334,114.44333333333334,78.0,122.0
133,114.49833333333333,115.38333333333334,76.0,112.0
134,115.89833333333334,116.17666666666668,69.0,112.0
135,116.29833333333335,116.545,71.0,97.0
136,116.69833333333334,116.98666666666668,73.0,122.0
137,117.09833333333334,117.17833333333334,76.0,127.0
138,117.29833333333335,118.06833333333334,76.0,127.0
139,119.09833333333334,119.33500000000001,73.0,127.0
140,119.49833333333333,119.71833333333335,71.0,102.0
141,119.89833333333334,120.08500000000001,69.0,112.0
142,120.29833333333335,120.39833333333334,71.0,122.0
143,120.49833333333333,121.45833333333334,69.0,112.0
144,122.29833333333335,122.56333333333335,69.0,112.0
145,122.69833333333334,122.93333333333334,71.0,102.0
146,123.09833333333334,123.30000000000001,73.0,117.0
147,123.49833333333333,123.63666666666667,76.0,112.0
148,123.69833333333334,124.97833333333334,69.0,107.0
149,125.49833333333333,125.79333333333334,69.0,127.0
150,125.89833333333334,126.155,68.0,117.0
151,126.29833333333335,126.525,66.0,122.0
152,126.69833333333334,126.78666666666668,68.0,127.0
153,126.89833333333334,129.18333333333334,69.0,127.0
154,155.09833333333333,155.52333333333334,69.0,99.0
155,155.49833333333333,155.81,73.0,99.0
156,155.89833333333334,156.92666666666668,73.0,112.0
157,157.49833333333333,157.86666666666667,73.0,127.0
158,157.89833333333334,158.2566666666667,71.0,90.0
159,158.29833333333335,158.675,69.0,93.0
160,158.69833333333335,159.23833333333334,71.0,99.0
161,159.49833333333333,160.45166666666668,76.0,112.0
162,161.49833333333333,161.94166666666666,69.0,95.0
163,161.89833333333334,162.20000000000002,73.0,95.0
164,162.29833333333335,163.34,73.0,102.0
165,163.89833333333334,164.26833333333335,74.0,99.0
166,164.29833333333335,164.58833333333334,73.0,100.0
167,164.69833333333335,165.12666666666667,76.0,100.0
168,165.29833333333335,167.0066666666667,69.0,96.0
169,167.89833333333334,168.30833333333334,69.0,86.0
170,168.29833333333335,168.48166666666668,74.0,96.0
171,168.69833333333335,169.90166666666667,74.0,97.0
172,170.29833333333335,170.67333333333335,74.0,112.0
173,170.69833333333335,171.13500000000002,73.0,96.0
174,171.09833333333336,171.51500000000001,69.0,74.0
175,171.49833333333333,171.93166666666667,76.0,122.0
176,172.29833333333335,172.69833333333335,73.0,107.0
177,172.69833333333335,172.99833333333333,73.0,117.0
178,173.09833333333336,173.91833333333335,81.0,112.0
179,175.09833333333336,175.45166666666668,76.0,117.0
180,175.49833333333333,175.83666666666667,74.0,107.0
181,175.89833333333334,176.1316666666667,74.0,112.0
182,176.29833333333335,176.50333333333336,69.0,86.0
183,176.69833333333335,177.145,69.0,102.0
184,177.49833333333333,177.74166666666667,68.0,99.0
185,177.89833333333334,179.51333333333335,69.0,93.0
186,179.89833333333334,180.20166666666668,69.0,100.0
187,180.29833333333335,180.49166666666667,71.0,112.0
188,180.69833333333335,180.895,73.0,127.0
189,181.09833333333336,181.19,76.0,112.0
190,181.29833333333335,182.17000000000002,76.0,122.0
191,183.09833333333336,183.37666666666667,73.0,127.0
192,183.49833333333333,183.72,71.0,107.0
193,183.89833333333334,184.14000000000001,69.0,102.0
194,184.29833333333335,184.37833333333336,71.0,127.0
195,184.49833333333333,185.63000000000002,73.0,127.0
196,186.29833333333335,186.56833333333336,69.0,112.0
197,186.69833333333335,186.93,71.0,100.0
198,187.09833333333336,187.30833333333334,73.0,127.0
199,187.49833333333333,187.58833333333334,81.0,122.0
200,187.69833333333335,188.03166666666667,81.0,122.0
201,188.09833333333336,188.24333333333334,83.0,122.0
202,188.29833333333335,188.86833333333334,81.0,117.0
203,189.09833333333336,189.32666666666668,81.0,127.0
204,189.49833333333333,189.76833333333335,80.0,127.0
205,189.89833333333334,190.12833333333336,78.0,127.0
206,190.29833333333335,190.59166666666667,76.0,127.0
207,190.69833333333335,190.79666666666668,78.0,127.0
208,190.89833333333334,191.24333333333334,78.0,122.0
209,191.29833333333335,192.18333333333334,76.0,112.0
210,192.69833333333335,192.9766666666667,69.0,112.0
211,193.09833333333336,193.345,71.0,97.0
212,193.49833333333333,193.7866666666667,73.0,122.0
213,193.89833333333334,193.97833333333335,76.0,127.0
214,194.09833333333336,194.86833333333334,76.0,127.0
215,195.89833333333334,196.13500000000002,73.0,127.0
216,196.29833333333335,196.51833333333335,71.0,102.0
217,196.69833333333335,196.88500000000002,69.0,112.0
218,197.09833333333336,197.19833333333335,71.0,122.0
219,197.29833333333335,198.25833333333335,69.0,112.0
220,199.09833333333336,199.35666666666668,69.0,107.0
221,199.49833333333333,199.74333333333334,71.0,112.0
222,199.89833333333334,200.16833333333335,73.0,122.0
223,200.29833333333335,200.54500000000002,76.0,127.0
224,200.69833333333335,201.09,76.0,127.0
225,201.09833333333336,201.35000000000002,74.0,122.0
226,201.49833333333333,201.735,74.0,112.0
227,201.89833333333334,202.19000000000003,73.0,127.0
228,202.29833333333335,202.89000000000001,81.0,127.0
229,203.09833333333336,203.32666666666668,73.0,127.0
230,203.49833333333333,203.89000000000001,73.0,127.0
231,203.89833333333334,204.91500000000002,71.0,117.0
232,205.49833333333333,205.77666666666667,69.0,112.0
233,205.89833333333334,206.145,71.0,97.0
234,206.29833333333335,206.58666666666667,73.0,122.0
235,206.69833333333335,206.77833333333334,76.0,127.0
236,206.89833333333334,207.66833333333335,76.0,127.0
237,208.69833333333335,208.935,73.0,127.0
238,209.09833333333336,209.31833333333336,71.0,102.0
239,209.49833333333333,209.685,69.0,112.0
240,209.89833333333334,209.99833333333333,71.0,122.0
241,210.09833333333336,211.05833333333334,73.0,112.0
242,211.89833333333334,212.15666666666667,69.0,107.0
243,212.29833333333335,212.54333333333335,71.0,112.0
244,212.69833333333335,212.90833333333336,73.0,127.0
245,213.09833333333336,213.18833333333336,81.0,122.0
246,213.29833333333335,213.6316666666667,81.0,122.0
247,213.69833333333335,213.84333333333333,83.0,122.0
248,213.89833333333334,214.46833333333333,81.0,117.0
249,214.69833333333335,214.92666666666668,81.0,127.0
250,215.09833333333336,215.36833333333334,80.0,127.0
251,215.49833333333333,215.72833333333335,78.0,127.0
252,215.89833333333334,216.1916666666667,76.0,127.0
253,216.29833333333335,216.39666666666668,78.0,127.0
254,216.49833333333333,216.84333333333333,78.0,122.0
255,216.89833333333334,217.78333333333336,76.0,112.0
256,218.29833333333335,218.57666666666668,69.0,112.0
257,218.69833333333335,218.94500000000002,71.0,97.0
258,219.09833333333336,219.38666666666668,73.0,122.0
259,219.49833333333333,219.57833333333335,76.0,127.0
260,219.69833333333335,220.46833333333333,76.0,127.0
261,221.49833333333333,221.735,73.0,127.0
262,221.89833333333334,222.11833333333334,71.0,102.0
263,222.29833333333335,222.485,69.0,112.0
264,222.69833333333335,222.79833333333335,71.0,122.0
265,222.89833333333334,223.85833333333335,69.0,112.0
266,224.69833333333335,224.96333333333334,69.0,112.0
267,225.09833333333336,225.33333333333334,71.0,102.0
268,225.49833333333333,225.70000000000002,73.0,117.0
269,225.89833333333334,226.0366666666667,76.0,112.0
270,226.09833333333336,227.37833333333336,69.0,107.0
271,227.89833333333334,228.19333333333336,69.0,127.0
272,228.29833333333335,228.555,68.0,117.0
273,228.69833333333335,228.925,66.0,122.0
274,230.29833333333335,230.96833333333336,68.0,127.0
275,231.09833333333336,231.30166666666668,69.0,117.0
276,231.29833333333335,231.48666666666668,68.0,122.0
277,231.49833333333333,234.29833333333335,69.0,100.0
278,234.69833333333335,237.67166666666668,81.0,127.0
279,237.89833333333334,238.58666666666667,85.0,127.0
280,238.69833333333335,239.26500000000001,83.0,127.0
281,239.49833333333333,239.69000000000003,81.0,107.0
282,239.69833333333335,239.89166666666668,83.0,97.0
283,239.89833333333334,240.3,78.0,127.0
284,240.29833333333335,240.72833333333335,76.0,95.0
285,240.69833333333335,241.30166666666668,78.0,127.0
