,start,end,pitch,velocity
0,2.2983333333333333,3.796666666666667,38.0,95.0
1,3.0983333333333336,3.9050000000000002,50.0,83.0
2,2.6983333333333337,3.921666666666667,45.0,64.0
3,3.4983333333333335,4.08,66.0,89.0
4,4.698333333333333,5.265000000000001,52.0,75.0
5,3.8983333333333334,5.266666666666667,40.0,71.0
6,4.298333333333334,5.308333333333334,47.0,65.0
7,5.098333333333334,5.536666666666667,59.0,69.0
8,4.698333333333333,5.541666666666667,64.0,72.0
9,4.698333333333333,5.548333333333334,68.0,81.0
10,5.898333333333333,6.45,52.0,68.0
11,5.498333333333334,6.936666666666667,45.0,75.0
12,6.698333333333334,7.546666666666667,57.0,68.0
13,6.298333333333334,7.5600000000000005,64.0,83.0
14,6.298333333333334,7.571666666666667,61.0,97.0
15,7.498333333333334,7.983333333333334,52.0,79.0
16,7.098333333333334,8.063333333333334,45.0,72.0
17,8.098333333333334,8.705,61.0,78.0
18,7.898333333333333,8.713333333333335,64.0,97.0
19,8.298333333333334,9.046666666666667,57.0,88.0
20,8.698333333333334,9.641666666666667,38.0,78.0
21,9.098333333333334,9.65,45.0,57.0
22,9.898333333333333,10.345,62.0,66.0
23,10.098333333333334,10.360000000000001,57.0,63.0
24,9.498333333333333,10.360000000000001,66.0,122.0
25,10.298333333333334,11.386666666666667,40.0,90.0
26,10.698333333333334,11.4,47.0,53.0
27,11.098333333333334,11.588333333333335,52.0,56.0
28,11.498333333333335,11.903333333333334,64.0,66.0
29,11.098333333333334,11.913333333333334,68.0,102.0
30,12.298333333333334,12.775,52.0,58.0
31,11.898333333333333,13.328333333333335,45.0,78.0
32,12.898333333333333,13.483333333333334,52.0,54.0
33,13.098333333333334,13.751666666666667,57.0,69.0
34,13.298333333333334,14.075000000000001,67.0,77.0
35,13.698333333333334,14.353333333333333,52.0,74.0
36,13.898333333333333,14.538333333333334,57.0,66.0
37,14.098333333333334,14.778333333333334,61.0,83.0
38,13.498333333333335,14.946666666666667,45.0,88.0
39,14.498333333333335,14.946666666666667,52.0,71.0
40,14.898333333333333,15.065000000000001,61.0,90.0
41,12.698333333333334,15.068333333333335,64.0,93.0
42,14.298333333333334,15.080000000000002,67.0,95.0
43,14.698333333333334,15.146666666666668,57.0,73.0
44,15.098333333333334,16.12666666666667,50.0,78.0
45,16.298333333333336,16.630000000000003,62.0,72.0
46,15.498333333333335,16.631666666666668,57.0,81.0
47,15.898333333333335,16.645,66.0,107.0
48,16.698333333333334,17.541666666666668,49.0,76.0
49,17.098333333333333,17.585,61.0,85.0
50,17.498333333333335,18.25,65.0,69.0
51,17.498333333333335,18.333333333333336,68.0,76.0
52,17.898333333333333,18.355,61.0,66.0
53,18.698333333333334,19.256666666666668,49.0,42.0
54,18.298333333333336,19.305,42.0,81.0
55,19.098333333333336,19.436666666666667,54.0,71.0
56,19.498333333333335,19.683333333333334,57.0,62.0
57,19.098333333333336,19.755000000000003,66.0,82.0
58,19.098333333333336,19.82166666666667,61.0,89.0
59,19.898333333333333,20.873333333333335,51.0,66.0
60,19.898333333333333,21.19666666666667,66.0,95.0
61,19.898333333333333,21.226666666666667,59.0,69.0
62,19.898333333333333,21.228333333333335,63.0,88.0
63,21.498333333333335,22.206666666666667,62.0,77.0
64,21.498333333333335,22.221666666666668,66.0,71.0
65,21.498333333333335,22.538333333333334,38.0,60.0
66,22.298333333333336,22.78166666666667,66.0,69.0
67,21.498333333333335,22.82,57.0,71.0
68,22.298333333333336,22.975,62.0,71.0
69,23.098333333333336,23.78666666666667,64.0,63.0
70,23.098333333333336,23.85,59.0,72.0
71,23.098333333333336,24.128333333333334,40.0,63.0
72,23.498333333333335,24.143333333333334,47.0,38.0
73,23.898333333333333,24.610000000000003,52.0,62.0
74,23.898333333333333,24.69,64.0,90.0
75,23.098333333333336,24.69666666666667,68.0,56.0
76,24.298333333333336,24.775000000000002,59.0,66.0
77,25.098333333333336,25.618333333333336,52.0,50.0
78,25.498333333333335,26.178333333333335,64.0,77.0
79,25.498333333333335,26.208333333333336,62.0,82.0
80,24.698333333333334,26.255000000000003,45.0,73.0
81,25.898333333333333,26.30666666666667,52.0,68.0
82,26.298333333333336,27.728333333333335,45.0,86.0
83,25.498333333333335,27.905,57.0,70.0
84,26.298333333333336,27.951666666666668,61.0,61.0
85,26.298333333333336,28.00166666666667,64.0,58.0
86,28.298333333333336,28.823333333333334,52.0,48.0
87,29.098333333333336,29.590000000000003,52.0,41.0
88,28.698333333333334,30.085,64.0,75.0
89,29.498333333333335,30.241666666666667,61.0,63.0
90,29.898333333333337,30.333333333333336,52.0,45.0
91,27.898333333333333,30.486666666666668,45.0,67.0
92,30.298333333333336,31.303333333333335,64.0,88.0
93,30.698333333333334,31.345000000000002,61.0,57.0
94,31.098333333333336,32.59166666666667,44.0,76.0
95,31.498333333333335,32.77666666666667,56.0,50.0
96,32.29833333333333,33.18,61.0,60.0
97,31.898333333333337,33.25166666666667,64.0,83.0
98,33.098333333333336,33.64666666666667,56.0,47.0
99,32.69833333333334,34.05666666666667,44.0,53.0
100,33.89833333333333,34.23166666666667,57.0,48.0
101,33.498333333333335,34.34666666666667,64.0,85.0
102,33.498333333333335,34.36,61.0,93.0
103,34.69833333333334,35.23833333333334,55.0,63.0
104,35.498333333333335,36.038333333333334,55.0,66.0
105,35.098333333333336,36.47,64.0,86.0
106,35.89833333333333,36.50333333333334,61.0,51.0
107,34.29833333333333,37.00333333333334,43.0,70.0
108,36.69833333333334,37.54,64.0,77.0
109,37.098333333333336,37.54666666666667,61.0,56.0
110,36.29833333333334,37.55666666666667,55.0,52.0
111,38.29833333333334,39.318333333333335,50.0,72.0
112,38.69833333333334,39.96333333333334,57.0,63.0
113,39.498333333333335,40.07,50.0,48.0
114,37.498333333333335,40.155,38.0,78.0
115,37.89833333333333,40.255,45.0,50.0
116,39.098333333333336,40.67666666666667,66.0,85.0
117,40.29833333333334,40.973333333333336,57.0,57.0
118,39.89833333333333,41.25,62.0,64.0
119,40.69833333333334,42.25166666666667,41.0,72.0
120,41.098333333333336,42.57,57.0,55.0
121,41.498333333333335,42.63,65.0,75.0
122,41.89833333333333,42.665000000000006,62.0,52.0
123,42.29833333333334,42.98833333333334,41.0,47.0
124,43.098333333333336,43.873333333333335,65.0,76.0
125,42.69833333333334,43.89833333333333,57.0,56.0
126,43.498333333333335,43.89833333333333,62.0,52.0
127,43.89833333333333,44.95166666666667,37.0,77.0
128,44.29833333333334,45.13166666666667,49.0,37.0
129,44.69833333333334,45.44833333333334,56.0,78.0
130,45.098333333333336,45.52166666666667,52.0,67.0
131,45.89833333333333,46.51166666666667,54.0,50.0
132,45.498333333333335,46.71166666666667,42.0,61.0
133,46.29833333333334,47.028333333333336,57.0,63.0
134,46.29833333333334,47.053333333333335,61.0,81.0
135,47.098333333333336,48.505,47.0,70.0
136,47.498333333333335,48.73833333333334,54.0,42.0
137,47.89833333333333,49.315000000000005,62.0,75.0
138,47.89833333333333,49.31666666666667,66.0,72.0
139,48.29833333333334,49.32333333333334,59.0,48.0
140,49.098333333333336,49.60333333333334,54.0,41.0
141,48.69833333333334,49.795,47.0,62.0
142,49.498333333333335,50.36666666666667,66.0,64.0
143,49.498333333333335,50.37833333333334,62.0,67.0
144,49.89833333333333,50.400000000000006,59.0,59.0
145,51.498333333333335,51.945,56.0,75.0
146,51.89833333333333,51.97666666666667,59.0,92.0
147,51.098333333333336,52.80833333333334,52.0,86.0
148,50.29833333333334,52.82833333333334,40.0,73.0
149,50.69833333333334,52.86333333333334,47.0,58.0
150,53.098333333333336,53.52333333333333,68.0,52.0
151,52.29833333333334,53.538333333333334,64.0,66.0
152,52.69833333333334,53.538333333333334,71.0,93.0
153,53.89833333333333,54.465,52.0,69.0
154,54.69833333333334,55.290000000000006,52.0,53.0
155,55.098333333333336,55.75166666666667,61.0,61.0
156,55.498333333333335,55.925000000000004,52.0,66.0
157,53.498333333333335,56.02,45.0,78.0
158,56.29833333333334,56.903333333333336,61.0,61.0
159,54.29833333333334,57.02,57.0,93.0
160,55.89833333333333,57.08166666666667,64.0,90.0
161,57.098333333333336,57.63166666666667,56.0,62.0
162,57.89833333333334,58.495000000000005,56.0,71.0
163,57.498333333333335,58.97166666666667,64.0,89.0
164,58.29833333333334,58.98833333333334,61.0,93.0
165,58.69833333333334,59.18166666666667,56.0,76.0
166,59.29833333333334,59.45166666666667,56.0,66.0
167,56.69833333333334,59.54833333333334,44.0,79.0
168,59.498333333333335,59.95,61.0,77.0
169,59.098333333333336,59.98500000000001,64.0,90.0
170,60.29833333333334,61.748333333333335,55.0,63.0
171,60.69833333333334,62.12500000000001,64.0,89.0
172,61.498333333333335,62.14166666666667,61.0,95.0
173,59.89833333333334,62.32000000000001,43.0,70.0
174,61.89833333333334,62.330000000000005,55.0,42.0
175,62.29833333333334,63.00000000000001,64.0,90.0
176,61.098333333333336,63.098333333333336,57.0,70.0
177,62.69833333333334,63.098333333333336,61.0,52.0
178,63.498333333333335,64.08500000000001,54.0,59.0
179,64.29833333333333,64.875,54.0,59.0
180,63.89833333333334,64.88333333333334,57.0,75.0
181,64.69833333333334,65.58500000000001,62.0,71.0
182,65.09833333333334,65.815,54.0,49.0
183,63.098333333333336,66.055,42.0,89.0
184,65.49833333333333,66.22333333333334,57.0,77.0
185,65.89833333333334,66.23666666666666,62.0,69.0
186,64.69833333333334,66.26833333333333,66.0,83.0
187,67.09833333333334,67.17,57.0,36.0
188,66.69833333333334,67.295,50.0,57.0
189,67.49833333333333,67.98833333333334,50.0,43.0
190,67.09833333333334,68.43666666666667,62.0,70.0
191,67.09833333333334,68.455,65.0,68.0
192,68.29833333333333,68.735,50.0,49.0
193,66.29833333333333,68.81333333333333,41.0,72.0
194,69.09833333333334,69.485,62.0,58.0
195,68.69833333333334,69.49833333333333,65.0,73.0
196,67.89833333333334,69.565,57.0,72.0
197,69.49833333333333,70.58500000000001,37.0,90.0
198,69.89833333333334,71.01666666666667,49.0,72.0
199,70.29833333333333,71.06666666666668,52.0,82.0
200,70.69833333333334,71.16166666666668,61.0,77.0
201,71.09833333333334,72.05666666666667,42.0,90.0
202,71.49833333333333,72.135,54.0,65.0
203,72.29833333333333,72.70833333333334,57.0,73.0
204,71.89833333333334,72.70833333333334,61.0,100.0
205,73.09833333333334,73.555,54.0,56.0
206,72.69833333333334,73.64833333333334,47.0,71.0
207,73.49833333333333,74.105,66.0,97.0
208,74.29833333333333,75.31500000000001,40.0,78.0
209,74.69833333333334,75.345,47.0,44.0
210,75.09833333333334,75.52666666666667,52.0,66.0
211,75.49833333333333,75.89,64.0,73.0
212,75.09833333333334,75.91833333333334,68.0,102.0
213,73.89833333333334,75.92500000000001,59.0,73.0
214,76.29833333333333,76.76333333333334,52.0,79.0
215,77.09833333333334,77.385,57.0,90.0
216,75.89833333333334,77.39,45.0,85.0
217,76.69833333333334,77.40333333333334,64.0,97.0
218,76.89833333333334,77.48666666666666,52.0,88.0
219,77.49833333333333,78.14333333333335,67.0,92.0
220,77.49833333333333,78.15833333333333,64.0,99.0
221,77.49833333333333,78.17833333333334,61.0,122.0
222,77.89833333333334,78.375,52.0,90.0
223,77.49833333333333,78.44166666666668,57.0,97.0
224,78.49833333333333,78.63833333333334,52.0,93.0
225,77.49833333333333,78.67500000000001,45.0,88.0
226,78.29833333333333,78.795,61.0,55.0
227,78.89833333333334,79.08333333333334,61.0,93.0
228,78.29833333333333,79.11500000000001,67.0,95.0
229,78.29833333333333,79.14166666666667,64.0,70.0
230,78.69833333333334,79.16000000000001,57.0,89.0
231,79.49833333333333,80.12,45.0,88.0
232,79.89833333333334,80.265,57.0,92.0
233,79.89833333333334,80.39,50.0,89.0
234,80.29833333333333,80.50166666666667,45.0,93.0
235,79.09833333333334,80.51833333333335,38.0,97.0
236,80.29833333333333,80.63333333333334,57.0,88.0
237,79.89833333333334,80.65,66.0,117.0
238,80.69833333333334,81.85666666666667,40.0,70.0
239,81.49833333333333,81.93,52.0,86.0
240,81.89833333333334,81.93,52.0,90.0
241,81.49833333333333,81.99333333333334,59.0,93.0
242,81.09833333333334,82.02000000000001,47.0,93.0
243,81.49833333333333,82.275,68.0,117.0
244,82.09833333333334,82.29833333333333,40.0,97.0
245,82.69833333333334,83.02000000000001,57.0,86.0
246,82.89833333333334,83.09166666666667,61.0,117.0
247,82.49833333333333,83.15833333333335,52.0,83.0
248,82.29833333333333,83.74166666666667,45.0,78.0
249,83.69833333333334,83.93,57.0,88.0
250,83.09833333333334,83.95,64.0,95.0
251,84.29833333333333,84.49000000000001,57.0,90.0
252,84.09833333333334,84.79666666666667,52.0,77.0
253,83.89833333333334,85.06166666666667,45.0,89.0
254,84.49833333333333,85.17166666666667,61.0,107.0
255,84.69833333333334,85.49000000000001,64.0,96.0
256,85.29833333333333,85.52000000000001,61.0,127.0
257,85.89833333333334,86.345,50.0,85.0
258,86.09833333333334,86.52166666666668,57.0,96.0
259,85.49833333333333,86.93333333333334,38.0,93.0
260,85.69833333333334,87.04833333333333,45.0,93.0
261,86.29833333333333,87.06833333333334,66.0,117.0
262,86.89833333333334,87.14666666666668,57.0,99.0
263,87.49833333333333,87.93833333333333,52.0,86.0
264,87.69833333333334,88.05833333333334,59.0,100.0
265,87.09833333333334,88.17166666666667,40.0,83.0
266,87.29833333333333,88.21166666666667,47.0,81.0
267,88.49833333333333,88.74833333333333,59.0,100.0
268,89.09833333333334,89.33833333333334,57.0,86.0
269,89.29833333333333,89.45166666666667,61.0,127.0
270,88.69833333333334,89.61500000000001,45.0,72.0
271,88.89833333333334,89.61500000000001,52.0,79.0
272,89.69833333333334,90.15166666666667,45.0,54.0
273,90.09833333333334,90.29333333333334,57.0,96.0
274,89.49833333333333,90.40666666666667,64.0,99.0
275,90.69833333333334,91.18,55.0,96.0
276,90.49833333333333,91.235,52.0,93.0
277,90.89833333333334,91.43166666666667,57.0,99.0
278,90.29833333333335,91.54833333333335,45.0,93.0
279,91.09833333333334,91.83666666666667,64.0,102.0
280,91.69833333333334,92.07833333333333,57.0,93.0
281,91.89833333333334,92.54833333333335,38.0,83.0
282,92.29833333333335,92.55833333333334,50.0,89.0
283,92.09833333333334,92.61666666666667,45.0,90.0
284,92.49833333333333,92.84,57.0,95.0
285,93.29833333333335,93.42166666666667,62.0,88.0
286,92.69833333333334,93.43833333333333,66.0,127.0
287,93.89833333333334,94.34666666666668,49.0,88.0
288,94.09833333333334,94.42833333333334,53.0,88.0
289,93.69833333333334,94.54833333333335,44.0,36.0
290,93.49833333333333,94.56,37.0,92.0
291,94.29833333333335,95.06333333333333,61.0,107.0
292,94.89833333333334,95.07333333333334,53.0,83.0
293,95.49833333333333,95.94833333333334,54.0,90.0
294,95.69833333333334,96.15833333333335,57.0,86.0
295,95.29833333333335,96.18,49.0,35.0
296,95.09833333333334,96.28833333333334,42.0,78.0
297,95.89833333333334,96.67833333333334,66.0,117.0
298,96.49833333333333,96.68166666666667,57.0,89.0
299,96.89833333333334,97.19333333333334,59.0,60.0
300,97.09833333333334,97.37833333333334,63.0,95.0
301,97.29833333333335,97.59,59.0,78.0
302,96.69833333333334,97.78833333333334,51.0,107.0
303,98.09833333333334,98.25500000000001,63.0,82.0
304,97.49833333333333,98.27833333333334,66.0,122.0
305,98.69833333333334,99.15166666666667,50.0,82.0
306,98.49833333333333,99.34333333333333,45.0,81.0
307,98.29833333333335,99.35000000000001,38.0,77.0
308,98.89833333333334,99.48833333333334,57.0,89.0
309,99.09833333333334,99.90166666666667,66.0,127.0
310,99.69833333333334,99.92,57.0,97.0
311,100.29833333333335,100.775,59.0,81.0
312,100.09833333333334,100.80166666666668,54.0,86.0
313,99.89833333333334,101.08000000000001,47.0,90.0
314,100.49833333333333,101.14333333333335,62.0,97.0
315,100.69833333333334,101.39666666666668,66.0,127.0
316,101.29833333333335,101.47666666666667,62.0,107.0
317,101.89833333333334,102.32000000000001,52.0,97.0
318,102.09833333333334,102.41000000000001,59.0,95.0
319,102.49833333333333,102.66166666666668,52.0,100.0
320,101.49833333333333,102.97500000000001,40.0,100.0
321,101.69833333333334,103.12166666666667,47.0,102.0
322,102.69833333333334,103.515,59.0,89.0
323,103.49833333333333,103.97833333333334,52.0,90.0
324,103.69833333333334,104.18166666666667,59.0,89.0
325,103.29833333333335,104.29833333333335,47.0,88.0
326,103.09833333333334,104.33333333333334,40.0,89.0
327,104.49833333333333,104.71833333333333,59.0,97.0
328,105.09833333333334,105.545,50.0,79.0
329,105.29833333333335,105.71000000000001,57.0,95.0
330,104.69833333333334,106.13666666666667,38.0,81.0
331,104.89833333333334,106.28333333333335,45.0,82.0
332,105.49833333333333,106.325,66.0,97.0
333,106.09833333333334,106.36000000000001,57.0,93.0
334,106.69833333333334,107.16166666666668,52.0,85.0
335,106.89833333333334,107.21166666666667,59.0,92.0
336,106.29833333333335,107.48166666666667,40.0,86.0
337,106.49833333333333,107.48500000000001,47.0,81.0
338,107.69833333333334,107.92666666666668,59.0,95.0
339,108.49833333333333,108.75500000000001,61.0,83.0
340,108.29833333333335,108.75666666666667,57.0,66.0
341,108.09833333333334,108.78166666666668,52.0,35.0
342,107.89833333333334,109.36500000000001,45.0,76.0
343,109.29833333333335,109.63833333333334,57.0,95.0
344,108.69833333333334,110.02666666666667,64.0,96.0
345,110.09833333333334,110.28,61.0,102.0
346,109.69833333333334,110.385,52.0,83.0
347,109.89833333333334,110.43333333333334,57.0,86.0
348,109.49833333333333,110.74833333333333,45.0,86.0
349,110.29833333333335,111.01,64.0,102.0
350,110.89833333333334,111.105,57.0,95.0
351,111.49833333333333,111.94666666666667,50.0,83.0
352,111.69833333333334,112.03166666666668,57.0,95.0
353,111.09833333333334,112.605,38.0,73.0
354,111.89833333333334,112.69333333333334,66.0,117.0
355,111.29833333333335,112.7,45.0,92.0
356,112.49833333333333,112.72666666666667,57.0,99.0
357,113.09833333333334,113.58166666666668,52.0,86.0
358,113.29833333333335,113.68666666666667,59.0,90.0
359,112.69833333333334,113.855,40.0,92.0
360,112.89833333333334,113.87833333333334,47.0,90.0
361,114.09833333333334,114.325,59.0,96.0
362,114.69833333333334,115.07666666666667,57.0,92.0
363,114.89833333333334,115.07833333333335,61.0,127.0
364,114.49833333333333,115.135,52.0,83.0
365,114.29833333333335,115.75500000000001,45.0,79.0
366,115.69833333333334,115.89,57.0,97.0
367,115.09833333333334,116.32333333333334,64.0,99.0
368,116.29833333333335,116.80333333333334,55.0,92.0
369,116.49833333333333,116.94666666666667,57.0,96.0
370,116.09833333333334,117.08666666666667,52.0,99.0
371,115.89833333333334,117.14166666666668,45.0,82.0
372,116.69833333333334,117.44333333333334,64.0,93.0
373,117.29833333333335,117.67666666666668,57.0,92.0
374,117.89833333333334,118.34,50.0,86.0
375,117.49833333333333,118.58000000000001,38.0,75.0
376,118.09833333333334,118.60166666666667,57.0,93.0
377,117.69833333333334,118.60333333333334,45.0,78.0
378,118.29833333333335,119.06833333333334,66.0,117.0
379,118.89833333333334,119.12,57.0,92.0
380,119.49833333333333,119.95833333333334,49.0,85.0
381,119.69833333333334,119.99833333333333,53.0,79.0
382,119.29833333333335,120.22000000000001,44.0,35.0
383,119.09833333333334,120.22833333333334,37.0,68.0
384,119.89833333333334,120.33333333333334,56.0,112.0
385,120.49833333333333,120.65833333333335,56.0,100.0
386,121.29833333333335,121.48500000000001,61.0,100.0
387,120.89833333333334,121.53500000000001,54.0,90.0
388,121.09833333333334,121.665,57.0,74.0
389,120.69833333333334,121.84166666666667,42.0,93.0
390,122.09833333333334,122.24333333333334,61.0,92.0
391,121.49833333333333,122.29333333333334,66.0,100.0
392,122.69833333333334,123.33833333333334,51.0,66.0
393,122.29833333333335,123.52833333333334,39.0,99.0
394,123.09833333333334,124.11833333333334,66.0,100.0
395,124.29833333333335,124.76,59.0,73.0
396,123.89833333333334,125.02000000000001,47.0,85.0
397,124.69833333333334,125.47833333333334,66.0,92.0
398,124.69833333333334,125.52666666666667,62.0,66.0
399,125.09833333333334,125.54,59.0,76.0
400,125.49833333333333,126.50166666666668,40.0,85.0
401,125.89833333333334,126.52833333333334,47.0,47.0
402,126.29833333333335,126.73166666666667,52.0,79.0
403,126.29833333333335,127.05833333333334,68.0,95.0
404,126.29833333333335,127.08500000000001,64.0,88.0
405,126.69833333333334,127.14666666666668,59.0,79.0
406,127.69833333333334,127.93333333333334,59.0,73.0
407,127.49833333333333,127.97000000000001,57.0,74.0
408,127.29833333333335,128.0,52.0,69.0
409,127.09833333333334,128.61833333333334,45.0,70.0
410,128.09833333333333,128.68333333333334,52.0,73.0
411,127.89833333333334,129.37833333333333,64.0,96.0
412,128.29833333333335,129.41666666666669,61.0,99.0
413,128.49833333333333,129.42333333333335,59.0,58.0
414,128.69833333333335,129.45166666666668,57.0,93.0
415,129.09833333333333,129.62,52.0,73.0
416,128.69833333333335,130.04166666666669,45.0,89.0
417,129.89833333333334,130.32833333333335,57.0,60.0
418,129.49833333333333,130.335,59.0,79.0
419,129.49833333333333,130.33666666666667,61.0,102.0
420,129.49833333333333,130.36166666666668,64.0,93.0
421,131.09833333333333,131.53333333333333,50.0,39.0
422,130.29833333333335,131.595,38.0,66.0
423,130.69833333333335,131.805,45.0,51.0
424,131.49833333333333,131.96833333333333,57.0,54.0
425,131.89833333333334,132.83,40.0,61.0
426,132.29833333333335,132.85833333333335,47.0,52.0
427,132.69833333333335,133.49833333333333,59.0,71.0
428,133.89833333333334,135.27166666666668,52.0,51.0
429,134.29833333333335,135.71333333333334,64.0,73.0
430,135.09833333333333,135.74833333333333,61.0,51.0
431,135.49833333333333,135.93,52.0,48.0
432,133.49833333333333,136.04833333333335,45.0,65.0
433,136.29833333333335,136.72500000000002,61.0,43.0
434,135.89833333333334,136.76000000000002,64.0,85.0
435,134.69833333333335,137.0716666666667,57.0,53.0
436,137.49833333333333,137.95166666666668,50.0,77.0
437,136.69833333333335,137.99,38.0,68.0
438,137.09833333333333,138.29333333333335,45.0,48.0
439,137.89833333333334,138.34,57.0,72.0
440,138.29833333333335,139.25166666666667,40.0,61.0
441,138.69833333333335,139.2566666666667,47.0,42.0
442,139.49833333333333,139.8516666666667,56.0,45.0
443,139.09833333333333,139.90666666666667,59.0,79.0
444,140.29833333333335,140.86333333333334,52.0,53.0
445,141.09833333333333,141.65,52.0,38.0
446,141.49833333333333,142.33,61.0,50.0
447,141.89833333333334,142.34,52.0,52.0
448,142.49833333333333,142.835,52.0,71.0
449,142.69833333333335,143.06,61.0,107.0
450,139.89833333333334,143.06333333333333,45.0,68.0
451,142.29833333333335,143.085,57.0,102.0
452,140.69833333333335,143.09666666666666,64.0,82.0
453,143.29833333333335,143.585,59.0,75.0
454,143.49833333333333,143.79500000000002,63.0,97.0
455,143.69833333333335,143.98833333333334,59.0,82.0
456,144.09833333333333,144.34833333333333,59.0,90.0
457,143.09833333333333,144.50166666666667,51.0,112.0
458,144.29833333333335,144.615,63.0,95.0
459,143.89833333333334,144.675,66.0,117.0
460,144.49833333333333,144.72500000000002,59.0,83.0
461,144.89833333333334,145.17666666666668,57.0,82.0
462,145.09833333333333,145.39833333333334,62.0,71.0
463,144.69833333333335,145.53,50.0,88.0
464,145.29833333333335,145.61166666666668,57.0,82.0
465,145.69833333333335,145.94500000000002,57.0,82.0
466,145.89833333333334,146.22333333333333,62.0,68.0
467,145.49833333333333,146.22333333333333,66.0,107.0
468,146.09833333333333,146.32333333333335,57.0,92.0
469,146.49833333333333,146.8,56.0,59.0
470,146.69833333333335,146.98333333333335,61.0,53.0
471,146.89833333333334,147.15,56.0,70.0
472,147.29833333333335,147.53166666666667,56.0,83.0
473,147.49833333333333,147.85833333333335,61.0,76.0
474,146.29833333333335,147.88500000000002,49.0,89.0
475,147.69833333333335,147.88666666666668,56.0,102.0
476,147.09833333333333,147.89166666666668,64.0,89.0
477,148.29833333333335,148.76666666666668,54.0,71.0
478,148.49833333333333,148.86333333333334,57.0,93.0
479,148.09833333333333,148.89166666666668,49.0,43.0
480,147.89833333333334,149.01000000000002,42.0,89.0
481,148.89833333333334,149.11,54.0,79.0
482,149.09833333333333,149.44166666666666,57.0,86.0
483,149.29833333333335,149.45333333333335,61.0,96.0
484,148.69833333333335,149.54000000000002,66.0,95.0
485,149.89833333333334,150.25333333333333,59.0,82.0
486,150.09833333333333,150.29333333333335,62.0,61.0
487,149.69833333333335,150.41500000000002,54.0,82.0
488,150.49833333333333,150.615,54.0,66.0
489,149.49833333333333,150.64833333333334,47.0,67.0
490,150.29833333333335,151.02833333333334,66.0,99.0
491,150.69833333333335,151.035,62.0,83.0
492,150.89833333333334,151.16500000000002,59.0,83.0
493,151.49833333333333,151.96333333333334,52.0,82.0
494,151.09833333333333,152.25,40.0,67.0
495,151.29833333333335,152.25,47.0,81.0
496,151.69833333333335,152.29500000000002,59.0,95.0
497,152.09833333333333,152.40333333333334,52.0,72.0
498,152.29833333333335,152.68166666666667,64.0,85.0
499,151.89833333333334,152.71166666666667,68.0,100.0
500,152.49833333333333,152.75333333333333,59.0,83.0
501,153.09833333333333,153.41500000000002,57.0,86.0
502,152.89833333333334,153.55333333333334,52.0,78.0
503,153.29833333333335,153.55666666666667,59.0,76.0
504,152.69833333333335,154.1966666666667,45.0,71.0
505,153.69833333333335,154.33333333333334,52.0,47.0
506,153.89833333333334,155.05333333333334,61.0,100.0
507,153.49833333333333,155.07333333333335,64.0,89.0
508,154.09833333333333,155.07500000000002,59.0,72.0
509,155.09833333333333,155.81333333333333,61.0,60.0
510,155.09833333333333,155.84,59.0,63.0
511,155.09833333333333,155.86333333333334,64.0,70.0
512,154.29833333333335,155.87833333333333,45.0,81.0
513,154.29833333333335,155.88833333333335,57.0,86.0
514,156.29833333333335,156.865,52.0,69.0
515,157.09833333333336,157.69,52.0,53.0
516,157.49833333333333,158.15166666666667,61.0,61.0
517,157.89833333333334,158.32500000000002,52.0,66.0
518,155.89833333333334,158.42000000000002,45.0,78.0
519,158.69833333333335,159.30333333333334,61.0,61.0
520,156.69833333333335,159.42000000000002,57.0,93.0
521,158.29833333333335,159.48166666666668,64.0,90.0
522,159.49833333333333,160.03166666666667,56.0,62.0
523,160.29833333333335,160.895,56.0,71.0
524,159.89833333333334,161.37166666666667,64.0,89.0
525,160.69833333333335,161.38833333333335,61.0,93.0
526,161.09833333333336,161.58166666666668,56.0,76.0
527,161.69833333333335,161.8516666666667,56.0,66.0
528,159.09833333333336,161.94833333333335,44.0,79.0
529,161.89833333333334,162.35000000000002,61.0,77.0
530,161.49833333333333,162.38500000000002,64.0,90.0
531,162.69833333333335,164.14833333333334,55.0,63.0
532,163.09833333333336,164.525,64.0,89.0
533,163.89833333333334,164.54166666666669,61.0,95.0
534,162.29833333333335,164.72,43.0,70.0
535,164.29833333333335,164.73000000000002,55.0,42.0
536,164.69833333333335,165.4,64.0,90.0
537,163.49833333333333,165.49833333333333,57.0,70.0
538,165.09833333333336,165.49833333333333,61.0,52.0
539,165.89833333333334,166.485,54.0,59.0
540,166.69833333333335,167.275,54.0,59.0
541,166.29833333333335,167.28333333333333,57.0,75.0
542,167.09833333333336,167.985,62.0,71.0
543,167.49833333333333,168.215,54.0,49.0
544,165.49833333333333,168.455,42.0,89.0
545,167.89833333333334,168.62333333333333,57.0,77.0
546,168.29833333333335,168.63666666666668,62.0,69.0
547,167.09833333333336,168.66833333333335,66.0,83.0
548,169.49833333333333,169.57000000000002,57.0,36.0
549,169.09833333333336,169.69500000000002,50.0,57.0
550,169.89833333333334,170.38833333333335,50.0,43.0
551,169.49833333333333,170.83666666666667,62.0,70.0
552,169.49833333333333,170.85500000000002,65.0,68.0
553,170.69833333333335,171.13500000000002,50.0,49.0
554,168.69833333333335,171.21333333333334,41.0,72.0
555,171.49833333333333,171.88500000000002,62.0,58.0
556,171.09833333333336,171.89833333333334,65.0,73.0
557,170.29833333333335,171.965,57.0,72.0
558,171.89833333333334,172.985,37.0,90.0
559,172.29833333333335,173.41666666666669,49.0,72.0
560,172.69833333333335,173.46666666666667,52.0,82.0
561,173.09833333333336,173.56166666666667,61.0,77.0
562,173.49833333333333,174.45666666666668,42.0,90.0
563,173.89833333333334,174.53500000000003,54.0,65.0
564,174.69833333333335,175.10833333333335,57.0,73.0
565,174.29833333333335,175.10833333333335,61.0,100.0
566,175.49833333333333,175.955,54.0,56.0
567,175.09833333333336,176.04833333333335,47.0,71.0
568,175.89833333333334,176.50500000000002,66.0,97.0
569,176.69833333333335,177.715,40.0,78.0
570,177.09833333333336,177.745,47.0,44.0
571,177.49833333333333,177.92666666666668,52.0,66.0
572,177.89833333333334,178.29000000000002,64.0,73.0
573,177.49833333333333,178.31833333333336,68.0,102.0
574,176.29833333333335,178.32500000000002,59.0,73.0
575,178.69833333333335,179.16333333333336,52.0,79.0
576,179.49833333333333,179.78500000000003,57.0,90.0
577,178.29833333333335,179.79000000000002,45.0,85.0
578,179.09833333333336,179.80333333333334,64.0,97.0
579,179.29833333333335,179.88666666666668,52.0,88.0
580,179.89833333333334,180.54333333333335,67.0,92.0
581,179.89833333333334,180.55833333333334,64.0,99.0
582,179.89833333333334,180.57833333333335,61.0,122.0
583,180.29833333333335,180.775,52.0,90.0
584,179.89833333333334,180.84166666666667,57.0,97.0
585,180.89833333333334,181.03833333333336,52.0,93.0
586,179.89833333333334,181.07500000000002,45.0,88.0
587,180.69833333333335,181.19500000000002,61.0,55.0
588,181.29833333333335,181.48333333333335,61.0,93.0
589,180.69833333333335,181.51500000000001,67.0,95.0
590,180.69833333333335,181.54166666666669,64.0,70.0
591,181.09833333333336,181.56,57.0,89.0
592,181.89833333333334,182.52,45.0,88.0
593,182.29833333333335,182.66500000000002,57.0,92.0
594,182.29833333333335,182.79000000000002,50.0,89.0
595,182.69833333333335,182.90166666666667,45.0,93.0
596,181.49833333333333,182.91833333333335,38.0,97.0
597,182.69833333333335,183.03333333333333,57.0,88.0
598,182.29833333333335,183.05,66.0,117.0
599,183.09833333333336,184.2566666666667,40.0,70.0
600,183.89833333333334,184.33,52.0,86.0
601,184.29833333333335,184.33,52.0,90.0
602,183.89833333333334,184.39333333333335,59.0,93.0
603,183.49833333333333,184.42000000000002,47.0,93.0
604,183.89833333333334,184.675,68.0,117.0
605,184.49833333333333,184.69833333333335,40.0,97.0
606,185.09833333333336,185.42000000000002,57.0,86.0
607,185.29833333333335,185.49166666666667,61.0,117.0
608,184.89833333333334,185.55833333333334,52.0,83.0
609,184.69833333333335,186.14166666666668,45.0,78.0
610,186.09833333333336,186.33,57.0,88.0
611,185.49833333333333,186.35000000000002,64.0,95.0
612,186.69833333333335,186.89000000000001,57.0,90.0
613,186.49833333333333,187.1966666666667,52.0,77.0
614,186.29833333333335,187.46166666666667,45.0,89.0
615,186.89833333333334,187.5716666666667,61.0,107.0
616,187.09833333333336,187.89000000000001,64.0,96.0
617,187.69833333333335,187.92000000000002,61.0,127.0
618,188.29833333333335,188.745,50.0,85.0
619,188.49833333333333,188.92166666666668,57.0,96.0
620,187.89833333333334,189.33333333333334,38.0,93.0
621,188.09833333333336,189.44833333333335,45.0,93.0
622,188.69833333333335,189.46833333333333,66.0,117.0
623,189.29833333333335,189.54666666666668,57.0,99.0
624,189.89833333333334,190.33833333333334,52.0,86.0
625,190.09833333333336,190.45833333333334,59.0,100.0
626,189.49833333333333,190.5716666666667,40.0,83.0
627,189.69833333333335,190.61166666666668,47.0,81.0
628,190.89833333333334,191.14833333333334,59.0,100.0
629,191.49833333333333,191.73833333333334,57.0,86.0
630,191.69833333333335,191.8516666666667,61.0,127.0
631,191.09833333333336,192.01500000000001,45.0,72.0
632,191.29833333333335,192.01500000000001,52.0,79.0
633,192.09833333333336,192.55166666666668,45.0,54.0
634,192.49833333333333,192.69333333333336,57.0,96.0
635,191.89833333333334,192.80666666666667,64.0,99.0
636,193.09833333333336,193.58,55.0,96.0
637,192.89833333333334,193.63500000000002,52.0,93.0
638,193.29833333333335,193.83166666666668,57.0,99.0
639,192.69833333333335,193.94833333333335,45.0,93.0
640,193.49833333333333,194.23666666666668,64.0,102.0
641,194.09833333333336,194.47833333333335,57.0,93.0
642,194.29833333333335,194.94833333333335,38.0,83.0
643,194.69833333333335,194.95833333333334,50.0,89.0
644,194.49833333333333,195.01666666666668,45.0,90.0
645,194.89833333333334,195.24,57.0,95.0
646,195.69833333333335,195.8216666666667,62.0,88.0
647,195.09833333333336,195.83833333333334,66.0,127.0
648,196.29833333333335,196.74666666666667,49.0,88.0
649,196.49833333333333,196.82833333333335,53.0,88.0
650,196.09833333333336,196.94833333333335,44.0,36.0
651,195.89833333333334,196.96,37.0,92.0
652,196.69833333333335,197.46333333333334,61.0,107.0
653,197.29833333333335,197.47333333333336,53.0,83.0
654,197.89833333333334,198.34833333333336,54.0,90.0
655,198.09833333333336,198.55833333333334,57.0,86.0
656,197.69833333333335,198.58,49.0,35.0
657,197.49833333333333,198.68833333333333,42.0,78.0
658,198.29833333333335,199.07833333333335,66.0,117.0
659,198.89833333333334,199.08166666666668,57.0,89.0
660,199.29833333333335,199.59333333333333,59.0,60.0
661,199.49833333333333,199.77833333333334,63.0,95.0
662,199.69833333333335,199.99,59.0,78.0
663,199.09833333333336,200.18833333333333,51.0,107.0
664,200.49833333333333,200.655,63.0,82.0
665,199.89833333333334,200.67833333333334,66.0,122.0
666,201.09833333333336,201.55166666666668,50.0,82.0
667,200.89833333333334,201.74333333333334,45.0,81.0
668,200.69833333333335,201.75,38.0,77.0
669,201.29833333333335,201.88833333333335,57.0,89.0
670,201.49833333333333,202.30166666666668,66.0,127.0
671,202.09833333333336,202.32000000000002,57.0,97.0
672,202.69833333333335,203.175,59.0,81.0
673,202.49833333333333,203.20166666666668,54.0,86.0
674,202.29833333333335,203.48000000000002,47.0,90.0
675,202.89833333333334,203.54333333333335,62.0,97.0
676,203.09833333333336,203.79666666666668,66.0,127.0
677,203.69833333333335,203.8766666666667,62.0,107.0
678,204.29833333333335,204.72000000000003,52.0,97.0
679,204.49833333333333,204.81,59.0,95.0
680,204.89833333333334,205.06166666666667,52.0,100.0
681,203.89833333333334,205.375,40.0,100.0
682,204.09833333333336,205.52166666666668,47.0,102.0
683,205.09833333333336,205.91500000000002,59.0,89.0
684,205.89833333333334,206.37833333333336,52.0,90.0
685,206.09833333333336,206.58166666666668,59.0,89.0
686,205.69833333333335,206.69833333333335,47.0,88.0
687,205.49833333333333,206.73333333333335,40.0,89.0
688,206.89833333333334,207.11833333333334,59.0,97.0
689,207.49833333333333,207.94500000000002,50.0,79.0
690,207.69833333333335,208.11,57.0,95.0
691,207.09833333333336,208.5366666666667,38.0,81.0
692,207.29833333333335,208.68333333333334,45.0,82.0
693,207.89833333333334,208.72500000000002,66.0,97.0
694,208.49833333333333,208.76000000000002,57.0,93.0
695,209.09833333333336,209.56166666666667,52.0,85.0
696,209.29833333333335,209.61166666666668,59.0,92.0
697,208.69833333333335,209.8816666666667,40.0,86.0
698,208.89833333333334,209.88500000000002,47.0,81.0
699,210.09833333333336,210.32666666666668,59.0,95.0
700,210.89833333333334,211.155,61.0,83.0
701,210.69833333333335,211.15666666666667,57.0,66.0
702,210.49833333333333,211.18166666666667,52.0,35.0
703,210.29833333333335,211.76500000000001,45.0,76.0
704,211.69833333333335,212.03833333333336,57.0,95.0
705,211.09833333333336,212.42666666666668,64.0,96.0
706,212.49833333333333,212.68,61.0,102.0
707,212.09833333333336,212.78500000000003,52.0,83.0
708,212.29833333333335,212.83333333333334,57.0,86.0
709,211.89833333333334,213.14833333333334,45.0,86.0
710,212.69833333333335,213.41000000000003,64.0,102.0
711,213.29833333333335,213.50500000000002,57.0,95.0
712,213.89833333333334,214.3466666666667,50.0,83.0
713,214.09833333333336,214.43166666666667,57.0,95.0
714,213.49833333333333,215.00500000000002,38.0,73.0
715,214.29833333333335,215.09333333333333,66.0,117.0
716,213.69833333333335,215.10000000000002,45.0,92.0
717,214.89833333333334,215.1266666666667,57.0,99.0
718,215.49833333333333,215.98166666666668,52.0,86.0
719,215.69833333333335,216.08666666666667,59.0,90.0
720,215.09833333333336,216.25500000000002,40.0,92.0
721,215.29833333333335,216.27833333333334,47.0,90.0
722,216.49833333333333,216.72500000000002,59.0,96.0
723,217.09833333333336,217.4766666666667,57.0,92.0
724,217.29833333333335,217.47833333333335,61.0,127.0
725,216.89833333333334,217.53500000000003,52.0,83.0
726,216.69833333333335,218.155,45.0,79.0
727,218.09833333333336,218.29000000000002,57.0,97.0
728,217.49833333333333,218.72333333333336,64.0,99.0
729,218.69833333333335,219.20333333333335,55.0,92.0
730,218.89833333333334,219.3466666666667,57.0,96.0
731,218.49833333333333,219.48666666666668,52.0,99.0
732,218.29833333333335,219.54166666666669,45.0,82.0
733,219.09833333333336,219.84333333333333,64.0,93.0
734,219.69833333333335,220.07666666666668,57.0,92.0
735,220.29833333333335,220.74,50.0,86.0
736,219.89833333333334,220.98000000000002,38.0,75.0
737,220.49833333333333,221.0016666666667,57.0,93.0
738,220.09833333333336,221.00333333333336,45.0,78.0
739,220.69833333333335,221.46833333333333,66.0,117.0
740,221.29833333333335,221.52,57.0,92.0
741,221.89833333333334,222.35833333333335,49.0,85.0
742,222.09833333333336,222.39833333333334,53.0,79.0
743,221.69833333333335,222.62,44.0,35.0
744,221.49833333333333,222.62833333333336,37.0,68.0
745,222.29833333333335,222.73333333333335,56.0,112.0
746,222.89833333333334,223.05833333333334,56.0,100.0
747,223.69833333333335,223.88500000000002,61.0,100.0
748,223.29833333333335,223.935,54.0,90.0
749,223.49833333333333,224.06500000000003,57.0,74.0
750,223.09833333333336,224.24166666666667,42.0,93.0
751,224.49833333333333,224.64333333333335,61.0,92.0
752,223.89833333333334,224.69333333333336,66.0,100.0
753,225.09833333333336,225.73833333333334,51.0,66.0
754,224.69833333333335,225.92833333333334,39.0,99.0
755,225.49833333333333,226.51833333333335,66.0,100.0
756,226.69833333333335,227.16000000000003,59.0,73.0
757,226.29833333333335,227.42000000000002,47.0,85.0
758,227.09833333333336,227.87833333333336,66.0,92.0
759,227.09833333333336,227.92666666666668,62.0,66.0
760,227.49833333333333,227.94000000000003,59.0,76.0
761,229.49833333333333,230.19333333333336,68.0,56.0
762,229.49833333333333,230.22000000000003,64.0,52.0
763,228.69833333333335,230.4066666666667,52.0,74.0
764,229.09833333333336,230.45666666666668,59.0,48.0
765,228.29833333333335,230.46333333333334,47.0,42.0
766,227.89833333333334,230.57833333333335,40.0,83.0
767,230.29833333333335,230.92333333333335,64.0,79.0
768,230.29833333333335,230.98166666666668,68.0,97.0
769,230.69833333333335,231.1316666666667,59.0,96.0
770,231.49833333333333,231.925,50.0,81.0
771,231.69833333333335,232.155,57.0,86.0
772,232.09833333333336,232.25500000000002,50.0,81.0
773,231.09833333333336,232.3216666666667,38.0,78.0
774,231.29833333333335,232.63000000000002,45.0,81.0
775,232.29833333333335,232.66000000000003,62.0,72.0
776,231.89833333333334,232.685,66.0,117.0
777,232.49833333333333,232.73833333333334,57.0,92.0
778,233.09833333333336,233.52833333333334,52.0,88.0
779,232.89833333333334,233.82333333333335,47.0,86.0
780,232.69833333333335,233.82666666666668,40.0,77.0
781,233.29833333333335,233.925,59.0,88.0
782,233.89833333333334,234.30666666666667,64.0,81.0
783,233.49833333333333,234.33166666666668,68.0,122.0
784,234.09833333333336,234.3516666666667,59.0,88.0
785,234.69833333333335,235.01000000000002,57.0,73.0
786,234.89833333333334,235.09333333333336,61.0,122.0
787,234.49833333333333,235.14833333333334,52.0,72.0
788,234.29833333333335,235.72500000000002,45.0,75.0
789,235.29833333333335,235.87,52.0,70.0
790,235.69833333333335,235.935,57.0,93.0
791,235.49833333333333,235.98000000000002,61.0,95.0
792,235.09833333333336,236.02,64.0,96.0
793,236.29833333333335,236.555,57.0,96.0
794,236.49833333333333,236.8,59.0,97.0
795,236.09833333333336,236.80166666666668,52.0,90.0
796,236.89833333333334,237.0316666666667,52.0,92.0
797,235.89833333333334,237.09166666666667,45.0,90.0
798,237.09833333333336,237.405,61.0,112.0
799,236.69833333333335,237.41833333333335,64.0,102.0
800,237.29833333333335,237.56333333333336,57.0,95.0
801,237.89833333333334,238.36333333333334,50.0,83.0
802,238.09833333333336,238.57833333333335,57.0,90.0
803,237.49833333333333,238.90166666666667,38.0,81.0
804,237.69833333333335,239.05166666666668,45.0,53.0
805,238.69833333333335,239.07833333333335,62.0,90.0
806,238.29833333333335,239.10833333333335,66.0,99.0
807,238.89833333333334,239.14000000000001,57.0,89.0
808,239.49833333333333,239.95333333333335,52.0,89.0
809,239.69833333333335,240.07333333333335,59.0,97.0
810,239.09833333333336,240.23833333333334,40.0,86.0
811,239.29833333333335,240.25333333333336,47.0,85.0
812,240.29833333333335,240.35666666666668,66.0,39.0
813,240.09833333333336,240.59333333333336,52.0,90.0
814,239.89833333333334,240.6266666666667,68.0,127.0
815,240.29833333333335,240.63000000000002,64.0,90.0
816,240.49833333333333,240.7216666666667,59.0,95.0
817,241.09833333333336,241.35500000000002,57.0,97.0
818,241.29833333333335,241.53000000000003,61.0,122.0
819,240.89833333333334,241.62833333333336,52.0,85.0
820,240.69833333333335,242.185,45.0,72.0
821,241.69833333333335,242.2816666666667,52.0,89.0
822,242.09833333333336,242.31500000000003,57.0,97.0
823,241.89833333333334,242.485,61.0,117.0
824,241.49833333333333,242.51666666666668,64.0,99.0
825,242.69833333333335,243.1266666666667,55.0,112.0
826,242.49833333333333,243.21666666666667,52.0,89.0
827,242.89833333333334,243.39333333333335,57.0,99.0
828,243.29833333333335,243.45166666666668,52.0,90.0
829,242.29833333333335,243.495,45.0,97.0
830,243.49833333333333,243.84,61.0,127.0
831,243.09833333333336,243.86,64.0,107.0
832,243.69833333333335,244.175,57.0,96.0
833,244.29833333333335,244.74833333333333,50.0,85.0
834,243.89833333333334,244.96833333333336,38.0,81.0
835,244.89833333333334,245.00333333333336,50.0,81.0
836,244.49833333333333,245.01500000000001,57.0,96.0
837,244.09833333333336,245.02833333333334,45.0,86.0
838,245.09833333333336,245.43166666666667,62.0,83.0
839,244.69833333333335,245.47333333333336,66.0,122.0
840,245.29833333333335,245.53000000000003,57.0,97.0
841,245.89833333333334,246.3516666666667,49.0,90.0
842,245.49833333333336,246.59333333333336,37.0,85.0
843,245.69833333333335,246.5966666666667,44.0,63.0
844,246.09833333333336,246.60500000000002,53.0,86.0
845,246.49833333333336,246.73166666666668,49.0,99.0
846,246.69833333333335,247.04500000000002,56.0,96.0
847,246.29833333333335,247.05166666666668,61.0,122.0
848,246.89833333333334,247.09,53.0,89.0
849,247.49833333333336,247.94833333333335,54.0,93.0
850,247.29833333333335,248.19833333333335,49.0,58.0
851,247.09833333333336,248.21,42.0,73.0
852,247.69833333333335,248.33166666666668,57.0,89.0
853,248.09833333333336,248.35833333333335,54.0,100.0
854,248.49833333333336,248.68166666666667,57.0,86.0
855,248.29833333333335,248.69833333333335,61.0,99.0
856,247.89833333333334,248.73166666666668,66.0,102.0
857,248.89833333333334,249.20666666666668,59.0,85.0
858,249.09833333333336,249.37833333333336,63.0,77.0
859,248.69833333333335,249.88666666666668,51.0,88.0
860,249.29833333333335,250.29000000000002,59.0,63.0
861,249.49833333333336,250.35333333333335,66.0,100.0
862,251.09833333333336,251.33166666666668,50.0,72.0
863,250.29833333333335,251.76666666666668,38.0,74.0
864,251.09833333333336,251.79666666666668,66.0,78.0
865,250.69833333333335,251.89166666666668,45.0,66.0
866,251.49833333333336,251.91666666666669,57.0,54.0
867,251.09833333333336,252.0316666666667,62.0,72.0
868,251.89833333333334,252.85833333333335,40.0,83.0
869,252.29833333333335,252.90166666666667,47.0,47.0
870,252.69833333333335,252.94333333333336,52.0,71.0
871,252.69833333333335,253.08833333333334,68.0,92.0
872,252.69833333333335,253.10000000000002,64.0,89.0
873,252.69833333333335,253.15333333333334,59.0,48.0
874,253.49833333333336,254.20000000000002,64.0,82.0
875,253.49833333333336,254.20833333333334,62.0,89.0
876,253.49833333333336,254.22500000000002,57.0,86.0
877,253.49833333333336,254.53500000000003,45.0,66.0
878,254.29833333333335,254.88500000000002,64.0,89.0
879,254.29833333333335,254.9416666666667,57.0,73.0
880,254.29833333333335,254.94500000000002,62.0,89.0
881,254.69833333333335,254.985,45.0,48.0
882,255.09833333333336,257.7316666666667,61.0,82.0
883,255.09833333333336,257.74666666666667,52.0,78.0
884,255.09833333333336,257.74833333333333,64.0,77.0
885,255.09833333333336,257.7583333333333,57.0,77.0
886,255.09833333333336,257.7683333333334,45.0,53.0
