,start,end,pitch,velocity
0,14.741056687500002,14.994627862500002,66.0,67.0
1,14.955342187500001,15.169627687500002,68.0,63.0
2,15.169627687500002,15.596412975000002,69.0,76.0
3,15.598198687500002,16.517840625,69.0,85.0
4,16.4553406875,16.667840475000002,62.0,75.0
5,16.6696261875,18.1696246875,62.0,83.0
6,18.1696246875,18.596409975000004,64.0,79.0
7,18.598195687500002,19.026766687500004,64.0,83.0
8,19.026766687500004,19.455337687500002,73.0,75.0
9,19.455337687500002,19.882122975,71.0,68.0
10,19.883908687500004,20.1160513125,71.0,90.0
11,20.098194187500003,20.524979475000002,69.0,63.0
12,20.526765187500004,21.810692475000003,69.0,93.0
13,21.812478187500002,22.026763687500004,69.0,63.0
14,22.026763687500004,22.241049187500003,71.0,71.0
15,22.241049187500003,23.741047687500004,69.0,87.0
16,23.741047687500004,23.953547475000004,62.0,71.0
17,23.955333187500003,24.1696186875,62.0,74.0
18,24.1696186875,24.812475187500002,66.0,85.0
19,24.812475187500002,25.024974975000003,64.0,65.0
20,25.026760687500005,28.455328687500003,64.0,67.0
21,28.455328687500003,28.669614187500002,66.0,73.0
22,28.669614187500002,28.882113975000003,69.0,61.0
23,28.883899687500005,29.310684975000004,69.0,71.0
24,29.312470687500003,29.741041687500005,69.0,75.0
25,29.741041687500005,29.955327187500004,71.0,75.0
26,29.955327187500004,30.708897862500002,73.0,86.0
27,30.598183687500004,30.812469187500003,69.0,66.0
28,30.812469187500003,32.3124676875,73.0,85.0
29,32.3124676875,32.526753187500006,71.0,67.0
30,32.526753187500006,32.7410386875,73.0,71.0
31,32.7410386875,33.05175266250001,71.0,86.0
32,32.955324187500004,33.596394975,76.0,79.0
33,33.598180687500005,34.146394425000004,76.0,79.0
34,34.0267516875,34.241037187500005,68.0,81.0
35,34.241037187500005,37.0267486875,69.0,74.0
36,37.0267486875,37.241034187500006,73.0,83.0
37,37.241034187500006,37.482105375,74.0,72.0
38,37.45531968750001,37.669605187500004,73.0,60.0
39,37.669605187500004,37.883890687500006,74.0,74.0
40,37.883890687500006,38.312461687500004,73.0,69.0
41,38.312461687500004,38.524961475000005,69.0,70.0
42,38.52674718750001,38.955318187500005,69.0,90.0
43,38.955318187500005,39.16960368750001,66.0,51.0
44,39.16960368750001,42.16960068750001,71.0,62.0
45,42.16960068750001,42.596385975000004,74.0,90.0
46,42.598171687500006,43.02495697500001,74.0,91.0
47,43.026742687500004,43.45531368750001,74.0,91.0
48,43.45531368750001,43.667813475,73.0,88.0
49,43.669599187500005,44.312455687500005,73.0,85.0
50,44.312455687500005,44.52674118750001,71.0,85.0
51,44.52674118750001,46.024953975,73.0,84.0
52,46.026739687500005,46.239239475000005,73.0,73.0
53,46.24102518750001,46.45352497500001,73.0,75.0
54,46.4553106875,46.669596187500005,73.0,87.0
55,46.669596187500005,47.312452687500006,78.0,100.0
56,47.312452687500006,47.741023687500004,71.0,90.0
57,47.741023687500004,47.953523475000004,69.0,64.0
58,47.955309187500006,49.4553076875,69.0,81.0
59,49.4553076875,49.667807475000004,66.0,79.0
60,49.669593187500006,49.882092975000006,66.0,74.0
61,49.88387868750001,50.3160211125,66.0,90.0
62,50.312449687500006,50.792806350000006,68.0,93.0
63,50.741020687500004,50.95530618750001,69.0,76.0
64,50.95530618750001,51.59816268750001,73.0,87.0
65,51.59816268750001,53.31244668750001,71.0,85.0
66,53.31244668750001,55.026730687500006,73.0,67.0
67,55.026730687500006,55.45351597500001,81.0,85.0
68,55.455301687500004,55.88387268750001,81.0,88.0
69,55.88387268750001,56.73922897500001,80.0,91.0
70,56.741014687500005,56.95530018750001,80.0,95.0
71,56.95530018750001,57.38208547500001,81.0,95.0
72,57.383871187500006,58.45351297500001,81.0,92.0
73,58.455298687500004,58.91601251250001,81.0,86.0
74,58.88386968750001,59.123155162500005,80.0,87.0
75,59.098155187500005,59.54636902500001,78.0,88.0
76,59.52672618750001,59.76244023750001,76.0,76.0
77,59.741011687500006,61.024938975000005,73.0,93.0
78,61.02672468750001,61.27136730000001,73.0,74.0
79,61.24101018750001,61.530295612500005,71.0,65.0
80,61.455295687500005,61.66958118750001,69.0,60.0
81,61.66958118750001,61.930295212500006,66.0,63.0
82,61.88386668750001,62.18208067500001,69.0,85.0
83,62.098152187500006,62.52672318750001,71.0,69.0
84,62.52672318750001,63.38386518750001,73.0,92.0
85,63.38386518750001,63.59815068750001,64.0,63.0
86,63.59815068750001,63.84279330000001,69.0,70.0
87,63.81243618750001,64.2410071875,71.0,79.0
88,64.2410071875,65.09814918750001,73.0,95.0
89,65.09814918750001,65.3124346875,64.0,58.0
90,65.3124346875,65.571363,69.0,74.0
91,65.5267201875,65.95529118750001,71.0,73.0
92,65.95529118750001,68.74100268750001,73.0,96.0
93,68.74100268750001,69.16778797500001,81.0,91.0
94,69.1695736875,69.59635897500002,81.0,94.0
95,69.59814468750001,70.02671568750002,81.0,95.0
96,70.02671568750002,70.4552866875,80.0,95.0
97,70.4552866875,70.66957218750001,78.0,95.0
98,70.66957218750001,71.09814318750001,80.0,94.0
99,71.09814318750001,71.93028521250001,81.0,94.0
100,71.74099968750001,71.95349947500002,69.0,72.0
101,71.95528518750001,72.16957068750001,69.0,64.0
102,72.16957068750001,72.59635597500001,81.0,83.0
103,72.5981416875,72.8124271875,81.0,81.0
104,72.8124271875,73.02671268750001,80.0,79.0
105,73.02671268750001,73.303498125,78.0,64.0
106,73.24099818750001,73.66956918750002,76.0,87.0
107,73.66956918750002,74.739210975,73.0,96.0
108,74.74099668750002,74.9552821875,73.0,85.0
109,74.9552821875,75.24813903750001,71.0,85.0
110,75.1695676875,75.38385318750001,69.0,83.0
111,75.38385318750001,75.6302815125,66.0,82.0
112,75.59813868750001,76.45349497500001,73.0,81.0
113,76.45528068750001,76.6856376,73.0,72.0
114,76.66956618750001,77.02313726250001,71.0,66.0
115,76.88385168750001,77.11956573750001,69.0,68.0
116,77.09813718750001,77.39099403750001,66.0,63.0
117,77.3124226875,78.167778975,73.0,93.0
118,78.16956468750001,78.45170726250001,73.0,73.0
119,78.38385018750002,78.68384988750002,71.0,61.0
120,78.5981356875,78.81242118750001,69.0,60.0
121,78.81242118750001,79.0284924,66.0,73.0
122,79.02670668750001,81.1695616875,71.0,93.0
123,81.1695616875,81.8552752875,81.0,95.0
124,81.81241818750001,82.060632225,80.0,94.0
125,82.02670368750002,82.2909891375,78.0,95.0
126,82.2409891875,82.94991705000001,81.0,91.0
127,82.88384568750001,85.02670068750001,78.0,85.0
128,85.02670068750001,85.33027181250002,76.0,86.0
129,85.24098618750001,85.4838430875,74.0,86.0
130,85.45527168750002,85.72134285000001,73.0,86.0
131,85.6695571875,86.09812818750001,74.0,86.0
132,86.09812818750001,86.52669918750001,73.0,86.0
133,86.52669918750001,88.45526868750001,71.0,87.0
134,88.45526868750001,88.74812553750002,81.0,83.0
135,88.66955418750001,88.93919677500001,80.0,83.0
136,88.88383968750001,89.09812518750002,78.0,83.0
137,89.09812518750002,89.32669638750001,80.0,80.0
138,89.3124106875,90.16955268750002,81.0,79.0
139,90.16955268750002,91.02669468750001,73.0,75.0
140,91.02669468750001,91.24098018750001,76.0,74.0
141,91.24098018750001,91.6695511875,78.0,74.0
142,92.09812218750001,92.74097868750002,73.0,76.0
143,91.6695511875,92.75883581250001,76.0,75.0
144,92.74097868750002,97.02668868750001,71.0,82.0
145,97.02668868750001,97.28025986250002,66.0,67.0
146,97.24097418750002,97.45525968750002,68.0,63.0
147,97.45525968750002,97.88204497500001,69.0,76.0
148,97.88383068750001,98.80347262500001,69.0,85.0
149,98.74097268750002,98.95347247500001,62.0,75.0
150,98.95525818750001,100.45525668750001,62.0,83.0
151,100.45525668750001,100.882041975,64.0,79.0
152,100.88382768750002,101.3123986875,64.0,83.0
153,101.3123986875,101.74096968750001,73.0,75.0
154,101.74096968750001,102.16775497500001,71.0,68.0
155,102.16954068750002,102.40168331250001,71.0,90.0
156,102.38382618750002,102.81061147500002,69.0,63.0
157,102.81239718750001,104.09632447500002,69.0,93.0
158,104.09811018750001,104.31239568750001,69.0,63.0
159,104.31239568750001,104.52668118750002,71.0,71.0
160,104.52668118750002,106.0266796875,69.0,87.0
161,106.0266796875,106.23917947500001,62.0,71.0
162,106.24096518750001,106.45525068750001,62.0,74.0
163,106.45525068750001,107.09810718750002,66.0,85.0
164,107.09810718750002,107.31060697500001,64.0,65.0
165,107.31239268750001,110.74096068750002,64.0,67.0
166,110.74096068750002,110.95524618750001,66.0,73.0
167,110.95524618750001,111.16774597500002,69.0,61.0
168,111.16953168750001,111.59631697500001,69.0,71.0
169,111.59810268750002,112.02667368750001,69.0,75.0
170,112.02667368750001,112.24095918750001,71.0,75.0
171,112.24095918750001,112.99452986250002,73.0,86.0
172,112.88381568750002,113.09810118750002,69.0,66.0
173,113.09810118750002,114.59809968750001,73.0,85.0
174,114.59809968750001,114.81238518750001,71.0,67.0
175,114.81238518750001,115.02667068750002,73.0,71.0
176,115.02667068750002,115.33738466250001,71.0,86.0
177,115.24095618750002,115.88202697500002,76.0,79.0
178,115.88381268750001,116.43202642500002,76.0,79.0
179,116.31238368750002,116.52666918750002,68.0,81.0
180,116.52666918750002,119.31238068750001,69.0,74.0
181,119.31238068750001,119.52666618750001,73.0,83.0
182,119.52666618750001,119.76773737500001,74.0,72.0
183,119.74095168750002,119.95523718750002,73.0,60.0
184,119.95523718750002,120.16952268750002,74.0,74.0
185,120.16952268750002,120.59809368750001,73.0,69.0
186,120.59809368750001,120.81059347500002,69.0,70.0
187,120.81237918750001,121.24095018750002,69.0,90.0
188,121.24095018750002,121.45523568750002,66.0,51.0
189,121.45523568750002,124.45523268750001,71.0,62.0
190,124.45523268750001,124.88201797500001,74.0,90.0
191,124.88380368750002,125.31058897500002,74.0,91.0
192,125.31237468750001,125.74094568750002,74.0,91.0
193,125.74094568750002,125.95344547500001,73.0,88.0
194,125.95523118750002,126.59808768750001,73.0,85.0
195,126.59808768750001,126.81237318750001,71.0,85.0
196,126.81237318750001,128.310585975,73.0,84.0
197,128.31237168750002,128.52487147500003,73.0,73.0
198,128.5266571875,128.73915697500001,73.0,75.0
199,128.74094268750002,128.9552281875,73.0,87.0
200,128.9552281875,129.5980846875,78.0,100.0
201,129.5980846875,130.0266556875,71.0,90.0
202,130.0266556875,130.23915547500002,69.0,64.0
203,130.24094118750003,131.74093968750003,69.0,81.0
204,131.74093968750003,131.953439475,66.0,79.0
205,131.95522518750002,132.16772497500003,66.0,74.0
206,132.1695106875,132.60165311250003,66.0,90.0
207,132.5980816875,133.07843835000003,68.0,93.0
208,133.02665268750002,133.2409381875,69.0,76.0
209,133.2409381875,133.88379468750003,73.0,93.0
210,133.88379468750003,135.59807868750002,71.0,96.0
211,135.59807868750002,137.3123626875,73.0,84.0
212,137.3123626875,137.739147975,81.0,84.0
213,137.74093368750002,138.16950468750002,81.0,84.0
214,138.16950468750002,139.02486097500002,80.0,85.0
215,139.0266466875,139.24093218750002,80.0,90.0
216,139.24093218750002,139.66771747500002,81.0,91.0
217,139.66950318750003,140.73914497500002,81.0,92.0
218,140.74093068750003,141.20164451250002,81.0,90.0
219,141.16950168750003,141.4087871625,80.0,94.0
220,141.38378718750002,141.832001025,78.0,87.0
221,141.81235818750002,142.0480722375,76.0,76.0
222,142.0266436875,143.31057097500002,73.0,93.0
223,143.31235668750003,143.55699930000003,73.0,74.0
224,143.52664218750002,143.81592761250002,71.0,65.0
225,143.74092768750003,143.95521318750002,69.0,60.0
226,143.95521318750002,144.21592721250002,66.0,63.0
227,144.1694986875,144.46771267500003,69.0,85.0
228,144.38378418750003,144.81235518750003,71.0,69.0
229,144.81235518750003,145.6694971875,73.0,92.0
230,145.6694971875,145.88378268750003,64.0,63.0
231,145.88378268750003,146.12842530000003,69.0,70.0
232,146.09806818750002,146.52663918750002,71.0,79.0
233,146.52663918750002,147.3837811875,73.0,95.0
234,147.3837811875,147.59806668750002,64.0,58.0
235,147.59806668750002,147.856995,69.0,74.0
236,147.8123521875,148.24092318750002,71.0,73.0
237,148.24092318750002,151.0266346875,73.0,96.0
238,151.0266346875,151.45341997500003,81.0,91.0
239,151.4552056875,151.881990975,81.0,85.0
240,151.88377668750002,152.31234768750002,81.0,82.0
241,152.31234768750002,152.74091868750003,80.0,81.0
242,152.74091868750003,152.95520418750002,78.0,83.0
243,152.95520418750002,153.38377518750002,80.0,84.0
244,153.38377518750002,154.21591721250002,81.0,86.0
245,154.02663168750001,154.23913147500002,69.0,72.0
246,154.24091718750003,154.45520268750002,69.0,64.0
247,154.45520268750002,154.88198797500002,81.0,83.0
248,154.88377368750002,155.0980591875,81.0,81.0
249,155.0980591875,155.31234468750003,80.0,79.0
250,155.31234468750003,155.58913012500003,78.0,64.0
251,155.52663018750002,155.95520118750002,76.0,87.0
252,155.95520118750002,157.024842975,73.0,93.0
253,157.02662868750002,157.2409141875,73.0,74.0
254,157.2409141875,157.53377103750003,71.0,90.0
255,157.45519968750003,157.66948518750002,69.0,90.0
256,157.66948518750002,157.91591351250003,66.0,90.0
257,157.88377068750003,158.73912697500003,73.0,92.0
258,158.7409126875,158.97126960000003,73.0,72.0
259,158.95519818750003,159.30876926250002,71.0,66.0
260,159.16948368750002,159.40519773750003,69.0,68.0
261,159.3837691875,159.67662603750003,66.0,63.0
262,159.59805468750002,160.45341097500003,73.0,93.0
263,160.45519668750003,160.73733926250003,73.0,73.0
264,160.66948218750002,160.96948188750002,71.0,61.0
265,160.8837676875,161.09805318750003,69.0,60.0
266,161.09805318750003,161.31412440000003,66.0,73.0
267,161.31233868750002,163.4551936875,71.0,93.0
268,163.4551936875,164.14090728750003,81.0,95.0
269,164.0980501875,164.34626422500003,80.0,89.0
270,164.31233568750002,164.5766211375,78.0,90.0
271,164.5266211875,164.74090668750003,81.0,91.0
272,164.74090668750003,165.16769197500003,81.0,91.0
273,165.16947768750003,165.5980486875,81.0,94.0
274,165.5980486875,166.453404975,80.0,94.0
275,166.45519068750002,166.6694761875,80.0,101.0
276,166.6694761875,167.09626147500003,81.0,102.0
277,167.09804718750001,168.16768897500003,81.0,105.0
278,168.1694746875,168.6301885125,81.0,108.0
279,168.59804568750002,168.83733116250002,80.0,83.0
280,168.81233118750004,169.26054502500003,78.0,87.0
281,169.2409021875,169.47661623750002,76.0,76.0
282,169.45518768750003,170.73911497500004,73.0,93.0
283,170.74090068750002,170.98554330000002,73.0,74.0
284,170.95518618750003,171.24447161250004,71.0,65.0
285,171.16947168750002,171.3837571875,69.0,60.0
286,171.3837571875,171.64447121250004,66.0,63.0
287,171.59804268750003,171.89625667500002,69.0,85.0
288,171.81232818750001,172.24089918750002,71.0,69.0
289,172.24089918750002,173.09804118750003,73.0,92.0
290,173.09804118750003,173.31232668750002,64.0,63.0
291,173.31232668750002,173.55696930000002,69.0,70.0
292,173.52661218750004,173.9551831875,71.0,79.0
293,173.9551831875,174.81232518750002,73.0,95.0
294,174.81232518750002,175.0266106875,64.0,58.0
295,175.0266106875,175.28553900000003,69.0,74.0
296,175.24089618750003,175.66946718750003,71.0,73.0
297,175.66946718750003,178.45517868750002,73.0,96.0
298,178.45517868750002,178.88196397500002,81.0,94.0
299,178.88374968750003,179.31053497500002,81.0,94.0
300,179.31232068750003,179.7408916875,81.0,95.0
301,179.7408916875,180.16946268750002,80.0,95.0
302,180.16946268750002,180.38374818750003,78.0,95.0
303,180.38374818750003,180.81231918750004,80.0,95.0
304,180.81231918750004,181.64446121250003,81.0,95.0
305,181.45517568750003,181.667675475,69.0,72.0
306,181.66946118750002,181.88374668750004,69.0,64.0
307,181.88374668750004,182.31053197500003,81.0,83.0
308,182.3123176875,182.52660318750003,81.0,81.0
309,182.52660318750003,182.74088868750002,80.0,79.0
310,182.74088868750002,183.017674125,78.0,64.0
311,182.95517418750003,183.3837451875,76.0,87.0
312,183.3837451875,184.45338697500003,73.0,93.0
313,184.4551726875,184.66945818750003,73.0,74.0
314,184.66945818750003,184.96231503750002,71.0,98.0
315,184.88374368750002,185.09802918750003,69.0,97.0
316,185.09802918750003,185.34445751250001,66.0,96.0
317,185.31231468750002,186.16767097500002,73.0,95.0
318,186.16945668750003,186.39981360000002,73.0,72.0
319,186.38374218750002,186.73731326250004,71.0,66.0
320,186.59802768750004,186.83374173750002,69.0,68.0
321,186.81231318750002,187.10517003750002,66.0,63.0
322,187.0265986875,187.881954975,73.0,93.0
323,187.88374068750002,188.16588326250002,73.0,73.0
324,188.0980261875,188.3980258875,71.0,61.0
325,188.31231168750003,188.52659718750002,69.0,60.0
326,188.52659718750002,188.7426684,66.0,73.0
327,188.74088268750003,190.88373768750003,71.0,93.0
328,190.88373768750003,191.56945128750002,81.0,95.0
329,191.52659418750002,191.77480822500002,80.0,71.0
330,191.7408796875,192.00516513750003,78.0,87.0
331,191.95516518750003,192.66409305000002,81.0,111.0
332,192.59802168750002,194.74087668750002,78.0,85.0
333,194.74087668750002,195.04444781250004,76.0,79.0
334,194.95516218750004,195.19801908750003,74.0,79.0
335,195.16944768750002,195.43551885000002,73.0,79.0
336,195.3837331875,195.81230418750002,74.0,80.0
337,195.81230418750002,196.24087518750002,73.0,81.0
338,196.24087518750002,198.16944468750003,71.0,85.0
339,198.16944468750003,198.46230153750003,81.0,99.0
340,198.38373018750002,198.65337277500004,80.0,99.0
341,198.59801568750004,198.81230118750003,78.0,99.0
342,198.81230118750003,199.04087238750003,80.0,99.0
343,199.02658668750001,199.88372868750002,81.0,99.0
344,199.88372868750002,200.74087068750003,73.0,96.0
345,200.74087068750003,200.95515618750002,76.0,92.0
346,200.95515618750002,201.38372718750003,78.0,91.0
347,201.81229818750003,202.45515468750003,73.0,91.0
348,201.38372718750003,202.47301181250003,76.0,91.0
349,202.45515468750003,206.57122200000003,71.0,90.0
