,start,end,pitch,velocity
0,0.16964268750000003,0.8946419625000002,69.0,84.0
1,0.3839281875000001,1.0267846875000002,61.0,87.0
2,0.8124991875,1.2374987625000002,68.0,85.0
3,0.5982136875,1.3196415375000001,66.0,88.0
4,1.2410701875,1.460712825,61.0,79.0
5,0.16964268750000003,1.4660699625000002,54.0,84.0
6,1.4553556875000002,1.5857127000000002,69.0,76.0
7,1.6696411875000001,1.7553553875000003,76.0,74.0
8,2.0982121875,2.4124975875000003,57.0,70.0
9,1.8839266875000003,2.4624975375000004,76.0,72.0
10,2.5267831875000004,3.0499969500000006,69.0,70.0
11,2.3124976875000005,3.2589253125000006,62.0,70.0
12,3.1696396875000006,3.2749967250000003,69.0,71.0
13,1.8839266875000003,3.2839252875000002,50.0,72.0
14,2.5267831875000004,3.3892823250000004,57.0,70.0
15,3.3839251875000005,3.4696393875000004,71.0,71.0
16,3.5982106875000004,4.4553526875000005,71.0,71.0
17,4.026781687500001,4.7874952125000005,59.0,70.0
18,4.4553526875000005,4.9517807625,64.0,68.0
19,4.4553526875000005,6.091065337500001,76.0,68.0
20,5.312494687500001,6.14999385,68.0,62.0
21,3.5982106875000004,6.435707850000001,52.0,71.0
22,4.8839236875,6.474993525000001,59.0,65.0
23,6.3839221875000005,6.726778987500001,64.0,68.0
24,6.598207687500001,6.9428502000000005,59.0,74.0
25,6.812493187500001,7.023207262500001,61.0,77.0
26,7.026778687500001,7.255349887500001,69.0,80.0
27,7.241064187500001,7.524992475000001,68.0,82.0
28,7.455349687500001,7.573206712500001,69.0,83.0
29,7.241064187500001,7.883920687500001,61.0,82.0
30,8.0982061875,8.335705950000001,61.0,84.0
31,7.669635187500001,8.348205937500001,66.0,84.0
32,7.669635187500001,8.373205912500001,73.0,84.0
33,7.026778687500001,8.4303487125,54.0,80.0
34,8.312491687500001,8.433920137500001,69.0,84.0
35,8.5267771875,8.623205662500002,76.0,84.0
36,8.741062687500001,9.392847750000001,76.0,81.0
37,8.955348187500002,9.396419175000002,57.0,80.0
38,9.383919187500002,9.826775887500002,74.0,76.0
39,8.741062687500001,10.114275600000001,50.0,81.0
40,9.383919187500002,10.139275575000001,62.0,76.0
41,10.0267756875,10.355346787500002,73.0,74.0
42,9.992847150000001,10.630346512500001,57.0,74.0
43,10.4553466875,11.312488687500002,71.0,79.0
44,10.669632187500001,11.457131400000002,59.0,80.0
45,11.312488687500002,11.769631087500002,71.0,84.0
46,11.098203187500001,12.1767735375,64.0,83.0
47,11.741059687500002,12.824987175000002,59.0,83.0
48,10.4553466875,12.878558550000001,52.0,79.0
49,12.169630687500002,13.117844025000002,76.0,79.0
50,12.169630687500002,13.546415025000002,42.0,79.0
51,14.312485687500002,15.160699125000002,49.0,61.0
52,13.883914687500003,15.196413375000002,42.0,74.0
53,15.169627687500002,15.598198687500002,61.0,76.0
54,14.741056687500002,15.599984400000002,57.0,74.0
55,15.598198687500002,16.939268775000002,38.0,76.0
56,16.026769687500003,17.0196258375,45.0,79.0
57,16.883911687500003,17.332125525000002,57.0,71.0
58,16.4553406875,17.357125500000002,54.0,71.0
59,17.3124826875,18.6160528125,40.0,86.0
60,18.1696246875,18.671409900000004,56.0,76.0
61,17.741053687500003,18.692838450000004,47.0,74.0
62,18.598195687500002,18.724981275,59.0,67.0
63,18.598195687500002,19.0714095,52.0,54.0
64,19.241052187500003,19.542837600000002,76.0,71.0
65,19.026766687500004,19.658908912500003,45.0,75.0
66,19.455337687500002,19.696408875000003,69.0,67.0
67,19.026766687500004,19.932122925,61.0,83.0
68,19.6696231875,19.962480037500004,71.0,61.0
69,20.098194187500003,20.3624796375,69.0,65.0
70,19.883908687500004,20.394622462500003,44.0,98.0
71,20.3124796875,20.546408025,71.0,70.0
72,19.883908687500004,20.8053363375,59.0,75.0
73,20.526765187500004,21.451764262500003,69.0,77.0
74,21.1696216875,21.866049562500002,54.0,61.0
75,20.955336187500002,22.0053351375,49.0,66.0
76,20.741050687500003,22.057120800000003,42.0,68.0
77,22.026763687500004,22.446406125000003,61.0,69.0
78,21.598192687500003,22.476763237500002,57.0,83.0
79,22.883905687500004,23.449976550000002,50.0,67.0
80,23.312476687500002,23.857119000000004,54.0,72.0
81,23.312476687500002,23.862476137500003,57.0,79.0
82,22.455334687500002,23.901761812500002,38.0,87.0
83,23.741047687500004,24.103547325000005,50.0,61.0
84,22.6696201875,24.141047287500005,45.0,74.0
85,24.1696186875,24.939260775000005,56.0,70.0
86,24.1696186875,24.9428322,59.0,73.0
87,25.026760687500005,25.757117100000002,64.0,81.0
88,25.026760687500005,25.7660456625,56.0,67.0
89,25.026760687500005,25.783902787500004,59.0,65.0
90,25.455331687500003,25.983902587500005,52.0,52.0
91,25.883902687500004,26.505330637500002,71.0,69.0
92,25.883902687500004,26.524973475000003,76.0,77.0
93,25.883902687500004,26.649973350000003,64.0,74.0
94,25.883902687500004,26.662473337500003,56.0,62.0
95,25.883902687500004,26.671401900000003,59.0,76.0
96,26.312473687500002,26.701759012500002,52.0,41.0
97,24.1696186875,27.207115650000002,40.0,70.0
98,26.741044687500004,27.223187062500003,59.0,83.0
99,26.741044687500004,27.223187062500003,64.0,87.0
100,24.598189687500003,27.232115625000002,47.0,72.0
101,26.741044687500004,27.232115625000002,56.0,74.0
102,26.741044687500004,27.549972450000002,71.0,70.0
103,26.741044687500004,27.553543875000003,76.0,85.0
104,27.598186687500004,28.371400200000004,61.0,86.0
105,27.598186687500004,28.398185887500002,57.0,86.0
106,28.455328687500003,28.512471487500004,57.0,61.0
107,28.026757687500005,28.614257100000003,49.0,69.0
108,28.455328687500003,28.932113925000003,61.0,95.0
109,27.598186687500004,29.041042387500003,42.0,83.0
110,28.883899687500005,29.360684925000005,57.0,83.0
111,29.741041687500005,30.589255125000005,45.0,87.0
112,29.312470687500003,30.605326537500005,38.0,90.0
113,30.169612687500003,30.967826175000003,54.0,70.0
114,30.598183687500004,30.976754737500006,57.0,72.0
115,31.026754687500006,32.258896312500006,45.0,87.0
116,31.883896687500005,32.3981818875,61.0,75.0
117,32.3124676875,32.65889591250001,64.0,76.0
118,31.455325687500004,32.7285387,52.0,59.0
119,32.7410386875,33.48210937500001,59.0,90.0
120,32.7410386875,33.485680800000004,64.0,81.0
121,33.598180687500005,33.742823400000006,64.0,71.0
122,33.16960968750001,33.753537675000004,52.0,50.0
123,33.598180687500005,34.1767515375,59.0,73.0
124,34.0267516875,34.432108425,64.0,77.0
125,32.7410386875,34.45532268750001,44.0,83.0
126,34.45532268750001,35.307107550000005,62.0,74.0
127,35.312464687500004,36.00710685000001,62.0,60.0
128,35.312464687500004,36.017821125000005,66.0,74.0
129,34.883893687500006,36.124963875000006,54.0,66.0
130,34.45532268750001,36.16960668750001,47.0,67.0
131,35.7410356875,36.392820750000006,59.0,54.0
132,36.16960668750001,36.9517487625,54.0,73.0
133,36.16960668750001,36.95532018750001,57.0,81.0
134,37.0267486875,37.48031966250001,62.0,86.0
135,37.0267486875,37.4874625125,57.0,86.0
136,36.16960668750001,37.496391075000005,38.0,79.0
137,37.0267486875,37.501748212500004,54.0,76.0
138,36.598177687500005,37.81603361250001,45.0,75.0
139,37.45531968750001,37.821390750000006,50.0,59.0
140,37.883890687500006,38.67674703750001,56.0,74.0
141,37.883890687500006,38.67674703750001,59.0,83.0
142,37.883890687500006,38.67674703750001,64.0,87.0
143,38.7410326875,39.442817700000006,56.0,79.0
144,38.7410326875,39.446389125,59.0,90.0
145,38.7410326875,39.446389125,64.0,95.0
146,39.16960368750001,39.82496017500001,52.0,58.0
147,39.598174687500006,40.33031681250001,59.0,93.0
148,39.598174687500006,40.332102525,56.0,85.0
149,39.598174687500006,40.339245375000004,64.0,100.0
150,40.026745687500004,40.489245225000005,52.0,59.0
151,37.883890687500006,40.91067337500001,40.0,75.0
152,38.312461687500004,40.9481733375,47.0,68.0
153,40.45531668750001,40.99103043750001,59.0,93.0
154,40.45531668750001,40.999959000000004,64.0,104.0
155,40.45531668750001,41.02138755000001,56.0,85.0
156,41.312458687500005,42.08924362500001,66.0,72.0
157,41.312458687500005,42.096386475,62.0,95.0
158,41.7410296875,42.448171837500006,54.0,62.0
159,41.312458687500005,42.56781457500001,47.0,95.0
160,42.16960068750001,42.59460026250001,71.0,87.0
161,42.16960068750001,42.610671675000006,66.0,87.0
162,42.16960068750001,42.6267430875,62.0,81.0
163,43.026742687500004,43.79638477500001,56.0,68.0
164,43.026742687500004,43.79817048750001,59.0,77.0
165,43.026742687500004,43.799956200000004,64.0,87.0
166,43.026742687500004,44.337455662500005,40.0,76.0
167,43.88388468750001,44.35174136250001,59.0,90.0
168,43.88388468750001,44.35888421250001,56.0,87.0
169,43.45531368750001,44.36424135000001,47.0,86.0
170,43.88388468750001,44.36424135000001,64.0,98.0
171,44.312455687500005,44.68924102500001,52.0,53.0
172,44.7410266875,45.478525950000005,61.0,71.0
173,44.7410266875,45.485668800000006,57.0,66.0
174,44.7410266875,45.48745451250001,66.0,73.0
175,44.7410266875,45.89816838750001,42.0,75.0
176,45.59816868750001,45.98566830000001,66.0,90.0
177,45.59816868750001,46.008882562500006,61.0,87.0
178,45.59816868750001,46.03031111250001,57.0,77.0
179,45.16959768750001,46.346382225000006,49.0,69.0
180,46.24102518750001,46.358882212500006,59.0,11.0
181,46.24102518750001,46.37316791250001,56.0,11.0
182,46.4553106875,47.21602421250001,56.0,79.0
183,46.4553106875,47.21602421250001,59.0,90.0
184,46.4553106875,47.21602421250001,64.0,95.0
185,46.4553106875,47.680309462500006,40.0,72.0
186,47.312452687500006,47.77673793750001,56.0,90.0
187,47.312452687500006,47.77673793750001,59.0,98.0
188,47.312452687500006,47.78745221250001,64.0,111.0
189,48.16959468750001,48.982093875000004,62.0,86.0
190,49.026736687500005,49.469593387500005,66.0,74.0
191,48.59816568750001,49.47316481250001,54.0,64.0
192,49.026736687500005,49.489236225000006,62.0,76.0
193,49.4553076875,49.5553075875,59.0,63.0
194,48.16959468750001,49.562450437500004,47.0,85.0
195,49.88387868750001,50.678520750000004,57.0,79.0
196,49.88387868750001,50.6838778875,54.0,79.0
197,50.741020687500004,51.28030586250001,62.0,71.0
198,50.741020687500004,51.29816298750001,57.0,86.0
199,50.741020687500004,51.326734387500004,54.0,76.0
200,49.88387868750001,51.366020062500006,38.0,79.0
201,51.16959168750001,51.51780562500001,50.0,61.0
202,50.312449687500006,51.551734162500004,45.0,77.0
203,51.59816268750001,52.387447612500004,64.0,85.0
204,51.59816268750001,52.389233325000006,56.0,68.0
205,51.59816268750001,52.389233325000006,59.0,85.0
206,52.4553046875,53.18923252500001,56.0,83.0
207,52.4553046875,53.19101823750001,59.0,90.0
208,52.4553046875,53.19101823750001,64.0,100.0
209,52.88387568750001,53.36244663750001,52.0,58.0
210,53.31244668750001,54.04816023750001,64.0,100.0
211,53.31244668750001,54.05173166250001,59.0,90.0
212,53.31244668750001,54.053517375000006,56.0,76.0
213,53.741017687500005,54.24816003750001,52.0,53.0
214,54.16958868750001,54.926730787500006,59.0,90.0
215,54.16958868750001,54.926730787500006,64.0,100.0
216,54.16958868750001,54.93030221250001,56.0,81.0
217,52.026733687500005,54.95351647500001,47.0,76.0
218,51.59816268750001,55.00887356250001,40.0,76.0
219,54.59815968750001,55.026730687500006,52.0,59.0
220,55.026730687500006,55.805301337500005,61.0,75.0
221,55.026730687500006,55.80708705000001,66.0,83.0
222,55.026730687500006,55.81422990000001,57.0,74.0
223,55.88387268750001,56.242800900000006,61.0,98.0
224,55.026730687500006,56.26422945000001,42.0,83.0
225,55.88387268750001,56.280300862500006,66.0,93.0
226,55.88387268750001,56.28744371250001,57.0,90.0
227,55.455301687500004,56.303515125000004,49.0,62.0
228,56.52672918750001,56.59994340000001,59.0,14.0
229,56.52672918750001,56.60708625000001,56.0,12.0
230,56.52672918750001,56.608871962500004,64.0,50.0
231,56.741014687500005,57.52851390000001,64.0,93.0
232,56.741014687500005,57.53029961250001,59.0,98.0
233,56.741014687500005,57.53565675000001,56.0,87.0
234,57.59815668750001,58.107084750000006,64.0,112.0
235,57.59815668750001,58.10887046250001,59.0,100.0
236,57.59815668750001,58.13387043750001,56.0,85.0
237,57.16958568750001,58.19637037500001,47.0,70.0
238,58.026727687500006,58.19637037500001,52.0,58.0
239,56.741014687500005,58.269584587500006,40.0,75.0
240,58.24101318750001,58.287441712500005,54.0,39.0
241,58.24101318750001,58.30887026250001,62.0,49.0
242,58.24101318750001,58.31422740000001,57.0,52.0
243,58.455298687500004,59.20886936250001,62.0,90.0
244,58.455298687500004,59.216012212500004,54.0,81.0
245,58.455298687500004,59.217797925000006,57.0,90.0
246,58.88386968750001,59.72672598750001,45.0,85.0
247,59.31244068750001,59.91244008750001,54.0,76.0
248,59.31244068750001,59.91244008750001,62.0,85.0
249,58.455298687500004,59.916011512500006,38.0,93.0
250,59.31244068750001,59.916011512500006,57.0,81.0
251,60.16958268750001,60.88386768750001,61.0,74.0
252,60.16958268750001,60.88565340000001,57.0,73.0
253,60.16958268750001,60.887439112500005,66.0,75.0
254,61.02672468750001,61.58208127500001,66.0,81.0
255,61.02672468750001,61.587438412500006,61.0,77.0
256,60.16958268750001,61.59100983750001,42.0,79.0
257,61.455295687500005,61.60350982500001,49.0,63.0
258,61.02672468750001,61.61422410000001,57.0,74.0
259,61.88386668750001,62.66958018750001,62.0,86.0
260,61.88386668750001,62.67493732500001,54.0,73.0
261,61.88386668750001,62.683865887500005,57.0,81.0
262,62.741008687500006,63.208865362500006,62.0,111.0
263,62.741008687500006,63.21957963750001,57.0,98.0
264,62.741008687500006,63.221365350000006,54.0,93.0
265,61.88386668750001,63.28565100000001,38.0,85.0
266,63.16957968750001,63.489222225000006,50.0,59.0
267,62.31243768750001,63.54100788750001,45.0,86.0
268,63.59815068750001,64.34279280000001,59.0,86.0
269,63.59815068750001,64.34457851250001,64.0,90.0
270,63.59815068750001,64.34814993750001,56.0,76.0
271,64.4552926875,64.93564935,59.0,93.0
272,64.4552926875,64.93922077500001,64.0,98.0
273,64.4552926875,64.94993505000001,56.0,86.0
274,63.59815068750001,64.96779217500001,40.0,74.0
275,64.88386368750001,65.22850620000001,52.0,59.0
276,64.02672168750001,65.29279185000001,47.0,75.0
277,65.3124346875,66.0517196625,57.0,95.0
278,65.3124346875,66.0517196625,61.0,95.0
279,65.3124346875,66.0570768,66.0,95.0
280,66.16957668750001,66.9285045,61.0,86.0
281,66.16957668750001,66.9285045,66.0,86.0
282,66.16957668750001,66.932075925,57.0,77.0
283,66.5981476875,67.12136145000001,54.0,58.0
284,67.02671868750001,67.77850365,61.0,93.0
285,67.02671868750001,67.78028936250001,57.0,85.0
286,67.02671868750001,67.78028936250001,66.0,90.0
287,67.45528968750001,67.97850345,54.0,58.0
288,67.8838606875,68.6838598875,57.0,87.0
289,67.8838606875,68.69100273750001,66.0,93.0
290,67.8838606875,68.69635987500001,61.0,93.0
291,65.7410056875,68.74100268750001,49.0,66.0
292,68.31243168750001,68.74100268750001,54.0,67.0
293,65.3124346875,68.81243118750001,42.0,75.0
294,68.74100268750001,69.50171621250001,62.0,85.0
295,68.74100268750001,69.51600191250002,66.0,74.0
296,69.1695736875,69.8552872875,54.0,67.0
297,68.74100268750001,69.95350147500001,47.0,87.0
298,69.59814468750001,69.98743001250001,66.0,85.0
299,69.59814468750001,69.98921572500001,62.0,95.0
300,70.4552866875,71.2374287625,59.0,86.0
301,71.09814318750001,71.2374287625,64.0,59.0
302,70.4552866875,71.23921447500001,56.0,85.0
303,71.3124286875,71.7767139375,64.0,95.0
304,71.3124286875,71.77849965000001,59.0,104.0
305,71.3124286875,71.78385678750001,56.0,74.0
306,70.4552866875,71.86599956250001,40.0,77.0
307,71.74099968750001,72.06064222500001,52.0,59.0
308,70.88385768750001,72.10885646250001,47.0,79.0
309,72.16957068750001,72.85528428750001,42.0,76.0
310,72.16957068750001,72.90706995000001,57.0,85.0
311,72.16957068750001,72.917784225,61.0,93.0
312,72.16957068750001,72.917784225,66.0,90.0
313,73.02671268750001,73.03921267500002,38.0,77.0
314,73.02671268750001,73.439212275,40.0,76.0
315,73.02671268750001,73.4427837,64.0,93.0
316,72.5981416875,73.453497975,49.0,65.0
317,73.02671268750001,73.45706940000001,59.0,100.0
318,73.02671268750001,73.47492652500001,56.0,86.0
319,73.66956918750002,73.73564055000001,54.0,14.0
320,73.66956918750002,73.76778337500001,62.0,15.0
321,73.66956918750002,73.78564050000001,57.0,43.0
322,73.8838546875,74.66421105,54.0,86.0
323,73.8838546875,74.66421105,57.0,93.0
324,73.8838546875,74.6695681875,62.0,100.0
325,74.74099668750002,75.23921047500001,62.0,111.0
326,74.74099668750002,75.25171046250001,57.0,98.0
327,74.74099668750002,75.26778187500001,54.0,95.0
328,73.8838546875,75.3552817875,38.0,77.0
329,75.1695676875,75.50706735000001,50.0,59.0
330,74.31242568750001,75.54278160000001,45.0,76.0
331,75.59813868750001,76.346352225,66.0,74.0
332,75.59813868750001,76.35349507500001,62.0,74.0
333,76.02670968750002,76.5909948375,54.0,64.0
334,75.59813868750001,76.76420895000001,47.0,86.0
335,76.45528068750001,76.832066025,71.0,90.0
336,76.45528068750001,76.8409945875,66.0,93.0
337,76.45528068750001,76.857066,62.0,83.0
338,77.09813718750001,77.16063712500001,57.0,84.0
339,77.3124226875,78.08385048750002,57.0,84.0
340,77.3124226875,78.08563620000001,54.0,84.0
341,77.3124226875,78.08563620000001,62.0,84.0
342,78.16956468750001,78.667778475,54.0,84.0
343,78.16956468750001,78.67134990000001,57.0,84.0
344,78.16956468750001,78.67134990000001,62.0,84.0
345,77.3124226875,78.7124212875,38.0,84.0
346,78.81242118750001,78.87492112500001,56.0,82.0
347,78.5981356875,78.93206392500001,50.0,83.0
348,77.74099368750001,78.94456391250002,45.0,84.0
349,79.02670668750001,79.81599161250001,56.0,82.0
350,79.02670668750001,79.8338487375,59.0,82.0
351,79.02670668750001,79.83563445000001,64.0,82.0
352,79.8838486875,80.6052765375,59.0,81.0
353,79.8838486875,80.60706225000001,56.0,81.0
354,79.8838486875,80.60706225000001,64.0,81.0
355,80.31241968750001,80.82670488750001,52.0,81.0
356,80.74099068750002,81.47670423750002,56.0,84.0
357,80.74099068750002,81.4856328,59.0,84.0
358,80.74099068750002,81.48741851250001,64.0,84.0
359,81.1695616875,81.65170406250002,52.0,95.0
360,79.02670668750001,82.15348927500001,40.0,82.0
361,81.59813268750001,82.17848925000001,64.0,93.0
362,81.59813268750001,82.25348917500001,59.0,93.0
363,81.59813268750001,82.27848915000001,56.0,93.0
364,82.02670368750002,82.3517033625,52.0,89.0
365,79.45527768750001,82.40706045000002,47.0,82.0
366,82.45527468750001,82.8017029125,76.0,77.0
367,82.66956018750001,82.932059925,66.0,59.0
368,82.88384568750001,83.09455976250001,69.0,69.0
369,83.09813118750002,83.57134500000001,76.0,87.0
370,82.88384568750001,83.6374163625,61.0,68.0
371,83.3124166875,83.79277335,66.0,69.0
372,83.5267021875,83.79277335,66.0,64.0
373,83.74098768750001,83.84991615000001,69.0,79.0
374,83.74098768750001,84.01598741250001,61.0,76.0
375,82.45527468750001,84.04991595000001,54.0,68.0
376,83.95527318750001,84.35527278750001,76.0,93.0
377,84.38384418750002,84.64098678750001,66.0,71.0
378,84.5981296875,84.7981294875,69.0,70.0
379,84.5981296875,85.01777212500001,57.0,76.0
380,84.81241518750001,85.29455756250002,76.0,86.0
381,85.24098618750001,85.5338430375,64.0,63.0
382,85.02670068750001,85.57134300000001,62.0,81.0
383,85.45527168750002,85.639200075,69.0,64.0
384,85.45527168750002,85.639200075,69.0,68.0
385,84.16955868750001,85.7838427875,50.0,83.0
386,85.45527168750002,85.89812838750001,57.0,83.0
387,85.6695571875,86.09098533750002,73.0,73.0
388,86.09812818750001,86.38205647500001,69.0,74.0
389,86.31241368750001,86.46062782500002,71.0,88.0
390,86.52669918750001,87.25169846250002,76.0,88.0
391,85.8838426875,87.4552696875,52.0,77.0
392,87.16955568750001,87.5409838875,66.0,65.0
393,86.74098468750002,87.54455531250001,64.0,58.0
394,86.31241368750001,87.610626675,59.0,67.0
395,87.59812668750001,88.84455401250001,52.0,71.0
396,87.59812668750001,88.89455396250001,68.0,74.0
397,88.45526868750001,89.26955358750001,64.0,74.0
398,88.02669768750002,89.282053575,59.0,75.0
399,89.3124106875,89.61419610000002,76.0,67.0
400,89.52669618750001,89.82669588750001,66.0,58.0
401,89.74098168750001,89.90883866250002,69.0,63.0
402,89.95526718750001,90.38383818750002,73.0,74.0
403,89.74098168750001,90.53919517500002,61.0,64.0
404,90.38383818750002,90.66955218750002,66.0,66.0
405,90.5981236875,90.83205202500001,69.0,61.0
406,90.5981236875,90.83562345000001,61.0,74.0
407,89.3124106875,90.90705195000001,54.0,79.0
408,90.81240918750001,91.203480225,76.0,79.0
409,91.24098018750001,91.52847990000001,66.0,64.0
410,91.45526568750002,91.67133690000001,69.0,65.0
411,91.6695511875,92.08562220000002,76.0,77.0
412,91.45526568750002,92.12133645000002,57.0,71.0
413,92.09812218750001,92.36240763750001,66.0,61.0
414,91.02669468750001,92.47133610000002,50.0,87.0
415,92.31240768750001,92.574907425,69.0,63.0
416,91.88383668750001,92.67133590000002,62.0,83.0
417,92.31240768750001,92.74455011250001,57.0,90.0
418,92.52669318750002,92.77133580000002,76.0,74.0
419,92.9552641875,93.210621075,66.0,60.0
420,93.16954968750001,93.3909780375,69.0,63.0
421,93.38383518750001,93.93383463750001,76.0,76.0
422,93.59812068750001,94.35526278750001,64.0,64.0
423,93.16954968750001,94.36061992500001,59.0,73.0
424,94.29990570000001,94.46597696250001,76.0,63.0
425,94.346334225,94.53026261250001,80.0,73.0
426,94.45704840000002,95.34633322500001,83.0,72.0
427,94.45526268750001,95.36776177500002,64.0,58.0
428,94.45526268750001,95.39990460000001,59.0,72.0
429,92.74097868750002,95.44097598750001,52.0,81.0
430,97.45525968750002,97.88383068750001,61.0,76.0
431,97.02668868750001,97.88561640000002,57.0,74.0
432,97.88383068750001,99.22490077500001,38.0,76.0
433,98.31240168750001,99.30525783750001,45.0,79.0
434,99.16954368750001,99.61775752500002,57.0,71.0
435,98.74097268750002,99.64275750000002,54.0,71.0
436,99.59811468750001,100.90168481250001,40.0,86.0
437,100.45525668750001,100.95704190000001,56.0,76.0
438,100.02668568750002,100.97847045000002,47.0,74.0
439,100.88382768750002,101.01061327500001,59.0,67.0
440,100.88382768750002,101.35704150000001,52.0,54.0
441,101.52668418750001,101.82846960000002,76.0,71.0
442,101.3123986875,101.94454091250002,45.0,75.0
443,101.74096968750001,101.98204087500001,69.0,67.0
444,101.3123986875,102.21775492500001,61.0,83.0
445,101.95525518750001,102.24811203750001,71.0,61.0
446,102.38382618750002,102.64811163750001,69.0,65.0
447,102.16954068750002,102.68025446250002,44.0,98.0
448,102.59811168750001,102.83204002500001,71.0,70.0
449,102.16954068750002,103.09096833750002,59.0,75.0
450,102.81239718750001,103.73739626250001,69.0,77.0
451,103.45525368750002,104.15168156250002,54.0,61.0
452,103.24096818750002,104.29096713750002,49.0,66.0
453,103.02668268750001,104.34275280000001,42.0,68.0
454,104.31239568750001,104.73203812500002,61.0,69.0
455,103.88382468750001,104.76239523750002,57.0,83.0
456,105.16953768750001,105.73560855000001,50.0,67.0
457,105.59810868750002,106.14275100000002,54.0,72.0
458,105.59810868750002,106.14810813750002,57.0,79.0
459,104.74096668750002,106.18739381250002,38.0,87.0
460,106.0266796875,106.38917932500001,50.0,61.0
461,104.95525218750001,106.42667928750001,45.0,74.0
462,106.45525068750001,107.22489277500001,56.0,70.0
463,106.45525068750001,107.22846420000002,59.0,73.0
464,107.31239268750001,108.04274910000001,64.0,81.0
465,107.31239268750001,108.05167766250001,56.0,67.0
466,107.31239268750001,108.06953478750002,59.0,65.0
467,107.74096368750001,108.26953458750002,52.0,52.0
468,108.16953468750002,108.79096263750002,71.0,69.0
469,108.16953468750002,108.81060547500002,76.0,77.0
470,108.16953468750002,108.93560535000002,64.0,74.0
471,108.16953468750002,108.94810533750001,56.0,62.0
472,108.16953468750002,108.95703390000001,59.0,76.0
473,108.59810568750001,108.98739101250001,52.0,41.0
474,106.45525068750001,109.49274765000001,40.0,70.0
475,109.02667668750001,109.50881906250001,59.0,83.0
476,109.02667668750001,109.50881906250001,64.0,87.0
477,106.88382168750002,109.51774762500001,47.0,72.0
478,109.02667668750001,109.51774762500001,56.0,74.0
479,109.02667668750001,109.83560445000002,71.0,70.0
480,109.02667668750001,109.83917587500001,76.0,85.0
481,109.88381868750001,110.65703220000002,61.0,86.0
482,109.88381868750001,110.68381788750001,57.0,86.0
483,110.74096068750002,110.79810348750001,57.0,61.0
484,110.31238968750002,110.89988910000001,49.0,69.0
485,110.74096068750002,111.21774592500002,61.0,95.0
486,109.88381868750001,111.32667438750002,42.0,83.0
487,111.16953168750001,111.64631692500001,57.0,83.0
488,112.02667368750001,112.87488712500001,45.0,87.0
489,111.59810268750002,112.89095853750001,38.0,90.0
490,112.45524468750001,113.25345817500002,54.0,70.0
491,112.88381568750002,113.26238673750001,57.0,72.0
492,113.31238668750001,114.54452831250002,45.0,87.0
493,114.16952868750002,114.68381388750001,61.0,75.0
494,114.59809968750001,114.94452791250002,64.0,76.0
495,113.74095768750001,115.01417070000001,52.0,59.0
496,115.02667068750002,115.76774137500001,59.0,90.0
497,115.02667068750002,115.77131280000002,64.0,81.0
498,115.88381268750001,116.02845540000001,64.0,71.0
499,115.45524168750002,116.03916967500001,52.0,50.0
500,115.88381268750001,116.46238353750002,59.0,73.0
501,116.31238368750002,116.71774042500002,64.0,77.0
502,115.02667068750002,116.74095468750002,44.0,83.0
503,116.74095468750002,117.59273955000002,62.0,74.0
504,117.59809668750002,118.29273885000002,62.0,60.0
505,117.59809668750002,118.30345312500002,66.0,74.0
506,117.16952568750001,118.41059587500001,54.0,66.0
507,116.74095468750002,118.45523868750001,47.0,67.0
508,118.02666768750001,118.67845275000002,59.0,54.0
509,118.45523868750001,119.23738076250001,54.0,73.0
510,118.45523868750001,119.24095218750001,57.0,81.0
511,119.31238068750001,119.76595166250002,62.0,86.0
512,119.31238068750001,119.77309451250001,57.0,86.0
513,118.45523868750001,119.78202307500001,38.0,79.0
514,119.31238068750001,119.78738021250001,54.0,76.0
515,118.88380968750002,120.10166561250001,45.0,75.0
516,119.74095168750002,120.10702275000001,50.0,59.0
517,120.16952268750002,120.96237903750001,56.0,74.0
518,120.16952268750002,120.96237903750001,59.0,83.0
519,120.16952268750002,120.96237903750001,64.0,87.0
520,121.02666468750002,121.72844970000001,56.0,79.0
521,121.02666468750002,121.73202112500002,59.0,90.0
522,121.02666468750002,121.73202112500002,64.0,95.0
523,121.45523568750002,122.11059217500002,52.0,58.0
524,121.88380668750001,122.61594881250002,59.0,93.0
525,121.88380668750001,122.61773452500002,56.0,85.0
526,121.88380668750001,122.62487737500001,64.0,100.0
527,122.31237768750002,122.77487722500001,52.0,59.0
528,120.16952268750002,123.19630537500002,40.0,75.0
529,120.59809368750001,123.23380533750002,47.0,68.0
530,122.74094868750002,123.27666243750002,59.0,93.0
531,122.74094868750002,123.28559100000001,64.0,104.0
532,122.74094868750002,123.30701955000002,56.0,85.0
533,123.16951968750001,123.50701935000002,52.0,56.0
534,123.59809068750002,124.37487562500002,66.0,72.0
535,123.59809068750002,124.38201847500001,62.0,95.0
536,124.02666168750001,124.73380383750002,54.0,62.0
537,123.59809068750002,124.85344657500002,47.0,95.0
538,124.45523268750001,124.88023226250002,71.0,87.0
539,124.45523268750001,124.89630367500001,66.0,87.0
540,124.45523268750001,124.91237508750001,62.0,81.0
541,125.31237468750001,126.08201677500001,56.0,68.0
542,125.31237468750001,126.08380248750002,59.0,77.0
543,125.31237468750001,126.08558820000002,64.0,87.0
544,125.31237468750001,126.62308766250001,40.0,76.0
545,126.16951668750002,126.63737336250001,59.0,90.0
546,126.16951668750002,126.64451621250002,56.0,87.0
547,125.74094568750002,126.64987335000002,47.0,86.0
548,126.16951668750002,126.64987335000002,64.0,98.0
549,126.59808768750001,126.97487302500002,52.0,53.0
550,127.02665868750002,127.76415795000001,61.0,71.0
551,127.02665868750002,127.77130080000002,57.0,66.0
552,127.02665868750002,127.77308651250002,66.0,73.0
553,127.02665868750002,128.1838003875,42.0,75.0
554,127.88380068750001,128.2713003,66.0,90.0
555,127.88380068750001,128.2945145625,61.0,87.0
556,127.88380068750001,128.3159431125,57.0,77.0
557,127.45522968750002,128.632014225,49.0,69.0
558,128.5266571875,128.6445142125,59.0,11.0
559,128.5266571875,128.65879991250003,56.0,11.0
560,128.74094268750002,129.50165621250002,56.0,79.0
561,128.74094268750002,129.50165621250002,59.0,90.0
562,128.74094268750002,129.50165621250002,64.0,95.0
563,128.74094268750002,129.9659414625,40.0,72.0
564,129.5980846875,130.06236993750002,56.0,90.0
565,129.5980846875,130.06236993750002,59.0,98.0
566,129.5980846875,130.07308421250002,64.0,111.0
567,130.45522668750002,131.26772587500002,62.0,86.0
568,131.31236868750003,131.75522538750002,66.0,74.0
569,130.88379768750002,131.7587968125,54.0,64.0
570,131.31236868750003,131.774868225,62.0,76.0
571,131.74093968750003,131.84093958750003,59.0,63.0
572,130.45522668750002,131.8480824375,47.0,85.0
573,132.1695106875,132.96415275,57.0,79.0
574,132.1695106875,132.9695098875,54.0,79.0
575,133.02665268750002,133.56593786250002,62.0,71.0
576,133.02665268750002,133.58379498750003,57.0,86.0
577,133.02665268750002,133.6123663875,54.0,76.0
578,132.1695106875,133.6516520625,38.0,79.0
579,133.45522368750002,133.80343762500002,50.0,61.0
580,132.5980816875,133.83736616250002,45.0,77.0
581,133.88379468750003,134.6730796125,64.0,85.0
582,133.88379468750003,134.674865325,56.0,68.0
583,133.88379468750003,134.674865325,59.0,85.0
584,134.7409366875,135.47486452500002,56.0,83.0
585,134.7409366875,135.47665023750002,59.0,90.0
586,134.7409366875,135.47665023750002,64.0,100.0
587,135.16950768750002,135.64807863750002,52.0,58.0
588,135.59807868750002,136.3337922375,64.0,100.0
589,135.59807868750002,136.33736366250002,59.0,90.0
590,135.59807868750002,136.339149375,56.0,76.0
591,136.02664968750003,136.5337920375,52.0,53.0
592,136.45522068750003,137.2123627875,59.0,90.0
593,136.45522068750003,137.2123627875,64.0,100.0
594,136.45522068750003,137.21593421250003,56.0,81.0
595,134.3123656875,137.239148475,47.0,76.0
596,133.88379468750003,137.2945055625,40.0,76.0
597,136.8837916875,137.3123626875,52.0,59.0
598,137.3123626875,138.09093333750002,61.0,75.0
599,137.3123626875,138.09271905000003,66.0,83.0
600,137.3123626875,138.0998619,57.0,74.0
601,138.16950468750002,138.5284329,61.0,98.0
602,137.3123626875,138.54986145,42.0,83.0
603,138.16950468750002,138.5659328625,66.0,93.0
604,138.16950468750002,138.5730757125,57.0,90.0
605,137.74093368750002,138.589147125,49.0,62.0
606,138.81236118750002,138.88557540000002,59.0,14.0
607,138.81236118750002,138.89271825000003,56.0,12.0
608,138.81236118750002,138.8945039625,64.0,50.0
609,139.0266466875,139.81414590000003,64.0,93.0
610,139.0266466875,139.8159316125,59.0,98.0
611,139.0266466875,139.82128875,56.0,87.0
612,139.88378868750002,140.39271675,64.0,112.0
613,139.88378868750002,140.39450246250001,59.0,100.0
614,139.88378868750002,140.41950243750003,56.0,85.0
615,139.4552176875,140.482002375,47.0,70.0
616,140.31235968750002,140.482002375,52.0,58.0
617,139.0266466875,140.5552165875,40.0,75.0
618,140.5266451875,140.57307371250002,54.0,39.0
619,140.5266451875,140.59450226250001,62.0,49.0
620,140.5266451875,140.5998594,57.0,52.0
621,140.74093068750003,141.49450136250002,62.0,90.0
622,140.74093068750003,141.50164421250003,54.0,81.0
623,140.74093068750003,141.503429925,57.0,90.0
624,141.16950168750003,142.01235798750002,45.0,85.0
625,141.5980726875,142.1980720875,54.0,76.0
626,141.5980726875,142.1980720875,62.0,85.0
627,140.74093068750003,142.20164351250003,38.0,93.0
628,141.5980726875,142.20164351250003,57.0,81.0
629,142.45521468750002,143.1694996875,61.0,74.0
630,142.45521468750002,143.17128540000002,57.0,73.0
631,142.45521468750002,143.17307111250003,66.0,75.0
632,143.31235668750003,143.86771327500003,66.0,81.0
633,143.31235668750003,143.87307041250003,61.0,77.0
634,142.45521468750002,143.87664183750002,42.0,79.0
635,143.74092768750003,143.88914182500002,49.0,63.0
636,143.31235668750003,143.89985610000002,57.0,74.0
637,144.1694986875,144.95521218750002,62.0,86.0
638,144.1694986875,144.96056932500002,54.0,73.0
639,144.1694986875,144.9694978875,57.0,81.0
640,145.02664068750002,145.49449736250003,62.0,111.0
641,145.02664068750002,145.50521163750003,57.0,98.0
642,145.02664068750002,145.50699735,54.0,93.0
643,144.1694986875,145.57128300000002,38.0,85.0
644,145.45521168750003,145.774854225,50.0,59.0
645,144.59806968750001,145.82663988750002,45.0,86.0
646,145.88378268750003,146.62842480000003,59.0,86.0
647,145.88378268750003,146.6302105125,64.0,90.0
648,145.88378268750003,146.63378193750003,56.0,76.0
649,146.7409246875,147.22128135000003,59.0,93.0
650,146.7409246875,147.22485277500002,64.0,98.0
651,146.7409246875,147.23556705000001,56.0,86.0
652,145.88378268750003,147.25342417500002,40.0,74.0
653,147.16949568750002,147.51413820000002,52.0,59.0
654,146.3123536875,147.57842385,47.0,75.0
655,147.59806668750002,148.33735166250003,57.0,95.0
656,147.59806668750002,148.33735166250003,61.0,95.0
657,147.59806668750002,148.34270880000003,66.0,95.0
658,148.45520868750003,149.21413650000002,61.0,86.0
659,148.45520868750003,149.21413650000002,66.0,86.0
660,148.45520868750003,149.217707925,57.0,77.0
661,148.8837796875,149.40699345000002,54.0,58.0
662,149.31235068750001,150.06413565000003,61.0,93.0
663,149.31235068750001,150.0659213625,57.0,85.0
664,149.31235068750001,150.0659213625,66.0,90.0
665,149.74092168750002,150.26413545000003,54.0,58.0
666,150.16949268750002,150.96949188750003,57.0,87.0
667,150.16949268750002,150.9766347375,66.0,93.0
668,150.16949268750002,150.981991875,61.0,93.0
669,148.02663768750003,151.0266346875,49.0,66.0
670,150.59806368750003,151.0266346875,54.0,67.0
671,147.59806668750002,151.09806318750003,42.0,75.0
672,151.0266346875,151.7873482125,62.0,85.0
673,151.0266346875,151.80163391250002,66.0,74.0
674,151.4552056875,152.14091928750003,54.0,67.0
675,151.0266346875,152.23913347500002,47.0,87.0
676,151.88377668750002,152.27306201250002,66.0,85.0
677,151.88377668750002,152.27484772500003,62.0,95.0
678,152.74091868750003,153.52306076250002,59.0,86.0
679,153.38377518750002,153.52306076250002,64.0,59.0
680,152.74091868750003,153.52484647500003,56.0,85.0
681,153.5980606875,154.06234593750003,64.0,95.0
682,153.5980606875,154.06413165,59.0,104.0
683,153.5980606875,154.0694887875,56.0,74.0
684,152.74091868750003,154.15163156250003,40.0,77.0
685,154.02663168750001,154.34627422500003,52.0,59.0
686,153.16948968750003,154.39448846250002,47.0,79.0
687,154.45520268750002,155.14091628750003,42.0,76.0
688,154.45520268750002,155.19270195000001,57.0,85.0
689,154.45520268750002,155.203416225,61.0,93.0
690,154.45520268750002,155.203416225,66.0,90.0
691,155.31234468750003,155.324844675,38.0,77.0
692,155.31234468750003,155.724844275,40.0,76.0
693,155.31234468750003,155.72841570000003,64.0,93.0
694,154.88377368750002,155.73912997500003,49.0,65.0
695,155.31234468750003,155.74270140000002,59.0,100.0
696,155.31234468750003,155.76055852500002,56.0,86.0
697,155.95520118750002,156.02127255000002,54.0,14.0
698,155.95520118750002,156.05341537500001,62.0,15.0
699,155.95520118750002,156.07127250000002,57.0,43.0
700,156.1694866875,156.94984305000003,54.0,86.0
701,156.1694866875,156.94984305000003,57.0,93.0
702,156.1694866875,156.95520018750003,62.0,100.0
703,157.02662868750002,157.524842475,62.0,111.0
704,157.02662868750002,157.53734246250002,57.0,98.0
705,157.02662868750002,157.55341387500002,54.0,95.0
706,156.1694866875,157.6409137875,38.0,77.0
707,157.45519968750003,157.79269935000002,50.0,59.0
708,156.59805768750002,157.82841360000003,45.0,76.0
709,157.88377068750003,158.63198422500002,66.0,74.0
710,157.88377068750003,158.63912707500003,62.0,74.0
711,158.3123416875,158.87662683750003,54.0,64.0
712,157.88377068750003,159.04984095000003,47.0,86.0
713,158.7409126875,159.117698025,71.0,90.0
714,158.7409126875,159.12662658750003,66.0,93.0
715,158.7409126875,159.14269800000002,62.0,83.0
716,159.3837691875,159.44626912500001,57.0,84.0
717,159.59805468750002,160.36948248750002,57.0,84.0
718,159.59805468750002,160.37126820000003,54.0,84.0
719,159.59805468750002,160.37126820000003,62.0,84.0
720,160.45519668750003,160.95341047500003,54.0,84.0
721,160.45519668750003,160.95698190000002,57.0,84.0
722,160.45519668750003,160.95698190000002,62.0,84.0
723,159.59805468750002,160.99805328750003,38.0,84.0
724,161.09805318750003,161.160553125,56.0,82.0
725,160.8837676875,161.21769592500002,50.0,83.0
726,160.02662568750003,161.23019591250002,45.0,84.0
727,161.31233868750002,162.10162361250002,56.0,82.0
728,161.31233868750002,162.11948073750003,59.0,82.0
729,161.31233868750002,162.12126645,64.0,82.0
730,162.16948068750003,162.89090853750002,59.0,81.0
731,162.16948068750003,162.89269425000003,56.0,81.0
732,162.16948068750003,162.89269425000003,64.0,81.0
733,162.59805168750003,163.11233688750002,52.0,81.0
734,163.0266226875,163.76233623750002,56.0,84.0
735,163.0266226875,163.7712648,59.0,84.0
736,163.0266226875,163.77305051250002,64.0,84.0
737,163.4551936875,163.9373360625,52.0,95.0
738,161.31233868750002,164.43912127500002,40.0,82.0
739,163.88376468750002,164.46412125000003,64.0,93.0
740,163.88376468750002,164.53912117500002,59.0,93.0
741,163.88376468750002,164.56412115000003,56.0,93.0
742,164.31233568750002,164.6373353625,52.0,89.0
743,161.74090968750002,164.69269245,47.0,82.0
744,164.74090668750003,165.51947733750004,61.0,75.0
745,164.74090668750003,165.52126305000002,66.0,83.0
746,164.74090668750003,165.52840590000002,57.0,74.0
747,165.5980486875,165.95697690000003,61.0,98.0
748,164.74090668750003,165.97840545000003,42.0,83.0
749,165.5980486875,165.99447686250002,66.0,93.0
750,165.5980486875,166.00161971250003,57.0,90.0
751,165.16947768750003,166.01769112500003,49.0,62.0
752,166.24090518750003,166.3141194,59.0,14.0
753,166.24090518750003,166.32126225000002,56.0,12.0
754,166.24090518750003,166.32304796250003,64.0,50.0
755,166.45519068750002,167.24268990000002,64.0,93.0
756,166.45519068750002,167.24447561250003,59.0,98.0
757,166.45519068750002,167.24983275000002,56.0,87.0
758,167.31233268750003,167.82126075000002,64.0,112.0
759,167.31233268750003,167.82304646250003,59.0,100.0
760,167.31233268750003,167.84804643750002,56.0,85.0
761,166.88376168750003,167.91054637500002,47.0,70.0
762,167.7409036875,167.91054637500002,52.0,58.0
763,166.45519068750002,167.98376058750003,40.0,75.0
764,167.95518918750003,168.00161771250004,54.0,39.0
765,167.95518918750003,168.02304626250003,62.0,49.0
766,167.95518918750003,168.02840340000003,57.0,52.0
767,168.1694746875,168.92304536250003,62.0,90.0
768,168.1694746875,168.9301882125,54.0,81.0
769,168.1694746875,168.93197392500002,57.0,90.0
770,168.59804568750002,169.4409019875,45.0,85.0
771,169.02661668750002,169.62661608750003,54.0,76.0
772,169.02661668750002,169.62661608750003,62.0,85.0
773,168.1694746875,169.63018751250002,38.0,93.0
774,169.02661668750002,169.63018751250002,57.0,81.0
775,169.88375868750003,170.59804368750002,61.0,74.0
776,169.88375868750003,170.59982940000003,57.0,73.0
777,169.88375868750003,170.6016151125,66.0,75.0
778,170.74090068750002,171.29625727500002,66.0,81.0
779,170.74090068750002,171.30161441250002,61.0,77.0
780,169.88375868750003,171.30518583750003,42.0,79.0
781,171.16947168750002,171.317685825,49.0,63.0
782,170.74090068750002,171.3284001,57.0,74.0
783,171.59804268750003,172.3837561875,62.0,86.0
784,171.59804268750003,172.389113325,54.0,73.0
785,171.59804268750003,172.39804188750003,57.0,81.0
786,172.45518468750004,172.92304136250002,62.0,111.0
787,172.45518468750004,172.9337556375,57.0,98.0
788,172.45518468750004,172.93554135000002,54.0,93.0
789,171.59804268750003,172.999827,38.0,85.0
790,172.8837556875,173.20339822500003,50.0,59.0
791,172.02661368750003,173.2551838875,45.0,86.0
792,173.31232668750002,174.05696880000002,59.0,86.0
793,173.31232668750002,174.05875451250003,64.0,90.0
794,173.31232668750002,174.06232593750002,56.0,76.0
795,174.16946868750003,174.64982535000001,59.0,93.0
796,174.16946868750003,174.65339677500003,64.0,98.0
797,174.16946868750003,174.66411105000003,56.0,86.0
798,173.31232668750002,174.68196817500004,40.0,74.0
799,174.59803968750003,174.94268220000004,52.0,59.0
800,173.74089768750002,175.00696785000002,47.0,75.0
801,175.0266106875,175.76589566250001,57.0,95.0
802,175.0266106875,175.76589566250001,61.0,95.0
803,175.0266106875,175.7712528,66.0,95.0
804,175.88375268750002,176.6426805,61.0,86.0
805,175.88375268750002,176.6426805,66.0,86.0
806,175.88375268750002,176.64625192500003,57.0,77.0
807,176.31232368750003,176.83553745000003,54.0,58.0
808,176.74089468750003,177.49267965,61.0,93.0
809,176.74089468750003,177.49446536250002,57.0,85.0
810,176.74089468750003,177.49446536250002,66.0,90.0
811,177.16946568750004,177.69267945,54.0,58.0
812,177.5980366875,178.39803588750001,57.0,87.0
813,177.5980366875,178.40517873750002,66.0,93.0
814,177.5980366875,178.41053587500002,61.0,93.0
815,175.45518168750002,178.45517868750002,49.0,66.0
816,178.02660768750002,178.45517868750002,54.0,67.0
817,175.0266106875,178.52660718750002,42.0,75.0
818,178.45517868750002,179.21589221250002,62.0,85.0
819,178.45517868750002,179.2301779125,66.0,74.0
820,178.88374968750003,179.5694632875,54.0,67.0
821,178.45517868750002,179.66767747500003,47.0,87.0
822,179.31232068750003,179.70160601250004,66.0,85.0
823,179.31232068750003,179.70339172500002,62.0,95.0
824,180.16946268750002,180.9516047625,59.0,86.0
825,180.81231918750004,180.9516047625,64.0,59.0
826,180.16946268750002,180.95339047500002,56.0,85.0
827,181.02660468750003,181.49088993750001,64.0,95.0
828,181.02660468750003,181.49267565000002,59.0,104.0
829,181.02660468750003,181.49803278750002,56.0,74.0
830,180.16946268750002,181.58017556250002,40.0,77.0
831,181.45517568750003,181.77481822500002,52.0,59.0
832,180.59803368750002,181.82303246250004,47.0,79.0
833,181.88374668750004,182.56946028750002,42.0,76.0
834,181.88374668750004,182.62124595000003,57.0,85.0
835,181.88374668750004,182.63196022500003,61.0,93.0
836,181.88374668750004,182.63196022500003,66.0,90.0
837,182.74088868750002,182.75338867500002,38.0,77.0
838,182.74088868750002,183.15338827500003,40.0,76.0
839,182.74088868750002,183.15695970000002,64.0,93.0
840,182.3123176875,183.167673975,49.0,65.0
841,182.74088868750002,183.17124540000003,59.0,100.0
842,182.74088868750002,183.189102525,56.0,86.0
843,183.3837451875,183.44981655000004,54.0,14.0
844,183.3837451875,183.48195937500003,62.0,15.0
845,183.3837451875,183.49981650000004,57.0,43.0
846,183.59803068750003,184.37838705000001,54.0,86.0
847,183.59803068750003,184.37838705000001,57.0,93.0
848,183.59803068750003,184.3837441875,62.0,100.0
849,184.4551726875,184.95338647500003,62.0,111.0
850,184.4551726875,184.96588646250004,57.0,98.0
851,184.4551726875,184.98195787500003,54.0,95.0
852,183.59803068750003,185.06945778750003,38.0,77.0
853,184.88374368750002,185.22124335000004,50.0,59.0
854,184.02660168750003,185.25695760000002,45.0,76.0
855,185.31231468750002,186.060528225,66.0,74.0
856,185.31231468750002,186.06767107500002,62.0,74.0
857,185.74088568750003,186.30517083750001,54.0,64.0
858,185.31231468750002,186.47838495000002,47.0,86.0
859,186.16945668750003,186.54624202500003,71.0,90.0
860,186.16945668750003,186.55517058750002,66.0,93.0
861,186.16945668750003,186.571242,62.0,83.0
862,186.81231318750002,186.87481312500003,57.0,84.0
863,187.0265986875,187.79802648750004,57.0,84.0
864,187.0265986875,187.79981220000002,54.0,84.0
865,187.0265986875,187.79981220000002,62.0,84.0
866,187.88374068750002,188.38195447500001,54.0,84.0
867,187.88374068750002,188.38552590000003,57.0,84.0
868,187.88374068750002,188.38552590000003,62.0,84.0
869,187.0265986875,188.42659728750002,38.0,84.0
870,188.52659718750002,188.58909712500002,56.0,82.0
871,188.31231168750003,188.64623992500003,50.0,83.0
872,187.45516968750002,188.65873991250004,45.0,84.0
873,188.74088268750003,189.53016761250004,56.0,82.0
874,188.74088268750003,189.54802473750001,59.0,82.0
875,188.74088268750003,189.54981045000002,64.0,82.0
876,189.59802468750001,190.3194525375,59.0,81.0
877,189.59802468750001,190.32123825000002,56.0,81.0
878,189.59802468750001,190.32123825000002,64.0,81.0
879,190.02659568750002,190.54088088750004,52.0,81.0
880,190.45516668750003,191.19088023750004,56.0,84.0
881,190.45516668750003,191.19980880000003,59.0,84.0
882,190.45516668750003,191.20159451250004,64.0,84.0
883,190.88373768750003,191.36588006250003,52.0,95.0
884,188.74088268750003,191.86766527500004,40.0,82.0
885,191.31230868750004,191.89266525000002,64.0,93.0
886,191.31230868750004,191.96766517500004,59.0,93.0
887,191.31230868750004,191.99266515000002,56.0,93.0
888,191.7408796875,192.06587936250003,52.0,89.0
889,189.16945368750004,192.12123645000003,47.0,82.0
890,192.16945068750002,192.51587891250003,76.0,77.0
891,192.38373618750003,192.646235925,66.0,59.0
892,192.59802168750002,192.80873576250002,69.0,69.0
893,192.81230718750004,193.28552100000002,76.0,87.0
894,192.59802168750002,193.3515923625,61.0,68.0
895,193.02659268750003,193.50694935,66.0,69.0
896,193.24087818750002,193.50694935,66.0,64.0
897,193.45516368750003,193.56409215000002,69.0,79.0
898,193.45516368750003,193.73016341250002,61.0,76.0
899,192.16945068750002,193.76409195000002,54.0,68.0
900,193.66944918750002,194.06944878750002,76.0,93.0
901,194.09802018750003,194.35516278750003,66.0,71.0
902,194.31230568750001,194.51230548750002,69.0,70.0
903,194.31230568750001,194.73194812500003,57.0,76.0
904,194.52659118750003,195.00873356250003,76.0,86.0
905,194.95516218750004,195.24801903750003,64.0,63.0
906,194.74087668750002,195.28551900000002,62.0,81.0
907,195.16944768750002,195.35337607500003,69.0,64.0
908,195.16944768750002,195.35337607500003,69.0,68.0
909,193.88373468750004,195.49801878750003,50.0,83.0
910,195.16944768750002,195.61230438750002,57.0,83.0
911,195.3837331875,195.80516133750004,73.0,73.0
912,195.81230418750002,196.09623247500002,69.0,74.0
913,196.02658968750004,196.17480382500003,71.0,88.0
914,196.24087518750002,196.96587446250004,76.0,88.0
915,195.59801868750003,197.16944568750003,52.0,77.0
916,196.88373168750002,197.2551598875,66.0,65.0
917,196.4551606875,197.25873131250003,64.0,58.0
918,196.02658968750004,197.32480267500003,59.0,67.0
919,197.31230268750002,198.55873001250004,52.0,71.0
920,197.31230268750002,198.60872996250004,68.0,74.0
921,198.16944468750003,198.98372958750002,64.0,74.0
922,197.74087368750003,198.99622957500003,59.0,75.0
923,199.02658668750001,199.32837210000002,76.0,67.0
924,199.24087218750003,199.54087188750003,66.0,58.0
925,199.45515768750002,199.62301466250003,69.0,63.0
926,199.66944318750004,200.0980141875,73.0,74.0
927,199.45515768750002,200.253371175,61.0,64.0
928,200.0980141875,200.38372818750003,66.0,66.0
929,200.31229968750003,200.54622802500003,69.0,61.0
930,200.31229968750003,200.54979945000002,61.0,74.0
931,199.02658668750001,200.62122795000002,54.0,79.0
932,200.52658518750002,200.91765622500003,76.0,79.0
933,200.95515618750002,201.24265590000002,66.0,64.0
934,201.16944168750004,201.38551290000004,69.0,65.0
935,201.38372718750003,201.79979820000003,76.0,77.0
936,201.16944168750004,201.83551245000004,57.0,71.0
937,201.81229818750003,202.07658363750002,66.0,61.0
938,200.74087068750003,202.18551210000004,50.0,87.0
939,202.02658368750002,202.28908342500003,69.0,63.0
940,201.59801268750002,202.38551190000004,62.0,83.0
941,202.02658368750002,202.45872611250002,57.0,90.0
942,202.24086918750004,202.48551180000004,76.0,74.0
943,202.66944018750002,202.92479707500001,66.0,60.0
944,202.88372568750003,203.10515403750003,69.0,63.0
945,203.09801118750002,203.64801063750002,76.0,76.0
946,203.31229668750004,204.06943878750002,64.0,64.0
947,202.88372568750003,204.07479592500002,59.0,73.0
948,204.01408170000002,204.18015296250002,76.0,63.0
949,204.06051022500003,204.24443861250003,80.0,73.0
950,204.17122440000003,205.06050922500003,83.0,72.0
951,204.16943868750002,205.08193777500003,64.0,58.0
952,204.16943868750002,205.11408060000002,59.0,72.0
953,202.45515468750003,205.15515198750003,52.0,81.0
