,start,end,pitch,velocity
0,20.36145833333333,20.609375,72.0,77.0
1,20.61145833333333,20.859375,74.0,64.0
2,20.86145833333333,21.113541666666666,77.0,79.0
3,21.11145833333333,21.395833333333332,74.0,62.0
4,21.36145833333333,21.609375,79.0,92.0
5,21.61145833333333,24.109375,81.0,97.0
6,24.11145833333333,24.365625,72.0,47.0
7,24.36145833333333,24.609375,81.0,66.0
8,24.61145833333333,24.858333333333334,79.0,62.0
9,24.86145833333333,25.109375,79.0,76.0
10,25.11145833333333,25.358333333333334,77.0,54.0
11,25.36145833333333,25.860416666666666,77.0,79.0
12,25.86145833333333,26.148958333333333,74.0,50.0
13,26.11145833333333,28.359375,77.0,66.0
14,28.36145833333333,28.6375,72.0,66.0
15,28.61145833333333,28.859375,74.0,52.0
16,28.86145833333333,29.139583333333334,77.0,65.0
17,29.11145833333333,29.933333333333334,74.0,58.0
18,29.86145833333333,30.109375,77.0,56.0
19,30.11145833333333,32.359375,79.0,66.0
20,32.36145833333333,32.61354166666666,72.0,71.0
21,32.61145833333333,32.859375,74.0,61.0
22,32.86145833333333,33.13333333333333,77.0,79.0
23,33.11145833333333,33.359375,79.0,77.0
24,33.36145833333333,34.858333333333334,81.0,77.0
25,34.86145833333333,35.38125,81.0,93.0
26,35.36145833333333,36.359375,79.0,86.0
27,36.36145833333333,36.653125,72.0,65.0
28,36.61145833333333,36.859375,74.0,66.0
29,36.86145833333333,37.109375,77.0,90.0
30,37.11145833333333,37.360416666666666,74.0,65.0
31,37.36145833333333,37.89791666666667,79.0,90.0
32,37.86145833333333,40.109375,81.0,91.0
33,40.11145833333333,40.37291666666667,72.0,62.0
34,40.36145833333333,40.63333333333333,81.0,66.0
35,40.61145833333333,40.858333333333334,79.0,63.0
36,40.86145833333333,41.119791666666664,79.0,66.0
37,41.11145833333333,41.358333333333334,77.0,54.0
38,41.36145833333333,41.859375,77.0,68.0
39,41.86145833333333,42.11875,74.0,54.0
40,42.11145833333333,44.359375,77.0,67.0
41,44.36145833333333,44.609375,72.0,92.0
42,44.61145833333333,44.859375,74.0,65.0
43,44.86145833333333,45.109375,77.0,92.0
44,45.11145833333333,45.859375,74.0,86.0
45,45.86145833333333,46.359375,77.0,69.0
46,46.36145833333333,48.359375,79.0,90.0
47,48.36145833333333,48.6375,72.0,66.0
48,48.61145833333333,48.859375,74.0,56.0
49,48.86145833333333,49.109375,77.0,65.0
50,49.11145833333333,49.359375,79.0,73.0
51,49.36145833333333,50.858333333333334,81.0,81.0
52,50.86145833333333,51.384375,81.0,80.0
53,51.36145833333333,52.359375,79.0,87.0
54,52.36145833333333,52.66770833333333,72.0,77.0
55,52.61145833333333,52.86770833333333,74.0,66.0
56,52.86145833333333,53.359375,77.0,95.0
57,53.36145833333333,53.89375,79.0,89.0
58,53.86145833333333,54.108333333333334,81.0,90.0
59,54.11145833333333,55.109375,81.0,92.0
60,55.11145833333333,55.359375,81.0,100.0
61,55.36145833333333,55.859375,84.0,93.0
62,55.86145833333333,56.109375,86.0,96.0
63,56.11145833333333,56.858333333333334,81.0,94.0
64,56.86145833333333,57.109375,81.0,92.0
65,57.11145833333333,57.359375,84.0,80.0
66,57.36145833333333,57.61770833333333,86.0,90.0
67,57.61145833333333,57.86875,88.0,92.0
68,57.86145833333333,58.14270833333333,86.0,90.0
69,58.11145833333333,58.411458333333336,88.0,90.0
70,58.36145833333333,58.734375,86.0,91.0
71,58.73645833333333,59.108333333333334,84.0,94.0
72,59.11145833333333,59.359375,84.0,89.0
73,59.36145833333333,60.858333333333334,81.0,95.0
74,60.86145833333333,61.109375,81.0,100.0
75,61.11145833333333,61.401041666666664,79.0,79.0
76,61.36145833333333,61.859375,81.0,92.0
77,61.86145833333333,62.609375,84.0,87.0
78,62.61145833333333,63.109375,81.0,97.0
79,63.11145833333333,63.359375,79.0,91.0
80,63.36145833333333,63.734375,74.0,92.0
81,63.73645833333333,64.85833333333333,77.0,91.0
82,64.86145833333333,65.109375,77.0,84.0
83,65.11145833333333,65.359375,79.0,61.0
84,65.36145833333333,65.61875,81.0,66.0
85,65.61145833333333,65.85833333333333,79.0,50.0
86,65.86145833333333,66.13229166666666,79.0,55.0
87,66.11145833333333,66.35833333333333,77.0,56.0
88,66.36145833333333,66.73333333333333,77.0,60.0
89,66.73645833333333,67.109375,77.0,55.0
90,67.11145833333333,67.359375,74.0,57.0
91,67.36145833333333,68.359375,79.0,52.0
92,68.36145833333333,68.609375,72.0,90.0
93,68.61145833333333,68.859375,74.0,89.0
94,68.86145833333333,69.359375,77.0,100.0
95,69.36145833333333,69.86979166666667,79.0,91.0
96,69.86145833333333,70.10833333333333,81.0,93.0
97,70.11145833333333,71.10833333333333,81.0,100.0
98,71.11145833333333,71.359375,81.0,98.0
99,71.36145833333333,71.859375,84.0,99.0
100,71.86145833333333,72.165625,86.0,90.0
101,72.11145833333333,72.85833333333333,81.0,100.0
102,72.86145833333333,73.109375,81.0,97.0
103,73.11145833333333,73.359375,84.0,86.0
104,73.36145833333333,73.609375,86.0,84.0
105,73.61145833333333,73.91041666666666,88.0,79.0
106,73.86145833333333,74.109375,86.0,84.0
107,74.11145833333333,74.64895833333333,88.0,82.0
108,74.36145833333333,74.715625,86.0,87.0
109,74.61145833333333,75.10833333333333,84.0,87.0
110,75.11145833333333,75.359375,84.0,90.0
111,75.36145833333333,76.85833333333333,81.0,90.0
112,76.86145833333333,77.11875,81.0,106.0
113,77.11145833333333,77.359375,79.0,92.0
114,77.36145833333333,77.859375,81.0,95.0
115,77.86145833333333,78.609375,84.0,90.0
116,78.61145833333333,79.109375,81.0,100.0
117,79.11145833333333,79.359375,79.0,96.0
118,79.36145833333333,79.734375,74.0,87.0
119,79.73645833333333,80.859375,77.0,96.0
120,80.86145833333333,81.109375,74.0,99.0
121,81.11145833333333,81.41458333333333,72.0,77.0
122,81.36145833333333,81.859375,74.0,89.0
123,81.86145833333333,82.35833333333333,77.0,84.0
124,82.36145833333333,82.73333333333333,77.0,90.0
125,82.73645833333333,83.109375,77.0,91.0
126,83.11145833333333,83.359375,81.0,91.0
127,83.36145833333333,84.109375,79.0,93.0
128,84.11145833333333,84.35833333333333,74.0,64.0
129,84.36145833333333,84.734375,74.0,87.0
130,84.73645833333333,85.109375,77.0,98.0
131,85.11145833333333,85.609375,79.0,99.0
132,85.61145833333333,87.359375,77.0,103.0
133,104.36145833333333,104.609375,72.0,89.0
134,104.61145833333333,104.859375,74.0,64.0
135,104.86145833333333,105.11354166666666,77.0,79.0
136,105.11145833333333,105.39583333333333,74.0,62.0
137,105.36145833333333,105.734375,79.0,92.0
138,105.73645833333333,108.109375,81.0,97.0
139,108.11145833333333,108.359375,72.0,47.0
140,108.36145833333333,108.734375,81.0,66.0
141,108.61145833333333,108.85833333333333,79.0,62.0
142,108.86145833333333,109.109375,79.0,76.0
143,109.11145833333333,109.35833333333333,77.0,54.0
144,109.36145833333333,109.86041666666667,77.0,79.0
145,109.86145833333333,110.109375,74.0,50.0
146,110.11145833333333,112.359375,77.0,66.0
147,112.36145833333333,112.6375,72.0,66.0
148,112.61145833333333,112.859375,74.0,52.0
149,112.86145833333333,113.13958333333333,77.0,65.0
150,113.11145833333333,113.93333333333334,74.0,58.0
151,113.86145833333333,114.109375,77.0,56.0
152,114.11145833333333,116.484375,79.0,66.0
153,116.48645833333333,116.73854166666666,72.0,71.0
154,116.61145833333333,116.859375,74.0,61.0
155,116.86145833333333,117.13333333333333,77.0,79.0
156,117.11145833333333,117.359375,79.0,77.0
157,117.36145833333333,118.85833333333333,81.0,77.0
158,118.86145833333333,119.38125,81.0,93.0
159,119.36145833333333,120.359375,79.0,86.0
160,120.36145833333333,120.653125,72.0,65.0
161,120.61145833333333,120.859375,74.0,66.0
162,120.86145833333333,121.109375,77.0,90.0
163,121.11145833333333,121.36041666666667,74.0,65.0
164,121.36145833333333,121.89791666666666,79.0,90.0
165,121.86145833333333,124.109375,81.0,91.0
166,124.11145833333333,124.37291666666667,72.0,62.0
167,124.36145833333333,124.63333333333333,81.0,66.0
168,124.61145833333333,124.85833333333333,79.0,63.0
169,124.86145833333333,125.11979166666667,79.0,66.0
170,125.11145833333333,125.35833333333333,77.0,54.0
171,125.36145833333333,125.859375,77.0,68.0
172,125.86145833333333,126.11874999999999,74.0,54.0
173,126.11145833333333,128.359375,77.0,67.0
174,128.36145833333333,128.609375,72.0,92.0
175,128.61145833333333,128.859375,74.0,65.0
176,128.86145833333333,129.109375,77.0,92.0
177,129.11145833333333,129.859375,74.0,86.0
178,129.86145833333333,130.359375,77.0,69.0
179,130.36145833333333,132.359375,79.0,90.0
180,132.36145833333333,132.6375,72.0,66.0
181,132.61145833333333,132.859375,74.0,56.0
182,132.86145833333333,133.109375,77.0,65.0
183,133.11145833333333,133.359375,79.0,73.0
184,133.36145833333333,134.85833333333332,81.0,81.0
185,134.86145833333333,135.384375,81.0,80.0
186,135.36145833333333,136.359375,79.0,87.0
187,136.36145833333333,136.66770833333334,72.0,77.0
188,136.61145833333333,136.86770833333333,74.0,66.0
189,136.86145833333333,137.359375,77.0,95.0
190,137.36145833333333,137.89375,79.0,89.0
191,137.86145833333333,138.10833333333332,81.0,90.0
192,138.11145833333333,139.109375,81.0,92.0
193,139.11145833333333,139.359375,81.0,100.0
194,139.36145833333333,139.859375,84.0,93.0
195,139.86145833333333,140.109375,86.0,96.0
196,140.11145833333333,140.85833333333332,81.0,94.0
197,140.86145833333333,141.109375,81.0,92.0
198,141.11145833333333,141.359375,84.0,80.0
199,141.36145833333333,141.61770833333333,86.0,90.0
200,141.61145833333333,141.86875,88.0,92.0
201,141.86145833333333,142.14270833333333,86.0,90.0
202,142.11145833333333,142.41145833333334,88.0,90.0
203,142.36145833333333,142.734375,86.0,91.0
204,142.73645833333333,143.10833333333332,84.0,94.0
205,143.11145833333333,143.359375,84.0,89.0
206,143.36145833333333,144.85833333333332,81.0,95.0
207,144.86145833333333,145.109375,81.0,100.0
208,145.11145833333333,145.359375,79.0,79.0
209,145.36145833333333,145.859375,81.0,92.0
210,145.86145833333333,146.609375,84.0,87.0
211,146.61145833333333,147.234375,81.0,97.0
212,147.11145833333333,147.359375,79.0,91.0
213,147.36145833333333,147.859375,74.0,92.0
214,147.86145833333333,148.85833333333332,77.0,91.0
215,148.98645833333333,149.234375,77.0,84.0
216,149.23645833333333,149.484375,79.0,61.0
217,149.48645833333333,149.609375,81.0,66.0
218,149.61145833333333,149.859375,79.0,50.0
219,149.86145833333333,150.13229166666667,79.0,55.0
220,150.11145833333333,150.35833333333332,77.0,56.0
221,150.36145833333333,150.734375,77.0,60.0
222,150.73645833333333,151.234375,77.0,55.0
223,151.11145833333333,151.359375,74.0,57.0
224,151.36145833333333,152.359375,79.0,52.0
225,152.36145833333333,152.609375,72.0,90.0
226,152.61145833333333,152.859375,74.0,89.0
227,152.86145833333333,153.359375,77.0,100.0
228,153.36145833333333,153.86979166666666,79.0,91.0
229,153.86145833333333,154.10833333333332,81.0,93.0
230,154.11145833333333,155.10833333333332,81.0,100.0
231,155.11145833333333,155.359375,81.0,98.0
232,155.36145833333333,155.859375,84.0,99.0
233,155.86145833333333,156.109375,86.0,90.0
234,156.11145833333333,156.85833333333332,81.0,100.0
235,156.86145833333333,157.109375,81.0,97.0
236,157.11145833333333,157.359375,84.0,86.0
237,157.36145833333333,157.609375,86.0,84.0
238,157.61145833333333,157.859375,88.0,79.0
239,157.86145833333333,158.109375,86.0,84.0
240,158.11145833333333,158.359375,88.0,82.0
241,158.36145833333333,158.715625,86.0,87.0
242,158.73645833333333,159.23333333333332,84.0,87.0
243,159.11145833333333,159.23333333333332,84.0,90.0
244,159.36145833333333,160.85833333333332,81.0,90.0
245,160.86145833333333,161.11875,81.0,106.0
246,161.11145833333333,161.359375,79.0,92.0
247,161.36145833333333,161.859375,81.0,95.0
248,161.86145833333333,162.609375,84.0,90.0
249,162.61145833333333,163.109375,81.0,100.0
250,163.11145833333333,163.359375,79.0,96.0
251,163.36145833333333,163.859375,74.0,87.0
252,163.86145833333333,164.859375,77.0,96.0
253,164.86145833333333,165.109375,74.0,99.0
254,165.11145833333333,165.359375,72.0,77.0
255,165.36145833333333,165.984375,74.0,89.0
256,165.98645833333333,166.48333333333332,77.0,84.0
257,166.36145833333333,166.48333333333332,77.0,90.0
258,166.73645833333333,167.109375,77.0,91.0
259,167.11145833333333,167.359375,81.0,91.0
260,167.36145833333333,168.109375,79.0,93.0
261,168.11145833333333,168.35833333333332,74.0,64.0
262,168.48645833333333,168.859375,74.0,87.0
263,168.86145833333333,169.109375,77.0,98.0
264,169.11145833333333,169.609375,79.0,99.0
265,169.61145833333333,170.109375,77.0,103.0
266,170.11145833333333,170.359375,79.0,103.0
267,170.36145833333333,171.359375,77.0,103.0
268,172.36145833333333,172.609375,73.0,90.0
269,172.61145833333333,172.859375,75.0,89.0
270,172.86145833333333,173.359375,78.0,100.0
271,173.36145833333333,173.86979166666666,80.0,91.0
272,173.86145833333333,174.10833333333332,82.0,93.0
273,174.11145833333333,175.10833333333332,82.0,100.0
274,175.11145833333333,175.359375,82.0,98.0
275,175.36145833333333,175.859375,85.0,99.0
276,175.86145833333333,176.109375,87.0,90.0
277,176.11145833333333,176.85833333333332,82.0,100.0
278,176.86145833333333,177.109375,82.0,97.0
279,177.11145833333333,177.359375,85.0,86.0
280,177.36145833333333,177.609375,87.0,84.0
281,177.61145833333333,177.859375,89.0,79.0
282,177.86145833333333,178.109375,87.0,84.0
283,178.11145833333333,178.359375,89.0,82.0
284,178.36145833333333,178.715625,87.0,87.0
285,178.73645833333333,179.23333333333332,85.0,87.0
286,179.11145833333333,179.23333333333332,85.0,90.0
287,179.36145833333333,180.609375,82.0,90.0
288,180.61145833333333,181.11875,82.0,106.0
289,181.11145833333333,181.359375,80.0,92.0
290,181.36145833333333,181.859375,82.0,95.0
291,181.86145833333333,182.609375,85.0,90.0
292,182.61145833333333,183.109375,82.0,100.0
293,183.11145833333333,183.359375,80.0,96.0
294,183.36145833333333,183.859375,75.0,87.0
295,183.86145833333333,184.859375,78.0,96.0
296,184.86145833333333,185.109375,78.0,99.0
297,185.11145833333333,185.359375,80.0,77.0
298,185.36145833333333,185.609375,82.0,89.0
299,185.61145833333333,185.859375,80.0,89.0
300,185.86145833333333,186.109375,80.0,89.0
301,186.11145833333333,186.359375,78.0,84.0
302,186.36145833333333,186.73333333333332,87.0,90.0
303,186.73645833333333,187.109375,85.0,91.0
304,187.11145833333333,187.359375,78.0,91.0
305,187.36145833333333,188.109375,80.0,93.0
306,188.36145833333333,188.609375,73.0,90.0
307,188.61145833333333,188.859375,75.0,89.0
308,188.86145833333333,189.359375,78.0,100.0
309,189.36145833333333,189.86979166666666,80.0,91.0
310,189.86145833333333,190.10833333333332,82.0,93.0
311,190.11145833333333,191.10833333333332,82.0,100.0
312,191.11145833333333,191.359375,82.0,98.0
313,191.36145833333333,191.859375,85.0,99.0
314,191.86145833333333,192.109375,87.0,90.0
315,192.11145833333333,192.85833333333332,82.0,100.0
316,192.86145833333333,193.109375,82.0,97.0
317,193.11145833333333,193.359375,85.0,86.0
318,193.36145833333333,193.609375,87.0,84.0
319,193.61145833333333,193.859375,89.0,79.0
320,193.86145833333333,194.109375,87.0,84.0
321,194.11145833333333,194.359375,89.0,82.0
322,194.36145833333333,194.715625,87.0,87.0
323,194.73645833333333,195.23333333333332,85.0,87.0
324,195.11145833333333,195.23333333333332,85.0,90.0
325,195.36145833333333,196.859375,82.0,90.0
326,196.86145833333333,197.11875,82.0,106.0
327,197.11145833333333,197.359375,80.0,92.0
328,197.36145833333333,197.859375,82.0,95.0
329,197.86145833333333,198.609375,85.0,90.0
330,198.61145833333333,199.109375,82.0,100.0
331,199.11145833333333,199.359375,80.0,96.0
332,199.36145833333333,199.609375,75.0,87.0
333,199.61145833333333,200.859375,78.0,96.0
334,200.86145833333333,201.109375,75.0,99.0
335,201.11145833333333,201.359375,73.0,77.0
336,201.36145833333333,201.734375,75.0,89.0
337,201.86145833333333,202.359375,78.0,89.0
338,202.36145833333333,202.734375,78.0,89.0
339,202.73645833333333,203.109375,78.0,100.0
340,203.11145833333333,203.359375,82.0,100.0
341,203.36145833333333,203.609375,80.0,100.0
342,204.11145833333333,204.359375,75.0,100.0
343,204.36145833333333,204.859375,75.0,100.0
344,204.86145833333333,205.359375,78.0,100.0
345,205.36145833333333,205.859375,80.0,100.0
346,205.86145833333333,206.609375,78.0,100.0
347,208.86145833333333,209.109375,75.0,84.0
348,209.11145833333333,209.359375,73.0,79.0
349,209.36145833333333,209.859375,75.0,89.0
350,209.86145833333333,210.35833333333332,78.0,89.0
351,210.36145833333333,210.734375,78.0,80.0
352,210.73645833333333,211.109375,78.0,80.0
353,211.11145833333333,211.609375,82.0,77.0
354,211.61145833333333,214.359375,80.0,89.0
355,215.48645833333333,215.85833333333332,75.0,91.0
356,215.86145833333333,216.234375,75.0,97.0
357,216.23645833333333,217.109375,78.0,104.0
358,217.11145833333333,217.609375,80.0,95.0
359,217.61145833333333,221.359375,78.0,91.0
