,start,end,pitch,velocity
0,1.3614583333333332,2.8020833333333335,41.0,45.0
1,1.3614583333333332,2.814583333333333,60.0,85.0
2,1.3614583333333332,2.8583333333333334,65.0,88.0
3,1.3614583333333332,2.8979166666666667,53.0,53.0
4,1.3614583333333332,2.939583333333333,57.0,56.0
5,3.361458333333333,4.596875,60.0,81.0
6,3.361458333333333,4.623958333333333,67.0,45.0
7,3.361458333333333,4.628125,55.0,57.0
8,3.361458333333333,4.66875,64.0,84.0
9,3.361458333333333,4.745833333333334,52.0,69.0
10,5.361458333333333,5.848958333333333,65.0,74.0
11,5.361458333333333,5.855208333333334,62.0,60.0
12,5.361458333333333,5.860416666666667,69.0,72.0
13,5.361458333333333,5.921875,43.0,57.0
14,5.361458333333333,5.935416666666667,58.0,48.0
15,6.361458333333333,6.766666666666667,67.0,84.0
16,6.361458333333333,6.769791666666666,64.0,72.0
17,6.361458333333333,6.796875,60.0,57.0
18,6.361458333333333,6.913541666666666,48.0,60.0
19,7.361458333333333,8.333333333333334,53.0,50.0
20,7.361458333333333,8.520833333333334,60.0,63.0
21,7.361458333333333,8.545833333333333,57.0,47.0
22,7.361458333333333,8.585416666666667,65.0,56.0
23,7.361458333333333,8.716666666666667,41.0,48.0
24,8.361458333333333,8.825,53.0,29.0
25,8.861458333333333,8.966666666666667,57.0,60.0
26,9.361458333333333,9.895833333333334,58.0,54.0
27,9.361458333333333,10.133333333333333,62.0,91.0
28,9.361458333333333,10.153125,65.0,69.0
29,9.361458333333333,10.161458333333334,70.0,72.0
30,10.111458333333333,10.49375,58.0,78.0
31,10.361458333333333,10.702083333333333,62.0,70.0
32,10.361458333333333,10.711458333333333,65.0,91.0
33,10.361458333333333,10.7375,70.0,82.0
34,9.361458333333333,10.935416666666667,53.0,97.0
35,10.611458333333333,10.951041666666667,58.0,93.0
36,9.361458333333333,11.0,46.0,62.0
37,10.861458333333333,11.032291666666666,62.0,82.0
38,11.111458333333333,11.29375,67.0,90.0
39,11.361458333333333,11.805208333333333,57.0,74.0
40,11.361458333333333,11.957291666666666,69.0,84.0
41,11.361458333333333,11.983333333333333,60.0,96.0
42,11.361458333333333,11.986458333333333,65.0,101.0
43,11.861458333333333,12.240625,57.0,88.0
44,12.111458333333333,12.471875,65.0,101.0
45,12.111458333333333,12.472916666666666,72.0,101.0
46,12.111458333333333,12.473958333333334,60.0,99.0
47,12.361458333333333,12.620833333333334,57.0,57.0
48,12.736458333333333,12.873958333333333,57.0,63.0
49,12.611458333333333,12.898958333333333,65.0,107.0
50,12.611458333333333,12.907291666666666,60.0,94.0
51,12.611458333333333,12.919791666666667,70.0,91.0
52,11.361458333333333,13.019791666666666,45.0,78.0
53,12.861458333333333,13.053125,67.0,88.0
54,13.111458333333333,13.204166666666666,69.0,86.0
55,13.361458333333333,13.695833333333333,70.0,93.0
56,13.361458333333333,13.736458333333333,65.0,84.0
57,13.361458333333333,13.74375,62.0,65.0
58,14.111458333333333,14.414583333333333,58.0,93.0
59,13.861458333333333,14.6375,55.0,101.0
60,14.361458333333333,14.663541666666667,62.0,101.0
61,14.611458333333333,14.920833333333333,65.0,99.0
62,13.611458333333333,14.932291666666666,50.0,86.0
63,14.861458333333333,14.9375,55.0,92.0
64,13.361458333333333,14.945833333333333,43.0,96.0
65,15.361458333333333,16.071875,65.0,90.0
66,15.361458333333333,16.16875,60.0,69.0
67,15.361458333333333,16.208333333333332,55.0,74.0
68,16.36145833333333,16.584375,55.0,94.0
69,16.11145833333333,16.707291666666666,48.0,51.0
70,16.36145833333333,16.719791666666666,60.0,97.0
71,16.36145833333333,16.763541666666665,65.0,86.0
72,15.361458333333333,16.982291666666665,36.0,94.0
73,16.86145833333333,17.011458333333334,48.0,86.0
74,17.36145833333333,17.422916666666666,36.0,91.0
75,19.11145833333333,19.335416666666667,72.0,65.0
76,19.23645833333333,19.561458333333334,77.0,76.0
77,19.36145833333333,20.195833333333333,84.0,63.0
78,19.36145833333333,20.255208333333332,79.0,84.0
79,17.36145833333333,20.382291666666667,48.0,82.0
80,21.36145833333333,21.855208333333334,60.0,68.0
81,21.36145833333333,21.866666666666667,57.0,45.0
82,21.36145833333333,21.920833333333334,65.0,50.0
83,22.36145833333333,22.84583333333333,69.0,53.0
84,22.36145833333333,22.8625,65.0,53.0
85,22.36145833333333,22.897916666666667,60.0,44.0
86,23.36145833333333,23.8875,69.0,56.0
87,23.36145833333333,23.90833333333333,65.0,47.0
88,23.36145833333333,23.966666666666665,60.0,38.0
89,21.36145833333333,24.215625,53.0,57.0
90,21.36145833333333,24.2375,41.0,41.0
91,24.36145833333333,24.779166666666665,40.0,59.0
92,24.36145833333333,24.865625,64.0,60.0
93,24.36145833333333,24.87708333333333,52.0,59.0
94,24.36145833333333,24.88125,60.0,54.0
95,24.36145833333333,24.897916666666667,67.0,85.0
96,25.36145833333333,25.860416666666666,65.0,60.0
97,25.36145833333333,25.922916666666666,60.0,50.0
98,25.36145833333333,25.932291666666668,69.0,62.0
99,25.36145833333333,26.710416666666667,57.0,42.0
100,26.36145833333333,26.913541666666667,69.0,56.0
101,26.36145833333333,26.965625,65.0,54.0
102,26.36145833333333,26.989583333333332,60.0,44.0
103,27.11145833333333,27.657291666666666,57.0,33.0
104,25.36145833333333,27.83125,50.0,31.0
105,27.36145833333333,28.403125,65.0,76.0
106,27.36145833333333,28.416666666666668,60.0,59.0
107,28.61145833333333,28.753125,60.0,79.0
108,28.36145833333333,28.779166666666665,57.0,57.0
109,28.11145833333333,28.86145833333333,50.0,63.0
110,28.86145833333333,29.108333333333334,65.0,88.0
111,29.11145833333333,29.291666666666668,70.0,60.0
112,29.61145833333333,30.152083333333334,57.0,55.0
113,29.86145833333333,30.18958333333333,58.0,75.0
114,30.11145833333333,30.579166666666666,65.0,86.0
115,30.36145833333333,30.90833333333333,57.0,44.0
116,30.61145833333333,30.958333333333332,58.0,77.0
117,30.86145833333333,31.131249999999998,67.0,69.0
118,29.36145833333333,32.04479166666667,43.0,79.0
119,31.36145833333333,32.098958333333336,58.0,60.0
120,31.61145833333333,32.16458333333333,65.0,58.0
121,31.11145833333333,32.208333333333336,57.0,38.0
122,32.11145833333333,32.927083333333336,43.0,53.0
123,32.36145833333333,32.984375,65.0,70.0
124,32.36145833333333,33.036458333333336,57.0,55.0
125,33.36145833333333,33.91041666666666,62.0,67.0
126,33.36145833333333,33.98229166666667,70.0,72.0
127,34.11145833333333,34.43333333333333,62.0,57.0
128,34.36145833333333,34.682291666666664,65.0,46.0
129,33.61145833333333,34.891666666666666,53.0,62.0
130,33.36145833333333,34.90208333333333,46.0,76.0
131,33.86145833333333,34.965625,58.0,54.0
132,34.61145833333333,35.0375,70.0,79.0
133,35.36145833333333,35.85520833333333,65.0,78.0
134,35.36145833333333,35.87916666666666,72.0,79.0
135,36.11145833333333,36.4875,65.0,75.0
136,36.36145833333333,36.60729166666667,67.0,71.0
137,36.61145833333333,36.7625,72.0,78.0
138,35.86145833333333,36.99791666666667,60.0,73.0
139,35.61145833333333,37.03333333333333,55.0,69.0
140,35.36145833333333,37.065625,48.0,81.0
141,37.23645833333333,37.29895833333333,77.0,15.0
142,37.36145833333333,38.02708333333333,65.0,72.0
143,37.36145833333333,38.44166666666666,69.0,78.0
144,37.36145833333333,38.453125,60.0,68.0
145,38.61145833333333,38.81041666666667,60.0,77.0
146,38.86145833333333,38.998958333333334,65.0,66.0
147,37.36145833333333,39.12916666666666,53.0,79.0
148,39.11145833333333,39.434375,60.0,74.0
149,39.11145833333333,39.510416666666664,69.0,76.0
150,39.36145833333333,39.54895833333333,53.0,42.0
151,39.61145833333333,39.87291666666667,67.0,70.0
152,39.61145833333333,39.98229166666667,60.0,78.0
153,38.36145833333333,40.19583333333333,41.0,31.0
154,40.11145833333333,40.225,53.0,57.0
155,40.36145833333333,40.69479166666667,64.0,81.0
156,40.36145833333333,40.71458333333333,60.0,68.0
157,40.36145833333333,40.733333333333334,67.0,96.0
158,40.36145833333333,40.78125,40.0,86.0
159,40.61145833333333,40.925,52.0,74.0
160,40.86145833333333,41.16770833333333,60.0,60.0
161,41.11145833333333,41.485416666666666,72.0,72.0
162,41.36145833333333,41.60520833333333,60.0,72.0
163,41.36145833333333,41.6875,65.0,90.0
164,41.36145833333333,41.77395833333333,69.0,90.0
165,41.86145833333333,42.166666666666664,62.0,60.0
166,42.11145833333333,42.234375,69.0,69.0
167,42.11145833333333,42.286458333333336,77.0,99.0
168,42.23645833333333,42.64270833333333,62.0,42.0
169,41.61145833333333,42.729166666666664,57.0,60.0
170,42.61145833333333,42.73645833333333,76.0,70.0
171,42.61145833333333,42.75,67.0,60.0
172,43.36145833333333,43.51875,60.0,51.0
173,43.36145833333333,43.51875,60.0,78.0
174,43.11145833333333,43.709375,57.0,79.0
175,43.36145833333333,43.780208333333334,65.0,77.0
176,43.36145833333333,43.979166666666664,69.0,90.0
177,44.11145833333333,44.403125,57.0,62.0
178,44.36145833333333,44.559375,67.0,97.0
179,44.36145833333333,44.755208333333336,60.0,94.0
180,44.61145833333333,44.766666666666666,57.0,54.0
181,41.36145833333333,44.817708333333336,50.0,81.0
182,44.86145833333333,45.00729166666667,64.0,72.0
183,45.11145833333333,45.186458333333334,65.0,33.0
184,45.36145833333333,46.19166666666666,65.0,72.0
185,45.36145833333333,46.208333333333336,62.0,47.0
186,45.36145833333333,46.221875,70.0,85.0
187,46.36145833333333,46.53333333333333,62.0,74.0
188,46.11145833333333,46.703125,58.0,63.0
189,46.61145833333333,46.96145833333333,65.0,94.0
190,46.86145833333333,47.24791666666667,58.0,62.0
191,47.11145833333333,47.45,70.0,74.0
192,47.11145833333333,47.49270833333333,60.0,76.0
193,47.36145833333333,47.677083333333336,58.0,45.0
194,47.61145833333333,48.034375,69.0,69.0
195,47.61145833333333,48.041666666666664,60.0,63.0
196,48.11145833333333,48.47708333333333,58.0,63.0
197,45.86145833333333,48.72708333333333,53.0,69.0
198,48.36145833333333,48.72708333333333,60.0,96.0
199,45.36145833333333,48.746875,46.0,69.0
200,48.61145833333333,48.776041666666664,65.0,65.0
201,48.61145833333333,48.802083333333336,58.0,78.0
202,48.86145833333333,49.14791666666667,67.0,82.0
203,49.36145833333333,49.670833333333334,60.0,74.0
204,49.36145833333333,49.79479166666667,65.0,84.0
205,49.11145833333333,49.99583333333333,72.0,86.0
206,50.11145833333333,50.422916666666666,65.0,91.0
207,49.61145833333333,50.43958333333333,55.0,41.0
208,50.36145833333333,50.52916666666667,67.0,84.0
209,49.86145833333333,50.678125,60.0,62.0
210,50.86145833333333,50.958333333333336,55.0,96.0
211,49.36145833333333,50.979166666666664,48.0,81.0
212,50.61145833333333,51.034375,69.0,77.0
213,51.36145833333333,51.69895833333333,72.0,76.0
214,51.36145833333333,51.715624999999996,60.0,76.0
215,51.36145833333333,51.72708333333333,64.0,81.0
216,51.36145833333333,51.75833333333333,67.0,74.0
217,51.86145833333333,52.03854166666667,60.0,60.0
218,51.61145833333333,52.240625,48.0,66.0
219,52.11145833333333,52.24791666666667,65.0,53.0
220,52.36145833333333,52.725,67.0,91.0
221,52.36145833333333,52.731249999999996,60.0,81.0
222,52.36145833333333,52.766666666666666,48.0,74.0
223,51.36145833333333,52.770833333333336,36.0,96.0
224,52.86145833333333,53.067708333333336,60.0,82.0
225,52.86145833333333,53.128125,65.0,72.0
226,52.86145833333333,53.168749999999996,38.0,81.0
227,53.11145833333333,53.234375,67.0,78.0
228,53.11145833333333,53.25625,40.0,74.0
229,53.36145833333333,53.891666666666666,60.0,94.0
230,53.36145833333333,53.942708333333336,65.0,97.0
231,53.36145833333333,53.94479166666667,69.0,77.0
232,54.11145833333333,54.246874999999996,60.0,33.0
233,53.86145833333333,54.494791666666664,53.0,63.0
234,54.36145833333333,54.69479166666667,60.0,78.0
235,54.36145833333333,54.728125,65.0,96.0
236,54.36145833333333,54.728125,69.0,86.0
237,54.61145833333333,54.94479166666667,53.0,62.0
238,53.36145833333333,55.010416666666664,41.0,88.0
239,54.86145833333333,55.03854166666667,60.0,77.0
240,55.11145833333333,55.33125,69.0,72.0
241,55.36145833333333,55.578125,40.0,88.0
242,55.36145833333333,55.67604166666666,52.0,82.0
243,55.36145833333333,55.925,64.0,81.0
244,55.36145833333333,56.109375,67.0,86.0
245,55.36145833333333,56.420833333333334,60.0,77.0
246,56.36145833333333,56.76770833333333,57.0,72.0
247,56.61145833333333,56.942708333333336,67.0,89.0
248,56.61145833333333,56.95104166666667,60.0,106.0
249,56.86145833333333,56.98229166666667,57.0,72.0
250,56.11145833333333,57.02916666666667,52.0,84.0
251,57.11145833333333,57.32395833333333,72.0,96.0
252,57.36145833333333,57.453125,72.0,60.0
253,57.36145833333333,57.65625,60.0,86.0
254,57.36145833333333,57.731249999999996,65.0,88.0
255,57.36145833333333,57.809374999999996,69.0,92.0
256,58.11145833333333,58.41041666666666,69.0,82.0
257,58.11145833333333,58.43958333333333,64.0,94.0
258,57.61145833333333,58.684374999999996,57.0,60.0
259,57.86145833333333,58.686458333333334,62.0,77.0
260,58.61145833333333,58.95104166666667,69.0,92.0
261,58.61145833333333,58.96041666666667,65.0,106.0
262,57.36145833333333,58.963541666666664,50.0,88.0
263,58.86145833333333,58.979166666666664,57.0,82.0
264,59.11145833333333,59.275,67.0,99.0
265,59.36145833333333,59.739583333333336,64.0,88.0
266,59.36145833333333,59.85520833333333,72.0,101.0
267,59.36145833333333,59.856249999999996,67.0,103.0
268,60.11145833333333,60.24375,67.0,47.0
269,59.86145833333333,60.365625,60.0,86.0
270,60.36145833333333,60.56041666666667,77.0,82.0
271,60.48645833333333,60.64270833333333,60.0,57.0
272,60.61145833333333,60.909375,76.0,107.0
273,59.36145833333333,61.032291666666666,48.0,84.0
274,59.61145833333333,61.04479166666667,57.0,68.0
275,60.98645833333333,61.05,60.0,50.0
276,60.86145833333333,61.10104166666667,72.0,96.0
277,61.11145833333333,61.26875,69.0,62.0
278,61.36145833333333,61.614583333333336,74.0,90.0
279,61.36145833333333,61.628125,69.0,94.0
280,61.86145833333333,62.25625,58.0,92.0
281,62.11145833333333,62.56979166666667,65.0,95.0
282,62.11145833333333,62.604166666666664,62.0,91.0
283,62.11145833333333,62.615625,70.0,109.0
284,62.36145833333333,62.69479166666667,58.0,76.0
285,62.61145833333333,62.786458333333336,62.0,72.0
286,62.86145833333333,62.969791666666666,58.0,31.0
287,61.61145833333333,63.01979166666666,53.0,92.0
288,62.86145833333333,63.0375,65.0,92.0
289,61.36145833333333,63.053125,46.0,66.0
290,63.11145833333333,63.260416666666664,67.0,77.0
291,63.36145833333333,63.688541666666666,57.0,50.0
292,63.36145833333333,63.92604166666666,69.0,85.0
293,63.36145833333333,63.92916666666667,65.0,60.0
294,63.36145833333333,63.93541666666667,60.0,72.0
295,64.11145833333333,64.265625,60.0,60.0
296,63.86145833333333,64.44166666666666,57.0,47.0
297,64.36145833333333,64.71875,69.0,85.0
298,64.36145833333333,64.72291666666666,60.0,97.0
299,64.36145833333333,64.73854166666666,65.0,96.0
300,64.61145833333333,64.975,57.0,72.0
301,63.36145833333333,65.009375,45.0,60.0
302,64.86145833333333,65.05520833333333,60.0,97.0
303,65.11145833333333,65.3,72.0,103.0
304,65.36145833333333,65.41458333333333,72.0,48.0
305,65.36145833333333,65.621875,43.0,91.0
306,65.61145833333333,65.93645833333333,55.0,78.0
307,65.36145833333333,66.16458333333333,65.0,101.0
308,65.36145833333333,66.17083333333333,62.0,97.0
309,65.36145833333333,66.171875,70.0,105.0
310,66.36145833333333,66.53541666666666,62.0,99.0
311,65.86145833333333,66.67916666666666,57.0,60.0
312,66.11145833333333,66.81145833333333,58.0,93.0
313,66.61145833333333,66.92916666666666,65.0,92.0
314,66.86145833333333,67.1375,70.0,112.0
315,67.11145833333333,67.30729166666667,72.0,96.0
316,67.36145833333333,67.65833333333333,65.0,97.0
317,67.36145833333333,67.74166666666666,72.0,35.0
318,67.36145833333333,67.82291666666667,48.0,81.0
319,67.61145833333333,67.85,55.0,85.0
320,67.86145833333333,68.1625,60.0,72.0
321,68.11145833333333,68.25520833333333,69.0,72.0
322,68.11145833333333,68.26041666666667,77.0,96.0
323,68.36145833333333,68.58125,69.0,96.0
324,68.36145833333333,68.62916666666666,77.0,101.0
325,68.11145833333333,68.63333333333333,62.0,65.0
326,68.36145833333333,68.89375,64.0,77.0
327,68.86145833333333,68.971875,62.0,88.0
328,68.73645833333333,69.00104166666667,67.0,92.0
329,68.73645833333333,69.028125,76.0,103.0
330,69.11145833333333,69.203125,67.0,54.0
331,69.11145833333333,69.334375,74.0,96.0
332,69.36145833333333,69.5875,72.0,117.0
333,69.36145833333333,69.640625,67.0,106.0
334,69.36145833333333,69.79479166666667,41.0,91.0
335,69.61145833333333,69.840625,48.0,70.0
336,69.86145833333333,70.2,53.0,76.0
337,70.61145833333333,70.771875,65.0,107.0
338,70.36145833333333,70.81354166666667,60.0,81.0
339,70.11145833333333,70.87604166666667,57.0,82.0
340,70.86145833333333,71.11145833333333,67.0,103.0
341,71.11145833333333,71.43645833333333,69.0,77.0
342,71.36145833333333,71.7375,60.0,86.0
343,71.36145833333333,71.75833333333333,67.0,99.0
344,71.86145833333333,71.97604166666666,60.0,65.0
345,71.61145833333333,72.265625,55.0,72.0
346,72.11145833333333,72.48125,60.0,101.0
347,72.11145833333333,72.49479166666667,72.0,97.0
348,72.61145833333333,72.73541666666667,67.0,91.0
349,72.61145833333333,72.77083333333333,60.0,85.0
350,72.36145833333333,72.9,55.0,88.0
351,71.36145833333333,73.00520833333333,52.0,62.0
352,72.86145833333333,73.11875,67.0,94.0
353,73.11145833333333,73.29479166666667,72.0,92.0
354,73.36145833333333,73.49895833333333,72.0,63.0
355,73.36145833333333,73.540625,60.0,82.0
356,73.36145833333333,73.81666666666666,69.0,79.0
357,73.36145833333333,73.88020833333333,65.0,60.0
358,74.11145833333333,74.28125,64.0,78.0
359,74.11145833333333,74.29479166666667,67.0,78.0
360,73.86145833333333,74.41458333333333,62.0,88.0
361,74.36145833333333,74.60520833333334,65.0,88.0
362,74.36145833333333,74.66770833333334,69.0,103.0
363,74.48645833333333,74.69895833333334,62.0,63.0
364,73.61145833333333,74.7125,57.0,60.0
365,74.73645833333333,75.01979166666666,72.0,96.0
366,74.86145833333333,75.02083333333333,57.0,81.0
367,74.73645833333333,75.02291666666666,65.0,96.0
368,73.36145833333333,75.03854166666666,50.0,81.0
369,75.11145833333333,75.23229166666667,65.0,50.0
370,75.11145833333333,75.32395833333334,69.0,72.0
371,75.36145833333333,75.76770833333333,67.0,111.0
372,75.36145833333333,75.78541666666666,72.0,96.0
373,75.36145833333333,75.796875,63.0,68.0
374,75.86145833333333,76.01666666666667,60.0,79.0
375,75.61145833333333,76.040625,55.0,84.0
376,75.36145833333333,76.04791666666667,48.0,62.0
377,76.36145833333333,76.72291666666666,67.0,56.0
378,76.36145833333333,76.73125,60.0,70.0
379,76.36145833333333,76.73958333333333,63.0,62.0
380,76.11145833333333,76.77083333333333,69.0,81.0
381,76.36145833333333,76.83125,41.0,92.0
382,76.61145833333333,76.95104166666667,53.0,72.0
383,76.86145833333333,77.08958333333334,60.0,78.0
384,77.11145833333333,77.346875,69.0,78.0
385,77.36145833333333,77.89270833333333,62.0,68.0
386,77.36145833333333,77.90520833333333,69.0,54.0
387,77.36145833333333,77.93020833333333,65.0,81.0
388,77.86145833333333,78.15104166666667,58.0,74.0
389,78.11145833333333,78.48958333333333,60.0,76.0
390,78.11145833333333,78.51145833333334,67.0,86.0
391,78.36145833333333,78.67916666666666,58.0,39.0
392,77.61145833333333,78.93854166666667,53.0,82.0
393,78.86145833333333,78.9625,58.0,74.0
394,78.61145833333333,78.971875,65.0,99.0
395,77.36145833333333,78.97708333333333,46.0,68.0
396,78.61145833333333,78.98020833333334,60.0,78.0
397,79.36145833333333,79.7125,69.0,88.0
398,79.36145833333333,79.73854166666666,64.0,85.0
399,79.36145833333333,79.74166666666666,60.0,76.0
400,79.36145833333333,79.98541666666667,45.0,77.0
401,79.86145833333333,80.03854166666666,60.0,72.0
402,79.61145833333333,80.215625,57.0,54.0
403,80.11145833333333,80.296875,69.0,84.0
404,80.61145833333333,80.83125,67.0,103.0
405,80.61145833333333,80.89583333333333,60.0,86.0
406,81.11145833333333,81.31666666666666,65.0,91.0
407,81.36145833333333,81.84166666666667,70.0,83.0
408,81.36145833333333,81.846875,62.0,57.0
409,81.36145833333333,81.86458333333333,65.0,66.0
410,81.86145833333333,82.59895833333333,53.0,84.0
411,82.11145833333333,82.69791666666667,57.0,77.0
412,82.73645833333333,82.9,53.0,68.0
413,81.36145833333333,82.90520833333333,43.0,92.0
414,81.61145833333333,82.928125,50.0,72.0
415,82.61145833333333,83.03645833333333,58.0,112.0
416,82.98645833333333,83.15833333333333,65.0,76.0
417,83.36145833333333,83.68333333333334,55.0,81.0
418,83.36145833333333,83.71354166666667,60.0,97.0
419,83.36145833333333,83.78020833333333,64.0,84.0
420,84.36145833333333,84.77916666666667,72.0,60.0
421,83.36145833333333,84.78125,48.0,84.0
422,84.36145833333333,84.80833333333334,65.0,72.0
423,85.36145833333333,85.728125,69.0,74.0
424,85.36145833333333,85.76041666666667,65.0,72.0
425,85.36145833333333,85.80625,60.0,63.0
426,86.11145833333333,86.66145833333333,53.0,65.0
427,85.36145833333333,86.965625,41.0,76.0
428,86.61145833333333,87.0375,57.0,82.0
429,86.86145833333333,87.196875,53.0,53.0
430,87.11145833333333,88.26145833333334,60.0,82.0
431,87.36145833333333,88.30520833333333,57.0,56.0
432,87.36145833333333,88.32083333333333,65.0,74.0
433,87.36145833333333,88.459375,53.0,65.0
434,87.36145833333333,88.51041666666667,41.0,57.0
435,89.36145833333333,89.87395833333333,60.0,69.0
436,89.36145833333333,89.88645833333334,62.0,86.0
437,89.36145833333333,89.96458333333334,65.0,53.0
438,90.61145833333333,90.94895833333334,65.0,65.0
439,90.86145833333333,91.125,70.0,82.0
440,91.11145833333333,91.18854166666667,74.0,84.0
441,90.36145833333333,91.39791666666666,58.0,47.0
442,91.48645833333333,91.66354166666666,58.0,18.0
443,91.61145833333333,91.76354166666667,70.0,60.0
444,91.61145833333333,91.76458333333333,62.0,72.0
445,92.36145833333333,92.65416666666667,65.0,84.0
446,92.36145833333333,92.74583333333334,60.0,71.0
447,92.11145833333333,92.8125,58.0,45.0
448,89.36145833333333,92.90625,46.0,51.0
449,93.36145833333333,93.79791666666667,55.0,68.0
450,93.36145833333333,93.98958333333333,60.0,72.0
451,93.36145833333333,94.096875,64.0,82.0
452,94.61145833333333,94.97291666666666,64.0,69.0
453,94.86145833333333,95.11979166666667,67.0,66.0
454,95.11145833333333,95.26979166666666,72.0,100.0
455,94.36145833333333,95.36770833333333,57.0,42.0
456,95.61145833333333,96.01458333333333,57.0,43.0
457,93.36145833333333,96.18958333333333,52.0,72.0
458,95.86145833333333,96.421875,60.0,60.0
459,96.11145833333333,96.62395833333333,67.0,82.0
460,93.36145833333333,96.75,45.0,42.0
461,96.36145833333333,96.753125,52.0,72.0
462,96.61145833333333,96.821875,55.0,65.0
463,96.86145833333333,97.03645833333333,60.0,68.0
464,97.36145833333333,97.85729166666667,58.0,59.0
465,97.11145833333333,97.99479166666667,62.0,75.0
466,97.36145833333333,98.11145833333333,65.0,81.0
467,98.86145833333333,99.18645833333333,65.0,59.0
468,98.61145833333333,99.33125,55.0,69.0
469,99.11145833333333,99.34479166666667,72.0,84.0
470,99.86145833333333,100.05833333333334,60.0,54.0
471,99.61145833333333,100.19166666666666,55.0,60.0
472,100.11145833333333,100.43125,67.0,97.0
473,98.11145833333333,100.81770833333333,50.0,69.0
474,100.61145833333333,100.821875,55.0,66.0
475,97.36145833333333,100.84791666666666,43.0,82.0
476,100.86145833333333,101.2125,65.0,84.0
477,101.36145833333333,101.890625,64.0,59.0
478,101.36145833333333,101.89479166666666,55.0,62.0
479,101.36145833333333,101.90104166666667,60.0,77.0
480,101.36145833333333,101.928125,62.0,74.0
481,102.36145833333333,102.54270833333334,55.0,68.0
482,102.61145833333333,102.81875,60.0,59.0
483,102.86145833333333,102.94166666666666,65.0,49.0
484,103.11145833333333,103.33749999999999,67.0,33.0
485,103.36145833333333,103.87395833333333,72.0,72.0
486,101.98645833333333,104.29895833333333,48.0,41.0
487,101.36145833333333,104.41354166666666,36.0,91.0
488,105.36145833333333,105.85520833333334,60.0,68.0
489,105.36145833333333,105.86666666666666,57.0,45.0
490,105.36145833333333,105.92083333333333,65.0,50.0
491,106.36145833333333,106.84583333333333,69.0,53.0
492,106.36145833333333,106.8625,65.0,53.0
493,106.36145833333333,106.89791666666666,60.0,44.0
494,107.36145833333333,107.8875,69.0,56.0
495,107.36145833333333,107.90833333333333,65.0,47.0
496,107.36145833333333,107.96666666666667,60.0,38.0
497,105.36145833333333,108.215625,53.0,57.0
498,105.36145833333333,108.2375,41.0,41.0
499,108.36145833333333,108.77916666666667,40.0,59.0
500,108.36145833333333,108.865625,64.0,60.0
501,108.36145833333333,108.87708333333333,52.0,59.0
502,108.36145833333333,108.88125,60.0,54.0
503,108.36145833333333,108.89791666666666,67.0,85.0
504,109.36145833333333,109.86041666666667,65.0,60.0
505,109.36145833333333,109.92291666666667,60.0,50.0
506,109.36145833333333,109.93229166666667,69.0,62.0
507,109.36145833333333,110.71041666666666,57.0,42.0
508,110.36145833333333,110.91354166666666,69.0,56.0
509,110.36145833333333,110.965625,65.0,54.0
510,110.36145833333333,110.98958333333333,60.0,44.0
511,111.11145833333333,111.65729166666667,57.0,33.0
512,109.36145833333333,111.83125,50.0,31.0
513,111.36145833333333,112.403125,65.0,76.0
514,111.36145833333333,112.41666666666667,60.0,59.0
515,112.61145833333333,112.753125,60.0,79.0
516,112.36145833333333,112.77916666666667,57.0,57.0
517,112.11145833333333,112.86145833333333,50.0,63.0
518,112.86145833333333,113.10833333333333,65.0,88.0
519,113.11145833333333,113.29166666666667,70.0,60.0
520,113.36145833333333,114.215625,58.0,77.0
521,113.36145833333333,114.21979166666667,65.0,81.0
522,114.36145833333333,114.60833333333333,58.0,78.0
523,114.61145833333333,114.86458333333333,62.0,84.0
524,114.86145833333333,115.15208333333334,64.0,78.0
525,114.11145833333333,115.565625,55.0,62.0
526,115.61145833333333,116.34791666666666,70.0,84.0
527,116.11145833333333,116.48020833333334,55.0,69.0
528,113.36145833333333,116.53333333333333,43.0,74.0
529,115.11145833333333,116.5625,65.0,75.0
530,116.36145833333333,116.68333333333334,72.0,91.0
531,117.36145833333333,117.83645833333333,65.0,66.0
532,117.36145833333333,117.84270833333333,60.0,65.0
533,118.36145833333333,118.55,65.0,78.0
534,117.86145833333333,118.68958333333333,55.0,77.0
535,118.11145833333333,118.73229166666667,60.0,66.0
536,118.61145833333333,118.784375,67.0,70.0
537,119.36145833333333,119.67395833333333,84.0,91.0
538,120.36145833333333,120.521875,82.0,47.0
539,120.36145833333333,120.54062499999999,72.0,48.0
540,118.98645833333333,120.69687499999999,55.0,54.0
541,117.36145833333333,120.746875,48.0,72.0
542,121.36145833333333,122.02708333333334,65.0,72.0
543,121.36145833333333,122.44166666666666,69.0,78.0
544,121.36145833333333,122.453125,60.0,68.0
545,122.61145833333333,122.81041666666667,60.0,77.0
546,122.86145833333333,122.99895833333333,65.0,66.0
547,121.36145833333333,123.12916666666666,53.0,79.0
548,123.11145833333333,123.434375,60.0,74.0
549,123.11145833333333,123.51041666666667,69.0,76.0
550,123.36145833333333,123.54895833333333,53.0,42.0
551,123.61145833333333,123.87291666666667,67.0,70.0
552,123.61145833333333,123.98229166666667,60.0,78.0
553,122.36145833333333,124.19583333333333,41.0,31.0
554,124.11145833333333,124.225,53.0,57.0
555,124.36145833333333,124.69479166666666,64.0,81.0
556,124.36145833333333,124.71458333333334,60.0,68.0
557,124.36145833333333,124.73333333333333,67.0,96.0
558,124.36145833333333,124.78125,40.0,86.0
559,124.61145833333333,124.925,52.0,74.0
560,124.86145833333333,125.16770833333334,60.0,60.0
561,125.11145833333333,125.48541666666667,72.0,72.0
562,125.36145833333333,125.60520833333334,60.0,72.0
563,125.36145833333333,125.6875,65.0,90.0
564,125.36145833333333,125.77395833333333,69.0,90.0
565,125.86145833333333,126.16666666666667,62.0,60.0
566,126.11145833333333,126.234375,69.0,69.0
567,126.11145833333333,126.28645833333333,77.0,99.0
568,126.23645833333333,126.64270833333333,62.0,42.0
569,125.61145833333333,126.72916666666667,57.0,60.0
570,126.61145833333333,126.73645833333333,76.0,70.0
571,126.61145833333333,126.75,67.0,60.0
572,127.36145833333333,127.51875,60.0,51.0
573,127.36145833333333,127.51875,60.0,78.0
574,127.11145833333333,127.709375,57.0,79.0
575,127.36145833333333,127.78020833333333,65.0,77.0
576,127.36145833333333,127.97916666666667,69.0,90.0
577,128.11145833333333,128.403125,57.0,62.0
578,128.36145833333333,128.559375,67.0,97.0
579,128.36145833333333,128.75520833333334,60.0,94.0
580,128.61145833333333,128.76666666666665,57.0,54.0
581,125.36145833333333,128.81770833333334,50.0,81.0
582,128.86145833333333,129.00729166666667,64.0,72.0
583,129.11145833333333,129.18645833333332,65.0,33.0
584,129.36145833333333,130.19166666666666,65.0,72.0
585,129.36145833333333,130.20833333333334,62.0,47.0
586,129.36145833333333,130.221875,70.0,85.0
587,130.36145833333333,130.53333333333333,62.0,74.0
588,130.11145833333333,130.703125,58.0,63.0
589,130.61145833333333,130.96145833333333,65.0,94.0
590,130.86145833333333,131.24791666666667,58.0,62.0
591,131.11145833333333,131.45,70.0,74.0
592,131.11145833333333,131.49270833333333,60.0,76.0
593,131.36145833333333,131.67708333333334,58.0,45.0
594,131.61145833333333,132.034375,69.0,69.0
595,131.61145833333333,132.04166666666666,60.0,63.0
596,132.11145833333333,132.47708333333333,58.0,63.0
597,129.86145833333333,132.72708333333333,53.0,69.0
598,132.36145833333333,132.72708333333333,60.0,96.0
599,129.36145833333333,132.746875,46.0,69.0
600,132.61145833333333,132.77604166666666,65.0,65.0
601,132.61145833333333,132.80208333333334,58.0,78.0
602,132.86145833333333,133.14791666666667,67.0,82.0
603,133.36145833333333,133.67083333333332,60.0,74.0
604,133.36145833333333,133.79479166666667,65.0,84.0
605,133.11145833333333,133.99583333333334,72.0,86.0
606,134.11145833333333,134.42291666666665,65.0,91.0
607,133.61145833333333,134.43958333333333,55.0,41.0
608,134.36145833333333,134.52916666666667,67.0,84.0
609,133.86145833333333,134.678125,60.0,62.0
610,134.86145833333333,134.95833333333334,55.0,96.0
611,133.36145833333333,134.97916666666666,48.0,81.0
612,134.61145833333333,135.034375,69.0,77.0
613,135.36145833333333,135.69895833333334,72.0,76.0
614,135.36145833333333,135.715625,60.0,76.0
615,135.36145833333333,135.72708333333333,64.0,81.0
616,135.36145833333333,135.75833333333333,67.0,74.0
617,135.86145833333333,136.03854166666667,60.0,60.0
618,135.61145833333333,136.240625,48.0,66.0
619,136.11145833333333,136.24791666666667,65.0,53.0
620,136.36145833333333,136.725,67.0,91.0
621,136.36145833333333,136.73125,60.0,81.0
622,136.36145833333333,136.76666666666665,48.0,74.0
623,135.36145833333333,136.77083333333334,36.0,96.0
624,136.86145833333333,137.06770833333334,60.0,82.0
625,136.86145833333333,137.128125,65.0,72.0
626,136.86145833333333,137.16875,38.0,81.0
627,137.11145833333333,137.234375,67.0,78.0
628,137.11145833333333,137.25625,40.0,74.0
629,137.36145833333333,137.89166666666665,60.0,94.0
630,137.36145833333333,137.94270833333334,65.0,97.0
631,137.36145833333333,137.94479166666667,69.0,77.0
632,138.11145833333333,138.246875,60.0,33.0
633,137.86145833333333,138.49479166666666,53.0,63.0
634,138.36145833333333,138.69479166666667,60.0,78.0
635,138.36145833333333,138.728125,65.0,96.0
636,138.36145833333333,138.728125,69.0,86.0
637,138.61145833333333,138.94479166666667,53.0,62.0
638,137.36145833333333,139.01041666666666,41.0,88.0
639,138.86145833333333,139.03854166666667,60.0,77.0
640,139.11145833333333,139.33125,69.0,72.0
641,139.36145833333333,139.42916666666667,69.0,50.0
642,139.36145833333333,139.578125,40.0,88.0
643,139.36145833333333,139.67604166666666,52.0,82.0
644,139.36145833333333,139.925,64.0,81.0
645,139.36145833333333,140.109375,67.0,86.0
646,139.36145833333333,140.42083333333332,60.0,77.0
647,140.36145833333333,140.76770833333333,59.0,72.0
648,140.61145833333333,140.94270833333334,67.0,89.0
649,140.61145833333333,140.95104166666667,60.0,106.0
650,140.86145833333333,140.98229166666667,59.0,72.0
651,140.11145833333333,141.02916666666667,52.0,84.0
652,141.11145833333333,141.32395833333334,72.0,96.0
653,141.36145833333333,141.453125,72.0,60.0
654,141.36145833333333,141.65625,60.0,86.0
655,141.36145833333333,141.73125,65.0,88.0
656,141.36145833333333,141.809375,69.0,92.0
657,142.11145833333333,142.41041666666666,69.0,82.0
658,142.11145833333333,142.43958333333333,64.0,94.0
659,141.61145833333333,142.684375,57.0,60.0
660,141.86145833333333,142.68645833333332,62.0,77.0
661,142.61145833333333,142.95104166666667,69.0,92.0
662,142.61145833333333,142.96041666666667,65.0,106.0
663,141.36145833333333,142.96354166666666,50.0,88.0
664,142.86145833333333,142.97916666666666,57.0,82.0
665,143.11145833333333,143.275,67.0,99.0
666,143.36145833333333,143.73958333333334,64.0,88.0
667,143.36145833333333,143.85520833333334,72.0,101.0
668,143.36145833333333,143.85625,67.0,103.0
669,144.11145833333333,144.24375,67.0,47.0
670,143.86145833333333,144.365625,60.0,86.0
671,144.36145833333333,144.56041666666667,77.0,82.0
672,144.48645833333333,144.64270833333333,60.0,57.0
673,144.61145833333333,144.909375,76.0,107.0
674,143.36145833333333,145.03229166666665,48.0,84.0
675,143.61145833333333,145.04479166666667,57.0,68.0
676,144.98645833333333,145.05,60.0,50.0
677,144.86145833333333,145.10104166666667,72.0,96.0
678,145.11145833333333,145.26875,69.0,62.0
679,145.36145833333333,145.61458333333334,74.0,90.0
680,145.36145833333333,145.628125,69.0,94.0
681,145.86145833333333,146.25625,58.0,92.0
682,146.11145833333333,146.56979166666667,65.0,95.0
683,146.11145833333333,146.60416666666666,62.0,91.0
684,146.11145833333333,146.615625,70.0,109.0
685,146.36145833333333,146.69479166666667,58.0,76.0
686,146.61145833333333,146.78645833333334,62.0,72.0
687,146.86145833333333,146.96979166666665,58.0,31.0
688,145.61145833333333,147.01979166666666,53.0,92.0
689,146.86145833333333,147.0375,65.0,92.0
690,145.36145833333333,147.053125,46.0,66.0
691,147.11145833333333,147.26041666666666,67.0,77.0
692,147.36145833333333,147.68854166666665,57.0,50.0
693,147.36145833333333,147.92604166666666,69.0,85.0
694,147.36145833333333,147.92916666666667,65.0,60.0
695,147.36145833333333,147.93541666666667,60.0,72.0
696,148.11145833333333,148.265625,60.0,60.0
697,147.86145833333333,148.44166666666666,57.0,47.0
698,148.36145833333333,148.71875,69.0,85.0
699,148.36145833333333,148.72291666666666,60.0,97.0
700,148.36145833333333,148.73854166666666,65.0,96.0
701,148.61145833333333,148.975,57.0,72.0
702,147.36145833333333,149.009375,45.0,60.0
703,148.86145833333333,149.05520833333333,60.0,97.0
704,149.11145833333333,149.3,72.0,103.0
705,149.36145833333333,149.41458333333333,72.0,48.0
706,149.36145833333333,149.621875,43.0,91.0
707,149.61145833333333,149.93645833333332,55.0,78.0
708,149.36145833333333,150.16458333333333,65.0,101.0
709,149.36145833333333,150.17083333333332,62.0,97.0
710,149.36145833333333,150.171875,70.0,105.0
711,150.36145833333333,150.53541666666666,62.0,99.0
712,149.86145833333333,150.67916666666667,57.0,60.0
713,150.11145833333333,150.81145833333332,58.0,93.0
714,150.61145833333333,150.92916666666667,65.0,92.0
715,150.86145833333333,151.1375,70.0,112.0
716,151.11145833333333,151.30729166666666,72.0,96.0
717,151.36145833333333,151.65833333333333,65.0,97.0
718,151.36145833333333,151.74166666666667,72.0,35.0
719,151.36145833333333,151.82291666666666,48.0,81.0
720,151.61145833333333,151.85,55.0,85.0
721,151.86145833333333,152.1625,60.0,72.0
722,152.11145833333333,152.25520833333334,69.0,72.0
723,152.11145833333333,152.26041666666666,77.0,96.0
724,152.36145833333333,152.58125,69.0,96.0
725,152.36145833333333,152.62916666666666,77.0,101.0
726,152.11145833333333,152.63333333333333,62.0,65.0
727,152.36145833333333,152.89375,64.0,77.0
728,152.86145833333333,152.971875,62.0,88.0
729,152.73645833333333,153.00104166666665,67.0,92.0
730,152.73645833333333,153.028125,76.0,103.0
731,153.11145833333333,153.203125,67.0,54.0
732,153.11145833333333,153.334375,74.0,96.0
733,153.36145833333333,153.5875,72.0,117.0
734,153.36145833333333,153.640625,67.0,106.0
735,153.36145833333333,153.79479166666667,41.0,91.0
736,153.61145833333333,153.840625,48.0,70.0
737,153.86145833333333,154.2,53.0,76.0
738,154.61145833333333,154.771875,65.0,107.0
739,154.36145833333333,154.81354166666665,60.0,81.0
740,154.11145833333333,154.87604166666665,57.0,82.0
741,154.86145833333333,155.11145833333333,67.0,103.0
742,155.11145833333333,155.43645833333332,69.0,77.0
743,155.36145833333333,155.7375,60.0,86.0
744,155.36145833333333,155.75833333333333,67.0,99.0
745,155.86145833333333,155.97604166666667,60.0,65.0
746,155.61145833333333,156.265625,55.0,72.0
747,156.11145833333333,156.48125,60.0,101.0
748,156.11145833333333,156.49479166666666,72.0,97.0
749,156.61145833333333,156.73541666666665,67.0,91.0
750,156.61145833333333,156.77083333333334,60.0,85.0
751,156.36145833333333,156.9,55.0,88.0
752,155.36145833333333,157.00520833333334,52.0,62.0
753,156.86145833333333,157.11875,67.0,94.0
754,157.11145833333333,157.29479166666667,72.0,92.0
755,157.36145833333333,157.49895833333332,72.0,63.0
756,157.36145833333333,157.540625,60.0,82.0
757,157.36145833333333,157.81666666666666,69.0,79.0
758,157.36145833333333,157.88020833333334,65.0,60.0
759,158.11145833333333,158.28125,64.0,78.0
760,158.11145833333333,158.29479166666667,67.0,78.0
761,157.86145833333333,158.41458333333333,62.0,88.0
762,158.36145833333333,158.60520833333334,65.0,88.0
763,158.36145833333333,158.66770833333334,69.0,103.0
764,158.48645833333333,158.69895833333334,62.0,63.0
765,157.61145833333333,158.7125,57.0,60.0
766,158.73645833333333,159.01979166666666,72.0,96.0
767,158.86145833333333,159.02083333333334,57.0,81.0
768,158.73645833333333,159.02291666666667,65.0,96.0
769,157.36145833333333,159.03854166666667,50.0,81.0
770,159.11145833333333,159.23229166666667,65.0,50.0
771,159.11145833333333,159.32395833333334,69.0,72.0
772,159.36145833333333,159.76770833333333,67.0,111.0
773,159.36145833333333,159.78541666666666,72.0,96.0
774,159.36145833333333,159.796875,63.0,68.0
775,159.86145833333333,160.01666666666665,60.0,79.0
776,159.61145833333333,160.040625,55.0,84.0
777,159.36145833333333,160.04791666666665,48.0,62.0
778,160.36145833333333,160.72291666666666,67.0,56.0
779,160.36145833333333,160.73125,60.0,70.0
780,160.36145833333333,160.73958333333334,63.0,62.0
781,160.11145833333333,160.77083333333334,69.0,81.0
782,160.36145833333333,160.83125,41.0,92.0
783,160.61145833333333,160.95104166666667,53.0,72.0
784,160.86145833333333,161.08958333333334,60.0,78.0
785,161.11145833333333,161.346875,69.0,78.0
786,161.36145833333333,161.89270833333333,62.0,68.0
787,161.36145833333333,161.90520833333332,69.0,54.0
788,161.36145833333333,161.93020833333333,65.0,81.0
789,161.86145833333333,162.15104166666666,58.0,74.0
790,162.11145833333333,162.48958333333334,60.0,76.0
791,162.11145833333333,162.51145833333334,67.0,86.0
792,162.36145833333333,162.67916666666667,58.0,39.0
793,161.61145833333333,162.93854166666665,53.0,82.0
794,162.86145833333333,162.9625,58.0,74.0
795,162.61145833333333,162.971875,65.0,99.0
796,161.36145833333333,162.97708333333333,46.0,68.0
797,162.61145833333333,162.98020833333334,60.0,78.0
798,163.36145833333333,163.7125,69.0,88.0
799,163.36145833333333,163.73854166666666,64.0,85.0
800,163.36145833333333,163.74166666666667,60.0,76.0
801,163.36145833333333,163.98541666666665,45.0,77.0
802,163.86145833333333,164.03854166666667,60.0,72.0
803,163.61145833333333,164.215625,57.0,54.0
804,164.11145833333333,164.296875,69.0,84.0
805,164.61145833333333,164.83125,67.0,103.0
806,164.61145833333333,164.89583333333334,60.0,86.0
807,165.11145833333333,165.31666666666666,65.0,91.0
808,165.36145833333333,165.84166666666667,70.0,83.0
809,165.36145833333333,165.846875,62.0,57.0
810,165.36145833333333,165.86458333333334,65.0,66.0
811,165.86145833333333,166.59895833333334,53.0,84.0
812,166.11145833333333,166.69791666666666,57.0,77.0
813,166.73645833333333,166.9,53.0,68.0
814,165.36145833333333,166.90520833333332,43.0,92.0
815,165.61145833333333,166.928125,50.0,72.0
816,166.61145833333333,167.03645833333334,58.0,112.0
817,166.98645833333333,167.15833333333333,65.0,76.0
818,167.23645833333333,167.68333333333334,55.0,65.0
819,167.36145833333333,167.68333333333334,55.0,81.0
820,167.23645833333333,167.71354166666666,60.0,81.0
821,167.36145833333333,167.71354166666666,60.0,97.0
822,167.23645833333333,167.78020833333332,64.0,74.0
823,167.36145833333333,167.78020833333332,64.0,84.0
824,167.23645833333333,167.85416666666666,62.0,70.0
825,167.23645833333333,168.38125,48.0,53.0
826,167.36145833333333,168.38125,48.0,84.0
827,167.23645833333333,168.709375,36.0,63.0
828,168.36145833333333,168.7625,62.0,60.0
829,168.36145833333333,168.77916666666667,72.0,60.0
830,168.73645833333333,168.78125,48.0,60.0
831,168.36145833333333,168.80833333333334,65.0,72.0
832,168.36145833333333,168.8875,55.0,65.0
833,168.36145833333333,168.89791666666667,60.0,85.0
834,168.36145833333333,168.93020833333333,64.0,79.0
835,169.23645833333333,169.55729166666666,65.0,92.0
836,169.36145833333333,169.55729166666666,65.0,72.0
837,169.23645833333333,169.57083333333333,41.0,78.0
838,169.36145833333333,169.57083333333333,41.0,76.0
839,169.23645833333333,169.57395833333334,60.0,85.0
840,169.36145833333333,169.57395833333334,60.0,63.0
841,169.23645833333333,169.57916666666665,53.0,33.0
842,169.23645833333333,169.58020833333333,57.0,54.0
843,169.36145833333333,169.728125,69.0,74.0
844,169.73645833333333,169.76041666666666,65.0,99.0
845,169.73645833333333,169.80625,60.0,65.0
846,169.73645833333333,170.03541666666666,41.0,72.0
847,169.73645833333333,170.05625,53.0,66.0
848,169.73645833333333,170.08333333333334,57.0,78.0
849,170.23645833333333,170.51145833333334,65.0,96.0
850,170.23645833333333,170.52708333333334,60.0,77.0
851,170.23645833333333,170.52916666666667,57.0,69.0
852,170.23645833333333,170.53333333333333,41.0,94.0
853,170.11145833333333,170.55208333333334,53.0,65.0
854,170.23645833333333,170.55208333333334,53.0,81.0
855,170.73645833333333,170.96354166666666,65.0,101.0
856,170.73645833333333,170.965625,41.0,96.0
857,170.73645833333333,170.97291666666666,60.0,97.0
858,170.61145833333333,171.003125,57.0,82.0
859,170.73645833333333,171.003125,57.0,92.0
860,170.73645833333333,171.04791666666665,53.0,74.0
861,170.86145833333333,171.04791666666665,53.0,53.0
862,171.48645833333333,171.82291666666666,54.0,96.0
863,171.48645833333333,172.06770833333334,66.0,76.0
864,171.48645833333333,172.08541666666667,61.0,90.0
865,171.48645833333333,172.090625,58.0,59.0
866,171.11145833333333,172.26145833333334,60.0,82.0
867,171.36145833333333,172.30520833333333,57.0,56.0
868,171.36145833333333,172.32083333333333,65.0,74.0
869,172.23645833333333,172.4125,58.0,63.0
870,171.36145833333333,172.459375,53.0,65.0
871,171.36145833333333,172.51041666666666,41.0,57.0
872,171.48645833333333,172.51145833333334,42.0,92.0
873,172.48645833333333,172.56458333333333,61.0,68.0
874,171.98645833333333,172.57604166666667,54.0,60.0
875,173.86145833333333,174.35520833333334,66.0,53.0
876,173.36145833333333,174.4625,78.0,72.0
877,174.11145833333333,174.51458333333332,68.0,65.0
878,174.11145833333333,174.58020833333333,77.0,85.0
879,173.61145833333333,174.72708333333333,61.0,65.0
880,174.61145833333333,174.88020833333334,68.0,63.0
881,173.36145833333333,174.91354166666667,54.0,56.0
882,174.61145833333333,174.94583333333333,73.0,86.0
883,175.36145833333333,175.82708333333332,68.0,70.0
884,175.36145833333333,175.83229166666666,75.0,91.0
885,175.86145833333333,176.12291666666667,65.0,62.0
886,175.61145833333333,176.165625,61.0,37.0
887,175.36145833333333,176.23958333333334,53.0,60.0
888,176.11145833333333,176.28229166666665,68.0,65.0
889,176.11145833333333,176.67395833333333,73.0,90.0
890,176.86145833333333,177.06979166666667,75.0,65.0
891,177.11145833333333,177.3125,77.0,72.0
892,177.36145833333333,177.71770833333332,78.0,92.0
893,177.36145833333333,177.79583333333332,70.0,63.0
894,178.11145833333333,178.30833333333334,65.0,70.0
895,178.36145833333333,178.46354166666666,66.0,63.0
896,178.61145833333333,178.80104166666666,70.0,68.0
897,177.86145833333333,178.803125,63.0,53.0
898,177.61145833333333,178.9,58.0,54.0
899,177.36145833333333,178.93125,51.0,82.0
900,178.86145833333333,179.059375,73.0,70.0
901,179.11145833333333,179.3125,78.0,78.0
902,179.36145833333333,179.51770833333333,78.0,39.0
903,179.36145833333333,179.62395833333332,77.0,90.0
904,179.36145833333333,179.665625,68.0,72.0
905,179.86145833333333,180.253125,61.0,70.0
906,180.11145833333333,180.296875,63.0,68.0
907,179.61145833333333,180.49479166666666,56.0,68.0
908,180.36145833333333,180.51979166666666,65.0,91.0
909,180.36145833333333,180.525,61.0,88.0
910,180.61145833333333,180.71770833333332,56.0,91.0
911,179.36145833333333,180.74583333333334,49.0,79.0
912,180.61145833333333,180.80208333333334,66.0,99.0
913,180.86145833333333,180.946875,56.0,99.0
914,180.86145833333333,180.96979166666665,49.0,69.0
915,180.86145833333333,181.0,68.0,97.0
916,181.11145833333333,181.2625,73.0,63.0
917,181.36145833333333,181.62708333333333,63.0,79.0
918,181.36145833333333,181.62916666666666,66.0,85.0
919,181.36145833333333,181.653125,71.0,81.0
920,181.36145833333333,181.75208333333333,54.0,94.0
921,181.36145833333333,181.78125,59.0,85.0
922,181.73645833333333,181.78541666666666,66.0,60.0
923,181.36145833333333,181.796875,47.0,78.0
924,181.73645833333333,181.81041666666667,61.0,74.0
925,181.73645833333333,181.82083333333333,70.0,68.0
926,182.11145833333333,182.44791666666666,59.0,50.0
927,182.11145833333333,182.5875,71.0,74.0
928,182.11145833333333,182.625,63.0,86.0
929,182.11145833333333,182.64895833333333,66.0,84.0
930,182.11145833333333,183.00416666666666,54.0,97.0
931,182.61145833333333,183.00416666666666,59.0,85.0
932,182.11145833333333,183.04895833333333,47.0,53.0
933,183.11145833333333,183.23333333333332,68.0,70.0
934,183.36145833333333,183.58541666666667,58.0,56.0
935,183.36145833333333,183.83125,61.0,76.0
936,183.36145833333333,183.83125,70.0,86.0
937,183.36145833333333,183.86458333333334,65.0,88.0
938,184.11145833333333,184.23541666666665,61.0,50.0
939,183.86145833333333,184.24479166666666,58.0,63.0
940,183.36145833333333,184.253125,46.0,91.0
941,184.36145833333333,184.58333333333334,58.0,90.0
942,184.36145833333333,184.65104166666666,46.0,86.0
943,184.36145833333333,184.65833333333333,70.0,77.0
944,184.36145833333333,184.6625,61.0,78.0
945,184.36145833333333,184.66875,65.0,91.0
946,184.73645833333333,184.80416666666667,58.0,82.0
947,184.73645833333333,184.8125,61.0,76.0
948,184.73645833333333,184.82083333333333,68.0,72.0
949,184.73645833333333,184.85104166666667,46.0,54.0
950,185.11145833333333,185.3,71.0,68.0
951,185.11145833333333,185.34270833333332,45.0,76.0
952,185.36145833333333,185.625,66.0,96.0
953,185.36145833333333,185.63333333333333,63.0,79.0
954,185.36145833333333,185.63333333333333,71.0,69.0
955,186.11145833333333,186.33125,59.0,74.0
956,185.86145833333333,186.44479166666667,56.0,76.0
957,185.61145833333333,186.475,51.0,47.0
958,186.36145833333333,186.65104166666666,61.0,101.0
959,186.36145833333333,186.70416666666665,59.0,42.0
960,186.61145833333333,186.79375,63.0,106.0
961,186.61145833333333,186.81041666666667,51.0,91.0
962,185.36145833333333,186.81979166666667,44.0,94.0
963,186.86145833333333,186.915625,59.0,23.0
964,186.86145833333333,187.08854166666666,65.0,94.0
965,187.11145833333333,187.28125,66.0,86.0
966,187.36145833333333,187.5375,49.0,65.0
967,187.36145833333333,187.57604166666667,56.0,84.0
968,187.36145833333333,187.61979166666666,61.0,90.0
969,187.36145833333333,187.65729166666665,37.0,84.0
970,187.36145833333333,187.675,65.0,86.0
971,187.73645833333333,187.815625,61.0,77.0
972,187.73645833333333,187.846875,58.0,57.0
973,187.73645833333333,187.87291666666667,66.0,84.0
974,187.73645833333333,188.065625,39.0,92.0
975,188.11145833333333,188.26041666666666,56.0,97.0
976,188.11145833333333,188.26145833333334,61.0,94.0
977,188.11145833333333,188.38958333333332,68.0,96.0
978,188.11145833333333,188.99479166666666,41.0,96.0
979,188.86145833333333,189.0125,61.0,79.0
980,188.86145833333333,189.02916666666667,66.0,85.0
981,188.61145833333333,189.06666666666666,53.0,92.0
982,189.11145833333333,189.29270833333334,68.0,86.0
983,189.36145833333333,189.65416666666667,58.0,66.0
984,189.36145833333333,189.66979166666667,61.0,85.0
985,189.36145833333333,189.71875,66.0,91.0
986,189.86145833333333,190.02604166666666,61.0,68.0
987,189.61145833333333,190.1875,54.0,63.0
988,190.11145833333333,190.44166666666666,61.0,60.0
989,190.11145833333333,190.54375,68.0,86.0
990,190.36145833333333,190.58645833333333,54.0,63.0
991,190.61145833333333,190.77395833333333,70.0,84.0
992,190.61145833333333,190.79791666666665,61.0,97.0
993,189.36145833333333,190.93541666666667,42.0,88.0
994,190.86145833333333,190.95625,54.0,82.0
995,191.36145833333333,191.63333333333333,41.0,92.0
996,191.36145833333333,191.69375,62.0,70.0
997,191.36145833333333,191.70520833333333,58.0,70.0
998,191.36145833333333,191.73541666666665,65.0,97.0
999,191.86145833333333,192.025,58.0,65.0
1000,192.11145833333333,192.46041666666667,58.0,68.0
1001,192.11145833333333,192.46979166666665,68.0,106.0
1002,191.61145833333333,192.56041666666667,53.0,69.0
1003,192.61145833333333,192.821875,63.0,91.0
1004,192.86145833333333,193.06770833333334,65.0,78.0
1005,193.11145833333333,193.23541666666665,65.0,22.0
1006,193.11145833333333,193.24479166666666,68.0,85.0
1007,193.11145833333333,193.31875,40.0,57.0
1008,193.36145833333333,193.58958333333334,39.0,92.0
1009,193.36145833333333,193.834375,61.0,86.0
1010,193.36145833333333,193.89895833333333,58.0,72.0
1011,193.61145833333333,193.92708333333334,51.0,53.0
1012,193.36145833333333,194.05729166666666,66.0,86.0
1013,194.36145833333333,194.54479166666667,61.0,72.0
1014,194.61145833333333,194.77291666666667,66.0,72.0
1015,194.11145833333333,194.88854166666667,54.0,72.0
1016,193.86145833333333,194.92708333333334,53.0,69.0
1017,194.86145833333333,195.05625,68.0,85.0
1018,195.11145833333333,195.278125,70.0,82.0
1019,195.36145833333333,195.72708333333333,68.0,106.0
1020,195.36145833333333,195.82604166666667,64.0,105.0
1021,195.86145833333333,195.98020833333334,61.0,68.0
1022,195.36145833333333,195.99895833333332,49.0,79.0
1023,195.61145833333333,195.99895833333332,56.0,94.0
1024,196.11145833333333,196.28854166666667,64.0,57.0
1025,196.36145833333333,196.43125,68.0,77.0
1026,196.23645833333333,196.43333333333334,66.0,68.0
1027,196.36145833333333,196.896875,61.0,82.0
1028,196.36145833333333,196.91145833333334,42.0,84.0
1029,196.36145833333333,196.91354166666667,70.0,90.0
1030,196.36145833333333,196.925,64.0,85.0
1031,196.61145833333333,196.96041666666667,49.0,85.0
1032,196.86145833333333,197.00625,54.0,77.0
1033,197.11145833333333,197.25208333333333,61.0,79.0
1034,197.23645833333333,197.31875,73.0,56.0
1035,197.36145833333333,197.82708333333332,73.0,91.0
1036,197.36145833333333,197.87708333333333,63.0,79.0
1037,197.36145833333333,197.88645833333334,66.0,91.0
1038,197.36145833333333,197.90729166666665,71.0,93.0
1039,197.86145833333333,198.19479166666667,59.0,88.0
1040,198.11145833333333,198.49375,63.0,88.0
1041,198.11145833333333,198.49375,73.0,103.0
1042,198.11145833333333,198.5,66.0,74.0
1043,198.36145833333333,198.75833333333333,59.0,63.0
1044,197.61145833333333,198.82291666666666,54.0,84.0
1045,198.61145833333333,198.93125,71.0,102.0
1046,198.61145833333333,198.94479166666667,63.0,66.0
1047,198.86145833333333,198.96458333333334,59.0,86.0
1048,198.86145833333333,198.975,54.0,42.0
1049,197.36145833333333,199.01145833333334,47.0,56.0
1050,199.11145833333333,199.26979166666666,68.0,62.0
1051,199.23645833333333,199.33333333333334,70.0,63.0
1052,199.36145833333333,199.72083333333333,61.0,72.0
1053,199.36145833333333,199.72604166666667,68.0,79.0
1054,199.36145833333333,199.73333333333332,65.0,88.0
1055,199.86145833333333,200.00625,61.0,59.0
1056,199.61145833333333,200.17395833333333,58.0,57.0
1057,200.11145833333333,200.40729166666665,61.0,54.0
1058,200.11145833333333,200.41770833333334,68.0,84.0
1059,199.36145833333333,200.42083333333332,46.0,74.0
1060,200.36145833333333,200.50729166666667,58.0,53.0
1061,200.61145833333333,200.80104166666666,61.0,84.0
1062,200.61145833333333,200.96041666666667,73.0,88.0
1063,200.86145833333333,201.02395833333333,61.0,45.0
1064,200.86145833333333,201.08229166666666,54.0,65.0
1065,200.61145833333333,201.096875,51.0,79.0
1066,201.11145833333333,201.29166666666666,66.0,72.0
1067,201.36145833333333,201.76041666666666,44.0,90.0
1068,201.61145833333333,201.85729166666667,51.0,72.0
1069,201.86145833333333,202.15,56.0,68.0
1070,201.36145833333333,202.31875,66.0,91.0
1071,201.36145833333333,202.39791666666667,71.0,115.0
1072,201.36145833333333,202.42604166666666,63.0,68.0
1073,202.11145833333333,202.48125,58.0,50.0
1074,202.36145833333333,202.65104166666666,59.0,81.0
1075,202.61145833333333,202.775,63.0,74.0
1076,202.86145833333333,203.04479166666667,66.0,65.0
1077,203.11145833333333,203.36354166666666,68.0,66.0
1078,203.36145833333333,203.78854166666667,56.0,82.0
1079,203.36145833333333,203.86979166666666,61.0,77.0
1080,203.36145833333333,203.94791666666666,73.0,59.0
1081,203.36145833333333,204.03229166666665,66.0,72.0
1082,203.36145833333333,204.63125,49.0,57.0
1083,203.36145833333333,204.671875,54.0,79.0
1084,204.11145833333333,204.73333333333332,56.0,77.0
1085,204.36145833333333,204.77916666666667,61.0,47.0
1086,204.61145833333333,204.78125,73.0,91.0
1087,204.86145833333333,205.03333333333333,78.0,68.0
1088,205.11145833333333,205.34583333333333,80.0,65.0
1089,205.36145833333333,205.65729166666665,82.0,66.0
1090,205.36145833333333,205.725,73.0,53.0
1091,205.61145833333333,206.19895833333334,61.0,72.0
1092,205.86145833333333,206.21354166666666,66.0,54.0
1093,206.11145833333333,206.45,70.0,35.0
1094,206.61145833333333,206.73645833333333,71.0,119.0
1095,206.86145833333333,206.95104166666667,61.0,63.0
1096,205.36145833333333,206.96875,54.0,66.0
1097,207.11145833333333,207.23229166666667,68.0,68.0
1098,207.11145833333333,207.48333333333332,70.0,76.0
1099,207.61145833333333,207.83020833333333,61.0,50.0
1100,207.86145833333333,208.03854166666667,66.0,70.0
1101,208.11145833333333,208.33541666666667,68.0,70.0
1102,208.36145833333333,208.78958333333333,70.0,57.0
1103,208.36145833333333,208.89166666666665,61.0,50.0
1104,209.36145833333333,210.73958333333334,54.0,77.0
1105,209.36145833333333,210.75104166666665,66.0,50.0
1106,209.36145833333333,210.86145833333333,71.0,45.0
1107,209.36145833333333,210.90104166666666,59.0,34.0
1108,209.36145833333333,210.93229166666666,63.0,50.0
1109,209.36145833333333,210.98333333333332,47.0,30.0
1110,211.61145833333333,212.11354166666666,66.0,60.0
1111,211.61145833333333,212.13958333333332,61.0,50.0
1112,211.61145833333333,212.16666666666666,68.0,70.0
1113,213.36145833333333,213.64791666666667,73.0,39.0
1114,213.48645833333333,213.73229166666667,78.0,37.0
1115,213.73645833333333,214.10208333333333,80.0,17.0
1116,213.98645833333333,214.35416666666666,85.0,30.0
1117,213.23645833333333,214.71979166666665,61.0,34.0
1118,211.61145833333333,216.95416666666665,49.0,63.0
1119,217.73645833333333,218.32083333333333,61.0,63.0
1120,217.73645833333333,218.34895833333334,58.0,27.0
1121,217.86145833333333,218.38541666666666,66.0,62.0
1122,218.73645833333333,218.88333333333333,56.0,54.0
1123,218.98645833333333,219.12604166666665,61.0,63.0
1124,219.23645833333333,219.42499999999998,63.0,57.0
1125,219.36145833333333,219.49375,65.0,57.0
1126,219.61145833333333,219.74375,68.0,86.0
1127,219.86145833333333,220.06562499999998,65.0,38.0
1128,219.98645833333333,220.13541666666666,68.0,68.0
1129,220.23645833333333,220.34791666666666,70.0,47.0
1130,220.48645833333333,220.61875,73.0,66.0
1131,220.61145833333333,220.84687499999998,70.0,54.0
1132,220.86145833333333,221.09375,75.0,44.0
1133,221.11145833333333,221.23749999999998,77.0,62.0
1134,221.48645833333333,221.62708333333333,78.0,39.0
1135,221.73645833333333,221.91354166666667,80.0,60.0
1136,222.11145833333333,222.27291666666667,82.0,31.0
1137,222.61145833333333,222.79999999999998,85.0,29.0
1138,223.23645833333333,223.43645833333332,90.0,29.0
1139,218.48645833333333,223.65937499999998,54.0,53.0
1140,218.23645833333333,223.665625,49.0,42.0
1141,217.73645833333333,223.67916666666667,42.0,81.0
