,start,end,pitch,velocity
0,1.8211500520833332,2.051918802083333,62.0,39.0
1,1.9365344270833333,2.1673031770833333,64.0,29.0
2,2.051918802083333,2.2826875520833334,66.0,31.0
3,2.1673031770833333,2.3153797916666665,67.0,36.0
4,2.2826875520833334,2.4538410416666667,71.0,32.0
5,2.3980719270833335,2.5980715104166667,74.0,27.0
6,2.513456302083333,2.6403791145833333,76.0,21.0
7,2.6288406770833332,2.77499421875,78.0,29.0
8,2.7442250520833333,2.9384554166666668,86.0,38.0
9,2.8596094270833334,3.0249936979166665,83.0,31.0
10,2.9749938020833335,3.1173011979166665,81.0,33.0
11,3.090378177083333,3.2057625520833333,79.0,25.0
12,3.2057625520833333,3.3211469270833334,81.0,42.0
13,3.3211469270833334,3.4365313020833335,79.0,42.0
14,3.4365313020833335,3.5519156770833336,78.0,42.0
15,3.5519156770833336,3.667300052083333,76.0,42.0
16,3.2057625520833333,3.7499921875,66.0,63.0
17,3.667300052083333,3.91729953125,67.0,68.0
18,3.667300052083333,4.013453177083333,79.0,42.0
19,3.8980688020833334,4.561528958333334,62.0,75.0
20,5.0519125520833335,5.167296927083333,83.0,43.0
21,5.167296927083333,5.282681302083334,81.0,43.0
22,5.282681302083334,5.398065677083333,79.0,43.0
23,5.398065677083333,5.513450052083333,78.0,43.0
24,5.513450052083333,5.6288344270833335,79.0,43.0
25,5.6288344270833335,5.744218802083333,78.0,43.0
26,5.744218802083333,5.859603177083334,74.0,43.0
27,5.859603177083334,5.974987552083333,72.0,43.0
28,5.974987552083333,6.090371927083333,71.0,43.0
29,6.090371927083333,6.2057563020833335,67.0,43.0
30,6.2057563020833335,6.321140677083333,66.0,43.0
31,6.321140677083333,6.436525052083334,64.0,43.0
32,6.436525052083334,7.821137552083333,62.0,43.0
33,8.282675052083333,8.398059427083334,69.0,47.0
34,8.398059427083334,8.513443802083334,67.0,47.0
35,8.513443802083334,8.628828177083333,69.0,47.0
36,8.628828177083333,8.744212552083333,71.0,47.0
37,8.744212552083333,8.859596927083333,72.0,47.0
38,8.859596927083333,8.974981302083334,76.0,47.0
39,8.974981302083334,9.090365677083334,79.0,47.0
40,9.090365677083334,9.205750052083333,78.0,47.0
41,9.205750052083333,9.321134427083333,76.0,47.0
42,9.321134427083333,9.436518802083333,71.0,47.0
43,9.436518802083333,9.551903177083334,67.0,47.0
44,9.551903177083334,9.667287552083334,66.0,47.0
45,9.667287552083334,9.782671927083333,74.0,47.0
46,9.782671927083333,9.898056302083333,71.0,47.0
47,9.898056302083333,10.013440677083333,67.0,47.0
48,10.013440677083333,10.128825052083334,66.0,47.0
49,10.128825052083334,10.244209427083334,71.0,47.0
50,10.244209427083334,10.359593802083333,59.0,47.0
51,10.359593802083333,10.474978177083333,64.0,47.0
52,10.474978177083333,10.590362552083333,71.0,47.0
53,10.590362552083333,10.705746927083334,76.0,47.0
54,10.705746927083334,10.821131302083334,83.0,47.0
55,10.821131302083334,10.936515677083333,90.0,47.0
56,10.936515677083333,11.051900052083333,88.0,47.0
57,11.051900052083333,11.167284427083333,83.0,47.0
58,11.167284427083333,11.282668802083334,78.0,47.0
59,11.282668802083334,11.398053177083334,76.0,47.0
60,11.398053177083334,11.513437552083333,71.0,47.0
61,11.513437552083333,11.628821927083333,66.0,47.0
62,11.628821927083333,11.744206302083333,64.0,47.0
63,11.744206302083333,11.859590677083334,59.0,47.0
64,11.859590677083334,11.974975052083334,52.0,47.0
65,11.974975052083334,12.898050052083333,64.0,47.0
66,13.244203177083334,13.359587552083333,79.0,47.0
67,13.359587552083333,13.474971927083333,78.0,47.0
68,13.474971927083333,13.590356302083334,74.0,47.0
69,13.590356302083334,13.705740677083334,71.0,47.0
70,13.705740677083334,13.821125052083334,74.0,47.0
71,13.821125052083334,13.936509427083333,71.0,47.0
72,13.936509427083333,14.051893802083333,69.0,47.0
73,14.051893802083333,14.167278177083334,67.0,47.0
74,14.167278177083334,14.282662552083334,66.0,47.0
75,14.282662552083334,14.744200052083334,71.0,47.0
76,14.744200052083334,15.174968385416667,79.0,73.0
77,15.130737708333333,15.465352395833333,78.0,75.0
78,15.43266015625,15.715351875,74.0,76.0
79,15.75573640625,16.56342703125,72.0,73.0
80,16.590350052083334,16.705734427083332,60.0,46.0
81,16.705734427083332,16.821118802083333,62.0,46.0
82,16.821118802083333,16.936503177083335,64.0,46.0
83,16.936503177083335,17.051887552083333,66.0,46.0
84,17.051887552083333,17.167271927083334,69.0,46.0
85,17.167271927083334,17.282656302083332,71.0,46.0
86,17.282656302083332,17.398040677083333,74.0,46.0
87,17.398040677083333,17.513425052083335,78.0,46.0
88,17.513425052083335,17.628809427083333,76.0,46.0
89,17.628809427083333,17.744193802083334,74.0,46.0
90,17.744193802083334,17.859578177083332,78.0,46.0
91,17.859578177083332,17.974962552083333,79.0,46.0
92,17.974962552083333,18.090346927083335,81.0,46.0
93,18.090346927083335,18.205731302083333,83.0,46.0
94,18.205731302083333,18.321115677083334,84.0,46.0
95,18.321115677083334,18.436500052083332,86.0,46.0
96,18.436500052083332,18.551884427083333,91.0,46.0
97,18.551884427083333,18.667268802083335,90.0,46.0
98,18.667268802083335,18.782653177083333,88.0,46.0
99,18.782653177083333,19.013421927083332,86.0,46.0
100,18.898037552083334,19.163421614583335,69.0,79.0
101,19.128806302083333,19.42101764583333,71.0,78.0
102,19.359575052083333,19.8386420625,72.0,77.0
103,19.819484979166667,20.3156534375,64.0,89.0
104,20.279254979166666,21.708373395833334,66.0,79.0
105,21.658564979166666,21.919101312499997,71.0,77.0
106,21.888449979166666,22.1949633125,69.0,76.0
107,22.118334979166665,22.578104979166667,67.0,80.0
108,22.411438354166666,22.693047479166665,66.0,76.0
109,22.6834689375,23.0053079375,62.0,76.0
110,22.9823194375,23.472740770833333,66.0,77.0
111,23.4363423125,24.8156523125,64.0,89.0
112,24.876954979166666,26.7524334375,66.0,81.0
113,26.716034979166665,32.1489838125,64.0,81.0
114,63.72751997916667,64.36928227083334,67.0,59.0
115,63.95740497916667,65.30797935416666,59.0,62.0
116,64.18728997916668,65.32330502083335,64.0,73.0
117,67.63556497916667,68.4018483125,66.0,61.0
118,68.55510497916667,69.00721214583334,66.0,50.0
119,67.86544997916667,69.07426193750001,62.0,64.0
120,68.32521997916666,69.08575618750001,57.0,62.0
121,69.01487497916668,70.61640714583334,64.0,75.0
122,69.47464497916667,70.7466753125,60.0,59.0
123,69.70452997916667,70.84054502083333,67.0,64.0
124,70.85395497916667,71.2006981875,62.0,54.0
125,71.08383997916667,72.5282840625,57.0,64.0
126,71.31372497916666,72.53211547916666,62.0,64.0
127,71.54360997916666,72.55510397916666,66.0,64.0
128,73.15280497916666,73.47272827083333,62.0,59.0
129,73.84245997916668,74.51487360416667,62.0,59.0
130,73.38268997916667,74.56659772916667,67.0,75.0
131,74.07234497916667,74.62406897916668,59.0,57.0
132,74.76199997916666,75.11257460416667,64.0,75.0
133,74.99188497916667,75.71219131250001,59.0,72.0
134,75.22176997916668,75.92100352083334,66.0,65.0
135,75.68153997916667,76.30797660416667,63.0,64.0
136,75.91142497916667,76.32521797916667,59.0,65.0
137,76.37119497916666,77.41142460416667,76.0,67.0
138,76.37119497916666,77.52828281250001,72.0,61.0
139,77.29073497916667,78.30702423958333,79.0,68.0
140,78.21279366666667,79.7627904375,74.0,66.0
141,78.21279366666667,79.80125189583333,78.0,62.0
142,80.05894366666666,81.07432616666667,74.0,77.0
143,80.98201866666666,82.00509345833333,71.0,69.0
144,81.90509366666666,83.40509054166667,76.0,75.0
145,82.82816866666667,83.58585939583332,71.0,67.0
146,83.75124366666667,85.50124002083334,76.0,71.0
147,85.59739366666666,86.4896995,78.0,71.0
148,86.52046866666666,87.25892866666666,74.0,75.0
149,87.44354366666667,87.91661960416667,74.0,75.0
150,87.90508116666666,89.28777059375,71.0,64.0
151,88.36661866666667,89.29546288541667,74.0,76.0
152,89.28969366666666,90.31661460416666,76.0,71.0
153,90.21276866666666,90.99545934375,71.0,69.0
154,91.13584366666666,92.88468469791665,72.0,70.0
155,93.89809440625,94.40575711458332,74.0,76.0
156,94.35786440624999,94.89426273958333,71.0,67.0
157,94.81763440625,96.81380248958332,76.0,75.0
158,98.49579440625,99.81954886458333,79.0,66.0
159,98.49579440625,99.96322698958332,76.0,70.0
160,99.87510440624999,100.37127286458332,78.0,63.0
161,100.33487440625,101.56667486458332,79.0,70.0
162,100.33487440625,101.66437598958332,76.0,69.0
163,101.71418440625,102.25824557291666,79.0,69.0
164,102.17395440624999,103.56475865624999,78.0,65.0
165,103.55326440625,104.06667423958332,76.0,69.0
166,104.01303440625,105.03602265625,78.0,66.0
167,104.93257440625,105.46897273958332,74.0,73.0
168,105.39234440624999,105.94981553125,71.0,71.0
169,105.85211440625,107.18161598958332,79.0,71.0
170,107.23142440625,107.70843578124999,76.0,75.0
171,107.69119440624999,108.64904857291666,79.0,75.0
172,108.61073440624999,109.54943148958333,78.0,72.0
173,109.53027440624999,111.37701723958332,74.0,86.0
174,111.36935440625,111.85402861458333,79.0,77.0
175,111.82912440624999,112.30422007291666,78.0,79.0
176,112.28889440625,113.17586736458333,76.0,78.0
177,113.20843440624999,114.83487078124999,69.0,65.0
178,113.20843440624999,114.88276348958333,72.0,68.0
179,115.04751440625,115.78506211458333,74.0,70.0
180,115.04751440625,115.95939157291666,78.0,75.0
181,115.96705440624999,116.84828023958333,74.0,79.0
182,116.88659440625,117.84444857291666,79.0,76.0
183,117.80613440625,118.27739865625,81.0,82.0
184,118.26590440625,118.77165140624999,79.0,76.0
185,118.72567440625,119.53985044791666,83.0,82.0
186,119.64521440624999,119.88467794791666,83.0,77.0
187,119.87509940625,120.16820278124999,81.0,76.0
188,120.10498440625,120.52452453125,79.0,66.0
189,120.56475440624999,121.88467744791666,79.0,71.0
190,121.94406440624999,122.40383440625,78.0,79.0
191,122.40383440625,123.57050078124999,79.0,71.0
192,122.40383440625,123.64138198958332,76.0,75.0
193,123.78314440624999,124.29463853125,79.0,77.0
194,124.24291440625,126.08774153125,78.0,77.0
195,126.08199440625,127.81571044791667,74.0,77.0
196,127.92107440625,129.3367828645833,79.0,74.0
197,129.30038440625,129.79272144791668,78.0,72.0
198,129.76015440625,130.70459861458332,79.0,75.0
199,130.67969440625,131.16628432291665,81.0,79.0
200,131.13946440625,131.42873636458333,79.0,75.0
201,131.59923440625,132.45555603125,79.0,75.0
202,131.59923440625,132.58582419791668,83.0,75.0
203,132.51877440625,132.97854440625,81.0,75.0
204,132.97854440625,133.51685844791666,79.0,75.0
205,133.43831440625,134.83678148958333,83.0,77.0
206,134.81762440625,135.31953998958332,79.0,72.0
207,135.27739440624998,137.01111044791668,76.0,74.0
208,137.11647440625,138.83294907291668,78.0,71.0
209,138.95555440625,141.65861886458333,71.0,64.0
210,138.95555440625,141.67586023958333,76.0,70.0
211,142.62605157291665,143.45172186458333,76.0,79.0
212,143.53792873958332,144.04367573958334,76.0,81.0
213,144.03984432291668,144.28505498958333,74.0,80.0
214,144.25823507291665,145.34252598958332,76.0,86.0
215,145.36743019791666,145.59923090625,64.0,89.0
216,145.56666386458335,145.82528448958334,66.0,78.0
217,145.82528448958334,146.30229586458333,67.0,78.0
218,146.30804298958333,147.05325353125,74.0,101.0
219,147.17202744791666,147.71608861458333,74.0,86.0
220,147.67394303125,148.12413448958333,72.0,76.0
221,148.09348315625,149.01302315625,71.0,77.0
222,149.28313803125,149.55133719791667,71.0,82.0
223,149.51493873958333,149.72183523958333,69.0,82.0
224,149.73332948958333,150.03984282291665,67.0,80.0
225,150.01302290625,151.19309923958332,76.0,92.0
226,151.32528311458333,151.53026390625,76.0,84.0
227,151.49194973958333,151.60880794791666,74.0,76.0
228,151.60689223958332,151.81378873958334,71.0,77.0
229,151.8310301145833,152.19118328125,76.0,84.0
230,152.15095340624998,152.47279240625,78.0,79.0
231,152.45746673958334,152.76972719791667,79.0,80.0
232,152.74865440625,153.06091486458334,78.0,89.0
233,153.06283057291665,153.44788794791666,76.0,89.0
234,153.39424811458332,153.65286873958334,71.0,79.0
235,153.66244728125,156.42106728125,76.0,86.0
236,156.41532015625,156.78888328124998,64.0,86.0
237,156.76206336458333,157.06474528125,66.0,81.0
238,157.06666098958334,157.39041569791667,67.0,78.0
239,157.34827011458333,157.83869144791666,69.0,86.0
240,157.79654586458332,158.29654573958334,71.0,82.0
241,158.23907448958334,158.69501307291665,72.0,79.0
242,158.67777169791668,159.21033861458335,64.0,81.0
243,159.14903594791667,160.52834594791665,66.0,76.0
244,160.56282869791664,160.85976348958332,66.0,76.0
245,160.79654511458332,161.06091286458332,67.0,73.0
246,161.00727303125,161.49386294791668,69.0,77.0
247,161.45554878125,161.96512719791667,67.0,86.0
248,161.93830728125,162.19501219791667,66.0,81.0
249,162.19118078125,162.31570182291665,67.0,69.0
250,162.2793033645833,162.39424586458333,66.0,71.0
251,162.38849873958333,162.91148711458334,62.0,75.0
252,162.84252161458335,163.34635290625,66.0,86.0
253,163.32528011458334,164.24482011458332,64.0,92.0
254,164.51110357291668,164.63562461458332,66.0,77.0
255,164.61646753125,164.78313415625001,67.0,71.0
256,164.75631423958333,165.16708592708332,69.0,80.0
257,165.14208597916667,165.55939280208332,71.0,84.0
258,165.56900816666666,166.08631478125,72.0,75.0
259,166.0343918125,166.53246769791664,76.0,77.0
260,166.50169853124999,168.34784853124998,78.0,76.0
261,168.35938696875,169.25361587499998,69.0,68.0
262,169.28630811458333,169.78823014583332,64.0,70.0
263,169.74592254166666,170.28822910416665,66.0,64.0
264,168.30361785416665,172.0290979895833,76.0,79.0
265,170.21707540625,172.05400219791665,68.0,71.0
266,174.15170282291666,174.7934651145833,67.0,59.0
267,174.38158782291666,175.73216219791664,59.0,62.0
268,174.61147282291665,175.74748786458332,64.0,73.0
269,178.05974782291665,178.82603115625,66.0,61.0
270,178.97928782291666,179.4313949895833,66.0,50.0
271,178.28963282291664,179.49844478125,62.0,64.0
272,178.74940282291664,179.50993903124998,57.0,62.0
273,179.43905782291665,181.0405899895833,64.0,75.0
274,179.89882782291664,181.17085815624998,60.0,59.0
275,180.12871282291664,181.2647278645833,67.0,64.0
276,181.27813782291665,181.62488103124997,62.0,54.0
277,181.50802282291664,182.95246690624998,57.0,64.0
278,181.73790782291664,182.95629832291664,62.0,64.0
279,181.96779282291664,182.97928682291666,66.0,64.0
280,183.57698782291666,183.8969111145833,62.0,59.0
281,184.26664282291665,184.93905644791664,62.0,59.0
282,183.80687282291666,184.99078057291666,67.0,75.0
283,184.49652782291665,185.04825182291665,59.0,57.0
284,185.18618282291666,185.53675744791664,64.0,75.0
285,185.41606782291666,186.13637415624999,59.0,72.0
286,185.64595282291666,186.34518636458333,66.0,65.0
287,186.10572282291665,186.73215944791664,63.0,64.0
288,186.33560782291664,186.74940082291664,59.0,65.0
289,186.79537782291666,187.83560744791666,76.0,67.0
290,186.79537782291666,187.95246565624998,72.0,61.0
291,187.71491782291665,188.72832753125,79.0,68.0
292,188.63445782291666,190.17851873958332,74.0,66.0
293,188.63445782291666,190.21683290624998,78.0,62.0
294,190.47353782291665,191.48503182291665,74.0,77.0
295,191.39307782291667,192.41223465624998,71.0,69.0
296,192.31261782291665,193.80687032291667,76.0,75.0
297,193.23215782291666,193.98694690624998,71.0,67.0
298,194.15169782291665,195.89499240624997,76.0,71.0
299,195.99077782291664,196.87966648958331,78.0,71.0
300,196.91031782291665,197.64594982291666,74.0,75.0
301,197.82985782291667,198.30112207291666,74.0,75.0
302,198.28962782291666,199.66702211458332,71.0,64.0
303,198.74939782291665,199.67468494791666,74.0,76.0
304,199.66893782291666,200.69192607291666,76.0,71.0
305,200.58847782291664,201.36817111458333,71.0,69.0
306,201.50801782291666,203.25322811458332,72.0,70.0
307,204.26663782291666,204.77430053125,74.0,76.0
308,204.72640782291666,205.26280615624998,71.0,67.0
309,205.18617782291665,207.18234590625,76.0,75.0
310,208.86433782291664,210.19112457291664,79.0,66.0
311,208.86433782291664,210.33591207291664,76.0,70.0
312,210.24710907291666,210.74710857291666,78.0,63.0
313,210.71042907291664,211.95174057291666,79.0,70.0
314,210.71042907291664,212.05019607291666,76.0,69.0
315,212.10038907291664,212.64865107291664,79.0,69.0
316,212.56370907291665,213.96525207291666,78.0,65.0
317,213.95366907291665,214.47104307291664,76.0,69.0
318,214.41698907291664,215.44787607291664,78.0,66.0
319,215.34362907291666,215.88416907291665,74.0,73.0
320,215.80694907291664,216.36668332291663,71.0,71.0
321,216.26898219791664,217.59848378124997,79.0,71.0
322,217.64829219791665,218.12530357291664,76.0,75.0
323,218.10806219791664,219.0659163645833,79.0,75.0
324,219.02760219791665,219.96629928124997,78.0,72.0
325,219.94714219791663,221.79388503124997,74.0,86.0
326,221.78622219791663,222.27089640624996,79.0,77.0
327,222.24599219791665,222.7210878645833,78.0,79.0
328,222.70576219791664,223.59273515624997,76.0,78.0
329,223.62530219791662,225.25173857291665,69.0,65.0
330,223.62530219791662,225.29963128124996,72.0,68.0
331,225.46438219791665,226.20192990624997,74.0,70.0
332,225.46438219791665,226.3762593645833,78.0,75.0
333,226.38392219791663,227.26514803124996,74.0,79.0
334,227.30346219791664,228.2613163645833,79.0,76.0
335,228.22300219791663,228.69426644791665,81.0,82.0
336,228.68277219791665,229.18851919791663,79.0,76.0
337,229.14254219791664,229.9567182395833,83.0,82.0
338,230.06208219791665,230.3015457395833,83.0,77.0
339,230.29196719791665,230.58507057291664,81.0,76.0
340,230.52185219791664,230.94139232291664,79.0,66.0
341,230.98162219791664,232.3015452395833,79.0,71.0
342,232.36093219791664,232.82070219791663,78.0,79.0
343,232.82070219791663,233.98736857291664,79.0,71.0
344,232.82070219791663,234.05824978124997,76.0,75.0
345,234.20001219791664,234.71150632291665,79.0,77.0
346,234.65978219791663,236.50460932291665,78.0,77.0
347,236.49886219791665,238.2325782395833,74.0,77.0
348,238.33794219791665,239.75365065625,79.0,74.0
349,239.71725219791665,240.2095892395833,78.0,72.0
350,240.17702219791664,241.12146640624997,79.0,75.0
351,241.09656219791663,241.5831521145833,81.0,79.0
352,241.55633219791665,241.84560415624998,79.0,75.0
353,242.01610219791664,242.87242382291663,79.0,75.0
354,242.01610219791664,243.0026919895833,83.0,75.0
355,242.93564219791665,243.39541219791664,81.0,75.0
356,243.39541219791664,243.9337262395833,79.0,75.0
357,243.85518219791663,245.25364928124998,83.0,77.0
358,245.23449219791664,245.73640778124997,79.0,72.0
359,245.69426219791663,247.4279782395833,76.0,74.0
360,247.53334219791662,249.2498168645833,78.0,71.0
361,249.37242219791665,252.07548665624998,71.0,64.0
362,249.37242219791665,252.09272803124998,76.0,70.0
363,260.4069021979166,260.75364540625,71.0,79.0
364,260.69617415625,260.9873618229166,76.0,78.0
365,260.9452162395833,261.1865954895833,78.0,76.0
366,261.20192115624997,261.4854459895833,79.0,71.0
367,261.4682046145833,261.65785973958333,83.0,78.0
368,261.75172944791666,262.4739514895833,83.0,81.0
369,262.4413844479166,263.2804646979166,81.0,76.0
370,263.24023482291665,264.54674790624995,79.0,76.0
371,264.50651803125,264.96628803125,78.0,76.0
372,265.00460219791665,269.87050136458333,76.0,77.0
