,start,end,pitch,velocity
0,32.233274979166666,33.0167996875,64.0,82.0
1,33.15281497916666,33.599175020833336,64.0,73.0
2,33.61258497916667,33.86545847916666,62.0,70.0
3,33.842469979166665,35.12216314583333,64.0,75.0
4,35.451664979166665,35.7064541875,67.0,69.0
5,35.68154997916667,35.8903621875,69.0,70.0
6,35.91143497916667,36.049365979166666,71.0,71.0
7,36.14131997916667,36.26775672916666,71.0,75.0
8,36.37120497916666,36.50722027083333,71.0,72.0
9,36.601089979166666,36.7351895625,71.0,76.0
10,36.83097497916667,37.21603235416667,71.0,76.0
11,37.29074497916667,37.48423152083333,69.0,76.0
12,37.52062997916667,39.19112764583333,71.0,76.0
13,39.35970997916667,39.58959497916666,71.0,75.0
14,39.58959497916666,40.73901997916667,76.0,76.0
15,40.50913497916667,40.73901997916667,76.0,81.0
16,40.968904979166666,41.1777171875,76.0,77.0
17,41.42867497916667,41.81373235416667,76.0,82.0
18,41.888444979166664,42.82905777083333,74.0,78.0
19,42.80798497916667,43.27158639583334,69.0,67.0
20,43.26775497916667,45.01488097916666,71.0,76.0
21,46.71602997916666,46.857792395833336,71.0,73.0
22,46.945914979166666,47.122160145833334,71.0,76.0
23,47.17579997916667,47.317562395833335,69.0,68.0
24,47.405684979166665,47.54744739583333,69.0,75.0
25,47.63556997916667,47.807983729166665,67.0,67.0
26,47.86545497916667,48.30032077083334,69.0,77.0
27,48.32522497916666,48.7179451875,67.0,77.0
28,48.78499497916667,49.24476497916667,69.0,76.0
29,49.24476497916667,49.44399864583333,67.0,68.0
30,49.47464997916667,50.04936247916667,69.0,76.0
31,50.16430497916667,50.33097160416666,67.0,74.0
32,50.39418997916667,50.5512780625,69.0,75.0
33,50.624074979166664,50.947829687500004,71.0,71.0
34,51.08384497916667,51.38844260416667,71.0,75.0
35,51.54361497916667,51.89993672916667,71.0,79.0
36,52.00338497916667,52.484227770833336,74.0,76.0
37,52.46315497916667,53.876947729166666,71.0,76.0
38,54.76200497916667,54.940165854166665,69.0,73.0
39,54.99188997916667,55.13939952083334,71.0,73.0
40,55.22177497916667,55.541698270833336,71.0,76.0
41,55.68154497916667,56.0110468125,71.0,76.0
42,56.141314979166665,56.73710027083334,69.0,76.0
43,56.83096997916667,57.44016522916667,69.0,75.0
44,57.52062497916667,57.9880578125,66.0,69.0
45,57.98039497916667,61.122156645833336,64.0,76.0
46,61.65855497916667,62.11832497916667,64.0,82.0
47,62.11832497916667,62.442079687500005,64.0,82.0
48,62.57809497916667,63.02445502083334,64.0,73.0
49,63.03786497916667,63.29073847916667,62.0,70.0
50,63.267749979166666,64.54744314583334,64.0,75.0
51,64.87694497916667,65.1317341875,67.0,69.0
52,65.10682997916666,65.3156421875,69.0,70.0
53,65.33671497916667,65.47464597916667,71.0,71.0
54,65.56659997916667,65.69303672916666,71.0,75.0
55,65.79648497916668,65.93250027083334,71.0,72.0
56,66.02636997916667,66.1604695625,71.0,76.0
57,66.25625497916667,66.64131235416667,71.0,76.0
58,66.71602497916666,66.90951152083333,69.0,76.0
59,66.94590997916667,68.61640764583333,71.0,76.0
60,68.78498997916667,69.01487497916668,71.0,75.0
61,69.01487497916668,70.16429997916667,76.0,76.0
62,69.93441497916666,70.16429997916667,76.0,81.0
63,70.39418497916667,70.6029971875,76.0,77.0
64,70.85395497916667,71.23901235416668,76.0,82.0
65,71.31372497916666,72.25433777083333,74.0,78.0
66,72.23326497916668,72.69686639583334,69.0,67.0
67,72.69303497916667,74.44016097916668,71.0,76.0
68,76.14130997916666,76.36544785416666,71.0,80.0
69,76.37119497916666,76.75433664583333,76.0,80.0
70,76.83096497916668,77.17579247916666,74.0,82.0
71,77.29073497916667,77.62433335416667,76.0,77.0
72,77.75125616666666,78.08587085416666,74.0,81.0
73,78.21279366666667,78.58010059374999,76.0,77.0
74,78.67433116666666,78.828177,74.0,80.0
75,78.90509991666666,79.89740554166666,76.0,82.0
76,80.05894366666666,80.466635125,74.0,82.0
77,80.52048116666666,80.92048033333333,71.0,79.0
78,80.98201866666666,81.33778715625,74.0,84.0
79,81.44355616666667,81.66855569791666,76.0,77.0
80,81.67432491666666,83.30316767708332,71.0,76.0
81,83.52047491666666,83.62816699999999,71.0,76.0
82,83.75124366666667,84.10316601041666,76.0,77.0
83,84.21278116666666,84.57047272916667,74.0,86.0
84,84.67431866666666,85.105087,76.0,77.0
85,85.13585616666666,85.26277897916667,74.0,80.0
86,85.36662491666667,85.79547017708333,76.0,77.0
87,85.82816241666666,86.69931444791666,78.0,77.0
88,86.52046866666666,86.90892939583333,76.0,76.0
89,86.98200616666666,87.32431314583333,74.0,77.0
90,87.44354366666667,87.85700434374999,74.0,79.0
91,87.90508116666666,88.29931111458333,71.0,77.0
92,88.36661866666667,88.60892585416666,74.0,78.0
93,88.59738741666666,89.29738595833334,76.0,78.0
94,89.28969366666666,90.44353741666666,71.0,74.0
95,90.67430616666667,90.78969054166666,71.0,76.0
96,90.90507491666666,91.06853611458332,71.0,75.0
97,91.13584366666666,91.38392007291667,71.0,76.0
98,91.36661241666667,91.52045824999999,69.0,70.0
99,91.59738116666666,91.78968845833333,69.0,73.0
100,91.82814991666666,91.99161111458334,67.0,72.0
101,92.05891866666667,92.45173461458333,69.0,77.0
102,92.51878440624999,92.70652382291667,67.0,78.0
103,92.74866940624999,93.33487615624999,69.0,75.0
104,93.43832440624999,93.77357336458333,62.0,76.0
105,93.89809440625,94.24866903124999,67.0,75.0
106,94.35786440624999,94.76207886458333,69.0,76.0
107,94.81763440625,95.21993315625,67.0,75.0
108,95.27740440624999,97.57625440624999,64.0,78.0
109,98.26590940624999,98.49004728124999,71.0,80.0
110,98.49579440625,98.87893607291666,76.0,80.0
111,98.95556440624999,99.30039190625,74.0,82.0
112,99.41533440625,99.74866765624999,76.0,77.0
113,99.87510440624999,100.20843765625,74.0,81.0
114,100.33487440625,100.70077469791666,76.0,77.0
115,100.79464440625,100.94790107291666,74.0,80.0
116,101.02452940625,101.94406940625,76.0,82.0
117,101.94406940625,102.17395440624999,76.0,76.0
118,102.17395440624999,102.58008457291666,74.0,82.0
119,102.63372440625,103.03219173958333,71.0,79.0
120,103.09349440624999,103.44790044791665,74.0,84.0
121,103.55326440625,103.77740228124999,71.0,77.0
122,103.78314940624999,105.40575436458333,74.0,76.0
123,105.62222940625,105.72950907291666,71.0,76.0
124,105.85211440625,106.20268903124999,76.0,77.0
125,106.31188440624999,106.66820615625,74.0,86.0
126,106.77165440625,107.20077307291666,76.0,77.0
127,107.23142440625,107.35786115625,74.0,80.0
128,107.46130940625,107.88851236458333,76.0,77.0
129,107.92107940624999,108.78889528124999,78.0,77.0
130,108.61073440624999,108.99770748958332,76.0,76.0
131,109.07050440625,109.41150048958332,74.0,77.0
132,109.53027440624999,109.94215169791666,74.0,79.0
133,109.99004440625,110.38276461458332,71.0,77.0
134,110.44981440625,110.69119365625,74.0,78.0
135,110.67969940625,111.37701723958332,76.0,78.0
136,111.36935440625,112.51877940624999,71.0,74.0
137,112.97854940625,113.22184436458332,64.0,77.0
138,113.20843440624999,114.36743794791666,69.0,79.0
139,114.81762940624999,114.95939182291666,69.0,70.0
140,115.04751440625,115.45556028125,69.0,75.0
141,115.50728440625,115.86552186458333,67.0,74.0
142,115.96705440624999,116.29847194791665,67.0,77.0
143,116.19693940625,116.79847182291667,74.0,86.0
144,116.88659440625,118.77739853124999,71.0,75.0
145,120.33486940625,120.55900728124999,71.0,80.0
146,120.56475440624999,120.94789607291666,76.0,80.0
147,121.02452440625,121.36935190624999,74.0,82.0
148,121.48429440625,121.81762765625,76.0,77.0
149,121.94406440624999,122.27739765625,74.0,81.0
150,122.40383440625,122.76973469791666,76.0,77.0
151,122.86360440624999,123.01686107291667,74.0,80.0
152,123.09348940625,124.01302940625,76.0,82.0
153,124.01302940625,124.24291440625,76.0,76.0
154,124.24291440625,124.64904457291667,74.0,82.0
155,124.70268440625,125.10115173958333,71.0,79.0
156,125.16245440624999,125.51686044791666,74.0,84.0
157,125.62222440625,125.84636228125,71.0,77.0
158,125.85210940625,127.47471436458332,74.0,76.0
159,127.69118940625,127.79846907291666,71.0,76.0
160,127.92107440625,128.27164903124998,76.0,77.0
161,128.38084440625,128.73716615625,74.0,86.0
162,128.84061440624998,129.26973307291667,76.0,77.0
163,129.30038440625,129.42682115624999,74.0,80.0
164,129.53026940625,129.95747236458334,76.0,77.0
165,129.99003940625,130.85785528125,78.0,77.0
166,130.67969440625,131.06666748958332,76.0,76.0
167,131.13946440625,131.48046048958332,74.0,77.0
168,131.59923440625,132.01111169791665,74.0,79.0
169,132.05900440624998,132.45172461458333,71.0,77.0
170,132.51877440625,132.76015365625,74.0,78.0
171,132.74865940625,133.44597723958333,76.0,78.0
172,133.43831440625,134.58773940625,71.0,74.0
173,134.81762440625,134.93256690625,71.0,76.0
174,135.04750940625,135.21034461458333,71.0,75.0
175,135.27739440624998,135.52452078125,71.0,76.0
176,135.50727940625,135.66053607291667,69.0,70.0
177,135.73716440625,135.92873523958332,69.0,73.0
178,135.96704940625,136.12988461458332,67.0,72.0
179,136.19693440625,136.58965461458334,69.0,77.0
180,136.65670440625,136.84444382291667,67.0,78.0
181,136.88658940624998,137.47279615625,69.0,75.0
182,137.57624440625,137.91149336458332,62.0,76.0
183,138.03601440625,138.38658903125,67.0,75.0
184,138.49578440624998,138.89999886458332,69.0,76.0
185,138.95555440625,139.35785315625,67.0,75.0
186,139.41532440625,141.71417440624998,64.0,78.0
187,172.08273782291664,172.54250782291666,64.0,82.0
188,172.54250782291666,172.86626253125,64.0,82.0
189,173.00227782291665,173.4486378645833,64.0,73.0
190,173.46204782291665,173.71492132291664,62.0,70.0
191,173.69193282291664,174.97162598958332,64.0,75.0
192,175.30112782291664,175.55591703124998,67.0,69.0
193,175.53101282291664,175.73982503124998,69.0,70.0
194,175.76089782291666,175.89882882291664,71.0,71.0
195,175.99078282291666,176.11721957291664,71.0,75.0
196,176.22066782291665,176.35668311458332,71.0,72.0
197,176.45055282291665,176.58465240624997,71.0,76.0
198,176.68043782291664,177.06549519791665,71.0,76.0
199,177.14020782291664,177.33369436458332,69.0,76.0
200,177.37009282291666,179.0405904895833,71.0,76.0
201,179.20917282291666,179.43905782291665,71.0,75.0
202,179.43905782291665,180.58848282291666,76.0,76.0
203,180.35859782291664,180.58848282291666,76.0,81.0
204,180.81836782291666,181.02718003125,76.0,77.0
205,181.27813782291665,181.66319519791665,76.0,82.0
206,181.73790782291664,182.6785206145833,74.0,78.0
207,182.65744782291665,183.12104923958333,69.0,67.0
208,183.11721782291664,184.86434382291665,71.0,76.0
209,186.56549282291664,186.78963069791666,71.0,80.0
210,186.79537782291666,187.17851948958332,76.0,80.0
211,187.25514782291665,187.59997532291666,74.0,82.0
212,187.71491782291665,188.04825107291666,76.0,77.0
213,188.17468782291664,188.50802107291665,74.0,81.0
214,188.63445782291666,189.00035811458332,76.0,77.0
215,189.09422782291665,189.24748448958331,74.0,80.0
216,189.32411282291665,190.31261832291665,76.0,82.0
217,190.47353782291665,190.8796679895833,74.0,82.0
218,190.93330782291665,191.33177515625,71.0,79.0
219,191.39307782291667,191.74748386458333,74.0,84.0
220,191.85284782291666,192.07698569791665,76.0,77.0
221,192.08273282291665,193.70533778125,71.0,76.0
222,193.92181282291665,194.02909248958332,71.0,76.0
223,194.15169782291665,194.50227244791665,76.0,77.0
224,194.61146782291667,194.96778957291664,74.0,86.0
225,195.07123782291666,195.5003564895833,76.0,77.0
226,195.53100782291665,195.65744457291666,74.0,80.0
227,195.76089282291665,196.18809578124998,76.0,77.0
228,196.22066282291667,197.08847869791666,78.0,77.0
229,196.91031782291665,197.29729090625,76.0,76.0
230,197.37008782291664,197.71108390625,74.0,77.0
231,197.82985782291667,198.24173511458332,74.0,79.0
232,198.28962782291666,198.68234803125,71.0,77.0
233,198.74939782291665,198.99077707291664,74.0,78.0
234,198.97928282291664,199.67660065624997,76.0,78.0
235,199.66893782291666,200.81836282291664,71.0,74.0
236,201.04824782291666,201.16319032291665,71.0,76.0
237,201.27813282291666,201.44096803124998,71.0,75.0
238,201.50801782291666,201.75514419791665,71.0,76.0
239,201.73790282291665,201.89115948958332,69.0,70.0
240,201.96778782291665,202.15935865625,69.0,73.0
241,202.19767282291664,202.36050803125,67.0,72.0
242,202.42755782291664,202.82027803124998,69.0,77.0
243,202.88732782291666,203.07506723958332,67.0,78.0
244,203.11721282291666,203.70341957291666,69.0,75.0
245,203.80686782291664,204.14211678125,62.0,76.0
246,204.26663782291666,204.61721244791664,67.0,75.0
247,204.72640782291666,205.13062228125,69.0,76.0
248,205.18617782291665,205.58847657291665,67.0,75.0
249,205.64594782291664,207.94479782291666,64.0,78.0
250,208.63445282291664,208.85859069791667,71.0,80.0
251,208.86433782291664,209.24747948958333,76.0,80.0
252,209.32410782291666,209.66893532291664,74.0,82.0
253,209.78387782291665,210.11969607291664,76.0,77.0
254,210.24710907291666,210.58301607291665,74.0,81.0
255,210.71042907291664,211.07915457291665,76.0,77.0
256,211.17374907291665,211.32818907291664,74.0,80.0
257,211.40540907291665,212.33204907291665,76.0,82.0
258,212.33204907291665,212.56370907291665,76.0,76.0
259,212.56370907291665,212.97297507291665,74.0,82.0
260,213.02702907291666,213.42857307291666,71.0,79.0
261,213.49034907291664,213.84749157291665,74.0,84.0
262,213.95366907291665,214.17953757291664,71.0,77.0
263,214.18532907291666,215.82046257291665,74.0,76.0
264,216.03860907291664,216.14637686458332,71.0,76.0
265,216.26898219791664,216.61955682291665,76.0,77.0
266,216.72875219791663,217.08507394791664,74.0,86.0
267,217.18852219791663,217.6176408645833,76.0,77.0
268,217.64829219791665,217.77472894791663,74.0,80.0
269,217.87817719791664,218.30538015624998,76.0,77.0
270,218.33794719791663,219.20576307291662,78.0,77.0
271,219.02760219791665,219.41457528124997,76.0,76.0
272,219.48737219791664,219.82836828124996,74.0,77.0
273,219.94714219791663,220.35901948958332,74.0,79.0
274,220.40691219791663,220.79963240624997,71.0,77.0
275,220.86668219791665,221.10806144791664,74.0,78.0
276,221.09656719791664,221.79388503124997,76.0,78.0
277,221.78622219791663,222.93564719791664,71.0,74.0
278,223.39541719791663,223.63871215624997,64.0,77.0
279,223.62530219791662,224.78430573958332,69.0,79.0
280,225.23449719791665,225.37625961458332,69.0,70.0
281,225.46438219791665,225.87242807291665,69.0,75.0
282,225.92415219791664,226.28238965624996,67.0,74.0
283,226.38392219791663,226.7153397395833,67.0,77.0
284,226.61380719791663,227.2153396145833,74.0,86.0
285,227.30346219791664,229.19426632291663,71.0,75.0
286,230.75173719791664,230.97587507291664,71.0,80.0
287,230.98162219791664,231.3647638645833,76.0,80.0
288,231.44139219791663,231.78621969791664,74.0,82.0
289,231.90116219791665,232.23449544791663,76.0,77.0
290,232.36093219791664,232.69426544791665,74.0,81.0
291,232.82070219791663,233.1866024895833,76.0,77.0
292,233.28047219791665,233.43372886458332,74.0,80.0
293,233.51035719791665,234.42989719791663,76.0,82.0
294,234.42989719791663,234.65978219791663,76.0,76.0
295,234.65978219791663,235.0659123645833,74.0,82.0
296,235.11955219791665,235.51801953124996,71.0,79.0
297,235.57932219791664,235.9337282395833,74.0,84.0
298,236.03909219791663,236.26323007291663,71.0,77.0
299,236.26897719791663,237.89158215624997,74.0,76.0
300,238.10805719791665,238.21533686458332,71.0,76.0
301,238.33794219791665,238.68851682291665,76.0,77.0
302,238.79771219791664,239.15403394791664,74.0,86.0
303,239.25748219791663,239.6866008645833,76.0,77.0
304,239.71725219791665,239.84368894791663,74.0,80.0
305,239.94713719791665,240.37434015624996,76.0,77.0
306,240.40690719791664,241.27472307291663,78.0,77.0
307,241.09656219791663,241.48353528124997,76.0,76.0
308,241.55633219791665,241.89732828124997,74.0,77.0
309,242.01610219791664,242.42797948958332,74.0,79.0
310,242.47587219791663,242.86859240624997,71.0,77.0
311,242.93564219791665,243.17702144791664,74.0,78.0
312,243.16552719791665,243.86284503124998,76.0,78.0
313,243.85518219791663,245.00460719791664,71.0,74.0
314,245.23449219791664,245.34943469791665,71.0,76.0
315,245.46437719791663,245.62721240624998,71.0,75.0
316,245.69426219791663,245.94138857291665,71.0,76.0
317,245.92414719791662,246.07740386458332,69.0,70.0
318,246.15403219791665,246.34560303124996,69.0,73.0
319,246.38391719791665,246.54675240624996,67.0,72.0
320,246.61380219791664,247.00652240624999,69.0,77.0
321,247.07357219791663,247.2613116145833,67.0,78.0
322,247.30345719791663,247.88966394791663,69.0,75.0
323,247.99311219791664,248.32836115624997,62.0,76.0
324,248.45288219791664,248.80345682291664,67.0,75.0
325,248.91265219791666,249.31686665624997,69.0,76.0
326,249.37242219791665,249.77472094791665,67.0,75.0
327,249.83219219791664,252.13104219791666,64.0,78.0
