,start,end,pitch,velocity
0,0.7499984375000001,1.1403822395833334,52.0,53.0
1,0.7980752604166667,1.176920625,55.0,67.0
2,0.8615366666666666,1.18268984375,59.0,62.0
3,0.9019211979166667,1.3115357291666667,64.0,73.0
4,2.2711491145833334,2.35961046875,64.0,55.0
5,2.7423019791666667,2.853840208333333,64.0,75.0
6,2.7480711979166665,2.853840208333333,67.0,69.0
7,1.8346115625,2.8634555729166666,47.0,61.0
8,2.74037890625,2.884609375,71.0,74.0
9,0.8634597395833333,2.921147760416667,40.0,77.0
10,3.892299583333333,4.0230685416666665,67.0,71.0
11,3.8903765104166665,4.038453125,64.0,73.0
12,4.576913541666666,5.54421921875,55.0,74.0
13,4.57499046875,5.569219166666667,60.0,69.0
14,5.473065520833333,5.724988072916667,64.0,76.0
15,4.58652890625,5.986525989583334,48.0,74.0
16,6.44421734375,6.523063333333333,64.0,45.0
17,6.207679375,7.363446197916667,55.0,50.0
18,6.286525364583333,7.43652296875,60.0,61.0
19,6.43267890625,7.467292135416667,67.0,46.0
20,8.048060156250001,8.71728953125,69.0,67.0
21,8.246136666666667,8.753827916666667,57.0,67.0
22,8.126906145833333,8.7576740625,64.0,70.0
23,8.165367604166667,8.77498171875,60.0,66.0
24,8.709597239583333,9.290365260416667,52.0,57.0
25,9.211519270833334,9.4269034375,57.0,75.0
26,8.24421359375,9.457672604166667,45.0,77.0
27,9.203826979166667,9.46728796875,60.0,80.0
28,9.205750052083333,9.503826354166666,64.0,77.0
29,10.109594322916667,10.507670416666667,64.0,76.0
30,10.111517395833333,10.601900989583333,59.0,73.0
31,11.032669322916666,11.29036109375,54.0,66.0
32,11.02497703125,11.369207083333334,63.0,76.0
33,10.128825052083334,11.413437760416667,47.0,76.0
34,11.028823177083334,11.424976197916667,66.0,69.0
35,11.03074625,11.4345915625,59.0,75.0
36,11.9653596875,12.117282447916667,64.0,76.0
37,11.969205833333334,12.171128489583333,59.0,75.0
38,13.4884334375,13.763432864583333,54.0,67.0
39,13.738432916666667,13.9384325,55.0,73.0
40,13.274972343750001,14.023047708333333,47.0,60.0
41,13.948047864583334,14.1115090625,59.0,84.0
42,11.963436614583333,14.269201041666667,40.0,79.0
43,14.18650890625,14.47496984375,52.0,76.0
44,14.426893020833333,14.586508072916667,47.0,70.0
45,14.469200625000001,14.655738697916666,40.0,54.0
46,14.680738645833333,14.72881546875,52.0,64.0
47,14.65958484375,14.78650765625,55.0,77.0
48,14.6653540625,14.798046093750001,59.0,75.0
49,14.663430989583333,14.869199791666666,64.0,76.0
50,15.659582760416667,15.746121041666667,36.0,75.0
51,15.540352239583333,15.75573640625,55.0,63.0
52,15.592275208333334,15.990351302083333,60.0,66.0
53,15.661505833333333,16.115351041666667,64.0,76.0
54,16.576888541666666,16.821118802083333,67.0,74.0
55,16.57496546875,16.90958015625,60.0,76.0
56,17.357656145833335,17.469194375,60.0,58.0
57,16.121120260416667,17.47496359375,48.0,64.0
58,17.415348333333334,17.563424947916666,64.0,70.0
59,17.461502083333333,17.605732552083335,67.0,64.0
60,17.505732760416667,17.876885833333333,72.0,68.0
61,18.390346302083334,18.530730625,64.0,79.0
62,18.384577083333333,18.534576770833333,67.0,76.0
63,18.38650015625,18.557653645833334,60.0,77.0
64,18.869191458333333,19.023037291666668,69.0,71.0
65,18.87111453125,19.080729479166667,57.0,63.0
66,19.317267447916667,19.428680479166665,42.0,73.0
67,19.319190520833335,19.48998314583333,57.0,71.0
68,19.323036666666667,19.520634479166667,54.0,67.0
69,19.32111359375,19.553201520833333,60.0,75.0
70,20.2409408125,20.535959895833333,51.0,69.0
71,20.233277979166665,20.758182062499998,54.0,72.0
72,20.229446562499998,21.325231729166667,39.0,76.0
73,21.181553604166666,21.332894562499998,51.0,69.0
74,21.175806479166667,21.357798770833334,54.0,70.0
75,21.17389077083333,21.4248485625,59.0,76.0
76,22.106840729166667,22.5110551875,55.0,68.0
77,22.1087564375,22.526380854166664,40.0,76.0
78,22.1030093125,22.532127979166667,59.0,74.0
79,22.10492502083333,22.547453645833333,52.0,72.0
80,22.993813687499998,23.083851979166667,36.0,74.0
81,22.9995608125,23.19113164583333,48.0,72.0
82,23.003392229166664,23.223698687499997,55.0,75.0
83,24.8386408125,25.415269020833332,71.0,76.0
84,24.779253854166665,25.457414604166665,63.0,61.0
85,24.819483729166667,25.478487395833334,66.0,57.0
86,24.716035479166667,25.526380104166666,59.0,60.0
87,25.2581809375,25.832893437499997,54.0,56.0
88,25.754349395833334,25.92101602083333,63.0,75.0
89,25.756265104166665,25.936341687499997,59.0,76.0
90,24.8213994375,25.966993020833332,47.0,77.0
91,25.7581808125,25.968908729166664,66.0,66.0
92,26.706456437499998,26.961245645833333,59.0,74.0
93,26.708372145833334,27.2179505625,64.0,75.0
94,27.137490812499998,27.421015645833332,59.0,65.0
95,27.6202493125,27.8156515625,59.0,76.0
96,27.618333604166665,28.141321979166666,64.0,77.0
97,28.081935020833335,28.265843020833334,59.0,76.0
98,26.710287854166666,28.375038395833332,40.0,77.0
99,28.545536437499997,30.170057104166666,59.0,61.0
100,28.560862104166667,30.1949613125,64.0,66.0
101,28.5512835625,30.260095395833332,40.0,70.0
102,30.399942104166666,30.97273889583333,59.0,52.0
103,30.40568922916667,31.066608604166667,64.0,60.0
104,30.8673749375,31.495727270833335,47.0,46.0
105,30.3846164375,31.7409379375,40.0,62.0
106,31.31756639583333,32.19879222916667,59.0,61.0
107,31.32331352083333,32.19879222916667,64.0,67.0
108,32.233274979166666,32.5800181875,59.0,68.0
109,32.233274979166666,32.6834664375,64.0,71.0
110,32.693044979166665,33.254347520833335,47.0,60.0
111,33.15281497916666,33.26201035416666,59.0,68.0
112,33.15281497916666,33.336722979166666,64.0,74.0
113,33.15281497916666,33.3443858125,67.0,65.0
114,32.233274979166666,33.348217229166664,40.0,76.0
115,33.61258497916667,33.69687614583333,59.0,60.0
116,34.07235497916667,34.26775722916667,59.0,56.0
117,34.07235497916667,34.3271441875,64.0,69.0
118,34.07235497916667,34.34630127083334,67.0,63.0
119,34.991894979166666,35.137488812499996,64.0,76.0
120,34.991894979166666,35.1834658125,67.0,74.0
121,34.991894979166666,35.20262289583333,59.0,71.0
122,34.07235497916667,35.38269947916667,52.0,63.0
123,35.451664979166665,35.67388714583333,62.0,64.0
124,35.91143497916667,36.1145000625,57.0,65.0
125,35.91143497916667,36.4708218125,62.0,66.0
126,36.37120497916666,36.53020877083333,57.0,61.0
127,36.83097497916667,37.0167986875,57.0,75.0
128,36.83097497916667,37.10492127083333,62.0,76.0
129,36.83097497916667,37.1317411875,66.0,76.0
130,35.91143497916667,37.52637710416667,50.0,75.0
131,37.75051497916667,37.89227739583333,57.0,56.0
132,37.75051497916667,38.24285202083333,62.0,63.0
133,38.210284979166666,38.3213960625,57.0,58.0
134,37.75051497916667,38.85779439583334,50.0,68.0
135,38.670054979166665,39.04361810416667,66.0,75.0
136,38.670054979166665,39.05319664583334,62.0,76.0
137,38.670054979166665,39.09342652083333,57.0,74.0
138,39.12982497916667,39.22561039583333,50.0,76.0
139,39.58959497916666,39.80032289583333,55.0,69.0
140,40.04936497916667,40.175801729166665,55.0,64.0
141,39.58959497916666,40.1777174375,60.0,69.0
142,39.58959497916666,40.700705812500004,48.0,75.0
143,40.50913497916667,40.9708206875,60.0,76.0
144,40.50913497916667,40.984230645833335,64.0,76.0
145,41.42867497916667,41.97848327083334,62.0,71.0
146,41.42867497916667,42.191126895833335,38.0,62.0
147,42.34821497916667,42.56085860416667,45.0,66.0
148,41.888444979166664,42.69878960416666,57.0,73.0
149,42.34821497916667,42.81373210416667,66.0,77.0
150,42.80798497916667,42.886529020833336,62.0,76.0
151,43.26775497916667,43.7869119375,59.0,71.0
152,43.26775497916667,43.806069020833334,55.0,69.0
153,44.187294979166666,44.37120297916667,55.0,71.0
154,44.187294979166666,44.407601437500006,59.0,77.0
155,43.26775497916667,44.4305899375,43.0,75.0
156,43.72752497916667,44.44016847916667,50.0,57.0
157,44.187294979166666,44.51488110416667,62.0,77.0
158,44.64706497916667,44.806068770833335,57.0,71.0
159,45.10683497916666,45.6087505625,59.0,75.0
160,45.56660497916667,46.101087604166665,54.0,59.0
161,46.02637497916667,46.23327147916667,71.0,75.0
162,46.02637497916667,46.26775422916667,59.0,77.0
163,46.02637497916667,46.290742729166666,63.0,73.0
164,46.02637497916667,46.296489854166666,66.0,69.0
165,46.25625997916667,46.503386354166665,54.0,63.0
166,46.48614497916667,46.564689020833335,59.0,63.0
167,45.10683497916666,46.57618327083333,47.0,75.0
168,46.48614497916667,46.78307977083334,63.0,68.0
169,46.71602997916666,46.83097247916667,67.0,64.0
170,46.48614497916667,46.99189197916667,69.0,75.0
171,46.945914979166666,47.54361597916667,60.0,71.0
172,46.945914979166666,47.622160020833334,57.0,63.0
173,46.945914979166666,48.00721739583334,45.0,75.0
174,47.405684979166665,48.0110488125,52.0,64.0
175,47.86545497916667,48.070435770833335,57.0,71.0
176,47.86545497916667,48.26009089583333,64.0,76.0
177,47.86545497916667,48.292657937499996,60.0,78.0
178,48.32522497916666,48.88652752083333,57.0,75.0
179,48.78499497916667,49.36545460416667,66.0,64.0
180,48.78499497916667,49.4076001875,62.0,69.0
181,49.24476497916667,49.47464997916667,57.0,59.0
182,49.70453497916667,49.90951577083334,57.0,76.0
183,48.78499497916667,49.96698702083333,50.0,73.0
184,49.70453497916667,50.00146977083334,62.0,73.0
185,49.70453497916667,50.026373979166664,66.0,67.0
186,50.624074979166664,50.94016685416667,55.0,73.0
187,50.624074979166664,51.10491777083334,59.0,71.0
188,51.08384497916667,51.173883270833336,55.0,60.0
189,51.08384497916667,51.62982185416667,50.0,68.0
190,50.624074979166664,51.721775854166665,43.0,75.0
191,51.54361497916667,51.75051147916667,55.0,80.0
192,51.54361497916667,51.783078520833335,59.0,81.0
193,52.00338497916667,52.13556885416667,43.0,75.0
194,52.46315497916667,52.64706297916667,55.0,69.0
195,52.922924979166666,53.15280997916667,55.0,58.0
196,52.46315497916667,53.15664139583333,60.0,70.0
197,53.382694979166665,53.55319302083333,55.0,76.0
198,52.46315497916667,53.9823116875,48.0,76.0
199,53.382694979166665,54.01296302083333,64.0,77.0
200,53.84246497916667,54.0167944375,55.0,75.0
201,53.382694979166665,54.03020439583334,60.0,77.0
202,54.30223497916667,54.76200497916667,60.0,69.0
203,54.30223497916667,54.79648772916667,57.0,67.0
204,54.76200497916667,55.300319020833335,52.0,56.0
205,55.22177497916667,55.470817062500004,57.0,76.0
206,55.22177497916667,55.5915066875,64.0,76.0
207,55.22177497916667,55.6087480625,60.0,80.0
208,54.30223497916667,55.7007020625,45.0,76.0
209,55.45165997916667,55.7409319375,52.0,67.0
210,55.68154497916667,55.8328859375,57.0,76.0
211,56.141314979166665,56.614494937500005,59.0,75.0
212,56.141314979166665,56.65280910416667,63.0,70.0
213,56.60108497916667,57.171966062500005,54.0,56.0
214,57.06085497916667,57.2639200625,59.0,75.0
215,56.141314979166665,57.3041499375,47.0,75.0
216,57.06085497916667,57.56085485416667,63.0,80.0
217,57.06085497916667,57.574264812500004,66.0,74.0
218,57.52062497916667,58.1374830625,59.0,82.0
219,57.98039497916667,58.518709020833334,64.0,76.0
220,58.899934979166666,59.13556710416667,59.0,70.0
221,58.899934979166666,59.20261689583334,64.0,77.0
222,58.44016497916667,59.34821072916667,47.0,50.0
223,58.899934979166666,59.409513395833336,67.0,70.0
224,59.35970497916667,59.61832560416667,59.0,70.0
225,57.98039497916667,59.63365127083333,40.0,76.0
226,59.81947497916667,60.286907812500004,59.0,60.0
227,59.81947497916667,60.30606489583334,64.0,66.0
228,60.509129979166666,60.627903895833335,59.0,76.0
229,60.73901497916667,60.87694597916667,59.0,80.0
230,60.73901497916667,60.8788616875,64.0,82.0
231,60.73901497916667,61.009129854166666,67.0,77.0
232,60.96889997916667,61.14131372916667,66.0,79.0
233,60.27924497916667,61.514876854166666,47.0,38.0
234,61.19878497916667,61.5512753125,62.0,76.0
235,61.42866997916667,61.5800109375,59.0,75.0
236,59.81947497916667,61.61832510416667,40.0,69.0
237,62.34820997916667,62.58384210416667,52.0,65.0
238,62.11832497916667,62.700700312500004,59.0,69.0
239,61.88843997916667,63.319474104166666,47.0,63.0
240,61.65855497916667,63.371198229166666,40.0,78.0
241,62.57809497916667,63.80606402083333,64.0,79.0
242,63.267749979166666,63.81181114583334,52.0,73.0
243,63.03786497916667,64.00721339583333,59.0,69.0
244,63.95740497916667,64.3156424375,52.0,70.0
245,64.18728997916668,64.47464622916667,59.0,70.0
246,63.72751997916667,64.77349672916667,47.0,63.0
247,63.49763497916667,64.81947372916667,40.0,76.0
248,64.64705997916667,64.9363319375,52.0,75.0
249,64.87694497916667,65.21602535416667,59.0,69.0
250,65.10682997916666,65.28690656250001,52.0,75.0
251,64.41717497916667,65.37502914583334,64.0,82.0
252,65.79648497916668,66.05702131250001,62.0,68.0
253,66.02636997916667,66.34246185416667,57.0,64.0
254,65.56659997916667,66.52062272916666,45.0,66.0
255,65.33671497916667,66.56468402083334,38.0,79.0
256,66.48613997916667,66.74859202083334,57.0,73.0
257,66.25625497916667,66.74859202083334,66.0,80.0
258,66.71602497916666,67.0282854375,62.0,69.0
259,66.94590997916667,67.09533522916666,57.0,71.0
260,67.17579497916667,67.40376427083334,57.0,68.0
261,67.17579497916667,67.56085235416667,62.0,71.0
262,67.63556497916667,68.0455265625,57.0,65.0
263,67.86544997916667,68.06659935416667,62.0,75.0
264,67.40567997916668,68.3213885625,45.0,58.0
265,67.17579497916667,68.38652264583334,38.0,80.0
266,68.09533497916667,68.5225379375,66.0,81.0
267,68.32521997916666,68.55510497916667,62.0,78.0
268,68.78498997916667,68.84629264583333,62.0,62.0
269,68.55510497916667,68.86544972916667,57.0,75.0
270,69.01487497916668,69.28882127083334,60.0,75.0
271,69.24475997916667,69.5742618125,55.0,73.0
272,69.47464497916667,69.77732689583334,60.0,69.0
273,69.70452997916667,69.9133421875,55.0,72.0
274,69.01487497916668,70.15663714583334,48.0,73.0
275,70.16429997916667,70.3903535625,55.0,71.0
276,69.93441497916666,70.4018478125,64.0,82.0
277,70.39418497916667,70.6489741875,60.0,67.0
278,70.62406997916668,70.70644543750001,55.0,62.0
279,70.85395497916667,71.1317326875,62.0,73.0
280,71.08383997916667,71.34629202083335,57.0,70.0
281,71.31372497916666,71.5972498125,62.0,70.0
282,71.77349497916667,71.92100452083334,57.0,72.0
283,71.77349497916667,72.0627669375,62.0,72.0
284,70.85395497916667,72.06659835416667,50.0,75.0
285,72.00337997916667,72.23326497916668,57.0,70.0
286,71.77349497916667,72.36353314583334,66.0,71.0
287,72.23326497916668,72.47272852083333,62.0,67.0
288,72.46314997916667,72.60491239583334,57.0,49.0
289,72.69303497916667,72.9248356875,55.0,63.0
290,72.69303497916667,73.1719620625,59.0,65.0
291,73.15280497916666,73.45165547916667,55.0,73.0
292,72.92291997916666,73.48039110416667,50.0,65.0
293,73.38268997916667,73.8156400625,59.0,73.0
294,73.84245997916668,74.1432261875,55.0,79.0
295,72.69303497916667,74.34820697916666,43.0,75.0
296,73.61257497916668,74.37119547916667,50.0,73.0
297,74.07234497916667,74.38268972916667,59.0,76.0
298,74.30222997916667,74.48613797916667,55.0,75.0
299,74.76199997916666,74.99188497916667,59.0,64.0
300,74.99188497916667,75.31180827083334,63.0,65.0
301,74.53211497916666,75.34245960416666,47.0,79.0
302,75.22176997916668,75.52636760416667,59.0,84.0
303,75.45165497916668,75.76199972916666,54.0,80.0
304,75.68153997916667,75.8673636875,59.0,80.0
305,75.68153997916667,75.98422189583334,63.0,77.0
306,75.91142497916667,76.03786172916668,51.0,60.0
307,75.68153997916667,76.12406860416667,66.0,72.0
308,76.14130997916666,76.29839806250001,59.0,75.0
309,76.37119497916666,76.68728685416667,60.0,71.0
310,76.60107997916667,76.86544772916668,55.0,75.0
311,76.83096497916668,77.09341702083333,60.0,70.0
312,76.37119497916666,77.42291885416667,48.0,80.0
313,77.29073497916667,77.56664116666666,55.0,77.0
314,77.29073497916667,77.6627948125,60.0,81.0
315,77.52061997916667,77.66664095833333,48.0,74.0
316,77.29073497916667,77.835871375,64.0,80.0
317,77.75125616666666,78.03587095833333,55.0,76.0
318,77.98202491666666,78.15702455208333,60.0,79.0
319,78.21279366666667,78.3781779375,57.0,68.0
320,78.21279366666667,78.46471621875,62.0,76.0
321,78.44356241666667,78.67625423958333,57.0,67.0
322,78.67433116666666,78.86279231249999,62.0,71.0
323,78.90509991666666,79.01086892708332,57.0,46.0
324,78.21279366666667,79.19933007291667,50.0,75.0
325,79.13586866666667,79.27240684374999,57.0,74.0
326,79.13586866666667,79.3704835625,62.0,78.0
327,79.36663741666666,79.51856017708333,57.0,68.0
328,79.13586866666667,79.59163694791667,66.0,76.0
329,79.59740616666666,79.8089441875,62.0,67.0
330,79.82817491666667,79.95509772916667,57.0,59.0
331,80.05894366666666,80.33202002083333,55.0,72.0
332,80.05894366666666,80.58009642708333,62.0,71.0
333,80.75124991666667,80.98394173958333,59.0,80.0
334,80.28971241666666,81.02432627083333,50.0,70.0
335,80.52048116666666,81.0550954375,55.0,75.0
336,80.05894366666666,81.17817210416666,43.0,75.0
337,80.98201866666666,81.48970991666667,62.0,75.0
338,81.21278741666666,81.55124825,55.0,81.0
339,81.44355616666667,81.5858635625,50.0,78.0
340,81.67432491666666,81.96855507291666,55.0,75.0
341,81.90509366666666,82.24740064583332,59.0,68.0
342,82.36663116666666,82.6127845,59.0,73.0
343,82.59739991666666,82.79355335416666,55.0,77.0
344,82.82816866666667,83.12816804166667,64.0,84.0
345,82.13586241666667,83.18586022916666,47.0,75.0
346,81.90509366666666,83.28970616666666,40.0,76.0
347,83.05893741666667,83.34355220833334,59.0,77.0
348,83.28970616666666,83.57816710416667,55.0,76.0
349,83.52047491666666,83.7204745,59.0,73.0
350,83.75124366666667,83.87432033333333,55.0,73.0
351,83.75124366666667,84.03778153124999,60.0,72.0
352,83.98201241666666,84.21855038541666,55.0,70.0
353,83.75124366666667,84.35701163541667,36.0,74.0
354,84.21278116666666,84.43778069791666,60.0,68.0
355,84.44354991666667,84.54354970833333,55.0,71.0
356,84.67431866666666,84.97239496875,64.0,78.0
357,84.67431866666666,85.04354866666667,55.0,77.0
358,85.13585616666666,85.22624059374999,48.0,80.0
359,85.13585616666666,85.43008632291667,60.0,74.0
360,85.36662491666667,85.51854767708333,55.0,74.0
361,85.59739366666666,85.80700861458332,62.0,77.0
362,85.82816241666666,86.01854663541667,57.0,76.0
363,86.05893116666667,86.24354616666666,62.0,65.0
364,86.28969991666666,86.37816127083333,57.0,67.0
365,85.59739366666666,86.61469923958333,50.0,81.0
366,86.52046866666666,86.651237625,57.0,77.0
367,86.52046866666666,86.743545125,62.0,79.0
368,86.52046866666666,86.8243141875,66.0,78.0
369,86.75123741666667,86.83200647916667,50.0,77.0
370,86.98200616666666,87.12815970833333,57.0,77.0
371,87.44354366666667,87.67431241666667,55.0,71.0
372,87.44354366666667,87.92623496875,62.0,73.0
373,87.90508116666666,88.18777288541666,55.0,78.0
374,88.13584991666666,88.25700351041667,59.0,75.0
375,87.67431241666667,88.41854163541666,50.0,72.0
376,88.36661866666667,88.56277210416667,55.0,77.0
377,88.36661866666667,88.60892585416666,59.0,81.0
378,87.44354366666667,88.65123345833334,43.0,75.0
379,88.36661866666667,88.73392559375,62.0,76.0
380,88.59738741666666,88.73969481249999,50.0,73.0
381,88.82815616666666,89.14738627083332,55.0,77.0
382,89.05892491666667,89.22815533333333,59.0,75.0
383,89.28969366666666,89.8243079375,64.0,76.0
384,89.75123116666666,90.05699976041666,55.0,79.0
385,89.98199991666667,90.10315351041666,59.0,74.0
386,89.52046241666666,90.28392236458333,47.0,60.0
387,90.21276866666666,90.45507585416667,55.0,74.0
388,89.28969366666666,90.52238340625,40.0,77.0
389,90.21276866666666,90.52622955208332,64.0,78.0
390,90.44353741666666,90.57622944791666,47.0,75.0
391,90.67430616666667,90.96276710416666,55.0,79.0
392,90.90507491666666,91.06276689583333,59.0,76.0
393,91.13584366666666,91.405073875,57.0,69.0
394,91.13584366666666,91.86468830208332,64.0,75.0
395,91.59738116666666,92.06276481249999,57.0,77.0
396,91.36661241666667,92.26399519791666,52.0,70.0
397,92.28889940625,92.60307557291667,52.0,71.0
398,91.82814991666666,92.63181119791666,60.0,82.0
399,91.13584366666666,92.63564261458333,45.0,77.0
400,92.05891866666667,92.76974219791666,64.0,75.0
401,92.51878440624999,92.79656211458332,57.0,71.0
402,92.74866940624999,93.00729003125,60.0,75.0
403,92.97855440625,93.35786465624999,62.0,71.0
404,93.43832440624999,93.75824769791666,57.0,77.0
405,93.66820940624999,93.79464615625,62.0,75.0
406,93.20843940625,93.98238557291666,45.0,68.0
407,92.97855440625,94.05518248958333,38.0,77.0
408,93.89809440625,94.35403298958333,66.0,84.0
409,94.12797940624999,94.41725136458332,57.0,76.0
410,94.35786440624999,94.65863061458333,62.0,69.0
411,94.58774940625,94.67778769791666,57.0,67.0
412,94.81763440625,95.05901365624999,59.0,71.0
413,94.81763440625,95.30422432291665,64.0,76.0
414,95.27740440624999,95.54943498958333,59.0,75.0
415,95.50728940625,95.59732769791665,64.0,64.0
416,95.04751940624999,95.81188703125,47.0,64.0
417,95.73717440624999,95.91150386458332,59.0,76.0
418,95.73717440624999,95.96322798958333,67.0,76.0
419,96.19694440625,96.28315128124999,59.0,75.0
420,95.96705940624999,96.46514357291666,47.0,67.0
421,94.81763440625,96.46705928124999,40.0,76.0
422,96.42682940625,96.81763390625,59.0,82.0
423,96.42682940625,97.03219323958332,64.0,80.0
424,97.11648440625,97.18928132291666,59.0,71.0
425,96.88659940624999,97.43640769791666,47.0,69.0
426,97.34636940624999,97.63947278124999,64.0,89.0
427,97.34636940624999,97.64138848958332,59.0,81.0
428,97.57625440624999,97.89617769791666,47.0,81.0
429,97.80613940625,98.00537307291665,59.0,80.0
430,96.65671440624999,98.12223128125,40.0,78.0
431,97.80613940625,98.34253773958332,64.0,96.0
432,98.26590940624999,98.43066032291667,59.0,84.0
433,97.80613940625,98.43066032291667,67.0,81.0
434,98.03602440625,98.44981740624999,47.0,78.0
435,98.49579440625,98.61839973958332,59.0,78.0
436,98.49579440625,98.72951082291667,40.0,81.0
437,98.49579440625,98.74483648958332,64.0,79.0
438,98.72567940625,98.86361040624999,59.0,74.0
439,98.95556440624999,99.08200115624999,64.0,73.0
440,99.18544940624999,99.27548769791666,59.0,77.0
441,99.41533440625,99.50920411458333,59.0,77.0
442,99.41533440625,99.59157957291666,64.0,84.0
443,99.41533440625,99.60882094791666,52.0,76.0
444,99.41533440625,99.67203932291666,67.0,76.0
445,99.64521940624999,99.75249907291666,59.0,75.0
446,99.87510440624999,99.99579403125,64.0,77.0
447,100.10498940625,100.24483611458332,59.0,80.0
448,100.33487440625,100.48238394791666,59.0,77.0
449,100.33487440625,100.56284369791666,64.0,79.0
450,100.79464440625,101.06859069791666,59.0,76.0
451,101.02452940625,101.12606194791665,64.0,68.0
452,100.56475940624999,101.32721132291665,47.0,70.0
453,101.25441440624999,101.45939519791666,59.0,81.0
454,101.25441440624999,101.49770936458333,64.0,96.0
455,100.33487440625,101.53027640625,40.0,80.0
456,101.25441440624999,101.54368636458332,67.0,78.0
457,101.48429940624999,101.58966336458333,47.0,81.0
458,101.71418440625,101.99004640624999,59.0,84.0
459,102.17395440624999,102.26973982291666,59.0,76.0
460,102.17395440624999,102.37510378124999,62.0,75.0
461,102.40383940625,102.52069761458333,59.0,76.0
462,102.63372440625,102.74483548958332,62.0,67.0
463,102.17395440624999,102.92874348958333,47.0,77.0
464,102.86360940624999,102.93832203125,59.0,71.0
465,103.09349440624999,103.15288136458332,47.0,73.0
466,103.09349440624999,103.21993115625,59.0,79.0
467,103.09349440624999,103.32337940625,62.0,80.0
468,103.09349440624999,103.40000773958333,66.0,78.0
469,103.32337940625,103.44023761458332,59.0,75.0
470,103.09349440624999,103.65288123958332,54.0,78.0
471,103.55326440625,103.66437548958332,62.0,75.0
472,103.78314940624999,103.88468194791666,59.0,68.0
473,104.01303440625,104.17395390624999,59.0,73.0
474,104.01303440625,104.20843665625,62.0,72.0
475,104.47280440624999,104.59924115624999,59.0,69.0
476,104.70268940624999,104.74866640625,59.0,61.0
477,104.70268940624999,104.80805336458333,62.0,77.0
478,104.24291940625,104.96322573958332,54.0,67.0
479,104.93257440625,105.18353219791666,59.0,80.0
480,104.01303440625,105.19311073958333,47.0,75.0
481,104.93257440625,105.21801494791666,62.0,89.0
482,105.16245940625,105.30805323958333,54.0,76.0
483,104.93257440625,105.43448998958333,66.0,82.0
484,105.39234440624999,105.68161636458333,59.0,84.0
485,105.62222940625,105.76590753125,62.0,76.0
486,105.85211440625,106.08391511458333,60.0,75.0
487,105.85211440625,106.14330207291665,64.0,81.0
488,106.31188440624999,106.60881919791666,60.0,76.0
489,106.54176940625,106.63947053125,64.0,68.0
490,106.08199940624999,106.80422144791666,55.0,76.0
491,106.77165440625,106.97471948958332,60.0,77.0
492,106.77165440625,106.97855090624999,64.0,89.0
493,105.85211440625,107.00153940624999,48.0,79.0
494,106.77165440625,107.04560069791665,67.0,77.0
495,107.00153940624999,107.10881907291666,55.0,78.0
496,107.23142440625,107.33487265625,48.0,82.0
497,107.46130940625,107.60881894791666,62.0,77.0
498,107.69119440624999,107.79655836458332,38.0,77.0
499,107.69119440624999,107.84828248958333,62.0,74.0
500,107.69119440624999,107.98429778124999,66.0,76.0
501,107.69119440624999,108.02452765625,69.0,75.0
502,107.92107940624999,108.05709469791665,62.0,68.0
503,108.15096440625,108.44406778125,66.0,56.0
504,108.38084940625,108.45364632291665,62.0,73.0
505,108.61073440624999,108.74100257291666,62.0,79.0
506,108.61073440624999,108.78506386458332,50.0,78.0
507,108.61073440624999,108.86169219791665,74.0,76.0
508,108.61073440624999,108.86743932291665,57.0,76.0
509,108.61073440624999,108.86935503125,66.0,79.0
510,108.84061940625,108.97855040625,50.0,55.0
511,109.07050440625,109.26399094791665,66.0,76.0
512,109.30038940624999,109.42107903124999,62.0,77.0
513,109.53027440624999,109.68927819791666,62.0,76.0
514,109.53027440624999,109.79464215624999,67.0,75.0
515,109.99004440625,110.15096390625,62.0,78.0
516,110.21992940624999,110.31571482291666,67.0,77.0
517,109.76015940625,110.55326265625,50.0,70.0
518,110.44981440625,110.58199828125,62.0,80.0
519,110.44981440625,110.64521665625,67.0,86.0
520,110.44981440625,110.75058061458333,71.0,86.0
521,109.53027440624999,110.79464190624999,43.0,76.0
522,110.67969940625,110.81571469791666,50.0,77.0
523,110.90958440624999,111.18161498958332,62.0,77.0
524,111.13946940624999,111.27931611458332,67.0,70.0
525,111.36935440625,111.55709382291666,64.0,76.0
526,111.36935440625,111.59349228125,67.0,76.0
527,111.82912440624999,111.88276423958332,64.0,61.0
528,112.05900940625,112.15287911458333,64.0,76.0
529,112.05900940625,112.16245765625,67.0,79.0
530,112.05900940625,112.16437336458333,71.0,79.0
531,111.59923940624999,112.29464153125,47.0,76.0
532,112.28889440625,112.53602078124999,64.0,82.0
533,112.28889440625,112.54559932291666,67.0,92.0
534,112.28889440625,112.60307057291666,71.0,92.0
535,111.36935440625,112.63563761458333,40.0,77.0
536,112.51877940624999,112.72184448958333,47.0,79.0
537,112.74866440624999,112.87701686458333,64.0,80.0
538,112.74866440624999,112.90000536458332,69.0,80.0
539,112.97854940625,113.10881757291666,67.0,68.0
540,113.20843440624999,113.33103973958333,64.0,73.0
541,113.20843440624999,113.33678686458333,69.0,69.0
542,113.66820440625,113.75824269791666,57.0,67.0
543,113.89808940625,113.97088632291666,60.0,75.0
544,113.43831940625,114.17395140625,52.0,63.0
545,114.12797440624999,114.33870232291666,57.0,74.0
546,114.12797440624999,114.33870232291666,60.0,80.0
547,114.12797440624999,114.37318507291666,64.0,82.0
548,114.58774440625,114.86552211458333,57.0,77.0
549,114.35785940624999,114.90000486458332,52.0,76.0
550,113.20843440624999,114.90575198958332,45.0,76.0
551,114.81762940624999,114.95939182291666,60.0,75.0
552,115.04751440625,115.16820403124999,57.0,77.0
553,115.04751440625,115.24100094791666,62.0,80.0
554,115.27739940625,115.41724611458332,57.0,73.0
555,115.50728440625,115.60115411458332,62.0,66.0
556,115.73716940624999,115.82337628124999,57.0,75.0
557,115.04751440625,116.05326128125,50.0,80.0
558,115.96705440624999,116.21226507291667,62.0,91.0
559,115.96705440624999,116.22375932291666,57.0,78.0
560,115.96705440624999,116.24674782291666,66.0,86.0
561,116.19693940625,116.28314628125,50.0,77.0
562,116.42682440624999,116.59157532291667,57.0,78.0
563,116.88659440625,117.04368248958333,55.0,75.0
564,116.88659440625,117.05517673958333,59.0,75.0
565,116.88659440625,117.06667098958333,62.0,75.0
566,117.34636440624999,117.44023411458332,55.0,71.0
567,117.11647940625,117.63563636458332,50.0,68.0
568,116.88659440625,117.69310761458333,43.0,77.0
569,117.57624940624999,117.86743707291666,55.0,81.0
570,117.57624940624999,117.89808840625,59.0,82.0
571,117.57624940624999,117.90191982291665,67.0,76.0
572,117.80613440625,118.13563623958333,50.0,91.0
573,118.03601940624999,118.14329907291666,55.0,81.0
574,118.03601940624999,118.16437186458333,59.0,82.0
575,118.03601940624999,118.18544465625,67.0,76.0
576,118.26590440625,118.37318407291666,57.0,77.0
577,118.26590440625,118.39234115625,45.0,76.0
578,118.26590440625,118.39425686458333,69.0,77.0
579,118.49578940625,118.59349053125,46.0,86.0
580,118.49578940625,118.59540623958333,58.0,64.0
581,118.49578940625,118.61264761458332,70.0,72.0
582,118.72567440625,118.89617244791665,59.0,84.0
583,118.95555940624999,119.06667048958333,59.0,80.0
584,118.72567440625,119.06858619791666,71.0,84.0
585,119.18544440625,119.26973557291666,59.0,79.0
586,119.18544440625,119.28122982291666,63.0,81.0
587,118.72567440625,119.28506123958333,47.0,82.0
588,119.18544440625,119.28697694791666,66.0,64.0
589,119.41532940625,119.67011861458333,63.0,101.0
590,119.41532940625,119.69119140625,66.0,84.0
591,119.41532940625,119.71801132291665,59.0,89.0
592,119.64521440624999,120.03410319791666,54.0,91.0
593,119.87509940625,120.10498440625,59.0,81.0
594,120.10498440625,120.30421807291665,51.0,64.0
595,119.87509940625,120.49387319791666,63.0,92.0
596,119.87509940625,120.49578890625,66.0,79.0
597,119.87509940625,120.52069311458332,71.0,78.0
598,120.33486940625,120.54942873958333,59.0,79.0
599,120.56475440624999,120.68735973958333,59.0,78.0
600,120.56475440624999,120.79847082291667,40.0,81.0
601,120.56475440624999,120.81379648958332,64.0,79.0
602,120.79463940625,120.93257040625,59.0,74.0
603,121.02452440625,121.15096115624999,64.0,73.0
604,121.25440940624999,121.34444769791666,59.0,77.0
605,121.48429440625,121.57816411458333,59.0,77.0
606,121.48429440625,121.66053957291666,64.0,84.0
607,121.48429440625,121.67778094791666,52.0,76.0
608,121.48429440625,121.74099932291666,67.0,76.0
609,121.71417940625,121.82145907291667,59.0,75.0
610,121.94406440624999,122.06475403124999,64.0,77.0
611,122.17394940624999,122.31379611458333,59.0,80.0
612,122.40383440625,122.55134394791666,59.0,77.0
613,122.40383440625,122.63180369791667,64.0,79.0
614,122.86360440624999,123.13755069791667,59.0,76.0
615,123.09348940625,123.19502194791666,64.0,68.0
616,122.63371940625,123.39617132291666,47.0,70.0
617,123.32337440625,123.52835519791665,59.0,81.0
618,123.32337440625,123.56666936458333,64.0,96.0
619,122.40383440625,123.59923640624999,40.0,80.0
620,123.32337440625,123.61264636458333,67.0,78.0
621,123.55325940624999,123.65862336458332,47.0,81.0
622,123.78314440624999,124.05900640624999,59.0,84.0
623,124.24291440625,124.33869982291665,59.0,76.0
624,124.24291440625,124.44406378125,62.0,75.0
625,124.47279940625,124.58965761458333,59.0,76.0
626,124.70268440625,124.81379548958333,62.0,67.0
627,124.24291440625,124.99770348958333,47.0,77.0
628,124.93256940625,125.00728203124999,59.0,71.0
629,125.16245440624999,125.22184136458333,47.0,73.0
630,125.16245440624999,125.28889115625,59.0,79.0
631,125.16245440624999,125.39233940624999,62.0,80.0
632,125.16245440624999,125.46896773958332,66.0,78.0
633,125.39233940624999,125.50919761458333,59.0,75.0
634,125.16245440624999,125.72184123958333,54.0,78.0
635,125.62222440625,125.73333548958333,62.0,75.0
636,125.85210940625,125.95364194791665,59.0,68.0
637,126.08199440625,126.24291390625,59.0,73.0
638,126.08199440625,126.27739665625,62.0,72.0
639,126.54176440625,126.66820115624999,59.0,69.0
640,126.77164940624999,126.81762640624999,59.0,61.0
641,126.77164940624999,126.87701336458332,62.0,77.0
642,126.31187940625,127.03218573958333,54.0,67.0
643,127.00153440624999,127.25249219791667,59.0,80.0
644,126.08199440625,127.26207073958332,47.0,75.0
645,127.00153440624999,127.28697494791666,62.0,89.0
646,127.23141940625,127.37701323958333,54.0,76.0
647,127.00153440624999,127.50344998958333,66.0,82.0
648,127.46130440625,127.75057636458334,59.0,84.0
649,127.69118940625,127.83486753125,62.0,76.0
650,127.92107440625,128.15287511458334,60.0,75.0
651,127.92107440625,128.21226207291664,64.0,81.0
652,128.38084440625,128.67777919791666,60.0,76.0
653,128.61072940625,128.70843053125,64.0,68.0
654,128.15095940625,128.87318144791666,55.0,76.0
655,128.84061440624998,129.04367948958333,60.0,77.0
656,128.84061440624998,129.04751090625,64.0,89.0
657,127.92107440625,129.07049940625,48.0,79.0
658,128.84061440624998,129.11456069791666,67.0,77.0
659,129.07049940625,129.17777907291668,55.0,78.0
660,129.30038440625,129.40383265625,48.0,82.0
661,129.53026940625,129.67777894791666,62.0,77.0
662,129.76015440625,129.86551836458332,38.0,77.0
663,129.76015440625,129.91724248958332,62.0,74.0
664,129.76015440625,130.05325778125,66.0,76.0
665,129.76015440625,130.09348765625,69.0,75.0
666,129.99003940625,130.12605469791666,62.0,68.0
667,130.21992440625,130.51302778125,66.0,56.0
668,130.44980940624998,130.52260632291666,62.0,73.0
669,130.67969440625,130.80996257291667,62.0,79.0
670,130.67969440625,130.85402386458333,50.0,78.0
671,130.67969440625,130.93065219791666,74.0,76.0
672,130.67969440625,130.93639932291666,57.0,76.0
673,130.67969440625,130.93831503125,66.0,79.0
674,130.90957940625,131.04751040625,50.0,55.0
675,131.13946440625,131.33295094791666,66.0,76.0
676,131.36934940625,131.49003903124998,62.0,77.0
677,131.59923440625,131.75823819791665,62.0,76.0
678,131.59923440625,131.86360215625,67.0,75.0
679,132.05900440624998,132.21992390625,62.0,78.0
680,132.28888940625,132.38467482291668,67.0,77.0
681,131.82911940625,132.62222265625,50.0,70.0
682,132.51877440625,132.65095828124998,62.0,80.0
683,132.51877440625,132.71417665625,67.0,86.0
684,132.51877440625,132.81954061458333,71.0,86.0
685,131.59923440625,132.86360190624998,43.0,76.0
686,132.74865940625,132.88467469791667,50.0,77.0
687,132.97854440625,133.25057498958333,62.0,77.0
688,133.20842940625,133.3482761145833,67.0,70.0
689,133.43831440625,133.62605382291667,64.0,76.0
690,133.43831440625,133.66245228125,67.0,76.0
691,133.89808440625,133.9517242395833,64.0,61.0
692,134.12796940625,134.22183911458333,64.0,76.0
693,134.12796940625,134.23141765625,67.0,79.0
694,134.12796940625,134.23333336458333,71.0,79.0
695,133.66819940624998,134.36360153125,47.0,76.0
696,134.35785440625,134.60498078125,64.0,82.0
697,134.35785440625,134.61455932291665,67.0,92.0
698,134.35785440625,134.67203057291667,71.0,92.0
699,133.43831440625,134.70459761458332,40.0,77.0
700,134.58773940625,134.79080448958334,47.0,79.0
701,134.81762440625,134.94597686458332,64.0,80.0
702,134.81762440625,134.9689653645833,69.0,80.0
703,135.04750940625,135.17777757291665,67.0,68.0
704,135.27739440624998,135.39999973958334,64.0,73.0
705,135.27739440624998,135.40574686458334,69.0,69.0
706,135.73716440625,135.82720269791668,57.0,67.0
707,135.96704940625,136.03984632291667,60.0,75.0
708,135.50727940625,136.24291140625,52.0,63.0
709,136.19693440625,136.40766232291668,57.0,74.0
710,136.19693440625,136.40766232291668,60.0,80.0
711,136.19693440625,136.44214507291667,64.0,82.0
712,136.65670440625,136.93448211458332,57.0,77.0
713,136.42681940625,136.9689648645833,52.0,76.0
714,135.27739440624998,136.97471198958334,45.0,76.0
715,136.88658940624998,137.02835182291665,60.0,75.0
716,137.11647440625,137.23716403125,57.0,77.0
717,137.11647440625,137.30996094791666,62.0,80.0
718,137.34635940625,137.48620611458333,57.0,73.0
719,137.57624440625,137.67011411458333,62.0,66.0
720,137.80612940625,137.89233628124998,57.0,75.0
721,137.11647440625,138.12222128125,50.0,80.0
722,138.03601440625,138.28122507291667,62.0,91.0
723,138.03601440625,138.29271932291667,57.0,78.0
724,138.03601440625,138.31570782291666,66.0,86.0
725,138.26589940624999,138.35210628125,50.0,77.0
726,138.49578440624998,138.66053532291667,57.0,78.0
727,138.95555440625,139.16628232291666,59.0,76.0
728,138.95555440625,139.24482636458333,64.0,77.0
729,139.41532440625,139.73141628125,59.0,77.0
730,139.64520940625,139.76781473958334,64.0,76.0
731,139.87509440624999,140.03026678125,59.0,79.0
732,139.87509440624999,140.18543915625,67.0,78.0
733,140.10497940624998,140.25823607291665,59.0,77.0
734,140.33486440625,140.46896398958333,64.0,73.0
735,139.18543940625,140.67011336458333,47.0,73.0
736,138.95555440625,140.67394478125,40.0,78.0
737,140.56474940625,140.75057311458335,59.0,55.0
738,140.79463440625,141.19693315625,64.0,70.0
739,141.25440440625,141.53218211458332,59.0,65.0
740,141.48428940625,141.57049628125,64.0,68.0
741,141.71417440624998,141.90382953124998,64.0,76.0
742,141.02451940625,141.91149236458332,47.0,59.0
743,141.71417440624998,141.91340807291667,59.0,74.0
744,141.71417440624998,141.91532378124998,67.0,70.0
745,140.79463440625,141.94980653125,40.0,77.0
746,142.63371440625,142.75440403125,55.0,74.0
747,142.63371440625,142.87700936458333,60.0,76.0
748,142.86359940625,142.99578328125,55.0,76.0
749,143.09348440625,143.24674107291668,60.0,65.0
750,143.32336940624998,143.41532340625,55.0,69.0
751,142.63371440625,143.63371415625,48.0,86.0
752,143.55325440625,143.76398232291666,55.0,82.0
753,143.55325440625,143.79463365625,60.0,92.0
754,143.55325440625,143.81187503125,64.0,86.0
755,143.78313940625,143.87509340625,48.0,78.0
756,144.01302440625,144.32145344791667,55.0,81.0
757,144.24290940625,144.37317757291666,60.0,75.0
758,144.47279440625,144.58198978125,55.0,67.0
759,144.47279440625,144.73141503124998,60.0,72.0
760,144.70267940625,144.84061040625,55.0,76.0
761,144.93256440624998,145.04750690625,60.0,69.0
762,145.16244940625,145.26398194791665,55.0,76.0
763,144.47279440625,145.44405853125,48.0,67.0
764,145.39233440625,145.60880944791666,55.0,80.0
765,145.39233440625,145.63371365625,60.0,79.0
766,145.39233440625,145.63562936458334,64.0,80.0
767,145.62221940625,145.71992053125,48.0,84.0
768,145.85210440625,146.00344536458334,55.0,77.0
769,146.31187440625,146.50152953125001,55.0,76.0
770,146.31187440625,146.52834944791667,59.0,76.0
771,146.77164440625,146.90957540624999,62.0,76.0
772,147.00152940625,147.10689336458333,55.0,69.0
773,146.54175940624998,147.29463278125,50.0,71.0
774,146.31187440625,147.38083965625,43.0,76.0
775,147.23141440625,147.43639519791665,59.0,69.0
776,147.23141440625,147.43831090625,62.0,81.0
777,147.23141440625,147.44405803125,55.0,79.0
778,147.23141440625,147.44788944791668,67.0,76.0
779,147.46129940625,147.51493923958333,50.0,75.0
780,147.69118440625,147.78505411458332,55.0,82.0
781,147.92106940625,148.46321486458334,59.0,79.0
782,147.92106940625,148.49386619791667,62.0,75.0
783,148.61072440625,148.68926844791667,55.0,71.0
784,148.38083940625,148.90765919791667,50.0,63.0
785,148.15095440624998,149.0149388645833,43.0,77.0
786,148.84060940625,149.16053269791666,55.0,80.0
787,148.84060940625,149.16819553125,62.0,79.0
788,148.84060940625,149.17394265625,59.0,86.0
789,149.07049440625,149.41532190625,50.0,77.0
790,149.30037940625,149.46321461458334,55.0,84.0
791,149.30037940625,149.47854028125,59.0,89.0
792,149.30037940625,149.53409582291667,62.0,84.0
793,149.53026440625,149.64520690625,43.0,76.0
794,149.99003440625,150.15095390624998,59.0,76.0
795,149.99003440625,150.21417228125,64.0,78.0
796,150.44980440625,150.54942123958332,59.0,75.0
797,150.21991940625,150.75440203124998,47.0,60.0
798,150.67968940625,150.97662419791666,64.0,82.0
799,150.67968940625,150.98811844791666,59.0,78.0
800,150.67968940625,150.99194986458332,67.0,78.0
801,151.13945940625,151.26589615625,59.0,79.0
802,151.13945940625,151.35401873958332,64.0,86.0
803,151.13945940625,151.47279265625,67.0,76.0
804,150.90957440625,151.53792673958333,47.0,75.0
805,149.99003440625,151.63945928125,40.0,78.0
806,151.59922940625,151.72183473958333,59.0,75.0
807,151.82911440625,152.07432507291668,59.0,76.0
808,151.82911440625,152.12413348958333,64.0,77.0
809,152.28888440625,152.35784990625,59.0,69.0
810,152.05899940625,152.60880769791666,47.0,64.0
811,152.51876940625,152.80995707291666,67.0,77.0
812,152.51876940625,152.81187278125,64.0,89.0
813,151.82911440625,152.81953561458334,40.0,76.0
814,152.51876940625,152.82336703125,59.0,82.0
815,152.74865440625,152.85593407291665,47.0,78.0
816,152.97853940625,153.07432482291665,59.0,78.0
817,152.97853940625,153.17777307291666,64.0,82.0
818,152.97853940625,153.20650869791666,67.0,76.0
819,153.43830940625,153.52643198958333,59.0,76.0
820,153.66819440625,153.99578053125,60.0,80.0
821,153.66819440625,154.0436732395833,64.0,79.0
822,154.35784940625,154.44405628125,60.0,75.0
823,154.12796440625,154.65286848958334,55.0,73.0
824,154.58773440625,154.85018644791666,60.0,84.0
825,153.66819440625,154.85401786458334,48.0,81.0
826,154.58773440625,154.87509065625,64.0,92.0
827,154.58773440625,154.90765769791665,67.0,86.0
828,154.58773440625,154.93830903125001,72.0,76.0
829,154.81761940625,154.94405615624999,55.0,71.0
830,155.04750440625,155.16053119791667,60.0,77.0
831,155.27738940625,155.34827061458333,67.0,64.0
832,155.27738940625,155.40957328125,60.0,65.0
833,155.27738940625,155.42298323958335,64.0,82.0
834,155.49194873958334,155.62987973958332,55.0,75.0
835,155.49194873958334,155.77355786458332,60.0,73.0
836,155.72566515625,155.85018619791666,55.0,78.0
837,155.95938157291667,156.22566503125,60.0,75.0
838,155.49386444791668,156.2563163645833,48.0,84.0
839,156.19501369791666,156.29463053125,55.0,79.0
840,156.42106728125,156.73907486458333,40.0,80.0
841,156.43639294791666,156.81378748958332,52.0,82.0
842,156.74482198958333,157.01685257291666,42.0,76.0
843,156.76014765625,157.03217823958335,54.0,81.0
844,157.04558819791666,157.29463028125,43.0,79.0
845,157.04367248958334,157.29654598958334,55.0,77.0
846,157.34635440625,157.45363407291666,57.0,71.0
847,157.34635440625,157.60497503124998,60.0,77.0
848,157.57623940625,157.81378723958335,57.0,64.0
849,157.80612440624998,157.99386382291667,60.0,74.0
850,158.03600940625,158.11455344791665,57.0,64.0
851,157.34635440625,158.40957253124998,42.0,78.0
852,158.26589440625,158.43830815625,57.0,76.0
853,158.26589440625,158.52451503125002,60.0,86.0
854,158.26589440625,158.54175640625,64.0,81.0
855,158.49577940625,158.58581769791667,42.0,70.0
856,158.72566440625002,158.87892107291668,57.0,79.0
857,159.18543440625,159.32144969791665,59.0,69.0
858,159.18543440625,159.45746498958334,63.0,71.0
859,159.18543440625,159.48428490625,66.0,68.0
860,159.41531940624998,159.57623890625,59.0,68.0
861,159.64520440625,159.78313540624998,63.0,76.0
862,159.87508940625,159.96321198958333,59.0,75.0
863,159.18543440625,160.03217748958332,39.0,75.0
864,160.10497440625,160.19692840624998,59.0,82.0
865,160.10497440625,160.27164103125,63.0,96.0
866,160.10497440625,160.41148773958332,66.0,86.0
867,160.33485940625002,160.56666011458333,59.0,77.0
868,160.56474440624999,160.6816026145833,63.0,75.0
869,160.79462940625,160.91723473958334,59.0,76.0
870,161.02451440624998,161.30612353125,64.0,80.0
871,161.02451440624998,161.33677486458333,67.0,75.0
872,161.25439940625,161.41723461458332,59.0,76.0
873,161.48428440625,161.63754107291666,64.0,74.0
874,161.71416940625,161.83485903125,59.0,77.0
875,161.25439940625,161.99003140625,47.0,63.0
876,161.94405440625002,162.02834557291666,59.0,75.0
877,161.02451440624998,162.15478232291667,40.0,79.0
878,161.94405440625002,162.20842215624998,64.0,84.0
879,161.94405440625002,162.23332636458332,67.0,78.0
880,162.17393940624999,162.28121907291666,47.0,77.0
881,162.40382440625,162.67585498958334,59.0,80.0
882,162.63370940624998,162.76589328125,64.0,76.0
883,162.86359440625,163.09156369791668,60.0,78.0
884,162.86359440625,163.15669778125,67.0,76.0
885,163.32336440625,163.59922640625,60.0,75.0
886,163.55324940625002,163.64328769791666,64.0,76.0
887,163.09347940625,163.84443707291666,55.0,68.0
888,162.86359440625,163.92872823958334,48.0,78.0
889,163.78313440624999,164.02451365625,60.0,77.0
890,163.78313440624999,164.05516498958332,64.0,89.0
891,164.01301940625,164.10688911458334,55.0,78.0
892,163.78313440624999,164.10688911458334,67.0,78.0
893,164.24290440624998,164.55708057291668,60.0,79.0
894,164.47278940625,164.56282769791665,64.0,60.0
895,164.70267440625,164.94022223958333,57.0,71.0
896,164.70267440625,165.1497782708333,60.0,78.0
897,165.16323978124998,165.31516254166667,57.0,74.0
898,165.39400853125,165.46516222916665,57.0,47.0
899,165.39400853125,165.52093134375,60.0,74.0
900,164.93255940625,165.71900785416665,52.0,73.0
901,164.70267440625,165.77285389583332,45.0,75.0
902,165.62477728124998,165.84593066666665,57.0,76.0
903,165.62477728124998,165.90362285416666,60.0,78.0
904,165.85554603125,165.90939207291666,45.0,43.0
905,165.62477728124998,165.91131514583333,64.0,81.0
906,165.85554603125,165.9882380625,52.0,76.0
907,166.08631478125,166.35362191666667,57.0,79.0
908,166.31708353124998,166.4940062395833,60.0,67.0
909,166.54785228125,166.8343901458333,63.0,78.0
910,166.54785228125,166.99592827083333,47.0,79.0
911,166.77862103125,167.01900514583332,51.0,77.0
912,167.00938978124998,167.29977379166667,59.0,89.0
913,167.24015853125,167.49208108333332,63.0,78.0
914,167.47092728125,167.8266957708333,54.0,86.0
915,167.70169603124998,167.84977264583333,59.0,76.0
916,167.70169603124998,167.9593878020833,63.0,76.0
917,167.70169603124998,168.00554155208332,66.0,77.0
918,167.93246478125,168.28823327083333,59.0,75.0
919,168.39400228124998,168.676694,64.0,78.0
920,168.39400228124998,168.85169363541667,69.0,75.0
921,168.62477103125,168.92477040625,59.0,76.0
922,168.85553978125,168.96707801041666,64.0,74.0
923,169.08630853124998,169.18630832291666,59.0,74.0
924,169.08630853124998,169.51707686458332,64.0,77.0
925,169.08630853124998,169.59592285416664,69.0,76.0
926,169.54784603125,169.83053775,59.0,76.0
927,169.31707728125,170.0305373333333,47.0,70.0
928,168.39400228124998,170.10361410416667,40.0,79.0
929,169.77861478124998,170.11899868749998,64.0,78.0
930,170.00938353125,170.176690875,59.0,74.0
931,170.24015228124998,170.85361254166665,59.0,65.0
932,170.24015228124998,170.95361233333333,64.0,75.0
933,170.24015228124998,170.95553540625,68.0,65.0
934,170.24015228124998,171.62488353125,40.0,77.0
935,171.62296782291665,172.02718228125,59.0,52.0
936,171.16319782291666,172.06741215625,64.0,73.0
937,171.16319782291666,172.07315928124999,68.0,64.0
938,172.77239282291666,173.00802494791665,52.0,65.0
939,172.54250782291666,173.12488315624998,59.0,69.0
940,172.31262282291664,173.74365694791666,47.0,63.0
941,172.08273782291664,173.79538107291665,40.0,78.0
942,173.00227782291665,174.2302468645833,64.0,79.0
943,173.69193282291664,174.2359939895833,52.0,73.0
944,173.46204782291665,174.4313962395833,59.0,69.0
945,174.38158782291666,174.73982528124998,52.0,70.0
946,174.61147282291665,174.89882907291664,59.0,70.0
947,174.15170282291666,175.19767957291666,47.0,63.0
948,173.92181782291664,175.24365657291665,40.0,76.0
949,175.07124282291664,175.36051478124998,52.0,75.0
950,175.30112782291664,175.64020819791665,59.0,69.0
951,175.53101282291664,175.71108940624998,52.0,75.0
952,174.84135782291665,175.7992119895833,64.0,82.0
953,176.22066782291665,176.48120415625,62.0,68.0
954,176.45055282291665,176.76664469791666,57.0,64.0
955,175.99078282291666,176.94480557291666,45.0,66.0
956,175.76089782291666,176.98886686458331,38.0,79.0
957,176.91032282291664,177.17277486458332,57.0,73.0
958,176.68043782291664,177.17277486458332,66.0,80.0
959,177.14020782291664,177.45246828125,62.0,69.0
960,177.37009282291666,177.51951807291664,57.0,71.0
961,177.59997782291666,177.8279471145833,57.0,68.0
962,177.59997782291666,177.98503519791666,62.0,71.0
963,178.05974782291665,178.46970940625,57.0,65.0
964,178.28963282291664,178.49078219791664,62.0,75.0
965,177.82986282291665,178.74557140624998,45.0,58.0
966,177.59997782291666,178.8107054895833,38.0,80.0
967,178.51951782291664,178.94672078124998,66.0,81.0
968,178.74940282291664,178.97928782291666,62.0,78.0
969,179.20917282291666,179.2704754895833,62.0,62.0
970,178.97928782291666,179.28963257291664,57.0,75.0
971,179.43905782291665,179.71300411458333,60.0,75.0
972,179.66894282291665,179.99844465624997,55.0,73.0
973,179.89882782291664,180.20150973958332,60.0,69.0
974,180.12871282291664,180.33752503124998,55.0,72.0
975,179.43905782291665,180.58081998958332,48.0,73.0
976,180.58848282291666,180.81453640624997,55.0,71.0
977,180.35859782291664,180.82603065625,64.0,82.0
978,180.81836782291666,181.07315703125,60.0,67.0
979,181.04825282291665,181.13062828124998,55.0,62.0
980,181.27813782291665,181.55591553124998,62.0,73.0
981,181.50802282291664,181.77047486458332,57.0,70.0
982,181.73790782291664,182.02143265624997,62.0,70.0
983,182.19767782291666,182.34518736458332,57.0,72.0
984,182.19767782291666,182.48694978125,62.0,72.0
985,181.27813782291665,182.49078119791665,50.0,75.0
986,182.42756282291666,182.65744782291665,57.0,70.0
987,182.19767782291666,182.78771598958332,66.0,71.0
988,182.65744782291665,182.89691136458333,62.0,67.0
989,182.88733282291665,183.0290952395833,57.0,49.0
990,183.11721782291664,183.34901853124998,55.0,63.0
991,183.11721782291664,183.59614490624998,59.0,65.0
992,183.57698782291666,183.87583832291665,55.0,73.0
993,183.34710282291664,183.90457394791665,50.0,65.0
994,183.80687282291666,184.23982290624997,59.0,73.0
995,184.26664282291665,184.56740903124998,55.0,79.0
996,183.11721782291664,184.77238982291664,43.0,75.0
997,184.03675782291666,184.79537832291666,50.0,73.0
998,184.49652782291665,184.80687257291666,59.0,76.0
999,184.72641282291664,184.91032082291665,55.0,75.0
1000,185.18618282291666,185.41606782291666,59.0,64.0
1001,185.41606782291666,185.73599111458333,63.0,65.0
1002,184.95629782291664,185.76664244791664,47.0,79.0
1003,185.64595282291666,185.95055044791664,59.0,84.0
1004,185.87583782291665,186.18618257291666,54.0,80.0
1005,186.10572282291665,186.29154653125,59.0,80.0
1006,186.10572282291665,186.40840473958332,63.0,77.0
1007,186.33560782291664,186.46204457291665,51.0,60.0
1008,186.10572282291665,186.54825144791664,66.0,72.0
1009,186.56549282291664,186.72258090625,59.0,75.0
1010,186.79537782291666,187.11146969791665,60.0,71.0
1011,187.02526282291666,187.28963057291665,55.0,75.0
1012,187.25514782291665,187.5175998645833,60.0,70.0
1013,186.79537782291666,187.84710169791666,48.0,80.0
1014,187.71491782291665,187.99077982291664,55.0,77.0
1015,187.71491782291665,188.0865652395833,60.0,81.0
1016,187.94480282291664,188.09039665625,48.0,74.0
1017,187.71491782291665,188.2589789895833,64.0,80.0
1018,188.17468782291664,188.45821265625,55.0,76.0
1019,188.40457282291666,188.57890228124998,60.0,79.0
1020,188.63445782291666,188.79920873958332,57.0,68.0
1021,188.63445782291666,188.8854156145833,62.0,76.0
1022,188.86434282291665,189.09614353125,57.0,67.0
1023,189.09422782291665,189.2819672395833,62.0,71.0
1024,189.32411282291665,189.42947678124997,57.0,46.0
1025,188.63445782291666,189.61721619791666,50.0,75.0
1026,189.55399782291664,189.6900131145833,57.0,74.0
1027,189.55399782291664,189.78771423958332,62.0,78.0
1028,189.78388282291667,189.93522378125,57.0,68.0
1029,189.55399782291664,190.00802069791666,66.0,76.0
1030,190.01376782291666,190.22449573958332,62.0,67.0
1031,190.24365282291666,190.37008957291664,57.0,59.0
1032,190.47353782291665,190.74556840625,55.0,72.0
1033,190.47353782291665,190.99269478124998,62.0,71.0
1034,191.16319282291664,191.39499353124998,59.0,80.0
1035,190.70342282291665,191.43522340624997,50.0,70.0
1036,190.93330782291665,191.4658747395833,55.0,75.0
1037,190.47353782291665,191.58848007291664,43.0,75.0
1038,191.39307782291667,191.89882482291665,62.0,75.0
1039,191.62296282291666,191.96012748958333,55.0,81.0
1040,191.85284782291666,191.99461023958332,50.0,78.0
1041,192.08273282291665,192.37583619791664,55.0,75.0
1042,192.31261782291665,192.65361390624997,59.0,68.0
1043,192.77238782291664,193.01759848958332,59.0,73.0
1044,193.00227282291667,193.19767507291664,55.0,77.0
1045,193.23215782291666,193.53100832291665,64.0,84.0
1046,192.54250282291665,193.58847957291664,47.0,75.0
1047,192.31261782291665,193.69192782291665,40.0,76.0
1048,193.46204282291666,193.74556765625,59.0,77.0
1049,193.69192782291665,193.97928407291664,55.0,76.0
1050,193.92181282291665,194.1210464895833,59.0,73.0
1051,194.15169782291665,194.27430315624997,55.0,73.0
1052,194.15169782291665,194.43713836458332,60.0,72.0
1053,194.38158282291664,194.61721494791664,55.0,70.0
1054,194.15169782291665,194.75514594791665,36.0,74.0
1055,194.61146782291667,194.83560569791666,60.0,68.0
1056,194.84135282291666,194.94096965625,55.0,71.0
1057,195.07123782291666,195.36817261458333,64.0,78.0
1058,195.07123782291666,195.43905382291666,55.0,77.0
1059,195.53100782291665,195.62104611458332,48.0,80.0
1060,195.53100782291665,195.82411119791664,60.0,74.0
1061,195.76089282291665,195.91223378125,55.0,74.0
1062,195.99077782291664,196.19959003124998,62.0,77.0
1063,196.22066282291667,196.41031794791667,57.0,76.0
1064,196.45054782291666,196.63445582291666,62.0,65.0
1065,196.68043282291666,196.76855540625,57.0,67.0
1066,195.99077782291664,197.00418753124998,50.0,81.0
1067,196.91031782291665,197.04058598958332,57.0,77.0
1068,196.91031782291665,197.1325399895833,62.0,79.0
1069,196.91031782291665,197.21299973958332,66.0,78.0
1070,197.14020282291665,197.22066257291664,50.0,77.0
1071,197.37008782291664,197.51568165625,57.0,77.0
1072,197.82985782291667,198.05974282291666,55.0,71.0
1073,197.82985782291667,198.3107006145833,62.0,73.0
1074,198.28962782291666,198.57123694791665,55.0,78.0
1075,198.51951282291665,198.64020244791666,59.0,75.0
1076,198.05974282291666,198.80112194791664,50.0,72.0
1077,198.74939782291665,198.94480007291665,55.0,77.0
1078,198.74939782291665,198.99077707291664,59.0,81.0
1079,197.82985782291667,199.03292265624998,43.0,75.0
1080,198.74939782291665,199.1152981145833,62.0,76.0
1081,198.97928282291664,199.1210452395833,50.0,73.0
1082,199.20916782291664,199.52717540625,55.0,77.0
1083,199.43905282291666,199.60763515624998,59.0,75.0
1084,199.66893782291666,200.20150473958333,64.0,76.0
1085,200.12870782291665,200.43330544791667,55.0,79.0
1086,200.35859282291665,200.47928244791666,59.0,74.0
1087,199.89882282291666,200.65935903124998,47.0,60.0
1088,200.58847782291664,200.82985707291664,55.0,74.0
1089,199.66893782291666,200.89690686458331,40.0,77.0
1090,200.58847782291664,200.90073828124997,64.0,78.0
1091,200.81836282291664,200.95054669791665,47.0,75.0
1092,201.04824782291666,201.33560407291665,55.0,79.0
1093,201.27813282291666,201.43522090624998,59.0,76.0
1094,201.50801782291666,201.7762169895833,57.0,69.0
1095,201.50801782291666,202.23407128124998,64.0,75.0
1096,201.96778782291665,202.43138923958332,57.0,77.0
1097,201.73790282291665,202.63253861458332,52.0,70.0
1098,202.65744282291666,202.9716189895833,52.0,71.0
1099,202.19767282291664,203.00035461458333,60.0,82.0
1100,201.50801782291666,203.00418603125,45.0,77.0
1101,202.42755782291664,203.1382856145833,64.0,75.0
1102,202.88732782291666,203.16510553125,57.0,71.0
1103,203.11721282291666,203.37583344791665,60.0,75.0
1104,203.34709782291665,203.72640807291666,62.0,71.0
1105,203.80686782291664,204.1267911145833,57.0,77.0
1106,204.03675282291664,204.16318957291665,62.0,75.0
1107,203.57698282291665,204.3509289895833,45.0,68.0
1108,203.34709782291665,204.42372590624998,38.0,77.0
1109,204.26663782291666,204.72257640624997,66.0,84.0
1110,204.49652282291666,204.78579478125,57.0,76.0
1111,204.72640782291666,205.02717403124998,62.0,69.0
1112,204.95629282291665,205.04633111458332,57.0,67.0
1113,205.18617782291665,205.42755707291664,59.0,71.0
1114,205.18617782291665,205.67276773958332,64.0,76.0
1115,205.64594782291664,205.91797840624997,59.0,75.0
1116,205.87583282291666,205.9658711145833,64.0,64.0
1117,205.41606282291664,206.18043044791665,47.0,64.0
1118,206.10571782291666,206.28004728124998,59.0,76.0
1119,206.10571782291666,206.33177140624997,67.0,76.0
1120,206.56548782291665,206.65169469791664,59.0,75.0
1121,206.33560282291666,206.83368698958333,47.0,67.0
1122,205.18617782291665,206.83560269791667,40.0,76.0
1123,206.79537282291665,207.18617732291665,59.0,82.0
1124,206.79537282291665,207.40073665625,64.0,80.0
1125,207.48502782291666,207.5578247395833,59.0,71.0
1126,207.25514282291664,207.80495111458333,47.0,69.0
1127,207.71491282291666,208.00801619791665,64.0,89.0
1128,207.71491282291666,208.00993190625,59.0,81.0
1129,207.94479782291666,208.26472111458332,47.0,81.0
1130,208.17468282291665,208.37391648958334,59.0,80.0
1131,207.02525782291664,208.49077469791666,40.0,78.0
1132,208.17468282291665,208.71108115624997,64.0,96.0
1133,208.63445282291664,208.79920373958333,59.0,84.0
1134,208.17468282291665,208.79920373958333,67.0,81.0
1135,208.40456782291665,208.81836082291665,47.0,78.0
1136,208.86433782291664,208.98694315625,59.0,78.0
1137,208.86433782291664,209.09805423958332,40.0,81.0
1138,208.86433782291664,209.11337990624997,64.0,79.0
1139,209.09422282291666,209.23215382291664,59.0,74.0
1140,209.32410782291666,209.45054457291667,64.0,73.0
1141,209.55399282291665,209.64403111458333,59.0,77.0
1142,209.78387782291665,209.87838357291665,59.0,77.0
1143,209.78387782291665,209.96139507291664,64.0,84.0
1144,209.78387782291665,209.97876957291666,52.0,76.0
1145,209.78387782291665,210.04247607291666,67.0,76.0
1146,210.01544907291665,210.12355707291664,59.0,75.0
1147,210.24710907291666,210.36873057291666,64.0,77.0
1148,210.47876907291666,210.61969557291664,59.0,80.0
1149,210.71042907291664,210.85907757291665,59.0,77.0
1150,210.71042907291664,210.94015857291666,64.0,79.0
1151,211.17374907291665,211.44981057291665,59.0,76.0
1152,211.40540907291665,211.50772557291666,64.0,68.0
1153,210.94208907291664,211.71042807291664,47.0,70.0
1154,211.63706907291666,211.84363257291665,59.0,81.0
1155,211.63706907291666,211.88224257291665,64.0,96.0
1156,210.71042907291664,211.91506107291664,40.0,80.0
1157,211.63706907291666,211.92857457291666,67.0,78.0
1158,211.86872907291664,211.97490657291664,47.0,81.0
1159,212.10038907291664,212.37838107291665,59.0,84.0
1160,212.56370907291665,212.66023407291664,59.0,76.0
1161,212.56370907291665,212.76641157291664,62.0,75.0
1162,212.79536907291666,212.91312957291666,59.0,76.0
1163,213.02702907291666,213.13899807291665,62.0,67.0
1164,212.56370907291665,213.32432607291665,47.0,77.0
1165,213.25868907291664,213.33397857291664,59.0,71.0
1166,213.49034907291664,213.55019457291664,47.0,73.0
1167,213.49034907291664,213.61776207291666,59.0,79.0
1168,213.49034907291664,213.72200907291665,62.0,80.0
1169,213.49034907291664,213.79922907291666,66.0,78.0
1170,213.72200907291665,213.83976957291665,59.0,75.0
1171,213.49034907291664,214.05405507291664,54.0,78.0
1172,213.95366907291665,214.06563807291664,62.0,75.0
1173,214.18532907291666,214.28764557291666,59.0,68.0
1174,214.41698907291664,214.57915107291666,59.0,73.0
1175,214.41698907291664,214.61390007291664,62.0,72.0
1176,214.88030907291665,215.00772207291664,59.0,69.0
1177,215.11196907291665,215.15830107291666,59.0,61.0
1178,215.11196907291665,215.21814657291665,62.0,77.0
1179,214.64864907291664,215.37451707291666,54.0,67.0
1180,215.34362907291666,215.59652457291665,59.0,80.0
1181,214.41698907291664,215.60617707291664,47.0,75.0
1182,215.34362907291666,215.63127357291665,62.0,89.0
1183,215.57528907291666,215.72200707291665,54.0,76.0
1184,215.34362907291666,215.84942007291664,66.0,82.0
1185,215.80694907291664,216.09845457291664,59.0,84.0
1186,216.03860907291664,216.18277532291663,62.0,76.0
1187,216.26898219791664,216.50078290624998,60.0,75.0
1188,216.26898219791664,216.56016986458332,64.0,81.0
1189,216.72875219791663,217.0256869895833,60.0,76.0
1190,216.95863719791663,217.05633832291664,64.0,68.0
1191,216.49886719791664,217.2210892395833,55.0,76.0
1192,217.18852219791663,217.39158728124997,60.0,77.0
1193,217.18852219791663,217.39541869791663,64.0,89.0
1194,216.26898219791664,217.41840719791665,48.0,79.0
1195,217.18852219791663,217.4624684895833,67.0,77.0
1196,217.41840719791665,217.5256868645833,55.0,78.0
1197,217.64829219791665,217.75174044791663,48.0,82.0
1198,217.87817719791664,218.0256867395833,62.0,77.0
1199,218.10806219791664,218.21342615624997,38.0,77.0
1200,218.10806219791664,218.26515028124996,62.0,74.0
1201,218.10806219791664,218.40116557291663,66.0,76.0
1202,218.10806219791664,218.44139544791665,69.0,75.0
1203,218.33794719791663,218.4739624895833,62.0,68.0
1204,218.56783219791663,218.86093557291665,66.0,56.0
1205,218.79771719791663,218.8705141145833,62.0,73.0
1206,219.02760219791665,219.15787036458332,62.0,79.0
1207,219.02760219791665,219.20193165624997,50.0,78.0
1208,219.02760219791665,219.2785599895833,74.0,76.0
1209,219.02760219791665,219.2843071145833,57.0,76.0
1210,219.02760219791665,219.28622282291664,66.0,79.0
1211,219.25748719791665,219.39541819791663,50.0,55.0
1212,219.48737219791664,219.6808587395833,66.0,76.0
1213,219.71725719791664,219.83794682291665,62.0,77.0
1214,219.94714219791663,220.1061459895833,62.0,76.0
1215,219.94714219791663,220.21150994791662,67.0,75.0
1216,220.40691219791663,220.56783169791663,62.0,78.0
1217,220.63679719791665,220.7325826145833,67.0,77.0
1218,220.17702719791663,220.97013044791663,50.0,70.0
1219,220.86668219791665,220.99886607291663,62.0,80.0
1220,220.86668219791665,221.06208444791665,67.0,86.0
1221,220.86668219791665,221.16744840624997,71.0,86.0
1222,219.94714219791663,221.21150969791663,43.0,76.0
1223,221.09656719791664,221.2325824895833,50.0,77.0
1224,221.32645219791664,221.59848278124997,62.0,77.0
1225,221.55633719791663,221.69618390624998,67.0,70.0
1226,221.78622219791663,221.97396161458332,64.0,76.0
1227,221.78622219791663,222.01036007291663,67.0,76.0
1228,222.24599219791665,222.29963203124998,64.0,61.0
1229,222.47587719791665,222.56974690624997,64.0,76.0
1230,222.47587719791665,222.57932544791663,67.0,79.0
1231,222.47587719791665,222.58124115624997,71.0,79.0
1232,222.01610719791663,222.71150932291664,47.0,76.0
1233,222.70576219791664,222.95288857291663,64.0,82.0
1234,222.70576219791664,222.96246711458332,67.0,92.0
1235,222.70576219791664,223.0199383645833,71.0,92.0
1236,221.78622219791663,223.05250540624996,40.0,77.0
1237,222.93564719791664,223.13871228124998,47.0,79.0
1238,223.16553219791663,223.29388465625,64.0,80.0
1239,223.16553219791663,223.31687315624998,69.0,80.0
1240,223.39541719791663,223.5256853645833,67.0,68.0
1241,223.62530219791662,223.74790753124998,64.0,73.0
1242,223.62530219791662,223.75365465624998,69.0,69.0
1243,224.08507219791665,224.17511048958332,57.0,67.0
1244,224.31495719791664,224.38775411458332,60.0,75.0
1245,223.85518719791665,224.59081919791663,52.0,63.0
1246,224.54484219791664,224.7555701145833,57.0,74.0
1247,224.54484219791664,224.7555701145833,60.0,80.0
1248,224.54484219791664,224.79005286458332,64.0,82.0
1249,225.00461219791663,225.28238990624996,57.0,77.0
1250,224.77472719791663,225.31687265624998,52.0,76.0
1251,223.62530219791662,225.32261978124998,45.0,76.0
1252,225.23449719791665,225.37625961458332,60.0,75.0
1253,225.46438219791665,225.58507182291663,57.0,77.0
1254,225.46438219791665,225.6578687395833,62.0,80.0
1255,225.69426719791664,225.83411390624997,57.0,73.0
1256,225.92415219791664,226.01802190624997,62.0,66.0
1257,226.15403719791664,226.24024407291665,57.0,75.0
1258,225.46438219791665,226.47012907291665,50.0,80.0
1259,226.38392219791663,226.6291328645833,62.0,91.0
1260,226.38392219791663,226.6406271145833,57.0,78.0
1261,226.38392219791663,226.6636156145833,66.0,86.0
1262,226.61380719791663,226.70001407291664,50.0,77.0
1263,226.84369219791665,227.00844311458332,57.0,78.0
1264,227.30346219791664,227.46055028124997,55.0,75.0
1265,227.30346219791664,227.47204453124996,59.0,75.0
1266,227.30346219791664,227.48353878124996,62.0,75.0
1267,227.76323219791664,227.85710190624997,55.0,71.0
1268,227.53334719791664,228.05250415624997,50.0,68.0
1269,227.30346219791664,228.10997540625,43.0,77.0
1270,227.99311719791663,228.2843048645833,55.0,81.0
1271,227.99311719791663,228.31495619791664,59.0,82.0
1272,227.99311719791663,228.3187876145833,67.0,76.0
1273,228.22300219791663,228.55250403124998,50.0,91.0
1274,228.45288719791665,228.5601668645833,55.0,81.0
1275,228.45288719791665,228.58123965624998,59.0,82.0
1276,228.45288719791665,228.60231244791663,67.0,76.0
1277,228.68277219791665,228.7900518645833,57.0,77.0
1278,228.68277219791665,228.80920894791663,45.0,76.0
1279,228.68277219791665,228.81112465624997,69.0,77.0
1280,228.91265719791664,229.01035832291663,46.0,86.0
1281,228.91265719791664,229.01227403124997,58.0,64.0
1282,228.91265719791664,229.02951540624997,70.0,72.0
1283,229.14254219791664,229.3130402395833,59.0,84.0
1284,229.37242719791664,229.48353828124996,59.0,80.0
1285,229.14254219791664,229.4854539895833,71.0,84.0
1286,229.60231219791663,229.6866033645833,59.0,79.0
1287,229.60231219791663,229.6980976145833,63.0,81.0
1288,229.14254219791664,229.70192903124996,47.0,82.0
1289,229.60231219791663,229.7038447395833,66.0,64.0
1290,229.83219719791663,230.08698640624996,63.0,101.0
1291,229.83219719791663,230.10805919791665,66.0,84.0
1292,229.83219719791663,230.1348791145833,59.0,89.0
1293,230.06208219791665,230.4509709895833,54.0,91.0
1294,230.29196719791665,230.52185219791664,59.0,81.0
1295,230.52185219791664,230.7210858645833,51.0,64.0
1296,230.29196719791665,230.9107409895833,63.0,92.0
1297,230.29196719791665,230.91265669791665,66.0,79.0
1298,230.29196719791665,230.93756090624998,71.0,78.0
1299,230.75173719791664,230.96629653124998,59.0,79.0
1300,230.98162219791664,231.10422753124996,59.0,78.0
1301,230.98162219791664,231.21533861458332,40.0,81.0
1302,230.98162219791664,231.23066428124997,64.0,79.0
1303,231.21150719791663,231.34943819791664,59.0,74.0
1304,231.44139219791663,231.56782894791664,64.0,73.0
1305,231.67127719791665,231.7613154895833,59.0,77.0
1306,231.90116219791665,231.99503190624998,59.0,77.0
1307,231.90116219791665,232.0774073645833,64.0,84.0
1308,231.90116219791665,232.0946487395833,52.0,76.0
1309,231.90116219791665,232.1578671145833,67.0,76.0
1310,232.13104719791664,232.2383268645833,59.0,75.0
1311,232.36093219791664,232.48162182291665,64.0,77.0
1312,232.59081719791664,232.73066390624996,59.0,80.0
1313,232.82070219791663,232.9682117395833,59.0,77.0
1314,232.82070219791663,233.0486714895833,64.0,79.0
1315,233.28047219791665,233.5544184895833,59.0,76.0
1316,233.51035719791665,233.61188973958332,64.0,68.0
1317,233.05058719791663,233.81303911458332,47.0,70.0
1318,233.74024219791664,233.9452229895833,59.0,81.0
1319,233.74024219791664,233.98353715624998,64.0,96.0
1320,232.82070219791663,234.01610419791663,40.0,80.0
1321,233.74024219791664,234.02951415624997,67.0,78.0
1322,233.97012719791664,234.07549115624997,47.0,81.0
1323,234.20001219791664,234.47587419791665,59.0,84.0
1324,234.65978219791663,234.7555676145833,59.0,76.0
1325,234.65978219791663,234.86093157291663,62.0,75.0
1326,234.88966719791665,235.00652540624998,59.0,76.0
1327,235.11955219791665,235.23066328124997,62.0,67.0
1328,234.65978219791663,235.41457128124998,47.0,77.0
1329,235.34943719791664,235.42414982291663,59.0,71.0
1330,235.57932219791664,235.63870915624997,47.0,73.0
1331,235.57932219791664,235.70575894791665,59.0,79.0
1332,235.57932219791664,235.80920719791663,62.0,80.0
1333,235.57932219791664,235.88583553124997,66.0,78.0
1334,235.80920719791663,235.92606540624996,59.0,75.0
1335,235.57932219791664,236.13870903124996,54.0,78.0
1336,236.03909219791663,236.15020328124996,62.0,75.0
1337,236.26897719791663,236.3705097395833,59.0,68.0
1338,236.49886219791665,236.65978169791663,59.0,73.0
1339,236.49886219791665,236.69426444791665,62.0,72.0
1340,236.95863219791664,237.08506894791662,59.0,69.0
1341,237.18851719791664,237.23449419791663,59.0,61.0
1342,237.18851719791664,237.29388115624997,62.0,77.0
1343,236.72874719791665,237.44905353124997,54.0,67.0
1344,237.41840219791663,237.6693599895833,59.0,80.0
1345,236.49886219791665,237.67893853124997,47.0,75.0
1346,237.41840219791663,237.7038427395833,62.0,89.0
1347,237.64828719791663,237.79388103124998,54.0,76.0
1348,237.41840219791663,237.92031778124996,66.0,82.0
1349,237.87817219791663,238.16744415624999,59.0,84.0
1350,238.10805719791665,238.25173532291663,62.0,76.0
1351,238.33794219791665,238.56974290624999,60.0,75.0
1352,238.33794219791665,238.62912986458332,64.0,81.0
1353,238.79771219791664,239.0946469895833,60.0,76.0
1354,239.02759719791663,239.12529832291665,64.0,68.0
1355,238.56782719791664,239.2900492395833,55.0,76.0
1356,239.25748219791663,239.46054728124997,60.0,77.0
1357,239.25748219791663,239.46437869791663,64.0,89.0
1358,238.33794219791665,239.48736719791663,48.0,79.0
1359,239.25748219791663,239.5314284895833,67.0,77.0
1360,239.48736719791663,239.5946468645833,55.0,78.0
1361,239.71725219791665,239.82070044791664,48.0,82.0
1362,239.94713719791665,240.0946467395833,62.0,77.0
1363,240.17702219791664,240.28238615624997,38.0,77.0
1364,240.17702219791664,240.33411028124996,62.0,74.0
1365,240.17702219791664,240.47012557291663,66.0,76.0
1366,240.17702219791664,240.51035544791665,69.0,75.0
1367,240.40690719791664,240.5429224895833,62.0,68.0
1368,240.63679219791663,240.92989557291665,66.0,56.0
1369,240.86667719791663,240.9394741145833,62.0,73.0
1370,241.09656219791663,241.2268303645833,62.0,79.0
1371,241.09656219791663,241.27089165624997,50.0,78.0
1372,241.09656219791663,241.3475199895833,74.0,76.0
1373,241.09656219791663,241.3532671145833,57.0,76.0
1374,241.09656219791663,241.35518282291665,66.0,79.0
1375,241.32644719791665,241.46437819791663,50.0,55.0
1376,241.55633219791665,241.7498187395833,66.0,76.0
1377,241.78621719791664,241.90690682291665,62.0,77.0
1378,242.01610219791664,242.1751059895833,62.0,76.0
1379,242.01610219791664,242.28046994791663,67.0,75.0
1380,242.47587219791663,242.63679169791664,62.0,78.0
1381,242.70575719791663,242.8015426145833,67.0,77.0
1382,242.24598719791663,243.03909044791664,50.0,70.0
1383,242.93564219791665,243.06782607291663,62.0,80.0
1384,242.93564219791665,243.13104444791665,67.0,86.0
1385,242.93564219791665,243.23640840624998,71.0,86.0
1386,242.01610219791664,243.28046969791663,43.0,76.0
1387,243.16552719791665,243.3015424895833,50.0,77.0
1388,243.39541219791664,243.66744278124997,62.0,77.0
1389,243.62529719791664,243.76514390625,67.0,70.0
1390,243.85518219791663,244.0429216145833,64.0,76.0
1391,243.85518219791663,244.07932007291663,67.0,76.0
1392,244.31495219791663,244.36859203125,64.0,61.0
1393,244.54483719791665,244.63870690624998,64.0,76.0
1394,244.54483719791665,244.64828544791663,67.0,79.0
1395,244.54483719791665,244.65020115624998,71.0,79.0
1396,244.08506719791663,244.78046932291664,47.0,76.0
1397,244.77472219791665,245.02184857291664,64.0,82.0
1398,244.77472219791665,245.0314271145833,67.0,92.0
1399,244.77472219791665,245.08889836458332,71.0,92.0
1400,243.85518219791663,245.12146540624997,40.0,77.0
1401,245.00460719791664,245.20767228124998,47.0,79.0
1402,245.23449219791664,245.36284465624996,64.0,80.0
1403,245.23449219791664,245.38583315625,69.0,80.0
1404,245.46437719791663,245.5946453645833,67.0,68.0
1405,245.69426219791663,245.81686753124998,64.0,73.0
1406,245.69426219791663,245.82261465624998,69.0,69.0
1407,246.15403219791665,246.2440704895833,57.0,67.0
1408,246.38391719791665,246.4567141145833,60.0,75.0
1409,245.92414719791662,246.65977919791663,52.0,63.0
1410,246.61380219791664,246.8245301145833,57.0,74.0
1411,246.61380219791664,246.8245301145833,60.0,80.0
1412,246.61380219791664,246.8590128645833,64.0,82.0
1413,247.07357219791663,247.35134990624996,57.0,77.0
1414,246.84368719791664,247.38583265625,52.0,76.0
1415,245.69426219791663,247.39157978124996,45.0,76.0
1416,247.30345719791663,247.44521961458332,60.0,75.0
1417,247.53334219791662,247.65403182291664,57.0,77.0
1418,247.53334219791662,247.7268287395833,62.0,80.0
1419,247.76322719791665,247.90307390624997,57.0,73.0
1420,247.99311219791664,248.08698190624997,62.0,66.0
1421,248.22299719791664,248.30920407291666,57.0,75.0
1422,247.53334219791662,248.53908907291662,50.0,80.0
1423,248.45288219791664,248.69809286458332,62.0,91.0
1424,248.45288219791664,248.70958711458331,57.0,78.0
1425,248.45288219791664,248.7325756145833,66.0,86.0
1426,248.68276719791663,248.76897407291665,50.0,77.0
1427,248.91265219791666,249.07740311458332,57.0,78.0
1428,249.25556398958332,249.48353328124998,52.0,67.0
1429,249.31303523958331,249.8877477395833,55.0,69.0
1430,249.4107363645833,249.91073623958331,64.0,76.0
1431,249.37433790625,249.93755615624997,59.0,70.0
1432,250.10805419791666,250.22491240624998,52.0,61.0
1433,250.3187821145833,250.75364790624997,59.0,72.0
1434,250.5314257395833,250.79196207291665,52.0,71.0
1435,250.7957934895833,250.93180878124997,55.0,65.0
1436,249.86667494791664,251.05249840624998,47.0,53.0
1437,249.37242219791665,251.2038393645833,40.0,78.0
1438,251.08889686458332,251.2268278645833,59.0,58.0
1439,251.42031440625,251.64445228124998,52.0,64.0
1440,251.36284315624997,251.70767065624997,64.0,63.0
1441,251.71724919791666,252.23065903124996,47.0,59.0
1442,251.37816882291665,252.32644444791663,40.0,65.0
1443,252.04483532291664,252.62529494791664,52.0,60.0
1444,252.5716551145833,252.7440688645833,55.0,44.0
1445,253.6463674895833,253.94713369791663,57.0,65.0
1446,253.75173144791665,253.9739536145833,60.0,66.0
1447,253.8417697395833,253.98353215624996,64.0,64.0
1448,253.92989232291666,254.10230607291663,69.0,73.0
1449,254.38008378124997,254.75364690624997,64.0,58.0
1450,253.51609932291663,254.9567119895833,52.0,72.0
1451,254.80537103125,254.9682062395833,57.0,58.0
1452,253.33219132291663,255.01035182291665,45.0,79.0
1453,255.43755478124996,255.71724819791663,57.0,61.0
1454,255.4969417395833,256.30537065625,62.0,69.0
1455,255.49885744791663,256.37816757291665,38.0,79.0
1456,255.5716543645833,256.5026886145833,66.0,66.0
1457,259.38582965625,259.5429177395833,52.0,69.0
1458,259.56399053125,259.67893303125,54.0,56.0
1459,259.70575294791666,259.93755365625,55.0,67.0
1460,259.87816669791664,260.0888946145833,59.0,69.0
1461,260.0275919479166,260.36092519791663,64.0,79.0
1462,260.1827643229166,260.3839136979166,55.0,71.0
1463,260.3302738645833,260.52950753125,59.0,71.0
1464,260.5084347395833,260.71149982291666,55.0,67.0
1465,260.70192128124995,260.95862619791666,64.0,77.0
1466,260.8590093645833,261.06399015625,55.0,65.0
1467,259.16169178125,261.1885111979166,47.0,62.0
1468,258.72874169791663,261.2613081145833,40.0,77.0
1469,261.04674878124996,261.3245264895833,59.0,63.0
1470,261.24215103125,261.38582915625,55.0,55.0
1471,261.40690194791665,261.7038367395833,64.0,67.0
1472,262.4739514895833,263.01609694791665,60.0,48.0
1473,262.5314227395833,263.0486639895833,64.0,67.0
1474,262.2287408229166,263.0601582395833,48.0,76.0
1475,262.63678669791665,263.0773996145833,67.0,61.0
1476,262.40115457291665,263.18276357291666,55.0,73.0
1477,262.69042653124995,263.24406623958333,72.0,70.0
1478,263.6252921979166,264.25364453124996,57.0,64.0
1479,263.48736119791664,264.3532613645833,50.0,72.0
1480,263.6406178645833,264.3954069479166,62.0,61.0
1481,263.70000482291664,264.4337211145833,66.0,64.0
1482,263.81303161458334,264.4796981145833,69.0,60.0
1483,263.87433428124996,264.5103494479166,74.0,69.0
1484,264.98161369791666,265.15019603124995,40.0,77.0
1485,264.90690107291664,265.74023419791666,64.0,64.0
1486,264.9911922395833,265.74598132291663,68.0,63.0
1487,265.4586250729166,265.86667094791665,52.0,76.0
1488,265.06398915625,265.89157515625,76.0,71.0
1489,265.7095828645833,265.90881653124995,59.0,71.0
1490,265.8934908645833,266.06015748958333,64.0,75.0
1491,266.07548315624996,266.22299269791665,76.0,78.0
1492,266.22682411458334,266.32644094791664,64.0,79.0
1493,266.77088528125,266.96437182291663,76.0,74.0
1494,266.94329903125,267.13103844791664,83.0,71.0
1495,267.1061342395833,267.29387365624996,76.0,77.0
1496,267.28812653125,267.50077015625,88.0,75.0
1497,267.48736019791664,267.75747507291663,76.0,73.0
1498,267.98352865625,268.34942894791664,76.0,64.0
1499,267.72490803125,268.37816457291666,83.0,63.0
1500,266.3992378645833,268.4911913645833,64.0,84.0
1501,268.32260903124995,268.5084327395833,88.0,23.0
1502,266.59847153124997,268.55632544791666,71.0,70.0
1503,268.79387328124994,269.7555588645833,64.0,56.0
1504,269.00460119791666,269.8494285729166,71.0,57.0
1505,269.34942869791666,269.95862394791664,88.0,29.0
1506,269.10996515625,269.9739496145833,76.0,61.0
