,start,end,pitch,velocity
0,25.713752625000005,26.077760625000003,63.0,90.0
1,26.055010125000003,26.430393375000005,65.0,84.0
2,26.396267625000004,27.417196312500003,67.0,84.0
3,27.420040125000003,27.769829062500005,70.0,77.0
4,27.761297625000005,28.102555125000006,67.0,87.0
5,28.102555125000006,28.460875500000004,65.0,72.0
6,28.443812625000003,28.782226312500004,63.0,76.0
7,28.785070125000004,29.123483812500005,58.0,66.0
8,29.126327625000005,31.171028812500005,60.0,90.0
9,31.173872625000005,31.527927281250005,63.0,84.0
10,31.515130125000006,31.910420062500005,65.0,67.0
11,31.856387625000004,32.5360588125,67.0,73.0
12,32.538902625000006,32.87731631250001,67.0,84.0
13,32.880160125,33.24843384375001,70.0,66.0
14,33.22141762500001,33.5655189375,67.0,80.0
15,33.562675125000005,33.90108881250001,65.0,66.0
16,33.903932625,34.242346312500004,65.0,77.0
17,34.24519012500001,34.5836038125,63.0,66.0
18,34.586447625000005,36.63114881250001,65.0,87.0
19,36.633992625000005,36.972406312500006,65.0,83.0
20,36.975250125,37.3136638125,67.0,79.0
21,37.31650762500001,37.996178812500006,63.0,79.0
22,37.99902262500001,38.34596775000001,65.0,66.0
23,38.34028012500001,38.67869381250001,63.0,66.0
24,38.681537625000004,39.3612088125,60.0,60.0
25,39.36405262500001,39.70246631250001,60.0,87.0
26,39.705310125000004,40.04656762500001,58.0,66.0
27,40.04656762500001,40.3849813125,67.0,84.0
28,40.387825125000006,40.72623881250001,70.0,59.0
29,40.729082625000004,41.067496312500005,72.0,75.0
30,41.07034012500001,41.40875381250001,70.0,74.0
31,41.411597625000006,42.091268812500005,67.0,85.0
32,42.09411262500001,42.43252631250001,60.0,85.0
33,42.435370125000006,42.77378381250001,67.0,91.0
34,42.776627625,43.45487690625001,65.0,91.0
35,43.459142625000005,43.79755631250001,65.0,87.0
36,43.800400125,44.155876687500005,63.0,79.0
37,44.14165762500001,44.821328812500006,65.0,91.0
38,44.82417262500001,45.162586312500004,63.0,87.0
39,45.16543012500001,45.54223528125001,67.0,97.0
40,45.506687625000005,47.55138881250001,65.0,97.0
41,47.554232625000004,47.892646312500005,63.0,63.0
42,47.89549012500001,48.23390381250001,65.0,72.0
43,48.23674762500001,48.916418812500005,67.0,86.0
44,48.91926262500001,49.25767631250001,67.0,93.0
45,49.260520125000006,49.59893381250001,70.0,85.0
46,49.601777625000004,49.95298846875001,67.0,81.0
47,49.94303512500001,50.299933593750005,65.0,84.0
48,50.284292625000006,50.62270631250001,63.0,82.0
49,50.62555012500001,50.963963812500005,58.0,72.0
50,50.96680762500001,53.01150881250001,60.0,95.0
51,53.01435262500001,53.35276631250001,63.0,90.0
52,53.355610125000005,53.71108668750001,65.0,84.0
53,53.69686762500001,54.717796312500006,67.0,93.0
54,54.72064012500001,55.05905381250001,70.0,93.0
55,55.06189762500001,55.408842750000005,67.0,93.0
56,55.403155125000005,55.74014690625001,65.0,90.0
57,55.74441262500001,56.08282631250001,65.0,92.0
58,56.08567012500001,56.44114668750001,63.0,89.0
59,56.42692762500001,58.470206906250006,65.0,97.0
60,58.47447262500001,58.812886312500005,65.0,79.0
61,58.81573012500001,59.15414381250001,67.0,73.0
62,59.156987625000006,59.83665881250001,63.0,73.0
63,59.83950262500001,60.17791631250001,65.0,87.0
64,60.180760125000006,60.59880056250001,63.0,66.0
65,60.52201762500001,61.20026690625001,60.0,68.0
66,61.204532625000006,61.54294631250001,60.0,74.0
67,61.54579012500001,61.88420381250001,58.0,66.0
68,61.88704762500001,62.23257084375001,67.0,67.0
69,62.228305125000006,62.56671881250001,70.0,57.0
70,62.56956262500001,62.94778968750001,72.0,64.0
71,62.91082012500001,63.24923381250001,70.0,73.0
72,63.25207762500001,63.93174881250001,67.0,84.0
73,63.93459262500001,64.27300631250002,60.0,73.0
74,64.275850125,64.61426381250001,67.0,62.0
75,64.617107625,65.29677881250001,65.0,72.0
76,65.29962262500001,65.657943,65.0,83.0
77,65.64088012500001,66.00346621875,63.0,56.0
78,65.98213762500001,66.31912940625001,60.0,52.0
79,66.323395125,66.68598121875002,60.0,52.0
80,66.66465262500002,67.01301965625001,58.0,54.0
81,67.00591012500001,67.36565240625,60.0,52.0
82,67.34716762500001,69.39186881250001,63.0,60.0
83,69.39471262500001,69.7331263125,67.0,87.0
84,69.73597012500001,70.07438381250002,70.0,84.0
85,70.077227625,70.41421940625001,72.0,97.0
86,70.418485125,70.75547690625001,72.0,94.0
87,70.75974262500002,71.09815631250001,72.0,92.0
88,71.10100012500001,71.44652334375002,70.0,77.0
89,71.44225762500001,72.12050690625001,72.0,87.0
90,72.124772625,72.46318631250001,72.0,93.0
91,72.46603012500002,72.80444381250001,67.0,80.0
92,72.80728762500001,73.14427940625,70.0,85.0
93,73.14854512500001,73.4869588125,70.0,84.0
94,73.48980262500001,73.8282163125,72.0,96.0
95,73.83106012500001,74.17089571875002,70.0,87.0
96,74.172317625,74.85056690625001,67.0,95.0
97,74.85483262500001,75.19324631250001,67.0,83.0
98,75.19609012500001,75.5345038125,70.0,72.0
99,75.53734762500001,75.87433940625002,72.0,87.0
100,75.878605125,76.21559690625001,72.0,93.0
101,76.219862625,76.56538584375001,72.0,95.0
102,76.56112012500002,76.92655003125002,70.0,90.0
103,76.90237762500001,77.58062690625002,72.0,99.0
104,77.58489262500001,77.92330631250002,72.0,91.0
105,77.926150125,78.26456381250001,67.0,82.0
106,78.26740762500002,80.31210881250001,70.0,95.0
107,80.31495262500002,80.65336631250001,67.0,85.0
108,80.65621012500002,81.00173334375002,70.0,79.0
109,80.99746762500001,81.33445940625,72.0,85.0
110,81.33872512500001,81.67571690625002,72.0,87.0
111,81.67998262500001,82.01839631250002,72.0,93.0
112,82.021240125,82.41084243750001,70.0,90.0
113,82.36249762500002,83.04074690625,72.0,91.0
114,83.04501262500001,83.3834263125,72.0,96.0
115,83.38627012500001,83.72468381250002,67.0,66.0
116,83.72752762500001,84.06451940625001,70.0,86.0
117,84.06878512500002,84.40719881250001,70.0,90.0
118,84.41004262500002,84.74845631250001,72.0,95.0
119,84.75130012500001,85.08971381250001,70.0,93.0
120,85.09255762500001,85.77222881250002,67.0,95.0
121,85.775072625,86.13481490625001,60.0,66.0
122,86.11633012500002,86.45474381250001,67.0,72.0
123,86.45758762500002,87.13583690625,65.0,82.0
124,87.14010262500001,87.47851631250002,65.0,86.0
125,87.48136012500001,87.82688334375001,63.0,63.0
126,87.822617625,88.15960940625001,60.0,64.0
127,88.16387512500002,88.50228881250001,60.0,64.0
128,88.50513262500002,88.84212440625001,58.0,66.0
129,88.84639012500001,89.18480381250001,58.0,56.0
130,89.18764762500001,90.96503043750002,60.0,68.0
131,91.23519262500001,91.54801200000001,63.0,90.0
132,91.57645012500001,91.90206665625001,65.0,84.0
133,91.91770762500002,92.88744768750001,67.0,84.0
134,92.94148012500001,93.24008043750001,70.0,77.0
135,93.28273762500001,93.57422840625001,67.0,87.0
136,93.62399512500001,93.93112687500002,65.0,72.0
137,93.96525262500002,94.25247768750002,63.0,76.0
138,94.30651012500002,94.59373518750002,58.0,66.0
139,94.64776762500001,96.64128018750002,60.0,90.0
140,96.69531262500001,96.99817865625002,63.0,84.0
141,97.03657012500001,97.38209334375001,65.0,67.0
142,97.37782762500001,98.00488828125002,67.0,73.0
143,98.06034262500002,98.34756768750002,67.0,84.0
144,98.40160012500002,98.71868521875001,70.0,66.0
145,98.74285762500001,99.03577031250002,67.0,80.0
146,99.08411512500001,99.36991828125001,65.0,66.0
147,99.42537262500001,99.71259768750001,65.0,77.0
148,99.76663012500002,100.05385518750002,63.0,66.0
149,100.10788762500002,102.09997828125002,65.0,87.0
150,102.15543262500002,102.44265768750002,65.0,83.0
151,102.49669012500001,102.78391518750001,67.0,79.0
152,102.83794762500001,103.46643018750001,63.0,79.0
153,103.52046262500002,103.81621912500002,65.0,66.0
154,103.86172012500002,104.15036709375002,63.0,66.0
155,104.20297762500002,104.83003828125001,60.0,60.0
156,104.88549262500001,105.17271768750001,60.0,87.0
157,105.22675012500001,105.51824090625001,58.0,66.0
158,105.56800762500002,105.85523268750002,67.0,84.0
159,105.90926512500002,106.19649018750002,70.0,59.0
160,106.25052262500002,106.53774768750002,72.0,75.0
161,106.59178012500001,106.87900518750001,70.0,74.0
162,106.93303762500001,107.56152018750002,67.0,85.0
163,107.61555262500002,107.90277768750002,60.0,85.0
164,107.95681012500002,108.24403518750002,67.0,91.0
165,108.29806762500002,108.92512828125001,65.0,91.0
166,108.98058262500001,109.26780768750001,65.0,87.0
167,109.32184012500002,109.62754996875002,63.0,79.0
168,109.66309762500002,110.29158018750002,60.0,91.0
169,110.34561262500002,110.63283768750001,58.0,87.0
170,110.68687012500001,111.01390856250002,60.0,97.0
171,111.02812762500001,113.02164018750001,63.0,97.0
172,134.91615262500002,135.22897200000003,63.0,90.0
173,135.257410125,135.58302665625,65.0,84.0
174,135.59866762500002,136.5684076875,67.0,84.0
175,136.62244012500003,136.9210404375,70.0,77.0
176,136.963697625,137.25518840625003,67.0,87.0
177,137.30495512500002,137.61208687500002,65.0,72.0
178,137.64621262500003,137.93343768750003,63.0,76.0
179,137.98747012500002,138.27469518750001,58.0,66.0
180,138.32872762500003,140.32224018750003,60.0,90.0
181,140.376272625,140.67913865625002,63.0,84.0
182,140.71753012500002,141.06305334375003,65.0,67.0
183,141.058787625,141.68584828125003,67.0,73.0
184,141.74130262500003,142.02852768750003,67.0,84.0
185,142.08256012500001,142.39964521875,70.0,66.0
186,142.42381762500003,142.71673031250003,67.0,80.0
187,142.765075125,143.05087828125002,65.0,66.0
188,143.10633262500002,143.39355768750002,65.0,77.0
189,143.44759012500003,143.73481518750003,63.0,66.0
190,143.78884762500002,145.78093828125003,65.0,87.0
191,145.83639262500003,146.12361768750003,65.0,83.0
192,146.177650125,146.4648751875,67.0,79.0
193,146.51890762500003,147.1473901875,63.0,79.0
194,147.20142262500002,147.49717912500003,65.0,66.0
195,147.54268012500003,147.83132709375002,63.0,66.0
196,147.88393762500002,148.51099828125,60.0,60.0
197,148.566452625,148.8536776875,60.0,87.0
198,148.90771012500002,149.19920090625,58.0,66.0
199,149.24896762500003,149.53619268750003,67.0,84.0
200,149.59022512500002,149.87745018750002,70.0,59.0
201,149.93148262500003,150.21870768750003,72.0,75.0
202,150.272740125,150.5599651875,70.0,74.0
203,150.61399762500002,151.24248018750004,67.0,85.0
204,151.29651262500002,151.58373768750002,60.0,85.0
205,151.63777012500003,151.92499518750003,67.0,91.0
206,151.97902762500001,152.60608828125,65.0,91.0
207,152.661542625,152.9487676875,65.0,87.0
208,153.00280012500002,153.30850996875003,63.0,79.0
209,153.34405762500003,153.97254018750002,60.0,91.0
210,154.02657262500003,154.31379768750003,58.0,87.0
211,154.367830125,154.69486856250003,60.0,97.0
212,154.70908762500002,156.70260018750002,63.0,97.0
213,156.75663262500004,157.09504631250002,67.0,87.0
214,157.09789012500002,157.43630381250003,70.0,84.0
215,157.43914762500003,157.77613940625002,72.0,97.0
216,157.78040512500002,158.11739690625004,72.0,94.0
217,158.12166262500003,158.46007631250004,72.0,92.0
218,158.462920125,158.80844334375,70.0,77.0
219,158.80417762500002,159.48242690625003,72.0,87.0
220,159.48669262500002,159.82510631250003,72.0,93.0
221,159.82795012500003,160.16636381250004,67.0,80.0
222,160.169207625,160.50619940625003,70.0,85.0
223,160.51046512500002,160.84887881250003,70.0,84.0
224,160.85172262500004,161.19013631250002,72.0,96.0
225,161.19298012500002,161.53281571875002,70.0,87.0
226,161.53423762500003,162.21248690625004,67.0,95.0
227,162.21675262500003,162.55516631250003,67.0,83.0
228,162.558010125,162.89642381250002,70.0,72.0
229,162.89926762500002,163.23625940625,72.0,87.0
230,163.24052512500003,163.57751690625003,72.0,93.0
231,163.58178262500002,163.92730584375002,72.0,95.0
232,163.92304012500003,164.28847003125003,70.0,90.0
233,164.264297625,164.94254690625002,72.0,99.0
234,164.94681262500004,165.28522631250001,72.0,91.0
235,165.28807012500002,165.62648381250003,67.0,82.0
236,165.62932762500003,167.6740288125,70.0,95.0
237,167.67687262500002,168.01528631250002,67.0,85.0
238,168.01813012500003,168.36365334375003,70.0,79.0
239,168.359387625,168.69637940625003,72.0,85.0
240,168.70064512500002,169.03763690625001,72.0,87.0
241,169.04190262500003,169.3803163125,72.0,93.0
242,169.38316012500002,169.77276243750003,70.0,90.0
243,169.72441762500003,170.40266690625003,72.0,91.0
244,170.40693262500002,170.74534631250003,72.0,96.0
245,170.74819012500004,171.08660381250002,67.0,66.0
246,171.08944762500002,171.42643940625,70.0,86.0
247,171.43070512500003,171.76911881250004,70.0,90.0
248,171.77196262500001,172.11037631250002,72.0,95.0
249,172.11322012500003,172.45163381250003,70.0,93.0
250,172.45447762500004,173.13414881250003,67.0,95.0
251,173.13699262500003,173.49673490625003,60.0,66.0
252,173.47825012500002,173.81666381250002,67.0,72.0
253,173.81950762500003,174.49775690625003,65.0,82.0
254,174.50202262500002,174.84043631250003,65.0,86.0
255,174.84328012500004,175.18880334375004,63.0,63.0
256,175.18453762500002,175.52152940625004,60.0,64.0
257,175.52579512500003,175.86420881250004,60.0,64.0
258,175.867052625,176.20404440625003,58.0,66.0
259,176.20831012500003,176.54672381250003,58.0,56.0
260,176.54956762500004,178.32695043750002,60.0,68.0
261,178.59711262500002,178.93552631250003,63.0,63.0
262,178.93837012500003,179.2767838125,65.0,72.0
263,179.27962762500002,180.12992756250003,67.0,86.0
264,180.30340012500002,180.64181381250003,70.0,85.0
265,180.64465762500004,180.99586846875002,67.0,81.0
266,180.98591512500002,181.34281359375004,65.0,84.0
267,181.32717262500003,181.66558631250004,63.0,82.0
268,181.66843012500001,182.00684381250002,58.0,72.0
269,182.00968762500003,184.05438881250004,60.0,95.0
270,184.05723262500004,184.39564631250002,63.0,90.0
271,184.39849012500002,184.75396668750003,65.0,84.0
272,184.73974762500004,185.41941881250003,67.0,93.0
273,185.42226262500003,185.76067631250004,67.0,93.0
274,185.763520125,186.10193381250002,70.0,93.0
275,186.10477762500003,186.45172275000002,67.0,93.0
276,186.44603512500004,186.78302690625003,65.0,90.0
277,186.78729262500002,187.12570631250003,65.0,92.0
278,187.12855012500003,187.48402668750003,63.0,89.0
279,187.46980762500002,189.51308690625004,65.0,97.0
280,189.51735262500003,189.85576631250004,65.0,79.0
281,189.85861012500004,190.19702381250002,67.0,73.0
282,190.19986762500002,190.87953881250002,63.0,73.0
283,190.88238262500002,191.22079631250003,65.0,87.0
284,191.22364012500003,191.64168056250003,63.0,66.0
285,191.56489762500001,192.24314690625002,60.0,68.0
286,192.24741262500004,192.58582631250002,60.0,74.0
287,192.58867012500002,192.92708381250003,58.0,66.0
288,192.92992762500003,193.27545084375004,67.0,67.0
289,193.27118512500002,193.60959881250002,70.0,57.0
290,193.61244262500003,193.99066968750003,72.0,64.0
291,193.95370012500004,194.29211381250002,70.0,73.0
292,194.29495762500002,194.97462881250001,67.0,84.0
293,194.97747262500002,195.31588631250003,60.0,73.0
294,195.31873012500003,195.65714381250004,67.0,62.0
295,195.65998762500004,196.33823690625002,65.0,72.0
296,196.34250262500004,196.70082300000004,65.0,83.0
297,196.68376012500002,197.04634621875002,63.0,56.0
298,197.02501762500003,197.70468881250002,60.0,52.0
299,197.70753262500003,198.05589965625003,58.0,54.0
300,198.04879012500004,198.40853240625003,60.0,52.0
301,198.39004762500002,200.43474881250003,63.0,60.0
302,200.43759262500004,200.79164728125002,67.0,87.0
303,200.77885012500002,201.13290478125003,70.0,84.0
304,201.12010762500003,201.45852131250004,72.0,97.0
305,201.46136512500004,201.79977881250002,72.0,94.0
306,201.80262262500003,202.15667728125004,72.0,92.0
307,202.14388012500004,202.50504431250002,70.0,77.0
308,202.48513762500002,203.16480881250004,72.0,87.0
309,203.16765262500002,203.52170728125003,72.0,93.0
310,203.50891012500003,203.86296478125004,67.0,80.0
311,203.85016762500004,204.18858131250002,70.0,85.0
312,204.19142512500002,204.54547978125004,70.0,84.0
313,204.53268262500004,204.88673728125002,72.0,96.0
314,204.87394012500002,205.22941668750002,70.0,87.0
315,205.21519762500003,205.89486881250002,67.0,95.0
316,205.89771262500003,206.25176728125004,67.0,83.0
317,206.23897012500004,206.59302478125002,70.0,72.0
318,206.58022762500002,206.91864131250003,72.0,87.0
319,206.92148512500003,207.25989881250004,72.0,93.0
320,207.26274262500004,207.62390681250002,72.0,95.0
321,207.60400012500003,207.98507100000003,70.0,90.0
322,207.94525762500004,208.63914787500002,72.0,99.0
323,208.62777262500003,208.63914787500002,72.0,91.0
324,208.96903012500002,209.32308478125003,67.0,82.0
325,209.31028762500003,211.37062978125005,70.0,95.0
326,211.35783262500004,211.71188728125003,67.0,85.0
327,211.69909012500003,212.05883240625002,70.0,79.0
328,212.04034762500004,212.37876131250002,72.0,85.0
329,212.38160512500002,212.73423787500002,72.0,87.0
330,212.72286262500003,212.73423787500002,72.0,93.0
331,213.06412012500004,213.46794150000002,70.0,90.0
332,213.40537762500003,214.08504881250002,72.0,91.0
333,214.08789262500002,214.44194728125004,72.0,96.0
334,214.42915012500004,214.78320478125002,67.0,66.0
335,214.77040762500002,215.10882131250003,70.0,86.0
336,215.11166512500003,215.46571978125004,70.0,90.0
337,215.45292262500004,215.80697728125003,72.0,95.0
338,215.79418012500003,216.14823478125004,70.0,93.0
339,216.13543762500004,216.83074978125003,67.0,95.0
340,216.81795262500003,217.19191396875004,60.0,66.0
341,217.15921012500004,217.51326478125003,67.0,72.0
342,217.50046762500003,218.18013881250002,65.0,82.0
343,218.18298262500002,218.53703728125004,65.0,86.0
344,218.52424012500003,218.88540431250004,63.0,63.0
345,218.86549762500005,219.21813037500004,60.0,64.0
346,219.20675512500003,219.21813037500004,60.0,64.0
347,219.54801262500004,219.88642631250002,58.0,66.0
348,219.88927012500002,220.24332478125004,58.0,56.0
349,220.23052762500004,222.02355140625002,60.0,68.0
350,222.27807262500002,222.66198731250003,63.0,63.0
351,222.61933012500003,222.95774381250004,65.0,72.0
352,222.96058762500004,223.98151631250002,67.0,86.0
353,223.98436012500002,224.36827481250003,70.0,85.0
354,224.32561762500004,224.72232946875005,67.0,81.0
355,224.66687512500005,225.06927459375004,65.0,84.0
356,225.00813262500003,225.39204731250004,63.0,82.0
357,225.34939012500004,225.68780381250002,58.0,72.0
358,225.69064762500003,227.78084981250004,60.0,95.0
359,227.73819262500004,228.12210731250002,63.0,90.0
360,228.07945012500002,228.41786381250003,65.0,84.0
361,228.42070762500003,229.10037881250003,67.0,93.0
362,229.10322262500003,229.48713731250004,67.0,93.0
363,229.44448012500004,229.82839481250002,70.0,93.0
364,229.78573762500002,230.17818375000004,67.0,93.0
365,230.12699512500004,230.46540881250004,65.0,90.0
366,230.46825262500005,230.85216731250003,65.0,92.0
367,230.80951012500003,231.21048768750003,63.0,89.0
368,231.15076762500004,233.19546881250002,65.0,97.0
369,233.19831262500003,233.58222731250004,65.0,79.0
370,233.53957012500004,233.92348481250002,67.0,73.0
371,233.88082762500002,234.60599981250004,63.0,73.0
372,234.56334262500005,234.94725731250003,65.0,87.0
373,234.90460012500003,235.36814156250003,63.0,66.0
374,235.24585762500004,235.92552881250003,60.0,68.0
375,235.92837262500004,236.31228731250005,60.0,74.0
376,236.26963012500005,236.65354481250003,58.0,66.0
377,236.61088762500003,237.00048993750005,67.0,67.0
378,236.95214512500004,237.33605981250003,70.0,96.0
379,237.29340262500003,237.71713068750003,72.0,64.0
380,237.63466012500004,238.01857481250005,70.0,73.0
381,237.97591762500002,238.70108981250004,67.0,84.0
382,238.65843262500005,239.04234731250003,60.0,73.0
383,238.99969012500003,239.38360481250004,67.0,62.0
384,239.34094762500004,240.02061881250003,65.0,72.0
385,240.02346262500004,240.42728400000004,65.0,83.0
386,240.36472012500005,240.77280721875005,63.0,56.0
387,240.70597762500003,241.04439131250004,60.0,52.0
388,241.04723512500004,241.45532221875004,60.0,52.0
389,241.38849262500003,241.78236065625003,58.0,54.0
390,241.72975012500004,242.13499340625003,60.0,52.0
391,242.07100762500005,244.16120981250003,63.0,60.0
