,start,end,pitch,velocity
0,1.8257276250000003,2.4215063437500004,70.0,81.0
1,1.8257276250000003,2.4471006562500004,67.0,75.0
2,1.8257276250000003,2.5964008125,75.0,82.0
3,2.8495001250000005,3.1850700000000005,70.0,76.0
4,2.5082426250000003,3.2248833750000006,63.0,62.0
5,2.8495001250000005,3.2575872187500003,65.0,72.0
6,3.5320151250000005,3.7879582500000004,63.0,57.0
7,3.1907576250000003,3.8178182812500006,67.0,81.0
8,2.1669851250000005,3.9685403437500004,58.0,68.0
9,3.8732726250000007,4.278515906250001,70.0,83.0
10,1.8257276250000003,4.488958031250001,51.0,81.0
11,4.2145301250000005,4.554365718750001,65.0,74.0
12,4.555787625000001,5.006531906250001,63.0,86.0
13,5.238302625000001,5.622217312500001,58.0,58.0
14,4.897045125000001,6.031726312500001,55.0,68.0
15,5.920817625000001,6.353077125000001,60.0,75.0
16,5.579560125,6.380093343750001,63.0,80.0
17,6.262075125000001,6.628926937500001,55.0,73.0
18,4.555787625000001,6.701444156250001,48.0,77.0
19,6.603332625000001,7.1052655312500015,50.0,80.0
20,6.603332625000001,7.120906500000001,58.0,74.0
21,6.603332625000001,7.2076427812500015,65.0,83.0
22,7.2858476250000015,7.6470118125000015,39.0,52.0
23,7.627105125000001,8.016707437500001,51.0,71.0
24,7.2858476250000015,8.126194218750001,58.0,77.0
25,7.2858476250000015,8.27122865625,63.0,82.0
26,7.2858476250000015,8.282603906250001,67.0,78.0
27,8.650877625000001,9.049011375000001,63.0,80.0
28,8.309620125,9.1940458125,58.0,55.0
29,8.992135125,9.283625906250002,65.0,83.0
30,9.333392625000002,9.475583250000001,58.0,77.0
31,7.968362625000001,9.573694781250001,55.0,77.0
32,9.333392625000002,9.651899625000002,67.0,80.0
33,9.674650125000001,9.947656125000002,70.0,82.0
34,10.015907625000002,10.152410625000002,70.0,19.0
35,10.015907625000002,10.571872968750002,62.0,77.0
36,10.015907625000002,10.614530156250002,65.0,84.0
37,11.039680125000002,11.164807875000001,60.0,82.0
38,11.380937625000001,11.474783437500001,62.0,76.0
39,11.380937625000001,11.490424406250002,74.0,84.0
40,11.722195125000002,11.817462843750002,63.0,69.0
41,11.722195125000002,11.835947625000001,75.0,84.0
42,10.698422625000001,11.864385750000002,58.0,60.0
43,12.063452625000002,12.160142250000002,63.0,78.0
44,12.063452625000002,12.192846093750001,75.0,90.0
45,10.015907625000002,12.238347093750003,46.0,79.0
46,10.357165125000002,12.242612812500003,53.0,79.0
47,12.063452625000002,12.517040718750001,58.0,55.0
48,12.404710125000001,12.522728343750002,65.0,56.0
49,12.404710125000001,12.538369312500002,77.0,76.0
50,12.745967625000002,13.041724125000002,79.0,79.0
51,12.745967625000002,13.158320437500002,67.0,68.0
52,13.428482625000003,13.752677250000001,63.0,71.0
53,12.745967625000002,13.990135593750002,51.0,78.0
54,13.769740125000002,14.078293781250002,70.0,75.0
55,13.769740125000002,14.101044281250003,65.0,73.0
56,14.110997625000001,14.732370656250001,67.0,55.0
57,13.087225125000002,14.786403093750002,58.0,72.0
58,14.793512625000002,15.079315781250003,65.0,76.0
59,14.793512625000002,15.458964750000002,70.0,79.0
60,14.793512625000002,15.470340000000002,50.0,81.0
61,15.476027625000002,16.0305710625,67.0,82.0
62,15.476027625000002,16.073228250000003,63.0,82.0
63,16.158542625000003,16.506909656250002,60.0,58.0
64,16.499800125000004,17.00173303125,67.0,80.0
65,16.499800125000004,17.085625500000003,63.0,82.0
66,17.182315125000002,17.51077546875,62.0,62.0
67,17.182315125000002,17.62737178125,65.0,69.0
68,15.817285125000001,17.675716593750003,55.0,69.0
69,16.841057625,17.72121759375,60.0,45.0
70,17.523572625000003,17.880471093750003,63.0,83.0
71,17.523572625000003,17.900377781250004,67.0,81.0
72,15.476027625000002,17.9814264375,48.0,80.0
73,17.864830125,18.187602843750003,55.0,77.0
74,18.206087625000002,18.777693937500004,68.0,83.0
75,18.206087625000002,18.797600625,60.0,75.0
76,18.206087625000002,18.799022531250003,65.0,82.0
77,18.888602625000004,19.0108865625,68.0,50.0
78,18.206087625000002,19.091935218750002,53.0,83.0
79,18.888602625000004,19.1132638125,60.0,71.0
80,18.888602625000004,19.16303053125,65.0,80.0
81,19.571117625000003,19.77729403125,58.0,62.0
82,19.571117625000003,19.949344687500002,62.0,79.0
83,19.571117625000003,19.960719937500002,65.0,84.0
84,19.571117625000003,19.960719937500002,70.0,80.0
85,19.912375125000004,20.267851687500002,58.0,25.0
86,19.571117625000003,20.388713718750004,46.0,82.0
87,20.253632625,20.476871906250004,62.0,78.0
88,20.253632625,20.50531003125,70.0,77.0
89,20.253632625,20.599155843750005,65.0,80.0
90,20.936147625000004,21.355609968750002,63.0,84.0
91,20.936147625000004,21.359875687500004,58.0,75.0
92,21.277405125000005,22.036703062500003,51.0,62.0
93,21.618662625000002,22.067985000000004,65.0,73.0
94,21.618662625000002,22.441946343750004,58.0,57.0
95,21.959920125000004,22.444790156250004,67.0,73.0
96,22.642435125000002,23.339169187500005,58.0,57.0
97,22.983692625000003,23.347700625000005,65.0,79.0
98,20.936147625000004,23.3505444375,39.0,90.0
99,22.301177625000005,23.354810156250004,51.0,55.0
100,23.324950125000004,23.653410468750003,67.0,69.0
101,23.324950125000004,23.690380031250005,46.0,60.0
102,23.666207625000002,24.070029000000005,63.0,81.0
103,23.666207625000002,24.104154750000003,58.0,72.0
104,24.348722625000004,24.753965906250002,58.0,62.0
105,24.007465125000003,24.758231625000004,51.0,59.0
106,24.689980125000005,24.999955687500005,65.0,76.0
107,24.860608875000004,25.592890593750003,58.0,52.0
108,25.031237625000003,25.693845937500004,51.0,54.0
109,23.666207625000002,25.719440250000005,39.0,86.0
110,25.031237625000003,25.733659312500002,63.0,73.0
111,25.031237625000003,25.745034562500003,70.0,69.0
112,26.396267625000004,27.125705531250006,70.0,75.0
113,26.396267625000004,27.138502687500004,67.0,58.0
114,26.396267625000004,27.166940812500005,75.0,70.0
115,27.078782625000002,28.007287406250004,63.0,68.0
116,27.420040125000003,28.419640218750004,65.0,63.0
117,27.761297625000005,28.496423156250003,67.0,83.0
118,26.737525125000005,28.547611781250005,58.0,59.0
119,26.396267625000004,28.698333843750003,51.0,73.0
120,28.443812625000003,29.275627781250005,70.0,76.0
121,29.126327625000005,29.918329406250006,63.0,82.0
122,29.808842625000004,30.583781531250004,60.0,71.0
123,30.150100125000005,30.586625343750004,62.0,58.0
124,30.832615125000004,31.107043031250004,60.0,37.0
125,30.491357625000006,31.128371625000003,63.0,79.0
126,29.467585125000003,31.289047031250004,55.0,75.0
127,29.126327625000005,31.299000375000006,48.0,76.0
128,31.173872625000005,31.751166562500003,62.0,73.0
129,31.173872625000005,31.903310531250003,65.0,82.0
130,31.856387625000004,32.122284093750004,63.0,78.0
131,31.856387625000004,32.173472718750006,67.0,77.0
132,32.538902625000006,32.90148871875,65.0,68.0
133,32.538902625000006,33.1901356875,70.0,73.0
134,32.880160125,33.285403406250005,63.0,58.0
135,33.22141762500001,33.717662906250006,67.0,58.0
136,33.562675125000005,33.90251071875001,63.0,56.0
137,32.19764512500001,34.15845384375,58.0,59.0
138,31.856387625000004,34.205376750000006,51.0,54.0
139,33.903932625,34.553743781250006,70.0,60.0
140,34.586447625000005,35.278915968750006,65.0,82.0
141,35.610220125000005,36.035370093750004,60.0,68.0
142,35.951477625,36.07233965625001,62.0,83.0
143,36.29273512500001,36.42070668750001,62.0,51.0
144,34.586447625000005,36.871450968750004,46.0,72.0
145,35.26896262500001,36.871450968750004,58.0,57.0
146,36.633992625000005,36.878560500000006,63.0,82.0
147,34.927705125,36.90131100000001,53.0,73.0
148,36.975250125,37.22834943750001,65.0,75.0
149,37.31650762500001,38.1326818125,67.0,77.0
150,37.31650762500001,38.139791343750005,63.0,77.0
151,37.99902262500001,38.344545843750005,60.0,53.0
152,38.34028012500001,38.52939365625001,62.0,63.0
153,38.34028012500001,38.630349,65.0,71.0
154,37.657765125000005,38.782492968750006,55.0,72.0
155,38.681537625000004,38.9403245625,63.0,77.0
156,38.681537625000004,39.096734250000004,67.0,78.0
157,39.02279512500001,39.53183756250001,55.0,69.0
158,39.36405262500001,39.601510968750006,70.0,77.0
159,39.36405262500001,39.62426146875001,63.0,80.0
160,37.31650762500001,39.676872,48.0,75.0
161,40.04656762500001,40.8172408125,70.0,76.0
162,40.04656762500001,40.841413218750006,67.0,72.0
163,40.04656762500001,40.87696087500001,51.0,84.0
164,40.729082625000004,40.89402375000001,63.0,75.0
165,40.387825125000006,40.92672759375001,58.0,71.0
166,41.07034012500001,41.22390600000001,50.0,86.0
167,41.07034012500001,41.360409000000004,70.0,76.0
168,41.411597625000006,42.180848906250006,63.0,75.0
169,41.411597625000006,42.19364606250001,70.0,54.0
170,41.411597625000006,42.34863384375001,48.0,79.0
171,41.752855125,42.38702531250001,55.0,72.0
172,42.09411262500001,42.445323468750004,60.0,60.0
173,42.776627625,43.23448143750001,65.0,71.0
174,42.776627625,43.34396821875001,72.0,72.0
175,42.776627625,43.513175062500004,68.0,75.0
176,43.11788512500001,44.207065312500006,60.0,50.0
177,43.800400125,44.40755409375001,67.0,68.0
178,43.459142625000005,44.548322812500004,65.0,69.0
179,44.14165762500001,44.615152406250004,68.0,80.0
180,44.482915125000005,44.982004218750006,60.0,53.0
181,42.776627625,45.009020437500006,53.0,71.0
182,44.82417262500001,45.156898687500004,72.0,74.0
183,45.16543012500001,45.31046456250001,75.0,78.0
184,45.506687625000005,46.153654968750004,70.0,72.0
185,45.506687625000005,46.153654968750004,74.0,82.0
186,45.506687625000005,46.210531218750006,65.0,70.0
187,46.18920262500001,46.675494562500006,58.0,60.0
188,46.530460125000005,47.0110644375,60.0,71.0
189,46.87171762500001,47.139036000000004,62.0,83.0
190,46.87171762500001,47.184537000000006,58.0,57.0
191,45.84794512500001,47.24283515625001,53.0,62.0
192,45.506687625000005,47.52863831250001,46.0,71.0
193,47.554232625000004,47.854254843750006,60.0,67.0
194,47.554232625000004,47.87842725000001,65.0,78.0
195,47.554232625000004,48.00497690625001,48.0,72.0
196,47.89549012500001,48.273717187500004,50.0,78.0
197,48.23674762500001,48.68038237500001,67.0,74.0
198,48.23674762500001,48.70739859375001,63.0,77.0
199,48.23674762500001,48.74721196875001,58.0,60.0
200,48.23674762500001,49.13965809375001,51.0,78.0
201,48.91926262500001,49.32734971875001,58.0,57.0
202,49.260520125000006,49.66718531250001,51.0,62.0
203,49.601777625000004,49.98569231250001,58.0,73.0
204,49.601777625000004,50.166274406250004,65.0,80.0
205,48.578005125000004,50.27433928125001,39.0,81.0
206,49.94303512500001,50.53028240625001,51.0,60.0
207,50.284292625000006,50.65256634375001,67.0,83.0
208,50.284292625000006,50.66962921875001,58.0,73.0
209,50.62555012500001,51.04074675000001,70.0,72.0
210,50.96680762500001,51.37631662500001,60.0,58.0
211,50.96680762500001,51.490069125000005,63.0,76.0
212,50.96680762500001,51.629415937500006,67.0,68.0
213,51.99058012500001,52.38871387500001,62.0,73.0
214,51.99058012500001,52.402932937500005,65.0,76.0
215,52.331837625000006,52.40719865625001,63.0,82.0
216,51.64932262500001,52.42994915625001,60.0,63.0
217,52.331837625000006,52.452699656250005,67.0,80.0
218,52.67309512500001,53.07691650000001,60.0,37.0
219,53.01435262500001,53.317218656250006,67.0,72.0
220,50.96680762500001,53.39115778125001,48.0,73.0
221,51.308065125000006,53.428127343750006,55.0,72.0
222,53.01435262500001,53.533348406250006,75.0,83.0
223,53.355610125000005,53.66985140625001,60.0,53.0
224,53.69686762500001,53.797822968750005,65.0,48.0
225,53.69686762500001,54.42630553125001,67.0,57.0
226,53.69686762500001,54.49171321875001,70.0,72.0
227,54.72064012500001,55.00644328125001,70.0,70.0
228,54.03812512500001,55.05905381250001,58.0,72.0
229,54.379382625000005,55.11450815625001,63.0,68.0
230,54.72064012500001,55.148633906250005,65.0,70.0
231,55.06189762500001,55.75436596875001,67.0,78.0
232,55.403155125000005,55.984714781250005,58.0,69.0
233,53.69686762500001,56.01173100000001,51.0,82.0
234,55.74441262500001,56.17098450000001,70.0,78.0
235,56.42692762500001,56.947345312500005,62.0,71.0
236,56.59755637500001,56.964408187500005,70.0,4.0
237,56.08567012500001,56.99569012500001,65.0,72.0
238,56.76818512500001,57.545967843750006,53.0,75.0
239,57.45070012500001,57.59857837500001,60.0,59.0
240,57.45070012500001,57.62986031250001,72.0,52.0
241,57.79195762500001,58.043635031250005,62.0,78.0
242,57.79195762500001,58.13179321875001,74.0,82.0
243,57.10944262500001,58.49722312500001,58.0,56.0
244,58.47447262500001,58.63514803125001,75.0,84.0
245,58.47447262500001,58.68775856250001,63.0,78.0
246,58.13321512500001,58.69060237500001,53.0,40.0
247,56.42692762500001,58.93374834375001,46.0,74.0
248,58.81573012500001,58.94512359375001,58.0,59.0
249,59.156987625000006,59.60773190625001,63.0,82.0
250,59.156987625000006,59.63190431250001,67.0,76.0
251,59.156987625000006,59.63901384375001,60.0,72.0
252,59.156987625000006,60.064163812500006,48.0,75.0
253,59.83950262500001,60.130993406250006,63.0,80.0
254,59.83950262500001,60.15943153125001,60.0,74.0
255,59.83950262500001,60.27318403125001,67.0,79.0
256,60.180760125000006,60.40257750000001,48.0,71.0
257,60.52201762500001,60.94005806250001,63.0,76.0
258,60.52201762500001,60.97560571875001,67.0,63.0
259,60.52201762500001,60.99266859375001,60.0,58.0
260,60.52201762500001,61.35809850000001,48.0,38.0
261,61.204532625000006,61.46331956250001,67.0,76.0
262,61.204532625000006,61.48322625000001,63.0,82.0
263,61.204532625000006,61.49317959375001,60.0,72.0
264,61.54579012500001,61.85149996875001,48.0,73.0
265,61.88704762500001,62.51553018750001,70.0,79.0
266,61.88704762500001,62.57951596875001,67.0,68.0
267,61.88704762500001,62.65203318750001,75.0,83.0
268,61.88704762500001,62.67051796875001,51.0,79.0
269,62.56956262500001,62.710331343750006,63.0,72.0
270,62.228305125000006,62.73876946875001,58.0,73.0
271,62.91082012500001,63.00324403125001,65.0,61.0
272,62.91082012500001,63.008931656250006,70.0,69.0
273,62.91082012500001,63.02315071875001,50.0,81.0
274,63.25207762500001,63.94170215625001,63.0,72.0
275,63.25207762500001,63.99857840625001,67.0,75.0
276,63.25207762500001,64.12654996875001,48.0,81.0
277,63.93459262500001,64.13508140625001,60.0,72.0
278,63.59333512500001,64.1421909375,55.0,75.0
279,64.275850125,64.52610562500001,67.0,32.0
280,64.275850125,64.56165328125,63.0,37.0
281,64.617107625,64.88016028125001,41.0,80.0
282,64.95836512500001,65.37498365625001,53.0,63.0
283,64.617107625,65.42475037500002,68.0,80.0
284,64.617107625,65.66931825,65.0,78.0
285,64.617107625,65.68211540625,60.0,69.0
286,65.29962262500001,65.77596121875001,55.0,68.0
287,65.64088012500001,65.78591456250001,56.0,79.0
288,65.98213762500001,66.32623893750001,70.0,78.0
289,65.98213762500001,66.40870950000001,62.0,76.0
290,65.98213762500001,66.47553909375002,65.0,77.0
291,66.66465262500002,66.86229759375001,68.0,84.0
292,66.66465262500002,66.98600343750002,58.0,67.0
293,66.323395125,66.98742534375,53.0,77.0
294,65.98213762500001,66.99026915625001,46.0,79.0
295,66.66465262500002,67.00306631250001,63.0,83.0
296,66.66465262500002,67.0542549375,60.0,73.0
297,67.34716762500001,67.6628308125,39.0,90.0
298,67.68842512500001,68.06949600000002,51.0,63.0
299,67.34716762500001,68.18467040625,63.0,80.0
300,67.34716762500001,68.2714066875,67.0,81.0
301,68.029682625,68.44630115625002,53.0,79.0
302,67.34716762500001,68.4704735625,58.0,53.0
303,68.370940125,68.48469262500001,55.0,90.0
304,68.71219762500002,68.88424828125001,58.0,73.0
305,68.88282637500001,69.10606565625001,63.0,80.0
306,69.05345512500001,69.20986481250002,65.0,75.0
307,69.224083875,69.44590125,67.0,81.0
308,68.71219762500002,69.47291746875001,51.0,83.0
309,69.39471262500001,69.599467125,70.0,77.0
310,69.56534137500002,69.72886059375001,72.0,76.0
311,69.39471262500001,69.80279971875001,53.0,75.0
312,69.73597012500001,69.93077128125002,74.0,79.0
313,69.90659887500001,69.96489703125,77.0,68.0
314,70.077227625,70.53081571875,67.0,83.0
315,70.077227625,70.56778528125001,75.0,71.0
316,70.077227625,70.69717875,48.0,74.0
317,70.418485125,70.72135115625001,55.0,76.0
318,70.75974262500002,70.95454378125001,67.0,75.0
319,70.75974262500002,71.05407721875001,75.0,86.0
320,70.75974262500002,71.19768975000001,60.0,60.0
321,71.10100012500001,71.25598790625001,65.0,72.0
322,71.10100012500001,71.42519475000002,74.0,83.0
323,71.44225762500001,71.79346846875,75.0,86.0
324,71.44225762500001,71.82759421875001,67.0,78.0
325,71.78351512500001,72.20013365625002,63.0,82.0
326,71.10100012500001,72.21861843750001,62.0,75.0
327,72.124772625,72.39777862500002,67.0,80.0
328,72.46603012500002,72.68215987500001,75.0,82.0
329,72.80728762500001,73.32628340625001,74.0,86.0
330,72.80728762500001,73.35045581250002,70.0,73.0
331,72.80728762500001,73.37178440625001,65.0,76.0
332,73.48980262500001,73.67038471875001,65.0,71.0
333,73.319173875,73.87513921875001,62.0,78.0
334,73.66043137500002,73.8850925625,70.0,79.0
335,73.83106012500001,74.05998703125002,72.0,75.0
336,74.00168887500001,74.11970709375001,74.0,83.0
337,74.172317625,74.51784084375001,62.0,52.0
338,74.172317625,74.58609234375001,75.0,80.0
339,74.51357512500002,74.82212878125002,74.0,82.0
340,73.14854512500001,75.0794938125,58.0,72.0
341,75.19609012500001,75.29704546875001,58.0,69.0
342,72.80728762500001,75.36529696875002,50.0,82.0
343,74.85483262500001,75.45914278125001,70.0,80.0
344,75.53734762500001,76.17293971875002,63.0,79.0
345,75.53734762500001,76.26962934375001,72.0,79.0
346,75.53734762500001,76.30233318750001,67.0,73.0
347,76.56112012500002,76.80568800000002,63.0,72.0
348,76.219862625,76.91801859375,60.0,73.0
349,76.90237762500001,77.04883396875002,67.0,51.0
350,76.90237762500001,77.26922943750002,63.0,82.0
351,76.90237762500001,77.43843628125,72.0,83.0
352,75.878605125,77.52517256250002,55.0,78.0
353,77.58489262500001,77.62044028125001,72.0,56.0
354,77.24363512500001,77.68158225,60.0,63.0
355,77.58489262500001,77.75267756250001,63.0,82.0
356,77.58489262500001,77.83657003125,70.0,82.0
357,75.53734762500001,77.99440162500001,48.0,79.0
358,77.926150125,78.02852737500001,55.0,84.0
359,78.26740762500002,78.60724321875001,43.0,81.0
360,78.60866512500002,79.03950271875001,55.0,68.0
361,78.26740762500002,79.06083131250001,62.0,77.0
362,78.26740762500002,79.31535253125001,67.0,79.0
363,78.26740762500002,79.35800971875001,70.0,80.0
364,79.29118012500001,79.78031587500001,62.0,80.0
365,79.63243762500001,79.94525700000001,67.0,80.0
366,79.973695125,80.31495262500002,74.0,83.0
367,80.31495262500002,80.44434609375001,62.0,80.0
368,78.94992262500001,80.48558137500001,58.0,80.0
369,80.31495262500002,80.76285309375001,75.0,86.0
370,80.65621012500002,80.83110459375001,74.0,80.0
371,80.99746762500001,81.42261759375002,75.0,90.0
372,80.99746762500001,81.42546140625001,72.0,76.0
373,80.99746762500001,81.43825856250001,67.0,76.0
374,82.021240125,82.40373290625001,62.0,83.0
375,82.36249762500002,82.46060915625002,63.0,84.0
376,81.67998262500001,82.78480378125,60.0,81.0
377,82.70375512500001,82.92699440625002,67.0,75.0
378,83.04501262500001,83.08624790625001,67.0,32.0
379,80.99746762500001,83.16587465625001,48.0,80.0
380,81.33872512500001,83.21990709375001,55.0,79.0
381,83.04501262500001,83.25687665625001,60.0,68.0
382,83.04501262500001,83.39053584375002,70.0,82.0
383,83.38627012500001,83.50428834375002,50.0,80.0
384,83.72752762500001,84.48682556250002,75.0,78.0
385,83.72752762500001,84.49109128125001,67.0,71.0
386,83.72752762500001,84.501044625,51.0,82.0
387,84.06878512500002,84.51952940625002,58.0,73.0
388,83.72752762500001,84.51952940625002,70.0,76.0
389,84.75130012500001,84.89633456250002,67.0,58.0
390,84.75130012500001,84.98591465625002,50.0,86.0
391,84.75130012500001,85.07976046875001,74.0,82.0
392,85.09255762500001,85.45798753125001,75.0,86.0
393,85.09255762500001,85.46936278125001,67.0,74.0
394,85.09255762500001,85.90304418750002,48.0,82.0
395,85.775072625,85.92863850000002,60.0,77.0
396,85.43381512500001,85.93148231250001,55.0,79.0
397,85.94570137500001,86.07793865625001,63.0,73.0
398,86.11633012500002,86.30970937500001,65.0,73.0
399,86.28695887500001,86.40639900000001,67.0,80.0
400,86.45758762500002,86.86851853125002,65.0,72.0
401,86.45758762500002,86.89126903125002,68.0,80.0
402,86.45758762500002,86.89126903125002,72.0,76.0
403,86.45758762500002,87.31073137500002,41.0,79.0
404,86.79884512500001,87.43301531250002,53.0,68.0
405,87.14010262500001,87.46856296875,65.0,76.0
406,87.48136012500001,87.80839856250002,70.0,79.0
407,87.822617625,88.10415506250001,44.0,81.0
408,87.822617625,88.11695221875001,63.0,76.0
409,87.822617625,88.17098465625001,56.0,58.0
410,87.822617625,88.35867628125001,68.0,75.0
411,87.822617625,88.43688112500001,72.0,76.0
412,88.50513262500002,88.75823193750001,74.0,90.0
413,88.50513262500002,88.79946721875001,46.0,74.0
414,88.50513262500002,88.83217106250001,70.0,82.0
415,88.50513262500002,88.85207775,65.0,82.0
416,88.50513262500002,88.92886068750002,58.0,71.0
417,89.18764762500001,89.69242434375002,75.0,84.0
418,89.18764762500001,89.75783203125002,67.0,78.0
419,89.87016262500002,90.37778315625002,60.0,69.0
420,90.21142012500002,90.55694334375,62.0,76.0
421,90.55267762500002,90.70339968750001,63.0,81.0
422,90.55267762500002,91.04750100000001,60.0,53.0
423,90.89393512500001,91.37311753125002,67.0,61.0
424,89.18764762500001,91.58071584375001,48.0,80.0
425,91.23519262500001,91.59066918750001,74.0,80.0
426,89.52890512500001,91.68167118750002,55.0,82.0
427,91.57645012500001,91.82386181250001,75.0,80.0
428,91.91770762500002,92.64714553125002,70.0,75.0
429,91.91770762500002,92.65994268750002,67.0,58.0
430,91.91770762500002,92.68838081250001,75.0,70.0
431,92.60022262500001,93.52872740625001,63.0,68.0
432,92.94148012500001,93.94108021875002,65.0,63.0
433,93.28273762500001,94.01786315625002,67.0,83.0
434,92.25896512500002,94.06905178125001,58.0,59.0
435,91.91770762500002,94.21977384375002,51.0,73.0
436,93.96525262500002,94.79706778125,70.0,76.0
437,94.64776762500001,95.43976940625001,63.0,82.0
438,95.33028262500001,96.10522153125001,60.0,71.0
439,95.671540125,96.10806534375001,62.0,58.0
440,96.35405512500002,96.62848303125001,60.0,37.0
441,96.01279762500002,96.64981162500001,63.0,79.0
442,94.98902512500001,96.81048703125002,55.0,75.0
443,94.64776762500001,96.82044037500002,48.0,76.0
444,96.69531262500001,97.27260656250002,62.0,73.0
445,96.69531262500001,97.42475053125001,65.0,82.0
446,97.37782762500001,97.64372409375001,63.0,78.0
447,97.37782762500001,97.69491271875002,67.0,77.0
448,98.06034262500002,98.42292871875001,65.0,68.0
449,98.06034262500002,98.71157568750002,70.0,73.0
450,98.40160012500002,98.80684340625001,63.0,58.0
451,98.74285762500001,99.23910290625001,67.0,58.0
452,99.08411512500001,99.42395071875002,63.0,56.0
453,97.71908512500002,99.67989384375001,58.0,59.0
454,97.37782762500001,99.72681675000001,51.0,54.0
455,99.42537262500001,100.07518378125002,70.0,60.0
456,100.10788762500002,100.80035596875001,65.0,82.0
457,101.13166012500001,101.55681009375002,60.0,68.0
458,101.47291762500001,101.59377965625002,62.0,83.0
459,101.81417512500002,101.91228665625002,63.0,43.0
460,101.81417512500002,101.94214668750001,62.0,51.0
461,100.10788762500002,102.39289096875001,46.0,72.0
462,100.79040262500001,102.39289096875001,58.0,57.0
463,102.15543262500002,102.40000050000002,63.0,82.0
464,100.44914512500002,102.42275100000002,53.0,73.0
465,102.49669012500001,102.74978943750001,65.0,75.0
466,102.83794762500001,103.65412181250001,67.0,77.0
467,102.83794762500001,103.66123134375002,63.0,77.0
468,103.52046262500002,103.86598584375001,60.0,53.0
469,103.86172012500002,104.05083365625002,62.0,63.0
470,103.86172012500002,104.15178900000002,65.0,71.0
471,103.17920512500001,104.30393296875002,55.0,72.0
472,104.20297762500002,104.46176456250002,63.0,77.0
473,104.20297762500002,104.61817425000001,67.0,78.0
474,104.54423512500001,105.05327756250001,55.0,69.0
475,104.88549262500001,105.12295096875002,70.0,77.0
476,104.88549262500001,105.14570146875002,63.0,80.0
477,102.83794762500001,105.19831200000002,48.0,75.0
478,105.56800762500002,106.33868081250002,70.0,76.0
479,105.56800762500002,106.36285321875002,67.0,72.0
480,105.56800762500002,106.39840087500002,51.0,84.0
481,106.25052262500002,106.41546375000001,63.0,75.0
482,105.90926512500002,106.44816759375001,58.0,71.0
483,106.59178012500001,106.74534600000001,50.0,86.0
484,106.59178012500001,106.88184900000002,70.0,76.0
485,106.93303762500001,107.70228890625002,63.0,75.0
486,106.93303762500001,107.71508606250002,70.0,54.0
487,106.93303762500001,107.87007384375002,48.0,79.0
488,107.27429512500001,107.90846531250001,55.0,72.0
489,107.61555262500002,107.96676346875002,60.0,60.0
490,108.29806762500002,108.75592143750002,65.0,71.0
491,108.29806762500002,108.86540821875002,72.0,72.0
492,108.29806762500002,109.03461506250001,68.0,75.0
493,108.63932512500001,109.72850531250002,60.0,50.0
494,109.32184012500002,109.92899409375002,67.0,68.0
495,108.98058262500001,110.06976281250002,65.0,69.0
496,109.66309762500002,110.13659240625002,68.0,80.0
497,110.00435512500002,110.50344421875002,60.0,53.0
498,108.29806762500002,110.53046043750001,53.0,71.0
499,110.34561262500002,110.67833868750002,72.0,74.0
500,110.68687012500001,110.83190456250001,75.0,78.0
501,111.02812762500001,111.74334646875002,75.0,82.0
502,111.02812762500001,111.75614362500002,67.0,69.0
503,111.02812762500001,111.75756553125002,70.0,80.0
504,112.05190012500002,112.22537268750001,65.0,74.0
505,111.71064262500002,112.22963840625002,63.0,80.0
506,112.05190012500002,112.26376415625002,77.0,82.0
507,112.39315762500001,112.59506831250002,67.0,71.0
508,112.39315762500001,112.63203787500002,79.0,78.0
509,111.36938512500002,113.10837646875002,58.0,71.0
510,113.07567262500001,113.20364418750002,70.0,73.0
511,113.07567262500001,113.22781659375002,82.0,79.0
512,112.73441512500001,113.22923850000002,63.0,52.0
513,111.02812762500001,113.39133581250002,51.0,79.0
514,113.41693012500002,113.49655687500001,58.0,68.0
515,113.75818762500002,114.35396634375002,70.0,81.0
516,113.75818762500002,114.37956065625002,67.0,75.0
517,113.75818762500002,114.52886081250001,75.0,82.0
518,114.78196012500001,115.11753000000002,70.0,76.0
519,114.44070262500001,115.15734337500001,63.0,62.0
520,114.78196012500001,115.19004721875001,65.0,72.0
521,115.46447512500002,115.72041825000002,63.0,57.0
522,115.12321762500002,115.75027828125002,67.0,81.0
523,114.09944512500002,115.90100034375001,58.0,68.0
524,115.80573262500002,116.21097590625001,70.0,83.0
525,113.75818762500002,116.42141803125001,51.0,81.0
526,116.14699012500002,116.48682571875001,65.0,74.0
527,116.48824762500001,116.93899190625002,63.0,86.0
528,117.17076262500002,117.55467731250002,58.0,58.0
529,116.82950512500001,117.96418631250002,55.0,68.0
530,117.85327762500002,118.28553712500002,60.0,75.0
531,117.51202012500002,118.31255334375001,63.0,80.0
532,118.19453512500002,118.56138693750002,55.0,73.0
533,116.48824762500001,118.63390415625001,48.0,77.0
534,118.53579262500001,119.03772553125002,50.0,80.0
535,118.53579262500001,119.05336650000002,58.0,74.0
536,118.53579262500001,119.14010278125002,65.0,83.0
537,119.21830762500002,119.57947181250002,39.0,52.0
538,119.55956512500002,119.94916743750002,51.0,71.0
539,119.21830762500002,120.05865421875002,58.0,77.0
540,119.21830762500002,120.20368865625002,63.0,82.0
541,119.21830762500002,120.21506390625002,67.0,78.0
542,120.58333762500001,120.98147137500001,63.0,80.0
543,120.24208012500002,121.12650581250001,58.0,55.0
544,120.92459512500002,121.21608590625002,65.0,83.0
545,121.26585262500002,121.40804325000002,58.0,77.0
546,119.90082262500002,121.50615478125002,55.0,77.0
547,121.26585262500002,121.58435962500002,67.0,80.0
548,121.60711012500002,121.88011612500001,70.0,82.0
549,121.94836762500002,122.08487062500002,70.0,19.0
550,121.94836762500002,122.50433296875002,62.0,77.0
551,121.94836762500002,122.54699015625002,65.0,84.0
552,122.97214012500002,123.09726787500001,60.0,82.0
553,123.31339762500002,123.40724343750001,62.0,76.0
554,123.31339762500002,123.42288440625002,74.0,84.0
555,123.65465512500002,123.74992284375001,63.0,69.0
556,123.65465512500002,123.76840762500002,75.0,84.0
557,122.63088262500001,123.79684575000002,58.0,60.0
558,123.99591262500002,124.09260225000001,65.0,78.0
559,123.99591262500002,124.12530609375001,77.0,90.0
560,121.94836762500002,124.17080709375001,46.0,79.0
561,122.28962512500001,124.17507281250002,53.0,79.0
562,123.99591262500002,124.44950071875002,58.0,55.0
563,124.33717012500001,124.45518834375002,67.0,56.0
564,124.33717012500001,124.47082931250002,79.0,76.0
565,124.67842762500001,124.97418412500002,82.0,79.0
566,124.67842762500001,125.09078043750002,70.0,68.0
567,125.36094262500002,125.68513725000003,63.0,71.0
568,124.67842762500001,125.92259559375002,51.0,78.0
569,125.70220012500002,126.01075378125002,70.0,75.0
570,125.70220012500002,126.03350428125002,65.0,73.0
571,126.04345762500002,126.66483065625002,67.0,55.0
572,125.01968512500002,126.71886309375002,58.0,72.0
573,126.72597262500003,127.01177578125002,65.0,76.0
574,126.72597262500003,127.39142475000001,70.0,79.0
575,126.72597262500003,127.40280000000001,50.0,81.0
576,127.40848762500002,127.96303106250002,67.0,82.0
577,127.40848762500002,128.00568825000002,63.0,82.0
578,128.09100262500002,128.43936965625002,60.0,58.0
579,128.43226012500003,128.62990509375,62.0,72.0
580,128.43226012500003,128.93419303125003,67.0,80.0
581,128.43226012500003,129.0180855,63.0,82.0
582,129.11477512500002,129.44323546875003,62.0,62.0
583,129.11477512500002,129.55983178125,65.0,69.0
584,127.74974512500002,129.60817659375002,55.0,69.0
585,128.773517625,129.65367759375002,60.0,45.0
586,129.456032625,129.81293109375002,63.0,83.0
587,129.456032625,129.83283778125002,67.0,81.0
588,127.40848762500002,129.91388643750003,48.0,80.0
589,129.79729012500002,130.12006284375002,55.0,77.0
590,130.13854762500003,130.71015393750002,68.0,83.0
591,130.13854762500003,130.73006062500002,60.0,75.0
592,130.13854762500003,130.73148253125,65.0,82.0
593,130.82106262500002,130.9433465625,68.0,50.0
594,130.13854762500003,131.02439521875002,53.0,83.0
595,130.82106262500002,131.04572381250003,60.0,71.0
596,130.82106262500002,131.09549053125002,65.0,80.0
597,131.50357762500002,131.70975403125001,58.0,62.0
598,131.50357762500002,131.88180468750002,62.0,79.0
599,131.50357762500002,131.8931799375,65.0,84.0
600,131.50357762500002,131.8931799375,70.0,80.0
601,131.84483512500003,132.20031168750003,58.0,25.0
602,131.50357762500002,132.32117371875003,46.0,82.0
603,132.18609262500001,132.40933190625003,62.0,78.0
604,132.18609262500001,132.43777003125,70.0,77.0
605,132.18609262500001,132.53161584375002,65.0,80.0
606,132.868607625,133.28806996875002,63.0,84.0
607,132.868607625,133.2923356875,58.0,75.0
608,133.20986512500002,133.96916306250003,51.0,62.0
609,133.55112262500003,134.000445,65.0,73.0
610,133.55112262500003,134.37440634375002,58.0,57.0
611,133.89238012500002,134.37725015625003,67.0,73.0
612,134.574895125,135.27162918750003,58.0,57.0
613,134.91615262500002,135.280160625,65.0,79.0
614,132.868607625,135.2830044375,39.0,90.0
615,134.23363762500003,135.28727015625003,51.0,55.0
616,135.257410125,135.58587046875002,67.0,69.0
617,135.257410125,135.62284003125,46.0,60.0
618,135.59866762500002,136.32810553125003,70.0,75.0
619,135.59866762500002,136.34090268750003,67.0,58.0
620,135.59866762500002,136.3693408125,75.0,70.0
621,136.281182625,137.20968740625003,63.0,68.0
622,136.62244012500003,137.62204021875002,65.0,63.0
623,136.963697625,137.69882315625003,67.0,83.0
624,135.93992512500003,137.75001178125,58.0,59.0
625,135.59866762500002,137.90073384375003,51.0,73.0
626,137.64621262500003,138.47802778125003,70.0,76.0
627,138.32872762500003,139.12072940625,63.0,82.0
628,139.01124262500002,139.78618153125,60.0,71.0
629,139.35250012500003,139.78902534375,62.0,58.0
630,140.03501512500003,140.30944303125003,60.0,37.0
631,139.69375762500002,140.330771625,63.0,79.0
632,138.669985125,140.49144703125003,55.0,75.0
633,138.32872762500003,140.50140037500003,48.0,76.0
634,140.376272625,140.95356656250001,62.0,73.0
635,140.376272625,141.10571053125003,65.0,82.0
636,141.058787625,141.32468409375002,63.0,78.0
637,141.058787625,141.37587271875003,67.0,77.0
638,141.74130262500003,142.10388871875003,65.0,68.0
639,141.74130262500003,142.39253568750001,70.0,73.0
640,142.08256012500001,142.48780340625,63.0,58.0
641,142.42381762500003,142.92006290625002,67.0,58.0
642,142.765075125,143.10491071875003,63.0,56.0
643,141.40004512500002,143.36085384375002,58.0,59.0
644,141.058787625,143.40777675,51.0,54.0
645,143.10633262500002,143.75614378125002,70.0,60.0
646,143.78884762500002,144.48131596875,65.0,82.0
647,144.81262012500002,145.23777009375002,60.0,68.0
648,145.15387762500004,145.27473965625003,62.0,83.0
649,145.49513512500002,145.6231066875,62.0,51.0
650,143.78884762500002,146.07385096875,46.0,72.0
651,144.471362625,146.07385096875,58.0,57.0
652,145.83639262500003,146.08096050000003,63.0,82.0
653,144.13010512500003,146.10371100000003,53.0,73.0
654,146.177650125,146.43074943750003,65.0,75.0
655,146.51890762500003,147.33508181250002,67.0,77.0
656,146.51890762500003,147.34219134375002,63.0,77.0
657,147.20142262500002,147.54694584375002,60.0,53.0
658,147.54268012500003,147.83274900000004,65.0,71.0
659,146.860165125,147.98489296875002,55.0,72.0
660,147.88393762500002,148.14272456250004,63.0,77.0
661,147.88393762500002,148.29913425,67.0,78.0
662,148.22519512500003,148.73423756250003,55.0,69.0
663,148.566452625,148.80391096875002,70.0,77.0
664,148.566452625,148.82666146875002,63.0,80.0
665,146.51890762500003,148.87927200000001,48.0,75.0
666,149.24896762500003,150.01964081250003,70.0,76.0
667,149.24896762500003,150.04381321875002,67.0,72.0
668,149.24896762500003,150.07936087500002,51.0,84.0
669,149.93148262500003,150.09642375,63.0,75.0
670,149.59022512500002,150.12912759375,58.0,71.0
671,150.272740125,150.426306,50.0,86.0
672,150.272740125,150.56280900000002,70.0,76.0
673,150.61399762500002,151.38324890625003,63.0,75.0
674,150.61399762500002,151.39604606250003,70.0,54.0
675,150.61399762500002,151.55103384375002,48.0,79.0
676,150.95525512500004,151.58942531250003,55.0,72.0
677,151.29651262500002,151.64772346875003,60.0,60.0
678,151.97902762500001,152.43688143750003,65.0,71.0
679,151.97902762500001,152.54636821875002,72.0,72.0
680,151.97902762500001,152.71557506250002,68.0,75.0
681,152.32028512500003,153.40946531250003,60.0,50.0
682,153.00280012500002,153.60995409375002,67.0,68.0
683,152.661542625,153.75072281250002,65.0,69.0
684,153.34405762500003,153.81755240625003,68.0,80.0
685,153.68531512500002,154.18440421875002,60.0,53.0
686,151.97902762500001,154.2114204375,53.0,71.0
687,154.02657262500003,154.35929868750003,72.0,74.0
688,154.367830125,154.51286456250003,75.0,78.0
689,154.70908762500002,155.02759462500003,39.0,80.0
690,155.05034512500004,155.42572837500003,51.0,72.0
691,154.70908762500002,155.51104275000003,58.0,78.0
692,154.70908762500002,155.63901431250002,67.0,79.0
693,156.074117625,156.34285790625003,58.0,81.0
694,155.73286012500003,156.449500875,55.0,80.0
695,156.41537512500003,156.46229803125001,58.0,38.0
696,156.41537512500003,156.70402209375,60.0,84.0
697,155.39160262500002,156.90735468750003,53.0,79.0
698,156.75663262500004,156.96280903125003,55.0,77.0
699,156.75663262500004,157.04385768750004,63.0,84.0
700,157.09789012500002,157.22586168750001,65.0,82.0
701,157.43914762500003,158.11170928125003,67.0,82.0
702,157.43914762500003,158.18707031250003,63.0,83.0
703,158.12166262500003,158.82977193750003,60.0,80.0
704,158.462920125,158.87385103125,62.0,80.0
705,158.462920125,158.88949200000002,65.0,83.0
706,158.80417762500002,158.89233581250002,63.0,84.0
707,158.80417762500002,158.93925871875,67.0,91.0
708,159.14543512500003,159.57342890625003,60.0,62.0
709,157.78040512500002,159.67011853125,55.0,72.0
710,159.48669262500002,159.79524628125003,67.0,79.0
711,157.43914762500003,159.84643490625,48.0,86.0
712,159.82795012500003,159.94312453125002,55.0,78.0
713,159.48669262500002,159.94454643750004,75.0,94.0
714,160.169207625,160.45501078125002,70.0,86.0
715,160.169207625,160.47207365625002,74.0,80.0
716,160.169207625,160.49055843750003,65.0,79.0
717,161.19298012500002,161.32521740625003,58.0,73.0
718,161.19298012500002,161.47593946875003,62.0,75.0
719,161.19298012500002,161.47878328125003,65.0,80.0
720,160.169207625,161.52570618750002,43.0,86.0
721,160.85172262500004,161.65367775,55.0,83.0
722,161.53423762500003,161.77453978125,65.0,82.0
723,161.53423762500003,161.79444646875,62.0,74.0
724,161.53423762500003,161.86127606250002,58.0,80.0
725,162.21675262500003,162.47127384375003,65.0,82.0
726,162.21675262500003,162.47980528125004,58.0,80.0
727,162.21675262500003,162.47980528125004,62.0,78.0
728,162.21675262500003,162.52104056250002,70.0,84.0
729,161.87549512500001,162.60066731250004,43.0,82.0
730,160.51046512500002,162.64190259375002,50.0,78.0
731,162.558010125,162.91206478125002,55.0,84.0
732,162.89926762500002,163.61733028125002,67.0,84.0
733,162.89926762500002,163.70833228125002,63.0,84.0
734,163.58178262500002,164.11215365625003,60.0,80.0
735,163.92304012500003,164.16334228125,62.0,78.0
736,163.92304012500003,164.21026518750003,65.0,83.0
737,164.264297625,164.30411100000003,62.0,72.0
738,164.264297625,164.51028740625003,63.0,86.0
739,164.264297625,164.53872553125004,67.0,86.0
740,163.24052512500003,164.97382884375003,55.0,76.0
741,164.60555512500002,165.060565125,60.0,79.0
742,162.89926762500002,165.18142715625004,48.0,90.0
743,164.94681262500004,165.18711478125002,63.0,93.0
744,164.94681262500004,165.259632,67.0,84.0
745,165.28807012500002,165.39186928125002,55.0,79.0
746,165.62932762500003,166.15685484375,58.0,82.0
747,165.62932762500003,166.24785684375001,62.0,84.0
748,165.62932762500003,166.27487306250003,65.0,84.0
749,166.65310012500004,166.90477753125003,58.0,82.0
750,166.65310012500004,166.92752803125003,70.0,86.0
751,166.31184262500003,167.08535962500002,55.0,83.0
752,166.99435762500002,167.41097615625003,58.0,86.0
753,166.99435762500002,167.46074287500002,67.0,78.0
754,167.33561512500003,167.76929653125003,55.0,79.0
755,165.970585125,167.93565956250004,50.0,82.0
756,167.67687262500002,168.06363112500003,58.0,90.0
757,167.67687262500002,168.08495971875,65.0,83.0
758,168.01813012500003,168.12192928125003,55.0,91.0
759,165.62932762500003,168.12335118750002,43.0,84.0
760,168.359387625,168.81013190625004,63.0,82.0
761,168.359387625,168.83430431250002,67.0,76.0
762,168.359387625,168.84141384375002,60.0,72.0
763,168.359387625,169.26656381250004,48.0,75.0
764,169.04190262500003,169.33339340625002,63.0,80.0
765,169.04190262500003,169.36183153125003,60.0,74.0
766,169.04190262500003,169.47558403125004,67.0,79.0
767,169.38316012500002,169.60497750000002,48.0,71.0
768,169.72441762500003,170.14245806250003,63.0,76.0
769,169.72441762500003,170.17800571875003,67.0,63.0
770,169.72441762500003,170.19506859375002,60.0,58.0
771,169.72441762500003,170.56049850000002,48.0,38.0
772,170.40693262500002,170.66571956250002,67.0,76.0
773,170.40693262500002,170.68562625,63.0,82.0
774,170.40693262500002,170.69557959375,60.0,72.0
775,170.74819012500004,171.05389996875002,48.0,73.0
776,171.08944762500002,171.71793018750003,70.0,79.0
777,171.08944762500002,171.78191596875,67.0,68.0
778,171.08944762500002,171.85443318750004,75.0,83.0
779,171.08944762500002,171.87291796875002,51.0,79.0
780,171.77196262500001,171.91273134375004,63.0,72.0
781,171.43070512500003,171.94116946875002,58.0,73.0
782,172.11322012500003,172.20564403125002,65.0,61.0
783,172.11322012500003,172.21133165625002,70.0,69.0
784,172.11322012500003,172.22555071875001,50.0,81.0
785,172.45447762500004,173.14410215625003,63.0,72.0
786,172.45447762500004,173.20097840625002,67.0,75.0
787,172.45447762500004,173.32894996875004,48.0,81.0
788,173.13699262500003,173.33748140625002,60.0,72.0
789,172.79573512500002,173.34459093750002,55.0,75.0
790,173.47825012500002,173.72850562500003,67.0,32.0
791,173.47825012500002,173.76405328125003,63.0,37.0
792,173.81950762500003,174.20484421875003,68.0,83.0
793,173.81950762500003,174.23328234375003,63.0,84.0
794,173.81950762500003,174.25461093750002,60.0,78.0
795,173.81950762500003,174.56316459375003,41.0,83.0
796,174.160765125,174.77360671875002,53.0,71.0
797,174.50202262500002,174.89589065625003,60.0,81.0
798,174.84328012500004,175.18311571875003,70.0,90.0
799,175.18453762500002,175.39497975000003,44.0,86.0
800,175.18453762500002,175.39924546875002,63.0,83.0
801,175.18453762500002,175.40777690625004,60.0,78.0
802,175.18453762500002,175.41346453125,68.0,86.0
803,175.18453762500002,175.44190265625002,56.0,79.0
804,175.867052625,176.14574625000003,46.0,77.0
805,175.867052625,176.25665493750003,58.0,63.0
806,175.867052625,176.26234256250004,65.0,82.0
807,175.867052625,176.30073403125002,62.0,81.0
808,175.867052625,176.31353118750002,70.0,83.0
809,176.54956762500004,176.86523081250002,39.0,90.0
810,176.89082512500002,177.27189600000003,51.0,63.0
811,176.54956762500004,177.38707040625002,63.0,80.0
812,176.54956762500004,177.47380668750003,67.0,81.0
813,177.23208262500003,177.64870115625,53.0,79.0
814,176.54956762500004,177.67287356250003,58.0,53.0
815,177.57334012500002,177.68709262500002,55.0,90.0
816,177.91459762500003,178.08664828125004,58.0,73.0
817,178.08522637500002,178.30846565625004,63.0,80.0
818,178.25585512500004,178.4122648125,65.0,75.0
819,178.42648387500003,178.64830125000003,67.0,81.0
820,177.91459762500003,178.67531746875002,51.0,83.0
821,178.59711262500002,178.80186712500003,70.0,77.0
822,178.767741375,178.93126059375004,72.0,76.0
823,178.59711262500002,179.00519971875002,53.0,75.0
824,178.93837012500003,179.13317128125001,74.0,79.0
825,179.10899887500003,179.16729703125003,77.0,68.0
826,179.27962762500002,179.95645500000003,67.0,75.0
827,179.27962762500002,180.03750365625004,75.0,86.0
828,180.30340012500002,180.52095178125003,67.0,73.0
829,179.962142625,180.62332903125002,63.0,71.0
830,180.30340012500002,180.65034525000002,74.0,84.0
831,180.64465762500004,180.95321128125002,67.0,78.0
832,180.64465762500004,181.08402665625002,75.0,86.0
833,179.62088512500003,181.23332681250002,58.0,60.0
834,180.98591512500002,181.3129535625,63.0,68.0
835,181.32717262500003,181.63572628125002,65.0,80.0
836,181.66843012500001,181.79924550000004,58.0,75.0
837,179.27962762500002,181.821996,51.0,79.0
838,181.32717262500003,181.97129615625002,70.0,94.0
839,182.00968762500003,182.65238925000003,67.0,80.0
840,182.00968762500003,182.70926550000001,63.0,82.0
841,183.03346012500003,183.46571962500002,62.0,79.0
842,182.69220262500002,183.50695490625003,60.0,77.0
843,183.37471762500002,184.06576406250002,63.0,84.0
844,183.71597512500003,184.14539081250004,60.0,55.0
845,182.00968762500003,184.23354900000004,48.0,84.0
846,182.35094512500004,184.32170718750004,55.0,72.0
847,184.05723262500004,184.4127091875,62.0,80.0
848,184.05723262500004,184.67433993750004,65.0,83.0
849,184.39849012500002,184.79520196875004,50.0,79.0
850,184.73974762500004,185.06962987500003,67.0,80.0
851,184.73974762500004,185.09095846875002,63.0,80.0
852,184.73974762500004,185.14641281250002,58.0,80.0
853,185.42226262500003,185.67109621875002,58.0,77.0
854,185.42226262500003,185.73792581250004,65.0,80.0
855,185.08100512500002,185.85736593750002,55.0,72.0
856,185.763520125,186.16307578125003,58.0,73.0
857,185.763520125,186.19577962500003,67.0,83.0
858,186.10477762500003,186.53134950000003,55.0,62.0
859,186.44603512500004,186.63514865625004,67.0,76.0
860,186.44603512500004,186.8925136875,58.0,81.0
861,186.78729262500002,186.98920331250002,55.0,75.0
862,184.73974762500004,187.01764143750003,51.0,81.0
863,187.12855012500003,187.34752368750003,63.0,80.0
864,187.46980762500002,187.96889671875002,60.0,73.0
865,187.46980762500002,188.07838350000003,65.0,81.0
866,188.49358012500002,188.85616621875002,63.0,84.0
867,188.15232262500004,188.87891671875002,58.0,95.0
868,188.83483762500003,189.24576853125004,62.0,75.0
869,188.83483762500003,189.49886784375002,65.0,80.0
870,189.51735262500003,189.74912334375003,58.0,79.0
871,187.46980762500002,189.77471765625003,46.0,84.0
872,189.51735262500003,189.79746815625003,70.0,84.0
873,189.51735262500003,189.81310912500004,62.0,79.0
874,187.81106512500003,189.86571965625004,53.0,79.0
875,190.19986762500002,190.38187162500003,63.0,84.0
876,190.19986762500002,190.45296693750004,67.0,79.0
877,190.19986762500002,190.76863012500002,48.0,84.0
878,190.54112512500004,190.87242928125002,55.0,71.0
879,190.88238262500002,191.05158946875002,67.0,79.0
880,190.88238262500002,191.11273143750003,75.0,90.0
881,190.88238262500002,191.27767256250002,60.0,58.0
882,191.22364012500003,191.42128509375001,65.0,79.0
883,191.22364012500003,191.54072521875003,74.0,80.0
884,191.22364012500003,191.69997871875003,62.0,70.0
885,191.56489762500001,192.08815912500003,72.0,84.0
886,191.56489762500001,192.25452215625003,67.0,76.0
887,191.56489762500001,192.30002315625003,63.0,79.0
888,192.24741262500004,192.39244706250003,62.0,78.0
889,192.92992762500003,193.23421556250003,75.0,90.0
890,192.92992762500003,193.33943662500002,67.0,80.0
891,193.61244262500003,193.83283809375004,63.0,76.0
892,193.27118512500002,193.84136953125002,70.0,91.0
893,192.92992762500003,193.94659059375002,51.0,80.0
894,193.27118512500002,193.95370012500004,58.0,79.0
895,193.95370012500004,194.26794140625003,65.0,76.0
896,194.29495762500002,194.57507315625003,58.0,82.0
897,194.29495762500002,194.78551528125004,67.0,76.0
898,194.29495762500002,194.90495540625002,63.0,78.0
899,194.97747262500002,195.23057193750003,60.0,82.0
900,194.63621512500004,195.31446440625004,55.0,69.0
901,194.29495762500002,195.31730821875004,48.0,82.0
902,195.31873012500003,195.67278478125002,63.0,83.0
903,195.65998762500004,196.36383121875002,65.0,84.0
904,195.65998762500004,196.37662837500002,60.0,73.0
905,195.65998762500004,196.62688387500003,41.0,82.0
906,196.00124512500003,196.65390009375002,48.0,80.0
907,196.68376012500002,196.87002984375002,60.0,76.0
908,196.34250262500004,196.97382900000002,53.0,81.0
909,197.02501762500003,197.54116959375003,48.0,83.0
910,197.02501762500003,197.70753262500003,56.0,86.0
911,197.02501762500003,197.71037643750003,63.0,82.0
912,197.02501762500003,197.75445553125002,60.0,91.0
913,197.70753262500003,198.06158728125004,48.0,80.0
914,198.04879012500004,198.23932556250003,56.0,81.0
915,198.39004762500002,198.82372903125002,58.0,90.0
916,198.39004762500002,198.85074525000002,63.0,84.0
917,198.39004762500002,198.88771481250004,55.0,81.0
918,199.07256262500002,199.39249153125002,58.0,90.0
919,198.73130512500003,199.54036978125004,51.0,80.0
920,199.41382012500003,199.72095187500003,60.0,84.0
921,199.75507762500004,199.79915671875003,58.0,72.0
922,199.75507762500004,199.89442443750002,51.0,79.0
923,199.75507762500004,199.90864350000004,55.0,80.0
924,199.75507762500004,199.94134734375004,63.0,84.0
925,200.09633512500002,200.49589078125004,51.0,71.0
926,200.43759262500004,200.64661284375003,58.0,86.0
927,200.43759262500004,200.67789478125002,65.0,84.0
928,198.39004762500002,200.76605296875002,39.0,86.0
929,200.77885012500002,200.85705496875002,51.0,83.0
930,200.77885012500002,200.86416450000004,63.0,86.0
931,200.77885012500002,200.88975881250002,67.0,80.0
932,201.12010762500003,201.53388234375004,60.0,82.0
933,201.12010762500003,201.55663284375004,67.0,84.0
934,201.12010762500003,201.58507096875002,63.0,83.0
935,201.12010762500003,202.19506875000002,55.0,80.0
936,201.12010762500003,202.21070971875002,48.0,82.0
937,202.31450887500003,202.39982325000003,48.0,84.0
938,201.80262262500003,202.57187390625003,70.0,86.0
939,202.48513762500002,202.58182725000003,48.0,86.0
940,201.80262262500003,202.58609296875002,60.0,86.0
941,201.80262262500003,202.58609296875002,63.0,91.0
942,201.80262262500003,202.59889012500003,67.0,84.0
943,202.82639512500003,203.35534425000003,48.0,99.0
944,203.16765262500002,203.48473771875004,63.0,90.0
945,203.16765262500002,203.52597300000002,67.0,82.0
946,203.16765262500002,203.54872350000002,60.0,83.0
947,203.50891012500003,203.81461996875004,48.0,84.0
948,203.85016762500004,204.26109853125004,65.0,82.0
949,203.85016762500004,204.27247378125003,58.0,82.0
950,203.85016762500004,204.27531759375003,62.0,83.0
951,203.85016762500004,204.27816140625004,70.0,73.0
952,204.02079637500003,204.59098078125004,55.0,73.0
953,203.85016762500004,204.74170284375003,43.0,90.0
954,204.87394012500002,204.97347356250003,43.0,72.0
955,205.21519762500003,205.31046534375002,50.0,86.0
956,204.53268262500004,205.60764375000002,58.0,84.0
957,204.53268262500004,205.62897234375004,62.0,82.0
958,204.53268262500004,205.62897234375004,70.0,84.0
959,204.53268262500004,205.64034759375002,65.0,84.0
960,205.55645512500004,206.09677950000003,50.0,95.0
961,205.89771262500003,206.19346912500004,70.0,86.0
962,205.89771262500003,206.19915675000004,58.0,90.0
963,205.89771262500003,206.20342246875003,62.0,86.0
964,205.89771262500003,206.23897012500004,65.0,84.0
965,206.23897012500004,206.32001878125004,55.0,82.0
966,206.23897012500004,206.34845690625002,43.0,84.0
967,206.58022762500002,206.87314031250003,70.0,68.0
968,206.58022762500002,206.94850134375002,67.0,84.0
969,206.58022762500002,206.95845468750002,60.0,84.0
970,206.58022762500002,206.97409565625003,63.0,86.0
971,206.92148512500003,207.48882571875004,55.0,49.0
972,206.58022762500002,207.52863909375003,48.0,90.0
973,207.77462887500002,207.92819475000002,43.0,81.0
974,207.26274262500004,208.01208721875003,60.0,84.0
975,207.26274262500004,208.02204056250002,63.0,90.0
976,207.26274262500004,208.02488437500003,67.0,84.0
977,207.94525762500004,208.45714387500004,48.0,95.0
978,208.28651512500002,208.70739937500002,67.0,93.0
979,208.28651512500002,208.74863465625003,60.0,94.0
980,208.28651512500002,208.75574418750003,63.0,98.0
981,208.62777262500003,209.06998546875002,48.0,95.0
982,208.96903012500002,209.12828362500002,60.0,83.0
983,209.31028762500003,209.67998325000002,58.0,83.0
984,209.31028762500003,209.68567087500003,65.0,82.0
985,209.31028762500003,209.70557756250003,70.0,75.0
986,209.31028762500003,209.70699946875004,62.0,82.0
987,209.31028762500003,210.27434006250004,43.0,86.0
988,209.31028762500003,210.28998103125002,55.0,86.0
989,210.50468887500003,210.60280040625003,43.0,82.0
990,210.50468887500003,210.61701946875004,55.0,77.0
991,210.67531762500002,210.77627296875002,50.0,78.0
992,209.99280262500002,210.95258934375002,65.0,83.0
993,209.99280262500002,210.97533984375002,62.0,84.0
994,209.99280262500002,211.01088750000002,58.0,90.0
995,209.99280262500002,211.07771709375004,70.0,86.0
996,211.01657512500003,211.53841471875003,50.0,95.0
997,211.35783262500004,211.54694615625004,58.0,86.0
998,211.35783262500004,211.65501103125004,70.0,78.0
999,211.35783262500004,211.71473109375003,62.0,91.0
1000,211.35783262500004,211.72752825000003,65.0,86.0
1001,211.69909012500003,211.78440450000002,43.0,86.0
1002,211.69909012500003,211.79862356250004,55.0,91.0
1003,212.04034762500004,212.33183840625003,60.0,84.0
1004,212.04034762500004,212.39298037500004,67.0,83.0
1005,212.04034762500004,212.44701281250002,63.0,83.0
1006,212.55223387500004,212.74987884375003,60.0,83.0
1007,212.72286262500003,212.75556646875003,70.0,72.0
1008,212.04034762500004,212.82097415625003,48.0,91.0
1009,212.38160512500002,212.87074087500002,55.0,75.0
1010,213.06412012500004,213.16080975000003,48.0,91.0
1011,212.72286262500003,213.44092528125003,63.0,90.0
1012,212.72286262500003,213.44945671875004,67.0,90.0
1013,212.72286262500003,213.47078531250003,62.0,90.0
1014,213.74663512500004,213.82910568750003,70.0,58.0
1015,213.40537762500003,213.91726387500003,48.0,99.0
1016,213.74663512500004,214.20875465625002,60.0,84.0
1017,213.74663512500004,214.20875465625002,63.0,86.0
1018,213.74663512500004,214.24998993750003,67.0,83.0
1019,214.08789262500002,214.38791484375002,48.0,90.0
1020,214.42915012500004,214.51730831250003,70.0,54.0
1021,214.42915012500004,214.57560646875004,60.0,84.0
1022,214.77040762500002,214.99364690625004,51.0,82.0
1023,214.77040762500002,215.09602415625002,63.0,86.0
1024,214.77040762500002,215.19982331250003,55.0,81.0
1025,214.77040762500002,215.19982331250003,58.0,86.0
1026,215.11166512500003,215.52686175000002,51.0,57.0
1027,214.77040762500002,215.59226943750002,39.0,83.0
1028,215.79418012500003,215.90793262500003,50.0,83.0
1029,215.45292262500004,215.92783931250003,55.0,84.0
1030,215.79418012500003,215.94490218750002,38.0,94.0
1031,215.45292262500004,215.98613746875003,58.0,90.0
1032,215.45292262500004,216.07713946875003,63.0,93.0
1033,216.13543762500004,216.40133409375002,48.0,80.0
1034,216.13543762500004,216.57622856250003,63.0,56.0
1035,216.13543762500004,216.59044762500002,60.0,93.0
1036,216.13543762500004,216.62172956250004,55.0,72.0
1037,216.64732387500004,216.88051650000003,48.0,68.0
1038,216.81795262500003,217.15352250000004,60.0,91.0
1039,216.81795262500003,217.16774156250003,55.0,94.0
1040,216.13543762500004,217.18196062500004,36.0,90.0
1041,216.81795262500003,217.24736831250004,63.0,93.0
1042,217.15921012500004,217.28291596875002,48.0,84.0
1043,217.50046762500003,217.90997662500004,63.0,73.0
1044,217.50046762500003,217.94836809375002,56.0,78.0
1045,217.50046762500003,217.95689953125003,60.0,86.0
1046,217.50046762500003,218.33228278125003,53.0,84.0
1047,217.50046762500003,218.34792375000004,41.0,84.0
1048,218.18298262500002,218.65363359375004,63.0,81.0
1049,218.18298262500002,218.70340031250004,56.0,84.0
1050,218.18298262500002,218.73041653125003,60.0,84.0
1051,218.52424012500003,218.75601084375003,41.0,78.0
1052,218.52424012500003,218.85412237500003,53.0,83.0
1053,218.86549762500005,219.10722168750004,63.0,84.0
1054,218.86549762500005,219.15556650000002,60.0,90.0
1055,218.86549762500005,219.20248940625004,44.0,94.0
1056,218.86549762500005,219.23234943750003,56.0,84.0
1057,219.54801262500004,219.78547096875002,46.0,84.0
1058,219.54801262500004,219.93761493750003,53.0,84.0
1059,219.54801262500004,219.94188065625002,34.0,99.0
1060,219.54801262500004,220.02719503125005,62.0,91.0
1061,219.54801262500004,220.07127412500003,58.0,90.0
1062,219.88927012500002,220.15090087500002,46.0,78.0
1063,220.23052762500004,220.56325368750004,63.0,91.0
1064,220.23052762500004,220.60448896875002,60.0,90.0
1065,220.23052762500004,220.63434900000004,55.0,83.0
1066,220.91304262500003,220.97702840625004,63.0,50.0
1067,220.91304262500003,221.21590865625004,55.0,80.0
1068,220.57178512500002,221.41070981250004,48.0,72.0
1069,221.25430012500004,221.51166515625005,60.0,91.0
1070,221.42492887500003,221.69366915625002,62.0,86.0
1071,221.59555762500003,222.13303818750003,55.0,81.0
1072,221.59555762500003,222.28376025000003,63.0,93.0
1073,221.59555762500003,222.38755940625003,48.0,75.0
1074,220.23052762500004,222.39466893750003,36.0,94.0
1075,222.96058762500004,223.55067871875002,70.0,76.0
1076,222.96058762500004,223.69144743750005,67.0,68.0
1077,222.96058762500004,223.80662184375004,75.0,79.0
1078,223.64310262500004,224.16067650000002,63.0,69.0
1079,223.98436012500002,224.62137412500005,70.0,79.0
1080,224.32561762500004,224.77636190625003,65.0,71.0
1081,224.66687512500005,224.95552209375003,63.0,59.0
1082,222.96058762500004,225.23705953125003,51.0,82.0
1083,223.30184512500003,225.24559096875004,58.0,68.0
1084,225.00813262500003,225.26123193750004,70.0,75.0
1085,225.52001887500003,225.67074093750003,74.0,79.0
1086,225.34939012500004,225.69775715625002,72.0,69.0
1087,225.69064762500003,226.31486446875005,48.0,73.0
1088,226.03190512500004,226.34330259375002,55.0,72.0
1089,225.69064762500003,226.49118084375004,67.0,72.0
1090,226.37316262500002,226.81253165625003,60.0,55.0
1091,225.69064762500003,226.90353365625003,75.0,79.0
1092,226.71442012500003,226.99737946875004,74.0,82.0
1093,226.71442012500003,226.99880137500003,67.0,62.0
1094,227.05567762500004,227.40973228125003,72.0,78.0
1095,227.05567762500004,227.44385803125004,67.0,32.0
1096,227.39693512500003,227.61306487500002,63.0,76.0
1097,226.71442012500003,227.63012775000004,62.0,69.0
1098,227.73819262500004,228.05954343750003,70.0,75.0
1099,228.07945012500002,228.35814375000004,72.0,71.0
1100,228.42070762500003,228.99657965625002,70.0,76.0
1101,228.42070762500003,229.15014553125005,67.0,73.0
1102,228.42070762500003,229.18284937500005,75.0,79.0
1103,229.10322262500003,229.49993446875004,63.0,62.0
1104,229.44448012500004,229.88953678125003,65.0,69.0
1105,229.44448012500004,229.96205400000002,70.0,70.0
1106,229.78573762500002,230.14121418750003,63.0,58.0
1107,230.12699512500004,230.43697068750004,75.0,82.0
1108,230.12699512500004,230.60902134375004,67.0,68.0
1109,228.42070762500003,230.75832150000002,51.0,79.0
1110,228.76196512500005,230.76685293750003,58.0,58.0
1111,230.46825262500005,230.83226062500003,74.0,83.0
1112,230.80951012500003,231.05834371875002,70.0,73.0
1113,231.15076762500004,231.26594203125003,72.0,72.0
1114,231.15076762500004,231.72806156250005,46.0,76.0
1115,231.49202512500003,231.79062543750004,53.0,62.0
1116,231.83328262500004,232.22146303125004,58.0,43.0
1117,231.15076762500004,232.51437571875005,74.0,82.0
1118,231.15076762500004,232.54850146875003,65.0,68.0
1119,232.85705512500004,233.14285828125003,65.0,68.0
1120,232.51579762500003,233.32486228125003,62.0,80.0
1121,232.17454012500002,233.34050325000004,60.0,72.0
1122,233.19831262500003,233.45852146875004,70.0,75.0
1123,233.53957012500004,233.82537328125002,72.0,75.0
1124,233.88082762500002,234.24910134375003,63.0,75.0
1125,233.88082762500002,234.26189850000003,67.0,80.0
1126,233.88082762500002,234.26189850000003,72.0,78.0
1127,234.22208512500004,234.71122087500004,60.0,22.0
1128,234.56334262500005,234.89606868750005,67.0,79.0
1129,234.56334262500005,234.89891250000002,63.0,71.0
1130,234.56334262500005,234.94299159375004,72.0,75.0
1131,234.90460012500003,235.36245393750002,60.0,12.0
1132,235.24585762500004,235.54587984375004,67.0,67.0
1133,235.24585762500004,235.55867700000005,63.0,46.0
1134,235.24585762500004,235.58711512500003,72.0,50.0
1135,235.58711512500003,236.01084318750003,60.0,40.0
1136,235.92837262500004,236.15872143750005,72.0,79.0
1137,235.92837262500004,236.22128531250004,63.0,80.0
1138,235.92837262500004,236.23692628125002,67.0,80.0
1139,233.88082762500002,236.32508446875005,48.0,79.0
1140,236.26963012500005,236.64785718750002,60.0,46.0
1141,236.61088762500003,237.36307603125005,70.0,82.0
1142,236.61088762500003,237.38724843750003,75.0,83.0
1143,236.61088762500003,237.39577987500004,67.0,73.0
1144,237.29340262500003,237.40573321875004,63.0,57.0
1145,236.95214512500004,237.44696850000003,58.0,75.0
1146,236.61088762500003,237.44839040625004,51.0,77.0
1147,237.63466012500004,237.94321378125002,74.0,86.0
1148,237.97591762500002,238.44088096875004,67.0,68.0
1149,237.97591762500002,238.50771056250002,75.0,82.0
1150,238.65843262500005,238.85749950000005,74.0,82.0
1151,237.97591762500002,238.87456237500004,48.0,67.0
1152,238.31717512500003,238.94281387500004,55.0,71.0
1153,238.65843262500005,239.07505115625003,60.0,63.0
1154,238.65843262500005,239.07789496875003,67.0,76.0
1155,238.99969012500003,239.26274278125004,70.0,76.0
1156,239.34094762500004,239.76467568750004,68.0,80.0
1157,239.34094762500004,239.79027000000005,65.0,83.0
1158,239.34094762500004,239.82866146875003,60.0,72.0
1159,239.34094762500004,240.01635309375004,41.0,82.0
1160,239.68220512500002,240.21541996875004,53.0,37.0
1161,240.02346262500004,240.36472012500005,60.0,72.0
1162,240.36472012500005,240.62919468750005,65.0,82.0
1163,240.70597762500003,241.03870368750003,70.0,83.0
1164,240.70597762500003,241.11406471875003,62.0,80.0
1165,240.70597762500003,241.22070768750004,65.0,80.0
1166,240.70597762500003,241.56623090625004,46.0,78.0
1167,241.04723512500004,241.66007671875005,53.0,70.0
1168,241.38849262500003,241.66292053125002,68.0,83.0
1169,241.38849262500003,241.69135865625003,63.0,79.0
1170,241.38849262500003,241.85772168750003,60.0,79.0
1171,242.07100762500005,242.83599318750004,67.0,76.0
1172,242.07100762500005,242.93694853125004,75.0,84.0
1173,242.75352262500004,243.41328712500004,63.0,72.0
1174,242.41226512500003,243.45736621875002,58.0,72.0
1175,243.09478012500003,243.55832156250003,65.0,75.0
1176,243.43603762500004,243.71330934375004,67.0,76.0
1177,243.77729512500002,244.08442687500005,70.0,79.0
1178,244.11855262500004,244.24083656250005,75.0,84.0
1179,242.07100762500005,244.50104540625003,51.0,82.0
1180,244.11855262500004,244.60911028125003,58.0,56.0
1181,244.45981012500005,244.75698853125004,77.0,78.0
1182,244.80106762500003,245.42528446875005,70.0,86.0
1183,244.80106762500003,245.56463128125003,67.0,80.0
1184,244.80106762500003,245.56463128125003,75.0,86.0
1185,245.48358262500003,246.04523559375005,63.0,90.0
1186,245.82484012500004,246.06229846875004,67.0,72.0
1187,245.99546887500003,246.21302053125004,70.0,79.0
1188,246.16609762500005,246.40213406250004,72.0,79.0
1189,246.33672637500004,246.55001231250003,74.0,84.0
1190,246.50735512500003,246.63817050000003,75.0,79.0
1191,246.67798387500002,246.85430025000002,77.0,73.0
1192,246.84861262500004,247.10171193750003,75.0,82.0
1193,245.14232512500004,247.12019671875004,58.0,72.0
1194,244.80106762500003,247.13868150000005,51.0,82.0
1195,247.01924137500004,247.20124537500004,74.0,80.0
1196,247.18987012500003,247.38467128125004,72.0,73.0
1197,247.53112762500004,247.89229181250005,74.0,79.0
1198,247.53112762500004,247.89940134375004,67.0,52.0
1199,247.87238512500005,248.17382925000004,55.0,79.0
1200,247.53112762500004,248.17525115625003,48.0,76.0
1201,248.21364262500003,248.58476015625004,60.0,68.0
1202,248.55490012500005,248.74543556250003,67.0,68.0
1203,248.55490012500005,248.85492234375005,75.0,84.0
1204,248.89615762500003,248.98005009375004,67.0,38.0
1205,248.89615762500003,248.99000343750004,72.0,84.0
1206,249.23741512500004,249.32415140625002,79.0,18.0
1207,249.23741512500004,249.36680859375005,87.0,83.0
1208,249.23741512500004,249.46776393750002,65.0,72.0
1209,248.89615762500003,249.59857931250005,63.0,79.0
1210,248.55490012500005,249.66540890625004,62.0,78.0
1211,249.57867262500002,249.73081659375003,77.0,73.0
1212,249.57867262500002,249.79053665625003,86.0,73.0
1213,249.91993012500004,250.04932359375005,82.0,76.0
1214,250.26118762500005,250.53845934375005,79.0,83.0
1215,250.26118762500005,250.54983459375003,75.0,77.0
1216,251.11433137500003,251.29064775000003,67.0,59.0
1217,250.77307387500005,251.33188303125004,63.0,63.0
1218,251.28496012500003,251.50393368750002,70.0,73.0
1219,251.45558887500005,251.59066996875003,72.0,79.0
1220,251.62621762500004,251.70726628125004,68.0,50.0
1221,251.62621762500004,251.74423584375003,67.0,58.0
1222,251.62621762500004,251.84234737500003,63.0,61.0
1223,251.62621762500004,251.84803500000004,75.0,79.0
1224,250.26118762500005,251.97316275000003,51.0,72.0
1225,251.96747512500005,252.05847712500002,65.0,59.0
1226,251.96747512500005,252.05989903125004,67.0,69.0
1227,251.96747512500005,252.23621540625004,74.0,83.0
1228,250.60244512500003,252.51206521875002,58.0,58.0
1229,252.30873262500003,252.56041003125003,65.0,73.0
1230,252.30873262500003,252.57889481250004,74.0,75.0
1231,252.64999012500004,252.88176084375004,70.0,76.0
1232,252.99124762500003,253.35952134375003,74.0,82.0
1233,252.99124762500003,253.41781950000004,70.0,75.0
1234,252.99124762500003,253.43914809375005,65.0,73.0
1235,254.01502012500004,254.10744403125003,62.0,80.0
1236,254.01502012500004,254.11455356250005,74.0,86.0
1237,253.67376262500002,254.13872596875004,58.0,53.0
1238,254.35627762500005,254.46434250000004,63.0,83.0
1239,254.35627762500005,254.48424918750004,75.0,84.0
1240,254.35627762500005,254.63354934375005,58.0,55.0
1241,254.69753512500003,254.78853712500003,65.0,72.0
1242,254.69753512500003,254.81839715625003,77.0,75.0
1243,255.03879262500004,255.15112321875003,67.0,74.0
1244,255.03879262500004,255.18667087500003,79.0,82.0
1245,255.03879262500004,255.21084328125005,58.0,54.0
1246,253.33250512500004,255.27625096875005,53.0,76.0
1247,252.99124762500003,255.40422253125004,46.0,79.0
1248,255.38005012500003,255.46536450000005,70.0,61.0
1249,255.38005012500003,255.51370931250003,82.0,80.0
1250,255.72130762500004,255.84359156250005,39.0,98.0
1251,255.72130762500004,256.07678418750004,82.0,75.0
1252,255.72130762500004,256.16067665625,70.0,51.0
1253,256.745080125,256.95552225000006,65.0,71.0
1254,256.91570887500006,257.12472909375003,67.0,71.0
1255,257.08633762500006,257.25127875000004,70.0,72.0
1256,257.25696637500005,257.33374931250006,75.0,79.0
1257,256.574451375,257.56978575000005,63.0,78.0
1258,257.42759512500004,257.5726295625,77.0,82.0
1259,257.59822387500003,257.79018121875004,79.0,71.0
1260,257.768852625,257.94232518750005,82.0,59.0
1261,256.40382262500003,257.984982375,58.0,75.0
1262,256.23319387500004,258.06318721875004,51.0,80.0
1263,258.11011012500006,258.20395593750004,87.0,63.0
1264,258.45136762500005,258.67318500000005,94.0,78.0
1265,258.62199637500004,258.70304503125004,99.0,84.0
