,start,end,pitch,velocity
0,0.34090899999999996,0.6107952916666667,61.0,76.0
1,0.34090899999999996,0.6122157458333333,64.0,82.0
2,0.6818179999999999,0.9303974791666666,64.0,88.0
3,0.6818179999999999,1.0198860916666665,61.0,85.0
4,1.022727,1.2968746541666667,66.0,88.0
5,1.022727,1.2982951083333334,63.0,86.0
6,1.3636359999999998,1.6874995499999998,63.0,88.0
7,1.3636359999999998,1.7613631666666667,66.0,93.0
8,1.704545,1.985794925,64.0,79.0
9,1.704545,2.0071017374999998,68.0,92.0
10,2.045454,2.292613025,64.0,73.0
11,2.045454,2.292613025,68.0,95.0
12,2.386363,2.759942445833333,68.0,107.0
13,2.7272719999999997,2.759942445833333,68.0,83.0
14,2.386363,2.9019878625,64.0,78.0
15,3.068181,3.3423286541666664,61.0,79.0
16,3.068181,3.3721581916666667,64.0,79.0
17,3.40909,3.7215899166666664,64.0,83.0
18,3.40909,3.727271733333333,61.0,93.0
19,3.749999,4.021305745833333,63.0,78.0
20,3.749999,4.048294375,66.0,82.0
21,4.090908,4.3934647374999996,63.0,95.0
22,4.090908,4.407669279166666,66.0,82.0
23,4.431817,4.639203308333333,68.0,72.0
24,4.431817,4.698862383333333,64.0,72.0
25,4.772726,4.9303964124999995,64.0,73.0
26,4.772726,4.957385041666666,68.0,82.0
27,5.1136349999999995,5.312498583333333,68.0,82.0
28,5.1136349999999995,5.393464470833333,64.0,89.0
29,5.454543999999999,5.734373470833333,64.0,89.0
30,5.454543999999999,5.9105097875,68.0,70.0
31,5.795453,6.035509754166666,64.0,77.0
32,5.795453,6.052555204166667,61.0,96.0
33,6.136362,6.370736937499999,61.0,96.0
34,6.136362,6.458805095833333,64.0,85.0
35,6.477271,6.738634566666667,69.0,90.0
36,6.477271,6.7471572916666664,61.0,82.0
37,6.81818,7.1420435499999995,61.0,77.0
38,6.81818,7.160509454166666,69.0,92.0
39,7.159089,7.447441195833333,68.0,88.0
40,7.159089,7.44886165,59.0,76.0
41,7.499998,7.7727252,68.0,71.0
42,7.499998,7.798293375,59.0,72.0
43,7.840907,8.214486445833334,68.0,75.0
44,8.181816,8.214486445833334,68.0,90.0
45,7.840907,8.3735773125,59.0,69.0
46,8.181816,8.3735773125,59.0,81.0
47,8.522725,8.802554470833334,64.0,85.0
48,8.522725,8.815338558333332,59.0,77.0
49,8.863634,9.198861183333333,64.0,76.0
50,8.863634,9.201702091666666,59.0,82.0
51,9.204543,9.39204295,63.0,95.0
52,9.204543,9.4985770125,68.0,90.0
53,9.545452,9.849429191666665,68.0,89.0
54,9.545452,9.850849645833334,63.0,81.0
55,9.886360999999999,10.167610925,66.0,83.0
56,9.886360999999999,10.169031379166666,59.0,74.0
57,10.227269999999999,10.514201741666666,59.0,70.0
58,10.227269999999999,10.524144920833333,66.0,69.0
59,10.909087999999999,11.319599254166667,63.0,88.0
60,10.568178999999999,11.346587883333333,66.0,82.0
61,10.909087999999999,11.346587883333333,66.0,85.0
62,10.568178999999999,11.436076495833333,59.0,78.0
63,11.249996999999999,11.519883291666666,61.0,76.0
64,11.249996999999999,11.521303745833332,64.0,82.0
65,11.590906,11.839485479166667,64.0,88.0
66,11.590906,11.928974091666666,61.0,85.0
67,11.931815,12.205962654166667,66.0,88.0
68,11.931815,12.207383108333334,63.0,86.0
69,12.272724,12.596587549999999,63.0,88.0
70,12.272724,12.670451166666666,66.0,93.0
71,12.613633,12.894882925,64.0,79.0
72,12.613633,12.9161897375,68.0,92.0
73,12.954542,13.201701025,64.0,73.0
74,12.954542,13.201701025,68.0,95.0
75,13.295451,13.669030445833332,68.0,107.0
76,13.63636,13.669030445833332,68.0,83.0
77,13.295451,13.8110758625,64.0,78.0
78,13.977269,14.251416654166666,61.0,79.0
79,13.977269,14.281246191666666,64.0,79.0
80,14.318178,14.630677916666667,64.0,83.0
81,14.318178,14.636359733333332,61.0,93.0
82,14.659087,14.930393745833333,63.0,78.0
83,14.659087,14.957382375,66.0,82.0
84,14.999996,15.3025527375,63.0,95.0
85,14.999996,15.316757279166666,66.0,82.0
86,15.340905,15.548291308333333,68.0,72.0
87,15.340905,15.607950383333332,64.0,72.0
88,15.681814,15.8394844125,64.0,73.0
89,15.681814,15.866473041666666,68.0,82.0
90,16.022723,16.221586583333334,68.0,82.0
91,16.022723,16.302552470833334,64.0,89.0
92,16.363632,16.643461470833333,64.0,89.0
93,16.363632,16.819597787499998,68.0,70.0
94,16.704541,16.944597754166665,64.0,77.0
95,16.704541,16.961643204166666,61.0,96.0
96,17.04545,17.2798249375,61.0,96.0
97,17.04545,17.36789309583333,64.0,85.0
98,17.386359,17.647722566666666,69.0,90.0
99,17.386359,17.656245291666664,61.0,82.0
100,17.727268,18.05113155,61.0,77.0
101,17.727268,18.069597454166665,69.0,92.0
102,18.068177,18.356529195833332,68.0,88.0
103,18.068177,18.35794965,59.0,76.0
104,18.409086,18.6818132,68.0,71.0
105,18.409086,18.707381375,59.0,72.0
106,18.749995,19.123574445833334,68.0,75.0
107,19.090904,19.123574445833334,68.0,90.0
108,18.749995,19.2826653125,59.0,69.0
109,19.090904,19.2826653125,59.0,81.0
110,19.431813,19.711642470833333,64.0,85.0
111,19.431813,19.72442655833333,59.0,77.0
112,19.772721999999998,20.107949183333332,64.0,76.0
113,19.772721999999998,20.110790091666665,59.0,82.0
114,20.113630999999998,20.301130949999997,63.0,95.0
115,20.113630999999998,20.4076650125,68.0,90.0
116,20.454539999999998,20.758517191666666,68.0,89.0
117,20.454539999999998,20.759937645833332,63.0,81.0
118,20.795448999999998,21.076698925,66.0,83.0
119,20.795448999999998,21.078119379166665,59.0,74.0
120,21.136357999999998,21.423289741666665,59.0,70.0
121,21.136357999999998,21.433232920833333,66.0,69.0
122,21.818175999999998,22.228687254166665,63.0,88.0
123,21.477266999999998,22.255675883333332,66.0,82.0
124,21.818175999999998,22.255675883333332,66.0,85.0
125,21.477266999999998,22.345164495833334,59.0,78.0
126,22.159084999999997,22.428971291666667,61.0,76.0
127,22.159084999999997,22.430391745833333,64.0,82.0
128,22.499993999999997,22.748573479166666,64.0,88.0
129,22.499993999999997,22.838062091666664,61.0,85.0
130,22.840903,23.115050654166666,66.0,88.0
131,22.840903,23.116471108333332,63.0,86.0
132,23.181812,23.50567555,63.0,88.0
133,23.181812,23.579539166666667,66.0,93.0
134,23.522721,23.803970924999998,64.0,79.0
135,23.522721,23.8252777375,68.0,92.0
136,23.86363,24.110789025,64.0,73.0
137,23.86363,24.110789025,68.0,95.0
138,24.204539,24.578118445833333,68.0,107.0
139,24.545448,24.578118445833333,68.0,83.0
140,24.204539,24.720163862499998,64.0,78.0
141,24.886357,25.160504654166665,61.0,79.0
142,24.886357,25.190334191666665,64.0,79.0
143,25.227266,25.539765916666667,64.0,83.0
144,25.227266,25.545447733333333,61.0,93.0
145,25.568175,25.839481745833332,63.0,78.0
146,25.568175,25.866470375,66.0,82.0
147,25.909084,26.211640737499998,63.0,95.0
148,25.909084,26.225845279166666,66.0,82.0
149,26.249993,26.457379308333334,68.0,72.0
150,26.249993,26.517038383333333,64.0,72.0
151,26.590902,26.7485724125,64.0,73.0
152,26.590902,26.775561041666666,68.0,82.0
153,26.931811,27.13067458333333,68.0,82.0
154,26.931811,27.21164047083333,64.0,89.0
155,27.27272,27.55254947083333,64.0,89.0
156,27.27272,27.728685787499998,68.0,70.0
157,27.613629,27.853685754166666,64.0,77.0
158,27.613629,27.870731204166667,61.0,96.0
159,27.954538,28.1889129375,61.0,96.0
160,27.954538,28.27698109583333,64.0,85.0
161,28.295447,28.556810566666666,69.0,90.0
162,28.295447,28.565333291666665,61.0,82.0
163,28.636356,28.960219549999998,61.0,77.0
164,28.636356,28.978685454166666,69.0,92.0
165,28.977265,29.265617195833332,68.0,88.0
166,28.977265,29.26703765,59.0,76.0
167,29.318174,29.590901199999998,68.0,71.0
168,29.318174,29.616469374999998,59.0,72.0
169,29.659083,30.03266244583333,68.0,75.0
170,29.999992,30.03266244583333,68.0,90.0
171,29.659083,30.191753312499998,59.0,69.0
172,29.999992,30.191753312499998,59.0,81.0
173,30.340901,30.620730470833333,64.0,85.0
174,30.340901,30.63351455833333,59.0,77.0
175,30.68181,31.017037183333333,64.0,76.0
176,30.68181,31.019878091666666,59.0,82.0
177,31.022719,31.210218949999998,63.0,95.0
178,31.022719,31.316753012499998,68.0,90.0
179,31.363628,31.667605191666667,68.0,89.0
180,31.363628,31.669025645833333,63.0,81.0
181,31.704537,31.985786925,66.0,83.0
182,31.704537,31.987207379166666,59.0,74.0
183,32.045446,32.33237774166667,59.0,70.0
184,32.045446,32.34232092083333,66.0,69.0
185,32.727264,33.13777525416666,63.0,88.0
186,32.386355,33.16476388333333,66.0,82.0
187,32.727264,33.16476388333333,66.0,85.0
188,32.386355,33.254252495833335,59.0,78.0
189,33.068173,33.33805929166667,61.0,76.0
190,33.068173,33.33947974583333,64.0,82.0
191,33.409082,33.65766147916666,64.0,88.0
192,33.409082,33.74715009166667,61.0,85.0
193,33.749991,34.02413865416666,66.0,88.0
194,33.749991,34.02555910833333,63.0,86.0
195,34.431809,34.815331625,68.0,77.0
196,34.772718,35.137774720833335,69.0,74.0
197,35.113627,35.71163820416667,68.0,79.0
198,35.795445,36.20311534583333,68.0,72.0
199,36.136354,36.46731982083333,69.0,72.0
200,36.477263,37.041183304166665,68.0,73.0
201,37.159081,37.40055820833333,73.0,66.0
202,37.840899,37.9985694125,73.0,81.0
203,38.522717,38.70879649583333,73.0,62.0
204,39.204535,39.340898599999996,73.0,59.0
205,39.886353,40.21021655,68.0,74.0
206,40.227261999999996,40.309648341666666,71.0,82.0
207,40.568171,40.66050052083333,76.0,72.0
208,41.249989,41.42186395416667,68.0,50.0
209,41.590897999999996,41.7144775125,71.0,70.0
210,41.931807,42.05822742083333,76.0,79.0
211,42.613625,42.761352233333334,68.0,63.0
212,42.954533999999995,43.03265897916666,75.0,97.0
213,43.295443,43.3678861625,80.0,112.0
214,43.977261,44.241465475,68.0,82.0
215,44.318169999999995,44.461635870833334,75.0,100.0
216,44.659079,44.957374375,68.0,88.0
217,44.999987999999995,45.32385155,63.0,88.0
218,44.999987999999995,45.397715166666664,66.0,93.0
219,45.340897,45.622146924999996,64.0,79.0
220,45.340897,45.643453737499996,68.0,92.0
221,45.681806,45.928965025,64.0,73.0
222,45.681806,45.928965025,68.0,95.0
223,46.022715,46.396294445833334,68.0,107.0
224,46.363624,46.396294445833334,68.0,83.0
225,46.022715,46.538339862499996,64.0,78.0
226,46.704533,46.978680654166666,61.0,79.0
227,46.704533,47.008510191666666,64.0,79.0
228,47.045442,47.35794191666667,64.0,83.0
229,47.045442,47.363623733333334,61.0,93.0
230,47.386351,47.65765774583333,63.0,78.0
231,47.386351,47.684646375,66.0,82.0
232,47.72726,48.0298167375,63.0,95.0
233,47.72726,48.044021279166664,66.0,82.0
234,48.068169,48.27555530833333,68.0,72.0
235,48.068169,48.33521438333333,64.0,72.0
236,48.409078,48.5667484125,64.0,73.0
237,48.409078,48.593737041666664,68.0,82.0
238,48.749987,48.94885058333333,68.0,82.0
239,48.749987,49.02981647083333,64.0,89.0
240,49.090896,49.37072547083333,64.0,89.0
241,49.090896,49.5468617875,68.0,70.0
242,49.431805,49.67186175416666,64.0,77.0
243,49.431805,49.68890720416667,61.0,96.0
244,49.772714,50.0070889375,61.0,96.0
245,49.772714,50.09515709583333,64.0,85.0
246,50.113623,50.374986566666664,69.0,90.0
247,50.113623,50.38350929166666,61.0,82.0
248,50.454532,50.77839555,61.0,77.0
249,50.454532,50.79686145416667,69.0,92.0
250,50.795441,51.08379319583333,68.0,88.0
251,50.795441,51.08521365,59.0,76.0
252,51.13635,51.4090772,68.0,71.0
253,51.13635,51.434645374999995,59.0,72.0
254,51.477259,51.85083844583333,68.0,75.0
255,51.818168,51.85083844583333,68.0,90.0
256,51.477259,52.0099293125,59.0,69.0
257,51.818168,52.0099293125,59.0,81.0
258,52.159076999999996,52.43890647083333,64.0,85.0
259,52.159076999999996,52.45169055833333,59.0,77.0
260,52.499986,52.83521318333333,64.0,76.0
261,52.499986,52.83805409166666,59.0,82.0
262,52.840894999999996,53.02839495,63.0,95.0
263,52.840894999999996,53.134929012499995,68.0,90.0
264,53.181804,53.48578119166667,68.0,89.0
265,53.181804,53.48720164583333,63.0,81.0
266,53.522712999999996,53.803962925,66.0,83.0
267,53.522712999999996,53.80538337916666,59.0,74.0
268,53.863622,54.15055374166666,59.0,70.0
269,53.863622,54.16049692083333,66.0,69.0
270,54.54544,54.95595125416666,63.0,88.0
271,54.204530999999996,54.98293988333333,66.0,82.0
272,54.54544,54.98293988333333,66.0,85.0
273,54.204530999999996,55.07242849583333,59.0,78.0
274,54.886348999999996,55.15623529166666,61.0,76.0
275,54.886348999999996,55.15765574583333,64.0,82.0
276,55.227258,55.475837479166664,64.0,88.0
277,55.227258,55.56532609166666,61.0,85.0
278,55.568166999999995,55.842314654166664,66.0,88.0
279,55.568166999999995,55.843735108333334,63.0,86.0
280,55.909076,56.23293955,63.0,88.0
281,55.909076,56.30680316666666,66.0,93.0
282,56.249984999999995,56.531234925,64.0,79.0
283,56.249984999999995,56.5525417375,68.0,92.0
284,56.590894,56.838053025,64.0,73.0
285,56.590894,56.838053025,68.0,95.0
286,56.931802999999995,57.30538244583333,68.0,107.0
287,57.272712,57.30538244583333,68.0,83.0
288,56.931802999999995,57.4474278625,64.0,78.0
289,57.613620999999995,57.88776865416666,61.0,79.0
290,57.613620999999995,57.91759819166666,64.0,79.0
291,57.95453,58.267029916666665,64.0,83.0
292,57.95453,58.27271173333333,61.0,93.0
293,58.295438999999995,58.56674574583333,63.0,78.0
294,58.295438999999995,58.593734375,66.0,82.0
295,58.636348,58.938904737499996,63.0,95.0
296,58.636348,58.95310927916666,66.0,82.0
297,58.977256999999994,59.18464330833333,68.0,72.0
298,58.977256999999994,59.244302383333334,64.0,72.0
299,59.318166,59.475836412499994,64.0,73.0
300,59.318166,59.50282504166666,68.0,82.0
301,59.659074999999994,59.85793858333333,68.0,82.0
302,59.659074999999994,59.93890447083333,64.0,89.0
303,59.999984,60.27981347083333,64.0,89.0
304,59.999984,60.455949787499996,68.0,70.0
305,60.340892999999994,60.58094975416667,64.0,77.0
306,60.340892999999994,60.597995204166665,61.0,96.0
307,60.681802,60.9161769375,61.0,96.0
308,60.681802,61.00424509583333,64.0,85.0
309,61.022711,61.28407456666667,69.0,90.0
310,61.022711,61.29259729166667,61.0,82.0
311,61.36362,61.687483549999996,61.0,77.0
312,61.36362,61.705949454166664,69.0,92.0
313,61.704529,61.992881195833334,68.0,88.0
314,61.704529,61.99430165,59.0,76.0
315,62.045438,62.318165199999996,68.0,71.0
316,62.045438,62.343733375,59.0,72.0
317,62.386347,62.75992644583333,68.0,75.0
318,62.727256,62.75992644583333,68.0,90.0
319,62.386347,62.919017312499996,59.0,69.0
320,62.727256,62.919017312499996,59.0,81.0
321,63.068165,63.34799447083333,64.0,85.0
322,63.068165,63.36077855833333,59.0,77.0
323,63.409074,63.74430118333333,64.0,76.0
324,63.409074,63.74714209166667,59.0,82.0
325,63.749983,63.937482949999996,63.0,95.0
326,63.749983,64.04401701249999,68.0,90.0
327,64.090892,64.39486919166666,68.0,89.0
328,64.090892,64.39628964583333,63.0,81.0
329,64.431801,64.71305092499999,66.0,83.0
330,64.431801,64.71447137916667,59.0,74.0
331,64.77271,65.05964174166667,59.0,70.0
332,64.77271,65.06958492083334,66.0,69.0
333,65.454528,65.86503925416666,63.0,88.0
334,65.113619,65.89202788333333,66.0,82.0
335,65.454528,65.89202788333333,66.0,85.0
336,65.113619,65.98151649583333,59.0,78.0
337,65.79543699999999,66.06532329166666,61.0,76.0
338,65.79543699999999,66.06674374583334,64.0,82.0
339,66.136346,66.38492547916667,64.0,88.0
340,66.136346,66.47441409166666,61.0,85.0
341,66.477255,66.75140265416667,66.0,88.0
342,66.477255,66.75282310833333,63.0,86.0
343,66.818164,67.14202755,63.0,88.0
344,66.818164,67.21589116666667,66.0,93.0
345,67.15907299999999,67.440322925,64.0,79.0
346,67.15907299999999,67.46162973749999,68.0,92.0
347,67.499982,67.74714102499999,64.0,73.0
348,67.499982,67.74714102499999,68.0,95.0
349,67.840891,68.21447044583333,68.0,107.0
350,68.1818,68.21447044583333,68.0,83.0
351,67.840891,68.3565158625,64.0,78.0
352,68.52270899999999,68.79685665416666,61.0,79.0
353,68.52270899999999,68.82668619166667,64.0,79.0
354,68.863618,69.17611791666667,64.0,83.0
355,68.863618,69.18179973333334,61.0,93.0
356,69.204527,69.47583374583333,63.0,78.0
357,69.204527,69.502822375,66.0,82.0
358,69.545436,69.8479927375,63.0,95.0
359,69.545436,69.86219727916666,66.0,82.0
360,69.88634499999999,70.09373130833333,68.0,72.0
361,69.88634499999999,70.15339038333333,64.0,72.0
362,70.227254,70.3849244125,64.0,73.0
363,70.227254,70.41191304166666,68.0,82.0
364,70.568163,70.76702658333333,68.0,82.0
365,70.568163,70.84799247083333,64.0,89.0
366,70.909072,71.18890147083333,64.0,89.0
367,70.909072,71.3650377875,68.0,70.0
368,71.24998099999999,71.49003775416666,64.0,77.0
369,71.24998099999999,71.50708320416666,61.0,96.0
370,71.59089,71.8252649375,61.0,96.0
371,71.59089,71.91333309583334,64.0,85.0
372,71.931799,72.19316256666666,69.0,90.0
373,71.931799,72.20168529166666,61.0,82.0
374,72.272708,72.59657155,61.0,77.0
375,72.272708,72.61503745416667,69.0,92.0
376,72.61361699999999,72.90196919583333,68.0,88.0
377,72.61361699999999,72.90338965,59.0,76.0
378,72.954526,73.22725319999999,68.0,71.0
379,72.954526,73.252821375,59.0,72.0
380,73.295435,73.66901444583333,68.0,75.0
381,73.636344,73.66901444583333,68.0,90.0
382,73.295435,73.8281053125,59.0,69.0
383,73.636344,73.8281053125,59.0,81.0
384,73.97725299999999,74.25708247083332,64.0,85.0
385,73.97725299999999,74.26986655833333,59.0,77.0
386,74.318162,74.65338918333333,64.0,76.0
387,74.318162,74.65623009166666,59.0,82.0
388,74.659071,74.84657095,63.0,95.0
389,74.659071,74.9531050125,68.0,90.0
390,74.99998,75.30395719166667,68.0,89.0
391,74.99998,75.30537764583333,63.0,81.0
392,75.34088899999999,75.622138925,66.0,83.0
393,75.34088899999999,75.62355937916666,59.0,74.0
394,75.681798,75.96872974166666,59.0,70.0
395,75.681798,75.97867292083333,66.0,69.0
396,76.363616,76.77412725416666,63.0,88.0
397,76.022707,76.80111588333332,66.0,82.0
398,76.363616,76.80111588333332,66.0,85.0
399,76.022707,76.89060449583333,59.0,78.0
400,76.704525,76.97441129166667,61.0,76.0
401,76.704525,76.97583174583333,64.0,82.0
402,77.045434,77.29401347916667,64.0,88.0
403,77.045434,77.38350209166666,61.0,85.0
404,77.386343,77.66049065416667,66.0,88.0
405,77.386343,77.66191110833333,63.0,86.0
406,77.727252,78.05111554999999,63.0,88.0
407,77.727252,78.12497916666666,66.0,93.0
408,78.068161,78.349410925,64.0,79.0
409,78.068161,78.3707177375,68.0,92.0
410,78.40907,78.656229025,64.0,73.0
411,78.40907,78.656229025,68.0,95.0
412,78.749979,79.12355844583332,68.0,107.0
413,79.09088799999999,79.12355844583332,68.0,83.0
414,78.749979,79.2656038625,64.0,78.0
415,79.431797,79.70594465416666,61.0,79.0
416,79.431797,79.73577419166666,64.0,79.0
417,79.772706,80.08520591666667,64.0,83.0
418,79.772706,80.09088773333333,61.0,93.0
419,80.113615,80.38492174583332,63.0,78.0
420,80.113615,80.41191037499999,66.0,82.0
421,80.45452399999999,80.75708073749999,63.0,95.0
422,80.45452399999999,80.77128527916666,66.0,82.0
423,80.795433,81.00281930833333,68.0,72.0
424,80.795433,81.06247838333333,64.0,72.0
425,81.136342,81.2940124125,64.0,73.0
426,81.136342,81.32100104166666,68.0,82.0
427,81.477251,81.67611458333333,68.0,82.0
428,81.477251,81.75708047083333,64.0,89.0
429,81.81815999999999,82.09798947083333,64.0,89.0
430,81.81815999999999,82.2741257875,68.0,70.0
431,82.159069,82.39912575416666,64.0,77.0
432,82.159069,82.41617120416666,61.0,96.0
433,82.499978,82.73435293749999,61.0,96.0
434,82.499978,82.82242109583333,64.0,85.0
435,82.840887,83.10225056666667,69.0,90.0
436,82.840887,83.11077329166666,61.0,82.0
437,83.18179599999999,83.50565954999999,61.0,77.0
438,83.18179599999999,83.52412545416666,69.0,92.0
439,83.522705,83.81105719583333,68.0,88.0
440,83.522705,83.81247764999999,59.0,76.0
441,83.863614,84.13634119999999,68.0,71.0
442,83.863614,84.161909375,59.0,72.0
443,84.204523,84.57810244583332,68.0,75.0
444,84.54543199999999,84.57810244583332,68.0,90.0
445,84.204523,84.7371933125,59.0,69.0
446,84.54543199999999,84.7371933125,59.0,81.0
447,84.886341,85.16617047083334,64.0,85.0
448,84.886341,85.17895455833333,59.0,77.0
449,85.22725,85.56247718333333,64.0,76.0
450,85.22725,85.56531809166667,59.0,82.0
451,85.568159,85.75565895,63.0,95.0
452,85.568159,85.8621930125,68.0,90.0
453,88.63633999999999,88.96020355,63.0,88.0
454,88.63633999999999,89.03406716666666,66.0,93.0
455,88.977249,89.258498925,64.0,79.0
456,88.977249,89.2798057375,68.0,92.0
457,89.318158,89.565317025,64.0,73.0
458,89.318158,89.565317025,68.0,95.0
459,89.659067,90.03264644583334,68.0,107.0
460,89.99997599999999,90.03264644583334,68.0,83.0
461,89.659067,90.1746918625,64.0,78.0
462,90.340885,90.61503265416667,61.0,79.0
463,90.340885,90.64486219166666,64.0,79.0
464,90.681794,90.99429391666666,64.0,83.0
465,90.681794,90.99997573333333,61.0,93.0
466,91.02270299999999,91.29400974583334,63.0,78.0
467,91.02270299999999,91.320998375,66.0,82.0
468,91.363612,91.6661687375,63.0,95.0
469,91.363612,91.68037327916666,66.0,82.0
470,91.704521,91.91190730833333,68.0,72.0
471,91.704521,91.97156638333333,64.0,72.0
472,92.04543,92.20310041249999,64.0,73.0
473,92.04543,92.23008904166666,68.0,82.0
474,92.38633899999999,92.58520258333333,68.0,82.0
475,92.38633899999999,92.66616847083333,64.0,89.0
476,92.727248,93.00707747083332,64.0,89.0
477,92.727248,93.1832137875,68.0,70.0
478,93.068157,93.30821375416666,64.0,77.0
479,93.068157,93.32525920416666,61.0,96.0
480,93.409066,93.6434409375,61.0,96.0
481,93.409066,93.73150909583333,64.0,85.0
482,93.74997499999999,94.01133856666667,69.0,90.0
483,93.74997499999999,94.01986129166666,61.0,82.0
484,94.090884,94.41474755,61.0,77.0
485,94.090884,94.43321345416666,69.0,92.0
486,94.431793,94.72014519583333,68.0,88.0
487,94.431793,94.72156565,59.0,76.0
488,94.772702,95.0454292,68.0,71.0
489,94.772702,95.07099737499999,59.0,72.0
490,95.11361099999999,95.48719044583333,68.0,75.0
491,95.45452,95.48719044583333,68.0,90.0
492,95.11361099999999,95.6462813125,59.0,69.0
493,95.45452,95.6462813125,59.0,81.0
494,95.795429,96.07525847083333,64.0,85.0
495,95.795429,96.08804255833333,59.0,77.0
496,96.136338,96.47156518333333,64.0,76.0
497,96.136338,96.47440609166667,59.0,82.0
498,96.47724699999999,96.66474695,63.0,95.0
499,96.47724699999999,96.7712810125,68.0,90.0
500,96.818156,97.12213319166666,68.0,89.0
501,96.818156,97.12355364583333,63.0,81.0
502,97.159065,97.440314925,66.0,83.0
503,97.159065,97.44173537916666,59.0,74.0
504,97.499974,97.78690574166666,59.0,70.0
505,97.499974,97.79684892083333,66.0,69.0
506,98.181792,98.59230325416667,63.0,88.0
507,97.84088299999999,98.61929188333333,66.0,82.0
508,98.181792,98.61929188333333,66.0,85.0
509,97.84088299999999,98.70878049583332,59.0,78.0
510,98.522701,98.79258729166666,61.0,76.0
511,98.522701,98.79400774583333,64.0,82.0
512,98.86361,99.11218947916666,64.0,88.0
513,98.86361,99.20167809166666,61.0,85.0
514,99.20451899999999,99.47866665416666,66.0,88.0
515,99.20451899999999,99.48008710833334,63.0,86.0
516,99.545428,99.86929155,63.0,88.0
517,99.545428,99.94315516666666,66.0,93.0
518,99.886337,100.167586925,64.0,79.0
519,99.886337,100.1888937375,68.0,92.0
520,100.227246,100.474405025,64.0,73.0
521,100.227246,100.474405025,68.0,95.0
522,100.56815499999999,100.94173444583333,68.0,107.0
523,100.909064,100.94173444583333,68.0,83.0
524,100.56815499999999,101.0837798625,64.0,78.0
525,101.249973,101.52412065416667,61.0,79.0
526,101.249973,101.55395019166666,64.0,79.0
527,101.590882,101.90338191666666,64.0,83.0
528,101.590882,101.90906373333333,61.0,93.0
529,101.93179099999999,102.20309774583333,63.0,78.0
530,101.93179099999999,102.230086375,66.0,82.0
531,102.2727,102.5752567375,63.0,95.0
532,102.2727,102.58946127916666,66.0,82.0
533,102.613609,102.82099530833332,68.0,72.0
534,102.613609,102.88065438333332,64.0,72.0
535,102.954518,103.11218841249999,64.0,73.0
536,102.954518,103.13917704166666,68.0,82.0
537,103.29542699999999,103.49429058333332,68.0,82.0
538,103.29542699999999,103.57525647083332,64.0,89.0
539,103.636336,103.91616547083333,64.0,89.0
540,103.636336,104.09230178749999,68.0,70.0
541,103.977245,104.21730175416667,64.0,77.0
542,103.977245,104.23434720416667,61.0,96.0
543,104.31815399999999,104.5525289375,61.0,96.0
544,104.31815399999999,104.64059709583333,64.0,85.0
545,104.65906299999999,104.92042656666666,69.0,90.0
546,104.65906299999999,104.92894929166667,61.0,82.0
547,104.999972,105.32383555,61.0,77.0
548,104.999972,105.34230145416666,69.0,92.0
549,105.340881,105.62923319583332,68.0,88.0
550,105.340881,105.63065365,59.0,76.0
551,105.68178999999999,105.9545172,68.0,71.0
552,105.68178999999999,105.980085375,59.0,72.0
553,106.02269899999999,106.39627844583333,68.0,75.0
554,106.363608,106.39627844583333,68.0,90.0
555,106.02269899999999,106.55536931249999,59.0,69.0
556,106.363608,106.55536931249999,59.0,81.0
557,106.704517,106.98434647083333,64.0,85.0
558,106.704517,106.99713055833332,59.0,77.0
559,107.04542599999999,107.38065318333332,64.0,76.0
560,107.04542599999999,107.38349409166666,59.0,82.0
561,107.386335,107.57383494999999,63.0,95.0
562,107.386335,107.6803690125,68.0,90.0
563,107.727244,108.03122119166666,68.0,89.0
564,107.727244,108.03264164583332,63.0,81.0
565,108.068153,108.34940292499999,66.0,83.0
566,108.068153,108.35082337916666,59.0,74.0
567,108.40906199999999,108.69599374166667,59.0,70.0
568,108.40906199999999,108.70593692083332,66.0,69.0
569,109.09088,109.50139125416666,63.0,88.0
570,108.749971,109.52837988333333,66.0,82.0
571,109.09088,109.52837988333333,66.0,85.0
572,108.749971,109.61786849583333,59.0,78.0
573,109.431789,109.70167529166666,61.0,76.0
574,109.431789,109.70309574583332,64.0,82.0
575,109.77269799999999,110.02127747916666,64.0,88.0
576,109.77269799999999,110.11076609166666,61.0,85.0
577,110.113607,110.38775465416666,66.0,88.0
578,110.113607,110.38917510833333,63.0,86.0
579,110.795425,111.17894762499999,68.0,77.0
580,111.13633399999999,111.50139072083333,69.0,74.0
581,111.477243,112.07525420416667,68.0,79.0
582,112.159061,112.56673134583333,68.0,72.0
583,112.49996999999999,112.83093582083333,69.0,72.0
584,112.840879,113.40479930416666,68.0,73.0
585,113.522697,113.76417420833333,73.0,66.0
586,114.204515,114.3621854125,73.0,81.0
587,114.886333,115.07241249583333,73.0,62.0
588,115.568151,115.7045146,73.0,59.0
589,116.249969,116.57383254999999,68.0,74.0
590,116.59087799999999,116.67326434166667,71.0,82.0
591,116.931787,117.02411652083333,76.0,72.0
592,117.61360499999999,117.78547995416666,68.0,50.0
593,117.95451399999999,118.07809351249999,71.0,70.0
594,118.295423,118.42184342083333,76.0,79.0
595,118.97724099999999,119.12496823333333,68.0,63.0
596,119.31814999999999,119.39627497916666,75.0,97.0
597,119.659059,119.73150216249999,80.0,112.0
598,120.34087699999999,120.60508147499999,68.0,82.0
599,120.68178599999999,120.82525187083333,75.0,100.0
600,121.022695,121.320990375,68.0,88.0
601,121.363604,121.68746755,63.0,88.0
602,121.363604,121.76133116666666,66.0,93.0
603,121.70451299999999,121.98576292499999,64.0,79.0
604,121.70451299999999,122.00706973749999,68.0,92.0
605,122.045422,122.29258102499999,64.0,73.0
606,122.045422,122.29258102499999,68.0,95.0
607,122.386331,122.75991044583333,68.0,107.0
608,122.72724,122.75991044583333,68.0,83.0
609,122.386331,122.90195586249999,64.0,78.0
610,123.06814899999999,123.34229665416666,61.0,79.0
611,123.06814899999999,123.37212619166667,64.0,79.0
612,123.409058,123.72155791666667,64.0,83.0
613,123.409058,123.72723973333333,61.0,93.0
614,123.749967,124.02127374583333,63.0,78.0
615,123.749967,124.048262375,66.0,82.0
616,124.090876,124.39343273749999,63.0,95.0
617,124.090876,124.40763727916666,66.0,82.0
618,124.43178499999999,124.63917130833333,68.0,72.0
619,124.43178499999999,124.69883038333333,64.0,72.0
620,124.772694,124.9303644125,64.0,73.0
621,124.772694,124.95735304166666,68.0,82.0
622,125.113603,125.31246658333333,68.0,82.0
623,125.113603,125.39343247083333,64.0,89.0
624,125.454512,125.73434147083333,64.0,89.0
625,125.454512,125.9104777875,68.0,70.0
626,125.79542099999999,126.03547775416666,64.0,77.0
627,125.79542099999999,126.05252320416666,61.0,96.0
628,126.13633,126.3707049375,61.0,96.0
629,126.13633,126.45877309583332,64.0,85.0
630,126.477239,126.73860256666666,69.0,90.0
631,126.477239,126.74712529166666,61.0,82.0
632,126.818148,127.14201154999999,61.0,77.0
633,126.818148,127.16047745416667,69.0,92.0
634,127.15905699999999,127.44740919583333,68.0,88.0
635,127.15905699999999,127.44882965,59.0,76.0
636,127.499966,127.77269319999999,68.0,71.0
637,127.499966,127.798261375,59.0,72.0
638,127.840875,128.21445444583333,68.0,75.0
639,128.181784,128.21445444583333,68.0,90.0
640,127.840875,128.3735453125,59.0,69.0
641,128.181784,128.3735453125,59.0,81.0
642,128.522693,128.80252247083334,64.0,85.0
643,128.522693,128.81530655833333,59.0,77.0
644,128.863602,129.19882918333332,64.0,76.0
645,128.863602,129.20167009166667,59.0,82.0
646,129.204511,129.39201094999999,63.0,95.0
647,129.204511,129.4985450125,68.0,90.0
648,129.54542,129.84939719166667,68.0,89.0
649,129.54542,129.85081764583333,63.0,81.0
650,129.886329,130.167578925,66.0,83.0
651,129.886329,130.16899937916665,59.0,74.0
652,130.227238,130.51416974166665,59.0,70.0
653,130.227238,130.52411292083332,66.0,69.0
654,130.909056,131.31956725416666,63.0,88.0
655,130.56814699999998,131.34655588333334,66.0,82.0
656,130.909056,131.34655588333334,66.0,85.0
657,130.56814699999998,131.43604449583333,59.0,78.0
658,131.249965,131.51985129166667,61.0,76.0
659,131.249965,131.52127174583333,64.0,82.0
660,131.59087399999999,131.83945347916665,64.0,88.0
661,131.59087399999999,131.92894209166667,61.0,85.0
662,131.931783,132.20593065416665,66.0,88.0
663,131.931783,132.20735110833334,63.0,86.0
664,132.272692,132.59655555,63.0,88.0
665,132.272692,132.67041916666665,66.0,93.0
666,132.613601,132.894850925,64.0,79.0
667,132.613601,132.9161577375,68.0,92.0
668,132.95451,133.201669025,64.0,73.0
669,132.95451,133.201669025,68.0,95.0
670,133.29541899999998,133.66899844583332,68.0,107.0
671,133.636328,133.66899844583332,68.0,83.0
672,133.29541899999998,133.8110438625,64.0,78.0
673,133.977237,134.25138465416666,61.0,79.0
674,133.977237,134.28121419166666,64.0,79.0
675,134.31814599999998,134.63064591666665,64.0,83.0
676,134.31814599999998,134.63632773333333,61.0,93.0
677,134.659055,134.93036174583332,63.0,78.0
678,134.659055,134.957350375,66.0,82.0
679,134.999964,135.3025207375,63.0,95.0
680,134.999964,135.31672527916666,66.0,82.0
681,135.340873,135.54825930833331,68.0,72.0
682,135.340873,135.60791838333333,64.0,72.0
683,135.681782,135.83945241249998,64.0,73.0
684,135.681782,135.86644104166666,68.0,82.0
685,136.02269099999998,136.22155458333333,68.0,82.0
686,136.02269099999998,136.30252047083331,64.0,89.0
687,136.3636,136.64342947083333,64.0,89.0
688,136.3636,136.81956578749998,68.0,70.0
689,136.704509,136.94456575416666,64.0,77.0
690,136.704509,136.96161120416667,61.0,96.0
691,137.04541799999998,137.2797929375,61.0,96.0
692,137.04541799999998,137.36786109583332,64.0,85.0
693,137.386327,137.64769056666665,69.0,90.0
694,137.386327,137.65621329166666,61.0,82.0
695,137.727236,138.05109955,61.0,77.0
696,137.727236,138.06956545416665,69.0,92.0
697,138.068145,138.35649719583333,68.0,88.0
698,138.068145,138.35791765,59.0,76.0
699,138.409054,138.6817812,68.0,71.0
700,138.409054,138.707349375,59.0,72.0
701,138.749963,139.12354244583332,68.0,75.0
702,139.090872,139.12354244583332,68.0,90.0
703,138.749963,139.2826333125,59.0,69.0
704,139.090872,139.2826333125,59.0,81.0
705,139.431781,139.71161047083334,64.0,85.0
706,139.431781,139.72439455833333,59.0,77.0
707,139.77268999999998,140.10791718333334,64.0,76.0
708,139.77268999999998,140.11075809166667,59.0,82.0
709,140.113599,140.30109894999998,63.0,95.0
710,140.113599,140.40763301249999,68.0,90.0
711,140.454508,140.75848519166667,68.0,89.0
712,140.454508,140.75990564583333,63.0,81.0
713,140.795417,141.07666692499998,66.0,83.0
714,140.795417,141.07808737916667,59.0,74.0
715,141.136326,141.42325774166667,59.0,70.0
716,141.136326,141.43320092083331,66.0,69.0
717,141.818144,142.22865525416665,63.0,88.0
718,141.477235,142.25564388333333,66.0,82.0
719,141.818144,142.25564388333333,66.0,85.0
720,141.477235,142.34513249583333,59.0,78.0
721,142.159053,142.42893929166667,61.0,76.0
722,142.159053,142.43035974583333,64.0,82.0
723,142.49996199999998,142.74854147916665,64.0,88.0
724,142.49996199999998,142.83803009166667,61.0,85.0
725,142.840871,143.11501865416665,66.0,88.0
726,142.840871,143.11643910833334,63.0,86.0
727,143.18178,143.50564355,63.0,88.0
728,143.18178,143.57950716666667,66.0,93.0
729,143.52268899999999,143.80393892499998,64.0,79.0
730,143.52268899999999,143.82524573749998,68.0,92.0
731,143.863598,144.110757025,64.0,73.0
732,143.863598,144.110757025,68.0,95.0
733,144.204507,144.57808644583332,68.0,107.0
734,144.545416,144.57808644583332,68.0,83.0
735,144.204507,144.72013186249998,64.0,78.0
736,144.886325,145.16047265416665,61.0,79.0
737,144.886325,145.19030219166666,64.0,79.0
738,145.22723399999998,145.53973391666665,64.0,83.0
739,145.22723399999998,145.54541573333333,61.0,93.0
740,145.568143,145.83944974583332,63.0,78.0
741,145.568143,145.866438375,66.0,82.0
742,145.909052,146.2116087375,63.0,95.0
743,145.909052,146.22581327916666,66.0,82.0
744,146.24996099999998,146.45734730833334,68.0,72.0
745,146.24996099999998,146.51700638333332,64.0,72.0
746,146.59087,146.7485404125,64.0,73.0
747,146.59087,146.77552904166666,68.0,82.0
748,146.931779,147.13064258333333,68.0,82.0
749,146.931779,147.21160847083334,64.0,89.0
750,147.272688,147.55251747083332,64.0,89.0
751,147.272688,147.7286537875,68.0,70.0
752,147.613597,147.85365375416666,64.0,77.0
753,147.613597,147.87069920416667,61.0,96.0
754,147.95450599999998,148.1888809375,61.0,96.0
755,147.95450599999998,148.27694909583332,64.0,85.0
756,148.295415,148.55677856666665,69.0,90.0
757,148.295415,148.56530129166666,61.0,82.0
758,148.636324,148.96018755,61.0,77.0
759,148.636324,148.97865345416665,69.0,92.0
760,148.97723299999998,149.26558519583332,68.0,88.0
761,148.97723299999998,149.26700565,59.0,76.0
762,149.318142,149.5908692,68.0,71.0
763,149.318142,149.616437375,59.0,72.0
764,149.659051,150.03263044583332,68.0,75.0
765,149.99996,150.03263044583332,68.0,90.0
766,149.659051,150.1917213125,59.0,69.0
767,149.99996,150.1917213125,59.0,81.0
768,150.340869,150.62069847083333,64.0,85.0
769,150.340869,150.63348255833333,59.0,77.0
770,150.68177799999998,151.01700518333334,64.0,76.0
771,150.68177799999998,151.01984609166666,59.0,82.0
772,151.022687,151.21018695,63.0,95.0
773,151.022687,151.31672101249998,68.0,90.0
774,151.363596,151.66757319166666,68.0,89.0
775,151.363596,151.66899364583332,63.0,81.0
776,151.70450499999998,151.98575492499998,66.0,83.0
777,151.70450499999998,151.98717537916667,59.0,74.0
778,152.045414,152.33234574166667,59.0,70.0
779,152.045414,152.34228892083334,66.0,69.0
780,152.727232,153.13774325416665,63.0,88.0
781,152.386323,153.16473188333333,66.0,82.0
782,152.727232,153.16473188333333,66.0,85.0
783,152.386323,153.25422049583332,59.0,78.0
784,153.068141,153.33802729166666,61.0,76.0
785,153.068141,153.33944774583333,64.0,82.0
786,153.40905,153.65762947916667,64.0,88.0
787,153.40905,153.74711809166666,61.0,85.0
788,153.749959,154.02410665416667,66.0,88.0
789,153.749959,154.02552710833334,63.0,86.0
790,154.090868,154.41473155,63.0,88.0
791,154.090868,154.48859516666667,66.0,93.0
792,154.43177699999998,154.71302692499998,64.0,79.0
793,154.43177699999998,154.73433373749998,68.0,92.0
794,154.772686,155.019845025,64.0,73.0
795,154.772686,155.019845025,68.0,95.0
796,155.113595,155.48717444583332,68.0,107.0
797,155.454504,155.48717444583332,68.0,83.0
798,155.113595,155.62921986249998,64.0,78.0
799,155.795413,156.06956065416665,61.0,79.0
800,155.795413,156.09939019166666,64.0,79.0
801,156.136322,156.44882191666667,64.0,83.0
802,156.136322,156.45450373333333,61.0,93.0
803,156.477231,156.74853774583332,63.0,78.0
804,156.477231,156.775526375,66.0,82.0
805,156.81814,157.1206967375,63.0,95.0
806,156.81814,157.13490127916666,66.0,82.0
807,157.15904899999998,157.36643530833334,68.0,72.0
808,157.15904899999998,157.42609438333332,64.0,72.0
809,157.499958,157.6576284125,64.0,73.0
810,157.499958,157.68461704166666,68.0,82.0
811,157.840867,158.03973058333332,68.0,82.0
812,157.840867,158.12069647083334,64.0,89.0
813,158.18177599999999,158.46160547083332,64.0,89.0
814,158.18177599999999,158.6377417875,68.0,70.0
815,158.522685,158.76274175416665,64.0,77.0
816,158.522685,158.77978720416667,61.0,96.0
817,158.863594,159.09796893749999,61.0,96.0
818,158.863594,159.1860370958333,64.0,85.0
819,159.204503,159.46586656666665,69.0,90.0
820,159.204503,159.47438929166665,61.0,82.0
821,159.545412,159.86927555,61.0,77.0
822,159.545412,159.88774145416667,69.0,92.0
823,159.88632099999998,160.17467319583332,68.0,88.0
824,159.88632099999998,160.17609364999998,59.0,76.0
825,160.22723,160.49995719999998,68.0,71.0
826,160.22723,160.525525375,59.0,72.0
827,160.568139,160.94171844583332,68.0,75.0
828,160.90904799999998,160.94171844583332,68.0,90.0
829,160.568139,161.1008093125,59.0,69.0
830,160.90904799999998,161.1008093125,59.0,81.0
831,161.249957,161.52978647083333,64.0,85.0
832,161.249957,161.54257055833332,59.0,77.0
833,161.590866,161.92609318333334,64.0,76.0
834,161.590866,161.92893409166666,59.0,82.0
835,161.931775,162.11927495,63.0,95.0
836,161.931775,162.22580901249998,68.0,90.0
837,164.999956,165.34796727083332,66.0,88.0
838,165.34086499999998,165.59086493333334,68.0,82.0
839,165.681774,165.9204103,68.0,89.0
840,166.022683,167.51700078333332,68.0,96.0
841,167.386319,167.6633075625,66.0,96.0
842,167.727228,168.12069380416665,66.0,82.0
843,168.068137,168.33802329166667,68.0,86.0
844,168.409046,168.70165955833332,68.0,82.0
845,168.749955,170.73290901666667,68.0,88.0
846,170.4545,170.8678521625,66.0,83.0
847,170.795409,171.07949983333333,68.0,92.0
848,171.136318,171.400522475,68.0,77.0
849,172.84086299999998,173.105067475,64.0,69.0
850,172.84086299999998,173.11643110833333,61.0,79.0
851,171.477227,173.11927201666666,68.0,95.0
852,173.181772,173.69313549999998,61.0,77.0
853,173.181772,173.71444231249998,64.0,71.0
854,173.522681,173.71444231249998,64.0,63.0
855,173.522681,173.803930925,68.0,72.0
856,173.86359,174.1064876625,64.0,70.0
857,173.86359,174.1064876625,68.0,68.0
858,174.204499,175.96870307499998,64.0,83.0
859,174.204499,176.01273715416667,68.0,89.0
860,175.909044,176.25705527083332,66.0,88.0
861,176.249953,176.49995293333333,68.0,82.0
862,176.590862,176.82949829999998,68.0,89.0
863,176.931771,178.4260887833333,68.0,96.0
864,178.29540699999998,178.5723955625,66.0,96.0
865,178.636316,179.02978180416665,66.0,82.0
866,178.977225,179.24711129166667,68.0,86.0
867,179.318134,179.61074755833332,68.0,82.0
868,179.659043,181.64199701666666,68.0,88.0
869,181.363588,181.77694016249998,66.0,83.0
870,181.704497,181.98858783333333,68.0,92.0
871,182.04540599999999,182.309610475,68.0,77.0
872,183.74995099999998,184.014155475,64.0,69.0
873,183.74995099999998,184.02551910833333,61.0,79.0
874,182.386315,184.02836001666665,68.0,95.0
875,184.09086,184.60222349999998,61.0,77.0
876,184.09086,184.62353031249998,64.0,71.0
877,184.431769,184.62353031249998,64.0,63.0
878,184.431769,184.713018925,68.0,72.0
879,184.77267799999998,185.0155756625,64.0,70.0
880,184.77267799999998,185.0155756625,68.0,68.0
881,185.113587,186.877791075,64.0,83.0
882,185.113587,186.92182515416667,68.0,89.0
883,186.818132,187.14199555,63.0,88.0
884,186.818132,187.21585916666666,66.0,93.0
885,187.159041,187.440290925,64.0,79.0
886,187.159041,187.4615977375,68.0,92.0
887,187.49994999999998,187.747109025,64.0,73.0
888,187.49994999999998,187.747109025,68.0,95.0
889,187.840859,188.21443844583334,68.0,107.0
890,188.181768,188.21443844583334,68.0,83.0
891,187.840859,188.3564838625,64.0,78.0
892,188.522677,188.79682465416667,61.0,79.0
893,188.522677,188.82665419166665,64.0,79.0
894,188.863586,189.17608591666666,64.0,83.0
895,188.863586,189.18176773333332,61.0,93.0
896,189.20449499999998,189.47580174583334,63.0,78.0
897,189.20449499999998,189.502790375,66.0,82.0
898,189.545404,189.8479607375,63.0,95.0
899,189.545404,189.86216527916665,66.0,82.0
900,189.886313,190.09369930833333,68.0,72.0
901,189.886313,190.1533583833333,64.0,72.0
902,190.22722199999998,190.3848924125,64.0,73.0
903,190.22722199999998,190.41188104166665,68.0,82.0
904,190.568131,190.76699458333331,68.0,82.0
905,190.568131,190.84796047083333,64.0,89.0
906,190.90904,191.18886947083334,64.0,89.0
907,190.90904,191.3650057875,68.0,70.0
908,191.249949,191.49000575416665,64.0,77.0
909,191.249949,191.50705120416666,61.0,96.0
910,191.590858,191.8252329375,61.0,96.0
911,191.590858,191.91330109583333,64.0,85.0
912,191.93176699999998,192.19313056666667,69.0,90.0
913,191.93176699999998,192.20165329166664,61.0,82.0
914,192.272676,192.59653955,61.0,77.0
915,192.272676,192.61500545416666,69.0,92.0
916,192.613585,192.9019371958333,68.0,88.0
917,192.613585,192.90335765,59.0,76.0
918,192.95449399999998,193.2272212,68.0,71.0
919,192.95449399999998,193.252789375,59.0,72.0
920,193.295403,193.66898244583334,68.0,75.0
921,193.636312,193.66898244583334,68.0,90.0
922,193.295403,193.82807331249998,59.0,69.0
923,193.636312,193.82807331249998,59.0,81.0
924,193.977221,194.25705047083332,64.0,85.0
925,193.977221,194.26983455833332,59.0,77.0
926,194.31813,194.65335718333333,64.0,76.0
927,194.31813,194.65619809166665,59.0,82.0
928,194.65903899999998,194.84653895,63.0,95.0
929,194.65903899999998,194.9530730125,68.0,90.0
930,194.999948,195.30392519166665,68.0,89.0
931,194.999948,195.3053456458333,63.0,81.0
932,195.340857,195.622106925,66.0,83.0
933,195.340857,195.62352737916666,59.0,74.0
934,195.68176599999998,195.96869774166666,59.0,70.0
935,195.68176599999998,195.97864092083333,66.0,69.0
936,196.363584,196.77409525416667,63.0,88.0
937,196.022675,196.80108388333332,66.0,82.0
938,196.363584,196.80108388333332,66.0,85.0
939,196.022675,196.89057249583334,59.0,78.0
940,196.70449299999999,196.97437929166665,61.0,76.0
941,196.70449299999999,196.9757997458333,64.0,82.0
942,197.045402,197.29398147916666,64.0,88.0
943,197.045402,197.38347009166665,61.0,85.0
944,197.386311,197.66045865416666,66.0,88.0
945,197.386311,197.66187910833332,63.0,86.0
946,197.72722,198.05108355,63.0,88.0
947,197.72722,198.12494716666666,66.0,93.0
948,198.068129,198.349378925,64.0,79.0
949,198.068129,198.3706857375,68.0,92.0
950,198.40903799999998,198.65619702499998,64.0,73.0
951,198.40903799999998,198.65619702499998,68.0,95.0
952,198.749947,199.12352644583333,68.0,107.0
953,199.090856,199.12352644583333,68.0,83.0
954,198.749947,199.2655718625,64.0,78.0
955,199.43176499999998,199.70591265416667,61.0,79.0
956,199.43176499999998,199.73574219166665,64.0,79.0
957,199.772674,200.08517391666666,64.0,83.0
958,199.772674,200.0908557333333,61.0,93.0
959,200.113583,200.38488974583333,63.0,78.0
960,200.113583,200.411878375,66.0,82.0
961,200.454492,200.75704873749999,63.0,95.0
962,200.454492,200.77125327916667,66.0,82.0
963,200.795401,201.00278730833332,68.0,72.0
964,200.795401,201.06244638333334,64.0,72.0
965,201.13630999999998,201.2939804125,64.0,73.0
966,201.13630999999998,201.32096904166667,68.0,82.0
967,201.477219,201.6760825833333,68.0,82.0
968,201.477219,201.75704847083333,64.0,89.0
969,201.818128,202.09795747083334,64.0,89.0
970,201.818128,202.2740937875,68.0,70.0
971,202.15903699999998,202.39909375416667,64.0,77.0
972,202.15903699999998,202.41613920416665,61.0,96.0
973,202.499946,202.7343209375,61.0,96.0
974,202.499946,202.82238909583333,64.0,85.0
975,202.840855,203.10221856666666,69.0,90.0
976,202.840855,203.11074129166667,61.0,82.0
977,203.181764,203.50562754999999,61.0,77.0
978,203.181764,203.52409345416666,69.0,92.0
979,203.522673,203.81102519583334,68.0,88.0
980,203.522673,203.81244565,59.0,76.0
981,203.86358199999998,204.1363092,68.0,71.0
982,203.86358199999998,204.161877375,59.0,72.0
983,204.204491,204.57807044583333,68.0,75.0
984,204.5454,204.57807044583333,68.0,90.0
985,204.204491,204.73716131249998,59.0,69.0
986,204.5454,204.73716131249998,59.0,81.0
987,204.88630899999998,205.16613847083332,64.0,85.0
988,204.88630899999998,205.1789225583333,59.0,77.0
989,205.227218,205.56244518333332,64.0,76.0
990,205.227218,205.56528609166665,59.0,82.0
991,205.568127,205.75562695,63.0,95.0
992,205.568127,205.8621610125,68.0,90.0
993,205.909036,206.21301319166665,68.0,89.0
994,205.909036,206.21443364583334,63.0,81.0
995,206.249945,206.531194925,66.0,83.0
996,206.249945,206.53261537916666,59.0,74.0
997,206.59085399999998,206.87778574166666,59.0,70.0
998,206.59085399999998,206.88772892083333,66.0,69.0
999,207.272672,207.68318325416666,63.0,88.0
1000,206.931763,207.71017188333332,66.0,82.0
1001,207.272672,207.71017188333332,66.0,85.0
1002,206.931763,207.79966049583334,59.0,78.0
1003,207.61358099999998,207.88346729166665,61.0,76.0
1004,207.61358099999998,207.88488774583334,64.0,82.0
1005,207.95449,208.20306947916666,64.0,88.0
1006,207.95449,208.29255809166665,61.0,85.0
1007,208.295399,208.56954665416666,66.0,88.0
1008,208.295399,208.57096710833332,63.0,86.0
1009,208.63630799999999,208.96017154999998,63.0,88.0
1010,208.63630799999999,209.03403516666665,66.0,93.0
1011,208.977217,209.258466925,64.0,79.0
1012,208.977217,209.2797737375,68.0,92.0
1013,209.31812599999998,209.56528502499998,64.0,73.0
1014,209.31812599999998,209.56528502499998,68.0,95.0
1015,209.659035,210.03261444583333,68.0,107.0
1016,209.999944,210.03261444583333,68.0,83.0
1017,209.659035,210.1746598625,64.0,78.0
1018,210.34085299999998,210.61500065416666,61.0,79.0
1019,210.34085299999998,210.64483019166667,64.0,79.0
1020,210.681762,210.99426191666666,64.0,83.0
1021,210.681762,210.99994373333334,61.0,93.0
1022,211.022671,211.29397774583333,63.0,78.0
1023,211.022671,211.32096637499998,66.0,82.0
1024,211.36357999999998,211.66613673749998,63.0,95.0
1025,211.36357999999998,211.68034127916667,66.0,82.0
1026,211.704489,211.91187530833332,68.0,72.0
1027,211.704489,211.97153438333333,64.0,72.0
1028,212.04539799999998,212.2030684125,64.0,73.0
1029,212.04539799999998,212.23005704166667,68.0,82.0
1030,212.386307,212.58517058333334,68.0,82.0
1031,212.386307,212.66613647083332,64.0,89.0
1032,212.727216,213.00704547083333,64.0,89.0
1033,212.727216,213.1831817875,68.0,70.0
1034,213.06812499999998,213.30818175416667,64.0,77.0
1035,213.06812499999998,213.32522720416665,61.0,96.0
1036,213.409034,213.6434089375,61.0,96.0
1037,213.409034,213.73147709583333,64.0,85.0
1038,213.749943,214.01130656666666,69.0,90.0
1039,213.749943,214.01982929166667,61.0,82.0
1040,214.09085199999998,214.41471554999998,61.0,77.0
1041,214.09085199999998,214.43318145416666,69.0,92.0
1042,214.431761,214.72011319583333,68.0,88.0
1043,214.431761,214.72153365,59.0,76.0
1044,214.77267,215.0453972,68.0,71.0
1045,214.77267,215.070965375,59.0,72.0
1046,215.113579,215.48715844583333,68.0,75.0
1047,215.454488,215.48715844583333,68.0,90.0
1048,215.113579,215.6462493125,59.0,69.0
1049,215.454488,215.6462493125,59.0,81.0
1050,215.79539699999998,216.07522647083331,64.0,85.0
1051,215.79539699999998,216.08801055833334,59.0,77.0
1052,216.136306,216.47153318333332,64.0,76.0
1053,216.136306,216.47437409166665,59.0,82.0
1054,216.477215,216.66471495,63.0,95.0
1055,216.477215,216.7712490125,68.0,90.0
1056,216.81812399999998,217.12210119166664,68.0,89.0
1057,216.81812399999998,217.12352164583334,63.0,81.0
1058,217.159033,217.440282925,66.0,83.0
1059,217.159033,217.44170337916665,59.0,74.0
1060,217.499942,217.78687374166665,59.0,70.0
1061,217.499942,217.79681692083332,66.0,69.0
1062,218.18176,218.59227125416666,63.0,88.0
1063,217.840851,218.6192598833333,66.0,82.0
1064,218.18176,218.6192598833333,66.0,85.0
1065,217.840851,218.70874849583333,59.0,78.0
1066,218.52266899999998,218.79255529166664,61.0,76.0
1067,218.52266899999998,218.79397574583334,64.0,82.0
1068,218.863578,219.11215747916665,64.0,88.0
1069,218.863578,219.20164609166665,61.0,85.0
1070,219.204487,219.47863465416665,66.0,88.0
1071,219.204487,219.48005510833332,63.0,86.0
1072,219.54539599999998,219.86925954999998,63.0,88.0
1073,219.54539599999998,219.94312316666665,66.0,93.0
1074,219.886305,220.167554925,64.0,79.0
1075,219.886305,220.1888617375,68.0,92.0
1076,220.227214,220.47437302499998,64.0,73.0
1077,220.227214,220.47437302499998,68.0,95.0
1078,220.56812299999999,220.94170244583333,68.0,107.0
1079,220.909032,220.94170244583333,68.0,83.0
1080,220.56812299999999,221.0837478625,64.0,78.0
1081,221.24994099999998,221.52408865416666,61.0,79.0
1082,221.24994099999998,221.55391819166667,64.0,79.0
1083,221.59085,221.90334991666666,64.0,83.0
1084,221.59085,221.90903173333334,61.0,93.0
1085,221.931759,222.20306574583333,63.0,78.0
1086,221.931759,222.23005437499998,66.0,82.0
1087,222.27266799999998,222.57522473749998,63.0,95.0
1088,222.27266799999998,222.58942927916667,66.0,82.0
1089,222.613577,222.82096330833332,68.0,72.0
1090,222.613577,222.88062238333333,64.0,72.0
1091,222.954486,223.11215641249998,64.0,73.0
1092,222.954486,223.13914504166667,68.0,82.0
1093,223.29539499999998,223.49425858333333,68.0,82.0
1094,223.29539499999998,223.57522447083332,64.0,89.0
1095,223.636304,223.91613347083333,64.0,89.0
1096,223.636304,224.0922697875,68.0,70.0
1097,223.97721299999998,224.21726975416667,64.0,77.0
1098,223.97721299999998,224.23431520416665,61.0,96.0
1099,224.318122,224.5524969375,61.0,96.0
1100,224.318122,224.64056509583332,64.0,85.0
1101,224.659031,224.92039456666666,69.0,90.0
1102,224.659031,224.92891729166666,61.0,82.0
1103,224.99993999999998,225.32380354999998,61.0,77.0
1104,224.99993999999998,225.34226945416665,69.0,92.0
1105,225.340849,225.62920119583333,68.0,88.0
1106,225.340849,225.63062165,59.0,76.0
1107,225.681758,225.9544852,68.0,71.0
1108,225.681758,225.98005337499998,59.0,72.0
1109,226.02266699999998,226.39624644583333,68.0,75.0
1110,226.363576,226.39624644583333,68.0,90.0
1111,226.02266699999998,226.5553373125,59.0,69.0
1112,226.363576,226.5553373125,59.0,81.0
1113,226.70448499999998,226.9843144708333,64.0,85.0
1114,226.70448499999998,226.99709855833333,59.0,77.0
1115,227.045394,227.38062118333332,64.0,76.0
1116,227.045394,227.38346209166664,59.0,82.0
1117,227.386303,227.57380295,63.0,95.0
1118,227.386303,227.6803370125,68.0,90.0
1119,227.72721199999998,228.03118919166667,68.0,89.0
1120,227.72721199999998,228.03260964583333,63.0,81.0
1121,228.068121,228.349370925,66.0,83.0
1122,228.068121,228.35079137916665,59.0,74.0
1123,228.40903,228.69596174166665,59.0,70.0
1124,228.40903,228.70590492083332,66.0,69.0
1125,228.74993899999998,229.090848,59.0,78.0
1126,228.74993899999998,229.090848,66.0,82.0
