,start,end,pitch,velocity
0,12.613633,12.846587483333332,68.0,112.0
1,12.954542,13.228689654166667,68.0,107.0
2,13.295451,13.539769116666665,66.0,100.0
3,13.63636,13.985791724999999,66.0,117.0
4,13.977269,14.2031212125,64.0,93.0
5,14.318178,14.579541566666666,64.0,96.0
6,14.659087,14.903405116666667,63.0,102.0
7,14.999996,15.319598187499999,63.0,117.0
8,15.340905,15.576700391666666,64.0,92.0
9,15.681814,16.914768216666666,64.0,93.0
10,16.704541,16.934654575,59.0,88.0
11,17.04545,17.2159045,59.0,86.0
12,17.386359,17.998574745833334,59.0,99.0
13,18.068177,19.5298243375,68.0,112.0
14,19.431813,19.626415220833334,59.0,83.0
15,19.772721999999998,19.936074229166667,59.0,86.0
16,20.113630999999998,20.708801295833332,59.0,95.0
17,20.795448999999998,22.812493916666664,66.0,112.0
18,23.522721,23.7741413875,68.0,102.0
19,23.86363,24.134936745833333,68.0,107.0
20,24.204539,24.440334391666667,66.0,112.0
21,24.545448,24.860788825,66.0,112.0
22,24.886357,25.133516025,64.0,100.0
23,25.227266,25.622152258333333,64.0,100.0
24,25.568175,25.764197675,63.0,107.0
25,25.909084,26.1775498375,63.0,122.0
26,26.249993,26.39772023333333,64.0,96.0
27,26.590902,26.7485724125,64.0,89.0
28,26.761356499999998,26.937492816666666,63.0,97.0
29,26.931811,27.717322154166666,61.0,97.0
30,27.613629,27.792606225,59.0,75.0
31,27.954538,28.124992499999998,59.0,89.0
32,28.295447,28.96306045833333,59.0,97.0
33,28.977265,30.24146920833333,68.0,112.0
34,30.340901,30.552548670833332,59.0,89.0
35,30.68181,30.860787225,59.0,97.0
36,31.022719,31.705957454166665,59.0,93.0
37,31.704537,33.896297779166666,66.0,117.0
38,34.0909,34.251411320833334,61.0,112.0
39,34.261354499999996,34.404820370833335,63.0,96.0
40,34.431809,34.644877125,61.0,102.0
41,34.6022635,34.7258430125,63.0,107.0
42,34.772718,34.9389111375,64.0,96.0
43,34.943172499999996,35.0582292875,63.0,107.0
44,35.113627,35.2627746875,64.0,93.0
45,35.2840815,35.4076610125,66.0,100.0
46,35.454536,35.59800187083333,68.0,112.0
47,35.624990499999996,35.77697909583333,69.0,71.0
48,35.795445,35.94743359583333,68.0,112.0
49,35.9658995,36.176126716666666,69.0,65.0
50,36.136354,36.2428880625,68.0,117.0
51,36.6477175,36.72158111666666,61.0,107.0
52,36.818172,36.907660612499996,61.0,96.0
53,36.988626499999995,37.079535566666664,63.0,99.0
54,37.159081,37.274137787499996,63.0,97.0
55,37.3295355,37.42470592916666,63.0,90.0
56,37.49999,37.61646724166666,64.0,96.0
57,37.670444499999995,37.815330825,63.0,100.0
58,37.840899,37.95311487916666,64.0,89.0
59,38.0113535,38.149137554166664,66.0,89.0
60,38.3522625,38.51277382083333,69.0,82.0
61,38.181808,38.5440238125,68.0,112.0
62,38.522717,38.5440238125,68.0,122.0
63,39.204535,39.33521678333333,64.0,95.0
64,39.3749895,39.52839855,66.0,95.0
65,39.545443999999996,39.7968643875,68.0,122.0
66,39.7158985,39.90623935833333,69.0,93.0
67,39.886353,40.25425062916666,68.0,107.0
68,40.568171,40.69885278333333,64.0,95.0
69,40.7386255,40.8749891,66.0,93.0
70,40.909079999999996,41.110784491666664,68.0,93.0
71,41.0795345,41.276977629166666,69.0,85.0
72,41.249989,41.6548184375,68.0,102.0
73,41.590897999999996,41.71021615,66.0,122.0
74,41.931807,42.262772820833334,64.0,93.0
75,42.272715999999996,43.995726904166666,66.0,107.0
76,44.999987999999995,45.1576584125,64.0,107.0
77,45.340897,45.59657875,64.0,112.0
78,45.681806,45.857942316666666,64.0,127.0
79,46.022715,46.2315217625,66.0,122.0
80,46.363624,46.5979989375,66.0,122.0
81,46.704533,46.8408966,68.0,117.0
82,47.556805499999996,47.6249873,71.0,99.0
83,47.045442,47.68748728333333,68.0,127.0
84,47.72726,48.00140765416666,71.0,96.0
85,48.068169,48.2727144,73.0,122.0
86,48.409078,49.832373075,73.0,127.0
87,50.454532,50.78549782083333,64.0,100.0
88,50.795441,50.863622799999995,66.0,107.0
89,51.13635,51.519872625,66.0,122.0
90,51.477259,51.73578165833333,68.0,96.0
91,51.818168,52.150554275,68.0,127.0
92,52.159076999999996,52.37782694166666,71.0,102.0
93,52.499986,52.778395016666664,71.0,122.0
94,53.011349499999994,53.14913355416667,64.0,99.0
95,53.181804,53.33521305,68.0,112.0
96,53.522712999999996,53.643451604166664,66.0,122.0
97,53.863622,55.20453073333333,66.0,127.0
98,55.909076,56.0113487,64.0,107.0
99,56.249984999999995,56.377825875,64.0,102.0
100,56.590894,56.911916641666664,64.0,99.0
101,56.931802999999995,57.144871124999995,66.0,122.0
102,57.272712,57.52839375,66.0,127.0
103,57.613620999999995,57.79401867916666,68.0,127.0
104,57.95453,58.4658935,68.0,127.0
105,58.4658935,58.529813937499995,71.0,99.0
106,58.636348,58.897711566666665,71.0,95.0
107,58.977256999999994,59.204529666666666,73.0,117.0
108,59.318166,60.81674514583333,73.0,122.0
109,61.36362,61.7002676375,64.0,107.0
110,61.704529,61.883506225,66.0,122.0
111,62.045438,62.359358370833334,66.0,127.0
112,62.386347,62.62782420833333,68.0,112.0
113,62.727256,62.9957218375,68.0,112.0
114,63.068165,63.28833539583333,71.0,117.0
115,63.409074,63.721573916666664,71.0,122.0
116,63.9204375,64.03975565,64.0,93.0
117,64.090892,64.25424422916666,68.0,127.0
118,64.431801,64.52413052083332,66.0,122.0
119,64.77271,65.39202801666666,66.0,127.0
120,65.28407349999999,65.40623255833333,64.0,89.0
121,65.454528,65.68748248333333,69.0,112.0
122,65.79543699999999,66.0298119375,68.0,127.0
123,66.136346,66.38066411666667,66.0,127.0
124,66.477255,66.79117537083333,64.0,117.0
125,66.818164,66.95168669166667,64.0,112.0
126,66.9886185,67.06816393333332,71.0,99.0
127,67.15907299999999,67.27128887916666,71.0,99.0
128,67.499982,67.59231152083333,71.0,127.0
129,67.840891,67.96305005833334,71.0,127.0
130,68.1818,68.47157265,64.0,107.0
131,68.6931635,68.93322025416667,64.0,122.0
132,69.204527,69.5923109875,61.0,127.0
133,70.7386175,70.8366288375,61.0,99.0
134,70.909072,71.1434469375,69.0,100.0
135,71.24998099999999,71.480094575,68.0,127.0
136,71.59089,71.90481037083333,66.0,127.0
137,71.931799,72.12782167499999,64.0,117.0
138,72.272708,72.39912842083334,64.0,117.0
139,72.4431625,72.53123065833333,71.0,96.0
140,72.61361699999999,72.74713969166666,71.0,95.0
141,72.954526,73.06674187916667,71.0,127.0
142,73.295435,73.42469632916666,71.0,127.0
143,73.636344,73.8281053125,64.0,112.0
144,74.1477075,74.22157111666667,64.0,92.0
145,74.318162,74.54827557499999,64.0,92.0
146,74.659071,75.14770723333334,63.0,122.0
147,76.1931615,76.30679783333333,64.0,95.0
148,76.363616,76.62355911249999,69.0,117.0
149,76.704525,77.00424082916666,68.0,127.0
150,77.045434,77.29969529583333,66.0,127.0
151,77.386343,77.63208157083334,61.0,122.0
152,77.727252,77.923274675,64.0,127.0
153,77.8977065,77.97583147916666,71.0,100.0
154,78.068161,78.1576496125,71.0,99.0
155,78.40907,78.49997906666667,71.0,127.0
156,78.749979,78.90054714166666,71.0,127.0
157,79.09088799999999,79.31389930416667,64.0,122.0
158,79.6022515,79.68747875,64.0,100.0
159,79.772706,79.951683225,64.0,100.0
160,80.113615,80.4502626375,61.0,127.0
161,81.6477055,81.73151229583333,61.0,122.0
162,81.81815999999999,82.03264857916666,69.0,112.0
163,82.159069,82.38065985,68.0,127.0
164,82.499978,82.72725066666666,66.0,127.0
165,82.840887,83.01276195416666,64.0,122.0
166,83.18179599999999,83.30679596666667,64.0,122.0
167,83.3522505,83.4332163875,71.0,99.0
168,83.522705,83.65622769166666,71.0,100.0
169,83.863614,84.03975031666667,71.0,127.0
170,84.204523,84.39912522083333,71.0,117.0
171,84.54543199999999,84.72725013333333,64.0,112.0
172,85.05679549999999,85.13918184166667,64.0,93.0
173,85.22725,85.42469312916667,64.0,99.0
174,85.568159,87.68889707083333,63.0,127.0
175,88.977249,89.21020348333333,68.0,112.0
176,89.318158,89.59230565416667,68.0,107.0
177,89.659067,89.90338511666667,66.0,100.0
178,89.99997599999999,90.34940772499999,66.0,117.0
179,90.340885,90.5667372125,64.0,93.0
180,90.681794,90.94315756666666,64.0,96.0
181,91.02270299999999,91.26702111666667,63.0,102.0
182,91.363612,91.6832141875,63.0,117.0
183,91.704521,91.94031639166667,64.0,92.0
184,92.04543,92.87781614166666,64.0,93.0
185,93.068157,93.29827057499999,59.0,88.0
186,93.409066,93.5795205,59.0,86.0
187,93.74997499999999,94.36219074583333,59.0,99.0
188,94.431793,95.45452,68.0,112.0
189,95.795429,95.99003122083333,59.0,83.0
190,96.136338,96.29969022916666,59.0,86.0
191,96.47724699999999,97.07241729583333,59.0,95.0
192,97.159065,99.545428,66.0,112.0
193,99.886337,100.1377573875,68.0,102.0
194,100.227246,100.49855274583332,68.0,107.0
195,100.56815499999999,100.80395039166666,66.0,112.0
196,100.909064,101.224404825,66.0,112.0
197,101.249973,101.497132025,64.0,100.0
198,101.590882,101.98576825833332,64.0,100.0
199,101.93179099999999,102.127813675,63.0,107.0
200,102.2727,102.54116583749999,63.0,122.0
201,102.613609,102.76133623333332,64.0,96.0
202,102.954518,103.11218841249999,64.0,89.0
203,103.1249725,103.30110881666667,63.0,97.0
204,103.29542699999999,104.08093815416666,61.0,97.0
205,103.977245,104.156222225,59.0,75.0
206,104.31815399999999,104.4886085,59.0,89.0
207,104.65906299999999,105.32667645833332,59.0,97.0
208,105.340881,106.60508520833334,68.0,112.0
209,106.704517,106.91616467083333,59.0,89.0
210,107.04542599999999,107.22440322499999,59.0,97.0
211,107.386335,108.06957345416666,59.0,93.0
212,108.068153,110.25991377916667,66.0,117.0
213,110.454516,110.61502732083333,61.0,112.0
214,110.62497049999999,110.76843637083333,63.0,96.0
215,110.795425,111.008493125,61.0,102.0
216,110.9658795,111.0894590125,63.0,107.0
217,111.13633399999999,111.3025271375,64.0,96.0
218,111.3067885,111.42184528749999,63.0,107.0
219,111.477243,111.62639068749999,64.0,93.0
220,111.64769749999999,111.7712770125,66.0,100.0
221,111.818152,111.96161787083332,68.0,112.0
222,111.98860649999999,112.14059509583333,69.0,71.0
223,112.159061,112.31104959583332,68.0,112.0
224,112.3295155,112.53974271666667,69.0,65.0
225,112.49996999999999,112.6065040625,68.0,117.0
226,113.01133349999999,113.08519711666666,61.0,107.0
227,113.181788,113.27127661249999,61.0,96.0
228,113.35224249999999,113.44315156666666,63.0,99.0
229,113.522697,113.63775378749999,63.0,97.0
230,113.6931515,113.78832192916666,63.0,90.0
231,113.86360599999999,113.98008324166666,64.0,96.0
232,114.0340605,114.178946825,63.0,100.0
233,114.204515,114.31673087916666,64.0,89.0
234,114.37496949999999,114.51275355416666,66.0,89.0
235,114.545424,114.78263984583333,68.0,112.0
236,114.7158785,114.87638982083332,69.0,82.0
237,114.886333,115.12781020833333,68.0,122.0
238,115.568151,115.69883278333333,64.0,95.0
239,115.73860549999999,115.89201455,66.0,95.0
240,115.90906,116.1604803875,68.0,122.0
241,116.0795145,116.26985535833333,69.0,93.0
242,116.249969,116.61786662916666,68.0,107.0
243,116.931787,117.06246878333333,64.0,95.0
244,117.10224149999999,117.2386051,66.0,93.0
245,117.272696,117.47440049166666,68.0,93.0
246,117.4431505,117.64059362916666,69.0,85.0
247,117.61360499999999,118.01843443749999,68.0,102.0
248,117.95451399999999,118.07383215,66.0,122.0
249,118.295423,118.62638882083333,64.0,93.0
250,118.636332,120.35934290416667,66.0,107.0
251,121.363604,121.52127441249999,64.0,107.0
252,121.70451299999999,121.96019475,64.0,112.0
253,122.045422,122.22155831666666,64.0,127.0
254,122.386331,122.5951377625,66.0,122.0
255,122.72724,122.9616149375,66.0,122.0
256,123.06814899999999,123.2045126,68.0,117.0
257,123.409058,123.79684198749999,68.0,127.0
258,123.92042149999999,123.9886033,71.0,99.0
259,124.090876,124.36502365416666,71.0,96.0
260,124.43178499999999,124.63633039999999,73.0,122.0
261,124.772694,126.195989075,73.0,127.0
262,126.818148,127.00848885833332,64.0,100.0
263,127.15905699999999,127.2272388,66.0,107.0
264,127.499966,127.883488625,66.0,122.0
265,127.840875,128.09939765833332,68.0,96.0
266,128.181784,128.514170275,68.0,127.0
267,128.522693,128.74144294166666,71.0,102.0
268,128.863602,129.14201101666666,71.0,122.0
269,129.3749655,129.51274955416667,64.0,99.0
270,129.54542,129.69882905,68.0,112.0
271,129.886329,130.00706760416665,66.0,122.0
272,130.227238,131.56814673333332,66.0,127.0
273,132.272692,132.3749647,64.0,107.0
274,132.613601,132.741441875,64.0,102.0
275,132.95451,133.27553264166667,64.0,99.0
276,133.29541899999998,133.508487125,66.0,122.0
277,133.636328,133.89200975,66.0,127.0
278,133.977237,134.15763467916665,68.0,127.0
279,134.31814599999998,134.8295095,68.0,127.0
280,134.8295095,134.8934299375,71.0,99.0
281,134.999964,135.26132756666667,71.0,95.0
282,135.340873,135.56814566666665,73.0,117.0
283,135.681782,137.18036114583333,73.0,122.0
284,137.727236,138.0638836375,64.0,107.0
285,138.068145,138.247122225,66.0,122.0
286,138.409054,138.72297437083333,66.0,127.0
287,138.749963,138.99144020833333,68.0,112.0
288,139.090872,139.3593378375,68.0,112.0
289,139.431781,139.65195139583332,71.0,117.0
290,139.77268999999998,140.08518991666665,71.0,122.0
291,140.2840535,140.40337165,64.0,93.0
292,140.454508,140.61786022916667,68.0,127.0
293,140.795417,140.88774652083333,66.0,122.0
294,141.136326,141.75564401666665,66.0,127.0
295,141.64768949999998,141.76984855833334,64.0,89.0
296,141.818144,142.05109848333333,69.0,112.0
297,142.159053,142.3934279375,68.0,127.0
298,142.49996199999998,142.74428011666666,66.0,127.0
299,142.840871,143.15479137083332,64.0,117.0
300,143.18178,143.31530269166666,64.0,112.0
301,143.35223449999998,143.43177993333333,71.0,99.0
302,143.52268899999999,143.63490487916667,71.0,99.0
303,143.863598,143.95592752083334,71.0,127.0
304,144.204507,144.32666605833333,71.0,127.0
305,144.545416,144.83518865,64.0,107.0
306,145.0567795,145.29683625416666,64.0,122.0
307,145.568143,145.9559269875,61.0,127.0
308,147.10223349999998,147.20024483749998,61.0,99.0
309,147.272688,147.5070629375,69.0,100.0
310,147.613597,147.843710575,68.0,127.0
311,147.95450599999998,148.26842637083334,66.0,127.0
312,148.295415,148.491437675,64.0,117.0
313,148.636324,148.76274442083331,64.0,117.0
314,148.8067785,148.89484665833334,71.0,96.0
315,148.97723299999998,149.11075569166667,71.0,95.0
316,149.318142,149.43035787916665,71.0,127.0
317,149.659051,149.78831232916667,71.0,127.0
318,149.99996,150.1917213125,64.0,112.0
319,150.5113235,150.58518711666667,64.0,92.0
320,150.68177799999998,150.911891575,64.0,92.0
321,151.022687,151.51132323333331,63.0,122.0
322,152.55677749999998,152.67041383333333,64.0,95.0
323,152.727232,152.98717511249998,69.0,117.0
324,153.068141,153.36785682916667,68.0,127.0
325,153.40905,153.66331129583332,66.0,127.0
326,153.749959,153.99569757083333,61.0,122.0
327,154.090868,154.286890675,64.0,127.0
328,154.2613225,154.33944747916667,71.0,100.0
329,154.43177699999998,154.5212656125,71.0,99.0
330,154.772686,154.86359506666665,71.0,127.0
331,155.113595,155.26416314166667,71.0,127.0
332,155.454504,155.67751530416666,64.0,122.0
333,155.9658675,156.05109475,64.0,100.0
334,156.136322,156.315299225,64.0,100.0
335,156.477231,156.81387863749998,61.0,127.0
336,158.01132149999998,158.09512829583332,61.0,122.0
337,158.18177599999999,158.39626457916665,69.0,112.0
338,158.522685,158.74427584999998,68.0,127.0
339,158.863594,159.09086666666667,66.0,127.0
340,159.204503,159.37637795416666,64.0,122.0
341,159.545412,159.67041196666665,64.0,122.0
342,159.7158665,159.7968323875,71.0,99.0
343,159.88632099999998,160.01984369166667,71.0,100.0
344,160.22723,160.40336631666665,71.0,127.0
345,160.568139,160.76274122083333,71.0,117.0
346,160.90904799999998,161.09086613333332,64.0,112.0
347,161.4204115,161.50279784166665,64.0,93.0
348,161.590866,161.78830912916666,64.0,99.0
349,161.931775,163.63631999999998,63.0,127.0
350,163.977229,164.318138,63.0,112.0
351,164.318138,164.50705840416666,64.0,95.0
352,164.659047,165.03262644583333,61.0,112.0
353,165.681774,165.9076262125,64.0,127.0
354,166.022683,166.57523967083333,63.0,112.0
355,166.704501,167.35790991666667,59.0,117.0
356,167.386319,168.00989837916666,63.0,117.0
357,168.068137,168.2343301375,64.0,99.0
358,169.772682,169.91614787083333,64.0,107.0
359,170.11359099999999,170.795409,63.0,117.0
360,170.795409,171.10364755416666,59.0,107.0
361,171.477227,172.01557912916667,54.0,89.0
362,172.159045,172.85364708749998,59.0,93.0
363,172.84086299999998,174.656203425,56.0,97.0
364,174.886317,175.20733964166666,68.0,122.0
365,175.227226,175.56529409166666,66.0,99.0
366,175.56813499999998,176.09938485833334,64.0,96.0
367,176.590862,176.72864605416666,64.0,97.0
368,176.931771,177.54114583749998,63.0,117.0
369,177.613589,178.17608884999999,59.0,97.0
370,178.29540699999998,178.97012272916666,66.0,112.0
371,178.977225,179.44739532916665,64.0,97.0
372,180.340861,180.42750870416666,64.0,99.0
373,180.68177,180.80108815,64.0,99.0
374,181.02267899999998,181.22438349166666,64.0,127.0
375,181.704497,182.21728095416665,63.0,122.0
376,182.386315,182.63489447916666,63.0,127.0
377,183.068133,183.60222376666667,64.0,100.0
378,183.74995099999998,185.17182562083332,66.0,127.0
379,185.2840415,185.41330282916667,64.0,93.0
380,185.454496,185.70449593333333,69.0,112.0
381,185.795405,185.98290495,68.0,127.0
382,186.136314,186.3266548583333,66.0,127.0
383,186.47722299999998,186.69597294166667,64.0,122.0
384,186.818132,186.95165469166665,64.0,112.0
385,186.9885865,187.06813193333332,71.0,99.0
386,187.159041,187.27125687916666,71.0,99.0
387,187.49994999999998,187.59227952083333,71.0,127.0
388,187.840859,187.96301805833332,71.0,127.0
389,188.181768,188.47154064999998,64.0,107.0
390,188.6931315,188.93318825416665,64.0,122.0
391,189.20449499999998,189.59227898749998,61.0,127.0
392,190.7385855,190.8365968375,61.0,99.0
393,190.90904,191.14341493749998,69.0,100.0
394,191.249949,191.480062575,68.0,127.0
395,191.590858,191.90477837083333,66.0,127.0
396,191.93176699999998,192.127789675,64.0,117.0
397,192.272676,192.39909642083333,64.0,117.0
398,192.4431305,192.53119865833332,71.0,96.0
399,192.613585,192.74710769166666,71.0,95.0
400,192.95449399999998,193.06670987916667,71.0,127.0
401,193.295403,193.42466432916666,71.0,127.0
402,193.636312,193.82807331249998,64.0,112.0
403,194.1476755,194.22153911666666,64.0,92.0
404,194.31813,194.548243575,64.0,92.0
405,194.65903899999998,195.14767523333333,63.0,122.0
406,196.1931295,196.30676583333332,64.0,95.0
407,196.363584,196.6235271125,69.0,117.0
408,196.70449299999999,197.00420882916666,68.0,127.0
409,197.045402,197.2996632958333,66.0,127.0
410,197.386311,197.63204957083332,61.0,122.0
411,197.72722,197.92324267499998,64.0,127.0
412,197.8976745,197.97579947916665,71.0,100.0
413,198.068129,198.1576176125,71.0,99.0
414,198.40903799999998,198.49994706666666,71.0,127.0
415,198.749947,198.90051514166666,71.0,127.0
416,199.090856,199.31386730416665,64.0,122.0
417,199.6022195,199.68744675,64.0,100.0
418,199.772674,199.95165122499998,64.0,100.0
419,200.113583,200.4502306375,61.0,127.0
420,201.6476735,201.73148029583334,61.0,122.0
421,201.818128,202.03261657916667,69.0,112.0
422,202.15903699999998,202.38062785,68.0,127.0
423,202.499946,202.72721866666666,66.0,127.0
424,202.840855,203.01272995416664,64.0,122.0
425,203.181764,203.30676396666667,64.0,122.0
426,203.3522185,203.43318438749998,71.0,99.0
427,203.522673,203.65619569166665,71.0,100.0
428,203.86358199999998,204.03971831666667,71.0,127.0
429,204.204491,204.39909322083332,71.0,117.0
430,204.5454,204.72721813333334,64.0,112.0
431,205.0567635,205.13914984166666,64.0,93.0
432,205.227218,205.42466112916665,64.0,99.0
433,205.568127,206.83517211666666,63.0,127.0
434,207.1022175,207.2343197375,64.0,90.0
435,207.272672,207.5397173833333,69.0,122.0
436,207.61358099999998,207.84511502916666,68.0,127.0
437,207.95449,208.14056949583332,66.0,122.0
438,208.295399,208.5894330125,64.0,112.0
439,208.63630799999999,208.76983069166667,64.0,112.0
440,208.8067625,208.8863079333333,71.0,99.0
441,208.977217,209.08943287916665,71.0,99.0
442,209.31812599999998,209.41045552083332,71.0,127.0
443,209.659035,209.7811940583333,71.0,127.0
444,209.999944,210.28971665,64.0,107.0
445,210.5113075,210.75136425416665,64.0,122.0
446,211.022671,211.4104549875,61.0,127.0
447,212.5567615,212.6547728375,61.0,99.0
448,212.727216,212.96159093749998,69.0,100.0
449,213.06812499999998,213.298238575,68.0,127.0
450,213.409034,213.72295437083332,66.0,127.0
451,213.749943,213.945965675,64.0,117.0
452,214.09085199999998,214.21727242083332,64.0,117.0
453,214.2613065,214.34937465833332,71.0,96.0
454,214.431761,214.56528369166665,71.0,95.0
455,214.77267,214.88488587916666,71.0,127.0
456,215.113579,215.24284032916665,71.0,127.0
457,215.454488,215.6462493125,64.0,112.0
458,215.96585149999999,216.03971511666666,64.0,92.0
459,216.136306,216.36641957499998,64.0,92.0
460,216.477215,216.96585123333332,63.0,122.0
461,218.0113055,218.12494183333334,64.0,95.0
462,218.18176,218.4417031125,69.0,117.0
463,218.52266899999998,218.82238482916665,68.0,127.0
464,218.863578,219.11783929583333,66.0,127.0
465,219.204487,219.4502255708333,61.0,122.0
466,219.54539599999998,219.74141867499998,64.0,127.0
467,219.7158505,219.79397547916665,71.0,100.0
468,219.886305,219.97579361249998,71.0,99.0
469,220.227214,220.31812306666666,71.0,127.0
470,220.56812299999999,220.71869114166665,71.0,127.0
471,220.909032,221.13204330416667,64.0,122.0
472,221.42039549999998,221.50562275,64.0,100.0
473,221.59085,221.769827225,64.0,100.0
474,221.931759,222.2684066375,61.0,127.0
475,223.4658495,223.54965629583333,61.0,122.0
476,223.636304,223.85079257916667,69.0,112.0
477,223.97721299999998,224.19880385,68.0,127.0
478,224.318122,224.54539466666665,66.0,127.0
479,224.659031,224.83090595416667,64.0,122.0
480,224.99993999999998,225.12493996666666,64.0,122.0
481,225.1703945,225.2513603875,71.0,99.0
482,225.340849,225.47437169166665,71.0,100.0
483,225.681758,225.85789431666666,71.0,127.0
484,226.02266699999998,226.21726922083332,71.0,117.0
485,226.363576,226.54539413333333,64.0,112.0
486,226.87493949999998,226.95732584166666,64.0,93.0
487,227.045394,227.24283712916665,64.0,99.0
488,227.386303,228.7882912625,63.0,127.0
489,228.9203935,229.0269275625,64.0,93.0
490,229.090848,229.286870675,69.0,117.0
491,229.431757,229.593688775,68.0,127.0
492,229.772666,229.9814727625,66.0,122.0
493,230.113575,230.55391579166667,64.0,127.0
