,start,end,pitch,velocity
0,1.3636359999999998,3.6150558541666666,49.0,72.0
1,2.045454,3.9857943916666665,52.0,65.0
2,2.045454,3.9943171166666667,56.0,65.0
3,4.090908,6.015623395833333,45.0,59.0
4,4.772726,6.0269870291666665,49.0,66.0
5,4.772726,6.056816566666666,52.0,63.0
6,6.477271,6.725850479166667,45.0,90.0
7,6.81818,7.698861583333333,59.0,71.0
8,6.81818,7.710225216666666,56.0,71.0
9,6.81818,7.718747941666666,52.0,68.0
10,7.840907,8.721588583333332,59.0,67.0
11,7.840907,8.735793124999999,56.0,59.0
12,7.840907,8.748577212499999,52.0,59.0
13,8.863634,9.5667588125,52.0,56.0
14,8.863634,9.5667588125,56.0,72.0
15,8.863634,9.595167895833333,59.0,72.0
16,9.204543,9.629258795833334,47.0,85.0
17,9.545452,11.704542333333332,44.0,76.0
18,9.545452,11.705962787499999,51.0,63.0
19,11.931815,12.271303545833334,44.0,86.0
20,12.272724,14.524143854166667,49.0,72.0
21,12.954542,14.894882391666666,52.0,65.0
22,12.954542,14.903405116666667,56.0,65.0
23,14.999996,16.924711395833334,45.0,59.0
24,15.681814,16.936075029166666,49.0,66.0
25,15.681814,16.965904566666666,52.0,63.0
26,17.386359,17.634938479166667,45.0,90.0
27,17.727268,18.607949583333333,59.0,71.0
28,17.727268,18.619313216666665,56.0,71.0
29,17.727268,18.627835941666667,52.0,68.0
30,18.749995,19.630676583333333,59.0,67.0
31,18.749995,19.644881124999998,56.0,59.0
32,18.749995,19.6576652125,52.0,59.0
33,19.772721999999998,20.4758468125,52.0,56.0
34,19.772721999999998,20.4758468125,56.0,72.0
35,19.772721999999998,20.50425589583333,59.0,72.0
36,20.113630999999998,20.538346795833334,47.0,85.0
37,20.454539999999998,22.613630333333333,44.0,76.0
38,20.454539999999998,22.6150507875,51.0,63.0
39,22.840903,23.18039154583333,44.0,86.0
40,23.181812,25.433231854166667,49.0,72.0
41,23.86363,25.803970391666667,52.0,65.0
42,23.86363,25.812493116666666,56.0,65.0
43,25.909084,27.83379939583333,45.0,59.0
44,26.590902,27.845163029166667,49.0,66.0
45,26.590902,27.874992566666666,52.0,63.0
46,28.295447,28.544026479166664,45.0,90.0
47,28.636356,29.517037583333334,59.0,71.0
48,28.636356,29.528401216666666,56.0,71.0
49,28.636356,29.536923941666664,52.0,68.0
50,29.659083,30.539764583333334,59.0,67.0
51,29.659083,30.553969125,56.0,59.0
52,29.659083,30.5667532125,52.0,59.0
53,30.68181,31.3849348125,52.0,56.0
54,30.68181,31.3849348125,56.0,72.0
55,30.68181,31.413343895833332,59.0,72.0
56,31.022719,31.44743479583333,47.0,85.0
57,31.363628,33.52271833333333,44.0,76.0
58,31.363628,33.5241387875,51.0,63.0
59,33.749991,34.089479545833335,44.0,86.0
60,34.0909,34.51987715833333,68.0,77.0
61,34.0909,34.610786225,61.0,93.0
62,34.0909,34.6235703125,64.0,79.0
63,34.772718,34.83805889166666,64.0,35.0
64,34.772718,35.1178883625,57.0,85.0
65,34.431809,35.22584287916666,52.0,61.0
66,35.113627,35.974422225,61.0,66.0
67,35.113627,36.021297212499995,68.0,88.0
68,35.113627,36.042604024999996,64.0,68.0
69,35.795445,36.12214945833333,52.0,81.0
70,34.0909,36.17186535416666,45.0,83.0
71,36.136354,36.37641075416666,68.0,67.0
72,36.477263,36.74856974583333,57.0,81.0
73,36.136354,36.792603825,64.0,70.0
74,36.136354,36.826694724999996,61.0,96.0
75,37.159081,37.55680816666666,56.0,60.0
76,36.818172,38.058228487499996,49.0,78.0
77,37.49999,38.454535199999995,61.0,58.0
78,37.49999,38.536921541666665,64.0,69.0
79,37.840899,38.596580616666664,56.0,92.0
80,38.522717,38.9872055125,49.0,89.0
81,39.204535,39.512773554166664,61.0,89.0
82,39.3749895,39.535500820833335,56.0,83.0
83,38.863626,39.56248945,64.0,89.0
84,40.568171,41.357943516666666,59.0,83.0
85,40.227261999999996,41.42612531666666,64.0,90.0
86,40.227261999999996,41.44317076666667,68.0,93.0
87,39.886353,41.59657981666666,47.0,61.0
88,39.545443999999996,41.643454804166666,40.0,81.0
89,41.249989,41.65623889166667,52.0,64.0
90,41.590897999999996,41.74288659583333,64.0,99.0
91,41.590897999999996,41.74714795833333,68.0,97.0
92,42.272715999999996,42.8309544875,56.0,86.0
93,42.272715999999996,43.03407943333333,60.0,97.0
94,42.272715999999996,43.08947714583333,63.0,89.0
95,42.954533999999995,43.09373850833333,56.0,53.0
96,42.272715999999996,43.7727156,51.0,81.0
97,42.272715999999996,43.852261033333335,44.0,69.0
98,43.295443,43.982942816666664,56.0,90.0
99,43.295443,44.02697689583333,60.0,99.0
100,43.295443,44.083795062499995,63.0,93.0
101,43.977261,44.7315221625,51.0,73.0
102,43.977261,44.816749412499995,44.0,63.0
103,44.318169999999995,44.90481757083333,60.0,122.0
104,44.318169999999995,44.93464710833333,63.0,127.0
105,44.659079,44.93890847083333,56.0,55.0
106,44.999987999999995,45.332374275,61.0,74.0
107,44.999987999999995,45.50566968333333,64.0,75.0
108,44.999987999999995,45.5582264875,56.0,90.0
109,45.340897,45.894874125,49.0,73.0
110,45.681806,46.17612405,61.0,69.0
111,45.681806,46.25993084583333,64.0,79.0
112,46.022715,46.45453306666666,56.0,78.0
113,46.363624,46.7386239,61.0,63.0
114,46.363624,46.813907970833334,64.0,69.0
115,44.999987999999995,47.02839655,37.0,93.0
116,46.704533,47.08663517083333,49.0,52.0
117,47.2158965,47.34657828333333,56.0,76.0
118,47.045442,47.394873725,61.0,107.0
119,47.045442,47.45169189166666,64.0,90.0
120,47.72726,48.07385081666666,61.0,97.0
121,47.72726,48.15055534166667,64.0,92.0
122,48.068169,48.544021145833334,52.0,46.0
123,48.409078,48.890611962499996,61.0,99.0
124,48.409078,48.89771423333333,57.0,90.0
125,48.409078,48.92754377083333,64.0,88.0
126,48.749987,49.27839595,52.0,53.0
127,49.090896,49.50566861666667,61.0,102.0
128,49.090896,49.57527087083333,64.0,82.0
129,49.431805,49.693168566666664,52.0,59.0
130,47.72726,49.78975945,45.0,74.0
131,49.772714,50.06390710416667,68.0,89.0
132,49.772714,50.0752707375,64.0,86.0
133,49.772714,50.14629344583333,61.0,99.0
134,50.113623,50.35936157083333,59.0,77.0
135,50.454532,50.8934523375,64.0,99.0
136,50.454532,50.9190205125,68.0,112.0
137,50.795441,51.18606589583333,59.0,72.0
138,51.13635,51.65339531666667,68.0,93.0
139,51.13635,51.66475895,64.0,93.0
140,51.477259,51.8991338875,59.0,68.0
141,51.477259,52.05396339166666,52.0,48.0
142,51.9886225,52.28833832916666,59.0,35.0
143,51.818168,52.301122416666665,64.0,95.0
144,51.818168,52.360781491666664,68.0,96.0
145,50.795441,52.6022587,47.0,61.0
146,52.159076999999996,52.607940516666666,52.0,77.0
147,50.454532,52.61362233333333,40.0,71.0
148,52.499986,52.7940200125,64.0,99.0
149,52.499986,52.80396319166667,68.0,99.0
150,52.840894999999996,52.941747245833334,59.0,75.0
151,53.181804,53.44742892916666,59.0,89.0
152,53.181804,53.55964480833333,63.0,107.0
153,53.522712999999996,53.82242882916666,56.0,76.0
154,53.863622,53.99856514583333,59.0,81.0
155,53.863622,54.26134916666666,63.0,96.0
156,54.204530999999996,54.35651959583333,56.0,78.0
157,53.181804,54.764189941666665,44.0,102.0
158,54.54544,54.8820876375,59.0,76.0
159,54.54544,54.90623535833333,63.0,88.0
160,54.886348999999996,55.57526927083333,44.0,71.0
161,55.227258,55.6363488,59.0,107.0
162,55.568166999999995,55.82668965833333,56.0,89.0
163,55.227258,55.833791929166665,63.0,122.0
164,55.909076,56.241462274999996,61.0,74.0
165,55.909076,56.414757683333335,64.0,75.0
166,55.909076,56.4673144875,56.0,90.0
167,56.249984999999995,56.803962125,49.0,73.0
168,56.590894,57.085212049999996,61.0,69.0
169,56.590894,57.16901884583333,64.0,79.0
170,56.931802999999995,57.36362106666667,56.0,78.0
171,57.272712,57.6477119,61.0,63.0
172,57.272712,57.72299597083333,64.0,69.0
173,55.909076,57.93748455,37.0,93.0
174,57.613620999999995,57.99572317083333,49.0,52.0
175,58.1249845,58.25566628333333,56.0,76.0
176,57.95453,58.303961725,61.0,107.0
177,57.95453,58.36077989166667,64.0,90.0
178,58.636348,58.98293881666667,61.0,97.0
179,58.636348,59.059643341666664,64.0,92.0
180,58.977256999999994,59.45310914583333,52.0,46.0
181,59.318166,59.7996999625,61.0,99.0
182,59.318166,59.80680223333333,57.0,90.0
183,59.318166,59.83663177083333,64.0,88.0
184,59.659074999999994,60.18748395,52.0,53.0
185,59.999984,60.414756616666665,61.0,102.0
186,59.999984,60.48435887083333,64.0,82.0
187,60.340892999999994,60.60225656666666,52.0,59.0
188,58.636348,60.698847449999995,45.0,74.0
189,60.681802,60.972995104166664,68.0,89.0
190,60.681802,60.984358737499996,64.0,86.0
191,60.681802,61.05538144583333,61.0,99.0
192,61.022711,61.26844957083333,59.0,77.0
193,61.36362,61.8025403375,64.0,99.0
194,61.36362,61.828108512499995,68.0,112.0
195,61.704529,62.09515389583333,59.0,72.0
196,62.045438,62.562483316666665,68.0,93.0
197,62.045438,62.57384695,64.0,93.0
198,62.386347,62.8082218875,59.0,68.0
199,62.386347,62.96305139166667,52.0,48.0
200,62.897710499999995,63.19742632916667,59.0,35.0
201,62.727256,63.21021041666666,64.0,95.0
202,62.727256,63.26986949166666,68.0,96.0
203,61.704529,63.5113467,47.0,61.0
204,63.068165,63.51702851666666,52.0,77.0
205,61.36362,63.52271033333333,40.0,71.0
206,63.409074,63.703108012499996,64.0,99.0
207,63.409074,63.713051191666665,68.0,99.0
208,63.749983,63.85083524583333,59.0,75.0
209,64.090892,64.17896015833333,59.0,85.0
210,64.090892,64.26418740833333,56.0,96.0
211,64.090892,64.27555104166666,63.0,96.0
212,64.090892,64.37924419583334,44.0,100.0
213,64.431801,64.54969869583333,59.0,58.0
214,64.431801,64.64628957916666,56.0,66.0
215,64.431801,64.65623275833333,63.0,59.0
216,64.431801,64.67753957083333,44.0,38.0
217,64.77271,64.95736904166667,59.0,70.0
218,64.77271,64.9644713125,56.0,85.0
219,64.77271,64.97441449166666,63.0,79.0
220,64.77271,64.9772554,44.0,86.0
221,65.113619,65.3139030375,59.0,71.0
222,65.113619,65.31958485416666,63.0,76.0
223,65.113619,65.32100530833333,56.0,89.0
224,65.113619,65.33663030416666,44.0,75.0
225,65.454528,65.63634613333333,59.0,92.0
226,65.454528,65.64060749583334,56.0,107.0
227,65.454528,65.65055067499999,63.0,99.0
228,65.454528,65.68180066666666,44.0,102.0
229,65.79543699999999,65.940323325,59.0,96.0
230,65.79543699999999,65.95594832083333,44.0,112.0
231,65.79543699999999,65.9658915,56.0,100.0
232,65.79543699999999,65.98009604166667,63.0,99.0
233,66.136346,66.26276642083333,59.0,95.0
234,66.136346,66.28833459583333,44.0,127.0
235,66.136346,66.30111868333333,56.0,100.0
236,66.136346,66.30111868333333,63.0,100.0
237,66.477255,66.55537997916666,63.0,95.0
238,66.477255,66.55964134166666,59.0,89.0
239,66.477255,66.6264026875,56.0,100.0
240,66.477255,66.63208450416667,44.0,127.0
241,66.818164,67.05680029999999,56.0,100.0
242,66.818164,67.06390257083333,61.0,102.0
243,66.818164,67.09515256249999,64.0,96.0
244,67.15907299999999,67.39628884583333,56.0,73.0
245,67.499982,67.5383342625,56.0,73.0
246,66.818164,67.696004675,49.0,127.0
247,67.499982,67.88066371666666,64.0,117.0
248,67.499982,67.90765234583333,61.0,127.0
249,67.840891,68.42043629999999,49.0,102.0
250,68.1818,68.54543626666667,64.0,100.0
251,68.1818,68.565322625,56.0,102.0
252,68.1818,68.57242489583334,61.0,127.0
253,68.863618,69.008504325,63.0,79.0
254,68.52270899999999,69.042595225,49.0,112.0
255,68.863618,69.15197019583333,56.0,112.0
256,68.863618,69.1661747375,61.0,117.0
257,68.863618,69.1661747375,64.0,93.0
258,69.204527,69.52554964166666,49.0,127.0
259,69.545436,69.96589043333333,64.0,97.0
260,69.545436,70.00992451249999,61.0,122.0
261,69.545436,70.02554950833333,57.0,102.0
262,69.88634499999999,70.40054940833333,52.0,60.0
263,70.227254,70.67327660833332,57.0,99.0
264,70.227254,70.69316296666666,64.0,95.0
265,70.227254,70.70026523749999,61.0,112.0
266,70.568163,71.07384468333333,52.0,102.0
267,70.909072,71.39202641666667,57.0,95.0
268,70.909072,71.4161741375,61.0,127.0
269,70.909072,71.42185595416666,64.0,93.0
270,71.24998099999999,71.67611724999999,52.0,100.0
271,71.59089,71.87782174166666,64.0,99.0
272,71.59089,71.88776492083333,61.0,127.0
273,69.545436,72.01134443333333,45.0,85.0
274,71.931799,72.04259442499999,52.0,82.0
275,72.272708,72.70026470416667,59.0,93.0
276,72.272708,72.707366975,68.0,112.0
277,72.272708,72.7116283375,64.0,100.0
278,72.61361699999999,73.10651459583333,52.0,97.0
279,72.954526,73.45026450416667,64.0,122.0
280,72.954526,73.46020768333334,59.0,112.0
281,72.954526,73.49003722083333,68.0,122.0
282,73.295435,73.85793484999999,52.0,97.0
283,73.636344,74.07384388333332,59.0,97.0
284,73.636344,74.09515069583333,68.0,127.0
285,73.636344,74.10225296666667,64.0,117.0
286,73.97725299999999,74.48861649999999,52.0,76.0
287,74.318162,74.54969602916667,68.0,122.0
288,74.318162,74.59088919999999,64.0,122.0
289,72.272708,74.71304825833333,40.0,83.0
290,74.659071,74.92469592916666,52.0,99.0
291,74.99998,75.17327540833332,56.0,100.0
292,74.99998,75.25992311249999,63.0,112.0
293,74.99998,75.2769685625,59.0,107.0
294,75.34088899999999,75.58094575416666,56.0,99.0
295,74.99998,75.84657068333333,44.0,122.0
296,75.681798,75.99855927916667,59.0,107.0
297,75.681798,76.01560472916667,63.0,122.0
298,75.681798,76.10083197916666,56.0,112.0
299,76.022707,76.62071820416666,44.0,100.0
300,76.363616,76.70594545416667,59.0,117.0
301,76.363616,76.77412725416666,63.0,117.0
302,76.363616,76.79259315833333,56.0,122.0
303,76.704525,77.24287712916666,44.0,76.0
304,77.045434,77.69032019166666,59.0,117.0
305,77.386343,77.6931611,56.0,107.0
306,77.386343,77.70736564166667,44.0,96.0
307,77.045434,77.73719517916666,63.0,127.0
308,77.727252,77.9658883,56.0,100.0
309,77.727252,77.97299057083333,61.0,102.0
310,77.727252,78.0042405625,64.0,96.0
311,78.068161,78.30537684583334,56.0,73.0
312,78.40907,78.4474222625,56.0,73.0
313,77.727252,78.605092675,49.0,127.0
314,78.40907,78.78975171666666,64.0,117.0
315,78.40907,78.81674034583332,61.0,127.0
316,78.749979,79.3295243,49.0,102.0
317,79.09088799999999,79.45452426666667,64.0,100.0
318,79.09088799999999,79.47441062499999,56.0,102.0
319,79.09088799999999,79.48151289583333,61.0,127.0
320,79.772706,79.917592325,63.0,79.0
321,79.431797,79.951683225,49.0,112.0
322,79.772706,80.06105819583333,56.0,112.0
323,79.772706,80.0752627375,61.0,117.0
324,79.772706,80.0752627375,64.0,93.0
325,80.113615,80.43463764166667,49.0,127.0
326,80.45452399999999,80.87497843333333,64.0,97.0
327,80.45452399999999,80.9190125125,61.0,122.0
328,80.45452399999999,80.93463750833332,57.0,102.0
329,80.795433,81.30963740833333,52.0,60.0
330,81.136342,81.58236460833334,57.0,99.0
331,81.136342,81.60225096666666,64.0,95.0
332,81.136342,81.6093532375,61.0,112.0
333,81.477251,81.98293268333333,52.0,102.0
334,81.81815999999999,82.30111441666666,57.0,95.0
335,81.81815999999999,82.32526213749999,61.0,127.0
336,81.81815999999999,82.33094395416666,64.0,93.0
337,82.159069,82.58520525,52.0,100.0
338,82.499978,82.78690974166666,64.0,99.0
339,82.499978,82.79685292083333,61.0,127.0
340,80.45452399999999,82.92043243333333,45.0,85.0
341,82.840887,82.951682425,52.0,82.0
342,83.18179599999999,83.60935270416667,59.0,93.0
343,83.18179599999999,83.616454975,68.0,112.0
344,83.18179599999999,83.6207163375,64.0,100.0
345,83.522705,84.01560259583333,52.0,97.0
346,83.863614,84.35935250416667,64.0,122.0
347,83.863614,84.36929568333333,59.0,112.0
348,83.863614,84.39912522083333,68.0,122.0
349,84.204523,84.76702285,52.0,97.0
350,84.54543199999999,84.98293188333334,59.0,97.0
351,84.54543199999999,85.00423869583334,68.0,127.0
352,84.54543199999999,85.01134096666667,64.0,117.0
353,84.886341,85.3977045,52.0,76.0
354,85.22725,85.45878402916667,68.0,122.0
355,85.22725,85.4999772,64.0,122.0
356,83.18179599999999,85.62213625833333,40.0,83.0
357,85.568159,85.83378392916666,52.0,99.0
358,85.90906799999999,88.7769649625,44.0,107.0
359,85.90906799999999,88.78406723333333,59.0,112.0
360,85.90906799999999,88.80253313749999,63.0,102.0
361,85.90906799999999,88.80395359166667,56.0,100.0
362,88.63633999999999,88.80395359166667,56.0,82.0
363,88.63633999999999,89.00991944583333,61.0,74.0
364,88.63633999999999,89.17043076666667,68.0,65.0
365,88.63633999999999,89.1817944,64.0,70.0
366,88.63633999999999,89.5013965875,49.0,92.0
367,89.318158,89.91758965833333,61.0,58.0
368,89.318158,89.93321465416666,68.0,60.0
369,89.318158,89.94031692499999,56.0,86.0
370,89.318158,89.9445782875,64.0,72.0
371,89.99997599999999,90.3366236375,61.0,58.0
372,89.99997599999999,90.52270313333332,56.0,66.0
373,89.99997599999999,90.54258949166666,64.0,66.0
374,89.99997599999999,90.5454304,68.0,59.0
375,89.99997599999999,90.88775985416666,49.0,86.0
376,90.681794,91.05111208333334,61.0,85.0
377,90.681794,91.07099844166666,56.0,95.0
378,90.681794,91.0951461625,68.0,64.0
379,90.681794,91.10650979583333,64.0,72.0
380,91.02270299999999,91.28832792916667,49.0,66.0
381,91.363612,91.9048050375,61.0,69.0
382,91.363612,91.91190730833333,57.0,69.0
383,91.363612,91.91900957916667,64.0,67.0
384,91.363612,92.18747541666666,45.0,70.0
385,92.04543,92.56673667916667,57.0,73.0
386,92.04543,92.599407125,64.0,68.0
387,92.04543,92.60935030416667,61.0,72.0
388,92.727248,93.18747515,57.0,89.0
389,92.727248,93.30963420833334,61.0,88.0
390,92.727248,93.30963420833334,64.0,73.0
391,92.727248,93.46730462083333,45.0,79.0
392,93.409066,93.67042956666667,61.0,93.0
393,93.409066,93.68889547083333,64.0,76.0
394,94.090884,94.64344067083333,59.0,72.0
395,94.090884,94.66474748333333,68.0,66.0
396,94.090884,94.68605429583333,64.0,67.0
397,94.090884,94.96162240416666,52.0,59.0
398,94.772702,95.27696322916667,68.0,83.0
399,94.772702,95.29400867916667,59.0,81.0
400,94.772702,95.30679276666666,64.0,77.0
401,95.45452,95.9957130375,59.0,85.0
402,95.45452,96.00281530833333,64.0,82.0
403,95.45452,96.01133803333333,68.0,74.0
404,95.45452,96.136338,52.0,61.0
405,96.136338,96.28264477916666,64.0,85.0
406,96.136338,96.28264477916666,68.0,82.0
407,96.136338,96.39912202083333,59.0,85.0
408,96.818156,97.18747408333333,59.0,72.0
409,96.818156,97.37213312499999,63.0,72.0
410,96.818156,97.37781494166666,56.0,88.0
411,97.499974,97.60934897083332,59.0,74.0
412,96.818156,97.65054214166666,44.0,66.0
413,97.499974,97.69315576666666,56.0,90.0
414,97.499974,97.73150802916666,63.0,79.0
415,98.181792,98.28974651666667,59.0,76.0
416,98.181792,98.34230332083332,56.0,88.0
417,98.181792,98.34230332083332,63.0,77.0
418,98.181792,98.99287132916666,44.0,71.0
419,98.86361,99.49145074166667,59.0,81.0
420,98.86361,99.49571210416666,56.0,93.0
421,98.86361,99.51133709999999,63.0,92.0
422,99.545428,99.91900744583333,61.0,74.0
423,99.545428,100.07951876666667,68.0,65.0
424,99.545428,100.08804149166666,56.0,82.0
425,99.545428,100.0908824,64.0,70.0
426,99.545428,100.4104845875,49.0,92.0
427,100.227246,100.82667765833332,61.0,58.0
428,100.227246,100.84230265416666,68.0,60.0
429,100.227246,100.849404925,56.0,86.0
430,100.227246,100.85366628749999,64.0,72.0
431,100.909064,101.2457116375,61.0,58.0
432,100.909064,101.43179113333333,56.0,66.0
433,100.909064,101.45167749166666,64.0,66.0
434,100.909064,101.4545184,68.0,59.0
435,100.909064,101.79684785416666,49.0,86.0
436,101.590882,101.96020008333333,61.0,85.0
437,101.590882,101.98008644166666,56.0,95.0
438,101.590882,102.0042341625,68.0,64.0
439,101.590882,102.01559779583333,64.0,72.0
440,101.93179099999999,102.19741592916667,49.0,66.0
441,102.2727,102.8138930375,61.0,69.0
442,102.2727,102.82099530833332,57.0,69.0
443,102.2727,102.82809757916667,64.0,67.0
444,102.2727,103.09656341666667,45.0,70.0
445,102.954518,103.47582467916666,57.0,73.0
446,102.954518,103.508495125,64.0,68.0
447,102.954518,103.51843830416666,61.0,72.0
448,103.636336,104.09656315,57.0,89.0
449,103.636336,104.21872220833333,61.0,88.0
450,103.636336,104.21872220833333,64.0,73.0
451,103.636336,104.37639262083333,45.0,79.0
452,104.31815399999999,104.57951756666667,61.0,93.0
453,104.31815399999999,104.59798347083333,64.0,76.0
454,104.999972,105.55252867083333,59.0,72.0
455,104.999972,105.57383548333333,68.0,66.0
456,104.999972,105.59514229583333,64.0,67.0
457,104.999972,105.87071040416666,52.0,59.0
458,105.68178999999999,106.18605122916667,68.0,83.0
459,105.68178999999999,106.20309667916666,59.0,81.0
460,105.68178999999999,106.21588076666666,64.0,77.0
461,106.363608,106.9048010375,59.0,85.0
462,106.363608,106.91190330833332,64.0,82.0
463,106.363608,106.92042603333333,68.0,74.0
464,106.363608,107.04542599999999,52.0,61.0
465,107.04542599999999,107.19173277916666,64.0,85.0
466,107.04542599999999,107.19173277916666,68.0,82.0
467,107.04542599999999,107.30821002083333,59.0,85.0
468,107.727244,108.09656208333332,59.0,72.0
469,107.727244,108.281221125,63.0,72.0
470,107.727244,108.28690294166667,56.0,88.0
471,108.40906199999999,108.51843697083333,59.0,74.0
472,107.727244,108.55963014166666,44.0,66.0
473,108.40906199999999,108.60224376666666,56.0,90.0
474,108.40906199999999,108.64059602916666,63.0,79.0
475,109.09088,109.19883451666666,59.0,76.0
476,109.09088,109.25139132083333,56.0,88.0
477,109.09088,109.25139132083333,63.0,77.0
478,109.09088,109.90195932916666,44.0,71.0
479,109.77269799999999,110.40053874166667,59.0,81.0
480,109.77269799999999,110.40480010416667,56.0,93.0
481,109.77269799999999,110.42042509999999,63.0,92.0
482,110.454516,110.88349315833332,68.0,77.0
483,110.454516,110.97440222499999,61.0,93.0
484,110.454516,110.9871863125,64.0,79.0
485,111.13633399999999,111.20167489166666,64.0,35.0
486,111.13633399999999,111.48150436249999,57.0,85.0
487,110.795425,111.58945887916666,52.0,61.0
488,111.477243,112.33803822499999,61.0,66.0
489,111.477243,112.3849132125,68.0,88.0
490,111.477243,112.406220025,64.0,68.0
491,112.159061,112.48576545833333,52.0,81.0
492,110.454516,112.53548135416666,45.0,83.0
493,112.49996999999999,112.74002675416666,68.0,67.0
494,112.840879,113.11218574583333,57.0,81.0
495,112.49996999999999,113.156219825,64.0,70.0
496,112.49996999999999,113.19031072499999,61.0,96.0
497,113.522697,113.92042416666666,56.0,60.0
498,113.181788,114.4218444875,49.0,78.0
499,113.86360599999999,114.81815119999999,61.0,58.0
500,113.86360599999999,114.90053754166667,64.0,69.0
501,114.204515,114.96019661666666,56.0,92.0
502,114.886333,115.35082151249999,49.0,89.0
503,115.568151,115.87638955416666,61.0,89.0
504,115.73860549999999,115.89911682083333,56.0,83.0
505,115.22724199999999,115.92610545,64.0,89.0
506,116.931787,117.72155951666666,59.0,83.0
507,116.59087799999999,117.78974131666666,64.0,90.0
508,116.59087799999999,117.80678676666666,68.0,93.0
509,116.249969,117.96019581666665,47.0,61.0
510,115.90906,118.00707080416666,40.0,81.0
511,117.61360499999999,118.01985489166667,52.0,64.0
512,117.95451399999999,118.10650259583333,64.0,99.0
513,117.95451399999999,118.11076395833332,68.0,97.0
514,118.636332,119.1945704875,56.0,86.0
515,118.636332,119.39769543333333,60.0,97.0
516,118.636332,119.45309314583334,63.0,89.0
517,119.31814999999999,119.45735450833332,56.0,53.0
518,118.636332,120.13633159999999,51.0,81.0
519,118.636332,120.21587703333333,44.0,69.0
520,119.659059,120.34655881666666,56.0,90.0
521,119.659059,120.39059289583332,60.0,99.0
522,119.659059,120.4474110625,63.0,93.0
523,120.34087699999999,121.09513816249999,51.0,73.0
524,120.34087699999999,121.1803654125,44.0,63.0
525,120.68178599999999,121.26843357083332,60.0,122.0
526,120.68178599999999,121.29826310833333,63.0,127.0
527,121.022695,121.30252447083333,56.0,55.0
528,121.363604,121.695990275,61.0,74.0
529,121.363604,121.86928568333333,64.0,75.0
530,121.363604,121.9218424875,56.0,90.0
531,121.70451299999999,122.258490125,49.0,73.0
532,122.045422,122.53974004999999,61.0,69.0
533,122.045422,122.62354684583333,64.0,79.0
534,122.386331,122.81814906666666,56.0,78.0
535,122.72724,123.1022399,61.0,63.0
536,122.72724,123.17752397083333,64.0,69.0
537,121.363604,123.39201254999999,37.0,93.0
538,123.06814899999999,123.45025117083333,49.0,52.0
539,123.57951249999999,123.71019428333332,56.0,76.0
540,123.409058,123.75848972499999,61.0,107.0
541,123.409058,123.81530789166666,64.0,90.0
542,124.090876,124.43746681666666,61.0,97.0
543,124.090876,124.51417134166667,64.0,92.0
544,124.43178499999999,124.90763714583333,52.0,46.0
545,124.772694,125.2542279625,61.0,99.0
546,124.772694,125.26133023333333,57.0,90.0
547,124.772694,125.29115977083333,64.0,88.0
548,125.113603,125.64201195,52.0,53.0
549,125.454512,125.86928461666666,61.0,102.0
550,125.454512,125.93888687083333,64.0,82.0
551,125.79542099999999,126.05678456666666,52.0,59.0
552,124.090876,126.15337545,45.0,74.0
553,126.13633,126.42752310416667,68.0,89.0
554,126.13633,126.4388867375,64.0,86.0
555,126.13633,126.50990944583333,61.0,99.0
556,126.477239,126.72297757083332,59.0,77.0
557,126.818148,127.2570683375,64.0,99.0
558,126.818148,127.28263651249999,68.0,112.0
559,127.15905699999999,127.54968189583333,59.0,72.0
560,127.499966,128.01701131666667,68.0,93.0
561,127.499966,128.02837495,64.0,93.0
562,127.840875,128.2627498875,59.0,68.0
563,127.840875,128.41757939166666,52.0,48.0
564,128.3522385,128.65195432916667,59.0,35.0
565,128.181784,128.66473841666667,64.0,95.0
566,128.181784,128.72439749166665,68.0,96.0
567,127.15905699999999,128.9658747,47.0,61.0
568,128.522693,128.97155651666665,52.0,77.0
569,126.818148,128.97723833333333,40.0,71.0
570,128.863602,129.1576360125,64.0,99.0
571,128.863602,129.16757919166668,68.0,99.0
572,129.204511,129.30536324583332,59.0,75.0
573,129.54542,129.81104492916666,59.0,89.0
574,129.54542,129.92326080833334,63.0,107.0
575,129.886329,130.18604482916666,56.0,76.0
576,130.227238,130.36218114583332,59.0,81.0
577,130.227238,130.62496516666667,63.0,96.0
578,130.56814699999998,130.72013559583334,56.0,78.0
579,129.54542,131.12780594166665,44.0,102.0
580,130.909056,131.2457036375,59.0,76.0
581,130.909056,131.26985135833334,63.0,88.0
582,131.249965,131.93888527083334,44.0,71.0
583,131.59087399999999,131.9999648,59.0,107.0
584,131.931783,132.19030565833333,56.0,89.0
585,131.59087399999999,132.19740792916667,63.0,122.0
586,132.272692,132.60507827499998,61.0,74.0
587,132.272692,132.77837368333334,64.0,75.0
588,132.272692,132.83093048749998,56.0,90.0
589,132.613601,133.167578125,49.0,73.0
590,132.95451,133.44882805,61.0,69.0
591,132.95451,133.53263484583331,64.0,79.0
592,133.29541899999998,133.72723706666667,56.0,78.0
593,133.636328,134.0113279,61.0,63.0
594,133.636328,134.08661197083333,64.0,69.0
595,132.272692,134.30110055,37.0,93.0
596,133.977237,134.35933917083332,49.0,52.0
597,134.4886005,134.61928228333332,56.0,76.0
598,134.31814599999998,134.667577725,61.0,107.0
599,134.31814599999998,134.72439589166666,64.0,90.0
600,134.999964,135.34655481666667,61.0,97.0
601,134.999964,135.42325934166666,64.0,92.0
602,135.340873,135.81672514583332,52.0,46.0
603,135.681782,136.1633159625,61.0,99.0
604,135.681782,136.17041823333332,57.0,90.0
605,135.681782,136.20024777083333,64.0,88.0
606,136.02269099999998,136.55109995,52.0,53.0
607,136.3636,136.77837261666667,61.0,102.0
608,136.3636,136.84797487083333,64.0,82.0
609,136.704509,136.96587256666666,52.0,59.0
610,134.999964,137.06246345,45.0,74.0
611,137.04541799999998,137.33661110416665,68.0,89.0
612,137.04541799999998,137.34797473749998,64.0,86.0
613,137.04541799999998,137.41899744583333,61.0,99.0
614,137.386327,137.63206557083333,59.0,77.0
615,137.727236,138.16615633749998,64.0,99.0
616,137.727236,138.1917245125,68.0,112.0
617,138.068145,138.45876989583334,59.0,72.0
618,138.409054,138.92609931666667,68.0,93.0
619,138.409054,138.93746295,64.0,93.0
620,138.749963,139.1718378875,59.0,68.0
621,138.749963,139.32666739166666,52.0,48.0
622,139.2613265,139.56104232916667,59.0,35.0
623,139.090872,139.57382641666666,64.0,95.0
624,139.090872,139.63348549166665,68.0,96.0
625,138.068145,139.8749627,47.0,61.0
626,139.431781,139.88064451666665,52.0,77.0
627,137.727236,139.88632633333333,40.0,71.0
628,139.77268999999998,140.0667240125,64.0,99.0
629,139.77268999999998,140.07666719166667,68.0,99.0
630,140.113599,140.21445124583332,59.0,75.0
631,140.454508,140.54257615833333,59.0,85.0
632,140.454508,140.62780340833334,56.0,96.0
633,140.454508,140.63916704166667,63.0,96.0
634,140.454508,140.74286019583332,44.0,100.0
635,140.795417,140.91331469583332,59.0,58.0
636,140.795417,141.00990557916666,56.0,66.0
637,140.795417,141.01984875833332,63.0,59.0
638,140.795417,141.04115557083333,44.0,38.0
639,141.136326,141.32098504166666,59.0,70.0
640,141.136326,141.3280873125,56.0,85.0
641,141.136326,141.33803049166667,63.0,79.0
642,141.136326,141.3408714,44.0,86.0
643,141.477235,141.6775190375,59.0,71.0
644,141.477235,141.68320085416667,63.0,76.0
645,141.477235,141.68462130833333,56.0,89.0
646,141.477235,141.70024630416665,44.0,75.0
647,141.818144,141.99996213333333,59.0,92.0
648,141.818144,142.00422349583332,56.0,107.0
649,141.818144,142.01416667499998,63.0,99.0
650,141.818144,142.04541666666665,44.0,102.0
651,142.159053,142.303939325,59.0,96.0
652,142.159053,142.31956432083334,44.0,112.0
653,142.159053,142.3295075,56.0,100.0
654,142.159053,142.34371204166666,63.0,99.0
655,142.49996199999998,142.62638242083332,59.0,95.0
656,142.49996199999998,142.65195059583334,44.0,127.0
657,142.49996199999998,142.66473468333334,56.0,100.0
658,142.49996199999998,142.66473468333334,63.0,100.0
659,142.840871,142.91899597916665,63.0,95.0
660,142.840871,142.92325734166667,59.0,89.0
661,142.840871,142.9900186875,56.0,100.0
662,142.840871,142.99570050416665,44.0,127.0
663,143.18178,143.4204163,56.0,100.0
664,143.18178,143.4275185708333,61.0,102.0
665,143.18178,143.45876856249998,64.0,96.0
666,143.52268899999999,143.75990484583332,56.0,73.0
667,143.863598,143.90195026249998,56.0,73.0
668,143.18178,144.059620675,49.0,127.0
669,143.863598,144.24427971666665,64.0,117.0
670,143.863598,144.27126834583333,61.0,127.0
671,144.204507,144.78405229999998,49.0,102.0
672,144.545416,144.90905226666666,64.0,100.0
673,144.545416,144.928938625,56.0,102.0
674,144.545416,144.93604089583332,61.0,127.0
675,145.22723399999998,145.372120325,63.0,79.0
676,144.886325,145.406211225,49.0,112.0
677,145.22723399999998,145.51558619583332,56.0,112.0
678,145.22723399999998,145.5297907375,61.0,117.0
679,145.22723399999998,145.5297907375,64.0,93.0
680,145.568143,145.88916564166666,49.0,127.0
681,145.909052,146.32950643333334,64.0,97.0
682,145.909052,146.3735405125,61.0,122.0
683,145.909052,146.38916550833332,57.0,102.0
684,146.24996099999998,146.76416540833333,52.0,60.0
685,146.59087,147.03689260833332,57.0,99.0
686,146.59087,147.05677896666666,64.0,95.0
687,146.59087,147.0638812375,61.0,112.0
688,146.931779,147.4374606833333,52.0,102.0
689,147.272688,147.75564241666666,57.0,95.0
690,147.272688,147.7797901375,61.0,127.0
691,147.272688,147.78547195416667,64.0,93.0
692,147.613597,148.03973324999998,52.0,100.0
693,147.95450599999998,148.24143774166666,64.0,99.0
694,147.95450599999998,148.25138092083333,61.0,127.0
695,145.909052,148.3749604333333,45.0,85.0
696,148.295415,148.40621042499998,52.0,82.0
697,148.636324,149.06388070416665,59.0,93.0
698,148.636324,149.070982975,68.0,112.0
699,148.636324,149.07524433749998,64.0,100.0
700,148.97723299999998,149.47013059583333,52.0,97.0
701,149.318142,149.81388050416666,64.0,122.0
702,149.318142,149.82382368333333,59.0,112.0
703,149.318142,149.85365322083334,68.0,122.0
704,149.659051,150.22155085,52.0,97.0
705,149.99996,150.43745988333333,59.0,97.0
706,149.99996,150.45876669583333,68.0,127.0
707,149.99996,150.46586896666665,64.0,117.0
708,150.340869,150.85223249999999,52.0,76.0
709,150.68177799999998,150.91331202916666,68.0,122.0
710,150.68177799999998,150.9545052,64.0,122.0
711,148.636324,151.07666425833332,40.0,83.0
712,151.022687,151.28831192916667,52.0,99.0
713,151.363596,151.53689140833333,56.0,100.0
714,151.363596,151.6235391125,63.0,112.0
715,151.363596,151.64058456249998,59.0,107.0
716,151.70450499999998,151.94456175416667,56.0,99.0
717,151.363596,152.21018668333332,44.0,122.0
718,152.045414,152.36217527916665,59.0,107.0
719,152.045414,152.37922072916666,63.0,122.0
720,152.045414,152.46444797916666,56.0,112.0
721,152.386323,152.98433420416666,44.0,100.0
722,152.727232,153.06956145416666,59.0,117.0
723,152.727232,153.13774325416665,63.0,117.0
724,152.727232,153.15620915833333,56.0,122.0
725,153.068141,153.60649312916667,44.0,76.0
726,153.40905,154.05393619166665,59.0,117.0
727,153.749959,154.0567771,56.0,107.0
728,153.749959,154.07098164166666,44.0,96.0
729,153.40905,154.10081117916667,63.0,127.0
730,154.090868,154.3295043,56.0,100.0
731,154.090868,154.33660657083334,61.0,102.0
732,154.090868,154.36785656249998,64.0,96.0
733,154.43177699999998,154.66899284583332,56.0,73.0
734,154.772686,154.8110382625,56.0,73.0
735,154.090868,154.968708675,49.0,127.0
736,154.772686,155.15336771666665,64.0,117.0
737,154.772686,155.18035634583333,61.0,127.0
738,155.113595,155.69314029999998,49.0,102.0
739,155.454504,155.81814026666666,64.0,100.0
740,155.454504,155.838026625,56.0,102.0
741,155.454504,155.84512889583334,61.0,127.0
742,156.136322,156.281208325,63.0,79.0
743,155.795413,156.315299225,49.0,112.0
744,156.136322,156.42467419583332,56.0,112.0
745,156.136322,156.4388787375,61.0,117.0
746,156.136322,156.4388787375,64.0,93.0
747,156.477231,156.79825364166666,49.0,127.0
748,156.81814,157.23859443333333,64.0,97.0
749,156.81814,157.2826285125,61.0,122.0
750,156.81814,157.29825350833332,57.0,102.0
751,157.15904899999998,157.67325340833332,52.0,60.0
752,157.499958,157.94598060833331,57.0,99.0
753,157.499958,157.96586696666665,64.0,95.0
754,157.499958,157.9729692375,61.0,112.0
755,157.840867,158.34654868333334,52.0,102.0
756,158.18177599999999,158.66473041666666,57.0,95.0
757,158.18177599999999,158.68887813749998,61.0,127.0
758,158.18177599999999,158.69455995416666,64.0,93.0
759,158.522685,158.94882124999998,52.0,100.0
760,158.863594,159.15052574166666,64.0,99.0
761,158.863594,159.16046892083332,61.0,127.0
762,156.81814,159.28404843333334,45.0,85.0
763,159.204503,159.31529842499998,52.0,82.0
764,159.545412,159.97296870416665,59.0,93.0
765,159.545412,159.980070975,68.0,112.0
766,159.545412,159.9843323375,64.0,100.0
767,159.88632099999998,160.37921859583332,52.0,97.0
768,160.22723,160.72296850416666,64.0,122.0
769,160.22723,160.73291168333333,59.0,112.0
770,160.22723,160.76274122083333,68.0,122.0
771,160.568139,161.13063885,52.0,97.0
772,160.90904799999998,161.34654788333333,59.0,97.0
773,160.90904799999998,161.36785469583333,68.0,127.0
774,160.90904799999998,161.37495696666667,64.0,117.0
775,161.249957,161.76132049999998,52.0,76.0
776,161.590866,161.82240002916666,68.0,122.0
777,161.590866,161.8635932,64.0,122.0
778,159.545412,161.98575225833332,40.0,83.0
779,161.931775,162.19739992916666,52.0,99.0
780,164.999956,165.06955825416665,57.0,50.0
781,162.272684,165.1405809625,44.0,107.0
782,162.272684,165.14768323333334,59.0,112.0
783,162.272684,165.16614913749999,63.0,102.0
784,162.272684,165.16756959166665,56.0,100.0
785,164.999956,165.7542171625,61.0,89.0
786,164.999956,165.83518304999998,68.0,79.0
787,164.999956,165.94029665833332,64.0,77.0
788,165.681774,166.07950116666666,57.0,36.0
789,165.34086499999998,167.01131909999998,52.0,59.0
790,164.999956,167.1135918,45.0,64.0
791,166.022683,167.15478497083333,68.0,66.0
792,166.022683,167.1689895125,64.0,57.0
793,166.022683,167.17040996666665,61.0,59.0
794,167.727228,169.78830699583332,40.0,76.0
795,168.749955,169.96018195,64.0,66.0
796,168.749955,169.9900114875,59.0,67.0
797,168.068137,170.002795575,52.0,55.0
798,168.409046,170.29114777083333,56.0,52.0
799,170.4545,171.17751117083333,59.0,65.0
800,170.4545,171.29114750416667,63.0,69.0
801,170.4545,172.5681358,44.0,73.0
802,171.477227,172.67040849999998,59.0,60.0
803,171.477227,172.7044994,63.0,65.0
804,170.96586349999998,172.76984029166667,56.0,46.0
805,173.181772,173.2371697125,56.0,34.0
806,173.181772,173.8081922875,64.0,63.0
807,173.181772,173.957339975,61.0,66.0
808,173.86359,174.35790805,56.0,36.0
809,173.181772,174.7542147625,49.0,69.0
810,174.204499,174.79398747916665,64.0,58.0
811,174.204499,175.048248775,61.0,61.0
812,174.886317,175.24569190416665,49.0,61.0
813,175.56813499999998,175.89199854999998,56.0,65.0
814,175.227226,175.89768036666666,64.0,65.0
815,175.227226,175.900521275,61.0,71.0
816,175.909044,175.97864625416665,57.0,50.0
817,175.909044,176.6633051625,61.0,89.0
818,175.909044,176.74427104999998,68.0,79.0
819,175.909044,176.84938465833332,64.0,77.0
820,176.590862,176.98858916666666,57.0,36.0
821,176.249953,177.9204071,52.0,59.0
822,175.909044,178.0226798,45.0,64.0
823,176.931771,178.06387297083333,68.0,66.0
824,176.931771,178.0780775125,64.0,57.0
825,176.931771,178.07949796666665,61.0,59.0
826,178.636316,180.69739499583332,40.0,76.0
827,179.659043,180.86926995,64.0,66.0
828,179.659043,180.8990994875,59.0,67.0
829,178.977225,180.911883575,52.0,55.0
830,179.318134,181.20023577083333,56.0,52.0
831,181.363588,182.08659917083332,59.0,65.0
832,181.363588,182.20023550416667,63.0,69.0
833,181.363588,183.4772238,44.0,73.0
834,182.386315,183.5794965,59.0,60.0
835,182.386315,183.6135874,63.0,65.0
836,181.87495149999998,183.67892829166667,56.0,46.0
837,184.09086,184.22438269166665,60.0,127.0
838,184.09086,184.2485304125,56.0,112.0
839,184.09086,184.27835994999998,63.0,112.0
840,184.431769,184.56245078333333,60.0,69.0
841,184.431769,184.59085986666665,56.0,79.0
842,184.431769,184.5979621375,63.0,88.0
843,184.09086,184.73148482916665,44.0,127.0
844,184.77267799999998,184.89057569583332,60.0,97.0
845,184.77267799999998,184.93603022916665,63.0,96.0
846,184.77267799999998,184.93745068333334,51.0,69.0
847,184.77267799999998,184.94029159166666,56.0,96.0
848,184.77267799999998,184.94597340833332,44.0,59.0
849,185.113587,185.23858696666665,60.0,97.0
850,185.113587,185.26841650416665,56.0,96.0
851,185.113587,185.275518775,63.0,99.0
852,185.113587,185.27693922916666,51.0,88.0
853,185.113587,185.292564225,44.0,89.0
854,185.454496,185.55960960833332,60.0,117.0
855,185.454496,185.57381415,51.0,102.0
856,185.454496,185.59796187083333,56.0,99.0
857,185.454496,185.60932550416666,63.0,100.0
858,185.454496,185.61358686666665,44.0,95.0
859,185.795405,185.88063225,60.0,99.0
860,185.795405,185.889154975,63.0,99.0
861,185.795405,185.9019390625,56.0,107.0
862,185.795405,185.90904133333333,51.0,95.0
863,185.795405,185.92608678333332,44.0,95.0
864,186.136314,186.21585943333332,60.0,93.0
865,186.136314,186.26273442083334,51.0,117.0
866,186.136314,186.26273442083334,63.0,97.0
867,186.136314,186.264154875,56.0,99.0
868,186.136314,186.2769389625,44.0,107.0
869,186.47722299999998,186.7712570125,60.0,127.0
870,186.47722299999998,186.79824564166665,56.0,122.0
871,186.47722299999998,186.79966609583332,51.0,107.0
872,186.47722299999998,186.8053479125,63.0,122.0
873,186.47722299999998,186.82807517916666,44.0,117.0
874,186.818132,187.150518275,61.0,74.0
875,186.818132,187.32381368333333,64.0,75.0
876,186.818132,187.3763704875,56.0,90.0
877,187.159041,187.713018125,49.0,73.0
878,187.49994999999998,187.99426805,61.0,69.0
879,187.49994999999998,188.07807484583333,64.0,79.0
880,187.840859,188.27267706666666,56.0,78.0
881,188.181768,188.55676789999998,61.0,63.0
882,188.181768,188.63205197083332,64.0,69.0
883,186.818132,188.84654055,37.0,93.0
884,188.522677,188.90477917083334,49.0,52.0
885,189.0340405,189.16472228333333,56.0,76.0
886,188.863586,189.213017725,61.0,107.0
887,188.863586,189.26983589166665,64.0,90.0
888,189.545404,189.89199481666665,61.0,97.0
889,189.545404,189.96869934166665,64.0,92.0
890,189.886313,190.36216514583333,52.0,46.0
891,190.22722199999998,190.7087559625,61.0,99.0
892,190.22722199999998,190.71585823333334,57.0,90.0
893,190.22722199999998,190.7456877708333,64.0,88.0
894,190.568131,191.09653995,52.0,53.0
895,190.90904,191.32381261666666,61.0,102.0
896,190.90904,191.39341487083334,64.0,82.0
897,191.249949,191.51131256666665,52.0,59.0
898,189.545404,191.60790344999998,45.0,74.0
899,191.590858,191.88205110416666,68.0,89.0
900,191.590858,191.8934147375,64.0,86.0
901,191.590858,191.9644374458333,61.0,99.0
902,191.93176699999998,192.17750557083332,59.0,77.0
903,192.272676,192.7115963375,64.0,99.0
904,192.272676,192.7371645125,68.0,112.0
905,192.613585,193.00420989583333,59.0,72.0
906,192.95449399999998,193.47153931666665,68.0,93.0
907,192.95449399999998,193.48290294999998,64.0,93.0
908,193.295403,193.7172778875,59.0,68.0
909,193.295403,193.87210739166665,52.0,48.0
910,193.80676649999998,194.10648232916665,59.0,35.0
911,193.636312,194.11926641666665,64.0,95.0
912,193.636312,194.17892549166666,68.0,96.0
913,192.613585,194.42040269999998,47.0,61.0
914,193.977221,194.42608451666666,52.0,77.0
915,192.272676,194.43176633333331,40.0,71.0
916,194.31813,194.6121640125,64.0,99.0
917,194.31813,194.62210719166666,68.0,99.0
918,194.65903899999998,194.75989124583333,59.0,75.0
919,194.999948,195.26557292916667,59.0,89.0
920,194.999948,195.37778880833332,63.0,107.0
921,195.340857,195.64057282916667,56.0,76.0
922,195.68176599999998,195.81670914583333,59.0,81.0
923,195.68176599999998,196.07949316666665,63.0,96.0
924,196.022675,196.17466359583332,56.0,78.0
925,194.999948,196.58233394166666,44.0,102.0
926,196.363584,196.7002316375,59.0,76.0
927,196.363584,196.72437935833332,63.0,88.0
928,196.70449299999999,197.39341327083332,44.0,71.0
929,197.045402,197.4544928,59.0,107.0
930,197.386311,197.6448336583333,56.0,89.0
931,197.045402,197.65193592916665,63.0,122.0
932,197.72722,198.059606275,61.0,74.0
933,197.72722,198.23290168333332,64.0,75.0
934,197.72722,198.2854584875,56.0,90.0
935,198.068129,198.622106125,49.0,73.0
936,198.40903799999998,198.90335604999999,61.0,69.0
937,198.40903799999998,198.98716284583332,64.0,79.0
938,198.749947,199.18176506666666,56.0,78.0
939,199.090856,199.46585589999998,61.0,63.0
940,199.090856,199.5411399708333,64.0,69.0
941,197.72722,199.75562854999998,37.0,93.0
942,199.43176499999998,199.81386717083333,49.0,52.0
943,199.9431285,200.07381028333333,56.0,76.0
944,199.772674,200.12210572499998,61.0,107.0
945,199.772674,200.17892389166667,64.0,90.0
946,200.454492,200.80108281666665,61.0,97.0
947,200.454492,200.87778734166665,64.0,92.0
948,200.795401,201.27125314583333,52.0,46.0
949,201.13630999999998,201.6178439625,61.0,99.0
950,201.13630999999998,201.62494623333333,57.0,90.0
951,201.13630999999998,201.65477577083334,64.0,88.0
952,201.477219,202.00562795,52.0,53.0
953,201.818128,202.23290061666665,61.0,102.0
954,201.818128,202.30250287083334,64.0,82.0
955,202.15903699999998,202.42040056666667,52.0,59.0
956,200.454492,202.51699144999998,45.0,74.0
957,202.499946,202.79113910416666,68.0,89.0
958,202.499946,202.8025027375,64.0,86.0
959,202.499946,202.87352544583334,61.0,99.0
960,202.840855,203.08659357083332,59.0,77.0
961,203.181764,203.6206843375,64.0,99.0
962,203.181764,203.64625251249998,68.0,112.0
963,203.522673,203.91329789583332,59.0,72.0
964,203.86358199999998,204.38062731666665,68.0,93.0
965,203.86358199999998,204.39199094999998,64.0,93.0
966,204.204491,204.6263658875,59.0,68.0
967,204.204491,204.78119539166667,52.0,48.0
968,204.71585449999998,205.01557032916665,59.0,35.0
969,204.5454,205.02835441666664,64.0,95.0
970,204.5454,205.08801349166666,68.0,96.0
971,203.522673,205.32949069999998,47.0,61.0
972,204.88630899999998,205.33517251666666,52.0,77.0
973,203.181764,205.3408543333333,40.0,71.0
974,205.227218,205.52125201249999,64.0,99.0
975,205.227218,205.53119519166665,68.0,99.0
976,205.568127,205.66897924583333,59.0,75.0
977,205.909036,205.99710415833331,59.0,85.0
978,205.909036,206.08233140833332,56.0,96.0
979,205.909036,206.09369504166665,63.0,96.0
980,205.909036,206.19738819583333,44.0,100.0
981,206.249945,206.36784269583333,59.0,58.0
982,206.249945,206.46443357916667,56.0,66.0
983,206.249945,206.47437675833334,63.0,59.0
984,206.249945,206.49568357083334,44.0,38.0
985,206.59085399999998,206.77551304166667,59.0,70.0
986,206.59085399999998,206.78261531249998,56.0,85.0
987,206.59085399999998,206.79255849166665,63.0,79.0
988,206.59085399999998,206.79539939999998,44.0,86.0
989,206.931763,207.1320470375,59.0,71.0
990,206.931763,207.13772885416665,63.0,76.0
991,206.931763,207.13914930833332,56.0,89.0
992,206.931763,207.15477430416666,44.0,75.0
993,207.272672,207.45449013333334,59.0,92.0
994,207.272672,207.45875149583333,56.0,107.0
995,207.272672,207.468694675,63.0,99.0
996,207.272672,207.49994466666666,44.0,102.0
997,207.61358099999998,207.758467325,59.0,96.0
998,207.61358099999998,207.77409232083332,44.0,112.0
999,207.61358099999998,207.7840355,56.0,100.0
1000,207.61358099999998,207.79824004166665,63.0,99.0
1001,207.95449,208.08091042083333,59.0,95.0
1002,207.95449,208.10647859583332,44.0,127.0
1003,207.95449,208.11926268333332,56.0,100.0
1004,207.95449,208.11926268333332,63.0,100.0
1005,208.295399,208.37352397916666,63.0,95.0
1006,208.295399,208.37778534166665,59.0,89.0
1007,208.295399,208.44454668749998,56.0,100.0
1008,208.295399,208.45022850416666,44.0,127.0
1009,208.63630799999999,208.87494429999998,56.0,100.0
1010,208.63630799999999,208.88204657083332,61.0,102.0
1011,208.63630799999999,208.9132965625,64.0,96.0
1012,208.977217,209.21443284583333,56.0,73.0
1013,209.31812599999998,209.3564782625,56.0,73.0
1014,208.63630799999999,209.514148675,49.0,127.0
1015,209.31812599999998,209.69880771666666,64.0,117.0
1016,209.31812599999998,209.72579634583332,61.0,127.0
1017,209.659035,210.2385803,49.0,102.0
1018,209.999944,210.36358026666665,64.0,100.0
1019,209.999944,210.38346662499998,56.0,102.0
1020,209.999944,210.39056889583333,61.0,127.0
1021,210.681762,210.82664832499998,63.0,79.0
1022,210.34085299999998,210.860739225,49.0,112.0
1023,210.681762,210.97011419583333,56.0,112.0
1024,210.681762,210.9843187375,61.0,117.0
1025,210.681762,210.9843187375,64.0,93.0
1026,211.022671,211.34369364166665,49.0,127.0
1027,211.36357999999998,211.78403443333332,64.0,97.0
1028,211.36357999999998,211.82806851249998,61.0,122.0
1029,211.36357999999998,211.84369350833333,57.0,102.0
1030,211.704489,212.21869340833334,52.0,60.0
1031,212.04539799999998,212.49142060833333,57.0,99.0
1032,212.04539799999998,212.51130696666667,64.0,95.0
1033,212.04539799999998,212.51840923749998,61.0,112.0
1034,212.386307,212.89198868333332,52.0,102.0
1035,212.727216,213.21017041666667,57.0,95.0
1036,212.727216,213.2343181375,61.0,127.0
1037,212.727216,213.23999995416665,64.0,93.0
1038,213.06812499999998,213.49426125,52.0,100.0
1039,213.409034,213.69596574166667,64.0,99.0
1040,213.409034,213.70590892083334,61.0,127.0
1041,211.36357999999998,213.82948843333332,45.0,85.0
1042,213.749943,213.860738425,52.0,82.0
1043,214.09085199999998,214.51840870416666,59.0,93.0
1044,214.09085199999998,214.525510975,68.0,112.0
1045,214.09085199999998,214.5297723375,64.0,100.0
1046,214.431761,214.92465859583334,52.0,97.0
1047,214.77267,215.26840850416667,64.0,122.0
1048,214.77267,215.2783516833333,59.0,112.0
1049,214.77267,215.30818122083332,68.0,122.0
1050,215.113579,215.67607884999998,52.0,97.0
1051,215.454488,215.89198788333331,59.0,97.0
1052,215.454488,215.91329469583332,68.0,127.0
1053,215.454488,215.92039696666666,64.0,117.0
1054,215.79539699999998,216.3067605,52.0,76.0
1055,216.136306,216.36784002916667,68.0,122.0
1056,216.136306,216.40903319999998,64.0,122.0
1057,214.09085199999998,216.53119225833333,40.0,83.0
1058,216.477215,216.74283992916665,52.0,99.0
1059,216.81812399999998,216.99141940833331,56.0,100.0
1060,216.81812399999998,217.07806711249998,63.0,112.0
1061,216.81812399999998,217.0951125625,59.0,107.0
1062,217.159033,217.39908975416665,56.0,99.0
1063,216.81812399999998,217.66471468333333,44.0,122.0
1064,217.499942,217.81670327916666,59.0,107.0
1065,217.499942,217.83374872916667,63.0,122.0
1066,217.499942,217.91897597916665,56.0,112.0
1067,217.840851,218.43886220416667,44.0,100.0
1068,218.18176,218.52408945416667,59.0,117.0
1069,218.18176,218.59227125416666,63.0,117.0
1070,218.18176,218.61073715833334,56.0,122.0
1071,218.52266899999998,219.06102112916665,44.0,76.0
1072,218.863578,219.50846419166666,59.0,117.0
1073,219.204487,219.5113051,56.0,107.0
1074,219.204487,219.52550964166664,44.0,96.0
1075,218.863578,219.55533917916665,63.0,127.0
1076,219.54539599999998,219.78403229999998,56.0,100.0
1077,219.54539599999998,219.79113457083332,61.0,102.0
1078,219.54539599999998,219.8223845625,64.0,96.0
1079,219.886305,220.12352084583333,56.0,73.0
1080,220.227214,220.2655662625,56.0,73.0
1081,219.54539599999998,220.423236675,49.0,127.0
1082,220.227214,220.60789571666666,64.0,117.0
1083,220.227214,220.6348843458333,61.0,127.0
1084,220.56812299999999,221.1476683,49.0,102.0
1085,220.909032,221.27266826666667,64.0,100.0
1086,220.909032,221.29255462499998,56.0,102.0
1087,220.909032,221.29965689583332,61.0,127.0
1088,221.59085,221.735736325,63.0,79.0
1089,221.24994099999998,221.769827225,49.0,112.0
1090,221.59085,221.87920219583333,56.0,112.0
1091,221.59085,221.8934067375,61.0,117.0
1092,221.59085,221.8934067375,64.0,93.0
1093,221.931759,222.25278164166664,49.0,127.0
1094,222.27266799999998,222.69312243333331,64.0,97.0
1095,222.27266799999998,222.73715651249998,61.0,122.0
1096,222.27266799999998,222.75278150833333,57.0,102.0
1097,222.613577,223.12778140833333,52.0,60.0
1098,222.954486,223.40050860833333,57.0,99.0
1099,222.954486,223.42039496666666,64.0,95.0
1100,222.954486,223.42749723749998,61.0,112.0
1101,223.29539499999998,223.80107668333332,52.0,102.0
1102,223.636304,224.11925841666667,57.0,95.0
1103,223.636304,224.1434061375,61.0,127.0
1104,223.636304,224.14908795416665,64.0,93.0
1105,223.97721299999998,224.40334925,52.0,100.0
1106,224.318122,224.60505374166667,64.0,99.0
1107,224.318122,224.61499692083333,61.0,127.0
1108,222.27266799999998,224.73857643333332,45.0,85.0
1109,224.659031,224.769826425,52.0,82.0
1110,224.99993999999998,225.42749670416666,59.0,93.0
1111,224.99993999999998,225.434598975,68.0,112.0
1112,224.99993999999998,225.4388603375,64.0,100.0
1113,225.340849,225.83374659583333,52.0,97.0
1114,225.681758,226.17749650416667,64.0,122.0
1115,225.681758,226.18743968333334,59.0,112.0
1116,225.681758,226.21726922083332,68.0,122.0
1117,226.02266699999998,226.58516684999998,52.0,97.0
1118,226.363576,226.8010758833333,59.0,97.0
1119,226.363576,226.8223826958333,68.0,127.0
1120,226.363576,226.82948496666666,64.0,117.0
1121,226.70448499999998,227.2158485,52.0,76.0
1122,227.045394,227.27692802916667,68.0,122.0
1123,227.045394,227.31812119999998,64.0,122.0
1124,224.99993999999998,227.44028025833333,40.0,83.0
1125,227.386303,227.65192792916665,52.0,99.0
1126,227.72721199999998,227.9615869375,68.0,76.0
1127,227.72721199999998,227.96300739166665,59.0,88.0
1128,227.72721199999998,227.9658483,44.0,107.0
1129,227.72721199999998,227.9701096625,56.0,93.0
1130,227.72721199999998,227.98005284166666,63.0,72.0
1131,228.068121,228.2598823125,68.0,81.0
1132,228.068121,228.2669845833333,44.0,99.0
1133,228.068121,228.2669845833333,59.0,93.0
1134,228.068121,228.27550730833332,56.0,90.0
1135,228.068121,228.29255275833333,63.0,82.0
1136,228.40903,228.60079131249998,68.0,72.0
1137,228.40903,228.6348822125,59.0,93.0
1138,228.40903,228.63772312083333,56.0,89.0
1139,228.40903,228.64908675416666,63.0,89.0
1140,228.40903,228.66471174999998,44.0,112.0
1141,228.74993899999998,229.2257911458333,56.0,100.0
1142,228.74993899999998,229.23715477916664,59.0,102.0
1143,228.74993899999998,229.25135932083333,68.0,89.0
1144,228.74993899999998,229.26272295416666,63.0,97.0
1145,228.74993899999998,229.27834794999998,44.0,117.0
