,start,end,pitch,velocity
0,26.064870379166663,26.300629975,71.0,96.0
1,26.444617379166665,26.610756691666666,71.0,99.0
2,26.63449087916667,26.786389679166668,69.0,101.0
3,26.824364379166667,27.889238258333336,71.0,104.0
4,27.963605379166665,28.297466283333335,69.0,113.0
5,28.343352379166667,28.757909520833337,71.0,113.0
6,28.72309937916667,29.00790962916667,74.0,113.0
7,29.102846379166664,29.74841627916667,76.0,97.0
8,32.140822379166664,32.389240208333334,72.0,112.0
9,32.520569379166666,32.623417525,72.0,99.0
10,32.71044287916667,32.81645558333334,72.0,89.0
11,32.90031637916667,33.61234200416667,72.0,117.0
12,34.039557379166666,34.3939879125,72.0,93.0
13,34.41930437916667,34.768988075,74.0,96.0
14,34.79905137916667,35.154638062500005,76.0,97.0
15,35.180279062500006,36.8020723125,69.0,85.0
16,37.48948837500001,37.817410125,71.0,100.0
17,37.879098375000005,38.15182537500001,72.0,96.0
18,38.268708375,39.359616375,74.0,122.0
19,39.437538375,39.745979625000004,74.0,117.0
20,39.82714837500001,41.002471875000005,71.0,100.0
21,41.190783375,41.661562125,69.0,100.0
22,41.775198375,43.288183875,67.0,100.0
23,44.1063440625,44.3883950625,67.0,97.0
24,44.4909590625,45.45730425,76.0,122.0
25,45.6448040625,45.877175625,76.0,122.0
26,46.02793837916667,46.39502714583334,76.0,107.0
27,46.78743237916667,46.956736250000006,72.0,96.0
28,46.97730587916667,47.152938866666666,74.0,85.0
29,47.16717937916667,47.54692637916667,76.0,95.0
30,47.54692637916667,50.07857304583334,74.0,95.0
31,50.58490237916667,50.7874341125,71.0,112.0
32,50.96464937916667,51.092813991666674,71.0,102.0
33,51.15452287916667,51.31116851666667,69.0,69.0
34,51.34439637916667,52.282687925000005,71.0,97.0
35,52.483637379166666,52.87129577500001,69.0,102.0
36,52.86338437916667,53.216232633333334,71.0,112.0
37,53.24313137916667,53.52952390833334,74.0,122.0
38,53.62287837916667,55.062752420833334,76.0,127.0
39,56.66085437916667,56.838069645833336,72.0,127.0
40,57.040601379166674,57.19250017916667,72.0,122.0
41,57.23047487916667,57.325411629166666,71.0,92.0
42,57.42034837916667,58.20674112500001,72.0,127.0
43,58.55958937916667,58.81908316250001,72.0,102.0
44,58.93933637916667,59.24313397916667,74.0,122.0
45,59.31908337916667,59.59123539583334,76.0,97.0
46,59.69883037916667,61.7478819,69.0,117.0
47,61.97731237916667,62.270034025,71.0,97.0
48,62.16718587916667,62.489970829166666,72.0,102.0
49,62.736806379166666,63.73997137083334,74.0,127.0
50,64.25579437916667,64.61497175000001,71.0,122.0
51,64.82541487916667,65.26370620833333,69.0,127.0
52,65.39503537916667,65.7019975375,67.0,102.0
53,65.77478237916667,67.32066912500001,76.0,112.0
54,68.0518205,68.309633,72.0,107.0
55,68.4268205,68.6455705,74.0,112.0
56,68.8018205,70.0736955,76.0,127.0
57,70.6768205,70.9143205,76.0,112.0
58,71.0518205,71.328383,78.0,122.0
59,71.4268205,71.6986955,79.0,117.0
60,71.8018205,72.7643205,81.0,127.0
61,72.9268205,73.21275800000001,74.0,122.0
62,73.3018205,73.90807050000001,76.0,127.0
63,74.0518205,74.609633,78.0,127.0
64,74.8018205,75.390883,79.0,127.0
65,75.1768205,75.390883,79.0,127.0
66,75.5518205,76.269008,79.0,127.0
67,76.6768205,76.825258,79.0,127.0
68,77.0518205,77.269008,79.0,122.0
69,77.4268205,77.6643205,79.0,127.0
70,77.8018205,78.0705705,76.0,127.0
71,78.1768205,78.3080705,78.0,127.0
72,78.3643205,78.562758,76.0,122.0
73,78.9268205,79.7330705,76.0,122.0
74,80.0518205,80.2924455,74.0,127.0
75,80.4268205,80.678383,74.0,117.0
76,80.8018205,81.9361955,76.0,127.0
77,82.6768205,82.9143205,76.0,122.0
78,83.0518205,83.3268205,78.0,127.0
79,83.4268205,83.7393205,79.0,122.0
80,83.8018205,85.0861955,78.0,127.0
81,84.9268205,85.169008,74.0,112.0
82,85.3018205,85.909633,76.0,127.0
83,86.0518205,86.5268205,78.0,127.0
84,86.8018205,86.97838300000001,79.0,122.0
85,87.1768205,87.390883,79.0,117.0
86,87.5518205,87.753383,78.0,122.0
87,87.9268205,88.6830705,79.0,127.0
88,88.6768205,88.6830705,79.0,127.0
89,89.0518205,89.253383,79.0,127.0
90,89.4268205,89.63463300000001,78.0,127.0
91,89.8018205,90.253383,76.0,122.0
92,90.3643205,90.694008,78.0,117.0
93,90.9268205,91.594008,76.0,127.0
94,92.4268205,92.672133,74.0,107.0
95,92.8018205,93.678383,76.0,127.0
96,93.9268205,94.20494550000001,76.0,127.0
97,94.3018205,94.928383,74.0,127.0
98,95.0518205,95.375258,76.0,112.0
99,95.4268205,95.68932050000001,79.0,112.0
100,95.8018205,97.49313820416667,79.0,122.0
101,120.06226437916668,120.298023975,71.0,96.0
102,120.44201137916667,120.60815069166668,71.0,99.0
103,120.63188487916668,120.78378367916667,69.0,101.0
104,120.82175837916667,121.88663225833334,71.0,104.0
105,121.96099937916668,122.29486028333334,69.0,113.0
106,122.34074637916667,122.75530352083334,71.0,113.0
107,122.72049337916667,123.00530362916668,74.0,113.0
108,123.10024037916668,123.74581027916668,76.0,97.0
109,126.13821637916668,126.38663420833333,72.0,112.0
110,126.51796337916667,126.62081152500001,72.0,99.0
111,126.70783687916668,126.81384958333334,72.0,89.0
112,126.89771037916667,127.60973600416668,72.0,117.0
113,128.03695137916668,128.3913819125,72.0,93.0
114,128.41669837916666,128.766382075,74.0,96.0
115,128.79644537916667,129.1508759125,76.0,97.0
116,129.17619237916668,130.77745889583335,69.0,85.0
117,131.45467437916668,131.77429477083334,71.0,100.0
118,131.83442137916668,132.10024427916667,72.0,96.0
119,132.21416837916667,133.27745997916668,74.0,122.0
120,133.35340937916666,133.65404242083335,74.0,117.0
121,133.73315637916667,134.87872649583335,71.0,100.0
122,135.06227087916668,135.5211318375,69.0,100.0
123,135.6318913791667,137.1065755625,67.0,100.0
124,137.91037337916669,138.1888545125,67.0,97.0
125,138.29012037916667,139.24423471666668,76.0,122.0
126,139.42936137916666,139.65879185833333,76.0,122.0
127,139.80910837916667,140.17619714583333,76.0,107.0
128,140.56860237916666,140.73790625,72.0,96.0
129,140.75847587916667,140.9341088666667,74.0,85.0
130,140.94834937916667,141.32809637916668,76.0,95.0
131,141.32809637916668,143.85974304583334,74.0,95.0
132,144.36607237916667,144.5686041125,71.0,112.0
133,144.74581937916668,144.87398399166668,71.0,102.0
134,144.93569287916668,145.09233851666667,69.0,69.0
135,145.12556637916668,146.063857925,71.0,97.0
136,146.26480737916668,146.652465775,69.0,102.0
137,146.64455437916666,146.99740263333334,71.0,112.0
138,147.02430137916667,147.31069390833335,74.0,122.0
139,147.40404837916668,148.84392242083334,76.0,127.0
140,150.44202437916667,150.61923964583335,72.0,127.0
141,150.82177137916668,150.97367017916667,72.0,122.0
142,151.01164487916668,151.1063245,71.0,92.0
143,151.2000745,151.976637,72.0,127.0
144,152.3250745,152.58132450000002,72.0,102.0
145,152.7000745,153.0000745,74.0,122.0
146,153.0750745,153.3438245,76.0,97.0
147,153.4500745,155.473512,69.0,117.0
148,155.7000745,155.989137,71.0,97.0
149,155.8875745,156.20632450000002,72.0,102.0
150,156.4500745,157.43632076458334,74.0,127.0
151,157.93940736041668,158.289716125,71.0,122.0
152,158.49496311041668,158.92243239583334,69.0,127.0
153,159.05051886041667,159.34990168125,67.0,102.0
154,159.42088936041668,160.9286059375,76.0,112.0
155,161.64311236041667,161.89774207916668,72.0,107.0
156,162.01348286041667,162.22953231875002,74.0,112.0
157,162.38385336041668,163.64002663958334,76.0,127.0
158,164.2357058604167,164.47027384375002,76.0,112.0
159,164.60607636041667,164.87922460416667,78.0,122.0
160,164.97644686041667,165.24496547291668,79.0,117.0
161,165.34681736041668,166.29743497708336,81.0,127.0
162,166.45792886041667,166.74033636666667,74.0,122.0
163,166.82829936041668,167.42706500208334,76.0,127.0
164,167.56904036041666,168.1199664791667,78.0,127.0
165,168.30978136041668,168.8915716875,79.0,127.0
166,168.6801518604167,168.8915716875,79.0,127.0
167,169.05052236041666,169.75885594166667,79.0,127.0
168,170.16163386041669,170.30823885,79.0,127.0
169,170.53200436041666,170.74651060833335,79.0,122.0
170,170.90237486041667,171.13694284375,79.0,127.0
171,171.27274536041668,171.53817755208334,76.0,127.0
172,171.64311586041669,171.77274553541668,78.0,127.0
173,171.82830111041667,172.02428883333334,76.0,122.0
174,172.38385686041667,173.18015343541668,76.0,122.0
175,173.4949683604167,173.73262276458334,74.0,127.0
176,173.86533886041667,174.1137957375,74.0,117.0
177,174.23570936041668,175.35608012291667,76.0,127.0
178,176.08756186041668,176.32212984375002,76.0,122.0
179,176.4579323604167,176.72953739375,78.0,127.0
180,176.82830286041667,177.13694494375,79.0,122.0
181,177.19867336041668,178.46719232291667,78.0,127.0
182,178.30978486041667,178.548982475,74.0,112.0
183,178.68015536041668,179.28046421250002,76.0,127.0
184,179.4208963604167,179.89003232708333,78.0,127.0
185,180.16163736041668,180.33602013750001,79.0,122.0
186,180.53200786041668,180.7434276875,79.0,117.0
187,180.90237836041666,181.10145250416667,78.0,122.0
188,181.27274886041667,182.01966270208334,79.0,127.0
189,182.01348986041668,182.01966270208334,79.0,127.0
190,182.3838603604167,182.58293450416667,79.0,127.0
191,182.75423086041667,182.95947784583333,78.0,127.0
192,183.1274533791667,183.58473205833334,76.0,122.0
193,183.69707387916668,184.03093478333335,78.0,117.0
194,184.2666943791667,184.94232758333337,76.0,127.0
195,185.7856823791667,186.03410020833334,74.0,107.0
196,186.16542937916668,187.0530879916667,76.0,127.0
197,187.30467037916668,187.58631607083336,76.0,127.0
198,187.6844173791667,188.31891132500002,74.0,127.0
199,188.44391137916668,188.7714431666667,76.0,112.0
200,188.8236583791667,189.08948127916668,79.0,112.0
201,189.2034053791667,190.9027732041667,79.0,122.0
202,202.3649375,202.650875,74.0,122.0
203,202.7399375,203.3461875,76.0,127.0
204,203.48852936041666,204.03945547916666,78.0,127.0
205,204.22927036041668,204.8110606875,79.0,127.0
206,204.59964086041668,204.8110606875,79.0,127.0
207,204.97001136041666,205.67834494166667,79.0,127.0
208,206.08112286041668,206.22772785,79.0,127.0
209,206.45149336041666,206.66599960833335,79.0,122.0
210,206.82186386041667,207.05643184375,79.0,127.0
211,207.19223436041668,207.45766655208334,76.0,127.0
212,207.56260486041668,207.69223453541667,78.0,127.0
213,207.74779011041667,207.94377783333334,76.0,122.0
214,208.30334586041667,209.09964243541668,76.0,122.0
215,209.41445736041666,209.65211176458334,74.0,127.0
216,209.78482786041667,210.0332847375,74.0,117.0
217,210.1566065,211.29098150000002,76.0,127.0
218,212.0316065,212.26910650000002,76.0,122.0
219,212.4066065,212.68160650000002,78.0,127.0
220,212.7816065,213.0941065,79.0,122.0
221,213.1566065,214.44098150000002,78.0,127.0
222,214.2816065,214.523794,74.0,112.0
223,214.6566065,215.26441900000003,76.0,127.0
224,215.4066065,215.88160650000003,78.0,127.0
225,216.1566065,216.33316900000003,79.0,122.0
226,216.5316065,216.74566900000002,79.0,117.0
227,216.9066065,217.10816900000003,78.0,122.0
228,217.2816065,218.03785650000003,79.0,127.0
229,218.0316065,218.03785650000003,79.0,127.0
230,218.4066065,218.60816900000003,79.0,127.0
231,218.7816065,218.98941900000003,78.0,127.0
232,219.1566065,219.60816900000003,76.0,122.0
233,219.7191065,220.04879400000002,78.0,117.0
234,220.2816065,220.94879400000002,76.0,127.0
235,221.7816065,222.02691900000002,74.0,107.0
236,222.1566065,223.03316900000002,76.0,127.0
237,223.2816065,223.55973150000003,76.0,127.0
238,223.6566065,224.28316900000002,74.0,127.0
239,224.4066065,224.73004400000002,76.0,112.0
240,224.7816065,225.04410650000003,79.0,112.0
241,225.1566065,226.84792420416667,79.0,122.0
