,start,end,pitch,velocity
0,35.666666666666664,35.91458333333333,68.0,110.0
1,35.916666666666664,36.166666666666664,68.0,107.0
2,36.166666666666664,36.66458333333333,75.0,119.0
3,36.666666666666664,37.16458333333333,75.0,117.0
4,37.166666666666664,37.416666666666664,75.0,116.0
5,37.416666666666664,37.666666666666664,73.0,92.0
6,37.666666666666664,37.916666666666664,71.0,90.0
7,37.916666666666664,38.416666666666664,75.0,110.0
8,38.416666666666664,38.916666666666664,78.0,113.0
9,38.916666666666664,39.66458333333333,75.0,113.0
10,39.666666666666664,39.916666666666664,75.0,108.0
11,39.916666666666664,40.166666666666664,78.0,107.0
12,40.166666666666664,40.66458333333333,80.0,113.0
13,40.666666666666664,41.166666666666664,80.0,110.0
14,41.166666666666664,41.43125,78.0,113.0
15,41.416666666666664,41.916666666666664,80.0,113.0
16,41.916666666666664,42.16458333333333,78.0,96.0
17,42.166666666666664,42.666666666666664,78.0,114.0
18,42.666666666666664,43.66458333333333,75.0,110.0
19,43.666666666666664,43.916666666666664,75.0,114.0
20,43.916666666666664,44.166666666666664,78.0,98.0
21,44.166666666666664,44.66458333333333,73.0,108.0
22,44.666666666666664,45.16458333333333,73.0,108.0
23,45.166666666666664,45.416666666666664,73.0,113.0
24,45.416666666666664,45.66458333333333,71.0,104.0
25,45.666666666666664,45.958333333333336,71.0,102.0
26,45.916666666666664,46.166666666666664,73.0,94.0
27,46.166666666666664,46.666666666666664,75.0,114.0
28,46.666666666666664,46.916666666666664,78.0,104.0
29,46.916666666666664,47.666666666666664,75.0,110.0
30,47.666666666666664,47.94583333333333,68.0,108.0
31,47.916666666666664,48.166666666666664,70.0,107.0
32,48.166666666666664,48.666666666666664,71.0,110.0
33,48.666666666666664,49.166666666666664,73.0,110.0
34,49.166666666666664,49.458333333333336,70.0,108.0
35,49.416666666666664,49.666666666666664,68.0,102.0
36,49.666666666666664,49.916666666666664,66.0,100.0
37,49.916666666666664,50.16458333333333,68.0,100.0
38,50.166666666666664,51.66458333333333,68.0,113.0
39,51.666666666666664,51.91458333333333,68.0,113.0
40,51.916666666666664,52.166666666666664,68.0,108.0
41,52.166666666666664,52.66458333333333,75.0,96.0
42,52.666666666666664,53.16458333333333,75.0,113.0
43,53.166666666666664,53.416666666666664,75.0,108.0
44,53.416666666666664,53.672916666666666,73.0,102.0
45,53.666666666666664,53.916666666666664,71.0,108.0
46,53.916666666666664,54.166666666666664,73.0,98.0
47,54.166666666666664,54.416666666666664,75.0,113.0
48,54.416666666666664,54.916666666666664,78.0,113.0
49,54.916666666666664,55.66458333333333,75.0,114.0
50,55.666666666666664,55.916666666666664,75.0,114.0
51,55.916666666666664,56.166666666666664,78.0,104.0
52,56.166666666666664,56.66458333333333,80.0,113.0
53,56.666666666666664,57.166666666666664,80.0,114.0
54,57.166666666666664,57.416666666666664,78.0,110.0
55,57.416666666666664,57.916666666666664,80.0,108.0
56,57.916666666666664,58.16458333333333,78.0,98.0
57,58.166666666666664,58.666666666666664,78.0,116.0
58,58.666666666666664,59.66458333333333,75.0,116.0
59,59.666666666666664,59.93541666666667,75.0,113.0
60,59.916666666666664,60.168749999999996,78.0,102.0
61,60.166666666666664,60.66458333333333,73.0,110.0
62,60.666666666666664,61.16458333333333,73.0,110.0
63,61.166666666666664,61.416666666666664,73.0,110.0
64,61.416666666666664,61.66458333333333,71.0,102.0
65,61.666666666666664,61.916666666666664,71.0,107.0
66,61.916666666666664,62.166666666666664,73.0,102.0
67,62.166666666666664,62.416666666666664,75.0,113.0
68,62.416666666666664,62.916666666666664,78.0,100.0
69,62.916666666666664,63.666666666666664,75.0,110.0
70,63.666666666666664,63.94375,68.0,107.0
71,63.916666666666664,64.16666666666667,70.0,104.0
72,64.16666666666667,65.16666666666667,71.0,110.0
73,65.16666666666667,65.66666666666667,70.0,110.0
74,65.66666666666667,66.16666666666667,66.0,114.0
75,66.16666666666667,67.66666666666667,68.0,114.0
76,67.66666666666667,67.91458333333333,75.0,116.0
77,67.91666666666667,68.16666666666667,75.0,108.0
78,68.16666666666667,68.66458333333333,80.0,113.0
79,68.66666666666667,69.16666666666667,80.0,114.0
80,69.16666666666667,69.41666666666667,78.0,108.0
81,69.41666666666667,69.91666666666667,80.0,102.0
82,69.91666666666667,70.16458333333333,78.0,107.0
83,70.16666666666667,70.66666666666667,78.0,113.0
84,70.66666666666667,71.66458333333333,75.0,117.0
85,71.66666666666667,71.91458333333333,75.0,104.0
86,71.91666666666667,72.16666666666667,75.0,104.0
87,72.16666666666667,72.66458333333333,80.0,113.0
88,72.66666666666667,73.16666666666667,80.0,113.0
89,73.16666666666667,73.41666666666667,78.0,114.0
90,73.41666666666667,73.91666666666667,80.0,98.0
91,73.91666666666667,74.16458333333333,78.0,114.0
92,74.16666666666667,74.66666666666667,78.0,116.0
93,74.66666666666667,75.41666666666667,75.0,117.0
94,75.41666666666667,75.66458333333333,73.0,116.0
95,75.66666666666667,75.91666666666667,73.0,110.0
96,75.91666666666667,76.16666666666667,71.0,110.0
97,76.16666666666667,77.16458333333333,73.0,114.0
98,77.16666666666667,77.66666666666667,73.0,117.0
99,77.66666666666667,77.91666666666667,71.0,113.0
100,77.91666666666667,79.16666666666667,73.0,117.0
101,79.16666666666667,79.66666666666667,78.0,117.0
102,79.66666666666667,80.16666666666667,80.0,116.0
103,80.16666666666667,83.66458333333333,75.0,117.0
104,83.66666666666667,83.91458333333333,75.0,110.0
105,83.91666666666667,84.16666666666667,75.0,113.0
106,84.16666666666667,84.66458333333333,80.0,119.0
107,84.66666666666667,85.16666666666667,80.0,116.0
108,85.16666666666667,85.41666666666667,78.0,116.0
109,85.41666666666667,85.91666666666667,80.0,113.0
110,85.91666666666667,86.16458333333333,78.0,117.0
111,86.16666666666667,86.66666666666667,78.0,119.0
112,86.66666666666667,87.66458333333333,75.0,116.0
113,87.66666666666667,87.91666666666667,75.0,117.0
114,87.91666666666667,88.16666666666667,78.0,104.0
115,88.16666666666667,88.66458333333333,73.0,117.0
116,88.66666666666667,89.16458333333333,73.0,110.0
117,89.16666666666667,89.44375,73.0,113.0
118,89.41666666666667,89.91666666666667,71.0,102.0
119,89.91666666666667,90.16666666666667,73.0,113.0
120,90.16666666666667,90.41666666666667,75.0,102.0
121,90.41666666666667,90.66666666666667,78.0,116.0
122,90.66666666666667,91.66666666666667,75.0,110.0
123,91.66666666666667,91.91666666666667,68.0,113.0
124,91.91666666666667,92.16666666666667,70.0,110.0
125,92.16666666666667,93.16458333333333,71.0,114.0
126,93.16666666666667,93.44583333333333,71.0,114.0
127,93.41666666666667,93.91666666666667,73.0,96.0
128,93.91666666666667,95.16458333333333,70.0,110.0
129,95.16666666666667,95.41458333333333,70.0,116.0
130,95.41666666666667,95.91666666666667,70.0,113.0
131,95.91666666666667,96.16666666666667,66.0,107.0
132,96.16666666666667,96.66666666666667,70.0,116.0
133,96.66666666666667,98.16666666666667,68.0,117.0
134,131.66666666666666,131.91458333333333,68.0,110.0
135,131.91666666666666,132.16666666666666,68.0,107.0
136,132.16666666666666,132.66458333333333,75.0,119.0
137,132.66666666666666,133.16458333333333,75.0,117.0
138,133.16666666666666,133.41666666666666,75.0,116.0
139,133.41666666666666,133.66666666666666,73.0,92.0
140,133.66666666666666,133.91666666666666,71.0,90.0
141,133.91666666666666,134.41666666666666,75.0,110.0
142,134.41666666666666,134.91666666666666,78.0,113.0
143,134.91666666666666,135.66458333333333,75.0,113.0
144,135.66666666666666,135.91666666666666,75.0,108.0
145,135.91666666666666,136.16666666666666,78.0,107.0
146,136.16666666666666,136.66458333333333,80.0,113.0
147,136.66666666666666,137.16666666666666,80.0,110.0
148,137.16666666666666,137.43125,78.0,113.0
149,137.41666666666666,137.91666666666666,80.0,113.0
150,137.91666666666666,138.16458333333333,78.0,96.0
151,138.16666666666666,138.66666666666666,78.0,114.0
152,138.66666666666666,139.66458333333333,75.0,110.0
153,139.66666666666666,139.91666666666666,75.0,114.0
154,139.91666666666666,140.16666666666666,78.0,98.0
155,140.16666666666666,140.66458333333333,73.0,108.0
156,140.66666666666666,141.16458333333333,73.0,108.0
157,141.16666666666666,141.41666666666666,73.0,113.0
158,141.41666666666666,141.66458333333333,71.0,104.0
159,141.66666666666666,141.95833333333334,71.0,102.0
160,141.91666666666666,142.16666666666666,73.0,94.0
161,142.16666666666666,142.66666666666666,75.0,114.0
162,142.66666666666666,142.91666666666666,78.0,104.0
163,142.91666666666666,143.66666666666666,75.0,110.0
164,143.66666666666666,143.94583333333333,68.0,108.0
165,143.91666666666666,144.16666666666666,70.0,107.0
166,144.16666666666666,144.66666666666666,71.0,110.0
167,144.66666666666666,145.16666666666666,73.0,110.0
168,145.16666666666666,145.45833333333334,70.0,108.0
169,145.41666666666666,145.66666666666666,68.0,102.0
170,145.66666666666666,145.91666666666666,66.0,100.0
171,145.91666666666666,146.16458333333333,68.0,100.0
172,146.16666666666666,147.66458333333333,68.0,113.0
173,147.66666666666666,147.91458333333333,68.0,113.0
174,147.91666666666666,148.16666666666666,68.0,108.0
175,148.16666666666666,148.66458333333333,75.0,96.0
176,148.66666666666666,149.16458333333333,75.0,113.0
177,149.16666666666666,149.41666666666666,75.0,108.0
178,149.41666666666666,149.67291666666665,73.0,102.0
179,149.66666666666666,149.91666666666666,71.0,108.0
180,149.91666666666666,150.16666666666666,73.0,98.0
181,150.16666666666666,150.41666666666666,75.0,113.0
182,150.41666666666666,150.91666666666666,78.0,113.0
183,150.91666666666666,151.66458333333333,75.0,114.0
184,151.66666666666666,151.91666666666666,75.0,114.0
185,151.91666666666666,152.16666666666666,78.0,104.0
186,152.16666666666666,152.66458333333333,80.0,113.0
187,152.66666666666666,153.16666666666666,80.0,114.0
188,153.16666666666666,153.41666666666666,78.0,110.0
189,153.41666666666666,153.91666666666666,80.0,108.0
190,153.91666666666666,154.16458333333333,78.0,98.0
191,154.16666666666666,154.66666666666666,78.0,116.0
192,154.66666666666666,155.66458333333333,75.0,116.0
193,155.66666666666666,155.93541666666667,75.0,113.0
194,155.91666666666666,156.16875,78.0,102.0
195,156.16666666666666,156.66458333333333,73.0,110.0
196,156.66666666666666,157.16458333333333,73.0,110.0
197,157.16666666666666,157.41666666666666,73.0,110.0
198,157.41666666666666,157.66458333333333,71.0,102.0
199,157.66666666666666,157.91666666666666,71.0,107.0
200,157.91666666666666,158.16666666666666,73.0,102.0
201,158.16666666666666,158.41666666666666,75.0,113.0
202,158.41666666666666,158.91666666666666,78.0,100.0
203,158.91666666666666,159.66666666666666,75.0,110.0
204,159.66666666666666,159.94375,68.0,107.0
205,159.91666666666666,160.16666666666666,70.0,104.0
206,160.16666666666666,161.16666666666666,71.0,110.0
207,161.16666666666666,161.66666666666666,70.0,110.0
208,161.66666666666666,162.16666666666666,66.0,114.0
209,162.16666666666666,163.16666666666666,68.0,114.0
210,163.66666666666666,163.91458333333333,75.0,116.0
211,163.91666666666666,164.16666666666666,75.0,108.0
212,164.16666666666666,164.66458333333333,80.0,113.0
213,164.66666666666666,165.16666666666666,80.0,114.0
214,165.16666666666666,165.41666666666666,78.0,108.0
215,165.41666666666666,165.91666666666666,80.0,102.0
216,165.91666666666666,166.16458333333333,78.0,107.0
217,166.16666666666666,166.66666666666666,78.0,113.0
218,166.66666666666666,167.66458333333333,75.0,117.0
219,167.66666666666666,167.91458333333333,75.0,104.0
220,167.91666666666666,168.16666666666666,75.0,104.0
221,168.16666666666666,168.66458333333333,80.0,113.0
222,168.66666666666666,169.16666666666666,80.0,113.0
223,169.16666666666666,169.41666666666666,78.0,114.0
224,169.41666666666666,169.91666666666666,80.0,98.0
225,169.91666666666666,170.16458333333333,78.0,114.0
226,170.16666666666666,170.66666666666666,78.0,116.0
227,170.66666666666666,171.41666666666666,75.0,117.0
228,171.41666666666666,171.66458333333333,73.0,116.0
229,171.66666666666666,171.91666666666666,73.0,110.0
230,171.91666666666666,172.16666666666666,71.0,110.0
231,172.16666666666666,173.16458333333333,73.0,114.0
232,173.16666666666666,173.66666666666666,73.0,117.0
233,173.66666666666666,173.91666666666666,71.0,113.0
234,173.91666666666666,175.16666666666666,73.0,117.0
235,175.16666666666666,175.66666666666666,78.0,117.0
236,175.66666666666666,176.16666666666666,80.0,116.0
237,176.16666666666666,179.66458333333333,75.0,117.0
238,179.66666666666666,179.91458333333333,75.0,110.0
239,179.91666666666666,180.16666666666666,75.0,113.0
240,180.16666666666666,180.66458333333333,80.0,119.0
241,180.66666666666666,181.16666666666666,80.0,116.0
242,181.16666666666666,181.41666666666666,78.0,116.0
243,181.41666666666666,181.91666666666666,80.0,113.0
244,181.91666666666666,182.16458333333333,78.0,117.0
245,182.16666666666666,182.66666666666666,78.0,119.0
246,182.66666666666666,183.66458333333333,75.0,116.0
247,183.66666666666666,183.91666666666666,75.0,117.0
248,183.91666666666666,184.16666666666666,78.0,104.0
249,184.16666666666666,184.66458333333333,73.0,117.0
250,184.66666666666666,185.16458333333333,73.0,110.0
251,185.16666666666666,185.44375,73.0,113.0
252,185.41666666666666,185.91666666666666,71.0,102.0
253,185.91666666666666,186.16666666666666,73.0,113.0
254,186.16666666666666,186.41666666666666,75.0,102.0
255,186.41666666666666,186.66666666666666,78.0,116.0
256,186.66666666666666,187.66666666666666,75.0,110.0
257,187.66666666666666,187.91666666666666,68.0,113.0
258,187.91666666666666,188.16666666666666,70.0,110.0
259,188.16666666666666,189.16458333333333,71.0,114.0
260,189.16666666666666,189.44583333333333,71.0,114.0
261,189.41666666666666,189.91666666666666,73.0,96.0
262,189.91666666666666,191.16458333333333,70.0,110.0
263,191.16666666666666,191.41458333333333,70.0,116.0
264,191.41666666666666,191.91666666666666,70.0,113.0
265,191.91666666666666,192.16666666666666,66.0,107.0
266,192.16666666666666,192.66666666666666,70.0,116.0
267,192.66666666666666,194.16666666666666,68.0,117.0
268,195.66666666666666,195.91458333333333,75.0,116.0
269,195.91666666666666,196.16666666666666,75.0,108.0
270,196.16666666666666,196.66458333333333,80.0,113.0
271,196.66666666666666,197.16666666666666,80.0,114.0
272,197.16666666666666,197.41666666666666,78.0,108.0
273,197.41666666666666,197.91666666666666,80.0,102.0
274,197.91666666666666,198.16458333333333,78.0,107.0
275,198.16666666666666,198.66666666666666,78.0,113.0
276,198.66666666666666,199.66458333333333,75.0,117.0
277,199.66666666666666,199.91458333333333,75.0,104.0
278,199.91666666666666,200.16666666666666,75.0,104.0
279,200.16666666666666,200.66458333333333,80.0,113.0
280,200.66666666666666,201.16666666666666,80.0,113.0
281,201.16666666666666,201.41666666666666,78.0,114.0
282,201.41666666666666,201.91666666666666,80.0,98.0
283,201.91666666666666,202.16458333333333,78.0,114.0
284,202.16666666666666,202.66666666666666,78.0,116.0
285,202.66666666666666,203.41666666666666,75.0,117.0
286,203.41666666666666,203.66458333333333,73.0,116.0
287,203.66666666666666,203.91666666666666,73.0,110.0
288,203.91666666666666,204.16666666666666,71.0,110.0
289,204.16666666666666,205.16458333333333,73.0,114.0
290,205.16666666666666,205.66666666666666,73.0,117.0
291,205.66666666666666,205.91666666666666,71.0,113.0
292,205.91666666666666,207.16666666666666,73.0,117.0
293,207.16666666666666,207.66666666666666,78.0,117.0
294,207.66666666666666,208.16666666666666,80.0,116.0
295,208.16666666666666,211.66458333333333,75.0,117.0
296,211.66666666666666,211.91458333333333,75.0,110.0
297,211.91666666666666,212.16666666666666,75.0,113.0
298,212.16666666666666,212.66458333333333,80.0,119.0
299,212.66666666666666,213.16666666666666,80.0,116.0
300,213.16666666666666,213.41666666666666,78.0,116.0
301,213.41666666666666,213.91666666666666,80.0,113.0
302,213.91666666666666,214.16458333333333,78.0,117.0
303,214.16666666666666,214.66666666666666,78.0,119.0
304,214.66666666666666,215.66458333333333,75.0,116.0
305,215.66666666666666,215.91666666666666,75.0,117.0
306,215.91666666666666,216.16666666666666,78.0,104.0
307,216.16666666666666,216.66458333333333,73.0,117.0
308,216.66666666666666,217.16458333333333,73.0,110.0
309,217.16666666666666,217.44375,73.0,113.0
310,217.41666666666666,217.91666666666666,71.0,102.0
311,217.91666666666666,218.16666666666666,73.0,113.0
312,218.16666666666666,218.41666666666666,75.0,102.0
313,218.41666666666666,218.66666666666666,78.0,116.0
314,218.66666666666666,219.66666666666666,75.0,110.0
315,219.66666666666666,219.91666666666666,68.0,113.0
316,219.91666666666666,220.16666666666666,70.0,110.0
317,220.16666666666666,221.16458333333333,71.0,114.0
318,221.16666666666666,221.44583333333333,71.0,114.0
319,221.41666666666666,221.91666666666666,73.0,96.0
320,221.91666666666666,223.16458333333333,70.0,110.0
321,223.16666666666666,223.41458333333333,70.0,116.0
322,223.41666666666666,223.91666666666666,70.0,113.0
323,223.91666666666666,224.16666666666666,66.0,107.0
324,224.16666666666666,224.66666666666666,70.0,116.0
325,224.66666666666666,227.66458333333333,68.0,117.0
326,227.66666666666666,227.92708333333334,68.0,98.0
327,227.91666666666666,228.16666666666666,70.0,76.0
328,228.16666666666666,229.16458333333333,71.0,107.0
329,229.16666666666666,229.41666666666666,71.0,100.0
330,229.41666666666666,230.16666666666666,73.0,89.0
331,230.16666666666666,231.16666666666666,70.0,100.0
332,231.16666666666666,231.41458333333333,82.0,116.0
333,231.41666666666666,231.91666666666666,82.0,117.0
334,231.91666666666666,232.29166666666666,78.0,114.0
335,232.29166666666666,233.16666666666666,82.0,117.0
336,233.16666666666666,236.16666666666666,80.0,116.0
