,start,end,pitch,velocity
0,18.296848164583334,18.457562214583337,74.0,94.0
1,18.564704914583334,18.752204639583336,74.0,105.0
2,18.832561664583334,18.993275714583337,72.0,105.0
3,19.100418414583334,19.252203906250003,71.0,105.0
4,19.368275164583334,21.18077250625,71.0,102.0
5,21.243272414583338,21.406218604166668,69.0,114.0
6,21.511129164583338,21.698628889583336,67.0,105.0
7,21.778985914583338,22.16961034166667,71.0,117.0
8,22.314699414583338,22.45085992916667,72.0,108.0
9,22.582556164583337,24.631660302083336,72.0,105.0
10,26.868264164583337,27.02451393541667,72.0,105.0
11,27.136120914583337,27.337013477083335,72.0,111.0
12,27.403977664583337,27.54683459791667,71.0,100.0
13,27.671834414583337,27.837012743750005,71.0,114.0
14,27.939691164583337,29.513349570833338,69.0,114.0
15,29.814688414583337,30.00218813958334,69.0,114.0
16,30.082545164583337,30.229866377083336,67.0,80.0
17,30.350401914583337,30.738794202083337,69.0,117.0
18,30.886115414583337,31.02227592916667,71.0,114.0
19,31.153972164583337,34.20307483541667,71.0,117.0
20,35.439680164583336,35.60039421458334,74.0,94.0
21,35.707536914583336,35.89503663958334,74.0,105.0
22,35.975393664583336,36.13610771458334,72.0,105.0
23,36.243250414583336,36.39503590625001,71.0,105.0
24,36.511107164583336,38.32360450625001,71.0,102.0
25,38.386104414583336,38.54905060416667,69.0,114.0
26,38.653961164583336,38.84146088958334,67.0,105.0
27,38.921817914583336,39.312442341666674,71.0,117.0
28,39.457531414583336,39.593691929166674,72.0,108.0
29,39.725388164583336,41.77449230208334,72.0,105.0
30,44.01109616458334,44.16734593541667,72.0,105.0
31,44.27895291458334,44.47984547708334,72.0,111.0
32,44.54680966458334,44.68966659791667,71.0,100.0
33,44.81466641458334,44.97984474375001,71.0,114.0
34,45.08252316458334,46.65618157083334,69.0,114.0
35,46.95752041458334,47.14502013958334,69.0,114.0
36,47.22537716458334,47.37269837708334,71.0,80.0
37,47.49323391458334,47.88162620208334,69.0,117.0
38,48.02894741458334,48.16510792916667,67.0,114.0
39,48.29680416458334,50.70305063541667,67.0,117.0
40,50.70751491458334,51.09813934166667,71.0,120.0
41,51.24322841458334,51.57358507291667,74.0,114.0
42,51.77894191458334,52.865993891666676,79.0,111.0
43,53.38608241458334,53.49768939375001,78.0,112.0
44,53.65393916458334,53.854831727083344,79.0,105.0
45,53.92179591458334,54.27447396875001,78.0,112.0
46,54.45750941458334,54.65616983750001,71.0,108.0
47,54.72536616458334,55.598132741666674,74.0,87.0
48,56.06464991458334,56.49991713333334,74.0,120.0
49,56.60036341458334,56.924023654166675,76.0,114.0
50,57.13607691458334,57.50214780625001,67.0,120.0
51,57.67179041458334,57.81911162708334,74.0,111.0
52,57.93964716458334,59.00660988541667,71.0,111.0
53,59.27893091458334,59.662858922916676,71.0,111.0
54,59.81464441458334,60.151697491666674,74.0,108.0
55,60.35035791458334,60.51330410416667,74.0,92.0
56,60.61821466458334,60.73651806250001,72.0,108.0
57,60.88607141458334,61.01107123125001,71.0,111.0
58,61.15392816458334,61.91285562291667,72.0,111.0
59,62.49321191458334,62.676247360416674,74.0,108.0
60,62.76106866458334,62.894997039583345,72.0,108.0
61,63.02892541458334,63.19187160416668,71.0,108.0
62,63.29678216458334,63.66285305625001,72.0,114.0
63,63.83249566458334,63.997673993750006,72.0,108.0
64,64.10035241458334,64.24320934791668,71.0,108.0
65,64.36820916458335,64.50213753958334,72.0,108.0
66,64.63606591458334,67.19856215625,74.0,105.0
67,67.85034691458334,68.01998952291667,74.0,111.0
68,68.11820366458335,68.25659631875001,76.0,114.0
69,68.38606041458334,68.56909586041668,79.0,114.0
70,68.65391716458335,68.80793479583335,76.0,108.0
71,68.92177391458334,69.38382680833334,83.0,114.0
72,69.72534416458335,70.08025435833335,83.0,114.0
73,70.26105766458335,70.62489641666667,76.0,102.0
74,70.79677116458335,71.74319834791667,81.0,114.0
75,71.86819816458335,72.01105509791668,81.0,100.0
76,72.13605491458334,72.30569752291667,81.0,105.0
77,72.40391166458335,72.54900073750001,79.0,111.0
78,72.67176841458334,72.82578604583334,78.0,102.0
79,72.93962516458335,73.08471423750001,79.0,105.0
80,73.20748191458334,73.52891001458335,81.0,111.0
81,73.74319541458334,73.87712378958334,83.0,111.0
82,74.01105216458335,74.29453389166667,81.0,105.0
83,74.54676566458335,74.81908669375001,74.0,105.0
84,75.08247916458335,76.04676346458335,79.0,111.0
85,76.42176291458334,76.58470910416668,79.0,114.0
86,76.68961966458335,76.85256585416667,78.0,102.0
87,76.95747641458334,77.08247623125001,76.0,111.0
88,77.22533316458335,77.36819009791668,78.0,112.0
89,77.49318991458334,77.812385875,79.0,114.0
90,78.02890341458334,78.18961746458335,72.0,108.0
91,78.29676016458335,78.79229515208334,72.0,111.0
92,78.83247366458335,78.95077706250001,79.0,111.0
93,79.10033041458334,79.22756237083334,79.0,111.0
94,79.36818716458335,79.50434767916667,81.0,111.0
95,79.63604391458334,80.00657908541667,79.0,114.0
96,80.17175741458334,80.33247146458335,74.0,114.0
97,80.43961416458335,80.71416733333335,74.0,111.0
98,81.51104116458335,81.62264814375001,74.0,114.0
99,81.77889791458334,82.61148597916667,84.0,102.0
100,82.85032491458334,83.24987790000002,83.0,108.0
101,83.38603841458334,83.53112748750002,81.0,94.0
102,83.65389516458335,84.76326853750001,83.0,114.0
103,84.99317891458334,85.16282152291667,74.0,111.0
104,85.26103566458335,85.39942831875001,76.0,114.0
105,85.52889241458334,85.71192786041668,79.0,114.0
106,85.79674916458335,85.95076679583335,76.0,108.0
107,86.06460591458334,86.52665880833335,83.0,114.0
108,86.86817616458335,87.22308635833335,83.0,114.0
109,87.40388966458335,87.76772841666669,76.0,102.0
110,87.93960316458335,88.88603034791667,81.0,114.0
111,89.01103016458335,89.15388709791668,81.0,100.0
112,89.27888691458334,89.44852952291667,81.0,105.0
113,89.54674366458335,89.69183273750001,79.0,111.0
114,89.81460041458334,89.96861804583335,78.0,102.0
115,90.08245716458335,90.22754623750001,79.0,105.0
116,90.35031391458334,90.67174201458334,81.0,111.0
117,90.88602741458334,91.01995578958335,83.0,111.0
118,91.15388416458335,91.43736589166667,81.0,105.0
119,91.68959766458335,91.96191869375001,74.0,105.0
120,92.22531116458335,93.18959546458335,79.0,111.0
121,93.56459491458335,93.72754110416668,79.0,114.0
122,93.83245166458335,93.99539785416668,78.0,102.0
123,94.10030841458335,94.22530823125001,76.0,111.0
124,94.36816516458335,94.51102209791668,78.0,112.0
125,94.63602191458335,94.95521787500002,79.0,114.0
126,95.17173541458335,95.33244946458335,72.0,108.0
127,95.43959216458335,95.93512715208334,72.0,111.0
128,95.97530566458335,96.09360906250001,79.0,111.0
129,96.24316241458335,96.37039437083335,79.0,111.0
130,96.51101916458335,96.64717967916668,81.0,111.0
131,96.77887591458335,97.14941108541667,79.0,114.0
132,97.31458941458335,97.47530346458335,74.0,114.0
133,97.58244616458335,98.11369538541668,74.0,111.0
134,98.65387316458335,98.76548014375001,74.0,114.0
135,98.92172991458335,99.75431797916669,76.0,102.0
136,99.99315691458335,101.06011963541668,78.0,108.0
137,101.06458391458335,101.48422615625002,79.0,100.0
138,101.60029741458335,102.00877895833335,79.0,111.0
139,102.13601091458335,102.53779603958334,78.0,105.0
140,102.67172441458335,106.46859384583335,79.0,105.0
141,123.29669416458334,123.45740821458335,74.0,94.0
142,123.56455091458335,123.75205063958335,74.0,105.0
143,123.83240766458334,123.99312171458335,72.0,105.0
144,124.10026441458335,124.25204990625002,71.0,105.0
145,124.36812116458334,126.18061850625001,71.0,102.0
146,126.24311841458335,126.40606460416669,69.0,114.0
147,126.51097516458336,126.69847488958335,67.0,105.0
148,126.77883191458335,127.16945634166669,71.0,117.0
149,127.31454541458335,127.45070592916669,72.0,108.0
150,127.58240216458336,129.63150630208335,72.0,105.0
151,131.86811016458336,132.0243599354167,72.0,105.0
152,132.13596691458335,132.33685947708335,72.0,111.0
153,132.40382366458334,132.5466805979167,71.0,100.0
154,132.67168041458336,132.83685874375,71.0,114.0
155,132.93953716458336,134.51319557083335,69.0,114.0
156,134.81453441458336,135.00203413958334,69.0,114.0
157,135.08239116458336,135.22971237708336,67.0,80.0
158,135.35024791458335,135.73864020208336,69.0,117.0
159,135.88596141458336,136.02212192916667,71.0,114.0
160,136.15381816458336,139.20292083541668,71.0,117.0
161,140.43952616458336,140.60024021458335,74.0,94.0
162,140.70738291458335,140.89488263958336,74.0,105.0
163,140.97523966458334,141.13595371458337,72.0,105.0
164,141.24309641458336,141.39488190625002,71.0,105.0
165,141.51095316458336,143.32345050625003,71.0,102.0
166,143.38595041458336,143.54889660416669,69.0,114.0
167,143.65380716458336,143.84130688958336,67.0,105.0
168,143.92166391458335,144.3122883416667,71.0,117.0
169,144.45737741458336,144.59353792916667,72.0,108.0
170,144.72523416458336,146.77433830208335,72.0,105.0
171,149.01094216458335,149.1671919354167,72.0,105.0
172,149.27879891458335,149.47969147708335,72.0,111.0
173,149.54665566458334,149.6895125979167,71.0,100.0
174,149.81451241458336,149.97969074375,71.0,114.0
175,150.08236916458335,151.65602757083334,69.0,114.0
176,151.95736641458336,152.14486613958334,69.0,114.0
177,152.22522316458335,152.37254437708336,71.0,80.0
178,152.49307991458335,152.88147220208336,69.0,117.0
179,153.02879341458336,153.1649539291667,67.0,114.0
180,153.29665016458335,155.7028966354167,67.0,117.0
181,155.70736091458335,156.09798534166669,71.0,120.0
182,156.24307441458336,156.5734310729167,74.0,114.0
183,156.77878791458335,157.8658398916667,79.0,111.0
184,158.38592841458336,158.49753539375,78.0,112.0
185,158.65378516458335,158.85467772708336,79.0,105.0
186,158.92164191458335,159.27431996875004,78.0,112.0
187,159.45735541458336,159.6560158375,71.0,108.0
188,159.72521216458335,160.59797874166668,74.0,87.0
189,161.06449591458335,161.49976313333335,74.0,120.0
190,161.60020941458336,161.92386965416668,76.0,114.0
191,162.13592291458335,162.50199380625003,67.0,120.0
192,162.67163641458336,162.81895762708336,74.0,111.0
193,162.93949316458335,164.0064558854167,71.0,111.0
194,164.27877691458335,164.6627049229167,71.0,111.0
195,164.81449041458336,165.1515434916667,74.0,108.0
196,165.35020391458335,165.5131501041667,74.0,92.0
197,165.61806066458337,165.73636406250003,72.0,108.0
198,165.88591741458336,166.01091723125003,71.0,111.0
199,166.15377416458335,166.9127016229167,72.0,111.0
200,167.49305791458335,167.6760933604167,74.0,108.0
201,167.76091466458337,167.89484303958335,72.0,108.0
202,168.02877141458336,168.19171760416668,71.0,108.0
203,168.29662816458335,168.66269905625003,72.0,114.0
204,168.83234166458337,168.99751999375002,72.0,108.0
205,169.10019841458336,169.24305534791668,71.0,108.0
206,169.36805516458335,169.50198353958336,72.0,108.0
207,169.63591191458335,172.19840815625003,74.0,105.0
208,172.85019291458335,173.01983552291668,74.0,111.0
209,173.11804966458337,173.25644231875003,76.0,114.0
210,173.38590641458336,173.5689418604167,79.0,114.0
211,173.65376316458335,173.80778079583337,76.0,108.0
212,173.92161991458335,174.38367280833336,83.0,114.0
213,174.72519016458335,175.08010035833337,83.0,114.0
214,175.26090366458337,175.6247424166667,76.0,102.0
215,175.79661716458335,176.74304434791668,81.0,114.0
216,176.86804416458335,177.0109010979167,81.0,100.0
217,177.13590091458335,177.30554352291668,81.0,105.0
218,177.40375766458337,177.5488467375,79.0,111.0
219,177.67161441458336,177.82563204583334,78.0,102.0
220,177.93947116458335,178.08456023750003,79.0,105.0
221,178.20732791458335,178.52875601458337,81.0,111.0
222,178.74304141458336,178.87696978958337,83.0,111.0
223,179.01089816458335,179.2943798916667,81.0,105.0
224,179.54661166458337,179.81893269375,74.0,105.0
225,180.08232516458335,181.04660946458336,79.0,111.0
226,181.42160891458335,181.5845551041667,79.0,114.0
227,181.68946566458337,181.8524118541667,78.0,102.0
228,181.95732241458336,182.08232223125003,76.0,111.0
229,182.22517916458335,182.3680360979167,78.0,112.0
230,182.49303591458334,182.81223187500004,79.0,114.0
231,183.02874941458336,183.18946346458335,72.0,108.0
232,183.29660616458335,183.79214115208336,72.0,111.0
233,183.83231966458337,183.95062306250003,79.0,111.0
234,184.10017641458336,184.22740837083336,79.0,111.0
235,184.36803316458335,184.5041936791667,81.0,111.0
236,184.63588991458334,185.00642508541668,79.0,114.0
237,185.17160341458336,185.33231746458335,74.0,114.0
238,185.43946016458335,185.71401333333336,74.0,111.0
239,186.51088716458335,186.62249414375003,74.0,114.0
240,186.77874391458334,187.6113319791667,84.0,102.0
241,187.85017091458334,188.24972390000002,83.0,108.0
242,188.38588441458336,188.53097348750003,81.0,94.0
243,188.65374116458335,189.76311453750003,83.0,114.0
244,189.99302491458337,190.1626675229167,74.0,111.0
245,190.26088166458337,190.39927431875003,76.0,114.0
246,190.52873841458336,190.71177386041668,79.0,114.0
247,190.79659516458335,190.95061279583336,76.0,108.0
248,191.06445191458337,191.52650480833336,83.0,114.0
249,191.86802216458335,192.22293235833337,83.0,114.0
250,192.40373566458337,192.7675744166667,76.0,102.0
251,192.93944916458335,193.8858763479167,81.0,114.0
252,194.01087616458335,194.1537330979167,81.0,100.0
253,194.27873291458337,194.4483755229167,81.0,105.0
254,194.54658966458337,194.6916787375,79.0,111.0
255,194.81444641458336,194.96846404583337,78.0,102.0
256,195.08230316458335,195.22739223750003,79.0,105.0
257,195.35015991458337,195.67158801458336,81.0,111.0
258,195.88587341458336,196.01980178958337,83.0,111.0
259,196.15373016458335,196.4372118916667,81.0,105.0
260,196.68944366458337,196.96176469375,74.0,105.0
261,197.22515716458335,198.18944146458335,79.0,111.0
262,198.56444091458337,198.7273871041667,79.0,114.0
263,198.83229766458336,198.9952438541667,78.0,102.0
264,199.10015441458336,199.22515423125003,76.0,111.0
265,199.36801116458335,199.5108680979167,78.0,112.0
266,199.63586791458337,199.95506387500004,79.0,114.0
267,200.17158141458336,200.33229546458335,72.0,108.0
268,200.43943816458335,200.93497315208336,72.0,111.0
269,200.97515166458336,201.09345506250003,79.0,111.0
270,201.24300841458336,201.37024037083336,79.0,111.0
271,201.51086516458335,201.6470256791667,81.0,111.0
272,201.77872191458337,202.1492570854167,79.0,114.0
273,202.31443541458336,202.47514946458335,74.0,114.0
274,202.58229216458335,203.11354138541668,74.0,111.0
275,203.65371916458335,203.76532614375003,74.0,114.0
276,203.92157591458337,204.7541639791667,76.0,102.0
277,204.99300291458337,206.0599656354167,78.0,108.0
278,206.06442991458337,206.48407215625002,79.0,100.0
279,206.60014341458336,207.00862495833337,79.0,111.0
280,207.13585691458337,207.53764203958337,78.0,105.0
281,207.67157041458336,211.46843984583336,79.0,105.0
282,211.42156491458337,211.5912075229167,74.0,111.0
283,211.68942166458336,211.82781431875003,76.0,114.0
284,211.95727841458336,212.14031386041668,79.0,114.0
285,212.22513516458335,212.37915279583336,76.0,108.0
286,212.49299191458337,212.95504480833335,83.0,114.0
287,213.29656216458335,213.65147235833336,83.0,114.0
288,213.83227566458336,214.1961144166667,76.0,102.0
289,214.36798916458335,215.3144163479167,81.0,114.0
290,215.43941616458335,215.5822730979167,81.0,100.0
291,215.70727291458337,215.8769155229167,81.0,105.0
292,215.97512966458336,216.12021873750004,79.0,111.0
293,216.24298641458336,216.39700404583337,78.0,102.0
294,216.51084316458335,216.65593223750002,79.0,105.0
295,216.77869991458337,217.10012801458336,81.0,111.0
296,217.31441341458336,217.44834178958337,83.0,111.0
297,217.58227016458335,217.8657518916667,81.0,105.0
298,218.11798366458336,218.39030469375004,74.0,105.0
299,218.65369716458335,219.61798146458335,79.0,111.0
300,219.99298091458337,220.1559271041667,79.0,114.0
301,220.26083766458336,220.4237838541667,78.0,102.0
302,220.52869441458336,220.65369423125003,76.0,111.0
303,220.79655116458335,220.9394080979167,78.0,112.0
304,221.06440791458337,221.38360387500003,79.0,114.0
305,221.60012141458336,221.76083546458335,72.0,108.0
306,221.86797816458338,222.36351315208336,72.0,111.0
307,222.40369166458336,222.52199506250003,79.0,111.0
308,222.67154841458336,222.79878037083336,79.0,111.0
309,222.93940516458338,223.0755656791667,81.0,111.0
310,223.20726191458337,223.5777970854167,79.0,114.0
311,223.74297541458336,223.90368946458335,74.0,114.0
312,224.01083216458338,224.28538533333335,74.0,111.0
313,225.08225916458338,225.19386614375003,74.0,114.0
314,225.35011591458337,226.1827039791667,84.0,102.0
315,226.42154291458337,226.82109590000002,83.0,108.0
316,226.95725641458336,227.10234548750003,81.0,94.0
317,227.22511316458338,228.33448653750003,83.0,114.0
318,228.56439691458337,228.7340395229167,74.0,111.0
319,228.83225366458336,228.97064631875003,76.0,114.0
320,229.10011041458336,229.2831458604167,79.0,114.0
321,229.36796716458338,229.52198479583336,76.0,108.0
322,229.63582391458337,230.09787680833335,83.0,114.0
323,230.43939416458338,230.79430435833336,83.0,114.0
324,230.97510766458336,231.3389464166667,76.0,102.0
325,231.51082116458338,232.4572483479167,81.0,114.0
326,232.58224816458338,232.7251050979167,81.0,100.0
327,232.85010491458337,233.0197475229167,81.0,105.0
328,233.11796166458336,233.26305073750004,79.0,111.0
329,233.38581841458335,233.53983604583337,78.0,102.0
330,233.65367516458338,233.79876423750002,79.0,105.0
331,233.92153191458337,234.24296001458336,81.0,111.0
332,234.45724541458335,234.59117378958337,83.0,111.0
333,234.72510216458338,235.0085838916667,81.0,105.0
334,235.26081566458336,235.53313669375004,74.0,105.0
335,235.79652916458338,236.76081346458338,79.0,111.0
336,237.13581291458337,237.2987591041667,79.0,114.0
337,237.40366966458336,237.56661585416668,78.0,102.0
338,237.67152641458335,237.79652623125003,76.0,111.0
339,237.93938316458338,238.0822400979167,78.0,112.0
340,238.20723991458337,238.52643587500003,79.0,114.0
341,238.74295341458335,238.90366746458338,72.0,108.0
342,239.01081016458338,239.50634515208336,72.0,111.0
343,239.54652366458336,239.66482706250002,79.0,111.0
344,239.81438041458335,239.94161237083335,79.0,111.0
345,240.08223716458338,240.21839767916669,81.0,111.0
346,240.35009391458337,240.7206290854167,79.0,114.0
347,240.88580741458335,241.04652146458338,74.0,114.0
348,241.15366416458338,241.6849133854167,74.0,111.0
349,242.22509116458338,242.33669814375003,74.0,114.0
350,242.49294791458337,243.3255359791667,76.0,102.0
351,243.56437491458337,244.6313376354167,78.0,108.0
352,244.63580191458337,245.05544415625002,79.0,100.0
353,245.17151541458335,245.57999695833337,79.0,111.0
354,245.70722891458337,246.10901403958337,78.0,105.0
355,246.24294241458335,250.03981184583336,79.0,105.0
356,251.09784600833336,251.39695271250002,74.0,100.0
357,251.5822202979167,252.61793306458335,76.0,97.0
358,252.68489725208337,253.46614610625002,78.0,99.0
359,253.62686015625005,254.25632351875004,79.0,100.0
360,254.39918045208336,254.69382287708336,79.0,84.0
361,254.7764120416667,255.8612318791667,78.0,93.0
362,256.1290886291667,258.6268528229167,79.0,94.0
