,start,end,pitch,velocity
0,0.3504459145833334,0.5401777791666668,55.0,73.0
1,0.3504459145833334,0.9977663937500001,67.0,96.0
2,0.3504459145833334,1.30580165625,43.0,91.0
3,0.6183026645833334,1.3147302145833335,50.0,89.0
4,0.8861594145833335,1.3325873312500003,59.0,91.0
5,1.1540161645833336,1.8549079937500002,60.0,89.0
6,1.9575864145833335,2.301335910416667,59.0,99.0
7,1.6897296645833335,2.3727643770833335,50.0,80.0
8,1.4218729145833335,2.381692935416667,43.0,89.0
9,2.2254431645833335,3.0557990895833336,60.0,96.0
10,3.029013414583334,3.363834352083334,59.0,104.0
11,2.493299914583334,3.4285664000000002,43.0,91.0
12,2.761156664583334,3.430798539583334,50.0,78.0
13,3.296870164583334,4.145083206250001,60.0,99.0
14,4.100440414583334,4.404011397916667,57.0,93.0
15,3.564726914583334,4.515618377083334,43.0,106.0
16,3.8325836645833338,4.537939772916667,50.0,93.0
17,4.368297164583334,4.636153914583334,60.0,106.0
18,4.636153914583334,4.825885779166668,55.0,73.0
19,4.636153914583334,5.283474393750001,67.0,96.0
20,4.636153914583334,5.59150965625,43.0,91.0
21,4.904010664583334,5.600438214583334,50.0,89.0
22,5.171867414583334,5.618295331250001,59.0,91.0
23,5.439724164583334,6.140615993750001,60.0,89.0
24,6.2432944145833345,6.587043910416668,59.0,99.0
25,5.9754376645833345,6.658472377083334,50.0,80.0
26,5.7075809145833345,6.6674009354166675,43.0,89.0
27,6.511151164583334,7.3415070895833345,60.0,96.0
28,7.314721414583334,7.649542352083334,59.0,104.0
29,6.779007914583334,7.714274400000001,43.0,91.0
30,7.046864664583334,7.716506539583334,50.0,78.0
31,7.582578164583334,8.430791206250001,60.0,99.0
32,8.386148414583335,8.689719397916669,57.0,93.0
33,7.850434914583334,8.801326377083335,43.0,106.0
34,8.118291664583335,8.823647772916669,50.0,93.0
35,8.654005164583335,8.921861914583335,60.0,106.0
36,8.921861914583335,9.111593779166668,55.0,73.0
37,8.921861914583335,9.569182393750001,67.0,96.0
38,8.921861914583335,9.877217656250002,43.0,91.0
39,9.189718664583335,9.886146214583334,50.0,89.0
40,9.457575414583335,9.904003331250001,59.0,91.0
41,9.725432164583335,10.426323993750001,60.0,89.0
42,10.529002414583335,10.872751910416667,59.0,99.0
43,10.261145664583335,10.944180377083335,50.0,80.0
44,9.993288914583335,10.953108935416669,43.0,89.0
45,10.796859164583335,11.627215089583334,60.0,96.0
46,11.600429414583335,11.935250352083335,59.0,104.0
47,11.064715914583335,11.999982400000002,43.0,91.0
48,11.332572664583335,12.002214539583335,50.0,78.0
49,11.868286164583335,12.71649920625,60.0,99.0
50,12.671856414583335,12.975427397916668,57.0,93.0
51,12.136142914583335,13.087034377083334,43.0,106.0
52,12.403999664583335,13.109355772916668,50.0,93.0
53,12.939713164583335,13.207569914583335,60.0,106.0
54,13.207569914583335,17.252206839583337,43.0,99.0
55,13.198641356250002,17.276760375000002,59.0,89.0
56,13.212034193750002,17.285688933333336,55.0,73.0
57,17.761134664583334,18.323633839583337,50.0,71.0
58,18.028991414583334,18.332562397916668,57.0,96.0
59,18.296848164583334,19.008900691666668,59.0,109.0
60,18.832561664583334,19.098186275000003,55.0,67.0
61,18.564704914583334,19.45086432916667,50.0,56.0
62,17.493277914583334,19.499971400000003,43.0,101.0
63,19.368275164583334,19.935238618750002,55.0,80.0
64,20.171845414583338,20.426309327083334,55.0,37.0
65,19.100418414583334,20.477648537500002,62.0,109.0
66,19.903988664583338,20.531219887500004,50.0,59.0
67,20.439702164583338,21.006665618750002,57.0,106.0
68,20.707558914583338,21.04461199166667,50.0,47.0
69,21.243272414583338,21.528986281250003,50.0,24.0
70,19.636131914583338,21.542379118750002,43.0,94.0
71,21.511129164583338,21.73434312291667,55.0,85.0
72,20.975415664583338,21.80800372916667,59.0,106.0
73,22.314699414583338,22.528984814583335,55.0,61.0
74,22.046842664583338,22.64505607291667,52.0,74.0
75,22.582556164583337,23.116037525000003,60.0,106.0
76,23.118269664583337,23.417376368750002,57.0,89.0
77,21.778985914583338,23.767822283333338,45.0,96.0
78,22.850412914583337,23.946393450000002,52.0,76.0
79,23.386126414583337,24.049071870833338,60.0,94.0
80,23.653983164583337,24.267821550000004,64.0,101.0
81,24.457553414583337,24.70755304791667,57.0,69.0
82,24.189696664583337,24.792374352083336,52.0,67.0
83,24.725410164583337,25.314695014583336,67.0,91.0
84,24.993266914583337,25.48210548333334,52.0,82.0
85,23.921839914583337,25.54460539166667,45.0,87.0
86,25.261123664583337,25.582551764583336,57.0,94.0
87,25.528980414583337,25.95308693541667,60.0,96.0
88,25.796837164583337,26.196390150000003,57.0,99.0
89,26.600407414583337,26.966478306250004,60.0,100.0
90,26.332550664583337,27.44638831666667,57.0,87.0
91,26.868264164583337,27.99549465416667,66.0,102.0
92,26.064693914583337,28.057994562500003,50.0,100.0
93,27.403977664583337,28.104869493750005,54.0,8.0
94,27.671834414583337,28.178530100000003,57.0,89.0
95,27.939691164583337,28.453083268750003,60.0,105.0
96,28.475404664583337,29.330314125000005,57.0,66.0
97,28.743261414583337,29.44192110416667,60.0,80.0
98,29.278974914583337,29.787902739583338,54.0,10.0
99,29.546831664583337,29.832545531250005,57.0,94.0
100,29.011118164583337,29.86379548541667,66.0,116.0
101,28.207547914583337,29.88165260208334,50.0,71.0
102,29.814688414583337,30.167366468750004,60.0,94.0
103,30.082545164583337,30.37272331041667,66.0,93.0
104,30.618258664583337,31.20754351458334,50.0,51.0
105,30.886115414583337,31.234329189583338,55.0,73.0
106,31.153972164583337,31.73209631666667,62.0,100.0
107,31.689685664583337,32.25441697916667,55.0,84.0
108,30.350401914583337,32.32584544583334,43.0,97.0
109,31.421828914583337,32.51780945,50.0,50.0
110,31.957542414583337,33.14057639375,62.0,84.0
111,32.76111266458334,33.39950458541667,50.0,52.0
112,33.02896941458334,33.555754356250006,55.0,97.0
113,33.29682616458334,33.92852166666667,62.0,100.0
114,32.22539916458334,34.12048567083334,67.0,100.0
115,33.83253966458334,34.44637805000001,55.0,82.0
116,32.49325591458334,34.473163725000006,43.0,80.0
117,33.56468291458334,34.504413679166674,50.0,58.0
118,34.10039641458334,35.24771616041667,62.0,78.0
119,34.36825316458334,35.470930118750005,67.0,92.0
120,35.171823414583336,35.54012644583334,55.0,76.0
121,34.903966664583336,35.56467998125,50.0,57.0
122,35.439680164583336,36.07807208541667,62.0,87.0
123,35.975393664583336,36.45083939583334,55.0,57.0
124,35.707536914583336,36.629410562500006,50.0,50.0
125,36.243250414583336,37.323605972916674,62.0,76.0
126,36.511107164583336,37.582534164583336,67.0,108.0
127,37.046820664583336,37.622712677083335,50.0,66.0
128,37.314677414583336,37.83699807708334,55.0,80.0
129,37.582534164583336,38.19414041041667,62.0,102.0
130,38.118247664583336,38.6115505125,55.0,80.0
131,34.636109914583336,38.72985391041667,43.0,102.0
132,37.850390914583336,38.81913949375001,50.0,62.0
133,38.386104414583336,38.92405005416667,62.0,84.0
134,38.653961164583336,39.66512039583334,67.0,97.0
135,39.189674664583336,39.756638118750004,52.0,64.0
136,39.457531414583336,39.88610221458334,60.0,87.0
137,39.725388164583336,40.33699441041667,57.0,92.0
138,39.993244914583336,40.45306566875001,52.0,69.0
139,38.921817914583336,40.89056502708334,45.0,100.0
140,40.528958414583336,40.96422563333334,52.0,73.0
141,40.796815164583336,41.377171456250004,57.0,84.0
142,40.261101664583336,41.74770662708334,64.0,78.0
143,41.332528664583336,41.92627779375,52.0,71.0
144,41.600385414583336,42.00663481875001,57.0,73.0
145,41.868242164583336,42.44413417708334,60.0,108.0
146,42.403955664583336,42.75663371875,57.0,87.0
147,42.671812414583336,42.96645483958334,60.0,105.0
148,42.136098914583336,43.07359753958334,52.0,67.0
149,41.064671914583336,43.10261535416667,45.0,100.0
150,42.939669164583336,43.30797219583334,57.0,100.0
151,43.475382664583336,44.02225686250001,57.0,69.0
152,43.743239414583336,44.03788183958334,60.0,67.0
153,44.27895291458334,44.59368459583334,60.0,92.0
154,44.01109616458334,44.79904143750001,66.0,102.0
155,44.81466641458334,45.138326654166676,62.0,67.0
156,44.54680966458334,45.15395163125,57.0,76.0
157,43.207525914583336,45.200826562500005,50.0,105.0
158,45.08252316458334,45.91287908958334,66.0,105.0
159,45.88609341458334,46.18073583958334,62.0,66.0
160,45.61823666458334,46.21421793333334,57.0,66.0
161,46.15395016458334,46.80350278333334,66.0,109.0
162,46.68966366458334,46.93743115833334,57.0,66.0
163,46.42180691458334,47.290109212500006,62.0,78.0
164,45.35037991458334,47.370466237500004,50.0,94.0
165,47.22537716458334,47.52448386875,57.0,53.0
166,48.02894741458334,48.361536212500006,55.0,92.0
167,47.76109066458334,48.39055402708334,50.0,60.0
168,48.29680416458334,48.85483906041667,62.0,105.0
169,48.83251766458334,49.24099920833334,59.0,80.0
170,47.49323391458334,49.48876670208334,43.0,97.0
171,48.56466091458334,49.513320237500004,50.0,69.0
172,49.36823116458334,49.959748154166675,55.0,80.0
173,49.90394466458334,50.508854491666675,50.0,66.0
174,50.17180141458334,50.97760380416668,55.0,62.0
175,49.10037441458334,50.99992520000001,67.0,100.0
176,50.43965816458334,51.00885375833334,59.0,102.0
177,50.70751491458334,51.48653162916667,50.0,82.0
178,49.63608791458334,51.59144218958334,43.0,100.0
179,50.97537166458334,51.62715642291668,62.0,102.0
180,51.24322841458334,51.63385284166667,59.0,102.0
181,51.51108516458334,51.81688828750001,55.0,105.0
182,52.04679866458334,52.44188737083334,64.0,94.0
183,52.31465541458334,52.68519058541667,59.0,94.0
184,52.58251216458334,53.160636316666675,67.0,105.0
185,53.11822566458334,53.49992153333334,64.0,97.0
186,51.77894191458334,53.54679646458334,52.0,117.0
187,53.38608241458334,53.75215330625001,59.0,105.0
188,53.65393916458334,54.23652759583334,67.0,87.0
189,54.18965266458334,54.772241095833344,62.0,82.0
190,54.45750941458334,55.05125854375001,54.0,57.0
191,54.72536616458334,55.10929417291668,59.0,84.0
192,55.26107966458334,55.598132741666674,54.0,85.0
193,54.99322291458334,55.79679316458334,66.0,105.0
194,55.52893641458334,55.839203816666675,62.0,84.0
195,53.92179591458334,55.843668095833344,47.0,102.0
196,55.79679316458334,55.94411437708334,59.0,97.0
197,56.06464991458334,56.64947048541667,60.0,87.0
198,56.60036341458334,56.92625579375001,57.0,102.0
199,56.33250666458334,56.97536286458334,52.0,66.0
200,56.06464991458334,57.073577006250005,45.0,100.0
201,56.86822016458334,57.15616617083334,60.0,108.0
202,57.13607691458334,57.46643357291667,62.0,100.0
203,57.40393366458334,57.736522462500005,57.0,92.0
204,57.67179041458334,58.00214707291668,62.0,84.0
205,57.13607691458334,58.14723614583334,50.0,100.0
206,57.93964716458334,58.285628800000005,66.0,99.0
207,58.74321741458334,59.07357407291668,55.0,87.0
208,58.47536066458334,59.07803835208334,50.0,69.0
209,59.01107416458334,59.598126875000005,62.0,111.0
210,59.54678766458334,59.857055066666675,59.0,100.0
211,59.27893091458334,60.256608052083344,50.0,73.0
212,58.20750391458334,60.261072331250006,43.0,105.0
213,59.81464441458334,60.28339372708334,55.0,100.0
214,60.08250116458334,60.32134010000001,59.0,105.0
215,60.35035791458334,61.015535510416676,60.0,105.0
216,60.61821466458334,61.142767466666676,52.0,73.0
217,60.88607141458334,61.54008831250001,57.0,100.0
218,61.15392816458334,61.72535589791668,64.0,97.0
219,61.68964166458334,62.00437334583334,60.0,94.0
220,60.35035791458334,62.354819260416676,45.0,100.0
221,61.42178491458334,62.42401558750001,52.0,60.0
222,61.95749841458334,62.56910466041668,57.0,108.0
223,62.22535516458334,63.071336066666674,60.0,114.0
224,63.02892541458334,63.35704993333334,57.0,89.0
225,62.76106866458334,63.38606774791668,52.0,69.0
226,63.29678216458334,64.13383450833334,60.0,111.0
227,63.83249566458334,64.43294121250001,52.0,78.0
228,62.49321191458334,64.48428042291667,45.0,94.0
229,64.10035241458334,64.6740122875,57.0,105.0
230,64.36820916458335,64.72981577708335,60.0,94.0
231,64.90392266458335,65.23427932291668,62.0,102.0
232,65.17177941458334,65.53561816666668,57.0,94.0
233,65.97534966458335,66.31240274166667,62.0,100.0
234,64.63606591458334,66.53784883958335,50.0,105.0
235,65.43963616458335,66.73650926250001,66.0,102.0
236,66.51106316458335,66.87266977708335,62.0,78.0
237,66.24320641458334,67.06240164166668,57.0,89.0
238,67.04677666458335,67.39275830000001,62.0,84.0
239,67.31463341458334,67.64275793333334,57.0,102.0
240,67.58249016458335,68.23204278333334,62.0,111.0
241,68.11820366458335,68.43293534583334,57.0,84.0
242,66.77891991458334,68.45525674166667,50.0,111.0
243,68.38606041458334,68.72311349166668,62.0,84.0
244,68.65391716458335,68.76105986458334,57.0,100.0
245,68.92177391458334,69.15391643125001,55.0,100.0
246,68.92177391458334,69.32802331875001,60.0,97.0
247,69.18963066458335,69.59141578958334,55.0,73.0
248,69.45748741458334,69.59811220833335,60.0,76.0
249,69.72534416458335,70.11373645208334,55.0,108.0
250,69.72534416458335,70.2856112,60.0,117.0
251,69.72534416458335,70.57355720625002,64.0,108.0
252,70.26105766458335,70.83471753750001,55.0,45.0
253,68.92177391458334,70.91730670208334,48.0,114.0
254,70.52891441458334,71.10927070625002,60.0,80.0
255,70.79677116458335,71.437395225,64.0,80.0
256,71.33248466458335,71.67623416041667,60.0,78.0
257,71.86819816458335,72.24989403333335,60.0,111.0
258,71.60034141458334,72.43069733958335,55.0,84.0
259,72.40391166458335,72.79676823125001,60.0,82.0
260,71.06462791458334,72.80569678958334,48.0,108.0
261,72.67176841458334,72.83471460416668,55.0,64.0
262,71.86819816458335,72.98203581666668,64.0,102.0
263,73.20748191458334,73.54007071250001,59.0,94.0
264,73.20748191458334,73.78783820625002,62.0,82.0
265,73.74319541458334,73.92846300000001,59.0,89.0
266,73.47533866458335,74.05346281666668,54.0,93.0
267,74.01105216458335,74.35480166041668,59.0,92.0
268,74.01105216458335,74.62489055,66.0,109.0
269,74.27890891458334,74.77667604166668,54.0,65.0
270,74.54676566458335,74.88828302083334,59.0,87.0
271,73.20748191458334,75.24319321458334,47.0,102.0
272,75.08247916458335,75.53560350000001,59.0,62.0
273,74.54676566458335,75.68069257291668,62.0,100.0
274,75.61819266458335,75.91953150833335,59.0,94.0
275,76.15390616458335,76.45078072916668,59.0,71.0
276,75.88604941458334,76.49095924166667,64.0,87.0
277,76.68961966458335,77.01551204375001,59.0,80.0
278,75.35033591458334,77.13827972083334,52.0,114.0
279,76.95747641458334,77.34586870208334,64.0,76.0
280,77.22533316458335,77.38604721458334,59.0,84.0
281,76.42176291458334,77.70301103541668,67.0,114.0
282,77.49318991458334,77.79452875833334,57.0,97.0
283,77.49318991458334,78.08470690416668,60.0,92.0
284,78.02890341458334,78.26327807083334,57.0,78.0
285,77.76104666458335,78.348099375,52.0,71.0
286,78.29676016458335,78.54452765833335,57.0,31.0
287,78.29676016458335,79.13158036875001,64.0,102.0
288,78.83247366458335,79.14497320625001,57.0,94.0
289,79.10033041458334,79.41506209583335,60.0,100.0
290,77.49318991458334,79.45524060833334,45.0,108.0
291,79.36818716458335,79.50434767916667,57.0,92.0
292,78.56461691458334,79.51997265625,52.0,71.0
293,79.63604391458334,79.85702573333334,59.0,100.0
294,79.63604391458334,80.21193592708335,62.0,102.0
295,79.90390066458335,80.28336439375,50.0,87.0
296,80.17175741458334,80.53336402708334,59.0,100.0
297,80.97532766458335,81.31014860208334,62.0,111.0
298,79.63604391458334,81.38380920833335,47.0,97.0
299,80.70747091458334,81.44407697708334,54.0,93.0
300,81.51104116458335,81.63604098125,47.0,108.0
301,81.24318441458334,81.66505879583335,59.0,114.0
302,80.43961416458335,81.7364872625,66.0,109.0
303,81.77889791458334,82.12934382916667,57.0,94.0
304,81.77889791458334,82.37487918333335,60.0,102.0
305,82.31461141458334,82.72086081875001,57.0,80.0
306,82.58246816458335,82.73425365625,60.0,97.0
307,81.77889791458334,82.74318221458334,50.0,117.0
308,81.77889791458334,82.75434291250001,65.0,94.0
309,82.85032491458334,83.41059195000001,55.0,89.0
310,82.85032491458334,83.68514511875001,43.0,105.0
311,82.85032491458334,83.72755577083335,59.0,114.0
312,83.38603841458334,83.75210930625,50.0,97.0
313,83.65389516458335,83.88826982083334,55.0,82.0
314,83.92175191458334,84.29898350416667,55.0,97.0
315,83.92175191458334,84.47978681041668,65.0,97.0
316,83.92175191458334,84.50657248541668,62.0,80.0
317,84.45746541458334,84.58692951041668,55.0,92.0
318,84.18960866458335,84.85701840000002,50.0,87.0
319,84.72532216458335,85.12264301041668,55.0,117.0
320,84.72532216458335,85.31460701458334,59.0,123.0
321,84.72532216458335,85.43067827291668,62.0,117.0
322,84.72532216458335,85.45746394791668,65.0,105.0
323,84.99317891458334,85.62264227708334,50.0,89.0
324,85.26103566458335,85.64049939375,55.0,84.0
325,83.92175191458334,85.84585623541668,43.0,102.0
326,85.52889241458334,85.99764172708335,59.0,120.0
327,85.79674916458335,86.07799875208335,50.0,108.0
328,86.33246266458335,86.67844430000001,60.0,97.0
329,86.60031941458334,86.93737249166668,55.0,102.0
330,86.86817616458335,87.30121124375002,64.0,111.0
331,87.40388966458335,87.58022869166668,55.0,89.0
332,87.40388966458335,87.72085348541668,60.0,97.0
333,86.06460591458334,87.91728176875002,48.0,117.0
334,87.67174641458334,88.00210307291668,55.0,62.0
335,87.93960316458335,88.11594219166668,60.0,94.0
336,88.20745991458334,88.43290601250001,57.0,92.0
337,88.20745991458334,88.76995908958334,62.0,89.0
338,88.74317341458334,88.90165532500001,57.0,84.0
339,88.20745991458334,89.18960133125002,50.0,105.0
340,89.01103016458335,89.25656551875001,62.0,76.0
341,89.01103016458335,89.35254752083334,57.0,100.0
342,89.54674366458335,89.87486818333335,62.0,102.0
343,89.27888691458334,90.01102869791667,50.0,92.0
344,89.81460041458334,90.12486781666668,57.0,82.0
345,89.01103016458335,90.20299270208335,66.0,102.0
346,90.35031391458334,90.68736699166668,59.0,92.0
347,90.35031391458334,90.88379527500001,62.0,89.0
348,90.88602741458334,90.94629518333335,59.0,58.0
349,90.61817066458335,91.19183053750001,54.0,85.0
350,91.15388416458335,91.52441933541668,59.0,108.0
351,91.15388416458335,91.72754403750001,66.0,109.0
352,91.42174091458334,91.79227608541667,54.0,74.0
353,91.68959766458335,92.00656148541668,62.0,105.0
354,90.35031391458334,92.04227571875,47.0,105.0
355,91.95745441458334,92.45745368125002,59.0,67.0
356,92.76102466458335,93.10923843958335,58.0,70.0
357,93.02888141458335,93.17843476666668,61.0,93.0
358,93.29673816458335,93.68736259166668,61.0,96.0
359,93.29673816458335,93.70745184791667,64.0,108.0
360,93.29673816458335,93.73200538333334,58.0,79.0
361,92.49316791458335,93.75209463958335,46.0,105.0
362,93.83245166458335,94.07798701875001,58.0,90.0
363,94.10030841458335,94.24316534791667,46.0,28.0
364,93.83245166458335,94.61146837916668,61.0,99.0
365,94.36816516458335,94.68736112500001,58.0,79.0
366,93.83245166458335,95.22977104375,64.0,102.0
367,94.90387866458335,95.48646709583335,52.0,67.0
368,95.17173541458335,95.76325240416668,55.0,94.0
369,95.43959216458335,95.97976994375001,60.0,114.0
370,95.97530566458335,96.28110878750002,55.0,87.0
371,95.70744891458335,96.59807260833334,52.0,84.0
372,94.63602191458335,96.62485828333335,45.0,102.0
373,96.24316241458335,96.65164395833335,64.0,89.0
374,96.77887591458335,96.99092917500002,59.0,76.0
375,96.77887591458335,97.14494680625002,62.0,92.0
376,97.04673266458335,97.37932146250002,59.0,66.0
377,97.31458941458335,97.46860704583335,62.0,51.0
378,97.58244616458335,97.96190989375002,59.0,82.0
379,97.58244616458335,97.99092770833334,62.0,94.0
380,98.11815966458335,98.45521274166668,62.0,76.0
381,96.77887591458335,98.68289097916669,50.0,111.0
382,97.58244616458335,98.75208730625002,66.0,109.0
383,98.38601641458335,98.75655158541667,59.0,82.0
384,98.65387316458335,98.75878372500001,62.0,69.0
385,98.92172991458335,99.12262247708334,55.0,97.0
386,98.92172991458335,99.27664010833335,60.0,102.0
387,99.18958666458335,99.56235397500001,55.0,60.0
388,99.45744341458335,99.60030034791669,60.0,80.0
389,99.72530016458335,100.27217436250001,64.0,114.0
390,100.26101366458334,100.60029888125001,60.0,97.0
391,98.92172991458335,100.66279878958335,48.0,105.0
392,100.52887041458335,100.85922707291668,55.0,71.0
393,101.06458391458335,101.28333359375002,57.0,97.0
394,101.06458391458335,101.63824378750002,62.0,89.0
395,101.60029741458335,101.92842193333335,57.0,52.0
396,101.86815416458334,102.42618906041668,66.0,116.0
397,101.06458391458335,102.48422468958334,50.0,111.0
398,102.40386766458334,102.71859934583334,62.0,82.0
399,102.67172441458335,102.89940265208335,57.0,84.0
400,103.20743791458335,103.54002671250001,55.0,76.0
401,103.47529466458334,103.84806197500001,50.0,57.0
402,103.20743791458335,103.85699053333335,59.0,92.0
403,103.74315141458335,104.13824012083334,55.0,78.0
404,104.01100816458334,104.35698980000001,50.0,64.0
405,104.27886491458335,104.59582873541667,55.0,87.0
406,104.27886491458335,104.88377474166668,59.0,89.0
407,104.54672166458334,104.94850678958335,50.0,60.0
408,105.08243516458334,105.48422028958335,50.0,97.0
409,104.81457841458335,105.69180927083335,55.0,87.0
410,105.61814866458334,105.97529099791669,50.0,73.0
411,105.35029191458335,106.04225518541668,59.0,97.0
412,105.88600541458335,106.23868346875001,55.0,67.0
413,106.15386216458334,106.45073672916668,50.0,69.0
414,106.42171891458335,106.75653985208335,62.0,87.0
415,106.42171891458335,106.97305739166669,59.0,94.0
416,103.20743791458335,107.08912865000002,43.0,100.0
417,106.68957566458334,107.14046786041668,50.0,78.0
418,106.95743241458335,107.68510991875002,55.0,84.0
419,107.22528916458334,107.76546694375001,59.0,62.0
420,107.76100266458334,108.13823425416668,50.0,51.0
421,108.02885941458335,108.42171598125002,59.0,73.0
422,108.29671616458334,108.65162635833335,50.0,47.0
423,108.56457291458335,108.91725096875001,59.0,87.0
424,108.56457291458335,109.14046492708334,62.0,78.0
425,109.10028641458335,109.16725060208334,59.0,2.0
426,107.49314591458335,109.48198228333335,43.0,102.0
427,108.83242966458334,109.51323223750002,50.0,69.0
428,109.10028641458335,109.83912461666668,55.0,66.0
429,109.36814316458334,109.99091010833335,59.0,82.0
430,109.90385666458334,110.29448109166668,50.0,58.0
431,110.17171341458335,110.48421295625002,59.0,73.0
432,110.17171341458335,110.53332002708335,62.0,76.0
433,110.43957016458334,110.67840910000001,55.0,58.0
434,110.43957016458334,110.84358742916667,50.0,41.0
435,110.70742691458335,111.09358706250002,65.0,92.0
436,110.70742691458335,111.13822985416668,59.0,80.0
437,110.70742691458335,111.21635473958335,62.0,80.0
438,110.97528366458334,111.30787246250001,55.0,69.0
439,109.63599991458335,111.56233637500002,43.0,82.0
440,111.24314041458335,111.62706842291668,50.0,62.0
441,111.51099716458334,112.07796061875001,55.0,92.0
442,112.04671066458334,112.49313858125001,50.0,42.0
443,112.31456741458335,112.62929909583335,59.0,80.0
444,112.31456741458335,112.67617402708335,62.0,55.0
445,112.58242416458334,112.76322747083334,55.0,48.0
446,112.85028091458335,113.39715511250002,59.0,100.0
447,112.85028091458335,113.42840506666668,62.0,94.0
448,111.77885391458335,113.76769028333335,43.0,102.0
449,113.11813766458334,113.84581516875002,50.0,76.0
450,113.38599441458335,114.24313601458334,55.0,82.0
451,113.65385116458334,114.49983206666668,59.0,73.0
452,113.65385116458334,114.79670663125002,62.0,69.0
453,114.72527816458334,114.88376007500001,59.0,87.0
454,114.45742141458335,114.88822435416668,55.0,84.0
455,114.99313491458335,115.06456338125001,55.0,60.0
456,114.99313491458335,115.31009873541669,59.0,87.0
457,114.18956466458334,115.35027724791668,50.0,62.0
458,114.99313491458335,115.48643776250002,62.0,78.0
459,114.99313491458335,115.49759846041668,65.0,94.0
460,115.26099166458334,115.56009836875002,55.0,80.0
461,113.92170791458335,115.86590149166668,43.0,94.0
462,115.52884841458335,115.92170498125002,50.0,55.0
463,115.79670516458334,116.26768661666668,55.0,73.0
464,116.60027541458335,116.90384639791668,59.0,82.0
465,116.60027541458335,116.92839993333335,62.0,73.0
466,116.86813216458334,117.02884621458335,55.0,73.0
467,116.33241866458334,117.29223868541668,50.0,42.0
468,117.13598891458335,117.36366715208335,55.0,100.0
469,117.13598891458335,117.44179203750002,59.0,102.0
470,117.13598891458335,117.47080985208335,62.0,94.0
471,117.40384566458334,117.78330939375002,50.0,78.0
472,117.67170241458335,118.07348753958335,59.0,111.0
473,117.67170241458335,118.09357679583334,55.0,108.0
474,117.67170241458335,118.09580893541668,62.0,102.0
475,117.93955916458334,118.32348717291669,50.0,100.0
476,118.20741591458335,118.51991545625002,55.0,97.0
477,118.20741591458335,118.54223685208335,59.0,102.0
478,118.20741591458335,118.55339755000001,62.0,94.0
479,118.74312941458335,118.80116504375002,55.0,76.0
480,118.47527266458334,118.89045062708335,50.0,82.0
481,118.74312941458335,119.09803960833335,59.0,114.0
482,116.06456191458335,119.12036100416668,43.0,94.0
483,118.74312941458335,119.12482528333335,62.0,102.0
484,119.01098616458334,119.20295016875002,55.0,89.0
485,119.27884291458335,122.08241023125002,43.0,100.0
486,119.27884291458335,122.08910665000002,50.0,80.0
487,119.27884291458335,122.31232060833335,67.0,84.0
488,119.27884291458335,122.31678488750002,55.0,87.0
489,119.27884291458335,122.33017772500001,59.0,97.0
490,119.27884291458335,122.33240986458335,62.0,89.0
491,122.76098066458334,123.32347983958336,50.0,71.0
492,123.02883741458335,123.33240839791668,57.0,96.0
493,123.29669416458334,124.00874669166669,59.0,109.0
494,123.83240766458334,124.09803227500002,55.0,67.0
495,123.56455091458335,124.45071032916668,50.0,56.0
496,122.49312391458335,124.49981740000001,43.0,101.0
497,124.36812116458334,124.93508461875001,55.0,80.0
498,125.17169141458335,125.42615532708335,55.0,37.0
499,124.10026441458335,125.47749453750002,62.0,109.0
500,124.90383466458336,125.53106588750002,50.0,59.0
501,125.43954816458336,126.00651161875001,57.0,106.0
502,125.70740491458335,126.04445799166669,50.0,47.0
503,126.24311841458335,126.52883228125002,50.0,24.0
504,124.63597791458335,126.54222511875001,43.0,94.0
505,126.51097516458336,126.73418912291669,55.0,85.0
506,125.97526166458336,126.80784972916669,59.0,106.0
507,127.31454541458335,127.52883081458334,55.0,61.0
508,127.04668866458336,127.64490207291668,52.0,74.0
509,127.58240216458336,128.11588352500002,60.0,106.0
510,128.11811566458334,128.41722236875,57.0,89.0
511,126.77883191458335,128.76766828333336,45.0,96.0
512,127.85025891458335,128.94623945,52.0,76.0
513,128.38597241458336,129.04891787083335,60.0,94.0
514,128.65382916458336,129.26766755000003,64.0,101.0
515,129.45739941458336,129.70739904791668,57.0,69.0
516,129.18954266458334,129.79222035208335,52.0,67.0
517,129.72525616458336,130.31454101458334,67.0,91.0
518,129.99311291458335,130.48195148333335,52.0,82.0
519,128.92168591458335,130.54445139166668,45.0,87.0
520,130.26096966458334,130.58239776458336,57.0,94.0
521,130.52882641458336,130.9529329354167,60.0,96.0
522,130.79668316458336,131.19623615,57.0,99.0
523,131.60025341458336,131.96632430625002,60.0,100.0
524,131.33239666458334,132.44623431666668,57.0,87.0
525,131.86811016458336,132.99534065416668,66.0,102.0
526,131.06453991458335,133.05784056250002,50.0,100.0
527,132.40382366458334,133.10471549375,54.0,8.0
528,132.67168041458336,133.1783761,57.0,89.0
529,132.93953716458336,133.45292926875,60.0,105.0
530,133.47525066458334,134.33016012500002,57.0,66.0
531,133.74310741458336,134.44176710416667,60.0,80.0
532,134.27882091458335,134.78774873958335,54.0,10.0
533,134.54667766458334,134.83239153125,57.0,94.0
534,134.01096416458336,134.86364148541668,66.0,116.0
535,133.20739391458335,134.88149860208335,50.0,71.0
536,134.81453441458336,135.16721246875002,60.0,94.0
537,135.08239116458336,135.37256931041668,66.0,93.0
538,135.61810466458334,136.20738951458335,50.0,51.0
539,135.88596141458336,136.23417518958334,55.0,73.0
540,136.15381816458336,136.73194231666668,62.0,100.0
541,136.68953166458334,137.2542629791667,55.0,84.0
542,135.35024791458335,137.32569144583334,43.0,97.0
543,136.42167491458335,137.51765545,50.0,50.0
544,136.95738841458336,138.14042239375001,62.0,84.0
545,137.76095866458334,138.3993505854167,50.0,52.0
546,138.02881541458336,138.55560035625,55.0,97.0
547,138.29667216458336,138.92836766666667,62.0,100.0
548,137.22524516458336,139.12033167083337,67.0,100.0
549,138.83238566458334,139.44622405,55.0,82.0
550,137.49310191458335,139.47300972500003,43.0,80.0
551,138.56452891458335,139.5042596791667,50.0,58.0
552,139.10024241458336,140.2475621604167,62.0,78.0
553,139.36809916458336,140.47077611875002,67.0,92.0
554,140.17166941458336,140.53997244583334,55.0,76.0
555,139.90381266458334,140.56452598125003,50.0,57.0
556,140.43952616458336,141.07791808541668,62.0,87.0
557,140.97523966458334,141.45068539583335,55.0,57.0
558,140.70738291458335,141.62925656250002,50.0,50.0
559,141.24309641458336,142.32345197291667,62.0,76.0
560,141.51095316458336,142.58238016458336,67.0,108.0
561,142.04666666458334,142.62255867708336,50.0,66.0
562,142.31452341458336,142.83684407708336,55.0,80.0
563,142.58238016458336,143.1939864104167,62.0,102.0
564,143.11809366458334,143.61139651250002,55.0,80.0
565,139.63595591458335,143.72969991041668,43.0,102.0
566,142.85023691458335,143.81898549375,50.0,62.0
567,143.38595041458336,143.92389605416668,62.0,84.0
568,143.65380716458336,144.66496639583335,67.0,97.0
569,144.18952066458334,144.75648411875002,52.0,64.0
570,144.45737741458336,144.88594821458335,60.0,87.0
571,144.72523416458336,145.3368404104167,57.0,92.0
572,144.99309091458335,145.45291166875003,52.0,69.0
573,143.92166391458335,145.89041102708336,45.0,100.0
574,145.52880441458336,145.96407163333336,52.0,73.0
575,145.79666116458336,146.37701745625003,57.0,84.0
576,145.26094766458334,146.74755262708337,64.0,78.0
577,146.33237466458334,146.92612379375,52.0,71.0
578,146.60023141458336,147.00648081875002,57.0,73.0
579,146.86808816458336,147.44398017708335,60.0,108.0
580,147.40380166458334,147.75647971875003,57.0,87.0
581,147.67165841458336,147.96630083958334,60.0,105.0
582,147.13594491458335,148.07344353958337,52.0,67.0
583,146.06451791458335,148.10246135416668,45.0,100.0
584,147.93951516458336,148.30781819583336,57.0,100.0
585,148.47522866458334,149.02210286250002,57.0,69.0
586,148.74308541458336,149.03772783958334,60.0,67.0
587,149.27879891458335,149.59353059583336,60.0,92.0
588,149.01094216458335,149.7988874375,66.0,102.0
589,149.81451241458336,150.13817265416668,62.0,67.0
590,149.54665566458334,150.15379763125003,57.0,76.0
591,148.20737191458335,150.20067256250002,50.0,105.0
592,150.08236916458335,150.91272508958335,66.0,105.0
593,150.88593941458336,151.18058183958334,62.0,66.0
594,150.61808266458334,151.21406393333336,57.0,66.0
595,151.15379616458335,151.80334878333335,66.0,109.0
596,151.68950966458334,151.93727715833336,57.0,66.0
597,151.42165291458335,152.28995521250002,62.0,78.0
598,150.35022591458335,152.37031223750003,50.0,94.0
599,152.22522316458335,152.52432986875002,57.0,53.0
600,151.95736641458336,152.6359368479167,67.0,92.0
601,153.02879341458336,153.36138221250002,55.0,92.0
602,152.76093666458334,153.39040002708336,50.0,60.0
603,153.29665016458335,153.8546850604167,62.0,105.0
604,153.83236366458334,154.24084520833335,59.0,80.0
605,152.49307991458335,154.48861270208334,43.0,97.0
606,153.56450691458335,154.51316623750003,50.0,69.0
607,154.36807716458335,154.9595941541667,55.0,80.0
608,154.90379066458334,155.5087004916667,50.0,66.0
609,155.17164741458336,155.9774498041667,55.0,62.0
610,154.10022041458336,155.99977120000003,67.0,100.0
611,155.43950416458335,156.00869975833336,59.0,102.0
612,155.70736091458335,156.4863776291667,50.0,82.0
613,154.63593391458335,156.59128818958337,43.0,100.0
614,155.97521766458334,156.6270024229167,62.0,102.0
615,156.24307441458336,156.6336988416667,59.0,102.0
616,156.51093116458335,156.81673428750003,55.0,105.0
617,157.04664466458337,157.44173337083336,64.0,94.0
618,157.31450141458336,157.6850365854167,59.0,94.0
619,157.58235816458335,158.1604823166667,67.0,105.0
620,158.11807166458337,158.49976753333334,64.0,97.0
621,156.77878791458335,158.54664246458336,52.0,117.0
622,158.38592841458336,158.75199930625,59.0,105.0
623,158.65378516458335,159.23637359583336,67.0,87.0
624,159.18949866458337,159.77208709583334,62.0,82.0
625,159.45735541458336,160.05110454375003,54.0,57.0
626,159.72521216458335,160.10914017291668,59.0,84.0
627,160.26092566458337,160.59797874166668,54.0,85.0
628,159.99306891458335,160.79663916458335,66.0,105.0
629,160.52878241458336,160.8390498166667,62.0,84.0
630,158.92164191458335,160.84351409583334,47.0,102.0
631,160.79663916458335,160.94396037708336,59.0,97.0
632,161.06449591458335,161.64931648541668,60.0,87.0
633,161.60020941458336,161.92610179375004,57.0,102.0
634,161.33235266458337,161.97520886458335,52.0,66.0
635,161.06449591458335,162.07342300625,45.0,100.0
636,161.86806616458335,162.15601217083335,60.0,108.0
637,162.13592291458335,162.46627957291668,62.0,100.0
638,162.40377966458337,162.73636846250002,57.0,92.0
639,162.67163641458336,163.0019930729167,62.0,84.0
640,162.13592291458335,163.14708214583337,50.0,100.0
641,162.93949316458335,163.28547480000003,66.0,99.0
642,163.74306341458336,164.0734200729167,55.0,87.0
643,163.47520666458337,164.07788435208334,50.0,69.0
644,164.01092016458335,164.597972875,62.0,111.0
645,164.54663366458337,164.8569010666667,59.0,100.0
646,164.27877691458335,165.25645405208334,50.0,73.0
647,163.20734991458335,165.26091833125002,43.0,105.0
648,164.81449041458336,165.28323972708336,55.0,100.0
649,165.08234716458335,165.32118610000003,59.0,105.0
650,165.35020391458335,166.0153815104167,60.0,105.0
651,165.61806066458337,166.1426134666667,52.0,73.0
652,165.88591741458336,166.5399343125,57.0,100.0
653,166.15377416458335,166.7252018979167,64.0,97.0
654,166.68948766458337,167.00421934583335,60.0,94.0
655,165.35020391458335,167.35466526041668,45.0,100.0
656,166.42163091458335,167.42386158750003,52.0,60.0
657,166.95734441458336,167.56895066041668,57.0,108.0
658,167.22520116458335,168.0711820666667,60.0,114.0
659,168.02877141458336,168.35689593333336,57.0,89.0
660,167.76091466458337,168.3859137479167,52.0,69.0
661,168.29662816458335,169.13368050833336,60.0,111.0
662,168.83234166458337,169.43278721250002,52.0,78.0
663,167.49305791458335,169.4841264229167,45.0,94.0
664,169.10019841458336,169.67385828750002,57.0,105.0
665,169.36805516458335,169.72966177708335,60.0,94.0
666,169.90376866458337,170.2341253229167,62.0,102.0
667,170.17162541458336,170.53546416666669,57.0,94.0
668,170.97519566458337,171.31224874166668,62.0,100.0
669,169.63591191458335,171.53769483958337,50.0,105.0
670,170.43948216458335,171.7363552625,66.0,102.0
671,171.51090916458335,171.87251577708335,62.0,78.0
672,171.24305241458336,172.0622476416667,57.0,89.0
673,172.04662266458337,172.39260430000002,62.0,84.0
674,172.31447941458336,172.64260393333336,57.0,102.0
675,172.58233616458335,173.23188878333335,62.0,111.0
676,173.11804966458337,173.43278134583335,57.0,84.0
677,171.77876591458335,173.45510274166668,50.0,111.0
678,173.38590641458336,173.7229594916667,62.0,84.0
679,173.65376316458335,173.76090586458335,57.0,100.0
680,173.92161991458335,174.15376243125002,55.0,100.0
681,173.92161991458335,174.32786931875003,60.0,97.0
682,174.18947666458337,174.59126178958337,55.0,73.0
683,174.45733341458336,174.59795820833335,60.0,76.0
684,174.72519016458335,175.11358245208336,55.0,108.0
685,174.72519016458335,175.28545720000002,60.0,117.0
686,174.72519016458335,175.57340320625002,64.0,108.0
687,175.26090366458337,175.83456353750003,55.0,45.0
688,173.92161991458335,175.91715270208337,48.0,114.0
689,175.52876041458336,176.10911670625003,60.0,80.0
690,175.79661716458335,176.43724122500004,64.0,80.0
691,176.33233066458337,176.6760801604167,60.0,78.0
692,176.86804416458335,177.24974003333335,60.0,111.0
693,176.60018741458336,177.43054333958335,55.0,84.0
694,177.40375766458337,177.79661423125003,60.0,82.0
695,176.06447391458335,177.80554278958337,48.0,108.0
696,177.67161441458336,177.83456060416668,55.0,64.0
697,176.86804416458335,177.9818818166667,64.0,102.0
698,178.20732791458335,178.53991671250003,59.0,94.0
699,178.20732791458335,178.78768420625002,62.0,82.0
700,178.74304141458336,178.928309,59.0,89.0
701,178.47518466458337,179.05330881666669,54.0,93.0
702,179.01089816458335,179.3546476604167,59.0,92.0
703,179.01089816458335,179.62473655000002,66.0,109.0
704,179.27875491458335,179.77652204166668,54.0,65.0
705,179.54661166458337,179.88812902083336,59.0,87.0
706,178.20732791458335,180.24303921458335,47.0,102.0
707,180.08232516458335,180.53544950000003,59.0,62.0
708,179.54661166458337,180.6805385729167,62.0,100.0
709,180.61803866458337,180.91937750833335,59.0,94.0
710,181.15375216458335,181.4506267291667,59.0,71.0
711,180.88589541458336,181.4908052416667,64.0,87.0
712,181.68946566458337,182.01535804375,59.0,80.0
713,180.35018191458335,182.13812572083336,52.0,114.0
714,181.95732241458336,182.34571470208337,64.0,76.0
715,182.22517916458335,182.38589321458335,59.0,84.0
716,181.42160891458335,182.70285703541668,67.0,114.0
717,182.49303591458334,182.79437475833336,57.0,97.0
718,182.49303591458334,183.08455290416669,60.0,92.0
719,183.02874941458336,183.26312407083336,57.0,78.0
720,182.76089266458337,183.34794537500002,52.0,71.0
721,183.29660616458335,183.54437365833337,57.0,31.0
722,183.29660616458335,184.13142636875003,64.0,102.0
723,183.83231966458337,184.14481920625002,57.0,94.0
724,184.10017641458336,184.41490809583337,60.0,100.0
725,182.49303591458334,184.45508660833335,45.0,108.0
726,184.36803316458335,184.5041936791667,57.0,92.0
727,183.56446291458334,184.51981865625004,52.0,71.0
728,184.63588991458334,184.85687173333335,59.0,100.0
729,184.63588991458334,185.21178192708336,62.0,102.0
730,184.90374666458337,185.28321039375,50.0,87.0
731,185.17160341458336,185.53321002708336,59.0,100.0
732,185.97517366458337,186.30999460208335,62.0,111.0
733,184.63588991458334,186.38365520833335,47.0,97.0
734,185.70731691458334,186.44392297708336,54.0,93.0
735,186.51088716458335,186.63588698125002,47.0,108.0
736,186.24303041458336,186.66490479583337,59.0,114.0
737,185.43946016458335,186.7363332625,66.0,109.0
738,186.77874391458334,187.1291898291667,57.0,94.0
739,186.77874391458334,187.37472518333337,60.0,102.0
740,187.31445741458336,187.72070681875002,57.0,80.0
741,187.58231416458335,187.73409965625004,60.0,97.0
742,186.77874391458334,187.74302821458335,50.0,117.0
743,186.77874391458334,187.7541889125,65.0,94.0
744,187.85017091458334,188.41043795000002,55.0,89.0
745,187.85017091458334,188.68499111875002,43.0,105.0
746,187.85017091458334,188.72740177083335,59.0,114.0
747,188.38588441458336,188.75195530625004,50.0,97.0
748,188.65374116458335,188.88811582083335,55.0,82.0
749,188.92159791458334,189.2988295041667,55.0,97.0
750,188.92159791458334,189.4796328104167,65.0,97.0
751,188.92159791458334,189.5064184854167,62.0,80.0
752,189.45731141458336,189.5867755104167,55.0,92.0
753,189.18945466458337,189.85686440000003,50.0,87.0
754,189.72516816458335,190.1224890104167,55.0,117.0
755,189.72516816458335,190.31445301458336,59.0,123.0
756,189.72516816458335,190.4305242729167,62.0,117.0
757,189.72516816458335,190.45730994791668,65.0,105.0
758,189.99302491458337,190.62248827708336,50.0,89.0
759,190.26088166458337,190.64034539375004,55.0,84.0
760,188.92159791458334,190.8457022354167,43.0,102.0
761,190.52873841458336,190.99748772708335,59.0,120.0
762,190.79659516458335,191.07784475208337,50.0,108.0
763,191.33230866458337,191.67829030000001,60.0,97.0
764,191.60016541458336,191.9372184916667,55.0,102.0
765,191.86802216458335,192.30105724375002,64.0,111.0
766,192.40373566458337,192.58007469166668,55.0,89.0
767,192.40373566458337,192.7206994854167,60.0,97.0
768,191.06445191458337,192.91712776875002,48.0,117.0
769,192.67159241458336,193.0019490729167,55.0,62.0
770,192.93944916458335,193.1157881916667,60.0,94.0
771,193.20730591458337,193.43275201250003,57.0,92.0
772,193.20730591458337,193.76980508958337,62.0,89.0
773,193.74301941458336,193.90150132500003,57.0,84.0
774,193.20730591458337,194.18944733125002,50.0,105.0
775,194.01087616458335,194.25641151875,62.0,76.0
776,194.01087616458335,194.35239352083335,57.0,100.0
777,194.54658966458337,194.87471418333337,62.0,102.0
778,194.27873291458337,195.0108746979167,50.0,92.0
779,194.81444641458336,195.12471381666668,57.0,82.0
780,194.01087616458335,195.20283870208337,66.0,102.0
781,195.35015991458337,195.68721299166668,59.0,92.0
782,195.35015991458337,195.88364127500003,62.0,89.0
783,195.88587341458336,195.94614118333337,59.0,58.0
784,195.61801666458337,196.19167653750003,54.0,85.0
785,196.15373016458335,196.5242653354167,59.0,108.0
786,196.15373016458335,196.72739003750002,66.0,109.0
787,196.42158691458337,196.79212208541668,54.0,74.0
788,196.68944366458337,197.0064074854167,62.0,105.0
789,195.35015991458337,197.04212171875002,47.0,105.0
790,196.95730041458336,197.45729968125002,59.0,67.0
791,197.76087066458336,198.10908443958337,58.0,70.0
792,198.02872741458336,198.1782807666667,61.0,93.0
793,198.29658416458335,198.6872085916667,61.0,96.0
794,198.29658416458335,198.7072978479167,64.0,108.0
795,198.29658416458335,198.73185138333335,58.0,79.0
796,197.49301391458337,198.75194063958335,46.0,105.0
797,198.83229766458336,199.07783301875003,58.0,90.0
798,199.10015441458336,199.2430113479167,46.0,28.0
799,198.83229766458336,199.61131437916669,61.0,99.0
800,199.36801116458335,199.68720712500001,58.0,79.0
801,198.83229766458336,200.22961704375004,64.0,102.0
802,199.90372466458336,200.48631309583337,52.0,67.0
803,200.17158141458336,200.7630984041667,55.0,94.0
804,200.43943816458335,200.97961594375002,60.0,114.0
805,200.97515166458336,201.28095478750004,55.0,87.0
806,200.70729491458337,201.59791860833337,52.0,84.0
807,199.63586791458337,201.62470428333336,45.0,102.0
808,201.24300841458336,201.65148995833337,64.0,89.0
809,201.77872191458337,201.99077517500004,59.0,76.0
810,201.77872191458337,202.14479280625002,62.0,92.0
811,202.04657866458336,202.37916746250002,59.0,66.0
812,202.31443541458336,202.46845304583337,62.0,51.0
813,202.58229216458335,202.96175589375002,59.0,82.0
814,202.58229216458335,202.99077370833336,62.0,94.0
815,203.11800566458336,203.4550587416667,62.0,76.0
816,201.77872191458337,203.6827369791667,50.0,111.0
817,202.58229216458335,203.75193330625004,66.0,109.0
818,203.38586241458336,203.7563975854167,59.0,82.0
819,203.65371916458335,203.75862972500002,62.0,69.0
820,203.92157591458337,204.12246847708337,55.0,97.0
821,203.92157591458337,204.27648610833336,60.0,102.0
822,204.18943266458336,204.56219997500003,55.0,60.0
823,204.45728941458336,204.6001463479167,60.0,80.0
824,204.72514616458335,205.27202036250003,64.0,114.0
825,205.26085966458336,205.60014488125003,60.0,97.0
826,203.92157591458337,205.66264478958337,48.0,105.0
827,205.52871641458336,205.8590730729167,55.0,71.0
828,206.06442991458337,206.28317959375002,57.0,97.0
829,206.06442991458337,206.63808978750004,62.0,89.0
830,206.60014341458336,206.92826793333336,57.0,52.0
831,206.86800016458335,207.4260350604167,66.0,116.0
832,206.06442991458337,207.48407068958335,50.0,111.0
833,207.40371366458336,207.71844534583337,62.0,82.0
834,207.67157041458336,207.89924865208337,57.0,84.0
835,208.20728391458337,208.54656913125004,55.0,80.0
836,208.20728391458337,208.79656876458336,59.0,89.0
837,208.74299741458336,209.18049677291668,55.0,51.0
838,208.47514066458336,209.22960384375003,50.0,48.0
839,209.01085416458335,209.87915646250002,60.0,67.0
840,208.20728391458337,210.22067381875002,43.0,97.0
841,209.54656766458336,210.24076307500002,50.0,60.0
842,209.81442441458336,210.58897685000002,55.0,69.0
843,210.08228116458335,210.7139766666667,59.0,114.0
844,210.88585141458336,211.01308337083336,55.0,82.0
845,210.61799466458336,211.28540440000003,50.0,71.0
846,211.15370816458335,211.72736803750004,55.0,92.0
847,211.15370816458335,211.94388557708336,67.0,82.0
848,211.15370816458335,211.95727841458336,59.0,111.0
849,211.15370816458335,212.07558181250002,62.0,97.0
850,210.35013791458337,212.28317079375003,43.0,100.0
851,211.68942166458336,212.41263488958336,50.0,80.0
852,211.95727841458336,212.4282598666667,55.0,57.0
853,212.22513516458335,212.4818312166667,59.0,102.0
854,212.49299191458337,212.72513443125004,55.0,100.0
855,212.49299191458337,212.89924131875003,60.0,97.0
856,212.76084866458336,213.16263378958337,55.0,73.0
857,213.02870541458336,213.16933020833335,60.0,76.0
858,213.29656216458335,213.68495445208336,55.0,108.0
859,213.29656216458335,213.85682920000002,60.0,117.0
860,213.29656216458335,214.14477520625002,64.0,108.0
861,213.83227566458336,214.40593553750003,55.0,45.0
862,212.49299191458337,214.48852470208337,48.0,114.0
863,214.10013241458336,214.68048870625003,60.0,80.0
864,214.36798916458335,215.00861322500003,64.0,80.0
865,214.90370266458336,215.24745216041669,60.0,78.0
866,215.43941616458335,215.82111203333335,60.0,111.0
867,215.17155941458336,216.00191533958335,55.0,84.0
868,215.97512966458336,216.36798623125003,60.0,82.0
869,214.63584591458337,216.37691478958337,48.0,108.0
870,216.24298641458336,216.4059326041667,55.0,64.0
871,215.43941616458335,216.55325381666668,64.0,102.0
872,216.77869991458337,217.11128871250003,59.0,94.0
873,216.77869991458337,217.35905620625002,62.0,82.0
874,217.31441341458336,217.49968100000004,59.0,89.0
875,217.04655666458336,217.62468081666668,54.0,93.0
876,217.58227016458335,217.9260196604167,59.0,92.0
877,217.58227016458335,218.19610855000002,66.0,109.0
878,217.85012691458337,218.3478940416667,54.0,65.0
879,218.11798366458336,218.45950102083336,59.0,87.0
880,216.77869991458337,218.81441121458337,47.0,102.0
881,218.65369716458335,219.10682150000002,59.0,62.0
882,218.11798366458336,219.2519105729167,62.0,100.0
883,219.18941066458336,219.49074950833335,59.0,94.0
884,219.72512416458335,220.02199872916668,59.0,71.0
885,219.45726741458336,220.0621772416667,64.0,87.0
886,220.26083766458336,220.58673004375004,59.0,80.0
887,218.92155391458337,220.70949772083335,52.0,114.0
888,220.52869441458336,220.91708670208337,64.0,76.0
889,220.79655116458335,220.95726521458337,59.0,84.0
890,219.99298091458337,221.2742290354167,67.0,114.0
891,221.06440791458337,221.36574675833336,57.0,97.0
892,221.06440791458337,221.6559249041667,60.0,92.0
893,221.60012141458336,221.83449607083335,57.0,78.0
894,221.33226466458336,221.91931737500002,52.0,71.0
895,221.86797816458338,222.11574565833337,57.0,31.0
896,221.86797816458338,222.70279836875002,64.0,102.0
897,222.40369166458336,222.71619120625002,57.0,94.0
898,222.67154841458336,222.98628009583337,60.0,100.0
899,221.06440791458337,223.02645860833337,45.0,108.0
900,222.93940516458338,223.0755656791667,57.0,92.0
901,222.13583491458337,223.09119065625003,52.0,71.0
902,223.20726191458337,223.42824373333337,59.0,100.0
903,223.20726191458337,223.78315392708336,62.0,102.0
904,223.47511866458336,223.85458239375004,50.0,87.0
905,223.74297541458336,224.10458202708335,59.0,100.0
906,224.54654566458336,224.88136660208338,62.0,111.0
907,223.20726191458337,224.95502720833338,47.0,97.0
908,224.27868891458337,225.01529497708336,54.0,93.0
909,225.08225916458338,225.20725898125002,47.0,108.0
910,224.81440241458336,225.23627679583336,59.0,114.0
911,224.01083216458338,225.30770526250004,66.0,109.0
912,225.35011591458337,225.7005618291667,57.0,94.0
913,225.35011591458337,225.94609718333336,60.0,102.0
914,225.88582941458336,226.29207881875004,57.0,80.0
915,226.15368616458338,226.30547165625003,60.0,97.0
916,225.35011591458337,226.31440021458337,50.0,117.0
917,225.35011591458337,226.32556091250004,65.0,94.0
918,226.42154291458337,226.98180995000004,55.0,89.0
919,226.42154291458337,227.25636311875002,43.0,105.0
920,226.42154291458337,227.29877377083335,59.0,114.0
921,226.95725641458336,227.32332730625004,50.0,97.0
922,227.22511316458338,227.45948782083337,55.0,82.0
923,227.49296991458337,227.8702015041667,55.0,97.0
924,227.49296991458337,228.05100481041669,65.0,97.0
925,227.49296991458337,228.0777904854167,62.0,80.0
926,228.02868341458336,228.1581475104167,55.0,92.0
927,227.76082666458336,228.42823640000003,50.0,87.0
928,228.29654016458338,228.6938610104167,55.0,117.0
929,228.29654016458338,228.88582501458336,59.0,123.0
930,228.29654016458338,229.0018962729167,62.0,117.0
931,228.29654016458338,229.0286819479167,65.0,105.0
932,228.56439691458337,229.19386027708336,50.0,89.0
933,228.83225366458336,229.21171739375004,55.0,84.0
934,227.49296991458337,229.4170742354167,43.0,102.0
935,229.10011041458336,229.56885972708338,59.0,120.0
936,229.36796716458338,229.64921675208336,50.0,108.0
937,229.90368066458336,230.24966230000004,60.0,97.0
938,230.17153741458336,230.5085904916667,55.0,102.0
939,230.43939416458338,230.87242924375002,64.0,111.0
940,230.97510766458336,231.1514466916667,55.0,89.0
941,230.97510766458336,231.2920714854167,60.0,97.0
942,229.63582391458337,231.48849976875002,48.0,117.0
943,231.24296441458335,231.57332107291668,55.0,62.0
944,231.51082116458338,231.6871601916667,60.0,94.0
945,231.77867791458337,232.00412401250003,57.0,92.0
946,231.77867791458337,232.34117708958337,62.0,89.0
947,232.31439141458335,232.47287332500002,57.0,84.0
948,231.77867791458337,232.76081933125002,50.0,105.0
949,232.58224816458338,232.82778351875004,62.0,76.0
950,232.58224816458338,232.92376552083337,57.0,100.0
951,233.11796166458336,233.44608618333336,62.0,102.0
952,232.85010491458337,233.5822466979167,50.0,92.0
953,233.38581841458335,233.6960858166667,57.0,82.0
954,232.58224816458338,233.77421070208337,66.0,102.0
955,233.92153191458337,234.2585849916667,59.0,92.0
956,233.92153191458337,234.45501327500003,62.0,89.0
957,234.45724541458335,234.51751318333336,59.0,58.0
958,234.18938866458336,234.76304853750003,54.0,85.0
959,234.72510216458338,235.0956373354167,59.0,108.0
960,234.72510216458338,235.29876203750004,66.0,109.0
961,234.99295891458337,235.3634940854167,54.0,74.0
962,235.26081566458336,235.5777794854167,62.0,105.0
963,233.92153191458337,235.61349371875002,47.0,105.0
964,235.52867241458335,236.02867168125002,59.0,67.0
965,236.33224266458336,236.68045643958337,58.0,70.0
966,236.60009941458335,236.74965276666669,61.0,93.0
967,236.86795616458338,237.25858059166669,61.0,96.0
968,236.86795616458338,237.2786698479167,64.0,108.0
969,236.86795616458338,237.30322338333337,58.0,79.0
970,236.06438591458337,237.32331263958338,46.0,105.0
971,237.40366966458336,237.64920501875002,58.0,90.0
972,237.67152641458335,237.8143833479167,46.0,28.0
973,237.40366966458336,238.1826863791667,61.0,99.0
974,237.93938316458338,238.25857912500004,58.0,79.0
975,237.40366966458336,238.80098904375004,64.0,102.0
976,238.47509666458336,239.05768509583336,52.0,67.0
977,238.74295341458335,239.3344704041667,55.0,94.0
978,239.01081016458338,239.55098794375004,60.0,114.0
979,239.54652366458336,239.85232678750003,55.0,87.0
980,239.27866691458337,240.16929060833337,52.0,84.0
981,238.20723991458337,240.19607628333335,45.0,102.0
982,239.81438041458335,240.22286195833337,64.0,89.0
983,240.35009391458337,240.56214717500004,59.0,76.0
984,240.35009391458337,240.71616480625002,62.0,92.0
985,240.61795066458336,240.95053946250005,59.0,66.0
986,240.88580741458335,241.03982504583337,62.0,51.0
987,241.15366416458338,241.53312789375002,59.0,82.0
988,241.15366416458338,241.56214570833336,62.0,94.0
989,241.68937766458336,242.0264307416667,62.0,76.0
990,240.35009391458337,242.2541089791667,50.0,111.0
991,241.15366416458338,242.32330530625003,66.0,109.0
992,241.95723441458335,242.3277695854167,59.0,82.0
993,242.22509116458338,242.33000172500005,62.0,69.0
994,242.49294791458337,242.69384047708337,55.0,97.0
995,242.49294791458337,242.84785810833336,60.0,102.0
996,242.76080466458336,243.13357197500002,55.0,60.0
997,243.02866141458335,243.1715183479167,60.0,80.0
998,243.29651816458338,243.84339236250003,64.0,114.0
999,243.83223166458336,244.17151688125003,60.0,97.0
1000,242.49294791458337,244.23401678958336,48.0,105.0
1001,244.10008841458335,244.4304450729167,55.0,71.0
1002,244.63580191458337,244.85455159375005,57.0,97.0
1003,244.63580191458337,245.20946178750003,62.0,89.0
1004,245.17151541458335,245.49963993333336,57.0,52.0
1005,245.43937216458338,245.9974070604167,66.0,116.0
1006,244.63580191458337,246.05544268958337,50.0,111.0
1007,245.97508566458336,246.28981734583337,62.0,82.0
1008,246.24294241458335,246.47062065208337,57.0,84.0
1009,247.13356610833335,247.7585651916667,50.0,38.0
1010,247.4170478354167,247.85008291458337,55.0,64.0
1011,247.70052956250004,248.00186840625003,60.0,102.0
1012,247.97061845208336,248.3344572041667,59.0,92.0
1013,248.28981441250002,248.62463535000003,55.0,100.0
1014,246.84562010208336,248.91481349583336,43.0,102.0
1015,248.55990330208337,249.07552754583335,50.0,82.0
1016,248.83445647083337,249.7674908166667,55.0,73.0
1017,250.0018654729167,250.65588237083335,55.0,82.0
1018,250.86793563125002,251.32329210625002,55.0,97.0
1019,250.27418650208335,251.32329210625002,62.0,97.0
1020,249.7206158854167,251.35230992083336,50.0,58.0
1021,249.1179381979167,251.36570275833336,43.0,92.0
1022,251.29873857083336,251.87239844375003,60.0,44.0
1023,251.46614903958337,252.26748715000002,67.0,82.0
1024,252.1045409604167,252.6000759479167,60.0,57.0
1025,251.80543425625004,252.7674864166667,55.0,60.0
1026,251.5018632729167,252.80543278958336,48.0,92.0
1027,252.78980781250004,253.22061075208336,60.0,58.0
1028,252.4661475729167,254.87462618333336,72.0,92.0
1029,253.11793233125005,254.88801902083335,67.0,67.0
1030,255.7808748541667,256.0531958833334,54.0,40.0
1031,256.0732851395834,258.0018537395834,66.0,52.0
1032,255.93712462500002,258.0040858791667,62.0,53.0
1033,256.1826599791667,258.02194299583334,69.0,53.0
1034,255.93042820625004,258.02640727500005,57.0,73.0
1035,255.67150001458336,258.05542508958337,50.0,27.0
1036,258.56435291458337,258.7540847791667,55.0,73.0
1037,258.56435291458337,259.21167339375006,67.0,96.0
1038,258.56435291458337,259.51970865625003,43.0,91.0
1039,258.8322096645834,259.52863721458334,50.0,89.0
1040,259.10006641458335,259.54649433125,59.0,91.0
1041,259.3679231645834,260.06881499375004,60.0,89.0
1042,260.1714934145834,260.5152429104167,59.0,99.0
1043,259.90363666458336,260.58667137708335,50.0,80.0
1044,259.6357799145834,260.5955999354167,43.0,89.0
1045,260.43935016458335,261.2697060895834,60.0,96.0
1046,261.24292041458335,261.57774135208336,59.0,104.0
1047,260.70720691458337,261.64247340000003,43.0,91.0
1048,260.9750636645834,261.64470553958336,50.0,78.0
1049,261.5107771645834,262.35899020625004,60.0,99.0
1050,262.3143474145834,262.6179183979167,57.0,93.0
1051,261.7786339145834,262.72952537708335,43.0,106.0
1052,262.04649066458336,262.7518467729167,50.0,93.0
1053,262.58220416458335,262.85006091458337,60.0,106.0
1054,262.85006091458337,263.0397927791667,55.0,73.0
1055,262.85006091458337,263.49738139375006,67.0,96.0
1056,262.85006091458337,263.80541665625003,43.0,91.0
1057,263.1179176645834,263.81434521458334,50.0,89.0
1058,263.38577441458335,263.83220233125,59.0,91.0
1059,263.6536311645834,264.35452299375004,60.0,89.0
1060,264.4572014145834,264.8009509104167,59.0,99.0
1061,264.18934466458336,264.87237937708335,50.0,80.0
1062,263.9214879145834,264.8813079354167,43.0,89.0
1063,264.72505816458334,265.5554140895834,60.0,96.0
1064,265.52862841458335,265.86344935208336,59.0,104.0
1065,264.99291491458337,265.9281814,43.0,91.0
1066,265.2607716645834,265.93041353958336,50.0,78.0
1067,265.7964851645834,266.64469820625004,60.0,99.0
1068,266.6000554145834,266.9036263979167,57.0,93.0
1069,266.0643419145834,267.01523337708335,43.0,106.0
1070,266.33219866458336,267.0375547729167,50.0,93.0
1071,266.86791216458334,267.13576891458337,60.0,106.0
1072,267.13576891458337,271.1804058395834,43.0,99.0
1073,267.12684035625006,271.20495937500004,59.0,89.0
1074,267.14023319375,271.21388793333335,55.0,73.0
