,start,end,pitch,velocity
0,19.935416666666665,20.1875,62.0,90.0
1,20.185416666666665,20.270833333333332,65.0,84.0
2,20.435416666666665,20.597916666666666,65.0,84.0
3,20.685416666666665,20.86875,62.0,83.0
4,20.935416666666665,21.10625,65.0,85.0
5,21.185416666666665,21.579166666666666,67.0,84.0
6,21.685416666666665,23.0125,67.0,85.0
7,23.935416666666665,24.14375,62.0,84.0
8,24.185416666666665,24.33125,65.0,83.0
9,24.435416666666665,24.6375,65.0,84.0
10,24.685416666666665,24.879166666666666,62.0,86.0
11,24.935416666666665,25.1625,65.0,85.0
12,25.185416666666665,25.570833333333333,69.0,85.0
13,25.685416666666665,27.410416666666666,69.0,87.0
14,27.935416666666665,28.166666666666668,62.0,87.0
15,28.185416666666665,28.318749999999998,65.0,81.0
16,28.435416666666665,28.639583333333334,65.0,82.0
17,28.685416666666665,28.916666666666668,62.0,84.0
18,28.935416666666665,29.09583333333333,65.0,84.0
19,29.185416666666665,29.34583333333333,65.0,79.0
20,29.435416666666665,29.58125,67.0,78.0
21,29.685416666666665,30.31458333333333,72.0,84.0
22,30.435416666666665,30.852083333333333,69.0,85.0
23,30.935416666666665,31.425,67.0,83.0
24,31.435416666666665,31.87708333333333,65.0,83.0
25,31.935416666666665,32.1125,62.0,85.0
26,32.18541666666667,32.43125,65.0,85.0
27,32.68541666666667,32.89375,62.0,85.0
28,32.93541666666667,33.34375,65.0,89.0
29,33.43541666666667,33.60625,69.0,85.0
30,33.68541666666667,34.21041666666667,69.0,90.0
31,34.18541666666667,35.74166666666667,67.0,83.0
32,35.93541666666667,36.1875,62.0,90.0
33,36.18541666666667,36.270833333333336,65.0,84.0
34,36.43541666666667,36.59791666666666,65.0,84.0
35,36.68541666666667,36.86875,62.0,83.0
36,36.93541666666667,37.10625,65.0,85.0
37,37.18541666666667,37.579166666666666,67.0,84.0
38,37.68541666666667,38.93541666666667,67.0,85.0
39,38.93541666666667,39.68541666666667,69.0,84.0
40,39.68541666666667,39.93541666666667,69.0,84.0
41,39.93541666666667,40.14375,67.0,84.0
42,40.18541666666667,40.33125,65.0,83.0
43,40.43541666666667,40.6375,65.0,84.0
44,40.68541666666667,40.87916666666666,62.0,86.0
45,40.93541666666667,41.1625,65.0,85.0
46,41.18541666666667,41.57083333333333,72.0,85.0
47,41.68541666666667,43.41041666666666,69.0,87.0
48,43.93541666666667,44.166666666666664,62.0,87.0
49,44.18541666666667,44.31875,65.0,81.0
50,44.43541666666667,44.639583333333334,65.0,82.0
51,44.68541666666667,44.916666666666664,62.0,84.0
52,44.93541666666667,45.09583333333333,65.0,84.0
53,45.18541666666667,45.34583333333333,65.0,79.0
54,45.43541666666667,45.58125,67.0,78.0
55,45.68541666666667,46.31458333333333,72.0,84.0
56,46.43541666666667,46.85208333333333,69.0,85.0
57,46.93541666666667,47.425,67.0,83.0
58,47.43541666666667,47.87708333333333,65.0,83.0
59,47.93541666666667,48.13333333333333,70.0,89.0
60,48.18541666666667,48.50625,69.0,87.0
61,48.68541666666667,48.84166666666667,70.0,86.0
62,48.93541666666667,49.139583333333334,70.0,85.0
63,49.18541666666667,49.56041666666667,69.0,89.0
64,49.68541666666667,49.85208333333333,70.0,83.0
65,49.93541666666667,51.89375,72.0,87.0
66,52.93541666666667,53.291666666666664,69.0,94.0
67,53.43541666666667,53.81666666666666,72.0,90.0
68,53.93541666666667,54.13333333333333,77.0,90.0
69,54.18541666666667,54.31041666666667,76.0,85.0
70,54.43541666666667,54.59166666666667,74.0,88.0
71,54.68541666666667,54.8375,72.0,87.0
72,54.93541666666667,55.225,72.0,89.0
73,55.43541666666667,55.63333333333333,67.0,83.0
74,55.68541666666667,55.86666666666667,65.0,88.0
75,55.93541666666667,56.083333333333336,67.0,85.0
76,56.18541666666667,56.38333333333333,67.0,82.0
77,56.43541666666667,56.82083333333333,69.0,84.0
78,56.93541666666667,57.69166666666666,69.0,89.0
79,57.93541666666667,58.13333333333333,77.0,90.0
80,58.18541666666667,58.31041666666667,76.0,85.0
81,58.43541666666667,58.59166666666667,74.0,88.0
82,58.68541666666667,58.8375,72.0,87.0
83,58.93541666666667,59.225,72.0,89.0
84,59.43541666666667,59.63333333333333,67.0,83.0
85,59.68541666666667,59.86666666666667,65.0,88.0
86,59.93541666666667,60.083333333333336,67.0,85.0
87,60.18541666666667,60.38333333333333,67.0,82.0
88,60.43541666666667,60.82083333333333,69.0,84.0
89,60.93541666666667,61.69166666666666,65.0,89.0
90,61.93541666666667,62.13333333333333,77.0,90.0
91,62.18541666666667,62.31041666666667,76.0,85.0
92,62.43541666666667,62.59166666666667,74.0,88.0
93,62.68541666666667,62.8375,72.0,87.0
94,62.93541666666667,63.225,72.0,89.0
95,63.43541666666667,63.63333333333333,67.0,83.0
96,63.68541666666667,63.86666666666667,65.0,88.0
97,63.93541666666667,64.08333333333333,67.0,85.0
98,64.18541666666667,64.38333333333333,67.0,82.0
99,64.43541666666667,64.82083333333333,69.0,84.0
100,64.93541666666667,65.69166666666666,69.0,89.0
101,65.68541666666667,65.8375,60.0,85.0
102,65.93541666666667,66.09166666666667,70.0,83.0
103,66.18541666666667,66.3625,69.0,83.0
104,66.43541666666667,66.58125,70.0,89.0
105,66.68541666666667,67.08541666666666,72.0,84.0
106,67.18541666666667,67.35208333333333,69.0,83.0
107,67.43541666666667,67.6375,69.0,84.0
108,67.68541666666667,68.15208333333334,69.0,84.0
109,68.18541666666667,68.72708333333333,67.0,78.0
110,68.93541666666667,69.29166666666667,69.0,94.0
111,69.43541666666667,69.81666666666666,72.0,90.0
112,69.93541666666667,70.13333333333333,77.0,90.0
113,70.18541666666667,70.31041666666667,76.0,85.0
114,70.43541666666667,70.59166666666667,74.0,88.0
115,70.68541666666667,70.8375,72.0,87.0
116,70.93541666666667,71.225,72.0,89.0
117,71.43541666666667,71.63333333333333,67.0,83.0
118,71.68541666666667,71.86666666666666,65.0,88.0
119,71.93541666666667,72.08333333333333,67.0,85.0
120,72.18541666666667,72.38333333333333,67.0,82.0
121,72.43541666666667,72.82083333333333,69.0,84.0
122,72.93541666666667,73.69166666666666,69.0,89.0
123,73.93541666666667,74.13333333333333,77.0,90.0
124,74.18541666666667,74.31041666666667,76.0,85.0
125,74.43541666666667,74.59166666666667,74.0,88.0
126,74.68541666666667,74.8375,72.0,87.0
127,74.93541666666667,75.225,72.0,89.0
128,75.43541666666667,75.63333333333333,67.0,83.0
129,75.68541666666667,75.86666666666666,65.0,88.0
130,75.93541666666667,76.08333333333333,67.0,85.0
131,76.18541666666667,76.38333333333333,67.0,82.0
132,76.43541666666667,76.82083333333333,69.0,84.0
133,76.93541666666667,77.69166666666666,65.0,89.0
134,77.93541666666667,78.13333333333333,77.0,90.0
135,78.18541666666667,78.31041666666667,76.0,85.0
136,78.43541666666667,78.59166666666667,74.0,88.0
137,78.68541666666667,78.8375,72.0,87.0
138,78.93541666666667,79.225,72.0,89.0
139,79.43541666666667,79.63333333333333,67.0,83.0
140,79.68541666666667,79.86666666666666,65.0,88.0
141,79.93541666666667,80.08333333333333,67.0,85.0
142,80.18541666666667,80.38333333333333,67.0,82.0
143,80.43541666666667,80.82083333333333,69.0,84.0
144,80.93541666666667,81.69166666666666,69.0,89.0
145,81.68541666666667,81.8375,60.0,85.0
146,81.93541666666667,82.09166666666667,70.0,83.0
147,82.18541666666667,82.43541666666667,69.0,83.0
148,82.68541666666667,82.81666666666666,65.0,85.0
149,82.93541666666667,83.06041666666667,65.0,85.0
150,83.18541666666667,83.8625,67.0,82.0
151,83.93541666666667,85.91875,65.0,83.0
152,103.93541666666667,104.1875,62.0,90.0
153,104.18541666666667,104.27083333333333,65.0,84.0
154,104.43541666666667,104.59791666666666,65.0,84.0
155,104.68541666666667,104.86874999999999,62.0,83.0
156,104.93541666666667,105.10625,65.0,85.0
157,105.18541666666667,105.57916666666667,67.0,84.0
158,105.68541666666667,107.0125,67.0,85.0
159,107.93541666666667,108.14375,62.0,84.0
160,108.18541666666667,108.33125,65.0,83.0
161,108.43541666666667,108.6375,65.0,84.0
162,108.68541666666667,108.87916666666666,62.0,86.0
163,108.93541666666667,109.1625,65.0,85.0
164,109.18541666666667,109.57083333333333,69.0,85.0
165,109.68541666666667,111.41041666666666,69.0,87.0
166,111.93541666666667,112.16666666666667,62.0,87.0
167,112.18541666666667,112.31875,65.0,81.0
168,112.43541666666667,112.63958333333333,65.0,82.0
169,112.68541666666667,112.91666666666667,62.0,84.0
170,112.93541666666667,113.09583333333333,65.0,84.0
171,113.18541666666667,113.34583333333333,65.0,79.0
172,113.43541666666667,113.58125,67.0,78.0
173,113.68541666666667,114.31458333333333,72.0,84.0
174,114.43541666666667,114.85208333333333,69.0,85.0
175,114.93541666666667,115.425,67.0,83.0
176,115.43541666666667,115.87708333333333,65.0,83.0
177,115.93541666666667,116.1125,62.0,85.0
178,116.18541666666667,116.43124999999999,65.0,85.0
179,116.68541666666667,116.89375,62.0,85.0
180,116.93541666666667,117.34375,65.0,89.0
181,117.43541666666667,117.60625,69.0,85.0
182,117.68541666666667,118.21041666666666,69.0,90.0
183,118.18541666666667,119.74166666666666,67.0,83.0
184,119.93541666666667,120.1875,62.0,90.0
185,120.18541666666667,120.27083333333333,65.0,84.0
186,120.43541666666667,120.59791666666666,65.0,84.0
187,120.68541666666667,120.86874999999999,62.0,83.0
188,120.93541666666667,121.10625,65.0,85.0
189,121.18541666666667,121.57916666666667,67.0,84.0
190,121.68541666666667,122.93541666666667,67.0,85.0
191,122.93541666666667,123.68541666666667,69.0,84.0
192,123.68541666666667,123.93541666666667,69.0,84.0
193,123.93541666666667,124.14375,67.0,84.0
194,124.18541666666667,124.33125,65.0,83.0
195,124.43541666666667,124.6375,65.0,84.0
196,124.68541666666667,124.87916666666666,62.0,86.0
197,124.93541666666667,125.1625,65.0,85.0
198,125.18541666666667,125.57083333333333,72.0,85.0
199,125.68541666666667,127.41041666666666,69.0,87.0
200,127.93541666666667,128.16666666666666,62.0,87.0
201,128.18541666666667,128.31875,65.0,81.0
202,128.43541666666667,128.63958333333332,65.0,82.0
203,128.68541666666667,128.91666666666666,62.0,84.0
204,128.93541666666667,129.09583333333333,65.0,84.0
205,129.18541666666667,129.34583333333333,65.0,79.0
206,129.43541666666667,129.58125,67.0,78.0
207,129.68541666666667,130.31458333333333,72.0,84.0
208,130.43541666666667,130.85208333333333,69.0,85.0
209,130.93541666666667,131.425,67.0,83.0
210,131.43541666666667,131.87708333333333,65.0,83.0
211,131.93541666666667,132.13333333333333,70.0,89.0
212,132.18541666666667,132.50625,69.0,87.0
213,132.68541666666667,132.84166666666667,70.0,86.0
214,132.93541666666667,133.13958333333332,70.0,85.0
215,133.18541666666667,133.56041666666667,69.0,89.0
216,133.68541666666667,133.85208333333333,70.0,83.0
217,133.93541666666667,135.89375,72.0,87.0
218,136.93541666666667,137.29166666666666,69.0,94.0
219,137.43541666666667,137.81666666666666,72.0,90.0
220,137.93541666666667,138.13333333333333,77.0,90.0
221,138.18541666666667,138.31041666666667,76.0,85.0
222,138.43541666666667,138.59166666666667,74.0,88.0
223,138.68541666666667,138.8375,72.0,87.0
224,138.93541666666667,139.225,72.0,89.0
225,139.43541666666667,139.63333333333333,67.0,83.0
226,139.68541666666667,139.86666666666667,65.0,88.0
227,139.93541666666667,140.08333333333334,67.0,85.0
228,140.18541666666667,140.38333333333333,67.0,82.0
229,140.43541666666667,140.82083333333333,69.0,84.0
230,140.93541666666667,141.69166666666666,69.0,89.0
231,141.93541666666667,142.13333333333333,77.0,90.0
232,142.18541666666667,142.31041666666667,76.0,85.0
233,142.43541666666667,142.59166666666667,74.0,88.0
234,142.68541666666667,142.8375,72.0,87.0
235,142.93541666666667,143.225,72.0,89.0
236,143.43541666666667,143.63333333333333,67.0,83.0
237,143.68541666666667,143.86666666666667,65.0,88.0
238,143.93541666666667,144.08333333333334,67.0,85.0
239,144.18541666666667,144.38333333333333,67.0,82.0
240,144.43541666666667,144.82083333333333,69.0,84.0
241,144.93541666666667,145.69166666666666,65.0,89.0
242,145.93541666666667,146.13333333333333,77.0,90.0
243,146.18541666666667,146.31041666666667,76.0,85.0
244,146.43541666666667,146.59166666666667,74.0,88.0
245,146.68541666666667,146.8375,72.0,87.0
246,146.93541666666667,147.225,72.0,89.0
247,147.43541666666667,147.63333333333333,67.0,83.0
248,147.68541666666667,147.86666666666667,65.0,88.0
249,147.93541666666667,148.08333333333334,67.0,85.0
250,148.18541666666667,148.38333333333333,67.0,82.0
251,148.43541666666667,148.82083333333333,69.0,84.0
252,148.93541666666667,149.69166666666666,69.0,89.0
253,149.68541666666667,149.8375,60.0,85.0
254,149.93541666666667,150.09166666666667,70.0,83.0
255,150.18541666666667,150.3625,69.0,83.0
256,150.43541666666667,150.58125,70.0,89.0
257,150.68541666666667,151.08541666666667,72.0,84.0
258,151.18541666666667,151.35208333333333,69.0,83.0
259,151.43541666666667,151.6375,69.0,84.0
260,151.68541666666667,152.15208333333334,69.0,84.0
261,152.18541666666667,152.72708333333333,67.0,78.0
262,152.93541666666667,153.29166666666666,69.0,94.0
263,153.43541666666667,153.81666666666666,72.0,90.0
264,153.93541666666667,154.13333333333333,77.0,90.0
265,154.18541666666667,154.31041666666667,76.0,85.0
266,154.43541666666667,154.59166666666667,74.0,88.0
267,154.68541666666667,154.8375,72.0,87.0
268,154.93541666666667,155.225,72.0,89.0
269,155.43541666666667,155.63333333333333,67.0,83.0
270,155.68541666666667,155.86666666666667,65.0,88.0
271,155.93541666666667,156.08333333333334,67.0,85.0
272,156.18541666666667,156.38333333333333,67.0,82.0
273,156.43541666666667,156.82083333333333,69.0,84.0
274,156.93541666666667,157.69166666666666,69.0,89.0
275,157.93541666666667,158.13333333333333,77.0,90.0
276,158.18541666666667,158.31041666666667,76.0,85.0
277,158.43541666666667,158.59166666666667,74.0,88.0
278,158.68541666666667,158.8375,72.0,87.0
279,158.93541666666667,159.225,72.0,89.0
280,159.43541666666667,159.63333333333333,67.0,83.0
281,159.68541666666667,159.86666666666667,65.0,88.0
282,159.93541666666667,160.08333333333334,67.0,85.0
283,160.18541666666667,160.38333333333333,67.0,82.0
284,160.43541666666667,160.82083333333333,69.0,84.0
285,160.93541666666667,161.69166666666666,65.0,89.0
286,161.93541666666667,162.13333333333333,77.0,90.0
287,162.18541666666667,162.31041666666667,76.0,85.0
288,162.43541666666667,162.59166666666667,74.0,88.0
289,162.68541666666667,162.8375,72.0,87.0
290,162.93541666666667,163.225,72.0,89.0
291,163.43541666666667,163.63333333333333,67.0,83.0
292,163.68541666666667,163.86666666666667,65.0,88.0
293,163.93541666666667,164.08333333333334,67.0,85.0
294,164.18541666666667,164.38333333333333,67.0,82.0
295,164.43541666666667,164.82083333333333,69.0,84.0
296,164.93541666666667,165.69166666666666,69.0,89.0
297,165.68541666666667,165.8375,60.0,85.0
298,165.93541666666667,166.09166666666667,70.0,83.0
299,166.18541666666667,166.43541666666667,69.0,83.0
300,166.68541666666667,166.81666666666666,65.0,85.0
301,166.93541666666667,167.06041666666667,65.0,85.0
302,167.18541666666667,167.8625,67.0,82.0
303,167.93541666666667,169.91875,65.0,83.0
304,170.93541666666667,171.29166666666666,69.0,94.0
305,171.43541666666667,171.81666666666666,72.0,90.0
306,171.93541666666667,172.13333333333333,77.0,90.0
307,172.18541666666667,172.31041666666667,76.0,85.0
308,172.43541666666667,172.59166666666667,74.0,88.0
309,172.68541666666667,172.8375,72.0,87.0
310,172.93541666666667,173.225,72.0,89.0
311,173.43541666666667,173.63333333333333,67.0,83.0
312,173.68541666666667,173.86666666666667,65.0,88.0
313,173.93541666666667,174.08333333333334,67.0,85.0
314,174.18541666666667,174.38333333333333,67.0,82.0
315,174.43541666666667,174.82083333333333,69.0,84.0
316,174.93541666666667,175.69166666666666,69.0,89.0
317,175.93541666666667,176.13333333333333,77.0,90.0
318,176.18541666666667,176.31041666666667,76.0,85.0
319,176.43541666666667,176.59166666666667,74.0,88.0
320,176.68541666666667,176.8375,72.0,87.0
321,176.93541666666667,177.225,72.0,89.0
322,177.43541666666667,177.63333333333333,67.0,83.0
323,177.68541666666667,177.86666666666667,65.0,88.0
324,177.93541666666667,178.08333333333334,67.0,85.0
325,178.18541666666667,178.38333333333333,67.0,82.0
326,178.43541666666667,178.82083333333333,69.0,84.0
327,178.93541666666667,179.69166666666666,65.0,89.0
328,179.93541666666667,180.13333333333333,77.0,90.0
329,180.18541666666667,180.31041666666667,76.0,85.0
330,180.43541666666667,180.59166666666667,74.0,88.0
331,180.68541666666667,180.8375,72.0,87.0
332,180.93541666666667,181.225,72.0,89.0
333,181.43541666666667,181.63333333333333,67.0,83.0
334,181.68541666666667,181.86666666666667,65.0,88.0
335,181.93541666666667,182.08333333333334,67.0,85.0
336,182.18541666666667,182.38333333333333,67.0,82.0
337,182.43541666666667,182.82083333333333,69.0,84.0
338,182.93541666666667,183.69166666666666,69.0,89.0
339,183.68541666666667,183.8375,60.0,85.0
340,183.93541666666667,184.09166666666667,70.0,83.0
341,184.18541666666667,184.3625,69.0,83.0
342,184.43541666666667,184.58125,70.0,89.0
343,184.68541666666667,185.08541666666667,72.0,84.0
344,185.18541666666667,185.35208333333333,69.0,83.0
345,185.43541666666667,185.6375,69.0,84.0
346,185.68541666666667,186.15208333333334,69.0,84.0
347,186.18541666666667,186.72708333333333,67.0,78.0
348,186.93541666666667,187.29166666666666,69.0,94.0
349,187.43541666666667,187.81666666666666,72.0,90.0
350,187.93541666666667,188.13333333333333,77.0,90.0
351,188.18541666666667,188.31041666666667,76.0,85.0
352,188.43541666666667,188.59166666666667,74.0,88.0
353,188.68541666666667,188.8375,72.0,87.0
354,188.93541666666667,189.225,72.0,89.0
355,189.43541666666667,189.63333333333333,67.0,83.0
356,189.68541666666667,189.86666666666667,65.0,88.0
357,189.93541666666667,190.08333333333334,67.0,85.0
358,190.18541666666667,190.38333333333333,67.0,82.0
359,190.43541666666667,190.82083333333333,69.0,84.0
360,190.93541666666667,191.69166666666666,69.0,89.0
361,191.93541666666667,192.13333333333333,77.0,90.0
362,192.18541666666667,192.31041666666667,76.0,85.0
363,192.43541666666667,192.59166666666667,74.0,88.0
364,192.68541666666667,192.8375,72.0,87.0
365,192.93541666666667,193.225,72.0,89.0
366,193.43541666666667,193.63333333333333,67.0,83.0
367,193.68541666666667,193.86666666666667,65.0,88.0
368,193.93541666666667,194.08333333333334,67.0,85.0
369,194.18541666666667,194.38333333333333,67.0,82.0
370,194.43541666666667,194.82083333333333,69.0,84.0
371,194.93541666666667,195.69166666666666,65.0,89.0
372,195.93541666666667,196.13333333333333,77.0,90.0
373,196.18541666666667,196.31041666666667,76.0,85.0
374,196.43541666666667,196.59166666666667,74.0,88.0
375,196.68541666666667,196.8375,72.0,87.0
376,196.93541666666667,197.225,72.0,89.0
377,197.43541666666667,197.63333333333333,67.0,83.0
378,197.68541666666667,197.86666666666667,65.0,88.0
379,197.93541666666667,198.08333333333334,67.0,85.0
380,198.18541666666667,198.38333333333333,67.0,82.0
381,198.43541666666667,198.82083333333333,69.0,84.0
382,198.93541666666667,199.69166666666666,69.0,89.0
383,199.68541666666667,199.8375,60.0,85.0
384,199.93541666666667,200.09166666666667,70.0,83.0
385,200.18541666666667,200.43541666666667,69.0,83.0
386,200.68541666666667,200.81666666666666,65.0,85.0
387,200.93541666666667,201.06041666666667,65.0,85.0
388,201.18541666666667,201.8625,67.0,82.0
389,201.93541666666667,203.43541666666667,65.0,83.0
390,203.61666666666667,203.84166666666667,60.0,87.0
391,203.88125,204.13541666666666,70.0,97.0
392,204.18125,204.71041666666667,69.0,94.0
393,204.7375,204.97083333333333,65.0,87.0
394,205.07083333333333,205.30625,65.0,90.0
395,205.34791666666666,205.99791666666667,67.0,85.0
396,206.00416666666666,208.19791666666666,65.0,84.0
