,start,end,pitch,velocity
0,1.9354166666666666,3.0125,60.0,77.0
1,1.9354166666666666,3.252083333333333,53.0,74.0
2,2.435416666666667,3.4,48.0,68.0
3,1.9354166666666666,3.4166666666666665,41.0,83.0
4,3.435416666666667,3.9104166666666664,53.0,75.0
5,3.185416666666667,3.9375,60.0,78.0
6,2.685416666666667,4.233333333333333,65.0,83.0
7,4.435416666666667,4.564583333333333,56.0,70.0
8,3.935416666666667,5.329166666666667,44.0,85.0
9,4.185416666666667,5.3375,51.0,66.0
10,4.685416666666667,5.810416666666667,56.0,81.0
11,4.685416666666667,5.925,65.0,81.0
12,6.185416666666667,6.560416666666667,53.0,79.0
13,6.435416666666667,6.597916666666666,58.0,76.0
14,6.685416666666667,7.3625,58.0,72.0
15,5.935416666666667,7.414583333333333,46.0,78.0
16,6.685416666666667,7.5375,62.0,77.0
17,8.435416666666667,9.008333333333333,60.0,78.0
18,6.685416666666667,9.010416666666666,53.0,83.0
19,8.185416666666667,9.76875,48.0,77.0
20,7.935416666666667,9.779166666666667,41.0,84.0
21,9.185416666666667,9.910416666666666,60.0,78.0
22,9.435416666666667,9.9125,53.0,67.0
23,8.685416666666667,9.979166666666666,65.0,82.0
24,9.935416666666667,9.979166666666666,65.0,80.0
25,9.935416666666667,10.79375,57.0,78.0
26,10.685416666666667,11.21875,62.0,87.0
27,9.935416666666667,11.497916666666667,50.0,86.0
28,11.185416666666667,11.502083333333333,57.0,78.0
29,11.685416666666667,11.989583333333334,57.0,66.0
30,11.435416666666667,12.45,65.0,79.0
31,12.435416666666667,12.852083333333333,60.0,71.0
32,12.685416666666667,13.222916666666666,55.0,78.0
33,11.935416666666667,13.29375,48.0,77.0
34,13.185416666666667,13.5375,64.0,85.0
35,13.435416666666667,13.616666666666667,55.0,72.0
36,13.935416666666667,14.25,53.0,77.0
37,13.935416666666667,14.785416666666666,58.0,76.0
38,14.435416666666667,14.99375,50.0,41.0
39,14.685416666666667,15.789583333333333,62.0,82.0
40,15.685416666666667,15.8375,58.0,76.0
41,15.435416666666667,15.841666666666667,53.0,71.0
42,15.935416666666667,16.74375,62.0,83.0
43,15.935416666666667,16.802083333333332,58.0,75.0
44,15.935416666666667,16.85,53.0,77.0
45,17.185416666666665,17.5125,53.0,76.0
46,16.685416666666665,17.770833333333332,65.0,83.0
47,13.935416666666667,17.78333333333333,46.0,83.0
48,17.435416666666665,17.810416666666665,58.0,70.0
49,16.935416666666665,17.827083333333334,62.0,75.0
50,15.185416666666667,17.83125,50.0,72.0
51,17.935416666666665,18.96875,46.0,74.0
52,17.935416666666665,19.64375,58.0,70.0
53,17.935416666666665,19.64375,62.0,69.0
54,17.935416666666665,19.647916666666667,53.0,72.0
55,19.935416666666665,21.010416666666668,65.0,79.0
56,20.435416666666665,21.4625,57.0,64.0
57,19.935416666666665,21.475,53.0,85.0
58,21.435416666666665,21.70625,60.0,65.0
59,20.685416666666665,21.7375,72.0,85.0
60,21.185416666666665,22.21875,69.0,83.0
61,22.435416666666665,23.01875,67.0,75.0
62,21.935416666666665,23.291666666666668,52.0,83.0
63,22.185416666666665,23.297916666666666,60.0,77.0
64,23.185416666666665,23.425,67.0,77.0
65,22.685416666666665,24.016666666666666,72.0,81.0
66,23.935416666666665,24.785416666666666,62.0,75.0
67,23.935416666666665,24.8125,65.0,77.0
68,24.435416666666665,24.897916666666667,57.0,61.0
69,23.935416666666665,25.2375,50.0,84.0
70,24.685416666666665,25.254166666666666,69.0,81.0
71,25.185416666666665,25.466666666666665,65.0,79.0
72,25.435416666666665,25.539583333333333,62.0,78.0
73,25.935416666666665,26.46875,57.0,71.0
74,25.935416666666665,26.483333333333334,55.0,72.0
75,25.935416666666665,26.70625,60.0,77.0
76,26.685416666666665,27.256249999999998,55.0,84.0
77,26.435416666666665,27.275,52.0,61.0
78,25.935416666666665,27.28125,45.0,83.0
79,27.185416666666665,27.675,64.0,86.0
80,27.435416666666665,27.85625,55.0,75.0
81,27.935416666666665,28.545833333333334,58.0,69.0
82,27.935416666666665,28.739583333333332,62.0,78.0
83,28.435416666666665,29.1125,53.0,31.0
84,28.685416666666665,29.508333333333333,65.0,83.0
85,29.185416666666665,29.514583333333334,62.0,85.0
86,27.935416666666665,29.583333333333332,46.0,83.0
87,29.435416666666665,29.770833333333332,58.0,79.0
88,29.685416666666665,30.4625,62.0,75.0
89,30.435416666666665,30.677083333333332,60.0,78.0
90,30.185416666666665,30.756249999999998,52.0,73.0
91,29.935416666666665,30.797916666666666,45.0,85.0
92,30.935416666666665,31.566666666666666,50.0,83.0
93,30.935416666666665,31.570833333333333,57.0,78.0
94,30.935416666666665,31.6125,62.0,79.0
95,31.935416666666665,32.922916666666666,62.0,82.0
96,32.43541666666667,32.93958333333333,58.0,77.0
97,31.935416666666665,32.99375,55.0,78.0
98,32.68541666666667,33.327083333333334,67.0,82.0
99,31.935416666666665,33.65208333333333,43.0,84.0
100,32.18541666666667,33.666666666666664,50.0,76.0
101,33.43541666666667,33.78958333333333,55.0,78.0
102,33.18541666666667,33.889583333333334,62.0,79.0
103,33.93541666666667,34.225,55.0,79.0
104,33.93541666666667,34.40625,60.0,77.0
105,34.68541666666667,34.94583333333333,65.0,84.0
106,34.93541666666667,35.15208333333333,64.0,97.0
107,35.18541666666667,35.333333333333336,62.0,83.0
108,34.43541666666667,35.43333333333333,55.0,72.0
109,33.93541666666667,35.47291666666666,48.0,85.0
110,35.43541666666667,35.64375,60.0,83.0
111,36.68541666666667,37.24375,60.0,80.0
112,35.93541666666667,37.260416666666664,53.0,79.0
113,35.93541666666667,37.28541666666666,57.0,76.0
114,35.93541666666667,37.35625,41.0,83.0
115,36.43541666666667,37.37916666666666,48.0,68.0
116,37.43541666666667,37.625,53.0,79.0
117,37.18541666666667,37.94583333333333,65.0,85.0
118,37.93541666666667,38.71666666666667,60.0,77.0
119,37.93541666666667,39.21666666666667,55.0,79.0
120,38.68541666666667,39.2375,64.0,85.0
121,38.43541666666667,39.416666666666664,52.0,57.0
122,37.93541666666667,39.45625,48.0,84.0
123,39.18541666666667,39.49375,60.0,84.0
124,39.43541666666667,39.59583333333333,55.0,80.0
125,39.93541666666667,40.608333333333334,57.0,75.0
126,39.93541666666667,40.72083333333333,62.0,81.0
127,40.43541666666667,41.21458333333333,53.0,50.0
128,39.93541666666667,41.225,50.0,84.0
129,40.68541666666667,41.24583333333333,65.0,86.0
130,41.18541666666667,41.47291666666666,62.0,84.0
131,41.43541666666667,41.583333333333336,57.0,73.0
132,41.93541666666667,42.235416666666666,57.0,76.0
133,41.93541666666667,42.45625,60.0,79.0
134,42.43541666666667,42.62291666666667,57.0,78.0
135,42.68541666666667,43.35208333333333,57.0,78.0
136,41.93541666666667,43.416666666666664,45.0,84.0
137,42.68541666666667,43.46041666666667,64.0,85.0
138,42.18541666666667,43.4625,52.0,76.0
139,43.43541666666667,43.56041666666667,60.0,84.0
140,43.93541666666667,44.56041666666667,58.0,72.0
141,43.93541666666667,44.577083333333334,62.0,78.0
142,44.68541666666667,44.99791666666667,58.0,84.0
143,44.68541666666667,45.03333333333333,62.0,85.0
144,44.43541666666667,45.06666666666666,53.0,69.0
145,44.68541666666667,45.229166666666664,65.0,83.0
146,43.93541666666667,45.47708333333333,46.0,87.0
147,45.43541666666667,45.58125,58.0,79.0
148,45.18541666666667,45.71666666666667,62.0,83.0
149,45.93541666666667,46.670833333333334,57.0,80.0
150,45.93541666666667,46.8,45.0,83.0
151,45.93541666666667,46.829166666666666,60.0,83.0
152,46.93541666666667,47.47083333333333,57.0,83.0
153,46.93541666666667,47.5,62.0,82.0
154,46.93541666666667,47.520833333333336,50.0,83.0
155,47.93541666666667,48.55416666666667,58.0,76.0
156,47.93541666666667,48.77916666666667,62.0,83.0
157,48.43541666666667,48.84166666666667,55.0,79.0
158,48.93541666666667,49.479166666666664,58.0,78.0
159,48.18541666666667,49.614583333333336,50.0,66.0
160,47.93541666666667,49.68125,43.0,84.0
161,49.43541666666667,49.68958333333333,55.0,69.0
162,49.93541666666667,50.53541666666666,55.0,78.0
163,49.93541666666667,50.56875,60.0,80.0
164,50.68541666666667,50.72291666666666,55.0,61.0
165,50.68541666666667,51.21458333333333,64.0,86.0
166,50.43541666666667,51.75833333333333,52.0,72.0
167,51.18541666666667,51.775,60.0,84.0
168,49.93541666666667,51.78125,48.0,85.0
169,51.68541666666667,51.827083333333334,55.0,78.0
170,51.93541666666667,53.56875,48.0,85.0
171,51.93541666666667,53.81875,55.0,85.0
172,51.93541666666667,53.84791666666666,60.0,84.0
173,53.93541666666667,54.49583333333333,65.0,84.0
174,54.18541666666667,55.110416666666666,53.0,77.0
175,54.43541666666667,55.481249999999996,58.0,84.0
176,53.93541666666667,55.55,46.0,87.0
177,55.43541666666667,55.670833333333334,53.0,84.0
178,54.68541666666667,55.78541666666666,62.0,87.0
179,55.68541666666667,55.94166666666666,58.0,84.0
180,54.68541666666667,56.18958333333333,65.0,84.0
181,56.43541666666667,56.989583333333336,57.0,84.0
182,56.68541666666667,57.083333333333336,60.0,83.0
183,56.18541666666667,57.34583333333333,48.0,72.0
184,55.93541666666667,57.37916666666666,41.0,84.0
185,57.18541666666667,57.53958333333333,57.0,77.0
186,57.43541666666667,57.5625,60.0,84.0
187,56.68541666666667,57.860416666666666,65.0,85.0
188,57.93541666666667,58.21666666666667,58.0,79.0
189,57.93541666666667,58.483333333333334,62.0,82.0
190,58.43541666666667,58.55,58.0,85.0
191,58.68541666666667,58.99791666666667,58.0,88.0
192,58.68541666666667,59.01875,62.0,84.0
193,58.68541666666667,59.3125,65.0,84.0
194,57.93541666666667,59.364583333333336,46.0,85.0
195,58.18541666666667,59.36875,53.0,74.0
196,59.18541666666667,59.49375,62.0,83.0
197,59.43541666666667,59.59166666666667,58.0,83.0
198,59.93541666666667,60.24583333333333,57.0,76.0
199,59.93541666666667,60.447916666666664,60.0,83.0
200,60.43541666666667,61.03541666666666,57.0,83.0
201,60.68541666666667,61.25625,65.0,83.0
202,59.93541666666667,61.37916666666666,41.0,84.0
203,60.18541666666667,61.43541666666667,48.0,81.0
204,61.18541666666667,61.4375,60.0,88.0
205,61.43541666666667,61.625,57.0,77.0
206,61.93541666666667,62.2125,58.0,79.0
207,61.93541666666667,62.59166666666667,62.0,83.0
208,62.43541666666667,62.59375,58.0,83.0
209,62.68541666666667,62.96041666666667,62.0,83.0
210,62.68541666666667,63.00833333333333,58.0,76.0
211,62.68541666666667,63.25416666666666,65.0,78.0
212,62.18541666666667,63.44583333333333,53.0,69.0
213,61.93541666666667,63.458333333333336,46.0,88.0
214,63.18541666666667,63.49375,62.0,84.0
215,63.43541666666667,63.53125,58.0,85.0
216,63.93541666666667,64.19375,57.0,78.0
217,63.93541666666667,64.48333333333333,60.0,79.0
218,64.43541666666667,64.79166666666667,57.0,75.0
219,64.68541666666667,65.26458333333333,65.0,88.0
220,65.18541666666667,65.42291666666667,60.0,90.0
221,63.93541666666667,65.45625,41.0,84.0
222,64.18541666666667,65.48958333333333,48.0,75.0
223,65.43541666666667,65.52916666666667,57.0,79.0
224,65.93541666666667,66.47708333333333,62.0,84.0
225,66.43541666666667,66.64791666666666,58.0,83.0
226,66.68541666666667,66.82083333333333,58.0,56.0
227,65.93541666666667,67.09583333333333,55.0,84.0
228,66.68541666666667,67.24166666666666,67.0,87.0
229,65.93541666666667,67.51458333333333,43.0,85.0
230,66.18541666666667,67.51875,50.0,81.0
231,67.43541666666667,67.70416666666667,58.0,84.0
232,67.18541666666667,67.83333333333333,62.0,84.0
233,67.68541666666667,67.87916666666666,55.0,73.0
234,68.43541666666667,68.55416666666666,60.0,89.0
235,68.18541666666667,68.81458333333333,55.0,75.0
236,68.68541666666667,68.91458333333333,60.0,89.0
237,68.68541666666667,68.98958333333333,65.0,104.0
238,68.93541666666667,69.28958333333333,55.0,81.0
239,69.18541666666667,69.375,60.0,88.0
240,69.18541666666667,69.48541666666667,64.0,92.0
241,67.93541666666667,69.55833333333334,48.0,88.0
242,69.43541666666667,69.63958333333333,55.0,84.0
243,69.68541666666667,70.00416666666666,60.0,97.0
244,70.43541666666667,70.50416666666666,62.0,58.0
245,70.43541666666667,70.57291666666667,58.0,85.0
246,70.68541666666667,71.01458333333333,58.0,82.0
247,70.68541666666667,71.06875,65.0,84.0
248,70.18541666666667,71.33125,53.0,74.0
249,69.93541666666667,71.35625,46.0,92.0
250,71.18541666666667,71.51875,62.0,84.0
251,71.43541666666667,71.54583333333333,58.0,83.0
252,71.93541666666667,72.23958333333333,57.0,78.0
253,71.93541666666667,72.475,60.0,79.0
254,72.43541666666667,72.59166666666667,57.0,79.0
255,72.68541666666667,73.02291666666666,57.0,79.0
256,72.68541666666667,73.10833333333333,65.0,81.0
257,71.93541666666667,73.2375,41.0,84.0
258,72.18541666666667,73.2625,48.0,75.0
259,73.18541666666667,73.4,57.0,86.0
260,73.18541666666667,73.49791666666667,60.0,90.0
261,73.93541666666667,74.21458333333334,58.0,79.0
262,73.93541666666667,74.53333333333333,62.0,81.0
263,74.43541666666667,74.55833333333334,58.0,77.0
264,74.68541666666667,74.96666666666667,62.0,87.0
265,74.68541666666667,75.0,58.0,89.0
266,74.68541666666667,75.25625,65.0,85.0
267,74.18541666666667,75.43333333333334,53.0,79.0
268,73.93541666666667,75.45,46.0,92.0
269,75.18541666666667,75.47291666666666,62.0,85.0
270,75.43541666666667,75.56041666666667,58.0,85.0
271,75.93541666666667,76.17708333333333,57.0,76.0
272,75.93541666666667,76.50208333333333,60.0,85.0
273,76.43541666666667,76.59791666666666,57.0,71.0
274,76.68541666666667,76.87708333333333,64.0,83.0
275,76.68541666666667,77.48333333333333,57.0,81.0
276,75.93541666666667,77.53541666666666,41.0,84.0
277,76.18541666666667,77.54375,48.0,78.0
278,76.68541666666667,77.54583333333333,65.0,78.0
279,77.43541666666667,77.7125,60.0,85.0
280,77.68541666666667,77.95416666666667,57.0,80.0
281,77.68541666666667,78.0,65.0,46.0
282,78.43541666666667,78.58541666666666,58.0,86.0
283,78.68541666666667,79.12916666666666,58.0,84.0
284,77.93541666666667,79.23541666666667,46.0,90.0
285,78.68541666666667,79.24375,62.0,87.0
286,78.18541666666667,79.28541666666666,53.0,74.0
287,79.18541666666667,79.53541666666666,65.0,85.0
288,79.43541666666667,79.5875,62.0,79.0
289,79.93541666666667,80.16458333333333,53.0,74.0
290,79.93541666666667,80.36666666666666,57.0,73.0
291,80.43541666666667,80.54583333333333,53.0,77.0
292,80.68541666666667,80.925,53.0,89.0
293,80.68541666666667,80.94166666666666,60.0,86.0
294,81.18541666666667,81.28958333333333,53.0,86.0
295,80.18541666666667,81.30416666666666,48.0,76.0
296,79.93541666666667,81.52083333333333,41.0,85.0
297,81.18541666666667,81.56875,57.0,87.0
298,81.43541666666667,81.68125,48.0,85.0
299,81.68541666666667,81.975,53.0,92.0
300,82.18541666666667,82.76875,50.0,79.0
301,81.93541666666667,82.77708333333334,43.0,87.0
302,82.43541666666667,82.77708333333334,55.0,83.0
303,82.68541666666667,83.01875,58.0,87.0
304,82.93541666666667,83.45625,48.0,104.0
305,83.18541666666667,83.47291666666666,52.0,78.0
306,83.43541666666667,83.58333333333333,55.0,89.0
307,83.93541666666667,84.46041666666666,53.0,79.0
308,83.93541666666667,84.71875,57.0,81.0
309,84.43541666666667,85.07916666666667,48.0,71.0
310,84.93541666666667,85.55416666666666,60.0,86.0
311,85.18541666666667,85.62916666666666,48.0,79.0
312,83.93541666666667,85.65,41.0,84.0
313,85.43541666666667,85.97291666666666,53.0,80.0
314,85.68541666666667,86.02291666666666,65.0,83.0
315,85.93541666666667,86.02291666666666,65.0,83.0
316,85.93541666666667,86.25625,58.0,75.0
317,86.43541666666667,86.63958333333333,58.0,76.0
318,86.18541666666667,87.20416666666667,53.0,74.0
319,86.68541666666667,87.33333333333333,62.0,83.0
320,85.93541666666667,87.34583333333333,46.0,85.0
321,86.68541666666667,87.35208333333333,58.0,73.0
322,86.68541666666667,87.4625,65.0,84.0
323,87.93541666666667,88.22291666666666,57.0,81.0
324,87.93541666666667,88.53125,65.0,83.0
325,88.43541666666667,88.6125,57.0,83.0
326,88.68541666666667,89.39583333333333,60.0,90.0
327,87.93541666666667,89.43541666666667,45.0,84.0
328,88.18541666666667,89.44791666666667,52.0,75.0
329,88.68541666666667,89.50625,57.0,86.0
330,88.68541666666667,90.06458333333333,65.0,84.0
331,89.93541666666667,90.22083333333333,55.0,79.0
332,89.93541666666667,90.5,58.0,76.0
333,89.93541666666667,90.525,62.0,83.0
334,90.18541666666667,91.33333333333333,50.0,76.0
335,90.68541666666667,91.33958333333334,58.0,79.0
336,89.93541666666667,91.34375,43.0,84.0
337,90.68541666666667,91.375,62.0,84.0
338,90.68541666666667,91.37916666666666,65.0,82.0
339,90.43541666666667,91.45,55.0,77.0
340,91.93541666666667,92.54791666666667,60.0,79.0
341,91.93541666666667,92.57083333333333,53.0,77.0
342,92.43541666666667,92.57083333333333,57.0,79.0
343,92.68541666666667,93.04166666666667,53.0,80.0
344,92.18541666666667,93.25,48.0,75.0
345,91.93541666666667,93.2625,41.0,84.0
346,93.18541666666667,93.44583333333333,53.0,85.0
347,93.18541666666667,93.45208333333333,60.0,83.0
348,92.68541666666667,93.5,65.0,87.0
349,93.93541666666667,94.2125,58.0,76.0
350,93.93541666666667,94.49375,62.0,81.0
351,94.43541666666667,94.54375,58.0,81.0
352,94.68541666666667,95.41458333333333,58.0,86.0
353,94.68541666666667,95.70416666666667,65.0,84.0
354,93.93541666666667,95.78125,46.0,84.0
355,94.18541666666667,96.0625,53.0,72.0
356,95.93541666666667,96.26458333333333,57.0,79.0
357,95.93541666666667,96.525,65.0,84.0
358,96.43541666666667,96.5875,57.0,83.0
359,96.68541666666667,97.25208333333333,60.0,89.0
360,95.93541666666667,97.32083333333333,45.0,84.0
361,96.68541666666667,97.34791666666666,57.0,85.0
362,96.18541666666667,97.37291666666667,53.0,75.0
363,96.68541666666667,97.87083333333334,65.0,84.0
364,97.93541666666667,98.21875,55.0,76.0
365,97.93541666666667,98.53958333333333,58.0,81.0
366,97.93541666666667,98.55,62.0,83.0
367,98.43541666666667,98.57708333333333,55.0,74.0
368,98.18541666666667,98.91875,50.0,73.0
369,98.68541666666667,99.2625,55.0,84.0
370,98.68541666666667,99.37708333333333,58.0,85.0
371,98.68541666666667,99.48541666666667,62.0,87.0
372,99.18541666666667,99.53958333333333,50.0,81.0
373,97.93541666666667,99.55,43.0,84.0
374,99.43541666666667,99.5875,55.0,88.0
375,99.93541666666667,100.17916666666666,41.0,83.0
376,99.93541666666667,100.19583333333333,53.0,86.0
377,100.18541666666667,100.46458333333334,43.0,70.0
378,100.18541666666667,100.46875,55.0,84.0
379,100.43541666666667,100.55,57.0,84.0
380,100.43541666666667,100.61458333333333,45.0,87.0
381,100.68541666666667,103.67083333333333,53.0,79.0
382,100.68541666666667,103.69166666666666,58.0,83.0
383,100.68541666666667,103.75208333333333,46.0,78.0
384,103.93541666666667,105.01041666666667,65.0,79.0
385,104.43541666666667,105.46249999999999,57.0,64.0
386,103.93541666666667,105.475,53.0,85.0
387,105.43541666666667,105.70625,60.0,65.0
388,104.68541666666667,105.7375,72.0,85.0
389,105.18541666666667,106.21875,69.0,83.0
390,106.43541666666667,107.01875,67.0,75.0
391,105.93541666666667,107.29166666666667,52.0,83.0
392,106.18541666666667,107.29791666666667,60.0,77.0
393,107.18541666666667,107.425,67.0,77.0
394,106.68541666666667,108.01666666666667,72.0,81.0
395,107.93541666666667,108.78541666666666,62.0,75.0
396,107.93541666666667,108.8125,65.0,77.0
397,108.43541666666667,108.89791666666666,57.0,61.0
398,107.93541666666667,109.2375,50.0,84.0
399,108.68541666666667,109.25416666666666,69.0,81.0
400,109.18541666666667,109.46666666666667,65.0,79.0
401,109.43541666666667,109.53958333333333,62.0,78.0
402,109.93541666666667,110.46875,57.0,71.0
403,109.93541666666667,110.48333333333333,55.0,72.0
404,109.93541666666667,110.70625,60.0,77.0
405,110.68541666666667,111.25625,55.0,84.0
406,110.43541666666667,111.27499999999999,52.0,61.0
407,109.93541666666667,111.28125,45.0,83.0
408,111.18541666666667,111.675,64.0,86.0
409,111.43541666666667,111.85625,55.0,75.0
410,111.93541666666667,112.54583333333333,58.0,69.0
411,111.93541666666667,112.73958333333333,62.0,78.0
412,112.43541666666667,113.1125,53.0,31.0
413,112.68541666666667,113.50833333333333,65.0,83.0
414,113.18541666666667,113.51458333333333,62.0,85.0
415,111.93541666666667,113.58333333333333,46.0,83.0
416,113.43541666666667,113.77083333333333,58.0,79.0
417,113.68541666666667,114.46249999999999,62.0,75.0
418,114.43541666666667,114.67708333333333,60.0,78.0
419,114.18541666666667,114.75625,52.0,73.0
420,113.93541666666667,114.79791666666667,45.0,85.0
421,114.93541666666667,115.56666666666666,50.0,83.0
422,114.93541666666667,115.57083333333333,57.0,78.0
423,114.93541666666667,115.6125,62.0,79.0
424,115.93541666666667,116.92291666666667,62.0,82.0
425,116.43541666666667,116.93958333333333,58.0,77.0
426,115.93541666666667,116.99374999999999,55.0,78.0
427,116.68541666666667,117.32708333333333,67.0,82.0
428,115.93541666666667,117.65208333333334,43.0,84.0
429,116.18541666666667,117.66666666666667,50.0,76.0
430,117.43541666666667,117.78958333333333,55.0,78.0
431,117.18541666666667,117.88958333333333,62.0,79.0
432,117.93541666666667,118.225,55.0,79.0
433,117.93541666666667,118.40625,60.0,77.0
434,118.68541666666667,118.94583333333333,65.0,84.0
435,118.93541666666667,119.15208333333334,64.0,97.0
436,119.18541666666667,119.33333333333333,62.0,83.0
437,118.43541666666667,119.43333333333334,55.0,72.0
438,117.93541666666667,119.47291666666666,48.0,85.0
439,119.43541666666667,119.64375,60.0,83.0
440,120.68541666666667,121.24374999999999,60.0,80.0
441,119.93541666666667,121.26041666666667,53.0,79.0
442,119.93541666666667,121.28541666666666,57.0,76.0
443,119.93541666666667,121.35625,41.0,83.0
444,120.43541666666667,121.37916666666666,48.0,68.0
445,121.43541666666667,121.625,53.0,79.0
446,121.18541666666667,121.94583333333333,65.0,85.0
447,121.93541666666667,122.71666666666667,60.0,77.0
448,121.93541666666667,123.21666666666667,55.0,79.0
449,122.68541666666667,123.2375,64.0,85.0
450,122.43541666666667,123.41666666666667,52.0,57.0
451,121.93541666666667,123.45625,48.0,84.0
452,123.18541666666667,123.49374999999999,60.0,84.0
453,123.43541666666667,123.59583333333333,55.0,80.0
454,123.93541666666667,124.60833333333333,57.0,75.0
455,123.93541666666667,124.72083333333333,62.0,81.0
456,124.43541666666667,125.21458333333334,53.0,50.0
457,123.93541666666667,125.225,50.0,84.0
458,124.68541666666667,125.24583333333334,65.0,86.0
459,125.18541666666667,125.47291666666666,62.0,84.0
460,125.43541666666667,125.58333333333333,57.0,73.0
461,125.93541666666667,126.23541666666667,57.0,76.0
462,125.93541666666667,126.45625,60.0,79.0
463,126.43541666666667,126.62291666666667,57.0,78.0
464,126.68541666666667,127.35208333333333,57.0,78.0
465,125.93541666666667,127.41666666666667,45.0,84.0
466,126.68541666666667,127.46041666666666,64.0,85.0
467,126.18541666666667,127.46249999999999,52.0,76.0
468,127.43541666666667,127.56041666666667,60.0,84.0
469,127.93541666666667,128.56041666666667,58.0,72.0
470,127.93541666666667,128.57708333333332,62.0,78.0
471,128.68541666666667,128.99791666666667,58.0,84.0
472,128.68541666666667,129.03333333333333,62.0,85.0
473,128.43541666666667,129.06666666666666,53.0,69.0
474,128.68541666666667,129.22916666666666,65.0,83.0
475,127.93541666666667,129.47708333333333,46.0,87.0
476,129.43541666666667,129.58125,58.0,79.0
477,129.18541666666667,129.71666666666667,62.0,83.0
478,129.93541666666667,130.67083333333332,57.0,80.0
479,129.93541666666667,130.8,45.0,83.0
480,129.93541666666667,130.82916666666665,60.0,83.0
481,130.93541666666667,131.47083333333333,57.0,83.0
482,130.93541666666667,131.5,62.0,82.0
483,130.93541666666667,131.52083333333334,50.0,83.0
484,131.93541666666667,132.55416666666667,58.0,76.0
485,131.93541666666667,132.77916666666667,62.0,83.0
486,132.43541666666667,132.84166666666667,55.0,79.0
487,132.93541666666667,133.47916666666666,58.0,78.0
488,132.18541666666667,133.61458333333334,50.0,66.0
489,131.93541666666667,133.68125,43.0,84.0
490,133.43541666666667,133.68958333333333,55.0,69.0
491,133.93541666666667,134.53541666666666,55.0,78.0
492,133.93541666666667,134.56875,60.0,80.0
493,134.68541666666667,134.72291666666666,55.0,61.0
494,134.68541666666667,135.21458333333334,64.0,86.0
495,134.43541666666667,135.75833333333333,52.0,72.0
496,135.18541666666667,135.775,60.0,84.0
497,133.93541666666667,135.78125,48.0,85.0
498,135.68541666666667,135.82708333333332,55.0,78.0
499,135.93541666666667,137.56875,48.0,85.0
500,135.93541666666667,137.81875,55.0,85.0
501,135.93541666666667,137.84791666666666,60.0,84.0
502,137.93541666666667,138.49583333333334,65.0,84.0
503,138.18541666666667,139.11041666666665,53.0,77.0
504,138.43541666666667,139.48125,58.0,84.0
505,137.93541666666667,139.55,46.0,87.0
506,139.43541666666667,139.67083333333332,53.0,84.0
507,138.68541666666667,139.78541666666666,62.0,87.0
508,139.68541666666667,139.94166666666666,58.0,84.0
509,138.68541666666667,140.18958333333333,65.0,84.0
510,140.43541666666667,140.98958333333334,57.0,84.0
511,140.68541666666667,141.08333333333334,60.0,83.0
512,140.18541666666667,141.34583333333333,48.0,72.0
513,139.93541666666667,141.37916666666666,41.0,84.0
514,141.18541666666667,141.53958333333333,57.0,77.0
515,141.43541666666667,141.5625,60.0,84.0
516,140.68541666666667,141.86041666666665,65.0,85.0
517,141.93541666666667,142.21666666666667,58.0,79.0
518,141.93541666666667,142.48333333333332,62.0,82.0
519,142.43541666666667,142.55,58.0,85.0
520,142.68541666666667,142.99791666666667,58.0,88.0
521,142.68541666666667,143.01875,62.0,84.0
522,142.68541666666667,143.3125,65.0,84.0
523,141.93541666666667,143.36458333333334,46.0,85.0
524,142.18541666666667,143.36875,53.0,74.0
525,143.18541666666667,143.49375,62.0,83.0
526,143.43541666666667,143.59166666666667,58.0,83.0
527,143.93541666666667,144.24583333333334,57.0,76.0
528,143.93541666666667,144.44791666666666,60.0,83.0
529,144.43541666666667,145.03541666666666,57.0,83.0
530,144.68541666666667,145.25625,65.0,83.0
531,143.93541666666667,145.37916666666666,41.0,84.0
532,144.18541666666667,145.43541666666667,48.0,81.0
533,145.18541666666667,145.4375,60.0,88.0
534,145.43541666666667,145.625,57.0,77.0
535,145.93541666666667,146.2125,58.0,79.0
536,145.93541666666667,146.59166666666667,62.0,83.0
537,146.43541666666667,146.59375,58.0,83.0
538,146.68541666666667,146.96041666666667,62.0,83.0
539,146.68541666666667,147.00833333333333,58.0,76.0
540,146.68541666666667,147.25416666666666,65.0,78.0
541,146.18541666666667,147.44583333333333,53.0,69.0
542,145.93541666666667,147.45833333333334,46.0,88.0
543,147.18541666666667,147.49375,62.0,84.0
544,147.43541666666667,147.53125,58.0,85.0
545,147.93541666666667,148.19375,57.0,78.0
546,147.93541666666667,148.48333333333332,60.0,79.0
547,148.43541666666667,148.79166666666666,57.0,75.0
548,148.68541666666667,149.26458333333332,65.0,88.0
549,149.18541666666667,149.42291666666665,60.0,90.0
550,147.93541666666667,149.45625,41.0,84.0
551,148.18541666666667,149.48958333333334,48.0,75.0
552,149.43541666666667,149.52916666666667,57.0,79.0
553,149.93541666666667,150.47708333333333,62.0,84.0
554,150.43541666666667,150.64791666666667,58.0,83.0
555,150.68541666666667,150.82083333333333,58.0,56.0
556,149.93541666666667,151.09583333333333,55.0,84.0
557,150.68541666666667,151.24166666666667,67.0,87.0
558,149.93541666666667,151.51458333333332,43.0,85.0
559,150.18541666666667,151.51875,50.0,81.0
560,151.43541666666667,151.70416666666665,58.0,84.0
561,151.18541666666667,151.83333333333334,62.0,84.0
562,151.68541666666667,151.87916666666666,55.0,73.0
563,152.43541666666667,152.55416666666667,60.0,89.0
564,152.18541666666667,152.81458333333333,55.0,75.0
565,152.68541666666667,152.91458333333333,60.0,89.0
566,152.68541666666667,152.98958333333334,65.0,104.0
567,152.93541666666667,153.28958333333333,55.0,81.0
568,153.18541666666667,153.375,60.0,88.0
569,153.18541666666667,153.48541666666665,64.0,92.0
570,151.93541666666667,153.55833333333334,48.0,88.0
571,153.43541666666667,153.63958333333332,55.0,84.0
572,153.68541666666667,154.00416666666666,60.0,97.0
573,154.43541666666667,154.50416666666666,62.0,58.0
574,154.43541666666667,154.57291666666666,58.0,85.0
575,154.68541666666667,155.01458333333332,58.0,82.0
576,154.68541666666667,155.06875,65.0,84.0
577,154.18541666666667,155.33125,53.0,74.0
578,153.93541666666667,155.35625,46.0,92.0
579,155.18541666666667,155.51875,62.0,84.0
580,155.43541666666667,155.54583333333332,58.0,83.0
581,155.93541666666667,156.23958333333334,57.0,78.0
582,155.93541666666667,156.475,60.0,79.0
583,156.43541666666667,156.59166666666667,57.0,79.0
584,156.68541666666667,157.02291666666667,57.0,79.0
585,156.68541666666667,157.10833333333332,65.0,81.0
586,155.93541666666667,157.2375,41.0,84.0
587,156.18541666666667,157.2625,48.0,75.0
588,157.18541666666667,157.4,57.0,86.0
589,157.18541666666667,157.49791666666667,60.0,90.0
590,157.93541666666667,158.21458333333334,58.0,79.0
591,157.93541666666667,158.53333333333333,62.0,81.0
592,158.43541666666667,158.55833333333334,58.0,77.0
593,158.68541666666667,158.96666666666667,62.0,87.0
594,158.68541666666667,159.0,58.0,89.0
595,158.68541666666667,159.25625,65.0,85.0
596,158.18541666666667,159.43333333333334,53.0,79.0
597,157.93541666666667,159.45,46.0,92.0
598,159.18541666666667,159.47291666666666,62.0,85.0
599,159.43541666666667,159.56041666666667,58.0,85.0
600,159.93541666666667,160.17708333333334,57.0,76.0
601,159.93541666666667,160.50208333333333,60.0,85.0
602,160.43541666666667,160.59791666666666,57.0,71.0
603,160.68541666666667,160.87708333333333,64.0,83.0
604,160.68541666666667,161.48333333333332,57.0,81.0
605,159.93541666666667,161.53541666666666,41.0,84.0
606,160.18541666666667,161.54375,48.0,78.0
607,160.68541666666667,161.54583333333332,65.0,78.0
608,161.43541666666667,161.7125,60.0,85.0
609,161.68541666666667,161.95416666666665,57.0,80.0
610,161.68541666666667,162.0,65.0,46.0
611,162.43541666666667,162.58541666666667,58.0,86.0
612,162.68541666666667,163.12916666666666,58.0,84.0
613,161.93541666666667,163.23541666666665,46.0,90.0
614,162.68541666666667,163.24375,62.0,87.0
615,162.18541666666667,163.28541666666666,53.0,74.0
616,163.18541666666667,163.53541666666666,65.0,85.0
617,163.43541666666667,163.5875,62.0,79.0
618,163.93541666666667,164.16458333333333,53.0,74.0
619,163.93541666666667,164.36666666666667,57.0,73.0
620,164.43541666666667,164.54583333333332,53.0,77.0
621,164.68541666666667,164.925,53.0,89.0
622,164.68541666666667,164.94166666666666,60.0,86.0
623,165.18541666666667,165.28958333333333,53.0,86.0
624,164.18541666666667,165.30416666666667,48.0,76.0
625,163.93541666666667,165.52083333333334,41.0,85.0
626,165.18541666666667,165.56875,57.0,87.0
627,165.43541666666667,165.68125,48.0,85.0
628,165.68541666666667,165.975,53.0,92.0
629,166.18541666666667,166.76875,50.0,79.0
630,165.93541666666667,166.77708333333334,43.0,87.0
631,166.43541666666667,166.77708333333334,55.0,83.0
632,166.68541666666667,167.01875,58.0,87.0
633,166.93541666666667,167.45625,48.0,104.0
634,167.18541666666667,167.47291666666666,52.0,78.0
635,167.43541666666667,167.58333333333334,55.0,89.0
636,167.93541666666667,168.46041666666667,53.0,79.0
637,167.93541666666667,168.71875,57.0,81.0
638,168.43541666666667,169.07916666666665,48.0,71.0
639,168.93541666666667,169.55416666666667,60.0,86.0
640,169.18541666666667,169.62916666666666,48.0,79.0
641,167.93541666666667,169.65,41.0,84.0
642,169.43541666666667,169.97291666666666,53.0,80.0
643,169.68541666666667,170.02291666666667,65.0,83.0
644,169.93541666666667,170.2625,58.0,84.0
645,169.93541666666667,170.51875,62.0,86.0
646,169.93541666666667,170.60208333333333,46.0,94.0
647,170.43541666666667,170.76458333333332,58.0,87.0
648,170.68541666666667,170.93541666666667,65.0,84.0
649,170.93541666666667,171.22916666666666,60.0,77.0
650,170.93541666666667,171.25625,64.0,87.0
651,171.68541666666667,171.95625,64.0,104.0
652,170.93541666666667,171.96875,48.0,94.0
653,171.43541666666667,171.96875,60.0,100.0
654,171.18541666666667,172.0125,55.0,83.0
655,171.93541666666667,172.49583333333334,65.0,84.0
656,172.18541666666667,173.11041666666665,53.0,77.0
657,172.43541666666667,173.48125,58.0,84.0
658,171.93541666666667,173.55,46.0,87.0
659,173.43541666666667,173.67083333333332,53.0,84.0
660,172.68541666666667,173.78541666666666,62.0,87.0
661,173.68541666666667,173.94166666666666,58.0,84.0
662,172.68541666666667,174.18958333333333,65.0,84.0
663,174.43541666666667,174.98958333333334,57.0,84.0
664,174.68541666666667,175.08333333333334,60.0,83.0
665,174.18541666666667,175.34583333333333,48.0,72.0
666,173.93541666666667,175.37916666666666,41.0,84.0
667,175.18541666666667,175.53958333333333,57.0,77.0
668,175.43541666666667,175.5625,60.0,84.0
669,174.68541666666667,175.86041666666665,65.0,85.0
670,175.93541666666667,176.21666666666667,58.0,79.0
671,175.93541666666667,176.48333333333332,62.0,82.0
672,176.43541666666667,176.55,58.0,85.0
673,176.68541666666667,176.99791666666667,58.0,88.0
674,176.68541666666667,177.01875,62.0,84.0
675,176.68541666666667,177.3125,65.0,84.0
676,175.93541666666667,177.36458333333334,46.0,85.0
677,176.18541666666667,177.36875,53.0,74.0
678,177.18541666666667,177.49375,62.0,83.0
679,177.43541666666667,177.59166666666667,58.0,83.0
680,177.93541666666667,178.24583333333334,57.0,76.0
681,177.93541666666667,178.44791666666666,60.0,83.0
682,178.43541666666667,179.03541666666666,57.0,83.0
683,178.68541666666667,179.25625,65.0,83.0
684,177.93541666666667,179.37916666666666,41.0,84.0
685,178.18541666666667,179.43541666666667,48.0,81.0
686,179.18541666666667,179.4375,60.0,88.0
687,179.43541666666667,179.625,57.0,77.0
688,179.93541666666667,180.2125,58.0,79.0
689,179.93541666666667,180.59166666666667,62.0,83.0
690,180.43541666666667,180.59375,58.0,83.0
691,180.68541666666667,180.96041666666667,62.0,83.0
692,180.68541666666667,181.00833333333333,58.0,76.0
693,180.68541666666667,181.25416666666666,65.0,78.0
694,180.18541666666667,181.44583333333333,53.0,69.0
695,179.93541666666667,181.45833333333334,46.0,88.0
696,181.18541666666667,181.49375,62.0,84.0
697,181.43541666666667,181.53125,58.0,85.0
698,181.93541666666667,182.19375,57.0,78.0
699,181.93541666666667,182.48333333333332,60.0,79.0
700,182.43541666666667,182.79166666666666,57.0,75.0
701,182.68541666666667,183.26458333333332,65.0,88.0
702,183.18541666666667,183.42291666666665,60.0,90.0
703,181.93541666666667,183.45625,41.0,84.0
704,182.18541666666667,183.48958333333334,48.0,75.0
705,183.43541666666667,183.52916666666667,57.0,79.0
706,183.93541666666667,184.47708333333333,62.0,84.0
707,184.43541666666667,184.64791666666667,58.0,83.0
708,184.68541666666667,184.82083333333333,58.0,56.0
709,183.93541666666667,185.09583333333333,55.0,84.0
710,184.68541666666667,185.24166666666667,67.0,87.0
711,183.93541666666667,185.51458333333332,43.0,85.0
712,184.18541666666667,185.51875,50.0,81.0
713,185.43541666666667,185.70416666666665,58.0,84.0
714,185.18541666666667,185.83333333333334,62.0,84.0
715,185.68541666666667,185.87916666666666,55.0,73.0
716,186.43541666666667,186.55416666666667,60.0,89.0
717,186.18541666666667,186.81458333333333,55.0,75.0
718,186.68541666666667,186.91458333333333,60.0,89.0
719,186.68541666666667,186.98958333333334,65.0,104.0
720,186.93541666666667,187.28958333333333,55.0,81.0
721,187.18541666666667,187.375,60.0,88.0
722,187.18541666666667,187.48541666666665,64.0,92.0
723,185.93541666666667,187.55833333333334,48.0,88.0
724,187.43541666666667,187.63958333333332,55.0,84.0
725,187.68541666666667,188.00416666666666,60.0,97.0
726,188.43541666666667,188.50416666666666,62.0,58.0
727,188.43541666666667,188.57291666666666,58.0,85.0
728,188.68541666666667,189.01458333333332,58.0,82.0
729,188.68541666666667,189.06875,65.0,84.0
730,188.18541666666667,189.33125,53.0,74.0
731,187.93541666666667,189.35625,46.0,92.0
732,189.18541666666667,189.51875,62.0,84.0
733,189.43541666666667,189.54583333333332,58.0,83.0
734,189.93541666666667,190.23958333333334,57.0,78.0
735,189.93541666666667,190.475,60.0,79.0
736,190.43541666666667,190.59166666666667,57.0,79.0
737,190.68541666666667,191.02291666666667,57.0,79.0
738,190.68541666666667,191.10833333333332,65.0,81.0
739,189.93541666666667,191.2375,41.0,84.0
740,190.18541666666667,191.2625,48.0,75.0
741,191.18541666666667,191.4,57.0,86.0
742,191.18541666666667,191.49791666666667,60.0,90.0
743,191.93541666666667,192.21458333333334,58.0,79.0
744,191.93541666666667,192.53333333333333,62.0,81.0
745,192.43541666666667,192.55833333333334,58.0,77.0
746,192.68541666666667,192.96666666666667,62.0,87.0
747,192.68541666666667,193.0,58.0,89.0
748,192.68541666666667,193.25625,65.0,85.0
749,192.18541666666667,193.43333333333334,53.0,79.0
750,191.93541666666667,193.45,46.0,92.0
751,193.18541666666667,193.47291666666666,62.0,85.0
752,193.43541666666667,193.56041666666667,58.0,85.0
753,193.93541666666667,194.17708333333334,57.0,76.0
754,193.93541666666667,194.50208333333333,60.0,85.0
755,194.43541666666667,194.59791666666666,57.0,71.0
756,194.68541666666667,194.87708333333333,64.0,83.0
757,194.68541666666667,195.48333333333332,57.0,81.0
758,193.93541666666667,195.53541666666666,41.0,84.0
759,194.18541666666667,195.54375,48.0,78.0
760,194.68541666666667,195.54583333333332,65.0,78.0
761,195.43541666666667,195.7125,60.0,85.0
762,195.68541666666667,195.95416666666665,57.0,80.0
763,195.68541666666667,196.0,65.0,46.0
764,196.43541666666667,196.58541666666667,58.0,86.0
765,196.68541666666667,197.12916666666666,58.0,84.0
766,195.93541666666667,197.23541666666665,46.0,90.0
767,196.68541666666667,197.24375,62.0,87.0
768,196.18541666666667,197.28541666666666,53.0,74.0
769,197.18541666666667,197.53541666666666,65.0,85.0
770,197.43541666666667,197.5875,62.0,79.0
771,197.93541666666667,198.16458333333333,53.0,74.0
772,197.93541666666667,198.36666666666667,57.0,73.0
773,198.43541666666667,198.54583333333332,53.0,77.0
774,198.68541666666667,198.925,53.0,89.0
775,198.68541666666667,198.94166666666666,60.0,86.0
776,199.18541666666667,199.28958333333333,53.0,86.0
777,198.18541666666667,199.30416666666667,48.0,76.0
778,197.93541666666667,199.52083333333334,41.0,85.0
779,199.18541666666667,199.56875,57.0,87.0
780,199.43541666666667,199.68125,48.0,85.0
781,199.68541666666667,199.975,53.0,92.0
782,200.18541666666667,200.76875,50.0,79.0
783,199.93541666666667,200.77708333333334,43.0,87.0
784,200.43541666666667,200.77708333333334,55.0,83.0
785,200.68541666666667,201.01875,58.0,87.0
786,200.93541666666667,201.45625,48.0,104.0
787,201.18541666666667,201.47291666666666,52.0,78.0
788,201.43541666666667,201.58333333333334,55.0,89.0
789,201.93541666666667,202.46041666666667,53.0,79.0
790,201.93541666666667,202.71875,57.0,81.0
791,202.43541666666667,203.07916666666665,48.0,71.0
792,202.93541666666667,203.55416666666667,60.0,86.0
793,203.18541666666667,203.62916666666666,48.0,79.0
794,201.93541666666667,203.65,41.0,84.0
795,203.43541666666667,203.97291666666666,53.0,80.0
796,203.68541666666667,204.02291666666667,65.0,83.0
797,203.93541666666667,204.51458333333332,58.0,74.0
798,203.93541666666667,204.75416666666666,62.0,79.0
799,204.43541666666667,204.78541666666666,55.0,85.0
800,204.18541666666667,204.7875,50.0,75.0
801,204.68541666666667,204.81041666666667,58.0,84.0
802,203.93541666666667,204.9,43.0,84.0
803,204.93541666666667,205.57708333333332,60.0,80.0
804,204.93541666666667,205.64166666666665,55.0,79.0
805,204.93541666666667,205.85625,48.0,84.0
806,205.93541666666667,206.61041666666665,57.0,77.0
807,205.93541666666667,206.79999999999998,53.0,75.0
808,206.43541666666667,207.17916666666667,48.0,73.0
809,206.93541666666667,207.34791666666666,60.0,84.0
810,206.93541666666667,207.49375,53.0,69.0
811,205.93541666666667,209.11249999999998,41.0,84.0
812,207.43541666666667,209.12291666666667,48.0,73.0
813,207.93541666666667,210.81041666666667,53.0,72.0
814,207.93541666666667,210.89583333333334,57.0,69.0
815,207.93541666666667,210.95416666666665,65.0,70.0
816,211.93541666666667,212.25625,58.0,75.0
817,211.93541666666667,212.49583333333334,65.0,83.0
818,212.43541666666667,212.63958333333332,58.0,76.0
819,212.18541666666667,213.20416666666665,53.0,74.0
820,212.68541666666667,213.33333333333334,62.0,83.0
821,211.93541666666667,213.34583333333333,46.0,85.0
822,212.68541666666667,213.35208333333333,58.0,73.0
823,212.68541666666667,213.4625,65.0,84.0
824,213.93541666666667,214.22291666666666,57.0,81.0
825,213.93541666666667,214.53125,65.0,83.0
826,214.43541666666667,214.61249999999998,57.0,83.0
827,214.68541666666667,215.39583333333334,60.0,90.0
828,213.93541666666667,215.43541666666667,45.0,84.0
829,214.18541666666667,215.44791666666666,52.0,75.0
830,214.68541666666667,215.50625,57.0,86.0
831,214.68541666666667,216.06458333333333,65.0,84.0
832,215.93541666666667,216.22083333333333,55.0,79.0
833,215.93541666666667,216.5,58.0,76.0
834,215.93541666666667,216.525,62.0,83.0
835,216.18541666666667,217.33333333333334,50.0,76.0
836,216.68541666666667,217.33958333333334,58.0,79.0
837,215.93541666666667,217.34375,43.0,84.0
838,216.68541666666667,217.375,62.0,84.0
839,216.68541666666667,217.37916666666666,65.0,82.0
840,216.43541666666667,217.45,55.0,77.0
841,217.93541666666667,218.54791666666665,60.0,79.0
842,217.93541666666667,218.57083333333333,53.0,77.0
843,218.43541666666667,218.57083333333333,57.0,79.0
844,218.68541666666667,219.04166666666666,53.0,80.0
845,218.18541666666667,219.25,48.0,75.0
846,217.93541666666667,219.2625,41.0,84.0
847,219.18541666666667,219.44583333333333,53.0,85.0
848,219.18541666666667,219.45208333333332,60.0,83.0
849,218.68541666666667,219.5,65.0,87.0
850,219.93541666666667,220.2125,58.0,76.0
851,219.93541666666667,220.49375,62.0,81.0
852,220.43541666666667,220.54375,58.0,81.0
853,220.68541666666667,221.41458333333333,58.0,86.0
854,220.68541666666667,221.70416666666665,65.0,84.0
855,219.93541666666667,221.78125,46.0,84.0
856,220.18541666666667,222.0625,53.0,72.0
857,221.93541666666667,222.26458333333332,57.0,79.0
858,221.93541666666667,222.525,65.0,84.0
859,222.43541666666667,222.5875,57.0,83.0
860,222.68541666666667,223.25208333333333,60.0,89.0
861,221.93541666666667,223.32083333333333,45.0,84.0
862,222.68541666666667,223.34791666666666,57.0,85.0
863,222.18541666666667,223.37291666666667,53.0,75.0
864,222.68541666666667,223.87083333333334,65.0,84.0
865,223.83958333333334,224.25,62.0,77.0
866,223.87291666666667,224.26041666666666,38.0,86.0
867,223.7875,224.3375,57.0,70.0
868,223.91458333333333,224.63125,65.0,79.0
869,224.88125,225.4625,43.0,84.0
870,224.76458333333332,225.76666666666665,55.0,73.0
871,224.82708333333332,225.8125,58.0,78.0
872,224.91666666666666,225.90833333333333,62.0,80.0
873,226.93541666666667,227.5,60.0,83.0
874,226.92916666666667,227.54583333333332,64.0,85.0
875,227.48333333333332,227.86458333333334,67.0,83.0
876,227.94166666666666,228.18125,60.0,69.0
877,226.39166666666665,228.31875,55.0,83.0
878,228.01041666666666,228.3875,64.0,80.0
879,225.92291666666665,228.40833333333333,48.0,87.0
880,228.09791666666666,228.41875,67.0,64.0
881,228.16666666666666,228.50208333333333,72.0,70.0
882,230.38958333333332,230.63125,55.0,68.0
883,230.68125,232.11875,57.0,68.0
884,231.11458333333334,232.2,60.0,58.0
885,230.12083333333334,233.04999999999998,48.0,72.0
886,229.7625,233.05625,41.0,84.0
