,start,end,pitch,velocity
0,23.23046875,23.44921875,69.0,77.0
1,23.46484375,23.626953125,67.0,71.0
2,23.69921875,24.13671875,69.0,79.0
3,24.16796875,24.37109375,67.0,68.0
4,24.40234375,25.103515625,69.0,76.0
5,25.10546875,25.36328125,67.0,68.0
6,25.33984375,26.0390625,69.0,78.0
7,26.04296875,26.310546875,67.0,71.0
8,26.27734375,28.275390625,69.0,74.0
9,30.73046875,30.93359375,69.0,72.0
10,30.96484375,31.142578125,67.0,69.0
11,31.19921875,31.673828125,69.0,78.0
12,31.66796875,31.9140625,67.0,69.0
13,31.90234375,32.630859375,69.0,73.0
14,32.60546875,32.85546875,67.0,66.0
15,32.83984375,33.5625,69.0,78.0
16,33.54296875,33.767578125,72.0,75.0
17,33.77734375,35.689453125,69.0,73.0
18,36.35546875,37.66796875,67.0,68.0
19,38.23046875,38.44921875,69.0,77.0
20,38.46484375,38.626953125,67.0,71.0
21,38.69921875,39.13671875,69.0,79.0
22,39.16796875,39.37109375,67.0,68.0
23,39.40234375,40.103515625,69.0,76.0
24,40.10546875,40.36328125,67.0,68.0
25,40.33984375,41.0390625,69.0,78.0
26,41.04296875,41.310546875,72.0,71.0
27,41.27734375,43.275390625,69.0,74.0
28,45.73046875,45.93359375,69.0,72.0
29,45.96484375,46.142578125,67.0,69.0
30,46.19921875,46.673828125,69.0,78.0
31,46.66796875,46.9140625,67.0,69.0
32,46.90234375,47.630859375,69.0,73.0
33,47.60546875,47.85546875,67.0,66.0
34,47.83984375,48.5625,74.0,78.0
35,48.54296875,48.767578125,72.0,75.0
36,48.77734375,50.689453125,67.0,73.0
37,52.29296875,52.765625,65.0,81.0
38,52.76171875,54.060546875,74.0,88.0
39,54.16796875,54.5625,74.0,91.0
40,54.63671875,55.056640625,76.0,83.0
41,55.10546875,55.294921875,77.0,73.0
42,55.33984375,55.796875,76.0,86.0
43,55.80859375,56.046875,72.0,78.0
44,56.04296875,56.31640625,69.0,77.0
45,56.27734375,57.439453125,72.0,79.0
46,58.15234375,58.330078125,69.0,78.0
47,58.38671875,58.771484375,74.0,84.0
48,58.85546875,59.04296875,69.0,78.0
49,59.08984375,59.78515625,67.0,64.0
50,59.79296875,59.974609375,69.0,72.0
51,60.02734375,60.7421875,70.0,76.0
52,60.73046875,60.9609375,69.0,77.0
53,60.96484375,61.6640625,70.0,77.0
54,61.66796875,61.919921875,69.0,77.0
55,61.90234375,62.638671875,70.0,80.0
56,62.60546875,62.80859375,69.0,77.0
57,62.83984375,63.556640625,72.0,78.0
58,63.54296875,63.7890625,65.0,77.0
59,63.77734375,65.794921875,69.0,72.0
60,66.82421875,67.0234375,65.0,77.0
61,67.05859375,67.298828125,64.0,83.0
62,67.29296875,67.529296875,65.0,79.0
63,67.52734375,69.107421875,74.0,83.0
64,69.40234375,69.623046875,74.0,88.0
65,69.63671875,70.099609375,79.0,79.0
66,70.10546875,70.35546875,77.0,70.0
67,70.33984375,70.849609375,76.0,79.0
68,70.80859375,71.044921875,72.0,73.0
69,71.04296875,71.310546875,69.0,72.0
70,71.27734375,72.40625,72.0,78.0
71,72.91796875,74.18359375,77.0,75.0
72,74.32421875,74.80859375,67.0,78.0
73,74.79296875,74.939453125,69.0,74.0
74,75.02734375,75.44140625,69.0,80.0
75,75.49609375,75.671875,70.0,75.0
76,75.73046875,76.10546875,70.0,76.0
77,76.19921875,76.609375,69.0,77.0
78,76.66796875,76.810546875,65.0,77.0
79,76.90234375,77.322265625,69.0,81.0
80,77.37109375,77.51171875,70.0,78.0
81,77.60546875,78.021484375,70.0,75.0
82,78.07421875,78.51171875,69.0,77.0
83,78.54296875,78.75390625,65.0,76.0
84,78.77734375,81.03515625,72.0,77.0
85,82.29296875,82.482421875,74.0,86.0
86,82.52734375,82.701171875,76.0,79.0
87,82.76171875,83.125,77.0,77.0
88,83.23046875,83.357421875,69.0,81.0
89,83.46484375,84.013671875,69.0,78.0
90,84.16796875,84.310546875,77.0,77.0
91,84.40234375,85.080078125,76.0,78.0
92,85.10546875,85.236328125,69.0,78.0
93,85.33984375,85.94921875,69.0,79.0
94,86.04296875,86.189453125,76.0,78.0
95,86.27734375,86.939453125,74.0,78.0
96,86.98046875,87.1171875,65.0,78.0
97,87.21484375,87.87109375,65.0,79.0
98,87.91796875,88.087890625,74.0,81.0
99,88.15234375,89.49609375,72.0,78.0
100,89.79296875,89.908203125,74.0,83.0
101,90.02734375,90.1796875,76.0,81.0
102,90.26171875,90.625,77.0,78.0
103,90.73046875,90.8515625,69.0,78.0
104,90.96484375,91.5703125,69.0,77.0
105,91.66796875,91.80078125,77.0,78.0
106,91.90234375,92.630859375,76.0,79.0
107,92.60546875,92.73046875,67.0,77.0
108,92.83984375,93.443359375,67.0,75.0
109,93.54296875,93.69140625,76.0,77.0
110,93.77734375,95.8359375,74.0,78.0
111,97.29296875,97.419921875,74.0,78.0
112,97.52734375,97.7265625,72.0,77.0
113,97.76171875,98.158203125,70.0,80.0
114,98.23046875,98.4140625,72.0,78.0
115,98.46484375,99.11328125,74.0,84.0
116,99.16796875,99.3046875,77.0,77.0
117,99.40234375,99.80859375,77.0,77.0
118,99.87109375,100.703125,76.0,78.0
119,101.04296875,101.205078125,72.0,77.0
120,101.27734375,101.505859375,70.0,76.0
121,101.51171875,101.919921875,69.0,78.0
122,101.98046875,102.171875,70.0,78.0
123,102.21484375,102.87890625,72.0,80.0
124,102.91796875,103.0390625,79.0,79.0
125,103.15234375,103.568359375,79.0,77.0
126,103.62109375,104.41796875,77.0,68.0
127,105.26171875,105.44140625,70.0,77.0
128,105.49609375,105.7109375,72.0,72.0
129,105.73046875,105.8984375,70.0,78.0
130,105.96484375,106.1796875,72.0,69.0
131,106.19921875,106.650390625,70.0,78.0
132,106.66796875,106.87109375,69.0,76.0
133,106.90234375,107.361328125,70.0,78.0
134,107.37109375,107.623046875,72.0,72.0
135,107.60546875,107.8046875,70.0,73.0
136,107.83984375,108.06640625,72.0,73.0
137,108.07421875,108.546875,70.0,79.0
138,108.54296875,109.037109375,69.0,73.0
139,109.01171875,111.24609375,72.0,79.0
140,112.29296875,112.482421875,74.0,86.0
141,112.52734375,112.701171875,76.0,79.0
142,112.76171875,113.125,77.0,77.0
143,113.23046875,113.357421875,69.0,81.0
144,113.46484375,114.013671875,69.0,78.0
145,114.16796875,114.310546875,77.0,77.0
146,114.40234375,115.080078125,76.0,78.0
147,115.10546875,115.236328125,69.0,78.0
148,115.33984375,115.94921875,69.0,79.0
149,116.04296875,116.189453125,76.0,78.0
150,116.27734375,116.939453125,74.0,78.0
151,116.98046875,117.1171875,65.0,78.0
152,117.21484375,117.87109375,65.0,79.0
153,117.91796875,118.087890625,74.0,81.0
154,118.15234375,119.49609375,72.0,78.0
155,119.79296875,119.908203125,74.0,83.0
156,120.02734375,120.1796875,76.0,81.0
157,120.26171875,120.625,77.0,78.0
158,120.73046875,120.8515625,69.0,78.0
159,120.96484375,121.5703125,69.0,77.0
160,121.66796875,121.80078125,77.0,78.0
161,121.90234375,122.630859375,76.0,79.0
162,122.60546875,122.73046875,67.0,77.0
163,122.83984375,123.443359375,67.0,75.0
164,123.54296875,123.69140625,76.0,77.0
165,123.77734375,125.8359375,74.0,78.0
166,127.29296875,127.419921875,74.0,78.0
167,127.52734375,127.7265625,72.0,77.0
168,127.76171875,128.158203125,70.0,80.0
169,128.23046875,128.4140625,72.0,78.0
170,128.46484375,129.11328125,74.0,84.0
171,129.16796875,129.3046875,77.0,77.0
172,129.40234375,129.80859375,77.0,77.0
173,129.87109375,130.5703125,76.0,78.0
174,130.57421875,131.0390625,74.0,78.0
175,131.04296875,131.205078125,72.0,77.0
176,131.27734375,131.505859375,70.0,76.0
177,131.51171875,131.919921875,69.0,78.0
178,131.98046875,132.171875,70.0,78.0
179,132.21484375,132.87890625,72.0,80.0
180,132.91796875,133.0390625,79.0,79.0
181,133.15234375,133.568359375,79.0,77.0
182,133.62109375,134.41796875,77.0,68.0
183,135.26171875,135.658203125,74.0,83.0
184,135.73046875,135.951171875,76.0,79.0
185,135.96484375,136.533203125,77.0,78.0
186,136.66796875,136.8203125,65.0,80.0
187,136.90234375,137.333984375,65.0,77.0
188,137.37109375,138.076171875,69.0,77.0
189,138.07421875,138.82421875,67.0,78.0
190,138.77734375,138.9453125,65.0,69.0
191,139.01171875,142.474609375,65.0,78.0
192,156.82421875,157.0234375,65.0,77.0
193,157.05859375,157.298828125,64.0,83.0
194,157.29296875,157.529296875,65.0,79.0
195,157.52734375,159.107421875,74.0,83.0
196,159.40234375,159.623046875,74.0,88.0
197,159.63671875,160.099609375,79.0,79.0
198,160.10546875,160.35546875,77.0,70.0
199,160.33984375,160.849609375,76.0,79.0
200,160.80859375,161.044921875,72.0,73.0
201,161.04296875,161.310546875,69.0,72.0
202,161.27734375,162.40625,72.0,78.0
203,162.91796875,164.18359375,77.0,75.0
204,164.32421875,164.80859375,67.0,78.0
205,164.79296875,164.939453125,69.0,74.0
206,165.02734375,165.44140625,69.0,80.0
207,165.49609375,165.671875,70.0,75.0
208,165.73046875,166.10546875,70.0,76.0
209,166.19921875,166.609375,69.0,77.0
210,166.66796875,166.810546875,65.0,77.0
211,166.90234375,167.322265625,69.0,81.0
212,167.37109375,167.51171875,70.0,78.0
213,167.60546875,168.021484375,70.0,75.0
214,168.07421875,168.51171875,69.0,77.0
215,168.54296875,168.75390625,65.0,76.0
216,168.77734375,171.03515625,72.0,77.0
217,172.29296875,172.482421875,74.0,86.0
218,172.52734375,172.701171875,76.0,79.0
219,172.76171875,173.125,77.0,77.0
220,173.23046875,173.357421875,69.0,81.0
221,173.46484375,174.013671875,69.0,78.0
222,174.16796875,174.310546875,77.0,77.0
223,174.40234375,175.080078125,76.0,78.0
224,175.10546875,175.236328125,69.0,78.0
225,175.33984375,175.94921875,69.0,79.0
226,176.04296875,176.189453125,76.0,78.0
227,176.27734375,176.939453125,74.0,78.0
228,176.98046875,177.1171875,65.0,78.0
229,177.21484375,177.87109375,65.0,79.0
230,177.91796875,178.087890625,74.0,81.0
231,178.15234375,179.49609375,72.0,78.0
232,179.79296875,179.908203125,74.0,83.0
233,180.02734375,180.1796875,76.0,81.0
234,180.26171875,180.625,77.0,78.0
235,180.73046875,180.8515625,69.0,78.0
236,180.96484375,181.5703125,69.0,77.0
237,181.66796875,181.80078125,77.0,78.0
238,181.90234375,182.630859375,76.0,79.0
239,182.60546875,182.73046875,67.0,77.0
240,182.83984375,183.443359375,67.0,75.0
241,183.54296875,183.69140625,76.0,77.0
242,183.77734375,185.8359375,74.0,78.0
243,187.29296875,187.419921875,74.0,78.0
244,187.52734375,187.7265625,72.0,77.0
245,187.76171875,188.158203125,70.0,80.0
246,188.23046875,188.4140625,72.0,78.0
247,188.46484375,189.11328125,74.0,84.0
248,189.16796875,189.3046875,77.0,77.0
249,189.40234375,189.80859375,77.0,77.0
250,189.87109375,190.703125,76.0,78.0
251,191.04296875,191.205078125,72.0,77.0
252,191.27734375,191.505859375,70.0,76.0
253,191.51171875,191.919921875,69.0,78.0
254,191.98046875,192.171875,70.0,78.0
255,192.21484375,192.87890625,72.0,80.0
256,192.91796875,193.0390625,79.0,79.0
257,193.15234375,193.568359375,79.0,77.0
258,193.62109375,194.41796875,77.0,68.0
259,195.26171875,195.44140625,70.0,77.0
260,195.49609375,195.7109375,72.0,72.0
261,195.73046875,195.8984375,70.0,78.0
262,195.96484375,196.1796875,72.0,69.0
263,196.19921875,196.650390625,70.0,78.0
264,196.66796875,196.87109375,69.0,76.0
265,196.90234375,197.361328125,70.0,78.0
266,197.37109375,197.623046875,72.0,72.0
267,197.60546875,197.8046875,70.0,73.0
268,197.83984375,198.06640625,72.0,73.0
269,198.07421875,198.546875,70.0,79.0
270,198.54296875,199.037109375,69.0,73.0
271,199.01171875,201.24609375,72.0,79.0
272,202.29296875,202.482421875,74.0,86.0
273,202.52734375,202.701171875,76.0,79.0
274,202.76171875,203.125,77.0,77.0
275,203.23046875,203.357421875,69.0,81.0
276,203.46484375,204.013671875,69.0,78.0
277,204.16796875,204.310546875,77.0,77.0
278,204.40234375,205.080078125,76.0,78.0
279,205.10546875,205.236328125,69.0,78.0
280,205.33984375,205.94921875,69.0,79.0
281,206.04296875,206.189453125,76.0,78.0
282,206.27734375,206.939453125,74.0,78.0
283,206.98046875,207.1171875,65.0,78.0
284,207.21484375,207.87109375,65.0,79.0
285,207.91796875,208.087890625,74.0,81.0
286,208.15234375,209.49609375,72.0,78.0
287,209.79296875,209.908203125,74.0,83.0
288,210.02734375,210.1796875,76.0,81.0
289,210.26171875,210.625,77.0,78.0
290,210.73046875,210.8515625,69.0,78.0
291,210.96484375,211.5703125,69.0,77.0
292,211.66796875,211.80078125,77.0,78.0
293,211.90234375,212.630859375,76.0,79.0
294,212.60546875,212.73046875,67.0,77.0
295,212.83984375,213.443359375,67.0,75.0
296,213.54296875,213.69140625,76.0,77.0
297,213.77734375,215.8359375,74.0,78.0
298,217.29296875,217.419921875,74.0,78.0
299,217.52734375,217.7265625,72.0,77.0
300,217.76171875,218.158203125,70.0,80.0
301,218.23046875,218.4140625,72.0,78.0
302,218.46484375,219.11328125,74.0,84.0
303,219.16796875,219.3046875,77.0,77.0
304,219.40234375,219.80859375,77.0,77.0
305,219.87109375,220.5703125,76.0,78.0
306,220.57421875,221.0390625,74.0,78.0
307,221.04296875,221.205078125,72.0,77.0
308,221.27734375,221.505859375,70.0,76.0
309,221.51171875,221.919921875,69.0,78.0
310,221.98046875,222.171875,70.0,78.0
311,222.21484375,222.87890625,72.0,80.0
312,222.91796875,223.0390625,79.0,79.0
313,223.15234375,223.568359375,79.0,77.0
314,223.62109375,224.41796875,77.0,68.0
315,225.26171875,225.658203125,74.0,83.0
316,225.73046875,225.951171875,76.0,79.0
317,225.96484375,226.533203125,77.0,78.0
318,226.66796875,226.8203125,65.0,80.0
319,226.90234375,227.333984375,65.0,77.0
320,227.37109375,228.076171875,69.0,77.0
321,228.07421875,228.82421875,67.0,78.0
322,228.77734375,228.9453125,65.0,69.0
323,229.01171875,232.474609375,65.0,78.0
324,243.54296875,243.669921875,74.0,78.0
325,243.77734375,243.9765625,72.0,77.0
326,244.01171875,244.408203125,70.0,80.0
327,244.48046875,244.6640625,72.0,78.0
328,244.71484375,245.36328125,74.0,84.0
329,245.41796875,245.5546875,77.0,77.0
330,245.65234375,246.05859375,77.0,77.0
331,246.12109375,246.8203125,76.0,78.0
332,246.82421875,247.2890625,74.0,78.0
333,247.29296875,247.455078125,72.0,77.0
334,247.52734375,247.755859375,70.0,76.0
335,247.76171875,248.169921875,69.0,78.0
336,248.23046875,248.421875,70.0,78.0
337,248.46484375,249.12890625,72.0,80.0
338,249.16796875,249.2890625,79.0,79.0
339,249.40234375,249.818359375,79.0,77.0
340,249.87109375,250.66796875,77.0,68.0
341,251.51171875,251.908203125,74.0,83.0
342,251.98046875,252.201171875,76.0,79.0
343,252.21484375,252.783203125,77.0,78.0
344,252.91796875,253.0703125,65.0,80.0
345,253.15234375,253.583984375,65.0,77.0
346,253.62109375,254.326171875,69.0,77.0
347,254.32421875,255.07421875,67.0,78.0
348,255.02734375,255.1953125,65.0,69.0
349,255.26171875,258.724609375,65.0,78.0
350,259.029296875,259.548828125,74.0,91.0
351,259.509765625,259.873046875,76.0,78.0
352,259.828125,260.65234375,77.0,70.0
353,260.59765625,260.90234375,65.0,77.0
354,261.0625,261.6015625,65.0,73.0
355,261.642578125,264.001953125,69.0,72.0
356,265.95703125,266.796875,67.0,75.0
357,266.76953125,267.259765625,65.0,73.0
358,267.353515625,270.4879800854167,65.0,73.0
