,start,end,pitch,velocity
0,16.774983225000003,17.083911487500004,65.0,93.0
1,17.203554225,17.342839800000004,65.0,83.0
2,17.417839725000004,17.723196562500004,65.0,86.0
3,17.846410725000002,18.316053112500004,68.0,84.0
4,18.489267225000003,18.807124050000002,68.0,84.0
5,18.917838225000004,19.053552375000002,66.0,82.0
6,19.132123725000003,19.717837425000003,66.0,83.0
7,20.203551225000002,20.469622387500003,63.0,84.0
8,20.632122225000003,20.757122100000004,63.0,82.0
9,20.846407725000002,21.142836000000003,63.0,83.0
10,21.274978725000004,21.585692700000003,66.0,84.0
11,21.917835225000005,22.346406225000003,66.0,84.0
12,22.346406225000003,22.466048962500004,65.0,86.0
13,22.560691725,23.246405325,65.0,84.0
14,23.632119225000004,23.93569035,61.0,85.0
15,24.060690225000002,24.20711865,61.0,82.0
16,24.274975725000004,24.580332562500004,61.0,83.0
17,24.703546725000002,25.224974775000003,65.0,83.0
18,25.346403225000003,25.664260050000003,65.0,86.0
19,25.774974225000005,25.903545525000002,63.0,82.0
20,25.989259725000004,26.541044887500004,63.0,84.0
21,26.846401725000003,26.992830150000003,58.0,82.0
22,27.060687225000002,27.355329787500004,61.0,84.0
23,27.489258225000004,27.624972375000002,61.0,80.0
24,27.703543725000003,28.037471962500003,61.0,83.0
25,28.132114725000005,28.560685725000003,63.0,83.0
26,29.203542225000003,29.364256350000005,61.0,76.0
27,29.417827725000002,29.569613287500005,56.0,78.0
28,28.560685725000003,29.632113225000005,63.0,82.0
29,29.632113225000005,29.919612937500006,65.0,82.0
30,30.060684225000003,30.362469637500006,65.0,83.0
31,30.489255225000004,30.798183487500005,65.0,93.0
32,30.917826225000002,31.057111800000005,65.0,83.0
33,31.132111725000005,31.437468562500005,65.0,86.0
34,31.560682725000003,32.0303251125,68.0,84.0
35,32.20353922500001,32.52139605000001,68.0,84.0
36,32.632110225000005,32.767824375000004,66.0,82.0
37,32.84639572500001,33.43210942500001,66.0,83.0
38,33.91782322500001,34.183894387500004,63.0,84.0
39,34.346394225000004,34.471394100000005,63.0,82.0
40,34.56067972500001,34.857108000000004,63.0,83.0
41,34.989250725000005,35.299964700000004,66.0,84.0
42,35.632107225000006,36.060678225000004,66.0,84.0
43,36.060678225000004,36.180320962500005,65.0,86.0
44,36.274963725000006,36.960677325000006,65.0,84.0
45,37.346391225000005,37.64996235,61.0,85.0
46,37.774962225,37.921390650000006,61.0,82.0
47,37.989247725000006,38.294604562500005,61.0,83.0
48,38.417818725000004,38.93924677500001,65.0,83.0
49,39.060675225000004,39.378532050000004,65.0,86.0
50,39.489246225,39.61781752500001,63.0,82.0
51,39.703531725000005,40.25531688750001,63.0,84.0
52,40.56067372500001,40.707102150000004,58.0,82.0
53,40.774959225,41.069601787500005,61.0,84.0
54,41.20353022500001,41.33924437500001,61.0,80.0
55,41.417815725000004,41.75174396250001,65.0,83.0
56,41.846386725,42.27495772500001,63.0,83.0
57,42.27495772500001,43.346385225000006,61.0,82.0
58,43.56067072500001,43.669599187500005,70.0,82.0
59,43.774956225000004,43.974956025000004,70.0,83.0
60,43.98924172500001,44.14102728750001,69.0,82.0
61,44.20352722500001,44.319598537500006,70.0,79.0
62,44.417812725000005,44.53924117500001,70.0,80.0
63,44.63209822500001,44.78745521250001,70.0,82.0
64,44.846383725,44.973169312500005,68.0,81.0
65,45.060669225000005,45.198169087500006,70.0,83.0
66,45.27495472500001,45.391026037500005,70.0,80.0
67,45.489240225,45.64995435000001,70.0,83.0
68,45.703525725000006,45.828525600000006,68.0,82.0
69,45.91781122500001,46.232096625000004,70.0,82.0
70,46.346382225000006,46.514239200000006,68.0,81.0
71,46.56066772500001,46.88388168750001,73.0,83.0
72,46.98923872500001,47.442809700000005,70.0,85.0
73,47.846380725,47.96245203750001,70.0,84.0
74,48.060666225000006,48.216023212500005,70.0,79.0
75,48.27495172500001,48.4017373125,68.0,71.0
76,48.489237225000004,48.614237100000004,70.0,82.0
77,48.703522725000006,48.8195940375,70.0,78.0
78,48.91780822500001,49.058879512500006,70.0,80.0
79,49.132093725000004,49.24637932500001,68.0,80.0
80,49.34637922500001,49.46602196250001,70.0,83.0
81,49.56066472500001,49.72673598750001,70.0,78.0
82,49.774950225000005,49.917807225000004,68.0,78.0
83,49.98923572500001,50.19102123750001,65.0,86.0
84,50.417806725000005,50.53744946250001,70.0,82.0
85,50.63209222500001,50.78209207500001,70.0,81.0
86,50.846377725,50.983877587500004,68.0,81.0
87,51.060663225000006,51.19280595000001,70.0,86.0
88,51.27494872500001,51.60530553750001,70.0,82.0
89,51.70351972500001,51.82316246250001,70.0,85.0
90,51.91780522500001,52.04637652500001,70.0,82.0
91,52.132090725000005,52.262447737500004,70.0,81.0
92,52.34637622500001,52.49637607500001,70.0,82.0
93,52.56066172500001,52.69637587500001,68.0,78.0
94,52.774947225000005,52.98923272500001,70.0,84.0
95,53.20351822500001,53.34994665000001,68.0,83.0
96,53.417803725000006,53.76423195000001,73.0,88.0
97,53.846374725000004,54.258874312500005,70.0,83.0
98,54.27494572500001,54.41780272500001,68.0,75.0
99,54.489231225000005,54.646373925000006,68.0,79.0
100,54.70351672500001,54.839230875000005,70.0,82.0
101,54.91780222500001,55.064230650000006,73.0,81.0
102,55.132087725000005,55.27315901250001,75.0,83.0
103,55.34637322500001,55.855301287500005,77.0,84.0
104,55.98922972500001,56.35172936250001,75.0,84.0
105,56.417800725000006,56.55887201250001,73.0,79.0
106,56.63208622500001,57.06065722500001,70.0,80.0
107,57.27494272500001,57.389228325000005,70.0,81.0
108,57.489228225000005,57.65529948750001,70.0,83.0
109,57.70351372500001,57.839227875000006,68.0,77.0
110,57.91779922500001,58.05887051250001,70.0,84.0
111,58.132084725000006,58.26779887500001,68.0,82.0
112,58.34637022500001,58.54815573750001,70.0,80.0
113,58.774941225000006,58.93744106250001,70.0,83.0
114,58.98922672500001,59.12494087500001,68.0,82.0
115,59.203512225000004,59.43386913750001,70.0,84.0
116,59.63208322500001,59.79279735000001,70.0,83.0
117,59.846368725000005,59.971368600000005,68.0,80.0
118,60.06065422500001,60.29993970000001,70.0,82.0
119,60.489225225000006,60.657082200000005,70.0,77.0
120,60.70351072500001,60.814224900000006,68.0,81.0
121,60.91779622500001,61.12672458750001,70.0,83.0
122,61.34636722500001,61.48386708750001,70.0,85.0
123,61.56065272500001,61.66600976250001,68.0,78.0
124,61.77493822500001,61.96958088750001,70.0,85.0
125,62.203509225000005,62.33743766250001,70.0,82.0
126,62.41779472500001,62.54279460000001,68.0,83.0
127,62.63208022500001,62.79458006250001,70.0,81.0
128,63.06065122500001,63.18565110000001,70.0,84.0
129,63.27493672500001,63.39636517500001,68.0,81.0
130,63.489222225000006,63.68565060000001,70.0,84.0
131,63.70350772500001,63.82315046250001,68.0,78.0
132,63.91779322500001,64.03207882500001,70.0,83.0
133,64.13207872500001,64.23565005,68.0,78.0
134,64.346364225,64.45886411250001,70.0,83.0
135,64.560649725,64.6856496,70.0,82.0
136,64.77493522500001,65.0517206625,73.0,87.0
137,65.20350622500001,65.41779172500001,70.0,86.0
138,65.41779172500001,65.75350567500001,73.0,73.0
139,66.06064822500001,66.1767195375,75.0,82.0
140,66.27493372500001,66.917790225,75.0,93.0
141,66.917790225,67.0374329625,73.0,83.0
142,67.132075725,67.65171806250001,73.0,83.0
143,67.56064672500001,67.98743201250001,75.0,89.0
144,68.203503225,70.38921532500001,77.0,86.0
145,71.632071225,71.88385668750001,77.0,76.0
146,72.06064222500001,72.19635637500001,77.0,84.0
147,72.27492772500001,72.58564170000001,77.0,87.0
148,72.703498725,73.25528388750001,78.0,85.0
149,73.34635522500001,73.6588549125,77.0,84.0
150,73.77492622500002,73.88742611250001,75.0,83.0
151,73.989211725,74.374925625,75.0,93.0
152,74.63206822500001,74.76063952500002,72.0,87.0
153,74.84635372500001,74.95706790000001,70.0,88.0
154,75.060639225,75.37671033750001,68.0,84.0
155,75.48921022500001,75.62313866250001,68.0,82.0
156,75.70349572500001,76.29456656250001,75.0,87.0
157,76.346352225,76.65349477500001,77.0,84.0
158,76.77492322500001,77.10706575,75.0,93.0
159,77.20349422500001,77.31777982500002,73.0,83.0
160,77.41777972500002,77.7267079875,73.0,83.0
161,78.48920722500002,78.80884976250002,70.0,85.0
162,78.917778225,79.06420665000002,72.0,84.0
163,79.13206372500001,79.72313456250001,73.0,83.0
164,79.989205725,80.10170561250001,73.0,84.0
165,80.20349122500001,80.52670518750001,73.0,85.0
166,80.63206222500001,80.97313331250001,72.0,87.0
167,81.060633225,81.40349002500001,70.0,84.0
168,81.48920422500001,81.79456106250001,72.0,85.0
169,81.91777522500001,82.68206017500002,70.0,84.0
170,82.77491722500001,83.4267022875,68.0,83.0
171,83.632059225,84.33920137500002,78.0,74.0
172,84.48920122500002,85.06777207500001,77.0,89.0
173,85.34634322500001,85.65170006250001,77.0,88.0
174,85.77491422500002,85.9088426625,77.0,86.0
175,85.989199725,86.30169941250001,77.0,87.0
176,86.41777072500001,86.92669878750002,82.0,86.0
177,87.060627225,87.39455546250001,82.0,83.0
178,87.48919822500001,87.60884096250001,80.0,82.0
179,87.70348372500001,88.27312601250001,80.0,83.0
180,88.346340225,88.49812578750002,72.0,83.0
181,88.56062572500001,88.65526848750001,73.0,85.0
182,88.77491122500001,89.05526808750001,75.0,89.0
183,89.20348222500002,89.31955353750001,68.0,84.0
184,89.41776772500002,89.76598166250001,68.0,85.0
185,89.84633872500001,90.38026676250001,80.0,85.0
186,90.48919522500002,91.39276575000001,78.0,83.0
187,92.20347922500001,92.55347887500001,70.0,86.0
188,92.63205022500001,92.77847865000001,72.0,84.0
189,92.84633572500002,93.50169221250002,73.0,83.0
190,93.70347772500001,93.84812043750001,73.0,80.0
191,93.91776322500002,94.21597721250001,77.0,88.0
192,94.346334225,94.64990535000001,75.0,87.0
193,94.77490522500001,95.16419055000001,70.0,84.0
194,95.20347622500002,95.55347587500002,72.0,84.0
195,95.63204722500001,97.06954578750002,73.0,83.0
196,109.34631922500002,109.65524748750002,65.0,93.0
197,109.77489022500002,109.91417580000001,65.0,83.0
198,109.98917572500001,110.29453256250001,65.0,86.0
199,110.41774672500001,110.88738911250002,68.0,84.0
200,111.06060322500001,111.37846005000002,68.0,84.0
201,111.48917422500001,111.62488837500001,66.0,82.0
202,111.70345972500002,112.28917342500002,66.0,83.0
203,112.77488722500001,113.04095838750001,63.0,84.0
204,113.20345822500002,113.32845810000002,63.0,82.0
205,113.41774372500001,113.71417200000002,63.0,83.0
206,113.84631472500001,114.15702870000001,66.0,84.0
207,114.48917122500002,114.91774222500001,66.0,84.0
208,114.91774222500001,115.03738496250001,65.0,86.0
209,115.13202772500001,115.81774132500001,65.0,84.0
210,116.20345522500001,116.50702635000002,61.0,85.0
211,116.63202622500002,116.77845465000001,61.0,82.0
212,116.84631172500002,117.15166856250002,61.0,83.0
213,117.27488272500001,117.79631077500001,65.0,83.0
214,117.91773922500002,118.23559605000001,65.0,86.0
215,118.34631022500001,118.47488152500001,63.0,82.0
216,118.56059572500001,119.11238088750001,63.0,84.0
217,119.41773772500001,119.56416615000002,58.0,82.0
218,119.63202322500001,119.92666578750001,61.0,84.0
219,120.06059422500002,120.19630837500002,61.0,80.0
220,120.27487972500002,120.60880796250001,61.0,83.0
221,120.70345072500001,121.13202172500002,63.0,83.0
222,121.77487822500001,121.93559235000002,61.0,76.0
223,121.98916372500001,122.14094928750002,56.0,78.0
224,121.13202172500002,122.20344922500001,63.0,82.0
225,122.20344922500001,122.49094893750002,65.0,82.0
226,122.63202022500002,122.93380563750001,65.0,83.0
227,123.06059122500001,123.36951948750001,65.0,93.0
228,123.48916222500002,123.62844780000002,65.0,83.0
229,123.70344772500002,124.00880456250002,65.0,86.0
230,124.13201872500002,124.60166111250001,68.0,84.0
231,124.77487522500002,125.09273205000001,68.0,84.0
232,125.20344622500002,125.33916037500002,66.0,82.0
233,125.41773172500001,126.00344542500001,66.0,83.0
234,126.48915922500002,126.75523038750002,63.0,84.0
235,126.91773022500001,127.04273010000001,63.0,82.0
236,127.13201572500002,127.42844400000001,63.0,83.0
237,127.56058672500002,127.87130070000002,66.0,84.0
238,128.20344322500003,128.632014225,66.0,84.0
239,128.632014225,128.75165696250002,65.0,86.0
240,128.84629972500002,129.532013325,65.0,84.0
241,129.91772722500002,130.22129835,61.0,85.0
242,130.34629822500003,130.49272665,61.0,82.0
243,130.56058372500001,130.86594056250001,61.0,83.0
244,130.98915472500002,131.51058277500002,65.0,83.0
245,131.632011225,131.94986805000002,65.0,86.0
246,132.06058222500002,132.18915352500002,63.0,82.0
247,132.274867725,132.82665288750002,63.0,84.0
248,133.13200972500002,133.27843815000003,58.0,82.0
249,133.346295225,133.6409377875,61.0,84.0
250,133.774866225,133.91058037500002,61.0,80.0
251,133.98915172500003,134.32307996250003,65.0,83.0
252,134.417722725,134.846293725,63.0,83.0
253,134.846293725,135.917721225,61.0,82.0
254,136.13200672500002,136.2409351875,70.0,82.0
255,136.346292225,136.546292025,70.0,83.0
256,136.56057772500003,136.7123632875,69.0,82.0
257,136.77486322500002,136.89093453750002,70.0,79.0
258,136.989148725,137.11057717500003,70.0,80.0
259,137.20343422500002,137.35879121250002,70.0,82.0
260,137.417719725,137.5445053125,68.0,81.0
261,137.63200522500003,137.76950508750002,70.0,83.0
262,137.84629072500002,137.96236203750001,70.0,80.0
263,138.060576225,138.22129035000003,70.0,83.0
264,138.27486172500002,138.3998616,68.0,82.0
265,138.489147225,138.80343262500003,70.0,82.0
266,138.91771822500002,139.08557520000002,68.0,81.0
267,139.132003725,139.4552176875,73.0,83.0
268,139.560574725,140.01414570000003,70.0,85.0
269,140.41771672500002,140.53378803750002,70.0,84.0
270,140.632002225,140.7873592125,70.0,79.0
271,140.84628772500002,140.97307331250002,68.0,71.0
272,141.060573225,141.18557310000003,70.0,82.0
273,141.27485872500003,141.39093003750003,70.0,78.0
274,141.48914422500002,141.63021551250003,70.0,80.0
275,141.703429725,141.81771532500002,68.0,80.0
276,141.91771522500002,142.0373579625,70.0,83.0
277,142.132000725,142.2980719875,70.0,78.0
278,142.34628622500003,142.48914322500002,68.0,78.0
279,142.56057172500002,142.76235723750003,65.0,86.0
280,142.98914272500002,143.1087854625,70.0,82.0
281,143.203428225,143.353428075,70.0,81.0
282,143.41771372500003,143.55521358750002,68.0,81.0
283,143.63199922500002,143.76414195,70.0,86.0
284,143.84628472500003,144.17664153750002,70.0,82.0
285,144.274855725,144.39449846250002,70.0,85.0
286,144.48914122500003,144.61771252500003,70.0,82.0
287,144.703426725,144.83378373750003,70.0,81.0
288,144.91771222500003,145.06771207500003,70.0,82.0
289,145.13199772500002,145.26771187500003,68.0,78.0
290,145.346283225,145.56056872500002,70.0,84.0
291,145.774854225,145.92128265000002,68.0,83.0
292,145.98913972500003,146.33556795,73.0,88.0
293,146.417710725,146.83021031250001,70.0,83.0
294,146.846281725,146.98913872500003,68.0,75.0
295,147.06056722500003,147.217709925,68.0,79.0
296,147.27485272500002,147.41056687500003,70.0,82.0
297,147.48913822500003,147.63556665000002,73.0,81.0
298,147.70342372500002,147.84449501250003,75.0,83.0
299,147.917709225,148.42663728750003,77.0,84.0
300,148.56056572500003,148.9230653625,75.0,84.0
301,148.989136725,149.13020801250002,73.0,79.0
302,149.20342222500003,149.63199322500003,70.0,80.0
303,149.84627872500002,149.960564325,70.0,81.0
304,150.060564225,150.22663548750003,70.0,83.0
305,150.27484972500002,150.410563875,68.0,77.0
306,150.489135225,150.63020651250002,70.0,84.0
307,150.70342072500003,150.839134875,68.0,82.0
308,150.91770622500002,151.11949173750003,70.0,80.0
309,151.34627722500002,151.50877706250003,70.0,83.0
310,151.560562725,151.69627687500002,68.0,82.0
311,151.77484822500003,152.0052051375,70.0,84.0
312,152.20341922500003,152.36413335000003,70.0,83.0
313,152.41770472500002,152.5427046,68.0,80.0
314,152.631990225,152.8712757,70.0,82.0
315,153.06056122500001,153.22841820000002,70.0,77.0
316,153.27484672500003,153.38556090000003,68.0,81.0
317,153.48913222500002,153.6980605875,70.0,83.0
318,153.91770322500003,154.05520308750002,70.0,85.0
319,154.131988725,154.2373457625,68.0,78.0
320,154.34627422500003,154.54091688750003,70.0,85.0
321,154.774845225,154.9087736625,70.0,82.0
322,154.98913072500002,155.1141306,68.0,83.0
323,155.203416225,155.36591606250002,70.0,81.0
324,155.63198722500002,155.75698710000003,70.0,84.0
325,155.84627272500003,155.96770117500003,68.0,81.0
326,156.06055822500002,156.25698660000003,70.0,84.0
327,156.274843725,156.39448646250003,68.0,78.0
328,156.48912922500003,156.60341482500002,70.0,83.0
329,156.70341472500002,156.80698605000003,68.0,78.0
330,156.91770022500003,157.0302001125,70.0,83.0
331,157.13198572500002,157.2569856,70.0,82.0
332,157.346271225,157.62305666250003,73.0,87.0
333,157.77484222500001,157.98912772500003,70.0,86.0
334,157.98912772500003,158.32484167500002,73.0,73.0
335,158.63198422500002,158.74805553750002,75.0,82.0
336,158.846269725,159.489126225,75.0,93.0
337,159.489126225,159.60876896250002,73.0,83.0
338,159.70341172500002,160.2230540625,73.0,83.0
339,160.13198272500003,160.55876801250002,75.0,89.0
340,160.77483922500002,162.960551325,77.0,86.0
341,164.20340722500003,164.45519268750002,77.0,76.0
342,164.631978225,164.76769237500002,77.0,84.0
343,164.84626372500003,165.15697770000003,77.0,87.0
344,165.27483472500003,165.82661988750002,78.0,85.0
345,165.91769122500003,166.23019091250003,77.0,84.0
346,166.34626222500003,166.4587621125,75.0,83.0
347,166.56054772500002,166.94626162500003,75.0,93.0
348,167.203404225,167.33197552500002,72.0,87.0
349,167.41768972500003,167.52840390000003,70.0,88.0
350,167.63197522500002,167.94804633750002,68.0,84.0
351,168.06054622500002,168.19447466250003,68.0,82.0
352,168.274831725,168.86590256250003,75.0,87.0
353,168.91768822500003,169.22483077500002,77.0,84.0
354,169.346259225,169.67840175000003,75.0,93.0
355,169.77483022500002,169.88911582500003,73.0,83.0
356,169.98911572500003,170.29804398750002,73.0,83.0
357,171.06054322500003,171.38018576250002,70.0,85.0
358,171.489114225,171.63554265000002,72.0,84.0
359,171.70339972500003,172.2944705625,73.0,83.0
360,172.56054172500004,172.67304161250001,73.0,84.0
361,172.77482722500002,173.09804118750003,73.0,85.0
362,173.20339822500003,173.5444693125,72.0,87.0
363,173.63196922500003,173.97482602500003,70.0,84.0
364,174.060540225,174.3658970625,72.0,85.0
365,174.48911122500002,175.25339617500003,70.0,84.0
366,175.34625322500003,175.9980382875,68.0,83.0
367,176.20339522500004,176.91053737500002,78.0,74.0
368,177.06053722500002,177.63910807500002,77.0,89.0
369,177.91767922500003,178.22303606250003,77.0,88.0
370,178.34625022500003,178.48017866250004,77.0,86.0
371,178.56053572500002,178.87303541250003,77.0,87.0
372,178.98910672500003,179.49803478750002,82.0,86.0
373,179.63196322500002,179.96589146250002,82.0,83.0
374,180.06053422500003,180.1801769625,80.0,82.0
375,180.27481972500001,180.84446201250003,80.0,83.0
376,180.91767622500004,181.06946178750002,72.0,83.0
377,181.13196172500002,181.22660448750003,73.0,85.0
378,181.346247225,181.62660408750003,75.0,89.0
379,181.77481822500002,181.89088953750002,68.0,84.0
380,181.98910372500004,182.33731766250003,68.0,85.0
381,182.417674725,182.95160276250002,80.0,85.0
382,183.06053122500003,183.96410175000003,78.0,83.0
383,184.77481522500003,185.12481487500003,70.0,86.0
384,185.20338622500003,185.34981465,72.0,84.0
385,185.41767172500002,186.07302821250002,73.0,83.0
386,186.27481372500003,186.41945643750003,73.0,80.0
387,186.48909922500002,186.78731321250004,77.0,88.0
388,186.91767022500002,187.22124135,75.0,87.0
389,187.34624122500003,187.73552655000003,70.0,84.0
390,187.77481222500003,188.12481187500003,72.0,84.0
391,188.20338322500004,189.64088178750004,73.0,83.0
392,217.34621122500002,217.59799668750003,77.0,76.0
393,217.77478222500002,217.91049637500004,77.0,84.0
394,217.98906772500004,218.29978170000004,77.0,87.0
395,218.41763872500002,218.96942388750003,78.0,85.0
396,219.06049522500004,219.37299491250002,77.0,84.0
397,219.48906622500002,219.60156611250002,75.0,83.0
398,219.70335172500003,220.08906562500002,75.0,93.0
399,220.34620822500003,220.47477952500003,72.0,87.0
400,220.56049372500001,220.67120790000004,70.0,88.0
401,220.77477922500003,221.09085033750003,68.0,84.0
402,221.20335022500004,221.33727866250004,68.0,82.0
403,221.41763572500003,222.00870656250004,75.0,87.0
404,222.06049222500002,222.36763477500003,77.0,84.0
405,222.48906322500002,222.82120575000002,75.0,93.0
406,222.91763422500003,223.03191982500002,73.0,83.0
407,223.13191972500002,223.44084798750004,73.0,83.0
408,224.20334722500002,224.52298976250003,70.0,85.0
409,224.63191822500002,224.77834665000003,72.0,84.0
410,224.84620372500004,225.43727456250002,73.0,83.0
411,225.70334572500002,225.81584561250003,73.0,84.0
412,225.91763122500004,226.24084518750004,73.0,85.0
413,226.34620222500004,226.68727331250003,72.0,87.0
414,226.77477322500002,227.11763002500004,70.0,84.0
415,227.20334422500002,227.50870106250002,72.0,85.0
416,227.63191522500003,228.39620017500002,70.0,84.0
417,228.48905722500004,229.14084228750002,68.0,83.0
418,229.34619922500002,230.05334137500003,78.0,74.0
419,230.20334122500003,230.78191207500004,77.0,89.0
420,231.06048322500004,231.36584006250004,77.0,88.0
421,231.48905422500002,231.62298266250002,77.0,86.0
422,231.70333972500003,232.01583941250004,77.0,87.0
423,232.13191072500004,232.64083878750003,82.0,86.0
424,232.77476722500003,233.10869546250004,82.0,83.0
425,233.20333822500004,233.32298096250003,80.0,82.0
426,233.41762372500003,233.98726601250004,80.0,83.0
427,234.06048022500002,234.21226578750003,72.0,83.0
428,234.27476572500004,234.36940848750004,73.0,85.0
429,234.48905122500003,234.76940808750004,75.0,89.0
430,234.91762222500003,235.03369353750003,68.0,84.0
431,235.13190772500002,235.48012166250004,68.0,85.0
432,235.56047872500002,236.09440676250003,80.0,85.0
433,236.20333522500002,237.10690575000004,78.0,83.0
434,237.91761922500004,238.26761887500004,70.0,86.0
435,238.34619022500004,238.49261865000003,72.0,84.0
436,238.56047572500003,239.21583221250003,73.0,83.0
437,239.41761772500004,239.56226043750004,73.0,80.0
438,239.63190322500003,239.93011721250002,77.0,88.0
439,240.06047422500004,240.36404535000003,75.0,87.0
440,240.48904522500004,240.87833055000004,70.0,84.0
441,240.91761622500002,241.26761587500002,72.0,84.0
442,241.34618722500002,242.78368578750002,73.0,83.0
