,start,end,pitch,velocity
0,3.0607112250000004,3.6767820375000007,56.0,69.0
1,3.0607112250000004,3.6874963125000004,61.0,72.0
2,3.9178532250000004,4.110710175,56.0,84.0
3,3.9178532250000004,4.199995800000001,65.0,82.0
4,3.0607112250000004,4.26428145,49.0,82.0
5,4.132138725000001,4.2874957125,61.0,78.0
6,4.346424225000001,4.457138400000001,56.0,74.0
7,4.7749952250000005,5.212494787500001,58.0,78.0
8,4.7749952250000005,5.244637612500001,54.0,78.0
9,5.203566225,5.532137325000001,49.0,66.0
10,5.417851725000001,5.637494362500001,54.0,77.0
11,5.417851725000001,5.637494362500001,61.0,78.0
12,5.846422725000001,6.005351137500001,54.0,76.0
13,5.846422725000001,6.012493987500001,66.0,78.0
14,4.7749952250000005,6.057136800000001,42.0,82.0
15,6.489279225000001,6.991064437500001,60.0,77.0
16,6.489279225000001,6.996421575000001,56.0,77.0
17,7.346421225000001,7.541063887500001,63.0,79.0
18,7.346421225000001,7.542849600000001,56.0,81.0
19,7.560706725000001,7.894634962500001,51.0,63.0
20,7.774992225000001,7.930349212500001,56.0,74.0
21,6.489279225000001,7.942849200000001,44.0,77.0
22,8.203563225000002,8.4553486875,56.0,80.0
23,8.203563225000002,8.585705700000002,61.0,80.0
24,8.846419725,9.060705225000001,56.0,83.0
25,8.846419725,9.060705225000001,65.0,84.0
26,9.274990725000002,9.432133425000002,56.0,77.0
27,9.274990725000002,9.476776237500001,60.0,76.0
28,8.203563225000002,9.569633287500002,49.0,82.0
29,9.917847225000001,10.351775362500002,61.0,78.0
30,9.917847225000001,10.385703900000001,58.0,76.0
31,10.346418225,10.855346287500002,53.0,65.0
32,10.774989225,10.955346187500002,58.0,83.0
33,10.774989225,10.955346187500002,65.0,87.0
34,10.989274725000001,11.2428459,53.0,77.0
35,9.917847225000001,11.251774462500002,46.0,82.0
36,11.203560225000002,11.317845825000001,58.0,79.0
37,11.417845725000001,11.46427425,58.0,56.0
38,11.417845725000001,11.487488512500002,61.0,63.0
39,11.632131225000002,12.001773712500002,63.0,80.0
40,11.632131225000002,12.014273700000002,58.0,77.0
41,12.274987725,12.494630362500002,58.0,80.0
42,12.274987725,12.551773162500002,67.0,79.0
43,11.632131225000002,12.714273000000002,51.0,82.0
44,12.703558725000002,12.860701425000002,58.0,78.0
45,12.703558725000002,12.871415700000002,63.0,80.0
46,13.346415225000001,13.664272050000001,58.0,75.0
47,13.346415225000001,13.676772037500001,63.0,76.0
48,13.346415225000001,13.841057587500002,66.0,80.0
49,13.774986225000001,14.066057362500002,46.0,52.0
50,13.989271725000002,14.192842950000001,58.0,79.0
51,13.989271725000002,14.219628637500001,66.0,78.0
52,13.989271725000002,14.241057187500003,61.0,83.0
53,13.346415225000001,14.333914237500002,39.0,84.0
54,14.417842725000002,14.557128300000002,61.0,82.0
55,14.417842725000002,14.585699700000001,58.0,76.0
56,15.060699225000002,15.444627412500003,56.0,72.0
57,15.060699225000002,15.444627412500003,60.0,74.0
58,15.703555725000003,15.828555600000001,63.0,75.0
59,15.489270225000002,15.962484037500001,51.0,70.0
60,15.917841225000002,16.1124838875,68.0,82.0
61,15.917841225000002,16.126769587500004,56.0,84.0
62,16.132126725000003,16.4303407125,51.0,72.0
63,16.346412225,16.474983525000003,63.0,75.0
64,16.346412225,16.507126350000004,56.0,70.0
65,15.060699225000002,16.508912062500002,44.0,82.0
66,16.774983225000003,17.285697000000003,56.0,74.0
67,16.774983225000003,17.339268375000003,61.0,76.0
68,17.632125225000003,17.8428393,56.0,82.0
69,17.632125225000003,17.871410700000002,65.0,83.0
70,16.774983225000003,17.885696400000004,49.0,83.0
71,17.846410725000002,18.032124825000004,61.0,70.0
72,18.060696225,18.16426755,56.0,74.0
73,18.489267225000003,18.948195337500003,58.0,73.0
74,18.489267225000003,18.985695300000003,54.0,71.0
75,19.132123725000003,19.296409275000002,66.0,80.0
76,19.132123725000003,19.308909262500002,54.0,80.0
77,18.917838225000004,19.542837600000002,49.0,56.0
78,19.560694725,19.701766012500002,54.0,74.0
79,19.560694725,19.732123125,61.0,76.0
80,18.489267225000003,19.742837400000003,42.0,82.0
81,20.203551225000002,20.832122025000004,60.0,76.0
82,20.203551225000002,20.9231933625,56.0,73.0
83,21.060693225,21.237478762500004,63.0,82.0
84,21.060693225,21.249978750000004,56.0,82.0
85,21.274978725000004,21.603549825,51.0,71.0
86,21.489264225000003,21.608906962500004,56.0,76.0
87,20.203551225000002,21.655335487500004,44.0,83.0
88,21.917835225000005,22.210692075000004,56.0,78.0
89,21.917835225000005,22.367834775000002,61.0,75.0
90,22.560691725,22.780334362500003,65.0,84.0
91,22.560691725,22.799977200000004,56.0,84.0
92,21.917835225000005,23.157119700000003,49.0,78.0
93,22.989262725000003,23.157119700000003,56.0,78.0
94,22.989262725000003,23.160691125000003,60.0,77.0
95,23.632119225000004,24.083904487500003,61.0,75.0
96,23.632119225000004,24.162475837500004,58.0,70.0
97,24.060690225000002,24.5124754875,53.0,67.0
98,24.489261225000003,24.658903912500005,65.0,86.0
99,24.489261225000003,24.660689625000003,58.0,83.0
100,23.632119225000004,24.974975025000003,46.0,82.0
101,24.703546725000002,24.983903587500002,53.0,75.0
102,24.917832225,25.16426055,58.0,82.0
103,25.132117725000004,25.262474737500003,61.0,67.0
104,25.346403225000003,25.666045762500005,58.0,79.0
105,25.346403225000003,25.832117025000002,63.0,80.0
106,25.774974225000005,25.874974125000005,58.0,72.0
107,25.989259725000004,26.207116650000003,67.0,77.0
108,25.989259725000004,26.224973775000002,58.0,78.0
109,26.417830725,26.585687700000005,63.0,84.0
110,26.417830725,26.617830525000002,58.0,83.0
111,25.346403225000003,26.6267590875,51.0,81.0
112,27.060687225000002,27.299972700000005,58.0,80.0
113,27.060687225000002,27.526758187500004,66.0,78.0
114,27.489258225000004,27.608900962500005,58.0,57.0
115,27.060687225000002,27.758900812500002,51.0,82.0
116,27.703543725000003,27.917829225000002,58.0,80.0
117,27.703543725000003,27.966043462500004,63.0,82.0
118,28.560685725000003,28.592828550000004,60.0,76.0
119,28.560685725000003,28.682114175000002,61.0,78.0
120,28.774971225000005,29.164256550000005,60.0,82.0
121,29.417827725000002,29.526756187500006,56.0,76.0
122,29.203542225000003,29.889255825000003,51.0,75.0
123,29.846398725000004,30.026755687500003,60.0,83.0
124,29.846398725000004,30.035684250000003,56.0,83.0
125,29.846398725000004,30.060684225000003,63.0,83.0
126,28.774971225000005,30.230326912500004,44.0,83.0
127,30.060684225000003,30.239255475000004,51.0,74.0
128,30.274969725000005,30.374969625000006,56.0,77.0
129,30.489255225000004,30.758897812500003,56.0,81.0
130,30.489255225000004,30.921397650000003,61.0,82.0
131,30.917826225000002,30.985683300000005,56.0,62.0
132,31.132111725000005,31.316040112500005,56.0,79.0
133,31.132111725000005,31.328540100000005,65.0,83.0
134,30.489255225000004,31.591039837500006,49.0,80.0
135,31.560682725000003,31.676754037500004,61.0,78.0
136,31.560682725000003,31.707111150000003,56.0,77.0
137,32.20353922500001,32.653538775,58.0,68.0
138,32.20353922500001,32.737467262500004,54.0,72.0
139,32.84639572500001,33.112466887500005,61.0,79.0
140,32.632110225000005,33.335680950000004,49.0,67.0
141,32.20353922500001,33.428538,42.0,82.0
142,33.274966725000006,33.428538,54.0,78.0
143,33.274966725000006,33.437466562500006,66.0,83.0
144,33.91782322500001,34.3196085375,56.0,77.0
145,33.91782322500001,34.371394200000005,60.0,79.0
146,34.346394225000004,34.621393950000005,51.0,66.0
147,34.56067972500001,34.621393950000005,51.0,64.0
148,34.56067972500001,34.75353667500001,63.0,82.0
149,34.56067972500001,34.776750937500005,56.0,82.0
150,34.989250725000005,35.1231791625,56.0,78.0
151,34.989250725000005,35.144607712500004,60.0,81.0
152,33.91782322500001,35.3803217625,44.0,82.0
153,35.632107225000006,35.846392725,56.0,77.0
154,35.632107225000006,36.0660353625,61.0,78.0
155,36.489249225,36.68746331250001,65.0,86.0
156,36.489249225,36.72496327500001,56.0,84.0
157,35.632107225000006,37.00532013750001,49.0,82.0
158,36.91782022500001,37.073177212500006,56.0,74.0
159,36.91782022500001,37.20531993750001,60.0,76.0
160,37.346391225000005,37.683890887500006,61.0,78.0
161,37.346391225000005,37.69281945,58.0,73.0
162,37.989247725000006,38.1981760875,58.0,79.0
163,37.989247725000006,38.1981760875,65.0,83.0
164,38.417818725000004,38.574961425000005,61.0,82.0
165,38.417818725000004,38.57853285,58.0,77.0
166,37.774962225,38.705318437500004,53.0,65.0
167,37.346391225000005,38.9088896625,46.0,83.0
168,39.060675225000004,39.255317887500006,58.0,79.0
169,39.060675225000004,39.517817625000006,63.0,81.0
170,39.703531725000005,39.90710295,58.0,82.0
171,39.703531725000005,39.9571029,67.0,82.0
172,39.060675225000004,40.13567415000001,51.0,78.0
173,40.132102725,40.246388325000005,63.0,82.0
174,40.132102725,40.264245450000004,58.0,81.0
175,40.774959225,41.02138755000001,58.0,78.0
176,40.774959225,41.10888746250001,39.0,83.0
177,40.774959225,41.21424450000001,63.0,78.0
178,40.774959225,41.224958775000005,66.0,82.0
179,41.20353022500001,41.449958550000005,58.0,75.0
180,41.417815725000004,41.505315637500004,63.0,72.0
181,41.63210122500001,42.142815000000006,56.0,83.0
182,41.63210122500001,42.15710070000001,60.0,84.0
183,42.060672225000005,42.346386225,51.0,75.0
184,41.63210122500001,42.3767433375,44.0,83.0
185,42.489243225,42.75531438750001,56.0,83.0
186,42.489243225,42.96245703750001,61.0,84.0
187,42.91781422500001,42.983885587500005,56.0,69.0
188,43.132099725,43.324956675,56.0,88.0
189,43.132099725,43.34281380000001,65.0,88.0
190,43.56067072500001,43.69638487500001,56.0,85.0
191,43.56067072500001,43.84638472500001,61.0,85.0
192,43.774956225000004,44.05174166250001,56.0,87.0
193,43.98924172500001,44.149955850000005,61.0,80.0
194,42.489243225,44.27138430000001,49.0,78.0
195,44.20352722500001,44.4410269875,61.0,78.0
196,44.20352722500001,44.65709820000001,66.0,76.0
197,44.20352722500001,44.66959818750001,70.0,82.0
198,44.63209822500001,44.723169562500004,61.0,67.0
199,44.846383725,45.11424060000001,61.0,83.0
200,44.846383725,45.1338834375,66.0,83.0
201,44.20352722500001,45.35709750000001,42.0,82.0
202,45.27495472500001,45.43745456250001,66.0,82.0
203,45.27495472500001,45.446383125000004,61.0,85.0
204,45.27495472500001,45.49459736250001,70.0,76.0
205,45.91781122500001,46.189239525000005,65.0,83.0
206,45.91781122500001,46.2999537,68.0,78.0
207,46.56066772500001,46.701739012500006,65.0,93.0
208,46.56066772500001,46.739238975000006,72.0,89.0
209,46.346382225000006,46.81423890000001,48.0,59.0
210,45.91781122500001,46.93923877500001,41.0,84.0
211,46.98923872500001,47.09638147500001,68.0,83.0
212,46.98923872500001,47.10888146250001,65.0,84.0
213,47.63209522500001,47.942809200000006,58.0,80.0
214,47.63209522500001,48.010666275000005,61.0,82.0
215,48.060666225000006,48.33209452500001,53.0,59.0
216,48.27495172500001,48.46245153750001,61.0,82.0
217,48.27495172500001,48.46780867500001,58.0,75.0
218,48.27495172500001,48.49459436250001,65.0,83.0
219,48.703522725000006,48.821379750000006,70.0,83.0
220,48.489237225000004,48.82495117500001,53.0,66.0
221,48.703522725000006,48.833879737500006,58.0,83.0
222,48.91780822500001,49.182093675000004,53.0,37.0
223,49.132093725000004,49.19102223750001,58.0,63.0
224,47.63209522500001,49.276736437500006,46.0,83.0
225,49.34637922500001,49.60352182500001,58.0,77.0
226,49.34637922500001,49.662450337500005,61.0,84.0
227,49.34637922500001,49.68566460000001,65.0,85.0
228,49.774950225000005,49.905307237500004,58.0,64.0
229,49.98923572500001,50.010664275,65.0,66.0
230,49.98923572500001,50.073164212500004,61.0,82.0
231,49.34637922500001,50.092807050000005,46.0,83.0
232,50.20352122500001,50.57673513750001,60.0,85.0
233,50.20352122500001,50.60173511250001,56.0,84.0
234,50.20352122500001,50.705306437500006,44.0,79.0
235,51.060663225000006,51.50709135000001,58.0,78.0
236,51.060663225000006,51.528519900000006,54.0,79.0
237,51.489234225000004,51.57316271250001,61.0,74.0
238,51.70351972500001,51.85530528750001,66.0,84.0
239,51.70351972500001,51.889233825000005,54.0,85.0
240,51.060663225000006,52.149947850000004,42.0,84.0
241,52.132090725000005,52.21066207500001,54.0,72.0
242,52.132090725000005,52.31601911250001,58.0,82.0
243,52.132090725000005,52.332090525000005,61.0,82.0
244,52.774947225000005,53.24637532500001,56.0,78.0
245,52.774947225000005,53.260661025000005,53.0,79.0
246,53.20351822500001,53.292803850000006,60.0,66.0
247,53.417803725000006,53.580303562500006,65.0,86.0
248,53.417803725000006,53.59458926250001,53.0,84.0
249,53.63208922500001,53.88923182500001,48.0,69.0
250,52.774947225000005,53.93923177500001,41.0,84.0
251,53.846374725000004,53.94458891250001,53.0,83.0
252,53.846374725000004,54.04816023750001,56.0,83.0
253,53.846374725000004,54.06958878750001,60.0,84.0
254,54.06066022500001,54.19816008750001,41.0,68.0
255,54.27494572500001,54.46244553750001,53.0,88.0
256,54.91780222500001,55.001730712500006,58.0,70.0
257,54.70351672500001,55.182087675000005,53.0,59.0
258,55.132087725000005,55.332087525000006,61.0,86.0
259,55.132087725000005,55.342801800000004,58.0,83.0
260,55.34637322500001,55.61601581250001,53.0,65.0
261,55.56065872500001,55.75351567500001,65.0,86.0
262,55.56065872500001,55.762444237500006,58.0,80.0
263,55.56065872500001,55.787444212500006,61.0,83.0
264,54.489231225000005,56.042801100000005,46.0,83.0
265,55.774944225000006,56.05351537500001,53.0,71.0
266,55.98922972500001,56.10887246250001,58.0,76.0
267,56.203515225000004,56.61780052500001,58.0,83.0
268,56.203515225000004,56.64458621250001,61.0,85.0
269,56.846371725000004,56.94815733750001,58.0,74.0
270,56.63208622500001,56.96780017500001,53.0,76.0
271,56.203515225000004,57.01780012500001,46.0,84.0
272,57.06065722500001,57.36958548750001,46.0,84.0
273,57.06065722500001,57.383871187500006,53.0,91.0
274,57.06065722500001,57.501728212500005,58.0,86.0
275,57.06065722500001,57.54101388750001,61.0,89.0
276,57.489228225000005,57.74815653750001,46.0,82.0
277,57.91779922500001,58.249941750000005,61.0,84.0
278,57.91779922500001,58.332084525000006,70.0,82.0
279,58.56065572500001,58.85172686250001,61.0,83.0
280,58.34637022500001,59.048155237500005,49.0,72.0
281,57.91779922500001,59.08922662500001,42.0,82.0
282,58.98922672500001,59.18208367500001,61.0,84.0
283,58.98922672500001,59.23386933750001,66.0,84.0
284,58.98922672500001,59.260655025000005,70.0,80.0
285,59.63208322500001,60.05529708750001,65.0,84.0
286,59.63208322500001,60.07851135000001,68.0,84.0
287,60.27493972500001,60.43565385000001,65.0,86.0
288,60.27493972500001,60.45351097500001,72.0,88.0
289,60.06065422500001,60.64101078750001,48.0,57.0
290,59.63208322500001,60.719582137500005,41.0,85.0
291,60.70351072500001,60.849939150000004,68.0,82.0
292,60.70351072500001,60.85351057500001,65.0,84.0
293,61.34636722500001,61.785652500000005,61.0,82.0
294,61.34636722500001,61.80350962500001,58.0,82.0
295,61.77493822500001,62.05708080000001,53.0,68.0
296,61.98922372500001,62.191009237500005,61.0,83.0
297,61.98922372500001,62.21958063750001,58.0,74.0
298,61.98922372500001,62.22672348750001,65.0,84.0
299,62.203509225000005,62.48386608750001,53.0,75.0
300,62.41779472500001,62.641008787500006,58.0,83.0
301,62.41779472500001,62.66958018750001,61.0,88.0
302,62.41779472500001,62.671365900000005,70.0,83.0
303,61.34636722500001,62.90707995000001,46.0,83.0
304,62.63208022500001,62.93207992500001,53.0,79.0
305,62.846365725000005,62.989222725000005,58.0,71.0
306,63.06065122500001,63.50886506250001,68.0,84.0
307,63.06065122500001,63.52136505000001,65.0,86.0
308,63.70350772500001,63.924936075000005,65.0,87.0
309,63.70350772500001,63.92850750000001,72.0,87.0
310,63.489222225000006,64.16422155000001,48.0,62.0
311,63.06065122500001,64.2052929375,41.0,83.0
312,64.13207872500001,64.27315001250001,65.0,87.0
313,64.13207872500001,64.32672138750002,68.0,83.0
314,64.77493522500001,64.9302922125,70.0,82.0
315,64.77493522500001,64.93922077500001,63.0,81.0
316,64.77493522500001,64.9410064875,66.0,83.0
317,65.20350622500001,65.4124345875,63.0,77.0
318,65.20350622500001,65.41422030000001,58.0,71.0
319,65.20350622500001,65.4160060125,66.0,74.0
320,65.632077225,65.832077025,58.0,87.0
321,65.632077225,65.867791275,66.0,93.0
322,66.27493372500001,66.38029076250001,58.0,74.0
323,64.77493522500001,66.40529073750001,39.0,84.0
324,66.48921922500001,66.74100468750001,58.0,83.0
325,66.48921922500001,66.932075925,63.0,83.0
326,66.917790225,66.98564730000001,58.0,73.0
327,66.48921922500001,67.203504225,39.0,88.0
328,67.132075725,67.33207552500001,58.0,87.0
329,67.132075725,67.39278975,66.0,85.0
330,67.56064672500001,67.65707520000001,63.0,87.0
331,67.56064672500001,67.66421805,58.0,91.0
332,68.203503225,68.37850305,60.0,85.0
333,68.203503225,68.39278875000001,65.0,87.0
334,68.84635972500001,68.94278820000001,65.0,89.0
335,68.63207422500001,68.95707390000001,48.0,68.0
336,68.84635972500001,68.99278815000001,72.0,88.0
337,69.06064522500002,69.4052877375,48.0,58.0
338,69.274930725,69.4052877375,69.0,84.0
339,69.274930725,69.40707345000001,65.0,83.0
340,68.203503225,69.5142162,41.0,88.0
341,69.91778722500001,70.14992985,69.0,82.0
342,69.91778722500001,70.17314411250001,65.0,84.0
343,69.91778722500001,70.174929825,72.0,83.0
344,69.91778722500001,70.18742981250001,77.0,82.0
345,69.91778722500001,70.39814388750001,48.0,82.0
346,69.91778722500001,70.43742956250001,41.0,86.0
347,70.77492922500001,70.98921472500001,56.0,87.0
348,70.98921472500001,71.56064272500001,58.0,77.0
349,71.20350022500001,71.57314271250002,61.0,77.0
350,71.632071225,71.946356625,54.0,74.0
351,71.632071225,72.02492797500001,58.0,72.0
352,71.632071225,72.04992795000001,61.0,78.0
353,72.06064222500001,72.3731419125,49.0,62.0
354,72.27492772500001,72.49635607500001,66.0,83.0
355,72.27492772500001,72.567784575,54.0,84.0
356,72.48921322500001,72.853498575,49.0,51.0
357,72.703498725,72.87492712500001,54.0,82.0
358,71.632071225,72.88206997500001,42.0,83.0
359,72.703498725,73.17671253750001,58.0,84.0
360,73.13206972500001,73.2088553625,54.0,78.0
361,72.703498725,73.21956963750002,61.0,84.0
362,73.34635522500001,73.88742611250001,60.0,83.0
363,73.34635522500001,74.039211675,56.0,83.0
364,73.77492622500002,74.26064002500001,51.0,67.0
365,73.34635522500001,74.42313986250001,44.0,82.0
366,74.203497225,74.55349687500001,56.0,85.0
367,74.203497225,74.56063972500002,60.0,93.0
368,74.203497225,74.61063967500002,63.0,85.0
369,74.63206822500001,74.74099668750002,51.0,77.0
370,75.060639225,75.21778192500001,54.0,79.0
371,75.060639225,75.34099608750002,60.0,83.0
372,75.060639225,75.54992445,65.0,84.0
373,75.48921022500001,75.63563865,60.0,83.0
374,75.70349572500001,75.94992405,65.0,83.0
375,75.70349572500001,75.95706690000002,68.0,82.0
376,75.70349572500001,75.96778117500001,60.0,84.0
377,75.060639225,76.09992390000001,53.0,78.0
378,76.13206672500002,76.28385228750001,60.0,85.0
379,76.13206672500002,76.360637925,65.0,86.0
380,76.560637725,76.67492332500001,60.0,80.0
381,76.77492322500001,77.24277990000002,61.0,84.0
382,76.77492322500001,77.27313701250002,58.0,83.0
383,77.20349422500001,77.67492232500001,53.0,69.0
384,77.632065225,77.82849360000002,65.0,87.0
385,77.632065225,77.83563645000001,58.0,85.0
386,77.84635072500001,78.05885051250002,53.0,81.0
387,76.77492322500001,78.067779075,46.0,82.0
388,78.06063622500001,78.15885041250002,58.0,71.0
389,78.06063622500001,78.1981360875,61.0,85.0
390,78.27492172500001,78.3481359375,58.0,71.0
391,78.48920722500002,78.68920702500002,58.0,83.0
392,78.48920722500002,78.89099253750001,63.0,82.0
393,78.48920722500002,79.26242073750001,51.0,84.0
394,79.13206372500001,79.27492072500002,58.0,86.0
395,79.13206372500001,79.27849215,66.0,83.0
396,79.56063472500001,79.66956318750002,58.0,82.0
397,79.56063472500001,79.77849165,63.0,83.0
398,79.989205725,80.05349137500001,58.0,62.0
399,80.20349122500001,80.46599096250002,56.0,82.0
400,80.20349122500001,80.46599096250002,60.0,81.0
401,80.63206222500001,80.7195621375,56.0,66.0
402,80.63206222500001,80.74099068750002,63.0,77.0
403,80.84634772500002,81.03920467500001,68.0,83.0
404,80.84634772500002,81.09277605000001,56.0,82.0
405,81.274918725,81.45706140000001,56.0,83.0
406,81.274918725,81.4802756625,63.0,83.0
407,80.41777672500001,81.4856328,51.0,71.0
408,80.20349122500001,81.54634702500002,44.0,82.0
409,81.91777522500001,82.15170356250002,56.0,83.0
410,81.91777522500001,82.35884621250001,61.0,81.0
411,82.346346225,82.41956043750001,56.0,69.0
412,82.56063172500001,82.78027436250001,56.0,86.0
413,82.56063172500001,82.81241718750002,65.0,86.0
414,82.98920272500001,83.13027401250001,56.0,84.0
415,82.98920272500001,83.132059725,61.0,84.0
416,81.91777522500001,83.22313106250002,49.0,84.0
417,83.632059225,83.8624161375,61.0,82.0
418,83.632059225,83.89098753750001,63.0,79.0
419,83.632059225,83.90884466250002,56.0,74.0
420,83.632059225,84.08384448750002,59.0,73.0
421,83.632059225,84.36062992500001,65.0,83.0
422,84.48920122500002,84.90705795000001,56.0,84.0
423,84.48920122500002,84.93205792500001,59.0,86.0
424,83.632059225,84.99277215000001,44.0,83.0
425,84.48920122500002,85.01598641250001,63.0,84.0
426,84.48920122500002,85.06598636250001,65.0,86.0
427,84.91777222500001,85.0838434875,51.0,80.0
428,85.13205772500001,85.24098618750001,56.0,83.0
429,85.34634322500001,85.78741421250001,54.0,81.0
430,85.34634322500001,85.8141999,58.0,82.0
431,85.77491422500002,86.00527113750002,49.0,60.0
432,85.989199725,86.17848525000001,54.0,83.0
433,85.989199725,86.17848525000001,58.0,88.0
434,85.989199725,86.20705665000001,61.0,85.0
435,86.20348522500001,86.43562785000002,49.0,71.0
436,85.34634322500001,86.52669918750001,42.0,83.0
437,86.41777072500001,86.57134200000002,54.0,87.0
438,86.41777072500001,86.60169911250001,66.0,83.0
439,87.060627225,87.53384103750001,56.0,80.0
440,87.060627225,87.53562675,60.0,78.0
441,87.48919822500001,87.78205507500002,51.0,68.0
442,87.70348372500001,87.93026921250001,60.0,86.0
443,87.70348372500001,87.95526918750001,56.0,85.0
444,87.70348372500001,87.95884061250001,63.0,84.0
445,87.91776922500001,88.22312606250001,51.0,65.0
446,88.13205472500002,88.28205457500002,56.0,86.0
447,87.060627225,88.31419740000001,44.0,82.0
448,88.13205472500002,88.3266973875,68.0,79.0
449,88.77491122500001,89.03562525000001,60.0,78.0
450,88.77491122500001,89.19098223750001,65.0,82.0
451,89.20348222500002,89.2874107125,60.0,70.0
452,88.77491122500001,89.58383898750002,41.0,84.0
453,89.41776772500002,89.617767525,60.0,85.0
454,89.41776772500002,89.632053225,68.0,83.0
455,89.84633872500001,89.95348147500002,65.0,87.0
456,89.84633872500001,89.97133860000001,60.0,86.0
457,90.48919522500002,90.90526623750002,58.0,77.0
458,90.48919522500002,90.94098048750001,61.0,79.0
459,91.13205172500001,91.20526593750002,58.0,72.0
460,90.91776622500001,91.39276575000001,53.0,62.0
461,91.34633722500001,91.59276555000001,65.0,89.0
462,91.34633722500001,91.59990840000002,58.0,89.0
463,91.56062272500002,91.84990815000002,53.0,82.0
464,91.77490822500002,91.94276520000001,62.0,82.0
465,90.48919522500002,91.95705090000001,46.0,83.0
466,91.77490822500002,91.96419375,58.0,81.0
467,92.20347922500001,92.474907525,58.0,83.0
468,92.20347922500001,92.66776447500001,63.0,83.0
469,92.84633572500002,93.10347832500001,58.0,84.0
470,92.84633572500002,93.12847830000001,66.0,82.0
471,92.20347922500001,93.40883516250001,51.0,85.0
472,93.91776322500002,94.23026291250001,56.0,78.0
473,93.91776322500002,94.23919147500001,60.0,82.0
474,94.346334225,94.40526273750001,60.0,68.0
475,94.346334225,94.55883401250001,63.0,76.0
476,94.13204872500002,94.83740516250002,51.0,76.0
477,94.77490522500001,94.96954788750001,56.0,83.0
478,94.77490522500001,94.98026216250001,68.0,82.0
479,94.98919072500001,95.29097613750001,51.0,75.0
480,93.91776322500002,95.31597611250001,44.0,83.0
481,95.20347622500002,95.36419035000002,56.0,83.0
482,95.63204722500001,95.95526118750001,56.0,77.0
483,95.63204722500001,96.14633242500001,65.0,84.0
484,96.06061822500001,96.1981180875,56.0,75.0
485,96.27490372500002,96.55168916250001,61.0,82.0
486,96.27490372500002,96.56061772500001,56.0,83.0
487,95.63204722500001,96.64454621250002,37.0,81.0
488,96.703474725,96.90347452500001,56.0,85.0
489,96.703474725,96.96776017500001,65.0,85.0
490,97.34633122500001,97.6695451875,58.0,83.0
491,97.34633122500001,97.79097363750002,61.0,87.0
492,97.34633122500001,97.83740216250001,66.0,82.0
493,97.77490222500002,98.13740186250001,49.0,70.0
494,97.98918772500001,98.28561600000002,58.0,82.0
495,97.98918772500001,98.29454456250001,61.0,84.0
496,98.20347322500001,98.50168721250002,49.0,59.0
497,97.34633122500001,98.53383003750001,42.0,82.0
498,98.41775872500001,98.64275850000001,61.0,87.0
499,98.41775872500001,98.65168706250002,58.0,83.0
500,98.41775872500001,98.70882986250001,66.0,83.0
501,99.060615225,99.37668633750002,56.0,82.0
502,99.060615225,99.41061487500001,60.0,83.0
503,99.48918622500001,99.63204322500002,56.0,83.0
504,99.70347172500001,99.946328625,63.0,85.0
505,99.70347172500001,99.97490002500001,56.0,84.0
506,99.70347172500001,99.98025716250001,60.0,88.0
507,99.91775722500002,100.21597121250001,51.0,74.0
508,99.060615225,100.23739976250002,44.0,82.0
509,100.13204272500002,100.27847115000002,56.0,82.0
510,100.13204272500002,100.28739971250002,60.0,83.0
511,100.13204272500002,100.30704255000002,63.0,82.0
512,100.77489922500001,101.02668468750001,56.0,84.0
513,101.20347022500002,101.29632727500001,56.0,75.0
514,100.77489922500001,101.33204152500001,65.0,84.0
515,101.417755725,101.68561260000001,56.0,82.0
516,101.417755725,101.88739811250001,61.0,89.0
517,101.84632672500001,101.96239803750001,56.0,82.0
518,100.77489922500001,102.13025501250002,49.0,83.0
519,102.06061222500001,102.30525483750002,60.0,89.0
520,102.27489772500002,102.35168336250001,56.0,74.0
521,102.48918322500002,102.93382563750001,61.0,85.0
522,102.48918322500002,102.93561135000002,58.0,82.0
523,102.91775422500001,103.16061112500002,53.0,67.0
524,103.13203972500001,103.34989665000002,58.0,84.0
525,103.13203972500001,103.37668233750001,65.0,87.0
526,102.48918322500002,103.58382498750001,46.0,83.0
527,103.34632522500002,103.60346782500001,53.0,77.0
528,103.56061072500002,103.69275345000001,58.0,83.0
529,103.56061072500002,103.78025336250002,61.0,88.0
530,103.77489622500002,103.95882461250001,58.0,75.0
531,104.20346722500001,104.67310961250001,58.0,83.0
532,104.20346722500001,104.70168101250002,63.0,82.0
533,104.63203822500002,104.93560935000001,55.0,81.0
534,104.20346722500001,104.97668073750002,51.0,82.0
535,104.84632372500002,105.10346632500001,58.0,84.0
536,104.84632372500002,105.18739481250002,67.0,84.0
537,105.06060922500001,105.26953758750001,55.0,60.0
538,105.27489472500001,105.41775172500002,58.0,82.0
539,105.27489472500001,105.44989455000001,63.0,86.0
540,105.70346572500002,105.79096563750001,58.0,77.0
541,105.91775122500002,106.15525098750001,58.0,84.0
542,105.91775122500002,106.35703650000002,39.0,86.0
543,105.91775122500002,106.42132215000001,66.0,82.0
544,106.34632222500001,106.60346482500002,58.0,73.0
545,106.56060772500001,106.63382193750002,63.0,82.0
546,106.77489322500001,107.03025011250001,56.0,84.0
547,106.77489322500001,107.06953578750002,60.0,84.0
548,107.20346422500002,107.35882121250002,56.0,85.0
549,107.41774972500001,107.45524968750001,56.0,68.0
550,106.98917872500002,107.47132110000001,51.0,77.0
551,106.77489322500001,107.48739251250001,44.0,83.0
552,107.41774972500001,107.53382103750002,63.0,80.0
553,107.63203522500001,107.91239208750001,56.0,81.0
554,107.63203522500001,108.07846335000002,61.0,85.0
555,108.06060622500002,108.15524898750002,56.0,78.0
556,108.27489172500002,108.46774867500001,56.0,86.0
557,108.27489172500002,108.47132010000001,65.0,87.0
558,108.70346272500001,109.34274780000001,56.0,81.0
559,108.70346272500001,109.35524778750002,61.0,82.0
560,109.34631922500002,109.35524778750002,61.0,76.0
561,107.63203522500001,109.37310491250001,49.0,84.0
562,109.34631922500002,109.37310491250001,49.0,83.0
563,109.34631922500002,109.85703300000002,56.0,74.0
564,110.20346122500001,110.41417530000001,56.0,82.0
565,110.20346122500001,110.44274670000001,65.0,83.0
566,110.41774672500001,110.60346082500001,61.0,70.0
567,110.63203222500002,110.73560355000001,56.0,74.0
568,111.06060322500001,111.51953133750001,58.0,73.0
569,111.06060322500001,111.55703130000002,54.0,71.0
570,111.70345972500002,111.86774527500002,66.0,80.0
571,111.70345972500002,111.88024526250001,54.0,80.0
572,111.48917422500001,112.11417360000002,49.0,56.0
573,112.13203072500002,112.27310201250002,54.0,74.0
574,112.13203072500002,112.30345912500002,61.0,76.0
575,111.06060322500001,112.31417340000002,42.0,82.0
576,112.77488722500001,113.40345802500002,60.0,76.0
577,112.77488722500001,113.49452936250002,56.0,73.0
578,113.63202922500001,113.80881476250002,63.0,82.0
579,113.63202922500001,113.82131475000001,56.0,82.0
580,113.84631472500001,114.17488582500002,51.0,71.0
581,114.06060022500002,114.18024296250002,56.0,76.0
582,112.77488722500001,114.22667148750001,44.0,83.0
583,114.48917122500002,114.78202807500001,56.0,78.0
584,114.48917122500002,114.93917077500001,61.0,75.0
585,115.13202772500001,115.35167036250002,65.0,84.0
586,115.13202772500001,115.37131320000002,56.0,84.0
587,114.48917122500002,115.72845570000001,49.0,78.0
588,115.56059872500002,115.72845570000001,56.0,78.0
589,115.56059872500002,115.73202712500002,60.0,77.0
590,116.20345522500001,116.65524048750001,61.0,75.0
591,116.20345522500001,116.73381183750001,58.0,70.0
592,116.63202622500002,117.08381148750001,53.0,67.0
593,117.06059722500001,117.23023991250001,65.0,86.0
594,117.06059722500001,117.23202562500002,58.0,83.0
595,116.20345522500001,117.54631102500001,46.0,82.0
596,117.27488272500001,117.55523958750001,53.0,75.0
597,117.48916822500001,117.73559655000001,58.0,82.0
598,117.70345372500002,117.83381073750002,61.0,67.0
599,117.91773922500002,118.23738176250002,58.0,79.0
600,117.91773922500002,118.40345302500002,63.0,80.0
601,118.34631022500001,118.44631012500001,58.0,72.0
602,118.56059572500001,118.77845265000002,67.0,77.0
603,118.56059572500001,118.79630977500001,58.0,78.0
604,118.98916672500002,119.15702370000001,63.0,84.0
605,118.98916672500002,119.18916652500002,58.0,83.0
606,117.91773922500002,119.19809508750002,51.0,81.0
607,119.63202322500001,119.87130870000001,58.0,80.0
608,119.63202322500001,120.09809418750001,66.0,78.0
609,120.06059422500002,120.18023696250002,58.0,57.0
610,119.63202322500001,120.33023681250002,51.0,82.0
611,120.27487972500002,120.48916522500002,58.0,80.0
612,120.27487972500002,120.53737946250001,63.0,82.0
613,121.13202172500002,121.16416455000001,60.0,76.0
614,121.13202172500002,121.25345017500001,61.0,78.0
615,121.34630722500002,121.73559255000002,60.0,82.0
616,121.98916372500001,122.09809218750001,56.0,76.0
617,121.77487822500001,122.46059182500002,51.0,75.0
618,122.41773472500002,122.59809168750002,60.0,83.0
619,122.41773472500002,122.60702025000002,56.0,83.0
620,122.41773472500002,122.63202022500002,63.0,83.0
621,121.34630722500002,122.80166291250002,44.0,83.0
622,122.63202022500002,122.81059147500001,51.0,74.0
623,122.84630572500002,122.94630562500002,56.0,77.0
624,123.06059122500001,123.33023381250001,56.0,81.0
625,123.06059122500001,123.49273365000002,61.0,82.0
626,123.48916222500002,123.55701930000002,56.0,62.0
627,123.70344772500002,123.88737611250002,56.0,79.0
628,123.70344772500002,123.89987610000001,65.0,83.0
629,123.06059122500001,124.16237583750002,49.0,80.0
630,124.13201872500002,124.24809003750002,61.0,78.0
631,124.13201872500002,124.27844715000002,56.0,77.0
632,124.77487522500002,125.22487477500002,58.0,68.0
633,124.77487522500002,125.30880326250002,54.0,72.0
634,125.41773172500001,125.68380288750002,61.0,79.0
635,125.20344622500002,125.90701695000001,49.0,67.0
636,124.77487522500002,125.99987400000002,42.0,82.0
637,125.84630272500002,125.99987400000002,54.0,78.0
638,125.84630272500002,126.00880256250002,66.0,83.0
639,126.48915922500002,126.89094453750002,56.0,77.0
640,126.48915922500002,126.94273020000001,60.0,79.0
641,126.91773022500001,127.19272995000001,51.0,66.0
642,127.13201572500002,127.19272995000001,51.0,64.0
643,127.13201572500002,127.32487267500002,63.0,82.0
644,127.13201572500002,127.34808693750001,56.0,82.0
645,127.56058672500002,127.69451516250001,56.0,78.0
646,127.56058672500002,127.71594371250002,60.0,81.0
647,126.48915922500002,127.95165776250002,44.0,82.0
648,128.20344322500003,128.41772872500002,56.0,77.0
649,128.20344322500003,128.6373713625,61.0,78.0
650,129.060585225,129.25879931250003,65.0,86.0
651,129.060585225,129.29629927500002,56.0,84.0
652,128.20344322500003,129.5766561375,49.0,82.0
653,129.48915622500002,129.64451321250002,56.0,74.0
654,129.48915622500002,129.7766559375,60.0,76.0
655,129.91772722500002,130.25522688750002,61.0,78.0
656,129.91772722500002,130.26415545,58.0,73.0
657,130.56058372500001,130.7695120875,58.0,79.0
658,130.56058372500001,130.7695120875,65.0,83.0
659,130.98915472500002,131.14629742500003,61.0,82.0
660,130.98915472500002,131.14986885000002,58.0,77.0
661,130.34629822500003,131.2766544375,53.0,65.0
662,129.91772722500002,131.4802256625,46.0,83.0
663,131.632011225,131.82665388750002,58.0,79.0
664,131.632011225,132.08915362500002,63.0,81.0
665,132.274867725,132.47843895000003,58.0,82.0
666,132.274867725,132.52843890000003,67.0,82.0
667,131.632011225,132.70701015000003,51.0,78.0
668,132.703438725,132.81772432500003,63.0,82.0
669,132.703438725,132.83558145,58.0,81.0
670,133.346295225,133.59272355000002,58.0,78.0
671,133.346295225,133.6802234625,39.0,83.0
672,133.346295225,133.7855805,63.0,78.0
673,133.346295225,133.796294775,66.0,82.0
674,133.774866225,134.02129455000002,58.0,75.0
675,133.98915172500003,134.07665163750002,63.0,72.0
676,134.20343722500002,134.71415100000002,56.0,83.0
677,134.20343722500002,134.72843670000003,60.0,84.0
678,134.63200822500002,134.917722225,51.0,75.0
679,134.20343722500002,134.94807933750002,44.0,83.0
680,135.06057922500003,135.32665038750002,56.0,83.0
681,135.06057922500003,135.5337930375,61.0,84.0
682,135.48915022500003,135.55522158750003,56.0,69.0
683,135.70343572500002,135.896292675,56.0,88.0
684,135.70343572500002,135.91414980000002,65.0,88.0
685,136.13200672500002,136.267720875,56.0,85.0
686,136.13200672500002,136.417720725,61.0,85.0
687,136.346292225,136.6230776625,56.0,87.0
688,136.56057772500003,136.72129185000003,61.0,80.0
689,135.06057922500003,136.84272030000002,49.0,78.0
690,136.77486322500002,137.0123629875,61.0,78.0
691,136.77486322500002,137.2284342,66.0,76.0
692,136.77486322500002,137.24093418750002,70.0,82.0
693,137.20343422500002,137.2945055625,61.0,67.0
694,137.417719725,137.68557660000002,61.0,83.0
695,137.417719725,137.7052194375,66.0,83.0
696,136.77486322500002,137.9284335,42.0,82.0
697,137.84629072500002,138.00879056250002,66.0,82.0
698,137.84629072500002,138.017719125,61.0,85.0
699,137.84629072500002,138.0659333625,70.0,76.0
700,138.489147225,138.760575525,65.0,83.0
701,138.489147225,138.8712897,68.0,78.0
702,139.132003725,139.27307501250002,65.0,93.0
703,139.132003725,139.310574975,72.0,89.0
704,138.91771822500002,139.38557490000002,48.0,59.0
705,138.489147225,139.510574775,41.0,84.0
706,139.560574725,139.66771747500002,68.0,83.0
707,139.560574725,139.68021746250002,65.0,84.0
708,140.20343122500003,140.51414520000003,58.0,80.0
709,140.20343122500003,140.582002275,61.0,82.0
710,140.632002225,140.903430525,53.0,59.0
711,140.84628772500002,141.03378753750002,61.0,82.0
712,140.84628772500002,141.03914467500002,58.0,75.0
713,140.84628772500002,141.0659303625,65.0,83.0
714,141.27485872500003,141.39271575,70.0,83.0
715,141.060573225,141.39628717500003,53.0,66.0
716,141.27485872500003,141.40521573750001,58.0,83.0
717,141.48914422500002,141.753429675,53.0,37.0
718,141.703429725,141.76235823750002,58.0,63.0
719,140.20343122500003,141.8480724375,46.0,83.0
720,141.91771522500002,142.17485782500003,58.0,77.0
721,141.91771522500002,142.23378633750002,61.0,84.0
722,141.91771522500002,142.25700060000003,65.0,85.0
723,142.34628622500003,142.4766432375,58.0,64.0
724,142.56057172500002,142.582000275,65.0,66.0
725,142.56057172500002,142.64450021250002,61.0,82.0
726,141.91771522500002,142.66414305,46.0,83.0
727,142.774857225,143.1480711375,60.0,85.0
728,142.774857225,143.17307111250003,56.0,84.0
729,142.774857225,143.27664243750002,44.0,79.0
730,143.63199922500002,144.07842735000003,58.0,78.0
731,143.63199922500002,144.09985590000002,54.0,79.0
732,144.06057022500002,144.14449871250002,61.0,74.0
733,144.274855725,144.42664128750002,66.0,84.0
734,144.274855725,144.46056982500002,54.0,85.0
735,143.63199922500002,144.72128385000002,42.0,84.0
736,144.703426725,144.78199807500002,54.0,72.0
737,144.703426725,144.88735511250002,58.0,82.0
738,144.703426725,144.90342652500001,61.0,82.0
739,145.346283225,145.81771132500003,56.0,78.0
740,145.346283225,145.83199702500002,53.0,79.0
741,145.774854225,145.86413985000002,60.0,66.0
742,145.98913972500003,146.1516395625,65.0,86.0
743,145.98913972500003,146.16592526250002,53.0,84.0
744,146.20342522500002,146.46056782500003,48.0,69.0
745,145.346283225,146.51056777500003,41.0,84.0
746,146.417710725,146.51592491250003,53.0,83.0
747,146.417710725,146.61949623750002,56.0,83.0
748,146.417710725,146.6409247875,60.0,84.0
749,146.63199622500002,146.76949608750002,41.0,68.0
750,146.846281725,147.03378153750003,53.0,88.0
751,147.48913822500003,147.5730667125,58.0,70.0
752,147.27485272500002,147.75342367500002,53.0,59.0
753,147.70342372500002,147.90342352500002,61.0,86.0
754,147.70342372500002,147.91413780000002,58.0,83.0
755,147.917709225,148.18735181250003,53.0,65.0
756,148.13199472500003,148.32485167500002,65.0,86.0
757,148.13199472500003,148.3337802375,58.0,80.0
758,148.13199472500003,148.35878021250002,61.0,83.0
759,147.06056722500003,148.61413710000002,46.0,83.0
760,148.34628022500002,148.62485137500002,53.0,71.0
761,148.56056572500003,148.68020846250002,58.0,76.0
762,148.77485122500002,149.189136525,58.0,83.0
763,148.77485122500002,149.21592221250003,61.0,85.0
764,149.417707725,149.51949333750002,58.0,74.0
765,149.20342222500003,149.539136175,53.0,76.0
766,148.77485122500002,149.589136125,46.0,84.0
767,149.63199322500003,149.94092148750002,46.0,84.0
768,149.63199322500003,149.9552071875,53.0,91.0
769,149.63199322500003,150.07306421250001,58.0,86.0
770,149.63199322500003,150.11234988750002,61.0,89.0
771,150.060564225,150.31949253750003,46.0,82.0
772,150.489135225,150.82127775,61.0,84.0
773,150.489135225,150.90342052500003,70.0,82.0
774,151.131991725,151.42306286250002,61.0,83.0
775,150.91770622500002,151.61949123750003,49.0,72.0
776,150.489135225,151.660562625,42.0,82.0
777,151.560562725,151.75341967500003,61.0,84.0
778,151.560562725,151.8052053375,66.0,84.0
779,151.560562725,151.831991025,70.0,80.0
780,152.20341922500003,152.6266330875,65.0,84.0
781,152.20341922500003,152.64984735000002,68.0,84.0
782,152.84627572500003,153.00698985000002,65.0,86.0
783,152.84627572500003,153.02484697500003,72.0,88.0
784,152.631990225,153.21234678750002,48.0,57.0
785,152.20341922500003,153.29091813750003,41.0,85.0
786,153.27484672500003,153.42127515,68.0,82.0
787,153.27484672500003,153.42484657500003,65.0,84.0
788,153.91770322500003,154.35698850000003,61.0,82.0
789,153.91770322500003,154.374845625,58.0,82.0
790,154.34627422500003,154.62841680000002,53.0,68.0
791,154.56055972500002,154.76234523750003,61.0,83.0
792,154.56055972500002,154.79091663750003,58.0,74.0
793,154.56055972500002,154.7980594875,65.0,84.0
794,154.774845225,155.05520208750002,53.0,75.0
795,154.98913072500002,155.21234478750003,58.0,83.0
796,154.98913072500002,155.24091618750003,61.0,88.0
797,154.98913072500002,155.24270190000001,70.0,83.0
798,153.91770322500003,155.47841595000003,46.0,83.0
799,155.203416225,155.503415925,53.0,79.0
800,155.41770172500003,155.56055872500002,58.0,71.0
801,155.63198722500002,156.0802010625,68.0,84.0
802,155.63198722500002,156.09270105000002,65.0,86.0
803,156.274843725,156.496272075,65.0,87.0
804,156.274843725,156.49984350000003,72.0,87.0
805,156.06055822500002,156.73555755,48.0,62.0
806,155.63198722500002,156.77662893750002,41.0,83.0
807,156.70341472500002,156.84448601250003,65.0,87.0
808,156.70341472500002,156.89805738750002,68.0,83.0
809,157.346271225,157.5016282125,70.0,82.0
810,157.346271225,157.51055677500003,63.0,81.0
811,157.346271225,157.5123424875,66.0,83.0
812,157.77484222500001,157.98377058750003,63.0,77.0
813,157.77484222500001,157.9855563,58.0,71.0
814,157.77484222500001,157.98734201250002,66.0,74.0
815,158.20341322500002,158.40341302500002,58.0,87.0
816,158.20341322500002,158.43912727500003,66.0,93.0
817,158.846269725,158.9516267625,58.0,74.0
818,157.346271225,158.97662673750003,39.0,84.0
819,159.06055522500003,159.3123406875,58.0,83.0
820,159.06055522500003,159.50341192500002,63.0,83.0
821,159.489126225,159.5569833,58.0,73.0
822,159.06055522500003,159.77484022500002,39.0,88.0
823,159.70341172500002,159.90341152500002,58.0,87.0
824,159.70341172500002,159.96412575000002,66.0,85.0
825,160.13198272500003,160.2284112,63.0,87.0
826,160.13198272500003,160.23555405000002,58.0,91.0
827,160.77483922500002,160.94983905,60.0,85.0
828,160.77483922500002,160.96412475000002,65.0,87.0
829,161.41769572500002,161.51412420000003,65.0,89.0
830,161.20341022500003,161.5284099,48.0,68.0
831,161.41769572500002,161.56412415000003,72.0,88.0
832,161.63198122500003,161.97662373750003,48.0,58.0
833,161.84626672500002,161.97662373750003,69.0,84.0
834,161.84626672500002,161.97840945000002,65.0,83.0
835,160.77483922500002,162.08555220000002,41.0,88.0
836,162.48912322500001,162.72126585,69.0,82.0
837,162.48912322500001,162.7444801125,65.0,84.0
838,162.48912322500001,162.74626582500002,72.0,83.0
839,162.48912322500001,162.75876581250003,77.0,82.0
840,162.48912322500001,162.96947988750003,48.0,82.0
841,162.48912322500001,163.00876556250003,41.0,86.0
842,163.34626522500002,163.560550725,56.0,87.0
843,163.560550725,164.131978725,58.0,77.0
844,163.77483622500003,164.14447871250002,61.0,77.0
845,164.20340722500003,164.51769262500002,54.0,74.0
846,164.20340722500003,164.59626397500003,58.0,72.0
847,164.20340722500003,164.62126395,61.0,78.0
848,164.631978225,164.94447791250002,49.0,62.0
849,164.84626372500003,165.06769207500002,66.0,83.0
850,164.84626372500003,165.13912057500002,54.0,84.0
851,165.06054922500002,165.42483457500003,49.0,51.0
852,165.27483472500003,165.44626312500003,54.0,82.0
853,164.20340722500003,165.453405975,42.0,83.0
854,165.27483472500003,165.7480485375,58.0,84.0
855,165.703405725,165.78019136250003,54.0,78.0
856,165.27483472500003,165.79090563750003,61.0,84.0
857,165.91769122500003,166.4587621125,60.0,83.0
858,165.91769122500003,166.61054767500002,56.0,83.0
859,166.34626222500003,166.83197602500002,51.0,67.0
860,165.91769122500003,166.99447586250002,44.0,82.0
861,166.774833225,167.124832875,56.0,85.0
862,166.774833225,167.13197572500002,60.0,93.0
863,166.774833225,167.18197567500002,63.0,85.0
864,167.203404225,167.31233268750003,51.0,77.0
865,167.63197522500002,167.78911792500003,54.0,79.0
866,167.63197522500002,167.91233208750003,60.0,83.0
867,167.63197522500002,168.12126045000002,65.0,84.0
868,168.06054622500002,168.20697465000003,60.0,83.0
869,168.274831725,168.52126005000002,65.0,83.0
870,168.274831725,168.52840290000003,68.0,82.0
871,168.274831725,168.53911717500003,60.0,84.0
872,167.63197522500002,168.67125990000002,53.0,78.0
873,168.70340272500002,168.85518828750003,60.0,85.0
874,168.70340272500002,168.93197392500002,65.0,86.0
875,169.13197372500002,169.246259325,60.0,80.0
876,169.346259225,169.81411590000002,61.0,84.0
877,169.346259225,169.84447301250003,58.0,83.0
878,169.77483022500002,170.246258325,53.0,69.0
879,170.20340122500002,170.39982960000003,65.0,87.0
880,170.20340122500002,170.40697245,58.0,85.0
881,170.417686725,170.63018651250002,53.0,81.0
882,169.346259225,170.63911507500003,46.0,82.0
883,170.63197222500003,170.73018641250002,58.0,71.0
884,170.63197222500003,170.76947208750002,61.0,85.0
885,170.84625772500002,170.91947193750002,58.0,71.0
886,171.06054322500003,171.26054302500003,58.0,83.0
887,171.06054322500003,171.4623285375,63.0,82.0
888,171.06054322500003,171.8337567375,51.0,84.0
889,171.70339972500003,171.84625672500002,58.0,86.0
890,171.70339972500003,171.84982815000004,66.0,83.0
891,172.13197072500003,172.24089918750002,58.0,82.0
892,172.13197072500003,172.34982765,63.0,83.0
893,172.56054172500004,172.62482737500002,58.0,62.0
894,172.77482722500002,173.03732696250003,56.0,82.0
895,172.77482722500002,173.03732696250003,60.0,81.0
896,173.20339822500003,173.29089813750002,56.0,66.0
897,173.20339822500003,173.31232668750002,63.0,77.0
898,173.41768372500002,173.610540675,68.0,83.0
899,173.41768372500002,173.66411205000003,56.0,82.0
900,173.84625472500002,174.02839740000002,56.0,83.0
901,173.84625472500002,174.05161166250002,63.0,83.0
902,172.989112725,174.05696880000002,51.0,71.0
903,172.77482722500002,174.11768302500002,44.0,82.0
904,174.48911122500002,174.72303956250002,56.0,83.0
905,174.48911122500002,174.93018221250003,61.0,81.0
906,174.91768222500002,174.99089643750003,56.0,69.0
907,175.131967725,175.35161036250003,56.0,86.0
908,175.131967725,175.38375318750002,65.0,86.0
909,175.56053872500001,175.70161001250003,56.0,84.0
910,175.56053872500001,175.70339572500004,61.0,84.0
911,174.48911122500002,175.79446706250002,49.0,84.0
912,176.20339522500004,176.43375213750002,61.0,82.0
913,176.20339522500004,176.46232353750003,63.0,79.0
914,176.20339522500004,176.48018066250003,56.0,74.0
915,176.20339522500004,176.65518048750002,59.0,73.0
916,176.20339522500004,176.93196592500001,65.0,83.0
917,177.06053722500002,177.47839395000003,56.0,84.0
918,177.06053722500002,177.503393925,59.0,86.0
919,176.20339522500004,177.56410815,44.0,83.0
920,177.06053722500002,177.58732241250001,63.0,84.0
921,177.06053722500002,177.63732236250002,65.0,86.0
922,177.48910822500002,177.65517948750002,51.0,80.0
923,177.703393725,177.81232218750003,56.0,83.0
924,177.91767922500003,178.3587502125,54.0,81.0
925,177.91767922500003,178.38553590000004,58.0,82.0
926,178.34625022500003,178.57660713750002,49.0,60.0
927,178.56053572500002,178.74982125000002,54.0,83.0
928,178.56053572500002,178.74982125000002,58.0,88.0
929,178.56053572500002,178.77839265000003,61.0,85.0
930,178.774821225,179.00696385000003,49.0,71.0
931,177.91767922500003,179.09803518750002,42.0,83.0
932,178.98910672500003,179.14267800000002,54.0,87.0
933,178.98910672500003,179.17303511250003,66.0,83.0
934,179.63196322500002,180.10517703750003,56.0,80.0
935,179.63196322500002,180.10696275000004,60.0,78.0
936,180.06053422500003,180.35339107500002,51.0,68.0
937,180.27481972500001,180.5016052125,60.0,86.0
938,180.27481972500001,180.52660518750002,56.0,85.0
939,180.27481972500001,180.53017661250001,63.0,84.0
940,180.48910522500003,180.79446206250003,51.0,65.0
941,180.70339072500002,180.85339057500002,56.0,86.0
942,179.63196322500002,180.8855334,44.0,82.0
943,180.70339072500002,180.89803338750002,68.0,79.0
944,181.346247225,181.60696125,60.0,78.0
945,181.346247225,181.7623182375,65.0,82.0
946,181.77481822500002,181.85874671250002,60.0,70.0
947,181.346247225,182.15517498750003,41.0,84.0
948,181.98910372500004,182.18910352500004,60.0,85.0
949,181.98910372500004,182.20338922500002,68.0,83.0
950,182.417674725,182.52481747500002,65.0,87.0
951,182.417674725,182.54267460000003,60.0,86.0
952,183.06053122500003,183.47660223750003,58.0,77.0
953,183.06053122500003,183.51231648750002,61.0,79.0
954,183.70338772500003,183.77660193750003,58.0,72.0
955,183.489102225,183.96410175000003,53.0,62.0
956,183.91767322500002,184.16410155000003,65.0,89.0
957,183.91767322500002,184.17124440000003,58.0,89.0
958,184.13195872500003,184.42124415000004,53.0,82.0
959,184.34624422500002,184.51410120000003,62.0,82.0
960,183.06053122500003,184.52838690000002,46.0,83.0
961,184.34624422500002,184.53552975000002,58.0,81.0
962,184.77481522500003,185.04624352500002,58.0,83.0
963,184.77481522500003,185.23910047500001,63.0,83.0
964,185.41767172500002,185.67481432500003,58.0,84.0
965,185.41767172500002,185.6998143,66.0,82.0
966,184.77481522500003,185.98017116250003,51.0,85.0
967,186.48909922500002,186.80159891250003,56.0,78.0
968,186.48909922500002,186.81052747500001,60.0,82.0
969,186.91767022500002,186.9765987375,60.0,68.0
970,186.91767022500002,187.13017001250003,63.0,76.0
971,186.70338472500003,187.40874116250004,51.0,76.0
972,187.34624122500003,187.54088388750003,56.0,83.0
973,187.34624122500003,187.55159816250003,68.0,82.0
974,187.56052672500002,187.86231213750003,51.0,75.0
975,186.48909922500002,187.8873121125,44.0,83.0
976,187.77481222500003,187.93552635000003,56.0,83.0
977,188.20338322500004,188.30516883750002,37.0,79.0
978,188.20338322500004,188.63016851250003,56.0,82.0
979,188.20338322500004,188.65695420000003,61.0,78.0
980,189.06052522500002,189.22838220000003,56.0,85.0
981,189.06052522500002,189.23552505000004,65.0,87.0
982,189.703381725,190.06230993750003,56.0,79.0
983,189.703381725,190.08730991250002,61.0,79.0
984,190.13195272500002,190.4140953,56.0,82.0
985,190.56052372500002,190.62123795000002,56.0,61.0
986,190.13195272500002,190.63552365000004,61.0,79.0
987,188.63195422500002,190.83909487500003,49.0,75.0
988,190.774809225,190.9801661625,56.0,89.0
989,190.774809225,191.01409470000002,65.0,87.0
990,190.98909472500003,191.07838035000003,49.0,82.0
991,191.20338022500002,191.37123720000002,56.0,82.0
992,191.63195122500002,191.896236675,56.0,77.0
993,191.63195122500002,191.93373663750003,61.0,78.0
994,192.48909322500003,192.68373588750003,65.0,87.0
995,192.48909322500003,192.68730731250002,61.0,84.0
996,192.70337872500002,192.79266435000002,56.0,53.0
997,191.63195122500002,192.81945003750002,49.0,84.0
998,192.91766422500004,193.0015927125,56.0,71.0
999,192.91766422500004,193.00694985,49.0,65.0
1000,193.13194972500003,193.28730671250003,65.0,91.0
1001,193.13194972500003,193.30873526250002,61.0,86.0
1002,193.13194972500003,193.30873526250002,71.0,83.0
1003,193.34623522500002,193.45516368750003,49.0,55.0
1004,193.56052072500003,193.70694915,65.0,81.0
1005,193.56052072500003,193.71944913750002,61.0,75.0
1006,193.56052072500003,193.78730621250003,70.0,77.0
1007,193.98909172500004,194.49087693750002,61.0,80.0
1008,193.98909172500004,194.49801978750003,65.0,83.0
1009,193.98909172500004,194.52123405000003,68.0,82.0
1010,194.417662725,194.59801968750003,56.0,75.0
1011,194.63194822500003,194.76230523750002,61.0,78.0
1012,195.06051922500004,195.34980465000004,61.0,77.0
1013,195.06051922500004,195.45337597500003,65.0,82.0
1014,195.489090225,195.59623297500002,61.0,63.0
1015,195.06051922500004,195.71587571250004,49.0,75.0
1016,195.91766122500002,196.07301821250002,65.0,93.0
1017,195.91766122500002,196.07480392500003,68.0,85.0
1018,195.91766122500002,196.09087533750002,61.0,86.0
1019,195.06051922500004,196.34623222500002,37.0,84.0
1020,196.34623222500002,196.50873206250003,56.0,62.0
1021,196.56051772500004,196.65158906250002,65.0,86.0
1022,196.56051772500004,196.68908902500002,61.0,83.0
1023,196.56051772500004,196.68908902500002,71.0,82.0
1024,196.98908872500002,197.16587426250004,65.0,80.0
1025,196.98908872500002,197.16944568750003,61.0,74.0
1026,196.98908872500002,197.25873131250003,70.0,81.0
1027,197.41765972500002,197.8658735625,61.0,83.0
1028,197.41765972500002,197.91944493750003,65.0,86.0
1029,197.41765972500002,197.95337347500003,68.0,83.0
1030,198.06051622500001,198.21587321250001,61.0,76.0
1031,197.84623072500003,198.37837305000002,56.0,74.0
1032,198.48908722500002,198.59087283750003,37.0,79.0
1033,198.48908722500002,198.91587251250002,56.0,82.0
1034,198.48908722500002,198.94265820000004,61.0,78.0
1035,199.34622922500003,199.51408620000004,56.0,85.0
1036,199.34622922500003,199.52122905000002,65.0,87.0
1037,199.98908572500002,200.3480139375,56.0,79.0
1038,199.98908572500002,200.37301391250003,61.0,79.0
1039,200.41765672500003,200.69979930000002,56.0,82.0
1040,200.84622772500003,200.90694195000003,56.0,61.0
1041,200.41765672500003,200.92122765000002,61.0,79.0
1042,198.91765822500003,201.12479887500004,49.0,75.0
1043,201.06051322500002,201.26587016250002,56.0,89.0
1044,201.06051322500002,201.29979870000003,65.0,87.0
1045,201.27479872500004,201.36408435,49.0,82.0
1046,201.48908422500003,201.65694120000003,56.0,82.0
1047,201.91765522500003,202.18194067500002,56.0,77.0
1048,201.91765522500003,202.2194406375,61.0,78.0
1049,202.77479722500001,202.96943988750002,65.0,87.0
1050,202.77479722500001,202.97301131250003,61.0,84.0
1051,202.98908272500003,203.07836835000003,56.0,53.0
1052,201.91765522500003,203.10515403750003,49.0,84.0
1053,203.20336822500002,203.28729671250002,56.0,71.0
1054,203.20336822500002,203.29265385000002,49.0,65.0
1055,203.41765372500004,203.57301071250004,65.0,91.0
1056,203.41765372500004,203.59443926250003,61.0,86.0
1057,203.41765372500004,203.59443926250003,71.0,83.0
1058,203.63193922500002,203.7408676875,49.0,55.0
1059,203.846224725,203.99265315000002,65.0,81.0
1060,203.846224725,204.00515313750003,61.0,75.0
1061,203.846224725,204.07301021250004,70.0,77.0
1062,204.27479572500002,204.77658093750003,61.0,80.0
1063,204.27479572500002,204.78372378750004,65.0,83.0
1064,204.27479572500002,204.80693805,68.0,82.0
1065,204.70336672500002,204.88372368750004,56.0,75.0
1066,204.91765222500004,205.04800923750003,61.0,78.0
1067,205.34622322500002,205.63550865000002,61.0,77.0
1068,205.34622322500002,205.73907997500004,65.0,82.0
1069,205.77479422500002,205.88193697500003,61.0,63.0
1070,205.34622322500002,206.00157971250002,49.0,75.0
1071,206.20336522500003,206.35872221250003,65.0,93.0
1072,206.20336522500003,206.36050792500004,68.0,85.0
1073,206.20336522500003,206.37657933750003,61.0,86.0
1074,205.34622322500002,206.63193622500003,37.0,84.0
1075,206.63193622500003,206.79443606250004,56.0,62.0
1076,206.84622172500002,206.93729306250003,65.0,86.0
1077,206.84622172500002,206.97479302500003,61.0,83.0
1078,206.84622172500002,206.97479302500003,71.0,82.0
1079,207.27479272500003,207.45157826250002,65.0,80.0
1080,207.27479272500003,207.45514968750004,61.0,74.0
1081,207.27479272500003,207.5444353125,70.0,81.0
1082,207.70336372500003,208.15157756250002,61.0,83.0
1083,207.70336372500003,208.2051489375,65.0,86.0
1084,207.70336372500003,208.23907747500002,68.0,83.0
1085,208.34622022500002,208.50157721250002,61.0,76.0
1086,208.13193472500004,208.66407705000003,56.0,74.0
1087,208.77479122500003,208.87657683750004,37.0,79.0
1088,208.77479122500003,209.20157651250003,56.0,82.0
1089,208.77479122500003,209.22836220000002,61.0,78.0
1090,209.63193322500004,209.79979020000002,56.0,85.0
1091,209.63193322500004,209.80693305000003,65.0,87.0
1092,210.27478972500003,210.63371793750002,56.0,79.0
1093,210.27478972500003,210.65871791250004,61.0,79.0
1094,210.70336072500004,210.98550330000003,56.0,82.0
1095,211.13193172500002,211.19264595,56.0,61.0
1096,210.70336072500004,211.20693165000003,61.0,79.0
1097,209.20336222500003,211.41050287500002,49.0,75.0
1098,211.34621722500003,211.55157416250003,56.0,89.0
1099,211.34621722500003,211.58550270000003,65.0,87.0
1100,211.56050272500002,211.64978835000002,49.0,82.0
1101,211.77478822500004,211.94264520000002,56.0,82.0
1102,212.203359225,212.46764467500003,56.0,77.0
1103,212.203359225,212.50514463750002,61.0,78.0
1104,213.06050122500002,213.25514388750003,65.0,87.0
1105,213.06050122500002,213.25871531250002,61.0,84.0
1106,213.27478672500004,213.36407235000001,56.0,53.0
1107,212.203359225,213.39085803750004,49.0,84.0
1108,213.48907222500003,213.57300071250003,56.0,71.0
1109,213.48907222500003,213.57835785000003,49.0,65.0
1110,213.70335772500002,213.85871471250002,65.0,91.0
1111,213.70335772500002,213.88014326250004,61.0,86.0
1112,213.70335772500002,213.88014326250004,71.0,83.0
1113,213.91764322500003,214.02657168750002,49.0,55.0
1114,214.13192872500002,214.27835715000003,65.0,81.0
1115,214.13192872500002,214.29085713750004,61.0,75.0
1116,214.13192872500002,214.35871421250002,70.0,77.0
1117,214.56049972500003,215.06228493750004,61.0,80.0
1118,214.56049972500003,215.06942778750002,65.0,83.0
1119,214.56049972500003,215.09264205000002,68.0,82.0
1120,214.98907072500003,215.16942768750002,56.0,75.0
1121,215.20335622500002,215.33371323750004,61.0,78.0
1122,215.59978440000003,215.86049842500003,56.0,86.0
1123,215.60335582500002,216.07478392500002,61.0,84.0
1124,216.02121255000003,216.18014096250002,56.0,82.0
1125,215.60157011250004,216.20692665000004,49.0,89.0
1126,215.59799868750002,216.23192662500003,65.0,85.0
1127,216.43549785000002,216.87656883750003,60.0,87.0
1128,216.43014071250002,216.88371168750004,56.0,83.0
1129,217.07656863750003,217.11585431250003,60.0,66.0
1130,217.08192577500003,217.12478287500002,63.0,66.0
1131,217.06049722500003,217.18728281250003,56.0,86.0
1132,216.87121170000003,217.29085413750002,51.0,83.0
1133,216.44085498750002,217.31763982500001,44.0,87.0
1134,217.34621122500002,217.66049662500004,54.0,74.0
1135,217.34621122500002,217.73906797500004,58.0,72.0
1136,217.34621122500002,217.76406795000003,61.0,78.0
1137,217.77478222500002,218.08728191250003,49.0,62.0
1138,217.98906772500004,218.21049607500004,66.0,83.0
1139,217.98906772500004,218.28192457500003,54.0,84.0
1140,218.20335322500003,218.56763857500002,49.0,51.0
1141,218.41763872500002,218.58906712500004,54.0,82.0
1142,217.34621122500002,218.59620997500002,42.0,83.0
1143,218.41763872500002,218.89085253750002,58.0,84.0
1144,218.84620972500002,218.92299536250002,54.0,78.0
1145,218.41763872500002,218.93370963750002,61.0,84.0
1146,219.06049522500004,219.60156611250002,60.0,83.0
1147,219.06049522500004,219.75335167500003,56.0,83.0
1148,219.48906622500002,219.97478002500003,51.0,67.0
1149,219.06049522500004,220.13727986250004,44.0,82.0
1150,219.91763722500002,220.26763687500002,56.0,85.0
1151,219.91763722500002,220.27477972500003,60.0,93.0
1152,219.91763722500002,220.32477967500003,63.0,85.0
1153,220.34620822500003,220.45513668750002,51.0,77.0
1154,220.77477922500003,220.93192192500004,54.0,79.0
1155,220.77477922500003,221.05513608750002,60.0,83.0
1156,220.77477922500003,221.26406445000003,65.0,84.0
1157,221.20335022500004,221.34977865000002,60.0,83.0
1158,221.41763572500003,221.66406405000004,65.0,83.0
1159,221.41763572500003,221.67120690000002,68.0,82.0
1160,221.41763572500003,221.68192117500004,60.0,84.0
1161,220.77477922500003,221.81406390000004,53.0,78.0
1162,221.84620672500003,221.99799228750004,60.0,85.0
1163,221.84620672500003,222.07477792500003,65.0,86.0
1164,222.27477772500004,222.38906332500002,60.0,80.0
1165,222.48906322500002,222.95691990000003,61.0,84.0
1166,222.48906322500002,222.98727701250002,58.0,83.0
1167,222.91763422500003,223.38906232500003,53.0,69.0
1168,223.34620522500003,223.54263360000002,65.0,87.0
1169,223.34620522500003,223.54977645000002,58.0,85.0
1170,223.56049072500002,223.77299051250003,53.0,81.0
1171,222.48906322500002,223.78191907500002,46.0,82.0
1172,223.77477622500004,223.87299041250003,58.0,71.0
1173,223.77477622500004,223.91227608750003,61.0,85.0
1174,223.98906172500003,224.06227593750003,58.0,71.0
1175,224.20334722500002,224.40334702500002,58.0,83.0
1176,224.20334722500002,224.60513253750003,63.0,82.0
1177,224.20334722500002,224.97656073750002,51.0,84.0
1178,224.84620372500004,224.98906072500003,58.0,86.0
1179,224.84620372500004,224.99263215000002,66.0,83.0
1180,225.27477472500004,225.38370318750003,58.0,82.0
1181,225.27477472500004,225.49263165000002,63.0,83.0
1182,225.70334572500002,225.76763137500004,58.0,62.0
1183,225.91763122500004,226.18013096250002,56.0,82.0
1184,225.91763122500004,226.18013096250002,60.0,81.0
1185,226.34620222500004,226.43370213750003,56.0,66.0
1186,226.34620222500004,226.45513068750003,63.0,77.0
1187,226.56048772500003,226.75334467500002,68.0,83.0
1188,226.56048772500003,226.80691605000004,56.0,82.0
1189,226.98905872500004,227.17120140000003,56.0,83.0
1190,226.98905872500004,227.19441566250003,63.0,83.0
1191,226.13191672500002,227.19977280000003,51.0,71.0
1192,225.91763122500004,227.26048702500003,44.0,82.0
1193,227.63191522500003,227.86584356250003,56.0,83.0
1194,227.63191522500003,228.07298621250004,61.0,81.0
1195,228.06048622500003,228.13370043750004,56.0,69.0
1196,228.27477172500002,228.49441436250004,56.0,86.0
1197,228.27477172500002,228.52655718750003,65.0,86.0
1198,228.70334272500003,228.84441401250004,56.0,84.0
1199,228.70334272500003,228.84619972500002,61.0,84.0
1200,227.63191522500003,228.93727106250003,49.0,84.0
1201,229.34619922500002,229.57655613750003,61.0,82.0
1202,229.34619922500002,229.60512753750004,63.0,79.0
1203,229.34619922500002,229.62298466250002,56.0,74.0
1204,229.34619922500002,229.79798448750003,59.0,73.0
1205,229.34619922500002,230.07476992500003,65.0,83.0
1206,230.20334122500003,230.62119795000004,56.0,84.0
1207,230.20334122500003,230.64619792500002,59.0,86.0
1208,229.34619922500002,230.70691215000002,44.0,83.0
1209,230.20334122500003,230.73012641250003,63.0,84.0
1210,230.20334122500003,230.78012636250003,65.0,86.0
1211,230.63191222500004,230.79798348750003,51.0,80.0
1212,230.84619772500002,230.95512618750004,56.0,83.0
1213,231.06048322500004,231.50155421250003,54.0,81.0
1214,231.06048322500004,231.52833990000002,58.0,82.0
1215,231.48905422500002,231.71941113750003,49.0,60.0
1216,231.70333972500003,231.89262525000004,54.0,83.0
1217,231.70333972500003,231.89262525000004,58.0,88.0
1218,231.70333972500003,231.92119665000004,61.0,85.0
1219,231.91762522500002,232.14976785000002,49.0,71.0
1220,231.06048322500004,232.24083918750003,42.0,83.0
1221,232.13191072500004,232.28548200000003,54.0,87.0
1222,232.13191072500004,232.31583911250004,66.0,83.0
1223,232.77476722500003,233.24798103750004,56.0,80.0
1224,232.77476722500003,233.24976675000002,60.0,78.0
1225,233.20333822500004,233.49619507500003,51.0,68.0
1226,233.41762372500003,233.64440921250002,60.0,86.0
1227,233.41762372500003,233.66940918750004,56.0,85.0
1228,233.41762372500003,233.67298061250003,63.0,84.0
1229,233.63190922500004,233.93726606250004,51.0,65.0
1230,233.84619472500003,233.99619457500003,56.0,86.0
1231,232.77476722500003,234.02833740000003,44.0,82.0
1232,233.84619472500003,234.04083738750003,68.0,79.0
1233,234.48905122500003,234.74976525000002,60.0,78.0
1234,234.48905122500003,234.90512223750002,65.0,82.0
1235,234.91762222500003,235.00155071250003,60.0,70.0
1236,234.48905122500003,235.29797898750004,41.0,84.0
1237,235.13190772500002,235.33190752500002,60.0,85.0
1238,235.13190772500002,235.34619322500004,68.0,83.0
1239,235.56047872500002,235.66762147500003,65.0,87.0
1240,235.56047872500002,235.68547860000004,60.0,86.0
1241,236.20333522500002,236.61940623750004,58.0,77.0
1242,236.20333522500002,236.65512048750003,61.0,79.0
1243,236.84619172500004,236.91940593750004,58.0,72.0
1244,236.63190622500002,237.10690575000004,53.0,62.0
1245,237.06047722500003,237.30690555000004,65.0,89.0
1246,237.06047722500003,237.31404840000002,58.0,89.0
1247,237.27476272500004,237.56404815000002,53.0,82.0
1248,237.48904822500003,237.65690520000004,62.0,82.0
1249,236.20333522500002,237.67119090000003,46.0,83.0
1250,237.48904822500003,237.67833375000004,58.0,81.0
1251,237.91761922500004,238.18904752500003,58.0,83.0
1252,237.91761922500004,238.38190447500003,63.0,83.0
1253,238.56047572500003,238.81761832500004,58.0,84.0
1254,238.56047572500003,238.84261830000003,66.0,82.0
1255,237.91761922500004,239.12297516250004,51.0,85.0
1256,239.63190322500003,239.94440291250004,56.0,78.0
1257,239.63190322500003,239.95333147500003,60.0,82.0
1258,240.06047422500004,240.11940273750002,60.0,68.0
1259,240.06047422500004,240.27297401250004,63.0,76.0
1260,239.84618872500002,240.55154516250002,51.0,76.0
1261,240.48904522500004,240.68368788750004,56.0,83.0
1262,240.48904522500004,240.69440216250004,68.0,82.0
1263,240.70333072500003,241.00511613750004,51.0,75.0
1264,239.63190322500003,241.03011611250002,44.0,83.0
1265,240.91761622500002,241.07833035000004,56.0,83.0
1266,241.41225858750002,242.87475712500003,65.0,78.0
1267,241.32297296250002,242.90154281250003,61.0,78.0
1268,241.26404445000003,242.90689995000002,56.0,70.0
1269,241.33368723750004,242.93904277500002,37.0,78.0
