,start,end,pitch,velocity
0,21.604714883333333,22.107888058333334,65.0,95.0
1,22.148685883333332,22.9487765625,65.0,88.0
2,23.236627883333334,23.578876304166666,67.0,102.0
3,23.508613383333334,23.748867241666666,69.0,100.0
4,23.780598883333333,24.39709935,72.0,122.0
5,24.324569883333332,24.39709935,72.0,112.0
6,25.956482883333333,26.799637933333333,74.0,122.0
7,27.044424883333335,27.427471129166666,74.0,122.0
8,27.588395883333334,28.019039591666665,72.0,117.0
9,28.132366883333333,28.57660986666667,70.0,122.0
10,28.676337883333332,28.957389566666667,72.0,107.0
11,28.948323383333335,29.20217651666667,74.0,97.0
12,29.220308883333335,29.485494745833332,72.0,99.0
13,29.492294383333334,29.737081333333332,70.0,112.0
14,29.764279883333334,30.303717791666667,67.0,100.0
15,30.308250883333333,31.46872235,65.0,112.0
16,32.48413488333333,32.75838692916667,64.0,95.0
17,32.75612038333333,32.98957460416667,65.0,85.0
18,33.02810588333333,33.791931829166664,67.0,99.0
19,34.11604788333333,34.48322830833333,69.0,117.0
20,34.660018883333336,35.03626549166667,67.0,117.0
21,35.203989883333335,36.30804914375,65.0,117.0
22,36.84703975833333,37.629149543749996,64.0,100.0
23,37.67272750833333,37.91355310208333,65.0,73.0
24,37.94795675833333,38.138323656249995,67.0,95.0
25,38.22318600833333,38.46401160208333,69.0,95.0
26,38.49841525833333,38.92502059583333,65.0,81.0
27,39.04887375833333,39.95254312916666,60.0,102.0
28,41.25070775833333,41.6268544,65.0,102.0
29,41.80116625833333,42.537404502083334,65.0,99.0
30,42.90208325833333,43.18419323958333,67.0,112.0
31,43.17731250833333,43.48694541458333,69.0,97.0
32,43.45254175833333,43.7874040125,72.0,107.0
33,44.00300025833333,45.02822921458333,72.0,102.0
34,45.65437575833333,46.326248047916664,74.0,127.0
35,46.74670255833333,47.28988433125,74.0,127.0
36,47.29215705833333,47.680793389583336,72.0,122.0
37,47.837611558333336,48.273975158333336,70.0,112.0
38,48.383066058333334,48.664884216666664,72.0,112.0
39,48.65579330833333,48.91033874166666,74.0,97.0
40,48.92852055833333,49.1921569,72.0,127.0
41,49.201247808333335,49.41942960833333,70.0,112.0
42,49.47397505833333,49.91261138541667,69.0,99.0
43,50.019429558333336,51.02624765625,67.0,99.0
44,52.201247558333336,52.59897479791667,72.0,117.0
45,52.746702058333334,53.31715655625,65.0,99.0
46,53.83761105833334,54.1421564875,67.0,95.0
47,54.11033830833333,54.31033829166667,69.0,90.0
48,54.383065558333335,54.733065529166666,69.0,112.0
49,54.92852005833333,56.34442903125,62.0,117.0
50,56.564883558333335,57.105792604166666,64.0,97.0
51,57.383065308333336,57.594428927083335,62.0,92.0
52,57.65579255833333,57.928519808333334,64.0,92.0
53,57.928519808333334,58.185337968750005,62.0,77.0
54,58.20124705833334,58.70579247083333,60.0,85.0
55,58.746701558333335,60.99897409791667,65.0,96.0
56,62.03079219375,62.376246710416666,70.0,117.0
57,62.364883075,62.76942849583334,72.0,97.0
58,62.75579213333334,63.06715574375001,74.0,93.0
59,63.055792108333335,65.21715556458334,72.0,107.0
60,66.35806456041666,66.67624635208334,70.0,100.0
61,66.72851907500001,67.09442813541668,72.0,96.0
62,67.15579176666667,67.43306447083333,70.0,99.0
63,67.47397355833334,68.58533710208334,72.0,97.0
64,70.71488237916667,71.13760961666667,70.0,117.0
65,71.10124598333334,71.49897322291667,72.0,99.0
66,71.46488231666667,71.79215501666667,74.0,107.0
67,71.78988228958333,73.61942759166666,65.0,92.0
68,75.08306383333334,75.50579107083334,64.0,100.0
69,75.45579107500001,75.81715468125,65.0,88.0
70,75.8103365,76.17397283333334,67.0,86.0
71,76.18306374166667,78.4694271875,60.0,100.0
72,79.51033619166668,79.88988161458335,70.0,117.0
73,79.85579070833333,80.24897249375,72.0,95.0
74,80.20351795208333,80.53306337916666,74.0,97.0
75,80.52169974375,83.11942680000001,72.0,122.0
76,83.8694267375,84.26033579583334,70.0,107.0
77,84.21488125416667,84.61260849375,72.0,85.0
78,84.5785175875,84.96260846458334,70.0,82.0
79,84.92851755833334,86.89215375833334,72.0,95.0
80,88.21033546666666,88.64442633958333,70.0,112.0
81,88.60578997916667,89.03306267083335,72.0,92.0
82,88.99442631041667,89.41260809375001,74.0,107.0
83,89.31488082916667,90.53988072708334,65.0,92.0
84,92.53760783333334,92.94669870833334,64.0,97.0
85,92.92624416458334,93.26715322708334,65.0,89.0
86,93.32851685833333,93.72624409791668,67.0,93.0
87,93.69669864583335,96.03197750208334,65.0,95.0
88,115.58405755833333,116.08860297083334,65.0,95.0
89,116.12951205833333,116.93178471875,65.0,88.0
90,117.22042105833333,117.56360284791667,67.0,102.0
91,117.49314830833333,117.73405737916667,69.0,100.0
92,117.76587555833333,118.384057325,72.0,122.0
93,118.31133005833334,118.384057325,72.0,112.0
94,119.94769355833333,120.79314803333334,74.0,122.0
95,121.03860255833334,121.42269343541666,74.0,122.0
96,121.58405705833333,122.01587520416666,72.0,117.0
97,122.12951155833333,122.57496606666666,70.0,122.0
98,122.67496605833334,122.95678421666666,72.0,107.0
99,122.94769330833333,123.20223874166666,74.0,97.0
100,123.22042055833333,123.48632962708334,72.0,99.0
101,123.49314780833333,123.73860233333333,70.0,112.0
102,123.76587505833334,124.30678410416667,67.0,100.0
103,124.31132955833334,125.474965825,65.0,112.0
104,126.49314755833333,126.76814753541667,64.0,95.0
105,126.76587480833334,126.99996569791666,65.0,85.0
106,127.03860205833334,127.80451108541666,67.0,99.0
107,128.12951105833332,128.49769284583334,69.0,117.0
108,128.67496555833333,129.05223825416667,67.0,117.0
109,129.22042005833333,130.32269269375,65.0,117.0
110,130.85678355833335,131.63178349375,64.0,100.0
111,131.67496530833333,131.91360165208334,65.0,73.0
112,131.94769255833333,132.13632890625001,67.0,95.0
113,132.22041980833333,132.45905615208335,69.0,95.0
114,132.49314705833334,132.91587429583333,65.0,81.0
115,133.03860155833334,133.93405602916667,60.0,102.0
116,135.22041955833333,135.5931468,65.0,102.0
117,135.76587405833334,136.49541945208333,65.0,99.0
118,136.85678305833335,137.13632848958335,67.0,112.0
119,137.12951030833335,137.43632846458334,69.0,97.0
120,137.40223755833333,137.7340557125,72.0,107.0
121,137.94769205833333,138.96360106458334,72.0,102.0
122,139.58405555833335,140.25451004791665,74.0,127.0
123,140.67496455833333,141.21814633125,74.0,127.0
124,141.22041905833333,141.60905538958335,72.0,122.0
125,141.76587355833334,142.20223715833333,70.0,112.0
126,142.31132805833334,142.59314621666667,72.0,112.0
127,142.58405530833335,142.83860074166668,74.0,97.0
128,142.85678255833335,143.1204189,72.0,127.0
129,143.12950980833335,143.34769160833332,70.0,112.0
130,143.40223705833336,143.84087338541667,69.0,99.0
131,143.94769155833333,144.95450965625,67.0,99.0
132,146.12950955833333,146.52723679791666,72.0,117.0
133,146.67496405833333,147.24541855625,65.0,99.0
134,147.76587305833334,148.0704184875,67.0,95.0
135,148.03860030833334,148.23860029166667,69.0,90.0
136,148.31132755833335,148.66132752916667,69.0,112.0
137,148.85678205833335,150.27269103125002,62.0,117.0
138,150.49314555833334,151.03405460416667,64.0,97.0
139,151.31132730833335,151.52269092708335,62.0,92.0
140,151.58405455833335,151.85678180833332,64.0,92.0
141,151.85678180833332,152.11359996875,62.0,77.0
142,152.12950905833333,152.63405447083335,60.0,85.0
143,152.67496355833333,154.92723609791668,65.0,96.0
144,155.95905419375,156.30450871041668,70.0,117.0
145,156.293145075,156.69769049583334,72.0,97.0
146,156.68405413333335,156.99541774375,74.0,93.0
147,156.98405410833334,159.14541756458334,72.0,107.0
148,160.28632656041668,160.60450835208334,70.0,100.0
149,160.656781075,161.02269013541667,72.0,96.0
150,161.08405376666667,161.36132647083335,70.0,99.0
151,161.40223555833333,162.51359910208333,72.0,97.0
152,164.64314437916667,165.06587161666667,70.0,117.0
153,165.02950798333333,165.4272352229167,72.0,99.0
154,165.39314431666668,165.72041701666666,74.0,107.0
155,165.71814428958334,167.54768959166668,65.0,92.0
156,169.01132583333333,169.43405307083333,64.0,100.0
157,169.384053075,169.74541668125,65.0,88.0
158,169.73859850000002,170.10223483333334,67.0,86.0
159,170.1113257416667,172.39768918750002,60.0,100.0
160,173.43859819166667,173.81814361458333,70.0,117.0
161,173.78405270833335,174.17723449375,72.0,95.0
162,174.13177995208335,174.46132537916668,74.0,97.0
163,174.44996174375,177.0476888,72.0,122.0
164,177.7976887375,178.18859779583335,70.0,107.0
165,178.14314325416666,178.54087049375,72.0,85.0
166,178.5067795875,178.89087046458334,70.0,82.0
167,178.85677955833336,180.82041575833335,72.0,95.0
168,182.13859746666668,182.57268833958335,70.0,112.0
169,182.5340519791667,182.96132467083333,72.0,92.0
170,182.92268831041667,183.34087009375003,74.0,107.0
171,183.2431428291667,184.46814272708335,65.0,92.0
172,186.46586983333333,186.87496070833333,64.0,97.0
173,186.85450616458334,187.19541522708334,65.0,89.0
174,187.25677885833335,187.65450609791668,67.0,93.0
175,187.62496064583334,189.94996045208336,65.0,95.0
