,start,end,pitch,velocity
0,38.432612239583335,38.66338098958333,71.0,107.0
1,38.66338098958333,38.917226614583335,69.0,92.0
2,38.894149739583334,39.12299541666667,71.0,102.0
3,39.12491848958334,39.35568723958333,71.0,104.0
4,39.35568723958333,39.60568671875,69.0,104.0
5,39.586455989583335,39.81722473958333,71.0,107.0
6,39.81722473958333,40.740299739583335,69.0,107.0
7,40.740299739583335,41.201837239583334,71.0,119.0
8,41.201837239583334,41.66337473958333,69.0,113.0
9,41.66337473958333,41.95952796875,67.0,119.0
10,41.894143489583335,44.89413723958334,64.0,114.0
11,44.89413723958334,45.122982916666665,74.0,110.0
12,45.12490598958333,45.355674739583336,74.0,102.0
13,45.355674739583336,45.817212239583334,76.0,113.0
14,45.817212239583334,46.04798098958334,74.0,104.0
15,46.04798098958334,46.509518489583336,76.0,110.0
16,46.509518489583336,47.663362239583336,74.0,108.0
17,47.663362239583336,48.122976666666666,69.0,102.0
18,48.124899739583334,48.58643723958333,69.0,102.0
19,48.58643723958333,49.50758916666667,74.0,96.0
20,49.50951223958334,49.78066552083333,74.0,102.0
21,49.74028098958333,53.199889166666665,71.0,100.0
22,53.20181223958333,53.432580989583336,71.0,100.0
23,53.432580989583336,53.66334973958333,69.0,87.0
24,53.66334973958333,53.894118489583335,71.0,88.0
25,53.894118489583335,54.12296416666667,69.0,92.0
26,54.12488723958333,54.35565598958333,69.0,88.0
27,54.35565598958333,54.81719348958333,71.0,107.0
28,54.81719348958333,55.50949973958333,69.0,98.0
29,55.50949973958333,55.97103723958333,71.0,104.0
30,55.97103723958333,56.201805989583335,69.0,102.0
31,56.201805989583335,56.66334348958333,67.0,94.0
32,56.66334348958333,59.663337239583335,64.0,102.0
33,59.663337239583335,59.89218291666667,69.0,96.0
34,59.89410598958333,60.12487473958333,69.0,94.0
35,60.12487473958333,60.58641223958333,71.0,107.0
36,60.58641223958333,60.817180989583335,69.0,108.0
37,60.817180989583335,61.04794973958333,67.0,91.0
38,61.04794973958333,61.27871848958333,69.0,107.0
39,61.27871848958333,62.663330989583336,67.0,104.0
40,62.663330989583336,62.89409973958333,64.0,88.0
41,62.89409973958333,63.35563723958333,69.0,102.0
42,63.35563723958333,63.584482916666666,67.0,102.0
43,63.586405989583334,63.817174739583336,67.0,85.0
44,63.817174739583336,64.04794348958333,64.0,96.0
45,64.04794348958333,66.58639973958333,67.0,104.0
46,67.04793723958333,67.27678291666666,62.0,102.0
47,67.27870598958333,67.50947473958334,62.0,96.0
48,67.50947473958334,68.89216416666666,67.0,113.0
49,68.89408723958333,69.12293291666667,67.0,113.0
50,69.12485598958334,69.35562473958333,67.0,102.0
51,69.35562473958333,69.81716223958334,69.0,119.0
52,69.81716223958334,70.73831416666667,64.0,117.0
53,70.74023723958334,70.96908291666666,64.0,113.0
54,70.97100598958333,71.20177473958333,64.0,107.0
55,71.20177473958333,71.66331223958333,71.0,120.0
56,71.66331223958333,72.12292666666667,66.0,119.0
57,72.12484973958334,72.58638723958333,66.0,119.0
58,72.58638723958333,72.81523291666667,64.0,94.0
59,72.58638723958333,72.81523291666667,64.0,117.0
60,72.81715598958333,73.27869348958333,64.0,117.0
61,73.27869348958333,73.50946223958333,62.0,100.0
62,73.50946223958333,74.43061416666667,64.0,113.0
63,74.43253723958334,74.66330598958334,64.0,113.0
64,74.66330598958334,74.89407473958333,62.0,107.0
65,74.89407473958333,75.35561223958334,64.0,116.0
66,75.35561223958334,75.58638098958333,62.0,107.0
67,75.58638098958333,76.50945598958333,67.0,117.0
68,76.50945598958333,76.74022473958334,62.0,108.0
69,76.74022473958334,76.97099348958334,67.0,117.0
70,76.97099348958334,77.43060791666667,69.0,114.0
71,77.43253098958333,77.66137666666667,69.0,117.0
72,77.66329973958334,78.12483723958333,69.0,119.0
73,78.12483723958333,79.04791223958334,71.0,119.0
74,79.04791223958334,79.27868098958334,62.0,113.0
75,79.27868098958334,81.81713723958333,59.0,107.0
76,81.81713723958333,82.04598291666667,62.0,91.0
77,82.04790598958333,82.27867473958334,62.0,110.0
78,82.27867473958334,83.19982666666667,67.0,120.0
79,83.20174973958333,83.44021078125,67.0,119.0
80,83.43251848958333,83.89213291666667,64.0,114.0
81,83.89405598958334,84.12482473958333,64.0,114.0
82,84.12482473958333,84.35367041666667,69.0,120.0
83,84.35559348958333,84.81713098958333,69.0,110.0
84,84.81713098958333,85.04597666666666,64.0,113.0
85,85.04789973958333,85.50751416666667,64.0,117.0
86,85.50943723958333,85.97097473958334,64.0,113.0
87,85.97097473958334,86.43251223958333,71.0,108.0
88,86.43251223958333,86.89212666666667,66.0,123.0
89,86.89404973958334,87.35558723958333,66.0,123.0
90,87.35558723958333,87.64020203125,64.0,119.0
91,87.58635598958334,88.04789348958333,62.0,100.0
92,88.04789348958333,89.19981416666667,64.0,116.0
93,89.20173723958334,89.43250598958333,64.0,114.0
94,89.43250598958333,89.66327473958333,62.0,110.0
95,89.66327473958333,90.12481223958333,64.0,117.0
96,90.12481223958333,90.35558098958333,62.0,107.0
97,90.35558098958333,90.81711848958334,67.0,116.0
98,90.81711848958334,91.27673291666667,64.0,110.0
99,91.27865598958333,92.43249973958333,64.0,108.0
100,92.43249973958333,92.89211416666667,57.0,113.0
101,92.89403723958334,93.12480598958334,57.0,108.0
102,93.12480598958334,97.50941223958334,55.0,104.0
103,97.50941223958334,97.74018098958334,71.0,113.0
104,97.74018098958334,97.97094973958333,69.0,94.0
105,97.97094973958333,98.43056416666667,71.0,117.0
106,98.43248723958334,98.66133291666667,71.0,108.0
107,98.66325598958333,99.12479348958334,71.0,117.0
108,99.12479348958334,99.81709973958334,69.0,117.0
109,99.81709973958334,100.27863723958333,71.0,116.0
110,100.27863723958333,100.74017473958334,69.0,114.0
111,100.74017473958334,101.20171223958333,67.0,119.0
112,101.20171223958333,103.97093723958334,64.0,114.0
113,103.97093723958334,104.20170598958333,74.0,94.0
114,104.20170598958333,104.66324348958334,76.0,113.0
115,104.66324348958334,105.12478098958333,74.0,110.0
116,105.12478098958333,105.58439541666667,76.0,116.0
117,105.58631848958333,106.04785598958334,76.0,110.0
118,106.04785598958334,107.19977666666666,74.0,113.0
119,107.20169973958333,107.66131416666667,74.0,117.0
120,107.66323723958334,108.12477473958333,74.0,114.0
121,108.12477473958333,108.58631223958334,76.0,117.0
122,108.58631223958334,112.27668916666667,71.0,119.0
123,112.27861223958334,112.50938098958333,71.0,108.0
124,112.50938098958333,112.74014973958333,69.0,92.0
125,112.74014973958333,113.19976416666667,71.0,113.0
126,113.20168723958334,113.43053291666666,71.0,107.0
127,113.43245598958333,113.89399348958334,71.0,107.0
128,113.89399348958334,114.58629973958334,69.0,104.0
129,114.58629973958334,115.04783723958333,71.0,107.0
130,115.04783723958333,115.27860598958334,69.0,104.0
131,115.27860598958334,115.50745166666667,67.0,98.0
132,115.50937473958334,115.96898916666667,67.0,107.0
133,115.97091223958333,118.50744541666667,67.0,104.0
134,118.50936848958334,118.73821416666667,67.0,87.0
135,118.74013723958333,119.20167473958334,67.0,102.0
136,119.20167473958334,119.43244348958333,69.0,113.0
137,119.43244348958333,121.50936223958334,67.0,108.0
138,121.50936223958334,121.7420540625,64.0,93.0
139,121.74013098958334,121.97089973958333,62.0,86.0
140,121.97089973958333,122.43243723958334,69.0,107.0
141,122.43243723958334,122.66320598958333,64.0,93.0
142,122.66320598958333,123.1035896875,67.0,110.0
143,155.66313723958334,155.89198291666668,62.0,102.0
144,155.89390598958335,156.12467473958333,62.0,96.0
145,156.12467473958333,157.50736416666666,67.0,113.0
146,157.50928723958333,157.73813291666667,67.0,113.0
147,157.74005598958334,157.97082473958332,67.0,102.0
148,157.97082473958332,158.43236223958334,69.0,119.0
149,158.43236223958334,159.35351416666666,64.0,117.0
150,159.35543723958332,159.58428291666667,64.0,113.0
151,159.58620598958333,159.81697473958334,64.0,107.0
152,159.81697473958334,160.27851223958334,71.0,120.0
153,160.27851223958334,160.73812666666666,66.0,119.0
154,160.74004973958333,161.20158723958335,66.0,119.0
155,161.20158723958335,161.43043291666666,64.0,94.0
156,161.20158723958335,161.43043291666666,64.0,117.0
157,161.43235598958333,161.89389348958335,64.0,117.0
158,161.89389348958335,162.12466223958333,62.0,100.0
159,162.12466223958333,163.04581416666667,64.0,113.0
160,163.04773723958334,163.27850598958332,64.0,113.0
161,163.27850598958332,163.50927473958333,62.0,107.0
162,163.50927473958333,163.97081223958332,64.0,116.0
163,163.97081223958332,164.20158098958333,62.0,107.0
164,164.20158098958333,165.12465598958335,67.0,117.0
165,165.12465598958335,165.35542473958333,62.0,108.0
166,165.35542473958333,165.58619348958334,67.0,117.0
167,165.58619348958334,166.04580791666666,69.0,114.0
168,166.04773098958333,166.27657666666667,69.0,117.0
169,166.27849973958334,166.74003723958333,69.0,119.0
170,166.74003723958333,167.66311223958334,71.0,119.0
171,167.66311223958334,167.89388098958332,62.0,113.0
172,167.89388098958332,170.43233723958335,59.0,107.0
173,170.43233723958335,170.66118291666666,62.0,91.0
174,170.66310598958333,170.89387473958334,62.0,110.0
175,170.89387473958334,171.81502666666665,67.0,120.0
176,171.81694973958332,172.05541078125,67.0,119.0
177,172.04771848958333,172.50733291666666,64.0,114.0
178,172.50925598958332,172.74002473958333,64.0,114.0
179,172.74002473958333,172.96887041666668,69.0,120.0
180,172.97079348958334,173.43233098958333,69.0,110.0
181,173.43233098958333,173.66117666666668,64.0,113.0
182,173.66309973958334,174.12271416666667,64.0,117.0
183,174.12463723958334,174.58617473958333,64.0,113.0
184,174.58617473958333,175.04771223958335,71.0,108.0
185,175.04771223958335,175.50732666666667,66.0,123.0
186,175.50924973958334,175.97078723958333,66.0,123.0
187,175.97078723958333,176.25540203125001,64.0,119.0
188,176.20155598958334,176.66309348958333,62.0,100.0
189,176.66309348958333,177.81501416666666,64.0,116.0
190,177.81693723958332,178.04770598958333,64.0,114.0
191,178.04770598958333,178.27847473958334,62.0,110.0
192,178.27847473958334,178.74001223958334,64.0,117.0
193,178.74001223958334,178.97078098958335,62.0,107.0
194,178.97078098958335,179.43231848958334,67.0,116.0
195,179.43231848958334,179.89193291666666,64.0,110.0
196,179.89385598958333,181.04769973958332,64.0,108.0
197,181.04769973958332,181.50731416666667,57.0,113.0
198,181.50923723958334,181.74000598958332,57.0,108.0
199,181.74000598958332,182.89384973958335,55.0,104.0
200,185.20153723958333,185.43038291666667,62.0,102.0
201,185.43230598958334,185.66307473958332,62.0,96.0
202,185.66307473958332,187.04576416666666,67.0,113.0
203,187.04768723958333,187.27653291666667,67.0,113.0
204,187.27845598958334,187.50922473958335,67.0,102.0
205,187.50922473958335,187.97076223958334,69.0,119.0
206,187.97076223958334,188.89191416666668,64.0,117.0
207,188.89383723958335,189.12268291666666,64.0,113.0
208,189.12460598958333,189.35537473958334,64.0,107.0
209,189.35537473958334,189.81691223958333,71.0,120.0
210,189.81691223958333,190.27652666666665,66.0,119.0
211,190.27844973958332,190.73998723958334,66.0,119.0
212,190.73998723958334,190.96883291666666,64.0,117.0
213,190.97075598958332,191.43229348958334,64.0,117.0
214,191.43229348958334,191.66306223958333,62.0,100.0
215,191.66306223958333,192.58421416666667,64.0,113.0
216,192.58613723958334,192.81690598958335,64.0,113.0
217,192.81690598958335,193.04767473958333,62.0,107.0
218,193.04767473958333,193.50921223958335,64.0,116.0
219,193.50921223958335,193.97074973958334,62.0,107.0
220,193.97074973958334,194.43036416666666,64.0,117.0
221,194.43228723958333,194.66305598958334,64.0,94.0
222,194.66305598958334,195.81497666666667,67.0,114.0
223,195.81689973958333,196.27843723958333,67.0,119.0
224,196.27843723958333,197.20151223958334,69.0,119.0
225,197.20151223958334,197.43228098958335,62.0,113.0
226,197.43228098958335,199.97073723958334,59.0,107.0
227,199.97073723958334,200.19958291666666,62.0,91.0
228,200.20150598958332,200.43227473958333,62.0,110.0
229,200.43227473958333,201.81496416666667,67.0,120.0
230,201.81688723958334,202.04573291666668,67.0,108.0
231,202.04765598958335,202.27842473958333,67.0,107.0
232,202.27842473958333,202.73996223958335,69.0,119.0
233,202.73996223958335,203.66111416666666,64.0,110.0
234,203.66303723958333,203.89188291666667,64.0,114.0
235,203.89380598958334,204.12457473958332,64.0,114.0
236,204.12457473958332,204.58611223958334,71.0,108.0
237,204.58611223958334,205.04572666666667,66.0,123.0
238,205.04764973958333,205.50918723958333,66.0,123.0
239,205.50918723958333,205.79380203125,64.0,119.0
240,205.73995598958334,206.20149348958333,62.0,100.0
241,206.20149348958333,207.35341416666668,64.0,116.0
242,207.35533723958332,207.58610598958333,64.0,114.0
243,207.58610598958333,207.81687473958334,62.0,110.0
244,207.81687473958334,208.27841223958333,64.0,117.0
245,208.27841223958333,210.58609973958335,62.0,107.0
246,210.58609973958335,211.04763723958334,57.0,113.0
247,211.04763723958334,211.50917473958333,55.0,113.0
248,211.50917473958333,215.20147473958335,52.0,104.0
