,start,end,pitch,velocity
0,8.432674739583334,11.2961303125,64.0,88.0
1,8.432674739583334,11.557668229166667,59.0,83.0
2,8.432674739583334,11.632668072916667,52.0,84.0
3,8.432674739583334,11.667283385416667,67.0,85.0
4,12.124974739583333,15.428814010416668,57.0,75.0
5,12.124974739583333,15.436506302083334,66.0,80.0
6,12.124974739583333,15.484583125,50.0,79.0
7,12.124974739583333,15.580736770833333,62.0,85.0
8,15.817274739583333,19.0038065625,52.0,77.0
9,15.817274739583333,19.05572953125,59.0,71.0
10,15.817274739583333,19.069191041666667,64.0,71.0
11,15.817274739583333,19.149960104166666,67.0,75.0
12,19.509574739583332,22.803798645833332,57.0,78.0
13,19.509574739583332,22.82879859375,66.0,79.0
14,19.509574739583332,22.876875416666667,50.0,78.0
15,19.509574739583332,22.93841375,62.0,85.0
16,23.201874739583335,26.053791875,64.0,83.0
17,23.201874739583335,26.084561041666667,74.0,86.0
18,22.971105989583332,26.092253333333332,67.0,79.0
19,23.201874739583335,26.138407083333334,48.0,82.0
20,26.894174739583335,29.788399479166667,71.0,83.0
21,26.894174739583335,29.81724557291667,62.0,80.0
22,26.894174739583335,29.844168593750002,66.0,83.0
23,26.894174739583335,29.85570703125,50.0,84.0
24,30.586474739583334,33.878775572916666,52.0,80.0
25,30.586474739583334,33.878775572916666,67.0,79.0
26,30.586474739583334,33.88262171875,59.0,76.0
27,30.586474739583334,33.88262171875,64.0,78.0
28,34.27877473958333,37.084538125,57.0,79.0
29,34.27877473958333,37.1422303125,66.0,78.0
30,34.27877473958333,37.14607645833333,62.0,83.0
31,34.27877473958333,37.167230260416666,50.0,82.0
32,38.894149739583334,39.761455625,67.0,87.0
33,38.432612239583335,39.7960709375,59.0,79.0
34,39.35568723958333,39.82876317708333,62.0,85.0
35,37.97107473958334,39.85568619791667,55.0,86.0
36,39.81722473958333,41.669143958333336,54.0,81.0
37,41.201837239583334,41.669143958333336,62.0,80.0
38,40.740299739583335,41.70375927083333,66.0,86.0
39,40.27876223958334,41.709528489583334,57.0,73.0
40,42.12491223958333,44.5845225,55.0,82.0
41,42.58644973958334,44.749906770833334,64.0,83.0
42,43.047987239583335,45.1729828125,59.0,77.0
43,41.66337473958333,45.27105953125,52.0,82.0
44,45.817212239583334,46.27490359375,55.0,79.0
45,46.74028723958333,47.11528645833334,55.0,30.0
46,45.355674739583336,47.14990177083333,48.0,90.0
47,46.27874973958333,47.1575940625,60.0,78.0
48,46.74028723958333,47.19797859375,64.0,81.0
49,47.663362239583336,49.02489786458333,57.0,75.0
50,48.124899739583334,49.03643630208333,66.0,85.0
51,47.20182473958334,49.05951317708333,50.0,87.0
52,49.971049739583336,50.47681791666667,57.0,77.0
53,50.432587239583334,51.849891979166664,59.0,85.0
54,49.04797473958333,52.18258359375,43.0,88.0
55,49.50951223958334,52.357583229166664,50.0,73.0
56,51.81719973958334,52.99412036458333,57.0,67.0
57,52.740274739583334,53.980656770833335,43.0,87.0
58,53.20181223958333,54.0575796875,50.0,81.0
59,53.66334973958333,54.32104067708333,57.0,81.0
60,54.12488723958333,54.97873161458333,59.0,85.0
61,55.047962239583335,55.89988354166667,54.0,73.0
62,54.586424739583336,55.95180651041667,42.0,84.0
63,55.97103723958333,56.47103619791667,62.0,70.0
64,55.50949973958333,56.59026671875,57.0,74.0
65,57.81718723958333,58.67487776041667,67.0,44.0
66,56.894112239583336,58.77103140625,59.0,67.0
67,57.355649739583335,58.780646770833336,62.0,71.0
68,56.43257473958333,59.603721979166664,52.0,84.0
69,59.201799739583336,59.607568125,59.0,74.0
70,58.74026223958333,59.72102942708334,64.0,87.0
71,59.663337239583335,60.11333630208333,62.0,77.0
72,60.817180989583335,61.15371875,60.0,40.0
73,60.12487473958333,61.584487083333336,48.0,87.0
74,60.58641223958333,61.62871776041667,55.0,71.0
75,61.04794973958333,61.88256338541667,67.0,83.0
76,61.509487239583336,61.96333244791667,60.0,72.0
77,61.971024739583335,63.4267909375,50.0,84.0
78,62.43256223958333,63.459483177083335,57.0,68.0
79,62.89409973958333,63.80371322916667,62.0,79.0
80,63.35563723958333,63.82486703125,66.0,78.0
81,65.20178723958334,66.56139979166667,67.0,77.0
82,64.74024973958333,66.57870744791667,64.0,78.0
83,64.27871223958333,66.87486067708333,59.0,76.0
84,63.817174739583336,66.9113990625,52.0,86.0
85,66.58639973958333,67.11524479166667,66.0,85.0
86,67.04793723958333,67.40562880208333,64.0,83.0
87,68.20178098958334,68.49601114583334,60.0,74.0
88,67.50947473958334,68.96716401041667,48.0,100.0
89,68.43254973958334,69.32100942708334,64.0,96.0
90,68.43254973958334,69.32677864583333,67.0,100.0
91,67.97101223958333,69.36524010416667,55.0,84.0
92,68.89408723958333,69.37677854166667,60.0,82.0
93,69.81716223958334,70.47485317708333,57.0,82.0
94,69.35562473958333,70.83062166666667,50.0,88.0
95,70.27869973958333,71.04600583333334,69.0,100.0
96,70.27869973958333,71.08639036458334,62.0,89.0
97,70.74023723958334,71.15177484375,66.0,83.0
98,70.74023723958334,71.21908239583334,57.0,79.0
99,71.20177473958333,71.75369666666667,67.0,91.0
100,71.20177473958333,71.89408098958333,64.0,94.0
101,71.66331223958333,72.22677260416667,59.0,73.0
102,71.20177473958333,72.68254088541667,52.0,85.0
103,72.12484973958334,72.88638661458333,62.0,91.0
104,72.12484973958334,72.99407869791666,67.0,100.0
105,72.58638723958333,73.07677083333333,59.0,78.0
106,73.04792473958334,73.499846875,66.0,93.0
107,73.04792473958334,73.78253859375,62.0,90.0
108,73.50946223958333,74.1344609375,59.0,78.0
109,73.04792473958334,74.24599916666666,50.0,85.0
110,73.97099973958333,74.62869067708333,66.0,113.0
111,73.97099973958333,74.85369020833333,62.0,107.0
112,74.43253723958334,74.89407473958333,50.0,86.0
113,74.89407473958333,75.39599677083334,67.0,91.0
114,74.89407473958333,75.48061197916667,60.0,88.0
115,75.35561223958334,75.90753416666666,55.0,74.0
116,74.89407473958333,76.36714859375,48.0,87.0
117,75.81714973958333,76.39791776041666,60.0,94.0
118,75.81714973958333,76.65753260416666,67.0,102.0
119,76.27868723958333,76.75945546875,55.0,83.0
120,76.74022473958334,77.30560817708333,69.0,91.0
121,76.74022473958334,77.45560786458333,62.0,93.0
122,77.20176223958333,77.81906864583334,57.0,78.0
123,76.74022473958334,77.9190684375,50.0,88.0
124,77.66329973958334,78.36714442708333,69.0,102.0
125,78.12483723958333,78.576759375,50.0,90.0
126,77.66329973958334,78.58060552083333,62.0,98.0
127,78.58637473958333,79.21521958333334,67.0,90.0
128,78.58637473958333,79.85560286458333,59.0,90.0
129,79.50944973958333,80.21329442708334,55.0,83.0
130,79.97098723958334,80.47290927083333,57.0,88.0
131,80.43252473958333,80.9536775,59.0,89.0
132,78.58637473958333,81.82290645833334,43.0,81.0
133,81.35559973958334,81.83252182291666,62.0,107.0
134,79.04791223958334,81.85175255208334,50.0,78.0
135,82.04790598958333,82.15175192708334,62.0,38.0
136,80.89406223958333,82.28444395833333,55.0,86.0
137,82.27867473958334,82.7421353125,60.0,86.0
138,82.27867473958334,82.76713526041667,64.0,91.0
139,81.81713723958333,82.87867348958333,67.0,104.0
140,82.74021223958333,83.28059572916666,55.0,77.0
141,82.27867473958334,83.71328713541666,48.0,88.0
142,83.20174973958333,83.82290229166667,62.0,94.0
143,83.20174973958333,84.02482494791667,67.0,104.0
144,83.66328723958334,84.12097859375,55.0,73.0
145,84.12482473958333,84.68251588541666,69.0,91.0
146,84.12482473958333,84.71136197916667,62.0,94.0
147,84.58636223958334,85.14597645833334,57.0,78.0
148,85.04789973958333,85.59789859375,62.0,107.0
149,84.12482473958333,85.60943703125,50.0,88.0
150,85.04789973958333,85.88251338541667,69.0,107.0
151,85.50943723958333,85.99212854166667,57.0,81.0
152,85.97097473958334,86.54020432291667,67.0,107.0
153,85.97097473958334,86.65943484375,64.0,100.0
154,86.89404973958334,87.4152025,62.0,100.0
155,86.89404973958334,87.41904864583333,67.0,100.0
156,85.97097473958334,87.45943317708334,52.0,86.0
157,86.43251223958333,87.9113553125,59.0,78.0
158,87.35558723958333,88.31327755208333,64.0,91.0
159,88.27866223958334,89.15366041666667,57.0,82.0
160,88.74019973958333,89.22481411458334,67.0,116.0
161,89.20173723958334,89.653659375,66.0,93.0
162,87.81712473958333,89.67096703125,50.0,89.0
163,89.66327473958333,90.17481213541667,67.0,89.0
164,89.66327473958333,90.33635026041667,60.0,88.0
165,90.12481223958333,90.669041875,55.0,73.0
166,89.66327473958333,91.12096401041667,48.0,88.0
167,90.58634973958334,91.37673270833334,60.0,100.0
168,90.58634973958334,91.37673270833334,67.0,100.0
169,91.04788723958333,91.53827083333333,55.0,79.0
170,91.50942473958334,92.35173067708334,67.0,98.0
171,92.43249973958333,92.92288333333333,62.0,88.0
172,91.97096223958333,92.9421140625,57.0,82.0
173,91.50942473958334,92.99211395833333,50.0,86.0
174,92.89403723958334,93.46518989583333,64.0,87.0
175,94.27864973958333,94.76903333333334,67.0,83.0
176,94.74018723958334,95.3536475,64.0,81.0
177,93.35557473958333,95.82095421875,52.0,88.0
178,93.81711223958334,96.18056885416667,59.0,68.0
179,95.66326223958333,96.51326046875,62.0,80.0
180,96.12479973958334,96.64018328125,52.0,85.0
181,96.58633723958333,96.84595208333333,59.0,77.0
182,97.50941223958334,98.48441020833333,50.0,70.0
183,97.04787473958334,98.51325630208333,43.0,87.0
184,97.97094973958333,98.70364052083333,55.0,80.0
185,98.43248723958334,98.97479380208334,59.0,78.0
186,99.35556223958334,99.42286979166667,57.0,76.0
187,100.27863723958333,100.60555963541667,57.0,83.0
188,98.89402473958333,100.66709796875,50.0,87.0
189,99.81709973958334,100.87286677083334,66.0,89.0
190,101.20171223958333,101.88248005208334,59.0,69.0
191,101.66324973958334,102.16324869791667,67.0,88.0
192,102.12478723958334,103.06709296875,62.0,80.0
193,103.50939973958333,103.961321875,57.0,76.0
194,100.74017473958334,103.98055260416666,52.0,88.0
195,103.04786223958334,103.98632182291666,64.0,86.0
196,103.97093723958334,104.52093609375,62.0,86.0
197,105.35554973958334,105.87093328125,60.0,84.0
198,104.43247473958333,105.88247171875,48.0,88.0
199,104.89401223958333,106.28631703125001,55.0,74.0
200,105.81708723958333,106.43247057291667,64.0,91.0
201,107.20169973958333,107.68054489583334,62.0,87.0
202,106.27862473958334,107.69785255208333,50.0,88.0
203,106.74016223958333,107.73246786458333,57.0,86.0
204,107.66323723958334,108.16515927083333,66.0,83.0
205,109.04784973958333,110.46130833333333,59.0,80.0
206,109.50938723958333,110.58823114583333,55.0,77.0
207,110.89399973958334,111.35938338541666,55.0,88.0
208,110.43246223958333,111.392075625,57.0,83.0
209,108.12477473958333,111.41130635416667,43.0,93.0
210,108.58631223958334,111.43053708333333,50.0,77.0
211,111.35553723958333,111.9574590625,59.0,82.0
212,111.81707473958333,113.238225625,43.0,89.0
213,112.74014973958333,113.26707171875,59.0,86.0
214,113.20168723958334,113.66707088541666,62.0,88.0
215,112.27861223958334,113.67091703125,50.0,80.0
216,113.66322473958333,114.32668489583334,57.0,84.0
217,113.66322473958333,114.63822270833333,66.0,84.0
218,113.66322473958333,115.038221875,42.0,79.0
219,114.12476223958333,115.038221875,50.0,70.0
220,114.58629973958334,115.05745260416667,62.0,88.0
221,114.58629973958334,115.06129875,54.0,81.0
222,115.27860598958334,115.42091338541667,62.0,36.0
223,115.04783723958333,115.58245151041666,66.0,83.0
224,115.50937473958334,116.43629588541667,64.0,84.0
225,116.43244973958333,116.89398723958334,62.0,83.0
226,116.89398723958334,117.83629296875,64.0,86.0
227,115.97091223958333,117.87475442708333,59.0,75.0
228,117.81706223958334,118.69782963541667,67.0,86.0
229,115.50937473958334,118.73244494791666,52.0,85.0
230,118.27859973958333,118.76129104166667,59.0,81.0
231,118.74013723958333,119.19590552083334,62.0,82.0
232,119.20167473958334,119.91513479166667,60.0,84.0
233,119.66321223958333,120.24398026041666,55.0,81.0
234,119.20167473958334,120.64974864583334,48.0,83.0
235,120.12474973958334,121.07667083333334,60.0,89.0
236,120.58628723958333,121.07859390625,55.0,74.0
237,121.04782473958333,121.55936213541666,62.0,89.0
238,121.50936223958334,122.20166848958334,57.0,76.0
239,122.43243723958334,122.55551390625,57.0,81.0
240,121.04782473958333,122.561283125,50.0,81.0
241,121.97089973958333,122.884359375,62.0,96.0
242,123.81704973958334,124.3266640625,62.0,87.0
243,124.27858723958333,124.87858598958333,67.0,87.0
244,123.35551223958333,125.330508125,59.0,73.0
245,125.66319973958333,126.068968125,59.0,87.0
246,124.74012473958334,126.092045,64.0,84.0
247,122.89397473958333,126.12089109375,52.0,85.0
248,126.12473723958334,126.34204447916667,62.0,84.0
249,126.58627473958333,127.07088911458334,60.0,90.0
250,127.04781223958334,127.59396494791667,55.0,73.0
251,126.58627473958333,128.06896395833334,48.0,96.0
252,127.97088723958333,128.47473234375,55.0,74.0
253,127.50934973958333,128.53819375,60.0,108.0
254,127.97088723958333,128.95165442708333,64.0,96.0
255,129.12473098958333,129.32088442708334,62.0,88.0
256,128.89396223958335,129.44588416666667,57.0,86.0
257,129.35549973958334,129.80165265625,66.0,123.0
258,129.81703723958333,130.10165203125,57.0,38.0
259,128.43242473958333,130.1189596875,50.0,89.0
260,129.81703723958333,130.21895947916667,62.0,88.0
261,130.27857473958335,130.82857359375,52.0,86.0
262,130.27857473958335,131.05165005208335,67.0,87.0
263,130.27857473958335,131.10164994791666,59.0,89.0
264,131.20164973958333,131.65741802083335,62.0,96.0
265,131.66318723958332,131.89780213541667,64.0,83.0
266,131.89395598958333,132.37280114583334,67.0,100.0
267,131.89395598958333,132.39010880208335,59.0,89.0
268,132.35549348958332,132.66318515625,62.0,84.0
269,130.97088098958332,132.82087713541668,52.0,88.0
270,132.58626223958333,133.41318359375,64.0,61.0
271,133.50933723958335,133.8574134375,62.0,89.0
272,133.04779973958333,133.87856723958333,52.0,100.0
273,133.74010598958333,133.92856713541667,67.0,86.0
274,133.97087473958334,134.26510489583333,64.0,100.0
275,133.97087473958334,134.65933484375,67.0,84.0
276,133.97087473958334,134.68048864583332,60.0,96.0
277,134.66318098958334,135.03048791666666,55.0,73.0
278,134.89394973958335,135.38241026041666,67.0,104.0
279,134.89394973958335,135.41125635416668,60.0,102.0
280,133.97087473958334,135.45548703125,48.0,86.0
281,135.35548723958334,135.76317869791666,62.0,86.0
282,135.35548723958334,135.82856317708334,55.0,74.0
283,135.81702473958333,136.4420234375,62.0,88.0
284,135.81702473958333,136.56894625,67.0,96.0
285,136.27856223958332,136.79009963541668,57.0,78.0
286,136.74009973958334,137.26317557291668,69.0,96.0
287,135.81702473958333,137.32086776041666,50.0,88.0
288,136.74009973958334,137.607405625,62.0,94.0
289,137.20163723958333,137.61509791666666,57.0,81.0
290,137.66317473958333,138.27855807291667,67.0,90.0
291,137.66317473958333,138.41701932291667,59.0,89.0
292,138.58624973958334,139.14971010416667,59.0,93.0
293,138.58624973958334,139.16317161458335,67.0,93.0
294,137.66317473958333,139.361248125,52.0,84.0
295,139.04778723958333,139.39970958333333,62.0,86.0
296,139.50932473958332,140.0189390625,59.0,100.0
297,139.50932473958332,140.05740052083334,67.0,93.0
298,139.97086223958334,140.36316911458334,62.0,88.0
299,139.50932473958332,140.3997075,52.0,88.0
300,140.43239973958333,140.87470651041667,67.0,94.0
301,140.43239973958333,140.930475625,60.0,88.0
302,140.43239973958333,141.32085942708332,50.0,87.0
303,140.89393723958332,141.33047479166666,64.0,86.0
304,141.35547473958334,141.94970427083334,67.0,93.0
305,141.35547473958334,141.98239651041666,60.0,90.0
306,141.35547473958334,142.0035503125,64.0,88.0
307,142.04778098958334,142.40547255208332,55.0,64.0
308,141.35547473958334,142.7997025,48.0,88.0
309,142.27854973958333,142.85162546875,60.0,90.0
310,142.27854973958333,143.1343171875,67.0,90.0
311,142.27854973958333,143.13624026041666,64.0,96.0
312,142.74008723958335,143.238163125,55.0,79.0
313,143.20162473958334,143.81893114583335,69.0,88.0
314,143.20162473958334,143.86893104166666,66.0,89.0
315,143.20162473958334,143.90739250000001,62.0,88.0
316,143.66316223958333,144.17854578125,57.0,71.0
317,143.20162473958334,144.29393015625,50.0,85.0
318,144.12469973958332,144.60546796875,66.0,100.0
319,144.58623723958334,144.68816010416666,52.0,85.0
320,144.12469973958332,144.69392932291666,69.0,92.0
321,144.12469973958332,144.992005625,62.0,91.0
322,145.04777473958333,145.48046614583333,59.0,93.0
323,145.04777473958333,145.7420040625,64.0,93.0
324,145.04777473958333,145.86700380208333,67.0,91.0
325,145.97084973958334,146.238156875,62.0,94.0
326,146.20161848958332,146.35931046875,64.0,88.0
327,146.43238723958333,146.81507875,67.0,88.0
328,145.74008098958333,147.27084703125,59.0,78.0
329,146.89392473958333,147.32277,71.0,100.0
330,147.35546223958335,147.59007713541666,67.0,86.0
331,146.89392473958333,147.64584625,64.0,98.0
332,147.58623098958333,147.95930713541668,59.0,84.0
333,147.81699973958334,148.30738333333335,67.0,108.0
334,147.81699973958334,148.32469098958333,62.0,104.0
335,145.04777473958333,148.36315244791666,52.0,86.0
336,148.27853723958333,148.3727678125,59.0,85.0
337,148.27853723958333,148.65738260416666,64.0,87.0
338,148.74007473958332,149.33815041666668,67.0,102.0
339,148.74007473958332,149.353535,60.0,91.0
340,148.74007473958332,149.43815020833333,64.0,96.0
341,149.43238098958332,149.78814947916666,55.0,77.0
342,149.66314973958333,150.14199489583334,60.0,100.0
343,148.74007473958332,150.16699484375,48.0,90.0
344,149.66314973958333,150.30737916666666,67.0,107.0
345,149.66314973958333,150.42853276041666,64.0,96.0
346,150.12468723958332,150.6112246875,55.0,80.0
347,150.58622473958334,151.268915625,66.0,103.0
348,150.58622473958334,151.27660791666668,62.0,90.0
349,151.04776223958334,151.61122260416667,57.0,78.0
350,151.50929973958333,151.88237588541668,66.0,100.0
351,151.50929973958333,152.00929869791668,69.0,94.0
352,150.58622473958334,152.08429854166667,50.0,85.0
353,151.50929973958333,152.12083692708333,62.0,94.0
354,151.97083723958335,152.37468255208333,57.0,79.0
355,152.43237473958334,153.10545026041666,67.0,88.0
356,152.43237473958334,153.14391171875,64.0,91.0
357,152.43237473958334,153.18237317708332,59.0,88.0
358,153.35544973958332,154.08814052083332,67.0,93.0
359,153.35544973958332,154.11506354166667,64.0,102.0
360,153.35544973958332,154.12852505208335,59.0,90.0
361,154.27852473958333,154.95544640625,67.0,90.0
362,154.27852473958333,154.97660020833334,64.0,100.0
363,154.27852473958333,154.97852328125,59.0,96.0
364,155.20159973958334,155.52082984375,59.0,98.0
365,155.20159973958334,155.57852203125,67.0,91.0
366,155.20159973958334,155.6189065625,64.0,104.0
367,152.43237473958334,155.6419834375,52.0,86.0
368,156.12467473958333,156.6112121875,60.0,100.0
369,156.12467473958333,156.66505822916668,67.0,108.0
370,156.12467473958333,156.78813489583334,64.0,107.0
371,156.81698098958333,157.23621088541668,55.0,67.0
372,157.04774973958334,157.53621026041668,60.0,110.0
373,156.12467473958333,157.55351791666666,48.0,104.0
374,157.04774973958334,157.72851755208333,67.0,114.0
375,157.50928723958333,157.88428645833332,64.0,77.0
376,157.50928723958333,157.96313244791668,55.0,81.0
377,157.97082473958332,158.64774640625,69.0,104.0
378,157.97082473958332,158.66890020833333,66.0,109.0
379,157.97082473958332,158.699669375,62.0,92.0
380,158.89389973958333,159.19966833333334,62.0,108.0
381,159.12466848958334,159.30928348958332,66.0,100.0
382,157.97082473958332,159.50543692708334,50.0,87.0
383,159.35543723958332,159.69389807291668,69.0,108.0
384,158.66313098958332,159.75351333333333,57.0,84.0
385,159.81697473958334,160.39389661458333,64.0,104.0
386,159.81697473958334,160.40928119791667,59.0,91.0
387,159.81697473958334,160.48620411458333,67.0,102.0
388,159.81697473958334,160.99004921875,52.0,86.0
389,160.74004973958333,161.17851036458333,59.0,104.0
390,160.74004973958333,161.5727403125,64.0,113.0
391,160.74004973958333,161.57850953125,67.0,107.0
392,161.20158723958335,161.63812479166666,52.0,88.0
393,161.66312473958334,162.3688925,69.0,98.0
394,161.66312473958334,162.391969375,62.0,91.0
395,161.66312473958334,162.391969375,66.0,100.0
396,162.35543098958334,162.78812239583334,57.0,84.0
397,162.58619973958332,163.08619869791667,69.0,104.0
398,162.58619973958332,163.2804290625,62.0,110.0
399,163.04773723958334,163.3727365625,67.0,77.0
400,161.66312473958334,163.48427479166668,50.0,91.0
401,163.50927473958333,164.122735,60.0,93.0
402,163.50927473958333,164.15158109375,67.0,98.0
403,163.50927473958333,164.17850411458335,64.0,108.0
404,163.97081223958332,164.35734989583332,55.0,74.0
405,163.50927473958333,165.01311776041666,48.0,89.0
406,164.43234973958334,165.03234848958334,60.0,107.0
407,164.43234973958334,165.26311723958332,67.0,108.0
408,164.43234973958334,165.30542484375,64.0,116.0
409,164.89388723958334,165.40542463541667,55.0,83.0
410,165.35542473958333,165.48811677083333,66.0,87.0
411,165.35542473958333,166.11119239583334,69.0,98.0
412,165.35542473958333,166.18042302083333,62.0,88.0
413,165.81696223958335,166.54196072916668,57.0,80.0
414,165.35542473958333,166.60926828125,50.0,88.0
415,166.27849973958334,166.69388348958333,66.0,106.0
416,166.74003723958333,166.85926776041666,50.0,93.0
417,166.27849973958334,166.868883125,69.0,100.0
418,166.27849973958334,167.14965177083334,62.0,100.0
419,167.20157473958332,167.62080463541668,67.0,92.0
420,167.20157473958332,167.98426541666666,59.0,89.0
421,167.66311223958334,168.25734177083334,55.0,75.0
422,168.12464973958333,168.54003348958332,57.0,92.0
423,168.12464973958333,168.59964875,62.0,98.0
424,168.58618723958332,169.16887833333334,55.0,81.0
425,169.04772473958334,169.74964635416666,67.0,100.0
426,169.04772473958334,169.81887697916667,59.0,100.0
427,167.20157473958332,170.35926046875,43.0,88.0
428,169.97079973958333,170.39387578125,67.0,91.0
429,169.97079973958333,170.50156786458334,62.0,110.0
430,170.43233723958335,170.79387494791666,64.0,83.0
431,169.74003098958335,170.84579791666667,55.0,84.0
432,170.89387473958334,171.47848890625,67.0,94.0
433,170.89387473958334,171.51695036458332,60.0,91.0
434,170.89387473958334,171.55541182291668,64.0,89.0
435,171.35541223958333,171.85925734375,55.0,70.0
436,171.81694973958332,172.361179375,60.0,108.0
437,170.89387473958334,172.48425604166667,48.0,88.0
438,172.27848723958334,172.64771723958333,64.0,79.0
439,171.81694973958332,172.684255625,67.0,110.0
440,172.27848723958334,172.72656322916666,55.0,78.0
441,172.74002473958333,173.46310015625,57.0,93.0
442,172.74002473958333,173.49771546875,66.0,91.0
443,172.74002473958333,173.515023125,62.0,108.0
444,173.66309973958334,173.722715,57.0,94.0
445,172.74002473958333,173.93425302083332,50.0,89.0
446,173.66309973958334,174.23617546875,66.0,100.0
447,173.66309973958334,174.54579020833333,62.0,108.0
448,174.12463723958334,174.56309786458334,50.0,88.0
449,174.58617473958333,175.33232703125,67.0,104.0
450,174.58617473958333,175.36886541666667,59.0,100.0
451,174.58617473958333,175.7650184375,52.0,88.0
452,175.50924973958334,176.01694098958333,59.0,92.0
453,175.50924973958334,176.31501729166666,67.0,94.0
454,175.50924973958334,176.32847880208334,64.0,102.0
455,175.97078723958333,176.43617088541666,52.0,84.0
456,176.43232473958332,176.64770890625,57.0,96.0
457,176.89386223958334,176.9650159375,57.0,63.0
458,176.43232473958332,177.2304,66.0,88.0
459,177.12463098958332,177.70732208333334,57.0,88.0
460,177.35539973958333,177.73039895833332,66.0,116.0
461,177.35539973958333,177.86309098958333,62.0,113.0
462,177.81693723958332,178.19001338541668,66.0,87.0
463,176.43232473958332,178.24193635416665,50.0,86.0
464,178.27847473958334,179.01116552083334,67.0,96.0
465,178.27847473958334,179.05155005208334,60.0,93.0
466,179.20154973958333,179.31116489583334,60.0,96.0
467,178.97078098958335,179.32847255208333,55.0,85.0
468,178.27847473958334,179.70924098958332,48.0,94.0
469,179.20154973958333,180.02462494791666,67.0,104.0
470,179.66308723958335,180.13424010416668,55.0,81.0
471,180.12462473958334,180.55347,66.0,97.0
472,180.58616223958333,181.1419303125,57.0,86.0
473,180.12462473958334,181.38616057291668,62.0,108.0
474,181.04769973958332,181.71308296875,69.0,114.0
475,180.12462473958334,181.74962135416666,50.0,88.0
476,181.50923723958334,181.79000588541666,62.0,88.0
477,181.27846848958333,181.80539046875,57.0,86.0
478,181.74000598958332,181.91885177083333,66.0,78.0
479,181.97077473958333,182.63038875,67.0,93.0
480,181.97077473958333,182.68231171875001,59.0,87.0
481,182.89384973958335,183.622694375,67.0,91.0
482,182.89384973958335,183.66307890625,59.0,100.0
483,183.35538723958334,183.71692494791668,62.0,87.0
484,181.97077473958333,184.20923161458333,52.0,86.0
485,183.81692473958333,184.56884625,59.0,88.0
486,183.81692473958333,184.56884625,64.0,110.0
487,184.50923098958333,185.13999890625,52.0,90.0
488,184.73999973958334,185.23615255208333,62.0,113.0
489,185.20153723958333,185.60345947916667,64.0,104.0
490,185.20153723958333,185.67845932291667,50.0,86.0
491,185.66307473958332,186.2649965625,67.0,98.0
492,185.66307473958332,186.31499645833333,64.0,98.0
493,185.66307473958332,186.31691953125,60.0,91.0
494,186.35538098958332,186.68230338541667,55.0,71.0
495,186.58614973958333,187.038071875,60.0,93.0
496,185.66307473958332,187.13807166666666,48.0,88.0
497,186.58614973958333,187.314994375,67.0,98.0
498,186.58614973958333,187.42268645833335,64.0,104.0
499,187.04768723958333,187.54960927083334,55.0,84.0
500,187.50922473958335,188.26691546875,62.0,110.0
501,187.50922473958335,188.2726846875,66.0,90.0
502,188.20153098958335,188.5842225,57.0,82.0
503,187.50922473958335,188.70152994791667,50.0,88.0
504,188.43229973958333,189.16883666666666,66.0,116.0
505,188.89383723958335,189.28037489583335,50.0,89.0
506,188.43229973958333,189.29575947916666,62.0,113.0
507,189.35537473958334,190.01114260416668,67.0,100.0
508,189.35537473958334,190.10537317708332,64.0,107.0
509,190.27844973958332,190.61114135416668,62.0,107.0
510,190.50921848958333,190.71306421875,64.0,83.0
511,189.35537473958334,190.80344864583333,52.0,87.0
512,190.73998723958334,191.26690921875002,67.0,108.0
513,190.04768098958334,191.28229380208333,59.0,77.0
514,191.20152473958333,192.022676875,66.0,103.0
515,191.66306223958333,192.46498364583334,59.0,84.0
516,192.12459973958335,192.55152192708334,66.0,113.0
517,192.58613723958334,192.83613671875,67.0,92.0
518,191.20152473958333,193.08229005208332,50.0,89.0
519,192.81690598958335,193.10536692708334,66.0,88.0
520,193.04767473958333,193.75728864583334,64.0,93.0
521,193.04767473958333,193.76690401041668,60.0,89.0
522,193.73998098958333,194.11690328125,55.0,83.0
523,193.97074973958334,194.53036395833334,60.0,96.0
524,193.04767473958333,194.63036375000001,48.0,89.0
525,193.97074973958334,194.838055625,64.0,113.0
526,194.43228723958333,194.90920932291667,55.0,80.0
527,194.89382473958332,195.391900625,69.0,107.0
528,194.89382473958332,195.52074651041667,62.0,90.0
529,195.35536223958334,196.21689890625,57.0,80.0
530,195.81689973958333,196.27074494791665,69.0,100.0
531,194.89382473958332,196.31112947916668,50.0,89.0
532,195.81689973958333,196.3265140625,62.0,104.0
533,196.27843723958333,196.71305171875,66.0,100.0
534,196.73997473958335,197.4111271875,59.0,88.0
535,196.73997473958335,197.42843484375,67.0,91.0
536,197.20151223958334,197.93612609375,50.0,69.0
537,197.66304973958333,198.35920213541667,62.0,104.0
538,197.66304973958333,198.43035583333332,59.0,91.0
539,198.12458723958335,199.0495853125,50.0,77.0
540,198.58612473958334,199.06112375,57.0,96.0
541,199.04766223958333,199.30727708333333,59.0,85.0
542,198.58612473958334,199.31689244791667,62.0,93.0
543,199.50919973958332,199.81881447916666,59.0,107.0
544,196.73997473958335,199.90727583333333,43.0,84.0
545,199.27843098958334,199.98612182291666,50.0,86.0
546,199.73996848958333,200.04573708333334,62.0,88.0
547,200.20150598958332,200.3418903125,62.0,40.0
548,199.97073723958334,200.35342875,67.0,100.0
549,200.43227473958333,200.9649659375,64.0,107.0
550,200.43227473958333,200.98035052083333,60.0,91.0
551,200.43227473958333,201.08611953125,67.0,89.0
552,200.89381223958333,201.43034958333334,55.0,76.0
553,201.35534973958335,201.84957947916666,67.0,108.0
554,201.35534973958335,201.85919484375,60.0,93.0
555,200.43227473958333,201.9341946875,48.0,87.0
556,201.81688723958334,202.16880958333334,64.0,92.0
557,201.81688723958334,202.30150161458334,55.0,85.0
558,202.27842473958333,203.03034625,69.0,96.0
559,202.27842473958333,203.04765390625,62.0,98.0
560,202.97073098958333,203.38034552083334,57.0,86.0
561,203.20149973958334,203.7226525,69.0,107.0
562,203.20149973958334,203.745729375,62.0,114.0
563,203.66303723958333,203.81880614583332,66.0,116.0
564,202.27842473958333,203.82072921875,50.0,87.0
565,203.66303723958333,204.12072859375,57.0,79.0
566,204.12457473958332,204.35534348958333,59.0,100.0
567,204.12457473958332,204.58995838541668,64.0,110.0
568,204.12457473958332,204.88034239583334,67.0,98.0
569,204.58611223958334,205.2341878125,59.0,76.0
570,204.12457473958332,205.25341854166666,52.0,87.0
571,205.04764973958333,205.74764828125,67.0,110.0
572,205.04764973958333,205.84187885416668,64.0,113.0
573,205.50918723958333,205.95918630208334,52.0,79.0
574,205.97072473958335,206.41495458333333,66.0,109.0
575,205.97072473958335,206.69572322916667,62.0,94.0
576,206.66303098958335,206.976491875,57.0,84.0
577,205.97072473958335,207.45918317708333,50.0,89.0
578,206.89379973958333,207.67649041666667,66.0,116.0
579,206.89379973958333,207.73225953125,62.0,110.0
580,207.35533723958332,207.80918244791667,57.0,83.0
581,207.81687473958334,208.43802729166666,67.0,108.0
582,207.81687473958334,208.4649503125,64.0,113.0
583,207.81687473958334,208.499565625,60.0,98.0
584,208.50918098958334,208.86687255208332,55.0,75.0
585,208.73994973958332,208.98802614583335,64.0,114.0
586,208.97071848958333,208.98802614583335,64.0,58.0
587,208.73994973958332,209.2495640625,60.0,110.0
588,207.81687473958334,209.31687161458333,48.0,88.0
589,208.73994973958332,209.53033270833333,67.0,110.0
590,209.20148723958334,209.65148630208333,55.0,79.0
591,209.66302473958334,210.33225411458332,69.0,110.0
592,209.66302473958334,210.34379255208333,62.0,113.0
593,210.12456223958333,210.68802260416666,57.0,80.0
594,209.66302473958334,211.10532942708335,50.0,87.0
595,210.58609973958335,211.11302171875,62.0,104.0
596,210.58609973958335,211.35340583333334,69.0,98.0
597,211.04763723958334,211.49186708333335,57.0,81.0
598,211.50917473958333,212.16301953125,67.0,107.0
599,211.50917473958333,212.36301911458332,64.0,94.0
600,212.43224973958334,212.9649409375,62.0,89.0
601,211.97071223958332,212.976479375,59.0,73.0
602,212.43224973958334,213.27070953125,67.0,91.0
603,212.89378723958333,213.2880171875,64.0,78.0
604,213.35532473958332,214.01109260416666,67.0,91.0
605,213.35532473958332,214.06493864583334,64.0,93.0
606,214.27839973958334,214.53801458333334,62.0,91.0
607,214.27839973958334,214.55339916666668,67.0,89.0
608,214.04763098958333,214.58224526041667,59.0,84.0
609,211.50917473958333,214.64378359375002,52.0,87.0
610,215.20147473958335,218.40146807291666,71.0,93.0
611,215.20147473958335,218.49377557291666,62.0,77.0
612,215.20147473958335,218.50723708333334,67.0,78.0
613,215.20147473958335,218.53223703125,48.0,80.0
614,218.89377473958334,222.17069098958333,71.0,83.0
615,218.89377473958334,222.24761390625,50.0,78.0
616,218.89377473958334,222.27069078125,66.0,80.0
617,218.89377473958334,222.27646000000001,62.0,52.0
618,222.58607473958332,225.64760682291666,59.0,86.0
619,222.58607473958332,225.72260666666668,67.0,91.0
620,222.58607473958332,225.83414489583333,62.0,90.0
621,222.58607473958332,225.88222171875,52.0,88.0
622,226.27837473958334,229.40913744791666,57.0,86.0
623,226.27837473958334,229.60529088541668,66.0,84.0
624,226.27837473958334,229.8341365625,62.0,91.0
625,226.27837473958334,229.914905625,50.0,86.0
626,229.97067473958333,233.24182177083333,59.0,78.0
627,229.97067473958333,233.24759098958333,64.0,80.0
628,229.97067473958333,233.27451401041668,52.0,81.0
629,229.97067473958333,233.28220630208332,67.0,81.0
630,233.66297473958335,236.976429375,57.0,78.0
631,233.66297473958335,237.06104458333334,66.0,79.0
632,233.66297473958335,237.15142901041668,50.0,80.0
633,233.66297473958335,237.22835192708334,62.0,84.0
634,237.35527473958334,240.6341140625,59.0,83.0
635,237.35527473958334,240.73603692708335,52.0,87.0
636,237.35527473958334,240.761036875,67.0,84.0
637,237.35527473958334,240.76680609375,64.0,86.0
638,241.04757473958333,244.30526026041667,57.0,78.0
639,241.04757473958333,244.47064453125,50.0,82.0
640,241.04757473958333,244.4879521875,66.0,77.0
641,241.04757473958333,244.6725671875,62.0,82.0
