,start,end,pitch,velocity
0,16.482858041666667,17.004342416666667,63.0,90.0
1,16.951608041666667,17.297311166666667,66.0,81.0
2,17.4192160625,17.84036903125,66.0,86.0
3,17.8807535625,18.384598666666665,63.0,89.0
4,18.3422910625,19.7499804375,66.0,86.0
5,20.1884410625,20.642286270833335,63.0,94.0
6,20.6499785625,21.009593197916665,68.0,86.0
7,21.1115160625,21.484592208333332,68.0,86.0
8,21.5730535625,21.749976270833333,66.0,86.0
9,21.8038223125,23.392280541666665,68.0,83.0
10,23.8807410625,24.22881726041667,68.0,88.0
11,24.3422785625,24.71727778125,68.0,87.0
12,24.8038160625,25.153815333333334,68.0,86.0
13,25.2653535625,25.4268916875,66.0,81.0
14,25.4961223125,26.507658666666664,68.0,80.0
15,27.5730410625,27.940347989583334,68.0,86.0
16,28.034578562500002,28.34803944791667,71.0,92.0
17,28.4961160625,28.821115385416668,68.0,89.0
18,28.9576535625,29.121114760416667,63.0,87.0
19,29.188422312500002,30.783554583333334,66.0,81.0
20,31.236205645833333,31.580902270833334,63.0,85.0
21,31.690750645833333,32.003250333333334,66.0,81.0
22,32.145295645833336,32.48999227083333,66.0,85.0
23,32.59984064583333,32.77597683333333,63.0,87.0
24,32.82711314583334,34.41802064583334,66.0,79.0
25,34.87256564583333,35.22105014583333,63.0,86.0
26,35.327110645833336,35.66612545833333,68.0,86.0
27,35.78165564583333,36.111200770833335,68.0,89.0
28,36.236200645833335,36.39718533333333,66.0,81.0
29,36.46347314583333,38.08468364583334,68.0,85.0
30,38.50892564583333,38.83657683333333,68.0,69.0
31,38.96347064583333,39.291121833333335,68.0,89.0
32,39.418015645833336,39.772181958333334,68.0,86.0
33,39.87256064583333,40.018393833333334,66.0,87.0
34,40.09983314583333,41.183165395833335,68.0,87.0
35,42.14528564583333,42.465361083333335,68.0,88.0
36,42.599830645833336,42.885815208333334,68.0,88.0
37,43.05437564583333,43.446420708333335,68.0,89.0
38,43.508920645833335,43.65854170833333,63.0,90.0
39,43.73619314583333,45.59784440625,66.0,83.0
40,48.81129925,49.049760291666665,66.0,86.0
41,49.042068,49.2612983125,68.0,86.0
42,49.272836749999996,49.432451802083335,71.0,91.0
43,49.5036055,49.87668164583333,73.0,92.0
44,49.965143,50.11321961458333,75.0,87.0
45,50.19591175,51.01387933333333,75.0,87.0
46,51.34212341666666,51.74861172916666,73.0,88.0
47,51.80013841666666,51.95090168749999,78.0,86.0
48,52.029145916666664,52.47952733333333,75.0,94.0
49,52.71616841666666,52.887924041666665,75.0,89.0
50,52.94517591666666,53.18563379166666,78.0,86.0
51,53.174183416666665,53.58448852083333,80.0,85.0
52,53.63219841666666,53.981434854166665,83.0,87.0
53,54.090213416666664,54.38983156249999,80.0,85.0
54,54.54822841666666,54.85357174999999,78.0,85.0
55,55.00624341666666,55.166548666666664,80.0,86.0
56,55.235250916666665,55.35357145833333,78.0,86.0
57,55.46425841666666,55.645556020833325,80.0,87.0
58,55.69326591666666,55.81922004166666,78.0,86.0
59,55.92227341666666,56.25815108333333,75.0,91.0
60,56.83830341666666,57.17608947916666,73.0,92.0
61,57.296318416666665,57.641738062499996,75.0,90.0
62,57.75433341666666,58.0825775,73.0,86.0
63,58.212348416666664,58.363111687499995,73.0,96.0
64,58.441355916666666,58.639829083333325,75.0,89.0
65,58.67036341666666,58.98906552083333,73.0,102.0
66,59.12837841666666,59.32112639583333,71.0,91.0
67,59.35738591666666,59.83639327083333,68.0,89.0
68,60.273415916666664,60.46234710416666,68.0,86.0
69,60.50242341666666,60.85738504166666,80.0,90.0
70,60.96043841666666,61.095934520833325,78.0,81.0
71,61.18944591666666,61.30394966666666,78.0,89.0
72,61.418453416666665,61.75433108333333,78.0,91.0
73,61.87646841666666,62.00242254166666,80.0,86.0
74,62.10547591666666,62.46616272916666,82.0,85.0
75,62.563490916666666,63.18181116666666,75.0,89.0
76,63.47952091666666,63.61692541666666,66.0,87.0
77,63.70852841666666,63.83448254166666,68.0,87.0
78,63.93753591666666,64.0768488125,71.0,89.0
79,64.16654341666666,64.53677220833333,73.0,87.0
80,64.62455841666666,64.895550625,75.0,89.0
81,65.08257341666666,65.57303114583333,75.0,87.0
82,65.99860341666667,66.34783985416666,73.0,92.0
83,66.45661841666666,66.61883206249999,78.0,88.0
84,66.68562591666667,66.99287764583333,75.0,90.0
85,67.37264841666666,67.50432772916666,75.0,83.0
86,67.60165591666666,67.73715202083332,78.0,87.0
87,67.83066341666667,68.16654108333333,80.0,85.0
88,68.28867841666667,68.60165533333333,83.0,89.0
89,68.74669341666666,69.10738022916667,80.0,86.0
90,69.20470841666666,69.43371591666667,78.0,86.0
91,69.43371591666667,69.66272341666667,78.0,86.0
92,69.66272341666667,69.83066224999999,80.0,87.0
93,69.89173091666666,70.025318625,78.0,88.0
94,70.12073841666665,70.28104366666666,80.0,87.0
95,70.34974591666666,70.48905881249999,78.0,87.0
96,70.57875341666666,70.96234097916667,75.0,90.0
97,71.49478341666666,71.8287526875,73.0,92.0
98,71.95279841666667,72.31157683333333,75.0,87.0
99,72.41081341666666,72.69325599999999,73.0,87.0
100,72.86882841666666,73.00050772916666,73.0,87.0
101,73.09783591666667,73.254324375,75.0,86.0
102,73.32684341666666,73.68562183333333,73.0,92.0
103,73.78485841666667,73.96806441666666,71.0,83.0
104,74.01386591666666,74.52340760416666,68.0,86.0
105,74.92989591666667,75.11882710416666,66.0,85.0
106,75.15890341666666,75.48905589583333,80.0,89.0
107,75.61691841666666,75.8936358125,78.0,86.0
108,76.07493341666667,76.4031775,78.0,86.0
109,76.53294841666667,76.70088725,75.0,88.0
110,76.76195591666666,77.48905472916667,78.0,85.0
111,77.67798591666666,77.81920720833332,78.0,88.0
112,77.90699341666667,78.11691695833332,83.0,89.0
113,78.13600091666666,78.37073360416666,82.0,86.0
114,78.36500841666665,78.51577168749999,78.0,83.0
115,78.59401591666666,78.74287079166666,73.0,83.0
116,78.82302341666666,79.09783241666666,75.0,86.0
117,79.28103841666666,79.46996960416666,75.0,89.0
118,79.51004591666666,79.64172522916667,73.0,88.0
119,79.73905341666666,79.88027470833333,75.0,87.0
120,79.96806091666666,80.3363813125,75.0,85.0
121,80.42607591666666,80.55584683333333,73.0,89.0
122,80.65508341666666,81.13409077083332,75.0,90.0
123,81.11309841666666,81.32302195833333,80.0,86.0
124,81.34210591666667,81.819204875,78.0,87.0
125,82.25813591666666,82.40317399999999,73.0,87.0
126,82.48714341666667,82.68561658333333,75.0,86.0
127,82.86691418749999,83.17416591666665,75.0,91.0
128,83.17416591666665,83.29630325,73.0,90.0
129,83.40317341666666,83.70660835416666,75.0,89.0
130,83.86118841666666,84.03103564583333,75.0,87.0
131,84.09019591666666,84.24286758333332,73.0,86.0
132,84.31920341666665,84.5959208125,75.0,89.0
133,84.77721841666667,84.9394320625,83.0,91.0
134,85.00622591666666,85.46233252083333,80.0,86.0
135,85.92225591666667,86.0730191875,78.0,85.0
136,86.15126341666667,86.46424033333332,80.0,89.0
137,86.60927841666665,86.91653014583332,80.0,86.0
138,87.06729341666667,87.41843825,80.0,85.0
139,87.52530841666666,87.85736929166666,83.0,91.0
140,87.98332341666666,88.29057514583333,80.0,87.0
141,88.44133841666667,88.57110933333333,75.0,88.0
142,88.67034591666666,89.1417196875,73.0,91.0
143,89.35736841666666,89.48141414583333,71.0,86.0
144,89.58637591666667,89.70469645833333,73.0,86.0
145,89.81538341666666,90.21614654166666,75.0,89.0
146,90.27339841666665,90.69706229166667,78.0,90.0
147,90.73141341666667,91.09591702083333,75.0,90.0
148,91.18942841666666,91.33446649999999,78.0,88.0
149,91.41843591666665,92.08255766666666,80.0,87.0
150,92.33446591666666,92.47568720833333,78.0,88.0
151,92.56347341666665,92.77339695833334,83.0,89.0
152,92.79248091666666,93.02721360416666,82.0,86.0
153,93.02148841666667,93.1722516875,78.0,83.0
154,93.25049591666667,93.39935079166666,73.0,83.0
155,93.47950341666666,93.75431241666666,75.0,86.0
156,93.93751841666666,94.12644960416665,75.0,89.0
157,94.16652591666667,94.29820522916665,73.0,88.0
158,94.39553341666667,94.53675470833332,75.0,87.0
159,94.62454091666666,94.9928613125,75.0,85.0
160,95.08255591666666,95.21232683333332,73.0,89.0
161,95.31156341666667,95.79057077083333,75.0,90.0
162,95.76957841666666,95.97950195833333,80.0,86.0
163,95.99858591666666,96.475684875,78.0,87.0
164,96.91461591666666,97.059654,73.0,87.0
165,97.14362341666666,97.34209658333333,75.0,86.0
166,97.5233941875,97.83064591666667,75.0,91.0
167,97.83064591666667,97.95278325,73.0,90.0
168,98.05965341666666,98.36308835416666,75.0,89.0
169,98.51766841666665,98.68751564583333,75.0,87.0
170,98.74667591666666,98.89934758333334,73.0,86.0
171,98.97568341666667,99.25240081249999,75.0,89.0
172,99.43369841666666,99.59591206249999,83.0,91.0
173,99.66270591666665,100.11881252083333,80.0,86.0
174,100.57873591666666,100.7294991875,78.0,85.0
175,100.80774341666665,101.12072033333334,80.0,89.0
176,101.26575841666667,101.57301014583334,80.0,86.0
177,101.72377341666666,102.07491825,80.0,85.0
178,102.18178841666666,102.51384929166666,83.0,91.0
179,102.63980341666667,102.94705514583333,80.0,87.0
180,103.09781841666666,103.22758933333333,75.0,88.0
181,103.32682591666666,103.79819968749999,73.0,91.0
182,104.01384841666666,104.13789414583333,71.0,86.0
183,104.24285591666666,104.36117645833332,73.0,86.0
184,104.47186341666666,104.87262654166666,75.0,89.0
185,104.92987841666667,105.35354229166666,78.0,90.0
186,105.38789341666666,105.75239702083333,75.0,90.0
187,105.84590841666666,105.99094649999999,78.0,88.0
188,106.07491591666667,107.90697591666665,80.0,87.0
189,114.77720091666666,115.013842,66.0,86.0
190,115.00620841666667,115.22376554166667,68.0,86.0
191,115.23521591666666,115.39361277083333,71.0,91.0
192,115.46422341666666,115.83445220833333,73.0,92.0
193,115.92223841666666,116.06918489583333,75.0,87.0
194,116.15124591666667,116.96803933333332,75.0,87.0
195,117.29628341666667,117.70277172916666,73.0,88.0
196,117.75429841666666,117.9050616875,78.0,86.0
197,117.98330591666667,118.43368733333332,75.0,94.0
198,118.67032841666666,118.84208404166667,75.0,89.0
199,118.89933591666666,119.13979379166666,78.0,86.0
200,119.12834341666667,119.53864852083333,80.0,85.0
201,119.58635841666666,119.93559485416667,83.0,87.0
202,120.04437341666666,120.3439915625,80.0,85.0
203,120.50238841666666,120.80773175,78.0,85.0
204,120.96040341666667,121.12070866666666,80.0,86.0
205,121.18941091666666,121.30773145833332,78.0,86.0
206,121.41841841666667,121.59971602083333,80.0,87.0
207,121.64742591666666,121.77338004166666,78.0,86.0
208,121.87643341666666,122.21231108333333,75.0,91.0
209,122.79246341666666,123.13024947916666,73.0,92.0
210,123.25047841666667,123.5958980625,75.0,90.0
211,123.70849341666666,124.0367375,73.0,86.0
212,124.16650841666666,124.3172716875,73.0,96.0
213,124.39551591666667,124.59398908333333,75.0,89.0
214,124.62452341666666,124.94322552083332,73.0,102.0
215,125.08253841666667,125.27528639583333,71.0,91.0
216,125.31154591666666,125.79055327083333,68.0,89.0
217,126.22757591666667,126.41650710416667,68.0,86.0
218,126.45658341666666,126.81154504166666,80.0,90.0
219,126.91459841666666,127.05009452083333,78.0,81.0
220,127.14360591666666,127.25810966666666,78.0,89.0
221,127.37261341666667,127.70849108333333,78.0,91.0
222,127.83062841666666,127.95658254166666,80.0,86.0
223,128.05963591666665,128.42032272916666,82.0,85.0
224,128.51765091666667,129.13597116666665,75.0,89.0
225,129.43368091666667,129.57108541666668,66.0,87.0
226,129.66268841666667,129.78864254166666,68.0,87.0
227,129.89169591666666,130.03100881249998,71.0,89.0
228,130.12070341666666,130.49093220833333,73.0,87.0
229,130.57871841666667,130.849710625,75.0,89.0
230,131.03673341666666,131.52719114583334,75.0,87.0
231,131.95276341666664,132.30199985416667,73.0,92.0
232,132.41077841666666,132.5729920625,78.0,88.0
233,132.63978591666665,132.94703764583335,75.0,90.0
234,133.32680841666667,133.45848772916668,75.0,83.0
235,133.55581591666666,133.69131202083332,78.0,87.0
236,133.78482341666665,134.12070108333333,80.0,85.0
237,134.24283841666664,134.55581533333333,83.0,89.0
238,134.70085341666666,135.06154022916667,80.0,86.0
239,135.15886841666668,135.38787591666664,78.0,86.0
240,135.38787591666664,135.61688341666667,78.0,86.0
241,135.61688341666667,135.78482225,80.0,87.0
242,135.84589091666666,135.979478625,78.0,88.0
243,136.07489841666666,136.23520366666668,80.0,87.0
244,136.30390591666668,136.4432188125,78.0,87.0
245,136.53291341666664,136.91650097916664,75.0,90.0
246,137.44894341666668,137.78291268750002,73.0,92.0
247,137.90695841666667,138.26573683333334,75.0,87.0
248,138.36497341666666,138.647416,73.0,87.0
249,138.82298841666665,138.95466772916666,73.0,87.0
250,139.05199591666667,139.208484375,75.0,86.0
251,139.28100341666666,139.63978183333333,73.0,92.0
252,139.73901841666668,139.92222441666667,71.0,83.0
253,139.96802591666665,140.47756760416667,68.0,86.0
254,140.88405591666668,141.07298710416666,66.0,85.0
255,141.11306341666665,141.44321589583333,80.0,89.0
256,141.57107841666667,141.8477958125,78.0,86.0
257,142.02909341666668,142.3573375,78.0,86.0
258,142.48710841666667,142.65504725,75.0,88.0
259,142.71611591666667,143.44321472916664,78.0,85.0
260,143.63214591666667,143.77336720833333,78.0,88.0
261,143.86115341666667,144.07107695833332,83.0,89.0
262,144.09016091666666,144.32489360416668,82.0,86.0
263,144.31916841666666,144.46993168749998,78.0,83.0
264,144.54817591666665,144.69703079166666,73.0,83.0
265,144.77718341666667,145.05199241666668,75.0,86.0
266,145.23519841666666,145.42412960416667,75.0,89.0
267,145.46420591666666,145.59588522916667,73.0,88.0
268,145.69321341666665,145.83443470833333,75.0,87.0
269,145.92222091666667,146.2905413125,75.0,85.0
270,146.38023591666666,146.51000683333334,73.0,89.0
271,146.60924341666666,147.08825077083333,75.0,90.0
272,147.06725841666668,147.27718195833333,80.0,86.0
273,147.29626591666664,147.773364875,78.0,87.0
274,148.21229591666668,148.35733399999998,73.0,87.0
275,148.44130341666664,148.63977658333334,75.0,86.0
276,148.82107418750002,149.12832591666665,75.0,91.0
277,149.12832591666665,149.25046325,73.0,90.0
278,149.35733341666668,149.66076835416666,75.0,89.0
279,149.81534841666667,149.98519564583333,75.0,87.0
280,150.04435591666666,150.19702758333332,73.0,86.0
281,150.27336341666665,150.5500808125,75.0,89.0
282,150.73137841666664,150.89359206249998,83.0,91.0
283,150.96038591666667,151.41649252083334,80.0,86.0
284,151.87641591666664,152.0271791875,78.0,85.0
285,152.10542341666667,152.41840033333332,80.0,89.0
286,152.56343841666666,152.87069014583332,80.0,86.0
287,153.02145341666665,153.37259825,80.0,85.0
288,153.47946841666666,153.81152929166666,83.0,91.0
289,153.93748341666668,154.24473514583332,80.0,87.0
290,154.39549841666667,154.5252693333333,75.0,88.0
291,154.62450591666666,155.0958796875,73.0,91.0
292,155.31152841666665,155.43557414583333,71.0,86.0
293,155.54053591666667,155.65885645833333,73.0,86.0
294,155.76954341666666,156.17030654166666,75.0,89.0
295,156.22755841666668,156.65122229166667,78.0,90.0
296,156.68557341666667,157.05007702083333,75.0,90.0
297,157.14358841666666,157.2886265,78.0,88.0
298,157.37259591666668,158.03671766666668,80.0,87.0
299,158.28862591666666,158.42984720833334,78.0,88.0
300,158.51763341666668,158.7275569583333,83.0,89.0
301,158.74664091666665,158.98137360416666,82.0,86.0
302,158.97564841666667,159.1264116875,78.0,83.0
303,159.20465591666667,159.35351079166668,73.0,83.0
304,159.43366341666666,159.70847241666667,75.0,86.0
305,159.89167841666665,160.08060960416668,75.0,89.0
306,160.12068591666667,160.25236522916666,73.0,88.0
307,160.34969341666667,160.49091470833332,75.0,87.0
308,160.57870091666666,160.9470213125,75.0,85.0
309,161.03671591666665,161.16648683333332,73.0,89.0
310,161.26572341666667,161.7447307708333,75.0,90.0
311,161.72373841666666,161.93366195833335,80.0,86.0
312,161.95274591666666,162.42984487500001,78.0,87.0
313,162.86877591666666,163.013814,73.0,87.0
314,163.09778341666666,163.29625658333333,75.0,86.0
315,163.4775541875,163.78480591666664,75.0,91.0
316,163.78480591666664,163.90694324999998,73.0,90.0
317,164.01381341666666,164.31724835416668,75.0,89.0
318,164.47182841666665,164.64167564583335,75.0,87.0
319,164.70083591666668,164.85350758333334,73.0,86.0
320,164.92984341666664,165.20656081250002,75.0,89.0
321,165.38785841666666,165.5500720625,83.0,91.0
322,165.61686591666665,166.07297252083333,80.0,86.0
323,166.53289591666666,166.68365918749998,78.0,85.0
324,166.76190341666666,167.07488033333334,80.0,89.0
325,167.21991841666664,167.52717014583334,80.0,86.0
326,167.67793341666666,168.02907825,80.0,85.0
327,168.13594841666668,168.46800929166665,83.0,91.0
328,168.59396341666667,168.90121514583333,80.0,87.0
329,169.05197841666666,169.18174933333333,75.0,88.0
330,169.28098591666668,169.7523596875,73.0,91.0
331,169.96800841666666,170.09205414583334,71.0,86.0
332,170.19701591666666,170.31533645833332,73.0,86.0
333,170.42602341666668,170.82678654166665,75.0,89.0
334,170.88403841666667,171.30770229166666,78.0,90.0
335,171.34205341666666,171.70655702083332,75.0,90.0
336,171.80006841666665,171.9451065,78.0,88.0
337,172.02907591666667,173.86113591666668,80.0,87.0
338,188.74662341666664,189.25616510416666,63.0,90.0
339,189.20463841666668,189.54242447916664,66.0,81.0
340,189.66265341666667,190.08059210416667,66.0,86.0
341,190.12066841666666,190.620668125,63.0,89.0
342,190.57868341666665,191.97562916666664,66.0,86.0
343,192.41074341666666,192.86112483333335,63.0,94.0
344,192.86875841666665,193.2256284375,68.0,86.0
345,193.32677341666664,193.69700220833334,68.0,86.0
346,193.7847884166667,193.9603608333333,66.0,86.0
347,194.01379591666665,195.590130875,68.0,83.0
348,196.0748634166667,196.4202830625,68.0,88.0
349,196.53287841666668,196.90501560416664,68.0,87.0
350,196.99089341666667,197.33822145833335,68.0,86.0
351,197.44890841666665,197.60921366666668,66.0,81.0
352,197.67791591666668,198.681732125,68.0,80.0
353,199.73898341666666,200.1034870208333,68.0,86.0
354,200.19699841666664,200.50806693750002,71.0,92.0
355,200.6550134166667,200.9775323125,68.0,89.0
356,201.11302841666668,201.2752420625,63.0,87.0
357,201.34203591666665,202.9469968125,66.0,81.0
358,203.40310341666668,203.7504314583333,63.0,85.0
359,203.86111841666667,204.17600372916667,66.0,81.0
360,204.31913341666666,204.66646145833334,66.0,85.0
361,204.77714841666665,204.95462922916664,63.0,87.0
362,205.00615591666667,206.60920841666666,66.0,79.0
363,207.06722341666665,207.41836825000001,63.0,86.0
364,207.52523841666664,207.86684127083333,68.0,86.0
365,207.98325341666668,208.31531429166665,68.0,89.0
366,208.44126841666667,208.6034820625,66.0,81.0
367,208.67027591666664,210.30386275,68.0,85.0
368,210.73134341666668,211.06149589583333,68.0,69.0
369,211.18935841666666,211.51951089583332,68.0,89.0
370,211.64737341666665,212.0042434375,68.0,86.0
371,212.10538841666664,212.25233489583331,66.0,87.0
372,212.33439591666667,213.42599833333333,68.0,87.0
373,214.39546341666664,214.7179823125,68.0,88.0
374,214.8534784166667,215.1416461875,68.0,88.0
375,215.31149341666668,215.70653135416666,68.0,89.0
376,215.76950841666667,215.92027168750002,63.0,90.0
377,215.9985159166667,216.68553841666665,66.0,83.0
378,216.91454591666667,217.05576720833335,78.0,88.0
379,217.14355341666663,217.35347695833332,83.0,89.0
380,217.37256091666666,217.60729360416667,82.0,86.0
381,217.60156841666668,217.75233168749998,78.0,83.0
382,217.83057591666665,217.9794307916667,73.0,83.0
383,218.05958341666667,218.33439241666667,75.0,86.0
384,218.51759841666666,218.7065296041667,75.0,89.0
385,218.74660591666668,218.87828522916664,73.0,88.0
386,218.97561341666665,219.11683470833333,75.0,87.0
387,219.20462091666667,219.5729413125,75.0,85.0
388,219.66263591666666,219.7924068333333,73.0,89.0
389,219.89164341666668,220.37065077083332,75.0,90.0
390,220.34965841666667,220.55958195833335,80.0,86.0
391,220.57866591666664,221.05576487500002,78.0,87.0
392,221.49469591666667,221.63973399999998,73.0,87.0
393,221.72370341666664,221.92217658333334,75.0,86.0
394,222.1034741875,222.41072591666665,75.0,91.0
395,222.41072591666665,222.53286325,73.0,90.0
396,222.63973341666667,222.9431683541667,75.0,89.0
397,223.09774841666666,223.26759564583335,75.0,87.0
398,223.32675591666668,223.47942758333335,73.0,86.0
399,223.55576341666665,223.83248081250002,75.0,89.0
400,224.01377841666664,224.17599206249997,83.0,91.0
401,224.24278591666666,224.69889252083334,80.0,86.0
402,225.15881591666664,225.3095791875,78.0,85.0
403,225.38782341666666,225.70080033333335,80.0,89.0
404,225.84583841666665,226.15309014583335,80.0,86.0
405,226.30385341666664,226.65499825,80.0,85.0
406,226.7618684166667,227.09392929166665,83.0,91.0
407,227.21988341666668,227.5271351458333,80.0,87.0
408,227.67789841666666,227.8076693333333,75.0,88.0
409,227.9069059166667,228.37827968749997,73.0,91.0
410,228.59392841666664,228.71797414583335,71.0,86.0
411,228.82293591666667,228.94125645833333,73.0,86.0
412,229.0519434166667,229.45270654166666,75.0,89.0
413,229.50995841666668,229.93362229166667,78.0,90.0
414,229.96797341666667,230.33247702083332,75.0,90.0
415,230.42598841666666,230.57102650000002,78.0,88.0
416,230.65499591666668,231.31911766666667,80.0,87.0
417,231.57102591666666,231.71224720833334,78.0,88.0
418,231.80003341666668,232.0099569583333,83.0,89.0
419,232.02904091666664,232.26377360416666,82.0,86.0
420,232.25804841666667,232.40881168750002,78.0,83.0
421,232.4870559166667,232.63591079166667,73.0,83.0
422,232.71606341666666,232.99087241666666,75.0,86.0
423,233.17407841666665,233.36300960416668,75.0,89.0
424,233.40308591666667,233.53476522916668,73.0,88.0
425,233.63209341666663,233.77331470833332,75.0,87.0
426,233.86110091666666,234.2294213125,75.0,85.0
427,234.31911591666665,234.44888683333335,73.0,89.0
428,234.54812341666667,235.0271307708333,75.0,90.0
429,235.00613841666666,235.21606195833334,80.0,86.0
430,235.23514591666668,235.712244875,78.0,87.0
431,236.15117591666666,236.29621400000002,73.0,87.0
432,236.38018341666668,236.57865658333333,75.0,86.0
433,236.7599541875,237.06720591666664,75.0,91.0
434,237.06720591666664,237.18934324999998,73.0,90.0
435,237.29621341666666,237.59964835416667,75.0,89.0
436,237.75422841666665,237.92407564583334,75.0,87.0
437,237.98323591666667,238.13590758333333,73.0,86.0
438,238.21224341666664,238.4889608125,75.0,89.0
439,238.67025841666668,238.83247206250002,83.0,91.0
440,238.89926591666665,239.35537252083333,80.0,86.0
441,239.81529591666668,239.96605918749998,78.0,85.0
442,240.04430341666665,240.35728033333334,80.0,89.0
443,240.50231841666664,240.80957014583333,80.0,86.0
444,240.96033341666669,241.31147825,80.0,85.0
445,241.41834841666667,241.75040929166664,83.0,91.0
446,241.87636341666666,242.18361514583336,80.0,87.0
447,242.33437841666665,242.46414933333335,75.0,88.0
448,242.56338591666668,243.0347596875,73.0,91.0
449,243.2504084166667,243.37445414583334,71.0,86.0
450,243.47941591666665,243.59773645833332,73.0,86.0
451,243.70842341666668,244.10918654166665,75.0,89.0
452,244.16643841666667,244.59010229166665,78.0,90.0
453,244.62445341666665,244.9889570208333,75.0,90.0
454,245.08246841666664,245.5404834166667,78.0,88.0
455,245.5404834166667,247.14353591666668,80.0,87.0
456,247.0767420625,247.29620758333334,78.0,89.0
457,247.35727624999998,247.666436375,80.0,89.0
458,247.80765766666667,248.10536741666664,80.0,90.0
459,248.28093983333332,248.605367125,80.0,92.0
460,248.7694891666667,249.05956533333335,83.0,96.0
461,249.2523133125,249.55002306249997,80.0,87.0
462,249.76376339583334,249.96796174999997,75.0,94.0
463,250.0538395625,250.5691064375,73.0,91.0
464,250.69506056249998,250.84582383333333,71.0,86.0
465,250.91261768750002,251.04620539583334,73.0,92.0
466,251.15307556250002,251.6110905625,75.0,90.0
467,251.67597602083333,252.07483075,78.0,85.0
468,252.235136,252.57292206249997,75.0,83.0
469,252.65116629166664,253.05956299999997,78.0,86.0
470,253.1435324166667,255.41452345833335,80.0,87.0
