,start,end,pitch,velocity
0,1.874998125,2.8882546875,63.0,80.0
1,1.6912861875,2.965906125,52.0,74.0
2,1.8428011875,2.9715879375,59.0,63.0
3,1.7708315625,3.026512125,56.0,74.0
4,3.2386331250000002,3.3503754375,52.0,56.0
5,2.746209375,4.0094656875,47.0,71.0
6,1.821967875,4.746207375,40.0,80.0
7,3.6950720625,4.787874,56.0,75.0
8,3.6837084375,4.8276466875,52.0,69.0
9,5.5132520625,6.5587055625,51.0,73.0
10,5.488630875,6.606054,54.0,72.0
11,6.878781,7.200750375,58.0,74.0
12,7.3427956875,7.458325875,61.0,66.0
13,7.3484775,8.333325,58.0,69.0
14,7.3427956875,8.337112875,63.0,68.0
15,7.215901875,8.34090075,51.0,73.0
16,7.2897654375,8.3484765,54.0,76.0
17,5.5321914375,8.5056733125,39.0,80.0
18,6.435599625,8.7594609375,46.0,61.0
19,9.117415125,9.26514225,37.0,80.0
20,8.969688,9.321960375,49.0,72.0
21,9.02271825,9.3579451875,52.0,69.0
22,9.12877875,9.3730966875,56.0,65.0
23,10.11362625,11.837109375,56.0,80.0
24,9.617414625,11.9242305,49.0,70.0
25,10.988625375,12.0056698125,64.0,76.0
26,10.5302925,12.0454425,61.0,87.0
27,12.6761236875,13.4185471875,54.0,74.0
28,13.215895875,13.882561875,49.0,73.0
29,13.6685469375,14.238622125000001,54.0,79.0
30,12.787866,14.2556675625,61.0,60.0
31,12.740517562500001,14.2670311875,58.0,79.0
32,14.1060465,15.916451791666667,49.0,70.0
33,12.761350875,15.969186166666667,42.0,75.0
34,14.46210675,16.394967416666667,54.0,71.0
35,14.54544,16.394967416666667,58.0,74.0
36,14.617409625,16.410592416666667,66.0,75.0
37,16.482858041666667,16.586373666666667,35.0,76.0
38,16.482858041666667,17.542292729166668,59.0,74.0
39,16.482858041666667,17.599984916666667,63.0,81.0
40,17.4192160625,18.576905958333334,54.0,75.0
41,18.3422910625,18.998058927083335,63.0,76.0
42,18.3422910625,19.038443458333333,66.0,78.0
43,17.8807535625,19.0576741875,59.0,77.0
44,16.951608041666667,19.43267340625,47.0,56.0
45,20.1884410625,20.838439708333333,56.0,70.0
46,20.6499785625,21.123054500000002,51.0,59.0
47,20.1884410625,21.461515333333335,59.0,75.0
48,21.1115160625,22.12112934375,56.0,78.0
49,21.5730535625,22.296128979166667,51.0,70.0
50,22.0345910625,22.549974604166668,59.0,77.0
51,22.9576660625,23.128819552083336,56.0,78.0
52,22.4961285625,23.169204083333334,51.0,53.0
53,22.9576660625,23.1884348125,63.0,85.0
54,20.1884410625,23.32112684375,44.0,80.0
55,23.8807410625,24.044202260416668,52.0,72.0
56,23.8807410625,24.823046791666666,56.0,74.0
57,24.8038160625,25.3345841875,52.0,80.0
58,25.2653535625,25.47881465625,56.0,72.0
59,25.726891062500002,25.899967625000002,59.0,80.0
60,24.3422785625,25.930736791666668,47.0,69.0
61,26.1884285625,26.7653504375,47.0,49.0
62,26.6499660625,26.77111965625,56.0,80.0
63,26.6499660625,26.78458116666667,52.0,82.0
64,23.8807410625,26.826888770833335,40.0,81.0
65,28.034578562500002,28.703807937500002,54.0,85.0
66,28.4961160625,29.261499083333334,61.0,78.0
67,28.9576535625,29.476737708333335,54.0,80.0
68,29.418025645833335,29.607419395833332,61.0,79.0
69,29.418025645833335,29.690752645833335,66.0,80.0
70,29.872570645833335,30.044918958333334,54.0,71.0
71,30.327115645833334,30.469160958333333,54.0,81.0
72,30.327115645833334,30.480524583333334,61.0,79.0
73,27.5730410625,30.527873020833333,42.0,83.0
74,31.236205645833333,31.455902395833334,54.0,74.0
75,31.690750645833333,32.145295645833336,54.0,69.0
76,31.236205645833333,32.16234108333333,59.0,76.0
77,32.145295645833336,32.556280083333334,63.0,78.0
78,32.59984064583333,33.107415895833334,54.0,63.0
79,33.054385645833335,33.611203270833336,59.0,78.0
80,33.963475645833334,34.12824820833333,54.0,81.0
81,31.236205645833333,34.43506608333333,47.0,79.0
82,33.963475645833334,34.68506583333333,63.0,86.0
83,34.87256564583333,35.508928645833336,56.0,73.0
84,34.87256564583333,35.54301952083333,59.0,77.0
85,35.327110645833336,35.925594895833335,51.0,80.0
86,35.78165564583333,36.56006395833333,56.0,75.0
87,36.236200645833335,36.81006370833333,51.0,60.0
88,36.69074564583333,37.12066945833333,63.0,86.0
89,37.145290645833335,37.80816877083333,51.0,61.0
90,34.87256564583333,37.91044139583333,44.0,80.0
91,37.59983564583334,37.95968377083334,59.0,87.0
92,38.054380645833334,38.15475933333333,58.0,76.0
93,38.50892564583333,39.49945495833333,56.0,77.0
94,39.418015645833336,39.91612120833334,52.0,83.0
95,39.87256064583333,40.41612070833334,56.0,85.0
96,38.96347064583333,40.503241833333334,47.0,72.0
97,40.327105645833335,40.630135645833334,59.0,85.0
98,40.78165064583334,41.436953020833336,47.0,56.0
99,41.236195645833334,41.45021058333333,56.0,85.0
100,38.50892564583333,41.52596808333333,40.0,84.0
101,42.14528564583333,43.48051158333333,54.0,82.0
102,43.05437564583333,43.54111758333333,58.0,83.0
103,43.508920645833335,43.683162895833334,61.0,81.0
104,43.9651555,44.357462375,66.0,82.0
105,44.426693,44.67669247916667,54.0,66.0
106,44.8882305,45.04592247916666,61.0,80.0
107,42.599830645833336,45.065153208333335,49.0,72.0
108,44.8882305,45.080537791666664,54.0,79.0
109,42.14528564583333,45.201691385416666,42.0,85.0
110,45.811305499999996,46.75553430208333,52.0,76.0
111,45.811305499999996,46.78630346875,59.0,81.0
112,46.7343805,47.213225656249996,55.0,85.0
113,45.811305499999996,47.50360966666666,40.0,85.0
114,46.272843,47.509378885416666,47.0,73.0
115,47.195918,47.522840395833335,52.0,79.0
116,47.42668675,48.40553086458333,59.0,81.0
117,48.5805305,48.6382226875,59.0,63.0
118,48.34976175,48.665145708333334,55.0,73.0
119,48.118992999999996,48.80937617708333,52.0,72.0
120,49.042068,49.480528625,52.0,79.0
121,47.88822425,49.482451697916666,47.0,75.0
122,48.81129925,49.49014398958333,59.0,85.0
123,48.5805305,49.4920670625,64.0,88.0
124,47.6574555,49.518990083333335,40.0,84.0
125,49.5036055,49.77475878125,59.0,79.0
126,49.5036055,49.97283529166667,63.0,83.0
127,49.965143,50.26129622916667,59.0,73.0
128,49.73437425,50.3228345625,54.0,74.0
129,50.19591175,50.68181845833333,63.0,86.0
130,49.5036055,51.16464260416666,47.0,86.0
131,50.88410841666666,51.31922266666666,59.0,73.0
132,51.113115916666665,51.35357379166666,63.0,79.0
133,50.42609341666666,51.38792491666666,54.0,60.0
134,50.65510091666666,51.71998579166666,66.0,80.0
135,51.80013841666666,52.47952733333333,58.0,75.0
136,52.029145916666664,52.57876391666666,61.0,80.0
137,51.57113091666666,52.77532868749999,54.0,75.0
138,51.34212341666666,52.8554813125,46.0,86.0
139,52.71616841666666,53.122656729166664,58.0,80.0
140,52.94517591666666,53.189450583333326,61.0,80.0
141,52.48716091666666,54.08257983333333,66.0,85.0
142,53.63219841666666,54.149373687499995,56.0,74.0
143,53.86120591666666,54.2180759375,59.0,81.0
144,53.40319091666666,54.452808624999996,51.0,74.0
145,53.174183416666665,54.84593816666666,44.0,85.0
146,54.319220916666666,54.97952587499999,63.0,87.0
147,54.54822841666666,55.008151812499996,51.0,73.0
148,54.77723591666666,55.134105937499996,56.0,76.0
149,55.46425841666666,56.141738937499994,54.0,78.0
150,55.69326591666666,56.38601360416666,61.0,81.0
151,55.00624341666666,56.697082124999994,42.0,85.0
152,55.235250916666665,56.70089891666666,49.0,68.0
153,56.151280916666664,56.77723475,66.0,82.0
154,56.60929591666666,56.87647133333333,61.0,76.0
155,56.38028841666666,56.89364689583333,54.0,83.0
156,57.296318416666665,58.03295920833333,52.0,76.0
157,57.52532591666666,58.036775999999996,56.0,83.0
158,56.83830341666666,58.52532533333333,40.0,86.0
159,57.06731091666666,58.56731004166666,47.0,72.0
160,58.212348416666664,58.851661020833326,52.0,77.0
161,58.441355916666666,59.147462374999996,56.0,85.0
162,57.98334091666666,59.1646379375,59.0,86.0
163,59.12837841666666,59.85547722916666,52.0,79.0
164,59.58639341666666,59.91272910416666,59.0,43.0
165,59.35738591666666,59.92227108333333,56.0,85.0
166,58.67036341666666,60.288683083333325,40.0,85.0
167,58.89937091666666,60.323034208333326,47.0,73.0
168,59.81540091666666,60.357385333333326,64.0,86.0
169,60.04440841666666,60.49097304166666,52.0,86.0
170,60.273415916666664,60.5959348125,59.0,79.0
171,60.96043841666666,61.31158325,54.0,76.0
172,61.18944591666666,61.719979958333326,61.0,82.0
173,61.64746091666666,62.15127741666666,66.0,85.0
174,60.50242341666666,62.19707891666666,42.0,86.0
175,60.73143091666666,62.21997966666666,49.0,72.0
176,61.87646841666666,62.48333829166666,54.0,73.0
177,62.10547591666666,62.81730756249999,61.0,84.0
178,62.79249841666666,63.09784174999999,54.0,83.0
179,62.563490916666666,63.118834104166666,49.0,77.0
180,63.02150591666666,63.45662016666666,61.0,88.0
181,63.47952091666666,63.91272677083333,66.0,81.0
182,63.70852841666666,64.03295570833333,54.0,82.0
183,62.334483416666664,64.10165795833333,42.0,85.0
184,63.250513416666664,64.11119993749999,49.0,82.0
185,63.93753591666666,64.15890983333333,61.0,79.0
186,64.16654341666666,64.43562722916667,59.0,79.0
187,64.16654341666666,64.63219199999999,63.0,83.0
188,64.62455841666666,64.91845137499999,59.0,73.0
189,64.39555091666666,64.97952004166666,54.0,74.0
190,64.85356591666667,65.33829845833333,63.0,86.0
191,64.16654341666666,65.82112260416666,47.0,86.0
192,65.54058841666667,65.97570266666666,59.0,73.0
193,65.76959591666666,66.01005379166666,63.0,79.0
194,65.08257341666666,66.04440491666666,54.0,60.0
195,65.31158091666666,66.37646579166666,66.0,80.0
196,66.45661841666666,67.13600733333332,58.0,75.0
197,66.68562591666667,67.23524391666666,61.0,80.0
198,66.22761091666666,67.4318086875,54.0,75.0
199,65.99860341666667,67.51196131249999,46.0,86.0
200,67.37264841666666,67.77913672916667,58.0,80.0
201,67.60165591666666,67.84593058333333,61.0,80.0
202,67.14364091666667,68.73905983333333,66.0,85.0
203,68.28867841666667,68.80585368749999,56.0,74.0
204,68.51768591666666,68.87455593749999,59.0,81.0
205,68.05967091666666,69.10928862499999,51.0,74.0
206,67.83066341666667,69.50241816666666,44.0,85.0
207,68.97570091666665,69.636005875,63.0,87.0
208,69.20470841666666,69.66463181249999,51.0,73.0
209,69.43371591666667,69.7905859375,56.0,76.0
210,70.12073841666665,70.7982189375,54.0,78.0
211,70.34974591666666,71.04249360416667,61.0,81.0
212,69.66272341666667,71.353562125,42.0,85.0
213,69.89173091666666,71.35737891666666,49.0,68.0
214,70.80776091666667,71.43371475,66.0,82.0
215,71.26577591666666,71.53295133333333,61.0,76.0
216,71.03676841666666,71.55012689583333,54.0,83.0
217,71.95279841666667,72.68943920833333,52.0,76.0
218,72.18180591666666,72.69325599999999,56.0,83.0
219,71.49478341666666,73.18180533333333,40.0,86.0
220,71.72379091666666,73.22379004166666,47.0,72.0
221,72.86882841666666,73.50814102083334,52.0,77.0
222,73.09783591666667,73.80394237499999,56.0,85.0
223,72.63982091666666,73.82111793749999,59.0,86.0
224,73.78485841666667,74.51195722916665,52.0,79.0
225,74.24287341666667,74.56920910416666,59.0,43.0
226,74.01386591666666,74.57875108333333,56.0,85.0
227,73.32684341666666,74.94516308333333,40.0,85.0
228,73.55585091666666,74.97951420833333,47.0,73.0
229,74.47188091666666,75.01386533333333,64.0,86.0
230,74.70088841666666,75.14745304166667,52.0,86.0
231,74.92989591666667,75.25241481249999,59.0,79.0
232,75.61691841666666,75.96806325,54.0,76.0
233,75.84592591666666,76.37645995833333,61.0,82.0
234,76.30394091666666,76.80775741666666,66.0,85.0
235,75.15890341666666,76.85355891666666,42.0,86.0
236,75.38791091666667,76.87645966666666,49.0,72.0
237,76.53294841666667,77.13981829166666,54.0,73.0
238,76.76195591666666,77.4737875625,61.0,84.0
239,77.44897841666666,77.75432175,54.0,83.0
240,77.21997091666665,77.77531410416665,49.0,77.0
241,77.67798591666666,78.11310016666667,61.0,88.0
242,78.13600091666666,78.56920677083333,66.0,81.0
243,78.36500841666665,78.68943570833332,54.0,82.0
244,76.99096341666666,78.75813795833332,42.0,85.0
245,77.90699341666667,78.76767993749999,49.0,82.0
246,78.59401591666666,78.81538983333333,61.0,79.0
247,78.82302341666666,78.94516075,54.0,83.0
248,78.82302341666666,79.16844306249999,63.0,86.0
249,79.05203091666667,79.39935895833332,54.0,84.0
250,79.28103841666666,79.44134366666665,59.0,82.0
251,79.51004591666666,79.86500754166667,61.0,90.0
252,79.96806091666666,80.19325162499999,59.0,87.0
253,80.19706841666667,80.5081369375,54.0,88.0
254,80.42607591666666,80.55584683333333,59.0,83.0
255,78.82302341666666,80.56920560416665,47.0,87.0
256,80.65508341666666,80.80966347916666,54.0,82.0
257,80.65508341666666,81.01386183333332,63.0,85.0
258,80.88409091666666,81.212335,54.0,87.0
259,81.11309841666666,81.26577008333334,59.0,78.0
260,81.34210591666667,81.38981581249999,54.0,69.0
261,81.34210591666667,81.84210562499999,63.0,91.0
262,81.80012091666666,82.00622766666666,54.0,81.0
263,80.65508341666666,82.22950997916666,47.0,87.0
264,82.02912841666667,82.29630383333333,58.0,88.0
265,82.25813591666666,82.38790683333333,54.0,85.0
266,82.48714341666667,82.69706695833332,56.0,77.0
267,82.48714341666667,82.72760129166666,59.0,81.0
268,82.94515841666666,83.09210489583333,56.0,76.0
269,82.71615091666666,83.43561614583334,51.0,78.0
270,83.17416591666665,83.70088316666667,56.0,79.0
271,83.17416591666665,83.70660835416666,63.0,89.0
272,83.86118841666666,84.15889816666666,56.0,85.0
273,82.48714341666667,84.21233325,44.0,85.0
274,83.63218091666667,84.223783625,51.0,79.0
275,84.09019591666666,84.6073711875,59.0,90.0
276,84.77721841666667,85.07492816666667,56.0,77.0
277,84.54821091666666,85.16462277083332,51.0,74.0
278,85.00622591666666,85.32111122916666,59.0,96.0
279,85.46424091666665,85.735233125,56.0,88.0
280,84.31920341666665,85.86500404166667,44.0,86.0
281,85.69324841666666,85.97759939583332,59.0,94.0
282,85.23523341666666,86.09782833333333,51.0,86.0
283,85.92225591666667,86.59210285416665,63.0,94.0
284,86.60927841666665,86.96424004166667,52.0,82.0
285,86.83828591666666,87.29057572916666,56.0,86.0
286,87.29630091666667,87.6417205625,59.0,87.0
287,86.15126341666667,87.85164410416667,40.0,86.0
288,86.38027091666666,87.87645325,47.0,80.0
289,87.52530841666666,88.05775085416667,52.0,77.0
290,87.75431591666666,88.162712625,56.0,85.0
291,87.98332341666666,88.51576585416666,64.0,86.0
292,88.44133841666667,88.74286495833333,52.0,86.0
293,88.67034591666666,88.99477320833333,59.0,84.0
294,89.12836091666667,89.35164322916665,56.0,73.0
295,87.98332341666666,89.64362779166666,40.0,85.0
296,89.35736841666666,89.66080335416666,52.0,86.0
297,88.21233091666666,89.67797891666666,47.0,85.0
298,89.58637591666667,89.82492539583333,56.0,85.0
299,90.27339841666665,90.57301656249999,54.0,78.0
300,90.50240591666666,91.0195811875,61.0,85.0
301,90.96042091666666,91.29820697916666,66.0,86.0
302,91.18942841666666,91.45087864583333,54.0,86.0
303,89.81538341666666,91.49858854166666,42.0,87.0
304,90.04439091666666,91.53293966666666,49.0,76.0
305,91.41843591666665,91.552023625,61.0,85.0
306,91.64744341666666,91.90889364583333,54.0,88.0
307,92.10545841666666,92.20851179166667,54.0,86.0
308,91.87645091666667,92.45469485416666,49.0,85.0
309,92.33446591666666,92.628358875,54.0,89.0
310,92.33446591666666,92.64171764583332,58.0,86.0
311,92.56347341666665,92.85927477083334,49.0,86.0
312,92.79248091666666,93.06728991666665,54.0,87.0
313,92.79248091666666,93.10354943749999,58.0,89.0
314,92.79248091666666,93.11690820833333,61.0,89.0
315,91.64744341666666,93.31728977083333,42.0,86.0
316,93.02148841666667,93.34973249999999,49.0,86.0
317,93.25049591666667,93.40316758333333,54.0,85.0
318,93.47950341666666,93.69324375,54.0,86.0
319,93.47950341666666,93.99858708333332,59.0,85.0
320,93.93751841666666,94.03484660416666,54.0,78.0
321,93.47950341666666,94.63026610416667,47.0,86.0
322,94.16652591666667,94.81919729166665,63.0,91.0
323,94.85354841666665,95.17415891666667,59.0,83.0
324,94.62454091666666,95.19515127083332,54.0,82.0
325,95.08255591666666,95.57492204166667,63.0,86.0
326,95.31156341666667,95.70850974999999,35.0,85.0
327,95.54057091666667,95.83255547916667,54.0,79.0
328,95.76957841666666,95.88789895833332,59.0,80.0
329,95.99858591666666,96.26003614583333,54.0,86.0
330,95.99858591666666,96.31919641666667,63.0,87.0
331,96.45660091666666,96.53675354166666,54.0,76.0
332,96.45660091666666,96.72377633333332,59.0,89.0
333,96.68560841666667,96.956600625,54.0,81.0
334,96.91461591666666,97.20850887499999,59.0,78.0
335,97.37263091666667,97.66461547916666,56.0,82.0
336,97.60163841666666,97.75049329166666,59.0,75.0
337,97.14362341666666,98.04438625,44.0,82.0
338,97.83064591666667,98.1302640625,63.0,91.0
339,98.28866091666666,98.37835552083334,56.0,82.0
340,98.28866091666666,98.65507291666665,63.0,86.0
341,98.51766841666665,98.77721025,56.0,82.0
342,98.74667591666666,99.28293514583333,59.0,89.0
343,99.43369841666666,99.57682810416667,56.0,81.0
344,99.66270591666665,99.79438522916666,59.0,92.0
345,99.20469091666666,99.99285839583334,51.0,71.0
346,99.89171341666666,100.13217129166667,56.0,86.0
347,99.89171341666666,100.18369797916665,59.0,89.0
348,99.89171341666666,100.19514835416666,63.0,102.0
349,100.12072091666667,100.56728554166666,51.0,86.0
350,98.97568341666667,100.60736185416667,44.0,88.0
351,100.34972841666666,100.77530068749999,56.0,85.0
352,100.57873591666666,100.8096518125,59.0,86.0
353,101.26575841666667,101.4107965,52.0,81.0
354,101.49476591666667,101.78484208333333,52.0,84.0
355,101.49476591666667,101.811559625,59.0,85.0
356,101.95278091666665,102.06728466666667,52.0,85.0
357,101.95278091666665,102.189422,56.0,86.0
358,100.80774341666665,102.45087222916666,40.0,85.0
359,102.18178841666666,102.47377297916665,52.0,85.0
360,101.03675091666666,102.50621570833333,47.0,77.0
361,102.41079591666667,103.17797104166667,59.0,91.0
362,103.09781841666666,103.29056639583334,52.0,81.0
363,103.32682591666666,103.4260625,52.0,74.0
364,103.32682591666666,103.58445935416665,64.0,88.0
365,103.78484091666667,103.90506985416667,52.0,80.0
366,102.86881091666666,103.92033702083333,47.0,83.0
367,103.78484091666667,104.04438275,56.0,87.0
368,103.78484091666667,104.14361933333333,59.0,87.0
369,102.63980341666667,104.296291,40.0,86.0
370,104.01384841666666,104.296291,47.0,89.0
371,104.24285591666666,104.35163447916666,56.0,72.0
372,104.24285591666666,104.4852221875,52.0,89.0
373,104.24285591666666,104.49285577083333,59.0,50.0
374,104.92987841666667,105.25430570833333,54.0,85.0
375,105.15888591666666,105.68560316666665,61.0,82.0
376,105.61690091666667,105.96804574999999,66.0,85.0
377,104.47186341666666,106.16079372916667,42.0,88.0
378,104.70087091666666,106.17224410416667,49.0,74.0
379,105.84590841666666,106.49285460416667,54.0,86.0
380,106.07491591666667,106.75048804166667,61.0,83.0
381,106.76193841666665,106.86499179166665,54.0,83.0
382,106.53293091666666,107.07682372916666,49.0,78.0
383,106.99094591666666,107.3249151875,54.0,91.0
384,106.99094591666666,107.32682358333332,61.0,86.0
385,107.21995341666667,107.52911354166666,49.0,85.0
386,107.44896091666666,107.742853875,54.0,86.0
387,107.44896091666666,107.93560185416666,61.0,86.0
388,106.30392341666666,107.960411,42.0,86.0
389,107.90697591666665,108.03865522916666,54.0,82.0
390,107.67796841666666,108.04819720833333,49.0,79.0
391,108.13598341666666,108.7562120625,52.0,85.0
392,108.13598341666666,108.7676624375,56.0,79.0
393,109.05201341666665,109.29819647916666,59.0,83.0
394,109.51002841666667,109.82109693749999,52.0,80.0
395,109.73903591666667,110.08827235416666,64.0,85.0
396,110.19705091666665,110.47949349999999,59.0,77.0
397,108.59399841666666,110.80201239583333,47.0,70.0
398,110.42605841666666,111.11880610416667,52.0,75.0
399,110.65506591666667,111.18941674999999,56.0,80.0
400,108.13598341666666,111.48521810416666,40.0,85.0
401,111.11308091666666,111.5157524375,47.0,74.0
402,111.34208841666666,111.681782875,52.0,75.0
403,111.57109591666666,111.79819502083333,56.0,77.0
404,112.25811841666666,112.6035380625,54.0,71.0
405,112.48712591666666,113.04056070833333,61.0,82.0
406,112.94514091666666,113.42605666666665,66.0,82.0
407,111.80010341666667,113.51193447916665,42.0,87.0
408,112.02911091666667,113.513842875,49.0,74.0
409,113.17414841666667,113.9604075,54.0,79.0
410,113.40315591666666,114.21040735416666,61.0,79.0
411,114.09017841666666,114.6989566875,49.0,62.0
412,113.63216341666666,114.95659012499999,42.0,85.0
413,114.54819341666666,115.37452881249999,61.0,81.0
414,114.54819341666666,115.37643720833333,54.0,82.0
415,115.46422341666666,115.73330722916666,59.0,79.0
416,115.46422341666666,115.92987199999999,63.0,83.0
417,115.92223841666666,116.21613137499999,59.0,73.0
418,115.69323091666666,116.27720004166666,54.0,74.0
419,116.15124591666667,116.63597845833333,63.0,86.0
420,115.46422341666666,117.11880260416666,47.0,86.0
421,116.83826841666666,117.27338266666666,59.0,73.0
422,117.06727591666666,117.30773379166666,63.0,79.0
423,116.38025341666666,117.34208491666666,54.0,60.0
424,116.60926091666666,117.67414579166666,66.0,80.0
425,117.75429841666666,118.43368733333332,58.0,75.0
426,117.98330591666667,118.53292391666666,61.0,80.0
427,117.52529091666666,118.7294886875,54.0,75.0
428,117.29628341666667,118.80964131249999,46.0,86.0
429,118.67032841666666,119.07681672916667,58.0,80.0
430,118.89933591666666,119.14361058333333,61.0,80.0
431,118.44132091666667,120.03673983333333,66.0,85.0
432,119.58635841666666,120.10353368749999,56.0,74.0
433,119.81536591666666,120.17223593749999,59.0,81.0
434,119.35735091666666,120.40696862499999,51.0,74.0
435,119.12834341666667,120.80009816666666,44.0,85.0
436,120.27338091666667,120.933685875,63.0,87.0
437,120.50238841666666,120.96231181249999,51.0,73.0
438,120.73139591666666,121.0882659375,56.0,76.0
439,121.41841841666667,122.0958989375,54.0,78.0
440,121.64742591666666,122.34017360416667,61.0,81.0
441,120.96040341666667,122.651242125,42.0,85.0
442,121.18941091666666,122.65505891666666,49.0,68.0
443,122.10544091666667,122.73139474999999,66.0,82.0
444,122.56345591666667,122.83063133333333,61.0,76.0
445,122.33444841666666,122.84780689583333,54.0,83.0
446,123.25047841666667,123.98711920833333,52.0,76.0
447,123.47948591666666,123.99093599999999,56.0,83.0
448,122.79246341666666,124.47948533333333,40.0,86.0
449,123.02147091666666,124.52147004166666,47.0,72.0
450,124.16650841666666,124.80582102083333,52.0,77.0
451,124.39551591666667,125.10162237499999,56.0,85.0
452,123.93750091666666,125.11879793749999,59.0,86.0
453,125.08253841666667,125.80963722916667,52.0,79.0
454,125.54055341666667,125.86688910416666,59.0,43.0
455,125.31154591666666,125.87643108333333,56.0,85.0
456,124.62452341666666,126.24284308333333,40.0,85.0
457,124.85353091666666,126.27719420833333,47.0,73.0
458,125.76956091666666,126.31154533333333,64.0,86.0
459,125.99856841666666,126.44513304166667,52.0,86.0
460,126.22757591666667,126.55009481249999,59.0,79.0
461,126.91459841666666,127.26574325,54.0,76.0
462,127.14360591666666,127.67413995833333,61.0,82.0
463,127.60162091666666,128.10543741666666,66.0,85.0
464,126.45658341666666,128.15123891666667,42.0,86.0
465,126.68559091666667,128.17413966666666,49.0,72.0
466,127.83062841666666,128.43749829166666,54.0,73.0
467,128.05963591666665,128.7714675625,61.0,84.0
468,128.74665841666666,129.05200175,54.0,83.0
469,128.51765091666667,129.07299410416667,49.0,77.0
470,128.97566591666666,129.41078016666665,61.0,88.0
471,129.43368091666667,129.86688677083333,66.0,81.0
472,129.66268841666667,129.98711570833333,54.0,82.0
473,128.28864341666667,130.05581795833334,42.0,85.0
474,129.20467341666665,130.06535993749998,49.0,82.0
475,129.89169591666666,130.11306983333333,61.0,79.0
476,130.12070341666666,130.38978722916664,59.0,79.0
477,130.12070341666666,130.58635199999998,63.0,83.0
478,130.57871841666667,130.872611375,59.0,73.0
479,130.34971091666665,130.93368004166666,54.0,74.0
480,130.80772591666667,131.29245845833333,63.0,86.0
481,130.12070341666666,131.77528260416665,47.0,86.0
482,131.49474841666665,131.92986266666668,59.0,73.0
483,131.72375591666668,131.96421379166668,63.0,79.0
484,131.03673341666666,131.99856491666668,54.0,60.0
485,131.26574091666666,132.33062579166665,66.0,80.0
486,132.41077841666666,133.09016733333334,58.0,75.0
487,132.63978591666665,133.18940391666666,61.0,80.0
488,132.18177091666666,133.3859686875,54.0,75.0
489,131.95276341666664,133.46612131249998,46.0,86.0
490,133.32680841666667,133.73329672916668,58.0,80.0
491,133.55581591666666,133.80009058333331,61.0,80.0
492,133.09780091666664,134.69321983333333,66.0,85.0
493,134.24283841666664,134.7600136875,56.0,74.0
494,134.47184591666667,134.8287159375,59.0,81.0
495,134.01383091666668,135.06344862499998,51.0,74.0
496,133.78482341666665,135.45657816666665,44.0,85.0
497,134.92986091666666,135.590165875,63.0,87.0
498,135.15886841666668,135.61879181249998,51.0,73.0
499,135.38787591666664,135.7447459375,56.0,76.0
500,136.07489841666666,136.7523789375,54.0,78.0
501,136.30390591666668,136.99665360416668,61.0,81.0
502,135.61688341666667,137.307722125,42.0,85.0
503,135.84589091666666,137.31153891666668,49.0,68.0
504,136.76192091666667,137.38787474999998,66.0,82.0
505,137.21993591666666,137.48711133333333,61.0,76.0
506,136.99092841666666,137.50428689583333,54.0,83.0
507,137.90695841666667,138.64359920833334,52.0,76.0
508,138.13596591666666,138.647416,56.0,83.0
509,137.44894341666668,139.13596533333333,40.0,86.0
510,137.67795091666665,139.17795004166666,47.0,72.0
511,138.82298841666665,139.4623010208333,52.0,77.0
512,139.05199591666667,139.758102375,56.0,85.0
513,138.59398091666668,139.7752779375,59.0,86.0
514,139.73901841666668,140.46611722916666,52.0,79.0
515,140.19703341666667,140.52336910416665,59.0,43.0
516,139.96802591666665,140.53291108333332,56.0,85.0
517,139.28100341666666,140.89932308333334,40.0,85.0
518,139.51001091666666,140.93367420833334,47.0,73.0
519,140.42604091666666,140.96802533333334,64.0,86.0
520,140.65504841666666,141.10161304166667,52.0,86.0
521,140.88405591666668,141.20657481249998,59.0,79.0
522,141.57107841666667,141.92222325,54.0,76.0
523,141.80008591666666,142.33061995833333,61.0,82.0
524,142.25810091666665,142.76191741666668,66.0,85.0
525,141.11306341666665,142.80771891666666,42.0,86.0
526,141.34207091666667,142.83061966666668,49.0,72.0
527,142.48710841666667,143.09397829166664,54.0,73.0
528,142.71611591666667,143.42794756249998,61.0,84.0
529,143.40313841666665,143.70848174999998,54.0,83.0
530,143.17413091666666,143.72947410416666,49.0,77.0
531,143.63214591666667,144.06726016666664,61.0,88.0
532,144.09016091666666,144.52336677083332,66.0,81.0
533,144.31916841666666,144.64359570833332,54.0,82.0
534,142.94512341666666,144.71229795833332,42.0,85.0
535,143.86115341666667,144.7218399375,49.0,82.0
536,144.54817591666665,144.76954983333331,61.0,79.0
537,144.77718341666667,144.89932075000002,54.0,83.0
538,144.77718341666667,145.1226030625,63.0,86.0
539,145.00619091666667,145.35351895833332,54.0,84.0
540,145.23519841666666,145.39550366666666,59.0,82.0
541,145.46420591666666,145.81916754166667,61.0,90.0
542,145.92222091666667,146.147411625,59.0,87.0
543,146.15122841666667,146.4622969375,54.0,88.0
544,146.38023591666666,146.51000683333334,59.0,83.0
545,144.77718341666667,146.52336560416666,47.0,87.0
546,146.60924341666666,146.76382347916666,54.0,82.0
547,146.60924341666666,146.96802183333332,63.0,85.0
548,146.83825091666665,147.166495,54.0,87.0
549,147.06725841666668,147.21993008333334,59.0,78.0
550,147.29626591666664,147.3439758125,54.0,69.0
551,147.29626591666664,147.796265625,63.0,91.0
552,147.75428091666666,147.96038766666666,54.0,81.0
553,146.60924341666666,148.18366997916667,47.0,87.0
554,147.98328841666665,148.25046383333333,58.0,88.0
555,148.21229591666668,148.34206683333332,54.0,85.0
556,148.44130341666664,148.65122695833333,56.0,77.0
557,148.44130341666664,148.68176129166665,59.0,81.0
558,148.89931841666666,149.04626489583333,56.0,76.0
559,148.67031091666666,149.3897761458333,51.0,78.0
560,149.12832591666665,149.65504316666664,56.0,79.0
561,149.12832591666665,149.66076835416666,63.0,89.0
562,149.81534841666667,150.11305816666666,56.0,85.0
563,148.44130341666664,150.16649325,44.0,85.0
564,149.58634091666664,150.177943625,51.0,79.0
565,150.04435591666666,150.5615311875,59.0,90.0
566,150.73137841666664,151.02908816666667,56.0,77.0
567,150.50237091666668,151.11878277083332,51.0,74.0
568,150.96038591666667,151.27527122916666,59.0,96.0
569,151.41840091666666,151.68939312499998,56.0,88.0
570,150.27336341666665,151.81916404166668,44.0,86.0
571,151.64740841666668,151.93175939583332,59.0,94.0
572,151.18939341666666,152.05198833333333,51.0,86.0
573,151.87641591666664,152.54626285416666,63.0,94.0
574,152.56343841666666,152.91840004166664,52.0,82.0
575,152.79244591666668,153.24473572916668,56.0,86.0
576,153.25046091666667,153.59588056249999,59.0,87.0
577,152.10542341666667,153.80580410416667,40.0,86.0
578,152.33443091666666,153.83061325,47.0,80.0
579,153.47946841666666,154.01191085416667,52.0,77.0
580,153.70847591666666,154.11687262499998,56.0,85.0
581,153.93748341666668,154.46992585416666,64.0,86.0
582,154.39549841666667,154.69702495833332,52.0,86.0
583,154.62450591666666,154.94893320833333,59.0,84.0
584,155.08252091666668,155.30580322916666,56.0,73.0
585,153.93748341666668,155.59778779166666,40.0,85.0
586,155.31152841666665,155.61496335416666,52.0,86.0
587,154.16649091666665,155.63213891666666,47.0,85.0
588,155.54053591666667,155.77908539583333,56.0,85.0
589,156.22755841666668,156.5271765625,54.0,78.0
590,156.45656591666665,156.9737411875,61.0,85.0
591,156.91458091666667,157.25236697916665,66.0,86.0
592,157.14358841666666,157.40503864583332,54.0,86.0
593,155.76954341666666,157.45274854166667,42.0,87.0
594,155.99855091666666,157.48709966666667,49.0,76.0
595,157.37259591666668,157.506183625,61.0,85.0
596,157.60160341666665,157.86305364583333,54.0,88.0
597,158.05961841666667,158.16267179166667,54.0,86.0
598,157.83061091666667,158.40885485416666,49.0,85.0
599,158.28862591666666,158.582518875,54.0,89.0
600,158.28862591666666,158.59587764583333,58.0,86.0
601,158.51763341666668,158.81343477083334,49.0,86.0
602,158.74664091666665,159.02144991666665,54.0,87.0
603,158.74664091666665,159.0577094375,58.0,89.0
604,158.74664091666665,159.07106820833332,61.0,89.0
605,157.60160341666665,159.27144977083333,42.0,86.0
606,158.97564841666667,159.3038925,49.0,86.0
607,159.20465591666667,159.35732758333333,54.0,85.0
608,159.43366341666666,159.64740375,54.0,86.0
609,159.43366341666666,159.95274708333335,59.0,85.0
610,159.89167841666665,159.98900660416666,54.0,78.0
611,159.43366341666666,160.58442610416665,47.0,86.0
612,160.12068591666667,160.77335729166666,63.0,91.0
613,160.80770841666666,161.12831891666667,59.0,83.0
614,160.57870091666666,161.14931127083332,54.0,82.0
615,161.03671591666665,161.52908204166667,63.0,86.0
616,161.26572341666667,161.66266975,35.0,85.0
617,161.49473091666667,161.78671547916667,54.0,79.0
618,161.72373841666666,161.84205895833333,59.0,80.0
619,161.95274591666666,162.21419614583334,54.0,86.0
620,161.95274591666666,162.27335641666667,63.0,87.0
621,162.41076091666667,162.49091354166666,54.0,76.0
622,162.41076091666667,162.67793633333332,59.0,89.0
623,162.63976841666667,162.910760625,54.0,81.0
624,162.86877591666666,163.162668875,59.0,78.0
625,163.32679091666665,163.61877547916666,56.0,82.0
626,163.55579841666668,163.70465329166666,59.0,75.0
627,163.09778341666666,163.99854625,44.0,82.0
628,163.78480591666664,164.08442406249998,63.0,91.0
629,164.24282091666666,164.33251552083334,56.0,82.0
630,164.24282091666666,164.60923291666666,63.0,86.0
631,164.47182841666665,164.73137025,56.0,82.0
632,164.70083591666668,165.23709514583334,59.0,89.0
633,165.38785841666666,165.53098810416668,56.0,81.0
634,165.61686591666665,165.74854522916667,59.0,92.0
635,165.15885091666667,165.9470183958333,51.0,71.0
636,165.84587341666668,166.08633129166668,56.0,86.0
637,165.84587341666668,166.13785797916665,59.0,89.0
638,165.84587341666668,166.14930835416666,63.0,102.0
639,166.07488091666664,166.52144554166665,51.0,86.0
640,164.92984341666664,166.56152185416664,44.0,88.0
641,166.30388841666667,166.7294606875,56.0,85.0
642,166.53289591666666,166.7638118125,59.0,86.0
643,167.21991841666664,167.3649565,52.0,81.0
644,167.44892591666667,167.73900208333333,52.0,84.0
645,167.44892591666667,167.765719625,59.0,85.0
646,167.90694091666666,168.02144466666667,52.0,85.0
647,167.90694091666666,168.14358199999998,56.0,86.0
648,166.76190341666666,168.40503222916666,40.0,85.0
649,168.13594841666668,168.42793297916666,52.0,85.0
650,166.99091091666668,168.46037570833334,47.0,77.0
651,168.36495591666664,169.13213104166667,59.0,91.0
652,169.05197841666666,169.2447263958333,52.0,81.0
653,169.28098591666668,169.3802225,52.0,74.0
654,169.28098591666668,169.53861935416666,64.0,88.0
655,169.73900091666667,169.85922985416664,52.0,80.0
656,168.82297091666666,169.87449702083333,47.0,83.0
657,169.73900091666667,169.99854275,56.0,87.0
658,169.73900091666667,170.09777933333334,59.0,87.0
659,168.59396341666667,170.250451,40.0,86.0
660,169.96800841666666,170.250451,47.0,89.0
661,170.19701591666666,170.30579447916665,56.0,72.0
662,170.19701591666666,170.4393821875,52.0,89.0
663,170.19701591666666,170.44701577083333,59.0,50.0
664,170.88403841666667,171.20846570833334,54.0,85.0
665,171.11304591666666,171.63976316666668,61.0,82.0
666,171.57106091666668,171.92220575,66.0,85.0
667,170.42602341666668,172.11495372916664,42.0,88.0
668,170.65503091666665,172.12640410416668,49.0,74.0
669,171.80006841666665,172.44701460416667,54.0,86.0
670,172.02907591666667,172.70464804166664,61.0,83.0
671,172.71609841666668,172.81915179166666,54.0,83.0
672,172.48709091666666,173.03098372916668,49.0,78.0
673,172.94510591666665,173.27907518749998,54.0,91.0
674,172.94510591666665,173.28098358333332,61.0,86.0
675,173.17411341666667,173.48327354166668,49.0,85.0
676,173.40312091666667,173.69701387499998,54.0,86.0
677,173.40312091666667,173.88976185416666,61.0,86.0
678,172.25808341666666,173.914571,42.0,86.0
679,173.86113591666668,173.99281522916667,54.0,82.0
680,173.63212841666666,174.0023572083333,49.0,79.0
681,174.09014341666665,174.35541043749998,52.0,83.0
682,174.09014341666665,174.372586,59.0,86.0
683,174.54815841666667,174.68937970833332,52.0,80.0
684,174.77716591666666,175.048158125,64.0,87.0
685,174.77716591666666,175.06342529166665,59.0,86.0
686,174.77716591666666,175.0767840625,56.0,87.0
687,174.77716591666666,175.08441764583333,52.0,80.0
688,175.23518091666665,175.27334883333333,52.0,62.0
689,175.23518091666665,175.48518077083332,56.0,74.0
690,175.23518091666665,175.5233486875,59.0,80.0
691,174.31915091666667,175.7523561875,47.0,73.0
692,174.09014341666665,175.758081375,40.0,86.0
693,175.69319591666667,175.9928140625,56.0,71.0
694,175.69319591666667,176.04434075,59.0,67.0
695,175.69319591666667,176.13403535416666,52.0,78.0
696,176.38021841666665,176.479455,52.0,79.0
697,176.15121091666666,176.7256380625,47.0,70.0
698,176.60922591666667,176.9202944375,59.0,86.0
699,176.60922591666667,176.92792802083335,52.0,87.0
700,176.60922591666667,176.92792802083335,56.0,89.0
701,177.06724091666666,177.18937825,56.0,86.0
702,177.06724091666666,177.20846220833334,52.0,88.0
703,176.83823341666667,177.27716445833335,47.0,78.0
704,175.92220341666666,177.37640104166667,40.0,86.0
705,177.75426341666667,177.85159160416666,39.0,87.0
706,177.75426341666667,177.90884347916665,51.0,85.0
707,177.75426341666667,177.9279274375,54.0,85.0
708,179.12830841666664,179.27143810416663,58.0,88.0
709,178.89930091666668,179.49662881249998,54.0,87.0
710,179.35731591666666,179.68746839583332,58.0,86.0
711,179.35731591666666,179.6931935833333,63.0,91.0
712,178.67029341666665,179.88784995833333,51.0,92.0
713,179.5863234166667,179.91647589583334,54.0,80.0
714,179.81533091666665,180.1034986875,58.0,83.0
715,179.81533091666665,180.12830783333334,66.0,81.0
716,179.81533091666665,180.1416666041667,63.0,86.0
717,180.04433841666668,180.16456735416665,54.0,67.0
718,180.27334591666664,180.4241091875,58.0,83.0
719,180.50235341666666,180.82868910416664,54.0,87.0
720,180.7313609166667,180.92601729166665,63.0,92.0
721,180.7313609166667,180.93555927083332,58.0,90.0
722,178.4412859166667,180.96609360416664,46.0,73.0
723,181.41838341666664,181.67601685416668,56.0,78.0
724,181.41838341666664,181.89166558333335,61.0,84.0
725,181.8763984166667,181.93555868750002,56.0,72.0
726,182.10540591666665,182.25044400000002,56.0,91.0
727,182.10540591666665,182.2943371041667,64.0,86.0
728,181.41838341666664,182.60922241666668,49.0,87.0
729,182.56342091666664,182.72372616666667,56.0,86.0
730,182.56342091666664,182.73899333333333,61.0,86.0
731,183.0214359166667,183.11113052083334,56.0,73.0
732,183.25044341666666,183.41838224999998,56.0,86.0
733,183.25044341666666,183.63784777083333,64.0,85.0
734,183.70845841666664,183.7561683125,56.0,68.0
735,183.93746591666667,184.18746577083334,61.0,89.0
736,183.93746591666667,184.208458125,56.0,89.0
737,183.25044341666666,184.41074808333332,37.0,87.0
738,184.62448841666668,184.8554043125,59.0,85.0
739,185.08250341666667,185.33441166666665,54.0,79.0
740,185.08250341666667,185.33822845833333,58.0,80.0
741,185.54051841666666,185.65311377083333,54.0,84.0
742,185.31151091666663,185.87830447916667,49.0,75.0
743,185.76952591666668,186.00998379166668,61.0,87.0
744,185.76952591666668,186.02715935416666,54.0,90.0
745,185.99853341666665,186.30387674999997,49.0,75.0
746,186.22754091666667,186.3554034375,54.0,86.0
747,186.22754091666667,186.39357135416668,66.0,86.0
748,185.08250341666667,186.76189175000002,42.0,86.0
749,186.68555591666666,186.7752505208333,54.0,83.0
750,186.91456341666668,187.19891439583336,54.0,84.0
751,186.91456341666668,187.24853268750002,58.0,86.0
752,186.91456341666668,187.34395247916666,61.0,85.0
753,187.37257841666667,187.45082264583334,54.0,76.0
754,187.14357091666665,188.66265399999997,49.0,76.0
755,186.91456341666668,188.66456239583334,42.0,87.0
756,187.60158591666664,188.6798295625,54.0,84.0
757,187.60158591666664,188.68937154166667,66.0,79.0
758,188.74662341666664,189.0004400625,54.0,77.0
759,188.74662341666664,189.22563077083333,59.0,79.0
760,189.66265341666667,189.77524877083334,63.0,86.0
761,189.66265341666667,189.78097395833333,54.0,82.0
762,190.34967591666668,190.4908972083333,54.0,69.0
763,190.34967591666668,190.54051549999997,59.0,71.0
764,191.26570591666666,191.36303410416667,54.0,64.0
765,191.49471341666668,191.834407875,63.0,91.0
766,188.74662341666664,191.85540022916666,47.0,85.0
767,191.72372091666665,191.96417879166665,54.0,73.0
768,191.95272841666667,192.11112527083333,59.0,75.0
769,192.41074341666666,192.78288060416668,59.0,77.0
770,192.41074341666666,192.80959814583332,56.0,73.0
771,193.32677341666664,193.48517027083335,63.0,85.0
772,193.32677341666664,193.5004374375,56.0,73.0
773,194.01379591666665,194.12829966666663,59.0,74.0
774,194.01379591666665,194.15501720833333,56.0,73.0
775,194.47181091666664,194.63974975000002,56.0,73.0
776,195.15883341666665,195.36875695833334,59.0,76.0
777,195.15883341666665,195.40310808333334,56.0,73.0
778,194.70081841666666,195.46608514583335,51.0,77.0
779,192.41074341666666,195.54242097916665,44.0,78.0
780,196.0748634166667,196.4622677708333,56.0,70.0
781,196.0748634166667,196.46990135416667,52.0,73.0
782,196.99089341666667,197.1855497916667,59.0,80.0
783,196.99089341666667,197.20272535416666,52.0,77.0
784,197.67791591666668,197.86493870833334,56.0,74.0
785,198.3649384166667,198.60539629166664,52.0,70.0
786,198.59394591666666,198.66073977083335,56.0,68.0
787,198.13593091666667,198.77142672916665,47.0,55.0
788,198.82295341666668,199.00997620833334,59.0,81.0
789,198.82295341666668,199.03478535416667,52.0,80.0
790,196.0748634166667,199.28096841666667,40.0,74.0
791,199.05196091666664,199.28669360416666,47.0,75.0
792,199.28096841666667,199.40501414583332,52.0,75.0
793,199.73898341666666,200.10539541666668,58.0,77.0
794,199.73898341666666,200.1989068125,54.0,73.0
795,200.6550134166667,200.81150187499998,61.0,79.0
796,200.6550134166667,200.84394460416667,54.0,77.0
797,201.34203591666665,201.498524375,61.0,72.0
798,201.34203591666665,201.51951672916664,54.0,73.0
799,201.57104341666667,201.81722647916666,49.0,58.0
800,201.80005091666663,202.00615766666664,54.0,75.0
801,202.25806591666668,202.41455437500002,54.0,75.0
802,202.02905841666666,202.54814208333335,49.0,74.0
803,202.48707341666665,202.7752411875,54.0,86.0
804,202.48707341666665,202.79050835416666,58.0,86.0
805,202.71608091666667,202.89547012499997,49.0,77.0
806,199.73898341666666,203.30005004166668,42.0,81.0
807,203.40310341666668,203.6798208125,54.0,75.0
808,203.40310341666668,203.83249247916666,59.0,79.0
809,203.40310341666668,204.30004945833332,47.0,85.0
810,204.31913341666666,204.42409518749997,63.0,85.0
811,204.31913341666666,204.44127075,54.0,76.0
812,205.00615591666667,205.10348410416668,59.0,74.0
813,205.00615591666667,205.1073008958333,54.0,72.0
814,205.46417091666666,205.5882166458333,63.0,81.0
815,205.46417091666666,205.60348381249997,54.0,78.0
816,205.92218591666665,205.99470495833333,54.0,66.0
817,206.15119341666667,206.3592085625,59.0,86.0
818,206.15119341666667,206.36684214583335,54.0,85.0
819,206.38020091666664,206.50042985416667,47.0,79.0
820,206.60920841666666,206.74279612499998,54.0,79.0
821,207.06722341666665,207.44317739583335,59.0,78.0
822,207.06722341666665,207.50233766666668,56.0,74.0
823,207.98325341666668,208.08249,56.0,66.0
824,207.98325341666668,208.0863067916667,59.0,74.0
825,208.67027591666664,208.74661175,63.0,80.0
826,208.67027591666664,208.77714608333332,56.0,74.0
827,209.12829091666669,209.2695122083333,56.0,73.0
828,209.12829091666669,209.27142060416668,59.0,77.0
829,209.35729841666665,209.5080616875,51.0,64.0
830,209.58630591666667,209.67027533333334,56.0,73.0
831,209.81531341666664,210.0023362083333,59.0,86.0
832,209.81531341666664,210.02142016666664,56.0,85.0
833,207.06722341666665,210.1053895833333,44.0,77.0
834,210.04432091666666,210.15500787500002,51.0,79.0
835,210.2733284166667,210.42409168749998,56.0,76.0
836,210.73134341666668,211.13592333333332,59.0,78.0
837,210.73134341666668,211.16645766666664,52.0,74.0
838,211.64737341666665,211.7637855625,59.0,81.0
839,211.64737341666665,211.77905272916666,52.0,82.0
840,212.10538841666664,212.3592050625,47.0,59.0
841,212.33439591666667,212.54241106249998,56.0,70.0
842,212.33439591666667,212.559586625,52.0,74.0
843,212.5634034166667,212.71416668749998,47.0,50.0
844,212.79241091666665,212.97180012500002,52.0,82.0
845,212.79241091666665,212.97561691666664,59.0,80.0
846,213.25042591666664,213.34966250000002,52.0,69.0
847,213.02141841666668,213.55004406249998,47.0,69.0
848,213.47943341666667,213.7103493125,56.0,85.0
849,213.47943341666667,213.73325006250002,52.0,85.0
850,213.7084409166667,213.8134026875,47.0,68.0
851,210.73134341666668,213.83630343750002,40.0,84.0
852,213.93744841666665,214.21989100000002,40.0,85.0
853,214.39546341666664,214.80386012499997,58.0,77.0
854,214.39546341666664,214.84011964583334,54.0,75.0
855,215.31149341666668,215.43363075000002,58.0,74.0
856,215.31149341666668,215.43363075000002,61.0,77.0
857,215.31149341666668,215.46225668749997,54.0,75.0
858,215.76950841666667,215.94508083333335,49.0,44.0
859,215.9985159166667,216.16454635416665,61.0,81.0
860,215.9985159166667,216.177905125,54.0,83.0
861,216.22752341666666,216.46225610416667,49.0,74.0
862,216.45653091666668,216.67981322916665,54.0,83.0
863,216.45653091666668,216.68363002083333,58.0,86.0
864,216.45653091666668,216.6988971875,61.0,85.0
865,214.39546341666664,217.01950768749998,42.0,82.0
866,216.68553841666665,217.03477485416664,49.0,85.0
867,216.91454591666667,217.0443168333333,54.0,82.0
868,217.14355341666663,217.38210289583333,54.0,79.0
869,217.14355341666663,217.391644875,58.0,86.0
870,217.14355341666663,217.41454562500002,61.0,85.0
871,217.60156841666668,217.9469880625,54.0,92.0
872,217.37256091666666,218.03477427083334,49.0,84.0
873,217.14355341666663,218.04049945833333,42.0,87.0
874,218.51759841666666,219.00614774999997,54.0,87.0
875,218.51759841666666,219.08057518750002,35.0,87.0
876,218.51759841666666,219.1244682916667,59.0,87.0
877,219.20462091666667,219.681719875,56.0,86.0
878,219.20462091666667,219.6874450625,61.0,86.0
879,219.20462091666667,219.79431522916667,37.0,90.0
880,219.89164341666668,220.39355152083334,58.0,85.0
881,219.89164341666668,220.42408585416666,63.0,91.0
882,219.89164341666668,220.48897131249998,39.0,88.0
883,221.03668091666668,221.81721481249997,67.0,85.0
884,221.03668091666668,221.81912320833334,70.0,89.0
885,221.03668091666668,221.82484839583333,73.0,91.0
886,221.03668091666668,221.84965754166666,43.0,88.0
887,221.72370341666664,221.93362695833332,56.0,77.0
888,221.72370341666664,221.96416129166664,59.0,81.0
889,222.18171841666668,222.32866489583336,56.0,76.0
890,221.95271091666666,222.6721761458333,51.0,78.0
891,222.41072591666665,222.93744316666664,56.0,79.0
892,222.41072591666665,222.9431683541667,63.0,89.0
893,223.09774841666666,223.39545816666669,56.0,85.0
894,221.72370341666664,223.44889324999997,44.0,85.0
895,222.86874091666664,223.460343625,51.0,79.0
896,223.32675591666668,223.8439311875,59.0,90.0
897,224.01377841666664,224.31148816666666,56.0,77.0
898,223.78477091666667,224.40118277083332,51.0,74.0
899,224.24278591666666,224.55767122916666,59.0,96.0
900,224.70080091666665,224.97179312499998,56.0,88.0
901,223.55576341666665,225.10156404166668,44.0,86.0
902,224.92980841666667,225.21415939583335,59.0,94.0
903,224.47179341666669,225.33438833333332,51.0,86.0
904,225.15881591666664,225.82866285416668,63.0,94.0
905,225.84583841666665,226.20080004166664,52.0,82.0
906,226.07484591666667,226.52713572916667,56.0,86.0
907,226.53286091666666,226.87828056249998,59.0,87.0
908,225.38782341666666,227.08820410416666,40.0,86.0
909,225.6168309166667,227.11301325,47.0,80.0
910,226.7618684166667,227.29431085416667,52.0,77.0
911,226.99087591666665,227.39927262499998,56.0,85.0
912,227.21988341666668,227.75232585416666,64.0,86.0
913,227.67789841666666,227.9794249583333,52.0,86.0
914,227.9069059166667,228.23133320833335,59.0,84.0
915,228.36492091666668,228.58820322916665,56.0,73.0
916,227.21988341666668,228.88018779166669,40.0,85.0
917,228.59392841666664,228.89736335416666,52.0,86.0
918,227.44889091666664,228.9145389166667,47.0,85.0
919,228.82293591666667,229.0614853958333,56.0,85.0
920,229.50995841666668,229.8095765625,54.0,78.0
921,229.73896591666664,230.25614118750002,61.0,85.0
922,230.1969809166667,230.53476697916665,66.0,86.0
923,230.42598841666666,230.6874386458333,54.0,86.0
924,229.0519434166667,230.73514854166666,42.0,87.0
925,229.28095091666665,230.76949966666666,49.0,76.0
926,230.65499591666668,230.788583625,61.0,85.0
927,230.88400341666664,231.14545364583336,54.0,88.0
928,231.3420184166667,231.44507179166663,54.0,86.0
929,231.11301091666667,231.6912548541667,49.0,85.0
930,231.57102591666666,231.864918875,54.0,89.0
931,231.57102591666666,231.87827764583335,58.0,86.0
932,231.80003341666668,232.09583477083333,49.0,86.0
933,232.02904091666664,232.30384991666665,54.0,87.0
934,232.02904091666664,232.34010943750002,58.0,89.0
935,232.02904091666664,232.3534682083333,61.0,89.0
936,230.88400341666664,232.55384977083332,42.0,86.0
937,232.25804841666667,232.5862925,49.0,86.0
938,232.4870559166667,232.63972758333335,54.0,85.0
939,232.71606341666666,232.92980375000002,54.0,86.0
940,232.71606341666666,233.23514708333335,59.0,85.0
941,233.17407841666665,233.27140660416666,54.0,78.0
942,232.71606341666666,233.86682610416665,47.0,86.0
943,233.40308591666667,234.05575729166668,63.0,91.0
944,234.09010841666668,234.41071891666667,59.0,83.0
945,233.86110091666666,234.43171127083332,54.0,82.0
946,234.31911591666665,234.81148204166664,63.0,86.0
947,234.54812341666667,234.94506975000002,35.0,85.0
948,234.77713091666664,235.06911547916667,54.0,79.0
949,235.00613841666666,235.12445895833332,59.0,80.0
950,235.23514591666668,235.49659614583334,54.0,86.0
951,235.23514591666668,235.55575641666667,63.0,87.0
952,235.69316091666667,235.77331354166665,54.0,76.0
953,235.69316091666667,235.96033633333332,59.0,89.0
954,235.92216841666664,236.19316062500002,54.0,81.0
955,236.15117591666666,236.445068875,59.0,78.0
956,236.60919091666665,236.90117547916668,56.0,82.0
957,236.83819841666667,236.98705329166665,59.0,75.0
958,236.38018341666668,237.28094625,44.0,82.0
959,237.06720591666664,237.36682406249997,63.0,91.0
960,237.52522091666668,237.61491552083334,56.0,82.0
961,237.52522091666668,237.89163291666665,63.0,86.0
962,237.75422841666665,238.01377025,56.0,82.0
963,237.98323591666667,238.51949514583333,59.0,89.0
964,238.67025841666668,238.81338810416668,56.0,81.0
965,238.89926591666665,239.03094522916666,59.0,92.0
966,238.44125091666666,239.2294183958333,51.0,71.0
967,239.12827341666667,239.36873129166668,56.0,86.0
968,239.12827341666667,239.42025797916665,59.0,89.0
969,239.12827341666667,239.4317083541667,63.0,102.0
970,239.35728091666664,239.80384554166665,51.0,86.0
971,238.21224341666664,239.84392185416664,44.0,88.0
972,239.58628841666666,240.01186068750002,56.0,85.0
973,239.81529591666668,240.04621181250002,59.0,86.0
974,240.50231841666664,240.6473565,52.0,81.0
975,240.73132591666666,241.02140208333333,52.0,84.0
976,240.73132591666666,241.04811962499997,59.0,85.0
977,241.18934091666665,241.30384466666663,52.0,85.0
978,241.18934091666665,241.42598199999998,56.0,86.0
979,240.04430341666665,241.6874322291667,40.0,85.0
980,241.41834841666667,241.71033297916665,52.0,85.0
981,240.27331091666667,241.74277570833334,47.0,77.0
982,241.64735591666664,242.41453104166663,59.0,91.0
983,242.33437841666665,242.5271263958333,52.0,81.0
984,242.56338591666668,242.6626225,52.0,74.0
985,242.56338591666668,242.82101935416665,64.0,88.0
986,243.02140091666666,243.14162985416664,52.0,80.0
987,242.1053709166667,243.15689702083336,47.0,83.0
988,243.02140091666666,243.28094275,56.0,87.0
989,243.02140091666666,243.38017933333333,59.0,87.0
990,241.87636341666666,243.532851,40.0,86.0
991,243.2504084166667,243.532851,47.0,89.0
992,243.47941591666665,243.58819447916665,56.0,72.0
993,243.47941591666665,243.72178218749997,52.0,89.0
994,243.47941591666665,243.72941577083333,59.0,50.0
995,244.16643841666667,244.49086570833333,54.0,85.0
996,244.3954459166667,244.92216316666668,61.0,82.0
997,244.85346091666668,245.20460574999998,66.0,85.0
998,243.70842341666668,245.39735372916664,42.0,88.0
999,243.93743091666664,245.40880410416668,49.0,74.0
1000,245.08246841666664,245.72941460416666,54.0,86.0
1001,245.31147591666667,245.98704804166664,61.0,83.0
1002,245.99849841666668,246.10155179166668,54.0,83.0
1003,245.76949091666665,246.31338372916667,49.0,78.0
1004,246.22750591666664,246.56147518749998,54.0,91.0
1005,246.22750591666664,246.56338358333335,61.0,86.0
1006,246.45651341666667,246.76567354166667,49.0,85.0
1007,246.6855209166667,246.97941387499998,54.0,86.0
1008,246.6855209166667,247.1721618541667,61.0,86.0
1009,245.5404834166667,247.19697100000002,42.0,86.0
1010,247.14353591666668,247.2752152291667,54.0,82.0
1011,246.91452841666666,247.2847572083333,49.0,79.0
1012,247.41071133333332,248.61109231249998,64.0,76.0
1013,247.22750533333334,248.7084205,52.0,72.0
1014,247.3744518125,248.71032889583336,59.0,73.0
1015,247.3095663541667,248.79811510416664,56.0,77.0
1016,249.03284779166665,249.20460341666666,52.0,74.0
1017,248.8038402916667,249.92597704166667,47.0,53.0
1018,247.3477342708333,249.99658768749998,40.0,86.0
1019,249.25422170833332,250.4794118333333,52.0,75.0
1020,249.3248323541667,250.53666370833332,56.0,76.0
1021,249.38017583333334,250.56719804166664,59.0,78.0
1022,249.4660536458333,250.65307585416667,63.0,78.0
1023,251.24849535416666,252.32101381249998,58.0,68.0
1024,251.32292279166666,252.33055579166665,61.0,75.0
1025,251.14353358333335,252.34009777083332,54.0,73.0
1026,251.18551829166665,252.5843724375,42.0,79.0
1027,253.09200572916666,253.42979179166667,37.0,79.0
1028,253.002311125,253.57482987499998,49.0,62.0
1029,253.06337979166665,253.61681458333334,52.0,74.0
1030,253.09391412499997,253.68933362500002,56.0,73.0
1031,254.48322629166665,254.86108866666666,61.0,53.0
1032,254.72368416666666,255.05001985416664,64.0,74.0
1033,255.00803514583333,255.38017233333335,68.0,78.0
1034,255.68551566666667,255.9927673958333,68.0,82.0
1035,255.46605014583332,256.0309353125,64.0,75.0
1036,255.22177547916664,256.18169858333334,61.0,74.0
1037,254.24086002083334,256.2733015833333,56.0,70.0
1038,254.02711968749998,256.38971372916666,49.0,45.0
1039,255.94696589583333,256.75040054166664,73.0,94.0
1040,256.18169858333334,256.8858966458333,68.0,74.0
1041,256.483225125,256.92215616666664,64.0,77.0
1042,256.77139289583334,257.0710110416667,61.0,61.0
1043,257.36108720833334,258.51948347916664,49.0,77.0
1044,257.0691026458333,258.63780402083336,42.0,85.0
1045,257.6645221458333,258.75421616666665,54.0,76.0
1046,257.9965830208333,258.85726954166665,61.0,80.0
1047,258.4259720833333,259.00612441666664,66.0,69.0
1048,260.27711604166666,260.4068869583333,35.0,76.0
1049,260.112994,260.44314647916667,71.0,81.0
1050,260.1874214375,260.4698640208333,66.0,72.0
1051,260.25421529166664,260.4965815625,63.0,80.0
1052,260.34390989583335,260.87062714583334,59.0,71.0
1053,261.1225353958333,261.42787872916665,61.0,65.0
1054,261.35535968749997,261.6645198125,63.0,69.0
1055,261.53093210416665,262.5252063333333,59.0,68.0
1056,260.90306987499997,262.5500154791667,54.0,68.0
1057,260.6836043541667,262.60917575,47.0,79.0
