,start,end,pitch,velocity
0,29.444521362499998,29.709071362499998,69.0,95.0
1,29.761981362499995,29.993462612499997,71.0,95.0
2,30.079441362499995,30.414097112499995,73.0,94.0
3,30.396901362499996,30.6164778625,71.0,98.0
4,30.714361362499996,31.002720862499995,69.0,97.0
5,31.031821362499997,31.523884362499995,73.0,102.0
6,31.666741362499998,32.651100712499996,68.0,95.0
7,34.517851254166665,34.748721462499994,62.0,94.0
8,34.83447325416666,35.06006642916666,64.0,99.0
9,35.15109525416666,35.433416537499994,66.0,89.0
10,35.467717254166665,35.70386449583333,64.0,96.0
11,35.78433925416666,36.0508294375,62.0,93.0
12,36.10096125416666,36.346343304166666,66.0,94.0
13,36.417583254166665,38.51388474583333,64.0,97.0
14,39.58380325416666,39.7830112625,69.0,95.0
15,39.90042525416666,40.15372285416666,71.0,92.0
16,40.217047254166665,40.479579662499994,73.0,93.0
17,40.53366925416666,40.747389104166665,71.0,94.0
18,40.85029125416666,41.060053329166664,69.0,95.0
19,41.16691325416666,41.64448477083333,73.0,94.0
20,41.80015725416666,43.02970602083333,68.0,94.0
21,44.649755254166664,44.884583237499996,62.0,93.0
22,44.96637725416666,45.20648227083333,64.0,96.0
23,45.28299925416666,45.5059539125,66.0,88.0
24,45.599621254166664,45.825214429166664,64.0,95.0
25,45.91624325416666,46.12072829583333,62.0,94.0
26,46.23286525416666,46.4479043625,66.0,91.0
27,46.549487254166664,47.01254692916666,69.0,92.0
28,47.18273125416666,47.6629412875,68.0,94.0
29,47.81597525416666,48.35819042916666,69.0,94.0
30,48.449219254166664,48.9135981875,71.0,94.0
31,49.08246325416666,49.58378142083333,71.0,95.0
32,49.71570725416666,49.94921597916667,73.0,95.0
33,50.03232925416666,50.5560748125,73.0,90.0
34,50.98219525416666,51.1972343625,71.0,93.0
35,51.298817254166664,51.516494879166665,69.0,94.0
36,51.61543925416666,51.77243099583333,76.0,88.0
37,51.93206125416666,52.338392820833334,73.0,95.0
38,52.56530525416666,52.84234950416666,73.0,95.0
39,53.51517125416666,53.72361407083333,73.0,94.0
40,53.83179325416666,54.00197757916666,76.0,94.0
41,54.148415254166665,54.36081584583333,76.0,95.0
42,54.46503725416666,54.92413915416667,74.0,95.0
43,55.098281254166665,55.396433637499996,74.0,97.0
44,56.048147254166665,56.256590070833326,73.0,86.0
45,56.36476925416666,56.5600194875,74.0,97.0
46,56.68139125416666,56.90170739583333,73.0,94.0
47,56.998013254166665,57.1734746125,71.0,92.0
48,57.31463525416666,57.50856622916666,71.0,96.0
49,57.63125725416666,57.85157339583333,69.0,93.0
50,57.947879254166665,58.19326130416667,73.0,94.0
51,58.26450125416666,58.45183593749999,71.0,94.0
52,58.897745254166665,59.21436725416666,69.0,95.0
53,59.21436725416666,59.45051449583333,71.0,94.0
54,59.53098925416666,60.0428614875,73.0,94.0
55,60.16423325416666,60.684021037499996,73.0,94.0
56,60.797477254166665,61.023070429166665,73.0,94.0
57,61.11409925416666,61.2816450625,71.0,97.0
58,61.43072125416666,61.63124852083333,69.0,97.0
59,61.747343254166665,61.946551262499995,76.0,95.0
60,62.06396525416666,62.544175287499996,73.0,93.0
61,62.697209254166665,63.08375194583333,73.0,95.0
62,63.33045325416666,63.53098052083333,73.0,94.0
63,63.647075254166666,63.84364474583333,73.0,95.0
64,63.96369725416666,64.15367045416667,76.0,95.0
65,64.28031925416667,64.49008132916666,76.0,96.0
66,64.59694125416667,65.08110906249999,74.0,95.0
67,65.23018525416666,65.52833763749999,74.0,98.0
68,65.86342925416666,66.06791429583333,73.0,88.0
69,66.18005125416667,66.36870519583333,73.0,89.0
70,66.49667325416667,66.6998390375,74.0,96.0
71,66.81329525416666,67.02305732916666,73.0,93.0
72,67.12991725416666,67.60089247916666,71.0,94.0
73,67.76316125416666,68.00854330416666,69.0,88.0
74,68.07978325416667,68.48215704583333,71.0,94.0
75,68.71302725416666,69.18796025416665,73.0,96.0
76,69.34627125416667,69.6246347625,71.0,94.0
77,69.66289325416666,71.90695167916667,69.0,94.0
78,80.11141925416666,80.37527092083333,69.0,95.0
79,80.42804125416666,80.6589114625,71.0,95.0
80,80.74466325416667,81.07843561249999,73.0,94.0
81,81.06128525416666,81.2802821375,71.0,98.0
82,81.37790725416667,81.66550557083333,69.0,97.0
83,81.69452925416667,82.18529335416667,73.0,102.0
84,82.32777325416666,83.3106207125,68.0,95.0
85,85.17737125416667,85.4082414625,62.0,94.0
86,85.49399325416667,85.71958642916667,64.0,99.0
87,85.81061525416666,86.0929365375,66.0,89.0
88,86.12723725416666,86.36338449583333,64.0,96.0
89,86.44385925416667,86.7103494375,62.0,93.0
90,86.76048125416666,87.00586330416667,66.0,94.0
91,87.07710325416667,89.17340474583332,64.0,97.0
92,90.24332325416665,90.4425312625,69.0,95.0
93,90.55994525416666,90.81324285416667,71.0,92.0
94,90.87656725416667,91.1390996625,73.0,93.0
95,91.19318925416667,91.40690910416666,71.0,94.0
96,91.50981125416666,91.71957332916666,69.0,95.0
97,91.82643325416666,92.30400477083333,73.0,94.0
98,92.45967725416666,93.68922602083333,68.0,94.0
99,95.30927525416666,95.5441032375,62.0,93.0
100,95.62589725416666,95.86600227083333,64.0,96.0
101,95.94251925416665,96.1654739125,66.0,88.0
102,96.25914125416668,96.48473442916668,64.0,95.0
103,96.57576325416667,96.78024829583333,62.0,94.0
104,96.89238525416667,97.10742436250001,66.0,91.0
105,97.20900725416666,97.67206692916668,69.0,92.0
106,97.84225125416665,98.3224612875,68.0,94.0
107,98.47549525416667,99.01771042916667,69.0,94.0
108,99.10873925416666,99.5731181875,71.0,94.0
109,99.74198325416666,100.24330142083332,71.0,95.0
110,100.37522725416667,100.60873597916665,73.0,95.0
111,100.69184925416667,101.2155948125,73.0,90.0
112,101.64171525416666,101.8567543625,71.0,93.0
113,101.95833725416668,102.17601487916667,69.0,94.0
114,102.27495925416667,102.43195099583332,76.0,88.0
115,102.59158125416667,102.99791282083333,73.0,95.0
116,103.22482525416666,103.50186950416668,73.0,95.0
117,104.17469125416667,104.38313407083334,73.0,94.0
118,104.49131325416667,104.66149757916668,76.0,94.0
119,104.80793525416667,105.02033584583333,76.0,95.0
120,105.12455725416666,105.58365915416667,74.0,95.0
121,105.75780125416668,106.05595363750001,74.0,97.0
122,106.70766725416667,106.91611007083333,73.0,86.0
123,107.02428925416666,107.21953948749999,74.0,97.0
124,107.34091125416666,107.56122739583333,73.0,94.0
125,107.65753325416668,107.83299461249999,71.0,92.0
126,107.97415525416667,108.16808622916668,71.0,96.0
127,108.29077725416667,108.51109339583334,69.0,93.0
128,108.60739925416667,108.85278130416665,73.0,94.0
129,108.92402125416666,109.11135593750001,71.0,94.0
130,109.55726525416665,109.87388725416668,69.0,95.0
131,109.87388725416668,110.11003449583333,71.0,94.0
132,110.19050925416667,110.70238148749999,73.0,94.0
133,110.82375325416666,111.34354103749999,73.0,94.0
134,111.45699725416665,111.68259042916665,73.0,94.0
135,111.77361925416668,111.9411650625,71.0,97.0
136,112.09024125416667,112.29076852083332,69.0,97.0
137,112.40686325416667,112.6060712625,76.0,95.0
138,112.72348525416666,113.20369528750001,73.0,93.0
139,113.35672925416665,113.74327194583333,73.0,95.0
140,113.98997325416667,114.19050052083333,73.0,94.0
141,114.30659525416667,114.50316474583335,73.0,95.0
142,114.62321725416666,114.81319045416666,76.0,95.0
143,114.93983925416666,115.14960132916667,76.0,96.0
144,115.25646125416665,115.7406290625,74.0,95.0
145,115.88970525416667,116.1878576375,74.0,98.0
146,116.52294925416666,116.72743429583332,73.0,88.0
147,116.83957125416666,117.02822519583333,73.0,89.0
148,117.15619325416665,117.35935903750001,74.0,96.0
149,117.47281525416668,117.68257732916666,73.0,93.0
150,117.78943725416667,118.26041247916666,71.0,94.0
151,118.42268125416666,118.66806330416668,69.0,88.0
152,118.73930325416666,119.14167704583332,71.0,94.0
153,119.37254725416668,119.84748025416667,73.0,96.0
154,120.00579125416667,120.28413046666668,71.0,94.0
155,120.32228830416668,122.56044284166667,69.0,94.0
156,130.7433253041667,130.93937764166668,73.0,94.0
157,131.05911430416668,131.25253506666667,73.0,97.0
158,131.37490330416668,131.57358721666668,73.0,93.0
159,131.69069230416667,131.89069200416668,73.0,94.0
160,132.00648130416667,132.22095466666667,73.0,95.0
161,132.32227030416666,132.5591120541667,75.0,96.0
162,132.6380593041667,132.84616197916668,73.0,104.0
163,132.95434116250001,133.1482721375,71.0,100.0
164,133.2709631625,133.48336375416667,68.0,94.0
165,133.5875851625,134.14826995416666,71.0,94.0
166,134.2208291625,134.49259637916666,73.0,93.0
167,134.5374511625,134.80921837916668,68.0,95.0
168,134.85407316250001,135.2854706375,66.0,95.0
169,135.4873171625,135.7010370125,73.0,86.0
170,135.8039391625,135.99259310416667,73.0,94.0
171,136.1205611625,136.2986610375,73.0,91.0
172,136.4371831625,136.61000600416668,73.0,93.0
173,136.7538051625,136.95697094583335,73.0,89.0
174,137.0704271625,137.27491220416667,73.0,94.0
175,137.3870491625,137.58625717083333,75.0,95.0
176,137.7036711625,137.90815620416666,73.0,94.0
177,138.0202931625,138.19707377916666,71.0,94.0
178,138.3369151625,138.53744242916667,68.0,97.0
179,138.65353716250002,138.94113547916666,71.0,93.0
180,139.2867811625,139.53480172916667,75.0,98.0
181,139.6034031625,139.76303342083332,73.0,100.0
182,139.9200251625,140.1456183375,71.0,98.0
183,140.2366471625,140.45696330416666,73.0,91.0
184,140.5532691625,140.99126292916668,75.0,97.0
185,141.1865131625,141.79732977083333,76.0,96.0
186,141.8197571625,142.02424220416668,78.0,88.0
187,142.1363791625,142.30392497083332,75.0,98.0
188,142.45300116250002,143.08492590416668,75.0,95.0
189,143.0862451625,143.7194891625,73.0,94.0
190,143.7194891625,143.92397420416665,71.0,97.0
191,144.0361111625,144.48597825416667,75.0,97.0
192,144.6693551625,144.86592465416666,73.0,95.0
193,144.9859771625,145.22212440416666,71.0,36.0
194,145.3025991625,145.80391732916667,73.0,95.0
195,145.9358431625,146.1693518875,75.0,95.0
196,146.25246516250002,146.77621072083335,75.0,90.0
197,147.2023311625,147.41737027083335,73.0,93.0
198,147.5189531625,147.7366307875,71.0,94.0
199,147.8355751625,147.99256690416667,78.0,88.0
200,148.1521971625,148.55852872916665,75.0,95.0
201,148.7854411625,149.0624854125,75.0,95.0
202,149.7353071625,149.94374997916668,75.0,94.0
203,150.05192916250002,150.2221134875,78.0,94.0
204,150.3685511625,150.58095175416668,78.0,95.0
205,150.6851731625,151.14427506250001,76.0,95.0
206,151.3184171625,151.61656954583333,76.0,97.0
207,152.2682831625,152.47672597916667,75.0,86.0
208,152.5849051625,152.78015539583333,76.0,97.0
209,152.9015271625,153.12184330416667,75.0,94.0
210,153.2181491625,153.39361052083333,73.0,92.0
211,153.5347711625,153.7287021375,73.0,96.0
212,153.85139316250002,154.07170930416666,71.0,93.0
213,154.1680151625,154.4133972125,75.0,94.0
214,154.4846371625,154.67197184583333,73.0,94.0
215,155.1178811625,155.4345031625,71.0,95.0
216,155.4345031625,155.67065040416668,73.0,94.0
217,155.7511251625,156.26299739583334,75.0,94.0
218,156.3843691625,156.90415694583334,75.0,94.0
219,157.0176131625,157.2432063375,75.0,94.0
220,157.3342351625,157.50178097083332,73.0,97.0
221,157.65085716250002,157.85138442916667,71.0,97.0
222,157.9674791625,158.16668717083334,78.0,95.0
223,158.2841011625,158.76431119583333,75.0,93.0
224,158.9173451625,159.30388785416667,75.0,95.0
225,159.5505891625,159.75111642916667,75.0,94.0
226,159.8672111625,160.06378065416666,75.0,95.0
227,160.1838331625,160.3738063625,78.0,95.0
228,160.5004551625,160.7102172375,78.0,96.0
229,160.8170771625,161.30124497083332,76.0,95.0
230,161.45032116250002,161.74847354583335,76.0,98.0
231,162.0835651625,162.28805020416667,75.0,88.0
232,162.4001871625,162.58884110416668,73.0,89.0
233,162.7168091625,162.91997494583333,71.0,96.0
234,163.0334311625,163.2431932375,80.0,93.0
235,163.3500531625,163.8210283875,78.0,94.0
236,163.9832971625,164.2286792125,80.0,88.0
237,164.2999191625,164.6165411625,75.0,94.0
238,164.6165411625,165.0914741625,73.0,96.0
239,165.24978516250002,165.52814867083333,71.0,94.0
240,165.5664071625,166.06772532916668,73.0,95.0
241,166.1996511625,166.4331598875,75.0,95.0
242,166.5162731625,167.04001872083333,75.0,90.0
243,167.46613916249999,167.68117827083333,73.0,93.0
244,167.7827611625,168.0004387875,71.0,94.0
245,168.0993831625,168.25637490416668,78.0,88.0
246,168.4160051625,168.82233672916666,75.0,95.0
247,169.04924916250002,169.3262934125,75.0,95.0
248,169.9991151625,170.20755797916667,75.0,94.0
249,170.3157371625,170.4859214875,78.0,94.0
250,170.6323591625,170.84475975416666,78.0,95.0
251,170.9489811625,171.4080830625,76.0,95.0
252,171.5822251625,171.88037754583334,76.0,97.0
253,172.5320911625,172.74053397916668,75.0,86.0
254,172.84871316250002,173.04396339583334,76.0,97.0
255,173.1653351625,173.3856513041667,75.0,94.0
256,173.4819571625,173.65741852083335,73.0,92.0
257,173.7985791625,173.9925101375,73.0,96.0
258,174.1152011625,174.33551730416667,71.0,93.0
259,174.4318231625,174.6772052125,75.0,94.0
260,174.7484451625,174.93577984583334,73.0,94.0
261,175.3816891625,175.6983111625,71.0,95.0
262,175.6983111625,175.93445840416666,73.0,94.0
263,176.0149331625,176.52680539583332,75.0,94.0
264,176.64817716250002,177.16796494583332,75.0,94.0
265,177.2814211625,177.5070143375,75.0,94.0
266,177.5980431625,177.76558897083333,73.0,97.0
267,177.9146651625,178.11519242916665,71.0,97.0
268,178.2312871625,178.43049517083335,78.0,95.0
269,178.5479091625,179.02811919583334,75.0,93.0
270,179.1811531625,179.5676958541667,75.0,95.0
271,179.8143971625,180.01492442916668,75.0,94.0
272,180.1310191625,180.32758865416668,75.0,95.0
273,180.44764116250002,180.63761436250002,78.0,95.0
274,180.76426316250001,180.9740252375,78.0,96.0
275,181.0808851625,181.56505297083334,76.0,95.0
276,181.7141291625,182.01228154583333,76.0,98.0
277,182.3473731625,182.55185820416668,75.0,88.0
278,182.6639951625,182.8526491041667,75.0,89.0
279,182.9806171625,183.18378294583334,76.0,96.0
280,183.2972391625,183.5070012375,75.0,93.0
281,183.6138611625,184.0848363875,73.0,94.0
282,184.24710516250002,184.4924872125,71.0,88.0
283,184.56372716250002,184.96610095416668,73.0,94.0
284,185.1969711625,185.6719041625,75.0,96.0
285,185.8302151625,186.10857867083334,73.0,94.0
286,186.1468371625,188.3908955875,71.0,94.0
