,start,end,pitch,velocity
0,8.57367135,9.007881224999998,61.0,83.0
1,8.57367135,9.015775949999998,57.0,88.0
2,8.57367135,9.044723274999999,64.0,89.0
3,8.57367135,9.607880324999998,45.0,95.0
4,9.205249349999999,9.740774862499999,57.0,93.0
5,9.205249349999999,9.832879987499998,61.0,95.0
6,9.205249349999999,9.985511337499998,64.0,98.0
7,10.152616349999999,10.34208975,57.0,82.0
8,10.46840535,10.586826225,57.0,87.0
9,10.46840535,10.839457424999999,61.0,93.0
10,10.784194349999998,10.931562549999999,57.0,76.0
11,10.46840535,11.577614212499999,64.0,95.0
12,11.099983349999999,11.582877362499998,59.0,88.0
13,11.099983349999999,11.6526141,56.0,84.0
14,9.836827349999998,11.756561312499999,52.0,87.0
15,11.731561349999998,11.7749823375,56.0,80.0
16,11.731561349999998,12.390770887499999,59.0,97.0
17,11.731561349999998,12.390770887499999,64.0,99.0
18,12.047350349999999,12.392086674999998,56.0,58.0
19,12.678928349999998,12.846033362499998,56.0,78.0
20,12.994717349999998,13.1802433875,56.0,94.0
21,13.310506349999999,13.652611099999998,56.0,87.0
22,12.994717349999998,13.653926887499999,59.0,96.0
23,13.626295349999998,13.653926887499999,59.0,89.0
24,12.994717349999998,13.676295275,64.0,99.0
25,11.099983349999999,13.692084724999999,44.0,90.0
26,12.363139349999999,13.713137324999998,52.0,81.0
27,13.626295349999998,14.101294637499999,62.0,89.0
28,13.626295349999998,14.107873575,66.0,84.0
29,14.257873349999999,14.972345962499999,57.0,92.0
30,14.257873349999999,15.296029687499999,66.0,93.0
31,14.257873349999999,15.330240162499999,62.0,95.0
32,15.205240349999999,15.403924262499999,57.0,85.0
33,14.889451349999998,15.510503049999999,54.0,74.0
34,13.626295349999998,15.649976524999998,47.0,93.0
35,15.52102935,15.709186962499999,57.0,95.0
36,15.52102935,15.868397249999997,62.0,99.0
37,15.836818349999998,15.942081349999999,57.0,82.0
38,15.52102935,16.0512917125,66.0,94.0
39,16.152607349999997,16.5486593875,59.0,81.0
40,16.152607349999997,16.581554075,64.0,89.0
41,16.784185349999998,16.897343075,64.0,92.0
42,16.784185349999998,16.903922012499997,59.0,87.0
43,16.784185349999998,16.907869374999997,68.0,81.0
44,16.46839635,17.2197110125,47.0,75.0
45,17.099974349999997,17.477605362499997,59.0,95.0
46,17.099974349999997,17.5118158375,64.0,100.0
47,17.099974349999997,17.77365755,68.0,97.0
48,17.731552349999998,17.890762637499996,59.0,88.0
49,17.41576335,18.0697097375,47.0,87.0
50,16.152607349999997,18.1065517875,40.0,95.0
51,18.047341349999996,18.199972699999996,59.0,93.0
52,18.047341349999996,18.2433936875,64.0,88.0
53,18.678919349999997,19.078918749999996,57.0,93.0
54,18.678919349999997,19.139444974999996,61.0,89.0
55,18.678919349999997,19.156550212499997,64.0,94.0
56,19.31049735,19.473654999999997,57.0,94.0
57,18.994708349999996,19.723654624999998,52.0,83.0
58,19.626286349999997,19.978917399999997,57.0,94.0
59,19.626286349999997,20.027601537499997,61.0,99.0
60,19.626286349999997,20.3302326625,64.0,95.0
61,20.25786435,20.4104957,57.0,80.0
62,18.678919349999997,20.64733745,45.0,94.0
63,19.942075349999996,20.64733745,52.0,85.0
64,20.573653349999997,20.7197057625,57.0,94.0
65,20.573653349999997,20.8210214,61.0,96.0
66,20.573653349999997,21.1262841,64.0,98.0
67,21.20523135,21.377599512499998,56.0,93.0
68,21.20523135,21.5828623625,61.0,94.0
69,21.20523135,21.7723357625,64.0,96.0
70,21.83680935,21.9802301875,61.0,80.0
71,21.521020349999997,22.0012827875,56.0,79.0
72,22.152598349999998,22.59470295,61.0,93.0
73,22.152598349999998,22.619702912499996,64.0,99.0
74,22.152598349999998,22.742071149999997,56.0,91.0
75,21.20523135,22.805228949999997,49.0,89.0
76,23.099965349999998,23.211807287499997,56.0,93.0
77,23.099965349999998,23.460491124999997,61.0,95.0
78,23.415754349999997,23.532859437499997,56.0,82.0
79,23.099965349999998,23.688122362499996,64.0,98.0
80,23.73154335,24.149553112499998,57.0,87.0
81,23.73154335,24.514632112499996,62.0,83.0
82,24.365161362499997,24.560928362499997,57.0,85.0
83,24.047701362499996,24.871774612499998,54.0,80.0
84,24.682621362499997,25.411456612499997,62.0,95.0
85,24.682621362499997,25.422038612499996,57.0,95.0
86,25.317541362499995,25.574154862499995,54.0,76.0
87,23.73154335,25.681297612499996,47.0,95.0
88,25.635001362499995,25.787117612499998,57.0,92.0
89,25.952461362499996,26.136323612499996,57.0,86.0
90,25.635001362499995,26.142937362499996,62.0,95.0
91,26.269921362499996,26.527857612499997,59.0,89.0
92,26.269921362499996,26.543730612499996,64.0,93.0
93,26.904841362499997,27.145581862499995,52.0,89.0
94,26.587381362499997,27.678650112499994,47.0,76.0
95,27.222301362499998,27.896903862499997,56.0,82.0
96,27.222301362499998,27.974946112499996,52.0,89.0
97,27.222301362499998,28.011983112499998,59.0,90.0
98,27.857221362499995,28.197168112499995,47.0,78.0
99,26.269921362499996,28.287115112499997,40.0,96.0
100,28.174681362499996,28.321506612499995,52.0,93.0
101,28.492141362499996,28.825474362499996,52.0,91.0
102,28.174681362499996,28.833410862499996,56.0,94.0
103,28.174681362499996,28.888966362499996,59.0,94.0
104,28.174681362499996,29.142934362499997,64.0,94.0
105,29.444521362499998,29.7011348625,57.0,86.0
106,29.127061362499997,29.859864862499997,52.0,79.0
107,29.761981362499995,30.039758862499994,59.0,94.0
108,30.396901362499996,30.527853612499996,57.0,82.0
109,30.714361362499996,30.873091362499995,57.0,89.0
110,28.809601362499997,31.087376862499994,45.0,95.0
111,30.079441362499995,31.149546112499998,52.0,74.0
112,30.714361362499996,31.238170362499996,64.0,97.0
113,31.031821362499997,31.433937362499996,57.0,82.0
114,31.349281362499994,32.088698612499996,61.0,80.0
115,31.349281362499994,32.095312362499996,64.0,95.0
116,31.984201362499995,32.236846612499996,56.0,75.0
117,32.30149725416666,32.600968895833326,56.0,89.0
118,32.30149725416666,33.042920437499994,61.0,93.0
119,32.93474125416666,33.133949262499996,56.0,73.0
120,31.349281362499994,33.16824997916666,49.0,87.0
121,33.25136325416666,33.422866837499996,56.0,94.0
122,33.25136325416666,33.47695642916666,61.0,93.0
123,33.25136325416666,33.607563004166664,64.0,97.0
124,33.88460725416666,34.28170401249999,57.0,88.0
125,33.88460725416666,34.33447434583333,62.0,90.0
126,34.517851254166665,34.727613329166665,57.0,83.0
127,34.20122925416666,35.20518484583333,54.0,79.0
128,34.83447325416666,35.579854212499995,57.0,94.0
129,34.83447325416666,35.62075122083333,62.0,95.0
130,35.467717254166665,35.73948447083333,54.0,73.0
131,33.88460725416666,35.87800659583333,47.0,93.0
132,35.78433925416666,36.198586370833326,57.0,89.0
133,36.10096125416666,36.43737212916666,62.0,95.0
134,36.417583254166665,37.12206720416666,64.0,94.0
135,37.05082725416666,37.309401887499995,52.0,90.0
136,37.367449254166665,37.430773654166664,52.0,73.0
137,36.73420525416666,37.664282379166664,47.0,76.0
138,37.367449254166665,37.9822236375,64.0,94.0
139,37.367449254166665,38.1009568875,56.0,93.0
140,37.367449254166665,38.12866131249999,59.0,93.0
141,38.00069325416666,38.388555204166664,47.0,81.0
142,36.417583254166665,38.45979515416666,40.0,95.0
143,38.317315254166665,38.5917209875,59.0,88.0
144,38.317315254166665,38.5996365375,56.0,86.0
145,38.317315254166665,38.93472815416666,62.0,90.0
146,38.95055925416666,39.37536043749999,57.0,79.0
147,38.95055925416666,39.64712765416666,61.0,81.0
148,39.58380325416666,39.7355179625,57.0,85.0
149,39.267181254166665,40.08248290416666,52.0,84.0
150,39.90042525416666,40.63129437083333,57.0,92.0
151,39.90042525416666,40.691980254166666,61.0,91.0
152,40.85029125416666,41.07984220416666,57.0,94.0
153,40.53366925416666,41.093034787499995,52.0,85.0
154,38.95055925416666,41.10754662916666,45.0,94.0
155,40.85029125416666,41.18670212916666,61.0,94.0
156,41.16691325416666,41.52311300416666,59.0,95.0
157,41.48353525416666,41.848969812499995,61.0,95.0
158,42.11677925416666,42.35820352916666,56.0,82.0
159,42.43340125416666,42.662952204166665,56.0,89.0
160,42.43340125416666,43.079837837499994,64.0,95.0
161,42.43340125416666,43.122054104166665,61.0,90.0
162,43.06664525416666,43.24342587083333,56.0,68.0
163,41.48353525416666,43.41756797083333,49.0,88.0
164,43.38326725416666,43.548174545833334,56.0,93.0
165,43.38326725416666,43.61149894583333,61.0,90.0
166,43.38326725416666,43.85820025416666,64.0,95.0
167,44.01651125416666,44.36743397083333,59.0,89.0
168,44.01651125416666,44.5244257125,62.0,93.0
169,44.649755254166664,44.85424029583333,57.0,93.0
170,44.33313325416666,45.15635045416666,54.0,80.0
171,44.96637725416666,45.624687162499995,57.0,93.0
172,44.96637725416666,45.728908570833326,62.0,97.0
173,45.599621254166664,45.92679732083333,54.0,76.0
174,45.91624325416666,45.945266937499994,57.0,85.0
175,45.91624325416666,46.06268092916666,59.0,89.0
176,44.01651125416666,46.091704612499996,47.0,94.0
177,45.91624325416666,46.356875537499995,66.0,95.0
178,45.91624325416666,46.38589922083333,62.0,96.0
179,46.23286525416666,46.438669554166665,59.0,85.0
180,46.549487254166664,46.76980339583333,59.0,91.0
181,46.549487254166664,46.7724419125,64.0,94.0
182,47.18273125416666,47.36478890416666,52.0,84.0
183,46.86610925416666,47.6391946375,47.0,77.0
184,47.499353254166664,47.86610707083333,52.0,96.0
185,47.499353254166664,47.90832333749999,56.0,94.0
186,47.499353254166664,47.9795632875,59.0,94.0
187,48.13259725416666,48.24341495416667,59.0,47.0
188,48.13259725416666,48.49275477916666,52.0,95.0
189,46.549487254166664,48.75264867083333,40.0,95.0
190,47.81597525416666,48.76584125416666,47.0,82.0
191,48.449219254166664,49.01122330416666,64.0,95.0
192,48.449219254166664,49.01913885416666,56.0,97.0
193,48.449219254166664,49.037608470833334,59.0,98.0
194,48.76584125416666,49.03892772916666,52.0,96.0
195,49.08246325416666,49.487475562499995,57.0,93.0
196,49.08246325416666,49.488794820833334,61.0,95.0
197,49.399085254166664,49.90040342083333,52.0,92.0
198,49.71570725416666,50.381932712499996,57.0,94.0
199,49.71570725416666,50.41623342916667,61.0,102.0
200,49.71570725416666,50.500665962499994,64.0,100.0
201,50.66557325416666,50.81860722083333,57.0,88.0
202,49.08246325416666,51.09565147083333,45.0,96.0
203,50.98219525416666,51.13522922083333,57.0,97.0
204,50.348951254166664,51.13918699583333,52.0,93.0
205,50.98219525416666,51.282986154166665,61.0,104.0
206,50.98219525416666,51.30145577083333,64.0,98.0
207,51.61543925416666,51.79221987083333,56.0,90.0
208,51.61543925416666,52.04155969583333,61.0,89.0
209,51.93206125416666,52.16161220416666,56.0,87.0
210,52.248683254166664,52.466360879166665,56.0,89.0
211,52.248683254166664,52.715700704166665,61.0,94.0
212,52.248683254166664,52.71965847916667,64.0,95.0
213,52.88192725416666,52.97823311249999,56.0,80.0
214,52.88192725416666,53.34102915416666,61.0,85.0
215,53.198549254166664,53.38720319583333,56.0,79.0
216,53.51517125416666,53.6510548625,56.0,98.0
217,51.61543925416666,53.65237412083333,49.0,95.0
218,53.51517125416666,53.9201835625,61.0,99.0
219,53.83179325416666,53.95844205416667,56.0,85.0
220,53.51517125416666,54.090367887499994,64.0,98.0
221,54.148415254166665,54.57057792083333,59.0,86.0
222,54.148415254166665,54.60619789583333,62.0,89.0
223,54.78165925416666,55.00725242916666,59.0,93.0
224,54.78165925416666,55.475589137499995,62.0,95.0
225,55.098281254166665,55.49669727083333,59.0,87.0
226,54.78165925416666,55.76714522916666,66.0,93.0
227,55.73152525416666,55.90434809583333,59.0,87.0
228,54.148415254166665,56.0019732125,47.0,94.0
229,55.41490325416666,56.06925538749999,54.0,80.0
230,56.048147254166665,56.2196508375,59.0,94.0
231,56.048147254166665,56.29352930416667,62.0,97.0
232,56.048147254166665,56.319914470833325,66.0,97.0
233,56.68139125416666,57.037591004166664,56.0,86.0
234,56.68139125416666,57.07189172083333,52.0,89.0
235,56.68139125416666,57.08244578749999,59.0,89.0
236,56.998013254166665,57.45975367083333,47.0,81.0
237,57.31463525416666,57.4623921875,52.0,96.0
238,57.31463525416666,57.65104612916666,64.0,97.0
239,57.31463525416666,57.73284014583333,56.0,99.0
240,57.31463525416666,57.7394364375,59.0,97.0
241,57.63125725416666,57.82518822916666,52.0,86.0
242,57.947879254166665,58.373999695833334,59.0,95.0
243,58.26450125416666,58.61674322916666,52.0,97.0
244,56.68139125416666,58.67742911249999,40.0,95.0
245,58.58112325416666,58.866083054166666,56.0,95.0
246,58.58112325416666,58.921491904166665,59.0,95.0
247,58.897745254166665,59.03099034583333,52.0,102.0
248,58.58112325416666,59.11542287916666,64.0,97.0
249,59.21436725416666,59.59695217083333,61.0,93.0
250,59.53098925416666,59.70776987083333,57.0,93.0
251,59.847611254166665,60.07716220416666,57.0,98.0
252,59.847611254166665,60.12597476249999,61.0,99.0
253,59.847611254166665,60.20644952083333,64.0,96.0
254,60.00592225416666,60.619377379166664,52.0,86.0
255,60.63916625416667,60.7948387375,61.0,81.0
256,60.48085525416666,60.8542053625,57.0,93.0
257,61.11409925416666,61.24074805416666,57.0,95.0
258,59.21436725416666,61.3726738875,45.0,95.0
259,61.11409925416666,61.392462762499996,69.0,93.0
260,61.11409925416666,61.42544422083333,64.0,99.0
261,61.43072125416666,61.479533812499994,57.0,83.0
262,61.11409925416666,61.71963882916666,61.0,104.0
263,61.747343254166665,61.9267623875,56.0,93.0
264,61.747343254166665,62.13520520416667,61.0,88.0
265,62.06396525416666,62.35947912083333,56.0,84.0
266,62.38058725416666,62.4491886875,56.0,68.0
267,62.38058725416666,62.74866032916667,64.0,95.0
268,62.38058725416666,62.76317217083333,61.0,91.0
269,62.697209254166665,62.90565207083333,56.0,91.0
270,63.01383125416666,63.11937192083333,56.0,89.0
271,63.01383125416666,63.4188435625,61.0,90.0
272,63.33045325416666,63.50327609583333,56.0,80.0
273,61.747343254166665,63.80142847916666,49.0,89.0
274,63.647075254166666,63.8541988125,56.0,94.0
275,63.647075254166666,63.967655029166664,61.0,98.0
276,63.647075254166666,64.1747785875,64.0,96.0
277,64.28031925416667,64.43467247916666,59.0,88.0
278,64.28031925416667,64.50987020416667,62.0,92.0
279,64.59694125416667,64.7684448375,59.0,91.0
280,64.91356325416666,65.06659722083333,59.0,96.0
281,65.23018525416666,65.3977310625,59.0,88.0
282,64.91356325416666,65.4848021125,66.0,93.0
283,65.54680725416667,65.6787330875,59.0,94.0
284,65.54680725416667,65.95181956249999,62.0,93.0
285,65.86342925416666,66.02965580416667,59.0,89.0
286,64.28031925416667,66.24073713749999,47.0,95.0
287,66.18005125416667,66.3080193125,59.0,95.0
288,66.18005125416667,66.33308522083334,54.0,85.0
289,66.18005125416667,66.51646212916665,66.0,96.0
290,66.18005125416667,66.68532719583334,62.0,99.0
291,66.49667325416667,66.71830865416666,59.0,93.0
292,66.81329525416666,67.00986474583334,59.0,93.0
293,66.81329525416666,67.01909955416667,64.0,94.0
294,67.44653925416667,67.58110360416666,52.0,93.0
295,67.44653925416667,67.6932405625,56.0,91.0
296,67.44653925416667,67.8436360125,59.0,90.0
297,67.76316125416666,67.94653816249999,52.0,89.0
298,67.12991725416666,68.25260609583333,47.0,71.0
299,68.07978325416667,68.4689644625,64.0,94.0
300,68.07978325416667,68.48083778750001,56.0,88.0
301,68.07978325416667,68.53360812083332,59.0,94.0
302,68.39640525416667,68.59165548749999,52.0,93.0
303,68.71302725416666,68.79877904583333,52.0,95.0
304,68.71302725416666,69.2486461375,56.0,102.0
305,69.02964925416666,69.26183872083334,52.0,95.0
306,68.71302725416666,69.28558537083333,59.0,97.0
307,66.81329525416666,69.3515482875,40.0,97.0
308,69.34627125416667,69.74732578749999,57.0,93.0
309,69.34627125416667,69.80801167083334,61.0,89.0
310,69.34627125416667,69.82516202916666,64.0,94.0
311,69.97951525416667,70.1431032875,57.0,94.0
312,69.66289325416666,70.39376237083333,52.0,83.0
313,70.29613725416667,70.64969848749999,57.0,94.0
314,70.29613725416667,70.69851104583333,61.0,99.0
315,70.29613725416667,71.00194046249999,64.0,95.0
316,70.92938125416666,71.08241522083333,57.0,80.0
317,69.34627125416667,71.31988172083334,45.0,94.0
318,70.61275925416666,71.31988172083334,52.0,85.0
319,71.24600325416667,71.39244092916667,57.0,94.0
320,71.24600325416667,71.49402382083332,61.0,96.0
321,71.24600325416667,71.80009175416666,64.0,98.0
322,71.87924725416667,72.05207009583333,56.0,93.0
323,71.87924725416667,72.25787439583334,61.0,94.0
324,71.87924725416667,72.44784759583334,64.0,96.0
325,72.51249125416666,72.6562904125,61.0,80.0
326,72.19586925416667,72.67739854583333,56.0,79.0
327,72.82911325416666,73.27238405416666,61.0,93.0
328,72.82911325416666,73.2974499625,64.0,99.0
329,72.82911325416666,73.42014098749999,56.0,91.0
330,71.87924725416667,73.48346538749999,49.0,89.0
331,73.77897925416667,73.8911162125,56.0,93.0
332,73.77897925416667,74.1404560375,61.0,95.0
333,74.09560125416667,74.21301524583333,56.0,82.0
334,73.77897925416667,74.36868772916667,64.0,98.0
335,74.41222325416666,74.83042814583334,57.0,87.0
336,74.41222325416666,75.19454344583333,62.0,83.0
337,75.04546725416667,75.2407174875,57.0,85.0
338,74.72884525416666,75.55074319583333,54.0,80.0
339,75.36208925416666,76.08900059583334,62.0,95.0
340,75.36208925416666,76.0995546625,57.0,95.0
341,75.99533325416667,76.25126937083333,54.0,76.0
342,74.41222325416666,76.35812929583332,47.0,95.0
343,76.31195525416666,76.4636699625,57.0,92.0
344,76.62857725416666,76.8119541625,57.0,86.0
345,76.31195525416666,76.81855045416665,62.0,95.0
346,76.94519925416667,77.20245462916667,59.0,89.0
347,76.94519925416667,77.21828572916667,64.0,93.0
348,77.57844325416667,77.81854827083333,52.0,89.0
349,77.26182125416666,78.35020937916667,47.0,76.0
350,77.89506525416667,78.56788700416666,56.0,82.0
351,77.89506525416667,78.64572324583332,52.0,89.0
352,77.89506525416667,78.68266247916667,59.0,90.0
353,78.52830925416666,78.86735864583332,47.0,78.0
354,76.94519925416667,78.95706821249999,40.0,96.0
355,78.84493125416667,78.99136892916667,52.0,93.0
356,79.16155325416666,79.49400635416666,52.0,91.0
357,78.84493125416667,79.50192190416666,56.0,94.0
358,78.84493125416667,79.55733075416666,59.0,94.0
359,78.84493125416667,79.81062835416667,64.0,94.0
360,80.11141925416666,80.36735537083334,57.0,86.0
361,79.79479725416667,80.52566637083333,52.0,79.0
362,80.42804125416666,80.70508550416666,59.0,94.0
363,81.06128525416666,81.19189182916666,57.0,82.0
364,81.37790725416667,81.53621825416667,57.0,89.0
365,79.47817525416667,81.74993810416666,45.0,95.0
366,80.74466325416667,81.81194324583333,52.0,74.0
367,81.37790725416667,81.90033355416666,64.0,97.0
368,81.69452925416667,82.0955837875,57.0,82.0
369,82.01115125416666,82.7486166625,61.0,80.0
370,82.01115125416666,82.75521295416667,64.0,95.0
371,82.64439525416667,82.89637359583332,56.0,75.0
372,82.96101725416666,83.26048889583333,56.0,89.0
373,82.96101725416666,83.7024404375,61.0,93.0
374,83.59426125416667,83.7934692625,56.0,73.0
375,82.01115125416666,83.82776997916667,49.0,87.0
376,83.91088325416666,84.0823868375,56.0,94.0
377,83.91088325416666,84.13647642916666,61.0,93.0
378,83.91088325416666,84.26708300416666,64.0,97.0
379,84.54412725416667,84.9412240125,57.0,88.0
380,84.54412725416667,84.99399434583333,62.0,90.0
381,85.17737125416667,85.38713332916666,57.0,83.0
382,84.86074925416666,85.86470484583333,54.0,79.0
383,85.49399325416667,86.2393742125,57.0,94.0
384,85.49399325416667,86.28027122083333,62.0,95.0
385,86.12723725416666,86.39900447083333,54.0,73.0
386,84.54412725416667,86.53752659583333,47.0,93.0
387,86.44385925416667,86.85810637083333,57.0,89.0
388,86.76048125416666,87.09689212916666,62.0,95.0
389,87.07710325416667,87.78158720416667,64.0,94.0
390,87.71034725416666,87.96892188749999,52.0,90.0
391,88.02696925416666,88.09029365416666,52.0,73.0
392,87.39372525416667,88.32380237916666,47.0,76.0
393,88.02696925416666,88.6417436375,64.0,94.0
394,88.02696925416666,88.7604768875,56.0,93.0
395,88.02696925416666,88.7881813125,59.0,93.0
396,88.66021325416666,89.04807520416666,47.0,81.0
397,87.07710325416667,89.11931515416666,40.0,95.0
398,88.97683525416667,89.2512409875,59.0,88.0
399,88.97683525416667,89.25915653749999,56.0,86.0
400,88.97683525416667,89.59424815416666,62.0,90.0
401,89.61007925416666,90.0348804375,57.0,79.0
402,89.61007925416666,90.30664765416667,61.0,81.0
403,90.24332325416665,90.3950379625,57.0,85.0
404,89.92670125416666,90.74200290416667,52.0,84.0
405,90.55994525416666,91.29081437083333,57.0,92.0
406,90.55994525416666,91.35150025416667,61.0,91.0
407,91.50981125416666,91.73936220416667,57.0,94.0
408,91.19318925416667,91.7525547875,52.0,85.0
409,89.61007925416666,91.76706662916666,45.0,94.0
410,91.50981125416666,91.84622212916666,61.0,94.0
411,91.82643325416666,92.18263300416666,59.0,95.0
412,92.14305525416665,92.50848981249999,61.0,95.0
413,92.77629925416667,93.01772352916666,56.0,82.0
414,93.09292125416667,93.32247220416667,56.0,89.0
415,93.09292125416667,93.7393578375,64.0,95.0
416,93.09292125416667,93.78157410416667,61.0,90.0
417,93.72616525416666,93.90294587083332,56.0,68.0
418,92.14305525416665,94.07708797083333,49.0,88.0
419,94.04278725416665,94.20769454583333,56.0,93.0
420,94.04278725416665,94.27101894583333,61.0,90.0
421,94.04278725416665,94.51772025416666,64.0,95.0
422,94.67603125416667,95.02695397083333,59.0,89.0
423,94.67603125416667,95.18394571249999,62.0,93.0
424,95.30927525416666,95.51376029583332,57.0,93.0
425,94.99265325416667,95.81587045416666,54.0,80.0
426,95.62589725416666,96.2842071625,57.0,93.0
427,95.62589725416666,96.38842857083333,62.0,97.0
428,96.25914125416668,96.58631732083333,54.0,76.0
429,96.57576325416667,96.6047869375,57.0,85.0
430,96.57576325416667,96.72220092916666,59.0,89.0
431,94.67603125416667,96.75122461250001,47.0,94.0
432,96.57576325416667,97.01639553749999,66.0,95.0
433,96.57576325416667,97.04541922083334,62.0,96.0
434,96.89238525416667,97.09818955416665,59.0,85.0
435,97.20900725416666,97.42932339583334,59.0,91.0
436,97.20900725416666,97.43196191249999,64.0,94.0
437,97.84225125416665,98.02430890416667,52.0,84.0
438,97.52562925416666,98.29871463750001,47.0,77.0
439,98.15887325416668,98.52562707083334,52.0,96.0
440,98.15887325416668,98.5678433375,56.0,94.0
441,98.15887325416668,98.6390832875,59.0,94.0
442,98.79211725416667,98.90293495416665,59.0,47.0
443,98.79211725416667,99.15227477916667,52.0,95.0
444,97.20900725416666,99.41216867083332,40.0,95.0
445,98.47549525416667,99.42536125416666,47.0,82.0
446,99.10873925416666,99.67074330416668,64.0,95.0
447,99.10873925416666,99.67865885416666,56.0,97.0
448,99.10873925416666,99.69712847083332,59.0,98.0
449,99.42536125416666,99.69844772916667,52.0,96.0
450,99.74198325416666,100.1469955625,57.0,93.0
451,99.74198325416666,100.14831482083332,61.0,95.0
452,100.05860525416668,100.55992342083334,52.0,92.0
453,100.37522725416667,101.04145271249999,57.0,94.0
454,100.37522725416667,101.07575342916667,61.0,102.0
455,100.37522725416667,101.16018596250001,64.0,100.0
456,101.32509325416666,101.47812722083333,57.0,88.0
457,99.74198325416666,101.75517147083332,45.0,96.0
458,101.64171525416666,101.79474922083332,57.0,97.0
459,101.00847125416666,101.79870699583333,52.0,93.0
460,101.64171525416666,101.94250615416667,61.0,104.0
461,101.64171525416666,101.96097577083333,64.0,98.0
462,102.27495925416667,102.45173987083334,56.0,90.0
463,102.27495925416667,102.70107969583333,61.0,89.0
464,102.59158125416667,102.82113220416667,56.0,87.0
465,102.90820325416666,103.12588087916666,56.0,89.0
466,102.90820325416666,103.37522070416668,61.0,94.0
467,102.90820325416666,103.37917847916665,64.0,95.0
468,103.54144725416666,103.63775311250001,56.0,80.0
469,103.54144725416666,104.00054915416666,61.0,85.0
470,103.85806925416668,104.04672319583332,56.0,79.0
471,104.17469125416667,104.3105748625,56.0,98.0
472,102.27495925416667,104.31189412083333,49.0,95.0
473,104.17469125416667,104.57970356249999,61.0,99.0
474,104.49131325416667,104.61796205416667,56.0,85.0
475,104.17469125416667,104.7498878875,64.0,98.0
476,104.80793525416667,105.23009792083334,59.0,86.0
477,104.80793525416667,105.26571789583332,62.0,89.0
478,105.44117925416666,105.66677242916666,59.0,93.0
479,105.44117925416666,106.1351091375,62.0,95.0
480,105.75780125416668,106.15621727083334,59.0,87.0
481,105.44117925416666,106.42666522916667,66.0,93.0
482,106.39104525416667,106.56386809583333,59.0,87.0
483,104.80793525416667,106.6614932125,47.0,94.0
484,106.07442325416667,106.72877538750001,54.0,80.0
485,106.70766725416667,106.8791708375,59.0,94.0
486,106.70766725416667,106.95304930416665,62.0,97.0
487,106.70766725416667,106.97943447083333,66.0,97.0
488,107.34091125416666,107.69711100416666,56.0,86.0
489,107.34091125416666,107.73141172083334,52.0,89.0
490,107.34091125416666,107.74196578749999,59.0,89.0
491,107.65753325416668,108.11927367083334,47.0,81.0
492,107.97415525416667,108.12191218749999,52.0,96.0
493,107.97415525416667,108.31056612916666,64.0,97.0
494,107.97415525416667,108.39236014583332,56.0,99.0
495,107.97415525416667,108.3989564375,59.0,97.0
496,108.29077725416667,108.48470822916667,52.0,86.0
497,108.60739925416667,109.03351969583332,59.0,95.0
498,108.92402125416666,109.27626322916666,52.0,97.0
499,107.34091125416666,109.33694911250001,40.0,95.0
500,109.24064325416666,109.52560305416665,56.0,95.0
501,109.24064325416666,109.58101190416667,59.0,95.0
502,109.55726525416665,109.69051034583333,52.0,102.0
503,109.24064325416666,109.77494287916667,64.0,97.0
504,109.87388725416668,110.25647217083332,61.0,93.0
505,110.19050925416667,110.36728987083333,57.0,93.0
506,110.50713125416667,110.73668220416667,57.0,98.0
507,110.50713125416667,110.78549476250001,61.0,99.0
508,110.50713125416667,110.86596952083335,64.0,96.0
509,110.66544225416666,111.27889737916666,52.0,86.0
510,111.29868625416665,111.4543587375,61.0,81.0
511,111.14037525416666,111.5137253625,57.0,93.0
512,111.77361925416668,111.90026805416667,57.0,95.0
513,109.87388725416668,112.0321938875,45.0,95.0
514,111.77361925416668,112.05198276249999,69.0,93.0
515,111.77361925416668,112.08496422083334,64.0,99.0
516,112.09024125416667,112.13905381250001,57.0,83.0
517,111.77361925416668,112.37915882916667,61.0,104.0
518,112.40686325416667,112.5862823875,56.0,93.0
519,112.40686325416667,112.79472520416667,61.0,88.0
520,112.72348525416666,113.01899912083334,56.0,84.0
521,113.04010725416666,113.10870868750001,56.0,68.0
522,113.04010725416666,113.40818032916667,64.0,95.0
523,113.04010725416666,113.42269217083333,61.0,91.0
524,113.35672925416665,113.56517207083334,56.0,91.0
525,113.67335125416668,113.77889192083333,56.0,89.0
526,113.67335125416668,114.07836356249999,61.0,90.0
527,113.98997325416667,114.16279609583333,56.0,80.0
528,112.40686325416667,114.46094847916666,49.0,89.0
529,114.30659525416667,114.5137188125,56.0,94.0
530,114.30659525416667,114.62717502916666,61.0,98.0
531,114.30659525416667,114.8342985875,64.0,96.0
532,114.93983925416666,115.09419247916668,59.0,88.0
533,114.93983925416666,115.16939020416666,62.0,92.0
534,115.25646125416665,115.42796483749999,59.0,91.0
535,115.57308325416668,115.72611722083334,59.0,96.0
536,115.88970525416667,116.0572510625,59.0,88.0
537,115.57308325416668,116.14432211249999,66.0,93.0
538,116.20632725416667,116.3382530875,59.0,94.0
539,116.20632725416667,116.6113395625,62.0,93.0
540,116.52294925416666,116.68917580416667,59.0,89.0
541,114.93983925416666,116.9002571375,47.0,95.0
542,116.83957125416666,116.96753931250001,59.0,95.0
543,116.83957125416666,116.99260522083333,54.0,85.0
544,116.83957125416666,117.17598212916667,66.0,96.0
545,116.83957125416666,117.34484719583332,62.0,99.0
546,117.15619325416665,117.37782865416668,59.0,93.0
547,117.47281525416668,117.66938474583333,59.0,93.0
548,117.47281525416668,117.67861955416666,64.0,94.0
549,118.10605925416667,118.24062360416667,52.0,93.0
550,118.10605925416667,118.35276056250001,56.0,91.0
551,118.10605925416667,118.5031560125,59.0,90.0
552,118.42268125416666,118.6060581625,52.0,89.0
553,117.78943725416667,118.91212609583334,47.0,71.0
554,118.73930325416666,119.12848446250001,64.0,94.0
555,118.73930325416666,119.1403577875,56.0,88.0
556,118.73930325416666,119.19312812083334,59.0,94.0
557,119.05592525416665,119.2511754875,52.0,93.0
558,119.37254725416668,119.45829904583334,52.0,95.0
559,119.37254725416668,119.90816613749999,56.0,102.0
560,119.68916925416667,119.92135872083333,52.0,95.0
561,119.37254725416668,119.94510537083335,59.0,97.0
562,117.47281525416668,120.0110682875,40.0,97.0
563,120.00579125416667,120.40649870416668,57.0,93.0
564,120.00579125416667,120.46702492916668,61.0,89.0
565,120.00579125416667,120.48413016666667,64.0,94.0
566,120.63807730416667,120.80123495416667,57.0,94.0
567,120.32228830416668,121.05123457916667,52.0,83.0
568,120.95386630416668,121.30649735416668,57.0,94.0
569,120.95386630416668,121.35518149166667,61.0,99.0
570,120.95386630416668,121.65781261666667,64.0,95.0
571,121.58544430416667,121.73807565416668,57.0,80.0
572,120.00579125416667,121.97491740416667,45.0,94.0
573,121.26965530416668,121.97491740416667,52.0,85.0
574,121.90123330416668,122.04728571666668,57.0,94.0
575,121.90123330416668,122.14860135416667,61.0,96.0
576,121.90123330416668,122.45386405416667,64.0,98.0
577,122.53281130416667,122.70517946666668,56.0,93.0
578,122.53281130416667,122.91044231666667,61.0,94.0
579,122.53281130416667,123.09991571666667,64.0,96.0
580,123.16438930416668,123.30781014166668,61.0,80.0
581,122.84860030416668,123.32886274166668,56.0,79.0
582,123.48017830416667,123.92228290416668,61.0,93.0
583,123.48017830416667,123.94728286666668,64.0,99.0
584,123.48017830416667,124.06965110416668,56.0,91.0
585,122.53281130416667,124.13280890416668,49.0,89.0
586,124.42754530416667,124.53938724166667,56.0,93.0
587,124.42754530416667,124.78807107916667,61.0,95.0
588,124.74333430416668,124.86043939166667,56.0,82.0
589,124.42754530416667,125.01570231666668,64.0,98.0
590,125.05912330416668,125.47622794166668,57.0,87.0
591,125.05912330416668,125.83938529166667,62.0,83.0
592,125.69070130416668,125.88543785416668,57.0,85.0
593,125.37491230416667,126.19464791666668,54.0,80.0
594,126.00649030416668,126.73148921666667,62.0,95.0
595,126.00649030416668,126.74201551666667,57.0,95.0
596,126.63806830416668,126.89333107916667,54.0,76.0
597,125.05912330416668,126.99990986666667,47.0,95.0
598,126.95385730416668,127.10517286666668,57.0,92.0
599,127.26964630416667,127.45254076666667,57.0,86.0
600,126.95385730416668,127.45911970416668,62.0,95.0
601,127.58543530416668,127.96043474166667,57.0,88.0
602,127.58543530416668,127.98543470416668,66.0,92.0
603,127.58543530416668,128.0078030916667,62.0,93.0
604,128.21701330416667,128.35253941666667,57.0,95.0
605,127.58543530416668,128.40648670416667,38.0,99.0
606,127.90122430416667,128.43017087916667,45.0,85.0
607,128.53280230416667,128.92490697916668,59.0,95.0
608,128.53280230416667,129.24201176666668,64.0,97.0
609,129.16438030416668,129.33411689166667,59.0,99.0
610,129.48016930416668,130.06569474166668,59.0,100.0
611,129.48016930416668,130.0696421041667,64.0,107.0
612,129.48016930416668,130.09990521666668,68.0,100.0
613,128.53280230416667,130.1406946291667,40.0,102.0
614,129.79595830416667,130.15779986666666,47.0,86.0
615,130.11174730416667,130.22622081666668,66.0,86.0
616,130.11174730416667,130.23279975416668,63.0,88.0
617,130.11174730416667,130.27095759166667,70.0,88.0
618,130.42753630416667,130.51437827916666,66.0,95.0
619,130.42753630416667,130.52622036666668,63.0,93.0
620,130.42753630416667,130.54332560416668,70.0,94.0
621,130.7433253041667,130.82885149166668,66.0,102.0
622,130.7433253041667,130.8459567291667,63.0,99.0
623,130.7433253041667,130.87227247916667,70.0,102.0
624,131.05911430416668,131.1630615166667,66.0,99.0
625,131.05911430416668,131.17490360416667,63.0,95.0
626,131.05911430416668,131.2025351416667,70.0,99.0
627,131.37490330416668,131.47621894166667,66.0,94.0
628,131.37490330416668,131.49463996666668,63.0,92.0
629,131.37490330416668,131.52490307916668,70.0,94.0
630,131.69069230416667,131.82227105416666,66.0,100.0
631,131.69069230416667,131.82358684166667,63.0,94.0
632,131.69069230416667,131.8525341666667,70.0,96.0
633,132.00648130416667,132.11832324166667,66.0,107.0
634,132.00648130416667,132.13411269166667,63.0,96.0
635,132.00648130416667,132.15911265416668,70.0,100.0
636,132.32227030416666,132.3762175916667,66.0,94.0
637,132.32227030416666,132.4551648416667,70.0,96.0
638,132.32227030416666,132.46042799166668,63.0,94.0
639,130.11174730416667,132.48542795416668,39.0,87.0
640,132.6380593041667,132.75779596666666,61.0,87.0
641,132.6380593041667,132.79734942083334,68.0,90.0
642,132.95434116250001,133.03877369583333,64.0,95.0
643,132.95434116250001,133.05988182916667,61.0,93.0
644,132.95434116250001,133.07043589583333,68.0,92.0
645,133.2709631625,133.35143792083335,64.0,104.0
646,133.2709631625,133.3659497625,61.0,97.0
647,133.2709631625,133.38837715416668,68.0,98.0
648,133.5875851625,133.6904873125,64.0,102.0
649,133.5875851625,133.69180657083334,61.0,94.0
650,133.5875851625,133.72478802916666,68.0,96.0
651,133.9042071625,133.98995895416667,64.0,94.0
652,133.9042071625,134.00447079583333,61.0,94.0
653,133.9042071625,134.03745225416668,68.0,94.0
654,134.2208291625,134.3316468625,64.0,97.0
655,134.2208291625,134.3514357375,61.0,94.0
656,134.2208291625,134.36462832083333,68.0,94.0
657,134.5374511625,134.6601421875,61.0,95.0
658,134.5374511625,134.6640999625,64.0,104.0
659,134.5374511625,134.6918043875,68.0,97.0
660,134.85407316250001,134.94774050416666,64.0,95.0
661,134.85407316250001,134.9886375125,61.0,94.0
662,134.85407316250001,135.01370342083334,68.0,93.0
663,132.6380593041667,135.05328117083334,37.0,98.0
664,135.1706951625,135.18916477916667,66.0,82.0
665,135.1706951625,135.3171328375,63.0,95.0
666,135.1706951625,135.33032542083333,70.0,97.0
667,135.4873171625,135.5862615375,63.0,94.0
668,135.4873171625,135.5862615375,66.0,99.0
669,135.4873171625,135.61528522083333,70.0,95.0
670,135.8039391625,135.91343760416666,66.0,114.0
671,135.8039391625,135.92003389583334,63.0,100.0
672,135.8039391625,135.94378054583333,70.0,109.0
673,136.1205611625,136.22874034583333,66.0,100.0
674,136.1205611625,136.2353366375,63.0,95.0
675,136.1205611625,136.26436032083333,70.0,98.0
676,136.4371831625,136.5163386625,66.0,96.0
677,136.4371831625,136.5440430875,63.0,95.0
678,136.4371831625,136.58230157916665,70.0,96.0
679,136.7538051625,136.8606650875,66.0,94.0
680,136.7538051625,136.8804539625,63.0,94.0
681,136.7538051625,136.91079690416666,70.0,94.0
682,137.0704271625,137.17069079583334,66.0,98.0
683,137.0704271625,137.18388337916667,63.0,94.0
684,137.0704271625,137.21818409583332,70.0,98.0
685,137.3870491625,137.46884317916667,66.0,93.0
686,137.3870491625,137.50050537916667,70.0,93.0
687,137.3870491625,137.50842092916668,63.0,94.0
688,135.1706951625,137.51237870416668,39.0,99.0
689,137.7036711625,137.7946999875,64.0,94.0
690,137.7036711625,137.8342777375,61.0,93.0
691,137.7036711625,137.84351254583333,68.0,89.0
692,138.0202931625,138.09812940416666,64.0,94.0
693,138.0202931625,138.12583382916668,61.0,94.0
694,138.0202931625,138.1429841875,68.0,91.0
695,138.3369151625,138.41870917916665,64.0,98.0
696,138.3369151625,138.43454027916667,61.0,96.0
697,138.3369151625,138.45828692916666,68.0,96.0
698,138.65353716250002,138.73796969583333,64.0,99.0
699,138.65353716250002,138.7524815375,61.0,94.0
700,138.65353716250002,138.77490892916666,68.0,98.0
701,138.9701591625,139.05986872916668,64.0,98.0
702,138.9701591625,139.0770190875,61.0,97.0
703,138.9701591625,139.10208499583334,68.0,95.0
704,139.2867811625,139.37649072916668,64.0,100.0
705,139.2867811625,139.3857255375,61.0,95.0
706,139.2867811625,139.41606847916665,68.0,95.0
707,139.6034031625,139.7142208625,64.0,107.0
708,139.6034031625,139.7300519625,61.0,96.0
709,139.6034031625,139.75907564583332,68.0,100.0
710,139.9200251625,140.19838867083334,64.0,104.0
711,139.9200251625,140.2010271875,61.0,95.0
712,137.7036711625,140.2168582875,37.0,98.0
713,139.9200251625,140.23532790416667,68.0,98.0
714,140.2366471625,140.5097336375,66.0,94.0
715,140.2366471625,140.54799212916666,70.0,98.0
716,140.2366471625,140.5532691625,73.0,95.0
717,140.5532691625,140.64297872916666,49.0,41.0
718,140.2366471625,140.79205492083332,42.0,107.0
719,140.8698911625,141.05062955416668,66.0,94.0
720,141.1865131625,141.60867582916666,66.0,96.0
721,141.1865131625,141.62714544583332,70.0,95.0
722,141.1865131625,141.65089209583334,73.0,95.0
723,141.8197571625,141.94904447916667,73.0,89.0
724,141.8197571625,141.97279112916667,70.0,89.0
725,141.8197571625,141.9820259375,66.0,93.0
726,141.8197571625,142.03875404583334,78.0,90.0
727,141.1865131625,142.04271182083335,49.0,95.0
728,141.1865131625,142.15748729583333,42.0,99.0
729,142.45300116250002,142.68387137083334,66.0,94.0
730,142.7696231625,142.93716897083334,66.0,94.0
731,142.7696231625,142.95036155416668,70.0,88.0
732,142.7696231625,142.97410820416667,73.0,89.0
733,143.0862451625,143.1851895375,66.0,82.0
734,143.4028671625,143.5136848625,66.0,86.0
735,143.4028671625,143.5136848625,73.0,74.0
736,142.7696231625,143.86856535416666,49.0,94.0
737,142.7696231625,143.8778001625,42.0,99.0
738,143.7194891625,144.08624297916666,70.0,98.0
739,143.7194891625,144.1152666625,66.0,100.0
740,143.7194891625,144.12582072916666,73.0,97.0
741,144.3527331625,144.5110441625,66.0,92.0
742,144.6693551625,144.82502764583333,66.0,102.0
743,144.0361111625,145.15748074583334,42.0,93.0
744,144.0361111625,145.18914294583334,49.0,92.0
745,144.6693551625,145.22212440416666,70.0,98.0
746,144.6693551625,145.22872069583335,73.0,100.0
747,144.9859771625,145.2551058625,66.0,100.0
748,144.6693551625,145.2788525125,78.0,94.0
749,145.3025991625,145.70761147083334,59.0,93.0
750,145.3025991625,145.70893072916667,63.0,95.0
751,145.6192211625,146.12053932916666,54.0,92.0
752,145.9358431625,146.60206862083334,59.0,94.0
753,145.9358431625,146.6363693375,63.0,102.0
754,145.9358431625,146.72080187083333,66.0,100.0
755,146.8857091625,147.03874312916668,59.0,88.0
756,145.3025991625,147.31578737916666,47.0,96.0
757,147.2023311625,147.35536512916667,59.0,97.0
758,146.5690871625,147.35932290416667,54.0,93.0
759,147.2023311625,147.5031220625,63.0,104.0
760,147.2023311625,147.52159167916668,66.0,98.0
761,147.8355751625,148.01235577916668,58.0,90.0
762,147.8355751625,148.26169560416668,63.0,89.0
763,148.1521971625,148.3817481125,58.0,87.0
764,148.4688191625,148.6864967875,58.0,89.0
765,148.4688191625,148.9358366125,63.0,94.0
766,148.4688191625,148.9397943875,66.0,95.0
767,149.1020631625,149.19836902083333,58.0,80.0
768,149.1020631625,149.5611650625,63.0,85.0
769,149.4186851625,149.60733910416667,58.0,79.0
770,149.7353071625,149.87119077083332,58.0,98.0
771,147.8355751625,149.87251002916668,51.0,95.0
772,149.7353071625,150.14031947083333,63.0,99.0
773,150.05192916250002,150.17857796250001,58.0,85.0
774,149.7353071625,150.31050379583334,66.0,98.0
775,150.3685511625,150.79071382916666,61.0,86.0
776,150.3685511625,150.82633380416667,64.0,89.0
777,151.0017951625,151.2273883375,61.0,93.0
778,151.0017951625,151.69572504583334,64.0,95.0
779,151.3184171625,151.71683317916666,61.0,87.0
780,151.0017951625,151.9872811375,68.0,93.0
781,151.9516611625,152.12448400416667,61.0,87.0
782,150.3685511625,152.22210912083332,49.0,94.0
783,151.6350391625,152.28939129583333,56.0,80.0
784,152.2682831625,152.43978674583335,61.0,94.0
785,152.2682831625,152.5136652125,64.0,97.0
786,152.2682831625,152.54005037916667,68.0,97.0
787,152.9015271625,153.2577269125,58.0,86.0
788,152.9015271625,153.29202762916668,54.0,89.0
789,152.9015271625,153.30258169583334,61.0,89.0
790,153.2181491625,153.67988957916668,49.0,81.0
791,153.5347711625,153.68252809583333,54.0,96.0
792,153.5347711625,153.8711820375,66.0,97.0
793,153.5347711625,153.95297605416667,58.0,99.0
794,153.5347711625,153.95957234583335,61.0,97.0
795,153.85139316250002,154.04532413750002,54.0,86.0
796,154.1680151625,154.59413560416667,61.0,95.0
797,154.4846371625,154.8368791375,54.0,97.0
798,152.9015271625,154.89756502083333,42.0,95.0
799,154.8012591625,155.0862189625,58.0,95.0
800,154.8012591625,155.1416278125,61.0,95.0
801,155.1178811625,155.25112625416668,54.0,102.0
802,154.8012591625,155.3355587875,66.0,97.0
803,155.4345031625,155.81708807916667,63.0,93.0
804,155.7511251625,155.92790577916668,59.0,93.0
805,156.0677471625,156.29729811250002,59.0,98.0
806,156.0677471625,156.34611067083333,63.0,99.0
807,156.0677471625,156.42658542916666,66.0,96.0
808,156.2260581625,156.8395132875,54.0,86.0
809,156.8593021625,157.01497464583332,63.0,81.0
810,156.7009911625,157.07434127083334,59.0,93.0
811,157.3342351625,157.4608839625,59.0,95.0
812,155.4345031625,157.59280979583335,47.0,95.0
813,157.3342351625,157.61259867083334,71.0,93.0
814,157.3342351625,157.64558012916666,66.0,99.0
815,157.65085716250002,157.69966972083333,59.0,83.0
816,157.3342351625,157.9397747375,63.0,104.0
817,157.9674791625,158.14689829583332,58.0,93.0
818,157.9674791625,158.3553411125,63.0,88.0
819,158.2841011625,158.57961502916666,58.0,84.0
820,158.6007231625,158.66932459583333,58.0,68.0
821,158.6007231625,158.9687962375,66.0,95.0
822,158.6007231625,158.98330807916668,63.0,91.0
823,158.9173451625,159.12578797916666,58.0,91.0
824,159.2339671625,159.33950782916668,58.0,89.0
825,159.2339671625,159.63897947083333,63.0,90.0
826,159.5505891625,159.72341200416668,58.0,80.0
827,157.9674791625,160.0215643875,51.0,89.0
828,159.8672111625,160.07433472083335,58.0,94.0
829,159.8672111625,160.1877909375,63.0,98.0
830,159.8672111625,160.39491449583335,66.0,96.0
831,160.5004551625,160.6548083875,61.0,88.0
832,160.5004551625,160.7300061125,64.0,92.0
833,160.8170771625,160.98858074583333,61.0,91.0
834,161.1336991625,161.28673312916666,61.0,96.0
835,161.45032116250002,161.61786697083335,61.0,88.0
836,161.1336991625,161.70493802083334,68.0,93.0
837,161.7669431625,161.89886899583334,61.0,94.0
838,161.7669431625,162.17195547083332,64.0,93.0
839,162.0835651625,162.2497917125,61.0,89.0
840,160.5004551625,162.46087304583332,49.0,95.0
841,162.4001871625,162.52815522083333,61.0,95.0
842,162.4001871625,162.55322112916667,56.0,85.0
843,162.4001871625,162.73659803750002,68.0,96.0
844,162.4001871625,162.90546310416667,64.0,99.0
845,162.7168091625,162.9384445625,61.0,93.0
846,163.0334311625,163.23000065416667,61.0,93.0
847,163.0334311625,163.2392354625,66.0,94.0
848,163.6666751625,163.8012395125,54.0,93.0
849,163.6666751625,163.91337647083333,58.0,91.0
850,163.6666751625,164.06377192083335,61.0,90.0
851,163.9832971625,164.16667407083332,54.0,89.0
852,163.3500531625,164.47274200416666,49.0,71.0
853,164.2999191625,164.68910037083333,66.0,94.0
854,164.2999191625,164.70097369583334,58.0,88.0
855,164.2999191625,164.75374402916668,61.0,94.0
856,164.6165411625,164.81179139583332,54.0,93.0
857,164.9331631625,165.01891495416666,54.0,95.0
858,164.9331631625,165.46878204583334,58.0,102.0
859,165.24978516250002,165.48197462916667,54.0,95.0
860,164.9331631625,165.50572127916666,61.0,97.0
861,163.0334311625,165.57168419583334,42.0,97.0
862,165.5664071625,165.97141947083333,59.0,93.0
863,165.5664071625,165.97273872916668,63.0,95.0
864,165.8830291625,166.38434732916667,54.0,92.0
865,166.1996511625,166.86587662083332,59.0,94.0
866,166.1996511625,166.9001773375,63.0,102.0
867,166.1996511625,166.98460987083334,66.0,100.0
868,167.1495171625,167.30255112916666,59.0,88.0
869,165.5664071625,167.57959537916668,47.0,96.0
870,167.46613916249999,167.61917312916665,59.0,97.0
871,166.8328951625,167.62313090416666,54.0,93.0
872,167.46613916249999,167.7669300625,63.0,104.0
873,167.46613916249999,167.78539967916666,66.0,98.0
874,168.0993831625,168.27616377916667,58.0,90.0
875,168.0993831625,168.52550360416666,63.0,89.0
876,168.4160051625,168.6455561125,58.0,87.0
877,168.7326271625,168.9503047875,58.0,89.0
878,168.7326271625,169.1996446125,63.0,94.0
879,168.7326271625,169.2036023875,66.0,95.0
880,169.3658711625,169.46217702083334,58.0,80.0
881,169.3658711625,169.8249730625,63.0,85.0
882,169.6824931625,169.87114710416665,58.0,79.0
883,169.9991151625,170.13499877083333,58.0,98.0
884,168.0993831625,170.13631802916666,51.0,95.0
885,169.9991151625,170.40412747083334,63.0,99.0
886,170.3157371625,170.4423859625,58.0,85.0
887,169.9991151625,170.57431179583335,66.0,98.0
888,170.6323591625,171.05452182916667,61.0,86.0
889,170.6323591625,171.09014180416668,64.0,89.0
890,171.26560316249999,171.4911963375,61.0,93.0
891,171.26560316249999,171.95953304583333,64.0,95.0
892,171.5822251625,171.98064117916667,61.0,87.0
893,171.26560316249999,172.2510891375,68.0,93.0
894,172.2154691625,172.38829200416666,61.0,87.0
895,170.6323591625,172.48591712083334,49.0,94.0
896,171.8988471625,172.55319929583334,56.0,80.0
897,172.5320911625,172.70359474583333,61.0,94.0
898,172.5320911625,172.7774732125,64.0,97.0
899,172.5320911625,172.80385837916668,68.0,97.0
900,173.1653351625,173.5215349125,58.0,86.0
901,173.1653351625,173.55583562916667,54.0,89.0
902,173.1653351625,173.56638969583332,61.0,89.0
903,173.4819571625,173.94369757916667,49.0,81.0
904,173.7985791625,173.94633609583335,54.0,96.0
905,173.7985791625,174.13499003750002,66.0,97.0
906,173.7985791625,174.21678405416668,58.0,99.0
907,173.7985791625,174.22338034583333,61.0,97.0
908,174.1152011625,174.3091321375,54.0,86.0
909,174.4318231625,174.85794360416668,61.0,95.0
910,174.7484451625,175.10068713750002,54.0,97.0
911,173.1653351625,175.16137302083334,42.0,95.0
912,175.0650671625,175.3500269625,58.0,95.0
913,175.0650671625,175.4054358125,61.0,95.0
914,175.3816891625,175.51493425416666,54.0,102.0
915,175.0650671625,175.5993667875,66.0,97.0
916,175.6983111625,176.08089607916668,63.0,93.0
917,176.0149331625,176.19171377916666,59.0,93.0
918,176.3315551625,176.5611061125,59.0,98.0
919,176.3315551625,176.60991867083334,63.0,99.0
920,176.3315551625,176.69039342916668,66.0,96.0
921,176.4898661625,177.1033212875,54.0,86.0
922,177.1231101625,177.27878264583333,63.0,81.0
923,176.96479916250001,177.33814927083333,59.0,93.0
924,177.5980431625,177.7246919625,59.0,95.0
925,175.6983111625,177.85661779583333,47.0,95.0
926,177.5980431625,177.87640667083332,71.0,93.0
927,177.5980431625,177.90938812916667,66.0,99.0
928,177.9146651625,177.96347772083334,59.0,83.0
929,177.5980431625,178.2035827375,63.0,104.0
930,178.2312871625,178.41070629583334,58.0,93.0
931,178.2312871625,178.6191491125,63.0,88.0
932,178.5479091625,178.84342302916667,58.0,84.0
933,178.8645311625,178.93313259583334,58.0,68.0
934,178.8645311625,179.2326042375,66.0,95.0
935,178.8645311625,179.24711607916666,63.0,91.0
936,179.1811531625,179.38959597916667,58.0,91.0
937,179.4977751625,179.60331582916666,58.0,89.0
938,179.4977751625,179.90278747083335,63.0,90.0
939,179.8143971625,179.98722000416666,58.0,80.0
940,178.2312871625,180.2853723875,51.0,89.0
941,180.1310191625,180.33814272083333,58.0,94.0
942,180.1310191625,180.4515989375,63.0,98.0
943,180.1310191625,180.65872249583333,66.0,96.0
944,180.76426316250001,180.9186163875,61.0,88.0
945,180.76426316250001,180.9938141125,64.0,92.0
946,181.0808851625,181.25238874583334,61.0,91.0
947,181.3975071625,181.55054112916667,61.0,96.0
948,181.7141291625,181.88167497083333,61.0,88.0
949,181.3975071625,181.96874602083335,68.0,93.0
950,182.0307511625,182.16267699583335,61.0,94.0
951,182.0307511625,182.43576347083334,64.0,93.0
952,182.3473731625,182.5135997125,61.0,89.0
953,180.76426316250001,182.72468104583334,49.0,95.0
954,182.6639951625,182.79196322083334,61.0,95.0
955,182.6639951625,182.81702912916666,56.0,85.0
956,182.6639951625,183.0004060375,68.0,96.0
957,182.6639951625,183.16927110416668,64.0,99.0
958,182.9806171625,183.2022525625,61.0,93.0
959,183.2972391625,183.49380865416668,61.0,93.0
960,183.2972391625,183.5030434625,66.0,94.0
961,183.9304831625,184.0650475125,54.0,93.0
962,183.9304831625,184.17718447083334,58.0,91.0
963,183.9304831625,184.32757992083333,61.0,90.0
964,184.24710516250002,184.43048207083334,54.0,89.0
965,183.6138611625,184.73655000416667,49.0,71.0
966,184.56372716250002,184.95290837083334,66.0,94.0
967,184.56372716250002,184.96478169583332,58.0,88.0
968,184.56372716250002,185.01755202916667,61.0,94.0
969,184.8803491625,185.07559939583334,54.0,93.0
970,185.1969711625,185.28272295416667,54.0,95.0
971,185.1969711625,185.73259004583332,58.0,102.0
972,185.5135931625,185.74578262916668,54.0,95.0
973,185.1969711625,185.76952927916668,61.0,97.0
974,183.2972391625,185.83549219583335,42.0,97.0
975,185.8302151625,186.23126969583333,59.0,93.0
976,185.8302151625,186.29195557916665,63.0,89.0
977,185.8302151625,186.3091059375,66.0,94.0
978,186.4634591625,186.62704719583334,59.0,94.0
979,186.1468371625,186.87770627916666,54.0,83.0
980,186.7800811625,187.13364239583333,59.0,94.0
981,186.7800811625,187.18245495416667,63.0,99.0
982,186.7800811625,187.48588437083333,66.0,95.0
983,187.4133251625,187.56635912916667,59.0,80.0
984,185.8302151625,187.80382562916668,47.0,94.0
985,187.0967031625,187.80382562916668,54.0,85.0
986,187.7299471625,187.8763848375,59.0,94.0
987,187.7299471625,187.97796772916666,63.0,96.0
988,187.7299471625,188.2840356625,66.0,98.0
989,188.36319116250002,188.53601400416667,58.0,93.0
990,188.36319116250002,188.74181830416666,63.0,94.0
991,188.36319116250002,188.93179150416665,66.0,96.0
992,188.9964351625,189.14023432083334,63.0,80.0
993,188.6798131625,189.1613424541667,58.0,79.0
994,189.3130571625,189.7563279625,63.0,93.0
995,189.3130571625,189.78139387083334,66.0,99.0
996,189.3130571625,189.90408489583334,58.0,91.0
997,188.36319116250002,189.96740929583333,51.0,89.0
998,190.2629231625,190.37506012083333,58.0,93.0
999,190.2629231625,190.62439994583335,63.0,95.0
1000,190.5795451625,190.69695915416668,58.0,82.0
1001,190.2629231625,190.8526316375,66.0,98.0
1002,190.8961671625,191.31437205416665,59.0,87.0
1003,190.8961671625,191.67848735416666,64.0,83.0
1004,191.5294111625,191.72466139583332,59.0,85.0
1005,191.2127891625,192.03468710416666,56.0,80.0
1006,191.84603316250002,192.57294450416668,64.0,95.0
1007,191.84603316250002,192.58349857083334,59.0,95.0
1008,192.4792771625,192.73521327916666,56.0,76.0
1009,190.8961671625,192.84207320416667,49.0,95.0
1010,192.7958991625,192.94761387083332,59.0,92.0
1011,193.1125211625,193.29589807083335,59.0,86.0
1012,192.7958991625,193.3024943625,64.0,95.0
1013,193.4291431625,193.6863985375,61.0,89.0
1014,193.4291431625,193.7022296375,66.0,93.0
1015,194.0623871625,194.30249217916668,54.0,89.0
1016,193.7457651625,194.8341532875,49.0,76.0
1017,194.3790091625,195.0518309125,58.0,82.0
1018,194.3790091625,195.12966715416667,54.0,89.0
1019,194.3790091625,195.1666063875,61.0,90.0
1020,195.0122531625,195.35130255416667,49.0,78.0
1021,193.4291431625,195.44101212083334,42.0,96.0
1022,195.3288751625,195.4753128375,54.0,93.0
1023,195.64549716250002,195.9779502625,54.0,91.0
1024,195.3288751625,195.9858658125,58.0,94.0
1025,195.3288751625,196.0412746625,61.0,94.0
1026,195.3288751625,196.2945722625,66.0,94.0
1027,195.96211916250002,196.2945722625,66.0,94.0
1028,195.96211916250002,196.36317369583332,59.0,93.0
1029,195.96211916250002,196.42385957916667,63.0,89.0
1030,196.5953631625,196.75895119583333,59.0,94.0
1031,196.2787411625,197.00961027916668,54.0,83.0
1032,196.9119851625,197.26554639583333,59.0,94.0
1033,196.9119851625,197.31435895416666,63.0,99.0
1034,196.9119851625,197.61778837083335,66.0,95.0
1035,197.5452291625,197.69826312916666,59.0,80.0
1036,195.96211916250002,197.93572962916667,47.0,94.0
1037,197.2286071625,197.93572962916667,54.0,85.0
1038,197.8618511625,198.0082888375,59.0,94.0
1039,197.8618511625,198.10987172916668,63.0,96.0
1040,197.8618511625,198.41593966250002,66.0,98.0
1041,198.4950951625,198.66791800416667,58.0,93.0
1042,198.4950951625,198.87372230416668,63.0,94.0
1043,198.4950951625,199.06369550416667,66.0,96.0
1044,199.1283391625,199.27213832083334,63.0,80.0
1045,198.8117171625,199.29324645416668,58.0,79.0
1046,199.44496116250002,199.88823196250002,63.0,93.0
1047,199.44496116250002,199.91329787083333,66.0,99.0
1048,199.44496116250002,200.03598889583333,58.0,91.0
1049,198.4950951625,200.09931329583333,51.0,89.0
1050,200.3948271625,200.50696412083335,58.0,93.0
1051,200.3948271625,200.75630394583334,63.0,95.0
1052,200.7114491625,200.82886315416667,58.0,82.0
1053,200.3948271625,200.98453563750002,66.0,98.0
1054,201.0280711625,201.44627605416667,59.0,87.0
1055,201.0280711625,201.81039135416665,64.0,83.0
1056,201.6613151625,201.85656539583334,59.0,85.0
1057,201.3446931625,202.16659110416668,56.0,80.0
1058,201.97793716249998,202.70484850416668,64.0,95.0
1059,201.97793716249998,202.71540257083333,59.0,95.0
1060,202.6111811625,202.86711727916668,56.0,76.0
1061,201.0280711625,202.97397720416666,49.0,95.0
1062,202.9278031625,203.07951787083334,59.0,92.0
1063,203.24442516250002,203.42780207083334,59.0,86.0
1064,202.9278031625,203.43439836250002,64.0,95.0
1065,203.56104716250002,203.81830253750002,61.0,89.0
1066,203.56104716250002,203.8341336375,66.0,93.0
1067,204.1942911625,204.43439617916667,54.0,89.0
1068,203.8776691625,204.9660572875,49.0,76.0
1069,204.5109131625,205.1837349125,58.0,82.0
1070,204.5109131625,205.2615711541667,54.0,89.0
1071,204.5109131625,205.29851038750002,61.0,90.0
1072,205.1441571625,205.48320655416666,49.0,78.0
1073,203.56104716250002,205.57291612083333,42.0,96.0
1074,205.4607791625,205.6072168375,54.0,93.0
1075,205.77740116249998,206.1098542625,54.0,91.0
1076,205.4607791625,206.1177698125,58.0,94.0
1077,205.4607791625,206.1731786625,61.0,94.0
1078,205.4607791625,206.4264762625,66.0,94.0
1079,206.0940231625,206.4264762625,66.0,94.0
1080,206.0940231625,206.49507769583334,59.0,93.0
1081,206.0940231625,206.55576357916667,63.0,89.0
1082,206.7272671625,206.89085519583335,59.0,94.0
1083,206.4106451625,207.14151427916667,54.0,83.0
1084,207.04388916250002,207.39745039583335,59.0,94.0
1085,207.04388916250002,207.44626295416668,63.0,99.0
1086,207.04388916250002,207.74969237083334,66.0,95.0
1087,207.6771331625,207.83016712916668,59.0,80.0
1088,206.0940231625,208.06763362916666,47.0,94.0
1089,207.36051116250002,208.06763362916666,54.0,85.0
1090,207.9937551625,208.14019283750002,59.0,94.0
1091,207.9937551625,208.24177572916668,63.0,96.0
1092,207.9937551625,208.5478436625,66.0,98.0
1093,208.6269991625,208.79982200416669,58.0,93.0
1094,208.6269991625,209.00562630416667,63.0,94.0
1095,208.6269991625,209.19559950416667,66.0,96.0
1096,209.2602431625,209.40404232083336,63.0,80.0
1097,208.9436211625,209.42515045416667,58.0,79.0
1098,209.57686516249998,210.0201359625,63.0,93.0
1099,209.57686516249998,210.04520187083335,66.0,99.0
1100,209.57686516249998,210.16789289583335,58.0,91.0
1101,208.6269991625,210.23121729583335,51.0,89.0
1102,210.5267311625,210.63886812083334,58.0,93.0
1103,210.5267311625,210.88820794583336,63.0,95.0
1104,210.84335316250002,210.96076715416666,58.0,82.0
1105,210.5267311625,211.1164396375,66.0,98.0
1106,211.15997516250002,211.57818005416667,59.0,87.0
1107,211.15997516250002,211.94229535416667,64.0,83.0
1108,211.7932191625,211.98846939583333,59.0,85.0
1109,211.4765971625,212.29849510416668,56.0,80.0
1110,212.1098411625,212.83675250416667,64.0,95.0
1111,212.1098411625,212.84730657083333,59.0,95.0
1112,212.7430851625,212.99902127916667,56.0,76.0
1113,211.15997516250002,213.10588120416668,49.0,95.0
1114,213.0597071625,213.21142187083333,59.0,92.0
1115,213.37632916249999,213.55970607083333,59.0,86.0
1116,213.0597071625,213.5663023625,64.0,95.0
1117,213.6929511625,213.9502065375,61.0,89.0
1118,213.6929511625,213.9660376375,66.0,93.0
1119,214.3261951625,214.56630017916666,54.0,89.0
1120,214.0095731625,215.0979612875,49.0,76.0
1121,214.64281716250002,215.3156389125,58.0,82.0
1122,214.64281716250002,215.39347515416665,54.0,89.0
1123,214.64281716250002,215.4304143875,61.0,90.0
1124,215.2760611625,215.61511055416668,49.0,78.0
1125,213.6929511625,215.70482012083335,42.0,96.0
1126,215.5926831625,215.73912083750002,54.0,93.0
1127,215.9093051625,216.2417582625,54.0,91.0
1128,215.5926831625,216.24967381250002,58.0,94.0
1129,215.5926831625,216.3050826625,61.0,94.0
1130,215.5926831625,216.5583802625,66.0,94.0
1131,216.2259271625,216.5583802625,66.0,94.0
1132,216.2259271625,216.62698169583334,59.0,93.0
1133,216.2259271625,216.68766757916666,63.0,89.0
1134,216.8591711625,217.02275919583334,59.0,94.0
1135,216.5425491625,217.27341827916666,54.0,83.0
1136,217.17579316249999,217.52935439583334,59.0,94.0
1137,217.17579316249999,217.57816695416668,63.0,99.0
1138,217.17579316249999,217.88159637083334,66.0,95.0
1139,217.8090371625,217.96207112916667,59.0,80.0
1140,216.2259271625,218.19953762916668,47.0,94.0
1141,217.4924151625,218.19953762916668,54.0,85.0
1142,218.1256591625,218.2720968375,59.0,94.0
1143,218.1256591625,218.37367972916667,63.0,96.0
1144,218.1256591625,218.6797476625,66.0,98.0
1145,218.75890316250002,218.93172600416668,58.0,93.0
1146,218.75890316250002,219.13753030416666,63.0,94.0
1147,218.75890316250002,219.32750350416666,66.0,96.0
1148,219.3921471625,219.53594632083332,63.0,80.0
1149,219.0755251625,219.5570544541667,58.0,79.0
1150,219.7087691625,220.1520399625,63.0,93.0
1151,219.7087691625,220.17710587083334,66.0,99.0
1152,219.7087691625,220.29979689583334,58.0,91.0
1153,218.75890316250002,220.36312129583334,51.0,89.0
1154,220.6586351625,220.77077212083333,58.0,93.0
1155,220.6586351625,221.02011194583332,63.0,95.0
1156,220.9752571625,221.09267115416668,58.0,82.0
1157,220.6586351625,221.2483436375,66.0,98.0
1158,221.2918791625,221.71008405416666,59.0,87.0
1159,221.2918791625,222.07419935416667,64.0,83.0
1160,221.9251231625,222.12037339583333,59.0,85.0
1161,221.6085011625,222.43039910416667,56.0,80.0
1162,222.24174516250002,222.9686565041667,64.0,95.0
1163,222.24174516250002,222.97921057083335,59.0,95.0
1164,222.87498916250001,223.13092527916666,56.0,76.0
1165,221.2918791625,223.23778520416667,49.0,95.0
1166,223.1916111625,223.34332587083333,59.0,92.0
1167,223.5082331625,223.69161007083335,59.0,86.0
1168,223.1916111625,223.6982063625,64.0,95.0
1169,223.8248551625,224.0821105375,61.0,89.0
1170,223.8248551625,224.0979416375,66.0,93.0
1171,224.4580991625,224.69820417916668,54.0,89.0
1172,224.1414771625,225.2298652875,49.0,76.0
1173,224.7747211625,225.4475429125,58.0,82.0
1174,224.7747211625,225.52537915416667,54.0,89.0
1175,224.7747211625,225.5623183875,61.0,90.0
1176,225.4079651625,225.74701455416667,49.0,78.0
1177,223.8248551625,225.83672412083334,42.0,96.0
1178,225.7245871625,225.8710248375,54.0,93.0
1179,226.04120916250002,226.3736622625,54.0,91.0
1180,225.7245871625,226.3815778125,58.0,94.0
1181,225.7245871625,226.4369866625,61.0,94.0
1182,225.7245871625,226.6902842625,66.0,94.0
1183,226.35783116250002,226.6902842625,66.0,94.0
1184,226.35783116250002,226.75888569583333,59.0,93.0
1185,226.35783116250002,226.81957157916668,63.0,89.0
1186,226.9910751625,227.15466319583334,59.0,94.0
1187,226.67445316250001,227.40532227916668,54.0,83.0
1188,227.3076971625,227.66125839583333,59.0,94.0
1189,227.3076971625,227.71007095416667,63.0,99.0
1190,227.3076971625,228.01350037083336,66.0,95.0
1191,227.9409411625,228.09397512916667,59.0,80.0
1192,226.35783116250002,228.33144162916668,47.0,94.0
1193,227.6243191625,228.33144162916668,54.0,85.0
1194,228.2575631625,228.4040008375,59.0,94.0
1195,228.2575631625,228.5055837291667,63.0,96.0
1196,228.2575631625,228.81165166250003,66.0,98.0
1197,228.8908071625,229.06363000416667,58.0,93.0
1198,228.8908071625,229.26943430416668,63.0,94.0
1199,228.8908071625,229.45940750416668,66.0,96.0
1200,229.5240511625,229.66785032083334,63.0,80.0
1201,229.2074291625,229.68895845416665,58.0,79.0
1202,229.84067316250002,230.28394396250002,63.0,93.0
1203,229.84067316250002,230.30900987083334,66.0,99.0
1204,229.84067316250002,230.43170089583333,58.0,91.0
1205,228.8908071625,230.49502529583333,51.0,89.0
1206,230.7905391625,230.90267612083335,58.0,93.0
1207,230.7905391625,231.15201594583334,63.0,95.0
1208,231.1071611625,231.22457515416667,58.0,82.0
1209,230.7905391625,231.38024763750002,66.0,98.0
1210,231.4237831625,231.84198805416668,59.0,87.0
1211,231.4237831625,232.20610335416666,64.0,83.0
1212,232.0570271625,232.25227739583335,59.0,85.0
1213,231.7404051625,232.5623031041667,56.0,80.0
1214,232.3736491625,233.10056050416665,64.0,95.0
1215,232.3736491625,233.11111457083334,59.0,95.0
1216,233.0068931625,233.26282927916668,56.0,76.0
1217,231.4237831625,233.36968920416666,49.0,95.0
1218,233.3235151625,233.47522987083335,59.0,92.0
1219,233.64013716250003,233.82351407083334,59.0,86.0
1220,233.3235151625,233.83011036250002,64.0,95.0
1221,233.95675916250002,234.21401453750002,61.0,89.0
1222,233.95675916250002,234.2298456375,66.0,93.0
1223,234.5900031625,234.83010817916667,54.0,89.0
1224,234.27338116250002,235.3617692875,49.0,76.0
1225,234.9066251625,235.5794469125,58.0,82.0
1226,234.9066251625,235.6572831541667,54.0,89.0
1227,234.9066251625,235.69422238750002,61.0,90.0
1228,235.5398691625,235.87891855416666,49.0,78.0
1229,233.95675916250002,235.96862812083333,42.0,96.0
1230,235.8564911625,236.0029288375,54.0,93.0
1231,236.1731131625,236.5055662625,54.0,91.0
1232,235.8564911625,236.5134818125,58.0,94.0
1233,235.8564911625,236.5688906625,61.0,94.0
1234,235.8564911625,236.8221882625,66.0,94.0
1235,236.4897351625,236.8221882625,66.0,94.0
1236,236.4897351625,236.89078969583335,59.0,93.0
1237,236.4897351625,236.95147557916667,63.0,89.0
1238,237.1229791625,237.28656719583336,59.0,94.0
1239,236.8063571625,237.53722627916667,54.0,83.0
1240,237.43960116250003,237.79316239583335,59.0,94.0
1241,237.43960116250003,237.8419749541667,63.0,99.0
1242,237.43960116250003,238.14540437083332,66.0,95.0
1243,238.07284516250002,238.22587912916669,59.0,80.0
1244,236.4897351625,238.46334562916667,47.0,94.0
1245,237.75622316250002,238.46334562916667,54.0,85.0
1246,238.3894671625,238.5359048375,59.0,94.0
1247,238.3894671625,238.63748772916668,63.0,96.0
1248,238.3894671625,238.9435556625,66.0,98.0
1249,239.0227111625,239.1955340041667,58.0,93.0
1250,239.0227111625,239.40133830416667,63.0,94.0
1251,239.0227111625,239.59131150416667,66.0,96.0
1252,239.6559551625,239.79975432083336,63.0,80.0
1253,239.3393331625,239.82086245416667,58.0,79.0
1254,239.9725771625,240.4158479625,63.0,93.0
1255,239.9725771625,240.44091387083336,66.0,99.0
1256,239.9725771625,240.56360489583335,58.0,91.0
1257,239.0227111625,240.62692929583335,51.0,89.0
1258,240.9224431625,241.03458012083334,58.0,93.0
1259,240.9224431625,241.28391994583333,63.0,95.0
1260,241.23906516250003,241.35647915416666,58.0,82.0
1261,240.9224431625,241.5121516375,66.0,98.0
1262,241.55568716250002,241.97389205416667,59.0,87.0
1263,241.55568716250002,242.33800735416668,64.0,83.0
1264,242.1889311625,242.38418139583334,59.0,85.0
1265,241.87230916250002,242.69420710416668,56.0,80.0
1266,242.5055531625,243.23246450416667,64.0,95.0
1267,242.5055531625,243.24301857083333,59.0,95.0
1268,243.1387971625,243.39473327916667,56.0,76.0
1269,241.55568716250002,243.50159320416668,49.0,95.0
1270,243.4554191625,243.60713387083334,59.0,92.0
1271,243.7720411625,243.95541807083333,59.0,86.0
1272,243.4554191625,243.96201436249999,64.0,95.0
1273,244.0886631625,244.3459185375,61.0,89.0
1274,244.0886631625,244.3617496375,66.0,93.0
1275,244.7219071625,244.96201217916666,54.0,89.0
1276,244.4052851625,245.4936732875,49.0,76.0
1277,245.03852916250003,245.7113509125,58.0,82.0
1278,245.03852916250003,245.78918715416665,54.0,89.0
1279,245.03852916250003,245.8261263875,61.0,90.0
1280,245.67177316250002,246.01082255416668,49.0,78.0
1281,244.0886631625,246.10053212083335,42.0,96.0
1282,245.9883951625,246.1348328375,54.0,93.0
1283,246.3050171625,246.63747026250002,54.0,91.0
1284,245.9883951625,246.64538581250002,58.0,94.0
1285,245.9883951625,246.70079466250002,61.0,94.0
1286,245.9883951625,246.9540922625,66.0,94.0
