,start,end,pitch,velocity
0,28.474234333333335,28.9080574,67.0,83.0
1,28.915410333333334,29.0790131,72.0,79.0
2,29.135998333333337,29.76099766666667,72.0,84.0
3,29.797762333333335,30.260997133333337,74.0,79.0
4,30.238938333333337,30.635996733333336,77.0,76.0
5,30.680114333333336,31.141510900000004,76.0,82.0
6,31.121290333333334,31.5661428,72.0,84.0
7,31.562466333333337,33.99077256666667,69.0,83.0
8,35.533050333333335,35.93562343333333,68.0,84.0
9,35.974226333333334,36.08635856666667,72.0,87.0
10,36.19481433333333,36.80326956666667,72.0,84.0
11,36.85657833333334,37.306945500000005,74.0,87.0
12,37.29775433333334,37.749959733333334,77.0,85.0
13,37.738930333333336,38.1451799,76.0,83.0
14,38.180106333333335,38.67826756666667,72.0,84.0
15,38.62128233333333,39.5348843,74.0,84.0
16,39.50363433333334,42.2756902,76.0,84.0
17,42.591866333333336,43.025689400000005,67.0,83.0
18,43.033042333333334,43.196645100000005,72.0,79.0
19,43.253630333333334,43.87862966666667,72.0,84.0
20,43.91539433333334,44.378629133333334,74.0,79.0
21,44.35657033333334,44.753628733333336,77.0,76.0
22,44.797746333333336,45.2591429,76.0,82.0
23,45.238922333333335,45.6837748,72.0,84.0
24,45.68009833333333,48.10840456666667,69.0,83.0
25,49.650682333333336,50.053255433333334,68.0,84.0
26,50.091858333333334,50.20399056666667,72.0,87.0
27,50.312446333333334,50.92090156666667,72.0,84.0
28,50.97421033333334,51.424577500000005,74.0,87.0
29,51.41538633333334,51.867591733333335,79.0,85.0
30,51.856562333333336,52.2628119,72.0,83.0
31,52.297738333333335,52.73523786666667,74.0,84.0
32,52.73891433333334,53.61758986666667,74.0,84.0
33,53.62126633333334,56.39332220000001,72.0,84.0
34,56.709498333333336,57.1653802,71.0,81.0
35,57.150674333333335,57.617585600000005,72.0,84.0
36,57.59185033333334,57.98890873333334,74.0,85.0
37,58.03302633333334,58.91170186666667,76.0,86.0
38,58.91537833333334,59.6359658,80.0,84.0
39,59.79773033333334,60.15802406666667,76.0,86.0
40,60.23890633333334,60.63228826666667,74.0,85.0
41,60.68008233333334,61.18192003333334,72.0,79.0
42,61.12125833333334,61.58081666666667,74.0,88.0
43,61.562434333333336,62.46316866666667,76.0,84.0
44,62.44478633333334,62.88228586666667,72.0,82.0
45,62.88596233333334,63.62125566666667,81.0,84.0
46,63.768314333333336,64.12309336666667,81.0,79.0
47,64.20949033333333,64.42640186666667,79.0,82.0
48,64.43007833333334,64.86757786666666,79.0,84.0
49,64.87125433333334,65.2058128,76.0,83.0
50,65.31243033333334,65.7131652,74.0,89.0
51,65.75360633333334,66.5734584,72.0,87.0
52,66.85654633333334,67.10654606666667,72.0,84.0
53,67.07713433333333,67.7094866,79.0,83.0
54,67.73889833333334,67.8804423,72.0,86.0
55,67.95948633333334,68.40801526666667,72.0,79.0
56,68.40066233333334,68.81058836666668,74.0,84.0
57,68.84183833333334,69.75176383333334,74.0,87.0
58,69.94477833333333,70.66904226666668,77.0,81.0
59,70.82713033333334,72.54771673333335,76.0,85.0
60,72.59183433333334,73.08999556666667,74.0,87.0
61,73.03301033333334,73.50727453333334,76.0,86.0
62,73.47418633333334,73.91168586666667,79.0,83.0
63,73.91536233333333,75.78116916666667,72.0,83.0
64,76.56241833333334,76.99072670000001,71.0,86.0
65,77.00359433333334,77.39697626666667,72.0,85.0
66,77.44477033333334,78.8767541,81.0,85.0
67,78.76829833333333,79.19109200000001,72.0,73.0
68,79.20947433333333,80.01278230000001,79.0,83.0
69,80.09182633333334,80.55689936666667,76.0,83.0
70,80.53300233333334,80.96866363333334,74.0,84.0
71,80.97417833333334,81.46498663333334,72.0,84.0
72,81.41535433333334,81.86204503333335,69.0,77.0
73,81.85653033333334,82.33263276666668,71.0,84.0
74,82.29770633333334,82.76645583333334,72.0,82.0
75,82.73888233333334,83.8620429,74.0,85.0
76,84.06241033333335,84.92454176666668,77.0,84.0
77,84.94476233333334,86.68740753333334,76.0,83.0
78,86.70946633333334,87.17453936666668,74.0,83.0
79,87.15064233333334,87.64328886666668,76.0,84.0
80,87.59181833333334,88.13961186666667,79.0,82.0
81,88.03299433333333,90.2149773,72.0,79.0
82,90.68005033333334,91.01093233333334,71.0,85.0
83,91.12122633333334,91.49622593333333,72.0,84.0
84,91.56240233333334,92.4043132,81.0,85.0
85,92.44475433333334,92.78666573333334,71.0,87.0
86,92.88593033333333,93.25173876666668,72.0,82.0
87,93.32710633333335,94.08445846666667,79.0,84.0
88,94.20945833333334,94.56423736666667,76.0,81.0
89,94.65063433333334,95.05872213333335,74.0,84.0
90,95.09181033333334,95.52011870000001,72.0,84.0
91,95.53298633333334,95.9943829,69.0,80.0
92,95.97416233333334,96.42269126666667,71.0,84.0
93,96.41533833333334,96.88041136666668,72.0,78.0
94,96.85651433333334,97.58996943333334,77.0,83.0
95,97.73886633333333,98.33813040000001,76.0,84.0
96,98.40063033333334,98.81974753333334,74.0,85.0
97,98.84180633333334,101.65430333333335,72.0,78.0
98,114.94473033333334,115.37855340000002,67.0,83.0
99,115.38590633333334,115.54950910000001,72.0,79.0
100,115.60649433333334,116.23149366666668,72.0,84.0
101,116.26825833333334,116.73149313333334,74.0,79.0
102,116.70943433333335,117.10649273333334,77.0,76.0
103,117.15061033333335,117.61200690000001,76.0,82.0
104,117.59178633333335,118.0366388,72.0,84.0
105,118.03296233333334,120.46126856666667,69.0,83.0
106,122.00354633333335,122.40611943333334,68.0,84.0
107,122.44472233333335,122.55685456666667,72.0,87.0
108,122.66531033333334,123.27376556666668,72.0,84.0
109,123.32707433333334,123.77744150000001,74.0,87.0
110,123.76825033333334,124.22045573333334,77.0,85.0
111,124.20942633333334,124.61567590000001,76.0,83.0
112,124.65060233333334,125.14876356666667,72.0,84.0
113,125.09177833333334,126.00538030000001,74.0,84.0
114,125.97413033333335,128.7461862,76.0,84.0
115,129.06236233333334,129.4961854,67.0,83.0
116,129.50353833333335,129.6671411,72.0,79.0
117,129.72412633333334,130.34912566666668,72.0,84.0
118,130.38589033333335,130.84912513333333,74.0,79.0
119,130.82706633333333,131.22412473333335,77.0,76.0
120,131.26824233333335,131.7296389,76.0,82.0
121,131.70941833333333,132.1542708,72.0,84.0
122,132.15059433333334,134.57890056666668,69.0,83.0
123,136.12117833333335,136.52375143333333,68.0,84.0
124,136.56235433333333,136.67448656666667,72.0,87.0
125,136.78294233333335,137.39139756666668,72.0,84.0
126,137.44470633333336,137.89507350000002,74.0,87.0
127,137.88588233333334,138.33808773333334,79.0,85.0
128,138.32705833333335,138.7333079,72.0,83.0
129,138.76823433333334,139.2057338666667,74.0,84.0
130,139.20941033333335,140.0880858666667,74.0,84.0
131,140.09176233333335,142.8638182,72.0,84.0
132,143.17999433333335,143.6358762,71.0,81.0
133,143.62117033333334,144.0880816,72.0,84.0
134,144.06234633333335,144.45940473333334,74.0,85.0
135,144.50352233333334,145.38219786666667,76.0,86.0
136,145.38587433333333,146.1064618,80.0,84.0
137,146.26822633333333,146.62852006666668,76.0,86.0
138,146.70940233333334,147.10278426666667,74.0,85.0
139,147.15057833333336,147.65241603333334,72.0,79.0
140,147.59175433333334,148.0513126666667,74.0,88.0
141,148.03293033333335,148.9336646666667,76.0,84.0
142,148.91528233333335,149.35278186666667,72.0,82.0
143,149.35645833333334,150.09175166666668,81.0,84.0
144,150.23881033333333,150.5935893666667,81.0,79.0
145,150.67998633333335,150.89689786666668,79.0,82.0
146,150.90057433333334,151.3380738666667,79.0,84.0
147,151.34175033333335,151.67630880000002,76.0,83.0
148,151.78292633333334,152.18366120000002,74.0,89.0
149,152.22410233333335,153.04395440000002,72.0,87.0
150,153.32704233333334,153.57704206666668,72.0,84.0
151,153.54763033333336,154.17998260000002,79.0,83.0
152,154.20939433333334,154.35093830000002,72.0,86.0
153,154.42998233333336,154.8785112666667,72.0,79.0
154,154.87115833333334,155.28108436666668,74.0,84.0
155,155.31233433333335,156.22225983333334,74.0,87.0
156,156.41527433333334,157.13953826666668,77.0,81.0
157,157.29762633333334,159.01821273333334,76.0,85.0
158,159.06233033333334,159.56049156666668,74.0,87.0
159,159.50350633333335,159.97777053333334,76.0,86.0
160,159.94468233333333,160.38218186666668,79.0,83.0
161,160.38585833333335,162.25166516666667,72.0,83.0
162,163.03291433333334,163.4612227,71.0,86.0
163,163.47409033333335,163.86747226666668,72.0,85.0
164,163.91526633333334,165.34725010000002,81.0,85.0
165,165.23879433333335,165.66158800000002,72.0,73.0
166,165.67997033333336,166.48327830000002,79.0,83.0
167,166.56232233333336,167.02739536666667,76.0,83.0
168,167.00349833333334,167.43915963333333,74.0,84.0
169,167.44467433333335,167.93548263333335,72.0,84.0
170,167.88585033333334,168.33254103333334,69.0,77.0
171,168.32702633333335,168.80312876666667,71.0,84.0
172,168.76820233333333,169.23695183333334,72.0,82.0
173,169.20937833333335,170.3325389,74.0,85.0
174,170.53290633333336,171.3950377666667,77.0,84.0
175,171.41525833333336,173.15790353333335,76.0,83.0
176,173.17996233333335,173.6450353666667,74.0,83.0
177,173.62113833333333,174.1137848666667,76.0,84.0
178,174.06231433333335,174.61010786666668,79.0,82.0
179,174.50349033333336,176.6854733,72.0,79.0
180,177.15054633333335,177.48142833333335,71.0,85.0
181,177.59172233333334,177.96672193333336,72.0,84.0
182,178.03289833333335,178.87480920000002,81.0,85.0
183,178.91525033333335,179.25716173333333,71.0,87.0
184,179.35642633333336,179.72223476666667,72.0,82.0
185,179.79760233333334,180.5549544666667,79.0,84.0
186,180.67995433333334,181.03473336666667,76.0,81.0
187,181.12113033333335,181.52921813333336,74.0,84.0
188,181.56230633333334,181.9906147,72.0,84.0
189,182.00348233333335,182.4648789,69.0,80.0
190,182.44465833333334,182.89318726666667,71.0,84.0
191,182.88583433333335,183.3509073666667,72.0,78.0
192,183.32701033333333,184.06046543333335,77.0,83.0
193,184.20936233333336,184.64686186666668,76.0,84.0
194,184.65053833333334,185.06965553333336,74.0,85.0
195,185.09171433333336,185.52921386666668,72.0,78.0
196,185.53289033333334,186.67443323333336,81.0,84.0
197,186.85641833333335,187.20752090000002,81.0,84.0
198,187.29759433333334,187.665241,79.0,83.0
199,187.73877033333335,188.20751983333335,76.0,85.0
200,188.17994633333333,188.5089901,74.0,89.0
201,188.62112233333335,189.485092,74.0,84.0
202,189.50347433333334,190.30310583333335,76.0,83.0
203,190.38582633333334,190.7075171666667,81.0,83.0
204,190.82700233333335,191.2663401,79.0,78.0
205,191.26817833333334,191.7663395666667,76.0,85.0
206,191.70935433333335,192.14133916666668,74.0,87.0
207,192.15053033333334,193.02736763333334,72.0,84.0
208,193.03288233333336,193.55861706666667,69.0,77.0
209,193.91523433333336,194.26449866666667,77.0,79.0
210,194.35641033333334,194.8159686666667,76.0,84.0
211,194.79758633333336,195.16339476666667,74.0,85.0
212,195.23876233333334,195.61376193333334,74.0,86.0
213,195.67993833333335,196.00898210000003,72.0,84.0
214,196.12111433333334,196.50530510000002,72.0,82.0
215,196.56229033333335,196.94648110000003,74.0,85.0
216,197.00346633333334,197.3325101,76.0,80.0
217,197.44464233333335,198.14868570000002,76.0,83.0
218,198.32699433333335,198.54022940000002,81.0,76.0
219,198.54758233333334,198.9850818666667,79.0,84.0
220,198.98875833333335,199.20566986666668,74.0,83.0
221,199.20934633333334,199.9133897,72.0,76.0
222,200.97405033333334,201.3122852666667,81.0,81.0
223,201.41522633333335,201.83802000000003,79.0,83.0
224,201.85640233333334,202.19279903333336,76.0,85.0
225,202.29757833333335,202.61926916666667,74.0,85.0
226,202.73875433333336,203.59904753333336,74.0,89.0
227,203.62110633333336,204.38948786666668,76.0,79.0
228,204.50345833333336,204.85823736666669,81.0,84.0
229,204.94463433333334,205.35456036666668,79.0,84.0
230,205.38581033333335,205.9023539,76.0,84.0
231,205.82698633333334,206.27367703333334,74.0,85.0
232,206.26816233333335,207.6615432,72.0,83.0
233,208.03286633333335,208.3766159666667,77.0,85.0
234,208.47404233333336,208.85088016666668,76.0,84.0
235,208.91521833333334,209.22404153333335,74.0,85.0
236,209.35639433333336,209.7828644666667,74.0,86.0
237,209.79757033333334,209.99609953333334,72.0,82.0
238,210.01815833333336,210.54573130000003,81.0,85.0
239,210.67992233333334,210.78470163333336,81.0,78.0
240,210.90051033333336,211.3453628,81.0,83.0
241,211.34168633333334,211.56227433333336,82.0,77.0
242,211.56227433333336,211.8085976,81.0,76.0
243,211.78286233333336,211.91889160000002,79.0,79.0
244,212.00345033333335,213.10271386666668,79.0,83.0
245,213.10639033333334,213.27918426666668,76.0,84.0
246,213.32697833333336,213.47955170000003,79.0,82.0
247,213.54756633333335,215.8232992,81.0,84.0
248,216.41521033333336,217.1394742666667,79.0,81.0
249,217.29756233333336,219.01814873333336,78.0,85.0
250,219.06226633333335,219.56042756666668,76.0,87.0
251,219.50344233333334,219.97770653333336,78.0,86.0
252,219.94461833333335,220.38211786666668,81.0,83.0
253,220.38579433333334,222.2516011666667,74.0,83.0
254,223.03285033333336,223.46115870000003,73.0,86.0
255,223.47402633333334,223.86740826666667,74.0,85.0
256,223.91520233333335,225.34718610000002,83.0,85.0
257,225.23873033333334,225.66152400000001,74.0,73.0
258,225.67990633333335,226.48321430000001,81.0,83.0
259,226.56225833333335,227.0273313666667,78.0,83.0
260,227.00343433333336,227.43909563333335,76.0,84.0
261,227.44461033333334,227.93541863333334,74.0,84.0
262,227.88578633333336,228.33247703333336,71.0,77.0
263,228.32696233333334,228.8030647666667,73.0,84.0
264,228.76813833333335,229.23688783333336,74.0,82.0
265,229.20931433333334,230.33247490000002,76.0,85.0
266,230.53284233333335,231.39497376666668,79.0,84.0
267,231.41519433333335,233.15783953333334,78.0,83.0
268,233.17989833333334,233.64497136666668,76.0,83.0
269,233.62107433333335,234.11372086666668,78.0,84.0
270,234.06225033333334,234.61004386666667,81.0,82.0
271,234.50342633333335,236.68540930000003,74.0,79.0
272,237.15048233333334,237.48136433333335,73.0,85.0
273,237.59165833333336,237.96665793333335,74.0,84.0
274,238.03283433333334,238.8747452,83.0,85.0
275,238.91518633333334,239.25709773333335,73.0,87.0
276,239.35636233333335,239.7221707666667,74.0,82.0
277,239.79753833333336,240.55489046666668,81.0,84.0
278,240.67989033333336,241.0346693666667,78.0,81.0
279,241.12106633333335,241.52915413333335,76.0,84.0
280,241.56224233333336,241.99055070000003,74.0,84.0
281,242.00341833333334,242.46481490000002,71.0,80.0
282,242.44459433333336,242.8931232666667,73.0,84.0
283,242.88577033333334,243.35084336666668,74.0,78.0
284,243.32694633333335,244.06040143333334,79.0,83.0
285,244.20929833333335,244.64679786666667,78.0,84.0
286,244.65047433333336,245.06959153333335,76.0,85.0
287,245.09165033333335,245.52914986666667,74.0,78.0
288,251.26811433333336,251.74054030000002,66.0,84.0
289,251.70929033333334,252.17068690000002,64.0,86.0
290,252.15046633333336,252.61002466666667,62.0,81.0
291,252.59164233333334,253.04936243333336,59.0,84.0
292,253.03281833333335,253.4978913666667,61.0,79.0
293,253.47399433333337,253.9721555666667,62.0,83.0
294,253.91517033333335,256.3159030666667,67.0,80.0
295,256.56222633333334,257.01443173333337,66.0,87.0
296,257.0034023333333,257.426196,62.0,83.0
297,257.44457833333337,257.7478868333333,64.0,83.0
298,257.88575433333335,258.33428326666666,64.0,80.0
299,258.32693033333334,260.4905309666667,62.0,78.0
