,start,end,pitch,velocity
0,0.23345563333333336,0.9889695333333334,60.0,82.0
1,0.19852920000000002,1.2389692666666667,55.0,44.0
2,1.1286752666666668,1.8952185666666668,64.0,78.0
3,1.1415429000000001,1.9080862,60.0,62.0
4,0.2132350666666667,1.9099244333333334,48.0,87.0
5,1.5422777666666667,1.9136009,55.0,45.0
6,1.8566156666666669,1.9136009,55.0,66.0
7,1.9669096666666668,3.0808790666666668,59.0,77.0
8,1.8988950333333334,3.2095554,43.0,66.0
9,3.5790403000000004,4.303304233333334,57.0,66.0
10,3.6360255333333336,4.803303700000001,60.0,71.0
11,3.7389666000000004,5.069847533333334,64.0,68.0
12,4.636024466666667,5.137862166666667,57.0,70.0
13,4.181980833333333,5.1893327000000005,52.0,57.0
14,3.7113931000000004,5.2555091,45.0,79.0
15,5.457714766666667,6.1654346,55.0,61.0
16,5.5257294,6.4687431,59.0,71.0
17,6.409919633333334,6.652566433333334,55.0,73.0
18,5.5202147,6.935654366666667,43.0,73.0
19,6.022052400000001,6.9871249,50.0,57.0
20,7.136021800000001,7.3584480333333335,53.0,58.0
21,7.310653966666667,8.266535300000001,65.0,78.0
22,7.215065833333334,8.292270566666668,57.0,74.0
23,8.185653033333335,8.5643291,53.0,63.0
24,7.2849187,8.599255533333334,60.0,68.0
25,7.305139266666667,8.829034700000001,41.0,72.0
26,7.733447633333334,8.943005166666667,48.0,51.0
27,8.920946366666668,9.691166133333335,55.0,62.0
28,9.014696266666668,10.018371666666667,59.0,73.0
29,9.180137266666668,10.056974566666668,62.0,57.0
30,9.490798700000001,10.1194745,50.0,74.0
31,9.944842333333334,10.238959666666668,55.0,73.0
32,9.047784466666668,10.3069743,43.0,75.0
33,10.689326833333334,12.996309666666667,53.0,55.0
34,10.757341466666668,13.073515466666668,57.0,69.0
35,10.882341333333335,13.176456533333335,60.0,57.0
36,10.779400266666668,13.2959417,41.0,74.0
37,13.316162266666668,14.283073000000002,55.0,67.0
38,14.209543666666669,14.283073000000002,55.0,70.0
39,13.446676833333335,14.2885877,43.0,76.0
40,13.409912166666668,14.2885877,59.0,76.0
41,13.4889562,14.305131800000002,62.0,70.0
42,14.2665289,14.819837133333335,60.0,75.0
43,14.330867066666668,14.867631200000002,64.0,83.0
44,14.795940100000001,15.279395466666667,43.0,65.0
45,14.325352366666667,15.338218933333334,36.0,83.0
46,15.205866133333334,15.413586500000001,55.0,78.0
47,15.207704366666668,15.431968833333334,60.0,78.0
48,16.018365266666667,16.637849900000003,55.0,62.0
49,16.1084387,16.689320433333336,59.0,65.0
50,16.20035036666667,16.722408633333334,62.0,76.0
51,16.992628933333336,17.218731633333334,55.0,79.0
52,16.110276933333335,17.312481533333333,43.0,84.0
53,16.5606441,17.354760900000002,50.0,79.0
54,17.75549576666667,17.957701433333334,57.0,62.0
55,17.812481000000002,18.25733346666667,60.0,71.0
56,17.902554433333336,18.718730033333333,64.0,75.0
57,17.880495633333336,19.314317633333335,45.0,80.0
58,18.303289300000003,19.330861733333336,52.0,67.0
59,19.176450133333336,19.349244066666667,60.0,84.0
60,18.748141766666667,19.36578816666667,57.0,79.0
61,19.628655533333333,20.24814016666667,55.0,72.0
62,19.626817300000003,20.571669233333335,59.0,73.0
63,20.533066333333334,20.79409546666667,55.0,87.0
64,20.058802133333334,20.89887476666667,50.0,60.0
65,19.612111433333336,20.946668833333334,43.0,65.0
66,21.299609633333336,21.74262386666667,53.0,60.0
67,21.362109566666668,21.790417933333334,57.0,75.0
68,21.448506533333337,21.8878443,60.0,72.0
69,22.2352704,22.8694609,53.0,79.0
70,22.716887533333335,22.979754900000003,57.0,87.0
71,21.83085906666667,22.99997546666667,48.0,69.0
72,21.411741866666667,23.025710733333334,41.0,83.0
73,23.15438706666667,23.781224633333334,52.0,78.0
74,23.14887236666667,23.869459833333334,55.0,76.0
75,24.04225376666667,24.305121133333333,52.0,79.0
76,24.03673906666667,24.312474066666667,55.0,80.0
77,23.571666033333337,24.338209333333335,47.0,65.0
78,24.034900833333335,24.398871033333336,59.0,82.0
79,23.165416466666667,24.47240036666667,40.0,84.0
80,24.7940912,24.994458633333334,57.0,61.0
81,24.8602676,25.83453126666667,62.0,77.0
82,24.935635166666668,25.84004596666667,65.0,76.0
83,25.3731347,25.854751833333335,45.0,57.0
84,24.917252833333336,25.87864886666667,38.0,84.0
85,25.80695776666667,25.93931056666667,57.0,85.0
86,26.231589666666668,27.602911733333336,55.0,77.0
87,27.523867700000004,28.34923446666667,62.0,71.0
88,26.235266133333337,28.351072700000003,59.0,78.0
89,27.119456366666668,28.397028533333337,50.0,69.0
90,27.57166176666667,28.408057933333335,67.0,73.0
91,26.233427900000002,28.422763800000002,43.0,83.0
92,28.474234333333335,28.726072300000002,55.0,76.0
93,28.474234333333335,29.073498400000002,64.0,83.0
94,28.915410333333334,29.255483500000004,55.0,76.0
95,29.356586333333336,29.637836033333336,60.0,85.0
96,28.474234333333335,30.03673266666667,48.0,78.0
97,29.797762333333335,30.216879533333337,55.0,84.0
98,30.238938333333337,30.913569966666667,64.0,77.0
99,30.680114333333336,31.0257022,55.0,74.0
100,31.121290333333334,31.617613333333335,60.0,84.0
101,30.238938333333337,31.871289533333336,48.0,77.0
102,31.562466333333337,31.884157166666668,55.0,89.0
103,32.00364233333334,32.4870977,57.0,75.0
104,32.44481833333334,32.97606776666667,53.0,73.0
105,32.885994333333336,33.6341553,65.0,83.0
106,32.00364233333334,33.661728800000006,41.0,78.0
107,33.327170333333335,33.76466986666667,57.0,81.0
108,33.768346333333334,34.42643386666667,60.0,73.0
109,34.20952233333334,34.81797756666667,53.0,74.0
110,34.65069833333334,35.04775673333334,65.0,83.0
111,33.768346333333334,35.13047723333334,41.0,80.0
112,34.87128633333334,35.2003301,60.0,79.0
113,35.09187433333334,35.24260946666667,53.0,84.0
114,35.533050333333335,36.303270100000006,60.0,73.0
115,35.533050333333335,36.51099046666667,53.0,73.0
116,36.41540233333333,36.6837844,60.0,81.0
117,36.41540233333333,36.704004966666666,56.0,75.0
118,35.974226333333334,37.13415156666667,48.0,71.0
119,35.533050333333335,37.1580486,41.0,84.0
120,36.41540233333333,37.6323128,65.0,76.0
121,36.85657833333334,37.67275393333334,53.0,76.0
122,37.29775433333334,38.00547416666667,56.0,84.0
123,38.180106333333335,38.65620876666667,60.0,80.0
124,37.738930333333336,38.691135200000005,48.0,73.0
125,37.29775433333334,38.71687046666667,41.0,80.0
126,38.62128233333333,38.768341,53.0,84.0
127,39.06245833333334,39.28304633333334,55.0,77.0
128,39.06245833333334,39.75179583333334,60.0,79.0
129,39.50363433333334,40.0587808,55.0,72.0
130,39.944810333333336,40.43745686666667,62.0,80.0
131,39.06245833333334,40.63047136666667,48.0,83.0
132,40.385986333333335,40.82348586666667,60.0,75.0
133,40.827162333333334,41.44664696666667,64.0,84.0
134,41.26833833333334,41.69480846666667,55.0,72.0
135,41.48892633333334,41.7517937,60.0,79.0
136,41.70951433333334,41.9613523,62.0,83.0
137,41.93010233333334,42.187455,60.0,77.0
138,42.15069033333334,42.5348811,55.0,81.0
139,42.371278333333336,42.56980753333334,60.0,78.0
140,40.827162333333334,42.602895733333334,48.0,78.0
141,42.591866333333336,42.602895733333334,48.0,78.0
142,42.591866333333336,42.843704300000006,55.0,76.0
143,42.591866333333336,43.191130400000006,64.0,83.0
144,43.033042333333334,43.373115500000004,55.0,76.0
145,43.47421833333334,43.75546803333334,60.0,85.0
146,43.91539433333334,44.1231147,60.0,77.0
147,44.35657033333334,45.03120196666667,64.0,77.0
148,44.797746333333336,45.143334200000005,55.0,74.0
149,45.238922333333335,45.73524533333334,60.0,84.0
150,44.35657033333334,45.98892153333334,48.0,77.0
151,45.68009833333333,46.00178916666667,55.0,89.0
152,46.12127433333334,46.6047297,57.0,75.0
153,46.56245033333334,47.09369976666667,53.0,73.0
154,47.00362633333334,47.751787300000004,65.0,83.0
155,46.12127433333334,47.779360800000006,41.0,78.0
156,47.444802333333335,47.784875500000005,60.0,73.0
157,47.885978333333334,48.59369816666667,65.0,81.0
158,48.32715433333334,48.93560956666667,53.0,74.0
159,48.76833033333334,49.16538873333334,65.0,83.0
160,47.885978333333334,49.24810923333334,41.0,80.0
161,48.98891833333334,49.3179621,60.0,79.0
162,49.20950633333334,49.36024146666667,53.0,84.0
163,49.650682333333336,50.420902100000006,60.0,73.0
164,49.650682333333336,50.62862246666667,53.0,73.0
165,50.53303433333334,50.8014164,60.0,81.0
166,50.53303433333334,50.821636966666674,56.0,75.0
167,50.091858333333334,51.25178356666667,48.0,71.0
168,49.650682333333336,51.2756806,41.0,84.0
169,50.53303433333334,51.7499448,65.0,76.0
170,50.97421033333334,51.79038593333334,53.0,76.0
171,51.19479833333334,51.902518166666674,56.0,84.0
172,52.297738333333335,52.77384076666667,60.0,80.0
173,51.856562333333336,52.808767200000005,48.0,73.0
174,51.41538633333334,52.83450246666667,41.0,80.0
175,52.73891433333334,52.88597300000001,53.0,84.0
176,53.18009033333334,53.40067833333334,55.0,77.0
177,53.18009033333334,53.86942783333334,60.0,79.0
178,53.62126633333334,54.1764128,55.0,72.0
179,54.06244233333334,54.55508886666667,62.0,80.0
180,53.18009033333334,54.74810336666667,48.0,83.0
181,54.503618333333335,54.82898563333334,60.0,75.0
182,54.724206333333335,55.03486776666667,55.0,76.0
183,54.944794333333334,55.56427896666667,64.0,84.0
184,55.38597033333334,55.81244046666667,55.0,72.0
185,55.60655833333334,55.8694257,60.0,79.0
186,55.82714633333334,56.0789843,62.0,83.0
187,56.04773433333334,56.30508700000001,60.0,77.0
188,56.26832233333334,56.65251310000001,55.0,81.0
189,56.48891033333334,56.68743953333334,60.0,78.0
190,54.944794333333334,56.720527733333334,48.0,78.0
191,56.709498333333336,57.2039831,52.0,80.0
192,56.709498333333336,57.42089463333334,59.0,78.0
193,57.37126233333334,57.487071033333336,52.0,79.0
194,57.59185033333334,57.790379533333336,56.0,84.0
195,57.81243833333334,58.00545283333334,52.0,84.0
196,56.709498333333336,58.314276033333336,40.0,85.0
197,57.150674333333335,58.319790733333335,47.0,76.0
198,58.25361433333334,58.44846706666667,56.0,85.0
199,58.03302633333334,58.82162843333334,59.0,79.0
200,58.47420233333334,58.90067246666667,64.0,85.0
201,58.91537833333334,59.51096593333334,47.0,66.0
202,59.356554333333335,59.67089223333334,52.0,86.0
203,59.356554333333335,59.72236276666667,56.0,83.0
204,58.47420233333334,59.7628039,40.0,86.0
205,59.79773033333334,59.88228906666667,47.0,81.0
206,60.23890633333334,60.63045003333334,57.0,75.0
207,60.23890633333334,60.788538100000004,60.0,78.0
208,60.90067033333334,61.038537833333336,57.0,75.0
209,60.68008233333334,61.41169920000001,52.0,72.0
210,61.12125833333334,61.814272300000006,64.0,84.0
211,60.23890633333334,61.821625233333336,45.0,84.0
212,61.562434333333336,61.89883103333334,52.0,73.0
213,61.783022333333335,62.11574256666667,60.0,75.0
214,62.00361033333334,62.31243353333334,69.0,84.0
215,62.22419833333334,62.481551,64.0,80.0
216,62.44478633333334,62.70397723333334,60.0,84.0
217,62.66537433333334,63.03669746666667,57.0,82.0
218,63.10655033333334,63.22235903333334,57.0,81.0
219,62.00361033333334,63.23706490000001,45.0,83.0
220,62.88596233333334,63.253609000000004,52.0,75.0
221,63.32713833333334,63.5734616,59.0,76.0
222,63.32713833333334,63.597358633333336,55.0,79.0
223,63.32713833333334,63.65250563333334,43.0,75.0
224,63.768314333333336,64.0311817,53.0,72.0
225,63.768314333333336,64.22603443333334,60.0,79.0
226,64.20949033333333,64.86573963333333,53.0,78.0
227,64.43007833333334,64.91904840000001,60.0,79.0
228,63.988902333333336,65.11022466666667,48.0,76.0
229,63.768314333333336,65.17456283333334,41.0,83.0
230,64.87125433333334,65.3547097,65.0,84.0
231,65.09184233333333,65.5477242,60.0,83.0
232,65.31243033333334,65.5863271,53.0,83.0
233,65.97419433333334,66.28853223333334,55.0,77.0
234,66.19478233333334,66.65801713333335,59.0,80.0
235,65.75360633333334,66.92823743333334,47.0,72.0
236,65.53301833333335,67.0642667,40.0,85.0
237,66.63595833333333,67.15434013333333,64.0,86.0
238,66.85654633333334,67.19294303333334,59.0,79.0
239,67.07713433333333,67.33081053333333,55.0,79.0
240,67.73889833333334,68.14514790000001,50.0,78.0
241,67.95948633333334,68.3381624,53.0,76.0
242,67.51831033333333,68.54772100000001,45.0,68.0
243,68.18007433333334,68.6304415,62.0,83.0
244,67.29772233333334,68.64698560000001,38.0,86.0
245,68.40066233333334,68.69294143333335,57.0,79.0
246,68.62125033333334,68.9999264,53.0,79.0
247,68.84183833333334,69.06610280000001,50.0,79.0
248,69.50360233333333,69.83448433333334,55.0,78.0
249,69.72419033333334,69.83999903333334,59.0,76.0
250,69.28301433333334,70.19293983333334,50.0,72.0
251,69.94477833333333,70.753601,55.0,84.0
252,69.94477833333333,70.77014510000001,59.0,87.0
253,70.38595433333334,70.78852743333334,50.0,82.0
254,69.94477833333333,70.79955683333334,62.0,84.0
255,69.06242633333333,70.80874800000001,43.0,83.0
256,70.82713033333334,71.13043883333334,55.0,79.0
257,70.82713033333334,71.16536526666667,64.0,83.0
258,71.26830633333334,71.41536500000001,60.0,76.0
259,71.70948233333334,72.18374653333333,64.0,86.0
260,71.70948233333334,72.30139346666667,55.0,83.0
261,70.82713033333334,72.3969816,36.0,79.0
262,72.15065833333334,72.56426083333334,60.0,84.0
263,72.59183433333334,72.80139293333333,59.0,75.0
264,72.59183433333334,72.93190750000001,62.0,78.0
265,73.03301033333334,73.37492173333334,59.0,74.0
266,73.03301033333334,73.3841129,55.0,68.0
267,73.47418633333334,73.71131843333333,55.0,82.0
268,73.47418633333334,73.78852423333333,62.0,83.0
269,72.59183433333334,73.952127,43.0,78.0
270,73.91536233333333,74.12492093333334,55.0,76.0
271,73.91536233333333,74.38595006666667,59.0,83.0
272,74.35653833333333,74.83264076666667,57.0,72.0
273,74.35653833333333,74.84367016666667,60.0,79.0
274,75.23889033333334,75.3914637,57.0,77.0
275,75.23889033333334,75.66536046666667,64.0,84.0
276,74.35653833333333,75.93925723333334,45.0,80.0
277,74.79771433333335,76.01094833333335,52.0,72.0
278,75.68006633333334,76.27197746666667,57.0,79.0
279,76.12124233333334,76.5936683,60.0,78.0
280,76.56241833333334,76.74991813333334,57.0,83.0
281,76.12124233333334,76.8087416,45.0,84.0
282,76.12124233333334,76.81425630000001,64.0,84.0
283,77.00359433333334,77.2278588,55.0,80.0
284,77.00359433333334,77.48521146666667,58.0,76.0
285,77.00359433333334,77.53300553333334,60.0,83.0
286,77.44477033333334,77.74807883333334,55.0,85.0
287,77.00359433333334,77.77565233333334,64.0,84.0
288,77.88594633333334,78.15065193333334,53.0,74.0
289,77.88594633333334,78.40984283333334,57.0,77.0
290,78.32712233333334,78.5899897,60.0,77.0
291,78.76829833333333,79.1800626,65.0,79.0
292,78.76829833333333,79.1855773,60.0,81.0
293,78.76829833333333,79.25543016666667,57.0,83.0
294,77.88594633333334,79.36572416666667,41.0,83.0
295,79.20947433333333,79.37859180000001,53.0,86.0
296,79.65065033333335,80.15800273333333,52.0,76.0
297,79.65065033333335,80.16535566666667,55.0,78.0
298,80.09182633333334,80.2719732,59.0,75.0
299,80.53300233333334,80.9668254,64.0,84.0
300,80.53300233333334,81.11388406666667,52.0,83.0
301,79.65065033333335,81.1322664,40.0,83.0
302,80.97417833333334,81.13778110000001,59.0,76.0
303,81.41535433333334,81.88410383333334,50.0,74.0
304,81.41535433333334,81.91351556666667,53.0,73.0
305,81.85653033333334,82.33447100000001,57.0,73.0
306,81.41535433333334,82.5605737,38.0,84.0
307,82.29770633333334,82.81424990000001,62.0,83.0
308,82.73888233333334,82.9741762,38.0,85.0
309,82.73888233333334,83.0789555,53.0,75.0
310,82.73888233333334,83.09182313333334,57.0,74.0
311,83.18005833333333,83.75910183333335,62.0,79.0
312,83.18005833333333,83.93741046666668,55.0,77.0
313,84.06241033333335,84.92270353333333,59.0,83.0
314,84.06241033333335,84.93557116666668,62.0,83.0
315,83.18005833333333,84.94108586666667,43.0,84.0
316,83.62123433333333,84.9484388,50.0,77.0
317,84.50358633333335,84.97785053333334,55.0,82.0
318,84.94476233333334,84.97785053333334,55.0,79.0
319,84.94476233333334,85.28299726666667,64.0,83.0
320,85.38593833333334,85.53299700000001,60.0,76.0
321,85.82711433333334,86.30137853333333,64.0,86.0
322,85.82711433333334,86.41902546666667,55.0,83.0
323,84.94476233333334,86.5146136,36.0,79.0
324,86.26829033333334,86.68189283333334,60.0,84.0
325,86.70946633333334,86.91902493333335,59.0,75.0
326,86.70946633333334,87.04953950000001,62.0,78.0
327,87.15064233333334,87.49255373333334,59.0,74.0
328,87.15064233333334,87.5017449,55.0,68.0
329,87.59181833333334,87.82895043333335,55.0,82.0
330,87.59181833333334,87.90615623333333,62.0,83.0
331,86.70946633333334,88.069759,43.0,78.0
332,88.03299433333333,88.24255293333334,55.0,76.0
333,88.03299433333333,88.50358206666667,59.0,83.0
334,88.47417033333333,88.95027276666667,57.0,72.0
335,88.47417033333333,88.96130216666667,60.0,79.0
336,89.35652233333334,89.5090957,57.0,77.0
337,89.35652233333334,89.78299246666667,64.0,84.0
338,88.47417033333333,90.05688923333334,45.0,80.0
339,88.91534633333335,90.12858033333335,52.0,72.0
340,89.79769833333334,90.38960946666667,57.0,79.0
341,90.23887433333334,90.7113003,60.0,78.0
342,90.68005033333334,90.86755013333334,57.0,83.0
343,90.23887433333334,90.9263736,45.0,84.0
344,90.23887433333334,90.93188830000001,64.0,84.0
345,91.12122633333334,91.34549080000001,55.0,80.0
346,91.12122633333334,91.60284346666667,58.0,76.0
347,91.12122633333334,91.65063753333334,60.0,83.0
348,91.56240233333334,91.86571083333334,55.0,85.0
349,91.12122633333334,91.89328433333334,64.0,84.0
350,92.00357833333334,92.26828393333334,53.0,74.0
351,92.00357833333334,92.52747483333334,57.0,77.0
352,92.44475433333334,92.7076217,60.0,77.0
353,92.88593033333333,93.29769460000001,65.0,79.0
354,92.88593033333333,93.3032093,60.0,81.0
355,92.88593033333333,93.37306216666667,57.0,83.0
356,92.00357833333334,93.48335616666667,41.0,83.0
357,93.32710633333335,93.49622380000001,53.0,86.0
358,93.76828233333335,94.27563473333333,52.0,76.0
359,93.76828233333335,94.28298766666667,55.0,78.0
360,94.20945833333334,94.3896052,59.0,75.0
361,94.65063433333334,95.0844574,64.0,84.0
362,94.65063433333334,95.23151606666667,52.0,83.0
363,93.76828233333335,95.2498984,40.0,83.0
364,95.09181033333334,95.25541310000001,59.0,76.0
365,95.53298633333334,96.00173583333334,50.0,74.0
366,95.53298633333334,96.03114756666668,53.0,73.0
367,95.97416233333334,96.45210300000001,57.0,73.0
368,95.53298633333334,96.6782057,38.0,84.0
369,96.41533833333334,96.93188190000001,62.0,83.0
370,96.85651433333334,97.0918082,38.0,85.0
371,96.85651433333334,97.1965875,53.0,75.0
372,96.85651433333334,97.20945513333334,57.0,74.0
373,97.29769033333334,97.87673383333335,62.0,79.0
374,97.29769033333334,98.05504246666668,55.0,77.0
375,98.18004233333335,99.04033553333333,59.0,83.0
376,98.18004233333335,99.05320316666668,62.0,83.0
377,97.29769033333334,99.05871786666667,43.0,84.0
378,97.73886633333333,99.0660708,50.0,77.0
379,98.62121833333335,99.09548253333334,55.0,82.0
380,99.06239433333334,99.56607026666667,64.0,84.0
381,99.50357033333334,100.05136386666668,55.0,79.0
382,99.94474633333334,100.39327526666668,60.0,84.0
383,99.06239433333334,100.7204808,48.0,81.0
384,100.38592233333334,100.86753946666667,55.0,84.0
385,100.82709833333334,101.28298020000001,59.0,79.0
386,100.82709833333334,101.28298020000001,62.0,81.0
387,101.26827433333334,101.75908263333334,55.0,84.0
388,101.70945033333334,102.1598175,64.0,85.0
389,100.82709833333334,102.3142291,43.0,71.0
390,102.15062633333334,102.37672903333335,55.0,86.0
391,102.59180233333335,103.16165466666668,60.0,79.0
392,103.47415433333335,103.7039335,57.0,79.0
393,103.03297833333335,103.97047733333333,52.0,61.0
394,102.59180233333335,104.1340801,45.0,80.0
395,103.91533033333334,104.17452123333334,57.0,78.0
396,103.47415433333335,104.20393296666667,64.0,82.0
397,104.35650633333334,104.95025570000001,55.0,81.0
398,104.79768233333334,105.42819636666667,50.0,78.0
399,105.23885833333334,105.8381224,55.0,83.0
400,105.23885833333334,105.9042988,62.0,79.0
401,104.35650633333334,105.96312226666667,43.0,83.0
402,105.68003433333334,106.00907810000001,50.0,78.0
403,106.12121033333334,106.61937156666667,57.0,76.0
404,106.12121033333334,106.80135666666668,53.0,76.0
405,106.56238633333334,107.23517973333334,48.0,69.0
406,107.00356233333333,107.37304723333334,53.0,80.0
407,107.00356233333333,107.48517946666668,60.0,79.0
408,106.12121033333334,107.74988506666668,41.0,83.0
409,107.44473833333335,107.87856140000001,48.0,79.0
410,107.88591433333335,108.68738406666668,52.0,77.0
411,107.88591433333335,109.20025116666667,55.0,82.0
412,107.88591433333335,109.23517760000001,40.0,84.0
413,108.32709033333335,109.24253053333334,47.0,73.0
414,109.20944233333334,109.34363336666668,52.0,88.0
415,108.76826633333334,109.36017746666667,64.0,86.0
416,109.65061833333334,109.87672103333334,57.0,68.0
417,109.65061833333334,110.54951443333334,62.0,74.0
418,110.09179433333334,110.56238206666667,57.0,72.0
419,110.53297033333334,111.07524916666668,65.0,82.0
420,109.65061833333334,111.16899906666667,50.0,79.0
421,110.97414633333334,111.29951363333335,57.0,77.0
422,111.19473433333334,111.86017480000001,62.0,76.0
423,111.85649833333335,112.1965715,55.0,79.0
424,112.07708633333334,112.36752720000001,62.0,78.0
425,112.73885033333335,113.05870293333334,55.0,76.0
426,111.41532233333334,113.0678941,43.0,79.0
427,111.63591033333334,113.09914406666668,50.0,73.0
428,113.18002633333334,114.79583343333334,55.0,72.0
429,113.18002633333334,114.80502460000001,62.0,71.0
430,113.18002633333334,114.8105393,43.0,81.0
431,112.29767433333335,114.81789223333334,67.0,83.0
432,114.94473033333334,115.19656830000001,55.0,76.0
433,114.94473033333334,115.5439944,64.0,83.0
434,115.38590633333334,115.72597950000001,55.0,76.0
435,115.82708233333334,116.10833203333334,60.0,85.0
436,116.26825833333334,116.47597870000001,60.0,77.0
437,114.94473033333334,116.50722866666668,48.0,78.0
438,116.48884633333334,116.68737553333334,55.0,84.0
439,116.70943433333335,117.38406596666668,64.0,77.0
440,117.15061033333335,117.49619820000001,55.0,74.0
441,117.59178633333335,118.08810933333334,60.0,84.0
442,116.70943433333335,118.34178553333334,48.0,77.0
443,118.03296233333334,118.35465316666668,55.0,89.0
444,118.47413833333334,118.9575937,57.0,75.0
445,118.91531433333334,119.44656376666667,53.0,73.0
446,119.35649033333334,120.10465130000001,65.0,83.0
447,118.47413833333334,120.1322248,41.0,78.0
448,119.79766633333334,120.13773950000001,60.0,73.0
449,120.01825433333335,120.72597416666667,57.0,81.0
450,120.68001833333334,121.28847356666668,53.0,74.0
451,121.12119433333335,121.51825273333334,65.0,83.0
452,120.23884233333334,121.60097323333335,41.0,80.0
453,121.34178233333334,121.67082610000001,60.0,79.0
454,121.56237033333335,121.71310546666668,53.0,84.0
455,122.00354633333335,122.7737661,60.0,73.0
456,122.00354633333335,122.98148646666668,53.0,73.0
457,122.88589833333334,123.1542804,60.0,81.0
458,122.88589833333334,123.17450096666667,56.0,75.0
459,122.44472233333335,123.60464756666667,48.0,71.0
460,122.00354633333335,123.62854460000001,41.0,84.0
461,122.88589833333334,124.1028088,65.0,76.0
462,123.32707433333334,124.14324993333334,53.0,76.0
463,123.54766233333335,124.25538216666668,56.0,84.0
464,124.65060233333334,125.12670476666668,60.0,80.0
465,124.20942633333334,125.16163120000002,48.0,73.0
466,123.76825033333334,125.18736646666667,41.0,80.0
467,125.09177833333334,125.238837,53.0,84.0
468,125.53295433333334,125.75354233333334,55.0,77.0
469,125.53295433333334,126.22229183333334,60.0,79.0
470,125.97413033333335,126.5292768,55.0,72.0
471,126.41530633333335,126.90795286666668,62.0,80.0
472,125.53295433333334,127.10096736666668,48.0,83.0
473,126.85648233333335,127.18184963333334,60.0,75.0
474,127.07707033333334,127.38773176666668,55.0,76.0
475,127.29765833333335,127.91714296666667,64.0,84.0
476,127.73883433333334,128.16530446666667,55.0,72.0
477,127.95942233333334,128.2222897,60.0,79.0
478,128.18001033333334,128.4318483,62.0,83.0
479,128.40059833333333,128.657951,60.0,77.0
480,128.62118633333336,129.0053771,55.0,81.0
481,128.84177433333335,129.04030353333334,60.0,78.0
482,127.29765833333335,129.07339173333335,48.0,78.0
483,129.06236233333334,129.07339173333335,48.0,78.0
484,129.06236233333334,129.3142003,55.0,76.0
485,129.06236233333334,129.66162640000002,64.0,83.0
486,129.50353833333335,129.8436115,55.0,76.0
487,129.94471433333334,130.22596403333336,60.0,85.0
488,130.38589033333335,130.5936107,60.0,77.0
489,130.60647833333334,130.80500753333334,55.0,84.0
490,130.82706633333333,131.50169796666668,64.0,77.0
491,131.26824233333335,131.61383020000002,55.0,74.0
492,131.70941833333333,132.20574133333335,60.0,84.0
493,130.82706633333333,132.45941753333335,48.0,77.0
494,132.15059433333334,132.47228516666667,55.0,89.0
495,132.59177033333333,133.0752257,57.0,75.0
496,133.03294633333334,133.56419576666667,53.0,73.0
497,133.47412233333336,134.22228330000002,65.0,83.0
498,132.59177033333333,134.2498568,41.0,78.0
499,133.91529833333334,134.25537150000002,60.0,73.0
500,134.13588633333333,134.8436061666667,57.0,81.0
501,134.79765033333334,135.40610556666667,53.0,74.0
502,135.23882633333335,135.63588473333334,65.0,83.0
503,134.35647433333335,135.71860523333334,41.0,80.0
504,135.45941433333334,135.7884581,60.0,79.0
505,135.68000233333333,135.83073746666668,53.0,84.0
506,136.12117833333335,136.8913981,60.0,73.0
507,136.12117833333335,137.09911846666668,53.0,73.0
508,137.00353033333334,137.27191240000002,60.0,81.0
509,137.00353033333334,137.29213296666668,56.0,75.0
510,136.56235433333333,137.72227956666669,48.0,71.0
511,136.12117833333335,137.7461766,41.0,84.0
512,137.00353033333334,138.2204408,65.0,76.0
513,137.44470633333336,138.26088193333334,53.0,76.0
514,137.66529433333335,138.37301416666668,56.0,84.0
515,138.76823433333334,139.24433676666666,60.0,80.0
516,138.32705833333335,139.2792632,48.0,73.0
517,137.88588233333334,139.3049984666667,41.0,80.0
518,139.20941033333335,139.356469,53.0,84.0
519,139.65058633333334,139.87117433333336,55.0,77.0
520,139.65058633333334,140.33992383333333,60.0,79.0
521,140.09176233333335,140.6469088,55.0,72.0
522,140.53293833333333,141.0255848666667,62.0,80.0
523,139.65058633333334,141.21859936666667,48.0,83.0
524,140.97411433333335,141.29948163333336,60.0,75.0
525,141.19470233333334,141.50536376666668,55.0,76.0
526,141.41529033333333,142.03477496666667,64.0,84.0
527,141.85646633333334,142.28293646666668,55.0,72.0
528,142.07705433333334,142.33992170000002,60.0,79.0
529,142.29764233333336,142.5494803,62.0,83.0
530,142.51823033333335,142.775583,60.0,77.0
531,142.73881833333334,143.12300910000002,55.0,81.0
532,142.95940633333333,143.15793553333336,60.0,78.0
533,141.41529033333333,143.19102373333334,48.0,78.0
534,143.17999433333335,143.6744791,52.0,80.0
535,143.17999433333335,143.89139063333334,59.0,78.0
536,143.84175833333333,143.95756703333333,52.0,79.0
537,144.06234633333335,144.26087553333335,56.0,84.0
538,144.28293433333334,144.47594883333335,52.0,84.0
539,143.17999433333335,144.78477203333335,40.0,85.0
540,143.62117033333334,144.79028673333335,47.0,76.0
541,144.72411033333336,144.9189630666667,56.0,85.0
542,144.50352233333334,145.29212443333336,59.0,79.0
543,144.94469833333335,145.3711684666667,64.0,85.0
544,145.38587433333333,145.98146193333335,47.0,66.0
545,145.82705033333335,146.14138823333334,52.0,86.0
546,145.82705033333335,146.1928587666667,56.0,83.0
547,144.94469833333335,146.23329990000002,40.0,86.0
548,146.26822633333333,146.35278506666668,47.0,81.0
549,146.70940233333334,147.10094603333334,57.0,75.0
550,146.70940233333334,147.2590341,60.0,78.0
551,147.37116633333335,147.50903383333335,57.0,75.0
552,147.15057833333336,147.8821952,52.0,72.0
553,147.59175433333334,148.28476830000002,64.0,84.0
554,146.70940233333334,148.29212123333335,45.0,84.0
555,148.03293033333335,148.36932703333335,52.0,73.0
556,148.25351833333335,148.58623856666668,60.0,75.0
557,148.47410633333334,148.78292953333334,69.0,84.0
558,148.69469433333333,148.95204700000002,64.0,80.0
559,148.91528233333335,149.17447323333334,60.0,84.0
560,149.13587033333334,149.50719346666668,57.0,82.0
561,149.57704633333336,149.69285503333333,57.0,81.0
562,148.47410633333334,149.7075609,45.0,83.0
563,149.35645833333334,149.724105,52.0,75.0
564,149.79763433333335,150.0439576,59.0,76.0
565,149.79763433333335,150.06785463333335,55.0,79.0
566,149.79763433333335,150.12300163333333,43.0,75.0
567,150.23881033333333,150.50167770000002,53.0,72.0
568,150.23881033333333,150.69653043333335,60.0,79.0
569,150.67998633333335,151.33623563333333,53.0,78.0
570,150.90057433333334,151.3895444,60.0,79.0
571,150.45939833333335,151.58072066666668,48.0,76.0
572,150.23881033333333,151.64505883333334,41.0,83.0
573,151.34175033333335,151.8252057,65.0,84.0
574,151.56233833333334,152.0182202,60.0,83.0
575,151.78292633333334,152.0568231,53.0,83.0
576,152.44469033333334,152.75902823333334,55.0,77.0
577,152.66527833333333,153.12851313333334,59.0,80.0
578,152.22410233333335,153.39873343333335,47.0,72.0
579,152.00351433333336,153.53476270000002,40.0,85.0
580,153.10645433333335,153.62483613333333,64.0,86.0
581,153.32704233333334,153.66343903333333,59.0,79.0
582,153.54763033333336,153.80130653333333,55.0,79.0
583,154.20939433333334,154.6156439,50.0,78.0
584,154.42998233333336,154.8086584,53.0,76.0
585,153.98880633333334,155.01821700000002,45.0,68.0
586,154.65057033333335,155.10093750000001,62.0,83.0
587,153.76821833333335,155.11748160000002,38.0,86.0
588,154.87115833333334,155.16343743333334,57.0,79.0
589,155.09174633333333,155.47042240000002,53.0,79.0
590,155.31233433333335,155.5365988,50.0,79.0
591,155.97409833333336,156.30498033333333,55.0,78.0
592,156.19468633333335,156.31049503333335,59.0,76.0
593,155.75351033333334,156.66343583333335,50.0,72.0
594,156.41527433333334,157.224097,55.0,84.0
595,156.41527433333334,157.2406411,59.0,87.0
596,156.85645033333336,157.25902343333334,50.0,82.0
597,156.41527433333334,157.27005283333335,62.0,84.0
598,155.53292233333335,157.279244,43.0,83.0
599,157.29762633333334,157.60093483333335,55.0,79.0
600,157.29762633333334,157.63586126666667,64.0,83.0
601,157.73880233333335,157.885861,60.0,76.0
602,158.17997833333334,158.65424253333333,64.0,86.0
603,158.17997833333334,158.7718894666667,55.0,83.0
604,157.29762633333334,158.8674776,36.0,79.0
605,158.62115433333335,159.03475683333335,60.0,84.0
606,159.06233033333334,159.27188893333334,59.0,75.0
607,159.06233033333334,159.40240350000002,62.0,78.0
608,159.50350633333335,159.84541773333333,59.0,74.0
609,159.50350633333335,159.85460890000002,55.0,68.0
610,159.94468233333333,160.18181443333336,55.0,82.0
611,159.94468233333333,160.25902023333336,62.0,83.0
612,159.06233033333334,160.42262300000002,43.0,78.0
613,160.38585833333335,160.59541693333335,55.0,76.0
614,160.38585833333335,160.85644606666668,59.0,83.0
615,160.82703433333336,161.30313676666668,57.0,72.0
616,160.82703433333336,161.31416616666667,60.0,79.0
617,161.70938633333336,161.8619597,57.0,77.0
618,161.70938633333336,162.13585646666667,64.0,84.0
619,160.82703433333336,162.40975323333333,45.0,80.0
620,161.26821033333334,162.48144433333334,52.0,72.0
621,162.15056233333334,162.74247346666667,57.0,79.0
622,162.59173833333335,163.06416430000002,60.0,78.0
623,163.03291433333334,163.22041413333335,57.0,83.0
624,162.59173833333335,163.27923760000002,45.0,84.0
625,162.59173833333335,163.2847523,64.0,84.0
626,163.47409033333335,163.6983548,55.0,80.0
627,163.47409033333335,163.95570746666667,58.0,76.0
628,163.47409033333335,164.00350153333335,60.0,83.0
629,163.91526633333334,164.21857483333335,55.0,85.0
630,163.47409033333335,164.24614833333334,64.0,84.0
631,164.35644233333335,164.62114793333333,53.0,74.0
632,164.35644233333335,164.88033883333335,57.0,77.0
633,164.79761833333333,165.06048570000002,60.0,77.0
634,165.23879433333335,165.6505586,65.0,79.0
635,165.23879433333335,165.6560733,60.0,81.0
636,165.23879433333335,165.72592616666668,57.0,83.0
637,164.35644233333335,165.8362201666667,41.0,83.0
638,165.67997033333336,165.8490878,53.0,86.0
639,166.12114633333334,166.62849873333334,52.0,76.0
640,166.12114633333334,166.63585166666667,55.0,78.0
641,166.56232233333336,166.74246920000002,59.0,75.0
642,167.00349833333334,167.4373214,64.0,84.0
643,167.00349833333334,167.58438006666668,52.0,83.0
644,166.12114633333334,167.60276240000002,40.0,83.0
645,167.44467433333335,167.6082771,59.0,76.0
646,167.88585033333334,168.35459983333334,50.0,74.0
647,167.88585033333334,168.3840115666667,53.0,73.0
648,168.32702633333335,168.804967,57.0,73.0
649,167.88585033333334,169.03106970000002,38.0,84.0
650,168.76820233333333,169.28474590000002,62.0,83.0
651,169.20937833333335,169.4446722,38.0,85.0
652,169.20937833333335,169.5494515,53.0,75.0
653,169.20937833333335,169.56231913333335,57.0,74.0
654,169.65055433333333,170.22959783333334,62.0,79.0
655,169.65055433333333,170.40790646666667,55.0,77.0
656,170.53290633333336,171.39319953333336,59.0,83.0
657,170.53290633333336,171.40606716666667,62.0,83.0
658,169.65055433333333,171.41158186666667,43.0,84.0
659,170.09173033333335,171.41893480000002,50.0,77.0
660,170.97408233333334,171.44834653333334,55.0,82.0
661,171.41525833333336,171.44834653333334,55.0,79.0
662,171.41525833333336,171.75349326666668,64.0,83.0
663,171.85643433333334,172.00349300000002,60.0,76.0
664,172.29761033333335,172.77187453333335,64.0,86.0
665,172.29761033333335,172.88952146666668,55.0,83.0
666,171.41525833333336,172.98510960000002,36.0,79.0
667,172.73878633333334,173.15238883333333,60.0,84.0
668,173.17996233333335,173.38952093333336,59.0,75.0
669,173.17996233333335,173.5200355,62.0,78.0
670,173.62113833333333,173.96304973333335,59.0,74.0
671,173.62113833333333,173.9722409,55.0,68.0
672,174.06231433333335,174.29944643333334,55.0,82.0
673,174.06231433333335,174.37665223333335,62.0,83.0
674,173.17996233333335,174.540255,43.0,78.0
675,174.50349033333336,174.71304893333334,55.0,76.0
676,174.50349033333336,174.9740780666667,59.0,83.0
677,174.94466633333334,175.42076876666667,57.0,72.0
678,174.94466633333334,175.43179816666668,60.0,79.0
679,175.82701833333334,175.97959170000001,57.0,77.0
680,175.82701833333334,176.25348846666668,64.0,84.0
681,174.94466633333334,176.52738523333335,45.0,80.0
682,175.38584233333336,176.59907633333336,52.0,72.0
683,176.26819433333335,176.86010546666668,57.0,79.0
684,176.70937033333334,177.1817963,60.0,78.0
685,177.15054633333335,177.33804613333334,57.0,83.0
686,176.70937033333334,177.3968696,45.0,84.0
687,176.70937033333334,177.40238430000002,64.0,84.0
688,177.59172233333334,177.81598680000002,55.0,80.0
689,177.59172233333334,178.07333946666668,58.0,76.0
690,177.59172233333334,178.12113353333334,60.0,83.0
691,178.03289833333335,178.33620683333334,55.0,85.0
692,177.59172233333334,178.36378033333335,64.0,84.0
693,178.47407433333333,178.73877993333335,53.0,74.0
694,178.47407433333333,178.99797083333334,57.0,77.0
695,178.91525033333335,179.1781177,60.0,77.0
696,179.35642633333336,179.76819060000003,65.0,79.0
697,179.35642633333336,179.77370530000002,60.0,81.0
698,179.35642633333336,179.84355816666667,57.0,83.0
699,178.47407433333333,179.95385216666668,41.0,83.0
700,179.79760233333334,179.96671980000002,53.0,86.0
701,180.23877833333336,180.74613073333336,52.0,76.0
702,180.23877833333336,180.75348366666668,55.0,78.0
703,180.67995433333334,180.8601012,59.0,75.0
704,181.12113033333335,181.55495340000002,64.0,84.0
705,181.12113033333335,181.70201206666667,52.0,83.0
706,180.23877833333336,181.7203944,40.0,83.0
707,181.56230633333334,181.72590910000002,59.0,76.0
708,182.00348233333335,182.47223183333335,50.0,74.0
709,182.00348233333335,182.50164356666667,53.0,73.0
710,182.44465833333334,182.92259900000002,57.0,73.0
711,182.00348233333335,183.1487017,38.0,84.0
712,182.88583433333335,183.4023779,62.0,83.0
713,183.32701033333333,183.5623042,38.0,85.0
714,183.32701033333333,183.66708350000002,53.0,75.0
715,183.32701033333333,183.67995113333336,57.0,74.0
716,183.76818633333335,184.34722983333336,62.0,79.0
717,183.76818633333335,184.5255384666667,55.0,77.0
718,184.65053833333334,185.51083153333335,59.0,83.0
719,184.65053833333334,185.5236991666667,62.0,83.0
720,183.76818633333335,185.52921386666668,43.0,84.0
721,184.20936233333336,185.5365668,50.0,77.0
722,185.09171433333336,185.56597853333335,55.0,82.0
723,185.53289033333334,185.77921360000002,53.0,78.0
724,185.53289033333334,185.79943416666669,60.0,78.0
725,185.97406633333335,186.1082573666667,57.0,73.0
726,185.97406633333335,186.11561030000001,53.0,74.0
727,185.53289033333334,186.1468602666667,41.0,84.0
728,186.41524233333334,186.54575690000001,53.0,83.0
729,186.41524233333334,186.55678630000003,60.0,85.0
730,186.41524233333334,186.9207565,48.0,78.0
731,186.41524233333334,186.9520064666667,41.0,84.0
732,186.85641833333335,186.9593594,57.0,81.0
733,186.85641833333335,186.97406526666668,53.0,77.0
734,187.29759433333334,187.51450586666667,53.0,80.0
735,187.29759433333334,187.5200205666667,60.0,79.0
736,187.29759433333334,187.8637702,41.0,83.0
737,187.73877033333335,187.87112313333336,57.0,78.0
738,187.73877033333335,187.87663783333335,53.0,76.0
739,188.17994633333333,188.30494620000002,41.0,81.0
740,188.17994633333333,188.34538733333335,53.0,84.0
741,188.17994633333333,188.37663730000003,60.0,85.0
742,188.62112233333335,188.73141633333336,53.0,78.0
743,188.62112233333335,188.77369570000002,57.0,81.0
744,189.06229833333336,189.28104810000002,55.0,80.0
745,189.06229833333336,189.35090096666667,59.0,83.0
746,189.06229833333336,189.62112126666668,40.0,85.0
747,189.50347433333334,189.82884163333335,55.0,83.0
748,189.94465033333336,190.10641486666668,55.0,77.0
749,189.94465033333336,190.14501776666668,59.0,75.0
750,189.94465033333336,190.15604716666667,64.0,83.0
751,189.94465033333336,190.21119416666667,40.0,84.0
752,190.38582633333334,190.88031110000003,55.0,77.0
753,190.82700233333335,191.05310503333334,64.0,84.0
754,190.82700233333335,191.05494326666667,59.0,80.0
755,190.82700233333335,191.44832520000003,40.0,84.0
756,191.26817833333334,191.4979575,55.0,79.0
757,191.70935433333335,191.81597186666667,40.0,83.0
758,191.70935433333335,191.84538360000002,55.0,84.0
759,191.70935433333335,191.9336188,59.0,87.0
760,191.70935433333335,191.96303053333335,64.0,84.0
761,192.15053033333334,192.2350890666667,55.0,78.0
762,192.59170633333335,192.7167062,64.0,79.0
763,192.59170633333335,192.77552966666667,62.0,74.0
764,192.59170633333335,192.84722076666668,65.0,76.0
765,192.59170633333335,193.12847046666667,50.0,85.0
766,193.03288233333336,193.24795563333336,57.0,77.0
767,193.47405833333335,193.69832280000003,57.0,80.0
768,193.47405833333335,193.9722195666667,62.0,83.0
769,193.47405833333335,193.97589603333336,65.0,79.0
770,193.47405833333335,193.98692543333334,50.0,82.0
771,193.91523433333336,194.1670723,57.0,77.0
772,194.35641033333334,194.52185133333336,57.0,78.0
773,194.35641033333334,194.84170393333335,50.0,84.0
774,194.35641033333334,194.8508951,62.0,83.0
775,194.35641033333334,194.8545715666667,65.0,78.0
776,194.79758633333336,195.06780663333336,57.0,77.0
777,195.23876233333334,195.43912976666667,57.0,78.0
778,195.23876233333334,195.55493846666667,62.0,82.0
779,195.23876233333334,195.56596786666668,65.0,78.0
780,195.67993833333335,195.73876180000002,65.0,65.0
781,195.67993833333335,195.7497912,62.0,70.0
782,195.23876233333334,195.77368823333336,50.0,84.0
783,195.67993833333335,195.97957036666668,57.0,83.0
784,196.12111433333334,196.52368743333335,64.0,84.0
785,196.12111433333334,196.61192263333334,60.0,82.0
786,196.12111433333334,196.66706963333334,48.0,79.0
787,196.56229033333335,196.77736363333335,55.0,83.0
788,197.00346633333334,197.16155440000003,55.0,84.0
789,197.00346633333334,197.28655426666668,60.0,84.0
790,197.00346633333334,197.36743653333335,64.0,84.0
791,197.00346633333334,197.70383323333334,48.0,85.0
792,197.44464233333335,197.73140673333336,55.0,79.0
793,197.88581833333336,198.17258273333334,60.0,84.0
794,197.88581833333336,198.18912683333335,55.0,84.0
795,197.88581833333336,198.21302386666667,64.0,85.0
796,197.88581833333336,198.22037680000003,48.0,87.0
797,198.32699433333335,198.66522926666667,50.0,84.0
798,198.32699433333335,198.6836116,62.0,81.0
799,198.76817033333336,199.04942003333335,52.0,90.0
800,198.76817033333336,199.15787580000003,64.0,92.0
801,199.20934633333334,199.3067727,48.0,79.0
802,199.20934633333334,199.34169913333335,60.0,84.0
803,199.65052233333336,199.96486023333335,53.0,75.0
804,199.65052233333336,199.98508080000002,60.0,78.0
805,200.09169833333334,200.31228633333336,53.0,79.0
806,200.09169833333334,200.32883043333334,57.0,79.0
807,200.53287433333335,200.73140353333335,53.0,84.0
808,200.53287433333335,200.74794763333335,60.0,83.0
809,199.65052233333336,201.08985903333334,41.0,84.0
810,200.97405033333334,201.33802053333335,53.0,76.0
811,200.97405033333334,201.34537346666667,57.0,74.0
812,201.41522633333335,201.672579,53.0,79.0
813,201.41522633333335,201.6946378,60.0,80.0
814,201.41522633333335,202.0347109666667,41.0,84.0
815,201.85640233333334,202.10088736666668,57.0,80.0
816,201.85640233333334,202.1119167666667,53.0,79.0
817,202.29757833333335,202.54390160000003,53.0,79.0
818,202.29757833333335,202.5990486,60.0,78.0
819,202.29757833333335,202.86559243333335,48.0,78.0
820,202.73875433333336,202.97220996666667,53.0,81.0
821,202.29757833333335,202.9905923,41.0,81.0
822,202.73875433333336,203.04941576666667,57.0,80.0
823,203.17993033333335,203.3858124666667,55.0,77.0
824,203.17993033333335,203.40051833333334,59.0,80.0
825,203.17993033333335,203.80860613333334,40.0,84.0
826,203.62110633333336,203.84353256666668,55.0,76.0
827,203.62110633333336,203.85640020000002,52.0,78.0
828,204.06228233333334,204.29941443333334,59.0,82.0
829,204.06228233333334,204.30125266666667,52.0,83.0
830,204.50345833333336,204.8049286,52.0,79.0
831,204.06228233333334,204.8141197666667,40.0,84.0
832,204.50345833333336,204.82147270000002,55.0,78.0
833,204.94463433333334,205.23691343333334,52.0,78.0
834,204.94463433333334,205.2957369,59.0,83.0
835,205.38581033333335,205.61191303333334,52.0,85.0
836,205.38581033333335,205.65419240000003,55.0,86.0
837,204.94463433333334,205.69831000000002,40.0,84.0
838,205.82698633333334,206.08985370000002,52.0,84.0
839,205.82698633333334,206.2332359,57.0,80.0
840,205.82698633333334,206.29573583333334,45.0,83.0
841,206.26816233333335,206.65235310000003,52.0,76.0
842,206.26816233333335,206.70566186666667,55.0,84.0
843,206.70933833333333,207.02919093333335,57.0,73.0
844,206.70933833333333,207.08433793333336,65.0,83.0
845,206.70933833333333,207.46117576666668,38.0,85.0
846,207.15051433333335,207.49610220000002,57.0,74.0
847,207.15051433333335,207.5935285666667,62.0,79.0
848,207.59169033333336,207.86374886666667,57.0,77.0
849,207.59169033333336,207.95749876666667,65.0,82.0
850,208.03286633333335,208.32330720000002,57.0,83.0
851,208.03286633333335,208.3288219,62.0,83.0
852,207.59169033333336,208.33249836666667,38.0,84.0
853,208.47404233333336,208.71301266666669,57.0,80.0
854,208.47404233333336,208.8619095666667,65.0,85.0
855,208.91521833333334,209.17808570000003,62.0,84.0
856,208.91521833333334,209.22404153333335,57.0,84.0
857,208.47404233333336,209.23507093333336,38.0,90.0
858,209.35639433333336,209.55492353333335,55.0,84.0
859,209.35639433333336,209.75529096666668,60.0,84.0
860,209.35639433333336,209.79021740000002,36.0,80.0
861,209.79757033333334,209.99058483333334,55.0,86.0
862,210.23874633333335,210.50712840000003,53.0,77.0
863,210.23874633333335,210.5402166,62.0,78.0
864,210.23874633333335,210.88948093333335,46.0,87.0
865,210.67992233333334,210.91153973333334,53.0,80.0
866,210.67992233333334,210.91153973333334,58.0,84.0
867,211.12109833333335,211.27550993333335,46.0,87.0
868,211.12109833333335,211.35271573333335,53.0,79.0
869,211.12109833333335,211.41521566666668,62.0,83.0
870,211.56227433333336,211.69646536666667,58.0,86.0
871,211.56227433333336,211.72587710000002,53.0,80.0
872,212.00345033333335,212.26264123333334,59.0,81.0
873,212.00345033333335,212.27367063333335,55.0,78.0
874,212.00345033333335,212.27550886666668,62.0,83.0
875,212.00345033333335,212.5751409,43.0,84.0
876,212.44462633333336,212.6449937666667,55.0,81.0
877,212.44462633333336,212.65050846666668,59.0,83.0
878,212.44462633333336,212.6615378666667,62.0,83.0
879,212.88580233333334,213.03286100000003,43.0,84.0
880,212.88580233333334,213.08616976666667,55.0,83.0
881,212.88580233333334,213.11006680000003,62.0,83.0
882,212.88580233333334,213.11558150000002,59.0,83.0
883,213.32697833333336,213.52550753333335,55.0,83.0
884,213.32697833333336,213.5383751666667,59.0,83.0
885,213.32697833333336,213.54205163333336,62.0,84.0
886,213.76815433333334,213.99793350000002,64.0,85.0
887,213.76815433333334,213.99977173333335,61.0,86.0
888,213.76815433333334,214.01080113333336,57.0,80.0
889,214.20933033333336,214.3949919,61.0,84.0
890,213.76815433333334,214.43175656666668,45.0,85.0
891,214.20933033333336,214.4335948,57.0,83.0
892,214.20933033333336,214.4427859666667,64.0,85.0
893,214.65050633333334,214.89315313333336,64.0,86.0
894,214.65050633333334,214.90602076666667,69.0,82.0
895,214.65050633333334,214.91705016666668,57.0,83.0
896,214.65050633333334,214.9280795666667,61.0,89.0
897,214.65050633333334,215.15969696666667,52.0,82.0
898,215.09168233333335,215.36925556666668,57.0,79.0
899,215.09168233333335,215.38396143333335,61.0,85.0
900,215.09168233333335,215.39499083333334,64.0,85.0
901,215.53285833333334,217.14682720000002,61.0,83.0
902,215.53285833333334,217.1523419,64.0,83.0
903,215.53285833333334,217.16337130000002,57.0,83.0
904,215.53285833333334,217.19829773333336,45.0,86.0
905,215.53285833333334,217.19829773333336,69.0,81.0
906,217.29756233333336,217.60087083333335,57.0,79.0
907,217.29756233333336,217.63579726666669,66.0,83.0
908,217.73873833333334,217.88579700000003,62.0,76.0
909,218.17991433333336,218.65417853333335,66.0,86.0
910,218.17991433333336,218.77182546666668,57.0,83.0
911,217.29756233333336,218.86741360000002,38.0,79.0
912,218.62109033333334,219.03469283333334,62.0,84.0
913,219.06226633333335,219.27182493333336,61.0,75.0
914,219.06226633333335,219.4023395,64.0,78.0
915,219.50344233333334,219.84535373333335,61.0,74.0
916,219.50344233333334,219.8545449,57.0,68.0
917,219.94461833333335,220.18175043333335,57.0,82.0
918,219.94461833333335,220.25895623333335,64.0,83.0
919,219.06226633333335,220.422559,45.0,78.0
920,220.38579433333334,220.59535293333334,57.0,76.0
921,220.38579433333334,220.8563820666667,61.0,83.0
922,220.82697033333335,221.30307276666667,59.0,72.0
923,220.82697033333335,221.3141021666667,62.0,79.0
924,221.70932233333335,221.86189570000002,59.0,77.0
925,221.70932233333335,222.1357924666667,66.0,84.0
926,220.82697033333335,222.40968923333335,47.0,80.0
927,221.26814633333336,222.48138033333336,54.0,72.0
928,222.15049833333336,222.7424094666667,59.0,79.0
929,222.59167433333334,223.0641003,62.0,78.0
930,223.03285033333336,223.22035013333334,59.0,83.0
931,222.59167433333334,223.2791736,47.0,84.0
932,222.59167433333334,223.28468830000003,66.0,84.0
933,223.47402633333334,223.69829080000002,57.0,80.0
934,223.47402633333334,223.9556434666667,60.0,76.0
935,223.47402633333334,224.00343753333334,62.0,83.0
936,223.91520233333335,224.21851083333334,57.0,85.0
937,223.47402633333334,224.24608433333336,66.0,84.0
938,224.35637833333334,224.62108393333335,55.0,74.0
939,224.35637833333334,224.88027483333335,59.0,77.0
940,224.79755433333335,225.0604217,62.0,77.0
941,225.23873033333334,225.65049460000003,67.0,79.0
942,225.23873033333334,225.65600930000002,62.0,81.0
943,225.23873033333334,225.72586216666667,59.0,83.0
944,224.35637833333334,225.83615616666668,43.0,83.0
945,225.67990633333335,225.84902380000003,55.0,86.0
946,226.12108233333336,226.62843473333336,54.0,76.0
947,226.12108233333336,226.6357876666667,57.0,78.0
948,226.56225833333335,226.7424052,61.0,75.0
949,227.00343433333336,227.43725740000002,66.0,84.0
950,227.00343433333336,227.58431606666667,54.0,83.0
951,226.12108233333336,227.6026984,42.0,83.0
952,227.44461033333334,227.60821310000003,61.0,76.0
953,227.88578633333336,228.35453583333336,52.0,74.0
954,227.88578633333336,228.38394756666668,55.0,73.0
955,228.32696233333334,228.80490300000002,59.0,73.0
956,227.88578633333336,229.0310057,40.0,84.0
957,228.76813833333335,229.2846819,64.0,83.0
958,229.20931433333334,229.4446082,40.0,85.0
959,229.20931433333334,229.54938750000002,55.0,75.0
960,229.20931433333334,229.56225513333334,59.0,74.0
961,229.65049033333335,230.22953383333336,64.0,79.0
962,229.65049033333335,230.4078424666667,57.0,77.0
963,230.53284233333335,231.39313553333335,61.0,83.0
964,230.53284233333335,231.4060031666667,64.0,83.0
965,229.65049033333335,231.41151786666668,45.0,84.0
966,230.09166633333336,231.4188708,52.0,77.0
967,230.97401833333336,231.44828253333336,57.0,82.0
968,231.41519433333335,231.44828253333336,57.0,76.0
969,231.41519433333335,231.91151733333336,66.0,76.0
970,231.85637033333336,232.15967883333334,57.0,84.0
971,232.07695833333335,232.18725233333336,62.0,81.0
972,231.63578233333334,232.3784286,45.0,74.0
973,232.29754633333334,232.54570783333335,57.0,85.0
974,232.29754633333334,232.63026656666668,62.0,89.0
975,231.41519433333335,232.78283993333335,38.0,88.0
976,232.51813433333336,232.84166340000002,45.0,83.0
977,232.29754633333334,232.96850150000003,66.0,85.0
978,232.95931033333335,233.05489846666669,62.0,69.0
979,232.73872233333336,233.06041316666668,57.0,88.0
980,233.17989833333334,233.41335396666668,57.0,75.0
981,233.17989833333334,233.62842726666668,61.0,84.0
982,233.84166233333335,233.88945640000003,61.0,72.0
983,233.62107433333335,233.93357400000002,57.0,85.0
984,233.84166233333335,234.03283860000002,64.0,83.0
985,234.06225033333334,234.32511770000002,69.0,87.0
986,234.28283833333336,234.55857333333336,64.0,84.0
987,234.50342633333335,234.75710253333335,61.0,88.0
988,233.17989833333334,234.77180840000003,45.0,85.0
989,233.40048633333336,234.8085730666667,52.0,74.0
990,234.72401433333334,234.82511716666667,57.0,84.0
991,234.94460233333336,235.20195500000003,57.0,76.0
992,234.94460233333336,235.50342526666668,62.0,78.0
993,235.38577833333335,235.6523221666667,57.0,85.0
994,235.60636633333334,235.75526323333335,62.0,83.0
995,235.16519033333336,235.86371900000003,54.0,71.0
996,235.82695433333336,236.29938030000002,66.0,90.0
997,236.04754233333335,236.49790950000002,54.0,83.0
998,236.26813033333335,236.5861447,62.0,84.0
999,234.94460233333336,236.60085056666668,47.0,85.0
1000,236.48871833333334,237.17437936666667,66.0,85.0
1001,237.15048233333334,237.53099663333336,57.0,85.0
1002,237.37107033333336,237.5328348666667,61.0,89.0
1003,237.59165833333336,238.01996670000003,69.0,92.0
1004,236.92989433333335,238.0401872666667,52.0,79.0
1005,237.81224633333335,238.10452543333335,64.0,83.0
1006,238.03283433333334,238.3104075666667,61.0,84.0
1007,236.70930633333336,238.3159222666667,45.0,84.0
1008,238.25342233333336,238.56776023333336,57.0,86.0
1009,238.91518633333334,239.3857740666667,55.0,82.0
1010,239.13577433333336,239.4813622,59.0,83.0
1011,239.35636233333335,239.77180306666668,67.0,85.0
1012,238.69459833333335,239.86555296666668,50.0,71.0
1013,238.47401033333335,239.89680293333336,43.0,84.0
1014,239.57695033333334,239.90783233333335,62.0,81.0
1015,239.79753833333336,240.0916556666667,59.0,83.0
1016,240.01812633333336,240.21665553333335,55.0,84.0
1017,240.90047833333335,241.16150746666668,61.0,79.0
1018,240.67989033333336,241.1633457,57.0,84.0
1019,240.45930233333334,241.38944840000002,49.0,74.0
1020,240.23871433333335,241.39128663333335,42.0,83.0
1021,241.12106633333335,241.4096689666667,66.0,89.0
1022,241.34165433333334,241.58797760000002,61.0,84.0
1023,241.78283033333335,241.94091840000002,61.0,77.0
1024,241.56224233333336,241.94827133333334,57.0,82.0
1025,242.44459433333336,242.7846675,55.0,83.0
1026,242.66518233333335,242.91334383333336,59.0,81.0
1027,242.22400633333336,243.20562293333336,47.0,74.0
1028,242.00341833333334,243.26628463333336,40.0,86.0
1029,242.88577033333334,243.3140787,64.0,87.0
1030,243.10635833333336,243.36738746666668,59.0,83.0
1031,243.32694633333335,243.62106366666669,55.0,84.0
1032,243.54753433333335,243.9813574,64.0,86.0
1033,244.20929833333335,244.70194486666668,55.0,89.0
1034,244.42988633333334,244.71113603333336,58.0,82.0
1035,244.65047433333336,244.90415053333336,62.0,84.0
1036,244.87106233333336,245.36738533333335,67.0,85.0
1037,243.76812233333334,245.53282633333336,43.0,83.0
1038,243.98871033333336,245.53834103333335,50.0,75.0
1039,245.09165033333335,245.54201750000001,62.0,78.0
1040,245.31223833333334,245.54385573333334,55.0,86.0
1041,245.97400233333335,246.54385466666668,54.0,71.0
1042,246.41517833333336,246.88392783333336,62.0,84.0
1043,246.85635433333334,247.0015747666667,57.0,71.0
1044,247.29753033333336,247.78098570000003,66.0,74.0
1045,247.29753033333336,248.02730896666668,57.0,67.0
1046,247.73870633333334,248.04201483333335,62.0,75.0
1047,248.17988233333335,249.07326373333336,57.0,73.0
1048,248.62105833333337,249.08980783333334,62.0,77.0
1049,245.53282633333336,249.1137048666667,38.0,87.0
1050,248.17988233333335,249.12105780000002,66.0,73.0
1051,249.9353951666667,250.63576206666667,54.0,67.0
1052,249.10267546666668,250.6927473,47.0,75.0
1053,249.47216036666669,250.99605580000002,59.0,82.0
1054,250.38576233333336,251.7331873666667,62.0,81.0
1055,251.29568783333335,252.1762016,52.0,73.0
1056,250.82693833333335,252.27914266666667,45.0,84.0
1057,251.70561386666668,252.76443626666668,57.0,79.0
1058,252.58428940000002,253.64495003333334,40.0,87.0
1059,252.9978919,253.64495003333334,47.0,76.0
1060,253.46112670000002,253.81039103333336,52.0,90.0
1061,253.88392036666667,254.29200816666668,55.0,80.0
1062,254.3195816666667,254.5861255,52.0,78.0
1063,254.31774343333336,254.74789003333336,57.0,73.0
1064,255.28465416666668,255.99421223333334,57.0,81.0
1065,254.79752233333335,256.07509450000003,52.0,71.0
1066,255.79568303333335,256.22950610000004,61.0,89.0
1067,256.22215316666666,256.4592852666667,49.0,44.0
1068,256.48502053333334,256.6743585666667,61.0,62.0
1069,256.3655353666667,256.72766733333333,57.0,68.0
1070,256.33244716666667,257.53281353333335,52.0,65.0
1071,254.32509636666668,257.6008281666667,45.0,84.0
1072,256.5934763,257.75707800000004,64.0,75.0
1073,256.7147997,257.81957793333333,69.0,76.0
1074,257.88575433333335,258.3894302666667,66.0,84.0
1075,258.32693033333334,258.87472386666667,57.0,79.0
1076,258.7681063333334,259.2166352666667,62.0,84.0
1077,257.88575433333335,259.5438408,50.0,81.0
1078,259.20928233333336,259.6908994666667,57.0,84.0
1079,259.65045833333335,260.10634020000003,61.0,79.0
1080,259.65045833333335,260.10634020000003,64.0,81.0
1081,260.09163433333333,260.58244263333336,57.0,84.0
1082,260.5328103333334,260.9831775,66.0,85.0
1083,259.65045833333335,261.1375891,45.0,71.0
1084,260.97398633333336,261.20008903333337,57.0,86.0
1085,261.41516233333334,261.9850146666667,62.0,79.0
1086,262.29751433333337,262.52729350000004,59.0,79.0
1087,261.8563383333333,262.79383733333333,54.0,61.0
1088,261.41516233333334,262.95744010000004,47.0,80.0
1089,262.73869033333335,262.9978812333334,59.0,78.0
1090,262.29751433333337,263.02729296666666,66.0,82.0
1091,263.17986633333334,263.7736157,57.0,81.0
1092,263.6210423333334,264.2515563666667,52.0,78.0
1093,264.06221833333336,264.6614824,57.0,83.0
1094,264.06221833333336,264.72765880000003,64.0,79.0
1095,263.17986633333334,264.78648226666667,45.0,83.0
1096,264.50339433333335,264.83243810000005,52.0,78.0
1097,264.94457033333333,265.4427315666667,59.0,76.0
1098,264.94457033333333,265.6247166666667,55.0,76.0
1099,265.3857463333334,266.05853973333336,50.0,69.0
1100,265.82692233333336,266.19640723333333,55.0,80.0
1101,265.82692233333336,266.3085394666667,62.0,79.0
1102,264.94457033333333,266.5732450666667,43.0,83.0
1103,266.26809833333334,266.7019214,50.0,79.0
1104,266.7092743333333,267.5107440666667,54.0,77.0
1105,266.7092743333333,268.0236111666667,57.0,82.0
1106,266.7092743333333,268.0585376,42.0,84.0
1107,267.15045033333337,268.06589053333335,49.0,73.0
1108,268.03280233333334,268.1669933666667,54.0,88.0
1109,267.59162633333335,268.1835374666667,66.0,86.0
1110,268.4739783333334,268.70008103333333,59.0,68.0
1111,268.4739783333334,269.3728744333334,64.0,74.0
1112,268.91515433333336,269.3857420666667,59.0,72.0
1113,269.35633033333335,269.8986091666667,67.0,82.0
1114,268.4739783333334,269.99235906666667,52.0,79.0
1115,269.79750633333333,270.12287363333337,59.0,77.0
1116,270.01809433333335,270.6835348,64.0,76.0
1117,270.67985833333336,271.01993150000004,57.0,79.0
1118,270.9004463333334,271.1908872,64.0,78.0
1119,271.5622103333333,271.8820629333334,57.0,76.0
1120,270.2386823333334,271.8912541,45.0,79.0
1121,270.45927033333334,271.9225040666667,52.0,73.0
1122,272.3195624666667,272.61184156666667,57.0,69.0
1123,272.4151506,272.6449297666667,61.0,67.0
1124,272.51441520000003,272.7809590333334,64.0,67.0
1125,271.12103433333334,272.86919423333336,69.0,83.0
1126,272.6210327333334,272.86919423333336,69.0,71.0
1127,272.1725038,274.4831631,52.0,78.0
1128,271.985004,274.6357364666667,45.0,83.0
1129,276.11551430000003,276.34161700000004,52.0,78.0
1130,276.3452934666667,276.4941903666667,54.0,67.0
1131,276.58610203333336,276.73867540000003,57.0,69.0
1132,276.86735173333335,277.08793973333337,62.0,72.0
1133,277.1596308333334,277.30852773333334,64.0,73.0
1134,277.4941893,277.6688214666667,66.0,71.0
1135,277.93720353333333,278.1044827666667,71.0,69.0
1136,278.40595303333333,278.57507050000004,69.0,58.0
1137,279.18536396666667,279.30668736666667,69.0,60.0
1138,279.21109923333336,279.3342608666667,74.0,72.0
1139,279.29933443333334,279.4390401666667,78.0,67.0
1140,275.88573513333336,279.81220153333334,45.0,61.0
1141,275.5401472666667,279.8857308666667,38.0,82.0
