,start,end,pitch,velocity
0,18.777740691666665,19.034150441666668,58.0,127.0
1,19.034150441666668,19.28842344375,61.0,92.0
2,19.290560191666668,19.546969941666667,61.0,127.0
3,19.546969941666667,19.85252489375,53.0,92.0
4,19.803379691666667,20.059789441666666,54.0,100.0
5,20.059789441666666,20.316199191666666,58.0,122.0
6,20.316199191666666,20.5768824375,61.0,107.0
7,20.572608941666665,20.829018691666665,58.0,112.0
8,20.829018691666665,21.085428441666668,60.0,102.0
9,21.085428441666668,21.341838191666668,61.0,112.0
10,21.341838191666668,21.598247941666667,63.0,112.0
11,21.598247941666667,22.880296691666665,61.0,99.0
12,22.880296691666665,23.136706441666668,58.0,112.0
13,23.136706441666668,23.39097944375,61.0,107.0
14,23.393116191666667,23.64738919375,61.0,112.0
15,23.649525941666667,23.905935691666667,61.0,117.0
16,23.905935691666667,24.162345441666666,63.0,112.0
17,24.162345441666666,24.418755191666666,65.0,93.0
18,24.418755191666666,24.67302819375,63.0,117.0
19,24.675164941666665,25.187984441666668,63.0,112.0
20,25.187984441666668,26.113196289583332,61.0,100.0
21,25.444394191666667,26.113196289583332,61.0,97.0
22,26.470033191666666,26.809776110416667,61.0,96.0
23,27.239262441666668,27.495672191666667,68.0,127.0
24,27.495672191666667,27.752081941666667,66.0,117.0
25,27.752081941666667,28.008491691666666,68.0,107.0
26,28.008491691666666,28.521311191666666,65.0,107.0
27,28.521311191666666,29.290540441666668,63.0,97.0
28,28.521311191666666,29.290540441666668,63.0,107.0
29,29.290540441666668,29.546950191666667,65.0,100.0
30,29.546950191666667,29.803359941666667,63.0,100.0
31,29.803359941666667,30.059769691666666,65.0,97.0
32,30.059769691666666,30.316179441666666,63.0,112.0
33,30.316179441666666,30.578999435416666,65.0,102.0
34,30.578999435416666,30.835409185416665,58.0,102.0
35,30.828998941666665,31.33968169375,61.0,117.0
36,31.341818441666668,31.59609144375,61.0,117.0
37,31.598228191666667,31.854637941666667,61.0,107.0
38,31.854637941666667,32.11104769166667,58.0,100.0
39,32.11104769166667,32.62386719166667,61.0,122.0
40,32.62386719166667,33.13668669166667,63.0,122.0
41,33.13668669166667,33.393096441666664,64.0,127.0
42,33.393096441666664,33.64950619166667,63.0,99.0
43,33.64950619166667,33.90377919375,61.0,112.0
44,33.90591594166666,34.41873544166667,61.0,127.0
45,34.41873544166667,35.004204370833335,63.0,122.0
46,34.675145191666665,35.004204370833335,63.0,97.0
47,35.44437444166667,35.69864744375,61.0,107.0
48,35.70078419166666,35.95719394166667,61.0,102.0
49,35.95719394166667,36.21360369166667,53.0,97.0
50,36.21360369166667,36.470013441666666,54.0,117.0
51,36.470013441666666,36.72642319166667,58.0,117.0
52,36.72642319166667,36.982832941666665,61.0,122.0
53,36.982832941666665,37.23924269166667,58.0,112.0
54,37.23924269166667,37.495652441666664,60.0,93.0
55,37.495652441666664,37.75206219166667,61.0,117.0
56,37.75206219166667,39.290520691666664,63.0,117.0
57,39.290520691666664,39.54693044166667,58.0,122.0
58,39.54693044166667,40.05761319375,61.0,122.0
59,40.05974994166667,40.31615969166667,61.0,122.0
60,40.31615969166667,40.57043269375,63.0,100.0
61,40.572569441666666,41.08325219375,63.0,122.0
62,41.085388941666665,41.34179869166667,63.0,127.0
63,41.34179869166667,41.598208441666664,68.0,102.0
64,41.598208441666664,41.85248144375,66.0,127.0
65,41.85461819166667,42.11102794166667,66.0,97.0
66,42.11102794166667,42.62384744166667,63.0,112.0
67,42.62384744166667,43.64948644166667,65.0,112.0
68,43.64948644166667,43.90589619166666,68.0,117.0
69,43.90589619166666,44.162305941666666,66.0,112.0
70,44.162305941666666,44.41871569166667,68.0,107.0
71,44.41871569166667,44.93153519166667,65.0,102.0
72,44.93153519166667,45.700764441666664,63.0,112.0
73,45.700764441666664,45.95717419166667,65.0,102.0
74,45.95717419166667,46.21358394166667,63.0,122.0
75,46.21358394166667,46.469993691666666,65.0,95.0
76,46.469993691666666,46.982813191666665,63.0,122.0
77,46.982813191666665,47.495632691666664,61.0,102.0
78,46.982813191666665,47.495632691666664,61.0,112.0
79,47.495632691666664,47.75204244166667,65.0,127.0
80,47.75204244166667,48.00845219166666,63.0,97.0
81,48.00845219166666,48.264861941666666,61.0,107.0
82,48.264861941666666,48.52127169166667,58.0,112.0
83,48.52127169166667,48.777681441666665,61.0,122.0
84,48.777681441666665,49.03195444375,63.0,122.0
85,49.03409119166667,49.290500941666664,63.0,122.0
86,49.290500941666664,49.80332044166666,58.0,117.0
87,49.80332044166666,51.42938560625,61.0,122.0
88,53.64946669166667,54.41869594166667,68.0,127.0
89,54.41869594166667,55.700744691666664,66.0,112.0
90,55.700744691666664,56.469973941666666,65.0,122.0
91,56.469973941666666,57.75202269166667,63.0,112.0
92,57.75202269166667,58.264842191666666,65.0,112.0
93,58.264842191666666,58.640909825,56.0,97.0
94,58.52125194166667,58.640909825,56.0,117.0
95,58.777661691666665,58.843900877083335,56.0,97.0
96,59.03407144166667,59.54689094166667,61.0,122.0
97,59.54689094166667,60.05971044166667,58.0,127.0
98,60.05971044166667,61.85457869166667,56.0,122.0
99,61.85457869166667,62.62380794166667,68.0,122.0
100,62.62380794166667,63.90585669166666,66.0,122.0
101,63.90585669166666,64.67508594166667,65.0,117.0
102,64.67508594166667,65.95713469166667,61.0,122.0
103,65.95713469166667,66.21354444166667,66.0,127.0
104,66.21354444166667,66.46995419166667,61.0,117.0
105,66.46995419166667,66.72422719375,58.0,102.0
106,66.72636394166666,66.98277369166667,58.0,117.0
107,66.98277369166667,67.23918344166667,61.0,127.0
108,67.23918344166667,67.49559319166667,63.0,117.0
109,67.49559319166667,69.4998627375,58.0,112.0
110,90.57247069166667,90.82888044166667,58.0,127.0
111,90.82888044166667,91.08315344374999,61.0,92.0
112,91.08529019166667,91.34169994166666,61.0,127.0
113,91.34169994166666,91.59810969166666,56.0,82.0
114,91.59810969166666,91.85451944166667,54.0,100.0
115,91.85451944166667,92.11092919166667,58.0,122.0
116,92.11092919166667,92.3716124375,61.0,107.0
117,92.36733894166666,92.62374869166666,58.0,112.0
118,92.62374869166666,92.88015844166667,60.0,102.0
119,92.88015844166667,93.13656819166667,61.0,112.0
120,93.13656819166667,93.39297794166667,63.0,112.0
121,93.39297794166667,94.67502669166667,61.0,99.0
122,94.67502669166667,94.93143644166666,58.0,112.0
123,94.93143644166666,95.18570944375,61.0,107.0
124,95.18784619166667,95.44211919375,61.0,112.0
125,95.44425594166667,95.70066569166667,61.0,117.0
126,95.70066569166667,95.95707544166666,63.0,112.0
127,95.95707544166666,96.21348519166666,65.0,93.0
128,96.21348519166666,96.46775819375,63.0,117.0
129,96.21348519166666,96.49339916875,68.0,97.0
130,96.46989494166667,96.98271444166667,63.0,112.0
131,96.98271444166667,97.90792628958333,61.0,100.0
132,97.23912419166666,97.90792628958333,61.0,97.0
133,99.03399244166667,99.29040219166667,68.0,127.0
134,99.29040219166667,99.54681194166666,66.0,117.0
135,99.54681194166666,99.80322169166666,68.0,107.0
136,99.80322169166666,100.31604119166667,65.0,107.0
137,100.31604119166667,101.08527044166667,63.0,107.0
138,101.08527044166667,101.34168019166667,65.0,100.0
139,101.34168019166667,101.59808994166667,63.0,100.0
140,101.59808994166667,101.85236294375,65.0,97.0
141,101.85449969166666,102.12159318125,65.0,112.0
142,102.12159318125,102.35663545208334,63.0,102.0
143,102.3587722,102.62372894166667,63.0,107.0
144,102.62372894166667,103.13441169375,61.0,117.0
145,103.13654844166666,103.39082144375,61.0,117.0
146,103.39295819166666,103.64936794166667,61.0,107.0
147,103.64936794166667,103.90577769166667,58.0,100.0
148,103.90577769166667,104.16218744166666,61.0,122.0
149,104.16218744166666,104.42928093125,58.0,107.0
150,104.42928093125,104.68141718541666,61.0,96.0
151,104.68141718541666,104.93141669166667,63.0,122.0
152,104.93141669166667,105.18782644166667,64.0,127.0
153,105.18782644166667,105.44423619166666,63.0,99.0
154,105.44423619166666,105.69850919375,61.0,112.0
155,105.70064594166666,106.21346544166667,61.0,127.0
156,106.21346544166667,107.23910444166667,63.0,122.0
157,107.23910444166667,107.49337744375,61.0,107.0
158,107.49551419166667,107.75192394166666,61.0,102.0
159,107.75192394166666,108.00833369166666,53.0,97.0
160,108.00833369166666,108.26474344166667,54.0,117.0
161,108.26474344166667,108.52115319166667,58.0,117.0
162,108.52115319166667,108.77756294166667,61.0,122.0
163,108.77756294166667,109.03397269166666,58.0,112.0
164,109.03397269166666,109.29038244166667,60.0,93.0
165,109.29038244166667,109.54679219166667,61.0,117.0
166,109.54679219166667,109.80320194166667,63.0,117.0
167,109.80320194166667,111.08525069166667,61.0,122.0
168,111.08525069166667,111.34166044166666,58.0,122.0
169,111.34166044166666,111.85234319375,61.0,122.0
170,111.85447994166667,112.11088969166667,61.0,122.0
171,112.11088969166667,112.36516269375,63.0,100.0
172,112.36729944166666,112.62370919166666,63.0,122.0
173,112.62370919166666,113.00405032083333,61.0,86.0
174,112.88011894166667,113.13652869166667,63.0,127.0
175,113.13652869166667,113.39293844166667,68.0,102.0
176,113.39293844166667,113.64721144375,66.0,127.0
177,113.64934819166666,113.90362119375,63.0,99.0
178,113.64934819166666,113.90575794166666,66.0,97.0
179,113.90575794166666,114.41857744166667,63.0,112.0
180,114.41857744166667,115.44421644166667,65.0,112.0
181,115.44421644166667,115.70062619166667,68.0,117.0
182,115.70062619166667,115.95703594166666,66.0,112.0
183,115.95703594166666,116.21344569166666,68.0,107.0
184,116.21344569166666,116.72626519166667,65.0,102.0
185,116.72626519166667,117.49549444166666,63.0,112.0
186,117.49549444166666,117.75190419166667,65.0,102.0
187,117.75190419166667,118.00831394166667,63.0,122.0
188,118.00831394166667,118.26472369166666,65.0,95.0
189,118.26472369166666,118.77754319166667,63.0,122.0
190,118.77754319166667,119.29036269166667,61.0,102.0
191,119.29036269166667,119.54677244166666,65.0,127.0
192,119.54677244166666,119.80318219166666,63.0,97.0
193,119.80318219166666,120.09164316041667,61.0,107.0
194,120.09164316041667,120.31600169166667,58.0,97.0
195,120.31600169166667,120.57241144166666,61.0,122.0
196,120.57241144166666,120.82668444375,63.0,122.0
197,120.82882119166666,121.08523094166667,63.0,122.0
198,121.08523094166667,121.59805044166667,58.0,117.0
199,121.59805044166667,125.44419669166666,61.0,122.0
200,125.44419669166666,126.21342594166667,68.0,127.0
201,126.21342594166667,127.49547469166667,66.0,112.0
202,127.49547469166667,128.26470394166665,65.0,122.0
203,128.26470394166665,129.54675269166665,63.0,112.0
204,129.54675269166665,130.05957219166666,65.0,112.0
205,130.05957219166666,130.435639825,56.0,97.0
206,130.31598194166668,130.435639825,56.0,117.0
207,130.57239169166667,130.63863087708333,56.0,97.0
208,130.82880144166666,131.34162094166666,61.0,122.0
209,131.34162094166666,131.85444044166667,58.0,127.0
210,131.85444044166667,133.64930869166668,56.0,122.0
211,133.64930869166668,134.41853794166667,68.0,122.0
212,134.41853794166667,135.70058669166667,66.0,122.0
213,135.70058669166667,136.46981594166667,65.0,117.0
214,136.46981594166667,137.75186469166667,61.0,122.0
215,137.75186469166667,138.00827444166666,66.0,127.0
216,138.00827444166666,138.26468419166667,61.0,117.0
217,138.26468419166667,138.51895719375,58.0,102.0
218,138.52109394166666,138.77750369166665,58.0,117.0
219,138.77750369166665,139.03391344166667,61.0,127.0
220,139.03391344166667,139.29032319166666,63.0,117.0
221,139.29032319166666,139.54673294166668,58.0,112.0
222,139.54673294166668,143.90569869166666,61.0,122.0
223,143.90569869166666,144.67492794166665,68.0,127.0
224,144.67492794166665,145.95697669166665,66.0,112.0
225,145.95697669166665,146.72620594166668,65.0,122.0
226,146.72620594166668,148.00825469166668,63.0,112.0
227,148.00825469166668,148.52107419166666,65.0,112.0
228,148.52107419166666,148.897141825,56.0,97.0
229,148.77748394166667,148.897141825,56.0,117.0
230,149.03389369166666,149.10013287708333,56.0,97.0
231,149.29030344166668,149.80312294166666,61.0,122.0
232,149.80312294166666,150.31594244166666,58.0,127.0
233,150.31594244166666,152.11081069166667,56.0,122.0
234,152.11081069166667,152.88003994166667,68.0,122.0
235,152.88003994166667,154.16208869166667,66.0,122.0
236,154.16208869166667,154.93131794166666,65.0,117.0
237,154.93131794166666,156.21336669166666,61.0,122.0
238,156.21336669166666,156.46977644166665,66.0,127.0
239,156.46977644166665,156.72618619166667,61.0,117.0
240,156.72618619166667,157.11721106041668,58.0,90.0
241,156.98259594166666,157.11721106041668,58.0,117.0
242,157.23900569166668,157.49541544166667,61.0,127.0
243,157.49541544166667,157.75182519166665,63.0,117.0
244,157.75182519166665,158.00823494166667,58.0,112.0
245,158.00823494166667,159.47831750833333,61.0,122.0
246,174.16204919166665,174.74751812083332,61.0,117.0
247,174.67486869166666,174.93127844166668,66.0,112.0
248,174.93127844166668,175.18768819166667,54.0,96.0
249,174.93127844166668,175.18768819166667,61.0,117.0
250,175.18768819166667,175.48896964791666,58.0,102.0
251,175.44409794166666,175.48896964791666,58.0,102.0
252,175.70050769166667,175.95691744166666,61.0,127.0
253,175.95691744166666,176.21332719166668,63.0,100.0
254,176.21332719166668,176.46973694166667,58.0,102.0
255,176.46973694166667,177.65563203541666,61.0,127.0
