,start,end,pitch,velocity
0,25.5764578,25.732340075,62.0,61.0
1,25.752928299999997,25.855869424999998,64.0,69.0
2,25.929398799999998,26.164692799999997,66.0,87.0
3,26.2823398,26.3514574125,66.0,76.0
4,26.4588103,26.5926337625,66.0,93.0
5,26.811751299999997,27.255868725,71.0,112.0
6,27.3411628,27.654397937499997,69.0,90.0
7,27.694103799999997,27.819103737499997,66.0,70.0
8,27.870574299999998,28.1720447375,69.0,98.0
9,28.3999858,28.7691032625,66.0,85.0
10,28.752926799999997,29.02939725,64.0,77.0
11,29.1058678,29.2220442125,62.0,66.0
12,29.2823383,29.544102875,62.0,73.0
13,29.635279299999997,29.938220325,64.0,77.0
14,29.9882203,30.885278675,66.0,104.0
15,31.2235138,31.4043960625,62.0,77.0
16,31.3999843,31.526454825,64.0,71.0
17,31.576454799999997,31.8367487875,66.0,93.0
18,31.929395799999998,31.999983999999998,66.0,79.0
19,32.105866299999995,32.1999839,66.0,85.0
20,32.4588073,32.926454125,71.0,108.0
21,32.9882188,33.2779245375,69.0,108.0
22,33.3411598,33.4249832875,66.0,72.0
23,33.5176303,33.8308654375,69.0,117.0
24,33.8705713,34.2896887375,66.0,100.0
25,34.3999828,34.7102767625,64.0,90.0
26,34.7529238,34.858806099999995,62.0,73.0
27,34.9293943,35.091158924999995,62.0,72.0
28,35.2823353,35.5764528,69.0,112.0
29,35.6352763,36.1102760625,66.0,93.0
30,36.8705698,37.0338050125,62.0,81.0
31,37.0470403,37.1779225875,64.0,67.0
32,37.2235108,37.4720400875,66.0,93.0
33,37.5764518,37.645569412499995,66.0,86.0
34,37.7529223,37.87645165,66.0,90.0
35,38.105863299999996,38.549980725,71.0,108.0
36,38.6352748,38.9661569875,69.0,104.0
37,38.9882158,39.195568637499996,66.0,61.0
38,39.1646863,39.501450837499995,69.0,87.0
39,39.5176273,39.955862374999995,66.0,87.0
40,40.047038799999996,40.386744512499995,64.0,83.0
41,40.3999798,40.4985091625,62.0,70.0
42,40.5764503,40.802920775,62.0,72.0
43,40.9293913,41.202920575,64.0,74.0
44,41.2823323,42.1367436375,66.0,85.0
45,42.5176258,42.680861012499996,62.0,87.0
46,42.6940963,42.9220373625,64.0,70.0
47,42.8705668,43.132331375,66.0,90.0
48,43.2235078,43.298507762499995,66.0,75.0
49,43.3999783,43.599978199999995,66.0,81.0
50,43.752919299999995,44.15880145,71.0,112.0
51,44.2823308,44.5411542,73.0,104.0
52,44.6352718,44.769095262499995,71.0,77.0
53,44.8117423,45.138212724999995,69.0,111.0
54,45.1646833,45.4602713875,69.0,98.0
55,45.694094799999995,45.9632123125,71.0,87.0
56,46.047035799999996,46.1573298625,74.0,74.0
57,46.2235063,46.472035587499995,76.0,86.0
58,46.5764473,46.813211887499996,74.0,86.0
59,46.9293883,47.658799699999996,74.0,93.0
60,47.811740799999995,47.9749760125,71.0,90.0
61,47.988211299999996,48.1955641375,73.0,83.0
62,48.1646818,48.266152337499996,74.0,93.0
63,48.3411523,48.41762285,76.0,114.0
64,48.5176228,48.8867402625,78.0,108.0
65,48.8705638,48.961740225,71.0,81.0
66,49.0470343,49.161740124999994,71.0,76.0
67,49.3999753,49.5985046125,78.0,95.0
68,49.752916299999995,50.177916087499995,76.0,114.0
69,50.6352688,50.8161510625,76.0,111.0
70,50.8117393,51.0102686125,74.0,72.0
71,50.9882098,51.182327349999994,73.0,74.0
72,51.1646803,51.2779155375,74.0,83.0
73,51.3411508,51.5367389375,76.0,108.0
74,51.694091799999995,51.785268224999996,69.0,93.0
75,51.870562299999996,52.023503399999996,69.0,95.0
76,52.2235033,52.3837973375,76.0,95.0
77,52.5764443,53.011738199999996,74.0,90.0
78,53.635267299999995,53.7161496125,71.0,79.0
79,53.811737799999996,53.914678925,71.0,79.0
80,53.9882083,54.0705612,73.0,76.0
81,54.1646788,54.4823257,74.0,100.0
82,54.5176198,54.6073256375,67.0,65.0
83,54.6940903,54.899972549999994,67.0,83.0
84,55.0470313,55.3764429,74.0,90.0
85,55.399972299999995,55.5043840125,74.0,79.0
86,55.576442799999995,55.8455603125,73.0,108.0
87,55.9293838,56.035266099999994,71.0,83.0
88,56.1058543,56.370560049999995,71.0,85.0
89,56.4587953,56.7132069375,74.0,100.0
90,56.8117363,58.461735475,73.0,112.0
91,59.105852799999994,59.467617325,71.0,90.0
92,59.458793799999995,59.724970137499994,73.0,74.0
93,59.811734799999996,59.974970012499995,74.0,86.0
94,60.1646758,60.247028699999994,76.0,83.0
95,60.3411463,60.5926167625,78.0,104.0
96,60.6940873,61.085263575,74.0,87.0
97,61.223498799999994,61.461733974999994,73.0,114.0
98,61.576439799999996,61.667616224999996,71.0,87.0
99,61.752910299999996,61.973498424999995,71.0,95.0
100,62.1058513,62.416145262499995,69.0,95.0
101,62.6352628,62.938203824999995,71.0,108.0
102,62.988203799999994,63.080850812499996,69.0,86.0
103,63.164674299999994,63.392615362499996,69.0,100.0
104,63.517615299999996,63.7058505,67.0,93.0
105,63.8705563,64.2808502125,66.0,85.0
106,64.7529088,65.07643805,71.0,98.0
107,65.1058498,65.41026141249999,73.0,83.0
108,65.4587908,65.67643774999999,74.0,87.0
109,65.8117318,65.8896729375,76.0,83.0
110,65.9882023,66.23967276249999,78.0,98.0
111,66.3411433,66.69996665,74.0,85.0
112,66.8705548,67.102907625,73.0,100.0
113,67.2234958,67.308789875,71.0,100.0
114,67.3999663,67.567613275,71.0,98.0
115,67.7529073,68.0867306625,69.0,104.0
116,68.2823188,68.585259825,71.0,90.0
117,68.6352598,68.761730325,74.0,69.0
118,68.8117303,69.0367301875,76.0,86.0
119,69.1646713,69.3529065,74.0,75.0
120,69.5176123,70.1293767,74.0,86.0
121,70.39996479999999,70.7279058125,71.0,108.0
122,70.7529058,71.038199775,73.0,95.0
123,71.1058468,71.2514349625,74.0,108.0
124,71.4587878,71.5455524625,76.0,81.0
125,71.6352583,71.832317025,78.0,98.0
126,71.98819929999999,72.3396697125,74.0,95.0
127,72.5176108,72.69114012499999,73.0,112.0
128,72.8705518,72.97055175,71.0,90.0
129,73.0470223,73.2367280875,71.0,95.0
130,73.3999633,73.79408074999999,69.0,95.0
131,73.92937479999999,74.2043746625,71.0,112.0
132,74.28231579999999,74.3764334,69.0,81.0
133,74.4587863,74.6220215125,69.0,95.0
134,74.8117273,74.9720213375,67.0,87.0
135,75.1646683,75.6220210125,66.0,77.0
136,76.0470208,76.2896677375,71.0,108.0
137,76.3999618,76.638196975,73.0,93.0
138,76.7529028,76.9058439,74.0,95.0
139,77.1058438,77.179373175,76.0,79.0
140,77.2823143,77.473490675,78.0,98.0
141,77.6352553,77.9690786625,74.0,77.0
142,78.16466679999999,78.3999608,73.0,98.0
143,78.5176078,78.6279018625,81.0,98.0
144,78.6940783,78.849960575,81.0,81.0
145,79.0470193,79.520548475,69.0,59.0
146,79.39996029999999,80.9308418875,71.0,90.0
147,80.9881948,81.397018125,73.0,87.0
148,81.34113579999999,81.49113572499999,66.0,66.0
149,81.5176063,81.667606225,74.0,74.0
150,81.8705473,82.0896648375,73.0,93.0
151,82.3999588,85.2514279625,71.0,112.0
152,104.63524179999999,104.791124075,62.0,61.0
153,104.8117123,104.914653425,64.0,69.0
154,104.98818279999999,105.2234768,66.0,87.0
155,105.34112379999999,105.4102414125,66.0,76.0
156,105.5175943,105.65141776249999,66.0,93.0
157,105.8705353,106.314652725,71.0,112.0
158,106.3999468,106.7131819375,69.0,90.0
159,106.7528878,106.87788773749999,66.0,70.0
160,106.92935829999999,107.23082873749999,69.0,98.0
161,107.4587698,107.8278872625,66.0,85.0
162,107.8117108,108.08818124999999,64.0,77.0
163,108.1646518,108.2808282125,62.0,66.0
164,108.3411223,108.602886875,62.0,73.0
165,108.6940633,108.99700432499999,64.0,77.0
166,109.0470043,109.944062675,66.0,104.0
167,110.2822978,110.4631800625,62.0,77.0
168,110.45876829999999,110.58523882499999,64.0,71.0
169,110.6352388,110.89553278749999,66.0,93.0
170,110.9881798,111.058768,66.0,79.0
171,111.16465029999999,111.2587679,66.0,85.0
172,111.51759129999999,111.985238125,71.0,108.0
173,112.0470028,112.3367085375,69.0,108.0
174,112.39994379999999,112.4837672875,66.0,72.0
175,112.5764143,112.8896494375,69.0,117.0
176,112.9293553,113.34847273749999,66.0,100.0
177,113.45876679999999,113.76906076249999,64.0,90.0
178,113.8117078,113.9175901,62.0,73.0
179,113.9881783,114.14994292499999,62.0,72.0
180,114.34111929999999,114.6352368,69.0,112.0
181,114.69406029999999,115.1690600625,66.0,93.0
182,115.9293538,116.0925890125,62.0,81.0
183,116.1058243,116.2367065875,64.0,67.0
184,116.28229479999999,116.5308240875,66.0,93.0
185,116.63523579999999,116.7043534125,66.0,86.0
186,116.8117063,116.93523565,66.0,90.0
187,117.1646473,117.608764725,71.0,108.0
188,117.6940588,118.02494098749999,69.0,104.0
189,118.0469998,118.25435263749999,66.0,61.0
190,118.22347029999999,118.56023483749999,69.0,87.0
191,118.57641129999999,119.014646375,66.0,87.0
192,119.1058228,119.44552851249999,64.0,83.0
193,119.4587638,119.55729316249999,62.0,70.0
194,119.6352343,119.86170477499999,62.0,72.0
195,119.9881753,120.261704575,64.0,74.0
196,120.3411163,121.19552763749999,66.0,85.0
197,121.5764098,121.73964501249999,62.0,87.0
198,121.7528803,121.9808213625,64.0,70.0
199,121.9293508,122.191115375,66.0,90.0
200,122.2822918,122.3572917625,66.0,75.0
201,122.45876229999999,122.6587622,66.0,81.0
202,122.81170329999999,123.21758545,71.0,112.0
203,123.3411148,123.5999382,73.0,104.0
204,123.6940558,123.82787926249999,71.0,77.0
205,123.8705263,124.19699672499999,69.0,111.0
206,124.2234673,124.51905538749999,69.0,98.0
207,124.75287879999999,125.0219963125,71.0,87.0
208,125.10581979999999,125.2161138625,74.0,74.0
209,125.2822903,125.53081958749999,76.0,86.0
210,125.6352313,125.87199588749999,74.0,86.0
211,125.98817229999999,126.71758369999999,74.0,93.0
212,126.8705248,127.0337600125,71.0,90.0
213,127.04699529999999,127.25434813749999,73.0,83.0
214,127.2234658,127.32493633749999,74.0,93.0
215,127.3999363,127.47640684999999,76.0,114.0
216,127.5764068,127.9455242625,78.0,108.0
217,127.92934779999999,128.020524225,71.0,81.0
218,128.10581829999998,128.220524125,71.0,76.0
219,128.4587593,128.6572886125,78.0,95.0
220,128.81170029999998,129.2367000875,76.0,114.0
221,129.69405279999998,129.8749350625,76.0,111.0
222,129.8705233,130.0690526125,74.0,72.0
223,130.0469938,130.24111134999998,73.0,74.0
224,130.2234643,130.33669953749998,74.0,83.0
225,130.39993479999998,130.5955229375,76.0,108.0
226,130.7528758,130.84405222499998,69.0,93.0
227,130.9293463,131.08228739999998,69.0,95.0
228,131.2822873,131.4425813375,76.0,95.0
229,131.6352283,132.0705222,74.0,90.0
230,132.69405129999998,132.7749336125,71.0,79.0
231,132.8705218,132.973462925,71.0,79.0
232,133.0469923,133.1293452,73.0,76.0
233,133.2234628,133.5411097,74.0,100.0
234,133.57640379999998,133.6661096375,67.0,65.0
235,133.7528743,133.95875655,67.0,83.0
236,134.1058153,134.4352269,74.0,90.0
237,134.4587563,134.5631680125,74.0,79.0
238,134.6352268,134.9043443125,73.0,108.0
239,134.98816779999999,135.0940501,71.0,83.0
240,135.1646383,135.42934405,71.0,85.0
241,135.5175793,135.7719909375,74.0,100.0
242,135.87052029999998,137.520519475,73.0,112.0
243,138.16463679999998,138.526401325,71.0,90.0
244,138.5175778,138.78375413749998,73.0,74.0
245,138.87051879999999,139.0337540125,74.0,86.0
246,139.2234598,139.3058127,76.0,83.0
247,139.3999303,139.6514007625,78.0,104.0
248,139.75287129999998,140.144047575,74.0,87.0
249,140.2822828,140.520517975,73.0,114.0
250,140.6352238,140.726400225,71.0,87.0
251,140.8116943,141.032282425,71.0,95.0
252,141.1646353,141.47492926249998,69.0,95.0
253,141.6940468,141.996987825,71.0,108.0
254,142.04698779999998,142.1396348125,69.0,86.0
255,142.2234583,142.45139936249998,69.0,100.0
256,142.5763993,142.7646345,67.0,93.0
257,142.9293403,143.3396342125,66.0,85.0
258,143.8116928,144.13522204999998,71.0,98.0
259,144.1646338,144.46904541249998,73.0,83.0
260,144.5175748,144.73522175,74.0,87.0
261,144.8705158,144.9484569375,76.0,83.0
262,145.0469863,145.2984567625,78.0,98.0
263,145.3999273,145.75875065,74.0,85.0
264,145.92933879999998,146.161691625,73.0,100.0
265,146.2822798,146.367573875,71.0,100.0
266,146.4587503,146.626397275,71.0,98.0
267,146.8116913,147.1455146625,69.0,104.0
268,147.3411028,147.64404382499998,71.0,90.0
269,147.6940438,147.820514325,74.0,69.0
270,147.8705143,148.0955141875,76.0,86.0
271,148.22345529999998,148.4116905,74.0,75.0
272,148.5763963,149.1881607,74.0,86.0
273,149.4587488,149.7866898125,71.0,108.0
274,149.81168979999998,150.09698377499998,73.0,95.0
275,150.1646308,150.3102189625,74.0,108.0
276,150.51757179999998,150.6043364625,76.0,81.0
277,150.6940423,150.89110102499998,78.0,98.0
278,151.0469833,151.3984537125,74.0,95.0
279,151.5763948,151.749924125,73.0,112.0
280,151.9293358,152.02933575,71.0,90.0
281,152.10580629999998,152.2955120875,71.0,95.0
282,152.4587473,152.85286474999998,69.0,95.0
283,152.98815879999998,153.2631586625,71.0,112.0
284,153.3410998,153.4352174,69.0,81.0
285,153.5175703,153.6808055125,69.0,95.0
286,153.8705113,154.0308053375,67.0,87.0
287,154.2234523,154.6808050125,66.0,77.0
288,155.1058048,155.3484517375,71.0,108.0
289,155.4587458,155.696980975,73.0,93.0
290,155.8116868,155.96462789999998,74.0,95.0
291,156.1646278,156.238157175,76.0,79.0
292,156.3410983,156.532274675,78.0,98.0
293,156.6940393,157.02786266249998,74.0,77.0
294,157.2234508,157.4587448,73.0,98.0
295,157.57639179999998,157.68668586249998,81.0,98.0
296,157.7528623,157.908744575,81.0,81.0
297,158.1058033,158.579332475,69.0,59.0
298,158.4587443,159.98962588749998,71.0,90.0
299,160.0469788,160.455802125,73.0,87.0
300,160.3999198,160.549919725,66.0,66.0
301,160.57639029999999,160.726390225,74.0,74.0
302,160.9293313,161.1058018,73.0,93.0
303,160.75286079999998,161.114625325,71.0,90.0
304,161.285213475,161.37197813749998,73.0,74.0
305,161.45874279999998,161.6219780125,74.0,86.0
306,161.8116838,161.8940367,76.0,83.0
307,161.9881543,162.2396247625,78.0,104.0
308,162.3410953,162.732271575,74.0,87.0
309,162.8705068,163.108741975,73.0,114.0
310,163.2234478,163.314624225,71.0,87.0
311,163.3999183,163.620506425,71.0,95.0
312,163.75285929999998,164.06315326249998,69.0,95.0
313,164.2822708,164.585211825,71.0,108.0
314,164.63521179999998,164.7278588125,69.0,86.0
315,164.8116823,165.03962336249998,69.0,100.0
316,165.1646233,165.3528585,67.0,93.0
317,165.5175643,165.92785821249998,66.0,85.0
318,166.3999168,166.72344604999998,71.0,98.0
319,166.7528578,167.0572694125,73.0,83.0
320,167.1057988,167.32344575,74.0,87.0
321,167.4587398,167.5366809375,76.0,83.0
322,167.63521029999998,167.8866807625,78.0,98.0
323,167.9881513,168.34697465,74.0,85.0
324,168.51756279999998,168.749915625,73.0,100.0
325,168.8705038,168.955797875,71.0,100.0
326,169.0469743,169.21462127499998,71.0,98.0
327,169.3999153,169.7337386625,69.0,104.0
328,169.92932679999998,170.23226782499998,71.0,90.0
329,170.2822678,170.408738325,74.0,69.0
330,170.4587383,170.68373818749998,76.0,86.0
331,170.81167929999998,170.9999145,74.0,75.0
332,171.1646203,171.7763847,74.0,86.0
333,172.0469728,172.37491381249998,71.0,108.0
334,172.39991379999998,172.68520777499998,73.0,95.0
335,172.7528548,172.89844296249998,74.0,108.0
336,173.10579579999998,173.19256046249998,76.0,81.0
337,173.2822663,173.47932502499998,78.0,98.0
338,173.6352073,173.98667771249998,74.0,95.0
339,174.1646188,174.338148125,73.0,112.0
340,174.5175598,174.61755975,71.0,90.0
341,174.69403029999998,174.88373608749998,71.0,95.0
342,175.0469713,175.44108875,69.0,95.0
343,175.5763828,175.8513826625,71.0,112.0
344,175.9293238,176.0234414,69.0,81.0
345,176.10579429999999,176.2690295125,69.0,95.0
346,176.4587353,176.6190293375,67.0,87.0
347,176.8116763,177.2690290125,66.0,77.0
348,177.69402879999998,177.9366757375,71.0,108.0
349,178.0469698,178.285204975,73.0,93.0
350,178.3999108,178.55285189999998,74.0,95.0
351,178.7528518,178.826381175,76.0,79.0
352,178.9293223,179.120498675,78.0,98.0
353,179.28226329999998,179.61608666249998,74.0,77.0
354,179.8116748,180.0469688,73.0,98.0
355,180.16461579999998,180.27490986249998,81.0,98.0
356,180.3410863,180.49696857499998,81.0,81.0
357,180.6940273,181.167556475,69.0,59.0
358,181.0469683,182.57784988749998,71.0,90.0
359,182.6352028,183.044026125,73.0,87.0
360,182.9881438,183.138143725,66.0,66.0
361,183.16461429999998,185.45873079999998,74.0,74.0
362,185.46755432499998,186.2469657,73.0,85.0
363,186.3219656625,188.2660823375,71.0,66.0
