,start,end,pitch,velocity
0,43.58858646041667,43.98001206041667,75.0,119.0
1,44.01751202291667,44.38715451041667,73.0,117.0
2,44.44608302291667,44.82822549791667,68.0,119.0
3,44.874654022916665,45.10679664791667,64.0,113.0
4,45.08893952291667,45.35858211041667,63.0,113.0
5,45.73179602291667,45.928224397916665,61.0,102.0
6,45.94608152291667,46.26215263541667,63.0,108.0
7,46.37465252291667,46.68536649791667,64.0,113.0
8,46.80322352291667,47.18179457291667,66.0,114.0
9,47.44608002291667,47.54607992291667,66.0,100.0
10,47.66036552291667,47.99250804791667,66.0,100.0
11,48.08893652291667,48.21572211041667,64.0,100.0
12,48.30322202291667,48.57286461041667,68.0,113.0
13,48.73179302291667,49.04429271041667,66.0,110.0
14,50.44607702291667,50.79786238541667,75.0,114.0
15,50.874648022916666,51.297861885416665,73.0,114.0
16,51.30321902291667,51.678218647916665,68.0,117.0
17,51.73179002291667,51.88000416041667,64.0,102.0
18,51.94607552291667,52.333575135416666,63.0,108.0
19,52.588932022916666,52.86214603541667,61.0,93.0
20,52.80321752291667,53.20321712291667,63.0,93.0
21,53.23178852291667,53.46928828541667,64.0,104.0
22,53.87464502291667,54.14785903541667,66.0,113.0
23,54.30321602291667,54.410358772916666,66.0,100.0
24,54.51750152291667,54.79428696041667,66.0,102.0
25,54.946072522916666,55.09250094791667,68.0,110.0
26,55.16035802291667,55.46392914791667,69.0,113.0
27,55.58892902291667,55.85321447291667,68.0,114.0
28,56.874642022916674,56.98892762291667,68.0,113.0
29,57.08892752291667,57.18357028541667,68.0,110.0
30,57.30321302291667,57.53892707291667,68.0,110.0
31,57.73178402291667,57.85142676041667,66.0,104.0
32,57.94606952291667,58.24249779791667,66.0,108.0
33,58.80321152291667,58.92106854791667,68.0,114.0
34,59.01749702291667,59.24428251041667,75.0,117.0
35,59.44606802291667,59.55321077291667,75.0,117.0
36,59.87463902291667,60.07642453541667,73.0,114.0
37,60.08892452291667,60.35142426041667,75.0,116.0
38,60.517495522916676,60.72463817291667,73.0,114.0
39,60.73178102291667,60.99963789791667,71.0,117.0
40,61.16035202291667,61.44428031041667,68.0,110.0
41,61.588923022916674,61.758565710416676,71.0,113.0
42,61.80320852291667,62.12999391041667,73.0,114.0
43,62.44606502291667,62.78713611041667,64.0,117.0
44,63.73177802291667,63.85499218541667,68.0,114.0
45,63.946063522916674,64.04070628541668,68.0,114.0
46,64.16034902291668,64.36927738541667,68.0,114.0
47,64.58892002291667,64.69963419791668,66.0,114.0
48,64.80320552291667,65.07999096041667,66.0,116.0
49,65.66034752291667,65.77106169791668,66.0,116.0
50,65.87463302291667,66.13891847291667,68.0,119.0
51,66.30320402291667,66.42641818541668,66.0,110.0
52,66.51748952291668,66.93713196041668,71.0,119.0
53,67.16034602291667,67.41927433541667,69.0,119.0
54,67.58891702291668,67.94784523541668,68.0,119.0
55,71.01748502291667,71.40855606041667,75.0,119.0
56,71.44605602291668,71.81569851041667,73.0,117.0
57,71.87462702291667,72.25676949791668,68.0,119.0
58,72.30319802291667,72.53534064791667,64.0,113.0
59,72.51748352291668,72.78712611041666,63.0,113.0
60,73.16034002291667,73.35676839791667,61.0,102.0
61,73.37462552291667,73.69069663541667,63.0,108.0
62,73.80319652291666,74.11391049791668,64.0,113.0
63,74.23176752291667,74.61033857291667,66.0,114.0
64,74.87462402291668,74.97462392291668,66.0,100.0
65,75.08890952291668,75.42105204791667,66.0,100.0
66,75.51748052291667,75.64426611041668,64.0,100.0
67,75.73176602291667,76.00140861041668,68.0,113.0
68,76.16033702291668,76.47283671041667,66.0,110.0
69,77.87462102291667,78.22640638541668,75.0,114.0
70,78.30319202291668,78.72640588541668,73.0,114.0
71,78.73176302291668,79.10676264791667,68.0,117.0
72,79.16033402291667,79.30854816041668,64.0,102.0
73,79.37461952291667,79.76211913541667,63.0,108.0
74,80.01747602291667,80.29069003541667,61.0,93.0
75,80.23176152291667,80.63176112291667,63.0,93.0
76,80.66033252291668,80.89783228541668,64.0,104.0
77,81.30318902291668,81.57640303541667,66.0,113.0
78,81.73176002291667,81.83890277291667,66.0,100.0
79,81.94604552291668,82.22283096041667,66.0,102.0
80,82.37461652291668,82.52104494791666,68.0,110.0
81,82.58890202291667,82.89247314791668,69.0,113.0
82,83.01747302291668,83.28175847291666,68.0,114.0
83,84.30318602291668,84.41747162291668,68.0,113.0
84,84.51747152291668,84.61211428541668,68.0,110.0
85,84.73175702291667,84.96747107291668,68.0,110.0
86,85.16032802291667,85.27997076041667,66.0,104.0
87,85.37461352291668,85.67104179791667,66.0,108.0
88,86.23175552291667,86.34961254791668,68.0,114.0
89,86.44604102291667,86.67282651041668,75.0,117.0
90,86.87461202291666,86.98175477291667,75.0,117.0
91,87.30318302291667,87.50496853541668,73.0,114.0
92,87.51746852291667,87.77996826041667,75.0,116.0
93,87.94603952291666,88.15318217291667,73.0,114.0
94,88.16032502291668,88.42818189791667,71.0,117.0
95,88.58889602291667,88.75675299791668,71.0,110.0
96,88.80318152291667,88.97282421041668,68.0,113.0
97,89.01746702291668,89.25139536041667,71.0,114.0
98,89.23175252291668,89.55853791041667,73.0,114.0
99,89.87460902291667,90.21568011041668,64.0,117.0
100,91.16032202291667,91.28353618541666,68.0,114.0
101,91.37460752291668,91.46925028541668,68.0,114.0
102,91.58889302291666,91.79782138541668,68.0,114.0
103,92.01746402291667,92.12817819791667,66.0,114.0
104,92.23174952291667,92.50853496041668,66.0,116.0
105,93.08889152291667,93.19960569791667,66.0,116.0
106,93.30317702291669,93.56746247291667,68.0,119.0
107,93.73174802291668,93.85496218541667,66.0,110.0
108,94.16031902291667,94.57996146041668,71.0,119.0
109,94.58889002291667,94.74424701041667,69.0,119.0
110,94.80317552291667,94.97103249791667,69.0,119.0
111,95.23174652291667,95.39960349791667,68.0,119.0
112,97.16031602291667,97.43710146041667,68.0,120.0
113,97.58888702291668,97.88531529791668,80.0,117.0
114,98.01745802291668,98.31031487291668,76.0,120.0
115,98.87460002291667,99.05317127291667,73.0,114.0
116,99.30317102291667,99.55852791041667,75.0,117.0
117,99.73174202291668,100.02995601041667,73.0,116.0
118,100.16031302291668,100.35674139791668,75.0,116.0
119,100.58888402291667,100.78888382291667,73.0,113.0
120,100.80316952291668,101.08174067291668,75.0,114.0
121,101.44602602291667,101.71566861041669,76.0,116.0
122,101.87459702291667,102.21209668541667,76.0,110.0
123,102.30316802291668,102.52281066041667,73.0,110.0
124,102.73173902291668,102.95852451041668,73.0,116.0
125,103.16031002291668,103.33888127291667,71.0,110.0
126,103.37459552291668,103.65138096041667,73.0,110.0
127,104.01745202291667,104.24066608541668,66.0,117.0
128,104.44602302291668,104.75137986041668,78.0,114.0
129,104.87459402291668,105.13887947291667,76.0,116.0
130,105.30316502291667,105.54423621041667,76.0,114.0
131,105.73173602291668,105.91923583541669,75.0,116.0
132,105.94602152291668,106.14602132291668,75.0,117.0
133,106.58887802291667,106.84780633541668,73.0,114.0
134,107.01744902291668,107.27816304791668,73.0,110.0
135,107.44602002291668,107.56744847291668,71.0,108.0
136,107.66030552291667,107.87459102291668,71.0,114.0
137,108.30316202291668,108.39601907291667,69.0,116.0
138,108.51744752291668,108.60494743541668,69.0,103.0
139,108.73173302291667,109.05673269791667,69.0,116.0
140,109.16030402291668,109.42101804791668,68.0,116.0
141,109.58887502291668,109.88708901041667,66.0,110.0
142,110.01744602291667,110.17637443541668,69.0,113.0
143,110.23173152291668,110.48887412291668,68.0,119.0
144,110.87458802291668,111.09244494791668,68.0,117.0
145,111.30315902291667,111.65673009791668,80.0,114.0
146,111.73173002291668,112.20494383541667,76.0,116.0
147,112.16030102291668,112.47280071041668,75.0,117.0
148,112.58887202291668,112.74422901041667,73.0,113.0
149,112.80315752291668,113.13351433541668,75.0,114.0
150,113.44601402291667,113.66565666041667,73.0,113.0
151,113.87458502291668,114.27815604791668,75.0,91.0
152,114.30315602291668,114.49065583541667,73.0,114.0
153,114.51744152291668,114.76029842291668,75.0,116.0
154,114.94601252291667,115.20315512291668,76.0,114.0
155,115.58886902291668,115.96029722291668,76.0,116.0
156,116.01744002291667,116.22815409791667,73.0,116.0
157,116.44601102291668,116.67815364791667,73.0,117.0
158,116.87458202291668,117.01565331041668,71.0,116.0
159,117.08886752291667,117.35672439791668,73.0,117.0
160,118.37458052291667,118.48350898541668,76.0,114.0
161,118.58886602291668,118.68172307291668,76.0,108.0
162,118.80315152291668,118.90672284791668,76.0,110.0
163,119.01743702291668,119.25315107291668,76.0,116.0
164,119.44600802291667,119.53886507291668,75.0,113.0
165,119.66029352291667,119.75136486041667,75.0,114.0
166,119.87457902291668,120.11207878541668,75.0,119.0
167,120.30315002291668,120.39422136041668,73.0,116.0
168,120.51743552291668,120.61029257291668,73.0,113.0
169,120.73172102291667,120.96386364791668,73.0,117.0
170,121.16029202291668,121.44779173541667,71.0,114.0
171,121.58886302291668,121.88350558541669,76.0,117.0
172,122.01743402291667,122.24421951041668,75.0,110.0
173,122.44600502291668,122.65346110416668,75.0,117.0
174,122.66061687916668,122.96115942916668,73.0,117.0
175,153.33829342708336,153.72936446458334,75.0,119.0
176,153.76686442708336,154.13650691458335,73.0,117.0
177,154.19543542708334,154.57757790208336,68.0,119.0
178,154.62400642708334,154.85614905208337,64.0,113.0
179,154.83829192708336,155.10793451458335,63.0,113.0
180,155.48114842708335,155.67757680208337,61.0,102.0
181,155.69543392708334,156.01150503958334,63.0,108.0
182,156.12400492708335,156.43471890208335,64.0,113.0
183,156.55257592708335,156.93114697708336,66.0,114.0
184,157.19543242708335,157.29543232708335,66.0,100.0
185,157.40971792708336,157.74186045208336,66.0,100.0
186,157.83828892708334,157.96507451458336,64.0,100.0
187,158.05257442708336,158.32221701458334,68.0,113.0
188,158.48114542708336,158.79364511458334,66.0,110.0
189,160.19542942708335,160.54721478958334,75.0,114.0
190,160.62400042708336,161.04721428958334,73.0,114.0
191,161.05257142708336,161.42757105208335,68.0,117.0
192,161.48114242708334,161.62935656458336,64.0,102.0
193,161.69542792708336,162.08292753958335,63.0,108.0
194,162.33828442708335,162.61149843958336,61.0,93.0
195,162.55256992708337,162.95256952708337,63.0,93.0
196,162.98114092708335,163.21864068958337,64.0,104.0
197,163.62399742708334,163.89721143958334,66.0,113.0
198,164.05256842708334,164.15971117708335,66.0,100.0
199,164.26685392708336,164.54363936458336,66.0,102.0
200,164.69542492708337,164.84185335208335,68.0,110.0
201,164.90971042708335,165.21328155208334,69.0,113.0
202,165.33828142708336,165.60256687708335,68.0,114.0
203,166.62399442708335,166.73828002708336,68.0,113.0
204,166.83827992708336,166.93292268958334,68.0,110.0
205,167.05256542708335,167.28827947708334,68.0,110.0
206,167.48113642708336,167.60077916458334,66.0,104.0
207,167.69542192708334,167.99185020208336,66.0,108.0
208,168.55256392708336,168.67042095208336,68.0,114.0
209,168.76684942708334,168.99363491458337,75.0,117.0
210,169.19542042708335,169.30256317708336,75.0,117.0
211,169.62399142708335,169.82577693958336,73.0,114.0
212,169.83827692708337,170.10077666458335,75.0,116.0
213,170.26684792708335,170.47399057708336,73.0,114.0
214,170.48113342708336,170.74899030208337,71.0,117.0
215,170.90970442708334,171.19363271458334,68.0,110.0
216,171.33827542708335,171.50791811458336,71.0,113.0
217,171.55256092708336,171.87934631458336,73.0,114.0
218,172.19541742708336,172.53648851458337,64.0,117.0
219,173.48113042708337,173.60434458958335,68.0,114.0
220,173.69541592708336,173.79005868958336,68.0,114.0
221,173.90970142708335,174.11862978958334,68.0,114.0
222,174.33827242708335,174.44898660208335,66.0,114.0
223,174.55255792708334,174.82934336458334,66.0,116.0
224,175.40969992708335,175.52041410208335,66.0,116.0
225,175.62398542708337,175.88827087708336,68.0,119.0
226,176.05255642708335,176.17577058958335,66.0,110.0
227,176.26684192708336,176.68648436458335,71.0,119.0
228,176.90969842708336,177.16862673958335,69.0,119.0
229,177.33826942708336,177.69719763958335,68.0,119.0
230,180.76683742708335,181.15790846458336,75.0,119.0
231,181.19540842708335,181.56505091458337,73.0,117.0
232,181.62397942708336,182.00612190208335,68.0,119.0
233,182.05255042708336,182.28469305208336,64.0,113.0
234,182.26683592708335,182.53647851458337,63.0,113.0
235,182.90969242708337,183.10612080208335,61.0,102.0
236,183.12397792708336,183.44004903958336,63.0,108.0
237,183.55254892708336,183.86326290208336,64.0,113.0
238,183.98111992708334,184.35969097708335,66.0,114.0
239,184.62397642708336,184.72397632708336,66.0,100.0
240,184.83826192708335,185.17040445208335,66.0,100.0
241,185.26683292708336,185.39361851458335,64.0,100.0
242,185.48111842708335,185.75076101458336,68.0,113.0
243,185.90968942708335,186.22218911458336,66.0,110.0
244,187.62397342708334,187.97575878958335,75.0,114.0
245,188.05254442708335,188.47575828958335,73.0,114.0
246,188.48111542708335,188.85611505208334,68.0,117.0
247,188.90968642708336,189.05790056458335,64.0,102.0
248,189.12397192708335,189.51147153958334,63.0,108.0
249,189.76682842708334,190.04004243958337,61.0,93.0
250,189.98111392708336,190.38111352708336,63.0,93.0
251,190.40968492708336,190.64718468958336,64.0,104.0
252,191.05254142708336,191.32575543958336,66.0,113.0
253,191.48111242708336,191.58825517708334,66.0,100.0
254,191.69539792708338,191.97218336458337,66.0,102.0
255,192.12396892708335,192.27039735208336,68.0,110.0
256,192.33825442708337,192.64182555208336,69.0,113.0
257,192.76682542708335,193.03111087708334,68.0,114.0
258,194.05253842708336,194.16682402708335,68.0,113.0
259,194.26682392708335,194.36146668958335,68.0,110.0
260,194.48110942708337,194.71682347708335,68.0,110.0
261,194.90968042708334,195.02932316458336,66.0,104.0
262,195.12396592708336,195.42039420208334,66.0,108.0
263,195.98110792708337,196.09896495208335,68.0,114.0
264,196.19539342708336,196.42217891458336,75.0,117.0
265,196.62396442708337,196.73110717708335,75.0,117.0
266,197.05253542708334,197.25432093958335,73.0,114.0
267,197.26682092708336,197.52932066458334,75.0,116.0
268,197.69539192708336,197.90253457708337,73.0,114.0
269,197.90967742708335,198.17753430208336,71.0,117.0
270,198.33824842708336,198.50610540208336,71.0,110.0
271,198.55253392708335,198.72217661458336,68.0,113.0
272,198.76681942708336,199.00074776458337,71.0,114.0
273,198.98110492708335,199.30789031458335,73.0,114.0
274,199.62396142708337,199.96503251458336,64.0,117.0
275,200.90967442708336,201.03288858958337,68.0,114.0
276,201.12395992708338,201.21860268958335,68.0,114.0
277,201.33824542708336,201.54717378958335,68.0,114.0
278,201.76681642708337,201.87753060208337,66.0,114.0
279,201.98110192708336,202.25788736458335,66.0,116.0
280,202.83824392708334,202.94895810208334,66.0,116.0
281,203.05252942708336,203.31681487708335,68.0,119.0
282,203.48110042708336,203.60431458958334,66.0,110.0
283,203.90967142708337,204.32931386458336,71.0,119.0
284,204.33824242708334,204.49359941458334,69.0,119.0
285,204.55252792708336,204.72038490208337,69.0,119.0
286,204.98109892708334,205.14895590208334,68.0,119.0
287,206.90966842708337,207.18645386458337,68.0,120.0
288,207.33823942708335,207.63466770208336,80.0,117.0
289,207.76681042708336,208.05966727708335,76.0,120.0
290,208.19538142708336,208.48823827708335,75.0,120.0
291,208.62395242708334,208.80252367708334,73.0,114.0
292,209.05252342708337,209.30788031458337,75.0,117.0
293,209.48109442708335,209.77930841458334,73.0,116.0
294,209.90966542708335,210.10609380208336,75.0,116.0
295,210.33823642708336,210.53823622708336,73.0,113.0
296,210.55252192708338,210.83109307708335,75.0,114.0
297,211.19537842708337,211.46502101458336,76.0,116.0
298,211.62394942708335,211.96144908958337,76.0,110.0
299,212.05252042708338,212.27216306458337,73.0,110.0
300,212.48109142708336,212.70787691458338,73.0,116.0
301,212.90966242708336,213.08823367708337,71.0,110.0
302,213.12394792708335,213.40073336458335,73.0,110.0
303,213.76680442708334,213.99001848958335,66.0,117.0
304,214.19537542708338,214.50073226458335,78.0,114.0
305,214.62394642708335,214.88823187708334,76.0,116.0
306,215.05251742708336,215.29358861458337,76.0,114.0
307,215.48108842708336,215.66858823958336,75.0,116.0
308,215.69537392708338,215.89537372708335,75.0,117.0
309,216.33823042708337,216.59715873958336,73.0,114.0
310,216.76680142708335,217.02751545208338,73.0,110.0
311,217.19537242708336,217.31680087708338,71.0,108.0
312,217.40965792708334,217.62394342708336,71.0,114.0
313,218.05251442708337,218.14537147708336,69.0,116.0
314,218.26679992708335,218.35429983958335,69.0,103.0
315,218.48108542708337,218.80608510208336,69.0,116.0
316,218.90965642708335,219.17037045208338,68.0,116.0
317,219.33822742708335,219.63644141458337,66.0,110.0
318,219.76679842708336,219.92572683958338,69.0,113.0
319,219.98108392708338,220.23822652708336,68.0,119.0
320,220.62394042708337,220.84179735208335,68.0,117.0
321,221.05251142708335,221.40608250208336,80.0,114.0
322,221.48108242708338,221.95429623958336,76.0,116.0
323,221.90965342708336,222.22215311458336,75.0,117.0
324,222.33822442708336,222.49358141458336,73.0,113.0
325,222.55250992708335,222.88286673958336,75.0,114.0
326,223.19536642708334,223.41500906458336,73.0,113.0
327,223.62393742708338,224.02750845208337,75.0,91.0
328,224.05250842708335,224.24000823958335,73.0,114.0
329,224.26679392708337,224.50965082708336,75.0,116.0
330,224.69536492708335,224.95250752708336,76.0,114.0
331,225.33822142708334,225.70964962708337,76.0,116.0
332,225.76679242708337,225.97750650208337,73.0,116.0
333,226.19536342708335,226.42750605208334,73.0,117.0
334,226.62393442708336,226.76500571458337,71.0,116.0
335,226.83821992708334,227.10607680208335,73.0,117.0
336,228.12393292708336,228.23286138958338,76.0,114.0
337,228.33821842708335,228.43107547708337,76.0,108.0
338,228.55250392708336,228.65607525208335,76.0,110.0
339,228.76678942708338,229.00250347708337,76.0,116.0
340,229.19536042708336,229.28821747708338,75.0,113.0
341,229.40964592708337,229.50071726458336,75.0,114.0
342,229.62393142708336,229.86143118958336,75.0,119.0
343,230.05250242708337,230.14357376458338,73.0,116.0
344,230.26678792708336,230.35964497708335,73.0,113.0
345,230.48107342708334,230.71321605208337,73.0,117.0
346,230.90964442708338,231.19714413958337,71.0,114.0
347,231.33821542708336,231.63285798958336,76.0,117.0
348,231.76678642708336,231.99357191458336,75.0,110.0
349,232.19535742708337,232.40250007708335,75.0,117.0
350,232.40964292708338,232.70964262708338,73.0,117.0
351,234.33821242708336,234.61499786458336,68.0,120.0
352,234.76678342708337,235.06321170208338,80.0,117.0
353,235.19535442708337,235.48821127708337,76.0,120.0
354,235.62392542708335,235.91678227708337,75.0,120.0
355,236.05249642708338,236.23106767708336,73.0,114.0
356,236.48106742708336,236.73642431458336,75.0,117.0
357,236.90963842708337,237.20785241458336,73.0,116.0
358,237.33820942708337,237.53463780208335,75.0,116.0
359,237.76678042708335,237.96678022708335,73.0,113.0
360,237.98106592708336,238.25963707708337,75.0,114.0
361,238.62392242708336,238.89356501458337,76.0,116.0
362,239.05249342708336,239.38999308958336,76.0,110.0
363,239.48106442708337,239.70070706458336,73.0,110.0
364,239.90963542708334,240.13642091458337,73.0,116.0
365,240.33820642708338,240.51677767708338,71.0,110.0
366,240.55249192708337,240.82927736458336,73.0,110.0
367,241.19534842708336,241.41856248958337,66.0,117.0
368,241.62391942708337,241.92927626458336,78.0,114.0
369,242.05249042708337,242.31677587708336,76.0,116.0
370,242.48106142708338,242.72213261458336,76.0,114.0
371,242.90963242708335,243.09713223958335,75.0,116.0
372,243.12391792708337,243.32391772708337,75.0,117.0
373,243.76677442708336,244.02570273958338,73.0,114.0
374,244.19534542708337,244.45605945208337,73.0,110.0
375,244.62391642708337,244.74534487708337,71.0,108.0
376,244.83820192708336,245.05248742708335,71.0,114.0
377,245.48105842708338,245.57391547708335,69.0,116.0
378,245.69534392708334,245.78284383958336,69.0,103.0
379,245.90962942708336,246.23462910208337,69.0,116.0
380,246.33820042708336,246.59891445208336,68.0,116.0
381,246.76677142708337,247.06498541458336,66.0,110.0
382,247.19534242708335,247.35427083958336,69.0,113.0
383,247.40962792708336,247.66677052708337,68.0,119.0
384,248.05248442708336,248.27034135208336,68.0,117.0
385,248.48105542708336,248.83462650208338,80.0,114.0
386,248.90962642708337,249.38284023958335,76.0,116.0
387,249.33819742708334,249.65069711458335,75.0,117.0
388,249.76676842708338,249.92212541458338,73.0,113.0
389,249.98105392708337,250.31141073958338,75.0,114.0
390,250.62391042708336,250.84355306458338,73.0,113.0
391,251.05248142708336,251.45605245208338,75.0,91.0
392,251.48105242708337,251.66855223958336,73.0,114.0
393,251.69533792708336,251.93819482708335,75.0,116.0
394,252.12390892708336,252.38105152708334,76.0,114.0
395,252.76676542708339,253.13819362708335,76.0,116.0
396,253.19533642708336,253.40605050208336,73.0,116.0
397,253.62390742708337,253.85605005208336,73.0,117.0
398,254.05247842708337,254.19354971458336,71.0,116.0
399,254.2667639270834,254.53462080208334,73.0,117.0
400,255.55247692708338,255.66140538958336,76.0,114.0
401,255.7667624270834,255.85961947708336,76.0,108.0
402,255.98104792708335,256.08461925208337,76.0,110.0
403,256.19533342708337,256.4310474770834,76.0,116.0
404,256.62390442708335,256.71676147708337,75.0,113.0
405,256.83818992708336,256.9292612645834,75.0,114.0
406,257.0524754270834,257.28997518958334,75.0,119.0
407,257.48104642708336,257.57211776458337,73.0,116.0
408,257.6953319270834,257.78818897708334,73.0,113.0
409,257.9096174270834,258.1417600520834,73.0,117.0
410,258.33818842708337,258.62568813958336,71.0,114.0
411,258.76675942708334,259.0614019895834,76.0,117.0
412,259.1953304270834,259.42211591458334,75.0,110.0
413,259.62390142708335,259.8310440770834,75.0,117.0
414,259.83818692708337,260.13818662708337,73.0,117.0
