,start,end,pitch,velocity
0,2.4267832875,3.7839247875000006,49.0,85.0
1,3.9267817875000004,4.0232102625,49.0,87.0
2,3.2821395750000004,4.101781612500001,61.0,85.0
3,3.2821395750000004,4.139281575000001,68.0,85.0
4,3.2821395750000004,4.1714244,64.0,85.0
5,4.569638287500001,5.6410657875000005,49.0,89.0
6,5.639280075000001,5.6410657875000005,49.0,97.0
7,4.996423575000001,5.816065612500001,61.0,85.0
8,4.996423575000001,5.853565575000001,68.0,85.0
9,4.996423575000001,5.8857084,64.0,85.0
10,5.8553512875000004,6.987493012500001,44.0,93.0
11,7.355349787500001,7.430349712500001,44.0,94.0
12,6.710707575000001,7.667849475000001,56.0,93.0
13,6.710707575000001,7.678563750000001,59.0,93.0
14,6.710707575000001,7.683920887500001,63.0,93.0
15,6.710707575000001,7.707135150000001,68.0,93.0
16,7.998206287500001,9.017848125,44.0,86.0
17,8.424991575000002,9.382133475000002,56.0,93.0
18,8.424991575000002,9.392847750000001,59.0,93.0
19,8.424991575000002,9.3982048875,63.0,93.0
20,8.424991575000002,9.421419150000002,68.0,93.0
21,10.139275575000001,10.564275150000002,64.0,83.0
22,10.139275575000001,10.582132275000001,57.0,83.0
23,10.139275575000001,10.589275125000002,61.0,83.0
24,10.139275575000001,10.601775112500002,68.0,83.0
25,9.283919287500002,10.6660607625,45.0,83.0
26,10.783917787500002,10.869631987500002,45.0,97.0
27,11.853559575000002,12.278559150000001,64.0,83.0
28,11.853559575000002,12.296416275000002,57.0,83.0
29,11.853559575000002,12.303559125000001,61.0,83.0
30,11.853559575000002,12.316059112500001,68.0,83.0
31,11.4267742875,12.498201787500001,45.0,95.0
32,12.496416075,12.498201787500001,45.0,97.0
33,12.712487287500002,14.049985950000002,49.0,93.0
34,13.567843575000001,14.094628762500001,64.0,93.0
35,13.567843575000001,14.135700150000002,61.0,93.0
36,13.567843575000001,14.166057262500003,68.0,93.0
37,14.212485787500002,14.298199987500002,49.0,93.0
38,14.855342287500003,15.662484337500002,49.0,93.0
39,15.282127575000002,15.808912762500002,64.0,93.0
40,15.282127575000002,15.849984150000003,61.0,93.0
41,15.282127575000002,15.880341262500002,68.0,93.0
42,15.712484287500002,16.3553407875,56.0,100.0
43,16.160698125000003,17.519625337500003,49.0,97.0
44,17.701768012500004,17.7767679375,49.0,97.0
45,16.998197287500002,18.201767512500002,63.0,96.0
46,16.998197287500002,18.203553225000004,64.0,96.0
47,16.998197287500002,18.233910337500003,68.0,96.0
48,18.7124812875,19.164266550000004,63.0,96.0
49,18.7124812875,19.166052262500003,64.0,96.0
50,18.7124812875,19.196409375,68.0,96.0
51,18.299981700000004,19.244623612500003,49.0,97.0
52,19.353552075000003,19.567837575000002,49.0,97.0
53,19.542837600000002,19.567837575000002,49.0,97.0
54,21.1196217375,21.205335937500003,49.0,97.0
55,20.426765287500004,21.492835650000004,68.0,97.0
56,20.426765287500004,21.514264200000003,61.0,97.0
57,20.426765287500004,21.514264200000003,64.0,97.0
58,21.728549700000002,22.735691550000002,49.0,93.0
59,22.141049287500003,23.207119650000003,68.0,97.0
60,22.141049287500003,23.228548200000002,61.0,97.0
61,22.141049287500003,23.228548200000002,64.0,97.0
62,22.976762737500003,24.385689900000003,49.0,89.0
63,23.855333287500002,24.557118300000003,64.0,88.0
64,23.855333287500002,24.560689725000003,63.0,88.0
65,23.855333287500002,24.578546850000002,61.0,88.0
66,23.855333287500002,24.596403975000005,68.0,88.0
67,24.523189762500003,24.619618237500003,49.0,88.0
68,25.166046262500004,26.132116725000003,49.0,88.0
69,25.5696172875,26.271402300000002,64.0,88.0
70,25.5696172875,26.274973725000002,63.0,88.0
71,25.5696172875,26.292830850000005,61.0,88.0
72,25.5696172875,26.310687975000004,68.0,88.0
73,26.432116425000004,27.812472187500003,49.0,88.0
74,27.962472037500003,28.035686250000005,49.0,88.0
75,27.283901287500004,28.105329037500002,66.0,88.0
76,27.283901287500004,28.130329012500003,61.0,88.0
77,27.283901287500004,28.133900437500003,63.0,88.0
78,27.283901287500004,28.141043287500004,59.0,88.0
79,28.139257575000002,28.353543075000005,49.0,97.0
80,28.567828575000004,28.782114075000003,49.0,88.0
81,28.782114075000003,28.996399575000005,49.0,97.0
82,28.998185287500004,29.819613037500005,66.0,88.0
83,28.998185287500004,29.844613012500005,61.0,88.0
84,28.998185287500004,29.848184437500002,63.0,88.0
85,29.639256075000002,29.853541575000005,49.0,97.0
86,29.844613012500005,29.853541575000005,49.0,88.0
87,28.998185287500004,29.855327287500003,59.0,88.0
88,29.855327287500003,30.664255050000005,68.0,88.0
89,29.855327287500003,30.712469287500003,61.0,88.0
90,29.855327287500003,30.724969275000003,64.0,88.0
91,30.712469287500003,30.724969275000003,64.0,88.0
92,31.373182912500003,31.448182837500003,49.0,88.0
93,30.712469287500003,31.521397050000004,68.0,88.0
94,30.712469287500003,31.569611287500003,61.0,88.0
95,31.567825575000004,31.782111075000003,49.0,97.0
96,31.992825150000005,32.207110650000004,49.0,88.0
97,32.210682075,32.424967575000004,49.0,97.0
98,32.426753287500006,33.235681050000004,68.0,88.0
99,33.067824075000004,33.28210957500001,49.0,97.0
100,33.260681025000004,33.28210957500001,49.0,88.0
101,32.426753287500006,33.2838952875,61.0,88.0
102,32.426753287500006,33.296395275,64.0,88.0
103,34.84817943750001,34.932107925000004,49.0,88.0
104,34.141037287500005,34.994607862500004,66.0,82.0
105,34.141037287500005,34.9981792875,61.0,88.0
106,34.141037287500005,35.0553220875,63.0,83.0
107,34.996393575000006,35.210679075,49.0,97.0
108,35.449964550000004,35.66425005000001,49.0,91.0
109,35.63925007500001,35.66425005000001,49.0,97.0
110,35.855321287500004,36.7088918625,66.0,82.0
111,36.496392075,36.710677575000005,49.0,97.0
112,35.855321287500004,36.71246328750001,61.0,88.0
113,35.855321287500004,36.7696060875,63.0,83.0
114,36.71246328750001,36.7696060875,63.0,83.0
115,36.71246328750001,37.328534100000006,61.0,79.0
116,36.71246328750001,37.378534050000006,68.0,84.0
117,36.71246328750001,37.44817683750001,64.0,84.0
118,36.71246328750001,37.57317671250001,49.0,78.0
119,37.5696052875,38.187461812500004,59.0,83.0
120,37.5696052875,38.212461787500004,47.0,83.0
121,38.210676075,38.212461787500004,47.0,97.0
122,37.5696052875,38.239247475000006,63.0,81.0
123,37.5696052875,38.274961725000004,66.0,82.0
124,38.42674728750001,38.98924672500001,64.0,84.0
125,38.42674728750001,38.992818150000005,61.0,86.0
126,38.42674728750001,39.0660323625,45.0,82.0
127,39.2838892875,40.03745996250001,44.0,90.0
128,40.128531300000006,41.199958800000005,44.0,96.0
129,41.210673075,41.424958575000005,44.0,97.0
130,41.660672625000004,41.735672550000004,44.0,91.0
131,39.2838892875,41.930315212500005,63.0,81.0
132,39.2838892875,41.935672350000004,54.0,84.0
133,39.2838892875,41.946386625,60.0,82.0
134,41.853529575,42.067815075000006,44.0,97.0
135,42.71247651666667,43.58858646041667,63.0,81.0
136,42.498171787500006,43.592236677083335,44.0,91.0
137,42.71247651666667,43.59406178541667,54.0,84.0
138,42.71247651666667,43.60501243541667,60.0,82.0
139,43.58858646041667,44.874654022916665,49.0,82.0
140,45.08893952291667,45.30322502291667,49.0,100.0
141,45.30322502291667,45.94608152291667,49.0,91.0
142,45.94429581041667,45.94608152291667,49.0,97.0
143,44.444297310416665,45.94608152291667,61.0,85.0
144,44.444297310416665,45.99429576041667,63.0,88.0
145,44.444297310416665,46.022867160416666,64.0,87.0
146,44.444297310416665,46.08893852291667,68.0,88.0
147,46.48179527291667,46.59072373541667,44.0,91.0
148,46.16036702291667,46.76750927291667,61.0,85.0
149,46.16036702291667,46.81572351041667,63.0,88.0
150,46.16036702291667,46.84429491041667,64.0,87.0
151,46.58893802291667,46.87822344791667,49.0,93.0
152,46.16036702291667,46.91036627291667,68.0,88.0
153,46.91036627291667,47.01750902291667,52.0,92.0
154,47.01750902291667,48.23357923541667,57.0,98.0
155,47.01750902291667,48.29072203541667,64.0,98.0
156,47.01750902291667,48.30679344791667,61.0,98.0
157,47.01750902291667,48.37107909791667,66.0,98.0
158,47.01750902291667,48.51750752291667,54.0,98.0
159,48.51750752291667,48.73179302291667,54.0,100.0
160,48.73179302291667,49.16036402291667,56.0,79.0
161,49.37464952291667,49.58893502291667,56.0,100.0
162,49.58893502291667,50.44607702291667,44.0,100.0
163,49.58893502291667,50.58357688541667,63.0,81.0
164,49.58893502291667,50.60321972291667,60.0,78.0
165,49.58893502291667,50.61571971041667,66.0,73.0
166,50.44607702291667,51.62464727291667,49.0,82.0
167,51.94607552291667,52.16036102291667,49.0,100.0
168,51.30143331041667,52.68000336041667,61.0,81.0
169,51.30143331041667,52.83178892291667,68.0,85.0
170,51.30143331041667,52.85857461041667,63.0,84.0
171,51.30143331041667,52.94607452291667,64.0,83.0
172,52.16036102291667,53.23178852291667,49.0,91.0
173,53.33893127291667,53.44785973541667,44.0,91.0
174,53.01750302291667,53.50857396041667,61.0,81.0
175,53.01750302291667,53.66035952291667,68.0,85.0
176,53.01750302291667,53.68714521041667,63.0,84.0
177,53.44607402291667,53.73535944791667,49.0,93.0
178,53.01750302291667,53.77464512291667,64.0,83.0
179,53.76750227291667,53.87464502291667,52.0,95.0
180,54.73000131041667,55.13535804791667,57.0,80.0
181,54.73000131041667,55.15142946041667,61.0,79.0
182,54.73000131041667,55.37285781041667,66.0,81.0
183,53.87464502291667,55.61214328541667,54.0,78.0
184,55.58892902291667,56.47107099791667,63.0,75.0
185,55.58892902291667,56.49607097291667,60.0,83.0
186,55.58892902291667,56.50499953541667,66.0,81.0
187,55.58892902291667,56.57999946041667,56.0,71.0
188,56.44607102291667,56.867499172916666,68.0,81.0
189,56.44607102291667,56.95321337291667,64.0,83.0
190,56.44607102291667,57.31035587291667,49.0,83.0
191,57.30321302291667,58.53892607291667,57.0,84.0
192,57.30321302291667,58.62464027291667,66.0,88.0
193,56.44607102291667,58.62821169791667,61.0,78.0
194,57.30321302291667,58.80321152291667,42.0,75.0
195,57.30321302291667,58.901425710416675,54.0,78.0
196,58.80321152291667,59.01749702291667,42.0,100.0
197,59.01749702291667,59.99785318541667,63.0,87.0
198,59.01749702291667,60.30499573541667,66.0,82.0
199,59.01749702291667,60.342495697916675,59.0,79.0
200,59.01749702291667,60.517495522916676,47.0,87.0
201,60.517495522916676,60.73178102291667,47.0,100.0
202,60.73178102291667,61.36035182291667,68.0,86.0
203,60.73178102291667,61.378208947916676,59.0,80.0
204,60.73178102291667,61.406780347916666,64.0,85.0
205,61.588923022916674,62.11749392291667,59.0,81.0
206,61.588923022916674,62.15499388541667,68.0,84.0
207,61.588923022916674,62.169279585416675,64.0,85.0
208,60.73178102291667,62.22999381041667,52.0,81.0
209,62.22999381041667,62.23177952291667,52.0,81.0
210,62.22999381041667,62.23177952291667,52.0,97.0
211,62.44606502291667,62.874636022916675,49.0,74.0
212,62.44606502291667,63.03356443541667,68.0,82.0
213,62.44606502291667,63.06392154791667,64.0,84.0
214,62.44606502291667,63.08892152291667,61.0,81.0
215,63.08713581041667,63.303207022916666,51.0,86.0
216,63.303207022916666,63.59606387291667,68.0,84.0
217,63.303207022916666,63.64427811041667,64.0,86.0
218,63.303207022916666,64.16034902291668,52.0,91.0
219,64.16034902291668,64.72999131041666,57.0,80.0
220,64.16034902291668,64.74427701041667,66.0,86.0
221,63.303207022916666,64.79070553541666,61.0,88.0
222,64.16034902291668,65.44606202291666,42.0,77.0
223,65.01749102291667,65.66034752291667,57.0,78.0
224,65.01749102291667,65.74784743541667,66.0,79.0
225,65.01749102291667,65.81570451041668,61.0,76.0
226,65.66034752291667,65.87463302291667,42.0,100.0
227,64.16034902291668,66.03891857291667,54.0,70.0
228,65.87284731041667,66.51570381041667,57.0,78.0
229,65.87284731041667,66.60320372291667,66.0,79.0
230,65.87284731041667,66.67106079791667,61.0,76.0
231,66.51748952291668,66.78891782291667,57.0,80.0
232,66.72998931041667,66.78891782291667,57.0,78.0
233,66.30320402291667,67.23177452291668,54.0,77.0
234,65.87463302291667,67.37463152291667,42.0,100.0
235,66.72998931041667,67.46034572291667,66.0,79.0
236,67.16034602291667,67.46034572291667,66.0,84.0
237,66.72998931041667,67.52820279791666,61.0,76.0
238,67.58891702291668,69.08891552291666,44.0,83.0
239,68.44605902291667,69.17284401041667,61.0,88.0
240,69.08891552291666,69.19605827291667,44.0,96.0
241,69.30320102291667,69.88355758541667,56.0,96.0
242,69.30320102291667,69.93712896041667,60.0,98.0
243,69.30320102291667,69.94427181041667,63.0,98.0
244,69.30320102291667,69.94605752291667,66.0,98.0
245,68.01748802291667,70.32641428541667,51.0,89.0
246,69.94427181041667,70.54605692291668,44.0,90.0
247,70.15855731041667,70.96748507291667,56.0,96.0
248,70.15855731041667,71.02105644791666,60.0,98.0
249,70.15855731041667,71.02819929791667,63.0,98.0
250,71.01748502291667,71.02819929791667,63.0,83.0
251,70.15855731041667,71.02998501041668,66.0,98.0
252,71.01748502291667,72.31034087291667,61.0,78.0
253,71.01748502291667,72.33534084791667,68.0,83.0
254,71.01748502291667,72.51748352291668,49.0,77.0
255,71.01748502291667,72.51926923541667,64.0,81.0
256,72.51748352291668,72.73176902291667,49.0,100.0
257,72.30319802291667,73.16926858541667,56.0,56.0
258,73.16034002291667,73.66926808541668,61.0,79.0
259,73.58891102291668,73.99069633541667,63.0,89.0
260,73.58891102291668,74.06926768541668,56.0,79.0
261,74.01748202291668,74.11391049791668,64.0,84.0
262,73.58891102291668,74.12462477291668,68.0,100.0
263,72.73176902291667,74.44605302291667,49.0,100.0
264,74.44605302291667,75.54605192291667,61.0,84.0
265,74.44605302291667,75.62640898541667,57.0,81.0
266,74.44605302291667,75.71748032291667,66.0,85.0
267,74.44605302291667,75.94605152291668,54.0,81.0
268,75.94605152291668,76.16033702291668,54.0,80.0
269,76.16033702291668,76.57283661041667,63.0,81.0
270,76.16033702291668,76.58355088541667,66.0,77.0
271,76.16033702291668,76.58890802291667,60.0,81.0
272,76.16033702291668,76.80319352291667,56.0,77.0
273,76.80140781041666,76.80319352291667,56.0,97.0
274,77.01747902291667,77.64426411041667,63.0,81.0
275,77.01747902291667,77.65497838541668,66.0,77.0
276,77.01747902291667,77.66033552291668,60.0,81.0
277,77.66033552291668,77.87462102291667,56.0,100.0
278,77.87462102291667,79.16033402291667,49.0,84.0
279,77.87462102291667,79.17104829791667,68.0,86.0
280,77.87462102291667,79.18890542291668,61.0,77.0
281,77.87462102291667,79.22997681041667,64.0,87.0
282,77.87462102291667,79.26747677291667,63.0,85.0
283,79.37283381041667,79.58711931041668,49.0,97.0
284,79.80319052291668,80.19961869791668,61.0,64.0
285,79.80319052291668,80.23711866041668,64.0,84.0
286,79.37461952291667,80.24961864791668,63.0,86.0
287,80.44604702291667,80.74426101041666,68.0,87.0
288,80.44604702291667,80.80854666041668,64.0,89.0
289,80.44604702291667,80.88354658541667,61.0,86.0
290,79.16033402291667,81.08890352291667,56.0,40.0
291,79.58711931041668,81.30140331041667,49.0,97.0
292,81.30318902291668,82.31568801041666,57.0,79.0
293,81.30318902291668,82.43354503541667,61.0,88.0
294,81.30318902291668,82.51211638541668,64.0,87.0
295,81.30318902291668,82.80318752291667,54.0,81.0
296,82.80140181041668,82.80318752291667,54.0,97.0
297,83.01747302291668,83.72461517291667,56.0,80.0
298,83.66032952291667,83.87461502291667,44.0,100.0
299,83.01747302291668,83.89782928541668,60.0,86.0
300,83.01747302291668,83.92818639791668,63.0,88.0
301,83.87461502291667,83.92818639791668,63.0,88.0
302,83.01747302291668,83.93532924791668,66.0,84.0
303,83.87461502291667,84.39961449791667,68.0,87.0
304,83.87461502291667,84.40675734791668,64.0,88.0
305,83.87461502291667,84.64961424791667,61.0,85.0
306,83.87461502291667,84.72639988541667,49.0,84.0
307,84.73175702291667,85.58889902291668,42.0,83.0
308,85.58711331041667,85.97104149791667,66.0,89.0
309,84.73175702291667,86.03889857291668,57.0,88.0
310,85.91032727291667,86.05139856041667,42.0,72.0
311,85.58711331041667,86.22996981041668,61.0,86.0
312,86.01747002291668,86.28354118541668,44.0,79.0
313,84.73175702291667,86.42282676041668,54.0,84.0
314,86.33889827291668,86.46568386041668,45.0,83.0
315,86.44604102291667,87.01925473541667,66.0,89.0
316,86.44604102291667,87.11746892291667,63.0,89.0
317,86.44604102291667,87.18175457291667,59.0,89.0
318,87.30318302291667,87.94246809791667,59.0,84.0
319,86.44604102291667,87.94603952291666,47.0,89.0
320,87.30318302291667,87.95853951041667,66.0,88.0
321,87.30318302291667,87.96925378541667,63.0,86.0
322,88.16032502291668,88.87639573541668,68.0,89.0
323,88.16032502291668,88.87996716041667,59.0,85.0
324,88.16032502291668,88.92282426041668,64.0,89.0
325,89.01746702291668,89.56389504791667,59.0,80.0
326,89.01746702291668,89.65139496041667,68.0,87.0
327,88.16032502291668,89.66032352291668,52.0,85.0
328,89.01746702291668,89.69246634791668,64.0,86.0
329,89.66032352291668,89.87460902291667,52.0,100.0
330,89.87460902291667,90.30318002291668,49.0,78.0
331,89.87460902291667,90.52996551041667,61.0,81.0
332,89.87460902291667,90.54960834791667,68.0,84.0
333,89.87460902291667,90.56925118541668,64.0,87.0
334,90.51567981041667,90.72996531041667,49.0,97.0
335,90.73175102291668,90.94067938541667,68.0,80.0
336,90.73175102291668,90.95139366041667,64.0,84.0
337,90.73175102291668,91.45675029791667,61.0,91.0
338,90.94603652291667,91.58532159791667,49.0,88.0
339,91.58889302291666,92.16924958541668,61.0,84.0
340,91.58889302291666,92.17103529791667,66.0,84.0
341,91.58889302291666,92.21210668541667,57.0,80.0
342,92.44603502291667,93.04246299791667,66.0,84.0
343,92.44603502291667,93.04960584791667,57.0,77.0
344,92.44603502291667,93.09782008541667,61.0,86.0
345,91.58889302291666,93.11746292291667,42.0,73.0
346,93.08710581041667,93.11746292291667,42.0,97.0
347,91.58889302291666,93.13889147291667,54.0,75.0
348,93.30317702291669,93.84246219791667,64.0,86.0
349,93.30317702291669,93.86031932291667,61.0,91.0
350,93.30317702291669,93.87103359791666,57.0,83.0
351,93.30317702291669,94.37460452291668,45.0,84.0
352,94.16031902291667,94.55853291041667,57.0,83.0
353,94.16031902291667,94.58353288541667,64.0,90.0
354,94.16031902291667,94.59781858541668,61.0,89.0
355,94.58710431041668,94.80138981041668,45.0,97.0
356,95.01746102291668,95.65853181041668,56.0,84.0
357,95.01746102291668,95.67638893541667,63.0,90.0
358,95.01746102291668,95.72817459791668,60.0,87.0
359,95.66031752291667,95.91746012291668,51.0,69.0
360,95.01746102291668,96.08888852291668,44.0,81.0
361,96.19603127291668,96.30317402291668,44.0,100.0
362,96.30317402291668,96.41031677291667,44.0,100.0
363,96.08888852291668,96.41210248541668,63.0,38.0
364,95.87460302291667,96.49424526041668,56.0,88.0
365,96.51745952291668,96.62460227291668,44.0,100.0
366,96.73174502291667,96.83888777291668,44.0,100.0
367,96.94603052291667,97.05317327291667,44.0,100.0
368,96.73174502291667,97.56567276041667,56.0,88.0
369,96.73174502291667,97.56924418541668,60.0,90.0
370,96.73174502291667,97.56924418541668,63.0,91.0
371,96.30317402291668,97.84424391041668,51.0,72.0
372,97.58888702291668,98.33888627291668,44.0,100.0
373,98.44602902291668,98.88710001041667,68.0,91.0
374,98.44602902291668,98.96567136041668,61.0,88.0
375,98.44602902291668,98.97281421041667,64.0,93.0
376,98.87460002291667,99.33352813541669,56.0,40.0
377,99.30317102291667,99.84959904791668,68.0,88.0
378,99.30317102291667,99.96209893541668,64.0,88.0
379,99.30317102291667,99.99602747291667,61.0,87.0
380,99.94602752291667,100.40316992291667,63.0,86.0
381,99.73174202291668,100.58352688541667,56.0,44.0
382,100.58888402291667,100.86745517291668,61.0,83.0
383,100.58888402291667,100.86745517291668,68.0,84.0
384,100.80316952291668,101.21566911041668,56.0,86.0
385,98.44602902291668,101.25674049791667,49.0,88.0
386,101.01745502291668,101.34066898541667,61.0,108.0
387,101.01745502291668,101.46388314791668,68.0,104.0
388,101.23174052291668,101.47281171041668,63.0,81.0
389,101.44602602291667,101.52816879791668,64.0,93.0
390,101.87459702291667,102.33531084791667,61.0,89.0
391,101.87459702291667,102.35138226041667,66.0,93.0
392,101.87459702291667,102.35852511041668,57.0,87.0
393,102.51745352291667,102.85673889791667,54.0,40.0
394,102.73173902291668,103.28173847291669,57.0,86.0
395,102.73173902291668,103.39602407291667,61.0,89.0
396,102.73173902291668,103.42280976041667,66.0,90.0
397,103.37459552291668,104.07459482291668,54.0,84.0
398,103.80316652291668,104.20852326041668,57.0,76.0
399,104.01745202291667,104.29780888541669,61.0,86.0
400,104.23173752291667,104.51923723541668,54.0,98.0
401,104.44602302291668,104.74423701041667,66.0,102.0
402,104.44602302291668,104.80673694791668,57.0,109.0
403,101.87459702291667,104.90673684791668,42.0,83.0
404,103.16031002291668,104.95137966041668,49.0,65.0
405,104.87459402291668,105.19066513541668,61.0,88.0
406,104.66030852291668,105.23887937291667,54.0,88.0
407,105.30316502291667,105.57459332291668,59.0,88.0
408,105.08887952291667,105.79602167291668,66.0,88.0
409,105.30316502291667,105.83530734791668,63.0,93.0
410,106.16030702291667,106.62459227291669,61.0,88.0
411,106.16030702291667,106.70852076041668,66.0,100.0
412,106.58887802291667,107.11566321041667,59.0,67.0
413,107.01744902291668,107.52459137291667,63.0,96.0
414,107.01744902291668,107.52994851041667,66.0,98.0
415,107.44602002291668,107.78530539791667,59.0,78.0
416,105.73173602291668,107.88709101041668,54.0,68.0
417,108.08887652291668,108.31387629791668,54.0,84.0
418,105.30316502291667,108.35851911041668,47.0,84.0
419,107.66030552291667,108.37280481041668,61.0,98.0
420,108.30316202291668,108.49423326041668,63.0,91.0
421,108.73173302291667,109.36030382291668,56.0,88.0
422,108.73173302291667,109.38173237291667,59.0,88.0
423,108.51744752291668,109.38708951041667,66.0,84.0
424,109.37458952291668,109.57280361041667,52.0,75.0
425,109.58887502291668,110.03887457291668,56.0,88.0
426,109.58887502291668,110.10851736041668,59.0,92.0
427,108.73173302291667,110.11030307291668,40.0,88.0
428,109.16030402291668,110.15494588541668,47.0,64.0
429,109.58887502291668,110.39423136041668,66.0,93.0
430,110.01744602291667,110.43887417291668,52.0,75.0
431,110.44601702291668,110.70315962291667,56.0,89.0
432,110.44601702291668,110.94423081041668,60.0,93.0
433,110.44601702291668,111.01208788541668,63.0,98.0
434,110.44601702291668,111.27101619791668,66.0,88.0
435,111.08887352291667,111.34423041041667,56.0,87.0
436,111.30315902291667,111.56565876041668,60.0,113.0
437,110.87458802291668,111.79244424791668,51.0,74.0
438,110.44601702291668,111.81208708541668,44.0,83.0
439,111.73173002291668,112.00494403541667,61.0,93.0
440,111.51744452291668,112.15672959791668,56.0,98.0
441,111.94601552291668,112.17101529791668,63.0,85.0
442,112.16030102291668,112.59065773541668,68.0,88.0
443,112.16030102291668,112.62458627291667,64.0,90.0
444,112.16030102291668,112.62994341041667,61.0,88.0
445,112.58887202291668,113.11387149791668,56.0,72.0
446,113.01744302291668,113.57279961041668,68.0,89.0
447,113.01744302291668,113.61387099791668,63.0,89.0
448,113.66029952291667,113.75315657291668,64.0,90.0
449,113.66029952291667,113.76565656041667,61.0,87.0
450,113.66029952291667,113.77815654791668,68.0,82.0
451,113.44601402291667,114.13708476041668,56.0,66.0
452,114.08887052291668,114.61922713541668,68.0,87.0
453,114.08887052291668,114.62458427291668,63.0,88.0
454,114.51744152291668,115.01208388541667,56.0,84.0
455,114.73172702291667,115.15315517291668,64.0,104.0
456,112.16030102291668,115.17458372291668,49.0,83.0
457,114.73172702291667,115.18351228541668,68.0,84.0
458,114.73172702291667,115.21029797291668,61.0,100.0
459,115.16029802291668,115.31386929791668,63.0,88.0
460,115.37458352291668,115.45851201041668,61.0,71.0
461,115.58886902291668,115.97815434791667,66.0,94.0
462,115.58886902291668,116.00494003541668,61.0,88.0
463,115.58886902291668,116.00672574791668,57.0,100.0
464,116.44601102291668,116.53172522291668,66.0,93.0
465,116.44601102291668,116.53708236041668,57.0,89.0
466,117.08886752291667,117.16565316041668,61.0,90.0
467,116.87458202291668,117.65315267291668,54.0,67.0
468,117.51743852291668,117.95315237291668,66.0,100.0
469,117.51743852291668,118.01743802291668,57.0,90.0
470,117.94600952291668,118.19422356041667,54.0,84.0
471,115.58886902291668,118.55493748541667,42.0,82.0
472,118.16029502291669,118.58172317291668,66.0,107.0
473,118.16029502291669,118.59779458541668,57.0,106.0
474,116.01744002291667,118.63886597291668,49.0,67.0
475,118.58886602291668,118.97993706041667,61.0,88.0
476,118.37458052291667,119.01922273541668,54.0,81.0
477,119.01743702291668,119.30315102291668,59.0,88.0
478,119.01743702291668,119.47279371041668,63.0,91.0
479,118.80315152291668,119.48886512291668,66.0,87.0
480,119.87457902291668,120.43172132291667,66.0,90.0
481,119.87457902291668,120.45672129791667,61.0,90.0
482,120.30315002291668,120.83350663541668,59.0,65.0
483,120.51743552291668,120.86922088541668,66.0,85.0
484,120.51743552291668,120.92457797291668,63.0,88.0
485,120.94600652291668,121.39957749791668,66.0,78.0
486,120.94600652291668,121.41207748541667,61.0,84.0
487,121.37457752291668,121.71029147291668,59.0,88.0
488,119.44600802291667,121.84779133541667,54.0,65.0
489,119.01743702291668,122.04064828541668,47.0,86.0
490,121.58886302291668,122.04421971041668,61.0,107.0
491,121.58886302291668,122.05314827291667,66.0,104.0
492,122.01743402291667,122.38707651041668,63.0,89.0
493,122.44600502291668,122.95221471041668,68.0,94.0
494,122.44600502291668,123.23307887916668,61.0,89.0
495,122.87529012916669,123.39428499375002,56.0,65.0
496,123.30463662916668,123.90957436041668,63.0,104.0
497,123.95086932708335,124.02986839375002,64.0,92.0
498,123.95086932708335,124.03166382708335,61.0,87.0
499,123.73541732708335,124.64269120625002,56.0,74.0
500,124.38275260625001,124.83222976875001,66.0,86.0
501,124.38275260625001,124.85930670625001,63.0,88.0
502,125.03259910625002,125.31780951458335,68.0,91.0
503,125.03259910625002,125.42792239375001,61.0,107.0
504,124.81598360625001,125.46583010625001,56.0,86.0
505,122.44600502291668,125.50373781875001,49.0,85.0
506,125.24921460625002,125.58677376041668,63.0,83.0
507,125.46583010625001,125.65717379791668,64.0,83.0
508,125.68244560625001,125.78894822708335,63.0,38.0
509,125.89903515208334,126.60439158958334,61.0,84.0
510,125.89903515208334,126.60617730208335,68.0,88.0
511,125.89903515208334,126.65974867708334,64.0,87.0
512,126.75617715208335,127.39010508958334,61.0,86.0
513,126.75617715208335,127.39189080208335,68.0,85.0
514,126.75617715208335,127.43117647708335,64.0,87.0
515,127.39903365208335,127.97939021458335,54.0,80.0
516,125.89903515208334,128.06867583958334,42.0,88.0
517,127.61331915208335,128.62581813958334,61.0,84.0
518,127.61331915208335,128.67403237708334,68.0,85.0
519,127.61331915208335,128.71688947708336,64.0,86.0
520,128.25617565208336,128.78296083958335,42.0,96.0
521,128.68474665208336,128.89903215208335,61.0,87.0
522,128.89903215208335,129.18296043958335,63.0,87.0
523,128.47046115208335,129.23831752708335,54.0,113.0
524,129.32760315208336,129.80974552708335,68.0,84.0
525,129.32760315208336,129.85260262708334,61.0,87.0
526,129.32760315208336,129.98295963958336,64.0,84.0
527,129.97045965208335,130.44010203958334,56.0,58.0
528,130.18474515208334,131.05438713958335,68.0,83.0
529,130.18474515208334,131.12760135208336,63.0,87.0
530,130.18474515208334,131.14188705208335,64.0,85.0
531,131.04188715208335,131.72402932708334,56.0,79.0
532,131.47045815208335,131.74902930208336,63.0,76.0
533,131.89902915208336,132.11331465208335,56.0,86.0
534,131.68474365208334,132.12938606458334,64.0,107.0
535,129.32760315208336,132.17045745208335,49.0,87.0
536,132.11331465208335,132.41510006458336,63.0,87.0
537,132.75617115208334,133.28117062708336,68.0,75.0
538,132.75617115208334,133.43474190208335,61.0,78.0
539,132.32760015208333,133.48474185208335,64.0,87.0
540,133.61331315208335,134.15081261458334,68.0,77.0
541,133.61331315208335,134.27759820208334,61.0,75.0
542,132.75617115208334,134.73652631458336,54.0,84.0
543,134.47045515208336,135.10795451458335,68.0,86.0
544,133.61331315208335,135.17938301458335,64.0,74.0
545,134.47045515208336,135.18474015208335,61.0,81.0
546,135.11331165208335,135.43831132708334,54.0,72.0
547,135.32759715208334,135.67045395208334,68.0,90.0
548,132.75617115208334,135.69545392708335,42.0,82.0
549,135.32759715208334,135.76509671458334,64.0,91.0
550,135.32759715208334,135.83831092708334,61.0,90.0
551,135.54188265208336,135.85259662708336,54.0,85.0
552,135.75616815208335,136.04366786458334,63.0,83.0
553,136.18473915208335,136.82045280208334,68.0,80.0
554,136.18473915208335,136.87938131458336,61.0,86.0
555,136.18473915208335,136.88652416458336,63.0,86.0
556,136.18473915208335,136.95259552708336,64.0,84.0
557,137.04188115208336,137.64188055208336,68.0,84.0
558,137.04188115208336,137.71866618958336,61.0,76.0
559,137.04188115208336,137.75080901458335,63.0,78.0
560,137.04188115208336,137.81509466458334,64.0,79.0
561,137.89902315208334,138.43295118958335,68.0,68.0
562,137.89902315208334,138.51330825208336,63.0,74.0
563,137.89902315208334,138.52580823958334,61.0,76.0
564,137.89902315208334,138.55437963958335,64.0,74.0
565,138.54187965208334,138.99366491458335,56.0,76.0
566,136.18473915208335,139.11509336458334,49.0,84.0
567,138.75616515208335,139.23473610208336,63.0,90.0
568,139.18473615208336,139.61509286458335,64.0,88.0
569,139.61330715208334,139.61509286458335,64.0,80.0
570,139.39902165208335,140.33830642708335,68.0,81.0
571,139.61330715208334,140.35794926458334,61.0,85.0
572,140.47044915208335,141.16687702708336,68.0,83.0
573,139.61330715208334,141.63116227708335,54.0,83.0
574,141.32759115208336,141.97223336458336,68.0,80.0
575,140.47044915208335,142.03830472708336,61.0,82.0
576,140.47044915208335,142.09009038958334,64.0,80.0
577,142.18473315208334,142.48294713958336,63.0,89.0
578,139.61330715208334,142.50794711458335,42.0,83.0
579,141.97044765208335,143.09187510208335,54.0,70.0
580,143.04187515208335,143.59544602708334,68.0,77.0
581,143.04187515208335,143.79366011458336,61.0,77.0
582,142.39901865208336,143.83651721458335,64.0,81.0
583,143.89901715208336,144.53473080208335,68.0,81.0
584,143.89901715208336,144.65437353958336,61.0,78.0
585,143.89901715208336,144.68830207708334,64.0,78.0
586,144.75615915208334,145.35615855208334,68.0,80.0
587,144.75615915208334,145.46330130208335,61.0,76.0
588,144.75615915208334,145.49365841458336,64.0,78.0
589,145.61330115208335,146.09008638958335,68.0,83.0
590,145.61330115208335,146.29901475208334,61.0,88.0
591,145.61330115208335,146.31151473958334,64.0,88.0
592,143.04187515208335,146.44544317708335,49.0,76.0
593,146.47044315208336,147.05972827708337,68.0,84.0
594,146.47044315208336,147.20794241458336,63.0,84.0
595,146.47044315208336,147.20972812708334,61.0,82.0
596,146.47044315208336,147.26865663958336,64.0,84.0
597,147.32758515208334,147.97758450208335,68.0,83.0
598,147.32758515208334,148.08294153958335,61.0,78.0
599,147.32758515208334,148.08829867708334,63.0,79.0
600,147.32758515208334,148.11687007708335,64.0,79.0
601,146.47044315208336,148.56686962708335,42.0,82.0
602,146.47044315208336,148.83115507708334,54.0,83.0
603,148.18472715208335,149.14008333958336,68.0,84.0
604,148.18472715208335,149.15794046458336,61.0,85.0
605,148.18472715208335,149.17044045208334,63.0,85.0
606,148.18472715208335,149.17579758958334,64.0,84.0
607,148.82758365208335,149.39722593958334,42.0,91.0
608,149.25615465208335,149.57401147708336,61.0,89.0
609,149.47044015208334,149.79008268958336,63.0,84.0
610,149.68472565208336,149.85258262708334,64.0,65.0
611,149.04186915208334,149.91329685208336,54.0,107.0
612,149.89901115208335,150.52043910208334,68.0,87.0
613,149.89901115208335,150.56151048958336,63.0,88.0
614,149.89901115208335,150.58829617708335,60.0,84.0
615,149.89901115208335,151.93472340208336,56.0,80.0
616,150.75615315208336,152.24186595208334,68.0,71.0
617,150.75615315208336,152.27043735208335,60.0,70.0
618,150.75615315208336,152.27043735208335,63.0,73.0
619,152.47043715208335,152.67043695208335,68.0,87.0
620,152.47043715208335,153.21686497708336,60.0,90.0
621,152.25615165208336,153.25793636458334,56.0,84.0
622,149.89901115208335,153.26329350208334,44.0,77.0
623,152.89900815208335,153.26329350208334,68.0,86.0
624,152.68472265208334,153.28472205208334,63.0,83.0
625,153.32757915208336,154.61329215208335,49.0,82.0
626,154.82757765208336,155.04186315208335,49.0,100.0
627,155.04186315208335,155.68471965208334,49.0,91.0
628,155.68293393958336,155.68471965208334,49.0,97.0
629,154.18293543958336,155.68471965208334,61.0,85.0
630,154.18293543958336,155.73293388958336,63.0,88.0
631,154.18293543958336,155.76150528958334,64.0,87.0
632,154.18293543958336,155.82757665208334,68.0,88.0
633,156.22043340208336,156.32936186458335,44.0,91.0
634,155.89900515208336,156.50614740208334,61.0,85.0
635,155.89900515208336,156.55436163958336,63.0,88.0
636,155.89900515208336,156.58293303958334,64.0,87.0
637,156.32757615208334,156.61686157708334,49.0,93.0
638,155.89900515208336,156.64900440208336,68.0,88.0
639,156.64900440208336,156.75614715208334,52.0,92.0
640,156.75614715208334,157.97221736458334,57.0,98.0
641,156.75614715208334,158.04543157708335,61.0,98.0
642,156.75614715208334,158.25614565208335,54.0,98.0
643,158.25614565208335,158.47043115208334,54.0,100.0
644,157.61150343958334,158.88471645208335,64.0,98.0
645,158.47043115208334,158.89900215208337,56.0,79.0
646,157.61150343958334,158.96507351458337,66.0,98.0
647,159.11328765208336,159.32757315208335,56.0,100.0
648,159.32757315208335,160.18471515208336,44.0,100.0
649,159.32757315208335,160.32221501458335,63.0,81.0
650,159.32757315208335,160.34185785208336,60.0,78.0
651,159.32757315208335,160.35435783958334,66.0,73.0
652,160.18471515208336,161.36328540208336,49.0,82.0
653,161.68471365208336,161.89899915208335,49.0,100.0
654,161.04007143958336,162.41864148958337,61.0,81.0
655,161.04007143958336,162.57042705208335,68.0,85.0
656,161.04007143958336,162.59721273958337,63.0,84.0
657,161.04007143958336,162.68471265208336,64.0,83.0
658,161.89899915208335,162.97042665208335,49.0,91.0
659,163.07756940208336,163.18649786458334,44.0,91.0
660,162.75614115208336,163.24721208958334,61.0,81.0
661,162.75614115208336,163.39899765208335,68.0,85.0
662,162.75614115208336,163.42578333958335,63.0,84.0
663,163.18471215208336,163.47399757708337,49.0,93.0
664,162.75614115208336,163.51328325208334,64.0,83.0
665,163.50614040208336,163.61328315208334,52.0,95.0
666,164.46863943958334,164.87399617708337,57.0,80.0
667,164.46863943958334,164.89006758958334,61.0,79.0
668,164.46863943958334,165.11149593958336,66.0,81.0
669,163.61328315208334,165.35078141458337,54.0,78.0
670,165.32756715208336,166.20970912708336,63.0,75.0
671,165.32756715208336,166.23470910208334,60.0,83.0
672,165.32756715208336,166.24363766458336,66.0,81.0
673,165.32756715208336,166.31863758958335,56.0,71.0
674,166.18470915208334,166.60613730208337,68.0,81.0
675,166.18470915208334,166.69185150208335,64.0,83.0
676,166.18470915208334,167.04899400208336,49.0,83.0
677,167.04185115208335,168.27756420208334,57.0,84.0
678,167.04185115208335,168.36327840208335,66.0,88.0
679,166.18470915208334,168.36684982708334,61.0,78.0
680,167.04185115208335,168.54184965208336,42.0,75.0
681,167.04185115208335,168.64006383958335,54.0,78.0
682,168.54184965208336,168.75613515208335,42.0,100.0
683,168.75613515208335,169.73649131458336,63.0,87.0
684,168.75613515208335,170.04363386458334,66.0,82.0
685,168.75613515208335,170.08113382708336,59.0,79.0
686,168.75613515208335,170.25613365208335,47.0,87.0
687,170.25613365208335,170.47041915208337,47.0,100.0
688,170.47041915208337,171.09898995208334,68.0,86.0
689,170.47041915208337,171.11684707708335,59.0,80.0
690,170.47041915208337,171.14541847708335,64.0,85.0
691,171.32756115208335,171.85613205208335,59.0,81.0
692,171.32756115208335,171.89363201458335,68.0,84.0
693,171.32756115208335,171.90791771458336,64.0,85.0
694,170.47041915208337,171.96863193958336,52.0,81.0
695,171.96863193958336,171.97041765208337,52.0,81.0
696,171.96863193958336,171.97041765208337,52.0,97.0
697,172.18470315208336,172.61327415208336,49.0,74.0
698,172.18470315208336,172.77220256458335,68.0,82.0
699,172.18470315208336,172.80255967708337,64.0,84.0
700,172.18470315208336,172.82755965208335,61.0,81.0
701,172.82577393958337,173.04184515208334,51.0,86.0
702,173.04184515208334,173.33470200208336,68.0,84.0
703,173.04184515208334,173.38291623958335,64.0,86.0
704,173.04184515208334,173.89898715208335,52.0,91.0
705,173.89898715208335,174.46862943958337,57.0,80.0
706,173.89898715208335,174.48291513958335,66.0,86.0
707,173.04184515208334,174.52934366458334,61.0,88.0
708,173.89898715208335,175.18470015208334,42.0,77.0
709,174.75612915208336,175.39898565208335,57.0,78.0
710,174.75612915208336,175.48648556458335,66.0,79.0
711,174.75612915208336,175.55434263958335,61.0,76.0
712,175.39898565208335,175.61327115208337,42.0,100.0
713,173.89898715208335,175.77755670208336,54.0,70.0
714,175.61148543958336,176.25434193958336,57.0,78.0
715,175.61148543958336,176.34184185208335,66.0,79.0
716,175.61148543958336,176.40969892708335,61.0,76.0
717,176.25612765208336,176.52755595208336,57.0,80.0
718,176.46862743958337,176.52755595208336,57.0,78.0
719,176.04184215208335,176.97041265208335,54.0,77.0
720,175.61327115208337,177.11326965208335,42.0,100.0
721,176.46862743958337,177.19898385208336,66.0,79.0
722,176.89898415208336,177.19898385208336,66.0,84.0
723,176.46862743958337,177.26684092708336,61.0,76.0
724,177.32755515208336,178.82755365208334,44.0,83.0
725,178.18469715208334,178.91148213958337,61.0,88.0
726,178.82755365208334,178.93469640208335,44.0,96.0
727,179.04183915208336,179.62219571458337,56.0,96.0
728,179.04183915208336,179.67576708958336,60.0,98.0
729,179.04183915208336,179.68290993958334,63.0,98.0
730,179.04183915208336,179.68469565208335,66.0,98.0
731,177.75612615208337,180.06505241458336,51.0,89.0
732,179.68290993958334,180.28469505208335,44.0,90.0
733,179.89719543958336,180.70612320208335,56.0,96.0
734,179.89719543958336,180.75969457708337,60.0,98.0
735,179.89719543958336,180.76683742708335,63.0,98.0
736,180.75612315208335,180.76683742708335,63.0,83.0
737,179.89719543958336,180.76862313958335,66.0,98.0
738,180.75612315208335,182.04897900208334,61.0,78.0
739,180.75612315208335,182.07397897708336,68.0,83.0
740,180.75612315208335,182.25612165208335,49.0,77.0
741,180.75612315208335,182.25790736458336,64.0,81.0
742,182.25612165208335,182.47040715208334,49.0,100.0
743,182.04183615208336,182.90790671458336,56.0,56.0
744,182.89897815208337,183.40790621458336,61.0,79.0
745,183.32754915208335,183.72933446458336,63.0,89.0
746,183.32754915208335,183.80790581458336,56.0,79.0
747,183.75612015208335,183.85254862708337,64.0,84.0
748,183.32754915208335,183.86326290208336,68.0,100.0
749,182.47040715208334,184.18469115208336,49.0,100.0
750,184.18469115208336,185.28469005208336,61.0,84.0
751,184.18469115208336,185.36504711458335,57.0,81.0
752,184.18469115208336,185.45611845208336,66.0,85.0
753,184.18469115208336,185.68468965208336,54.0,81.0
754,185.68468965208336,185.89897515208335,54.0,80.0
755,185.89897515208335,186.31147473958336,63.0,81.0
756,185.89897515208335,186.32218901458336,66.0,77.0
757,185.89897515208335,186.32754615208336,60.0,81.0
758,185.89897515208335,186.54183165208335,56.0,77.0
759,186.54004593958336,186.54183165208335,56.0,97.0
760,186.75611715208336,187.38290223958336,63.0,81.0
761,186.75611715208336,187.39361651458336,66.0,77.0
762,186.75611715208336,187.39897365208336,60.0,81.0
763,187.39897365208336,187.61325915208334,56.0,100.0
764,187.61325915208334,188.89897215208336,49.0,84.0
765,187.61325915208334,188.90968642708336,68.0,86.0
766,187.61325915208334,188.92754355208336,61.0,77.0
767,187.61325915208334,188.96861493958335,64.0,87.0
768,187.61325915208334,189.00611490208337,63.0,85.0
769,189.11147193958334,189.32575743958336,49.0,97.0
770,189.54182865208335,189.93825682708336,61.0,64.0
771,189.54182865208335,189.97575678958336,64.0,84.0
772,189.11325765208335,189.98825677708334,63.0,86.0
773,190.18468515208338,190.48289913958337,68.0,87.0
774,190.18468515208338,190.54718478958335,64.0,89.0
775,190.18468515208338,190.62218471458334,61.0,86.0
776,188.89897215208336,190.82754165208337,56.0,40.0
777,189.32575743958336,191.04004143958338,49.0,97.0
778,191.04182715208336,192.05432613958334,57.0,79.0
779,191.04182715208336,192.17218316458337,61.0,88.0
780,191.04182715208336,192.25075451458338,64.0,87.0
781,191.04182715208336,192.54182565208336,54.0,81.0
782,192.54003993958335,192.54182565208336,54.0,97.0
783,192.75611115208335,193.46325330208336,56.0,80.0
784,193.39896765208334,193.61325315208336,44.0,100.0
785,192.75611115208335,193.63646741458336,60.0,86.0
786,192.75611115208335,193.66682452708335,63.0,88.0
787,193.61325315208336,193.66682452708335,63.0,88.0
788,192.75611115208335,193.67396737708336,66.0,84.0
789,193.61325315208336,194.13825262708338,68.0,87.0
790,193.61325315208336,194.14539547708335,64.0,88.0
791,193.61325315208336,194.38825237708335,61.0,85.0
792,193.61325315208336,194.46503801458334,49.0,84.0
793,194.47039515208337,195.32753715208335,42.0,83.0
794,195.32575143958337,195.70967962708335,66.0,89.0
795,194.47039515208337,195.77753670208335,57.0,88.0
796,195.64896540208338,195.79003668958336,42.0,72.0
797,195.32575143958337,195.96860793958336,61.0,86.0
798,195.75610815208336,196.02217931458335,44.0,79.0
799,194.47039515208337,196.16146488958336,54.0,84.0
800,196.07753640208335,196.20432198958338,45.0,83.0
801,196.18467915208336,196.75789286458337,66.0,89.0
802,196.18467915208336,196.85610705208336,63.0,89.0
803,196.18467915208336,196.92039270208335,59.0,89.0
804,197.04182115208334,197.68110622708338,59.0,84.0
805,196.18467915208336,197.68467765208334,47.0,89.0
806,197.04182115208334,197.69717763958334,66.0,88.0
807,197.04182115208334,197.70789191458334,63.0,86.0
808,197.89896315208335,198.61503386458335,68.0,89.0
809,197.89896315208335,198.61860528958334,59.0,85.0
810,197.89896315208335,198.66146238958336,64.0,89.0
811,198.75610515208336,199.30253317708338,59.0,80.0
812,198.75610515208336,199.39003308958337,68.0,87.0
813,197.89896315208335,199.39896165208336,52.0,85.0
814,198.75610515208336,199.43110447708335,64.0,86.0
815,199.39896165208336,199.61324715208337,52.0,100.0
816,199.61324715208337,200.04181815208335,49.0,78.0
817,199.61324715208337,200.26860363958338,61.0,81.0
818,199.61324715208337,200.28824647708336,68.0,84.0
819,199.61324715208337,200.30788931458335,64.0,87.0
820,200.25431793958336,200.46860343958338,49.0,97.0
821,200.47038915208336,200.67931751458337,68.0,80.0
822,200.47038915208336,200.69003178958337,64.0,84.0
823,200.47038915208336,201.19538842708334,61.0,91.0
824,200.68467465208334,201.32395972708338,49.0,88.0
825,201.32753115208334,201.90788771458335,61.0,84.0
826,201.32753115208334,201.90967342708336,66.0,84.0
827,201.32753115208334,201.95074481458335,57.0,80.0
828,202.18467315208335,202.78110112708336,66.0,84.0
829,202.18467315208335,202.78824397708337,57.0,77.0
830,202.18467315208335,202.83645821458336,61.0,86.0
831,201.32753115208334,202.85610105208337,42.0,73.0
832,202.82574393958336,202.85610105208337,42.0,97.0
833,201.32753115208334,202.87752960208337,54.0,75.0
834,203.04181515208336,203.58110032708336,64.0,86.0
835,203.04181515208336,203.59895745208337,61.0,91.0
836,203.04181515208336,203.60967172708337,57.0,83.0
837,203.04181515208336,204.11324265208336,45.0,84.0
838,203.89895715208337,204.29717103958336,57.0,83.0
839,203.89895715208337,204.32217101458338,64.0,90.0
840,203.89895715208337,204.33645671458336,61.0,89.0
841,204.32574243958337,204.54002793958335,45.0,97.0
842,204.75609915208338,205.39716993958336,56.0,84.0
843,204.75609915208338,205.41502706458334,63.0,90.0
844,204.75609915208338,205.46681272708338,60.0,87.0
845,205.39895565208337,205.65609825208335,51.0,69.0
846,204.75609915208338,205.82752665208335,44.0,81.0
847,205.93466940208336,206.04181215208337,44.0,100.0
848,206.04181215208337,206.14895490208335,44.0,100.0
849,205.82752665208335,206.15074061458336,63.0,38.0
850,205.61324115208336,206.23288338958338,56.0,88.0
851,206.25609765208335,206.36324040208336,44.0,100.0
852,206.47038315208334,206.57752590208335,44.0,100.0
853,206.68466865208336,206.79181140208334,44.0,100.0
854,206.47038315208334,207.30431088958335,56.0,88.0
855,206.47038315208334,207.30788231458337,60.0,90.0
856,206.47038315208334,207.30788231458337,63.0,91.0
857,206.04181215208337,207.58288203958335,51.0,72.0
858,207.32752515208335,208.07752440208336,44.0,100.0
859,208.19538142708336,208.63645241458335,68.0,91.0
860,208.19538142708336,208.71502376458335,61.0,88.0
861,208.19538142708336,208.72216661458336,64.0,93.0
862,208.62395242708334,209.08288053958336,56.0,40.0
863,209.05252342708337,209.59895145208336,68.0,88.0
864,209.05252342708337,209.71145133958336,64.0,88.0
865,209.05252342708337,209.74537987708337,61.0,87.0
866,209.69537992708337,210.15252232708337,63.0,86.0
867,209.48109442708335,210.33287928958336,56.0,44.0
868,210.33823642708336,210.61680757708336,61.0,83.0
869,210.33823642708336,210.61680757708336,68.0,84.0
870,210.55252192708338,210.96502151458336,56.0,86.0
871,208.19538142708336,211.00609290208337,49.0,88.0
872,210.76680742708336,211.09002138958334,61.0,108.0
873,210.76680742708336,211.21323555208335,68.0,104.0
874,210.98109292708335,211.22216411458336,63.0,81.0
875,211.19537842708337,211.27752120208336,64.0,93.0
876,211.62394942708335,212.08466325208337,61.0,89.0
877,211.62394942708335,212.10073466458334,66.0,93.0
878,211.62394942708335,212.10787751458338,57.0,87.0
879,212.26680592708334,212.60609130208337,54.0,40.0
880,212.48109142708336,213.03109087708336,57.0,86.0
881,212.48109142708336,213.14537647708335,61.0,89.0
882,212.48109142708336,213.17216216458337,66.0,90.0
883,213.12394792708335,213.82394722708335,54.0,84.0
884,213.55251892708336,213.95787566458336,57.0,76.0
885,213.76680442708334,214.04716128958336,61.0,86.0
886,213.98108992708336,214.26858963958335,54.0,98.0
887,214.19537542708338,214.49358941458337,66.0,102.0
888,214.19537542708338,214.55608935208335,57.0,109.0
889,211.62394942708335,214.65608925208335,42.0,83.0
890,212.90966242708336,214.70073206458335,49.0,65.0
891,214.62394642708335,214.94001753958338,61.0,88.0
892,214.40966092708337,214.98823177708334,54.0,88.0
893,215.05251742708336,215.32394572708336,59.0,88.0
894,214.83823192708337,215.54537407708335,66.0,88.0
895,215.05251742708336,215.58465975208335,63.0,93.0
896,215.90965942708334,216.37394467708336,61.0,88.0
897,215.90965942708334,216.45787316458336,66.0,100.0
898,216.33823042708337,216.86501561458334,59.0,67.0
899,216.76680142708335,217.27394377708336,63.0,96.0
900,216.76680142708335,217.27930091458336,66.0,98.0
901,217.19537242708336,217.53465780208336,59.0,78.0
902,215.48108842708336,217.63644341458337,54.0,68.0
903,217.83822892708338,218.06322870208336,54.0,84.0
904,215.05251742708336,218.10787151458337,47.0,84.0
905,217.40965792708334,218.12215721458335,61.0,98.0
906,218.05251442708337,218.24358566458335,63.0,91.0
907,218.48108542708337,219.10965622708335,56.0,88.0
908,218.48108542708337,219.13108477708334,59.0,88.0
909,218.26679992708335,219.13644191458337,66.0,84.0
910,219.12394192708337,219.32215601458336,52.0,75.0
911,219.33822742708335,219.78822697708335,56.0,88.0
912,219.33822742708335,219.85786976458337,59.0,92.0
913,218.48108542708337,219.85965547708338,40.0,88.0
914,218.90965642708335,219.90429828958338,47.0,64.0
915,219.33822742708335,220.14358376458335,66.0,93.0
916,219.76679842708336,220.18822657708336,52.0,75.0
917,220.19536942708336,220.45251202708334,56.0,89.0
918,220.19536942708336,220.69358321458336,60.0,93.0
919,220.19536942708336,220.76144028958336,63.0,98.0
920,220.19536942708336,221.02036860208335,66.0,88.0
921,220.83822592708336,221.09358281458336,56.0,87.0
922,221.05251142708335,221.31501116458335,60.0,113.0
923,220.62394042708337,221.54179665208335,51.0,74.0
924,220.19536942708336,221.56143948958336,44.0,83.0
925,221.48108242708338,221.75429643958336,61.0,93.0
926,221.26679692708336,221.90608200208337,56.0,98.0
927,221.69536792708337,221.92036770208335,63.0,85.0
928,221.90965342708336,222.34001013958334,68.0,88.0
929,221.90965342708336,222.37393867708334,64.0,90.0
930,221.90965342708336,222.37929581458337,61.0,88.0
931,222.33822442708336,222.86322390208335,56.0,72.0
932,222.76679542708337,223.32215201458337,68.0,89.0
933,222.76679542708337,223.36322340208335,63.0,89.0
934,223.40965192708336,223.50250897708338,64.0,90.0
935,223.40965192708336,223.51500896458336,61.0,87.0
936,223.40965192708336,223.52750895208337,68.0,82.0
937,223.19536642708334,223.88643716458336,56.0,66.0
938,223.83822292708336,224.36857953958338,68.0,87.0
939,223.83822292708336,224.37393667708335,63.0,88.0
940,224.26679392708337,224.76143628958334,56.0,84.0
941,224.48107942708336,224.90250757708336,64.0,104.0
942,221.90965342708336,224.92393612708338,49.0,83.0
943,224.48107942708336,224.93286468958337,68.0,84.0
944,224.48107942708336,224.95965037708336,61.0,100.0
945,224.90965042708336,225.06322170208335,63.0,88.0
946,225.12393592708338,225.20786441458336,61.0,71.0
947,225.33822142708334,225.72750675208334,66.0,94.0
948,225.33822142708334,225.75429243958337,61.0,88.0
949,225.33822142708334,225.75607815208338,57.0,100.0
950,226.19536342708335,226.28107762708336,66.0,93.0
951,226.19536342708335,226.28643476458336,57.0,89.0
952,226.83821992708334,226.91500556458337,61.0,90.0
953,226.62393442708336,227.40250507708336,54.0,67.0
954,227.26679092708338,227.70250477708336,66.0,100.0
955,227.26679092708338,227.76679042708338,57.0,90.0
956,227.69536192708335,227.94357596458337,54.0,84.0
957,225.33822142708334,228.30428988958334,42.0,82.0
958,227.90964742708337,228.33107557708337,66.0,107.0
959,227.90964742708337,228.34714698958336,57.0,106.0
960,225.76679242708337,228.38821837708338,49.0,67.0
961,228.33821842708335,228.72928946458336,61.0,88.0
962,228.12393292708336,228.76857513958336,54.0,81.0
963,228.76678942708338,229.05250342708337,59.0,88.0
964,228.76678942708338,229.22214611458338,63.0,91.0
965,228.55250392708336,229.23821752708335,66.0,87.0
966,229.62393142708336,230.18107372708334,66.0,90.0
967,229.62393142708336,230.20607370208336,61.0,90.0
968,230.05250242708337,230.58285903958335,59.0,65.0
969,230.26678792708336,230.61857328958337,66.0,85.0
970,230.26678792708336,230.67393037708337,63.0,88.0
971,230.69535892708336,231.14892990208335,66.0,78.0
972,230.69535892708336,231.16142988958336,61.0,84.0
973,231.12392992708337,231.45964387708335,59.0,88.0
974,229.19536042708336,231.59714373958337,54.0,65.0
975,228.76678942708338,231.79000068958337,47.0,86.0
976,231.33821542708336,231.79357211458336,61.0,107.0
977,231.33821542708336,231.80250067708334,66.0,104.0
978,231.76678642708336,232.13642891458335,63.0,89.0
979,232.19535742708337,232.70071406458337,68.0,94.0
980,232.19535742708337,232.98107092708335,61.0,89.0
981,232.62392842708334,233.14178505208338,56.0,65.0
982,233.05249942708338,233.65428453958336,63.0,104.0
983,233.69535592708337,233.77392727708337,64.0,92.0
984,233.69535592708337,233.77571298958338,61.0,87.0
985,233.48107042708335,234.38106952708335,56.0,74.0
986,234.12392692708335,234.56856933958335,66.0,86.0
987,234.12392692708335,234.59535502708337,63.0,88.0
988,234.76678342708337,235.04892600208336,68.0,91.0
989,234.76678342708337,235.15785446458335,61.0,107.0
990,234.55249792708338,235.19535442708337,56.0,86.0
991,232.19535742708337,235.23285438958337,49.0,85.0
992,234.98106892708336,235.31499716458336,63.0,83.0
993,235.19535442708337,235.38463995208338,64.0,83.0
994,235.40963992708336,235.51499696458336,63.0,38.0
995,235.62392542708335,236.06499641458336,68.0,91.0
996,235.62392542708335,236.14356776458337,61.0,88.0
997,235.62392542708335,236.15071061458337,64.0,93.0
998,236.05249642708338,236.51142453958334,56.0,40.0
999,236.48106742708336,237.02749545208337,68.0,88.0
1000,236.48106742708336,237.13999533958338,64.0,88.0
1001,236.48106742708336,237.17392387708338,61.0,87.0
1002,237.12392392708335,237.58106632708336,63.0,86.0
1003,236.90963842708337,237.76142328958338,56.0,44.0
1004,237.76678042708335,238.04535157708335,61.0,83.0
1005,237.76678042708335,238.04535157708335,68.0,84.0
1006,237.98106592708336,238.39356551458337,56.0,86.0
1007,235.62392542708335,238.43463690208335,49.0,88.0
1008,238.19535142708338,238.51856538958336,61.0,108.0
1009,238.19535142708338,238.64177955208336,68.0,104.0
1010,238.40963692708337,238.65070811458338,63.0,81.0
1011,238.62392242708336,238.70606520208338,64.0,93.0
1012,239.05249342708336,239.51320725208336,61.0,89.0
1013,239.05249342708336,239.52927866458336,66.0,93.0
1014,239.05249342708336,239.53642151458337,57.0,87.0
1015,239.69534992708336,240.03463530208336,54.0,40.0
1016,239.90963542708334,240.45963487708337,57.0,86.0
1017,239.90963542708334,240.57392047708336,61.0,89.0
1018,239.90963542708334,240.60070616458336,66.0,90.0
1019,240.55249192708337,241.25249122708337,54.0,84.0
1020,240.98106292708337,241.38641966458334,57.0,76.0
1021,241.19534842708336,241.47570528958335,61.0,86.0
1022,241.40963392708335,241.69713363958334,54.0,98.0
1023,241.62391942708337,241.92213341458336,66.0,102.0
1024,241.62391942708337,241.98463335208336,57.0,109.0
1025,239.05249342708336,242.08463325208336,42.0,83.0
1026,240.33820642708338,242.12927606458337,49.0,65.0
1027,242.05249042708337,242.36856153958337,61.0,88.0
1028,241.83820492708338,242.41677577708336,54.0,88.0
1029,242.48106142708338,242.75248972708334,59.0,88.0
1030,242.26677592708336,242.97391807708337,66.0,88.0
1031,242.48106142708338,243.01320375208337,63.0,93.0
1032,243.33820342708336,243.80248867708337,61.0,88.0
1033,243.33820342708336,243.88641716458335,66.0,100.0
1034,243.76677442708336,244.29355961458336,59.0,67.0
1035,244.19534542708337,244.70248777708338,63.0,96.0
1036,244.19534542708337,244.70784491458335,66.0,98.0
1037,244.62391642708337,244.96320180208335,59.0,78.0
1038,242.90963242708335,245.06498741458336,54.0,68.0
1039,245.26677292708337,245.49177270208338,54.0,84.0
1040,242.48106142708338,245.53641551458338,47.0,84.0
1041,244.83820192708336,245.55070121458337,61.0,98.0
1042,245.48105842708338,245.67212966458337,63.0,91.0
1043,245.90962942708336,246.53820022708337,56.0,88.0
1044,245.90962942708336,246.55962877708336,59.0,88.0
1045,245.69534392708334,246.56498591458336,66.0,84.0
1046,246.55248592708335,246.75070001458334,52.0,75.0
1047,246.76677142708337,247.21677097708334,56.0,88.0
1048,246.76677142708337,247.28641376458336,59.0,92.0
1049,245.90962942708336,247.28819947708337,40.0,88.0
1050,246.33820042708336,247.33284228958337,47.0,64.0
1051,246.76677142708337,247.57212776458337,66.0,93.0
1052,247.19534242708335,247.61677057708334,52.0,75.0
1053,247.62391342708338,247.88105602708336,56.0,89.0
1054,247.62391342708338,248.12212721458337,60.0,93.0
1055,247.62391342708338,248.18998428958338,63.0,98.0
1056,247.62391342708338,248.44891260208337,66.0,88.0
1057,248.26676992708337,248.52212681458337,56.0,87.0
1058,248.48105542708336,248.74355516458337,60.0,113.0
1059,248.05248442708336,248.97034065208337,51.0,74.0
1060,247.62391342708338,248.98998348958338,44.0,83.0
1061,248.90962642708337,249.18284043958334,61.0,93.0
1062,248.69534092708335,249.33462600208338,56.0,98.0
1063,249.12391192708338,249.34891170208337,63.0,85.0
1064,249.33819742708334,249.76855413958336,68.0,88.0
1065,249.33819742708334,249.80248267708336,64.0,90.0
1066,249.33819742708334,249.80783981458336,61.0,88.0
1067,249.76676842708338,250.29176790208336,56.0,72.0
1068,250.19533942708335,250.75069601458335,68.0,89.0
1069,250.19533942708335,250.79176740208337,63.0,89.0
1070,250.83819592708335,250.93105297708337,64.0,90.0
1071,250.83819592708335,250.94355296458338,61.0,87.0
1072,250.83819592708335,250.95605295208338,68.0,82.0
1073,250.62391042708336,251.31498116458334,56.0,66.0
1074,251.26676692708338,251.79712353958337,68.0,87.0
1075,251.26676692708338,251.80248067708337,63.0,88.0
1076,251.69533792708336,252.18998028958336,56.0,84.0
1077,251.90962342708337,252.33105157708337,64.0,104.0
1078,249.33819742708334,252.35248012708337,49.0,83.0
1079,251.90962342708337,252.36140868958336,68.0,84.0
1080,251.90962342708337,252.38819437708338,61.0,100.0
1081,252.33819442708335,252.49176570208337,63.0,88.0
1082,252.55247992708337,252.63640841458337,61.0,71.0
1083,252.76676542708339,253.15605075208336,66.0,94.0
1084,252.76676542708339,253.18283643958335,61.0,88.0
1085,252.76676542708339,253.18462215208336,57.0,100.0
1086,253.62390742708337,253.70962162708338,66.0,93.0
1087,253.62390742708337,253.71497876458335,57.0,89.0
1088,254.2667639270834,254.34354956458338,61.0,90.0
1089,254.05247842708337,254.83104907708338,54.0,67.0
1090,254.69533492708337,255.13104877708338,66.0,100.0
1091,254.69533492708337,255.19533442708337,57.0,90.0
1092,255.12390592708334,255.37211996458336,54.0,84.0
1093,252.76676542708339,255.7328338895834,42.0,82.0
1094,255.33819142708336,255.75961957708336,66.0,107.0
1095,255.33819142708336,255.77569098958338,57.0,106.0
1096,253.19533642708336,255.81676237708336,49.0,67.0
1097,255.7667624270834,256.15783346458335,61.0,88.0
1098,255.55247692708338,256.1971191395834,54.0,81.0
1099,256.19533342708337,256.48104742708335,59.0,88.0
1100,256.19533342708337,256.65069011458337,63.0,91.0
1101,255.98104792708335,256.66676152708334,66.0,87.0
1102,257.0524754270834,257.6096177270834,66.0,90.0
1103,257.0524754270834,257.63461770208335,61.0,90.0
1104,257.48104642708336,258.01140303958334,59.0,65.0
1105,257.6953319270834,258.04711728958335,66.0,85.0
1106,257.6953319270834,258.10247437708335,63.0,88.0
1107,258.12390292708335,258.57747390208334,66.0,78.0
1108,258.12390292708335,258.58997388958335,61.0,84.0
1109,258.5524739270834,258.88818787708334,59.0,88.0
1110,256.62390442708335,259.02568773958336,54.0,65.0
1111,256.19533342708337,259.2185446895834,47.0,86.0
1112,258.76675942708334,259.22211611458334,61.0,107.0
1113,258.76675942708334,259.2310446770834,66.0,104.0
1114,259.1953304270834,259.5649729145834,63.0,89.0
1115,259.62390142708335,260.1292580645834,68.0,94.0
1116,259.62390142708335,260.40961492708334,61.0,89.0
1117,260.0524724270834,260.57032905208337,56.0,65.0
1118,260.48104342708336,261.0828285395834,63.0,104.0
1119,261.12389992708336,261.20247127708336,64.0,92.0
1120,261.12389992708336,261.20425698958337,61.0,87.0
1121,260.90961442708334,261.80961352708334,56.0,74.0
1122,261.5524709270834,261.9971133395834,66.0,86.0
1123,261.5524709270834,262.02389902708336,63.0,88.0
1124,262.1953274270834,262.47747000208335,68.0,91.0
1125,262.1953274270834,262.58639846458334,61.0,107.0
1126,261.98104192708337,262.62389842708336,56.0,86.0
1127,259.62390142708335,262.6613983895834,49.0,85.0
1128,262.40961292708334,262.74354116458335,63.0,83.0
1129,262.62389842708336,262.81318395208336,64.0,83.0
1130,262.8381839270834,262.94354096458335,63.0,38.0
1131,263.05246942708334,263.75782586458337,61.0,84.0
1132,263.05246942708334,263.7596115770834,68.0,88.0
1133,263.05246942708334,263.81318295208337,64.0,87.0
1134,263.90961142708335,264.54353936458335,61.0,86.0
1135,263.90961142708335,264.54532507708336,68.0,85.0
1136,263.90961142708335,264.5846107520834,64.0,87.0
1137,264.55246792708334,265.13282448958336,54.0,80.0
1138,263.05246942708334,265.22211011458336,42.0,88.0
1139,264.76675342708336,265.77925241458337,61.0,84.0
1140,264.76675342708336,265.8274666520834,68.0,85.0
1141,264.76675342708336,265.8703237520834,64.0,86.0
1142,265.40960992708335,265.9363951145834,42.0,96.0
1143,265.8381809270834,266.05246642708335,61.0,87.0
1144,266.05246642708335,266.3363947145834,63.0,87.0
1145,265.62389542708337,266.3917518020834,54.0,113.0
1146,266.4810374270834,266.96317980208335,68.0,84.0
1147,266.4810374270834,267.0060369020834,61.0,87.0
1148,266.4810374270834,267.1363939145834,64.0,84.0
1149,267.1238939270834,267.5935363145834,56.0,58.0
1150,267.3381794270834,268.20782141458335,68.0,83.0
1151,267.3381794270834,268.2810356270834,63.0,87.0
1152,267.3381794270834,268.29532132708334,64.0,85.0
1153,268.19532142708334,268.87746360208337,56.0,79.0
1154,268.6238924270834,268.9024635770834,63.0,76.0
1155,269.05246342708335,269.26674892708337,56.0,86.0
1156,268.8381779270834,269.28282033958334,64.0,107.0
1157,266.4810374270834,269.3238917270834,49.0,87.0
1158,269.26674892708337,269.5685343395834,63.0,87.0
1159,269.90960542708336,270.4346049020834,68.0,75.0
1160,269.90960542708336,270.58817617708337,61.0,78.0
1161,269.4810344270834,270.63817612708334,64.0,87.0
1162,270.7667474270834,271.30424688958334,68.0,77.0
1163,270.7667474270834,271.43103247708336,61.0,75.0
1164,269.90960542708336,271.8899605895834,54.0,84.0
1165,271.6238894270834,272.26138878958335,68.0,86.0
1166,270.7667474270834,272.3328172895834,64.0,74.0
1167,271.6238894270834,272.33817442708335,61.0,81.0
1168,272.2667459270834,272.5917456020834,54.0,72.0
1169,272.4810314270834,272.8238882270834,68.0,90.0
1170,269.90960542708336,272.84888820208334,42.0,82.0
1171,272.4810314270834,272.91853098958336,64.0,91.0
1172,272.4810314270834,272.9917452020834,61.0,90.0
1173,272.69531692708335,273.00603090208335,54.0,85.0
1174,272.90960242708337,273.19710213958336,63.0,83.0
1175,273.33817342708335,273.97388707708336,68.0,80.0
1176,273.33817342708335,274.0328155895834,61.0,86.0
1177,273.33817342708335,274.03995843958336,63.0,86.0
1178,273.33817342708335,274.10602980208336,64.0,84.0
1179,274.19531542708336,274.79531482708336,68.0,84.0
1180,274.19531542708336,274.87210046458335,61.0,76.0
1181,274.19531542708336,274.90424328958335,63.0,78.0
1182,274.19531542708336,274.9685289395834,64.0,79.0
1183,275.05245742708337,275.5863854645834,68.0,68.0
1184,275.05245742708337,275.6667425270834,63.0,74.0
1185,275.05245742708337,275.6792425145834,61.0,76.0
1186,275.05245742708337,275.70781391458337,64.0,74.0
1187,275.69531392708336,276.14709918958334,56.0,76.0
1188,273.33817342708335,276.26852763958334,49.0,84.0
1189,275.9095994270834,276.3881703770834,63.0,90.0
1190,276.33817042708336,276.76852713958334,64.0,88.0
1191,276.7667414270834,276.76852713958334,64.0,80.0
1192,276.5524559270834,277.49174070208335,68.0,81.0
1193,276.7667414270834,277.5113835395834,61.0,85.0
1194,277.62388342708334,278.3203113020834,68.0,83.0
1195,276.7667414270834,278.78459655208337,54.0,83.0
1196,278.48102542708335,279.12566763958336,68.0,80.0
1197,277.62388342708334,279.19173900208335,61.0,82.0
1198,277.62388342708334,279.2435246645834,64.0,80.0
1199,279.33816742708336,279.63638141458335,63.0,89.0
1200,276.7667414270834,279.66138138958337,42.0,83.0
1201,279.12388192708335,280.24530937708334,54.0,70.0
1202,280.1953094270834,280.74888030208336,68.0,77.0
1203,280.1953094270834,280.94709438958336,61.0,77.0
1204,279.5524529270834,280.98995148958335,64.0,81.0
1205,281.0524514270834,281.68816507708334,68.0,81.0
1206,281.0524514270834,281.8078078145834,61.0,78.0
1207,281.0524514270834,281.8417363520834,64.0,78.0
1208,281.9095934270834,282.5095928270834,68.0,80.0
1209,281.9095934270834,282.6167355770834,61.0,76.0
1210,281.9095934270834,282.64709268958336,64.0,78.0
1211,282.76673542708335,283.24352066458334,68.0,83.0
1212,282.76673542708335,283.4524490270834,61.0,88.0
1213,282.76673542708335,283.4649490145834,64.0,88.0
1214,280.1953094270834,283.59887745208334,49.0,76.0
1215,283.62387742708336,284.21316255208336,68.0,84.0
1216,283.62387742708336,284.3613766895834,63.0,84.0
1217,283.62387742708336,284.3631624020834,61.0,82.0
1218,283.62387742708336,284.42209091458335,64.0,84.0
1219,284.48101942708337,285.13101877708334,68.0,83.0
1220,284.48101942708337,285.23637581458337,61.0,78.0
1221,284.48101942708337,285.2417329520834,63.0,79.0
1222,284.48101942708337,285.2703043520834,64.0,79.0
1223,283.62387742708336,285.72030390208334,42.0,82.0
1224,283.62387742708336,285.9845893520834,54.0,83.0
1225,285.3381614270834,286.2935176145834,68.0,84.0
1226,285.3381614270834,286.31137473958336,61.0,85.0
1227,285.3381614270834,286.32387472708336,63.0,85.0
1228,285.3381614270834,286.3292318645834,64.0,84.0
1229,285.98101792708337,286.5506602145834,42.0,91.0
1230,286.40958892708335,286.7274457520834,61.0,89.0
1231,286.62387442708336,286.94351696458335,63.0,84.0
1232,286.8381599270834,287.0060169020834,64.0,65.0
1233,286.1953034270834,287.06673112708336,54.0,107.0
1234,287.05244542708334,287.6738733770834,68.0,87.0
1235,287.05244542708334,287.7149447645834,63.0,88.0
1236,287.05244542708334,287.74173045208335,60.0,84.0
1237,287.05244542708334,289.08815767708336,56.0,80.0
1238,287.90958742708335,289.3953002270834,68.0,71.0
1239,287.90958742708335,289.4238716270834,60.0,70.0
1240,287.90958742708335,289.4238716270834,63.0,73.0
1241,289.6238714270834,289.8238712270834,68.0,87.0
1242,289.6238714270834,290.3702992520834,60.0,90.0
1243,289.40958592708336,290.41137063958337,56.0,84.0
1244,287.05244542708334,290.4167277770834,44.0,77.0
1245,290.05244242708335,290.4167277770834,68.0,86.0
1246,289.8381569270834,290.4381563270834,63.0,83.0
