,start,end,pitch,velocity
0,17.28354753125,17.48725103125,75.0,95.0
1,17.56132503125,17.78123221875,77.0,93.0
2,17.83910253125,18.00576903125,75.0,99.0
3,18.116880031250002,18.310166875,77.0,92.0
4,18.39465753125,18.5671110625,79.0,88.0
5,18.67243503125,18.819425625,79.0,84.0
6,18.95021253125,19.13771234375,79.0,82.0
7,19.227990031250002,19.46178609375,79.0,89.0
8,19.50576753125,19.64234146875,77.0,92.0
9,19.78354503125,19.95021153125,77.0,91.0
10,20.06132253125,20.238405687500002,75.0,99.0
11,20.339100031250002,20.52891465625,74.0,88.0
12,20.61687753125,20.77659959375,75.0,92.0
13,20.89465503125,21.06826596875,77.0,88.0
14,21.17243253125,21.4698859375,75.0,95.0
15,21.72798753125,21.87613553125,75.0,95.0
16,22.00576503125,22.199051875,72.0,90.0
17,22.28354253125,22.4513664375,70.0,88.0
18,22.561320031250002,22.71872728125,72.0,90.0
19,22.83909753125,22.98956034375,80.0,86.0
20,23.11687503125,23.25344896875,80.0,90.0
21,23.39465253125,23.54743015625,80.0,88.0
22,23.672430031250002,23.851828,80.0,88.0
23,23.95020753125,24.143494375,79.0,90.0
24,24.22798503125,24.374975625,77.0,87.0
25,24.50576253125,24.64696609375,75.0,90.0
26,24.783540031250002,24.94789171875,74.0,94.0
27,25.06131753125,25.23261365625,75.0,90.0
28,25.33909503125,25.5069189375,79.0,91.0
29,25.61687253125,25.94094628125,77.0,92.0
30,26.17242753125,26.32983478125,75.0,91.0
31,26.45020503125,26.592566,74.0,97.0
32,26.72798253125,26.88538978125,72.0,90.0
33,27.00576003125,27.16316728125,74.0,94.0
34,27.28353753125,27.7337685625,82.0,89.0
35,27.83909253125,28.22103659375,82.0,92.0
36,28.39464753125,28.54511034375,80.0,91.0
37,28.67242503125,28.874971125000002,79.0,92.0
38,28.95020253125,29.10760978125,77.0,90.0
39,29.22798003125,29.50575753125,77.0,90.0
40,29.50575753125,29.7985813125,77.0,89.0
41,30.06131253125,30.38538628125,76.0,92.0
42,30.61686753125,30.7939506875,77.0,92.0
43,30.89464503125,31.23955209375,79.0,94.0
44,31.45020003125,31.66547759375,79.0,90.0
45,32.00575503125,32.1967270625,80.0,86.0
46,32.28353253125,32.72103209375,80.0,94.0
47,32.83908753125,33.0300595625,79.0,94.0
48,33.11686503125,33.258068593750004,77.0,99.0
49,33.39464253125,33.555522,75.0,95.0
50,33.67242003125,34.0902436875,74.0,99.0
51,34.22797503125,34.3865396875,72.0,94.0
52,34.50575253125,35.01269646875,70.0,95.0
53,35.06130753125,35.182835187500004,75.0,105.0
54,35.33908503125,35.550890375,77.0,92.0
55,35.61686253125,35.7476494375,75.0,95.0
56,35.89464003125,36.0717231875,77.0,92.0
57,36.17241753125,36.329824781250004,79.0,92.0
58,36.45019503125,36.58676896875,79.0,90.0
59,36.72797253125,36.8633890625,79.0,90.0
60,37.00575003125,37.20482390625,79.0,95.0
61,37.28352753125,37.39926815625,77.0,97.0
62,37.56130503125,37.71871228125,77.0,95.0
63,37.83908253125,38.0184805,75.0,86.0
64,38.11686003125,38.28584134375,74.0,79.0
65,38.39463753125,38.5300540625,75.0,93.0
66,38.67241503125,38.844868562500004,77.0,89.0
67,38.95019253125,39.19093303125,75.0,88.0
68,39.50574753125,39.66778440625,75.0,92.0
69,39.78352503125,39.925886,72.0,90.0
70,40.06130253125,40.20713571875,70.0,89.0
71,40.33908003125,40.495329875,72.0,90.0
72,40.61685753125,40.74880184375,80.0,90.0
73,40.89463503125,41.0300515625,80.0,89.0
74,41.172412531250004,41.3078290625,80.0,87.0
75,41.45019003125,41.6319028125,80.0,90.0
76,41.72796753125,41.87380071875,82.0,89.0
77,42.00574503125,42.17009671875,77.0,77.0
78,42.28352253125,42.44092978125,75.0,88.0
79,42.56130003125,42.7337535625,74.0,89.0
80,42.83907753125,42.99879959375,75.0,88.0
81,43.11685503125,43.29509559375,79.0,89.0
82,43.394632531250004,43.59370640625,77.0,90.0
83,43.95018753125,44.11916884375,75.0,94.0
84,44.22796503125,44.3957889375,74.0,91.0
85,44.50574253125,44.66777940625,72.0,88.0
86,44.78352003125,44.9281958125,74.0,90.0
87,45.06129753125,45.4791211875,82.0,89.0
88,45.616852531250004,46.034676187500004,82.0,90.0
89,46.17240753125,46.34370365625,80.0,89.0
90,46.45018503125,46.634212625,79.0,92.0
91,46.72796253125,46.8957864375,77.0,89.0
92,47.00574003125,47.236063875,77.0,94.0
93,47.56129503125,47.73259115625,77.0,89.0
94,47.839072531250004,48.2152295625,76.0,88.0
95,48.39462753125,48.52657184375,77.0,92.0
96,48.67240503125,48.865691875,79.0,90.0
97,48.95018253125,49.08675646875,82.0,88.0
98,49.22796003125,49.41661725,79.0,88.0
99,49.50573753125,49.8865241875,80.0,88.0
100,50.061292531250004,50.42008846875,80.0,90.0
101,50.61684753125,50.745319625,79.0,85.0
102,50.89462503125,51.02193971875,77.0,88.0
103,51.17240253125,51.299717218750004,75.0,90.0
104,51.45018003125,51.680503875,84.0,81.0
105,52.00573503125,52.161984875,84.0,94.0
106,52.283512531250004,53.368002187500004,82.0,89.0
107,53.67240003125,53.97101084375,79.0,92.0
108,54.08906628125,54.199019875,80.0,85.0
109,54.22795503125,54.56476025,79.0,88.0
110,54.644621281250004,54.73258415625,80.0,82.0
111,54.78351003125,54.98489871875,79.0,76.0
112,55.06128753125,55.4467038125,80.0,90.0
113,55.61684253125,55.930499625,82.0,90.0
114,56.45017503125,56.727952531250004,79.0,84.0
115,56.727952531250004,57.11452621875,84.0,89.0
116,57.28350753125,57.6851275,82.0,94.0
117,58.11684003125,58.4513304375,75.0,92.0
118,58.53350628125,58.63883025,77.0,89.0
119,58.67239503125,59.0161446875,75.0,92.0
120,59.089061281250004,59.1781815625,77.0,87.0
121,59.22795003125,59.374940625,75.0,94.0
122,59.50572753125,59.89808825,77.0,95.0
123,60.06128253125,60.55202278125,79.0,92.0
124,60.89461503125,61.0300315625,75.0,95.0
125,61.172392531250004,61.58905878125,80.0,88.0
126,61.72794753125,62.093687906250004,79.0,93.0
127,62.56128003125,62.885353781250004,72.0,92.0
128,62.97794628125,63.077483218750004,70.0,88.0
129,63.11683503125,63.4559550625,72.0,91.0
130,63.533501281250004,63.6480845,70.0,90.0
131,63.67239003125,63.86104725,72.0,90.0
132,63.95016753125,64.319380125,75.0,95.0
133,64.50572253125,64.88072215625,70.0,92.0
134,65.06127753125,65.15618484375,67.0,102.0
135,65.33905503125,65.52192521875,77.0,82.0
136,65.61683253125,66.01035065625,75.0,99.0
137,66.17238753125,66.32979478125,77.0,90.0
138,66.45016503125,66.79970171875,79.0,93.0
139,67.00572003125001,67.3865066875,80.0,90.0
140,67.56127503125,67.73951559375,72.0,91.0
141,67.83905253125,68.263820625,74.0,92.0
142,68.39460753125,68.73372756250001,75.0,99.0
143,68.95016253125,69.3818750625,77.0,92.0
144,69.50571753125,69.65502293750001,79.0,93.0
145,69.78349503125,69.93164303125,77.0,90.0
146,70.06127253125,70.22330940625,79.0,92.0
147,70.33905003125,70.74645703125,77.0,97.0
148,71.45016003125001,71.74877084375,79.0,92.0
149,71.86682628125,71.976779875,80.0,85.0
150,72.00571503125,72.34252025,79.0,88.0
151,72.42238128125,72.51034415625,80.0,82.0
152,72.56127003125,72.76265871875,79.0,76.0
153,72.83904753125,73.2244638125,80.0,90.0
154,73.39460253125,73.708259625,82.0,90.0
155,74.22793503125,74.50571253125,79.0,84.0
156,74.50571253125,74.89228621875,84.0,89.0
157,75.06126753125,75.46288750000001,82.0,94.0
158,75.89460003125001,76.2290904375,75.0,92.0
159,76.31126628125,76.41659025,77.0,89.0
160,76.45015503125,76.7939046875,75.0,92.0
161,76.86682128125,76.9559415625,77.0,87.0
162,77.00571003125,77.152700625,75.0,94.0
163,77.28348753125,77.67584825,77.0,95.0
164,77.83904253125,78.32978278125,79.0,92.0
165,78.67237503125,78.8077915625,75.0,95.0
166,78.95015253125,79.36681878125,80.0,88.0
167,79.50570753125,79.87144790625,79.0,93.0
168,80.33904003125001,80.66311378125,72.0,92.0
169,80.75570628125,80.85524321875,70.0,88.0
170,80.89459503125,81.2337150625,72.0,91.0
171,81.31126128125,81.4258445,70.0,90.0
172,81.45015003125,81.63880725,72.0,90.0
173,81.72792753125,82.097140125,75.0,95.0
174,82.28348253125,82.65848215625,70.0,92.0
175,82.83903753125,82.93394484375,67.0,102.0
176,83.11681503125,83.29968521875,77.0,82.0
177,83.39459253125,83.78811065625,75.0,99.0
178,83.95014753125,84.10755478125,77.0,90.0
179,84.22792503125,84.57746171875,79.0,93.0
180,84.78348003125001,85.1642666875,79.0,90.0
181,85.33903503125,85.51727559375,72.0,91.0
182,85.61681253125,86.041580625,75.0,92.0
183,86.17236753125,86.51148756250001,77.0,99.0
184,86.72792253125,87.1596350625,79.0,92.0
185,87.56125503125,87.74412521875,75.0,92.0
186,87.83903253125,88.63301321875,75.0,95.0
187,88.67236503125,88.83208709375,74.0,92.0
188,88.95014253125,91.421204875,75.0,95.0
189,106.17234753125,106.2938751875,75.0,105.0
190,106.45012503125,106.661930375,77.0,92.0
191,106.72790253125,106.8586894375,75.0,95.0
192,107.00568003125,107.1827631875,77.0,92.0
193,107.28345753125001,107.44086478125,79.0,92.0
194,107.56123503125,107.69780896875,79.0,90.0
195,107.83901253125,107.97442906250001,79.0,90.0
196,108.11679003125,108.31586390625,79.0,95.0
197,108.39456753125,108.51030815625,77.0,97.0
198,108.67234503125,108.82975228125,77.0,95.0
199,108.95012253125,109.1295205,75.0,86.0
200,109.22790003125,109.39688134375,74.0,79.0
201,109.50567753125,109.6410940625,75.0,93.0
202,109.78345503125,109.9559085625,77.0,89.0
203,110.06123253125,110.30197303125,75.0,88.0
204,110.61678753125,110.77882440625,75.0,92.0
205,110.89456503125,111.03692600000001,72.0,90.0
206,111.17234253125,111.31817571875,70.0,89.0
207,111.45012003125,111.606369875,72.0,90.0
208,111.72789753125001,111.85984184375,80.0,90.0
209,112.00567503125001,112.1410915625,80.0,89.0
210,112.28345253125,112.41886906250001,80.0,87.0
211,112.56123003125,112.7429428125,80.0,90.0
212,112.83900753125,112.98484071875001,82.0,89.0
213,113.11678503125,113.28113671875,77.0,77.0
214,113.39456253125,113.55196978125001,75.0,88.0
215,113.67234003125,113.8447935625,74.0,89.0
216,113.95011753125,114.10983959375,75.0,88.0
217,114.22789503125,114.40613559375001,79.0,89.0
218,114.50567253125,114.70474640625,77.0,90.0
219,115.06122753125,115.23020884375,75.0,94.0
220,115.33900503125,115.5068289375,74.0,91.0
221,115.61678253125,115.77881940625001,72.0,88.0
222,115.89456003125,116.0392358125,74.0,90.0
223,116.17233753125001,116.5901611875,82.0,89.0
224,116.72789253125,117.1457161875,82.0,90.0
225,117.28344753125,117.45474365625,80.0,89.0
226,117.56122503125,117.745252625,79.0,92.0
227,117.83900253125,118.0068264375,77.0,89.0
228,118.11678003125,118.347103875,77.0,94.0
229,118.67233503125,118.84363115625,77.0,89.0
230,118.95011253125,119.3262695625,76.0,88.0
231,119.50566753125,119.63761184375001,77.0,92.0
232,119.78344503125,119.976731875,79.0,90.0
233,120.06122253125,120.19779646875,82.0,88.0
234,120.33900003125,120.52765725,79.0,88.0
235,120.61677753125001,120.9975641875,80.0,88.0
236,121.17233253125,121.53112846875,80.0,90.0
237,121.72788753125,121.856359625,79.0,85.0
238,122.00566503125,122.13297971875001,77.0,88.0
239,122.28344253125,122.41075721875,75.0,90.0
240,122.56122003125,122.791543875,84.0,81.0
241,123.11677503125,123.273024875,84.0,94.0
242,123.39455253125,124.4790421875,82.0,89.0
243,124.78344003125,125.18506000000001,72.0,95.0
244,125.33899503125001,125.52186521875001,72.0,99.0
245,125.61677253125,126.08204984375,72.0,93.0
246,126.17232753125,126.754502875,68.0,94.0
247,127.00566003125,127.43852996875,79.0,97.0
248,127.56121503125,127.74640003125,77.0,99.0
249,127.83899253125,128.31352909375,74.0,92.0
250,128.39454753125,129.00565803125,72.0,97.0
251,129.22788003125,129.67695365625,71.0,97.0
252,129.78343503125,129.95241634375,71.0,90.0
253,130.06121253125,130.42232328125002,71.0,97.0
254,130.61676753125,131.0253319375,80.0,91.0
255,131.17232253125,132.56121003125,79.0,99.0
256,133.11676503125,133.28111671875,77.0,95.0
257,133.39454253125,133.569310875,79.0,93.0
258,133.67232003125,134.110977,80.0,92.0
259,134.22787503125,134.39569893750001,79.0,97.0
260,134.50565253125,135.4929200625,80.0,95.0
261,135.61676253125,135.80541975,79.0,94.0
262,135.89454003125,136.30889146875,80.0,92.0
263,136.45009503125002,136.63296521875,79.0,95.0
264,136.72787253125,137.44083478125,77.0,95.0
265,137.56120503125,137.9975471875,75.0,99.0
266,138.11676003125,141.050784875,77.0,91.0
267,142.56120003125,142.85981084375,79.0,92.0
268,142.97786628125002,143.087819875,80.0,85.0
269,143.11675503125,143.45356025,79.0,88.0
270,143.53342128125,143.62138415625,80.0,82.0
271,143.67231003125,143.87369871875,79.0,76.0
272,143.95008753125,144.3355038125,80.0,90.0
273,144.50564253125,144.819299625,82.0,90.0
274,145.33897503125002,145.61675253125,79.0,84.0
275,145.61675253125,146.00332621875,84.0,89.0
276,146.17230753125,146.5739275,82.0,94.0
277,147.00564003125,147.3401304375,75.0,92.0
278,147.42230628125,147.52763025000002,77.0,89.0
279,147.56119503125,147.9049446875,75.0,92.0
280,147.97786128125,148.0669815625,77.0,87.0
281,148.11675003125,148.263740625,75.0,94.0
282,148.39452753125,148.78688825,77.0,95.0
283,148.95008253125,149.44082278125,79.0,92.0
284,149.78341503125,149.9188315625,75.0,95.0
285,150.06119253125001,150.47785878125,80.0,88.0
286,150.61674753125,150.98248790625001,79.0,93.0
287,151.45008003125,151.77415378125,72.0,92.0
288,151.86674628125,151.96628321875,70.0,88.0
289,152.00563503125,152.3447550625,72.0,91.0
290,152.42230128125001,152.5368845,70.0,90.0
291,152.56119003125,152.74984725000002,72.0,90.0
292,152.83896753125,153.208180125,75.0,95.0
293,153.39452253125,153.76952215625,70.0,92.0
294,153.95007753125,154.04498484375,67.0,102.0
295,154.22785503125002,154.41072521875,77.0,82.0
296,154.50563253125,154.89915065625001,75.0,99.0
297,155.06118753125,155.21859478125,77.0,90.0
298,155.33896503125,155.68850171875,79.0,93.0
299,155.89452003125,156.2753066875,80.0,90.0
300,156.45007503125,156.62831559375,72.0,91.0
301,156.72785253125,157.152620625,74.0,92.0
302,157.28340753125,157.6225275625,75.0,99.0
303,157.83896253125,158.2706750625,77.0,92.0
304,158.39451753125,158.5438229375,79.0,93.0
305,158.67229503125,158.82044303125,77.0,90.0
306,158.95007253125002,159.11210940625,79.0,92.0
307,159.22785003125,159.63525703125,77.0,97.0
308,160.33896003125,160.63757084375,79.0,92.0
309,160.75562628125,160.865579875,80.0,85.0
310,160.89451503125,161.23132025,79.0,88.0
311,161.31118128125001,161.39914415625,80.0,82.0
312,161.45007003125,161.65145871875,79.0,76.0
313,161.72784753125,162.1132638125,80.0,90.0
314,162.28340253125,162.597059625,82.0,90.0
315,163.11673503125002,163.39451253125,79.0,84.0
316,163.39451253125,163.78108621875,84.0,89.0
317,163.95006753125,164.3516875,82.0,94.0
318,164.78340003125,165.1178904375,75.0,92.0
319,165.20006628125,165.30539025000002,77.0,89.0
320,165.33895503125,165.6827046875,75.0,92.0
321,165.75562128125,165.8447415625,77.0,87.0
322,165.89451003125,166.041500625,75.0,94.0
323,166.17228753125,166.56464825,77.0,95.0
324,166.72784253125,167.21858278125,79.0,92.0
325,167.56117503125,167.6965915625,75.0,95.0
326,167.83895253125002,168.25561878125,80.0,88.0
327,168.39450753125,168.76024790625002,79.0,93.0
328,169.22784003125,169.55191378125,72.0,92.0
329,169.64450628125,169.74404321875,70.0,88.0
330,169.78339503125,170.1225150625,72.0,91.0
331,170.20006128125002,170.3146445,70.0,90.0
332,170.33895003125,170.52760725,72.0,90.0
333,170.61672753125,170.985940125,75.0,95.0
334,171.17228253125,171.54728215625,70.0,92.0
335,171.72783753125,171.82274484375,67.0,102.0
336,172.00561503125,172.18848521875,77.0,82.0
337,172.28339253125,172.67691065625002,75.0,99.0
338,172.83894753125,172.99635478125,77.0,90.0
339,173.11672503125,173.46626171875,79.0,93.0
340,173.67228003125,174.0530666875,79.0,90.0
341,174.22783503125,174.40607559375,72.0,91.0
342,174.50561253125,174.930380625,75.0,92.0
343,175.06116753125,175.4002875625,77.0,99.0
344,175.61672253125,176.0484350625,79.0,92.0
345,176.45005503125,176.63292521875,75.0,92.0
346,176.72783253125002,177.52181321875,75.0,95.0
347,177.56116503125,177.72088709375,74.0,92.0
348,177.83894253125,180.310004875,75.0,95.0
349,182.5206508125,183.0299095625,80.0,90.0
350,183.1086131875,183.2752796875,72.0,95.0
351,183.4049091875,183.84819578125,72.0,94.0
352,183.9419456875,184.3586119375,75.0,102.0
353,184.4975006875,185.64911990625,77.0,99.0
354,187.9280528125,188.45930228125,75.0,95.0
355,188.6479595,189.36207915625,75.0,104.0
356,189.54263453125,190.24865234375,74.0,92.0
357,190.46161509375,192.3030484375,75.0,90.0
