,start,end,pitch,velocity
0,0.61689753125,0.893517625,60.0,88.0
1,0.61689753125,0.89698984375,56.0,87.0
2,0.61689753125,0.8981472500000001,63.0,88.0
3,0.89467503125,1.629628,51.0,79.0
4,1.17245253125,1.814813,56.0,89.0
5,1.17245253125,1.8495351875000001,60.0,91.0
6,1.17245253125,1.86458146875,63.0,90.0
7,1.72800753125,2.13888675,51.0,90.0
8,0.33912003125,2.3634235625,44.0,87.0
9,2.28356253125,2.4629605,51.0,82.0
10,2.00578503125,2.51735859375,56.0,90.0
11,2.00578503125,2.63078440625,63.0,90.0
12,2.00578503125,2.64004365625,60.0,92.0
13,2.83911753125,3.12615428125,58.0,82.0
14,2.83911753125,3.1365709375,65.0,89.0
15,2.83911753125,3.14235796875,62.0,80.0
16,3.11689503125,3.36920959375,53.0,80.0
17,3.39467253125,4.02661634375,58.0,90.0
18,3.39467253125,4.0393478125,62.0,94.0
19,3.39467253125,4.0439774375,65.0,97.0
20,3.95022753125,4.2939771875,53.0,77.0
21,2.56134003125,4.30439384375,46.0,90.0
22,4.22800503125,4.3865696875,58.0,90.0
23,4.22800503125,4.430551125,65.0,94.0
24,4.22800503125,4.45022703125,62.0,97.0
25,5.06133753125,5.34837428125,62.0,90.0
26,5.06133753125,5.3541613125000005,67.0,88.0
27,4.78356003125,5.45022603125,43.0,90.0
28,5.61689253125,6.273141875,67.0,90.0
29,5.61689253125,6.28355853125,62.0,99.0
30,6.1724475312500005,6.4999935,43.0,74.0
31,6.4502250312500005,6.925919,62.0,102.0
32,6.4502250312500005,6.995363375,67.0,95.0
33,7.2835575312500005,7.550918375,64.0,86.0
34,7.2835575312500005,7.55902021875,67.0,82.0
35,7.2835575312500005,7.5786961250000004,60.0,89.0
36,7.5613350312500005,8.134251125,55.0,66.0
37,7.8391125312500005,8.48031559375,64.0,92.0
38,7.8391125312500005,8.49883409375,60.0,90.0
39,7.8391125312500005,8.50809334375,67.0,90.0
40,8.39466753125,8.63888025,55.0,83.0
41,7.0057800312500005,8.72568571875,48.0,90.0
42,8.67244503125,8.814806,60.0,90.0
43,8.67244503125,8.83679671875,64.0,97.0
44,8.67244503125,8.8587874375,67.0,90.0
45,9.22800003125,9.50577753125,60.0,88.0
46,9.50577753125,9.6411940625,48.0,81.0
47,9.22800003125,9.92012896875,65.0,90.0
48,9.22800003125,9.9444345,68.0,85.0
49,9.78355503125,10.14235096875,48.0,80.0
50,10.06133253125,10.65160971875,60.0,92.0
51,10.06133253125,10.65623934375,65.0,102.0
52,10.06133253125,10.66318378125,68.0,89.0
53,10.89466503125,11.01503528125,60.0,93.0
54,9.22800003125,11.12846109375,41.0,91.0
55,10.61688753125,11.14003515625,48.0,82.0
56,10.89466503125,11.36457196875,65.0,102.0
57,11.17244253125,11.44559040625,60.0,86.0
58,10.89466503125,11.58679396875,68.0,89.0
59,11.72799753125,11.8773029375,62.0,82.0
60,11.72799753125,11.90623809375,58.0,88.0
61,11.72799753125,11.90623809375,65.0,89.0
62,12.00577503125,12.310172875000001,53.0,56.0
63,12.28355253125,12.932857437500001,70.0,86.0
64,12.28355253125,12.94327409375,62.0,89.0
65,12.28355253125,12.95484815625,58.0,86.0
66,12.28355253125,12.95716296875,65.0,90.0
67,12.83910753125,13.134246125,53.0,82.0
68,11.45022003125,13.1921164375,46.0,88.0
69,13.11688503125,13.19558865625,58.0,85.0
70,13.11688503125,13.49882909375,62.0,93.0
71,13.11688503125,13.58910678125,70.0,88.0
72,13.11688503125,13.7430418125,65.0,92.0
73,13.39466253125,13.80438434375,58.0,76.0
74,14.22799503125,14.71294825,67.0,90.0
75,14.22799503125,14.84257775,63.0,91.0
76,14.50577253125,14.888874,58.0,88.0
77,14.78355003125,15.1921144375,46.0,78.0
78,15.06132753125,15.24419771875,58.0,90.0
79,15.06132753125,15.31595690625,63.0,93.0
80,15.06132753125,15.450216031250001,68.0,88.0
81,15.61688253125,15.810169375000001,58.0,83.0
82,13.67244003125,15.8171138125,39.0,90.0
83,15.89466003125,17.15160321875,39.0,92.0
84,15.89466003125,17.245353125,67.0,86.0
85,15.89466003125,17.28354753125,63.0,84.0
86,15.89466003125,17.28817715625,58.0,81.0
87,18.39465753125,18.5532221875,67.0,94.0
88,18.39465753125,18.5809999375,70.0,89.0
89,18.39465753125,18.58331475,63.0,88.0
90,18.95021253125,19.552063781250002,63.0,89.0
91,18.95021253125,19.587943375000002,70.0,89.0
92,18.95021253125,19.5948878125,67.0,92.0
93,19.50576753125,19.74650803125,58.0,69.0
94,18.116880031250002,19.78701725,51.0,89.0
95,20.06132253125,20.19558165625,46.0,89.0
96,19.78354503125,20.328683375,67.0,97.0
97,19.78354503125,20.35298890625,63.0,91.0
98,19.78354503125,20.837942125,70.0,90.0
99,20.61687753125,20.88076615625,63.0,87.0
100,20.61687753125,20.89002540625,60.0,83.0
101,20.61687753125,20.89002540625,67.0,81.0
102,20.339100031250002,21.26733984375,48.0,90.0
103,21.17243253125,21.8865521875,63.0,89.0
104,21.17243253125,21.8865521875,70.0,88.0
105,21.17243253125,21.888867,67.0,83.0
106,21.17243253125,21.89812625,60.0,89.0
107,22.00576503125,22.11224640625,60.0,89.0
108,21.72798753125,22.124977875,55.0,74.0
109,22.00576503125,22.3911813125,63.0,91.0
110,22.00576503125,22.439792375,67.0,89.0
111,22.00576503125,22.54511634375,70.0,88.0
112,22.28354253125,22.7013661875,60.0,93.0
113,22.83909753125,23.0300695625,60.0,94.0
114,22.83909753125,23.0346991875,65.0,90.0
115,22.83909753125,23.04627325,68.0,88.0
116,22.561320031250002,23.29974521875,41.0,90.0
117,23.39465253125,24.068262968750002,65.0,99.0
118,23.39465253125,24.0809944375,68.0,90.0
119,23.39465253125,24.08215184375,60.0,94.0
120,24.22798503125,24.36224415625,60.0,93.0
121,23.95020753125,24.49650328125,41.0,89.0
122,24.22798503125,24.6689568125,65.0,97.0
123,24.50576253125,24.77196596875,60.0,90.0
124,24.22798503125,24.8333085,68.0,90.0
125,25.06131753125,25.2476599375,62.0,80.0
126,25.06131753125,25.26270621875,65.0,88.0
127,24.783540031250002,25.273122875000002,46.0,88.0
128,25.06131753125,25.275437687500002,58.0,84.0
129,26.17242753125,26.256918187500002,46.0,56.0
130,25.61687253125,26.2615478125,70.0,88.0
131,25.61687253125,26.28122371875,65.0,91.0
132,25.61687253125,26.290482968750002,62.0,92.0
133,25.61687253125,26.30552925,58.0,89.0
134,26.45020503125,26.5346956875,58.0,89.0
135,26.17242753125,26.53585309375,53.0,83.0
136,26.45020503125,26.75113065625,65.0,102.0
137,26.45020503125,26.7592325,70.0,89.0
138,26.45020503125,26.84603796875,62.0,102.0
139,26.72798253125,27.01501928125,58.0,90.0
140,27.28353753125,27.44325959375,62.0,93.0
141,27.28353753125,27.4467318125,67.0,88.0
142,27.83909253125,28.45483265625,67.0,91.0
143,27.83909253125,28.4559900625,62.0,94.0
144,28.39464753125,28.73029534375,50.0,77.0
145,27.00576003125,28.754600875,43.0,93.0
146,28.67242503125,29.180526375,62.0,99.0
147,28.95020253125,29.21177634375,58.0,90.0
148,28.67242503125,29.23145225,67.0,95.0
149,29.50575753125,29.655062937500002,64.0,88.0
150,29.50575753125,29.65622034375,60.0,88.0
151,29.50575753125,29.6735814375,67.0,88.0
152,29.22798003125,29.86686828125,48.0,88.0
153,30.06131253125,30.70251559375,64.0,83.0
154,30.06131253125,30.70946003125,70.0,88.0
155,30.06131253125,30.7245063125,67.0,78.0
156,30.06131253125,30.72797853125,60.0,87.0
157,30.61686753125,30.9698764375,55.0,80.0
158,30.89464503125,31.08908928125,70.0,88.0
159,30.89464503125,31.1087651875,60.0,89.0
160,31.17242253125,31.289320562500002,48.0,89.0
161,30.89464503125,31.421264875000002,64.0,88.0
162,30.89464503125,31.425894500000002,67.0,82.0
163,31.45020003125,31.83214409375,65.0,92.0
164,31.45020003125,31.86455146875,68.0,87.0
165,32.00575503125,32.10992159375,60.0,90.0
166,31.72797753125,32.6735784375,48.0,79.0
167,32.28353253125,32.97566146875,65.0,102.0
168,32.28353253125,32.98492071875,68.0,89.0
169,32.28353253125,32.99880959375,60.0,95.0
170,33.11686503125,33.19325384375,60.0,88.0
171,31.45020003125,33.42704990625,41.0,91.0
172,32.83908753125,33.439781375,48.0,80.0
173,33.11686503125,33.618021937500004,65.0,97.0
174,33.39464253125,33.646957093750004,60.0,87.0
175,33.11686503125,33.699040375,68.0,91.0
176,33.95019753125,34.19788246875,62.0,84.0
177,33.95019753125,34.21640096875,65.0,90.0
178,33.95019753125,34.22334540625,58.0,91.0
179,34.22797503125,34.486076625,53.0,49.0
180,34.50575253125,35.11917784375,70.0,89.0
181,34.50575253125,35.15737225,62.0,99.0
182,34.50575253125,35.16547409375,58.0,93.0
183,34.50575253125,35.17473334375,65.0,95.0
184,35.06130753125,35.51269596875,53.0,85.0
185,33.67242003125,35.69325134375,46.0,89.0
186,35.33908503125,35.8448715625,62.0,97.0
187,35.61686253125,35.851816,58.0,99.0
188,35.33908503125,35.86454746875,65.0,93.0
189,35.33908503125,35.869177093750004,70.0,88.0
190,36.17241753125,36.3309821875,67.0,94.0
191,36.17241753125,36.358759937500004,70.0,89.0
192,36.17241753125,36.36107475,63.0,88.0
193,36.72797253125,37.32982378125,63.0,89.0
194,36.72797253125,37.365703375,70.0,89.0
195,36.72797253125,37.3726478125,67.0,92.0
196,37.28352753125,37.52426803125,58.0,69.0
197,35.89464003125,37.56477725,51.0,89.0
198,37.83908253125,37.97334165625,46.0,89.0
199,37.56130503125,38.106443375,67.0,97.0
200,37.56130503125,38.13074890625,63.0,91.0
201,37.56130503125,38.615702125,70.0,90.0
202,38.39463753125,38.65852615625,63.0,87.0
203,38.39463753125,38.66778540625,60.0,83.0
204,38.39463753125,38.66778540625,67.0,81.0
205,38.11686003125,39.04509984375,48.0,90.0
206,38.95019253125,39.6643121875,63.0,89.0
207,38.95019253125,39.6643121875,70.0,88.0
208,38.95019253125,39.666627,67.0,83.0
209,38.95019253125,39.67588625,60.0,89.0
210,39.78352503125,39.89000640625,60.0,89.0
211,39.50574753125,39.902737875,55.0,74.0
212,39.78352503125,40.1689413125,63.0,91.0
213,39.78352503125,40.217552375000004,67.0,89.0
214,39.78352503125,40.32287634375,70.0,88.0
215,40.06130253125,40.4791261875,60.0,93.0
216,40.61685753125,40.807829562500004,60.0,94.0
217,40.61685753125,40.812459187500004,65.0,90.0
218,40.61685753125,40.82403325,68.0,88.0
219,40.33908003125,41.07750521875,41.0,90.0
220,41.172412531250004,41.84602296875,65.0,99.0
221,41.172412531250004,41.858754437500004,68.0,90.0
222,41.172412531250004,41.85991184375,60.0,94.0
223,42.00574503125,42.14000415625,60.0,93.0
224,41.72796753125,42.27426328125,41.0,89.0
225,42.00574503125,42.4467168125,65.0,97.0
226,42.28352253125,42.54972596875,60.0,90.0
227,42.00574503125,42.6110685,68.0,90.0
228,42.83907753125,43.0254199375,62.0,80.0
229,42.83907753125,43.04046621875,65.0,88.0
230,42.56130003125,43.050882875,46.0,88.0
231,42.83907753125,43.0531976875,58.0,84.0
232,43.95018753125,44.0346781875,46.0,56.0
233,43.394632531250004,44.0393078125,70.0,88.0
234,43.394632531250004,44.05898371875,65.0,91.0
235,43.394632531250004,44.06824296875,62.0,92.0
236,43.394632531250004,44.08328925,58.0,89.0
237,44.22796503125,44.3124556875,58.0,89.0
238,43.95018753125,44.31361309375,53.0,83.0
239,44.22796503125,44.52889065625,65.0,102.0
240,44.22796503125,44.536992500000004,70.0,89.0
241,44.22796503125,44.62379796875,62.0,102.0
242,44.50574253125,44.79277928125,58.0,90.0
243,45.06129753125,45.22101959375,62.0,93.0
244,45.06129753125,45.2244918125,67.0,88.0
245,45.616852531250004,46.23259265625,67.0,91.0
246,45.616852531250004,46.2337500625,62.0,94.0
247,46.17240753125,46.50805534375,50.0,77.0
248,44.78352003125,46.532360875,43.0,93.0
249,46.45018503125,46.958286375,62.0,99.0
250,46.72796253125,46.989536343750004,58.0,90.0
251,46.45018503125,47.00921225,67.0,95.0
252,47.28351753125,47.4328229375,64.0,88.0
253,47.28351753125,47.43398034375,60.0,88.0
254,47.28351753125,47.4513414375,67.0,88.0
255,47.00574003125,47.64462828125,48.0,88.0
256,47.839072531250004,48.48027559375,64.0,83.0
257,47.839072531250004,48.487220031250004,70.0,88.0
258,47.839072531250004,48.5022663125,67.0,78.0
259,47.839072531250004,48.50573853125,60.0,87.0
260,48.39462753125,48.7476364375,55.0,80.0
261,48.67240503125,48.86684928125,70.0,88.0
262,48.67240503125,48.8865251875,60.0,89.0
263,48.95018253125,49.0670805625,48.0,89.0
264,48.67240503125,49.199024875,64.0,88.0
265,48.67240503125,49.2036545,67.0,82.0
266,49.22796003125,49.60990409375,65.0,92.0
267,49.22796003125,49.64231146875,68.0,87.0
268,49.78351503125,49.88768159375,60.0,90.0
269,49.50573753125,50.4513384375,48.0,79.0
270,50.061292531250004,50.75342146875,65.0,102.0
271,50.061292531250004,50.76268071875,68.0,89.0
272,50.061292531250004,50.776569593750004,60.0,95.0
273,50.89462503125,50.97101384375,60.0,88.0
274,49.22796003125,51.20480990625,41.0,91.0
275,50.61684753125,51.217541375,48.0,80.0
276,50.89462503125,51.3957819375,65.0,97.0
277,51.17240253125,51.42471709375,60.0,87.0
278,50.89462503125,51.476800375,68.0,91.0
279,51.72795753125,51.97564246875,62.0,84.0
280,51.72795753125,51.99416096875,65.0,90.0
281,51.72795753125,52.00110540625,58.0,91.0
282,52.00573503125,52.263836625,53.0,49.0
283,52.283512531250004,52.89693784375,70.0,89.0
284,52.283512531250004,52.93513225,62.0,99.0
285,52.283512531250004,52.94323409375,58.0,93.0
286,52.283512531250004,52.95249334375,65.0,95.0
287,52.83906753125,53.29045596875,53.0,85.0
288,51.45018003125,53.47101134375,46.0,89.0
289,53.11684503125,53.622631562500004,62.0,97.0
290,53.39462253125,53.629576,58.0,99.0
291,53.11684503125,53.64230746875,65.0,93.0
292,53.11684503125,53.64693709375,70.0,88.0
293,53.95017753125,54.26499203125,51.0,88.0
294,54.22795503125,54.769621156250004,55.0,95.0
295,54.505732531250004,54.78813965625,51.0,94.0
296,54.22795503125,54.80434334375,63.0,90.0
297,54.22795503125,54.8124451875,58.0,90.0
298,55.06128753125,55.40619459375,51.0,89.0
299,53.67240003125,55.5948518125,39.0,92.0
300,54.78351003125,55.614527718750004,46.0,77.0
301,55.61684253125,55.8170738125,51.0,89.0
302,55.33906503125,55.81823121875,55.0,102.0
303,55.33906503125,55.844851562500004,58.0,95.0
304,55.33906503125,55.93512925,63.0,91.0
305,56.17239753125,56.31360109375,58.0,72.0
306,56.45017503125,56.602952656250004,58.0,90.0
307,56.727952531250004,57.0948503125,58.0,85.0
308,56.45017503125,57.097165125000004,62.0,99.0
309,56.45017503125,57.37378521875,65.0,92.0
310,57.28350753125,57.4513314375,58.0,88.0
311,55.89462003125,57.78582184375,46.0,86.0
312,57.00573003125,57.958275375,53.0,88.0
313,57.56128503125,57.9744790625,62.0,104.0
314,57.83906253125,58.036979,58.0,88.0
315,57.56128503125,58.04623825,65.0,95.0
316,58.39461753125,58.5300340625,60.0,88.0
317,58.67239503125,58.78813565625,60.0,91.0
318,58.11684003125,59.0717001875,48.0,89.0
319,58.950172531250004,59.2892925625,60.0,89.0
320,58.67239503125,59.34253325,63.0,93.0
321,58.67239503125,59.482579406250004,67.0,90.0
322,59.50572753125,59.6689218125,60.0,89.0
323,59.78350503125,59.810125375,60.0,73.0
324,59.22795003125,59.88304196875,55.0,76.0
325,59.78350503125,60.21290275,63.0,95.0
326,59.78350503125,60.2152175625,67.0,97.0
327,60.06128253125,60.303180437500004,60.0,88.0
328,60.61683753125,60.9328094375,58.0,84.0
329,60.89461503125,61.48489221875,62.0,93.0
330,61.172392531250004,61.523086625,58.0,88.0
331,60.89461503125,61.52655884375,67.0,90.0
332,61.72794753125,61.8494751875,58.0,86.0
333,60.33906003125,61.87378071875,43.0,92.0
334,61.45017003125,61.896928843750004,50.0,70.0
335,62.00572503125,62.439752375,62.0,99.0
336,62.00572503125,62.4652153125,67.0,89.0
337,62.28350253125,62.50572453125,58.0,89.0
338,62.83905753125,63.20942753125,56.0,80.0
339,63.11683503125,63.60757528125,60.0,91.0
340,63.11683503125,63.629566000000004,63.0,92.0
341,63.39461253125,63.666603,56.0,90.0
342,63.95016753125,64.1503988125,56.0,84.0
343,62.56128003125,64.21174134375,44.0,89.0
344,63.67239003125,64.2939171875,51.0,82.0
345,64.22794503125,64.64229646875,68.0,86.0
346,64.22794503125,64.66775940625,60.0,94.0
347,64.22794503125,64.67007421875,63.0,92.0
348,64.50572253125,64.7383611875,56.0,89.0
349,65.06127753125,65.39924015625,51.0,89.0
350,65.61683253125,66.0253969375,51.0,84.0
351,65.33905503125,66.2244708125,55.0,90.0
352,65.33905503125,66.2429893125,63.0,90.0
353,65.33905503125,66.24993375,58.0,90.0
354,66.17238753125,66.523081625,51.0,87.0
355,64.78350003125,66.80664615625,39.0,91.0
356,65.89461003125,66.82516465625,46.0,80.0
357,66.45016503125,66.86914609375,55.0,89.0
358,66.72794253125,66.9466923125,51.0,88.0
359,66.45016503125,66.95942378125,58.0,90.0
360,66.45016503125,67.0716921875,63.0,88.0
361,67.28349753125,67.615673125,53.0,87.0
362,67.56127503125,67.986043125,56.0,90.0
363,67.56127503125,67.99414496875,60.0,90.0
364,67.83905253125,68.20016328125,53.0,89.0
365,68.39460753125,68.754560875,53.0,91.0
366,67.00572003125001,69.03118096875001,41.0,91.0
367,68.11683003125,69.07053278125,48.0,79.0
368,68.67238503125,69.21289375,56.0,102.0
369,68.95016253125,69.2198381875,53.0,89.0
370,68.67238503125,69.2406715,60.0,93.0
371,68.67238503125,69.3633565625,65.0,91.0
372,69.50571753125,69.73141175,58.0,88.0
373,69.78349503125,69.96868003125,58.0,91.0
374,69.78349503125,70.08442065625,62.0,91.0
375,69.78349503125,70.087892875,65.0,92.0
376,70.06127253125,70.45479065625,53.0,86.0
377,70.33905003125,70.643447875,58.0,95.0
378,70.33905003125,70.6550219375,62.0,97.0
379,70.33905003125,70.666596,70.0,88.0
380,70.61682753125,70.95479015625,53.0,89.0
381,70.89460503125,71.1318733125,58.0,91.0
382,69.22794003125,71.1874288125,46.0,86.0
383,70.89460503125,71.33210459375,62.0,94.0
384,70.89460503125,71.35525271875,65.0,92.0
385,71.17238253125,71.42932671875,53.0,91.0
386,71.72793753125,72.04275203125,51.0,88.0
387,72.00571503125,72.54738115625,55.0,95.0
388,72.28349253125,72.56589965625,51.0,94.0
389,72.00571503125,72.58210334375,63.0,90.0
390,72.00571503125,72.5902051875,58.0,90.0
391,72.83904753125,73.18395459375,51.0,89.0
392,71.45016003125001,73.3726118125,39.0,92.0
393,72.56127003125,73.39228771875,46.0,77.0
394,73.39460253125,73.5948338125,51.0,89.0
395,73.11682503125,73.59599121875,55.0,102.0
396,73.11682503125,73.6226115625,58.0,95.0
397,73.11682503125,73.71288925,63.0,91.0
398,73.95015753125,74.09136109375,58.0,72.0
399,74.22793503125,74.38071265625,58.0,90.0
400,74.50571253125,74.8726103125,58.0,85.0
401,74.22793503125,74.874925125,62.0,99.0
402,74.22793503125,75.15154521875,65.0,92.0
403,75.06126753125,75.2290914375,58.0,88.0
404,73.67238003125,75.56358184375,46.0,86.0
405,74.78349003125,75.736035375,53.0,88.0
406,75.33904503125,75.7522390625,62.0,104.0
407,75.61682253125,75.814739,58.0,88.0
408,75.33904503125,75.82399825,65.0,95.0
409,76.17237753125,76.3077940625,60.0,88.0
410,76.45015503125,76.56589565625,60.0,91.0
411,75.89460003125001,76.8494601875,48.0,89.0
412,76.72793253125,77.0670525625,60.0,89.0
413,76.45015503125,77.12029325,63.0,93.0
414,76.45015503125,77.26033940625,67.0,90.0
415,77.28348753125,77.4466818125,60.0,89.0
416,77.56126503125,77.587885375,60.0,73.0
417,77.00571003125,77.66080196875001,55.0,76.0
418,77.56126503125,77.99066275,63.0,95.0
419,77.56126503125,77.9929775625,67.0,97.0
420,77.83904253125,78.0809404375,60.0,88.0
421,78.39459753125,78.7105694375,58.0,84.0
422,78.67237503125,79.26265221875,62.0,93.0
423,78.95015253125,79.300846625,58.0,88.0
424,78.67237503125,79.30431884375,67.0,90.0
425,79.50570753125,79.6272351875,58.0,86.0
426,78.11682003125,79.65154071875,43.0,92.0
427,79.22793003125,79.67468884375,50.0,70.0
428,79.78348503125,80.217512375,62.0,99.0
429,79.78348503125,80.24297531250001,67.0,89.0
430,80.06126253125,80.28348453125,58.0,89.0
431,80.61681753125,80.98718753125,56.0,80.0
432,80.89459503125,81.38533528125001,60.0,91.0
433,80.89459503125,81.407326,63.0,92.0
434,81.17237253125,81.444363,56.0,90.0
435,81.72792753125,81.9281588125,56.0,84.0
436,80.33904003125001,81.98950134375,44.0,89.0
437,81.45015003125,82.0716771875,51.0,82.0
438,82.00570503125,82.42005646875,68.0,86.0
439,82.00570503125,82.44551940625,60.0,94.0
440,82.00570503125,82.44783421875,63.0,92.0
441,82.28348253125,82.5161211875,56.0,89.0
442,82.83903753125,83.17700015625,51.0,89.0
443,83.39459253125,83.8031569375,51.0,84.0
444,83.11681503125,84.0022308125,55.0,90.0
445,83.11681503125,84.0207493125,63.0,90.0
446,83.11681503125,84.02769375,58.0,90.0
447,83.95014753125,84.300841625,51.0,87.0
448,82.56126003125,84.58440615625,39.0,91.0
449,83.67237003125,84.60292465625,46.0,80.0
450,84.22792503125,84.64690609375,55.0,89.0
451,84.50570253125,84.7244523125,51.0,88.0
452,84.22792503125,84.73718378125,58.0,90.0
453,84.22792503125,84.8494521875,63.0,88.0
454,85.06125753125,85.393433125,53.0,87.0
455,85.33903503125,85.763803125,56.0,90.0
456,85.33903503125,85.77190496875001,60.0,90.0
457,85.61681253125,85.97792328125,53.0,89.0
458,86.17236753125,86.532320875,53.0,91.0
459,84.78348003125001,86.80894096875001,41.0,91.0
460,85.89459003125,86.84829278125,48.0,79.0
461,86.45014503125,86.99065375,56.0,102.0
462,86.72792253125,86.9975981875,53.0,89.0
463,86.45014503125,87.0184315,60.0,93.0
464,86.45014503125,87.1411165625,65.0,91.0
465,87.28347753125,87.50917175000001,58.0,88.0
466,87.56125503125,87.74644003125,58.0,91.0
467,87.56125503125,87.86218065625,62.0,91.0
468,87.56125503125,87.865652875,65.0,92.0
469,87.83903253125,88.23255065625,53.0,86.0
470,88.11681003125,88.42120787500001,58.0,95.0
471,88.11681003125,88.4327819375,62.0,97.0
472,88.11681003125,88.444356,70.0,88.0
473,88.39458753125,88.73255015625,53.0,89.0
474,88.67236503125,88.9096333125,58.0,91.0
475,87.00570003125,88.9651888125,46.0,86.0
476,88.67236503125,89.10986459375,62.0,94.0
477,88.67236503125,89.13301271875,65.0,92.0
478,88.95014253125,89.20708671875,53.0,91.0
479,89.22792003125001,89.65384553125,63.0,88.0
480,89.22792003125001,89.66889181250001,56.0,88.0
481,89.22792003125001,90.26032640625,44.0,89.0
482,89.78347503125,90.40152996875,56.0,91.0
483,89.78347503125,90.4142614375,60.0,99.0
484,89.78347503125,90.47097434375,63.0,92.0
485,90.61680753125,90.73139075,56.0,94.0
486,90.33903003125,90.98486271875,51.0,78.0
487,90.89458503125,90.98717753125,56.0,97.0
488,90.89458503125,91.087871875,60.0,99.0
489,91.17236253125,91.42236228125,60.0,70.0
490,91.17236253125,91.43509375000001,56.0,90.0
491,90.89458503125,91.48139,63.0,99.0
492,91.72791753125,91.85754703125001,58.0,78.0
493,91.45014003125,92.33787062500001,46.0,92.0
494,92.00569503125,92.62606478125001,58.0,95.0
495,92.00569503125,92.66425918750001,62.0,99.0
496,92.00569503125,92.67467584375,65.0,97.0
497,92.83902753125,92.995277375,58.0,89.0
498,93.11680503125,93.17467534375,58.0,87.0
499,92.56125003125,93.32629556250001,53.0,86.0
500,93.11680503125,93.3911103125,62.0,94.0
501,93.11680503125,93.4258325,65.0,95.0
502,93.39458253125,93.44550840625,58.0,81.0
503,93.11680503125,93.62374896875001,70.0,89.0
504,93.67236003125001,93.708239625,70.0,78.0
505,93.67236003125001,94.07050778125,60.0,88.0
506,93.67236003125001,94.09134109375,63.0,87.0
507,94.22791503125,94.52652584375001,67.0,94.0
508,94.22791503125,94.63069240625,60.0,93.0
509,94.22791503125,94.94897912500001,63.0,94.0
510,94.78347003125,95.17235853125,55.0,53.0
511,95.06124753125,95.32745096875,72.0,93.0
512,95.06124753125,95.34133984375,60.0,97.0
513,95.06124753125,95.35059909375,67.0,95.0
514,95.06124753125,95.3772194375,63.0,95.0
515,93.67236003125001,95.76726534375,48.0,92.0
516,95.33902503125,95.7753671875,55.0,72.0
517,95.61680253125,95.81240418750001,60.0,83.0
518,95.89458003125,96.2962,60.0,89.0
519,95.89458003125,96.2962,63.0,89.0
520,95.89458003125,96.30661665625,67.0,80.0
521,96.45013503125,96.6364774375,67.0,88.0
522,96.45013503125,96.6503663125,60.0,92.0
523,96.45013503125,96.65383853125,72.0,91.0
524,96.45013503125,96.6549959375,63.0,91.0
525,96.72791253125,96.86448646875,60.0,92.0
526,96.72791253125,96.86680128125,72.0,88.0
527,97.00569003125,97.34828228125001,55.0,78.0
528,97.28346753125,97.62143015625,60.0,92.0
529,97.28346753125,97.624902375,63.0,93.0
530,97.28346753125,97.67235603125,67.0,88.0
531,97.56124503125,97.68855971875,55.0,74.0
532,95.89458003125,97.736013375,48.0,93.0
533,97.83902253125,97.95360575000001,60.0,99.0
534,98.11680003125,98.49874409375,60.0,90.0
535,98.11680003125,98.53115146875,56.0,90.0
536,98.67235503125,98.782308625,56.0,94.0
537,98.67235503125,98.78693825,60.0,95.0
538,98.67235503125,98.791567875,63.0,93.0
539,98.95013253125,99.05198428125,63.0,88.0
540,98.95013253125,99.05661390625,56.0,90.0
541,99.50568753125,99.6642521875,68.0,89.0
542,99.50568753125,99.8448075625,56.0,94.0
543,100.06124253125,100.13994615625,56.0,87.0
544,100.06124253125,100.148048,60.0,93.0
545,100.06124253125,100.1873998125,63.0,89.0
546,98.11680003125,100.217492375,44.0,89.0
547,99.78346503125,100.236010875,51.0,74.0
548,100.33902003125,100.763788125,58.0,83.0
549,100.33902003125,100.76957515625,62.0,89.0
550,100.89457503125,101.07976003125,62.0,97.0
551,100.89457503125,101.10175075000001,65.0,94.0
552,100.89457503125,101.10985259375,58.0,90.0
553,101.17235253125,101.2799913125,70.0,88.0
554,101.17235253125,101.282306125,58.0,94.0
555,101.45013003125,101.79272228125001,53.0,69.0
556,101.72790753125,102.060083125,62.0,97.0
557,101.72790753125,102.0623979375,58.0,90.0
558,101.72790753125,102.14804600000001,65.0,94.0
559,102.00568503125,102.31124028125001,53.0,90.0
560,100.33902003125,102.337860625,46.0,90.0
561,102.28346253125,102.45707346875,58.0,94.0
562,102.56124003125,102.8170268125,58.0,91.0
563,102.56124003125,102.95360075,63.0,89.0
564,103.11679503125,103.27420228125,58.0,91.0
565,103.11679503125,103.28114671875,63.0,95.0
566,103.11679503125,103.2985078125,67.0,99.0
567,103.39457253125,103.46864653125,58.0,80.0
568,103.39457253125,103.50105390625001,63.0,89.0
569,103.39457253125,103.523044625,67.0,91.0
570,103.95012753125,104.09364590625,58.0,93.0
571,104.22790503125,104.27651609375,58.0,84.0
572,102.56124003125,104.3540623125,51.0,90.0
573,104.22790503125,104.58901578125,67.0,97.0
574,104.22790503125,104.615636125,63.0,99.0
575,104.50568253125,104.6735064375,58.0,88.0
576,104.78346003125,105.060080125,58.0,86.0
577,104.78346003125,105.10753378125,63.0,88.0
578,104.78346003125,105.13531153125,67.0,85.0
579,105.33901503125,105.51262596875,63.0,91.0
580,105.33901503125,105.51725559375001,67.0,92.0
581,105.61679253125,105.7059128125,67.0,86.0
582,105.61679253125,105.71632946875,63.0,88.0
583,105.61679253125,105.726746125,70.0,88.0
584,106.17234753125,106.31355109375001,75.0,94.0
585,106.17234753125,106.31586590625,63.0,89.0
586,104.78346003125,106.6133193125,51.0,92.0
587,107.28345753125001,107.4420221875,67.0,94.0
588,107.28345753125001,107.4697999375,70.0,89.0
589,107.28345753125001,107.47211475,63.0,88.0
590,107.83901253125,108.44086378125,63.0,89.0
591,107.83901253125,108.476743375,70.0,89.0
592,107.83901253125,108.48368781250001,67.0,92.0
593,108.39456753125,108.63530803125,58.0,69.0
594,107.00568003125,108.67581725,51.0,89.0
595,108.95012253125,109.08438165625,46.0,89.0
596,108.67234503125,109.217483375,67.0,97.0
597,108.67234503125,109.24178890625001,63.0,91.0
598,108.67234503125,109.726742125,70.0,90.0
599,109.50567753125,109.76956615625001,63.0,87.0
600,109.50567753125,109.77882540625001,60.0,83.0
601,109.50567753125,109.77882540625001,67.0,81.0
602,109.22790003125,110.15613984375,48.0,90.0
603,110.06123253125,110.7753521875,63.0,89.0
604,110.06123253125,110.7753521875,70.0,88.0
605,110.06123253125,110.77766700000001,67.0,83.0
606,110.06123253125,110.78692625000001,60.0,89.0
607,110.89456503125,111.00104640625,60.0,89.0
608,110.61678753125,111.013777875,55.0,74.0
609,110.89456503125,111.2799813125,63.0,91.0
610,110.89456503125,111.328592375,67.0,89.0
611,110.89456503125,111.43391634375,70.0,88.0
612,111.17234253125,111.5901661875,60.0,93.0
613,111.72789753125001,111.9188695625,60.0,94.0
614,111.72789753125001,111.9234991875,65.0,90.0
615,111.72789753125001,111.93507325,68.0,88.0
616,111.45012003125,112.18854521875001,41.0,90.0
617,112.28345253125,112.95706296875,65.0,99.0
618,112.28345253125,112.9697944375,68.0,90.0
619,112.28345253125,112.97095184375,60.0,94.0
620,113.11678503125,113.25104415625,60.0,93.0
621,112.83900753125,113.38530328125,41.0,89.0
622,113.11678503125,113.5577568125,65.0,97.0
623,113.39456253125,113.66076596875,60.0,90.0
624,113.11678503125,113.7221085,68.0,90.0
625,113.95011753125,114.1364599375,62.0,80.0
626,113.95011753125,114.15150621875,65.0,88.0
627,113.67234003125,114.161922875,46.0,88.0
628,113.95011753125,114.1642376875,58.0,84.0
629,115.06122753125,115.1457181875,46.0,56.0
630,114.50567253125,115.1503478125,70.0,88.0
631,114.50567253125,115.17002371875,65.0,91.0
632,114.50567253125,115.17928296875,62.0,92.0
633,114.50567253125,115.19432925,58.0,89.0
634,115.33900503125,115.42349568750001,58.0,89.0
635,115.06122753125,115.42465309375,53.0,83.0
636,115.33900503125,115.63993065625,65.0,102.0
637,115.33900503125,115.6480325,70.0,89.0
638,115.33900503125,115.73483796875,62.0,102.0
639,115.61678253125,115.90381928125001,58.0,90.0
640,116.17233753125001,116.33205959375,62.0,93.0
641,116.17233753125001,116.33553181250001,67.0,88.0
642,116.72789253125,117.34363265625001,67.0,91.0
643,116.72789253125,117.3447900625,62.0,94.0
644,117.28344753125,117.61909534375,50.0,77.0
645,115.89456003125,117.643400875,43.0,93.0
646,117.56122503125,118.069326375,62.0,99.0
647,117.83900253125,118.10057634375,58.0,90.0
648,117.56122503125,118.12025225000001,67.0,95.0
649,118.39455753125,118.5438629375,64.0,88.0
650,118.39455753125,118.54502034375,60.0,88.0
651,118.39455753125,118.56238143750001,67.0,88.0
652,118.11678003125,118.75566828125,48.0,88.0
653,118.95011253125,119.59131559375,64.0,83.0
654,118.95011253125,119.59826003125,70.0,88.0
655,118.95011253125,119.6133063125,67.0,78.0
656,118.95011253125,119.61677853125,60.0,87.0
657,119.50566753125,119.8586764375,55.0,80.0
658,119.78344503125,119.97788928125,70.0,88.0
659,119.78344503125,119.9975651875,60.0,89.0
660,120.06122253125,120.1781205625,48.0,89.0
661,119.78344503125,120.310064875,64.0,88.0
662,119.78344503125,120.3146945,67.0,82.0
663,120.33900003125,120.72094409375,65.0,92.0
664,120.33900003125,120.75335146875,68.0,87.0
665,120.89455503125001,120.99872159375,60.0,90.0
666,120.61677753125001,121.5623784375,48.0,79.0
667,121.17233253125,121.86446146875001,65.0,102.0
668,121.17233253125,121.87372071875001,68.0,89.0
669,121.17233253125,121.88760959375,60.0,95.0
670,122.00566503125,122.08205384375,60.0,88.0
671,120.33900003125,122.31584990625001,41.0,91.0
672,121.72788753125,122.328581375,48.0,80.0
673,122.00566503125,122.5068219375,65.0,97.0
674,122.28344253125,122.53575709375001,60.0,87.0
675,122.00566503125,122.587840375,68.0,91.0
676,122.83899753125,123.08668246875,62.0,84.0
677,122.83899753125,123.10520096875,65.0,90.0
678,122.83899753125,123.11214540625001,58.0,91.0
679,123.11677503125,123.374876625,53.0,49.0
680,123.39455253125,124.00797784375,70.0,89.0
681,123.39455253125,124.04617225,62.0,99.0
682,123.39455253125,124.05427409375,58.0,93.0
683,123.39455253125,124.06353334375,65.0,95.0
684,123.95010753125,124.40149596875,53.0,85.0
685,122.56122003125,124.58205134375,46.0,89.0
686,124.22788503125,124.7336715625,62.0,97.0
687,124.50566253125,124.740616,58.0,99.0
688,124.22788503125,124.75334746875001,65.0,93.0
689,124.22788503125,124.75797709375,70.0,88.0
690,124.634134625,124.958208375,56.0,77.0
691,124.7012641875,125.24987475,60.0,88.0
692,124.7591345,125.2984858125,63.0,81.0
693,125.29154137500001,125.402652375,56.0,79.0
694,125.57742071875,125.84362415625,56.0,89.0
695,125.57047628125,125.85056859375,60.0,90.0
696,125.5762633125,125.8818185625,63.0,88.0
697,125.004504625,126.41538284375,51.0,81.0
698,124.74871784375,126.53806790625,44.0,93.0
699,126.86445646875,127.04732665625001,58.0,78.0
700,126.91769715625,127.0855210625,62.0,77.0
701,126.9882989375,127.23019684375001,65.0,87.0
702,127.004502625,127.2799653125,70.0,88.0
703,127.50334471875,127.59362240625,58.0,87.0
704,127.24640053125,128.26028840625,53.0,77.0
705,127.78575184375,128.328575375,65.0,94.0
706,126.9813545,128.33204759375,46.0,92.0
707,127.77417778125,128.33204759375,62.0,95.0
708,127.7799648125,128.35056609375,58.0,90.0
709,129.0577413125,129.22093559375,55.0,76.0
710,129.1295005,129.27417628125,59.0,82.0
711,129.19315784375001,129.32510215625,62.0,82.0
712,129.23135225000001,129.53112046875,67.0,84.0
713,129.7382961875,129.88991640625,55.0,84.0
714,129.20936153125,130.28343453125,43.0,89.0
715,129.467463125,130.2938511875,50.0,74.0
716,130.03111996875,130.82394325,59.0,88.0
717,130.03806440625002,130.83898953125,55.0,95.0
718,130.03111996875,130.88065615625,62.0,89.0
719,131.4188500625,131.7105164375,60.0,88.0
720,131.42000746875001,131.83204409375,63.0,88.0
721,131.96167359375,132.10750678125,60.0,89.0
722,131.69084053125,132.3447750625,55.0,85.0
723,132.2382936875,132.5739415,67.0,89.0
724,132.24986775,132.66769140625001,60.0,91.0
725,132.48019159375,132.85982084375001,55.0,78.0
726,131.42463709375,132.9605151875,48.0,90.0
727,132.8123671875,133.01028365625,60.0,89.0
728,132.8077375625,133.1919964375,72.0,90.0
729,132.80542275,133.254496375,63.0,93.0
730,132.8031079375,133.45472765625001,67.0,89.0
731,133.374866625,133.47440356250002,63.0,47.0
732,133.3956999375,133.71167184375,60.0,102.0
733,134.15727325,134.3262545625,56.0,91.0
734,134.46167109375,134.6503283125,60.0,92.0
735,134.45704146875,134.69083753125,63.0,89.0
736,134.45935628125,134.70241159375,56.0,90.0
737,135.01028165625002,135.10634637500002,56.0,94.0
738,135.0160686875,135.1364389375,68.0,89.0
739,133.8910698125,135.20472590625,51.0,80.0
740,133.6179219375,135.3864386875,44.0,90.0
741,135.70935503125,135.84245675,63.0,75.0
742,135.76722534375,135.91537334375,68.0,84.0
743,135.86213265625,136.073938,72.0,90.0
744,136.3818080625,136.48828943750001,63.0,89.0
745,136.124863875,136.80194653125,51.0,78.0
746,136.66653,136.976714875,63.0,95.0
747,136.66074296875001,136.99407596875,68.0,95.0
748,137.25333496875,137.3401404375,68.0,99.0
749,137.25564978125,137.35981634375,63.0,99.0
750,135.85750303125,137.37602003125,44.0,90.0
751,136.93504825,137.3771774375,51.0,83.0
752,138.07046378125,138.4049541875,58.0,83.0
753,138.07509340625,138.4419911875,62.0,90.0
754,138.0808804375,138.5577318125,65.0,90.0
755,138.629491,138.777639,58.0,86.0
756,138.36907459375,139.00564803125,53.0,81.0
757,138.9142129375,139.2035645,70.0,88.0
758,138.90842590625,139.24638853125,65.0,94.0
759,138.91999996875,139.2521755625,58.0,90.0
760,138.90726850000001,139.2521755625,62.0,97.0
761,139.16074046875,139.5739345,53.0,83.0
762,139.47092534375,139.75796209375,58.0,95.0
763,139.46629571875,139.78689725,62.0,99.0
764,139.46861053125,139.7938416875,65.0,99.0
765,139.4651383125,139.7938416875,70.0,89.0
766,138.1040285625,139.80541575,46.0,90.0
767,139.745230625,139.8771749375,53.0,88.0
768,140.0484710625,140.21629496875,58.0,89.0
769,140.3123596875,140.41652625,62.0,91.0
770,140.31583190625,140.42347068750001,65.0,90.0
771,140.31814671875,140.4373595625,53.0,90.0
772,140.32046153125,140.43851696875,58.0,89.0
773,140.3216189375,140.439674375,46.0,90.0
774,140.3146745,140.45009103125,70.0,88.0
775,140.58319275,140.67462784375,53.0,94.0
776,140.57509090625,140.68388709375,62.0,93.0
777,140.5855075625,140.69083153125,46.0,90.0
778,140.57740571875001,140.69083153125,65.0,91.0
779,140.57972053125,140.7012481875,58.0,91.0
780,140.58203534375,140.71166484375001,70.0,88.0
781,140.85518321875,141.555414,70.0,92.0
782,140.851711,141.57046028125,65.0,102.0
783,140.8540258125,141.5716176875,62.0,105.0
784,140.86212765625,141.57624731250002,58.0,95.0
785,140.86444246875,141.96860803125,53.0,105.0
786,140.85749803125,141.98944134375,46.0,95.0
787,141.95008953125,141.999858,95.0,91.0
788,141.9836543125,142.0206913125,93.0,99.0
789,142.0183765,142.02879315625,92.0,79.0
790,142.013746875,142.03805240625,91.0,97.0
791,142.0160616875,142.0484690625,90.0,114.0
792,142.02647834375,142.069302375,89.0,104.0
793,142.04268203125,142.08666346875,87.0,105.0
794,142.0577283125,142.10981159375,85.0,97.0
795,142.07508940625002,142.13527453125,84.0,85.0
796,142.09823753125,142.15842265625,82.0,80.0
797,142.12370046875,142.17925596875,80.0,75.0
798,142.1456911875,142.2012466875,78.0,77.0
799,142.16768190625,142.2243948125,77.0,85.0
800,142.18967262500001,142.24407071875,75.0,90.0
801,142.21397815625,142.26837625,73.0,85.0
802,142.23712628125,142.29036696875,72.0,84.0
803,142.259117,142.3169873125,70.0,84.0
804,142.2845799375,142.33897803125,68.0,81.0
805,142.31120028125,142.36675578125,66.0,82.0
806,142.34360765625001,142.39221871875,65.0,88.0
807,142.37138540625,142.4188390625,63.0,88.0
808,142.407265,142.43388534375,61.0,82.0
809,142.56120003125,142.92694040625,63.0,90.0
810,142.56120003125,142.92925521875,67.0,89.0
811,142.56120003125,142.94545890625,58.0,88.0
812,142.56120003125,143.16073646875,39.0,92.0
813,143.11675503125,143.2614308125,58.0,91.0
814,143.11675503125,143.26490303125001,63.0,95.0
815,143.11675503125,143.2938381875,67.0,95.0
816,143.53342128125,143.73249515625,63.0,91.0
817,143.53342128125,143.7475414375,58.0,89.0
818,143.53342128125,143.7614303125,67.0,90.0
819,143.95008753125,144.33897603125,58.0,92.0
820,143.95008753125,144.34244825,63.0,95.0
821,143.95008753125,144.356337125,67.0,99.0
822,143.67231003125,144.38527228125,39.0,92.0
823,144.50564253125,144.5762443125,63.0,88.0
824,144.50564253125,144.5947628125,58.0,86.0
825,144.50564253125,144.63874425,67.0,89.0
826,144.78342003125,145.14684559375002,62.0,76.0
827,144.78342003125,145.15379003125,65.0,87.0
828,144.78342003125,145.16999371875,58.0,79.0
829,145.33897503125002,145.45703046875,62.0,102.0
830,145.33897503125002,145.4605026875,58.0,99.0
831,145.33897503125002,145.46628971875,65.0,104.0
832,144.78342003125,145.52878965625,46.0,89.0
833,145.75564128125,145.8725393125,62.0,94.0
834,145.75564128125,145.92693740625,65.0,90.0
835,145.75564128125,145.9373540625,58.0,88.0
836,145.75564128125,145.9442985,70.0,88.0
837,145.89453003125,146.328557375,53.0,82.0
838,146.17230753125,146.4743905625,70.0,92.0
839,146.17230753125,146.4882794375,62.0,104.0
840,146.17230753125,146.49059425000002,58.0,91.0
841,146.17230753125,146.5021683125,65.0,99.0
842,146.45008503125,146.629483,46.0,89.0
843,146.72786253125,146.88295496875,58.0,89.0
844,146.72786253125,146.9142049375,65.0,89.0
845,147.00564003125,147.28804715625,60.0,89.0
846,147.00564003125,147.29962121875,63.0,84.0
847,147.00564003125,147.63758384375,48.0,90.0
848,147.56119503125,147.6688338125,63.0,93.0
849,147.56119503125,147.6734634375,60.0,93.0
850,147.56119503125,147.689667125,67.0,95.0
851,147.97786128125,148.0716111875,63.0,85.0
852,147.97786128125,148.073926,60.0,85.0
853,147.97786128125,148.0808704375,67.0,79.0
854,148.11675003125,148.49637928125,55.0,80.0
855,148.39452753125,148.671147625,60.0,90.0
856,148.39452753125,148.69892537500002,63.0,91.0
857,148.39452753125,148.7197586875,67.0,91.0
858,148.67230503125,148.76952715625,48.0,86.0
859,148.95008253125,149.16536009375,60.0,87.0
860,149.22786003125,149.495220875,65.0,90.0
861,149.22786003125,149.60748928125,58.0,88.0
862,149.22786003125,149.6086466875,62.0,88.0
863,149.78341503125,150.01026665625,62.0,99.0
864,149.78341503125,150.03109996875,65.0,97.0
865,149.78341503125,150.032257375,58.0,94.0
866,149.22786003125,150.2243868125,46.0,89.0
867,150.20008128125,150.35748853125,62.0,104.0
868,150.20008128125,150.36211815625,65.0,94.0
869,150.20008128125,150.37947925,58.0,93.0
870,150.20008128125,150.39221071875,70.0,86.0
871,150.33897003125,150.78572884375,53.0,90.0
872,150.61674753125,150.9651268125,58.0,97.0
873,150.61674753125,150.99869159375,62.0,104.0
874,150.61674753125,151.01258046875,65.0,99.0
875,150.89452503125,151.11790443750002,46.0,88.0
876,151.17230253125,151.2938301875,58.0,99.0
877,151.45008003125,151.85285740625,56.0,90.0
878,151.45008003125,151.85285740625,60.0,89.0
879,152.00563503125,152.14683859375,60.0,95.0
880,152.00563503125,152.16535709375,56.0,91.0
881,152.00563503125,152.19082003125,63.0,91.0
882,151.45008003125,152.21165334375002,44.0,89.0
883,152.42230128125001,152.5299400625,60.0,89.0
884,152.42230128125001,152.53109746875,63.0,88.0
885,152.42230128125001,152.54498634375,56.0,83.0
886,152.42230128125001,152.5484585625,68.0,78.0
887,152.56119003125,153.03341178125,51.0,80.0
888,152.83896753125,153.12831909375,60.0,99.0
889,152.83896753125,153.1317913125,56.0,94.0
890,152.83896753125,153.1317913125,63.0,97.0
891,152.83896753125,153.147995,68.0,89.0
892,153.11674503125,153.24174490625,44.0,88.0
893,153.39452253125,153.624846375,56.0,94.0
894,153.39452253125,153.624846375,60.0,92.0
895,153.39452253125,153.65841115625,63.0,89.0
896,153.39452253125,153.70355,68.0,85.0
897,154.22785503125002,154.41535484375,63.0,93.0
898,154.22785503125002,154.41651225,58.0,90.0
899,154.22785503125002,154.42924371875,67.0,94.0
900,153.67230003125,154.58665096875,39.0,97.0
901,154.64452128125,154.7382711875,58.0,86.0
902,154.64452128125,154.740586,63.0,89.0
903,154.64452128125,154.76952115625,67.0,88.0
904,154.78341003125,155.1734559375,39.0,91.0
905,155.06118753125,155.39915015625002,67.0,102.0
906,155.06118753125,155.41303903125,58.0,95.0
907,155.06118753125,155.4141964375,63.0,99.0
908,155.33896503125,155.41998346875,39.0,81.0
909,155.61674253125,155.72785353125,58.0,90.0
910,155.61674253125,155.7336405625,63.0,89.0
911,155.89452003125,156.25563078125,60.0,89.0
912,155.89452003125,156.263732625,63.0,88.0
913,155.89452003125,156.2753066875,56.0,84.0
914,156.45007503125,156.65609334375,60.0,102.0
915,156.45007503125,156.65840815625,63.0,95.0
916,156.45007503125,156.671139625,68.0,88.0
917,156.45007503125,156.75100065625,56.0,93.0
918,155.89452003125,156.85979684375,44.0,90.0
919,156.86674128125,157.10979659375,68.0,88.0
920,156.86674128125,157.1549354375,63.0,92.0
921,156.86674128125,157.15609284375,60.0,97.0
922,156.86674128125,157.15725025,56.0,91.0
923,157.00563003125,157.532249875,51.0,88.0
924,157.28340753125,157.643360875,63.0,99.0
925,157.28340753125,157.64683309375,56.0,95.0
926,157.28340753125,157.6479905,60.0,102.0
927,157.28340753125,157.65377753125,68.0,89.0
928,157.83896253125,157.8956754375,68.0,77.0
929,157.56118503125,157.93618465625,44.0,89.0
930,157.83896253125,157.9442865,60.0,93.0
931,157.83896253125,157.96164759375,63.0,90.0
932,157.83896253125,157.98248090625,56.0,91.0
933,158.11674003125,158.47553596875,62.0,86.0
934,158.11674003125,158.476693375,65.0,88.0
935,158.11674003125,158.4836378125,58.0,83.0
936,158.67229503125,158.9743780625,62.0,104.0
937,158.67229503125,158.976692875,65.0,105.0
938,158.67229503125,158.9790076875,70.0,89.0
939,158.67229503125,158.9813225,58.0,95.0
940,158.11674003125,158.98247990625,46.0,89.0
941,159.08896128125,159.189655625,62.0,91.0
942,159.08896128125,159.20238709375,65.0,91.0
943,159.08896128125,159.23132225,70.0,88.0
944,159.08896128125,159.24636853125,58.0,88.0
945,159.22785003125,159.72553471875,53.0,89.0
946,159.50562753125,159.93618265625,58.0,94.0
947,159.50562753125,159.9373400625,62.0,104.0
948,159.50562753125,159.9373400625,70.0,90.0
949,159.50562753125,159.9419696875,65.0,97.0
950,160.06118253125,160.2567841875,58.0,92.0
951,160.06118253125,160.263728625,62.0,97.0
952,160.06118253125,160.263728625,65.0,95.0
953,160.06118253125,160.28340453125,70.0,89.0
954,159.78340503125,160.29497859375,46.0,91.0
955,160.33896003125,160.70470040625,63.0,90.0
956,160.33896003125,160.70701521875,67.0,89.0
957,160.33896003125,160.72321890625,58.0,88.0
958,160.33896003125,160.93849646875,39.0,92.0
959,160.89451503125,161.0391908125,58.0,91.0
960,160.89451503125,161.04266303125002,63.0,95.0
961,160.89451503125,161.0715981875,67.0,95.0
962,161.31118128125001,161.51025515625,63.0,91.0
963,161.31118128125001,161.5253014375,58.0,89.0
964,161.31118128125001,161.5391903125,67.0,90.0
965,161.72784753125,162.11673603125,58.0,92.0
966,161.72784753125,162.12020825,63.0,95.0
967,161.72784753125,162.134097125,67.0,99.0
968,161.45007003125,162.16303228125,39.0,92.0
969,162.28340253125,162.3540043125,63.0,88.0
970,162.28340253125,162.3725228125,58.0,86.0
971,162.28340253125,162.41650425,67.0,89.0
972,162.56118003125,162.92460559375002,62.0,76.0
973,162.56118003125,162.93155003125,65.0,87.0
974,162.56118003125,162.94775371875,58.0,79.0
975,163.11673503125002,163.23479046875,62.0,102.0
976,163.11673503125002,163.2382626875,58.0,99.0
977,163.11673503125002,163.24404971875,65.0,104.0
978,162.56118003125,163.30654965625,46.0,89.0
979,163.53340128125,163.6502993125,62.0,94.0
980,163.53340128125,163.70469740625,65.0,90.0
981,163.53340128125,163.7151140625,58.0,88.0
982,163.53340128125,163.7220585,70.0,88.0
983,163.67229003125001,164.106317375,53.0,82.0
984,163.95006753125,164.2521505625,70.0,92.0
985,163.95006753125,164.2660394375,62.0,104.0
986,163.95006753125,164.26835425000002,58.0,91.0
987,163.95006753125,164.2799283125,65.0,99.0
988,164.22784503125,164.407243,46.0,89.0
989,164.50562253125,164.66071496875,58.0,89.0
990,164.50562253125,164.6919649375,65.0,89.0
991,164.78340003125,165.06580715625,60.0,89.0
992,164.78340003125,165.07738121875,63.0,84.0
993,164.78340003125,165.41534384375,48.0,90.0
994,165.33895503125,165.4465938125,63.0,93.0
995,165.33895503125,165.4512234375,60.0,93.0
996,165.33895503125,165.467427125,67.0,95.0
997,165.75562128125,165.8493711875,63.0,85.0
998,165.75562128125,165.851686,60.0,85.0
999,165.75562128125,165.8586304375,67.0,79.0
1000,165.89451003125,166.27413928125,55.0,80.0
1001,166.17228753125,166.448907625,60.0,90.0
1002,166.17228753125,166.476685375,63.0,91.0
1003,166.17228753125,166.4975186875,67.0,91.0
1004,166.45006503125,166.54728715625,48.0,86.0
1005,166.72784253125,166.94312009375,60.0,87.0
1006,167.00562003125,167.272980875,65.0,90.0
1007,167.00562003125,167.38524928125,58.0,88.0
1008,167.00562003125,167.3864066875,62.0,88.0
1009,167.56117503125,167.78802665625,62.0,99.0
1010,167.56117503125,167.80885996875,65.0,97.0
1011,167.56117503125,167.810017375,58.0,94.0
1012,167.00562003125,168.0021468125,46.0,89.0
1013,167.97784128125,168.13524853125,62.0,104.0
1014,167.97784128125,168.13987815625,65.0,94.0
1015,167.97784128125,168.15723925,58.0,93.0
1016,167.97784128125,168.16997071875,70.0,86.0
1017,168.11673003125,168.56348884375,53.0,90.0
1018,168.39450753125,168.7428868125,58.0,97.0
1019,168.39450753125,168.77645159375,62.0,104.0
1020,168.39450753125,168.79034046875,65.0,99.0
1021,168.67228503125,168.8956644375,46.0,88.0
1022,168.95006253125,169.0715901875,58.0,99.0
1023,169.22784003125,169.63061740625,56.0,90.0
1024,169.22784003125,169.63061740625,60.0,89.0
1025,169.78339503125,169.92459859375,60.0,95.0
1026,169.78339503125,169.94311709375,56.0,91.0
1027,169.78339503125,169.96858003125,63.0,91.0
1028,169.22784003125,169.98941334375002,44.0,89.0
1029,170.20006128125002,170.3077000625,60.0,89.0
1030,170.20006128125002,170.30885746875,63.0,88.0
1031,170.20006128125002,170.32274634375,56.0,83.0
1032,170.20006128125002,170.3262185625,68.0,78.0
1033,170.33895003125,170.81117178125,51.0,80.0
1034,170.61672753125,170.90607909375,60.0,99.0
1035,170.61672753125,170.9095513125,56.0,94.0
1036,170.61672753125,170.9095513125,63.0,97.0
1037,170.61672753125,170.925755,68.0,89.0
1038,170.89450503125,171.01950490625,44.0,88.0
1039,171.17228253125,171.402606375,56.0,94.0
1040,171.17228253125,171.402606375,60.0,92.0
1041,171.17228253125,171.43617115625,63.0,89.0
1042,171.17228253125,171.48131,68.0,85.0
1043,172.00561503125,172.19311484375,63.0,93.0
1044,172.00561503125,172.19427225,58.0,90.0
1045,172.00561503125,172.20700371875,67.0,94.0
1046,171.45006003125,172.36441096875,39.0,97.0
1047,172.42228128125,172.5160311875,58.0,86.0
1048,172.42228128125,172.518346,63.0,89.0
1049,172.42228128125,172.54728115625,67.0,88.0
1050,172.56117003125001,172.9512159375,39.0,91.0
1051,172.83894753125,173.17691015625,67.0,102.0
1052,172.83894753125,173.19079903125,58.0,95.0
1053,172.83894753125,173.1919564375,63.0,99.0
1054,173.11672503125,173.19774346875,39.0,81.0
1055,173.39450253125,173.50561353125,58.0,90.0
1056,173.39450253125,173.5114005625,63.0,89.0
1057,173.67228003125,174.03339078125,60.0,89.0
1058,173.67228003125,174.041492625,63.0,88.0
1059,173.67228003125,174.0530666875,56.0,84.0
1060,174.22783503125,174.43385334375,60.0,102.0
1061,174.22783503125,174.43616815625,63.0,95.0
1062,174.22783503125,174.448899625,68.0,88.0
1063,174.22783503125,174.52876065625,56.0,93.0
1064,173.67228003125,174.63755684375,44.0,90.0
1065,174.64450128125,174.88755659375,68.0,88.0
1066,174.64450128125,174.9326954375,63.0,92.0
1067,174.64450128125,174.93385284375,60.0,97.0
1068,174.64450128125,174.93501025,56.0,91.0
1069,174.78339003125,175.310009875,51.0,88.0
1070,175.06116753125,175.421120875,63.0,99.0
1071,175.06116753125,175.42459309375,56.0,95.0
1072,175.06116753125,175.4257505,60.0,102.0
1073,175.06116753125,175.43153753125,68.0,89.0
1074,175.61672253125,175.6734354375,68.0,77.0
1075,175.33894503125,175.71394465625,44.0,89.0
1076,175.61672253125,175.7220465,60.0,93.0
1077,175.61672253125,175.73940759375,63.0,90.0
1078,175.61672253125,175.76024090625,56.0,91.0
1079,175.89450003125,176.25329596875,62.0,86.0
1080,175.89450003125,176.254453375,65.0,88.0
1081,175.89450003125,176.2613978125,58.0,83.0
1082,176.45005503125,176.7521380625,62.0,104.0
1083,176.45005503125,176.754452875,65.0,105.0
1084,176.45005503125,176.7567676875,70.0,89.0
1085,176.45005503125,176.7590825,58.0,95.0
1086,175.89450003125,176.76023990625,46.0,89.0
1087,176.86672128125,176.967415625,62.0,91.0
1088,176.86672128125,176.98014709375,65.0,91.0
1089,176.86672128125,177.00908225,70.0,88.0
1090,176.86672128125,177.02412853125,58.0,88.0
1091,177.00561003125,177.50329471875,53.0,89.0
1092,177.28338753125,177.71394265625,58.0,94.0
1093,177.28338753125,177.7151000625,62.0,104.0
1094,177.28338753125,177.7151000625,70.0,90.0
1095,177.28338753125,177.7197296875,65.0,97.0
1096,177.83894253125,178.0345441875,58.0,92.0
1097,177.83894253125,178.041488625,62.0,97.0
1098,177.83894253125,178.041488625,65.0,95.0
1099,177.83894253125,178.06116453125,70.0,89.0
1100,177.56116503125,178.07273859375,46.0,91.0
1101,178.04264603125,178.15144221875,39.0,93.0
1102,178.04496084375,178.522969625,75.0,95.0
1103,178.04727565625,178.61671953125,63.0,88.0
1104,178.90375628125,179.15838565625,65.0,88.0
1105,179.20699671875,179.96394040625,67.0,83.0
1106,178.65144171875,179.9650978125,58.0,90.0
1107,179.21625596875,179.9743570625,63.0,81.0
1108,179.88986640625,180.12597728125002,55.0,45.0
1109,180.07505140625,181.35051309375,58.0,82.0
1110,178.34588646875,181.4419481875,51.0,88.0
1111,180.33894003125,181.4627815,67.0,72.0
1112,180.3262085625,181.4998185,70.0,77.0
1113,180.32736596875,181.5206518125,63.0,77.0
1114,182.3863916875,183.985927125,56.0,78.0
1115,182.43500275,184.0854640625,60.0,83.0
1116,182.49403046875,184.08662146875,63.0,78.0
1117,182.53569709375,184.110927,68.0,81.0
1118,182.49866009375,184.18152878125,44.0,88.0
1119,183.902593875,184.2428713125,51.0,65.0
1120,184.17921396875,184.30537125,56.0,84.0
1121,184.5808339375,186.78106321875,58.0,70.0
1122,184.6595375625,186.85050759375,62.0,78.0
1123,184.73361156250002,186.85513721875,65.0,84.0
1124,184.76717634375,186.865553875,70.0,85.0
1125,186.7428688125,188.59356140625,53.0,69.0
1126,184.7243523125,188.67226503125,46.0,90.0
1127,186.98708153125,188.73013534375,62.0,65.0
1128,186.95930378125001,188.73939459375,58.0,66.0
1129,190.16068946875,190.26717084375,39.0,89.0
1130,190.04031921875,190.30883746875,63.0,74.0
1131,190.1132358125,190.634068625,67.0,76.0
1132,190.25096715625,190.66994821875,75.0,88.0
1133,190.21393015625,190.69078153125,70.0,82.0
1134,191.07504040625,191.3169383125,65.0,81.0
1135,191.296105,191.44772521875,67.0,79.0
1136,191.52179921875,191.68383609375,70.0,79.0
1137,191.76716934375,191.97781728125,75.0,84.0
1138,192.07040978125,192.208141125,77.0,83.0
1139,192.47781678125,192.6687888125,79.0,63.0
1140,192.4789741875,192.6780480625,75.0,79.0
1141,193.1363809375,193.208140125,79.0,72.0
1142,193.2011956875,193.31114928125,87.0,88.0
1143,194.143324375,194.20698171875,87.0,65.0
1144,194.180361375,194.2798983125,94.0,82.0
1145,190.85281840625,194.83892553125,58.0,74.0
1146,190.60281865625,194.8493421875,51.0,71.0
