,start,end,pitch,velocity
0,4.6578907,5.2105218,92.0,93.0
1,4.976969370833334,5.310850660416667,80.0,87.0
2,5.251640185416668,5.592100416666668,85.0,83.0
3,5.5444030895833345,5.925981706250001,80.0,89.0
4,5.853613347916667,6.187494637500001,85.0,91.0
5,6.139797310416667,6.495060160416668,87.0,94.0
6,6.424336537500001,6.781244122916668,88.0,93.0
7,6.708875764583334,7.004928139583335,90.0,94.0
8,7.019730758333335,7.641440745833335,92.0,95.0
9,7.626638127083335,7.978611506250001,88.0,92.0
10,7.911177354166668,8.261505997916668,90.0,95.0
11,8.213808670833334,8.768084506250002,92.0,94.0
12,8.460518983333335,8.819071304166668,80.0,86.0
13,8.735189797916668,9.095386854166668,85.0,94.0
14,9.021373760416669,9.373347139583334,88.0,90.0
15,9.304268252083334,9.940780858333335,92.0,91.0
16,9.570715389583334,10.501635635416669,80.0,82.0
17,9.866767764583335,10.580582935416668,85.0,93.0
18,10.518082989583334,10.939135256250001,88.0,93.0
19,10.858543220833335,11.276306016666668,85.0,92.0
20,11.218740277083334,11.685845135416669,81.0,83.0
21,11.646371485416669,11.958871214583334,88.0,94.0
22,12.050976397916669,13.495054093750001,85.0,95.0
23,13.17104121666667,13.552619833333335,80.0,85.0
24,13.68913287291667,14.893079197916668,85.0,90.0
25,14.921039700000001,17.30097184791667,76.0,95.0
26,17.2894587,18.060839610416668,73.0,98.0
27,18.078931700000002,20.27629821666667,71.0,99.0
28,20.447350700000005,21.338797295833338,73.0,105.0
29,21.236823700000002,23.585505875000003,76.0,94.0
30,23.605242700000005,24.286163162500003,78.0,98.0
31,25.942411727083336,26.930897712500006,68.0,98.0
32,27.034516043750003,27.276292150000003,71.0,98.0
33,24.394715700000003,27.286160562500005,80.0,99.0
34,27.276292150000003,27.511489314583336,73.0,101.0
35,27.552607700000003,28.27464654791667,85.0,96.0
36,27.547673493750004,28.89142232916667,64.0,88.0
37,28.342080700000004,29.146356318750005,83.0,110.0
38,29.131553700000005,29.993395058333338,80.0,97.0
39,29.921026700000006,30.71707864166667,78.0,101.0
40,30.710499700000003,32.38319561875001,76.0,108.0
41,32.2894457,33.75161548541667,78.0,96.0
42,33.868391700000004,36.94075745833334,80.0,94.0
43,37.42102020000001,37.90457241250001,83.0,94.0
44,37.81575670000001,38.251611585416676,76.0,89.0
45,38.21049320000001,38.68746647083334,75.0,96.0
46,38.6052297,39.40457111250001,80.0,81.0
47,39.3947027,39.79272867083334,76.0,80.0
48,39.789439200000004,40.606872702083336,83.0,99.0
49,40.578912200000005,40.965425022916676,76.0,96.0
50,40.973648700000005,41.41443779166667,75.0,98.0
51,41.368385200000006,43.40950185208334,78.0,96.0
52,43.73680420000001,44.34535630416667,83.0,94.0
53,44.13154070000001,44.52627720000001,75.0,74.0
54,44.52627720000001,45.315750200000004,76.0,92.0
55,70.1841497,73.05914720833334,73.0,94.0
56,70.1841497,73.07888403333334,76.0,90.0
57,73.34204170000001,75.97526310208335,71.0,81.0
58,73.34204170000001,76.11835508333334,75.0,84.0
59,76.49993370000001,78.52953720416667,69.0,80.0
60,76.49993370000001,79.14302351458335,73.0,90.0
61,79.65782570000002,81.15289019375001,71.0,95.0
62,80.82065363958334,81.22525855208335,76.0,94.0
63,81.17920596041668,81.83381065625001,80.0,108.0
64,81.78117912291668,82.40617858125002,83.0,110.0
65,82.37657334375001,82.78775719791668,85.0,101.0
66,82.77788878541668,85.29762344375001,78.0,95.0
67,87.09367451875,87.30913485833335,71.0,103.0
68,87.28281909166668,87.47689787083334,73.0,99.0
69,87.50321363750001,89.04762019375,68.0,101.0
70,93.78610292916667,94.44399709583335,73.0,115.0
71,94.39629976875001,95.04761499375002,75.0,103.0
72,94.99662819583335,95.20550959375001,76.0,105.0
73,95.16932541458334,95.40287784375002,71.0,95.0
74,95.36998313541667,97.81405996458335,73.0,108.0
75,99.74826881458335,100.08379483958335,68.0,96.0
76,100.11340007708336,100.94892566875002,66.0,100.0
77,100.91767569583335,101.72524078541669,68.0,105.0
78,101.74168813958335,104.36997533541668,68.0,83.0
79,101.73510919791669,104.42754107500002,71.0,88.0
80,104.87655384375002,107.30418331875002,66.0,77.0
81,104.87819857916668,107.33214382083335,69.0,83.0
82,107.26306493333335,107.67095931666668,68.0,94.0
83,107.63970934375001,108.04924846250002,66.0,96.0
84,108.04595899166668,110.31733860208335,64.0,95.0
85,111.22194308125002,113.91437495833335,71.0,87.0
86,111.21700887500002,114.04430905625001,66.0,83.0
87,114.35187457916669,117.39134562916668,69.0,78.0
88,115.91437322500002,119.07226522500002,73.0,108.0
89,119.11996255208335,119.39134389583334,73.0,100.0
90,119.32719921458335,119.56404111458335,71.0,94.0
91,119.52621220000002,119.75154095208335,68.0,91.0
92,119.70055415416668,119.94233026041668,66.0,92.0
93,119.90614608125001,120.15779060000001,68.0,96.0
94,120.11009327291669,120.31732993541668,66.0,96.0
95,120.30746152291668,120.72357958333335,64.0,94.0
96,120.69232961041668,123.12982749791668,61.0,94.0
97,123.02785390208335,123.45055090416669,71.0,92.0
98,123.42094566666668,123.86337949375002,68.0,86.0
99,123.80581375416669,126.27785108541669,66.0,88.0
100,126.97686363750002,129.69067707500002,68.0,83.0
101,126.98179784375002,129.7219270479167,71.0,83.0
102,130.1215977541667,132.20876699791668,73.0,88.0
103,130.11995301875,132.23343802916668,66.0,74.0
104,132.10350393125003,132.8847532541667,68.0,95.0
105,132.8896874604167,133.10185832916667,66.0,95.0
106,133.08541097500003,133.2893581666667,64.0,98.0
107,133.30416078541668,135.4752115354167,61.0,95.0
108,136.05580313750002,136.4324475479167,68.0,103.0
109,136.45382910833337,138.57224832500003,71.0,95.0
110,138.79757707708336,139.28770823125,66.0,89.0
111,139.2202740791667,139.60349743125002,68.0,95.0
112,139.60185269583334,141.9340875166667,71.0,96.0
113,141.93573225208334,142.8057972875,68.0,94.0
114,142.74823154791667,145.9021986104167,73.0,98.0
115,146.36376160000003,146.81875429791668,83.0,105.0
116,146.75797910000003,147.171907475,76.0,95.0
117,147.15219660000002,147.61868730833336,75.0,100.0
118,147.54641410000002,148.36277283958336,78.0,99.0
119,148.3348491,148.72249630833335,76.0,96.0
120,148.7290666,149.45344125625002,83.0,103.0
121,149.51750160000003,149.91171910000003,76.0,101.0
122,149.91171910000003,150.3420732041667,75.0,98.0
123,150.30593660000002,151.4885891,78.0,99.0
124,151.4885891,151.82203140208335,61.0,103.0
125,151.88280660000004,152.06348962083337,64.0,99.0
126,152.07991535000002,152.18668258958337,66.0,100.0
127,152.27702410000003,155.62787285000002,68.0,101.0
128,156.61341660000002,156.9008668604167,66.0,98.0
129,157.00763410000002,157.2458071729167,68.0,105.0
130,157.40185160000001,157.52340199583335,71.0,96.0
131,157.59896035000003,159.6406784854167,71.0,98.0
132,159.76715660000002,159.89856243333335,73.0,108.0
133,159.96426535000003,160.22543444375003,71.0,99.0
134,160.35848285000003,160.52602528750003,73.0,101.0
135,160.5555916,161.34402660000003,71.0,98.0
136,161.34402660000003,161.5378502041667,68.0,99.0
137,161.54113535000002,161.7349589541667,66.0,94.0
138,161.73824410000003,162.13246160000003,64.0,100.0
139,162.13246160000003,162.38213268333337,71.0,96.0
140,162.32957035,164.49776660000003,68.0,101.0
141,165.87752785000004,166.10256033958336,61.0,100.0
142,166.07463660000002,166.29638394375002,64.0,98.0
143,166.27174535000003,166.4852798291667,65.0,105.0
144,166.46885410000002,166.85650130833335,66.0,95.0
145,166.8630716,167.079891225,68.0,105.0
146,167.06018035000002,167.31149400625003,66.0,98.0
147,167.25728910000004,167.65479174583336,64.0,111.0
148,167.65150660000003,167.86668365208337,61.0,100.0
149,167.84861535000002,169.57988720416668,71.0,103.0
150,169.62259410000001,170.23855894375004,61.0,101.0
151,170.21392035000002,170.84138320416668,63.0,101.0
152,170.80524660000003,171.21260468333335,64.0,101.0
153,171.19946410000003,173.56509780000002,59.0,101.0
154,173.95983430000004,174.1687156979167,64.0,108.0
155,174.15720255000002,174.3562155354167,63.0,101.0
156,174.35457080000003,177.55193645000003,61.0,99.0
157,177.51246280000004,180.38746030833337,73.0,94.0
158,177.51246280000004,180.40719713333337,76.0,90.0
159,180.67035480000004,183.30357620208338,71.0,81.0
160,180.67035480000004,183.44666818333337,75.0,84.0
161,183.82824680000004,185.8578503041667,69.0,80.0
162,183.82824680000004,186.47133661458338,73.0,90.0
163,186.98613880000002,188.48120329375004,71.0,95.0
164,188.14896673958336,188.55357165208338,76.0,94.0
165,188.5075190604167,189.16212375625003,80.0,108.0
166,189.10949222291669,189.73449168125003,83.0,110.0
167,189.70488644375004,190.1160702979167,85.0,101.0
168,190.1062018854167,192.62593654375004,78.0,95.0
169,194.42198761875002,194.63744795833335,71.0,103.0
170,194.61113219166668,194.80521097083337,73.0,99.0
171,194.83152673750004,196.37593329375002,68.0,101.0
172,201.1144160291667,201.77231019583337,73.0,115.0
173,201.72461286875003,202.37592809375002,75.0,103.0
174,202.32494129583336,202.53382269375004,76.0,105.0
175,202.49763851458337,202.73119094375002,71.0,95.0
176,202.6982962354167,205.14237306458335,73.0,108.0
177,207.07658191458336,207.41210793958336,68.0,96.0
178,207.44171317708336,208.27723876875004,66.0,100.0
179,208.24598879583337,209.0535538854167,68.0,105.0
180,209.07000123958338,211.6982884354167,68.0,83.0
181,209.0634222979167,211.75585417500002,71.0,88.0
182,212.20486694375003,214.63249641875004,66.0,77.0
183,212.2065116791667,214.66045692083338,69.0,83.0
184,214.59137803333337,214.9992724166667,68.0,94.0
185,214.96802244375004,215.37756156250003,66.0,96.0
186,215.3742720916667,217.64565170208337,64.0,95.0
187,218.55025618125003,221.24268805833339,71.0,87.0
188,218.54532197500004,221.37262215625003,66.0,83.0
189,221.6801876791667,224.7196587291667,69.0,78.0
190,223.24268632500002,226.40057832500003,73.0,108.0
191,226.44827565208337,226.71965699583336,73.0,100.0
192,226.65551231458338,226.89235421458338,71.0,94.0
193,226.85452530000003,227.07985405208336,68.0,91.0
194,227.0288672541667,227.2706433604167,66.0,92.0
195,227.23445918125003,227.48610370000003,68.0,96.0
196,227.4384063729167,227.6456430354167,66.0,96.0
197,227.6357746229167,228.05189268333336,64.0,94.0
198,228.0206427104167,230.4581405979167,61.0,94.0
199,230.35616700208337,230.7788640041667,71.0,92.0
200,230.7492587666667,231.19169259375005,68.0,86.0
201,231.1341268541667,233.6061641854167,66.0,88.0
202,234.30517673750003,237.01899017500006,68.0,83.0
203,234.31011094375003,237.0502401479167,71.0,83.0
204,237.44991085416672,239.53708009791671,73.0,88.0
205,237.44826611875004,239.5617511291667,66.0,74.0
206,239.43181703125003,240.2130663541667,68.0,95.0
207,240.21800056041673,240.4301714291667,66.0,95.0
208,240.41372407500003,240.61767126666672,64.0,98.0
209,240.6324738854167,242.8035246354167,61.0,95.0
210,243.38411623750005,243.7607606479167,68.0,103.0
211,243.78214220833337,245.90056142500003,71.0,95.0
212,246.12589017708336,246.61602133125004,66.0,89.0
213,246.5485871791667,246.93181053125005,68.0,95.0
214,246.93016579583337,249.2624006166667,71.0,96.0
215,249.26404535208337,250.13411038750004,68.0,94.0
216,250.0765446479167,253.2344366479167,73.0,98.0
217,253.69660730000004,253.92193605208337,76.0,100.0
218,253.89397555000005,254.09956747708338,73.0,98.0
219,254.28871205000004,254.45647506250003,76.0,96.0
220,254.48608030000003,256.08476312500005,73.0,111.0
221,257.05186755000005,257.62916968125006,68.0,101.0
222,257.64397230000003,257.80680110625,68.0,99.0
223,257.84134055000004,257.9581167645834,71.0,99.0
224,258.03870880000005,258.82818180000004,71.0,97.0
225,258.82818180000004,259.15877361875005,68.0,100.0
226,259.22291830000006,259.4186418145834,71.0,105.0
227,259.6176548,259.9219308520834,61.0,105.0
228,260.01239130000005,260.1176543666667,64.0,96.0
229,260.20975955000006,261.39396905,64.0,96.0
230,261.39396905,261.55186365000003,61.0,95.0
231,261.5913373000001,261.7327845458334,64.0,97.0
232,261.78870555000003,261.93179753125,61.0,96.0
233,261.98607380000004,262.27719196875006,64.0,105.0
234,262.3808103,262.6604153208334,66.0,95.0
235,262.77554680000003,263.5650198000001,68.0,98.0
236,263.5650198000001,264.32488756250007,68.0,96.0
237,264.35449280000006,265.8133731145834,71.0,108.0
238,266.32817530000005,266.75745124375004,83.0,101.0
239,266.7229118,267.1900166583334,76.0,94.0
240,267.11764830000004,267.61929260208336,75.0,100.0
241,267.51238480000006,268.3002130645834,78.0,93.0
242,265.93343880000003,268.34133145000004,73.0,105.0
243,268.30185780000005,268.65712065,76.0,103.0
244,268.6965943,269.48606730000006,83.0,103.0
245,269.48606730000006,269.8840932708334,76.0,98.0
246,269.8808038,270.3067902729167,75.0,97.0
247,270.27554030000005,273.2492219333334,78.0,103.0
