,start,end,pitch,velocity
0,5.026311433333334,5.202298122916668,68.0,76.0
1,5.2598638625000005,5.911179087500001,73.0,89.0
2,5.8651264958333345,6.776309916666667,76.0,88.0
3,4.690785408333334,6.847033539583334,61.0,86.0
4,6.702296822916668,6.901309808333334,66.0,74.0
5,6.4374944208333345,6.925980839583334,73.0,94.0
6,7.266441070833334,7.621703920833334,68.0,80.0
7,6.999993933333334,9.129926297916668,61.0,87.0
8,7.554269768750001,9.223676216666668,73.0,90.0
9,7.828940583333335,9.324005077083335,68.0,73.0
10,8.167756079166669,9.340452431250002,76.0,74.0
11,9.606899568750002,9.927622975000002,73.0,83.0
12,9.277952485416668,10.297688443750001,61.0,80.0
13,10.182556964583334,10.422688335416668,73.0,76.0
14,9.889794060416667,10.480254075000001,76.0,82.0
15,10.781240656250002,11.215450806250002,68.0,77.0
16,10.480254075000001,11.745055610416669,61.0,85.0
17,11.131569300000002,12.029594837500001,73.0,89.0
18,11.560845243750002,12.072357958333335,68.0,79.0
19,12.406239247916668,13.187488570833334,68.0,83.0
20,12.773015245833335,13.271370077083334,76.0,78.0
21,11.999989600000001,14.34538230416667,61.0,81.0
22,15.315776200000002,15.881565183333336,56.0,78.0
23,15.710512700000002,16.62005138541667,61.0,89.0
24,15.710512700000002,16.944064262500003,64.0,87.0
25,16.499985700000003,16.99998526666667,68.0,89.0
26,16.105249200000003,17.347024439583336,56.0,71.0
27,17.2894587,17.442419093750004,61.0,88.0
28,14.921039700000001,17.499984833333336,49.0,96.0
29,17.2894587,17.694063612500003,64.0,92.0
30,17.6841952,17.8519582125,61.0,72.0
31,18.078931700000002,18.610181239583337,56.0,84.0
32,18.078931700000002,18.896365202083338,59.0,85.0
33,18.473668200000002,19.060838743750004,51.0,87.0
34,18.868404700000003,19.764785502083335,56.0,95.0
35,19.657877700000004,20.18583776875,59.0,85.0
36,19.657877700000004,20.47366646666667,63.0,91.0
37,18.078931700000002,20.679258393750004,44.0,93.0
38,20.447350700000005,20.758205693750003,59.0,88.0
39,19.263141200000003,20.766429370833336,51.0,80.0
40,20.447350700000005,21.083863306250002,56.0,84.0
41,21.236823700000002,21.685836468750004,57.0,80.0
42,21.236823700000002,22.105244000000003,61.0,91.0
43,21.631560200000003,22.23517809791667,52.0,82.0
44,22.026296700000003,23.44405862916667,57.0,98.0
45,22.815769700000004,23.508203310416672,64.0,94.0
46,22.421033200000004,23.69076894166667,52.0,82.0
47,21.236823700000002,23.73517679791667,45.0,94.0
48,23.605242700000005,23.758203093750005,57.0,84.0
49,23.605242700000005,23.889781927083337,61.0,89.0
50,24.394715700000003,24.87497844166667,56.0,85.0
51,24.394715700000003,25.231886027083338,59.0,89.0
52,25.184188700000004,25.948990668750003,56.0,92.0
53,25.578925200000004,26.087148443750003,59.0,94.0
54,24.789452200000003,26.177608891666672,47.0,81.0
55,24.394715700000003,26.85359514791667,40.0,92.0
56,26.368398200000005,26.93254244791667,47.0,78.0
57,26.763134700000005,27.008200277083336,59.0,91.0
58,26.763134700000005,27.083858106250005,56.0,94.0
59,25.973661700000005,27.10523966666667,64.0,95.0
60,27.552607700000003,28.024646764583338,57.0,84.0
61,27.552607700000003,28.37333067291667,61.0,87.0
62,28.342080700000004,28.868396033333337,57.0,91.0
63,28.736817200000004,28.932540714583336,61.0,87.0
64,29.131553700000005,29.707211095833337,57.0,85.0
65,29.131553700000005,29.736816333333337,64.0,95.0
66,27.947344200000003,30.008197677083338,52.0,67.0
67,27.552607700000003,30.027934502083337,45.0,86.0
68,29.921026700000006,30.131552833333338,57.0,87.0
69,29.921026700000006,30.144710716666673,61.0,90.0
70,30.710499700000003,31.213788737500003,54.0,86.0
71,30.710499700000003,31.287801831250004,57.0,81.0
72,30.710499700000003,31.536156879166672,61.0,89.0
73,31.499972700000004,32.11181427500001,54.0,95.0
74,31.894709200000005,32.19898525208334,61.0,90.0
75,31.105236200000004,32.41773506250001,49.0,80.0
76,32.2894457,32.822339975000006,54.0,92.0
77,32.2894457,32.93582671875001,63.0,95.0
78,30.710499700000003,33.26477380208334,42.0,89.0
79,32.6841822,33.281221156250005,49.0,88.0
80,33.0789187,33.3256290125,54.0,94.0
81,33.0789187,33.373326339583336,61.0,92.0
82,33.868391700000004,34.406220181250006,56.0,90.0
83,33.868391700000004,34.626614727083336,61.0,92.0
84,34.263128200000004,35.55917970833334,51.0,89.0
85,35.052601200000005,36.00654774166667,61.0,88.0
86,34.657864700000005,36.026284566666675,56.0,89.0
87,35.842074200000006,36.399639506250004,51.0,81.0
88,33.868391700000004,36.483521012500006,44.0,94.0
89,36.23681070000001,36.53121833958334,63.0,90.0
90,36.23681070000001,36.59207355,56.0,83.0
91,37.02628370000001,37.85851982083334,61.0,83.0
92,37.02628370000001,38.12167748750001,64.0,90.0
93,37.42102020000001,39.198979185416675,44.0,74.0
94,37.02628370000001,39.27628175,37.0,96.0
95,38.21049320000001,39.43582108541667,61.0,74.0
96,37.81575670000001,39.53286047500001,56.0,83.0
97,39.789439200000004,40.83878039583334,57.0,78.0
98,39.789439200000004,40.87825404583334,61.0,88.0
99,40.973648700000005,41.11016173958334,57.0,84.0
100,40.973648700000005,41.11674068125001,61.0,91.0
101,39.789439200000004,41.12989856458334,45.0,97.0
102,40.578912200000005,41.14141171250001,52.0,76.0
103,40.973648700000005,41.218714277083336,64.0,87.0
104,41.368385200000006,42.24996338333334,63.0,94.0
105,41.368385200000006,42.3256212125,59.0,87.0
106,42.15785820000001,42.93910752291667,54.0,79.0
107,41.368385200000006,42.94733120000001,47.0,96.0
108,42.55259470000001,43.32068613958334,59.0,84.0
109,42.55259470000001,43.34206770000001,66.0,83.0
110,42.94733120000001,44.814105897916676,47.0,78.0
111,43.34206770000001,44.843711135416676,59.0,86.0
112,43.34206770000001,44.878250579166675,66.0,86.0
113,43.34206770000001,44.878250579166675,71.0,86.0
114,44.92101370000001,45.25653972500001,61.0,87.0
115,44.92101370000001,45.430881679166674,64.0,88.0
116,45.710486700000004,45.92430230416667,56.0,86.0
117,45.315750200000004,46.623314856250005,44.0,81.0
118,46.105223200000005,46.88153831666667,56.0,94.0
119,46.105223200000005,46.88647252291668,61.0,94.0
120,46.105223200000005,46.90456461250001,64.0,94.0
121,47.289432700000006,47.46048518333334,56.0,93.0
122,44.92101370000001,47.51969565833334,37.0,95.0
123,46.894696200000006,47.53120880625001,44.0,67.0
124,47.289432700000006,47.75489282291667,61.0,95.0
125,47.68416920000001,47.88482692083334,56.0,86.0
126,48.07890570000001,48.513115850000005,56.0,88.0
127,48.07890570000001,48.54930002916667,59.0,88.0
128,48.86837870000001,49.29436517291668,56.0,85.0
129,48.47364220000001,49.41607559375001,51.0,81.0
130,49.26311520000001,49.516404454166675,59.0,89.0
131,49.65785170000001,50.08548290833334,63.0,95.0
132,49.65785170000001,50.16443020833334,59.0,95.0
133,49.65785170000001,50.18416703333334,56.0,89.0
134,50.44732470000001,50.60686403541668,59.0,91.0
135,48.07890570000001,50.61344297708334,44.0,93.0
136,50.44732470000001,50.620021918750005,56.0,90.0
137,50.05258820000001,50.66278503958334,51.0,80.0
138,51.23679770000001,51.690744675000005,57.0,80.0
139,51.23679770000001,52.18581003541667,61.0,89.0
140,52.026270700000005,52.24995471666667,57.0,71.0
141,52.421007200000005,52.98679618333334,57.0,91.0
142,52.421007200000005,53.28613802916667,64.0,94.0
143,51.631534200000004,53.82561124583334,52.0,82.0
144,53.60521670000001,53.83876912916668,57.0,92.0
145,51.23679770000001,53.84534807083334,45.0,89.0
146,53.60521670000001,53.912782222916675,61.0,95.0
147,54.39468970000001,54.84205773333334,56.0,88.0
148,54.39468970000001,55.20225478958334,59.0,90.0
149,55.18416270000001,55.82725424791668,56.0,95.0
150,55.57889920000001,55.85028054375001,59.0,105.0
151,55.97363570000001,56.18580656875001,56.0,89.0
152,54.78942620000001,56.999950600000005,47.0,84.0
153,54.39468970000001,57.03777951458334,40.0,92.0
154,56.76310870000001,57.07889790000001,59.0,96.0
155,55.97363570000001,57.12330575625001,64.0,94.0
156,57.55258170000001,58.45225197291668,54.0,89.0
157,58.736791200000006,59.19073817500001,54.0,88.0
158,59.13152770000001,59.75159295208334,66.0,91.0
159,58.342054700000006,59.776263983333344,57.0,98.0
160,57.55258170000001,59.78284292500001,61.0,89.0
161,59.52626420000001,60.021329560416675,54.0,74.0
162,59.92100070000001,60.30422405208334,57.0,84.0
163,57.55258170000001,60.416066060416675,42.0,90.0
164,59.92100070000001,60.45389497500001,66.0,89.0
165,57.94731820000001,60.46211865208334,49.0,95.0
166,59.92100070000001,60.51146071458334,61.0,94.0
167,60.71047370000001,61.23349956250001,56.0,85.0
168,60.71047370000001,61.55257823333334,63.0,94.0
169,61.10521020000001,62.13481457083334,51.0,87.0
170,61.49994670000001,62.83547185833334,56.0,96.0
171,61.89468320000001,62.879879714583346,63.0,99.0
172,63.07889270000001,63.28941883333334,56.0,90.0
173,62.68415620000001,63.46376078750001,51.0,90.0
174,63.07889270000001,63.48349761250001,59.0,98.0
175,60.71047370000001,63.50816864375001,44.0,94.0
176,63.47362920000001,63.986786650000006,56.0,92.0
177,63.86836570000001,64.36672053125001,57.0,85.0
178,63.86836570000001,64.6874439375,64.0,92.0
179,64.65783870000001,65.41606172708335,57.0,99.0
180,65.0525752,65.78119298958335,64.0,95.0
181,65.84204820000001,66.04106118541668,57.0,78.0
182,66.23678470000002,66.43086347916667,57.0,95.0
183,63.86836570000001,66.44566609791667,45.0,91.0
184,64.2631022,66.45060030416667,52.0,72.0
185,66.23678470000002,66.52461339791668,61.0,95.0
186,67.02625770000002,67.53612567916667,56.0,85.0
187,67.02625770000002,67.8650727625,61.0,89.0
188,67.8157307,67.993362125,56.0,94.0
189,67.42099420000001,68.8519140125,44.0,87.0
190,68.21046720000001,69.10355853125002,56.0,94.0
191,68.21046720000001,69.13974271041668,64.0,94.0
192,68.99994020000001,69.62000545208335,44.0,73.0
193,69.3946767,70.12164975416668,56.0,95.0
194,69.3946767,70.13645237291668,61.0,97.0
195,69.78941320000001,70.13809710833334,44.0,86.0
196,67.02625770000002,70.13974184375002,37.0,87.0
197,70.1841497,70.51967572500001,61.0,87.0
198,70.1841497,70.69401767916668,64.0,88.0
199,70.9736227,71.18743830416668,56.0,86.0
200,70.57888620000001,71.88645085625001,44.0,81.0
201,71.36835920000001,72.14467431666668,56.0,94.0
202,71.36835920000001,72.14960852291668,61.0,94.0
203,71.36835920000001,72.16770061250001,64.0,94.0
204,72.55256870000001,72.72362118333335,56.0,93.0
205,70.1841497,72.78283165833335,37.0,95.0
206,72.15783220000002,72.79434480625001,44.0,67.0
207,72.55256870000001,73.01802882291668,61.0,95.0
208,72.94730520000002,73.14796292083335,56.0,86.0
209,73.34204170000001,73.77625185000001,56.0,88.0
210,73.34204170000001,73.81243602916668,59.0,88.0
211,74.13151470000001,74.55750117291667,56.0,85.0
212,73.73677820000002,74.67921159375001,51.0,81.0
213,74.5262512,74.77954045416668,59.0,89.0
214,74.92098770000001,75.34861890833335,63.0,95.0
215,74.92098770000001,75.42756620833335,59.0,95.0
216,74.92098770000001,75.44730303333334,56.0,89.0
217,75.71046070000001,75.87000003541668,59.0,91.0
218,73.34204170000001,75.87657897708334,44.0,93.0
219,75.71046070000001,75.88315791875002,56.0,90.0
220,75.3157242,75.92592103958334,51.0,80.0
221,76.49993370000001,76.95388067500001,57.0,80.0
222,76.49993370000001,77.44894603541668,61.0,89.0
223,77.28940670000001,77.51309071666668,57.0,71.0
224,77.68414320000001,78.24993218333334,57.0,91.0
225,77.68414320000001,78.54927402916668,64.0,94.0
226,76.89467020000001,79.08874724583335,52.0,82.0
227,78.86835270000002,79.10190512916668,57.0,92.0
228,76.49993370000001,79.10848407083334,45.0,89.0
229,78.86835270000002,79.17591822291668,61.0,95.0
230,79.65782570000002,80.10519373333335,56.0,88.0
231,79.65782570000002,80.46539078958334,59.0,90.0
232,80.44729870000002,81.09039024791667,56.0,95.0
233,80.84203520000001,81.11341654375,59.0,105.0
234,81.2367717,81.44894256875001,56.0,89.0
235,80.05256220000001,82.26308660000001,47.0,84.0
236,79.65782570000002,82.30091551458335,40.0,92.0
237,82.0262447,82.34203390000002,59.0,96.0
238,81.2367717,82.38644175625001,64.0,94.0
239,82.81571770000001,83.71538797291667,54.0,89.0
240,83.99992720000002,84.45387417500001,54.0,88.0
241,84.39466370000001,85.01472895208335,66.0,91.0
242,83.60519070000001,85.03939998333334,57.0,98.0
243,82.81571770000001,85.04597892500001,61.0,89.0
244,84.78940020000002,85.28446556041668,54.0,74.0
245,85.18413670000001,85.56736005208334,57.0,84.0
246,82.81571770000001,85.67920206041669,42.0,90.0
247,85.18413670000001,85.71703097500001,66.0,89.0
248,83.21045420000002,85.72525465208335,49.0,95.0
249,85.18413670000001,85.77459671458335,61.0,94.0
250,85.97360970000001,86.49663556250002,56.0,85.0
251,85.97360970000001,86.81571423333335,63.0,94.0
252,86.36834620000002,87.39795057083334,51.0,87.0
253,86.76308270000001,88.09860785833335,56.0,96.0
254,87.15781920000002,88.14301571458334,63.0,99.0
255,88.34202870000001,88.55255483333335,56.0,90.0
256,87.9472922,88.72689678750001,51.0,90.0
257,88.34202870000001,88.74663361250002,59.0,98.0
258,85.97360970000001,88.77130464375001,44.0,94.0
259,88.73676520000001,89.24992265000002,56.0,92.0
260,89.13150170000002,89.24992265000002,56.0,85.0
261,89.13150170000002,89.97360623333334,63.0,94.0
262,89.52623820000001,90.55584257083335,51.0,87.0
263,89.92097470000002,91.25649985833334,56.0,96.0
264,90.31571120000001,91.30090771458335,63.0,99.0
265,91.49992070000002,91.71044683333335,56.0,90.0
266,91.10518420000001,91.88478878750001,51.0,90.0
267,91.49992070000002,91.90452561250001,59.0,98.0
268,89.13150170000002,91.92919664375002,44.0,94.0
269,91.89465720000001,92.40781465000002,56.0,92.0
270,92.28939370000002,92.40781465000002,56.0,85.0
271,92.28939370000002,93.12820876250001,61.0,89.0
272,93.07886670000002,93.25649812500001,56.0,94.0
273,92.68413020000001,94.11505001250002,44.0,87.0
274,93.47360320000001,94.36669453125002,56.0,94.0
275,93.47360320000001,94.40287871041669,64.0,94.0
276,94.26307620000001,94.88314145208335,44.0,73.0
277,94.65781270000001,95.38478575416669,56.0,95.0
278,94.65781270000001,95.39958837291668,61.0,97.0
279,95.05254920000002,95.40123310833334,44.0,86.0
280,92.28939370000002,95.40287784375002,37.0,87.0
281,95.44728570000001,95.63314080208335,56.0,94.0
282,95.44728570000001,95.92754844166669,61.0,96.0
283,95.84202220000002,96.27952182083335,56.0,90.0
284,95.44728570000001,96.54596895833335,49.0,101.0
285,96.82886345000001,96.86504762916668,44.0,55.0
286,96.63149520000002,96.88807392500001,56.0,100.0
287,96.23675870000001,96.92754757500002,64.0,100.0
288,97.02623170000001,97.47031026250002,59.0,96.0
289,97.02623170000001,97.47524446875002,56.0,93.0
290,97.81570470000001,97.96373088750002,56.0,93.0
291,97.42096820000002,98.02787556875002,51.0,95.0
292,97.02623170000001,98.04432292291668,44.0,95.0
293,97.81570470000001,98.07721763125001,59.0,98.0
294,97.81570470000001,98.34037529791668,63.0,96.0
295,98.21044120000002,98.34695423958335,56.0,95.0
296,98.60517770000001,99.05912467500002,57.0,86.0
297,98.60517770000001,99.32063760625002,54.0,83.0
298,99.39465070000001,99.56570318333335,57.0,94.0
299,99.39465070000001,99.82392664375001,61.0,95.0
300,99.78938720000002,100.27458414791668,54.0,94.0
301,100.18412370000001,100.64136014583335,66.0,99.0
302,100.57886020000001,100.83214945416668,54.0,95.0
303,98.99991420000002,101.10024132708335,49.0,81.0
304,98.60517770000001,101.13149130000002,42.0,94.0
305,100.97359670000002,101.38478055416668,57.0,99.0
306,100.97359670000002,101.39300423125002,54.0,97.0
307,100.97359670000002,101.47195153125001,61.0,98.0
308,101.36833320000001,101.65945136875001,42.0,95.0
309,101.76306970000002,102.12655622708336,59.0,89.0
310,101.76306970000002,102.16602987708335,56.0,88.0
311,102.55254270000002,102.69727941666669,56.0,92.0
312,102.55254270000002,102.71701624166668,59.0,100.0
313,102.55254270000002,102.73017412500002,63.0,100.0
314,102.94727920000001,103.43083141250001,56.0,94.0
315,103.34201570000002,103.45385770833335,68.0,94.0
316,103.34201570000002,103.76142323125002,59.0,94.0
317,103.34201570000002,103.78444952708335,63.0,96.0
318,103.73675220000001,104.00977827916668,56.0,86.0
319,104.13148870000002,104.25155438541668,56.0,92.0
320,102.15780620000001,104.29102803541669,51.0,84.0
321,101.76306970000002,104.33214642083335,44.0,99.0
322,104.13148870000002,104.35352798125001,59.0,97.0
323,104.13148870000002,104.39793583750001,63.0,98.0
324,104.52622520000001,104.76306710000001,44.0,96.0
325,104.92096170000002,105.41438232500002,57.0,83.0
326,104.92096170000002,105.44069809166669,54.0,90.0
327,105.71043470000002,105.99990813333335,57.0,90.0
328,105.71043470000002,106.17096061666668,61.0,93.0
329,106.10517120000002,106.55911817500002,54.0,87.0
330,106.49990770000002,106.85352581458335,66.0,96.0
331,104.92096170000002,107.18411763333334,42.0,96.0
332,105.31569820000001,107.20878866458335,49.0,85.0
333,106.89464420000002,107.36668326458334,54.0,95.0
334,107.28938070000001,107.60352516458335,42.0,95.0
335,107.28938070000001,107.63641987291668,61.0,95.0
336,107.28938070000001,107.71043296666669,57.0,90.0
337,107.68411720000002,107.81734076875001,54.0,92.0
338,108.07885370000001,108.28937983333336,52.0,88.0
339,108.07885370000001,108.58378747291668,57.0,86.0
340,108.47359020000002,108.89299773125002,52.0,83.0
341,108.86832670000001,109.31240526250002,61.0,97.0
342,108.07885370000001,109.48016827500001,45.0,95.0
343,109.26306320000002,109.76306276666668,52.0,89.0
344,109.65779970000001,110.11174667500002,57.0,90.0
345,110.05253620000002,110.52293052916669,52.0,88.0
346,109.65779970000001,110.59200941666668,45.0,88.0
347,110.44727270000001,110.67260145208336,57.0,98.0
348,110.44727270000001,110.86996970208335,61.0,90.0
349,110.84200920000002,111.21865361041668,45.0,108.0
350,111.23674570000001,111.44398236250002,54.0,89.0
351,111.23674570000001,111.67095585000001,59.0,91.0
352,111.63148220000002,112.08378443958335,54.0,94.0
353,112.02621870000002,112.19891591875002,59.0,95.0
354,112.02621870000002,112.24990271666668,63.0,97.0
355,112.42095520000002,112.57884980000001,54.0,84.0
356,112.81569170000002,113.03608624583335,54.0,92.0
357,112.81569170000002,113.28608602916668,59.0,94.0
358,113.21042820000002,113.68575673541669,54.0,90.0
359,113.60516470000002,113.87819077916669,59.0,98.0
360,111.23674570000001,113.93575651875001,47.0,108.0
361,113.60516470000002,114.01799328958334,63.0,98.0
362,113.99990120000001,114.12654582708335,54.0,94.0
363,114.39463770000002,114.60516383333335,52.0,87.0
364,114.39463770000002,114.93740038750002,57.0,87.0
365,114.78937420000001,115.25483432291668,52.0,89.0
366,115.18411070000002,115.44562363125002,61.0,95.0
367,115.18411070000002,115.54924196250002,57.0,94.0
368,115.57884720000001,115.73180759375002,52.0,88.0
369,115.97358370000002,116.09858359166668,52.0,86.0
370,115.97358370000002,116.45055697083335,57.0,95.0
371,116.36832020000001,116.53279374166668,52.0,82.0
372,114.39463770000002,116.85845135416669,45.0,98.0
373,116.76305670000002,116.98674071666669,52.0,93.0
374,116.76305670000002,117.22029314583335,57.0,96.0
375,116.76305670000002,117.30088518125002,61.0,94.0
376,117.55252970000002,117.77950318750001,56.0,86.0
377,117.55252970000002,117.97851617291668,61.0,92.0
378,117.94726620000002,118.42917367708336,56.0,89.0
379,117.55252970000002,118.59364721875002,37.0,99.0
380,118.34200270000002,118.82555491250002,61.0,95.0
381,118.73673920000002,119.00976527916669,56.0,89.0
382,119.13147570000002,119.60515950000001,61.0,97.0
383,119.13147570000002,119.65450156250002,64.0,95.0
384,119.52621220000002,120.59035601458335,56.0,79.0
385,119.92094870000003,120.66436910833335,61.0,96.0
386,119.92094870000003,120.69726381666669,64.0,95.0
387,120.31568520000002,120.71206643541669,47.0,108.0
388,120.71042170000001,120.89627680208335,56.0,94.0
389,120.71042170000001,121.19068444166669,61.0,96.0
390,121.10515820000002,121.54265782083336,56.0,90.0
391,120.71042170000001,121.80910495833335,49.0,101.0
392,121.89463120000002,121.93081537916669,44.0,55.0
393,121.89463120000002,122.15120992500002,56.0,100.0
394,121.49989470000001,122.19068357500002,64.0,100.0
395,122.28936770000001,122.73344626250002,59.0,96.0
396,122.28936770000001,122.73838046875002,56.0,93.0
397,123.07884070000001,123.22686688750002,56.0,93.0
398,122.68410420000002,123.29101156875002,51.0,95.0
399,122.28936770000001,123.30745892291668,44.0,95.0
400,123.07884070000001,123.34035363125003,59.0,98.0
401,123.07884070000001,123.60351129791668,63.0,96.0
402,123.47357720000002,123.61009023958336,56.0,95.0
403,123.86831370000002,124.32226067500002,57.0,86.0
404,123.86831370000002,124.58377360625002,54.0,83.0
405,124.65778670000002,124.82883918333336,57.0,94.0
406,124.65778670000002,125.08706264375002,61.0,95.0
407,125.05252320000002,125.53772014791669,54.0,94.0
408,125.44725970000002,125.90449614583335,66.0,99.0
409,125.84199620000003,126.09528545416669,54.0,95.0
410,124.26305020000002,126.36337732708336,49.0,81.0
411,123.86831370000002,126.39462730000002,42.0,94.0
412,126.23673270000002,126.64791655416668,57.0,99.0
413,126.23673270000002,126.65614023125002,54.0,97.0
414,126.23673270000002,126.73508753125002,61.0,98.0
415,126.63146920000001,126.92258736875002,42.0,95.0
416,127.02620570000002,127.38969222708336,59.0,89.0
417,127.02620570000002,127.42916587708335,56.0,88.0
418,127.81567870000002,127.96041541666669,56.0,92.0
419,127.81567870000002,127.98015224166669,59.0,100.0
420,127.81567870000002,127.99331012500002,63.0,100.0
421,128.21041520000003,128.69396741250003,56.0,94.0
422,128.60515170000002,128.71699370833335,68.0,94.0
423,128.60515170000002,129.02455923125,59.0,94.0
424,128.60515170000002,129.04758552708336,63.0,96.0
425,128.99988820000002,129.27291427916668,56.0,86.0
426,129.3946247,129.51469038541669,56.0,92.0
427,127.42094220000001,129.55416403541668,51.0,84.0
428,127.02620570000002,129.59528242083334,44.0,99.0
429,129.3946247,129.61666398125,59.0,97.0
430,129.3946247,129.66107183750003,63.0,98.0
431,129.78936120000003,130.02620310000003,44.0,96.0
432,130.18409770000002,130.67751832500002,57.0,83.0
433,130.18409770000002,130.7038340916667,54.0,90.0
434,130.9735707,131.26304413333335,57.0,90.0
435,130.9735707,131.4340966166667,61.0,93.0
436,131.36830720000003,131.822254175,54.0,87.0
437,131.76304370000003,132.11666181458335,66.0,96.0
438,130.18409770000002,132.44725363333336,42.0,96.0
439,130.57883420000002,132.47192466458336,49.0,85.0
440,132.15778020000002,132.62981926458335,54.0,95.0
441,132.5525167,132.86666116458335,42.0,95.0
442,132.5525167,132.8995558729167,61.0,95.0
443,132.5525167,132.97356896666668,57.0,90.0
444,132.94725320000003,133.08047676875003,54.0,92.0
445,133.34198970000003,133.55251583333336,52.0,88.0
446,133.34198970000003,133.8469234729167,57.0,86.0
447,133.73672620000002,134.15613373125,52.0,83.0
448,134.13146270000001,134.57554126250002,61.0,97.0
449,133.34198970000003,134.743304275,45.0,95.0
450,134.5261992,135.02619876666668,52.0,89.0
451,134.92093570000003,135.374882675,57.0,90.0
452,135.31567220000002,135.78606652916667,52.0,88.0
453,134.92093570000003,135.8551454166667,45.0,88.0
454,135.71040870000002,135.93573745208334,57.0,98.0
455,135.71040870000002,136.13310570208336,61.0,90.0
456,136.1051452,136.48178961041668,45.0,108.0
457,136.49988170000003,136.7071183625,54.0,89.0
458,136.49988170000003,136.93409185000002,59.0,91.0
459,136.89461820000002,137.34692043958336,54.0,94.0
460,137.28935470000002,137.46205191875003,59.0,95.0
461,137.28935470000002,137.5130387166667,63.0,97.0
462,137.6840912,137.84198580000003,54.0,84.0
463,138.07882770000003,138.29922224583336,54.0,92.0
464,138.07882770000003,138.54922202916669,59.0,94.0
465,138.47356420000003,138.94889273541668,54.0,90.0
466,138.86830070000002,139.1413267791667,59.0,98.0
467,136.49988170000003,139.19889251875003,47.0,108.0
468,138.86830070000002,139.28112928958336,63.0,98.0
469,139.2630372,139.38968182708336,54.0,94.0
470,139.6577737,140.13968117708336,63.0,94.0
471,139.6577737,140.1413259125,56.0,87.0
472,139.6577737,140.16435220833336,59.0,88.0
473,140.05251020000003,140.63639127291668,51.0,88.0
474,140.44724670000002,140.97520676875,56.0,100.0
475,140.84198320000002,141.33869329583337,51.0,87.0
476,141.2367197,141.7104035,63.0,95.0
477,141.2367197,141.7120482354167,59.0,92.0
478,141.2367197,141.75974556250003,56.0,91.0
479,141.63145620000003,142.21533727291668,51.0,84.0
480,142.02619270000002,142.8173104354167,56.0,88.0
481,142.8156657,142.8173104354167,56.0,86.0
482,139.6577737,142.8255341125,44.0,95.0
483,142.42092920000002,142.83540252500003,51.0,95.0
484,142.02619270000002,142.84033673125003,59.0,94.0
485,142.02619270000002,142.84033673125003,63.0,96.0
486,142.8156657,143.24123048541668,61.0,92.0
487,143.21002160000003,143.69129546458336,56.0,89.0
488,142.8156657,143.85555275625003,37.0,99.0
489,143.60423910000003,144.08715553750002,61.0,95.0
490,143.99845660000003,144.27112370416668,56.0,89.0
491,144.39267410000002,144.86573510000002,61.0,97.0
492,144.39267410000002,144.91501228750002,64.0,95.0
493,144.78689160000002,145.84963627708336,56.0,79.0
494,145.18110910000001,145.92355205833337,61.0,96.0
495,145.18110910000001,145.95640351666668,64.0,95.0
496,145.5753266,145.9711866729167,47.0,108.0
497,145.96954410000004,146.56251292291668,56.0,90.0
498,145.96954410000004,146.58386637083336,61.0,94.0
499,146.75797910000003,147.33616476666668,56.0,100.0
500,147.15219660000002,147.37722908958335,61.0,96.0
501,146.36376160000003,147.70738624583336,44.0,77.0
502,147.54641410000002,148.07039486041668,61.0,96.0
503,147.54641410000002,148.078607725,56.0,93.0
504,147.54641410000002,148.0851780166667,64.0,94.0
505,145.96954410000004,148.17551952708337,37.0,98.0
506,147.94063160000002,148.26586103750003,44.0,80.0
507,148.3348491,148.4104074541667,64.0,85.0
508,148.3348491,148.41697774583335,61.0,89.0
509,148.3348491,148.51388954791668,56.0,94.0
510,148.7290666,149.66861830833335,57.0,83.0
511,148.7290666,149.6965420479167,61.0,93.0
512,149.91171910000003,150.06283580833335,57.0,88.0
513,148.7290666,150.06612095416668,45.0,96.0
514,149.91171910000003,150.07433381875003,61.0,90.0
515,149.51750160000003,150.10718527708335,52.0,76.0
516,149.91171910000003,150.15317731875,64.0,85.0
517,150.30593660000002,151.3325446729167,59.0,86.0
518,150.30593660000002,152.3131607041667,63.0,89.0
519,151.4885891,152.31973099583337,66.0,91.0
520,151.09437160000002,152.3230161416667,54.0,84.0
521,151.88280660000004,152.3377992979167,59.0,88.0
522,150.30593660000002,152.35258245416668,47.0,101.0
523,152.27702410000003,152.76815340208336,61.0,91.0
524,152.27702410000003,153.11802143333335,68.0,90.0
525,153.06545910000003,153.22807381875003,61.0,101.0
526,153.45967660000002,153.66499821458336,61.0,92.0
527,153.45967660000002,153.67156850625003,64.0,95.0
528,154.24811160000002,154.4025134541667,61.0,88.0
529,152.67124160000003,154.77373493333334,44.0,83.0
530,154.6423291,154.77702007916668,61.0,95.0
531,152.27702410000003,154.81972697500004,37.0,97.0
532,154.6423291,155.08910893333336,64.0,101.0
533,154.6423291,155.15316927708335,68.0,100.0
534,155.0365466,155.16795243333337,61.0,86.0
535,155.43076410000003,155.93339141250001,59.0,94.0
536,155.43076410000003,156.30625546458336,68.0,90.0
537,156.21919910000003,156.47051275625003,59.0,89.0
538,156.61341660000002,156.94685890208336,59.0,96.0
539,155.82498160000003,157.06348157916668,54.0,85.0
540,156.61341660000002,157.36571499583334,68.0,94.0
541,157.40185160000001,157.87491260000002,54.0,82.0
542,155.43076410000003,157.90447891250002,47.0,95.0
543,157.7960691,158.05395304791668,59.0,97.0
544,157.7960691,158.13608169375001,68.0,94.0
545,158.58450410000003,159.0197859229167,57.0,86.0
546,158.58450410000003,159.30723618333334,64.0,90.0
547,159.37293910000002,159.55854983958335,57.0,84.0
548,158.97872160000003,159.9659079229167,52.0,82.0
549,158.58450410000003,160.02175540208336,45.0,88.0
550,159.76715660000002,160.60979650625004,64.0,94.0
551,159.76715660000002,160.6656439854167,57.0,96.0
552,160.94980910000004,161.11570896458335,57.0,95.0
553,160.5555916,161.40315922500002,52.0,81.0
554,160.94980910000004,161.41137208958335,61.0,94.0
555,161.34402660000003,161.5132116104167,57.0,91.0
556,160.94980910000004,161.57562938125002,64.0,94.0
557,161.73824410000003,162.11110815208335,59.0,89.0
558,161.73824410000003,162.35913666250002,64.0,94.0
559,161.73824410000003,162.56938599583336,52.0,87.0
560,162.13246160000003,162.5973097354167,56.0,88.0
561,162.52667910000002,163.1787805479167,59.0,105.0
562,162.92089660000002,163.18699341250002,64.0,94.0
563,163.31511410000002,163.57956833958335,59.0,89.0
564,163.31511410000002,163.78817510000002,64.0,94.0
565,163.31511410000002,163.83909486041668,68.0,90.0
566,163.7093316,164.17089458958336,59.0,94.0
567,163.31511410000002,164.26616381875002,40.0,93.0
568,164.1035491,164.4501319854167,64.0,97.0
569,164.1035491,164.5536140791667,68.0,100.0
570,164.49776660000003,164.61767442291668,59.0,94.0
571,164.89198410000003,165.13672746458334,52.0,82.0
572,164.89198410000003,165.40282427708337,57.0,82.0
573,165.68041910000002,165.96458421458334,57.0,96.0
574,165.28620160000003,166.2783156416667,52.0,89.0
575,166.07463660000002,166.9189190791667,57.0,88.0
576,166.07463660000002,167.06018035000002,64.0,92.0
577,166.8630716,167.11602782916668,52.0,83.0
578,167.25728910000004,167.40347808958336,52.0,93.0
579,164.89198410000003,167.4461849854167,45.0,88.0
580,167.25728910000004,167.73363524583334,57.0,96.0
581,167.65150660000003,167.80426588125002,52.0,88.0
582,167.25728910000004,167.84697277708335,61.0,94.0
583,168.04572410000003,168.53356825625002,57.0,85.0
584,168.04572410000003,168.54178112083335,54.0,89.0
585,168.04572410000003,168.7027532666667,61.0,93.0
586,168.83415910000002,169.01319954791668,54.0,94.0
587,169.22837660000002,169.40248932916668,54.0,96.0
588,169.22837660000002,169.45340908958335,61.0,94.0
589,170.0168116,170.2155629229167,54.0,84.0
590,170.4110291,170.56871610000002,54.0,90.0
591,168.43994160000003,170.68041105833336,49.0,86.0
592,170.4110291,170.73461596458336,57.0,90.0
593,168.04572410000003,170.9005158291667,42.0,94.0
594,170.80524660000003,170.9629336,54.0,94.0
595,170.4110291,170.9892147666667,61.0,96.0
596,171.19946410000003,171.65938451666668,56.0,89.0
597,171.19946410000003,171.8564932666667,59.0,89.0
598,171.98789910000002,172.13901580833334,56.0,95.0
599,172.38211660000002,172.5907233604167,56.0,96.0
600,172.38211660000002,172.6482134125,63.0,96.0
601,171.59368160000002,172.94223396458335,51.0,85.0
602,172.7763341,173.33154537083337,59.0,88.0
603,172.7763341,173.35128219583336,56.0,85.0
604,171.19946410000003,173.73779501875003,44.0,95.0
605,173.1705516,173.79536075833337,51.0,87.0
606,173.56509780000002,173.8035844354167,56.0,93.0
607,173.56509780000002,173.83483440833336,59.0,100.0
608,173.56509780000002,173.88088700000003,63.0,96.0
609,173.95983430000004,174.1144394291667,44.0,95.0
610,174.35457080000003,174.57496534583336,56.0,85.0
611,174.35457080000003,174.83318880625004,61.0,89.0
612,174.74930730000003,175.2739778979167,56.0,82.0
613,175.14404380000002,175.3085173416667,61.0,85.0
614,175.53878030000004,176.52068734375004,64.0,91.0
615,176.32825330000003,176.54371363958336,63.0,87.0
616,175.53878030000004,176.54864784583336,56.0,90.0
617,177.11772630000002,177.48614703333337,56.0,81.0
618,174.35457080000003,177.4943707104167,37.0,96.0
619,176.72298980000002,177.52726541875003,59.0,94.0
620,177.51246280000004,177.84798882500002,61.0,87.0
621,177.51246280000004,178.0223307791667,64.0,88.0
622,178.30193580000002,178.5157514041667,56.0,86.0
623,177.90719930000003,179.21476395625004,44.0,81.0
624,178.69667230000002,179.47298741666668,56.0,94.0
625,178.69667230000002,179.4779216229167,61.0,94.0
626,178.69667230000002,179.49601371250003,64.0,94.0
627,179.88088180000003,180.05193428333337,56.0,93.0
628,177.51246280000004,180.11114475833335,37.0,95.0
629,179.48614530000003,180.12265790625003,44.0,67.0
630,179.88088180000003,180.3463419229167,61.0,95.0
631,180.27561830000002,180.47627602083335,56.0,86.0
632,180.67035480000004,181.10456495000003,56.0,88.0
633,180.67035480000004,181.1407491291667,59.0,88.0
634,181.45982780000003,181.8858142729167,56.0,85.0
635,181.06509130000003,182.00752469375004,51.0,81.0
636,181.85456430000002,182.1078535541667,59.0,89.0
637,182.24930080000004,182.67693200833335,63.0,95.0
638,182.24930080000004,182.75587930833336,59.0,95.0
639,182.24930080000004,182.77561613333336,56.0,89.0
640,183.03877380000003,183.1983131354167,59.0,91.0
641,180.67035480000004,183.20489207708337,44.0,93.0
642,183.03877380000003,183.21147101875002,56.0,90.0
643,182.64403730000004,183.25423413958336,51.0,80.0
644,183.82824680000004,184.28219377500002,57.0,80.0
645,183.82824680000004,184.7772591354167,61.0,89.0
646,184.61771980000003,184.84140381666668,57.0,71.0
647,185.01245630000003,185.57824528333336,57.0,91.0
648,185.01245630000003,185.8775871291667,64.0,94.0
649,184.22298330000004,186.41706034583336,52.0,82.0
650,186.19666580000003,186.4302182291667,57.0,92.0
651,183.82824680000004,186.43679717083336,45.0,89.0
652,186.19666580000003,186.5042313229167,61.0,95.0
653,186.98613880000002,187.43350683333335,56.0,88.0
654,186.98613880000002,187.79370388958336,59.0,90.0
655,187.77561180000004,188.4187033479167,56.0,95.0
656,188.17034830000003,188.44172964375002,59.0,105.0
657,188.56508480000002,188.77725566875003,56.0,89.0
658,187.38087530000004,189.59139970000004,47.0,84.0
659,186.98613880000002,189.62922861458335,40.0,92.0
660,189.35455780000004,189.67034700000002,59.0,96.0
661,188.56508480000002,189.71475485625004,64.0,94.0
662,190.14403080000002,191.0437010729167,54.0,89.0
663,191.32824030000003,191.78218727500004,54.0,88.0
664,191.72297680000003,192.34304205208338,66.0,91.0
665,190.93350380000004,192.36771308333337,57.0,98.0
666,190.14403080000002,192.37429202500005,61.0,89.0
667,192.11771330000002,192.6127786604167,54.0,74.0
668,192.51244980000004,192.89567315208336,57.0,84.0
669,190.14403080000002,193.0075151604167,42.0,90.0
670,192.51244980000004,193.04534407500003,66.0,89.0
671,190.53876730000002,193.05356775208335,49.0,95.0
672,192.51244980000004,193.10290981458337,61.0,94.0
673,193.30192280000003,193.82494866250002,56.0,85.0
674,193.30192280000003,194.14402733333336,63.0,94.0
675,193.69665930000002,194.72626367083336,51.0,87.0
676,194.09139580000004,195.42692095833337,56.0,96.0
677,194.48613230000004,195.47132881458336,63.0,99.0
678,195.67034180000002,195.88086793333338,56.0,90.0
679,195.27560530000002,196.05520988750004,51.0,90.0
680,195.67034180000002,196.07494671250004,59.0,98.0
681,193.30192280000003,196.09961774375003,44.0,94.0
682,196.06507830000004,196.57823575000003,56.0,92.0
683,196.45981480000003,196.57823575000003,56.0,85.0
684,196.45981480000003,197.30191933333336,63.0,94.0
685,196.85455130000003,197.88415567083337,51.0,87.0
686,197.24928780000005,198.58481295833337,56.0,96.0
687,197.64402430000004,198.62922081458336,63.0,99.0
688,198.82823380000002,199.03875993333338,56.0,90.0
689,198.43349730000003,199.21310188750004,51.0,90.0
690,198.82823380000002,199.23283871250004,59.0,98.0
691,196.45981480000003,199.25750974375003,44.0,94.0
692,199.22297030000004,199.73612775000004,56.0,92.0
693,199.61770680000004,199.73612775000004,56.0,85.0
694,199.61770680000004,200.45652186250004,61.0,89.0
695,200.40717980000002,200.58481122500004,56.0,94.0
696,200.01244330000003,201.44336311250004,44.0,87.0
697,200.80191630000004,201.69500763125004,56.0,94.0
698,200.80191630000004,201.7311918104167,64.0,94.0
699,201.59138930000003,202.21145455208335,44.0,73.0
700,201.98612580000002,202.7130988541667,56.0,95.0
701,201.98612580000002,202.7279014729167,61.0,97.0
702,202.38086230000005,202.72954620833337,44.0,86.0
703,199.61770680000004,202.73119094375002,37.0,87.0
704,202.77559880000004,202.96145390208338,56.0,94.0
705,202.77559880000004,203.2558615416667,61.0,96.0
706,203.17033530000003,203.60783492083337,56.0,90.0
707,202.77559880000004,203.87428205833336,49.0,101.0
708,204.15717655000003,204.1933607291667,44.0,55.0
709,203.95980830000002,204.21638702500005,56.0,100.0
710,203.56507180000003,204.25586067500004,64.0,100.0
711,204.35454480000004,204.79862336250002,59.0,96.0
712,204.35454480000004,204.80355756875002,56.0,93.0
713,205.14401780000003,205.29204398750002,56.0,93.0
714,204.74928130000004,205.35618866875004,51.0,95.0
715,204.35454480000004,205.3726360229167,44.0,95.0
716,205.14401780000003,205.40553073125002,59.0,98.0
717,205.14401780000003,205.6686883979167,63.0,96.0
718,205.53875430000005,205.67526733958337,56.0,95.0
719,205.93349080000004,206.38743777500002,57.0,86.0
720,205.93349080000004,206.64895070625005,54.0,83.0
721,206.72296380000003,206.89401628333337,57.0,94.0
722,206.72296380000003,207.15223974375004,61.0,95.0
723,207.11770030000002,207.6028972479167,54.0,94.0
724,207.51243680000005,207.96967324583338,66.0,99.0
725,207.90717330000004,208.1604625541667,54.0,95.0
726,206.32822730000004,208.42855442708338,49.0,81.0
727,205.93349080000004,208.45980440000002,42.0,94.0
728,208.30190980000003,208.7130936541667,57.0,99.0
729,208.30190980000003,208.72131733125002,54.0,97.0
730,208.30190980000003,208.80026463125003,61.0,98.0
731,208.69664630000003,208.98776446875004,42.0,95.0
732,209.09138280000002,209.45486932708337,59.0,89.0
733,209.09138280000002,209.49434297708336,56.0,88.0
734,209.88085580000003,210.0255925166667,56.0,92.0
735,209.88085580000003,210.0453293416667,59.0,100.0
736,209.88085580000003,210.05848722500002,63.0,100.0
737,210.27559230000003,210.75914451250003,56.0,94.0
738,210.67032880000005,210.78217080833338,68.0,94.0
739,210.67032880000005,211.08973633125004,59.0,94.0
740,210.67032880000005,211.11276262708338,63.0,96.0
741,211.06506530000004,211.3380913791667,56.0,86.0
742,211.45980180000004,211.57986748541668,56.0,92.0
743,209.48611930000004,211.6193411354167,51.0,84.0
744,209.09138280000002,211.66045952083337,44.0,99.0
745,211.45980180000004,211.68184108125004,59.0,97.0
746,211.45980180000004,211.72624893750003,63.0,98.0
747,211.85453830000003,212.09138020000003,44.0,96.0
748,212.24927480000002,212.74269542500002,57.0,83.0
749,212.24927480000002,212.7690111916667,54.0,90.0
750,213.03874780000004,213.32822123333335,57.0,90.0
751,213.03874780000004,213.4992737166667,61.0,93.0
752,213.43348430000003,213.88743127500004,54.0,87.0
753,213.82822080000003,214.18183891458335,66.0,96.0
754,212.24927480000002,214.51243073333336,42.0,96.0
755,212.64401130000005,214.53710176458338,49.0,85.0
756,214.22295730000002,214.69499636458337,54.0,95.0
757,214.61769380000004,214.93183826458338,42.0,95.0
758,214.61769380000004,214.9647329729167,61.0,95.0
759,214.61769380000004,215.0387460666667,57.0,90.0
760,215.01243030000003,215.14565386875003,54.0,92.0
761,215.40716680000003,215.61769293333336,52.0,88.0
762,215.40716680000003,215.9121005729167,57.0,86.0
763,215.80190330000005,216.22131083125004,52.0,83.0
764,216.19663980000004,216.64071836250002,61.0,97.0
765,215.40716680000003,216.80848137500004,45.0,95.0
766,216.59137630000004,217.0913758666667,52.0,89.0
767,216.98611280000003,217.44005977500004,57.0,90.0
768,217.38084930000002,217.8512436291667,52.0,88.0
769,216.98611280000003,217.92032251666672,45.0,88.0
770,217.77558580000004,218.00091455208337,57.0,98.0
771,217.77558580000004,218.19828280208338,61.0,90.0
772,218.17032230000004,218.5469667104167,45.0,108.0
773,218.56505880000003,218.77229546250004,54.0,89.0
774,218.56505880000003,218.99926895000004,59.0,91.0
775,218.95979530000005,219.41209753958339,54.0,94.0
776,219.35453180000005,219.52722901875003,59.0,95.0
777,219.35453180000005,219.5782158166667,63.0,97.0
778,219.74926830000004,219.90716290000003,54.0,84.0
779,220.14400480000003,220.36439934583336,54.0,92.0
780,220.14400480000003,220.6143991291667,59.0,94.0
781,220.53874130000003,221.0140698354167,54.0,90.0
782,220.93347780000005,221.2065038791667,59.0,98.0
783,218.56505880000003,221.26406961875003,47.0,108.0
784,220.93347780000005,221.34630638958336,63.0,98.0
785,221.32821430000004,221.45485892708336,54.0,94.0
786,221.72295080000004,221.93347693333337,52.0,87.0
787,221.72295080000004,222.26571348750002,57.0,87.0
788,222.11768730000003,222.5831474229167,52.0,89.0
789,222.51242380000002,222.77393673125005,61.0,95.0
790,222.51242380000002,222.87755506250005,57.0,94.0
791,222.90716030000004,223.06012069375004,52.0,88.0
792,223.30189680000004,223.4268966916667,52.0,86.0
793,223.30189680000004,223.77887007083336,57.0,95.0
794,223.69663330000003,223.8611068416667,52.0,82.0
795,221.72295080000004,224.1867644541667,45.0,98.0
796,224.09136980000005,224.3150538166667,52.0,93.0
797,224.09136980000005,224.54860624583335,57.0,96.0
798,224.09136980000005,224.62919828125004,61.0,94.0
799,224.88084280000004,225.10781628750004,56.0,86.0
800,224.88084280000004,225.3068292729167,61.0,92.0
801,225.27557930000003,225.7574867770834,56.0,89.0
802,224.88084280000004,225.92196031875005,37.0,99.0
803,225.67031580000003,226.15386801250003,61.0,95.0
804,226.06505230000005,226.3380783791667,56.0,89.0
805,226.45978880000004,226.93347260000004,61.0,97.0
806,226.45978880000004,226.98281466250003,64.0,95.0
807,226.85452530000003,227.91866911458337,56.0,79.0
808,227.24926180000003,227.99268220833338,61.0,96.0
809,227.24926180000003,228.0255769166667,64.0,95.0
810,227.64399830000002,228.04037953541672,47.0,108.0
811,228.03873480000004,228.22458990208338,56.0,94.0
812,228.03873480000004,228.5189975416667,61.0,96.0
813,228.43347130000004,228.87097092083337,56.0,90.0
814,228.03873480000004,229.13741805833337,49.0,101.0
815,229.22294430000005,229.2591284791667,44.0,55.0
816,229.22294430000005,229.47952302500005,56.0,100.0
817,228.82820780000003,229.51899667500004,64.0,100.0
818,229.61768080000004,230.06175936250003,59.0,96.0
819,229.61768080000004,230.06669356875005,56.0,93.0
820,230.40715380000003,230.55517998750003,56.0,93.0
821,230.01241730000004,230.61932466875004,51.0,95.0
822,229.61768080000004,230.6357720229167,44.0,95.0
823,230.40715380000003,230.66866673125003,59.0,98.0
824,230.40715380000003,230.9318243979167,63.0,96.0
825,230.80189030000003,230.93840333958337,56.0,95.0
826,231.19662680000005,231.65057377500005,57.0,86.0
827,231.19662680000005,231.91208670625002,54.0,83.0
828,231.98609980000003,232.15715228333337,57.0,94.0
829,231.98609980000003,232.41537574375005,61.0,95.0
830,232.38083630000006,232.8660332479167,54.0,94.0
831,232.77557280000002,233.23280924583338,66.0,99.0
832,233.17030930000004,233.4235985541667,54.0,95.0
833,231.59136330000004,233.69169042708336,49.0,81.0
834,231.19662680000005,233.72294040000003,42.0,94.0
835,233.56504580000004,233.9762296541667,57.0,99.0
836,233.56504580000004,233.98445333125005,54.0,97.0
837,233.56504580000004,234.06340063125003,61.0,98.0
838,233.95978230000003,234.25090046875005,42.0,95.0
839,234.35451880000005,234.71800532708338,59.0,89.0
840,234.35451880000005,234.75747897708337,56.0,88.0
841,235.14399180000004,235.2887285166667,56.0,92.0
842,235.14399180000004,235.3084653416667,59.0,100.0
843,235.14399180000004,235.32162322500005,63.0,100.0
844,235.53872830000003,236.02228051250003,56.0,94.0
845,235.93346480000002,236.04530680833338,68.0,94.0
846,235.93346480000002,236.35287233125004,59.0,94.0
847,235.93346480000002,236.37589862708336,63.0,96.0
848,236.32820130000005,236.60122737916672,56.0,86.0
849,236.72293780000004,236.84300348541672,56.0,92.0
850,234.74925530000004,236.8824771354167,51.0,84.0
851,234.35451880000005,236.92359552083337,44.0,99.0
852,236.72293780000004,236.94497708125004,59.0,97.0
853,236.72293780000004,236.98938493750003,63.0,98.0
854,237.11767430000003,237.35451620000003,44.0,96.0
855,237.51241080000005,238.00583142500005,57.0,83.0
856,237.51241080000005,238.0321471916667,54.0,90.0
857,238.30188380000004,238.59135723333338,57.0,90.0
858,238.30188380000004,238.7624097166667,61.0,93.0
859,238.69662030000003,239.15056727500004,54.0,87.0
860,239.09135680000003,239.44497491458338,66.0,96.0
861,237.51241080000005,239.7755667333334,42.0,96.0
862,237.90714730000002,239.80023776458336,49.0,85.0
863,239.48609330000005,239.95813236458338,54.0,95.0
864,239.88082980000004,240.19497426458338,42.0,95.0
865,239.88082980000004,240.22786897291672,61.0,95.0
866,239.88082980000004,240.3018820666667,57.0,90.0
867,240.27556630000004,240.40878986875003,54.0,92.0
868,240.67030280000006,240.88082893333336,52.0,88.0
869,240.67030280000006,241.1752365729167,57.0,86.0
870,241.06503930000002,241.48444683125004,52.0,83.0
871,241.45977580000005,241.90385436250006,61.0,97.0
872,240.67030280000006,242.07161737500005,45.0,95.0
873,241.85451230000004,242.3545118666667,52.0,89.0
874,242.24924880000003,242.70319577500004,57.0,90.0
875,242.64398530000005,243.1143796291667,52.0,88.0
876,242.24924880000003,243.1834585166667,45.0,88.0
877,243.03872180000002,243.26405055208338,57.0,98.0
878,243.03872180000002,243.46141880208336,61.0,90.0
879,243.43345830000004,243.8101027104167,45.0,108.0
880,243.82819480000003,244.03543146250004,54.0,89.0
881,243.82819480000003,244.26240495000002,59.0,91.0
882,244.22293130000003,244.67523353958336,54.0,94.0
883,244.61766780000005,244.79036501875004,59.0,95.0
884,244.61766780000005,244.8413518166667,63.0,97.0
885,245.01240430000004,245.17029890000003,54.0,84.0
886,245.40714080000004,245.6275353458334,54.0,92.0
887,245.40714080000004,245.8775351291667,59.0,94.0
888,245.80187730000006,246.2772058354167,54.0,90.0
889,246.19661380000002,246.46963987916672,59.0,98.0
890,243.82819480000003,246.52720561875003,47.0,108.0
891,246.19661380000002,246.60944238958336,63.0,98.0
892,246.59135030000004,246.71799492708337,54.0,94.0
893,246.98608680000004,247.4679942770834,63.0,94.0
894,246.98608680000004,247.46963901250004,56.0,87.0
895,246.98608680000004,247.49266530833336,59.0,88.0
896,247.38082330000003,247.9647043729167,51.0,88.0
897,247.77555980000005,248.30351986875004,56.0,100.0
898,248.17029630000005,248.66700639583337,51.0,87.0
899,248.56503280000004,249.03871660000004,63.0,95.0
900,248.56503280000004,249.04036133541672,59.0,92.0
901,248.56503280000004,249.08805866250003,56.0,91.0
902,248.95976930000003,249.54365037291672,51.0,84.0
903,249.35450580000003,250.1456235354167,56.0,88.0
904,250.14397880000004,250.1456235354167,56.0,86.0
905,246.98608680000004,250.15384721250004,44.0,95.0
906,249.74924230000005,250.16371562500004,51.0,95.0
907,249.35450580000003,250.16864983125004,59.0,94.0
908,249.35450580000003,250.16864983125004,63.0,96.0
909,250.14397880000004,250.5699652729167,61.0,92.0
910,250.53871530000004,251.02062277708336,56.0,89.0
911,250.14397880000004,251.18509631875003,37.0,99.0
912,250.93345180000006,251.41700401250006,61.0,95.0
913,251.32818830000002,251.60121437916672,56.0,89.0
914,251.72292480000004,252.19660860000005,61.0,97.0
915,251.72292480000004,252.24595066250004,64.0,95.0
916,252.11766130000004,253.18180511458337,56.0,79.0
917,252.51239780000003,253.25581820833338,61.0,96.0
918,252.51239780000003,253.28871291666673,64.0,95.0
919,252.90713430000005,253.3035155354167,47.0,108.0
920,253.30187080000005,253.79364668958337,61.0,91.0
921,253.30187080000005,254.14397533333337,68.0,90.0
922,254.09134380000006,254.25417260625005,61.0,101.0
923,254.48608030000003,254.69167222708336,61.0,92.0
924,254.48608030000003,254.69825116875006,64.0,95.0
925,255.27555330000004,255.4301584291667,61.0,88.0
926,253.69660730000004,255.80186863333336,44.0,83.0
927,255.67028980000003,255.8051581041667,61.0,95.0
928,253.30187080000005,255.84792122500005,37.0,97.0
929,255.67028980000003,256.1176578333334,64.0,101.0
930,255.67028980000003,256.1818025145834,68.0,100.0
931,256.06502630000006,256.1966051333334,61.0,86.0
932,256.4597628,256.9630518375001,59.0,94.0
933,256.4597628,257.33640677708337,68.0,90.0
934,257.24923580000006,257.50088031875003,59.0,89.0
935,257.64397230000003,257.9778535895834,59.0,96.0
936,256.85449930000004,258.09462980416674,54.0,85.0
937,257.64397230000003,258.3972611208334,68.0,94.0
938,258.4334453,258.9071291,54.0,82.0
939,256.4597628,258.93673433750007,47.0,95.0
940,258.82818180000004,259.0864052604167,59.0,97.0
941,258.82818180000004,259.16864203125004,68.0,94.0
942,259.6176548,260.0535096854167,57.0,86.0
943,259.6176548,260.3413383833334,64.0,90.0
944,260.4071278,260.59298290208335,57.0,84.0
945,260.01239130000005,261.0008772854167,52.0,82.0
946,259.6176548,261.05679828958336,45.0,88.0
947,260.80186430000003,261.64561356875004,64.0,94.0
948,260.80186430000003,261.7015345729167,57.0,96.0
949,261.98607380000004,262.1521920770834,57.0,95.0
950,261.5913373000001,262.44002077500005,52.0,81.0
951,261.98607380000004,262.4482444520834,61.0,94.0
952,262.3808103,262.5502180479167,57.0,91.0
953,261.98607380000004,262.61271799375004,64.0,94.0
954,262.77554680000003,263.1489017395834,59.0,89.0
955,262.77554680000003,263.39725678750005,64.0,94.0
956,262.77554680000003,263.60778292083336,52.0,87.0
957,263.17028330000005,263.6357434229167,56.0,88.0
958,263.5650198000001,264.2179797604167,59.0,105.0
959,263.95975630000004,264.22620343750003,64.0,94.0
960,264.35449280000006,264.6192952020834,59.0,89.0
961,264.35449280000006,264.82817660000006,64.0,94.0
962,264.35449280000006,264.8791633979167,68.0,90.0
963,264.7492293,265.2113999520834,59.0,94.0
964,264.35449280000006,265.30679460625004,40.0,93.0
965,265.14396580000005,265.4910049729167,64.0,97.0
966,265.14396580000005,265.5946233041667,68.0,100.0
967,265.53870230000007,265.6587679854167,59.0,94.0
968,265.93343880000003,266.4137015416667,56.0,87.0
969,265.93343880000003,266.69001709166673,61.0,90.0
970,266.7229118,267.26731922291674,56.0,93.0
971,267.11764830000004,267.33804284583334,61.0,83.0
972,267.51238480000006,268.0962658729167,61.0,89.0
973,267.51238480000006,268.1176474333334,56.0,83.0
974,268.30185780000005,268.46468660625004,56.0,86.0
975,266.32817530000005,268.70975218333336,44.0,83.0
976,265.93343880000003,268.74100215625003,37.0,96.0
977,268.6965943,269.3660016145834,56.0,88.0
978,268.6965943,269.9071195666667,61.0,94.0
979,269.8808038,270.1340930541667,57.0,85.0
980,270.27554030000005,271.32159202500003,57.0,85.0
981,269.48606730000006,271.32652623125006,52.0,80.0
982,270.27554030000005,271.34955252708335,64.0,87.0
983,269.09133080000004,271.38409197083337,45.0,95.0
984,272.6406698291667,273.75908991250003,56.0,81.0
985,272.77718286875006,273.76566885416673,61.0,86.0
986,272.8511959625,273.8347477416667,64.0,83.0
987,272.64395930000006,274.8067863729167,44.0,78.0
988,272.4581041979167,274.8331021395834,37.0,96.0
