,start,end,pitch,velocity
0,28.862106864583332,29.188495622916662,67.0,88.0
1,29.27877336458333,29.52356493333333,70.0,87.0
2,29.69465501458333,29.99259992708333,70.0,88.0
3,30.10561351458333,30.38814748333333,67.0,86.0
4,30.51657201458333,31.20492750208333,67.0,86.0
5,31.33848901458333,31.660406506249995,63.0,86.0
6,31.74944751458333,32.095337585416665,65.0,90.0
7,32.16040601458333,32.50458375833333,67.0,91.0
8,32.57136451458333,32.82650124999999,72.0,90.0
9,32.98232301458333,33.27341861874999,72.0,88.0
10,33.39328151458333,33.530267681249995,70.0,81.0
11,33.59876076458333,35.105608597916664,72.0,86.0
12,35.44807401458333,35.59875879791666,72.0,87.0
13,35.65355326458333,35.93095025208333,72.0,90.0
14,36.06451176458333,36.20321025833333,72.0,87.0
15,36.269991014583326,36.595333160416665,72.0,87.0
16,36.68094951458333,36.96348348333333,70.0,87.0
17,37.091908014583325,37.21862021875,72.0,87.0
18,37.29738726458333,37.52512676666666,72.0,87.0
19,37.70834576458333,37.83505796874999,72.0,82.0
20,37.91382501458333,38.17581105833333,72.0,87.0
21,38.32478351458333,38.60731748333333,67.0,88.0
22,38.73574201458333,39.14670051458333,67.0,90.0
23,39.14670051458333,39.42923448333333,65.0,89.0
24,39.55765901458333,39.85217927291666,65.0,91.0
25,39.96861751458333,40.30765827708333,67.0,87.0
26,40.37957601458333,41.73916371874999,70.0,87.0
27,42.02341001458333,42.345327506249994,67.0,88.0
28,42.434368514583326,42.67580663333333,70.0,87.0
29,42.845327014583326,43.143271927083326,70.0,88.0
30,43.256285514583325,43.53881948333333,67.0,86.0
31,43.66724401458333,44.35559950208333,67.0,86.0
32,44.48916101458333,44.81107850625,63.0,86.0
33,44.900119514583324,45.24600958541666,65.0,90.0
34,45.31107801458333,45.655255758333325,67.0,91.0
35,45.72203651458332,45.97717324999999,72.0,90.0
36,46.13299501458333,46.42409061874999,72.0,88.0
37,46.54395351458333,46.680939681249995,70.0,81.0
38,46.74943276458333,48.25628059791666,72.0,86.0
39,48.59874601458333,48.74943079791666,72.0,87.0
40,48.80422526458332,49.08162225208333,72.0,90.0
41,49.21518376458333,49.35410665624999,72.0,87.0
42,49.421348018749995,49.74893414374999,72.0,87.0
43,49.835141018749994,50.119623706249996,70.0,87.0
44,50.24893401874999,50.37652019374999,72.0,87.0
45,50.45583051874999,50.68514080624999,72.0,87.0
46,50.86962351874999,50.997209693749994,72.0,82.0
47,51.076520018749996,51.34031305624999,72.0,87.0
48,51.490313018749994,51.77479570624999,70.0,88.0
49,51.90410601874999,52.31789901874999,70.0,90.0
50,52.31789901874999,52.60238170624999,70.0,89.0
51,52.731692018749996,53.028243668749994,70.0,91.0
52,53.145485018749994,53.35238151874999,72.0,87.0
53,53.35238151874999,54.72134669374999,74.0,87.0
54,55.62824301874999,55.823070556249995,74.0,74.0
55,56.04203601875,56.30410491874999,74.0,90.0
56,56.455829018749995,56.59031174374999,74.0,92.0
57,56.86920865416666,57.28016715416666,74.0,90.0
58,57.28016715416666,57.543865524999994,67.0,93.0
59,57.69112565416666,57.95139937083333,67.0,93.0
60,58.10208415416666,58.28530315208333,77.0,90.0
61,58.51304265416666,58.82126152916666,77.0,88.0
62,58.92400115416666,59.17571323541666,75.0,93.0
63,59.33495965416666,59.64317852916666,75.0,93.0
64,59.74591815416666,59.908589227083326,74.0,87.0
65,59.95139740416666,61.704820337499996,72.0,88.0
66,62.21166915416666,62.40516211458333,74.0,74.0
67,62.62262765416666,62.88290137083332,74.0,90.0
68,63.03358615416666,63.16714766666666,74.0,92.0
69,63.44454465416666,63.85550315416666,74.0,90.0
70,63.85550315416666,64.119201525,67.0,93.0
71,64.26646165416666,64.52673537083332,67.0,93.0
72,64.67742015416665,64.86063915208332,77.0,90.0
73,65.08837865416666,65.39659752916666,77.0,88.0
74,65.49933715416665,65.75104923541666,75.0,93.0
75,65.91029565416666,66.21851452916665,75.0,93.0
76,66.32125415416667,66.48392522708333,74.0,87.0
77,66.52673340416666,67.96508815416666,75.0,88.0
78,67.96508815416666,68.27844401041666,72.0,93.0
79,68.37604665416666,68.67912854791666,79.0,87.0
80,68.78700515416666,69.03700490833333,77.0,89.0
81,69.19796365416666,69.47536064166665,77.0,92.0
82,69.60892215416666,69.87262052499999,75.0,97.0
83,70.01988065416666,70.34008581875,75.0,93.0
84,70.43083915416666,70.75104431874999,72.0,90.0
85,70.84179765416665,70.96679753125,72.0,88.0
86,71.04727690416667,71.52844081458332,75.0,88.0
87,71.66371465416665,71.97193352916666,74.0,87.0
88,72.07467315416666,72.20481001249999,74.0,82.0
89,72.28015240416666,72.3897413375,74.0,87.0
90,72.48563165416667,72.75789166041666,74.0,87.0
91,72.89659015416666,73.15686387083332,75.0,92.0
92,73.30754865416665,73.7664523125,77.0,92.0
93,73.92398640416666,74.03015068333332,70.0,92.0
94,74.12946565416667,74.25617785833333,75.0,93.0
95,74.33494490416666,74.86405397291665,77.0,92.0
96,74.95138265416665,75.14487561458333,79.0,87.0
97,75.2253549875,75.38288907916666,79.0,87.0
98,75.49932732083333,75.66713537499999,79.0,87.0
99,75.77329965416666,75.96679261458333,79.0,89.0
100,76.0472719875,76.24590192916666,77.0,92.0
101,76.32124432083333,76.51131262708333,75.0,90.0
102,76.59521665416666,76.78357263333332,79.0,90.0
103,76.8691889875,77.02672307916666,79.0,86.0
104,77.14316132083333,77.31781868333333,79.0,89.0
105,77.41713365416666,77.61747592291665,79.0,88.0
106,77.6911059875,77.86405102291666,77.0,90.0
107,77.96507832083333,78.12261241249999,75.0,90.0
108,78.23905065416666,78.41199568958332,75.0,86.0
109,78.5130229875,78.67740638749999,75.0,80.0
110,78.78699532083333,78.94795406666665,75.0,82.0
111,79.06096765416666,79.35035093124999,75.0,84.0
112,79.47192615416665,79.88288465416666,74.0,84.0
113,79.88288465416666,80.50274705833333,72.0,86.0
114,80.67740442083333,80.99418493124999,72.0,97.0
115,81.07295197708332,81.34007500208332,75.0,95.0
116,81.44966393541665,81.67911576458333,77.0,89.0
117,81.77329375416666,81.94281413541665,77.0,88.0
118,82.05069074166666,82.21678646874999,77.0,90.0
119,82.31952609375,82.53356697916666,77.0,88.0
120,82.61747100624999,82.81781327499999,75.0,93.0
121,82.87089541458332,83.05411441249998,72.0,92.0
122,83.14658007499999,83.34007303541665,77.0,90.0
123,83.42911404374999,83.60205907916665,77.0,87.0
124,83.70651103124999,83.87260675833332,77.0,90.0
125,83.96164776666666,84.18082563333333,77.0,88.0
126,84.40342815416666,84.63972929166665,75.0,93.0
127,84.80240036458332,85.1705506875,79.0,86.0
128,85.15856439791665,85.47705723541665,77.0,92.0
129,85.63630365416665,85.93424856666665,77.0,92.0
130,86.04726215416666,86.17397435833333,75.0,93.0
131,86.25274140416666,86.393152225,72.0,88.0
132,86.45822065416665,86.86917915416666,70.0,86.0
133,87.07465840416666,87.18082268333333,70.0,92.0
134,87.28013765416665,87.40684985833332,75.0,93.0
135,87.48561690416666,88.01472597291666,77.0,92.0
136,88.10205465416666,88.29554761458333,79.0,87.0
137,88.37602698749998,88.53356107916666,79.0,87.0
138,88.64999932083333,88.817807375,79.0,87.0
139,88.92397165416665,89.11746461458333,79.0,89.0
140,89.1979439875,89.39657392916666,77.0,92.0
141,89.47191632083332,89.66198462708331,75.0,90.0
142,89.74588865416666,89.93424463333332,79.0,90.0
143,90.01986098749998,90.17739507916666,79.0,86.0
144,90.29383332083333,90.46849068333333,79.0,89.0
145,90.56780565416665,90.76814792291665,79.0,88.0
146,90.8417779875,91.01472302291666,77.0,90.0
147,91.11575032083331,91.27328441249999,75.0,90.0
148,91.38972265416666,91.56266768958332,77.0,86.0
149,91.66369498749998,91.8280783875,75.0,80.0
150,91.93766732083333,92.09862606666665,75.0,82.0
151,92.21163965416665,92.50102293124999,75.0,84.0
152,92.62259815416667,93.03355665416666,74.0,84.0
153,93.03355665416666,93.65341905833333,75.0,86.0
154,94.26643215416667,94.47191140416666,72.0,97.0
155,94.47191140416666,94.67739065416666,75.0,95.0
156,94.65513040208333,94.67739065416666,75.0,92.0
157,95.07636286458333,95.37773243125,74.0,87.0
158,95.49417067291665,95.84006074374999,75.0,97.0
159,96.10033446041666,96.27327949583332,75.0,97.0
160,96.30948638333332,96.59914148333333,77.0,87.0
161,96.69396904583333,96.98534828333332,77.0,93.0
162,97.14914134583333,97.30776199583332,75.0,95.0
163,97.35603784583333,97.91121012083332,74.0,87.0
164,97.97672734583332,100.44415579166665,75.0,90.0
165,124.32159593749998,124.64351342916666,67.0,88.0
166,124.73255443749999,124.97399255624998,70.0,87.0
167,125.14351293749999,125.44145784999999,70.0,88.0
168,125.55447143749998,125.83700540624999,67.0,86.0
169,125.96542993749999,126.65378542499998,67.0,86.0
170,126.78734693749999,127.10926442916666,63.0,86.0
171,127.19830543749998,127.54419550833332,65.0,90.0
172,127.60926393749999,127.95344168124998,67.0,91.0
173,128.0202224375,128.27535917291664,72.0,90.0
174,128.4311809375,128.72227654166664,72.0,88.0
175,128.84213943749998,128.97912560416665,70.0,81.0
176,129.04761868749998,130.55446652083333,72.0,86.0
177,130.89693193749997,131.04761672083333,72.0,87.0
178,131.1024111875,131.379808175,72.0,90.0
179,131.5133696875,131.65206818124997,72.0,87.0
180,131.71884893749998,132.04419108333332,72.0,87.0
181,132.12980743749998,132.41234140625,70.0,87.0
182,132.5407659375,132.66747814166666,72.0,87.0
183,132.7462451875,132.97398468958332,72.0,87.0
184,133.1572036875,133.28391589166665,72.0,82.0
185,133.36268293749998,133.62466898124998,72.0,87.0
186,133.77364143749998,134.05617540625,67.0,88.0
187,134.1845999375,134.5955584375,67.0,90.0
188,134.5955584375,134.87809240624998,65.0,89.0
189,135.00651693749998,135.30103719583332,65.0,91.0
190,135.41747543749997,135.7565162,67.0,87.0
191,135.8284339375,137.18802164166664,70.0,87.0
192,137.4722679375,137.79418542916665,67.0,88.0
193,137.88322643749999,138.12466455625,70.0,87.0
194,138.29418493749998,138.59212985,70.0,88.0
195,138.7051434375,138.98767740625,67.0,86.0
196,139.1161019375,139.80445742499998,67.0,86.0
197,139.93801893749998,140.25993642916666,63.0,86.0
198,140.34897743749997,140.69486750833332,65.0,90.0
199,140.7599359375,141.10411368125,67.0,91.0
200,141.17089443749998,141.42603117291665,72.0,90.0
201,141.58185293749997,141.87294854166666,72.0,88.0
202,141.9928114375,142.12979760416664,70.0,81.0
203,142.1982906875,143.70513852083332,72.0,86.0
204,144.04760393749999,144.19828872083332,72.0,87.0
205,144.25308318749998,144.53048017499998,72.0,90.0
206,144.66404168749997,144.80274018125,72.0,87.0
207,144.8695209375,145.1948630833333,72.0,87.0
208,145.2804794375,145.56301340624998,70.0,87.0
209,145.69143793749998,145.81815014166665,72.0,87.0
210,145.89691718749998,146.1246566895833,72.0,87.0
211,146.30787568749997,146.43458789166664,72.0,82.0
212,146.51335493749997,146.77534098125,72.0,87.0
213,146.9243134375,147.20684740624998,70.0,88.0
214,147.33527193749998,147.74623043749997,70.0,90.0
215,147.74623043749997,148.02876440625,70.0,89.0
216,148.1571889375,148.4517091958333,70.0,91.0
217,148.5681474375,148.77362668749998,72.0,87.0
218,148.77362668749998,150.14143444166666,74.0,87.0
219,151.04833076666665,151.24315830416666,74.0,74.0
220,151.46212376666665,151.72419266666665,74.0,90.0
221,151.87591676666665,152.01039949166665,74.0,92.0
222,152.28970976666665,152.70350276666665,74.0,90.0
223,152.70350276666665,152.96901994166666,67.0,93.0
224,153.11729576666664,153.37936466666665,67.0,93.0
225,153.53108876666664,153.71557147916664,77.0,90.0
226,153.94488176666667,154.25522651666665,77.0,88.0
227,154.35867476666667,154.61212297916666,75.0,93.0
228,154.77246776666667,155.08281251666665,75.0,93.0
229,155.18626076666666,155.35005382916665,74.0,87.0
230,155.39315726666666,157.15867406666666,72.0,88.0
231,157.6656291770833,157.85912213749998,74.0,74.0
232,158.0765876770833,158.33686139374998,74.0,90.0
233,158.48754617708332,158.6211076895833,74.0,92.0
234,158.8985046770833,159.3094631770833,74.0,90.0
235,159.3094631770833,159.57316154791664,67.0,93.0
236,159.7204216770833,159.98069539374998,67.0,93.0
237,160.13138017708332,160.31459917499998,77.0,90.0
238,160.5423386770833,160.8505575520833,77.0,88.0
239,160.9532971770833,161.20500925833332,75.0,93.0
240,161.3642556770833,161.67247455208332,75.0,93.0
241,161.7752141770833,161.93788524999997,74.0,87.0
242,161.9806934270833,163.4190481770833,75.0,88.0
243,163.4190481770833,163.7324040333333,72.0,93.0
244,163.8300066770833,164.1330885708333,79.0,87.0
245,164.2409651770833,164.49096493124998,77.0,89.0
246,164.65192367708332,164.92932066458332,77.0,92.0
247,165.0628821770833,165.32658054791665,75.0,97.0
248,165.4738406770833,165.79404584166664,75.0,93.0
249,165.8847991770833,166.20500434166664,72.0,90.0
250,166.29575767708332,166.42075755416664,72.0,88.0
251,166.5012369270833,166.98240083749997,75.0,88.0
252,167.1176746770833,167.4258935520833,74.0,87.0
253,167.5286331770833,167.65877003541664,74.0,82.0
254,167.73411242708332,167.84370136041665,74.0,87.0
255,167.9395916770833,168.2118516833333,74.0,87.0
256,168.3505501770833,168.61082389374997,75.0,92.0
257,168.7615086770833,169.22041233541665,77.0,92.0
258,169.37794642708332,169.48411070624996,70.0,92.0
259,169.5834256770833,169.71013788124998,75.0,93.0
260,169.7889049270833,170.3180139958333,77.0,92.0
261,170.4053426770833,170.59883563749997,79.0,87.0
262,170.67931501041664,170.8368491020833,79.0,87.0
263,170.95328734374996,171.12109539791663,79.0,87.0
264,171.2272596770833,171.42075263749996,79.0,89.0
265,171.50123201041663,171.6998619520833,77.0,92.0
266,171.77520434374998,171.96527264999997,75.0,90.0
267,172.0491766770833,172.23753265624998,79.0,90.0
268,172.32314901041664,172.4806831020833,79.0,86.0
269,172.59712134374996,172.77177870624996,79.0,89.0
270,172.8710936770833,173.07143594583331,79.0,88.0
271,173.14506601041663,173.31801104583332,77.0,90.0
272,173.41903834374997,173.57657243541664,75.0,90.0
273,173.6930106770833,173.86595571249998,75.0,86.0
274,173.96698301041664,174.13136641041663,75.0,80.0
275,174.24095534374996,174.4019140895833,75.0,82.0
276,174.5149276770833,174.80431095416662,75.0,84.0
277,174.9258861770833,175.3372698520833,74.0,84.0
278,175.3372698520833,175.9614076270833,72.0,86.0
279,176.1372696520833,176.4562350895833,72.0,97.0
280,176.5355454145833,176.8045108645833,75.0,95.0
281,176.91485566458329,177.1458900895833,77.0,89.0
282,177.2407176520833,177.4114072645833,77.0,88.0
283,177.5200279270833,177.6872692645833,77.0,90.0
284,177.7907175145833,178.0062347020833,77.0,88.0
285,178.0907174395833,178.2924415270833,75.0,93.0
286,178.3458897895833,178.5303725020833,72.0,92.0
287,178.6234759270833,178.8183034645833,77.0,90.0
288,178.9079586145833,179.0820965020833,77.0,87.0
289,179.1872688895833,179.3545102270833,77.0,90.0
290,179.4441653770833,179.6648549770833,77.0,88.0
291,179.8889928520833,180.1269238270833,75.0,93.0
292,180.2907168895833,180.6614064520833,79.0,86.0
293,180.6493374895833,180.9700270645833,77.0,92.0
294,181.1299112458333,181.4278561583333,77.0,92.0
295,181.5408697458333,181.66758194999997,75.0,93.0
296,181.7463489958333,181.88675981666663,72.0,88.0
297,181.9518282458333,182.3627867458333,70.0,86.0
298,182.56826599583331,182.67443027499996,70.0,92.0
299,182.7737452458333,182.90045744999998,75.0,93.0
300,182.9792244958333,183.5083335645833,77.0,92.0
301,183.5956622458333,183.78915520624997,79.0,87.0
302,183.86963457916664,184.0271686708333,79.0,87.0
303,184.14360691249996,184.31141496666663,79.0,87.0
304,184.4175792458333,184.61107220624996,79.0,89.0
305,184.69155157916663,184.8901815208333,77.0,92.0
306,184.96552391249998,185.15559221874997,75.0,90.0
307,185.2394962458333,185.42785222499998,79.0,90.0
308,185.51346857916664,185.6710026708333,79.0,86.0
309,185.78744091249996,185.96209827499996,79.0,89.0
310,186.0614132458333,186.2617555145833,79.0,88.0
311,186.33538557916663,186.50833061458331,77.0,90.0
312,186.60935791249997,186.76689200416664,75.0,90.0
313,186.8833302458333,187.05627528124995,77.0,86.0
314,187.15730257916664,187.32168597916663,75.0,80.0
315,187.43127491249996,187.5922336583333,75.0,82.0
316,187.7052472458333,187.99463052291662,75.0,84.0
317,188.1162057458333,188.5271642458333,74.0,84.0
318,188.5271642458333,189.14702664999996,75.0,86.0
319,189.7600397458333,189.9655189958333,72.0,97.0
320,189.9655189958333,190.1709982458333,75.0,95.0
321,190.14873799374996,190.1709982458333,75.0,92.0
322,190.56997045624996,190.87134002291663,74.0,87.0
323,190.9877782645833,191.33366833541663,75.0,97.0
324,191.5939420520833,191.76688708749998,75.0,97.0
325,191.80284595624997,192.09051690624997,77.0,87.0
326,192.1846948958333,192.47407817291662,77.0,93.0
327,192.6367492458333,192.79428333749996,75.0,95.0
328,192.8422284958333,193.39359781666664,74.0,87.0
329,193.45866624583329,195.3079794958333,75.0,90.0
330,195.5134587458333,195.9244172458333,70.0,92.0
331,195.9244172458333,196.3353757458333,75.0,93.0
332,196.3353757458333,196.6590055645833,77.0,92.0
333,196.7463342458333,196.93982720624996,79.0,87.0
334,197.02030657916663,197.1778406708333,79.0,87.0
335,197.29427891249998,197.46208696666662,79.0,87.0
336,197.5682512458333,197.76174420624997,79.0,89.0
337,197.84222357916664,198.0408535208333,77.0,92.0
338,198.11619591249996,198.30626421874996,75.0,90.0
339,198.3901682458333,198.57852422499997,79.0,90.0
340,198.66414057916663,198.8216746708333,79.0,86.0
341,198.93811291249997,199.11277027499997,79.0,89.0
342,199.2120852458333,199.4124275145833,79.0,88.0
343,199.48605757916664,199.6590026145833,77.0,90.0
344,199.76002991249996,199.91756400416662,75.0,90.0
345,200.0340022458333,200.20694728124997,75.0,86.0
346,200.30797457916663,200.47235797916665,75.0,80.0
347,200.58194691249997,200.7429056583333,75.0,82.0
348,200.85621450624998,201.14759374374998,75.0,84.0
349,201.27000750624998,201.68380050624998,74.0,84.0
350,201.68380050624998,202.30793828125,72.0,86.0
351,202.48380030624998,202.80276574374997,72.0,97.0
352,202.88207606874997,203.15104151874996,75.0,95.0
353,203.26138631874997,203.49242074375,77.0,89.0
354,203.58724830625,203.75793791874997,77.0,88.0
355,203.86655858125,204.03379991874996,77.0,90.0
356,204.13724816874998,204.35276535625,77.0,88.0
357,204.43724809375,204.63897218124998,75.0,93.0
358,204.69242044374997,204.87690315624997,72.0,92.0
359,204.96979399374996,205.16328695416664,77.0,90.0
360,205.25232796249998,205.42527299791664,77.0,87.0
361,205.52972494999997,205.6958206770833,77.0,90.0
362,205.78486168541664,206.0040395520833,77.0,88.0
363,206.22664207291663,206.46294321041663,75.0,93.0
364,206.6256142833333,206.99376460624995,79.0,86.0
365,206.98177831666663,207.30027115416664,77.0,92.0
366,207.45951757291664,207.75746248541662,77.0,92.0
367,207.87047607291663,207.9971882770833,75.0,93.0
368,208.07595532291663,208.21636614374995,72.0,88.0
369,208.28143457291662,208.69239307291662,70.0,86.0
370,208.89787232291664,209.0040366020833,70.0,92.0
371,209.10335157291664,209.2300637770833,75.0,93.0
372,209.30883082291663,209.83793989166662,77.0,92.0
373,209.92526857291662,210.1187615333333,79.0,87.0
374,210.19924090624997,210.35677499791663,79.0,87.0
375,210.4732132395833,210.64102129374996,79.0,87.0
376,210.74718557291664,210.94067853333328,79.0,89.0
377,211.02115790624995,211.21978784791662,77.0,92.0
378,211.2951302395833,211.4851985458333,75.0,90.0
379,211.56910257291662,211.7574585520833,79.0,90.0
380,211.84307490624997,212.00060899791663,79.0,86.0
381,212.1170472395833,212.29170460208329,79.0,89.0
382,212.39101957291663,212.59136184166664,79.0,88.0
383,212.66499190624995,212.83793694166664,77.0,90.0
384,212.9389642395833,213.09649833124996,75.0,90.0
385,213.21293657291662,213.3858816083333,77.0,86.0
386,213.48690890624997,213.65129230624996,75.0,80.0
387,213.76088123958328,213.92183998541663,75.0,82.0
388,214.03485357291663,214.32423684999998,75.0,84.0
389,214.44581207291662,214.85677057291662,74.0,84.0
390,214.85677057291662,215.47663297708328,75.0,86.0
391,216.08964607291662,216.29512532291662,72.0,97.0
392,216.29512532291662,216.50060457291664,75.0,95.0
393,216.4783443208333,216.50060457291664,75.0,92.0
394,216.8995767833333,217.20094634999995,74.0,87.0
395,217.31738459166664,217.66327466249996,75.0,97.0
396,217.92354837916662,218.0964934145833,75.0,97.0
397,218.1324522833333,218.4201232333333,77.0,87.0
398,218.51430122291663,218.80368449999997,77.0,93.0
399,218.96635557291663,219.1238896645833,75.0,95.0
400,219.17183482291662,219.72320414374997,74.0,87.0
401,219.78827257291664,222.26246838749995,75.0,90.0
