,start,end,pitch,velocity
0,5.813350447916666,6.101021397916666,60.0,82.0
1,5.813350447916666,6.107870706249999,63.0,84.0
2,5.813350447916666,6.128418631249999,67.0,80.0
3,5.813350447916666,6.621568831249999,48.0,89.0
4,6.224308947916666,6.642116756249999,63.0,95.0
5,6.224308947916666,6.643829083333332,60.0,91.0
6,6.224308947916666,6.657527699999999,67.0,89.0
7,6.635267447916666,6.684924933333332,55.0,70.0
8,7.457184447916665,7.765403322916666,58.0,78.0
9,7.457184447916665,7.768827977083332,62.0,77.0
10,7.457184447916665,7.777389612499999,67.0,80.0
11,7.457184447916665,7.779101939583333,43.0,95.0
12,8.279101447916666,8.368142456249998,50.0,79.0
13,7.868142947916666,8.381841072916666,43.0,92.0
14,7.868142947916666,8.436635539583332,58.0,82.0
15,7.868142947916666,8.446909502083333,62.0,87.0
16,7.868142947916666,8.453758810416666,67.0,81.0
17,8.690059947916666,8.839032404166666,58.0,81.0
18,9.101018447916665,9.654100095833332,60.0,87.0
19,9.101018447916665,9.703757581249999,56.0,84.0
20,9.511976947916665,9.970880606249999,51.0,71.0
21,9.922935447916664,10.111291427083332,56.0,87.0
22,9.101018447916665,10.198620108333332,44.0,87.0
23,9.922935447916664,10.202044762499998,60.0,92.0
24,9.922935447916664,10.229441995833332,63.0,88.0
25,10.128414697916666,10.258551556249998,51.0,87.0
26,10.333893947916666,10.582181375,56.0,86.0
27,10.539373197916666,10.671222383333332,60.0,86.0
28,10.744852447916665,11.051358995833333,62.0,88.0
29,10.744852447916665,11.159235602083331,58.0,82.0
30,11.361290197916665,11.47087913125,58.0,86.0
31,11.155810947916665,11.621563914583332,53.0,85.0
32,11.566769447916665,11.804782912499999,58.0,89.0
33,10.744852447916665,11.854440397916665,46.0,86.0
34,11.566769447916665,11.861289706249998,62.0,92.0
35,11.566769447916665,11.864714360416665,65.0,92.0
36,11.772248697916664,11.892111593749998,53.0,89.0
37,11.977727947916666,12.114714114583332,46.0,86.0
38,11.977727947916666,12.160946945833333,58.0,93.0
39,12.388686447916665,12.583891735416666,48.0,88.0
40,12.388686447916665,12.628412239583332,60.0,89.0
41,12.388686447916665,12.640398529166665,63.0,93.0
42,12.799644947916665,13.277384204166665,60.0,88.0
43,12.799644947916665,13.303069110416665,63.0,88.0
44,12.799644947916665,13.563342827083332,48.0,91.0
45,13.210603447916665,13.585603079166665,55.0,86.0
46,13.621561947916664,13.705465974999997,63.0,82.0
47,13.621561947916664,13.717452264583331,60.0,84.0
48,13.621561947916664,13.755123460416664,67.0,81.0
49,14.032520447916665,14.340739322916665,58.0,76.0
50,14.032520447916665,14.344163977083332,62.0,82.0
51,14.032520447916665,14.362999574999998,43.0,93.0
52,14.443478947916665,14.856149774999999,43.0,93.0
53,14.443478947916665,14.924642858333332,58.0,86.0
54,14.443478947916665,14.92977983958333,62.0,88.0
55,14.854437447916665,14.970875689583332,50.0,90.0
56,15.059916697916664,15.154094687499997,58.0,85.0
57,15.059916697916664,15.344162993749999,62.0,88.0
58,15.059916697916664,15.344162993749999,67.0,79.0
59,15.265395947916664,15.380121862499998,58.0,81.0
60,15.676354447916665,16.203751189583333,56.0,81.0
61,15.676354447916665,16.21402515208333,60.0,81.0
62,16.087312947916665,16.539367297916666,51.0,75.0
63,16.498271447916665,16.780805416666663,63.0,88.0
64,15.676354447916665,16.785942397916664,44.0,87.0
65,16.498271447916665,16.803065668749998,60.0,91.0
66,16.703750697916664,16.83559988333333,51.0,87.0
67,16.909229947916664,17.166079010416663,56.0,91.0
68,17.114709197916664,17.28251725208333,60.0,82.0
69,17.320188447916664,17.748270218749997,58.0,77.0
70,17.320188447916664,17.89381802083333,62.0,87.0
71,17.936626197916663,18.077037018749998,58.0,88.0
72,17.731146947916663,18.23285878333333,53.0,86.0
73,17.320188447916664,18.45888595833333,46.0,87.0
74,18.347584697916663,18.493132499999998,53.0,86.0
75,18.142105447916663,18.50511878958333,62.0,102.0
76,18.553063947916666,18.691762441666665,58.0,82.0
77,18.964022447916665,19.457172647916664,60.0,85.0
78,18.964022447916665,19.539364347916663,63.0,87.0
79,19.374980947916665,20.027377566666665,55.0,73.0
80,19.785939447916665,20.063336435416662,67.0,95.0
81,18.964022447916665,20.090733668749998,48.0,88.0
82,19.991418697916664,20.208884237499998,63.0,86.0
83,20.196897947916664,20.39552788958333,60.0,81.0
84,20.607856447916664,21.097581993749998,62.0,82.0
85,21.018814947916663,21.36128036458333,58.0,82.0
86,21.224294197916663,21.48970489583333,62.0,88.0
87,20.607856447916664,21.54621168958333,43.0,82.0
88,20.813335697916663,21.565047287499997,50.0,73.0
89,21.429773447916663,21.72086905208333,67.0,89.0
90,21.635252697916663,21.854430564583332,62.0,88.0
91,21.840731947916662,22.118128935416664,58.0,84.0
92,22.046211197916662,22.150663149999996,62.0,88.0
93,22.251690447916662,22.75340228333333,56.0,86.0
94,22.251690447916662,22.811621404166665,60.0,89.0
95,23.073607447916665,23.30305927708333,56.0,82.0
96,23.073607447916665,23.547922049999997,63.0,86.0
97,22.662648947916665,23.753401299999997,51.0,78.0
98,23.484565947916664,23.767099916666663,56.0,87.0
99,22.251690447916662,23.76881224375,44.0,87.0
100,23.895524447916664,24.642099056249997,63.0,87.0
101,23.895524447916664,24.66949628958333,60.0,90.0
102,24.717441447916663,25.143810891666664,68.0,86.0
103,25.128399947916662,25.150660199999997,63.0,70.0
104,23.895524447916664,25.349290141666664,44.0,87.0
105,24.922920697916663,25.351002468749996,56.0,84.0
106,25.128399947916662,25.42463253333333,60.0,90.0
107,25.539358447916662,26.749260487499996,56.0,86.0
108,25.539358447916662,26.775302143749997,60.0,81.0
109,25.539358447916662,26.816968793749997,63.0,86.0
110,26.77877436458333,27.40377411458333,51.0,78.0
111,27.19544086458333,27.714537879166663,60.0,77.0
112,27.19544086458333,27.72148232083333,56.0,75.0
113,27.19544086458333,27.74231564583333,63.0,77.0
114,27.61210736458333,28.134676599999995,51.0,67.0
115,25.539358447916662,28.15377381458333,44.0,87.0
116,28.44544036458333,28.780509674999998,56.0,74.0
117,28.02877386458333,28.806551331249995,68.0,75.0
118,28.02877386458333,28.816967993749998,60.0,79.0
119,28.02877386458333,28.818704104166663,63.0,78.0
120,28.862106864583332,29.329120566666663,63.0,82.0
121,28.862106864583332,29.344745560416662,58.0,79.0
122,28.862106864583332,29.34648167083333,67.0,80.0
123,29.69465501458333,29.847052124999998,63.0,88.0
124,29.69465501458333,29.889860302083328,67.0,88.0
125,30.51657201458333,30.975475672916662,63.0,85.0
126,30.51657201458333,30.977187999999995,67.0,81.0
127,31.33848901458333,31.490886124999996,63.0,86.0
128,28.862106864583332,31.52342033958333,51.0,87.0
129,31.33848901458333,31.793968018749997,67.0,87.0
130,31.74944751458333,31.89841997083333,50.0,75.0
131,31.74944751458333,31.929241858333327,62.0,86.0
132,32.16040601458333,32.42239205833333,60.0,80.0
133,32.16040601458333,32.66896715833333,63.0,83.0
134,32.57136451458333,32.682665775,60.0,71.0
135,32.98232301458333,33.15013106875,63.0,86.0
136,32.98232301458333,33.15698037708333,60.0,83.0
137,32.98232301458333,33.179240629166664,67.0,82.0
138,32.16040601458333,33.23403509583333,48.0,87.0
139,33.80424001458333,34.293965560416666,60.0,78.0
140,33.80424001458333,34.300814868749995,63.0,77.0
141,33.80424001458333,34.317938139583326,67.0,75.0
142,34.21519851458333,34.69978707916666,55.0,58.0
143,34.62615701458333,35.01485526249999,63.0,87.0
144,34.62615701458333,35.03197853333333,60.0,86.0
145,34.62615701458333,35.03197853333333,67.0,86.0
146,35.03711551458333,35.230608475,46.0,85.0
147,35.44807401458333,36.033689877083326,63.0,75.0
148,35.44807401458333,36.050813147916664,56.0,79.0
149,36.269991014583326,36.47033328333333,56.0,87.0
150,36.269991014583326,36.4737579375,60.0,90.0
151,36.269991014583326,36.53026473124999,63.0,87.0
152,35.859032514583326,37.29396261041666,51.0,78.0
153,37.091908014583325,37.47204462708333,63.0,82.0
154,37.091908014583325,37.531976074999996,56.0,83.0
155,37.91382501458333,38.0764960875,56.0,86.0
156,37.50286651458333,38.14156451666666,51.0,68.0
157,37.91382501458333,38.15183847916666,60.0,89.0
158,35.44807401458333,38.15868778749999,44.0,86.0
159,37.91382501458333,38.276838356249996,63.0,87.0
160,38.32478351458333,38.425810812499996,56.0,86.0
161,38.73574201458333,39.1449881875,58.0,84.0
162,38.73574201458333,39.1449881875,62.0,81.0
163,39.55765901458333,39.68094656458333,58.0,81.0
164,39.55765901458333,39.69293285416666,62.0,87.0
165,39.55765901458333,39.703206816666665,65.0,86.0
166,39.96861751458333,40.436082808333325,58.0,78.0
167,40.37957601458333,40.561082685416665,65.0,81.0
168,40.37957601458333,40.569644320833326,62.0,76.0
169,40.37957601458333,40.63813740416666,70.0,82.0
170,40.79053451458333,40.978890493749994,58.0,76.0
171,39.14670051458333,41.280260060416666,53.0,68.0
172,41.20149301458333,41.365876414583326,58.0,86.0
173,41.20149301458333,41.37786270416666,70.0,88.0
174,41.20149301458333,41.40525993749999,62.0,95.0
175,41.61245151458333,41.759711643749995,62.0,87.0
176,41.61245151458333,41.785396549999994,68.0,87.0
177,41.40697226458333,41.79053353124999,53.0,86.0
178,38.73574201458333,41.925807370833326,46.0,86.0
179,42.02341001458333,42.29224536666666,58.0,76.0
180,42.02341001458333,42.44806713124999,63.0,87.0
181,42.02341001458333,42.494299962499994,67.0,79.0
182,42.845327014583326,42.98573783541666,63.0,88.0
183,42.845327014583326,43.03025833958333,67.0,88.0
184,42.02341001458333,43.28881972916666,51.0,88.0
185,43.66724401458333,44.246010568749995,63.0,87.0
186,43.66724401458333,44.256284531249996,67.0,85.0
187,44.48916101458333,44.631284162499995,63.0,90.0
188,44.48916101458333,44.74258542291666,67.0,91.0
189,43.66724401458333,44.98916052291666,51.0,83.0
190,44.900119514583324,45.15354392291666,62.0,95.0
191,45.31107801458333,45.58162569374999,63.0,86.0
192,45.31107801458333,45.64498179583333,60.0,80.0
193,46.13299501458333,46.23915929374999,60.0,83.0
194,46.13299501458333,46.24087162083333,63.0,87.0
195,46.13299501458333,46.26141954583333,67.0,85.0
196,45.31107801458333,46.82819981041666,48.0,87.0
197,45.72203651458332,46.845323081249994,55.0,66.0
198,46.95491201458333,47.57306209166666,63.0,81.0
199,46.95491201458333,47.583336054166665,67.0,79.0
200,47.36587051458333,47.92580147083333,55.0,74.0
201,47.77682901458333,47.95662335833333,63.0,89.0
202,46.95491201458333,48.12271908541666,48.0,87.0
203,47.77682901458333,48.124431412499995,67.0,92.0
204,48.59874601458333,49.06449898125,60.0,85.0
205,48.59874601458333,49.06792363541666,63.0,86.0
206,48.59874601458333,49.07134828958333,56.0,82.0
207,49.421348018749995,49.466175593749995,56.0,78.0
208,49.421348018749995,49.52996868124999,60.0,90.0
209,49.421348018749995,49.561003156249996,63.0,88.0
210,48.59874601458333,50.11100301874999,44.0,87.0
211,49.009704514583326,50.135140943749995,51.0,74.0
212,50.24893401874999,50.86789938124999,63.0,86.0
213,49.835141018749994,50.88169248124999,56.0,87.0
214,51.076520018749996,51.12479586874999,56.0,71.0
215,50.66272701874999,51.28858893124999,51.0,73.0
216,50.24893401874999,51.30927858124999,44.0,82.0
217,51.076520018749996,51.41789924374999,60.0,89.0
218,51.076520018749996,51.55065783124999,63.0,88.0
219,51.490313018749994,51.762726743749994,44.0,87.0
220,51.90410601874999,52.46962311874999,58.0,82.0
221,52.731692018749996,52.917898868749994,58.0,84.0
222,52.731692018749996,52.945485068749996,62.0,86.0
223,52.731692018749996,52.954105756249994,65.0,87.0
224,52.31789901874999,53.06789883124999,53.0,86.0
225,51.90410601874999,53.335140143749996,46.0,87.0
226,53.145485018749994,53.63341593124999,58.0,87.0
227,53.55927801874999,53.96445033124999,70.0,82.0
228,53.55927801874999,53.97134688124999,62.0,82.0
229,53.55927801874999,53.98513998124999,65.0,86.0
230,53.97307101874999,54.578243281249996,53.0,79.0
231,53.55927801874999,54.61789844374999,46.0,87.0
232,54.38686401874999,54.68513980624999,58.0,88.0
233,54.38686401874999,54.733415656249996,65.0,90.0
234,54.38686401874999,54.748932893749995,62.0,97.0
235,54.38686401874999,54.755829443749995,70.0,86.0
236,54.800657018749995,54.94893284374999,46.0,86.0
237,55.21445001874999,55.500656843749994,59.0,74.0
238,55.21445001874999,55.51962235625,55.0,77.0
239,55.21445001874999,55.53341545624999,62.0,80.0
240,55.21445001874999,55.54031200624999,43.0,88.0
241,55.62824301874999,56.71100136874999,62.0,81.0
242,55.62824301874999,56.73169101874999,67.0,84.0
243,55.62824301874999,56.735139293749995,59.0,86.0
244,55.62824301874999,56.74031170624999,55.0,90.0
245,55.62824301874999,56.79031169374999,43.0,86.0
246,56.86920865416666,57.509618983333326,59.0,82.0
247,56.86920865416666,57.52674225416666,62.0,80.0
248,56.86920865416666,57.545577852083326,55.0,78.0
249,56.86920865416666,57.88461861458333,43.0,93.0
250,57.69112565416666,57.894892577083326,55.0,87.0
251,57.69112565416666,57.90002955833333,62.0,88.0
252,57.69112565416666,57.903454212499994,59.0,88.0
253,57.69112565416666,58.016467799999994,67.0,83.0
254,58.10208415416666,58.20824843333333,50.0,86.0
255,58.51304265416666,58.76304240833333,60.0,80.0
256,58.51304265416666,58.95653536875,67.0,79.0
257,58.51304265416666,58.96509700416666,63.0,85.0
258,58.92400115416666,59.09694618958333,60.0,86.0
259,58.51304265416666,59.495918399999994,48.0,89.0
260,59.33495965416666,59.549000539583325,60.0,89.0
261,59.33495965416666,59.61235664166666,63.0,93.0
262,59.33495965416666,59.665438781249996,67.0,89.0
263,59.74591815416666,59.874342685416664,60.0,83.0
264,59.74591815416666,60.01817816041666,55.0,77.0
265,60.15687665416666,60.71167062916666,60.0,85.0
266,60.15687665416666,60.73564320833333,63.0,86.0
267,60.56783515416666,61.011327868749994,55.0,69.0
268,60.97879365416666,61.19112221249999,60.0,90.0
269,60.15687665416666,61.203108502083325,48.0,87.0
270,60.97879365416666,61.21167013749999,63.0,93.0
271,60.97879365416666,61.21851944583333,67.0,93.0
272,61.18427290416666,61.32982070625,55.0,82.0
273,61.38975215416666,61.501053414583325,48.0,90.0
274,61.800710654166664,62.11235418333332,59.0,76.0
275,61.800710654166664,62.12434047291666,62.0,86.0
276,61.800710654166664,62.1260528,55.0,83.0
277,62.21166915416666,62.685983756249996,62.0,92.0
278,62.21166915416666,62.70310702708333,55.0,88.0
279,62.21166915416666,62.90002464166666,59.0,92.0
280,61.800710654166664,63.32468175833333,43.0,100.0
281,62.62262765416666,63.420572074999995,50.0,81.0
282,63.44454465416666,63.86235246249999,62.0,88.0
283,63.44454465416666,63.954818124999996,67.0,85.0
284,63.44454465416666,63.97536604999999,59.0,87.0
285,63.03358615416666,64.12605083333332,55.0,88.0
286,63.44454465416666,64.13974945,43.0,97.0
287,64.26646165416666,64.40858480208333,59.0,89.0
288,64.26646165416666,64.41200945624999,62.0,92.0
289,64.26646165416666,64.54557096875,67.0,87.0
290,64.47194090416666,64.59351612708333,50.0,87.0
291,64.67742015416665,64.78358443333333,43.0,84.0
292,65.08837865416666,65.29728255833332,60.0,86.0
293,65.08837865416666,65.57125489166665,63.0,87.0
294,65.08837865416666,65.61748772291666,67.0,82.0
295,65.49933715416665,65.67228218958333,60.0,83.0
296,65.08837865416666,66.09693930625,48.0,88.0
297,65.91029565416666,66.16200773541667,60.0,92.0
298,66.32125415416667,66.57981554374999,60.0,87.0
299,65.91029565416666,66.59180183333332,63.0,93.0
300,65.91029565416666,66.59865114166666,67.0,95.0
301,66.73221265416666,66.98221240833333,58.0,88.0
302,66.73221265416666,67.35378738541667,63.0,88.0
303,66.73221265416666,67.36063669375,67.0,88.0
304,67.14317115416667,67.39488323541666,58.0,80.0
305,67.55412965416666,67.72707468958333,58.0,88.0
306,66.73221265416666,67.89488274374999,46.0,87.0
307,67.55412965416666,67.97707444375,67.0,87.0
308,67.55412965416666,67.99933469583333,63.0,93.0
309,67.96508815416666,68.09693733958332,58.0,85.0
310,68.37604665416666,68.70652578125,56.0,83.0
311,68.37604665416666,68.72364905208333,60.0,81.0
312,68.37604665416666,68.73563534166666,63.0,86.0
313,68.78700515416666,69.338374475,51.0,72.0
314,69.19796365416666,69.338374475,56.0,89.0
315,69.19796365416666,69.35549774583333,60.0,92.0
316,69.19796365416666,69.38289497916666,63.0,91.0
317,68.37604665416666,69.63803171458332,44.0,87.0
318,69.60892215416666,69.71508643333333,51.0,87.0
319,69.81440140416666,70.21851059583332,56.0,89.0
320,70.01988065416666,70.4274145,60.0,88.0
321,70.01988065416666,70.43083915416666,68.0,86.0
322,70.01988065416666,70.44111311666666,63.0,87.0
323,70.63631840416666,70.72022243125,56.0,73.0
324,70.43083915416666,70.88118117708332,51.0,76.0
325,70.84179765416665,71.06611250208333,56.0,87.0
326,70.01988065416666,71.105496025,44.0,87.0
327,70.84179765416665,71.105496025,60.0,92.0
328,70.84179765416665,71.11748231458333,63.0,91.0
329,71.04727690416667,71.17056445416665,51.0,90.0
330,71.25275615416666,71.48392031041666,56.0,93.0
331,71.45823540416666,71.57981062708333,60.0,86.0
332,71.66371465416665,72.03871428541666,62.0,92.0
333,71.66371465416665,72.05583755625,58.0,80.0
334,72.07467315416666,72.5643987,53.0,87.0
335,72.48563165416667,72.63289178333332,58.0,88.0
336,72.48563165416667,72.63460411041666,65.0,92.0
337,72.48563165416667,72.65172738125,62.0,91.0
338,71.66371465416665,72.71508348333333,46.0,87.0
339,72.69111090416666,72.80241216458333,53.0,89.0
340,72.89659015416666,73.14316525416666,58.0,86.0
341,73.10206940416666,73.21508299166666,62.0,88.0
342,73.30754865416665,73.73734275208332,58.0,87.0
343,73.30754865416665,73.75275369583332,70.0,86.0
344,73.30754865416665,73.76302765833333,62.0,91.0
345,73.30754865416665,73.77158929375,65.0,89.0
346,73.92398640416666,74.04556162708333,58.0,87.0
347,73.71850715416666,74.187684775,53.0,87.0
348,74.12946565416667,74.34693119375,58.0,90.0
349,73.30754865416665,74.37604075416667,46.0,90.0
350,74.12946565416667,74.37604075416667,65.0,100.0
351,74.12946565416667,74.37946540833332,62.0,97.0
352,74.12946565416667,74.40515031458332,70.0,89.0
353,74.33494490416666,74.44453383749999,53.0,100.0
354,74.54042415416666,74.680834975,58.0,100.0
355,74.95138265416665,75.11576605416666,58.0,88.0
356,74.95138265416665,75.26473851041666,63.0,88.0
357,75.36234115416666,75.41542329375,63.0,62.0
358,75.36234115416666,75.51473826458333,58.0,85.0
359,74.95138265416665,75.79384757916665,51.0,95.0
360,75.77329965416666,75.95138167083333,58.0,88.0
361,75.77329965416666,76.04555966041666,67.0,100.0
362,75.77329965416666,76.05583362291665,63.0,95.0
363,76.18425815416666,76.44110721666667,58.0,88.0
364,76.59521665416666,76.80412055833332,58.0,86.0
365,76.59521665416666,77.0849422,67.0,83.0
366,76.59521665416666,77.0952161625,63.0,87.0
367,77.00617515416666,77.15172295624998,58.0,76.0
368,76.59521665416666,77.66713340833333,51.0,88.0
369,77.41713365416666,77.87432498541666,58.0,87.0
370,77.41713365416666,77.93939341458332,63.0,90.0
371,77.41713365416666,77.99590020833332,67.0,87.0
372,77.82809215416665,78.00959882499998,46.0,87.0
373,78.23905065416666,78.42911896041666,60.0,86.0
374,78.23905065416666,78.69281733124998,63.0,87.0
375,78.23905065416666,78.69624198541666,67.0,88.0
376,78.65000915416665,78.80240626458333,60.0,79.0
377,78.23905065416666,79.20822778333333,48.0,92.0
378,79.06096765416666,79.31781671666666,60.0,88.0
379,79.06096765416666,79.41370703333332,63.0,91.0
380,79.06096765416666,79.45137822916666,67.0,89.0
381,79.47192615416665,79.70822729166666,55.0,82.0
382,79.67740540416666,79.82295320624999,60.0,82.0
383,79.88288465416666,80.25617195833333,60.0,88.0
384,79.88288465416666,80.33836365833332,63.0,88.0
385,79.88288465416666,80.34007598541666,67.0,87.0
386,80.49932240416666,80.60891133749999,60.0,86.0
387,80.29384315416667,80.845212475,55.0,86.0
388,79.88288465416666,80.92226719374999,48.0,92.0
389,80.70480165416666,81.11918480833333,63.0,92.0
390,80.70480165416666,81.13802040624999,67.0,89.0
391,80.70480165416666,81.15000669583333,60.0,91.0
392,81.11576015416665,81.31781475,46.0,88.0
393,81.52671865416666,81.92397853749999,60.0,87.0
394,81.52671865416666,81.92740319166666,63.0,84.0
395,81.52671865416666,81.92911551875,56.0,83.0
396,81.93767715416666,82.48048483958333,51.0,76.0
397,82.34863565416666,82.76473113541665,56.0,87.0
398,82.34863565416666,82.77158044375,60.0,92.0
399,82.34863565416666,82.79897767708333,63.0,89.0
400,81.52671865416666,82.85377214374999,44.0,88.0
401,82.75959415416665,82.98733365624999,51.0,86.0
402,82.96507340416666,83.16199101874999,63.0,74.0
403,82.96507340416666,83.16712799999999,60.0,79.0
404,82.96507340416666,83.45822360416666,56.0,91.0
405,83.58151115416666,84.09007229791666,51.0,83.0
406,83.17055265416666,84.21849682916665,44.0,89.0
407,83.99246965416665,84.28870223958333,56.0,91.0
408,83.99246965416665,84.29555154791666,60.0,97.0
409,83.99246965416665,84.34863368749998,63.0,89.0
410,84.40342815416666,84.53185268541665,51.0,88.0
411,84.81438665416665,85.15685207083332,58.0,86.0
412,84.81438665416665,85.20650955624998,65.0,88.0
413,84.81438665416665,85.20993421041666,62.0,88.0
414,85.22534515416666,85.69965975624999,53.0,79.0
415,84.81438665416665,85.82123497916666,46.0,89.0
416,85.63630365416665,85.94965951041667,65.0,91.0
417,85.63630365416665,85.95137183749999,58.0,86.0
418,85.63630365416665,85.99931699583333,62.0,92.0
419,86.04726215416666,86.24075511458332,53.0,80.0
420,86.25274140416666,86.88801475208332,58.0,100.0
421,86.86917915416666,87.17054872083332,53.0,93.0
422,87.07465840416666,87.19452129999999,58.0,89.0
423,86.45822065416665,87.20650758958332,46.0,90.0
424,87.28013765416665,87.68253451874999,58.0,88.0
425,87.28013765416665,87.69452080833332,50.0,97.0
426,87.28013765416665,87.69452080833332,62.0,97.0
427,87.28013765416665,87.75273992916667,65.0,93.0
428,87.69109615416666,87.77500018125,53.0,97.0
429,88.10205465416666,88.35719138958332,58.0,87.0
430,88.10205465416666,88.57294460208333,63.0,86.0
431,88.10205465416666,88.57808158333333,67.0,80.0
432,88.51301315416666,88.68082120833333,58.0,75.0
433,88.92397165416665,89.36917669583332,58.0,88.0
434,88.92397165416665,89.44794374166665,63.0,92.0
435,88.92397165416665,89.49588889999998,67.0,89.0
436,88.10205465416666,89.50102588124999,39.0,97.0
437,89.54040940416667,89.57294361874999,67.0,67.0
438,89.54040940416667,89.70992978541665,46.0,86.0
439,89.54040940416667,89.83150500833332,58.0,88.0
440,90.15684715416666,90.33492917083333,58.0,91.0
441,90.56780565416665,90.76986025,58.0,90.0
442,89.74588865416666,90.88116151041666,39.0,100.0
443,90.56780565416665,91.03698327499998,63.0,89.0
444,90.56780565416665,91.04554491041665,67.0,90.0
445,90.97876415416665,91.10890101249998,58.0,87.0
446,91.38972265416666,91.61746215624999,60.0,86.0
447,91.38972265416666,91.81780442499999,63.0,84.0
448,91.38972265416666,91.81951675208333,67.0,87.0
449,91.80068115416665,91.9308180125,60.0,76.0
450,91.38972265416666,92.34177651249999,48.0,87.0
451,92.21163965416665,92.58835161249999,60.0,89.0
452,92.21163965416665,92.61061186458332,63.0,90.0
453,92.21163965416665,92.65513236874999,67.0,89.0
454,92.62259815416667,92.88972117916666,55.0,88.0
455,92.82807740416666,92.94965262708332,60.0,86.0
456,93.03355665416666,93.49074798541665,60.0,85.0
457,93.03355665416666,93.51814521874999,63.0,85.0
458,93.03355665416666,93.55924106875,67.0,85.0
459,93.64999440416665,93.76129566458332,60.0,88.0
460,93.44451515416665,93.9239667375,55.0,82.0
461,93.85547365416666,94.00615843749999,60.0,91.0
462,93.03355665416666,94.11232271666665,48.0,89.0
463,94.06095290416665,94.25958284583332,60.0,87.0
464,94.26643215416667,94.50615794583332,46.0,89.0
465,93.85547365416666,94.54040448749998,63.0,93.0
466,93.85547365416666,94.57293870208332,67.0,88.0
467,94.47191140416666,94.66026738333332,60.0,89.0
468,95.08834915416665,95.32978727291666,56.0,88.0
469,94.88286990416665,95.60204727916665,51.0,79.0
470,95.49930765416666,95.86232099583333,56.0,87.0
471,95.49930765416666,95.91026615416666,60.0,88.0
472,95.49930765416666,95.94964967708333,63.0,86.0
473,94.67739065416666,96.03526603124999,44.0,89.0
474,95.91026615416666,96.18081383333333,51.0,79.0
475,96.32155534583332,96.74052075833332,58.0,83.0
476,96.32155534583332,96.78534833333332,62.0,87.0
477,96.32155534583332,97.39396887083332,46.0,87.0
478,96.73534834583332,97.43189989583333,53.0,83.0
479,97.14914134583333,97.49741712083332,58.0,87.0
480,97.14914134583333,97.50603780833332,62.0,95.0
481,97.14914134583333,97.54741710833332,65.0,90.0
482,97.56293434583333,97.75431360833332,46.0,88.0
483,97.97672734583332,98.19052039583332,58.0,85.0
484,97.97672734583332,98.60431339583332,63.0,87.0
485,98.39052034583332,98.63362373333332,58.0,85.0
486,97.97672734583332,98.99723940624999,51.0,95.0
487,98.80374644583331,99.02634896666665,58.0,89.0
488,98.80374644583331,99.12908859166664,63.0,95.0
489,98.80374644583331,99.33114318749999,67.0,92.0
490,99.21470494583332,99.35511576666664,58.0,80.0
491,99.62566344583331,99.99895074999998,58.0,86.0
492,99.62566344583331,100.08114244999999,62.0,88.0
493,100.03662194583332,100.49895025833331,53.0,85.0
494,100.44758044583331,100.63764875208332,58.0,87.0
495,99.62566344583331,100.64449806041665,46.0,87.0
496,100.44758044583331,100.74381303124999,62.0,102.0
497,100.44758044583331,100.75408699374998,65.0,93.0
498,100.65305969583332,100.78319655416665,53.0,90.0
499,100.85853894583332,101.01436071041665,58.0,90.0
500,101.26949744583331,101.72840110416665,56.0,86.0
501,101.26949744583331,101.74209972083331,60.0,86.0
502,101.68045594583332,102.16675683749999,51.0,86.0
503,102.09141444583332,102.26778413541665,56.0,87.0
504,102.09141444583332,102.27977042499998,60.0,92.0
505,102.09141444583332,102.30374300416665,63.0,88.0
506,101.26949744583331,102.34312652708331,44.0,87.0
507,102.29689369583332,102.42360589999998,51.0,84.0
508,102.50237294583332,102.62394816874998,44.0,88.0
509,102.91333144583332,102.99894779999998,39.0,91.0
510,102.91333144583332,103.12566000416665,58.0,85.0
511,102.91333144583332,103.17360516249998,63.0,87.0
512,102.91333144583332,103.25065988124999,67.0,86.0
513,103.52976919583331,103.97326191041665,58.0,87.0
514,103.73524844583332,103.99552216249998,63.0,90.0
515,103.32428994583331,104.03490568541665,51.0,87.0
516,103.94072769583332,104.15476858124998,67.0,102.0
517,104.14620694583331,104.39791902708332,63.0,90.0
518,104.76264469583332,105.21298671874999,67.0,87.0
519,104.55716544583332,105.23182231666665,72.0,87.0
520,104.96812394583331,105.23524697083332,63.0,88.0
521,104.55716544583332,105.33113728749998,48.0,87.0
522,105.17360319583332,105.34654823124998,60.0,95.0
523,105.37908244583332,105.44757552916664,60.0,77.0
524,105.37908244583332,105.80887654374999,67.0,103.0
525,105.37908244583332,105.81230119791665,55.0,88.0
526,105.58456169583332,105.87394497291665,60.0,87.0
527,105.79004094583331,106.01264346666665,63.0,85.0
528,105.99552019583331,106.27462951041664,60.0,78.0
529,106.20099944583332,106.42188963958331,65.0,86.0
530,106.40647869583331,106.65647844999998,60.0,88.0
531,106.61195794583331,106.88250562499998,65.0,87.0
532,106.81743719583332,106.95784801666665,60.0,86.0
533,107.02291644583332,107.18729984583331,60.0,90.0
534,106.20099944583332,107.24894362083332,53.0,89.0
535,107.02291644583332,107.34654626458331,65.0,95.0
536,107.22839569583331,107.37223117083332,56.0,83.0
537,107.02291644583332,107.50921733749998,68.0,90.0
538,107.63935419583332,107.71298426041665,65.0,80.0
539,107.43387494583331,107.71640891458331,60.0,89.0
540,107.84483344583332,108.07599760208332,58.0,82.0
541,107.84483344583332,108.21127144166665,62.0,86.0
542,108.25579194583331,108.63079157708331,58.0,87.0
543,108.46127119583332,108.71812025833331,62.0,92.0
544,108.66675044583332,108.98695561041664,65.0,91.0
545,108.87222969583331,109.08798290833332,62.0,95.0
546,108.05031269583331,109.33627033541664,53.0,88.0
547,107.84483344583332,109.34140731666665,46.0,86.0
548,109.07770894583331,109.34996895208332,58.0,90.0
549,109.28318819583332,109.41332505416665,62.0,85.0
550,109.48866744583331,109.83798217083331,58.0,87.0
551,109.48866744583331,109.85853009583332,65.0,90.0
552,109.48866744583331,109.89106431041665,62.0,93.0
553,109.48866744583331,109.99551626249998,46.0,90.0
554,110.31099327083332,110.61376113541665,47.0,81.0
555,110.31099327083332,110.64144276874998,59.0,80.0
556,110.31099327083332,110.68123511666664,71.0,80.0
557,111.14144227083331,111.66047289583331,63.0,82.0
558,111.14144227083331,111.66566320208331,67.0,80.0
559,111.14144227083331,111.67258361041665,60.0,81.0
560,111.97189127083331,112.12933056041665,60.0,87.0
561,111.55666677083332,112.21583566458331,55.0,73.0
562,111.97189127083331,112.27292903333331,63.0,89.0
563,111.97189127083331,112.30234076874999,67.0,88.0
564,112.38711577083332,112.69680404374998,60.0,86.0
565,111.14144227083331,113.72275457916665,48.0,88.0
566,113.42517702083332,113.73832549791665,55.0,81.0
567,112.59472802083332,113.90385648749998,72.0,88.0
568,113.63278927083331,114.00179459999998,60.0,88.0
569,113.84028262499999,114.05677739999999,63.0,78.0
570,114.04646812499998,114.19251618749998,67.0,82.0
571,114.45859193749999,114.91578326874999,56.0,81.0
572,114.45859193749999,115.03050918333332,63.0,85.0
573,115.28050893749999,115.56304290624999,60.0,85.0
574,115.07502968749999,115.60071410208332,56.0,87.0
575,115.48598818749998,115.84215222083333,63.0,84.0
576,115.69146743749998,115.93975486458332,68.0,87.0
577,114.86955043749998,115.99968631249999,51.0,83.0
578,114.45859193749999,116.02708354583332,44.0,87.0
579,115.89694668749999,116.0407821625,56.0,82.0
580,116.10242593749999,117.39865753958333,60.0,82.0
581,116.10242593749999,117.45173967916665,63.0,82.0
582,116.10242593749999,117.47057527708333,56.0,81.0
583,116.10242593749999,117.60756144374999,44.0,84.0
584,117.74625993749999,118.05276648541665,60.0,81.0
585,117.74625993749999,118.05961579374998,56.0,81.0
586,117.74625993749999,118.07502673749998,63.0,81.0
587,117.74625993749999,118.09215000833332,44.0,87.0
588,118.15721843749999,118.37125932291666,44.0,86.0
589,118.15721843749999,118.4037935375,60.0,80.0
590,118.15721843749999,118.40550586458332,56.0,80.0
591,118.15721843749999,118.41235517291665,63.0,85.0
592,118.56817693749998,118.78221782291665,44.0,88.0
593,118.56817693749998,118.80447807499999,56.0,83.0
594,118.56817693749998,118.81132738333332,60.0,86.0
595,118.56817693749998,118.81132738333332,63.0,86.0
596,118.97913543749999,119.23427217291665,44.0,87.0
597,118.97913543749999,119.24968311666666,56.0,87.0
598,118.97913543749999,119.25139544374998,60.0,87.0
599,118.97913543749999,119.26166940625,63.0,88.0
600,119.39009393749998,119.79249080208332,44.0,90.0
601,119.39009393749998,119.83358665208333,56.0,88.0
602,119.39009393749998,119.84043596041666,60.0,88.0
603,119.39009393749998,119.87297017499999,63.0,88.0
604,120.21201093749998,120.58872289583331,62.0,86.0
605,120.21201093749998,120.62639409166665,65.0,88.0
606,120.21201093749998,120.66406528749998,58.0,84.0
607,120.21201093749998,120.75310629583332,46.0,87.0
608,121.03392793749998,121.67947524791666,60.0,81.0
609,121.03392793749998,121.71372178958332,56.0,79.0
610,121.65036568749998,122.14694054166665,63.0,82.0
611,121.44488643749999,122.43632381874998,51.0,75.0
612,122.26680343749999,122.46200872499999,56.0,76.0
613,122.06132418749999,122.46372105208332,68.0,81.0
614,121.03392793749998,122.47741966874999,44.0,86.0
615,122.67776193749998,123.62467881458332,44.0,84.0
616,122.67776193749998,124.22913027499999,56.0,74.0
617,122.67776193749998,124.23084260208331,60.0,76.0
618,122.67776193749998,124.25310285416666,63.0,76.0
619,124.32159593749998,124.78221192291666,63.0,82.0
620,124.32159593749998,124.79762286666666,58.0,79.0
621,124.32159593749998,124.79933519374998,67.0,80.0
622,125.14351293749999,125.29591004791665,63.0,88.0
623,125.14351293749999,125.33871822499998,67.0,88.0
624,125.96542993749999,126.42433359583332,63.0,85.0
625,125.96542993749999,126.42604592291666,67.0,81.0
626,126.78734693749999,126.93974404791665,63.0,86.0
627,124.32159593749998,126.97227826249998,51.0,87.0
628,126.78734693749999,127.24282594166665,67.0,87.0
629,127.19830543749998,127.34727789374999,50.0,75.0
630,127.19830543749998,127.37809978124999,62.0,86.0
631,127.60926393749999,127.87124998124999,60.0,80.0
632,127.60926393749999,128.11782508124998,63.0,83.0
633,128.0202224375,128.13152369791666,60.0,71.0
634,128.4311809375,128.59898899166666,63.0,86.0
635,128.4311809375,128.6058383,60.0,83.0
636,128.4311809375,128.62809855208332,67.0,82.0
637,127.60926393749999,128.68289301874998,48.0,87.0
638,129.25309793749997,129.74282348333332,60.0,78.0
639,129.25309793749997,129.74967279166665,63.0,77.0
640,129.25309793749997,129.7667960625,67.0,75.0
641,129.6640564375,130.14864500208333,55.0,58.0
642,130.0750149375,130.46371318541665,63.0,87.0
643,130.0750149375,130.48083645625,60.0,86.0
644,130.0750149375,130.48083645625,67.0,86.0
645,130.48597343749998,130.67946639791666,46.0,85.0
646,130.89693193749997,131.4825478,63.0,75.0
647,130.89693193749997,131.49967107083333,56.0,79.0
648,131.71884893749998,131.91919120625,56.0,87.0
649,131.71884893749998,131.92261586041664,60.0,90.0
650,131.71884893749998,131.97912265416664,63.0,87.0
651,131.3078904375,132.74282053333332,51.0,78.0
652,132.5407659375,132.92090255,63.0,82.0
653,132.5407659375,132.98083399791665,56.0,83.0
654,133.36268293749998,133.52535401041666,56.0,86.0
655,132.9517244375,133.5904224395833,51.0,68.0
656,133.36268293749998,133.60069640208332,60.0,89.0
657,130.89693193749997,133.60754571041664,44.0,86.0
658,133.36268293749998,133.72569627916664,63.0,87.0
659,133.77364143749998,133.87466873541666,56.0,86.0
660,134.1845999375,134.59384611041665,58.0,84.0
661,134.1845999375,134.59384611041665,62.0,81.0
662,135.00651693749998,135.1298044875,58.0,81.0
663,135.00651693749998,135.14179077708332,62.0,87.0
664,135.00651693749998,135.15206473958332,65.0,86.0
665,135.41747543749997,135.88494073124997,58.0,78.0
666,135.8284339375,136.00994060833332,65.0,81.0
667,135.8284339375,136.01850224375,62.0,76.0
668,135.8284339375,136.08699532708332,70.0,82.0
669,136.2393924375,136.42774841666665,58.0,76.0
670,134.5955584375,136.7291179833333,53.0,68.0
671,136.65035093749998,136.8147343375,58.0,86.0
672,136.65035093749998,136.82672062708332,70.0,88.0
673,136.65035093749998,136.85411786041664,62.0,95.0
674,137.06130943749997,137.20856956666665,62.0,87.0
675,137.06130943749997,137.23425447291666,68.0,87.0
676,136.85583018749998,137.23939145416665,53.0,86.0
677,134.1845999375,137.37466529374998,46.0,86.0
678,137.4722679375,137.74110328958332,58.0,76.0
679,137.4722679375,137.89692505416664,63.0,87.0
680,137.4722679375,137.94315788541664,67.0,79.0
681,138.29418493749998,138.43459575833333,63.0,88.0
682,138.29418493749998,138.47911626249999,67.0,88.0
683,137.4722679375,138.7376776520833,51.0,88.0
684,139.1161019375,139.69486849166665,63.0,87.0
685,139.1161019375,139.70514245416666,67.0,85.0
686,139.93801893749998,140.08014208541664,63.0,90.0
687,139.93801893749998,140.1914433458333,67.0,91.0
688,139.1161019375,140.4380184458333,51.0,83.0
689,140.34897743749997,140.60240184583333,62.0,95.0
690,140.7599359375,141.03048361666666,63.0,86.0
691,140.7599359375,141.09383971875,60.0,80.0
692,141.58185293749997,141.68801721666665,60.0,83.0
693,141.58185293749997,141.68972954375,63.0,87.0
694,141.58185293749997,141.71027746874998,67.0,85.0
695,140.7599359375,142.27705773333332,48.0,87.0
696,141.17089443749998,142.29418100416666,55.0,66.0
697,142.4037699375,143.02192001458332,63.0,81.0
698,142.4037699375,143.03219397708332,67.0,79.0
699,142.81472843749998,143.37465939375,55.0,74.0
700,143.22568693749997,143.40548128125,63.0,89.0
701,142.4037699375,143.57157700833332,48.0,87.0
702,143.22568693749997,143.57328933541666,67.0,92.0
703,144.04760393749999,144.51335690416664,60.0,85.0
704,144.04760393749999,144.51678155833332,63.0,86.0
705,144.04760393749999,144.52020621249997,56.0,82.0
706,144.8695209375,144.91404144166665,56.0,78.0
707,144.8695209375,144.97739754375,60.0,90.0
708,144.8695209375,145.00821943124998,63.0,88.0
709,144.04760393749999,145.5544517708333,44.0,87.0
710,144.45856243749998,145.57842434999998,51.0,74.0
711,145.69143793749998,146.30616336041666,63.0,86.0
712,145.2804794375,146.31986197708332,56.0,87.0
713,146.51335493749997,146.5613000958333,56.0,71.0
714,146.10239643749998,146.72397116874998,51.0,73.0
715,145.69143793749998,146.74451909375,44.0,82.0
716,146.51335493749997,146.8523957,60.0,89.0
717,146.51335493749997,146.98424488541664,63.0,88.0
718,146.9243134375,147.19486111666666,44.0,87.0
719,147.33527193749998,147.8969152208333,58.0,82.0
720,148.1571889375,148.34212026249998,58.0,84.0
721,148.1571889375,148.36951749583332,62.0,86.0
722,148.1571889375,148.37807913125,65.0,87.0
723,147.74623043749997,148.49109271875,53.0,86.0
724,147.33527193749998,148.75650341666665,46.0,87.0
725,148.5681474375,149.05350367916665,58.0,87.0
726,148.97936576666666,149.38453807916665,70.0,82.0
727,148.97936576666666,149.39143462916667,62.0,82.0
728,148.97936576666666,149.40522772916665,65.0,86.0
729,149.39315876666666,149.99833102916665,53.0,79.0
730,148.97936576666666,150.03798619166665,46.0,87.0
731,149.80695176666666,150.10522755416665,58.0,88.0
732,149.80695176666666,150.15350340416666,65.0,90.0
733,149.80695176666666,150.16902064166666,62.0,97.0
734,149.80695176666666,150.17591719166666,70.0,86.0
735,150.22074476666666,150.36902059166667,46.0,86.0
736,150.63453776666665,150.92074459166665,59.0,74.0
737,150.63453776666665,150.93971010416666,55.0,77.0
738,150.63453776666665,150.95350320416665,62.0,80.0
739,150.63453776666665,150.96039975416664,43.0,88.0
740,151.04833076666665,152.13108911666666,62.0,81.0
741,151.04833076666665,152.15177876666667,67.0,84.0
742,151.04833076666665,152.15522704166665,59.0,86.0
743,151.04833076666665,152.16039945416665,55.0,90.0
744,151.04833076666665,152.21039944166665,43.0,86.0
745,152.28970976666665,152.93453719166666,59.0,82.0
746,152.28970976666665,152.95177856666666,62.0,80.0
747,152.28970976666665,152.97074407916665,55.0,78.0
748,152.28970976666665,153.31212330416665,43.0,93.0
749,153.11729576666664,153.32246812916665,55.0,87.0
750,153.11729576666664,153.32764054166665,62.0,88.0
751,153.11729576666664,153.33108881666666,59.0,88.0
752,153.11729576666664,153.44488189166665,67.0,83.0
753,153.53108876666664,153.63798529166667,50.0,86.0
754,153.94488176666667,154.19660584166667,60.0,80.0
755,153.94488176666667,154.39143337916664,67.0,79.0
756,153.94488176666667,154.40005406666666,63.0,85.0
757,154.35867476666667,154.53281265416666,60.0,86.0
758,153.94488176666667,154.93453669166666,48.0,89.0
759,154.77246776666667,154.98798495416665,60.0,89.0
760,154.77246776666667,155.05177804166667,63.0,93.0
761,154.77246776666667,155.10522630416665,67.0,89.0
762,155.18626076666666,155.31557107916666,60.0,83.0
763,155.18626076666666,155.46039862916666,55.0,77.0
764,155.60005376666666,156.15867431666666,60.0,85.0
765,155.60005376666666,156.18281224166665,63.0,86.0
766,156.01384676666666,156.46039837916666,55.0,69.0
767,156.42763976666666,156.64143281666665,60.0,90.0
768,155.60005376666666,156.65350177916665,48.0,87.0
769,156.42763976666666,156.66212246666666,63.0,93.0
770,156.42763976666666,156.66901901666665,67.0,93.0
771,156.63453626666666,156.78108795416665,55.0,82.0
772,156.84143276666666,156.95350170416665,48.0,90.0
773,157.2546706770833,157.56631420624998,59.0,76.0
774,157.2546706770833,157.5783004958333,62.0,86.0
775,157.2546706770833,157.58001282291664,55.0,83.0
776,157.6656291770833,158.13994377916663,62.0,92.0
777,157.6656291770833,158.15706704999997,55.0,88.0
778,157.6656291770833,158.3539846645833,59.0,92.0
779,157.2546706770833,158.77864178124997,43.0,100.0
780,158.0765876770833,158.87453209791664,50.0,81.0
781,158.8985046770833,159.31631248541663,62.0,88.0
782,158.8985046770833,159.40877814791665,67.0,85.0
783,158.8985046770833,159.42932607291664,59.0,87.0
784,158.48754617708332,159.58001085624997,55.0,88.0
785,158.8985046770833,159.59370947291663,43.0,97.0
786,159.7204216770833,159.862544825,59.0,89.0
787,159.7204216770833,159.86596947916664,62.0,92.0
788,159.7204216770833,159.99953099166663,67.0,87.0
789,159.92590092708332,160.04747614999997,50.0,87.0
790,160.13138017708332,160.23754445624996,43.0,84.0
791,160.5423386770833,160.75124258124998,60.0,86.0
792,160.5423386770833,161.0252149145833,63.0,87.0
793,160.5423386770833,161.0714477458333,67.0,82.0
794,160.9532971770833,161.12624221249996,60.0,83.0
795,160.5423386770833,161.55089932916664,48.0,88.0
796,161.3642556770833,161.6159677583333,60.0,92.0
797,161.7752141770833,162.03377556666663,60.0,87.0
798,161.3642556770833,162.04576185624998,63.0,93.0
799,161.3642556770833,162.0526111645833,67.0,95.0
800,162.1861726770833,162.43617243125,58.0,88.0
801,162.1861726770833,162.8077474083333,63.0,88.0
802,162.1861726770833,162.81459671666664,67.0,88.0
803,162.5971311770833,162.84884325833332,58.0,80.0
804,163.00808967708332,163.18103471249998,58.0,88.0
805,162.1861726770833,163.34884276666665,46.0,87.0
806,163.00808967708332,163.43103446666663,67.0,87.0
807,163.00808967708332,163.45329471875,63.0,93.0
808,163.4190481770833,163.55089736249997,58.0,85.0
809,163.8300066770833,164.16048580416663,56.0,83.0
810,163.8300066770833,164.17760907499996,60.0,81.0
811,163.8300066770833,164.1895953645833,63.0,86.0
812,164.2409651770833,164.79233449791664,51.0,72.0
813,164.65192367708332,164.79233449791664,56.0,89.0
814,164.65192367708332,164.80945776874998,60.0,92.0
815,164.65192367708332,164.8368550020833,63.0,91.0
816,163.8300066770833,165.09199173749997,44.0,87.0
817,165.0628821770833,165.16904645625,51.0,87.0
818,165.2683614270833,165.67247061874997,56.0,89.0
819,165.4738406770833,165.88137452291664,60.0,88.0
820,165.4738406770833,165.8847991770833,68.0,86.0
821,165.4738406770833,165.8950731395833,63.0,87.0
822,166.09027842708332,166.17418245416664,56.0,73.0
823,165.8847991770833,166.33514119999998,51.0,76.0
824,166.29575767708332,166.52007252499996,56.0,87.0
825,165.4738406770833,166.55945604791663,44.0,87.0
826,166.29575767708332,166.55945604791663,60.0,92.0
827,166.29575767708332,166.57144233749997,63.0,91.0
828,166.5012369270833,166.6245244770833,51.0,90.0
829,166.7067161770833,166.9378803333333,56.0,93.0
830,166.9121954270833,167.03377064999998,60.0,86.0
831,167.1176746770833,167.4926743083333,62.0,92.0
832,167.1176746770833,167.50979757916664,58.0,80.0
833,167.5286331770833,168.01835872291664,53.0,87.0
834,167.9395916770833,168.08685180624997,58.0,88.0
835,167.9395916770833,168.0885641333333,65.0,92.0
836,167.9395916770833,168.10568740416664,62.0,91.0
837,167.1176746770833,168.16904350624998,46.0,87.0
838,168.1450709270833,168.25637218749998,53.0,89.0
839,168.3505501770833,168.5971252770833,58.0,86.0
840,168.5560294270833,168.6690430145833,62.0,88.0
841,168.7615086770833,169.19130277499997,58.0,87.0
842,168.7615086770833,169.20671371874997,70.0,86.0
843,168.7615086770833,169.21698768124998,62.0,91.0
844,168.7615086770833,169.22554931666664,65.0,89.0
845,169.37794642708332,169.49952164999996,58.0,87.0
846,169.17246717708332,169.64164479791663,53.0,87.0
847,169.5834256770833,169.80089121666663,58.0,90.0
848,168.7615086770833,169.8300007770833,46.0,90.0
849,169.5834256770833,169.8300007770833,65.0,100.0
850,169.5834256770833,169.83342543124996,62.0,97.0
851,169.5834256770833,169.85911033749997,70.0,89.0
852,169.7889049270833,169.89849386041664,53.0,100.0
853,169.9943841770833,170.13479499791663,58.0,100.0
854,170.4053426770833,170.56972607708332,58.0,88.0
855,170.4053426770833,170.7186985333333,63.0,88.0
856,170.81630117708332,170.86938331666664,63.0,62.0
857,170.81630117708332,170.96869828749996,58.0,85.0
858,170.4053426770833,171.2478076020833,51.0,95.0
859,171.2272596770833,171.40534169374996,58.0,88.0
860,171.2272596770833,171.49951968333332,67.0,100.0
861,171.2272596770833,171.5097936458333,63.0,95.0
862,171.6382181770833,171.8950672395833,58.0,88.0
863,172.0491766770833,172.25808058124997,58.0,86.0
864,172.0491766770833,172.53890222291665,67.0,83.0
865,172.0491766770833,172.54917618541663,63.0,87.0
866,172.46013517708332,172.60568297916663,58.0,76.0
867,172.0491766770833,173.12109343124996,51.0,88.0
868,172.8710936770833,173.3282850083333,58.0,87.0
869,172.8710936770833,173.39335343749997,63.0,90.0
870,172.8710936770833,173.44986023124997,67.0,87.0
871,173.2820521770833,173.46355884791663,46.0,87.0
872,173.6930106770833,173.8830789833333,60.0,86.0
873,173.6930106770833,174.14677735416663,63.0,87.0
874,173.6930106770833,174.1502020083333,67.0,88.0
875,174.10396917708331,174.2563662875,60.0,79.0
876,173.6930106770833,174.66218780624996,48.0,92.0
877,174.5149276770833,174.77177673958332,60.0,88.0
878,174.5149276770833,174.86766705624996,63.0,91.0
879,174.5149276770833,174.9053382520833,67.0,89.0
880,174.9258861770833,175.16218731458332,55.0,82.0
881,175.1313654270833,175.2769250395833,60.0,82.0
882,175.3372698520833,175.7131318270833,60.0,88.0
883,175.3372698520833,175.7958904270833,63.0,88.0
884,175.3372698520833,175.79761456458328,67.0,87.0
885,175.9579593520833,176.0683041520833,60.0,86.0
886,175.7510628520833,176.3062351270833,55.0,86.0
887,175.3372698520833,176.3838213145833,48.0,92.0
888,176.1648558520833,176.5820971270833,63.0,92.0
889,176.1648558520833,176.6010626395833,67.0,89.0
890,176.1648558520833,176.61313160208329,60.0,91.0
891,176.5786488520833,176.7820970770833,46.0,88.0
892,176.9924418520833,177.3924417520833,60.0,87.0
893,176.9924418520833,177.3958900270833,63.0,84.0
894,176.9924418520833,177.3976141645833,56.0,83.0
895,177.4062348520833,177.9527864395833,51.0,76.0
896,177.82002785208329,178.23899326458329,56.0,87.0
897,177.82002785208329,178.2458898145833,60.0,92.0
898,177.82002785208329,178.2734760145833,63.0,89.0
899,176.9924418520833,178.3286484145833,44.0,88.0
900,178.2338208520833,178.4631311395833,51.0,86.0
901,178.4407173520833,178.6389931645833,63.0,74.0
902,178.4407173520833,178.6441655770833,60.0,79.0
903,178.4407173520833,178.9372689520833,56.0,91.0
904,179.0614068520833,179.5734756895833,51.0,83.0
905,178.6476138520833,179.7027860020833,44.0,89.0
906,179.4751998520833,179.7734756395833,56.0,91.0
907,179.4751998520833,179.7803721895833,60.0,97.0
908,179.4751998520833,179.8338204520833,63.0,89.0
909,179.8889928520833,180.0183031645833,51.0,88.0
910,180.3027858520833,180.6476133520833,58.0,86.0
911,180.3027858520833,180.6976133395833,65.0,88.0
912,180.3027858520833,180.7010616145833,62.0,88.0
913,180.7165788520833,181.19326734791665,53.0,79.0
914,180.3027858520833,181.3148425708333,46.0,89.0
915,181.1299112458333,181.4432671020833,65.0,91.0
916,181.1299112458333,181.44497942916664,58.0,86.0
917,181.1299112458333,181.49292458749997,62.0,92.0
918,181.5408697458333,181.73436270624995,53.0,80.0
919,181.7463489958333,182.38162234374997,58.0,100.0
920,182.3627867458333,182.66415631249995,53.0,93.0
921,182.56826599583331,182.68812889166662,58.0,89.0
922,181.9518282458333,182.70011518124997,46.0,90.0
923,182.7737452458333,183.17614211041663,58.0,88.0
924,182.7737452458333,183.18812839999995,50.0,97.0
925,182.7737452458333,183.18812839999995,62.0,97.0
926,182.7737452458333,183.2463475208333,65.0,93.0
927,183.1847037458333,183.26860777291662,53.0,97.0
928,183.5956622458333,183.85079898124997,58.0,87.0
929,183.5956622458333,184.06655219374997,63.0,86.0
930,183.5956622458333,184.07168917499996,67.0,80.0
931,184.0066207458333,184.17442879999996,58.0,75.0
932,184.4175792458333,184.86278428749998,58.0,88.0
933,184.4175792458333,184.9415513333333,63.0,92.0
934,184.4175792458333,184.98949649166664,67.0,89.0
935,183.5956622458333,184.99463347291663,39.0,97.0
936,185.0340169958333,185.06655121041663,67.0,67.0
937,185.0340169958333,185.2035373770833,46.0,86.0
938,185.0340169958333,185.32511259999995,58.0,88.0
939,185.65045474583331,185.82853676249997,58.0,91.0
940,186.0614132458333,186.26346784166662,58.0,90.0
941,185.2394962458333,186.3747691020833,39.0,100.0
942,186.0614132458333,186.53059086666664,63.0,89.0
943,186.0614132458333,186.5391525020833,67.0,90.0
944,186.4723717458333,186.60250860416664,58.0,87.0
945,186.8833302458333,187.11106974791664,60.0,86.0
946,186.8833302458333,187.31141201666662,63.0,84.0
947,186.8833302458333,187.31312434374996,67.0,87.0
948,187.2942887458333,187.42442560416663,60.0,76.0
949,186.8833302458333,187.83538410416662,48.0,87.0
950,187.7052472458333,188.08195920416662,60.0,89.0
951,187.7052472458333,188.10421945624998,63.0,90.0
952,187.7052472458333,188.14873996041663,67.0,89.0
953,188.1162057458333,188.3833287708333,55.0,88.0
954,188.3216849958333,188.44326021874997,60.0,86.0
955,188.5271642458333,188.9843555770833,60.0,85.0
956,188.5271642458333,189.01175281041662,63.0,85.0
957,188.5271642458333,189.05284866041663,67.0,85.0
958,189.1436019958333,189.25490325624997,60.0,88.0
959,188.9381227458333,189.41757432916663,55.0,82.0
960,189.3490812458333,189.49976602916664,60.0,91.0
961,188.5271642458333,189.6059303083333,48.0,89.0
962,189.5545604958333,189.75319043749997,60.0,87.0
963,189.7600397458333,189.99976553749997,46.0,89.0
964,189.3490812458333,190.03401207916664,63.0,93.0
965,189.3490812458333,190.06654629374998,67.0,88.0
966,189.9655189958333,190.15387497499998,60.0,89.0
967,190.5819567458333,190.8233948645833,56.0,88.0
968,190.37647749583329,191.0956548708333,51.0,79.0
969,190.9929152458333,191.35592858749996,56.0,87.0
970,190.9929152458333,191.4038737458333,60.0,88.0
971,190.9929152458333,191.44325726874996,63.0,86.0
972,190.1709982458333,191.52887362291662,44.0,89.0
973,191.4038737458333,191.67442142499996,51.0,79.0
974,191.8148322458333,192.2309277270833,58.0,83.0
975,191.8148322458333,192.27544823124995,62.0,87.0
976,191.8148322458333,192.87989969166662,46.0,87.0
977,192.2257907458333,192.91757088749998,53.0,83.0
978,192.6367492458333,192.98263931666662,58.0,87.0
979,192.6367492458333,192.9912009520833,62.0,95.0
980,192.6367492458333,193.0322968020833,65.0,90.0
981,193.0477077458333,193.2377760520833,46.0,88.0
982,193.45866624583329,193.6692824770833,58.0,79.0
983,193.45866624583329,193.96380273541664,67.0,87.0
984,193.45866624583329,194.01517254791662,63.0,86.0
985,193.8696247458333,194.07339166874996,58.0,77.0
986,194.2805832458333,194.4501036270833,58.0,89.0
987,194.2805832458333,194.52887067291664,63.0,91.0
988,193.45866624583329,194.55113092499997,51.0,92.0
989,194.2805832458333,194.66928149374996,67.0,91.0
990,194.6915417458333,194.7840074083333,58.0,80.0
991,195.1025002458333,195.23434943124997,62.0,82.0
992,195.1025002458333,195.23777408541662,58.0,83.0
993,195.1025002458333,195.23777408541662,65.0,87.0
994,195.1025002458333,195.25489735624996,46.0,88.0
995,195.1025002458333,195.2668836458333,70.0,86.0
996,195.3079794958333,195.4415410083333,46.0,88.0
997,195.3079794958333,195.50147245624996,62.0,89.0
998,195.3079794958333,195.50147245624996,70.0,88.0
999,195.3079794958333,195.52544503541662,65.0,91.0
1000,195.3079794958333,195.53058201666664,58.0,87.0
1001,195.9244172458333,196.13332114999997,58.0,88.0
1002,195.9244172458333,196.1607183833333,65.0,90.0
1003,195.9244172458333,196.16414303749997,62.0,95.0
1004,195.9244172458333,196.1966772520833,70.0,88.0
1005,196.54085499583329,196.70866304999996,62.0,102.0
1006,196.3353757458333,196.71380003124997,58.0,93.0
1007,195.9244172458333,196.7514712270833,46.0,91.0
1008,196.1298964958333,196.76003286249997,53.0,95.0
1009,196.7463342458333,196.9107176458333,58.0,88.0
1010,196.7463342458333,197.0596901020833,63.0,88.0
1011,197.1572927458333,197.21037488541663,63.0,62.0
1012,197.1572927458333,197.30968985624997,58.0,85.0
1013,196.7463342458333,197.58879917083328,51.0,95.0
1014,197.5682512458333,197.74633326249997,58.0,88.0
1015,197.5682512458333,197.8405112520833,67.0,100.0
1016,197.5682512458333,197.8507852145833,63.0,95.0
1017,197.9792097458333,198.2360588083333,58.0,88.0
1018,198.3901682458333,198.59907214999996,58.0,86.0
1019,198.3901682458333,198.87989379166663,67.0,83.0
1020,198.3901682458333,198.89016775416664,63.0,87.0
1021,198.8011267458333,198.94667454791664,58.0,76.0
1022,198.3901682458333,199.46208499999997,51.0,88.0
1023,199.2120852458333,199.6692765770833,58.0,87.0
1024,199.2120852458333,199.73434500624995,63.0,90.0
1025,199.2120852458333,199.79085179999996,67.0,87.0
1026,199.6230437458333,199.80455041666664,46.0,87.0
1027,200.0340022458333,200.2240705520833,60.0,86.0
1028,200.0340022458333,200.48776892291664,63.0,87.0
1029,200.0340022458333,200.4911935770833,67.0,88.0
1030,200.4449607458333,200.59735785624997,60.0,79.0
1031,200.0340022458333,201.00449033124997,48.0,92.0
1032,200.85621450624998,201.11483513124998,60.0,88.0
1033,200.85621450624998,201.21138683124997,63.0,91.0
1034,200.85621450624998,201.24931785624997,67.0,89.0
1035,201.27000750624998,201.50793848124997,55.0,82.0
1036,201.47690400624998,201.62345569374997,60.0,82.0
1037,201.68380050624998,202.05966248124997,60.0,88.0
1038,201.68380050624998,202.14242108124998,63.0,88.0
1039,201.68380050624998,202.14414521874997,67.0,87.0
1040,202.30449000624998,202.41483480624998,60.0,86.0
1041,202.09759350624998,202.65276578124997,55.0,86.0
1042,201.68380050624998,202.73035196874997,48.0,92.0
1043,202.51138650624998,202.92862778125,63.0,92.0
1044,202.51138650624998,202.94759329374997,67.0,89.0
1045,202.51138650624998,202.95966225624997,60.0,91.0
1046,202.92517950624998,203.12862773124996,46.0,88.0
1047,203.33897250624997,203.73897240624999,60.0,87.0
1048,203.33897250624997,203.74242068124997,63.0,84.0
1049,203.33897250624997,203.74414481875,56.0,83.0
1050,203.75276550624997,204.29931709374998,51.0,76.0
1051,204.16655850624997,204.58552391874997,56.0,87.0
1052,204.16655850624997,204.59242046874996,60.0,92.0
1053,204.16655850624997,204.62000666874997,63.0,89.0
1054,203.33897250624997,204.67517906874997,44.0,88.0
1055,204.58035150624997,204.80966179374997,51.0,86.0
1056,204.78724800624997,204.98520493749996,63.0,74.0
1057,204.78724800624997,204.99034191874998,60.0,79.0
1058,204.78724800624997,205.28143752291663,56.0,91.0
1059,205.40472507291662,205.91328621666662,51.0,83.0
1060,204.99376657291663,206.04171074791662,44.0,89.0
1061,205.81568357291664,206.1119161583333,56.0,91.0
1062,205.81568357291664,206.11876546666662,60.0,97.0
1063,205.81568357291664,206.17184760624997,63.0,89.0
1064,206.22664207291663,206.35506660416664,51.0,88.0
1065,206.63760057291663,206.9800659895833,58.0,86.0
1066,206.63760057291663,207.02972347499997,65.0,88.0
1067,206.63760057291663,207.03314812916662,62.0,88.0
1068,207.04855907291662,207.52287367499997,53.0,79.0
1069,206.63760057291663,207.64444889791662,46.0,89.0
1070,207.45951757291664,207.77287342916662,65.0,91.0
1071,207.45951757291664,207.77458575624996,58.0,86.0
1072,207.45951757291664,207.8225309145833,62.0,92.0
1073,207.87047607291663,208.0639690333333,53.0,80.0
1074,208.07595532291663,208.7112286708333,58.0,100.0
1075,208.69239307291662,208.9937626395833,53.0,93.0
1076,208.89787232291664,209.01773521874998,58.0,89.0
1077,208.28143457291662,209.0297215083333,46.0,90.0
1078,209.10335157291664,209.50574843749996,58.0,88.0
1079,209.10335157291664,209.5177347270833,50.0,97.0
1080,209.10335157291664,209.5177347270833,62.0,97.0
1081,209.10335157291664,209.57595384791662,65.0,93.0
1082,209.51431007291663,209.59821409999995,53.0,97.0
1083,209.92526857291662,210.1804053083333,58.0,87.0
1084,209.92526857291662,210.3961585208333,63.0,86.0
1085,209.92526857291662,210.4012955020833,67.0,80.0
1086,210.33622707291664,210.50403512708328,58.0,75.0
1087,210.74718557291664,211.1923906145833,58.0,88.0
1088,210.74718557291664,211.27115766041663,63.0,92.0
1089,210.74718557291664,211.31910281874997,67.0,89.0
1090,209.92526857291662,211.32423979999996,39.0,97.0
1091,211.36362332291662,211.39615753749996,67.0,67.0
1092,211.36362332291662,211.53314370416663,46.0,86.0
1093,211.36362332291662,211.6547189270833,58.0,88.0
1094,211.98006107291664,212.1581430895833,58.0,91.0
1095,212.39101957291663,212.59307416874995,58.0,90.0
1096,211.56910257291662,212.70437542916662,39.0,100.0
1097,212.39101957291663,212.86019719374997,63.0,89.0
1098,212.39101957291663,212.86875882916664,67.0,90.0
1099,212.80197807291663,212.93211493124997,58.0,87.0
1100,213.21293657291662,213.44067607499997,60.0,86.0
1101,213.21293657291662,213.64101834374998,63.0,84.0
1102,213.21293657291662,213.6427306708333,67.0,87.0
1103,213.62389507291664,213.75403193124995,60.0,76.0
1104,213.21293657291662,214.16499043124998,48.0,87.0
1105,214.03485357291663,214.41156553124995,60.0,89.0
1106,214.03485357291663,214.4338257833333,63.0,90.0
1107,214.03485357291663,214.47834628749996,67.0,89.0
1108,214.44581207291662,214.71293509791664,55.0,88.0
1109,214.65129132291662,214.7728665458333,60.0,86.0
1110,214.85677057291662,215.31396190416663,60.0,85.0
1111,214.85677057291662,215.34135913749995,63.0,85.0
1112,214.85677057291662,215.38245498749995,67.0,85.0
1113,215.47320832291663,215.5845095833333,60.0,88.0
1114,215.26772907291664,215.74718065624995,55.0,82.0
1115,215.67868757291663,215.82937235624996,60.0,91.0
1116,214.85677057291662,215.93553663541664,48.0,89.0
1117,215.88416682291663,216.0827967645833,60.0,87.0
1118,216.08964607291662,216.3293718645833,46.0,89.0
1119,215.67868757291663,216.36361840624997,63.0,93.0
1120,215.67868757291663,216.3961526208333,67.0,88.0
1121,216.29512532291662,216.4834813020833,60.0,89.0
1122,216.91156307291664,217.15300119166662,56.0,88.0
1123,216.70608382291664,217.42526119791663,51.0,79.0
1124,217.32252157291663,217.6855349145833,56.0,87.0
1125,217.32252157291663,217.73348007291662,60.0,88.0
1126,217.32252157291663,217.7728635958333,63.0,86.0
1127,216.50060457291664,217.85847994999997,44.0,89.0
1128,217.73348007291662,218.0040277520833,51.0,79.0
1129,218.14443857291664,218.56053405416662,58.0,83.0
1130,218.14443857291664,218.6050545583333,62.0,87.0
1131,218.14443857291664,219.20950601874995,46.0,87.0
1132,218.55539707291663,219.2471772145833,53.0,83.0
1133,218.96635557291663,219.31224564374997,58.0,87.0
1134,218.96635557291663,219.32080727916662,62.0,95.0
1135,218.96635557291663,219.36190312916662,65.0,90.0
1136,219.37731407291662,219.56738237916662,46.0,88.0
1137,219.78827257291664,219.8892998708333,39.0,87.0
1138,219.78827257291664,220.4184089395833,58.0,81.0
1139,219.78827257291664,220.56591708749994,67.0,81.0
1140,220.19923107291663,220.69177912499995,51.0,78.0
1141,220.61074466249997,220.79522737499997,63.0,84.0
1142,220.61074466249997,220.88315838749995,58.0,82.0
1143,221.43833066249996,222.07798567499995,58.0,74.0
1144,221.43833066249996,222.10729601249994,62.0,72.0
1145,221.43833066249996,222.38660628749994,65.0,81.0
1146,221.85212366249996,222.69350276249995,53.0,76.0
1147,221.43833066249996,222.72970964999996,46.0,86.0
1148,222.67970966249996,222.80557169999994,62.0,88.0
1149,222.26591666249996,222.81074411249995,58.0,88.0
1150,223.09350266249996,224.46419197499995,56.0,78.0
1151,223.09350266249996,224.54177816249995,44.0,85.0
1152,223.50729566249996,224.54522643749996,51.0,76.0
1153,223.09350266249996,224.78315741249995,60.0,77.0
1154,223.92108866249995,224.82281257499994,63.0,79.0
1155,224.33488166249995,225.43660552499995,68.0,67.0
1156,225.57626066249995,226.46763974999996,62.0,87.0
1157,225.99005366249995,227.25729472499995,58.0,77.0
1158,226.40384666249994,227.28488092499995,65.0,77.0
1159,225.16246766249995,227.42626019999994,53.0,81.0
1160,224.74867466249995,227.62281187499997,46.0,82.0
1161,228.88660466249996,229.29350111249997,51.0,86.0
1162,229.30039766249996,229.56074242499994,53.0,90.0
1163,228.47281166249996,229.66591481249995,46.0,74.0
1164,228.05901866249997,229.71763893749994,39.0,90.0
1165,229.71419066249996,229.80901822499996,55.0,93.0
1166,230.12798366249996,230.60729388749996,58.0,86.0
1167,230.54177666249996,230.97453517499994,63.0,87.0
1168,230.95556966249995,231.03487998749995,65.0,79.0
1169,231.32108681249994,231.49350056249995,67.0,80.0
1170,231.30039716249996,231.51591434999995,63.0,48.0
1171,231.36936266249995,231.62281087499994,58.0,62.0
1172,231.60901777499996,232.53660374999995,79.0,60.0
1173,231.42108678749995,232.70039681249995,70.0,67.0
1174,231.36936266249995,232.74694852499997,39.0,87.0
1175,231.46591436249994,232.77453472499997,75.0,80.0
