,start,end,pitch,velocity
0,17.686,17.8,57.0,83.0
1,17.926000000000002,18.042,57.0,72.0
2,18.166,18.432000000000002,56.0,72.0
3,18.646,18.762,59.0,73.0
4,18.886,20.508,64.0,85.0
5,21.526,21.634,59.0,83.0
6,21.766000000000002,21.918,59.0,72.0
7,22.006,22.234,64.0,96.0
8,22.486,22.608,59.0,85.0
9,22.726,24.704,61.0,97.0
10,25.366,25.464000000000002,57.0,85.0
11,25.606,25.698,57.0,61.0
12,25.846,26.098,56.0,58.0
13,26.326,26.444,59.0,79.0
14,26.566,27.172,64.0,106.0
15,27.286,27.39,66.0,92.0
16,27.526,27.87,66.0,92.0
17,28.006,29.088,64.0,76.0
18,29.206,29.292,64.0,90.0
19,29.446,29.552,66.0,96.0
20,29.686,29.942,68.0,97.0
21,30.166,30.252,63.0,97.0
22,30.406000000000002,30.554000000000002,63.0,99.0
23,30.886,31.008,61.0,97.0
24,31.366,32.184,63.0,88.0
25,33.046,33.134,59.0,89.0
26,33.286,33.38,59.0,74.0
27,33.526,33.96,61.0,99.0
28,34.006,34.122,64.0,86.0
29,34.486000000000004,34.764,64.0,89.0
30,34.966,35.074,61.0,78.0
31,35.206,35.346000000000004,66.0,97.0
32,35.686,36.516,64.0,89.0
33,37.366,37.742,59.0,96.0
34,37.846000000000004,38.232,59.0,85.0
35,38.326,38.7,68.0,97.0
36,38.806,38.93,69.0,90.0
37,39.046,39.698,69.0,89.0
38,39.766,40.542,68.0,89.0
39,41.206,41.624,68.0,95.0
40,41.686,41.922000000000004,61.0,82.0
41,41.926,43.884,64.0,89.0
42,44.086,44.292,60.0,81.0
43,44.326,44.668,60.0,78.0
44,44.806,46.882,59.0,75.0
45,48.406,48.52,57.0,83.0
46,48.646,48.762,57.0,72.0
47,48.886,49.152,56.0,72.0
48,49.366,49.482,59.0,73.0
49,49.606,51.228,64.0,85.0
50,52.246,52.354,59.0,83.0
51,52.486000000000004,52.638,59.0,72.0
52,52.726,52.954,64.0,96.0
53,53.206,53.328,59.0,85.0
54,53.446,55.424,61.0,97.0
55,56.086,56.184000000000005,57.0,85.0
56,56.326,56.418,57.0,61.0
57,56.566,56.818,56.0,58.0
58,57.046,57.164,59.0,79.0
59,57.286,57.892,64.0,106.0
60,58.006,58.11,66.0,92.0
61,58.246,58.59,66.0,92.0
62,58.726,59.808,64.0,76.0
63,59.926,60.012,64.0,90.0
64,60.166000000000004,60.272,66.0,96.0
65,60.406,60.662,68.0,97.0
66,60.886,60.972,63.0,97.0
67,61.126000000000005,61.274,63.0,99.0
68,61.606,61.728,61.0,97.0
69,62.086,62.904,63.0,88.0
70,63.766,63.854,59.0,89.0
71,64.006,64.1,59.0,74.0
72,64.246,64.68,61.0,99.0
73,64.726,64.842,64.0,86.0
74,65.206,65.484,64.0,89.0
75,65.686,65.794,61.0,78.0
76,65.926,66.066,66.0,97.0
77,66.406,67.236,64.0,89.0
78,68.086,68.462,59.0,96.0
79,68.566,68.952,59.0,85.0
80,69.046,69.42,68.0,97.0
81,69.526,69.65,69.0,90.0
82,69.766,70.418,69.0,89.0
83,70.486,71.262,68.0,89.0
84,71.926,72.34400000000001,68.0,95.0
85,72.406,72.642,61.0,82.0
86,72.646,74.604,64.0,89.0
87,74.566,74.73,59.0,83.0
88,74.806,75.142,61.0,100.0
89,75.286,75.39,64.0,74.0
90,75.526,76.122,64.0,86.0
91,76.006,76.196,61.0,70.0
92,76.246,77.618,64.0,93.0
93,77.686,78.4,64.0,122.0
94,78.646,79.19,66.0,127.0
95,79.60600000000001,79.956,68.0,127.0
96,80.086,80.32000000000001,68.0,122.0
97,80.566,80.822,68.0,127.0
98,81.046,81.202,68.0,127.0
99,81.286,81.382,66.0,112.0
100,81.526,81.834,68.0,127.0
101,82.006,82.3,71.0,127.0
102,82.486,82.708,71.0,127.0
103,82.96600000000001,83.07600000000001,59.0,112.0
104,83.206,83.334,59.0,96.0
105,83.446,83.674,68.0,127.0
106,83.686,83.812,66.0,97.0
107,83.926,84.024,66.0,122.0
108,84.166,84.628,66.0,127.0
109,84.886,85.098,66.0,127.0
110,85.126,85.32000000000001,64.0,92.0
111,85.366,85.462,66.0,117.0
112,85.60600000000001,85.78,66.0,122.0
113,85.846,86.194,71.0,107.0
114,86.32600000000001,86.60600000000001,71.0,127.0
115,86.806,86.91,59.0,96.0
116,87.046,87.142,59.0,96.0
117,87.286,87.718,66.0,122.0
118,87.766,87.87,64.0,100.0
119,88.006,88.69,64.0,107.0
120,88.726,88.828,59.0,99.0
121,88.96600000000001,89.10600000000001,59.0,95.0
122,89.206,89.32000000000001,67.0,122.0
123,89.446,89.796,67.0,117.0
124,89.926,90.056,66.0,95.0
125,90.166,90.47800000000001,66.0,127.0
126,90.646,90.774,60.0,122.0
127,90.886,91.122,60.0,93.0
128,91.126,92.652,59.0,96.0
129,93.046,93.76,64.0,122.0
130,94.006,94.55,66.0,127.0
131,94.96600000000001,95.316,68.0,127.0
132,95.446,95.68,68.0,122.0
133,95.926,96.182,68.0,127.0
134,96.406,96.562,68.0,127.0
135,96.646,96.742,66.0,112.0
136,96.886,97.194,68.0,127.0
137,97.366,97.66,71.0,127.0
138,97.846,98.068,71.0,127.0
139,98.32600000000001,98.436,59.0,112.0
140,98.566,98.694,59.0,96.0
141,98.806,99.034,68.0,127.0
142,99.046,99.172,66.0,97.0
143,99.286,99.384,66.0,122.0
144,99.526,99.988,66.0,127.0
145,100.246,100.458,66.0,127.0
146,100.486,100.68,64.0,92.0
147,100.726,100.822,66.0,117.0
148,100.96600000000001,101.14,66.0,122.0
149,101.206,101.554,71.0,107.0
150,101.686,101.96600000000001,71.0,127.0
151,102.166,102.27,59.0,96.0
152,102.406,102.502,59.0,96.0
153,102.646,103.078,66.0,122.0
154,103.126,103.23,64.0,100.0
155,103.366,104.05,64.0,107.0
156,104.086,104.188,59.0,99.0
157,104.32600000000001,104.46600000000001,59.0,95.0
158,104.566,104.658,68.0,117.0
159,104.806,105.138,68.0,102.0
160,105.286,105.414,66.0,95.0
161,105.526,105.788,66.0,112.0
162,106.006,106.10000000000001,64.0,82.0
163,106.246,107.944,64.0,97.0
164,113.686,113.8,57.0,83.0
165,113.926,114.042,57.0,72.0
166,114.166,114.432,56.0,72.0
167,114.646,114.762,59.0,73.0
168,114.886,116.508,64.0,85.0
169,117.526,117.634,59.0,83.0
170,117.766,117.918,59.0,72.0
171,118.006,118.23400000000001,64.0,96.0
172,118.486,118.608,59.0,85.0
173,118.726,120.70400000000001,61.0,97.0
174,121.366,121.464,57.0,85.0
175,121.60600000000001,121.69800000000001,57.0,61.0
176,121.846,122.098,56.0,58.0
177,122.32600000000001,122.444,59.0,79.0
178,122.566,123.172,64.0,106.0
179,123.286,123.39,66.0,92.0
180,123.526,123.87,66.0,92.0
181,124.006,125.08800000000001,64.0,76.0
182,125.206,125.292,64.0,90.0
183,125.446,125.552,66.0,96.0
184,125.686,125.94200000000001,68.0,97.0
185,126.166,126.25200000000001,63.0,97.0
186,126.406,126.554,63.0,99.0
187,126.886,127.008,61.0,97.0
188,127.366,128.184,63.0,88.0
189,129.046,129.13400000000001,59.0,89.0
190,129.286,129.38,59.0,74.0
191,129.526,129.96,61.0,99.0
192,130.006,130.122,64.0,86.0
193,130.486,130.764,64.0,89.0
194,130.966,131.074,61.0,78.0
195,131.206,131.346,66.0,97.0
196,131.686,132.516,64.0,89.0
197,133.366,133.742,59.0,96.0
198,133.846,134.232,59.0,85.0
199,134.326,134.7,68.0,97.0
200,134.806,134.93,69.0,90.0
201,135.046,135.698,69.0,89.0
202,135.766,136.542,68.0,89.0
203,137.206,137.624,68.0,95.0
204,137.686,137.922,61.0,82.0
205,137.92600000000002,139.88400000000001,64.0,89.0
206,139.846,140.01,59.0,83.0
207,140.086,140.422,61.0,100.0
208,140.566,140.67000000000002,64.0,74.0
209,140.806,141.40200000000002,64.0,86.0
210,141.286,141.476,61.0,70.0
211,141.526,142.898,64.0,93.0
212,142.966,143.68,64.0,122.0
213,143.92600000000002,144.47,66.0,127.0
214,144.886,145.236,68.0,127.0
215,145.366,145.6,68.0,122.0
216,145.846,146.102,68.0,127.0
217,146.326,146.482,68.0,127.0
218,146.566,146.662,66.0,112.0
219,146.806,147.114,68.0,127.0
220,147.286,147.58,71.0,127.0
221,147.766,147.988,71.0,127.0
222,148.246,148.356,59.0,112.0
223,148.486,148.614,59.0,96.0
224,148.726,148.954,68.0,127.0
225,148.966,149.092,66.0,97.0
226,149.20600000000002,149.304,66.0,122.0
227,149.446,149.90800000000002,66.0,127.0
228,150.166,150.37800000000001,66.0,127.0
229,150.406,150.6,64.0,92.0
230,150.64600000000002,150.742,66.0,117.0
231,150.886,151.06,66.0,122.0
232,151.126,151.474,71.0,107.0
233,151.606,151.886,71.0,127.0
234,152.086,152.19,59.0,96.0
235,152.326,152.422,59.0,96.0
236,152.566,152.998,66.0,122.0
237,153.046,153.15,64.0,100.0
238,153.286,153.97,64.0,107.0
239,154.006,154.108,59.0,99.0
240,154.246,154.386,59.0,95.0
241,154.486,154.6,67.0,122.0
242,154.726,155.076,67.0,117.0
243,155.20600000000002,155.336,66.0,95.0
244,155.446,155.758,66.0,127.0
245,155.92600000000002,156.054,60.0,122.0
246,156.166,156.40200000000002,60.0,93.0
247,156.406,157.93200000000002,59.0,96.0
248,158.326,159.04,64.0,122.0
249,159.286,159.83,66.0,127.0
250,160.246,160.596,68.0,127.0
251,160.726,160.96,68.0,122.0
252,161.20600000000002,161.46200000000002,68.0,127.0
253,161.686,161.842,68.0,127.0
254,161.92600000000002,162.022,66.0,112.0
255,162.166,162.474,68.0,127.0
256,162.64600000000002,162.94,71.0,127.0
257,163.126,163.348,71.0,127.0
258,163.606,163.716,59.0,112.0
259,163.846,163.974,59.0,96.0
260,164.086,164.314,68.0,127.0
261,164.326,164.452,66.0,97.0
262,164.566,164.66400000000002,66.0,122.0
263,164.806,165.268,66.0,127.0
264,165.526,165.738,66.0,127.0
265,165.766,165.96,64.0,92.0
266,166.006,166.102,66.0,117.0
267,166.246,166.42000000000002,66.0,122.0
268,166.486,166.834,71.0,107.0
269,166.966,167.246,71.0,127.0
270,167.446,167.55,59.0,96.0
271,167.686,167.782,59.0,96.0
272,167.92600000000002,168.358,66.0,122.0
273,168.406,168.51,64.0,100.0
274,168.64600000000002,169.33,64.0,107.0
275,169.366,169.46800000000002,59.0,99.0
276,169.606,169.746,59.0,95.0
277,169.846,169.93800000000002,68.0,117.0
278,170.086,170.418,68.0,102.0
279,170.566,170.69400000000002,66.0,95.0
280,170.806,171.068,66.0,112.0
281,171.286,171.38,64.0,82.0
282,171.526,173.224,64.0,97.0
283,190.486,190.576,59.0,117.0
284,190.726,190.832,59.0,96.0
285,190.966,191.18800000000002,61.0,122.0
286,191.20600000000002,191.348,64.0,90.0
287,191.446,191.562,61.0,102.0
288,191.686,192.348,64.0,100.0
289,192.406,192.516,59.0,96.0
290,192.64600000000002,192.764,59.0,96.0
291,192.886,193.17600000000002,67.0,122.0
292,193.366,194.278,66.0,127.0
293,194.326,194.44,60.0,99.0
294,194.566,195.854,59.0,107.0
295,198.166,198.254,59.0,93.0
296,198.406,198.49,59.0,96.0
297,198.64600000000002,198.866,61.0,122.0
298,198.886,199.09,64.0,89.0
299,199.126,199.232,61.0,97.0
300,199.366,199.986,64.0,100.0
301,200.086,200.174,59.0,100.0
302,200.326,200.428,59.0,97.0
303,200.566,200.816,67.0,102.0
304,200.806,200.816,67.0,90.0
305,201.046,201.708,66.0,107.0
306,201.526,201.708,66.0,127.0
307,202.006,202.094,64.0,100.0
308,202.246,202.48600000000002,64.0,117.0
309,202.726,203.01,66.0,122.0
310,202.966,203.848,68.0,122.0
311,205.846,205.918,59.0,107.0
312,206.086,206.15800000000002,59.0,96.0
313,206.326,206.56,61.0,127.0
314,206.566,206.692,64.0,97.0
315,206.806,206.9,61.0,112.0
316,207.046,207.372,64.0,122.0
317,207.766,207.846,59.0,102.0
318,208.006,208.112,59.0,100.0
319,208.246,208.416,67.0,117.0
320,208.726,208.98600000000002,67.0,112.0
321,208.966,209.342,66.0,127.0
322,209.20600000000002,209.342,66.0,127.0
323,209.686,209.808,64.0,112.0
324,209.92600000000002,210.564,68.0,127.0
325,210.64600000000002,210.734,68.0,127.0
326,210.886,211.368,71.0,117.0
327,211.606,211.87,68.0,127.0
328,211.846,212.266,66.0,117.0
329,212.326,212.58,64.0,100.0
330,212.806,212.96,64.0,97.0
331,213.046,213.342,66.0,127.0
332,213.526,213.64600000000002,68.0,127.0
333,213.766,214.48000000000002,64.0,112.0
334,216.886,217.148,68.0,127.0
335,217.366,217.518,69.0,127.0
336,217.606,217.804,68.0,127.0
337,218.086,218.872,66.0,127.0
338,219.766,220.541754,64.0,122.0
339,220.81149069375002,221.40798159375,66.0,127.0
340,221.86412169375,222.22126200000002,68.0,127.0
341,222.35126200000002,222.585262,68.0,122.0
342,222.831262,223.087262,68.0,127.0
343,223.31126200000003,223.467262,68.0,127.0
344,223.551262,223.647262,66.0,112.0
345,223.79126200000002,224.099262,68.0,127.0
346,224.271262,224.56526200000002,71.0,127.0
347,224.75126200000003,224.973262,71.0,127.0
348,225.23126200000002,225.341262,59.0,112.0
349,225.47126200000002,225.599262,59.0,96.0
350,225.711262,225.939262,68.0,127.0
351,225.951262,226.07726200000002,66.0,97.0
352,226.19126200000002,226.289262,66.0,122.0
353,226.431262,226.89326200000002,66.0,127.0
354,227.151262,227.36326200000002,66.0,127.0
355,227.391262,227.585262,64.0,92.0
356,227.63126200000002,227.72726200000002,66.0,117.0
357,227.871262,228.045262,66.0,122.0
358,228.111262,228.45926200000002,71.0,107.0
359,228.591262,228.871262,71.0,127.0
360,229.07126200000002,229.175262,59.0,96.0
361,229.31126200000003,229.407262,59.0,96.0
362,229.551262,229.98326200000002,66.0,122.0
363,230.03126200000003,230.135262,64.0,100.0
364,230.271262,230.955262,64.0,107.0
365,230.991262,231.093262,59.0,99.0
366,231.23126200000002,231.371262,59.0,95.0
367,231.47126200000002,231.585262,67.0,122.0
368,231.711262,232.061262,67.0,117.0
369,232.19126200000002,232.32126200000002,66.0,95.0
370,232.431262,232.74326200000002,66.0,127.0
371,232.91126200000002,233.039262,60.0,122.0
372,233.151262,233.38726200000002,60.0,93.0
373,233.391262,234.91726200000002,59.0,96.0
374,235.311262,236.02526200000003,64.0,122.0
375,236.271262,236.81526200000002,66.0,127.0
376,237.23126200000002,237.581262,68.0,127.0
377,237.711262,237.945262,68.0,122.0
378,238.19126200000002,238.44726200000002,68.0,127.0
379,238.671262,238.82726200000002,68.0,127.0
380,238.91126200000002,239.00726200000003,66.0,112.0
381,239.151262,239.45926200000002,68.0,127.0
382,239.63126200000002,239.925262,71.0,127.0
383,240.111262,240.33326200000002,71.0,127.0
384,240.59126200000003,240.701262,59.0,112.0
385,240.831262,240.95926200000002,59.0,96.0
386,241.07126200000002,241.299262,68.0,127.0
387,241.311262,241.437262,66.0,97.0
388,241.551262,241.64926200000002,66.0,122.0
389,241.79126200000002,242.253262,66.0,127.0
390,242.51126200000002,242.723262,66.0,127.0
391,242.75126200000003,242.945262,64.0,92.0
392,242.991262,243.087262,66.0,117.0
393,243.23126200000002,243.40526200000002,66.0,122.0
394,243.47126200000002,243.819262,71.0,107.0
395,243.951262,244.23126200000002,71.0,127.0
396,244.431262,244.53526200000002,59.0,96.0
397,244.671262,244.76726200000002,59.0,96.0
398,244.91126200000002,245.343262,66.0,122.0
399,245.391262,245.49526200000003,64.0,100.0
400,245.63126200000002,246.31526200000002,64.0,107.0
401,246.35126200000002,246.45326200000002,59.0,99.0
402,246.59126200000003,246.73126200000002,59.0,95.0
403,246.831262,246.92326200000002,68.0,117.0
404,247.07126200000002,247.403262,68.0,102.0
405,247.551262,247.67926200000002,66.0,95.0
406,247.79126200000002,248.05326200000002,66.0,112.0
407,248.271262,248.36526200000003,64.0,82.0
408,248.51126200000002,250.20926200000002,64.0,97.0
409,255.47126200000002,255.871262,66.0,127.0
410,255.951262,256.05726200000004,64.0,97.0
411,256.191262,256.66326200000003,64.0,102.0
412,256.671262,256.991262,66.0,112.0
413,256.911262,260.315262,68.0,78.0
