,start,end,pitch,velocity
0,2.806,3.278,68.0,63.0
1,2.806,3.318,64.0,72.0
2,2.806,3.5380000000000003,59.0,72.0
3,3.766,4.2860000000000005,68.0,66.0
4,3.766,4.312,64.0,69.0
5,3.766,4.4,59.0,67.0
6,4.246,4.906,52.0,45.0
7,4.726,5.2780000000000005,68.0,65.0
8,4.726,5.306,64.0,65.0
9,4.726,5.33,59.0,63.0
10,5.206,5.828,52.0,56.0
11,2.806,5.954,40.0,66.0
12,3.286,6.0600000000000005,47.0,44.0
13,5.686,6.174,64.0,79.0
14,5.926,6.182,52.0,68.0
15,5.686,6.192,68.0,92.0
16,6.166,6.3660000000000005,59.0,72.0
17,6.646,7.19,61.0,75.0
18,6.646,7.198,64.0,69.0
19,6.646,7.22,57.0,79.0
20,7.126,7.854,52.0,53.0
21,7.606,8.236,61.0,55.0
22,7.606,8.252,57.0,55.0
23,7.606,8.254,64.0,50.0
24,7.606,8.282,68.0,56.0
25,8.086,8.68,52.0,50.0
26,8.566,9.136000000000001,61.0,59.0
27,8.566,9.136000000000001,64.0,59.0
28,8.566,9.148,57.0,58.0
29,8.566,9.148,68.0,45.0
30,9.046,9.596,52.0,43.0
31,9.766,9.898,52.0,44.0
32,6.646,9.936,45.0,71.0
33,9.526,9.942,68.0,56.0
34,9.526,10.006,64.0,62.0
35,9.526,10.096,61.0,77.0
36,10.006,10.166,57.0,52.0
37,10.486,11.304,59.0,79.0
38,10.486,11.306000000000001,68.0,74.0
39,10.486,11.342,64.0,75.0
40,11.446,11.98,68.0,72.0
41,11.446,12.022,64.0,74.0
42,11.446,12.144,59.0,86.0
43,11.926,12.604000000000001,52.0,35.0
44,12.406,13.104000000000001,68.0,65.0
45,12.406,13.114,64.0,68.0
46,12.406,13.268,59.0,69.0
47,12.886000000000001,13.63,52.0,43.0
48,10.486,13.66,40.0,72.0
49,10.966000000000001,13.718,47.0,55.0
50,13.366,13.83,68.0,78.0
51,13.366,13.866,64.0,78.0
52,13.846,14.056000000000001,59.0,61.0
53,14.326,14.852,61.0,77.0
54,14.326,14.914,64.0,73.0
55,14.326,14.956,57.0,77.0
56,14.806000000000001,15.564,52.0,39.0
57,15.286,15.796000000000001,68.0,59.0
58,15.286,15.802,61.0,64.0
59,15.286,15.814,64.0,55.0
60,15.286,15.838000000000001,57.0,59.0
61,15.766,16.554000000000002,52.0,39.0
62,16.246,16.822,68.0,52.0
63,16.246,16.846,61.0,58.0
64,16.246,16.846,64.0,53.0
65,16.246,16.87,57.0,53.0
66,16.726,17.262,52.0,42.0
67,14.326,17.414,45.0,67.0
68,17.206,17.650000000000002,68.0,65.0
69,17.206,17.67,64.0,65.0
70,17.206,17.73,57.0,44.0
71,17.206,17.744,61.0,63.0
72,18.166,18.768,68.0,79.0
73,18.166,18.794,64.0,75.0
74,18.166,18.93,59.0,79.0
75,18.646,19.446,47.0,38.0
76,19.126,19.68,68.0,65.0
77,19.126,19.732,64.0,66.0
78,19.126,19.738,52.0,46.0
79,19.126,19.766000000000002,59.0,67.0
80,20.086000000000002,20.668,68.0,62.0
81,20.086000000000002,20.698,64.0,63.0
82,20.806,20.894000000000002,68.0,24.0
83,20.086000000000002,20.988,59.0,69.0
84,20.566,21.18,52.0,33.0
85,18.166,21.436,40.0,69.0
86,19.606,21.474,47.0,50.0
87,21.046,21.502,68.0,79.0
88,21.046,21.514,64.0,74.0
89,21.526,21.71,59.0,60.0
90,22.006,22.55,64.0,72.0
91,22.006,22.578,61.0,73.0
92,22.006,22.622,57.0,74.0
93,22.486,23.096,52.0,41.0
94,22.966,23.464000000000002,61.0,59.0
95,22.966,23.572,57.0,64.0
96,22.966,23.678,64.0,62.0
97,23.446,24.236,52.0,45.0
98,23.926000000000002,24.352,69.0,64.0
99,23.926000000000002,24.584,61.0,62.0
100,23.926000000000002,24.598,64.0,43.0
101,23.926000000000002,24.626,57.0,43.0
102,24.406,24.912,52.0,55.0
103,22.006,25.024,45.0,71.0
104,24.886,25.352,64.0,72.0
105,24.886,25.462,61.0,82.0
106,25.366,25.73,57.0,69.0
107,25.846,26.418,68.0,60.0
108,25.846,26.474,64.0,68.0
109,25.846,26.692,59.0,72.0
110,26.326,27.094,47.0,40.0
111,26.806,27.36,68.0,64.0
112,26.806,27.400000000000002,64.0,66.0
113,26.806,27.446,52.0,45.0
114,26.806,27.496000000000002,59.0,64.0
115,27.766000000000002,28.372,68.0,60.0
116,27.766000000000002,28.414,64.0,58.0
117,27.766000000000002,28.446,59.0,62.0
118,25.846,28.708000000000002,40.0,70.0
119,27.286,28.732,47.0,32.0
120,28.246000000000002,28.868000000000002,52.0,33.0
121,28.726,29.186,64.0,57.0
122,28.726,29.264,68.0,63.0
123,29.206,29.538,59.0,55.0
124,29.686,30.392,68.0,75.0
125,29.686,30.486,59.0,82.0
126,29.686,30.546,63.0,83.0
127,30.646,31.182000000000002,68.0,57.0
128,30.646,31.282,63.0,71.0
129,30.646,31.316,59.0,74.0
130,31.126,31.768,56.0,42.0
131,31.606,32.182,68.0,58.0
132,31.606,32.236000000000004,63.0,61.0
133,31.606,32.39,59.0,61.0
134,32.086,32.764,56.0,52.0
135,30.166,32.904,51.0,25.0
136,32.566,33.008,68.0,75.0
137,29.686,33.01,44.0,69.0
138,32.566,33.072,63.0,72.0
139,33.046,33.316,59.0,73.0
140,33.526,34.388,64.0,72.0
141,33.526,34.408,61.0,86.0
142,33.526,34.414,57.0,82.0
143,34.006,34.696,52.0,55.0
144,34.486000000000004,35.06,61.0,95.0
145,34.486000000000004,35.088,64.0,75.0
146,33.526,35.346000000000004,45.0,66.0
147,34.966,35.416000000000004,52.0,47.0
148,35.446,36.094,57.0,73.0
149,35.446,36.266,64.0,67.0
150,35.446,36.286,60.0,73.0
151,35.926,36.476,52.0,55.0
152,35.446,36.534,45.0,65.0
153,36.406,36.9,64.0,77.0
154,36.406,37.006,60.0,83.0
155,36.886,37.222,57.0,63.0
156,37.366,37.918,68.0,75.0
157,37.366,38.162,59.0,77.0
158,37.366,38.168,64.0,74.0
159,38.326,38.496,52.0,53.0
160,37.846000000000004,38.528,47.0,48.0
161,37.366,38.532000000000004,40.0,67.0
162,38.326,38.708,64.0,72.0
163,38.326,38.798,59.0,72.0
164,38.326,38.812,68.0,70.0
165,39.286,39.766,65.0,76.0
166,39.286,39.79,68.0,77.0
167,39.286,39.952,61.0,76.0
168,39.286,40.442,37.0,71.0
169,39.766,40.67,49.0,36.0
170,40.246,40.732,68.0,95.0
171,40.246,40.794000000000004,65.0,90.0
172,40.726,41.154,61.0,63.0
173,41.206,41.704,69.0,63.0
174,41.206,41.976,61.0,52.0
175,41.206,42.016,66.0,73.0
176,41.686,42.426,54.0,54.0
177,42.166000000000004,42.598,69.0,66.0
178,42.166000000000004,42.63,66.0,69.0
179,41.206,42.638,42.0,61.0
180,42.166000000000004,42.644,61.0,68.0
181,42.646,42.768,54.0,56.0
182,43.126,43.896,57.0,69.0
183,43.126,43.908,64.0,69.0
184,43.126,43.974000000000004,60.0,67.0
185,43.606,44.226,52.0,41.0
186,43.126,44.302,45.0,63.0
187,44.086,44.566,64.0,72.0
188,44.086,44.648,60.0,77.0
189,44.566,44.872,57.0,61.0
190,45.046,45.798,68.0,68.0
191,45.046,45.88,64.0,71.0
192,45.046,45.912,59.0,73.0
193,45.526,46.122,47.0,42.0
194,46.006,46.622,68.0,72.0
195,46.006,46.656,52.0,43.0
196,46.006,46.726,64.0,69.0
197,46.006,46.786,59.0,68.0
198,46.966,47.77,68.0,68.0
199,46.966,47.800000000000004,64.0,72.0
200,46.966,47.82,59.0,79.0
201,47.446,48.052,52.0,49.0
202,48.166000000000004,48.32,52.0,58.0
203,45.046,48.454,40.0,65.0
204,47.926,48.52,68.0,95.0
205,47.926,48.604,64.0,89.0
206,48.406,48.788000000000004,59.0,86.0
207,46.486000000000004,48.81,47.0,41.0
208,48.886,49.522,68.0,89.0
209,48.886,49.730000000000004,64.0,75.0
210,48.886,49.79,59.0,77.0
211,49.846000000000004,50.428000000000004,68.0,89.0
212,49.846000000000004,50.484,64.0,77.0
213,49.846000000000004,50.578,59.0,55.0
214,50.326,51.11,52.0,68.0
215,50.806000000000004,51.394,68.0,59.0
216,50.806000000000004,51.518,59.0,70.0
217,50.806000000000004,51.534,64.0,62.0
218,51.286,51.856,52.0,61.0
219,48.886,52.1,40.0,73.0
220,49.366,52.236000000000004,47.0,48.0
221,51.766,52.26,64.0,90.0
222,51.766,52.282000000000004,68.0,93.0
223,52.006,52.39,52.0,77.0
224,52.246,52.56,59.0,93.0
225,52.726,53.254,64.0,77.0
226,52.726,53.506,57.0,93.0
227,52.726,53.550000000000004,61.0,90.0
228,53.206,53.84,52.0,55.0
229,53.686,54.2,64.0,72.0
230,53.686,54.452,57.0,74.0
231,53.686,54.550000000000004,61.0,82.0
232,54.166000000000004,54.768,52.0,58.0
233,54.646,55.224000000000004,64.0,73.0
234,54.646,55.438,57.0,73.0
235,54.646,55.486000000000004,61.0,89.0
236,55.126,55.678000000000004,52.0,41.0
237,55.846000000000004,56.174,52.0,61.0
238,52.726,56.182,45.0,73.0
239,56.086,56.484,57.0,81.0
240,55.606,56.488,64.0,86.0
241,55.606,56.492000000000004,61.0,100.0
242,56.566,57.342,68.0,88.0
243,56.566,57.366,64.0,85.0
244,56.566,57.384,59.0,88.0
245,57.046,57.748000000000005,47.0,53.0
246,57.526,58.050000000000004,68.0,88.0
247,57.526,58.084,52.0,65.0
248,57.526,58.152,64.0,83.0
249,57.526,58.234,59.0,88.0
250,58.486000000000004,59.076,59.0,77.0
251,58.486000000000004,59.088,68.0,75.0
252,58.486000000000004,59.118,64.0,72.0
253,59.206,59.292,68.0,20.0
254,58.966,59.512,52.0,62.0
255,56.566,59.712,40.0,72.0
256,58.006,59.762,47.0,49.0
257,59.686,59.88,52.0,76.0
258,59.446,59.906,64.0,88.0
259,59.446,59.96,68.0,93.0
260,59.926,60.224000000000004,59.0,69.0
261,60.406,61.174,68.0,75.0
262,60.406,61.244,59.0,88.0
263,60.406,61.262,63.0,83.0
264,61.366,61.878,68.0,82.0
265,61.366,61.944,63.0,79.0
266,61.366,62.022,59.0,79.0
267,61.846000000000004,62.6,56.0,72.0
268,62.326,63.098,59.0,79.0
269,62.326,63.13,68.0,68.0
270,62.326,63.158,63.0,72.0
271,62.806000000000004,63.368,56.0,81.0
272,60.886,63.528,51.0,27.0
273,60.406,63.65,44.0,85.0
274,63.526,63.768,56.0,76.0
275,63.286,63.768,68.0,95.0
276,63.286,63.826,63.0,95.0
277,63.766,64.05,59.0,81.0
278,64.246,65.08800000000001,64.0,77.0
279,64.246,65.116,57.0,96.0
280,64.246,65.122,61.0,86.0
281,64.726,65.404,52.0,55.0
282,65.206,65.84,61.0,88.0
283,65.206,65.894,64.0,75.0
284,65.206,65.978,57.0,86.0
285,64.246,66.078,45.0,69.0
286,65.686,66.202,52.0,48.0
287,66.166,66.694,64.0,81.0
288,66.166,66.766,60.0,88.0
289,66.166,66.792,57.0,93.0
290,66.646,67.34400000000001,52.0,54.0
291,66.166,67.914,45.0,67.0
292,67.126,68.086,60.0,92.0
293,67.606,68.09,57.0,88.0
294,67.126,68.092,64.0,85.0
295,68.086,68.092,64.0,89.0
296,68.086,68.868,68.0,90.0
297,68.086,68.872,59.0,89.0
298,68.566,69.22,47.0,58.0
299,69.046,69.47,64.0,93.0
300,69.046,69.522,52.0,41.0
301,69.046,69.524,59.0,73.0
302,69.046,69.534,68.0,96.0
303,68.086,69.56400000000001,40.0,83.0
304,69.526,69.668,47.0,65.0
305,70.006,70.572,65.0,88.0
306,70.006,70.57600000000001,68.0,88.0
307,70.006,70.794,61.0,89.0
308,70.486,71.26,44.0,30.0
309,70.006,71.274,37.0,59.0
310,70.96600000000001,71.416,49.0,50.0
311,70.96600000000001,71.498,65.0,86.0
312,70.96600000000001,71.522,68.0,85.0
313,71.446,71.584,61.0,73.0
314,71.926,72.536,57.0,97.0
315,71.926,72.558,64.0,82.0
316,71.926,72.738,61.0,92.0
317,72.406,72.998,52.0,62.0
318,72.886,73.376,64.0,90.0
319,71.926,73.696,45.0,72.0
320,72.886,73.734,61.0,112.0
321,73.366,73.85000000000001,52.0,68.0
322,73.846,74.598,59.0,92.0
323,73.846,74.62,66.0,95.0
324,73.846,74.644,63.0,97.0
325,73.846,74.902,47.0,76.0
326,75.046,75.24,47.0,60.0
327,74.806,75.366,63.0,122.0
328,74.806,75.37,66.0,122.0
329,75.286,75.60000000000001,59.0,96.0
330,75.766,76.614,68.0,99.0
331,75.766,76.636,59.0,99.0
332,75.766,76.636,64.0,97.0
333,76.486,76.81400000000001,52.0,79.0
334,76.726,77.16,64.0,107.0
335,76.726,77.168,68.0,117.0
336,75.766,77.17,40.0,88.0
337,76.246,77.172,47.0,59.0
338,76.96600000000001,77.244,52.0,100.0
339,77.206,77.426,59.0,102.0
340,77.446,77.598,61.0,99.0
341,77.686,78.19800000000001,61.0,117.0
342,77.686,78.214,64.0,96.0
343,77.686,78.428,57.0,112.0
344,77.686,78.584,45.0,100.0
345,78.646,79.566,47.0,95.0
346,78.646,79.59,59.0,93.0
347,78.646,79.60000000000001,63.0,122.0
348,78.646,79.614,66.0,122.0
349,80.086,80.616,52.0,89.0
350,80.32600000000001,80.63,56.0,74.0
351,80.806,80.98,52.0,95.0
352,79.60600000000001,81.324,40.0,90.0
353,79.846,81.528,47.0,72.0
354,81.046,81.744,56.0,100.0
355,80.566,82.08,64.0,78.0
356,81.286,82.118,59.0,66.0
357,82.246,82.56400000000001,56.0,90.0
358,82.006,82.598,52.0,77.0
359,81.766,82.93,47.0,69.0
360,81.526,82.934,40.0,76.0
361,82.726,83.014,52.0,83.0
362,82.96600000000001,83.262,56.0,100.0
363,83.206,83.408,59.0,68.0
364,82.486,83.428,64.0,86.0
365,83.926,84.22200000000001,59.0,90.0
366,84.166,84.474,63.0,100.0
367,83.686,84.52,54.0,81.0
368,83.446,85.242,47.0,69.0
369,84.646,85.294,54.0,97.0
370,84.406,85.468,66.0,117.0
371,85.126,85.48400000000001,59.0,93.0
372,84.886,85.572,63.0,92.0
373,86.086,86.394,63.0,97.0
374,85.60600000000001,86.462,54.0,96.0
375,85.846,86.474,59.0,82.0
376,86.566,86.742,54.0,92.0
377,85.366,86.796,47.0,83.0
378,86.32600000000001,87.264,66.0,112.0
379,86.806,87.3,63.0,100.0
380,87.046,87.33200000000001,59.0,89.0
381,88.006,88.21600000000001,61.0,86.0
382,87.766,88.33800000000001,57.0,82.0
383,87.526,88.35000000000001,52.0,73.0
384,87.286,88.774,45.0,74.0
385,88.726,89.09400000000001,61.0,107.0
386,88.486,89.142,52.0,74.0
387,88.246,89.26,64.0,97.0
388,88.96600000000001,89.286,57.0,93.0
389,89.926,90.2,60.0,93.0
390,89.686,90.264,57.0,83.0
391,89.446,90.298,52.0,89.0
392,90.406,90.546,52.0,72.0
393,89.206,90.596,45.0,82.0
394,90.166,91.146,64.0,99.0
395,90.646,91.156,60.0,99.0
396,90.886,91.176,57.0,92.0
397,91.60600000000001,92.20400000000001,52.0,78.0
398,91.126,92.43,40.0,78.0
399,91.366,92.434,47.0,67.0
400,91.846,92.446,59.0,74.0
401,92.32600000000001,92.556,52.0,83.0
402,92.566,92.884,64.0,78.0
403,92.086,92.916,68.0,117.0
404,92.806,93.066,59.0,93.0
405,93.286,93.93,57.0,97.0
406,93.526,93.938,64.0,99.0
407,93.046,93.946,45.0,93.0
408,93.766,94.068,61.0,127.0
409,94.006,94.512,47.0,90.0
410,94.486,94.842,66.0,127.0
411,94.726,94.962,63.0,122.0
412,94.246,95.034,59.0,93.0
413,95.446,96.024,52.0,85.0
414,95.686,96.33800000000001,59.0,88.0
415,96.166,96.45400000000001,52.0,92.0
416,94.96600000000001,96.72200000000001,40.0,83.0
417,95.206,96.904,47.0,76.0
418,95.926,96.916,68.0,117.0
419,96.646,97.164,59.0,89.0
420,96.406,97.67,64.0,77.0
421,97.366,97.976,52.0,77.0
422,97.60600000000001,98.098,59.0,72.0
423,96.886,98.256,40.0,78.0
424,97.126,98.3,47.0,68.0
425,98.086,98.682,52.0,74.0
426,98.32600000000001,98.742,64.0,61.0
427,97.846,98.756,68.0,112.0
428,98.566,98.868,59.0,93.0
429,99.526,99.83,63.0,107.0
430,99.046,99.9,54.0,93.0
431,99.286,99.934,59.0,86.0
432,98.806,100.54,47.0,72.0
433,99.766,100.65,66.0,117.0
434,100.006,100.66,54.0,75.0
435,100.246,100.792,63.0,92.0
436,100.486,100.902,59.0,97.0
437,101.446,101.732,63.0,100.0
438,101.206,101.798,59.0,81.0
439,100.96600000000001,101.81,54.0,86.0
440,101.926,102.08800000000001,54.0,81.0
441,100.726,102.114,47.0,72.0
442,101.686,102.574,66.0,117.0
443,102.166,102.61200000000001,63.0,112.0
444,102.406,102.67,59.0,95.0
445,103.366,103.57000000000001,61.0,93.0
446,103.126,103.668,57.0,88.0
447,102.886,103.74000000000001,52.0,75.0
448,102.646,104.028,45.0,79.0
449,103.846,104.044,52.0,65.0
450,103.60600000000001,104.494,64.0,95.0
451,104.086,104.498,57.0,92.0
452,104.32600000000001,104.536,61.0,107.0
453,105.286,105.568,63.0,97.0
454,105.046,105.626,59.0,82.0
455,104.806,105.654,54.0,81.0
456,104.566,105.72,47.0,72.0
457,105.766,106.092,63.0,95.0
458,105.526,106.434,66.0,117.0
459,106.246,106.46600000000001,63.0,95.0
460,106.006,106.5,59.0,83.0
461,106.96600000000001,107.53,52.0,92.0
462,107.206,107.578,56.0,71.0
463,107.686,107.952,52.0,72.0
464,106.486,108.276,40.0,77.0
465,106.726,108.446,47.0,67.0
466,107.926,108.956,56.0,78.0
467,107.446,109.096,64.0,67.0
468,108.166,109.206,59.0,61.0
469,108.886,109.47800000000001,52.0,71.0
470,109.126,109.502,56.0,85.0
471,108.406,109.59400000000001,40.0,57.0
472,108.646,109.624,47.0,60.0
473,109.60600000000001,109.936,56.0,65.0
474,109.846,110.24600000000001,59.0,68.0
475,110.086,110.266,56.0,86.0
476,109.366,110.32600000000001,64.0,69.0
477,110.806,111.492,52.0,69.0
478,111.286,111.738,64.0,77.0
479,111.286,111.764,61.0,96.0
480,110.32600000000001,112.13,45.0,74.0
481,111.766,112.236,52.0,34.0
482,112.24600000000001,113.10000000000001,60.0,71.0
483,112.24600000000001,113.196,45.0,74.0
484,112.24600000000001,113.236,66.0,85.0
485,112.24600000000001,113.24600000000001,63.0,78.0
486,112.24600000000001,113.284,57.0,64.0
487,113.206,114.062,48.0,73.0
488,113.206,114.08,60.0,73.0
489,114.646,115.37400000000001,47.0,92.0
490,115.60600000000001,116.366,47.0,86.0
491,116.086,116.94,56.0,117.0
492,114.166,117.59,40.0,88.0
493,116.566,117.632,47.0,82.0
494,115.126,117.98,52.0,96.0
495,117.526,118.024,56.0,97.0
496,117.046,118.042,59.0,92.0
497,118.486,119.142,52.0,47.0
498,118.96600000000001,119.804,61.0,69.0
499,118.96600000000001,119.84,64.0,67.0
500,118.96600000000001,119.938,57.0,66.0
501,119.446,120.22,52.0,59.0
502,120.406,121.148,52.0,74.0
503,118.006,121.21600000000001,45.0,88.0
504,120.886,121.9,59.0,82.0
505,119.926,121.914,64.0,65.0
506,121.366,121.922,57.0,66.0
507,119.926,121.946,61.0,95.0
508,122.806,123.988,52.0,78.0
509,123.766,124.33800000000001,64.0,67.0
510,123.766,124.404,59.0,59.0
511,123.286,124.852,56.0,78.0
512,124.24600000000001,124.892,52.0,67.0
513,121.846,125.10600000000001,40.0,75.0
514,122.32600000000001,125.152,47.0,58.0
515,124.96600000000001,125.19800000000001,52.0,65.0
516,124.726,125.702,59.0,68.0
517,124.726,125.718,64.0,69.0
518,125.206,125.738,56.0,70.0
519,126.166,126.846,51.0,60.0
520,126.646,127.74000000000001,56.0,66.0
521,126.646,127.976,59.0,85.0
522,127.60600000000001,128.354,68.0,81.0
523,127.60600000000001,128.404,63.0,70.0
524,127.126,128.766,51.0,54.0
525,125.686,128.836,44.0,76.0
526,128.086,128.93200000000002,56.0,78.0
527,128.566,129.544,68.0,96.0
528,129.046,129.574,59.0,70.0
529,128.806,129.574,63.0,72.0
530,130.006,130.724,52.0,70.0
531,130.486,131.18800000000002,61.0,88.0
532,130.486,131.344,64.0,76.0
533,129.526,131.398,45.0,78.0
534,130.966,131.512,52.0,58.0
535,131.446,132.256,64.0,71.0
536,131.446,132.336,60.0,74.0
537,131.92600000000002,132.534,52.0,33.0
538,131.446,132.668,45.0,71.0
539,132.406,133.362,64.0,78.0
540,132.406,133.368,60.0,78.0
541,132.886,133.41,57.0,73.0
542,134.326,134.68200000000002,52.0,74.0
543,133.846,134.886,47.0,57.0
544,133.366,134.894,40.0,75.0
545,134.326,135.27,59.0,72.0
546,134.326,135.282,56.0,73.0
547,134.806,135.328,52.0,56.0
548,135.766,136.462,49.0,74.0
549,135.286,136.728,37.0,92.0
550,136.246,137.15200000000002,56.0,83.0
551,136.246,137.156,53.0,71.0
552,137.686,138.36,52.0,62.0
553,137.206,138.564,45.0,90.0
554,138.166,139.1,64.0,78.0
555,138.64600000000002,139.142,57.0,88.0
556,138.166,139.14600000000002,61.0,90.0
557,139.606,140.224,54.0,71.0
558,139.126,140.424,47.0,88.0
559,140.086,141.092,66.0,107.0
560,140.566,141.106,59.0,89.0
561,141.526,142.114,47.0,66.0
562,141.046,142.376,40.0,88.0
563,142.246,142.44,47.0,89.0
564,142.726,142.862,52.0,92.0
565,142.006,142.872,59.0,112.0
566,142.486,142.9,56.0,107.0
567,143.446,143.834,64.0,95.0
568,142.966,143.852,45.0,107.0
569,143.206,143.858,57.0,93.0
570,143.686,144.088,61.0,122.0
571,143.92600000000002,144.398,47.0,93.0
572,144.166,144.88400000000001,59.0,78.0
573,144.406,144.888,66.0,112.0
574,145.366,145.89600000000002,52.0,89.0
575,145.606,145.91,56.0,74.0
576,146.086,146.26,52.0,95.0
577,144.886,146.604,40.0,90.0
578,145.126,146.808,47.0,72.0
579,146.326,147.024,56.0,100.0
580,145.846,147.36,64.0,78.0
581,146.566,147.398,59.0,66.0
582,147.526,147.844,56.0,90.0
583,147.286,147.87800000000001,52.0,77.0
584,147.046,148.21,47.0,69.0
585,146.806,148.214,40.0,76.0
586,148.006,148.294,52.0,83.0
587,148.246,148.542,56.0,100.0
588,148.486,148.68800000000002,59.0,68.0
589,147.766,148.708,64.0,86.0
590,149.20600000000002,149.502,59.0,90.0
591,149.446,149.754,63.0,100.0
592,148.966,149.8,54.0,81.0
593,148.726,150.522,47.0,69.0
594,149.92600000000002,150.574,54.0,97.0
595,149.686,150.748,66.0,117.0
596,150.406,150.764,59.0,93.0
597,150.166,150.852,63.0,92.0
598,151.366,151.674,63.0,97.0
599,150.886,151.742,54.0,96.0
600,151.126,151.754,59.0,82.0
601,151.846,152.022,54.0,92.0
602,150.64600000000002,152.076,47.0,83.0
603,151.606,152.544,66.0,112.0
604,152.086,152.58,63.0,100.0
605,152.326,152.612,59.0,89.0
606,153.286,153.496,61.0,86.0
607,153.046,153.618,57.0,82.0
608,152.806,153.63,52.0,73.0
609,152.566,154.054,45.0,74.0
610,154.006,154.374,61.0,107.0
611,153.766,154.422,52.0,74.0
612,153.526,154.54,64.0,97.0
613,154.246,154.566,57.0,93.0
614,155.20600000000002,155.48,60.0,93.0
615,154.966,155.544,57.0,83.0
616,154.726,155.578,52.0,89.0
617,155.686,155.826,52.0,72.0
618,154.486,155.876,45.0,82.0
619,155.446,156.42600000000002,64.0,99.0
620,155.92600000000002,156.436,60.0,99.0
621,156.166,156.45600000000002,57.0,92.0
622,156.886,157.484,52.0,78.0
623,156.406,157.71,40.0,78.0
624,156.64600000000002,157.714,47.0,67.0
625,157.126,157.726,59.0,74.0
626,157.606,157.836,52.0,83.0
627,157.846,158.16400000000002,64.0,78.0
628,157.366,158.196,68.0,117.0
629,158.086,158.346,59.0,93.0
630,158.566,159.21,57.0,97.0
631,158.806,159.218,64.0,99.0
632,158.326,159.226,45.0,93.0
633,159.046,159.348,61.0,127.0
634,159.286,159.792,47.0,90.0
635,159.766,160.122,66.0,127.0
636,160.006,160.242,63.0,122.0
637,159.526,160.314,59.0,93.0
638,160.726,161.304,52.0,85.0
639,160.966,161.618,59.0,88.0
640,161.446,161.734,52.0,92.0
641,160.246,162.002,40.0,83.0
642,160.486,162.184,47.0,76.0
643,161.20600000000002,162.196,68.0,117.0
644,161.92600000000002,162.44400000000002,59.0,89.0
645,161.686,162.95000000000002,64.0,77.0
646,162.64600000000002,163.256,52.0,77.0
647,162.886,163.37800000000001,59.0,72.0
648,162.166,163.536,40.0,78.0
649,162.406,163.58,47.0,68.0
650,163.366,163.96200000000002,52.0,74.0
651,163.606,164.022,64.0,61.0
652,163.126,164.036,68.0,112.0
653,163.846,164.148,59.0,93.0
654,164.806,165.11,63.0,107.0
655,164.326,165.18,54.0,93.0
656,164.566,165.214,59.0,86.0
657,164.086,165.82,47.0,72.0
658,165.046,165.93,66.0,117.0
659,165.286,165.94,54.0,75.0
660,165.526,166.072,63.0,92.0
661,165.766,166.18200000000002,59.0,97.0
662,166.726,167.012,63.0,100.0
663,166.486,167.078,59.0,81.0
664,166.246,167.09,54.0,86.0
665,167.20600000000002,167.368,54.0,81.0
666,166.006,167.394,47.0,72.0
667,166.966,167.854,66.0,117.0
668,167.446,167.892,63.0,112.0
669,167.686,167.95000000000002,59.0,95.0
670,168.64600000000002,168.85,61.0,93.0
671,168.406,168.948,57.0,88.0
672,168.166,169.02,52.0,75.0
673,167.92600000000002,169.308,45.0,79.0
674,169.126,169.324,52.0,65.0
675,168.886,169.774,64.0,95.0
676,169.366,169.778,57.0,92.0
677,169.606,169.816,61.0,107.0
678,170.566,170.848,63.0,97.0
679,170.326,170.906,59.0,82.0
680,170.086,170.934,54.0,81.0
681,169.846,171.0,47.0,72.0
682,171.046,171.372,63.0,95.0
683,170.806,171.714,66.0,117.0
684,171.526,171.746,63.0,95.0
685,171.286,171.766,59.0,83.0
686,172.486,172.84,56.0,99.0
687,172.246,172.872,52.0,78.0
688,172.966,173.174,52.0,75.0
689,171.766,173.338,40.0,69.0
690,172.006,173.372,47.0,64.0
691,172.726,173.41400000000002,64.0,89.0
692,173.20600000000002,173.452,56.0,92.0
693,173.446,173.568,59.0,48.0
694,173.686,174.154,62.0,96.0
695,173.686,174.34,55.0,97.0
696,173.686,174.382,59.0,90.0
697,174.406,174.454,66.0,25.0
698,174.406,174.48,63.0,27.0
699,173.686,174.584,43.0,93.0
700,174.64600000000002,175.16,47.0,107.0
701,174.64600000000002,175.588,66.0,112.0
702,174.64600000000002,175.598,63.0,122.0
703,174.64600000000002,175.606,59.0,86.0
704,176.326,176.476,61.0,43.0
705,176.086,176.636,54.0,86.0
706,175.846,177.014,49.0,30.0
707,176.566,177.066,66.0,83.0
708,175.606,177.108,42.0,88.0
709,176.806,177.20000000000002,54.0,79.0
710,177.286,177.53,66.0,69.0
711,177.046,177.538,61.0,82.0
712,178.006,178.428,59.0,66.0
713,178.246,178.6,63.0,96.0
714,177.766,178.644,54.0,86.0
715,178.726,178.892,54.0,74.0
716,177.526,178.91400000000002,47.0,71.0
717,178.486,179.256,66.0,95.0
718,178.966,179.348,63.0,99.0
719,179.20600000000002,179.484,59.0,78.0
720,179.686,180.43800000000002,56.0,82.0
721,179.92600000000002,180.494,59.0,81.0
722,180.166,180.514,63.0,83.0
723,180.64600000000002,180.87,56.0,90.0
724,179.446,180.998,44.0,89.0
725,180.406,181.24,68.0,83.0
726,180.886,181.244,63.0,92.0
727,181.126,181.358,59.0,92.0
728,181.846,182.342,55.0,74.0
729,182.086,182.366,59.0,96.0
730,181.606,182.39600000000002,50.0,72.0
731,182.566,182.696,50.0,88.0
732,181.366,182.744,43.0,72.0
733,182.806,183.234,59.0,107.0
734,182.326,183.234,62.0,96.0
735,183.046,183.25,55.0,93.0
736,184.006,184.246,61.0,70.0
737,183.766,184.338,54.0,81.0
738,183.526,184.708,49.0,53.0
739,184.246,184.778,66.0,99.0
740,183.286,184.816,42.0,76.0
741,184.486,184.824,54.0,81.0
742,184.726,185.002,61.0,96.0
743,184.966,185.144,66.0,100.0
744,185.92600000000002,186.17000000000002,61.0,76.0
745,185.686,186.228,54.0,77.0
746,185.446,186.466,49.0,69.0
747,185.20600000000002,186.584,42.0,89.0
748,186.406,186.62,54.0,81.0
749,186.166,186.638,66.0,96.0
750,186.64600000000002,187.068,61.0,99.0
751,186.886,187.118,66.0,102.0
752,187.606,188.07,59.0,72.0
753,187.846,188.138,63.0,96.0
754,187.366,188.172,54.0,96.0
755,188.086,188.854,66.0,102.0
756,187.126,188.928,47.0,67.0
757,188.326,188.96,54.0,99.0
758,188.806,189.126,59.0,89.0
759,188.566,189.208,63.0,117.0
760,189.286,189.63,59.0,95.0
761,189.526,189.85,66.0,100.0
762,189.766,189.876,59.0,93.0
763,189.046,189.948,47.0,92.0
764,190.006,190.844,43.0,95.0
765,190.006,190.904,55.0,99.0
766,190.006,190.904,62.0,99.0
767,190.006,190.916,59.0,96.0
768,190.966,191.452,64.0,99.0
769,190.966,191.46,57.0,122.0
770,190.966,191.47400000000002,61.0,127.0
771,191.686,191.774,64.0,41.0
772,191.686,191.804,57.0,73.0
773,191.686,191.812,61.0,78.0
774,191.446,192.018,45.0,75.0
775,191.92600000000002,192.214,57.0,112.0
776,191.92600000000002,192.49,61.0,127.0
777,191.92600000000002,192.498,64.0,112.0
778,192.64600000000002,192.722,64.0,41.0
779,190.966,192.74,33.0,82.0
780,192.64600000000002,192.75,61.0,43.0
781,192.406,192.768,57.0,102.0
782,192.166,192.802,45.0,97.0
783,192.886,193.494,57.0,112.0
784,192.886,193.498,64.0,107.0
785,192.886,193.508,60.0,117.0
786,193.606,193.736,57.0,88.0
787,193.606,193.736,64.0,90.0
788,193.606,193.75,60.0,95.0
789,193.366,193.916,45.0,79.0
790,193.846,194.118,57.0,97.0
791,192.886,194.13400000000001,33.0,88.0
792,193.846,194.17600000000002,40.0,31.0
793,193.846,194.35,60.0,127.0
794,193.846,194.358,64.0,122.0
795,194.086,194.388,45.0,112.0
796,194.326,194.458,57.0,107.0
797,194.566,194.616,64.0,40.0
798,194.806,194.93800000000002,64.0,112.0
799,194.806,194.93800000000002,68.0,122.0
800,194.806,194.94400000000002,59.0,100.0
801,195.046,195.172,59.0,39.0
802,195.046,195.172,68.0,47.0
803,195.046,195.18,64.0,52.0
804,195.286,195.366,68.0,66.0
805,195.286,195.39000000000001,59.0,66.0
806,195.286,195.394,64.0,72.0
807,195.526,195.594,68.0,69.0
808,195.526,195.608,59.0,70.0
809,195.526,195.61,64.0,72.0
810,195.046,195.95600000000002,47.0,55.0
811,195.766,196.052,59.0,97.0
812,195.766,196.056,68.0,127.0
813,195.766,196.062,64.0,107.0
814,195.766,196.14600000000002,52.0,96.0
815,196.246,196.346,68.0,96.0
816,196.246,196.348,64.0,93.0
817,196.246,196.354,59.0,82.0
818,194.806,196.638,40.0,97.0
819,196.006,196.67000000000002,47.0,59.0
820,196.486,196.798,68.0,117.0
821,196.486,196.804,64.0,122.0
822,196.486,196.808,59.0,97.0
823,196.966,197.05,68.0,83.0
824,196.966,197.066,59.0,77.0
825,196.966,197.078,64.0,81.0
826,197.20600000000002,197.272,68.0,59.0
827,197.20600000000002,197.294,59.0,74.0
828,197.20600000000002,197.294,64.0,68.0
829,197.446,197.514,68.0,95.0
830,197.446,197.534,64.0,93.0
831,197.446,197.54,59.0,81.0
832,197.446,197.59,52.0,47.0
833,197.686,197.822,59.0,107.0
834,197.686,197.854,52.0,102.0
835,197.92600000000002,198.034,59.0,33.0
836,196.966,198.078,47.0,55.0
837,196.726,198.17000000000002,40.0,82.0
838,197.686,198.184,64.0,122.0
839,197.686,198.204,68.0,127.0
840,197.92600000000002,198.258,52.0,112.0
841,198.166,198.382,59.0,122.0
842,198.406,198.538,61.0,93.0
843,198.64600000000002,198.97400000000002,57.0,117.0
844,198.64600000000002,198.978,64.0,102.0
845,198.64600000000002,198.998,61.0,127.0
846,199.126,199.248,61.0,56.0
847,199.126,199.26,57.0,76.0
848,199.126,199.26,64.0,68.0
849,199.366,199.472,57.0,70.0
850,199.366,199.488,64.0,85.0
851,199.366,199.498,61.0,97.0
852,198.886,199.632,52.0,95.0
853,199.606,199.882,57.0,96.0
854,199.606,199.918,64.0,100.0
855,199.606,199.924,61.0,127.0
856,200.086,200.39600000000002,61.0,127.0
857,198.64600000000002,200.404,45.0,107.0
858,200.086,200.41400000000002,64.0,90.0
859,199.846,200.476,52.0,112.0
860,200.326,200.48000000000002,57.0,102.0
861,200.566,200.90200000000002,64.0,95.0
862,200.566,200.912,57.0,81.0
863,200.566,200.912,60.0,97.0
864,201.046,201.162,57.0,64.0
865,201.046,201.16400000000002,60.0,72.0
866,201.046,201.168,64.0,67.0
867,200.806,201.298,52.0,67.0
868,201.286,201.39600000000002,57.0,86.0
869,201.286,201.39600000000002,60.0,93.0
870,201.286,201.40800000000002,64.0,77.0
871,201.526,201.64000000000001,57.0,100.0
872,201.526,201.64600000000002,60.0,127.0
873,201.526,201.66,64.0,100.0
874,201.526,201.684,52.0,95.0
875,200.566,201.83,45.0,79.0
876,201.766,201.894,60.0,66.0
877,201.766,201.894,64.0,67.0
878,201.766,201.92000000000002,57.0,53.0
879,202.006,202.058,57.0,40.0
880,202.006,202.166,60.0,127.0
881,202.006,202.178,64.0,99.0
882,202.246,202.41400000000002,59.0,89.0
883,202.48600000000002,203.014,68.0,122.0
884,202.48600000000002,203.02,59.0,90.0
885,202.48600000000002,203.034,64.0,107.0
886,203.20600000000002,203.32,68.0,81.0
887,203.20600000000002,203.328,59.0,89.0
888,203.20600000000002,203.328,64.0,77.0
889,202.966,203.48600000000002,52.0,93.0
890,203.446,203.696,59.0,100.0
891,203.446,203.728,68.0,117.0
892,203.446,203.742,64.0,122.0
893,203.686,203.954,52.0,97.0
894,203.92600000000002,204.006,64.0,86.0
895,203.92600000000002,204.008,68.0,73.0
896,203.92600000000002,204.016,59.0,93.0
897,202.48600000000002,204.244,40.0,79.0
898,204.166,204.258,59.0,89.0
899,204.166,204.258,68.0,122.0
900,204.166,204.268,64.0,112.0
901,202.726,204.41400000000002,47.0,89.0
902,204.406,204.52,68.0,107.0
903,204.406,204.524,64.0,99.0
904,204.406,204.536,59.0,92.0
905,204.64600000000002,204.75,68.0,72.0
906,204.64600000000002,204.756,59.0,69.0
907,204.64600000000002,204.762,64.0,69.0
908,204.886,204.94400000000002,68.0,63.0
909,204.886,204.966,64.0,71.0
910,204.886,204.97,59.0,74.0
911,205.126,205.20000000000002,68.0,90.0
912,205.126,205.208,64.0,88.0
913,205.126,205.22,59.0,85.0
914,204.886,205.42600000000002,52.0,81.0
915,205.366,205.672,59.0,99.0
916,204.406,205.778,40.0,86.0
917,204.64600000000002,205.814,47.0,75.0
918,205.366,205.92600000000002,64.0,127.0
919,205.366,205.93,68.0,127.0
920,205.606,205.93200000000002,52.0,107.0
921,205.846,206.012,59.0,122.0
922,206.086,206.208,64.0,88.0
923,206.086,206.22400000000002,59.0,66.0
924,206.326,206.67000000000002,57.0,100.0
925,206.326,206.696,64.0,96.0
926,206.326,206.73600000000002,61.0,127.0
927,206.806,206.946,57.0,81.0
928,207.046,207.126,64.0,82.0
929,207.046,207.148,57.0,64.0
930,207.046,207.15,61.0,97.0
931,206.566,207.284,52.0,88.0
932,207.286,207.39600000000002,64.0,97.0
933,207.286,207.40200000000002,57.0,100.0
934,207.286,207.406,61.0,127.0
935,207.766,207.892,57.0,96.0
936,208.006,208.076,64.0,83.0
937,206.326,208.094,45.0,99.0
938,208.006,208.1,61.0,117.0
939,208.006,208.102,57.0,58.0
940,207.526,208.25,52.0,90.0
941,208.246,208.56,57.0,95.0
942,208.246,208.56,64.0,102.0
943,208.246,208.576,60.0,107.0
944,208.726,208.796,64.0,78.0
945,208.726,208.818,57.0,77.0
946,208.726,208.818,60.0,89.0
947,208.966,209.04,64.0,83.0
948,208.966,209.052,57.0,77.0
949,208.966,209.062,60.0,92.0
950,208.48600000000002,209.098,52.0,96.0
951,209.20600000000002,209.508,64.0,102.0
952,209.20600000000002,209.53,60.0,122.0
953,209.20600000000002,209.584,57.0,97.0
954,209.446,209.592,52.0,96.0
955,208.246,209.622,45.0,79.0
956,209.686,209.768,57.0,51.0
957,209.686,209.848,60.0,112.0
958,209.686,209.86,64.0,96.0
959,209.92600000000002,210.108,59.0,90.0
960,210.166,210.73600000000002,59.0,99.0
961,210.166,210.768,64.0,97.0
962,210.166,210.888,40.0,93.0
963,210.406,210.90200000000002,47.0,89.0
964,210.64600000000002,210.90800000000002,52.0,99.0
965,210.166,211.056,68.0,112.0
966,210.886,211.144,59.0,117.0
967,211.126,211.668,63.0,127.0
968,211.606,211.796,59.0,96.0
969,211.126,212.008,39.0,107.0
970,212.086,212.562,64.0,107.0
971,212.086,212.6,68.0,112.0
972,212.086,212.636,37.0,112.0
973,212.566,212.64000000000001,49.0,76.0
974,212.086,212.656,61.0,117.0
975,213.046,213.43,59.0,112.0
976,213.046,213.44,35.0,97.0
977,213.046,213.548,66.0,117.0
978,213.046,213.596,63.0,127.0
979,213.526,213.748,59.0,99.0
980,214.006,214.366,57.0,112.0
981,214.006,214.37800000000001,64.0,99.0
982,214.006,214.382,61.0,127.0
983,214.48600000000002,214.836,57.0,92.0
984,214.726,214.84,64.0,86.0
985,214.726,214.854,61.0,102.0
986,214.246,215.014,52.0,96.0
987,214.966,215.18800000000002,57.0,107.0
988,214.966,215.522,64.0,117.0
989,214.966,215.524,61.0,127.0
990,215.446,215.58,57.0,100.0
991,214.006,215.818,45.0,92.0
992,215.20600000000002,215.982,52.0,100.0
993,215.686,216.23600000000002,57.0,107.0
994,215.686,216.296,64.0,100.0
995,215.686,216.3,61.0,127.0
996,216.406,216.458,64.0,24.0
997,216.406,216.46800000000002,61.0,29.0
998,216.406,216.54,57.0,92.0
999,216.64600000000002,216.748,64.0,93.0
1000,216.64600000000002,216.756,57.0,75.0
1001,216.64600000000002,216.766,61.0,112.0
1002,216.166,216.982,52.0,96.0
1003,216.886,217.22400000000002,64.0,107.0
1004,216.886,217.24,61.0,127.0
1005,216.886,217.458,57.0,107.0
1006,217.366,217.49200000000002,61.0,127.0
1007,217.366,217.498,64.0,102.0
1008,215.92600000000002,217.606,45.0,75.0
1009,217.126,217.85,52.0,112.0
1010,217.846,218.278,66.0,122.0
1011,217.846,218.282,59.0,112.0
1012,217.846,218.284,63.0,127.0
1013,218.326,218.43,66.0,76.0
1014,218.326,218.436,63.0,86.0
1015,218.326,218.442,59.0,69.0
1016,218.566,218.63400000000001,66.0,107.0
1017,218.566,218.648,59.0,92.0
1018,218.566,218.65,63.0,127.0
1019,217.846,218.934,47.0,95.0
1020,218.806,219.048,59.0,96.0
1021,218.806,219.266,66.0,127.0
1022,218.806,219.276,63.0,127.0
1023,219.046,219.346,47.0,99.0
1024,219.286,219.458,59.0,127.0
1025,219.526,219.606,61.0,64.0
1026,219.766,220.357543575,61.0,127.0
1027,219.766,220.38166636875,64.0,107.0
1028,219.766,220.63605219375,57.0,117.0
1029,219.766,220.7742100125,45.0,122.0
1030,220.81149069375002,221.94726200000002,63.0,127.0
1031,220.81149069375002,221.95926200000002,47.0,117.0
1032,220.81149069375002,221.967262,59.0,99.0
1033,221.86412169375,221.967262,59.0,96.0
1034,220.81149069375002,221.96926200000001,66.0,127.0
1035,221.86412169375,222.42926200000002,68.0,117.0
1036,221.86412169375,222.431262,64.0,102.0
1037,222.591262,222.70726200000001,68.0,93.0
1038,222.591262,222.73126200000002,59.0,93.0
1039,222.591262,222.73326200000002,64.0,95.0
1040,222.35126200000002,222.903262,52.0,92.0
1041,222.831262,223.079262,59.0,97.0
1042,222.831262,223.13126200000002,64.0,102.0
1043,222.831262,223.135262,68.0,117.0
1044,223.07126200000002,223.307262,52.0,112.0
1045,223.31126200000003,223.401262,68.0,59.0
1046,223.31126200000003,223.40526200000002,64.0,69.0
1047,223.31126200000003,223.42926200000002,59.0,102.0
1048,223.551262,223.627262,68.0,107.0
1049,221.86412169375,223.639262,40.0,99.0
1050,223.551262,223.64326200000002,64.0,100.0
1051,223.551262,223.653262,59.0,99.0
1052,222.111262,223.701262,47.0,95.0
1053,223.79126200000002,223.921262,68.0,112.0
1054,223.79126200000002,223.925262,59.0,102.0
1055,223.79126200000002,223.95326200000002,64.0,99.0
1056,224.03126200000003,224.153262,68.0,56.0
1057,224.03126200000003,224.165262,59.0,52.0
1058,224.03126200000003,224.17326200000002,64.0,40.0
1059,224.271262,224.355262,68.0,88.0
1060,224.271262,224.367262,64.0,89.0
1061,224.271262,224.371262,59.0,85.0
1062,224.51126200000002,224.573262,68.0,86.0
1063,224.51126200000002,224.585262,64.0,85.0
1064,224.51126200000002,224.59526200000002,59.0,83.0
1065,224.271262,224.92326200000002,47.0,50.0
1066,224.75126200000003,225.015262,59.0,85.0
1067,224.75126200000003,225.097262,64.0,117.0
1068,224.75126200000003,225.11926200000002,68.0,122.0
1069,224.75126200000003,225.169262,52.0,100.0
1070,223.79126200000002,225.193262,40.0,97.0
1071,224.991262,225.25726200000003,47.0,95.0
1072,225.23126200000002,225.341262,64.0,92.0
1073,225.23126200000002,225.343262,68.0,85.0
1074,225.47126200000002,225.51126200000002,63.0,88.0
1075,225.23126200000002,225.54326200000003,59.0,102.0
1076,225.711262,226.021262,66.0,127.0
1077,225.711262,226.063262,63.0,127.0
1078,225.711262,226.06526200000002,59.0,100.0
1079,226.19126200000002,226.27326200000002,66.0,40.0
1080,226.19126200000002,226.28726200000003,63.0,47.0
1081,226.19126200000002,226.31726200000003,59.0,90.0
1082,226.431262,226.509262,66.0,82.0
1083,226.431262,226.527262,59.0,70.0
1084,226.431262,226.527262,63.0,100.0
1085,225.951262,226.717262,54.0,67.0
1086,226.671262,226.88726200000002,59.0,112.0
1087,226.671262,227.19726200000002,63.0,127.0
1088,226.671262,227.205262,66.0,127.0
1089,227.151262,227.29126200000002,59.0,93.0
1090,227.391262,227.48726200000002,66.0,100.0
1091,225.711262,227.49926200000002,47.0,95.0
1092,227.391262,227.50726200000003,63.0,127.0
1093,227.391262,227.51326200000003,59.0,72.0
1094,226.91126200000002,227.61926200000002,54.0,102.0
1095,227.63126200000002,227.955262,59.0,97.0
1096,227.63126200000002,228.00526200000002,66.0,127.0
1097,227.63126200000002,228.033262,63.0,127.0
1098,228.111262,228.165262,63.0,25.0
1099,228.111262,228.229262,59.0,90.0
1100,228.35126200000002,228.431262,66.0,100.0
1101,228.35126200000002,228.445262,63.0,112.0
1102,228.35126200000002,228.451262,59.0,82.0
1103,227.871262,228.675262,54.0,93.0
1104,228.831262,229.04926200000003,54.0,102.0
1105,228.591262,229.051262,66.0,127.0
1106,227.63126200000002,229.08326200000002,47.0,77.0
1107,228.591262,229.08926200000002,63.0,127.0
1108,229.07126200000002,229.347262,59.0,117.0
1109,229.31126200000003,229.473262,61.0,92.0
1110,229.551262,229.859262,57.0,112.0
1111,229.551262,229.90526200000002,64.0,99.0
1112,229.551262,229.937262,61.0,112.0
1113,230.03126200000003,230.087262,64.0,33.0
1114,230.03126200000003,230.103262,61.0,33.0
1115,230.271262,230.365262,64.0,69.0
1116,230.271262,230.391262,61.0,88.0
1117,230.03126200000003,230.395262,57.0,88.0
1118,229.79126200000002,230.56726200000003,52.0,76.0
1119,230.51126200000002,230.82126200000002,57.0,112.0
1120,230.51126200000002,230.913262,61.0,127.0
1121,230.991262,231.033262,61.0,27.0
1122,230.51126200000002,231.109262,64.0,102.0
1123,230.991262,231.15526200000002,57.0,95.0
1124,231.23126200000002,231.301262,64.0,65.0
1125,231.23126200000002,231.347262,61.0,122.0
1126,231.23126200000002,231.349262,57.0,58.0
1127,229.551262,231.35726200000002,45.0,95.0
1128,230.75126200000003,231.413262,52.0,99.0
1129,231.47126200000002,231.83926200000002,57.0,107.0
1130,231.47126200000002,231.90526200000002,60.0,107.0
1131,231.951262,231.99926200000002,60.0,31.0
1132,231.47126200000002,232.03526200000002,64.0,99.0
1133,231.951262,232.09526200000002,57.0,88.0
1134,232.19126200000002,232.29926200000003,57.0,57.0
1135,232.19126200000002,232.29926200000003,60.0,82.0
1136,232.19126200000002,232.307262,64.0,72.0
1137,231.711262,232.48326200000002,52.0,85.0
1138,232.431262,232.76726200000002,60.0,127.0
1139,232.431262,232.76726200000002,64.0,102.0
1140,232.431262,232.819262,57.0,122.0
1141,232.671262,232.843262,52.0,96.0
1142,231.47126200000002,232.853262,45.0,96.0
1143,232.91126200000002,233.003262,57.0,56.0
1144,232.91126200000002,233.08326200000002,64.0,99.0
1145,232.91126200000002,233.115262,60.0,117.0
1146,233.151262,233.29726200000002,59.0,76.0
1147,233.391262,233.921262,59.0,107.0
1148,233.391262,233.951262,64.0,102.0
1149,233.391262,233.951262,68.0,117.0
1150,234.111262,234.21526200000002,68.0,100.0
1151,234.111262,234.235262,59.0,100.0
1152,234.111262,234.24326200000002,64.0,95.0
1153,233.871262,234.445262,52.0,92.0
1154,234.35126200000002,234.653262,59.0,112.0
1155,233.391262,234.71926200000001,40.0,97.0
1156,234.35126200000002,234.81726200000003,68.0,127.0
1157,233.63126200000002,234.843262,47.0,95.0
1158,234.35126200000002,234.861262,64.0,117.0
1159,234.59126200000003,235.057262,52.0,122.0
1160,234.831262,235.061262,59.0,112.0
1161,235.07126200000002,235.177262,61.0,97.0
1162,235.311262,235.587262,52.0,112.0
1163,235.311262,235.64926200000002,57.0,112.0
1164,235.311262,235.865262,61.0,127.0
1165,235.311262,235.885262,64.0,107.0
1166,236.03126200000003,236.06726200000003,63.0,72.0
1167,235.79126200000002,236.08926200000002,57.0,122.0
1168,236.03126200000003,236.123262,66.0,79.0
1169,235.311262,236.18526200000002,45.0,107.0
1170,235.551262,236.25526200000002,49.0,112.0
1171,235.79126200000002,236.27926200000002,52.0,56.0
1172,236.271262,236.65526200000002,59.0,102.0
1173,236.271262,236.723262,63.0,127.0
1174,236.271262,236.73726200000002,66.0,127.0
1175,236.271262,236.76126200000002,47.0,117.0
1176,236.75126200000003,236.823262,63.0,70.0
1177,236.75126200000003,236.84126200000003,66.0,66.0
1178,236.991262,237.097262,63.0,88.0
1179,236.75126200000003,237.11926200000002,59.0,122.0
1180,237.23126200000002,237.77326200000002,59.0,95.0
1181,237.23126200000002,237.79126200000002,68.0,122.0
1182,237.23126200000002,237.79726200000002,64.0,117.0
1183,237.951262,238.037262,68.0,82.0
1184,237.951262,238.073262,59.0,96.0
1185,237.951262,238.073262,64.0,90.0
1186,237.711262,238.24926200000002,52.0,97.0
1187,238.19126200000002,238.431262,59.0,100.0
1188,238.431262,238.621262,52.0,102.0
1189,238.19126200000002,238.71926200000001,68.0,122.0
1190,238.19126200000002,238.73726200000002,64.0,117.0
1191,238.671262,238.873262,59.0,112.0
1192,237.23126200000002,238.99526200000003,40.0,100.0
1193,238.91126200000002,239.021262,68.0,83.0
1194,238.91126200000002,239.02326200000002,59.0,62.0
1195,238.91126200000002,239.04126200000002,64.0,88.0
1196,237.47126200000002,239.11526200000003,47.0,99.0
1197,239.151262,239.711262,59.0,107.0
1198,239.151262,239.789262,64.0,122.0
1199,239.151262,239.799262,68.0,122.0
1200,239.871262,239.98726200000002,68.0,77.0
1201,239.871262,240.00526200000002,64.0,81.0
1202,239.871262,240.01326200000003,59.0,75.0
1203,240.111262,240.18526200000002,59.0,69.0
1204,239.63126200000002,240.21926200000001,52.0,81.0
1205,239.151262,240.52326200000002,40.0,89.0
1206,239.391262,240.59526200000002,47.0,82.0
1207,240.111262,240.60726200000002,64.0,122.0
1208,240.111262,240.63726200000002,68.0,127.0
1209,240.35126200000002,240.687262,52.0,95.0
1210,240.59126200000003,240.985262,59.0,122.0
1211,241.07126200000002,241.343262,59.0,99.0
1212,241.07126200000002,241.455262,66.0,117.0
1213,241.07126200000002,241.61926200000002,63.0,127.0
1214,241.79126200000002,241.879262,66.0,93.0
1215,241.551262,241.88126200000002,59.0,86.0
1216,241.79126200000002,241.895262,63.0,100.0
1217,241.311262,242.169262,54.0,99.0
1218,242.03126200000003,242.177262,59.0,107.0
1219,242.03126200000003,242.57926200000003,66.0,127.0
1220,242.03126200000003,242.581262,63.0,127.0
1221,242.51126200000002,242.629262,59.0,93.0
1222,242.75126200000003,242.86926200000002,66.0,117.0
1223,242.75126200000003,242.879262,59.0,92.0
1224,242.75126200000003,242.879262,63.0,127.0
1225,242.271262,243.16726200000002,54.0,89.0
1226,242.991262,243.235262,59.0,90.0
1227,242.991262,243.51926200000003,63.0,127.0
1228,242.991262,243.521262,66.0,127.0
1229,243.47126200000002,243.64326200000002,59.0,93.0
1230,243.711262,243.81526200000002,66.0,97.0
1231,243.711262,243.825262,63.0,112.0
1232,243.711262,243.83926200000002,59.0,61.0
1233,243.23126200000002,244.061262,54.0,86.0
1234,243.951262,244.189262,59.0,95.0
1235,241.07126200000002,244.413262,47.0,95.0
1236,244.19126200000002,244.413262,54.0,96.0
1237,243.951262,244.413262,66.0,127.0
1238,243.951262,244.48326200000002,63.0,127.0
1239,244.431262,244.701262,59.0,102.0
1240,244.671262,244.765262,61.0,79.0
1241,244.91126200000002,245.253262,57.0,107.0
1242,244.91126200000002,245.467262,61.0,127.0
1243,244.91126200000002,245.47126200000002,64.0,100.0
1244,245.63126200000002,245.723262,64.0,65.0
1245,245.391262,245.73926200000002,57.0,79.0
1246,245.63126200000002,245.74526200000003,61.0,79.0
1247,245.151262,245.93526200000002,52.0,82.0
1248,245.871262,246.20726200000001,57.0,107.0
1249,245.871262,246.23726200000002,64.0,112.0
1250,245.871262,246.25126200000003,61.0,127.0
1251,246.35126200000002,246.439262,57.0,92.0
1252,246.59126200000003,246.759262,57.0,96.0
1253,246.35126200000002,246.759262,61.0,127.0
1254,246.35126200000002,246.77526200000003,64.0,99.0
1255,244.91126200000002,246.799262,45.0,92.0
1256,246.111262,246.80526200000003,52.0,102.0
1257,246.831262,247.169262,59.0,97.0
1258,246.831262,247.335262,66.0,112.0
1259,246.831262,247.35326200000003,63.0,122.0
1260,247.311262,247.451262,59.0,68.0
1261,247.551262,247.677262,66.0,99.0
1262,247.551262,247.68526200000002,59.0,70.0
1263,247.551262,247.689262,63.0,107.0
1264,247.07126200000002,247.88126200000002,54.0,102.0
1265,247.79126200000002,247.955262,59.0,88.0
1266,247.79126200000002,248.11926200000002,63.0,127.0
1267,247.79126200000002,248.11926200000002,66.0,127.0
1268,246.831262,248.677262,47.0,88.0
1269,248.271262,248.705262,59.0,93.0
1270,248.03126200000003,248.711262,54.0,96.0
1271,248.271262,248.71326200000001,63.0,127.0
1272,248.271262,248.73326200000002,66.0,127.0
1273,248.75126200000003,249.313262,59.0,92.0
1274,248.75126200000003,249.337262,68.0,112.0
1275,248.75126200000003,249.343262,64.0,102.0
1276,249.47126200000002,249.57726200000002,68.0,57.0
1277,249.47126200000002,249.59126200000003,59.0,68.0
1278,249.47126200000002,249.60326200000003,64.0,63.0
1279,249.23126200000002,249.76326200000003,52.0,85.0
1280,249.711262,249.945262,59.0,92.0
1281,249.711262,250.247262,68.0,100.0
1282,249.711262,250.26126200000002,64.0,99.0
1283,248.75126200000003,250.53526200000002,40.0,86.0
1284,250.431262,250.55326200000002,68.0,72.0
1285,250.431262,250.569262,64.0,70.0
1286,250.19126200000002,250.57726200000002,59.0,82.0
1287,248.991262,250.72726200000002,47.0,89.0
1288,249.951262,251.195262,52.0,76.0
1289,250.671262,251.50526200000002,68.0,102.0
1290,250.671262,251.51926200000003,64.0,95.0
1291,250.671262,251.52526200000003,59.0,90.0
1292,251.871262,252.17926200000002,52.0,78.0
1293,251.63126200000002,252.18526200000002,64.0,99.0
1294,251.151262,252.59526200000002,47.0,51.0
1295,251.63126200000002,252.59526200000002,68.0,122.0
1296,252.111262,252.60126200000002,59.0,112.0
1297,250.671262,252.609262,40.0,77.0
1298,252.35126200000002,252.635262,64.0,89.0
1299,252.59126200000003,252.635262,64.0,97.0
1300,252.59126200000003,252.82926200000003,57.0,100.0
1301,252.59126200000003,253.10726200000002,61.0,112.0
1302,253.07126200000002,253.301262,57.0,88.0
1303,253.311262,253.42926200000002,57.0,81.0
1304,253.311262,253.42926200000002,64.0,81.0
1305,253.311262,253.43526200000002,61.0,93.0
1306,253.551262,253.593262,57.0,56.0
1307,252.831262,253.623262,52.0,95.0
1308,253.551262,254.10326200000003,61.0,107.0
1309,253.551262,254.111262,64.0,97.0
1310,254.03126200000003,254.18526200000002,57.0,95.0
1311,252.59126200000003,254.385262,45.0,90.0
1312,254.271262,254.391262,64.0,69.0
1313,254.271262,254.397262,61.0,67.0
1314,254.271262,254.39926200000002,57.0,42.0
1315,253.79126200000002,254.557262,52.0,96.0
1316,254.51126200000002,255.32926200000003,57.0,122.0
1317,254.51126200000002,255.335262,64.0,95.0
1318,254.51126200000002,255.34526200000002,61.0,112.0
1319,254.991262,255.46926200000001,52.0,64.0
1320,255.47126200000002,255.79326200000003,61.0,122.0
1321,255.711262,255.867262,52.0,89.0
1322,254.51126200000002,255.895262,45.0,75.0
1323,255.47126200000002,255.97526200000001,64.0,97.0
1324,255.47126200000002,255.997262,57.0,90.0
1325,255.951262,256.071262,61.0,112.0
1326,256.431262,256.645262,68.0,107.0
1327,256.431262,256.665262,64.0,100.0
1328,256.431262,256.79726200000005,59.0,93.0
1329,256.911262,257.113262,52.0,79.0
1330,257.15126200000003,257.265262,59.0,75.0
1331,257.15126200000003,257.28326200000004,56.0,86.0
1332,256.671262,257.565262,47.0,83.0
1333,257.391262,257.657262,52.0,89.0
1334,257.391262,257.947262,56.0,117.0
1335,257.391262,257.947262,59.0,96.0
1336,257.871262,258.083262,52.0,61.0
1337,256.431262,258.265262,40.0,85.0
1338,257.631262,258.37926200000004,47.0,60.0
1339,258.111262,258.405262,56.0,107.0
1340,258.111262,258.419262,59.0,92.0
1341,258.111262,258.421262,52.0,64.0
1342,259.071262,259.195262,68.0,65.0
1343,259.071262,259.219262,64.0,71.0
1344,259.071262,259.22326200000003,59.0,68.0
1345,258.83126200000004,259.411262,52.0,73.0
1346,259.311262,259.585262,59.0,88.0
1347,259.311262,259.683262,64.0,102.0
1348,259.791262,259.921262,64.0,59.0
1349,259.311262,259.935262,68.0,112.0
1350,258.351262,260.181262,40.0,69.0
1351,258.59126200000003,260.22326200000003,47.0,66.0
1352,259.791262,260.251262,59.0,112.0
1353,260.031262,260.251262,64.0,96.0
1354,259.551262,260.275262,52.0,89.0
1355,260.031262,260.285262,68.0,100.0
1356,260.27126200000004,260.513262,57.0,102.0
1357,260.27126200000004,260.601262,64.0,96.0
1358,260.27126200000004,260.609262,61.0,127.0
1359,260.751262,260.929262,57.0,86.0
1360,260.991262,261.095262,64.0,69.0
1361,260.991262,261.111262,57.0,72.0
1362,260.991262,261.111262,61.0,79.0
1363,260.511262,261.33126200000004,52.0,82.0
1364,261.231262,261.399262,57.0,107.0
1365,261.231262,261.447262,61.0,127.0
1366,261.231262,261.453262,64.0,100.0
1367,261.71126200000003,261.823262,57.0,93.0
1368,260.27126200000004,262.085262,45.0,82.0
1369,261.471262,262.231262,52.0,86.0
1370,261.95126200000004,262.291262,57.0,99.0
1371,261.95126200000004,262.30726200000004,61.0,127.0
1372,261.95126200000004,262.337262,64.0,99.0
1373,262.671262,262.811262,57.0,76.0
1374,262.911262,263.019262,64.0,83.0
1375,262.911262,263.027262,57.0,69.0
1376,262.911262,263.041262,61.0,97.0
1377,262.431262,263.24726200000003,52.0,92.0
1378,263.15126200000003,263.459262,61.0,127.0
1379,262.191262,263.535262,45.0,73.0
1380,263.391262,263.537262,52.0,90.0
1381,263.15126200000003,263.691262,57.0,107.0
1382,263.15126200000003,263.691262,64.0,100.0
1383,263.631262,263.709262,61.0,117.0
1384,263.871262,263.905262,47.0,29.0
1385,264.111262,268.165262,64.0,107.0
1386,264.111262,268.173262,47.0,81.0
1387,264.111262,268.173262,68.0,117.0
1388,264.111262,268.183262,59.0,97.0
1389,264.111262,268.185262,40.0,64.0
1390,264.111262,268.191262,52.0,95.0
