,start,end,pitch,velocity
0,37.3384815875,37.640564920833334,80.0,83.0
1,37.6509815875,37.953064920833334,82.0,80.0
2,37.9634815875,38.265564920833334,85.0,90.0
3,38.2759815875,38.578064920833334,82.0,82.0
4,38.5884815875,38.85700007916667,80.0,82.0
5,38.8662593375,39.69033332916666,82.0,80.0
6,39.6995925875,40.30163350416667,80.0,82.0
7,40.3118375875,40.60775600416667,77.0,76.0
8,40.6179600875,42.04672362916667,80.0,81.0
9,42.0561575875,42.32974237916667,75.0,83.0
10,42.3391763375,42.61276112916667,77.0,80.0
11,42.6221950875,42.89577987916667,80.0,86.0
12,42.9052138375,43.17879862916667,77.0,90.0
13,43.1882325875,44.02785487916667,75.0,86.0
14,44.0372888375,44.87691112916667,73.0,86.0
15,44.886345087500004,45.15992987916667,70.0,69.0
16,45.1693638375,46.619049662500004,73.0,81.0
17,46.628853587500004,46.9131674125,75.0,91.0
18,46.9229713375,47.20728516250001,77.0,90.0
19,47.21708908750001,47.501402912500005,80.0,82.0
20,47.511206837500005,47.7955206625,77.0,90.0
21,47.8053245875,48.66109370416667,75.0,93.0
22,48.6707090875,49.52647820416667,73.0,94.0
23,49.536093587500005,49.81493970416667,75.0,84.0
24,49.8245550875,50.10340120416667,70.0,90.0
25,50.113016587500006,50.680324204166666,68.0,86.0
26,50.6899395875,51.25724720416667,82.0,84.0
27,51.2668625875,51.54570870416667,80.0,80.0
28,51.555324087500004,52.41109320416667,77.0,83.0
29,52.4207085875,52.69955470416667,75.0,86.0
30,52.709170087500006,52.98801620416667,75.0,86.0
31,52.9976315875,53.276477704166666,75.0,90.0
32,53.28609308750001,53.56493920416667,77.0,90.0
33,53.5745545875,53.85340070416667,75.0,95.0
34,53.8630160875,54.43032370416667,73.0,90.0
35,54.4399390875,54.71878520416667,70.0,83.0
36,54.728400587500005,55.872631204166666,75.0,84.0
37,55.882246587500006,56.16109270416667,80.0,93.0
38,56.1707080875,56.449554204166674,82.0,82.0
39,56.4591695875,56.73801570416667,85.0,94.0
40,56.747631087500004,57.02647720416667,82.0,93.0
41,57.0360925875,57.31493870416667,80.0,84.0
42,57.324554087500005,57.89186170416667,82.0,83.0
43,57.901477087500005,58.75724620416667,80.0,84.0
44,58.7668615875,59.045707704166674,77.0,86.0
45,59.0553230875,60.48801520416667,80.0,86.0
46,60.497630587500005,60.77647670416667,75.0,84.0
47,60.7860920875,61.064938204166666,77.0,86.0
48,61.074553587500006,61.35339970416667,80.0,90.0
49,61.3630150875,61.64186120416667,77.0,95.0
50,61.6514765875,62.50724570416667,75.0,93.0
51,62.516861087500004,63.37263020416667,73.0,86.0
52,63.3822455875,63.661091704166665,70.0,94.0
53,63.670707087500006,65.10339920416666,73.0,91.0
54,65.1130145875,65.39186070416667,75.0,91.0
55,65.4014760875,65.68032220416667,77.0,84.0
56,65.6899375875,65.96878370416667,80.0,86.0
57,65.97839908750001,66.25724520416667,77.0,90.0
58,66.2668605875,67.12262970416667,75.0,84.0
59,67.1322450875,67.98801420416667,73.0,91.0
60,67.9976295875,68.27647570416667,75.0,98.0
61,68.2860910875,68.56493720416667,70.0,84.0
62,68.5745525875,69.14186020416668,68.0,90.0
63,69.1514755875,69.43032170416667,80.0,83.0
64,69.4399370875,69.71878320416667,82.0,80.0
65,69.72839858750001,70.00724470416667,80.0,82.0
66,70.0168600875,70.58416770416667,77.0,86.0
67,70.5937830875,70.87262920416667,77.0,94.0
68,70.8822445875,71.16109070416667,75.0,84.0
69,71.17070608750001,71.44955220416666,75.0,86.0
70,71.4591675875,71.73801370416666,75.0,90.0
71,71.7476290875,72.02647520416667,77.0,90.0
72,72.0360905875,72.31493670416667,75.0,91.0
73,72.3245520875,73.18032120416667,73.0,91.0
74,73.1899365875,73.75724420416667,70.0,86.0
75,73.7668595875,76.35339770416667,73.0,84.0
76,76.36301308750001,76.64185920416666,73.0,94.0
77,76.6514745875,76.93032070416666,73.0,84.0
78,76.9399360875,77.21878220416667,73.0,95.0
79,77.2283975875,77.50724370416667,85.0,98.0
80,77.5168590875,77.79570520416667,84.0,95.0
81,77.8053205875,78.08416670416668,84.0,86.0
82,78.0937820875,78.66108970416667,82.0,86.0
83,78.67070508750001,78.94955120416667,82.0,95.0
84,78.95916658750001,79.23801270416666,82.0,93.0
85,79.2476280875,79.52647420416668,80.0,90.0
86,79.5360895875,79.81493570416667,82.0,91.0
87,79.8245510875,80.39185870416667,84.0,100.0
88,80.40147408749999,81.54570470416667,77.0,104.0
89,81.55532008750001,81.83416620416668,77.0,90.0
90,81.8437815875,82.12262770416666,77.0,84.0
91,82.1322430875,82.41108920416667,80.0,90.0
92,82.42070458750001,82.98801220416667,82.0,86.0
93,82.9976275875,83.27647370416668,82.0,81.0
94,83.2860890875,83.56493520416666,82.0,84.0
95,83.5745505875,83.85339670416667,82.0,91.0
96,83.86301208750001,84.14185820416667,80.0,90.0
97,84.15147358749999,84.43031970416666,77.0,91.0
98,84.4399350875,84.71878120416667,75.0,86.0
99,84.7283965875,85.58416570416668,77.0,91.0
100,85.5937810875,85.87262720416666,77.0,84.0
101,85.8822425875,86.16108870416667,75.0,84.0
102,86.1707040875,86.44955020416667,77.0,80.0
103,86.4591655875,86.73801170416667,75.0,84.0
104,86.7476270875,87.02647320416668,70.0,86.0
105,87.0360885875,87.89185770416667,73.0,93.0
106,87.9014730875,88.18031920416666,77.0,98.0
107,88.1899345875,88.46878070416668,75.0,91.0
108,88.4783960875,88.75724220416666,77.0,84.0
109,88.7668575875,89.04570370416667,75.0,94.0
110,89.05531908750001,89.33416520416667,70.0,94.0
111,89.34378058749999,90.19954970416667,73.0,94.0
112,90.2091650875,90.48801120416667,77.0,93.0
113,90.49762658750001,90.77647270416668,75.0,84.0
114,90.7860880875,91.06493420416666,77.0,84.0
115,91.0745495875,91.35339570416667,75.0,84.0
116,91.3630110875,91.64185720416667,70.0,82.0
117,91.6514725875,91.9357864125,82.0,83.0
118,91.9455903375,92.22990416249999,80.0,90.0
119,92.23970808749999,92.52402191249999,80.0,93.0
120,92.53382583749999,92.8181396625,80.0,90.0
121,92.8279435875,93.1122574125,82.0,93.0
122,93.1220613375,93.4063751625,80.0,86.0
123,93.4161790875,93.7004929125,80.0,90.0
124,93.7102968375,94.28872841249999,77.0,86.0
125,94.29853233749999,94.8769639125,75.0,86.0
126,94.8867678375,95.1710816625,80.0,93.0
127,95.1808855875,95.4651994125,80.0,90.0
128,95.4750033375,95.7593171625,80.0,84.0
129,95.7691210875,96.0534349125,85.0,94.0
130,96.0632388375,96.3475526625,84.0,98.0
131,96.35735658749999,96.64167041249999,84.0,95.0
132,96.65147433749999,97.2299059125,82.0,93.0
133,97.2397098375,97.5240236625,82.0,86.0
134,97.5338275875,97.8181414125,82.0,98.0
135,97.8279453375,98.1122591625,80.0,83.0
136,98.1220630875,98.4063769125,82.0,90.0
137,98.4161808375,98.99461241249999,84.0,80.0
138,99.00441633749999,100.16035437916666,77.0,98.0
139,100.1697883375,100.44337312916666,77.0,93.0
140,100.45280708749999,100.72639187916667,77.0,84.0
141,100.7358258375,101.00941062916667,80.0,84.0
142,101.0188445875,101.29242937916666,82.0,84.0
143,101.3018633375,101.85846687916667,82.0,90.0
144,101.8679008375,102.14148562916667,82.0,84.0
145,102.1509195875,102.42450437916666,82.0,93.0
146,102.4339383375,102.70752312916666,80.0,84.0
147,102.71695708749999,102.99054187916667,77.0,90.0
148,102.9999758375,103.27356062916667,75.0,84.0
149,103.2829945875,104.13876370416666,77.0,98.0
150,104.1483790875,104.42722520416666,77.0,84.0
151,104.4368405875,104.71568670416667,75.0,82.0
152,104.7253020875,105.00414820416667,77.0,76.0
153,105.0137635875,105.29260970416667,75.0,81.0
154,105.3022250875,105.58107120416666,70.0,83.0
155,105.5906865875,106.44645570416667,73.0,90.0
156,106.45607108749999,106.73491720416666,77.0,93.0
157,106.7445325875,107.02337870416666,75.0,86.0
158,107.0329940875,107.31184020416667,77.0,80.0
159,107.3214555875,107.60030170416667,80.0,79.0
160,107.6099170875,107.88876320416666,77.0,86.0
161,107.8983785875,108.17722470416666,75.0,83.0
162,108.1868400875,108.46568620416667,73.0,98.0
163,108.4753015875,110.78450216249999,70.0,83.0
164,110.79430608749999,111.3727376625,82.0,93.0
165,111.3825415875,112.2550909125,80.0,84.0
166,112.2648948375,112.54920866249999,77.0,86.0
167,112.55901258749999,113.1490125875,77.0,82.0
168,113.15901258749999,113.74901258749999,75.0,83.0
169,113.7590125875,114.04901258749999,75.0,86.0
170,114.05901258749999,114.9490125875,77.0,86.0
171,114.9590125875,117.0080329125,73.0,76.0
172,139.2802785875,139.55912470416666,80.0,93.0
173,139.5687400875,139.84758620416667,82.0,82.0
174,139.8572015875,140.13604770416666,85.0,94.0
175,140.1456630875,140.42450920416667,82.0,93.0
176,140.43412458749998,140.71297070416665,80.0,84.0
177,140.7225860875,141.28989370416667,82.0,83.0
178,141.29950908749998,142.15527820416668,80.0,84.0
179,142.1648935875,142.44373970416666,77.0,86.0
180,142.4533550875,143.88604720416666,80.0,86.0
181,143.8956625875,144.17450870416667,75.0,84.0
182,144.18412408749998,144.46297020416665,77.0,86.0
183,144.4725855875,144.75143170416666,80.0,90.0
184,144.7610470875,145.03989320416667,77.0,95.0
185,145.0495085875,145.90527770416665,75.0,93.0
186,145.9148930875,146.77066220416665,73.0,86.0
187,146.7802775875,147.05912370416667,70.0,94.0
188,147.0687390875,148.50143120416666,73.0,91.0
189,148.5110465875,148.78989270416668,75.0,91.0
190,148.7995080875,149.07835420416666,77.0,84.0
191,149.0879695875,149.36681570416667,80.0,86.0
192,149.3764310875,149.65527720416665,77.0,90.0
193,149.6648925875,150.52066170416666,75.0,84.0
194,150.5302770875,151.38604620416666,73.0,91.0
195,151.3956615875,151.67450770416667,75.0,98.0
196,151.68412308749998,151.96296920416665,70.0,84.0
197,151.9725845875,152.53989220416668,68.0,90.0
198,152.5495075875,152.82835370416666,80.0,83.0
199,152.8379690875,153.11681520416667,82.0,80.0
200,153.1264305875,153.40527670416665,80.0,82.0
201,153.4148920875,153.98219970416665,77.0,86.0
202,154.2802765875,154.55912270416667,75.0,84.0
203,154.56873808749998,154.84758420416665,75.0,86.0
204,154.8571995875,155.13604570416666,75.0,90.0
205,155.1456610875,155.42450720416667,77.0,90.0
206,155.43412258749999,155.71296870416666,75.0,91.0
207,156.2995070875,156.86681470416667,70.0,86.0
208,156.0110455875,156.86681470416667,73.0,91.0
209,156.5879685875,156.86681470416667,73.0,84.0
210,159.7610450875,160.03989120416668,73.0,94.0
211,160.0495065875,160.32835270416666,73.0,84.0
212,160.3379680875,160.61681420416664,73.0,95.0
213,160.62642958749998,160.90527570416666,85.0,98.0
214,160.9148910875,161.19373720416667,84.0,95.0
215,161.20335258749998,161.48219870416665,84.0,86.0
216,161.4918140875,162.05912170416667,82.0,86.0
217,162.06873708749998,162.34758320416665,82.0,95.0
218,162.3571985875,162.63604470416666,82.0,93.0
219,162.6456600875,162.92450620416668,80.0,90.0
220,162.9341215875,163.21296770416666,82.0,91.0
221,163.2225830875,163.78989070416665,84.0,100.0
222,163.7995060875,164.94373670416667,77.0,104.0
223,164.95335208749998,165.23219820416665,77.0,90.0
224,165.2418135875,165.52065970416666,77.0,84.0
225,165.5302750875,165.80912120416667,80.0,90.0
226,165.81873658749998,166.38604420416667,82.0,86.0
227,166.3956595875,166.67450570416668,82.0,81.0
228,166.6841210875,166.96296720416666,82.0,84.0
229,166.9725825875,167.25142870416667,82.0,91.0
230,167.2610440875,167.53989020416665,80.0,90.0
231,167.5495055875,167.82835170416666,77.0,91.0
232,167.8379670875,168.11681320416665,75.0,86.0
233,168.1264285875,168.98219770416665,77.0,91.0
234,168.9918130875,169.27065920416666,77.0,84.0
235,169.2802745875,169.55912070416667,75.0,84.0
236,169.56873608749999,169.84758220416666,77.0,80.0
237,169.8571975875,170.13604370416667,75.0,84.0
238,170.1456590875,170.42450520416668,70.0,86.0
239,170.4341205875,171.28988970416665,73.0,93.0
240,171.2995050875,171.57835120416667,77.0,98.0
241,171.58796658749998,171.86681270416665,75.0,91.0
242,171.8764280875,172.15527420416666,77.0,84.0
243,172.1648895875,172.44373570416667,75.0,94.0
244,172.45335108749998,172.73219720416665,70.0,94.0
245,172.7418125875,173.59758170416666,73.0,94.0
246,173.6071970875,173.88604320416667,77.0,93.0
247,173.8956585875,174.17450470416665,75.0,84.0
248,174.1841200875,174.46296620416666,77.0,84.0
249,174.4725815875,174.75142770416664,75.0,84.0
250,174.76104308749998,175.03988920416666,70.0,82.0
251,175.0495045875,175.3338184125,82.0,83.0
252,175.3436223375,175.6279361625,80.0,90.0
253,175.6377400875,175.9220539125,80.0,93.0
254,175.9318578375,176.2161716625,80.0,90.0
255,176.2259755875,176.5102894125,82.0,93.0
256,176.5200933375,176.80440716249998,80.0,86.0
257,176.81421108749998,177.09852491249998,80.0,90.0
258,177.10832883749998,177.6867604125,77.0,86.0
259,177.6965643375,178.2749959125,75.0,86.0
260,178.2847998375,178.5691136625,80.0,93.0
261,178.5789175875,178.8632314125,80.0,90.0
262,178.8730353375,179.1573491625,80.0,84.0
263,179.1671530875,179.4514669125,85.0,94.0
264,179.4612708375,179.7455846625,84.0,98.0
265,179.7553885875,180.03423470416666,84.0,95.0
266,180.0438500875,180.61115770416666,82.0,93.0
267,180.6207730875,180.89961920416667,82.0,86.0
268,180.90923458749998,181.18808070416665,82.0,98.0
269,181.1976960875,181.47654220416666,80.0,83.0
270,181.4861575875,181.76500370416667,82.0,90.0
271,181.77461908749999,182.34192670416667,84.0,80.0
272,182.35154208749998,183.49577270416665,77.0,98.0
273,183.5053880875,183.78423420416667,77.0,93.0
274,183.7938495875,184.07269570416665,77.0,84.0
275,184.0823110875,184.36115720416666,80.0,84.0
276,184.3707725875,184.64961870416667,82.0,84.0
277,184.65923408749998,185.22654170416666,82.0,90.0
278,185.2361570875,185.51500320416665,82.0,84.0
279,185.5246185875,185.80346470416666,82.0,93.0
280,185.8130800875,186.09192620416667,80.0,84.0
281,186.10154158749998,186.38038770416665,77.0,90.0
282,186.3900030875,186.66884920416666,75.0,84.0
283,186.6784645875,187.53423370416667,77.0,98.0
284,187.5438490875,187.82269520416665,77.0,84.0
285,187.8323105875,188.11115670416666,75.0,82.0
286,188.1207720875,188.39961820416667,77.0,76.0
287,188.40923358749998,188.68807970416665,75.0,81.0
288,188.6976950875,188.97654120416667,70.0,83.0
289,188.9861565875,189.84192570416667,73.0,90.0
290,189.85154108749998,190.13038720416665,77.0,93.0
291,190.1400025875,190.41884870416666,75.0,86.0
292,190.4284640875,190.70731020416667,77.0,80.0
293,190.7169255875,190.99577170416666,80.0,79.0
294,191.0053870875,191.28423320416667,77.0,86.0
295,191.29384858749998,191.57269470416665,75.0,83.0
296,191.5823100875,191.86115620416666,73.0,98.0
297,191.8707715875,194.16884820416666,70.0,83.0
298,194.1784635875,194.74577120416666,82.0,93.0
299,194.7553865875,195.61115570416666,80.0,84.0
300,195.6207710875,195.89961720416665,77.0,86.0
301,195.9092325875,196.47654020416667,77.0,82.0
302,196.48615558749998,197.05346320416666,75.0,83.0
303,197.0630785875,197.34192470416667,75.0,86.0
304,197.35154008749998,198.20730920416665,77.0,86.0
305,198.2169245875,200.22653970416667,73.0,76.0
306,224.5938445875,224.8838445875,86.0,94.0
307,224.89384458749998,225.18384458749998,86.0,94.0
308,225.1938445875,225.4838445875,85.0,90.0
309,225.49384458749998,225.7838445875,86.0,84.0
310,225.7938445875,226.08384458749998,85.0,93.0
311,226.0938445875,226.37269070416667,85.0,86.0
312,226.3823060875,226.94961370416667,83.0,86.0
313,226.9592290875,227.23807520416668,83.0,95.0
314,227.2476905875,227.52653670416666,83.0,93.0
315,227.5361520875,227.81499820416667,81.0,90.0
316,227.8246135875,228.10345970416668,83.0,91.0
317,228.1130750875,228.68038270416668,85.0,100.0
318,228.6899980875,229.83422870416666,78.0,104.0
319,229.8438440875,230.12269020416667,78.0,90.0
320,230.1323055875,230.41115170416666,78.0,84.0
321,230.4207670875,230.69961320416667,81.0,90.0
322,230.7092285875,231.27653620416666,83.0,86.0
323,231.2861515875,231.56499770416667,83.0,81.0
324,231.5746130875,231.85345920416665,83.0,84.0
325,231.8630745875,232.14192070416667,83.0,91.0
326,232.1515360875,232.43038220416668,81.0,90.0
327,232.4399975875,232.71884370416666,78.0,91.0
328,232.7284590875,233.00730520416667,76.0,86.0
329,233.0169205875,233.87268970416667,78.0,91.0
330,233.88230508750001,234.16115120416666,78.0,84.0
331,234.1707665875,234.44961270416667,76.0,84.0
332,234.4592280875,234.73807420416668,78.0,80.0
333,234.7476895875,235.02653570416666,76.0,84.0
334,235.0361510875,235.31499720416667,71.0,86.0
335,235.3246125875,236.18038170416668,74.0,93.0
336,236.1899970875,236.46884320416666,78.0,98.0
337,236.4784585875,236.75730470416667,76.0,91.0
338,236.7669200875,237.04576620416668,78.0,84.0
339,237.0553815875,237.33422770416666,76.0,94.0
340,237.3438430875,237.62268920416668,71.0,94.0
341,237.6323045875,238.48807370416668,74.0,94.0
342,238.4976890875,238.77653520416666,78.0,93.0
343,238.7861505875,239.06499670416667,76.0,84.0
344,239.0746120875,239.35345820416666,78.0,84.0
345,239.3630735875,239.64191970416667,76.0,84.0
346,239.6515350875,239.93038120416668,71.0,82.0
347,239.9399965875,240.2243104125,83.0,83.0
348,240.2341143375,240.5184281625,81.0,90.0
349,240.5282320875,240.81254591249998,81.0,93.0
350,240.82234983749998,241.10666366249998,81.0,90.0
351,241.11646758749998,241.40078141249998,83.0,93.0
352,241.41058533749998,241.69489916249998,81.0,86.0
353,241.70470308749998,241.98901691249998,81.0,90.0
354,241.99882083749998,242.5772524125,78.0,86.0
355,242.5870563375,243.1654879125,76.0,86.0
356,243.1752918375,243.4596056625,86.0,93.0
357,243.4694095875,243.7537234125,86.0,90.0
358,243.7635273375,244.0478411625,85.0,84.0
359,244.0576450875,244.3419589125,86.0,94.0
360,244.3517628375,244.6360766625,85.0,98.0
361,244.6458805875,244.92472670416666,85.0,95.0
362,244.9343420875,245.50164970416665,83.0,93.0
363,245.5112650875,245.79011120416666,83.0,86.0
364,245.79972658749998,246.07857270416665,83.0,98.0
365,246.0881880875,246.36703420416666,81.0,83.0
366,246.3766495875,246.65549570416667,83.0,90.0
367,246.66511108749998,247.23241870416666,85.0,80.0
368,247.24203408749997,248.38626470416665,78.0,98.0
369,248.3958800875,248.67472620416666,78.0,93.0
370,248.6843415875,248.96318770416664,78.0,84.0
371,248.97280308749998,249.25164920416665,81.0,84.0
372,249.2612645875,249.54011070416666,83.0,84.0
373,249.54972608749998,250.11703370416666,83.0,90.0
374,250.1266490875,250.40549520416664,83.0,84.0
375,250.41511058749998,250.69395670416665,83.0,93.0
376,250.7035720875,250.98241820416666,81.0,84.0
377,250.99203358749998,251.27087970416665,78.0,90.0
378,251.2804950875,251.55934120416666,76.0,84.0
379,251.5689565875,252.42472570416666,78.0,98.0
380,252.4343410875,252.71318720416664,78.0,84.0
381,252.72280258749998,253.00164870416666,76.0,82.0
382,253.0112640875,253.29011020416667,78.0,76.0
383,253.29972558749998,253.57857170416665,76.0,81.0
384,253.5881870875,253.86703320416666,71.0,83.0
385,253.8766485875,254.73241770416666,74.0,90.0
386,254.74203308749998,255.02087920416665,78.0,93.0
387,255.0304945875,255.30934070416666,76.0,86.0
388,255.3189560875,255.59780220416667,78.0,80.0
389,255.60741758749998,255.88626370416665,81.0,79.0
390,255.8958790875,256.17472520416663,78.0,86.0
391,256.1843405875,256.4631867041667,76.0,83.0
392,256.4728020875,256.75164820416666,74.0,98.0
393,256.76126358749997,259.05934020416663,71.0,83.0
394,260.51126308749997,260.73241690416666,71.0,84.0
395,260.7997245875,261.5088591083333,69.0,73.0
396,261.3766475875,261.63385909166664,81.0,48.0
397,261.6651090875,261.99924365833334,83.0,84.0
398,261.9535705875,262.89587815416667,81.0,84.0
399,262.8189550875,263.2997242541667,78.0,84.0
400,263.1074165875,263.2997242541667,78.0,84.0
401,263.6843395875,264.50164717083334,76.0,84.0
402,264.26126258749997,264.50164717083334,76.0,83.0
403,264.5497240875,264.8093394375,78.0,83.0
404,265.41510858749996,265.6747239375,74.0,83.0
405,265.7035700875,265.9631854375,74.0,83.0
