,start,end,pitch,velocity
0,1.6225495875,1.8827537125,37.0,84.0
1,1.9286720874999999,2.2322435666666665,49.0,75.0
2,2.2347945874999997,2.36489665,85.0,84.0
3,2.2347945874999997,2.3776517541666666,77.0,77.0
4,2.5409170875,2.6837742541666665,75.0,78.0
5,2.5409170875,2.696529358333333,84.0,86.0
6,3.1531620875,3.2577539416666665,72.0,74.0
7,3.1531620875,3.2883661916666664,80.0,82.0
8,2.5409170875,3.614896858333333,56.0,73.0
9,2.2347945874999997,3.6404070666666666,53.0,72.0
10,4.0715295875,4.511870379166666,42.0,80.0
11,4.4124385875,4.688006695833333,49.0,79.0
12,4.7533475874999995,5.0516429625,56.0,72.0
13,3.7654070875,6.285775556249999,73.0,76.0
14,3.7654070875,6.31016580625,68.0,63.0
15,5.435165587499999,6.55406830625,61.0,73.0
16,5.094256587499999,6.575409774999999,58.0,47.0
17,3.7654070875,7.299090858333333,77.0,76.0
18,7.2047030874999995,7.299090858333333,77.0,83.0
19,6.8985805875,7.3577643375,37.0,94.0
20,7.2047030874999995,7.472560274999999,44.0,81.0
21,7.510825587499999,7.658784795833333,49.0,79.0
22,7.510825587499999,7.806744004166666,77.0,57.0
23,7.510825587499999,7.806744004166666,85.0,86.0
24,7.816948087499999,8.413070587499998,75.0,90.0
25,7.816948087499999,8.413070587499998,84.0,94.0
26,7.816948087499999,8.695570587499999,53.0,57.0
27,8.4230705875,8.723070587499999,56.0,76.0
28,8.723070587499999,8.8155705875,61.0,80.0
29,8.4230705875,9.0130705875,77.0,95.0
30,8.4230705875,9.0130705875,85.0,96.0
31,9.323070587499998,9.884240912499997,42.0,83.0
32,9.642219587499998,9.900198362499998,49.0,82.0
33,9.0230705875,9.950730287499999,75.0,82.0
34,9.0230705875,9.950730287499999,84.0,86.0
35,9.961368587499999,10.269879287499998,73.0,69.0
36,9.961368587499999,10.269879287499998,80.0,71.0
37,9.961368587499999,10.373602712499999,54.0,71.0
38,10.599666587499998,10.9081772875,61.0,73.0
39,10.9188155875,11.227326287499999,66.0,73.0
40,11.237964587499999,11.546475287499998,70.0,73.0
41,11.557113587499998,11.865624287499998,77.0,73.0
42,11.876262587499998,13.442858587499998,73.0,73.0
43,10.280517587499999,13.442858587499998,80.0,80.0
44,14.352858587499998,14.6253585875,42.0,82.0
45,14.652858587499999,14.9703585875,54.0,82.0
46,14.352858587499998,15.037858587499999,61.0,83.0
47,14.352858587499998,15.1828585875,66.0,83.0
48,14.352858587499998,15.2128585875,70.0,84.0
49,14.9528585875,15.332858587499999,56.0,81.0
50,15.5528585875,15.727386816666666,61.0,95.0
51,15.8358773375,16.04106593125,66.0,90.0
52,15.252858587499999,16.107103639583332,58.0,90.0
53,16.118896087499998,16.36889598333333,68.0,86.0
54,16.684933587499998,17.253561237499998,65.0,59.0
55,16.684933587499998,17.305031843749997,68.0,84.0
56,16.401914837499998,17.317286749999997,73.0,86.0
57,17.273169087499998,17.5966986125,61.0,96.0
58,17.5672868375,17.738855524999998,63.0,91.0
59,17.5672868375,17.770718281249998,68.0,86.0
60,17.861404587499997,18.009842087499997,65.0,82.0
61,17.861404587499997,18.114008754166665,68.0,80.0
62,18.173904587499997,18.31973792083333,65.0,83.0
63,18.173904587499997,18.387446254166665,73.0,86.0
64,16.684933587499998,18.61661292083333,49.0,77.0
65,18.486404587499997,18.642654587499997,65.0,82.0
66,18.486404587499997,18.64786292083333,61.0,78.0
67,16.9790513375,18.699946254166665,56.0,79.0
68,18.486404587499997,18.759842087499997,72.0,84.0
69,18.798904587499997,18.90567542083333,65.0,79.0
70,19.111404587499997,19.356687504166665,42.0,91.0
71,19.394423337499997,19.701026983333332,54.0,75.0
72,18.798904587499997,19.788291097916662,73.0,91.0
73,19.111404587499997,19.809517504166664,61.0,90.0
74,19.111404587499997,19.85432880625,66.0,84.0
75,19.111404587499997,19.880272191666663,70.0,83.0
76,20.243479587499998,20.401642879166666,61.0,93.0
77,19.677442087499998,20.68990823333333,56.0,75.0
78,20.5496020875,20.7485817125,66.0,90.0
79,19.960460837499998,20.75878579583333,58.0,83.0
80,20.8557245875,21.047051149999998,68.0,80.0
81,21.161847087499996,21.41694917083333,70.0,78.0
82,21.467969587499997,21.898257991666664,65.0,82.0
83,21.467969587499997,21.948738754166662,73.0,90.0
84,21.467969587499997,22.00402720833333,46.0,83.0
85,21.756431087499998,22.044892587499998,53.0,76.0
86,22.044892587499998,22.18431564583333,65.0,81.0
87,22.044892587499998,22.20595025833333,72.0,84.0
88,22.044892587499998,22.383834849999996,58.0,55.0
89,22.6218155875,22.74681555625,65.0,83.0
90,22.6218155875,22.79681554375,73.0,94.0
91,22.3333540875,23.05792658958333,60.0,78.0
92,22.6218155875,23.210704329166667,61.0,79.0
93,23.2884820875,23.441259827083332,65.0,81.0
94,23.2884820875,23.482926483333333,70.0,82.0
95,23.6218153375,23.691259764583332,65.0,45.0
96,23.6218153375,23.76348196875,73.0,82.0
97,23.9551485875,24.202370747916664,72.0,81.0
98,23.9551485875,24.34681515625,65.0,72.0
99,23.9551485875,24.438481799999998,46.0,75.0
100,24.288481837499997,24.541259552083332,53.0,75.0
101,24.288481837499997,24.660703966666667,58.0,63.0
102,24.288481837499997,24.74681505625,72.0,79.0
103,25.288481587499998,25.4784815875,65.0,68.0
104,24.9551483375,25.5959815875,61.0,79.0
105,24.6218150875,25.6309815875,60.0,44.0
106,25.5884815875,25.8259815875,70.0,79.0
107,25.8884815875,26.043481587499997,73.0,83.0
108,26.188481587499997,26.4209815875,68.0,80.0
109,26.488481587499997,27.070981587499997,42.0,83.0
110,26.788481587499998,27.113481587499997,49.0,80.0
111,27.0884815875,27.4309815875,54.0,83.0
112,26.488481587499997,27.7009815875,70.0,79.0
113,26.488481587499997,27.793481587499997,66.0,79.0
114,26.488481587499997,27.813481587499997,61.0,84.0
115,27.3884815875,28.065981587499998,56.0,78.0
116,27.688481587499997,28.090981587499996,58.0,83.0
117,27.988481587499997,28.198481587499998,61.0,90.0
118,28.288481587499998,28.495981587499998,66.0,84.0
119,28.5884815875,28.745981587499998,68.0,78.0
120,28.8884815875,29.3734815875,44.0,84.0
121,29.188481587499997,29.4359815875,51.0,80.0
122,29.488481587499997,29.848481587499997,56.0,84.0
123,28.8884815875,30.0809815875,72.0,90.0
124,28.8884815875,30.140981587499997,68.0,79.0
125,28.8884815875,30.1884815875,63.0,83.0
126,30.3884815875,30.778481587499996,63.0,75.0
127,30.6884815875,31.0484815875,68.0,78.0
128,30.988481587499997,31.363481587499997,72.0,78.0
129,31.288481587499998,33.0559815875,75.0,81.0
130,30.0884815875,35.3284815875,60.0,84.0
131,29.788481587499998,35.3459815875,58.0,76.0
132,38.5884815875,39.167185233333335,63.0,68.0
133,38.5884815875,39.17875930625,68.0,69.0
134,38.5884815875,39.183388935416666,65.0,68.0
135,38.5884815875,39.19727782291667,73.0,71.0
136,39.144037087499996,39.85010281666666,61.0,50.0
137,39.4218148375,40.38581719166667,63.0,69.0
138,39.6995925875,40.51336823333333,68.0,79.0
139,38.5884815875,40.6638784625,49.0,75.0
140,38.8662593375,40.945308993750004,56.0,57.0
141,40.9240825875,41.35568618125,68.0,71.0
142,40.9240825875,41.372195608333335,65.0,71.0
143,40.9240825875,41.442950295833334,63.0,59.0
144,40.9240825875,41.55851628541667,49.0,70.0
145,41.2071013375,41.61040305625,56.0,72.0
146,41.4901200875,41.61276154583334,61.0,67.0
147,41.7731388375,42.065591545833335,73.0,80.0
148,42.0561575875,42.40285555625,63.0,75.0
149,42.0561575875,42.42879894166667,68.0,78.0
150,42.3391763375,42.68115732708333,60.0,62.0
151,42.6221950875,42.86747800416667,63.0,76.0
152,42.9052138375,43.105685452083335,68.0,73.0
153,42.0561575875,43.11040243125,48.0,84.0
154,43.1882325875,43.68823237916667,46.0,75.0
155,43.4712513375,43.73776066041667,53.0,73.0
156,43.1882325875,43.73776066041667,61.0,69.0
157,43.1882325875,43.97125112916667,65.0,74.0
158,43.754270087500004,44.08445862916667,56.0,57.0
159,43.1882325875,44.228326493750004,68.0,53.0
160,44.320307587500004,44.66228857708334,61.0,72.0
161,44.0372888375,44.73304326458334,58.0,63.0
162,44.6033263375,44.95238279583334,65.0,62.0
163,44.886345087500004,45.07974123333334,68.0,69.0
164,45.1693638375,45.40049581666667,72.0,62.0
165,45.452382587500004,46.11414752500001,68.0,58.0
166,45.452382587500004,46.12885341250001,73.0,73.0
167,45.452382587500004,46.17787303750001,65.0,59.0
168,45.452382587500004,46.273461306250006,46.0,72.0
169,46.628853587500004,46.9719909625,72.0,79.0
170,46.628853587500004,46.97934390625,68.0,75.0
171,46.628853587500004,47.00875568125,63.0,76.0
172,46.9229713375,47.305324412500006,56.0,59.0
173,47.21708908750001,47.521010762500005,68.0,76.0
174,46.628853587500004,47.780814775,44.0,79.0
175,47.8053245875,48.29330529166667,42.0,79.0
176,47.511206837500005,48.47359372916667,73.0,81.0
177,47.8053245875,48.48080526666667,70.0,71.0
178,47.8053245875,48.485612958333334,61.0,73.0
179,47.8053245875,48.55292064166667,66.0,76.0
180,48.382247587500004,48.73801677083333,54.0,51.0
181,48.959170587500005,49.6082089625,66.0,79.0
182,48.959170587500005,49.62022819166667,70.0,72.0
183,48.959170587500005,49.622632037500004,61.0,72.0
184,48.6707090875,49.644266650000006,56.0,68.0
185,49.536093587500005,49.7091704875,58.0,57.0
186,50.113016587500006,50.50003576666667,68.0,79.0
187,50.113016587500006,50.502439612500005,63.0,76.0
188,50.6899395875,51.05532415416667,63.0,69.0
189,50.4014780875,51.55292024166667,60.0,79.0
190,51.2668625875,51.83176635833334,63.0,7.0
191,50.9784010875,51.850997125000006,68.0,72.0
192,50.113016587500006,51.94955480416667,53.0,76.0
193,51.8437855875,52.4207085875,60.0,77.0
194,52.4207085875,52.819746995833334,73.0,60.0
195,52.4207085875,52.82936237916667,61.0,78.0
196,52.4207085875,52.82936237916667,66.0,78.0
197,52.4207085875,52.82936237916667,70.0,75.0
198,52.9976315875,53.33417000416667,61.0,68.0
199,52.709170087500006,53.65868919166667,58.0,72.0
200,53.5745545875,53.97118915,66.0,79.0
201,53.5745545875,53.99041991666667,73.0,73.0
202,53.5745545875,53.9928237625,61.0,77.0
203,53.28609308750001,53.9928237625,70.0,68.0
204,53.8630160875,54.20676604166667,58.0,72.0
205,52.4207085875,54.254842958333334,51.0,80.0
206,54.151477587500004,54.48080446666667,61.0,61.0
207,54.4399390875,54.644265983333334,66.0,75.0
208,54.728400587500005,55.192342833333335,66.0,62.0
209,54.728400587500005,55.254842825000004,61.0,76.0
210,54.728400587500005,55.276477437500006,70.0,73.0
211,55.882246587500006,56.038496566666666,56.0,60.0
212,55.882246587500006,56.20195808333334,66.0,79.0
213,55.882246587500006,56.22599654166667,61.0,77.0
214,55.882246587500006,56.2572465375,58.0,69.0
215,56.1707080875,56.43993882083333,56.0,57.0
216,54.728400587500005,56.495227275000005,44.0,73.0
217,56.4591695875,56.69955417083334,58.0,76.0
218,56.747631087500004,57.09378488750001,48.0,82.0
219,57.0360925875,57.42551561250001,63.0,81.0
220,57.0360925875,57.432727150000005,61.0,77.0
221,57.0360925875,57.490419450000005,65.0,76.0
222,57.901477087500005,58.3918616375,61.0,56.0
223,58.1899385875,58.85099619166667,65.0,67.0
224,58.1899385875,58.87022695833333,63.0,62.0
225,58.1899385875,58.89907310833334,68.0,73.0
226,57.0360925875,59.08897692916667,49.0,84.0
227,58.7668615875,59.11782307916667,61.0,35.0
228,59.0553230875,59.298111516666665,56.0,55.0
229,59.343784587500004,59.81734221666667,68.0,77.0
230,59.343784587500004,59.8269576,63.0,69.0
231,59.343784587500004,60.0360921875,49.0,73.0
232,59.920707587500004,60.103399870833336,61.0,84.0
233,59.6322460875,60.43032290416667,56.0,75.0
234,60.2091690875,60.4543613625,68.0,82.0
235,60.497630587500005,60.94234206666667,72.0,86.0
236,60.7860920875,61.06253435833334,56.0,71.0
237,60.497630587500005,61.19234203333333,63.0,81.0
238,61.074553587500006,61.25964971666667,60.0,61.0
239,61.074553587500006,61.264457408333335,75.0,80.0
240,60.497630587500005,61.58657275,48.0,81.0
241,61.3630150875,61.646668895833336,72.0,79.0
242,61.6514765875,62.17551497916667,46.0,77.0
243,61.9399380875,62.209168820833334,53.0,75.0
244,62.2283995875,62.596188000000005,58.0,53.0
245,61.6514765875,62.83897642916667,65.0,74.0
246,61.6514765875,62.870226425,68.0,50.0
247,61.6514765875,62.98320717916667,73.0,84.0
248,62.516861087500004,63.3245532875,60.0,73.0
249,62.8053225875,63.3245532875,61.0,76.0
250,63.093784087500005,63.39426481666667,65.0,54.0
251,63.3822455875,63.608207095833336,70.0,72.0
252,63.9591685875,64.42551467916667,73.0,68.0
253,63.9591685875,64.61782234583333,65.0,52.0
254,64.82455308750001,65.16109150416668,68.0,72.0
255,64.82455308750001,65.19955303750001,63.0,50.0
256,65.1130145875,65.42551454583334,75.0,79.0
257,65.1130145875,65.80051449583334,44.0,78.0
258,65.4014760875,65.8197452625,56.0,62.0
259,65.6899375875,65.9351298625,63.0,78.0
260,65.97839908750001,66.24282212916667,68.0,75.0
261,66.2668605875,66.99282202916666,66.0,76.0
262,66.2668605875,66.99762972083333,73.0,58.0
263,66.2668605875,67.00484125833333,61.0,78.0
264,66.2668605875,67.03128356250001,70.0,75.0
265,66.2668605875,67.50484119166667,54.0,58.0
266,67.4207065875,67.7091680875,73.0,38.0
267,67.4207065875,67.73801423750001,61.0,68.0
268,67.4207065875,67.73801423750001,66.0,75.0
269,67.4207065875,67.76205269583333,70.0,59.0
270,66.2668605875,67.90387960000001,42.0,73.0
271,67.9976295875,68.19714879166668,61.0,72.0
272,68.2860910875,68.437533375,73.0,78.0
273,67.7091680875,68.57936027916666,54.0,63.0
274,68.5745525875,69.13945635833333,72.0,80.0
275,68.5745525875,69.26926403333334,68.0,74.0
276,68.5745525875,69.27887941666667,53.0,83.0
277,68.5745525875,69.27887941666667,63.0,75.0
278,70.0168600875,70.3053215875,72.0,79.0
279,70.8822445875,71.21637915833334,66.0,67.0
280,70.8822445875,71.23080223333334,61.0,68.0
281,70.8822445875,71.25964838333334,70.0,63.0
282,71.4591675875,71.67791755833333,61.0,82.0
283,70.8822445875,71.83416753750001,51.0,72.0
284,71.17070608750001,71.89426368333334,58.0,69.0
285,71.7476290875,71.91589829583333,66.0,82.0
286,72.0360905875,72.4399366875,61.0,75.0
287,72.0360905875,72.67551357916668,70.0,78.0
288,72.0360905875,72.76926356666667,56.0,79.0
289,72.9014750875,73.09137890833334,68.0,58.0
290,73.1899365875,73.70435959583334,66.0,80.0
291,73.7668595875,74.15147492083334,61.0,56.0
292,74.0553210875,74.3654172,63.0,69.0
293,74.0553210875,74.56253255833333,68.0,76.0
294,73.1899365875,74.88705174583333,49.0,78.0
295,74.6322440875,74.96878250416667,61.0,55.0
296,73.47839808750001,75.2235901625,56.0,68.0
297,74.92070558750001,75.27166707916666,63.0,75.0
298,75.2091670875,75.5192632,65.0,73.0
299,75.4976285875,75.83897469583334,63.0,75.0
300,75.4976285875,75.89185930416667,68.0,75.0
301,76.0745515875,76.25003233333334,61.0,68.0
302,75.4976285875,76.29330155833334,49.0,75.0
303,75.7860900875,76.50483999166667,56.0,68.0
304,76.36301308750001,76.51205152916667,63.0,68.0
305,76.6514745875,77.06012837916667,63.0,73.0
306,76.6514745875,77.10820529583333,68.0,71.0
307,76.6514745875,77.30532065416666,48.0,79.0
308,76.9399360875,77.35339757083334,56.0,75.0
309,77.2283975875,77.35339757083334,60.0,72.0
310,77.8053205875,78.158685925,73.0,90.0
311,77.8053205875,78.2091666875,46.0,77.0
312,77.8053205875,78.24282052916666,65.0,76.0
313,78.0937820875,78.29089744583334,72.0,80.0
314,78.0937820875,78.34378205416667,53.0,76.0
315,78.3822435875,78.73801277083334,58.0,53.0
316,78.3822435875,78.90628197916666,73.0,82.0
317,78.3822435875,79.024070425,65.0,74.0
318,78.67070508750001,79.08416657083333,60.0,78.0
319,79.2476280875,79.50003190000001,65.0,69.0
320,78.95916658750001,79.51685882083333,61.0,82.0
321,79.5360895875,79.774070325,72.0,79.0
322,79.5360895875,79.78128186250001,60.0,70.0
323,79.5360895875,79.80051262916666,65.0,25.0
324,79.8245510875,79.9399356875,58.0,70.0
325,79.8245510875,80.0408972125,73.0,80.0
326,80.11301258750001,80.52166637916667,44.0,76.0
327,80.40147408749999,80.66108943750001,53.0,55.0
328,80.11301258750001,80.84618556666666,63.0,72.0
329,80.11301258750001,80.9207047875,68.0,71.0
330,80.6899355875,81.04810861666667,56.0,57.0
331,80.11301258750001,81.18993552083333,72.0,83.0
332,81.2668585875,81.71157006666667,63.0,78.0
333,80.9783970875,81.77407005833334,60.0,75.0
334,81.55532008750001,81.88945465833334,72.0,83.0
335,81.8437815875,82.11301232083333,73.0,83.0
336,82.1322430875,82.3774353625,68.0,77.0
337,82.42070458750001,82.87022375833334,42.0,79.0
338,82.7091660875,83.03368527500001,49.0,77.0
339,82.42070458750001,83.20916602083334,61.0,72.0
340,82.42070458750001,83.24762755416667,66.0,77.0
341,82.42070458750001,83.26445447500001,70.0,71.0
342,83.2860890875,83.45195445,51.0,17.0
343,82.9976275875,83.49041598333334,54.0,57.0
344,83.5745505875,83.88705054583333,63.0,76.0
345,83.5745505875,84.04570437083333,44.0,76.0
346,83.5745505875,84.09137744166667,68.0,81.0
347,83.86301208750001,84.1370505125,51.0,78.0
348,84.15147358749999,84.418300475,61.0,76.0
349,84.15147358749999,84.45676200833333,66.0,84.0
350,84.15147358749999,84.59618506666666,56.0,63.0
351,84.4399350875,84.72118505,58.0,69.0
352,84.7283965875,85.05531962083333,68.0,76.0
353,84.7283965875,85.07214654166667,63.0,75.0
354,84.7283965875,85.30531958750001,65.0,80.0
355,85.30531958750001,85.58656955000001,61.0,71.0
356,85.5937810875,85.62503108333334,63.0,47.0
357,84.7283965875,85.63705031250001,49.0,82.0
358,85.0168580875,85.8678195125,56.0,76.0
359,85.5937810875,85.87983874166667,65.0,80.0
360,85.8822425875,86.3582040625,68.0,80.0
361,85.8822425875,86.44955020416667,63.0,78.0
362,86.4591655875,86.66349248333333,60.0,80.0
363,85.8822425875,86.69955017083333,48.0,76.0
364,86.1707040875,86.71397324583333,56.0,75.0
365,86.7476270875,86.98801167083334,68.0,76.0
366,87.0360885875,87.216377025,61.0,83.0
367,87.0360885875,87.53128082916666,46.0,80.0
368,87.3245500875,87.5769539,53.0,76.0
369,87.61301158750001,87.93512692916667,58.0,46.0
370,87.9014730875,88.03368460833335,65.0,74.0
371,87.9014730875,88.09378075416666,73.0,84.0
372,87.9014730875,88.2115692,60.0,71.0
373,88.1899345875,88.31493457083334,63.0,76.0
374,88.1899345875,88.37503071666667,72.0,81.0
375,88.1899345875,88.45435762916667,61.0,57.0
376,88.4783960875,88.61060760833334,73.0,82.0
377,88.4783960875,88.62022299166667,65.0,72.0
378,88.4783960875,88.70676144166667,60.0,59.0
379,88.7668575875,88.93512679583333,72.0,78.0
380,88.7668575875,89.01685755416668,58.0,54.0
381,89.05531908750001,89.149069075,53.0,79.0
382,89.05531908750001,89.2572421375,68.0,76.0
383,89.34378058749999,89.7043574625,42.0,77.0
384,89.34378058749999,89.81493437083333,61.0,71.0
385,89.6322420875,89.90387666666666,49.0,73.0
386,89.9207035875,90.24041508333333,54.0,60.0
387,89.34378058749999,90.33897276249999,66.0,73.0
388,89.34378058749999,90.33897276249999,70.0,77.0
389,90.2091650875,90.61541503333333,56.0,75.0
390,90.7860880875,91.0168572875,61.0,79.0
391,90.49762658750001,91.18272265,58.0,79.0
392,91.0745495875,91.2692611,66.0,77.0
393,91.3630110875,91.56733798333335,68.0,72.0
394,91.3630110875,91.6154149,54.0,73.0
395,91.0745495875,91.63224182083334,56.0,75.0
396,91.6514725875,91.8720609,61.0,80.0
397,91.6514725875,92.03627664375,66.0,82.0
398,91.6514725875,92.06323743749999,73.0,82.0
399,91.6514725875,92.15882570625,51.0,80.0
400,91.9455903375,92.21519827499999,58.0,73.0
401,92.23970808749999,92.56568859375,63.0,76.0
402,92.53382583749999,92.67598274999999,78.0,86.0
403,92.53382583749999,92.72255139375,70.0,73.0
404,92.53382583749999,92.9063749875,65.0,72.0
405,92.8279435875,92.98725736875,70.0,76.0
406,92.8279435875,93.019120125,78.0,84.0
407,92.8279435875,93.0828456375,66.0,74.0
408,93.1220613375,93.29117904374999,68.0,78.0
409,93.1220613375,93.313237875,77.0,78.0
410,93.1220613375,93.3573555375,65.0,71.0
411,93.4161790875,93.489708525,68.0,35.0
412,93.4161790875,93.64902230624999,75.0,80.0
413,93.4161790875,93.68333604374999,63.0,61.0
414,93.7102968375,93.78627725624999,60.0,59.0
415,93.7102968375,93.95784594375,73.0,83.0
416,94.0044145875,94.23235584375,75.0,86.0
417,94.0044145875,94.29117939375,68.0,72.0
418,94.0044145875,94.87941489375,44.0,84.0
419,94.59265008749999,94.9848070875,56.0,80.0
420,94.29853233749999,95.14412086875,51.0,79.0
421,94.8867678375,95.2201012875,61.0,90.0
422,95.1808855875,95.26666993125,63.0,86.0
423,95.1808855875,95.4750033375,44.0,84.0
424,95.4750033375,95.5436308125,66.0,43.0
425,95.4750033375,95.6318661375,68.0,53.0
426,95.4750033375,95.85980739374999,46.0,79.0
427,95.7691210875,96.0632388375,70.0,79.0
428,95.7691210875,96.09019963125,48.0,79.0
429,96.0632388375,96.16618005,75.0,86.0
430,96.35735658749999,96.65637629999999,66.0,81.0
431,96.35735658749999,96.70049396249999,70.0,78.0
432,96.94559208749999,97.37451380625,66.0,72.0
433,97.2397098375,97.391670675,73.0,75.0
434,97.2397098375,97.4014746,78.0,83.0
435,97.2397098375,97.40882754375,70.0,72.0
436,97.5338275875,97.7299060875,70.0,76.0
437,97.5338275875,97.74216099374999,73.0,75.0
438,96.65147433749999,97.82549435624999,61.0,82.0
439,97.5338275875,97.84510220624999,78.0,84.0
440,97.5338275875,98.0044159875,66.0,76.0
441,97.8279453375,98.11471014374999,68.0,73.0
442,97.8279453375,98.17843565625,77.0,79.0
443,96.35735658749999,98.21765135625,54.0,86.0
444,98.1220630875,98.37941611875,61.0,79.0
445,98.4161808375,98.49216125625,68.0,54.0
446,98.4161808375,98.58284756249999,75.0,78.0
447,98.71029858749999,99.13431834375,72.0,82.0
448,98.71029858749999,99.13676932499999,75.0,80.0
449,98.71029858749999,99.21274974375,68.0,68.0
450,99.00441633749999,99.4848086625,60.0,78.0
451,99.2985340875,99.5338282875,65.0,79.0
452,99.5926518375,99.94101484791666,72.0,78.0
453,99.5926518375,99.96695823333333,68.0,79.0
454,99.8867695875,100.02120349375,75.0,38.0
455,99.8867695875,100.29950526458333,63.0,70.0
456,99.8867695875,100.4952599,60.0,80.0
457,98.71029858749999,100.49997687916667,53.0,80.0
458,100.1697883375,100.52827875416666,68.0,79.0
459,100.45280708749999,100.74761828541666,72.0,83.0
460,100.7358258375,101.1745049,73.0,77.0
461,101.0188445875,101.51884437916667,42.0,81.0
462,101.3018633375,101.54950474374999,49.0,79.0
463,101.0188445875,101.80186312916666,61.0,79.0
464,101.0188445875,101.85846687916667,66.0,61.0
465,101.58488208749999,101.94808948333333,54.0,71.0
466,101.8679008375,101.95988193125,58.0,76.0
467,101.0188445875,102.09667432708333,70.0,78.0
468,102.1509195875,102.48346661875,72.0,83.0
469,102.1509195875,102.49525906666666,44.0,77.0
470,102.1509195875,102.50233453541667,68.0,75.0
471,102.4339383375,102.69808917083333,51.0,79.0
472,102.1509195875,102.84667401458333,63.0,78.0
473,102.4339383375,102.86790042083334,70.0,78.0
474,102.71695708749999,102.97167396249999,68.0,80.0
475,102.71695708749999,103.16035312916667,56.0,69.0
476,102.9999758375,103.27356062916667,66.0,75.0
477,102.9999758375,103.290206125,58.0,71.0
478,103.2829945875,103.83347528333333,68.0,84.0
479,103.2829945875,103.95847526666667,65.0,79.0
480,103.5714560875,104.01616756666667,56.0,75.0
481,103.8599175875,104.242129075,61.0,71.0
482,104.1483790875,104.41760982083333,65.0,78.0
483,104.1483790875,104.48491750416666,68.0,68.0
484,103.2829945875,104.51376365416667,49.0,79.0
485,104.4368405875,104.65078286666666,63.0,78.0
486,104.4368405875,104.67962901666667,66.0,83.0
487,104.7253020875,104.80943669166666,63.0,16.0
488,104.7253020875,104.93684052083333,68.0,72.0
489,104.4368405875,104.992128975,56.0,78.0
490,105.0137635875,105.20607125416666,63.0,56.0
491,105.0137635875,105.22530202083334,68.0,71.0
492,105.3022250875,105.50655198333334,61.0,78.0
493,105.0137635875,105.58347505,48.0,86.0
494,105.5906865875,105.8791480875,56.0,75.0
495,105.5906865875,106.09789805833333,65.0,79.0
496,105.5906865875,106.09789805833333,68.0,72.0
497,105.5906865875,106.232513425,61.0,78.0
498,106.1676095875,106.53059030833333,58.0,59.0
499,105.5906865875,106.6147249125,46.0,75.0
500,106.45607108749999,106.665205675,60.0,74.0
501,106.45607108749999,106.71328259166667,68.0,79.0
502,105.8791480875,106.82145565416667,53.0,79.0
503,106.7445325875,106.94885948333334,61.0,83.0
504,106.7445325875,107.21568637083334,65.0,79.0
505,106.7445325875,107.42001326666667,44.0,78.0
506,107.0329940875,107.4656863375,53.0,78.0
507,107.3214555875,107.4656863375,56.0,73.0
508,107.8983785875,108.25414777083333,65.0,78.0
509,107.8983785875,108.25655161666667,61.0,82.0
510,107.8983785875,108.26857084583334,58.0,68.0
511,107.8983785875,108.31184007083333,43.0,83.0
512,110.2060705875,110.57616875625,66.0,75.0
513,110.2060705875,110.60558053125,61.0,80.0
514,110.2060705875,110.64969819375,58.0,67.0
515,110.79430608749999,111.11293364999999,58.0,75.0
516,111.08842383749999,111.18401210625,61.0,83.0
517,111.3825415875,111.56146321874999,61.0,62.0
518,111.6766593375,111.87028685624999,66.0,84.0
519,110.2060705875,112.12028694374999,42.0,81.0
520,110.50018833749999,112.16440460624999,54.0,75.0
521,111.9707770875,112.24773796874999,70.0,75.0
522,112.2648948375,112.4119537125,73.0,79.0
523,112.55901258749999,113.0215125875,61.0,76.0
524,112.55901258749999,113.09151258749999,66.0,79.0
525,112.55901258749999,113.14401258749999,70.0,75.0
526,113.4590125875,113.6665125875,72.0,80.0
527,113.4590125875,113.70651258749999,68.0,76.0
528,113.4590125875,113.73651258749999,63.0,76.0
529,112.55901258749999,114.4440125875,44.0,78.0
530,114.35901258749999,114.62151258749999,73.0,76.0
531,114.35901258749999,114.6465125875,66.0,78.0
532,113.15901258749999,114.82901258749999,56.0,51.0
533,114.9590125875,115.54969906875,68.0,76.0
534,114.9590125875,115.60852261875,65.0,76.0
535,114.9590125875,115.63058145,73.0,82.0
536,115.84136583749999,116.02028746875,66.0,80.0
537,115.84136583749999,116.03499335625,70.0,74.0
538,115.5472480875,116.248228725,61.0,78.0
539,116.4296013375,116.88793483124999,61.0,35.0
540,114.9590125875,118.61832759375,49.0,81.0
541,115.2531303375,118.64283740625,56.0,78.0
542,119.0766610875,119.43695533125,73.0,79.0
543,119.3707788375,119.71297350416667,75.0,80.0
544,119.6648965875,119.96778116249999,77.0,79.0
545,119.6648965875,120.06393499583334,54.0,72.0
546,119.95335808749999,120.20335805416666,61.0,75.0
547,119.95335808749999,120.22499266666667,78.0,80.0
548,120.24181958749999,120.45335802083333,77.0,72.0
549,120.5302810875,120.90047334583333,70.0,72.0
550,120.24181958749999,121.07355024583333,66.0,56.0
551,120.8187425875,121.62162709583333,73.0,79.0
552,121.6841270875,121.922107825,77.0,63.0
553,121.9725885875,122.24903085833333,75.0,78.0
554,121.9725885875,122.29470392916666,68.0,56.0
555,121.9725885875,122.39566545416666,53.0,75.0
556,122.2610500875,122.49662697916666,60.0,63.0
557,122.2610500875,122.49662697916666,77.0,75.0
558,122.54951158749999,122.85720385416666,63.0,55.0
559,122.54951158749999,123.08797305416667,75.0,75.0
560,123.1264345875,123.60479990833333,68.0,75.0
561,123.4148960875,123.7033575875,72.0,58.0
562,122.83797308749999,123.72258835416666,65.0,48.0
563,123.7033575875,123.99181908749999,75.0,72.0
564,123.99181908749999,124.15528060416666,77.0,63.0
565,124.2802805875,124.54951132083333,75.0,81.0
566,124.2802805875,124.64806899999999,51.0,76.0
567,124.5687420875,124.78989590416666,77.0,76.0
568,124.5687420875,124.79710744166667,58.0,68.0
569,124.8572035875,125.0879727875,75.0,78.0
570,125.14566508749999,125.26585737916666,73.0,60.0
571,124.8572035875,125.32595352499999,63.0,58.0
572,125.14566508749999,125.37643428749999,65.0,68.0
573,125.43412658749999,125.79710730833332,73.0,80.0
574,125.43412658749999,126.00864574166667,56.0,73.0
575,125.7225880875,126.02066497083332,63.0,50.0
576,126.0110495875,126.18172264166667,75.0,79.0
577,126.58797258749999,126.88124177916666,77.0,62.0
578,126.58797258749999,126.97739561249999,72.0,69.0
579,126.58797258749999,126.99422253333333,68.0,38.0
580,127.4533570875,127.66729936666667,63.0,72.0
581,126.8764340875,127.70335705416666,56.0,59.0
582,127.74181858749999,127.950953175,65.0,80.0
583,127.1648955875,127.99181855416666,61.0,72.0
584,128.0302800875,128.24181852083333,68.0,78.0
585,126.58797258749999,128.40047234583332,49.0,69.0
586,128.3187415875,128.4557608,72.0,86.0
587,128.3187415875,128.46056849166666,56.0,73.0
588,128.8956645875,129.15527993749998,42.0,81.0
589,128.8956645875,129.35239529583333,58.0,69.0
590,128.8956645875,129.38364529166665,61.0,82.0
591,128.8956645875,129.4581645125,65.0,84.0
592,129.1841260875,129.57114526666666,54.0,70.0
593,130.04951058749998,130.43172207499998,61.0,82.0
594,129.7610490875,130.65047204583334,58.0,80.0
595,130.3379720875,130.67691435,66.0,78.0
596,129.4725875875,130.68652973333332,56.0,74.0
597,130.6264335875,130.92451047083333,70.0,77.0
598,130.91489508749999,131.25383735,73.0,84.0
599,131.2033565875,131.4629719375,41.0,83.0
600,131.4918180875,131.82114496666665,53.0,59.0
601,131.2033565875,132.13124107916667,63.0,76.0
602,131.2033565875,132.133644925,68.0,80.0
603,131.2033565875,132.13845261666665,72.0,82.0
604,131.7802795875,132.35720258749998,56.0,72.0
605,132.0687410875,132.35720258749998,60.0,82.0
606,132.6456640875,132.84999098333333,68.0,80.0
607,132.35720258749998,133.02306788333334,65.0,74.0
608,132.35720258749998,133.02547172916667,61.0,82.0
609,132.35720258749998,133.0927794125,58.0,58.0
610,132.9341255875,133.21537555,70.0,72.0
611,133.2225870875,133.40768321666667,73.0,76.0
612,133.5110485875,133.81874085416666,73.0,5.0
613,133.5110485875,133.87643315416665,66.0,81.0
614,133.5110485875,133.8860485375,61.0,78.0
615,133.5110485875,133.91008699583332,70.0,82.0
616,134.0879715875,134.44374077083333,61.0,61.0
617,133.79951008749998,134.76345226666666,58.0,73.0
618,134.3764330875,134.960567625,66.0,80.0
619,134.6648945875,135.01104838749998,61.0,76.0
620,134.6648945875,135.0543176125,70.0,80.0
621,134.9533560875,135.34999065,58.0,62.0
622,133.5110485875,135.4365291,51.0,79.0
623,135.2418175875,135.53268293333332,61.0,78.0
624,135.2418175875,135.624029075,73.0,83.0
625,135.8187405875,136.22018284166666,70.0,71.0
626,135.8187405875,136.28268283333333,61.0,76.0
627,135.8187405875,136.38364435833333,66.0,80.0
628,135.8187405875,136.44133665833334,73.0,84.0
629,136.6841250875,137.124028875,61.0,77.0
630,136.3956635875,137.25624039583332,56.0,76.0
631,137.2610480875,137.56874035416666,66.0,80.0
632,136.10720208749999,137.614413425,51.0,76.0
633,137.54950958749998,138.95335555416665,56.0,75.0
634,135.8187405875,139.00383631666665,44.0,76.0
635,138.1264325875,139.0062401625,68.0,58.0
636,138.1264325875,139.0062401625,73.0,43.0
637,138.1264325875,139.03027862083331,80.0,57.0
638,137.8379710875,139.0350863125,51.0,68.0
639,140.43412458749998,140.8235476125,63.0,81.0
640,140.43412458749998,140.83075915,61.0,77.0
641,140.43412458749998,140.88845145,65.0,76.0
642,141.29950908749998,141.7898936375,61.0,56.0
643,141.5879705875,142.24902819166667,65.0,67.0
644,141.5879705875,142.26825895833332,63.0,62.0
645,141.5879705875,142.29710510833334,68.0,73.0
646,140.43412458749998,142.48700892916668,49.0,84.0
647,142.1648935875,142.51585507916667,61.0,35.0
648,142.4533550875,142.69614351666667,56.0,55.0
649,142.74181658749998,143.21537421666665,68.0,77.0
650,142.74181658749998,143.2249896,63.0,69.0
651,142.74181658749998,143.4341241875,49.0,73.0
652,143.3187395875,143.50143187083333,61.0,84.0
653,143.0302780875,143.82835490416667,56.0,75.0
654,143.6072010875,143.85239336249998,68.0,82.0
655,143.8956625875,144.34037406666667,72.0,86.0
656,144.18412408749998,144.46056635833332,56.0,71.0
657,143.8956625875,144.59037403333332,63.0,81.0
658,144.4725855875,144.65768171666667,60.0,61.0
659,144.4725855875,144.66248940833333,75.0,80.0
660,143.8956625875,144.98460475,48.0,81.0
661,144.7610470875,145.04470089583333,72.0,79.0
662,145.0495085875,145.57354697916665,46.0,77.0
663,145.3379700875,145.60720082083333,53.0,75.0
664,145.6264315875,145.99421999999998,58.0,53.0
665,145.0495085875,146.23700842916665,65.0,74.0
666,145.0495085875,146.268258425,68.0,50.0
667,145.0495085875,146.38123917916667,73.0,84.0
668,145.9148930875,146.7225852875,60.0,73.0
669,146.2033545875,146.7225852875,61.0,76.0
670,146.49181608749998,146.79229681666666,65.0,54.0
671,146.7802775875,147.00623909583334,70.0,72.0
672,147.0687390875,147.2995082875,72.0,72.0
673,147.3572005875,147.82354667916667,73.0,68.0
674,147.3572005875,148.01585434583333,65.0,52.0
675,148.2225850875,148.55912350416668,68.0,72.0
676,148.2225850875,148.59758503749998,63.0,50.0
677,148.5110465875,148.82354654583332,75.0,79.0
678,148.5110465875,149.19854649583334,44.0,78.0
679,148.7995080875,149.2177772625,56.0,62.0
680,149.0879695875,149.3331618625,63.0,78.0
681,149.3764310875,149.64085412916666,68.0,75.0
682,149.6648925875,150.39085402916666,66.0,76.0
683,149.6648925875,150.39566172083332,73.0,58.0
684,149.6648925875,150.40287325833333,61.0,78.0
685,149.6648925875,150.4293155625,70.0,75.0
686,149.6648925875,150.90287319166666,54.0,58.0
687,150.8187385875,151.1072000875,73.0,38.0
688,150.8187385875,151.13604623749998,61.0,68.0
689,150.8187385875,151.13604623749998,66.0,75.0
690,150.8187385875,151.16008469583332,70.0,59.0
691,149.6648925875,151.30191159999998,42.0,73.0
692,151.3956615875,151.59518079166665,61.0,72.0
693,151.68412308749998,151.835565375,73.0,78.0
694,151.1072000875,151.97739227916668,54.0,63.0
695,151.9725845875,152.53748835833332,72.0,80.0
696,151.9725845875,152.66729603333334,68.0,74.0
697,151.9725845875,152.67691141666666,53.0,83.0
698,151.9725845875,152.67691141666666,63.0,75.0
699,153.4148920875,153.7033535875,72.0,79.0
700,154.2802765875,154.61441115833333,66.0,67.0
701,154.2802765875,154.62883423333332,61.0,68.0
702,154.2802765875,154.65768038333334,70.0,63.0
703,154.8571995875,155.07594955833332,61.0,82.0
704,154.2802765875,155.23219953749998,51.0,72.0
705,154.56873808749998,155.29229568333332,58.0,69.0
706,155.1456610875,155.31393029583333,66.0,82.0
707,155.43412258749999,155.8379686875,61.0,75.0
708,155.43412258749999,156.07354557916665,70.0,78.0
709,155.43412258749999,156.16729556666667,56.0,79.0
710,156.2995070875,156.48941090833333,68.0,58.0
711,156.5879685875,157.10239159583332,66.0,80.0
712,157.1648915875,157.54950692083332,61.0,56.0
713,157.4533530875,157.7634492,63.0,69.0
714,157.4533530875,157.96056455833332,68.0,76.0
715,156.5879685875,158.28508374583333,49.0,78.0
716,158.0302760875,158.36681450416665,61.0,55.0
717,156.8764300875,158.6216221625,56.0,68.0
718,158.31873758749998,158.66969907916666,63.0,75.0
719,158.6071990875,158.9172952,65.0,73.0
720,158.8956605875,159.23700669583332,63.0,75.0
721,158.8956605875,159.28989130416664,68.0,75.0
722,159.4725835875,159.64806433333334,61.0,68.0
723,158.8956605875,159.69133355833333,49.0,75.0
724,159.1841220875,159.90287199166667,56.0,68.0
725,159.7610450875,159.91008352916666,63.0,68.0
726,160.0495065875,160.45816037916666,63.0,73.0
727,160.0495065875,160.50623729583333,68.0,71.0
728,160.0495065875,160.58796805416665,72.0,79.0
729,160.0495065875,160.70335265416668,48.0,79.0
730,160.3379680875,160.75142957083332,56.0,75.0
731,160.62642958749998,160.75142957083332,60.0,72.0
732,161.20335258749998,161.7898909708333,46.0,79.0
733,161.4918140875,161.82835250416667,53.0,73.0
734,161.7802755875,162.15767938333335,58.0,62.0
735,161.20335258749998,162.46296780416665,73.0,84.0
736,161.20335258749998,162.48219857083333,70.0,83.0
737,161.20335258749998,162.50142933749999,65.0,80.0
738,162.06873708749998,162.99421773333333,60.0,84.0
739,162.3571985875,162.99662157916666,61.0,90.0
740,162.6456600875,163.03267926666666,65.0,86.0
741,162.9341215875,163.25383308333332,70.0,86.0
742,163.2225830875,163.59517919166666,73.0,90.0
743,163.5110445875,164.06152528333334,44.0,80.0
744,163.7995060875,164.10719835416666,53.0,79.0
745,164.0879675875,164.39565985416667,56.0,73.0
746,163.5110445875,164.45335215416665,63.0,84.0
747,163.5110445875,164.50864060833334,68.0,82.0
748,163.5110445875,164.5350829125,72.0,90.0
749,164.6648905875,164.97258285416666,68.0,84.0
750,164.6648905875,165.03508284583333,72.0,93.0
751,164.95335208749998,165.15527513749998,63.0,82.0
752,165.2418135875,165.3283520375,63.0,83.0
753,164.3764290875,165.43412125416666,60.0,84.0
754,165.2418135875,165.49902509166665,68.0,78.0
755,165.2418135875,165.5398904708333,73.0,86.0
756,165.5302750875,165.61200584583332,70.0,55.0
757,165.5302750875,165.69854429583333,68.0,59.0
758,165.81873658749998,166.47739034583333,66.0,80.0
759,165.81873658749998,166.48219803749998,70.0,78.0
760,165.81873658749998,166.50142880416666,61.0,60.0
761,165.81873658749998,166.7273903125,42.0,86.0
762,166.6841210875,166.85960183333333,61.0,77.0
763,166.3956595875,166.87642875416665,54.0,76.0
764,166.1071980875,166.97739027916666,49.0,81.0
765,166.9725825875,167.35960176666666,61.0,81.0
766,166.9725825875,167.38844791666668,72.0,91.0
767,166.9725825875,167.470178675,66.0,83.0
768,166.9725825875,167.78267863333332,44.0,82.0
769,167.2610440875,167.81873632083332,51.0,82.0
770,167.5495055875,167.90046707916667,63.0,80.0
771,167.5495055875,167.92210169166665,70.0,80.0
772,167.8379670875,168.03027475416667,68.0,82.0
773,167.8379670875,168.16008242916666,56.0,73.0
774,168.1264285875,168.64325544166667,68.0,76.0
775,168.1264285875,168.66489005416668,63.0,80.0
776,168.1264285875,168.79950542083333,65.0,82.0
777,168.4148900875,169.04710154166668,56.0,80.0
778,168.70335158749998,169.09758230416668,61.0,86.0
779,168.1264285875,169.19133229166667,49.0,86.0
780,169.2802745875,169.46537071666665,56.0,80.0
781,168.9918130875,169.53748609166666,63.0,82.0
782,168.9918130875,169.55912070416667,68.0,82.0
783,169.2802745875,169.89565912083333,48.0,84.0
784,169.56873608749999,169.92931296249998,56.0,81.0
785,169.8571975875,170.14085139583332,63.0,83.0
786,170.1456590875,170.37883213333333,68.0,75.0
787,170.4341205875,170.57594749166665,68.0,36.0
788,170.4341205875,171.01585127916667,65.0,83.0
789,170.4341205875,171.03748589166668,61.0,82.0
790,171.2995050875,171.566331975,60.0,76.0
791,171.0110435875,171.67931272916667,58.0,74.0
792,171.58796658749998,171.9341203875,65.0,86.0
793,171.58796658749998,171.98940884166666,61.0,90.0
794,170.4341205875,172.02546652916666,46.0,86.0
795,171.8764280875,172.0495049875,58.0,72.0
796,170.7225820875,172.22738957916667,53.0,82.0
797,172.1648895875,172.3956587875,60.0,81.0
798,172.45335108749998,172.662485675,61.0,84.0
799,172.1648895875,172.67450490416667,44.0,90.0
800,172.7418125875,173.2826779,65.0,84.0
801,172.7418125875,173.354793275,58.0,79.0
802,172.7418125875,173.37162019583332,61.0,84.0
803,173.6071970875,173.79710090833333,58.0,71.0
804,173.3187355875,173.9100816625,54.0,82.0
805,173.8956585875,174.20335085416667,66.0,84.0
806,173.8956585875,174.26825469166667,58.0,79.0
807,173.8956585875,174.27546622916665,61.0,90.0
808,174.1841200875,174.40767775,54.0,83.0
809,172.7418125875,174.51825465833332,42.0,82.0
810,173.0302740875,174.52306235,49.0,90.0
811,174.4725815875,174.58556234166667,66.0,75.0
812,174.4725815875,174.86440845833334,58.0,80.0
813,174.76104308749998,174.92210075833333,41.0,90.0
814,175.0495045875,175.61568125624999,66.0,86.0
815,175.0495045875,175.62548518124999,63.0,90.0
816,175.0495045875,175.6769557875,58.0,82.0
817,175.9318578375,176.11568143124998,58.0,76.0
818,175.6377400875,176.2504854,51.0,79.0
819,176.2259755875,176.52254431875,66.0,90.0
820,176.2259755875,176.5789168875,61.0,90.0
821,176.2259755875,176.5985247375,58.0,81.0
822,175.0495045875,176.78479931249998,39.0,86.0
823,175.3436223375,176.79460323749998,46.0,80.0
824,176.81421108749998,177.16715238749998,58.0,83.0
825,176.5200933375,177.2847994875,51.0,80.0
826,177.10832883749998,177.358328925,61.0,86.0
827,177.4024465875,177.8632310625,60.0,83.0
828,177.4024465875,177.93430951874998,63.0,86.0
829,177.9906820875,178.35587829375,56.0,77.0
830,177.4024465875,178.43921165625,44.0,78.0
831,178.2847998375,178.6426431,61.0,95.0
832,177.6965643375,178.7259764625,51.0,83.0
833,178.5789175875,178.80195688125,63.0,84.0
834,178.5789175875,178.85832944999999,44.0,83.0
835,178.8730353375,179.1279373875,65.0,90.0
836,178.8730353375,179.21127074999998,56.0,79.0
837,179.1671530875,179.44656494999998,68.0,84.0
838,179.1671530875,179.5495061625,58.0,75.0
839,179.4612708375,179.77942704583333,60.0,82.0
840,179.4612708375,179.80827319583332,73.0,90.0
841,179.7553885875,180.12077315416667,70.0,91.0
842,180.3323115875,180.67846538749998,66.0,84.0
843,180.6207730875,180.7818307583333,70.0,79.0
844,180.6207730875,180.81308075416666,78.0,95.0
845,180.90923458749998,181.18567685833332,70.0,84.0
846,180.90923458749998,181.2698114625,78.0,94.0
847,181.1976960875,181.37558067916666,66.0,69.0
848,181.4861575875,181.64961910416665,66.0,72.0
849,181.4861575875,181.76740755,68.0,84.0
850,179.7553885875,181.78663831666665,54.0,82.0
851,181.4861575875,181.82750369583331,77.0,84.0
852,180.0438500875,181.99336905833331,61.0,79.0
853,181.77461908749999,182.00779213333334,78.0,86.0
854,182.0630805875,182.61356128333333,68.0,81.0
855,182.0630805875,182.64240743333332,75.0,94.0
856,182.6400035875,182.97894585,65.0,81.0
857,182.35154208749998,183.1592342875,61.0,77.0
858,182.9284650875,183.28423427083334,68.0,84.0
859,182.9284650875,183.37798425833333,73.0,96.0
860,183.21692658749998,183.4188496375,65.0,82.0
861,183.5053880875,183.76981112916667,72.0,90.0
862,183.5053880875,183.81067650833333,68.0,90.0
863,182.0630805875,183.95490725833332,53.0,82.0
864,183.7938495875,184.02702263333333,63.0,80.0
865,184.0823110875,184.33711874583332,68.0,82.0
866,184.3707725875,184.72654177083334,70.0,82.0
867,184.3707725875,184.7890417625,66.0,82.0
868,184.3707725875,184.80827252916666,61.0,84.0
869,184.3707725875,185.0486571125,51.0,84.0
870,184.65923408749998,185.05586864999998,58.0,75.0
871,184.9476955875,185.14721479166667,61.0,90.0
872,185.2361570875,185.49817628333332,66.0,84.0
873,185.5246185875,186.04625313333332,44.0,83.0
874,185.8130800875,186.10634927916666,51.0,79.0
875,185.5246185875,186.16404157916665,63.0,81.0
876,185.5246185875,186.2457723375,68.0,84.0
877,186.10154158749998,186.4765415375,56.0,80.0
878,186.3900030875,186.70009919999998,58.0,75.0
879,186.6784645875,187.1832722125,65.0,83.0
880,186.6784645875,187.2193299,68.0,82.0
881,186.6784645875,187.46211832916666,49.0,86.0
882,187.2553875875,187.46932986666667,61.0,83.0
883,187.5438490875,187.71932983333332,65.0,78.0
884,187.5438490875,187.82990674166666,73.0,91.0
885,186.96692608749998,187.85875289166665,56.0,75.0
886,187.8323105875,188.19529130833334,63.0,81.0
887,187.8323105875,188.23856053333333,68.0,76.0
888,187.8323105875,188.26981052916665,72.0,86.0
889,188.1207720875,188.45490665833333,56.0,71.0
890,188.40923358749998,188.57269510416666,73.0,84.0
891,188.40923358749998,188.5823104875,60.0,79.0
892,188.40923358749998,188.58711817916665,65.0,80.0
893,187.8323105875,188.92365659583334,48.0,86.0
894,188.9861565875,189.32990654166667,73.0,90.0
895,188.9861565875,189.34913730833333,70.0,83.0
896,188.9861565875,189.40442576249998,65.0,83.0
897,189.5630795875,189.91404107916665,58.0,75.0
898,188.9861565875,189.91884877083334,46.0,79.0
899,189.85154108749998,189.94288722916667,68.0,71.0
900,189.85154108749998,189.97894491666665,70.0,71.0
901,189.85154108749998,190.0246179875,61.0,79.0
902,189.2746180875,190.204906425,53.0,72.0
903,190.1400025875,190.377983325,61.0,83.0
904,190.1400025875,190.66163713333333,68.0,83.0
905,190.7169255875,190.926060175,56.0,83.0
906,190.1400025875,190.95731017083332,44.0,83.0
907,190.4284640875,190.95971401666665,53.0,81.0
908,191.29384858749998,191.61115623749998,43.0,83.0
909,191.29384858749998,191.63519469583332,58.0,73.0
910,191.29384858749998,191.67846392083334,55.0,73.0
911,191.29384858749998,191.70009853333332,61.0,79.0
912,191.29384858749998,191.762598525,65.0,78.0
913,192.45490612499998,192.8659637625,82.0,68.0
914,192.34432921666667,192.87798299166667,77.0,55.0
915,192.35154075416665,192.8803868375,67.0,70.0
916,192.27461768749998,192.8803868375,73.0,68.0
917,192.2313484625,192.89000222083334,70.0,52.0
918,193.60154058749998,193.98375207499998,61.0,76.0
919,193.60154058749998,194.00779053333332,66.0,78.0
920,193.60154058749998,194.03182899166666,70.0,72.0
921,194.1784635875,194.55105969166667,61.0,79.0
922,194.4669250875,194.77702119999998,66.0,83.0
923,193.8900020875,194.83230965416666,58.0,69.0
924,194.7553865875,195.11836730833332,61.0,71.0
925,195.04384808749998,195.35154035416667,58.0,76.0
926,193.60154058749998,195.42125188333333,51.0,79.0
927,194.7553865875,195.42846342083334,73.0,90.0
928,195.3323095875,195.59192493749998,61.0,74.0
929,195.6207710875,195.99336719166666,73.0,83.0
930,195.9092325875,196.10634794583333,68.0,74.0
931,195.9092325875,196.18807870416666,72.0,86.0
932,195.9092325875,196.2121171625,63.0,79.0
933,196.48615558749998,196.79384785416667,66.0,73.0
934,196.48615558749998,196.81307862083332,70.0,76.0
935,196.48615558749998,196.82509785,61.0,79.0
936,195.9092325875,197.6976938875,56.0,58.0
937,197.0630785875,197.73375157499999,60.0,61.0
938,195.9092325875,197.77942464583333,44.0,71.0
939,197.0630785875,197.79625156666665,63.0,54.0
940,197.0630785875,197.84673232916666,68.0,77.0
941,198.2169245875,198.77702066666666,65.0,53.0
942,198.2169245875,198.78663605,68.0,68.0
943,198.2169245875,198.79865527916667,63.0,58.0
944,199.0823090875,199.62557824583334,63.0,76.0
945,198.5053860875,199.82990514166667,56.0,63.0
946,198.79384758749998,199.85634744583334,61.0,69.0
947,199.6592320875,200.48615505416666,66.0,83.0
948,200.5246165875,201.38759724166667,61.0,56.0
949,200.5246165875,201.75298180833332,65.0,70.0
950,200.5246165875,201.79144334166665,68.0,60.0
951,201.3900010875,201.79144334166665,68.0,47.0
952,198.2169245875,201.80346257083332,49.0,75.0
953,200.23615508749998,201.82990487499998,56.0,53.0
954,201.6784625875,201.96452024166666,73.0,79.0
955,201.9669240875,202.22894328333334,75.0,82.0
956,202.2553855875,202.5294240125,77.0,75.0
957,202.54384708749998,202.77702013333334,78.0,78.0
958,203.4092315875,204.57509681666664,66.0,59.0
959,203.12077008749998,204.62557757916665,61.0,55.0
960,202.8323085875,204.64000065416667,54.0,59.0
961,202.8323085875,204.67605834166665,77.0,73.0
962,203.6976930875,204.714519875,70.0,56.0
963,205.1400005875,205.19048135,66.0,42.0
964,205.1400005875,205.86115433749998,73.0,74.0
965,205.4284620875,206.39721195833332,61.0,71.0
966,206.0053850875,206.39721195833332,68.0,75.0
967,205.7169235875,206.52221194166665,66.0,67.0
968,205.1400005875,206.97653880416667,54.0,56.0
969,206.87076958749998,207.05586571666666,61.0,73.0
970,207.4476925875,207.83230792083333,65.0,80.0
971,207.73615408749998,208.44769245416666,60.0,76.0
972,208.0246155875,208.68567319166667,65.0,63.0
973,208.3130770875,208.695288575,72.0,84.0
974,208.8900000875,209.27461542083333,60.0,79.0
975,207.4476925875,209.28423080416667,53.0,80.0
976,209.17846158749998,209.54865384583331,68.0,81.0
977,209.7553845875,210.40682680833334,62.0,76.0
978,209.4669230875,210.48615372083333,65.0,71.0
979,210.62076908749998,210.90682674166666,62.0,73.0
980,210.9092305875,211.27221130833334,65.0,77.0
981,209.7553845875,211.464518975,46.0,74.0
982,210.3323075875,211.4717305125,58.0,75.0
983,210.0438460875,211.51259589166665,53.0,73.0
984,211.1976920875,211.51740358333333,68.0,75.0
985,211.48615358749998,211.80586508333332,70.0,79.0
986,211.48615358749998,212.19528810833333,50.0,84.0
987,212.0630765875,212.36836500833334,51.0,79.0
988,212.0630765875,212.68567265833332,61.0,76.0
989,212.3515380875,212.71211496249998,54.0,68.0
990,212.6399995875,212.78182649166666,58.0,58.0
991,212.0630765875,212.95249954583332,70.0,73.0
992,212.6399995875,212.98855723333332,56.0,55.0
993,212.0630765875,213.007788,66.0,82.0
994,213.2169225875,213.57269177083333,61.0,76.0
995,212.92846108749998,213.68807637083333,58.0,79.0
996,213.50538408749998,213.80826866249998,66.0,76.0
997,214.0823070875,214.28663398333333,73.0,80.0
998,213.7938455875,214.33951859166666,70.0,73.0
999,214.37076858749998,214.5726916375,66.0,80.0
1000,214.37076858749998,214.63999932083334,73.0,72.0
1001,215.23615308749999,215.37076845416667,78.0,81.0
1002,215.23615308749999,215.41403767916665,70.0,71.0
1003,214.9476915875,215.47172997916667,63.0,58.0
1004,215.5246145875,215.82749916249998,70.0,77.0
1005,215.5246145875,215.87317223333332,78.0,84.0
1006,214.6592300875,215.9861529875,58.0,71.0
1007,215.8130760875,216.0823068208333,63.0,53.0
1008,216.1015375875,216.21211449583333,68.0,59.0
1009,216.1015375875,216.21211449583333,70.0,59.0
1010,216.1015375875,216.30586448333332,58.0,73.0
1011,214.37076858749998,216.35634524583332,51.0,75.0
1012,216.1015375875,216.53903752916665,77.0,79.0
1013,216.3899990875,216.5774990625,73.0,80.0
1014,216.67846058749998,216.97413362499998,73.0,84.0
1015,216.67846058749998,217.0270182333333,66.0,73.0
1016,217.25538358749998,217.6808643,56.0,78.0
1017,217.5438450875,217.99576810416664,61.0,84.0
1018,217.8323065875,218.127979625,56.0,43.0
1019,216.9669220875,218.2577873,51.0,79.0
1020,218.12076808749998,218.49336419166667,60.0,80.0
1021,218.12076808749998,218.49817188333333,63.0,84.0
1022,216.67846058749998,218.61836417499998,44.0,82.0
1023,218.4092295875,218.63759494166666,56.0,57.0
1024,218.6976910875,218.96932566666666,51.0,80.0
1025,218.9861525875,219.5342294375,60.0,79.0
1026,218.9861525875,219.5342294375,63.0,80.0
1027,218.9861525875,219.541440975,68.0,80.0
1028,219.8515370875,220.21692165416667,61.0,84.0
1029,220.1399985875,220.47894085,63.0,80.0
1030,219.2746140875,220.551056225,51.0,77.0
1031,220.42846008749999,220.7457677375,65.0,80.0
1032,220.7169215875,220.92365232916666,68.0,79.0
1033,219.5630755875,220.9621138625,56.0,60.0
1034,218.9861525875,221.05346000416665,44.0,76.0
1035,221.2938445875,221.86884458749998,45.0,83.0
1036,221.5938445875,221.9213445875,52.0,78.0
1037,221.00538308749998,222.0413445875,51.0,80.0
1038,221.89384458749998,222.24634458749998,57.0,68.0
1039,221.2938445875,222.5363445875,67.0,82.0
1040,221.2938445875,222.5388445875,62.0,79.0
1041,221.2938445875,222.5938445875,71.0,78.0
1042,221.2938445875,222.8813445875,74.0,77.0
1043,222.49384458749998,223.1063445875,61.0,86.0
1044,222.1938445875,223.1363445875,59.0,78.0
1045,222.7938445875,223.20884458749998,62.0,81.0
1046,223.0938445875,223.3863445875,67.0,75.0
1047,223.39384458749998,223.74384458749998,74.0,83.0
1048,223.6938445875,223.9088445875,64.0,81.0
1049,223.6938445875,223.9838445875,69.0,79.0
1050,223.6938445875,224.18134458749998,73.0,93.0
1051,223.6938445875,224.30384458749998,45.0,83.0
1052,223.99384458749998,224.3413445875,52.0,74.0
1053,224.2938445875,224.3888445875,69.0,83.0
1054,224.2938445875,224.3913445875,66.0,81.0
1055,224.2938445875,224.42384458749999,74.0,90.0
1056,224.2938445875,224.6863445875,57.0,77.0
1057,224.5938445875,224.9813445875,59.0,69.0
1058,224.89384458749998,224.98884458749998,66.0,75.0
1059,224.89384458749998,225.0063445875,69.0,83.0
1060,224.89384458749998,225.0338445875,76.0,94.0
1061,224.89384458749998,225.2588445875,61.0,83.0
1062,225.1938445875,225.58134458749998,59.0,69.0
1063,225.49384458749998,225.8413445875,69.0,82.0
1064,225.49384458749998,225.8463445875,57.0,59.0
1065,225.49384458749998,225.8488445875,78.0,94.0
1066,225.7938445875,225.8788445875,55.0,84.0
1067,226.0938445875,226.447209925,74.0,90.0
1068,226.0938445875,226.4976906875,47.0,77.0
1069,226.0938445875,226.53134452916666,66.0,76.0
1070,226.3823060875,226.57942144583333,73.0,80.0
1071,226.3823060875,226.63230605416666,54.0,76.0
1072,226.6707675875,227.02653677083333,59.0,53.0
1073,226.6707675875,227.19480597916666,74.0,82.0
1074,226.6707675875,227.31259442500001,66.0,74.0
1075,226.9592290875,227.37269057083333,61.0,78.0
1076,227.5361520875,227.7885559,66.0,69.0
1077,227.2476905875,227.80538282083333,62.0,82.0
1078,227.8246135875,228.062594325,73.0,79.0
1079,227.8246135875,228.0698058625,61.0,70.0
1080,227.8246135875,228.08903662916666,66.0,25.0
1081,228.1130750875,228.2284596875,59.0,70.0
1082,228.1130750875,228.3294212125,74.0,80.0
1083,228.4015365875,228.81019037916667,45.0,76.0
1084,228.6899980875,228.9496134375,54.0,55.0
1085,228.4015365875,229.13470956666666,64.0,72.0
1086,228.4015365875,229.2092287875,69.0,71.0
1087,228.9784595875,229.33663261666666,57.0,57.0
1088,228.4015365875,229.47845952083333,73.0,83.0
1089,229.5553825875,230.00009406666666,64.0,78.0
1090,229.2669210875,230.06259405833333,61.0,75.0
1091,229.8438440875,230.17797865833333,73.0,83.0
1092,230.1323055875,230.40153632083334,74.0,83.0
1093,230.4207670875,230.6659593625,69.0,77.0
1094,230.7092285875,231.15874775833333,43.0,79.0
1095,230.9976900875,231.322209275,50.0,77.0
1096,230.7092285875,231.49769002083335,62.0,72.0
1097,230.7092285875,231.53615155416668,67.0,77.0
1098,230.7092285875,231.552978475,71.0,71.0
1099,231.5746130875,231.74047845,52.0,17.0
1100,231.2861515875,231.77893998333334,55.0,57.0
1101,231.8630745875,232.17557454583334,64.0,76.0
1102,231.8630745875,232.33422837083333,45.0,76.0
1103,231.8630745875,232.37990144166668,69.0,81.0
1104,232.1515360875,232.4255745125,52.0,78.0
1105,232.4399975875,232.706824475,62.0,76.0
1106,232.4399975875,232.74528600833332,67.0,84.0
1107,232.4399975875,232.88470906666666,57.0,63.0
1108,232.7284590875,233.00970905,59.0,69.0
1109,233.0169205875,233.34384362083333,69.0,76.0
1110,233.0169205875,233.36067054166668,64.0,75.0
1111,233.0169205875,233.5938435875,66.0,80.0
1112,233.5938435875,233.87509355,62.0,71.0
1113,233.88230508750001,233.91355508333334,64.0,47.0
1114,233.0169205875,233.9255743125,50.0,82.0
1115,233.3053820875,234.1563435125,57.0,76.0
1116,233.88230508750001,234.16836274166667,66.0,80.0
1117,234.1707665875,234.6467280625,69.0,80.0
1118,234.1707665875,234.73807420416668,64.0,78.0
1119,234.7476895875,234.95201648333332,61.0,80.0
1120,234.1707665875,234.98807417083333,49.0,76.0
1121,234.4592280875,235.00249724583333,57.0,75.0
1122,235.0361510875,235.27653567083334,69.0,76.0
1123,235.3246125875,235.504901025,62.0,83.0
1124,235.3246125875,235.81980482916666,47.0,80.0
1125,235.6130740875,235.8654779,54.0,76.0
1126,235.9015355875,236.22365092916667,59.0,46.0
1127,236.1899970875,236.32220860833334,66.0,74.0
1128,236.1899970875,236.38230475416668,74.0,84.0
1129,236.1899970875,236.5000932,61.0,71.0
1130,236.4784585875,236.60345857083334,64.0,76.0
1131,236.4784585875,236.66355471666668,73.0,81.0
1132,236.4784585875,236.74288162916667,62.0,57.0
1133,236.7669200875,236.89913160833333,74.0,82.0
1134,236.7669200875,236.90874699166667,66.0,72.0
1135,236.7669200875,236.99528544166668,61.0,59.0
1136,237.0553815875,237.22365079583332,73.0,78.0
1137,237.0553815875,237.30538155416667,59.0,54.0
1138,237.3438430875,237.437593075,54.0,79.0
1139,237.3438430875,237.5457661375,69.0,76.0
1140,237.6323045875,237.9928814625,43.0,77.0
1141,237.6323045875,238.10345837083332,62.0,71.0
1142,237.9207660875,238.19240066666666,50.0,73.0
1143,238.2092275875,238.52893908333334,55.0,60.0
1144,237.6323045875,238.62749676250002,67.0,73.0
1145,237.6323045875,238.62749676250002,71.0,77.0
1146,238.4976890875,238.90393903333333,57.0,75.0
1147,239.0746120875,239.3053812875,62.0,79.0
1148,238.7861505875,239.47124665,59.0,79.0
1149,239.3630735875,239.5577851,67.0,77.0
1150,239.6515350875,239.85586198333334,69.0,72.0
1151,239.6515350875,239.9039389,55.0,73.0
1152,239.3630735875,239.92076582083334,57.0,75.0
1153,239.9399965875,240.1605849,62.0,80.0
1154,239.9399965875,240.32480064375,67.0,82.0
1155,239.9399965875,240.3517614375,74.0,82.0
1156,239.9399965875,240.44734970624998,52.0,80.0
1157,240.2341143375,240.503722275,59.0,73.0
1158,240.5282320875,240.85421259375,64.0,76.0
1159,240.82234983749998,240.96450675,79.0,86.0
1160,240.82234983749998,241.01107539375,71.0,73.0
1161,240.82234983749998,241.19489898749998,66.0,72.0
1162,241.11646758749998,241.27578136875,71.0,76.0
1163,241.11646758749998,241.307644125,79.0,84.0
1164,241.11646758749998,241.37136963749998,67.0,74.0
1165,241.41058533749998,241.57970304375,69.0,78.0
1166,241.41058533749998,241.601761875,78.0,78.0
1167,241.41058533749998,241.64587953749998,66.0,71.0
1168,241.70470308749998,241.778232525,69.0,35.0
1169,241.70470308749998,241.93754630625,76.0,80.0
1170,241.70470308749998,241.97186004374998,64.0,61.0
1171,241.99882083749998,242.07480125625,61.0,59.0
1172,241.99882083749998,242.24636994374998,74.0,83.0
1173,242.2929385875,242.52087984374998,76.0,86.0
1174,242.2929385875,242.57970339374998,69.0,72.0
1175,242.2929385875,243.16793889374998,45.0,84.0
1176,242.8811740875,243.2733310875,57.0,80.0
1177,242.5870563375,243.43264486875,52.0,79.0
1178,243.1752918375,243.5086252875,62.0,90.0
1179,243.4694095875,243.55519393125,64.0,86.0
1180,243.4694095875,243.7635273375,45.0,84.0
1181,243.7635273375,243.8321548125,67.0,43.0
1182,243.7635273375,243.9203901375,69.0,53.0
1183,243.7635273375,244.14833139375,47.0,79.0
1184,244.0576450875,244.3517628375,71.0,79.0
1185,244.0576450875,244.37872363124998,49.0,79.0
1186,244.3517628375,244.45470405,76.0,86.0
1187,244.6458805875,244.93914977916666,67.0,81.0
1188,244.6458805875,244.98241900416664,71.0,78.0
1189,245.22280358749998,245.64347660833332,67.0,72.0
1190,245.5112650875,245.66030352916667,74.0,75.0
1191,245.5112650875,245.66991891249998,79.0,83.0
1192,245.5112650875,245.67713045,71.0,72.0
1193,245.79972658749998,245.99203425416667,71.0,76.0
1194,245.79972658749998,246.0040534833333,74.0,75.0
1195,244.9343420875,246.08578424166666,62.0,82.0
1196,245.79972658749998,246.1050150083333,79.0,84.0
1197,245.79972658749998,246.2612649875,67.0,76.0
1198,246.0881880875,246.36943804999999,69.0,73.0
1199,246.0881880875,246.43193804166665,78.0,79.0
1200,244.6458805875,246.470399575,55.0,86.0
1201,246.3766495875,246.62905339999998,62.0,79.0
1202,246.66511108749998,246.73963030833332,69.0,54.0
1203,246.66511108749998,246.82857260416665,76.0,78.0
1204,246.9535725875,247.36943791666664,73.0,82.0
1205,246.9535725875,247.3718417625,76.0,80.0
1206,246.9535725875,247.44636098333334,69.0,68.0
1207,247.24203408749997,247.7131878708333,61.0,78.0
1208,247.53049558749998,247.76126478749998,66.0,79.0
1209,247.8189570875,248.16270704166666,73.0,78.0
1210,247.8189570875,248.18914934583333,69.0,79.0
1211,248.10741858749998,248.2444378,76.0,38.0
1212,248.10741858749998,248.5280916083333,64.0,70.0
1213,248.10741858749998,248.7276108125,61.0,80.0
1214,246.9535725875,248.73241850416665,54.0,80.0
1215,248.3958800875,248.76126465416667,69.0,79.0
1216,248.6843415875,248.98482231666665,73.0,83.0
1217,248.97280308749998,249.41991841249998,74.0,77.0
1218,249.2612645875,249.77087990416666,43.0,81.0
1219,249.54972608749998,249.80212989999998,50.0,79.0
1220,249.2612645875,250.05934140416664,62.0,79.0
1221,249.2612645875,250.11703370416666,67.0,61.0
1222,249.8381875875,250.20837984583332,55.0,71.0
1223,250.1266490875,250.220399075,59.0,76.0
1224,249.2612645875,250.35982213333332,71.0,78.0
1225,250.41511058749998,250.75405285,73.0,83.0
1226,250.41511058749998,250.76607207916666,45.0,77.0
1227,250.41511058749998,250.77328361666665,69.0,75.0
1228,250.7035720875,250.97280282083332,52.0,79.0
1229,250.41511058749998,251.12424510833333,64.0,78.0
1230,250.7035720875,251.14587972083334,71.0,78.0
1231,250.99203358749998,251.2516489375,69.0,80.0
1232,250.99203358749998,251.44395660416666,57.0,69.0
1233,251.2804950875,251.55934120416666,67.0,75.0
1234,251.2804950875,251.57616812499998,59.0,71.0
1235,251.5689565875,252.11943728333333,69.0,84.0
1236,251.5689565875,252.24443726666667,66.0,79.0
1237,251.85741808749998,252.30212956666665,57.0,75.0
1238,252.1458795875,252.528091075,62.0,71.0
1239,252.4343410875,252.70357182083333,66.0,78.0
1240,252.4343410875,252.77087950416666,69.0,68.0
1241,251.5689565875,252.79972565416665,50.0,79.0
1242,252.72280258749998,252.93674486666666,64.0,78.0
1243,252.72280258749998,252.96559101666665,67.0,83.0
1244,253.0112640875,253.09539869166665,64.0,16.0
1245,253.0112640875,253.2228025208333,69.0,72.0
1246,252.72280258749998,253.278090975,57.0,78.0
1247,253.29972558749998,253.49203325416664,64.0,56.0
1248,253.29972558749998,253.51126402083332,69.0,71.0
1249,253.5881870875,253.79251398333332,62.0,78.0
1250,253.29972558749998,253.86943705,49.0,86.0
1251,253.8766485875,254.16511008749998,57.0,75.0
1252,253.8766485875,254.3838600583333,66.0,79.0
1253,253.8766485875,254.3838600583333,69.0,72.0
1254,253.8766485875,254.518475425,62.0,78.0
1255,254.4535715875,254.8165523083333,59.0,59.0
1256,253.8766485875,254.9006869125,47.0,75.0
1257,254.74203308749998,254.951167675,61.0,74.0
1258,254.74203308749998,254.99924459166667,69.0,79.0
1259,254.16511008749998,255.10741765416665,54.0,79.0
1260,255.0304945875,255.23482148333332,62.0,83.0
1261,255.0304945875,255.50164837083332,66.0,79.0
1262,255.0304945875,255.70597526666666,45.0,78.0
1263,255.3189560875,255.7516483375,54.0,78.0
1264,255.60741758749998,255.7516483375,57.0,73.0
1265,256.1843405875,256.54010977083334,66.0,78.0
1266,256.1843405875,256.54251361666667,62.0,82.0
1267,256.1843405875,256.5545328458333,59.0,68.0
1268,256.1843405875,256.5978020708333,44.0,83.0
1269,260.8958784208333,261.44635911666666,62.0,60.0
1270,260.8958784208333,261.4511668083333,67.0,68.0
1271,260.8958784208333,261.4800129583333,71.0,61.0
1272,261.7612629208333,262.4535705208333,62.0,52.0
1273,261.4728014208333,262.4968397458333,57.0,42.0
1274,262.3381859208333,262.64347434166666,74.0,77.0
1275,262.91510892083335,264.71558945,57.0,49.0
1276,260.8958784208333,264.92472403749997,45.0,71.0
1277,264.93433942083334,265.38385859166664,57.0,44.0
1278,265.5112624208333,266.16030079583334,74.0,72.0
1279,265.79972392083334,266.58097381666664,57.0,62.0
1280,266.3766469208333,267.0689545208333,67.0,82.0
1281,266.0881854208333,267.1795314291667,62.0,72.0
1282,265.5112624208333,267.2997237208333,50.0,74.0
1283,267.2420314208333,267.50405061666663,69.0,76.0
1284,266.95356992083333,267.50885830833334,57.0,68.0
1285,267.81895442083334,268.393473575,67.0,71.0
1286,267.81895442083334,268.43193510833333,62.0,49.0
1287,267.81895442083334,268.4679927958333,71.0,63.0
1288,267.5304929208333,268.81414659583334,74.0,73.0
1289,268.68433892083334,269.1074157875,62.0,54.0
1290,268.9728004208333,269.32616575833333,67.0,76.0
1291,268.3958774208333,269.44395420416663,59.0,72.0
1292,269.2612619208333,269.49924265833334,69.0,73.0
1293,267.81895442083334,269.7853003125,50.0,71.0
1294,268.1074159208333,269.8141464625,55.0,67.0
1295,269.54972342083335,270.0857810416667,71.0,73.0
1296,270.1266464208333,270.8093386375,69.0,71.0
1297,270.1266464208333,270.82616555833334,66.0,69.0
1298,270.1266464208333,270.8694347833333,64.0,55.0
1299,269.8381849208333,270.87183862916663,74.0,73.0
1300,270.70356942083333,271.6434731416667,57.0,54.0
1301,271.2804924208333,271.67953082916665,64.0,73.0
1302,271.56895392083334,271.81174235,66.0,75.0
1303,270.9920309208333,271.8189538875,62.0,63.0
1304,271.8574154208333,272.08337692916666,67.0,77.0
1305,271.8574154208333,272.18433845416666,57.0,71.0
1306,270.1266464208333,272.1867423,50.0,78.0
1307,272.1458769208333,272.38385765833334,69.0,73.0
1308,272.43433842083334,272.7636653,62.0,71.0
1309,272.43433842083334,272.778088375,67.0,81.0
1310,272.7227999208333,273.14828063333334,59.0,62.0
1311,272.43433842083334,273.2011652416667,55.0,79.0
1312,272.9920306541667,273.5064536625,62.0,59.0
1313,273.3213575333333,273.50885750833334,74.0,78.0
1314,273.68914594583333,273.7949151625,62.0,75.0
1315,273.6939536375,273.845395925,73.0,83.0
1316,274.03289589999997,274.1170305041667,64.0,45.0
1317,274.02328051666666,274.17472280416666,74.0,77.0
1318,274.35501124166666,274.4583766125,67.0,63.0
1319,274.36462662499997,274.49443429999997,76.0,82.0
1320,274.77568426249996,274.8646265583333,57.0,78.0
1321,274.75404965,274.8646265583333,71.0,68.0
1322,274.3718381625,274.87424194166664,52.0,76.0
1323,273.68914594583333,274.8910688625,45.0,79.0
1324,274.7636650333333,274.8910688625,79.0,83.0
1325,275.2804918875,275.43674186666664,38.0,78.0
1326,275.2131842041667,275.63866491666664,69.0,60.0
1327,275.25885727499997,275.63866491666664,74.0,76.0
1328,275.3622226458333,275.68193414166666,78.0,78.0
1329,275.79251105,276.12183792916665,50.0,60.0
1330,275.9391456458333,276.1458763875,57.0,71.0
1331,276.1074148541667,276.20116484166664,62.0,83.0
1332,276.2780879083333,276.4583763458333,64.0,69.0
1333,276.43433788749996,276.74683784583334,66.0,73.0
1334,276.58578017499997,276.79972245416667,69.0,76.0
1335,276.7540493833333,276.94635704999996,74.0,76.0
1336,276.95837627916666,277.2276070125,76.0,57.0
1337,276.9511647416667,277.3742416083333,78.0,63.0
1338,277.31895315416665,277.48962620833333,81.0,73.0
1339,277.53049158749997,277.73241463749997,86.0,57.0
1340,277.75885694166664,278.028087675,88.0,73.0
1341,277.970395375,278.19635688333335,90.0,77.0
1342,278.2396261083333,278.2997222541667,93.0,55.0
1343,278.5401068375,278.5977991375,98.0,73.0
