,start,end,pitch,velocity
0,22.666643999999998,22.8740512,64.0,93.0
1,22.888866,23.3925692,66.0,85.0
2,23.555532,23.74997625,68.0,96.0
3,23.777753999999998,24.3370127,68.0,94.0
4,24.44442,24.6259013,68.0,99.0
5,24.666642,24.79812335,66.0,90.0
6,24.888863999999998,25.04627125,66.0,91.0
7,25.111086,25.89071485,68.0,96.0
8,26.888862,27.099972899999997,59.0,90.0
9,27.111083999999998,27.364787449999998,64.0,92.0
10,27.333306,28.78700825,61.0,88.0
11,30.222192,30.3555252,64.0,95.0
12,30.444414,30.5851546,66.0,92.0
13,30.666636,30.83515435,66.0,81.0
14,30.888858,31.48145,68.0,91.0
15,31.555524,31.72774605,68.0,95.0
16,31.777746,31.9073755,66.0,85.0
17,31.999968,32.16107895,71.0,92.0
18,32.22219,33.0481151,68.0,91.0
19,33.3333,33.7555218,71.0,93.0
20,33.777744,33.99070675,68.0,89.0
21,33.999966,34.14626215,64.0,90.0
22,34.222187999999996,36.222186,61.0,85.0
23,37.111074,37.231444249999996,71.0,92.0
24,37.333296,37.48329585,71.0,94.0
25,37.555518,37.68329565,68.0,94.0
26,37.77774,38.56477625,71.0,92.0
27,38.666627999999996,38.9925536,71.0,95.0
28,39.111072,39.28329405,73.0,92.0
29,39.333294,40.222182,71.0,91.0
30,40.888847999999996,41.036996,64.0,93.0
31,41.11107,41.3851438,66.0,91.0
32,41.555513999999995,42.6703277,61.0,87.0
33,44.4444,44.59069615,64.0,94.0
34,44.666622,44.79810335,66.0,91.0
35,44.888844,45.04625125,68.0,93.0
36,45.111066,45.23884365,66.0,95.0
37,45.333287999999996,45.462917499999996,68.0,94.0
38,45.55551,46.3221759,59.0,92.0
39,47.333286,47.48698955,59.0,91.0
40,47.555507999999996,47.71291525,59.0,92.0
41,47.77773,48.444396,66.0,90.0
42,48.444396,50.23143125,64.0,93.0
43,51.111059999999995,51.3184672,64.0,93.0
44,51.333282,51.8369852,66.0,85.0
45,51.999947999999996,52.19439225,66.0,96.0
46,52.22217,52.666613999999996,68.0,94.0
47,52.666613999999996,52.796243499999996,68.0,91.0
48,52.888836,53.0073544,68.0,91.0
49,53.333279999999995,53.453650249999995,66.0,93.0
50,53.555502,54.011057099999995,71.0,96.0
51,54.222167999999996,54.44439,68.0,93.0
52,54.44439,54.666612,68.0,93.0
53,54.666612,55.04253755,68.0,92.0
54,55.111056,55.2517966,66.0,92.0
55,55.333278,55.77216645,64.0,96.0
56,55.777722,56.88698015,61.0,92.0
57,58.666608,58.7999412,64.0,95.0
58,58.88883,59.0295706,66.0,92.0
59,59.111052,59.27957035,66.0,81.0
60,59.333273999999996,59.925866,68.0,91.0
61,59.999939999999995,60.17216205,68.0,95.0
62,60.222162,60.666605999999994,59.0,85.0
63,60.888828,61.04993895,71.0,92.0
64,61.11105,61.9369751,68.0,91.0
65,62.444382,62.58697445,59.0,92.0
66,62.666604,62.820307549999995,64.0,92.0
67,62.888825999999995,63.89438055,61.0,90.0
68,65.55548999999999,65.67586025,71.0,92.0
69,65.777712,65.92771185,71.0,94.0
70,65.999934,66.12771165,68.0,94.0
71,66.222156,67.00919225,71.0,92.0
72,67.11104399999999,67.4369696,71.0,95.0
73,67.555488,67.7184508,68.0,91.0
74,67.77771,68.15733924999999,68.0,90.0
75,68.222154,69.0665976,71.0,91.0
76,69.555486,69.703634,59.0,93.0
77,69.777708,70.0517818,64.0,91.0
78,70.222152,71.3369657,61.0,87.0
79,72.88881599999999,73.03511215,64.0,94.0
80,73.111038,73.24251935,66.0,91.0
81,73.33326,73.49066725,68.0,93.0
82,73.555482,74.888814,59.0,92.0
83,75.999924,76.15733125,59.0,92.0
84,76.222146,76.888812,66.0,90.0
85,76.888812,78.67584725,64.0,93.0
86,79.333254,79.4702909,68.0,94.0
87,79.555476,79.7110314,68.0,89.0
88,79.777698,80.13510504999999,71.0,92.0
89,80.22214199999999,80.33880855,71.0,91.0
90,80.444364,80.58695645,71.0,96.0
91,80.666586,81.73880715,73.0,94.0
92,81.999918,82.11658455,71.0,94.0
93,82.22214,82.39436205,73.0,94.0
94,82.444362,82.67213955,76.0,92.0
95,82.888806,83.0073244,76.0,92.0
96,83.11102799999999,83.4036203,76.0,93.0
97,83.555472,83.67584225,73.0,92.0
98,83.777694,83.91287905,68.0,96.0
99,83.999916,84.90732249999999,71.0,92.0
100,86.444358,86.5702838,68.0,94.0
101,86.66658,86.82769094999999,68.0,91.0
102,87.111024,87.2554683,71.0,92.0
103,87.333246,87.46843104999999,71.0,94.0
104,87.55546799999999,87.72398635,71.0,94.0
105,87.77768999999999,87.90917135,73.0,90.0
106,87.999912,88.1295415,73.0,86.0
107,88.222134,88.34250424999999,73.0,86.0
108,88.444356,88.77213345,73.0,96.0
109,88.8888,89.0406517,71.0,92.0
110,89.11102199999999,89.43139205,78.0,93.0
111,89.555466,89.89805824999999,76.0,97.0
112,90.222132,90.5295391,73.0,94.0
113,90.66657599999999,90.81287215,71.0,94.0
114,90.888798,91.0073164,66.0,94.0
115,91.11102,92.46101865,68.0,92.0
116,93.999906,94.14990585,68.0,90.0
117,94.222128,94.3776834,66.0,99.0
118,94.44435,94.57027579999999,64.0,94.0
119,94.666572,94.962868,66.0,96.0
120,95.11101599999999,95.24249735,68.0,96.0
121,95.333238,95.999904,66.0,97.0
122,95.999904,96.13138535,64.0,94.0
123,96.222126,96.70545885,66.0,91.0
124,96.888792,96.9924956,59.0,90.0
125,97.111014,97.28693975,59.0,93.0
126,97.333236,97.60916164999999,73.0,94.0
127,97.77768,97.9036058,71.0,92.0
128,97.99990199999999,98.16101295,68.0,92.0
129,98.222124,98.444346,66.0,94.0
130,98.444346,99.47953015,68.0,94.0
131,101.11101,101.22582469999999,68.0,101.0
132,101.333232,101.46100965,66.0,94.0
133,101.555454,101.6813798,64.0,91.0
134,101.777676,101.9110092,66.0,91.0
135,101.999898,102.38137909999999,66.0,85.0
136,102.666564,102.94248965,66.0,95.0
137,102.888786,103.01285994999999,64.0,93.0
138,103.111008,103.99989599999999,66.0,94.0
139,104.44434,104.79804335,61.0,94.0
140,104.888784,105.0628579,64.0,96.0
141,105.111006,105.27396879999999,66.0,91.0
142,105.33322799999999,107.7554478,64.0,96.0
143,136.444308,136.65171519999998,64.0,93.0
144,136.66653,137.17023319999998,66.0,85.0
145,137.333196,137.52764025,66.0,96.0
146,137.555418,137.999862,68.0,94.0
147,137.999862,138.1294915,68.0,91.0
148,138.222084,138.3406024,68.0,91.0
149,138.666528,138.78689825,66.0,93.0
150,138.88875,139.34430509999999,71.0,96.0
151,139.555416,139.777638,68.0,93.0
152,139.777638,139.99985999999998,68.0,93.0
153,139.99985999999998,140.37578555,68.0,92.0
154,140.444304,140.5850446,66.0,92.0
155,140.666526,141.10541444999998,64.0,96.0
156,141.11097,142.22022815,61.0,92.0
157,143.999856,144.1331892,64.0,95.0
158,144.22207799999998,144.3628186,66.0,92.0
159,144.4443,144.61281835,66.0,81.0
160,144.666522,145.25911399999998,68.0,91.0
161,145.333188,145.50541005,68.0,95.0
162,145.55541,145.999854,59.0,85.0
163,146.222076,146.38318694999998,71.0,92.0
164,146.444298,147.27022309999998,68.0,91.0
165,147.77763,147.92022244999998,59.0,92.0
166,147.999852,148.15355555,64.0,92.0
167,148.222074,149.22762855,61.0,90.0
168,150.888738,151.00910825,71.0,92.0
169,151.11096,151.26095985,71.0,94.0
170,151.333182,151.46095965,68.0,94.0
171,151.55540399999998,152.34244024999998,71.0,92.0
172,152.444292,152.7702176,71.0,95.0
173,152.888736,153.0516988,68.0,91.0
174,153.11095799999998,153.49058725,68.0,90.0
175,153.555402,154.3998456,71.0,91.0
176,154.888734,155.036882,59.0,93.0
177,155.110956,155.38502979999998,64.0,91.0
178,155.5554,156.6702137,61.0,87.0
179,158.222064,158.36836015,64.0,94.0
180,158.444286,158.57576735,66.0,91.0
181,158.666508,158.82391525,68.0,93.0
182,158.88872999999998,160.222062,59.0,92.0
183,161.333172,161.49057925,59.0,92.0
184,161.555394,162.22206,66.0,90.0
185,162.22206,164.18934930833333,64.0,93.0
186,165.02024057916665,165.20085077708333,68.0,94.0
187,165.31381530625004,165.52277038125,68.0,89.0
188,165.61232255625004,166.0924217166667,71.0,92.0
189,166.20933705625004,166.36605336250003,71.0,91.0
190,166.50784430625004,166.69938645833335,71.0,96.0
191,166.80635155625004,167.95040798333338,73.0,94.0
192,168.21151883333337,168.32818538333336,71.0,94.0
193,168.43374083333336,168.60596288333338,73.0,94.0
194,168.65596283333338,168.88374038333336,76.0,92.0
195,169.10040683333338,169.21892523333338,76.0,92.0
196,169.32262883333337,169.61522113333336,76.0,93.0
197,169.76707283333337,169.88744308333338,73.0,92.0
198,169.98929483333336,170.12447988333338,68.0,96.0
199,170.21151683333338,171.11892333333338,71.0,92.0
200,172.6559588333334,172.78188463333336,68.0,94.0
201,172.87818083333337,173.03929178333337,68.0,91.0
202,173.32262483333338,173.46706913333338,71.0,92.0
203,173.54484683333337,173.68003188333338,71.0,94.0
204,173.76706883333338,173.93558718333338,71.0,94.0
205,173.98929083333337,174.12077218333337,73.0,90.0
206,174.21151283333336,174.34114233333338,73.0,86.0
207,174.43373483333338,174.55410508333338,73.0,86.0
208,174.65595683333336,174.98373428333338,73.0,96.0
209,175.10040083333337,175.25225253333338,71.0,92.0
210,175.32262283333338,175.64299288333336,78.0,93.0
211,175.7670668333334,176.10965908333338,76.0,97.0
212,176.43373283333338,176.7411399333334,73.0,94.0
213,176.87817683333338,177.02447298333337,71.0,94.0
214,177.10039883333337,177.21891723333337,66.0,94.0
215,177.32262083333336,178.67261948333336,68.0,92.0
216,180.21150683333337,180.36150668333337,68.0,90.0
217,180.43372883333336,180.5892842333334,66.0,99.0
218,180.65595083333338,180.78187663333338,64.0,94.0
219,180.87817283333337,181.17446883333338,66.0,96.0
220,181.32261683333337,181.45409818333337,68.0,96.0
221,181.54483883333336,182.21150483333338,66.0,97.0
222,182.21150483333338,182.34298618333338,64.0,94.0
223,182.43372683333337,182.91705968333338,66.0,91.0
224,183.1003928333334,183.20409643333338,59.0,90.0
225,183.32261483333338,183.49854058333338,59.0,93.0
226,183.54483683333336,183.82076248333337,73.0,94.0
227,183.98928083333337,184.11520663333337,71.0,92.0
228,184.21150283333338,184.37261378333338,68.0,92.0
229,184.43372483333337,184.65594683333336,66.0,94.0
230,184.65594683333336,185.69113098333338,68.0,94.0
231,187.32261083333339,187.43742553333337,68.0,101.0
232,187.54483283333337,187.67261048333336,66.0,94.0
233,187.76705483333336,187.89298063333337,64.0,91.0
234,187.98927683333338,188.1226100333334,66.0,91.0
235,188.21149883333337,188.59297993333337,66.0,85.0
236,188.87816483333336,189.15409048333336,66.0,95.0
237,189.10038683333337,189.22446078333337,64.0,93.0
238,189.32260883333336,190.21149683333337,66.0,94.0
239,190.65594083333337,191.00964418333336,61.0,94.0
240,191.10038483333338,191.27445873333338,64.0,96.0
241,191.32260683333337,191.48556963333337,66.0,91.0
242,191.54482883333338,193.96704863333338,64.0,96.0
243,250.87810283333337,251.01513973333337,68.0,94.0
244,251.1003248333334,251.25588023333336,68.0,89.0
245,251.32254683333338,251.67995388333338,71.0,92.0
246,251.76699083333335,251.88365738333337,71.0,91.0
247,251.98921283333337,252.13180528333336,71.0,96.0
248,252.21143483333339,253.28365598333338,73.0,94.0
249,253.54476683333337,253.66143338333336,71.0,94.0
250,253.76698883333336,253.93921088333337,73.0,94.0
251,253.98921083333337,254.2169883833334,76.0,92.0
252,254.43365483333338,254.55217323333338,76.0,92.0
253,254.65587683333337,254.9484691333334,76.0,93.0
254,255.10032083333337,255.22069108333335,73.0,92.0
255,255.3225428333334,255.45772788333338,68.0,96.0
256,255.54476483333337,256.45217133333335,71.0,92.0
257,257.98920683333336,258.11513263333336,68.0,94.0
258,258.21142883333334,258.37253978333337,68.0,91.0
259,258.6558728333334,258.80031713333335,71.0,92.0
260,258.87809483333336,259.0132798833334,71.0,94.0
261,259.10031683333335,259.26883518333335,71.0,94.0
262,259.3225388333334,259.45402018333334,73.0,90.0
263,259.5447608333334,259.67439033333335,73.0,86.0
264,259.7669828333334,259.8873530833334,73.0,86.0
265,259.98920483333336,260.31698228333335,73.0,96.0
266,260.43364883333334,260.5855005333334,71.0,92.0
267,260.6558708333334,260.9762408833334,78.0,93.0
268,261.10031483333336,261.44290708333335,76.0,97.0
269,261.7669808333334,262.07438793333336,73.0,94.0
270,262.21142483333335,262.35772098333337,71.0,94.0
271,262.43364683333334,262.55216523333337,66.0,94.0
272,262.6558688333334,264.00586748333336,68.0,92.0
273,265.5447548333334,265.6947546833334,68.0,90.0
274,265.7669768333334,265.92253223333336,66.0,99.0
275,265.9891988333334,266.1151246333334,64.0,94.0
276,266.21142083333336,266.50771683333335,66.0,96.0
277,266.65586483333334,266.7873461833334,68.0,96.0
278,266.8780868333334,267.5447528333334,66.0,97.0
279,267.5447528333334,267.67623418333335,64.0,94.0
280,267.7669748333334,268.2503076833334,66.0,91.0
281,268.43364083333336,268.5373444333334,59.0,90.0
282,268.65586283333334,268.8317885833334,59.0,93.0
283,268.8780848333334,269.15401048333337,73.0,94.0
284,269.32252883333337,269.44845463333337,71.0,92.0
285,269.54475083333335,269.7058617833334,68.0,92.0
286,269.7669728333334,269.9891948333334,66.0,94.0
287,269.9891948333334,271.02437898333335,68.0,94.0
288,272.65585883333335,272.77067353333337,68.0,101.0
289,272.87808083333334,273.0058584833334,66.0,94.0
290,273.1003028333334,273.22622863333333,64.0,91.0
291,273.3225248333334,273.45585803333336,66.0,91.0
292,273.54474683333336,273.9262279333334,66.0,85.0
293,274.2114128333334,274.48733848333336,66.0,95.0
294,274.4336348333334,274.5577087833334,64.0,93.0
295,274.65585683333336,275.55081125000004,66.0,94.0
296,276.06805225000005,276.4796898791667,61.0,94.0
297,276.58529325000006,276.78787930833334,64.0,96.0
298,276.84391375,277.03356878333335,66.0,91.0
299,277.10253425,279.63460037083337,64.0,96.0
300,279.8836568708334,280.0949775375001,64.0,93.0
301,280.1100718708334,280.62327920416675,66.0,85.0
302,280.7893168708334,280.9874299958334,68.0,96.0
303,281.0157318708334,281.5855429541667,68.0,94.0
304,281.6949768708334,281.8798824541667,68.0,99.0
305,281.9213918708334,282.0553540791667,66.0,90.0
306,282.1478068708334,282.3081841625001,66.0,91.0
307,282.37422187083337,283.16856116250005,68.0,96.0
308,284.1855418708334,284.4006361208334,59.0,90.0
309,284.4119568708334,284.67044732916673,64.0,92.0
310,284.6383718708334,286.1195033291667,61.0,88.0
311,287.5817668708334,287.7176158708334,64.0,95.0
312,287.8081818708334,287.95157803750004,66.0,92.0
313,288.0345968708334,288.2062949125001,66.0,81.0
314,288.2610118708334,288.8647852041667,68.0,91.0
315,288.94025687083337,289.11572849583337,68.0,95.0
316,289.1666718708334,289.2987472875001,66.0,85.0
317,289.3930868708334,289.5572377458334,71.0,92.0
318,289.6195018708334,290.46101095416674,68.0,91.0
319,290.7515768708334,291.1817653708334,71.0,93.0
320,291.2044068708334,291.42138791250005,68.0,89.0
321,291.43082187083337,291.5798784125001,64.0,90.0
322,291.6572368708334,293.6949718708334,61.0,85.0
323,294.6006318708334,294.7232733291667,71.0,92.0
324,294.8270468708334,294.97987699583337,71.0,94.0
325,295.0534618708334,295.1836504958334,68.0,94.0
326,295.2798768708334,296.08176332916673,71.0,92.0
327,296.1855368708334,296.5176122041667,71.0,95.0
328,296.6383668708334,296.8138384958334,73.0,92.0
329,296.8647818708334,297.7704418708334,71.0,91.0
330,298.4496868708334,298.60063020416675,64.0,93.0
331,298.6761018708334,298.9553470375001,66.0,91.0
332,299.1289318708334,300.2647804541667,61.0,87.0
333,302.1968551208334,302.4515719958334,64.0,90.0
334,302.5081757458334,302.66666624583337,66.0,90.0
335,302.77043978750004,302.99685478750007,68.0,90.0
336,303.0251566625001,303.1987414958334,66.0,90.0
337,303.3232697458334,303.5213828708334,68.0,97.0
338,303.6685526208334,305.06855203750007,59.0,92.0
339,306.30817416250005,306.57987216250007,59.0,92.0
340,306.6610042041667,306.9062871208334,59.0,94.0
341,306.9723248291667,307.93270178750004,66.0,80.0
342,307.8911923708334,310.37421020416673,64.0,92.0
