,start,end,pitch,velocity
0,9.333324,9.95369375,64.0,91.0
1,9.333324,9.97591595,68.0,87.0
2,10.222211999999999,10.39073035,64.0,87.0
3,10.222211999999999,10.74998925,68.0,83.0
4,10.666656,10.89813725,64.0,78.0
5,11.1111,11.3444331,64.0,76.0
6,11.1111,11.362951599999999,68.0,73.0
7,9.777768,12.20183965,47.0,69.0
8,9.333324,12.27591365,40.0,92.0
9,11.999988,12.3740617,68.0,96.0
10,11.999988,12.3851728,64.0,90.0
11,12.444431999999999,12.89443155,40.0,86.0
12,12.888876,12.9481352,67.0,79.0
13,12.888876,13.1629498,64.0,86.0
14,12.888876,13.52406055,73.0,79.0
15,12.888876,13.664801149999999,69.0,77.0
16,13.333319999999999,13.6814678,64.0,84.0
17,13.777764,13.9777638,64.0,83.0
18,13.777764,14.4481337,69.0,84.0
19,14.222208,14.48331885,64.0,77.0
20,14.666652,14.833318499999999,64.0,73.0
21,14.666652,15.29813285,69.0,70.0
22,15.111096,15.3110958,64.0,64.0
23,15.555539999999999,16.00183585,69.0,94.0
24,15.555539999999999,16.11294685,64.0,95.0
25,15.999984,16.3110948,71.0,78.0
26,12.888876,16.3370207,45.0,86.0
27,16.444428,16.7555388,64.0,90.0
28,16.444428,16.94257565,68.0,82.0
29,16.888872,17.16479765,64.0,73.0
30,17.333316,17.4925751,64.0,81.0
31,17.333316,17.52776025,68.0,74.0
32,17.333316,17.55738985,71.0,82.0
33,18.222203999999998,18.39442605,64.0,82.0
34,18.666648,18.8629441,64.0,75.0
35,18.222203999999998,18.864795949999998,68.0,81.0
36,19.111092,19.312943649999998,64.0,94.0
37,19.111092,19.6036841,68.0,95.0
38,19.555536,19.8851653,64.0,86.0
39,16.444428,19.916646749999998,40.0,90.0
40,19.99998,20.21294275,64.0,90.0
41,19.99998,20.69072005,69.0,90.0
42,20.444423999999998,20.7259052,64.0,81.0
43,20.888868,21.01664565,64.0,77.0
44,20.888868,21.5666451,69.0,75.0
45,21.333312,21.6444228,64.0,75.0
46,21.777756,22.46108865,64.0,76.0
47,21.777756,22.48331085,69.0,76.0
48,22.666643999999998,23.483309849999998,64.0,84.0
49,22.666643999999998,23.49442095,69.0,82.0
50,19.99998,23.53145795,45.0,91.0
51,23.555532,24.016642649999998,68.0,80.0
52,23.555532,24.03516115,64.0,90.0
53,23.999976,24.455531099999998,59.0,77.0
54,24.44442,24.555531,64.0,92.0
55,24.44442,24.58701245,68.0,92.0
56,24.888863999999998,25.42034495,59.0,79.0
57,25.333308,26.1370109,64.0,90.0
58,25.333308,26.1629368,68.0,81.0
59,26.222196,26.666639999999997,68.0,94.0
60,26.222196,26.6888622,64.0,90.0
61,23.555532,26.722195499999998,40.0,92.0
62,26.666639999999997,26.846269449999998,59.0,90.0
63,27.111083999999998,27.5777502,61.0,80.0
64,27.111083999999998,27.5814539,64.0,88.0
65,27.111083999999998,27.638861249999998,57.0,84.0
66,27.999972,28.2777495,61.0,80.0
67,27.999972,28.32034205,64.0,90.0
68,28.444416,28.92034145,57.0,59.0
69,28.888859999999998,29.0962672,64.0,83.0
70,28.888859999999998,29.12034125,61.0,76.0
71,28.888859999999998,29.1296005,69.0,85.0
72,29.333304,29.56478525,57.0,36.0
73,27.555528,29.8814516,52.0,78.0
74,29.777748,29.9370071,61.0,94.0
75,27.111083999999998,29.96108115,45.0,91.0
76,29.777748,30.07219215,64.0,94.0
77,30.222192,30.264784549999998,57.0,76.0
78,30.666636,31.290709449999998,68.0,82.0
79,30.666636,31.296265,64.0,89.0
80,31.111079999999998,31.5407092,59.0,70.0
81,31.555524,31.64626465,64.0,87.0
82,31.555524,31.67589425,68.0,84.0
83,31.999968,32.2036715,59.0,70.0
84,32.444412,32.55737485,64.0,88.0
85,32.444412,32.60181925,68.0,78.0
86,30.666636,33.41292955,40.0,91.0
87,33.3333,33.4962628,64.0,93.0
88,33.3333,33.70922555,68.0,92.0
89,33.777744,33.883299449999996,59.0,91.0
90,34.222187999999996,34.8814466,61.0,79.0
91,34.222187999999996,34.888854,64.0,84.0
92,34.222187999999996,35.04255755,57.0,78.0
93,35.111076,35.24255735,61.0,74.0
94,35.111076,35.2777425,64.0,84.0
95,35.55552,35.9036678,57.0,54.0
96,35.999964,36.146260149999996,61.0,80.0
97,35.999964,36.1629268,64.0,90.0
98,35.999964,36.2184823,69.0,86.0
99,34.666632,36.4407043,52.0,78.0
100,34.222187999999996,36.4666302,45.0,91.0
101,36.888852,37.148111,61.0,90.0
102,36.888852,37.172185049999996,64.0,92.0
103,36.888852,37.192555399999996,69.0,91.0
104,38.222184,38.746257549999996,52.0,96.0
105,38.666627999999996,38.905516649999996,56.0,87.0
106,38.666627999999996,38.9073685,64.0,91.0
107,38.666627999999996,38.92773885,59.0,89.0
108,39.111072,39.52773825,52.0,70.0
109,39.555516,39.751812099999995,56.0,72.0
110,39.555516,39.7999602,59.0,75.0
111,39.555516,39.8666268,64.0,77.0
112,39.99996,40.381441099999996,52.0,74.0
113,37.77774,40.64255195,40.0,93.0
114,40.444404,40.718477799999995,56.0,91.0
115,40.444404,40.7444037,59.0,90.0
116,40.444404,40.7740333,64.0,91.0
117,41.333292,41.885143299999996,61.0,82.0
118,41.333292,41.8999581,64.0,85.0
119,41.333292,41.94255065,57.0,79.0
120,42.22218,42.3518095,61.0,88.0
121,42.22218,42.36477245,64.0,90.0
122,42.666624,43.190697549999996,57.0,71.0
123,43.111067999999996,43.25366045,61.0,78.0
124,43.111067999999996,43.279586349999995,64.0,90.0
125,43.111067999999996,43.3184752,69.0,87.0
126,41.777736,44.1999558,52.0,79.0
127,41.333292,44.266622399999996,45.0,90.0
128,43.999956,44.32032605,69.0,89.0
129,43.999956,44.36106675,64.0,91.0
130,43.999956,44.3999556,61.0,90.0
131,44.4444,44.5443999,57.0,91.0
132,44.888844,45.46476935,56.0,72.0
133,44.888844,45.52773225,59.0,84.0
134,44.888844,45.7888431,52.0,82.0
135,45.333287999999996,45.9332874,47.0,71.0
136,44.888844,45.9555096,40.0,91.0
137,45.777732,46.049953949999995,56.0,86.0
138,45.777732,46.099953899999996,59.0,88.0
139,46.222176,46.577731199999995,52.0,92.0
140,45.777732,46.703657,64.0,91.0
141,47.111064,47.6406931,59.0,85.0
142,46.66662,47.86106325,47.0,93.0
143,47.555507999999996,47.888841,63.0,86.0
144,47.555507999999996,48.072174149999995,66.0,81.0
145,47.999952,48.30921095,59.0,91.0
146,48.444396,48.68698835,59.0,82.0
147,48.444396,49.03513615,64.0,89.0
148,48.88884,49.41661725,59.0,81.0
149,49.333284,49.4851357,68.0,71.0
150,49.333284,49.4925431,64.0,86.0
151,49.777727999999996,50.3518015,59.0,72.0
152,50.222172,50.60180125,68.0,76.0
153,50.222172,50.8814306,64.0,83.0
154,50.666616,51.06476375,59.0,68.0
155,51.111059999999995,51.25735615,64.0,88.0
156,51.111059999999995,51.3258746,69.0,90.0
157,51.333282,51.54624475,68.0,82.0
158,51.555504,51.82772595,64.0,86.0
159,51.777726,51.97587395,59.0,80.0
160,48.444396,52.09439235,40.0,91.0
161,51.999947999999996,52.09439235,40.0,92.0
162,51.999947999999996,52.3258736,59.0,84.0
163,51.999947999999996,52.47216975,64.0,90.0
164,52.888836,53.0295766,59.0,91.0
165,52.888836,53.0517988,68.0,94.0
166,53.555502,53.71661295,64.0,90.0
167,53.555502,53.72772405,59.0,84.0
168,53.999946,54.1740199,59.0,85.0
169,53.999946,54.211056899999996,68.0,86.0
170,52.444392,54.698093449999995,47.0,78.0
171,54.666612,54.962908,59.0,92.0
172,54.666612,54.998093149999995,64.0,95.0
173,54.888833999999996,55.2517966,47.0,82.0
174,55.333278,55.64253695,64.0,90.0
175,55.111056,55.6443888,59.0,93.0
176,55.999944,56.59438785,52.0,79.0
177,56.444388,56.651795199999995,57.0,82.0
178,56.444388,56.651795199999995,64.0,91.0
179,56.444388,56.6554989,61.0,87.0
180,57.111053999999996,57.24623905,69.0,90.0
181,57.111053999999996,57.270313099999996,57.0,88.0
182,57.555498,57.87216435,64.0,90.0
183,57.777719999999995,57.907349499999995,57.0,85.0
184,56.888832,58.5406822,52.0,70.0
185,58.444386,58.62031175,57.0,93.0
186,58.444386,58.675867249999996,64.0,99.0
187,58.444386,58.68327465,61.0,101.0
188,58.666608,58.79808935,52.0,86.0
189,55.555499999999995,58.825867099999996,45.0,92.0
190,58.88883,58.99068175,57.0,86.0
191,59.111052,59.411051699999994,64.0,90.0
192,59.111052,59.41660725,59.0,84.0
193,59.999939999999995,60.12771765,64.0,90.0
194,59.999939999999995,60.1517917,68.0,88.0
195,59.999939999999995,60.15364355,59.0,90.0
196,60.666605999999994,60.788828099999996,59.0,89.0
197,60.666605999999994,60.8110503,68.0,86.0
198,61.11105,61.2332721,59.0,82.0
199,61.11105,61.335123849999995,64.0,89.0
200,61.333272,61.4036423,59.0,64.0
201,61.777716,61.90549365,59.0,91.0
202,59.555496,61.96104915,47.0,78.0
203,61.777716,61.96104915,64.0,95.0
204,61.777716,62.00919725,68.0,92.0
205,59.111052,62.24993775,40.0,92.0
206,61.999938,62.259197,47.0,85.0
207,62.444382,62.76845575,64.0,88.0
208,62.222159999999995,62.8332705,59.0,93.0
209,63.111048,63.7628992,52.0,79.0
210,63.555492,64.03512115,61.0,91.0
211,63.555492,64.05734335,64.0,92.0
212,63.555492,64.0703063,57.0,90.0
213,63.999936,64.27215795,52.0,72.0
214,64.222158,64.47215775,57.0,82.0
215,64.222158,64.5147503,61.0,81.0
216,64.222158,64.51660215,64.0,90.0
217,64.222158,64.5258614,69.0,85.0
218,64.666602,65.06104605,61.0,79.0
219,65.111046,65.21660145,57.0,61.0
220,64.888824,65.37956425,52.0,81.0
221,65.333268,65.5888233,57.0,86.0
222,65.333268,65.65734175,61.0,90.0
223,62.666604,65.69437875,45.0,92.0
224,65.55548999999999,65.7110454,52.0,84.0
225,65.333268,65.73511945,64.0,92.0
226,65.777712,65.87586005,57.0,88.0
227,66.222156,66.89808125,59.0,83.0
228,66.222156,67.03697,52.0,87.0
229,67.11104399999999,67.2554883,56.0,90.0
230,67.11104399999999,67.27215495,59.0,91.0
231,66.6666,67.7443767,47.0,73.0
232,66.222156,67.76845075,40.0,91.0
233,67.77771,67.9777098,56.0,84.0
234,67.77771,67.9888209,52.0,90.0
235,67.77771,68.0147468,64.0,91.0
236,68.222154,68.43882045,52.0,85.0
237,68.222154,68.52770925,59.0,85.0
238,68.44437599999999,68.56104255,52.0,77.0
239,68.44437599999999,68.6110425,56.0,76.0
240,68.88882,69.09807905,52.0,92.0
241,68.88882,69.12770865,56.0,91.0
242,68.88882,69.148079,59.0,91.0
243,68.88882,69.2517826,64.0,91.0
244,69.777708,70.2888186,57.0,85.0
245,69.777708,70.44622585,61.0,79.0
246,69.777708,70.4851147,64.0,90.0
247,70.666596,70.83511435,57.0,90.0
248,70.666596,70.84992915,69.0,88.0
249,71.11104,71.21659545,57.0,82.0
250,71.33326199999999,71.50178035,57.0,90.0
251,71.33326199999999,71.50178035,64.0,92.0
252,71.777706,71.92770585,57.0,82.0
253,71.777706,71.92770585,61.0,79.0
254,71.777706,71.94622435,64.0,90.0
255,72.22215,72.3591869,57.0,72.0
256,70.222152,72.6443718,52.0,83.0
257,69.777708,72.69807545,45.0,90.0
258,72.444372,72.7184458,69.0,87.0
259,72.444372,72.72955689999999,61.0,77.0
260,72.444372,72.73140875,64.0,90.0
261,72.444372,72.75363095,57.0,84.0
262,73.33326,73.8406669,56.0,82.0
263,73.33326,73.87585204999999,59.0,86.0
264,73.33326,73.89807425,52.0,90.0
265,73.777704,74.28696275,47.0,73.0
266,74.222148,74.43140705,52.0,91.0
267,74.222148,74.46844405,56.0,91.0
268,74.222148,74.48325885,59.0,90.0
269,74.222148,74.4925181,64.0,91.0
270,73.33326,74.5406662,40.0,93.0
271,74.44436999999999,74.57955505,47.0,83.0
272,74.666592,74.79066594999999,52.0,90.0
273,75.111036,75.76473905,63.0,82.0
274,75.111036,75.814739,59.0,87.0
275,75.111036,76.2073312,47.0,91.0
276,75.999924,76.26473855,59.0,91.0
277,75.999924,76.27584965,63.0,91.0
278,76.222146,76.31659035,54.0,77.0
279,75.999924,76.3925162,66.0,82.0
280,76.444368,76.66473814999999,59.0,92.0
281,76.888812,77.19066355,64.0,87.0
282,76.888812,77.2665894,59.0,85.0
283,77.33325599999999,77.9147369,47.0,75.0
284,77.7777,77.9665887,52.0,85.0
285,77.7777,77.999922,59.0,84.0
286,77.7777,78.01103309999999,56.0,78.0
287,78.222144,78.46473635,47.0,63.0
288,78.444366,78.666588,52.0,90.0
289,78.444366,78.69066205,56.0,86.0
290,78.444366,78.6925139,64.0,91.0
291,78.444366,78.69436575,59.0,89.0
292,78.666588,78.91288405,47.0,78.0
293,78.88880999999999,79.1369579,52.0,97.0
294,78.88880999999999,79.18510599999999,56.0,90.0
295,78.88880999999999,79.1888097,59.0,92.0
296,79.333254,79.38695765,59.0,71.0
297,79.333254,79.45732794999999,52.0,93.0
298,76.888812,79.60547595,40.0,92.0
299,79.111032,79.60547595,47.0,83.0
300,79.555476,79.80177205,52.0,96.0
301,79.555476,79.8406609,64.0,92.0
302,79.555476,79.84992015,56.0,95.0
303,79.555476,79.851772,59.0,95.0
304,79.777698,79.92029045,47.0,96.0
305,79.99992,80.12399395,40.0,93.0
306,80.444364,81.01843749999999,64.0,90.0
307,80.444364,81.04251155,61.0,84.0
308,80.444364,81.1221411,57.0,90.0
309,80.888808,81.4814,52.0,83.0
310,81.333252,81.5147333,64.0,92.0
311,81.333252,81.51658515,61.0,91.0
312,81.333252,81.53139995,57.0,88.0
313,81.999918,82.15547339999999,64.0,91.0
314,81.999918,82.16843635,61.0,87.0
315,81.999918,82.1702882,69.0,85.0
316,81.999918,82.18695484999999,57.0,89.0
317,82.444362,82.60547294999999,64.0,79.0
318,82.444362,82.6702877,61.0,78.0
319,82.666584,83.21102789999999,52.0,82.0
320,83.11102799999999,83.25732415,57.0,91.0
321,83.11102799999999,83.27584265,64.0,94.0
322,83.11102799999999,83.28325004999999,61.0,91.0
323,80.444364,83.33139815,45.0,96.0
324,83.999916,84.52954509999999,56.0,75.0
325,83.999916,84.5517673,59.0,82.0
326,83.999916,84.56843395,52.0,85.0
327,84.888804,84.98510019999999,64.0,93.0
328,84.888804,84.9962113,52.0,93.0
329,85.55547,85.66102545,59.0,90.0
330,85.55547,85.67213654999999,52.0,91.0
331,85.999914,86.148062,52.0,90.0
332,85.999914,86.1517657,59.0,86.0
333,86.444358,86.5332468,52.0,84.0
334,84.44436,86.74991324999999,47.0,77.0
335,86.66658,86.9036168,52.0,95.0
336,86.66658,86.91843159999999,56.0,97.0
337,86.66658,86.9332464,59.0,92.0
338,83.999916,86.99065374999999,40.0,93.0
339,86.888802,87.01287595,47.0,94.0
340,87.111024,87.19435725,52.0,95.0
341,87.55546799999999,88.12028225,61.0,83.0
342,87.55546799999999,88.12768965,57.0,86.0
343,88.444356,88.5443559,57.0,93.0
344,88.444356,88.59805955,64.0,94.0
345,88.8888,88.9739851,57.0,86.0
346,89.11102199999999,89.25361445,69.0,90.0
347,89.11102199999999,89.2776885,57.0,91.0
348,89.555466,89.68879919999999,64.0,92.0
349,89.555466,89.70176215,57.0,90.0
350,89.99991,90.0850951,57.0,77.0
351,87.77768999999999,90.10546545,52.0,77.0
352,90.222132,90.4332429,57.0,90.0
353,90.222132,90.45731694999999,61.0,90.0
354,87.55546799999999,90.54805759999999,45.0,91.0
355,90.44435399999999,90.5739835,52.0,92.0
356,90.66657599999999,90.7813907,57.0,93.0
357,91.11102,91.7702786,56.0,81.0
358,91.11102,91.8443526,52.0,76.0
359,91.99990799999999,92.14250045,56.0,92.0
360,91.99990799999999,92.1776856,59.0,91.0
361,91.555464,92.36101875,47.0,78.0
362,92.666574,92.8332405,64.0,91.0
363,92.666574,92.83509235,52.0,91.0
364,92.666574,92.83694419999999,56.0,82.0
365,92.666574,92.84249975,59.0,87.0
366,93.111018,93.27768449999999,52.0,91.0
367,93.111018,93.29064745,59.0,90.0
368,93.55546199999999,93.65546189999999,52.0,90.0
369,92.444352,93.85731355,47.0,67.0
370,93.777684,93.99805415,52.0,92.0
371,93.777684,94.02027635,59.0,91.0
372,91.11102,94.03509115,40.0,91.0
373,93.999906,94.1221281,47.0,91.0
374,94.222128,94.31101679999999,52.0,96.0
375,94.666572,95.3443491,63.0,83.0
376,94.666572,95.36842315,59.0,86.0
377,95.55546,95.72397835,63.0,90.0
378,94.666572,95.74990425,47.0,92.0
379,95.55546,95.77212645,66.0,85.0
380,95.55546,95.79064495,59.0,90.0
381,95.999904,96.2332371,54.0,74.0
382,96.222126,96.42397765,63.0,85.0
383,96.222126,96.4369406,66.0,81.0
384,96.222126,96.4406443,59.0,90.0
385,96.66657,96.89805125,59.0,91.0
386,96.66657,96.9184216,66.0,90.0
387,97.111014,97.22768055,59.0,90.0
388,96.888792,97.2776805,54.0,86.0
389,97.333236,97.50545805,66.0,79.0
390,97.333236,97.55916169999999,63.0,95.0
391,97.333236,97.57212464999999,59.0,91.0
392,97.555458,97.64619865,51.0,73.0
393,97.77768,97.8665688,51.0,84.0
394,98.222124,98.7591605,61.0,85.0
395,98.222124,98.80545674999999,64.0,92.0
396,99.111012,99.21656745,64.0,95.0
397,99.111012,99.22767855,68.0,89.0
398,99.111012,99.2406415,61.0,90.0
399,99.777678,99.87212235,68.0,96.0
400,99.777678,99.89434455,61.0,93.0
401,100.222122,100.35730705,61.0,90.0
402,100.222122,100.41656625,64.0,92.0
403,100.666566,100.78323255,61.0,79.0
404,98.666568,100.90175095,44.0,65.0
405,98.222124,100.93508425,37.0,95.0
406,100.88878799999999,101.10545445,61.0,101.0
407,100.88878799999999,101.10915815,64.0,104.0
408,101.11101,101.2554543,44.0,92.0
409,101.333232,101.4110097,37.0,90.0
410,101.777676,102.40174945,57.0,89.0
411,101.777676,102.43878645,61.0,86.0
412,102.22211999999999,102.77211944999999,52.0,86.0
413,102.666564,102.87952675,57.0,91.0
414,102.666564,102.9332304,64.0,96.0
415,102.666564,102.9665637,61.0,96.0
416,101.777676,102.98323035,45.0,90.0
417,102.888786,103.0443414,52.0,91.0
418,103.111008,103.24063749999999,57.0,92.0
419,103.555452,104.06100705,59.0,90.0
420,103.555452,104.12396995,63.0,85.0
421,104.222118,104.33693269999999,59.0,91.0
422,103.99989599999999,104.4924881,54.0,82.0
423,104.44434,104.70545084999999,59.0,92.0
424,104.44434,104.78322854999999,63.0,92.0
425,104.666562,104.7924878,54.0,83.0
426,104.44434,104.8221174,66.0,88.0
427,103.555452,104.83693219999999,47.0,92.0
428,104.888784,105.04989495,59.0,89.0
429,105.33322799999999,105.95174589999999,61.0,79.0
430,105.33322799999999,106.073968,57.0,83.0
431,105.777672,106.34248625,52.0,77.0
432,106.222116,106.40730099999999,64.0,91.0
433,106.222116,106.41656025,57.0,89.0
434,106.222116,106.42767135,61.0,91.0
435,106.66655999999999,106.7554488,57.0,75.0
436,106.88878199999999,107.0517448,64.0,91.0
437,106.88878199999999,107.06841145,61.0,91.0
438,106.88878199999999,107.0776707,57.0,81.0
439,106.444338,107.3776704,52.0,81.0
440,107.333226,107.4924851,57.0,80.0
441,107.333226,107.51285544999999,64.0,90.0
442,107.77767,107.9110032,59.0,82.0
443,107.555448,108.08507709999999,52.0,79.0
444,107.999892,108.2776695,57.0,84.0
445,107.999892,108.34618795,64.0,93.0
446,108.22211399999999,108.3739657,52.0,91.0
447,105.33322799999999,108.4665582,45.0,91.0
448,108.44433599999999,108.57581735,57.0,83.0
449,108.88878,109.45729795,64.0,90.0
450,108.88878,109.51840899999999,59.0,85.0
451,109.77766799999999,109.89803825,59.0,91.0
452,109.77766799999999,109.92026045,68.0,91.0
453,109.333224,110.52396354999999,47.0,73.0
454,110.444334,110.5591487,64.0,91.0
455,110.444334,110.5813709,59.0,90.0
456,110.666556,110.94988905,47.0,72.0
457,110.888778,111.0554445,59.0,91.0
458,110.888778,111.11099999999999,64.0,95.0
459,111.33322199999999,111.46840705,59.0,90.0
460,111.11099999999999,111.69062905,47.0,85.0
461,111.555444,111.73877714999999,59.0,91.0
462,108.88878,111.74618455,40.0,91.0
463,111.555444,111.77025859999999,64.0,94.0
464,111.555444,111.80914745,68.0,91.0
465,112.444332,112.9332204,57.0,81.0
466,112.444332,112.96285,61.0,84.0
467,112.444332,112.99062775,64.0,89.0
468,113.110998,113.2702571,57.0,90.0
469,113.555442,113.62766415,57.0,82.0
470,113.555442,113.65729375,61.0,86.0
471,113.555442,113.68136779999999,64.0,91.0
472,114.22210799999999,114.4369226,57.0,85.0
473,114.22210799999999,114.4480337,69.0,91.0
474,112.888776,114.54247805,52.0,79.0
475,114.666552,114.93692209999999,52.0,78.0
476,114.888774,115.1665515,57.0,90.0
477,114.888774,115.19618109999999,61.0,92.0
478,114.888774,115.2295144,64.0,92.0
479,112.444332,115.4850697,45.0,91.0
480,115.333218,115.50173635,52.0,92.0
481,115.55543999999999,115.69618059999999,57.0,91.0
482,115.999884,116.26099485,64.0,89.0
483,115.999884,116.30543924999999,59.0,86.0
484,116.66655,116.83506835,59.0,87.0
485,116.66655,116.89432755,68.0,90.0
486,117.11099399999999,117.2406235,64.0,90.0
487,117.11099399999999,117.24803089999999,59.0,85.0
488,117.555438,117.6443268,59.0,76.0
489,116.444328,117.64617865,47.0,63.0
490,115.999884,117.66840085,40.0,91.0
491,117.77766,118.05358565,59.0,86.0
492,117.77766,118.22765955,64.0,89.0
493,118.44432599999999,118.59802954999999,59.0,90.0
494,118.44432599999999,118.63506654999999,68.0,94.0
495,118.222104,118.8554367,47.0,69.0
496,117.77766,118.90358479999999,40.0,90.0
497,118.88877,118.9961773,59.0,90.0
498,118.88877,119.00358469999999,64.0,92.0
499,119.110992,119.20914005,59.0,83.0
500,119.555436,120.04987994999999,57.0,80.0
501,119.555436,120.14617615,61.0,77.0
502,119.555436,120.26839824999999,64.0,88.0
503,120.444324,120.6072868,57.0,89.0
504,120.444324,120.6332127,61.0,90.0
505,120.444324,120.64617564999999,64.0,91.0
506,120.888768,121.0035827,57.0,89.0
507,121.11099,121.29802685,61.0,93.0
508,121.11099,121.3072861,64.0,93.0
509,121.11099,121.31839719999999,69.0,90.0
510,121.11099,121.3406194,57.0,90.0
511,120.666546,121.62024875,52.0,82.0
512,121.55543399999999,121.76098935,57.0,86.0
513,121.55543399999999,121.777656,64.0,90.0
514,121.999878,122.1258038,57.0,83.0
515,121.777656,122.27950735,52.0,80.0
516,122.2221,122.4554331,57.0,90.0
517,122.2221,122.4850627,64.0,94.0
518,119.555436,122.5406182,45.0,91.0
519,122.444322,122.6035811,52.0,63.0
520,122.666544,122.7961735,45.0,90.0
521,123.11098799999999,123.40543215,59.0,87.0
522,123.11098799999999,123.53506164999999,68.0,86.0
523,123.11098799999999,123.5813579,64.0,91.0
524,123.555432,123.66098745,59.0,78.0
525,123.11098799999999,123.6628393,40.0,92.0
526,123.999876,124.23135725,59.0,90.0
527,123.999876,124.27580164999999,68.0,93.0
528,124.44431999999999,124.60172725,59.0,92.0
529,124.66654199999999,124.9332084,59.0,91.0
530,124.66654199999999,124.9369121,64.0,94.0
531,124.222098,124.96468985,52.0,92.0
532,125.110986,125.2332081,59.0,84.0
533,125.110986,125.37580055,64.0,91.0
534,125.110986,125.54246705,68.0,85.0
535,125.55543,125.67580025,59.0,74.0
536,125.77765199999999,125.8739482,64.0,95.0
537,125.77765199999999,125.9109852,59.0,93.0
538,126.66654,127.13320619999999,57.0,80.0
539,126.66654,127.2257987,61.0,76.0
540,127.33320599999999,127.39246519999999,61.0,56.0
541,126.66654,127.60542794999999,64.0,88.0
542,127.33320599999999,127.66839085,57.0,90.0
543,127.77765,128.01653865,69.0,80.0
544,127.77765,128.02764975,61.0,80.0
545,127.77765,128.0295016,64.0,91.0
546,128.222094,128.370242,57.0,81.0
547,127.110984,128.7443157,52.0,81.0
548,128.666538,128.87579705,57.0,89.0
549,128.666538,128.8924637,64.0,92.0
550,129.110982,129.20913005,57.0,85.0
551,128.88876,129.3591299,52.0,81.0
552,129.333204,129.54987045,57.0,91.0
553,129.333204,129.57394449999998,61.0,96.0
554,126.66654,129.6220926,45.0,91.0
555,129.333204,129.6295,64.0,95.0
556,129.55542599999998,129.66468515,52.0,90.0
557,129.777648,129.87579605,57.0,95.0
558,130.222092,130.43505475,56.0,82.0
559,130.222092,130.44246214999998,52.0,90.0
560,130.222092,130.48690655,59.0,86.0
561,130.666536,131.00542455,47.0,72.0
562,130.888758,131.2183873,59.0,96.0
563,131.11097999999998,131.42023895,47.0,71.0
564,130.222092,131.43135005,40.0,91.0
565,131.333202,131.4332019,59.0,83.0
566,131.333202,131.48690555,64.0,92.0
567,131.999868,132.1961641,59.0,90.0
568,131.999868,132.46097865,63.0,85.0
569,132.444312,132.5220897,59.0,81.0
570,131.999868,132.90171895,47.0,92.0
571,132.66653399999998,132.9554226,59.0,91.0
572,132.66653399999998,133.01282995,66.0,85.0
573,133.110978,133.3517185,63.0,92.0
574,133.3332,133.43875545,59.0,90.0
575,133.777644,134.26468055,57.0,84.0
576,133.777644,134.2739398,61.0,81.0
577,134.44431,134.6887542,57.0,90.0
578,134.44431,134.69430975,64.0,91.0
579,134.888754,135.07208715,61.0,93.0
580,134.22208799999999,135.4183831,52.0,77.0
581,135.33319799999998,135.56467924999998,61.0,79.0
582,135.33319799999998,135.5813459,69.0,88.0
583,135.33319799999998,135.58690145,57.0,86.0
584,135.55542,135.84986415,52.0,90.0
585,135.777642,136.03134545,57.0,91.0
586,135.777642,136.0776417,61.0,89.0
587,135.777642,136.16467864999998,64.0,96.0
588,136.222086,136.31282665,57.0,79.0
589,135.999864,136.58319674999998,52.0,84.0
590,136.444308,137.30727009999998,61.0,85.0
591,136.444308,137.30727009999998,64.0,91.0
592,136.444308,137.31282565,57.0,84.0
593,136.88875199999998,137.31652935,52.0,92.0
594,133.777644,137.34245525,45.0,89.0
595,137.333196,137.6591216,59.0,84.0
596,137.333196,137.80541775,64.0,90.0
597,138.222084,138.36282459999998,59.0,91.0
598,138.222084,138.3850468,68.0,94.0
599,138.88875,139.04986094999998,64.0,90.0
600,138.88875,139.06097205,59.0,84.0
601,139.333194,139.5072679,59.0,85.0
602,139.333194,139.5443049,68.0,86.0
603,137.77764,140.03134144999999,47.0,78.0
604,139.99985999999998,140.296156,59.0,92.0
605,139.99985999999998,140.33134115,64.0,95.0
606,137.333196,140.55356315,40.0,92.0
607,140.222082,140.5850446,47.0,82.0
608,140.666526,140.97578495,64.0,90.0
609,140.444304,140.9776368,59.0,93.0
610,141.333192,141.92763585,52.0,79.0
611,141.777636,141.9850432,57.0,82.0
612,141.777636,141.9850432,64.0,91.0
613,141.777636,141.9887469,61.0,87.0
614,142.444302,142.57948704999998,69.0,90.0
615,142.444302,142.6035611,57.0,88.0
616,142.888746,143.20541235,64.0,90.0
617,143.11096799999999,143.2405975,57.0,85.0
618,142.22208,143.8739302,52.0,70.0
619,143.777634,143.95355974999998,57.0,93.0
620,143.777634,144.00911525,64.0,99.0
621,143.777634,144.01652264999998,61.0,101.0
622,143.999856,144.13133735,52.0,86.0
623,140.888748,144.1591151,45.0,92.0
624,144.22207799999998,144.32392975,57.0,86.0
625,144.4443,144.7442997,64.0,90.0
626,144.4443,144.74985525,59.0,84.0
627,145.333188,145.46096565,64.0,90.0
628,145.333188,145.4850397,68.0,88.0
629,145.333188,145.48689155,59.0,90.0
630,145.999854,146.1220761,59.0,89.0
631,145.999854,146.1442983,68.0,86.0
632,146.444298,146.5665201,59.0,82.0
633,146.444298,146.66837185,64.0,89.0
634,146.66652,146.7368903,59.0,64.0
635,147.110964,147.23874165,59.0,91.0
636,144.888744,147.29429715,47.0,78.0
637,147.110964,147.29429715,64.0,95.0
638,147.110964,147.34244525,68.0,92.0
639,144.4443,147.58318574999998,40.0,92.0
640,147.33318599999998,147.592445,47.0,85.0
641,147.77763,148.10170374999998,64.0,88.0
642,147.555408,148.1665185,59.0,93.0
643,148.444296,149.0961472,52.0,79.0
644,148.88873999999998,149.36836915,61.0,91.0
645,148.88873999999998,149.39059135,64.0,92.0
646,148.88873999999998,149.4035543,57.0,90.0
647,149.333184,149.60540595,52.0,72.0
648,149.555406,149.80540575,57.0,82.0
649,149.555406,149.8479983,61.0,81.0
650,149.555406,149.84985015,64.0,90.0
651,149.555406,149.8591094,69.0,85.0
652,149.99984999999998,150.39429404999998,61.0,79.0
653,150.44429399999999,150.54984944999998,57.0,61.0
654,150.222072,150.71281224999998,52.0,81.0
655,150.666516,150.9220713,57.0,86.0
656,150.666516,150.99058975,61.0,90.0
657,147.999852,151.02762675,45.0,92.0
658,150.888738,151.0442934,52.0,84.0
659,150.666516,151.06836744999998,64.0,92.0
660,151.11096,151.20910805,57.0,88.0
661,151.55540399999998,152.23132925,59.0,83.0
662,151.55540399999998,152.370218,52.0,87.0
663,152.444292,152.5887363,56.0,90.0
664,152.444292,152.60540294999998,59.0,91.0
665,151.999848,153.0776247,47.0,73.0
666,151.55540399999998,153.10169875,40.0,91.0
667,153.11095799999998,153.31095779999998,56.0,84.0
668,153.11095799999998,153.3220689,52.0,90.0
669,153.11095799999998,153.34799479999998,64.0,91.0
670,153.555402,153.77206845,52.0,85.0
671,153.555402,153.86095724999998,59.0,85.0
672,153.777624,153.89429055,52.0,77.0
673,153.777624,153.9442905,56.0,76.0
674,154.222068,154.43132705,52.0,92.0
675,154.222068,154.46095664999999,56.0,91.0
676,154.222068,154.481327,59.0,91.0
677,154.222068,154.58503059999998,64.0,91.0
678,155.110956,155.62206659999998,57.0,85.0
679,155.110956,155.77947385,61.0,79.0
680,155.110956,155.8183627,64.0,90.0
681,155.999844,156.16836235,57.0,90.0
682,155.999844,156.18317715,69.0,88.0
683,156.444288,156.54984345,57.0,82.0
684,156.66651,156.83502835,57.0,90.0
685,156.66651,156.83502835,64.0,92.0
686,157.110954,157.26095385,57.0,82.0
687,157.110954,157.26095385,61.0,79.0
688,157.110954,157.27947235,64.0,90.0
689,157.555398,157.6924349,57.0,72.0
690,155.5554,157.97761979999999,52.0,83.0
691,155.110956,158.03132345,45.0,90.0
692,157.77761999999998,158.05169379999998,69.0,87.0
693,157.77761999999998,158.0628049,61.0,77.0
694,157.77761999999998,158.06465674999998,64.0,90.0
695,157.77761999999998,158.08687895,57.0,84.0
696,158.666508,159.1739149,56.0,82.0
697,158.666508,159.20910005,59.0,86.0
698,158.666508,159.23132225,52.0,90.0
699,159.110952,159.62021074999998,47.0,73.0
700,159.555396,159.76465505,52.0,91.0
701,159.555396,159.80169204999999,56.0,91.0
702,159.555396,159.81650685,59.0,90.0
703,159.555396,159.82576609999998,64.0,91.0
704,158.666508,159.8739142,40.0,93.0
705,159.777618,159.91280305,47.0,83.0
706,159.99984,160.12391395,52.0,90.0
707,160.44428399999998,161.09798705,63.0,82.0
708,160.44428399999998,161.147987,59.0,87.0
709,160.44428399999998,161.5405792,47.0,91.0
710,161.333172,161.59798655,59.0,91.0
711,161.333172,161.60909765,63.0,91.0
712,161.555394,161.64983834999998,54.0,77.0
713,161.333172,161.7257642,66.0,82.0
714,161.777616,161.99798615,59.0,92.0
715,162.22206,162.60168925,59.0,91.0
716,162.22206,162.6442818,64.0,93.0
717,162.22206,162.69996853541667,40.0,96.0
718,163.14439218333334,163.56222732708332,51.0,95.0
719,163.14439218333334,163.58514399375,63.0,104.0
720,164.1779337875,164.58075695416667,73.0,78.0
721,164.1779337875,164.58779920416666,49.0,95.0
722,164.1779337875,164.59718887083332,61.0,91.0
723,165.31381530625004,166.0103322229167,47.0,95.0
724,165.31381530625004,166.46058065833336,59.0,90.0
725,165.31381530625004,166.46804333958335,63.0,90.0
726,165.31381530625004,166.48545626250004,66.0,84.0
727,166.50784430625004,167.23003833333337,64.0,90.0
728,166.50784430625004,167.25411238333336,61.0,84.0
729,166.50784430625004,167.33374193333339,57.0,90.0
730,167.10040883333338,167.69300083333337,52.0,83.0
731,167.54485283333338,167.72633413333338,64.0,92.0
732,167.54485283333338,167.72818598333336,61.0,91.0
733,167.54485283333338,167.74300078333337,57.0,88.0
734,168.21151883333337,168.36707423333337,64.0,91.0
735,168.21151883333337,168.38003718333337,61.0,87.0
736,168.21151883333337,168.38188903333338,69.0,85.0
737,168.21151883333337,168.39855568333337,57.0,89.0
738,168.65596283333338,168.81707378333337,64.0,79.0
739,168.65596283333338,168.88188853333338,61.0,78.0
740,168.87818483333336,169.42262873333337,52.0,82.0
741,169.32262883333337,169.46892498333338,57.0,91.0
742,169.32262883333337,169.48744348333338,64.0,94.0
743,169.32262883333337,169.49485088333338,61.0,91.0
744,166.50784430625004,169.54299898333338,45.0,96.0
745,170.21151683333338,170.74114593333337,56.0,75.0
746,170.21151683333338,170.7633681333334,59.0,82.0
747,170.21151683333338,170.78003478333338,52.0,85.0
748,171.10040483333339,171.19670103333337,64.0,93.0
749,171.10040483333339,171.20781213333336,52.0,93.0
750,171.76707083333338,171.87262628333337,59.0,90.0
751,171.76707083333338,171.88373738333337,52.0,91.0
752,172.21151483333338,172.35966283333337,52.0,90.0
753,172.21151483333338,172.36336653333336,59.0,86.0
754,172.6559588333334,172.74484763333336,52.0,84.0
755,170.65596083333338,172.96151408333338,47.0,77.0
756,172.87818083333337,173.11521763333337,52.0,95.0
757,172.87818083333337,173.13003243333338,56.0,97.0
758,172.87818083333337,173.14484723333337,59.0,92.0
759,170.21151683333338,173.20225458333337,40.0,93.0
760,173.10040283333336,173.2244767833334,47.0,94.0
761,173.32262483333338,173.40595808333336,52.0,95.0
762,173.76706883333338,174.33188308333337,61.0,83.0
763,173.76706883333338,174.33929048333337,57.0,86.0
764,174.65595683333336,174.75595673333336,57.0,93.0
765,174.65595683333336,174.80966038333338,64.0,94.0
766,175.10040083333337,175.18558593333339,57.0,86.0
767,175.32262283333338,175.46521528333338,69.0,90.0
768,175.32262283333338,175.48928933333337,57.0,91.0
769,175.7670668333334,175.90040003333337,64.0,92.0
770,175.7670668333334,175.91336298333337,57.0,90.0
771,176.21151083333336,176.29669593333338,57.0,77.0
772,173.98929083333337,176.31706628333336,52.0,77.0
773,176.43373283333338,176.64484373333337,57.0,90.0
774,176.43373283333338,176.66891778333337,61.0,90.0
775,173.76706883333338,176.75965843333339,45.0,91.0
776,176.65595483333337,176.78558433333336,52.0,92.0
777,176.87817683333338,176.99299153333337,57.0,93.0
778,177.32262083333336,177.98187943333338,56.0,81.0
779,177.32262083333336,178.05595343333337,52.0,76.0
780,178.21150883333337,178.35410128333336,56.0,92.0
781,178.21150883333337,178.38928643333338,59.0,91.0
782,177.76706483333336,178.57261958333336,47.0,78.0
783,178.87817483333336,179.04484133333338,64.0,91.0
784,178.87817483333336,179.04669318333336,52.0,91.0
785,178.87817483333336,179.04854503333337,56.0,82.0
786,178.87817483333336,179.05410058333337,59.0,87.0
787,179.32261883333337,179.48928533333338,52.0,91.0
788,179.32261883333337,179.50224828333336,59.0,90.0
789,179.76706283333337,179.86706273333337,52.0,90.0
790,178.65595283333337,180.06891438333338,47.0,67.0
791,179.9892848333334,180.20965498333337,52.0,92.0
792,179.9892848333334,180.23187718333338,59.0,91.0
793,177.32262083333336,180.24669198333336,40.0,91.0
794,180.21150683333337,180.33372893333336,47.0,91.0
795,180.43372883333336,180.52261763333337,52.0,96.0
796,180.87817283333337,181.55594993333338,63.0,83.0
797,180.87817283333337,181.58002398333338,59.0,86.0
798,181.76706083333337,181.93557918333337,63.0,90.0
799,180.87817283333337,181.96150508333338,47.0,92.0
800,181.76706083333337,181.98372728333337,66.0,85.0
801,181.76706083333337,182.00224578333336,59.0,90.0
802,182.21150483333338,182.44483793333336,54.0,74.0
803,182.43372683333337,182.63557848333338,63.0,85.0
804,182.43372683333337,182.64854143333338,66.0,81.0
805,182.43372683333337,182.65224513333337,59.0,90.0
806,182.87817083333337,183.10965208333337,59.0,91.0
807,182.87817083333337,183.13002243333338,66.0,90.0
808,183.32261483333338,183.43928138333337,59.0,90.0
809,183.1003928333334,183.48928133333337,54.0,86.0
810,183.54483683333336,183.71705888333338,66.0,79.0
811,183.54483683333336,183.77076253333337,63.0,95.0
812,183.54483683333336,183.78372548333337,59.0,91.0
813,183.76705883333338,183.85779948333337,51.0,73.0
814,183.98928083333337,184.07816963333337,51.0,84.0
815,184.43372483333337,184.97076133333337,61.0,85.0
816,184.43372483333337,185.01705758333338,64.0,92.0
817,185.32261283333338,185.42816828333338,64.0,95.0
818,185.32261283333338,185.43927938333337,68.0,89.0
819,185.32261283333338,185.45224233333337,61.0,90.0
820,185.98927883333337,186.08372318333338,68.0,96.0
821,185.98927883333337,186.10594538333336,61.0,93.0
822,186.43372283333338,186.56890788333337,61.0,90.0
823,186.43372283333338,186.62816708333338,64.0,92.0
824,186.87816683333338,186.99483338333337,61.0,79.0
825,184.87816883333338,187.11335178333337,44.0,65.0
826,184.43372483333337,187.14668508333338,37.0,95.0
827,187.10038883333337,187.3170552833334,61.0,101.0
828,187.10038883333337,187.32075898333338,64.0,104.0
829,187.32261083333339,187.46705513333336,44.0,92.0
830,187.54483283333337,187.6226105333334,37.0,90.0
831,187.98927683333338,188.61335028333338,57.0,89.0
832,187.98927683333338,188.65038728333337,61.0,86.0
833,188.43372083333338,188.98372028333338,52.0,86.0
834,188.87816483333336,189.09112758333336,57.0,91.0
835,188.87816483333336,189.14483123333338,64.0,96.0
836,188.87816483333336,189.17816453333336,61.0,96.0
837,187.98927683333338,189.19483118333338,45.0,90.0
838,189.10038683333337,189.25594223333337,52.0,91.0
839,189.32260883333336,189.45223833333338,57.0,92.0
840,189.76705283333337,190.27260788333336,59.0,90.0
841,189.76705283333337,190.33557078333337,63.0,85.0
842,190.4337188333334,190.54853353333337,59.0,91.0
843,190.21149683333337,190.70408893333337,54.0,82.0
844,190.65594083333337,190.91705168333337,59.0,92.0
845,190.65594083333337,190.99482938333338,63.0,92.0
846,190.87816283333336,191.00408863333337,54.0,83.0
847,190.65594083333337,191.03371823333336,66.0,88.0
848,189.76705283333337,191.04853303333337,47.0,92.0
849,191.10038483333338,191.26149578333337,59.0,89.0
850,191.54482883333338,191.9392728833334,56.0,92.0
851,191.54482883333338,191.95593953333338,52.0,92.0
852,191.54482883333338,191.96334693333338,59.0,91.0
853,192.21149483333338,192.44667978333337,64.0,95.0
854,192.21149483333338,192.50038343333338,52.0,101.0
855,192.65593883333338,192.87445713333338,52.0,95.0
856,192.65593883333338,192.90223488333336,64.0,92.0
857,192.65593883333338,192.94297558333338,56.0,95.0
858,192.65593883333338,192.9763088833334,59.0,95.0
859,193.10038283333338,193.14667908333337,59.0,59.0
860,191.54482883333338,193.19112348333337,40.0,96.0
861,193.10038283333338,193.22075308333336,52.0,91.0
862,191.98927283333336,193.24297528333338,47.0,79.0
863,193.32260483333337,193.84482653333336,52.0,91.0
864,193.32260483333337,193.88371538333337,56.0,87.0
865,193.32260483333337,193.89112278333337,64.0,91.0
866,193.32260483333337,193.91149313333338,59.0,89.0
867,193.98927083333336,194.09112258333337,52.0,88.0
868,193.76704883333338,194.27445573333338,47.0,86.0
869,194.21149283333338,194.49112218333337,52.0,94.0
870,194.21149283333338,194.53741843333336,56.0,94.0
871,194.21149283333338,194.54667768333337,64.0,94.0
872,194.21149283333338,194.56149248333338,59.0,93.0
873,194.65593683333339,194.71519603333337,59.0,67.0
874,194.65593683333339,195.00408463333338,52.0,97.0
875,194.87815883333337,195.04667718333337,56.0,92.0
876,194.43371483333337,195.14112153333338,47.0,95.0
877,193.32260483333337,195.16519558333337,40.0,96.0
878,195.10038083333336,195.67445433333336,64.0,90.0
879,195.10038083333336,195.69852838333338,61.0,84.0
880,195.10038083333336,195.77815793333338,57.0,90.0
881,195.54482483333337,196.13741683333336,52.0,83.0
882,195.98926883333337,196.17075013333337,64.0,92.0
883,195.98926883333337,196.17260198333338,61.0,91.0
884,195.98926883333337,196.18741678333336,57.0,88.0
885,196.65593483333336,196.81149023333336,64.0,91.0
886,196.65593483333336,196.82445318333336,61.0,87.0
887,196.65593483333336,196.82630503333337,69.0,85.0
888,196.65593483333336,196.84297168333336,57.0,89.0
889,197.10037883333337,197.26148978333336,64.0,79.0
890,197.10037883333337,197.32630453333337,61.0,78.0
891,197.32260083333338,197.8670447333334,52.0,82.0
892,197.7670448333334,197.91334098333337,57.0,91.0
893,197.7670448333334,197.93185948333337,64.0,94.0
894,197.7670448333334,197.93926688333337,61.0,91.0
895,195.10038083333336,197.98741498333337,45.0,96.0
896,198.65593283333337,199.18556193333336,56.0,75.0
897,198.65593283333337,199.20778413333338,59.0,82.0
898,198.65593283333337,199.22445078333337,52.0,85.0
899,199.54482083333338,199.6411170333334,64.0,93.0
900,199.54482083333338,199.65222813333338,52.0,93.0
901,200.21148683333337,200.31704228333336,59.0,90.0
902,200.21148683333337,200.32815338333336,52.0,91.0
903,200.65593083333337,200.80407883333336,52.0,90.0
904,200.65593083333337,200.80778253333338,59.0,86.0
905,201.10037483333338,201.18926363333338,52.0,84.0
906,199.10037683333337,201.40593008333337,47.0,77.0
907,201.32259683333336,201.55963363333336,52.0,95.0
908,201.32259683333336,201.57444843333337,56.0,97.0
909,201.32259683333336,201.58926323333338,59.0,92.0
910,198.65593283333337,201.6466705833334,40.0,93.0
911,201.54481883333338,201.66889278333338,47.0,94.0
912,201.76704083333337,201.85037408333338,52.0,95.0
913,202.21148483333337,202.77629908333336,61.0,83.0
914,202.21148483333337,202.7837064833334,57.0,86.0
915,203.10037283333338,203.20037273333338,57.0,93.0
916,203.10037283333338,203.25407638333337,64.0,94.0
917,203.54481683333336,203.63000193333338,57.0,86.0
918,203.76703883333337,203.90963128333337,69.0,90.0
919,203.76703883333337,203.93370533333336,57.0,91.0
920,204.21148283333338,204.34481603333336,64.0,92.0
921,204.21148283333338,204.3577789833334,57.0,90.0
922,204.65592683333338,204.74111193333337,57.0,77.0
923,202.43370683333336,204.76148228333338,52.0,77.0
924,204.87814883333337,205.08925973333336,57.0,90.0
925,204.87814883333337,205.11333378333336,61.0,90.0
926,202.21148483333337,205.20407443333337,45.0,91.0
927,205.1003708333334,205.23000033333338,52.0,92.0
928,205.32259283333337,205.43740753333338,57.0,93.0
929,205.76703683333338,206.42629543333337,56.0,81.0
930,205.76703683333338,206.5003694333334,52.0,76.0
931,206.65592483333336,206.79851728333338,56.0,92.0
932,206.65592483333336,206.83370243333337,59.0,91.0
933,206.21148083333338,207.01703558333338,47.0,78.0
934,207.32259083333338,207.48925733333337,64.0,91.0
935,207.32259083333338,207.49110918333338,52.0,91.0
936,207.32259083333338,207.49296103333336,56.0,82.0
937,207.32259083333338,207.49851658333336,59.0,87.0
938,207.76703483333335,207.93370133333337,52.0,91.0
939,207.76703483333335,207.94666428333338,59.0,90.0
940,208.2114788333334,208.3114787333334,52.0,90.0
941,207.10036883333336,208.51333038333337,47.0,67.0
942,208.43370083333338,208.65407098333338,52.0,92.0
943,208.43370083333338,208.67629318333337,59.0,91.0
944,205.76703683333338,208.69110798333338,40.0,91.0
945,208.65592283333336,208.77814493333338,47.0,91.0
946,208.87814483333338,208.96703363333336,52.0,96.0
947,209.32258883333338,210.00036593333337,63.0,83.0
948,209.32258883333338,210.02443998333337,59.0,86.0
949,210.21147683333336,210.37999518333336,63.0,90.0
950,209.32258883333338,210.40592108333337,47.0,92.0
951,210.21147683333336,210.42814328333338,66.0,85.0
952,210.21147683333336,210.44666178333335,59.0,90.0
953,210.65592083333337,210.88925393333338,54.0,74.0
954,210.87814283333336,211.07999448333337,63.0,85.0
955,210.87814283333336,211.09295743333337,66.0,81.0
956,210.87814283333336,211.09666113333338,59.0,90.0
957,211.3225868333334,211.55406808333336,59.0,91.0
958,211.3225868333334,211.57443843333337,66.0,90.0
959,211.76703083333337,211.88369738333336,59.0,90.0
960,211.54480883333338,211.93369733333338,54.0,86.0
961,211.98925283333338,212.16147488333337,66.0,79.0
962,211.98925283333338,212.21517853333336,63.0,95.0
963,211.98925283333338,212.2281414833334,59.0,91.0
964,212.21147483333337,212.30221548333338,51.0,73.0
965,212.43369683333339,212.52258563333336,51.0,84.0
966,212.87814083333336,213.41517733333336,61.0,85.0
967,212.87814083333336,213.46147358333337,64.0,92.0
968,213.76702883333337,213.87258428333337,64.0,95.0
969,213.76702883333337,213.88369538333336,68.0,89.0
970,213.76702883333337,213.89665833333336,61.0,90.0
971,214.43369483333336,214.52813918333337,68.0,96.0
972,214.43369483333336,214.55036138333338,61.0,93.0
973,214.87813883333337,215.01332388333338,61.0,90.0
974,214.87813883333337,215.07258308333337,64.0,92.0
975,215.32258283333337,215.43924938333336,61.0,79.0
976,213.32258483333337,215.55776778333336,44.0,65.0
977,212.87814083333336,215.59110108333337,37.0,95.0
978,215.5448048333334,215.76147128333338,61.0,101.0
979,215.5448048333334,215.76517498333337,64.0,104.0
980,215.76702683333338,215.91147113333338,44.0,92.0
981,215.98924883333336,216.06702653333338,37.0,90.0
982,216.43369283333337,217.05776628333336,57.0,89.0
983,216.43369283333337,217.09480328333336,61.0,86.0
984,216.87813683333337,217.42813628333337,52.0,86.0
985,217.32258083333338,217.53554358333338,57.0,91.0
986,217.32258083333338,217.58924723333337,64.0,96.0
987,217.32258083333338,217.62258053333338,61.0,96.0
988,216.43369283333337,217.63924718333337,45.0,90.0
989,217.54480283333336,217.70035823333336,52.0,91.0
990,217.76702483333338,217.89665433333337,57.0,92.0
991,218.21146883333336,218.71702388333335,59.0,90.0
992,218.21146883333336,218.77998678333336,63.0,85.0
993,218.87813483333338,218.9929495333334,59.0,91.0
994,218.6559128333334,219.14850493333336,54.0,82.0
995,219.10035683333336,219.3614676833334,59.0,92.0
996,219.10035683333336,219.43924538333337,63.0,92.0
997,219.32257883333338,219.44850463333336,54.0,83.0
998,219.10035683333336,219.47813423333338,66.0,88.0
999,218.21146883333336,219.4929490333334,47.0,92.0
1000,219.54480083333337,219.70591178333336,59.0,89.0
1001,219.98924483333337,220.61517013333338,56.0,86.0
1002,219.98924483333337,220.69665153333338,52.0,83.0
1003,219.98924483333337,220.70035523333337,59.0,87.0
1004,220.43368883333338,221.00961418333338,47.0,85.0
1005,220.87813283333338,221.33368793333338,56.0,97.0
1006,220.87813283333338,221.3355397833334,52.0,94.0
1007,220.87813283333338,221.33739163333337,64.0,94.0
1008,220.87813283333338,221.34294718333337,59.0,96.0
1009,219.98924483333337,221.62628023333338,40.0,97.0
1010,221.32257683333336,221.64479873333337,47.0,77.0
1011,221.54479883333337,221.76887268333337,64.0,95.0
1012,221.54479883333337,221.77072453333338,52.0,99.0
1013,221.98924283333338,222.24664998333338,52.0,96.0
1014,221.98924283333338,222.30035363333337,64.0,95.0
1015,221.98924283333338,222.32257583333336,56.0,91.0
1016,221.98924283333338,222.53553858333336,59.0,93.0
1017,222.43368683333335,222.5781311333334,52.0,94.0
1018,222.21146483333337,222.78739018333337,47.0,83.0
1019,222.65590883333337,222.9781307333334,52.0,95.0
1020,222.65590883333337,223.15405648333336,56.0,99.0
1021,223.10035283333337,223.55220423333338,52.0,104.0
1022,222.65590883333337,223.56331533333338,59.0,94.0
1023,223.54479683333338,223.56331533333338,59.0,85.0
1024,223.32257483333336,223.57257458333336,56.0,90.0
1025,222.65590883333337,223.57627828333338,64.0,97.0
1026,223.54479683333338,223.57627828333338,64.0,90.0
1027,222.8781308333334,223.58553753333337,47.0,93.0
1028,221.76702083333336,223.60220418333336,40.0,92.0
1029,223.54479683333338,223.60220418333336,40.0,91.0
1030,224.43368483333336,224.55405508333337,59.0,91.0
1031,224.43368483333336,224.57627728333335,68.0,91.0
1032,223.98924083333338,225.17998038333337,47.0,73.0
1033,225.10035083333338,225.21516553333336,64.0,91.0
1034,225.10035083333338,225.23738773333338,59.0,90.0
1035,225.32257283333337,225.60590588333338,47.0,72.0
1036,225.54479483333336,225.71146133333338,59.0,91.0
1037,225.54479483333336,225.76701683333337,64.0,95.0
1038,225.9892388333334,226.12442388333338,59.0,90.0
1039,225.76701683333337,226.34664588333337,47.0,85.0
1040,226.21146083333338,226.3947939833334,59.0,91.0
1041,226.21146083333338,226.4262754333334,64.0,94.0
1042,226.21146083333338,226.46516428333337,68.0,91.0
1043,227.10034883333338,227.58923723333336,57.0,81.0
1044,227.10034883333338,227.61886683333336,61.0,84.0
1045,227.10034883333338,227.64664458333337,64.0,89.0
1046,227.76701483333338,227.92627393333336,57.0,90.0
1047,228.21145883333338,228.28368098333337,57.0,82.0
1048,228.21145883333338,228.31331058333336,61.0,86.0
1049,228.21145883333338,228.3373846333334,64.0,91.0
1050,228.87812483333337,229.09293943333336,57.0,85.0
1051,228.87812483333337,229.10405053333338,69.0,91.0
1052,227.54479283333336,229.19849488333338,52.0,79.0
1053,229.32256883333338,229.59293893333336,52.0,78.0
1054,229.54479083333337,229.82256833333338,57.0,90.0
1055,229.54479083333337,229.85219793333337,61.0,92.0
1056,229.54479083333337,229.88553123333338,64.0,92.0
1057,227.10034883333338,230.14108653333338,45.0,91.0
1058,229.98923483333337,230.15775318333337,52.0,92.0
1059,230.2114568333334,230.35219743333337,57.0,91.0
1060,230.65590083333336,230.91701168333339,64.0,89.0
1061,230.65590083333336,230.96145608333336,59.0,86.0
1062,231.32256683333338,231.49108518333338,59.0,87.0
1063,231.32256683333338,231.55034438333337,68.0,90.0
1064,231.76701083333336,231.89664033333338,64.0,90.0
1065,231.76701083333336,231.90404773333336,59.0,85.0
1066,232.2114548333334,232.30034363333337,59.0,76.0
1067,231.10034483333337,232.30219548333338,47.0,63.0
1068,230.65590083333336,232.32441768333337,40.0,91.0
1069,232.43367683333338,232.70960248333336,59.0,86.0
1070,232.43367683333338,232.88367638333335,64.0,89.0
1071,233.10034283333337,233.2540463833334,59.0,90.0
1072,233.10034283333337,233.2910833833334,68.0,94.0
1073,232.87812083333336,233.51145353333337,47.0,69.0
1074,232.43367683333338,233.5596016333334,40.0,90.0
1075,233.54478683333338,233.65219413333335,59.0,90.0
1076,233.54478683333338,233.6596015333334,64.0,92.0
1077,233.76700883333336,233.86515688333338,59.0,83.0
1078,234.21145283333337,234.70589678333337,57.0,80.0
1079,234.21145283333337,234.80219298333338,61.0,77.0
1080,234.21145283333337,234.92441508333337,64.0,88.0
1081,235.10034083333338,235.26330363333335,57.0,89.0
1082,235.10034083333338,235.28922953333335,61.0,90.0
1083,235.10034083333338,235.30219248333339,64.0,91.0
1084,235.54478483333338,235.6595995333334,57.0,89.0
1085,235.76700683333337,235.95404368333337,61.0,93.0
1086,235.76700683333337,235.96330293333335,64.0,93.0
1087,235.76700683333337,235.97441403333337,69.0,90.0
1088,235.76700683333337,235.9966362333334,57.0,90.0
1089,235.32256283333336,236.27626558333338,52.0,82.0
1090,236.21145083333337,236.41700618333337,57.0,86.0
1091,236.21145083333337,236.4336728333334,64.0,90.0
1092,236.65589483333338,236.78182063333338,57.0,83.0
1093,236.4336728333334,236.93552418333337,52.0,80.0
1094,236.87811683333337,237.11144993333338,57.0,90.0
1095,236.87811683333337,237.14107953333337,64.0,94.0
1096,234.21145283333337,237.19663503333337,45.0,91.0
1097,237.10033883333335,237.25959793333337,52.0,63.0
1098,237.32256083333337,237.45219033333336,45.0,90.0
1099,237.76700483333337,238.06144898333338,59.0,87.0
1100,237.76700483333337,238.19107848333337,68.0,86.0
1101,237.76700483333337,238.23737473333335,64.0,91.0
1102,238.21144883333335,238.31700428333338,59.0,78.0
1103,237.76700483333337,238.31885613333338,40.0,92.0
1104,238.65589283333338,238.88737408333338,59.0,90.0
1105,238.65589283333338,238.93181848333336,68.0,93.0
1106,239.10033683333336,239.25774408333336,59.0,92.0
1107,239.32255883333337,239.58922523333337,59.0,91.0
1108,239.32255883333337,239.59292893333338,64.0,94.0
1109,238.87811483333337,239.62070668333337,52.0,92.0
1110,239.76700283333338,239.88922493333337,59.0,84.0
1111,239.76700283333338,240.03181738333336,64.0,91.0
1112,239.76700283333338,240.19848388333338,68.0,85.0
1113,240.21144683333335,240.33181708333336,59.0,74.0
1114,240.43366883333337,240.52996503333338,64.0,95.0
1115,240.43366883333337,240.56700203333338,59.0,93.0
1116,241.32255683333335,241.78922303333337,57.0,80.0
1117,241.32255683333335,241.88181553333337,61.0,76.0
1118,241.98922283333337,242.04848203333336,61.0,56.0
1119,241.32255683333335,242.2614447833334,64.0,88.0
1120,241.98922283333337,242.3244076833334,57.0,90.0
1121,242.43366683333338,242.67255548333338,69.0,80.0
1122,242.43366683333338,242.68366658333338,61.0,80.0
1123,242.43366683333338,242.68551843333336,64.0,91.0
1124,242.87811083333338,243.02625883333337,57.0,81.0
1125,241.76700083333338,243.40033253333337,52.0,81.0
1126,243.32255483333336,243.53181388333337,57.0,89.0
1127,243.32255483333336,243.54848053333336,64.0,92.0
1128,243.7669988333334,243.86514688333335,57.0,85.0
1129,243.54477683333337,244.01514673333338,52.0,81.0
1130,243.98922083333338,244.20588728333337,57.0,91.0
1131,243.98922083333338,244.22996133333336,61.0,96.0
1132,241.32255683333335,244.27810943333338,45.0,91.0
1133,243.98922083333338,244.28551683333336,64.0,95.0
1134,244.21144283333336,244.32070198333338,52.0,90.0
1135,244.43366483333335,244.53181288333337,57.0,95.0
1136,244.87810883333339,245.09107158333336,56.0,82.0
1137,244.87810883333339,245.09847898333337,52.0,90.0
1138,244.87810883333339,245.14292338333337,59.0,86.0
1139,245.32255283333336,245.66144138333337,47.0,72.0
1140,245.54477483333338,245.87440413333337,59.0,96.0
1141,245.76699683333337,246.07625578333335,47.0,71.0
1142,244.87810883333339,246.08736688333337,40.0,91.0
1143,245.98921883333338,246.08921873333338,59.0,83.0
1144,245.98921883333338,246.14292238333337,64.0,92.0
1145,246.65588483333337,246.8521809333334,59.0,90.0
1146,246.65588483333337,247.11699548333337,63.0,85.0
1147,247.10032883333338,247.1781065333334,59.0,81.0
1148,246.65588483333337,247.55773578333338,47.0,92.0
1149,247.32255083333337,247.61143943333337,59.0,91.0
1150,247.32255083333337,247.66884678333338,66.0,85.0
1151,247.76699483333337,248.00773533333336,63.0,92.0
1152,247.9892168333334,248.09477228333338,59.0,90.0
1153,248.43366083333336,248.9206973833334,57.0,84.0
1154,248.43366083333336,248.92995663333338,61.0,81.0
1155,249.10032683333338,249.34477103333336,57.0,90.0
1156,249.10032683333338,249.35032658333336,64.0,91.0
1157,249.54477083333336,249.72810398333337,61.0,93.0
1158,248.87810483333337,250.07439993333338,52.0,77.0
1159,249.98921483333336,250.22069608333337,61.0,79.0
1160,249.98921483333336,250.23736273333338,69.0,88.0
1161,249.98921483333336,250.24291828333338,57.0,86.0
1162,250.21143683333338,250.50588098333338,52.0,90.0
1163,250.43365883333337,250.68736228333336,57.0,91.0
1164,250.43365883333337,250.73365853333337,61.0,89.0
1165,250.43365883333337,250.82069548333337,64.0,96.0
1166,250.87810283333337,250.9688434833334,57.0,79.0
1167,250.65588083333336,251.23921358333337,52.0,84.0
1168,251.1003248333334,251.96328693333336,61.0,85.0
1169,251.1003248333334,251.96328693333336,64.0,91.0
1170,251.1003248333334,251.9688424833334,57.0,84.0
1171,251.54476883333336,251.97254618333335,52.0,92.0
1172,248.43366083333336,251.99847208333335,45.0,89.0
1173,251.98921283333337,251.99847208333335,45.0,95.0
1174,251.98921283333337,252.15773118333337,61.0,90.0
1175,251.98921283333337,252.16328673333336,57.0,89.0
1176,251.98921283333337,252.16328673333336,64.0,92.0
1177,251.98921283333337,252.17810153333338,69.0,89.0
1178,252.21143483333339,252.34847173333338,45.0,92.0
1179,252.21143483333339,252.37069393333337,61.0,95.0
1180,252.21143483333339,252.38921243333337,69.0,90.0
1181,252.21143483333339,252.40402723333335,57.0,91.0
1182,252.21143483333339,252.4058790833334,64.0,99.0
1183,253.76698883333336,254.45402518333339,57.0,88.0
1184,253.76698883333336,254.45587703333337,61.0,94.0
1185,253.76698883333336,254.49476588333337,69.0,91.0
1186,254.43365483333338,254.70032123333337,52.0,80.0
1187,254.65587683333337,254.95772838333338,57.0,90.0
1188,253.76698883333336,255.42439458333337,45.0,93.0
1189,254.87809883333335,255.47809823333336,52.0,91.0
1190,254.65587683333337,255.4855056333334,64.0,94.0
1191,254.65587683333337,255.49291303333337,61.0,90.0
1192,255.10032083333337,255.51328338333337,57.0,86.0
1193,255.54476483333337,256.07439393333334,56.0,75.0
1194,255.54476483333337,256.0966161333334,59.0,82.0
1195,255.54476483333337,256.1132827833334,52.0,85.0
1196,256.4336528333334,256.52994903333337,64.0,93.0
1197,256.4336528333334,256.54106013333336,52.0,93.0
1198,257.1003188333334,257.2058742833334,59.0,90.0
1199,257.1003188333334,257.2169853833334,52.0,91.0
1200,257.5447628333334,257.69291083333337,52.0,90.0
1201,257.5447628333334,257.6966145333334,59.0,86.0
1202,257.98920683333336,258.07809563333336,52.0,84.0
1203,255.98920883333335,258.29476208333335,47.0,77.0
1204,258.21142883333334,258.4484656333334,52.0,95.0
1205,258.21142883333334,258.46328043333335,56.0,97.0
1206,258.21142883333334,258.47809523333336,59.0,92.0
1207,255.54476483333337,258.53550258333337,40.0,93.0
1208,258.4336508333334,258.55772478333336,47.0,94.0
1209,258.6558728333334,258.7392060833334,52.0,95.0
1210,259.10031683333335,259.66513108333334,61.0,83.0
1211,259.10031683333335,259.67253848333337,57.0,86.0
1212,259.98920483333336,260.08920473333336,57.0,93.0
1213,259.98920483333336,260.14290838333335,64.0,94.0
1214,260.43364883333334,260.5188339333334,57.0,86.0
1215,260.6558708333334,260.7984632833334,69.0,90.0
1216,260.6558708333334,260.82253733333334,57.0,91.0
1217,261.10031483333336,261.23364803333334,64.0,92.0
1218,261.10031483333336,261.24661098333337,57.0,90.0
1219,261.5447588333334,261.6299439333334,57.0,77.0
1220,259.3225388333334,261.6503142833334,52.0,77.0
1221,261.7669808333334,261.9780917333334,57.0,90.0
1222,261.7669808333334,262.00216578333334,61.0,90.0
1223,259.10031683333335,262.0929064333334,45.0,91.0
1224,261.98920283333337,262.1188323333334,52.0,92.0
1225,262.21142483333335,262.32623953333336,57.0,93.0
1226,262.6558688333334,263.3151274333334,56.0,81.0
1227,262.6558688333334,263.38920143333337,52.0,76.0
1228,263.5447568333334,263.6873492833334,56.0,92.0
1229,263.5447568333334,263.72253443333335,59.0,91.0
1230,263.10031283333336,263.90586758333336,47.0,78.0
1231,264.21142283333336,264.3780893333334,64.0,91.0
1232,264.21142283333336,264.37994118333336,52.0,91.0
1233,264.21142283333336,264.38179303333334,56.0,82.0
1234,264.21142283333336,264.3873485833334,59.0,87.0
1235,264.6558668333334,264.82253333333335,52.0,91.0
1236,264.6558668333334,264.8354962833334,59.0,90.0
1237,265.10031083333337,265.20031073333337,52.0,90.0
1238,263.98920083333337,265.40216238333335,47.0,67.0
1239,265.32253283333336,265.54290298333336,52.0,92.0
1240,265.32253283333336,265.56512518333335,59.0,91.0
1241,262.6558688333334,265.57993998333336,40.0,91.0
1242,265.5447548333334,265.6669769333334,47.0,91.0
1243,265.7669768333334,265.85586563333334,52.0,96.0
1244,266.21142083333336,266.8891979333334,63.0,83.0
1245,266.21142083333336,266.9132719833334,59.0,86.0
1246,267.1003088333334,267.26882718333337,63.0,90.0
1247,266.21142083333336,267.2947530833334,47.0,92.0
1248,267.1003088333334,267.31697528333336,66.0,85.0
1249,267.1003088333334,267.3354937833334,59.0,90.0
1250,267.5447528333334,267.7780859333334,54.0,74.0
1251,267.7669748333334,267.9688264833334,63.0,85.0
1252,267.7669748333334,267.98178943333335,66.0,81.0
1253,267.7669748333334,267.98549313333336,59.0,90.0
1254,268.21141883333337,268.44290008333337,59.0,91.0
1255,268.21141883333337,268.4632704333334,66.0,90.0
1256,268.65586283333334,268.77252938333334,59.0,90.0
1257,268.43364083333336,268.82252933333336,54.0,86.0
1258,268.8780848333334,269.05030688333335,66.0,79.0
1259,268.8780848333334,269.1040105333334,63.0,95.0
1260,268.8780848333334,269.11697348333337,59.0,91.0
1261,269.1003068333334,269.19104748333336,51.0,73.0
1262,269.32252883333337,269.4114176333334,51.0,84.0
1263,269.7669728333334,270.3040093333334,61.0,85.0
1264,269.7669728333334,270.35030558333335,64.0,92.0
1265,270.65586083333335,270.76141628333335,64.0,95.0
1266,270.65586083333335,270.77252738333334,68.0,89.0
1267,270.65586083333335,270.78549033333337,61.0,90.0
1268,271.32252683333337,271.4169711833334,68.0,96.0
1269,271.32252683333337,271.43919338333336,61.0,93.0
1270,271.7669708333334,271.90215588333336,61.0,90.0
1271,271.7669708333334,271.96141508333335,64.0,92.0
1272,272.2114148333334,272.32808138333337,61.0,79.0
1273,270.2114168333334,272.44659978333334,44.0,65.0
1274,269.7669728333334,272.4799330833334,37.0,95.0
1275,272.43363683333337,272.65030328333336,61.0,101.0
1276,272.43363683333337,272.6540069833334,64.0,104.0
1277,272.65585883333335,272.8003031333334,44.0,92.0
1278,272.87808083333334,272.95585853333336,37.0,90.0
1279,273.3225248333334,273.9465982833334,57.0,89.0
1280,273.3225248333334,273.98363528333334,61.0,86.0
1281,273.76696883333335,274.3169682833334,52.0,86.0
1282,274.2114128333334,274.42437558333336,57.0,91.0
1283,274.2114128333334,274.47807923333335,64.0,96.0
1284,274.2114128333334,274.5114125333334,61.0,96.0
1285,273.3225248333334,274.5280791833334,45.0,90.0
1286,274.4336348333334,274.5891902333334,52.0,91.0
1287,274.65585683333336,274.7854863333334,57.0,92.0
1288,275.10030083333334,275.6219318875,59.0,90.0
1289,275.10030083333334,275.69520769583335,63.0,85.0
1290,275.80943175000004,275.9430523416667,59.0,91.0
1291,275.55081125000004,276.1240866916667,54.0,82.0
1292,276.06805225000005,276.37193133750003,59.0,92.0
1293,276.06805225000005,276.46244851250003,63.0,92.0
1294,276.32667275000006,276.4732243666667,54.0,83.0
1295,276.06805225000005,276.50770710000006,66.0,88.0
1296,275.10030083333334,276.52494846666673,47.0,92.0
1297,276.58529325000006,276.77279311250004,59.0,89.0
1298,277.063741175,277.6912049541667,52.0,81.0
1299,277.0766722,278.00252557916673,56.0,80.0
1300,277.09606873750005,278.0440349958334,59.0,79.0
1301,277.6176200791667,278.4723367041667,47.0,74.0
1302,277.8478086625001,278.5213932875001,52.0,88.0
1303,278.3308273291667,278.9383742458334,59.0,86.0
1304,278.5987517458334,279.7308267458334,47.0,79.0
1305,277.10253425,279.7836569125001,40.0,93.0
1306,279.03648741250004,280.67799616250005,52.0,84.0
1307,279.05912891250006,280.6930904958334,56.0,77.0
1308,279.07422324583337,280.7081848291667,59.0,86.0
1309,279.0515817458334,280.7081848291667,64.0,86.0
1310,280.7893168708334,281.2591279958334,68.0,80.0
1311,280.7893168708334,281.27799591250005,64.0,90.0
1312,281.2421468708334,281.70629762083337,59.0,77.0
1313,281.6949768708334,281.8081843708334,64.0,92.0
1314,281.6949768708334,281.8402598291667,68.0,92.0
1315,282.1478068708334,282.6893160791667,59.0,79.0
1316,282.6006368708334,283.4195044541667,64.0,90.0
1317,282.6006368708334,283.44591953750006,68.0,81.0
1318,283.5062968708334,283.9591268708334,68.0,94.0
1319,283.5062968708334,283.9817683708334,64.0,90.0
1320,280.7893168708334,284.0157306208334,40.0,92.0
1321,283.9591268708334,284.14214566250007,59.0,90.0
1322,284.4119568708334,284.8874283708334,61.0,80.0
1323,284.4119568708334,284.8912019541667,64.0,88.0
1324,284.4119568708334,284.9496924958334,57.0,84.0
1325,285.3176168708334,285.6006356208334,61.0,80.0
1326,285.3176168708334,285.64403182916675,64.0,90.0
1327,285.7704468708334,286.2553523291667,57.0,59.0
1328,286.2232768708334,286.43459753750005,64.0,83.0
1329,286.2232768708334,286.45912582916674,61.0,76.0
1330,286.2232768708334,286.46855978750006,69.0,85.0
1331,286.6761068708334,286.91195582916674,57.0,36.0
1332,284.86478687083337,287.23459720416673,52.0,78.0
1333,287.1289368708334,287.2912009541667,61.0,94.0
1334,284.4119568708334,287.3157292458334,45.0,91.0
1335,287.1289368708334,287.42893674583337,64.0,94.0
1336,287.5817668708334,287.6251630791667,57.0,76.0
1337,288.0345968708334,288.6704456625001,68.0,82.0
1338,288.0345968708334,288.67610603750006,64.0,89.0
1339,288.4874268708334,288.92516253750006,59.0,70.0
1340,288.94025687083337,289.03270966250005,64.0,87.0
1341,288.94025687083337,289.0628983291667,68.0,84.0
1342,289.3930868708334,289.6006339541667,59.0,70.0
1343,289.8459168708334,289.9610111625001,64.0,88.0
1344,289.8459168708334,290.00629416250007,68.0,78.0
1345,288.0345968708334,290.83270891250004,40.0,91.0
1346,290.7515768708334,290.91761453750007,64.0,93.0
1347,290.7515768708334,291.1345955791667,68.0,92.0
1348,291.2044068708334,291.3119539958334,59.0,91.0
1349,291.6572368708334,292.3289347041667,61.0,79.0
1350,291.6572368708334,292.3364818708334,64.0,84.0
1351,291.6572368708334,292.49308557916675,57.0,78.0
1352,292.5628968708334,292.6968590791667,61.0,74.0
1353,292.5628968708334,292.7327081208334,64.0,84.0
1354,293.0157268708334,293.37044370416675,57.0,54.0
1355,293.46855687083337,293.6176134125001,61.0,80.0
1356,293.46855687083337,293.63459453750005,64.0,90.0
1357,293.46855687083337,293.6911982875001,69.0,86.0
1358,292.1100668708334,293.91761328750005,52.0,78.0
1359,291.6572368708334,293.9440283708334,45.0,91.0
1360,294.3742168708334,294.63836770416674,61.0,90.0
1361,294.3742168708334,294.66289599583337,64.0,92.0
1362,294.3742168708334,294.6836507041667,69.0,91.0
1363,295.7327068708334,296.26666891250005,52.0,96.0
1364,296.1855368708334,296.4289329958334,56.0,87.0
1365,296.1855368708334,296.43081978750007,64.0,91.0
1366,296.1855368708334,296.45157449583337,59.0,89.0
1367,296.6383668708334,297.0628949958334,52.0,70.0
1368,297.0911968708334,297.29119678750004,56.0,72.0
1369,297.0911968708334,297.3402533708334,59.0,75.0
1370,297.0911968708334,297.4081778708334,64.0,77.0
1371,297.54402687083336,297.93270595416675,52.0,74.0
1372,295.2798768708334,298.1987435791667,40.0,93.0
1373,297.99685687083337,298.27610203750004,56.0,91.0
1374,297.99685687083337,298.3025171208334,59.0,90.0
1375,297.99685687083337,298.33270578750006,64.0,91.0
1376,298.9025168708334,299.46478078750005,61.0,82.0
1377,298.9025168708334,299.4798751208334,64.0,85.0
1378,298.9025168708334,299.52327132916673,57.0,79.0
1379,299.8081768708334,299.9402522875001,61.0,88.0
1380,299.8081768708334,299.9534598291667,64.0,90.0
1381,300.2610068708334,300.79496891250005,57.0,71.0
1382,300.7138368708334,300.85911982916673,61.0,78.0
1383,300.7138368708334,300.8855349125001,64.0,90.0
1384,300.7138368708334,300.92515753750007,69.0,87.0
1385,299.3553468708334,301.82327037083337,52.0,79.0
1386,298.9025168708334,301.8911948708334,45.0,90.0
1387,301.6194968708334,301.94591182916673,69.0,89.0
1388,301.6194968708334,301.9874212458334,64.0,91.0
1389,301.6194968708334,302.0270438708334,61.0,90.0
1390,302.0723268708334,302.17421362083337,57.0,91.0
1391,302.4647795375001,304.4421372041667,52.0,85.0
1392,302.5364776208334,304.4553447458334,40.0,94.0
1393,302.5327040375001,304.62704278750005,56.0,79.0
1394,302.61760966250006,304.6440239125001,59.0,85.0
1395,302.6647794541667,304.76289178750005,64.0,74.0
1396,305.55157070416675,309.67043691250007,51.0,74.0
1397,305.36289153750005,309.7232670791667,47.0,93.0
1398,305.5987404958334,310.0364744958334,63.0,83.0
1399,305.5194952458334,310.05722920416673,59.0,77.0
1400,305.6723253708334,310.0628895791667,66.0,79.0
1401,305.75911778750003,310.0836442875001,71.0,75.0
1402,313.0798694541667,315.1251516208334,40.0,86.0
1403,313.09496378750003,315.41383074583337,52.0,79.0
1404,313.1930769541667,315.77420795416674,56.0,68.0
1405,313.2798693708334,315.8213777458334,59.0,77.0
1406,315.12703841250004,315.86288716250004,71.0,88.0
1407,313.3874164958334,315.87043432916676,64.0,79.0
1408,315.2308119541667,315.93081166250005,76.0,90.0
1409,315.86288716250004,316.79873582916673,78.0,81.0
1410,316.89496220416675,317.75911278750004,76.0,85.0
1411,316.9666602875001,317.7685467458334,80.0,86.0
1412,317.6345845375001,317.7685467458334,80.0,78.0
1413,316.6704339958334,317.9704334541667,40.0,87.0
1414,317.8534523708334,318.11005603750004,76.0,82.0
1415,318.0326975791667,318.2760937041667,71.0,81.0
1416,318.18930128750003,318.4704332458334,80.0,78.0
1417,318.3459049958334,318.5383577458334,76.0,82.0
1418,318.4911879541667,318.72326332916674,71.0,82.0
1419,318.6402444958334,318.98175378750005,80.0,79.0
1420,318.81760291250004,319.0817537458334,76.0,81.0
1421,318.98741416250004,319.3496781625001,71.0,79.0
1422,319.25345178750007,319.83458362083337,80.0,80.0
1423,319.77043270416675,320.4081682875001,81.0,90.0
1424,320.39118716250005,320.53269653750004,76.0,85.0
1425,320.4855267458334,321.28175282916675,83.0,92.0
1426,321.8308092041667,322.91571441250005,69.0,86.0
1427,322.8043937041667,323.0402426625001,73.0,78.0
1428,322.99684645416676,323.1289218708334,75.0,80.0
1429,323.14401620416675,323.30628028750004,76.0,90.0
1430,323.28552557916674,323.45345003750003,78.0,81.0
1431,323.43646891250006,323.5704311208334,80.0,86.0
1432,323.5760914958334,323.7911857458334,81.0,86.0
1433,323.78175178750007,324.03269507916673,83.0,85.0
1434,324.02703470416674,324.30816666250007,81.0,84.0
1435,324.2930723291667,324.6968457458334,80.0,78.0
1436,321.12703591250005,325.50816616250006,45.0,85.0
1437,325.36099641250007,325.5968453708334,71.0,70.0
1438,325.44024166250006,325.7062792875001,76.0,86.0
1439,324.67986462083337,325.73835474583336,78.0,84.0
1440,325.5968453708334,326.3006186625,80.0,82.0
1441,326.17043003750007,326.5930713708334,76.0,84.0
1442,326.41571295416674,326.6892977458334,71.0,83.0
1443,325.4534492041667,326.7006184958334,52.0,66.0
1444,326.6175996625001,326.8421278708334,80.0,81.0
1445,326.7798637458334,326.9685429125001,76.0,84.0
1446,326.9157127458334,327.06854287083337,71.0,83.0
1447,327.04778816250007,327.24590128750003,80.0,85.0
1448,327.2043918708334,327.36665595416673,76.0,84.0
1449,327.33646728750006,327.6025049125001,71.0,84.0
1450,328.15533487083337,328.29684424583337,71.0,78.0
1451,325.60061895416675,328.3043914125001,68.0,75.0
1452,325.53269445416674,328.3100517875001,64.0,77.0
1453,328.24401407916673,328.6930704958334,81.0,87.0
1454,328.67797616250004,328.83835345416674,71.0,75.0
1455,327.5194860791667,328.89684399583336,80.0,79.0
1456,328.82514591250003,330.1421264958334,83.0,84.0
1457,330.33835282916675,330.7270319125001,71.0,73.0
1458,330.4440131625,330.9666544541667,78.0,79.0
1459,331.06665441250004,331.3421259958334,75.0,84.0
1460,331.2911826208334,331.5742013708334,71.0,79.0
1461,331.5157108291667,331.7496729958334,78.0,85.0
1462,331.6911824541667,331.9119370791667,75.0,91.0
1463,331.8968427458334,332.0949558708334,71.0,90.0
1464,332.0836351208334,332.35721991250006,78.0,91.0
1465,332.25533316250005,332.45344628750007,75.0,86.0
1466,332.4383519541667,332.6572197875001,71.0,91.0
1467,332.65155941250003,332.9609932458334,76.0,84.0
1468,332.9194838291667,333.28363462083337,71.0,87.0
1469,333.23080445416673,333.52325716250004,75.0,79.0
1470,333.5308043291667,333.8119362875001,71.0,84.0
1471,333.80061553750005,334.0364644958334,76.0,81.0
1472,330.3817490375001,334.1157097458334,47.0,87.0
1473,334.1892946208334,334.7817472041667,78.0,78.0
1474,334.97042637083337,335.15533195416674,76.0,86.0
1475,334.8911811208334,335.25344512083336,71.0,70.0
1476,335.0930678291667,335.5666525375001,80.0,76.0
1477,335.4458978708334,335.9232561625001,76.0,85.0
1478,335.6798600375001,335.9836334958334,71.0,84.0
1479,335.90627503750005,336.16853907916675,80.0,86.0
1480,336.0892938291667,336.2987277041667,76.0,90.0
1481,336.2553314958334,336.4987276208334,71.0,91.0
1482,336.4251427458334,336.6458973708334,80.0,99.0
1483,336.5949539958334,336.73457657916674,76.0,90.0
1484,336.7421237458334,336.9270293291667,71.0,92.0
1485,336.9043878291667,337.1213688708334,80.0,92.0
1486,337.07231228750004,337.26099145416674,76.0,84.0
1487,337.2345763708334,337.46476495416675,71.0,90.0
1488,337.4383498708334,337.7836327458334,80.0,87.0
1489,337.7421233291667,337.99306662083336,76.0,66.0
1490,338.0628779125001,338.2100476625001,71.0,91.0
1491,338.16476466250003,338.48929282916674,80.0,89.0
1492,338.49306641250007,338.6138210791667,71.0,80.0
1493,338.5817456208334,338.67419841250006,76.0,79.0
1494,338.6157078708334,338.87042474583336,81.0,85.0
1495,338.8760851208334,339.0383492041667,71.0,83.0
1496,338.97608507916675,339.11382087083337,76.0,82.0
1497,339.06476428750005,339.43457545416675,83.0,90.0
1498,334.9723131625001,339.7817451208334,52.0,90.0
1499,339.8855186625001,340.0628770791667,76.0,81.0
1500,339.9798582458334,340.1006129125001,80.0,78.0
1501,340.06853745416674,340.14778270416673,83.0,77.0
1502,340.11193366250006,340.2421222875001,88.0,91.0
1503,340.73646170416674,341.0760842041667,83.0,85.0
1504,341.03457478750005,341.3213671208334,88.0,92.0
1505,341.2949520375001,341.77608391250004,87.0,86.0
1506,341.7345744958334,342.21759316250007,83.0,82.0
1507,342.1289139541667,342.59872507916674,76.0,83.0
1508,342.6119326208334,343.2232531208334,85.0,82.0
1509,343.1440078708334,343.41759266250006,81.0,79.0
1510,343.3534417458334,343.5741963708334,76.0,82.0
1511,343.5270265791667,343.7458944125001,85.0,83.0
1512,343.68551707916674,343.8968377458334,81.0,79.0
1513,343.7911774125001,343.95721507916676,76.0,85.0
1514,343.9364603708334,344.15344141250006,85.0,83.0
1515,344.0949508708334,344.32891303750006,81.0,79.0
1516,344.1949508291667,344.35344132916674,76.0,75.0
1517,344.3383469958334,344.57230916250006,85.0,78.0
1518,344.5194789958334,344.78174303750006,81.0,56.0
1519,339.9968393708334,344.8006109541667,45.0,82.0
1520,344.6251393291667,344.8081581208334,76.0,76.0
1521,344.7968373708334,344.99117691250007,85.0,85.0
1522,344.93834674583337,345.05910141250007,81.0,82.0
1523,345.04778066250003,345.20249757916673,76.0,92.0
1524,345.1817428708334,345.3307994125,85.0,96.0
1525,345.30815791250006,345.44023332916674,81.0,86.0
1526,345.4081578708334,345.5496672458334,76.0,89.0
1527,345.51947857916673,345.6874030375001,85.0,97.0
1528,345.6723087041667,345.8081577041667,81.0,78.0
1529,345.74966716250003,345.90249728750007,76.0,80.0
1530,345.87042182916673,346.07985570416673,85.0,87.0
1531,346.0383462875001,346.2628744958334,81.0,74.0
1532,346.1798556625001,346.37230841250005,76.0,84.0
1533,346.3874027458334,346.7006101625001,85.0,90.0
1534,346.8666478291667,347.11381753750004,76.0,79.0
1535,346.6364592458334,347.1515533708334,81.0,75.0
1536,347.1402326208334,348.75532628750005,85.0,77.0
1537,347.30249670416674,349.1477789541667,45.0,77.0
1538,349.4024958291667,349.8609862041667,40.0,86.0
1539,349.72136362083336,350.28551432916674,47.0,81.0
1540,350.0874012041667,350.5270236625,52.0,68.0
1541,350.42136332916675,350.8440046625001,47.0,88.0
1542,350.75343866250006,351.1421177458334,52.0,90.0
1543,351.0628724958334,351.4968345791667,47.0,86.0
1544,351.4138157458334,351.9175891208334,52.0,91.0
1545,351.8100419958334,352.0364569958334,47.0,88.0
1546,349.40815620416674,352.2572116208334,68.0,83.0
1547,352.3213625375001,353.2458904541667,66.0,84.0
1548,352.71758878750006,353.2723055375001,51.0,69.0
1549,353.1949470791667,353.9590977041667,63.0,80.0
1550,354.00060712083337,356.6590965791667,59.0,91.0
1551,353.17230557916673,356.7213607041667,54.0,79.0
1552,354.30815416250005,356.7289078708334,63.0,82.0
1553,354.6911728708334,356.74966257916674,66.0,76.0
1554,353.6043808708334,356.7685304958334,51.0,83.0
1555,355.0855123291667,356.7949455791667,71.0,77.0
1556,352.28362670416675,356.82324745416673,47.0,92.0
1557,362.53079224583337,365.5647532458334,40.0,69.0
