,start,end,pitch,velocity
0,26.909867575,27.4883556,76.0,127.0
1,27.607541575,27.973820425,78.0,122.0
2,27.956378575,28.2746923375,76.0,100.0
3,28.305215575000002,28.9549244875,74.0,112.0
4,29.002889575,29.5653892375,71.0,112.0
5,29.351726575,29.7310868125,74.0,102.0
6,29.700563575,30.64533045,76.0,107.0
7,30.398237575,30.7369001625,78.0,122.0
8,30.747074575,31.0770162375,76.0,96.0
9,31.095911575,31.5741089625,74.0,100.0
10,31.444748575,32.2325388,71.0,102.0
11,32.491259575,32.8473640125,83.0,122.0
12,32.840096575,33.409863675,86.0,122.0
13,33.537770575,33.7892239125,83.0,107.0
14,33.886607575,34.16858415,88.0,127.0
15,34.235444575,34.5508513625,86.0,107.0
16,34.584281575,34.9200371875,83.0,102.0
17,34.933118575,35.2557928,81.0,117.0
18,35.281955575,36.0697458,83.0,127.0
19,38.072651575,38.4607327375,83.0,122.0
20,38.421488575,38.5653838375,86.0,100.0
21,38.770325575,39.069744,86.0,127.0
22,39.119162575,39.4432902875,83.0,102.0
23,39.467999575,40.40113855,88.0,127.0
24,40.863347575,41.1177078875,81.0,127.0
25,41.212184575,41.5275913625,81.0,99.0
26,41.561021575,41.8735213875,83.0,122.0
27,41.909858575,42.2020095625,81.0,100.0
28,42.258695575,42.5363116875,79.0,107.0
29,43.654043575,43.9185783,71.0,112.0
30,44.002880575,44.2601478625,74.0,100.0
31,44.351717575,44.6060778875,76.0,99.0
32,44.700554575,45.0072404375,83.0,107.0
33,45.049391575,45.5014261875,81.0,127.0
34,45.398228575,45.5014261875,81.0,122.0
35,45.572647075,45.92439105,78.0,107.0
36,46.095902575,46.4520070125,76.0,92.0
37,46.444739575,48.601715025,74.0,93.0
38,49.235435575,49.502877275,76.0,97.0
39,49.584272575,49.9200281875,76.0,88.0
40,49.933109575,50.258690775,78.0,102.0
41,50.281946575,50.6467719375,76.0,92.0
42,50.630783575,51.2223529875,74.0,95.0
43,51.328457575,51.6060736875,71.0,100.0
44,51.677294575,52.0014222875,74.0,100.0
45,52.026131575,52.276131425,76.0,100.0
46,52.374968575,52.66857305,76.0,97.0
47,52.723805575,53.0115961,78.0,127.0
48,53.072642575,53.3793284375,76.0,112.0
49,53.421479575,53.921479275,74.0,107.0
50,53.770316575,54.5828160875,71.0,90.0
51,54.816827575,55.119152975,83.0,102.0
52,55.165664575,55.81392,86.0,107.0
53,55.863338575,56.212175575,83.0,100.0
54,56.212175575,56.47089635,88.0,117.0
55,56.561012575,56.8720589,86.0,117.0
56,56.909849575,57.1990935875,83.0,97.0
57,57.258686575,57.5333957125,81.0,100.0
58,57.607523575,57.9810698625,81.0,97.0
59,57.956360575,60.06391745,83.0,100.0
60,60.398219575,60.6176961875,86.0,122.0
61,60.747056575,61.031940125,86.0,122.0
62,61.095893575,61.38949805,83.0,99.0
63,61.444730575,61.76159085,86.0,127.0
64,61.793567575,62.619148475,88.0,122.0
65,62.491241575000004,62.619148475,88.0,122.0
66,62.840078575,63.171473725,83.0,107.0
67,63.188915575,63.5333921125,81.0,97.0
68,63.537752575,63.9069384,81.0,117.0
69,63.886589575,64.241240525,83.0,112.0
70,64.235426575,64.688914675,81.0,96.0
71,64.584263575,65.3357166125,79.0,107.0
72,65.979611575,66.276123025,71.0,102.0
73,66.328448575,66.613332125,74.0,92.0
74,66.677285575,66.909843575,76.0,100.0
75,67.026122575,67.334261925,83.0,117.0
76,67.374959575,68.0043196625,81.0,127.0
77,68.072633575,68.3676915375,81.0,127.0
78,68.421470575,68.764493625,78.0,122.0
79,68.770307575,69.0886213375,76.0,112.0
80,69.119144575,69.4767025,78.0,117.0
81,69.467981575,69.81972555,74.0,96.0
82,69.816818575,70.799376125,71.0,96.0
83,70.863329575,71.1787363625,81.0,122.0
84,71.212166575,71.5682710125,78.0,102.0
85,71.561003575,73.6072404125,76.0,117.0
86,73.658710975,73.946946125,83.0,112.0
87,74.013481175,74.3137855125,86.0,122.0
88,74.379334175,76.138124575,88.0,127.0
89,76.48696157500001,76.76603117500001,83.0,117.0
90,76.835798575,77.15265885000001,86.0,102.0
91,77.184635575,79.050913525,88.0,122.0
92,79.277657575,79.5756225125,83.0,117.0
93,79.62649457500001,79.97097111250001,86.0,107.0
94,79.975331575,80.80672642500001,88.0,112.0
95,80.673005575,80.80672642500001,88.0,112.0
96,81.02184257500001,81.3561447,91.0,99.0
97,81.370679575,81.7296909875,88.0,112.0
98,82.068353575,82.4157370875,88.0,127.0
99,82.417190575,82.74422526250001,86.0,99.0
100,82.76602757500001,84.5145730375,83.0,102.0
101,84.859049575,85.14974707500001,83.0,107.0
102,85.207886575,85.5305608,86.0,117.0
103,85.556723575,87.0552691875,88.0,112.0
104,87.649745575,87.92590820000001,83.0,107.0
105,87.998582575,88.33288470000001,86.0,107.0
106,88.347419575,89.83869775000001,88.0,117.0
107,90.44044157500001,90.754394875,83.0,99.0
108,90.789278575,91.04363888750001,86.0,100.0
109,91.138115575,91.4884060625,88.0,127.0
110,91.661371075,91.7442198625,88.0,127.0
111,91.835789575,92.0654406,88.0,122.0
112,92.18520797500001,92.48226665,86.0,122.0
113,92.53814897500001,93.0131487375,83.0,102.0
114,93.244030975,93.57638375,76.0,112.0
115,93.596971975,93.9425600375,79.0,107.0
116,93.949912975,95.79844146250001,81.0,127.0
117,96.06755897500001,96.38814705,76.0,127.0
118,96.42049997500001,96.77049980000001,79.0,102.0
119,96.773440975,97.5662072875,81.0,112.0
120,98.86998557500002,99.09963660000001,81.0,127.0
121,99.218822575,99.53713633750002,81.0,122.0
122,99.56765957500001,99.89614775000001,83.0,107.0
123,99.91649657500001,101.35544920000001,78.0,100.0
124,101.66068157500001,102.02259996250001,71.0,107.0
125,102.00951857500002,102.34091372500001,74.0,97.0
126,102.358355575,102.6185298375,76.0,117.0
127,102.70719257500001,103.33800615000001,76.0,107.0
128,103.40486657500001,103.74207567500001,74.0,112.0
129,103.753703575,104.49788917500001,76.0,122.0
130,104.45137757500001,104.49788917500001,76.0,117.0
131,104.80021457500001,105.131609725,79.0,107.0
132,105.14905157500002,106.19120211250001,81.0,117.0
133,106.19556257500001,106.45428335000001,83.0,122.0
134,106.54439957500001,106.83945753750001,86.0,117.0
135,107.242073575,107.53131758750001,83.0,112.0
136,107.59091057500001,107.92085223750001,86.0,107.0
137,107.93974757500001,108.82637495,88.0,122.0
138,108.98625857500001,109.29585141250001,83.0,122.0
139,109.33509557500001,109.753699975,81.0,127.0
140,110.032769575,110.34962985000001,81.0,112.0
141,110.381606575,110.7231761375,78.0,97.0
142,110.73044357500001,113.4760814625,76.0,112.0
143,135.846707575,136.4251956,76.0,127.0
144,136.54438157500002,136.910660425,78.0,122.0
145,136.89321857500002,137.21153233750002,76.0,100.0
146,137.242055575,137.8917644875,74.0,112.0
147,137.939729575,138.50222923750002,71.0,112.0
148,138.288566575,138.6679268125,74.0,102.0
149,138.637403575,139.58217045,76.0,107.0
150,139.335077575,139.6737401625,78.0,122.0
151,139.68391457500002,140.01385623750002,76.0,96.0
152,140.03275157500002,140.5109489625,74.0,100.0
153,140.38158857500002,141.1693788,71.0,102.0
154,141.428099575,141.78420401250003,83.0,122.0
155,141.776936575,142.34670367500001,86.0,122.0
156,142.474610575,142.72606391250002,83.0,107.0
157,142.82344757500002,143.10542415,88.0,127.0
158,143.172284575,143.48769136250002,86.0,107.0
159,143.521121575,143.8568771875,83.0,102.0
160,143.869958575,144.1926328,81.0,117.0
161,144.218795575,145.0065858,83.0,127.0
162,147.03059297500002,147.4221967375,83.0,122.0
163,147.38295257500002,147.52684783750001,86.0,100.0
164,147.73178957500002,148.03120800000002,86.0,127.0
165,148.08062657500003,148.40475428750003,83.0,102.0
166,148.42946357500003,149.36260255000002,88.0,127.0
167,149.824811575,150.07917188750002,81.0,127.0
168,150.17364857500002,150.4890553625,81.0,99.0
169,150.52248557500002,150.8349853875,83.0,122.0
170,150.87132257500002,151.1634735625,81.0,100.0
171,151.22015957500003,151.49777568750002,79.0,107.0
172,152.615507575,152.8800423,71.0,112.0
173,152.964344575,153.22161186250003,74.0,100.0
174,153.31318157500002,153.56754188750003,76.0,99.0
175,153.66201857500002,153.9687044375,83.0,107.0
176,154.01085557500002,154.46289018750002,81.0,127.0
177,154.35969257500003,154.46289018750002,81.0,122.0
178,154.53411107500003,154.88585505,78.0,107.0
179,155.057366575,155.41347101250003,76.0,92.0
180,155.406203575,157.585032825,74.0,93.0
181,158.226208975,158.49679707500002,76.0,97.0
182,158.57856857500002,158.91432418750003,76.0,88.0
183,158.92740557500002,159.252986775,78.0,102.0
184,159.27624257500003,159.64106793750003,76.0,92.0
185,159.62507957500003,160.2166489875,74.0,95.0
186,160.322753575,160.6003696875,71.0,100.0
187,160.671590575,160.9957182875,74.0,100.0
188,161.020427575,161.270427425,76.0,100.0
189,161.36926457500002,161.66286905,76.0,97.0
190,161.71810157500002,162.0058921,78.0,127.0
191,162.06693857500002,162.3736244375,76.0,112.0
192,162.41577557500003,162.91577527500002,74.0,107.0
193,162.764612575,163.5771120875,71.0,90.0
194,163.811123575,164.113448975,83.0,102.0
195,164.159960575,164.80821600000002,86.0,107.0
196,164.85763457500002,165.20647157500002,83.0,100.0
197,165.20647157500002,165.46519235000002,88.0,117.0
198,165.55530857500003,165.8663549,86.0,117.0
199,165.90414557500003,166.1933895875,83.0,97.0
200,166.252982575,166.52769171250003,81.0,100.0
201,166.601819575,166.9753658625,81.0,97.0
202,166.950656575,169.05821345,83.0,100.0
203,169.392515575,169.61199218750002,86.0,122.0
204,169.741352575,170.02623612500003,86.0,122.0
205,170.090189575,170.38379405,83.0,99.0
206,170.439026575,170.75588685000002,86.0,127.0
207,170.78786357500002,171.61344447500002,88.0,122.0
208,171.48553757500002,171.61344447500002,88.0,122.0
209,171.83437457500003,172.16576972500002,83.0,107.0
210,172.18321157500003,172.52821821250004,81.0,97.0
211,172.53262997500002,172.90615920000002,81.0,117.0
212,172.88557097500004,173.24439432500003,83.0,112.0
213,173.23851197500002,173.69733527500003,81.0,96.0
214,173.59145297500004,174.35174671250002,79.0,107.0
215,175.00321697500002,175.30321682500002,71.0,102.0
216,175.35615797500003,175.64439312500002,74.0,92.0
217,175.70909897500002,175.94439297500003,76.0,100.0
218,176.06203997500003,176.37380452500003,83.0,117.0
219,176.41498097500002,177.04786366250002,81.0,127.0
220,177.11617757500002,177.4112355375,81.0,127.0
221,177.46501457500003,177.80803762500003,78.0,122.0
222,177.81385157500003,178.13216533750003,76.0,112.0
223,178.162688575,178.5202465,78.0,117.0
224,178.511525575,178.86326955,74.0,96.0
225,178.860362575,179.842920125,71.0,96.0
226,179.90687357500002,180.22228036250002,81.0,122.0
227,180.25571057500002,180.61181501250002,78.0,102.0
228,180.60454757500003,182.62666671875002,76.0,117.0
229,182.67695406250002,182.95856318750003,83.0,112.0
230,183.02178156250002,183.30482746875003,86.0,122.0
231,183.36660906250003,185.10735257500002,88.0,127.0
232,185.45618957500002,185.73525917500004,83.0,117.0
233,185.80502657500003,186.12188685000004,86.0,102.0
234,186.15386357500003,188.02014152500004,88.0,122.0
235,188.24688557500002,188.54485051250003,83.0,117.0
236,188.59572257500002,188.94019911250004,86.0,107.0
237,188.94455957500003,189.77595442500004,88.0,112.0
238,189.64223357500003,189.77595442500004,88.0,112.0
239,189.99107057500004,190.32537270000003,91.0,99.0
240,190.33990757500004,190.69891898750004,88.0,112.0
241,191.03758157500005,191.38496508750003,88.0,127.0
242,191.38641857500002,191.71345326250002,86.0,99.0
243,191.73525557500002,193.48380103750003,83.0,102.0
244,193.82827757500004,194.11897507500004,83.0,107.0
245,194.17711457500002,194.49978880000003,86.0,117.0
246,194.52595157500002,196.02449718750003,88.0,112.0
247,196.61897357500004,196.89513620000002,83.0,107.0
248,196.96781057500004,197.30211270000004,86.0,107.0
249,197.31664757500005,198.80792575000004,88.0,117.0
250,199.40966957500004,199.72362287500005,83.0,99.0
251,199.75850657500004,200.01286688750002,86.0,100.0
252,200.10734357500004,200.45763406250003,88.0,127.0
253,200.63059907500002,200.71344786250003,88.0,127.0
254,200.80501757500002,201.03466860000003,88.0,122.0
255,201.15385457500003,201.44745905000002,86.0,122.0
256,201.50269157500003,201.97216803750004,83.0,102.0
257,202.20036557500003,202.52885375000002,76.0,112.0
258,202.54920257500004,202.89077213750002,79.0,107.0
259,202.89803957500004,204.72507336250004,81.0,127.0
260,204.99106157500003,205.30792185000004,76.0,127.0
261,205.33989857500003,205.68582860000004,79.0,102.0
262,205.68873557500004,206.47797928750003,81.0,112.0
263,207.78175757500003,208.01140860000004,81.0,127.0
264,208.13059457500003,208.44890833750003,81.0,122.0
265,208.47943157500004,208.80791975000002,83.0,107.0
266,208.82826857500004,210.26722120000002,78.0,100.0
267,210.57245357500003,210.93437196250002,71.0,107.0
268,210.92129057500003,211.25268572500005,74.0,97.0
269,211.27012757500003,211.53030183750002,76.0,117.0
270,211.61896457500004,212.24977815000003,76.0,107.0
271,212.31663857500004,212.65384767500004,74.0,112.0
272,212.66547557500004,213.40966117500002,76.0,122.0
273,213.36314957500002,213.40966117500002,76.0,117.0
274,213.71198657500003,214.04338172500002,79.0,107.0
275,214.06082357500003,215.10297411250002,81.0,117.0
276,215.10733457500004,215.36605535000004,83.0,122.0
277,215.45617157500004,215.75122953750002,86.0,117.0
278,216.15384557500005,216.44308958750003,83.0,112.0
279,216.50268257500002,216.83262423750003,86.0,107.0
280,216.85151957500003,217.73814695000004,88.0,122.0
281,217.89803057500004,218.20762341250003,83.0,122.0
282,218.24686757500004,218.66547197500003,81.0,127.0
283,218.94454157500002,219.26140185000003,81.0,112.0
284,219.29337857500002,219.63494813750003,78.0,97.0
285,219.64221557500002,221.03756357500004,76.0,112.0
286,221.73066006250002,222.01226918750004,83.0,112.0
287,222.07548756250003,222.35853346875004,86.0,122.0
288,222.42031506250004,224.14445256250002,88.0,127.0
289,224.48928006250003,224.76514206250005,83.0,117.0
290,224.83410756250004,225.14732587500004,86.0,102.0
291,225.17893506250005,227.02376218750004,88.0,122.0
292,227.24790006250004,227.54244021875004,83.0,117.0
293,227.59329557500004,227.93777211250003,86.0,107.0
294,227.94213257500004,228.77352742500003,88.0,112.0
295,228.63980657500005,228.77352742500003,88.0,112.0
296,228.98864357500003,229.32294570000005,91.0,99.0
297,229.33748057500003,229.69649198750002,88.0,112.0
298,230.03515457500004,230.38253808750002,88.0,127.0
299,230.38399157500004,230.71102626250004,86.0,99.0
300,230.73282857500004,232.48137403750005,83.0,102.0
301,232.82585057500003,233.11654807500003,83.0,107.0
302,233.17468757500004,233.49736180000005,86.0,117.0
303,233.52352457500004,235.02207018750005,88.0,112.0
304,235.61654657500003,235.89270920000004,83.0,107.0
305,235.96538357500003,236.29968570000003,86.0,107.0
306,236.31422057500004,237.80549875000003,88.0,117.0
307,238.40724257500003,238.72119587500003,83.0,99.0
308,238.75607957500003,239.01043988750004,86.0,100.0
309,239.10491657500003,239.45520706250005,88.0,127.0
310,239.62817207500004,239.71102086250005,88.0,127.0
311,239.80259057500004,240.03224160000005,88.0,122.0
312,240.15142757500004,240.44503205000004,86.0,122.0
313,240.50026457500005,240.96974103750003,83.0,102.0
314,241.19793857500002,241.52642675000004,76.0,112.0
315,241.54677557500003,241.88834513750004,79.0,107.0
316,241.89561257500003,243.72264636250003,81.0,127.0
317,243.98863457500005,244.30549485000003,76.0,127.0
318,244.33747157500005,244.68340160000002,79.0,102.0
319,244.68630857500003,245.47555228750002,81.0,112.0
320,246.77933057500005,247.00898160000003,81.0,127.0
321,247.12816757500005,247.44648133750005,81.0,122.0
322,247.47700457500002,247.80549275000004,83.0,107.0
323,247.82584157500003,249.26479420000004,78.0,100.0
324,249.57002657500004,249.93194496250004,71.0,107.0
325,249.91886357500005,250.25025872500004,74.0,97.0
326,250.26770057500005,250.52787483750004,76.0,117.0
327,250.61653757500005,251.24735115000004,76.0,107.0
328,251.31421157500003,251.65142067500003,74.0,112.0
329,251.66304857500003,252.40723417500004,76.0,122.0
330,252.36072257500004,252.40723417500004,76.0,117.0
331,252.70955957500004,253.04095472500003,79.0,107.0
332,253.05839657500005,254.10054711250004,81.0,117.0
333,254.10490757500003,254.36362835000003,83.0,122.0
334,254.45374457500003,254.74880253750004,86.0,117.0
335,255.15141857500004,255.44066258750004,83.0,112.0
336,255.50025557500004,255.83019723750004,86.0,107.0
337,255.84909257500004,256.73571995000003,88.0,122.0
338,256.89560357500005,257.2051964125,83.0,122.0
339,257.24444057500006,257.66304497500005,81.0,127.0
340,257.94211457500006,258.25897485,81.0,112.0
341,258.290951575,258.6325211375,78.0,97.0
342,258.639788575,260.73281057500003,76.0,112.0
343,260.73281057500003,261.29676372500006,86.0,127.0
344,261.43048457500004,265.73198711250006,88.0,127.0
