,start,end,pitch,velocity
0,4.584299575,5.293601475,71.0,92.0
1,5.281973575,5.293601475,71.0,85.0
2,4.584299575,5.3037758875,67.0,89.0
3,5.281973575,5.3037758875,67.0,89.0
4,4.584299575,5.3241247125,62.0,89.0
5,4.584299575,5.4927292625,43.0,71.0
6,5.630810575,5.758717475,43.0,65.0
7,6.328484575,6.71511225,62.0,36.0
8,5.979647575,6.991274875,43.0,75.0
9,6.677321575,7.2049375375,67.0,85.0
10,7.026158575,7.4592978500000005,62.0,66.0
11,6.677321575,7.531972225,71.0,83.0
12,7.374995575,8.2209253,42.0,97.0
13,8.421506575,8.555227425,42.0,82.0
14,8.072669575,9.084296875,66.0,93.0
15,8.072669575,9.206389825,74.0,54.0
16,8.072669575,9.2747037375,71.0,82.0
17,8.770343575,9.624994225,42.0,67.0
18,9.468017575,10.1555171625,74.0,76.0
19,9.468017575,10.1729590125,66.0,89.0
20,9.468017575,10.258714775,71.0,79.0
21,10.165691575,11.026156175,40.0,77.0
22,11.212202575,11.328481575,52.0,49.0
23,11.212202575,11.3677257375,40.0,69.0
24,10.863365575,11.5799349125,67.0,79.0
25,10.863365575,11.6235395375,71.0,77.0
26,10.863365575,11.654062775,64.0,74.0
27,11.561039575,12.2892368125,40.0,56.0
28,11.561039575,12.54069015,52.0,60.0
29,12.258713575,12.9927247625,64.0,86.0
30,12.258713575,13.0334224125,67.0,86.0
31,12.607550575,13.0697596,59.0,46.0
32,12.956387575,13.7979568375,45.0,74.0
33,14.002898575,14.152607787500001,45.0,66.0
34,13.654061575,14.8183050625,60.0,82.0
35,13.654061575,14.84301435,64.0,82.0
36,15.049409575,15.3444675375,60.0,71.0
37,14.351735575,15.3619093875,45.0,74.0
38,15.049409575,15.43603725,64.0,72.0
39,15.747083575,16.6046412,49.0,70.0
40,16.793594575,16.9694665625,49.0,73.0
41,15.747083575,17.7020242625,64.0,72.0
42,15.747083575,17.723826575,61.0,67.0
43,15.747083575,17.7252800625,57.0,72.0
44,17.142431575,17.9985357125,49.0,86.0
45,17.840105575,18.47091915,64.0,75.0
46,17.840105575,18.6235353375,61.0,88.0
47,18.188942575,18.6322562625,57.0,59.0
48,18.537779575000002,19.3967906875,38.0,59.0
49,19.584290575,19.7092905,50.0,68.0
50,19.584290575,19.71510445,38.0,60.0
51,19.235453575,20.4345807625,57.0,70.0
52,19.235453575,20.468010975,62.0,78.0
53,19.235453575,20.491266775,66.0,72.0
54,19.933127575,20.7514410375,38.0,74.0
55,19.933127575,20.7979526375,50.0,93.0
56,20.630801575,21.4258592375,62.0,75.0
57,20.630801575,21.4418476,66.0,82.0
58,21.677312575,22.090103025,47.0,38.0
59,21.328475575,22.1744053,40.0,83.0
60,22.374986575,22.4883586,52.0,69.0
61,22.374986575,22.4956260375,40.0,47.0
62,22.374986575,22.5014399875,47.0,55.0
63,22.723823575,23.9665553875,40.0,62.0
64,22.723823575,24.1467878375,47.0,46.0
65,22.026149575,25.35463595,67.0,66.0
66,22.026149575,25.3735312875,64.0,65.0
67,22.723823575,25.7572519875,52.0,56.0
68,25.863356575,26.357542325,52.0,50.0
69,24.119171575,26.5930073,40.0,65.0
70,25.165682575,26.909867575,47.0,39.0
71,22.026149575,26.909867575,59.0,67.0
72,25.514519575,26.909867575,67.0,85.0
73,26.909867575,27.7078322125,40.0,90.0
74,27.607541575,28.2979481375,67.0,67.0
75,27.607541575,28.299401625,64.0,72.0
76,27.607541575,28.30812255,59.0,58.0
77,27.956378575,28.3153899875,40.0,72.0
78,28.305215575000002,29.186029,47.0,66.0
79,29.002889575,29.6671333625,66.0,93.0
80,29.351726575,29.69184265,47.0,68.0
81,29.002889575,29.9694587625,62.0,76.0
82,29.700563575,30.5130630875,40.0,66.0
83,30.398237575,31.049399975,64.0,75.0
84,30.398237575,31.06393485,67.0,76.0
85,30.398237575,31.0973650625,59.0,71.0
86,30.747074575,31.107539475,40.0,49.0
87,31.444748575,31.8589925125,59.0,50.0
88,31.095911575,31.9781784875,47.0,67.0
89,31.793585575,32.4883526,62.0,72.0
90,31.793585575,32.5014339875,66.0,95.0
91,32.142422575,32.58718975,59.0,64.0
92,32.491259575,33.3618985875,43.0,71.0
93,33.188933575,33.48253805,59.0,86.0
94,33.188933575,33.4956194375,62.0,83.0
95,33.537770575,33.8153866875,43.0,78.0
96,34.235444575,34.4694560625,59.0,39.0
97,33.886607575,34.70346755,40.0,75.0
98,34.584281575,35.229630025,64.0,81.0
99,34.584281575,35.2659672125,67.0,85.0
100,34.933118575,35.2746881375,40.0,66.0
101,35.281955575,36.1496876125,47.0,69.0
102,36.328466575,36.4665478875,47.0,89.0
103,35.979629575,36.805210475,59.0,59.0
104,35.979629575,36.80811745,62.0,81.0
105,35.979629575,36.81974535,66.0,78.0
106,36.677303575,37.57555885,47.0,62.0
107,37.026140575,37.9868958125,62.0,76.0
108,37.026140575,37.9956167375,66.0,99.0
109,37.374977575,38.002884175,59.0,90.0
110,37.723814575,38.0479422875,45.0,75.0
111,38.072651575,38.9171278125,43.0,58.0
112,39.119162575,39.418581,43.0,76.0
113,38.770325575,39.4302089,62.0,71.0
114,38.770325575,39.5334065125,67.0,76.0
115,38.770325575,39.549394875,71.0,70.0
116,39.816836575,40.2485223625,64.0,62.0
117,39.467999575,40.4898012875,40.0,74.0
118,40.165673575,40.8473592125,67.0,60.0
119,40.165673575,40.8502661875,71.0,76.0
120,40.514510575,40.9171266125,64.0,57.0
121,40.863347575,41.752881925,38.0,66.0
122,41.212184575,41.8182888625,50.0,44.0
123,41.561021575,42.241253725,62.0,89.0
124,41.909858575,42.24997465,57.0,66.0
125,41.561021575,42.2863118375,66.0,89.0
126,42.258695575,42.70346275,36.0,81.0
127,42.607532575,43.223811275,55.0,38.0
128,42.258695575,43.2630554375,48.0,71.0
129,42.956369575000004,43.5770087375,67.0,83.0
130,42.956369575000004,43.5813692,64.0,82.0
131,43.305206575,43.6438691625,36.0,82.0
132,43.305206575,43.6932877375,60.0,64.0
133,43.654043575,44.2368920625,35.0,73.0
134,44.002880575,44.3473571125,55.0,52.0
135,43.654043575,44.9185777,47.0,72.0
136,44.700554575,44.9578218625,35.0,75.0
137,44.351717575,45.049391575,59.0,82.0
138,44.351717575,45.0682869125,62.0,90.0
139,44.700554575,45.0799148125,55.0,58.0
140,45.049391575,45.6147982125,33.0,76.0
141,45.398228575,45.816832975,57.0,52.0
142,45.049391575,46.061018875,45.0,69.0
143,46.095902575,46.35462335,33.0,88.0
144,45.747065575,46.4432860875,64.0,75.0
145,45.747065575,46.4520070125,61.0,83.0
146,46.095902575,46.56392555,57.0,55.0
147,46.444739575,47.264506525,50.0,54.0
148,46.444739575,47.2717739625,38.0,74.0
149,47.491250575,47.6031691125,38.0,65.0
150,47.491250575,47.6278784,50.0,85.0
151,46.793576575,48.0101456125,57.0,44.0
152,47.142413575,48.0479362875,66.0,86.0
153,47.142413575,48.0537502375,62.0,72.0
154,48.188924575,48.6642149875,62.0,77.0
155,48.188924575,48.6758428875,66.0,83.0
156,47.840087575,49.0246798875,50.0,81.0
157,47.840087575,49.049389175,38.0,79.0
158,48.537761575,49.217993725,57.0,85.0
159,48.886598575,49.235435575,62.0,81.0
160,48.886598575,49.2601448625,66.0,96.0
161,49.235435575,50.0334002125,40.0,90.0
162,49.933109575,50.6235161375,67.0,67.0
163,49.933109575,50.624969625,64.0,72.0
164,49.933109575,50.63369055,59.0,58.0
165,50.281946575,50.6409579875,40.0,72.0
166,50.630783575,51.511597,47.0,66.0
167,51.328457575,51.9927013625,66.0,93.0
168,51.677294575,52.01741065,47.0,68.0
169,51.328457575,52.2950267625,62.0,76.0
170,52.026131575,52.8386310875,40.0,66.0
171,52.723805575,53.374967975,64.0,75.0
172,52.723805575,53.38950285,67.0,76.0
173,52.723805575,53.4229330625,59.0,71.0
174,53.072642575,53.433107475,40.0,49.0
175,53.770316575,54.1845605125,59.0,50.0
176,53.421479575,54.3037464875,47.0,67.0
177,54.119153575,54.8139206,62.0,72.0
178,54.119153575,54.8270019875,66.0,95.0
179,54.467990575,54.91275775,59.0,64.0
180,54.816827575,55.6874665875,43.0,71.0
181,55.514501575,55.80810605,59.0,86.0
182,55.514501575,55.8211874375,62.0,83.0
183,55.863338575,56.1409546875,43.0,78.0
184,56.561012575,56.7950240625,59.0,39.0
185,56.212175575,57.02903555,40.0,75.0
186,56.909849575,57.555198025,64.0,81.0
187,56.909849575,57.5915352125,67.0,85.0
188,57.258686575,57.6002561375,40.0,66.0
189,57.607523575,58.4752556125,47.0,69.0
190,58.654034575,58.7921158875,47.0,89.0
191,58.305197575,59.130778475,59.0,59.0
192,58.305197575,59.13368545,62.0,81.0
193,58.305197575,59.14531335,66.0,78.0
194,59.002871575,59.90112685,47.0,62.0
195,59.351708575,60.3124638125,62.0,76.0
196,59.351708575,60.3211847375,66.0,99.0
197,59.700545575,60.328452175,59.0,90.0
198,60.049382575,60.3735102875,45.0,75.0
199,60.398219575,61.2426958125,43.0,58.0
200,61.444730575,61.744149,43.0,76.0
201,61.095893575,61.7557769,62.0,71.0
202,61.095893575,61.8589745125,67.0,76.0
203,61.095893575,61.874962875,71.0,70.0
204,62.142404575,62.5740903625,64.0,62.0
205,61.793567575,62.8153692875,40.0,74.0
206,62.491241575000004,63.1729272125,67.0,60.0
207,62.491241575000004,63.1758341875,71.0,76.0
208,62.840078575,63.2426946125,64.0,57.0
209,63.188915575,64.078449925,38.0,66.0
210,63.537752575,64.1438568625,50.0,44.0
211,63.886589575,64.566821725,62.0,89.0
212,64.235426575,64.57554265,57.0,66.0
213,63.886589575,64.6118798375,66.0,89.0
214,64.584263575,65.02903075,36.0,81.0
215,64.933100575,65.549379275,55.0,38.0
216,64.584263575,65.5886234375,48.0,71.0
217,65.281937575,65.9025767375,67.0,83.0
218,65.281937575,65.9069372,64.0,82.0
219,65.630774575,65.9694371625,36.0,82.0
220,65.630774575,66.0188557375,60.0,64.0
221,65.979611575,66.5624600625,35.0,73.0
222,66.328448575,66.6729251125,55.0,52.0
223,65.979611575,67.2441457,47.0,72.0
224,67.026122575,67.2833898625,35.0,75.0
225,66.677285575,67.374959575,59.0,82.0
226,66.677285575,67.3938549125,62.0,90.0
227,67.026122575,67.4054828125,55.0,58.0
228,67.374959575,67.9403662125,33.0,76.0
229,67.723796575,68.142400975,57.0,52.0
230,67.374959575,68.386586875,45.0,69.0
231,68.421470575,68.68019135,33.0,88.0
232,68.072633575,68.7688540875,64.0,75.0
233,68.072633575,68.7775750125,61.0,83.0
234,68.421470575,68.88949355,57.0,55.0
235,68.770307575,69.5653652375,47.0,82.0
236,68.770307575,69.5711791875,35.0,68.0
237,69.467981575,69.7833883625,62.0,83.0
238,69.467981575,69.793562775,59.0,69.0
239,69.467981575,69.8037371875,66.0,85.0
240,69.816818575,69.9955975375,35.0,66.0
241,69.816818575,70.014492875,47.0,81.0
242,70.165655575,71.0159457625,47.0,79.0
243,70.165655575,71.0929806,35.0,67.0
244,70.863329575,71.3240851125,66.0,96.0
245,71.212166575,71.5188524375,47.0,78.0
246,70.863329575,71.5537361375,62.0,86.0
247,71.561003575,73.8778285125,67.0,70.0
248,71.561003575,73.8837108625,64.0,73.0
249,71.561003575,73.88518145,59.0,72.0
250,71.561003575,73.9145932,52.0,88.0
251,71.561003575,73.9425343625,40.0,66.0
252,74.379334175,75.26167161250001,40.0,67.0
253,74.379334175,75.2631251,52.0,82.0
254,75.440450575,75.574171425,40.0,54.0
255,75.440450575,75.58289235000001,52.0,77.0
256,75.091613575,75.95062468750001,59.0,74.0
257,75.091613575,75.952078175,67.0,81.0
258,75.091613575,75.9622525875,64.0,82.0
259,76.138124575,76.7035312125,64.0,93.0
260,76.138124575,76.7035312125,67.0,93.0
261,75.789287575,76.78056605,52.0,85.0
262,75.789287575,76.7936474375,40.0,71.0
263,77.010217075,77.0639961125,37.0,40.0
264,76.835798575,77.1468449,64.0,89.0
265,76.835798575,77.1570193125,67.0,73.0
266,76.835798575,77.2006239375,59.0,88.0
267,77.184635575,78.0421932,37.0,76.0
268,77.184635575,78.0465536625,49.0,70.0
269,78.231146575,78.4186464625,49.0,63.0
270,78.231146575,78.4259139,37.0,73.0
271,77.88230957500001,78.7122509375,67.0,89.0
272,77.88230957500001,78.719518375,61.0,107.0
273,77.88230957500001,78.72387883750001,64.0,93.0
274,78.579983575,79.2122506375,49.0,69.0
275,78.579983575,79.3212622,37.0,86.0
276,78.928820575,79.4593435125,67.0,85.0
277,78.928820575,79.49568070000001,64.0,96.0
278,78.928820575,79.5116690625,61.0,112.0
279,79.62649457500001,79.88521535000001,64.0,66.0
280,79.62649457500001,79.8895758125,61.0,96.0
281,79.62649457500001,79.92445951250001,67.0,70.0
282,79.975331575,80.55236611250001,60.0,81.0
283,79.975331575,80.84887756250001,48.0,96.0
284,79.975331575,80.864865925,36.0,59.0
285,81.02184257500001,81.17591225000001,36.0,63.0
286,81.02184257500001,81.178819225,48.0,63.0
287,80.673005575,81.550912025,60.0,89.0
288,80.673005575,81.574167825,64.0,90.0
289,80.673005575,81.5872492125,67.0,89.0
290,81.719516575,82.1221326125,60.0,68.0
291,81.370679575,82.12940005,48.0,79.0
292,81.370679575,82.2325976625,36.0,71.0
293,82.068353575,82.6221323125,64.0,99.0
294,82.068353575,82.6512020625,67.0,95.0
295,82.417190575,82.7965508125,60.0,69.0
296,82.76602757500001,83.591608475,35.0,66.0
297,82.76602757500001,83.60468986250001,47.0,83.0
298,83.812538575,83.94771291250001,47.0,69.0
299,83.812538575,83.9607943,35.0,57.0
300,83.463701575,84.2747476,59.0,81.0
301,83.463701575,84.2791080625,62.0,86.0
302,83.463701575,84.2965499125,66.0,90.0
303,84.16137557500001,84.65556132500001,35.0,71.0
304,84.16137557500001,84.8837588625,47.0,83.0
305,84.510212575,85.074165725,59.0,85.0
306,84.510212575,85.08870060000001,62.0,96.0
307,84.510212575,85.0959680375,66.0,107.0
308,85.207886575,85.49567710000001,66.0,99.0
309,85.207886575,85.498584075,59.0,78.0
310,85.207886575,85.5232933625,62.0,96.0
311,85.556723575,86.3692230875,52.0,88.0
312,85.556723575,86.37794401250001,40.0,69.0
313,86.603234575,86.7500368125,52.0,65.0
314,86.603234575,86.7514903,40.0,63.0
315,86.254397575,87.056722675,59.0,86.0
316,86.254397575,87.0785249875,67.0,92.0
317,86.254397575,87.0814319625,64.0,90.0
318,86.952071575,87.6933502,52.0,86.0
319,86.952071575,87.7674780625,40.0,75.0
320,87.30090857500001,87.888117525,59.0,85.0
321,87.30090857500001,87.8982919375,64.0,88.0
322,87.30090857500001,87.899745425,67.0,83.0
323,87.998582575,88.30381495,67.0,85.0
324,87.998582575,88.35614050000001,64.0,90.0
325,87.998582575,88.382303275,59.0,83.0
326,88.347419575,89.1628260625,49.0,65.0
327,88.347419575,89.19480278750001,37.0,78.0
328,89.393930575,89.5232909625,49.0,81.0
329,89.393930575,89.5421863,37.0,70.0
330,89.04509357500001,89.876488425,61.0,102.0
331,89.04509357500001,89.88230237500001,67.0,83.0
332,89.04509357500001,89.888116325,64.0,85.0
333,89.742767575,90.24567425000001,49.0,81.0
334,89.742767575,90.31544165,37.0,79.0
335,90.091604575,90.6511972625,67.0,89.0
336,90.091604575,90.6686391125,64.0,92.0
337,90.091604575,90.67736003750001,61.0,107.0
338,90.789278575,91.0320109875,61.0,97.0
339,90.789278575,91.04799935,64.0,77.0
340,90.789278575,91.120673725,67.0,71.0
341,91.138115575,91.812533775,48.0,78.0
342,91.138115575,91.981138325,36.0,60.0
343,91.835789575,92.5102078125,64.0,97.0
344,91.835789575,92.52344310000001,67.0,99.0
345,92.18520797500001,92.5602077875,60.0,89.0
346,92.53814897500001,93.32491328750001,47.0,79.0
347,92.53814897500001,93.47932497500001,35.0,63.0
348,93.244030975,93.996971775,62.0,95.0
349,93.596971975,94.00726588750001,59.0,58.0
350,93.244030975,94.03079528750001,66.0,107.0
351,94.302853975,94.7249125875,45.0,75.0
352,93.949912975,94.802853725,33.0,82.0
353,95.00873597500001,95.49991220000001,57.0,51.0
354,94.655794975,95.71902973750001,64.0,90.0
355,94.655794975,95.7234415,60.0,95.0
356,95.36167697500001,96.1807942125,48.0,73.0
357,96.06755897500001,96.4749117125,60.0,86.0
358,96.06755897500001,96.491088175,64.0,82.0
359,97.474637575,97.93539311250001,60.0,100.0
360,97.12580057500001,98.02696282500001,48.0,86.0
361,97.823474575,98.06766047500001,67.0,86.0
362,97.823474575,98.08655581250001,63.0,93.0
363,98.17231157500001,98.75225308750001,67.0,73.0
364,98.17231157500001,98.7900437625,63.0,89.0
365,98.17231157500001,98.81766002500001,60.0,88.0
366,98.17231157500001,98.91068322500001,48.0,72.0
367,96.773440975,99.06475290000002,36.0,69.0
368,98.86998557500002,99.39905502500001,63.0,88.0
369,98.86998557500002,99.42667128750001,67.0,83.0
370,99.218822575,99.6069037375,60.0,56.0
371,99.56765957500001,100.38742652500001,35.0,67.0
372,100.614170575,100.75661235000001,35.0,52.0
373,100.614170575,100.77986815000001,47.0,48.0
374,100.26533357500001,101.2609725125,59.0,76.0
375,100.26533357500001,101.27550738750001,62.0,88.0
376,100.26533357500001,101.4368445,66.0,97.0
377,100.963007575,101.7551582625,35.0,66.0
378,101.66068157500001,102.02986740000001,66.0,102.0
379,100.963007575,102.25951842500001,47.0,65.0
380,101.66068157500001,102.41358810000001,62.0,89.0
381,102.00951857500002,102.56329731250001,59.0,56.0
382,102.358355575,103.20428530000001,40.0,78.0
383,102.70719257500001,103.23044807500001,47.0,44.0
384,103.40486657500001,103.55166881250001,40.0,64.0
385,103.05602957500001,103.85399421250001,59.0,73.0
386,103.05602957500001,103.87143606250001,64.0,81.0
387,103.05602957500001,103.88015698750002,67.0,76.0
388,103.753703575,104.49788917500001,52.0,82.0
389,103.753703575,104.660679775,40.0,72.0
390,104.45137757500001,104.84963315000002,67.0,96.0
391,104.45137757500001,104.86126105000001,64.0,99.0
392,104.80021457500001,105.0225981625,59.0,67.0
393,105.14905157500002,105.72463262500001,62.0,100.0
394,105.14905157500002,105.730446575,57.0,86.0
395,105.14905157500002,105.7348070375,66.0,107.0
396,105.14905157500002,106.02405105000001,38.0,68.0
397,105.14905157500002,106.02405105000001,50.0,86.0
398,106.19556257500001,106.32782993750001,38.0,59.0
399,106.19556257500001,106.33073691250002,50.0,82.0
400,105.84672557500001,106.69701576250002,62.0,100.0
401,106.893236575,106.98625977500001,62.0,30.0
402,105.84672557500001,107.00806208750001,66.0,112.0
403,106.54439957500001,107.20718987500001,50.0,92.0
404,106.54439957500001,107.27550378750001,38.0,72.0
405,106.893236575,107.31620143750001,57.0,62.0
406,107.242073575,107.34236421250002,62.0,100.0
407,107.242073575,107.36562001250002,66.0,100.0
408,107.93974757500001,108.57782858750001,48.0,79.0
409,107.93974757500001,108.60980531250001,36.0,72.0
410,107.93974757500001,108.62143321250001,67.0,72.0
411,107.93974757500001,108.62579367500001,64.0,92.0
412,107.93974757500001,108.62724716250001,60.0,82.0
413,107.93974757500001,108.63015413750001,72.0,75.0
414,110.381606575,110.47462977500001,40.0,77.0
415,110.73044357500001,112.7028261125,64.0,81.0
416,110.73044357500001,112.7028261125,67.0,72.0
417,110.73044357500001,112.72753540000001,59.0,79.0
418,110.73044357500001,113.10253517500001,52.0,69.0
419,110.73044357500001,113.50515121250001,47.0,60.0
420,112.82346557500001,113.52986050000001,64.0,88.0
421,110.73044357500001,113.54439537500001,40.0,58.0
422,112.82346557500001,113.54875583750001,67.0,86.0
423,113.521139575,113.54875583750001,67.0,89.0
424,113.172302575,113.585093025,59.0,70.0
425,113.521139575,114.230441475,71.0,92.0
426,114.21881357500001,114.230441475,71.0,85.0
427,114.21881357500001,114.24061588750001,67.0,89.0
428,113.521139575,114.26096471250001,62.0,89.0
429,113.521139575,114.42956926250001,43.0,71.0
430,114.56765057500002,114.69555747500002,43.0,65.0
431,115.26532457500001,115.65195225000001,62.0,36.0
432,114.916487575,115.928114875,43.0,75.0
433,115.61416157500001,116.1417775375,67.0,85.0
434,115.96299857500001,116.39613785,62.0,66.0
435,115.61416157500001,116.46881222500001,71.0,83.0
436,116.311835575,117.15776530000001,42.0,97.0
437,117.35834657500001,117.49206742500002,42.0,82.0
438,117.00950957500001,118.02113687500001,66.0,93.0
439,117.00950957500001,118.143229825,74.0,54.0
440,117.00950957500001,118.21154373750001,71.0,82.0
441,117.70718357500002,118.56183422500001,42.0,67.0
442,118.40485757500001,119.09235716250001,74.0,76.0
443,118.40485757500001,119.1097990125,66.0,89.0
444,118.40485757500001,119.195554775,71.0,79.0
445,119.10253157500001,119.96299617500001,40.0,77.0
446,120.14904257500001,120.265321575,52.0,49.0
447,120.14904257500001,120.30456573750001,40.0,69.0
448,119.800205575,120.51677491250001,67.0,79.0
449,119.800205575,120.56037953750001,71.0,77.0
450,119.800205575,120.59090277500002,64.0,74.0
451,120.49787957500001,121.22607681250001,40.0,56.0
452,120.49787957500001,121.47753015,52.0,60.0
453,121.195553575,121.92956476250001,64.0,86.0
454,121.195553575,121.9702624125,67.0,86.0
455,121.54439057500001,122.00659960000002,59.0,46.0
456,121.89322757500001,122.73479683750001,45.0,74.0
457,122.939738575,123.0894477875,45.0,66.0
458,122.590901575,123.7551450625,60.0,82.0
459,122.590901575,123.77985435000001,64.0,82.0
460,123.98624957500002,124.28130753750001,60.0,71.0
461,123.28857557500001,124.29874938750001,45.0,74.0
462,123.98624957500002,124.37287725000002,64.0,72.0
463,124.68392357500001,125.5414812,49.0,70.0
464,125.730434575,125.9063065625,49.0,73.0
465,124.68392357500001,126.63886426250001,64.0,72.0
466,124.68392357500001,126.66066657500001,61.0,67.0
467,124.68392357500001,126.66212006250001,57.0,72.0
468,126.079271575,126.9353757125,49.0,86.0
469,126.77694557500001,127.40775915,64.0,75.0
470,126.77694557500001,127.5603753375,61.0,88.0
471,127.12578257500002,127.56909626250001,57.0,59.0
472,127.474619575,128.3336306875,38.0,59.0
473,128.521130575,128.6461305,50.0,68.0
474,128.521130575,128.65194445,38.0,60.0
475,128.172293575,129.3714207625,57.0,70.0
476,128.172293575,129.40485097500002,62.0,78.0
477,128.172293575,129.428106775,66.0,72.0
478,128.869967575,129.68828103750002,38.0,74.0
479,128.869967575,129.7347926375,50.0,93.0
480,129.567641575,130.3626992375,62.0,75.0
481,129.567641575,130.3786876,66.0,82.0
482,130.61415257500002,131.026943025,47.0,38.0
483,130.26531557500002,131.1112453,40.0,83.0
484,131.311826575,131.42519860000002,52.0,69.0
485,131.311826575,131.4324660375,40.0,47.0
486,131.311826575,131.4382799875,47.0,55.0
487,131.660663575,132.9033953875,40.0,62.0
488,131.660663575,133.08362783750002,47.0,46.0
489,130.962989575,134.29147595,67.0,66.0
490,130.962989575,134.3103712875,64.0,65.0
491,131.660663575,134.6940919875,52.0,56.0
492,134.800196575,135.29438232500002,52.0,50.0
493,133.056011575,135.5298473,40.0,65.0
494,134.10252257500002,135.846707575,47.0,39.0
495,130.962989575,135.846707575,59.0,67.0
496,134.45135957500003,135.846707575,67.0,85.0
497,135.846707575,136.6446722125,40.0,90.0
498,136.54438157500002,137.2347881375,67.0,67.0
499,136.54438157500002,137.23624162500002,64.0,72.0
500,136.54438157500002,137.24496255000003,59.0,58.0
501,136.89321857500002,137.25222998750002,40.0,72.0
502,137.242055575,138.122869,47.0,66.0
503,137.939729575,138.6039733625,66.0,93.0
504,138.288566575,138.62868265,47.0,68.0
505,137.939729575,138.9062987625,62.0,76.0
506,138.637403575,139.44990308750002,40.0,66.0
507,139.335077575,139.98623997500002,64.0,75.0
508,139.335077575,140.00077485,67.0,76.0
509,139.335077575,140.0342050625,59.0,71.0
510,139.68391457500002,140.044379475,40.0,49.0
511,140.38158857500002,140.7958325125,59.0,50.0
512,140.03275157500002,140.9150184875,47.0,67.0
513,140.73042557500003,141.4251926,62.0,72.0
514,140.73042557500003,141.4382739875,66.0,95.0
515,141.079262575,141.52402975,59.0,64.0
516,141.428099575,142.2987385875,43.0,71.0
517,142.125773575,142.41937805,59.0,86.0
518,142.125773575,142.4324594375,62.0,83.0
519,142.474610575,142.7522266875,43.0,78.0
520,143.172284575,143.40629606250002,59.0,39.0
521,142.82344757500002,143.64030755000002,40.0,75.0
522,143.521121575,144.16647002500002,64.0,81.0
523,143.521121575,144.2028072125,67.0,85.0
524,143.869958575,144.2115281375,40.0,66.0
525,144.218795575,145.0865276125,47.0,69.0
526,145.265887975,145.4055937875,47.0,89.0
527,144.916469575,145.748240675,59.0,59.0
528,144.916469575,145.75118185,62.0,81.0
529,144.916469575,145.76294655,66.0,78.0
530,145.618828975,146.52765205,47.0,62.0
531,145.971769975,146.94382831250002,62.0,76.0
532,145.971769975,146.9526518375,66.0,99.0
533,146.32471097500002,146.96000477500002,59.0,90.0
534,146.677651975,147.0055929875,45.0,75.0
535,147.03059297500002,147.87859181250002,43.0,58.0
536,148.08062657500003,148.38004500000002,43.0,76.0
537,147.73178957500002,148.3916729,62.0,71.0
538,147.73178957500002,148.4948705125,67.0,76.0
539,147.73178957500002,148.51085887500003,71.0,70.0
540,148.778300575,149.20998636250002,64.0,62.0
541,148.42946357500003,149.4512652875,40.0,74.0
542,149.127137575,149.80882321250002,67.0,60.0
543,149.127137575,149.81173018750002,71.0,76.0
544,149.475974575,149.8785906125,64.0,57.0
545,149.824811575,150.714345925,38.0,66.0
546,150.17364857500002,150.7797528625,50.0,44.0
547,150.52248557500002,151.202717725,62.0,89.0
548,150.87132257500002,151.21143865000002,57.0,66.0
549,150.52248557500002,151.2477758375,66.0,89.0
550,151.22015957500003,151.66492675,36.0,81.0
551,151.56899657500003,152.185275275,55.0,38.0
552,151.22015957500003,152.22451943750002,48.0,71.0
553,151.917833575,152.5384727375,67.0,83.0
554,151.917833575,152.54283320000002,64.0,82.0
555,152.266670575,152.60533316250002,36.0,82.0
556,152.266670575,152.65475173750002,60.0,64.0
557,152.615507575,153.1983560625,35.0,73.0
558,152.964344575,153.30882111250003,55.0,52.0
559,152.615507575,153.88004170000002,47.0,72.0
560,153.66201857500002,153.9192858625,35.0,75.0
561,153.31318157500002,154.01085557500002,59.0,82.0
562,153.31318157500002,154.02975091250002,62.0,90.0
563,153.66201857500002,154.04137881250003,55.0,58.0
564,154.01085557500002,154.5762622125,33.0,76.0
565,154.35969257500003,154.77829697500002,57.0,52.0
566,154.01085557500002,155.022482875,45.0,69.0
567,155.057366575,155.31608735,33.0,88.0
568,154.708529575,155.40475008750002,64.0,75.0
569,154.708529575,155.41347101250003,61.0,83.0
570,155.057366575,155.52538955,57.0,55.0
571,155.406203575,156.232092325,50.0,54.0
572,155.406203575,156.2394452625,38.0,74.0
573,156.461503975,156.5747392125,38.0,65.0
574,156.461503975,156.59973920000002,50.0,85.0
575,155.755621975,156.9865037125,57.0,44.0
576,156.108562975,157.0247389875,66.0,86.0
577,156.108562975,157.0306213375,62.0,72.0
578,157.167385975,157.6482680875,62.0,77.0
579,157.167385975,157.6600327875,66.0,83.0
580,156.81444497500001,158.01297378750002,50.0,81.0
581,156.81444497500001,158.037973775,38.0,79.0
582,157.52032697500002,158.208561925,57.0,85.0
583,157.873267975,158.226208975,62.0,81.0
584,157.873267975,158.25120896250002,66.0,96.0
585,158.226208975,159.02769621250002,40.0,90.0
586,158.92740557500002,159.6178121375,67.0,67.0
587,158.92740557500002,159.61926562500003,64.0,72.0
588,158.92740557500002,159.62798655,59.0,58.0
589,159.27624257500003,159.63525398750002,40.0,72.0
590,159.62507957500003,160.50589300000001,47.0,66.0
591,160.322753575,160.9869973625,66.0,93.0
592,160.671590575,161.01170665,47.0,68.0
593,160.322753575,161.2893227625,62.0,76.0
594,161.020427575,161.83292708750002,40.0,66.0
595,161.71810157500002,162.36926397500002,64.0,75.0
596,161.71810157500002,162.38379885,67.0,76.0
597,161.71810157500002,162.4172290625,59.0,71.0
598,162.06693857500002,162.427403475,40.0,49.0
599,162.764612575,163.1788565125,59.0,50.0
600,162.41577557500003,163.29804248750003,47.0,67.0
601,163.113449575,163.8082166,62.0,72.0
602,163.113449575,163.8212979875,66.0,95.0
603,163.462286575,163.90705375000002,59.0,64.0
604,163.811123575,164.6817625875,43.0,71.0
605,164.50879757500002,164.80240205,59.0,86.0
606,164.50879757500002,164.8154834375,62.0,83.0
607,164.85763457500002,165.13525068750002,43.0,78.0
608,165.55530857500003,165.78932006250002,59.0,39.0
609,165.20647157500002,166.02333155000002,40.0,75.0
610,165.90414557500003,166.549494025,64.0,81.0
611,165.90414557500003,166.5858312125,67.0,85.0
612,166.252982575,166.59455213750002,40.0,66.0
613,166.601819575,167.46955161250003,47.0,69.0
614,167.64833057500002,167.7864118875,47.0,89.0
615,167.299493575,168.12507447500002,59.0,59.0
616,167.299493575,168.12798145000002,62.0,81.0
617,167.299493575,168.13960935,66.0,78.0
618,167.99716757500002,168.89542285000002,47.0,62.0
619,168.34600457500002,169.30675981250002,62.0,76.0
620,168.34600457500002,169.31548073750002,66.0,99.0
621,168.69484157500003,169.32274817500002,59.0,90.0
622,169.043678575,169.3678062875,45.0,75.0
623,169.392515575,170.2369918125,43.0,58.0
624,170.439026575,170.738445,43.0,76.0
625,170.090189575,170.75007290000002,62.0,71.0
626,170.090189575,170.85327051250002,67.0,76.0
627,170.090189575,170.869258875,71.0,70.0
628,171.13670057500002,171.5683863625,64.0,62.0
629,170.78786357500002,171.80966528750002,40.0,74.0
630,171.48553757500002,172.1672232125,67.0,60.0
631,171.48553757500002,172.1701301875,71.0,76.0
632,171.83437457500003,172.23699061250002,64.0,57.0
633,172.18321157500003,173.07968852500002,38.0,66.0
634,172.53262997500002,173.14586496250004,50.0,44.0
635,172.88557097500004,173.57380592500002,62.0,89.0
636,173.23851197500002,173.58262945000004,57.0,66.0
637,172.88557097500004,173.61939413750002,66.0,89.0
638,173.59145297500004,174.04145275000002,36.0,81.0
639,173.94439397500003,174.56792307500004,55.0,38.0
640,173.59145297500004,174.60762893750004,48.0,71.0
641,174.29733497500004,174.92527583750004,67.0,83.0
642,174.29733497500004,174.92968760000002,64.0,82.0
643,174.65027597500003,174.99292286250002,36.0,82.0
644,174.65027597500003,175.04292283750002,60.0,64.0
645,175.00321697500002,175.59292256250004,35.0,73.0
646,175.35615797500003,175.70468721250003,55.0,52.0
647,175.00321697500002,176.28262810000004,47.0,72.0
648,176.06203997500003,176.32233396250004,35.0,75.0
649,175.70909897500002,176.41498097500002,59.0,82.0
650,175.70909897500002,176.43409861250004,62.0,90.0
651,176.06203997500003,176.44586331250002,55.0,58.0
652,176.41498097500002,176.9839102125,33.0,76.0
653,176.76734057500002,177.185944975,57.0,52.0
654,176.41498097500002,177.430130875,45.0,69.0
655,177.46501457500003,177.72373535000003,33.0,88.0
656,177.11617757500002,177.81239808750001,64.0,75.0
657,177.11617757500002,177.82111901250002,61.0,83.0
658,177.46501457500003,177.93303755000002,57.0,55.0
659,177.81385157500003,178.60890923750003,47.0,82.0
660,177.81385157500003,178.6147231875,35.0,68.0
661,178.511525575,178.8269323625,62.0,83.0
662,178.511525575,178.83710677500002,59.0,69.0
663,178.511525575,178.84728118750002,66.0,85.0
664,178.860362575,179.03914153750003,35.0,66.0
665,178.860362575,179.05803687500003,47.0,81.0
666,179.209199575,180.05948976250002,47.0,79.0
667,179.209199575,180.13652460000003,35.0,67.0
668,179.90687357500002,180.36762911250003,66.0,96.0
669,180.25571057500002,180.5623964375,47.0,78.0
670,179.90687357500002,180.5972801375,62.0,86.0
671,180.60454757500003,182.89103446875004,67.0,70.0
672,180.60454757500003,182.89678159375003,64.0,73.0
673,180.60454757500003,182.89821837500003,59.0,72.0
674,180.60454757500003,182.92695400000002,52.0,88.0
675,180.60454757500003,182.95425284375003,40.0,66.0
676,183.36660906250003,184.23089961250002,40.0,67.0
677,183.36660906250003,184.23235310000004,52.0,82.0
678,184.40967857500004,184.54339942500005,40.0,54.0
679,184.40967857500004,184.55212035000002,52.0,77.0
680,184.06084157500004,184.91985268750003,59.0,74.0
681,184.06084157500004,184.92130617500004,67.0,81.0
682,184.06084157500004,184.93148058750003,64.0,82.0
683,185.10735257500002,185.67275921250004,64.0,93.0
684,185.10735257500002,185.67275921250004,67.0,93.0
685,184.75851557500005,185.74979405000002,52.0,85.0
686,184.75851557500005,185.76287543750004,40.0,71.0
687,185.97944507500003,186.03322411250002,37.0,40.0
688,185.80502657500003,186.11607290000003,64.0,89.0
689,185.80502657500003,186.12624731250003,67.0,73.0
690,185.80502657500003,186.16985193750003,59.0,88.0
691,186.15386357500003,187.01142120000003,37.0,76.0
692,186.15386357500003,187.01578166250005,49.0,70.0
693,187.20037457500004,187.38787446250004,49.0,63.0
694,187.20037457500004,187.39514190000003,37.0,73.0
695,186.85153757500004,187.68147893750003,67.0,89.0
696,186.85153757500004,187.68874637500002,61.0,107.0
697,186.85153757500004,187.69310683750004,64.0,93.0
698,187.54921157500004,188.18147863750002,49.0,69.0
699,187.54921157500004,188.29049020000002,37.0,86.0
700,187.89804857500002,188.42857151250004,67.0,85.0
701,187.89804857500002,188.46490870000002,64.0,96.0
702,187.89804857500002,188.48089706250002,61.0,112.0
703,188.59572257500002,188.85444335000003,64.0,66.0
704,188.59572257500002,188.85880381250004,61.0,96.0
705,188.59572257500002,188.89368751250004,67.0,70.0
706,188.94455957500003,189.52159411250003,60.0,81.0
707,188.94455957500003,189.81810556250002,48.0,96.0
708,188.94455957500003,189.83409392500005,36.0,59.0
709,189.99107057500004,190.14514025000003,36.0,63.0
710,189.99107057500004,190.14804722500003,48.0,63.0
711,189.64223357500003,190.52014002500005,60.0,89.0
712,189.64223357500003,190.54339582500003,64.0,90.0
713,189.64223357500003,190.55647721250003,67.0,89.0
714,190.68874457500004,191.09136061250004,60.0,68.0
715,190.33990757500004,191.09862805000003,48.0,79.0
716,190.33990757500004,191.20182566250003,36.0,71.0
717,191.03758157500005,191.59136031250003,64.0,99.0
718,191.03758157500005,191.62043006250002,67.0,95.0
719,191.38641857500002,191.76577881250003,60.0,69.0
720,191.73525557500002,192.56083647500003,35.0,66.0
721,191.73525557500002,192.57391786250002,47.0,83.0
722,192.78176657500003,192.91694091250002,47.0,69.0
723,192.78176657500003,192.93002230000002,35.0,57.0
724,192.43292957500003,193.24397560000003,59.0,81.0
725,192.43292957500003,193.24833606250004,62.0,86.0
726,192.43292957500003,193.26577791250003,66.0,90.0
727,193.13060357500004,193.62478932500002,35.0,71.0
728,193.13060357500004,193.85298686250005,47.0,83.0
729,193.47944057500004,194.04339372500004,59.0,85.0
730,193.47944057500004,194.05792860000003,62.0,96.0
731,193.47944057500004,194.06519603750004,66.0,107.0
732,194.17711457500002,194.46490510000004,66.0,99.0
733,194.17711457500002,194.46781207500004,59.0,78.0
734,194.17711457500002,194.49252136250004,62.0,96.0
735,194.52595157500002,195.33845108750003,52.0,88.0
736,194.52595157500002,195.34717201250004,40.0,69.0
737,195.57246257500003,195.71926481250003,52.0,65.0
738,195.57246257500003,195.72071830000004,40.0,63.0
739,195.22362557500003,196.02595067500005,59.0,86.0
740,195.22362557500003,196.04775298750002,67.0,92.0
741,195.22362557500003,196.05065996250002,64.0,90.0
742,195.92129957500003,196.66257820000004,52.0,86.0
743,195.92129957500003,196.73670606250005,40.0,75.0
744,196.27013657500004,196.85734552500003,59.0,85.0
745,196.27013657500004,196.86751993750002,64.0,88.0
746,196.27013657500004,196.86897342500004,67.0,83.0
747,196.96781057500004,197.27304295000005,67.0,85.0
748,196.96781057500004,197.32536850000002,64.0,90.0
749,196.96781057500004,197.35153127500004,59.0,83.0
750,197.31664757500005,198.13205406250003,49.0,65.0
751,197.31664757500005,198.16403078750002,37.0,78.0
752,198.36315857500003,198.49251896250004,49.0,81.0
753,198.36315857500003,198.51141430000004,37.0,70.0
754,198.01432157500003,198.84571642500003,61.0,102.0
755,198.01432157500003,198.85153037500004,67.0,83.0
756,198.01432157500003,198.85734432500004,64.0,85.0
757,198.71199557500003,199.21490225000002,49.0,81.0
758,198.71199557500003,199.28466965000004,37.0,79.0
759,199.06083257500003,199.62042526250002,67.0,89.0
760,199.06083257500003,199.63786711250003,64.0,92.0
761,199.06083257500003,199.64658803750004,61.0,107.0
762,199.75850657500004,200.00123898750005,61.0,97.0
763,199.75850657500004,200.01722735000004,64.0,77.0
764,199.75850657500004,200.08990172500003,67.0,71.0
765,200.10734357500004,200.78176177500004,48.0,78.0
766,200.10734357500004,200.95036632500003,36.0,60.0
767,200.80501757500002,201.47507531250002,64.0,97.0
768,200.80501757500002,201.48815670000005,67.0,99.0
769,201.15385457500003,201.52449388750003,60.0,89.0
770,201.50269157500003,202.28030738750005,47.0,79.0
771,201.50269157500003,202.43292357500002,35.0,63.0
772,202.20036557500003,202.94455117500004,62.0,95.0
773,202.54920257500004,202.95472558750004,59.0,58.0
774,202.20036557500003,202.97798138750002,66.0,107.0
775,203.24687657500004,203.66402748750002,45.0,75.0
776,202.89803957500004,203.74106232500003,33.0,82.0
777,203.94455057500002,204.43001540000003,57.0,51.0
778,203.59571357500005,204.64658503750002,64.0,90.0
779,203.59571357500005,204.65094550000003,60.0,95.0
780,204.29338757500003,205.10298011250003,48.0,73.0
781,204.99106157500003,205.39367761250003,60.0,86.0
782,204.99106157500003,205.40966597500002,64.0,82.0
783,206.38640957500004,206.84716511250002,60.0,100.0
784,206.03757257500004,206.93873482500004,48.0,86.0
785,206.73524657500002,206.97943247500004,67.0,86.0
786,206.73524657500002,206.99832781250004,63.0,93.0
787,207.08408357500002,207.66402508750002,67.0,73.0
788,207.08408357500002,207.70181576250002,63.0,89.0
789,207.08408357500002,207.72943202500002,60.0,88.0
790,207.08408357500002,207.82245522500003,48.0,72.0
791,205.68873557500004,207.97652490000004,36.0,69.0
792,207.78175757500003,208.31082702500004,63.0,88.0
793,207.78175757500003,208.33844328750004,67.0,83.0
794,208.13059457500003,208.51867573750002,60.0,56.0
795,208.47943157500004,209.29919852500004,35.0,67.0
796,209.52594257500004,209.66838435000003,35.0,52.0
797,209.52594257500004,209.69164015000004,47.0,48.0
798,209.17710557500004,210.17274451250003,59.0,76.0
799,209.17710557500004,210.18727938750004,62.0,88.0
800,209.17710557500004,210.34861650000005,66.0,97.0
801,209.87477957500005,210.66693026250005,35.0,66.0
802,210.57245357500003,210.94163940000004,66.0,102.0
803,209.87477957500005,211.17129042500002,47.0,65.0
804,210.57245357500003,211.32536010000004,62.0,89.0
805,210.92129057500003,211.47506931250004,59.0,56.0
806,211.27012757500003,212.11605730000002,40.0,78.0
807,211.61896457500004,212.14222007500004,47.0,44.0
808,212.31663857500004,212.46344081250004,40.0,64.0
809,211.96780157500004,212.76576621250004,59.0,73.0
810,211.96780157500004,212.78320806250002,64.0,81.0
811,211.96780157500004,212.79192898750003,67.0,76.0
812,212.66547557500004,213.40966117500002,52.0,82.0
813,212.66547557500004,213.57245177500005,40.0,72.0
814,213.36314957500002,213.76140515000003,67.0,96.0
815,213.36314957500002,213.77303305000004,64.0,99.0
816,213.71198657500003,213.93437016250004,59.0,67.0
817,214.06082357500003,214.63640462500004,62.0,100.0
818,214.06082357500003,214.64221857500004,57.0,86.0
819,214.06082357500003,214.64657903750003,66.0,107.0
820,214.06082357500003,214.93582305000004,38.0,68.0
821,214.06082357500003,214.93582305000004,50.0,86.0
822,215.10733457500004,215.23960193750003,38.0,59.0
823,215.10733457500004,215.24250891250003,50.0,82.0
824,214.75849757500004,215.60878776250004,62.0,100.0
825,215.80500857500004,215.89803177500005,62.0,30.0
826,214.75849757500004,215.91983408750002,66.0,112.0
827,215.45617157500004,216.11896187500002,50.0,92.0
828,215.45617157500004,216.18727578750003,38.0,72.0
829,215.80500857500004,216.22797343750003,57.0,62.0
830,216.15384557500005,216.25413621250004,62.0,100.0
831,216.15384557500005,216.27739201250003,66.0,100.0
832,216.85151957500003,217.48960058750004,48.0,79.0
833,216.85151957500003,217.52157731250003,36.0,72.0
834,216.85151957500003,217.53320521250004,67.0,72.0
835,216.85151957500003,217.53756567500002,64.0,92.0
836,216.85151957500003,217.53901916250004,60.0,82.0
837,216.85151957500003,217.54192613750004,72.0,75.0
838,219.29337857500002,219.38640177500002,40.0,77.0
839,219.64221557500002,221.61140721875003,64.0,81.0
840,219.64221557500002,221.61140721875003,67.0,72.0
841,219.64221557500002,221.63583250000002,59.0,79.0
842,219.64221557500002,222.00652206250004,52.0,69.0
843,219.64221557500002,222.40451046875003,47.0,60.0
844,221.73066006250002,222.42893575000002,64.0,88.0
845,219.64221557500002,222.44330356250003,40.0,58.0
846,222.42031506250004,222.44330356250003,40.0,67.0
847,221.73066006250002,222.44761390625004,67.0,86.0
848,222.07548756250003,222.48353343750003,59.0,70.0
849,222.42031506250004,223.27951025000004,52.0,82.0
850,223.45479756250003,223.58698143750004,40.0,54.0
851,223.45479756250003,223.59560212500003,52.0,77.0
852,223.10997006250003,223.95910778125003,59.0,74.0
853,223.10997006250003,223.96054456250005,67.0,81.0
854,223.10997006250003,223.97060203125002,64.0,82.0
855,224.14445256250002,224.70336046875005,64.0,93.0
856,224.14445256250002,224.70336046875005,67.0,93.0
857,223.79962506250004,224.77950987500003,52.0,85.0
858,223.79962506250004,224.79244090625002,40.0,71.0
859,225.00652131250004,225.05968221875003,37.0,40.0
860,224.83410756250004,225.14157875000004,64.0,89.0
861,224.83410756250004,225.15163621875004,67.0,73.0
862,224.83410756250004,225.19473965625002,59.0,88.0
863,225.17893506250005,226.02663600000002,37.0,76.0
864,225.17893506250005,226.03094634375003,49.0,70.0
865,226.21341756250004,226.39876234375004,49.0,63.0
866,226.21341756250004,226.40594625000003,37.0,73.0
867,225.86859006250003,226.68899215625004,67.0,89.0
868,225.86859006250003,226.69617606250003,61.0,107.0
869,225.86859006250003,226.70048640625004,64.0,93.0
870,226.55824506250005,227.18324490625002,49.0,69.0
871,226.55824506250005,227.29100350000004,37.0,86.0
872,226.90307256250003,227.42749771875003,67.0,85.0
873,226.90307256250003,227.46341725000005,64.0,96.0
874,226.90307256250003,227.47922184375003,61.0,112.0
875,227.59329557500004,227.85201635000004,64.0,66.0
876,227.59329557500004,227.85637681250003,61.0,96.0
877,227.59329557500004,227.89126051250003,67.0,70.0
878,227.94213257500004,228.51916711250004,60.0,81.0
879,227.94213257500004,228.81567856250004,48.0,96.0
880,227.94213257500004,228.83166692500004,36.0,59.0
881,228.98864357500003,229.14271325000004,36.0,63.0
882,228.98864357500003,229.14562022500004,48.0,63.0
883,228.63980657500005,229.51771302500003,60.0,89.0
884,228.63980657500005,229.54096882500005,64.0,90.0
885,228.63980657500005,229.55405021250004,67.0,89.0
886,229.68631757500003,230.08893361250003,60.0,68.0
887,229.33748057500003,230.09620105000005,48.0,79.0
888,229.33748057500003,230.19939866250004,36.0,71.0
889,230.03515457500004,230.58893331250005,64.0,99.0
890,230.03515457500004,230.61800306250004,67.0,95.0
891,230.38399157500004,230.76335181250005,60.0,69.0
892,230.73282857500004,231.55840947500005,35.0,66.0
893,230.73282857500004,231.57149086250004,47.0,83.0
894,231.77933957500005,231.91451391250004,47.0,69.0
895,231.77933957500005,231.92759530000004,35.0,57.0
896,231.43050257500005,232.24154860000004,59.0,81.0
897,231.43050257500005,232.24590906250003,62.0,86.0
898,231.43050257500005,232.26335091250004,66.0,90.0
899,232.12817657500003,232.62236232500004,35.0,71.0
900,232.12817657500003,232.85055986250003,47.0,83.0
901,232.47701357500003,233.04096672500003,59.0,85.0
902,232.47701357500003,233.05550160000004,62.0,96.0
903,232.47701357500003,233.06276903750003,66.0,107.0
904,233.17468757500004,233.46247810000003,66.0,99.0
905,233.17468757500004,233.46538507500003,59.0,78.0
906,233.17468757500004,233.49009436250003,62.0,96.0
907,233.52352457500004,234.33602408750005,52.0,88.0
908,233.52352457500004,234.34474501250003,40.0,69.0
909,234.57003557500005,234.71683781250005,52.0,65.0
910,234.57003557500005,234.71829130000003,40.0,63.0
911,234.22119857500005,235.02352367500004,59.0,86.0
912,234.22119857500005,235.04532598750004,67.0,92.0
913,234.22119857500005,235.04823296250004,64.0,90.0
914,234.91887257500002,235.66015120000003,52.0,86.0
915,234.91887257500002,235.73427906250004,40.0,75.0
916,235.26770957500003,235.85491852500004,59.0,85.0
917,235.26770957500003,235.86509293750004,64.0,88.0
918,235.26770957500003,235.86654642500002,67.0,83.0
919,235.96538357500003,236.27061595000004,67.0,85.0
920,235.96538357500003,236.32294150000004,64.0,90.0
921,235.96538357500003,236.34910427500003,59.0,83.0
922,236.31422057500004,237.12962706250005,49.0,65.0
923,236.31422057500004,237.16160378750004,37.0,78.0
924,237.36073157500005,237.49009196250003,49.0,81.0
925,237.36073157500005,237.50898730000003,37.0,70.0
926,237.01189457500004,237.84328942500002,61.0,102.0
927,237.01189457500004,237.84910337500003,67.0,83.0
928,237.01189457500004,237.85491732500003,64.0,85.0
929,237.70956857500005,238.21247525000004,49.0,81.0
930,237.70956857500005,238.28224265000003,37.0,79.0
931,238.05840557500005,238.61799826250004,67.0,89.0
932,238.05840557500005,238.63544011250005,64.0,92.0
933,238.05840557500005,238.64416103750003,61.0,107.0
934,238.75607957500003,238.99881198750003,61.0,97.0
935,238.75607957500003,239.01480035000003,64.0,77.0
936,238.75607957500003,239.08747472500005,67.0,71.0
937,239.10491657500003,239.77933477500005,48.0,78.0
938,239.10491657500003,239.94793932500005,36.0,60.0
939,239.80259057500004,240.47264831250004,64.0,97.0
940,239.80259057500004,240.48572970000004,67.0,99.0
941,240.15142757500004,240.52206688750005,60.0,89.0
942,240.50026457500005,241.27788038750003,47.0,79.0
943,240.50026457500005,241.43049657500003,35.0,63.0
944,241.19793857500002,241.94212417500003,62.0,95.0
945,241.54677557500003,241.95229858750002,59.0,58.0
946,241.19793857500002,241.97555438750004,66.0,107.0
947,242.24444957500003,242.66160048750004,45.0,75.0
948,241.89561257500003,242.73863532500005,33.0,82.0
949,242.94212357500004,243.42758840000005,57.0,51.0
950,242.59328657500004,243.64415803750003,64.0,90.0
951,242.59328657500004,243.64851850000002,60.0,95.0
952,243.29096057500004,244.10055311250005,48.0,73.0
953,243.98863457500005,244.39125061250004,60.0,86.0
954,243.98863457500005,244.40723897500004,64.0,82.0
955,245.38398257500003,245.84473811250004,60.0,100.0
956,245.03514557500003,245.93630782500003,48.0,86.0
957,245.73281957500004,245.97700547500003,67.0,86.0
958,245.73281957500004,245.99590081250003,63.0,93.0
959,246.08165657500004,246.66159808750004,67.0,73.0
960,246.08165657500004,246.69938876250004,63.0,89.0
961,246.08165657500004,246.72700502500004,60.0,88.0
962,246.08165657500004,246.82002822500004,48.0,72.0
963,244.68630857500003,246.97409790000003,36.0,69.0
964,246.77933057500005,247.30840002500003,63.0,88.0
965,246.77933057500005,247.33601628750003,67.0,83.0
966,247.12816757500005,247.51624873750004,60.0,56.0
967,247.47700457500002,248.29677152500003,35.0,67.0
968,248.52351557500003,248.66595735000004,35.0,52.0
969,248.52351557500003,248.68921315000003,47.0,48.0
970,248.17467857500003,249.17031751250005,59.0,76.0
971,248.17467857500003,249.18485238750003,62.0,88.0
972,248.17467857500003,249.34618950000004,66.0,97.0
973,248.87235257500004,249.66450326250003,35.0,66.0
974,249.57002657500004,249.93921240000003,66.0,102.0
975,248.87235257500004,250.16886342500004,47.0,65.0
976,249.57002657500004,250.32293310000003,62.0,89.0
977,249.91886357500005,250.47264231250003,59.0,56.0
978,250.26770057500005,251.11363030000004,40.0,78.0
979,250.61653757500005,251.13979307500003,47.0,44.0
980,251.31421157500003,251.46101381250003,40.0,64.0
981,250.96537457500003,251.76333921250003,59.0,73.0
982,250.96537457500003,251.78078106250004,64.0,81.0
983,250.96537457500003,251.78950198750005,67.0,76.0
984,251.66304857500003,252.40723417500004,52.0,82.0
985,251.66304857500003,252.57002477500004,40.0,72.0
986,252.36072257500004,252.75897815000005,67.0,96.0
987,252.36072257500004,252.77060605000003,64.0,99.0
988,252.70955957500004,252.93194316250003,59.0,67.0
989,253.05839657500005,253.63397762500003,62.0,100.0
990,253.05839657500005,253.63979157500003,57.0,86.0
991,253.05839657500005,253.64415203750005,66.0,107.0
992,253.05839657500005,253.93339605000003,38.0,68.0
993,253.05839657500005,253.93339605000003,50.0,86.0
994,254.10490757500003,254.23717493750004,38.0,59.0
995,254.10490757500003,254.24008191250005,50.0,82.0
996,253.75607057500002,254.60636076250003,62.0,100.0
997,254.80258157500003,254.89560477500004,62.0,30.0
998,253.75607057500002,254.91740708750004,66.0,112.0
999,254.45374457500003,255.11653487500004,50.0,92.0
1000,254.45374457500003,255.18484878750004,38.0,72.0
1001,254.80258157500003,255.22554643750004,57.0,62.0
1002,255.15141857500004,255.25170921250003,62.0,100.0
1003,255.15141857500004,255.27496501250005,66.0,100.0
1004,255.84909257500004,256.4871735875,48.0,79.0
1005,255.84909257500004,256.5191503125,36.0,72.0
1006,255.84909257500004,256.5307782125,67.0,72.0
1007,255.84909257500004,256.53513867500004,64.0,92.0
1008,255.84909257500004,256.5365921625,60.0,82.0
1009,255.84909257500004,256.53949913750006,72.0,75.0
1010,258.290951575,258.383974775,40.0,77.0
1011,258.290951575,258.4464747375,52.0,77.0
1012,258.639788575,259.436299725,52.0,78.0
1013,258.639788575,259.52060200000005,40.0,95.0
1014,259.686299575,259.8185669375,52.0,53.0
1015,259.686299575,259.82874135000003,40.0,64.0
1016,259.337462575,260.16595045,59.0,72.0
1017,259.337462575,260.20083415000005,64.0,77.0
1018,259.337462575,260.21246205000006,67.0,78.0
1019,260.383973575,260.9406592875,64.0,77.0
1020,260.383973575,260.95374067500006,67.0,79.0
1021,260.035136575,261.3694381,52.0,66.0
1022,260.035136575,261.41158923750004,40.0,73.0
1023,261.08164757500003,261.4377520125,64.0,82.0
1024,261.08164757500003,261.44937991250004,59.0,85.0
1025,261.08164757500003,261.45810083750007,67.0,72.0
1026,261.43048457500004,262.26333291250006,52.0,90.0
1027,261.43048457500004,262.26623988750003,40.0,83.0
1028,262.12815857500004,262.59669456250003,59.0,73.0
1029,262.12815857500004,262.59669456250003,64.0,83.0
1030,262.12815857500004,262.60110632500005,67.0,79.0
1031,262.47757697500003,262.783459175,40.0,77.0
1032,262.47757697500003,262.79963563750005,52.0,73.0
1033,262.830517975,263.0437531625,57.0,79.0
1034,262.830517975,263.0437531625,62.0,89.0
1035,262.830517975,263.05551786250004,66.0,89.0
1036,262.830517975,263.1084590125,50.0,88.0
1037,263.18345897500006,263.577576425,35.0,73.0
1038,263.18345897500006,263.65992932500006,59.0,83.0
1039,263.18345897500006,263.67463520000007,62.0,90.0
1040,263.18345897500006,263.70404695,66.0,90.0
1041,263.18345897500006,263.70845871250003,47.0,88.0
1042,263.88934097500004,264.18934082500004,62.0,89.0
1043,263.88934097500004,264.19669376250005,59.0,79.0
1044,263.88934097500004,264.20404670000005,66.0,100.0
1045,263.88934097500004,264.20992905,47.0,102.0
1046,263.88934097500004,264.27610548750005,35.0,81.0
1047,264.242281975,268.93198551250003,52.0,95.0
1048,264.242281975,268.94375021250005,64.0,97.0
1049,264.242281975,268.96286785000007,59.0,90.0
1050,264.242281975,268.96286785000007,67.0,90.0
1051,264.242281975,268.97463255,40.0,85.0
