,start,end,pitch,velocity
0,5.336105775,5.9124940875,65.0,96.0
1,6.002771775,6.286104825000001,72.0,92.0
2,6.336104775,6.5611045500000005,70.0,90.0
3,6.6694377750000005,7.648603462500001,72.0,93.0
4,8.002769775,8.508324825,77.0,91.0
5,8.669435775,8.9208244125,72.0,89.0
6,9.002768775,9.2333241,70.0,93.0
7,9.336101775000001,10.41665625,72.0,93.0
8,10.669433775,10.8999891,68.0,91.0
9,11.002766775000001,11.26109985,68.0,89.0
10,11.336099775000001,11.555544000000001,68.0,93.0
11,11.669432775,11.916654750000001,68.0,92.0
12,12.002765775,12.22221,70.0,91.0
13,12.336098775,12.559709662500001,70.0,91.0
14,12.669431775000001,12.8777649,68.0,100.0
15,13.002764775000001,13.234708987500001,70.0,93.0
16,13.33332,13.4999865,72.0,97.0
17,13.4999865,13.666653,70.0,97.0
18,13.669430775,15.1291515375,72.0,90.0
19,27.0094394625,27.17786919375,72.0,96.0
20,27.343514962500002,27.51751261875,72.0,94.0
21,27.6775904625,27.897523500000002,70.0,91.0
22,28.0116659625,28.5406188375,72.0,93.0
23,28.6798169625,28.922021700000002,75.0,93.0
24,29.0138924625,29.272800975000003,77.0,91.0
25,29.3479679625,29.5094377875,72.0,97.0
26,29.5150057125,29.662555725,70.0,97.0
27,29.67786751875,30.8735794125,72.0,100.0
28,32.0205719625,32.2265851875,80.0,98.0
29,32.3546474625,32.53421304375,77.0,91.0
30,32.6887229625,32.91561590625,75.0,100.0
31,33.0227984625,33.25247536875,72.0,91.0
32,33.3568739625,33.560103225,70.0,95.0
33,33.6909494625,33.9359381625,68.0,91.0
34,34.0250249625,34.29089338125,65.0,93.0
35,34.3591004625,34.8268061625,75.0,95.0
36,34.87274154375,35.07875476875,72.0,97.0
37,35.027251462500004,36.525023287500005,70.0,95.0
38,37.3657799625,38.11605785625,77.0,98.0
39,38.368006462500006,38.592115443750004,72.0,93.0
40,38.7020819625,39.17674756875,70.0,95.0
41,39.3702329625,39.6374933625,65.0,95.0
42,39.7043084625,40.2611009625,75.0,95.0
43,40.37385144375,40.703751,70.0,97.0
44,40.698183075,41.96627799375,72.0,90.0
45,42.7109879625,42.85297005,70.0,103.0
46,43.0450634625,43.22184508125,70.0,95.0
47,43.3791389625,43.56984039375,70.0,100.0
48,43.713214462500005,43.91226778125,72.0,93.0
49,44.0472899625,44.572066893750005,75.0,94.0
50,44.7154409625,44.90335843125,72.0,93.0
51,45.0495164625,45.263881575,75.0,95.0
52,45.383591962500006,47.836262925,77.0,93.0
53,48.05603818125,48.52687104375,77.0,91.0
54,48.72270418125,48.94770395625,72.0,94.0
55,49.05603718125,49.22409256875,77.0,94.0
56,49.38937018125,49.49909229375,75.0,103.0
57,49.72270318125,49.83936973125,72.0,91.0
58,49.88936968125,49.96714738125,70.0,94.0
59,50.05603618125,50.58659120625,72.0,93.0
60,50.72270218125,51.16853506875,80.0,93.0
61,51.38936818125,51.61436795625,72.0,96.0
62,51.72270118125,51.89075656875,80.0,100.0
63,52.05603418125,52.17270073125,77.0,96.0
64,52.222700681250004,52.34492278125,80.0,100.0
65,52.38936718125,52.46853376875,77.0,93.0
66,52.55603368125,52.63520026875,75.0,100.0
67,52.72270018125,53.19908859375,77.0,93.0
68,53.38936618125,53.53381048125,80.0,91.0
69,53.72269918125,53.89492123125,80.0,94.0
70,54.05603218125,54.23936533125,80.0,100.0
71,54.38936518125,54.59353164375,80.0,95.0
72,54.72269818125,55.01436455625,82.0,93.0
73,55.05603118125,55.20464214375,84.0,84.0
74,55.22269768125,55.32964201875,82.0,98.0
75,55.38936418125,55.51019739375,80.0,106.0
76,55.72269718125,55.89491923125,82.0,96.0
77,56.05325240625,56.203252256249996,84.0,97.0
78,56.20741891875,56.39908539375,82.0,97.0
79,56.36714098125,58.23797244375,84.0,98.0
80,58.72269418125,58.97824948125,72.0,96.0
81,59.05602718125,59.25047143125,80.0,94.0
82,59.38936018125,59.64074881875,77.0,89.0
83,59.72269318125,59.98380403125,75.0,95.0
84,60.04769285625,60.21435935625,75.0,97.0
85,60.207414918750004,61.08796959375,72.0,96.0
86,61.38935818125,61.67269123125,77.0,92.0
87,61.72269118125,61.91991320625,84.0,95.0
88,62.05602418125,62.28935728125,82.0,95.0
89,62.38935718125,62.60463474375,80.0,93.0
90,62.71435685625,62.86296781875,80.0,97.0
91,62.88519001875,63.81991130625,77.0,95.0
92,64.05602218125,64.18935538125,80.0,93.0
93,64.38935518125,64.57824388125,80.0,94.0
94,64.72268818124999,64.91018799375,80.0,94.0
95,65.05602118125,65.26018764375,80.0,96.0
96,65.38935418125,65.58657620625,82.0,93.0
97,65.72268718125,65.91018699375,82.0,80.0
98,66.05602018125,66.27546440625,80.0,93.0
99,66.38935318125,66.59768630625,82.0,93.0
100,66.71990840625,66.88657490625,84.0,97.0
101,66.88518601875,67.01296366875,82.0,97.0
102,67.05601918125001,69.04073941875001,84.0,93.0
103,69.05323940625,69.16018374375,82.0,97.0
104,69.21990590625,69.31573914375,80.0,97.0
105,69.38935018125,69.56573889375,82.0,100.0
106,69.72268318125,70.52268238125001,82.0,91.0
107,70.72268218125001,70.89907089375001,79.0,91.0
108,71.05601518125,72.05045863125,79.0,98.0
109,72.38934718125,72.89212445625,75.0,96.0
110,73.05601318125,73.25323520625,75.0,93.0
111,73.38934618125,73.94767895625,75.0,96.0
112,74.05601218125,74.32823413125,72.0,93.0
113,74.38934518125001,74.60601163125,75.0,92.0
114,74.71990040625,74.88656690625,77.0,97.0
115,74.89628911875,75.04628896875,75.0,97.0
116,75.03517786875,77.37961996875,77.0,90.0
117,99.07975336874999,99.24780875625,72.0,96.0
118,99.41308636875,99.58669730625,72.0,94.0
119,99.74641936875,99.96586359375,70.0,91.0
120,100.07975236875,100.60752961875,72.0,93.0
121,100.74641836875,100.98808479375,75.0,93.0
122,101.07975136875,101.33808444374999,77.0,91.0
123,101.41030659375,101.57697309375,72.0,97.0
124,101.58113975625,101.72975071875,70.0,97.0
125,101.72280628125,102.93530506875,72.0,100.0
126,104.07974836875,104.28530371875,80.0,98.0
127,104.41308136875,104.59224785625,77.0,91.0
128,104.74641436875,104.97280303125,75.0,100.0
129,105.07974736874999,105.30891380625,72.0,91.0
130,105.41308036875,105.61585794375,70.0,95.0
131,105.74641336875,105.99085756875,68.0,91.0
132,106.07974636875,106.34502388125,65.0,93.0
133,106.41307936875,107.07141204375,75.0,95.0
134,107.07974536875,108.57418831875,72.0,95.0
135,109.41307636875,110.16168673125,77.0,98.0
136,110.41307536875,110.63668625625,72.0,93.0
137,110.74640836875,111.22001900625,70.0,95.0
138,111.41307436875,111.67974076875,65.0,95.0
139,111.74640736875,112.02696264375,75.0,95.0
140,112.07696259375,112.24362909375,72.0,97.0
141,112.24362909375,112.35474009375,70.0,97.0
142,112.41307336874999,114.00334955625,72.0,90.0
143,114.74640436875,114.88807089375,70.0,103.0
144,115.07973736875,115.25612608125,70.0,95.0
145,115.41307036875,115.60334795624999,70.0,100.0
146,115.74640336875,115.94501428125,72.0,93.0
147,116.07973636874999,116.60334695625,75.0,94.0
148,116.74640236875,116.93390218125,72.0,93.0
149,117.07973536875,117.29362404375,75.0,95.0
150,117.41167948124999,117.54501268125,75.0,97.0
151,117.58251264375,119.86028814375,77.0,93.0
152,120.07973236875,120.55056523125,77.0,91.0
153,120.74639836875,120.97139814375,72.0,94.0
154,121.07973136875,121.24778675625,77.0,94.0
155,121.41306436875,121.52278648125,75.0,103.0
156,121.74639736875,121.86306391875,72.0,91.0
157,121.91306386875,121.99084156875,70.0,94.0
158,122.07973036875,122.61028539374999,72.0,93.0
159,122.74639636875,123.19222925625,80.0,93.0
160,123.41306236874999,123.63806214375,72.0,96.0
161,123.74639536875,123.91445075625,80.0,100.0
162,124.07972836875,124.19639491875,77.0,96.0
163,124.24639486875,124.36861696875,80.0,100.0
164,124.41306136875,124.49222795624999,77.0,93.0
165,124.57972786875,124.65889445625,75.0,100.0
166,124.74639436875,125.22278278125,77.0,93.0
167,125.41306036875,125.55750466875,80.0,91.0
168,125.74639336875,125.91861541875,80.0,94.0
169,126.07972636875,126.26305951875,80.0,100.0
170,126.41305936875,126.61722583125,80.0,95.0
171,126.74639236875,127.03805874375,82.0,93.0
172,127.07972536874999,127.22833633125,84.0,84.0
173,127.24639186875,127.35333620624999,82.0,98.0
174,127.41305836875,127.53389158125,80.0,106.0
175,127.74639136875,127.91861341875,82.0,96.0
176,128.07694659375,128.24361309375,84.0,97.0
177,128.24222420625,128.39083516875,82.0,97.0
178,128.39777960625,130.26166663125,84.0,98.0
179,130.74638836875,131.00194366875002,72.0,96.0
180,131.07972136875,131.27416561875,80.0,94.0
181,131.41305436875,131.66444300625,77.0,89.0
182,131.74638736875,132.00749821875002,75.0,95.0
183,132.07694259375,132.21722023125,75.0,97.0
184,132.24360909375,133.13388598125,72.0,96.0
185,133.41305236875002,133.69638541875,77.0,92.0
186,133.74638536875,133.94360739375,84.0,95.0
187,134.07971836875,134.31305146875,82.0,95.0
188,134.41305136875,134.62832893125,80.0,93.0
189,134.74360659375,134.91027309375,80.0,97.0
190,134.91027309375,135.84360549375,77.0,95.0
191,136.07971636874998,136.21304956875,80.0,93.0
192,136.41304936875,136.60193806875,80.0,94.0
193,136.74638236875,136.93388218125,80.0,94.0
194,137.07971536875,137.28388183125,80.0,96.0
195,137.41304836875,137.61027039375,82.0,93.0
196,137.74638136875,137.93388118125,82.0,80.0
197,138.07971436875,138.29915859375,80.0,93.0
198,138.41304736875,138.62138049375,82.0,93.0
199,138.74360259374998,138.91026909375,84.0,97.0
200,138.91026909375,139.07693559375,82.0,97.0
201,139.07693559375,141.07693359375,84.0,93.0
202,141.07693359375,141.24360009375,82.0,97.0
203,141.24360009375,141.41026659375,80.0,97.0
204,141.41304436875,141.58943308125,82.0,100.0
205,141.74637736875,142.54637656875,82.0,91.0
206,142.74637636875,142.92276508125,79.0,91.0
207,143.07970936875,144.07569660000001,79.0,98.0
208,144.415340025,144.91923723750003,75.0,96.0
209,145.08349102500003,145.28115236250002,75.0,93.0
210,145.417566525,145.97714298750003,75.0,96.0
211,146.085717525,146.35854585,72.0,93.0
212,146.41979302500002,146.63694210000003,75.0,92.0
213,146.7510845625,146.9181223125,77.0,97.0
214,146.9181223125,147.08516006250002,75.0,97.0
215,147.08516006250002,149.41672865625003,77.0,90.0
216,170.807304525,171.27918616875002,77.0,91.0
217,171.47545552500003,171.7009564875,72.0,94.0
218,171.809531025,171.97796075625,77.0,94.0
219,172.14360652500002,172.25357304375,75.0,103.0
220,172.477682025,172.59460845,72.0,91.0
221,172.64471977500003,172.72267072500003,70.0,94.0
222,172.81175752500002,173.34349436250002,72.0,93.0
223,173.479908525,173.92673450625003,80.0,93.0
224,174.148059525,174.37356048750001,72.0,96.0
225,174.48213502500002,174.65056475625002,80.0,100.0
226,174.81621052500003,174.93313695,77.0,96.0
227,174.98324827500002,175.105742625,80.0,100.0
228,175.150286025,175.22962895625002,77.0,93.0
229,175.31732377500003,175.39666670625002,75.0,100.0
230,175.48436152500003,175.96181109375001,77.0,93.0
231,176.15251252500002,176.297278575,80.0,91.0
232,176.486588025,176.6591937,80.0,94.0
233,176.82066352500001,177.00440505,80.0,100.0
234,177.15473902500003,177.35936026875,80.0,95.0
235,177.488814525,177.78113058750003,82.0,93.0
236,177.82289002500002,177.97183201875004,84.0,84.0
237,177.989927775,178.09711033125,82.0,98.0
238,178.15696552500003,178.27806789375,80.0,106.0
239,178.49104102500002,178.66364670000002,82.0,96.0
240,178.82233256250004,178.98937031250003,84.0,97.0
241,178.98937031250003,179.15640806250002,82.0,97.0
242,179.15640806250002,181.0100226,84.0,98.0
243,181.49474433750004,181.75029963750004,72.0,96.0
244,181.82807733750002,182.02252158750002,80.0,94.0
245,182.16141033750003,182.41279897500002,77.0,89.0
246,182.49474333750004,182.75585418750003,75.0,95.0
247,182.82529856250002,182.99196506250001,75.0,97.0
248,182.99196506250001,183.86001975000002,72.0,96.0
249,184.16140833750003,184.44474138750002,77.0,92.0
250,184.49474133750002,184.69196336250002,84.0,95.0
251,184.82807433750003,185.06140743750004,82.0,95.0
252,185.16140733750004,185.37668490000001,80.0,93.0
253,185.49196256250002,185.65862906250004,80.0,97.0
254,185.65862906250004,186.59196146250002,77.0,95.0
255,186.82807233750003,186.9614055375,80.0,93.0
256,187.1614053375,187.35029403750002,80.0,94.0
257,187.49473833750002,187.68223815000002,80.0,94.0
258,187.82807133750003,188.03223780000002,80.0,96.0
259,188.16140433750002,188.35862636250002,82.0,93.0
260,188.49473733750003,188.68223715000002,82.0,80.0
261,188.82807033750004,189.04751456250003,80.0,93.0
262,189.16140333750002,189.36973646250001,82.0,93.0
263,189.49195856250003,189.65862506250002,84.0,97.0
264,189.65862506250002,189.8252915625,82.0,97.0
265,189.8252915625,191.95167832500002,84.0,93.0
266,192.16140033750003,192.33778905000003,82.0,100.0
267,192.49473333750004,193.29473253750004,82.0,91.0
268,193.49473233750004,193.67112105000004,79.0,91.0
269,193.82806533750002,194.82250878750003,79.0,98.0
270,195.16139733750003,195.66417461250003,75.0,96.0
271,195.82806333750003,196.02528536250003,75.0,93.0
272,196.16139633750004,196.71972911250003,75.0,96.0
273,196.82806233750003,197.10028428750002,72.0,93.0
274,197.16139533750004,197.37806178750003,75.0,92.0
275,197.49195056250002,197.6586170625,77.0,97.0
276,197.6586170625,197.82528356250003,75.0,97.0
277,197.82528356250003,200.15167012500004,77.0,90.0
278,200.16139233750002,200.73778065000002,65.0,96.0
279,200.82805833750004,201.11139138750002,72.0,92.0
280,201.16139133750002,201.38639111250004,70.0,90.0
281,201.49472433750003,202.47389002500003,72.0,93.0
282,202.82805633750002,203.3336113875,77.0,91.0
283,203.49472233750004,203.74611097500002,72.0,89.0
284,203.82805533750002,204.05861066250003,70.0,93.0
285,204.16138833750003,205.24194281250004,72.0,93.0
286,205.92527546250003,206.53638596250002,75.0,100.0
287,206.68916358750002,207.00999660000002,75.0,96.0
288,207.17666310000004,208.13638436250002,75.0,100.0
289,208.16277322500002,208.55721727500003,72.0,96.0
290,208.64055052500004,208.984994625,75.0,93.0
291,209.12527226250003,211.89054727500002,77.0,89.0
