,start,end,pitch,velocity
0,0.333333,0.4597217625,65.0,92.0
1,0.0,0.463888425,41.0,90.0
2,0.333333,0.4763884125,60.0,91.0
3,0.666666,1.0763878125000002,41.0,90.0
4,0.9999990000000001,1.1069433375,65.0,95.0
5,0.9999990000000001,1.1208322125,60.0,92.0
6,1.333332,1.7527760250000002,41.0,86.0
7,1.669442775,1.7958315375,65.0,92.0
8,1.669442775,1.8124981875000001,60.0,91.0
9,2.336108775,2.4624975375,65.0,92.0
10,2.002775775,2.4666642000000003,41.0,90.0
11,2.336108775,2.4791641875,60.0,91.0
12,2.669441775,3.0791635875,41.0,90.0
13,3.0027747750000002,3.1097191125,65.0,95.0
14,3.0027747750000002,3.1236079875000002,60.0,92.0
15,3.3361077750000003,3.7555518,41.0,86.0
16,3.669440775,3.774996225,65.0,94.0
17,3.669440775,3.7791628875,60.0,93.0
18,4.0027737750000005,4.4208289125,41.0,90.0
19,4.336106775,4.449995550000001,65.0,94.0
20,4.336106775,4.452773325,60.0,93.0
21,4.669439775,5.1291615375,41.0,91.0
22,5.002772775,5.1333282,65.0,94.0
23,5.002772775,5.1444393,60.0,93.0
24,5.336105775,5.7486053625,41.0,90.0
25,5.669438775000001,5.8097164125,56.0,100.0
26,5.669438775000001,5.815271962500001,53.0,91.0
27,5.669438775000001,5.838883050000001,60.0,92.0
28,6.336104775,6.4374935625,56.0,105.0
29,6.336104775,6.4458268875,53.0,91.0
30,6.002771775,6.454160212500001,41.0,85.0
31,6.336104775,6.5069379375,60.0,90.0
32,6.6694377750000005,7.083326250000001,41.0,85.0
33,7.002770775,7.0902706875,56.0,98.0
34,7.002770775,7.108326225,53.0,90.0
35,7.002770775,7.1486039625,60.0,90.0
36,7.336103775000001,7.7680477875000005,41.0,85.0
37,7.669436775,7.769436675000001,56.0,105.0
38,7.669436775,7.7930477625000005,53.0,90.0
39,7.669436775,7.843047712500001,60.0,90.0
40,8.336102775,8.438880450000001,56.0,95.0
41,8.002769775,8.4555471,41.0,87.0
42,8.336102775,8.4569359875,53.0,89.0
43,8.336102775,8.476380412500001,60.0,90.0
44,9.002768775,9.0930464625,56.0,98.0
45,8.669435775,9.097213125,41.0,87.0
46,9.002768775,9.124990875,53.0,91.0
47,9.002768775,9.147213075,60.0,91.0
48,9.336101775000001,9.747212475,41.0,87.0
49,9.669434775000001,9.7888791,56.0,103.0
50,9.669434775000001,9.816656850000001,53.0,90.0
51,9.669434775000001,9.866656800000001,60.0,90.0
52,10.002767775,10.391656275,41.0,89.0
53,10.336100775,10.526378362500001,56.0,103.0
54,10.336100775,10.5347116875,53.0,92.0
55,10.336100775,10.597211625,60.0,91.0
56,10.669433775,11.062488937500001,37.0,93.0
57,11.002766775000001,11.1902665875,56.0,89.0
58,11.002766775000001,11.2110999,49.0,94.0
59,11.336099775000001,11.824988175,37.0,85.0
60,11.669432775,11.8291548375,49.0,92.0
61,11.669432775,11.836099275,56.0,91.0
62,12.002765775,12.434709787500001,39.0,89.0
63,12.336098775,12.4985986125,55.0,94.0
64,12.336098775,12.506931937500001,51.0,93.0
65,12.336098775,12.51665415,58.0,89.0
66,12.669431775000001,13.122209100000001,39.0,82.0
67,13.002764775000001,13.158320175,55.0,92.0
68,13.002764775000001,13.1666535,51.0,93.0
69,13.002764775000001,13.2152645625,58.0,89.0
70,13.669430775,13.76109735,56.0,98.0
71,13.669430775,13.774986225000001,53.0,89.0
72,13.336097775,13.7847084375,41.0,91.0
73,13.669430775,13.8180417375,60.0,91.0
74,14.002763775,14.436096675,41.0,89.0
75,14.336096775000001,14.527763250000001,56.0,94.0
76,14.336096775000001,14.5513743375,53.0,88.0
77,14.336096775000001,14.562485437500001,60.0,89.0
78,14.669429775000001,15.2069292375,41.0,88.0
79,15.002762775,15.33887355,60.0,90.0
80,15.002762775,15.341651325,56.0,100.0
81,15.002762775,15.366651300000001,53.0,90.0
82,15.669428775,15.7541509125,56.0,100.0
83,15.336095775,15.7666509,41.0,90.0
84,15.669428775,15.777762000000001,53.0,90.0
85,15.669428775,15.786095325000002,60.0,90.0
86,16.002761775,16.4347057875,41.0,91.0
87,16.336094775,16.502761275,56.0,105.0
88,16.336094775,16.536094575,60.0,91.0
89,16.336094775,16.5374834625,53.0,90.0
90,16.669427775,17.1180384375,36.0,89.0
91,17.002760775000002,17.1485939625,56.0,100.0
92,17.002760775000002,17.1763717125,53.0,90.0
93,17.002760775000002,17.186093925,60.0,93.0
94,17.669426775,17.819426625000002,56.0,100.0
95,17.669426775,17.8402599375,53.0,91.0
96,17.336093775000002,17.8430377125,41.0,91.0
97,17.669426775,17.844426600000002,60.0,91.0
98,18.002759775,18.4513704375,44.0,93.0
99,18.336092775,18.48331485,56.0,95.0
100,18.336092775,18.490259287500002,53.0,89.0
101,18.336092775,18.5402592375,60.0,91.0
102,18.669425775,19.1041475625,46.0,96.0
103,19.002758775,19.1097031125,58.0,91.0
104,19.002758775,19.1222031,53.0,90.0
105,19.002758775,19.1291475375,61.0,91.0
106,19.336091775,19.763869125,41.0,91.0
107,19.669424775,19.8110913,58.0,94.0
108,19.669424775,19.824980175,53.0,90.0
109,19.669424775,19.8430357125,61.0,94.0
110,20.336090775000002,20.4958128375,58.0,94.0
111,20.002757775,20.497201725,46.0,103.0
112,20.336090775000002,20.5152572625,61.0,94.0
113,20.336090775000002,20.51664615,53.0,90.0
114,21.002756775,21.1291455375,53.0,90.0
115,21.002756775,21.136089975,58.0,92.0
116,20.669423775000002,21.1374788625,44.0,98.0
117,21.002756775,21.1680343875,61.0,93.0
118,21.336089775,22.586088525,48.0,98.0
119,21.336089775,22.5874774125,55.0,89.0
120,21.336089775,22.5874774125,60.0,95.0
121,22.669421775,23.851365037500003,48.0,95.0
122,22.669421775,23.919420525,60.0,96.0
123,22.669421775,23.9221983,63.0,91.0
124,22.669421775,23.97219825,55.0,90.0
125,24.0027599625,24.3925147125,41.0,84.0
126,24.3368354625,24.469073681250002,56.0,96.0
127,24.3368354625,24.47881755,53.0,89.0
128,24.3368354625,24.4927373625,60.0,89.0
129,24.6709109625,25.075977506250002,41.0,89.0
130,25.0049864625,25.13444071875,56.0,105.0
131,25.0049864625,25.14696855,53.0,91.0
132,25.0049864625,25.1608883625,60.0,91.0
133,25.3390619625,25.74691246875,41.0,90.0
134,25.6731374625,25.79423983125,56.0,105.0
135,25.6731374625,25.81094360625,60.0,90.0
136,25.6731374625,25.8179035125,53.0,91.0
137,26.0072129625,26.46795875625,41.0,87.0
138,26.3412884625,26.47074271875,56.0,106.0
139,26.3412884625,26.50136630625,53.0,91.0
140,26.3412884625,26.50554225,60.0,92.0
141,27.0094394625,27.39501826875,56.0,100.0
142,27.0094394625,27.40337015625,53.0,89.0
143,27.0094394625,27.40615411875,60.0,91.0
144,27.343514962500002,27.70960603125,48.0,80.0
145,26.6753639625,27.75971735625,41.0,91.0
146,27.6775904625,27.7666772625,56.0,100.0
147,27.6775904625,27.79034094375,53.0,89.0
148,27.6775904625,27.8000848125,60.0,94.0
149,28.0116659625,28.4738037375,41.0,89.0
150,28.3457414625,28.47519571875,56.0,96.0
151,28.3457414625,28.493291475,53.0,89.0
152,28.3457414625,28.5183471375,60.0,91.0
153,28.6798169625,29.172578325,48.0,90.0
154,29.0138924625,29.18232219375,56.0,98.0
155,29.0138924625,29.20737785625,53.0,88.0
156,29.0138924625,29.22408163125,60.0,91.0
157,29.3479679625,29.98410339375,41.0,91.0
158,29.6820434625,30.03421471875,60.0,90.0
159,29.6820434625,30.041174625,56.0,95.0
160,29.6820434625,30.0578784,53.0,90.0
161,30.016118962500002,30.33209870625,48.0,87.0
162,30.3501944625,30.44624116875,56.0,96.0
163,30.3501944625,30.458769,53.0,89.0
164,30.3501944625,30.47129683125,60.0,90.0
165,30.6842699625,31.2605502,41.0,90.0
166,31.0183454625,31.433155875,60.0,91.0
167,31.0183454625,31.444291725,53.0,90.0
168,31.0183454625,31.444291725,56.0,100.0
169,31.352420962500002,31.7644474125,48.0,89.0
170,31.686496462500003,31.8618861,56.0,103.0
171,31.686496462500003,31.87162996875,53.0,91.0
172,31.686496462500003,31.9314851625,60.0,92.0
173,32.0205719625,32.54117295,44.0,93.0
174,32.3546474625,32.7499701375,60.0,89.0
175,32.3546474625,32.76249796875,63.0,90.0
176,32.3546474625,32.78755363125,56.0,91.0
177,32.6887229625,33.054814031250004,51.0,89.0
178,33.0227984625,33.23159565,60.0,90.0
179,33.0227984625,33.246907443750004,56.0,90.0
180,33.0227984625,33.25804329375,63.0,90.0
181,33.3568739625,33.9804815625,46.0,93.0
182,33.6909494625,34.03755279375,58.0,90.0
183,33.6909494625,34.0417287375,61.0,90.0
184,33.6909494625,34.07374430625,53.0,90.0
185,34.0250249625,34.49690660625,41.0,91.0
186,34.3591004625,34.5372740625,58.0,92.0
187,34.3591004625,34.54562595,61.0,91.0
188,34.3591004625,34.573465575,53.0,89.0
189,34.6931759625,35.34044724375,46.0,103.0
190,35.027251462500004,35.34601516875,61.0,95.0
191,35.027251462500004,35.3557590375,58.0,91.0
192,35.027251462500004,35.372462812500004,53.0,90.0
193,35.6954024625,35.799801056250004,58.0,93.0
194,35.3613269625,35.8067609625,41.0,90.0
195,35.6954024625,35.809544925,53.0,89.0
196,35.6954024625,35.82207275625,61.0,95.0
197,36.0294779625,36.552862912500004,46.0,91.0
198,36.3635534625,36.76305208125,61.0,96.0
199,36.3635534625,36.77140396875,58.0,96.0
200,36.3635534625,36.78253981875,53.0,90.0
201,36.697628962500005,37.1541988125,46.0,91.0
202,37.0317044625,37.172294568750004,58.0,92.0
203,37.0317044625,37.1848224,61.0,92.0
204,37.0317044625,37.195958250000004,53.0,90.0
205,37.3657799625,37.82652575625,41.0,91.0
206,37.699855462500004,38.089610212500006,60.0,90.0
207,37.699855462500004,38.0951781375,56.0,100.0
208,37.699855462500004,38.09657011875,53.0,90.0
209,38.0339309625,38.50859656875,48.0,90.0
210,38.368006462500006,38.52251638125,56.0,100.0
211,38.368006462500006,38.54200411875,53.0,94.0
212,38.368006462500006,38.5461800625,60.0,94.0
213,38.7020819625,39.24077870625,46.0,96.0
214,39.0361574625,39.450967875,61.0,94.0
215,39.0361574625,39.47741551875,58.0,91.0
216,39.0361574625,39.480199481250004,53.0,90.0
217,39.3702329625,39.835154700000004,46.0,90.0
218,39.7043084625,39.8824820625,58.0,95.0
219,39.7043084625,39.885266025,61.0,95.0
220,39.7043084625,39.893617912500005,53.0,91.0
221,40.038383962500006,40.453194375,41.0,89.0
222,40.372459462500004,40.51861749375,56.0,100.0
223,40.372459462500004,40.531145325,53.0,89.0
224,40.372459462500004,40.553417025,60.0,91.0
225,40.7065349625,41.199296325000006,48.0,91.0
226,41.0406104625,41.36076615,60.0,91.0
227,41.0406104625,41.366334075,56.0,105.0
228,41.0406104625,41.37051001875,53.0,92.0
229,41.3746859625,41.81037609375,41.0,93.0
230,41.7087614625,42.134707725,60.0,92.0
231,41.7087614625,42.1374916875,56.0,100.0
232,41.7087614625,42.14723555625,53.0,90.0
233,42.042836962500004,42.4492954875,48.0,91.0
234,42.3769124625,42.50636671875,56.0,96.0
235,42.3769124625,42.51889455,53.0,91.0
236,42.3769124625,42.54255823125,60.0,91.0
237,42.7109879625,43.3123238625,46.0,96.0
238,43.0450634625,43.504417275,58.0,91.0
239,43.0450634625,43.504417275,61.0,91.0
240,43.0450634625,43.51137718125,53.0,89.0
241,43.3791389625,43.846844662500004,41.0,92.0
242,43.713214462500005,43.960987125,58.0,94.0
243,43.713214462500005,43.96516306875,53.0,90.0
244,43.713214462500005,44.00135458125,61.0,94.0
245,44.0472899625,44.701521150000005,48.0,96.0
246,44.3813654625,44.8323673875,60.0,91.0
247,44.3813654625,44.88108673125,55.0,90.0
248,44.3813654625,44.88526267500001,63.0,90.0
249,44.7154409625,45.24021789375,43.0,91.0
250,45.0495164625,45.25692166875,60.0,95.0
251,45.0495164625,45.258313650000005,63.0,93.0
252,45.0495164625,45.2945051625,55.0,91.0
253,45.383591962500006,45.75803491875,41.0,93.0
254,45.7176674625,46.093502400000006,60.0,93.0
255,45.7176674625,46.1157741,53.0,93.0
256,45.7176674625,46.1185580625,56.0,105.0
257,46.0517429625,46.44845761875,48.0,91.0
258,46.3858184625,46.529192531250004,56.0,105.0
259,46.3858184625,46.54311234375,53.0,91.0
260,46.3858184625,46.5584241375,60.0,93.0
261,46.7198939625,47.18620768125,41.0,91.0
262,47.05396946250001,47.4158845875,60.0,91.0
263,47.05396946250001,47.427020437500005,56.0,93.0
264,47.05396946250001,47.44511619375,53.0,89.0
265,47.388044962500004,47.50357940625,48.0,90.0
266,47.7221204625,47.811207262500005,41.0,94.0
267,47.7221204625,47.858534625000004,53.0,95.0
268,47.7221204625,47.858534625000004,56.0,100.0
269,47.7221204625,47.8835902875,60.0,93.0
270,48.05603818125,48.61437095625,41.0,93.0
271,48.38937118125,48.84909294375,56.0,96.0
272,48.38937118125,48.85881515625,60.0,92.0
273,48.38937118125,48.86853736875,53.0,87.0
274,48.72270418125,49.18381483125,48.0,93.0
275,49.05603718125,49.21437035625,53.0,90.0
276,49.05603718125,49.29214805625,56.0,93.0
277,49.05603718125,49.31853691875,60.0,91.0
278,49.38937018125,49.85464749375,39.0,73.0
279,49.72270318125,49.97270293125,55.0,94.0
280,49.72270318125,50.04075841875,51.0,92.0
281,50.05603618125,50.48242464375,36.0,105.0
282,50.389369181250004,50.62131339375,48.0,90.0
283,50.389369181250004,50.62409116875,51.0,89.0
284,50.389369181250004,50.62964671875,55.0,94.0
285,50.72270218125,51.28520161875,44.0,100.0
286,51.05603518125,51.39214595625,60.0,91.0
287,51.05603518125,51.393534843750004,63.0,91.0
288,51.05603518125,51.41297926875,56.0,89.0
289,51.72270118125,51.80881220625,56.0,89.0
290,51.72270118125,51.80881220625,56.0,89.0
291,51.38936818125,51.86297881875,51.0,89.0
292,51.72270118125,51.95325650625,60.0,89.0
293,51.72270118125,52.09214525625,63.0,91.0
294,52.38936718125,52.77547790625,60.0,90.0
295,52.38936718125,52.81020009375,63.0,89.0
296,52.38936718125,52.81158898125,56.0,91.0
297,52.05603418125,52.82408896875,44.0,94.0
298,52.72270018125,53.16714418125,51.0,85.0
299,53.05603318125,53.20881080625,56.0,90.0
300,53.05603318125,53.21714413125,60.0,90.0
301,53.05603318125,53.21853301875,63.0,90.0
302,53.72269918125,53.99908779375,60.0,89.0
303,53.72269918125,54.03380998125,56.0,89.0
304,53.38936618125,54.15047653125,44.0,98.0
305,54.38936518125,54.43797624375,60.0,74.0
306,54.38936518125,54.44908734375,63.0,78.0
307,54.05603218125,54.62130939375,51.0,96.0
308,54.38936518125,54.62547605625,56.0,98.0
309,54.72269818125,55.35603088125,46.0,92.0
310,55.05603118125,55.44214190625,61.0,92.0
311,55.05603118125,55.45464189375,58.0,92.0
312,55.05603118125,55.48797519375,53.0,91.0
313,55.38936418125,55.87825258125,41.0,90.0
314,55.72269718125,55.87964146875,53.0,89.0
315,55.72269718125,55.88103035625,58.0,95.0
316,55.72269718125,55.91853031875,61.0,91.0
317,56.05603018125,56.19075226875,55.0,90.0
318,56.05603018125,56.19075226875,60.0,90.0
319,56.05603018125,56.239363331250004,48.0,94.0
320,56.389363181250005,56.63519626875,60.0,106.0
321,56.389363181250005,56.67408511875,55.0,95.0
322,56.389363181250005,56.68241844375,48.0,105.0
323,56.88936268125,57.05186251875,60.0,94.0
324,56.88936268125,57.06019584375,55.0,91.0
325,56.88936268125,57.17686239375,48.0,106.0
326,57.38936218125,57.569917556250005,60.0,90.0
327,57.38936218125,57.58380643125,55.0,90.0
328,57.38936218125,57.58519531875,48.0,110.0
329,58.05602818125,58.26436130625,55.0,90.0
330,58.05602818125,58.27130574375,67.0,89.0
331,58.05602818125,58.272694631250005,60.0,90.0
332,58.05602818125,58.33102790625,48.0,105.0
333,58.72269418125,59.43380458125,41.0,94.0
334,59.05602718125,59.45741566875,53.0,91.0
335,59.05602718125,59.47547120625,56.0,103.0
336,59.05602718125,59.48797119375,60.0,90.0
337,59.72269318125,59.89630411875,53.0,90.0
338,59.72269318125,59.89769300625,56.0,100.0
339,59.38936018125,59.90324855625,48.0,95.0
340,59.72269318125,59.93797074375,60.0,91.0
341,60.056026181250004,60.65463669375,41.0,93.0
342,60.38935918125,60.86435870625,53.0,94.0
343,60.38935918125,60.89769200625,56.0,105.0
344,60.38935918125,60.89769200625,60.0,94.0
345,61.05602518125,61.13380288125,53.0,92.0
346,60.72269218125,61.23241389375,48.0,105.0
347,61.05602518125,61.29491383125,56.0,105.0
348,61.05602518125,61.32824713125,60.0,93.0
349,61.22269168125,61.37546930625,53.0,92.0
350,61.38935818125,62.03380198125,46.0,103.0
351,61.72269118125,62.07546860625,61.0,92.0
352,61.72269118125,62.089357481250005,58.0,93.0
353,61.72269118125,62.09769080625,53.0,91.0
354,62.05602418125,62.55185701875,41.0,91.0
355,62.38935718125,62.57269033125,58.0,100.0
356,62.38935718125,62.59630141875,61.0,98.0
357,62.38935718125,62.59907919375,53.0,92.0
358,62.72269018125,63.17407861875,41.0,91.0
359,63.05602318125,63.56574489375,53.0,89.0
360,63.05602318125,63.572689331250004,60.0,90.0
361,63.05602318125,63.58380043125,56.0,96.0
362,63.38935618125,63.824077968750004,48.0,92.0
363,63.722689181250004,63.88518901875,56.0,98.0
364,63.722689181250004,63.89630011875,53.0,91.0
365,63.722689181250004,63.93518896875,60.0,92.0
366,64.38935518125,64.90046578125,56.0,90.0
367,64.38935518125,64.95602128125,60.0,88.0
368,65.05602118125,65.11713223125,60.0,82.0
369,64.72268818124999,65.18935438125,51.0,76.0
370,64.38935518125,65.25046543125,63.0,90.0
371,64.05602218125,65.26435430625,44.0,93.0
372,65.05602118125,65.28102095625,56.0,95.0
373,65.72268718125,66.16435340625,61.0,96.0
374,65.72268718125,66.18240894375,53.0,92.0
375,65.72268718125,66.19213115625,58.0,95.0
376,65.38935418125,66.52546415625,46.0,93.0
377,66.38935318125,66.64351959375,58.0,100.0
378,66.38935318125,66.65185291875,61.0,100.0
379,66.38935318125,66.67268623125,53.0,93.0
380,66.72268618125,66.86435270625,41.0,87.0
381,66.72268618125,67.06296361875,60.0,93.0
382,66.72268618125,67.11713023125,65.0,90.0
383,68.05601818125,68.34907344375,65.0,85.0
384,68.05601818125,68.40462894375,68.0,93.0
385,68.05601818125,68.77962856875,60.0,83.0
386,68.05601818125,68.82129519375,53.0,89.0
387,68.72268418125,68.86990625625,65.0,85.0
388,68.72268418125,68.91573954374999,68.0,94.0
389,68.72268418125,68.96712838125,72.0,90.0
390,69.38935018125,69.56990555625,53.0,90.0
391,69.38935018125,69.57962776875,46.0,98.0
392,69.38935018125,69.57962776875,58.0,92.0
393,69.38935018125,69.59490553124999,61.0,92.0
394,69.72268318125,70.21434935625,53.0,94.0
395,69.72268318125,70.52268238125001,58.0,103.0
396,69.72268318125,70.52962681875,61.0,100.0
397,69.72268318125,70.56573789375,46.0,105.0
398,70.72268218125001,70.90323755625,55.0,88.0
399,70.72268218125001,70.90601533125,58.0,92.0
400,70.72268218125001,70.91018199375,61.0,92.0
401,70.72268218125001,70.93518196875,43.0,91.0
402,71.05601518125,71.89490323125,58.0,100.0
403,71.05601518125,71.89768100625,55.0,92.0
404,71.05601518125,71.90045878125,61.0,98.0
405,71.05601518125,71.92823653125001,43.0,91.0
406,72.38934718125,72.64768025625,48.0,89.0
407,72.38934718125,72.65740246875,63.0,106.0
408,72.38934718125,72.66851356875,60.0,93.0
409,72.38934718125,72.66851356875,67.0,91.0
410,72.38934718125,72.67684689375,36.0,83.0
411,73.05601318125,73.20323525625,48.0,90.0
412,73.05601318125,73.22267968125,60.0,89.0
413,73.05601318125,73.22962411875,63.0,93.0
414,73.05601318125,73.24073521875,36.0,84.0
415,73.05601318125,73.24212410625,67.0,87.0
416,73.38934618125,74.64073381875,48.0,89.0
417,73.38934618125,74.64628936875,63.0,100.0
418,73.38934618125,74.64906714375,60.0,89.0
419,73.38934618125,74.65601158125,36.0,83.0
420,73.38934618125,74.66295601875001,67.0,89.0
421,75.05601118125,75.15462219375,56.0,103.0
422,75.05601118125,75.17267773125,53.0,90.0
423,74.72267818125,75.17684439375,41.0,93.0
424,75.05601118125,75.20601103125,60.0,91.0
425,75.72267718125,75.81295486875,56.0,105.0
426,75.72267718125,75.82128819375001,53.0,92.0
427,75.38934418125001,75.82962151875,41.0,89.0
428,75.72267718125,75.85184371875,60.0,91.0
429,76.05601018125,76.55739856875,41.0,85.0
430,76.38934318125,76.73934283125,56.0,106.0
431,76.38934318125,76.74489838125,53.0,92.0
432,76.38934318125,76.74767615625001,60.0,91.0
433,76.72267618125,77.15323130625,41.0,91.0
434,77.05600918125,77.16850906875,56.0,105.0
435,77.05600918125,77.16989795625,53.0,92.0
436,77.05600918125,77.19073126875,60.0,95.0
437,77.27267563125,79.06850716875,53.0,89.0
438,77.33656445625,79.07267383125,41.0,94.0
439,77.33795334375,79.08239604375001,56.0,81.0
440,77.39073106875,79.11711823125,60.0,89.0
441,77.43239769375,79.16850706875,65.0,81.0
442,80.00739511875,80.66989445625,36.0,90.0
443,80.05045063125,81.53517136875,72.0,86.0
444,80.01295066875,81.56572689375,67.0,78.0
445,79.95045073125,81.57683799375,63.0,83.0
446,79.88656190625,81.60183796875,60.0,79.0
447,82.57128144375,84.21711313125,53.0,80.0
448,82.63239249375,84.26433530625,58.0,90.0
449,82.72683684375,84.32266858125,61.0,91.0
450,82.66433690625,84.45322400625,46.0,94.0
451,85.17266773125,85.25738986875001,72.0,69.0
452,85.30600093125,86.04627796875,41.0,90.0
453,85.16988995625,86.06711128124999,60.0,74.0
454,85.36711198125,86.07961126875,72.0,90.0
455,85.28377873125001,86.08377793125001,68.0,71.0
456,85.23655655625001,86.09350014374999,65.0,74.0
457,88.05898055624999,88.491886725,41.0,91.0
458,88.39305605624999,88.56009380625,56.0,105.0
459,88.39305605624999,88.59350135624999,60.0,91.0
460,88.39305605624999,88.5948933375,53.0,90.0
461,88.72713155625,89.17674149999999,36.0,89.0
462,89.06120705625,89.2073650875,56.0,100.0
463,89.06120705625,89.23520471249999,53.0,90.0
464,89.06120705625,89.24494858125,60.0,93.0
465,89.72935805624999,89.87969203124999,56.0,100.0
466,89.72935805624999,89.90057175,53.0,91.0
467,89.39528255625,89.9033557125,41.0,91.0
468,89.72935805624999,89.90474769375,60.0,91.0
469,90.06343355624999,90.5130435,44.0,93.0
470,90.39750905625,90.54505906874999,56.0,95.0
471,90.39750905625,90.552018975,53.0,89.0
472,90.39750905625,90.6021303,60.0,91.0
473,90.73158455625,91.1672746875,46.0,96.0
474,91.06566005625,91.17284261249999,58.0,91.0
475,91.06566005625,91.18537044374999,53.0,90.0
476,91.06566005625,91.19233034999999,61.0,91.0
477,91.39973555625,91.82846578124999,41.0,91.0
478,91.73381105624999,91.87579314375,58.0,94.0
479,91.73381105624999,91.88971295625,53.0,90.0
480,91.73381105624999,91.9078087125,61.0,94.0
481,92.40196205625,92.5620399,58.0,94.0
482,92.06788655624999,92.56343188125,46.0,103.0
483,92.40196205625,92.58152763749999,61.0,94.0
484,92.40196205625,92.58291961875,53.0,90.0
485,93.07011305625,93.19678334999999,53.0,90.0
486,93.07011305625,93.20374325625,58.0,92.0
487,92.73603755625,93.2051352375,44.0,98.0
488,93.07011305625,93.23575882499999,61.0,93.0
489,93.40418855624999,94.65697168125,48.0,98.0
490,93.40418855624999,94.6583636625,55.0,89.0
491,93.40418855624999,94.6583636625,60.0,95.0
492,94.74049055625,95.9250666,48.0,95.0
493,94.74049055625,95.99327368125,60.0,96.0
494,94.74049055625,95.99605764374999,63.0,91.0
495,94.74049055625,96.04616896875,55.0,90.0
496,96.07679255625,96.46654730624999,41.0,84.0
497,96.41086805625,96.543106275,56.0,96.0
498,96.41086805625,96.55285014374999,53.0,89.0
499,96.41086805625,96.56676995625,60.0,89.0
500,96.74494355624999,97.1500101,41.0,89.0
501,97.07901905624999,97.20847331249999,56.0,105.0
502,97.07901905624999,97.22100114375,53.0,91.0
503,97.07901905624999,97.23492095625,60.0,91.0
504,97.41308836875,97.82003240625,41.0,90.0
505,97.74642136874999,97.86725458125,56.0,105.0
506,97.74642136874999,97.88392123125,60.0,90.0
507,97.74642136874999,97.89086566875,53.0,91.0
508,98.07975436875,98.53947613125,41.0,87.0
509,98.41308736875,98.54225390625,56.0,106.0
510,98.41308736875,98.57280943125,53.0,91.0
511,98.41308736875,98.57697609374999,60.0,92.0
512,99.07975336874999,99.46447520625,56.0,100.0
513,99.07975336874999,99.47280853125,53.0,89.0
514,99.07975336874999,99.47558630625,60.0,91.0
515,99.41308636875,99.77836378125,48.0,80.0
516,98.74642036875,99.82836373125,41.0,91.0
517,99.74641936875,99.83530816875,56.0,100.0
518,99.74641936875,99.85891925625,53.0,89.0
519,99.74641936875,99.86864146875,60.0,94.0
520,100.07975236875,100.54086301875,41.0,89.0
521,100.41308536875,100.54225190625,56.0,96.0
522,100.41308536875,100.56030744374999,53.0,89.0
523,100.41308536875,100.58530741874999,60.0,91.0
524,100.74641836875,101.23808454374999,48.0,90.0
525,101.07975136875,101.24780675625,56.0,98.0
526,101.07975136875,101.27280673125,53.0,88.0
527,101.07975136875,101.28947338124999,60.0,91.0
528,101.41308436874999,102.04780595625,41.0,91.0
529,101.74641736875,102.09780590625,60.0,90.0
530,101.74641736875,102.10475034375,56.0,95.0
531,101.74641736875,102.12141699375,53.0,90.0
532,102.07975036875,102.39502783124999,48.0,87.0
533,102.41308336875,102.50891660625,56.0,96.0
534,102.41308336875,102.52141659375,53.0,89.0
535,102.41308336875,102.53391658125,60.0,90.0
536,102.74641636875,103.32141579374999,41.0,90.0
537,103.07974936875,103.49363784375,60.0,91.0
538,103.07974936875,103.50474894375,53.0,90.0
539,103.07974936875,103.50474894375,56.0,100.0
540,103.41308236875,103.82419306874999,48.0,89.0
541,103.74641536875,103.92141519375,56.0,103.0
542,103.74641536875,103.93113740625,53.0,91.0
543,103.74641536875,103.99085956875,60.0,92.0
544,104.07974836875,104.59919229375,44.0,93.0
545,104.41308136875,104.80752541875,60.0,89.0
546,104.41308136875,104.82002540625,63.0,90.0
547,104.41308136875,104.84502538125,56.0,91.0
548,104.74641436875,105.11169178125,51.0,89.0
549,105.07974736874999,105.28808049375,60.0,90.0
550,105.07974736874999,105.30335825625,56.0,90.0
551,105.07974736874999,105.31446935625,63.0,90.0
552,105.41308036875,106.03530196874999,46.0,93.0
553,105.74641336875,106.09224635625,58.0,90.0
554,105.74641336875,106.09641301875,61.0,90.0
555,105.74641336875,106.12835743125,53.0,90.0
556,106.07974636875,106.55057923125,41.0,91.0
557,106.41307936875,106.59085696875,58.0,92.0
558,106.41307936875,106.59919029375,61.0,91.0
559,106.41307936875,106.62696804375,53.0,89.0
560,106.74641236875,107.39224505625,46.0,103.0
561,107.07974536875,107.39780060625,61.0,95.0
562,107.07974536875,107.40752281875,58.0,91.0
563,107.07974536875,107.42418946875,53.0,90.0
564,107.74641136875,107.85057793125,58.0,93.0
565,107.41307836874999,107.85752236875,41.0,90.0
566,107.74641136875,107.86030014375,53.0,89.0
567,107.74641136875,107.87280013125,61.0,95.0
568,108.07974436875,108.60196606875,46.0,91.0
569,108.41307736875,108.81168808125,61.0,96.0
570,108.41307736875,108.82002140624999,58.0,96.0
571,108.41307736875,108.83113250625,53.0,90.0
572,108.74641036874999,109.20196546875,46.0,91.0
573,109.07974336875,109.22002100625,58.0,92.0
574,109.07974336875,109.23252099375,61.0,92.0
575,109.07974336875,109.24363209375,53.0,90.0
576,109.41307636875,109.87279813125,41.0,91.0
577,109.74640936875,110.13529786875,60.0,90.0
578,109.74640936875,110.14085341875,56.0,100.0
579,109.74640936875,110.14224230625,53.0,90.0
580,110.07974236875,110.55335300624999,48.0,90.0
581,110.41307536875,110.56724188125,56.0,100.0
582,110.41307536875,110.58668630625,53.0,94.0
583,110.41307536875,110.59085296875,60.0,94.0
584,110.74640836875,111.28390783124999,46.0,96.0
585,111.07974136874999,111.49362984375,61.0,94.0
586,111.07974136874999,111.52001870625,58.0,91.0
587,111.07974136874999,111.52279648125,53.0,90.0
588,111.41307436875,111.87696279375,46.0,90.0
589,111.74640736875,111.92418496875,58.0,95.0
590,111.74640736875,111.92696274375,61.0,95.0
591,111.74640736875,111.93529606875,53.0,91.0
592,112.07974036875,112.49362884375,41.0,89.0
593,112.41307336874999,112.55890655625,56.0,100.0
594,112.41307336874999,112.57140654375,53.0,89.0
595,112.41307336874999,112.59362874375,60.0,91.0
596,112.74640636875,113.23807254375,48.0,91.0
597,113.07973936875,113.39918349375,60.0,91.0
598,113.07973936875,113.40473904375,56.0,105.0
599,113.07973936875,113.40890570625,53.0,92.0
600,113.41307236875,113.84779415625,41.0,93.0
601,113.74640536875,114.17140494374999,60.0,92.0
602,113.74640536875,114.17418271875,56.0,100.0
603,113.74640536875,114.18390493125,53.0,90.0
604,114.07973836875,114.48529351875,48.0,91.0
605,114.41307136875,114.54223790625,56.0,96.0
606,114.41307136875,114.55473789375,53.0,91.0
607,114.41307136875,114.57834898125,60.0,91.0
608,114.74640436875,115.34640376875,46.0,96.0
609,115.07973736875,115.53807024375,58.0,91.0
610,115.07973736875,115.53807024375,61.0,91.0
611,115.07973736875,115.54501468125,53.0,89.0
612,115.41307036875,115.87973656874999,41.0,92.0
613,115.74640336875,115.99362534375,58.0,94.0
614,115.74640336875,115.99779200625,53.0,90.0
615,115.74640336875,116.03390308125,61.0,94.0
616,116.07973636874999,116.73251349374999,48.0,96.0
617,116.41306936875,116.86306891875,60.0,91.0
618,116.41306936875,116.91167998125,55.0,90.0
619,116.41306936875,116.91584664375,63.0,90.0
620,116.74640236875,117.27001295625,43.0,91.0
621,117.07973536875,117.28667960625,60.0,95.0
622,117.07973536875,117.28806849375,63.0,93.0
623,117.07973536875,117.32417956875,55.0,91.0
624,117.41306836875,117.78667910625,41.0,93.0
625,117.74640136875,118.12140099375,60.0,93.0
626,117.74640136875,118.14362319375,53.0,93.0
627,117.74640136875,118.14640096875,56.0,105.0
628,118.07973436875,118.47556730625,48.0,91.0
629,118.41306736875,118.55612278125,56.0,105.0
630,118.41306736875,118.57001165625,53.0,91.0
631,118.41306736875,118.58528941875,60.0,93.0
632,118.74640036875,119.21167768125,41.0,91.0
633,119.07973336875,119.44084411875,60.0,91.0
634,119.07973336875,119.45195521875,56.0,93.0
635,119.07973336875,119.47001075624999,53.0,89.0
636,119.41306636875,119.52834403125,48.0,90.0
637,119.74639936874999,119.83528816875,41.0,94.0
638,119.74639936874999,119.88251034375,53.0,95.0
639,119.74639936874999,119.88251034375,56.0,100.0
640,119.74639936874999,119.90751031875,60.0,93.0
641,120.07973236875,120.63806514375,41.0,93.0
642,120.41306536875,120.87278713124999,56.0,96.0
643,120.41306536875,120.88250934375,60.0,92.0
644,120.41306536875,120.89223155625,53.0,87.0
645,120.74639836875,121.20750901875,48.0,93.0
646,121.07973136875,121.23806454375,53.0,90.0
647,121.07973136875,121.31584224375,56.0,93.0
648,121.07973136875,121.34223110625,60.0,91.0
649,121.41306436875,121.87834168124999,39.0,73.0
650,121.74639736875,121.99639711875,55.0,94.0
651,121.74639736875,122.06445260625,51.0,92.0
652,122.07973036875,122.50611883125,36.0,105.0
653,122.41306336875,122.64500758125,48.0,90.0
654,122.41306336875,122.64778535625,51.0,89.0
655,122.41306336875,122.65334090625,55.0,94.0
656,122.74639636875,123.30889580625,44.0,100.0
657,123.07972936875,123.41584014375,60.0,91.0
658,123.07972936875,123.41722903125,63.0,91.0
659,123.07972936875,123.43667345624999,56.0,89.0
660,123.74639536875,123.83250639375,56.0,89.0
661,123.74639536875,123.83250639375,56.0,89.0
662,123.41306236874999,123.88667300624999,51.0,89.0
663,123.74639536875,123.97695069375,60.0,89.0
664,123.74639536875,124.11583944374999,63.0,91.0
665,124.41306136875,124.79917209375,60.0,90.0
666,124.41306136875,124.83389428125,63.0,89.0
667,124.41306136875,124.83528316875,56.0,91.0
668,124.07972836875,124.84778315625,44.0,94.0
669,124.74639436875,125.19083836875,51.0,85.0
670,125.07972736875,125.23250499375,56.0,90.0
671,125.07972736875,125.24083831875,60.0,90.0
672,125.07972736875,125.24222720624999,63.0,90.0
673,125.74639336875,126.02278198125,60.0,89.0
674,125.74639336875,126.05750416875,56.0,89.0
675,125.41306036875,126.17417071874999,44.0,98.0
676,126.41305936875,126.46167043125,60.0,74.0
677,126.41305936875,126.47278153125,63.0,78.0
678,126.07972636875,126.64500358125,51.0,96.0
679,126.41305936875,126.64917024375,56.0,98.0
680,126.74639236875,127.37972506874999,46.0,92.0
681,127.07972536874999,127.46583609375,61.0,92.0
682,127.07972536874999,127.47833608125,58.0,92.0
683,127.07972536874999,127.51166938125,53.0,91.0
684,127.41305836875,127.90194676875,41.0,90.0
685,127.74639136875,127.90333565625,53.0,89.0
686,127.74639136875,127.90472454375,58.0,95.0
687,127.74639136875,127.94222450625,61.0,91.0
688,128.07972436875,128.21444645625,55.0,90.0
689,128.07972436875,128.21444645625,60.0,90.0
690,128.07972436875,128.26305751875,48.0,94.0
691,128.41305736875,128.65889045625,60.0,106.0
692,128.41305736875,128.69777930625,55.0,95.0
693,128.41305736875,128.70611263125,48.0,105.0
694,128.91305686875,129.07555670624998,60.0,94.0
695,128.91305686875,129.08389003125,55.0,91.0
696,128.91305686875,129.20055658125,48.0,106.0
697,129.41305636875,129.59361174375,60.0,90.0
698,129.41305636875,129.60750061875,55.0,90.0
699,129.41305636875,129.60888950625,48.0,110.0
700,130.07972236875,130.28805549375,55.0,90.0
701,130.07972236875,130.29499993125,67.0,89.0
702,130.07972236875,130.29638881875,60.0,90.0
703,130.07972236875,130.35472209375,48.0,105.0
704,130.74638836875,131.45749876874999,41.0,94.0
705,131.07972136875,131.48110985625,53.0,91.0
706,131.07972136875,131.49916539375,56.0,103.0
707,131.07972136875,131.51166538125,60.0,90.0
708,131.74638736875,131.91999830625,53.0,90.0
709,131.74638736875,131.92138719375,56.0,100.0
710,131.41305436875,131.92694274375,48.0,95.0
711,131.74638736875,131.96166493125,60.0,91.0
712,132.07972036875,132.67833088125,41.0,93.0
713,132.41305336875,132.88805289375,53.0,94.0
714,132.41305336875,132.92138619374998,56.0,105.0
715,132.41305336875,132.92138619374998,60.0,94.0
716,133.07971936875,133.15749706875,53.0,92.0
717,132.74638636875,133.25610808125,48.0,105.0
718,133.07971936875,133.31860801875,56.0,105.0
719,133.07971936875,133.35194131875,60.0,93.0
720,133.24638586875,133.39916349375,53.0,92.0
721,133.41305236875002,134.05749616875,46.0,103.0
722,133.74638536875,134.09916279375,61.0,92.0
723,133.74638536875,134.11305166875,58.0,93.0
724,133.74638536875,134.12138499374998,53.0,91.0
725,134.07971836875,134.57555120625,41.0,91.0
726,134.41305136875,134.59638451875,58.0,100.0
727,134.41305136875,134.61999560625,61.0,98.0
728,134.41305136875,134.62277338125,53.0,92.0
729,134.74638436875,135.19777280625,41.0,91.0
730,135.07971736874998,135.58943908125,53.0,89.0
731,135.07971736874998,135.59638351875,60.0,90.0
732,135.07971736874998,135.60749461875,56.0,96.0
733,135.41305036875,135.84777215625002,48.0,92.0
734,135.74638336875,135.90888320624998,56.0,98.0
735,135.74638336875,135.91999430625,53.0,91.0
736,135.74638336875,135.95888315625,60.0,92.0
737,136.41304936875,136.92415996875,56.0,90.0
738,136.41304936875,136.97971546875,60.0,88.0
739,137.07971536875,137.14082641875,60.0,82.0
740,136.74638236875,137.21304856875,51.0,76.0
741,136.41304936875,137.27415961875,63.0,90.0
742,136.07971636874998,137.28804849375,44.0,93.0
743,137.07971536875,137.30471514375,56.0,95.0
744,137.74638136875,138.18804759375,61.0,96.0
745,137.74638136875,138.20610313125,53.0,92.0
746,137.74638136875,138.21582534375,58.0,95.0
747,137.41304836875,138.54915834375,46.0,93.0
748,138.41304736875,138.66721378124998,58.0,100.0
749,138.41304736875,138.67554710625,61.0,100.0
750,138.41304736875,138.69638041874998,53.0,93.0
751,138.74638036875,138.88804689375002,41.0,87.0
752,138.74638036875,139.08665780625,60.0,93.0
753,138.74638036875,139.14082441875001,65.0,90.0
754,140.07971236875,140.37276763124999,65.0,85.0
755,140.07971236875,140.42832313125,68.0,93.0
756,140.07971236875,140.80332275625,60.0,83.0
757,140.07971236875,140.84498938125,53.0,89.0
758,140.74637836875002,140.89360044375,65.0,85.0
759,140.74637836875002,140.93943373125,68.0,94.0
760,140.74637836875002,140.99082256875,72.0,90.0
761,141.41304436875,141.59359974375,53.0,90.0
762,141.41304436875,141.60332195625,46.0,98.0
763,141.41304436875,141.60332195625,58.0,92.0
764,141.41304436875,141.61859971875,61.0,92.0
765,141.74637736875,142.23804354375,53.0,94.0
766,141.74637736875,142.54637656875,58.0,103.0
767,141.74637736875,142.55332100625,61.0,100.0
768,141.74637736875,142.58943208125,46.0,105.0
769,142.74637636875,142.92693174375,55.0,88.0
770,142.74637636875,142.92970951875,58.0,92.0
771,142.74637636875,142.93387618125,61.0,92.0
772,142.74637636875,142.95887615625,43.0,91.0
773,143.07970936875,143.9197947,58.0,100.0
774,143.07970936875,143.92257866250003,55.0,92.0
775,143.07970936875,143.92536262500002,61.0,98.0
776,143.07970936875,143.95320225,43.0,91.0
777,144.415340025,144.6742485375,48.0,89.0
778,144.415340025,144.68399240625,63.0,106.0
779,144.415340025,144.69512825625003,60.0,93.0
780,144.415340025,144.69512825625003,67.0,91.0
781,144.415340025,144.70348014375003,36.0,83.0
782,145.08349102500003,145.2310410375,48.0,90.0
783,145.08349102500003,145.25052877500002,60.0,89.0
784,145.08349102500003,145.25748868125,63.0,93.0
785,145.08349102500003,145.26862453125003,36.0,84.0
786,145.08349102500003,145.2700165125,67.0,87.0
787,145.417566525,146.67174163125003,48.0,89.0
788,145.417566525,146.67730955625,63.0,100.0
789,145.417566525,146.68009351875003,60.0,89.0
790,145.417566525,146.68705342500002,36.0,83.0
791,145.417566525,146.69401333125,67.0,89.0
792,147.087944025,147.18677469375,56.0,103.0
793,147.087944025,147.20487045000002,53.0,90.0
794,146.75386852500003,147.20904639375001,41.0,93.0
795,147.087944025,147.238278,60.0,91.0
796,147.756095025,147.84657380625,56.0,105.0
797,147.756095025,147.85492569375,53.0,92.0
798,147.42201952500002,147.86327758125003,41.0,89.0
799,147.756095025,147.88554928125,60.0,91.0
800,148.09017052500002,148.59267575625,41.0,85.0
801,148.42424602500003,148.7750253,56.0,106.0
802,148.42424602500003,148.78059322500002,53.0,92.0
803,148.42424602500003,148.7833771875,60.0,91.0
804,148.758321525,149.1898357125,41.0,91.0
805,149.09239702500003,149.20514750625003,56.0,105.0
806,149.09239702500003,149.2065394875,53.0,92.0
807,149.09239702500003,149.22741920625,60.0,95.0
808,149.76054802500002,150.14612683125003,56.0,100.0
809,149.76054802500002,150.15447871875003,53.0,89.0
810,149.76054802500002,150.15726268125002,60.0,91.0
811,150.09462352500003,150.46071459375003,48.0,80.0
812,149.426472525,150.51082591875002,41.0,91.0
813,150.42869902500001,150.517785825,56.0,100.0
814,150.42869902500001,150.54144950625002,53.0,89.0
815,150.42869902500001,150.55119337500003,60.0,94.0
816,150.76277452500003,151.22491230000003,41.0,89.0
817,151.096850025,151.22630428125,56.0,96.0
818,151.096850025,151.24440003750001,53.0,89.0
819,151.096850025,151.2694557,60.0,91.0
820,151.43092552500002,151.92368688750003,48.0,90.0
821,151.765001025,151.93343075625,56.0,98.0
822,151.765001025,151.95848641875003,53.0,88.0
823,151.765001025,151.97519019375002,60.0,91.0
824,152.09907652500002,152.73521195625003,41.0,91.0
825,152.43315202500003,152.78532328125002,60.0,90.0
826,152.43315202500003,152.7922831875,56.0,95.0
827,152.43315202500003,152.80898696250003,53.0,90.0
828,152.767227525,153.08320726875002,48.0,87.0
829,153.10130302500002,153.19734973125003,56.0,96.0
830,153.10130302500002,153.20987756250003,53.0,89.0
831,153.10130302500002,153.22240539375002,60.0,90.0
832,153.435378525,154.01165876250002,41.0,90.0
833,153.76945402500002,154.18426443750002,60.0,91.0
834,153.76945402500002,154.1954002875,53.0,90.0
835,153.76945402500002,154.1954002875,56.0,100.0
836,154.10352952500003,154.515555975,48.0,89.0
837,154.437605025,154.61299466250003,56.0,103.0
838,154.437605025,154.62273853125,53.0,91.0
839,154.437605025,154.682593725,60.0,92.0
840,154.77168052500002,155.2922815125,44.0,93.0
841,155.105756025,155.50107870000002,60.0,89.0
842,155.105756025,155.51360653125002,63.0,90.0
843,155.105756025,155.53866219375,56.0,91.0
844,155.43983152500002,155.80592259375,51.0,89.0
845,155.77390702500003,155.9827042125,60.0,90.0
846,155.77390702500003,155.99801600625003,56.0,90.0
847,155.77390702500003,156.00915185625,63.0,90.0
848,156.107982525,156.73159012500003,46.0,93.0
849,156.44205802500002,156.78866135625003,58.0,90.0
850,156.44205802500002,156.79283730000003,61.0,90.0
851,156.44205802500002,156.82485286875,53.0,90.0
852,156.776133525,157.24801516875002,41.0,91.0
853,157.11020902500002,157.28838262500003,58.0,92.0
854,157.11020902500002,157.29673451250002,61.0,91.0
855,157.11020902500002,157.3245741375,53.0,89.0
856,157.44428452500003,158.09155580625003,46.0,103.0
857,157.778360025,158.09712373125,61.0,95.0
858,157.778360025,158.10686760000002,58.0,91.0
859,157.778360025,158.123571375,53.0,90.0
860,158.446511025,158.55090961875,58.0,93.0
861,158.11243552500002,158.55786952500003,41.0,90.0
862,158.446511025,158.56065348750002,53.0,89.0
863,158.446511025,158.57318131875002,61.0,95.0
864,158.78058652500002,159.30397147500003,46.0,91.0
865,159.11466202500003,159.51416064375002,61.0,96.0
866,159.11466202500003,159.52251253125002,58.0,96.0
867,159.11466202500003,159.53364838125003,53.0,90.0
868,159.448737525,159.905307375,46.0,91.0
869,159.78281302500002,159.92340313125,58.0,92.0
870,159.78281302500002,159.9359309625,61.0,92.0
871,159.78281302500002,159.94706681250003,53.0,90.0
872,160.116888525,160.57763431875003,41.0,91.0
873,160.45096402500002,160.84071877500003,60.0,90.0
874,160.45096402500002,160.8462867,56.0,100.0
875,160.45096402500002,160.84767868125002,53.0,90.0
876,160.78503952500003,161.25970513125003,48.0,90.0
877,161.119115025,161.27362494375,56.0,100.0
878,161.119115025,161.29311268125002,53.0,94.0
879,161.119115025,161.29728862500002,60.0,94.0
880,161.45319052500002,161.99188726875002,46.0,96.0
881,161.787266025,162.2020764375,61.0,94.0
882,161.787266025,162.22852408125001,58.0,91.0
883,161.787266025,162.23130804375,53.0,90.0
884,162.12134152500002,162.5862632625,46.0,90.0
885,162.45541702500003,162.633590625,58.0,95.0
886,162.45541702500003,162.63637458750003,61.0,95.0
887,162.45541702500003,162.64472647500003,53.0,91.0
888,162.78949252500001,163.20430293750002,41.0,89.0
889,163.12356802500003,163.26972605625002,56.0,100.0
890,163.12356802500003,163.28225388750002,53.0,89.0
891,163.12356802500003,163.30452558750002,60.0,91.0
892,163.457643525,163.9504048875,48.0,91.0
893,163.79171902500002,164.11187471250003,60.0,91.0
894,163.79171902500002,164.1174426375,56.0,105.0
895,163.79171902500002,164.12161858125,53.0,92.0
896,164.125794525,164.56148465625003,41.0,93.0
897,164.45987002500001,164.8858162875,60.0,92.0
898,164.45987002500001,164.88860025000002,56.0,100.0
899,164.45987002500001,164.89834411875,53.0,90.0
900,164.79394552500003,165.20040405000003,48.0,91.0
901,165.128021025,165.25747528125,56.0,96.0
902,165.128021025,165.2700031125,53.0,91.0
903,165.128021025,165.29366679375002,60.0,91.0
904,165.46209652500002,166.06343242500003,46.0,96.0
905,165.79617202500003,166.25552583750002,58.0,91.0
906,165.79617202500003,166.25552583750002,61.0,91.0
907,165.79617202500003,166.26248574375,53.0,89.0
908,166.13024752500002,166.59795322500003,41.0,92.0
909,166.46432302500003,166.7120956875,58.0,94.0
910,166.46432302500003,166.71627163125,53.0,90.0
911,166.46432302500003,166.75246314375002,61.0,94.0
912,166.798398525,167.45262971250003,48.0,96.0
913,167.13247402500002,167.58347595,60.0,91.0
914,167.13247402500002,167.63219529375002,55.0,90.0
915,167.13247402500002,167.63637123750001,63.0,90.0
916,167.466549525,167.99132645625002,43.0,91.0
917,167.80062502500002,168.00803023125002,60.0,95.0
918,167.80062502500002,168.00942221250003,63.0,93.0
919,167.80062502500002,168.045613725,55.0,91.0
920,168.13470052500003,168.50914348125002,41.0,93.0
921,168.468776025,168.8446109625,60.0,93.0
922,168.468776025,168.86688266250002,53.0,93.0
923,168.468776025,168.869666625,56.0,105.0
924,168.80285152500002,169.19956618125002,48.0,91.0
925,169.13692702500003,169.28030109375,56.0,105.0
926,169.13692702500003,169.29422090625002,53.0,91.0
927,169.13692702500003,169.30953270000003,60.0,93.0
928,169.47100252500002,169.93731624375002,41.0,91.0
929,169.80507802500003,170.16699315000002,60.0,91.0
930,169.80507802500003,170.178129,56.0,93.0
931,169.80507802500003,170.19622475625002,53.0,89.0
932,170.139153525,170.25468796875003,48.0,90.0
933,170.47322902500002,170.562315825,41.0,94.0
934,170.47322902500002,170.6096431875,53.0,95.0
935,170.47322902500002,170.6096431875,56.0,100.0
936,170.47322902500002,170.63469885,60.0,93.0
937,170.807304525,171.36688098750002,41.0,93.0
938,171.14138002500002,171.60212581875,56.0,96.0
939,171.14138002500002,171.61186968750002,60.0,92.0
940,171.14138002500002,171.62161355625003,53.0,87.0
941,171.47545552500003,171.9375933,48.0,93.0
942,171.809531025,171.96821688750003,53.0,90.0
943,171.809531025,172.0461678375,56.0,93.0
944,171.809531025,172.07261548125,60.0,91.0
945,172.14360652500002,172.60992024375003,39.0,73.0
946,172.477682025,172.72823865,55.0,94.0
947,172.477682025,172.79644573125,51.0,92.0
948,172.81175752500002,173.23909576875002,36.0,105.0
949,173.14583302500003,173.37829389375003,48.0,90.0
950,173.14583302500003,173.38107785625002,51.0,89.0
951,173.14583302500003,173.38664578125002,55.0,94.0
952,173.479908525,174.04366093125003,44.0,100.0
953,173.81398402500002,174.15084348750003,60.0,91.0
954,173.81398402500002,174.15223546875,63.0,91.0
955,173.81398402500002,174.17172320625002,56.0,89.0
956,174.48213502500002,174.56843786250002,56.0,89.0
957,174.48213502500002,174.56843786250002,56.0,89.0
958,174.148059525,174.62272513125,51.0,89.0
959,174.48213502500002,174.71320391250003,60.0,89.0
960,174.48213502500002,174.8524020375,63.0,91.0
961,175.150286025,175.5372568125,60.0,90.0
962,175.150286025,175.57205634375003,63.0,89.0
963,175.150286025,175.57344832500002,56.0,91.0
964,174.81621052500003,175.58597615625,44.0,94.0
965,175.48436152500003,175.92979552500003,51.0,85.0
966,175.81843702500004,175.97155496250002,56.0,90.0
967,175.81843702500004,175.97990685000002,60.0,90.0
968,175.81843702500004,175.98129883125003,63.0,90.0
969,176.486588025,176.76359229375004,60.0,89.0
970,176.486588025,176.798391825,56.0,89.0
971,176.15251252500002,176.91531825,44.0,98.0
972,177.15473902500003,177.20345836875003,60.0,74.0
973,177.15473902500003,177.21459421875002,63.0,78.0
974,176.82066352500001,177.38719989375002,51.0,96.0
975,177.15473902500003,177.39137583750002,56.0,98.0
976,177.488814525,178.123557975,46.0,92.0
977,177.82289002500002,178.2098608125,61.0,92.0
978,177.82289002500002,178.22238864375004,58.0,92.0
979,177.82289002500002,178.25579619375003,53.0,91.0
980,178.15696552500003,178.64694292500002,41.0,90.0
981,178.49104102500002,178.64833490625003,53.0,89.0
982,178.49104102500002,178.64972688750004,58.0,95.0
983,178.49104102500002,178.68731038125003,61.0,91.0
984,178.82511652500003,178.96013870625,55.0,90.0
985,178.82511652500003,178.96013870625,60.0,90.0
986,178.82511652500003,179.00885805000001,48.0,94.0
987,179.159192025,179.40557270625,60.0,106.0
988,179.159192025,179.44454818125,55.0,95.0
989,179.159192025,179.45290006875,48.0,105.0
990,179.660305275,179.82316708125,60.0,94.0
991,179.660305275,179.83151896875,55.0,91.0
992,179.660305275,179.94844539375003,48.0,106.0
993,180.16141233750002,180.34196771250004,60.0,90.0
994,180.16141233750002,180.35585658750003,55.0,90.0
995,180.16141233750002,180.357245475,48.0,110.0
996,180.82807833750002,181.0364114625,55.0,90.0
997,180.82807833750002,181.04335590000002,67.0,89.0
998,180.82807833750002,181.04474478750004,60.0,90.0
999,180.82807833750002,181.10307806250003,48.0,105.0
1000,181.49474433750004,182.20585473750003,41.0,94.0
1001,181.82807733750002,182.22946582500003,53.0,91.0
1002,181.82807733750002,182.24752136250004,56.0,103.0
1003,181.82807733750002,182.26002135000002,60.0,90.0
1004,182.49474333750004,182.668354275,53.0,90.0
1005,182.49474333750004,182.66974316250003,56.0,100.0
1006,182.16141033750003,182.67529871250002,48.0,95.0
1007,182.49474333750004,182.71002090000002,60.0,91.0
1008,182.82807633750002,183.42668685000004,41.0,93.0
1009,183.16140933750003,183.63640886250002,53.0,94.0
1010,183.16140933750003,183.66974216250003,56.0,105.0
1011,183.16140933750003,183.66974216250003,60.0,94.0
1012,183.82807533750002,183.90585303750004,53.0,92.0
1013,183.4947423375,184.00446405000002,48.0,105.0
1014,183.82807533750002,184.06696398750003,56.0,105.0
1015,183.82807533750002,184.1002972875,60.0,93.0
1016,183.99474183750002,184.14751946250001,53.0,92.0
1017,184.16140833750003,184.80585213750004,46.0,103.0
1018,184.49474133750002,184.84751876250002,61.0,92.0
1019,184.49474133750002,184.86140763750004,58.0,93.0
1020,184.49474133750002,184.86974096250003,53.0,91.0
1021,184.82807433750003,185.32390717500002,41.0,91.0
1022,185.16140733750004,185.34474048750002,58.0,100.0
1023,185.16140733750004,185.36835157500002,61.0,98.0
1024,185.16140733750004,185.37112935000002,53.0,92.0
1025,185.49474033750002,185.94612877500003,41.0,91.0
1026,185.82807333750003,186.33779505000004,53.0,89.0
1027,185.82807333750003,186.34473948750002,60.0,90.0
1028,185.82807333750003,186.35585058750002,56.0,96.0
1029,186.16140633750004,186.59612812500004,48.0,92.0
1030,186.49473933750002,186.65723917500003,56.0,98.0
1031,186.49473933750002,186.66835027500002,53.0,91.0
1032,186.49473933750002,186.70723912500003,60.0,92.0
1033,187.1614053375,187.67251593750004,56.0,90.0
1034,187.1614053375,187.72807143750003,60.0,88.0
1035,187.82807133750003,187.88918238750003,60.0,82.0
1036,187.49473833750002,187.96140453750002,51.0,76.0
1037,187.1614053375,188.02251558750004,63.0,90.0
1038,186.82807233750003,188.03640446250003,44.0,93.0
1039,187.82807133750003,188.05307111250002,56.0,95.0
1040,188.49473733750003,188.93640356250003,61.0,96.0
1041,188.49473733750003,188.95445910000004,53.0,92.0
1042,188.49473733750003,188.96418131250002,58.0,95.0
1043,188.16140433750002,189.29751431250003,46.0,93.0
1044,189.16140333750002,189.41556975000003,58.0,100.0
1045,189.16140333750002,189.42390307500003,61.0,100.0
1046,189.16140333750002,189.44473638750003,53.0,93.0
1047,189.49473633750003,189.63640286250003,41.0,87.0
1048,189.49473633750003,189.83501377500002,60.0,93.0
1049,189.49473633750003,189.88918038750003,65.0,90.0
1050,190.8280683375,191.12112360000003,65.0,85.0
1051,190.8280683375,191.17667910000003,68.0,93.0
1052,190.8280683375,191.55167872500002,60.0,83.0
1053,190.8280683375,191.59334535000002,53.0,89.0
1054,191.49473433750003,191.64195641250004,65.0,85.0
1055,191.49473433750003,191.68778970000002,68.0,94.0
1056,191.49473433750003,191.73917853750004,72.0,90.0
1057,192.16140033750003,192.34195571250004,53.0,90.0
1058,192.16140033750003,192.35167792500002,46.0,98.0
1059,192.16140033750003,192.35167792500002,58.0,92.0
1060,192.16140033750003,192.36695568750002,61.0,92.0
1061,192.49473333750004,192.98639951250001,53.0,94.0
1062,192.49473333750004,193.29473253750004,58.0,103.0
1063,192.49473333750004,193.30167697500002,61.0,100.0
1064,192.49473333750004,193.33778805000003,46.0,105.0
1065,193.49473233750004,193.67528771250002,55.0,88.0
1066,193.49473233750004,193.67806548750002,58.0,92.0
1067,193.49473233750004,193.68223215000003,61.0,92.0
1068,193.49473233750004,193.70723212500002,43.0,91.0
1069,193.82806533750002,194.66695338750003,58.0,100.0
1070,193.82806533750002,194.66973116250003,55.0,92.0
1071,193.82806533750002,194.67250893750003,61.0,98.0
1072,193.82806533750002,194.70028668750004,43.0,91.0
1073,195.16139733750003,195.41973041250003,48.0,89.0
1074,195.16139733750003,195.42945262500004,63.0,106.0
1075,195.16139733750003,195.44056372500003,60.0,93.0
1076,195.16139733750003,195.44056372500003,67.0,91.0
1077,195.16139733750003,195.44889705000003,36.0,83.0
1078,195.82806333750003,195.97528541250003,48.0,90.0
1079,195.82806333750003,195.99472983750002,60.0,89.0
1080,195.82806333750003,196.00167427500003,63.0,93.0
1081,195.82806333750003,196.01278537500002,36.0,84.0
1082,195.82806333750003,196.01417426250003,67.0,87.0
1083,196.16139633750004,197.41278397500002,48.0,89.0
1084,196.16139633750004,197.41833952500002,63.0,100.0
1085,196.16139633750004,197.42111730000002,60.0,89.0
1086,196.16139633750004,197.42806173750003,36.0,83.0
1087,196.16139633750004,197.435006175,67.0,89.0
1088,197.82806133750003,197.92667235000002,56.0,103.0
1089,197.82806133750003,197.94472788750002,53.0,90.0
1090,197.49472833750002,197.94889455000003,41.0,93.0
1091,197.82806133750003,197.97806118750003,60.0,91.0
1092,198.49472733750002,198.58500502500002,56.0,105.0
1093,198.49472733750002,198.59333835000004,53.0,92.0
1094,198.16139433750004,198.60167167500003,41.0,89.0
1095,198.49472733750002,198.62389387500002,60.0,91.0
1096,198.82806033750003,199.32944872500002,41.0,85.0
1097,199.16139333750002,199.51139298750002,56.0,106.0
1098,199.16139333750002,199.5169485375,53.0,92.0
1099,199.16139333750002,199.51972631250004,60.0,91.0
1100,199.49472633750003,199.92528146250004,41.0,91.0
1101,199.82805933750004,199.94055922500002,56.0,105.0
1102,199.82805933750004,199.94194811250003,53.0,92.0
1103,199.82805933750004,199.96278142500003,60.0,95.0
1104,200.16139233750002,200.57389192500003,41.0,90.0
1105,200.49472533750003,200.63500297500002,56.0,100.0
1106,200.49472533750003,200.64055852500002,53.0,91.0
1107,200.49472533750003,200.66416961250002,60.0,92.0
1108,201.16139133750002,201.26278012500003,56.0,105.0
1109,201.16139133750002,201.27111345000003,53.0,91.0
1110,200.82805833750004,201.27944677500003,41.0,85.0
1111,201.16139133750002,201.33222450000002,60.0,90.0
1112,201.49472433750003,201.90861281250002,41.0,85.0
1113,201.8280573375,201.91555725000003,56.0,98.0
1114,201.8280573375,201.93361278750004,53.0,90.0
1115,201.8280573375,201.97389052500003,60.0,90.0
1116,202.16139033750002,202.59333435000002,41.0,85.0
1117,202.49472333750003,202.59472323750003,56.0,105.0
1118,202.49472333750003,202.61833432500003,53.0,90.0
1119,202.49472333750003,202.66833427500003,60.0,90.0
1120,203.16138933750003,203.26416701250002,56.0,95.0
1121,202.82805633750002,203.28083366250002,41.0,87.0
1122,203.16138933750003,203.28222255000003,53.0,89.0
1123,203.16138933750003,203.30166697500002,60.0,90.0
1124,203.82805533750002,203.91833302500004,56.0,98.0
1125,203.49472233750004,203.92249968750002,41.0,87.0
1126,203.82805533750002,203.95027743750003,53.0,91.0
1127,203.82805533750002,203.97249963750002,60.0,91.0
1128,204.16138833750003,204.57249903750002,41.0,87.0
1129,204.49472133750004,204.61416566250003,56.0,103.0
1130,204.49472133750004,204.64194341250004,53.0,90.0
1131,204.49472133750004,204.6919433625,60.0,90.0
1132,204.82805433750002,205.21694283750003,41.0,89.0
1133,205.16138733750003,205.35166492500002,56.0,103.0
1134,205.16138733750003,205.35999825000002,53.0,92.0
1135,205.16138733750003,205.42249818750003,60.0,91.0
1136,205.56416471250003,206.55444150000002,72.0,79.0
1137,205.43083151250002,206.63360808750002,60.0,85.0
1138,205.48777590000003,206.67944137500004,63.0,86.0
1139,205.52666475000004,206.70027468750004,67.0,79.0
1140,206.88777450000003,207.14471868750002,60.0,78.0
1141,206.96138553750004,207.88916238750002,63.0,81.0
1142,207.05582988750004,207.92666235000002,67.0,87.0
1143,205.50444255000002,207.99888450000003,36.0,91.0
1144,209.58777180000004,210.50027088750002,53.0,83.0
1145,209.82249378750004,210.51138198750002,56.0,89.0
1146,210.07943797500002,210.52110420000002,60.0,84.0
1147,210.38221545000002,210.60443745000003,65.0,77.0
1148,210.78221505000002,211.06415921250002,65.0,78.0
1149,210.77527061250004,211.06832587500003,68.0,85.0
1150,211.25165902500004,211.57665870000002,65.0,89.0
1151,211.24471458750003,211.72249188750004,72.0,90.0
1152,211.79193626250003,211.896102825,65.0,76.0
1153,211.88638061250003,211.94610277500004,72.0,78.0
1154,211.92388057500003,212.04332490000002,77.0,86.0
1155,209.09749451250002,212.75860196250002,41.0,98.0
1156,209.35304981250002,212.76415751250002,48.0,83.0
