,start,end,pitch,velocity
0,1.1846154833333333,1.6461539833333334,67.0,107.0
1,1.1846154833333333,1.6538462916666667,70.0,104.0
2,1.1846154833333333,1.6634616770833333,63.0,99.0
3,1.6461539833333334,2.1596155645833335,58.0,80.0
4,2.1076924833333335,2.3884617375,67.0,120.0
5,2.1076924833333335,2.4846155916666666,63.0,109.0
6,2.1076924833333335,2.4903848229166665,70.0,109.0
7,1.1846154833333333,2.6750002229166667,51.0,106.0
8,2.569230983333333,2.7961540791666666,58.0,99.0
9,2.8000002333333334,2.9576925541666665,62.0,99.0
10,3.030769483333333,3.509615677083333,63.0,104.0
11,3.030769483333333,3.55384645,60.0,94.0
12,3.4923079833333333,4.138461883333333,55.0,74.0
13,3.030769483333333,4.151923422916667,48.0,101.0
14,3.9538464833333333,4.2865388187499995,67.0,113.0
15,3.9538464833333333,4.29230805,63.0,109.0
16,3.9538464833333333,4.3269234375,60.0,104.0
17,4.415384983333333,4.538461916666667,48.0,89.0
18,4.876923483333333,5.40000045,60.0,99.0
19,4.876923483333333,5.517308152083333,56.0,99.0
20,5.3384619833333335,5.773077404166667,51.0,64.0
21,5.800000483333333,5.9865389604166666,60.0,109.0
22,5.800000483333333,6.0115389624999995,63.0,109.0
23,5.800000483333333,6.036538964583333,56.0,109.0
24,4.876923483333333,6.240385135416667,44.0,106.0
25,6.030769733333333,6.2423082125,51.0,78.0
26,6.723077483333333,6.930769808333333,55.0,104.0
27,6.723077483333333,6.96923135,58.0,106.0
28,6.723077483333333,7.740385260416667,43.0,104.0
29,7.184615983333333,7.819231420833333,50.0,81.0
30,7.6461544833333335,7.819231420833333,58.0,112.0
31,7.6461544833333335,7.830769883333334,55.0,113.0
32,7.6461544833333335,7.9038468125,62.0,113.0
33,8.107692983333333,8.205769914583334,43.0,68.0
34,8.569231483333333,8.661539183333334,41.0,101.0
35,8.569231483333333,8.8730776625,56.0,101.0
36,8.569231483333333,8.917308435416667,60.0,104.0
37,9.030769983333334,9.413462322916667,53.0,94.0
38,9.492308483333334,9.711539270833333,53.0,99.0
39,9.492308483333334,9.853846975,60.0,109.0
40,9.492308483333334,9.9346162125,65.0,106.0
41,9.492308483333334,9.967308522916667,68.0,112.0
42,9.953846983333333,10.038462375,53.0,87.0
43,10.415385483333333,11.017308610416666,58.0,112.0
44,10.415385483333333,11.2038470875,55.0,101.0
45,10.876923983333333,11.459616339583333,50.0,99.0
46,11.338462483333334,11.750000979166666,58.0,109.0
47,11.338462483333334,11.755770210416667,62.0,104.0
48,11.338462483333334,11.765385595833333,55.0,107.0
49,10.415385483333333,11.863462527083334,43.0,110.0
50,11.800000983333334,12.023077924999999,50.0,104.0
51,12.261539483333333,12.855770302083334,56.0,101.0
52,12.261539483333333,12.96923185,53.0,96.0
53,12.723077983333333,13.2807703375,48.0,64.0
54,12.261539483333333,13.363462652083333,41.0,106.0
55,13.184616483333333,13.478847277083334,53.0,104.0
56,13.184616483333333,13.49423189375,56.0,109.0
57,13.184616483333333,13.536539589583333,60.0,104.0
58,14.569231983333333,15.863462860416666,53.0,52.0
59,14.107693483333334,15.903847479166666,62.0,104.0
60,14.107693483333334,15.90577055625,58.0,104.0
61,14.107693483333334,15.944232097916666,46.0,106.0
62,15.953847483333334,16.721155239583332,63.0,99.0
63,15.953847483333334,16.75961678125,67.0,101.0
64,16.415385983333334,17.0769245,58.0,80.0
65,16.876924483333333,17.5038476125,63.0,106.0
66,16.876924483333333,17.56730915625,67.0,110.0
67,17.800001483333332,18.30577075625,70.0,106.0
68,17.800001483333332,18.361539991666668,67.0,99.0
69,17.800001483333332,18.376924608333333,63.0,101.0
70,18.72307848333333,19.036540047916667,67.0,107.0
71,18.72307848333333,19.048078510416666,63.0,104.0
72,18.261539983333332,19.163463135416666,58.0,59.0
73,15.953847483333334,19.273078529166668,51.0,99.0
74,19.184616983333335,19.423078541666666,65.0,109.0
75,19.415386233333333,19.588463170833332,67.0,107.0
76,19.646155483333335,20.398078622916668,63.0,101.0
77,20.107693983333334,20.93654020625,55.0,68.0
78,20.569232483333334,20.9538479,60.0,99.0
79,20.569232483333334,20.9538479,67.0,110.0
80,20.569232483333334,20.984617133333334,63.0,106.0
81,19.646155483333335,21.05192483125,48.0,99.0
82,21.492309483333333,21.936540289583334,60.0,89.0
83,21.492309483333333,21.996155679166666,63.0,96.0
84,22.415386483333332,22.888463445833334,67.0,110.0
85,22.415386483333332,22.8923096,63.0,106.0
86,22.415386483333332,22.9038480625,60.0,104.0
87,22.876924983333332,23.007694225,55.0,68.0
88,22.415386483333332,23.038463458333332,48.0,91.0
89,23.33846348333333,23.998078922916665,60.0,99.0
90,23.33846348333333,24.050002004166668,56.0,99.0
91,23.800001983333335,24.619232820833332,51.0,78.0
92,24.261540483333334,24.636540514583334,63.0,109.0
93,24.261540483333334,24.648078977083333,56.0,109.0
94,23.33846348333333,24.725002060416667,44.0,104.0
95,25.184617483333334,25.823079075,62.0,99.0
96,25.184617483333334,25.905771389583332,55.0,93.0
97,25.184617483333334,26.10577140625,43.0,107.0
98,25.646155983333333,26.1115406375,50.0,56.0
99,26.107694483333333,26.2153868,58.0,112.0
100,26.107694483333333,26.228848339583333,62.0,113.0
101,26.107694483333333,26.240386802083332,55.0,110.0
102,27.030771483333332,27.365386895833332,53.0,91.0
103,27.030771483333332,27.417309977083335,63.0,101.0
104,27.030771483333332,27.45192536458333,56.0,99.0
105,27.49230998333333,28.025002335416666,48.0,34.0
106,27.030771483333332,28.178848502083333,41.0,99.0
107,27.953848483333335,28.315386975,53.0,99.0
108,27.953848483333335,28.340386977083334,56.0,106.0
109,27.953848483333335,28.4307716,63.0,109.0
110,28.876925483333334,29.530771691666665,62.0,96.0
111,28.876925483333334,29.580771695833334,58.0,94.0
112,29.338463983333334,29.898079414583332,53.0,55.0
113,28.876925483333334,29.99038711458333,46.0,104.0
114,29.800002483333333,30.24038713541667,62.0,120.0
115,29.800002483333333,30.300002525,58.0,109.0
116,29.800002483333333,30.300002525,65.0,109.0
117,30.261540983333333,30.401925610416665,46.0,104.0
118,30.723079483333333,31.35577184375,62.0,66.0
119,30.723079483333333,31.369233383333334,58.0,96.0
120,30.723079483333333,31.478848777083332,55.0,79.0
121,30.723079483333333,31.73269495208333,43.0,110.0
122,31.184617983333332,31.763464185416666,50.0,91.0
123,31.646156483333332,31.801925727083333,55.0,117.0
124,31.646156483333332,31.803848804166666,58.0,106.0
125,31.646156483333332,31.84038726875,62.0,107.0
126,32.569233483333335,33.275002772916665,60.0,89.0
127,32.569233483333335,33.275002772916665,63.0,99.0
128,33.03077198333333,33.567310489583335,55.0,91.0
129,32.569233483333335,33.66346434375,48.0,91.0
130,33.492310483333334,33.70577203958333,60.0,109.0
131,33.492310483333334,33.74231050416667,67.0,117.0
132,33.492310483333334,33.74423358125,63.0,109.0
133,33.95384898333333,34.07692591666667,48.0,96.0
134,34.41538748333333,35.02115676458333,56.0,99.0
135,34.41538748333333,35.115387541666664,53.0,96.0
136,34.87692598333334,35.46154141666667,48.0,56.0
137,35.33846448333333,35.563464502083335,53.0,106.0
138,35.33846448333333,35.61346450625,56.0,112.0
139,35.33846448333333,35.736541439583334,60.0,106.0
140,34.41538748333333,36.2884645625,41.0,101.0
141,36.26154148333333,36.68654151875,56.0,104.0
142,36.26154148333333,36.80000306666667,60.0,101.0
143,37.18461848333333,37.65384929166667,56.0,109.0
144,37.18461848333333,37.709618527083336,60.0,112.0
145,37.646156983333334,37.76154160833333,53.0,104.0
146,37.18461848333333,37.80961853541667,65.0,106.0
147,38.10769548333333,38.87692631666667,62.0,101.0
148,38.10769548333333,39.16346480208333,58.0,104.0
149,39.03077248333333,39.60192637708333,62.0,107.0
150,39.03077248333333,39.759618697916665,65.0,106.0
151,39.49231098333333,39.798080239583335,58.0,87.0
152,38.56923398333333,40.071157185416666,53.0,94.0
153,39.953849483333336,40.369234133333336,70.0,99.0
154,39.953849483333336,40.47500337291667,65.0,109.0
155,39.953849483333336,40.49423414375,62.0,120.0
156,38.10769548333333,40.51923414583333,46.0,106.0
157,40.876926483333335,41.423080375,70.0,104.0
158,40.876926483333335,41.669234241666665,58.0,109.0
159,40.876926483333335,41.67884962708333,62.0,120.0
160,41.33846498333333,41.68654193541666,53.0,96.0
161,40.876926483333335,41.69231116666667,65.0,109.0
162,41.800003483333334,42.56731123958333,63.0,99.0
163,41.800003483333334,42.605772781249996,67.0,101.0
164,42.26154198333333,42.9230805,58.0,80.0
165,42.723080483333334,43.3500036125,63.0,106.0
166,42.723080483333334,43.41346515625,67.0,110.0
167,43.64615748333333,44.15192675625,70.0,106.0
168,43.64615748333333,44.20769599166667,67.0,99.0
169,43.64615748333333,44.22308060833333,63.0,101.0
170,44.56923448333333,44.88269604791667,67.0,107.0
171,44.56923448333333,44.894234510416666,63.0,104.0
172,44.107695983333336,45.00961913541666,58.0,59.0
173,41.800003483333334,45.11923452916667,51.0,99.0
174,45.030772983333335,45.26923454166667,65.0,109.0
175,45.26154223333333,45.43461917083334,67.0,107.0
176,45.49231148333333,46.244234622916665,63.0,101.0
177,45.953849983333335,46.78269620625,55.0,68.0
178,46.41538848333333,46.8000039,60.0,99.0
179,46.41538848333333,46.8000039,67.0,110.0
180,46.41538848333333,46.83077313333333,63.0,106.0
181,45.49231148333333,46.89808083125,48.0,99.0
182,47.33846548333333,47.782696289583335,60.0,89.0
183,47.33846548333333,47.84231167916666,63.0,96.0
184,48.261542483333336,48.73461944583333,67.0,110.0
185,48.261542483333336,48.7384656,63.0,106.0
186,48.261542483333336,48.7500040625,60.0,104.0
187,48.72308098333333,48.853850225,55.0,68.0
188,48.261542483333336,48.88461945833333,48.0,91.0
189,49.184619483333336,49.84423492291667,60.0,99.0
190,49.184619483333336,49.896158004166665,56.0,99.0
191,49.64615798333333,50.46538882083333,51.0,78.0
192,50.107696483333335,50.48269651458333,63.0,109.0
193,50.107696483333335,50.49423497708333,56.0,109.0
194,49.184619483333336,50.571158060416664,44.0,104.0
195,51.030773483333334,51.669235075,62.0,99.0
196,51.030773483333334,51.75192738958334,55.0,93.0
197,51.030773483333334,51.95192740625,43.0,107.0
198,51.49231198333333,51.9576966375,50.0,56.0
199,51.95385048333333,52.0615428,58.0,112.0
200,51.95385048333333,52.07500433958333,62.0,113.0
201,51.95385048333333,52.086542802083336,55.0,110.0
202,52.87692748333333,53.21154289583333,53.0,91.0
203,52.87692748333333,53.263465977083335,63.0,101.0
204,52.87692748333333,53.29808136458333,56.0,99.0
205,53.338465983333336,53.871158335416666,48.0,34.0
206,52.87692748333333,54.025004502083334,41.0,99.0
207,53.80000448333333,54.161542974999996,53.0,99.0
208,53.80000448333333,54.186542977083334,56.0,106.0
209,53.80000448333333,54.2769276,63.0,109.0
210,54.72308148333333,55.376927691666666,62.0,96.0
211,54.72308148333333,55.426927695833335,58.0,94.0
212,55.184619983333334,55.744235414583336,53.0,55.0
213,54.72308148333333,55.836543114583336,46.0,104.0
214,55.64615848333333,56.08654313541667,62.0,120.0
215,55.64615848333333,56.146158525,58.0,109.0
216,55.64615848333333,56.146158525,65.0,109.0
217,56.107696983333334,56.24808161041667,46.0,104.0
218,56.56923548333333,57.20192784375,62.0,66.0
219,56.56923548333333,57.21538938333333,58.0,96.0
220,56.56923548333333,57.325004777083336,55.0,79.0
221,56.56923548333333,57.578850952083336,43.0,110.0
222,57.03077398333333,57.60962018541667,50.0,91.0
223,57.492312483333336,57.64808172708333,55.0,117.0
224,57.492312483333336,57.65000480416666,58.0,106.0
225,57.492312483333336,57.68654326875,62.0,107.0
226,58.415389483333335,59.121158772916665,60.0,89.0
227,58.415389483333335,59.121158772916665,63.0,99.0
228,58.87692798333333,59.413466489583335,55.0,91.0
229,58.415389483333335,59.50962034375,48.0,91.0
230,59.338466483333335,59.55192803958333,60.0,109.0
231,59.338466483333335,59.58846650416667,67.0,117.0
232,59.338466483333335,59.59038958125,63.0,109.0
233,59.80000498333333,59.92308191666667,48.0,96.0
234,60.261543483333334,60.86731276458333,56.0,99.0
235,60.261543483333334,60.961543541666664,53.0,96.0
236,60.72308198333333,61.30769741666666,48.0,56.0
237,61.18462048333333,61.409620502083335,53.0,106.0
238,61.18462048333333,61.45962050625,56.0,112.0
239,61.18462048333333,61.582697439583335,60.0,106.0
240,60.261543483333334,62.1346205625,41.0,101.0
241,62.10769748333333,62.53269751875,56.0,104.0
242,62.10769748333333,62.64615906666667,60.0,101.0
243,63.03077448333333,63.50000529166667,56.0,109.0
244,63.03077448333333,63.55577452708334,60.0,112.0
245,63.492312983333335,63.60769760833333,53.0,104.0
246,63.03077448333333,63.65577453541667,65.0,106.0
247,63.95385148333333,64.72308231666666,62.0,101.0
248,63.95385148333333,65.00962080208333,58.0,104.0
249,64.87692848333333,65.44808237708334,62.0,107.0
250,64.87692848333333,65.60577469791667,65.0,106.0
251,65.33846698333333,65.64423623958334,58.0,87.0
252,64.41538998333333,65.91731318541666,53.0,94.0
253,65.80000548333334,66.21539013333333,70.0,99.0
254,65.80000548333334,66.32115937291667,65.0,109.0
255,65.80000548333334,66.34039014375,62.0,120.0
256,63.95385148333333,66.36539014583333,46.0,106.0
257,66.72308248333333,67.269236375,70.0,104.0
258,66.72308248333333,67.51539024166667,58.0,109.0
259,66.72308248333333,67.52500562708333,62.0,120.0
260,67.18462098333333,67.53269793541666,53.0,96.0
261,66.72308248333333,67.53846716666666,65.0,109.0
262,67.64615948333334,68.34423646458333,56.0,106.0
263,67.64615948333334,68.36154415833333,60.0,109.0
264,68.10769798333334,68.63462110416667,51.0,80.0
265,67.64615948333334,68.72692880416666,44.0,109.0
266,68.56923648333333,69.21539038333333,56.0,115.0
267,69.03077498333333,69.29615962083334,44.0,106.0
268,68.56923648333333,69.40192886041666,60.0,118.0
269,69.49231348333333,69.88077505416666,58.0,109.0
270,69.49231348333333,69.92115967291667,62.0,117.0
271,70.18462123333333,70.29039047291667,58.0,112.0
272,69.95385198333334,70.37500586458333,53.0,96.0
273,69.49231348333333,70.37692894166666,46.0,112.0
274,70.41539048333334,70.65385204166667,58.0,115.0
275,70.41539048333334,70.69423666041666,62.0,123.0
276,70.41539048333334,70.88462129166666,53.0,112.0
277,70.41539048333334,70.95385206666667,46.0,112.0
278,70.87692898333333,71.00385207083333,58.0,104.0
279,70.87692898333333,71.00577514791667,63.0,104.0
280,71.10769823333334,71.20577516458333,65.0,106.0
281,71.33846748333333,71.84808291041666,63.0,109.0
282,71.33846748333333,71.86731368125,67.0,113.0
283,71.80000598333334,72.346159875,58.0,76.0
284,71.33846748333333,72.44808296041667,51.0,109.0
285,72.26154448333334,72.67115990208333,67.0,120.0
286,72.26154448333334,72.7038522125,63.0,106.0
287,72.26154448333334,72.807698375,70.0,106.0
288,72.72308298333333,72.96346761875,51.0,106.0
289,73.18462148333333,73.5807753625,60.0,101.0
290,73.18462148333333,73.8115446125,63.0,104.0
291,73.18462148333333,73.8807753875,67.0,104.0
292,73.64615998333333,73.92500616041667,60.0,87.0
293,73.18462148333333,74.31346773125,48.0,71.0
294,74.10769848333334,74.39231389166666,60.0,115.0
295,74.10769848333334,74.64039083541667,63.0,115.0
296,74.10769848333334,74.653852375,67.0,120.0
297,74.56923698333333,74.700006225,60.0,91.0
298,75.03077548333333,75.53462167916666,60.0,101.0
299,75.03077548333333,75.63077553333333,56.0,106.0
300,75.49231398333333,76.02116018125,51.0,58.0
301,75.03077548333333,76.03269864375,44.0,106.0
302,75.95385248333334,76.14616019166667,56.0,115.0
303,75.95385248333334,76.14808326875,63.0,112.0
304,75.95385248333334,76.16154480833333,60.0,115.0
305,76.41539098333334,76.53654483958333,44.0,99.0
306,76.87692948333333,77.515391075,58.0,106.0
307,76.87692948333333,77.53269876875,62.0,110.0
308,76.87692948333333,77.92116033958334,43.0,113.0
309,77.80000648333333,77.95192957291667,58.0,112.0
310,77.33846798333333,77.98462188333333,50.0,96.0
311,77.80000648333333,78.21731421041666,67.0,113.0
312,77.80000648333333,78.24808344375,62.0,120.0
313,78.26154498333334,78.35192960625,58.0,118.0
314,78.72308348333333,79.31731430208333,56.0,104.0
315,78.72308348333333,79.43269892708334,53.0,94.0
316,79.18462198333333,79.823083575,48.0,71.0
317,78.72308348333333,79.87116050208333,41.0,104.0
318,79.64616048333333,79.91731435208334,53.0,106.0
319,79.64616048333333,80.1115451375,56.0,115.0
320,79.64616048333333,80.146160525,60.0,109.0
321,80.10769898333334,80.20000668333333,53.0,101.0
322,80.10769898333334,80.23654514791667,41.0,101.0
323,80.56923748333334,81.1269298375,62.0,107.0
324,80.56923748333334,81.17885291875,58.0,106.0
325,80.56923748333334,81.25000677083334,55.0,93.0
326,80.56923748333334,81.60192987708334,43.0,117.0
327,81.03077598333333,81.65385295833333,50.0,81.0
328,81.49231448333333,81.67308372916666,58.0,115.0
329,81.49231448333333,81.69039142291666,55.0,117.0
330,81.49231448333333,81.6923145,62.0,117.0
331,81.95385298333333,82.06923760833334,43.0,104.0
332,82.41539148333334,83.100006925,56.0,106.0
333,82.41539148333334,83.13269923541667,60.0,109.0
334,82.87692998333333,83.41731464375,48.0,69.0
335,83.33846848333333,83.515391575,56.0,109.0
336,82.41539148333334,83.5269300375,41.0,109.0
337,83.33846848333333,83.83654544791666,60.0,115.0
338,83.80000698333333,83.92500699375,56.0,115.0
339,83.33846848333333,84.03654546458333,65.0,109.0
340,84.26154548333334,84.75769937083334,58.0,112.0
341,84.26154548333334,84.93077630833334,62.0,120.0
342,84.95385323333333,85.05962247291667,58.0,109.0
343,85.18462248333333,85.31731480208333,62.0,123.0
344,84.72308398333334,85.4653917375,53.0,99.0
345,84.26154548333334,85.56539174583334,46.0,109.0
346,85.41539173333334,85.67885329375,63.0,115.0
347,85.64616098333333,85.87885331041667,65.0,121.0
348,86.10769948333333,86.65000722083333,63.0,112.0
349,86.10769948333333,86.68077645416666,67.0,117.0
350,86.10769948333333,87.1384688,51.0,109.0
351,86.56923798333334,87.1730841875,58.0,94.0
352,87.03077648333333,87.392314975,67.0,123.0
353,87.03077648333333,87.43654574791667,63.0,115.0
354,87.03077648333333,87.55193037291667,70.0,115.0
355,87.49231498333333,87.59808422291667,51.0,109.0
356,87.95385348333333,88.55000737916667,60.0,96.0
357,87.95385348333333,88.55193045625,63.0,109.0
358,87.95385348333333,89.01539203333333,48.0,104.0
359,88.41539198333334,89.02308434166666,55.0,77.0
360,88.87693048333334,89.1346228125,60.0,109.0
361,88.87693048333334,89.34423821458333,63.0,115.0
362,88.87693048333334,89.3538536,67.0,120.0
363,89.33846898333333,89.45962283958333,60.0,112.0
364,89.80000748333333,90.34231522083333,60.0,104.0
365,89.80000748333333,90.4269306125,56.0,101.0
366,90.26154598333333,90.82500756875,51.0,58.0
367,89.80000748333333,90.900007575,44.0,104.0
368,90.72308448333334,90.93846911666667,56.0,112.0
369,90.72308448333334,90.94808450208333,60.0,115.0
370,90.72308448333334,90.95577681041667,63.0,112.0
371,91.18462298333333,91.31923837916666,44.0,104.0
372,91.64616148333333,92.30385384583333,62.0,117.0
373,91.64616148333333,92.34808461875,67.0,113.0
374,91.64616148333333,92.75000772916667,43.0,101.0
375,92.56923848333334,92.7577000375,58.0,115.0
376,92.10769998333333,92.84423850625,50.0,91.0
377,92.56923848333334,92.97308467083333,67.0,120.0
378,92.56923848333334,92.99808467291666,62.0,120.0
379,93.03077698333334,93.1269308375,58.0,109.0
380,93.49231548333333,94.01346937291666,56.0,101.0
381,93.49231548333333,94.12116168958333,53.0,101.0
382,93.95385398333333,94.57500788125,48.0,67.0
383,94.41539248333333,94.60962326875,53.0,109.0
384,93.49231548333333,94.64423865625,41.0,106.0
385,94.41539248333333,94.71539250833334,56.0,115.0
386,94.41539248333333,94.83270021041666,60.0,112.0
387,94.87693098333334,94.96923868333333,53.0,101.0
388,95.33846948333333,95.87116183541667,62.0,101.0
389,95.33846948333333,95.90385414583334,58.0,112.0
390,95.33846948333333,95.94039261041667,55.0,104.0
391,96.26154648333333,96.39039264791667,58.0,118.0
392,96.26154648333333,96.392315725,55.0,120.0
393,95.33846948333333,96.4038541875,43.0,117.0
394,96.26154648333333,96.44039265208333,62.0,120.0
395,95.80000798333333,96.48654650208333,50.0,93.0
396,96.72308498333334,96.82308499166666,43.0,120.0
397,97.18462348333334,97.7423158375,65.0,109.0
398,97.18462348333334,97.81731584375,60.0,106.0
399,97.64616198333333,98.20000818333334,48.0,56.0
400,98.10770048333333,98.30385434583333,60.0,112.0
401,97.18462348333334,98.32693127083333,41.0,106.0
402,98.10770048333333,98.42885435625,65.0,118.0
403,98.10770048333333,98.63270052708333,68.0,115.0
404,98.56923898333334,98.68654668541667,60.0,112.0
405,99.03077748333334,99.63270061041666,58.0,106.0
406,99.03077748333334,99.64808522708333,65.0,101.0
407,99.03077748333334,99.66539292083333,62.0,113.0
408,99.49231598333333,100.03654679791667,53.0,91.0
409,99.95385448333333,100.1653929625,58.0,115.0
410,99.03077748333334,100.29808528125,46.0,106.0
411,99.95385448333333,100.44808529375,62.0,123.0
412,99.95385448333333,100.45770067916666,65.0,109.0
413,100.41539298333333,100.69423916041667,58.0,104.0
414,100.87693148333334,101.40577768125,68.0,112.0
415,100.87693148333334,101.40962383541667,63.0,112.0
416,101.33846998333333,101.62116231458333,51.0,76.0
417,101.56923923333333,101.89039310625,63.0,109.0
418,101.56923923333333,101.89423926041667,70.0,112.0
419,102.03077773333334,102.28270083125,63.0,109.0
420,101.80000848333333,102.29231621666666,51.0,69.0
421,102.03077773333334,102.46923930833333,68.0,106.0
422,100.87693148333334,102.54423931458334,44.0,101.0
423,102.49231623333333,102.60385470416666,63.0,82.0
424,102.72308548333334,103.4769317,68.0,104.0
425,102.72308548333334,103.47885477708333,63.0,109.0
426,103.18462398333334,103.70770095,51.0,56.0
427,103.64616248333333,103.91154712083333,63.0,118.0
428,102.72308548333334,104.0307779,44.0,106.0
429,103.87693173333334,104.04616251666667,51.0,85.0
430,103.64616248333333,104.09423944375,68.0,115.0
431,104.10770098333333,104.3653933125,63.0,109.0
432,104.33847023333334,104.47308562916666,68.0,96.0
433,104.56923948333333,105.00000875,65.0,106.0
434,104.56923948333333,105.09231645,70.0,112.0
435,105.49231648333333,105.73654727291667,58.0,109.0
436,105.03077798333334,105.82693189583333,53.0,80.0
437,104.56923948333333,106.04039345208334,46.0,106.0
438,105.72308573333333,106.0730857625,65.0,109.0
439,105.95385498333333,106.19039346458334,58.0,96.0
440,106.41539348333333,108.10000900833333,58.0,94.0
441,106.41539348333333,108.10577823958333,62.0,99.0
442,106.41539348333333,108.10962439375,70.0,85.0
443,106.41539348333333,108.11154747083333,46.0,101.0
444,106.41539348333333,108.12308593333333,65.0,99.0
445,108.26154748333333,108.72308598333333,67.0,107.0
446,108.26154748333333,108.73077829166667,70.0,104.0
447,108.26154748333333,108.74039367708333,63.0,99.0
448,108.72308598333333,109.23654756458333,58.0,80.0
449,109.18462448333334,109.4653937375,67.0,120.0
450,109.18462448333334,109.56154759166667,63.0,109.0
451,109.18462448333334,109.56731682291667,70.0,109.0
452,108.26154748333333,109.75193222291666,51.0,106.0
453,109.64616298333333,109.87308607916667,58.0,99.0
454,109.87693223333333,110.03462455416667,62.0,99.0
455,110.10770148333333,110.58654767708333,63.0,104.0
456,110.10770148333333,110.63077845,60.0,94.0
457,110.56923998333333,111.21539388333333,55.0,74.0
458,110.10770148333333,111.22885542291667,48.0,101.0
459,111.03077848333334,111.36347081875,67.0,113.0
460,111.03077848333334,111.36924005,63.0,109.0
461,111.03077848333334,111.4038554375,60.0,104.0
462,111.49231698333334,111.61539391666666,48.0,89.0
463,111.95385548333333,112.47693244999999,60.0,99.0
464,111.95385548333333,112.59424015208333,56.0,99.0
465,112.41539398333333,112.85000940416667,51.0,64.0
466,112.87693248333333,113.06347096041667,60.0,109.0
467,112.87693248333333,113.0884709625,63.0,109.0
468,112.87693248333333,113.11347096458333,56.0,109.0
469,111.95385548333333,113.31731713541667,44.0,106.0
470,113.10770173333333,113.3192402125,51.0,78.0
471,113.80000948333333,114.00770180833334,55.0,104.0
472,113.80000948333333,114.04616335,58.0,106.0
473,113.80000948333333,114.81731726041667,43.0,104.0
474,114.26154798333333,114.89616342083333,50.0,81.0
475,114.72308648333333,114.89616342083333,58.0,112.0
476,114.72308648333333,114.90770188333333,55.0,113.0
477,114.72308648333333,114.9807788125,62.0,113.0
478,115.18462498333334,115.28270191458333,43.0,68.0
479,115.64616348333334,115.73847118333333,41.0,101.0
480,115.64616348333334,115.9500096625,56.0,101.0
481,115.64616348333334,115.99424043541667,60.0,104.0
482,116.10770198333333,116.49039432291667,53.0,94.0
483,116.56924048333333,116.78847127083333,53.0,99.0
484,116.56924048333333,116.930778975,60.0,109.0
485,116.56924048333333,117.0115482125,65.0,106.0
486,116.56924048333333,117.04424052291667,68.0,112.0
487,117.03077898333333,117.115394375,53.0,87.0
488,117.49231748333334,118.09424061041666,58.0,112.0
489,117.49231748333334,118.2807790875,55.0,101.0
490,117.95385598333333,118.53654833958333,50.0,99.0
491,118.41539448333333,118.82693297916667,58.0,109.0
492,118.41539448333333,118.83270221041667,62.0,104.0
493,118.41539448333333,118.84231759583334,55.0,107.0
494,117.49231748333334,118.94039452708333,43.0,110.0
495,118.87693298333333,119.100009925,50.0,104.0
496,119.33847148333334,119.93270230208333,56.0,101.0
497,119.33847148333334,120.04616385,53.0,96.0
498,119.80000998333334,120.3577023375,48.0,64.0
499,119.33847148333334,120.44039465208333,41.0,106.0
500,120.26154848333333,120.55577927708333,53.0,104.0
501,120.26154848333333,120.57116389375,56.0,109.0
502,120.26154848333333,120.61347158958333,60.0,104.0
503,121.64616398333334,122.94039486041666,53.0,52.0
504,121.18462548333333,122.98077947916667,62.0,104.0
505,121.18462548333333,122.98270255625,58.0,104.0
506,121.18462548333333,123.02116409791667,46.0,106.0
507,123.03077948333333,123.79808723958334,63.0,99.0
508,123.03077948333333,123.83654878125,67.0,101.0
509,123.49231798333334,124.1538565,58.0,80.0
510,123.95385648333334,124.5807796125,63.0,106.0
511,123.95385648333334,124.64424115625,67.0,110.0
512,124.87693348333333,125.38270275625,70.0,106.0
513,124.87693348333333,125.43847199166666,67.0,99.0
514,124.87693348333333,125.45385660833334,63.0,101.0
515,125.80001048333334,126.11347204791666,67.0,107.0
516,125.80001048333334,126.12501051041667,63.0,104.0
517,125.33847198333333,126.24039513541666,58.0,59.0
518,123.03077948333333,126.35001052916667,51.0,99.0
519,126.26154898333333,126.50001054166667,65.0,109.0
520,126.49231823333334,126.66539517083334,67.0,107.0
521,126.72308748333333,127.47501062291667,63.0,101.0
522,127.18462598333333,128.01347220625,55.0,68.0
523,127.64616448333334,128.0307799,60.0,99.0
524,127.64616448333334,128.0307799,67.0,110.0
525,127.64616448333334,128.06154913333333,63.0,106.0
526,126.72308748333333,128.12885683125,48.0,99.0
527,128.56924148333334,129.01347228958332,60.0,89.0
528,128.56924148333334,129.07308767916666,63.0,96.0
529,129.49231848333332,129.96539544583334,67.0,110.0
530,129.49231848333332,129.9692416,63.0,106.0
531,129.49231848333332,129.9807800625,60.0,104.0
532,129.95385698333334,130.084626225,55.0,68.0
533,129.49231848333332,130.11539545833332,48.0,91.0
534,130.41539548333333,131.07501092291668,60.0,99.0
535,130.41539548333333,131.12693400416666,56.0,99.0
536,130.87693398333334,131.69616482083333,51.0,78.0
537,131.33847248333333,131.71347251458334,63.0,109.0
538,131.33847248333333,131.72501097708334,56.0,109.0
539,130.41539548333333,131.80193406041667,44.0,104.0
540,132.26154948333334,132.900011075,62.0,99.0
541,132.26154948333334,132.98270338958332,55.0,93.0
542,132.26154948333334,133.18270340625,43.0,107.0
543,132.72308798333333,133.1884726375,50.0,56.0
544,133.18462648333335,133.2923188,58.0,112.0
545,133.18462648333335,133.30578033958332,62.0,113.0
546,133.18462648333335,133.31731880208332,55.0,110.0
547,134.10770348333332,134.44231889583332,53.0,91.0
548,134.10770348333332,134.49424197708333,63.0,101.0
549,134.10770348333332,134.52885736458333,56.0,99.0
550,134.56924198333334,135.10193433541667,48.0,34.0
551,134.10770348333332,135.25578050208333,41.0,99.0
552,135.03078048333333,135.392318975,53.0,99.0
553,135.03078048333333,135.41731897708334,56.0,106.0
554,135.03078048333333,135.50770359999999,63.0,109.0
555,135.95385748333334,136.60770369166667,62.0,96.0
556,135.95385748333334,136.65770369583333,58.0,94.0
557,136.41539598333333,136.97501141458332,53.0,55.0
558,135.95385748333334,137.06731911458334,46.0,104.0
559,136.87693448333334,137.31731913541665,62.0,120.0
560,136.87693448333334,137.376934525,58.0,109.0
561,136.87693448333334,137.376934525,65.0,109.0
562,137.33847298333333,137.47885761041667,46.0,104.0
563,137.80001148333332,138.43270384375,62.0,66.0
564,137.80001148333332,138.44616538333332,58.0,96.0
565,137.80001148333332,138.55578077708333,55.0,79.0
566,137.80001148333332,138.80962695208333,43.0,110.0
567,138.26154998333334,138.84039618541667,50.0,91.0
568,138.72308848333333,138.87885772708333,55.0,117.0
569,138.72308848333333,138.88078080416668,58.0,106.0
570,138.72308848333333,138.91731926875,62.0,107.0
571,139.64616548333333,140.35193477291668,60.0,89.0
572,139.64616548333333,140.35193477291668,63.0,99.0
573,140.10770398333332,140.64424248958332,55.0,91.0
574,139.64616548333333,140.74039634375,48.0,91.0
575,140.56924248333334,140.78270403958334,60.0,109.0
576,140.56924248333334,140.81924250416665,67.0,117.0
577,140.56924248333334,140.82116558125,63.0,109.0
578,141.03078098333333,141.15385791666665,48.0,96.0
579,141.49231948333332,142.09808876458334,56.0,99.0
580,141.49231948333332,142.19231954166668,53.0,96.0
581,141.95385798333334,142.53847341666668,48.0,56.0
582,142.41539648333332,142.64039650208332,53.0,106.0
583,142.41539648333332,142.69039650625,56.0,112.0
584,142.41539648333332,142.81347343958333,60.0,106.0
585,141.49231948333332,143.3653965625,41.0,101.0
586,143.33847348333333,143.76347351875,56.0,104.0
587,143.33847348333333,143.87693506666668,60.0,101.0
588,144.26155048333334,144.73078129166666,56.0,109.0
589,144.26155048333334,144.78655052708334,60.0,112.0
590,144.72308898333333,144.83847360833335,53.0,104.0
591,144.26155048333334,144.88655053541666,65.0,106.0
592,145.18462748333334,145.95385831666667,62.0,101.0
593,145.18462748333334,146.24039680208332,58.0,104.0
594,146.10770448333332,146.67885837708334,62.0,107.0
595,146.10770448333332,146.83655069791666,65.0,106.0
596,146.56924298333334,146.87501223958333,58.0,87.0
597,145.64616598333333,147.14808918541667,53.0,94.0
598,147.03078148333333,147.44616613333332,70.0,99.0
599,147.03078148333333,147.55193537291666,65.0,109.0
600,147.03078148333333,147.57116614375,62.0,120.0
601,145.18462748333334,147.59616614583334,46.0,106.0
602,147.95385848333333,148.500012375,70.0,104.0
603,147.95385848333333,148.74616624166666,58.0,109.0
604,147.95385848333333,148.75578162708334,62.0,120.0
605,148.41539698333332,148.76347393541667,53.0,96.0
606,147.95385848333333,148.76924316666666,65.0,109.0
607,148.87693548333334,149.57501246458332,56.0,106.0
608,148.87693548333334,149.59232015833334,60.0,109.0
609,149.33847398333333,149.86539710416668,51.0,80.0
610,148.87693548333334,149.95770480416667,44.0,109.0
611,149.80001248333332,150.44616638333332,56.0,115.0
612,150.26155098333334,150.52693562083334,44.0,106.0
613,149.80001248333332,150.63270486041665,60.0,118.0
614,150.72308948333333,151.11155105416665,58.0,109.0
615,150.72308948333333,151.15193567291666,62.0,117.0
616,151.41539723333332,151.52116647291666,58.0,112.0
617,151.18462798333334,151.60578186458332,53.0,96.0
618,150.72308948333333,151.60770494166667,46.0,112.0
619,151.64616648333333,151.88462804166667,58.0,115.0
620,151.64616648333333,151.92501266041666,62.0,123.0
621,151.64616648333333,152.11539729166665,53.0,112.0
622,151.64616648333333,152.18462806666668,46.0,112.0
623,152.10770498333332,152.23462807083334,58.0,104.0
624,152.10770498333332,152.23655114791666,63.0,104.0
625,152.33847423333333,152.43655116458334,65.0,106.0
626,152.56924348333334,153.07885891041667,63.0,109.0
627,152.56924348333334,153.09808968125,67.0,113.0
628,153.03078198333333,153.576935875,58.0,76.0
629,152.56924348333334,153.67885896041668,51.0,109.0
630,153.49232048333334,153.90193590208332,67.0,120.0
631,153.49232048333334,153.9346282125,63.0,106.0
632,153.49232048333334,154.038474375,70.0,106.0
633,153.95385898333333,154.19424361875,51.0,106.0
634,154.41539748333332,154.8115513625,60.0,101.0
635,154.41539748333332,155.0423206125,63.0,104.0
636,154.41539748333332,155.1115513875,67.0,104.0
637,154.87693598333334,155.15578216041666,60.0,87.0
638,154.41539748333332,155.54424373125,48.0,71.0
639,155.33847448333333,155.62308989166667,60.0,115.0
640,155.33847448333333,155.87116683541666,63.0,115.0
641,155.33847448333333,155.884628375,67.0,120.0
642,155.80001298333335,155.930782225,60.0,91.0
643,156.26155148333333,156.76539767916665,60.0,101.0
644,156.26155148333333,156.86155153333334,56.0,106.0
645,156.72308998333332,157.25193618125,51.0,58.0
646,156.26155148333333,157.26347464375,44.0,106.0
647,157.18462848333334,157.37693619166666,56.0,115.0
648,157.18462848333334,157.37885926875,63.0,112.0
649,157.18462848333334,157.39232080833332,60.0,115.0
650,157.64616698333333,157.76732083958333,44.0,99.0
651,158.10770548333332,158.746167075,58.0,106.0
652,158.10770548333332,158.76347476875,62.0,110.0
653,158.10770548333332,159.15193633958333,43.0,113.0
654,159.03078248333333,159.18270557291666,58.0,112.0
655,158.56924398333334,159.21539788333334,50.0,96.0
656,159.03078248333333,159.44809021041667,67.0,113.0
657,159.03078248333333,159.47885944375,62.0,120.0
658,159.49232098333334,159.58270560625,58.0,118.0
659,159.95385948333333,160.54809030208332,56.0,104.0
660,159.95385948333333,160.66347492708334,53.0,94.0
661,160.41539798333332,161.053859575,48.0,71.0
662,159.95385948333333,161.10193650208333,41.0,104.0
663,160.87693648333334,161.14809035208333,53.0,106.0
664,160.87693648333334,161.3423211375,56.0,115.0
665,160.87693648333334,161.376936525,60.0,109.0
666,161.33847498333333,161.43078268333332,53.0,101.0
667,161.33847498333333,161.46732114791666,41.0,101.0
668,161.80001348333334,162.3577058375,62.0,107.0
669,161.80001348333334,162.40962891875,58.0,106.0
670,161.80001348333334,162.48078277083334,55.0,93.0
671,161.80001348333334,162.83270587708333,43.0,117.0
672,162.26155198333333,162.88462895833334,50.0,81.0
673,162.72309048333332,162.90385972916667,58.0,115.0
674,162.72309048333332,162.92116742291665,55.0,117.0
675,162.72309048333332,162.9230905,62.0,117.0
676,163.18462898333334,163.30001360833333,43.0,104.0
677,163.64616748333333,164.330782925,56.0,106.0
678,163.64616748333333,164.36347523541667,60.0,109.0
679,164.10770598333335,164.64809064375,48.0,69.0
680,164.56924448333334,164.746167575,56.0,109.0
681,163.64616748333333,164.7577060375,41.0,109.0
682,164.56924448333334,165.06732144791667,60.0,115.0
683,165.03078298333332,165.15578299375,56.0,115.0
684,164.56924448333334,165.26732146458332,65.0,109.0
685,165.49232148333334,165.98847537083333,58.0,112.0
686,165.49232148333334,166.16155230833334,62.0,120.0
687,166.18462923333334,166.29039847291668,58.0,109.0
688,166.41539848333332,166.54809080208332,62.0,123.0
689,165.95385998333333,166.6961677375,53.0,99.0
690,165.49232148333334,166.79616774583334,46.0,109.0
691,166.64616773333333,166.90962929375,63.0,115.0
692,166.87693698333334,167.10962931041666,65.0,121.0
693,167.33847548333333,167.88078322083334,63.0,112.0
694,167.33847548333333,167.91155245416667,67.0,117.0
695,167.33847548333333,168.3692448,51.0,109.0
696,167.80001398333334,168.4038601875,58.0,94.0
697,168.26155248333333,168.623090975,67.0,123.0
698,168.26155248333333,168.66732174791667,63.0,115.0
699,168.26155248333333,168.78270637291666,70.0,115.0
700,168.72309098333332,168.82886022291666,51.0,109.0
701,169.18462948333334,169.78078337916668,60.0,96.0
702,169.18462948333334,169.78270645625,63.0,109.0
703,169.18462948333334,170.24616803333333,48.0,104.0
704,169.64616798333333,170.25386034166667,55.0,77.0
705,170.10770648333335,170.3653988125,60.0,109.0
706,170.10770648333335,170.57501421458332,63.0,115.0
707,170.10770648333335,170.5846296,67.0,120.0
708,170.56924498333333,170.69039883958334,60.0,112.0
709,171.03078348333332,171.57309122083333,60.0,104.0
710,171.03078348333332,171.6577066125,56.0,101.0
711,171.49232198333334,172.05578356875,51.0,58.0
712,171.03078348333332,172.130783575,44.0,104.0
713,171.95386048333333,172.16924511666667,56.0,112.0
714,171.95386048333333,172.17886050208332,60.0,115.0
715,171.95386048333333,172.18655281041666,63.0,112.0
716,172.41539898333332,172.55001437916667,44.0,104.0
717,172.87693748333334,173.53462984583334,62.0,117.0
718,172.87693748333334,173.57886061874999,67.0,113.0
719,172.87693748333334,173.98078372916666,43.0,101.0
720,173.80001448333334,173.9884760375,58.0,115.0
721,173.33847598333332,174.07501450625,50.0,91.0
722,173.80001448333334,174.20386067083334,67.0,120.0
723,173.80001448333334,174.22886067291665,62.0,120.0
724,174.26155298333333,174.3577068375,58.0,109.0
725,174.72309148333332,175.24424537291665,56.0,101.0
726,174.72309148333332,175.35193768958334,53.0,101.0
727,175.18462998333334,175.80578388125,48.0,67.0
728,175.64616848333333,175.84039926875,53.0,109.0
729,174.72309148333332,175.87501465625,41.0,106.0
730,175.64616848333333,175.94616850833333,56.0,115.0
731,175.64616848333333,176.06347621041667,60.0,112.0
732,176.10770698333334,176.20001468333334,53.0,101.0
733,176.56924548333333,177.10193783541666,62.0,101.0
734,176.56924548333333,177.13463014583334,58.0,112.0
735,176.56924548333333,177.17116861041666,55.0,104.0
736,177.49232248333334,177.62116864791668,58.0,118.0
737,177.49232248333334,177.623091725,55.0,120.0
738,176.56924548333333,177.6346301875,43.0,117.0
739,177.49232248333334,177.67116865208334,62.0,120.0
740,177.03078398333332,177.71732250208333,50.0,93.0
741,177.95386098333333,178.05386099166665,43.0,120.0
742,178.41539948333335,178.9730918375,65.0,109.0
743,178.41539948333335,179.04809184375,60.0,106.0
744,178.87693798333333,179.43078418333334,48.0,56.0
745,179.33847648333332,179.53463034583334,60.0,112.0
746,178.41539948333335,179.55770727083333,41.0,106.0
747,179.33847648333332,179.65963035625,65.0,118.0
748,179.33847648333332,179.86347652708332,68.0,115.0
749,179.80001498333334,179.91732268541668,60.0,112.0
750,180.26155348333333,180.86347661041665,58.0,106.0
751,180.26155348333333,180.87886122708332,65.0,101.0
752,180.26155348333333,180.89616892083333,62.0,113.0
753,180.72309198333332,181.26732279791668,53.0,91.0
754,181.18463048333334,181.39616896249998,58.0,115.0
755,180.26155348333333,181.52886128125,46.0,106.0
756,181.18463048333334,181.67886129375,62.0,123.0
757,181.18463048333334,181.68847667916666,65.0,109.0
758,181.64616898333333,181.92501516041668,58.0,104.0
759,182.10770748333334,182.63655368125,68.0,112.0
760,182.10770748333334,182.64039983541667,63.0,112.0
761,182.56924598333333,182.85193831458332,51.0,76.0
762,182.80001523333334,183.12116910625,63.0,109.0
763,182.80001523333334,183.12501526041666,70.0,112.0
764,183.26155373333333,183.51347683125,63.0,109.0
765,183.03078448333332,183.52309221666667,51.0,69.0
766,183.26155373333333,183.70001530833332,68.0,106.0
767,182.10770748333334,183.77501531458333,44.0,101.0
768,183.72309223333332,183.83463070416667,63.0,82.0
769,183.95386148333333,184.7077077,68.0,104.0
770,183.95386148333333,184.70963077708333,63.0,109.0
771,184.41539998333334,184.93847695,51.0,56.0
772,184.87693848333333,185.14232312083334,63.0,118.0
773,183.95386148333333,185.2615539,44.0,106.0
774,185.10770773333334,185.27693851666666,51.0,85.0
775,184.87693848333333,185.32501544375,68.0,115.0
776,185.33847698333332,185.5961693125,63.0,109.0
777,185.56924623333333,185.70386162916665,68.0,96.0
778,185.80001548333334,186.23078475,65.0,106.0
779,185.80001548333334,186.32309245,70.0,112.0
780,186.72309248333335,186.96732327291667,58.0,109.0
781,186.26155398333333,187.05770789583335,53.0,80.0
782,185.80001548333334,187.27116945208334,46.0,106.0
783,186.95386173333333,187.3038617625,65.0,109.0
784,187.18463098333334,187.42116946458333,58.0,96.0
785,187.64616948333332,189.33078500833332,58.0,94.0
786,187.64616948333332,189.33655423958334,62.0,99.0
787,187.64616948333332,189.34040039375,70.0,85.0
788,187.64616948333332,189.34232347083332,46.0,101.0
789,187.64616948333332,189.35386193333332,65.0,99.0
790,189.49232348333334,189.95386198333333,67.0,107.0
791,189.49232348333334,189.96155429166666,70.0,104.0
792,189.49232348333334,189.97116967708334,63.0,99.0
793,189.95386198333333,190.46732356458332,58.0,80.0
794,190.41540048333334,190.69616973749999,67.0,120.0
795,190.41540048333334,190.79232359166667,63.0,109.0
796,190.41540048333334,190.79809282291666,70.0,109.0
797,189.49232348333334,190.98270822291667,51.0,106.0
798,190.87693898333333,191.10386207916667,58.0,99.0
799,191.10770823333334,191.26540055416666,62.0,99.0
800,191.33847748333332,191.81732367708332,63.0,104.0
801,191.33847748333332,191.86155445,60.0,94.0
802,191.80001598333334,192.44616988333334,55.0,74.0
803,191.33847748333332,192.45963142291666,48.0,101.0
804,192.26155448333333,192.59424681875,67.0,113.0
805,192.26155448333333,192.60001605,63.0,109.0
806,192.26155448333333,192.6346314375,60.0,104.0
807,192.72309298333334,192.84616991666667,48.0,89.0
808,193.18463148333333,193.70770845,60.0,99.0
809,193.18463148333333,193.82501615208332,56.0,99.0
810,193.64616998333332,194.08078540416668,51.0,64.0
811,194.10770848333334,194.29424696041667,60.0,109.0
812,194.10770848333334,194.3192469625,63.0,109.0
813,194.10770848333334,194.34424696458333,56.0,109.0
814,193.18463148333333,194.54809313541668,44.0,106.0
815,194.33847773333332,194.5500162125,51.0,78.0
816,195.03078548333332,195.23847780833333,55.0,104.0
817,195.03078548333332,195.27693935,58.0,106.0
818,195.03078548333332,196.04809326041666,43.0,104.0
819,195.49232398333334,196.12693942083334,50.0,81.0
820,195.95386248333332,196.12693942083334,58.0,112.0
821,195.95386248333332,196.13847788333334,55.0,113.0
822,195.95386248333332,196.2115548125,62.0,113.0
823,196.41540098333334,196.51347791458332,43.0,68.0
824,196.87693948333333,196.96924718333332,41.0,101.0
825,196.87693948333333,197.1807856625,56.0,101.0
826,196.87693948333333,197.22501643541668,60.0,104.0
827,197.33847798333332,197.72117032291666,53.0,94.0
828,197.80001648333334,198.01924727083332,53.0,99.0
829,197.80001648333334,198.161554975,60.0,109.0
830,197.80001648333334,198.2423242125,65.0,106.0
831,197.80001648333334,198.27501652291667,68.0,112.0
832,198.26155498333333,198.34617037499999,53.0,87.0
833,198.72309348333334,199.32501661041667,58.0,112.0
834,198.72309348333334,199.5115550875,55.0,101.0
835,199.18463198333333,199.76732433958333,50.0,99.0
836,199.64617048333332,200.05770897916668,58.0,109.0
837,199.64617048333332,200.06347821041666,62.0,104.0
838,199.64617048333332,200.07309359583334,55.0,107.0
839,198.72309348333334,200.17117052708332,43.0,110.0
840,200.10770898333334,200.330785925,50.0,104.0
841,200.56924748333333,201.16347830208332,56.0,101.0
842,200.56924748333333,201.27693985,53.0,96.0
843,201.03078598333335,201.5884783375,48.0,64.0
844,200.56924748333333,201.67117065208333,41.0,106.0
845,201.49232448333333,201.78655527708332,53.0,104.0
846,201.49232448333333,201.80193989375,56.0,109.0
847,201.49232448333333,201.84424758958332,60.0,104.0
848,202.41540148333334,202.80770920833334,58.0,101.0
849,202.41540148333334,202.82117074791665,62.0,107.0
850,202.41540148333334,202.84040151874999,65.0,99.0
851,202.87693998333333,203.39232464166668,53.0,91.0
852,203.33847848333332,203.59232465833333,62.0,120.0
853,203.33847848333332,203.5961708125,65.0,115.0
854,203.33847848333332,203.60001696666666,70.0,101.0
855,203.33847848333332,203.607709275,58.0,115.0
856,203.56924773333333,203.9192477625,53.0,99.0
857,203.80001698333334,203.99424776875,58.0,115.0
858,202.41540148333334,204.00578623125,46.0,109.0
859,203.80001698333334,204.25770932916666,62.0,120.0
860,203.80001698333334,204.32886318125,65.0,109.0
861,204.03078623333334,204.50963242708335,53.0,101.0
862,204.26155548333332,204.77117091041666,63.0,109.0
863,204.26155548333332,204.79040168125,67.0,113.0
864,204.72309398333334,205.269247875,58.0,76.0
865,204.26155548333332,205.37117096041666,51.0,109.0
866,205.18463248333333,205.59424790208334,67.0,120.0
867,205.18463248333333,205.6269402125,63.0,106.0
868,205.18463248333333,205.730786375,70.0,106.0
869,205.64617098333332,205.88655561875,51.0,106.0
870,206.10770948333334,206.5038633625,60.0,101.0
871,206.10770948333334,206.7346326125,63.0,104.0
872,206.10770948333334,206.8038633875,67.0,104.0
873,206.56924798333333,206.84809416041668,60.0,87.0
874,206.10770948333334,207.23655573125,48.0,71.0
875,207.03078648333334,207.31540189166665,60.0,115.0
876,207.03078648333334,207.56347883541667,63.0,115.0
877,207.03078648333334,207.576940375,67.0,120.0
878,207.49232498333333,207.623094225,60.0,91.0
879,207.95386348333332,208.45770967916667,60.0,101.0
880,207.95386348333332,208.55386353333333,56.0,106.0
881,208.41540198333334,208.94424818125,51.0,58.0
882,207.95386348333332,208.95578664375,44.0,106.0
883,208.87694048333333,209.06924819166667,56.0,115.0
884,208.87694048333333,209.07117126875,63.0,112.0
885,208.87694048333333,209.08463280833334,60.0,115.0
886,209.33847898333335,209.45963283958332,44.0,99.0
887,209.80001748333333,210.438479075,58.0,106.0
888,209.80001748333333,210.45578676875,62.0,110.0
889,209.80001748333333,210.84424833958334,43.0,113.0
890,210.72309448333334,210.87501757291668,58.0,112.0
891,210.26155598333332,210.90770988333333,50.0,96.0
892,210.72309448333334,211.14040221041665,67.0,113.0
893,210.72309448333334,211.17117144375,62.0,120.0
894,211.18463298333333,211.27501760625,58.0,118.0
895,211.64617148333332,212.24040230208334,56.0,104.0
896,211.64617148333332,212.35578692708333,53.0,94.0
897,212.10770998333334,212.746171575,48.0,71.0
898,211.64617148333332,212.79424850208332,41.0,104.0
899,212.56924848333333,212.84040235208334,53.0,106.0
900,212.56924848333333,213.0346331375,56.0,115.0
901,212.56924848333333,213.069248525,60.0,109.0
902,213.03078698333334,213.12309468333333,53.0,101.0
903,213.03078698333334,213.15963314791668,41.0,101.0
904,213.49232548333333,214.0500178375,62.0,107.0
905,213.49232548333333,214.10194091875,58.0,106.0
906,213.49232548333333,214.17309477083333,55.0,93.0
907,213.49232548333333,214.52501787708334,43.0,117.0
908,213.95386398333332,214.57694095833332,50.0,81.0
909,214.41540248333334,214.59617172916666,58.0,115.0
910,214.41540248333334,214.61347942291667,55.0,117.0
911,214.41540248333334,214.6154025,62.0,117.0
912,214.87694098333333,214.99232560833335,43.0,104.0
913,215.33847948333334,216.023094925,56.0,106.0
914,215.33847948333334,216.05578723541666,60.0,109.0
915,215.80001798333333,216.34040264375,48.0,69.0
916,216.26155648333332,216.438479575,56.0,109.0
917,215.33847948333334,216.4500180375,41.0,109.0
918,216.26155648333332,216.75963344791666,60.0,115.0
919,216.72309498333334,216.84809499375,56.0,115.0
920,216.26155648333332,216.95963346458333,65.0,109.0
921,217.18463348333333,217.68078737083334,58.0,112.0
922,217.18463348333333,217.85386430833333,62.0,120.0
923,217.87694123333333,217.98271047291666,58.0,109.0
924,218.10771048333334,218.24040280208334,62.0,123.0
925,217.64617198333335,218.3884797375,53.0,99.0
926,217.18463348333333,218.48847974583333,46.0,109.0
927,218.33847973333334,218.60194129375,63.0,115.0
928,218.56924898333332,218.80194131041665,65.0,121.0
929,219.03078748333334,219.57309522083332,63.0,112.0
930,219.03078748333334,219.60386445416665,67.0,117.0
931,219.03078748333334,220.0615568,51.0,109.0
932,219.49232598333333,220.0961721875,58.0,94.0
933,219.95386448333332,220.315402975,67.0,123.0
934,219.95386448333332,220.35963374791666,63.0,115.0
935,219.95386448333332,220.47501837291668,70.0,115.0
936,220.41540298333334,220.52117222291668,51.0,109.0
937,220.87694148333333,221.47309537916666,60.0,96.0
938,220.87694148333333,221.47501845625,63.0,109.0
939,220.87694148333333,221.93848003333332,48.0,104.0
940,221.33847998333334,221.94617234166665,55.0,77.0
941,221.80001848333333,222.0577108125,60.0,109.0
942,221.80001848333333,222.26732621458333,63.0,115.0
943,221.80001848333333,222.2769416,67.0,120.0
944,222.26155698333332,222.38271083958332,60.0,112.0
945,222.72309548333334,223.26540322083332,60.0,104.0
946,222.72309548333334,223.3500186125,56.0,101.0
947,223.18463398333333,223.74809556875,51.0,58.0
948,222.72309548333334,223.823095575,44.0,104.0
949,223.64617248333334,223.86155711666666,56.0,112.0
950,223.64617248333334,223.87117250208334,60.0,115.0
951,223.64617248333334,223.87886481041667,63.0,112.0
952,224.10771098333333,224.24232637916666,44.0,104.0
953,224.56924948333332,225.22694184583332,62.0,117.0
954,224.56924948333332,225.27117261875,67.0,113.0
955,224.56924948333332,225.67309572916668,43.0,101.0
956,225.49232648333333,225.6807880375,58.0,115.0
957,225.03078798333334,225.76732650625,50.0,91.0
958,225.49232648333333,225.89617267083332,67.0,120.0
959,225.49232648333333,225.92117267291667,62.0,120.0
960,225.95386498333332,226.0500188375,58.0,109.0
961,226.41540348333334,226.93655737291667,56.0,101.0
962,226.41540348333334,227.04424968958332,53.0,101.0
963,226.87694198333332,227.49809588125,48.0,67.0
964,227.33848048333334,227.53271126875,53.0,109.0
965,226.41540348333334,227.56732665625,41.0,106.0
966,227.33848048333334,227.63848050833334,56.0,115.0
967,227.33848048333334,227.75578821041665,60.0,112.0
968,227.80001898333333,227.89232668333332,53.0,101.0
969,228.26155748333332,228.79424983541668,62.0,101.0
970,228.26155748333332,228.82694214583333,58.0,112.0
971,228.26155748333332,228.86348061041667,55.0,104.0
972,229.18463448333333,229.31348064791666,58.0,118.0
973,229.18463448333333,229.315403725,55.0,120.0
974,228.26155748333332,229.3269421875,43.0,117.0
975,229.18463448333333,229.36348065208333,62.0,120.0
976,228.72309598333334,229.40963450208332,50.0,93.0
977,229.64617298333334,229.74617299166667,43.0,120.0
978,230.10771148333333,230.6654038375,65.0,109.0
979,230.10771148333333,230.74040384375,60.0,106.0
980,230.56924998333332,231.12309618333333,48.0,56.0
981,231.03078848333334,231.22694234583332,60.0,112.0
982,230.10771148333333,231.25001927083332,41.0,106.0
983,231.03078848333334,231.35194235625,65.0,118.0
984,231.03078848333334,231.55578852708334,68.0,115.0
985,231.49232698333333,231.60963468541667,60.0,112.0
986,231.95386548333335,232.55578861041667,58.0,106.0
987,231.95386548333335,232.57117322708334,65.0,101.0
988,231.95386548333335,232.58848092083332,62.0,113.0
989,232.41540398333333,232.95963479791666,53.0,91.0
990,232.87694248333332,233.0884809625,58.0,115.0
991,231.95386548333335,233.22117328125,46.0,106.0
992,232.87694248333332,233.37117329375,62.0,123.0
993,232.87694248333332,233.38078867916667,65.0,109.0
994,233.33848098333334,233.61732716041666,58.0,104.0
995,233.80001948333333,234.32886568125,68.0,112.0
996,233.80001948333333,234.33271183541666,63.0,112.0
997,234.26155798333332,234.54425031458334,51.0,76.0
998,234.49232723333333,234.81348110625,63.0,109.0
999,234.49232723333333,234.81732726041668,70.0,112.0
1000,234.95386573333334,235.20578883125,63.0,109.0
1001,234.72309648333334,235.21540421666666,51.0,69.0
1002,234.95386573333334,235.39232730833334,68.0,106.0
1003,233.80001948333333,235.46732731458334,44.0,101.0
1004,235.41540423333333,235.52694270416666,63.0,82.0
1005,235.64617348333334,237.22694284583332,46.0,101.0
1006,235.64617348333334,237.29617362083334,62.0,86.0
1007,235.64617348333334,237.30194285208333,58.0,96.0
1008,235.64617348333334,237.30386592916668,65.0,87.0
1009,237.49232748333333,238.084635225,67.0,93.0
1010,237.49232748333333,238.31925062916667,63.0,99.0
1011,237.95386598333334,238.56925065,58.0,69.0
1012,238.41540448333333,238.95194298958333,65.0,94.0
1013,239.33848148333334,240.01348153958332,63.0,99.0
1014,239.33848148333334,240.06348154375,70.0,104.0
1015,238.87694298333332,240.3807892625,58.0,43.0
1016,237.49232748333333,240.44232772916666,51.0,106.0
1017,240.26155848333335,240.45386619166666,67.0,88.0
1018,240.26155848333335,240.47886619375,63.0,99.0
1019,241.18463548333332,241.80194322708334,60.0,85.0
1020,241.64617398333334,242.16732787291667,55.0,50.0
1021,241.18463548333332,242.25578941875,63.0,96.0
1022,242.10771248333333,242.78271253958334,60.0,61.0
1023,242.56925098333332,243.02117409791666,55.0,8.0
1024,243.03078948333334,243.50963567708334,60.0,104.0
1025,243.03078948333334,243.68848184583334,67.0,99.0
1026,243.49232798333333,243.80002031666666,55.0,3.0
1027,241.18463548333332,243.99809725625,48.0,80.0
1028,243.95386648333334,244.04232802916667,63.0,101.0
1029,243.95386648333334,244.07694341666667,60.0,101.0
1030,244.87694348333332,245.39809737291665,53.0,87.0
1031,244.87694348333332,245.39809737291665,60.0,96.0
1032,245.33848198333334,245.8500204875,48.0,13.0
1033,245.80002048333333,246.29232821666668,56.0,89.0
1034,246.26155898333334,246.50194361875,48.0,12.0
1035,244.87694348333332,246.52886669791667,41.0,96.0
1036,246.72309748333333,247.25578983541666,56.0,96.0
1037,246.72309748333333,247.29809753125,60.0,101.0
1038,248.6423284125,251.02939637291666,41.0,96.0
1039,247.65963602291666,251.91710556458335,56.0,104.0
1040,247.66732833125,251.98145129791666,53.0,101.0
1041,252.03172140208335,252.18052091041667,53.0,59.0
1042,252.17247769375,252.27100709791668,55.0,104.0
1043,252.40170936875,252.52839003125,58.0,106.0
1044,252.63496265208335,252.79514420208332,63.0,99.0
1045,252.79514420208332,252.98258174375,51.0,66.0
1046,252.854227775,253.14964563958333,65.0,89.0
1047,253.10482361875,253.46747451458333,67.0,83.0
1048,253.41042830625,253.73521460625,70.0,99.0
1049,253.73521460625,254.07794373958333,75.0,80.0
1050,254.07794373958333,254.47022407291666,77.0,87.0
1051,254.47022407291666,254.75012592291668,79.0,78.0
1052,254.75012592291668,255.08285594791667,82.0,85.0
1053,255.08285594791667,255.3339729479167,87.0,100.0
1054,251.65861759791667,255.40303012291668,46.0,71.0
1055,251.43829092291668,255.65205448125002,39.0,101.0
1056,255.3339729479167,257.38406468125004,91.0,100.0
1057,257.38406468125004,259.44386682708335,94.0,94.0
1058,257.43568888125003,259.4748450354167,99.0,111.0
1059,257.50882316458336,259.48590868125,106.0,96.0
1060,257.4765580395834,259.4947595979167,103.0,101.0
