,start,end,pitch,velocity
0,28.730585439583333,29.026359589583333,66.0,115.0
1,29.153119939583334,30.19537170625,73.0,112.0
2,30.420723439583334,30.542202108333335,71.0,112.0
3,30.631990689583333,30.742905995833333,69.0,120.0
4,30.84325793958333,31.12494760625,68.0,109.0
5,31.265792439583333,31.56332715,69.0,120.0
6,31.688326939583334,32.031636220833335,68.0,115.0
7,32.111465089583334,32.436464764583334,64.0,115.0
8,32.54003608958333,35.198962002083334,66.0,112.0
9,35.54003308958333,35.83110422708334,66.0,112.0
10,35.96860408958334,36.938245977083334,69.0,120.0
11,37.25431708958334,37.381102677083334,66.0,112.0
12,37.468602589583334,37.568602489583334,69.0,117.0
13,37.68288808958334,37.97753065208334,71.0,109.0
14,38.111459089583335,38.35253027708333,71.0,109.0
15,38.54003008958333,38.70074421458334,73.0,112.0
16,38.754315589583335,38.91671481875,74.0,113.0
17,38.96777107083334,39.14910879375,73.0,109.0
18,39.179038320833335,39.27234802291667,71.0,106.0
19,39.390305570833334,41.962484339583334,73.0,115.0
20,42.34804707083333,42.47832854166667,73.0,109.0
21,42.55931432083334,42.67022962708334,76.0,112.0
22,42.770581570833336,43.844523425,78.0,112.0
23,44.038185070833336,44.164945420833334,76.0,118.0
24,44.249452320833335,44.37269155,73.0,112.0
25,44.460719570833334,45.576914875,71.0,101.0
26,45.72832307083333,45.840998937500004,69.0,117.0
27,45.93959032083333,46.02761834166667,71.0,106.0
28,46.15085757083334,47.15261644791667,73.0,112.0
29,47.41846107083333,47.51177077291667,71.0,106.0
30,47.62972832083334,47.738883066666666,73.0,106.0
31,47.840995570833336,49.16141588333333,66.0,109.0
32,49.53372423541667,49.790866835416665,68.0,109.0
33,49.96229523541667,50.23729496041667,66.0,109.0
34,50.39086623541667,50.631937422916664,64.0,115.0
35,50.819437235416665,51.45872231041667,68.0,112.0
36,51.67657923541667,51.80693624791667,64.0,112.0
37,51.89086473541667,52.00336462291667,61.0,109.0
38,52.105150235416666,52.41943563541667,69.0,117.0
39,52.533721235416664,52.81229238541667,68.0,106.0
40,52.96229223541667,55.61407529791667,66.0,112.0
41,55.96228923541667,56.26228893541667,66.0,115.0
42,56.39086023541667,57.448002035416664,73.0,112.0
43,57.67657323541667,57.79978739791667,71.0,112.0
44,57.89085873541667,58.003358622916664,69.0,120.0
45,58.10514423541667,58.39085823541667,68.0,109.0
46,58.533715235416665,58.83550064791667,69.0,120.0
47,58.96228623541667,59.31050017291667,68.0,115.0
48,59.39085723541667,59.71585691041667,64.0,115.0
49,59.819428235416666,62.45518907916667,66.0,112.0
50,62.791456118750006,63.07842746666667,66.0,112.0
51,63.21399061875,64.169974925,69.0,120.0
52,64.48159411875001,64.60659390833334,66.0,112.0
53,64.69286136875,64.79145275208333,69.0,117.0
54,64.90412861875001,65.19462108750001,71.0,109.0
55,65.32666311875,65.56433877500001,71.0,109.0
56,65.74919761875,65.90764805625,73.0,112.0
57,65.96046486875001,66.12067586666667,74.0,113.0
58,66.17173211875,66.35306984166667,73.0,109.0
59,66.38299936875,66.47630907083334,71.0,106.0
60,66.59426661875,69.1664453875,73.0,115.0
61,69.55200811875001,69.68228958958333,73.0,109.0
62,69.76327536875,69.87419067500001,76.0,112.0
63,69.97454261875001,71.04848447291667,78.0,112.0
64,71.24214611875,71.36890646875,76.0,118.0
65,71.45341336875,71.57665259791668,73.0,112.0
66,71.66468061875,72.78087592291666,71.0,101.0
67,72.93228411875,73.04495998541667,69.0,117.0
68,73.14355136875,73.23157938958335,71.0,106.0
69,73.35481861875,74.35657749583333,73.0,112.0
70,74.62242211875001,74.71573182083334,71.0,106.0
71,74.83368936875,74.94284411458334,73.0,106.0
72,75.04495661875,76.36537693125001,66.0,109.0
73,76.73509461875,76.98861531875,68.0,109.0
74,77.15762911875001,77.42875542291667,66.0,109.0
75,77.58016361875,77.81783927500001,64.0,115.0
76,78.00269811875,78.63297874791667,68.0,112.0
77,78.84776711875,78.97628802916667,64.0,112.0
78,79.05903436875,79.169949675,61.0,109.0
79,79.27030161875001,79.58016025208335,69.0,117.0
80,79.69283611875001,79.96748354375,68.0,106.0
81,80.11537061875,82.7298028375,66.0,112.0
82,83.49564661875,83.83191365833333,66.0,115.0
83,83.91818111875,84.60127856041667,78.0,112.0
84,84.76325011875001,85.0220525,78.0,115.0
85,85.18578461875,85.31606608958333,73.0,112.0
86,85.39705186875,85.54669950416667,76.0,112.0
87,85.60831911875,85.71747386458334,73.0,118.0
88,85.81958636875001,85.930501675,76.0,115.0
89,86.03085361875,86.62240191875,78.0,115.0
90,86.87954451875,87.18311564375,76.0,115.0
91,87.30811551875,87.63490090625,71.0,112.0
92,87.73668651875,88.00454339375,71.0,112.0
93,88.16525751875,88.44025724375,76.0,118.0
94,88.59382851875,88.74025694375,73.0,115.0
95,88.80811401875,88.91525676875,71.0,104.0
96,89.02239951875,89.96882714375,73.0,109.0
97,90.30811251875001,90.63132648125,69.0,123.0
98,90.73668351875,91.80728091458333,66.0,115.0
99,92.01678760416667,92.39002641249999,69.0,117.0
100,92.43932210416666,93.06960273333333,66.0,112.0
101,93.28439110416666,93.49037667291665,78.0,115.0
102,93.70692560416666,93.82136203124999,73.0,115.0
103,93.91819285416666,94.02030535833333,71.0,106.0
104,94.12946010416665,95.95340069583332,73.0,115.0
105,97.09190504375,97.43297613125,66.0,115.0
106,97.52047604375,98.21333249375,78.0,112.0
107,98.37761804375,98.64011778125,78.0,115.0
108,98.80618904375,98.93833176875,73.0,112.0
109,99.02047454375,99.17226010625,76.0,112.0
110,99.23476004375,99.34547421875,73.0,118.0
111,99.44904554375,99.56154543125,76.0,115.0
112,99.66333104375,100.26333044375,78.0,115.0
113,100.52047304375,100.82404416874999,76.0,115.0
114,100.94904404375,101.27582943125,71.0,112.0
115,101.37761504375,101.64547191875,71.0,112.0
116,101.80618604375,102.08118576875,76.0,118.0
117,102.23475704375,102.38118546875,73.0,115.0
118,102.44904254375,102.55618529375,71.0,104.0
119,102.66332804375,103.60975566875,73.0,109.0
120,103.9444382125,104.26309964791668,69.0,123.0
121,104.3669727125,105.42506952291667,66.0,115.0
122,105.63457621250001,105.80006889166667,73.0,109.0
123,105.8458434625,105.96204045,71.0,96.0
124,106.0571107125,106.68210966041667,73.0,109.0
125,106.9021797125,107.10816528125001,78.0,115.0
126,107.3247142125,107.43915063958333,73.0,115.0
127,107.5359814625,107.63809396666667,71.0,106.0
128,107.74724871250001,109.57118930416667,73.0,115.0
129,110.70499021250001,111.04125725208334,66.0,115.0
130,111.1275247125,111.81062215416667,78.0,112.0
131,111.9725937125,112.23139609375,78.0,115.0
132,112.3951282125,112.52540968333334,73.0,112.0
133,112.6063954625,112.75604309791667,76.0,112.0
134,112.81766271250001,112.92681745833333,73.0,118.0
135,113.0289299625,113.13984526875001,76.0,115.0
136,113.24019721250001,113.8317455125,78.0,115.0
137,114.0852662125,114.38456148333334,76.0,115.0
138,114.5078007125,114.82998326875,71.0,112.0
139,114.93033521250001,115.194419275,71.0,112.0
140,115.35286971250001,115.62399601666667,76.0,118.0
141,115.7754042125,115.91977016666667,73.0,115.0
142,115.9866714625,116.09230508750001,71.0,104.0
143,116.1979387125,117.13103573333333,73.0,109.0
144,117.4655422125,117.78420364791667,69.0,123.0
145,117.88807671250001,119.57469359166667,66.0,115.0
146,120.8458182125,120.96025463958334,73.0,115.0
147,121.0570854625,121.15919796666667,71.0,106.0
148,121.2683527125,123.09229330416667,73.0,115.0
149,125.92649426250001,126.35685097500001,73.0,115.0
150,126.3550652625,127.4657784375,76.0,115.0
151,127.6407782625,127.9622065125,64.0,112.0
152,128.0693492625,130.9586320875,66.0,112.0
153,158.23661042083333,158.57768150833334,66.0,115.0
154,158.66518142083333,159.35803787083333,78.0,112.0
155,159.52232342083335,159.78482315833332,78.0,115.0
156,159.95089442083332,160.08303714583334,73.0,112.0
157,160.16517992083334,160.31696548333332,76.0,112.0
158,160.37946542083333,160.49017959583333,73.0,118.0
159,160.59375092083334,160.70625080833332,76.0,115.0
160,160.80803642083333,161.40803582083333,78.0,115.0
161,161.66517842083334,161.96874954583333,76.0,115.0
162,162.09374942083332,162.42053480833334,71.0,112.0
163,162.52232042083332,162.79017729583333,71.0,112.0
164,162.95089142083333,163.22589114583334,76.0,118.0
165,163.37946242083333,163.52589084583335,73.0,115.0
166,163.59374792083332,163.70089067083333,71.0,104.0
167,163.80803342083334,164.74762761666665,73.0,109.0
168,165.08331644999998,165.40310423333332,69.0,123.0
169,165.50734444999998,166.56918123333332,66.0,115.0
170,166.77942844999998,167.15398651666666,69.0,117.0
171,167.20345644999998,167.83596488333333,66.0,112.0
172,168.05151245,168.2582261,78.0,115.0
173,168.47554044999998,168.59038136666666,73.0,115.0
174,168.68755445,168.79002788333332,71.0,106.0
175,168.89956844999998,170.72637780624999,73.0,115.0
176,171.8601787145833,172.19644575416663,66.0,115.0
177,172.2827132145833,172.96581065624997,78.0,112.0
178,173.1277822145833,173.3865845958333,78.0,115.0
179,173.55031671458332,173.68059818541664,73.0,112.0
180,173.7615839645833,173.91123159999998,76.0,112.0
181,173.9728512145833,174.08200596041664,73.0,118.0
182,174.18411846458332,174.2950337708333,76.0,115.0
183,174.3953857145833,174.9869340145833,78.0,115.0
184,175.2404547145833,175.53974998541665,76.0,115.0
185,175.66298921458332,175.98517177083332,71.0,112.0
186,176.0855237145833,176.34960777708332,71.0,112.0
187,176.50805821458331,176.77918451875,76.0,118.0
188,176.9305927145833,177.07495866874999,73.0,115.0
189,177.14185996458332,177.2474935895833,71.0,104.0
190,177.3531272145833,178.28622423541665,73.0,109.0
191,178.62073071458332,178.93939214999997,69.0,123.0
192,179.0432652145833,180.101362025,66.0,115.0
193,180.3108687145833,180.47636139374998,73.0,109.0
194,180.5221359645833,180.63833295208332,71.0,96.0
195,180.73340321458332,181.35840216249997,73.0,109.0
196,181.57847221458331,181.78445778333332,78.0,115.0
197,182.0010067145833,182.11544314166665,73.0,115.0
198,182.21227396458332,182.31438646874997,71.0,106.0
199,182.4235412145833,184.24748180624997,73.0,115.0
200,185.3812827145833,185.71754975416664,66.0,115.0
201,185.80381721458332,186.49111505416664,78.0,112.0
202,186.65540060416666,186.91790034166664,78.0,115.0
203,187.08397160416666,187.21611432916666,73.0,112.0
204,187.29825710416665,187.45004266666666,76.0,112.0
205,187.51254260416664,187.62325677916664,73.0,118.0
206,187.72682810416666,187.83932799166666,76.0,115.0
207,187.94111360416665,188.54111300416665,78.0,115.0
208,188.79825560416666,189.10182672916665,76.0,115.0
209,189.22682660416666,189.55361199166666,71.0,112.0
210,189.65539760416664,189.92325447916664,71.0,112.0
211,190.08396860416664,190.35896832916666,76.0,118.0
212,190.51253960416665,190.65896802916666,73.0,115.0
213,190.72682510416666,190.83396785416664,71.0,104.0
214,190.94111060416665,191.87780437291664,73.0,109.0
215,192.2123108520833,192.5309722875,69.0,123.0
216,192.63484535208332,194.32146223125,66.0,115.0
217,195.59258685208331,195.70702327916666,73.0,115.0
218,195.8038541020833,195.90596660625,71.0,106.0
219,196.01512135208333,197.86061727916663,73.0,115.0
220,200.72490012916666,201.15525684166664,73.0,115.0
221,201.15347112916663,202.26418430416663,76.0,115.0
222,202.43918412916665,202.76061237916664,64.0,112.0
223,202.86775512916665,205.7209447145833,66.0,112.0
