,start,end,pitch,velocity
0,2.1637287520833333,4.7852032125,66.0,96.0
1,2.0387289625,4.795766575,57.0,88.0
2,2.10739081875,4.8028088166666665,61.0,101.0
3,1.98063046875,4.829217222916666,54.0,74.0
4,2.110911939583333,4.922526925,42.0,104.0
5,5.410202160416667,6.040482789583333,52.0,58.0
6,5.44541336875,6.07921511875,57.0,101.0
7,5.507032983333334,6.1778065020833335,61.0,94.0
8,5.4612584125,8.040479422916667,45.0,101.0
9,8.8732245,10.46301055625,47.0,101.0
10,8.94188635625,10.580968104166667,71.0,74.0
11,8.801041522916666,10.60561595,62.0,93.0
12,8.871463939583334,10.651390520833333,66.0,101.0
13,8.742943029166666,10.663714443749999,59.0,85.0
14,12.24821881875,14.325680110416666,42.0,106.0
15,12.1584302375,14.616172579166667,57.0,99.0
16,12.272866664583333,14.621454260416666,66.0,87.0
17,12.223570972916667,14.633778183333334,61.0,104.0
18,12.119697908333332,14.670749952083334,54.0,64.0
19,15.632015939583333,16.18835303125,54.0,44.0
20,15.632015939583333,16.20947975625,57.0,99.0
21,15.632015939583333,16.221803679166666,61.0,87.0
22,16.054550439583334,16.535183433333334,49.0,55.0
23,16.47708493958333,16.757014045833333,61.0,106.0
24,16.47708493958333,16.765816847916668,57.0,107.0
25,15.632015939583333,17.438350927083334,42.0,104.0
26,17.322153939583334,17.764054604166667,57.0,107.0
27,17.322153939583334,17.827434779166666,61.0,104.0
28,17.74468843958333,18.33271561875,49.0,73.0
29,17.74468843958333,18.37849018958333,42.0,51.0
30,18.167222939583333,18.505250539583333,66.0,104.0
31,18.167222939583333,18.57567295625,57.0,117.0
32,18.167222939583333,18.663700977083334,61.0,112.0
33,18.589757439583334,18.668982658333334,54.0,99.0
34,19.012291939583335,19.607361360416668,61.0,104.0
35,19.012291939583335,19.882008785416666,57.0,99.0
36,19.434826439583333,20.02109305833333,52.0,69.0
37,19.857360939583334,20.168980133333335,64.0,106.0
38,19.857360939583334,20.183064616666666,61.0,109.0
39,19.012291939583335,20.35912065833333,45.0,101.0
40,20.279895439583335,20.50876829375,57.0,83.0
41,20.702429939583332,20.9682745625,57.0,79.0
42,20.702429939583332,21.133767241666668,61.0,101.0
43,20.702429939583332,21.714752179166666,45.0,63.0
44,20.702429939583332,21.748202827083333,52.0,76.0
45,21.547498939583335,21.76052675,57.0,110.0
46,21.547498939583335,21.76052675,61.0,109.0
47,21.547498939583335,21.81862524375,64.0,109.0
48,21.970033439583332,22.07566706458333,45.0,101.0
49,22.392567939583333,22.966510635416668,62.0,107.0
50,22.392567939583333,22.994679602083334,59.0,87.0
51,22.815102439583335,23.410171860416668,54.0,69.0
52,23.237636939583332,23.42425634375,59.0,101.0
53,22.392567939583333,23.514044925,47.0,96.0
54,23.237636939583332,23.61439686875,62.0,117.0
55,23.237636939583332,23.874959810416666,66.0,106.0
56,24.082705939583334,24.727071052083332,61.0,104.0
57,24.082705939583334,24.737634414583333,64.0,106.0
58,24.505240439583332,24.9400988625,56.0,64.0
59,24.082705939583334,25.042211366666667,49.0,106.0
60,24.927774939583333,25.100309860416665,64.0,109.0
61,24.927774939583333,25.119676025,61.0,109.0
62,25.772843939583332,26.380237283333333,57.0,104.0
63,25.772843939583332,26.387279525,61.0,104.0
64,25.772843939583332,26.448899139583332,54.0,87.0
65,26.195378439583333,26.70946208125,49.0,62.0
66,26.617912939583334,26.929532133333332,61.0,106.0
67,26.617912939583334,26.943616616666667,54.0,101.0
68,26.617912939583334,26.96298278125,57.0,113.0
69,25.772843939583332,27.271080854166666,42.0,104.0
70,27.040447439583332,27.4330524125,49.0,76.0
71,27.462981939583333,27.959459977083334,57.0,86.0
72,27.462981939583333,28.042206316666668,61.0,101.0
73,27.462981939583333,28.195375072916665,54.0,87.0
74,27.885516439583334,28.339741027083335,49.0,28.0
75,28.30805093958333,28.633754616666668,66.0,96.0
76,28.30805093958333,28.6372757375,57.0,99.0
77,28.30805093958333,28.64255741875,61.0,101.0
78,27.462981939583333,28.71474039583333,42.0,87.0
79,29.153119939583334,29.707696470833334,57.0,81.0
80,29.153119939583334,29.910160918749998,54.0,85.0
81,29.57565443958333,30.103822564583332,49.0,31.0
82,29.998188939583333,30.381991110416667,57.0,117.0
83,29.153119939583334,30.39607559375,42.0,94.0
84,29.998188939583333,30.461216329166668,61.0,106.0
85,30.84325793958333,31.429524558333334,56.0,101.0
86,30.84325793958333,31.52635538125,52.0,94.0
87,31.265792439583333,31.77987608125,47.0,47.0
88,30.84325793958333,31.88903082708333,40.0,101.0
89,31.688326939583334,32.12039365208334,56.0,106.0
90,31.688326939583334,32.21682212708333,59.0,99.0
91,32.111465089583334,32.34717913958333,40.0,94.0
92,32.54003608958333,33.08110697708334,57.0,101.0
93,32.54003608958333,33.248963952083336,54.0,89.0
94,32.96860708958334,33.46324945208333,49.0,45.0
95,33.397178089583335,33.559677927083335,57.0,120.0
96,33.397178089583335,33.61860643958333,61.0,104.0
97,32.54003608958333,33.80432053958334,42.0,89.0
98,34.25432008958334,34.77396242708333,57.0,74.0
99,34.25432008958334,34.825748089583335,61.0,91.0
100,34.25432008958334,34.89717658958334,54.0,76.0
101,34.682891089583336,35.225747689583336,49.0,61.0
102,34.25432008958334,35.368604689583336,42.0,82.0
103,35.111462089583334,35.43467605208333,66.0,96.0
104,35.111462089583334,35.436461764583335,61.0,109.0
105,35.111462089583334,35.58824732708334,57.0,113.0
106,35.54003308958333,35.779318564583335,54.0,87.0
107,35.96860408958334,36.42038935208333,57.0,93.0
108,35.96860408958334,36.427532202083334,54.0,91.0
109,35.96860408958334,36.78824612708333,38.0,99.0
110,36.397175089583335,36.840031789583335,45.0,49.0
111,36.82574608958333,37.265031364583336,57.0,117.0
112,36.82574608958333,37.325745589583335,62.0,110.0
113,37.25431708958334,37.418602639583334,54.0,99.0
114,37.68288808958334,38.223958977083335,56.0,94.0
115,37.68288808958334,38.33288743958334,52.0,80.0
116,38.111459089583335,38.65252997708333,47.0,71.0
117,37.68288808958334,38.70252992708333,40.0,91.0
118,38.54003008958333,38.94488378541667,56.0,106.0
119,38.54003008958333,39.066362454166665,59.0,99.0
120,38.96777107083334,39.318122593750005,52.0,106.0
121,39.390305570833334,39.68431916041667,57.0,96.0
122,39.390305570833334,39.74769933541667,61.0,101.0
123,39.81284007083333,40.31283922916667,52.0,45.0
124,40.235374570833336,40.4536840625,57.0,101.0
125,39.390305570833334,40.566359929166666,45.0,70.0
126,40.235374570833336,40.717768125,61.0,106.0
127,40.657909070833334,40.79347222291667,57.0,110.0
128,40.235374570833336,40.84628903541667,64.0,101.0
129,41.08044357083333,41.3410065125,56.0,94.0
130,41.08044357083333,41.56811880625,61.0,99.0
131,41.502978070833336,41.833963429166666,56.0,99.0
132,41.925512570833334,41.97832938333333,56.0,96.0
133,41.08044357083333,42.19839943541667,49.0,109.0
134,41.925512570833334,42.3128358625,65.0,110.0
135,41.925512570833334,42.33748370833334,59.0,109.0
136,42.34804707083333,42.48537078333334,56.0,104.0
137,42.770581570833336,43.268820168750004,57.0,96.0
138,42.770581570833336,43.341003145833334,61.0,101.0
139,42.770581570833336,43.37797491458333,54.0,96.0
140,43.193116070833334,43.68959410833334,49.0,66.0
141,42.770581570833336,43.906143039583334,42.0,99.0
142,43.61565057083334,44.05931179583334,57.0,117.0
143,44.038185070833336,44.2142411125,54.0,99.0
144,43.61565057083334,44.29170577083333,61.0,106.0
145,44.460719570833334,45.03994394791667,64.0,96.0
146,44.460719570833334,45.06459179375,56.0,89.0
147,44.460719570833334,45.09804244166667,59.0,89.0
148,44.88325407083333,45.42726723958334,47.0,44.0
149,45.305788570833336,45.47304181041667,56.0,104.0
150,44.460719570833334,45.49592909583333,40.0,101.0
151,45.305788570833336,45.6825485,59.0,101.0
152,45.305788570833336,45.795224366666666,64.0,104.0
153,46.15085757083334,46.47127956666667,57.0,99.0
154,46.15085757083334,46.49416685208333,61.0,99.0
155,46.573392070833336,47.05754618541667,52.0,69.0
156,46.15085757083334,47.1508558875,45.0,96.0
157,46.99592657083333,47.30578520416667,61.0,112.0
158,46.99592657083333,47.33219361041667,57.0,113.0
159,46.99592657083333,47.38148930208334,64.0,109.0
160,47.41846107083333,47.545221420833336,45.0,74.0
161,47.840995570833336,48.321628564583335,57.0,91.0
162,47.840995570833336,48.369163695833336,54.0,78.0
163,47.840995570833336,48.38324817916667,61.0,101.0
164,48.26353007083333,48.84275444791667,49.0,76.0
165,47.840995570833336,48.876205095833335,42.0,99.0
166,48.68606457083334,49.01176824791667,57.0,117.0
167,48.68606457083334,49.04697945625,54.0,99.0
168,49.108599070833336,49.39979579791667,42.0,101.0
169,48.68606457083334,49.56765277291667,61.0,106.0
170,49.53372423541667,50.01765232291667,56.0,101.0
171,49.53372423541667,50.421223347916666,52.0,87.0
172,49.96229523541667,50.60515173541667,47.0,40.0
173,49.53372423541667,50.639080272916665,40.0,101.0
174,50.39086623541667,50.84800863541667,56.0,109.0
175,50.39086623541667,50.93372283541667,59.0,101.0
176,50.819437235416665,50.94622282291667,52.0,112.0
177,51.24800823541667,51.842650497916665,61.0,96.0
178,51.24800823541667,51.874793322916666,56.0,96.0
179,51.67657923541667,52.17479302291667,52.0,76.0
180,51.24800823541667,52.18372158541667,49.0,104.0
181,52.105150235416666,52.278364347916664,56.0,106.0
182,52.105150235416666,52.435507047916666,61.0,112.0
183,52.533721235416664,52.610506872916666,56.0,82.0
184,52.105150235416666,52.71764962291667,64.0,104.0
185,52.96229223541667,53.469434585416664,57.0,99.0
186,52.96229223541667,53.48014886041667,61.0,101.0
187,52.96229223541667,53.51050597291667,54.0,87.0
188,53.39086323541667,53.831934222916665,49.0,48.0
189,52.96229223541667,54.08371968541667,42.0,99.0
190,53.819434235416665,54.12657678541667,57.0,117.0
191,53.819434235416665,54.15157676041667,61.0,109.0
192,54.67657623541667,55.060504422916665,57.0,110.0
193,54.67657623541667,55.155147185416666,66.0,101.0
194,55.105147235416666,55.55514678541667,49.0,40.0
195,54.67657623541667,55.783717985416665,42.0,101.0
196,55.53371823541667,55.978360647916666,54.0,96.0
197,55.53371823541667,56.19800328541667,57.0,104.0
198,55.96228923541667,56.29264604791667,49.0,19.0
199,55.53371823541667,56.29264604791667,61.0,106.0
200,56.39086023541667,56.95335967291667,57.0,81.0
201,56.39086023541667,57.15871661041667,54.0,85.0
202,56.819431235416666,57.35514498541667,49.0,31.0
203,57.24800223541667,57.63728756041667,57.0,117.0
204,56.39086023541667,57.65157326041667,42.0,94.0
205,57.24800223541667,57.717644622916666,61.0,106.0
206,58.10514423541667,58.69978649791667,56.0,101.0
207,58.10514423541667,58.79800068541667,52.0,94.0
208,58.533715235416665,59.05514328541667,47.0,47.0
209,58.10514423541667,59.16585746041667,40.0,101.0
210,58.96228623541667,59.399785797916664,56.0,106.0
211,58.96228623541667,59.49621427291667,59.0,99.0
212,59.39085723541667,59.62657128541667,40.0,94.0
213,59.819428235416666,60.360499122916664,57.0,101.0
214,59.819428235416666,60.52835609791667,54.0,89.0
215,60.24799923541667,60.742641597916666,49.0,45.0
216,60.67657023541667,60.83899461666667,57.0,120.0
217,60.67657023541667,60.89709311041667,61.0,104.0
218,59.819428235416666,61.080191393750006,42.0,89.0
219,61.523852618750006,62.0361757,57.0,74.0
220,61.523852618750006,62.087231952083336,61.0,91.0
221,61.523852618750006,62.15765436875,54.0,76.0
222,61.94638711875,62.48159748541667,49.0,61.0
223,61.523852618750006,62.622442318750004,42.0,82.0
224,62.36892161875,62.68758305416667,66.0,96.0
225,62.36892161875,62.689343614583336,61.0,109.0
226,62.36892161875,62.83899125000001,57.0,113.0
227,62.791456118750006,63.02737121458334,54.0,87.0
228,63.21399061875,63.65941240416667,57.0,93.0
229,63.21399061875,63.66645464583334,54.0,91.0
230,63.21399061875,64.02208785,38.0,99.0
231,63.63652511875,64.07314410208333,45.0,49.0
232,64.05905961875,64.49215748125,57.0,117.0
233,64.05905961875,64.55201653541667,62.0,110.0
234,64.48159411875001,64.64356567708333,54.0,99.0
235,64.90412861875001,65.437578425,56.0,94.0
236,64.90412861875001,65.54497261041666,52.0,80.0
237,65.32666311875,65.86011292500001,47.0,71.0
238,64.90412861875001,65.90940861666667,40.0,91.0
239,65.74919761875,66.14884483333334,56.0,106.0
240,65.74919761875,66.27032350208334,59.0,99.0
241,66.17173211875,66.52208364166667,52.0,106.0
242,66.59426661875,66.88828020833334,57.0,96.0
243,66.59426661875,66.95166038333333,61.0,101.0
244,67.01680111875001,67.51680027708333,52.0,45.0
245,67.43933561875001,67.65764511041667,57.0,101.0
246,66.59426661875,67.77032097708334,45.0,70.0
247,67.43933561875001,67.92172917291667,61.0,106.0
248,67.86187011875,67.99743327083334,57.0,110.0
249,67.43933561875001,68.05025008333334,64.0,101.0
250,68.28440461875,68.54496756041667,56.0,94.0
251,68.28440461875,68.77207985416668,61.0,99.0
252,68.70693911875,69.03792447708334,56.0,99.0
253,69.12947361875,69.18229043125001,56.0,96.0
254,68.28440461875,69.40236048333334,49.0,109.0
255,69.12947361875,69.51679691041667,65.0,110.0
256,69.12947361875,69.54144475625,59.0,109.0
257,69.55200811875001,69.68933183125,56.0,104.0
258,69.97454261875001,70.47278121666668,57.0,96.0
259,69.97454261875001,70.54496419375,61.0,101.0
260,69.97454261875001,70.58193596250001,54.0,96.0
261,70.39707711875,70.89355515625,49.0,66.0
262,69.97454261875001,71.1101040875,42.0,99.0
263,70.81961161875,71.26327284375,57.0,117.0
264,71.24214611875,71.41820216041667,54.0,99.0
265,70.81961161875,71.49566681875001,61.0,106.0
266,71.66468061875,72.24390499583333,64.0,96.0
267,71.66468061875,72.26855284166668,56.0,89.0
268,71.66468061875,72.30200348958334,59.0,89.0
269,72.08721511875001,72.63122828750001,47.0,44.0
270,72.50974961875,72.67700285833334,56.0,104.0
271,71.66468061875,72.69989014375,40.0,101.0
272,72.50974961875,72.88650954791667,59.0,101.0
273,72.50974961875,72.99918541458334,64.0,104.0
274,73.35481861875,73.67524061458334,57.0,99.0
275,73.35481861875,73.6981279,61.0,99.0
276,73.77735311875,74.26150723333333,52.0,69.0
277,73.35481861875,74.35481693541666,45.0,96.0
278,74.19988761875001,74.50974625208333,61.0,112.0
279,74.19988761875001,74.53615465833334,57.0,113.0
280,74.19988761875001,74.58545035,64.0,109.0
281,74.62242211875001,74.74918246875,45.0,74.0
282,75.04495661875,75.5255896125,57.0,91.0
283,75.04495661875,75.57312474375,54.0,78.0
284,75.04495661875,75.58720922708333,61.0,101.0
285,75.46749111875,76.04671549583334,49.0,76.0
286,75.04495661875,76.08016614375,42.0,99.0
287,75.89002561875,76.21572929583334,57.0,117.0
288,75.89002561875,76.25094050416666,54.0,99.0
289,76.31256011875,76.6030525875,42.0,101.0
290,75.89002561875,76.76854526666668,61.0,106.0
291,76.73509461875,77.21220649166668,56.0,101.0
292,76.73509461875,77.61009314583333,52.0,87.0
293,77.15762911875001,77.79143086875001,47.0,40.0
294,76.73509461875,77.82488151666666,40.0,101.0
295,77.58016361875,78.03086708541667,56.0,109.0
296,77.58016361875,78.11537398541667,59.0,101.0
297,78.00269811875,78.12769790833335,52.0,112.0
298,78.42523261875,79.0114992375,61.0,96.0
299,78.42523261875,79.043189325,56.0,96.0
300,78.84776711875,79.338963475,52.0,76.0
301,78.42523261875,79.34776627708334,49.0,104.0
302,79.27030161875001,79.44107597916667,56.0,106.0
303,79.27030161875001,79.59600529583334,61.0,112.0
304,79.69283611875001,79.76854021666668,56.0,82.0
305,79.27030161875001,79.87417384166667,64.0,104.0
306,80.11537061875,80.61536977708334,57.0,99.0
307,80.11537061875,80.62593313958334,61.0,101.0
308,80.11537061875,80.65586266666668,54.0,87.0
309,80.53790511875,80.97276354166667,49.0,48.0
310,80.11537061875,81.22100256041668,42.0,99.0
311,80.96043961875,81.26325601041667,57.0,117.0
312,80.96043961875,81.28790385625001,61.0,109.0
313,81.80550861875,82.18402910833333,57.0,110.0
314,81.80550861875,82.27733881041667,66.0,101.0
315,82.22804311875001,82.67170434375001,49.0,40.0
316,81.80550861875,82.89705607708333,42.0,101.0
317,82.65057761875,83.08895716250001,54.0,96.0
318,82.65057761875,83.30550609375001,57.0,104.0
319,83.07311211875,83.39881579583334,49.0,19.0
320,82.65057761875,83.39881579583334,61.0,106.0
321,83.49564661875,84.08015267708333,61.0,109.0
322,83.49564661875,84.08543435833334,57.0,107.0
323,83.49564661875,84.14177229166667,54.0,99.0
324,83.91818111875,84.40761691458334,49.0,69.0
325,83.49564661875,84.66994041666666,42.0,106.0
326,84.34071561875001,84.75972899791667,57.0,120.0
327,84.34071561875001,84.80550356875,61.0,109.0
328,85.18578461875,85.54669950416667,61.0,106.0
329,85.18578461875,85.64529088750001,57.0,107.0
330,85.60831911875,86.07838875,49.0,47.0
331,85.18578461875,86.23683918750001,42.0,104.0
332,86.03085361875,86.41113466875001,57.0,120.0
333,86.03085361875,86.41113466875001,61.0,115.0
334,86.45338811875,86.62954476875,54.0,109.0
335,86.87954451875,87.34382976875,56.0,106.0
336,86.87954451875,87.47061535625,52.0,106.0
337,87.30811551875,87.78311504375,47.0,39.0
338,86.87954451875,87.83490070625,40.0,104.0
339,87.73668651875,88.13668611875,56.0,112.0
340,87.73668651875,88.22775745625,59.0,106.0
341,88.16525751875,88.37240016875,52.0,112.0
342,88.59382851875,88.85632825625,57.0,104.0
343,88.59382851875,88.88847108125,61.0,109.0
344,89.02239951875,89.50811331875,52.0,61.0
345,88.59382851875,89.58311324375,45.0,91.0
346,89.45097051875,89.69918455625,61.0,112.0
347,89.45097051875,89.73311309375,57.0,113.0
348,89.45097051875,89.85097011875,64.0,106.0
349,89.87954151875,89.98311284375,45.0,110.0
350,90.30811251875001,90.85632625625,57.0,107.0
351,90.30811251875001,90.86882624375001,61.0,109.0
352,90.73668351875,91.43668281875,49.0,64.0
353,91.16525451875,91.65587271874999,57.0,120.0
354,91.16525451875,91.68052056458333,61.0,112.0
355,90.30811251875001,91.78439362916666,42.0,104.0
356,91.59382551875,91.92699902291666,54.0,104.0
357,92.01678760416667,92.44284322499999,57.0,113.0
358,92.01678760416667,92.52030788333333,61.0,106.0
359,92.43932210416666,92.68756112291666,54.0,99.0
360,92.01678760416667,93.00094087708332,42.0,89.0
361,92.86185660416666,93.17523635833332,57.0,120.0
362,92.86185660416666,93.19460252291665,54.0,109.0
363,92.86185660416666,93.21220812708333,61.0,109.0
364,93.28439110416666,93.45868658541666,42.0,104.0
365,93.70692560416666,93.94812238124999,56.0,99.0
366,93.70692560416666,94.25445989375,61.0,104.0
367,93.70692560416666,94.25798101458332,64.0,101.0
368,94.12946010416665,94.36185407916666,56.0,96.0
369,94.55199460416667,94.75093793125,56.0,112.0
370,94.55199460416667,95.06431768541665,64.0,112.0
371,94.55199460416667,95.08016272916666,61.0,115.0
372,94.97452910416666,95.2632610125,56.0,78.0
373,93.70692560416666,95.27734549583333,49.0,106.0
374,95.39706360416666,95.63121813958332,56.0,109.0
375,95.39706360416666,95.84776707083333,64.0,109.0
376,95.39706360416666,95.88825996041666,61.0,109.0
377,95.81959810416666,95.90058388333333,56.0,82.0
378,96.03086535416666,96.09600608958333,61.0,99.0
379,96.03086535416666,96.10128777083332,56.0,89.0
380,96.24213260416666,96.46572377708333,61.0,118.0
381,96.24213260416666,96.47980826041666,56.0,115.0
382,96.24213260416666,96.53438563333333,68.0,109.0
383,96.66466710416665,96.79547676874999,56.0,112.0
384,95.39706360416666,96.82404816875,49.0,109.0
385,96.66466710416665,96.82404816875,61.0,112.0
386,96.66466710416665,96.83833386875,64.0,112.0
387,97.09190504375,97.54904744375,61.0,104.0
388,97.09190504375,97.56511885625,54.0,99.0
389,97.09190504375,97.58119026875,57.0,101.0
390,97.52047604375,98.04190409375,49.0,69.0
391,97.09190504375,98.08118976875,42.0,104.0
392,97.94904704375,98.15797540625,54.0,104.0
393,97.94904704375,98.20261821875,57.0,120.0
394,97.94904704375,98.21690391875,61.0,112.0
395,98.37761804375,98.65618919375,54.0,101.0
396,98.80618904375,98.96154603125,54.0,80.0
397,98.80618904375,99.19368865625,66.0,101.0
398,98.80618904375,99.24011718125,57.0,110.0
399,99.23476004375,99.69547386875,49.0,48.0
400,98.80618904375,99.82583088125,42.0,96.0
401,99.66333104375,99.93833076875,57.0,117.0
402,100.09190204375,100.23654475625,54.0,106.0
403,99.66333104375,100.27047329375,61.0,112.0
404,100.52047304375,101.22225805625,56.0,106.0
405,100.52047304375,101.22404376875,59.0,101.0
406,100.94904404375,101.40797215625,47.0,37.0
407,100.52047304375,101.45261496875,40.0,101.0
408,101.37761504375,101.53654345625,56.0,106.0
409,101.37761504375,101.77940035625,59.0,109.0
410,101.80618604375,102.06868578125,56.0,101.0
411,101.37761504375,102.20797135625,64.0,106.0
412,102.23475704375,102.76154223125,57.0,104.0
413,102.23475704375,102.90082780625,61.0,101.0
414,102.66332804375,103.22047034375,52.0,87.0
415,102.23475704375,103.23475604375,45.0,104.0
416,103.09189904375,103.39368445625,57.0,120.0
417,103.09189904375,103.42761299375,61.0,115.0
418,103.09189904375,103.50082720625,64.0,106.0
419,103.52047004375,103.66098798541667,45.0,110.0
420,103.9444382125,104.37929663541667,61.0,106.0
421,103.9444382125,104.39162055833334,57.0,107.0
422,104.3669727125,104.884577475,49.0,76.0
423,103.9444382125,104.93563372708334,42.0,104.0
424,104.7895072125,105.02542230833333,57.0,120.0
425,104.7895072125,105.06239407708334,61.0,106.0
426,105.21204171250001,105.33880206250001,42.0,106.0
427,105.63457621250001,106.22436395208334,64.0,101.0
428,105.63457621250001,106.2578146,61.0,109.0
429,105.63457621250001,106.278941325,57.0,99.0
430,105.63457621250001,106.59232107916667,45.0,110.0
431,106.0571107125,106.61168724375,52.0,85.0
432,106.4796452125,106.74548983541668,61.0,112.0
433,106.4796452125,106.7754193625,57.0,110.0
434,106.4796452125,106.88633466875001,64.0,112.0
435,106.9021797125,107.02541894166667,45.0,117.0
436,107.3247142125,107.61872780208334,56.0,96.0
437,107.74724871250001,107.87753018333333,56.0,66.0
438,107.3247142125,107.93914979791667,61.0,106.0
439,107.3247142125,107.96379764375,64.0,106.0
440,108.16978321250001,108.40041662708333,56.0,112.0
441,107.3247142125,108.52189529583333,49.0,109.0
442,108.16978321250001,108.63105004166667,61.0,115.0
443,108.16978321250001,108.66274012916668,64.0,112.0
444,108.5923177125,108.67506405208334,56.0,94.0
445,108.80358496250001,108.88985242291668,56.0,101.0
446,108.80358496250001,108.90393690625001,61.0,106.0
447,109.0148522125,109.29478131875001,56.0,109.0
448,109.0148522125,109.55006257916668,61.0,112.0
449,109.4373867125,109.66802012708334,56.0,101.0
450,109.0148522125,109.98316044166667,49.0,115.0
451,109.8599212125,110.09935742916667,56.0,115.0
452,109.8599212125,110.15041368125,61.0,118.0
453,109.8599212125,110.16449816458334,64.0,112.0
454,110.0711884625,110.57822986250001,49.0,106.0
455,110.28245571250001,110.673300125,56.0,112.0
456,110.4937229625,110.67858180625001,61.0,109.0
457,110.70499021250001,111.28949627083334,61.0,109.0
458,110.70499021250001,111.29477795208334,57.0,107.0
459,110.70499021250001,111.35111588541668,54.0,99.0
460,111.1275247125,111.61696050833334,49.0,69.0
461,110.70499021250001,111.87928401041667,42.0,106.0
462,111.5500592125,111.96907259166667,57.0,120.0
463,111.5500592125,112.0148471625,61.0,109.0
464,112.3951282125,112.75604309791667,61.0,106.0
465,112.3951282125,112.85463448125,57.0,107.0
466,112.81766271250001,113.28773234375001,49.0,47.0
467,112.3951282125,113.44618278125,42.0,104.0
468,113.24019721250001,113.6204782625,57.0,120.0
469,113.24019721250001,113.6204782625,61.0,115.0
470,113.6627317125,113.83878775416667,54.0,109.0
471,114.0852662125,114.54301192083334,56.0,106.0
472,114.0852662125,114.66801171041666,52.0,106.0
473,114.5078007125,114.97610978333334,47.0,39.0
474,114.0852662125,115.02716603541667,40.0,104.0
475,114.93033521250001,115.32470074583334,56.0,112.0
476,114.93033521250001,115.41448932708334,59.0,106.0
477,115.35286971250001,115.55709472083333,52.0,112.0
478,115.7754042125,116.03420659375,57.0,104.0
479,115.7754042125,116.06589668125001,61.0,109.0
480,116.1979387125,116.67681114583334,52.0,61.0
481,115.7754042125,116.75075468333334,45.0,91.0
482,116.6204732125,116.86519111041667,61.0,112.0
483,116.6204732125,116.89864175833334,57.0,113.0
484,116.6204732125,117.01483874583334,64.0,106.0
485,117.0430077125,117.14512021666667,45.0,110.0
486,117.4655422125,118.00603426041667,57.0,107.0
487,117.4655422125,118.01835818333333,61.0,109.0
488,117.88807671250001,118.57821639583334,49.0,64.0
489,118.3106112125,118.79476532708334,57.0,120.0
490,118.3106112125,118.81941317291667,61.0,112.0
491,117.4655422125,118.92328623750001,42.0,104.0
492,118.7331457125,119.06589163125,54.0,104.0
493,119.1556802125,119.58173583333334,57.0,113.0
494,119.1556802125,119.65920049166667,61.0,106.0
495,119.5782147125,119.82645373125001,54.0,99.0
496,119.1556802125,120.13983348541667,42.0,89.0
497,120.00074921250001,120.31412896666667,57.0,120.0
498,120.00074921250001,120.33349513125,54.0,109.0
499,120.00074921250001,120.35110073541668,61.0,109.0
500,120.42328371250001,120.59757919375001,42.0,104.0
501,120.8458182125,121.3951130625,64.0,101.0
502,120.8458182125,121.447929875,61.0,101.0
503,121.2683527125,121.77363355208334,56.0,94.0
504,121.6908872125,122.02363313125001,68.0,106.0
505,121.6908872125,122.02715425208333,64.0,112.0
506,121.6908872125,122.10637947083333,61.0,104.0
507,120.8458182125,122.33701288541667,49.0,109.0
508,122.1134217125,122.44792819166668,56.0,91.0
509,122.5359562125,122.92327950416667,73.0,91.0
510,122.5359562125,122.95144847083334,68.0,96.0
511,122.5359562125,123.01658920625,64.0,96.0
512,122.5359562125,123.18208188541666,61.0,99.0
513,122.95849071250001,123.53067284791666,56.0,62.0
514,122.5359562125,123.53419396875,49.0,91.0
515,123.3810252125,123.60461638541668,68.0,96.0
516,123.3810252125,123.61165862708333,73.0,99.0
517,123.3810252125,123.67327824166668,61.0,104.0
518,123.3810252125,123.67503880208334,64.0,109.0
519,123.8035597125,123.95672846875,61.0,104.0
520,123.8035597125,123.96553127083334,64.0,99.0
521,123.8035597125,123.97433407291668,49.0,82.0
522,123.8035597125,123.98137631458334,56.0,71.0
523,124.2260942125,124.37750240833334,61.0,106.0
524,124.2260942125,124.38278408958334,49.0,106.0
525,124.2260942125,124.38278408958334,56.0,106.0
526,124.2260942125,124.38454465000001,64.0,106.0
527,124.6486287125,125.72649446250001,49.0,104.0
528,124.6486287125,125.73899445,68.0,101.0
529,124.6486287125,125.74792301250001,56.0,101.0
530,124.6486287125,125.74792301250001,61.0,101.0
531,124.6486287125,125.75328015000001,64.0,101.0
532,125.71220876250001,126.15685117500001,52.0,62.0
533,125.92649426250001,126.43363661250001,64.0,99.0
534,126.3550652625,127.2657786375,47.0,61.0
535,125.92649426250001,127.28185005,40.0,101.0
536,127.6407782625,128.0872063875,61.0,101.0
537,127.6407782625,128.1336349125,57.0,104.0
538,127.6407782625,128.1693491625,54.0,78.0
539,128.0693492625,128.542563075,49.0,35.0
540,127.6407782625,128.81041995,42.0,101.0
541,128.4979202625,128.88184845,57.0,117.0
542,128.4979202625,128.98363406250002,61.0,112.0
543,128.9264912625,129.221133825,54.0,78.0
544,129.3550622625,129.571133475,57.0,110.0
545,129.3550622625,129.5800620375,61.0,109.0
546,129.3550622625,129.7086333375,66.0,104.0
547,129.78363326250002,130.271132775,49.0,69.0
548,129.3550622625,130.521132525,42.0,101.0
549,130.6407752625,130.992560625,49.0,78.0
550,130.2122042625,131.00506061250002,66.0,104.0
551,130.2122042625,131.006846325,73.0,104.0
552,130.2122042625,131.01041775000002,69.0,117.0
553,131.0693462625,131.6318457,57.0,81.0
554,131.0693462625,131.8372026375,54.0,85.0
555,131.4979172625,132.0336310125,49.0,31.0
556,131.92648826250002,132.31577358750002,57.0,117.0
557,131.0693462625,132.3300592875,42.0,94.0
558,131.92648826250002,132.39613065,61.0,106.0
559,132.7836302625,133.378272525,56.0,101.0
560,132.7836302625,133.47648671250002,52.0,94.0
561,133.2122012625,133.7336293125,47.0,47.0
562,132.7836302625,133.8443434875,40.0,101.0
563,133.6407722625,134.078271825,56.0,106.0
564,133.6407722625,134.1747003,59.0,99.0
565,134.0693432625,134.3050573125,40.0,94.0
566,134.49791426250002,135.03898515,57.0,101.0
567,134.49791426250002,135.206842125,54.0,89.0
568,134.92648526250002,135.421127625,49.0,45.0
569,135.3550562625,135.5175561,57.0,120.0
570,135.3550562625,135.5764846125,61.0,104.0
571,134.49791426250002,135.7621987125,42.0,89.0
572,136.2121982625,136.7318406,57.0,74.0
573,136.2121982625,136.7836262625,61.0,91.0
574,136.2121982625,136.8550547625,54.0,76.0
575,136.64076926250002,137.1836258625,49.0,61.0
576,136.2121982625,137.3264828625,42.0,82.0
577,137.06934026250002,137.392554225,66.0,96.0
578,137.06934026250002,137.3943399375,61.0,109.0
579,137.06934026250002,137.54612550000002,57.0,113.0
580,137.4979112625,137.7371967375,54.0,87.0
581,137.9264822625,138.378267525,57.0,93.0
582,137.9264822625,138.38541037500002,54.0,91.0
583,137.9264822625,138.74295513750002,38.0,99.0
584,138.3550532625,138.79401138958335,45.0,49.0
585,138.77992690625,139.21302476875002,57.0,117.0
586,138.77992690625,139.27288382291667,62.0,110.0
587,139.20246140625,139.36443296458333,54.0,99.0
588,139.62499590625,140.1584457125,56.0,94.0
589,139.62499590625,140.26583989791666,52.0,80.0
590,140.04753040625002,140.5809802125,47.0,71.0
591,139.62499590625,140.63027590416667,40.0,91.0
592,140.47006490625,140.86971212083333,56.0,106.0
593,140.47006490625,140.99119078958333,59.0,99.0
594,140.89259940625,141.24295092916668,52.0,106.0
595,141.31513390625,141.60914749583333,57.0,96.0
596,141.31513390625,141.67252767083335,61.0,101.0
597,141.73766840625,142.23766756458335,52.0,45.0
598,142.16020290625,142.37851239791667,57.0,101.0
599,141.31513390625,142.49118826458334,45.0,70.0
600,142.16020290625,142.64259646041668,61.0,106.0
601,142.58273740625,142.71830055833334,57.0,110.0
602,142.16020290625,142.77111737083334,64.0,101.0
603,143.00527190625002,143.26583484791666,56.0,94.0
604,143.00527190625002,143.49294714166666,61.0,99.0
605,143.42780640625,143.75879176458335,56.0,99.0
606,143.85034090625,143.90315771875,56.0,96.0
607,143.00527190625002,144.12322777083332,49.0,109.0
608,143.85034090625,144.23766419791667,65.0,110.0
609,143.85034090625,144.26231204375,59.0,109.0
610,144.27287540625,144.41019911875,56.0,104.0
611,144.69540990625,145.19364850416667,57.0,96.0
612,144.69540990625,145.26583148125002,61.0,101.0
613,144.69540990625,145.30280325,54.0,96.0
614,145.11794440625002,145.61442244375002,49.0,66.0
615,144.69540990625,145.830971375,42.0,99.0
616,145.54047890625,145.98414013125,57.0,117.0
617,145.96301340625,146.13906944791668,54.0,99.0
618,145.54047890625,146.21653410625,61.0,106.0
619,146.38554790625,146.96477228333333,64.0,96.0
620,146.38554790625,146.98942012916666,56.0,89.0
621,146.38554790625,147.02287077708334,59.0,89.0
622,146.80808240625,147.352095575,47.0,44.0
623,147.23061690625,147.39787014583334,56.0,104.0
624,146.38554790625,147.42075743125,40.0,101.0
625,147.23061690625,147.60737683541666,59.0,101.0
626,147.23061690625,147.72005270208334,64.0,104.0
627,148.07568590625002,148.39610790208334,57.0,99.0
628,148.07568590625002,148.4189951875,61.0,99.0
629,148.49822040625,148.98237452083333,52.0,69.0
630,148.07568590625002,149.07568422291666,45.0,96.0
631,148.92075490625,149.23061353958335,61.0,112.0
632,148.92075490625,149.25702194583334,57.0,113.0
633,148.92075490625,149.3063176375,64.0,109.0
634,149.34328940625,149.47004975625,45.0,74.0
635,149.76582390625,150.2464569,57.0,91.0
636,149.76582390625,150.29399203125,54.0,78.0
637,149.76582390625,150.30807651458335,61.0,101.0
638,150.18835840625002,150.76758278333335,49.0,76.0
639,149.76582390625,150.80103343125,42.0,99.0
640,150.61089290625,150.93659658333334,57.0,117.0
641,150.61089290625,150.97180779166666,54.0,99.0
642,151.03342740625,151.323919875,42.0,101.0
643,150.61089290625,151.48941255416668,61.0,106.0
644,151.45596190625,151.93307377916668,56.0,101.0
645,151.45596190625,152.33096043333333,52.0,87.0
646,151.87849640625,152.51229815625,47.0,40.0
647,151.45596190625,152.54574880416666,40.0,101.0
648,152.30103090625,152.75173437291667,56.0,109.0
649,152.30103090625,152.83624127291668,59.0,101.0
650,152.72356540625,152.84856519583334,52.0,112.0
651,153.14609990625002,153.732366525,61.0,96.0
652,153.14609990625002,153.7640566125,56.0,96.0
653,153.56863440625,154.0598307625,52.0,76.0
654,153.14609990625002,154.06863356458334,49.0,104.0
655,153.99116890625,154.16194326666667,56.0,106.0
656,153.99116890625,154.31687258333335,61.0,112.0
657,154.41370340625,154.48940750416668,56.0,82.0
658,153.99116890625,154.59504112916667,64.0,104.0
659,154.83623790625,155.24644848333332,57.0,110.0
660,154.83623790625,155.26053296666666,54.0,99.0
661,154.83623790625,155.3063075375,61.0,104.0
662,155.25877240625,155.79398277291668,49.0,64.0
663,155.68130690625,156.09151748333335,54.0,115.0
664,155.68130690625,156.13553149375,57.0,123.0
665,154.83623790625,156.34503818333334,42.0,106.0
666,156.10384140625,156.36440434791666,49.0,55.0
667,155.68130690625,156.37320715,61.0,112.0
668,156.52637590625,156.76405156250001,57.0,120.0
669,156.52637590625,156.77109380416667,54.0,106.0
670,156.52637590625,156.774614925,61.0,109.0
671,156.95089742083334,157.09554013333334,54.0,112.0
672,157.16518292083333,157.33839703333334,56.0,115.0
673,157.37946842083332,157.50803972083332,57.0,120.0
674,157.59375392083334,157.85446794583333,59.0,112.0
675,156.73764315625002,157.98303924583334,49.0,96.0
676,156.52637590625,158.02946777083332,42.0,106.0
677,157.80803942083332,158.07768200833334,61.0,109.0
678,158.02232492083334,158.28125323333333,64.0,109.0
679,158.23661042083333,158.82946697083332,61.0,109.0
680,158.23661042083333,158.83482410833332,57.0,107.0
681,158.23661042083333,158.89196690833333,54.0,99.0
682,158.66518142083333,159.16160949583332,49.0,69.0
683,158.23661042083333,159.42768065833334,42.0,106.0
684,159.09375242083334,159.51875199583333,57.0,120.0
685,159.09375242083334,159.56518052083334,61.0,109.0
686,159.95089442083332,160.31696548333332,61.0,106.0
687,159.95089442083332,160.41696538333332,57.0,107.0
688,160.37946542083333,160.85625065833332,49.0,47.0
689,159.95089442083332,161.01696478333332,42.0,104.0
690,160.80803642083333,161.19375032083335,57.0,120.0
691,160.80803642083333,161.19375032083335,61.0,115.0
692,161.23660742083334,161.41517867083334,54.0,109.0
693,161.66517842083334,162.12946367083333,56.0,106.0
694,161.66517842083334,162.25624925833333,52.0,106.0
695,162.09374942083332,162.56874894583333,47.0,39.0
696,161.66517842083334,162.62053460833334,40.0,104.0
697,162.52232042083332,162.92232002083333,56.0,112.0
698,162.52232042083332,163.01339135833334,59.0,106.0
699,162.95089142083333,163.15803407083334,52.0,112.0
700,163.37946242083333,163.64196215833334,57.0,104.0
701,163.37946242083333,163.67410498333334,61.0,109.0
702,163.80803342083334,164.29179751666666,52.0,61.0
703,163.37946242083333,164.36600241666665,45.0,91.0
704,164.23526045,164.48084333333333,61.0,112.0
705,164.23526045,164.51441221666664,57.0,113.0
706,164.23526045,164.63101991666665,64.0,106.0
707,164.65928845,164.76176188333332,45.0,110.0
708,165.08331644999998,165.62571893333333,57.0,107.0
709,165.08331644999998,165.63808641666665,61.0,109.0
710,165.50734444999998,166.19992351666664,49.0,64.0
711,165.93137245,166.41723786666665,57.0,120.0
712,165.93137245,166.44197283333332,61.0,112.0
713,165.08331644999998,166.54621304999998,42.0,104.0
714,166.35540045,166.68932249999997,54.0,104.0
715,166.77942844999998,167.20699001666665,57.0,113.0
716,166.77942844999998,167.2847284833333,61.0,106.0
717,167.20345644999998,167.45257289999998,54.0,99.0
718,166.77942844999998,167.76706033333332,42.0,89.0
719,167.62748445,167.9419718833333,57.0,120.0
720,167.62748445,167.96140649999998,54.0,109.0
721,167.62748445,167.97907433333333,61.0,109.0
722,168.05151245,168.22642399999998,42.0,104.0
723,168.47554044999998,168.71758976666666,56.0,99.0
724,168.47554044999998,169.02501006666665,61.0,104.0
725,168.47554044999998,169.02854363333333,64.0,101.0
726,168.89956844999998,169.13278384999998,56.0,96.0
727,169.32359645,169.52324296666666,56.0,112.0
728,169.32359645,169.83729479583332,64.0,112.0
729,169.32359645,169.85313983958332,61.0,115.0
730,169.74750621458332,170.03623812291664,56.0,78.0
731,168.47554044999998,170.05032260624998,49.0,106.0
732,170.1700407145833,170.40419525,56.0,109.0
733,170.1700407145833,170.62074418125,64.0,109.0
734,170.1700407145833,170.66123707083332,61.0,109.0
735,170.59257521458332,170.67356099375,56.0,82.0
736,170.8038424645833,170.86898319999997,61.0,99.0
737,170.8038424645833,170.87426488124999,56.0,89.0
738,171.0151097145833,171.2387008875,61.0,118.0
739,171.0151097145833,171.25278537083332,56.0,115.0
740,171.0151097145833,171.30736274375,68.0,109.0
741,171.43764421458332,171.56792568541664,56.0,112.0
742,170.1700407145833,171.5960946520833,49.0,109.0
743,171.43764421458332,171.5960946520833,61.0,112.0
744,171.43764421458332,171.61017913541664,64.0,112.0
745,171.8601787145833,172.31088218124998,61.0,104.0
746,171.8601787145833,172.32672722499998,54.0,99.0
747,171.8601787145833,172.34257226875,57.0,101.0
748,172.2827132145833,172.79679685624998,49.0,69.0
749,171.8601787145833,172.83552918541665,42.0,104.0
750,172.70524771458332,172.9112332833333,54.0,104.0
751,172.70524771458332,172.95524729374998,57.0,120.0
752,172.70524771458332,172.9693317770833,61.0,112.0
753,173.1277822145833,173.40242963958332,54.0,101.0
754,173.55031671458332,173.7034854708333,54.0,80.0
755,173.55031671458332,173.93235832499997,66.0,101.0
756,173.55031671458332,173.9781328958333,57.0,110.0
757,173.9728512145833,174.42707580208332,49.0,48.0
758,173.55031671458332,174.55559671249998,42.0,96.0
759,174.3953857145833,174.66651201874998,57.0,117.0
760,174.81792021458332,174.9605256083333,54.0,106.0
761,174.3953857145833,174.99397625624997,61.0,112.0
762,175.2404547145833,175.93235495833332,56.0,106.0
763,175.2404547145833,175.93411551875,59.0,101.0
764,175.66298921458332,176.11545324166664,47.0,37.0
765,175.2404547145833,176.15946725208332,40.0,101.0
766,176.0855237145833,176.24221359166665,56.0,106.0
767,176.0855237145833,176.48164980833332,59.0,109.0
768,176.50805821458331,176.76686059583332,56.0,101.0
769,176.0855237145833,176.9041843083333,64.0,106.0
770,176.9305927145833,177.44995803749998,57.0,104.0
771,176.9305927145833,177.58728175,61.0,101.0
772,177.3531272145833,177.9024220645833,52.0,87.0
773,176.9305927145833,177.91650654791664,45.0,104.0
774,177.77566171458332,178.073196425,57.0,120.0
775,177.77566171458332,178.10664707291664,61.0,115.0
776,177.77566171458332,178.17883005,64.0,106.0
777,178.1981962145833,178.33728048749998,45.0,110.0
778,178.62073071458332,179.05558913749996,61.0,106.0
779,178.62073071458332,179.06791306041666,57.0,107.0
780,179.0432652145833,179.5608699770833,49.0,76.0
781,178.62073071458332,179.61192622916664,42.0,104.0
782,179.4657997145833,179.70171481041663,57.0,120.0
783,179.4657997145833,179.73868657916665,61.0,106.0
784,179.88833421458332,180.0150945645833,42.0,106.0
785,180.3108687145833,180.90065645416664,64.0,101.0
786,180.3108687145833,180.93410710208332,61.0,109.0
787,180.3108687145833,180.9552338270833,57.0,99.0
788,180.3108687145833,181.26861358124998,45.0,110.0
789,180.73340321458332,181.2879797458333,52.0,85.0
790,181.1559377145833,181.4217823375,61.0,112.0
791,181.1559377145833,181.4517118645833,57.0,110.0
792,181.1559377145833,181.5626271708333,64.0,112.0
793,181.57847221458331,181.70171144374999,45.0,117.0
794,182.0010067145833,182.29502030416666,56.0,96.0
795,182.4235412145833,182.55382268541663,56.0,66.0
796,182.0010067145833,182.61544229999998,61.0,106.0
797,182.0010067145833,182.6400901458333,64.0,106.0
798,182.84607571458332,183.07670912916666,56.0,112.0
799,182.0010067145833,183.19818779791663,49.0,109.0
800,182.84607571458332,183.30734254374997,61.0,115.0
801,182.84607571458332,183.33903263124998,64.0,112.0
802,183.2686102145833,183.35135655416664,56.0,94.0
803,183.4798774645833,183.56614492499997,56.0,101.0
804,183.4798774645833,183.5802294083333,61.0,106.0
805,183.69114471458332,183.9710738208333,56.0,109.0
806,183.69114471458332,184.22635508124998,61.0,112.0
807,184.1136792145833,184.34431262916664,56.0,101.0
808,183.69114471458332,184.65945294374998,49.0,115.0
809,184.5362137145833,184.77564993124997,56.0,115.0
810,184.5362137145833,184.8267061833333,61.0,118.0
811,184.5362137145833,184.84079066666663,64.0,112.0
812,184.7474809645833,185.25452236458332,49.0,106.0
813,184.95874821458332,185.34959262708333,56.0,112.0
814,185.17001546458332,185.3548743083333,61.0,109.0
815,185.3812827145833,185.96578877291665,61.0,109.0
816,185.3812827145833,185.97107045416664,57.0,107.0
817,185.3812827145833,186.02740838749997,54.0,99.0
818,185.80381721458332,186.29468667916666,49.0,69.0
819,185.3812827145833,186.56075784166666,42.0,106.0
820,186.22682960416665,186.65182917916664,57.0,120.0
821,186.22682960416665,186.69825770416665,61.0,109.0
822,187.08397160416666,187.45004266666666,61.0,106.0
823,187.08397160416666,187.55004256666666,57.0,107.0
824,187.51254260416664,187.98932784166664,49.0,47.0
825,187.08397160416666,188.15004196666666,42.0,104.0
826,187.94111360416665,188.32682750416666,57.0,120.0
827,187.94111360416665,188.32682750416666,61.0,115.0
828,188.36968460416665,188.54825585416665,54.0,109.0
829,188.79825560416666,189.26254085416664,56.0,106.0
830,188.79825560416666,189.38932644166664,52.0,106.0
831,189.22682660416666,189.70182612916665,47.0,39.0
832,188.79825560416666,189.75361179166666,40.0,104.0
833,189.65539760416664,190.05539720416664,56.0,112.0
834,189.65539760416664,190.14646854166665,59.0,106.0
835,190.08396860416664,190.29111125416665,52.0,112.0
836,190.51253960416665,190.77503934166666,57.0,104.0
837,190.51253960416665,190.80718216666665,61.0,109.0
838,190.94111060416665,191.42357978541665,52.0,61.0
839,190.51253960416665,191.49752332291666,45.0,91.0
840,191.3672418520833,191.61195974999998,61.0,112.0
841,191.3672418520833,191.64541039791666,57.0,113.0
842,191.3672418520833,191.76160738541665,64.0,106.0
843,191.78977635208332,191.89188885624998,45.0,110.0
844,192.2123108520833,192.75280289999998,57.0,107.0
845,192.2123108520833,192.76512682291664,61.0,109.0
846,192.63484535208332,193.32498503541666,49.0,64.0
847,193.05737985208333,193.54153396666666,57.0,120.0
848,193.05737985208333,193.5661818125,61.0,112.0
849,192.2123108520833,193.67005487708332,42.0,104.0
850,193.4799143520833,193.8126602708333,54.0,104.0
851,193.90244885208332,194.32850447291665,57.0,113.0
852,193.90244885208332,194.40596913124998,61.0,106.0
853,194.3249833520833,194.57322237083332,54.0,99.0
854,193.90244885208332,194.886602125,42.0,89.0
855,194.74751785208332,195.06089760625,57.0,120.0
856,194.74751785208332,195.0802637708333,54.0,109.0
857,194.74751785208332,195.097869375,61.0,109.0
858,195.17005235208333,195.34434783333333,42.0,104.0
859,195.59258685208331,196.1418817020833,64.0,101.0
860,195.59258685208331,196.1946985145833,61.0,101.0
861,196.01512135208333,196.52311861666664,56.0,94.0
862,196.43919012916663,196.77668979166666,68.0,106.0
863,196.43919012916663,196.78026121666664,64.0,112.0
864,196.43919012916663,196.86061827916663,61.0,104.0
865,195.59258685208331,197.09454661666663,49.0,109.0
866,196.86776112916664,197.20704650416664,56.0,91.0
867,197.29633212916664,197.68918887916664,73.0,91.0
868,197.29633212916664,197.71776027916664,68.0,96.0
869,197.29633212916664,197.78383164166664,64.0,96.0
870,197.29633212916664,197.95168861666664,61.0,99.0
871,197.72490312916665,198.30525969166663,56.0,62.0
872,197.29633212916664,198.30883111666665,49.0,91.0
873,198.15347412916665,198.38025961666665,68.0,96.0
874,198.15347412916665,198.38740246666666,73.0,99.0
875,198.15347412916665,198.44990240416664,61.0,104.0
876,198.15347412916665,198.45168811666665,64.0,109.0
877,198.58204512916663,198.73740211666666,61.0,104.0
878,198.58204512916663,198.74633067916665,64.0,99.0
879,198.58204512916663,198.75525924166664,49.0,82.0
880,198.58204512916663,198.76240209166664,56.0,71.0
881,199.01061612916664,199.16418740416665,61.0,106.0
882,199.01061612916664,199.16954454166665,49.0,106.0
883,199.01061612916664,199.16954454166665,56.0,106.0
884,199.01061612916664,199.17133025416663,64.0,106.0
885,199.43918712916664,200.52490032916666,49.0,104.0
886,199.43918712916664,200.53740031666663,68.0,101.0
887,199.43918712916664,200.54632887916665,56.0,101.0
888,199.43918712916664,200.54632887916665,61.0,101.0
889,199.43918712916664,200.55168601666665,64.0,101.0
890,200.51061462916664,200.95525704166664,52.0,62.0
891,200.72490012916666,201.23204247916664,64.0,99.0
892,201.15347112916663,202.06418450416663,47.0,61.0
893,200.72490012916666,202.08025591666666,40.0,101.0
894,202.43918412916665,203.13561200416663,57.0,107.0
895,202.43918412916665,203.13561200416663,61.0,106.0
896,202.43918412916665,203.19982219791666,54.0,94.0
897,202.86775512916665,203.37235711875,49.0,55.0
898,203.29489246041666,203.77024377291664,57.0,104.0
899,203.29489246041666,203.83010282708332,61.0,106.0
900,203.71742696041665,204.19101771249998,49.0,38.0
901,204.13996146041666,204.72622807916665,61.0,101.0
902,204.13996146041666,204.75791816666666,66.0,101.0
903,204.13996146041666,204.76848152916665,57.0,93.0
904,204.56249596041664,205.0712979208333,49.0,54.0
905,202.43918412916665,205.12587529374997,42.0,106.0
906,204.98503046041665,205.54312811249997,57.0,120.0
907,204.98503046041665,205.55897315624998,66.0,104.0
908,204.98503046041665,205.59066324375,61.0,115.0
909,205.40756496041664,205.61355052916664,42.0,104.0
910,205.83009946041665,206.29312685,57.0,101.0
911,205.83009946041665,206.4181266395833,61.0,104.0
912,205.83009946041665,206.8424217,45.0,93.0
913,206.25263396041666,206.84418226041666,52.0,46.0
914,206.67516846041664,207.40227991249998,64.0,101.0
915,206.67516846041664,207.4110827145833,57.0,113.0
916,206.67516846041664,207.41460383541664,61.0,106.0
917,207.52023746041664,208.11530688124998,61.0,104.0
918,207.52023746041664,208.12234912291666,64.0,91.0
919,207.52023746041664,208.1241096833333,57.0,96.0
920,207.94277196041665,208.44629223958333,52.0,66.0
921,207.52023746041664,208.50967241458332,45.0,83.0
922,208.36530646041666,208.69805237916665,61.0,109.0
923,208.36530646041666,208.71917910416664,57.0,117.0
924,208.36530646041666,208.73502414791665,64.0,104.0
925,208.78784096041664,208.88115066249998,45.0,70.0
926,209.21037546041666,209.65931836666664,54.0,96.0
927,209.21037546041666,209.67868453124998,62.0,99.0
928,209.21037546041666,209.69981125624997,57.0,99.0
929,210.05544446041665,210.73218029166665,57.0,120.0
930,210.05544446041665,210.76478894166664,62.0,113.0
931,210.4785574583333,210.9568176583333,54.0,99.0
932,209.63290996041664,211.4350778583333,45.0,49.0
933,210.91333945833333,211.45138218333332,57.0,104.0
934,209.21037546041666,211.46044014166665,38.0,107.0
935,210.91333945833333,211.48761401666664,62.0,107.0
936,211.3481214583333,211.5383385833333,54.0,73.0
937,211.78290345833332,211.985801725,54.0,106.0
938,211.78290345833332,212.12348269166665,57.0,120.0
939,211.78290345833332,212.1633377083333,62.0,113.0
940,212.64909147916663,213.19292210416663,64.0,101.0
941,212.64530360416663,213.20482685416664,61.0,109.0
942,212.65098541666663,213.23855697916665,56.0,101.0
943,213.58071935416666,213.8536360208333,56.0,115.0
944,212.64530360416663,214.15155267083333,49.0,101.0
945,213.09569997916662,214.1984276458333,52.0,73.0
946,214.09530268749998,214.51092747916664,56.0,80.0
947,213.57863602083333,214.52878461249998,64.0,106.0
948,214.63369527083333,214.9681796125,56.0,104.0
949,214.6359274125,215.30072664375,61.0,106.0
950,215.16865122708333,215.54572075208335,56.0,85.0
951,215.80592466458333,216.21663868333334,64.0,109.0
952,215.80847568333334,216.22684275833333,61.0,109.0
953,215.80082262708333,216.26255702083333,56.0,109.0
954,216.40796508958334,216.47939361458333,61.0,64.0
955,214.6359274125,216.56102621458334,49.0,106.0
956,216.42072018333334,217.03041366458334,68.0,109.0
957,217.06867894583334,217.46408685208334,61.0,96.0
958,217.06102588958333,217.50745417083334,66.0,99.0
959,217.93347430208334,218.17071904583335,54.0,66.0
960,218.21153534583334,218.42326990208335,56.0,101.0
961,218.42582092083333,218.52786167083335,57.0,113.0
962,218.66816770208334,219.44367740208335,61.0,99.0
963,217.64520918333335,219.50235083333334,49.0,43.0
964,218.97939198958335,219.50490185208335,66.0,67.0
965,217.06867894583334,219.54061611458334,42.0,106.0
966,220.01255458333333,222.54826722083334,69.0,96.0
967,220.09928922083333,222.56357333333335,78.0,94.0
968,219.93347300208333,222.58653250208334,66.0,87.0
969,219.95898318958334,222.62734880208333,49.0,61.0
970,219.83653428958334,222.65541000833335,42.0,61.0
