,start,end,pitch,velocity
0,46.597295037500004,46.770342706250005,71.0,101.0
1,47.01680453750001,47.2545265875,71.0,115.0
2,47.6460687875,47.74745025,62.0,115.0
3,47.8558235375,47.964196825,71.0,115.0
4,48.0655782875,48.14074040625,69.0,106.0
5,48.275333037500005,48.436145012500006,69.0,112.0
6,48.6948425375,48.8766299875,74.0,104.0
7,49.3241067875,49.432480075,74.0,106.0
8,49.5338615375,49.762843806250004,74.0,115.0
9,49.953371037500006,50.056500456250006,72.0,109.0
10,50.16312578750001,50.6735290125,72.0,112.0
11,50.7923900375,50.8937715,71.0,109.0
12,51.0021447875,51.531775531250005,71.0,109.0
13,51.631409037500006,51.72929458750001,69.0,109.0
14,51.84116378750001,52.2536814625,67.0,112.0
15,52.4704280375,52.8794498,64.0,104.0
16,52.8899375375,53.27973178125001,62.0,106.0
17,53.30944703750001,53.57164047500001,71.0,109.0
18,53.7289565375,53.95444289375,71.0,115.0
19,54.3582207875,54.45960225,71.0,101.0
20,54.567975537500004,54.711307950000005,71.0,112.0
21,54.777730287500006,54.87037196875001,69.0,101.0
22,54.98748503750001,55.15528883750001,69.0,106.0
23,55.4069945375,55.52410760625,69.0,104.0
24,56.0362587875,56.121908643750004,74.0,109.0
25,56.246013537500005,56.50296310625001,74.0,115.0
26,56.66552303750001,56.75641676250001,72.0,106.0
27,56.87527778750001,57.4136483125,72.0,109.0
28,57.714296787500004,57.815678250000005,71.0,109.0
29,57.924051537500006,58.24217957500001,71.0,112.0
30,58.34356103750001,58.584779,69.0,112.0
31,58.7630705375,59.07420675,67.0,112.0
32,59.1825800375,59.563634500000006,69.0,112.0
33,60.02159903750001,60.3222475125,71.0,115.0
34,60.4411085375,60.923544462500004,71.0,112.0
35,61.070372787500006,61.18923381250001,71.0,112.0
36,61.28012753750001,61.61398718125001,71.0,115.0
37,61.69963703750001,61.96008251875,76.0,109.0
38,62.1191465375,62.37959201875,78.0,115.0
39,62.538656037500004,62.91621458750001,78.0,112.0
40,62.95816553750001,63.22735080000001,74.0,115.0
41,63.3776750375,63.7062908125,74.0,112.0
42,63.7971845375,64.0908411875,78.0,120.0
43,64.42644878750001,65.2654677875,79.0,115.0
44,65.4752225375,65.75839145,79.0,118.0
45,65.8947320375,66.13420204375001,79.0,109.0
46,66.31424153750001,66.604402275,74.0,115.0
47,66.7337510375,67.01866790625,74.0,106.0
48,67.1532605375,67.44516923125,74.0,109.0
49,67.5727700375,67.78252478750001,74.0,109.0
50,67.78252478750001,68.4117890375,74.0,115.0
51,68.4117890375,68.6215437875,71.0,106.0
52,68.8312985375,69.1004838,67.0,115.0
53,69.25080803750001,70.85018800625001,74.0,109.0
54,71.7678650375,71.98985548125,74.0,112.0
55,72.1873745375,72.39188541875001,74.0,115.0
56,72.60688403750001,72.82537856875001,67.0,112.0
57,73.02639353750001,73.5193172,76.0,112.0
58,73.6556577875,73.75703925,76.0,112.0
59,73.8654125375,74.11187436875001,74.0,115.0
60,74.28492203750001,74.57857868750001,71.0,109.0
61,74.7044315375,75.04178709375,69.0,112.0
62,75.3336957875,75.4490609,69.0,112.0
63,75.54345053750001,75.83186331875001,71.0,115.0
64,75.96296003750001,76.22165756250001,72.0,112.0
65,76.3824695375,76.8019790375,74.0,118.0
66,76.8019790375,76.91734415,74.0,112.0
67,77.0117337875,77.48892584375001,71.0,118.0
68,77.64099803750001,77.92941081875,69.0,112.0
69,78.0605075375,78.54469141875,68.0,120.0
70,78.6897717875,78.81737259375001,68.0,117.0
71,78.89952653750001,79.17045975625001,69.0,112.0
72,79.31903603750001,79.6196845125,71.0,112.0
73,79.7385455375,80.1790305125,72.0,112.0
74,80.1580550375,80.31537110000001,71.0,109.0
75,80.57756453750001,80.83626206250001,67.0,112.0
76,80.99707403750001,81.09670754375001,64.0,101.0
77,81.2068287875,81.804629825,67.0,112.0
78,82.8848667875,82.98799620625,71.0,112.0
79,83.0946215375,83.39002614375,72.0,115.0
80,83.51413103750001,83.61900841250001,71.0,112.0
81,83.72388578750001,84.2342890125,67.0,115.0
82,84.3531500375,84.63631895,76.0,115.0
83,84.7726595375,85.06981210000001,74.0,115.0
84,85.19216903750001,85.41415948125001,74.0,112.0
85,85.6116785375,85.81618941875,74.0,115.0
86,86.0311880375,86.24968256875,67.0,112.0
87,86.4506975375,86.94362120000001,76.0,112.0
88,87.07996178750001,87.18134325,76.0,112.0
89,87.2897165375,87.53617836875,74.0,115.0
90,87.7092260375,88.0028826875,71.0,109.0
91,88.1287355375,88.46609109375001,69.0,112.0
92,88.75799978750001,88.8733649,69.0,112.0
93,88.9677545375,89.25616731875,71.0,115.0
94,89.3872640375,89.6459615625,72.0,112.0
95,89.8067735375,90.22628303750001,74.0,118.0
96,90.22628303750001,90.34164815000001,74.0,112.0
97,90.4360377875,90.91322984375,74.0,118.0
98,91.0653020375,91.35371481875,78.0,112.0
99,91.48481153750001,91.96899541875001,76.0,120.0
100,92.29411528125,92.50387003125,76.0,109.0
101,92.60874740625,92.7713073375,74.0,109.0
102,92.87793266875,93.02825690625001,71.0,112.0
103,93.15410975625001,93.72044758125,72.0,115.0
104,93.9808930625,94.18889985625,72.0,115.0
105,94.28678540625,94.45284125,71.0,112.0
106,94.5472308875,94.70454695000001,71.0,109.0
107,94.83389571250001,95.242917475,67.0,112.0
108,95.2603970375,95.59950055,62.0,115.0
109,95.6799065375,96.51892553750001,69.0,112.0
110,96.51892553750001,98.6164730375,71.0,109.0
111,99.004519325,99.22301385625,76.0,109.0
112,99.3156555375,99.47996342500001,74.0,112.0
113,99.60581627500001,99.76138438125001,71.0,109.0
114,99.86800971250001,100.5042657875,72.0,109.0
115,100.696540975,100.8888161625,72.0,112.0
116,100.99544149375001,101.19820441875001,71.0,115.0
117,101.27861040625001,101.43243055625001,69.0,106.0
118,101.55129158125001,101.913118525,67.0,112.0
119,101.9725490375,102.0774264125,62.0,115.0
120,102.1823037875,102.318644375,62.0,112.0
121,102.3920585375,103.14193176875001,69.0,118.0
122,103.23107753750001,106.48926798750001,67.0,115.0
123,117.07489103750001,117.24793870625001,71.0,101.0
124,117.49440053750001,117.73212258750002,71.0,115.0
125,118.1236647875,118.22504625,62.0,115.0
126,118.3334195375,118.44179282500001,71.0,115.0
127,118.54317428750001,118.61833640625001,69.0,106.0
128,118.75292903750001,118.91374101250001,69.0,112.0
129,119.17243853750001,119.35422598750002,74.0,104.0
130,119.8017027875,119.910076075,74.0,106.0
131,120.01145753750001,120.24043980625001,74.0,115.0
132,120.43096703750001,120.53409645625001,72.0,109.0
133,120.64072178750001,121.1511250125,72.0,112.0
134,121.2699860375,121.3713675,71.0,109.0
135,121.4797407875,122.00937153125001,71.0,109.0
136,122.10900503750001,122.20689058750001,69.0,109.0
137,122.31875978750001,122.7312774625,67.0,112.0
138,122.9480240375,123.35704580000001,64.0,104.0
139,123.36753353750001,123.75732778125001,62.0,106.0
140,123.78704303750001,124.04923647500001,71.0,109.0
141,124.20655253750002,124.43203889375,71.0,115.0
142,124.83581678750001,124.93719825000001,71.0,101.0
143,125.04557153750001,125.18890395000001,71.0,112.0
144,125.25532628750001,125.34796796875001,69.0,101.0
145,125.46508103750001,125.63288483750001,69.0,106.0
146,125.88459053750002,126.00170360625,69.0,104.0
147,126.51385478750001,126.59950464375001,74.0,109.0
148,126.72360953750001,126.98055910625001,74.0,115.0
149,127.14311903750001,127.23401276250002,72.0,106.0
150,127.35287378750002,127.8912443125,72.0,109.0
151,128.19189278750002,128.29327425000002,71.0,109.0
152,128.40164753750003,128.71977557500003,71.0,112.0
153,128.82115703750003,129.06237500000003,69.0,112.0
154,129.2406665375,129.55180275,67.0,112.0
155,129.6601760375,130.0412305,69.0,112.0
156,130.49919503750002,130.79984351250002,71.0,115.0
157,130.91870453750002,131.40114046250002,71.0,112.0
158,131.54796878750003,131.66682981250003,71.0,112.0
159,131.75772353750003,132.09158318125003,71.0,115.0
160,132.17723303750003,132.43767851875,76.0,109.0
161,132.5967425375,132.85718801875,78.0,115.0
162,133.0162520375,133.3938105875,78.0,112.0
163,133.4357615375,133.70494680000002,74.0,115.0
164,133.85527103750002,134.18388681250002,74.0,112.0
165,134.27478053750002,134.56843718750002,78.0,120.0
166,134.90404478750003,135.7430637875,79.0,115.0
167,135.9528185375,136.23598745,79.0,118.0
168,136.3723280375,136.61179804375,79.0,109.0
169,136.79183753750002,137.08199827500002,74.0,115.0
170,137.21134703750002,137.49626390625002,74.0,106.0
171,137.63085653750002,137.92276523125003,74.0,109.0
172,138.05036603750003,138.26012078750003,74.0,109.0
173,138.26012078750003,138.8893850375,74.0,115.0
174,138.8893850375,139.0991397875,71.0,106.0
175,139.3088945375,139.5780798,67.0,115.0
176,139.7284040375,141.32778400625003,74.0,109.0
177,142.2454610375,142.46745148125,74.0,112.0
178,142.6649705375,142.86948141875,74.0,115.0
179,143.08448003750001,143.30297456875002,67.0,112.0
180,143.50398953750002,143.99691320000002,76.0,112.0
181,144.13325378750002,144.23463525000003,76.0,112.0
182,144.34300853750003,144.58947036875003,74.0,115.0
183,144.76251803750003,145.05617468750003,71.0,109.0
184,145.18202753750003,145.51938309375,69.0,112.0
185,145.8112917875,145.9266569,69.0,112.0
186,146.0210465375,146.30819181458335,71.0,115.0
187,146.43840009583334,146.6953444375,72.0,112.0
188,146.85506659583334,147.27173309583335,74.0,118.0
189,147.27173309583335,147.38631638333334,74.0,112.0
190,147.48006634583334,147.95402448958333,71.0,118.0
191,148.10506609583334,148.39152431458334,69.0,112.0
192,148.52173259583336,149.00263518125,68.0,120.0
193,149.14673234583336,149.27346840625,68.0,117.0
194,149.35506559583334,149.62416271041667,69.0,112.0
195,149.77173209583336,150.07034308750002,71.0,112.0
196,150.18839859583335,150.62589842083335,72.0,112.0
197,150.60506509583334,150.76131503333335,71.0,109.0
198,151.02173159583336,151.27867593750003,67.0,112.0
199,151.43839809583335,151.53735638958335,64.0,101.0
200,151.64673134583336,152.2460072791667,67.0,112.0
201,153.33403490416669,153.43790809166669,71.0,112.0
202,153.54530240416668,153.84283746666668,72.0,115.0
203,153.9678374041667,154.07347115416667,71.0,112.0
204,154.17910490416668,154.69318915416667,67.0,115.0
205,154.81290740416668,155.09811852916667,76.0,115.0
206,155.2354424041667,155.53473802916668,74.0,115.0
207,155.65797740416667,155.88156884166668,74.0,112.0
208,156.08051240416668,156.28649821666667,74.0,115.0
209,156.5030474041667,156.72311771666668,67.0,112.0
210,156.92558240416668,157.4165593104167,76.0,112.0
211,157.55197592291668,157.65267032708334,76.0,112.0
212,157.7603091729167,158.0051007416667,74.0,115.0
213,158.17697567291668,158.46864222291669,71.0,109.0
214,158.59364217291667,158.92871148333336,69.0,112.0
215,159.21864192291667,159.33322521041669,69.0,112.0
216,159.42697517291668,159.71343339166668,71.0,115.0
217,159.84364167291668,160.10058601458334,72.0,112.0
218,160.2603081729167,160.67697467291669,74.0,118.0
219,160.67697467291669,160.7915579604167,74.0,112.0
220,160.8853079229167,161.36374079791668,74.0,118.0
221,161.51690973541668,161.80740254791667,78.0,112.0
222,161.93944473541669,162.42712054791667,76.0,120.0
223,162.75458517291668,162.96504575416668,76.0,109.0
224,163.0692123791667,163.23067064791667,74.0,109.0
225,163.33657338333333,163.48587887916668,71.0,112.0
226,163.61087882916667,164.1733786041667,72.0,115.0
227,164.43205905625,164.63865619583333,72.0,115.0
228,164.73587837916668,164.90080886875,71.0,112.0
229,164.99455883125,165.15080876875,71.0,109.0
230,165.27928093958334,165.68553077708333,67.0,112.0
231,165.70289188125,166.03969730208334,62.0,115.0
232,166.11955838125002,166.95289138125,69.0,112.0
233,166.95289138125,169.03622388125,71.0,109.0
234,169.42164039375,169.63865419583334,76.0,109.0
235,169.73066804791668,169.89386242708335,74.0,112.0
236,170.01886237708334,170.1733762041667,71.0,109.0
237,170.27927893958335,170.91122313125,72.0,109.0
238,171.10219527708335,171.29316742291667,72.0,112.0
239,171.39907015833333,171.60045896666668,71.0,115.0
240,171.68032004583335,171.83309776250002,69.0,106.0
241,171.95115327083334,172.31052812708333,67.0,112.0
242,172.36955588125,172.47372250625,62.0,115.0
243,172.57788913125,172.71330574375,62.0,112.0
244,172.78622238125,173.53101375,69.0,118.0
245,173.61955538125,176.89955668750002,67.0,115.0
246,200.96543401666668,201.18289982083337,76.0,112.0
247,201.3763930166667,201.57673552916668,76.0,115.0
248,201.7873520166667,202.00139316250002,69.0,112.0
249,202.19831101666668,202.6886695291667,78.0,112.0
250,202.8250101166667,202.9263915791667,78.0,112.0
251,203.0347648666667,203.2812266979167,76.0,115.0
252,203.4542743666667,203.7479310166667,73.0,109.0
253,203.8737838666667,204.2111394229167,71.0,112.0
254,204.5030481166667,204.6184132291667,71.0,112.0
255,204.7128028666667,205.0012156479167,73.0,115.0
256,205.1323123666667,205.3910098916667,74.0,112.0
257,205.5518218666667,205.9713313666667,76.0,118.0
258,205.9713313666667,206.0866964791667,76.0,112.0
259,206.1810861166667,206.6582781729167,73.0,118.0
260,206.8103503666667,207.0987631479167,71.0,112.0
261,207.2298598666667,207.7140437479167,70.0,120.0
262,207.8591241166667,207.9867249229167,70.0,117.0
263,208.0688788666667,208.3398120854167,71.0,112.0
264,208.4883883666667,208.7890368416667,73.0,112.0
265,208.9078978666667,209.3483828416667,74.0,112.0
266,209.3274073666667,209.4847234291667,73.0,109.0
267,209.7469168666667,210.0056143916667,69.0,112.0
268,210.1664263666667,210.2660598729167,66.0,101.0
269,210.37618111666671,210.9739821541667,69.0,112.0
270,212.0542191166667,212.1573485354167,73.0,112.0
271,212.2639738666667,212.5593784729167,74.0,115.0
272,212.6834833666667,212.7883607416667,73.0,112.0
273,212.8932381166667,213.4036413416667,69.0,115.0
274,213.52250236666669,213.8056712791667,78.0,115.0
275,213.9420118666667,214.2391644291667,76.0,115.0
276,214.3615213666667,214.5835118104167,76.0,112.0
277,214.7810308666667,214.9855417479167,76.0,115.0
278,215.2005403666667,215.4190348979167,69.0,112.0
279,215.6200498666667,216.1129735291667,78.0,112.0
280,216.2493141166667,216.3506955791667,78.0,112.0
281,216.4590688666667,216.7055306979167,76.0,115.0
282,216.87857836666672,217.1722350166667,73.0,109.0
283,217.2980878666667,217.6354434229167,71.0,112.0
284,217.9273521166667,218.0427172291667,71.0,112.0
285,218.1371068666667,218.4255196479167,73.0,115.0
286,218.5566163666667,218.8153138916667,74.0,112.0
287,218.9761258666667,219.3956353666667,76.0,118.0
288,219.3956353666667,219.5110004791667,76.0,112.0
289,219.6053901166667,220.08258217291672,76.0,118.0
290,220.2346543666667,220.5230671479167,80.0,112.0
291,220.6541638666667,221.1383477479167,78.0,120.0
292,221.4634676104167,221.6732223604167,78.0,109.0
293,221.7780997354167,221.9406596666667,76.0,109.0
294,222.0472849979167,222.1976092354167,73.0,112.0
295,222.3234620854167,222.8897999104167,74.0,115.0
296,223.15024539166672,223.3582521854167,74.0,115.0
297,223.4561377354167,223.6221935791667,73.0,112.0
298,223.7165832166667,223.8738992791667,73.0,109.0
299,224.0032480416667,224.4122698041667,69.0,112.0
300,224.4297493666667,224.7688528791667,64.0,115.0
301,224.8492588666667,225.6882778666667,71.0,112.0
302,225.6882778666667,227.84839834375006,73.0,109.0
303,228.25648614375007,228.48436949166674,78.0,109.0
304,228.57701117291674,228.74131906041674,76.0,112.0
305,228.86717191041674,229.02274001666675,73.0,109.0
306,229.12936534791675,229.76562142291675,74.0,109.0
307,229.95789661041675,230.15017179791673,74.0,112.0
308,230.25679712916673,230.45956005416673,73.0,115.0
309,230.53996604166673,230.69378619166673,71.0,106.0
310,230.81264721666673,231.17447416041674,69.0,112.0
311,231.23390467291674,231.33878204791674,64.0,115.0
312,231.44365942291674,231.58000001041674,64.0,112.0
313,231.65341417291674,232.40328740416675,71.0,118.0
314,232.49243317291675,232.91194267291675,69.0,115.0
315,232.91194267291675,233.13043720416675,76.0,109.0
316,233.33145217291673,233.63035269166673,76.0,109.0
317,233.75096167291673,233.84535131041673,76.0,106.0
318,233.96071642291673,234.44140439166674,76.0,112.0
319,234.58998067291674,234.87489754166674,74.0,115.0
320,235.00949017291674,235.29965091041674,73.0,112.0
321,235.42025989166675,235.68245332916675,74.0,109.0
322,235.84850917291675,236.12643421666675,74.0,112.0
323,236.26801867291675,236.58789466666673,73.0,120.0
324,236.68752817291673,236.94447774166673,73.0,112.0
325,237.10703767291673,237.33951585416673,73.0,109.0
326,237.52654717291674,237.94605667291674,73.0,112.0
327,237.94605667291674,238.25194901666674,71.0,106.0
328,238.36556617291674,238.48442719791674,69.0,109.0
329,238.57532092291675,238.69243399166675,71.0,112.0
330,238.78507567291675,239.41783583541675,69.0,115.0
331,239.62409467291675,239.84258920416673,76.0,109.0
332,240.04360417291673,240.34250469166673,76.0,109.0
333,240.46311367291673,240.55750331041673,76.0,106.0
334,240.67286842291674,241.15355639166674,76.0,112.0
335,241.30213267291674,241.58704954166674,74.0,115.0
336,241.72164217291675,242.01180291041675,73.0,112.0
337,242.13241189166675,242.39460532916675,74.0,109.0
338,242.56066117291675,242.83858621666676,74.0,112.0
339,242.98017067291676,243.30004666666673,73.0,120.0
340,243.39968017291673,243.65662974166673,73.0,112.0
341,243.81918967291674,244.05166785416674,73.0,109.0
342,244.23869917291674,244.65820867291674,73.0,112.0
343,244.65820867291674,244.96410101666675,76.0,106.0
344,245.07771817291675,245.19657919791675,71.0,109.0
345,245.28747292291675,245.40458599166675,69.0,112.0
346,245.49722767291675,246.12998783541673,69.0,115.0
347,246.33624667291673,246.55474120416673,76.0,109.0
348,246.75575617291673,247.05465669166674,76.0,109.0
349,247.17526567291674,247.26965531041674,76.0,106.0
350,247.38502042291674,247.86570839166674,76.0,112.0
351,248.01428467291674,248.29920154166675,74.0,115.0
352,248.43379417291675,248.72395491041675,73.0,112.0
353,248.84456389166675,249.10675732916675,74.0,109.0
354,249.27281317291676,249.55073821666673,74.0,112.0
355,249.69232267291673,250.01219866666673,73.0,120.0
356,250.11183217291673,250.36878174166674,73.0,112.0
357,250.53134167291674,250.76381985416674,73.0,109.0
358,250.95085117291674,251.37036067291675,73.0,112.0
359,251.37036067291675,251.67625301666675,71.0,106.0
360,251.78987017291675,251.90873119791675,69.0,109.0
361,251.99962492291675,252.11673799166675,71.0,112.0
362,252.20937967291675,252.84213983541673,69.0,115.0
363,253.04839867291673,253.26689320416673,76.0,109.0
364,253.46790817291674,253.76680869166674,76.0,109.0
365,253.88741767291674,253.98180731041674,76.0,106.0
366,254.09717242291674,254.57786039166675,76.0,112.0
367,254.72643667291675,255.01135354166675,74.0,115.0
368,255.14594617291675,255.43610691041675,73.0,112.0
369,255.55671589166676,255.81890932916673,74.0,109.0
370,255.98496517291676,256.26289021666673,74.0,112.0
371,256.40447467291676,256.72435066666674,73.0,120.0
372,256.82398417291677,257.08093374166674,73.0,112.0
373,257.24349367291677,257.47597185416674,73.0,109.0
374,257.6630031729168,258.0825126729167,73.0,112.0
375,258.0825126729167,258.38840501666675,76.0,106.0
376,258.5020221729167,258.6208831979167,71.0,109.0
377,258.7117769229167,258.82888999166676,69.0,112.0
378,258.92153167291673,259.55429183541673,69.0,115.0
