,start,end,pitch,velocity
0,19.329177537499998,19.9339704,55.0,82.0
1,19.329177537499998,19.95669383125,59.0,96.0
2,19.748687037499998,20.31152895,50.0,76.0
3,20.1681965375,20.7729894,59.0,99.0
4,20.1681965375,20.78872100625,55.0,99.0
5,20.5877060375,20.97750028125,50.0,27.0
6,21.0072155375,21.48091168125,55.0,78.0
7,21.0072155375,21.49489533125,59.0,87.0
8,21.4267250375,21.926640525,50.0,62.0
9,21.8462345375,22.30944294375,55.0,104.0
10,21.8462345375,22.41432031875,59.0,109.0
11,19.329177537499998,22.456271268749997,43.0,101.0
12,22.2657440375,22.57163638125,50.0,74.0
13,22.6852535375,23.22012815,55.0,91.0
14,22.6852535375,23.22012815,60.0,96.0
15,23.1047630375,23.672848818749998,50.0,56.0
16,23.5242725375,24.088862406249998,55.0,96.0
17,23.5242725375,24.125569487499998,60.0,96.0
18,24.3632915375,24.81426425,60.0,104.0
19,24.3632915375,24.8317438125,55.0,106.0
20,24.7828010375,25.303691999999998,50.0,61.0
21,25.202310537499997,25.6952342,55.0,99.0
22,22.6852535375,25.8805175625,43.0,91.0
23,25.202310537499997,25.9364521625,60.0,101.0
24,25.6218200375,25.96616741875,50.0,73.0
25,26.041329537499998,26.54998480625,54.0,47.0
26,26.041329537499998,26.597179625,57.0,89.0
27,26.041329537499998,26.625146925,50.0,71.0
28,26.880348537499998,27.29811008125,54.0,99.0
29,26.880348537499998,27.366280375,57.0,104.0
30,26.4608390375,27.93786206875,45.0,59.0
31,27.7193675375,28.0444874,54.0,59.0
32,27.7193675375,28.247250325,57.0,76.0
33,28.138877037500002,28.2682258,50.0,37.0
34,26.041329537499998,28.8555391,38.0,87.0
35,28.5583865375,29.0757815875,54.0,79.0
36,28.977896037500003,29.16143144375,50.0,91.0
37,28.5583865375,29.203382393749997,57.0,96.0
38,28.5583865375,29.271552687499998,62.0,101.0
39,29.3974055375,29.94801175625,55.0,94.0
40,29.3974055375,29.9707351875,60.0,94.0
41,29.8169150375,30.521341406250002,50.0,74.0
42,30.2364245375,30.89540404375,55.0,104.0
43,30.2364245375,30.91288360625,60.0,104.0
44,31.0754435375,31.5369039875,55.0,76.0
45,31.0754435375,31.55438355,60.0,87.0
46,31.4949530375,32.00011239375,50.0,62.0
47,31.9144625375,32.293769043750004,55.0,104.0
48,31.9144625375,32.45807693125,60.0,104.0
49,29.3974055375,32.51051561875,43.0,91.0
50,32.333972037500004,32.65384803125,50.0,85.0
51,32.7534815375,33.33904688125,55.0,91.0
52,32.7534815375,33.3407948375,59.0,91.0
53,33.1729910375,33.66766265625,50.0,54.0
54,33.5925005375,34.1693261,59.0,106.0
55,33.5925005375,34.1728220125,55.0,104.0
56,34.012010037500005,34.5049337,50.0,34.0
57,34.4315195375,34.92619115625,59.0,80.0
58,34.4315195375,35.015336925,55.0,69.0
59,34.8510290375,35.30200175,50.0,31.0
60,35.2705385375,35.41387095,55.0,99.0
61,32.7534815375,35.770454025,43.0,87.0
62,35.690048037500006,36.50983951875,55.0,73.0
63,35.2705385375,36.54829455625,62.0,109.0
64,35.2705385375,36.5570343375,59.0,104.0
65,36.5290670375,37.060445737500004,50.0,55.0
66,36.9485765375,37.546377575,55.0,101.0
67,36.9485765375,37.5638571375,60.0,99.0
68,37.3680860375,37.83479035625,50.0,47.0
69,37.787595537499996,38.26653555,55.0,69.0
70,37.787595537499996,38.26653555,60.0,74.0
71,38.2071050375,38.679053225000004,50.0,43.0
72,38.626614537500004,39.29957769375,55.0,106.0
73,36.1095575375,39.3153093,43.0,96.0
74,39.0461240375,39.34502455625,50.0,69.0
75,38.626614537500004,39.392219374999996,60.0,106.0
76,39.4656335375,39.5914863875,38.0,94.0
77,39.4656335375,39.77676975,57.0,89.0
78,39.4656335375,39.86241960625,62.0,99.0
79,40.304652537500004,40.68745495625,66.0,107.0
80,40.304652537500004,40.77135685625,62.0,101.0
81,40.7241620375,41.210093875,57.0,64.0
82,41.1436715375,41.54395351875,69.0,99.0
83,41.1436715375,41.70651345,62.0,91.0
84,41.1436715375,41.7239930125,66.0,91.0
85,41.5631810375,41.965210975000005,57.0,67.0
86,39.8851430375,42.071836306250006,50.0,87.0
87,41.982690537500005,42.12077908125001,69.0,104.0
88,41.982690537500005,42.13301477500001,66.0,117.0
89,41.982690537500005,42.16098207500001,62.0,106.0
90,42.8217095375,43.412518750000004,55.0,94.0
91,42.8217095375,43.445729918750004,60.0,96.0
92,43.2412190375,43.704427443750006,50.0,59.0
93,43.660728537500006,44.13966855,55.0,106.0
94,43.660728537500006,44.3389355625,60.0,101.0
95,44.0802380375,44.56791783125,50.0,55.0
96,44.4997475375,45.144743393750005,55.0,94.0
97,44.4997475375,45.156979087500005,59.0,99.0
98,45.33876653750001,46.1987610125,55.0,80.0
99,46.1777855375,46.1987610125,55.0,91.0
100,45.33876653750001,46.21099670625,59.0,87.0
101,46.1777855375,46.21099670625,59.0,96.0
102,44.9192570375,46.2127446625,50.0,43.0
103,42.8217095375,46.26693130625,43.0,99.0
104,46.1777855375,46.26693130625,43.0,101.0
105,46.1777855375,46.604286862500004,62.0,101.0
106,47.01680453750001,47.209079725,55.0,94.0
107,47.01680453750001,47.2265592875,59.0,106.0
108,47.01680453750001,47.2300552,62.0,104.0
109,47.8558235375,48.450128662500006,62.0,104.0
110,47.8558235375,48.48508778750001,66.0,96.0
111,47.8558235375,48.48683574375001,57.0,91.0
112,47.8558235375,48.8486626875,50.0,99.0
113,48.6948425375,48.85041064375,62.0,109.0
114,48.6948425375,48.8521586,66.0,113.0
115,48.6948425375,48.8836218125,57.0,106.0
116,49.5338615375,50.17361352500001,55.0,94.0
117,49.5338615375,50.18235330625001,60.0,96.0
118,50.3728805375,50.552920031250004,64.0,101.0
119,50.3728805375,50.559911856250004,55.0,104.0
120,49.5338615375,50.570399593750004,48.0,87.0
121,50.3728805375,50.582635287500004,60.0,99.0
122,51.2118995375,51.92506568750001,62.0,101.0
123,51.2118995375,51.92856160000001,57.0,99.0
124,51.2118995375,51.94429320625001,66.0,99.0
125,52.05091853750001,52.2187223375,66.0,110.0
126,51.2118995375,52.229210075,50.0,96.0
127,52.05091853750001,52.229210075,62.0,104.0
128,52.05091853750001,52.2641692,57.0,99.0
129,52.8899375375,53.34091025000001,62.0,101.0
130,52.8899375375,53.35489390000001,59.0,87.0
131,52.8899375375,53.36363368125001,55.0,85.0
132,53.30944703750001,53.86005325625,50.0,58.0
133,53.7289565375,53.91948376875,55.0,101.0
134,52.8899375375,53.96143471875,43.0,99.0
135,53.7289565375,53.9946458875,59.0,106.0
136,53.7289565375,54.02086523125,62.0,106.0
137,54.567975537500004,54.88785153125001,57.0,94.0
138,54.567975537500004,55.16577657500001,62.0,101.0
139,55.4069945375,55.739106225,66.0,101.0
140,55.4069945375,55.7426021375,62.0,106.0
141,54.567975537500004,55.8195122125,50.0,101.0
142,54.98748503750001,55.8334958625,57.0,106.0
143,56.246013537500005,56.43129690000001,55.0,94.0
144,56.246013537500005,56.79487180000001,64.0,96.0
145,56.246013537500005,56.80885545000001,60.0,89.0
146,56.66552303750001,57.03084589375,55.0,82.0
147,57.0850325375,57.34897393125,64.0,109.0
148,56.246013537500005,57.4486074375,48.0,99.0
149,57.0850325375,57.5325093375,60.0,106.0
150,57.5045420375,57.60417554375,55.0,87.0
151,57.924051537500006,58.5533157875,62.0,106.0
152,57.924051537500006,58.5603076125,57.0,101.0
153,57.924051537500006,58.57603921875,66.0,99.0
154,57.924051537500006,58.82774491875,50.0,101.0
155,58.7630705375,58.88717543125,62.0,112.0
156,58.7630705375,58.899411125,57.0,106.0
157,58.7630705375,58.93262229375,66.0,113.0
158,59.60208953750001,60.2348497,64.0,112.0
159,59.60208953750001,60.2383456125,59.0,106.0
160,60.02159903750001,60.62813985625,54.0,63.0
161,59.60208953750001,60.633383725,47.0,101.0
162,60.4411085375,60.6718387625,59.0,109.0
163,60.4411085375,60.872853731250004,64.0,115.0
164,60.860618037500004,61.122811475000006,59.0,89.0
165,61.28012753750001,61.87967653125,59.0,101.0
166,61.28012753750001,61.87967653125,63.0,101.0
167,61.69963703750001,62.12264245,54.0,68.0
168,62.1191465375,62.32715333125,59.0,101.0
169,61.28012753750001,62.39707158125,47.0,89.0
170,62.1191465375,62.528168300000004,66.0,107.0
171,62.1191465375,62.536908081250004,63.0,113.0
172,62.538656037500004,62.80259743125001,59.0,99.0
173,62.95816553750001,63.19239167500001,59.0,99.0
174,62.95816553750001,63.49304015,62.0,106.0
175,62.95816553750001,63.52275540625,67.0,99.0
176,63.3776750375,63.64161643125,59.0,78.0
177,63.7971845375,63.9789719875,59.0,104.0
178,62.95816553750001,64.157263525,43.0,94.0
179,63.7971845375,64.20096243125,62.0,109.0
180,63.7971845375,64.32681528125,67.0,104.0
181,64.2166940375,64.367018275,59.0,85.0
182,64.63620353750001,64.96307135625001,57.0,104.0
183,64.63620353750001,65.25672800625,61.0,104.0
184,65.0557130375,65.5521326125,52.0,78.0
185,65.4752225375,65.64652225,57.0,104.0
186,64.63620353750001,65.8737565625,45.0,106.0
187,65.4752225375,65.96290233125,61.0,113.0
188,65.4752225375,66.05554401250001,64.0,104.0
189,65.8947320375,66.09050313750001,57.0,91.0
190,66.31424153750001,66.80891315625,60.0,96.0
191,66.31424153750001,66.85785593125,57.0,106.0
192,66.7337510375,67.28086134375,52.0,47.0
193,67.1532605375,67.31931638125,57.0,106.0
194,66.31424153750001,67.45915288125,45.0,104.0
195,67.1532605375,67.64268828750001,64.0,101.0
196,67.1532605375,67.65667193750001,60.0,106.0
197,67.5727700375,67.82971960625001,57.0,106.0
198,67.99227953750001,68.2369934125,55.0,96.0
199,67.99227953750001,68.562113275,64.0,99.0
200,67.99227953750001,68.57085305625,60.0,91.0
201,68.4117890375,68.65475495625,55.0,85.0
202,68.8312985375,68.9781268625,55.0,104.0
203,67.99227953750001,69.0060941625,48.0,96.0
204,68.8312985375,69.32771811250001,60.0,109.0
205,69.25080803750001,69.36617315000001,55.0,82.0
206,68.8312985375,69.39763636250001,64.0,101.0
207,69.67031753750001,69.90978754375,57.0,94.0
208,69.67031753750001,70.29084200625,62.0,101.0
209,70.0898270375,70.31181748125,57.0,87.0
210,70.5093365375,70.5722629625,57.0,99.0
211,69.67031753750001,71.06693458125001,50.0,96.0
212,70.5093365375,71.11063348750001,62.0,115.0
213,70.5093365375,71.11412940000001,66.0,117.0
214,70.92884603750001,71.20502312500001,57.0,80.0
215,71.34835553750001,72.27477235,66.0,110.0
216,71.34835553750001,72.2782682625,62.0,109.0
217,71.34835553750001,72.28351213125,57.0,106.0
218,71.34835553750001,72.37440585625001,50.0,106.0
219,73.02639353750001,73.54903245625,67.0,109.0
220,73.4459030375,73.708096475,60.0,96.0
221,73.8654125375,74.06293159375001,60.0,109.0
222,73.02639353750001,74.39504328125001,48.0,99.0
223,73.8654125375,74.55061138750001,67.0,109.0
224,73.4459030375,74.55585525625001,55.0,80.0
225,74.28492203750001,74.57683073125001,60.0,106.0
226,74.7044315375,74.97536475625,62.0,106.0
227,74.7044315375,75.10820943125,66.0,117.0
228,75.1239410375,75.4665404625,62.0,112.0
229,75.54345053750001,75.93149682500001,66.0,120.0
230,74.7044315375,76.02239055000001,50.0,109.0
231,75.54345053750001,76.05385376250001,57.0,96.0
232,75.96296003750001,76.38072158125,62.0,115.0
233,76.3824695375,76.84567794375,66.0,120.0
234,76.8019790375,77.0816520375,59.0,101.0
235,77.22148853750001,77.41376372500001,59.0,115.0
236,77.22148853750001,77.61652665000001,54.0,53.0
237,76.3824695375,77.66197351250001,47.0,96.0
238,77.22148853750001,77.66546942500001,62.0,112.0
239,77.64099803750001,77.80880183750001,59.0,115.0
240,78.0605075375,78.4940006875,68.0,101.0
241,78.0605075375,78.5219679875,64.0,101.0
242,78.4800170375,79.03237121250001,59.0,82.0
243,78.89952653750001,79.17220771250001,64.0,118.0
244,78.0605075375,79.24387391875001,52.0,109.0
245,78.89952653750001,79.33826355625001,69.0,120.0
246,79.31903603750001,79.69135071875,64.0,115.0
247,79.7385455375,80.1790305125,72.0,104.0
248,79.7385455375,80.40976073750001,57.0,106.0
249,80.1580550375,80.63524709375001,64.0,115.0
250,80.57756453750001,80.77158768125001,57.0,112.0
251,80.57756453750001,81.03552907500001,69.0,115.0
252,80.57756453750001,81.12817075625,72.0,106.0
253,80.99707403750001,81.27499908125,64.0,112.0
254,81.4165835375,81.84483281875,66.0,113.0
255,81.4165835375,81.84483281875,69.0,106.0
256,81.4165835375,81.99340910000001,50.0,109.0
257,81.8360930375,82.11052216875001,62.0,112.0
258,82.25560253750001,82.43389407500001,62.0,109.0
259,82.25560253750001,82.66637225625,66.0,123.0
260,82.25560253750001,82.671616125,69.0,109.0
261,82.25560253750001,82.7240548125,50.0,101.0
262,82.25560253750001,82.755518025,57.0,96.0
263,82.6751120375,82.95828095,62.0,115.0
264,83.0946215375,83.30262833125,64.0,94.0
265,83.0946215375,83.56656972500001,69.0,106.0
266,83.51413103750001,84.0175424375,64.0,109.0
267,83.0946215375,84.2622563125,45.0,106.0
268,83.93364053750001,84.321686825,69.0,115.0
269,83.93364053750001,84.5768884375,72.0,115.0
270,84.3531500375,84.7726595375,64.0,115.0
271,84.7726595375,85.14672217500001,66.0,107.0
272,84.7726595375,85.17818538750001,69.0,106.0
273,85.19216903750001,85.6955804375,62.0,118.0
274,85.6116785375,85.8563924125,66.0,123.0
275,85.8214332875,86.01196051875,67.0,109.0
276,86.0311880375,86.26716213125,69.0,112.0
277,84.7726595375,86.31960081875,50.0,112.0
278,85.6116785375,86.31960081875,57.0,89.0
279,86.2409427875,86.42098228125,62.0,115.0
280,86.4506975375,86.97333645625001,67.0,109.0
281,86.87020703750001,87.13240047500001,60.0,96.0
282,87.2897165375,87.48723559375,60.0,109.0
283,86.4506975375,87.81934728125,48.0,99.0
284,87.2897165375,87.9749153875,67.0,109.0
285,86.87020703750001,87.98015925625,55.0,80.0
286,87.7092260375,88.00113473125,60.0,106.0
287,88.1287355375,88.39966875625001,62.0,106.0
288,88.1287355375,88.53251343125001,66.0,117.0
289,88.54824503750001,88.8908444625,62.0,112.0
290,88.9677545375,89.355800825,66.0,120.0
291,88.1287355375,89.44669455,50.0,109.0
292,88.9677545375,89.4781577625,57.0,96.0
293,89.3872640375,89.80502558125,62.0,115.0
294,89.8067735375,90.26998194375001,66.0,120.0
295,90.22628303750001,90.5059560375,59.0,101.0
296,90.6457925375,90.838067725,59.0,115.0
297,90.6457925375,91.04083065,54.0,53.0
298,89.8067735375,91.0862775125,47.0,96.0
299,90.6457925375,91.089773425,62.0,112.0
300,91.0653020375,91.2331058375,59.0,115.0
301,91.48481153750001,91.91830468750001,67.0,101.0
302,91.48481153750001,91.94627198750001,64.0,101.0
303,91.90432103750001,92.4566752125,59.0,82.0
304,92.3238305375,92.5965117125,64.0,118.0
305,91.48481153750001,92.66817791875,52.0,109.0
306,92.3238305375,92.76256755625,68.0,120.0
307,92.7433400375,93.11565471875001,64.0,115.0
308,93.16284953750001,93.60333451250001,72.0,104.0
309,93.16284953750001,93.8340647375,57.0,106.0
310,93.58235903750001,94.05955109375,64.0,115.0
311,94.0018685375,94.19589168125,57.0,112.0
312,94.0018685375,94.459833075,69.0,115.0
313,94.0018685375,94.55247475625,72.0,106.0
314,94.4213780375,94.69930308125001,64.0,112.0
315,94.84088753750001,95.26913681875,66.0,113.0
316,94.84088753750001,95.26913681875,69.0,106.0
317,94.84088753750001,95.4177131,50.0,109.0
318,95.2603970375,95.53482616875,62.0,112.0
319,95.6799065375,95.858198075,62.0,109.0
320,95.6799065375,96.09067625625,66.0,123.0
321,95.6799065375,96.095920125,69.0,109.0
322,95.6799065375,96.1483588125,50.0,101.0
323,95.6799065375,96.179822025,57.0,96.0
324,96.0994160375,96.38258495000001,62.0,115.0
325,96.51892553750001,96.77937101875001,59.0,106.0
326,96.51892553750001,97.1411979625,64.0,106.0
327,96.9384350375,97.2111162125,59.0,96.0
328,97.3579445375,97.66733279375,59.0,115.0
329,97.3579445375,97.83338863750001,64.0,112.0
330,97.3579445375,97.83688455000001,68.0,120.0
331,97.98720878750001,98.06411886250001,64.0,89.0
332,97.98720878750001,98.08159842500001,59.0,85.0
333,96.51892553750001,98.14452485000001,52.0,112.0
334,98.19696353750001,98.529075225,59.0,106.0
335,98.6164730375,98.892650125,59.0,104.0
336,98.19696353750001,98.9136256,64.0,112.0
337,98.19696353750001,99.25447706875,52.0,112.0
338,99.0359825375,99.48345933750001,64.0,112.0
339,99.0359825375,99.55862145625001,59.0,115.0
340,99.87500153750001,100.49552600625,60.0,94.0
341,99.87500153750001,100.5112576125,57.0,106.0
342,100.7140205375,100.91503550625,57.0,112.0
343,100.2945110375,100.95349054375001,52.0,73.0
344,99.87500153750001,101.06535974375001,45.0,106.0
345,100.7140205375,101.13527799375001,60.0,109.0
346,100.7140205375,101.16674120625001,64.0,109.0
347,101.13353003750001,101.41844690625001,57.0,96.0
348,101.55303953750001,101.80299728125,57.0,109.0
349,101.55303953750001,102.11413349375,62.0,106.0
350,101.9725490375,102.1613283125,57.0,87.0
351,102.3920585375,103.20136228125001,62.0,112.0
352,102.3920585375,103.21010206250001,57.0,112.0
353,102.3920585375,103.21534593125001,66.0,107.0
354,101.55303953750001,103.21709388750001,50.0,101.0
355,103.23107753750001,103.81664288125,55.0,91.0
356,103.23107753750001,103.8183908375,59.0,91.0
357,103.6505870375,104.14525865625001,50.0,54.0
358,104.0700965375,104.64692210000001,59.0,106.0
359,104.0700965375,104.65041801250001,55.0,104.0
360,104.48960603750001,104.9825297,50.0,34.0
361,104.90911553750001,105.40378715625,59.0,80.0
362,104.90911553750001,105.492932925,55.0,69.0
363,105.3286250375,105.77959775000001,50.0,31.0
364,105.74813453750001,105.89146695000001,55.0,99.0
365,103.23107753750001,106.24805002500001,43.0,87.0
366,106.16764403750001,106.98743551875,55.0,73.0
367,105.74813453750001,107.02589055625,62.0,109.0
368,105.74813453750001,107.0346303375,59.0,104.0
369,107.0066630375,107.53804173750001,50.0,55.0
370,107.42617253750001,108.02397357500001,55.0,101.0
371,107.42617253750001,108.04145313750001,60.0,99.0
372,107.84568203750001,108.31238635625,50.0,47.0
373,108.2651915375,108.74413155,55.0,69.0
374,108.2651915375,108.74413155,60.0,74.0
375,108.6847010375,109.15664922500001,50.0,43.0
376,109.10421053750001,109.77717369375,55.0,106.0
377,106.5871535375,109.7929053,43.0,96.0
378,109.52372003750001,109.82262055625,50.0,69.0
379,109.10421053750001,109.869815375,60.0,106.0
380,109.9432295375,110.0690823875,38.0,94.0
381,109.9432295375,110.25436575,57.0,89.0
382,109.9432295375,110.34001560625,62.0,99.0
383,110.78224853750001,111.16505095625001,66.0,107.0
384,110.78224853750001,111.24895285625001,62.0,101.0
385,111.20175803750001,111.687689875,57.0,64.0
386,111.6212675375,112.02154951875,69.0,99.0
387,111.6212675375,112.18410945000001,62.0,91.0
388,111.6212675375,112.20158901250001,66.0,91.0
389,112.0407770375,112.44280697500001,57.0,67.0
390,110.3627390375,112.54943230625001,50.0,87.0
391,112.46028653750001,112.59837508125001,69.0,104.0
392,112.46028653750001,112.61061077500001,66.0,117.0
393,112.46028653750001,112.63857807500001,62.0,106.0
394,113.2993055375,113.89011475000001,55.0,94.0
395,113.2993055375,113.92332591875001,60.0,96.0
396,113.71881503750001,114.18202344375001,50.0,59.0
397,114.13832453750001,114.61726455,55.0,106.0
398,114.13832453750001,114.8165315625,60.0,101.0
399,114.55783403750002,115.04551383125,50.0,55.0
400,114.9773435375,115.62233939375001,55.0,94.0
401,114.9773435375,115.63457508750001,59.0,99.0
402,115.81636253750001,116.6763570125,55.0,80.0
403,116.6553815375,116.6763570125,55.0,91.0
404,115.81636253750001,116.68859270625,59.0,87.0
405,116.6553815375,116.68859270625,59.0,96.0
406,115.39685303750001,116.6903406625,50.0,43.0
407,113.2993055375,116.74452730625,43.0,99.0
408,116.6553815375,116.74452730625,43.0,101.0
409,116.6553815375,117.08188286250001,62.0,101.0
410,117.49440053750001,117.68667572500001,55.0,94.0
411,117.49440053750001,117.70415528750001,59.0,106.0
412,117.49440053750001,117.70765120000002,62.0,104.0
413,118.3334195375,118.92772466250001,62.0,104.0
414,118.3334195375,118.96268378750001,66.0,96.0
415,118.3334195375,118.96443174375001,57.0,91.0
416,118.3334195375,119.32625868750002,50.0,99.0
417,119.17243853750001,119.32800664375002,62.0,109.0
418,119.17243853750001,119.32975460000002,66.0,113.0
419,119.17243853750001,119.36121781250002,57.0,106.0
420,120.01145753750001,120.65120952500001,55.0,94.0
421,120.01145753750001,120.65994930625001,60.0,96.0
422,120.85047653750001,121.03051603125002,64.0,101.0
423,120.85047653750001,121.03750785625002,55.0,104.0
424,120.01145753750001,121.04799559375,48.0,87.0
425,120.85047653750001,121.0602312875,60.0,99.0
426,121.68949553750001,122.40266168750001,62.0,101.0
427,121.68949553750001,122.40615760000001,57.0,99.0
428,121.68949553750001,122.42188920625001,66.0,99.0
429,122.52851453750002,122.6963183375,66.0,110.0
430,121.68949553750001,122.706806075,50.0,96.0
431,122.52851453750002,122.706806075,62.0,104.0
432,122.52851453750002,122.7417652,57.0,99.0
433,123.36753353750001,123.81850625000001,62.0,101.0
434,123.36753353750001,123.83248990000001,59.0,87.0
435,123.36753353750001,123.84122968125001,55.0,85.0
436,123.78704303750001,124.33764925625,50.0,58.0
437,124.20655253750002,124.39707976875,55.0,101.0
438,123.36753353750001,124.43903071875,43.0,99.0
439,124.20655253750002,124.4722418875,59.0,106.0
440,124.20655253750002,124.49846123125,62.0,106.0
441,125.04557153750001,125.36544753125001,57.0,94.0
442,125.04557153750001,125.64337257500001,62.0,101.0
443,125.88459053750002,126.216702225,66.0,101.0
444,125.88459053750002,126.2201981375,62.0,106.0
445,125.04557153750001,126.2971082125,50.0,101.0
446,125.46508103750001,126.3110918625,57.0,106.0
447,126.72360953750001,126.90889290000001,55.0,94.0
448,126.72360953750001,127.27246780000002,64.0,96.0
449,126.72360953750001,127.28645145000002,60.0,89.0
450,127.14311903750001,127.50844189375,55.0,82.0
451,127.5626285375,127.82656993125,64.0,109.0
452,126.72360953750001,127.9262034375,48.0,99.0
453,127.5626285375,128.01010533750002,60.0,106.0
454,127.98213803750001,128.08177154375002,55.0,87.0
455,128.40164753750003,129.03091178750003,62.0,106.0
456,128.40164753750003,129.03790361250003,57.0,101.0
457,128.40164753750003,129.05363521875003,66.0,99.0
458,128.40164753750003,129.30534091875,50.0,101.0
459,129.2406665375,129.36477143125,62.0,112.0
460,129.2406665375,129.377007125,57.0,106.0
461,129.2406665375,129.41021829375,66.0,113.0
462,130.0796855375,130.71244570000002,64.0,112.0
463,130.0796855375,130.71594161250002,59.0,106.0
464,130.49919503750002,131.10573585625002,54.0,63.0
465,130.0796855375,131.11097972500002,47.0,101.0
466,130.91870453750002,131.14943476250002,59.0,109.0
467,130.91870453750002,131.35044973125002,64.0,115.0
468,131.33821403750002,131.60040747500003,59.0,89.0
469,131.75772353750003,132.35727253125,59.0,101.0
470,131.75772353750003,132.35727253125,63.0,101.0
471,132.17723303750003,132.60023845,54.0,68.0
472,132.5967425375,132.80474933125,59.0,101.0
473,131.75772353750003,132.87466758125,47.0,89.0
474,132.5967425375,133.0057643,66.0,107.0
475,132.5967425375,133.01450408125,63.0,113.0
476,133.0162520375,133.28019343125,59.0,99.0
477,133.4357615375,133.66998767500002,59.0,99.0
478,133.4357615375,133.97063615000002,62.0,106.0
479,133.4357615375,134.00035140625002,67.0,99.0
480,133.85527103750002,134.11921243125002,59.0,78.0
481,134.27478053750002,134.45656798750002,59.0,104.0
482,133.4357615375,134.63485952500002,43.0,94.0
483,134.27478053750002,134.67855843125002,62.0,109.0
484,134.27478053750002,134.80441128125003,67.0,104.0
485,134.69429003750002,134.84461427500003,59.0,85.0
486,135.11379953750003,135.44066735625003,57.0,104.0
487,135.11379953750003,135.73432400625,61.0,104.0
488,135.53330903750003,136.0297286125,52.0,78.0
489,135.9528185375,136.12411825,57.0,104.0
490,135.11379953750003,136.3513525625,45.0,106.0
491,135.9528185375,136.44049833125,61.0,113.0
492,135.9528185375,136.5331400125,64.0,104.0
493,136.3723280375,136.5680991375,57.0,91.0
494,136.79183753750002,137.28650915625002,60.0,96.0
495,136.79183753750002,137.33545193125002,57.0,106.0
496,137.21134703750002,137.75845734375002,52.0,47.0
497,137.63085653750002,137.79691238125002,57.0,106.0
498,136.79183753750002,137.93674888125003,45.0,104.0
499,137.63085653750002,138.12028428750003,64.0,101.0
500,137.63085653750002,138.13426793750003,60.0,106.0
501,138.05036603750003,138.30731560625003,57.0,106.0
502,138.46987553750003,138.71458941250003,55.0,96.0
503,138.46987553750003,139.039709275,64.0,99.0
504,138.46987553750003,139.04844905625,60.0,91.0
505,138.8893850375,139.13235095625,55.0,85.0
506,139.3088945375,139.4557228625,55.0,104.0
507,138.46987553750003,139.4836901625,48.0,96.0
508,139.3088945375,139.8053141125,60.0,109.0
509,139.7284040375,139.84376915,55.0,82.0
510,139.3088945375,139.87523236250001,64.0,101.0
511,140.14791353750002,140.38738354375002,57.0,94.0
512,140.14791353750002,140.76843800625002,62.0,101.0
513,140.56742303750002,140.78941348125002,57.0,87.0
514,140.98693253750002,141.04985896250002,57.0,99.0
515,140.14791353750002,141.54453058125003,50.0,96.0
516,140.98693253750002,141.58822948750003,62.0,115.0
517,140.98693253750002,141.59172540000003,66.0,117.0
518,141.40644203750003,141.68261912500003,57.0,80.0
519,141.82595153750003,142.75236835,66.0,110.0
520,141.82595153750003,142.7558642625,62.0,109.0
521,141.82595153750003,142.76110813125,57.0,106.0
522,141.82595153750003,142.85200185625,50.0,106.0
523,143.49699771250002,144.01963663125002,67.0,109.0
524,143.91650721250002,144.17870065000002,60.0,96.0
525,144.33601671250003,144.53353576875003,60.0,109.0
526,143.49699771250002,144.86564745625003,48.0,99.0
527,144.33601671250003,145.02121556250003,67.0,109.0
528,143.91650721250002,145.02645943125003,55.0,80.0
529,144.75552621250003,145.04743490625003,60.0,106.0
530,145.17503571250003,145.44596893125,62.0,106.0
531,145.17503571250003,145.57881360625,66.0,117.0
532,145.5945452125,145.9371446375,62.0,112.0
533,146.0140547125,146.4002056666667,66.0,120.0
534,145.17503571250003,146.49048340833335,50.0,109.0
535,146.0140547125,146.52173339583334,57.0,96.0
536,146.43145565416668,146.84638604375002,62.0,115.0
537,146.84812215416667,147.30819141458335,66.0,120.0
538,147.2647886541667,147.54256632083334,59.0,101.0
539,147.68145515416668,147.87242730000003,59.0,115.0
540,147.68145515416668,148.07381610833335,54.0,53.0
541,146.84812215416667,148.1189549791667,47.0,96.0
542,147.68145515416668,148.1224272,62.0,112.0
543,148.09812165416668,148.2647882541667,59.0,115.0
544,148.51478815416667,148.9453435375,67.0,101.0
545,148.51478815416667,148.97312130416668,64.0,101.0
546,148.93145465416669,149.48006554583336,59.0,82.0
547,149.34812115416668,149.61895437916667,64.0,118.0
548,148.51478815416667,149.69013490625002,52.0,109.0
549,149.34812115416668,149.78388486875002,68.0,120.0
550,149.76478765416667,150.1345791729167,64.0,115.0
551,150.1814541541667,150.6189539791667,72.0,104.0
552,150.1814541541667,150.84812055416668,57.0,106.0
553,150.59812065416668,151.07207879791667,64.0,115.0
554,151.01478715416667,151.20749541041667,57.0,112.0
555,151.01478715416667,151.46964808333334,69.0,115.0
556,151.01478715416667,151.56166193541668,72.0,106.0
557,151.4314536541667,151.70749521041668,64.0,112.0
558,151.84812015416668,152.27945796666668,66.0,113.0
559,151.84812015416668,152.27945796666668,69.0,106.0
560,151.84812015416668,152.4291057791667,50.0,109.0
561,152.2706551541667,152.54706346666669,62.0,112.0
562,152.69319015416667,152.87276752916668,62.0,109.0
563,152.69319015416667,153.1069223416667,66.0,123.0
564,152.69319015416667,153.1122040291667,69.0,109.0
565,152.69319015416667,153.16502090416668,50.0,101.0
566,152.69319015416667,153.1967110291667,57.0,96.0
567,153.11572515416668,153.40093627916667,62.0,115.0
568,153.5382601541667,153.74952765416668,64.0,94.0
569,153.5382601541667,154.01361202916667,69.0,106.0
570,153.96079515416668,154.4678371541667,64.0,109.0
571,153.5382601541667,154.71431590416668,45.0,106.0
572,154.38333015416669,154.77417502916668,69.0,115.0
573,154.38333015416669,155.03121715416668,72.0,115.0
574,154.80586515416667,155.22840015416668,64.0,115.0
575,155.22840015416668,155.60516052916668,66.0,107.0
576,155.22840015416668,155.63685065416666,69.0,106.0
577,155.6509351541667,156.15797715416667,62.0,118.0
578,156.07347015416667,156.31994890416667,66.0,123.0
579,156.2847376541667,156.47663896666668,67.0,109.0
580,156.49600515416668,156.73368109166668,69.0,112.0
581,155.22840015416668,156.78649796666667,50.0,112.0
582,156.07347015416667,156.78649796666667,57.0,89.0
583,156.70727265416667,156.8886105916667,62.0,115.0
584,156.9185401541667,157.43912874583336,67.0,109.0
585,157.33669823125,157.59711479375002,60.0,96.0
586,157.75336473125003,157.94954520833335,60.0,109.0
587,156.9185401541667,158.27940618750003,48.0,99.0
588,157.75336473125003,158.43392001458335,67.0,109.0
589,157.33669823125,158.43912834583335,55.0,80.0
590,158.17003123125002,158.45996167083334,60.0,106.0
591,158.58669773125,158.85579484583334,62.0,106.0
592,158.58669773125,158.98773923750002,66.0,117.0
593,159.00336423125,159.3436418729167,62.0,112.0
594,159.42003073125002,159.80544724375002,66.0,120.0
595,158.58669773125,159.89572498541668,50.0,109.0
596,159.42003073125002,159.9269749729167,57.0,96.0
597,159.83669723125,160.25162762083335,62.0,115.0
598,160.25336373125,160.71343299166668,66.0,120.0
599,160.67003023125002,160.94780789791668,59.0,101.0
600,161.08733248541668,161.28099436041668,59.0,115.0
601,161.08733248541668,161.48521961041666,54.0,53.0
602,160.25336373125,161.53099423541667,47.0,96.0
603,161.08733248541668,161.53451536041666,62.0,112.0
604,161.50986748541666,161.67888148541667,59.0,115.0
605,161.93240248541667,162.36902198541668,67.0,101.0
606,161.93240248541667,162.39719098541667,64.0,101.0
607,162.35493748541668,162.91122633125002,59.0,82.0
608,162.77747248541667,163.05011516458333,64.0,118.0
609,161.93240248541667,163.1212956916667,52.0,109.0
610,162.77747248541667,163.2150456541667,68.0,120.0
611,163.19594843958333,163.56573995833335,64.0,115.0
612,163.61261493958335,164.05011476458336,72.0,104.0
613,163.61261493958335,164.27928133958335,57.0,106.0
614,164.02928143958334,164.50323958333334,64.0,115.0
615,164.44594793958333,164.63865619583333,57.0,112.0
616,164.44594793958333,164.90080886875,69.0,115.0
617,164.44594793958333,164.99282272083335,72.0,106.0
618,164.86261443958335,165.13865599583335,64.0,112.0
619,165.27928093958334,165.70462799166668,66.0,113.0
620,165.27928093958334,165.70462799166668,69.0,106.0
621,165.27928093958334,165.85219737708334,50.0,109.0
622,165.69594743958334,165.968516775,62.0,112.0
623,166.11261393958335,166.28969720208335,62.0,109.0
624,166.11261393958335,166.5205998875,66.0,123.0
625,166.11261393958335,166.52580821875,69.0,109.0
626,166.11261393958335,166.57789153125,50.0,101.0
627,166.11261393958335,166.60914151875002,57.0,96.0
628,166.52928043958335,166.81053032708334,62.0,115.0
629,166.95289138125,167.21157183333335,59.0,106.0
630,166.95289138125,167.57094668958334,64.0,106.0
631,167.36955788125002,167.64039110625,59.0,96.0
632,167.78622438125,168.09351592500002,59.0,115.0
633,167.78622438125,168.25844641458335,64.0,112.0
634,167.78622438125,168.26191863541666,68.0,120.0
635,168.41122413125,168.48761298958334,64.0,89.0
636,168.41122413125,168.50497409375,59.0,85.0
637,166.95289138125,168.56747406875002,52.0,112.0
638,168.61955738125002,168.94941836041667,59.0,106.0
639,169.03622388125,169.31052932708334,59.0,104.0
640,168.61955738125002,169.33136265208333,64.0,112.0
641,168.61955738125002,169.66990418333333,52.0,112.0
642,169.45289038125,169.89733464791667,64.0,112.0
643,169.45289038125,169.97198739583334,59.0,115.0
644,170.28622338125,170.90254257916666,60.0,94.0
645,170.28622338125,170.91816757291667,57.0,106.0
646,171.11955638125002,171.31920907916668,57.0,112.0
647,170.70288988125,171.35740350833333,52.0,73.0
648,170.28622338125,171.468514575,45.0,106.0
649,171.11955638125002,171.53795899166667,60.0,109.0
650,171.11955638125002,171.56920897916666,64.0,109.0
651,171.53622288125,171.81920887916667,57.0,96.0
652,171.95288938125,172.20115317083335,57.0,109.0
653,171.95288938125,172.51018082500002,62.0,106.0
654,172.36955588125,172.55705580625002,57.0,87.0
655,172.78622238125,173.59004150416666,62.0,112.0
656,172.78622238125,173.59872205625,57.0,112.0
657,172.78622238125,173.60393038750001,66.0,107.0
658,171.95288938125,173.60566649791667,50.0,101.0
659,173.61955538125,174.010473625,55.0,112.0
660,174.0404031875,174.46293818750001,62.0,101.0
661,174.46293818750001,174.9805435625,59.0,101.0
662,174.8854731875,175.3467405625,62.0,99.0
663,175.3080081875,175.79040231250002,55.0,94.0
664,175.73054318750002,176.18300775,62.0,101.0
665,176.1530781875,176.6425145625,59.0,96.0
666,176.5756131875,177.024556625,62.0,101.0
667,176.99814818750002,177.48230287500002,55.0,99.0
668,177.4206831875,177.8713871875,64.0,104.0
669,177.8432181875,178.42872748541666,60.0,89.0
670,178.2657531875,178.59713019583333,64.0,96.0
671,178.68393571666667,179.09886610625,55.0,101.0
672,179.10060221666666,179.52247704791665,62.0,101.0
673,179.51726871666668,179.97560186666666,59.0,96.0
674,179.93393521666667,180.28289341041668,62.0,99.0
675,180.35060171666666,180.77247654791665,54.0,113.0
676,180.76726821666665,181.15094861875,62.0,109.0
677,181.18393471666667,181.64764290416667,60.0,99.0
678,181.59627302916667,181.94387584999998,62.0,106.0
679,182.00723202916666,182.44901295416668,55.0,94.0
680,182.41819102916665,182.82572537083334,62.0,104.0
681,182.82915002916667,183.289766575,59.0,96.0
682,183.24010902916666,183.54490362083334,62.0,96.0
683,183.65106802916665,184.16819143749998,50.0,101.0
684,184.06202702916667,184.48839699166666,62.0,109.0
685,184.47298602916666,184.94186340625,57.0,104.0
686,184.8793633916667,185.17497156875,62.0,106.0
687,185.2847688916667,185.424435925,62.0,89.0
688,185.2847688916667,185.43663102500003,67.0,94.0
689,185.2847688916667,185.44272857500002,55.0,106.0
690,185.6591916,185.778093825,55.0,101.0
691,185.6591916,185.80095963750003,62.0,91.0
692,185.6591916,185.802484025,67.0,91.0
693,186.02504460000003,186.1515687625,55.0,104.0
694,186.02504460000003,186.16833702500003,62.0,96.0
695,186.02504460000003,186.1835809,67.0,99.0
696,186.39089760000002,186.54638512500003,62.0,94.0
697,186.39089760000002,186.54943390000003,55.0,96.0
698,186.39089760000002,186.59516552500003,67.0,99.0
699,186.7567506,186.90156741250001,57.0,109.0
700,186.7567506,186.9259576125,64.0,96.0
701,186.7567506,186.9259576125,69.0,99.0
702,187.12260360000002,187.2613228625,57.0,99.0
703,187.12260360000002,187.278091125,69.0,96.0
704,187.12260360000002,187.27961551250002,64.0,89.0
705,187.4884566,187.62717586250002,57.0,101.0
706,187.4884566,187.62717586250002,69.0,99.0
707,187.4884566,187.631749025,64.0,94.0
708,187.85430960000002,188.02199222500002,64.0,94.0
709,187.85430960000002,188.03113855,57.0,96.0
710,187.85430960000002,188.03571171250002,69.0,99.0
711,188.2201626,188.36802818750002,52.0,96.0
712,188.2201626,188.38022328750003,64.0,96.0
713,188.2201626,188.38936961250002,67.0,106.0
714,188.58601560000002,188.7552226125,64.0,87.0
715,188.58601560000002,188.75827138750003,52.0,94.0
716,188.58601560000002,188.7796128125,67.0,96.0
717,188.9518686,189.11802683750003,64.0,96.0
718,188.9518686,189.119551225,57.0,106.0
719,188.9518686,189.12107561250002,69.0,101.0
720,189.31772160000003,189.47473351250002,69.0,106.0
721,189.31772160000003,189.4762579,57.0,101.0
722,189.31772160000003,189.49150177500002,64.0,101.0
723,189.68357460000001,189.8375377375,47.0,99.0
724,189.68357460000001,189.87107426250003,62.0,104.0
725,189.68357460000001,189.8786962,59.0,104.0
726,190.04942760000003,190.211012675,59.0,96.0
727,190.04942760000003,190.21253706250002,47.0,89.0
728,190.04942760000003,190.21406145000003,62.0,104.0
729,190.41528060000002,190.53073481875003,48.0,99.0
730,190.41528060000002,190.53073481875003,64.0,91.0
731,190.41528060000002,190.54115147500002,67.0,99.0
732,190.41528060000002,190.54412766250002,60.0,89.0
733,190.77478219375,190.88192494375002,48.0,91.0
734,190.77478219375,190.89234160000004,64.0,89.0
735,190.77478219375,190.90722253750002,60.0,82.0
736,190.77478219375,190.90871063125002,67.0,94.0
737,191.13192469375002,191.24287420625004,64.0,99.0
738,191.13192469375002,191.25304861875003,48.0,96.0
739,191.13192469375002,191.25450210625004,60.0,96.0
740,191.13192469375002,191.26322303125002,67.0,99.0
741,191.48269964375004,191.60043213125005,64.0,99.0
742,191.48269964375004,191.60333910625002,60.0,96.0
743,191.48269964375004,191.61206003125002,48.0,94.0
744,191.48269964375004,191.63822280625004,67.0,99.0
745,191.83153664375004,191.95738580625002,50.0,104.0
746,191.83153664375004,191.97002625000002,66.0,107.0
747,191.83153664375004,191.97704871875004,62.0,101.0
748,192.17086885625002,192.27901487500003,50.0,91.0
749,192.17086885625002,192.29025082500002,62.0,96.0
750,192.17086885625002,192.29867778750003,66.0,104.0
751,192.50794735625004,192.61187989375003,50.0,101.0
752,192.50794735625004,192.63575628750002,62.0,96.0
753,192.50794735625004,192.63856527500002,66.0,110.0
754,192.84502585625003,192.95176738125002,50.0,104.0
755,192.84502585625003,192.96862130625004,66.0,113.0
756,192.84502585625003,192.97564377500004,62.0,101.0
757,193.18210435625002,193.35064360625003,67.0,114.0
758,193.18210435625002,193.51918285625004,43.0,114.0
759,193.51918285625004,193.68772210625002,62.0,114.0
760,193.51918285625004,193.85626135625003,50.0,114.0
761,193.85626135625003,194.02690733750003,60.0,114.0
762,193.85626135625003,194.20132583750004,48.0,114.0
763,194.20132583750004,194.37574433750004,59.0,114.0
764,194.20132583750004,194.55016283750004,47.0,114.0
765,194.55016283750004,194.72458133750004,67.0,114.0
766,194.55016283750004,194.89899983750004,43.0,114.0
767,194.89899983750004,195.07341833750004,62.0,114.0
768,194.89899983750004,195.24783683750005,50.0,114.0
769,195.24783683750005,195.42405486250001,60.0,114.0
770,195.24783683750005,195.60262611250002,48.0,114.0
771,195.60262611250002,195.78119736250002,59.0,114.0
772,195.60262611250002,195.95976861250003,47.0,114.0
773,195.95976861250003,196.13833986250003,62.0,114.0
774,195.95976861250003,196.31691111250004,50.0,114.0
775,196.31691111250004,196.4954823625,60.0,114.0
776,196.31691111250004,196.67405361250002,48.0,114.0
777,196.67405361250002,196.85262486250002,59.0,114.0
778,196.67405361250002,197.03119611250003,47.0,114.0
779,197.03119611250003,197.20976736250003,57.0,114.0
780,197.03119611250003,197.38833861250004,45.0,114.0
781,197.38833861250004,197.5669098625,59.0,114.0
782,197.38833861250004,197.74548111250002,47.0,114.0
783,198.10262361250003,198.29420051666668,64.0,114.0
784,198.10262361250003,198.4996800166667,40.0,114.0
785,198.9106390166667,200.40721470833336,52.0,96.0
786,198.9106390166667,200.42433800000003,57.0,101.0
787,198.9106390166667,200.43289964583334,45.0,104.0
788,200.5544750166667,200.9089271541667,45.0,109.0
789,200.5544750166667,200.9140641416667,61.0,104.0
790,200.5544750166667,200.91920112916668,64.0,101.0
791,200.5544750166667,200.93461209166668,57.0,101.0
792,201.3763930166667,202.16406443333335,52.0,101.0
793,201.3763930166667,202.16920142083336,56.0,113.0
794,201.3763930166667,202.18290005416668,59.0,106.0
795,201.3763930166667,202.1863247125,40.0,106.0
796,202.201735675,202.7201327416667,69.0,109.0
797,202.6187512791667,202.8791967604167,62.0,96.0
798,203.0382607791667,203.2357798354167,62.0,109.0
799,202.201735675,203.5678915229167,50.0,99.0
800,203.0382607791667,203.7217116729167,69.0,109.0
801,202.6187512791667,203.7287034979167,57.0,80.0
802,203.4577702791667,203.7496789729167,62.0,106.0
803,203.8772797791667,204.1464650416667,64.0,106.0
804,203.8772797791667,204.2793097166667,68.0,117.0
805,204.2967892791667,204.6393887041667,64.0,112.0
806,204.7162987791667,205.1025971104167,68.0,120.0
807,203.8772797791667,205.1934908354167,52.0,109.0
808,204.7162987791667,205.2267020041667,59.0,96.0
809,205.1358082791667,205.5518218666667,64.0,115.0
810,205.5553177791667,206.0185261854167,68.0,120.0
811,205.9748272791667,206.2545002791667,61.0,101.0
812,206.3943367791667,206.5848640104167,61.0,115.0
813,206.3943367791667,206.7876269354167,56.0,53.0
814,205.5553177791667,206.8348217541667,49.0,96.0
815,206.3943367791667,206.8365697104167,64.0,112.0
816,206.8138462791667,206.9799021229167,61.0,115.0
817,207.2333557791667,207.6668489291667,70.0,101.0
818,207.2333557791667,207.6930682729167,66.0,101.0
819,207.6528652791667,208.2034714979167,61.0,82.0
820,208.0723747791667,208.3450559541667,66.0,118.0
821,207.2333557791667,208.4167221604167,54.0,109.0
822,208.0723747791667,208.5093638416667,71.0,120.0
823,208.4918842791667,208.8641989604167,66.0,115.0
824,208.9113937791667,209.3518787541667,74.0,104.0
825,208.9113937791667,209.5808610229167,59.0,106.0
826,209.3309032791667,209.8080953354167,66.0,115.0
827,209.7504127791667,209.9444359229167,59.0,112.0
828,209.7504127791667,210.2066293604167,71.0,115.0
829,209.7504127791667,210.2992710416667,74.0,106.0
830,210.1699222791667,210.44609936666672,66.0,112.0
831,210.5894317791667,211.0176810604167,68.0,113.0
832,210.5894317791667,211.0176810604167,71.0,106.0
833,210.5894317791667,211.1645093854167,52.0,109.0
834,211.0089412791667,211.2833704104167,64.0,112.0
835,211.4284507791667,211.6067423166667,64.0,109.0
836,211.4284507791667,211.8392204979167,68.0,123.0
837,211.4284507791667,211.8444643666667,71.0,109.0
838,211.4284507791667,211.8951550979167,52.0,101.0
839,211.4284507791667,211.9266183104167,59.0,96.0
840,211.8479602791667,212.1293812354167,64.0,115.0
841,212.2674697791667,212.4754765729167,66.0,94.0
842,212.2674697791667,212.7394179666667,71.0,106.0
843,212.6869792791667,213.1903906791667,66.0,109.0
844,212.2674697791667,213.4351045541667,47.0,106.0
845,213.1064887791667,213.4945350666667,71.0,115.0
846,213.1064887791667,213.7497366791667,74.0,115.0
847,213.52599827916669,213.9437598229167,66.0,115.0
848,213.9455077791667,214.3195704166667,68.0,107.0
849,213.9455077791667,214.3510336291667,71.0,106.0
850,214.3650172791667,214.8684286791667,64.0,118.0
851,214.7845267791667,215.0292406541667,68.0,123.0
852,214.9942815291667,215.1830608041667,69.0,109.0
853,215.2040362791667,215.4382624166667,71.0,112.0
854,213.9455077791667,215.4924490604167,52.0,112.0
855,214.7845267791667,215.4924490604167,59.0,89.0
856,215.4137910291667,215.5938305229167,64.0,115.0
857,215.6235457791667,216.1444367416667,69.0,109.0
858,216.0430552791667,216.3035007604167,62.0,96.0
859,216.4625647791667,216.6600838354167,62.0,109.0
860,215.6235457791667,216.9921955229167,50.0,99.0
861,216.4625647791667,217.1460156729167,69.0,109.0
862,216.0430552791667,217.1530074979167,57.0,80.0
863,216.88207427916672,217.1739829729167,62.0,106.0
864,217.3015837791667,217.5707690416667,64.0,106.0
865,217.3015837791667,217.7036137166667,68.0,117.0
866,217.7210932791667,218.0636927041667,64.0,112.0
867,218.1406027791667,218.5269011104167,68.0,120.0
868,217.3015837791667,218.6177948354167,52.0,109.0
869,218.1406027791667,218.6510060041667,59.0,96.0
870,218.5601122791667,218.9761258666667,64.0,115.0
871,218.9796217791667,219.4428301854167,68.0,120.0
872,219.3991312791667,219.6788042791667,61.0,101.0
873,219.8186407791667,220.00916801041672,61.0,115.0
874,219.8186407791667,220.21193093541672,56.0,53.0
875,218.9796217791667,220.2591257541667,49.0,96.0
876,219.8186407791667,220.26087371041672,64.0,112.0
877,220.2381502791667,220.4042061229167,61.0,115.0
878,220.6576597791667,221.0911529291667,69.0,101.0
879,220.6576597791667,221.1173722729167,66.0,101.0
880,221.0771692791667,221.6277754979167,61.0,82.0
881,221.4966787791667,221.7693599541667,66.0,118.0
882,220.6576597791667,221.8410261604167,54.0,109.0
883,221.4966787791667,221.9336678416667,70.0,120.0
884,221.9161882791667,222.2885029604167,66.0,115.0
885,222.3356977791667,222.7761827541667,74.0,104.0
886,222.3356977791667,223.0051650229167,59.0,106.0
887,222.7552072791667,223.2323993354167,66.0,115.0
888,223.17471677916672,223.3687399229167,59.0,112.0
889,223.17471677916672,223.6309333604167,71.0,115.0
890,223.17471677916672,223.7235750416667,74.0,106.0
891,223.5942262791667,223.8704033666667,66.0,112.0
892,224.0137357791667,224.4419850604167,68.0,113.0
893,224.0137357791667,224.4419850604167,71.0,106.0
894,224.0137357791667,224.5888133854167,52.0,109.0
895,224.4332452791667,224.7076744104167,64.0,112.0
896,224.8527547791667,225.0310463166667,64.0,109.0
897,224.8527547791667,225.2635244979167,68.0,123.0
898,224.8527547791667,225.2687683666667,71.0,109.0
899,224.8527547791667,225.3194590979167,52.0,101.0
900,224.8527547791667,225.3509223104167,59.0,96.0
901,225.2722642791667,225.5536852354167,64.0,115.0
902,225.6882778666667,225.9487233479167,61.0,106.0
903,225.6882778666667,226.31055029166671,66.0,106.0
904,226.1077873666667,226.3804685416667,61.0,96.0
905,226.53027977500005,226.85023764375006,61.0,115.0
906,226.53027977500005,227.02486981041673,66.0,112.0
907,226.53027977500005,227.0285462770834,70.0,120.0
908,227.18663434375006,227.26751661041672,66.0,89.0
909,227.18663434375006,227.28589894375006,61.0,85.0
910,225.6882778666667,227.35207534375007,54.0,112.0
911,227.40722234375005,227.7564866770834,61.0,106.0
912,227.84839834375006,228.13883921041673,61.0,104.0
913,227.40722234375005,228.16089801041673,66.0,112.0
914,227.40722234375005,228.51583270416674,54.0,112.0
915,228.28957434375008,228.74481497291674,66.0,112.0
916,228.28957434375008,228.81997709166674,61.0,115.0
917,229.13635717291675,229.75688164166675,62.0,94.0
918,229.13635717291675,229.77261324791675,59.0,106.0
919,229.97537617291675,230.17639114166673,59.0,112.0
920,229.55586667291675,230.21484617916673,54.0,73.0
921,229.13635717291675,230.32671537916673,47.0,106.0
922,229.97537617291675,230.39663362916673,62.0,109.0
923,229.97537617291675,230.42809684166673,66.0,109.0
924,230.39488567291673,230.67980254166673,59.0,96.0
925,230.81439517291673,231.06435291666673,59.0,109.0
926,230.81439517291673,231.37548912916674,64.0,106.0
927,231.23390467291674,231.42268394791674,59.0,87.0
928,231.65341417291674,232.46271791666675,64.0,112.0
929,231.65341417291674,232.47145769791675,59.0,112.0
930,231.65341417291674,232.47670156666675,68.0,107.0
931,230.81439517291673,232.47844952291675,52.0,101.0
932,232.49243317291675,232.86474785416675,64.0,99.0
933,232.49243317291675,232.90669880416675,57.0,101.0
934,232.49243317291675,232.93291814791675,61.0,110.0
935,232.91194267291675,233.40836224791673,52.0,85.0
936,233.33145217291673,233.70726276666673,57.0,106.0
937,233.33145217291673,233.72299437291673,64.0,106.0
938,233.33145217291673,233.74746576041673,61.0,120.0
939,233.75096167291673,233.99567554791673,52.0,45.0
940,232.49243317291675,234.02014693541673,45.0,106.0
941,233.96071642291673,234.24563329166673,57.0,104.0
942,234.38022592291674,234.65640301041674,57.0,109.0
943,234.58998067291674,235.11961141666674,52.0,89.0
944,234.17047117291673,235.28042339166674,45.0,91.0
945,235.00949017291674,235.56534026041675,61.0,120.0
946,235.00949017291674,235.66322581041675,57.0,112.0
947,235.00949017291674,235.67720946041675,64.0,109.0
948,235.42899967291675,235.73663997291675,45.0,101.0
949,235.84850917291675,236.55293554166673,57.0,106.0
950,235.84850917291675,236.55468349791676,62.0,109.0
951,236.26801867291675,236.81163306666673,52.0,66.0
952,236.68752817291673,237.11927336666673,57.0,115.0
953,236.68752817291673,237.13850088541673,62.0,115.0
954,237.10703767291673,237.35175154791673,52.0,20.0
955,235.84850917291675,237.41642592916673,45.0,104.0
956,237.31679242291673,237.64366024166674,57.0,106.0
957,237.94605667291674,238.10337273541674,57.0,112.0
958,237.73630192291674,238.23621741041674,52.0,89.0
959,238.15581142291674,238.47568741666674,57.0,106.0
960,238.15581142291674,238.50540267291674,62.0,115.0
961,238.57532092291675,238.82178275416675,57.0,99.0
962,238.78507567291675,238.91092852291675,62.0,101.0
963,238.36556617291674,238.91267647916675,52.0,94.0
964,237.52654717291674,238.94938356041675,45.0,96.0
965,239.20458517291675,239.75344343541673,61.0,99.0
966,239.20458517291675,239.76742708541673,57.0,104.0
967,239.62409467291675,240.10827855416673,52.0,39.0
968,240.04360417291673,240.44738206666673,57.0,109.0
969,239.20458517291675,240.67986024791674,45.0,106.0
970,240.67286842291674,241.02945149791674,57.0,89.0
971,240.04360417291673,241.05217492916674,61.0,117.0
972,240.04360417291673,241.11160544166674,64.0,104.0
973,241.30213267291674,241.53111494166674,57.0,104.0
974,241.09237792291674,241.81952772291675,52.0,73.0
975,240.88262317291674,241.94013670416675,45.0,101.0
976,241.72164217291675,242.16212714791675,57.0,109.0
977,241.72164217291675,242.37712576666675,61.0,120.0
978,241.72164217291675,242.39635328541675,64.0,104.0
979,242.14115167291675,242.40858897916675,45.0,94.0
980,242.35090642291675,242.48375109791675,57.0,101.0
981,242.56066117291675,243.21264885416673,62.0,101.0
982,242.56066117291675,243.21439681041673,57.0,106.0
983,242.98017067291676,243.52378506666673,52.0,42.0
984,243.39968017291673,243.86288857916674,57.0,115.0
985,243.39968017291673,244.10061062916674,62.0,115.0
986,244.02894442291674,244.13382179791674,57.0,94.0
987,243.81918967291674,244.16178909791674,52.0,46.0
988,242.56066117291675,244.20548800416674,45.0,104.0
989,244.23869917291674,244.71763918541674,57.0,106.0
990,244.23869917291674,244.73686670416674,62.0,109.0
991,244.86796342291674,245.06723043541675,57.0,104.0
992,245.07771817291675,245.31194431041675,62.0,115.0
993,245.28747292291675,245.54092657916675,61.0,120.0
994,244.65820867291674,245.75068132916675,52.0,62.0
995,245.49722767291675,245.77864862916675,59.0,101.0
996,244.23869917291674,245.84332301041675,45.0,104.0
997,245.91673717291675,246.28905185416676,64.0,99.0
998,245.91673717291675,246.33100280416676,57.0,101.0
999,245.91673717291675,246.35722214791673,61.0,110.0
1000,246.33624667291673,246.83266624791673,52.0,85.0
1001,246.75575617291673,247.13156676666674,57.0,106.0
1002,246.75575617291673,247.14729837291674,64.0,106.0
1003,246.75575617291673,247.17176976041674,61.0,120.0
1004,247.17526567291674,247.41997954791674,52.0,45.0
1005,245.91673717291675,247.44445093541674,45.0,106.0
1006,247.38502042291674,247.66993729166674,57.0,104.0
1007,247.80452992291674,248.08070701041675,57.0,109.0
1008,248.01428467291674,248.54391541666675,52.0,89.0
1009,247.59477517291674,248.70472739166675,45.0,91.0
1010,248.43379417291675,248.98964426041675,61.0,120.0
1011,248.43379417291675,249.08752981041675,57.0,112.0
1012,248.43379417291675,249.10151346041675,64.0,109.0
1013,248.85330367291675,249.16094397291675,45.0,101.0
1014,249.27281317291676,249.97723954166673,57.0,106.0
1015,249.27281317291676,249.97898749791673,62.0,109.0
1016,249.69232267291673,250.23593706666674,52.0,66.0
1017,250.11183217291673,250.54357736666674,57.0,115.0
1018,250.11183217291673,250.56280488541674,62.0,115.0
1019,250.53134167291674,250.77605554791674,52.0,20.0
1020,249.27281317291676,250.84072992916674,45.0,104.0
1021,250.74109642291674,251.06796424166674,57.0,106.0
1022,251.37036067291675,251.52767673541675,57.0,112.0
1023,251.16060592291674,251.66052141041675,52.0,89.0
1024,251.58011542291675,251.89999141666675,57.0,106.0
1025,251.58011542291675,251.92970667291675,62.0,115.0
1026,251.99962492291675,252.24608675416675,57.0,99.0
1027,252.20937967291675,252.33523252291675,62.0,101.0
1028,251.78987017291675,252.33698047916675,52.0,94.0
1029,250.95085117291674,252.37368756041676,45.0,96.0
1030,252.62888917291673,253.17774743541673,61.0,99.0
1031,252.62888917291673,253.19173108541673,57.0,104.0
1032,253.04839867291673,253.53258255416674,52.0,39.0
1033,253.46790817291674,253.87168606666674,57.0,109.0
1034,252.62888917291673,254.10416424791674,45.0,106.0
1035,254.09717242291674,254.45375549791675,57.0,89.0
1036,253.46790817291674,254.47647892916675,61.0,117.0
1037,253.46790817291674,254.53590944166675,64.0,104.0
1038,254.72643667291675,254.95541894166675,57.0,104.0
1039,254.51668192291675,255.24383172291675,52.0,73.0
1040,254.30692717291674,255.36444070416675,45.0,101.0
1041,255.14594617291675,255.58643114791676,57.0,109.0
1042,255.14594617291675,255.80142976666673,61.0,120.0
1043,255.14594617291675,255.82065728541676,64.0,104.0
1044,255.56545567291676,255.83289297916673,45.0,94.0
1045,255.77521042291676,255.90805509791676,57.0,101.0
1046,255.98496517291676,256.63695285416674,62.0,101.0
1047,255.98496517291676,256.63870081041676,57.0,106.0
1048,256.40447467291676,256.94808906666674,52.0,42.0
1049,256.82398417291677,257.28719257916674,57.0,115.0
1050,256.82398417291677,257.52491462916674,62.0,115.0
1051,257.4532484229168,257.5581257979168,57.0,94.0
1052,257.24349367291677,257.5860930979168,52.0,46.0
1053,255.98496517291676,257.62979200416675,45.0,104.0
1054,257.6630031729168,258.1419431854167,57.0,106.0
1055,257.6630031729168,258.16117070416675,62.0,109.0
1056,258.2922674229167,258.4915344354167,57.0,104.0
1057,258.5020221729167,258.7362483104167,62.0,115.0
1058,258.7117769229167,258.96523057916676,61.0,120.0
1059,258.0825126729167,259.17498532916676,52.0,62.0
1060,258.92153167291673,259.20295262916676,59.0,101.0
1061,257.6630031729168,259.26762701041673,45.0,104.0
1062,259.34104117291673,259.73083541666676,57.0,112.0
1063,259.76055067291674,260.18006017291674,64.0,101.0
1064,260.18006017291674,260.69395931041674,61.0,101.0
1065,260.59956967291674,261.05753421041675,64.0,99.0
1066,261.01907917291675,261.49801918541675,57.0,94.0
1067,261.43858867291675,261.8878134291667,64.0,101.0
1068,261.85809817291675,262.34403001041676,61.0,96.0
1069,262.27760767291676,262.72333651666673,64.0,101.0
1070,262.69711717291676,263.17780514166674,57.0,99.0
1071,263.11662667291677,263.5641034729167,66.0,104.0
1072,263.53613617291677,264.11820560416675,62.0,89.0
1073,263.9556456729167,264.2877573604168,66.0,96.0
1074,264.3751551729167,264.79291671666675,57.0,101.0
1075,264.7946646729167,265.21941804166676,64.0,101.0
1076,265.2141741729167,265.67563462291673,61.0,96.0
1077,265.63368367291673,265.98502287916676,64.0,99.0
1078,266.05319317291674,266.47794654166677,56.0,113.0
1079,266.47270267291674,266.85900100416677,64.0,109.0
1080,266.89221217291674,267.36416036041675,62.0,99.0
1081,267.31172167291675,267.6665567916667,64.0,106.0
1082,267.73123117291675,268.18220388541675,57.0,94.0
1083,268.15074067291675,268.56675426041676,64.0,104.0
1084,268.57025017291676,269.04045040416673,61.0,96.0
1085,268.98975967291676,269.30089588541676,64.0,96.0
1086,269.40926917291677,269.93715196041677,52.0,101.0
1087,269.82877867291677,270.26401977916674,64.0,109.0
1088,270.2482881729168,270.73247205416675,59.0,104.0
1089,270.6677976729168,270.97369001666675,64.0,106.0
1090,271.0873071729167,271.67811638541673,57.0,91.0
1091,271.5068166729167,271.97002507916676,64.0,94.0
1092,271.92632617291673,272.48217626041674,61.0,74.0
1093,272.34583567291673,272.78981656041674,64.0,96.0
1094,272.76534517291674,273.4557878916668,57.0,94.0
1095,273.18485467291674,273.6900140291667,64.0,52.0
1096,274.02387367291675,274.4905779916667,64.0,85.0
1097,273.60436417291675,274.96951800416673,61.0,50.0
1098,274.44338317291675,274.97301391666673,57.0,61.0
1099,274.86289267291676,275.36979998541676,64.0,82.0
1100,275.70191167291676,276.23154241666674,64.0,74.0
1101,275.28240217291676,276.5619061479167,61.0,79.0
1102,276.5409306729167,277.0373502479167,64.0,76.0
1103,276.12142117291677,277.5512493854167,57.0,71.0
1104,277.7994591729167,280.26407748541675,57.0,76.0
1105,277.7994591729167,280.2658254416667,45.0,52.0
1106,276.9604401729167,280.35497121041675,61.0,74.0
1107,277.3799496729167,280.35846712291675,64.0,87.0
