,start,end,pitch,velocity
0,19.0953298125,19.61835435,72.0,76.0
1,19.6216438125,20.014186337500004,72.0,72.0
2,20.016379312500003,20.173177025,70.0,62.0
3,20.147957812500003,20.407825350000003,72.0,76.0
4,20.411114812500003,20.935235837500002,72.0,73.0
5,20.937428812500002,21.198392837500002,70.0,63.0
6,21.2005858125,21.72361035,67.0,66.0
7,21.7268998125,22.011986562500002,67.0,57.0
8,21.9900568125,22.2510208375,75.0,63.0
9,22.253213812500004,23.303648837500003,72.0,56.0
10,23.305841812500002,23.829962837500002,75.0,93.0
11,23.8321558125,24.2246983375,72.0,90.0
12,24.2268913125,24.412197700000004,75.0,66.0
13,24.3584698125,24.6194338375,72.0,79.0
14,24.621626812500004,25.408904837500003,70.0,66.0
15,25.411097812500003,25.677544275000002,72.0,85.0
16,25.674254812500003,26.198375837500002,70.0,66.0
17,26.200568812500002,26.5075853125,65.0,56.0
18,26.4637258125,27.514160837500004,67.0,79.0
19,27.516353812500004,27.776221350000004,65.0,92.0
20,27.779510812500003,28.303631837500003,65.0,83.0
21,28.305824812500003,28.566788837500003,67.0,87.0
22,28.568981812500002,29.093102837500002,65.0,76.0
23,29.0952958125,29.3562598375,63.0,75.0
24,29.3584528125,29.619416837500005,60.0,75.0
25,29.621609812500004,30.014152337500004,72.0,77.0
26,30.016345312500004,30.408887837500004,70.0,87.0
27,30.411080812500003,30.672044837500003,67.0,68.0
28,30.674237812500003,31.7246728375,70.0,90.0
29,31.7268658125,31.987829837500005,75.0,97.0
30,31.990022812500005,32.26962712500001,72.0,83.0
31,32.2531798125,32.51304735,75.0,93.0
32,32.5163368125,32.7773008375,75.0,92.0
33,32.7794938125,33.0404578375,72.0,71.0
34,33.0426508125,33.566771837500006,77.0,85.0
35,33.568964812500006,33.828832350000006,70.0,90.0
36,33.832121812500006,34.093085837500006,70.0,87.0
37,34.095278812500005,34.356242837500005,67.0,74.0
38,34.358435812500005,34.651197975,70.0,72.0
39,34.621592812500005,34.881460350000005,72.0,76.0
40,34.884749812500004,38.03934435,72.0,90.0
41,38.04263381250001,38.56565835000001,72.0,92.0
42,38.56894781250001,38.9614903375,72.0,89.0
43,38.9636833125,39.1347353625,70.0,71.0
44,39.095261812500006,39.355129350000006,72.0,86.0
45,39.358418812500005,39.882539837500005,72.0,90.0
46,39.884732812500005,40.145696837500005,70.0,85.0
47,40.147889812500004,40.670914350000004,67.0,69.0
48,40.674203812500004,40.9351678375,67.0,65.0
49,40.9373608125,41.2114826875,75.0,66.0
50,41.2005178125,42.2509528375,72.0,84.0
51,42.2531458125,42.51301335,75.0,99.0
52,42.5163028125,42.7772668375,75.0,84.0
53,42.7794598125,43.04042383750001,72.0,87.0
54,43.04261681250001,43.30358083750001,75.0,92.0
55,43.30577381250001,43.56673783750001,72.0,84.0
56,43.56893081250001,44.356208837500006,75.0,93.0
57,44.358401812500006,44.619365837500006,72.0,91.0
58,44.621558812500005,45.145679837500005,70.0,87.0
59,45.147872812500005,45.408836837500004,65.0,63.0
60,45.411029812500004,45.671993837500004,70.0,65.0
61,45.674186812500004,46.4614648375,67.0,65.0
62,46.4636578125,46.856200337500006,65.0,85.0
63,46.858393312500006,46.9877788375,63.0,53.0
64,46.9899718125,47.2509358375,65.0,66.0
65,47.2531288125,47.546987462500006,63.0,55.0
66,47.5162858125,47.77615335,65.0,63.0
67,47.77944281250001,48.30356383750001,65.0,64.0
68,48.30575681250001,48.56672083750001,67.0,79.0
69,48.56891381250001,48.82987783750001,72.0,68.0
70,48.83207081250001,49.356191837500006,70.0,65.0
71,49.358384812500006,49.619348837500006,67.0,63.0
72,49.621541812500006,49.882505837500005,72.0,65.0
73,49.884698812500005,50.671976837500004,70.0,77.0
74,50.674169812500004,50.934037350000004,75.0,87.0
75,50.937326812500004,51.197194350000004,75.0,77.0
76,51.2004838125,51.4614478375,75.0,79.0
77,51.4636408125,51.7289907875,72.0,64.0
78,51.7267978125,51.98666535,77.0,91.0
79,51.9899548125,52.77723283750001,77.0,93.0
80,52.77942581250001,53.171968337500005,70.0,90.0
81,53.174161312500004,53.56670383750001,67.0,84.0
82,53.56889681250001,53.82986083750001,75.0,90.0
83,53.83205381250001,56.9877448375,72.0,98.0
84,56.9899378125,57.51405883750001,75.0,85.0
85,57.51625181250001,57.77721583750001,72.0,64.0
86,57.77940881250001,58.04037283750001,75.0,57.0
87,58.04256581250001,58.56668683750001,72.0,62.0
88,58.56887981250001,59.09190435000001,75.0,87.0
89,59.09519381250001,59.35615783750001,75.0,79.0
90,59.35835081250001,59.884664812500006,67.0,71.0
91,59.884664812500006,60.145628837500006,75.0,90.0
92,60.147821812500005,61.198256837500004,72.0,93.0
93,61.200449812500004,61.723474350000004,75.0,90.0
94,61.7267638125,62.24978835,75.0,79.0
95,62.25307781250001,62.77719883750001,75.0,71.0
96,62.77939181250001,63.04035583750001,72.0,65.0
97,63.04254881250001,63.30351283750001,70.0,66.0
98,63.30570581250001,63.56666983750001,72.0,61.0
99,63.56886281250001,64.0929838375,70.0,64.0
100,64.0951768125,64.3561408375,65.0,66.0
101,64.3583338125,65.4087688375,67.0,66.0
102,65.4109618125,65.93398635000001,77.0,87.0
103,65.9372758125,66.4613968375,77.0,86.0
104,66.4635898125,66.9877108375,72.0,87.0
105,66.9899038125,67.51292835000001,77.0,84.0
106,67.5162178125,67.77608535,77.0,90.0
107,67.77937481250001,68.0403388375,77.0,87.0
108,68.0425318125,68.30349583750001,72.0,66.0
109,68.30568881250001,68.5710387875,79.0,77.0
110,68.5688458125,69.61928083750001,77.0,90.0
111,69.62147381250001,69.88134135000001,70.0,87.0
112,69.8846308125,70.14449835,70.0,81.0
113,70.14778781250001,70.4087518375,70.0,87.0
114,70.4109448125,70.67190883750001,72.0,90.0
115,70.67410181250001,71.72453683750001,74.0,90.0
116,71.72672981250001,71.9876938375,70.0,103.0
117,71.9898868125,72.25085083750001,67.0,84.0
118,72.25304381250001,72.5183937875,70.0,91.0
119,72.5162008125,72.77606835,72.0,90.0
120,72.77935781250001,73.82979283750001,72.0,97.0
121,73.83198581250001,74.35610683750001,75.0,93.0
122,74.35829981250001,74.61926383750001,72.0,87.0
123,74.62145681250001,74.88790327500001,75.0,90.0
124,74.8846138125,75.4087348375,72.0,63.0
125,75.4109278125,75.93395235000001,75.0,95.0
126,75.9372418125,76.19820583750001,75.0,90.0
127,76.20039881250001,76.46026635000001,67.0,69.0
128,76.4635558125,76.72451983750001,67.0,79.0
129,76.72671281250001,76.9876768375,75.0,91.0
130,76.9898698125,78.0403048375,72.0,93.0
131,78.0424978125,78.30236535,75.0,84.0
132,78.30565481250001,78.5666188375,75.0,77.0
133,78.5688118125,78.96135433750001,75.0,87.0
134,78.83196881250001,79.0929328375,72.0,60.0
135,79.0951258125,79.35499335,75.0,66.0
136,79.35828281250001,80.14556083750001,75.0,66.0
137,80.14775381250001,80.4087178375,72.0,91.0
138,80.4109108125,80.67187483750001,70.0,54.0
139,80.67406781250001,80.9350318375,65.0,63.0
140,80.9372248125,81.19818883750001,70.0,64.0
141,81.20038181250001,82.25081683750001,67.0,66.0
142,82.25300981250001,82.77603435,77.0,97.0
143,82.77932381250001,83.30344483750001,77.0,93.0
144,83.30563781250001,83.82975883750001,72.0,91.0
145,83.83195181250001,84.35497635000002,77.0,98.0
146,84.35826581250001,84.61813335000001,77.0,96.0
147,84.62142281250001,84.88238683750001,77.0,95.0
148,84.88457981250001,85.14554383750001,72.0,76.0
149,85.14773681250001,85.4087008375,79.0,98.0
150,85.4108938125,86.4613288375,77.0,105.0
151,86.4635218125,86.72338935,70.0,103.0
152,86.72667881250001,87.25079983750001,70.0,90.0
153,87.25299281250001,87.5139568375,72.0,98.0
154,87.5161498125,88.03917435000001,74.0,96.0
155,88.0424638125,88.5665848375,74.0,100.0
156,88.5687778125,89.09289883750002,70.0,86.0
157,89.09509181250002,89.61921283750002,67.0,86.0
158,89.62140581250002,91.65319715000001,72.0,103.0
159,124.35812981250001,124.88115435000002,72.0,76.0
160,124.88444381250001,125.2769863375,72.0,72.0
161,125.2791793125,125.43597702500001,70.0,62.0
162,125.41075781250001,125.67062535000001,72.0,76.0
163,125.67391481250002,126.19803583750002,72.0,73.0
164,126.20022881250001,126.46119283750001,70.0,63.0
165,126.46338581250001,126.98641035000001,67.0,66.0
166,126.9896998125,127.27478656250001,67.0,57.0
167,127.25285681250001,127.5138208375,75.0,63.0
168,127.5160138125,128.56644883750002,72.0,56.0
169,128.5686418125,128.82960583750003,75.0,93.0
170,128.8317988125,129.0927628375,75.0,93.0
171,129.09495581250002,129.3559198375,72.0,90.0
172,129.35811281250002,129.6749977,75.0,66.0
173,129.6212698125,129.88223383750002,72.0,79.0
174,129.8844268125,130.67170483750002,75.0,66.0
175,130.6738978125,130.940344275,72.0,85.0
176,130.9370548125,131.4611758375,70.0,66.0
177,131.46336881250002,131.77038531250003,65.0,56.0
178,131.7265258125,131.98748983750002,70.0,79.0
179,131.9896828125,132.7769608375,67.0,79.0
180,132.77915381250003,133.1716963375,65.0,85.0
181,133.17388931250002,133.30327483750003,63.0,53.0
182,133.3054678125,133.5664318375,65.0,66.0
183,133.56862481250002,133.86248346250002,63.0,55.0
184,133.83178181250003,134.09164935,65.0,63.0
185,134.0949388125,134.6190598375,65.0,64.0
186,134.62125281250002,134.8822168375,67.0,79.0
187,134.88440981250002,135.14537383750002,72.0,68.0
188,135.1475668125,135.6716878375,70.0,65.0
189,135.67388081250002,135.9348448375,67.0,63.0
190,135.93703781250002,136.19800183750002,72.0,65.0
191,136.2001948125,136.9874728375,70.0,77.0
192,136.98966581250002,137.24953335,75.0,87.0
193,137.2528228125,137.51269035,75.0,77.0
194,137.5159798125,137.77694383750003,75.0,79.0
195,137.7791368125,138.0444867875,72.0,64.0
196,138.04229381250002,138.30216135,77.0,91.0
197,138.30545081250003,139.0927288375,77.0,93.0
198,139.09492181250002,139.4874643375,70.0,90.0
199,139.48965731250001,139.88219983750002,67.0,84.0
200,139.8843928125,140.1453568375,75.0,90.0
201,140.14754981250002,143.30324083750003,72.0,98.0
202,143.3054338125,143.8295548375,75.0,85.0
203,143.83174781250003,144.09271183750002,72.0,64.0
204,144.0949048125,144.35586883750003,75.0,57.0
205,144.3580618125,144.8821828375,72.0,62.0
206,144.88437581250002,145.40740035000002,75.0,87.0
207,145.4106898125,145.6716538375,75.0,79.0
208,145.67384681250002,146.2001608125,67.0,71.0
209,146.2001608125,146.46112483750002,75.0,90.0
210,146.4633178125,147.51375283750002,72.0,93.0
211,147.5159458125,148.03897035000003,75.0,90.0
212,148.04225981250002,148.56528435,75.0,79.0
213,148.5685738125,149.0926948375,75.0,71.0
214,149.09488781250002,149.3558518375,72.0,65.0
215,149.35804481250003,149.61900883750002,70.0,66.0
216,149.6212018125,149.88216583750003,72.0,61.0
217,149.8843588125,150.4084798375,70.0,64.0
218,150.41067281250002,150.67163683750002,65.0,66.0
219,150.6738298125,151.72426483750002,67.0,66.0
220,151.7264578125,152.24948235000002,77.0,87.0
221,152.25277181250001,152.77689283750001,77.0,86.0
222,152.77908581250003,153.30320683750003,72.0,87.0
223,153.3053998125,153.82842435,77.0,84.0
224,153.83171381250003,154.09158135,77.0,90.0
225,154.0948708125,154.35583483750003,77.0,87.0
226,154.3580278125,154.6189918375,72.0,66.0
227,154.62118481250002,154.8865347875,79.0,77.0
228,154.88434181250003,155.9347768375,77.0,90.0
229,155.93696981250002,156.19683735,70.0,87.0
230,156.2001268125,156.45999435000002,70.0,81.0
231,156.4632838125,156.7242478375,70.0,87.0
232,156.72644081250002,156.9874048375,72.0,90.0
233,156.98959781250002,158.0400328375,74.0,90.0
234,158.04222581250002,158.3031898375,70.0,103.0
235,158.30538281250003,158.56634683750002,67.0,84.0
236,158.5685398125,158.83388978750003,70.0,91.0
237,158.8316968125,159.09156435000003,72.0,90.0
238,159.09485381250002,160.1452888375,72.0,97.0
239,160.14748181250002,160.67160283750002,75.0,93.0
240,160.6737958125,160.93475983750002,72.0,87.0
241,160.9369528125,161.203399275,75.0,90.0
242,161.20010981250002,161.72423083750002,72.0,63.0
243,161.7264238125,162.24944835000002,75.0,95.0
244,162.25273781250002,162.5137018375,75.0,90.0
245,162.51589481250002,162.77576235,67.0,69.0
246,162.77905181250003,163.04001583750002,67.0,79.0
247,163.0422088125,163.30317283750003,75.0,91.0
248,163.3053658125,164.35580083750003,72.0,93.0
249,164.3579938125,164.61786135000003,75.0,84.0
250,164.62115081250002,164.8821148375,75.0,77.0
251,164.88430781250003,165.2768503375,75.0,87.0
252,165.1474648125,165.40842883750003,72.0,60.0
253,165.4106218125,165.67048935000003,75.0,66.0
254,165.67377881250002,166.46105683750002,75.0,66.0
255,166.4632498125,166.72421383750003,72.0,91.0
256,166.72640681250002,166.9873708375,70.0,54.0
257,166.98956381250002,167.25052783750002,65.0,63.0
258,167.25272081250003,167.51368483750002,70.0,64.0
259,167.5158778125,168.56631283750002,67.0,66.0
260,168.5685058125,169.09153035000003,77.0,97.0
261,169.09481981250002,169.61894083750002,77.0,93.0
262,169.6211338125,170.1452548375,72.0,91.0
263,170.14744781250002,170.67047235,77.0,98.0
264,170.6737618125,170.93362935000002,77.0,96.0
265,170.9369188125,171.1978828375,77.0,95.0
266,171.20007581250002,171.4610398375,72.0,76.0
267,171.46323281250002,171.72419683750002,79.0,98.0
268,171.72638981250003,172.77682483750002,77.0,105.0
269,172.77901781250003,173.03888535000002,70.0,103.0
270,173.0421748125,173.5662958375,70.0,90.0
271,173.56848881250002,173.8294528375,72.0,98.0
272,173.83164581250003,174.35467035000002,74.0,96.0
273,174.3579598125,174.8820808375,74.0,100.0
274,174.88427381250003,175.40839483750003,70.0,86.0
275,175.4105878125,175.9347088375,67.0,86.0
276,176.98952981250002,177.51365083750002,75.0,93.0
277,175.93690181250003,177.77680783750003,72.0,103.0
278,177.5158438125,177.77680783750003,72.0,87.0
279,177.77900081250002,178.04544727500001,75.0,90.0
280,178.04215781250002,178.56627883750002,72.0,63.0
281,178.5684718125,179.09149635000003,75.0,95.0
282,179.09478581250002,179.3557498375,75.0,90.0
283,179.35794281250003,179.61781035,67.0,69.0
284,179.6210998125,179.88206383750003,67.0,79.0
285,179.8842568125,180.1452208375,75.0,91.0
286,180.14741381250002,181.1978488375,72.0,93.0
287,181.20004181250002,181.72416283750002,75.0,84.0
288,181.72635581250003,182.1188983375,75.0,87.0
289,182.25266981250002,182.51253735000003,75.0,66.0
290,182.51582681250002,182.77679083750002,75.0,66.0
291,182.77898381250003,183.03994783750002,72.0,66.0
292,183.0421408125,183.30310483750003,70.0,66.0
293,183.30529781250002,183.5662618375,72.0,91.0
294,183.56845481250002,183.96099733750003,70.0,54.0
295,184.0947688125,184.35573283750003,65.0,63.0
296,184.3579258125,185.40836083750003,67.0,66.0
297,185.4105538125,185.93357835,77.0,97.0
298,185.93686781250003,186.46098883750003,77.0,93.0
299,186.4631818125,186.9873028375,72.0,91.0
300,186.98949581250002,187.51252035000002,77.0,98.0
301,187.5158098125,187.77567735000002,77.0,96.0
302,187.77896681250002,188.0399308375,77.0,95.0
303,188.04212381250002,188.30308783750002,72.0,76.0
304,188.30528081250003,188.56624483750002,79.0,98.0
305,188.5684378125,189.61887283750002,77.0,105.0
306,189.6210658125,189.88093335000002,70.0,103.0
307,189.8842228125,190.1451868375,70.0,90.0
308,190.14737981250002,190.4083438375,70.0,90.0
309,190.41053681250003,190.67150083750002,72.0,98.0
310,190.6736938125,191.72412883750002,74.0,96.0
311,191.72632181250003,191.98728583750002,70.0,86.0
312,191.9894788125,192.25044283750003,67.0,86.0
313,192.25263581250002,192.5135998375,70.0,86.0
314,192.51579281250002,192.77675683750002,72.0,86.0
315,192.77894981250003,193.82938483750002,72.0,103.0
316,193.83157781250003,194.35569883750003,75.0,93.0
317,194.35789181250001,194.6188558375,72.0,87.0
318,194.62104881250002,194.88749527500002,75.0,90.0
319,194.88420581250003,195.40832683750003,72.0,63.0
320,195.4105198125,195.93354435000003,75.0,95.0
321,195.93683381250003,196.19779783750002,75.0,90.0
322,196.19999081250003,196.45985835000002,67.0,69.0
323,196.4631478125,196.72411183750003,67.0,79.0
324,196.72630481250002,196.9872688375,75.0,91.0
325,196.98946181250002,198.0398968375,72.0,93.0
326,198.04208981250002,198.30305383750002,75.0,84.0
327,198.30524681250003,198.56621083750002,75.0,84.0
328,198.5684038125,198.82936783750003,75.0,87.0
329,198.83156081250002,198.96094633750002,72.0,87.0
330,199.09471781250002,199.35458535,75.0,66.0
331,199.35787481250003,200.1451528375,75.0,66.0
332,200.14734581250002,200.4083098375,72.0,66.0
333,200.41050281250003,200.67146683750002,70.0,66.0
334,200.67365981250003,200.93462383750003,65.0,91.0
335,200.9368168125,201.19778083750003,70.0,54.0
336,201.19997381250002,201.4609378375,70.0,63.0
337,201.46313081250003,202.25040883750003,67.0,63.0
338,202.25260181250002,202.77562635,77.0,97.0
339,202.77891581250003,203.30303683750003,77.0,93.0
340,203.30522981250002,203.82935083750002,72.0,91.0
341,203.83154381250003,204.35456835000002,77.0,98.0
342,204.35785781250001,204.61772535000003,77.0,96.0
343,204.62101481250002,204.88197883750001,77.0,95.0
344,204.88417181250003,205.14513583750002,72.0,76.0
345,205.1473288125,205.40829283750003,79.0,98.0
346,205.4104858125,206.46092083750003,77.0,105.0
347,206.4631138125,206.85565633750002,70.0,90.0
348,206.8578493125,207.25039183750002,70.0,90.0
349,207.25258481250003,207.51354883750003,72.0,98.0
350,207.5157418125,208.0398628375,74.0,96.0
351,208.04205581250002,208.56617683750002,74.0,96.0
352,208.5683698125,209.0924908375,70.0,86.0
353,209.09468381250002,209.61880483750002,67.0,86.0
354,209.6209978125,210.67143283750002,72.0,103.0
355,210.67362581250003,211.06616833750002,70.0,90.0
356,211.06836131250003,211.45322842500002,70.0,90.0
357,211.46309681250003,211.72406083750002,72.0,98.0
358,211.72625381250003,212.25037483750003,74.0,96.0
359,212.25256781250002,212.77668883750002,74.0,96.0
360,212.77888181250003,213.30300283750003,70.0,86.0
361,213.30519581250002,213.82931683750002,67.0,86.0
362,213.83150981250003,215.86330115,72.0,103.0
