,start,end,pitch,velocity
0,2.2532818125,2.7982361000000004,67.0,82.0
1,2.5164388125,3.6962593625,55.0,71.0
2,3.5690668125000005,3.7412153500000005,63.0,84.0
3,3.5690668125000005,3.8629254625000002,72.0,86.0
4,2.7795958125,4.07454755,60.0,71.0
5,2.2532818125,4.085512425,48.0,72.0
6,3.8322238125000005,4.247792575,55.0,58.0
7,4.0953808125,4.855246650000001,62.0,79.0
8,4.0953808125,4.9429656500000005,70.0,82.0
9,4.6216948125,5.480244525000001,55.0,68.0
10,5.1480088125000005,5.713796362500001,63.0,82.0
11,5.1480088125000005,5.757655862500001,67.0,77.0
12,4.884851812500001,5.837699450000001,60.0,52.0
13,4.358537812500001,5.940769275000001,48.0,73.0
14,5.674322812500001,6.0109444750000005,55.0,71.0
15,5.9374798125,6.220373587500001,62.0,80.0
16,5.9374798125,6.24120685,70.0,80.0
17,6.200636812500001,6.3344082875000005,46.0,79.0
18,6.4637938125000005,7.04822165,63.0,84.0
19,6.4637938125000005,7.0800197875,60.0,76.0
20,6.4637938125000005,7.129361725000001,67.0,80.0
21,6.990107812500001,7.4133519875000005,56.0,63.0
22,7.2532648125,7.680894937500001,68.0,82.0
23,7.2532648125,7.691859812500001,63.0,80.0
24,7.2532648125,7.700631712500001,60.0,72.0
25,6.4637938125000005,7.837692650000001,44.0,83.0
26,6.726950812500001,7.864008350000001,51.0,72.0
27,7.516421812500001,7.997779825000001,46.0,82.0
28,8.0427358125,8.348655825000002,62.0,80.0
29,8.0427358125,8.3607171875,65.0,82.0
30,8.305892812500002,8.438567800000001,67.0,58.0
31,8.0427358125,8.438567800000001,70.0,75.0
32,8.569049812500001,8.982425600000001,58.0,75.0
33,8.569049812500001,9.0756270375,67.0,78.0
34,8.569049812500001,9.086591912500001,63.0,84.0
35,9.0953638125,9.262029912500001,58.0,39.0
36,9.3585208125,9.728037100000002,58.0,62.0
37,9.3585208125,9.815756100000002,65.0,84.0
38,8.569049812500001,10.1918513125,51.0,80.0
39,9.884834812500001,10.208298625000001,58.0,73.0
40,9.884834812500001,10.334394687500001,67.0,86.0
41,10.4111488125,10.5186045875,70.0,73.0
42,10.674305812500002,10.916629550000001,63.0,84.0
43,10.674305812500002,11.008734500000001,68.0,79.0
44,11.4637768125,11.825617687500001,68.0,75.0
45,11.4637768125,11.9374594125,77.0,86.0
46,10.937462812500002,11.973643500000001,60.0,61.0
47,11.990090812500002,12.041625725000001,77.0,42.0
48,11.200619812500001,12.062458987500001,65.0,70.0
49,11.990090812500002,12.32890545,68.0,78.0
50,11.990090812500002,12.359607100000002,75.0,84.0
51,10.674305812500002,12.3694754875,53.0,80.0
52,12.253247812500002,12.406756062500001,60.0,72.0
53,12.7795618125,13.012017162500001,43.0,84.0
54,13.0427188125,13.349735312500002,55.0,69.0
55,12.7795618125,13.654558837500002,74.0,86.0
56,12.7795618125,13.678681562500001,70.0,82.0
57,12.7795618125,13.692935900000002,67.0,80.0
58,13.569032812500001,14.1392063125,62.0,83.0
59,13.832189812500001,14.166618500000002,67.0,72.0
60,13.305875812500002,14.238986675000001,58.0,75.0
61,14.0953468125,14.471442025000002,70.0,84.0
62,14.358503812500002,14.686353575000002,72.0,79.0
63,14.621660812500002,14.970343837500002,75.0,84.0
64,14.884817812500001,15.161132662500002,56.0,78.0
65,14.884817812500001,15.490078912500001,72.0,79.0
66,14.884817812500001,15.503236762500002,63.0,83.0
67,14.884817812500001,15.512008662500001,68.0,83.0
68,15.4111318125,15.5405173375,56.0,79.0
69,14.884817812500001,15.570122500000002,44.0,83.0
70,15.674288812500002,15.766393762500002,63.0,52.0
71,15.937445812500002,16.1655152125,53.0,79.0
72,15.937445812500002,16.5975312875,65.0,80.0
73,15.937445812500002,16.64468025,72.0,82.0
74,15.937445812500002,16.7598114375,41.0,86.0
75,16.4637598125,16.8212147375,53.0,79.0
76,15.937445812500002,16.8584953125,68.0,82.0
77,16.9900738125,17.183055612500002,43.0,93.0
78,16.9900738125,17.187441562500002,67.0,83.0
79,16.9900738125,17.1896345375,71.0,84.0
80,16.9900738125,17.1984064375,74.0,94.0
81,16.9900738125,17.2049853625,55.0,80.0
82,17.516387812500003,18.736778400000002,67.0,86.0
83,17.516387812500003,18.74993625,71.0,84.0
84,17.516387812500003,18.761997612500004,74.0,94.0
85,17.516387812500003,18.775155462500003,55.0,86.0
86,17.516387812500003,18.808050087500003,43.0,83.0
87,19.0953298125,19.454977712500003,63.0,82.0
88,19.0953298125,19.48677585,67.0,83.0
89,19.0953298125,19.528442375,72.0,82.0
90,19.0953298125,19.728003100000002,60.0,61.0
91,19.6216438125,19.753222312500004,62.0,78.0
92,19.6216438125,19.813529125000002,67.0,73.0
93,19.6216438125,19.95168655,70.0,78.0
94,19.884800812500004,20.392474525,63.0,82.0
95,19.884800812500004,20.392474525,72.0,77.0
96,19.884800812500004,20.400149937500004,67.0,78.0
97,20.411114812500003,20.817911675,60.0,46.0
98,19.0953298125,20.846420350000002,48.0,79.0
99,20.674271812500002,20.968130462500003,63.0,75.0
100,20.674271812500002,20.9911567,67.0,80.0
101,20.674271812500002,21.008700500000003,72.0,80.0
102,20.937428812500002,21.218129612500004,55.0,75.0
103,21.2005858125,21.4198833125,60.0,46.0
104,21.2005858125,21.565716150000004,63.0,82.0
105,21.2005858125,21.584356437500002,72.0,81.0
106,21.2005858125,21.5964178,67.0,80.0
107,21.4637428125,21.667689487500002,60.0,40.0
108,21.7268998125,21.874925625000003,62.0,75.0
109,21.7268998125,21.876022112500003,67.0,60.0
110,21.7268998125,21.964837600000003,70.0,82.0
111,21.8584783125,22.094223125000003,60.0,35.0
112,21.9900568125,22.479090237500003,72.0,82.0
113,21.9900568125,22.5010199875,63.0,80.0
114,21.9900568125,22.545975975,67.0,80.0
115,22.516370812500003,22.834352187500002,60.0,61.0
116,21.2005858125,22.910009825000003,48.0,76.0
117,22.779527812500003,22.96922015,63.0,84.0
118,22.911106312500003,23.124921375000003,67.0,80.0
119,23.042684812500003,23.1929036,70.0,79.0
120,23.305841812500002,23.654524837500002,63.0,82.0
121,23.305841812500002,23.6676826875,68.0,82.0
122,23.305841812500002,23.680840537500004,72.0,83.0
123,23.305841812500002,24.088733887500002,44.0,82.0
124,23.8321558125,24.121628512500003,63.0,72.0
125,23.568998812500002,24.1413652875,56.0,48.0
126,24.0953128125,24.3058384125,72.0,77.0
127,24.3584698125,24.717021225000003,74.0,86.0
128,24.3584698125,24.719214200000003,65.0,82.0
129,24.3584698125,24.723600150000003,70.0,79.0
130,24.884783812500004,25.112853212500003,65.0,79.0
131,24.3584698125,25.158905687500003,46.0,83.0
132,24.621626812500004,25.311317450000004,58.0,69.0
133,25.147940812500003,25.350791,70.0,82.0
134,25.411097812500003,25.916578550000004,70.0,51.0
135,25.411097812500003,25.928639912500003,67.0,78.0
136,25.411097812500003,25.979078337500003,75.0,83.0
137,26.200568812500002,26.5931113375,65.0,81.0
138,26.200568812500002,26.608462162500004,70.0,77.0
139,25.937411812500002,26.7707423125,63.0,79.0
140,26.7268828125,26.995522250000004,67.0,83.0
141,25.411097812500003,27.007583612500003,51.0,84.0
142,25.674254812500003,27.099688562500003,58.0,75.0
143,26.9900398125,27.177539175000003,63.0,77.0
144,26.9900398125,27.232363550000002,70.0,78.0
145,27.253196812500004,27.521836250000003,72.0,73.0
146,27.516353812500004,27.799247587500002,63.0,73.0
147,27.516353812500004,28.025124012500005,68.0,84.0
148,27.779510812500003,28.382578937500003,60.0,69.0
149,28.042667812500003,28.520736362500003,65.0,73.0
150,28.305824812500003,28.7509987375,72.0,79.0
151,28.305824812500003,28.791568775000002,75.0,81.0
152,28.305824812500003,28.795954725,68.0,79.0
153,28.832138812500002,29.132576387500002,60.0,69.0
154,29.0952958125,29.147927212500004,72.0,73.0
155,27.516353812500004,29.2246813375,53.0,82.0
156,29.0952958125,29.269637325,68.0,84.0
157,29.0952958125,29.302531950000002,75.0,84.0
158,29.621609812500004,29.964810400000005,67.0,84.0
159,29.621609812500004,29.971389325000004,58.0,80.0
160,29.621609812500004,29.976871762500004,62.0,86.0
161,30.147923812500004,30.377089700000003,58.0,73.0
162,30.411080812500003,30.498799812500003,62.0,90.0
163,30.674237812500003,31.016341912500003,67.0,79.0
164,29.621609812500004,31.150113387500003,43.0,83.0
165,29.884766812500004,31.249893750000002,55.0,69.0
166,30.937394812500003,31.259762137500005,70.0,83.0
167,31.200551812500002,31.487831537500004,74.0,81.0
168,31.463708812500002,31.658883587500004,75.0,90.0
169,31.7268658125,32.00975958750001,44.0,79.0
170,31.990022812500005,32.34638125,56.0,62.0
171,31.7268658125,32.4023021125,63.0,82.0
172,31.7268658125,32.414363475,68.0,84.0
173,31.7268658125,32.4351967375,72.0,83.0
174,32.384758312500004,32.448354587500006,60.0,56.0
175,32.5163368125,32.706029150000006,63.0,79.0
176,32.7794938125,32.888046075000005,68.0,71.0
177,33.0426508125,33.361728675,63.0,82.0
178,33.0426508125,33.38146545,72.0,80.0
179,33.0426508125,33.408877637500005,68.0,84.0
180,33.30580781250001,33.4395792875,56.0,70.0
181,33.30580781250001,33.4549301125,44.0,82.0
182,33.568964812500006,33.684096000000004,63.0,73.0
183,33.832121812500006,33.9637003125,60.0,48.0
184,33.832121812500006,34.16655050000001,74.0,86.0
185,33.832121812500006,34.199445125000004,65.0,80.0
186,33.832121812500006,34.2136994625,70.0,81.0
187,33.832121812500006,34.460409150000004,46.0,69.0
188,33.832121812500006,34.537163275000005,58.0,43.0
189,34.358435812500005,34.594180625,65.0,76.0
190,34.621592812500005,34.831021925,70.0,80.0
191,34.884749812500004,34.9987845125,60.0,68.0
192,34.884749812500004,35.2509766375,75.0,84.0
193,34.884749812500004,35.2663274625,67.0,84.0
194,34.884749812500004,35.307993987500005,72.0,82.0
195,35.411063812500004,35.493300375000004,75.0,58.0
196,35.147906812500004,35.60952805,60.0,59.0
197,35.411063812500004,35.740010062500005,67.0,75.0
198,34.884749812500004,35.7630363,48.0,84.0
199,35.6742208125,35.7630363,72.0,48.0
200,35.6742208125,35.812378237500006,75.0,76.0
201,35.9373778125,36.004263550000005,70.0,73.0
202,35.9373778125,36.004263550000005,70.0,95.0
203,35.9373778125,36.03057925,74.0,79.0
204,35.9373778125,36.0360616875,65.0,75.0
205,35.9373778125,36.0470265625,58.0,70.0
206,35.9373778125,36.04812305,46.0,82.0
207,36.2005348125,36.259745137500005,70.0,79.0
208,36.2005348125,36.46917425,58.0,80.0
209,36.2005348125,36.595270312500006,77.0,95.0
210,36.2005348125,36.7465855875,65.0,79.0
211,36.2005348125,36.763032900000006,74.0,80.0
212,36.2005348125,36.764129387500006,46.0,84.0
213,36.7268488125,36.8255326875,58.0,62.0
214,36.7268488125,36.9856198625,75.0,98.0
215,36.9900058125,37.2367155,60.0,83.0
216,36.9900058125,37.540442537500006,75.0,84.0
217,36.9900058125,37.544828487500006,67.0,77.0
218,36.9900058125,37.564565262500004,72.0,79.0
219,36.9900058125,37.564565262500004,72.0,93.0
220,37.647898312500004,37.795924125000006,67.0,82.0
221,36.9900058125,37.817853875000004,48.0,80.0
222,37.5163198125,37.844169575,60.0,68.0
223,37.7794768125,37.96149373750001,70.0,62.0
224,37.911055312500004,38.0261865,72.0,72.0
225,38.04263381250001,38.668728175000005,67.0,84.0
226,38.04263381250001,38.669824662500005,63.0,82.0
227,38.04263381250001,38.670921150000005,72.0,81.0
228,38.56894781250001,39.380348562500004,60.0,69.0
229,38.832104812500006,39.3935064125,63.0,71.0
230,39.358418812500005,39.703812375000005,67.0,81.0
231,38.04263381250001,39.8408733125,48.0,79.0
232,39.621575812500005,39.89898715,60.0,40.0
233,39.884732812500005,40.051398912500005,67.0,59.0
234,38.30579081250001,40.1062232875,55.0,73.0
235,40.147889812500004,40.7728876875,67.0,76.0
236,40.147889812500004,41.003150062500005,75.0,86.0
237,40.9373608125,41.07003580000001,74.0,86.0
238,40.9373608125,41.087579600000005,65.0,81.0
239,40.411046812500004,41.4614818375,55.0,73.0
240,40.674203812500004,41.550297325,60.0,58.0
241,41.4636748125,41.772884287500005,63.0,82.0
242,40.147889812500004,41.809068375,48.0,73.0
243,41.7268318125,41.822226225,55.0,79.0
244,41.4636748125,41.83648056250001,72.0,83.0
245,41.9899888125,42.18735656250001,70.0,80.0
246,42.2531458125,42.52507471250001,44.0,81.0
247,42.5163028125,42.8419596,56.0,71.0
248,42.2531458125,42.916520750000004,63.0,78.0
249,42.2531458125,42.9384505,68.0,78.0
250,42.2531458125,42.945029425,72.0,74.0
251,42.7794598125,43.2070899375,60.0,57.0
252,43.04261681250001,43.22244076250001,63.0,75.0
253,43.30577381250001,43.5316502375,68.0,79.0
254,43.56893081250001,43.7926142625,72.0,78.0
255,44.095244812500006,44.4154191625,75.0,80.0
256,44.358401812500006,44.4154191625,75.0,84.0
257,44.358401812500006,44.9154174625,70.0,82.0
258,44.358401812500006,44.95050506250001,67.0,76.0
259,44.621558812500005,45.42528415,58.0,72.0
260,45.147872812500005,45.5349329,65.0,76.0
261,45.147872812500005,45.655546525000005,70.0,79.0
262,44.884715812500005,45.6939235875,63.0,70.0
263,44.358401812500006,45.940633275,51.0,83.0
264,45.9373438125,46.06563285000001,58.0,79.0
265,45.674186812500004,46.077694212500006,67.0,84.0
266,46.4636578125,46.776156750000006,63.0,78.0
267,46.4636578125,47.02176995000001,68.0,84.0
268,47.2531288125,47.62703105000001,68.0,72.0
269,46.9899718125,47.9472054,65.0,71.0
270,47.77944281250001,48.0097051875,72.0,76.0
271,46.4636578125,48.1193539375,53.0,82.0
272,46.7268148125,48.14018720000001,60.0,63.0
273,48.04259981250001,48.254221900000005,75.0,79.0
274,48.30575681250001,48.514089437500004,79.0,71.0
275,48.56891381250001,48.79369375,43.0,84.0
276,48.56891381250001,49.0612367,62.0,84.0
277,48.83207081250001,49.1489557,55.0,60.0
278,48.56891381250001,49.34193750000001,67.0,84.0
279,48.56891381250001,49.441717862500006,70.0,82.0
280,49.358384812500006,50.0820665625,62.0,80.0
281,49.095227812500006,50.1675925875,58.0,69.0
282,49.884698812500005,50.19610126250001,67.0,82.0
283,50.147855812500005,50.262987,70.0,86.0
284,50.674169812500004,50.98886172500001,63.0,82.0
285,50.674169812500004,51.006405525000005,72.0,80.0
286,50.674169812500004,51.009694987500005,68.0,79.0
287,50.937326812500004,51.253115212500006,56.0,62.0
288,50.674169812500004,51.2925887625,44.0,82.0
289,51.2004838125,51.40771995000001,63.0,71.0
290,51.4636408125,51.6346928625,72.0,73.0
291,51.7267978125,52.0732878625,68.0,80.0
292,51.7267978125,52.0798667875,65.0,78.0
293,51.7267978125,52.0798667875,72.0,80.0
294,51.7267978125,52.27504156250001,41.0,83.0
295,51.9899548125,52.4131989875,53.0,69.0
296,52.2531118125,52.480084725000005,65.0,73.0
297,52.51626881250001,52.6829349125,68.0,75.0
298,52.77942581250001,53.1127580125,74.0,86.0
299,52.77942581250001,53.13139830000001,65.0,80.0
300,52.77942581250001,53.14345966250001,70.0,76.0
301,53.30573981250001,53.48117781250001,65.0,69.0
302,52.77942581250001,53.526133800000004,46.0,84.0
303,53.04258281250001,53.73446642500001,58.0,62.0
304,53.56889681250001,53.764071587500005,72.0,76.0
305,53.83205381250001,54.2377541875,48.0,79.0
306,54.09521081250001,54.35178888750001,55.0,76.0
307,54.358367812500006,54.6697702625,60.0,57.0
308,53.83205381250001,54.732270050000004,67.0,78.0
309,54.621524812500006,54.9175764375,62.0,62.0
310,53.83205381250001,54.94389213750001,75.0,86.0
311,54.884681812500006,55.393452012500006,58.0,83.0
312,54.884681812500006,55.438408,74.0,91.0
313,54.884681812500006,55.46253072500001,46.0,84.0
314,54.884681812500006,55.47568857500001,65.0,84.0
315,54.884681812500006,55.47568857500001,70.0,84.0
316,55.674152812500004,56.041476125,65.0,86.0
317,55.674152812500004,56.0469585625,70.0,86.0
318,55.674152812500004,56.04805505,43.0,91.0
319,55.674152812500004,56.04915153750001,74.0,86.0
320,55.674152812500004,56.06340587500001,55.0,95.0
321,56.200466812500004,56.276124450000005,65.0,94.0
322,56.200466812500004,56.281606887500004,70.0,91.0
323,56.200466812500004,56.285992837500004,55.0,101.0
324,56.200466812500004,56.2892823,43.0,95.0
325,56.200466812500004,56.3057296125,74.0,93.0
326,56.4636238125,56.694982675000006,67.0,93.0
327,56.4636238125,56.703754575000005,72.0,93.0
328,56.4636238125,56.710333500000004,48.0,101.0
329,56.4636238125,56.715815937500004,75.0,98.0
330,56.9899378125,57.298050800000006,67.0,81.0
331,56.9899378125,57.298050800000006,75.0,86.0
332,56.9899378125,57.34300678750001,72.0,82.0
333,57.51625181250001,57.738838775000005,67.0,72.0
334,57.2530948125,57.915373262500005,60.0,44.0
335,57.77940881250001,58.2750211625,75.0,90.0
336,57.77940881250001,58.29475793750001,67.0,80.0
337,57.77940881250001,58.30462632500001,72.0,80.0
338,58.56887981250001,58.601774437500005,75.0,47.0
339,58.56887981250001,58.784887850000004,67.0,81.0
340,56.9899378125,58.847387637500006,48.0,84.0
341,58.30572281250001,58.8824752375,60.0,63.0
342,58.83203681250001,59.193877687500006,72.0,75.0
343,59.09519381250001,59.44168386250001,75.0,91.0
344,59.09519381250001,59.471289025000004,67.0,82.0
345,59.621507812500006,59.78598093750001,67.0,69.0
346,59.35835081250001,59.965804887500006,60.0,71.0
347,59.884664812500006,60.254181100000004,67.0,86.0
348,59.884664812500006,60.30461952500001,75.0,90.0
349,60.147821812500005,60.46141723750001,60.0,71.0
350,60.410978812500005,60.769530225000004,65.0,84.0
351,60.410978812500005,60.7837845625,74.0,84.0
352,59.09519381250001,60.915363062500006,48.0,79.0
353,60.674135812500005,61.019529375000005,60.0,63.0
354,60.937292812500004,61.129178125,70.0,81.0
355,61.200449812500004,61.68290431250001,75.0,84.0
356,61.200449812500004,61.717991912500004,72.0,82.0
357,61.200449812500004,61.74869356250001,67.0,83.0
358,61.9899208125,62.36163007500001,67.0,72.0
359,61.7267638125,62.54364700000001,60.0,70.0
360,62.51623481250001,62.87478622500001,75.0,86.0
361,62.51623481250001,62.88575110000001,72.0,80.0
362,62.51623481250001,62.88794407500001,67.0,82.0
363,61.463606812500004,63.04035583750001,55.0,76.0
364,61.200449812500004,63.05899612500001,48.0,82.0
365,63.04254881250001,63.1138205,75.0,53.0
366,62.77939181250001,63.11491698750001,60.0,76.0
367,63.04254881250001,63.187285162500004,67.0,75.0
368,63.30570581250001,63.690572925000005,70.0,83.0
369,63.30570581250001,63.702634287500004,75.0,86.0
370,63.30570581250001,63.73114296250001,67.0,83.0
371,63.700441312500004,63.73114296250001,67.0,43.0
372,63.56886281250001,64.15000118750001,63.0,62.0
373,64.0951768125,64.677411675,75.0,90.0
374,64.0951768125,64.694955475,67.0,82.0
375,64.0951768125,64.71688522500001,70.0,83.0
376,63.30570581250001,65.023901725,51.0,90.0
377,64.8846478125,65.16973456250001,75.0,86.0
378,64.8846478125,65.199339725,67.0,84.0
379,64.6214908125,65.2552605875,63.0,76.0
380,65.14780481250001,65.4526283375,70.0,79.0
381,65.4109618125,65.8857409,72.0,83.0
382,65.4109618125,65.9285039125,77.0,90.0
383,65.4109618125,65.9328898625,68.0,83.0
384,66.20043281250001,66.5611772,68.0,75.0
385,65.9372758125,66.72016788750001,65.0,80.0
386,66.72674681250001,66.8254306875,68.0,57.0
387,66.72674681250001,67.063368475,77.0,91.0
388,66.4635898125,67.07104388750001,72.0,80.0
389,65.4109618125,67.11271041250001,53.0,86.0
390,66.9899038125,67.21578023750001,65.0,76.0
391,65.67411881250001,67.38902526250001,60.0,76.0
392,67.25306081250001,67.458103975,68.0,68.0
393,67.5162178125,68.10064565,68.0,53.0
394,67.5162178125,68.107224575,77.0,90.0
395,68.30568881250001,68.49428466250001,68.0,78.0
396,68.5688458125,68.63902101250001,68.0,17.0
397,68.5688458125,68.7574416625,72.0,76.0
398,68.0425318125,69.08967737500001,65.0,80.0
399,68.83200281250001,69.15437013750001,75.0,84.0
400,69.0951598125,69.2113874875,77.0,84.0
401,67.77937481250001,69.2464750875,60.0,75.0
402,67.5162178125,69.2508610375,53.0,83.0
403,69.35831681250001,69.47015853750001,79.0,84.0
404,69.62147381250001,69.83419238750001,46.0,83.0
405,69.8846308125,70.17629648750001,58.0,62.0
406,69.62147381250001,70.39011155,70.0,81.0
407,69.62147381250001,70.4241026625,77.0,84.0
408,69.62147381250001,70.46028675000001,65.0,76.0
409,70.67410181250001,71.02059186250001,65.0,80.0
410,70.9372588125,71.1346265625,70.0,80.0
411,71.20041581250001,71.28045940000001,70.0,48.0
412,70.14778781250001,71.32870485000001,60.0,69.0
413,70.4109448125,71.33966972500001,62.0,83.0
414,71.20041581250001,71.423002775,72.0,77.0
415,71.72672981250001,72.072123375,65.0,83.0
416,71.4635728125,72.094053125,77.0,83.0
417,71.72672981250001,72.10940395,70.0,83.0
418,71.9898868125,72.30457872500001,62.0,69.0
419,71.72672981250001,72.3276049625,55.0,84.0
420,72.25304381250001,72.48220970000001,65.0,83.0
421,72.5162008125,72.71466505000001,70.0,83.0
422,72.77935781250001,73.27716313750001,48.0,82.0
423,73.0425148125,73.3473383375,55.0,78.0
424,73.30567181250001,73.64448645,60.0,76.0
425,72.77935781250001,73.778257925,72.0,82.0
426,72.77935781250001,73.78483685,67.0,82.0
427,73.5688288125,73.85281907500001,62.0,75.0
428,73.83198581250001,73.9131258875,63.0,80.0
429,73.83198581250001,73.9131258875,63.0,83.0
430,73.83198581250001,74.3330806,48.0,84.0
431,74.0951428125,74.3626857625,55.0,81.0
432,73.83198581250001,74.65215846250001,67.0,78.0
433,74.35829981250001,74.76948262500001,60.0,75.0
434,73.83198581250001,74.93395575000001,72.0,81.0
435,74.8846138125,75.09184995000001,63.0,83.0
436,74.62145681250001,75.12255160000001,62.0,63.0
437,75.14777081250001,75.49426086250001,67.0,82.0
438,75.67408481250001,75.7278127,72.0,46.0
439,75.4109278125,75.9284699125,70.0,82.0
440,75.9372418125,76.2771529375,63.0,76.0
441,75.9372418125,76.31772297500001,67.0,76.0
442,75.9372418125,76.348424625,72.0,79.0
443,76.4635558125,76.594037825,63.0,63.0
444,76.4635558125,76.721230375,70.0,76.0
445,76.72671281250001,77.25083383750001,63.0,81.0
446,76.72671281250001,77.29469333750001,72.0,75.0
447,76.72671281250001,77.3473247375,67.0,79.0
448,75.9372418125,77.3626755625,48.0,79.0
449,76.20039881250001,77.3626755625,55.0,80.0
450,77.25302681250001,77.75850755,60.0,79.0
451,77.5161838125,77.8451300625,67.0,79.0
452,77.5161838125,77.8846036125,63.0,83.0
453,77.77934081250001,77.97451558750001,55.0,57.0
454,77.5161838125,77.98219100000001,72.0,80.0
455,77.91091931250001,78.0874538,51.0,76.0
456,78.0424978125,78.420786,63.0,82.0
457,78.0424978125,78.44600521250001,67.0,83.0
458,78.0424978125,78.58087317500001,72.0,80.0
459,78.5688118125,78.9109159125,60.0,68.0
460,78.83196881250001,79.1938096875,63.0,83.0
461,78.83196881250001,79.29030058750001,72.0,82.0
462,78.30565481250001,79.46573858750001,55.0,78.0
463,79.35828281250001,79.74972885000001,60.0,73.0
464,79.62143981250001,79.7837199625,62.0,79.0
465,78.0424978125,79.86047408750001,48.0,84.0
466,79.8845968125,79.9569649875,55.0,73.0
467,79.62143981250001,80.07867510000001,70.0,80.0
468,80.14775381250001,80.6345942625,67.0,83.0
469,80.14775381250001,80.65652401250001,72.0,84.0
470,80.4109108125,81.03152273750001,58.0,75.0
471,80.67406781250001,81.2727499875,63.0,79.0
472,80.9372248125,81.2793289125,65.0,83.0
473,80.9372248125,81.422968775,70.0,84.0
474,80.14775381250001,81.8100288625,51.0,93.0
475,81.4635388125,81.8100288625,58.0,80.0
476,81.9898528125,82.089633175,70.0,77.0
477,81.72669581250001,82.22450113750001,67.0,77.0
478,82.25300981250001,82.51287735000001,41.0,84.0
479,82.25300981250001,82.78370976250001,63.0,82.0
480,82.25300981250001,82.79357815,60.0,78.0
481,82.5161668125,82.8166043875,53.0,67.0
482,82.25300981250001,83.05234920000001,68.0,82.0
483,83.30563781250001,83.61484728750001,63.0,78.0
484,83.0424808125,83.75629417500001,60.0,62.0
485,82.77932381250001,83.83195181250001,56.0,69.0
486,83.5687948125,83.8582675125,68.0,84.0
487,83.83195181250001,84.0753720375,72.0,78.0
488,84.09510881250002,84.2025645875,65.0,48.0
489,84.35826581250001,84.60497550000001,41.0,84.0
490,84.62142281250001,84.9437901375,53.0,78.0
491,84.35826581250001,85.20036821250001,72.0,78.0
492,84.35826581250001,85.22778040000001,65.0,81.0
493,84.35826581250001,85.24532420000001,68.0,83.0
494,85.4108938125,85.6345772625,65.0,81.0
495,85.67405081250001,85.7705417125,65.0,56.0
496,85.67405081250001,85.82646257500001,75.0,84.0
497,85.67405081250001,85.84071691250001,68.0,84.0
498,85.14773681250001,86.06659333750001,60.0,73.0
499,84.88457981250001,86.07975118750001,56.0,72.0
500,85.9372078125,86.10935635000001,65.0,75.0
501,85.9372078125,86.1192247375,68.0,79.0
502,85.9372078125,86.21461915,75.0,86.0
503,86.20036481250001,86.3944431,70.0,80.0
504,86.4635218125,86.67952985000001,46.0,84.0
505,86.72667881250001,87.04027423750001,58.0,69.0
506,86.4635218125,87.225580625,70.0,84.0
507,86.4635218125,87.29575582500001,77.0,82.0
508,86.4635218125,87.3034312375,74.0,84.0
509,86.4635218125,87.32865045000001,65.0,84.0
510,87.5161498125,87.85277147500001,65.0,79.0
511,87.77930681250001,87.96022725,72.0,80.0
512,87.25299281250001,88.0051832375,62.0,86.0
513,86.9898358125,88.0380778625,60.0,76.0
514,88.0424638125,88.31658568750001,74.0,84.0
515,88.30562081250001,88.5249183125,77.0,82.0
516,88.5687778125,88.7091282125,41.0,74.0
517,88.5687778125,88.92184678750002,55.0,81.0
518,88.5687778125,89.02491661250001,67.0,79.0
519,88.5687778125,89.03478500000001,70.0,82.0
520,88.5687778125,89.1488197,74.0,91.0
521,88.5687778125,89.155398625,43.0,76.0
522,89.09509181250002,89.21899490000001,55.0,90.0
523,89.62140581250002,89.94925557500001,63.0,82.0
524,89.62140581250002,89.96022045000001,67.0,82.0
525,89.62140581250002,89.96789586250001,72.0,83.0
526,89.88456281250001,90.2485966625,60.0,74.0
527,90.14771981250001,90.32973673750001,63.0,79.0
528,89.62140581250002,90.330833225,48.0,82.0
529,90.14771981250001,90.39991193750001,70.0,84.0
530,90.67403381250001,90.9591205625,63.0,86.0
531,90.67403381250001,90.96460300000001,72.0,84.0
532,90.67403381250001,90.96898895000001,67.0,86.0
533,91.06876931250001,91.12469017500001,67.0,82.0
534,91.06876931250001,91.13346207500001,63.0,79.0
535,91.06876931250001,91.15100587500001,72.0,81.0
536,91.3319263125,91.5610922,60.0,6.0
537,91.4635048125,91.74859156250001,67.0,80.0
538,91.4635048125,91.760652925,63.0,83.0
539,91.4635048125,91.8297316375,70.0,86.0
540,90.67403381250001,91.92402956250001,48.0,90.0
541,91.9898188125,92.26723015,67.0,83.0
542,91.9898188125,92.3516596875,63.0,79.0
543,91.9898188125,92.44266815,72.0,79.0
544,92.25297581250001,92.54793095000001,60.0,47.0
545,92.25297581250001,92.60604478750001,48.0,68.0
546,92.5161328125,92.75078113750001,63.0,84.0
547,92.5161328125,92.86591232500001,70.0,84.0
548,92.77928981250001,93.0380608625,63.0,68.0
549,92.77928981250001,93.06437656250002,67.0,84.0
550,92.77928981250001,93.06437656250002,72.0,83.0
551,92.77928981250001,93.15757800000002,60.0,78.0
552,93.1740253125,93.2091129125,72.0,53.0
553,93.1740253125,93.2200777875,67.0,78.0
554,93.1740253125,93.24091105000001,63.0,81.0
555,93.1740253125,93.265033775,70.0,80.0
556,93.5687608125,93.8779702875,63.0,90.0
557,93.5687608125,93.9020930125,72.0,83.0
558,93.5687608125,93.92182978750002,67.0,84.0
559,93.30560381250001,94.0468293625,60.0,62.0
560,94.09507481250002,94.14112728750001,67.0,61.0
561,94.09507481250002,94.4196351125,63.0,84.0
562,94.09507481250002,94.46897705,70.0,90.0
563,94.35823181250001,94.4909068,60.0,79.0
564,92.77928981250001,94.5490206375,48.0,84.0
565,94.62138881250002,94.8330109,67.0,80.0
566,94.7529673125,94.86809850000002,70.0,78.0
567,94.88454581250001,95.16963256250001,63.0,80.0
568,94.88454581250001,95.18827285,72.0,81.0
569,94.88454581250001,95.190465825,67.0,80.0
570,94.88454581250001,95.2507726375,60.0,78.0
571,95.2792813125,95.352745975,67.0,73.0
572,95.2792813125,95.357131925,63.0,69.0
573,95.2792813125,95.39002655000002,72.0,77.0
574,95.41085981250001,95.88234943750001,60.0,69.0
575,95.67401681250001,96.00844550000001,63.0,86.0
576,95.67401681250001,96.041340125,67.0,80.0
577,95.67401681250001,96.16305023750002,70.0,84.0
578,96.06875231250001,96.16962916250002,60.0,32.0
579,96.20033081250001,96.2365149,70.0,61.0
580,96.20033081250001,96.53585598750001,63.0,82.0
581,96.20033081250001,96.56217168750001,72.0,75.0
582,96.20033081250001,96.58190846250001,67.0,82.0
583,94.88454581250001,96.59725928750001,48.0,84.0
584,96.4634878125,96.60932065000002,60.0,68.0
585,96.72664481250001,96.84725843750002,63.0,57.0
586,96.72664481250001,96.91304768750001,72.0,75.0
587,96.9898018125,97.27817802500002,63.0,83.0
588,96.9898018125,97.28475695000002,70.0,82.0
589,96.9898018125,97.29023938750001,67.0,81.0
590,96.9898018125,97.3604145875,58.0,78.0
591,97.38453731250002,97.449230075,67.0,81.0
592,97.38453731250002,97.45032656250001,63.0,79.0
593,97.38453731250002,97.46129143750001,70.0,80.0
594,97.77927281250001,98.17510480000001,67.0,81.0
595,97.77927281250001,98.18168372500001,58.0,79.0
596,97.77927281250001,98.20361347500001,63.0,82.0
597,96.9898018125,98.41523556250002,51.0,82.0
598,98.30558681250001,98.629050625,63.0,90.0
599,98.30558681250001,98.63234008750001,70.0,86.0
600,98.30558681250001,98.64769091250001,58.0,78.0
601,98.5687438125,98.68606797500001,51.0,84.0
602,98.83190081250001,98.993084475,65.0,69.0
603,98.96347931250001,99.07861050000001,67.0,79.0
604,99.09505781250002,99.39001295000001,68.0,90.0
605,99.09505781250002,99.4020743125,63.0,83.0
606,99.09505781250002,99.40536377500001,60.0,79.0
607,99.09505781250002,99.4996617,53.0,80.0
608,99.48979331250001,99.53584578750001,63.0,80.0
609,99.48979331250001,99.57860880000001,68.0,80.0
610,99.48979331250001,99.5818982625,60.0,78.0
611,99.62137181250002,100.07641412500001,53.0,71.0
612,99.88452881250001,100.4547023125,68.0,84.0
613,99.88452881250001,100.46676367500001,65.0,86.0
614,99.88452881250001,100.49088640000001,60.0,84.0
615,100.41084281250001,100.70908741250001,53.0,79.0
616,100.67399981250001,100.81106075000001,68.0,76.0
617,100.67399981250001,100.90974462500002,65.0,84.0
618,99.09505781250002,101.02158635,41.0,93.0
619,100.67399981250001,101.07421775000002,60.0,80.0
620,100.9371568125,101.07970018750001,53.0,76.0
621,101.20031381250001,101.4656637875,68.0,81.0
622,101.20031381250001,101.4941724625,65.0,82.0
623,101.20031381250001,101.51719870000001,60.0,79.0
624,101.20031381250001,101.51829518750002,53.0,84.0
625,101.20031381250001,101.53912845,41.0,86.0
626,101.59504931250001,101.64219827500001,63.0,73.0
627,101.59504931250001,101.64219827500001,65.0,73.0
628,101.59504931250001,101.6542596375,68.0,63.0
629,101.59504931250001,101.68934723750002,60.0,78.0
630,101.9897848125,102.3318889125,63.0,83.0
631,101.9897848125,102.3384678375,65.0,86.0
632,101.9897848125,102.34395027500001,68.0,80.0
633,101.9897848125,102.3582046125,60.0,75.0
634,102.5160988125,102.55666885000001,63.0,78.0
635,101.85820631250002,102.61039673750001,53.0,47.0
636,101.72662781250001,102.80666800000002,41.0,81.0
637,102.5160988125,102.8340801875,68.0,81.0
638,102.5160988125,102.85491345000001,65.0,83.0
639,102.77925581250001,102.90535187500001,53.0,80.0
640,102.5160988125,102.90864133750001,60.0,73.0
641,103.43714831250001,103.5358321875,60.0,39.0
642,103.30556981250001,103.60600738750001,62.0,84.0
643,103.30556981250001,103.60600738750001,70.0,77.0
644,103.30556981250001,103.61477928750001,65.0,84.0
645,103.7003053125,103.76280510000001,62.0,80.0
646,103.7003053125,103.77815592500001,65.0,83.0
647,103.7003053125,103.79350675,60.0,77.0
648,103.7003053125,103.82311191250001,70.0,69.0
649,103.83188381250001,104.164119525,58.0,56.0
650,104.09504081250002,104.38341702500001,60.0,74.0
651,104.09504081250002,104.48758333750001,65.0,84.0
652,104.09504081250002,104.62025832500001,62.0,82.0
653,104.09504081250002,104.63560915000001,70.0,72.0
654,104.62135481250002,104.9415291625,58.0,73.0
655,104.88451181250001,105.03911655000002,62.0,82.0
656,104.88451181250001,105.04021303750001,70.0,77.0
657,104.88451181250001,105.06543225000001,65.0,83.0
658,105.14766881250002,105.20907211250001,58.0,72.0
659,103.30556981250001,105.22880888750001,46.0,83.0
660,105.41082581250001,105.56104460000002,55.0,78.0
661,105.41082581250001,105.64986008750002,70.0,53.0
662,105.41082581250001,105.699202025,58.0,74.0
663,105.41082581250001,105.701395,62.0,82.0
664,105.41082581250001,105.716745825,65.0,82.0
665,105.41082581250001,105.93385035000001,43.0,86.0
666,105.67398281250001,106.05665695,55.0,79.0
667,105.9371398125,106.16520921250002,58.0,75.0
668,105.9371398125,106.18384950000001,65.0,84.0
669,106.20029681250001,106.35928750000001,70.0,71.0
670,106.4634538125,106.8296806375,67.0,82.0
671,106.4634538125,106.887794475,63.0,80.0
672,106.4634538125,107.31323162500001,48.0,83.0
673,106.9897678125,107.3428367875,60.0,79.0
674,106.72661081250001,107.39985413750001,55.0,82.0
675,107.25292481250001,107.44152066250001,62.0,37.0
676,107.5160818125,107.74963365,62.0,62.0
677,107.5160818125,107.78801071250001,67.0,84.0
678,107.5160818125,107.81103695000002,63.0,56.0
679,107.5160818125,107.88011566250002,60.0,83.0
680,107.91081731250001,108.07529043750002,67.0,79.0
681,107.91081731250001,108.16081646250001,62.0,78.0
682,107.91081731250001,108.1980970375,63.0,82.0
683,107.91081731250001,108.32309661250001,60.0,54.0
684,108.30555281250001,108.85489305000002,62.0,79.0
685,108.30555281250001,108.8757263125,67.0,76.0
686,108.30555281250001,108.88559470000001,63.0,78.0
687,109.09502381250002,109.27155830000001,62.0,83.0
688,108.83186681250001,109.29568102500001,60.0,68.0
689,109.09502381250002,109.31980375,63.0,83.0
690,107.5160818125,109.32528618750001,48.0,83.0
691,109.09502381250002,109.54239071250001,67.0,84.0
692,109.35818081250001,109.6575219,55.0,80.0
693,109.62133781250002,109.78252147500001,62.0,79.0
694,109.62133781250002,109.9415121625,70.0,79.0
695,109.62133781250002,109.94699460000001,63.0,91.0
696,109.62133781250002,110.028134675,60.0,73.0
697,110.01607331250001,110.21892350000002,62.0,84.0
698,110.01607331250001,110.32308981250002,67.0,83.0
699,110.14765181250002,110.46453670000001,60.0,55.0
700,110.41080881250001,110.707956925,62.0,78.0
701,110.41080881250001,110.79567592500001,63.0,83.0
702,110.41080881250001,110.80444782500001,67.0,82.0
703,110.80554431250002,110.96453500000001,60.0,18.0
704,110.93712281250001,111.28470935000001,62.0,84.0
705,110.93712281250001,111.32527938750002,65.0,84.0
706,111.20027981250001,111.42615623750001,60.0,63.0
707,109.62133781250002,111.53251552500001,48.0,80.0
708,111.4634368125,111.59282233750001,67.0,84.0
709,111.4634368125,111.62462047500001,63.0,82.0
710,111.72659381250001,112.00619812500001,63.0,82.0
711,111.72659381250001,112.02154895000001,67.0,80.0
712,111.72659381250001,112.02374192500001,72.0,83.0
713,111.72659381250001,112.11913633750001,60.0,68.0
714,112.12132931250001,112.29018838750001,67.0,78.0
715,112.12132931250001,112.29238136250001,63.0,79.0
716,112.12132931250001,112.3537846625,72.0,79.0
717,112.25290781250001,112.75071313750001,60.0,54.0
718,112.5160648125,113.08404533750002,67.0,77.0
719,112.5160648125,113.098299675,72.0,73.0
720,112.5160648125,113.09939616250001,63.0,76.0
721,113.0423788125,113.3757110125,60.0,62.0
722,113.30553581250001,113.63009611250001,67.0,82.0
723,113.30553581250001,113.63667503750001,63.0,79.0
724,111.72659381250001,113.7068502375,48.0,83.0
725,113.30553581250001,113.7287799875,72.0,79.0
726,113.56869281250002,113.74851676250002,60.0,60.0
727,113.83184981250001,114.09062086250002,63.0,78.0
728,113.83184981250001,114.12461197500001,67.0,82.0
729,113.83184981250001,114.150927675,70.0,80.0
730,114.2265853125,114.308821875,63.0,78.0
731,114.2265853125,114.35048840000002,70.0,77.0
732,114.2265853125,114.35158488750001,67.0,81.0
733,114.62132081250002,114.79566232500001,63.0,58.0
734,114.62132081250002,115.023731725,70.0,78.0
735,114.62132081250002,115.15311725000001,67.0,76.0
736,114.62132081250002,115.26057302500001,75.0,82.0
737,114.35816381250001,115.37789718750001,58.0,72.0
738,115.14763481250002,115.39215152500002,63.0,63.0
739,115.41079181250001,115.519344075,75.0,44.0
740,115.41079181250001,115.56430006250001,67.0,79.0
741,115.41079181250001,115.57087898750001,65.0,82.0
742,115.41079181250001,115.59500171250001,70.0,83.0
743,113.83184981250001,115.73973806250001,51.0,83.0
744,115.67394881250002,115.76715025000001,58.0,69.0
745,115.93710581250001,116.1257016625,63.0,78.0
746,115.93710581250001,116.2923677625,72.0,80.0
747,115.93710581250001,116.33842023750002,68.0,83.0
748,116.33184131250002,116.61802455000002,65.0,76.0
749,116.33184131250002,117.00398815000001,60.0,68.0
750,116.72657681250001,117.21889970000001,72.0,79.0
751,116.72657681250001,117.26714515000002,68.0,84.0
752,117.25289081250001,117.54017053750002,60.0,75.0
753,117.5160478125,117.67284552500001,65.0,83.0
754,117.5160478125,117.71780151250002,68.0,86.0
755,117.5160478125,117.72438043750002,72.0,83.0
756,115.93710581250001,117.8449940625,53.0,86.0
757,117.77920481250001,117.86363435000001,60.0,63.0
758,118.0423618125,118.37021157500001,65.0,83.0
759,118.0423618125,118.3778869875,68.0,86.0
760,118.0423618125,118.40858863750002,72.0,83.0
761,118.56867581250002,118.79674521250001,65.0,69.0
762,118.56867581250002,118.91297288750002,68.0,74.0
763,118.56867581250002,118.94257805000001,72.0,73.0
764,118.83183281250001,119.34608545000002,60.0,77.0
765,119.35814681250001,119.67941765,72.0,81.0
766,119.35814681250001,119.72108417500002,68.0,84.0
767,119.62130381250002,119.72875958750001,60.0,79.0
768,119.35814681250001,119.73314553750001,65.0,81.0
769,118.43709731250001,119.78577693750002,53.0,70.0
770,119.88446081250001,120.06428476250001,72.0,63.0
771,119.88446081250001,120.07415315000001,68.0,78.0
772,120.14761781250002,120.28029280000001,58.0,55.0
773,120.14761781250002,120.42502915000001,74.0,84.0
774,120.14761781250002,120.48533596250002,65.0,83.0
775,120.14761781250002,120.50178327500001,70.0,84.0
776,120.67393181250002,120.80770328750002,65.0,81.0
777,120.67393181250002,120.80770328750002,70.0,82.0
778,120.93708881250001,120.97875533750002,65.0,46.0
779,120.93708881250001,121.11800925000001,70.0,79.0
780,120.41077481250001,121.22217556250001,58.0,68.0
781,121.20024581250001,121.52370962500001,65.0,80.0
782,121.20024581250001,121.54673586250001,70.0,77.0
783,121.20024581250001,121.58072697500002,77.0,84.0
784,121.46340281250001,121.75068253750001,58.0,70.0
785,120.14761781250002,121.84388397500001,46.0,86.0
786,121.72655981250001,121.92392756250001,65.0,77.0
787,121.72655981250001,121.92502405000002,70.0,77.0
788,121.72655981250001,121.96230462500002,74.0,84.0
789,121.9897168125,122.09169015,46.0,83.0
790,122.25287381250001,122.37787338750002,55.0,83.0
791,122.25287381250001,122.53138163750002,67.0,80.0
792,122.25287381250001,122.53138163750002,74.0,84.0
793,122.25287381250001,122.54234651250002,70.0,82.0
794,122.5160308125,122.76383698750001,55.0,81.0
795,122.77918781250001,122.9469504,67.0,82.0
796,122.77918781250001,122.96010825000002,70.0,82.0
797,122.25287381250001,123.111423525,43.0,84.0
798,122.77918781250001,123.13554625000002,74.0,80.0
799,123.04234481250002,123.18269521250001,55.0,73.0
800,123.30550181250001,124.03028005000002,67.0,83.0
801,123.30550181250001,124.07194657500001,75.0,86.0
802,123.30550181250001,124.07523603750002,48.0,84.0
803,123.30550181250001,124.07633252500001,72.0,84.0
804,124.35812981250001,124.98422417500001,67.0,84.0
805,124.35812981250001,124.98532066250002,63.0,82.0
806,124.35812981250001,124.98641715000001,72.0,81.0
807,124.88444381250001,125.69584456250001,60.0,69.0
808,125.14760081250002,125.70900241250001,63.0,71.0
809,125.67391481250002,126.01930837500001,67.0,81.0
810,124.35812981250001,126.15636931250002,48.0,79.0
811,125.93707181250001,126.21448315,60.0,40.0
812,126.20022881250001,126.36689491250002,67.0,59.0
813,124.62128681250002,126.42171928750001,55.0,73.0
814,126.46338581250001,127.08838368750001,67.0,76.0
815,126.46338581250001,127.31864606250001,75.0,86.0
816,127.25285681250001,127.38553180000001,74.0,86.0
817,127.25285681250001,127.40307560000001,65.0,81.0
818,126.72654281250001,127.77697783750001,55.0,73.0
819,126.9896998125,127.86579332500001,60.0,58.0
820,127.77917081250001,128.0883802875,63.0,82.0
821,126.46338581250001,128.124564375,48.0,73.0
822,128.04232781250002,128.137722225,55.0,79.0
823,127.77917081250001,128.1519765625,72.0,83.0
824,128.30548481250003,128.5028525625,70.0,80.0
825,128.5686418125,128.8405707125,44.0,81.0
826,128.8317988125,129.15745560000002,56.0,71.0
827,128.5686418125,129.23201675,63.0,78.0
828,128.5686418125,129.2539465,68.0,78.0
829,128.5686418125,129.26052542500003,72.0,74.0
830,129.09495581250002,129.52258593750003,60.0,57.0
831,129.35811281250002,129.5379367625,63.0,75.0
832,129.6212698125,129.84714623750003,68.0,79.0
833,129.8844268125,130.10811026250002,72.0,78.0
834,130.41074081250002,130.73091516250003,75.0,80.0
835,130.6738978125,130.73091516250003,75.0,84.0
836,130.6738978125,131.2309134625,70.0,82.0
837,130.6738978125,131.2660010625,67.0,76.0
838,130.9370548125,131.74078015,58.0,72.0
839,131.46336881250002,131.85042890000003,65.0,76.0
840,131.46336881250002,131.971042525,70.0,79.0
841,131.20021181250002,132.00941958750002,63.0,70.0
842,130.6738978125,132.256129275,51.0,83.0
843,132.2528398125,132.38112885,58.0,79.0
844,131.9896828125,132.3931902125,67.0,84.0
845,132.77915381250003,133.09165275,63.0,78.0
846,132.77915381250003,133.33726595000002,68.0,84.0
847,133.56862481250002,133.94252705000002,68.0,72.0
848,133.3054678125,134.26270140000003,65.0,71.0
849,134.0949388125,134.3252011875,72.0,76.0
850,132.77915381250003,134.43484993750002,53.0,82.0
851,133.0423108125,134.4556832,60.0,63.0
852,134.3580958125,134.5697179,75.0,79.0
853,134.62125281250002,134.82958543750001,79.0,71.0
854,134.88440981250002,135.10918975,43.0,84.0
855,134.88440981250002,135.37673270000002,62.0,84.0
856,135.1475668125,135.4644517,55.0,60.0
857,134.88440981250002,135.65743350000002,67.0,84.0
858,134.88440981250002,135.7572138625,70.0,82.0
859,135.67388081250002,136.3975625625,62.0,80.0
860,135.4107238125,136.48308858750002,58.0,69.0
861,136.2001948125,136.5115972625,67.0,82.0
862,136.4633518125,136.578483,70.0,86.0
863,136.98966581250002,137.30435772500002,63.0,82.0
864,136.98966581250002,137.32190152500002,72.0,80.0
865,136.98966581250002,137.3251909875,68.0,79.0
866,137.2528228125,137.5686112125,56.0,62.0
867,136.98966581250002,137.60808476250003,44.0,82.0
868,137.5159798125,137.72321595000003,63.0,71.0
869,137.7791368125,137.95018886250003,72.0,73.0
870,138.04229381250002,138.38878386250002,68.0,80.0
871,138.04229381250002,138.3953627875,65.0,78.0
872,138.04229381250002,138.3953627875,72.0,80.0
873,138.04229381250002,138.5905375625,41.0,83.0
874,138.30545081250003,138.7286949875,53.0,69.0
875,138.5686078125,138.795580725,65.0,73.0
876,138.8317648125,138.99843091250003,68.0,75.0
877,139.09492181250002,139.42825401250002,74.0,86.0
878,139.09492181250002,139.44689430000003,65.0,80.0
879,139.09492181250002,139.45895566250002,70.0,76.0
880,139.6212358125,139.79667381250002,65.0,69.0
881,139.09492181250002,139.84162980000002,46.0,84.0
882,139.35807881250003,140.04996242500002,58.0,62.0
883,139.8843928125,140.0795675875,72.0,76.0
884,140.14754981250002,140.55325018750003,48.0,79.0
885,140.41070681250002,140.66728488750002,55.0,76.0
886,140.6738638125,140.9852662625,60.0,57.0
887,140.14754981250002,141.04776605,67.0,78.0
888,140.9370208125,141.23307243750003,62.0,62.0
889,140.14754981250002,141.25938813750003,75.0,86.0
890,141.20017781250002,141.7089480125,58.0,83.0
891,141.20017781250002,141.753904,74.0,91.0
892,141.20017781250002,141.77802672500002,46.0,84.0
893,141.20017781250002,141.79118457500002,65.0,84.0
894,141.20017781250002,141.79118457500002,70.0,84.0
895,141.9896488125,142.35697212500003,65.0,86.0
896,141.9896488125,142.3624545625,70.0,86.0
897,141.9896488125,142.36355105,43.0,91.0
898,141.9896488125,142.36464753750002,74.0,86.0
899,141.9896488125,142.37890187500003,55.0,95.0
900,142.51596281250002,142.59162045000002,65.0,94.0
901,142.51596281250002,142.5971028875,70.0,91.0
902,142.51596281250002,142.60148883750003,55.0,101.0
903,142.51596281250002,142.60477830000002,43.0,95.0
904,142.51596281250002,142.6212256125,74.0,93.0
905,142.77911981250003,143.010478675,67.0,93.0
906,142.77911981250003,143.019250575,72.0,93.0
907,142.77911981250003,143.02582950000001,48.0,101.0
908,142.77911981250003,143.03131193750002,75.0,98.0
909,143.3054338125,143.61354680000002,67.0,81.0
910,143.3054338125,143.61354680000002,75.0,86.0
911,143.3054338125,143.65850278750003,72.0,82.0
912,143.83174781250003,144.054334775,67.0,72.0
913,143.56859081250002,144.23086926250002,60.0,44.0
914,144.0949048125,144.59051716250002,75.0,90.0
915,144.0949048125,144.6102539375,67.0,80.0
916,144.0949048125,144.620122325,72.0,80.0
917,144.88437581250002,144.9172704375,75.0,47.0
918,144.88437581250002,145.10038385000001,67.0,81.0
919,143.3054338125,145.16288363750002,48.0,84.0
920,144.62121881250002,145.1979712375,60.0,63.0
921,145.1475328125,145.50937368750002,72.0,75.0
922,145.4106898125,145.7571798625,75.0,91.0
923,145.4106898125,145.78678502500003,67.0,82.0
924,145.93700381250002,146.10147693750002,67.0,69.0
925,145.67384681250002,146.2813008875,60.0,71.0
926,146.2001608125,146.5696771,67.0,86.0
927,146.2001608125,146.62011552500002,75.0,90.0
928,146.72647481250002,146.75936943750003,75.0,56.0
929,146.4633178125,146.77691323750003,60.0,71.0
930,146.72647481250002,147.085026225,65.0,84.0
931,146.72647481250002,147.0992805625,74.0,84.0
932,145.4106898125,147.2308590625,48.0,79.0
933,146.98963181250002,147.33502537500001,60.0,63.0
934,147.25278881250003,147.444674125,70.0,81.0
935,147.5159458125,147.99840031250002,75.0,84.0
936,147.5159458125,148.03348791250002,72.0,82.0
937,147.5159458125,148.06418956250002,67.0,83.0
938,148.30541681250003,148.67712607500002,67.0,72.0
939,148.04225981250002,148.85914300000002,60.0,70.0
940,148.8317308125,149.190282225,75.0,86.0
941,148.8317308125,149.20124710000002,72.0,80.0
942,148.8317308125,149.203440075,67.0,82.0
943,147.7791028125,149.3558518375,55.0,76.0
944,147.5159458125,149.37449212500002,48.0,82.0
945,149.35804481250003,149.42931650000003,75.0,53.0
946,149.09488781250002,149.4304129875,60.0,76.0
947,149.35804481250003,149.5027811625,67.0,75.0
948,149.6212018125,150.00606892500002,70.0,83.0
949,149.6212018125,150.01813028750001,75.0,86.0
950,149.6212018125,150.04663896250003,67.0,83.0
951,150.01593731250003,150.04663896250003,67.0,43.0
952,149.8843588125,150.4654971875,63.0,62.0
953,150.41067281250002,150.99290767500003,75.0,90.0
954,150.41067281250002,151.01045147500002,67.0,82.0
955,150.41067281250002,151.03238122500002,70.0,83.0
956,149.6212018125,151.33939772500003,51.0,90.0
957,151.20014381250002,151.48523056250002,75.0,86.0
958,151.20014381250002,151.514835725,67.0,84.0
959,150.9369868125,151.57075658750003,63.0,76.0
960,151.46330081250002,151.7681243375,70.0,79.0
961,151.7264578125,152.20123690000003,72.0,83.0
962,151.7264578125,152.24399991250002,77.0,90.0
963,151.7264578125,152.24838586250002,68.0,83.0
964,152.51592881250002,152.87667320000003,68.0,75.0
965,152.25277181250001,153.03566388750002,65.0,80.0
966,153.0422428125,153.1409266875,68.0,57.0
967,153.0422428125,153.37886447500003,77.0,91.0
968,152.77908581250003,153.38653988750002,72.0,80.0
969,151.7264578125,153.4282064125,53.0,86.0
970,153.3053998125,153.5312762375,65.0,76.0
971,151.9896148125,153.7045212625,60.0,76.0
972,153.56855681250002,153.77359997500002,68.0,68.0
973,153.83171381250003,154.41614165000001,68.0,53.0
974,153.83171381250003,154.42272057500003,77.0,90.0
975,154.62118481250002,154.8097806625,68.0,78.0
976,154.88434181250003,154.95451701250002,68.0,17.0
977,154.88434181250003,155.0729376625,72.0,76.0
978,154.3580278125,155.405173375,65.0,80.0
979,155.1474988125,155.46986613750002,75.0,84.0
980,155.4106558125,155.52688348750002,77.0,84.0
981,154.0948708125,155.5619710875,60.0,75.0
982,153.83171381250003,155.5663570375,53.0,83.0
983,155.67381281250002,155.78565453750002,79.0,84.0
984,155.93696981250002,156.14968838750002,46.0,83.0
985,156.2001268125,156.49179248750002,58.0,62.0
986,155.93696981250002,156.70560755000002,70.0,81.0
987,155.93696981250002,156.73959866250001,77.0,84.0
988,155.93696981250002,156.77578275000002,65.0,76.0
989,156.98959781250002,157.33608786250002,65.0,80.0
990,157.25275481250003,157.4501225625,70.0,80.0
991,157.5159118125,157.5959554,70.0,48.0
992,156.4632838125,157.64420085,60.0,69.0
993,156.72644081250002,157.65516572500002,62.0,83.0
994,157.5159118125,157.738498775,72.0,77.0
995,158.04222581250002,158.387619375,65.0,83.0
996,157.77906881250001,158.409549125,77.0,83.0
997,158.04222581250002,158.42489995000003,70.0,83.0
998,158.30538281250003,158.62007472500002,62.0,69.0
999,158.04222581250002,158.64310096250003,55.0,84.0
1000,158.5685398125,158.79770570000002,65.0,83.0
1001,158.8316968125,159.03016105,70.0,83.0
1002,159.09485381250002,159.59265913750002,48.0,82.0
1003,159.35801081250003,159.66283433750002,55.0,78.0
1004,159.6211678125,159.95998245,60.0,76.0
1005,159.09485381250002,160.09375392500002,72.0,82.0
1006,159.09485381250002,160.10033285000003,67.0,82.0
1007,159.8843248125,160.168315075,62.0,75.0
1008,160.14748181250002,160.22862188750003,63.0,80.0
1009,160.14748181250002,160.22862188750003,63.0,83.0
1010,160.14748181250002,160.6485766,48.0,84.0
1011,160.41063881250003,160.6781817625,55.0,81.0
1012,160.14748181250002,160.9676544625,67.0,78.0
1013,160.6737958125,161.08497862500002,60.0,75.0
1014,160.14748181250002,161.24945175000002,72.0,81.0
1015,161.20010981250002,161.40734595,63.0,83.0
1016,160.9369528125,161.4380476,62.0,63.0
1017,161.46326681250002,161.80975686250002,67.0,82.0
1018,161.9895808125,162.0433087,72.0,46.0
1019,161.7264238125,162.24396591250002,70.0,82.0
1020,162.25273781250002,162.59264893750003,63.0,76.0
1021,162.25273781250002,162.633218975,67.0,76.0
1022,162.25273781250002,162.663920625,72.0,79.0
1023,162.77905181250003,162.909533825,63.0,63.0
1024,162.77905181250003,163.03672637500003,70.0,76.0
1025,163.0422088125,163.5663298375,63.0,81.0
1026,163.0422088125,163.6101893375,72.0,75.0
1027,163.0422088125,163.66282073750003,67.0,79.0
1028,162.25273781250002,163.6781715625,48.0,79.0
1029,162.51589481250002,163.6781715625,55.0,80.0
1030,163.56852281250002,164.07400355000001,60.0,79.0
1031,163.83167981250003,164.16062606250003,67.0,79.0
1032,163.83167981250003,164.20009961250003,63.0,83.0
1033,164.0948368125,164.2900115875,55.0,57.0
1034,163.83167981250003,164.29768700000002,72.0,80.0
1035,164.22641531250002,164.40294980000002,51.0,76.0
1036,164.3579938125,164.73628200000002,63.0,82.0
1037,164.3579938125,164.7615012125,67.0,83.0
1038,164.3579938125,164.89636917500002,72.0,80.0
1039,164.88430781250003,165.22641191250003,60.0,68.0
1040,165.1474648125,165.50930568750002,63.0,83.0
1041,165.1474648125,165.6057965875,72.0,82.0
1042,164.62115081250002,165.78123458750002,55.0,78.0
1043,165.67377881250002,166.06522485000002,60.0,73.0
1044,165.93693581250002,166.0992159625,62.0,79.0
1045,164.3579938125,166.17597008750002,48.0,84.0
1046,166.2000928125,166.2724609875,55.0,73.0
1047,165.93693581250002,166.39417110000002,70.0,80.0
1048,166.4632498125,166.95009026250003,67.0,83.0
1049,166.4632498125,166.97202001250002,72.0,84.0
1050,166.72640681250002,167.3470187375,58.0,75.0
1051,166.98956381250002,167.58824598750002,63.0,79.0
1052,167.25272081250003,167.59482491250003,65.0,83.0
1053,167.25272081250003,167.738464775,70.0,84.0
1054,166.4632498125,168.12552486250001,51.0,93.0
1055,167.77903481250002,168.12552486250001,58.0,80.0
1056,168.30534881250003,168.405129175,70.0,77.0
1057,168.04219181250002,168.53999713750002,67.0,77.0
1058,168.5685058125,168.82837335000002,41.0,84.0
1059,168.5685058125,169.09920576250002,63.0,82.0
1060,168.5685058125,169.10907415000003,60.0,78.0
1061,168.8316628125,169.1321003875,53.0,67.0
1062,168.5685058125,169.3678452,68.0,82.0
1063,169.6211338125,169.93034328750002,63.0,78.0
1064,169.35797681250003,170.07179017500002,60.0,62.0
1065,169.09481981250002,170.14744781250002,56.0,69.0
1066,169.8842908125,170.17376351250002,68.0,84.0
1067,170.14744781250002,170.3908680375,72.0,78.0
1068,170.41060481250003,170.51806058750003,65.0,48.0
1069,170.6737618125,170.92047150000002,41.0,84.0
1070,170.9369188125,171.25928613750003,53.0,78.0
1071,170.6737618125,171.51586421250002,72.0,78.0
1072,170.6737618125,171.54327640000002,65.0,81.0
1073,170.6737618125,171.56082020000002,68.0,83.0
1074,171.72638981250003,171.9500732625,65.0,81.0
1075,171.9895468125,172.08603771250003,65.0,56.0
1076,171.9895468125,172.14195857500002,75.0,84.0
1077,171.9895468125,172.15621291250002,68.0,84.0
1078,171.46323281250002,172.38208933750002,60.0,73.0
1079,171.20007581250002,172.39524718750002,56.0,72.0
1080,172.25270381250002,172.42485235,65.0,75.0
1081,172.25270381250002,172.43472073750002,68.0,79.0
1082,172.25270381250002,172.53011515000003,75.0,86.0
1083,172.51586081250002,172.7099391,70.0,80.0
1084,172.77901781250003,173.02572750000002,46.0,83.0
1085,173.0421748125,173.3667351125,58.0,73.0
1086,172.77901781250003,173.63647103750003,70.0,84.0
1087,172.77901781250003,173.64304996250002,65.0,83.0
1088,172.77901781250003,173.65401483750003,74.0,90.0
1089,173.83164581250003,174.045460875,65.0,84.0
1090,174.0948028125,174.1978726375,65.0,41.0
1091,174.0948028125,174.31519680000002,72.0,86.0
1092,173.30533181250001,174.35028440000002,60.0,72.0
1093,173.56848881250002,174.35467035000002,62.0,86.0
1094,174.3579598125,174.4544507125,72.0,57.0
1095,174.3579598125,174.60028355000003,74.0,90.0
1096,174.62111681250002,175.2417287375,77.0,95.0
1097,174.88427381250003,175.27462336250002,65.0,95.0
1098,174.88427381250003,175.29764960000003,70.0,90.0
1099,175.1474308125,175.38098265000002,62.0,84.0
1100,174.88427381250003,175.44348243750002,55.0,90.0
1101,175.4105878125,175.641946675,72.0,91.0
1102,175.67374481250002,175.87769148750002,75.0,95.0
1103,175.93690181250003,176.32834785000003,60.0,84.0
1104,175.93690181250003,176.58053997500002,75.0,83.0
1105,175.93690181250003,176.64852220000003,67.0,94.0
1106,175.93690181250003,176.68689926250002,72.0,90.0
1107,175.93690181250003,176.690188725,48.0,82.0
1108,176.4632158125,176.69238170000003,60.0,84.0
1109,176.98952981250002,177.24062545,75.0,86.0
1110,176.98952981250002,177.25159032500002,67.0,84.0
1111,176.98952981250002,177.26913412500002,72.0,86.0
1112,176.98952981250002,177.3513706875,60.0,90.0
1113,177.38426531250002,177.48623865000002,67.0,76.0
1114,177.38426531250002,177.4983000125,72.0,78.0
1115,177.38426531250002,177.51474732500003,75.0,83.0
1116,177.5158438125,177.86343035000002,60.0,57.0
1117,177.77900081250002,178.13974520000002,65.0,84.0
1118,177.77900081250002,178.32614807500002,70.0,83.0
1119,177.77900081250002,178.38974435000003,74.0,93.0
1120,178.30531481250003,178.74062035000003,60.0,80.0
1121,176.98952981250002,178.755971175,48.0,90.0
1122,178.5684718125,178.76693605000003,67.0,90.0
1123,178.5684718125,178.80750608750003,72.0,84.0
1124,178.8316288125,179.0575052375,70.0,84.0
1125,178.8316288125,179.06079470000003,55.0,83.0
1126,179.09478581250002,179.3776795875,67.0,84.0
1127,179.09478581250002,179.49938970000002,72.0,86.0
1128,179.48952131250002,179.61561737500003,67.0,84.0
1129,179.48952131250002,179.72307315,75.0,94.0
1130,179.6210998125,179.905090075,60.0,62.0
1131,179.8842568125,180.23732578750003,72.0,95.0
1132,179.8842568125,180.45881626250002,67.0,91.0
1133,179.35794281250003,180.7274557,55.0,80.0
1134,180.6737278125,180.86342015000002,70.0,86.0
1135,180.41057081250003,180.91276208750003,60.0,81.0
1136,179.09478581250002,180.918244525,48.0,86.0
1137,180.6737278125,180.97745485000002,65.0,90.0
1138,180.9368848125,181.15179636250002,67.0,86.0
1139,180.9368848125,181.198945325,55.0,84.0
1140,181.20004181250002,181.4303041875,65.0,86.0
1141,181.20004181250002,181.5004793875,72.0,83.0
1142,181.5947773125,181.73293473750002,63.0,90.0
1143,181.5947773125,181.75815395,70.0,75.0
1144,181.72635581250003,182.08271425,60.0,63.0
1145,181.9895128125,182.580519575,67.0,76.0
1146,181.9895128125,182.602449325,72.0,90.0
1147,181.20004181250002,182.806396,48.0,84.0
1148,181.46319881250002,182.8908255375,55.0,83.0
1149,182.51582681250002,182.94784288750003,60.0,81.0
1150,182.77898381250003,182.96429020000002,70.0,84.0
1151,182.77898381250003,183.0947722125,65.0,91.0
1152,183.0421408125,183.255955875,72.0,86.0
1153,183.30529781250002,183.3579292125,75.0,67.0
1154,183.30529781250002,183.580516175,67.0,83.0
1155,183.30529781250002,183.64959488750003,70.0,86.0
1156,183.7000333125,183.82064693750002,67.0,83.0
1157,183.7000333125,184.0202076625,75.0,90.0
1158,183.83161181250003,184.15068967500002,63.0,53.0
1159,184.0947688125,184.38643448750003,72.0,84.0
1160,184.0947688125,184.45332022500003,67.0,82.0
1161,184.3579258125,184.47634646250003,63.0,72.0
1162,183.56845481250002,184.53774976250003,58.0,78.0
1163,184.62108281250002,184.698933425,63.0,61.0
1164,183.30529781250002,184.83489787500002,51.0,90.0
1165,184.62108281250002,184.89630117500002,58.0,90.0
1166,184.88423981250003,185.12656355000001,70.0,84.0
1167,184.88423981250003,185.1561687125,65.0,84.0
1168,185.1473968125,185.317352375,67.0,84.0
1169,185.4105538125,185.96647297500002,72.0,82.0
1170,185.4105538125,185.98072731250002,68.0,81.0
1171,185.4105538125,186.010332475,77.0,90.0
1172,186.20002481250003,186.56625163750002,68.0,80.0
1173,186.4631818125,186.64300576250002,77.0,86.0
1174,185.67371081250002,186.70550555000003,60.0,75.0
1175,185.93686781250003,186.7701983125,65.0,82.0
1176,186.72633881250002,186.78116318750003,68.0,62.0
1177,186.72633881250002,186.8941014,77.0,73.0
1178,186.72633881250002,186.97962742500002,75.0,94.0
1179,186.98949581250002,187.2044073625,60.0,78.0
1180,185.4105538125,187.22085467500003,53.0,90.0
1181,186.98949581250002,187.22414413750002,72.0,86.0
1182,187.25265281250003,187.42370486250002,68.0,84.0
1183,187.5158098125,187.75703706250002,77.0,86.0
1184,187.5158098125,187.795414125,72.0,82.0
1185,187.5158098125,187.8140544125,68.0,82.0
1186,188.04212381250002,188.40286820000003,65.0,82.0
1187,187.77896681250002,188.41054361250002,60.0,68.0
1188,188.30528081250003,188.67041115,68.0,84.0
1189,188.5684378125,189.08597991250002,60.0,68.0
1190,187.5158098125,189.159444575,53.0,84.0
1191,188.83159481250001,189.181374325,63.0,94.0
1192,189.09475181250002,189.31733877500002,68.0,86.0
1193,189.35790881250003,189.67260072500002,75.0,90.0
1194,189.6210658125,190.00702941250003,74.0,86.0
1195,189.6210658125,190.02786267500002,70.0,86.0
1196,189.6210658125,190.03663457500002,65.0,82.0
1197,190.41053681250003,190.44452792500002,72.0,75.0
1198,190.14737981250002,190.48509796250002,58.0,76.0
1199,190.41053681250003,190.50702771250002,62.0,80.0
1200,190.41053681250003,190.53334341250002,74.0,93.0
1201,190.6736938125,190.70768492500002,74.0,71.0
1202,190.6736938125,190.7723776875,63.0,82.0
1203,190.6736938125,190.80198285000003,75.0,98.0
1204,190.80527231250002,190.96097353750002,58.0,44.0
1205,190.9368508125,191.04101712500002,65.0,79.0
1206,190.9368508125,191.0695258,77.0,90.0
1207,191.20000781250002,191.2701830125,77.0,69.0
1208,191.20000781250002,191.28882330000002,58.0,57.0
1209,191.20000781250002,191.30307763750002,79.0,60.0
1210,191.20000781250002,191.36448093750002,67.0,73.0
1211,191.46316481250003,191.527857575,58.0,75.0
1212,189.6210658125,191.57281356250002,46.0,80.0
1213,189.8842228125,191.57829600000002,53.0,76.0
1214,191.72632181250003,192.06513645,65.0,84.0
1215,191.72632181250003,192.10132053750002,72.0,79.0
1216,191.72632181250003,192.36776700000001,43.0,98.0
1217,192.25263581250002,192.44890707500002,70.0,90.0
1218,191.9894788125,192.49934550000003,55.0,83.0
1219,192.51579281250002,192.72851138750002,74.0,86.0
1220,192.77894981250003,193.37653550000002,75.0,84.0
1221,192.77894981250003,193.38201793750002,67.0,82.0
1222,192.77894981250003,193.4061406625,72.0,80.0
1223,192.77894981250003,193.59583300000003,48.0,86.0
1224,193.30526381250002,193.59583300000003,60.0,86.0
1225,193.0421068125,193.655043325,55.0,82.0
1226,193.56842081250002,193.69670985000002,67.0,80.0
1227,193.83157781250003,194.10679617500003,75.0,84.0
1228,193.83157781250003,194.13640133750002,67.0,82.0
1229,193.83157781250003,194.14298026250003,72.0,80.0
1230,193.83157781250003,194.19999761250003,60.0,84.0
1231,193.83157781250003,194.20767302500002,48.0,83.0
1232,194.22631331250003,194.321707725,72.0,78.0
1233,194.22631331250003,194.330479625,75.0,82.0
1234,194.22631331250003,194.33815503750003,67.0,79.0
1235,194.35789181250001,194.71425025000002,60.0,71.0
1236,194.62104881250002,194.74495190000002,65.0,83.0
1237,194.62104881250002,194.85240767500002,70.0,83.0
1238,194.88420581250003,195.1429768625,72.0,90.0
1239,194.88420581250003,195.1517487625,67.0,93.0
1240,195.1473628125,195.37543221250002,60.0,73.0
1241,195.27894131250002,195.44341443750002,65.0,80.0
1242,195.27894131250002,195.5168791,70.0,84.0
1243,194.35789181250001,195.52126505,48.0,80.0
1244,195.4105198125,195.73508011250001,55.0,83.0
1245,195.67367681250002,195.81183423750002,63.0,90.0
1246,195.93683381250003,196.20547325,63.0,84.0
1247,195.93683381250003,196.24823626250003,67.0,76.0
1248,195.93683381250003,196.26468357500002,72.0,84.0
1249,196.4631478125,196.60678767500002,63.0,80.0
1250,196.4631478125,196.68134882500001,70.0,84.0
1251,196.72630481250002,196.82389220000002,63.0,76.0
1252,196.72630481250002,197.10897895000002,67.0,90.0
1253,196.72630481250002,197.115557875,72.0,80.0
1254,196.98946181250002,197.29209236250003,60.0,79.0
1255,197.25261881250003,197.41051301250002,63.0,84.0
1256,197.25261881250003,197.448890075,70.0,84.0
1257,197.5157758125,197.60130183750002,63.0,75.0
1258,197.5157758125,197.61226671250003,60.0,75.0
1259,195.93683381250003,197.64296836250003,48.0,84.0
1260,196.19999081250003,197.71643302500001,55.0,78.0
1261,197.5157758125,197.71752951250002,72.0,83.0
1262,197.77893281250002,197.8184063625,72.0,58.0
1263,197.77893281250002,197.83704665000002,55.0,62.0
1264,197.77893281250002,197.99384436250003,70.0,90.0
1265,198.04208981250002,198.58375463750002,67.0,82.0
1266,198.04208981250002,198.63200008750002,63.0,81.0
1267,198.04208981250002,198.63638603750002,72.0,91.0
1268,198.83156081250002,199.0442793875,63.0,94.0
1269,199.09471781250002,199.30414692500003,67.0,84.0
1270,198.5684038125,199.3907694375,60.0,82.0
1271,199.35787481250003,199.61554937500003,70.0,91.0
1272,198.04208981250002,199.68572457500002,48.0,84.0
1273,198.30524681250003,199.76467167500002,55.0,80.0
1274,199.8841888125,200.03331111250003,63.0,78.0
1275,199.6210318125,200.03550408750002,72.0,82.0
1276,199.6210318125,200.04975842500002,60.0,76.0
1277,200.14734581250002,200.72629121250003,70.0,82.0
1278,200.14734581250002,200.73177365,67.0,93.0
1279,200.9368168125,201.1232196875,65.0,91.0
1280,200.9368168125,201.13089510000003,70.0,83.0
1281,201.19997381250002,201.22848248750003,65.0,45.0
1282,200.67365981250003,201.32935933750002,63.0,84.0
1283,201.19997381250002,201.39185912500002,67.0,90.0
1284,201.46313081250003,201.55633225000003,65.0,61.0
1285,200.41050281250003,201.6385688125,58.0,75.0
1286,201.46313081250003,201.65940207500003,70.0,90.0
1287,200.14734581250002,201.82606817500002,51.0,91.0
1288,201.72628781250003,201.96532208750003,72.0,84.0
1289,201.9894448125,202.16049686250003,75.0,95.0
1290,202.25260181250002,202.32606647500003,65.0,78.0
1291,202.25260181250002,202.77014391250003,68.0,83.0
1292,202.25260181250002,202.78659122500002,72.0,86.0
1293,202.51575881250002,203.2153178375,60.0,71.0
1294,202.77891581250003,203.54974652500002,65.0,84.0
1295,203.0420728125,203.5793516875,68.0,73.0
1296,203.30522981250002,203.69777233750003,77.0,91.0
1297,203.56838681250002,203.84689463750001,60.0,75.0
1298,203.83154381250003,203.88746467500002,77.0,81.0
1299,203.83154381250003,203.953253925,68.0,80.0
1300,203.83154381250003,204.005885325,75.0,91.0
1301,202.25260181250002,204.16816547500002,53.0,90.0
1302,204.0947008125,204.29206856250002,60.0,76.0
1303,204.35785781250001,204.87759288750001,77.0,94.0
1304,204.35785781250001,204.95873296250002,68.0,54.0
1305,204.0947008125,204.98175920000003,72.0,81.0
1306,204.88417181250003,205.22188996250003,65.0,86.0
1307,205.1473288125,205.49820481250003,67.0,84.0
1308,205.1473288125,205.54206431250003,72.0,82.0
1309,204.62101481250002,205.65609901250002,60.0,76.0
1310,205.67364281250002,205.72298475000002,67.0,68.0
1311,205.4104858125,205.72627421250002,65.0,63.0
1312,205.67364281250002,205.87978246250003,68.0,96.0
1313,205.93679981250003,206.02122935000003,60.0,77.0
1314,204.35785781250001,206.023422325,53.0,83.0
1315,205.93679981250003,206.19557086250003,72.0,83.0
1316,206.19995681250003,206.51464872500003,75.0,91.0
1317,206.4631138125,206.8403055125,74.0,86.0
1318,206.4631138125,206.85565633750002,70.0,82.0
1319,206.4631138125,206.8852615,65.0,78.0
1320,207.25258481250003,207.29644431250003,70.0,50.0
1321,206.98942781250003,207.29863728750001,58.0,79.0
1322,207.25258481250003,207.58482052500003,62.0,84.0
1323,207.25258481250003,207.60894325,65.0,99.0
1324,207.5157418125,207.77451286250002,58.0,61.0
1325,206.72627081250002,207.85455645000002,53.0,80.0
1326,207.77889881250002,207.93350355,65.0,83.0
1327,208.04205581250002,208.08701180000003,58.0,70.0
1328,208.04205581250002,208.133064275,53.0,82.0
1329,207.77889881250002,208.137450225,70.0,84.0
1330,207.77889881250002,208.14402915000002,62.0,86.0
1331,206.4631138125,208.17692377500003,46.0,90.0
1332,208.30521281250003,208.47845783750003,65.0,81.0
1333,208.5683698125,208.65170286250003,55.0,72.0
1334,208.5683698125,208.8622284625,62.0,84.0
1335,208.5683698125,208.86990387500003,70.0,81.0
1336,208.5683698125,208.88196523750003,65.0,90.0
1337,208.83152681250002,209.1056486875,55.0,86.0
1338,209.09468381250002,209.29534102500003,65.0,90.0
1339,209.09468381250002,209.29972697500003,62.0,91.0
1340,209.09468381250002,209.42253357500002,70.0,84.0
1341,209.35784081250003,209.47735795000003,55.0,93.0
1342,208.5683698125,209.48064741250002,43.0,99.0
1343,209.6209978125,209.94446162500003,67.0,90.0
1344,209.6209978125,209.96419840000001,60.0,84.0
1345,209.6209978125,209.96858435000001,63.0,94.0
1346,209.6209978125,210.28985518750002,48.0,86.0
1347,210.14731181250002,210.35674092500003,63.0,94.0
1348,210.14731181250002,210.37867067500002,60.0,84.0
1349,210.41046881250003,210.49928430000003,63.0,14.0
1350,210.14731181250002,210.49928430000003,67.0,84.0
1351,210.41046881250003,210.536564875,48.0,83.0
1352,210.67362581250003,211.09358052500002,62.0,91.0
1353,210.67362581250003,211.09796647500002,70.0,90.0
1354,210.67362581250003,211.190071425,65.0,86.0
1355,211.19993981250002,211.62428047500003,58.0,86.0
1356,211.46309681250003,211.97844593750003,62.0,84.0
1357,211.46309681250003,212.01901597500003,70.0,86.0
1358,211.46309681250003,212.04313870000001,65.0,93.0
1359,210.9367828125,212.07932278750002,53.0,84.0
1360,211.9894108125,212.35892710000002,58.0,75.0
1361,212.25256781250002,212.40059362500003,65.0,90.0
1362,212.25256781250002,212.4027866,62.0,91.0
1363,212.25256781250002,212.42690932500003,70.0,86.0
1364,210.67362581250003,212.43458473750002,46.0,93.0
1365,212.3841463125,212.4729618,53.0,84.0
1366,212.77888181250003,212.98721443750003,55.0,94.0
1367,212.77888181250003,213.0595826125,70.0,78.0
1368,212.77888181250003,213.09138075,62.0,82.0
1369,212.77888181250003,213.09905616250003,65.0,84.0
1370,212.77888181250003,213.11221401250003,58.0,80.0
1371,212.77888181250003,213.14072268750002,43.0,95.0
1372,213.30519581250002,213.46199352500003,70.0,69.0
1373,213.30519581250002,213.48611625,43.0,93.0
1374,213.30519581250002,213.51133546250003,62.0,84.0
1375,213.30519581250002,213.53874765000003,55.0,90.0
1376,213.30519581250002,213.54094062500002,65.0,90.0
1377,213.30519581250002,213.54642306250003,58.0,86.0
1378,213.83150981250003,214.81396261250003,63.0,100.0
1379,213.83150981250003,214.82163802500003,67.0,90.0
1380,213.83150981250003,214.82273451250003,48.0,91.0
1381,213.83150981250003,214.83150641250003,60.0,90.0
1382,214.88413781250003,215.42909210000002,67.0,82.0
1383,215.1472948125,216.32711536250002,55.0,71.0
1384,216.19992281250003,216.37207135000003,63.0,84.0
1385,216.19992281250003,216.4937814625,72.0,86.0
1386,215.4104518125,216.70540355000003,60.0,71.0
1387,214.88413781250003,216.716368425,48.0,72.0
1388,216.4630798125,216.87864857500003,55.0,58.0
1389,216.72623681250002,217.48610265000002,62.0,79.0
1390,216.72623681250002,217.57382165,70.0,82.0
1391,217.25255081250003,218.111100525,55.0,68.0
1392,217.77886481250002,218.34465236250003,63.0,82.0
1393,217.77886481250002,218.38851186250002,67.0,77.0
1394,217.5157078125,218.46855545000003,60.0,52.0
1395,216.98939381250003,218.57162527500003,48.0,73.0
1396,218.30517881250003,218.64180047500003,55.0,71.0
1397,218.5683358125,218.85122958750003,62.0,80.0
1398,218.5683358125,218.87206285000002,70.0,80.0
1399,218.83149281250002,218.96526428750002,46.0,79.0
1400,219.09464981250002,219.67907765,63.0,84.0
1401,219.09464981250002,219.71087578750002,60.0,76.0
1402,219.09464981250002,219.76021772500002,67.0,80.0
1403,219.6209638125,220.04420798750002,56.0,63.0
1404,219.88412081250002,220.31175093750002,68.0,82.0
1405,219.88412081250002,220.32271581250004,63.0,80.0
1406,219.88412081250002,220.33148771250004,60.0,72.0
1407,219.09464981250002,220.46854865000003,44.0,83.0
1408,219.35780681250003,220.49486435000003,51.0,72.0
1409,220.14727781250002,220.62863582500003,46.0,82.0
1410,220.67359181250004,220.97951182500003,62.0,80.0
1411,220.67359181250004,220.99157318750002,65.0,82.0
1412,220.9367488125,221.0694238,67.0,58.0
1413,220.67359181250004,221.0694238,70.0,75.0
1414,221.19990581250002,221.61328160000002,58.0,75.0
1415,221.19990581250002,221.70648303750002,67.0,78.0
1416,221.19990581250002,221.71744791250003,63.0,84.0
1417,221.72621981250003,221.89288591250002,58.0,39.0
1418,221.9893768125,222.35889310000002,58.0,62.0
1419,221.9893768125,222.4466121,65.0,84.0
1420,221.19990581250002,222.82270731250003,51.0,80.0
1421,222.51569081250003,222.83915462500002,58.0,73.0
1422,222.51569081250003,222.96525068750003,67.0,86.0
1423,223.0420048125,223.14946058750002,70.0,73.0
1424,223.30516181250002,223.54748555000003,63.0,84.0
1425,223.30516181250002,223.63959050000003,68.0,79.0
1426,224.0946328125,224.45647368750002,68.0,75.0
1427,224.0946328125,224.56831541250003,77.0,86.0
1428,223.56831881250002,224.60449950000003,60.0,61.0
1429,224.62094681250002,224.672481725,77.0,42.0
1430,223.83147581250003,224.69331498750003,65.0,70.0
1431,224.62094681250002,224.95976145000003,68.0,78.0
1432,224.62094681250002,224.99046310000003,75.0,84.0
1433,223.30516181250002,225.00033148750003,53.0,80.0
1434,224.88410381250003,225.03761206250002,60.0,72.0
1435,225.41041781250001,225.64287316250002,43.0,84.0
1436,225.67357481250002,225.98059131250002,55.0,69.0
1437,225.41041781250001,226.2854148375,74.0,86.0
1438,225.41041781250001,226.30953756250003,70.0,82.0
1439,225.41041781250001,226.32379190000003,67.0,80.0
1440,226.19988881250003,226.77006231250002,62.0,83.0
1441,226.4630458125,226.79747450000002,67.0,72.0
1442,225.93673181250003,226.86984267500003,58.0,75.0
1443,226.72620281250002,227.102298025,70.0,84.0
1444,226.98935981250003,227.31720957500002,72.0,79.0
1445,227.25251681250003,227.60119983750002,75.0,84.0
1446,227.5156738125,227.79198866250002,56.0,78.0
1447,227.5156738125,228.12093491250002,72.0,79.0
1448,227.5156738125,228.13409276250002,63.0,83.0
1449,227.5156738125,228.14286466250002,68.0,83.0
1450,228.04198781250003,228.17137333750003,56.0,79.0
1451,227.5156738125,228.20097850000002,44.0,83.0
1452,228.30514481250003,228.39724976250002,63.0,52.0
1453,228.5683018125,228.79637121250002,53.0,79.0
1454,228.5683018125,229.22838728750003,65.0,80.0
1455,228.5683018125,229.27553625000002,72.0,82.0
1456,228.5683018125,229.3906674375,41.0,86.0
1457,229.09461581250002,229.45207073750004,53.0,79.0
1458,228.5683018125,229.48935131250002,68.0,82.0
1459,229.6209298125,229.81391161250002,43.0,93.0
1460,229.6209298125,229.81829756250002,67.0,83.0
1461,229.6209298125,229.82049053750004,71.0,84.0
1462,229.6209298125,229.82926243750003,74.0,94.0
1463,229.6209298125,229.83584136250002,55.0,80.0
1464,230.14724381250002,231.36763440000001,67.0,86.0
1465,230.14724381250002,231.38079225,71.0,84.0
1466,230.14724381250002,231.39285361250003,74.0,94.0
1467,230.14724381250002,231.40601146250003,55.0,86.0
1468,230.14724381250002,231.43890608750002,43.0,83.0
1469,231.72618581250003,236.09897796250002,60.0,78.0
1470,231.72618581250003,236.10226742500004,63.0,84.0
1471,231.72618581250003,236.11761825000002,48.0,82.0
1472,231.72618581250003,236.18560047500003,72.0,81.0
1473,231.72618581250003,236.19656535000001,67.0,81.0
