,start,end,pitch,velocity
0,13.31059275,13.4374865625,73.0,98.0
1,13.61362275,13.7405165625,73.0,98.0
2,13.91665275,14.0511223125,73.0,88.0
3,14.21968275,14.715894375,68.0,109.0
4,14.82574275,15.09846975,70.0,106.0
5,15.12877275,15.6571813125,68.0,109.0
6,15.73483275,15.8389993125,66.0,91.0
7,16.03786275,16.5473319375,61.0,98.0
8,16.94695275,17.185588875,61.0,109.0
9,17.24998275,17.3503614375,66.0,106.0
10,17.55301275,17.8049064375,66.0,111.0
11,17.85604275,18.0965728125,65.0,109.0
12,18.15907275,18.35604225,66.0,98.0
13,18.46210275,18.7708145625,68.0,82.0
14,18.76513275,20.3920250625,70.0,95.0
15,20.58331275,20.70452475,73.0,100.0
16,20.88634275,20.973463875,73.0,100.0
17,21.18937275,21.4412664375,73.0,91.0
18,21.49240275,22.030281,68.0,106.0
19,22.09846275,22.3465685625,70.0,103.0
20,22.40149275,22.9488406875,68.0,106.0
21,23.00755275,23.1117193125,66.0,95.0
22,23.310582750000002,23.9488396875,61.0,77.0
23,24.21967275,24.454521,63.0,109.0
24,24.52270275,24.6211875,66.0,111.0
25,24.82573275,25.0018689375,66.0,103.0
26,25.12876275,25.382550375,65.0,103.0
27,25.43179275,25.6817925,66.0,91.0
28,25.73482275,25.999974,68.0,100.0
29,26.03785275,27.5586845625,66.0,103.0
30,27.55300275,27.8655024375,65.0,106.0
31,27.85603275,28.2973201875,63.0,98.0
32,28.46209275,28.7518651875,66.0,95.0
33,28.76512275,29.0359558125,65.0,91.0
34,29.06815275,29.3048949375,66.0,73.0
35,29.37118275,29.666637,68.0,82.0
36,29.67421275,30.7404995625,70.0,88.0
37,31.18936275,31.4696655,65.0,91.0
38,31.49239275,31.65905925,63.0,100.0
39,32.09845275,32.38633125,75.0,79.0
40,32.40148275,32.97723975,73.0,98.0
41,33.00754275,33.3048909375,71.0,72.0
42,33.31057275,34.564359375,70.0,103.0
43,35.12875275,35.6344340625,73.0,106.0
44,35.73481275,36.0397366875,78.0,98.0
45,36.03784275,36.5776149375,77.0,109.0
46,36.64390275,36.973447875,75.0,77.0
47,37.24996275,37.481023125,70.0,88.0
48,37.55299275,37.74996225,68.0,91.0
49,36.94693275,37.79541675,73.0,103.0
50,37.85602275,38.62874925,66.0,109.0
51,38.46208275,38.738597625,65.0,100.0
52,38.76511275,39.2177638125,63.0,106.0
53,39.37117275,39.6382179375,66.0,91.0
54,39.67420275,39.920414625,65.0,100.0
55,39.97723275,40.2594294375,66.0,85.0
56,40.28026275,40.5662473125,68.0,98.0
57,40.58329275,41.8579126875,66.0,91.0
58,56.94691275,57.1060035,73.0,106.0
59,57.24994275,57.3427456875,73.0,100.0
60,57.55297275,57.8541088125,73.0,103.0
61,57.85600275,58.359790125,68.0,109.0
62,58.46206275,58.71963825,70.0,103.0
63,58.76509275,59.3124406875,68.0,106.0
64,59.37115275,59.511304125,66.0,98.0
65,59.67418275,60.3465305625,61.0,100.0
66,60.58327275,60.8654694375,63.0,91.0
67,60.88630275,60.990469312500004,66.0,85.0
68,61.18933275,61.427968875,66.0,95.0
69,61.49236275,61.723423125000004,65.0,91.0
70,61.79539275,62.1836499375,66.0,85.0
71,62.24993775,62.40145275,68.0,71.0
72,62.40145275,63.427966875,70.0,91.0
73,64.21963275,64.4563749375,73.0,95.0
74,64.52266275,64.62872325,73.0,98.0
75,64.82569275,65.1003136875,73.0,82.0
76,65.12872275,65.636298,68.0,95.0
77,65.73478275,66.041600625,70.0,98.0
78,66.03781275,66.4033426875,68.0,98.0
79,66.64387275,66.95069062500001,66.0,85.0
80,66.94690275,67.7290989375,61.0,77.0
81,67.85599275,68.0851591875,63.0,91.0
82,68.15902275,68.2366741875,66.0,113.0
83,68.46205275,68.6950070625,66.0,106.0
84,68.76508275,68.97720375,65.0,106.0
85,69.06811275,69.4715214375,66.0,88.0
86,69.52265775,69.64197581250001,68.0,77.0
87,69.67417275,71.31053475,66.0,85.0
88,71.18932275,71.503716375,65.0,98.0
89,71.49235275,72.0131855625,63.0,91.0
90,72.09841275,72.4184881875,66.0,85.0
91,72.40144275,72.6950030625,65.0,85.0
92,72.70447275,72.9677300625,66.0,73.0
93,73.00750275,73.32568425,68.0,95.0
94,73.31053275000001,74.8200009375,70.0,91.0
95,74.82568275,75.1116673125,65.0,106.0
96,75.12871275,75.238561125,63.0,103.0
97,75.73477275,76.03780275,75.0,103.0
98,76.03780275,76.624923375,73.0,103.0
99,76.64386275,76.9449988125,71.0,88.0
100,76.94689275,77.9904523125,70.0,109.0
101,78.76507275,79.102193625,73.0,103.0
102,79.37113275,79.6116628125,78.0,103.0
103,79.67416275,80.2745409375,77.0,98.0
104,80.28022275000001,80.58325275,75.0,79.0
105,80.58325275,80.837040375,73.0,100.0
106,80.88628275,81.0965098125,70.0,73.0
107,81.18931275,81.4866609375,68.0,77.0
108,81.49234275,82.151433,66.0,106.0
109,82.09840275,82.3805994375,65.0,85.0
110,82.40143275,82.68931125,63.0,111.0
111,83.00749275,83.2783258125,75.0,82.0
112,83.31052275,83.5908255,73.0,98.0
113,83.61355275,83.8540828125,70.0,70.0
114,83.91658275,84.2025673125,68.0,72.0
115,84.21961275,85.66089918750001,66.0,77.0
116,86.03779275,87.0453675,73.0,100.0
117,86.94688275,87.8275636875,80.0,111.0
118,87.85597275,88.727184,77.0,103.0
119,88.76506275,89.526425625,78.0,109.0
120,89.67415275,89.837031375,75.0,111.0
121,89.97718275,90.0756675,75.0,103.0
122,90.28021275,90.52263675,75.0,100.0
123,90.58324275,91.1684694375,73.0,113.0
124,91.18930275,91.5018024375,71.0,88.0
125,91.49233275,92.890058625,70.0,111.0
126,93.31051275,94.24990575,73.0,115.0
127,94.21960275,95.0889200625,80.0,113.0
128,95.12869275,95.969601,77.0,109.0
129,96.03778275,96.73475175,78.0,109.0
130,96.94687275,97.0775544375,75.0,106.0
131,97.24990275,97.3351299375,75.0,106.0
132,97.55293275,97.79535675,75.0,109.0
133,97.85596275,98.1230079375,73.0,117.0
134,98.15899275,98.37868950000001,70.0,85.0
135,98.46202275,98.7442194375,68.0,85.0
136,98.76505275,100.1381574375,66.0,100.0
137,115.12867275,115.21958175,73.0,91.0
138,115.43170275,115.50746025,73.0,98.0
139,115.73473275,116.0017779375,73.0,98.0
140,116.03776275,116.496095625,68.0,95.0
141,116.64382275,116.882458875,70.0,98.0
142,116.94685275,117.1835949375,68.0,85.0
143,117.55291275,117.818064,66.0,95.0
144,117.85594275,118.32563925,61.0,79.0
145,118.76503275,118.9941991875,63.0,106.0
146,119.06806275,119.1608656875,66.0,111.0
147,119.37109275,119.6457136875,66.0,106.0
148,119.67412275,119.9241225,65.0,109.0
149,119.97715275,120.3729856875,66.0,98.0
150,120.43169775,120.6002581875,68.0,79.0
151,120.58321275,121.768817625,70.0,106.0
152,122.40139275,122.5131350625,73.0,109.0
153,122.70442275,122.7744984375,73.0,91.0
154,123.00745275,123.2744979375,73.0,98.0
155,123.31048275,123.8502549375,68.0,98.0
156,123.91654275,124.18926975,70.0,91.0
157,124.21957275,124.4563149375,68.0,98.0
158,124.82563275,125.121087,66.0,82.0
159,125.12866275,125.5661623125,61.0,91.0
160,126.03775275,126.2934343125,63.0,85.0
161,126.34078275,126.46199475,66.0,98.0
162,126.64381275,126.908964,66.0,100.0
163,126.94684275,127.1949485625,65.0,103.0
164,127.24987275,127.5282815625,66.0,73.0
165,127.55290275,127.821841875,68.0,75.0
166,127.85593275,128.859719625,66.0,72.0
167,129.37108275,129.6760066875,65.0,103.0
168,129.67411275,130.200627375,63.0,85.0
169,130.28017275,130.5661573125,66.0,85.0
170,130.58320275,130.882444875,65.0,77.0
171,130.88623275,131.1722173125,66.0,71.0
172,131.18926275,131.541535125,68.0,85.0
173,131.5604745,132.518806875,70.0,88.0
174,133.00744275,133.29532125,65.0,95.0
175,133.31047275,133.549108875,63.0,85.0
176,133.91653275,134.23471425,75.0,111.0
177,134.21956275,134.8691833125,73.0,75.0
178,134.82562275,135.147592125,71.0,77.0
179,135.12865275,136.1456971875,70.0,85.0
180,136.94683275,137.261226375,73.0,109.0
181,137.55289275,137.7820591875,78.0,100.0
182,137.85592275,138.390013125,77.0,103.0
183,138.46198275,138.753649125,75.0,98.0
184,138.76501275,138.927891375,73.0,106.0
185,139.06804275,139.3616030625,70.0,88.0
186,139.37107275,139.496072625,68.0,98.0
187,139.67410275,140.3350869375,66.0,109.0
188,140.28016275,140.5661473125,65.0,95.0
189,140.58319275,140.723344125,63.0,109.0
190,141.18925275,141.34076775,75.0,77.0
191,141.49228275,141.7782673125,73.0,82.0
192,141.79531275,141.999858,70.0,98.0
193,142.09834275,142.38622125,68.0,85.0
194,142.40137275,143.4562959375,66.0,106.0
195,144.21955275,145.15137000000001,73.0,109.0
196,145.12864275,146.02258125,80.0,111.0
197,146.03773275,146.8312925625,77.0,82.0
198,146.94682275,147.5604585,78.0,109.0
199,147.85591275,148.0282610625,75.0,95.0
200,148.15894275,148.268791125,75.0,103.0
201,148.46197275,148.6816695,75.0,98.0
202,148.76500275,149.3350779375,73.0,106.0
203,149.37106275,149.6684109375,71.0,85.0
204,149.67409275,150.7971976875,70.0,103.0
205,151.49227275,152.4089385,73.0,111.0
206,152.40136275,153.261210375,80.0,115.0
207,153.31045275,154.1229519375,77.0,113.0
208,154.21954275,155.11348125,78.0,111.0
209,155.12863275,155.2971931875,75.0,98.0
210,155.43166275,155.5358293125,75.0,98.0
211,155.73469275,155.9543895,75.0,109.0
212,156.03772275,156.314237625,73.0,106.0
213,156.34075275,156.5907525,70.0,100.0
214,156.64378275,156.91650975,68.0,95.0
215,156.94681275,158.15893275,66.0,113.0
216,158.76499275,158.9259774375,73.0,91.0
217,159.06802275,159.181659,73.0,95.0
218,159.37105275,159.6380979375,73.0,106.0
219,159.67408275,160.1684004375,68.0,106.0
220,160.28014275,160.5396121875,70.0,111.0
221,160.58317275,161.079384375,68.0,98.0
222,161.18923275,161.511202125,66.0,82.0
223,161.49226275,162.276352875,61.0,109.0
224,162.40135275,162.655140375,63.0,103.0
225,162.70438275,162.844534125,66.0,100.0
226,163.00741275000001,163.268776125,66.0,98.0
227,163.31044275,163.571806125,65.0,103.0
228,163.61347275,163.852108875,66.0,91.0
229,163.91650275,164.2271085,68.0,98.0
230,164.21953275,165.56801625,70.0,103.0
231,166.03771275,166.2062731875,73.0,98.0
232,166.34074275,166.46195475,73.0,88.0
233,166.64377275,166.8918785625,73.0,95.0
234,166.94680275,167.4638476875,68.0,98.0
235,167.55286275,167.814226125,70.0,103.0
236,167.85589275,168.0755895,68.0,100.0
237,168.46195275,168.753619125,66.0,98.0
238,168.76498275,169.3502094375,61.0,88.0
239,169.67407275,169.980890625,63.0,82.0
240,170.030133,170.1949055625,66.0,100.0
241,170.3956629375,170.6570263125,66.0,91.0
242,170.7517231875,171.0509653125,65.0,91.0
243,171.18922275,171.609676875,66.0,91.0
244,171.64376775,172.12104,68.0,106.0
245,172.2933883125,173.3539933125,66.0,106.0
