,start,end,pitch,velocity
0,2.8352265166666664,3.7982944416666666,68.0,87.0
1,3.8579535166666665,4.191760245833333,71.0,87.0
2,4.198862516666667,4.634941945833333,68.0,87.0
3,4.880680516666667,5.218748608333333,63.0,87.0
4,5.221589516666667,5.5468735208333335,66.0,87.0
5,5.5624985166666665,6.2684642375,68.0,87.0
6,6.244316516666666,8.286929608333333,66.0,87.0
7,8.289770516666666,9.261361166666667,73.0,87.0
8,9.312497516666665,9.688917870833333,75.0,87.0
9,9.653406516666667,10.330963154166666,73.0,87.0
10,10.335224516666667,10.9815311625,68.0,87.0
11,11.017042516666667,11.677553704166666,71.0,87.0
12,13.062496516666666,13.306814633333333,71.0,85.0
13,11.698860516666667,13.377837341666666,68.0,87.0
14,13.403405516666666,13.759939512499999,70.0,85.0
15,13.744314516666666,14.643462004166667,68.0,85.0
16,14.767041516666666,15.133518691666666,66.0,85.0
17,15.107950516666666,15.355109541666666,68.0,85.0
18,15.448859516666666,15.711643537499999,71.0,85.0
19,15.789768516666665,16.160507054166665,59.0,85.0
20,16.130677516666665,16.406245625,56.0,85.0
21,16.812495516666665,18.514199608333332,61.0,85.0
22,18.517040516666665,18.904824504166665,61.0,85.0
23,18.857949516666665,19.11931308333333,63.0,85.0
24,19.198858516666665,19.82669925833333,66.0,85.0
25,19.880676516666664,20.927551237499998,58.0,85.0
26,21.244312516666668,21.544028345833333,58.0,85.0
27,21.585221516666667,21.94885778333333,54.0,85.0
28,21.926130516666667,23.203118812499998,56.0,85.0
29,25.335220516666666,25.673288608333333,61.0,85.0
30,25.676129516666666,25.92897035833333,63.0,85.0
31,26.017038516666666,26.348004337499997,66.0,85.0
32,26.357947516666666,26.696015608333333,63.0,85.0
33,26.698856516666666,27.036924608333333,61.0,85.0
34,27.039765516666666,27.377833608333333,59.0,85.0
35,27.380674516666666,28.059651608333333,61.0,85.0
36,28.403401516666666,28.757094604166664,63.0,85.0
37,28.744310516666665,29.525560308333333,61.0,85.0
38,30.789764516666665,31.08521898333333,61.0,85.0
39,31.130673516666665,31.504252962499997,63.0,85.0
40,31.471582516666665,31.786923341666665,61.0,85.0
41,31.812491516666665,32.13635506666667,59.0,85.0
42,32.153400516666665,32.51277542083333,56.0,85.0
43,32.49430951666667,33.178968425,66.0,85.0
44,33.17612751666667,34.484365804166664,63.0,85.0
45,36.24430851666666,36.63635386666667,61.0,85.0
46,36.58521751666667,36.8820924375,63.0,85.0
47,36.92612651666666,37.26845597083333,66.0,85.0
48,37.26703551666667,37.63493314583333,63.0,85.0
49,37.60794451666666,37.927546704166666,61.0,85.0
50,37.94885351666667,38.44317156666666,59.0,85.0
51,38.28976251666666,39.2855008875,61.0,85.0
52,39.312489516666666,39.6008417125,63.0,85.0
53,39.65339851666666,40.808227754166666,56.0,85.0
54,41.69885251666666,42.05822742083333,61.0,85.0
55,42.039761516666665,42.426125049999996,63.0,85.0
56,42.38067051666666,42.730102241666664,61.0,85.0
57,42.721579516666665,43.058227154166666,59.0,85.0
58,43.06248851666666,43.43038614583333,56.0,85.0
59,43.403397516666665,44.088056425,61.0,85.0
60,44.085215516666665,45.70595372083333,59.0,85.0
61,47.15339651666667,47.49146460833333,61.0,85.0
62,47.494305516666664,47.74714635833333,63.0,85.0
63,47.83521451666667,48.166180337499995,66.0,85.0
64,48.176123516666664,48.514191608333334,63.0,85.0
65,48.51703251666667,48.85510060833333,61.0,85.0
66,48.85794151666666,49.196009608333334,59.0,85.0
67,49.19885051666667,49.877827608333334,61.0,85.0
68,50.22157751666666,50.57527060416666,63.0,90.0
69,50.56248651666667,51.24146360833333,56.0,90.0
70,52.607940516666666,52.90339498333333,61.0,90.0
71,52.94884951666666,53.3224289625,63.0,90.0
72,53.289758516666666,53.605099341666666,61.0,90.0
73,53.63066751666666,53.95453106666667,59.0,90.0
74,53.971576516666666,54.33095142083333,56.0,90.0
75,54.31248551666666,54.997144424999995,66.0,90.0
76,54.99430351666666,56.302541804166665,63.0,90.0
77,58.062484516666665,58.45452986666666,61.0,90.0
78,58.40339351666666,58.7002684375,63.0,90.0
79,58.744302516666664,59.08663197083333,66.0,90.0
80,59.08521151666667,59.45310914583333,63.0,90.0
81,59.426120516666664,59.74572270416667,61.0,90.0
82,59.76702951666667,60.261347566666664,59.0,90.0
83,60.107938516666664,61.1036768875,61.0,90.0
84,61.13066551666667,61.4190177125,63.0,90.0
85,61.471574516666664,62.62640375416667,61.0,90.0
86,63.51702851666666,63.876403420833334,68.0,90.0
87,63.85793751666667,64.24430105,66.0,90.0
88,64.19884651666666,64.54827824166667,68.0,90.0
89,64.53975551666666,64.87640315416667,71.0,90.0
90,64.88066451666667,65.24856214583333,63.0,90.0
91,65.22157351666667,66.07100510833332,66.0,90.0
92,65.90339151666666,67.52412972083333,59.0,90.0
93,68.28975451666666,68.9445838875,66.0,90.0
94,68.97157251666667,69.7201518625,61.0,90.0
95,69.65339051666666,70.16191310833334,63.0,90.0
96,70.33520851666667,70.97441289166666,71.0,92.0
97,71.01702651666666,71.74287859583333,66.0,92.0
98,71.69884451666667,73.02838961666666,68.0,92.0
99,73.06248051666667,73.73435533749999,63.0,87.0
100,73.74429851666666,75.35225263333334,61.0,87.0
101,75.78975251666667,76.46162733749999,68.0,87.0
102,76.47157051666666,78.93605849583334,66.0,87.0
103,79.88066051666667,80.24429678333333,71.0,87.0
104,80.22156951666666,80.59798987083333,70.0,87.0
105,80.56247851666666,81.55679643333333,68.0,87.0
106,81.58520551666666,81.95310314583332,66.0,87.0
107,81.92611451666666,82.17895535833333,68.0,87.0
108,82.26702351666667,82.65196659583333,71.0,87.0
109,82.60793251666666,82.92043243333333,68.0,87.0
110,82.94884151666666,83.19600054166666,66.0,87.0
111,83.28975051666666,85.14344320416666,63.0,87.0
112,85.33520451666666,85.68605669583333,56.0,87.0
113,85.67611351666666,85.97582934583333,63.0,87.0
114,86.01702251666666,86.97156771666667,61.0,87.0
115,87.03974951666666,87.39060169583333,63.0,87.0
116,87.38065851666666,87.73577205833332,61.0,87.0
117,87.72156751666667,88.07952196666666,59.0,87.0
118,88.06247651666666,88.39486279166667,56.0,87.0
119,88.40338551666666,88.75423769583333,66.0,87.0
120,88.74429451666666,90.6263962875,63.0,87.0
121,90.78974851666666,91.20736204166667,71.0,87.0
122,91.13065751666666,91.4531006125,70.0,87.0
123,91.47156651666667,92.52980487083333,68.0,87.0
124,92.49429351666666,92.86929341666666,66.0,87.0
125,92.83520251666667,93.11929334999999,68.0,87.0
126,93.17611151666667,93.39912282083333,71.0,87.0
127,93.51702051666666,93.89344087083333,59.0,87.0
128,93.85792951666666,94.18605442916666,56.0,87.0
129,94.19883851666667,95.87071307083333,61.0,87.0
130,96.24429251666666,96.61503105416666,61.0,87.0
131,96.58520151666666,96.87923552916666,63.0,87.0
132,96.92611051666667,97.5042353625,66.0,87.0
133,97.60792851666666,98.75707593749999,58.0,87.0
134,98.97156451666666,99.28690534166667,58.0,87.0
135,99.31247351666666,99.65764387916666,54.0,87.0
136,99.65338251666667,101.31105252916666,56.0,87.0
137,124.88064851666667,125.21871660833332,61.0,90.0
138,125.22155751666666,125.47439835833333,63.0,90.0
139,125.56246651666666,125.8934323375,66.0,90.0
140,125.90337551666666,126.24144360833333,63.0,90.0
141,126.24428451666667,126.58235260833332,61.0,90.0
142,126.58519351666666,126.92326160833333,59.0,90.0
143,126.92610251666666,127.60507960833333,61.0,90.0
144,127.94882951666666,128.30252260416665,63.0,90.0
145,128.28973851666666,128.96871560833333,56.0,90.0
146,130.33519251666667,130.63064698333332,61.0,90.0
147,130.67610151666665,131.0496809625,63.0,90.0
148,131.01701051666666,131.33235134166665,61.0,90.0
149,131.35791951666667,131.68178306666667,59.0,90.0
150,131.69882851666665,132.05820342083334,56.0,90.0
151,132.03973751666666,132.72439642499998,66.0,90.0
152,132.72155551666665,134.02979380416667,63.0,90.0
153,135.78973651666666,136.18178186666665,61.0,90.0
154,136.13064551666668,136.4275204375,63.0,90.0
155,136.47155451666666,136.81388397083333,66.0,90.0
156,136.81246351666667,137.18036114583333,63.0,90.0
157,137.15337251666665,137.47297470416666,61.0,90.0
158,137.49428151666666,137.98859956666666,59.0,90.0
159,137.83519051666667,138.8309288875,61.0,90.0
160,138.85791751666667,139.1462697125,63.0,90.0
161,139.19882651666666,140.35365575416665,61.0,90.0
162,141.24428051666666,141.60365542083332,68.0,90.0
163,141.58518951666667,141.97155304999998,66.0,90.0
164,141.92609851666666,142.27553024166667,68.0,90.0
165,142.26700751666667,142.60365515416666,71.0,90.0
166,142.60791651666665,142.97581414583334,63.0,90.0
167,142.94882551666666,143.79825710833333,66.0,90.0
168,143.63064351666665,145.25138172083334,59.0,90.0
169,146.01700651666667,146.67183588749998,66.0,90.0
170,146.69882451666666,147.44740386249998,61.0,90.0
171,147.38064251666665,147.88916510833332,63.0,90.0
172,148.06246051666665,148.70166489166667,71.0,90.0
173,148.74427851666667,149.47013059583333,66.0,90.0
174,149.42609651666666,150.75564161666665,68.0,90.0
175,150.78973251666667,151.4616073375,63.0,90.0
176,151.47155051666667,153.07950463333333,61.0,90.0
177,153.51700451666667,154.1888793375,68.0,90.0
178,154.19882251666667,156.66331049583331,66.0,90.0
179,157.60791251666666,157.97154878333333,71.0,90.0
180,157.94882151666667,158.32524187083334,70.0,90.0
181,158.28973051666665,159.28404843333334,68.0,90.0
182,159.31245751666665,159.68035514583332,66.0,90.0
183,159.65336651666667,159.90620735833332,68.0,90.0
184,159.99427551666665,160.37921859583332,71.0,90.0
185,160.33518451666666,160.64768443333332,68.0,90.0
186,160.67609351666667,160.92325254166667,66.0,90.0
187,161.01700251666665,162.87069520416665,63.0,90.0
188,163.06245651666666,163.41330869583334,56.0,90.0
189,163.40336551666667,163.70308134583334,63.0,90.0
190,163.74427451666665,164.69881971666666,61.0,90.0
191,164.76700151666665,165.11785369583333,63.0,90.0
192,165.10791051666666,165.46302405833333,61.0,90.0
193,165.44881951666667,165.80677396666667,59.0,90.0
194,165.78972851666666,166.12211479166666,56.0,90.0
195,166.13063751666667,166.48148969583332,66.0,90.0
196,166.47154651666665,168.3536482875,63.0,90.0
197,168.51700051666666,168.93461404166666,71.0,90.0
198,168.85790951666667,169.1803526125,70.0,90.0
199,169.19881851666665,170.25705687083334,68.0,90.0
200,170.22154551666665,170.59654541666666,66.0,90.0
201,170.56245451666666,170.84654534999999,68.0,90.0
202,170.90336351666667,171.12637482083332,71.0,90.0
203,171.24427251666665,171.62069287083332,59.0,90.0
204,171.58518151666667,171.91330642916665,56.0,90.0
205,171.92609051666665,173.59796507083334,61.0,90.0
206,173.97154451666665,174.34228305416667,61.0,90.0
207,174.31245351666666,174.60648752916666,63.0,90.0
208,174.65336251666665,175.2314873625,66.0,90.0
209,175.33518051666667,176.48432793749998,58.0,90.0
210,176.69881651666665,177.01415734166665,58.0,90.0
211,177.03972551666666,177.38489587916666,54.0,90.0
212,177.38063451666665,179.03830452916665,56.0,90.0
213,180.10790651666665,180.78972451666667,68.0,90.0
214,181.13063351666665,181.4786447875,71.0,90.0
215,181.47154251666666,182.13631506666667,68.0,90.0
216,182.15336051666665,182.49142860833334,63.0,90.0
217,182.49426951666666,182.79398534583333,66.0,90.0
218,182.83517851666667,183.49284879583334,68.0,90.0
219,183.51699651666667,184.53688260833331,66.0,90.0
220,185.56245051666667,186.57665479166667,73.0,90.0
221,186.58517751666665,186.90620015833332,75.0,90.0
222,186.92608651666666,187.5638704375,73.0,90.0
223,187.60790451666665,188.27409752083332,68.0,90.0
224,188.28972251666667,188.95591552083332,70.0,90.0
225,188.97154051666666,190.4275060375,68.0,90.0
226,190.33517651666665,190.69881278333332,71.0,90.0
227,190.67608551666666,191.05250587083333,70.0,90.0
228,191.01699451666667,192.01131243333333,68.0,90.0
229,192.03972151666665,192.40761914583334,66.0,90.0
230,192.38063051666666,192.63347135833334,68.0,90.0
231,192.72153951666667,193.1064825958333,71.0,90.0
232,193.06244851666665,193.37494843333332,68.0,90.0
233,193.40335751666666,193.65051654166666,66.0,90.0
234,193.74426651666667,195.59795920416667,63.0,90.0
235,195.78972051666665,196.14057269583333,56.0,90.0
236,196.13062951666666,196.43034534583333,63.0,90.0
237,196.47153851666667,197.42608371666665,61.0,90.0
238,197.49426551666667,197.84511769583332,63.0,90.0
239,197.83517451666665,198.19028805833332,61.0,90.0
240,198.17608351666667,198.53403796666666,59.0,90.0
241,198.51699251666665,198.84937879166665,56.0,90.0
242,198.85790151666666,199.20875369583334,66.0,90.0
243,199.19881051666667,201.08091228749998,63.0,90.0
244,201.24426451666665,201.66187804166665,71.0,90.0
245,201.58517351666666,201.9076166125,70.0,90.0
246,201.92608251666667,202.98432087083333,68.0,90.0
247,202.94880951666667,203.32380941666665,66.0,90.0
248,203.28971851666665,203.57380935,68.0,90.0
249,203.63062751666666,203.85363882083334,71.0,90.0
250,203.97153651666665,204.34795687083331,59.0,90.0
251,204.31244551666666,204.64057042916667,56.0,90.0
252,204.65335451666667,206.32522907083333,61.0,90.0
253,206.69880851666665,207.06954705416666,61.0,90.0
254,207.03971751666666,207.33375152916665,63.0,90.0
255,207.38062651666667,207.95875136249998,66.0,90.0
256,208.06244451666666,209.2115919375,58.0,90.0
257,209.42608051666664,209.74142134166667,58.0,90.0
258,209.76698951666665,210.11215987916665,54.0,90.0
259,210.10789851666667,210.78687560833333,56.0,90.0
260,210.10789851666667,210.97295510416666,68.0,90.0
261,211.13062551666667,211.4317618,71.0,90.0
262,211.47153451666665,212.08943207916667,68.0,90.0
263,212.15335251666667,212.5269319625,63.0,90.0
264,212.49426151666665,212.80107961666667,66.0,90.0
265,212.83517051666666,213.54681805416666,68.0,90.0
266,213.51698851666666,214.88062451666667,66.0,90.0
267,215.56244251666666,216.5411354375,73.0,90.0
268,216.58516951666667,216.9061921583333,75.0,90.0
269,216.92607851666665,217.59937379166666,73.0,90.0
270,217.60789651666667,217.9843168708333,68.0,90.0
271,217.94880551666665,218.29681678749998,71.0,90.0
272,218.28971451666666,218.97153251666666,73.0,90.0
273,218.97153251666666,220.2684071708333,68.0,90.0
274,221.01698651666666,221.92607718333332,68.0,90.0
275,222.03971351666667,222.33658843749998,71.0,90.0
276,222.38062251666665,223.07380415,68.0,90.0
277,223.06244051666667,223.41755405833334,63.0,90.0
278,223.40334951666665,223.7257926125,66.0,90.0
279,223.74425851666666,224.4587469625,68.0,90.0
280,224.42607651666665,225.79539433333332,66.0,90.0
281,226.47153051666666,227.43175753333333,73.0,90.0
282,227.49425751666666,227.81101879583332,75.0,92.0
283,227.83516651666665,228.49425725,73.0,92.0
284,228.51698451666667,228.86925714999998,68.0,92.0
285,228.85789351666665,229.21584796666664,71.0,92.0
286,229.19880251666666,229.85789325,73.0,92.0
287,229.88062051666665,232.14766536666664,68.0,92.0
