,start,end,pitch,velocity
0,2.8352265166666664,4.749998733333333,59.0,71.0
1,2.8352265166666664,4.863635066666666,68.0,71.0
2,2.8352265166666664,4.944600954166667,63.0,71.0
3,3.1761355166666667,5.0113623,56.0,71.0
4,2.8352265166666664,5.086646370833333,44.0,71.0
5,4.880680516666667,5.3522713,59.0,71.0
6,5.221589516666667,5.529828070833333,68.0,71.0
7,5.221589516666667,5.605112141666666,63.0,71.0
8,6.585225516666666,7.501418454166666,58.0,71.0
9,6.585225516666666,7.5383502625,63.0,71.0
10,6.244316516666666,7.703122945833333,54.0,71.0
11,5.903407516666666,7.7897706499999995,51.0,71.0
12,5.5624985166666665,7.833804729166666,39.0,71.0
13,7.607952516666666,8.004259229166667,58.0,71.0
14,7.607952516666666,8.225850079166666,63.0,71.0
15,7.948861516666667,8.248577345833333,54.0,71.0
16,8.289770516666666,10.392042683333333,37.0,71.0
17,8.630679516666666,10.559656275,49.0,71.0
18,8.971588516666666,10.776985762499999,52.0,71.0
19,9.312497516666665,10.788349395833333,56.0,71.0
20,9.312497516666665,10.8195993875,61.0,71.0
21,12.039769516666667,12.805394312499999,68.0,71.0
22,12.039769516666667,12.836644304166667,63.0,71.0
23,11.698860516666667,12.863632933333333,59.0,71.0
24,11.017042516666667,13.353689620833332,44.0,71.0
25,13.062496516666666,13.424712329166667,68.0,71.0
26,11.357951516666667,13.434655508333332,56.0,71.0
27,13.062496516666666,13.457382775,63.0,71.0
28,13.062496516666666,13.4701668625,59.0,71.0
29,14.085223516666666,14.593746108333333,56.0,71.0
30,13.744314516666666,14.767041516666666,47.0,71.0
31,14.426132516666666,14.879257395833333,59.0,71.0
32,14.426132516666666,14.88067785,68.0,71.0
33,14.426132516666666,14.887780120833332,64.0,71.0
34,14.767041516666666,15.107950516666666,47.0,71.0
35,15.107950516666666,15.789768516666665,47.0,77.0
36,15.448859516666666,16.23863203333333,56.0,71.0
37,15.789768516666665,16.2997115625,68.0,71.0
38,15.789768516666665,16.3423251875,59.0,71.0
39,15.789768516666665,16.40056380833333,64.0,71.0
40,16.812495516666665,17.2968703875,56.0,71.0
41,16.471586516666665,17.494313516666665,49.0,71.0
42,17.494313516666665,17.835222516666665,49.0,69.0
43,17.153404516666665,18.275563308333332,64.0,71.0
44,17.153404516666665,18.295449666666666,68.0,71.0
45,17.153404516666665,18.3025519375,61.0,71.0
46,18.176131516666665,18.589483679166666,56.0,69.0
47,18.517040516666665,18.819597254166666,61.0,69.0
48,18.857949516666665,18.997154025,56.0,69.0
49,18.517040516666665,19.147722166666664,68.0,69.0
50,18.517040516666665,19.171869887499998,64.0,69.0
51,17.835222516666665,19.198858516666665,49.0,69.0
52,19.539767516666664,20.102267366666666,51.0,69.0
53,19.198858516666665,20.221585516666664,39.0,69.0
54,20.221585516666664,20.562494516666664,39.0,69.0
55,19.880676516666664,20.940335325,58.0,69.0
56,19.880676516666664,20.998573945833332,63.0,69.0
57,19.880676516666664,21.005676216666664,54.0,69.0
58,20.903403516666664,21.525562441666665,51.0,69.0
59,21.244312516666668,21.653403316666665,58.0,69.0
60,20.562494516666664,21.755676016666666,39.0,69.0
61,21.585221516666667,21.781244191666666,54.0,69.0
62,21.244312516666668,21.80113055,63.0,69.0
63,22.267039516666667,22.7940280125,56.0,71.0
64,21.926130516666667,22.948857516666667,44.0,70.0
65,22.948857516666667,23.289766516666667,44.0,70.0
66,22.607948516666667,23.7400504875,68.0,71.0
67,22.607948516666667,23.767039116666666,63.0,71.0
68,22.607948516666667,23.782664112499997,59.0,71.0
69,23.630675516666667,24.325277604166665,56.0,78.0
70,23.971584516666667,24.461641204166664,68.0,71.0
71,23.971584516666667,24.478686654166665,59.0,71.0
72,23.971584516666667,24.478686654166665,63.0,71.0
73,23.289766516666667,24.653402516666667,44.0,78.0
74,24.994311516666667,25.4999932,54.0,71.0
75,25.335220516666666,25.705959054166666,66.0,71.0
76,25.335220516666666,25.723004504166667,63.0,71.0
77,25.335220516666666,25.749993133333334,59.0,71.0
78,25.676129516666666,26.475845212499998,54.0,71.0
79,26.357947516666666,26.7059587875,66.0,71.0
80,26.357947516666666,26.714481512499997,59.0,71.0
81,26.357947516666666,26.732947416666665,63.0,71.0
82,24.653402516666667,26.957379175,47.0,71.0
83,26.698856516666666,27.122151858333332,54.0,71.0
84,27.039765516666666,27.198856383333332,66.0,71.0
85,27.039765516666666,27.205958654166665,59.0,71.0
86,27.039765516666666,27.234367737499998,63.0,71.0
87,27.380674516666666,28.403401516666666,49.0,70.0
88,28.062492516666666,28.473003770833333,64.0,70.0
89,28.062492516666666,28.480106041666666,68.0,70.0
90,28.062492516666666,28.521299212499997,61.0,70.0
91,28.403401516666666,28.744310516666665,49.0,70.0
92,29.085219516666665,29.400560341666665,56.0,70.0
93,29.426128516666665,29.592321654166664,64.0,70.0
94,29.426128516666665,29.59374210833333,61.0,70.0
95,29.426128516666665,29.6249921,68.0,70.0
96,28.744310516666665,30.107946516666665,49.0,70.0
97,30.107946516666665,31.130673516666665,42.0,70.0
98,30.789764516666665,31.163343962499997,66.0,70.0
99,30.789764516666665,31.169025779166667,70.0,70.0
100,30.789764516666665,31.200275770833333,61.0,70.0
101,31.130673516666665,31.471582516666665,42.0,70.0
102,31.812491516666665,32.0497073625,54.0,70.0
103,31.471582516666665,32.49430951666667,42.0,70.0
104,32.153400516666665,32.53408223333333,70.0,70.0
105,32.153400516666665,32.53692314166666,66.0,70.0
106,32.153400516666665,32.55538904583333,61.0,70.0
107,32.835218516666664,33.85794551666667,47.0,70.0
108,33.517036516666664,33.8991386875,66.0,70.0
109,33.517036516666664,33.9161841375,63.0,70.0
110,33.517036516666664,33.946013674999996,59.0,70.0
111,33.85794551666667,34.198854516666664,47.0,70.0
112,34.53976351666667,35.03834292916667,54.0,70.0
113,34.880672516666664,35.05964974166667,59.0,70.0
114,34.880672516666664,35.06249065,66.0,70.0
115,34.880672516666664,35.07243382916666,63.0,70.0
116,34.198854516666664,35.22158151666667,47.0,70.0
117,35.562490516666664,36.58521751666667,47.0,70.0
118,36.24430851666666,36.58947887916666,66.0,70.0
119,36.24430851666666,36.60794478333333,59.0,70.0
120,36.24430851666666,36.615047054166666,63.0,70.0
121,36.58521751666667,36.92612651666666,47.0,70.0
122,37.26703551666667,37.696012675,54.0,70.0
123,37.60794451666666,37.7599331125,59.0,70.0
124,37.60794451666666,37.77555810833333,66.0,70.0
125,37.60794451666666,37.79118310416666,63.0,70.0
126,36.92612651666666,38.28976251666666,47.0,70.0
127,38.28976251666666,39.312489516666666,49.0,70.0
128,38.97158051666666,39.34373950833333,68.0,70.0
129,38.97158051666666,39.349421325,64.0,70.0
130,38.97158051666666,39.36078495833333,61.0,70.0
131,39.312489516666666,39.65339851666666,49.0,70.0
132,39.994307516666666,40.348000604166664,56.0,70.0
133,40.33521651666666,40.64345507083333,61.0,70.0
134,40.33521651666666,40.816750479166664,64.0,70.0
135,40.33521651666666,40.839477745833335,68.0,70.0
136,39.65339851666666,41.01703451666666,49.0,70.0
137,41.01703451666666,42.039761516666665,42.0,70.0
138,41.69885251666666,42.10936377083333,66.0,70.0
139,41.69885251666666,42.129250129166664,61.0,70.0
140,41.69885251666666,42.129250129166664,70.0,70.0
141,42.039761516666665,42.38067051666666,42.0,70.0
142,42.721579516666665,42.94032945833333,54.0,70.0
143,43.06248851666666,43.170443033333335,66.0,70.0
144,43.06248851666666,43.18180666666667,70.0,70.0
145,43.06248851666666,43.19601120833333,61.0,70.0
146,42.38067051666666,43.74430651666666,42.0,70.0
147,44.42612451666667,44.752828975,66.0,70.0
148,44.42612451666667,44.75566988333333,63.0,70.0
149,44.42612451666667,44.7656130625,59.0,70.0
150,43.74430651666666,44.767033516666665,47.0,70.0
151,44.767033516666665,45.10794251666667,47.0,70.0
152,45.448851516666664,45.90055594166667,54.0,70.0
153,45.78976051666667,45.907658212499996,66.0,70.0
154,45.78976051666667,45.9247036625,59.0,70.0
155,45.78976051666667,45.93464684166666,63.0,70.0
156,45.10794251666667,46.47157851666667,47.0,70.0
157,46.47157851666667,47.494305516666664,47.0,70.0
158,47.15339651666667,47.5610668625,66.0,70.0
159,47.15339651666667,47.56248731666666,63.0,70.0
160,47.15339651666667,47.57953276666667,59.0,70.0
161,47.494305516666664,47.83521451666667,47.0,70.0
162,48.176123516666664,48.6008393125,54.0,70.0
163,48.51703251666667,48.67612338333333,66.0,70.0
164,48.51703251666667,48.69174837916666,59.0,70.0
165,48.51703251666667,48.71021428333333,63.0,70.0
166,47.83521451666667,49.19885051666667,47.0,70.0
167,49.19885051666667,50.22157751666666,49.0,70.0
168,50.22157751666666,50.56248651666667,49.0,70.0
169,49.88066851666667,50.7613501,64.0,70.0
170,49.88066851666667,50.86220234583333,61.0,70.0
171,49.88066851666667,50.906236424999996,68.0,70.0
172,50.90339551666666,51.315327225,56.0,70.0
173,51.244304516666666,51.58237260833333,61.0,70.0
174,51.244304516666666,51.64487259166666,64.0,70.0
175,51.244304516666666,51.670440766666665,68.0,70.0
176,50.56248651666667,51.926122516666666,49.0,70.0
177,51.926122516666666,52.94884951666666,42.0,70.0
178,52.607940516666666,53.05254267083333,61.0,70.0
179,52.607940516666666,53.055383579166666,66.0,70.0
180,52.607940516666666,53.065326758333335,70.0,70.0
181,52.94884951666666,53.289758516666666,42.0,70.0
182,53.63066751666666,53.83663337083333,54.0,70.0
183,53.971576516666666,54.285496887499995,70.0,70.0
184,53.971576516666666,54.28833779583333,66.0,70.0
185,53.971576516666666,54.30964460833333,61.0,70.0
186,53.289758516666666,54.653394516666665,42.0,70.0
187,54.653394516666665,55.67612151666666,47.0,70.0
188,55.335212516666665,55.730098774999995,63.0,70.0
189,55.335212516666665,55.731519229166665,66.0,70.0
190,55.335212516666665,55.74430331666667,59.0,70.0
191,55.67612151666666,56.017030516666665,47.0,70.0
192,56.35793951666666,56.85367802083333,54.0,70.0
193,56.698848516666665,57.03123479166666,66.0,70.0
194,56.698848516666665,57.03691660833333,59.0,70.0
195,56.698848516666665,57.03691660833333,63.0,70.0
196,56.017030516666665,57.380666516666665,47.0,70.0
197,58.062484516666665,58.397711699999995,63.0,70.0
198,57.380666516666665,58.40339351666666,47.0,70.0
199,58.062484516666665,58.40481397083333,66.0,70.0
200,58.062484516666665,58.428961691666665,59.0,70.0
201,58.40339351666666,58.744302516666664,47.0,70.0
202,59.08521151666667,59.49572277083333,54.0,70.0
203,59.426120516666664,59.60509774166666,59.0,70.0
204,59.426120516666664,59.6249841,66.0,70.0
205,59.426120516666664,59.64487045833333,63.0,70.0
206,58.744302516666664,60.107938516666664,47.0,70.0
207,60.44884751666667,61.035495087499996,56.0,74.0
208,60.789756516666664,61.10083597916667,68.0,74.0
209,60.789756516666664,61.127824608333334,64.0,74.0
210,60.107938516666664,61.13066551666667,49.0,70.0
211,60.789756516666664,61.15339278333333,61.0,74.0
212,61.13066551666667,61.471574516666664,49.0,74.0
213,61.81248351666667,62.237199312499996,56.0,74.0
214,62.15339251666666,62.30254020416666,68.0,74.0
215,62.15339251666666,62.306801566666664,64.0,74.0
216,62.15339251666666,62.3139038375,61.0,74.0
217,61.471574516666664,62.83521051666666,49.0,74.0
218,62.83521051666666,63.85793751666667,42.0,74.0
219,63.51702851666666,63.89202841666666,66.0,74.0
220,63.51702851666666,63.90055114166666,70.0,74.0
221,63.51702851666666,63.92185795416666,61.0,74.0
222,63.85793751666667,64.19884651666666,42.0,74.0
223,64.53975551666666,64.87782360833333,54.0,74.0
224,64.88066451666667,65.21020988333333,70.0,74.0
225,64.88066451666667,65.2158917,66.0,74.0
226,64.88066451666667,65.21873260833333,61.0,74.0
227,64.19884651666666,65.56248251666666,42.0,74.0
228,65.56248251666666,66.58520951666667,47.0,74.0
229,66.58520951666667,66.92611851666666,47.0,74.0
230,66.24430051666667,67.23719797916667,66.0,74.0
231,66.24430051666667,67.23861843333333,63.0,74.0
232,66.24430051666667,67.27555024166666,59.0,74.0
233,67.26702751666666,67.74856147916667,54.0,74.0
234,67.60793651666667,68.28691360833334,59.0,74.0
235,66.92611851666666,68.28975451666666,47.0,74.0
236,67.60793651666667,68.292595425,66.0,74.0
237,67.60793651666667,68.31674314583333,63.0,74.0
238,68.28975451666666,69.31248151666667,39.0,74.0
239,69.31248151666667,69.65339051666666,39.0,74.0
240,68.97157251666667,69.98577679166667,58.0,74.0
241,68.97157251666667,70.03265177916667,54.0,74.0
242,68.97157251666667,70.04543586666666,63.0,74.0
243,69.99429951666666,70.4275380375,51.0,74.0
244,70.33520851666667,70.62924252916666,54.0,74.0
245,70.33520851666667,70.78833339583333,58.0,74.0
246,70.67611751666666,70.87640155416666,51.0,74.0
247,70.33520851666667,70.9389015375,63.0,74.0
248,69.65339051666666,71.01702651666666,39.0,74.0
249,71.01702651666666,72.03975351666666,44.0,74.0
250,72.03975351666666,72.38066251666666,44.0,74.0
251,71.69884451666667,72.7031056125,68.0,74.0
252,71.69884451666667,72.73151469583333,63.0,74.0
253,71.69884451666667,72.74713969166666,59.0,74.0
254,72.72157151666666,73.1548100375,56.0,74.0
255,73.06248051666667,73.56532129166666,59.0,75.0
256,73.06248051666667,73.60367355416666,63.0,75.0
257,73.06248051666667,73.6065144625,68.0,75.0
258,73.40338951666666,73.65054854166667,56.0,75.0
259,72.38066251666666,73.74429851666666,44.0,74.0
260,73.74429851666666,74.76702551666666,49.0,75.0
261,74.76702551666666,75.10793451666666,49.0,75.0
262,74.42611651666667,75.28975265,68.0,75.0
263,74.42611651666667,75.30111628333333,64.0,75.0
264,74.42611651666667,75.30537764583333,61.0,75.0
265,75.44884351666667,75.77412752083333,56.0,75.0
266,75.78975251666667,76.0269683625,61.0,75.0
267,75.78975251666667,76.04969562916666,68.0,75.0
268,75.78975251666667,76.05111608333333,64.0,75.0
269,75.10793451666666,76.47157051666666,49.0,75.0
270,76.81247951666667,77.292593025,54.0,75.0
271,76.47157051666666,77.49429751666666,42.0,75.0
272,77.49429751666666,77.83520651666666,42.0,75.0
273,77.15338851666667,77.99145647499999,58.0,75.0
274,77.15338851666667,78.0127632875,61.0,75.0
275,77.15338851666667,78.01560419583333,66.0,75.0
276,78.17611551666667,78.62071767083333,54.0,75.0
277,78.51702451666667,78.68463810833333,58.0,75.0
278,78.51702451666667,78.68463810833333,61.0,75.0
279,78.51702451666667,78.68463810833333,66.0,75.0
280,77.83520651666666,79.19884251666666,42.0,75.0
281,79.19884251666666,80.26560359583333,58.0,75.0
282,79.19884251666666,80.27838768333334,42.0,75.0
283,79.19884251666666,80.28548995416666,61.0,75.0
284,79.19884251666666,80.29543313333333,66.0,75.0
285,79.19884251666666,80.30395585833332,54.0,75.0
286,80.90338751666667,81.44031919166666,56.0,75.0
287,80.56247851666666,81.58520551666666,44.0,75.0
288,81.58520551666666,81.92611451666666,44.0,75.0
289,81.24429651666667,82.10935310416666,68.0,75.0
290,81.24429651666667,82.116455375,63.0,75.0
291,81.24429651666667,82.12639855416667,59.0,75.0
292,82.26702351666667,82.70594385416666,56.0,75.0
293,82.60793251666666,82.81389837083333,59.0,75.0
294,82.60793251666666,82.82952336666666,68.0,75.0
295,82.60793251666666,82.83094382083333,63.0,75.0
296,81.92611451666666,83.28975051666666,44.0,75.0
297,83.63065951666667,84.1917389125,58.0,75.0
298,83.28975051666666,84.31247751666666,51.0,75.0
299,84.31247751666666,84.65338651666666,51.0,75.0
300,83.97156851666666,84.7627614875,66.0,75.0
301,83.97156851666666,84.78832966249999,70.0,75.0
302,83.97156851666666,84.79969329583334,63.0,75.0
303,84.99429551666667,85.40480677083333,58.0,75.0
304,85.33520451666666,85.56247718333333,70.0,75.0
305,85.33520451666666,85.56957945416666,66.0,75.0
306,85.33520451666666,85.57952263333333,63.0,75.0
307,84.65338651666666,86.01702251666666,51.0,75.0
308,86.35793151666667,86.9616245375,56.0,75.0
309,86.01702251666666,87.03974951666666,49.0,75.0
310,87.03974951666666,87.38065851666666,49.0,75.0
311,86.69884051666666,87.45736304166667,64.0,75.0
312,86.69884051666666,87.47582894583333,68.0,75.0
313,86.69884051666666,87.4900334875,61.0,75.0
314,87.72156751666667,88.11787422916666,56.0,75.0
315,88.06247651666666,88.3295219,64.0,75.0
316,88.06247651666666,88.34088553333333,61.0,75.0
317,88.06247651666666,88.36503325416666,68.0,75.0
318,87.38065851666666,88.74429451666666,49.0,75.0
319,89.08520351666667,89.55395339166667,58.0,75.0
320,88.74429451666666,89.76702151666666,51.0,75.0
321,89.76702151666666,90.10793051666667,51.0,75.0
322,89.42611251666666,90.2343509375,66.0,75.0
323,89.42611251666666,90.2343509375,70.0,75.0
324,89.42611251666666,90.25707820416666,63.0,75.0
325,90.44883951666667,90.82810077916666,58.0,75.0
326,90.78974851666666,91.01986209166667,66.0,75.0
327,90.78974851666666,91.02412345416667,70.0,75.0
328,90.78974851666666,91.03974844999999,63.0,75.0
329,90.10793051666667,91.47156651666667,51.0,75.0
330,91.81247551666667,92.32241856249999,56.0,75.0
331,91.47156651666667,92.49429351666666,44.0,75.0
332,92.15338451666666,92.56673667916667,68.0,75.0
333,92.15338451666666,92.58378212916666,59.0,75.0
334,92.15338451666666,92.58520258333333,63.0,75.0
335,92.49429351666666,92.83520251666667,44.0,75.0
336,93.17611151666667,93.62497503333333,56.0,75.0
337,93.51702051666666,93.70736137499999,59.0,75.0
338,93.51702051666666,93.72156591666666,63.0,75.0
339,93.51702051666666,93.7457136375,68.0,75.0
340,92.83520251666667,94.19883851666667,44.0,75.0
341,94.53974751666667,95.04258829166666,56.0,75.0
342,94.19883851666667,95.22156551666666,49.0,75.0
343,94.88065651666666,95.55963360833333,64.0,75.0
344,95.22156551666666,95.56247451666667,49.0,75.0
345,94.88065651666666,95.64912222083333,68.0,75.0
346,94.88065651666666,95.68747448333333,61.0,75.0
347,95.90338351666666,96.35934930416666,56.0,75.0
348,96.24429251666666,96.51559926249999,68.0,75.0
349,96.24429251666666,96.52128107916667,64.0,75.0
350,96.24429251666666,96.58236060833333,61.0,75.0
351,95.56247451666667,96.92611051666667,49.0,75.0
352,97.26701951666666,97.81815573333333,58.0,75.0
353,96.92611051666667,97.94883751666666,51.0,75.0
354,97.94883751666666,98.28974651666667,51.0,75.0
355,97.60792851666666,98.36929194999999,66.0,75.0
356,97.60792851666666,98.37213285833333,70.0,75.0
357,97.60792851666666,98.40338285,63.0,75.0
358,98.97156451666666,99.36076895833332,58.0,75.0
359,99.31247351666666,99.54684845416666,63.0,75.0
360,99.31247351666666,99.55110981666667,66.0,75.0
361,99.31247351666666,99.5582120875,70.0,75.0
362,98.28974651666667,99.65338251666667,51.0,75.0
363,99.99429151666666,100.54968909583333,56.0,75.0
364,99.65338251666667,100.67610951666666,44.0,75.0
365,100.67610951666666,101.01701851666667,44.0,75.0
366,100.67610951666666,101.25139345416666,56.0,75.0
367,100.33520051666666,101.4332115875,68.0,75.0
368,100.33520051666666,101.43747295,63.0,75.0
369,100.33520051666666,101.4587797625,59.0,75.0
370,101.35792751666666,101.92895009166666,56.0,75.0
371,101.69883651666666,102.18605229583333,68.0,75.0
372,101.69883651666666,102.20167729166667,63.0,75.0
373,101.69883651666666,102.21162047083332,59.0,75.0
374,102.03974551666666,102.26275682083333,56.0,75.0
375,101.01701851666667,102.38065451666667,44.0,75.0
376,102.38065451666667,103.4701428625,68.0,75.0
377,102.38065451666667,103.5468473875,56.0,75.0
378,102.38065451666667,103.57099510833334,59.0,75.0
379,102.38065451666667,103.61787009583333,63.0,75.0
380,103.74429051666667,104.4886085,68.0,75.0
381,103.74429051666667,104.50281304166666,63.0,75.0
382,104.08519951666666,104.52838121666666,56.0,75.0
383,104.42610851666666,105.07383561666666,59.0,75.0
384,102.38065451666667,105.10792651666667,44.0,75.0
385,104.76701751666667,105.13491514583333,63.0,75.0
386,105.44883551666666,106.71588063333333,51.0,75.0
387,106.13065351666667,106.92042603333333,58.0,75.0
388,105.78974451666666,106.96019874999999,54.0,75.0
389,106.13065351666667,106.96303965833333,63.0,75.0
390,106.81247151666666,107.34798273749999,51.0,75.0
391,105.10792651666667,107.43889180416666,39.0,75.0
392,107.15338051666666,107.52980087083333,58.0,75.0
393,107.15338051666666,107.78548262083333,63.0,75.0
394,107.49428951666667,107.85934623749999,54.0,75.0
395,108.17610751666666,109.54684578749999,49.0,75.0
396,109.53974351666666,109.54684578749999,49.0,75.0
397,108.85792551666667,109.69457302083333,61.0,75.0
398,108.85792551666667,109.70309574583332,56.0,75.0
399,108.51701651666666,109.7173002875,52.0,75.0
400,107.83519851666667,110.06531155833333,37.0,75.0
401,109.88065251666666,110.2030956125,61.0,75.0
402,109.88065251666666,110.42042509999999,52.0,75.0
403,109.88065251666666,110.57383415,56.0,75.0
404,110.22156151666667,110.57951596666666,61.0,75.0
405,110.90337951666666,112.0780951125,56.0,75.0
406,111.58519751666667,112.3422995875,68.0,75.0
407,111.24428851666666,112.36928821666666,59.0,75.0
408,111.58519751666667,112.37354957916666,63.0,75.0
409,110.56247051666666,112.87354944583333,44.0,75.0
410,112.26701551666666,112.8749699,56.0,75.0
411,112.60792451666666,112.88207217083333,59.0,75.0
412,112.60792451666666,112.93036761249999,68.0,75.0
413,112.60792451666666,113.03974258333334,63.0,75.0
414,112.94883351666667,113.06531075833333,68.0,75.0
415,112.94883351666667,113.28690160833332,59.0,75.0
416,113.28974251666666,114.31246951666667,40.0,75.0
417,113.97156051666666,114.31673087916666,56.0,75.0
418,113.97156051666666,114.34798087083333,59.0,75.0
419,113.97156051666666,114.36502632083332,64.0,75.0
420,114.31246951666667,114.65337851666666,40.0,75.0
421,114.99428751666666,115.35082151249999,52.0,75.0
422,115.33519651666666,115.48860556666666,59.0,75.0
423,115.33519651666666,115.49428738333333,56.0,75.0
424,115.33519651666666,115.50991237916666,64.0,75.0
425,114.65337851666666,116.01701451666666,40.0,75.0
426,116.69883251666666,117.03690060833333,58.0,74.0
427,116.69883251666666,117.03690060833333,61.0,74.0
428,116.69883251666666,117.03690060833333,66.0,74.0
429,116.01701451666666,117.03974151666667,42.0,74.0
430,117.03974151666667,117.38065051666666,42.0,74.0
431,117.72155951666666,118.082354875,54.0,74.0
432,118.06246851666666,118.23718437916666,58.0,74.0
433,118.06246851666666,118.30394572499999,61.0,74.0
434,118.06246851666666,118.31530935833332,66.0,74.0
435,117.38065051666666,118.74428651666666,42.0,74.0
436,118.74428651666666,119.76701351666667,39.0,74.0
437,119.76701351666667,120.10792251666666,39.0,74.0
438,119.42610451666665,120.46019514999999,58.0,74.0
439,119.42610451666665,120.4729792375,54.0,74.0
440,119.42610451666665,120.48718377916666,63.0,74.0
441,120.44883151666666,120.88917230833333,51.0,74.0
442,120.78974051666667,121.19456995416667,54.0,73.0
443,120.78974051666667,121.23008130833333,58.0,73.0
444,120.78974051666667,121.23434267083333,63.0,73.0
445,120.10792251666666,121.47155851666666,39.0,74.0
446,121.47155851666666,122.49428551666666,44.0,73.0
447,122.49428551666666,122.83519451666666,44.0,72.0
448,122.15337651666667,122.95877402916666,68.0,72.0
449,122.15337651666667,122.96445584583333,63.0,72.0
450,122.15337651666667,122.98292174999999,59.0,72.0
451,123.51701251666667,123.6519556625,68.0,71.0
452,123.51701251666667,123.65763747916667,59.0,71.0
453,123.17610351666666,123.67610338333333,56.0,72.0
454,123.51701251666667,123.6817852,63.0,71.0
455,122.83519451666666,123.85792151666666,44.0,72.0
456,123.85792151666666,124.19883051666666,44.0,71.0
457,124.53973951666666,125.04542119999999,54.0,71.0
458,124.88064851666667,125.25138705416666,66.0,71.0
459,124.88064851666667,125.26843250416667,63.0,71.0
460,124.88064851666667,125.29542113333333,59.0,71.0
461,125.22155751666666,126.02127321249999,54.0,71.0
462,125.90337551666666,126.2513867875,66.0,71.0
463,125.90337551666666,126.2599095125,59.0,71.0
464,125.90337551666666,126.27837541666666,63.0,71.0
465,124.19883051666666,126.502807175,47.0,71.0
466,126.24428451666667,126.66757985833333,54.0,71.0
467,126.58519351666666,126.74428438333332,66.0,71.0
468,126.58519351666666,126.75138665416667,59.0,71.0
469,126.58519351666666,126.7797957375,63.0,71.0
470,126.92610251666666,127.94882951666666,49.0,71.0
471,127.60792051666667,128.01843177083333,64.0,71.0
472,127.60792051666667,128.02553404166667,68.0,71.0
473,127.60792051666667,128.06672721249998,61.0,71.0
474,127.94882951666666,128.28973851666666,49.0,71.0
475,128.63064751666667,128.94598834166666,56.0,71.0
476,128.97155651666665,129.13774965416667,64.0,71.0
477,128.97155651666665,129.13917010833333,61.0,71.0
478,128.97155651666665,129.1704201,68.0,71.0
479,128.28973851666666,129.65337451666667,49.0,71.0
480,129.65337451666667,130.67610151666665,42.0,71.0
481,130.33519251666667,130.70877196249998,66.0,71.0
482,130.33519251666667,130.71445377916666,70.0,71.0
483,130.33519251666667,130.74570377083333,61.0,71.0
484,130.67610151666665,131.01701051666666,42.0,71.0
485,131.35791951666667,131.5951353625,54.0,71.0
486,131.01701051666666,132.03973751666666,42.0,71.0
487,131.69882851666665,132.07951023333334,70.0,71.0
488,131.69882851666665,132.08235114166666,66.0,71.0
489,131.69882851666665,132.10081704583334,61.0,71.0
490,132.38064651666667,133.40337351666665,47.0,71.0
491,133.06246451666667,133.4445666875,66.0,71.0
492,133.06246451666667,133.4616121375,63.0,71.0
493,133.06246451666667,133.491441675,59.0,71.0
494,133.40337351666665,133.74428251666666,47.0,71.0
495,134.08519151666667,134.58377092916666,54.0,71.0
496,134.42610051666665,134.60507774166666,59.0,71.0
497,134.42610051666665,134.60791865,66.0,71.0
498,134.42610051666665,134.61786182916666,63.0,71.0
499,133.74428251666666,134.76700951666666,47.0,71.0
500,135.10791851666667,136.13064551666668,47.0,71.0
501,135.78973651666666,136.13490687916666,66.0,71.0
502,135.78973651666666,136.15337278333334,59.0,71.0
503,135.78973651666666,136.16047505416665,63.0,71.0
504,136.13064551666668,136.47155451666666,47.0,71.0
505,136.81246351666667,137.241440675,54.0,71.0
506,137.15337251666665,137.30536111249998,59.0,71.0
507,137.15337251666665,137.32098610833333,66.0,71.0
508,137.15337251666665,137.33661110416665,63.0,71.0
509,136.47155451666666,137.83519051666667,47.0,71.0
510,137.83519051666667,138.85791751666667,49.0,71.0
511,138.51700851666666,138.88916750833332,68.0,71.0
512,138.51700851666666,138.894849325,64.0,71.0
513,138.51700851666666,138.90621295833333,61.0,71.0
514,138.85791751666667,139.19882651666666,49.0,71.0
515,139.53973551666667,139.89342860416667,56.0,71.0
516,139.88064451666665,140.18888307083333,61.0,71.0
517,139.88064451666665,140.36217847916666,64.0,71.0
518,139.88064451666665,140.38490574583332,68.0,71.0
519,139.19882651666666,140.56246251666667,49.0,71.0
520,140.56246251666667,141.58518951666667,42.0,71.0
521,141.24428051666666,141.65479177083333,66.0,71.0
522,141.24428051666666,141.67467812916667,61.0,71.0
523,141.24428051666666,141.67467812916667,70.0,71.0
524,141.58518951666667,141.92609851666666,42.0,71.0
525,142.26700751666667,142.48575745833332,54.0,71.0
526,142.60791651666665,142.71587103333331,66.0,71.0
527,142.60791651666665,142.72723466666667,70.0,71.0
528,142.60791651666665,142.74143920833333,61.0,71.0
529,141.92609851666666,143.28973451666667,42.0,71.0
530,143.97155251666666,144.298256975,66.0,71.0
531,143.97155251666666,144.30109788333334,63.0,71.0
532,143.97155251666666,144.31104106249998,59.0,71.0
533,143.28973451666667,144.31246151666667,47.0,71.0
534,144.31246151666667,144.65337051666666,47.0,71.0
535,144.99427951666667,145.44598394166667,54.0,71.0
536,145.33518851666665,145.45308621249998,66.0,71.0
537,145.33518851666665,145.4701316625,59.0,71.0
538,145.33518851666665,145.48007484166666,63.0,71.0
539,144.65337051666666,146.01700651666667,47.0,71.0
540,146.01700651666667,147.03973351666667,47.0,71.0
541,146.69882451666666,147.1064948625,66.0,71.0
542,146.69882451666666,147.10791531666666,63.0,71.0
543,146.69882451666666,147.12496076666667,59.0,71.0
544,147.03973351666667,147.38064251666665,47.0,71.0
545,147.72155151666666,148.1462673125,54.0,71.0
546,148.06246051666665,148.22155138333332,66.0,71.0
547,148.06246051666665,148.23717637916667,59.0,71.0
548,148.06246051666665,148.25564228333332,63.0,71.0
549,147.38064251666665,148.74427851666667,47.0,71.0
550,148.74427851666667,149.76700551666667,49.0,71.0
551,149.76700551666667,150.10791451666665,49.0,71.0
552,149.42609651666666,150.3067781,64.0,71.0
553,149.42609651666666,150.40763034583333,61.0,71.0
554,149.42609651666666,150.451664425,68.0,71.0
555,150.44882351666666,150.860755225,56.0,71.0
556,150.78973251666667,151.12780060833333,61.0,71.0
557,150.78973251666667,151.19030059166667,64.0,71.0
558,150.78973251666667,151.21586876666666,68.0,71.0
559,150.10791451666665,151.47155051666667,49.0,71.0
560,151.47155051666667,152.49427751666667,42.0,71.0
561,152.15336851666666,152.59797067083332,61.0,71.0
562,152.15336851666666,152.60081157916667,66.0,71.0
563,152.15336851666666,152.61075475833331,70.0,71.0
564,152.49427751666667,152.83518651666665,42.0,71.0
565,153.17609551666666,153.38206137083333,54.0,71.0
566,153.51700451666667,153.8309248875,70.0,71.0
567,153.51700451666667,153.83376579583333,66.0,71.0
568,153.51700451666667,153.85507260833333,61.0,71.0
569,152.83518651666665,154.19882251666667,42.0,71.0
570,154.19882251666667,155.22154951666667,47.0,71.0
571,154.88064051666666,155.275526775,63.0,71.0
572,154.88064051666666,155.27694722916667,66.0,71.0
573,154.88064051666666,155.28973131666666,59.0,71.0
574,155.22154951666667,155.56245851666665,47.0,71.0
575,155.90336751666666,156.39910602083333,54.0,71.0
576,156.24427651666667,156.57666279166665,66.0,71.0
577,156.24427651666667,156.58234460833333,59.0,71.0
578,156.24427651666667,156.58234460833333,63.0,71.0
579,155.56245851666665,156.92609451666667,47.0,71.0
580,157.60791251666666,157.9431397,63.0,71.0
581,156.92609451666667,157.94882151666667,47.0,71.0
582,157.60791251666666,157.95024197083333,66.0,71.0
583,157.60791251666666,157.97438969166666,59.0,71.0
584,157.94882151666667,158.28973051666665,47.0,71.0
585,158.63063951666666,159.04115077083333,54.0,71.0
586,158.97154851666667,159.15052574166666,59.0,71.0
587,158.97154851666667,159.1704121,66.0,71.0
588,158.97154851666667,159.19029845833333,63.0,71.0
589,158.28973051666665,159.65336651666667,47.0,71.0
590,159.99427551666665,160.5809230875,56.0,71.0
591,160.33518451666666,160.64626397916666,68.0,71.0
592,160.33518451666666,160.6732526083333,64.0,71.0
593,159.65336651666667,160.67609351666667,49.0,71.0
594,160.33518451666666,160.69882078333333,61.0,71.0
595,160.67609351666667,161.01700251666665,49.0,71.0
596,161.35791151666666,161.78262731249998,56.0,71.0
597,161.69882051666667,161.84796820416665,68.0,71.0
598,161.69882051666667,161.85222956666667,64.0,71.0
599,161.69882051666667,161.85933183749998,61.0,71.0
600,161.01700251666665,162.38063851666666,49.0,71.0
601,162.38063851666666,163.40336551666667,42.0,71.0
602,163.06245651666666,163.43745641666666,66.0,71.0
603,163.06245651666666,163.44597914166667,70.0,71.0
604,163.06245651666666,163.46728595416667,61.0,71.0
605,163.40336551666667,163.74427451666665,42.0,71.0
606,164.08518351666666,164.42325160833332,54.0,71.0
607,164.42609251666667,164.75563788333332,70.0,71.0
608,164.42609251666667,164.7613197,66.0,71.0
609,164.42609251666667,164.76416060833333,61.0,71.0
610,163.74427451666665,165.10791051666666,42.0,71.0
611,165.10791051666666,166.13063751666667,47.0,71.0
612,166.13063751666667,166.47154651666665,47.0,71.0
613,165.78972851666666,166.78262597916665,66.0,71.0
614,165.78972851666666,166.78404643333332,63.0,71.0
615,165.78972851666666,166.82097824166667,59.0,71.0
616,166.81245551666666,167.29398947916667,54.0,71.0
617,167.15336451666667,167.83234160833334,59.0,71.0
618,166.47154651666665,167.83518251666666,47.0,71.0
619,167.15336451666667,167.838023425,66.0,71.0
620,167.15336451666667,167.86217114583332,63.0,71.0
621,167.83518251666666,168.85790951666667,39.0,71.0
622,168.85790951666667,169.19881851666665,39.0,71.0
623,168.51700051666666,169.53120479166665,58.0,71.0
624,168.51700051666666,169.57807977916667,54.0,71.0
625,168.51700051666666,169.59086386666667,63.0,71.0
626,169.53972751666666,169.9729660375,51.0,71.0
627,169.88063651666667,170.17467052916666,54.0,71.0
628,169.88063651666667,170.33376139583333,58.0,71.0
629,170.22154551666665,170.42182955416666,51.0,71.0
630,169.88063651666667,170.4843295375,63.0,71.0
631,169.19881851666665,170.56245451666666,39.0,71.0
632,170.56245451666666,171.58518151666667,44.0,71.0
633,171.58518151666667,171.92609051666665,44.0,71.0
634,171.24427251666665,172.24853361249998,68.0,71.0
635,171.24427251666665,172.27694269583333,63.0,71.0
636,171.24427251666665,172.29256769166665,59.0,71.0
637,172.26699951666666,172.7002380375,56.0,71.0
638,172.60790851666667,173.11074929166665,59.0,71.0
639,172.60790851666667,173.14910155416666,63.0,71.0
640,172.60790851666667,173.1519424625,68.0,71.0
641,172.94881751666665,173.19597654166665,56.0,71.0
642,171.92609051666665,173.28972651666666,44.0,71.0
643,173.28972651666666,174.31245351666666,49.0,71.0
644,174.31245351666666,174.65336251666665,49.0,71.0
645,173.97154451666665,174.83518064999998,68.0,71.0
646,173.97154451666665,174.84654428333332,64.0,71.0
647,173.97154451666665,174.85080564583333,61.0,71.0
648,174.99427151666666,175.31955552083332,56.0,71.0
649,175.33518051666667,175.5723963625,61.0,72.0
650,175.33518051666667,175.59512362916666,68.0,72.0
651,175.33518051666667,175.59654408333333,64.0,72.0
652,174.65336251666665,176.01699851666666,49.0,71.0
653,176.35790751666667,176.838021025,54.0,73.0
654,176.01699851666666,177.03972551666666,42.0,73.0
655,177.03972551666666,177.38063451666665,42.0,73.0
656,176.69881651666665,177.536884475,58.0,73.0
657,176.69881651666665,177.5581912875,61.0,73.0
658,176.69881651666665,177.56103219583332,66.0,73.0
659,177.72154351666666,178.16614567083332,54.0,73.0
660,178.06245251666667,178.23006610833332,58.0,73.0
661,178.06245251666667,178.23006610833332,61.0,73.0
662,178.06245251666667,178.23006610833332,66.0,73.0
663,177.38063451666665,178.74427051666666,42.0,73.0
664,178.74427051666666,179.81103159583333,58.0,74.0
665,178.74427051666666,179.82381568333332,42.0,74.0
666,178.74427051666666,179.83091795416667,61.0,74.0
667,178.74427051666666,179.84086113333333,66.0,74.0
668,178.74427051666666,179.84938385833334,54.0,74.0
669,180.44881551666666,180.98574719166666,56.0,74.0
670,180.10790651666665,181.13063351666665,44.0,74.0
671,181.13063351666665,181.47154251666666,44.0,74.0
672,180.78972451666667,181.65478110416666,68.0,74.0
673,180.78972451666667,181.661883375,63.0,74.0
674,180.78972451666667,181.67182655416667,59.0,74.0
675,181.81245151666667,182.25137185416665,56.0,74.0
676,182.15336051666665,182.35932637083332,59.0,74.0
677,182.15336051666665,182.37495136666666,68.0,74.0
678,182.15336051666665,182.37637182083333,63.0,74.0
679,181.47154251666666,182.83517851666667,44.0,74.0
680,183.17608751666666,183.7371669125,58.0,74.0
681,182.83517851666667,183.85790551666665,51.0,74.0
682,183.85790551666665,184.19881451666666,51.0,74.0
683,183.51699651666667,184.3081894875,66.0,74.0
684,183.51699651666667,184.3337576625,70.0,74.0
685,183.51699651666667,184.34512129583334,63.0,74.0
686,184.53972351666667,184.95023477083333,58.0,75.0
687,184.88063251666665,185.10790518333332,70.0,75.0
688,184.88063251666665,185.11500745416666,66.0,75.0
689,184.88063251666665,185.12495063333333,63.0,75.0
690,184.19881451666666,185.56245051666667,51.0,74.0
691,185.90335951666665,186.5070525375,56.0,75.0
692,185.56245051666667,186.58517751666665,49.0,75.0
693,186.58517751666665,186.92608651666666,49.0,75.0
694,186.24426851666666,187.00279104166665,64.0,75.0
695,186.24426851666666,187.02125694583333,68.0,75.0
696,186.24426851666666,187.0354614875,61.0,75.0
697,187.26699551666667,187.66330222916665,56.0,75.0
698,187.60790451666665,187.8749499,64.0,75.0
699,187.60790451666665,187.88631353333332,61.0,75.0
700,187.60790451666665,187.91046125416665,68.0,75.0
701,186.92608651666666,188.28972251666667,49.0,75.0
702,188.97154051666666,189.7286425875,68.0,75.0
703,188.97154051666666,189.75989257916666,63.0,75.0
704,188.63063151666665,189.8053471125,56.0,75.0
705,188.97154051666666,190.09654021666665,59.0,75.0
706,188.28972251666667,190.60080144583333,44.0,75.0
707,189.99426751666667,190.6022219,56.0,75.0
708,190.33517651666665,190.60932417083333,59.0,75.0
709,190.33517651666665,190.65761961249999,68.0,75.0
710,190.33517651666665,190.76699458333331,63.0,75.0
711,190.67608551666666,190.79256275833333,68.0,75.0
712,190.67608551666666,191.01415360833332,59.0,75.0
713,191.35790351666665,191.89483519166666,56.0,75.0
714,191.01699451666667,192.03972151666665,44.0,75.0
715,192.03972151666665,192.38063051666666,44.0,75.0
716,191.69881251666666,192.56386910416666,68.0,75.0
717,191.69881251666666,192.570971375,63.0,75.0
718,191.69881251666666,192.58091455416667,59.0,75.0
719,192.72153951666667,193.16045985416665,56.0,75.0
720,193.06244851666665,193.2684143708333,59.0,75.0
721,193.06244851666665,193.28403936666666,68.0,75.0
722,193.06244851666665,193.28545982083332,63.0,75.0
723,192.38063051666666,193.74426651666667,44.0,75.0
724,194.08517551666665,194.64625491249998,58.0,68.0
725,193.74426651666667,194.76699351666664,51.0,75.0
726,194.76699351666664,195.10790251666666,51.0,68.0
727,194.42608451666666,195.21727748749998,66.0,68.0
728,194.42608451666666,195.2428456625,70.0,68.0
729,194.42608451666666,195.25420929583333,63.0,68.0
730,195.44881151666667,195.85932277083333,58.0,69.0
731,195.78972051666665,196.0169931833333,70.0,69.0
732,195.78972051666665,196.02409545416666,66.0,69.0
733,195.78972051666665,196.03403863333332,63.0,69.0
734,195.10790251666666,196.47153851666667,51.0,69.0
735,196.81244751666665,197.41614053749998,56.0,69.0
736,196.47153851666667,197.49426551666667,49.0,69.0
737,197.49426551666667,197.83517451666665,49.0,69.0
738,197.15335651666666,197.91187904166665,64.0,69.0
739,197.15335651666666,197.93034494583333,68.0,69.0
740,197.15335651666666,197.94454948749998,61.0,69.0
741,198.17608351666667,198.57239022916667,56.0,69.0
742,198.51699251666665,198.7840379,64.0,69.0
743,198.51699251666665,198.79540153333332,61.0,69.0
744,198.51699251666665,198.81954925416665,68.0,69.0
745,197.83517451666665,199.19881051666667,49.0,69.0
746,199.53971951666665,200.00846939166667,58.0,69.0
747,199.19881051666667,200.22153751666667,51.0,69.0
748,200.22153751666667,200.56244651666665,51.0,69.0
749,199.88062851666666,200.6888669375,66.0,69.0
750,199.88062851666666,200.6888669375,70.0,69.0
751,199.88062851666666,200.71159420416666,63.0,69.0
752,200.90335551666666,201.28261677916666,58.0,69.0
753,201.24426451666665,201.47437809166667,66.0,69.0
754,201.24426451666665,201.47863945416665,70.0,69.0
755,201.24426451666665,201.49426445,63.0,69.0
756,200.56244651666665,201.92608251666667,51.0,69.0
757,202.26699151666665,202.7769345625,56.0,69.0
758,201.92608251666667,202.94880951666667,44.0,69.0
759,202.60790051666666,203.02125267916665,68.0,69.0
760,202.60790051666666,203.03829812916666,59.0,69.0
761,202.60790051666666,203.03971858333333,63.0,69.0
762,202.94880951666667,203.28971851666665,44.0,69.0
763,203.63062751666666,204.0794910333333,56.0,69.0
764,203.97153651666665,204.161877375,59.0,69.0
765,203.97153651666665,204.17608191666665,63.0,69.0
766,203.97153651666665,204.2002296375,68.0,69.0
767,203.28971851666665,204.65335451666667,44.0,69.0
768,204.99426351666665,205.49710429166666,56.0,69.0
769,204.65335451666667,205.67608151666667,49.0,69.0
770,205.33517251666666,206.01414960833333,64.0,69.0
771,205.67608151666667,206.01699051666665,49.0,69.0
772,205.33517251666666,206.10363822083332,68.0,69.0
773,205.33517251666666,206.14199048333333,61.0,69.0
774,206.35789951666666,206.81386530416665,56.0,69.0
775,206.69880851666665,206.9701152625,68.0,69.0
776,206.69880851666665,206.97579707916665,64.0,69.0
777,206.69880851666665,207.03687660833333,61.0,69.0
778,206.01699051666665,207.38062651666667,49.0,69.0
779,207.72153551666665,208.2726717333333,58.0,69.0
780,207.38062651666667,208.40335351666667,51.0,69.0
781,208.40335351666667,208.74426251666665,51.0,69.0
782,208.06244451666666,208.82380795,66.0,69.0
783,208.06244451666666,208.82664885833333,70.0,69.0
784,208.06244451666666,208.85789885,63.0,69.0
785,209.08517151666666,209.47437595833333,58.0,69.0
786,209.42608051666664,209.66045545416665,63.0,69.0
787,209.42608051666664,209.66471681666667,66.0,69.0
788,209.42608051666664,209.67181908749998,70.0,69.0
789,208.74426251666665,210.10789851666667,51.0,69.0
790,210.10789851666667,211.13062551666667,44.0,69.0
791,210.78971651666666,211.20733004166667,68.0,69.0
792,210.78971651666666,211.22011412916666,63.0,69.0
793,210.78971651666666,211.2740913875,59.0,69.0
794,211.13062551666667,211.47153451666665,44.0,69.0
795,210.44880751666665,211.47153451666665,56.0,69.0
796,211.81244351666666,212.09369344166666,56.0,69.0
797,212.15335251666667,212.43176153333332,68.0,69.0
798,212.15335251666667,212.45448879999998,63.0,69.0
799,212.15335251666667,212.480056975,59.0,69.0
800,211.47153451666665,212.83517051666666,44.0,69.0
801,213.17607951666665,213.73289755,51.0,69.0
802,212.83517051666666,213.85789751666667,39.0,69.0
803,213.85789751666667,214.19880651666665,39.0,69.0
804,213.51698851666666,214.52835188333333,58.0,69.0
805,213.51698851666666,214.53687460833333,54.0,69.0
806,213.51698851666666,214.53687460833333,63.0,69.0
807,214.88062451666667,215.16045398749998,63.0,69.0
808,214.53971551666666,215.18744261666666,51.0,69.0
809,214.88062451666667,215.21869260833333,54.0,69.0
810,214.88062451666667,215.21869260833333,58.0,69.0
811,215.22153351666665,215.5042038958333,54.0,69.0
812,214.19880651666665,215.56244251666666,39.0,69.0
813,215.56244251666666,216.58516951666667,37.0,69.0
814,216.58516951666667,216.92607851666665,37.0,69.0
815,215.90335151666665,216.9885785,49.0,69.0
816,216.24426051666666,217.10647619583332,56.0,69.0
817,216.24426051666666,217.10647619583332,61.0,69.0
818,216.24426051666666,217.12068073749998,52.0,69.0
819,217.26698751666666,217.68744195,49.0,69.0
820,217.60789651666667,217.80818055416665,52.0,69.0
821,217.60789651666667,217.81244191666667,56.0,69.0
822,217.60789651666667,217.83516918333333,61.0,69.0
823,216.92607851666665,218.28971451666666,37.0,69.0
824,218.63062351666665,219.15619155833332,56.0,69.0
825,218.28971451666666,219.31244151666667,44.0,69.0
826,219.31244151666667,219.65335051666665,44.0,69.0
827,219.31244151666667,219.8522141,56.0,69.0
828,218.97153251666666,219.89056636249998,68.0,69.0
829,218.97153251666666,219.90619135833333,63.0,69.0
830,218.97153251666666,219.95590725416665,59.0,69.0
831,219.65335051666665,219.99425951666666,44.0,69.0
832,219.99425951666666,220.51698664999998,56.0,69.0
833,219.99425951666666,220.67607751666665,44.0,69.0
834,220.33516851666667,220.85505474166666,68.0,69.0
835,220.33516851666667,220.86357746666667,63.0,69.0
836,220.33516851666667,220.87210019166665,59.0,69.0
837,220.67607751666665,220.90192972916665,56.0,69.0
838,221.01698651666666,222.1064748625,68.0,69.0
839,221.01698651666666,222.1831793875,56.0,69.0
840,221.01698651666666,222.20732710833332,59.0,69.0
841,221.01698651666666,222.25420209583334,63.0,69.0
842,222.38062251666665,223.12494049999998,68.0,69.0
843,222.38062251666665,223.13914504166667,63.0,69.0
844,222.72153151666666,223.16471321666666,56.0,69.0
845,221.01698651666666,223.24709955833333,44.0,69.0
846,223.06244051666667,223.71016761666667,59.0,69.0
847,223.40334951666665,223.7712471458333,63.0,69.0
848,224.08516751666664,225.35221263333332,51.0,69.0
849,224.76698551666667,225.55675803333332,58.0,69.0
850,224.42607651666665,225.59653075,54.0,69.0
851,224.76698551666667,225.59937165833333,63.0,69.0
852,225.44880351666666,225.9843147375,51.0,69.0
853,223.74425851666666,226.07522380416665,39.0,69.0
854,225.78971251666667,226.16613287083334,58.0,69.0
855,225.78971251666667,226.42181462083332,63.0,69.0
856,226.13062151666665,226.4956782375,54.0,69.0
857,226.81243951666667,228.1831777875,49.0,69.0
858,228.17607551666666,228.1831777875,49.0,69.0
859,227.49425751666666,228.3309050208333,61.0,69.0
860,227.49425751666666,228.33942774583332,56.0,69.0
861,227.15334851666665,228.35363228749998,52.0,69.0
862,226.47153051666666,228.70164355833333,37.0,69.0
863,228.51698451666667,228.8394276125,61.0,69.0
864,228.51698451666667,229.0567571,52.0,69.0
865,228.51698451666667,229.21016615,56.0,69.0
866,228.85789351666665,229.21584796666664,61.0,69.0
867,229.19880251666666,233.28686960833332,44.0,69.0
868,229.53971151666667,233.28686960833332,56.0,69.0
869,229.88062051666665,233.28686960833332,59.0,69.0
870,230.22152951666666,233.28686960833332,63.0,70.0
871,230.22152951666666,233.28686960833332,68.0,70.0
