,start,end,pitch,velocity
0,14.923216772916666,15.173216814583334,65.0,82.0
1,15.137502522916666,15.442859716666666,77.0,83.0
2,15.566074022916666,15.898216935416666,77.0,85.0
3,15.994645522916667,16.305359860416665,75.0,83.0
4,16.423217022916667,16.69821706875,75.0,86.0
5,16.637502772916665,17.06250284375,72.0,77.0
6,17.280360022916668,17.596431504166667,72.0,80.0
7,17.708931522916668,18.13393159375,70.0,82.0
8,18.13750302291667,18.3535744875,68.0,68.0
9,18.351788772916667,18.90000315,72.0,80.0
10,18.994646022916665,20.280360522916666,70.0,80.0
11,21.994646522916668,22.335718008333334,72.0,83.0
12,22.423218022916668,22.562503760416668,72.0,79.0
13,22.637503772916666,23.144646714583335,70.0,82.0
14,23.280361022916665,23.691075377083333,70.0,82.0
15,23.708932522916665,24.082146870833334,67.0,77.0
16,24.137504022916666,24.328575483333335,68.0,74.0
17,24.351789772916668,24.930361297916665,70.0,78.0
18,24.994647022916666,25.455361385416666,68.0,77.0
19,25.423218522916667,26.70536159375,65.0,83.0
20,28.851790522916666,29.157147716666667,77.0,83.0
21,29.280362022916666,29.612504935416666,77.0,85.0
22,29.708933522916666,30.019647860416665,75.0,83.0
23,30.137505022916667,30.41250506875,75.0,86.0
24,30.351790772916665,30.77679084375,72.0,77.0
25,30.994648022916667,31.310719504166666,72.0,80.0
26,31.423219522916668,31.84821959375,70.0,82.0
27,31.851791022916668,32.0678624875,68.0,68.0
28,32.06607677291667,32.61429115,72.0,80.0
29,32.708934022916665,33.99464852291667,70.0,80.0
30,35.49464877291667,35.70536309375,63.0,83.0
31,35.708934522916664,36.050006008333334,72.0,83.0
32,36.13750602291667,36.276791760416664,72.0,79.0
33,36.35179177291667,36.858934714583334,70.0,82.0
34,36.99464902291667,37.20536334375,70.0,82.0
35,37.20893477291666,37.63393484375,68.0,77.0
36,38.280363522916666,38.644649297916665,70.0,78.0
37,38.70893502291667,38.91964934375,68.0,77.0
38,38.923220772916665,41.06250684375,65.0,83.0
39,42.137507022916665,42.323221339583334,68.0,78.0
40,42.35179277291667,42.601792814583334,65.0,86.0
41,42.56607852291667,43.225007204166666,72.0,82.0
42,43.20893577291667,45.13036466458333,70.0,78.0
43,45.56607902291667,45.75179333958334,68.0,78.0
44,45.78036477291667,46.030364814583336,65.0,86.0
45,45.994650522916665,46.65357920416667,72.0,82.0
46,46.63750777291666,48.34822234375,70.0,78.0
47,48.56607952291667,49.00893673958333,70.0,83.0
48,48.99465102291666,49.21786534583333,68.0,74.0
49,49.208936772916665,51.555365735416665,65.0,83.0
50,56.06608077291666,56.292866525,77.0,84.0
51,56.280366522916665,56.63036658125,84.0,85.0
52,56.70893802291667,57.071438083333334,84.0,88.0
53,57.137509522916666,57.44822386041667,82.0,84.0
54,57.56608102291667,57.887509647916666,82.0,85.0
55,57.99465252291667,58.43036688125,80.0,86.0
56,58.42322402291666,58.85000980833333,77.0,86.0
57,58.85179552291667,59.49108134375,84.0,87.0
58,59.494652772916666,61.32679593541667,82.0,83.0
59,61.42322452291667,62.07322463125,75.0,93.0
60,62.06608177291667,62.71608188125,87.0,88.0
61,62.70893902291667,64.44286788333334,84.0,83.0
62,64.85179652291667,65.50536806041667,75.0,93.0
63,65.49465377291666,66.14465388125,87.0,88.0
64,66.13751102291667,66.59108252708333,82.0,82.0
65,66.56608252291667,68.74108288541667,80.0,80.0
66,69.56608302291667,69.78929734583333,77.0,89.0
67,69.78036877291666,70.02322595625,80.0,76.0
68,69.99465452291666,70.38036887291666,84.0,85.0
69,70.42322602291667,70.70715464166666,82.0,81.0
70,70.85179752291667,71.3142976,82.0,83.0
71,71.28036902291667,71.46608333958334,80.0,79.0
72,71.49465477291666,72.66965496875,77.0,88.0
73,72.99465502291666,73.21965506041667,77.0,89.0
74,73.20894077291666,73.4571551,80.0,82.0
75,73.42322652291666,73.821440875,84.0,84.0
76,73.85179802291667,74.14465521458334,82.0,78.0
77,74.28036952291667,74.73572674166667,82.0,82.0
78,74.70894102291666,74.88929819583333,80.0,83.0
79,74.92322677291666,76.0178698125,75.0,89.0
80,75.99465552291667,76.40536987708333,80.0,82.0
81,76.42322702291666,79.41429895,77.0,86.0
82,83.49465677291667,83.721442525,77.0,84.0
83,83.70894252291667,84.05894258125,84.0,85.0
84,84.13751402291666,84.50001408333334,84.0,88.0
85,84.56608552291667,84.87679986041667,82.0,84.0
86,84.99465702291667,85.31608564791667,82.0,85.0
87,85.42322852291667,85.85894288125,80.0,86.0
88,85.85180002291666,86.27858580833333,77.0,86.0
89,86.28037152291667,86.91965734375,84.0,87.0
90,86.92322877291667,88.75537193541666,82.0,83.0
91,88.85180052291666,89.50180063125,75.0,93.0
92,89.49465777291667,90.14465788125,87.0,88.0
93,90.13751502291667,91.87144388333333,84.0,83.0
94,92.28037252291666,92.93394406041666,75.0,93.0
95,92.92322977291667,93.57322988125,87.0,88.0
96,93.56608702291666,94.01965852708334,82.0,82.0
97,93.99465852291667,96.16965888541667,80.0,80.0
98,96.99465902291666,97.21787334583334,77.0,89.0
99,97.20894477291667,97.45180195625,80.0,76.0
100,97.42323052291667,97.80894487291667,84.0,85.0
101,97.85180202291667,98.13573064166667,82.0,81.0
102,98.28037352291666,98.7428736,82.0,83.0
103,98.70894502291667,98.89465933958333,80.0,79.0
104,98.92323077291667,100.09823096875,77.0,88.0
105,100.42323102291667,100.64823106041666,77.0,89.0
106,100.63751677291667,100.8857311,80.0,82.0
107,100.85180252291667,101.250016875,84.0,84.0
108,101.28037402291666,101.57323121458333,82.0,78.0
109,101.70894552291666,102.16430274166667,82.0,82.0
110,102.13751702291667,102.31787419583334,80.0,83.0
111,102.35180277291667,103.4464458125,75.0,89.0
112,103.42323152291667,103.83394587708334,80.0,82.0
113,103.85180302291667,106.84287495,77.0,86.0
114,111.13751852291666,113.74109038541667,77.0,89.0
115,113.70894752291667,114.56251909375,84.0,82.0
116,114.56609052291667,117.13394809375,82.0,78.0
117,117.99466252291667,120.56252009375,82.0,83.0
118,120.99466302291667,121.41966309375,80.0,83.0
119,121.42323452291667,123.56252059375,75.0,83.0
120,124.85180652291666,125.08216370416666,84.0,85.0
121,125.06609227291666,125.29823516875,82.0,84.0
122,125.28037802291666,127.86073559583333,84.0,84.0
123,127.85180702291667,128.06073562916666,82.0,83.0
124,128.06609277291668,128.3035928125,80.0,78.0
125,128.28037852291666,130.65895034791666,77.0,85.0
126,131.49466477291668,131.76252196041668,75.0,84.0
127,131.70895052291667,134.70537959375,82.0,83.0
128,134.70895102291666,134.91966534375,80.0,77.0
129,134.92323677291668,135.13395109375,82.0,77.0
130,135.13752252291667,137.54645149583334,77.0,82.0
131,169.18148794583334,169.42710190416668,65.0,82.0
132,169.39201419583333,169.69270334375,77.0,83.0
133,169.81591765,170.1480605625,77.0,85.0
134,170.24448915,170.5552034875,75.0,83.0
135,170.67306065,170.94806069583333,75.0,86.0
136,170.88734639999998,171.31234647083332,72.0,77.0
137,171.53020365,171.84627513125,72.0,80.0
138,171.95877515,172.38377522083334,70.0,82.0
139,172.38734664999998,172.60341811458332,68.0,68.0
140,172.6016324,173.14984677708333,72.0,80.0
141,173.24448965,174.53020415,70.0,80.0
142,176.24449015,176.58556163541667,72.0,83.0
143,176.67306165,176.81234738749998,72.0,79.0
144,176.8873474,177.39449034166665,70.0,82.0
145,177.53020465,177.94091900416666,70.0,82.0
146,177.95877615,178.33199049791665,67.0,77.0
147,178.38734765,178.57841911041666,68.0,74.0
148,178.6016334,179.180204925,70.0,78.0
149,179.24449065,179.7052050125,68.0,77.0
150,179.67306215,180.95520522083334,65.0,83.0
151,183.10163415,183.40699134375,77.0,83.0
152,183.53020565,183.8623485625,77.0,85.0
153,183.95877715,184.2694914875,75.0,83.0
154,184.38734865,184.66234869583332,75.0,86.0
155,184.6016344,185.02663447083333,72.0,77.0
156,185.24449165,185.56056313125,72.0,80.0
157,185.67306315,186.09806322083332,70.0,82.0
158,186.10163465,186.31770611458333,68.0,68.0
159,186.31592039999998,186.86413477708334,72.0,80.0
160,186.95877765,188.24449214999999,70.0,80.0
161,189.74449239999998,189.95520672083333,63.0,83.0
162,189.95877815,190.29984963541665,72.0,83.0
163,190.38734965,190.5266353875,72.0,79.0
164,190.6016354,191.10877834166666,70.0,82.0
165,191.24449264999998,191.45520697083333,70.0,82.0
166,191.4587784,191.88377847083333,68.0,77.0
167,192.53020715,192.894492925,70.0,78.0
168,192.95877865,193.16949297083332,68.0,77.0
169,193.1730644,195.31235047083334,65.0,83.0
170,196.38735065,196.57306496666666,68.0,78.0
171,196.6016364,196.85163644166667,65.0,86.0
172,196.81592215,197.47485083125,72.0,82.0
173,197.4587794,199.38020829166666,70.0,78.0
174,199.81592265,200.00163696666667,68.0,78.0
175,200.0302084,200.28020844166667,65.0,86.0
176,200.24449415,200.90342283125,72.0,82.0
177,200.8873514,202.59806597083332,70.0,78.0
178,202.81592315,203.25878036666666,70.0,83.0
179,203.24449465,203.46770897291665,68.0,74.0
180,203.4587804,205.8052093625,65.0,83.0
181,210.3159244,210.54271015208332,77.0,84.0
182,210.53021015,210.88021020833332,84.0,85.0
183,210.95878165,211.32128171041666,84.0,88.0
184,211.38735315,211.6980674875,82.0,84.0
185,211.81592465,212.137353275,82.0,85.0
186,212.24449615,212.68021050833335,80.0,86.0
187,212.67306765,213.09985343541666,77.0,86.0
188,213.10163914999998,213.74092497083333,84.0,87.0
189,213.7444964,215.5766395625,82.0,83.0
190,215.67306815,216.32306825833334,75.0,93.0
191,216.3159254,216.96592550833333,87.0,88.0
192,216.95878265,218.69271151041667,84.0,83.0
193,219.10164014999998,219.75521168749998,75.0,93.0
194,219.7444974,220.39449750833333,87.0,88.0
195,220.38735465,220.84092615416665,82.0,82.0
196,220.81592615,222.99092651249998,80.0,80.0
197,223.81592665,224.03914097291667,77.0,89.0
198,224.03021239999998,224.27306958333332,80.0,76.0
199,224.24449815,224.6302125,84.0,85.0
200,224.67306965,224.95699826875,82.0,81.0
201,225.10164115,225.56414122708333,82.0,83.0
202,225.53021265,225.71592696666667,80.0,79.0
203,225.7444984,226.91949859583332,77.0,88.0
204,227.24449865,227.4694986875,77.0,89.0
205,227.4587844,227.70699872708332,80.0,82.0
206,227.67307015,228.07128450208333,84.0,84.0
207,228.10164165,228.39449884166666,82.0,78.0
208,228.53021315,228.98557036875,82.0,82.0
209,228.95878464999998,229.13914182291666,80.0,83.0
210,229.1730704,230.26771343958333,75.0,89.0
211,230.24449915,230.65521350416665,80.0,82.0
212,230.67307065,233.66414257708334,77.0,86.0
213,237.7445004,237.97128615208334,77.0,84.0
214,237.95878614999998,238.30878620833334,84.0,85.0
215,238.38735765,238.74985771041668,84.0,88.0
216,238.81592915,239.1266434875,82.0,84.0
217,239.24450065,239.565929275,82.0,85.0
218,239.67307215,240.1087865083333,80.0,86.0
219,240.10164365,240.52842943541668,77.0,86.0
220,240.53021515,241.16950097083333,84.0,87.0
221,241.1730724,243.00521556249998,82.0,83.0
222,243.10164415,243.75164425833333,75.0,93.0
223,243.7445014,244.39450150833335,87.0,88.0
224,244.38735865,246.12128751041666,84.0,83.0
225,246.53021615,247.1837876875,75.0,93.0
226,247.1730734,247.82307350833332,87.0,88.0
227,247.81593064999998,248.26950215416667,82.0,82.0
228,248.24450215000002,250.4195025125,80.0,80.0
229,251.24450265000002,251.46771697291666,77.0,89.0
230,251.4587884,251.70164558333335,80.0,76.0
231,251.67307415,252.0587885,84.0,85.0
232,252.10164565,252.38557426875,82.0,81.0
233,252.53021715,252.99271722708335,82.0,83.0
234,252.95878865,253.14450296666666,80.0,79.0
235,253.1730744,254.34807459583334,77.0,88.0
236,254.67307465,254.8980746875,77.0,89.0
237,254.88736039999998,255.13557472708334,80.0,82.0
238,255.10164615,255.49986050208332,84.0,84.0
239,255.53021765,255.82307484166665,82.0,78.0
240,255.95878915,256.41414636875,82.0,82.0
241,256.38736065,256.5677178229167,80.0,83.0
242,256.6016464,257.6962894395833,75.0,89.0
243,257.67307515,258.08378950416665,80.0,82.0
244,258.10164665,261.09271857708336,77.0,86.0
245,265.38736215,267.9909340125,77.0,89.0
246,267.95879115,268.81236272083333,84.0,82.0
247,268.81593415,271.3837917208333,82.0,78.0
248,272.24450615,274.81236372083333,82.0,83.0
249,275.24450665,275.66950672083334,80.0,83.0
250,275.67307815,277.81236422083333,75.0,83.0
251,279.10165015,279.33200733125,84.0,85.0
252,279.3159359,279.54807879583336,82.0,84.0
253,279.53022165,282.11057922291667,84.0,84.0
254,282.10165065,282.31057925625,82.0,83.0
255,282.3159364,282.5534364395833,80.0,78.0
256,282.53022215,284.908793975,77.0,85.0
257,285.7445084,286.01236558749997,75.0,84.0
258,285.95879415,288.9552232208333,82.0,83.0
259,289.38736615,289.794509075,80.0,75.0
260,289.76058049791664,292.06415231041666,77.0,79.0
