,start,end,pitch,velocity
0,1.264285925,7.412501235416666,53.0,72.0
1,1.38750023125,7.412501235416666,60.0,70.0
2,1.3535716541666667,7.464286958333333,56.0,65.0
3,1.1446430479166667,7.485715533333333,41.0,58.0
4,17.280360022916668,17.766074389583334,53.0,67.0
5,15.566074022916666,17.95000299166667,48.0,60.0
6,15.137502522916666,18.158931597916666,41.0,80.0
7,17.708931522916668,18.603574529166668,65.0,81.0
8,15.994645522916667,18.60893167291667,60.0,72.0
9,18.13750302291667,18.660717395833334,53.0,78.0
10,19.423217522916666,19.828574733333333,56.0,78.0
11,18.994646022916665,20.017860479166668,44.0,54.0
12,18.566074522916665,20.139289070833332,37.0,76.0
13,20.708932022916667,21.419646427083332,44.0,50.0
14,20.280360522916666,21.6107178875,37.0,63.0
15,21.566075022916667,22.021432241666666,53.0,78.0
16,21.137503522916667,22.2964322875,61.0,81.0
17,22.85178952291667,24.146432595833332,63.0,78.0
18,22.423218022916668,24.18750403125,58.0,65.0
19,24.137504022916666,24.705361260416666,51.0,75.0
20,21.994646522916668,24.946432729166666,39.0,82.0
21,24.994647022916666,25.316075647916666,51.0,82.0
22,24.566075522916666,25.701789997916666,63.0,78.0
23,25.851790022916667,26.42679011875,53.0,71.0
24,26.280361522916667,26.867861620833335,65.0,82.0
25,26.708933022916668,27.571433166666665,53.0,67.0
26,27.137504522916668,27.683933185416667,60.0,62.0
27,25.423218522916667,28.705361927083334,41.0,82.0
28,27.994647522916665,28.925004820833333,60.0,74.0
29,28.423219022916665,28.98750483125,53.0,74.0
30,29.280362022916666,29.767862104166667,60.0,71.0
31,30.137505022916667,30.735719408333335,53.0,76.0
32,29.708933522916666,30.939290870833332,65.0,84.0
33,28.851790522916666,31.742862433333332,41.0,82.0
34,31.423219522916668,32.250005375,60.0,79.0
35,31.851791022916668,32.62857686666667,53.0,83.0
36,32.708934022916665,33.07143408333334,56.0,68.0
37,32.28036252291667,33.89107707708333,37.0,79.0
38,33.13750552291667,34.3607200125,61.0,78.0
39,34.42322002291667,34.98572011666667,56.0,73.0
40,33.99464852291667,35.18214872083333,37.0,72.0
41,34.85179152291666,35.451791622916666,65.0,83.0
42,36.13750602291667,36.650006108333336,58.0,78.0
43,35.708934522916664,37.207149058333336,39.0,82.0
44,36.99464902291667,37.664291991666666,58.0,77.0
45,36.566077522916665,38.27500637916667,67.0,78.0
46,37.85179202291667,38.321434958333334,58.0,74.0
47,38.280363522916666,38.76250646041667,63.0,82.0
48,38.70893502291667,39.09107794375,58.0,81.0
49,39.56607802291666,40.08572096666666,60.0,78.0
50,39.13750652291667,40.67679249375,41.0,83.0
51,39.99464952291667,40.76607822291667,68.0,76.0
52,40.423221022916664,41.03036398125,60.0,72.0
53,41.280364022916665,41.76786410416667,60.0,68.0
54,41.70893552291667,42.23036418125,65.0,82.0
55,40.85179252291667,42.25000704166667,41.0,69.0
56,42.137507022916665,42.6000071,60.0,82.0
57,42.994650022916666,43.58036440625,56.0,76.0
58,43.85179302291667,44.546435995833335,56.0,54.0
59,43.42322152291667,44.76965031875,61.0,84.0
60,44.28036452291666,45.11607894791667,68.0,77.0
61,44.70893602291667,45.27143611666666,56.0,54.0
62,42.56607852291667,45.333936127083334,49.0,83.0
63,45.137507522916664,45.33750755625,61.0,84.0
64,46.42322202291667,46.996436404166666,58.0,75.0
65,46.851793522916665,47.494650772916664,67.0,74.0
66,47.28036502291667,47.7750079625,58.0,78.0
67,47.708936522916666,48.14465088125,63.0,83.0
68,48.13750802291667,48.41250806875,58.0,69.0
69,45.994650522916665,48.76607955625,51.0,82.0
70,48.56607952291667,48.89107957708333,58.0,74.0
71,48.56607952291667,49.405365377083335,63.0,73.0
72,49.42322252291667,50.38750839791667,65.0,80.0
73,50.708937022916665,51.21250853541667,53.0,73.0
74,51.13750852291667,51.641080035416664,65.0,82.0
75,50.28036552291667,51.65000860833333,60.0,76.0
76,51.566080022916665,52.110722970833336,53.0,75.0
77,49.851794022916664,52.650008775,48.0,60.0
78,49.42322252291667,52.68929449583333,41.0,80.0
79,51.99465152291667,53.332151745833336,60.0,83.0
80,52.423223022916666,53.61429465,53.0,82.0
81,54.13750902291667,54.628580533333334,53.0,74.0
82,53.70893752291666,54.73036626458333,60.0,75.0
83,54.99465202291667,55.508937822916664,53.0,70.0
84,53.28036602291667,56.162509360416664,48.0,72.0
85,52.85179452291667,56.17858079166667,41.0,83.0
86,55.423223522916665,56.194652222916666,60.0,82.0
87,55.85179502291667,56.210723654166664,53.0,84.0
88,54.566080522916664,56.232152229166665,65.0,83.0
89,56.27143795,56.535723708333336,61.0,89.0
90,56.70000945,56.889295195833334,61.0,78.0
91,56.9142952,57.04286665,56.0,49.0
92,57.12858095,57.364295275,65.0,87.0
93,57.55715245,57.6964381875,61.0,80.0
94,56.27143795,57.71608104791667,49.0,97.0
95,57.7714382,57.88572393333333,56.0,45.0
96,57.98572395,58.094652539583336,56.0,53.0
97,57.98572395,58.217866845833335,61.0,82.0
98,58.41429545,58.589295479166665,61.0,76.0
99,58.6285812,58.75536693541667,56.0,62.0
100,58.84286695,59.078581275,65.0,89.0
101,57.98572395,59.15536700208333,49.0,80.0
102,59.0571527,59.2392955875,56.0,62.0
103,59.27143845,59.376795610416664,61.0,60.0
104,59.70000995,59.958938564583335,58.0,57.0
105,59.70000995,59.958938564583335,63.0,64.0
106,60.12858145,60.30358147916667,63.0,82.0
107,60.3428672,60.54108151875,58.0,46.0
108,60.55715295,60.767867270833335,67.0,105.0
109,60.7714387,60.96786730416667,58.0,40.0
110,60.98572445,61.080367322916665,63.0,71.0
111,59.70000995,61.250010208333336,51.0,78.0
112,61.2000102,61.321438791666665,58.0,71.0
113,61.41429595,61.65715313333333,63.0,66.0
114,61.41429595,61.673224564583336,58.0,55.0
115,61.84286745,62.0571532,63.0,66.0
116,62.0571532,62.208938939583334,58.0,55.0
117,62.27143895,62.52143899166666,67.0,87.0
118,61.41429595,62.68572473333333,51.0,78.0
119,62.4857247,62.70358187916667,58.0,44.0
120,62.70001045,62.907153341666664,63.0,80.0
121,62.9142962,63.021439075,58.0,76.0
122,63.55715345,63.94465351458334,55.0,43.0
123,63.7714392,63.98929637916667,60.0,71.0
124,63.98572495,64.23572499166667,63.0,67.0
125,64.2000107,64.42679645208334,60.0,82.0
126,63.12858195,64.71965364375001,44.0,94.0
127,64.41429645,64.71965364375001,55.0,85.0
128,63.3428677,64.77679651041667,51.0,51.0
129,64.6285822,64.81608223125,60.0,82.0
130,65.0571537,65.36251089375,55.0,61.0
131,65.27143945,65.6892966625,58.0,71.0
132,65.70001095,65.92858241666667,63.0,92.0
133,65.9142967,66.14286816666667,58.0,78.0
134,66.12858245,66.38036820625,55.0,102.0
135,66.3428682,66.55715395,58.0,69.0
136,64.84286795,66.56608252291667,43.0,72.0
137,66.98572545,67.16072547916667,65.0,71.0
138,67.2000112,67.40893980625,60.0,62.0
139,67.41429695,67.59822555208333,68.0,87.0
140,66.55715395,68.06072562916667,53.0,100.0
141,67.84286845,68.14643992916666,65.0,60.0
142,68.0571542,68.35179710625,60.0,60.0
143,68.4857257,68.65894001458334,60.0,64.0
144,68.70001145,68.85536861875,65.0,40.0
145,68.91429720000001,69.10536866041667,60.0,58.0
146,69.12858295,69.43036871458334,68.0,71.0
147,69.3428687,69.55715445,60.0,66.0
148,69.55715445,69.76786877083333,65.0,52.0
149,69.7714402,69.83036878125,60.0,42.0
150,68.27143995,69.84822592708333,53.0,100.0
151,70.41429745,70.66965463541666,58.0,76.0
152,70.6285832,71.08215470416667,65.0,57.0
153,71.27144045,71.40715475833333,61.0,69.0
154,69.98572595,71.52322620625,46.0,92.0
155,70.2000117,71.5392976375,53.0,60.0
156,71.4857262,71.82501197083333,65.0,78.0
157,72.12858345,72.40001206666666,58.0,69.0
158,72.3428692,72.59644067083333,61.0,71.0
159,72.98572645,73.08036932291667,58.0,64.0
160,72.98572645,73.22679791875,61.0,80.0
161,71.70001195,73.24286935,46.0,94.0
162,71.9142977,73.25536935208333,53.0,69.0
163,73.2000122,73.37322651458334,58.0,76.0
164,73.62858370000001,73.94465518125,58.0,64.0
165,73.84286945,74.0892980625,63.0,32.0
166,74.0571552,74.7750124625,67.0,96.0
167,73.41429795,75.00179821458333,48.0,78.0
168,74.70001245,75.10358394583334,63.0,64.0
169,74.9142982,75.15179823958333,60.0,62.0
170,75.3428697,75.63572689166666,60.0,69.0
171,75.55715545,75.72858405,63.0,76.0
172,75.7714412,76.18215555416667,67.0,90.0
173,76.2000127,76.4678698875,63.0,73.0
174,75.12858395,76.83572709166667,48.0,92.0
175,76.41429845,76.8535842375,60.0,60.0
176,76.84286995,76.8535842375,60.0,52.0
177,76.84286995,77.07322713125,65.0,78.0
178,77.0571557,77.678584375,60.0,58.0
179,77.27144145,77.71787009583333,65.0,45.0
180,77.70001295,77.98037013958333,68.0,87.0
181,77.9142987,78.31787019583334,60.0,51.0
182,78.12858445,78.33037019791666,65.0,66.0
183,76.84286995,78.37144163333333,53.0,76.0
184,78.34287020000001,78.86429885833333,68.0,71.0
185,78.7714417,79.27322749791666,60.0,52.0
186,78.98572745,79.32858465,65.0,64.0
187,79.41429895,79.6607275625,60.0,64.0
188,78.55715595,80.05894191458333,53.0,66.0
189,79.84287045,80.45001340833333,60.0,44.0
190,79.41429895,80.74822774375,68.0,80.0
191,80.70001345,81.04822779375,60.0,67.0
192,80.9142992,81.05001350833334,65.0,69.0
193,81.12858495,81.47144215,68.0,84.0
194,81.3428707,81.71608504791666,60.0,37.0
195,81.55715645,81.72679933541667,65.0,38.0
196,80.27144195,81.83929935416667,53.0,76.0
197,81.7714422,82.221442275,68.0,62.0
198,82.2000137,82.54644232916667,60.0,57.0
199,82.41429945,82.60179948125,65.0,51.0
200,82.6285852,82.98929954583333,68.0,82.0
201,82.84287095,83.21965672708333,60.0,73.0
202,83.05715670000001,83.27501387916666,65.0,82.0
203,83.27144245,83.45537105208334,60.0,71.0
204,83.27144245,83.60894250625,68.0,100.0
205,81.98572795,83.67322823125,53.0,73.0
206,83.70001395,83.96429970833333,61.0,89.0
207,84.12858545,84.31787119583333,61.0,78.0
208,84.3428712,84.47144265,56.0,49.0
209,84.55715695,84.792871275,65.0,87.0
210,84.98572845,85.1250141875,61.0,80.0
211,83.70001395,85.14465704791667,49.0,97.0
212,85.2000142,85.31429993333333,56.0,45.0
213,85.41429995,85.52322853958333,56.0,53.0
214,85.41429995,85.64644284583333,61.0,82.0
215,85.84287145,86.01787147916667,61.0,76.0
216,86.0571572,86.18394293541667,56.0,62.0
217,86.27144295,86.507157275,65.0,89.0
218,85.41429995,86.58394300208333,49.0,80.0
219,86.4857287,86.6678715875,56.0,62.0
220,86.70001445,86.80537161041667,61.0,60.0
221,87.12858595,87.38751456458333,58.0,57.0
222,87.12858595,87.38751456458333,63.0,64.0
223,87.55715745,87.73215747916667,63.0,82.0
224,87.7714432,87.96965751875,58.0,46.0
225,87.98572895,88.19644327083333,67.0,105.0
226,88.2000147,88.39644330416667,58.0,40.0
227,88.41430045,88.50894332291666,63.0,71.0
228,87.12858595,88.67858620833333,51.0,78.0
229,88.6285862,88.75001479166667,58.0,71.0
230,88.84287195,89.08572913333333,63.0,66.0
231,88.84287195,89.10180056458333,58.0,55.0
232,89.27144345,89.4857292,63.0,66.0
233,89.4857292,89.63751493958334,58.0,55.0
234,89.70001495,89.95001499166666,67.0,87.0
235,88.84287195,90.11430073333334,51.0,78.0
236,89.9143007,90.13215787916667,58.0,44.0
237,90.12858645,90.33572934166666,63.0,80.0
238,90.3428722,90.450015075,58.0,76.0
239,90.98572945,91.37322951458333,55.0,43.0
240,91.2000152,91.41787237916667,60.0,71.0
241,91.41430095,91.66430099166666,63.0,67.0
242,91.6285867,91.85537245208333,60.0,82.0
243,90.55715795,92.14822964375,44.0,94.0
244,91.84287245,92.14822964375,55.0,85.0
245,90.7714437,92.20537251041667,51.0,51.0
246,92.0571582,92.24465823125,60.0,82.0
247,92.4857297,92.79108689375,55.0,61.0
248,92.70001545,93.1178726625,58.0,71.0
249,93.12858695,93.35715841666666,63.0,92.0
250,93.3428727,93.57144416666667,58.0,78.0
251,93.55715845,93.80894420625,55.0,102.0
252,93.7714442,93.98572995,58.0,69.0
253,92.27144395,93.99465852291667,43.0,72.0
254,94.41430145,94.58930147916666,65.0,71.0
255,94.6285872,94.83751580625,60.0,62.0
256,94.84287295,95.02680155208333,68.0,87.0
257,93.98572995,95.48930162916666,53.0,100.0
258,95.27144445,95.57501592916667,65.0,60.0
259,95.4857302,95.78037310625,60.0,60.0
260,95.9143017,96.08751601458333,60.0,64.0
261,96.12858745,96.28394461875,65.0,40.0
262,96.3428732,96.53394466041667,60.0,58.0
263,96.55715895,96.85894471458333,68.0,71.0
264,96.7714447,96.98573045,60.0,66.0
265,96.98573045,97.19644477083334,65.0,52.0
266,97.2000162,97.25894478125,60.0,42.0
267,95.70001595,97.27680192708334,53.0,100.0
268,97.84287345,98.09823063541667,58.0,76.0
269,98.0571592,98.51073070416666,65.0,57.0
270,98.70001645,98.83573075833333,61.0,69.0
271,97.41430195,98.95180220625,46.0,92.0
272,97.6285877,98.9678736375,53.0,60.0
273,98.9143022,99.25358797083334,65.0,78.0
274,99.55715945,99.82858806666667,58.0,69.0
275,99.7714452,100.02501667083334,61.0,71.0
276,100.41430245,100.50894532291667,58.0,64.0
277,100.41430245,100.65537391875,61.0,80.0
278,99.12858795,100.67144535,46.0,94.0
279,99.3428737,100.68394535208333,53.0,69.0
280,100.6285882,100.80180251458333,58.0,76.0
281,101.0571597,101.37323118125,58.0,64.0
282,101.27144545,101.5178740625,63.0,32.0
283,101.4857312,102.2035884625,67.0,96.0
284,100.84287395,102.43037421458334,48.0,78.0
285,102.12858845,102.53215994583333,63.0,64.0
286,102.3428742,102.58037423958334,60.0,62.0
287,102.7714457,103.06430289166667,60.0,69.0
288,102.98573145,103.15716005,63.0,76.0
289,103.2000172,103.61073155416666,67.0,90.0
290,103.6285887,103.8964458875,63.0,73.0
291,102.55715995,104.26430309166666,48.0,92.0
292,103.84287445,104.2821602375,60.0,60.0
293,104.27144595,104.2821602375,60.0,52.0
294,104.27144595,104.50180313125,65.0,78.0
295,104.4857317,105.107160375,60.0,58.0
296,104.70001745,105.14644609583334,65.0,45.0
297,105.12858895,105.40894613958334,68.0,87.0
298,105.3428747,105.74644619583333,60.0,51.0
299,105.55716045,105.75894619791667,65.0,66.0
300,104.27144595,105.80001763333334,53.0,76.0
301,105.7714462,106.29287485833333,68.0,71.0
302,106.2000177,106.70180349791667,60.0,52.0
303,106.41430345,106.75716065,65.0,64.0
304,106.84287495,107.0893035625,60.0,64.0
305,105.98573195,107.48751791458334,53.0,66.0
306,107.27144645,107.87858940833334,60.0,44.0
307,106.84287495,108.17680374375,68.0,80.0
308,108.12858945,108.47680379375,60.0,67.0
309,108.3428752,108.47858950833333,65.0,69.0
310,108.55716095,108.90001815,68.0,84.0
311,108.7714467,109.14466104791667,60.0,37.0
312,108.98573245,109.15537533541666,65.0,38.0
313,107.70001795,109.26787535416666,53.0,76.0
314,109.2000182,109.650018275,68.0,62.0
315,109.6285897,109.97501832916667,60.0,57.0
316,109.84287545,110.03037548125,65.0,51.0
317,110.0571612,110.41787554583334,68.0,82.0
318,110.27144695,110.64823272708334,60.0,73.0
319,110.4857327,110.70358987916667,65.0,82.0
320,110.70001845,110.88394705208333,60.0,71.0
321,110.70001845,111.03751850625,68.0,100.0
322,109.41430395,111.10180423125,53.0,73.0
323,113.28037602291667,113.76609038958334,53.0,67.0
324,111.56609002291667,113.95001899166667,48.0,60.0
325,111.13751852291666,114.15894759791667,41.0,80.0
326,113.70894752291667,114.60359052916667,65.0,81.0
327,111.99466152291667,114.60894767291667,60.0,72.0
328,114.13751902291666,114.66073339583333,53.0,78.0
329,115.42323352291666,115.82859073333333,56.0,78.0
330,114.99466202291667,116.01787647916667,44.0,54.0
331,114.56609052291667,116.13930507083333,37.0,76.0
332,116.70894802291667,117.41966242708334,44.0,50.0
333,116.28037652291667,117.6107338875,37.0,63.0
334,117.56609102291667,118.02144824166666,53.0,78.0
335,117.13751952291666,118.2964482875,61.0,81.0
336,118.85180552291666,120.14644859583333,63.0,78.0
337,118.42323402291667,120.18752003125,58.0,65.0
338,120.13752002291666,120.70537726041667,51.0,75.0
339,117.99466252291667,120.94644872916666,39.0,82.0
340,120.99466302291667,121.31609164791666,51.0,82.0
341,120.56609152291666,121.70180599791667,63.0,78.0
342,121.85180602291666,122.93752048958333,51.0,59.0
343,121.42323452291667,122.97323478125,44.0,80.0
344,122.28037752291667,123.17502052916667,63.0,76.0
345,123.56609202291666,124.35894929791667,51.0,73.0
346,123.13752052291667,124.37323501458333,44.0,86.0
347,123.99466352291667,124.69644935416666,63.0,76.0
348,124.42323502291667,124.70002078333333,56.0,69.0
349,125.28037802291666,125.76787810416667,60.0,71.0
350,126.13752102291667,126.73573540833334,53.0,76.0
351,125.70894952291667,126.93930687083333,65.0,84.0
352,124.85180652291666,127.74287843333333,41.0,82.0
353,127.42323552291667,128.250021375,60.0,79.0
354,127.85180702291667,128.62859286666668,53.0,83.0
355,128.70895002291667,129.07145008333333,56.0,68.0
356,128.28037852291666,129.89109307708333,37.0,79.0
357,129.13752152291667,130.3607360125,61.0,78.0
358,130.42323602291665,130.98573611666666,56.0,73.0
359,129.99466452291668,131.18216472083333,37.0,72.0
360,130.85180752291666,131.45180762291668,65.0,83.0
361,132.13752202291667,132.65002210833333,58.0,78.0
362,131.70895052291667,133.20716505833335,39.0,82.0
363,132.99466502291668,133.66430799166667,58.0,77.0
364,132.56609352291667,134.27502237916667,67.0,78.0
365,133.85180802291666,134.32145095833334,58.0,74.0
366,134.28037952291666,134.76252246041668,63.0,82.0
367,134.70895102291666,135.09109394375,58.0,81.0
368,135.56609402291667,136.08573696666667,60.0,78.0
369,135.13752252291667,136.67680849375,41.0,83.0
370,135.99466552291668,136.76609422291668,68.0,76.0
371,136.42323702291668,137.03037998125,60.0,72.0
372,137.28038002291666,137.76788010416666,60.0,68.0
373,137.70895152291666,138.23038018125,65.0,82.0
374,136.85180852291666,138.25002304166668,41.0,69.0
375,138.13752302291667,138.6000231,60.0,82.0
376,138.99466602291668,139.51430896666668,60.0,78.0
377,138.56609452291667,140.10538049375,41.0,83.0
378,139.42323752291668,140.19466622291668,68.0,76.0
379,139.85180902291665,140.45895198125,60.0,72.0
380,140.70895202291666,141.19645210416667,60.0,68.0
381,141.13752352291667,141.65895218125,65.0,82.0
382,140.28038052291666,141.67859504166665,41.0,69.0
383,141.56609502291667,142.0285951,60.0,82.0
384,141.99466652291667,144.61430981666666,41.0,83.0
385,142.42323802291668,144.62502410416667,48.0,77.0
386,142.85180952291665,144.62502410416667,53.0,84.0
387,143.28038102291666,144.71609554791667,60.0,79.0
388,143.70895252291666,144.92680986875,65.0,82.0
389,146.70895302291666,147.18038167291667,63.0,83.0
390,146.28038152291666,147.22145310833332,60.0,83.0
391,145.85181002291668,147.45538171875,55.0,62.0
392,147.13752452291666,148.02323895625,67.0,71.0
393,145.42323852291668,148.18038183958333,48.0,82.0
394,147.99466752291667,148.45895331458334,63.0,83.0
395,148.42323902291668,148.92145339166666,60.0,71.0
396,148.85181052291668,149.84466783125,65.0,83.0
397,149.70895352291666,150.65002510833332,53.0,78.0
398,150.13752502291666,151.20895377291666,60.0,77.0
399,148.85181052291668,151.70716814166667,41.0,85.0
400,149.28038202291665,151.71073957083334,48.0,66.0
401,150.99466802291667,151.76252529375,53.0,68.0
402,151.42323952291667,151.78038243958332,60.0,72.0
403,150.56609652291667,152.27502537916666,65.0,81.0
404,152.70895402291666,153.30716840833333,55.0,70.0
405,153.13752552291666,154.06609710625,60.0,83.0
406,153.56609702291667,154.13752568958333,55.0,64.0
407,154.42324002291667,154.80181151458333,55.0,55.0
408,153.99466852291667,154.88931152916666,67.0,83.0
409,152.28038252291665,154.98395440208333,48.0,84.0
410,154.85181152291668,155.02324012291666,60.0,75.0
411,155.70895452291666,156.59645467083334,61.0,76.0
412,156.56609752291666,157.50359767916666,56.0,84.0
413,156.99466902291667,157.59109769375,61.0,91.0
414,157.42324052291667,158.32681210208332,65.0,77.0
415,156.13752602291666,158.49466927291667,44.0,58.0
416,155.70895452291666,158.55895499791666,37.0,77.0
417,158.28038352291668,158.56966928541667,61.0,74.0
418,159.13752652291666,159.98931237916668,63.0,75.0
419,159.99466952291667,160.87145538333334,58.0,83.0
420,160.42324102291667,160.94466968125,63.0,83.0
421,160.85181252291667,161.80181268125,67.0,73.0
422,159.56609802291666,161.83752697291666,46.0,63.0
423,159.13752652291666,161.84466983125,39.0,84.0
424,161.28038402291668,161.88752698125,58.0,72.0
425,161.70895552291665,162.18395560208333,63.0,79.0
426,162.99467002291667,163.49109867708333,55.0,75.0
427,162.56609852291666,163.49645582083335,63.0,82.0
428,163.85181302291667,164.38574168333332,55.0,78.0
429,163.42324152291667,164.80538461041667,60.0,82.0
430,164.28038452291668,165.21788467916667,67.0,74.0
431,162.56609852291666,165.50717044166666,48.0,82.0
432,164.70895602291668,165.65895618125,55.0,65.0
433,165.13752752291666,165.68931332916668,60.0,82.0
434,165.99467052291666,166.85002780833332,67.0,72.0
435,166.85181352291667,167.73510902916667,60.0,84.0
436,166.42324202291667,168.06920759166667,55.0,75.0
437,165.99467052291666,169.17973356041668,48.0,83.0
438,168.54990919583332,169.20078618541666,55.0,58.0
439,167.27943517916668,169.2306107375,67.0,70.0
440,168.12885669583332,169.24289143541665,60.0,73.0
441,167.7049671791667,169.26569844583332,72.0,75.0
442,169.81591765,170.38734631666665,48.0,75.0
443,170.24448915,170.79806067083334,60.0,96.0
444,169.39201419583333,170.97127498541667,41.0,86.0
445,170.67306065,171.00341784791667,48.0,69.0
446,170.88734639999998,171.29627503958332,53.0,78.0
447,171.3159179,172.31413235208333,48.0,63.0
448,171.53020365,172.35698950208334,53.0,76.0
449,171.10163215,172.36056093125,41.0,74.0
450,172.38734664999998,172.72484670625,53.0,82.0
451,171.95877515,172.8266324375,60.0,77.0
452,171.95877515,172.93913245625,65.0,83.0
453,173.24448965,173.780204025,56.0,70.0
454,173.67306115,174.20341838125,63.0,78.0
455,174.10163265,174.61591845,56.0,76.0
456,172.81591815,175.15341853958333,49.0,83.0
457,174.53020415,175.44627573124998,65.0,80.0
458,174.95877565,175.50520431249998,56.0,72.0
459,175.38734714999998,175.72484720625,61.0,78.0
460,175.6016329,175.89449009166665,49.0,83.0
461,175.81591865,176.27841872708333,56.0,83.0
462,176.0302044,176.3409187375,61.0,75.0
463,176.24449015,177.54270465208333,63.0,82.0
464,177.10163315,178.01056187291667,51.0,79.0
465,176.67306165,178.1409190375,46.0,64.0
466,177.53020465,178.69627627291666,58.0,81.0
467,178.6016334,178.83556201041665,51.0,74.0
468,178.38734765,178.89091916249998,46.0,57.0
469,176.24449015,179.03556204375,39.0,85.0
470,179.24449065,179.56234784583333,51.0,81.0
471,178.81591914999998,179.59091927916666,58.0,80.0
472,177.95877615,179.70341929791667,63.0,82.0
473,180.95877665,181.4302053,53.0,73.0
474,180.10163365,181.59984818541668,48.0,68.0
475,181.38734815,182.18199113958332,65.0,81.0
476,180.53020515,182.19449114166667,60.0,77.0
477,182.24449115,182.45520547083333,55.0,70.0
478,182.4587769,182.71234837083333,56.0,78.0
479,181.81591964999998,183.00877699166665,48.0,59.0
480,182.67306265,183.10163415,53.0,84.0
481,179.67306215,183.13556272708334,41.0,76.0
482,183.10163415,183.13556272708334,41.0,86.0
483,183.53020565,184.10163431666666,48.0,75.0
484,183.95877715,184.51234867083332,60.0,96.0
485,184.38734865,184.71770584791668,48.0,69.0
486,184.6016344,185.01056303958333,53.0,78.0
487,185.0302059,186.02842035208334,48.0,63.0
488,185.24449165,186.07127750208332,53.0,76.0
489,184.81592015,186.07484893125,41.0,74.0
490,186.10163465,186.43913470625,53.0,82.0
491,185.67306315,186.5409204375,60.0,77.0
492,185.67306315,186.65342045625,65.0,83.0
493,186.95877765,187.494492025,56.0,70.0
494,187.38734915,187.91770638124999,63.0,78.0
495,187.81592065,188.33020645,56.0,76.0
496,186.53020615,188.86770653958334,49.0,83.0
497,188.24449214999999,189.16056373125,65.0,80.0
498,188.67306365,189.2194923125,56.0,72.0
499,189.10163515,189.43913520625,61.0,78.0
500,189.3159209,189.60877809166666,49.0,83.0
501,189.53020665,189.99270672708332,56.0,83.0
502,189.74449239999998,190.0552067375,61.0,75.0
503,189.95877815,191.25699265208334,63.0,82.0
504,190.81592115,191.72484987291665,51.0,79.0
505,190.38734965,191.8552070375,46.0,64.0
506,191.24449264999998,192.41056427291667,58.0,81.0
507,192.3159214,192.54985001041666,51.0,74.0
508,192.10163565,192.6052071625,46.0,57.0
509,189.95877815,192.74985004375,39.0,85.0
510,192.95877865,193.27663584583334,51.0,81.0
511,192.53020715,193.30520727916667,58.0,80.0
512,191.67306415,193.41770729791665,63.0,82.0
513,194.67306465,195.1444933,53.0,73.0
514,193.81592165,195.31413618541666,48.0,68.0
515,195.10163615,195.89627913958333,65.0,81.0
516,194.24449314999998,195.90877914166666,60.0,77.0
517,195.95877915,196.16949347083334,55.0,70.0
518,196.17306489999999,196.42663637083334,56.0,78.0
519,195.53020765,196.72306499166666,48.0,59.0
520,196.38735065,196.81592215,53.0,84.0
521,193.38735015,196.84985072708332,41.0,76.0
522,196.81592215,197.39270796041666,61.0,82.0
523,197.24449364999998,197.72485087291665,56.0,72.0
524,198.10163665,198.66592245833334,56.0,77.0
525,197.67306514999999,198.70699389375,65.0,83.0
526,198.53020815,198.98735108333332,61.0,76.0
527,198.95877965,199.35699400208333,56.0,67.0
528,196.81592215,199.61592261666667,37.0,81.0
529,199.38735115,199.87663694583333,65.0,84.0
530,199.38735115,199.89985123541666,61.0,78.0
531,199.81592265,200.28556558541666,56.0,83.0
532,200.24449415,201.04449428333334,63.0,78.0
533,201.10163715,201.89628013958333,58.0,84.0
534,201.53020865,202.00878015833334,63.0,82.0
535,202.38735165,202.92663745416667,58.0,78.0
536,202.81592315,203.60342328125,63.0,83.0
537,200.67306565,203.61413756874998,46.0,67.0
538,200.24449415,203.61770899791668,39.0,84.0
539,201.95878015,203.62842328541666,67.0,84.0
540,203.24449465,203.64628043125,58.0,75.0
541,203.67306615,206.29270944375,41.0,83.0
542,204.10163765,206.30342373125,48.0,77.0
543,204.53020915,206.30342373125,53.0,84.0
544,204.95878065,206.394495175,60.0,79.0
545,205.38735215,206.60520949583332,65.0,82.0
546,208.38735265,208.8587813,63.0,83.0
547,207.95878115,208.89985273541666,60.0,83.0
548,207.53020965,209.1337813458333,55.0,62.0
549,208.81592415,209.70163858333333,67.0,71.0
550,207.10163814999999,209.85878146666667,48.0,82.0
551,209.67306715,210.13735294166668,63.0,83.0
552,210.10163864999998,210.59985301875,60.0,71.0
553,210.95878165,211.237353125,56.0,82.0
554,211.17306739999998,211.81235322083333,65.0,88.0
555,210.7444959,211.98913896458333,44.0,73.0
556,210.53021015,212.02128182708333,37.0,84.0
557,211.81592465,212.05878183333334,61.0,75.0
558,211.6016389,212.18199613958333,56.0,76.0
559,212.0302104,212.37485331458333,65.0,82.0
560,212.4587819,212.9194962625,56.0,77.0
561,212.8873534,213.18735345,61.0,77.0
562,213.10163914999998,213.41771063125,56.0,82.0
563,212.4587819,213.4248534895833,44.0,71.0
564,212.24449615,213.51413921875,37.0,80.0
565,213.10163914999998,213.56949637083332,68.0,82.0
566,213.53021065,213.70521067916667,61.0,78.0
567,214.38735365,215.0302109,58.0,80.0
568,214.6016394,215.06235376249998,67.0,83.0
569,215.0302109,215.29092522916665,63.0,79.0
570,214.1730679,215.44985382708333,46.0,67.0
571,213.95878215,215.48556811875,39.0,86.0
572,215.24449665,215.79806817083335,58.0,83.0
573,215.4587824,215.89092532916666,67.0,84.0
574,216.10163964999998,216.72128261041667,58.0,76.0
575,216.3159254,216.78199690625,63.0,84.0
576,215.8873539,216.86949692083334,46.0,69.0
577,215.67306815,216.90342549791666,39.0,85.0
578,216.7444969,216.96056836458334,67.0,84.0
579,216.95878265,217.09092552916667,58.0,83.0
580,217.81592565,218.13199713125,56.0,84.0
581,218.03021139999998,218.49449719166665,63.0,80.0
582,217.38735415,218.86949725416667,44.0,84.0
583,217.6016399,218.8766401125,51.0,76.0
584,218.4587829,218.92306869166666,68.0,83.0
585,218.67306865,218.9730687,56.0,84.0
586,219.10164014999998,219.208783025,56.0,49.0
587,218.8873544,219.48914021458333,63.0,83.0
588,219.10164014999998,219.68199738958333,44.0,85.0
589,219.53021165,219.80164026666665,56.0,84.0
590,219.3159259,219.980211725,51.0,74.0
591,219.7444974,220.23199748125,63.0,82.0
592,220.1730689,220.63735469166667,51.0,82.0
593,220.38735465,220.66235469583333,58.0,88.0
594,219.95878315,220.68735470000001,43.0,85.0
595,220.6016404,221.18914049791667,63.0,84.0
596,221.24449765,221.58021199166666,53.0,82.0
597,221.4587834,222.06056921458332,63.0,82.0
598,220.81592615,222.37485498125,41.0,88.0
599,221.03021189999998,222.37485498125,48.0,69.0
600,222.10164065,222.69806932083333,53.0,83.0
601,222.95878365,223.408783725,53.0,83.0
602,222.7444979,223.64092662083334,48.0,77.0
603,222.3159264,223.6766409125,65.0,83.0
604,223.1730694,223.68199805625,60.0,73.0
605,222.53021215,223.8266409375,41.0,84.0
606,223.6016409,223.88021237499999,53.0,85.0
607,223.81592665,224.07306955,60.0,78.0
608,224.03021239999998,224.3534267395833,65.0,84.0
609,224.67306965,225.3159269,58.0,82.0
610,224.8873554,225.48556978541666,65.0,85.0
611,225.53021265,225.71414125208332,61.0,78.0
612,224.24449815,225.76949840416665,46.0,87.0
613,224.45878390000001,225.79985555208333,53.0,75.0
614,225.7444984,226.3337842125,65.0,87.0
615,226.38735565,227.03914147291667,58.0,83.0
616,226.6016414,227.2016415,70.0,82.0
617,226.1730699,227.21414150208332,53.0,82.0
618,225.95878414999999,227.24449865,46.0,84.0
619,227.03021289999998,227.3373558083333,65.0,81.0
620,227.4587844,227.50878440833333,65.0,63.0
621,227.24449865,227.58021299166666,58.0,82.0
622,227.4587844,227.694498725,61.0,78.0
623,228.10164165,228.36771312291665,60.0,85.0
624,228.3159274,228.99985608541667,67.0,82.0
625,228.7444989,229.05342752291665,60.0,81.0
626,228.95878464999998,229.21771326458332,63.0,82.0
627,227.67307015,229.29628470625,48.0,87.0
628,228.53021315,229.34271328541666,55.0,76.0
629,229.1730704,230.09807055416667,67.0,82.0
630,229.6016419,230.12307055833332,55.0,69.0
631,229.81592765,230.39628488958334,60.0,77.0
632,230.4587849,230.63735635833334,55.0,71.0
633,230.03021339999998,230.66949922083333,63.0,85.0
634,229.38735615,230.78378495416666,48.0,83.0
635,230.67307065,231.08378500416666,60.0,78.0
636,230.8873564,231.13735644166667,63.0,77.0
637,231.10164215,231.78378512083333,65.0,83.0
638,231.53021365,231.80164226666665,53.0,88.0
639,232.1730709,232.38914236458334,53.0,77.0
640,231.3159279,232.59449954166666,48.0,71.0
641,231.10164215,232.64271383541666,41.0,84.0
642,232.6016424,232.99092817916667,53.0,75.0
643,232.38735665,233.05878533333333,65.0,80.0
644,231.7444994,233.16057106458334,60.0,78.0
645,233.24449965,233.5444997,53.0,65.0
646,233.0302139,234.33199983125002,48.0,68.0
647,232.81592815,234.34271411875,41.0,77.0
648,234.3159284,234.70342846458334,53.0,79.0
649,233.4587854,234.73914275624998,60.0,70.0
650,234.10164265,234.7766427625,65.0,82.0
651,234.95878564999998,235.29985713541666,53.0,73.0
652,234.7444999,236.06771440625,48.0,68.0
653,234.53021415,236.11057155625,41.0,84.0
654,235.81592865,236.17842871041665,53.0,75.0
655,235.1730714,236.38557160208333,60.0,72.0
656,235.81592865,236.50164304999998,65.0,79.0
657,236.67307165,237.17128601874998,53.0,71.0
658,236.4587859,237.4337860625,48.0,68.0
659,236.24450015,237.45521463749998,41.0,76.0
660,236.88735739999998,237.54628608125,65.0,82.0
661,238.38735765,238.665929125,56.0,82.0
662,238.6016434,239.24092922083332,65.0,88.0
663,238.1730719,239.41771496458333,44.0,73.0
664,237.95878614999998,239.44985782708335,37.0,84.0
665,239.24450065,239.48735783333333,61.0,75.0
666,239.03021489999998,239.61057213958333,56.0,76.0
667,239.4587864,239.80342931458333,65.0,82.0
668,239.88735789999998,240.3480722625,56.0,77.0
669,240.31592940000002,240.61592945,61.0,77.0
670,240.53021515,240.84628663125,56.0,82.0
671,239.88735789999998,240.85342948958333,44.0,71.0
672,239.67307215,240.94271521874998,37.0,80.0
673,240.53021515,240.9980723708333,68.0,82.0
674,240.95878664999998,241.13378667916666,61.0,78.0
675,241.81592965,242.4587869,58.0,80.0
676,242.0302154,242.4909297625,67.0,83.0
677,242.4587869,242.71950122916667,63.0,79.0
678,241.6016439,242.87842982708332,46.0,67.0
679,241.38735815,242.91414411875002,39.0,86.0
680,242.67307265,243.2266441708333,58.0,83.0
681,242.88735839999998,243.31950132916666,67.0,84.0
682,243.53021565,244.14985861041666,58.0,76.0
683,243.7445014,244.21057290624998,63.0,84.0
684,243.31592990000001,244.29807292083333,46.0,69.0
685,243.10164415,244.33200149791668,39.0,85.0
686,244.1730729,244.38914436458333,67.0,84.0
687,244.38735865,244.51950152916666,58.0,83.0
688,245.24450165000002,245.56057313125,56.0,84.0
689,245.4587874,245.92307319166667,63.0,80.0
690,244.81593014999999,246.29807325416667,44.0,84.0
691,245.0302159,246.30521611249998,51.0,76.0
692,245.88735889999998,246.35164469166665,68.0,83.0
693,246.10164465,246.4016447,56.0,84.0
694,246.53021615,246.637359025,56.0,49.0
695,246.3159304,246.91771621458332,63.0,83.0
696,246.53021615,247.11057338958335,44.0,85.0
697,246.95878764999998,247.23021626666667,56.0,84.0
698,246.7445019,247.408787725,51.0,74.0
699,247.1730734,247.66057348125,63.0,82.0
700,247.6016449,248.06593069166667,51.0,82.0
701,247.81593064999998,248.09093069583332,58.0,88.0
702,247.38735915,248.11593069999998,43.0,85.0
703,248.0302164,248.61771649791666,63.0,84.0
704,248.67307365,249.00878799166668,53.0,82.0
705,248.88735939999998,249.48914521458335,63.0,82.0
706,248.24450215000002,249.80343098125002,41.0,88.0
707,248.4587879,249.80343098125002,48.0,69.0
708,249.53021665,250.12664532083335,53.0,83.0
709,250.38735965,250.837359725,53.0,83.0
710,250.1730739,251.06950262083333,48.0,77.0
711,249.7445024,251.1052169125,65.0,83.0
712,250.6016454,251.11057405625002,60.0,73.0
713,249.95878815,251.2552169375,41.0,84.0
714,251.0302169,251.308788375,53.0,85.0
715,251.24450265000002,251.50164554999998,60.0,78.0
716,251.4587884,251.78200273958333,65.0,84.0
717,252.10164565,252.7445029,58.0,82.0
718,252.3159314,252.91414578541668,65.0,85.0
719,252.95878865,253.14271725208334,61.0,78.0
720,251.67307415,253.19807440416668,46.0,87.0
721,251.88735989999998,253.22843155208335,53.0,75.0
722,253.1730744,253.7623602125,65.0,87.0
723,253.81593164999998,254.46771747291666,58.0,83.0
724,254.0302174,254.63021750000001,70.0,82.0
725,253.6016459,254.64271750208331,53.0,82.0
726,253.38736015,254.67307465,46.0,84.0
727,254.4587889,254.76593180833333,65.0,81.0
728,254.88736039999998,254.93736040833335,65.0,63.0
729,254.67307465,255.00878899166668,58.0,82.0
730,254.88736039999998,255.12307472499998,61.0,78.0
731,255.53021765,255.79628912291668,60.0,85.0
732,255.74450339999999,256.42843208541666,67.0,82.0
733,256.1730749,256.48200352291667,60.0,81.0
734,256.38736065,256.64628926458334,63.0,82.0
735,255.10164615,256.72486070625,48.0,87.0
736,255.95878915,256.77128928541663,55.0,76.0
737,256.6016464,257.52664655416663,67.0,82.0
738,257.0302179,257.55164655833335,55.0,69.0
739,257.24450365,257.8248608895833,60.0,77.0
740,257.8873609,258.0659323583333,55.0,71.0
741,257.4587894,258.0980752208333,63.0,85.0
742,256.81593215,258.2123609541667,48.0,83.0
743,258.10164665,258.5123610041667,60.0,78.0
744,258.3159324,258.56593244166663,63.0,77.0
745,258.53021815,259.21236112083335,65.0,83.0
746,258.95878964999997,259.23021826666667,53.0,88.0
747,259.6016469,259.81771836458336,53.0,77.0
748,258.7445039,260.0230755416667,48.0,71.0
749,258.53021815,260.0712898354167,41.0,84.0
750,260.03021839999997,260.41950417916667,53.0,75.0
751,259.81593265,260.4873613333333,65.0,80.0
752,259.1730754,260.58914706458336,60.0,78.0
753,260.67307565,260.9730757,53.0,65.0
754,260.4587899,261.76057583125,48.0,68.0
755,260.24450415,261.77129011875,41.0,77.0
756,261.7445044,262.13200446458336,53.0,79.0
757,260.88736140000003,262.16771875625,60.0,70.0
758,261.53021865,262.2052187625,65.0,82.0
759,262.38736165,262.72843313541665,53.0,73.0
760,262.1730759,263.49629040625,48.0,68.0
761,261.95879015,263.53914755625,41.0,84.0
762,263.24450465,263.6070047104167,53.0,75.0
763,262.6016474,263.8141476020833,60.0,72.0
764,263.24450465,263.93021905,65.0,79.0
765,264.10164765,264.59986201875,53.0,71.0
766,263.8873619,264.8623620625,48.0,68.0
767,263.67307615,264.8837906375,41.0,76.0
768,264.3159334,264.97486208124997,65.0,82.0
769,267.53021965,268.0159340166667,53.0,67.0
770,265.81593365,268.19986261875,48.0,60.0
771,265.38736215,268.408791225,41.0,80.0
772,267.95879115,268.85343415625,65.0,81.0
773,266.24450515,268.8587913,60.0,72.0
774,268.38736265,268.91057702291664,53.0,78.0
775,269.67307715,270.0784343604167,56.0,78.0
776,269.24450565,270.26772010625,44.0,54.0
777,268.81593415,270.38914869791665,37.0,76.0
778,270.95879164999997,271.6695060541667,44.0,50.0
779,270.53022015,271.8605775145833,37.0,63.0
780,271.81593465000003,272.27129186875,53.0,78.0
781,271.38736315,272.5462919145833,61.0,81.0
782,273.10164915,274.39629222291666,63.0,78.0
783,272.67307765,274.4373636583333,58.0,65.0
784,274.38736365,274.9552208875,51.0,75.0
785,272.24450615,275.19629235625,39.0,82.0
786,275.24450665,275.565935275,51.0,82.0
787,274.81593515,275.951649625,63.0,78.0
788,276.10164965,277.1873641166667,51.0,59.0
789,275.67307815,277.2230784083333,44.0,80.0
790,276.53022115,277.42486415625,63.0,76.0
791,277.81593565000003,278.608792925,51.0,73.0
792,277.38736415,278.62307864166667,44.0,86.0
793,278.24450715,278.94629298125,63.0,76.0
794,278.67307865,278.9498644104167,56.0,69.0
795,279.53022165,280.01772173125,60.0,71.0
796,280.38736465,280.98557903541666,53.0,76.0
797,279.95879315,281.18915049791667,65.0,84.0
798,279.10165015,281.99272206041667,41.0,82.0
799,281.67307915,282.4998650020833,60.0,79.0
800,282.10165065,282.87843649375,53.0,83.0
801,282.95879364999996,283.3212937104167,56.0,68.0
802,282.53022215,284.1409367041667,37.0,79.0
803,283.38736515,284.6105796395833,61.0,78.0
804,284.67307965,285.23557974375,56.0,73.0
805,284.24450815,285.4320083479167,37.0,72.0
806,285.10165115,285.70165125,65.0,83.0
807,286.38736565,286.89986573541665,58.0,78.0
808,285.95879415,287.45700868541667,39.0,82.0
809,287.24450865,287.91415161875,58.0,77.0
810,286.81593714999997,288.52486600625,67.0,78.0
811,288.10165165,288.5712945854167,58.0,74.0
812,288.53022315,289.0123660875,63.0,82.0
813,288.95879465,289.3409375708333,58.0,81.0
814,290.02129482708335,290.7498663770833,60.0,78.0
815,290.694509225,290.84272353541667,53.0,82.0
816,290.3962948895833,290.9123664041667,65.0,82.0
817,291.165937875,291.49450935833335,68.0,61.0
818,291.6587951,291.79272369374996,72.0,85.0
819,292.32665235416664,292.3980809375,68.0,36.0
820,292.39093807916663,292.51415238541665,77.0,83.0
821,292.84272386875,292.9302238833333,79.0,83.0
822,293.53736684166665,293.63379542916664,82.0,76.0
823,294.037366925,294.17486694791666,84.0,68.0
824,295.17843854374996,295.3105814229167,84.0,55.0
825,295.28200998958334,295.39808143749997,91.0,78.0
826,289.7195090625,296.14986727708333,48.0,73.0
827,289.3909375791667,296.2123672875,41.0,86.0
