,start,end,pitch,velocity
0,2.946804483333333,3.094410664583333,61.0,112.0
1,2.946804483333333,3.121006372916667,57.0,97.0
2,2.946804483333333,3.1223361583333333,66.0,96.0
3,3.5851014833333332,3.7154204541666664,57.0,90.0
4,3.5851014833333332,3.7167502395833334,61.0,112.0
5,3.5851014833333332,3.7287183083333333,66.0,92.0
6,2.946804483333333,4.1489305,42.0,107.0
7,2.946804483333333,4.15291985625,54.0,100.0
8,4.223398483333333,4.305845179166667,42.0,95.0
9,4.223398483333333,4.321802604166667,54.0,95.0
10,4.063824233333333,4.46408964375,57.0,77.0
11,4.063824233333333,4.489355566666666,61.0,96.0
12,4.063824233333333,4.505312991666667,66.0,82.0
13,4.542546983333334,4.976057029166666,42.0,107.0
14,4.542546983333334,5.019939947916667,54.0,107.0
15,4.8616954833333335,5.192812052083333,66.0,122.0
16,4.8616954833333335,5.2619608937499995,61.0,127.0
17,5.180843983333333,5.404247933333333,57.0,82.0
18,5.499992483333333,5.990683302083333,57.0,99.0
19,5.499992483333333,5.997332229166666,64.0,95.0
20,5.499992483333333,5.998662014583333,61.0,112.0
21,6.138289483333334,6.445469914583334,57.0,99.0
22,6.138289483333334,6.4547784125,61.0,117.0
23,6.138289483333334,6.4654166958333334,64.0,95.0
24,5.499992483333333,6.61036330625,45.0,88.0
25,6.776586483333333,6.9015863125,45.0,96.0
26,6.617012233333333,6.9667457979166665,57.0,89.0
27,6.617012233333333,7.095734983333333,61.0,100.0
28,6.617012233333333,7.102383910416667,64.0,78.0
29,7.095734983333333,7.437489835416667,45.0,102.0
30,7.414883483333333,7.534564170833333,57.0,95.0
31,7.414883483333333,8.0345634875,64.0,102.0
32,7.414883483333333,8.067808122916666,61.0,127.0
33,8.691477483333333,9.09174289375,68.0,99.0
34,8.691477483333333,9.102381177083334,59.0,95.0
35,8.691477483333333,9.11567903125,64.0,100.0
36,8.053180483333334,9.297859633333333,40.0,81.0
37,8.053180483333334,9.305838345833333,52.0,97.0
38,9.170200233333333,9.3590297625,59.0,83.0
39,9.170200233333333,9.396263754166666,68.0,99.0
40,9.170200233333333,9.40291268125,64.0,92.0
41,9.329774483333333,9.43482753125,52.0,83.0
42,9.329774483333333,9.44280624375,40.0,71.0
43,9.648922983333334,10.40823045625,40.0,75.0
44,9.648922983333334,10.426847452083333,52.0,102.0
45,10.287219983333333,10.636953547916667,59.0,95.0
46,9.968071483333333,10.652910972916667,68.0,117.0
47,9.968071483333333,10.660889685416667,64.0,117.0
48,11.244665483333334,11.591739477083333,59.0,99.0
49,11.244665483333334,11.6090266875,68.0,97.0
50,11.244665483333334,11.6170054,64.0,97.0
51,10.606368483333334,11.773920079166666,40.0,82.0
52,10.606368483333334,11.79652643125,52.0,100.0
53,11.882962483333333,11.98003681875,40.0,77.0
54,11.882962483333333,11.985355960416667,52.0,88.0
55,11.723388233333333,12.178174845833333,59.0,93.0
56,11.723388233333333,12.240674760416667,64.0,95.0
57,11.723388233333333,12.242004545833334,68.0,97.0
58,12.202110983333334,12.667535879166667,40.0,83.0
59,12.202110983333334,12.708759227083334,52.0,96.0
60,12.521259483333333,13.130301204166667,64.0,112.0
61,12.521259483333333,13.146258629166667,68.0,127.0
62,12.840407983333334,13.1568969125,59.0,99.0
63,13.797853483333332,14.167533829166667,57.0,95.0
64,13.797853483333332,14.17418275625,61.0,107.0
65,13.797853483333332,14.180831683333333,66.0,88.0
66,13.159556483333333,14.323118722916666,54.0,93.0
67,13.159556483333333,14.3377463625,42.0,93.0
68,14.436150483333334,14.534554604166667,42.0,89.0
69,14.436150483333334,14.543863102083334,54.0,75.0
70,14.276576233333333,14.627639583333334,57.0,89.0
71,14.276576233333333,14.639607652083333,61.0,107.0
72,14.276576233333333,14.7207245625,66.0,93.0
73,14.755298983333333,15.158223964583334,42.0,92.0
74,14.755298983333333,15.175511175,54.0,93.0
75,15.074447483333334,15.632957358333334,66.0,122.0
76,15.074447483333334,15.699446629166667,61.0,127.0
77,15.393595983333332,15.727372122916666,57.0,86.0
78,16.351041483333333,16.749977108333333,57.0,93.0
79,16.351041483333333,16.75130689375,64.0,90.0
80,16.351041483333333,16.761945177083334,61.0,112.0
81,15.712744483333333,16.9148705,45.0,99.0
82,16.829764233333332,17.10237024375,57.0,88.0
83,16.989338483333334,17.11832766875,45.0,82.0
84,16.829764233333332,17.28322106041667,61.0,117.0
85,16.829764233333332,17.319125266666667,64.0,86.0
86,17.30848698333333,17.634284410416665,45.0,93.0
87,17.627635483333332,18.240666560416667,64.0,102.0
88,17.627635483333332,18.260613341666666,61.0,127.0
89,17.946783983333333,18.2792303375,57.0,78.0
90,18.90422948333333,19.301835322916666,59.0,90.0
91,18.90422948333333,19.3164629625,68.0,95.0
92,18.90422948333333,19.321782104166665,64.0,95.0
93,18.265932483333334,19.547845625,52.0,99.0
94,19.542526483333333,19.547845625,52.0,82.0
95,18.265932483333334,19.550505195833335,40.0,76.0
96,19.542526483333333,19.550505195833335,40.0,81.0
97,19.382952233333334,19.714068802083332,59.0,93.0
98,19.382952233333334,19.77523893125,68.0,96.0
99,19.382952233333334,19.848377129166668,64.0,95.0
100,19.861674983333334,20.578429322916666,40.0,89.0
101,19.861674983333334,20.58507825,52.0,95.0
102,20.180823483333334,20.62098245625,68.0,127.0
103,20.180823483333334,20.638269666666666,64.0,117.0
104,20.49997198333333,20.68481215625,59.0,79.0
105,20.819120483333332,23.124968395833335,52.0,95.0
106,20.819120483333332,23.223372516666668,40.0,86.0
107,20.819120483333332,23.23800015625,59.0,99.0
108,20.819120483333332,23.271244791666668,64.0,96.0
109,20.819120483333332,23.29385114375,68.0,107.0
110,23.372308483333335,23.519914664583332,61.0,112.0
111,23.372308483333335,23.546510372916668,57.0,97.0
112,23.372308483333335,23.547840158333333,66.0,96.0
113,24.010605483333332,24.140924454166665,57.0,90.0
114,24.010605483333332,24.142254239583334,61.0,112.0
115,24.010605483333332,24.154222308333335,66.0,92.0
116,23.372308483333335,24.5744345,42.0,107.0
117,23.372308483333335,24.57842385625,54.0,100.0
118,24.648902483333334,24.731349179166667,42.0,95.0
119,24.648902483333334,24.747306604166667,54.0,95.0
120,24.48932823333333,24.88959364375,57.0,77.0
121,24.48932823333333,24.914859566666667,61.0,96.0
122,24.48932823333333,24.930816991666667,66.0,82.0
123,24.968050983333335,25.40156102916667,42.0,107.0
124,24.968050983333335,25.445443947916665,54.0,107.0
125,25.287199483333332,25.618316052083333,66.0,122.0
126,25.287199483333332,25.68746489375,61.0,127.0
127,25.606347983333333,25.829751933333334,57.0,82.0
128,25.925496483333333,26.416187302083333,57.0,99.0
129,25.925496483333333,26.422836229166666,64.0,95.0
130,25.925496483333333,26.42416601458333,61.0,112.0
131,26.563793483333335,26.870973914583335,57.0,99.0
132,26.563793483333335,26.8802824125,61.0,117.0
133,26.563793483333335,26.890920695833334,64.0,95.0
134,25.925496483333333,27.03586730625,45.0,88.0
135,27.202090483333333,27.3270903125,45.0,96.0
136,27.042516233333334,27.392249797916666,57.0,89.0
137,27.042516233333334,27.521238983333333,61.0,100.0
138,27.042516233333334,27.527887910416666,64.0,78.0
139,27.521238983333333,27.862993835416667,45.0,102.0
140,27.840387483333334,27.960068170833335,57.0,95.0
141,27.840387483333334,28.460067487499998,64.0,102.0
142,27.840387483333334,28.493312122916667,61.0,127.0
143,29.116981483333333,29.51724689375,68.0,99.0
144,29.116981483333333,29.527885177083334,59.0,95.0
145,29.116981483333333,29.54118303125,64.0,100.0
146,28.478684483333332,29.72336363333333,40.0,81.0
147,28.478684483333332,29.731342345833333,52.0,97.0
148,29.595704233333333,29.7845337625,59.0,83.0
149,29.595704233333333,29.821767754166668,68.0,99.0
150,29.595704233333333,29.82841668125,64.0,92.0
151,29.755278483333335,29.86033153125,52.0,83.0
152,29.755278483333335,29.86831024375,40.0,71.0
153,30.074426983333332,30.83373445625,40.0,75.0
154,30.074426983333332,30.852351452083333,52.0,102.0
155,30.712723983333333,31.062457547916665,59.0,95.0
156,30.393575483333333,31.078414972916665,68.0,117.0
157,30.393575483333333,31.086393685416667,64.0,117.0
158,31.670169483333332,32.01724347708333,59.0,99.0
159,31.670169483333332,32.0345306875,68.0,97.0
160,31.670169483333332,32.0425094,64.0,97.0
161,31.031872483333334,32.19942407916667,40.0,82.0
162,31.031872483333334,32.22203043125,52.0,100.0
163,32.30846648333333,32.40554081875,40.0,77.0
164,32.30846648333333,32.410859960416666,52.0,88.0
165,32.148892233333335,32.603678845833336,59.0,93.0
166,32.148892233333335,32.66617876041666,64.0,95.0
167,32.148892233333335,32.667508545833336,68.0,97.0
168,32.62761498333333,33.09303987916667,40.0,83.0
169,32.62761498333333,33.13426322708333,52.0,96.0
170,32.946763483333335,33.55580520416667,64.0,112.0
171,32.946763483333335,33.57176262916666,68.0,127.0
172,33.26591198333333,33.5824009125,59.0,99.0
173,34.22335748333333,34.59303782916667,57.0,95.0
174,34.22335748333333,34.59968675625,61.0,107.0
175,34.22335748333333,34.606335683333334,66.0,88.0
176,33.585060483333336,34.748622722916664,54.0,93.0
177,33.585060483333336,34.7632503625,42.0,93.0
178,34.86165448333333,34.96005860416667,42.0,89.0
179,34.86165448333333,34.96936710208333,54.0,75.0
180,34.702080233333334,35.05314358333333,57.0,89.0
181,34.702080233333334,35.06511165208333,61.0,107.0
182,34.702080233333334,35.1462285625,66.0,93.0
183,35.180802983333336,35.58372796458333,42.0,92.0
184,35.180802983333336,35.601015175,54.0,93.0
185,35.499951483333334,36.05846135833333,66.0,122.0
186,35.499951483333334,36.12495062916667,61.0,127.0
187,35.81909998333333,36.152876122916666,57.0,86.0
188,36.77654548333334,37.17548110833334,57.0,93.0
189,36.77654548333334,37.17681089375,64.0,90.0
190,36.77654548333334,37.18744917708333,61.0,112.0
191,36.138248483333335,37.3403745,45.0,99.0
192,37.25526823333333,37.52787424375,57.0,88.0
193,37.41484248333333,37.54383166875,45.0,82.0
194,37.25526823333333,37.70872506041667,61.0,117.0
195,37.25526823333333,37.744629266666664,64.0,86.0
196,37.733990983333335,38.059788410416665,45.0,93.0
197,38.05313948333333,38.66617056041667,64.0,102.0
198,38.05313948333333,38.686117341666666,61.0,127.0
199,38.37228798333334,38.7047343375,57.0,78.0
200,39.329733483333335,39.72733932291666,59.0,90.0
201,39.329733483333335,39.7419669625,68.0,95.0
202,39.329733483333335,39.74728610416667,64.0,95.0
203,38.691436483333334,39.973349625,52.0,99.0
204,39.96803048333334,39.973349625,52.0,82.0
205,38.691436483333334,39.976009195833335,40.0,76.0
206,39.96803048333334,39.976009195833335,40.0,81.0
207,39.80845623333333,40.139572802083336,59.0,93.0
208,39.80845623333333,40.20074293125,68.0,96.0
209,39.80845623333333,40.27388112916667,64.0,95.0
210,40.287178983333334,41.003933322916666,40.0,89.0
211,40.287178983333334,41.01058225,52.0,95.0
212,40.60632748333333,41.04648645625,68.0,127.0
213,40.60632748333333,41.06377366666667,64.0,117.0
214,40.925475983333335,41.11031615625,59.0,79.0
215,41.24462448333333,43.55047239583333,52.0,95.0
216,41.24462448333333,43.64887651666667,40.0,86.0
217,41.24462448333333,43.66350415625,59.0,99.0
218,41.24462448333333,43.696748791666664,64.0,96.0
219,41.24462448333333,43.71935514375,68.0,107.0
220,44.43610948333333,44.753928197916665,64.0,86.0
221,44.43610948333333,44.81110897083333,61.0,93.0
222,44.43610948333333,44.81110897083333,68.0,85.0
223,45.074406483333334,45.18610845833334,49.0,58.0
224,43.79781248333333,45.26190622708333,37.0,100.0
225,44.914832233333335,45.412171979166665,64.0,64.0
226,44.914832233333335,45.4547251125,68.0,64.0
227,44.914832233333335,45.45871446875,61.0,73.0
228,45.39355498333333,45.78451189583333,37.0,58.0
229,45.39355498333333,45.8536607375,49.0,90.0
230,45.712703483333335,46.30445799375,64.0,96.0
231,45.712703483333335,46.33504305833333,68.0,107.0
232,46.03185198333333,46.34302177083333,61.0,81.0
233,46.98929748333333,47.38823310833333,57.0,81.0
234,46.98929748333333,47.394882035416664,64.0,75.0
235,46.98929748333333,47.39621182083334,61.0,81.0
236,47.468020233333334,47.63557319583333,52.0,61.0
237,46.35100048333333,47.65950933333333,45.0,79.0
238,47.468020233333334,47.91748770416667,57.0,74.0
239,47.468020233333334,47.94009405625,61.0,96.0
240,47.468020233333334,47.95871105208333,64.0,81.0
241,47.94674298333333,48.48264650625,52.0,79.0
242,48.265891483333334,48.52918899583333,64.0,96.0
243,48.265891483333334,48.62759311666667,61.0,127.0
244,48.58503998333333,48.63690161458333,57.0,54.0
245,48.904188483333336,49.15817749791667,59.0,86.0
246,48.904188483333336,49.16748599583333,66.0,95.0
247,48.904188483333336,49.1728051375,63.0,100.0
248,49.54248548333333,49.628921535416666,63.0,127.0
249,49.54248548333333,49.63158110625,59.0,90.0
250,49.54248548333333,49.636900247916664,66.0,117.0
251,49.861633983333334,49.994612525,54.0,26.0
252,50.02120823333333,50.112963427083336,63.0,107.0
253,50.02120823333333,50.1142932125,59.0,79.0
254,50.02120823333333,50.122271925,66.0,93.0
255,50.18078248333333,50.58104789375,54.0,66.0
256,50.499930983333336,50.59966488958333,66.0,96.0
257,50.499930983333336,50.60498403125,59.0,83.0
258,50.499930983333336,50.610303172916666,63.0,102.0
259,48.904188483333336,50.651526520833336,47.0,73.0
260,50.81907948333333,51.07439828333333,63.0,127.0
261,50.81907948333333,51.09434506458334,66.0,127.0
262,51.13822798333333,51.308440516666664,59.0,63.0
263,51.457376483333334,51.93742901875,59.0,88.0
264,51.457376483333334,51.97998215208333,68.0,90.0
265,51.457376483333334,51.987960864583336,64.0,90.0
266,52.095673483333336,52.452055975,59.0,85.0
267,52.095673483333336,52.45737511666667,68.0,85.0
268,52.095673483333336,52.473332541666664,64.0,86.0
269,52.57439623333333,52.707374775,64.0,82.0
270,52.57439623333333,52.712693916666666,59.0,88.0
271,52.57439623333333,52.712693916666666,68.0,85.0
272,51.457376483333334,53.2579059375,52.0,79.0
273,51.457376483333334,53.336363277083336,40.0,72.0
274,53.053118983333334,53.562426797916665,64.0,96.0
275,53.053118983333334,53.60763950208333,68.0,96.0
276,53.37226748333333,53.691415983333336,59.0,86.0
277,54.01056448333333,54.14620259583333,64.0,88.0
278,54.01056448333333,54.37625547291667,68.0,96.0
279,54.01056448333333,54.47200002291667,61.0,96.0
280,54.648861483333334,54.72997839375,64.0,89.0
281,54.648861483333334,54.76721238541666,61.0,95.0
282,54.648861483333334,54.813754875,68.0,95.0
283,55.12758423333333,55.187424577083334,64.0,74.0
284,55.12758423333333,55.211360714583336,61.0,92.0
285,55.12758423333333,55.228647925,68.0,85.0
286,54.01056448333333,55.62359419375,37.0,85.0
287,54.01056448333333,55.66348775625,49.0,62.0
288,55.60630698333333,55.67944518125,61.0,86.0
289,55.60630698333333,56.16481685833333,64.0,93.0
290,55.60630698333333,56.212689133333335,68.0,99.0
291,56.244603983333334,56.29380604375,61.0,90.0
292,56.56375248333333,57.11029428958334,57.0,96.0
293,56.56375248333333,57.111624075,61.0,100.0
294,56.56375248333333,57.11694321666667,64.0,89.0
295,57.20204948333333,57.48396399166667,57.0,93.0
296,57.20204948333333,57.5025809875,61.0,97.0
297,57.20204948333333,57.50922991458334,64.0,82.0
298,57.680772233333336,57.864282620833336,57.0,81.0
299,57.680772233333336,57.9015166125,61.0,95.0
300,57.680772233333336,57.9174740375,64.0,78.0
301,57.840346483333335,58.3164096625,52.0,41.0
302,56.56375248333333,58.596994385416664,45.0,76.0
303,58.15949498333333,58.608962454166665,61.0,107.0
304,58.15949498333333,58.61694116666666,57.0,42.0
305,58.15949498333333,58.6196007375,64.0,88.0
306,58.478643483333336,58.62757945,52.0,66.0
307,58.79779198333333,58.82571747708333,64.0,56.0
308,58.79779198333333,58.88954717708333,61.0,107.0
309,59.11694048333333,59.58502495,66.0,90.0
310,59.11694048333333,59.642205722916664,59.0,93.0
311,59.11694048333333,59.67943971458333,63.0,107.0
312,59.75523748333333,60.08103491041667,66.0,107.0
313,59.75523748333333,60.09167319375,59.0,89.0
314,59.75523748333333,60.09566255,63.0,112.0
315,59.11694048333333,60.26986443958333,47.0,79.0
316,60.233960233333335,60.37092813125,59.0,63.0
317,60.233960233333335,60.37757705833333,63.0,112.0
318,60.233960233333335,60.38688555625,66.0,95.0
319,60.39353448333333,60.845661525,47.0,59.0
320,60.71268298333333,60.87624658958333,59.0,89.0
321,60.71268298333333,60.88156573125,66.0,117.0
322,60.71268298333333,60.91082101041667,63.0,122.0
323,61.031831483333335,61.13555474583333,63.0,112.0
324,61.031831483333335,61.139544102083335,59.0,95.0
325,61.031831483333335,61.15816109791667,66.0,112.0
326,61.670128483333336,62.20204265,64.0,93.0
327,61.670128483333336,62.219329860416664,61.0,112.0
328,61.670128483333336,62.2259787875,68.0,97.0
329,62.30842548333333,62.63688248125,61.0,97.0
330,62.30842548333333,62.63821226666666,68.0,89.0
331,62.30842548333333,62.64353140833333,64.0,92.0
332,61.670128483333336,62.77650995,49.0,85.0
333,62.78714823333333,62.86959492916667,64.0,86.0
334,62.78714823333333,62.89087149583333,68.0,90.0
335,62.78714823333333,62.89486085208333,61.0,95.0
336,61.670128483333336,63.398849525,37.0,82.0
337,62.94672248333333,63.4068282375,49.0,56.0
338,63.265870983333336,63.481296220833336,61.0,100.0
339,63.265870983333336,63.53049828125,64.0,95.0
340,63.58501948333333,63.78714686666667,64.0,35.0
341,63.265870983333336,63.89751905625,68.0,107.0
342,63.90416798333333,63.9573594,61.0,96.0
343,64.22331648333333,64.71799665833333,57.0,95.0
344,64.22331648333333,64.72464558541667,64.0,92.0
345,64.22331648333333,64.73395408333333,61.0,102.0
346,64.86161348333333,65.1461875625,57.0,92.0
347,64.86161348333333,65.1621449875,64.0,89.0
348,64.86161348333333,65.17411305625,61.0,117.0
349,65.34033623333333,65.53315511875,57.0,82.0
350,65.34033623333333,65.54911254375,64.0,82.0
351,65.34033623333333,65.55709125625,61.0,97.0
352,65.49991048333334,65.99060130208333,52.0,68.0
353,64.22331648333333,65.99592044375,45.0,75.0
354,65.81905898333333,66.28847323541666,61.0,102.0
355,65.81905898333333,66.30576044583333,64.0,92.0
356,65.81905898333333,66.31373915833333,57.0,92.0
357,66.45735598333333,66.55443031875,64.0,66.0
358,66.45735598333333,66.60097280833334,61.0,96.0
359,66.45735598333333,66.64751529791667,57.0,82.0
360,66.77650448333333,67.20336560208334,61.0,112.0
361,66.77650448333333,67.25788680416666,66.0,93.0
362,66.77650448333333,67.26586551666666,57.0,88.0
363,67.41480148333333,67.73527976875,57.0,88.0
364,67.41480148333333,67.74325848125,61.0,117.0
365,67.41480148333333,67.75123719375,66.0,95.0
366,66.77650448333333,67.84432217291666,54.0,96.0
367,67.89352423333334,68.11825796875,57.0,76.0
368,67.89352423333334,68.13288560833334,61.0,99.0
369,67.89352423333334,68.16613024375,66.0,83.0
370,66.77650448333333,68.52251273541667,42.0,88.0
371,68.05309848333333,68.64884235,54.0,56.0
372,68.37224698333333,68.77118260833333,61.0,112.0
373,68.37224698333333,68.92410793125,66.0,100.0
374,68.69139548333334,69.10229917708334,57.0,112.0
375,69.01054398333333,69.23527771875,61.0,102.0
376,69.32969248333333,69.81506416041667,59.0,102.0
377,69.32969248333333,69.82836201458333,66.0,107.0
378,69.32969248333333,69.84298965416667,63.0,122.0
379,69.64884098333333,70.12889351875,54.0,66.0
380,69.96798948333333,70.33899961458333,59.0,99.0
381,69.96798948333333,70.35362725416667,66.0,112.0
382,69.96798948333333,70.35894639583333,63.0,127.0
383,70.28713798333334,70.46133987291667,54.0,66.0
384,70.44671223333333,70.60229712708333,59.0,93.0
385,70.44671223333333,70.62889283541666,66.0,112.0
386,70.44671223333333,70.63022262083334,63.0,122.0
387,70.92543498333333,71.05442416875,59.0,97.0
388,70.60628648333334,71.07703052083333,54.0,83.0
389,70.92543498333333,71.08633901875,63.0,127.0
390,70.92543498333333,71.08633901875,66.0,127.0
391,69.32969248333333,71.10096665833333,47.0,82.0
392,71.24458348333333,71.696710525,66.0,127.0
393,71.24458348333333,71.71798709166667,47.0,96.0
394,71.24458348333333,71.73128494583334,54.0,127.0
395,71.24458348333333,71.73527430208333,63.0,127.0
396,71.56373198333333,71.75522108333334,59.0,93.0
397,71.88288048333334,72.09165679375,54.0,127.0
398,71.88288048333334,72.09963550625,59.0,93.0
399,71.88288048333334,72.10096529166667,47.0,90.0
400,71.88288048333334,72.10628443333333,66.0,122.0
401,71.88288048333334,72.11293336041666,63.0,127.0
402,72.20202898333334,72.37623087291666,59.0,79.0
403,72.20202898333334,72.38553937083333,47.0,58.0
404,72.20202898333334,72.38819894166667,54.0,100.0
405,72.20202898333334,72.398837225,66.0,96.0
406,72.20202898333334,72.41080529375,63.0,97.0
407,72.52117748333333,72.69271980208333,47.0,85.0
408,72.52117748333333,72.69271980208333,59.0,96.0
409,72.52117748333333,72.71133679791667,54.0,117.0
410,72.52117748333333,72.72064529583334,66.0,112.0
411,72.52117748333333,72.73261336458333,63.0,127.0
412,72.84032598333333,72.98793216458333,47.0,78.0
413,72.84032598333333,72.99458109166666,54.0,107.0
414,72.84032598333333,73.01452787291667,59.0,96.0
415,72.84032598333333,73.02383637083334,66.0,102.0
416,72.84032598333333,73.02516615625,63.0,112.0
417,73.15947448333333,73.292453025,47.0,83.0
418,73.15947448333333,73.3004317375,54.0,122.0
419,73.15947448333333,73.31771894791666,59.0,97.0
420,73.15947448333333,73.33367637291667,63.0,127.0
421,73.15947448333333,73.3403253,66.0,122.0
422,73.47862298333334,73.60229302708333,47.0,72.0
423,73.47862298333334,73.62223980833333,54.0,117.0
424,73.47862298333334,73.63420787708333,59.0,95.0
425,73.47862298333334,73.64750573124999,66.0,127.0
426,73.47862298333334,73.66213337083333,63.0,127.0
427,73.79777148333334,73.90548410208334,54.0,127.0
428,73.79777148333334,73.9068138875,47.0,70.0
429,73.79777148333334,73.94271809375,59.0,107.0
430,73.79777148333334,73.94404787916666,63.0,127.0
431,73.79777148333334,73.95069680625,66.0,122.0
432,74.11691998333333,74.22995174375,66.0,112.0
433,74.11691998333333,74.25388788125,63.0,127.0
434,74.11691998333333,74.27782401875,59.0,95.0
435,74.43606848333333,74.89883380833334,59.0,107.0
436,74.43606848333333,74.91612101875,68.0,122.0
437,74.43606848333333,74.920110375,64.0,107.0
438,75.07436548333334,75.42542883333333,59.0,107.0
439,75.07436548333334,75.42675861875,68.0,117.0
440,75.07436548333334,75.43739690208334,64.0,117.0
441,74.43606848333333,75.55175844791667,52.0,96.0
442,74.43606848333333,75.55574780416667,40.0,86.0
443,75.55308823333333,75.813726175,59.0,97.0
444,75.71266248333333,75.82436445833333,40.0,83.0
445,75.71266248333333,75.82436445833333,52.0,99.0
446,75.55308823333333,75.89085372916666,68.0,100.0
447,75.55308823333333,76.02649184166667,64.0,99.0
448,76.03181098333333,76.41744875416667,52.0,96.0
449,76.03181098333333,76.42675725208333,40.0,89.0
450,76.35095948333333,76.93606506666667,64.0,127.0
451,76.67010798333334,76.962660775,59.0,100.0
452,76.35095948333333,77.0025543375,68.0,127.0
453,77.62755348333333,77.95468069583333,61.0,102.0
454,77.62755348333333,77.96265940833334,64.0,97.0
455,77.62755348333333,77.97196790625,68.0,97.0
456,76.98925648333334,78.10228687708333,37.0,93.0
457,76.98925648333334,78.10494644791666,49.0,102.0
458,78.26585048333334,78.35095675,37.0,88.0
459,78.26585048333334,78.37622267291667,49.0,99.0
460,78.10627623333333,78.38154181458333,64.0,89.0
461,78.10627623333333,78.4068077375,61.0,100.0
462,78.10627623333333,78.5743607,68.0,95.0
463,78.58499898333334,78.92276447916666,49.0,96.0
464,78.58499898333334,78.97063675416666,37.0,93.0
465,78.90414748333333,79.23526405208334,64.0,117.0
466,78.90414748333333,79.24590233541667,68.0,127.0
467,79.22329598333333,79.29111503958333,61.0,99.0
468,80.18074148333334,80.55042182916667,57.0,99.0
469,80.18074148333334,80.55042182916667,64.0,97.0
470,80.18074148333334,80.55574097083333,61.0,117.0
471,79.54244448333333,80.63818766666667,45.0,100.0
472,79.54244448333333,80.65015573541666,33.0,76.0
473,80.65946423333334,80.83898526458333,57.0,88.0
474,80.65946423333334,80.86159161666667,61.0,96.0
475,80.65946423333334,80.89350646666666,64.0,78.0
476,80.81903848333333,80.92409153125,33.0,68.0
477,80.81903848333333,80.92542131666667,45.0,95.0
478,81.13818698333333,81.43738870208334,33.0,83.0
479,81.13818698333333,81.48925033333333,45.0,99.0
480,81.45733548333334,81.686058575,64.0,100.0
481,81.45733548333334,81.71531385416667,61.0,127.0
482,81.77648398333334,81.94403694583333,57.0,70.0
483,82.09563248333333,82.55440845208334,57.0,93.0
484,82.09563248333333,82.56637652083333,61.0,127.0
485,82.09563248333333,82.57435523333334,66.0,112.0
486,82.09563248333333,82.82169532083333,54.0,96.0
487,82.09563248333333,82.87089738125,42.0,65.0
488,82.73392948333333,83.03313120208334,61.0,127.0
489,82.73392948333333,83.0344609875,66.0,102.0
490,82.73392948333333,83.04642905625,57.0,92.0
491,83.05307798333334,83.17275867083333,61.0,117.0
492,83.21265223333333,83.281801075,57.0,67.0
493,83.21265223333333,83.30174785625,66.0,79.0
494,83.37222648333334,83.42408811458333,60.0,78.0
495,83.37222648333334,83.44669446666667,63.0,107.0
496,83.37222648333334,83.4493540375,59.0,86.0
497,83.37222648333334,83.46664124791667,66.0,102.0
498,83.37222648333334,83.49988588333333,47.0,117.0
499,83.69137498333333,84.17408708958334,66.0,122.0
500,83.69137498333333,84.1833955875,63.0,127.0
501,83.69137498333333,84.19270408541666,59.0,107.0
502,83.69137498333333,84.23259764791666,47.0,127.0
503,84.32967198333333,84.43605481666667,66.0,122.0
504,84.32967198333333,84.45068245625,63.0,127.0
505,84.32967198333333,84.4865866625,59.0,95.0
506,84.64882048333334,85.164777225,59.0,96.0
507,84.64882048333334,85.17142615208333,68.0,117.0
508,84.64882048333334,85.18339422083334,64.0,107.0
509,85.28711748333333,85.6195638375,68.0,102.0
510,85.28711748333333,85.62222340833333,59.0,96.0
511,85.28711748333333,85.63286169166666,64.0,102.0
512,84.64882048333334,85.80972315208334,52.0,100.0
513,84.64882048333334,85.82834014791666,40.0,75.0
514,85.92541448333333,86.03312710208333,40.0,71.0
515,85.92541448333333,86.03844624375,52.0,90.0
516,85.76584023333334,86.07435045,59.0,85.0
517,85.76584023333334,86.12089293958333,68.0,97.0
518,85.76584023333334,86.12621208125,64.0,96.0
519,86.24456298333334,86.59163697708334,52.0,95.0
520,86.24456298333334,86.59961568958333,40.0,85.0
521,86.56371148333334,86.79110478958333,64.0,127.0
522,86.56371148333334,86.88684933958334,68.0,127.0
523,87.20200848333333,87.48259320625,64.0,95.0
524,87.20200848333333,87.51450805625,68.0,97.0
525,87.20200848333333,87.67541209166667,61.0,100.0
526,87.20200848333333,88.06636900416666,49.0,99.0
527,87.84030548333334,88.07567750208334,64.0,99.0
528,87.84030548333334,88.09828385416667,68.0,100.0
529,87.84030548333334,88.12089020625,61.0,107.0
530,88.15945398333334,88.2764751,49.0,27.0
531,87.20200848333333,88.30971973541666,37.0,82.0
532,88.31902823333333,88.54509175416666,64.0,90.0
533,88.47860248333333,88.58365553125,49.0,75.0
534,88.47860248333333,88.59163424375,37.0,73.0
535,88.31902823333333,88.61557038125,61.0,97.0
536,88.31902823333333,88.62886823541666,68.0,97.0
537,88.79775098333333,89.0982824875,49.0,99.0
538,88.79775098333333,89.14881433333333,37.0,99.0
539,89.11689948333333,89.22062274583334,64.0,102.0
540,89.11689948333333,89.2259418875,68.0,127.0
541,89.75519648333334,90.07434498333333,61.0,122.0
542,89.75519648333334,90.07567476875,57.0,97.0
543,89.75519648333334,90.11024918958333,64.0,93.0
544,90.39349348333333,90.52381245416666,61.0,127.0
545,90.39349348333333,90.53976987916667,64.0,95.0
546,90.39349348333333,90.54508902083333,57.0,96.0
547,89.75519648333334,90.8695566625,33.0,67.0
548,89.75519648333334,90.877535375,45.0,100.0
549,91.03179048333334,91.12886481875,33.0,71.0
550,91.03179048333334,91.14216267291667,45.0,99.0
551,90.87221623333333,91.18072645,57.0,93.0
552,90.87221623333333,91.3642368375,64.0,92.0
553,90.87221623333333,91.37753469166667,61.0,122.0
554,91.35093898333334,91.64748113125,33.0,72.0
555,91.35093898333334,91.74189589583334,45.0,107.0
556,91.67008748333333,91.91875735625,64.0,99.0
557,91.67008748333333,91.93471478125,61.0,127.0
558,92.30838448333333,92.66077761875,61.0,117.0
559,92.30838448333333,92.77247959375,57.0,96.0
560,92.30838448333333,92.79508594583334,66.0,102.0
561,92.30838448333333,93.09029830833333,42.0,97.0
562,92.30838448333333,93.10758551875,54.0,97.0
563,92.94668148333334,93.22327685,57.0,107.0
564,92.94668148333334,93.22327685,61.0,127.0
565,92.94668148333334,93.2312555625,66.0,122.0
566,93.42540423333334,93.48524457708334,66.0,69.0
567,93.42540423333334,93.53045728125,61.0,112.0
568,93.58497848333333,93.6621060375,63.0,112.0
569,93.58497848333333,93.66343582291667,66.0,96.0
570,93.58497848333333,93.66476560833333,59.0,99.0
571,93.58497848333333,93.67939324791666,47.0,95.0
572,93.90412698333333,94.3961475875,63.0,127.0
573,93.90412698333333,94.39747737291667,66.0,127.0
574,93.90412698333333,94.40013694375,59.0,100.0
575,94.54242398333334,94.71130673125,66.0,122.0
576,94.54242398333334,94.7152960875,63.0,127.0
577,93.90412698333333,94.7312535125,47.0,117.0
578,94.86157248333333,95.01582759166666,59.0,102.0
579,94.86157248333333,95.02513608958333,66.0,112.0
580,94.86157248333333,95.05173179791666,47.0,117.0
581,94.86157248333333,95.05306158333333,63.0,127.0
582,95.18072098333333,95.3216782375,59.0,81.0
583,95.18072098333333,95.33896544791666,63.0,92.0
584,95.18072098333333,95.345614375,66.0,92.0
585,95.18072098333333,95.36290158541667,47.0,95.0
586,95.49986948333333,95.63683738125,59.0,93.0
587,95.49986948333333,95.65811394791666,63.0,127.0
588,95.49986948333333,95.66609266041667,66.0,117.0
589,95.49986948333333,95.67806072916666,47.0,102.0
590,95.81901798333334,95.96928373541667,59.0,86.0
591,95.81901798333334,95.97992201875,63.0,107.0
592,95.81901798333334,95.98258158958333,66.0,96.0
593,95.81901798333334,95.99056030208334,47.0,107.0
594,96.13816648333334,98.632843925,63.0,117.0
595,96.13816648333334,98.63683328125,47.0,96.0
596,96.13816648333334,98.64614177916667,59.0,102.0
597,96.13816648333334,98.65146092083333,66.0,102.0
598,99.32965148333334,99.69135311666666,59.0,96.0
599,99.32965148333334,99.69135311666666,64.0,102.0
600,99.32965148333334,99.70332118541667,68.0,102.0
601,98.69135448333333,99.82300187291666,52.0,107.0
602,98.69135448333333,99.84294865416666,40.0,86.0
603,99.96794848333333,100.07034196041667,52.0,86.0
604,99.96794848333333,100.08762917083334,40.0,62.0
605,99.80837423333334,100.35092668333333,64.0,100.0
606,99.80837423333334,100.35491603958333,68.0,99.0
607,99.80837423333334,100.36821389375,59.0,82.0
608,100.28709698333333,101.1142235125,52.0,97.0
609,100.60624548333334,101.1780532125,64.0,93.0
610,100.28709698333333,101.18204256875,40.0,89.0
611,100.60624548333334,101.20331913541666,68.0,99.0
612,100.92539398333334,101.22459570208333,59.0,99.0
613,101.24454248333333,101.39214866458333,61.0,112.0
614,101.24454248333333,101.41874437291666,57.0,97.0
615,101.24454248333333,101.42007415833334,66.0,96.0
616,101.88283948333333,102.01315845416667,57.0,90.0
617,101.88283948333333,102.01448823958333,61.0,112.0
618,101.88283948333333,102.02645630833334,66.0,92.0
619,101.24454248333333,102.4466685,42.0,107.0
620,101.24454248333333,102.45065785625,54.0,100.0
621,102.52113648333334,102.60358317916666,42.0,95.0
622,102.52113648333334,102.61954060416667,54.0,95.0
623,102.36156223333333,102.76182764375,57.0,77.0
624,102.36156223333333,102.78709356666667,61.0,96.0
625,102.36156223333333,102.80305099166667,66.0,82.0
626,102.84028498333333,103.27379502916666,42.0,107.0
627,102.84028498333333,103.31767794791666,54.0,107.0
628,103.15943348333333,103.49055005208334,66.0,122.0
629,103.15943348333333,103.55969889375,61.0,127.0
630,103.47858198333333,103.70198593333333,57.0,82.0
631,103.79773048333334,104.28842130208334,57.0,99.0
632,103.79773048333334,104.29507022916667,64.0,95.0
633,103.79773048333334,104.29640001458333,61.0,112.0
634,104.43602748333333,104.74320791458334,57.0,99.0
635,104.43602748333333,104.7525164125,61.0,117.0
636,104.43602748333333,104.76315469583334,64.0,95.0
637,103.79773048333334,104.90810130625,45.0,88.0
638,105.07432448333333,105.1993243125,45.0,96.0
639,104.91475023333334,105.26448379791667,57.0,89.0
640,104.91475023333334,105.39347298333334,61.0,100.0
641,104.91475023333334,105.40012191041667,64.0,78.0
642,105.39347298333334,105.73522783541667,45.0,102.0
643,105.71262148333334,105.83230217083333,57.0,95.0
644,105.71262148333334,106.3323014875,64.0,102.0
645,105.71262148333334,106.36554612291667,61.0,127.0
646,106.98921548333334,107.38948089375,68.0,99.0
647,106.98921548333334,107.40011917708333,59.0,95.0
648,106.98921548333334,107.41341703125,64.0,100.0
649,106.35091848333333,107.59559763333333,40.0,81.0
650,106.35091848333333,107.60357634583333,52.0,97.0
651,107.46793823333333,107.6567677625,59.0,83.0
652,107.46793823333333,107.69400175416666,68.0,99.0
653,107.46793823333333,107.70065068125,64.0,92.0
654,107.62751248333333,107.73256553125,52.0,83.0
655,107.62751248333333,107.74054424375,40.0,71.0
656,107.94666098333333,108.70596845625,40.0,75.0
657,107.94666098333333,108.72458545208333,52.0,102.0
658,108.58495798333334,108.93469154791667,59.0,95.0
659,108.26580948333333,108.95064897291667,68.0,117.0
660,108.26580948333333,108.95862768541667,64.0,117.0
661,109.54240348333333,109.88947747708333,59.0,99.0
662,109.54240348333333,109.9067646875,68.0,97.0
663,109.54240348333333,109.9147434,64.0,97.0
664,108.90410648333334,110.07165807916667,40.0,82.0
665,108.90410648333334,110.09426443125,52.0,100.0
666,110.18070048333334,110.27777481875,40.0,77.0
667,110.18070048333334,110.28309396041666,52.0,88.0
668,110.02112623333333,110.47591284583334,59.0,93.0
669,110.02112623333333,110.53841276041666,64.0,95.0
670,110.02112623333333,110.53974254583333,68.0,97.0
671,110.49984898333334,110.96527387916666,40.0,83.0
672,110.49984898333334,111.00649722708333,52.0,96.0
673,110.81899748333333,111.42803920416667,64.0,112.0
674,110.81899748333333,111.44399662916666,68.0,127.0
675,111.13814598333333,111.4546349125,59.0,99.0
676,112.09559148333334,112.46527182916667,57.0,95.0
677,112.09559148333334,112.47192075625,61.0,107.0
678,112.09559148333334,112.47856968333333,66.0,88.0
679,111.45729448333333,112.62085672291667,54.0,93.0
680,111.45729448333333,112.6354843625,42.0,93.0
681,112.73388848333333,112.83229260416667,42.0,89.0
682,112.73388848333333,112.84160110208333,54.0,75.0
683,112.57431423333334,112.92537758333333,57.0,89.0
684,112.57431423333334,112.93734565208334,61.0,107.0
685,112.57431423333334,113.0184625625,66.0,93.0
686,113.05303698333333,113.45596196458334,42.0,92.0
687,113.05303698333333,113.47324917499999,54.0,93.0
688,113.37218548333334,113.93069535833334,66.0,122.0
689,113.37218548333334,113.99718462916667,61.0,127.0
690,113.69133398333334,114.02511012291667,57.0,86.0
691,114.64877948333333,115.04771510833334,57.0,93.0
692,114.64877948333333,115.04904489375,64.0,90.0
693,114.64877948333333,115.05968317708333,61.0,112.0
694,114.01048248333333,115.2126085,45.0,99.0
695,115.12750223333333,115.40010824375,57.0,88.0
696,115.28707648333334,115.41606566875,45.0,82.0
697,115.12750223333333,115.58095906041666,61.0,117.0
698,115.12750223333333,115.61686326666667,64.0,86.0
699,115.60622498333333,115.93202241041666,45.0,93.0
700,115.92537348333333,116.53840456041667,64.0,102.0
701,115.92537348333333,116.55835134166666,61.0,127.0
702,116.24452198333333,116.5769683375,57.0,78.0
703,117.20196748333333,117.59957332291667,59.0,90.0
704,117.20196748333333,117.6142009625,68.0,95.0
705,117.20196748333333,117.61952010416667,64.0,95.0
706,116.56367048333334,117.845583625,52.0,99.0
707,117.84026448333333,117.845583625,52.0,82.0
708,116.56367048333334,117.84824319583333,40.0,76.0
709,117.84026448333333,117.84824319583333,40.0,81.0
710,117.68069023333334,118.01180680208333,59.0,93.0
711,117.68069023333334,118.07297693125,68.0,96.0
712,117.68069023333334,118.14611512916666,64.0,95.0
713,118.15941298333334,118.87616732291667,40.0,89.0
714,118.15941298333334,118.88281625,52.0,95.0
715,118.47856148333334,118.91872045625,68.0,127.0
716,118.47856148333334,118.93600766666667,64.0,117.0
717,118.79770998333333,118.98255015625,59.0,79.0
718,119.11685848333333,121.42270639583333,52.0,95.0
719,119.11685848333333,121.52111051666667,40.0,86.0
720,119.11685848333333,121.53573815625,59.0,99.0
721,119.11685848333333,121.56898279166667,64.0,96.0
722,119.11685848333333,121.59158914375,68.0,107.0
723,122.30834348333333,122.62616219791667,64.0,86.0
724,122.30834348333333,122.68334297083334,61.0,93.0
725,122.30834348333333,122.68334297083334,68.0,85.0
726,122.94664048333333,123.05834245833333,49.0,58.0
727,121.67004648333334,123.13414022708334,37.0,100.0
728,122.78706623333333,123.28440597916666,64.0,64.0
729,122.78706623333333,123.3269591125,68.0,64.0
730,122.78706623333333,123.33094846875,61.0,73.0
731,123.26578898333334,123.65674589583334,37.0,58.0
732,123.26578898333334,123.7258947375,49.0,90.0
733,123.58493748333333,124.17669199375,64.0,96.0
734,123.58493748333333,124.20727705833333,68.0,107.0
735,123.90408598333333,124.21525577083334,61.0,81.0
736,124.86153148333334,125.26046710833333,57.0,81.0
737,124.86153148333334,125.26711603541666,64.0,75.0
738,124.86153148333334,125.26844582083334,61.0,81.0
739,125.34025423333333,125.50780719583334,52.0,61.0
740,124.22323448333333,125.53174333333334,45.0,79.0
741,125.34025423333333,125.78972170416667,57.0,74.0
742,125.34025423333333,125.81232805625,61.0,96.0
743,125.34025423333333,125.83094505208334,64.0,81.0
744,125.81897698333333,126.35488050625,52.0,79.0
745,126.13812548333333,126.40142299583333,64.0,96.0
746,126.13812548333333,126.49982711666667,61.0,127.0
747,126.45727398333334,126.50913561458333,57.0,54.0
748,126.77642248333333,127.03041149791666,59.0,86.0
749,126.77642248333333,127.03971999583334,66.0,95.0
750,126.77642248333333,127.0450391375,63.0,100.0
751,127.41471948333333,127.50115553541667,63.0,127.0
752,127.41471948333333,127.50381510625,59.0,90.0
753,127.41471948333333,127.50913424791666,66.0,117.0
754,127.73386798333333,127.866846525,54.0,26.0
755,127.89344223333333,127.98519742708334,63.0,107.0
756,127.89344223333333,127.9865272125,59.0,79.0
757,127.89344223333333,127.994505925,66.0,93.0
758,128.05301648333332,128.45328189375,54.0,66.0
759,128.37216498333333,128.47189888958334,66.0,96.0
760,128.37216498333333,128.47721803125,59.0,83.0
761,128.37216498333333,128.48253717291666,63.0,102.0
762,126.77642248333333,128.52376052083332,47.0,73.0
763,128.69131348333335,128.94663228333334,63.0,127.0
764,128.69131348333335,128.96657906458333,66.0,127.0
765,129.01046198333333,129.18067451666667,59.0,63.0
766,129.32961048333334,129.80966301875,59.0,88.0
767,129.32961048333334,129.85221615208334,68.0,90.0
768,129.32961048333334,129.86019486458332,64.0,90.0
769,129.96790748333333,130.324289975,59.0,85.0
770,129.96790748333333,130.32960911666666,68.0,85.0
771,129.96790748333333,130.34556654166667,64.0,86.0
772,130.44663023333334,130.579608775,64.0,82.0
773,130.44663023333334,130.58492791666666,59.0,88.0
774,130.44663023333334,130.58492791666666,68.0,85.0
775,129.32961048333334,131.1301399375,52.0,79.0
776,129.32961048333334,131.20859727708333,40.0,72.0
777,130.92535298333334,131.43466079791668,64.0,96.0
778,130.92535298333334,131.47987350208334,68.0,96.0
779,131.24450148333332,131.56364998333333,59.0,86.0
780,131.88279848333335,132.01843659583332,64.0,88.0
781,131.88279848333335,132.24848947291667,68.0,96.0
782,131.88279848333335,132.34423402291665,61.0,96.0
783,132.52109548333334,132.60221239375,64.0,89.0
784,132.52109548333334,132.63944638541668,61.0,95.0
785,132.52109548333334,132.685988875,68.0,95.0
786,132.99981823333334,133.05965857708333,64.0,74.0
787,132.99981823333334,133.08359471458334,61.0,92.0
788,132.99981823333334,133.100881925,68.0,85.0
789,131.88279848333335,133.49582819375,37.0,85.0
790,131.88279848333335,133.53572175625,49.0,62.0
791,133.47854098333335,133.55167918125,61.0,86.0
792,133.47854098333335,134.03705085833334,64.0,93.0
793,133.47854098333335,134.08492313333332,68.0,99.0
794,134.11683798333334,134.16604004375,61.0,90.0
795,134.43598648333332,134.98252828958334,57.0,96.0
796,134.43598648333332,134.983858075,61.0,100.0
797,134.43598648333332,134.98917721666666,64.0,89.0
798,135.07428348333335,135.35619799166668,57.0,93.0
799,135.07428348333335,135.3748149875,61.0,97.0
800,135.07428348333335,135.38146391458332,64.0,82.0
801,135.55300623333332,135.73651662083333,57.0,81.0
802,135.55300623333332,135.7737506125,61.0,95.0
803,135.55300623333332,135.7897080375,64.0,78.0
804,135.71258048333334,136.1886436625,52.0,41.0
805,134.43598648333332,136.46922838541667,45.0,76.0
806,136.03172898333332,136.48119645416668,61.0,107.0
807,136.03172898333332,136.48917516666666,57.0,42.0
808,136.03172898333332,136.4918347375,64.0,88.0
809,136.35087748333333,136.49981345,52.0,66.0
810,136.67002598333335,136.69795147708334,64.0,56.0
811,136.67002598333335,136.76178117708332,61.0,107.0
812,136.98917448333333,137.45725895,66.0,90.0
813,136.98917448333333,137.51443972291668,59.0,93.0
814,136.98917448333333,137.55167371458333,63.0,107.0
815,137.62747148333332,137.95326891041665,66.0,107.0
816,137.62747148333332,137.96390719375,59.0,89.0
817,137.62747148333332,137.96789655,63.0,112.0
818,136.98917448333333,138.14209843958332,47.0,79.0
819,138.10619423333333,138.24316213125,59.0,63.0
820,138.10619423333333,138.24981105833334,63.0,112.0
821,138.10619423333333,138.25911955625,66.0,95.0
822,138.26576848333335,138.717895525,47.0,59.0
823,138.58491698333333,138.74848058958332,59.0,89.0
824,138.58491698333333,138.75379973125,66.0,117.0
825,138.58491698333333,138.78305501041666,63.0,122.0
826,138.90406548333334,139.00778874583332,63.0,112.0
827,138.90406548333334,139.01177810208333,59.0,95.0
828,138.90406548333334,139.03039509791665,66.0,112.0
829,139.54236248333333,140.07427665,64.0,93.0
830,139.54236248333333,140.09156386041667,61.0,112.0
831,139.54236248333333,140.0982127875,68.0,97.0
832,140.18065948333333,140.50911648125,61.0,97.0
833,140.18065948333333,140.51044626666666,68.0,89.0
834,140.18065948333333,140.51576540833332,64.0,92.0
835,139.54236248333333,140.64874395,49.0,85.0
836,140.65938223333333,140.74182892916667,64.0,86.0
837,140.65938223333333,140.76310549583334,68.0,90.0
838,140.65938223333333,140.76709485208335,61.0,95.0
839,139.54236248333333,141.271083525,37.0,82.0
840,140.81895648333332,141.2790622375,49.0,56.0
841,141.13810498333333,141.35353022083333,61.0,100.0
842,141.13810498333333,141.40273228125,64.0,95.0
843,141.45725348333335,141.65938086666665,64.0,35.0
844,141.13810498333333,141.76975305625,68.0,107.0
845,141.77640198333333,141.8295934,61.0,96.0
846,142.09555048333334,142.59023065833333,57.0,95.0
847,142.09555048333334,142.59687958541667,64.0,92.0
848,142.09555048333334,142.60618808333334,61.0,102.0
849,142.73384748333334,143.0184215625,57.0,92.0
850,142.73384748333334,143.0343789875,64.0,89.0
851,142.73384748333334,143.04634705625,61.0,117.0
852,143.21257023333334,143.40538911875,57.0,82.0
853,143.21257023333334,143.42134654375,64.0,82.0
854,143.21257023333334,143.42932525625,61.0,97.0
855,143.37214448333333,143.86283530208334,52.0,68.0
856,142.09555048333334,143.86815444375,45.0,75.0
857,143.69129298333334,144.16070723541665,61.0,102.0
858,143.69129298333334,144.17799444583332,64.0,92.0
859,143.69129298333334,144.18597315833333,57.0,92.0
860,144.32958998333334,144.42666431875,64.0,66.0
861,144.32958998333334,144.47320680833334,61.0,96.0
862,144.32958998333334,144.51974929791666,57.0,82.0
863,144.64873848333335,145.07559960208334,61.0,112.0
864,144.64873848333335,145.13012080416667,66.0,93.0
865,144.64873848333335,145.13809951666667,57.0,88.0
866,145.28703548333334,145.60751376875,57.0,88.0
867,145.28703548333334,145.61549248125,61.0,117.0
868,145.28703548333334,145.62347119375,66.0,95.0
869,144.64873848333335,145.71655617291665,54.0,96.0
870,145.76575823333334,145.99049196875,57.0,76.0
871,145.76575823333334,146.00511960833333,61.0,99.0
872,145.76575823333334,146.03836424375,66.0,83.0
873,144.64873848333335,146.39474673541667,42.0,88.0
874,145.92533248333334,146.52107635,54.0,56.0
875,146.24448098333335,146.64341660833333,61.0,112.0
876,146.24448098333335,146.79634193125,66.0,100.0
877,146.56362948333333,146.97453317708334,57.0,112.0
878,146.88277798333334,147.10751171875,61.0,102.0
879,147.20192648333332,147.68729816041667,59.0,102.0
880,147.20192648333332,147.70059601458334,66.0,107.0
881,147.20192648333332,147.71522365416666,63.0,122.0
882,147.52107498333334,148.00112751875,54.0,66.0
883,147.84022348333335,148.21123361458334,59.0,99.0
884,147.84022348333335,148.22586125416666,66.0,112.0
885,147.84022348333335,148.23118039583332,63.0,127.0
886,148.15937198333333,148.33357387291667,54.0,66.0
887,148.31894623333332,148.47453112708334,59.0,93.0
888,148.31894623333332,148.50112683541667,66.0,112.0
889,148.31894623333332,148.50245662083333,63.0,122.0
890,148.79766898333332,148.92665816875,59.0,97.0
891,148.47852048333334,148.94926452083334,54.0,83.0
892,148.79766898333332,148.95857301875,63.0,127.0
893,148.79766898333332,148.95857301875,66.0,127.0
894,147.20192648333332,148.97320065833333,47.0,82.0
895,149.11681748333334,149.568944525,66.0,127.0
896,149.11681748333334,149.59022109166668,47.0,96.0
897,149.11681748333334,149.60351894583334,54.0,127.0
898,149.11681748333334,149.60750830208335,63.0,127.0
899,149.43596598333332,149.62745508333333,59.0,93.0
900,149.75511448333333,149.96389079375,54.0,127.0
901,149.75511448333333,149.97186950625,59.0,93.0
902,149.75511448333333,149.97319929166667,47.0,90.0
903,149.75511448333333,149.97851843333333,66.0,122.0
904,149.75511448333333,149.98516736041665,63.0,127.0
905,150.07426298333334,150.24846487291666,59.0,79.0
906,150.07426298333334,150.25777337083332,47.0,58.0
907,150.07426298333334,150.26043294166666,54.0,100.0
908,150.07426298333334,150.271071225,66.0,96.0
909,150.07426298333334,150.28303929375,63.0,97.0
910,150.39341148333332,150.56495380208332,47.0,85.0
911,150.39341148333332,150.56495380208332,59.0,96.0
912,150.39341148333332,150.58357079791668,54.0,117.0
913,150.39341148333332,150.59287929583334,66.0,112.0
914,150.39341148333332,150.60484736458332,63.0,127.0
915,150.71255998333334,150.86016616458332,47.0,78.0
916,150.71255998333334,150.86681509166667,54.0,107.0
917,150.71255998333334,150.88676187291668,59.0,96.0
918,150.71255998333334,150.89607037083334,66.0,102.0
919,150.71255998333334,150.89740015625,63.0,112.0
920,151.03170848333332,151.164687025,47.0,83.0
921,151.03170848333332,151.1726657375,54.0,122.0
922,151.03170848333332,151.18995294791665,59.0,97.0
923,151.03170848333332,151.20591037291666,63.0,127.0
924,151.03170848333332,151.2125593,66.0,122.0
925,151.35085698333333,151.47452702708333,47.0,72.0
926,151.35085698333333,151.49447380833334,54.0,117.0
927,151.35085698333333,151.50644187708332,59.0,95.0
928,151.35085698333333,151.51973973125,66.0,127.0
929,151.35085698333333,151.53436737083334,63.0,127.0
930,151.67000548333334,151.77771810208333,54.0,127.0
931,151.67000548333334,151.7790478875,47.0,70.0
932,151.67000548333334,151.81495209375,59.0,107.0
933,151.67000548333334,151.81628187916667,63.0,127.0
934,151.67000548333334,151.82293080624999,66.0,122.0
935,151.98915398333332,152.10218574375,66.0,112.0
936,151.98915398333332,152.12612188125,63.0,127.0
937,151.98915398333332,152.15005801875,59.0,95.0
938,152.30830248333334,152.77106780833333,59.0,107.0
939,152.30830248333334,152.78835501875,68.0,122.0
940,152.30830248333334,152.792344375,64.0,107.0
941,152.94659948333333,153.29766283333333,59.0,107.0
942,152.94659948333333,153.29899261875,68.0,117.0
943,152.94659948333333,153.30963090208334,64.0,117.0
944,152.30830248333334,153.42399244791667,52.0,96.0
945,152.30830248333334,153.42798180416668,40.0,86.0
946,153.42532223333333,153.685960175,59.0,97.0
947,153.58489648333332,153.69659845833334,40.0,83.0
948,153.58489648333332,153.69659845833334,52.0,99.0
949,153.42532223333333,153.76308772916667,68.0,100.0
950,153.42532223333333,153.89872584166667,64.0,99.0
951,153.90404498333334,154.28968275416668,52.0,96.0
952,153.90404498333334,154.29899125208334,40.0,89.0
953,154.22319348333332,154.80829906666668,64.0,127.0
954,154.54234198333333,154.834894775,59.0,100.0
955,154.22319348333332,154.8747883375,68.0,127.0
956,155.49978748333334,155.82691469583332,61.0,102.0
957,155.49978748333334,155.83489340833333,64.0,97.0
958,155.49978748333334,155.84420190625,68.0,97.0
959,154.86149048333334,155.97452087708334,37.0,93.0
960,154.86149048333334,155.97718044791665,49.0,102.0
961,156.13808448333333,156.22319075,37.0,88.0
962,156.13808448333333,156.24845667291666,49.0,99.0
963,155.97851023333334,156.25377581458332,64.0,89.0
964,155.97851023333334,156.2790417375,61.0,100.0
965,155.97851023333334,156.4465947,68.0,95.0
966,156.45723298333334,156.79499847916668,49.0,96.0
967,156.45723298333334,156.84287075416665,37.0,93.0
968,156.77638148333332,157.10749805208334,64.0,117.0
969,156.77638148333332,157.11813633541666,68.0,127.0
970,157.09552998333334,157.16334903958332,61.0,99.0
971,158.05297548333334,158.42265582916667,57.0,99.0
972,158.05297548333334,158.42265582916667,64.0,97.0
973,158.05297548333334,158.42797497083333,61.0,117.0
974,157.41467848333332,158.51042166666667,45.0,100.0
975,157.41467848333332,158.52238973541665,33.0,76.0
976,158.53169823333334,158.71121926458332,57.0,88.0
977,158.53169823333334,158.73382561666668,61.0,96.0
978,158.53169823333334,158.76574046666667,64.0,78.0
979,158.69127248333334,158.79632553125,33.0,68.0
980,158.69127248333334,158.79765531666666,45.0,95.0
981,159.01042098333332,159.30962270208335,33.0,83.0
982,159.01042098333332,159.36148433333332,45.0,99.0
983,159.32956948333333,159.558292575,64.0,100.0
984,159.32956948333333,159.58754785416667,61.0,127.0
985,159.64871798333334,159.81627094583334,57.0,70.0
986,159.96786648333332,160.42664245208334,57.0,93.0
987,159.96786648333332,160.43861052083332,61.0,127.0
988,159.96786648333332,160.44658923333333,66.0,112.0
989,159.96786648333332,160.69392932083332,54.0,96.0
990,159.96786648333332,160.74313138125,42.0,65.0
991,160.60616348333332,160.90536520208335,61.0,127.0
992,160.60616348333332,160.9066949875,66.0,102.0
993,160.60616348333332,160.91866305625,57.0,92.0
994,160.92531198333333,161.04499267083332,61.0,117.0
995,161.08488623333332,161.154035075,57.0,67.0
996,161.08488623333332,161.17398185625,66.0,79.0
997,161.24446048333334,161.29632211458332,60.0,78.0
998,161.24446048333334,161.31892846666668,63.0,107.0
999,161.24446048333334,161.3215880375,59.0,86.0
1000,161.24446048333334,161.33887524791666,66.0,102.0
1001,161.24446048333334,161.37211988333334,47.0,117.0
1002,161.56360898333332,162.04632108958333,66.0,122.0
1003,161.56360898333332,162.0556295875,63.0,127.0
1004,161.56360898333332,162.06493808541666,59.0,107.0
1005,161.56360898333332,162.10483164791665,47.0,127.0
1006,162.20190598333332,162.30828881666667,66.0,122.0
1007,162.20190598333332,162.32291645625,63.0,127.0
1008,162.20190598333332,162.3588206625,59.0,95.0
1009,162.52105448333333,163.037011225,59.0,96.0
1010,162.52105448333333,163.04366015208333,68.0,117.0
1011,162.52105448333333,163.05562822083334,64.0,107.0
1012,163.15935148333332,163.4917978375,68.0,102.0
1013,163.15935148333332,163.49445740833335,59.0,96.0
1014,163.15935148333332,163.50509569166667,64.0,102.0
1015,162.52105448333333,163.68195715208333,52.0,100.0
1016,162.52105448333333,163.70057414791665,40.0,75.0
1017,163.79764848333332,163.90536110208333,40.0,71.0
1018,163.79764848333332,163.91068024375,52.0,90.0
1019,163.63807423333333,163.94658445,59.0,85.0
1020,163.63807423333333,163.99312693958333,68.0,97.0
1021,163.63807423333333,163.99844608125,64.0,96.0
1022,164.11679698333333,164.46387097708333,52.0,95.0
1023,164.11679698333333,164.47184968958334,40.0,85.0
1024,164.43594548333334,164.66333878958332,64.0,127.0
1025,164.43594548333334,164.75908333958333,68.0,127.0
1026,165.07424248333334,165.35482720625,64.0,95.0
1027,165.07424248333334,165.38674205625,68.0,97.0
1028,165.07424248333334,165.54764609166668,61.0,100.0
1029,165.07424248333334,165.93860300416665,49.0,99.0
1030,165.71253948333333,165.94791150208334,64.0,99.0
1031,165.71253948333333,165.97051785416667,68.0,100.0
1032,165.71253948333333,165.99312420625,61.0,107.0
1033,166.03168798333334,166.1487091,49.0,27.0
1034,165.07424248333334,166.18195373541667,37.0,82.0
1035,166.19126223333333,166.41732575416665,64.0,90.0
1036,166.35083648333332,166.45588953125,49.0,75.0
1037,166.35083648333332,166.46386824375,37.0,73.0
1038,166.19126223333333,166.48780438125,61.0,97.0
1039,166.19126223333333,166.50110223541665,68.0,97.0
1040,166.66998498333334,166.9705164875,49.0,99.0
1041,166.66998498333334,167.02104833333334,37.0,99.0
1042,166.98913348333332,167.09285674583333,64.0,102.0
1043,166.98913348333332,167.0981758875,68.0,127.0
1044,167.62743048333334,167.94657898333332,61.0,122.0
1045,167.62743048333334,167.94790876875,57.0,97.0
1046,167.62743048333334,167.98248318958332,64.0,93.0
1047,168.26572748333334,168.39604645416668,61.0,127.0
1048,168.26572748333334,168.41200387916666,64.0,95.0
1049,168.26572748333334,168.41732302083332,57.0,96.0
1050,167.62743048333334,168.7417906625,33.0,67.0
1051,167.62743048333334,168.749769375,45.0,100.0
1052,168.90402448333333,169.00109881875,33.0,71.0
1053,168.90402448333333,169.01439667291666,45.0,99.0
1054,168.74445023333334,169.05296045,57.0,93.0
1055,168.74445023333334,169.2364708375,64.0,92.0
1056,168.74445023333334,169.24976869166667,61.0,122.0
1057,169.22317298333334,169.51971513125,33.0,72.0
1058,169.22317298333334,169.61412989583334,45.0,107.0
1059,169.54232148333332,169.79099135625,64.0,99.0
1060,169.54232148333332,169.80694878125,61.0,127.0
1061,170.18061848333332,170.53301161875,61.0,117.0
1062,170.18061848333332,170.64471359375,57.0,96.0
1063,170.18061848333332,170.66731994583333,66.0,102.0
1064,170.18061848333332,170.96253230833332,42.0,97.0
1065,170.18061848333332,170.97981951875,54.0,97.0
1066,170.81891548333334,171.09551085,57.0,107.0
1067,170.81891548333334,171.09551085,61.0,127.0
1068,170.81891548333334,171.1034895625,66.0,122.0
1069,171.29763823333334,171.35747857708333,66.0,69.0
1070,171.29763823333334,171.40269128125,61.0,112.0
1071,171.45721248333334,171.5343400375,63.0,112.0
1072,171.45721248333334,171.53566982291667,66.0,96.0
1073,171.45721248333334,171.53699960833333,59.0,99.0
1074,171.45721248333334,171.55162724791666,47.0,95.0
1075,171.77636098333332,172.2683815875,63.0,127.0
1076,171.77636098333332,172.26971137291667,66.0,127.0
1077,171.77636098333332,172.27237094375,59.0,100.0
1078,172.41465798333334,172.58354073125,66.0,122.0
1079,172.41465798333334,172.5875300875,63.0,127.0
1080,171.77636098333332,172.6034875125,47.0,117.0
1081,172.73380648333332,172.88806159166666,59.0,102.0
1082,172.73380648333332,172.89737008958332,66.0,112.0
1083,172.73380648333332,172.92396579791668,47.0,117.0
1084,172.73380648333332,172.92529558333334,63.0,127.0
1085,173.05295498333334,173.1939122375,59.0,81.0
1086,173.05295498333334,173.21119944791667,63.0,92.0
1087,173.05295498333334,173.217848375,66.0,92.0
1088,173.05295498333334,173.23513558541666,47.0,95.0
1089,173.37210348333332,173.50907138125,59.0,93.0
1090,173.37210348333332,173.53034794791665,63.0,127.0
1091,173.37210348333332,173.53832666041666,66.0,117.0
1092,173.37210348333332,173.55029472916667,47.0,102.0
1093,173.69125198333333,173.84151773541666,59.0,86.0
1094,173.69125198333333,173.85215601875,63.0,107.0
1095,173.69125198333333,173.85481558958332,66.0,96.0
1096,173.69125198333333,173.86279430208333,47.0,107.0
1097,174.01040048333334,176.505077925,63.0,117.0
1098,174.01040048333334,176.50906728125,47.0,96.0
1099,174.01040048333334,176.51837577916666,59.0,102.0
1100,174.01040048333334,176.52369492083332,66.0,102.0
1101,176.56358848333332,176.79364136041667,68.0,95.0
1102,176.56358848333332,176.79630093125,59.0,89.0
1103,176.56358848333332,176.79630093125,64.0,90.0
1104,177.20188548333334,177.50108720208334,59.0,89.0
1105,177.20188548333334,177.51172548541666,68.0,95.0
1106,177.20188548333334,177.5183744125,64.0,97.0
1107,176.56358848333332,177.70055501458333,52.0,92.0
1108,176.56358848333332,177.71518265416665,40.0,70.0
1109,177.84018248333334,177.96651209791668,52.0,86.0
1110,177.84018248333334,177.98246952291666,40.0,64.0
1111,177.68060823333334,178.17927776458333,59.0,83.0
1112,177.68060823333334,178.21385218541667,68.0,95.0
1113,177.68060823333334,178.21784154166667,64.0,92.0
1114,178.15933098333332,178.80560669583332,40.0,82.0
1115,178.15933098333332,178.80693648125,52.0,90.0
1116,178.47847948333333,179.08752120416668,64.0,102.0
1117,178.79762798333334,179.08885098958334,59.0,99.0
1118,178.47847948333333,179.09151056041668,68.0,107.0
1119,179.11677648333333,179.26438266458334,61.0,112.0
1120,179.11677648333333,179.29097837291667,57.0,97.0
1121,179.11677648333333,179.29230815833333,66.0,96.0
1122,179.75507348333332,179.88539245416666,57.0,90.0
1123,179.75507348333332,179.88672223958332,61.0,112.0
1124,179.75507348333332,179.89869030833333,66.0,92.0
1125,179.11677648333333,180.3189025,42.0,107.0
1126,179.11677648333333,180.32289185625,54.0,100.0
1127,180.39337048333334,180.47581717916665,42.0,95.0
1128,180.39337048333334,180.49177460416666,54.0,95.0
1129,180.23379623333332,180.63406164375,57.0,77.0
1130,180.23379623333332,180.65932756666666,61.0,96.0
1131,180.23379623333332,180.67528499166667,66.0,82.0
1132,180.71251898333333,181.14602902916667,42.0,107.0
1133,180.71251898333333,181.18991194791667,54.0,107.0
1134,181.03166748333334,181.36278405208333,66.0,122.0
1135,181.03166748333334,181.43193289375,61.0,127.0
1136,181.35081598333332,181.57421993333332,57.0,82.0
1137,181.66996448333333,182.16065530208334,57.0,99.0
1138,181.66996448333333,182.16730422916666,64.0,95.0
1139,181.66996448333333,182.16863401458332,61.0,112.0
1140,182.30826148333333,182.61544191458333,57.0,99.0
1141,182.30826148333333,182.6247504125,61.0,117.0
1142,182.30826148333333,182.63538869583334,64.0,95.0
1143,181.66996448333333,182.78033530625,45.0,88.0
1144,182.94655848333332,183.0715583125,45.0,96.0
1145,182.78698423333333,183.13671779791667,57.0,89.0
1146,182.78698423333333,183.26570698333333,61.0,100.0
1147,182.78698423333333,183.27235591041668,64.0,78.0
1148,183.26570698333333,183.60746183541667,45.0,102.0
1149,183.58485548333334,183.70453617083334,57.0,95.0
1150,183.58485548333334,184.2045354875,64.0,102.0
1151,183.58485548333334,184.23778012291666,61.0,127.0
1152,184.86144948333333,185.26171489375,68.0,99.0
1153,184.86144948333333,185.27235317708335,59.0,95.0
1154,184.86144948333333,185.28565103125,64.0,100.0
1155,184.22315248333334,185.46783163333333,40.0,81.0
1156,184.22315248333334,185.47581034583334,52.0,97.0
1157,185.34017223333333,185.5290017625,59.0,83.0
1158,185.34017223333333,185.56623575416666,68.0,99.0
1159,185.34017223333333,185.57288468125,64.0,92.0
1160,185.49974648333333,185.60479953125,52.0,83.0
1161,185.49974648333333,185.61277824375,40.0,71.0
1162,185.81889498333334,186.57820245625,40.0,75.0
1163,185.81889498333334,186.59681945208334,52.0,102.0
1164,186.45719198333333,186.80692554791668,59.0,95.0
1165,186.13804348333332,186.82288297291666,68.0,117.0
1166,186.13804348333332,186.83086168541666,64.0,117.0
1167,187.41463748333334,187.76171147708334,59.0,99.0
1168,187.41463748333334,187.7789986875,68.0,97.0
1169,187.41463748333334,187.7869774,64.0,97.0
1170,186.77634048333334,187.94389207916666,40.0,82.0
1171,186.77634048333334,187.96649843125,52.0,100.0
1172,188.05293448333333,188.15000881875,40.0,77.0
1173,188.05293448333333,188.15532796041666,52.0,88.0
1174,187.89336023333334,188.34814684583333,59.0,93.0
1175,187.89336023333334,188.41064676041665,64.0,95.0
1176,187.89336023333334,188.41197654583334,68.0,97.0
1177,188.37208298333334,188.83750787916668,40.0,83.0
1178,188.37208298333334,188.87873122708334,52.0,96.0
1179,188.69123148333333,189.30027320416667,64.0,112.0
1180,188.69123148333333,189.31623062916665,68.0,127.0
1181,189.01037998333334,189.3268689125,59.0,99.0
1182,189.96782548333334,190.33750582916667,57.0,95.0
1183,189.96782548333334,190.34415475625,61.0,107.0
1184,189.96782548333334,190.35080368333334,66.0,88.0
1185,189.32952848333332,190.49309072291666,54.0,93.0
1186,189.32952848333332,190.5077183625,42.0,93.0
1187,190.60612248333334,190.70452660416666,42.0,89.0
1188,190.60612248333334,190.71383510208332,54.0,75.0
1189,190.44654823333335,190.79761158333332,57.0,89.0
1190,190.44654823333335,190.80957965208333,61.0,107.0
1191,190.44654823333335,190.8906965625,66.0,93.0
1192,190.92527098333332,191.32819596458333,42.0,92.0
1193,190.92527098333332,191.345483175,54.0,93.0
1194,191.24441948333333,191.80292935833333,66.0,122.0
1195,191.24441948333333,191.86941862916666,61.0,127.0
1196,191.56356798333334,191.89734412291668,57.0,86.0
1197,192.52101348333332,192.91994910833333,57.0,93.0
1198,192.52101348333332,192.92127889374999,64.0,90.0
1199,192.52101348333332,192.93191717708333,61.0,112.0
1200,191.88271648333333,193.0848425,45.0,99.0
1201,192.99973623333332,193.27234224375,57.0,88.0
1202,193.15931048333334,193.28829966875,45.0,82.0
1203,192.99973623333332,193.45319306041665,61.0,117.0
1204,192.99973623333332,193.48909726666668,64.0,86.0
1205,193.47845898333333,193.80425641041666,45.0,93.0
1206,193.79760748333334,194.41063856041666,64.0,102.0
1207,193.79760748333334,194.43058534166667,61.0,127.0
1208,194.11675598333332,194.4492023375,57.0,78.0
1209,195.07420148333333,195.47180732291667,59.0,90.0
1210,195.07420148333333,195.4864349625,68.0,95.0
1211,195.07420148333333,195.49175410416666,64.0,95.0
1212,194.43590448333333,195.717817625,52.0,99.0
1213,195.71249848333332,195.717817625,52.0,82.0
1214,194.43590448333333,195.72047719583333,40.0,76.0
1215,195.71249848333332,195.72047719583333,40.0,81.0
1216,195.55292423333333,195.88404080208332,59.0,93.0
1217,195.55292423333333,195.94521093125,68.0,96.0
1218,195.55292423333333,196.01834912916667,64.0,95.0
1219,196.03164698333333,196.74840132291666,40.0,89.0
1220,196.03164698333333,196.75505025,52.0,95.0
1221,196.35079548333334,196.79095445625,68.0,127.0
1222,196.35079548333334,196.80824166666667,64.0,117.0
1223,196.66994398333333,196.85478415625,59.0,79.0
1224,196.98909248333334,199.29494039583332,52.0,95.0
1225,196.98909248333334,199.39334451666667,40.0,86.0
1226,196.98909248333334,199.40797215625,59.0,99.0
1227,196.98909248333334,199.44121679166668,64.0,96.0
1228,196.98909248333334,199.46382314375,68.0,107.0
1229,199.54228048333334,199.68988666458333,61.0,112.0
1230,199.54228048333334,199.71648237291666,57.0,97.0
1231,199.54228048333334,199.71781215833334,66.0,96.0
1232,200.18057748333334,200.31089645416665,57.0,90.0
1233,200.18057748333334,200.31222623958334,61.0,112.0
1234,200.18057748333334,200.32419430833332,66.0,92.0
1235,199.54228048333334,200.7444065,42.0,107.0
1236,199.54228048333334,200.74839585625,54.0,100.0
1237,200.81887448333333,200.90132117916667,42.0,95.0
1238,200.81887448333333,200.91727860416665,54.0,95.0
1239,200.65930023333334,201.05956564375,57.0,77.0
1240,200.65930023333334,201.08483156666668,61.0,96.0
1241,200.65930023333334,201.10078899166666,66.0,82.0
1242,201.13802298333334,201.57153302916666,42.0,107.0
1243,201.13802298333334,201.61541594791666,54.0,107.0
1244,201.45717148333333,201.78828805208335,66.0,122.0
1245,201.45717148333333,201.85743689375,61.0,127.0
1246,201.77631998333334,201.99972393333334,57.0,82.0
1247,202.09546848333332,202.58615930208333,57.0,99.0
1248,202.09546848333332,202.59280822916668,64.0,95.0
1249,202.09546848333332,202.59413801458334,61.0,112.0
1250,202.73376548333334,203.04094591458332,57.0,99.0
1251,202.73376548333334,203.0502544125,61.0,117.0
1252,202.73376548333334,203.06089269583333,64.0,95.0
1253,202.09546848333332,203.20583930625,45.0,88.0
1254,203.37206248333334,203.4970623125,45.0,96.0
1255,203.21248823333335,203.56222179791666,57.0,89.0
1256,203.21248823333335,203.69121098333332,61.0,100.0
1257,203.21248823333335,203.69785991041667,64.0,78.0
1258,203.69121098333332,204.03296583541666,45.0,102.0
1259,204.01035948333333,204.13004017083333,57.0,95.0
1260,204.01035948333333,204.6300394875,64.0,102.0
1261,204.01035948333333,204.66328412291668,61.0,127.0
1262,205.28695348333332,205.68721889374999,68.0,99.0
1263,205.28695348333332,205.69785717708334,59.0,95.0
1264,205.28695348333332,205.71115503125,64.0,100.0
1265,204.64865648333333,205.89333563333332,40.0,81.0
1266,204.64865648333333,205.90131434583333,52.0,97.0
1267,205.76567623333332,205.9545057625,59.0,83.0
1268,205.76567623333332,205.99173975416667,68.0,99.0
1269,205.76567623333332,205.99838868125,64.0,92.0
1270,205.92525048333334,206.03030353125,52.0,83.0
1271,205.92525048333334,206.03828224375,40.0,71.0
1272,206.24439898333333,207.00370645625,40.0,75.0
1273,206.24439898333333,207.02232345208333,52.0,102.0
1274,206.88269598333332,207.23242954791667,59.0,95.0
1275,206.56354748333334,207.24838697291668,68.0,117.0
1276,206.56354748333334,207.25636568541665,64.0,117.0
1277,207.84014148333333,208.18721547708333,59.0,99.0
1278,207.84014148333333,208.2045026875,68.0,97.0
1279,207.84014148333333,208.2124814,64.0,97.0
1280,207.20184448333333,208.36939607916668,40.0,82.0
1281,207.20184448333333,208.39200243125,52.0,100.0
1282,208.47843848333332,208.57551281874998,40.0,77.0
1283,208.47843848333332,208.58083196041667,52.0,88.0
1284,208.31886423333333,208.77365084583334,59.0,93.0
1285,208.31886423333333,208.83615076041667,64.0,95.0
1286,208.31886423333333,208.83748054583333,68.0,97.0
1287,208.79758698333333,209.26301187916667,40.0,83.0
1288,208.79758698333333,209.30423522708332,52.0,96.0
1289,209.11673548333334,209.72577720416666,64.0,112.0
1290,209.11673548333334,209.74173462916667,68.0,127.0
1291,209.43588398333333,209.7523729125,59.0,99.0
1292,210.39332948333333,210.76300982916666,57.0,95.0
1293,210.39332948333333,210.76965875625,61.0,107.0
1294,210.39332948333333,210.77630768333333,66.0,88.0
1295,209.75503248333334,210.91859472291665,54.0,93.0
1296,209.75503248333334,210.9332223625,42.0,93.0
1297,211.03162648333333,211.13003060416668,42.0,89.0
1298,211.03162648333333,211.13933910208334,54.0,75.0
1299,210.87205223333333,211.22311558333334,57.0,89.0
1300,210.87205223333333,211.23508365208332,61.0,107.0
1301,210.87205223333333,211.3162005625,66.0,93.0
1302,211.35077498333334,211.75369996458332,42.0,92.0
1303,211.35077498333334,211.770987175,54.0,93.0
1304,211.66992348333332,212.22843335833332,66.0,122.0
1305,211.66992348333332,212.29492262916668,61.0,127.0
1306,211.98907198333333,212.32284812291667,57.0,86.0
1307,212.94651748333334,213.34545310833334,57.0,93.0
1308,212.94651748333334,213.34678289375,64.0,90.0
1309,212.94651748333334,213.35742117708332,61.0,112.0
1310,212.30822048333334,213.5103465,45.0,99.0
1311,213.42524023333334,213.69784624375,57.0,88.0
1312,213.58481448333333,213.71380366875,45.0,82.0
1313,213.42524023333334,213.87869706041667,61.0,117.0
1314,213.42524023333334,213.91460126666666,64.0,86.0
1315,213.90396298333334,214.22976041041667,45.0,93.0
1316,214.22311148333333,214.83614256041668,64.0,102.0
1317,214.22311148333333,214.85608934166666,61.0,127.0
1318,214.54225998333334,214.86140848333332,57.0,78.0
1319,214.86140848333332,219.4544873125,52.0,93.0
1320,214.86140848333332,219.46113623958334,47.0,96.0
1321,214.86140848333332,219.462466025,63.0,127.0
1322,214.86140848333332,219.47842345,64.0,112.0
1323,214.86140848333332,219.48507237708333,68.0,107.0
1324,214.86140848333332,219.49039151875,59.0,102.0
1325,214.86140848333332,219.49970001666668,40.0,69.0
