,start,end,pitch,velocity
0,7.178874045833334,7.762925341666667,68.0,83.0
1,7.711201241666667,8.887924516666667,75.0,86.0
2,8.866372808333333,9.0323209625,76.0,65.0
3,8.978441691666667,9.137924333333334,75.0,75.0
4,9.1228381375,9.441803420833335,73.0,82.0
5,9.519389570833333,12.403008145833335,73.0,84.0
6,12.995680125,13.497834929166666,68.0,84.0
7,13.487059075000001,16.017229633333333,80.0,83.0
8,16.043091683333333,16.4805913625,78.0,72.0
9,16.4482638,17.55817677916667,80.0,74.0
10,17.510763020833334,17.7607628375,78.0,71.0
11,17.728435275,21.894380495833335,80.0,73.0
12,38.159454775,38.556006208333336,68.0,87.0
13,38.676695775,39.11419545416667,68.0,87.0
14,39.193936775000005,39.58617786666667,73.0,88.0
15,39.711177775,40.08186715833334,73.0,85.0
16,40.228418775,42.15729667083333,73.0,83.0
17,42.297382775,42.672382500000005,73.0,87.0
18,42.814623775,42.999968466666665,73.0,84.0
19,43.073244275,43.25212345416667,75.0,79.0
20,43.331864775,43.80169201666667,71.0,78.0
21,43.849105775,44.127122812500005,68.0,83.0
22,44.107726275000005,44.37065711666667,66.0,76.0
23,44.366346775000004,46.14651788333334,68.0,85.0
24,46.435310775000005,46.8297070375,68.0,84.0
25,46.952551775,47.97194757916667,68.0,84.0
26,47.987033775,48.530136825,71.0,83.0
27,48.504274775,49.053843337500005,73.0,85.0
28,49.021515775000005,49.28444661666667,71.0,79.0
29,49.280136275000004,49.58617053333334,68.0,83.0
30,49.538756775,50.33832515416667,66.0,80.0
31,50.573238775,50.81892825,66.0,79.0
32,50.831859275,51.1098763125,68.0,75.0
33,51.090479775,51.398669204166666,66.0,76.0
34,51.349100275000005,51.530134625,68.0,81.0
35,51.581858725000004,51.86418610416667,64.0,84.0
36,51.86203093333334,52.04522045416667,61.0,84.0
37,52.124961775,52.372806420833335,61.0,80.0
38,52.383582275,52.65297862916667,59.0,77.0
39,52.642202775,54.47409798333334,61.0,79.0
40,54.711166775,55.07539064583334,61.0,84.0
41,55.228407775,55.62064886666667,61.0,86.0
42,55.745648775,56.652975695833334,66.0,82.0
43,56.780130775,57.047371958333336,66.0,83.0
44,57.038751275,57.30168211666667,68.0,83.0
45,57.297371775,58.54306051666667,61.0,85.0
46,58.849094775000005,59.59693905416667,73.0,89.0
47,59.624956275,59.88142160416667,75.0,82.0
48,59.883576775,60.45685221666667,71.0,64.0
49,60.400817775,60.66805895833333,68.0,80.0
50,60.659438275,60.948231166666666,66.0,82.0
51,60.918058775000006,62.58185065833334,68.0,77.0
52,63.504263775000005,63.900815208333334,66.0,83.0
53,64.021504775,64.47624582083334,66.0,81.0
54,64.53874577500001,65.06891780000001,68.0,78.0
55,65.05598677500001,65.73271041666666,71.0,79.0
56,65.831848275,65.9999516,71.0,79.0
57,66.090468775,66.63141665416667,71.0,83.0
58,66.607709775,67.14219214166667,68.0,81.0
59,67.124950775,67.63788143333333,73.0,84.0
60,67.642191775,67.89865710416667,68.0,79.0
61,67.900812275,68.16374311666667,66.0,81.0
62,68.159432775,68.95900115416667,64.0,83.0
63,68.935294275,69.2262423375,66.0,80.0
64,69.193914775,69.71546611666668,68.0,81.0
65,69.71115577500001,69.96115559166667,66.0,81.0
66,69.969776275,70.26287950833334,68.0,76.0
67,70.22839677500001,70.5064138125,64.0,79.0
68,70.487017275,71.081844425,61.0,82.0
69,71.004258275,71.28443048333334,59.0,78.0
70,71.262878775,72.15727467083333,61.0,83.0
71,72.297360775,72.55813644583334,61.0,84.0
72,72.55598127500001,72.80598109166667,64.0,77.0
73,72.814601775,73.10770500833334,66.0,77.0
74,73.073222275,73.34046345833333,68.0,84.0
75,73.331842775,75.323220625,73.0,84.0
76,76.435288775,76.95468494583334,68.0,82.0
77,76.952529775,77.3275295,73.0,85.0
78,77.469770775,79.35554525416667,73.0,83.0
79,79.53873477500001,79.96976894166667,73.0,84.0
80,80.05597577500001,80.23485495416666,73.0,85.0
81,80.314596275,80.56244092083334,71.0,74.0
82,80.573216775,81.39218169166666,68.0,82.0
83,81.607698775,81.77538575625,68.0,84.0
84,81.86551434375001,82.309719525,68.0,85.0
85,82.38053484375,82.65950428125001,71.0,83.0
86,82.63804509375001,83.19383805000001,73.0,88.0
87,83.15306559375,83.38482481875,71.0,84.0
88,83.41057584375001,83.6873993625,66.0,83.0
89,83.66808609375,85.9234467,68.0,83.0
90,86.75820909375,87.24747856875,68.0,85.0
91,87.27322959375,87.67880823750001,73.0,85.0
92,87.78825009375001,89.70670145625,73.0,85.0
93,89.84833209375,90.62515468125001,73.0,92.0
94,90.62086284375,90.8805190125,71.0,79.0
95,90.87837309375,91.71098956875001,68.0,83.0
96,91.90841409375,92.71957138125,68.0,84.0
97,92.68094484375,92.98995714375,71.0,83.0
98,92.93845509375001,93.26463474375001,73.0,84.0
99,93.19596534375,93.4041194625,75.0,81.0
100,93.45347559375,93.71956951875,71.0,83.0
101,93.71098584375001,93.966350175,66.0,74.0
102,93.96849609375,96.02428625625001,68.0,78.0
103,97.05861909375,97.42771711875,61.0,76.0
104,97.57363959375,97.966342725,66.0,82.0
105,98.08866009375001,100.22170333125,66.0,76.0
106,100.40625234375,100.57792584375,64.0,78.0
107,100.66376259375001,100.82256058125,64.0,84.0
108,100.92127284375,101.09938410000001,66.0,84.0
109,101.17878309375,101.63800970625,68.0,83.0
110,101.69380359375,102.20453225625,68.0,75.0
111,102.20882409375,102.73886602500001,66.0,81.0
112,102.72384459375,102.98993851875,64.0,83.0
113,102.98135484375,103.29036714375,59.0,72.0
114,103.23886509375001,105.38922484375,61.0,84.0
115,123.92369401041667,124.32024544375,68.0,87.0
116,124.44093501041667,124.87843468958334,68.0,87.0
117,124.95817601041668,125.35041710208334,73.0,88.0
118,125.47541701041666,125.84610639375,73.0,85.0
119,125.99265801041668,127.92153590625,73.0,83.0
120,128.06162201041667,128.43662173541668,73.0,87.0
121,128.57886301041668,128.76420770208333,73.0,84.0
122,128.83748351041666,129.01636268958333,75.0,79.0
123,129.09610401041667,129.56593125208335,71.0,78.0
124,129.61334501041668,129.8913620479167,68.0,83.0
125,129.87196551041666,130.13489635208333,66.0,76.0
126,130.13058601041666,131.91075711875,68.0,85.0
127,132.19955001041666,132.59394627291667,68.0,84.0
128,132.71679101041667,133.73618681458333,68.0,84.0
129,133.75127301041667,134.29437606041668,71.0,83.0
130,134.26851401041668,134.81808257291667,73.0,85.0
131,134.78575501041666,135.04868585208334,71.0,79.0
132,135.04437551041667,135.35040976875,68.0,83.0
133,135.30299601041668,136.10256438958334,66.0,80.0
134,136.33747801041667,136.58316748541668,66.0,79.0
135,136.59609851041668,136.8741155479167,68.0,75.0
136,136.85471901041666,137.16290843958333,66.0,76.0
137,137.11333951041667,137.29437386041667,68.0,81.0
138,137.34178761875,137.62627016875,64.0,84.0
139,137.63058051041668,137.83316656875002,61.0,84.0
140,137.88920101041668,138.13704565625,61.0,80.0
141,138.14782151041666,138.41721786458334,59.0,77.0
142,138.40644201041667,140.23833721875002,61.0,79.0
143,140.47540601041666,140.83962988125,61.0,84.0
144,140.99264701041668,141.38488810208332,61.0,86.0
145,141.50988801041666,142.41721493125,66.0,82.0
146,142.54437001041669,142.81161119375,66.0,83.0
147,142.80299051041666,143.06592135208334,68.0,83.0
148,143.06161101041667,144.30729975208334,61.0,85.0
149,144.61333401041668,145.36117828958334,73.0,89.0
150,145.38919551041667,145.64566083958334,75.0,82.0
151,145.64781601041668,146.22109145208333,71.0,64.0
152,146.16505701041666,146.43229819375,68.0,80.0
153,146.42367751041667,146.71247040208334,66.0,82.0
154,146.68229801041667,148.34608989375,68.0,77.0
155,149.26850301041668,149.66505444375,66.0,83.0
156,149.78574401041666,150.24048505625,66.0,81.0
157,150.30298501041668,150.83315703541666,68.0,78.0
158,150.82022601041666,151.49694965208334,71.0,79.0
159,151.59608751041668,151.76419083541668,71.0,79.0
160,151.8547080104167,152.39565588958334,71.0,83.0
161,152.37194901041667,152.90643137708332,68.0,81.0
162,152.88919001041666,153.40212066875,73.0,84.0
163,153.40643101041667,153.66289633958334,68.0,79.0
164,153.66505151041667,153.92798235208335,66.0,81.0
165,153.92367201041668,154.72324038958334,64.0,83.0
166,154.69953351041667,154.99048157291668,66.0,80.0
167,154.95815401041668,155.47970535208333,68.0,81.0
168,155.47539501041666,155.72539482708333,66.0,81.0
169,155.73401551041667,156.02711874375,68.0,76.0
170,155.99263601041667,156.27065304791668,64.0,79.0
171,156.25125651041668,156.84608366041667,61.0,82.0
172,156.76849751041667,157.04866971875,59.0,78.0
173,157.02711801041667,157.96677249375,61.0,83.0
174,158.06160001041667,158.32237568125,61.0,84.0
175,158.32022051041668,158.57022032708335,64.0,77.0
176,158.57884101041668,158.87194424375002,66.0,77.0
177,158.8374615104167,159.10470269375,68.0,84.0
178,159.09608201041667,161.0874598604167,73.0,84.0
179,162.19952801041666,162.71892418125,68.0,82.0
180,162.71676901041667,163.09176873541668,73.0,85.0
181,163.23401001041668,165.11978448958334,73.0,83.0
182,165.30297401041668,165.73400817708335,73.0,84.0
183,165.8202150104167,165.99909418958333,73.0,85.0
184,166.07883551041667,166.32668015625,71.0,74.0
185,166.33745601041667,167.15642092708333,68.0,82.0
186,167.37193801041667,167.54004133541667,68.0,84.0
187,167.63055851041668,168.07667887291666,68.0,85.0
188,168.1477995104167,168.42797171875,71.0,83.0
189,168.40642001041667,168.96460925625001,73.0,88.0
190,168.92366101041665,169.15641946041666,71.0,84.0
191,169.18228151041666,169.4602985479167,66.0,83.0
192,169.44090201041666,171.70598655625002,68.0,83.0
193,172.54434801041668,173.03572696041667,68.0,85.0
194,173.06158901041667,173.46891629791668,73.0,85.0
195,173.57883001041665,175.50555273541667,73.0,85.0
196,175.64779401041667,176.42796585208333,73.0,92.0
197,176.42365551041667,176.68443118125,71.0,79.0
198,176.68227601041667,177.51848229375003,68.0,83.0
199,177.71675801041667,178.53141258541666,68.0,84.0
200,178.49261951041666,178.80296411041667,71.0,83.0
201,178.75124001041667,179.07882597708334,73.0,84.0
202,179.00986051041667,179.21891208125,75.0,81.0
203,179.26848101041668,179.53572219375002,71.0,83.0
204,179.52710151041668,179.78356683958333,66.0,74.0
205,179.7857220104167,181.85037566875002,68.0,78.0
206,182.88916801041665,183.25985739375,61.0,76.0
207,183.40640901041667,183.80080527291668,66.0,82.0
208,183.92365001041668,186.06588981875,66.0,76.0
209,186.25123451041668,186.42364817708335,64.0,78.0
210,186.5098550104167,186.66933765208336,64.0,84.0
211,186.7684755104167,186.94735468958334,66.0,84.0
212,187.02709601041667,187.48830256875,68.0,83.0
213,187.54433701041665,188.05726766875,68.0,75.0
214,188.06157801041667,188.59390520624999,66.0,81.0
215,188.57881901041668,188.84606019375002,64.0,83.0
216,188.8374395104167,189.1477841104167,59.0,72.0
217,189.0960600104167,191.25123084375002,61.0,84.0
218,192.19950601041666,192.57019539375,61.0,76.0
219,192.71674701041667,193.11114327291668,66.0,82.0
220,193.23398801041668,195.37622781875,66.0,76.0
221,195.8201930104167,196.22536512708334,64.0,84.0
222,196.33743401041667,196.75553715208332,64.0,84.0
223,196.85467501041666,197.28355400625,66.0,84.0
224,197.37191601041667,198.2900187854167,68.0,84.0
225,198.4063980104167,199.44303518125002,68.0,86.0
226,199.44088001041666,201.50553366875,71.0,85.0
227,201.50984401041666,201.81156792708333,68.0,76.0
228,201.78570587708333,202.08742979375,71.0,76.0
229,202.05079188958334,202.31156756041668,73.0,77.0
230,202.30079170625,202.56372254791665,76.0,77.0
231,202.54432601041668,202.92148090625,78.0,84.0
232,202.88915334375002,206.07018549375,80.0,76.0
233,206.10897856875,206.56587478541667,83.0,94.0
234,206.49690931875,206.86328836041668,78.0,90.0
235,206.78570221041667,207.24259842708335,76.0,84.0
236,207.23397774375002,209.6693207854167,71.0,84.0
237,209.7857000104167,216.81586726875003,73.0,84.0
