,start,end,pitch,velocity
0,2.6336187583333333,2.771549691666667,37.0,83.0
1,4.140083170833334,4.256462395833333,68.0,78.0
2,4.5840483625,4.918099841666667,66.0,83.0
3,4.885772279166667,4.9978411625,68.0,84.0
4,5.209047904166667,5.5086166500000004,73.0,84.0
5,5.517237333333334,6.771546758333334,68.0,76.0
6,6.670253729166667,6.840512225,73.0,83.0
7,7.439649716666667,7.547408258333333,68.0,54.0
8,7.495684158333334,7.605597870833334,73.0,85.0
9,7.620684066666667,7.689649533333333,78.0,78.0
10,7.614218554166667,7.711201241666667,80.0,76.0
11,8.04309755,8.390080054166667,78.0,83.0
12,8.357752491666666,8.474131716666667,80.0,88.0
13,8.713355679166668,8.808183195833333,87.0,85.0
14,9.1551657,9.254303558333334,85.0,92.0
15,3.5323249958333336,10.573268108333334,56.0,70.0
16,3.1465494166666668,10.624992208333333,49.0,69.0
17,10.4159406375,11.0107677875,83.0,79.0
18,11.150853891666667,11.2693882875,85.0,53.0
19,11.2047331625,11.452577808333334,83.0,72.0
20,11.435336441666667,11.784474116666667,80.0,67.0
21,11.745681041666668,12.43964605,78.0,69.0
22,12.403008145833335,13.0861973,80.0,60.0
23,11.771543091666667,13.2219730625,61.0,41.0
24,12.984904270833335,13.493524587500001,73.0,49.0
25,13.4999901,13.890076020833334,80.0,66.0
26,13.911627729166668,14.603437566666667,73.0,42.0
27,14.584041029166666,14.7413685,80.0,38.0
28,11.252146920833333,15.385764579166667,49.0,68.0
29,16.1961088125,16.418091408333336,68.0,75.0
30,16.478436191666667,16.775849766666667,66.0,71.0
31,16.7262808375,17.392228625,68.0,81.0
32,17.892228258333333,18.403003745833335,73.0,66.0
33,18.3297279375,18.946106795833334,75.0,80.0
34,19.090503241666667,19.331882375,73.0,54.0
35,19.269382420833335,19.491365016666666,75.0,73.0
36,19.443951258333335,19.864209570833335,80.0,72.0
37,19.825416495833334,20.59696765416667,78.0,73.0
38,19.28446861666667,21.090501775,37.0,58.0
39,22.124983775,22.7004143875,56.0,75.0
40,22.383604275,22.879293566666668,49.0,79.0
41,22.642224775000003,23.1142071875,61.0,83.0
42,23.159465775,23.467655204166668,49.0,74.0
43,22.900845275000002,23.48705174166667,56.0,72.0
44,21.866363275,23.491362083333335,44.0,65.0
45,21.607742775000002,23.530155158333333,37.0,83.0
46,23.418086275,23.831879075,61.0,77.0
47,24.193947775,24.5366199375,56.0,74.0
48,24.452568275,24.741361166666668,61.0,83.0
49,23.935327275000002,24.995671325,44.0,65.0
50,24.711188775,25.021533375,64.0,85.0
51,23.676706775,25.06032645,37.0,83.0
52,24.969809275,25.161619479166667,61.0,67.0
53,25.228429775000002,25.549550229166666,56.0,79.0
54,25.487050275,25.978429225,64.0,74.0
55,26.262911775000003,26.8448079,59.0,75.0
56,26.521532275000002,26.879290633333333,52.0,73.0
57,26.780152775,27.10127322916667,64.0,81.0
58,27.038773275,27.364204070833335,59.0,77.0
59,26.004291275,27.637910766666668,47.0,72.0
60,25.745670775,27.655152133333335,40.0,83.0
61,27.297393775,27.894376095833334,52.0,76.0
62,27.556014275000003,28.062479420833334,59.0,71.0
63,28.331875775,28.842651262500002,56.0,73.0
64,28.590496275,28.948254633333335,52.0,67.0
65,28.849116775000002,29.452564608333333,59.0,74.0
66,29.107737275,29.480581829166667,56.0,70.0
67,27.814634775000002,29.672392033333335,40.0,78.0
68,28.073255275,29.69394374166667,47.0,65.0
69,29.366357775,29.758598866666667,64.0,79.0
70,29.624978275,29.911615995833333,52.0,83.0
71,30.142219275000002,30.42454665416667,57.0,61.0
72,30.400839775,30.825408429166668,52.0,74.0
73,30.659460275,31.062477220833333,57.0,72.0
74,30.918080775,31.219804691666667,64.0,83.0
75,31.176701275000003,31.476270020833333,61.0,71.0
76,29.883598775,31.788769791666667,45.0,79.0
77,31.435321775000002,31.8103215,57.0,72.0
78,31.693942275,32.15730400416667,61.0,79.0
79,32.469803775,32.909458625,54.0,83.0
80,32.728424275,33.053855070833336,61.0,78.0
81,32.987044775,33.357734158333336,66.0,83.0
82,33.245665275,33.56678572916667,61.0,80.0
83,32.211183275,33.58618226666667,49.0,67.0
84,31.952562775,33.73273388333333,42.0,84.0
85,33.504285775,33.913768233333336,54.0,79.0
86,33.762906275,34.10342326666667,61.0,79.0
87,34.538767775000004,34.931008866666666,56.0,77.0
88,34.797388275,35.07971565416667,61.0,76.0
89,35.056008775,35.33833615416667,64.0,81.0
90,35.314629275,35.6443704125,61.0,73.0
91,34.280147275000004,35.8965254,44.0,72.0
92,34.021526775,35.9159219375,37.0,84.0
93,35.573249775,36.068939066666665,56.0,71.0
94,35.831870275,36.30600785833334,61.0,70.0
95,36.866352275000004,37.17885204583334,61.0,72.0
96,36.607731775000005,37.18531755833334,56.0,70.0
97,37.642213775,38.118506529166666,61.0,65.0
98,37.124972775,38.131437554166666,64.0,75.0
99,36.349111275,38.15083409166667,44.0,67.0
100,36.090490775,38.17023062916667,37.0,85.0
101,38.676695775,39.20902297083334,61.0,79.0
102,38.935316275,39.24135053333333,64.0,70.0
103,39.193936775000005,39.48704000833334,68.0,73.0
104,39.452557275000004,39.73488465416667,64.0,79.0
105,38.159454775,40.004281008333336,49.0,85.0
106,38.418075275,40.04307408333334,56.0,64.0
107,39.711177775,40.2090222375,61.0,69.0
108,39.969798275,40.72841840833333,64.0,73.0
109,40.745659775,41.0495388625,61.0,65.0
110,41.004280275,41.15729740416667,64.0,64.0
111,41.262900775,41.558159179166665,68.0,78.0
112,40.487039275,41.71979699166667,56.0,65.0
113,40.228418775,41.81677967916667,49.0,84.0
114,41.521521275000005,41.82109002083334,64.0,68.0
115,41.780141775000004,42.096951887500005,61.0,76.0
116,42.038762275,42.4654861,64.0,77.0
117,42.814623775,43.107727008333335,56.0,77.0
118,43.073244275,43.34264062916667,59.0,75.0
119,43.331864775,43.55384737083334,63.0,83.0
120,43.590485275,43.874967825,59.0,69.0
121,43.849105775,44.185312425,56.0,74.0
122,42.297382775,44.18746759583333,44.0,83.0
123,42.556003275,44.21332964583333,51.0,70.0
124,44.107726275000005,44.806001625,59.0,70.0
125,44.883587775,45.31246677083333,56.0,72.0
126,45.142208275,45.43100116666667,59.0,71.0
127,45.400828775,45.732725083333335,63.0,81.0
128,44.624967275,45.909449091666666,51.0,67.0
129,45.659449275,45.971949045833334,59.0,78.0
130,44.366346775000004,46.01936280416667,44.0,77.0
131,45.918069775,46.29091432916667,56.0,79.0
132,46.176690275,46.65944854166667,59.0,72.0
133,46.952551775,47.4891893125,52.0,76.0
134,47.211172275,47.517206533333336,59.0,77.0
135,47.469792775,47.775827033333336,63.0,83.0
136,47.728413275,48.06893026666667,59.0,78.0
137,46.435310775000005,48.24996461666667,40.0,83.0
138,46.693931275000004,48.2585853,47.0,62.0
139,47.987033775,48.32755076666667,52.0,73.0
140,48.245654275,48.495654091666665,59.0,77.0
141,48.762895275000005,49.400825841666666,54.0,74.0
142,49.021515775000005,49.4676361375,59.0,77.0
143,49.280136275000004,49.616342925000005,61.0,74.0
144,49.538756775,49.84479103333334,63.0,83.0
145,49.797377275,50.13789426666667,61.0,74.0
146,48.504274775,50.381428570833336,47.0,78.0
147,50.055997775,50.381428570833336,59.0,80.0
148,50.314618275,50.672376633333336,54.0,75.0
149,51.349100275000005,51.64220350833334,56.0,72.0
150,51.090479775,51.65513453333334,52.0,76.0
151,50.831859275,52.11634109166667,47.0,69.0
152,51.866341275,52.18746172916667,56.0,71.0
153,50.573238775,52.19177207083334,40.0,83.0
154,51.607720775000004,52.46547876666667,59.0,78.0
155,52.124961775,52.538754575,52.0,74.0
156,52.383582275,52.631426920833334,56.0,73.0
157,52.900823275,53.5279779875,56.0,74.0
158,53.159443775,53.663753750000005,61.0,73.0
159,53.418064275,53.69177097083333,64.0,73.0
160,53.676684775000005,54.01504659583333,68.0,77.0
161,53.935305275000005,54.301684316666666,64.0,76.0
162,52.642202775,54.484873837500004,49.0,78.0
163,54.193925775000004,54.52582208333334,61.0,82.0
164,54.452546275,54.840477025000006,56.0,80.0
165,55.228407775,55.65297642916667,54.0,76.0
166,55.487028275,55.799528045833334,61.0,77.0
167,55.745648775,56.05168303333333,66.0,84.0
168,56.004269275000006,56.38357934166667,61.0,83.0
169,54.711166775,56.64004467083333,42.0,84.0
170,54.969787275,56.64866535416667,49.0,74.0
171,56.262889775000005,56.93314790416667,54.0,78.0
172,56.521510275000004,57.34047519166667,61.0,79.0
173,57.297371775,57.7758197,54.0,79.0
174,57.555992275,57.8986644375,61.0,75.0
175,57.814612775,58.25857796666667,66.0,83.0
176,58.073233275,58.392198558333334,61.0,79.0
177,57.038751275,58.7003879875,49.0,70.0
178,56.780130775,58.702543158333334,42.0,84.0
179,58.331853775,58.855560287500005,54.0,83.0
180,58.590474275000005,59.11202561666667,61.0,77.0
181,59.107715275000004,59.37495645833334,54.0,78.0
182,59.366335775,59.696076912500004,59.0,74.0
183,59.624956275,59.90728365416667,54.0,79.0
184,59.883576775,59.90728365416667,54.0,76.0
185,59.883576775,60.4137488,63.0,84.0
186,58.849094775000005,60.68745549583333,47.0,81.0
187,60.659438275,60.969782875,54.0,75.0
188,60.400817775,60.97840355833333,59.0,74.0
189,61.693920275,62.004264875000004,59.0,74.0
190,61.435299775000004,62.02150624166667,56.0,77.0
191,62.211161275,62.517195533333336,59.0,73.0
192,61.952540775,62.59478168333334,64.0,78.0
193,60.918058775000006,62.769350520833335,40.0,83.0
194,61.176679275000005,62.831850475,47.0,71.0
195,62.469781775,62.90081594166667,56.0,78.0
196,62.728402275,63.01072965416667,59.0,70.0
197,63.504263775000005,64.01288409166666,54.0,77.0
198,63.762884275000005,64.10986677916667,61.0,78.0
199,64.280125275,64.58831470416666,61.0,83.0
200,64.021504775,64.62710777916666,66.0,81.0
201,62.987022775,64.81245247083334,42.0,84.0
202,63.245643275,64.8555558875,49.0,68.0
203,64.53874577500001,64.926676525,54.0,83.0
204,64.797366275,65.13572809583333,61.0,78.0
205,65.573227775,65.86848617916667,59.0,72.0
206,65.831848275,66.168054925,56.0,71.0
207,66.090468775,66.38357200833333,63.0,84.0
208,66.349089275,66.67452007083334,59.0,74.0
209,66.607709775,66.9503819375,56.0,76.0
210,65.314607275,66.97839915833333,51.0,76.0
211,65.05598677500001,67.00426120833333,44.0,84.0
212,66.866330275,67.14650248333334,59.0,76.0
213,67.38357127500001,67.65081245833333,56.0,84.0
214,67.642191775,68.1917603375,61.0,72.0
215,67.900812275,68.22624307083333,56.0,68.0
216,68.159432775,68.4762428875,64.0,82.0
217,67.124950775,68.51072562083334,49.0,83.0
218,68.418053275,68.70038065416666,61.0,73.0
219,68.676673775,69.12279413750001,56.0,76.0
220,68.935294275,69.21115614166666,61.0,74.0
221,69.71115577500001,70.487017275,52.0,74.0
222,69.969776275,70.49132761666667,56.0,78.0
223,69.452535275,70.6486550875,47.0,69.0
224,69.193914775,70.76718948333334,40.0,84.0
225,70.22839677500001,70.78874119166667,64.0,83.0
226,70.487017275,70.83831012083334,59.0,78.0
227,70.745637775,71.19391330833334,56.0,74.0
228,71.004258275,71.21977535833334,52.0,80.0
229,71.521499275,71.8124473375,56.0,57.0
230,71.780119775,72.28658492083333,61.0,76.0
231,72.03874027500001,72.33184350833334,56.0,69.0
232,72.297360775,72.59908469166668,64.0,79.0
233,72.55598127500001,72.8986534375,61.0,78.0
234,71.262878775,73.21330837916668,49.0,78.0
235,72.814601775,73.3641703375,56.0,75.0
236,73.073222275,73.56244605416667,61.0,78.0
237,73.590463275,73.87279065416666,56.0,74.0
238,73.849083775,74.20899730416667,61.0,76.0
239,74.107704275,74.39003165416666,56.0,74.0
240,74.36632477500001,74.42020404583333,61.0,38.0
241,74.624945275,74.92666919166668,56.0,76.0
242,74.36632477500001,74.95684158333334,68.0,82.0
243,73.331842775,75.22839310833334,49.0,84.0
244,74.88356577500001,75.37709989583334,61.0,78.0
245,75.142186275,75.45899638750001,56.0,79.0
246,75.659427275,75.91373743333334,56.0,76.0
247,75.918047775,76.31459920833333,61.0,74.0
248,76.176668275,76.46546116666667,56.0,84.0
249,76.435288775,77.00640904583334,64.0,85.0
250,76.69390927500001,77.0107193875,56.0,82.0
251,76.952529775,77.13571929583334,61.0,80.0
252,75.400806775,77.46546043333333,49.0,84.0
253,77.21115027500001,77.46546043333333,64.0,84.0
254,77.987011775,78.452528675,54.0,85.0
255,78.245632275,78.56459755833333,61.0,82.0
256,78.504252775,78.78658015416667,66.0,85.0
257,78.762873275,79.10123509583333,61.0,83.0
258,77.469770775,79.40511418333334,42.0,86.0
259,77.728391275,79.42235555,49.0,73.0
260,79.021493775,79.70468292916667,54.0,83.0
261,79.280114275,80.10338953333334,61.0,79.0
262,80.314596275,80.40942379166667,61.0,74.0
263,79.797355275,80.42882032916667,49.0,72.0
264,80.05597577500001,80.42882032916667,54.0,84.0
265,79.53873477500001,80.45899272083334,42.0,83.0
266,81.090457775,81.55166433333333,52.0,81.0
267,81.349078275,81.68096533125001,59.0,78.0
268,81.607698775,82.15306745625,64.0,83.0
269,81.86551434375001,82.20027766875,59.0,79.0
270,80.573216775,82.4513501625,40.0,82.0
271,80.831837275,82.481393025,47.0,70.0
272,82.12302459375,82.9062849375,52.0,75.0
273,82.38053484375,83.185254375,59.0,77.0
274,82.63804509375001,83.44061870625,40.0,83.0
275,83.15306559375,83.46851565,52.0,78.0
276,82.89555534375,83.48782891875001,47.0,68.0
277,83.41057584375001,83.86121878125,59.0,77.0
278,84.18310659375001,84.5543505375,56.0,74.0
279,84.44061684375,84.74104546875,59.0,77.0
280,84.69812709375,84.9835342875,63.0,84.0
281,84.95563734375,85.26679556250001,59.0,73.0
282,85.21314759375001,85.5328894875,56.0,78.0
283,83.66808609375,85.62945583125,44.0,83.0
284,83.92559634375,85.6444772625,51.0,70.0
285,85.47065784375,86.24962635,59.0,82.0
286,86.24318859375,86.56507640625,56.0,76.0
287,86.50069884375,86.79898155000001,59.0,86.0
288,86.75820909375,87.047908125,63.0,87.0
289,87.01571934375,87.28825102500001,59.0,81.0
290,87.27322959375,87.62086843125,56.0,80.0
291,85.72816809375,87.65520313125,44.0,85.0
292,85.98567834375001,87.683100075,51.0,75.0
293,87.53073984375,87.82687663125,59.0,77.0
294,88.04576034375,88.369794075,56.0,81.0
295,88.30327059375,88.71957883125,61.0,77.0
296,88.56078084375001,88.833312525,56.0,75.0
297,88.81829109375,89.1809513625,64.0,84.0
298,89.07580134375,89.34404118750001,56.0,76.0
299,87.78825009375001,89.674512675,49.0,89.0
300,89.59082184375,89.93846068125,56.0,83.0
301,89.33331159375001,90.11442601875001,61.0,76.0
302,90.10584234375,90.38481178125001,56.0,82.0
303,90.62086284375,90.773223075,56.0,77.0
304,90.36335259375001,90.77751491250001,61.0,80.0
305,89.84833209375,90.78395266875,49.0,89.0
306,90.87837309375,91.02429556875,54.0,83.0
307,90.87837309375,91.1809476375,59.0,78.0
308,91.13588334375001,91.40626910625001,54.0,80.0
309,91.39339359375,91.67236303125,59.0,78.0
310,91.65090384375,91.92987328125,54.0,84.0
311,91.90841409375,92.180945775,59.0,83.0
312,92.16592434375,92.44489378125,54.0,80.0
313,90.87837309375,92.67879892500001,47.0,81.0
314,92.42343459375,92.84832650625,63.0,79.0
315,92.68094484375,92.97708163125,54.0,81.0
316,93.19596534375,93.8161358625,47.0,71.0
317,92.93845509375001,93.82686545625,40.0,83.0
318,93.45347559375,93.8590542375,52.0,76.0
319,93.71098584375001,94.46205740625,56.0,77.0
320,94.48351659375001,95.1938157,52.0,79.0
321,94.74102684375,95.25604734375,56.0,83.0
322,94.99853709375,95.53072494375,64.0,79.0
323,93.96849609375,95.85690459375,40.0,81.0
324,94.22600634375,95.90840664375,47.0,67.0
325,95.77106784375,96.3054016125,52.0,80.0
326,95.51355759375001,96.335444475,56.0,77.0
327,95.25604734375,96.36334141875,59.0,79.0
328,96.54359859375,97.210979325,52.0,75.0
329,96.80110884375,97.2839405625,56.0,73.0
330,96.28608834375001,97.67235185625,47.0,63.0
331,96.02857809375,97.7646263625,40.0,79.0
332,97.05861909375,97.88479781250001,64.0,76.0
333,97.31612934375,97.92557026875001,59.0,74.0
334,97.57363959375,98.0650549875,56.0,73.0
335,97.83114984375,98.103681525,52.0,78.0
336,98.34617034375,98.62299386250001,52.0,79.0
337,98.60368059375,99.185224575,57.0,69.0
338,98.86119084375,99.19166233125,52.0,77.0
339,99.11870109375,99.5929491375,61.0,78.0
340,99.37621134375,99.70668283125,52.0,82.0
341,98.08866009375001,100.00067370000001,45.0,75.0
342,99.89123184375,100.27535130000001,52.0,79.0
343,99.63372159375001,100.33972886250001,57.0,78.0
344,100.40625234375,100.68736770000001,52.0,72.0
345,100.66376259375001,101.01569326875,57.0,77.0
346,100.14874209375,101.1036759375,45.0,75.0
347,100.92127284375,101.11011369375001,52.0,83.0
348,101.69380359375,102.20882409375,54.0,83.0
349,101.95131384375,102.2667639,57.0,80.0
350,102.20882409375,102.50925271875,61.0,83.0
351,102.46633434375,102.7774925625,57.0,74.0
352,101.43629334375001,103.0178354625,49.0,76.0
353,101.17878309375,103.01998138125,42.0,85.0
354,102.72384459375,103.08006710625,54.0,76.0
355,102.98135484375,103.19165488125,57.0,66.0
356,103.49637534375,103.8118254,56.0,77.0
357,103.75388559375,104.0478764625,61.0,73.0
358,104.01139584375,104.28607344375,56.0,69.0
359,104.26890609375,104.57241509791668,64.0,77.0
360,104.52715651041667,104.82241491458333,61.0,79.0
361,103.23886509375001,105.10689746458334,49.0,83.0
362,104.78577701041667,105.16293190625001,56.0,79.0
363,105.04439751041667,105.52284543541667,61.0,73.0
364,105.56163851041667,105.94741408958333,56.0,68.0
365,106.07887951041667,106.40215513541666,64.0,74.0
366,105.82025901041666,106.44956889375,61.0,71.0
367,106.33750001041668,106.71896524791667,68.0,77.0
368,106.59612051041667,106.93663750208334,64.0,82.0
369,106.85474101041667,107.19956834375,61.0,85.0
370,105.30301801041666,107.35905098541667,49.0,81.0
371,107.11336151041667,107.37413718125,56.0,83.0
372,107.88922301041667,108.46465362291667,56.0,75.0
373,108.14784351041666,108.64353280208334,49.0,79.0
374,108.40646401041667,108.87844642291667,61.0,83.0
375,108.92370501041667,109.23189443958334,49.0,74.0
376,108.66508451041668,109.25129097708334,56.0,72.0
377,107.63060251041667,109.25560131875001,44.0,65.0
378,107.37198201041667,109.29439439375,37.0,83.0
379,109.18232551041667,109.59611831041667,61.0,77.0
380,109.95818701041667,110.30085917291667,56.0,74.0
381,110.21680751041667,110.50560040208333,61.0,83.0
382,109.69956651041667,110.75991056041667,44.0,65.0
383,110.47542801041666,110.78577261041667,64.0,85.0
384,109.44094601041667,110.82456568541667,37.0,83.0
385,110.73404851041667,110.92585871458334,61.0,67.0
386,110.99266901041668,111.31378946458334,56.0,79.0
387,111.25128951041667,111.74266846041667,64.0,74.0
388,112.02715101041667,112.60904713541667,59.0,75.0
389,112.28577151041667,112.64352986875001,52.0,73.0
390,112.54439201041667,112.86551246458333,64.0,81.0
391,112.80301251041666,113.12844330625,59.0,77.0
392,111.76853051041667,113.40215000208333,47.0,72.0
393,111.50991001041668,113.41939136875,40.0,83.0
394,113.06163301041667,113.65861533125,52.0,76.0
395,113.32025351041668,113.82671865625001,59.0,71.0
396,114.09611501041667,114.60689049791667,56.0,73.0
397,114.35473551041667,114.71249386875,52.0,67.0
398,114.61335601041667,115.21680384375,59.0,74.0
399,114.87197651041667,115.24482106458333,56.0,70.0
400,113.57887401041667,115.43663126875,40.0,78.0
401,113.83749451041668,115.45818297708334,47.0,65.0
402,115.13059701041666,115.52283810208334,64.0,79.0
403,115.38921751041667,115.67585523125001,52.0,83.0
404,115.90645851041667,116.18878588958333,57.0,61.0
405,116.16507901041668,116.58964766458334,52.0,74.0
406,116.42369951041667,116.82671645625001,57.0,72.0
407,116.68232001041667,116.98404392708333,64.0,83.0
408,116.94094051041667,117.24050925625001,61.0,71.0
409,115.64783801041668,117.55300902708333,45.0,79.0
410,117.19956101041667,117.57456073541667,57.0,72.0
411,117.45818151041667,117.92154323958334,61.0,79.0
412,118.23404301041667,118.67369786041667,54.0,83.0
413,118.49266351041668,118.81809430625,61.0,78.0
414,118.75128401041667,119.12197339375001,66.0,83.0
415,119.00990451041667,119.33102496458334,61.0,80.0
416,117.97542251041668,119.35042150208334,49.0,67.0
417,117.71680201041667,119.49697311875,42.0,84.0
418,119.26852501041667,119.67800746875,54.0,79.0
419,119.52714551041667,119.86766250208333,61.0,79.0
420,120.30300701041668,120.69524810208334,56.0,77.0
421,120.56162751041667,120.84395488958333,61.0,76.0
422,120.82024801041666,121.10257538958334,64.0,81.0
423,121.07886851041667,121.40860964791668,61.0,73.0
424,120.04438651041667,121.66076463541667,44.0,72.0
425,119.78576601041667,121.68016117291667,37.0,84.0
426,121.33748901041668,121.83317830208334,56.0,71.0
427,121.59610951041667,122.07024709375,61.0,70.0
428,122.63059151041668,122.94309128125,61.0,72.0
429,122.37197101041667,122.94955679375,56.0,70.0
430,123.40645301041667,123.88274576458333,61.0,65.0
431,122.88921201041667,123.89567678958333,64.0,75.0
432,122.11335051041667,123.91507332708333,44.0,67.0
433,121.85473001041667,123.93446986458333,37.0,85.0
434,124.44093501041667,124.97326220625001,61.0,79.0
435,124.69955551041667,125.00558976875,64.0,70.0
436,124.95817601041668,125.25127924375,68.0,73.0
437,125.21679651041667,125.49912388958333,64.0,79.0
438,123.92369401041667,125.76852024375,49.0,85.0
439,124.18231451041667,125.80731331875,56.0,64.0
440,125.47541701041666,125.97326147291668,61.0,69.0
441,125.73403751041667,126.49265764375001,64.0,73.0
442,126.50989901041667,126.81377809791667,61.0,65.0
443,126.76851951041667,126.92153663958334,64.0,64.0
444,127.02714001041667,127.32239841458333,68.0,78.0
445,126.25127851041667,127.48403622708334,56.0,65.0
446,125.99265801041668,127.58101891458334,49.0,84.0
447,127.28576051041668,127.58532925625,64.0,68.0
448,127.54438101041667,127.86119112291667,61.0,76.0
449,127.80300151041666,128.22972533541667,64.0,77.0
450,128.57886301041668,128.87196624375,56.0,77.0
451,128.83748351041666,129.10687986458333,59.0,75.0
452,129.09610401041667,129.31808660625,63.0,83.0
453,129.35472451041667,129.63920706041668,59.0,69.0
454,129.61334501041668,129.94955166041666,56.0,74.0
455,128.06162201041667,129.95170683125,44.0,83.0
456,128.32024251041668,129.97756888125,51.0,70.0
457,129.87196551041666,130.57024086041667,59.0,70.0
458,130.64782701041668,131.07670600625,56.0,72.0
459,130.90644751041668,131.19524040208333,59.0,71.0
460,131.16506801041666,131.49696431875,63.0,81.0
461,130.38920651041667,131.67368832708334,51.0,67.0
462,131.42368851041667,131.73618828125,59.0,78.0
463,130.13058601041666,131.78360203958334,44.0,77.0
464,131.68230901041667,132.05515356458335,56.0,79.0
465,131.94092951041668,132.42368777708333,59.0,72.0
466,132.71679101041667,133.25342854791666,52.0,76.0
467,132.97541151041668,133.28144576875002,59.0,77.0
468,133.23403201041668,133.54006626875,63.0,83.0
469,133.49265251041666,133.83316950208334,59.0,78.0
470,132.19955001041666,134.01420385208334,40.0,83.0
471,132.45817051041666,134.02282453541667,47.0,62.0
472,133.75127301041667,134.09179000208334,52.0,73.0
473,134.00989351041667,134.25989332708335,59.0,77.0
474,134.52713451041666,135.16506507708334,54.0,74.0
475,134.78575501041666,135.23187537291668,59.0,77.0
476,135.04437551041667,135.38058216041668,61.0,74.0
477,135.30299601041668,135.60903026875002,63.0,83.0
478,135.56161651041668,135.90213350208333,61.0,74.0
479,134.26851401041668,136.14566780625,47.0,78.0
480,135.82023701041666,136.14566780625,59.0,80.0
481,136.07885751041667,136.43661586875,54.0,75.0
482,137.11333951041667,137.40644274375,56.0,72.0
483,136.85471901041666,137.41937376875,52.0,76.0
484,136.59609851041668,137.88058032708335,47.0,69.0
485,137.63058051041668,137.95170096458332,56.0,71.0
486,136.33747801041667,137.95601130625,40.0,83.0
487,137.37196001041667,138.22971800208333,59.0,78.0
488,137.88920101041668,138.30299381041667,52.0,74.0
489,138.14782151041666,138.39566615625,56.0,73.0
490,138.66506251041667,139.29221722291666,56.0,74.0
491,138.92368301041668,139.42799298541667,61.0,73.0
492,139.18230351041666,139.45601020625,64.0,73.0
493,139.44092401041667,139.77928583125,68.0,77.0
494,139.69954451041667,140.06592355208335,64.0,76.0
495,138.40644201041667,140.24911307291666,49.0,78.0
496,139.95816501041668,140.29006131875002,61.0,82.0
497,140.21678551041668,140.60471626041667,56.0,80.0
498,140.99264701041668,141.41721566458335,54.0,76.0
499,141.25126751041668,141.56376728125,61.0,77.0
500,141.50988801041666,141.81592226875,66.0,84.0
501,141.76850851041667,142.14781857708334,61.0,83.0
502,140.47540601041666,142.40428390625001,42.0,84.0
503,140.73402651041667,142.41290458958335,49.0,74.0
504,142.02712901041667,142.69738713958333,54.0,78.0
505,142.28574951041668,143.10471442708334,61.0,79.0
506,143.06161101041667,143.54005893541668,54.0,79.0
507,143.32023151041668,143.66290367291668,61.0,75.0
508,143.57885201041665,144.02281720208333,66.0,83.0
509,143.83747251041666,144.15643779375,61.0,79.0
510,142.80299051041666,144.46462722291668,49.0,70.0
511,142.54437001041669,144.46678239375,42.0,84.0
512,144.09609301041667,144.61979952291668,54.0,83.0
513,144.35471351041667,144.87626485208335,61.0,77.0
514,144.87195451041669,145.13919569375,54.0,78.0
515,145.13057501041666,145.46031614791667,59.0,74.0
516,145.38919551041667,145.67152288958334,54.0,79.0
517,145.64781601041668,145.67152288958334,54.0,76.0
518,145.64781601041668,146.17798803541666,63.0,84.0
519,144.61333401041668,146.45169473125,47.0,81.0
520,146.42367751041667,146.73402211041667,54.0,75.0
521,146.16505701041666,146.74264279375,59.0,74.0
522,147.45815951041666,147.76850411041667,59.0,74.0
523,147.1995390104167,147.78574547708334,56.0,77.0
524,147.97540051041668,148.28143476875,59.0,73.0
525,147.71678001041667,148.35902091875,64.0,78.0
526,146.68229801041667,148.53358975625,40.0,83.0
527,146.94091851041668,148.59608971041666,47.0,71.0
528,148.23402101041665,148.66505517708333,56.0,78.0
529,148.49264151041666,148.77496888958333,59.0,70.0
530,149.26850301041668,149.77712332708333,54.0,77.0
531,149.5271235104167,149.87410601458333,61.0,78.0
532,150.04436451041667,150.35255393958334,61.0,83.0
533,149.78574401041666,150.39134701458335,66.0,81.0
534,148.75126201041667,150.57669170625002,42.0,84.0
535,149.00988251041667,150.61979512291668,49.0,68.0
536,150.30298501041668,150.69091576041666,54.0,83.0
537,150.56160551041665,150.89996733125,61.0,78.0
538,151.33746701041667,151.63272541458335,59.0,72.0
539,151.59608751041668,151.9322941604167,56.0,71.0
540,151.8547080104167,152.14781124375,63.0,84.0
541,152.11332851041666,152.43875930625,59.0,74.0
542,152.37194901041667,152.71462117291668,56.0,76.0
543,151.07884651041667,152.74263839375,51.0,76.0
544,150.82022601041666,152.76850044375,44.0,84.0
545,152.63056951041668,152.91074171875,59.0,76.0
546,153.14781051041666,153.41505169375,56.0,84.0
547,153.40643101041667,153.95599957291668,61.0,72.0
548,153.66505151041667,153.99048230625002,56.0,68.0
549,153.92367201041668,154.24048212291666,64.0,82.0
550,152.88919001041666,154.27496485625,49.0,83.0
551,154.1822925104167,154.46461988958333,61.0,73.0
552,154.44091301041666,154.88703337291668,56.0,76.0
553,154.69953351041667,154.97539537708334,61.0,74.0
554,155.47539501041666,156.25125651041668,52.0,74.0
555,155.73401551041667,156.25556685208335,56.0,78.0
556,155.21677451041666,156.41289432291666,47.0,69.0
557,154.95815401041668,156.53142871875002,40.0,84.0
558,155.99263601041667,156.55298042708336,64.0,83.0
559,156.25125651041668,156.60254935625,59.0,78.0
560,156.5098770104167,156.95815254375,56.0,74.0
561,156.76849751041667,156.98401459375,52.0,80.0
562,157.28573851041668,157.57668657291669,56.0,57.0
563,157.54435901041666,158.05082415625,61.0,76.0
564,157.80297951041666,158.09608274375,56.0,69.0
565,158.06160001041667,158.36332392708334,64.0,79.0
566,158.32022051041668,158.66289267291666,61.0,78.0
567,157.02711801041667,158.97754761458333,49.0,78.0
568,158.57884101041668,159.12840957291667,56.0,75.0
569,158.8374615104167,159.32668528958334,61.0,78.0
570,159.35470251041667,159.63702988958335,56.0,74.0
571,159.61332301041668,159.97323653958335,61.0,76.0
572,159.87194351041666,160.15427088958333,56.0,74.0
573,160.13056401041666,160.18444328125,61.0,38.0
574,160.38918451041667,160.69090842708334,56.0,76.0
575,160.13056401041666,160.72108081875,68.0,82.0
576,159.09608201041667,160.99263234375002,49.0,84.0
577,160.64780501041668,161.14133913125,61.0,78.0
578,160.90642551041668,161.22323562291666,56.0,79.0
579,161.42366651041667,161.67797666875,56.0,76.0
580,161.68228701041667,162.07883844375002,61.0,74.0
581,161.94090751041668,162.22970040208332,56.0,84.0
582,162.19952801041666,162.77064828125,64.0,85.0
583,162.45814851041666,162.77495862291667,56.0,82.0
584,162.71676901041667,162.89995853125,61.0,80.0
585,161.1650460104167,163.22969966875002,49.0,84.0
586,162.97538951041668,163.22969966875002,64.0,84.0
587,163.75125101041667,164.21676791041668,54.0,85.0
588,164.00987151041667,164.32883679375,61.0,82.0
589,164.26849201041668,164.55081938958335,66.0,85.0
590,164.52711251041666,164.86547433125,61.0,83.0
591,163.23401001041668,165.16935341875,42.0,86.0
592,163.4926305104167,165.18659478541667,49.0,73.0
593,164.78573301041666,165.46892216458335,54.0,83.0
594,165.04435351041667,165.86762876875,61.0,79.0
595,166.07883551041667,166.17366302708334,61.0,74.0
596,165.56159451041668,166.19305956458334,49.0,72.0
597,165.8202150104167,166.19305956458334,54.0,84.0
598,165.30297401041668,166.22323195625,42.0,83.0
599,166.85469701041666,167.31590356875,52.0,81.0
600,167.11331751041666,167.44521381875,59.0,78.0
601,167.37193801041667,167.91935140208335,64.0,83.0
602,167.63055851041668,167.96676516041668,59.0,79.0
603,166.33745601041667,168.21892014791666,40.0,82.0
604,166.59607651041668,168.24909253958333,47.0,70.0
605,167.88917901041668,168.67581636458334,52.0,75.0
606,168.1477995104167,168.95598857291668,59.0,77.0
607,168.40642001041667,169.21245390208333,40.0,83.0
608,168.92366101041665,169.2404711229167,52.0,78.0
609,168.66504051041667,169.25986766041666,47.0,68.0
610,169.18228151041666,169.63486738541667,59.0,77.0
611,169.95814301041668,170.33098756458332,56.0,74.0
612,170.21676351041668,170.51848742708336,59.0,77.0
613,170.4753840104167,170.76202173125,63.0,84.0
614,170.73400451041667,171.04650428125,59.0,73.0
615,170.99262501041667,171.31374546458335,56.0,78.0
616,169.44090201041666,171.41072815208332,44.0,83.0
617,169.69952251041667,171.42581434791668,51.0,70.0
618,171.25124551041665,172.03357252291667,59.0,82.0
619,172.02710701041667,172.35038263541668,56.0,76.0
620,172.28572751041668,172.58529625625,59.0,86.0
621,172.54434801041668,172.83529607291666,63.0,87.0
622,172.8029685104167,173.07667520625,59.0,81.0
623,173.06158901041667,173.41072668541668,56.0,80.0
624,171.50986601041666,173.44520941875,44.0,85.0
625,171.76848651041666,173.47322663958334,51.0,75.0
626,173.32020951041667,173.61762308541665,59.0,77.0
627,173.83745051041666,174.16288130625,56.0,81.0
628,174.09607101041667,174.51417415208334,61.0,77.0
629,174.35469151041667,174.62839820625,56.0,75.0
630,174.61331201041668,174.97753588125,64.0,84.0
631,174.87193251041668,175.14132886458333,56.0,76.0
632,173.57883001041665,175.47322517291667,49.0,89.0
633,175.38917351041667,175.73831118541668,56.0,83.0
634,175.1305530104167,175.91503519375,61.0,76.0
635,175.90641451041665,176.18658671875,56.0,82.0
636,176.42365551041667,176.57667263958334,56.0,77.0
637,176.16503501041666,176.58098298125,61.0,80.0
638,175.64779401041667,176.58744849375,49.0,89.0
639,176.68227601041667,176.82882762708334,54.0,83.0
640,176.68227601041667,176.98615509791668,59.0,78.0
641,176.94089651041668,177.21244803541668,54.0,80.0
642,177.19951701041668,177.47968921875002,59.0,78.0
643,177.4581375104167,177.73830971875,54.0,84.0
644,177.71675801041667,177.99046470625,59.0,83.0
645,177.97537851041668,178.25555071875,54.0,80.0
646,176.68227601041667,178.49046433958335,47.0,81.0
647,178.23399901041665,178.66072283541666,63.0,79.0
648,178.49261951041666,178.79003308541667,54.0,81.0
649,179.00986051041667,179.63270488125,47.0,71.0
650,178.75124001041667,179.6434807354167,40.0,83.0
651,179.26848101041668,179.67580829791666,52.0,76.0
652,179.52710151041668,180.28141130208334,56.0,77.0
653,180.30296301041668,181.01632455625003,52.0,79.0
654,180.56158351041665,181.07882451041667,56.0,83.0
655,180.82020401041666,181.35468637708334,64.0,79.0
656,179.7857220104167,181.68227234375001,40.0,81.0
657,180.04434251041667,181.73399644375002,47.0,67.0
658,181.59606551041668,182.13270304791666,52.0,80.0
659,181.33744501041667,182.16287543958333,56.0,77.0
660,181.07882451041667,182.1908926604167,59.0,79.0
661,182.37192701041667,183.04218513958335,52.0,75.0
662,182.63054751041668,183.1154609479167,56.0,73.0
663,182.1133065104167,183.50554686875,47.0,63.0
664,181.85468601041669,183.59821921458334,40.0,79.0
665,182.88916801041665,183.71890878125,64.0,76.0
666,183.14778851041666,183.75985702708334,59.0,74.0
667,183.40640901041667,183.89994313125,56.0,73.0
668,183.66502951041667,183.93873620625,52.0,78.0
669,184.18227051041669,184.46028754791666,52.0,79.0
670,184.4408910104167,185.02494230625,57.0,69.0
671,184.69951151041667,185.03140781875,52.0,77.0
672,184.95813201041668,185.43442476458335,61.0,78.0
673,185.21675251041665,185.54864881875,52.0,82.0
674,183.92365001041668,185.84390722291667,45.0,75.0
675,185.73399351041667,186.11976908958334,52.0,79.0
676,185.47537301041666,186.18442421458334,57.0,78.0
677,186.25123451041668,186.53356188958332,52.0,72.0
678,186.5098550104167,186.86330302708333,57.0,77.0
679,185.99261401041667,186.95166503125,45.0,75.0
680,186.7684755104167,186.95813054375,52.0,83.0
681,187.54433701041665,188.06157801041667,54.0,83.0
682,187.80295751041666,188.11976762291667,57.0,80.0
683,188.06157801041667,188.36330192708334,61.0,83.0
684,188.32019851041667,188.63269828125,57.0,74.0
685,187.28571651041668,188.87407741458333,49.0,76.0
686,187.02709601041667,188.8762325854167,42.0,85.0
687,188.57881901041668,188.93657736875002,54.0,76.0
688,188.8374395104167,189.04864625208336,57.0,66.0
689,189.35468051041667,189.67149062291668,56.0,77.0
690,189.61330101041668,189.90855941458335,61.0,73.0
691,189.87192151041666,190.14778337708333,56.0,69.0
692,190.13054201041666,190.43442109791667,64.0,77.0
693,190.38916251041667,190.68442091458334,61.0,79.0
694,189.0960600104167,190.96890346458332,49.0,83.0
695,190.64778301041667,191.02493790625,56.0,79.0
696,190.90640351041668,191.3848514354167,61.0,73.0
697,191.4236445104167,191.80942008958334,56.0,68.0
698,191.94088551041668,192.26416113541666,64.0,74.0
699,191.68226501041667,192.31157489375,61.0,71.0
700,192.19950601041666,192.5809712479167,68.0,77.0
701,192.45812651041666,192.79864350208334,64.0,82.0
702,192.71674701041667,193.06157434375,61.0,85.0
703,191.1650240104167,193.22105698541668,49.0,81.0
704,192.97536751041667,193.23614318125,56.0,83.0
705,193.71459110625,194.07881497708334,57.0,76.0
706,193.96459092291667,194.22752176458334,61.0,79.0
707,194.22536659375,194.54864221875,64.0,84.0
708,194.46028021458335,194.75769378958336,61.0,79.0
709,193.21243630208335,195.11760731875,45.0,80.0
710,193.46243611875002,195.29217615625,52.0,52.0
711,194.71890071458336,195.34821059791668,57.0,70.0
712,195.01846946041667,195.81372749791666,61.0,78.0
713,196.04648594791666,196.35467537708334,61.0,76.0
714,195.79217578958333,196.41070981875,57.0,73.0
715,196.32234781458334,196.70165788125001,64.0,83.0
716,196.55941660625,196.88915774375,61.0,76.0
717,196.81803710625002,197.16070926875,57.0,67.0
718,195.25769342291667,197.1844161479167,45.0,79.0
719,195.51415875208335,197.20381268541666,52.0,72.0
720,197.06588175208333,197.70596748958334,61.0,78.0
721,197.35251947291667,197.95812247708335,63.0,84.0
722,197.34605396041667,198.00553623541668,59.0,82.0
723,197.34174361875,198.01631208958332,56.0,79.0
724,197.35682981458334,198.28139810208336,44.0,83.0
725,197.84174325208335,198.28139810208336,51.0,62.0
726,198.43441523125,198.83096666458334,59.0,69.0
727,198.43657040208333,198.83958734791668,63.0,77.0
728,198.43226006041667,198.85036320208334,56.0,70.0
729,198.43872557291667,199.03786306458335,51.0,84.0
730,198.43441523125,199.04863891875,44.0,79.0
731,199.4732075729167,201.71674041041666,56.0,73.0
732,199.47105240208333,201.99044710625,59.0,75.0
733,199.47536274375,201.99691261875,63.0,79.0
734,201.98182642291667,203.13915316041667,56.0,67.0
735,202.66932591875002,203.18441174791667,59.0,69.0
736,202.35467097708334,203.20596345625,63.0,71.0
737,203.17363589375,203.36544609791667,68.0,65.0
738,203.83311816875,203.88053192708333,73.0,57.0
739,204.37406604791667,204.50768663958334,71.0,71.0
740,204.87191051041668,205.0400138354167,75.0,77.0
741,205.66285820625,205.81587533541668,80.0,72.0
742,201.56587845208333,206.46673692708333,51.0,48.0
743,199.46243171875,206.55078858958333,44.0,84.0
744,209.7986310354167,210.38699267291668,56.0,81.0
745,209.83095859791666,210.47966501875,37.0,89.0
746,210.33742374375,210.49475121458335,44.0,63.0
747,209.81371723125,210.65207868541665,61.0,83.0
748,210.62190629375,210.86975093958335,56.0,76.0
749,210.86328542708333,211.10250938958336,61.0,76.0
750,211.05725080208333,211.26199203125,56.0,83.0
751,211.27707822708334,211.40423330625,65.0,97.0
752,211.54431941041668,211.75983649375002,61.0,72.0
753,211.76845717708335,212.05509489791666,68.0,85.0
754,211.99043977291666,212.1650086104167,65.0,85.0
755,212.25121544375003,212.40423257291667,73.0,87.0
756,211.24044032291667,212.50337043125,49.0,81.0
757,211.48612979791667,212.54431867708334,56.0,72.0
758,212.49259457708334,212.61328414375,68.0,88.0
759,212.76630127291668,213.05293899375,77.0,80.0
760,212.77276678541668,213.14561133958335,68.0,83.0
761,213.04647348125002,213.16069753541666,73.0,85.0
762,213.35250773958336,213.69517990208334,80.0,86.0
763,212.75121507708334,213.72750746458334,49.0,85.0
764,212.74905990625,213.76630053958334,56.0,82.0
765,213.67147302291667,213.87405908125,77.0,83.0
766,213.35466291041666,213.88914527708334,68.0,84.0
767,214.02923138125,214.16069680208335,68.0,70.0
768,214.04000723541668,214.23828295208335,80.0,77.0
769,214.41716213125,214.56155857708336,80.0,60.0
770,214.40423110625,214.65638609375,85.0,74.0
771,214.03569689375,214.94948932708334,49.0,84.0
772,214.79216185625,215.24259256041665,80.0,84.0
773,215.15207538541668,215.37836832291669,85.0,84.0
774,215.57664403958336,215.92578171458334,89.0,88.0
775,215.57448886875,216.15854016458334,80.0,70.0
776,216.08095401458334,216.25336768125,85.0,85.0
777,216.51845369375002,216.58526398958332,80.0,79.0
778,216.51414335208335,216.60466052708335,92.0,83.0
779,216.50767783958332,216.60681569791666,85.0,87.0
780,215.58095438125002,216.91500512708336,49.0,74.0
781,215.57879921041666,216.91500512708336,56.0,70.0
782,218.46241778541668,219.64560657291668,85.0,77.0
783,218.33095236458334,219.66931345208334,77.0,73.0
784,218.31371099791667,219.67362379375,49.0,79.0
785,218.32017651041667,219.67362379375,56.0,75.0
786,218.42146953958334,219.67577896458334,80.0,74.0
787,218.27276275208334,219.67793413541668,73.0,71.0
