,start,end,pitch,velocity
0,28.299604589583332,28.503969679166666,70.0,82.0
1,28.537699839583333,28.757937945833334,72.0,71.0
2,28.775795089583333,29.00000145,73.0,75.0
3,29.013890339583334,29.311509402083335,70.0,71.0
4,29.251985589583335,29.525795127083335,72.0,75.0
5,29.49008083958333,29.692461802083333,73.0,70.0
6,29.728176089583332,30.05357293125,70.0,68.0
7,29.966271339583333,30.164684047916666,72.0,68.0
8,30.204366589583334,30.805557095833333,73.0,70.0
9,30.918652339583332,31.170636479166667,73.0,79.0
10,31.156747589583333,31.337303154166666,75.0,91.0
11,31.394842839583333,31.626985708333333,73.0,77.0
12,31.632938089583334,31.888890483333334,72.0,60.0
13,31.871033339583335,32.126985733333335,70.0,68.0
14,32.109128589583335,32.31547780625,68.0,70.0
15,32.58531908958334,32.656747664583335,68.0,71.0
16,32.82341433958333,33.4642873875,68.0,75.0
17,33.53770008958333,33.71031914583333,70.0,82.0
18,33.77579533958333,35.75992242291667,72.0,76.0
19,35.91865258958333,36.17262085625,70.0,88.0
20,36.15674783958333,36.41071610625,72.0,70.0
21,36.39484308958333,36.551589129166665,73.0,72.0
22,36.63293833958333,36.90674787708333,70.0,66.0
23,36.871033589583334,37.13690661875,72.0,68.0
24,37.109128839583335,37.31746218333333,73.0,69.0
25,37.347224089583335,37.682541566666664,70.0,63.0
26,37.585319339583336,37.78770030208333,72.0,68.0
27,37.82341458958334,38.32539874166667,73.0,73.0
28,38.53770033958333,38.70039876041667,73.0,76.0
29,38.77579558958333,38.93055750208333,75.0,98.0
30,39.01389083958333,39.224208310416664,73.0,91.0
31,39.25198608958333,39.418652764583335,72.0,66.0
32,39.490081339583334,39.73214484375,70.0,71.0
33,39.728176589583335,39.99603374583333,68.0,70.0
34,40.204367089583336,40.311509952083334,68.0,71.0
35,40.44246233958334,41.18452586875,68.0,77.0
36,41.15674808958333,41.325398891666666,75.0,88.0
37,41.63293858958333,42.69841483333333,77.0,95.0
38,43.53770058958333,43.95635140416667,78.0,91.0
39,44.01389108958333,44.200399035416666,77.0,85.0
40,44.25198633958333,44.700399060416665,78.0,91.0
41,44.728176839583334,44.81746255833333,70.0,106.0
42,44.966272089583335,45.13492289166667,70.0,85.0
43,45.204367339583335,45.313494329166666,77.0,109.0
44,45.442462589583336,46.144843577083336,77.0,100.0
45,46.15674833958333,46.99603409583333,75.0,75.0
46,47.347224589583334,47.79365318333333,77.0,95.0
47,47.823415089583335,48.00198652708333,75.0,85.0
48,48.061510339583336,48.56547861875,77.0,95.0
49,48.53770083958333,48.65873259166666,68.0,79.0
50,48.77579608958333,48.98611356041667,68.0,85.0
51,49.01389133958333,49.11309769375,75.0,72.0
52,49.25198658958333,49.92460567083333,75.0,111.0
53,49.966272339583334,50.71031999583333,73.0,91.0
54,50.680558089583336,50.85912952708333,70.0,75.0
55,50.91865333958333,51.10317715833333,72.0,72.0
56,51.15674858958333,51.492066066666666,73.0,100.0
57,51.63293908958333,51.91468513541667,73.0,98.0
58,52.10912958958333,52.5357169125,73.0,98.0
59,52.585320089583334,52.759923272916666,72.0,71.0
60,52.823415339583335,52.9880978875,70.0,88.0
61,53.061510589583335,53.64682807916667,72.0,88.0
62,53.77579633958333,54.33928843125,72.0,98.0
63,54.72817733958333,54.942463064583336,68.0,70.0
64,54.96627258958333,56.91071713125,65.0,71.0
65,62.58532058958333,62.87301901666667,70.0,79.0
66,62.82341583958333,62.99603489583333,72.0,79.0
67,63.061511089583334,63.25793967083333,73.0,75.0
68,63.299606339583335,63.5833365125,70.0,70.0
69,63.537701589583335,63.72222540833333,72.0,77.0
70,63.775796839583336,63.99801907291667,73.0,76.0
71,64.01389208958334,64.28968575416667,70.0,70.0
72,64.25198733958334,64.4642889375,72.0,73.0
73,64.49008258958334,65.14484452708334,73.0,82.0
74,65.20436833958334,65.33928898125,73.0,91.0
75,65.44246358958333,65.59127312083334,75.0,88.0
76,65.68055883958333,65.85714615,73.0,85.0
77,65.91865408958333,66.11111441666667,72.0,77.0
78,66.15674933958333,66.33928903125,70.0,68.0
79,66.39484458958333,66.67063825416666,68.0,82.0
80,66.87103508958333,66.97024144375,68.0,76.0
81,67.10913033958333,67.77579703958334,68.0,79.0
82,67.82341608958333,67.96627323958333,70.0,77.0
83,68.06151133958333,69.81944793541666,72.0,75.0
84,70.20436858958334,70.47222574583333,70.0,98.0
85,70.44246383958334,70.642860675,72.0,73.0
86,70.68055908958333,70.85913052708334,73.0,79.0
87,70.91865433958333,71.19246387708333,70.0,71.0
88,71.15674958958333,71.35317817083333,72.0,77.0
89,71.39484483958333,71.60317818333333,73.0,82.0
90,71.63294008958333,71.91270200833333,70.0,67.0
91,71.87103533958333,72.05754328541667,72.0,79.0
92,72.10913058958333,72.87897189791667,73.0,98.0
93,72.82341633958333,73.2380989,75.0,100.0
94,73.29960683958333,73.50794018333333,73.0,77.0
95,73.53770208958333,73.67659098541667,72.0,69.0
96,73.77579733958333,73.94841639583333,70.0,85.0
97,74.01389258958334,74.36111482916667,72.0,103.0
98,74.49008308958334,75.0476228,72.0,103.0
99,75.44246408958334,75.85714665,80.0,100.0
100,75.91865458958333,77.35317847083333,77.0,100.0
101,77.58532133958333,77.78770230208333,77.0,100.0
102,77.82341658958333,78.14286105,78.0,98.0
103,78.29960708958333,79.36706746041666,78.0,88.0
104,79.25198808958334,79.38492460416667,70.0,100.0
105,79.49008333958334,79.5595277875,77.0,113.0
106,79.72817858958334,80.32341671458333,77.0,106.0
107,80.44246433958334,81.26984533333334,75.0,106.0
108,81.39484533958333,81.62301995416667,68.0,98.0
109,81.63294058958333,82.00992473541666,77.0,98.0
110,82.10913108958333,82.26786125625,75.0,103.0
111,82.34722633958333,83.11508352083334,77.0,91.0
112,83.06151208958333,83.24206765416666,68.0,95.0
113,83.29960733958333,83.404766075,75.0,113.0
114,83.53770258958333,84.17063912916666,75.0,106.0
115,84.25198833958333,85.12698838333333,73.0,109.0
116,84.96627408958334,85.16865505208334,70.0,91.0
117,85.20436933958334,85.38690903125,72.0,82.0
118,85.44246458958334,85.98214715625,73.0,95.0
119,86.15675033958333,86.81548053125,73.0,95.0
120,86.87103608958333,87.06151228958333,72.0,85.0
121,87.10913133958333,87.25992499791667,70.0,75.0
122,87.34722658958333,87.72817898958333,72.0,88.0
123,87.82341708958333,87.91468693541667,72.0,88.0
124,88.06151233958333,88.75794094583333,72.0,88.0
125,88.77579808958333,89.07738540625,70.0,106.0
126,89.25198858958333,89.78571877499999,68.0,91.0
127,89.72817908958334,91.10913153958333,70.0,88.0
128,92.10913158958333,92.3690522375,70.0,109.0
129,92.34722683958333,92.53968716666667,72.0,98.0
130,92.58532208958333,93.05159195416667,73.0,79.0
131,92.82341733958333,93.07341735208334,75.0,73.0
132,93.06151258958333,93.785718975,77.0,103.0
133,93.77579833958333,94.7738142625,70.0,98.0
134,94.96627458958334,95.4404809625,78.0,100.0
135,95.44246508958334,95.62302065416667,77.0,72.0
136,95.68056033958334,96.53175085833334,75.0,106.0
137,96.87103658958333,96.95833818125,75.0,100.0
138,97.10913183958333,97.19643343125,75.0,98.0
139,97.34722708958333,97.42659217291667,75.0,98.0
140,97.58532233958333,97.7261953625,75.0,88.0
141,97.82341758958333,98.28373507291667,80.0,111.0
142,98.29960808958333,98.73611604791667,82.0,103.0
143,98.77579858958333,99.16468749791666,77.0,103.0
144,99.25198908958333,99.452385925,75.0,82.0
145,99.49008433958333,100.56944947291666,73.0,106.0
146,100.68056058958334,101.35516379791666,73.0,95.0
147,101.39484633958334,102.25794162083334,66.0,85.0
148,102.58532258958333,102.96825911666667,75.0,103.0
149,103.06151308958333,103.27183056041666,73.0,82.0
150,103.29960833958333,104.071433775,72.0,85.0
151,104.01389408958333,104.18254489166667,70.0,98.0
152,104.25198933958333,104.42064014166667,72.0,75.0
153,104.49008458958333,104.72421158541667,73.0,100.0
154,104.96627508958333,105.15278303541666,73.0,85.0
155,105.20437033958333,105.56151321458333,75.0,106.0
156,105.68056083958334,105.785719575,73.0,100.0
157,105.91865608958334,106.09921165416667,75.0,98.0
158,106.15675133958334,107.0595291625,77.0,100.0
159,107.34722758958333,107.55556093333334,70.0,106.0
160,107.58532283958333,107.75397364166666,72.0,88.0
161,107.82341808958333,107.99603714583333,73.0,98.0
162,108.06151333958333,108.27976731875,75.0,64.0
163,108.29960858958333,108.99008481458333,77.0,109.0
164,109.01389433958333,110.01786264375,70.0,103.0
165,110.20437058958333,110.59325949791666,78.0,103.0
166,110.68056108958334,110.87698967083334,77.0,82.0
167,110.91865633958334,111.690481775,75.0,106.0
168,112.10913258958334,112.20437068958333,75.0,103.0
169,112.34722783958333,112.44643419375,75.0,88.0
170,112.58532308958333,112.67262468125,75.0,100.0
171,112.82341833958333,112.98611676041666,75.0,82.0
172,113.06151358958333,113.49008503958333,80.0,106.0
173,113.53770408958333,113.74405330625,82.0,91.0
174,114.01389458958333,114.44246603958334,77.0,100.0
175,114.49008508958333,114.690481925,75.0,76.0
176,114.72818033958333,115.52579942708333,73.0,98.0
177,115.91865658958334,116.84325981041667,73.0,98.0
178,116.87103758958334,117.642863025,66.0,91.0
179,117.82341858958333,118.18452971875,72.0,100.0
180,118.29960908958333,118.49405354375,73.0,75.0
181,118.53770433958333,119.18651389583333,75.0,100.0
182,119.25199008958333,119.74802186041667,73.0,91.0
183,119.96627583958333,120.17064092916667,73.0,79.0
184,119.72818058958333,120.23016474166667,72.0,82.0
185,120.44246633958333,122.13294261458333,70.0,73.0
186,138.77580058958333,139.19246727708332,80.0,91.0
187,139.25199108958333,139.48016570416667,77.0,77.0
188,139.49008633958334,139.88492762916667,75.0,69.0
189,139.96627683958334,140.62897528541666,73.0,82.0
190,140.68056258958333,141.09524515,81.0,81.0
191,141.15675308958333,141.37500706875,77.0,88.0
192,141.39484833958332,141.8214356625,75.0,88.0
193,141.87103883958332,142.51786426875,73.0,88.0
194,142.58532458958334,142.98413413333333,84.0,98.0
195,143.06151508958334,143.26389605208334,82.0,71.0
196,143.29961033958332,143.70040401041666,84.0,95.0
197,143.77580083958333,144.39683261666667,85.0,76.0
198,144.49008658958334,145.87897554791667,89.0,72.0
199,145.91865808958335,146.38294382708332,85.0,73.0
200,146.39484858958332,147.87897564791666,82.0,67.0
201,154.01389658958334,154.21826167916666,70.0,82.0
202,154.25199183958333,154.47222994583333,72.0,71.0
203,154.49008708958334,154.71429344999999,73.0,75.0
204,154.72818233958333,155.02580140208335,70.0,71.0
205,154.96627758958334,155.24008712708334,72.0,75.0
206,155.20437283958333,155.40675380208333,73.0,70.0
207,155.44246808958334,155.76786493125,70.0,68.0
208,155.68056333958333,155.87897604791667,72.0,68.0
209,155.91865858958334,156.51984909583334,73.0,70.0
210,156.63294433958333,156.88492847916666,73.0,79.0
211,156.87103958958332,157.05159515416668,75.0,91.0
212,157.10913483958333,157.34127770833334,73.0,77.0
213,157.34723008958332,157.60318248333334,72.0,60.0
214,157.58532533958333,157.84127773333333,70.0,68.0
215,157.82342058958332,158.02976980625,68.0,70.0
216,158.29961108958332,158.37103966458332,68.0,71.0
217,158.53770633958334,159.1785793875,68.0,75.0
218,159.25199208958333,159.42461114583332,70.0,82.0
219,159.49008733958334,161.47421442291667,72.0,76.0
220,161.63294458958333,161.88691285625,70.0,88.0
221,161.87103983958332,162.12500810625,72.0,70.0
222,162.10913508958333,162.26588112916667,73.0,72.0
223,162.34723033958332,162.62103987708332,70.0,66.0
224,162.58532558958333,162.85119861875,72.0,68.0
225,162.82342083958332,163.03175418333333,73.0,69.0
226,163.06151608958334,163.39683356666666,70.0,63.0
227,163.29961133958332,163.50199230208332,72.0,68.0
228,163.53770658958334,164.03969074166667,73.0,73.0
229,164.25199233958332,164.41469076041668,73.0,76.0
230,164.49008758958334,164.64484950208333,75.0,98.0
231,164.72818283958333,164.93850031041666,73.0,91.0
232,164.96627808958334,165.13294476458333,72.0,66.0
233,165.20437333958333,165.44643684375,70.0,71.0
234,165.44246858958334,165.71032574583333,68.0,70.0
235,165.91865908958334,166.02580195208333,68.0,71.0
236,166.15675433958333,166.89881786875,68.0,77.0
237,166.87104008958335,167.03969089166665,75.0,88.0
238,167.34723058958332,168.41270683333335,77.0,95.0
239,169.25199258958332,169.67064340416667,78.0,91.0
240,169.72818308958333,169.91469103541667,77.0,85.0
241,169.96627833958334,170.41469106041666,78.0,91.0
242,170.44246883958334,170.53175455833332,70.0,106.0
243,170.68056408958333,170.84921489166666,70.0,85.0
244,170.91865933958334,171.02778632916667,77.0,109.0
245,171.15675458958333,171.85913557708332,77.0,100.0
246,171.87104033958335,172.71032609583332,75.0,75.0
247,173.06151658958333,173.50794518333333,77.0,95.0
248,173.53770708958334,173.71627852708332,75.0,85.0
249,173.77580233958332,174.27977061875,77.0,95.0
250,174.25199283958332,174.37302459166668,68.0,79.0
251,174.49008808958334,174.70040556041667,68.0,85.0
252,174.72818333958332,174.82738969375,75.0,72.0
253,174.96627858958334,175.63889767083333,75.0,111.0
254,175.68056433958333,176.42461199583335,73.0,91.0
255,176.39485008958334,176.57342152708333,70.0,75.0
256,176.63294533958333,176.81746915833332,72.0,72.0
257,176.87104058958334,177.20635806666667,73.0,100.0
258,177.34723108958335,177.62897713541668,73.0,98.0
259,177.82342158958332,178.2500089125,73.0,98.0
260,178.29961208958332,178.47421527291667,72.0,71.0
261,178.53770733958333,178.7023898875,70.0,88.0
262,178.77580258958332,179.36112007916665,72.0,88.0
263,179.49008833958334,180.05358043125,72.0,98.0
264,180.68056458958333,180.89485031458332,68.0,70.0
265,181.15675508958333,183.10119963125,65.0,71.0
266,184.49008858958334,184.77778701666668,70.0,79.0
267,184.72818383958332,184.90080289583332,72.0,79.0
268,184.96627908958334,185.16270767083333,73.0,75.0
269,185.20437433958332,185.4881045125,70.0,70.0
270,185.44246958958334,185.62699340833333,72.0,77.0
271,185.68056483958333,185.90278707291665,73.0,76.0
272,185.91866008958334,186.19445375416666,70.0,70.0
273,186.15675533958333,186.3690569375,72.0,73.0
274,186.39485058958334,187.04961252708333,73.0,82.0
275,187.10913633958333,187.24405698125,73.0,91.0
276,187.34723158958334,187.49604112083333,75.0,88.0
277,187.58532683958333,187.76191415,73.0,85.0
278,187.82342208958332,188.01588241666667,72.0,77.0
279,188.06151733958333,188.24405703125,70.0,68.0
280,188.29961258958332,188.57540625416667,68.0,82.0
281,188.77580308958332,188.87500944375,68.0,76.0
282,189.01389833958333,189.68056503958334,68.0,79.0
283,189.72818408958332,189.87104123958332,70.0,77.0
284,189.96627933958334,191.72421593541665,72.0,75.0
285,192.10913658958333,192.37699374583332,70.0,98.0
286,192.34723183958334,192.547628675,72.0,73.0
287,192.58532708958333,192.76389852708334,73.0,79.0
288,192.82342233958335,193.09723187708335,70.0,71.0
289,193.06151758958333,193.25794617083332,72.0,77.0
290,193.29961283958332,193.50794618333333,73.0,82.0
291,193.53770808958333,193.81747000833334,70.0,67.0
292,193.77580333958332,193.96231128541666,72.0,79.0
293,194.01389858958333,194.78373989791666,73.0,98.0
294,194.72818433958332,195.1428669,75.0,100.0
295,195.20437483958332,195.41270818333334,73.0,77.0
296,195.44247008958334,195.58135898541667,72.0,69.0
297,195.68056533958332,195.85318439583332,70.0,85.0
298,195.91866058958334,196.26588282916666,72.0,103.0
299,196.39485108958334,196.9523908,72.0,103.0
300,197.34723208958334,197.76191465,80.0,100.0
301,197.82342258958334,199.25794647083333,77.0,100.0
302,199.49008933958334,199.69247030208334,77.0,100.0
303,199.72818458958332,200.04762905,78.0,98.0
304,200.20437508958332,201.27183546041667,78.0,88.0
305,201.15675608958333,201.28969260416667,70.0,100.0
306,201.39485133958334,201.4642957875,77.0,113.0
307,201.63294658958333,202.22818471458334,77.0,106.0
308,202.34723233958334,203.17461333333333,75.0,106.0
309,203.29961333958335,203.52778795416666,68.0,98.0
310,203.53770858958333,203.91469273541665,77.0,98.0
311,204.01389908958333,204.17262925625,75.0,103.0
312,204.25199433958332,205.01985152083333,77.0,91.0
313,204.96628008958334,205.14683565416667,68.0,95.0
314,205.20437533958332,205.309534075,75.0,113.0
315,205.44247058958334,206.07540712916668,75.0,106.0
316,206.15675633958332,207.03175638333335,73.0,109.0
317,206.87104208958334,207.07342305208334,70.0,91.0
318,207.10913733958333,207.29167703125,72.0,82.0
319,207.34723258958334,207.88691515625,73.0,95.0
320,208.06151833958333,208.72024853125,73.0,95.0
321,208.77580408958332,208.96628028958332,72.0,85.0
322,209.01389933958333,209.16469299791666,70.0,75.0
323,209.25199458958332,209.63294698958333,72.0,88.0
324,209.72818508958332,209.81945493541667,72.0,88.0
325,209.96628033958334,210.66270894583334,72.0,88.0
326,210.68056608958332,210.98215340625,70.0,106.0
327,211.15675658958332,211.690486775,68.0,91.0
328,211.63294708958333,213.01389953958332,70.0,88.0
329,214.01389958958333,214.2738202375,70.0,109.0
330,214.25199483958332,214.44445516666667,72.0,98.0
331,214.49009008958333,214.95635995416666,73.0,79.0
332,214.72818533958332,214.97818535208333,75.0,73.0
333,214.96628058958333,215.690486975,77.0,103.0
334,215.68056633958332,216.6785822625,70.0,98.0
335,216.87104258958334,217.3452489625,78.0,100.0
336,217.34723308958334,217.52778865416667,77.0,72.0
337,217.58532833958333,218.43651885833333,75.0,106.0
338,218.77580458958334,218.86310618125,75.0,100.0
339,219.01389983958333,219.10120143125,75.0,98.0
340,219.25199508958332,219.33136017291667,75.0,98.0
341,219.49009033958333,219.6309633625,75.0,88.0
342,219.72818558958332,220.18850307291666,80.0,111.0
343,220.20437608958332,220.64088404791667,82.0,103.0
344,220.68056658958332,221.06945549791666,77.0,103.0
345,221.15675708958332,221.357153925,75.0,82.0
346,221.39485233958334,222.47421747291668,73.0,106.0
347,222.58532858958333,223.25993179791666,73.0,95.0
348,223.29961433958334,224.16270962083334,66.0,85.0
349,224.49009058958333,224.87302711666666,75.0,103.0
350,224.96628108958333,225.17659856041666,73.0,82.0
351,225.20437633958332,225.976201775,72.0,85.0
352,225.91866208958334,226.08731289166667,70.0,98.0
353,226.15675733958332,226.32540814166666,72.0,75.0
354,226.39485258958334,226.62897958541666,73.0,100.0
355,226.87104308958334,227.05755103541665,73.0,85.0
356,227.10913833958332,227.46628121458332,75.0,106.0
357,227.58532883958333,227.690487575,73.0,100.0
358,227.82342408958334,228.00397965416667,75.0,98.0
359,228.06151933958333,228.9642971625,77.0,100.0
360,229.25199558958334,229.46032893333333,70.0,106.0
361,229.49009083958333,229.65874164166667,72.0,88.0
362,229.72818608958332,229.90080514583335,73.0,98.0
363,229.96628133958333,230.18453531875,75.0,64.0
364,230.20437658958332,230.89485281458334,77.0,109.0
365,230.91866233958334,231.92263064375,70.0,103.0
366,232.10913858958332,232.49802749791667,78.0,103.0
367,232.58532908958333,232.78175767083334,77.0,82.0
368,232.82342433958334,233.59524977499998,75.0,106.0
369,234.01390058958333,234.10913868958332,75.0,103.0
370,234.25199583958334,234.35120219375,75.0,88.0
371,234.49009108958333,234.57739268125,75.0,100.0
372,234.72818633958332,234.89088476041667,75.0,82.0
373,234.96628158958333,235.39485303958332,80.0,106.0
374,235.44247208958333,235.64882130625,82.0,91.0
375,235.91866258958333,236.34723403958333,77.0,100.0
376,236.39485308958334,236.595249925,75.0,76.0
377,236.63294833958332,237.43056742708333,73.0,98.0
378,237.82342458958334,238.74802781041666,73.0,98.0
379,238.77580558958334,239.547631025,66.0,91.0
380,239.72818658958334,240.08929771875,72.0,100.0
381,240.20437708958332,240.39882154375,73.0,75.0
382,240.44247233958333,241.09128189583333,75.0,100.0
383,241.15675808958332,241.65278986041668,73.0,91.0
384,241.87104383958334,242.07540892916666,73.0,79.0
385,241.63294858958332,242.13493274166666,72.0,82.0
386,242.34723433958334,244.03771061458332,70.0,73.0
387,244.49009158958333,244.7500122375,70.0,109.0
388,244.72818683958334,244.92064716666667,72.0,98.0
389,244.96628208958333,245.43255195416666,73.0,79.0
390,245.20437733958332,245.45437735208333,75.0,73.0
391,245.44247258958333,246.166678975,77.0,103.0
392,246.15675833958332,247.15477426249998,70.0,98.0
393,247.34723458958334,247.8214409625,78.0,100.0
394,247.82342508958334,248.00398065416667,77.0,72.0
395,248.06152033958332,248.91271085833333,75.0,106.0
396,249.25199658958334,249.33929818125,75.0,100.0
397,249.49009183958333,249.57739343125,75.0,98.0
398,249.72818708958334,249.80755217291667,75.0,98.0
399,249.96628233958333,250.1071553625,75.0,88.0
400,250.20437758958334,250.66469507291666,80.0,111.0
401,250.68056808958332,251.11707604791667,82.0,103.0
402,251.15675858958332,251.54564749791666,77.0,103.0
403,251.63294908958332,251.833345925,75.0,82.0
404,251.87104433958334,252.95040947291668,73.0,106.0
405,253.06152058958332,253.73612379791666,73.0,95.0
406,253.77580633958334,254.63890162083334,66.0,85.0
407,254.96628258958333,255.34921911666666,75.0,103.0
408,255.44247308958333,255.65279056041666,73.0,82.0
409,255.68056833958332,256.452393775,72.0,85.0
410,256.3948540895833,256.56350489166664,70.0,98.0
411,256.6329493395833,256.80160014166665,72.0,75.0
412,256.87104458958333,257.10517158541666,73.0,100.0
413,257.3472350895833,257.53374303541665,73.0,85.0
414,257.5853303395833,257.94247321458334,75.0,106.0
415,258.06152083958335,258.166679575,73.0,100.0
416,258.2996160895833,258.48017165416667,75.0,98.0
417,258.5377113395833,259.4404891625,77.0,100.0
418,259.72818758958334,259.9365209333333,70.0,106.0
419,259.96628283958336,260.1349336416667,72.0,88.0
420,260.2043780895833,260.37699714583334,73.0,98.0
421,260.44247333958333,260.66072731875,75.0,64.0
422,260.68056858958334,261.37104481458334,77.0,109.0
423,261.39485433958333,262.39882264375,70.0,103.0
424,262.58533058958335,262.9742194979167,78.0,103.0
425,263.0615210895833,263.25794967083334,77.0,82.0
426,263.29961633958334,264.071441775,75.0,106.0
427,264.49009258958336,264.5853306895833,75.0,103.0
428,264.7281878395833,264.82739419375,75.0,88.0
429,264.9662830895833,265.05358468125,75.0,100.0
430,265.20437833958334,265.36707676041664,75.0,82.0
431,265.44247358958336,265.87104503958335,80.0,106.0
432,265.91866408958333,266.12501330625,82.0,91.0
433,266.3948545895833,266.82342603958335,77.0,100.0
434,266.87104508958333,267.071441925,75.0,76.0
435,267.10914033958335,267.90675942708333,73.0,98.0
436,268.2996165895833,269.2242198104167,73.0,98.0
437,269.2519975895833,270.023823025,66.0,91.0
438,270.2043785895833,270.56548971875,72.0,100.0
439,270.68056908958334,270.87501354375,73.0,75.0
440,270.91866433958336,271.56747389583336,75.0,100.0
441,271.63295008958335,272.1289818604167,73.0,91.0
442,272.34723583958333,272.5516009291667,73.0,79.0
443,272.1091405895833,272.6111247416667,72.0,82.0
444,272.8234263395833,274.51390261458334,70.0,73.0
