,start,end,pitch,velocity
0,4.009920835416667,4.210317670833334,54.0,95.0
1,4.35119069375,4.563492291666667,54.0,63.0
2,3.0833334875,4.662698645833333,39.0,106.0
3,3.3849208041666667,4.777778016666667,46.0,68.0
4,3.716270027083333,4.8571431,51.0,85.0
5,4.335317677083333,5.5873018666666665,58.0,111.0
6,6.5059527062499996,6.724206685416666,60.0,71.0
7,5.60119075625,7.426587672916667,44.0,106.0
8,5.902778072916667,7.462301960416666,51.0,71.0
9,6.1884923729166665,7.474206722916667,56.0,71.0
10,6.83928605625,8.210317870833332,63.0,98.0
11,8.271825810416667,8.438492485416667,58.0,76.0
12,8.347222639583332,10.075397329166666,61.0,73.0
13,8.146825804166667,10.694444979166667,49.0,82.0
14,8.452381375,11.031746583333334,66.0,91.0
15,11.787699002083333,12.05357203125,61.0,71.0
16,12.1309529875,13.835318152083333,61.0,48.0
17,12.12500060625,13.882937202083333,65.0,69.0
18,10.900794195833333,13.92261974375,46.0,75.0
19,11.18452436875,13.930556252083333,53.0,68.0
20,11.51785771875,13.936508633333332,58.0,68.0
21,14.91071503125,15.11309599375,54.0,66.0
22,14.05357213125,15.813492854166666,39.0,103.0
23,14.337302304166666,15.912699208333333,46.0,68.0
24,14.64881025625,15.936508733333334,51.0,66.0
25,15.347222989583333,16.33928653125,63.0,38.0
26,15.214286475,16.39484208958333,58.0,75.0
27,17.722223108333335,20.28968355416667,63.0,55.0
28,17.418651664583333,20.2976200625,60.0,38.0
29,16.430556377083334,20.349207366666665,44.0,82.0
30,16.769842108333332,20.349207366666665,51.0,56.0
31,17.09523895,20.353175620833333,56.0,48.0
32,20.638889920833332,21.003969304166667,65.0,88.0
33,20.640874047916668,21.039683591666666,61.0,75.0
34,20.644842302083333,21.1547629625,70.0,76.0
35,21.579366158333332,21.7023820375,65.0,100.0
36,21.5833344125,21.7142868,61.0,85.0
37,21.579366158333332,21.7142868,70.0,91.0
38,21.119048675,21.72023918125,53.0,49.0
39,21.132937564583333,21.759921722916665,58.0,58.0
40,20.62500103125,21.85119156875,46.0,88.0
41,22.061509039583335,22.6547630375,60.0,91.0
42,22.05357253125,22.680556689583334,63.0,106.0
43,22.051588404166665,22.841270983333334,68.0,95.0
44,23.38095355,23.51785831875,63.0,65.0
45,22.049604277083333,23.972223420833334,44.0,98.0
46,22.545636047916666,24.01785834375,51.0,65.0
47,23.4880964125,24.01785834375,68.0,95.0
48,23.30357259375,24.031747233333334,60.0,66.0
49,22.561509064583333,24.045636122916665,56.0,68.0
50,24.45833455625,24.90476315,65.0,91.0
51,24.460318683333334,24.9404774375,61.0,77.0
52,24.460318683333334,25.027779029166666,70.0,85.0
53,24.928572674999998,25.545636197916668,58.0,67.0
54,24.9166679125,25.551588579166665,53.0,51.0
55,25.38690603125,25.555556833333334,65.0,106.0
56,25.38690603125,25.555556833333334,70.0,98.0
57,25.388890158333332,25.56547746875,61.0,88.0
58,24.452382175,25.62500128125,46.0,88.0
59,25.83928700625,26.408731479166665,60.0,91.0
60,25.833334625,26.468255291666665,63.0,103.0
61,26.87500134375,27.013890239583333,63.0,12.0
62,25.833334625,27.111112466666665,68.0,82.0
63,27.134921991666666,27.27976326875,63.0,73.0
64,27.059525162499998,27.5119061375,60.0,64.0
65,27.24404898125,27.888890283333332,68.0,95.0
66,26.33928703125,27.95238235,51.0,46.0
67,26.375001318749998,27.9642871125,56.0,60.0
68,25.8214298625,28.009922035416665,44.0,77.0
69,29.013890339583334,29.19047765,61.0,88.0
70,29.251985589583335,29.41269988333333,61.0,59.0
71,29.251985589583335,29.472223695833332,65.0,82.0
72,29.49008083958333,29.652779260416665,70.0,79.0
73,28.775795089583333,29.82738244375,58.0,75.0
74,29.728176089583332,29.896826891666667,61.0,71.0
75,28.537699839583333,29.902779272916668,53.0,61.0
76,28.299604589583332,29.936509433333335,46.0,82.0
77,29.966271339583333,30.05357293125,61.0,40.0
78,30.204366589583334,30.849207891666666,70.0,75.0
79,30.204366589583334,30.853176145833334,61.0,65.0
80,30.680557089583335,31.373017441666665,58.0,61.0
81,30.680557089583335,31.390874585416665,53.0,8.0
82,31.156747589583333,31.66071586875,70.0,91.0
83,31.632938089583334,31.801588891666665,65.0,66.0
84,30.204366589583334,31.95833493125,46.0,75.0
85,31.394842839583333,32.055557158333336,61.0,67.0
86,32.58531908958334,32.88690640625,53.0,62.0
87,32.82341433958333,33.30754134791667,56.0,75.0
88,33.29960483958333,33.5357159625,60.0,69.0
89,33.53770008958333,34.29166838125,56.0,69.0
90,34.01389058958333,35.648811306249996,65.0,73.0
91,32.347223839583336,35.66071606875,48.0,64.0
92,32.109128589583335,35.67262083125,41.0,100.0
93,33.06150958958333,35.69246210208333,53.0,64.0
94,36.63293833958333,36.853176445833334,58.0,98.0
95,36.871033589583334,37.0476209,58.0,47.0
96,36.871033589583334,37.073414552083335,61.0,88.0
97,37.109128839583335,37.261906625,66.0,73.0
98,37.347224089583335,37.51389076458333,58.0,77.0
99,37.585319339583336,37.68055743958333,61.0,70.0
100,37.585319339583336,37.68452569375,58.0,49.0
101,36.39484308958333,38.27182731041667,54.0,77.0
102,36.15674783958333,38.688493997916666,49.0,70.0
103,37.82341458958334,38.769843208333334,66.0,85.0
104,37.82341458958334,38.954367027083336,58.0,71.0
105,37.82341458958334,38.95635115416667,61.0,75.0
106,35.91865258958333,39.13889084583333,42.0,109.0
107,38.77579558958333,39.206351166666664,49.0,58.0
108,39.01389083958333,39.23214481875,66.0,77.0
109,38.77579558958333,39.3452400625,54.0,91.0
110,39.25198608958333,39.537700389583335,58.0,85.0
111,39.490081339583334,39.537700389583335,61.0,63.0
112,40.68055758958333,40.87301791666667,63.0,109.0
113,40.44246233958334,40.884922679166664,60.0,95.0
114,40.91865283958333,41.097224277083335,68.0,85.0
115,41.15674808958333,41.563494141666666,60.0,91.0
116,41.39484333958333,41.57936715833333,63.0,91.0
117,40.204367089583336,41.74206557916666,56.0,76.0
118,39.966271839583335,41.763890977083335,51.0,76.0
119,39.728176589583335,41.77777986666667,44.0,103.0
120,42.109129089583334,42.484129108333335,61.0,82.0
121,42.347224339583335,42.87897039791667,65.0,98.0
122,42.823414839583336,43.05158945416667,68.0,88.0
123,43.06151008958334,43.30754184791667,73.0,85.0
124,42.585319589583335,43.89484346458333,61.0,88.0
125,41.87103383958333,43.91270060833333,56.0,75.0
126,41.63293858958333,43.96825616666666,49.0,98.0
127,43.29960533958333,43.99206569166667,65.0,88.0
128,44.25198633958333,44.454367302083334,66.0,109.0
129,44.49008158958333,44.61508159583333,66.0,38.0
130,44.01389108958333,44.621033977083336,63.0,106.0
131,43.77579583958333,44.674605408333335,58.0,88.0
132,44.49008158958333,44.68849429791667,70.0,95.0
133,43.53770058958333,44.78968477916666,51.0,111.0
134,44.728176839583334,44.90674827708333,75.0,103.0
135,44.966272089583335,45.32936734583333,66.0,98.0
136,45.204367339583335,45.32936734583333,70.0,95.0
137,46.15674833958333,46.36309755625,60.0,103.0
138,46.39484358958333,46.50992296041667,60.0,53.0
139,46.39484358958333,46.563494391666666,63.0,106.0
140,45.91865308958333,46.71230392291667,56.0,103.0
141,45.68055783958333,46.738097575,51.0,88.0
142,45.442462589583336,46.771827735416664,44.0,109.0
143,46.63293883958333,46.811510277083336,68.0,100.0
144,46.41468486041666,47.319446810416665,42.0,109.0
145,48.061510339583336,48.4404786125,56.0,98.0
146,48.29960558958333,48.470240518749996,60.0,82.0
147,48.53770083958333,48.746034183333336,63.0,109.0
148,47.347224589583334,48.77579608958333,41.0,100.0
149,47.585319839583335,48.85516117291667,48.0,70.0
150,47.823415089583335,48.94643101875,53.0,79.0
151,48.77579608958333,49.23412944583333,56.0,91.0
152,49.01389133958333,49.23412944583333,60.0,91.0
153,50.204367589583335,50.38293902708333,65.0,82.0
154,49.966272339583334,50.388891408333336,61.0,79.0
155,50.442462839583335,50.668653327083334,68.0,91.0
156,50.680558089583336,51.14087557291666,61.0,77.0
157,50.91865333958333,51.216272402083334,65.0,79.0
158,49.72817708958333,51.28571685,58.0,79.0
159,49.49008183958333,51.32341526458333,53.0,79.0
160,49.25198658958333,51.355161297916666,46.0,106.0
161,51.87103433958333,52.26389150208333,54.0,88.0
162,52.10912958958333,52.906748677083336,58.0,85.0
163,51.39484383958333,52.968256616666665,46.0,68.0
164,51.63293908958333,52.97420899791667,51.0,75.0
165,51.15674858958333,52.9880978875,39.0,111.0
166,53.77579633958333,54.73214559375,56.0,88.0
167,53.061510589583335,54.803574168749996,41.0,98.0
168,53.299605839583336,54.811510677083334,48.0,68.0
169,53.53770108958333,54.811510677083334,53.0,98.0
170,54.01389158958333,54.81547893125,63.0,75.0
171,54.96627258958333,55.331351972916664,61.0,69.0
172,54.96627258958333,55.37500276875,65.0,72.0
173,54.96627258958333,55.5357170625,70.0,68.0
174,55.680558339583335,55.85912977708333,53.0,6.0
175,55.442463089583335,56.045637722916666,58.0,59.0
176,55.918653589583336,56.063494866666666,65.0,68.0
177,55.918653589583336,56.07738375625,70.0,61.0
178,55.918653589583336,56.07936788333333,61.0,61.0
179,54.96627258958333,56.09325677291667,46.0,85.0
180,56.39484408958333,57.47024096875,60.0,69.0
181,56.39484408958333,57.52579652708333,63.0,73.0
182,56.39484408958333,57.587304466666666,68.0,70.0
183,57.10912983958333,58.10317750833333,51.0,6.0
184,56.39484408958333,58.22222513333333,44.0,66.0
185,57.34722508958333,58.246034658333336,56.0,18.0
186,57.823415589583334,58.6785743625,63.0,65.0
187,57.823415589583334,58.692463252083336,60.0,65.0
188,58.299606089583335,58.71627277708333,68.0,64.0
189,59.25198708958333,59.867066485416665,58.0,69.0
190,59.25198708958333,59.89881251875,53.0,55.0
191,59.72817758958333,59.914685535416666,65.0,69.0
192,59.72817758958333,59.914685535416666,70.0,70.0
193,59.72817758958333,59.924606170833336,61.0,68.0
194,58.77579658958333,59.93651093333333,46.0,91.0
195,60.20436808958333,61.43452688125,68.0,66.0
196,60.20436808958333,61.501987202083335,60.0,71.0
197,60.20436808958333,61.595241175,63.0,82.0
198,60.680558589583335,62.00198722708333,51.0,6.0
199,61.156749089583336,62.07341580208333,56.0,40.0
200,61.63293958958333,62.1547650125,68.0,73.0
201,60.20436808958333,62.18254279166666,44.0,79.0
202,63.299606339583335,63.68055873958333,61.0,75.0
203,63.537701589583335,63.7142889,65.0,85.0
204,63.775796839583336,63.984130183333335,70.0,85.0
205,62.58532058958333,64.20436828958333,46.0,98.0
206,63.061511089583334,64.27976511874999,58.0,71.0
207,62.82341583958333,64.36309845625,53.0,71.0
208,64.25198733958334,64.57738418125,65.0,51.0
209,64.01389208958334,64.98413023333333,61.0,71.0
210,65.44246358958333,65.60516201041666,65.0,73.0
211,65.20436833958334,65.62698740833333,61.0,69.0
212,64.96627308958334,65.77778106666666,58.0,60.0
213,65.68055883958333,65.87301916666667,70.0,73.0
214,64.72817783958334,65.9047652,53.0,52.0
215,64.49008258958334,66.30357474375,46.0,88.0
216,66.15674933958333,66.42262236875,65.0,68.0
217,65.91865408958333,66.42857475,61.0,73.0
218,66.87103508958333,67.1428605,53.0,58.0
219,67.10913033958333,67.66468592291666,56.0,98.0
220,67.58532083958333,67.93651133333333,60.0,85.0
221,67.82341608958333,67.98016212916667,65.0,62.0
222,68.06151133958333,68.37103516458333,56.0,69.0
223,67.34722558958333,70.04365429583333,53.0,66.0
224,66.63293983958333,70.04762255,48.0,58.0
225,66.39484458958333,70.06151143958333,41.0,103.0
226,68.29960658958333,70.06547969374999,65.0,85.0
227,71.15674958958333,71.34127340833334,61.0,91.0
228,70.91865433958333,71.35317817083333,58.0,69.0
229,71.39484483958333,71.63294008958333,66.0,73.0
230,70.68055908958333,72.34722583958333,54.0,64.0
231,71.63294008958333,72.56151156458333,58.0,70.0
232,72.10913058958333,72.8452417375,66.0,100.0
233,72.58532108958333,72.86309888125,54.0,58.0
234,72.82341633958333,73.48016240416666,58.0,88.0
235,73.29960683958333,73.53174970833334,61.0,76.0
236,70.20436858958334,73.53373383541667,42.0,98.0
237,73.06151158958333,73.71825765416666,54.0,67.0
238,70.44246383958334,73.81547988125,49.0,58.0
239,73.53770208958333,73.96230528541666,66.0,85.0
240,73.77579733958333,74.01389258958334,58.0,73.0
241,74.49008308958334,74.81746405833333,56.0,67.0
242,74.72817833958334,75.19841645833333,60.0,82.0
243,74.96627358958334,75.44643234375,56.0,72.0
244,75.20436883958334,75.46627361458333,68.0,85.0
245,74.25198783958334,75.51786091875,51.0,68.0
246,74.01389258958334,75.68452759375,44.0,98.0
247,75.68055933958333,75.9047657,63.0,71.0
248,75.44246408958334,75.91865458958333,60.0,75.0
249,76.39484508958333,76.73413082083333,61.0,69.0
250,76.63294033958333,77.1071467125,65.0,91.0
251,76.15674983958333,77.32341656458333,56.0,75.0
252,76.87103558958333,77.33532132708334,61.0,59.0
253,77.10913083958333,77.37698799583333,73.0,88.0
254,75.91865458958333,77.50595625625,49.0,77.0
255,77.58532133958333,77.75992452291666,68.0,69.0
256,77.34722608958333,77.76389277708333,65.0,82.0
257,78.29960708958333,78.595242025,63.0,64.0
258,78.53770233958333,78.95040077291667,66.0,85.0
259,78.77579758958333,78.97421029791667,63.0,73.0
260,78.06151183958333,79.03770236458334,58.0,73.0
261,77.82341658958333,79.21627380208334,51.0,100.0
262,79.01389283958333,79.29167063125,75.0,95.0
263,79.49008333958334,79.65675001458334,70.0,69.0
264,79.25198808958334,79.71627382708333,66.0,79.0
265,80.68055958958334,80.79167070625,63.0,30.0
266,80.44246433958334,80.91865483958333,60.0,91.0
267,80.91865483958333,81.14484532708333,68.0,71.0
268,80.20436908958334,81.43055962708333,56.0,64.0
269,79.96627383958334,81.45040089791667,51.0,64.0
270,79.72817858958334,81.55555963333333,44.0,100.0
271,81.39484533958333,81.59325804791666,63.0,68.0
272,81.15675008958333,81.61309931875,60.0,75.0
273,82.34722633958333,82.85317874583333,56.0,64.0
274,82.58532158958333,82.85317874583333,60.0,58.0
275,82.82341683958333,82.92063906666667,61.0,73.0
276,82.82341683958333,83.20040098541666,63.0,79.0
277,81.63294058958333,83.4285756,41.0,111.0
278,82.10913108958333,83.43055972708333,53.0,69.0
279,81.87103583958333,83.44841687083333,48.0,69.0
280,83.29960733958333,83.56944862291667,60.0,69.0
281,83.06151208958333,83.60516291041667,56.0,79.0
282,84.01389308958333,84.33333755,58.0,64.0
283,84.25198833958333,84.69246455208334,61.0,71.0
284,84.72817883958334,84.99008361458333,70.0,85.0
285,84.49008358958334,85.13294076458334,58.0,69.0
286,83.77579783958333,85.14881378125,53.0,68.0
287,83.53770258958333,85.33928998125,46.0,98.0
288,84.96627408958334,85.42659157291666,61.0,68.0
289,85.20436933958334,85.42659157291666,65.0,68.0
290,85.44246458958334,86.54960750208333,39.0,103.0
291,86.15675033958333,86.61111544166667,54.0,72.0
292,85.68055983958334,86.64484560208334,46.0,68.0
293,86.39484558958333,86.666671,58.0,73.0
294,85.91865508958334,86.70833766875,51.0,68.0
295,86.63294083958333,86.80952815,63.0,73.0
296,86.87103608958333,87.261909125,54.0,73.0
297,87.10913133958333,87.28770277708334,58.0,69.0
298,88.06151233958333,88.30357584375,56.0,69.0
299,88.29960758958333,89.2738139875,63.0,88.0
300,87.58532183958333,89.28571875,48.0,55.0
301,87.82341708958333,89.30159176666666,53.0,77.0
302,87.34722658958333,89.32540129166667,41.0,100.0
303,89.96627433958334,90.4404807125,61.0,69.0
304,90.44246483958334,90.62103627708333,65.0,72.0
305,90.68056008958334,91.0119093125,61.0,65.0
306,89.72817908958334,92.0833379375,58.0,68.0
307,89.49008383958333,92.10119508125,53.0,65.0
308,91.15675058958334,92.15873476666667,70.0,75.0
309,93.53770308958333,93.78175072083333,58.0,73.0
310,93.29960783958333,93.88690945625,53.0,69.0
311,93.77579833958333,93.95436977708333,65.0,77.0
312,93.77579833958333,93.96627453958334,61.0,106.0
313,93.06151258958333,94.60119520625,46.0,109.0
314,94.25198883958333,94.61508409583334,61.0,91.0
315,94.49008408958333,94.65079838333334,65.0,75.0
316,94.01389358958333,94.76786188125,53.0,57.0
317,94.01389358958333,94.81548093125,58.0,75.0
318,94.72817933958333,94.98016347916666,70.0,76.0
319,95.44246508958334,95.690480975,63.0,75.0
320,95.20436983958334,95.77778256666667,58.0,68.0
321,95.68056033958334,96.05159210416666,66.0,111.0
322,95.91865558958334,96.22024290625,63.0,85.0
323,95.91865558958334,96.22421116041667,58.0,53.0
324,94.96627458958334,96.38889370833333,51.0,109.0
325,96.15675083958334,96.40873497916667,75.0,106.0
326,96.63294133958333,96.85317944583333,70.0,77.0
327,96.39484608958334,96.86706833541666,66.0,95.0
328,97.34722708958333,97.59127472083333,56.0,71.0
329,97.10913183958333,97.6785763125,51.0,62.0
330,97.58532233958333,97.78175092083333,63.0,111.0
331,97.58532233958333,97.79563981041666,60.0,103.0
332,98.06151283958333,98.19643348125,63.0,106.0
333,98.06151283958333,98.26786205625,60.0,98.0
334,96.87103658958333,98.29960808958333,44.0,111.0
335,97.82341758958333,98.36508428333333,51.0,52.0
336,97.82341758958333,98.452385875,56.0,76.0
337,98.53770333958333,98.72222715833334,65.0,72.0
338,99.25198908958333,99.52976688125,61.0,71.0
339,99.01389383958333,99.61706847291667,56.0,72.0
340,99.49008433958333,99.93056055208334,65.0,100.0
341,99.72817958958333,99.94841769583333,61.0,75.0
342,99.72817958958333,99.95238595,56.0,55.0
343,98.77579858958333,100.04960817708333,49.0,106.0
344,99.96627483958333,100.23413199583334,73.0,100.0
345,100.44246533958334,100.68056058958334,68.0,76.0
346,100.20437008958334,100.690481225,65.0,88.0
347,101.15675108958334,101.40873522916667,54.0,70.0
348,100.91865583958334,101.49802094791667,49.0,61.0
349,101.39484633958334,101.57937015833333,61.0,106.0
350,101.39484633958334,101.66270349583333,58.0,100.0
351,101.87103683958333,102.15873526666667,58.0,91.0
352,102.10913208958333,102.28968765416667,61.0,82.0
353,100.68056058958334,102.46230671041667,42.0,111.0
354,101.63294158958334,102.49206861666667,49.0,30.0
355,101.63294158958334,102.49802099791667,54.0,75.0
356,102.34722733958333,102.56746544583334,58.0,82.0
357,103.06151308958333,103.29365595833333,56.0,76.0
358,102.82341783958333,103.41468771041667,51.0,62.0
359,103.29960833958333,103.73016391666667,60.0,103.0
360,103.77579883958333,103.93056075208334,68.0,77.0
361,102.58532258958333,104.23413219583333,44.0,111.0
362,103.53770358958333,104.35516394791667,51.0,52.0
363,103.53770358958333,104.37897347291667,56.0,88.0
364,104.01389408958333,104.48214808125,60.0,75.0
365,104.25198933958333,104.50794173333333,63.0,72.0
366,104.96627508958333,105.25794177083333,61.0,73.0
367,104.72817983958333,105.33532272708334,56.0,85.0
368,105.20437033958333,105.64683067916667,65.0,103.0
369,105.44246558958334,105.84127513333333,61.0,98.0
370,105.44246558958334,105.88294180208334,56.0,60.0
371,105.68056083958334,105.9047672,73.0,88.0
372,104.49008458958333,105.98413228333334,49.0,109.0
373,106.15675133958334,106.40278309791667,68.0,82.0
374,105.91865608958334,106.4404815125,65.0,98.0
375,107.34722758958333,107.52579902708334,60.0,71.0
376,107.10913233958333,108.1904816,57.0,76.0
377,106.63294183958334,108.21032287083334,48.0,77.0
378,106.87103708958334,108.21032287083334,53.0,100.0
379,107.34722758958333,108.22024350625,65.0,103.0
380,106.39484658958334,108.24603715833334,41.0,98.0
381,108.53770383958333,108.67659273541666,65.0,109.0
382,108.53770383958333,108.69841813333333,61.0,91.0
383,108.77579908958333,109.05754513541666,58.0,65.0
384,109.01389433958333,109.85119596875,61.0,98.0
385,109.01389433958333,109.85318009583334,65.0,100.0
386,108.29960858958333,109.97024359375,46.0,111.0
387,108.77579908958333,110.04960867708333,53.0,8.0
388,109.72818008958333,110.11111661666666,58.0,79.0
389,109.96627533958333,110.24008487708333,70.0,109.0
390,110.68056108958334,110.92460872083333,63.0,73.0
391,110.44246583958333,111.06349761666667,58.0,71.0
392,110.91865633958334,111.34127540833333,66.0,106.0
393,111.15675158958334,111.34325953541666,63.0,95.0
394,111.15675158958334,111.35119604375,58.0,55.0
395,110.20437058958333,111.45833890625,51.0,111.0
396,111.39484683958334,111.63691034375,75.0,103.0
397,111.87103733958334,112.04167226875,70.0,82.0
398,111.63294208958334,112.0595294125,66.0,95.0
399,112.58532308958333,112.94643421875,56.0,77.0
400,112.82341833958333,113.43056122708333,60.0,100.0
401,113.29960883958333,113.5357199625,63.0,75.0
402,113.53770408958333,113.70833901875,68.0,73.0
403,112.10913258958334,113.87897394791666,44.0,109.0
404,112.34722783958333,113.87897394791666,51.0,71.0
405,113.06151358958333,113.87897394791666,56.0,77.0
406,113.77579933958333,113.87897394791666,60.0,79.0
407,114.49008508958333,115.214291475,61.0,85.0
408,114.25198983958333,115.27183116041667,56.0,77.0
409,114.01389458958333,115.37500576875,49.0,106.0
410,114.72818033958333,115.41072005625,65.0,109.0
411,115.20437083958333,115.47818037708333,68.0,98.0
412,115.44246608958333,115.65278356041667,73.0,100.0
413,115.68056133958333,115.93452960625,65.0,100.0
414,116.87103758958334,117.04960902708333,61.0,64.0
415,116.63294233958334,117.12897411041666,58.0,100.0
416,117.10913283958334,117.30754554791666,66.0,77.0
417,115.91865658958334,117.38691063125,42.0,111.0
418,116.39484708958334,117.47222809583333,54.0,71.0
419,116.15675183958334,117.500005875,49.0,69.0
420,117.34722808958334,117.79365668333334,58.0,85.0
421,118.77579958958333,118.98016467916666,63.0,91.0
422,118.53770433958333,118.99603769583334,60.0,95.0
423,119.01389483958333,119.26984723333334,68.0,77.0
424,118.29960908958333,119.738101225,56.0,95.0
425,119.25199008958333,119.7500059875,60.0,95.0
426,118.06151383958333,119.76191075,51.0,79.0
427,117.82341858958333,119.7738155125,44.0,111.0
428,120.20437108958333,120.50595840625,58.0,71.0
429,120.44246633958333,120.94841874583334,61.0,79.0
430,120.91865683958333,121.14683145416666,65.0,70.0
431,121.39484733958334,121.59127592083333,65.0,48.0
432,121.15675208958334,121.60119655625,61.0,73.0
433,120.68056158958333,122.99008551458333,58.0,70.0
434,119.72818058958333,123.02183154791666,46.0,100.0
435,119.96627583958333,123.023815675,53.0,70.0
436,121.63294258958334,123.04960932708333,70.0,85.0
437,124.25199033958333,124.37500621875,54.0,62.0
438,124.49008558958333,126.78770475208333,61.0,68.0
439,124.49008558958333,126.79167300625,58.0,70.0
440,124.49008558958333,126.79564126041666,54.0,67.0
441,124.01389508958333,126.83929205625,51.0,69.0
442,123.77579983958333,126.85318094583333,46.0,75.0
443,123.53770458958333,126.88492697916666,39.0,79.0
444,127.82341908958333,128.2261968875,56.0,68.0
445,128.06151433958334,128.24603815833333,60.0,73.0
446,127.58532383958334,130.75000653749998,51.0,69.0
447,128.29960958958333,130.77976844375,63.0,69.0
448,127.34722858958334,130.78175257083333,48.0,95.0
449,128.29960958958333,130.78175257083333,56.0,53.0
450,128.29960958958333,130.785720825,60.0,61.0
451,131.87103833958332,132.380959,54.0,66.0
452,132.10913358958334,132.50992726041667,58.0,54.0
453,132.34722883958332,132.74008600208333,63.0,67.0
454,132.82341933958332,133.24405428125,58.0,51.0
455,132.58532408958334,134.690482925,54.0,56.0
456,131.15675258958333,134.69841943333333,39.0,100.0
457,131.39484783958332,134.74802261041665,46.0,69.0
458,133.06151458958334,134.78373689791667,63.0,57.0
459,131.63294308958334,134.84127658333333,51.0,73.0
460,135.44246708958335,136.18453061875,60.0,61.0
461,135.20437183958333,136.20040363541668,54.0,68.0
462,134.96627658958334,136.35318142083332,48.0,103.0
463,135.91865758958332,136.76984810833332,66.0,68.0
464,135.68056233958333,136.79961001458332,63.0,57.0
465,137.58532433958334,137.78175292083333,58.0,68.0
466,137.82341958958332,138.95635615416666,66.0,71.0
467,137.82341958958332,138.96826091666668,61.0,68.0
468,137.82341958958332,138.976197425,58.0,55.0
469,137.34722908958332,139.00794345833333,54.0,63.0
470,137.10913383958334,139.01984822083332,49.0,60.0
471,138.77580058958333,139.01984822083332,49.0,85.0
472,136.87103858958332,139.06945139791665,42.0,85.0
473,139.49008633958334,140.000007,65.0,77.0
474,139.25199108958333,140.44246733958335,61.0,66.0
475,139.96627683958334,140.47222924583332,68.0,82.0
476,139.01389583958334,140.4761975,56.0,47.0
477,140.44246733958335,140.6547689375,65.0,75.0
478,141.39484833958332,141.93651503333334,69.0,92.0
479,141.87103883958332,142.10318170833332,72.0,51.0
480,141.87103883958332,142.43651505833333,77.0,77.0
481,141.15675308958333,142.4642928375,65.0,79.0
482,140.91865783958332,142.47818172708332,60.0,82.0
483,140.68056258958333,142.49405474375,53.0,98.0
484,143.06151508958334,143.3928643125,58.0,64.0
485,142.82341983958332,143.42064209166668,53.0,66.0
486,142.58532458958334,143.44643574375,46.0,82.0
487,143.29961033958332,143.54167384375,61.0,61.0
488,143.77580083958333,144.26588022916667,51.0,64.0
489,144.01389608958334,144.27183261041665,56.0,64.0
490,143.53770558958334,144.32738816875,44.0,98.0
491,144.49008658958334,145.94643586875,43.0,112.0
492,145.44246758958334,146.35516604791667,58.0,56.0
493,144.96627708958334,146.3690549375,55.0,40.0
494,146.39484858958332,149.52976938125,39.0,77.0
495,146.87103908958332,149.61707097291668,46.0,10.0
496,147.10913433958333,149.71032494583332,51.0,14.0
497,150.91865833958335,151.45635677916667,57.0,72.0
498,151.39484883958332,151.67461075833333,60.0,51.0
499,151.63294408958333,152.12897586041666,57.0,67.0
500,152.10913458958333,152.98413463333333,65.0,77.0
501,150.44246783958334,153.01389653958333,48.0,38.0
502,150.68056308958333,153.02580130208332,53.0,44.0
503,150.20437258958333,153.03770606458332,41.0,75.0
504,154.72818233958333,154.90476965,61.0,88.0
505,154.96627758958334,155.12699188333332,61.0,59.0
506,154.96627758958334,155.18651569583332,65.0,82.0
507,155.20437283958333,155.36707126041668,70.0,79.0
508,154.49008708958334,155.54167444375,58.0,75.0
509,155.44246808958334,155.61111889166668,61.0,71.0
510,154.25199183958333,155.61707127291666,53.0,61.0
511,154.01389658958334,155.65080143333333,46.0,82.0
512,155.68056333958333,155.76786493125,61.0,40.0
513,155.91865858958334,156.56349989166665,70.0,75.0
514,155.91865858958334,156.56746814583335,61.0,65.0
515,156.39484908958335,157.08730944166666,58.0,61.0
516,156.39484908958335,157.10516658541667,53.0,8.0
517,156.87103958958332,157.37500786875,70.0,91.0
518,157.34723008958332,157.51588089166665,65.0,66.0
519,155.91865858958334,157.67262693125,46.0,75.0
520,157.10913483958333,157.76984915833333,61.0,67.0
521,158.29961108958332,158.68651587083332,56.0,71.0
522,158.53770633958334,158.9881031875,60.0,85.0
523,159.01389683958334,159.18453176875,68.0,88.0
524,158.77580158958332,160.51984929583332,56.0,64.0
525,159.72818258958333,160.9642937625,63.0,71.0
526,159.25199208958333,161.10913503958332,60.0,71.0
527,158.06151583958334,161.36111917916668,51.0,61.0
528,160.68056358958333,161.36508743333334,56.0,63.0
529,157.82342058958332,161.5357223625,44.0,100.0
530,159.72818258958333,161.56945252291666,68.0,73.0
531,161.15675408958333,161.63492871666668,60.0,56.0
532,162.34723033958332,162.56746844583333,58.0,98.0
533,162.58532558958333,162.7619129,58.0,47.0
534,162.58532558958333,162.78770655208334,61.0,88.0
535,162.82342083958332,162.976198625,66.0,73.0
536,163.06151608958334,163.22818276458332,58.0,77.0
537,163.29961133958332,163.39484943958334,61.0,70.0
538,163.29961133958332,163.39881769375,58.0,49.0
539,162.10913508958333,163.98611931041665,54.0,77.0
540,161.87103983958332,164.40278599791665,49.0,70.0
541,163.53770658958334,164.48413520833333,66.0,85.0
542,163.53770658958334,164.66865902708332,58.0,71.0
543,163.53770658958334,164.67064315416667,61.0,75.0
544,161.63294458958333,164.85318284583335,42.0,109.0
545,164.49008758958334,164.92064316666668,49.0,58.0
546,164.72818283958333,164.94643681875,66.0,77.0
547,164.49008758958334,165.0595320625,54.0,91.0
548,164.96627808958334,165.25199238958334,58.0,85.0
549,165.20437333958333,165.25199238958334,61.0,63.0
550,166.39484958958334,166.58730991666667,63.0,109.0
551,166.15675433958333,166.59921467916666,60.0,95.0
552,166.63294483958333,166.81151627708334,68.0,85.0
553,166.87104008958335,167.27778614166667,60.0,91.0
554,167.10913533958333,167.29365915833333,63.0,91.0
555,165.91865908958334,167.45635757916668,56.0,76.0
556,165.68056383958333,167.47818297708332,51.0,76.0
557,165.44246858958334,167.49207186666666,44.0,103.0
558,167.82342108958332,168.19842110833332,61.0,82.0
559,168.06151633958333,168.59326239791667,65.0,98.0
560,168.53770683958334,168.76588145416667,68.0,88.0
561,168.77580208958332,169.02183384791667,73.0,85.0
562,168.29961158958332,169.60913546458332,61.0,88.0
563,167.58532583958333,169.62699260833332,56.0,75.0
564,167.34723058958332,169.68254816666666,49.0,98.0
565,169.01389733958334,169.70635769166665,65.0,88.0
566,169.96627833958334,170.16865930208334,66.0,109.0
567,170.20437358958333,170.32937359583335,66.0,38.0
568,169.72818308958333,170.33532597708333,63.0,106.0
569,169.49008783958334,170.38889740833332,58.0,88.0
570,170.20437358958333,170.40278629791666,70.0,95.0
571,169.25199258958332,170.50397677916666,51.0,111.0
572,170.44246883958334,170.62104027708332,75.0,103.0
573,170.68056408958333,171.04365934583333,66.0,98.0
574,170.91865933958334,171.04365934583333,70.0,95.0
575,171.87104033958335,172.07738955625,60.0,103.0
576,172.10913558958333,172.22421496041667,60.0,53.0
577,172.10913558958333,172.27778639166667,63.0,106.0
578,171.63294508958333,172.42659592291668,56.0,103.0
579,171.39484983958334,172.452389575,51.0,88.0
580,171.15675458958333,172.48611973541668,44.0,109.0
581,172.34723083958332,172.52580227708333,68.0,100.0
582,172.10913558958333,173.03373881041668,42.0,109.0
583,173.77580233958332,174.1547706125,56.0,98.0
584,174.01389758958334,174.18453251875,60.0,82.0
585,174.25199283958332,174.46032618333334,63.0,109.0
586,173.06151658958333,174.49008808958334,41.0,100.0
587,173.29961183958332,174.56945317291667,48.0,70.0
588,173.53770708958334,174.66072301875,53.0,79.0
589,174.49008808958334,174.94842144583333,56.0,91.0
590,174.72818333958332,174.94842144583333,60.0,91.0
591,175.91865958958334,176.09723102708332,65.0,82.0
592,175.68056433958333,176.10318340833334,61.0,79.0
593,176.15675483958333,176.38294532708332,68.0,91.0
594,176.39485008958334,176.85516757291666,61.0,77.0
595,176.63294533958333,176.93056440208332,65.0,79.0
596,175.44246908958334,177.00000885,58.0,79.0
597,175.20437383958333,177.03770726458333,53.0,79.0
598,174.96627858958334,177.06945329791665,46.0,106.0
599,177.58532633958333,177.97818350208334,54.0,88.0
600,177.82342158958332,178.62104067708333,58.0,85.0
601,177.10913583958333,178.68254861666668,46.0,68.0
602,177.34723108958335,178.68850099791666,51.0,75.0
603,176.87104058958334,178.7023898875,39.0,111.0
604,179.25199308958332,179.44643754375,60.0,98.0
605,179.49008833958334,179.65675501458333,63.0,79.0
606,179.72818358958332,179.89683439166666,68.0,95.0
607,179.96627883958334,180.15873916666666,63.0,72.0
608,179.01389783958334,180.4404852125,56.0,85.0
609,178.77580258958332,180.49405664374999,48.0,100.0
610,180.20437408958333,180.66072331875,60.0,79.0
611,181.39485033958334,181.89881861875,61.0,77.0
612,181.87104083958334,182.29961228958334,65.0,82.0
613,182.34723133958335,183.08929486875,61.0,35.0
614,181.15675508958333,184.32739016875,58.0,53.0
615,180.68056458958333,184.34723143958334,46.0,77.0
616,180.91865983958334,184.357152075,53.0,66.0
617,182.58532658958333,184.357152075,70.0,73.0
618,185.20834259375,185.58929499375,61.0,75.0
619,185.44643784375,185.62500928125,65.0,85.0
620,185.68453309375,185.89485056458332,70.0,85.0
621,184.49405684375,186.11508867083333,46.0,98.0
622,184.97024734375,186.1904855,58.0,71.0
623,184.73215209375,186.2738188375,53.0,71.0
624,186.16072359375,186.48612043541667,65.0,51.0
625,185.92262834375,186.8928664875,61.0,71.0
626,187.35119984375,187.51588239166668,65.0,73.0
627,187.11310459375,187.5357236625,61.0,69.0
628,186.87500934375,187.68651732083333,58.0,60.0
629,187.58929509375,187.78373954791667,70.0,73.0
630,186.63691409375,187.81350145416667,53.0,52.0
631,186.39881884375,188.21231099791666,46.0,88.0
632,188.06548559375,188.33334274999999,65.0,68.0
633,187.82739034375,188.33731100416668,61.0,73.0
634,188.77977134374999,189.05358088124999,53.0,58.0
635,189.01786659375,189.57540630416668,56.0,98.0
636,189.49405709375,189.84723171458333,60.0,85.0
637,189.73215234375,189.88889838333333,65.0,62.0
638,189.97024759375,190.27977141875,56.0,69.0
639,189.25596184375,191.95437467708334,53.0,66.0
640,188.54167609375,191.95834293125,48.0,58.0
641,188.30358084375,191.97223182083334,41.0,103.0
642,190.20834284375,191.97421594791666,65.0,85.0
643,193.06548584375,193.2500096625,61.0,91.0
644,192.82739059375,193.26389855208333,58.0,69.0
645,193.30358109375,193.54167634375,66.0,73.0
646,192.58929534375,194.25596209375,54.0,64.0
647,193.54167634375,194.47223194583333,58.0,70.0
648,194.01786684375,194.75596211875,66.0,100.0
649,194.49405734375,194.77183513541667,54.0,58.0
650,194.73215259375,195.38889865833332,58.0,88.0
651,195.20834309375,195.4404859625,61.0,76.0
652,192.11310484375,195.44445421666666,42.0,98.0
653,194.97024784375,195.62699390833333,54.0,67.0
654,192.35120009375,195.72421613541667,49.0,58.0
655,195.44643834375,195.87104153958333,66.0,85.0
656,195.68453359375,195.92461297083332,58.0,73.0
657,196.39881934375,196.7262003125,56.0,67.0
658,196.63691459375,197.10913683958333,60.0,82.0
659,196.87500984375,197.357152725,56.0,72.0
660,197.11310509375,197.37500986875,68.0,85.0
661,196.16072409375,197.42659717291667,51.0,68.0
662,195.92262884375,197.59326384791666,44.0,98.0
663,197.58929559375,197.81548608125,63.0,71.0
664,197.35120034375,197.82739084375,60.0,75.0
665,198.30358134375,198.64485120208334,61.0,69.0
666,198.54167659375,199.01786709375,65.0,91.0
667,198.06548609375,199.23215281875,56.0,75.0
668,198.77977184375,199.24604170833334,61.0,59.0
669,199.01786709375,199.28572425,73.0,88.0
670,197.82739084375,199.41469251041667,49.0,77.0
671,199.49405759375,199.67064490416666,68.0,69.0
672,199.25596234374999,199.67461315833333,65.0,82.0
673,200.20834334375,200.50596240625,63.0,64.0
674,200.44643859375,200.85913702708334,66.0,85.0
675,200.68453384375,200.88493067916667,63.0,73.0
676,199.97024809375,200.94842274583334,58.0,73.0
677,199.73215284375,201.12699418333332,51.0,100.0
678,200.92262909375,201.2023910125,75.0,95.0
679,201.39881959375,201.56747039583334,70.0,69.0
680,201.16072434375,201.62501008125,66.0,79.0
681,202.58929584375,202.7023910875,63.0,30.0
682,202.35120059375,202.82937522083333,60.0,91.0
683,202.82739109375,203.05556570833332,68.0,71.0
684,202.11310534375,203.33929588125,56.0,64.0
685,201.87501009375,203.36112127916667,51.0,64.0
686,201.63691484375,203.4642958875,44.0,100.0
687,203.30358159375,203.50199430208332,63.0,68.0
688,203.06548634375,203.5238197,60.0,75.0
689,204.25596259374998,204.76389912708333,56.0,64.0
690,204.49405784375,204.76389912708333,60.0,58.0
691,204.73215309375,204.83135944791667,61.0,73.0
692,204.73215309375,205.10913723958333,63.0,79.0
693,203.54167684375,205.33731185416667,41.0,111.0
694,204.01786734375,205.34128010833334,53.0,69.0
695,203.77977209375,205.35913725208334,48.0,69.0
696,205.20834359375,205.48016900416667,60.0,69.0
697,204.97024834375,205.51588329166665,56.0,79.0
698,205.92262934375,206.24207380416667,58.0,64.0
699,206.16072459375,206.60120080625,61.0,71.0
700,206.63691509375,206.89881986875,70.0,85.0
701,206.39881984375,207.04366114583334,58.0,69.0
702,205.68453409375,207.05755003541665,53.0,68.0
703,205.44643884375,207.24802623541666,46.0,98.0
704,206.87501034375,207.33731195416667,61.0,68.0
705,207.11310559375,207.33731195416667,65.0,68.0
706,207.35120084375,208.45834375625,39.0,103.0
707,208.06548659375,208.51985169583332,54.0,72.0
708,207.58929609375,208.55358185625,46.0,68.0
709,208.30358184375,208.57540725416666,58.0,73.0
710,207.82739134375,208.61707392291666,51.0,68.0
711,208.54167709375,208.71826440416666,63.0,73.0
712,208.77977234375,209.17064537916667,54.0,73.0
713,209.01786759375,209.19643903125,58.0,69.0
714,209.97024859375,210.21231209791665,56.0,69.0
715,210.20834384375,211.18453436875,63.0,88.0
716,209.49405809375,211.19643913125,48.0,55.0
717,209.73215334374999,211.21231214791666,53.0,77.0
718,209.25596284375,211.23413754583333,41.0,100.0
719,211.87501059375,212.35120109375,61.0,69.0
720,212.35120109375,212.52977253125,65.0,72.0
721,212.58929634375,212.92064556666668,61.0,65.0
722,211.63691534375,213.99405831875,58.0,68.0
723,211.39882009375,214.01191546249999,53.0,65.0
724,213.06548684375,214.06747102083332,70.0,75.0
725,215.44643934375,215.69247110208332,58.0,73.0
726,215.20834409375,215.79564571041666,53.0,69.0
727,215.68453459375,215.86509015833335,65.0,77.0
728,215.68453459375,215.87699492083334,61.0,106.0
729,214.97024884375,216.50993146041665,46.0,109.0
730,216.16072509375,216.52580447708334,61.0,91.0
731,216.39882034375,216.56151876458333,65.0,75.0
732,215.92262984375,216.6785822625,53.0,57.0
733,215.92262984375,216.7262013125,58.0,75.0
734,216.63691559375,216.88889973333332,70.0,76.0
735,217.35120134375,217.59921722916667,63.0,75.0
736,217.11310609375,217.68850294791667,58.0,68.0
737,217.58929659375,217.96231248541667,66.0,111.0
738,217.82739184375,218.1309632875,63.0,85.0
739,217.82739184375,218.13294741458333,58.0,53.0
740,216.87501084375,218.2976299625,51.0,109.0
741,218.06548709375,218.31747123333332,75.0,106.0
742,218.54167759375,218.7619157,70.0,77.0
743,218.30358234375,218.77580458958334,66.0,95.0
744,219.25596334375,219.50199510208333,56.0,71.0
745,219.01786809375,219.58731256666667,51.0,62.0
746,219.49405859375,219.690487175,63.0,111.0
747,219.49405859375,219.70437606458333,60.0,103.0
748,219.97024909375,220.10715386249998,63.0,106.0
749,219.97024909375,220.17659831041667,60.0,98.0
750,218.77977284375,220.20834434374999,44.0,111.0
751,219.73215384374998,220.2738205375,51.0,52.0
752,219.73215384374998,220.36310625625,56.0,76.0
753,220.44643959375,220.6309634125,65.0,72.0
754,221.16072534375,221.43850313541665,61.0,71.0
755,220.92263009375,221.52580472708334,56.0,72.0
756,221.39882059375,221.84128093333334,65.0,100.0
757,221.63691584375,221.85913807708334,61.0,75.0
758,221.63691584375,221.86112220416666,56.0,55.0
759,220.68453484375,221.96032855833334,49.0,106.0
760,221.87501109375,222.14485237708334,73.0,100.0
761,222.35120159375,222.59128097083334,68.0,76.0
762,222.11310634375,222.59921747916667,65.0,88.0
763,223.06548734375,223.31747148333332,54.0,70.0
764,222.82739209375,223.40874132916667,49.0,61.0
765,223.30358259375,223.49009053958332,61.0,106.0
766,223.30358259375,223.57342387708334,58.0,100.0
767,223.77977309375,224.06747152083332,58.0,91.0
768,224.01786834375,224.19842390833333,61.0,82.0
769,222.58929684375,224.37302709166667,42.0,111.0
770,223.54167784375,224.40278899791667,49.0,30.0
771,223.54167784375,224.40874137916666,54.0,75.0
772,224.25596359375,224.47818582708334,58.0,82.0
773,224.97024934375,225.2023922125,56.0,76.0
774,224.73215409375,225.32342396458333,51.0,62.0
775,225.20834459374998,225.64088429791667,60.0,103.0
776,225.68453509375,225.83929700625,68.0,77.0
777,224.49405884375,226.14485257708333,44.0,111.0
778,225.44643984375,226.26588432916665,51.0,52.0
779,225.44643984375,226.28969385416667,56.0,88.0
780,225.92263034375,226.3928684625,60.0,75.0
781,226.16072559375,226.41866211458333,63.0,72.0
782,226.87501134375,227.166678025,61.0,73.0
783,226.63691609375,227.24604310833334,56.0,85.0
784,227.11310659375,227.55755106041667,65.0,103.0
785,227.35120184375,227.75199551458334,61.0,98.0
786,227.35120184375,227.79167805625,56.0,60.0
787,227.58929709375,227.81350345416666,73.0,88.0
788,226.39882084375,227.8928685375,49.0,109.0
789,228.06548759375,228.31151935208334,68.0,82.0
790,227.82739234375,228.35120189375,65.0,98.0
791,229.25596384375,229.43651940833334,60.0,71.0
792,229.01786859375,230.09921785416665,57.0,76.0
793,228.54167809375,230.119059125,48.0,77.0
794,228.77977334375,230.119059125,53.0,100.0
795,229.25596384375,230.12897976041666,65.0,103.0
796,228.30358284375,230.1547734125,41.0,98.0
797,230.44644009375,230.58532898958333,65.0,109.0
798,230.44644009375,230.6071543875,61.0,91.0
799,230.68453534374999,230.96826551666666,58.0,65.0
800,230.92263059375,231.76191635,61.0,98.0
801,230.92263059375,231.76390047708333,65.0,100.0
802,230.20834484374998,231.880963975,46.0,111.0
803,230.68453534374999,231.95834493125,53.0,8.0
804,231.63691634375,232.01985287083332,58.0,79.0
805,231.87501159375,232.15080525833332,70.0,109.0
806,232.58929734375,232.833344975,63.0,73.0
807,232.35120209375,232.97421799791667,58.0,71.0
808,232.82739259375,233.2500116625,66.0,106.0
809,233.06548784375,233.25199578958333,63.0,95.0
810,233.06548784375,233.25993229791666,58.0,55.0
811,232.11310684375,233.3690592875,51.0,111.0
812,233.30358309375,233.547630725,75.0,103.0
813,233.77977359375,233.95040852291666,70.0,82.0
814,233.54167834375,233.97024979374999,66.0,95.0
815,234.49405934375,234.85517047291665,56.0,77.0
816,234.73215459375,235.33929748125,60.0,100.0
817,235.20834509375,235.44644034375,63.0,75.0
818,235.44644034375,235.6190594,68.0,73.0
819,234.01786884375,235.78771020208333,44.0,109.0
820,234.25596409375,235.78771020208333,51.0,71.0
821,234.97024984375,235.78771020208333,56.0,77.0
822,235.68453559374998,235.78771020208333,60.0,79.0
823,236.39882134375,237.12501185625,61.0,85.0
824,236.16072609375,237.18056741458332,56.0,77.0
825,235.92263084375,237.28572615,49.0,106.0
826,236.63691659375,237.3214404375,65.0,109.0
827,237.11310709375,237.38691663125,68.0,98.0
828,237.35120234375,237.56350394166665,73.0,100.0
829,237.58929759375,237.8452499875,65.0,100.0
830,238.77977384375,238.95834528125,61.0,64.0
831,238.54167859375,239.03969449166667,58.0,100.0
832,239.01786909375,239.21826592916668,66.0,77.0
833,237.82739284375,239.29564688541666,42.0,111.0
834,238.30358334375,239.38294847708332,54.0,71.0
835,238.06548809375,239.40874212916665,49.0,69.0
836,239.25596434375,239.70437706458333,58.0,85.0
837,240.68453584374998,240.89088506041668,63.0,91.0
838,240.44644059375,240.90675807708334,60.0,95.0
839,240.92263109375,241.1785834875,68.0,77.0
840,239.73215484375,241.61112319166668,44.0,111.0
841,239.97025009375,241.61112319166668,51.0,79.0
842,240.20834534375,241.61112319166668,56.0,95.0
843,241.16072634374999,241.61112319166668,60.0,95.0
844,241.63294858958332,242.17263115625,61.0,71.0
845,241.63294858958332,242.17461528333334,70.0,70.0
846,242.10913908958332,242.1785835375,58.0,44.0
847,241.63294858958332,242.18255179166667,65.0,77.0
848,241.63294858958332,242.214297825,46.0,82.0
849,242.10913908958332,242.23017084166668,53.0,14.0
850,242.34723433958334,243.3690597875,70.0,75.0
851,242.34723433958334,243.38691693125,61.0,71.0
852,242.34723433958334,243.3928693125,65.0,85.0
853,242.34723433958334,243.4166788375,46.0,79.0
854,244.49009158958333,245.12302812916667,58.0,45.0
855,244.49009158958333,245.16271067083332,53.0,6.0
856,243.53771058958333,245.19644083125,61.0,72.0
857,243.53771058958333,245.19644083125,65.0,79.0
858,243.53771058958333,245.22025035625,46.0,82.0
859,243.53771058958333,245.22421861041667,70.0,75.0
860,245.44247258958333,245.63493291666666,61.0,103.0
861,245.44247258958333,245.63691704375,46.0,85.0
862,245.44247258958333,245.63691704375,53.0,85.0
863,245.44247258958333,245.63691704375,70.0,106.0
864,245.44247258958333,245.642869425,65.0,111.0
865,245.44247258958333,245.65279006041666,58.0,77.0
866,245.68056783958332,246.12699643333332,61.0,109.0
867,245.68056783958332,246.12699643333332,65.0,115.0
868,245.68056783958332,246.1309646875,46.0,79.0
869,245.68056783958332,246.14485357708332,70.0,103.0
870,245.68056783958332,246.15279008541665,53.0,95.0
871,245.68056783958332,246.15279008541665,58.0,73.0
872,247.58532983958332,248.1547743125,51.0,115.0
873,247.58532983958332,248.1547743125,63.0,103.0
874,247.58532983958332,248.1547743125,66.0,111.0
875,247.58532983958332,248.1547743125,70.0,103.0
876,249.73413947083333,249.97818710208333,56.0,71.0
877,249.49604422083334,250.06548869374998,51.0,62.0
878,249.97223472083334,250.16866330208333,63.0,111.0
879,249.97223472083334,250.18255219166667,60.0,103.0
880,250.44842522083334,250.5833458625,63.0,106.0
881,250.44842522083334,250.6547744375,60.0,98.0
882,249.25794897083333,250.68652047083333,44.0,111.0
883,250.21032997083333,250.75199666458334,51.0,52.0
884,250.21032997083333,250.83929825625,56.0,76.0
885,250.92461572083334,251.10913953958334,65.0,72.0
886,251.63890147083333,251.9166792625,61.0,71.0
887,251.40080622083332,252.00398085416666,56.0,72.0
888,251.87699672083332,252.31747293333333,65.0,100.0
889,252.11509197083333,252.33533007708334,61.0,75.0
890,252.11509197083333,252.33929833125,56.0,55.0
891,251.16271097083333,252.43652055833334,49.0,106.0
892,252.35318722083332,252.62104437708334,73.0,100.0
893,252.82937772083332,253.06747297083334,68.0,76.0
894,252.59128247083333,253.07739360624998,65.0,88.0
895,253.54366347083334,253.79564761041667,54.0,70.0
896,253.30556822083332,253.88493332916667,49.0,61.0
897,253.78175872083332,253.96628253958332,61.0,106.0
898,253.78175872083332,254.04961587708334,58.0,100.0
899,254.01390158958333,254.2976317625,91.0,6.0
900,254.25794922083332,254.54564764791667,58.0,91.0
901,254.49604447083334,254.67660003541667,61.0,82.0
902,253.06747297083334,254.84921909166667,42.0,111.0
903,254.01985397083334,254.87898099791667,49.0,30.0
904,254.01985397083334,254.88493337916665,54.0,75.0
905,254.73413972083333,254.95437782708333,58.0,82.0
906,255.44842547083334,255.68056833958332,56.0,76.0
907,255.21033022083333,255.80160009166667,51.0,62.0
908,255.68652072083333,256.11707629791664,60.0,103.0
909,256.16271122083333,256.31747313333335,68.0,77.0
910,254.97223497083334,256.62104457708335,44.0,111.0
911,255.92461597083334,256.74207632916665,51.0,52.0
912,255.92461597083334,256.76588585416664,56.0,88.0
913,256.40080647083334,256.8690604625,60.0,75.0
914,256.6389017208333,256.8948541145833,63.0,72.0
915,257.35318747083335,257.6448541520833,61.0,73.0
916,257.11509222083333,257.72223510833334,56.0,85.0
917,257.5912827208333,258.03374306041667,65.0,103.0
918,257.8293779708333,258.22818751458334,61.0,98.0
919,257.8293779708333,258.26985418333334,56.0,60.0
920,258.06747322083334,258.29167958125,73.0,88.0
921,256.8769969708333,258.37104466458334,49.0,109.0
922,258.5436637208333,258.78969547916665,68.0,82.0
923,258.30556847083335,258.82739389375,65.0,98.0
924,259.2519970895833,259.7539812416667,57.0,71.0
925,259.72818758958334,259.9603304583333,60.0,98.0
926,259.72818758958334,259.9781876020833,65.0,79.0
927,260.2043780895833,260.5456479479167,57.0,81.0
928,260.44247333958333,260.56152096458334,65.0,71.0
929,258.77580658958334,260.7658860541667,41.0,109.0
930,259.2519970895833,260.77183843541667,53.0,88.0
931,259.01390183958335,260.7738225625,48.0,77.0
932,260.92461622083334,261.06350511666665,65.0,109.0
933,260.92461622083334,261.08533051458335,61.0,91.0
934,261.16271147083336,261.44445751666666,58.0,65.0
935,261.4008067208333,262.23810835,61.0,98.0
936,261.4008067208333,262.24009247708335,65.0,100.0
937,260.6865209708333,262.357155975,46.0,111.0
938,261.16271147083336,262.4365210583333,53.0,8.0
939,262.1150924708333,262.49802899791666,58.0,79.0
940,262.3531877208333,262.62699725833335,70.0,109.0
941,263.0674734708333,263.3115211020833,63.0,73.0
942,262.82937822083335,263.45040999791667,58.0,71.0
943,263.3055687208333,263.72818778958333,66.0,106.0
944,263.54366397083334,263.7301719166667,63.0,95.0
945,263.54366397083334,263.738108425,58.0,55.0
946,262.59128297083333,263.8452512875,51.0,111.0
947,263.78175922083335,264.023822725,75.0,103.0
948,264.2579497208333,264.42858465,70.0,82.0
949,264.0198544708333,264.44644179375,66.0,95.0
950,264.9722354708333,265.33334659999997,56.0,77.0
951,265.2103307208333,265.81747360833333,60.0,100.0
952,265.68652122083336,265.92263234375,63.0,75.0
953,265.9246164708333,266.0952514,68.0,73.0
954,264.49604497083334,266.2658863291667,44.0,109.0
955,264.73414022083335,266.2658863291667,51.0,71.0
956,265.44842597083334,266.2658863291667,56.0,77.0
957,266.16271172083333,266.2658863291667,60.0,79.0
958,266.8769974708333,267.60120385625,61.0,85.0
959,266.63890222083336,267.65874354166664,56.0,77.0
960,266.40080697083334,267.76191815,49.0,106.0
961,267.11509272083333,267.7976324375,65.0,109.0
962,267.5912832208333,267.86509275833333,68.0,98.0
963,267.8293784708333,268.03969594166665,73.0,100.0
964,268.06747372083333,268.3214419875,65.0,100.0
965,269.25794997083335,269.4365214083333,61.0,64.0
966,269.01985472083334,269.51588649166666,58.0,100.0
967,269.4960452208333,269.6944579291667,66.0,77.0
968,268.30556897083335,269.7738230125,42.0,111.0
969,268.7817594708333,269.8591404770833,54.0,71.0
970,268.5436642208333,269.88691825625,49.0,69.0
971,269.7341404708333,270.1805690645833,58.0,85.0
972,270.91866433958336,271.4424738895833,60.0,79.0
973,271.39485483958333,272.07541042916665,68.0,95.0
974,270.44247383958333,272.07937868333335,51.0,70.0
975,270.2043785895833,272.0952517,44.0,95.0
976,270.68056908958334,272.10120408125,56.0,75.0
977,272.59128347083333,272.8928707875,58.0,71.0
978,272.82937872083335,273.33533112708335,61.0,79.0
979,273.3055692208333,273.53374383541666,65.0,70.0
980,273.78175972083335,273.9781883020833,65.0,48.0
981,273.54366447083333,273.9881089375,61.0,73.0
982,272.11509297083336,275.18453756875,46.0,100.0
983,272.3531882208333,275.18453756875,53.0,70.0
984,273.0674739708333,275.18453756875,58.0,70.0
985,274.0198549708333,275.18453756875,70.0,85.0
986,276.6329503395833,277.44577040416664,54.0,76.0
987,277.10914083958335,277.58286718749997,58.0,55.0
988,277.5909317041666,278.37722207916664,54.0,66.0
989,275.91866458958333,279.02439954166664,39.0,100.0
990,276.15675983958334,279.08891567499995,46.0,69.0
991,276.39485508958336,279.15141567916663,51.0,75.0
992,277.83286720416663,279.56875441666665,63.0,62.0
993,280.97802870416666,281.4135126041666,61.0,67.0
994,280.0102867041666,281.4639158333333,49.0,64.0
995,279.76835120416666,281.49819002916666,42.0,88.0
996,280.2522222041666,281.53448035416665,54.0,75.0
997,280.49415770416664,281.6735932666666,58.0,75.0
998,281.4618997041666,281.6998029458333,66.0,66.0
999,282.18770620416666,283.62722242916664,56.0,66.0
1000,281.70383520416664,283.6413353333333,44.0,82.0
1001,281.94577070416665,283.65343210833333,51.0,60.0
1002,282.4296417041666,284.2038353708333,60.0,64.0
1003,284.36512570416664,284.7481902458333,58.0,82.0
1004,284.60706120416665,284.81673863749995,61.0,64.0
1005,284.84899670416667,285.1776257583333,66.0,72.0
1006,284.12319020416663,285.4175451291666,54.0,75.0
1007,283.63931920416667,285.44577093749996,42.0,98.0
1008,283.8812547041666,285.52036771666667,49.0,71.0
1009,285.0909322041666,285.5949644958333,58.0,71.0
1010,285.33286770416663,285.60504514166666,61.0,67.0
1011,286.54254520416663,286.7744000583333,63.0,65.0
1012,286.3006097041666,286.81472264166666,60.0,66.0
1013,286.78448070416664,287.00222265416664,68.0,68.0
1014,285.81673870416665,287.08690007916664,51.0,71.0
1015,286.05867420416666,287.0949645958333,56.0,69.0
1016,285.57480320416664,287.2038355708333,44.0,109.0
1017,287.02641620416665,287.28044847916664,60.0,64.0
1018,287.26835170416666,287.28044847916664,63.0,39.0
1019,288.2038356375,288.68165825,56.0,60.0
1020,288.44577113749995,288.7038356708333,61.0,62.0
1021,288.68770663749996,291.3570616541666,65.0,69.0
1022,287.9619001375,291.4195616583333,53.0,71.0
1023,287.71996463749997,291.48407779166666,44.0,85.0
