,start,end,pitch,velocity
0,83.64986109583333,83.87830920416667,74.0,107.0
1,83.90848159583334,84.18003312083333,67.0,95.0
2,84.16710209583333,84.3912398625,74.0,112.0
3,84.42572259583334,84.72960168333333,77.0,127.0
4,84.68434309583333,84.8761533,79.0,127.0
5,84.90632569166667,85.15848067916667,84.0,127.0
6,84.94296359583333,85.20804960833333,74.0,97.0
7,85.15848067916667,85.41710117916666,86.0,127.0
8,85.20158409583333,85.5291700625,79.0,127.0
9,85.41710117916666,86.77485880416667,88.0,127.0
10,85.46020459583333,86.97313452083333,72.0,112.0
11,86.94296212916666,87.38908249166667,88.0,127.0
12,87.50546171666666,89.4860637125,86.0,127.0
13,89.5830464,91.49252775833334,88.0,127.0
14,91.66709659583333,92.64338898333334,83.0,127.0
15,92.70157859583334,93.79640537916667,79.0,112.0
16,93.73606059583334,95.99467962916667,81.0,117.0
17,95.77269703333333,97.26838559166667,84.0,127.0
18,97.2576097375,97.82873000833334,88.0,127.0
19,97.82873000833334,98.50329847916666,86.0,127.0
20,98.87183269166667,99.31795305416667,88.0,127.0
21,99.39338403333333,99.9278664,84.0,127.0
22,99.9278664,101.3438136375,86.0,127.0
23,101.68217545833333,101.97743386249999,88.0,127.0
24,101.98820971666666,103.35674319583333,91.0,127.0
25,103.48605344583333,103.9429496625,88.0,127.0
26,104.0722599125,105.96234473333334,86.0,127.0
27,106.07872395833333,108.13475693333334,88.0,127.0
28,108.21880859583334,109.21018717916667,83.0,127.0
29,109.25329059583333,110.311479475,79.0,112.0
30,110.28777259583333,111.8761335,81.0,122.0
31,112.0830299,112.31794352083334,84.0,127.0
32,112.33949522916667,113.0334602375,79.0,120.0
33,113.09596019166666,113.38690825416667,81.0,127.0
34,113.38690825416667,113.87182169166667,84.0,127.0
35,113.86535617916667,114.320097225,88.0,127.0
36,114.38259717916667,116.45371635,86.0,127.0
37,118.56362859583334,118.83733529166666,72.0,107.0
38,118.82224909583333,119.07655925416667,67.0,93.0
39,119.08086959583333,119.43647278333333,72.0,107.0
40,119.59811059583333,119.880437975,70.0,127.0
41,119.85673109583334,120.139058475,72.0,107.0
42,120.11535159583333,120.38474795,67.0,112.0
43,120.37397209583334,120.6498339625,72.0,112.0
44,120.63259259583333,120.6498339625,72.0,117.0
45,120.89121309583334,121.13905774166666,67.0,86.0
46,121.14983359583333,121.41060926666667,72.0,107.0
47,121.40845409583333,121.6584539125,70.0,86.0
48,121.66707459583333,122.30069482083333,72.0,93.0
49,122.43000507083333,122.54853946666667,83.0,112.0
50,122.5506946375,122.71233245,84.0,102.0
51,122.70155659583334,123.18215969166667,86.0,127.0
52,123.47741809583333,124.26836579166667,88.0,127.0
53,124.47310702083334,124.613193125,86.0,112.0
54,124.57871039166666,124.7489688875,84.0,102.0
55,124.77052059583333,125.11103758750001,83.0,127.0
56,125.02914109583334,126.07870929166667,81.0,99.0
57,126.06362309583334,126.83948459583334,93.0,127.0
58,127.09810509583333,127.54638062916666,93.0,127.0
59,127.61534609583333,127.85672522916667,96.0,127.0
60,127.87396659583334,128.36965588750002,93.0,127.0
61,128.39120759583335,128.63043155833333,91.0,117.0
62,128.64982809583333,129.21017251249998,86.0,112.0
63,129.16706909583334,129.36965515416665,84.0,127.0
64,129.42568959583332,129.92568922916666,81.0,112.0
65,129.94293059583333,130.1670683625,88.0,122.0
66,130.20155109583334,130.36749924999998,79.0,99.0
67,130.46017159583334,130.89982644583336,79.0,112.0
68,132.01189459583333,132.25973924166667,74.0,127.0
69,132.27051509583333,132.51620457083334,72.0,99.0
70,132.52913559583334,132.79637677916668,74.0,127.0
71,132.74680784999998,132.89766980833332,72.0,99.0
72,132.8696525875,132.99680766666665,74.0,99.0
73,133.04637659583335,133.31577295,84.0,127.0
74,133.30499709583333,133.56361759583334,81.0,99.0
75,133.56361759583334,133.949393175,84.0,127.0
76,134.08085859583332,134.29422050833335,81.0,127.0
77,134.33947909583333,134.4472376375,84.0,102.0
78,134.59809959583333,134.78128911666667,84.0,127.0
79,134.85672009583334,134.9644786375,84.0,107.0
80,134.85672009583334,135.01404756666665,81.0,102.0
81,135.11534059583335,136.58732227500002,79.0,112.0
82,136.66706359583333,136.97094268333333,84.0,122.0
83,136.92568409583333,137.182149425,86.0,127.0
84,137.18430459583334,139.24033757083333,91.0,127.0
85,172.61531309583333,172.84160603333333,74.0,107.0
86,172.87393359583334,173.14332995,67.0,95.0
87,173.13255409583334,173.35453669166668,74.0,112.0
88,173.39117459583335,173.6928985125,77.0,127.0
89,173.64979509583333,173.83945012916666,79.0,127.0
90,173.86962252083333,174.12393267916667,84.0,127.0
91,173.90841559583333,174.17350160833334,74.0,97.0
92,174.12393267916667,174.38255317916668,86.0,127.0
93,174.16703609583334,174.49246689166668,79.0,127.0
94,174.38255317916668,175.74031080416668,88.0,127.0
95,174.42565659583335,175.93858652083333,72.0,112.0
96,175.90841412916666,176.35237932083334,88.0,127.0
97,176.47091371666667,178.44936054166666,86.0,127.0
98,178.54634322916667,180.45797975833332,88.0,127.0
99,180.63254859583333,181.6066858125,83.0,127.0
100,181.66703059583332,182.75970220833332,79.0,112.0
101,182.70151259583335,184.96013162916668,81.0,117.0
102,184.73814903333334,186.23168242083332,84.0,127.0
103,186.22090656666666,186.7920268375,88.0,127.0
104,186.7920268375,187.46659530833332,86.0,127.0
105,187.83512952083333,188.28124988333334,88.0,127.0
106,188.3566808625,188.8933184,84.0,127.0
107,188.8933184,190.30711046666667,86.0,127.0
108,190.6454722875,190.9428858625,88.0,127.0
109,190.95366171666666,192.320040025,91.0,127.0
110,192.449350275,192.90624649166668,88.0,127.0
111,193.03555674166668,194.9256415625,86.0,127.0
112,195.04417595833334,197.10020893333333,88.0,127.0
113,197.18426059583334,198.17348400833333,83.0,127.0
114,198.21874259583333,199.27477630416666,79.0,112.0
115,199.25322459583333,200.83943032916667,81.0,122.0
116,201.00106814166668,201.24460244583335,84.0,127.0
117,201.28555069166666,201.98813638333334,81.0,127.0
118,202.07434321666668,202.36313610833335,79.0,127.0
119,202.34158440000002,203.22520444166668,76.0,127.0
120,203.3437388375,204.97520315833333,77.0,127.0
121,204.91701354583333,205.47089245,81.0,127.0
122,205.47089245,207.49675303333333,79.0,127.0
123,207.78770109583334,208.03985608333335,67.0,93.0
124,208.04632159583335,209.74244104166667,88.0,127.0
125,207.47089098333333,210.57002664166666,76.0,127.0
126,210.11528559583334,210.6109748875,79.0,117.0
127,210.85019885,211.11744003333334,79.0,127.0
128,210.63252659583333,211.173474475,84.0,127.0
129,211.11744003333334,211.173474475,84.0,127.0
130,211.14976759583334,211.64114654583335,86.0,127.0
131,211.36312950833334,211.64114654583335,86.0,127.0
132,211.65192240000002,213.89976557916668,88.0,127.0
133,211.66700859583335,213.89976557916668,88.0,127.0
134,215.71657459166667,217.81140064166667,86.0,127.0
135,217.77907307916666,218.8997619125,83.0,127.0
136,218.88898605833333,220.01398523333333,79.0,127.0
137,219.96226113333333,221.8738976625,81.0,127.0
138,221.99027688750002,224.08079259583334,79.0,127.0
139,224.07001674166668,226.199325525,81.0,127.0
140,227.44932460833334,227.74673818333335,86.0,127.0
141,226.17777381666667,227.96225526666666,83.0,127.0
142,227.70578993750001,227.99458282916666,88.0,127.0
143,227.9514794125,228.24027230416667,89.0,127.0
144,229.69932295833334,230.17992605416669,88.0,127.0
145,228.21872059583333,230.20578810416666,91.0,127.0
146,230.21225361666666,232.25320039583335,86.0,127.0
147,230.2014777625,232.26397625,89.0,123.0
148,232.34156240000002,233.90190608333333,88.0,127.0
149,233.89113022916666,234.40621605833334,89.0,127.0
150,235.20147409583333,235.4514739125,84.0,69.0
151,235.46009459583334,235.95578388750002,83.0,107.0
152,234.37388849583334,236.32216292916667,91.0,127.0
153,235.97733559583335,236.55276620833334,79.0,107.0
154,236.49457659583334,238.43638551666666,81.0,122.0
155,236.45147317916667,238.47517859166666,89.0,127.0
156,238.51828200833333,239.58509157083333,88.0,127.0
157,239.54629849583333,240.656211475,84.0,127.0
158,242.70146859583335,242.92129602083335,91.0,127.0
159,240.6368149375,243.01827870833333,86.0,127.0
160,242.96008909583333,243.14758895833333,88.0,45.0
161,243.21870959583333,243.48810595,91.0,86.0
162,243.47733009583334,243.72517474166668,88.0,83.0
163,243.73595059583334,243.96870904583335,91.0,122.0
164,243.99457109583335,244.25319159583333,88.0,102.0
165,244.25319159583333,244.53120863333334,86.0,99.0
166,244.51181209583333,244.76396708333334,84.0,97.0
167,244.77043259583334,247.19355161666667,79.0,100.0
