,start,end,pitch,velocity
0,33.21886359583333,33.47748409583333,72.0,100.0
1,33.47748409583333,33.73610459583333,74.0,97.0
2,33.73610459583333,33.99472509583333,76.0,117.0
3,33.99472509583333,34.25334559583333,79.0,100.0
4,34.25334559583333,34.51196609583333,79.0,97.0
5,34.51196609583333,34.77058659583333,79.0,93.0
6,34.77058659583333,35.02920709583333,79.0,100.0
7,35.02920709583333,35.287827595833335,79.0,93.0
8,35.287827595833335,35.54644809583333,79.0,97.0
9,35.54644809583333,35.80506859583333,76.0,67.0
10,35.80506859583333,36.32230959583333,81.0,102.0
11,36.32230959583333,37.35679159583333,79.0,117.0
12,37.35679159583333,37.615412095833335,84.0,127.0
13,37.615412095833335,37.87403259583333,83.0,82.0
14,37.87403259583333,38.391273595833326,84.0,122.0
15,38.391273595833326,38.64989409583333,83.0,99.0
16,38.64989409583333,39.42575559583333,84.0,127.0
17,39.42575559583333,39.68437609583333,76.0,93.0
18,39.68437609583333,41.49471959583333,79.0,92.0
19,41.49471959583333,41.75334009583333,76.0,112.0
20,41.75334009583333,42.01196059583333,79.0,102.0
21,42.01196059583333,42.270581095833336,81.0,100.0
22,42.270581095833336,42.52920159583333,81.0,95.0
23,42.52920159583333,42.787822095833334,81.0,107.0
24,42.787822095833334,43.04644259583333,81.0,117.0
25,43.04644259583333,43.561528425,81.0,127.0
26,43.56368359583333,43.82230409583333,81.0,117.0
27,43.82230409583333,44.08092459583333,84.0,86.0
28,44.08092459583333,44.59816559583333,81.0,127.0
29,44.59816559583333,44.85678609583333,79.0,97.0
30,44.85678609583333,46.14988859583333,76.0,79.0
31,46.14988859583333,46.40850909583333,74.0,117.0
32,46.40850909583333,46.66712959583333,74.0,93.0
33,46.66712959583333,46.92575009583333,74.0,93.0
34,46.92575009583333,47.18437059583333,74.0,96.0
35,47.18437059583333,47.442991095833335,74.0,97.0
36,47.442991095833335,47.960232095833334,72.0,107.0
37,47.960232095833334,48.218852595833326,69.0,96.0
38,48.218852595833326,48.73609359583333,79.0,102.0
39,48.73609359583333,48.99471409583333,76.0,99.0
40,48.99471409583333,49.768420425,74.0,96.0
41,49.770575595833336,50.02919609583333,74.0,96.0
42,50.02919609583333,50.287816595833334,76.0,96.0
43,50.287816595833334,50.546437095833326,79.0,96.0
44,50.546437095833326,50.80505759583333,79.0,89.0
45,50.80505759583333,51.06367809583333,79.0,97.0
46,51.06367809583333,51.32229859583333,79.0,96.0
47,51.32229859583333,51.58091909583333,79.0,117.0
48,51.58091909583333,51.83953959583333,79.0,100.0
49,51.83953959583333,52.09816009583333,79.0,107.0
50,52.09816009583333,52.35678059583333,76.0,92.0
51,52.35678059583333,52.874021595833334,81.0,112.0
52,52.874021595833334,53.90850359583333,79.0,102.0
53,53.90850359583333,54.16712409583333,81.0,102.0
54,54.16712409583333,54.42574459583333,83.0,100.0
55,54.42574459583333,54.68436509583333,84.0,112.0
56,54.68436509583333,54.94298559583333,84.0,100.0
57,54.94298559583333,55.201606095833334,84.0,107.0
58,55.201606095833334,55.46022659583333,84.0,112.0
59,55.46022659583333,55.97746759583333,84.0,122.0
60,55.97746759583333,56.23608809583333,76.0,74.0
61,56.23608809583333,56.75332909583333,74.0,69.0
62,56.75332909583333,58.044276425,76.0,102.0
63,58.04643159583333,58.30505209583333,76.0,100.0
64,58.30505209583333,58.56367259583333,79.0,93.0
65,58.56367259583333,58.82229309583333,81.0,100.0
66,58.82229309583333,59.08091359583333,81.0,96.0
67,59.08091359583333,59.33953409583333,81.0,97.0
68,59.33953409583333,59.59815459583333,81.0,97.0
69,59.59815459583333,60.113240425,81.0,112.0
70,60.115395595833334,60.37401609583333,81.0,107.0
71,60.37401609583333,60.63263659583333,84.0,127.0
72,60.63263659583333,61.14987759583333,81.0,99.0
73,61.14987759583333,61.66711859583333,79.0,89.0
74,61.66711859583333,62.701600595833334,76.0,95.0
75,62.701600595833334,62.96022109583333,74.0,112.0
76,62.96022109583333,63.21884159583333,74.0,90.0
77,63.21884159583333,63.47746209583333,74.0,107.0
78,63.47746209583333,63.73608259583333,72.0,100.0
79,63.73608259583333,64.51194409583333,69.0,112.0
80,64.51194409583333,64.77056459583333,72.0,112.0
81,64.77056459583333,66.32228759583333,72.0,107.0
82,66.32228759583333,66.58090809583334,84.0,127.0
83,66.58090809583334,66.83952859583333,83.0,102.0
84,66.83952859583333,67.35676959583333,81.0,127.0
85,67.35676959583333,67.61539009583333,83.0,112.0
86,67.61539009583333,68.39125159583332,84.0,127.0
87,68.39125159583332,68.90849259583334,86.0,127.0
88,68.90849259583334,69.42573359583332,83.0,117.0
89,69.42573359583332,69.68435409583333,81.0,96.0
90,69.68435409583333,70.46021559583333,79.0,97.0
91,70.46021559583333,70.71883609583332,76.0,100.0
92,70.71883609583332,70.97745659583333,79.0,100.0
93,70.97745659583333,71.23607709583334,81.0,122.0
94,71.23607709583334,71.49469759583333,81.0,107.0
95,71.49469759583333,71.75331809583332,81.0,112.0
96,71.75331809583332,72.01193859583333,81.0,100.0
97,72.01193859583333,72.52917959583334,81.0,127.0
98,72.52917959583334,72.78780009583333,74.0,112.0
99,72.78780009583333,74.59814359583333,76.0,107.0
100,74.59814359583333,74.85676409583334,84.0,127.0
101,74.85676409583334,75.11538459583333,83.0,97.0
102,75.11538459583333,75.63262559583333,81.0,107.0
103,75.63262559583333,75.89124609583334,83.0,102.0
104,75.89124609583334,76.66710759583333,84.0,127.0
105,76.66710759583333,77.18434859583334,88.0,107.0
106,77.18434859583334,77.44296909583333,76.0,122.0
107,77.44296909583333,77.96021009583333,79.0,112.0
108,77.96021009583333,78.47745109583333,83.0,107.0
109,78.47745109583333,78.73607159583332,79.0,92.0
110,78.73607159583332,78.99469209583333,81.0,99.0
111,78.99469209583333,79.25331259583334,83.0,102.0
112,79.25331259583334,79.51193309583334,84.0,122.0
113,79.51193309583334,79.77055359583333,84.0,122.0
114,79.77055359583333,80.02917409583333,84.0,127.0
115,80.02917409583333,80.28779459583333,84.0,122.0
116,80.28779459583333,80.802880425,84.0,127.0
117,80.80503559583333,81.06365609583332,84.0,117.0
118,81.06365609583332,81.32227659583333,81.0,93.0
119,81.32227659583333,81.83951759583334,88.0,127.0
120,81.83951759583334,82.09813809583333,86.0,107.0
121,82.09813809583333,84.68434309583333,86.0,127.0
122,84.68434309583333,84.94296359583333,79.0,90.0
123,84.94296359583333,85.20158409583333,84.0,100.0
124,85.20158409583333,85.46020459583333,86.0,100.0
125,85.46020459583333,85.71882509583334,88.0,127.0
126,85.71882509583334,85.97744559583333,88.0,99.0
127,85.97744559583333,86.23606609583334,88.0,122.0
128,86.23606609583334,86.49468659583333,88.0,127.0
129,86.49468659583333,87.01192759583333,88.0,127.0
130,87.01192759583333,87.27054809583333,86.0,122.0
131,87.27054809583333,87.52916859583333,84.0,107.0
132,87.52916859583333,88.04640959583334,86.0,127.0
133,88.04640959583334,88.30503009583333,88.0,127.0
134,88.30503009583333,89.08089159583334,86.0,127.0
135,89.08089159583334,89.33951209583333,88.0,127.0
136,89.33951209583333,89.59813259583333,86.0,107.0
137,89.59813259583333,90.11537359583333,84.0,107.0
138,90.11537359583333,90.37399409583334,83.0,96.0
139,90.37399409583334,91.14985559583333,84.0,122.0
140,91.14985559583333,91.40847609583334,76.0,107.0
141,91.40847609583334,93.475284925,79.0,117.0
142,93.47744009583333,93.73606059583334,79.0,102.0
143,93.73606059583334,93.99468109583333,81.0,117.0
144,93.99468109583333,94.25330159583334,84.0,100.0
145,94.25330159583334,94.51192209583333,84.0,112.0
146,94.51192209583333,94.77054259583333,81.0,97.0
147,94.77054259583333,95.02916309583333,86.0,117.0
148,95.02916309583333,95.54640409583334,84.0,127.0
149,95.54640409583334,96.061489925,88.0,127.0
150,96.06364509583334,96.32226559583333,88.0,127.0
151,96.32226559583333,96.58088609583334,86.0,117.0
152,96.58088609583334,96.83950659583333,88.0,107.0
153,96.83950659583333,97.09812709583333,86.0,117.0
154,97.09812709583333,97.87398859583334,84.0,127.0
155,97.87398859583334,98.13260909583333,86.0,127.0
156,98.13260909583333,98.39122959583334,86.0,112.0
157,98.39122959583334,98.64985009583333,86.0,122.0
158,98.64985009583333,98.90847059583334,84.0,127.0
159,98.90847059583334,99.16709109583333,81.0,117.0
160,99.16709109583333,99.94295259583333,88.0,122.0
161,99.94295259583333,101.23605509583334,86.0,127.0
162,101.23605509583334,101.49467559583333,79.0,107.0
163,101.49467559583333,101.75329609583333,84.0,112.0
164,101.75329609583333,102.01191659583333,86.0,127.0
165,102.01191659583333,102.27053709583333,88.0,127.0
166,102.27053709583333,102.52915759583334,88.0,127.0
167,102.52915759583334,102.78777809583333,88.0,122.0
168,102.78777809583333,103.04639859583334,88.0,127.0
169,103.04639859583334,103.30501909583333,88.0,122.0
170,103.30501909583333,103.82226009583333,86.0,112.0
171,103.82226009583333,104.08088059583334,84.0,107.0
172,104.08088059583334,104.59812159583333,86.0,127.0
173,104.59812159583333,104.85674209583334,88.0,127.0
174,104.85674209583334,105.63260359583333,86.0,127.0
175,105.63260359583333,105.89122409583334,88.0,127.0
176,105.89122409583334,106.14984459583333,86.0,122.0
177,106.14984459583333,106.66708559583333,84.0,127.0
178,106.66708559583333,106.92570609583333,83.0,122.0
179,106.92570609583333,107.70156759583334,84.0,122.0
180,107.70156759583334,107.96018809583333,88.0,122.0
181,107.96018809583333,110.02915209583334,91.0,122.0
182,110.02915209583334,110.28777259583333,84.0,97.0
183,110.28777259583333,110.54639309583334,93.0,122.0
184,110.54639309583334,110.80501359583333,93.0,122.0
185,110.80501359583333,111.06363409583334,93.0,122.0
186,111.06363409583334,111.32225459583333,93.0,112.0
187,111.32225459583333,111.837340425,93.0,127.0
188,111.83949559583333,112.09811609583333,93.0,127.0
189,112.09811609583333,112.35673659583334,91.0,97.0
190,112.35673659583334,112.871822425,91.0,117.0
191,112.87397759583334,113.13259809583333,91.0,127.0
192,113.13259809583333,114.16708009583333,88.0,112.0
193,114.16708009583333,114.42570059583333,84.0,127.0
194,114.42570059583333,114.68432109583334,86.0,127.0
195,114.68432109583334,114.94294159583333,86.0,122.0
196,114.94294159583333,115.20156209583334,86.0,117.0
197,115.20156209583334,115.46018259583333,86.0,112.0
198,115.46018259583333,115.97742359583333,86.0,127.0
199,115.97742359583333,116.23604409583334,84.0,122.0
200,116.23604409583334,117.52914659583334,86.0,127.0
201,117.52914659583334,118.04638759583334,81.0,102.0
202,118.04638759583334,118.30500809583333,83.0,107.0
203,118.30500809583333,121.27267833333333,84.0,122.0
204,138.73602759583332,138.99464809583333,72.0,112.0
205,138.99464809583333,139.25326859583333,74.0,97.0
206,139.25326859583333,139.51188909583334,76.0,117.0
207,139.51188909583334,139.77050959583335,79.0,89.0
208,139.77050959583335,140.02913009583335,79.0,97.0
209,140.02913009583335,140.28775059583333,79.0,96.0
210,140.28775059583333,140.54637109583334,79.0,117.0
211,140.54637109583334,140.80499159583331,79.0,100.0
212,140.80499159583331,141.06361209583332,79.0,107.0
213,141.06361209583332,141.32223259583333,76.0,92.0
214,141.32223259583333,141.83947359583334,81.0,112.0
215,141.83947359583334,142.87395559583334,79.0,102.0
216,142.87395559583334,143.13257609583331,81.0,102.0
217,143.13257609583331,143.39119659583332,83.0,100.0
218,143.39119659583332,143.64981709583333,84.0,112.0
219,143.64981709583333,143.90843759583333,84.0,100.0
220,143.90843759583333,144.16705809583334,84.0,107.0
221,144.16705809583334,144.42567859583335,84.0,112.0
222,144.42567859583335,144.94291959583333,84.0,122.0
223,144.94291959583333,145.20154009583334,76.0,74.0
224,145.20154009583334,145.71878109583332,74.0,69.0
225,145.71878109583332,147.009728425,76.0,102.0
226,147.01188359583335,147.27050409583333,76.0,100.0
227,147.27050409583333,147.52912459583334,79.0,93.0
228,147.52912459583334,147.78774509583332,81.0,100.0
229,147.78774509583332,148.04636559583332,81.0,96.0
230,148.04636559583332,148.30498609583333,81.0,97.0
231,148.30498609583333,148.56360659583333,81.0,97.0
232,148.56360659583333,149.078692425,81.0,112.0
233,149.08084759583335,149.33946809583333,81.0,107.0
234,149.33946809583333,149.59808859583333,84.0,127.0
235,149.59808859583333,150.11532959583334,81.0,99.0
236,150.11532959583334,150.63257059583333,79.0,89.0
237,150.63257059583333,151.66705259583333,76.0,95.0
238,151.66705259583333,151.92567309583333,74.0,112.0
239,151.92567309583333,152.18429359583334,74.0,90.0
240,152.18429359583334,152.44291409583334,74.0,107.0
241,152.44291409583334,152.70153459583332,72.0,100.0
242,152.70153459583332,153.47739609583334,69.0,112.0
243,153.47739609583334,153.73601659583335,72.0,112.0
244,153.73601659583335,155.28773959583333,72.0,107.0
245,155.28773959583333,155.54636009583334,84.0,127.0
246,155.54636009583334,155.80498059583334,83.0,102.0
247,155.80498059583334,156.32222159583333,81.0,127.0
248,156.32222159583333,156.58084209583333,83.0,112.0
249,156.58084209583333,157.35670359583332,84.0,127.0
250,157.35670359583332,157.87394459583334,86.0,127.0
251,157.87394459583334,158.39118559583335,83.0,117.0
252,158.39118559583335,158.64980609583333,81.0,96.0
253,158.64980609583333,159.42566759583335,79.0,97.0
254,159.42566759583335,159.68428809583332,76.0,100.0
255,159.68428809583332,159.94290859583333,79.0,100.0
256,159.94290859583333,160.20152909583334,81.0,122.0
257,160.20152909583334,160.46014959583334,81.0,107.0
258,160.46014959583334,160.71877009583335,81.0,112.0
259,160.71877009583335,160.97739059583333,81.0,100.0
260,160.97739059583333,161.49463159583334,81.0,127.0
261,161.49463159583334,161.75325209583335,74.0,112.0
262,161.75325209583335,163.56359559583333,76.0,107.0
263,163.56359559583333,163.82221609583334,84.0,127.0
264,163.82221609583334,164.08083659583335,83.0,97.0
265,164.08083659583335,164.59807759583333,81.0,107.0
266,164.59807759583333,164.85669809583334,83.0,102.0
267,164.85669809583334,165.63255959583333,84.0,127.0
268,165.63255959583333,166.14980059583334,88.0,107.0
269,166.14980059583334,166.40842109583335,76.0,122.0
270,166.40842109583335,166.92566209583333,79.0,112.0
271,166.92566209583333,167.44290309583334,83.0,107.0
272,167.44290309583334,167.70152359583332,79.0,92.0
273,167.70152359583332,167.96014409583333,81.0,99.0
274,167.96014409583333,168.21876459583333,83.0,102.0
275,168.21876459583333,168.47738509583334,84.0,122.0
276,168.47738509583334,168.73600559583335,84.0,122.0
277,168.73600559583335,168.99462609583333,84.0,127.0
278,168.99462609583333,169.25324659583333,84.0,122.0
279,169.25324659583333,169.768332425,84.0,127.0
280,169.77048759583334,170.02910809583332,84.0,117.0
281,170.02910809583332,170.28772859583333,81.0,93.0
282,170.28772859583333,170.80496959583334,88.0,127.0
283,170.80496959583334,171.06359009583335,86.0,107.0
284,171.06359009583335,173.64979509583333,86.0,127.0
285,173.64979509583333,173.90841559583333,79.0,90.0
286,173.90841559583333,174.16703609583334,84.0,100.0
287,174.16703609583334,174.42565659583335,86.0,100.0
288,174.42565659583335,174.68427709583332,88.0,127.0
289,174.68427709583332,174.94289759583333,88.0,99.0
290,174.94289759583333,175.20151809583334,88.0,122.0
291,175.20151809583334,175.46013859583334,88.0,127.0
292,175.46013859583334,175.97737959583333,88.0,127.0
293,175.97737959583333,176.23600009583333,86.0,122.0
294,176.23600009583333,176.49462059583334,84.0,107.0
295,176.49462059583334,177.01186159583332,86.0,127.0
296,177.01186159583332,177.27048209583333,88.0,127.0
297,177.27048209583333,178.04634359583335,86.0,127.0
298,178.04634359583335,178.30496409583333,88.0,127.0
299,178.30496409583333,178.56358459583333,86.0,107.0
300,178.56358459583333,179.08082559583335,84.0,107.0
301,179.08082559583335,179.33944609583332,83.0,96.0
302,179.33944609583332,180.11530759583334,84.0,122.0
303,180.11530759583334,180.37392809583335,76.0,107.0
304,180.37392809583335,182.440736925,79.0,117.0
305,182.44289209583334,182.70151259583335,79.0,102.0
306,182.70151259583335,182.96013309583333,81.0,117.0
307,182.96013309583333,183.21875359583333,84.0,100.0
308,183.21875359583333,183.47737409583334,84.0,112.0
309,183.47737409583334,183.73599459583335,81.0,97.0
310,183.73599459583335,183.99461509583332,86.0,117.0
311,183.99461509583332,184.51185609583334,84.0,127.0
312,184.51185609583334,185.02694192500002,88.0,127.0
313,185.02909709583335,185.28771759583333,88.0,127.0
314,185.28771759583333,185.54633809583333,86.0,117.0
315,185.54633809583333,185.80495859583334,88.0,107.0
316,185.80495859583334,186.06357909583335,86.0,117.0
317,186.06357909583335,186.83944059583334,84.0,127.0
318,186.83944059583334,187.09806109583334,86.0,127.0
319,187.09806109583334,187.35668159583332,86.0,112.0
320,187.35668159583332,187.61530209583333,86.0,122.0
321,187.61530209583333,187.87392259583333,84.0,127.0
322,187.87392259583333,188.13254309583334,81.0,117.0
323,188.13254309583334,188.90840459583333,88.0,122.0
324,188.90840459583333,190.20150709583334,86.0,127.0
325,190.20150709583334,190.46012759583334,79.0,107.0
326,190.46012759583334,190.71874809583335,84.0,112.0
327,190.71874809583335,190.97736859583333,86.0,127.0
328,190.97736859583333,191.23598909583333,88.0,127.0
329,191.23598909583333,191.49460959583334,88.0,127.0
330,191.49460959583334,191.75323009583335,88.0,122.0
331,191.75323009583335,192.01185059583332,88.0,127.0
332,192.01185059583332,192.27047109583333,88.0,122.0
333,192.27047109583333,192.78771209583334,86.0,112.0
334,192.78771209583334,193.04633259583335,84.0,107.0
335,193.04633259583335,193.56357359583333,86.0,127.0
336,193.56357359583333,193.82219409583334,88.0,127.0
337,193.82219409583334,194.59805559583333,86.0,127.0
338,194.59805559583333,194.85667609583334,88.0,127.0
339,194.85667609583334,195.11529659583334,86.0,122.0
340,195.11529659583334,195.63253759583333,84.0,127.0
341,195.63253759583333,195.89115809583333,83.0,122.0
342,195.89115809583333,196.66701959583332,84.0,122.0
343,196.66701959583332,196.92564009583333,88.0,122.0
344,196.92564009583333,198.99460409583332,91.0,122.0
345,198.99460409583332,199.25322459583333,84.0,97.0
346,199.25322459583333,199.51184509583334,93.0,122.0
347,199.51184509583334,199.77046559583334,93.0,122.0
348,199.77046559583334,200.02908609583335,93.0,122.0
349,200.02908609583335,200.28770659583333,93.0,112.0
350,200.28770659583333,200.802792425,93.0,127.0
351,200.80494759583334,201.06356809583335,93.0,127.0
352,201.06356809583335,201.32218859583332,91.0,97.0
353,201.32218859583332,201.837274425,91.0,117.0
354,201.83942959583334,202.09805009583334,91.0,127.0
355,202.09805009583334,203.13253209583334,88.0,112.0
356,203.13253209583334,203.39115259583335,84.0,127.0
357,203.39115259583335,203.64977309583332,86.0,127.0
358,203.64977309583332,203.90839359583333,86.0,122.0
359,203.90839359583333,204.16701409583334,86.0,117.0
360,204.16701409583334,204.42563459583334,86.0,112.0
361,204.42563459583334,204.94287559583333,86.0,127.0
362,204.94287559583333,205.20149609583333,84.0,122.0
363,205.20149609583333,206.49459859583334,86.0,127.0
364,206.49459859583334,207.01183959583335,81.0,102.0
365,207.01183959583335,207.27046009583333,83.0,107.0
366,207.27046009583333,208.04632159583335,86.0,122.0
367,208.04632159583335,210.89114709583333,84.0,122.0
368,210.89114709583333,211.14976759583334,79.0,90.0
369,211.14976759583334,211.40838809583335,84.0,100.0
370,211.40838809583335,211.66700859583335,86.0,100.0
371,211.66700859583335,211.92562909583333,88.0,127.0
372,211.92562909583333,212.18424959583334,88.0,99.0
373,212.18424959583334,212.44287009583334,88.0,122.0
374,212.44287009583334,212.70149059583335,88.0,127.0
375,212.70149059583335,213.21873159583333,88.0,127.0
376,213.21873159583333,213.47735209583334,86.0,122.0
377,213.47735209583334,213.73597259583335,84.0,107.0
378,213.73597259583335,214.25321359583333,86.0,127.0
379,214.25321359583333,214.51183409583334,88.0,127.0
380,214.51183409583334,215.28769559583333,86.0,127.0
381,215.28769559583333,215.54631609583333,88.0,127.0
382,215.54631609583333,215.80493659583334,86.0,107.0
383,215.80493659583334,216.32217759583332,84.0,107.0
384,216.32217759583332,216.58079809583333,83.0,96.0
385,216.58079809583333,217.35665959583335,84.0,122.0
386,217.35665959583335,217.61528009583333,76.0,107.0
387,217.61528009583333,219.68208892500002,79.0,117.0
388,219.68424409583335,219.94286459583333,79.0,102.0
389,219.94286459583333,220.20148509583333,81.0,117.0
390,220.20148509583333,220.46010559583334,84.0,100.0
391,220.46010559583334,220.71872609583335,84.0,112.0
392,220.71872609583335,220.97734659583332,81.0,97.0
393,220.97734659583332,221.23596709583333,86.0,117.0
394,221.23596709583333,221.75320809583334,84.0,127.0
395,221.75320809583334,222.268293925,88.0,127.0
396,222.27044909583333,222.52906959583333,88.0,127.0
397,222.52906959583333,222.78769009583334,86.0,117.0
398,222.78769009583334,223.04631059583335,88.0,107.0
399,223.04631059583335,223.30493109583333,86.0,117.0
400,223.30493109583333,224.08079259583334,84.0,127.0
401,224.08079259583334,224.33941309583335,86.0,127.0
402,224.33941309583335,224.59803359583333,86.0,112.0
403,224.59803359583333,224.85665409583333,86.0,122.0
404,224.85665409583333,225.11527459583334,84.0,127.0
405,225.11527459583334,225.37389509583335,81.0,117.0
406,225.37389509583335,226.14975659583334,88.0,122.0
407,226.14975659583334,227.44285909583334,86.0,127.0
408,227.44285909583334,227.70147959583335,79.0,107.0
409,227.70147959583335,227.96010009583333,84.0,112.0
410,227.96010009583333,228.21872059583333,86.0,127.0
411,228.21872059583333,228.47734109583334,88.0,127.0
412,228.47734109583334,228.73596159583334,88.0,127.0
413,228.73596159583334,228.99458209583335,88.0,122.0
414,228.99458209583335,229.25320259583333,88.0,127.0
415,229.25320259583333,229.51182309583334,88.0,122.0
416,229.51182309583334,230.02906409583335,86.0,112.0
417,230.02906409583335,230.28768459583333,84.0,107.0
418,230.28768459583333,230.80492559583334,86.0,127.0
419,230.80492559583334,231.06354609583335,88.0,127.0
420,231.06354609583335,231.83940759583334,86.0,127.0
421,231.83940759583334,232.09802809583334,88.0,127.0
422,232.09802809583334,232.35664859583335,86.0,122.0
423,232.35664859583335,232.87388959583333,84.0,127.0
424,232.87388959583333,233.13251009583334,83.0,122.0
425,233.13251009583334,233.90837159583333,84.0,122.0
426,233.90837159583333,234.16699209583334,88.0,122.0
427,234.16699209583334,236.23595609583333,91.0,122.0
428,236.23595609583333,236.49457659583334,84.0,97.0
429,236.49457659583334,236.75319709583334,93.0,122.0
430,236.75319709583334,237.01181759583335,93.0,122.0
431,237.01181759583335,237.27043809583333,93.0,122.0
432,237.27043809583333,237.52905859583333,93.0,112.0
433,237.52905859583333,238.044144425,93.0,127.0
434,238.04629959583335,238.30492009583332,93.0,127.0
435,238.30492009583332,238.56354059583333,91.0,97.0
436,238.56354059583333,239.078626425,91.0,117.0
437,239.08078159583334,239.33940209583335,91.0,127.0
438,239.33940209583335,240.37388409583335,88.0,112.0
439,240.37388409583335,240.63250459583332,84.0,127.0
440,240.63250459583332,240.89112509583333,86.0,127.0
441,240.89112509583333,241.14974559583334,86.0,122.0
442,241.14974559583334,241.40836609583334,86.0,117.0
443,241.40836609583334,241.66698659583335,86.0,112.0
444,241.66698659583335,242.18422759583333,86.0,127.0
445,242.18422759583333,242.44284809583334,84.0,122.0
446,242.44284809583334,246.1802771875,86.0,127.0
447,246.1802771875,247.13381709791668,81.0,102.0
448,247.13381709791668,248.16257825416668,83.0,122.0
449,248.16257825416668,248.80195884375,86.0,117.0
450,248.80195884375,251.86040899999998,84.0,117.0
