,start,end,pitch,velocity
0,0.6629466937499999,8.7901820875,55.0,74.0
1,0.66741098125,8.794646375,60.0,82.0
2,0.6718752687499999,8.80357495,43.0,90.0
3,0.6651788375,8.80580709375,64.0,83.0
4,0.669643125,8.812503524999999,48.0,81.0
5,8.80134280625,8.812503524999999,48.0,93.0
6,0.6741074125,8.82812853125,36.0,65.0
7,9.60491455625,9.9151825375,64.0,78.0
8,9.33705730625,10.00670043125,60.0,65.0
9,9.069200056249999,10.044646875,55.0,58.0
10,10.140629056249999,10.44866489375,55.0,71.0
11,10.67634355625,10.97991510625,60.0,74.0
12,9.872771806249999,11.229915206249999,67.0,102.0
13,10.40848630625,11.276790225,64.0,95.0
14,11.21205805625,11.54687961875,59.0,75.0
15,11.47991530625,11.86830831875,64.0,78.0
16,11.747772556249998,12.12500485,59.0,76.0
17,10.944200806249999,12.33259421875,47.0,88.0
18,12.28348705625,12.6071479,59.0,69.0
19,12.55134430625,13.076975424999999,64.0,100.0
20,12.819201556249999,13.102837475,59.0,83.0
21,12.015629806249999,13.104992645833333,67.0,96.0
22,13.854992095833332,14.122233279166664,60.0,71.0
23,13.596371595833332,14.143784987499998,57.0,81.0
24,13.337751095833331,14.191198745833333,52.0,71.0
25,14.372233095833332,14.691198379166666,52.0,73.0
26,13.079130595833332,14.714905258333332,45.0,72.0
27,14.889474095833332,15.120077375,57.0,58.0
28,14.630853595833333,15.156715279166665,60.0,83.0
29,14.113612595833333,15.158870449999998,64.0,100.0
30,15.665335595833332,16.0351553625,55.0,82.0
31,15.406715095833333,16.177699143749997,50.0,55.0
32,15.923956095833333,16.66015501875,62.0,122.0
33,15.148094595833332,16.739102343749998,43.0,95.0
34,16.44962881875,16.769804081249998,50.0,68.0
35,16.18647106875,16.8158566875,59.0,61.0
36,16.712786568749998,17.188663499999997,55.0,81.0
37,16.97594431875,17.23910206875,62.0,93.0
38,17.76541756875,18.34293933333333,53.0,86.0
39,18.53043933333333,18.797105999999996,53.0,71.0
40,18.28043933333333,18.86168933333333,60.0,75.0
41,17.502259818749998,18.959605999999997,48.0,60.0
42,17.23910206875,18.96168933333333,41.0,88.0
43,19.03043933333333,19.320022666666663,60.0,79.0
44,18.78043933333333,19.32418933333333,57.0,85.0
45,18.028575318749997,19.388772666666664,65.0,117.0
46,19.78043933333333,20.30723513333333,52.0,88.0
47,20.03043933333333,20.632665929166663,64.0,107.0
48,20.28783859583333,20.899907112499996,59.0,69.0
49,20.54645909583333,20.968872579166664,52.0,82.0
50,19.53043933333333,21.039993216666662,47.0,67.0
51,19.28043933333333,21.072320779166663,40.0,82.0
52,20.80507959583333,21.229648249999997,64.0,97.0
53,21.06370009583333,21.268441324999998,59.0,89.0
54,21.83956159583333,22.399906012499997,50.0,86.0
55,22.35680259583333,22.95162974583333,57.0,64.0
56,21.32232059583333,22.960250429166663,38.0,86.0
57,21.58094109583333,22.994733162499998,45.0,85.0
58,22.61542309583333,23.31369844583333,50.0,93.0
59,22.87404359583333,23.425767329166664,62.0,93.0
60,23.13266409583333,23.434388012499998,57.0,93.0
61,22.09818209583333,23.47533625833333,65.0,100.0
62,23.908525595833332,24.285680491666664,55.0,99.0
63,23.64990509583333,24.514128599999996,50.0,77.0
64,23.39128459583333,24.93654208333333,43.0,77.0
65,24.68438709583333,24.938697254166662,50.0,86.0
66,24.42576659583333,25.44085205833333,59.0,96.0
67,24.16714609583333,25.445162399999997,62.0,102.0
68,24.94300759583333,25.47317962083333,55.0,95.0
69,25.97748959583333,26.563696062499996,48.0,77.0
70,26.23611009583333,26.580937429166664,55.0,58.0
71,25.46024859583333,27.42576439583333,36.0,93.0
72,26.75335109583333,27.57447118333333,48.0,72.0
73,25.71886909583333,27.591712549999997,43.0,38.0
74,27.01197159583333,28.031367399999997,55.0,92.0
75,26.49473059583333,28.21455692083333,64.0,100.0
76,27.27059209583333,28.2382638,60.0,79.0
77,28.04645359583333,28.677918649999995,48.0,58.0
78,28.30507409583333,28.701625529166662,55.0,72.0
79,27.52921259583333,29.014125299999996,36.0,79.0
80,27.78783309583333,29.024901154166663,43.0,56.0
81,28.822315095833332,29.46886634583333,48.0,63.0
82,29.08093559583333,29.59817659583333,60.0,53.0
83,28.563694595833333,29.59817659583333,64.0,96.0
84,29.59817659583333,33.242570474999994,43.0,72.0
85,29.59817659583333,33.56800127083333,59.0,93.0
86,29.59817659583333,33.56800127083333,62.0,92.0
87,29.59817659583333,33.59386332083333,55.0,92.0
88,34.25334559583333,34.91282787083333,48.0,71.0
89,34.51196609583333,34.923603725,55.0,73.0
90,33.99472509583333,35.1692932,43.0,74.0
91,33.73610459583333,35.311534474999995,36.0,93.0
92,35.02920709583333,35.4990343375,48.0,58.0
93,34.77058659583333,35.82015479166667,64.0,107.0
94,35.287827595833335,35.824465133333334,60.0,88.0
95,35.54644809583333,35.8481720125,55.0,70.0
96,36.32230959583333,36.50334394583333,55.0,63.0
97,36.06368909583333,36.746878249999995,52.0,66.0
98,35.80506859583333,37.31368817916666,47.0,102.0
99,37.35679159583333,37.65420517083333,52.0,89.0
100,36.58093009583333,37.83092917916666,64.0,93.0
101,37.615412095833335,37.88265327916666,55.0,88.0
102,38.391273595833326,38.7188595625,57.0,79.0
103,38.132653095833334,38.822307762499996,52.0,40.0
104,38.90851459583333,39.190841975,57.0,58.0
105,39.16713509583333,39.604634774999994,52.0,72.0
106,37.87403259583333,39.61325545833333,45.0,85.0
107,39.68437609583333,39.92575522916667,57.0,81.0
108,39.42575559583333,39.95808279166667,60.0,86.0
109,38.64989409583333,40.00118620833333,64.0,107.0
110,40.460237595833334,40.76627185416666,55.0,78.0
111,40.20161709583333,41.07015094166667,50.0,58.0
112,41.23609909583333,41.555064379166666,50.0,63.0
113,39.942996595833336,41.574460916666666,43.0,92.0
114,40.97747859583333,41.621874675,59.0,67.0
115,41.49471959583333,41.94083995833333,55.0,96.0
116,41.75334009583333,41.990408887499996,59.0,73.0
117,40.718858095833326,42.02489162083333,62.0,127.0
118,42.52920159583333,43.05721844999999,53.0,72.0
119,43.30506309583333,43.539976716666665,53.0,60.0
120,43.04644259583333,43.58739047499999,60.0,66.0
121,42.01196059583333,43.664976624999994,41.0,88.0
122,42.270581095833336,43.67575247916666,48.0,63.0
123,43.56368359583333,44.07445908333333,57.0,88.0
124,42.787822095833334,44.1369590375,65.0,112.0
125,43.82230409583333,44.16713142916666,60.0,72.0
126,44.59816559583333,45.13049279166667,52.0,82.0
127,45.37402709583333,45.645578620833334,52.0,72.0
128,44.33954509583333,45.69299237916667,47.0,59.0
129,45.115406595833335,45.69299237916667,59.0,69.0
130,44.08092459583333,45.73825096666667,40.0,92.0
131,45.89126809583333,46.145578254166665,59.0,59.0
132,45.63264759583333,46.158509279166665,55.0,95.0
133,44.85678609583333,46.171440304166666,64.0,112.0
134,46.66712959583333,47.233939525,50.0,59.0
135,46.14988859583333,47.68221505833333,38.0,93.0
136,46.40850909583333,47.70807710833333,45.0,53.0
137,47.18437059583333,47.74255984166666,57.0,59.0
138,47.442991095833335,48.117559566666664,50.0,53.0
139,47.960232095833334,48.25333532916666,57.0,61.0
140,47.70161159583333,48.25980084166666,62.0,81.0
141,46.92575009583333,48.268421524999994,65.0,102.0
142,48.73609359583333,49.09169678333333,55.0,65.0
143,48.47747309583333,49.26195527916666,50.0,52.0
144,49.51195509583333,49.75333422916667,50.0,58.0
145,48.218852595833326,49.777041108333336,43.0,88.0
146,48.99471409583333,50.285661425,62.0,99.0
147,49.25333459583333,50.29643727916667,59.0,57.0
148,49.770575595833336,50.31583381666667,55.0,79.0
149,50.80505759583333,51.382643379166666,48.0,82.0
150,50.546437095833326,51.690832808333326,43.0,56.0
151,51.32229859583333,51.87186715833333,60.0,69.0
152,50.287816595833334,51.89126369583333,36.0,85.0
153,51.58091909583333,52.14341868333333,48.0,72.0
154,51.06367809583333,52.354625424999995,64.0,112.0
155,52.09816009583333,52.36540127916666,60.0,78.0
156,51.83953959583333,52.39557367083333,55.0,93.0
157,52.874021595833334,53.14557312083333,59.0,50.0
158,53.13264209583333,53.6024693375,64.0,97.0
159,53.39126259583333,53.9128139375,59.0,83.0
160,52.35678059583333,54.024882820833334,47.0,100.0
161,53.64988309583333,54.31152054166667,52.0,64.0
162,53.90850359583333,54.42789976666666,64.0,95.0
163,54.16712409583333,54.44083079166666,59.0,65.0
164,54.94298559583333,55.25548536666666,57.0,73.0
165,54.68436509583333,55.492554158333334,52.0,67.0
166,55.46022659583333,55.89341593333333,57.0,47.0
167,55.71884709583333,56.067984770833334,52.0,58.0
168,54.42574459583333,56.09600199166667,45.0,77.0
169,56.23608809583333,56.466691374999996,57.0,72.0
170,55.97746759583333,56.490398254166664,60.0,97.0
171,55.201606095833334,56.4990189375,64.0,107.0
172,57.01194959583333,57.58091469583333,52.0,58.0
173,57.787811095833334,58.02056954583333,52.0,66.0
174,57.529190595833334,58.12617291666666,59.0,55.0
175,56.49470859583333,58.18436252916666,40.0,83.0
176,58.04643159583333,58.46884507916666,55.0,90.0
177,56.75332909583333,58.50763815416666,47.0,45.0
178,58.30505209583333,58.527034691666664,59.0,68.0
179,57.27057009583333,58.624017379166666,64.0,100.0
180,59.08091359583333,59.583068399999995,53.0,79.0
181,59.856775095833335,60.061516325,53.0,74.0
182,58.82229309583333,60.15418867083333,48.0,53.0
183,58.56367259583333,60.19513691666666,41.0,88.0
184,59.59815459583333,60.20806794166666,60.0,56.0
185,60.115395595833334,60.630481425,57.0,90.0
186,60.37401609583333,60.630481425,60.0,59.0
187,59.33953409583333,60.68651586666667,65.0,95.0
188,61.14987759583333,61.652032399999996,52.0,83.0
189,61.92573909583333,62.13479066666667,52.0,66.0
190,60.89125709583333,62.1757389125,47.0,47.0
191,60.63263659583333,62.22530784166666,40.0,78.0
192,61.66711859583333,62.53996278333333,59.0,70.0
193,62.18435959583333,62.619704104166665,55.0,89.0
194,61.40849809583333,62.62401444583333,64.0,97.0
195,62.96022109583333,63.5722896125,57.0,74.0
196,63.21884159583333,63.630479224999995,65.0,122.0
197,63.47746209583333,63.64125507916666,62.0,76.0
198,62.701600595833334,63.66711712916666,38.0,89.0
199,63.73608259583333,64.62401297916666,43.0,117.0
200,64.25332359583334,64.7037543,62.0,102.0
201,64.51194409583333,64.71453015416667,59.0,67.0
202,63.99470309583333,64.742547375,55.0,68.0
203,65.54642609583334,65.92142582083333,55.0,73.0
204,65.28780559583333,65.92358099166667,48.0,72.0
205,64.77056459583333,66.33521862083333,36.0,92.0
206,65.02918509583333,66.3589255,43.0,42.0
207,66.06366709583332,66.44513233333333,48.0,78.0
208,66.58090809583334,66.83306308333333,55.0,82.0
209,66.32228759583333,66.85030445,60.0,99.0
210,65.80504659583333,66.86539064583333,64.0,102.0
211,67.35676959583333,67.664959025,57.0,86.0
212,67.09814909583332,67.86754508333334,52.0,59.0
213,68.13263109583333,68.43004467083333,52.0,58.0
214,66.83952859583333,68.44513086666666,45.0,99.0
215,67.87401059583334,68.45590672083333,60.0,38.0
216,68.39125159583332,68.9515960125,57.0,86.0
217,67.61539009583333,68.96883737916667,64.0,100.0
218,68.64987209583333,68.98176840416667,60.0,72.0
219,69.42573359583332,69.69297477916666,55.0,71.0
220,69.16711309583333,69.93219874166667,50.0,79.0
221,69.68435409583333,70.25331919583334,62.0,100.0
222,69.68435409583333,70.27056056250001,59.0,93.0
223,69.94297459583333,70.44728457083333,55.0,71.0
224,70.20159509583334,70.57659482083332,50.0,89.0
225,68.90849259583334,70.60676721249999,43.0,73.0
226,70.46021559583333,70.97099108333333,59.0,97.0
227,70.71883609583332,70.98607727916666,55.0,38.0
228,70.46021559583333,70.99685313333333,62.0,100.0
229,71.49469759583333,72.02486962083333,53.0,86.0
230,71.75331809583332,72.38693832083334,60.0,95.0
231,71.75331809583332,72.397714175,57.0,93.0
232,72.27055909583333,72.47098998333334,53.0,77.0
233,71.23607709583334,72.61323125833333,48.0,52.0
234,70.97745659583333,72.61538642916666,41.0,83.0
235,72.78780009583333,73.03995508333333,57.0,63.0
236,72.52917959583334,73.05504127916666,60.0,100.0
237,73.56366159583334,74.11323015833332,48.0,76.0
238,73.82228209583333,74.33305758333333,60.0,95.0
239,74.08090259583332,74.50547125,55.0,48.0
240,73.04642059583333,74.5895229125,36.0,83.0
241,73.30504109583333,74.59167808333333,43.0,39.0
242,74.33952309583333,74.75978140833334,48.0,72.0
243,73.82228209583333,75.08305703333333,64.0,95.0
244,74.59814359583333,75.13693630416667,59.0,89.0
245,75.63262559583333,75.95805639166667,57.0,86.0
246,75.37400509583333,76.2382286,52.0,90.0
247,76.14986659583333,76.68650413333333,57.0,55.0
248,75.11538459583333,76.690814475,45.0,61.0
249,76.40848709583332,76.6972799875,52.0,65.0
250,76.66710759583333,77.16279688750001,60.0,89.0
251,75.89124609583334,77.18219342500001,64.0,112.0
252,76.92572809583334,77.19081410833334,57.0,56.0
253,77.70158959583333,78.15633064166667,55.0,78.0
254,77.44296909583333,78.35460635833334,50.0,53.0
255,77.96021009583333,78.5205545125,62.0,107.0
256,78.21883059583334,78.77270949999999,59.0,75.0
257,78.47745109583333,78.78995086666666,50.0,72.0
258,77.18434859583334,78.82227842916666,43.0,81.0
259,78.73607159583332,79.22314020416667,62.0,100.0
260,78.99469209583333,79.2705539625,59.0,70.0
261,79.77055359583333,80.36107040416667,53.0,82.0
262,80.02917409583333,80.57874265833334,60.0,127.0
263,80.54641509583334,80.7705528625,53.0,74.0
264,80.28779459583333,80.7834838875,57.0,58.0
265,79.25331259583334,81.15417327083333,41.0,95.0
266,80.80503559583333,81.27055249583333,60.0,95.0
267,81.06365609583332,81.28132835,57.0,86.0
268,79.51193309583334,81.31796625416666,48.0,75.0
269,81.83951759583334,82.18218975833332,55.0,90.0
270,81.58089709583334,82.42787923333333,50.0,49.0
271,82.09813809583333,82.4968447,62.0,127.0
272,82.35675859583333,82.88046510833334,59.0,88.0
273,81.32227659583333,82.93218920833334,43.0,92.0
274,82.87399959583334,83.26193034583333,62.0,102.0
275,82.61537909583333,83.37615439999999,50.0,69.0
276,83.39124059583332,85.3352046875,43.0,92.0
277,83.39124059583332,85.3352046875,55.0,100.0
278,83.13262009583333,85.36537707916666,59.0,95.0
279,83.39124059583332,85.40201498333333,62.0,67.0
280,85.46020459583333,86.130462725,67.0,102.0
281,85.46020459583333,86.14123857916667,64.0,117.0
282,86.23606609583334,86.5507210375,60.0,96.0
283,85.97744559583333,86.59382445416666,55.0,92.0
284,86.75330709583334,86.86537597916667,55.0,93.0
285,85.46020459583333,86.88477251666667,48.0,88.0
286,86.49468659583333,87.0291689625,64.0,122.0
287,86.49468659583333,87.11106545416666,67.0,127.0
288,87.01192759583333,87.31796185416667,60.0,112.0
289,87.27054809583333,87.4170997125,64.0,92.0
290,87.52916859583333,88.16278882083333,59.0,102.0
291,87.52916859583333,88.17571984583333,67.0,96.0
292,87.52916859583333,88.17787501666666,64.0,97.0
293,88.04640959583334,88.59813332916667,52.0,81.0
294,88.30503009583333,88.90632275833333,67.0,95.0
295,88.30503009583333,88.91494344166667,64.0,100.0
296,88.30503009583333,88.9429606625,59.0,99.0
297,87.52916859583333,89.05502954583334,40.0,93.0
298,88.82227109583333,89.10028813333334,52.0,69.0
299,87.78778909583333,89.11537432916667,47.0,62.0
300,89.08089159583334,89.37830517083333,64.0,100.0
301,89.08089159583334,89.40201205,67.0,112.0
302,89.33951209583333,89.47097751666666,59.0,83.0
303,89.59813259583333,90.2102011125,64.0,99.0
304,89.59813259583333,90.22744247916667,60.0,99.0
305,89.59813259583333,90.2360631625,57.0,107.0
306,89.59813259583333,90.242528675,45.0,86.0
307,90.11537359583333,90.24468384583334,52.0,69.0
308,90.37399409583334,90.9602005625,60.0,112.0
309,90.37399409583334,90.96451090416667,64.0,112.0
310,91.14985559583333,91.47097605,60.0,102.0
311,91.40847609583334,91.47528639166667,57.0,39.0
312,91.14985559583333,91.4774415625,64.0,107.0
313,91.66709659583333,91.78563099166666,59.0,100.0
314,91.66709659583333,91.80933787083333,62.0,102.0
315,92.18433759583333,92.6283027875,55.0,72.0
316,92.44295809583333,92.9903714875,59.0,90.0
317,92.44295809583333,93.01838870833333,62.0,107.0
318,92.44295809583333,93.0291645625,67.0,96.0
319,92.96019909583333,93.09166451666667,55.0,73.0
320,91.92571709583333,93.21450925416667,50.0,58.0
321,91.66709659583333,93.216664425,43.0,78.0
322,93.21881959583334,93.33088847916666,62.0,102.0
323,93.21881959583334,93.3589057,67.0,117.0
324,93.73606059583334,94.16062925,57.0,96.0
325,93.73606059583334,94.16062925,60.0,96.0
326,94.25330159583334,94.8071805,53.0,92.0
327,94.51192209583333,95.08735270833333,57.0,102.0
328,94.51192209583333,95.10890441666666,60.0,112.0
329,94.51192209583333,95.11321475833333,65.0,112.0
330,95.02916309583333,95.19511125,53.0,78.0
331,93.73606059583334,95.31580081666667,41.0,85.0
332,93.99468109583333,95.337352525,48.0,92.0
333,95.28778359583333,95.60890404999999,60.0,99.0
334,95.28778359583333,95.61752473333333,65.0,100.0
335,95.54640409583334,95.63261092916666,57.0,85.0
336,95.80502459583333,96.19295534583333,55.0,100.0
337,95.80502459583333,96.28131735,59.0,95.0
338,96.32226559583333,96.8696789875,52.0,90.0
339,96.58088609583334,97.0830409,55.0,100.0
340,96.58088609583334,97.10890295,59.0,112.0
341,96.58088609583334,97.11752363333333,64.0,99.0
342,97.09812709583333,97.26838559166667,52.0,83.0
343,96.06364509583334,97.38476481666666,47.0,54.0
344,95.80502459583333,97.43433374583333,40.0,86.0
345,97.35674759583333,97.89985064583334,59.0,107.0
346,97.35674759583333,97.93433337916666,64.0,100.0
347,98.39122959583334,98.91493610833334,50.0,86.0
348,98.64985009583333,99.00760845416667,57.0,99.0
349,98.64985009583333,99.16278075416666,62.0,102.0
350,98.64985009583333,99.16709109583333,65.0,100.0
351,98.13260909583333,99.37614266666667,45.0,66.0
352,97.87398859583334,99.39553920416667,38.0,89.0
353,99.42571159583333,99.759763075,62.0,112.0
354,99.42571159583333,99.7791596125,65.0,102.0
355,99.16709109583333,99.8761423,50.0,90.0
356,99.68433209583333,99.94510776666667,57.0,89.0
357,99.94295259583333,99.992521525,64.0,89.0
358,99.94295259583333,100.04640079583334,59.0,107.0
359,99.94295259583333,100.070107675,62.0,99.0
360,100.46019359583333,101.001141475,55.0,82.0
361,100.71881409583334,101.29855505,62.0,102.0
362,100.71881409583334,101.31364124583334,67.0,112.0
363,100.71881409583334,101.31579641666667,71.0,107.0
364,101.23605509583334,101.39769290833333,55.0,97.0
365,100.20157309583334,101.45803769166666,50.0,95.0
366,99.94295259583333,101.4989859375,43.0,95.0
367,101.49467559583333,101.6024341375,67.0,102.0
368,101.49467559583333,101.621830675,71.0,112.0
369,102.01191659583333,102.60027823333333,55.0,97.0
370,102.01191659583333,102.60243340416666,64.0,95.0
371,102.01191659583333,102.6110540875,60.0,99.0
372,102.52915759583334,103.13045025833334,48.0,95.0
373,103.04639859583334,103.354588025,55.0,37.0
374,102.78777809583333,103.40200178333333,64.0,107.0
375,102.78777809583333,103.40415695416667,60.0,117.0
376,102.01191659583333,103.61105335416667,36.0,92.0
377,102.27053709583333,103.68648433333334,43.0,86.0
378,103.30501909583333,103.871829025,48.0,72.0
379,103.56363959583334,103.89338073333333,60.0,112.0
380,103.56363959583334,103.89984624583333,64.0,100.0
381,103.82226009583333,103.96019102916667,55.0,62.0
382,104.08088059583334,104.68217325833334,55.0,102.0
383,104.08088059583334,104.6929491125,59.0,99.0
384,104.08088059583334,104.6929491125,62.0,97.0
385,104.59812159583333,105.16708669583333,50.0,82.0
386,104.85674209583334,105.44725890416667,55.0,96.0
387,104.85674209583334,105.45156924583333,62.0,97.0
388,104.85674209583334,105.45372441666666,59.0,100.0
389,104.08088059583334,105.66708632916666,43.0,85.0
390,105.37398309583334,105.7403621375,50.0,76.0
391,105.63260359583333,105.8179482875,59.0,112.0
392,105.63260359583333,105.82656897083334,62.0,102.0
393,106.14984459583333,106.29424104166667,57.0,99.0
394,106.14984459583333,106.29424104166667,60.0,97.0
395,106.14984459583333,106.31794792083333,64.0,93.0
396,106.66708559583333,106.90846472916667,57.0,89.0
397,106.40846509583334,107.30932650416666,52.0,72.0
398,106.92570609583333,107.48820568333333,69.0,97.0
399,106.92570609583333,107.49682636666667,64.0,97.0
400,106.92570609583333,107.4989815375,72.0,95.0
401,107.44294709583333,107.595964225,52.0,56.0
402,106.14984459583333,107.63906764166667,45.0,92.0
403,107.70156759583334,107.82010199166666,69.0,112.0
404,107.70156759583334,107.854584725,72.0,117.0
405,108.21880859583334,108.74898062083334,64.0,89.0
406,108.21880859583334,108.78777369583334,67.0,96.0
407,108.21880859583334,108.79423920833334,71.0,102.0
408,108.73604959583334,109.24251474166667,52.0,97.0
409,108.99467009583333,109.53130763333333,71.0,117.0
410,108.99467009583333,109.57225587916666,67.0,117.0
411,109.25329059583333,109.5938075875,64.0,86.0
412,109.51191109583333,109.70803164166666,52.0,97.0
413,108.21880859583334,109.78346262083333,40.0,95.0
414,109.77053159583333,110.1175141,67.0,122.0
415,109.77053159583333,110.1175141,71.0,122.0
416,108.47742909583333,110.21018644583333,47.0,79.0
417,110.02915209583334,110.27699674166666,64.0,92.0
418,110.28777259583333,110.33303118333333,71.0,90.0
419,110.28777259583333,110.8933756,69.0,99.0
420,110.28777259583333,110.91492730833333,65.0,102.0
421,110.80501359583333,111.29208220416666,53.0,89.0
422,111.06363409583334,111.449409675,65.0,127.0
423,111.06363409583334,111.47096138333333,69.0,122.0
424,111.58087509583333,111.75544393333334,53.0,102.0
425,110.54639309583334,111.91061623333333,48.0,67.0
426,111.32225459583333,111.91923691666666,60.0,97.0
427,110.28777259583333,111.9213920875,41.0,86.0
428,111.83949559583333,112.19509878333334,69.0,127.0
429,112.09811609583333,112.3481159125,60.0,102.0
430,112.35673659583334,112.9558740875,64.0,102.0
431,112.35673659583334,112.95802925833334,67.0,122.0
432,112.87397759583334,113.44509786666667,52.0,88.0
433,113.13259809583333,113.72742524583333,67.0,107.0
434,113.13259809583333,113.72958041666666,64.0,112.0
435,113.39121859583334,113.79423554166667,59.0,74.0
436,113.64983909583333,113.81794242083333,52.0,89.0
437,112.61535709583333,113.8869078875,47.0,67.0
438,112.35673659583334,113.89552857083333,40.0,88.0
439,113.90845959583334,114.02483882083334,64.0,100.0
440,113.90845959583334,114.04639052916667,67.0,99.0
441,114.42570059583333,115.018372575,62.0,97.0
442,114.42570059583333,115.02268291666667,57.0,97.0
443,114.42570059583333,115.02268291666667,65.0,89.0
444,114.94294159583333,115.50113084166667,50.0,89.0
445,115.20156209583334,115.80285475833334,65.0,100.0
446,115.20156209583334,115.81147544166667,62.0,100.0
447,114.42570059583333,115.86750988333333,38.0,74.0
448,114.68432109583334,115.90845812916666,45.0,61.0
449,115.71880309583334,116.08302696666667,50.0,85.0
450,115.97742359583333,116.10026833333333,62.0,107.0
451,115.97742359583333,116.10673384583333,65.0,100.0
452,116.49466459583333,116.59811279583333,59.0,97.0
453,116.49466459583333,116.621819675,62.0,99.0
454,117.01190559583334,117.45371561666667,55.0,93.0
455,116.75328509583333,117.65845684583333,50.0,73.0
456,117.78776709583333,117.95156007916667,50.0,86.0
457,116.49466459583333,117.96880144583334,43.0,85.0
458,117.27052609583333,118.08518067083334,67.0,112.0
459,117.27052609583333,118.1024220375,71.0,117.0
460,118.04638759583334,118.35242185416666,62.0,99.0
461,118.56362859583334,119.00543861666667,60.0,96.0
462,118.56362859583334,119.0463868625,64.0,99.0
463,118.56362859583334,119.20586950416667,67.0,97.0
464,119.08086959583333,119.53345547083333,48.0,76.0
465,119.33949009583334,120.05716198333333,64.0,97.0
466,119.33949009583334,120.0808688625,70.0,102.0
467,119.85673109583334,120.14767915833333,48.0,82.0
468,120.11535159583333,120.2037136,64.0,31.0
469,119.33949009583334,120.2360411625,67.0,97.0
470,120.11535159583333,120.31578248333334,60.0,97.0
471,118.56362859583334,120.47095478333334,36.0,81.0
472,118.82224909583333,120.6627649875,43.0,70.0
473,120.37397209583334,120.90198895,70.0,112.0
474,120.37397209583334,121.15198876666666,60.0,76.0
475,120.37397209583334,121.2834541875,64.0,83.0
476,120.37397209583334,121.29854038333333,67.0,83.0
477,121.14983359583333,121.68216079166666,48.0,66.0
478,121.40845409583333,122.1110397875,67.0,102.0
479,121.40845409583333,122.1175053,64.0,97.0
480,120.63259259583333,122.16491905833334,36.0,76.0
481,120.89121309583334,122.21017764583334,43.0,56.0
482,121.92569509583333,122.54853946666667,48.0,71.0
483,122.18431559583334,122.57224634583334,67.0,73.0
484,122.18431559583334,122.61319459166667,64.0,92.0
485,122.70155659583334,123.34810784583334,60.0,102.0
486,122.70155659583334,123.35457335833334,69.0,117.0
487,122.70155659583334,123.36103887083334,65.0,102.0
488,123.21879759583334,123.75759030416667,53.0,90.0
489,123.47741809583333,123.93646948333334,60.0,107.0
490,123.99465909583333,124.18862447083333,53.0,78.0
491,123.47741809583333,124.30069335416667,65.0,117.0
492,123.47741809583333,124.30069335416667,69.0,107.0
493,122.70155659583334,124.52267595000001,41.0,95.0
494,122.96017709583333,124.72095166666666,48.0,49.0
495,124.51190009583334,124.86750328333333,65.0,107.0
496,124.51190009583334,124.9687963125,69.0,100.0
497,124.25327959583333,125.02914109583334,60.0,97.0
498,125.28776159583333,125.5894855125,53.0,96.0
499,125.02914109583334,125.91491630833333,48.0,72.0
500,124.77052059583333,126.15414027083334,41.0,73.0
501,126.06362309583334,126.1584506125,48.0,64.0
502,125.54638209583334,126.34810564583333,65.0,112.0
503,125.54638209583334,126.36965735416666,69.0,127.0
504,126.32224359583333,126.38043320833333,60.0,90.0
505,126.83948459583334,126.93215694166666,40.0,83.0
506,126.83948459583334,127.46232896666666,64.0,97.0
507,126.83948459583334,127.46232896666666,67.0,93.0
508,126.83948459583334,127.49250135833333,71.0,95.0
509,127.61534609583333,128.30284559166665,67.0,117.0
510,127.61534609583333,128.31362144583335,71.0,107.0
511,127.61534609583333,128.44293169583335,64.0,112.0
512,128.64982809583333,128.74896595416666,76.0,83.0
513,128.64982809583333,128.7705176625,64.0,82.0
514,128.90844859583333,128.99896577083334,76.0,100.0
515,128.90844859583333,129.00112094166667,64.0,122.0
516,128.39120759583335,129.07224157916667,59.0,89.0
517,129.42568959583332,129.63905150833335,59.0,107.0
518,129.68431009583333,129.77482727083333,76.0,92.0
519,129.68431009583333,129.8049996625,64.0,85.0
520,129.94293059583333,130.08086152916667,77.0,107.0
521,129.94293059583333,130.1153442625,65.0,102.0
522,128.90844859583333,130.16922353333334,55.0,77.0
523,127.35672559583334,130.1929304125,52.0,50.0
524,130.20155109583334,130.25974070833334,59.0,96.0
525,130.20155109583334,130.32439583333334,76.0,99.0
526,130.20155109583334,130.35672339583334,64.0,102.0
527,130.71879209583335,130.84163683333333,77.0,85.0
528,130.71879209583335,130.845947175,65.0,92.0
529,130.97741259583333,131.10887801666667,74.0,85.0
530,130.97741259583333,131.17353314166667,62.0,97.0
531,131.75327409583332,132.0549980125,65.0,127.0
532,131.49465359583334,132.07223937916666,50.0,78.0
533,131.75327409583332,132.32870470833333,62.0,107.0
534,132.27051509583333,132.526980425,50.0,78.0
535,130.97741259583333,132.73172165416668,38.0,92.0
536,131.23603309583333,133.0312904,45.0,85.0
537,133.04637659583335,133.40844529583333,38.0,75.0
538,133.30499709583333,133.41491080833333,45.0,88.0
539,132.78775609583334,133.871807025,62.0,96.0
540,132.52913559583334,133.94077249166668,69.0,89.0
541,132.52913559583334,133.97956556666668,65.0,81.0
542,133.56361759583334,134.38689285416666,50.0,33.0
543,133.8222380958333,134.39982387916666,53.0,102.0
544,134.33947909583333,134.40197905,57.0,100.0
545,134.08085859583332,134.59163408333333,65.0,122.0
546,134.08085859583332,134.75542706666667,69.0,122.0
547,134.85672009583334,135.05284064166665,65.0,100.0
548,134.59809959583333,135.06146132499998,62.0,107.0
549,135.11534059583335,135.20801294166665,62.0,50.0
550,135.11534059583335,135.27913357916668,67.0,107.0
551,135.11534059583335,135.28344392083335,71.0,107.0
552,135.89120209583334,136.1024088375,59.0,122.0
553,136.1498225958333,136.29206387083332,62.0,102.0
554,136.40844309583332,136.52266715000002,67.0,88.0
555,136.66706359583333,136.8071497,71.0,107.0
556,135.63258159583333,136.82223589583333,55.0,112.0
557,135.11534059583335,137.06145985833334,43.0,82.0
558,136.92568409583333,137.22525284166667,74.0,127.0
559,137.18430459583334,137.2274080125,69.0,100.0
560,135.37396109583335,137.22956318333334,50.0,96.0
561,137.18430459583334,137.2662010875,67.0,112.0
562,137.96016609583333,138.1843038625,55.0,66.0
563,137.70154559583335,138.3394761625,50.0,62.0
564,138.21878659583334,139.26188927916667,62.0,102.0
565,137.18430459583334,139.26619962083333,43.0,99.0
566,138.21878659583334,139.26835479166667,59.0,102.0
567,139.77050959583335,140.34809537916666,48.0,82.0
568,139.51188909583334,140.65628480833334,43.0,56.0
569,140.28775059583333,140.83731915833334,60.0,69.0
570,139.25326859583333,140.85671569583332,36.0,85.0
571,140.54637109583334,141.10887068333335,48.0,72.0
572,140.02913009583335,141.32007742500002,64.0,112.0
573,141.06361209583332,141.33085327916666,60.0,78.0
574,140.80499159583331,141.36102567083333,55.0,93.0
575,141.83947359583334,142.11102512083335,59.0,50.0
576,142.09809409583335,142.5679213375,64.0,97.0
577,142.35671459583335,142.8782659375,59.0,83.0
578,141.32223259583333,142.99033482083334,47.0,100.0
579,142.61533509583333,143.27697254166668,52.0,64.0
580,142.87395559583334,143.39335176666668,64.0,95.0
581,143.13257609583331,143.40628279166668,59.0,65.0
582,143.90843759583333,144.22093736666667,57.0,73.0
583,143.64981709583333,144.45800615833332,52.0,67.0
584,144.42567859583335,144.85886793333333,57.0,47.0
585,144.68429909583335,145.03343677083333,52.0,58.0
586,143.39119659583332,145.06145399166667,45.0,77.0
587,145.20154009583334,145.432143375,57.0,72.0
588,144.94291959583333,145.45585025416665,60.0,97.0
589,144.16705809583334,145.46447093749998,64.0,107.0
590,145.97740159583333,146.54636669583334,52.0,58.0
591,146.75326309583335,146.98602154583335,52.0,66.0
592,146.49464259583334,147.09162491666666,59.0,55.0
593,145.46016059583332,147.14981452916666,40.0,83.0
594,147.01188359583335,147.43429707916667,55.0,90.0
595,145.71878109583332,147.47309015416667,47.0,45.0
596,147.27050409583333,147.49248669166667,59.0,68.0
597,146.23602209583333,147.58946937916667,64.0,100.0
598,148.04636559583332,148.5485204,53.0,79.0
599,148.82222709583334,149.026968325,53.0,74.0
600,147.78774509583332,149.11964067083335,48.0,53.0
601,147.52912459583334,149.16058891666665,41.0,88.0
602,148.56360659583333,149.17351994166665,60.0,56.0
603,149.08084759583335,149.595933425,57.0,90.0
604,149.33946809583333,149.595933425,60.0,59.0
605,148.30498609583333,149.65196786666667,65.0,95.0
606,150.11532959583334,150.6174844,52.0,83.0
607,150.89119109583334,151.10024266666667,52.0,66.0
608,149.85670909583334,151.1411909125,47.0,47.0
609,149.59808859583333,151.19075984166668,40.0,78.0
610,150.63257059583333,151.50541478333332,59.0,70.0
611,151.14981159583334,151.58515610416666,55.0,89.0
612,150.37395009583332,151.58946644583332,64.0,97.0
613,151.92567309583333,152.5377416125,57.0,74.0
614,152.18429359583334,152.59593122500002,65.0,122.0
615,152.44291409583334,152.60670707916668,62.0,76.0
616,151.66705259583333,152.63256912916665,38.0,89.0
617,152.70153459583332,153.58946497916668,43.0,117.0
618,153.21877559583334,153.6692063,62.0,102.0
619,153.47739609583334,153.67998215416668,59.0,67.0
620,152.96015509583333,153.707999375,55.0,68.0
621,154.51187809583334,154.88687782083335,55.0,73.0
622,154.25325759583333,154.88903299166668,48.0,72.0
623,153.73601659583335,155.30067062083333,36.0,92.0
624,153.99463709583333,155.3243775,43.0,42.0
625,155.02911909583332,155.41058433333333,48.0,78.0
626,155.54636009583334,155.79851508333334,55.0,82.0
627,155.28773959583333,155.81575645,60.0,99.0
628,154.77049859583335,155.83084264583334,64.0,102.0
629,156.32222159583333,156.630411025,57.0,86.0
630,156.06360109583335,156.83299708333334,52.0,59.0
631,157.09808309583335,157.39549667083332,52.0,58.0
632,155.80498059583334,157.41058286666666,45.0,99.0
633,156.83946259583334,157.42135872083333,60.0,38.0
634,157.35670359583332,157.9170480125,57.0,86.0
635,156.58084209583333,157.93428937916667,64.0,100.0
636,157.61532409583333,157.94722040416667,60.0,72.0
637,158.39118559583335,158.65842677916666,55.0,71.0
638,158.13256509583334,158.89765074166667,50.0,79.0
639,158.64980609583333,159.21877119583334,62.0,100.0
640,158.64980609583333,159.2360125625,59.0,93.0
641,158.90842659583333,159.41273657083335,55.0,71.0
642,159.16704709583334,159.54204682083335,50.0,89.0
643,157.87394459583334,159.5722192125,43.0,73.0
644,159.42566759583335,159.93644308333333,59.0,97.0
645,159.68428809583332,159.95152927916666,55.0,38.0
646,159.42566759583335,159.96230513333333,62.0,100.0
647,160.46014959583334,160.99032162083333,53.0,86.0
648,160.71877009583335,161.35239032083334,60.0,95.0
649,160.71877009583335,161.363166175,57.0,93.0
650,161.23601109583333,161.43644198333334,53.0,77.0
651,160.20152909583334,161.57868325833334,48.0,52.0
652,159.94290859583333,161.58083842916668,41.0,83.0
653,161.75325209583335,162.00540708333332,57.0,63.0
654,161.49463159583334,162.02049327916666,60.0,100.0
655,162.52911359583334,163.07868215833332,48.0,76.0
656,162.78773409583334,163.29850958333333,60.0,95.0
657,163.04635459583332,163.47092325,55.0,48.0
658,162.01187259583332,163.5549749125,36.0,83.0
659,162.27049309583333,163.55713008333333,43.0,39.0
660,163.30497509583333,163.72523340833334,48.0,72.0
661,162.78773409583334,164.04850903333335,64.0,95.0
662,163.56359559583333,164.10238830416668,59.0,89.0
663,164.59807759583333,164.92350839166667,57.0,86.0
664,164.33945709583332,165.2036806,52.0,90.0
665,165.11531859583334,165.65195613333333,57.0,55.0
666,164.08083659583335,165.656266475,45.0,61.0
667,165.37393909583332,165.6627319875,52.0,65.0
668,165.63255959583333,166.1282488875,60.0,89.0
669,164.85669809583334,166.147645425,64.0,112.0
670,165.89118009583333,166.15626610833334,57.0,56.0
671,166.66704159583333,167.12178264166667,55.0,78.0
672,166.40842109583335,167.32005835833334,50.0,53.0
673,166.92566209583333,167.4860065125,62.0,107.0
674,167.18428259583334,167.7381615,59.0,75.0
675,167.44290309583334,167.75540286666666,50.0,72.0
676,166.14980059583334,167.78773042916666,43.0,81.0
677,167.70152359583332,168.18859220416667,62.0,100.0
678,167.96014409583333,168.2360059625,59.0,70.0
679,168.73600559583335,169.32652240416667,53.0,82.0
680,168.99462609583333,169.54419465833334,60.0,127.0
681,169.51186709583334,169.7360048625,53.0,74.0
682,169.25324659583333,169.7489358875,57.0,58.0
683,168.21876459583333,170.11962527083332,41.0,95.0
684,169.77048759583334,170.23600449583333,60.0,95.0
685,170.02910809583332,170.24678035,57.0,86.0
686,168.47738509583334,170.28341825416666,48.0,75.0
687,170.80496959583334,171.14764175833335,55.0,90.0
688,170.54634909583334,171.39333123333333,50.0,49.0
689,171.06359009583335,171.4622967,62.0,127.0
690,171.32221059583333,171.84591710833334,59.0,88.0
691,170.28772859583333,171.89764120833334,43.0,92.0
692,171.83945159583334,172.22738234583335,62.0,102.0
693,171.58083109583333,172.3416064,50.0,69.0
694,172.35669259583332,174.3006566875,43.0,92.0
695,172.35669259583332,174.3006566875,55.0,100.0
696,172.09807209583334,174.33082907916668,59.0,95.0
697,172.35669259583332,174.36746698333334,62.0,67.0
698,174.42565659583335,175.095914725,67.0,102.0
699,174.42565659583335,175.10669057916667,64.0,117.0
700,175.20151809583334,175.5161730375,60.0,96.0
701,174.94289759583333,175.55927645416668,55.0,92.0
702,175.71875909583335,175.83082797916666,55.0,93.0
703,174.42565659583335,175.85022451666666,48.0,88.0
704,175.46013859583334,175.9946209625,64.0,122.0
705,175.46013859583334,176.07651745416666,67.0,127.0
706,175.97737959583333,176.28341385416667,60.0,112.0
707,176.23600009583333,176.3825517125,64.0,92.0
708,176.49462059583334,177.12824082083333,59.0,102.0
709,176.49462059583334,177.14117184583333,67.0,96.0
710,176.49462059583334,177.14332701666666,64.0,97.0
711,177.01186159583332,177.56358532916667,52.0,81.0
712,177.27048209583333,177.87177475833334,67.0,95.0
713,177.27048209583333,177.88039544166668,64.0,100.0
714,177.27048209583333,177.9084126625,59.0,99.0
715,176.49462059583334,178.02048154583335,40.0,93.0
716,177.78772309583334,178.06574013333335,52.0,69.0
717,176.75324109583335,178.08082632916668,47.0,62.0
718,178.04634359583335,178.34375717083333,64.0,100.0
719,178.04634359583335,178.36746405,67.0,112.0
720,178.30496409583333,178.43642951666666,59.0,83.0
721,178.56358459583333,179.17565311250002,64.0,99.0
722,178.56358459583333,179.19289447916668,60.0,99.0
723,178.56358459583333,179.20151516250002,57.0,107.0
724,178.56358459583333,179.20798067500002,45.0,86.0
725,179.08082559583335,179.21013584583335,52.0,69.0
726,179.33944609583332,179.9256525625,60.0,112.0
727,179.33944609583332,179.92996290416667,64.0,112.0
728,180.11530759583334,180.43642805,60.0,102.0
729,180.37392809583335,180.44073839166666,57.0,39.0
730,180.11530759583334,180.4428935625,64.0,107.0
731,180.63254859583333,180.75108299166666,59.0,100.0
732,180.63254859583333,180.77478987083333,62.0,102.0
733,181.14978959583334,181.5937547875,55.0,72.0
734,181.40841009583335,181.9558234875,59.0,90.0
735,181.40841009583335,181.98384070833333,62.0,107.0
736,181.40841009583335,181.9946165625,67.0,96.0
737,181.92565109583333,182.05711651666667,55.0,73.0
738,180.89116909583333,182.17996125416667,50.0,58.0
739,180.63254859583333,182.182116425,43.0,78.0
740,182.18427159583334,182.29634047916667,62.0,102.0
741,182.18427159583334,182.3243577,67.0,117.0
742,182.70151259583335,183.12608125,57.0,96.0
743,182.70151259583335,183.12608125,60.0,96.0
744,183.21875359583333,183.77263250000001,53.0,92.0
745,183.47737409583334,184.05280470833333,57.0,102.0
746,183.47737409583334,184.07435641666666,60.0,112.0
747,183.47737409583334,184.07866675833333,65.0,112.0
748,183.99461509583332,184.16056325,53.0,78.0
749,182.70151259583335,184.28125281666667,41.0,85.0
750,182.96013309583333,184.302804525,48.0,92.0
751,184.25323559583333,184.57435605,60.0,99.0
752,184.25323559583333,184.58297673333334,65.0,100.0
753,184.51185609583334,184.59806292916667,57.0,85.0
754,184.77047659583334,185.15840734583333,55.0,100.0
755,184.77047659583334,185.24676935,59.0,95.0
756,185.28771759583333,185.8351309875,52.0,90.0
757,185.54633809583333,186.0484929,55.0,100.0
758,185.54633809583333,186.07435495000001,59.0,112.0
759,185.54633809583333,186.08297563333335,64.0,99.0
760,186.06357909583335,186.23383759166666,52.0,83.0
761,185.02909709583335,186.35021681666666,47.0,54.0
762,184.77047659583334,186.39978574583333,40.0,86.0
763,186.32219959583333,186.86530264583334,59.0,107.0
764,186.32219959583333,186.89978537916667,64.0,100.0
765,187.35668159583332,187.88038810833334,50.0,86.0
766,187.61530209583333,187.97306045416667,57.0,99.0
767,187.61530209583333,188.12823275416667,62.0,102.0
768,187.61530209583333,188.13254309583334,65.0,100.0
769,187.09806109583334,188.34159466666668,45.0,66.0
770,186.83944059583334,188.36099120416668,38.0,89.0
771,188.39116359583335,188.725215075,62.0,112.0
772,188.39116359583335,188.7446116125,65.0,102.0
773,188.13254309583334,188.8415943,50.0,90.0
774,188.64978409583333,188.91055976666667,57.0,89.0
775,188.90840459583333,188.957973525,64.0,89.0
776,188.90840459583333,189.01185279583333,59.0,107.0
777,188.90840459583333,189.035559675,62.0,99.0
778,189.42564559583334,189.966593475,55.0,82.0
779,189.68426609583332,190.26400705,62.0,102.0
780,189.68426609583332,190.27909324583334,67.0,112.0
781,189.68426609583332,190.28124841666667,71.0,107.0
782,190.20150709583334,190.36314490833334,55.0,97.0
783,189.16702509583334,190.42348969166667,50.0,95.0
784,188.90840459583333,190.4644379375,43.0,95.0
785,190.46012759583334,190.5678861375,67.0,102.0
786,190.46012759583334,190.587282675,71.0,112.0
787,190.97736859583333,191.56573023333334,55.0,97.0
788,190.97736859583333,191.56788540416667,64.0,95.0
789,190.97736859583333,191.5765060875,60.0,99.0
790,191.49460959583334,192.09590225833333,48.0,95.0
791,192.01185059583332,192.320040025,55.0,37.0
792,191.75323009583335,192.36745378333333,64.0,107.0
793,191.75323009583335,192.36960895416667,60.0,117.0
794,190.97736859583333,192.57650535416667,36.0,92.0
795,191.23598909583333,192.65193633333334,43.0,86.0
796,192.27047109583333,192.837281025,48.0,72.0
797,192.52909159583334,192.85883273333334,60.0,112.0
798,192.52909159583334,192.86529824583334,64.0,100.0
799,192.78771209583334,192.92564302916668,55.0,62.0
800,193.04633259583335,193.64762525833333,55.0,102.0
801,193.04633259583335,193.6584011125,59.0,99.0
802,193.04633259583335,193.6584011125,62.0,97.0
803,193.56357359583333,194.13253869583335,50.0,82.0
804,193.82219409583334,194.41271090416666,55.0,96.0
805,193.82219409583334,194.41702124583333,62.0,97.0
806,193.82219409583334,194.41917641666666,59.0,100.0
807,193.04633259583335,194.63253832916666,43.0,85.0
808,194.33943509583332,194.7058141375,50.0,76.0
809,194.59805559583333,194.7834002875,59.0,112.0
810,194.59805559583333,194.79202097083333,62.0,102.0
811,195.11529659583334,195.25969304166668,57.0,99.0
812,195.11529659583334,195.25969304166668,60.0,97.0
813,195.11529659583334,195.28339992083335,64.0,93.0
814,195.63253759583333,195.87391672916667,57.0,89.0
815,195.37391709583335,196.27477850416668,52.0,72.0
816,195.89115809583333,196.45365768333335,69.0,97.0
817,195.89115809583333,196.46227836666668,64.0,97.0
818,195.89115809583333,196.4644335375,72.0,95.0
819,196.40839909583335,196.56141622500002,52.0,56.0
820,195.11529659583334,196.60451964166668,45.0,92.0
821,196.66701959583332,196.78555399166666,69.0,112.0
822,196.66701959583332,196.820036725,72.0,117.0
823,197.18426059583334,197.71443262083335,64.0,89.0
824,197.18426059583334,197.75322569583335,67.0,96.0
825,197.18426059583334,197.75969120833335,71.0,102.0
826,197.70150159583335,198.20796674166667,52.0,97.0
827,197.96012209583333,198.49675963333334,71.0,117.0
828,197.96012209583333,198.53770787916667,67.0,117.0
829,198.21874259583333,198.5592595875,64.0,86.0
830,198.47736309583334,198.67348364166668,52.0,97.0
831,197.18426059583334,198.74891462083335,40.0,95.0
832,198.73598359583335,199.0829661,67.0,122.0
833,198.73598359583335,199.0829661,71.0,122.0
834,197.44288109583334,199.17563844583333,47.0,79.0
835,198.99460409583332,199.24244874166666,64.0,92.0
836,199.25322459583333,199.29848318333333,71.0,90.0
837,199.25322459583333,199.8588276,69.0,99.0
838,199.25322459583333,199.88037930833335,65.0,102.0
839,199.77046559583334,200.25753420416666,53.0,89.0
840,200.02908609583335,200.414861675,65.0,127.0
841,200.02908609583335,200.43641338333333,69.0,122.0
842,200.54632709583333,200.72089593333334,53.0,102.0
843,199.51184509583334,200.87606823333334,48.0,67.0
844,200.28770659583333,200.88468891666668,60.0,97.0
845,199.25322459583333,200.8868440875,41.0,86.0
846,200.80494759583334,201.16055078333335,69.0,127.0
847,201.06356809583335,201.3135679125,60.0,102.0
848,201.32218859583332,201.9213260875,64.0,102.0
849,201.32218859583332,201.92348125833334,67.0,122.0
850,201.83942959583334,202.41054986666666,52.0,88.0
851,202.09805009583334,202.69287724583333,67.0,107.0
852,202.09805009583334,202.69503241666666,64.0,112.0
853,202.35667059583335,202.75968754166666,59.0,74.0
854,202.61529109583333,202.78339442083333,52.0,89.0
855,201.58080909583333,202.8523598875,47.0,67.0
856,201.32218859583332,202.86098057083333,40.0,88.0
857,202.87391159583333,202.99029082083334,64.0,100.0
858,202.87391159583333,203.01184252916667,67.0,99.0
859,203.39115259583335,203.983824575,62.0,97.0
860,203.39115259583335,203.98813491666667,57.0,97.0
861,203.39115259583335,203.98813491666667,65.0,89.0
862,203.90839359583333,204.46658284166668,50.0,89.0
863,204.16701409583334,204.76830675833332,65.0,100.0
864,204.16701409583334,204.77692744166666,62.0,100.0
865,203.39115259583335,204.83296188333333,38.0,74.0
866,203.64977309583332,204.87391012916666,45.0,61.0
867,204.68425509583335,205.04847896666666,50.0,85.0
868,204.94287559583333,205.06572033333333,62.0,107.0
869,204.94287559583333,205.07218584583333,65.0,100.0
870,205.46011659583334,205.56356479583334,59.0,97.0
871,205.46011659583334,205.587271675,62.0,99.0
872,205.97735759583333,206.41916761666667,55.0,93.0
873,205.71873709583335,206.62390884583334,50.0,73.0
874,206.75321909583334,206.91701207916668,50.0,86.0
875,205.46011659583334,206.93425344583335,43.0,85.0
876,206.23597809583333,207.05063267083332,67.0,112.0
877,206.23597809583333,207.0678740375,71.0,117.0
878,207.01183959583335,207.31787385416666,62.0,99.0
879,208.04632159583335,208.58511430416667,48.0,86.0
880,208.30494209583333,208.84373480416667,64.0,96.0
881,208.82218309583334,209.12821735416668,48.0,74.0
882,208.30494209583333,209.12821735416668,67.0,99.0
883,207.52908059583334,209.39330336666666,36.0,88.0
884,207.78770109583334,209.64545835416666,43.0,56.0
885,209.08080359583334,209.699337625,62.0,112.0
886,209.59804459583333,210.5333887375,60.0,85.0
887,209.59804459583333,210.55063010416666,67.0,77.0
888,209.33942409583335,210.5721818125,64.0,67.0
889,210.89114709583333,210.966578075,48.0,89.0
890,209.59804459583333,211.01614700416667,36.0,86.0
891,210.63252659583333,211.19502618333334,67.0,122.0
892,210.63252659583333,211.20364686666667,64.0,117.0
893,211.14976759583334,211.66700859583335,62.0,112.0
894,212.18424959583334,212.77692157500002,48.0,72.0
895,211.92562909583333,213.03769724583333,43.0,34.0
896,211.66700859583335,213.08511100416666,36.0,72.0
897,212.44287009583334,213.8049380625,64.0,122.0
898,214.25321359583333,214.92131655416668,52.0,82.0
899,213.73597259583335,215.3049369625,40.0,77.0
900,213.99459309583332,215.3178679875,47.0,36.0
901,215.02907509583335,215.66485049166667,52.0,53.0
902,214.51183409583334,215.80493659583334,59.0,97.0
903,215.28769559583333,215.83941932916667,55.0,92.0
904,216.32217759583332,216.64760839166667,57.0,93.0
905,216.06355709583335,216.74459107916667,52.0,37.0
906,215.80493659583334,217.33941822916668,45.0,88.0
907,217.35665959583335,217.89329713333333,60.0,63.0
908,217.61528009583333,217.90622815833333,57.0,53.0
909,216.58079809583333,217.92131435416667,64.0,99.0
910,218.39114159583335,218.91915845,55.0,88.0
911,218.13252109583334,219.4687270125,50.0,62.0
912,219.16700309583334,219.4816580375,55.0,77.0
913,217.87390059583333,219.55062350416668,43.0,64.0
914,219.42562359583334,219.97088181666666,59.0,88.0
915,218.90838259583333,219.97088181666666,62.0,67.0
916,218.64976209583332,219.9730369875,67.0,100.0
917,220.46010559583334,221.01182932916666,53.0,83.0
918,221.23596709583333,221.39329456666667,53.0,58.0
919,220.20148509583333,221.46441520416667,48.0,61.0
920,219.94286459583333,221.4859669125,41.0,89.0
921,220.71872609583335,222.03984581666668,65.0,99.0
922,221.49458759583334,222.05277684166668,60.0,88.0
923,221.75320809583334,222.0937250875,57.0,82.0
924,222.52906959583333,223.10881055000002,52.0,71.0
925,223.30493109583333,223.46225856666666,52.0,59.0
926,222.27044909583333,223.50536198333333,47.0,48.0
927,222.01182859583335,223.53337920416666,40.0,72.0
928,223.04631059583335,224.0657064,59.0,74.0
929,223.56355159583333,224.07001674166668,55.0,71.0
930,222.78769009583334,224.0851029375,64.0,102.0
931,224.85665409583333,225.1195849375,57.0,89.0
932,224.59803359583333,225.20794694166668,50.0,89.0
933,224.33941309583335,225.43423987916668,45.0,43.0
934,224.08079259583334,225.46656744166668,38.0,92.0
935,225.37389509583335,225.55708461666669,50.0,79.0
936,225.11527459583334,225.68639486666666,65.0,112.0
937,225.63251559583333,225.7402741375,62.0,92.0
938,226.14975659583334,226.35234265416668,55.0,99.0
939,226.14975659583334,226.67561827916668,59.0,102.0
940,226.14975659583334,226.7488940875,62.0,107.0
941,226.66699759583335,226.93854912083333,55.0,122.0
942,226.92561809583333,227.09587659166667,60.0,107.0
943,226.92561809583333,227.13898000833333,57.0,99.0
944,226.40837709583334,227.34803157916667,50.0,100.0
945,227.44285909583334,227.544152125,50.0,127.0
946,226.14975659583334,227.58510037083335,43.0,97.0
947,227.18423859583334,227.60665207916668,62.0,117.0
948,227.18423859583334,227.61311759166668,59.0,117.0
949,227.70147959583335,227.97518629166666,59.0,127.0
950,227.70147959583335,227.99458282916666,62.0,122.0
951,228.21872059583333,229.09803029583333,64.0,127.0
952,228.21872059583333,229.10665097916666,60.0,122.0
953,227.96010009583333,229.13897854166666,55.0,86.0
954,228.99458209583335,229.35018528333333,48.0,96.0
955,228.21872059583333,229.5807885625,36.0,77.0
956,228.73596159583334,229.5807885625,43.0,65.0
957,229.51182309583334,229.62604715,48.0,100.0
958,229.25320259583333,229.73165052083334,64.0,127.0
959,229.25320259583333,229.74673671666667,60.0,127.0
960,229.77044359583334,230.17130537083335,55.0,107.0
961,230.28768459583333,230.38682245416666,55.0,99.0
962,230.28768459583333,230.39113279583333,59.0,100.0
963,230.28768459583333,230.4213051875,62.0,102.0
964,230.80492559583334,231.13682190416668,55.0,83.0
965,231.06354609583335,231.20794254166668,67.0,97.0
966,231.06354609583335,231.21871839583335,71.0,95.0
967,230.54630509583333,231.46009752916666,50.0,90.0
968,230.28768459583333,231.62820085416666,43.0,82.0
969,231.58078709583333,231.67130427083333,50.0,97.0
970,231.32216659583335,231.8049248625,67.0,122.0
971,231.32216659583335,231.82216622916667,71.0,112.0
972,231.83940759583334,231.91052823333334,62.0,102.0
973,232.35664859583335,232.41052786666668,60.0,97.0
974,232.35664859583335,232.42130372083335,57.0,100.0
975,232.35664859583335,232.42992440416668,64.0,93.0
976,232.87388959583333,233.156216975,57.0,92.0
977,232.61526909583333,233.38466508333335,52.0,71.0
978,233.13251009583334,233.42561332916668,72.0,127.0
979,233.13251009583334,233.45578572083335,69.0,127.0
980,233.64975109583335,234.03337150416667,52.0,37.0
981,232.35664859583335,234.05061287083333,45.0,96.0
982,233.90837159583333,234.23164722083334,71.0,127.0
983,234.16699209583334,234.38681952083334,69.0,117.0
984,234.42561259583334,234.69931929166668,67.0,122.0
985,234.42561259583334,234.72733651250002,71.0,73.0
986,235.20147409583333,235.42992220416667,71.0,127.0
987,234.94285359583333,235.53121523333334,52.0,99.0
988,235.71871509583335,235.90190461666668,52.0,93.0
989,235.46009459583334,236.01828384166666,69.0,127.0
990,234.42561259583334,236.0463010625,40.0,77.0
991,234.68423309583335,236.14759409166666,47.0,82.0
992,235.97733559583335,236.37819737083333,67.0,122.0
993,236.23595609583333,236.3954387375,47.0,24.0
994,236.49457659583334,237.16052438333332,65.0,127.0
995,237.01181759583335,237.56785167083333,53.0,86.0
996,237.78767909583334,237.92561002916668,53.0,95.0
997,236.75319709583334,237.9471617375,48.0,59.0
998,236.49457659583334,238.01397203333335,41.0,74.0
999,237.27043809583333,238.11095472083335,69.0,127.0
1000,238.04629959583335,238.15190296666668,65.0,117.0
1001,238.56354059583333,239.1497470625,67.0,122.0
1002,238.56354059583333,239.25319526250001,64.0,107.0
1003,239.33940209583335,239.6281949875,67.0,117.0
1004,239.08078159583334,239.65190186666666,52.0,99.0
1005,239.85664309583333,239.98810851666667,52.0,100.0
1006,238.82216109583334,240.02043607916667,47.0,42.0
1007,238.56354059583333,240.087246375,40.0,75.0
1008,239.59802259583333,240.1066429125,65.0,127.0
1009,240.11526359583334,240.41052200000001,64.0,127.0
1010,240.37388409583335,240.6238839125,65.0,97.0
1011,240.63250459583332,241.33724545833334,62.0,127.0
1012,241.40836609583334,241.67560727916668,65.0,96.0
1013,241.14974559583334,241.72302103750002,50.0,97.0
1014,240.63250459583332,242.14758969166667,38.0,79.0
1015,240.89112509583333,242.17345174166667,45.0,77.0
1016,241.66698659583335,242.4471584375,69.0,112.0
1017,241.92560709583333,242.52258941666668,50.0,89.0
1018,242.18422759583333,242.6281927875,65.0,112.0
1019,242.44284809583334,242.75965820833335,62.0,70.0
1020,242.70146859583335,242.84155470000002,67.0,102.0
1021,243.21870959583333,243.80276089166668,55.0,95.0
1022,243.47733009583334,243.8049160625,57.0,95.0
1023,242.96008909583333,243.86741601666668,50.0,78.0
1024,243.73595059583334,244.28551915833333,59.0,127.0
1025,242.70146859583335,244.49241555833333,43.0,85.0
1026,244.25319159583333,244.72948435,62.0,102.0
1027,243.99457109583335,244.78982913333334,50.0,107.0
1028,244.51181209583333,250.50328643333333,59.0,102.0
1029,244.77043259583334,250.51213599166667,55.0,102.0
1030,244.77043259583334,250.51434838125,43.0,77.0
1031,244.77043259583334,250.5342598875,62.0,52.0
1032,250.57187051041666,251.64266705,48.0,37.0
1033,250.07629524375,251.65476382499997,41.0,89.0
1034,251.57008639999998,252.1083928875,60.0,76.0
1035,251.0902476583333,252.12452192083333,64.0,100.0
1036,252.866944075,252.9315992,64.0,27.0
1037,252.50960259166666,253.06521979166666,52.0,66.0
1038,252.07815094999998,253.80875372916665,40.0,78.0
1039,253.5221160083333,254.04797769166666,64.0,81.0
1040,253.01780603333333,254.056598375,67.0,107.0
1041,254.03289149583333,255.85832119166665,38.0,85.0
1042,254.53935664166667,255.98332109999998,45.0,63.0
1043,255.44237322083333,256.3259932625,50.0,23.0
1044,255.67513167083334,257.03504446666665,57.0,96.0
1045,255.116942425,257.12340647083334,65.0,100.0
1046,255.116942425,257.13633749583335,62.0,99.0
1047,257.70099225416664,259.2354738875,55.0,99.0
1048,257.2053029625,259.3173703791667,50.0,72.0
1049,256.76133777083334,259.4445254583333,43.0,74.0
1050,258.297974575,259.49193921666665,59.0,75.0
1051,258.83245694166663,259.552284,67.0,59.0
1052,260.6147832208333,266.92081307916663,48.0,55.0
1053,260.6535762958333,266.92296825,43.0,47.0
1054,260.5673694625,266.94236478749997,64.0,67.0
1055,260.496248825,266.9509854708333,60.0,63.0
1056,260.47900745833334,266.95314064166666,36.0,60.0
1057,260.64926595416665,266.95529581249997,67.0,63.0
1058,260.7225417625,266.961761325,71.0,81.0
