,start,end,pitch,velocity
0,26.227083333333333,26.927083333333332,69.0,99.0
1,26.977083333333333,27.7,66.0,93.0
2,27.727083333333333,28.00208333333333,71.0,117.0
3,27.977083333333333,28.166666666666668,69.0,83.0
4,28.227083333333333,28.910416666666666,68.0,93.0
5,28.977083333333333,29.508333333333333,66.0,112.0
6,29.727083333333333,29.97083333333333,71.0,96.0
7,29.977083333333333,30.1125,69.0,74.0
8,30.227083333333333,30.802083333333332,68.0,99.0
9,30.977083333333333,31.497916666666665,69.0,96.0
10,31.477083333333333,32.2125,71.0,96.0
11,32.22708333333333,33.770833333333336,73.0,90.0
12,34.22708333333333,34.50625,66.0,112.0
13,34.47708333333333,34.91041666666666,68.0,86.0
14,34.97708333333333,35.65,69.0,88.0
15,35.72708333333333,35.9625,73.0,107.0
16,35.97708333333333,36.19166666666666,71.0,76.0
17,36.22708333333333,36.89791666666667,68.0,89.0
18,36.97708333333333,37.49166666666667,69.0,88.0
19,37.72708333333333,38.010416666666664,73.0,107.0
20,37.97708333333333,38.21041666666667,71.0,67.0
21,38.22708333333333,38.73125,68.0,90.0
22,38.72708333333333,39.06875,71.0,69.0
23,38.97708333333333,39.94583333333333,69.0,76.0
24,41.22708333333333,41.520833333333336,69.0,99.0
25,41.47708333333333,41.70625,71.0,92.0
26,41.72708333333333,41.96875,73.0,95.0
27,41.97708333333333,42.25,74.0,82.0
28,42.22708333333333,43.00208333333333,73.0,117.0
29,42.97708333333333,43.485416666666666,71.0,95.0
30,43.72708333333333,43.92916666666667,76.0,100.0
31,43.97708333333333,44.16875,74.0,88.0
32,44.22708333333333,44.61666666666667,73.0,92.0
33,44.72708333333333,44.864583333333336,71.0,86.0
34,44.97708333333333,45.40625,73.0,97.0
35,45.47708333333333,46.020833333333336,74.0,95.0
36,46.22708333333333,46.547916666666666,76.0,107.0
37,46.72708333333333,47.00416666666666,73.0,96.0
38,47.22708333333333,47.49583333333333,76.0,93.0
39,47.72708333333333,47.99791666666667,78.0,107.0
40,48.22708333333333,48.760416666666664,69.0,97.0
41,49.97708333333333,50.172916666666666,69.0,90.0
42,50.18958333333333,50.66875,68.0,112.0
43,50.72708333333333,50.97708333333333,68.0,93.0
44,50.97708333333333,51.55833333333333,69.0,96.0
45,51.72708333333333,51.96666666666667,71.0,97.0
46,52.22708333333333,52.606249999999996,73.0,122.0
47,52.72708333333333,52.84166666666667,71.0,93.0
48,52.97708333333333,53.30833333333333,69.0,96.0
49,53.72708333333333,53.916666666666664,68.0,100.0
50,53.97708333333333,54.62083333333333,71.0,100.0
51,54.72708333333333,56.30625,69.0,102.0
52,56.72708333333333,56.84583333333333,73.0,117.0
53,56.97708333333333,57.4875,74.0,99.0
54,57.72708333333333,57.90833333333333,73.0,112.0
55,57.97708333333333,58.639583333333334,76.0,112.0
56,58.72708333333333,58.858333333333334,73.0,112.0
57,58.97708333333333,59.510416666666664,74.0,102.0
58,59.72708333333333,59.90416666666667,73.0,112.0
59,59.97708333333333,60.64791666666667,76.0,112.0
60,60.72708333333333,60.854166666666664,69.0,99.0
61,60.97708333333333,61.543749999999996,71.0,122.0
62,61.72708333333333,61.93541666666667,69.0,96.0
63,61.97708333333333,62.541666666666664,73.0,127.0
64,62.72708333333333,62.83958333333333,69.0,97.0
65,62.97708333333333,63.525,71.0,122.0
66,63.72708333333333,63.87291666666667,69.0,96.0
67,63.97708333333333,64.49166666666666,73.0,117.0
68,64.97708333333333,65.15625,69.0,107.0
69,65.22708333333333,65.7,71.0,122.0
70,65.72708333333333,66.14791666666666,69.0,112.0
71,66.22708333333333,66.76458333333333,66.0,100.0
72,66.72708333333333,66.83541666666666,78.0,117.0
73,66.97708333333333,67.64166666666667,78.0,122.0
74,67.72708333333333,67.84166666666667,76.0,97.0
75,67.97708333333333,68.5,76.0,102.0
76,68.72708333333333,68.93541666666667,69.0,93.0
77,68.97708333333333,69.46666666666667,71.0,122.0
78,69.47708333333333,69.97291666666666,73.0,102.0
79,70.22708333333333,70.49583333333334,74.0,100.0
80,70.72708333333333,70.88541666666667,66.0,97.0
81,70.97708333333333,71.51041666666667,73.0,97.0
82,71.72708333333333,71.85,69.0,99.0
83,71.97708333333333,72.69583333333333,71.0,117.0
84,72.72708333333333,72.84583333333333,73.0,122.0
85,72.97708333333333,73.47083333333333,74.0,117.0
86,73.72708333333333,73.88333333333333,73.0,127.0
87,73.97708333333333,74.60208333333333,76.0,112.0
88,74.72708333333333,74.89166666666667,73.0,112.0
89,74.97708333333333,75.48541666666667,74.0,107.0
90,75.72708333333333,75.87708333333333,73.0,127.0
91,75.97708333333333,76.40625,78.0,127.0
92,76.47708333333333,77.05208333333333,76.0,117.0
93,76.97708333333333,77.15625,73.0,95.0
94,77.22708333333333,77.58333333333333,74.0,100.0
95,77.72708333333333,78.07708333333333,73.0,122.0
96,78.22708333333333,78.59375,81.0,122.0
97,78.72708333333333,78.93958333333333,81.0,107.0
98,78.97708333333333,79.16458333333333,80.0,112.0
99,79.47708333333333,79.71875,76.0,99.0
100,79.97708333333333,80.32291666666667,73.0,99.0
101,80.97708333333333,81.14583333333333,69.0,112.0
102,81.22708333333333,81.58541666666666,71.0,117.0
103,81.72708333333333,82.04166666666667,69.0,122.0
104,82.22708333333333,82.49583333333334,66.0,127.0
105,82.72708333333333,82.87083333333334,78.0,127.0
106,82.97708333333333,83.59375,78.0,102.0
107,83.72708333333333,83.84166666666667,76.0,100.0
108,83.97708333333333,84.35,76.0,117.0
109,84.72708333333333,84.90208333333334,69.0,96.0
110,84.97708333333333,85.2875,71.0,112.0
111,85.47708333333333,85.75625,73.0,102.0
112,85.97708333333333,87.22916666666667,74.0,122.0
113,87.97708333333333,88.12291666666667,69.0,99.0
114,88.22708333333333,88.4875,69.0,92.0
115,88.72708333333333,88.87708333333333,66.0,100.0
116,88.97708333333333,89.62083333333334,73.0,127.0
117,89.97708333333333,90.17916666666666,68.0,107.0
118,90.22708333333333,90.75416666666666,71.0,100.0
119,90.72708333333333,92.33125,69.0,97.0
120,105.22708333333333,105.52083333333333,69.0,99.0
121,105.47708333333333,105.70625,71.0,92.0
122,105.72708333333333,105.96875,73.0,95.0
123,105.97708333333333,106.25,74.0,82.0
124,106.22708333333333,107.00208333333333,73.0,117.0
125,106.97708333333333,107.48541666666667,71.0,95.0
126,107.72708333333333,107.92916666666666,76.0,100.0
127,107.97708333333333,108.16875,74.0,88.0
128,108.22708333333333,108.61666666666666,73.0,92.0
129,108.72708333333333,108.86458333333333,71.0,86.0
130,108.97708333333333,109.40625,73.0,97.0
131,109.47708333333333,110.02083333333333,74.0,95.0
132,110.22708333333333,110.54791666666667,76.0,107.0
133,110.72708333333333,111.00416666666666,73.0,96.0
134,111.22708333333333,111.49583333333334,76.0,93.0
135,111.72708333333333,111.99791666666667,78.0,107.0
136,112.22708333333333,112.76041666666667,69.0,97.0
137,113.97708333333333,114.17291666666667,69.0,90.0
138,114.22708333333333,114.70625,66.0,112.0
139,114.72708333333333,114.97708333333333,68.0,93.0
140,114.97708333333333,115.55833333333334,69.0,96.0
141,115.72708333333333,115.96666666666667,71.0,97.0
142,116.22708333333333,116.60625,73.0,122.0
143,116.72708333333333,116.84166666666667,71.0,93.0
144,116.97708333333333,117.30833333333334,69.0,96.0
145,117.72708333333333,117.91666666666667,68.0,100.0
146,117.97708333333333,118.62083333333334,71.0,100.0
147,118.72708333333333,120.30624999999999,69.0,102.0
148,120.72708333333333,120.84583333333333,73.0,117.0
149,120.97708333333333,121.4875,74.0,99.0
150,121.72708333333333,121.90833333333333,73.0,112.0
151,121.97708333333333,122.63958333333333,76.0,112.0
152,122.72708333333333,122.85833333333333,73.0,112.0
153,122.97708333333333,123.51041666666667,74.0,102.0
154,123.72708333333333,123.90416666666667,73.0,112.0
155,123.97708333333333,124.64791666666666,76.0,112.0
156,124.72708333333333,124.85416666666667,69.0,99.0
157,124.97708333333333,125.54375,71.0,122.0
158,125.72708333333333,125.93541666666667,69.0,96.0
159,125.97708333333333,126.54166666666667,73.0,127.0
160,126.72708333333333,126.83958333333334,69.0,97.0
161,126.97708333333333,127.52499999999999,71.0,122.0
162,127.72708333333333,127.87291666666667,69.0,96.0
163,127.97708333333333,128.49166666666667,73.0,117.0
164,128.97708333333333,129.15625,69.0,107.0
165,129.22708333333333,129.7,71.0,122.0
166,129.72708333333333,130.14791666666667,69.0,112.0
167,130.22708333333333,130.76458333333332,66.0,100.0
168,130.72708333333333,130.83541666666667,78.0,117.0
169,130.97708333333333,131.64166666666665,78.0,122.0
170,131.72708333333333,131.84166666666667,76.0,97.0
171,131.97708333333333,132.5,76.0,102.0
172,132.72708333333333,132.93541666666667,69.0,93.0
173,132.97708333333333,133.46666666666667,71.0,122.0
174,133.47708333333333,133.97291666666666,73.0,102.0
175,134.22708333333333,134.49583333333334,74.0,100.0
176,134.72708333333333,134.88541666666666,66.0,97.0
177,134.97708333333333,135.51041666666666,73.0,97.0
178,135.72708333333333,135.85,69.0,99.0
179,135.97708333333333,136.69583333333333,71.0,117.0
180,136.72708333333333,136.84583333333333,73.0,122.0
181,136.97708333333333,137.47083333333333,74.0,117.0
182,137.72708333333333,137.88333333333333,73.0,127.0
183,137.97708333333333,138.60208333333333,76.0,112.0
184,138.72708333333333,138.89166666666665,73.0,112.0
185,138.97708333333333,139.48541666666665,74.0,107.0
186,139.72708333333333,139.87708333333333,73.0,127.0
187,139.97708333333333,140.40625,78.0,127.0
188,140.47708333333333,141.05208333333334,76.0,117.0
189,140.97708333333333,141.15625,73.0,95.0
190,141.22708333333333,141.58333333333334,74.0,100.0
191,141.72708333333333,142.07708333333332,73.0,122.0
192,142.22708333333333,142.59375,81.0,122.0
193,142.72708333333333,142.93958333333333,81.0,107.0
194,142.97708333333333,143.16458333333333,80.0,112.0
195,143.47708333333333,143.71875,76.0,99.0
196,143.97708333333333,144.32291666666666,73.0,99.0
197,144.97708333333333,145.14583333333334,69.0,112.0
198,145.22708333333333,145.58541666666667,71.0,117.0
199,145.72708333333333,146.04166666666666,69.0,122.0
200,146.22708333333333,146.49583333333334,66.0,127.0
201,146.72708333333333,146.87083333333334,78.0,127.0
202,146.97708333333333,147.59375,78.0,102.0
203,147.72708333333333,147.84166666666667,76.0,100.0
204,147.97708333333333,148.35,76.0,117.0
205,148.72708333333333,148.90208333333334,69.0,96.0
206,148.97708333333333,149.2875,71.0,112.0
207,149.47708333333333,149.75625,73.0,102.0
208,149.97708333333333,151.22916666666666,74.0,122.0
209,151.97708333333333,152.12291666666667,69.0,99.0
210,152.22708333333333,152.4875,69.0,92.0
211,152.72708333333333,152.87708333333333,66.0,100.0
212,152.97708333333333,153.62083333333334,73.0,127.0
213,153.97708333333333,154.17916666666667,68.0,107.0
214,154.22708333333333,154.75416666666666,71.0,100.0
215,154.72708333333333,155.22708333333333,69.0,97.0
216,155.47708333333333,155.60208333333333,73.0,122.0
217,155.72708333333333,155.85,78.0,112.0
218,155.97708333333333,156.29166666666666,76.0,127.0
219,156.47708333333333,156.57083333333333,73.0,117.0
220,156.72708333333333,156.84791666666666,78.0,97.0
221,156.97708333333333,157.2125,76.0,102.0
222,157.47708333333333,157.575,73.0,122.0
223,157.72708333333333,157.83541666666667,78.0,122.0
224,157.97708333333333,158.33958333333334,76.0,127.0
225,159.72708333333333,159.84166666666667,74.0,117.0
226,159.97708333333333,160.07916666666665,73.0,107.0
227,160.22708333333333,160.54166666666666,74.0,127.0
228,160.72708333333333,160.89166666666665,74.0,112.0
229,160.97708333333333,161.33958333333334,71.0,117.0
230,161.47708333333333,161.91041666666666,69.0,102.0
231,161.97708333333333,162.49583333333334,73.0,127.0
232,162.47708333333333,162.71666666666667,71.0,96.0
233,162.72708333333333,163.33333333333334,69.0,97.0
234,163.72708333333333,163.85208333333333,78.0,127.0
235,163.97708333333333,164.09583333333333,80.0,100.0
236,164.22708333333333,164.59166666666667,81.0,122.0
237,164.72708333333333,164.8875,80.0,127.0
238,164.97708333333333,165.28333333333333,78.0,117.0
239,165.47708333333333,165.76875,76.0,122.0
240,165.97708333333333,168.15625,78.0,127.0
241,169.72708333333333,169.84583333333333,73.0,117.0
242,169.97708333333333,170.4875,74.0,99.0
243,170.72708333333333,170.90833333333333,73.0,112.0
244,170.97708333333333,171.63958333333332,76.0,112.0
245,171.72708333333333,171.85833333333332,73.0,112.0
246,171.97708333333333,172.51041666666666,74.0,102.0
247,172.72708333333333,172.90416666666667,73.0,112.0
248,172.97708333333333,173.64791666666667,76.0,112.0
249,173.72708333333333,173.85416666666666,69.0,99.0
250,173.97708333333333,174.54375,71.0,122.0
251,174.72708333333333,174.93541666666667,69.0,96.0
252,174.97708333333333,175.54166666666666,73.0,127.0
253,175.72708333333333,175.83958333333334,69.0,97.0
254,175.97708333333333,176.525,71.0,122.0
255,176.72708333333333,176.87291666666667,69.0,96.0
256,176.97708333333333,177.49166666666667,73.0,117.0
257,177.97708333333333,178.15625,69.0,107.0
258,178.22708333333333,178.7,71.0,122.0
259,178.72708333333333,179.14791666666667,69.0,112.0
260,179.22708333333333,179.76458333333332,66.0,100.0
261,179.72708333333333,179.83541666666667,78.0,117.0
262,179.97708333333333,180.64166666666665,78.0,122.0
263,180.72708333333333,180.84166666666667,76.0,97.0
264,180.97708333333333,181.5,76.0,102.0
265,181.72708333333333,181.93541666666667,69.0,93.0
266,181.97708333333333,182.46666666666667,71.0,122.0
267,182.47708333333333,182.97291666666666,73.0,102.0
268,183.22708333333333,183.49583333333334,74.0,100.0
269,183.72708333333333,183.88541666666666,66.0,97.0
270,183.97708333333333,184.51041666666666,73.0,97.0
271,184.72708333333333,184.85,69.0,99.0
272,184.97708333333333,185.69583333333333,71.0,117.0
273,185.72708333333333,185.84583333333333,73.0,122.0
274,185.97708333333333,186.47083333333333,74.0,117.0
275,186.72708333333333,186.88333333333333,73.0,127.0
276,186.97708333333333,187.60208333333333,76.0,112.0
277,187.72708333333333,187.89166666666665,73.0,112.0
278,187.97708333333333,188.48541666666665,74.0,107.0
279,188.72708333333333,188.87708333333333,73.0,127.0
280,188.97708333333333,189.40625,78.0,127.0
281,189.47708333333333,190.05208333333334,76.0,117.0
282,189.97708333333333,190.15625,73.0,95.0
283,190.22708333333333,190.58333333333334,74.0,100.0
284,190.72708333333333,191.07708333333332,73.0,122.0
285,191.22708333333333,191.59375,81.0,122.0
286,191.72708333333333,191.93958333333333,81.0,107.0
287,191.97708333333333,192.16458333333333,80.0,112.0
288,192.47708333333333,192.71875,76.0,99.0
289,192.97708333333333,193.32291666666666,73.0,99.0
290,193.97708333333333,194.14583333333334,69.0,112.0
291,194.22708333333333,194.58541666666667,71.0,117.0
292,194.72708333333333,195.04166666666666,69.0,122.0
293,195.22708333333333,195.49583333333334,66.0,127.0
294,195.72708333333333,195.87083333333334,78.0,127.0
295,195.97708333333333,196.59375,78.0,102.0
296,196.72708333333333,196.84166666666667,76.0,100.0
297,196.97708333333333,197.35,76.0,117.0
298,197.72708333333333,197.90208333333334,69.0,96.0
299,197.97708333333333,198.2875,71.0,112.0
300,198.47708333333333,198.75625,73.0,102.0
301,198.97708333333333,200.22916666666666,74.0,122.0
302,200.97708333333333,201.12291666666667,69.0,99.0
303,201.22708333333333,201.4875,69.0,92.0
304,201.72708333333333,201.87708333333333,66.0,100.0
305,201.97708333333333,202.62083333333334,73.0,127.0
306,202.97708333333333,203.17916666666667,68.0,107.0
307,203.22708333333333,203.75416666666666,71.0,100.0
308,203.72708333333333,204.22708333333333,69.0,97.0
309,205.975,206.10416666666666,69.0,99.0
310,206.25625,206.52291666666667,71.0,117.0
311,206.77916666666667,206.9125,69.0,97.0
312,207.08958333333334,207.74583333333334,66.0,92.0
313,207.91458333333333,208.0625,78.0,92.0
314,208.20624999999998,208.76041666666666,78.0,112.0
315,208.9125,209.0625,76.0,90.0
316,209.25625,210.00416666666666,76.0,100.0
317,210.11666666666667,210.40833333333333,69.0,74.0
318,210.4375,210.76458333333332,71.0,82.0
319,210.96458333333334,211.26458333333332,73.0,96.0
320,211.4,212.57083333333333,74.0,97.0
321,213.375,213.65208333333334,69.0,92.0
322,213.775,214.33541666666667,69.0,90.0
323,214.3125,214.68958333333333,71.0,82.0
324,214.7,216.40416666666667,73.0,95.0
325,217.14166666666665,217.8375,71.0,88.0
326,217.825,222.31458333333333,69.0,88.0
