,start,end,pitch,velocity
0,2.7270833333333333,4.51875,54.0,39.0
1,3.2270833333333333,5.083333333333333,61.0,67.0
2,3.2270833333333333,5.345833333333333,57.0,66.0
3,2.2270833333333333,5.99375,42.0,89.0
4,4.727083333333333,6.302083333333333,54.0,46.0
5,4.227083333333333,6.91875,66.0,55.0
6,5.227083333333333,7.229166666666667,61.0,107.0
7,6.727083333333333,8.564583333333333,54.0,55.0
8,7.227083333333333,9.08125,66.0,88.0
9,8.227083333333333,9.160416666666666,61.0,53.0
10,8.727083333333333,9.329166666666666,54.0,42.0
11,9.477083333333333,9.625,54.0,86.0
12,6.227083333333333,9.70625,42.0,72.0
13,5.727083333333333,9.775,57.0,65.0
14,9.227083333333333,10.204166666666666,66.0,122.0
15,9.727083333333333,10.24375,61.0,107.0
16,9.977083333333333,10.247916666666667,57.0,93.0
17,10.727083333333333,11.26875,50.0,83.0
18,10.227083333333333,11.752083333333333,38.0,73.0
19,10.977083333333333,11.777083333333334,62.0,85.0
20,10.477083333333333,12.204166666666666,45.0,43.0
21,11.227083333333333,12.2375,69.0,99.0
22,11.727083333333333,12.247916666666667,66.0,93.0
23,11.977083333333333,12.270833333333334,62.0,66.0
24,12.727083333333333,13.314583333333333,52.0,99.0
25,12.977083333333333,13.44375,64.0,79.0
26,12.227083333333333,13.585416666666667,40.0,75.0
27,12.477083333333333,13.654166666666667,47.0,63.0
28,13.477083333333333,13.706249999999999,52.0,92.0
29,13.227083333333333,14.237499999999999,71.0,107.0
30,13.727083333333333,14.28125,68.0,69.0
31,13.977083333333333,14.297916666666666,64.0,76.0
32,14.727083333333333,15.283333333333333,54.0,88.0
33,14.977083333333333,15.75625,57.0,92.0
34,14.227083333333333,16.10625,42.0,88.0
35,14.477083333333333,16.1625,49.0,64.0
36,15.477083333333333,16.29375,54.0,89.0
37,15.227083333333333,16.8125,66.0,107.0
38,15.727083333333333,16.83125,61.0,100.0
39,15.977083333333333,16.875,57.0,83.0
40,16.977083333333333,17.166666666666668,66.0,107.0
41,16.977083333333333,17.16875,61.0,100.0
42,16.727083333333333,17.30625,54.0,83.0
43,16.477083333333333,17.61875,49.0,35.0
44,17.477083333333333,17.62708333333333,54.0,85.0
45,16.227083333333333,17.735416666666666,42.0,75.0
46,17.227083333333333,17.779166666666665,61.0,97.0
47,17.727083333333333,18.222916666666666,57.0,97.0
48,17.977083333333333,18.239583333333332,61.0,112.0
49,17.227083333333333,18.241666666666667,66.0,92.0
50,18.977083333333333,19.03333333333333,62.0,40.0
51,18.727083333333333,19.30625,50.0,90.0
52,19.477083333333333,19.691666666666666,50.0,74.0
53,18.977083333333333,19.820833333333333,66.0,81.0
54,18.227083333333333,20.054166666666667,38.0,72.0
55,19.727083333333333,20.19375,62.0,86.0
56,18.977083333333333,20.22083333333333,69.0,90.0
57,19.977083333333333,20.254166666666666,66.0,97.0
58,18.477083333333333,20.28333333333333,45.0,58.0
59,20.727083333333333,21.297916666666666,52.0,90.0
60,20.227083333333333,21.602083333333333,40.0,76.0
61,20.477083333333333,21.65833333333333,47.0,69.0
62,21.477083333333333,21.747916666666665,52.0,57.0
63,21.727083333333333,22.179166666666667,71.0,102.0
64,21.977083333333333,22.2375,68.0,96.0
65,20.977083333333333,22.239583333333332,64.0,95.0
66,22.727083333333333,23.302083333333332,54.0,76.0
67,22.977083333333333,23.84583333333333,57.0,92.0
68,22.227083333333333,24.075,42.0,72.0
69,22.477083333333333,24.089583333333334,49.0,34.0
70,23.477083333333333,24.15833333333333,54.0,77.0
71,24.227083333333333,25.34583333333333,54.0,58.0
72,24.227083333333333,25.483333333333334,49.0,59.0
73,24.227083333333333,25.59583333333333,42.0,60.0
74,23.977083333333333,26.120833333333334,57.0,34.0
75,24.227083333333333,26.133333333333333,61.0,79.0
76,23.727083333333333,26.18958333333333,66.0,100.0
77,26.727083333333333,27.452083333333334,50.0,71.0
78,26.227083333333333,28.03333333333333,38.0,67.0
79,27.727083333333333,28.233333333333334,66.0,45.0
80,26.977083333333333,28.239583333333332,69.0,92.0
81,26.477083333333333,28.25208333333333,45.0,36.0
82,29.227083333333333,29.333333333333332,59.0,40.0
83,28.227083333333333,29.654166666666665,40.0,74.0
84,28.727083333333333,29.775,47.0,44.0
85,29.227083333333333,29.789583333333333,52.0,69.0
86,29.727083333333333,30.285416666666666,64.0,59.0
87,29.227083333333333,30.352083333333333,68.0,100.0
88,30.227083333333333,32.141666666666666,42.0,72.0
89,31.227083333333333,33.09791666666666,66.0,102.0
90,31.727083333333333,33.15416666666667,61.0,49.0
91,31.477083333333333,33.333333333333336,54.0,73.0
92,31.977083333333333,33.49791666666667,57.0,59.0
93,33.47708333333333,33.68958333333333,54.0,88.0
94,30.727083333333333,33.69583333333333,49.0,63.0
95,32.97708333333333,33.79375,42.0,34.0
96,33.72708333333333,34.2125,61.0,90.0
97,33.97708333333333,34.22291666666666,57.0,73.0
98,33.22708333333333,34.229166666666664,66.0,112.0
99,35.22708333333333,35.59583333333333,50.0,63.0
100,34.22708333333333,35.90208333333333,38.0,81.0
101,35.22708333333333,36.16875,69.0,82.0
102,34.72708333333333,36.22083333333333,45.0,65.0
103,35.72708333333333,36.24791666666667,62.0,65.0
104,36.72708333333333,37.3625,52.0,76.0
105,36.22708333333333,37.59791666666666,40.0,73.0
106,36.47708333333333,37.6875,47.0,42.0
107,37.47708333333333,37.72083333333333,52.0,55.0
108,37.72708333333333,38.19375,64.0,62.0
109,36.97708333333333,38.25416666666666,68.0,96.0
110,38.72708333333333,39.375,54.0,73.0
111,38.22708333333333,40.10208333333333,42.0,64.0
112,38.47708333333333,40.208333333333336,49.0,37.0
113,39.47708333333333,40.295833333333334,54.0,40.0
114,38.97708333333333,40.88125,66.0,88.0
115,39.72708333333333,41.12916666666666,61.0,71.0
116,39.97708333333333,41.18541666666667,57.0,55.0
117,40.72708333333333,41.635416666666664,49.0,52.0
118,41.47708333333333,41.64375,54.0,74.0
119,40.22708333333333,41.75,42.0,66.0
120,41.72708333333333,42.11875,61.0,117.0
121,41.22708333333333,42.139583333333334,66.0,127.0
122,41.97708333333333,42.18333333333333,57.0,92.0
123,42.72708333333333,43.297916666666666,50.0,79.0
124,43.47708333333333,43.68958333333333,50.0,66.0
125,42.22708333333333,44.104166666666664,38.0,92.0
126,42.97708333333333,44.229166666666664,69.0,99.0
127,43.97708333333333,44.24583333333333,62.0,77.0
128,43.72708333333333,44.266666666666666,66.0,99.0
129,42.47708333333333,44.26875,45.0,70.0
130,44.72708333333333,45.47291666666666,52.0,88.0
131,44.22708333333333,45.552083333333336,40.0,82.0
132,44.47708333333333,45.56875,47.0,78.0
133,44.97708333333333,46.21875,71.0,112.0
134,45.72708333333333,46.233333333333334,68.0,100.0
135,45.97708333333333,46.24166666666667,64.0,68.0
136,46.72708333333333,47.22708333333333,49.0,83.0
137,46.47708333333333,47.552083333333336,44.0,42.0
138,46.22708333333333,47.604166666666664,37.0,76.0
139,47.47708333333333,47.93541666666667,49.0,81.0
140,46.97708333333333,48.16041666666666,68.0,112.0
141,47.72708333333333,48.172916666666666,64.0,54.0
142,47.97708333333333,48.24583333333333,61.0,81.0
143,48.72708333333333,49.25625,54.0,90.0
144,48.47708333333333,49.5625,49.0,37.0
145,48.22708333333333,49.66458333333333,42.0,73.0
146,49.47708333333333,49.7875,54.0,89.0
147,49.22708333333333,50.25208333333333,61.0,107.0
148,49.72708333333333,50.25625,57.0,79.0
149,48.97708333333333,50.2875,66.0,112.0
150,50.72708333333333,51.418749999999996,54.0,90.0
151,51.47708333333333,51.71666666666667,54.0,90.0
152,50.22708333333333,51.78125,47.0,70.0
153,51.22708333333333,52.26875,66.0,122.0
154,51.72708333333333,52.34583333333333,62.0,81.0
155,52.72708333333333,53.356249999999996,47.0,49.0
156,52.22708333333333,53.75208333333333,40.0,75.0
157,53.47708333333333,53.766666666666666,47.0,75.0
158,53.72708333333333,54.13333333333333,64.0,73.0
159,53.22708333333333,54.15625,68.0,107.0
160,53.97708333333333,54.21041666666667,59.0,81.0
161,54.22708333333333,54.99583333333333,62.0,93.0
162,54.22708333333333,55.05625,50.0,85.0
163,55.22708333333333,55.65625,49.0,97.0
164,55.22708333333333,55.7125,61.0,107.0
165,55.72708333333333,56.13333333333333,47.0,93.0
166,55.72708333333333,56.19166666666666,59.0,86.0
167,56.72708333333333,57.31041666666667,52.0,90.0
168,56.97708333333333,57.32083333333333,59.0,89.0
169,56.22708333333333,57.668749999999996,40.0,93.0
170,56.47708333333333,57.74375,47.0,70.0
171,57.47708333333333,57.795833333333334,52.0,68.0
172,57.72708333333333,58.13125,59.0,88.0
173,57.22708333333333,58.16458333333333,64.0,107.0
174,57.22708333333333,58.197916666666664,68.0,117.0
175,58.72708333333333,59.32083333333333,57.0,102.0
176,58.97708333333333,59.5,64.0,99.0
177,58.22708333333333,59.63125,45.0,95.0
178,59.47708333333333,59.66041666666666,57.0,102.0
179,58.47708333333333,59.677083333333336,52.0,96.0
180,59.72708333333333,60.072916666666664,69.0,100.0
181,59.97708333333333,60.6,64.0,107.0
182,59.22708333333333,60.65625,73.0,127.0
183,60.72708333333333,61.28333333333333,68.0,127.0
184,60.47708333333333,61.33958333333333,56.0,97.0
185,60.97708333333333,61.510416666666664,73.0,95.0
186,61.47708333333333,61.65625,56.0,92.0
187,60.22708333333333,61.71875,44.0,69.0
188,61.22708333333333,61.90208333333333,76.0,90.0
189,61.97708333333333,62.19166666666666,73.0,100.0
190,61.72708333333333,62.199999999999996,68.0,97.0
191,62.97708333333333,63.27916666666667,61.0,107.0
192,62.47708333333333,63.295833333333334,54.0,92.0
193,62.72708333333333,63.4625,57.0,92.0
194,62.22708333333333,63.610416666666666,42.0,92.0
195,63.47708333333333,63.802083333333336,54.0,95.0
196,63.72708333333333,64.10625,57.0,95.0
197,63.22708333333333,64.23125,66.0,122.0
198,63.97708333333333,64.2375,61.0,127.0
199,64.72708333333333,65.32708333333333,61.0,102.0
200,64.47708333333333,65.58125,56.0,67.0
201,65.47708333333333,65.625,61.0,95.0
202,64.97708333333333,65.625,64.0,95.0
203,64.22708333333333,65.6875,49.0,81.0
204,65.22708333333333,66.15208333333334,73.0,127.0
205,65.72708333333333,66.18958333333333,68.0,127.0
206,65.97708333333333,66.275,64.0,88.0
207,66.72708333333333,67.32291666666667,50.0,86.0
208,66.97708333333333,67.49166666666666,57.0,92.0
209,66.22708333333333,67.575,38.0,72.0
210,66.47708333333333,67.6,45.0,82.0
211,67.47708333333333,67.6125,50.0,90.0
212,67.72708333333333,68.12916666666666,62.0,93.0
213,67.97708333333333,68.14791666666666,57.0,93.0
214,67.22708333333333,68.175,66.0,117.0
215,68.22708333333333,68.73958333333333,37.0,86.0
216,68.47708333333333,69.13958333333333,49.0,90.0
217,68.72708333333333,69.14583333333333,61.0,100.0
218,68.97708333333333,69.16041666666666,68.0,107.0
219,69.47708333333333,69.86041666666667,54.0,100.0
220,69.22708333333333,69.93125,42.0,83.0
221,69.72708333333333,70.22291666666666,66.0,96.0
222,69.97708333333333,70.2625,73.0,112.0
223,70.72708333333333,70.98541666666667,59.0,93.0
224,70.97708333333333,71.27708333333334,62.0,90.0
225,70.47708333333333,71.37083333333334,54.0,95.0
226,71.47708333333333,71.64791666666666,54.0,99.0
227,70.22708333333333,71.66666666666667,47.0,85.0
228,71.22708333333333,72.20208333333333,66.0,117.0
229,71.97708333333333,72.25625,59.0,95.0
230,71.72708333333333,72.26041666666667,62.0,99.0
231,72.97708333333333,73.15,71.0,73.0
232,72.97708333333333,73.15833333333333,64.0,78.0
233,72.97708333333333,73.15833333333333,68.0,76.0
234,72.72708333333333,73.275,52.0,99.0
235,73.22708333333333,73.3375,64.0,71.0
236,72.22708333333333,73.6,40.0,93.0
237,72.47708333333333,73.65833333333333,47.0,85.0
238,73.22708333333333,73.79583333333333,68.0,127.0
239,73.47708333333333,73.85416666666667,52.0,100.0
240,73.97708333333333,74.21458333333334,68.0,127.0
241,73.22708333333333,74.24791666666667,71.0,107.0
242,73.72708333333333,74.33541666666666,64.0,107.0
243,74.72708333333333,75.32083333333333,57.0,102.0
244,74.97708333333333,75.5,64.0,99.0
245,74.22708333333333,75.63125,45.0,95.0
246,75.47708333333333,75.66041666666666,57.0,102.0
247,74.47708333333333,75.67708333333333,52.0,96.0
248,75.72708333333333,76.07291666666667,69.0,100.0
249,75.97708333333333,76.6,64.0,107.0
250,75.22708333333333,76.65625,73.0,127.0
251,76.72708333333333,77.28333333333333,68.0,127.0
252,76.47708333333333,77.33958333333334,56.0,97.0
253,76.97708333333333,77.51041666666667,73.0,95.0
254,77.47708333333333,77.65625,56.0,92.0
255,76.22708333333333,77.71875,44.0,69.0
256,77.22708333333333,77.90208333333334,76.0,90.0
257,77.97708333333333,78.19166666666666,73.0,100.0
258,77.72708333333333,78.2,68.0,97.0
259,78.97708333333333,79.27916666666667,61.0,107.0
260,78.47708333333333,79.29583333333333,54.0,92.0
261,78.72708333333333,79.4625,57.0,92.0
262,78.22708333333333,79.61041666666667,42.0,92.0
263,79.47708333333333,79.80208333333333,54.0,95.0
264,79.72708333333333,80.10625,57.0,95.0
265,79.22708333333333,80.23125,66.0,122.0
266,79.97708333333333,80.2375,61.0,127.0
267,80.72708333333333,81.32708333333333,61.0,102.0
268,80.47708333333333,81.58125,56.0,67.0
269,81.47708333333333,81.625,61.0,95.0
270,80.97708333333333,81.625,64.0,95.0
271,80.22708333333333,81.6875,49.0,81.0
272,81.22708333333333,82.15208333333334,73.0,127.0
273,81.72708333333333,82.18958333333333,68.0,127.0
274,81.97708333333333,82.275,64.0,88.0
275,82.72708333333333,83.32291666666667,50.0,86.0
276,82.97708333333333,83.49166666666666,57.0,92.0
277,82.22708333333333,83.575,38.0,72.0
278,82.47708333333333,83.6,45.0,82.0
279,83.47708333333333,83.6125,50.0,90.0
280,83.72708333333333,84.12916666666666,62.0,93.0
281,83.97708333333333,84.14791666666666,57.0,93.0
282,83.22708333333333,84.175,66.0,117.0
283,84.22708333333333,84.73958333333333,37.0,86.0
284,84.47708333333333,85.13958333333333,49.0,90.0
285,84.72708333333333,85.14583333333333,61.0,100.0
286,84.97708333333333,85.16041666666666,68.0,107.0
287,85.47708333333333,85.86041666666667,54.0,100.0
288,85.22708333333333,85.93125,42.0,83.0
289,85.72708333333333,86.22291666666666,66.0,96.0
290,85.97708333333333,86.2625,73.0,112.0
291,86.72708333333333,86.98541666666667,59.0,93.0
292,86.97708333333333,87.27708333333334,62.0,90.0
293,86.47708333333333,87.37083333333334,54.0,95.0
294,87.47708333333333,87.64791666666666,54.0,99.0
295,86.22708333333333,87.66666666666667,47.0,85.0
296,87.22708333333333,88.20208333333333,66.0,117.0
297,87.97708333333333,88.25625,59.0,95.0
298,87.72708333333333,88.26041666666667,62.0,99.0
299,88.97708333333333,89.15,71.0,73.0
300,88.97708333333333,89.15833333333333,64.0,78.0
301,88.97708333333333,89.15833333333333,68.0,76.0
302,88.72708333333333,89.275,52.0,99.0
303,89.22708333333333,89.3375,64.0,71.0
304,88.22708333333333,89.6,40.0,93.0
305,88.47708333333333,89.65833333333333,47.0,85.0
306,89.22708333333333,89.79583333333333,68.0,127.0
307,89.47708333333333,89.85416666666667,52.0,100.0
308,89.97708333333333,90.21458333333334,68.0,127.0
309,89.72708333333333,90.22708333333333,64.0,107.0
310,89.22708333333333,90.22708333333333,71.0,107.0
311,90.72708333333333,91.6625,50.0,86.0
312,90.22708333333333,92.13125,38.0,66.0
313,90.47708333333333,92.21666666666667,45.0,53.0
314,90.97708333333333,92.27708333333334,66.0,97.0
315,91.72708333333333,92.34791666666666,62.0,57.0
316,92.22708333333333,93.475,40.0,64.0
317,92.72708333333333,93.55208333333333,52.0,79.0
318,92.47708333333333,93.62291666666667,47.0,58.0
319,93.72708333333333,94.23333333333333,64.0,61.0
320,92.97708333333333,94.25416666666666,68.0,100.0
321,94.22708333333333,96.12708333333333,42.0,71.0
322,94.47708333333333,96.15,49.0,27.0
323,94.72708333333333,96.36875,54.0,82.0
324,95.97708333333333,96.55833333333334,57.0,50.0
325,94.97708333333333,96.69166666666666,66.0,99.0
326,95.47708333333333,96.95,61.0,82.0
327,96.72708333333333,97.2625,54.0,90.0
328,96.47708333333333,97.63125,49.0,63.0
329,97.47708333333333,97.65833333333333,54.0,71.0
330,96.22708333333333,97.73541666666667,42.0,71.0
331,96.97708333333333,98.22291666666666,66.0,112.0
332,97.22708333333333,98.23125,61.0,112.0
333,97.72708333333333,98.37083333333334,57.0,73.0
334,98.72708333333333,99.54375,50.0,61.0
335,98.22708333333333,100.05416666666666,38.0,69.0
336,98.97708333333333,100.20625,66.0,99.0
337,98.47708333333333,100.27083333333333,45.0,44.0
338,99.97708333333333,100.3,62.0,71.0
339,100.22708333333333,101.70833333333333,40.0,72.0
340,100.47708333333333,101.75833333333333,47.0,52.0
341,100.72708333333333,101.79375,52.0,68.0
342,101.72708333333333,102.20416666666667,68.0,90.0
343,101.97708333333333,102.21458333333334,64.0,52.0
344,100.97708333333333,102.29166666666667,59.0,61.0
345,102.72708333333333,103.27083333333333,54.0,77.0
346,102.97708333333333,104.04166666666667,57.0,82.0
347,102.22708333333333,104.10833333333333,42.0,69.0
348,103.47708333333333,105.61666666666666,54.0,60.0
349,102.47708333333333,105.65625,49.0,50.0
350,104.22708333333333,105.71041666666666,42.0,83.0
351,104.22708333333333,106.20625,57.0,62.0
352,103.97708333333333,106.225,61.0,44.0
353,103.72708333333333,106.23541666666667,66.0,100.0
354,106.72708333333333,107.29791666666667,50.0,79.0
355,107.47708333333333,107.68958333333333,50.0,66.0
356,106.22708333333333,108.10416666666667,38.0,92.0
357,106.97708333333333,108.22916666666667,69.0,99.0
358,107.97708333333333,108.24583333333334,62.0,77.0
359,107.72708333333333,108.26666666666667,66.0,99.0
360,106.47708333333333,108.26875,45.0,70.0
361,108.72708333333333,109.47291666666666,52.0,88.0
362,108.22708333333333,109.55208333333333,40.0,82.0
363,108.47708333333333,109.56875,47.0,78.0
364,108.97708333333333,110.21875,71.0,112.0
365,109.72708333333333,110.23333333333333,68.0,100.0
366,109.97708333333333,110.24166666666666,64.0,68.0
367,110.72708333333333,111.22708333333333,49.0,83.0
368,110.47708333333333,111.55208333333333,44.0,42.0
369,110.22708333333333,111.60416666666667,37.0,76.0
370,111.47708333333333,111.93541666666667,49.0,81.0
371,110.97708333333333,112.16041666666666,68.0,112.0
372,111.72708333333333,112.17291666666667,64.0,54.0
373,111.97708333333333,112.24583333333334,61.0,81.0
374,112.72708333333333,113.25625,54.0,90.0
375,112.47708333333333,113.5625,49.0,37.0
376,112.22708333333333,113.66458333333333,42.0,73.0
377,113.47708333333333,113.7875,54.0,89.0
378,113.22708333333333,114.25208333333333,61.0,107.0
379,113.72708333333333,114.25625,57.0,79.0
380,112.97708333333333,114.2875,66.0,112.0
381,114.72708333333333,115.41875,54.0,90.0
382,115.47708333333333,115.71666666666667,54.0,90.0
383,114.22708333333333,115.78125,47.0,70.0
384,115.22708333333333,116.26875,66.0,122.0
385,115.72708333333333,116.34583333333333,62.0,81.0
386,116.72708333333333,117.35625,47.0,49.0
387,116.22708333333333,117.75208333333333,40.0,75.0
388,117.47708333333333,117.76666666666667,47.0,75.0
389,117.72708333333333,118.13333333333333,64.0,73.0
390,117.22708333333333,118.15625,68.0,107.0
391,117.97708333333333,118.21041666666666,59.0,81.0
392,118.22708333333333,118.99583333333334,62.0,93.0
393,118.22708333333333,119.05624999999999,50.0,85.0
394,119.22708333333333,119.65625,49.0,97.0
395,119.22708333333333,119.71249999999999,61.0,107.0
396,119.72708333333333,120.13333333333333,47.0,93.0
397,119.72708333333333,120.19166666666666,59.0,86.0
398,120.72708333333333,121.31041666666667,52.0,90.0
399,120.97708333333333,121.32083333333333,59.0,89.0
400,120.22708333333333,121.66875,40.0,93.0
401,120.47708333333333,121.74374999999999,47.0,70.0
402,121.47708333333333,121.79583333333333,52.0,68.0
403,121.72708333333333,122.13125,59.0,88.0
404,121.22708333333333,122.16458333333333,64.0,107.0
405,121.22708333333333,122.19791666666667,68.0,117.0
406,122.72708333333333,123.32083333333333,57.0,102.0
407,122.97708333333333,123.5,64.0,99.0
408,122.22708333333333,123.63125,45.0,95.0
409,123.47708333333333,123.66041666666666,57.0,102.0
410,122.47708333333333,123.67708333333333,52.0,96.0
411,123.72708333333333,124.07291666666667,69.0,100.0
412,123.97708333333333,124.6,64.0,107.0
413,123.22708333333333,124.65625,73.0,127.0
414,124.72708333333333,125.28333333333333,68.0,127.0
415,124.47708333333333,125.33958333333334,56.0,97.0
416,124.97708333333333,125.51041666666667,73.0,95.0
417,125.47708333333333,125.65625,56.0,92.0
418,124.22708333333333,125.71875,44.0,69.0
419,125.22708333333333,125.90208333333334,76.0,90.0
420,125.97708333333333,126.19166666666666,73.0,100.0
421,125.72708333333333,126.2,68.0,97.0
422,126.97708333333333,127.27916666666667,61.0,107.0
423,126.47708333333333,127.29583333333333,54.0,92.0
424,126.72708333333333,127.46249999999999,57.0,92.0
425,126.22708333333333,127.61041666666667,42.0,92.0
426,127.47708333333333,127.80208333333333,54.0,95.0
427,127.72708333333333,128.10625,57.0,95.0
428,127.22708333333333,128.23125,66.0,122.0
429,127.97708333333333,128.2375,61.0,127.0
430,128.72708333333333,129.32708333333332,61.0,102.0
431,128.47708333333333,129.58125,56.0,67.0
432,129.47708333333333,129.625,61.0,95.0
433,128.97708333333333,129.625,64.0,95.0
434,128.22708333333333,129.6875,49.0,81.0
435,129.22708333333333,130.15208333333334,73.0,127.0
436,129.72708333333333,130.18958333333333,68.0,127.0
437,129.97708333333333,130.275,64.0,88.0
438,130.72708333333333,131.32291666666666,50.0,86.0
439,130.97708333333333,131.49166666666667,57.0,92.0
440,130.22708333333333,131.575,38.0,72.0
441,130.47708333333333,131.6,45.0,82.0
442,131.47708333333333,131.6125,50.0,90.0
443,131.72708333333333,132.12916666666666,62.0,93.0
444,131.97708333333333,132.14791666666667,57.0,93.0
445,131.22708333333333,132.175,66.0,117.0
446,132.22708333333333,132.73958333333334,37.0,86.0
447,132.47708333333333,133.13958333333332,49.0,90.0
448,132.72708333333333,133.14583333333334,61.0,100.0
449,132.97708333333333,133.16041666666666,68.0,107.0
450,133.47708333333333,133.86041666666665,54.0,100.0
451,133.22708333333333,133.93125,42.0,83.0
452,133.72708333333333,134.22291666666666,66.0,96.0
453,133.97708333333333,134.2625,73.0,112.0
454,134.72708333333333,134.98541666666665,59.0,93.0
455,134.97708333333333,135.27708333333334,62.0,90.0
456,134.47708333333333,135.37083333333334,54.0,95.0
457,135.47708333333333,135.64791666666667,54.0,99.0
458,134.22708333333333,135.66666666666666,47.0,85.0
459,135.22708333333333,136.20208333333332,66.0,117.0
460,135.97708333333333,136.25625,59.0,95.0
461,135.72708333333333,136.26041666666666,62.0,99.0
462,136.97708333333333,137.15,71.0,73.0
463,136.97708333333333,137.15833333333333,64.0,78.0
464,136.97708333333333,137.15833333333333,68.0,76.0
465,136.72708333333333,137.275,52.0,99.0
466,137.22708333333333,137.3375,64.0,71.0
467,136.22708333333333,137.6,40.0,93.0
468,136.47708333333333,137.65833333333333,47.0,85.0
469,137.22708333333333,137.79583333333332,68.0,127.0
470,137.47708333333333,137.85416666666666,52.0,100.0
471,137.97708333333333,138.21458333333334,68.0,127.0
472,137.22708333333333,138.24791666666667,71.0,107.0
473,137.72708333333333,138.33541666666667,64.0,107.0
474,138.72708333333333,139.32083333333333,57.0,102.0
475,138.97708333333333,139.5,64.0,99.0
476,138.22708333333333,139.63125,45.0,95.0
477,139.47708333333333,139.66041666666666,57.0,102.0
478,138.47708333333333,139.67708333333334,52.0,96.0
479,139.72708333333333,140.07291666666666,69.0,100.0
480,139.97708333333333,140.6,64.0,107.0
481,139.22708333333333,140.65625,73.0,127.0
482,140.72708333333333,141.28333333333333,68.0,127.0
483,140.47708333333333,141.33958333333334,56.0,97.0
484,140.97708333333333,141.51041666666666,73.0,95.0
485,141.47708333333333,141.65625,56.0,92.0
486,140.22708333333333,141.71875,44.0,69.0
487,141.22708333333333,141.90208333333334,76.0,90.0
488,141.97708333333333,142.19166666666666,73.0,100.0
489,141.72708333333333,142.2,68.0,97.0
490,142.97708333333333,143.27916666666667,61.0,107.0
491,142.47708333333333,143.29583333333332,54.0,92.0
492,142.72708333333333,143.4625,57.0,92.0
493,142.22708333333333,143.61041666666665,42.0,92.0
494,143.47708333333333,143.80208333333334,54.0,95.0
495,143.72708333333333,144.10625,57.0,95.0
496,143.22708333333333,144.23125,66.0,122.0
497,143.97708333333333,144.2375,61.0,127.0
498,144.72708333333333,145.32708333333332,61.0,102.0
499,144.47708333333333,145.58125,56.0,67.0
500,145.47708333333333,145.625,61.0,95.0
501,144.97708333333333,145.625,64.0,95.0
502,144.22708333333333,145.6875,49.0,81.0
503,145.22708333333333,146.15208333333334,73.0,127.0
504,145.72708333333333,146.18958333333333,68.0,127.0
505,145.97708333333333,146.275,64.0,88.0
506,146.72708333333333,147.32291666666666,50.0,86.0
507,146.97708333333333,147.49166666666667,57.0,92.0
508,146.22708333333333,147.575,38.0,72.0
509,146.47708333333333,147.6,45.0,82.0
510,147.47708333333333,147.6125,50.0,90.0
511,147.72708333333333,148.12916666666666,62.0,93.0
512,147.97708333333333,148.14791666666667,57.0,93.0
513,147.22708333333333,148.175,66.0,117.0
514,148.22708333333333,148.73958333333334,37.0,86.0
515,148.47708333333333,149.13958333333332,49.0,90.0
516,148.72708333333333,149.14583333333334,61.0,100.0
517,148.97708333333333,149.16041666666666,68.0,107.0
518,149.47708333333333,149.86041666666665,54.0,100.0
519,149.22708333333333,149.93125,42.0,83.0
520,149.72708333333333,150.22291666666666,66.0,96.0
521,149.97708333333333,150.2625,73.0,112.0
522,150.72708333333333,150.98541666666665,59.0,93.0
523,150.97708333333333,151.27708333333334,62.0,90.0
524,150.47708333333333,151.37083333333334,54.0,95.0
525,151.47708333333333,151.64791666666667,54.0,99.0
526,150.22708333333333,151.66666666666666,47.0,85.0
527,151.22708333333333,152.20208333333332,66.0,117.0
528,151.97708333333333,152.25625,59.0,95.0
529,151.72708333333333,152.26041666666666,62.0,99.0
530,152.97708333333333,153.15,71.0,73.0
531,152.97708333333333,153.15833333333333,64.0,78.0
532,152.97708333333333,153.15833333333333,68.0,76.0
533,152.72708333333333,153.275,52.0,99.0
534,153.22708333333333,153.3375,64.0,71.0
535,152.22708333333333,153.6,40.0,93.0
536,152.47708333333333,153.65833333333333,47.0,85.0
537,153.22708333333333,153.79583333333332,68.0,127.0
538,153.47708333333333,153.85416666666666,52.0,100.0
539,153.97708333333333,154.21458333333334,68.0,127.0
540,153.72708333333333,154.22708333333333,64.0,107.0
541,153.22708333333333,154.22708333333333,71.0,107.0
542,154.72708333333333,155.32708333333332,50.0,89.0
543,154.97708333333333,155.63541666666666,57.0,60.0
544,155.47708333333333,155.63958333333332,50.0,85.0
545,154.22708333333333,156.03125,38.0,77.0
546,154.47708333333333,156.15208333333334,45.0,102.0
547,155.22708333333333,156.18958333333333,66.0,117.0
548,155.72708333333333,156.22291666666666,62.0,95.0
549,155.97708333333333,156.25208333333333,57.0,78.0
550,156.72708333333333,157.17916666666667,52.0,99.0
551,156.22708333333333,157.56041666666667,40.0,88.0
552,156.47708333333333,157.60208333333333,47.0,76.0
553,157.47708333333333,157.63125,52.0,102.0
554,156.97708333333333,157.78125,64.0,88.0
555,156.97708333333333,158.16041666666666,68.0,117.0
556,157.97708333333333,158.16666666666666,64.0,97.0
557,157.72708333333333,158.27708333333334,59.0,112.0
558,158.47708333333333,159.15416666666667,54.0,95.0
559,158.72708333333333,159.43333333333334,57.0,92.0
560,158.22708333333333,159.71041666666667,42.0,102.0
561,159.22708333333333,159.79583333333332,61.0,102.0
562,159.47708333333333,159.85416666666666,54.0,99.0
563,159.72708333333333,160.14166666666665,57.0,107.0
564,158.97708333333333,160.19583333333333,66.0,127.0
565,159.97708333333333,160.21666666666667,61.0,127.0
566,160.22708333333333,160.81041666666667,59.0,122.0
567,160.22708333333333,160.82083333333333,47.0,117.0
568,160.97708333333333,161.34375,45.0,122.0
569,160.97708333333333,161.35208333333333,57.0,127.0
570,161.47708333333333,162.11666666666667,44.0,92.0
571,161.47708333333333,162.2,56.0,127.0
572,162.72708333333333,163.24583333333334,50.0,95.0
573,162.97708333333333,163.55208333333334,57.0,88.0
574,163.47708333333333,163.7625,50.0,89.0
575,162.22708333333333,164.00833333333333,38.0,107.0
576,163.22708333333333,164.06666666666666,66.0,127.0
577,162.47708333333333,164.15833333333333,45.0,56.0
578,163.72708333333333,164.175,62.0,102.0
579,163.97708333333333,164.24583333333334,57.0,99.0
580,164.97708333333333,165.16875,59.0,88.0
581,164.72708333333333,165.31458333333333,52.0,93.0
582,165.47708333333333,165.72083333333333,52.0,100.0
583,164.47708333333333,166.13958333333332,47.0,73.0
584,165.22708333333333,166.14583333333334,68.0,127.0
585,164.22708333333333,166.15,40.0,85.0
586,165.72708333333333,166.15416666666667,64.0,117.0
587,165.97708333333333,166.19166666666666,59.0,100.0
588,166.72708333333333,166.81666666666666,55.0,93.0
589,166.22708333333333,166.82708333333332,43.0,85.0
590,166.47708333333333,166.83125,50.0,85.0
591,166.22708333333333,166.83333333333334,67.0,99.0
592,166.22708333333333,166.86041666666665,71.0,99.0
593,166.97708333333333,167.18125,66.0,127.0
594,166.97708333333333,167.20416666666665,42.0,112.0
595,167.72708333333333,171.26041666666666,40.0,61.0
596,167.72708333333333,171.27291666666667,71.0,95.0
597,167.72708333333333,171.275,68.0,117.0
598,167.72708333333333,171.28125,64.0,95.0
599,167.72708333333333,171.2875,52.0,81.0
600,167.72708333333333,171.29583333333332,47.0,55.0
601,171.72708333333333,172.12083333333334,57.0,86.0
602,171.22708333333333,172.84375,45.0,75.0
603,171.47708333333333,172.875,52.0,51.0
604,172.72708333333333,173.19791666666666,57.0,48.0
605,171.97708333333333,173.24791666666667,61.0,64.0
606,172.22708333333333,173.28541666666666,64.0,75.0
607,173.72708333333333,174.03125,61.0,42.0
608,173.47708333333333,174.24791666666667,56.0,77.0
609,174.47708333333333,174.67083333333332,56.0,50.0
610,173.22708333333333,174.70833333333334,44.0,72.0
611,173.97708333333333,174.9125,68.0,89.0
612,174.97708333333333,175.15833333333333,64.0,54.0
613,174.72708333333333,175.17083333333332,61.0,66.0
614,175.47708333333333,176.18125,54.0,78.0
615,175.72708333333333,176.22083333333333,66.0,86.0
616,175.22708333333333,176.66041666666666,42.0,77.0
617,175.97708333333333,176.725,73.0,117.0
618,176.47708333333333,176.84583333333333,54.0,69.0
619,176.22708333333333,177.14583333333334,69.0,44.0
620,176.72708333333333,177.2,66.0,64.0
621,176.97708333333333,177.21875,73.0,59.0
622,177.47708333333333,178.25,61.0,81.0
623,177.72708333333333,178.3,64.0,78.0
624,177.22708333333333,178.7375,49.0,78.0
625,178.47708333333333,178.78541666666666,61.0,77.0
626,178.22708333333333,178.80416666666667,68.0,99.0
627,177.97708333333333,179.17291666666665,73.0,127.0
628,178.72708333333333,179.17916666666667,64.0,77.0
629,178.97708333333333,179.19166666666666,68.0,97.0
630,179.72708333333333,180.28333333333333,62.0,89.0
631,179.22708333333333,180.59791666666666,50.0,70.0
632,179.47708333333333,180.61666666666667,57.0,38.0
633,180.47708333333333,180.62708333333333,62.0,78.0
634,180.22708333333333,180.83541666666667,74.0,70.0
635,179.97708333333333,181.15416666666667,78.0,107.0
636,180.97708333333333,181.16875,74.0,60.0
637,180.72708333333333,181.21666666666667,69.0,81.0
638,181.47708333333333,182.08333333333334,61.0,70.0
639,181.22708333333333,182.08958333333334,49.0,56.0
640,181.97708333333333,182.10833333333332,68.0,68.0
641,181.72708333333333,182.13125,64.0,72.0
642,182.44375,183.12291666666667,54.0,58.0
643,182.20416666666665,183.16458333333333,42.0,76.0
644,182.96666666666667,183.18333333333334,73.0,93.0
645,182.70833333333334,183.19583333333333,66.0,69.0
646,183.22708333333333,183.92083333333332,43.0,77.0
647,183.72708333333333,183.95625,67.0,74.0
648,183.97708333333333,184.96666666666667,41.0,72.0
649,184.72708333333333,184.97291666666666,65.0,58.0
650,184.97708333333333,185.5,59.0,85.0
651,184.97708333333333,185.51041666666666,64.0,92.0
652,184.97708333333333,185.51666666666665,52.0,86.0
653,184.97708333333333,185.53333333333333,68.0,88.0
654,184.97708333333333,185.66458333333333,40.0,97.0
655,186.22708333333333,186.50625,64.0,96.0
656,186.47708333333333,186.53541666666666,52.0,88.0
657,186.22708333333333,186.82916666666665,68.0,127.0
658,186.22708333333333,187.14791666666667,71.0,99.0
659,186.72708333333333,187.16458333333333,64.0,81.0
660,186.97708333333333,187.175,68.0,78.0
661,187.72708333333333,187.96041666666667,57.0,95.0
662,187.97708333333333,188.27291666666667,61.0,127.0
663,187.47708333333333,188.29375,52.0,86.0
664,187.22708333333333,188.57708333333332,45.0,89.0
665,188.47708333333333,188.57916666666665,52.0,93.0
666,188.22708333333333,189.07291666666666,64.0,97.0
667,188.72708333333333,189.11458333333334,61.0,122.0
668,188.97708333333333,189.20208333333332,57.0,99.0
669,189.47708333333333,189.75625,49.0,97.0
670,189.72708333333333,190.20833333333334,52.0,92.0
671,189.22708333333333,190.22083333333333,37.0,83.0
672,189.97708333333333,190.22708333333333,56.0,117.0
673,190.22708333333333,190.75208333333333,41.0,112.0
674,190.47708333333333,190.78125,49.0,76.0
675,190.72708333333333,191.02916666666667,53.0,69.0
676,190.97708333333333,191.23958333333334,56.0,78.0
677,191.97708333333333,192.15833333333333,61.0,117.0
678,191.72708333333333,192.20625,57.0,90.0
679,191.47708333333333,192.30833333333334,54.0,83.0
680,191.22708333333333,192.64791666666667,42.0,127.0
681,192.22708333333333,192.76666666666665,61.0,122.0
682,192.47708333333333,192.81041666666667,54.0,97.0
683,192.97708333333333,193.16875,61.0,117.0
684,192.72708333333333,193.175,57.0,96.0
685,193.22708333333333,193.41666666666666,57.0,70.0
686,193.22708333333333,193.71666666666667,61.0,82.0
687,193.22708333333333,193.80625,64.0,89.0
688,193.22708333333333,193.81458333333333,67.0,100.0
689,193.72708333333333,193.97083333333333,57.0,97.0
690,193.97708333333333,194.13958333333332,67.0,50.0
691,193.97708333333333,194.16041666666666,64.0,58.0
692,193.97708333333333,194.1875,61.0,76.0
693,193.47708333333333,194.33125,52.0,79.0
694,194.47708333333333,194.62291666666667,52.0,89.0
695,193.22708333333333,194.64375,45.0,74.0
696,194.22708333333333,194.81458333333333,61.0,82.0
697,194.22708333333333,195.01875,67.0,77.0
698,194.22708333333333,195.12083333333334,64.0,82.0
699,194.97708333333333,195.26666666666665,61.0,102.0
700,194.72708333333333,195.28333333333333,57.0,99.0
701,195.97708333333333,196.13541666666666,66.0,93.0
702,195.97708333333333,196.14791666666667,62.0,79.0
703,195.72708333333333,196.28958333333333,50.0,89.0
704,196.47708333333333,196.71041666666667,50.0,88.0
705,195.22708333333333,196.74375,38.0,69.0
706,195.47708333333333,196.80208333333334,45.0,64.0
707,196.22708333333333,196.80833333333334,62.0,96.0
708,196.72708333333333,197.09166666666667,57.0,90.0
709,196.97708333333333,197.14583333333334,62.0,89.0
710,196.22708333333333,197.16666666666666,66.0,112.0
711,197.22708333333333,197.78125,37.0,85.0
712,197.47708333333333,198.11875,49.0,99.0
713,197.97708333333333,198.19166666666666,68.0,112.0
714,197.72708333333333,198.2125,61.0,97.0
715,198.22708333333333,198.89583333333334,42.0,93.0
716,198.47708333333333,198.92708333333334,54.0,95.0
717,198.72708333333333,199.15833333333333,57.0,88.0
718,198.97708333333333,199.19375,61.0,127.0
719,199.72708333333333,200.01875,59.0,86.0
720,199.97708333333333,200.24583333333334,62.0,92.0
721,199.47708333333333,200.3625,54.0,86.0
722,200.47708333333333,200.63125,54.0,93.0
723,199.22708333333333,200.65833333333333,47.0,79.0
724,200.22708333333333,200.9375,66.0,102.0
725,200.72708333333333,201.08125,62.0,89.0
726,200.97708333333333,201.10208333333333,59.0,83.0
727,201.22708333333333,203.32916666666665,56.0,112.0
728,201.22708333333333,203.34583333333333,52.0,97.0
729,201.22708333333333,203.34583333333333,59.0,78.0
730,201.22708333333333,203.37291666666667,62.0,82.0
731,201.22708333333333,203.38333333333333,40.0,72.0
732,203.97708333333333,204.125,64.0,69.0
733,203.72708333333333,204.19791666666666,57.0,67.0
734,203.47708333333333,204.20833333333334,52.0,47.0
735,203.22708333333333,204.21666666666667,45.0,77.0
736,204.22708333333333,205.23125,66.0,69.0
737,204.22708333333333,205.23333333333332,62.0,69.0
738,204.22708333333333,205.23958333333334,57.0,69.0
739,204.22708333333333,205.25208333333333,50.0,54.0
740,205.22708333333333,207.20624999999998,64.0,63.0
741,205.22708333333333,207.22291666666666,68.0,66.0
742,205.22708333333333,207.225,61.0,59.0
743,205.22708333333333,207.22708333333333,49.0,54.0
744,207.27708333333334,208.98541666666665,38.0,69.0
745,208.2875,209.03125,50.0,38.0
746,207.74375,209.0875,45.0,54.0
747,208.27916666666667,209.3375,62.0,69.0
748,208.27708333333334,209.39166666666665,66.0,63.0
749,209.28125,210.79583333333332,37.0,56.0
750,209.76666666666665,210.93333333333334,49.0,54.0
751,210.33958333333334,211.49583333333334,64.0,63.0
752,210.33333333333334,211.49791666666667,61.0,55.0
753,210.3375,211.50416666666666,68.0,78.0
754,211.96458333333334,213.26874999999998,54.0,55.0
755,211.45416666666665,213.36458333333334,47.0,63.0
756,212.5625,213.76458333333332,66.0,83.0
757,212.56666666666666,214.16875,62.0,68.0
758,213.19166666666666,214.23333333333332,59.0,69.0
759,214.93958333333333,217.68958333333333,52.0,58.0
760,215.38958333333332,218.69583333333333,56.0,51.0
761,215.76874999999998,218.69791666666666,59.0,39.0
762,214.07708333333332,218.71041666666667,40.0,72.0
763,216.15833333333333,218.71458333333334,64.0,35.0
764,214.53958333333333,218.71875,47.0,40.0
765,218.99791666666667,219.62708333333333,50.0,82.0
766,219.75416666666666,219.97916666666666,50.0,47.0
767,218.48333333333332,220.27291666666667,38.0,71.0
768,219.26666666666665,220.56458333333333,62.0,83.0
769,218.76041666666666,220.57083333333333,45.0,36.0
770,220.03125,220.5875,57.0,68.0
771,219.26874999999998,220.59166666666667,66.0,90.0
772,221.025,221.6625,52.0,79.0
773,220.53125,222.13541666666666,40.0,85.0
774,220.79583333333332,222.18125,47.0,44.0
775,221.77291666666667,222.22291666666666,52.0,49.0
776,221.28125,222.59791666666666,64.0,86.0
777,221.28333333333333,222.62291666666667,68.0,90.0
778,222.05416666666667,222.63333333333333,59.0,93.0
779,223.07708333333332,223.47083333333333,57.0,68.0
780,222.82916666666665,223.49375,54.0,69.0
781,223.32708333333332,224.19375,61.0,77.0
782,222.54583333333332,224.47708333333333,42.0,83.0
783,223.79166666666666,224.69375,54.0,55.0
784,224.08333333333334,224.96041666666667,57.0,71.0
785,223.34791666666666,225.18125,66.0,107.0
786,224.33541666666667,225.19166666666666,61.0,57.0
787,225.10208333333333,225.46875,57.0,55.0
788,225.36875,225.5625,66.0,127.0
789,225.36458333333334,225.56666666666666,61.0,93.0
790,224.85625,225.6625,54.0,56.0
791,225.85416666666666,226.04583333333332,54.0,72.0
792,224.60625,226.13541666666666,42.0,50.0
793,225.62708333333333,226.67499999999998,61.0,93.0
794,226.15416666666667,226.69583333333333,57.0,83.0
795,225.62916666666666,226.70624999999998,66.0,88.0
796,227.40416666666667,227.56875,62.0,58.0
797,227.15208333333334,227.61875,50.0,81.0
798,227.88958333333332,228.0875,50.0,41.0
799,226.66458333333333,228.37708333333333,38.0,75.0
800,227.40833333333333,228.73958333333334,69.0,77.0
801,226.91666666666666,228.74166666666667,45.0,42.0
802,228.15625,228.82291666666666,62.0,75.0
803,227.41041666666666,228.86666666666667,66.0,95.0
804,229.47083333333333,229.92083333333332,64.0,69.0
805,228.70624999999998,230.575,40.0,72.0
806,228.96041666666667,230.5875,47.0,61.0
807,229.18541666666667,230.63333333333333,52.0,83.0
808,230.44375,232.12083333333334,64.0,78.0
809,229.81458333333333,232.16041666666666,71.0,78.0
810,229.80833333333334,232.1625,68.0,75.0
811,232.92499999999998,233.36249999999998,57.0,82.0
812,233.30208333333334,233.3875,61.0,90.0
813,233.78125,233.86458333333334,69.0,79.0
814,233.79166666666666,233.90416666666667,73.0,99.0
815,233.78541666666666,233.98125,66.0,88.0
816,234.23333333333332,234.26041666666666,66.0,42.0
817,234.21875,234.31458333333333,68.0,82.0
818,234.825,234.87708333333333,71.0,73.0
819,234.825,234.88333333333333,68.0,72.0
820,235.66666666666666,235.74375,78.0,72.0
821,235.67499999999998,235.74583333333334,73.0,52.0
822,235.67083333333332,235.75833333333333,81.0,61.0
823,232.62916666666666,240.16875,54.0,81.0
824,232.41041666666666,240.20208333333332,49.0,55.0
825,232.08541666666667,240.25208333333333,42.0,82.0
826,236.59166666666667,240.28125,81.0,34.0
827,236.7,240.28958333333333,90.0,58.0
828,236.62083333333334,240.29166666666666,85.0,40.0
829,236.53958333333333,240.30416666666667,78.0,29.0
