,start,end,pitch,velocity
0,28.757114100000003,29.089256625000004,66.0,99.0
1,29.185685100000004,29.446399125000003,71.0,99.0
2,29.614256100000002,29.874970125000004,71.0,88.0
3,30.042827100000004,30.399969600000006,71.0,102.0
4,30.471398100000005,30.671397900000002,71.0,96.0
5,30.685683600000004,30.832112025000004,74.0,95.0
6,30.899969100000003,31.317825825000003,73.0,117.0
7,31.328540100000005,32.074967925,71.0,99.0
8,32.1856821,32.52139605000001,69.0,100.0
9,32.614253100000006,34.907107950000004,71.0,107.0
10,35.61425010000001,35.787464212500005,66.0,112.0
11,36.042821100000005,36.198178087500004,71.0,97.0
12,36.4713921,36.542820600000006,71.0,90.0
13,36.685677600000005,36.782106075,71.0,85.0
14,36.89996310000001,37.116034312500005,71.0,99.0
15,37.328534100000006,37.439248275000004,71.0,100.0
16,37.5428196,37.67853375000001,74.0,89.0
17,37.757105100000004,38.176747537500006,73.0,112.0
18,38.1856761,38.846389725,71.0,107.0
19,39.042818100000005,39.296389275,69.0,96.0
20,39.25710360000001,39.43210342500001,71.0,69.0
21,39.4713891,41.255315887500004,66.0,93.0
22,42.89995710000001,43.124956875,64.0,99.0
23,43.32852810000001,43.421385150000006,64.0,92.0
24,43.5428136,43.651742062500006,64.0,83.0
25,43.757099100000005,44.110670175,64.0,89.0
26,44.1856701,44.50709835000001,66.0,117.0
27,44.61424110000001,44.985669300000005,69.0,102.0
28,45.042812100000006,45.796382775000005,69.0,97.0
29,45.89995410000001,46.09281105000001,66.0,99.0
30,46.114239600000005,46.271382300000006,69.0,81.0
31,46.32852510000001,46.957095900000006,71.0,107.0
32,47.1856671,47.50888106250001,66.0,117.0
33,47.61423810000001,47.885666400000005,64.0,93.0
34,48.04280910000001,49.239236475000006,62.0,99.0
35,49.32852210000001,49.499950500000004,71.0,86.0
36,49.5428076,49.66066462500001,74.0,96.0
37,49.757093100000006,50.199949800000006,76.0,97.0
38,50.39994960000001,50.49994950000001,76.0,96.0
39,50.61423510000001,50.83744916250001,76.0,86.0
40,51.04280610000001,51.32316296250001,78.0,117.0
41,51.471377100000005,51.821376750000006,69.0,95.0
42,51.89994810000001,52.09637647500001,69.0,107.0
43,52.114233600000006,52.29637627500001,71.0,88.0
44,52.32851910000001,52.87137570000001,66.0,93.0
45,52.757090100000006,53.25887531250001,69.0,102.0
46,53.185661100000004,55.337444662500005,71.0,127.0
47,56.185658100000005,56.51780062500001,66.0,99.0
48,56.61422910000001,56.87494312500001,71.0,99.0
49,57.04280010000001,57.30351412500001,71.0,88.0
50,57.471371100000006,57.82851360000001,71.0,102.0
51,57.899942100000004,58.099941900000005,71.0,96.0
52,58.11422760000001,58.26065602500001,74.0,95.0
53,58.32851310000001,58.74636982500001,73.0,117.0
54,58.75708410000001,59.185655100000005,71.0,99.0
55,59.185655100000005,59.48029766250001,71.0,99.0
56,59.61422610000001,59.94994005000001,69.0,100.0
57,60.04279710000001,62.335651950000006,71.0,107.0
58,63.04279410000001,63.21600821250001,66.0,112.0
59,63.25707960000001,63.414222300000006,66.0,100.0
60,63.47136510000001,63.626722087500006,71.0,97.0
61,63.899936100000005,64.1910072375,71.0,90.0
62,64.32850710000001,64.54457831250001,71.0,99.0
63,64.75707810000002,64.86779227500001,71.0,100.0
64,64.9713636,65.10707775,74.0,89.0
65,65.1856491,65.60529153750001,73.0,112.0
66,65.61422010000001,66.27493372500001,71.0,107.0
67,66.47136210000001,66.72493327500001,69.0,96.0
68,66.68564760000001,66.86064742500001,71.0,69.0
69,66.89993310000001,68.6838598875,66.0,93.0
70,70.32850110000001,70.55350087500001,64.0,99.0
71,70.75707210000002,70.84992915000001,64.0,92.0
72,70.9713576,71.08028606250001,64.0,83.0
73,71.18564310000001,71.53921417500001,64.0,89.0
74,71.61421410000001,71.93564235000001,66.0,117.0
75,72.0427851,72.7481415375,69.0,102.0
76,73.3284981,73.52135505000001,66.0,99.0
77,73.5427836,73.69992630000002,69.0,81.0
78,73.75706910000001,74.16599726250001,71.0,107.0
79,74.18564010000001,74.4945683625,66.0,97.0
80,74.6142111,74.93742506250001,66.0,117.0
81,75.04278210000001,75.31421040000001,64.0,93.0
82,75.47135310000002,76.66778047500001,62.0,99.0
83,76.7570661,76.92849450000001,71.0,86.0
84,76.9713516,77.08920862500001,74.0,96.0
85,77.18563710000001,77.62849380000002,76.0,97.0
86,77.82849360000002,77.92849350000002,76.0,96.0
87,78.0427791,78.26599316250001,76.0,86.0
88,78.47135010000001,78.75170696250001,78.0,117.0
89,78.89992110000001,79.24992075000002,69.0,95.0
90,79.3284921,79.52492047500002,69.0,107.0
91,79.54277760000001,79.72492027500002,71.0,88.0
92,79.75706310000001,80.2999197,66.0,93.0
93,80.18563410000002,80.68741931250001,69.0,102.0
94,80.6142051,82.7659886625,71.0,127.0
95,83.61420210000001,83.90527323750001,71.0,99.0
96,84.0427731,84.31955853750001,78.0,117.0
97,84.47134410000001,85.06777207500001,78.0,127.0
98,85.3284861,85.60705725000001,76.0,122.0
99,85.75705710000001,86.65705620000001,74.0,112.0
100,87.04277010000001,87.18919852500001,71.0,93.0
101,87.25705560000002,87.4302697125,74.0,96.0
102,87.47134110000002,87.76419795000001,76.0,95.0
103,87.89991210000001,88.20348322500001,76.0,102.0
104,88.32848310000001,88.66776847500002,76.0,96.0
105,88.7570541,88.98026816250001,74.0,117.0
106,88.97133960000001,89.16062512500001,76.0,76.0
107,89.18562510000001,90.217766925,71.0,86.0
108,90.47133810000001,90.8481234375,71.0,93.0
109,90.89990910000002,91.40705145000001,73.0,117.0
110,91.54276560000001,91.65526548750002,73.0,122.0
111,91.75705110000001,92.04633652500002,73.0,102.0
112,92.18562210000002,92.48383608750001,71.0,97.0
113,92.61419310000001,93.01240698750001,69.0,96.0
114,93.04276410000001,93.21776392500001,69.0,102.0
115,93.25704960000002,93.37312091250001,71.0,93.0
116,93.47133510000002,93.81419190000001,71.0,96.0
117,93.89990610000001,94.19990580000001,69.0,95.0
118,94.32847710000001,95.99633257500001,66.0,112.0
119,97.75704510000001,97.98383058750001,64.0,95.0
120,98.18561610000002,98.84811543750001,64.0,99.0
121,99.04275810000001,99.3659720625,62.0,99.0
122,99.47132910000002,100.22311406250002,64.0,107.0
123,101.18561310000001,101.39811288750002,69.0,99.0
124,101.61418410000002,102.28561200000001,66.0,102.0
125,102.47132610000001,102.81061147500002,69.0,102.0
126,102.89989710000002,104.11239588750001,71.0,107.0
127,104.18561010000002,104.49810978750001,71.0,99.0
128,104.61418110000001,104.90168081250002,76.0,117.0
129,105.04275210000002,105.14989485000001,76.0,99.0
130,105.25703760000002,105.34453751250001,76.0,100.0
131,105.47132310000002,105.69096573750001,76.0,102.0
132,105.89989410000001,106.15167956250001,78.0,112.0
133,106.32846510000002,106.68203617500001,69.0,100.0
134,106.75703610000001,106.89096453750001,69.0,127.0
135,106.97132160000001,107.08203577500001,71.0,97.0
136,107.18560710000001,107.50167821250001,66.0,107.0
137,107.61417810000002,107.87846355000002,69.0,100.0
138,108.04274910000001,110.04453281250001,71.0,107.0
139,111.04274610000002,111.33381723750001,71.0,99.0
140,111.47131710000002,111.74810253750002,78.0,117.0
141,111.89988810000001,112.49631607500001,78.0,127.0
142,112.75703010000001,113.03560125000001,76.0,122.0
143,113.18560110000001,114.08560020000002,74.0,112.0
144,114.47131410000001,114.61774252500001,71.0,93.0
145,114.68559960000002,114.85881371250001,74.0,96.0
146,114.89988510000002,115.19274195000001,76.0,95.0
147,115.32845610000001,115.63202722500002,76.0,102.0
148,115.75702710000002,116.09631247500002,76.0,96.0
149,116.18559810000002,116.40881216250001,74.0,117.0
150,116.39988360000001,116.58916912500001,76.0,76.0
151,116.61416910000001,117.64631092500001,71.0,86.0
152,117.89988210000001,118.27666743750001,71.0,93.0
153,118.32845310000002,118.61416710000002,73.0,117.0
154,118.75702410000001,119.04273810000002,73.0,122.0
155,119.18559510000001,119.47488052500002,73.0,102.0
156,119.61416610000002,119.91238008750001,71.0,97.0
157,120.04273710000001,120.44095098750002,69.0,96.0
158,120.47130810000002,120.64630792500002,69.0,102.0
159,120.68559360000002,120.80166491250002,71.0,93.0
160,120.89987910000002,121.24273590000001,71.0,96.0
161,121.32845010000001,121.62844980000001,69.0,95.0
162,121.75702110000002,123.42487657500001,66.0,112.0
163,125.18558910000002,125.41237458750001,64.0,95.0
164,125.61416010000002,126.27665943750002,64.0,99.0
165,126.47130210000002,126.79451606250002,62.0,99.0
166,126.89987310000002,127.65165806250002,64.0,107.0
167,128.61415710000003,128.8266568875,69.0,99.0
168,129.0427281,129.71415600000003,66.0,102.0
169,129.89987010000002,130.23915547500002,69.0,102.0
170,130.32844110000002,131.87843955000002,71.0,107.0
171,132.0427251,132.61058167500002,76.0,117.0
172,132.6855816,132.77308151250003,76.0,100.0
173,132.89986710000002,133.1195097375,76.0,102.0
174,133.32843810000003,133.5802235625,78.0,112.0
175,133.7570091,134.11058017500002,69.0,100.0
176,134.1855801,134.3195085375,69.0,127.0
177,134.39986560000003,134.51057977500002,71.0,97.0
178,134.61415110000002,134.9302222125,66.0,107.0
179,135.04272210000002,135.30700755,69.0,100.0
180,135.47129310000003,137.4730768125,71.0,107.0
181,165.89983410000002,166.23197662500002,66.0,99.0
182,166.32840510000003,166.58911912500002,71.0,99.0
183,166.75697610000003,167.01769012500003,71.0,88.0
184,167.1855471,167.54268960000002,71.0,102.0
185,167.6141181,167.8141179,71.0,96.0
186,167.82840360000003,167.974832025,74.0,95.0
187,168.04268910000002,168.46054582500003,73.0,117.0
188,168.47126010000002,168.89983110000003,71.0,99.0
189,168.89983110000003,169.19447366250003,71.0,99.0
190,169.32840210000003,169.66411605000002,69.0,100.0
191,169.7569731,172.04982795000004,71.0,107.0
192,172.75697010000002,172.93018421250002,66.0,112.0
193,172.97125560000003,173.12839830000001,66.0,100.0
194,173.18554110000002,173.34089808750002,71.0,97.0
195,173.61411210000003,173.9051832375,71.0,90.0
196,174.04268310000003,174.25875431250003,71.0,99.0
197,174.4712541,174.58196827500004,71.0,100.0
198,174.68553960000003,174.82125375,74.0,89.0
199,174.89982510000002,175.31946753750003,73.0,112.0
200,175.32839610000002,175.98910972500002,71.0,107.0
201,176.18553810000003,176.43910927500002,69.0,96.0
202,176.39982360000002,176.57482342500003,71.0,69.0
203,176.61410910000004,178.39803588750001,66.0,93.0
204,180.04267710000002,180.26767687500003,64.0,99.0
205,180.47124810000003,180.56410515000002,64.0,92.0
206,180.6855336,180.79446206250003,64.0,83.0
207,180.89981910000003,181.25339017500002,64.0,89.0
208,181.32839010000004,181.64981835000003,66.0,117.0
209,181.7569611,182.4623175375,69.0,102.0
210,183.04267410000003,183.23553105000002,66.0,99.0
211,183.25695960000002,183.41410230000002,69.0,81.0
212,183.47124510000003,183.88017326250002,71.0,107.0
213,183.89981610000004,184.20874436250003,66.0,97.0
214,184.32838710000001,184.65160106250002,66.0,117.0
215,184.75695810000002,185.02838640000002,64.0,93.0
216,185.18552910000002,186.38195647500004,62.0,99.0
217,186.4712421,186.64267050000004,71.0,86.0
218,186.68552760000003,186.80338462500004,74.0,96.0
219,186.89981310000002,187.34266980000004,76.0,97.0
220,187.5426696,187.6426695,76.0,96.0
221,187.75695510000003,187.98016916250003,76.0,86.0
222,188.18552610000003,188.46588296250002,78.0,117.0
223,188.61409710000004,188.96409675000004,69.0,95.0
224,189.04266810000001,189.23909647500003,69.0,107.0
225,189.25695360000003,189.43909627500003,71.0,88.0
226,189.47123910000002,190.0140957,66.0,93.0
227,189.89981010000002,190.40159531250004,69.0,102.0
228,190.32838110000003,192.48016466250002,71.0,127.0
229,193.32837810000004,193.61944923750002,71.0,99.0
230,193.7569491,194.03373453750004,78.0,117.0
231,194.18552010000002,194.78194807500003,78.0,127.0
232,195.04266210000003,195.32123325000003,76.0,122.0
233,195.47123310000003,196.37123220000004,74.0,112.0
234,196.75694610000002,196.90337452500003,71.0,93.0
235,196.97123160000004,197.14444571250002,74.0,96.0
236,197.18551710000003,197.47837395000002,76.0,95.0
237,197.61408810000003,197.91765922500002,76.0,102.0
238,198.04265910000004,198.38194447500004,76.0,96.0
239,198.4712301,198.69444416250002,74.0,117.0
240,198.68551560000003,198.87480112500003,76.0,76.0
241,198.89980110000002,199.93194292500002,71.0,86.0
242,200.18551410000003,200.56229943750003,71.0,93.0
243,200.61408510000004,201.12122745000002,73.0,117.0
244,201.25694160000003,201.36944148750004,73.0,122.0
245,201.47122710000002,201.76051252500002,73.0,102.0
246,201.89979810000003,202.19801208750002,71.0,97.0
247,202.32836910000003,202.72658298750002,69.0,96.0
248,202.75694010000004,202.93193992500002,69.0,102.0
249,202.97122560000003,203.08729691250002,71.0,93.0
250,203.1855111,203.52836790000003,71.0,96.0
251,203.61408210000002,203.91408180000002,69.0,95.0
252,204.04265310000002,205.71050857500003,66.0,112.0
253,207.47122110000004,207.69800658750003,64.0,95.0
254,207.8997921,208.56229143750002,64.0,99.0
255,208.75693410000002,209.08014806250003,62.0,99.0
256,209.18550510000003,209.93729006250004,64.0,107.0
257,210.89978910000002,211.11228888750003,69.0,99.0
258,211.32836010000003,211.99978800000002,66.0,102.0
259,212.18550210000004,212.52478747500004,69.0,102.0
260,212.61407310000004,213.82657188750002,71.0,107.0
261,213.89978610000003,214.21228578750004,71.0,99.0
262,214.32835710000003,214.61585681250003,76.0,117.0
263,214.75692810000004,214.86407085000002,76.0,99.0
264,214.97121360000003,215.05871351250002,76.0,100.0
265,215.18549910000002,215.40514173750003,76.0,102.0
266,215.61407010000002,215.86585556250003,78.0,112.0
267,216.04264110000003,216.39621217500002,69.0,100.0
268,216.47121210000003,216.60514053750003,69.0,127.0
269,216.68549760000002,216.79621177500002,71.0,97.0
270,216.89978310000004,217.21585421250003,66.0,107.0
271,217.32835410000004,217.59263955000003,69.0,100.0
272,217.75692510000002,219.75870881250003,71.0,107.0
273,220.75692210000003,221.04799323750004,71.0,99.0
274,221.18549310000003,221.46227853750003,78.0,117.0
275,221.61406410000004,222.21049207500002,78.0,127.0
276,222.47120610000002,222.74977725000002,76.0,122.0
277,222.89977710000002,223.79977620000003,74.0,112.0
278,224.18549010000004,224.33191852500002,71.0,93.0
279,224.39977560000003,224.57298971250003,74.0,96.0
280,224.61406110000004,224.90691795000004,76.0,95.0
281,225.04263210000002,225.34620322500004,76.0,102.0
282,225.47120310000003,225.81048847500003,76.0,96.0
283,225.89977410000003,226.12298816250004,74.0,117.0
284,226.11405960000002,226.30334512500002,76.0,76.0
285,226.32834510000004,227.36048692500003,71.0,86.0
286,227.61405810000002,227.99084343750002,71.0,93.0
287,228.04262910000003,228.32834310000004,73.0,117.0
288,228.47120010000003,228.75691410000002,73.0,122.0
289,228.89977110000004,229.18905652500004,73.0,102.0
290,229.32834210000004,229.62655608750003,71.0,97.0
291,229.75691310000002,230.15512698750004,69.0,96.0
292,230.18548410000002,230.36048392500004,69.0,102.0
293,230.39976960000004,230.51584091250004,71.0,93.0
294,230.61405510000003,230.95691190000002,71.0,96.0
295,231.04262610000004,231.34262580000004,69.0,95.0
296,231.47119710000004,233.13905257500002,66.0,112.0
297,234.89976510000002,235.12655058750002,64.0,95.0
298,235.32833610000003,235.99083543750004,64.0,99.0
299,236.18547810000004,236.50869206250002,62.0,99.0
300,236.61404910000002,237.36583406250003,64.0,107.0
301,238.32833310000004,238.54083288750004,69.0,99.0
302,238.75690410000004,239.42833200000004,66.0,102.0
303,239.61404610000002,239.95333147500003,69.0,102.0
304,240.04261710000003,241.59261555000003,71.0,107.0
305,241.75690110000002,242.32475767500003,76.0,117.0
306,242.39975760000004,242.48725751250004,76.0,100.0
307,242.61404310000003,242.83368573750002,76.0,102.0
308,243.04261410000004,243.29439956250002,78.0,112.0
309,243.47118510000004,243.82475617500003,69.0,100.0
310,243.89975610000002,244.03368453750002,69.0,127.0
311,244.11404160000004,244.22475577500003,71.0,97.0
312,244.32832710000002,244.64439821250002,66.0,107.0
313,244.75689810000003,245.02118355000005,69.0,100.0
314,245.18546910000003,247.18725281250002,71.0,107.0
315,248.18546610000004,248.48725151250002,71.0,112.0
316,248.61403710000002,248.89796538750002,76.0,122.0
317,249.04260810000002,249.15332227500002,76.0,97.0
318,249.25689360000004,249.34617922500004,76.0,93.0
319,249.47117910000003,249.74796453750002,76.0,102.0
320,249.89975010000003,250.27474972500002,78.0,117.0
321,250.33024010000003,250.79852347916668,73.0,127.0
322,250.7780011,251.26120984583335,71.0,99.0
323,251.22576210000003,251.68471712500002,66.0,102.0
324,251.89740360000002,252.23695569166668,69.0,97.0
325,252.12128410000003,256.7929238666667,71.0,112.0
