,start,end,pitch,velocity
0,2.3999976000000003,2.6374973625000004,59.0,67.0
1,1.7571411000000001,3.3517823625000003,43.0,86.0
2,2.1857121000000004,3.5124964875000004,50.0,45.0
3,2.6142831,3.5553535875000004,62.0,82.0
4,3.0428541000000005,3.5624964375000006,59.0,66.0
5,3.4714251000000003,4.69285245,43.0,71.0
6,3.8999961000000005,4.7803523625,50.0,55.0
7,4.328567100000001,5.126780587500001,71.0,89.0
8,4.328567100000001,5.133923437500001,67.0,82.0
9,4.757138100000001,5.232137625000001,62.0,63.0
10,5.828565600000001,6.194636662500001,57.0,41.0
11,5.1857091,6.210708075000001,45.0,75.0
12,5.614280100000001,6.346422225,52.0,59.0
13,6.471422100000001,6.933921637500001,61.0,53.0
14,6.042851100000001,6.9428502000000005,64.0,93.0
15,7.328564100000001,8.0857062,54.0,68.0
16,6.8999931000000005,8.153563275000002,47.0,71.0
17,8.1857061,8.644634212500002,62.0,65.0
18,7.757135100000001,8.64999135,66.0,112.0
19,8.399991600000002,8.6732056125,59.0,69.0
20,9.0428481,9.532133325000002,52.0,52.0
21,9.685704600000001,9.874990125000002,52.0,46.0
22,8.6142771,9.944632912500001,45.0,78.0
23,9.899990100000002,10.241061187500001,61.0,86.0
24,9.471419100000002,10.3089182625,64.0,85.0
25,10.114275600000001,10.324989675000001,57.0,58.0
26,10.971417600000002,11.310702975000002,59.0,59.0
27,10.328561100000002,11.849988150000001,40.0,76.0
28,10.757132100000002,11.892845250000002,47.0,47.0
29,11.614274100000001,12.042845100000001,64.0,59.0
30,11.185703100000001,12.042845100000001,67.0,93.0
31,12.685701600000002,12.887487112500002,57.0,78.0
32,12.042845100000001,13.648200637500002,42.0,85.0
33,12.4714161,13.794629062500002,54.0,76.0
34,12.899987100000002,14.433914137500002,66.0,99.0
35,12.899987100000002,14.435699850000002,61.0,89.0
36,13.328558100000002,14.503556925000002,57.0,75.0
37,13.757129100000002,14.989270725000003,42.0,67.0
38,14.614271100000002,15.132127725000002,66.0,102.0
39,14.614271100000002,15.460698825000001,61.0,97.0
40,15.042842100000001,15.471413100000001,57.0,69.0
41,16.114269600000004,16.666054762500004,52.0,70.0
42,15.471413100000001,16.9196259375,40.0,89.0
43,16.328555100000003,17.003554425,71.0,90.0
44,16.328555100000003,17.026768687500002,67.0,83.0
45,16.7571261,17.1285543,64.0,74.0
46,15.899984100000003,17.230339912500003,47.0,55.0
47,17.185697100000002,18.130339012500002,67.0,79.0
48,17.185697100000002,18.132124725,40.0,68.0
49,17.185697100000002,18.1481961375,64.0,78.0
50,17.185697100000002,18.1856961,71.0,81.0
51,18.8999811,20.008908562500004,42.0,107.0
52,19.328552100000003,20.1874798125,54.0,40.0
53,19.7571231,20.24997975,66.0,93.0
54,20.185694100000003,20.455336687500004,57.0,72.0
55,19.7571231,20.498193787500004,61.0,102.0
56,20.614265100000004,21.624978375,62.0,72.0
57,20.614265100000004,21.646406925000004,47.0,69.0
58,20.614265100000004,21.691049737500002,66.0,69.0
59,20.614265100000004,21.723192562500003,59.0,59.0
60,22.971405600000004,23.210691075000003,59.0,62.0
61,22.328549100000004,23.501762212500005,40.0,90.0
62,22.7571201,23.541047887500003,47.0,55.0
63,23.185691100000003,24.008904562500003,64.0,78.0
64,23.185691100000003,24.028547400000004,67.0,89.0
65,23.614262100000005,24.167832975000003,59.0,72.0
66,24.685689600000003,24.951760762500005,57.0,58.0
67,24.042833100000003,25.080332062500002,42.0,79.0
68,24.471404100000004,25.189260525,54.0,70.0
69,25.328546100000004,25.755331387500004,57.0,71.0
70,24.899975100000002,25.7910456375,61.0,82.0
71,24.899975100000002,25.876759837500003,66.0,95.0
72,26.6142591,28.144614712500005,62.0,90.0
73,27.042830100000003,28.224971775000004,61.0,74.0
74,27.471401100000005,28.416043012500005,59.0,70.0
75,25.757117100000002,29.103542325000003,47.0,72.0
76,28.757114100000003,29.199970800000003,61.0,63.0
77,28.328543100000005,29.219613637500004,62.0,72.0
78,26.185688100000004,29.232113625000004,54.0,61.0
79,26.828544600000004,29.330327812500006,66.0,35.0
80,29.614256100000002,30.226755487500004,54.0,66.0
81,29.185685100000004,30.619612237500004,47.0,82.0
82,30.471398100000005,30.932111925000005,62.0,89.0
83,30.042827100000004,30.941040487500004,66.0,95.0
84,30.899969100000003,31.973182312500004,40.0,76.0
85,32.1856821,32.607110250000005,64.0,55.0
86,31.757111100000003,32.63568165,67.0,93.0
87,31.328540100000005,32.7660386625,59.0,59.0
88,32.614253100000006,34.20532293750001,47.0,85.0
89,33.042824100000004,34.38567990000001,54.0,44.0
90,33.89996610000001,34.81603661250001,59.0,66.0
91,33.4713951,34.89103653750001,66.0,112.0
92,33.4713951,34.921393650000006,62.0,59.0
93,34.971393600000006,35.289250425000006,59.0,61.0
94,34.7571081,35.357107500000005,54.0,48.0
95,34.328537100000005,35.567821575,47.0,69.0
96,35.61425010000001,36.1285353,62.0,53.0
97,35.1856791,36.146392425,66.0,107.0
98,36.042821100000005,37.5571053,43.0,74.0
99,36.4713921,37.66067662500001,50.0,68.0
100,37.328534100000006,37.974962025,59.0,74.0
101,36.89996310000001,38.23567605,62.0,95.0
102,38.1856761,38.77138980000001,50.0,66.0
103,37.757105100000004,38.823175462500004,43.0,69.0
104,38.61424710000001,39.366032062500004,62.0,96.0
105,39.042818100000005,39.523174762500005,59.0,45.0
106,40.328531100000006,41.910672375000004,66.0,93.0
107,40.757102100000004,41.93210092500001,61.0,86.0
108,41.1856731,41.996386575,57.0,83.0
109,39.89996010000001,42.21245778750001,54.0,57.0
110,39.4713891,42.41960043750001,42.0,89.0
111,42.042815100000006,42.82317146250001,66.0,100.0
112,42.042815100000006,42.878528550000006,61.0,97.0
113,42.471386100000004,42.91781422500001,57.0,81.0
114,42.89995710000001,44.0981701875,40.0,70.0
115,43.32852810000001,44.149955850000005,47.0,56.0
116,43.757099100000005,44.6285268,64.0,70.0
117,43.757099100000005,44.64459821250001,67.0,69.0
118,44.1856701,44.730312412500005,59.0,42.0
119,45.042812100000006,46.00352542500001,54.0,73.0
120,44.61424110000001,46.07316821250001,42.0,99.0
121,45.471383100000004,46.219596637500004,66.0,102.0
122,45.89995410000001,46.264239450000005,61.0,75.0
123,46.32852510000001,47.14638142500001,43.0,83.0
124,46.757096100000005,47.18388138750001,55.0,85.0
125,47.1856671,47.685666600000005,45.0,66.0
126,47.61423810000001,48.128523300000005,57.0,79.0
127,48.471380100000005,48.99102243750001,54.0,56.0
128,48.04280910000001,49.107093750000004,47.0,79.0
129,48.89995110000001,49.74102168750001,66.0,90.0
130,48.89995110000001,50.04102138750001,62.0,69.0
131,50.185664100000004,50.753520675000004,47.0,76.0
132,49.757093100000006,50.760663525000005,40.0,82.0
133,50.61423510000001,51.44816283750001,67.0,90.0
134,50.61423510000001,51.453519975000006,64.0,92.0
135,51.04280610000001,51.5445913125,59.0,60.0
136,51.471377100000005,52.43923327500001,42.0,89.0
137,51.89994810000001,52.66066162500001,54.0,76.0
138,52.757090100000006,53.205303937500005,57.0,66.0
139,52.32851910000001,53.22494677500001,61.0,89.0
140,52.32851910000001,53.280303862500006,66.0,96.0
141,54.89994510000001,55.65173006250001,66.0,24.0
142,54.04280310000001,55.71065857500001,61.0,95.0
143,54.471374100000006,55.73208712500001,62.0,61.0
144,54.89994510000001,55.880301262500005,59.0,47.0
145,53.61423210000001,55.98387258750001,54.0,50.0
146,53.185661100000004,56.355300787500006,47.0,76.0
147,56.39994360000001,56.55708630000001,54.0,12.0
148,56.185658100000005,56.69994330000001,61.0,74.0
149,55.75708710000001,56.70530043750001,62.0,59.0
150,55.75708710000001,56.74458611250001,66.0,67.0
151,57.04280010000001,58.16065612500001,54.0,48.0
152,56.61422910000001,58.19101323750001,47.0,89.0
153,57.471371100000006,58.31422740000001,62.0,93.0
154,57.899942100000004,58.317798825000004,59.0,88.0
155,57.471371100000006,58.317798825000004,66.0,100.0
156,58.75708410000001,59.25172646250001,57.0,70.0
157,58.32851310000001,59.46422625000001,45.0,86.0
158,59.185655100000005,60.026725687500004,61.0,86.0
159,59.185655100000005,60.041011387500006,64.0,93.0
160,60.04279710000001,61.64100978750001,47.0,83.0
161,60.47136810000001,61.81243818750001,54.0,78.0
162,61.32851010000001,62.29636627500001,59.0,69.0
163,60.899939100000005,62.31422340000001,62.0,81.0
164,60.899939100000005,62.33922337500001,66.0,100.0
165,62.185652100000006,62.69458016250001,54.0,48.0
166,61.75708110000001,63.076722637500005,47.0,68.0
167,63.04279410000001,63.51779362500001,62.0,92.0
168,62.61422310000001,63.544579312500005,66.0,112.0
169,63.899936100000005,64.43564985,50.0,61.0
170,63.47136510000001,64.45707840000001,43.0,89.0
171,64.75707810000002,65.14814913750001,55.0,79.0
172,64.32850710000001,65.1517205625,59.0,88.0
173,64.32850710000001,65.16779197500001,62.0,93.0
174,65.1856491,66.52850490000002,40.0,76.0
175,65.61422010000001,66.63564765000001,52.0,53.0
176,66.0427911,66.8624331375,64.0,86.0
177,66.0427911,66.87850455,67.0,79.0
178,66.89993310000001,68.474931525,42.0,97.0
179,67.3285041,68.7945740625,54.0,65.0
180,68.18564610000001,69.34635922500001,61.0,100.0
181,68.6142171,69.73564455,42.0,73.0
182,69.47135910000002,70.33564395,61.0,97.0
183,67.75707510000001,70.3410010875,66.0,96.0
184,69.8999301,70.360643925,57.0,88.0
185,70.32850110000001,71.50528563750001,40.0,85.0
186,70.75707210000002,71.54457131250001,47.0,64.0
187,71.18564310000001,72.00707085,64.0,88.0
188,71.61421410000001,72.19457066250001,59.0,71.0
189,72.0427851,73.15706970000001,42.0,96.0
190,72.47135610000001,73.16599826250001,54.0,70.0
191,72.89992710000001,73.639212075,66.0,99.0
192,73.3284981,73.65528348750001,61.0,95.0
193,73.75706910000001,74.54278260000001,43.0,77.0
194,74.18564010000001,74.66599676250001,55.0,93.0
195,74.6142111,75.110639175,45.0,83.0
196,75.04278210000001,75.53385303750001,57.0,88.0
197,75.8999241,76.5017092125,54.0,53.0
198,75.47135310000002,76.6159948125,47.0,66.0
199,76.32849510000001,77.09456576250001,66.0,90.0
200,76.7570661,77.4713511,59.0,72.0
201,76.32849510000001,77.5767081375,62.0,81.0
202,77.18563710000001,78.25527888750001,40.0,73.0
203,77.61420810000001,78.2874217125,47.0,61.0
204,78.0427791,78.88563540000001,64.0,72.0
205,78.0427791,78.91242108750001,67.0,77.0
206,78.47135010000001,78.99456386250002,59.0,72.0
207,78.89992110000001,80.00170571250001,42.0,90.0
208,79.3284921,80.13741986250001,54.0,71.0
209,79.75706310000001,80.65884791250001,61.0,107.0
210,80.18563410000002,80.6945621625,57.0,89.0
211,81.47134710000002,81.86956098750001,62.0,96.0
212,80.6142051,82.18027496250001,47.0,72.0
213,81.89991810000001,82.2659891625,61.0,90.0
214,81.04277610000001,82.30348912500001,54.0,85.0
215,82.32848910000001,82.83027431250001,66.0,112.0
216,82.32848910000001,82.85348857500001,59.0,92.0
217,82.32848910000001,83.06241693750002,62.0,102.0
218,82.7570601,83.29991670000001,54.0,107.0
219,83.39991660000001,83.52313076250002,54.0,99.0
220,82.32848910000001,83.63027351250001,47.0,86.0
221,83.18563110000001,83.66063062500001,66.0,127.0
222,83.18563110000001,83.90527323750001,61.0,127.0
223,83.18563110000001,83.91420180000001,62.0,127.0
224,84.0427731,84.38205847500001,55.0,97.0
225,84.0427731,84.38562990000001,59.0,107.0
226,84.0427731,84.39634417500001,62.0,107.0
227,84.47134410000001,85.12491487500002,50.0,53.0
228,84.89991510000002,85.39277175000001,55.0,63.0
229,84.0427731,85.61955723750002,43.0,90.0
230,84.04455881250001,85.62134295000001,31.0,90.0
231,84.89991510000002,85.63562865000002,71.0,117.0
232,84.89991510000002,85.64098578750001,62.0,107.0
233,84.89991510000002,85.65527148750002,67.0,117.0
234,85.3284861,85.82848560000001,50.0,38.0
235,85.75705710000001,86.09634247500001,71.0,100.0
236,85.75705710000001,86.10884246250001,67.0,112.0
237,85.75705710000001,86.18205667500001,62.0,99.0
238,86.18562810000002,86.6695561875,50.0,54.0
239,85.75705710000001,86.999913,43.0,76.0
240,85.7588428125,87.00169871250002,31.0,76.0
241,86.61419910000001,87.0552700875,62.0,99.0
242,86.61419910000001,87.06241293750001,59.0,95.0
243,87.04277010000001,87.29991270000001,55.0,73.0
244,86.82848460000001,87.40884116250001,50.0,93.0
245,87.47134110000002,87.70884086250001,61.0,107.0
246,87.47134110000002,87.71419800000001,57.0,95.0
247,87.47134110000002,87.73026941250001,64.0,93.0
248,87.89991210000001,88.48562580000001,52.0,53.0
249,88.32848310000001,88.72491127500001,73.0,117.0
250,88.32848310000001,88.72848270000001,69.0,107.0
251,88.32848310000001,88.86241113750002,57.0,85.0
252,87.47134110000002,88.91776822500002,45.0,82.0
253,87.47312681250001,88.91955393750001,33.0,82.0
254,88.7570541,89.21955363750001,52.0,74.0
255,89.18562510000001,89.65883891250002,62.0,89.0
256,89.18562510000001,89.78919592500002,66.0,96.0
257,89.18562510000001,89.87491012500001,59.0,88.0
258,89.61419610000002,90.12848130000002,54.0,89.0
259,90.0427671,90.41240958750001,61.0,127.0
260,90.25705260000001,90.4231238625,54.0,81.0
261,89.18562510000001,90.46776667500001,47.0,89.0
262,89.1874108125,90.46955238750002,35.0,89.0
263,90.47133810000001,90.8481234375,62.0,93.0
264,90.89990910000002,91.59812268750001,57.0,99.0
265,90.89990910000002,91.60169411250001,64.0,79.0
266,90.89990910000002,91.6338369375,61.0,77.0
267,91.32848010000001,91.92847950000001,52.0,74.0
268,91.75705110000001,92.17847925000001,64.0,95.0
269,91.75705110000001,92.18205067500001,57.0,90.0
270,91.75705110000001,92.18740781250001,61.0,122.0
271,90.89990910000002,92.27669343750001,45.0,82.0
272,90.90169481250001,92.27847915000001,33.0,82.0
273,92.18562210000002,92.30169341250001,52.0,72.0
274,92.61419310000001,93.33383523750001,67.0,97.0
275,92.61419310000001,93.33740666250002,59.0,102.0
276,92.61419310000001,93.35526378750001,64.0,99.0
277,93.04276410000001,93.59990640000001,47.0,51.0
278,93.04454981250001,93.60169211250002,35.0,51.0
279,93.47133510000002,93.75347767500001,59.0,92.0
280,92.61419310000001,93.84454901250001,40.0,76.0
281,92.61597881250002,93.846334725,28.0,76.0
282,93.68562060000001,93.85704900000002,47.0,78.0
283,93.68740631250002,93.85883471250001,35.0,78.0
284,93.47133510000002,93.91954893750001,67.0,100.0
285,93.47133510000002,93.9409774875,64.0,107.0
286,93.89990610000001,94.046334525,59.0,92.0
287,94.32847710000001,94.93026221250001,66.0,107.0
288,94.32847710000001,95.09276205000002,61.0,117.0
289,94.32847710000001,95.10526203750001,57.0,96.0
290,94.7570481,95.25526188750001,54.0,88.0
291,95.18561910000001,95.42847600000002,61.0,127.0
292,95.18561910000001,95.46061882500001,66.0,122.0
293,95.18561910000001,95.66061862500001,57.0,86.0
294,94.32847710000001,95.90347552500002,42.0,112.0
295,94.33026281250001,95.90526123750001,30.0,112.0
296,95.82847560000002,95.9231183625,69.0,76.0
297,95.82847560000002,95.96061832500001,57.0,88.0
298,95.61419010000002,96.02668968750001,54.0,70.0
299,96.0427611,96.22847520000002,57.0,122.0
300,96.0427611,96.23204662500001,69.0,95.0
301,96.68561760000001,96.74811753750001,73.0,95.0
302,96.68561760000001,96.77311751250001,61.0,117.0
303,96.0427611,96.81776032500001,42.0,117.0
304,96.04454681250002,96.81954603750002,30.0,117.0
305,96.47133210000001,96.96418875000002,54.0,76.0
306,96.89990310000002,97.24454561250002,73.0,100.0
307,96.89990310000002,97.29990270000002,61.0,127.0
308,96.89990310000002,97.34097408750002,42.0,96.0
309,96.90168881250001,97.34275980000001,30.0,96.0
310,97.32847410000001,97.42133115000001,54.0,112.0
311,97.75704510000001,98.09811618750001,67.0,92.0
312,97.75704510000001,98.10883046250001,71.0,88.0
313,97.75704510000001,98.21954463750001,64.0,95.0
314,98.18561610000002,98.82311546250001,47.0,60.0
315,98.18740181250001,98.82490117500001,35.0,60.0
316,98.61418710000001,99.03382953750001,64.0,90.0
317,98.61418710000001,99.03740096250002,67.0,89.0
318,97.75704510000001,99.11240088750002,40.0,78.0
319,97.75883081250001,99.11418660000001,28.0,78.0
320,98.61418710000001,99.28382928750001,59.0,96.0
321,99.04275810000001,99.33382923750001,47.0,44.0
322,99.04454381250001,99.33561495000001,35.0,44.0
323,100.32847110000002,100.62668508750001,59.0,95.0
324,99.47132910000002,100.69097073750001,40.0,90.0
325,99.47311481250001,100.69275645000002,28.0,90.0
326,99.89990010000001,100.76239923750002,47.0,50.0
327,99.90168581250002,100.76418495000001,35.0,50.0
328,100.32847110000002,100.78561350000001,67.0,92.0
329,100.32847110000002,100.79632777500001,64.0,95.0
330,100.7570421,100.94275620000002,59.0,71.0
331,101.18561310000001,101.53561275000001,61.0,93.0
332,101.18561310000001,101.88382668750002,57.0,89.0
333,101.18561310000001,102.32668338750001,42.0,107.0
334,101.1873988125,102.3284691,30.0,107.0
335,101.61418410000002,102.49632607500001,54.0,67.0
336,102.04275510000001,102.53739746250001,66.0,102.0
337,102.47132610000001,102.72311156250001,57.0,79.0
338,102.04275510000001,102.76775437500001,61.0,112.0
339,102.89989710000002,103.42311086250001,59.0,92.0
340,102.89989710000002,103.44811083750001,66.0,97.0
341,102.89989710000002,103.46418225000001,62.0,99.0
342,103.32846810000001,103.85882471250001,54.0,83.0
343,103.75703910000001,103.99811028750001,62.0,122.0
344,102.89989710000002,104.03382453750001,47.0,69.0
345,102.90168281250001,104.03561025000002,35.0,69.0
346,103.97132460000002,104.21953863750001,61.0,107.0
347,104.61418110000001,104.91418080000001,55.0,82.0
348,104.18561010000002,104.94989505000001,59.0,90.0
349,105.47132310000002,105.80703705000002,64.0,95.0
350,105.47132310000002,105.81775132500002,67.0,95.0
351,105.47132310000002,105.91060837500001,59.0,95.0
352,104.61418110000001,105.97132260000001,40.0,90.0
353,104.61596681250002,105.97310831250002,28.0,90.0
354,105.89989410000001,106.28382228750002,52.0,61.0
355,106.32846510000002,106.88025026250001,61.0,112.0
356,106.32846510000002,106.95882161250002,66.0,96.0
357,106.32846510000002,107.02132155000001,57.0,95.0
358,106.75703610000001,107.24989275000001,54.0,67.0
359,106.32846510000002,107.48203537500001,42.0,99.0
360,106.33025081250001,107.48382108750002,30.0,99.0
361,107.18560710000001,107.57667813750001,62.0,107.0
362,107.39989260000002,107.63203522500001,54.0,69.0
363,107.61417810000002,107.97489202500002,61.0,107.0
364,108.04274910000001,108.45524868750002,59.0,82.0
365,108.04274910000001,108.50703435000001,62.0,99.0
366,108.04274910000001,108.51596291250002,66.0,99.0
367,108.47132010000001,108.96239103750001,54.0,58.0
368,108.89989110000002,109.35346207500001,61.0,127.0
369,109.32846210000001,109.64453321250001,62.0,89.0
370,108.04274910000001,109.65703320000001,47.0,75.0
371,108.04453481250002,109.65881891250001,35.0,75.0
372,109.54274760000001,109.66953318750001,61.0,107.0
373,109.11417660000001,109.78560450000002,54.0,90.0
374,109.75703310000002,110.30346112500001,61.0,117.0
375,109.75703310000002,110.33381823750001,59.0,96.0
376,109.75703310000002,110.44631812500002,66.0,117.0
377,109.75703310000002,110.46953238750001,62.0,97.0
378,110.18560410000002,110.68560360000001,54.0,82.0
379,110.82846060000001,111.16060312500001,54.0,97.0
380,109.75703310000002,111.43024571250001,47.0,92.0
381,109.75881881250001,111.43203142500002,35.0,92.0
382,111.04274610000002,111.45167426250002,61.0,127.0
383,111.47131710000002,111.49095993750001,61.0,90.0
384,110.61417510000001,111.50881706250001,66.0,122.0
385,110.61417510000001,111.52131705000001,62.0,117.0
386,111.47131710000002,111.52131705000001,62.0,107.0
387,111.47131710000002,111.81060247500001,55.0,97.0
388,111.47131710000002,111.81417390000001,59.0,107.0
389,111.89988810000001,112.55345887500002,50.0,53.0
390,112.32845910000002,112.82131575000001,55.0,63.0
391,111.47131710000002,113.04810123750002,43.0,90.0
392,111.47310281250002,113.04988695000002,31.0,90.0
393,112.32845910000002,113.06417265000002,71.0,117.0
394,112.32845910000002,113.06952978750002,62.0,107.0
395,112.32845910000002,113.08381548750002,67.0,117.0
396,112.75703010000001,113.25702960000001,50.0,38.0
397,113.18560110000001,113.52488647500002,71.0,100.0
398,113.18560110000001,113.53738646250001,67.0,112.0
399,113.18560110000001,113.61060067500001,62.0,99.0
400,114.04274310000001,114.06238593750001,61.0,86.0
401,113.61417210000002,114.09810018750001,50.0,54.0
402,113.18560110000001,114.42845700000001,43.0,76.0
403,113.18738681250001,114.43024271250002,31.0,76.0
404,114.04274310000001,114.48381408750002,62.0,99.0
405,114.04274310000001,114.49095693750002,59.0,95.0
406,114.47131410000001,114.72845670000001,55.0,73.0
407,114.25702860000001,114.83738516250001,50.0,93.0
408,114.89988510000002,115.13738486250001,61.0,107.0
409,114.89988510000002,115.14274200000001,57.0,95.0
410,114.89988510000002,115.15881341250001,64.0,93.0
411,115.32845610000001,115.91416980000001,52.0,53.0
412,115.75702710000002,116.15345527500001,73.0,117.0
413,115.75702710000002,116.15702670000002,69.0,107.0
414,115.75702710000002,116.29095513750002,57.0,85.0
415,114.89988510000002,116.34631222500002,45.0,82.0
416,114.90167081250002,116.34809793750001,33.0,82.0
417,116.18559810000002,116.64809763750002,52.0,74.0
418,116.61416910000001,117.08738291250002,62.0,89.0
419,116.61416910000001,117.21773992500002,66.0,96.0
420,116.61416910000001,117.30345412500002,59.0,88.0
421,117.04274010000002,117.55702530000002,54.0,89.0
422,117.47131110000001,117.84095358750001,61.0,127.0
423,117.68559660000001,117.85166786250002,54.0,81.0
424,116.61416910000001,117.89631067500001,47.0,89.0
425,116.61595481250002,117.89809638750002,35.0,89.0
426,117.89988210000001,118.27666743750001,62.0,93.0
427,118.32845310000002,119.02666668750001,57.0,99.0
428,118.32845310000002,119.03023811250002,64.0,79.0
429,118.32845310000002,119.06238093750001,61.0,77.0
430,118.75702410000001,119.35702350000001,52.0,74.0
431,119.18559510000001,119.60702325000001,64.0,95.0
432,119.18559510000001,119.61059467500002,57.0,90.0
433,119.18559510000001,119.61595181250001,61.0,122.0
434,118.32845310000002,119.70523743750002,45.0,82.0
435,118.33023881250001,119.70702315000001,33.0,82.0
436,119.61416610000002,119.73023741250002,52.0,72.0
437,120.04273710000001,120.76237923750001,67.0,97.0
438,120.04273710000001,120.76595066250002,59.0,102.0
439,120.04273710000001,120.78380778750001,64.0,99.0
440,120.47130810000002,121.02845040000001,47.0,51.0
441,120.47309381250001,121.03023611250002,35.0,51.0
442,120.89987910000002,121.18202167500002,59.0,92.0
443,120.04273710000001,121.27309301250001,40.0,76.0
444,120.04452281250002,121.27487872500002,28.0,76.0
445,121.11416460000001,121.28559300000002,47.0,78.0
446,121.11595031250002,121.28737871250001,35.0,78.0
447,120.89987910000002,121.34809293750001,67.0,100.0
448,120.89987910000002,121.36952148750001,64.0,107.0
449,121.32845010000001,121.47487852500002,59.0,92.0
450,121.75702110000002,122.35880621250001,66.0,107.0
451,121.75702110000002,122.52130605000002,61.0,117.0
452,121.75702110000002,122.53380603750001,57.0,96.0
453,122.18559210000002,122.68380588750001,54.0,88.0
454,122.61416310000001,122.85702000000002,61.0,127.0
455,122.61416310000001,122.88916282500001,66.0,122.0
456,122.61416310000001,123.08916262500001,57.0,86.0
457,121.75702110000002,123.33201952500002,42.0,112.0
458,121.75880681250001,123.33380523750002,30.0,112.0
459,123.25701960000002,123.35166236250002,69.0,76.0
460,123.25701960000002,123.38916232500002,57.0,88.0
461,123.04273410000002,123.45523368750001,54.0,70.0
462,123.47130510000001,123.65701920000002,57.0,122.0
463,123.47130510000001,123.66059062500001,69.0,95.0
464,124.11416160000002,124.17666153750001,73.0,95.0
465,124.11416160000002,124.20166151250001,61.0,117.0
466,123.47130510000001,124.24630432500001,42.0,117.0
467,123.47309081250002,124.24809003750002,30.0,117.0
468,123.89987610000001,124.39273275000002,54.0,76.0
469,124.32844710000002,124.67308961250002,73.0,100.0
470,124.32844710000002,124.72844670000002,61.0,127.0
471,124.32844710000002,124.76951808750002,42.0,96.0
472,124.33023281250001,124.77130380000001,30.0,96.0
473,124.75701810000001,124.84987515000002,54.0,112.0
474,125.18558910000002,125.52666018750001,67.0,92.0
475,125.18558910000002,125.53737446250001,71.0,88.0
476,125.18558910000002,125.64808863750001,64.0,95.0
477,125.61416010000002,126.25165946250002,47.0,60.0
478,125.61594581250002,126.25344517500001,35.0,60.0
479,126.04273110000001,126.46237353750001,64.0,90.0
480,126.04273110000001,126.46594496250002,67.0,89.0
481,125.18558910000002,126.54094488750002,40.0,78.0
482,125.18737481250001,126.54273060000001,28.0,78.0
483,126.04273110000001,126.71237328750001,59.0,96.0
484,126.47130210000002,126.76237323750001,47.0,44.0
485,126.47308781250001,126.76415895000002,35.0,44.0
486,127.75701510000002,128.0552290875,59.0,95.0
487,126.89987310000002,128.11951473750003,40.0,90.0
488,126.90165881250002,128.12130045,28.0,90.0
489,127.32844410000001,128.19094323750002,47.0,50.0
490,127.33022981250002,128.19272895,35.0,50.0
491,127.75701510000002,128.21415750000003,67.0,92.0
492,127.75701510000002,128.22487177500003,64.0,95.0
493,128.18558610000002,128.3713002,59.0,71.0
494,128.61415710000003,128.96415675000003,61.0,93.0
495,128.61415710000003,129.31237068750002,57.0,89.0
496,128.61415710000003,129.7552273875,42.0,107.0
497,128.6159428125,129.75701310000002,30.0,107.0
498,129.0427281,129.92487007500003,54.0,67.0
499,129.4712991,129.9659414625,66.0,102.0
500,129.89987010000002,130.15165556250003,57.0,79.0
501,129.4712991,130.19629837500003,61.0,112.0
502,130.32844110000002,130.85165486250003,59.0,92.0
503,130.32844110000002,130.8766548375,66.0,97.0
504,130.32844110000002,130.89272625,62.0,99.0
505,130.75701210000003,131.2873687125,54.0,83.0
506,131.18558310000003,131.4266542875,62.0,122.0
507,130.32844110000002,131.46236853750003,47.0,69.0
508,130.33022681250003,131.46415425,35.0,69.0
509,131.39986860000002,131.6480826375,61.0,107.0
510,132.0427251,132.3427248,55.0,82.0
511,131.6141541,132.37843905000003,59.0,90.0
512,132.89986710000002,133.23558105,64.0,95.0
513,132.89986710000002,133.246295325,67.0,95.0
514,132.89986710000002,133.33915237500003,59.0,95.0
515,132.0427251,133.39986660000002,40.0,90.0
516,132.04451081250002,133.4016523125,28.0,90.0
517,133.32843810000003,133.7123662875,52.0,61.0
518,133.7570091,134.30879426250002,61.0,112.0
519,133.7570091,134.38736561250002,66.0,96.0
520,133.7570091,134.44986555000003,57.0,95.0
521,134.1855801,134.67843675000003,54.0,67.0
522,133.7570091,134.91057937500003,42.0,99.0
523,133.7587948125,134.9123650875,30.0,99.0
524,134.61415110000002,135.00522213750003,62.0,107.0
525,134.82843660000003,135.06057922500003,54.0,69.0
526,135.04272210000002,135.40343602500002,61.0,107.0
527,135.47129310000003,135.8837926875,59.0,82.0
528,135.47129310000003,135.93557835000001,62.0,99.0
529,135.47129310000003,135.94450691250003,66.0,99.0
530,135.89986410000003,136.39093503750001,54.0,58.0
531,136.3284351,136.78200607500003,61.0,127.0
532,136.7570061,137.0730772125,62.0,89.0
533,135.47129310000003,137.08557720000002,47.0,75.0
534,135.4730788125,137.08736291250003,35.0,75.0
535,136.97129160000003,137.09807718750002,61.0,107.0
536,136.54272060000002,137.21414850000002,54.0,90.0
537,137.18557710000002,137.73200512500003,61.0,117.0
538,137.18557710000002,137.7623622375,59.0,96.0
539,137.18557710000002,137.87486212500002,66.0,117.0
540,137.18557710000002,137.89807638750003,62.0,97.0
541,137.61414810000002,138.11414760000002,54.0,82.0
542,138.25700460000002,138.589147125,54.0,97.0
543,137.18557710000002,138.85878971250003,47.0,92.0
544,137.18736281250003,138.860575425,35.0,92.0
545,138.4712901,138.88021826250002,61.0,127.0
546,138.04271910000003,138.93736106250003,66.0,122.0
547,138.04271910000003,138.94986105,62.0,117.0
548,139.54271760000003,139.78021736250003,59.0,67.0
549,138.8998611,140.49450236250001,43.0,86.0
550,139.32843210000001,140.6552164875,50.0,45.0
551,139.75700310000002,140.6980735875,62.0,82.0
552,140.18557410000003,140.7052164375,59.0,66.0
553,140.61414510000003,141.83557245000003,43.0,71.0
554,141.0427161,141.92307236250002,50.0,55.0
555,141.4712871,142.2695005875,71.0,89.0
556,141.4712871,142.2766434375,67.0,82.0
557,141.89985810000002,142.37485762500003,62.0,63.0
558,142.97128560000002,143.3373566625,57.0,41.0
559,142.32842910000002,143.353428075,45.0,75.0
560,142.75700010000003,143.48914222500002,52.0,59.0
561,143.6141421,144.07664163750002,61.0,53.0
562,143.18557110000003,144.0855702,64.0,93.0
563,144.47128410000002,145.22842620000003,54.0,68.0
564,144.04271310000001,145.296283275,47.0,71.0
565,145.32842610000003,145.78735421250002,62.0,65.0
566,144.89985510000002,145.79271135000002,66.0,112.0
567,145.54271160000002,145.81592561250002,59.0,69.0
568,146.1855681,146.67485332500002,52.0,52.0
569,146.8284246,147.017710125,52.0,46.0
570,145.7569971,147.08735291250002,45.0,78.0
571,147.04271010000002,147.3837811875,61.0,86.0
572,146.61413910000002,147.4516382625,64.0,85.0
573,147.2569956,147.467709675,57.0,58.0
574,148.11413760000002,148.45342297500002,59.0,59.0
575,147.47128110000003,148.99270815000003,40.0,76.0
576,147.89985210000003,149.03556525000002,47.0,47.0
577,148.75699410000001,149.18556510000002,64.0,59.0
578,148.3284231,149.18556510000002,67.0,93.0
579,149.8284216,150.03020711250002,57.0,78.0
580,149.18556510000002,150.79092063750002,42.0,85.0
581,149.61413610000002,150.93734906250003,54.0,76.0
582,150.04270710000003,151.5766341375,66.0,99.0
583,150.04270710000003,151.57841985000002,61.0,89.0
584,150.4712781,151.64627692500002,57.0,75.0
585,150.8998491,152.131990725,42.0,67.0
586,151.75699110000002,152.27484772500003,66.0,102.0
587,151.75699110000002,152.60341882500003,61.0,97.0
588,152.18556210000003,152.61413310000003,57.0,69.0
589,153.25698960000003,153.8087747625,52.0,70.0
590,152.61413310000003,154.06234593750003,40.0,89.0
591,153.4712751,154.14627442500003,71.0,90.0
592,153.4712751,154.1694886875,67.0,83.0
593,153.89984610000002,154.27127430000002,64.0,74.0
594,153.0427041,154.37305991250003,47.0,55.0
595,154.32841710000002,155.27305901250003,67.0,79.0
596,154.32841710000002,155.274844725,40.0,68.0
597,154.32841710000002,155.29091613750003,64.0,78.0
598,154.32841710000002,155.32841610000003,71.0,81.0
599,156.04270110000002,157.1516285625,42.0,107.0
600,156.47127210000002,157.3301998125,54.0,40.0
601,156.89984310000003,157.39269975000002,66.0,93.0
602,157.32841410000003,157.59805668750002,57.0,72.0
603,156.89984310000003,157.6409137875,61.0,102.0
604,157.7569851,158.767698375,62.0,72.0
605,157.7569851,158.78912692500003,47.0,69.0
606,157.7569851,158.83376973750003,66.0,69.0
607,157.7569851,158.86591256250003,59.0,59.0
608,160.11412560000002,160.35341107500003,59.0,62.0
609,159.47126910000003,160.6444822125,40.0,90.0
610,159.89984010000003,160.6837678875,47.0,55.0
611,160.3284111,161.15162456250002,64.0,78.0
612,160.3284111,161.17126740000003,67.0,89.0
613,160.75698210000002,161.310552975,59.0,72.0
614,161.82840960000001,162.0944807625,57.0,58.0
615,161.18555310000002,162.22305206250002,42.0,79.0
616,161.61412410000003,162.33198052500003,54.0,70.0
617,162.4712661,162.89805138750003,57.0,71.0
618,162.04269510000003,162.93376563750002,61.0,82.0
619,162.04269510000003,163.01947983750003,66.0,95.0
620,163.75697910000002,165.2873347125,62.0,90.0
621,164.18555010000003,165.36769177500003,61.0,74.0
622,164.61412110000003,165.5587630125,59.0,70.0
623,162.8998371,166.24626232500003,47.0,72.0
624,163.32840810000002,166.32840510000003,54.0,61.0
625,165.89983410000002,166.32840510000003,61.0,63.0
626,165.47126310000002,166.32840510000003,62.0,72.0
627,163.9712646,166.32840510000003,66.0,35.0
628,166.75697610000003,167.874832125,54.0,48.0
629,166.32840510000003,167.90518923750003,47.0,89.0
630,167.1855471,168.02840340000003,62.0,93.0
631,167.6141181,168.03197482500002,59.0,88.0
632,167.1855471,168.03197482500002,66.0,100.0
633,168.47126010000002,168.96590246250003,57.0,70.0
634,168.04268910000002,169.17840225000003,45.0,86.0
635,168.89983110000003,169.7409016875,61.0,86.0
636,168.89983110000003,169.75518738750003,64.0,93.0
637,169.7569731,171.35518578750003,47.0,83.0
638,170.18554410000002,171.52661418750003,54.0,78.0
639,171.04268610000003,172.01054227500003,59.0,69.0
640,170.61411510000002,172.0283994,62.0,81.0
641,170.61411510000002,172.05339937500003,66.0,100.0
642,171.89982810000004,172.40875616250003,54.0,48.0
643,171.47125710000003,172.79089863750002,47.0,68.0
644,172.75697010000002,173.23196962500003,62.0,92.0
645,172.3283991,173.25875531250003,66.0,112.0
646,173.61411210000003,174.14982585,50.0,61.0
647,173.18554110000002,174.1712544,43.0,89.0
648,174.4712541,174.86232513750002,55.0,79.0
649,174.04268310000003,174.8658965625,59.0,88.0
650,174.04268310000003,174.881967975,62.0,93.0
651,174.89982510000002,176.2426809,40.0,76.0
652,175.32839610000002,176.34982365000002,52.0,53.0
653,175.75696710000003,176.57660913750001,64.0,86.0
654,175.75696710000003,176.59268055,67.0,79.0
655,176.61410910000004,178.18910752500003,42.0,97.0
656,177.0426801,178.5087500625,54.0,65.0
657,177.89982210000002,179.06053522500002,61.0,100.0
658,178.32839310000003,179.44982055000003,42.0,73.0
659,179.1855351,180.04981995000003,61.0,97.0
660,177.47125110000002,180.05517708750003,66.0,96.0
661,179.61410610000001,180.074819925,57.0,88.0
662,180.04267710000002,181.21946163750002,40.0,85.0
663,180.47124810000003,181.25874731250002,47.0,64.0
664,180.89981910000003,181.72124685000003,64.0,88.0
665,181.32839010000004,181.90874666250002,59.0,71.0
666,181.7569611,182.87124570000003,42.0,96.0
667,182.18553210000002,182.88017426250002,54.0,70.0
668,182.61410310000002,183.35338807500003,66.0,99.0
669,183.04267410000003,183.36945948750002,61.0,95.0
670,183.47124510000003,184.25695860000002,43.0,77.0
671,183.89981610000004,184.38017276250002,55.0,93.0
672,184.32838710000001,184.82481517500003,45.0,83.0
673,184.75695810000002,185.24802903750003,57.0,88.0
674,185.61410010000003,186.2158852125,54.0,53.0
675,185.18552910000002,186.33017081250003,47.0,66.0
676,186.04267110000004,186.80874176250003,66.0,90.0
677,186.4712421,187.18552710000003,59.0,72.0
678,186.04267110000004,187.29088413750003,62.0,81.0
679,186.89981310000002,187.96945488750004,40.0,73.0
680,187.32838410000002,188.00159771250003,47.0,61.0
681,187.75695510000003,188.59981140000002,64.0,72.0
682,187.75695510000003,188.62659708750002,67.0,77.0
683,188.18552610000003,188.7087398625,59.0,72.0
684,188.61409710000004,189.71588171250002,42.0,90.0
685,189.04266810000001,189.85159586250003,54.0,71.0
686,189.47123910000002,190.37302391250003,61.0,107.0
687,189.89981010000002,190.40873816250001,57.0,89.0
688,191.1855231,191.58373698750003,62.0,96.0
689,190.32838110000003,191.89445096250003,47.0,72.0
690,191.61409410000002,191.98016516250001,61.0,90.0
691,190.75695210000003,192.01766512500004,54.0,85.0
692,192.04266510000002,192.54445031250003,66.0,112.0
693,192.04266510000002,192.56766457500004,59.0,92.0
694,192.04266510000002,192.77659293750003,62.0,102.0
695,192.47123610000003,193.01409270000002,54.0,107.0
696,193.11409260000002,193.23730676250003,54.0,99.0
697,192.04266510000002,193.34444951250003,47.0,86.0
698,192.89980710000003,193.37480662500002,66.0,127.0
699,192.89980710000003,193.61944923750002,61.0,127.0
700,192.89980710000003,193.62837780000004,62.0,127.0
701,193.7569491,194.09623447500002,55.0,97.0
702,193.7569491,194.09980590000004,59.0,107.0
703,193.7569491,194.11052017500003,62.0,107.0
704,194.18552010000002,194.83909087500004,50.0,53.0
705,194.61409110000002,195.10694775000002,55.0,63.0
706,193.75337767500002,195.33016181250002,31.0,90.0
707,193.7569491,195.3337332375,43.0,90.0
708,194.61409110000002,195.34980465000004,71.0,117.0
709,194.61409110000002,195.35516178750004,62.0,107.0
710,194.61409110000002,195.36944748750003,67.0,117.0
711,195.04266210000003,195.54266160000003,50.0,38.0
712,195.47123310000003,195.81051847500004,71.0,100.0
713,195.47123310000003,195.82301846250002,67.0,112.0
714,195.47123310000003,195.89623267500002,62.0,99.0
715,196.32837510000002,196.34801793750003,61.0,86.0
716,195.8998041,196.38373218750002,50.0,54.0
717,195.46766167500002,196.71051757500004,31.0,76.0
718,195.47123310000003,196.71408900000003,43.0,76.0
719,196.32837510000002,196.76944608750003,62.0,99.0
720,196.32837510000002,196.77658893750004,59.0,95.0
721,196.75694610000002,197.01408870000003,55.0,73.0
722,196.54266060000003,197.12301716250002,50.0,93.0
723,197.18551710000003,197.42301686250002,61.0,107.0
724,197.18551710000003,197.42837400000002,57.0,95.0
725,197.18551710000003,197.44444541250002,64.0,93.0
726,197.61408810000003,198.19980180000002,52.0,53.0
727,198.04265910000004,198.43908727500002,73.0,117.0
728,198.04265910000004,198.44265870000004,69.0,107.0
729,198.04265910000004,198.5765871375,57.0,85.0
730,197.18194567500004,198.62837280000002,33.0,82.0
731,197.18551710000003,198.631944225,45.0,82.0
732,198.4712301,198.93372963750002,52.0,74.0
733,198.89980110000002,199.37301491250003,62.0,89.0
734,198.89980110000002,199.50337192500004,66.0,96.0
735,198.89980110000002,199.58908612500002,59.0,88.0
736,199.32837210000002,199.8426573,54.0,89.0
737,199.75694310000003,200.12658558750002,61.0,127.0
738,199.97122860000002,200.13729986250002,54.0,81.0
739,198.89622967500003,200.17837125000003,35.0,89.0
740,198.89980110000002,200.18194267500002,47.0,89.0
741,200.18551410000003,200.56229943750003,62.0,93.0
742,200.61408510000004,201.31229868750003,57.0,99.0
743,200.61408510000004,201.31587011250002,64.0,79.0
744,200.61408510000004,201.34801293750002,61.0,77.0
745,201.04265610000002,201.64265550000002,52.0,74.0
746,201.47122710000002,201.89265525000002,64.0,95.0
747,201.47122710000002,201.89622667500004,57.0,90.0
748,201.47122710000002,201.90158381250004,61.0,122.0
749,200.61051367500002,201.98729801250002,33.0,82.0
750,200.61408510000004,201.99086943750004,45.0,82.0
751,201.89979810000003,202.01586941250002,52.0,72.0
752,202.32836910000003,203.04801123750002,67.0,97.0
753,202.32836910000003,203.05158266250004,59.0,102.0
754,202.32836910000003,203.06943978750002,64.0,99.0
755,202.75336867500002,203.31051097500003,35.0,51.0
756,202.75694010000004,203.31408240000002,47.0,51.0
757,203.1855111,203.46765367500004,59.0,92.0
758,202.324797675,203.55515358750003,28.0,76.0
759,202.32836910000003,203.55872501250002,40.0,76.0
760,203.39622517500004,203.56765357500004,35.0,78.0
761,203.39979660000003,203.57122500000003,47.0,78.0
762,203.1855111,203.63372493750003,67.0,100.0
763,203.1855111,203.65515348750003,64.0,107.0
764,203.61408210000002,203.76051052500003,59.0,92.0
765,204.04265310000002,204.64443821250003,66.0,107.0
766,204.04265310000002,204.80693805,61.0,117.0
767,204.04265310000002,204.81943803750002,57.0,96.0
768,204.47122410000003,204.96943788750002,54.0,88.0
769,204.89979510000003,205.14265200000003,61.0,127.0
770,204.89979510000003,205.17479482500002,66.0,122.0
771,204.89979510000003,205.37479462500002,57.0,86.0
772,204.03908167500003,205.61408010000002,30.0,112.0
773,204.04265310000002,205.617651525,42.0,112.0
774,205.54265160000003,205.63729436250003,69.0,76.0
775,205.54265160000003,205.67479432500002,57.0,88.0
776,205.32836610000004,205.74086568750002,54.0,70.0
777,205.75693710000002,205.94265120000003,57.0,122.0
778,205.75693710000002,205.94622262500002,69.0,95.0
779,206.39979360000004,206.46229353750002,73.0,95.0
780,206.39979360000004,206.48729351250003,61.0,117.0
781,205.75336567500003,206.5283649,30.0,117.0
782,205.75693710000002,206.53193632500003,42.0,117.0
783,206.18550810000002,206.67836475000001,54.0,76.0
784,206.61407910000003,206.95872161250003,73.0,100.0
785,206.61407910000003,207.01407870000003,61.0,127.0
786,206.61050767500004,207.05157866250002,30.0,96.0
787,206.61407910000003,207.05515008750004,42.0,96.0
788,207.04265010000003,207.13550715000002,54.0,112.0
789,207.47122110000004,207.81229218750002,67.0,92.0
790,207.47122110000004,207.82300646250002,71.0,88.0
791,207.47122110000004,207.93372063750002,64.0,95.0
792,207.89622067500002,208.53372003750002,35.0,60.0
793,207.8997921,208.53729146250004,47.0,60.0
794,208.32836310000002,208.74800553750003,64.0,90.0
795,208.32836310000002,208.75157696250002,67.0,89.0
796,207.46764967500002,208.82300546250002,28.0,78.0
797,207.47122110000004,208.82657688750004,40.0,78.0
798,208.32836310000002,208.99800528750004,59.0,96.0
799,208.75336267500003,209.04443381250002,35.0,44.0
800,208.75693410000002,209.04800523750004,47.0,44.0
801,210.04264710000004,210.34086108750003,59.0,95.0
802,209.18193367500004,210.40157531250003,28.0,90.0
803,209.18550510000003,210.40514673750002,40.0,90.0
804,209.61050467500002,210.47300381250002,35.0,50.0
805,209.61407610000003,210.47657523750001,47.0,50.0
806,210.04264710000004,210.49978950000002,67.0,92.0
807,210.04264710000004,210.51050377500002,64.0,95.0
808,210.47121810000002,210.65693220000003,59.0,71.0
809,210.89978910000002,211.24978875000002,61.0,93.0
810,210.89978910000002,211.5980026875,57.0,89.0
811,210.89621767500003,212.03728796250002,30.0,107.0
812,210.89978910000002,212.04085938750003,42.0,107.0
813,211.32836010000003,212.21050207500002,54.0,67.0
814,211.75693110000003,212.25157346250003,66.0,102.0
815,212.18550210000004,212.43728756250002,57.0,79.0
816,211.75693110000003,212.48193037500002,61.0,112.0
817,212.61407310000004,213.13728686250002,59.0,92.0
818,212.61407310000004,213.16228683750003,66.0,97.0
819,212.61407310000004,213.17835825000003,62.0,99.0
820,213.04264410000002,213.57300071250003,54.0,83.0
821,213.47121510000002,213.71228628750004,62.0,122.0
822,212.61050167500002,213.74442911250003,35.0,69.0
823,212.61407310000004,213.74800053750002,47.0,69.0
824,213.68550060000004,213.93371463750003,61.0,107.0
825,214.32835710000003,214.62835680000003,55.0,82.0
826,213.89978610000003,214.66407105000002,59.0,90.0
827,215.18549910000002,215.52121305000003,64.0,95.0
828,215.18549910000002,215.53192732500003,67.0,95.0
829,215.18549910000002,215.62478437500002,59.0,95.0
830,214.32478567500002,215.68192717500003,28.0,90.0
831,214.32835710000003,215.68549860000002,40.0,90.0
832,215.61407010000002,215.99799828750002,52.0,61.0
833,216.04264110000003,216.59442626250004,61.0,112.0
834,216.04264110000003,216.67299761250004,66.0,96.0
835,216.04264110000003,216.73549755000002,57.0,95.0
836,216.47121210000003,216.96406875000002,54.0,67.0
837,216.03906967500004,217.19263995000003,30.0,99.0
838,216.04264110000003,217.19621137500002,42.0,99.0
839,216.89978310000004,217.29085413750002,62.0,107.0
840,217.11406860000002,217.34621122500002,54.0,69.0
841,217.32835410000004,217.68906802500004,61.0,107.0
842,217.75692510000002,218.16942468750003,59.0,82.0
843,217.75692510000002,218.22121035000004,62.0,99.0
844,217.75692510000002,218.23013891250002,66.0,99.0
845,218.18549610000002,218.67656703750004,54.0,58.0
846,218.61406710000003,219.06763807500002,61.0,127.0
847,219.04263810000003,219.35870921250003,62.0,89.0
848,217.75335367500003,219.36763777500002,35.0,75.0
849,217.75692510000002,219.37120920000004,47.0,75.0
850,219.25692360000002,219.38370918750002,61.0,107.0
851,218.82835260000002,219.49978050000004,54.0,90.0
852,219.47120910000004,220.01763712500002,61.0,117.0
853,219.47120910000004,220.04799423750003,59.0,96.0
854,219.47120910000004,220.16049412500004,66.0,117.0
855,219.47120910000004,220.18370838750002,62.0,97.0
856,219.89978010000002,220.39977960000002,54.0,82.0
857,220.54263660000004,220.87477912500003,54.0,97.0
858,219.46763767500002,221.14085028750003,35.0,92.0
859,219.47120910000004,221.14442171250002,47.0,92.0
860,220.75692210000003,221.16585026250002,61.0,127.0
861,221.18549310000003,221.20513593750002,61.0,90.0
862,220.32835110000002,221.22299306250002,66.0,122.0
863,220.32835110000002,221.23549305000003,62.0,117.0
864,221.18549310000003,221.23549305000003,62.0,107.0
865,221.18549310000003,221.52477847500003,55.0,97.0
866,221.18549310000003,221.52834990000002,59.0,107.0
867,221.61406410000004,222.26763487500003,50.0,53.0
868,222.04263510000004,222.53549175000003,55.0,63.0
869,221.18192167500004,222.75870581250004,31.0,90.0
870,221.18549310000003,222.76227723750003,43.0,90.0
871,222.04263510000004,222.77834865000003,71.0,117.0
872,222.04263510000004,222.78370578750003,62.0,107.0
873,222.04263510000004,222.79799148750004,67.0,117.0
874,222.47120610000002,222.97120560000002,50.0,38.0
875,222.89977710000002,223.23906247500003,71.0,100.0
876,222.89977710000002,223.25156246250003,67.0,112.0
877,222.89977710000002,223.32477667500004,62.0,99.0
878,223.75691910000003,223.77656193750002,61.0,86.0
879,223.32834810000003,223.81227618750003,50.0,54.0
880,222.89620567500003,224.13906157500003,31.0,76.0
881,222.89977710000002,224.14263300000002,43.0,76.0
882,223.75691910000003,224.19799008750002,62.0,99.0
883,223.75691910000003,224.20513293750003,59.0,95.0
884,224.18549010000004,224.44263270000002,55.0,73.0
885,223.97120460000002,224.55156116250004,50.0,93.0
886,224.61406110000004,224.85156086250004,61.0,107.0
887,224.61406110000004,224.85691800000004,57.0,95.0
888,224.61406110000004,224.87298941250003,64.0,93.0
889,225.04263210000002,225.62834580000003,52.0,53.0
890,225.47120310000003,225.86763127500004,73.0,117.0
891,225.47120310000003,225.87120270000003,69.0,107.0
892,225.47120310000003,226.00513113750003,57.0,85.0
893,224.61048967500003,226.05691680000004,33.0,82.0
894,224.61406110000004,226.06048822500003,45.0,82.0
895,225.89977410000003,226.36227363750004,52.0,74.0
896,226.32834510000004,226.80155891250004,62.0,89.0
897,226.32834510000004,226.93191592500003,66.0,96.0
898,226.32834510000004,227.01763012500004,59.0,88.0
899,226.75691610000004,227.27120130000003,54.0,89.0
900,227.18548710000002,227.55512958750003,61.0,127.0
901,227.39977260000003,227.56584386250003,54.0,81.0
902,226.32477367500002,227.60691525000004,35.0,89.0
903,226.32834510000004,227.61048667500003,47.0,89.0
904,227.61405810000002,227.99084343750002,62.0,93.0
905,228.04262910000003,228.74084268750002,57.0,99.0
906,228.04262910000003,228.74441411250004,64.0,79.0
907,228.04262910000003,228.77655693750003,61.0,77.0
908,228.47120010000003,229.07119950000003,52.0,74.0
909,228.89977110000004,229.32119925000003,64.0,95.0
910,228.89977110000004,229.32477067500002,57.0,90.0
911,228.89977110000004,229.33012781250002,61.0,122.0
912,228.03905767500004,229.41584201250004,33.0,82.0
913,228.04262910000003,229.41941343750003,45.0,82.0
914,229.32834210000004,229.44441341250004,52.0,72.0
915,229.75691310000002,230.47655523750004,67.0,97.0
916,229.75691310000002,230.48012666250003,59.0,102.0
917,229.75691310000002,230.49798378750003,64.0,99.0
918,230.18191267500004,230.73905497500002,35.0,51.0
919,230.18548410000002,230.74262640000003,47.0,51.0
920,230.61405510000003,230.89619767500002,59.0,92.0
921,229.75334167500003,230.98369758750002,28.0,76.0
922,229.75691310000002,230.98726901250004,40.0,76.0
923,230.82476917500003,230.99619757500002,35.0,78.0
924,230.82834060000002,230.99976900000004,47.0,78.0
925,230.61405510000003,231.06226893750002,67.0,100.0
926,230.61405510000003,231.08369748750002,64.0,107.0
927,231.04262610000004,231.18905452500002,59.0,92.0
928,231.47119710000004,232.07298221250002,66.0,107.0
929,231.47119710000004,232.23548205000003,61.0,117.0
930,231.47119710000004,232.24798203750004,57.0,96.0
931,231.89976810000002,232.39798188750004,54.0,88.0
932,232.32833910000002,232.57119600000004,61.0,127.0
933,232.32833910000002,232.60333882500004,66.0,122.0
934,232.32833910000002,232.80333862500004,57.0,86.0
935,231.46762567500002,233.04262410000004,30.0,112.0
936,231.47119710000004,233.04619552500003,42.0,112.0
937,232.97119560000004,233.06583836250002,69.0,76.0
938,232.97119560000004,233.10333832500004,57.0,88.0
939,232.75691010000003,233.16940968750004,54.0,70.0
940,233.18548110000003,233.37119520000002,57.0,122.0
941,233.18548110000003,233.37476662500003,69.0,95.0
942,233.82833760000003,233.89083753750003,73.0,95.0
943,233.82833760000003,233.91583751250002,61.0,117.0
944,233.18190967500004,233.95690890000003,30.0,117.0
945,233.18548110000003,233.96048032500002,42.0,117.0
946,233.61405210000004,234.10690875000003,54.0,76.0
947,234.04262310000004,234.38726561250004,73.0,100.0
948,234.04262310000004,234.44262270000004,61.0,127.0
949,234.03905167500002,234.48012266250004,30.0,96.0
950,234.04262310000004,234.48369408750003,42.0,96.0
951,234.47119410000002,234.56405115000004,54.0,112.0
952,234.89976510000002,235.24083618750004,67.0,92.0
953,234.89976510000002,235.25155046250003,71.0,88.0
954,234.89976510000002,235.36226463750003,64.0,95.0
955,235.32476467500004,235.96226403750003,35.0,60.0
956,235.32833610000003,235.96583546250002,47.0,60.0
957,235.75690710000003,236.17654953750002,64.0,90.0
958,235.75690710000003,236.18012096250004,67.0,89.0
959,234.89619367500003,236.25154946250004,28.0,78.0
960,234.89976510000002,236.25512088750003,40.0,78.0
961,235.75690710000003,236.42654928750002,59.0,96.0
962,236.18190667500002,236.47297781250003,35.0,44.0
963,236.18547810000004,236.47654923750002,47.0,44.0
964,237.47119110000003,237.76940508750002,59.0,95.0
965,236.61047767500003,237.83011931250005,28.0,90.0
966,236.61404910000002,237.83369073750004,40.0,90.0
967,237.03904867500003,237.90154781250004,35.0,50.0
968,237.04262010000002,237.90511923750003,47.0,50.0
969,237.47119110000003,237.92833350000004,67.0,92.0
970,237.47119110000003,237.93904777500003,64.0,95.0
971,237.89976210000003,238.08547620000004,59.0,71.0
972,238.32833310000004,238.67833275000004,61.0,93.0
973,238.32833310000004,239.02654668750003,57.0,89.0
974,238.32476167500002,239.46583196250003,30.0,107.0
975,238.32833310000004,239.46940338750002,42.0,107.0
976,238.75690410000004,239.63904607500004,54.0,67.0
977,239.18547510000002,239.68011746250002,66.0,102.0
978,239.61404610000002,239.86583156250003,57.0,79.0
979,239.18547510000002,239.91047437500004,61.0,112.0
980,240.04261710000003,240.56583086250004,59.0,92.0
981,240.04261710000003,240.59083083750002,66.0,97.0
982,240.04261710000003,240.60690225000002,62.0,99.0
983,240.47118810000003,241.00154471250002,54.0,83.0
984,240.89975910000004,241.14083028750002,62.0,122.0
985,240.03904567500004,241.17297311250005,35.0,69.0
986,240.04261710000003,241.17654453750004,47.0,69.0
987,241.11404460000003,241.36225863750002,61.0,107.0
988,241.75690110000002,242.05690080000002,55.0,82.0
989,241.32833010000004,242.09261505000003,59.0,90.0
990,242.61404310000003,242.94975705000004,64.0,95.0
991,242.61404310000003,242.96047132500004,67.0,95.0
992,242.61404310000003,243.05332837500004,59.0,95.0
993,241.75332967500003,243.11047117500004,28.0,90.0
994,241.75690110000002,243.11404260000003,40.0,90.0
995,243.04261410000004,243.42654228750004,52.0,61.0
996,243.47118510000004,244.02297026250002,61.0,112.0
997,243.47118510000004,244.10154161250003,66.0,96.0
998,243.47118510000004,244.16404155000004,57.0,95.0
999,243.89975610000002,244.39261275000004,54.0,67.0
1000,243.46761367500002,244.62118395000005,30.0,99.0
1001,243.47118510000004,244.62475537500003,42.0,99.0
1002,244.32832710000002,244.71939813750004,62.0,107.0
1003,244.54261260000004,244.77475522500004,54.0,69.0
1004,244.75689810000003,245.11761202500003,61.0,107.0
1005,245.18546910000003,245.59796868750004,59.0,82.0
1006,245.18546910000003,245.64975435000002,62.0,99.0
1007,245.18546910000003,245.65868291250004,66.0,99.0
1008,245.61404010000004,246.10511103750002,54.0,58.0
1009,246.04261110000004,246.49618207500004,61.0,127.0
1010,246.47118210000002,246.78725321250002,62.0,89.0
1011,245.18189767500004,246.79618177500004,35.0,75.0
1012,245.18546910000003,246.79975320000003,47.0,75.0
1013,246.68546760000004,246.81225318750003,61.0,107.0
1014,246.25689660000003,246.92832450000003,54.0,90.0
1015,246.89975310000003,247.47653823750002,59.0,96.0
1016,246.89618167500004,247.58010956250004,62.0,97.0
1017,246.89975310000003,247.58903812500003,66.0,117.0
1018,247.32832410000003,247.82832360000003,54.0,82.0
1019,247.75689510000004,248.18546610000004,62.0,117.0
1020,247.97118060000003,248.30332312500002,54.0,97.0
1021,246.89618167500004,248.56939428750005,35.0,92.0
1022,246.89975310000003,248.57296571250004,47.0,92.0
1023,248.18546610000004,248.59439426250003,61.0,127.0
1024,247.75689510000004,248.61403710000002,66.0,122.0
1025,248.61403710000002,249.32653638750003,59.0,96.0
1026,248.61403710000002,249.36582206250003,67.0,93.0
1027,248.61403710000002,249.36939348750002,64.0,96.0
1028,248.61403710000002,249.62296466250004,40.0,76.0
1029,249.04260810000002,249.68189317500003,52.0,49.0
1030,249.47117910000003,249.78189307500003,64.0,99.0
1031,249.47117910000003,249.80510733750003,67.0,93.0
1032,250.33024010000003,250.8265085416667,57.0,83.0
1033,250.33024010000003,250.8880756791667,61.0,92.0
1034,250.33024010000003,251.0000159291667,66.0,89.0
1035,250.33024010000003,251.6343440125,42.0,100.0
1036,251.00188160000002,251.80412005833335,57.0,77.0
1037,250.7780011,251.80785140000003,54.0,66.0
1038,251.6735231,252.06717964583336,61.0,74.0
1039,251.22576210000003,252.1530005041667,66.0,117.0
1040,252.5690451,253.30411940833335,54.0,76.0
1041,253.01680610000003,253.94217883333334,61.0,112.0
1042,253.4645671,254.19964140833335,54.0,61.0
1043,253.91232810000002,254.9011336416667,62.0,89.0
1044,252.12128410000003,255.20896932916668,47.0,78.0
1045,254.3600891,255.37501403333334,54.0,48.0
1046,254.80785010000002,255.64180496250003,61.0,99.0
1047,255.70337210000002,261.20336971666666,47.0,65.0
1048,255.70337210000002,261.20710105833336,54.0,68.0
1049,255.70337210000002,261.2108324,62.0,65.0
1050,255.70337210000002,261.21269807083337,59.0,61.0
1051,255.70337210000002,261.2238920958334,66.0,61.0
