,start,end,pitch,velocity
0,28.62008372916667,28.742632687500002,64.0,89.0
1,28.914201229166668,29.186259916666668,64.0,86.0
2,29.20831872916667,29.455867625000003,63.0,92.0
3,29.50243622916667,29.749985125000002,61.0,59.0
4,29.796553729166668,29.968122270833337,59.0,65.0
5,30.09067122916667,30.397043625000002,59.0,76.0
6,30.97302372916667,31.220572625000003,56.0,72.0
7,31.26714122916667,31.789199791666668,59.0,79.0
8,31.85537622916667,32.1102780625,63.0,90.0
9,32.14949372916667,32.522042562500005,59.0,79.0
10,33.325963729166666,33.48772835416667,61.0,72.0
11,33.62008122916667,33.91664970833334,61.0,92.0
12,33.91419872916667,34.09312020833334,59.0,67.0
13,34.20831622916667,34.4191004375,59.0,75.0
14,34.50243372916667,34.66419835416667,57.0,66.0
15,34.79655122916667,35.20831572916667,57.0,82.0
16,35.67890372916667,35.843119333333334,64.0,71.0
17,35.97302122916667,36.21076620833334,64.0,93.0
18,36.26713872916667,36.5367464375,56.0,67.0
19,36.85537372916667,37.426451875000005,56.0,64.0
20,38.03184372916667,38.15684366666667,59.0,73.0
21,38.32596122916667,38.58331404166667,59.0,88.0
22,38.62007872916667,38.762235520833336,57.0,52.0
23,38.91419622916667,39.2279215625,57.0,74.0
24,39.20831372916667,39.54164689583334,56.0,46.0
25,39.50243122916667,39.78429383333334,54.0,70.0
26,40.38478372916667,40.53184247916667,57.0,75.0
27,40.67890122916667,41.036744187500005,57.0,83.0
28,40.97301872916667,41.394587145833334,64.0,89.0
29,41.56125372916667,42.78919429166667,64.0,92.0
30,45.09066372916667,45.254879333333335,59.0,75.0
31,45.38478122916667,45.6838006875,59.0,78.0
32,45.67889872916667,45.838212375000005,57.0,72.0
33,45.97301622916667,47.12987839583334,57.0,81.0
34,47.14948622916667,47.75978004166667,61.0,97.0
35,47.73772122916667,49.70830847916667,59.0,83.0
36,49.79654372916667,49.89458289583334,64.0,76.0
37,50.09066122916667,50.37497481250001,64.0,102.0
38,50.38477872916667,50.51713160416667,63.0,89.0
39,50.67889622916667,50.93870002083334,61.0,100.0
40,50.973013729166674,51.14213129166667,59.0,68.0
41,51.26713122916667,51.504876208333336,59.0,73.0
42,52.14948372916667,52.3749738125,56.0,97.0
43,52.44360122916667,53.10781658333334,59.0,88.0
44,53.03183622916667,53.32350275,63.0,83.0
45,53.32595372916667,54.17154154166667,59.0,78.0
46,54.50242372916667,54.602913875000006,61.0,96.0
47,54.79654122916667,55.08085481250001,61.0,107.0
48,55.09065872916667,55.22301160416667,59.0,78.0
49,55.38477622916667,55.59801141666667,59.0,82.0
50,55.678893729166674,55.81124660416667,57.0,77.0
51,55.97301122916667,56.35046202083334,57.0,89.0
52,56.85536372916667,56.96565779166667,64.0,89.0
53,57.14948122916667,57.433794812500004,64.0,97.0
54,57.44359872916667,57.602912375,56.0,72.0
55,58.03183372916667,58.41663745833334,56.0,75.0
56,59.20830372916667,59.289186041666674,59.0,81.0
57,59.50242122916667,59.79653872916667,59.0,88.0
58,59.79653872916667,59.91418572916667,57.0,81.0
59,60.09065622916667,60.338205125,57.0,73.0
60,60.38477372916667,60.544087375000004,56.0,61.0
61,60.67889122916667,60.93624404166667,54.0,97.0
62,61.56124372916667,61.681341708333335,57.0,85.0
63,61.85536122916667,62.17398852083334,57.0,89.0
64,62.149478729166674,62.57104714583334,64.0,86.0
65,62.73771372916667,63.3749683125,64.0,86.0
66,64.50241872916668,64.62006572916667,59.0,92.0
67,64.79653622916668,65.06369295833333,59.0,82.0
68,65.09065372916668,65.19359485416668,57.0,78.0
69,65.38477122916667,65.83330041666667,57.0,85.0
70,66.26712372916667,66.56369220833334,64.0,95.0
71,66.56124122916667,66.96075083333334,66.0,100.0
72,67.14947622916667,69.39457314583333,66.0,117.0
73,70.97300372916668,71.26712122916668,59.0,93.0
74,71.26712122916668,71.52692502083333,66.0,107.0
75,71.56123872916667,71.71565041666668,71.0,95.0
76,71.85535622916667,72.14212079166667,71.0,95.0
77,72.14947372916667,72.49506179166667,66.0,85.0
78,72.44359122916667,72.95094391666667,68.0,95.0
79,73.03182622916667,73.3455515625,66.0,97.0
80,73.32594372916667,73.58329654166667,64.0,88.0
81,73.62006122916667,74.31859029166667,63.0,93.0
82,74.50241372916668,74.6249626875,71.0,102.0
83,74.79653122916667,75.1690800625,71.0,102.0
84,75.67888372916667,75.9631973125,63.0,100.0
85,75.97300122916667,76.21074620833333,61.0,95.0
86,76.26711872916667,76.43623629166667,69.0,96.0
87,76.56123622916667,77.10535360416667,69.0,100.0
88,77.73770622916668,77.98035316666667,69.0,107.0
89,78.03182372916667,78.26956870833334,71.0,88.0
90,78.32594122916667,78.92152916666667,68.0,112.0
91,78.91417622916667,79.98525412500001,66.0,97.0
92,80.38476372916668,80.68623416666668,59.0,96.0
93,80.67888122916668,80.96809677083334,61.0,102.0
94,80.97299872916668,81.11515552083334,64.0,96.0
95,81.26711622916667,81.50976316666667,64.0,89.0
96,81.56123372916667,81.75976304166667,66.0,96.0
97,81.85535122916667,82.29652747916667,61.0,100.0
98,82.73770372916667,82.87740954166668,59.0,93.0
99,83.03182122916667,83.27691914583333,71.0,100.0
100,83.32593872916668,83.55878175000001,66.0,107.0
101,83.91417372916668,84.073487375,71.0,97.0
102,84.20829122916668,84.75976154166668,68.0,99.0
103,85.09064372916667,85.1837809375,68.0,117.0
104,85.38476122916667,85.66172187500001,69.0,107.0
105,85.67887872916667,85.93623154166667,68.0,92.0
106,85.97299622916667,86.21319218750001,66.0,97.0
107,86.26711372916667,86.37985877083334,64.0,85.0
108,86.56123122916668,86.88966243750001,64.0,92.0
109,86.85534872916668,86.99260356250001,61.0,112.0
110,87.44358372916668,87.9190736875,69.0,97.0
111,88.03181872916667,88.1690735625,68.0,96.0
112,88.32593622916667,88.61760275,68.0,100.0
113,88.62005372916667,88.75485758333333,66.0,86.0
114,88.91417122916667,89.39211216666668,66.0,100.0
115,89.79652372916668,90.09064122916668,59.0,93.0
116,90.09064122916668,90.35044502083333,66.0,107.0
117,90.38475872916668,90.53917041666668,71.0,95.0
118,90.67887622916668,90.96564079166667,71.0,95.0
119,90.97299372916667,91.31858179166667,66.0,85.0
120,91.26711122916667,91.77446391666668,68.0,95.0
121,91.85534622916667,92.16907156250001,66.0,97.0
122,92.14946372916667,92.40681654166667,64.0,88.0
123,92.44358122916667,93.14211029166667,63.0,93.0
124,93.32593372916668,93.4484826875,71.0,102.0
125,93.62005122916668,93.9926000625,71.0,102.0
126,94.50240372916667,94.7867173125,63.0,100.0
127,94.79652122916667,95.03426620833334,61.0,95.0
128,95.09063872916667,95.25975629166668,69.0,96.0
129,95.38475622916667,95.92887360416667,69.0,100.0
130,96.56122622916668,96.80387316666668,69.0,107.0
131,96.85534372916668,97.09308870833334,71.0,88.0
132,97.14946122916668,97.74504916666667,68.0,112.0
133,97.73769622916667,98.80877412500001,66.0,97.0
134,99.20828372916668,99.50975416666667,59.0,96.0
135,99.50240122916668,99.79161677083334,61.0,102.0
136,99.79651872916668,99.93867552083334,64.0,96.0
137,100.09063622916668,100.33328316666667,64.0,89.0
138,100.38475372916668,100.58328304166668,66.0,96.0
139,100.67887122916667,101.12004747916667,61.0,100.0
140,101.56122372916667,101.70092954166667,59.0,93.0
141,101.85534122916667,102.10043914583333,71.0,100.0
142,102.14945872916667,102.38230175000001,66.0,107.0
143,102.73769372916668,102.897007375,71.0,97.0
144,103.03181122916668,103.58328154166668,68.0,99.0
145,103.91416372916667,104.0073009375,68.0,117.0
146,104.20828122916667,104.48524187500001,69.0,107.0
147,104.50239872916667,104.75975154166667,68.0,92.0
148,104.79651622916667,105.0367121875,66.0,97.0
149,105.09063372916667,105.20337877083334,64.0,85.0
150,105.38475122916667,105.71318243750001,64.0,92.0
151,105.67886872916668,105.81612356250001,61.0,112.0
152,106.56122122916668,106.85043677083334,69.0,117.0
153,106.85533872916668,107.24994637500001,71.0,102.0
154,107.73769122916667,108.08573027083334,68.0,107.0
155,108.32592622916667,108.47298497916667,66.0,97.0
156,108.62004372916668,110.8822975,66.0,97.0
157,112.44357122916668,112.71562991666667,59.0,97.0
158,113.03180622916668,113.51219814583334,66.0,97.0
159,113.91415872916667,114.39455064583335,61.0,95.0
160,114.50239372916667,116.46072608333334,64.0,92.0
161,132.14944372916668,132.24748289583334,64.0,76.0
162,132.44356122916668,132.7278748125,64.0,102.0
163,132.73767872916667,132.87003160416668,63.0,89.0
164,133.03179622916667,133.29160002083336,61.0,100.0
165,133.32591372916667,133.49503129166666,59.0,68.0
166,133.62003122916667,133.85777620833335,59.0,73.0
167,134.50238372916667,134.7278738125,56.0,97.0
168,134.79650122916667,135.46071658333335,59.0,88.0
169,135.38473622916666,135.67640275000002,63.0,83.0
170,135.6788537291667,136.52444154166668,59.0,78.0
171,136.85532372916668,136.95581387500002,61.0,96.0
172,137.14944122916668,137.4337548125,61.0,107.0
173,137.44355872916668,137.57591160416666,59.0,78.0
174,137.73767622916668,137.95091141666668,59.0,82.0
175,138.03179372916668,138.1641466041667,57.0,77.0
176,138.32591122916668,138.70336202083334,57.0,89.0
177,139.20826372916667,139.31855779166668,64.0,89.0
178,139.50238122916667,139.7866948125,64.0,97.0
179,139.79649872916667,139.95581237500002,56.0,72.0
180,140.38473372916667,140.76953745833333,56.0,75.0
181,141.56120372916666,141.6420860416667,59.0,81.0
182,141.8553212291667,142.1494387291667,59.0,88.0
183,142.1494387291667,142.26708572916667,57.0,81.0
184,142.4435562291667,142.691105125,57.0,73.0
185,142.7376737291667,142.896987375,56.0,61.0
186,143.03179122916669,143.28914404166667,54.0,97.0
187,143.91414372916668,144.03424170833335,57.0,85.0
188,144.20826122916668,144.52688852083335,57.0,89.0
189,144.50237872916668,144.92394714583335,64.0,86.0
190,145.09061372916668,145.72786831250002,64.0,86.0
191,146.85531872916667,146.97296572916667,59.0,92.0
192,147.14943622916667,147.41659295833335,59.0,82.0
193,147.44355372916667,147.54649485416667,57.0,78.0
194,147.73767122916666,148.18620041666668,57.0,85.0
195,148.6200237291667,148.91659220833336,64.0,95.0
196,148.9141412291667,149.31365083333336,66.0,100.0
197,149.50237622916669,151.74747314583334,66.0,117.0
198,153.32590372916667,153.62002122916667,59.0,93.0
199,153.62002122916667,153.87982502083335,66.0,107.0
200,153.91413872916667,154.06855041666668,71.0,95.0
201,154.20825622916666,154.4950207916667,71.0,95.0
202,154.5023737291667,154.84796179166668,66.0,85.0
203,154.7964912291667,155.30384391666666,68.0,95.0
204,155.3847262291667,155.6984515625,66.0,97.0
205,155.6788437291667,155.93619654166667,64.0,88.0
206,155.97296122916669,156.6714902916667,63.0,93.0
207,156.85531372916668,156.97786268750002,71.0,102.0
208,157.14943122916668,157.5219800625,71.0,102.0
209,158.03178372916668,158.3160973125,63.0,100.0
210,158.32590122916667,158.56364620833335,61.0,95.0
211,158.62001872916667,158.78913629166667,69.0,96.0
212,158.91413622916667,159.45825360416669,69.0,100.0
213,160.09060622916667,160.33325316666668,69.0,107.0
214,160.38472372916667,160.62246870833334,71.0,88.0
215,160.67884122916666,161.2744291666667,68.0,112.0
216,161.2670762291667,162.33815412500002,66.0,97.0
217,162.73766372916668,163.03913416666668,59.0,96.0
218,163.03178122916668,163.32099677083335,61.0,102.0
219,163.32589872916668,163.46805552083333,64.0,96.0
220,163.62001622916668,163.8626631666667,64.0,89.0
221,163.91413372916668,164.11266304166668,66.0,96.0
222,164.20825122916668,164.6494274791667,61.0,100.0
223,165.09060372916667,165.23030954166668,59.0,93.0
224,165.38472122916667,165.62981914583335,71.0,100.0
225,165.67883872916667,165.91168175,66.0,107.0
226,166.26707372916667,166.42638737500002,71.0,97.0
227,166.56119122916667,167.11266154166668,68.0,99.0
228,167.4435437291667,167.53668093750002,68.0,117.0
229,167.7376612291667,168.01462187500002,69.0,107.0
230,168.0317787291667,168.28913154166668,68.0,92.0
231,168.3258962291667,168.5660921875,66.0,97.0
232,168.6200137291667,168.73275877083336,64.0,85.0
233,168.91413122916668,169.2425624375,64.0,92.0
234,169.20824872916668,169.3455035625,61.0,112.0
235,169.79648372916668,170.2719736875,69.0,97.0
236,170.38471872916668,170.52197356250002,68.0,96.0
237,170.67883622916668,170.97050275,68.0,100.0
238,170.97295372916668,171.10775758333335,66.0,86.0
239,171.26707122916667,171.74501216666667,66.0,100.0
240,172.14942372916667,172.44354122916667,59.0,93.0
241,172.44354122916667,172.70334502083335,66.0,107.0
242,172.73765872916667,172.89207041666668,71.0,95.0
243,173.03177622916667,173.3185407916667,71.0,95.0
244,173.32589372916667,173.67148179166668,66.0,85.0
245,173.6200112291667,174.12736391666667,68.0,95.0
246,174.2082462291667,174.5219715625,66.0,97.0
247,174.5023637291667,174.75971654166668,64.0,88.0
248,174.7964812291667,175.4950102916667,63.0,93.0
249,175.67883372916668,175.80138268750002,71.0,102.0
250,175.97295122916668,176.3455000625,71.0,102.0
251,176.85530372916668,177.1396173125,63.0,100.0
252,177.14942122916668,177.38716620833335,61.0,95.0
253,177.44353872916668,177.61265629166667,69.0,96.0
254,177.73765622916667,178.2817736041667,69.0,100.0
255,178.91412622916667,179.15677316666668,69.0,107.0
256,179.20824372916667,179.44598870833335,71.0,88.0
257,179.50236122916667,180.09794916666667,68.0,112.0
258,180.0905962291667,181.16167412500002,66.0,97.0
259,181.5611837291667,181.8626541666667,59.0,96.0
260,181.85530122916668,182.14451677083335,61.0,102.0
261,182.14941872916668,182.29157552083333,64.0,96.0
262,182.44353622916668,182.68618316666667,64.0,89.0
263,182.73765372916668,182.93618304166668,66.0,96.0
264,183.03177122916668,183.4729474791667,61.0,100.0
265,183.91412372916668,184.0538295416667,59.0,93.0
266,184.20824122916667,184.45333914583335,71.0,100.0
267,184.50235872916667,184.73520175000002,66.0,107.0
268,185.09059372916667,185.24990737500002,71.0,97.0
269,185.38471122916667,185.93618154166668,68.0,99.0
270,186.2670637291667,186.36020093750003,68.0,117.0
271,186.5611812291667,186.83814187500002,69.0,107.0
272,186.8552987291667,187.11265154166668,68.0,92.0
273,187.1494162291667,187.3896121875,66.0,97.0
274,187.4435337291667,187.55627877083336,64.0,85.0
275,187.7376512291667,188.0660824375,64.0,92.0
276,188.03176872916669,188.1690235625,61.0,112.0
277,188.91412122916668,189.20333677083335,69.0,117.0
278,189.20823872916668,189.602846375,71.0,102.0
279,190.09059122916668,190.43863027083336,68.0,107.0
280,190.67882622916667,190.8258849791667,66.0,97.0
281,190.97294372916667,193.23519750000003,66.0,97.0
282,196.56117622916668,196.71803889583336,63.0,127.0
283,196.85529372916668,197.0170583541667,63.0,93.0
284,197.14941122916667,197.77931287500002,63.0,127.0
285,198.03176372916667,198.2008812916667,66.0,117.0
286,198.32588122916667,198.93617504166667,66.0,122.0
287,198.9141162291667,199.82097852083334,64.0,117.0
288,199.7964687291667,200.14695875,63.0,122.0
289,200.3847037291667,200.64205654166668,61.0,117.0
290,200.6788212291667,200.93617404166667,59.0,99.0
291,200.97293872916669,201.19597783333336,56.0,86.0
292,201.26705622916668,201.7964677291667,59.0,102.0
293,202.14940872916668,202.52685952083334,66.0,102.0
294,202.73764372916668,202.85529072916668,68.0,122.0
295,203.03176122916668,203.27685914583336,68.0,127.0
296,203.32587872916667,203.49009433333336,66.0,122.0
297,203.61999622916667,204.0905842291667,64.0,112.0
298,204.50234872916667,204.89205441666667,64.0,117.0
299,205.0905837291667,205.3773482916667,63.0,122.0
300,205.3847012291667,205.4925443125,61.0,122.0
301,205.6788187291667,205.79646572916667,61.0,122.0
302,205.9729362291667,206.20332827083334,61.0,127.0
303,206.2670537291667,206.39940660416667,61.0,107.0
304,206.5611712291667,206.70087704166667,61.0,117.0
305,206.8552887291667,207.11264154166668,61.0,127.0
306,207.73764122916668,208.13715083333335,59.0,112.0
307,208.32587622916668,208.45577812500002,61.0,127.0
308,208.61999372916668,209.02685627083335,63.0,127.0
309,209.50234622916668,209.61264029166668,61.0,127.0
310,209.79646372916667,209.9508754166667,63.0,117.0
311,210.09058122916667,210.2131301875,64.0,112.0
312,210.38469872916667,210.49009083333334,64.0,102.0
313,210.67881622916667,210.82342400000002,64.0,112.0
314,210.97293372916667,211.0954826875,61.0,122.0
315,211.26705122916667,211.46803152083334,64.0,112.0
316,211.5611687291667,212.30626639583335,73.0,127.0
317,212.4435212291667,214.21067720833335,71.0,127.0
318,216.85528372916667,217.14940122916667,59.0,93.0
319,217.14940122916667,217.40920502083335,66.0,107.0
320,217.44351872916667,217.59793041666669,71.0,95.0
321,217.7376362291667,218.0244007916667,71.0,95.0
322,218.0317537291667,218.37734179166668,66.0,85.0
323,218.3258712291667,218.8332239166667,68.0,95.0
324,218.9141062291667,219.22783156250003,66.0,97.0
325,219.2082237291667,219.46557654166668,64.0,88.0
326,219.5023412291667,220.2008702916667,63.0,93.0
327,220.38469372916668,220.50724268750002,71.0,102.0
328,220.67881122916668,221.0513600625,71.0,102.0
329,221.56116372916668,221.8454773125,63.0,100.0
330,221.85528122916668,222.09302620833336,61.0,95.0
331,222.14939872916668,222.3185162916667,69.0,96.0
332,222.44351622916668,222.9876336041667,69.0,100.0
333,223.61998622916667,223.86263316666668,69.0,107.0
334,223.91410372916667,224.15184870833335,71.0,88.0
335,224.2082212291667,224.8038091666667,68.0,112.0
336,224.7964562291667,225.86753412500002,66.0,97.0
337,226.2670437291667,226.5685141666667,59.0,96.0
338,226.5611612291667,226.85037677083335,61.0,102.0
339,226.85527872916668,226.99743552083336,64.0,96.0
340,227.14939622916668,227.3920431666667,64.0,89.0
341,227.44351372916668,227.64204304166668,66.0,96.0
342,227.73763122916668,228.1788074791667,61.0,100.0
343,228.61998372916668,228.7596895416667,59.0,93.0
344,228.91410122916668,229.15919914583336,71.0,100.0
345,229.20821872916667,229.44106175000002,66.0,107.0
346,229.79645372916667,229.95576737500002,71.0,97.0
347,230.09057122916667,230.64204154166669,68.0,99.0
348,230.9729237291667,231.06606093750003,68.0,117.0
349,231.2670412291667,231.54400187500002,69.0,107.0
350,231.5611587291667,231.81851154166668,68.0,92.0
351,231.8552762291667,232.0954721875,66.0,97.0
352,232.1493937291667,232.26213877083336,64.0,85.0
353,232.4435112291667,232.77194243750003,64.0,92.0
354,232.7376287291667,232.8748835625,61.0,112.0
355,233.32586372916668,233.8013536875,69.0,97.0
356,233.91409872916668,234.05135356250003,68.0,96.0
357,234.20821622916668,234.49988275,68.0,100.0
358,234.50233372916668,234.63713758333336,66.0,86.0
359,234.79645122916668,235.27439216666667,66.0,100.0
360,235.67880372916667,235.97292122916667,59.0,93.0
361,235.97292122916667,236.23272502083336,66.0,107.0
362,236.26703872916667,236.4214504166667,71.0,95.0
363,236.56115622916667,236.8479207916667,71.0,95.0
364,236.8552737291667,237.20086179166668,66.0,85.0
365,237.1493912291667,237.65674391666667,68.0,95.0
366,237.7376262291667,238.05135156250003,66.0,97.0
367,238.0317437291667,238.28909654166668,64.0,88.0
368,238.3258612291667,239.0243902916667,63.0,93.0
369,239.2082137291667,239.33076268750003,71.0,102.0
370,239.50233122916669,239.8748800625,71.0,102.0
371,240.38468372916668,240.6689973125,63.0,100.0
372,240.67880122916668,240.91654620833336,61.0,95.0
373,240.97291872916668,241.14203629166667,69.0,96.0
374,241.26703622916668,241.8111536041667,69.0,100.0
375,242.44350622916667,242.68615316666668,69.0,107.0
376,242.73762372916667,242.97536870833335,71.0,88.0
377,243.0317412291667,243.6273291666667,68.0,112.0
378,243.6199762291667,244.69105412500002,66.0,97.0
379,245.0905637291667,245.3920341666667,59.0,96.0
380,245.3846812291667,245.67389677083335,61.0,102.0
381,245.6787987291667,245.82095552083334,64.0,96.0
382,245.97291622916669,246.2155631666667,64.0,89.0
383,246.26703372916668,246.46556304166668,66.0,96.0
384,246.56115122916668,247.0023274791667,61.0,100.0
385,247.44350372916668,247.5832095416667,59.0,93.0
386,247.73762122916668,247.98271914583336,71.0,100.0
387,248.03173872916668,248.26458175000002,66.0,107.0
388,248.61997372916667,248.77928737500002,71.0,97.0
389,248.91409122916667,249.4655615416667,68.0,99.0
390,249.7964437291667,249.88958093750003,68.0,117.0
391,250.0905612291667,250.36752187500002,69.0,107.0
392,250.3846787291667,250.64203154166668,68.0,92.0
393,250.6787962291667,250.9189921875,66.0,97.0
394,250.9729137291667,251.08565877083336,64.0,85.0
395,251.2670312291667,251.59546243750003,64.0,92.0
396,251.5611487291667,251.6984035625,61.0,112.0
397,252.44350122916669,252.73271677083335,69.0,117.0
398,252.73761872916668,253.13222637500002,71.0,102.0
399,253.61997122916668,253.96801027083336,68.0,107.0
400,254.20820622916668,254.3552649791667,66.0,97.0
401,254.50232372916668,256.76457750000003,66.0,97.0
402,258.68859614583334,258.96065483333336,59.0,97.0
403,259.27683114583334,259.75722306250003,66.0,97.0
404,260.67388927083334,261.15428118750003,61.0,95.0
405,261.26212427083334,263.220456625,64.0,92.0
