,start,end,pitch,velocity
0,0.6789212291666668,2.105391104166667,64.0,33.0
1,0.6789212291666668,2.5147046250000002,40.0,60.0
2,1.2671562291666667,2.5269595208333335,47.0,33.0
3,1.8553912291666668,2.561273229166667,52.0,42.0
4,2.443626229166667,3.1887238958333337,64.0,49.0
5,0.6789212291666668,3.1887238958333337,68.0,29.0
6,3.6200962291666667,4.752448604166667,52.0,34.0
7,3.0318612291666667,4.828428958333333,45.0,57.0
8,4.208331229166667,5.835781395833334,64.0,34.0
9,4.208331229166667,5.997546020833334,61.0,46.0
10,5.384801229166667,6.688722145833334,40.0,92.0
11,5.973036229166667,6.7426436875,47.0,49.0
12,6.5612712291666675,6.987741604166668,52.0,53.0
13,6.5612712291666675,7.833329416666667,64.0,86.0
14,6.5612712291666675,7.867643125000001,68.0,90.0
15,7.149506229166668,7.8774470416666675,59.0,57.0
16,8.914211229166668,9.328426708333334,56.0,32.0
17,8.325976229166667,9.519603083333333,51.0,24.0
18,8.914211229166668,9.698524562500001,68.0,53.0
19,7.737741229166668,9.718132395833335,44.0,74.0
20,8.914211229166668,9.735289250000001,63.0,64.0
21,9.502446229166667,9.980387166666667,59.0,41.0
22,10.678916229166667,10.8897004375,56.0,37.0
23,10.678916229166667,10.960778833333334,64.0,57.0
24,10.090681229166668,11.259798291666668,49.0,109.0
25,10.678916229166667,11.3014649375,61.0,58.0
26,11.267151229166668,11.973033229166667,66.0,70.0
27,11.267151229166668,11.997543020833334,63.0,57.0
28,11.267151229166668,12.242640937500001,59.0,62.0
29,11.267151229166668,12.482836895833334,47.0,77.0
30,12.443621229166668,13.078424833333335,61.0,74.0
31,12.443621229166668,13.085777770833335,64.0,68.0
32,12.443621229166668,13.289209041666668,57.0,81.0
33,12.443621229166668,13.377444291666668,45.0,45.0
34,13.620091229166668,14.102934125,44.0,45.0
35,13.620091229166668,14.325973229166667,59.0,70.0
36,13.620091229166668,14.370090854166667,63.0,66.0
37,13.620091229166668,14.372541833333335,56.0,58.0
38,14.796561229166668,15.825972479166667,61.0,60.0
39,14.796561229166668,16.63479560416667,42.0,90.0
40,14.796561229166668,16.754893583333335,66.0,64.0
41,15.384796229166668,18.52450054166667,54.0,52.0
42,16.56126622916667,18.553912291666666,49.0,30.0
43,17.149501229166667,18.70097104166667,42.0,72.0
44,17.149501229166667,19.659303895833336,66.0,60.0
45,14.796561229166668,19.688715645833334,57.0,65.0
46,15.973031229166669,19.749990125,61.0,64.0
47,20.090676229166668,21.100479645833335,47.0,36.0
48,19.502441229166667,21.230381541666667,40.0,70.0
49,20.67891122916667,21.348028541666668,68.0,68.0
50,20.67891122916667,21.409303020833335,64.0,73.0
51,21.26714622916667,21.536753937500002,59.0,29.0
52,20.67891122916667,21.754891083333334,52.0,36.0
53,21.855381229166667,23.4705765,49.0,56.0
54,21.855381229166667,24.355379979166667,64.0,57.0
55,23.91420372916667,24.549007333333336,57.0,38.0
56,21.855381229166667,24.887242458333336,61.0,66.0
57,24.50243872916667,25.95832035416667,47.0,53.0
58,25.38479122916667,25.997536020833333,68.0,100.0
59,24.208321229166668,26.191163375000002,40.0,76.0
60,25.973026229166667,26.196065333333337,64.0,46.0
61,25.090673729166667,26.325967229166668,59.0,45.0
62,24.79655622916667,26.477927937500002,52.0,80.0
63,26.561261229166668,27.970574250000002,49.0,18.0
64,26.561261229166668,28.914201229166668,57.0,28.0
65,26.561261229166668,28.914201229166668,61.0,57.0
66,26.561261229166668,28.914201229166668,64.0,54.0
67,28.914201229166668,29.8602791875,59.0,61.0
68,28.914201229166668,29.904396812500003,63.0,65.0
69,28.914201229166668,29.91420072916667,66.0,54.0
70,28.914201229166668,30.31125935416667,47.0,48.0
71,28.914201229166668,30.343122083333334,54.0,49.0
72,30.09067122916667,30.8161610625,66.0,61.0
73,30.09067122916667,30.840670854166667,63.0,61.0
74,30.09067122916667,30.91420022916667,59.0,54.0
75,31.26714122916667,32.73772872916667,56.0,41.0
76,31.26714122916667,32.88478747916667,44.0,41.0
77,31.26714122916667,32.91419922916667,68.0,53.0
78,31.26714122916667,32.95831685416667,63.0,56.0
79,31.26714122916667,33.03184622916667,59.0,44.0
80,33.62008122916667,34.45096316666667,61.0,60.0
81,33.62008122916667,34.45096316666667,64.0,66.0
82,33.62008122916667,34.46076708333334,57.0,61.0
83,34.20831622916667,34.89459039583333,52.0,37.0
84,33.62008122916667,34.97302172916667,45.0,61.0
85,34.79655122916667,35.3749823125,64.0,18.0
86,34.79655122916667,35.4485116875,61.0,18.0
87,34.79655122916667,35.5220410625,57.0,16.0
88,35.97302122916667,36.968118770833335,68.0,68.0
89,35.97302122916667,36.977922687500005,59.0,61.0
90,35.97302122916667,36.990177583333335,64.0,62.0
91,37.14949122916667,37.44115775,52.0,28.0
92,35.97302122916667,37.48282439583333,40.0,69.0
93,36.561256229166666,37.60047139583334,47.0,18.0
94,37.14949122916667,37.67400077083334,64.0,65.0
95,37.14949122916667,37.68135370833333,68.0,52.0
96,37.14949122916667,37.7573340625,59.0,57.0
97,38.32596122916667,39.149490229166666,66.0,66.0
98,38.32596122916667,39.18870589583334,61.0,66.0
99,38.32596122916667,39.20586275,57.0,68.0
100,38.91419622916667,39.963215312500004,49.0,14.0
101,38.32596122916667,39.9779211875,42.0,65.0
102,39.50243122916667,40.0588035,54.0,34.0
103,39.50243122916667,40.19360735416667,66.0,64.0
104,39.50243122916667,40.21566616666667,61.0,61.0
105,40.09066622916667,40.49997975,57.0,44.0
106,40.67890122916667,42.62988064583334,45.0,33.0
107,40.67890122916667,42.634782604166666,52.0,44.0
108,40.67890122916667,42.77448841666667,64.0,66.0
109,40.67890122916667,42.813704083333334,60.0,62.0
110,40.67890122916667,42.85782170833334,57.0,58.0
111,43.03184122916667,44.01713485416667,64.0,41.0
112,43.03184122916667,44.01958583333334,57.0,32.0
113,43.03184122916667,44.05389954166667,60.0,34.0
114,43.03184122916667,44.30144843750001,52.0,29.0
115,43.03184122916667,45.286742062500004,45.0,29.0
116,44.50242872916667,45.31370283333334,52.0,52.0
117,44.20831122916667,45.357820458333336,60.0,58.0
118,44.79654622916667,45.36517339583334,57.0,50.0
119,44.20831122916667,45.37007535416667,64.0,45.0
120,45.38478122916667,46.08331029166667,64.0,73.0
121,45.38478122916667,46.10536910416667,61.0,69.0
122,45.38478122916667,46.117624000000006,57.0,58.0
123,45.38478122916667,46.69115312500001,45.0,49.0
124,45.97301622916667,46.6985060625,52.0,34.0
125,46.56125122916667,47.0955646875,64.0,57.0
126,46.56125122916667,47.34066260416667,57.0,45.0
127,46.56125122916667,47.37007435416667,61.0,50.0
128,47.73772122916667,48.75732856250001,66.0,60.0
129,47.73772122916667,48.79409325,63.0,66.0
130,47.73772122916667,48.85046577083334,59.0,64.0
131,48.32595622916667,49.06860291666667,54.0,24.0
132,47.73772122916667,49.98772010416667,47.0,56.0
133,49.20830872916667,50.03183772916667,54.0,60.0
134,48.91419122916667,50.0367396875,63.0,110.0
135,48.91419122916667,50.04164164583334,66.0,101.0
136,49.50242622916667,50.044092625000005,59.0,70.0
137,50.09066122916667,50.74507266666667,64.0,70.0
138,50.09066122916667,50.74752364583334,68.0,70.0
139,50.09066122916667,51.04899408333333,59.0,41.0
140,50.09066122916667,51.526935020833335,40.0,73.0
141,51.26713122916667,51.632327125,52.0,32.0
142,50.67889622916667,51.65928789583334,47.0,29.0
143,51.26713122916667,51.9043858125,64.0,88.0
144,51.26713122916667,51.946052458333334,68.0,82.0
145,51.85536622916667,52.2720326875,59.0,46.0
146,52.44360122916667,53.31860079166667,63.0,70.0
147,52.44360122916667,53.35046352083334,68.0,70.0
148,52.44360122916667,53.507326187500006,59.0,68.0
149,53.03183622916667,53.7426201875,56.0,40.0
150,52.44360122916667,54.17889447916667,44.0,50.0
151,53.91418872916667,54.19605133333334,56.0,74.0
152,53.62007122916667,54.227914062500005,68.0,65.0
153,53.62007122916667,54.27448266666667,63.0,61.0
154,54.20830622916667,54.6102668125,59.0,85.0
155,54.79654122916667,55.81369758333334,64.0,73.0
156,54.79654122916667,55.816148562500004,57.0,85.0
157,54.79654122916667,55.83330541666667,61.0,73.0
158,55.38477622916667,56.085756270833336,52.0,29.0
159,55.97301122916667,56.18624641666667,57.0,58.0
160,54.79654122916667,56.42154041666667,45.0,65.0
161,56.26712872916667,56.42154041666667,52.0,49.0
162,55.97301122916667,56.61271679166667,64.0,76.0
163,55.97301122916667,56.63722658333334,61.0,85.0
164,56.56124622916667,56.86516764583334,57.0,56.0
165,57.14948122916667,58.183794437500005,68.0,70.0
166,57.14948122916667,58.196049333333335,59.0,65.0
167,57.14948122916667,58.205853250000004,64.0,64.0
168,57.14948122916667,58.64948047916667,40.0,66.0
169,58.32595122916667,58.72546083333334,52.0,34.0
170,57.73771622916667,58.75242160416667,47.0,26.0
171,58.32595122916667,58.98036266666667,64.0,85.0
172,58.32595122916667,58.98281364583334,68.0,93.0
173,58.914186229166674,59.00977441666667,59.0,61.0
174,59.50242122916667,60.46565604166667,66.0,61.0
175,59.50242122916667,60.48771485416667,57.0,61.0
176,59.50242122916667,60.534283458333334,61.0,68.0
177,60.09065622916667,60.82104802083334,54.0,40.0
178,59.50242122916667,61.11271454166667,42.0,45.0
179,60.97300872916667,61.22300860416667,54.0,56.0
180,60.67889122916667,61.28918504166667,66.0,80.0
181,60.67889122916667,61.323498750000006,61.0,80.0
182,61.26712622916667,61.73526325,57.0,61.0
183,61.85536122916667,62.8308509375,57.0,60.0
184,61.85536122916667,62.85536072916667,64.0,66.0
185,61.85536122916667,62.86271366666667,60.0,64.0
186,62.44359622916667,63.16663508333334,52.0,26.0
187,61.85536122916667,63.50241922916667,45.0,66.0
188,63.32594872916667,63.507321187500004,52.0,41.0
189,63.03183122916667,63.62987014583334,60.0,82.0
190,63.03183122916667,63.70094854166667,64.0,78.0
191,63.620066229166675,63.73281127083334,57.0,77.0
192,64.20830122916666,65.14212429166668,68.0,73.0
193,64.20830122916666,65.1837909375,64.0,74.0
194,64.20830122916666,65.19604583333334,59.0,74.0
195,64.20830122916666,65.21810464583334,61.0,82.0
196,64.20830122916666,66.33820212500001,47.0,62.0
197,65.38477122916667,66.37006485416667,61.0,58.0
198,65.38477122916667,66.37006485416667,68.0,48.0
199,65.38477122916667,66.37251583333334,64.0,61.0
200,65.38477122916667,66.397025625,59.0,62.0
201,66.56124122916667,67.54163289583335,66.0,78.0
202,66.56124122916667,67.573495625,59.0,78.0
203,66.56124122916667,67.573495625,63.0,90.0
204,67.14947622916667,67.88476997916668,54.0,36.0
205,67.73771122916668,68.43133833333334,63.0,106.0
206,67.73771122916668,68.50486770833334,66.0,102.0
207,66.56124122916667,68.53427945833334,47.0,69.0
208,68.03182872916668,68.55388729166667,54.0,60.0
209,68.32594622916668,68.84800479166667,59.0,80.0
210,68.62006372916667,68.85535772916667,63.0,78.0
211,68.91418122916667,71.12986639583333,47.0,52.0
212,68.91418122916667,71.16172912500001,59.0,72.0
213,68.91418122916667,71.16418010416668,63.0,77.0
214,68.91418122916667,71.17888597916667,54.0,78.0
215,68.91418122916667,71.18868989583333,66.0,78.0
216,71.26712122916668,72.02447379166667,59.0,96.0
217,71.26712122916668,72.05878750000001,68.0,93.0
218,71.26712122916668,72.06368945833334,64.0,101.0
219,72.14947372916667,72.2279050625,64.0,29.0
220,72.14947372916667,72.3749638125,59.0,93.0
221,71.85535622916667,72.58574802083334,52.0,81.0
222,71.26712122916668,72.87741454166667,40.0,85.0
223,71.56123872916667,72.91172825000001,47.0,34.0
224,72.73770872916667,72.93623804166667,52.0,78.0
225,72.44359122916667,73.0220223125,68.0,110.0
226,72.44359122916667,73.0367281875,64.0,109.0
227,73.03182622916667,73.43623779166667,59.0,88.0
228,73.62006122916667,74.12741391666667,59.0,85.0
229,73.62006122916667,74.2720216875,63.0,92.0
230,74.50241372916668,74.71074695833335,68.0,60.0
231,74.20829622916668,74.720550875,59.0,49.0
232,74.50241372916668,74.72545283333334,63.0,68.0
233,73.91417872916668,74.93868802083334,56.0,66.0
234,75.09064872916667,75.279374125,56.0,81.0
235,73.62006122916667,75.28182510416667,44.0,73.0
236,74.79653122916667,75.38721720833334,68.0,106.0
237,74.79653122916667,75.40192308333334,63.0,109.0
238,75.38476622916667,75.632315125,59.0,72.0
239,75.97300122916667,76.99260856250001,64.0,74.0
240,75.97300122916667,76.99751052083334,61.0,68.0
241,75.97300122916667,76.99996150000001,57.0,81.0
242,76.56123622916667,77.27447116666667,52.0,54.0
243,75.97300122916667,77.52447104166667,45.0,74.0
244,77.44358872916668,77.58084356250001,52.0,38.0
245,77.14947122916668,77.78427483333334,64.0,90.0
246,77.73770622916668,77.88231400000001,57.0,85.0
247,77.14947122916668,77.88476497916668,61.0,109.0
248,78.32594122916667,79.3529015,66.0,78.0
249,78.32594122916667,79.37741129166668,59.0,80.0
250,78.32594122916667,79.37741129166668,63.0,74.0
251,78.91417622916667,79.7426071875,54.0,57.0
252,79.79652872916667,80.09799916666667,54.0,80.0
253,78.32594122916667,80.14701875,47.0,72.0
254,79.50241122916667,80.18133245833334,66.0,110.0
255,79.50241122916667,80.21809714583334,63.0,110.0
256,80.09064622916667,80.53917541666667,59.0,85.0
257,80.67888122916668,81.71809639583334,61.0,96.0
258,80.67888122916668,81.72054737500001,64.0,81.0
259,80.67888122916668,81.72299835416668,57.0,97.0
260,81.26711622916667,82.0587825,52.0,46.0
261,82.14946872916667,82.29162552083334,52.0,53.0
262,80.67888122916668,82.32348825000001,45.0,74.0
263,81.85535122916667,82.47299797916668,64.0,92.0
264,82.44358622916667,82.749958625,57.0,77.0
265,81.85535122916667,82.86270366666668,61.0,110.0
266,83.03182122916667,83.48035041666667,68.0,80.0
267,83.03182122916667,83.48280139583333,56.0,66.0
268,83.03182122916667,83.61025231250001,63.0,74.0
269,83.03182122916667,83.68133070833333,59.0,84.0
270,83.03182122916667,83.85535022916667,44.0,62.0
271,84.20829122916668,84.7720164375,49.0,69.0
272,84.20829122916668,84.86515364583335,64.0,76.0
273,84.20829122916668,84.90436931250001,61.0,65.0
274,84.20829122916668,84.91172225000001,56.0,81.0
275,85.38476122916667,86.39456464583334,66.0,78.0
276,85.38476122916667,86.40681954166668,57.0,84.0
277,85.38476122916667,86.4190744375,61.0,96.0
278,85.97299622916667,86.68623116666667,54.0,82.0
279,85.38476122916667,86.98770160416667,42.0,84.0
280,86.85534872916668,87.12985839583334,54.0,64.0
281,86.56123122916668,87.19848581250001,66.0,109.0
282,87.14946622916668,87.53426995833334,57.0,82.0
283,86.56123122916668,87.62740716666667,61.0,110.0
284,87.73770122916667,88.47544595833334,66.0,109.0
285,87.73770122916667,88.4778969375,59.0,86.0
286,87.73770122916667,88.49505379166668,63.0,110.0
287,88.62005372916667,88.81368108333334,66.0,60.0
288,88.62005372916667,88.81858304166667,59.0,57.0
289,88.62005372916667,88.83819087500001,63.0,60.0
290,88.32593622916667,89.0661319375,54.0,45.0
291,89.20828872916667,89.37985727083334,54.0,92.0
292,87.73770122916667,89.43622979166668,47.0,78.0
293,88.91417122916667,89.5661316875,63.0,110.0
294,88.91417122916667,89.61760225,66.0,110.0
295,89.79652372916668,90.00240597916667,63.0,110.0
296,89.50240622916667,90.0220138125,59.0,110.0
297,90.09064122916668,90.76956245833334,59.0,84.0
298,90.09064122916668,90.78181735416668,68.0,110.0
299,90.09064122916668,90.897013375,64.0,109.0
300,90.97299372916667,91.02936625000001,68.0,34.0
301,90.97299372916667,91.13720933333335,64.0,34.0
302,90.67887622916668,91.3528955,52.0,96.0
303,90.97299372916667,91.37495431250001,59.0,86.0
304,90.09064122916668,91.62495418750001,40.0,90.0
305,90.38475872916668,91.71073845833334,47.0,37.0
306,91.56122872916667,91.75240510416667,52.0,88.0
307,91.26711122916667,91.85044427083334,68.0,110.0
308,91.26711122916667,91.86269916666667,64.0,109.0
309,91.85534622916667,92.29652247916667,59.0,96.0
310,92.44358122916667,92.90926727083334,59.0,78.0
311,92.44358122916667,93.12495343750001,63.0,100.0
312,92.44358122916667,93.13230637500001,68.0,88.0
313,93.03181622916668,93.49750227083334,59.0,48.0
314,93.32593372916668,93.51465912500001,68.0,56.0
315,93.32593372916668,93.51711010416668,63.0,69.0
316,92.73769872916667,93.73524725,56.0,77.0
317,92.44358122916667,94.10779608333334,44.0,92.0
318,93.91416872916668,94.12250195833334,56.0,85.0
319,93.62005122916668,94.2425999375,68.0,110.0
320,93.62005122916668,94.24505091666667,63.0,110.0
321,94.20828622916667,94.76465850000001,59.0,86.0
322,94.79652122916667,95.60289337500001,64.0,92.0
323,94.79652122916667,95.79652072916667,61.0,110.0
324,95.38475622916667,96.12004997916668,52.0,50.0
325,95.97299122916668,96.28426558333334,57.0,72.0
326,94.79652122916667,96.49504979166667,45.0,80.0
327,96.26710872916668,96.57103014583333,52.0,36.0
328,95.97299122916668,96.57593210416667,64.0,88.0
329,96.56122622916668,96.9337750625,57.0,92.0
330,95.97299122916668,97.06367695833335,61.0,105.0
331,97.14946122916668,98.12249995833334,66.0,88.0
332,97.14946122916668,98.1249509375,59.0,84.0
333,97.14946122916668,98.14210779166667,63.0,72.0
334,97.73769622916667,98.53916641666667,54.0,48.0
335,98.62004872916667,98.85044077083334,54.0,56.0
336,97.14946122916668,98.92151916666667,47.0,66.0
337,98.32593122916667,98.9631858125,66.0,100.0
338,98.32593122916667,99.00730343750001,63.0,105.0
339,98.91416622916667,99.28426408333334,59.0,72.0
340,99.50240122916668,100.56857716666667,57.0,86.0
341,99.50240122916668,100.573479125,61.0,81.0
342,99.50240122916668,100.573479125,64.0,74.0
343,100.09063622916668,100.82592997916667,52.0,30.0
344,100.97298872916667,101.14945922916668,52.0,49.0
345,99.50240122916668,101.18377293750001,45.0,70.0
346,100.67887122916667,101.21808664583334,64.0,81.0
347,101.26710622916667,101.61514527083334,57.0,69.0
348,100.67887122916667,101.71073345833334,61.0,105.0
349,101.85534122916667,102.30387041666667,56.0,56.0
350,101.85534122916667,102.39455664583335,68.0,80.0
351,101.85534122916667,102.55877225,63.0,86.0
352,101.85534122916667,102.59798791666667,59.0,85.0
353,101.85534122916667,102.85779170833334,44.0,64.0
354,103.03181122916668,103.62249720833334,49.0,72.0
355,103.03181122916668,103.65190895833334,64.0,78.0
356,103.03181122916668,103.66416385416667,56.0,96.0
357,103.03181122916668,103.7058305,61.0,70.0
358,104.20828122916667,105.2352415,66.0,81.0
359,104.20828122916667,105.26465325000001,61.0,100.0
360,104.20828122916667,105.52935900000001,57.0,86.0
361,104.79651622916667,105.58328054166667,54.0,72.0
362,104.20828122916667,105.76955495833334,42.0,78.0
363,105.67886872916668,105.91416272916668,54.0,60.0
364,105.38475122916667,106.00239797916667,66.0,106.0
365,105.97298622916668,106.33573114583334,57.0,81.0
366,105.38475122916667,106.40926052083334,61.0,110.0
367,106.56122122916668,107.54651485416667,66.0,106.0
368,106.56122122916668,107.60043639583334,63.0,110.0
369,106.56122122916668,107.60778933333334,59.0,97.0
370,107.14945622916667,107.8749460625,54.0,48.0
371,106.56122122916668,108.86759262500001,47.0,77.0
372,107.73769122916667,108.90435731250001,63.0,110.0
373,107.73769122916667,108.90435731250001,66.0,110.0
374,108.32592622916667,108.92151416666667,59.0,78.0
375,108.91416122916668,108.92151416666667,59.0,92.0
376,108.03180872916667,108.93131808333334,54.0,49.0
377,108.91416122916668,108.93131808333334,54.0,60.0
378,108.91416122916668,111.21808164583334,47.0,49.0
379,108.91416122916668,111.220532625,63.0,97.0
380,108.91416122916668,111.24259143750001,66.0,85.0
381,111.26710122916667,112.98523762500001,54.0,62.0
382,111.26710122916667,113.06121797916667,47.0,49.0
383,111.26710122916667,113.48033541666668,66.0,49.0
384,111.26710122916667,113.63964906250001,63.0,66.0
385,111.26710122916667,113.85043327083334,59.0,58.0
386,114.20827622916667,115.06121697916667,52.0,65.0
387,113.91415872916667,115.12984439583335,47.0,52.0
388,113.62004122916667,115.18131495833335,40.0,76.0
389,115.38474622916668,116.06121647916667,64.0,45.0
390,114.79651122916667,116.06856941666668,68.0,92.0
391,114.50239372916667,116.10778508333334,59.0,68.0
392,116.26709872916668,117.52445104166668,52.0,49.0
393,115.97298122916668,117.64209804166667,45.0,64.0
394,116.56121622916667,117.76464700000001,57.0,60.0
395,116.85533372916667,118.37494081250001,64.0,88.0
396,117.73768622916667,118.54650935416667,61.0,45.0
397,118.03180372916667,118.55631327083334,57.0,61.0
398,118.32592122916668,120.00484195833334,40.0,82.0
399,118.62003872916668,120.05386154166668,47.0,78.0
400,118.91415622916668,120.235234,52.0,106.0
401,119.20827372916668,121.40925302083335,59.0,41.0
402,121.26709622916668,122.014644875,56.0,92.0
403,121.56121372916668,122.36513489583334,59.0,101.0
404,122.14944872916668,122.4631740625,56.0,81.0
405,120.97297872916667,122.50484070833335,51.0,44.0
406,120.67886122916667,122.61758575,44.0,66.0
407,122.44356622916668,123.04895808333335,59.0,76.0
408,123.03180122916667,123.72297735416667,49.0,85.0
409,123.03180122916667,123.76709497916667,64.0,101.0
410,123.03180122916667,123.82591847916667,61.0,110.0
411,124.20827122916667,124.67395727083334,44.0,77.0
412,124.20827122916667,124.89699637500001,56.0,82.0
413,124.20827122916667,125.05385904166667,63.0,96.0
414,124.20827122916667,125.22542758333334,59.0,81.0
415,125.38474122916668,125.78425083333335,42.0,76.0
416,125.38474122916668,125.88964293750001,61.0,100.0
417,125.38474122916668,125.89944685416667,54.0,90.0
418,125.38474122916668,126.06611343750001,57.0,92.0
419,126.56121122916667,127.01954433333334,54.0,66.0
420,126.56121122916667,127.21072070833334,47.0,45.0
421,126.56121122916667,127.79895570833334,66.0,76.0
422,126.56121122916667,127.8014066875,63.0,85.0
423,126.56121122916667,127.81856354166668,59.0,92.0
424,128.62003372916666,128.93130808333333,56.0,60.0
425,128.32591622916667,129.0661119375,52.0,106.0
426,129.2082687291667,129.49013133333335,52.0,73.0
427,128.91415122916666,129.67640575000001,57.0,76.0
428,128.03179872916667,130.04895458333334,47.0,69.0
429,127.73768122916668,132.22297310416667,40.0,77.0
430,130.0906212291667,132.24748289583334,47.0,56.0
431,130.0906212291667,132.249933875,52.0,42.0
432,130.0906212291667,132.27444366666668,56.0,61.0
433,129.5023862291667,132.29405150000002,59.0,56.0
434,133.03179622916667,133.75973704166668,52.0,61.0
435,132.44356122916668,134.06610943750002,40.0,78.0
436,132.73767872916667,134.09061922916666,47.0,41.0
437,133.91414872916667,134.11758,52.0,46.0
438,133.32591372916667,134.2817956041667,59.0,66.0
439,133.62003122916667,134.73767772916668,68.0,100.0
440,134.20826622916667,134.75483458333335,64.0,46.0
441,134.50238372916667,135.01954033333334,59.0,44.0
442,135.38473622916666,136.09797116666667,56.0,66.0
443,136.2670887291667,136.4656180416667,56.0,42.0
444,135.09061872916666,136.47542195833336,51.0,29.0
445,134.79650122916667,136.5293435,44.0,65.0
446,136.5612062291667,137.30385291666667,63.0,44.0
447,135.9729712291667,137.32346075,68.0,110.0
448,135.6788537291667,137.53424495833335,59.0,60.0
449,137.73767622916668,138.45336214583335,52.0,61.0
450,137.14944122916668,138.79404825,45.0,80.0
451,138.62002872916668,138.79404825,52.0,57.0
452,138.32591122916668,139.0072834375,61.0,105.0
453,138.32591122916668,139.60532235416667,64.0,92.0
454,139.20826372916667,140.03914566666668,61.0,58.0
455,138.91414622916668,140.05630252083336,57.0,66.0
456,139.50238122916667,140.9509099166667,40.0,77.0
457,140.67885122916667,141.102870625,52.0,53.0
458,140.09061622916667,141.15189020833336,47.0,29.0
459,140.67885122916667,142.01708585416668,64.0,100.0
460,140.67885122916667,142.03669368750002,68.0,106.0
461,141.26708622916667,142.21806614583335,59.0,68.0
462,143.03179122916669,143.161693125,57.0,38.0
463,143.03179122916669,143.764634,54.0,36.0
464,142.4435562291667,143.76708497916667,49.0,33.0
465,141.8553212291667,143.79404575,42.0,90.0
466,143.03179122916669,143.99747702083334,66.0,76.0
467,143.03179122916669,144.0955161875,61.0,76.0
468,143.62002622916668,145.81855454166669,57.0,45.0
469,144.79649622916668,146.00973091666668,52.0,34.0
470,144.20826122916668,146.1396328125,45.0,78.0
471,145.38473122916668,146.53914241666666,60.0,68.0
472,145.38473122916668,146.5513973125,64.0,60.0
473,145.97296622916667,146.573456125,57.0,57.0
474,146.56120122916667,146.573456125,57.0,77.0
475,146.56120122916667,147.65678891666667,64.0,72.0
476,146.56120122916667,148.38718070833335,45.0,38.0
477,147.73767122916666,148.42394539583336,64.0,54.0
478,147.73767122916666,148.74502366666667,57.0,40.0
479,146.56120122916667,148.98031766666668,61.0,78.0
480,149.50237622916669,150.31610131250002,54.0,82.0
481,150.09061122916668,150.82100302083333,63.0,101.0
482,148.9141412291667,151.11512052083336,47.0,80.0
483,150.38472872916668,151.32590472916667,54.0,61.0
484,150.67884622916668,151.61757125,59.0,101.0
485,150.09061122916668,152.10041414583335,66.0,110.0
486,150.97296372916668,152.18374743750002,63.0,66.0
487,151.85531622916668,152.61511977083333,54.0,65.0
488,152.73766872916667,152.99992350000002,54.0,82.0
489,151.26708122916668,153.17639400000002,47.0,84.0
490,152.44355122916667,153.18619791666669,63.0,109.0
491,152.44355122916667,153.59306045833335,66.0,110.0
492,153.32590372916667,153.6861976666667,63.0,110.0
493,153.03178622916667,153.87982502083335,59.0,110.0
494,153.64453102083334,153.87982502083335,59.0,96.0
495,153.64453102083334,154.43619729166667,68.0,93.0
496,153.64453102083334,154.44109925,64.0,101.0
497,154.52688352083334,154.60531485416666,64.0,29.0
498,154.52688352083334,154.75237360416668,59.0,93.0
499,154.23276602083334,154.96315781250001,52.0,81.0
500,153.64453102083334,155.25482433333335,40.0,85.0
501,153.93864852083334,155.2891380416667,47.0,34.0
502,155.11511852083333,155.31364783333333,52.0,78.0
503,154.82100102083334,155.39943210416666,68.0,110.0
504,154.82100102083334,155.41413797916667,64.0,109.0
505,155.40923602083333,155.81364758333333,59.0,88.0
506,155.99747102083333,156.50482370833333,59.0,85.0
507,155.99747102083333,156.64943147916668,63.0,92.0
508,156.87982352083336,157.08815675000002,68.0,60.0
509,156.58570602083336,157.09796066666667,59.0,49.0
510,156.87982352083336,157.102862625,63.0,68.0
511,156.29158852083336,157.3160978125,56.0,66.0
512,157.46805852083335,157.65678391666668,56.0,81.0
513,155.99747102083333,157.65923489583335,44.0,73.0
514,157.17394102083335,157.76462700000002,68.0,106.0
515,157.17394102083335,157.77933287500002,63.0,109.0
516,157.76217602083335,158.00972491666667,59.0,72.0
517,158.35041102083335,159.3700183541667,64.0,74.0
518,158.35041102083335,159.37492031250002,61.0,68.0
519,158.35041102083335,159.3773712916667,57.0,81.0
520,158.93864602083335,159.65188095833335,52.0,54.0
521,158.35041102083335,159.90188083333334,45.0,74.0
522,159.82099852083334,159.9582533541667,52.0,38.0
523,159.52688102083334,160.16168462500002,64.0,90.0
524,160.11511602083334,160.2597237916667,57.0,85.0
525,159.52688102083334,160.26217477083335,61.0,109.0
526,160.70335102083334,161.73031129166668,66.0,78.0
527,160.70335102083334,161.75482108333335,59.0,80.0
528,160.70335102083334,161.75482108333335,63.0,74.0
529,161.29158602083334,162.12001697916668,54.0,57.0
530,162.17393852083333,162.47540895833333,54.0,80.0
531,160.70335102083334,162.52442854166668,47.0,72.0
532,161.87982102083333,162.55874225000002,66.0,110.0
533,161.87982102083333,162.5955069375,63.0,110.0
534,162.46805602083336,162.91658520833334,59.0,85.0
535,163.05629102083336,164.0955061875,61.0,96.0
536,163.05629102083336,164.09795716666667,64.0,81.0
537,163.05629102083336,164.10040814583334,57.0,97.0
538,163.64452602083335,164.43619229166669,52.0,46.0
539,164.52687852083335,164.6690353125,52.0,53.0
540,163.05629102083336,164.70089804166668,45.0,74.0
541,164.23276102083335,164.85040777083336,64.0,92.0
542,164.82099602083335,165.12736841666668,57.0,77.0
543,164.23276102083335,165.24011345833335,61.0,110.0
544,165.40923102083335,165.85776020833333,68.0,80.0
545,165.40923102083335,165.8602111875,56.0,66.0
546,165.40923102083335,165.98766210416667,63.0,74.0
547,165.40923102083335,166.0587405,59.0,84.0
548,165.40923102083335,166.23276002083335,44.0,62.0
549,166.58570102083334,167.1494262291667,49.0,69.0
550,166.58570102083334,167.24256343750002,64.0,76.0
551,166.58570102083334,167.28177910416667,61.0,65.0
552,166.58570102083334,167.28913204166668,56.0,81.0
553,167.76217102083334,168.7719744375,66.0,78.0
554,167.76217102083334,168.78422933333334,57.0,84.0
555,167.76217102083334,168.79648422916668,61.0,96.0
556,168.35040602083333,169.06364095833334,54.0,82.0
557,167.76217102083334,169.36511139583334,42.0,84.0
558,169.23275852083336,169.50726818750002,54.0,64.0
559,168.93864102083336,169.57589560416667,66.0,109.0
560,169.52687602083336,169.91167975000002,57.0,82.0
561,168.93864102083336,170.00481695833335,61.0,110.0
562,170.11511102083335,170.85285575,66.0,109.0
563,170.11511102083335,170.85530672916667,59.0,86.0
564,170.11511102083335,170.87246358333334,63.0,110.0
565,170.99746352083335,171.19109087500001,66.0,60.0
566,170.99746352083335,171.19599283333335,59.0,57.0
567,170.99746352083335,171.2156006666667,63.0,60.0
568,170.70334602083335,171.44354172916667,54.0,45.0
569,171.58569852083335,171.7572670625,54.0,92.0
570,170.11511102083335,171.81363958333336,47.0,78.0
571,171.29158102083335,171.94354147916667,63.0,110.0
572,171.29158102083335,171.99501204166668,66.0,110.0
573,172.17393352083334,172.37981577083335,63.0,110.0
574,171.87981602083335,172.39942360416669,59.0,110.0
575,172.46805102083334,173.14697225,59.0,84.0
576,172.46805102083334,173.15922714583334,68.0,110.0
577,172.46805102083334,173.27442316666668,64.0,109.0
578,173.35040352083334,173.4067760416667,68.0,34.0
579,173.35040352083334,173.51461912500002,64.0,34.0
580,173.05628602083334,173.73030529166667,52.0,96.0
581,173.35040352083334,173.75236410416667,59.0,86.0
582,172.46805102083334,174.0023639791667,40.0,90.0
583,172.76216852083334,174.08814825000002,47.0,37.0
584,173.93863852083334,174.12981489583333,52.0,88.0
585,173.64452102083334,174.2278540625,68.0,110.0
586,173.64452102083334,174.24010895833334,64.0,109.0
587,174.23275602083334,174.67393227083335,59.0,96.0
588,174.82099102083333,175.28667706250002,59.0,78.0
589,174.82099102083333,175.5023632291667,63.0,100.0
590,174.82099102083333,175.5097161666667,68.0,88.0
591,175.40922602083336,175.87491206250002,59.0,48.0
592,175.70334352083336,175.8920689166667,68.0,56.0
593,175.70334352083336,175.89451989583335,63.0,69.0
594,175.11510852083336,176.11265704166667,56.0,77.0
595,174.82099102083333,176.48520587500002,44.0,92.0
596,176.29157852083335,176.49991175000002,56.0,85.0
597,175.99746102083336,176.62000972916667,68.0,110.0
598,175.99746102083336,176.62246070833334,63.0,110.0
599,176.58569602083335,177.14206829166667,59.0,86.0
600,177.17393102083335,177.9803031666667,64.0,92.0
601,177.17393102083335,178.17393052083335,61.0,110.0
602,177.76216602083335,178.49745977083336,52.0,50.0
603,178.35040102083335,178.66167537500002,57.0,72.0
604,177.17393102083335,178.87245958333335,45.0,80.0
605,178.64451852083334,178.9484399375,52.0,36.0
606,178.35040102083335,178.95334189583335,64.0,88.0
607,178.93863602083334,179.31118485416667,57.0,92.0
608,178.35040102083335,179.44108675,61.0,105.0
609,179.52687102083334,180.49990975,66.0,88.0
610,179.52687102083334,180.50236072916667,59.0,84.0
611,179.52687102083334,180.51951758333334,63.0,72.0
612,180.11510602083334,180.91657620833334,54.0,48.0
613,180.99745852083333,181.2278505625,54.0,56.0
614,179.52687102083334,181.29892895833333,47.0,66.0
615,180.70334102083334,181.34059560416668,66.0,100.0
616,180.70334102083334,181.3847132291667,63.0,105.0
617,181.29157602083333,181.66167387500002,59.0,72.0
618,181.87981102083336,182.94598695833335,57.0,86.0
619,181.87981102083336,182.95088891666668,61.0,81.0
620,181.87981102083336,182.95088891666668,64.0,74.0
621,182.46804602083336,183.20333977083334,52.0,30.0
622,183.35039852083335,183.52686902083335,52.0,49.0
623,181.87981102083336,183.5611827291667,45.0,70.0
624,183.05628102083335,183.5954964375,64.0,81.0
625,183.64451602083335,183.9925550625,57.0,69.0
626,183.05628102083335,184.08814325,61.0,105.0
627,184.23275102083335,184.68128020833333,56.0,56.0
628,184.23275102083335,184.77196643750003,68.0,80.0
629,184.23275102083335,184.93618204166668,63.0,86.0
630,184.23275102083335,184.97539770833336,59.0,85.0
631,184.23275102083335,185.23520150000002,44.0,64.0
632,185.40922102083334,185.999907,49.0,72.0
633,185.40922102083334,186.02931875000002,64.0,78.0
634,185.40922102083334,186.04157364583335,56.0,96.0
635,185.40922102083334,186.08324029166667,61.0,70.0
636,186.58569102083334,187.61265129166668,66.0,81.0
637,186.58569102083334,187.6420630416667,61.0,100.0
638,186.58569102083334,187.90676879166668,57.0,86.0
639,187.17392602083333,187.96069033333336,54.0,72.0
640,186.58569102083334,188.14696475000002,42.0,78.0
641,188.05627852083336,188.29157252083334,54.0,60.0
642,187.76216102083336,188.37980777083334,66.0,106.0
643,188.35039602083336,188.71314093750001,57.0,81.0
644,187.76216102083336,188.7866703125,61.0,110.0
645,188.93863102083336,189.92392464583335,66.0,106.0
646,188.93863102083336,189.9778461875,63.0,110.0
647,188.93863102083336,189.985199125,59.0,97.0
648,189.52686602083335,190.2523558541667,54.0,48.0
649,188.93863102083336,191.2450024166667,47.0,77.0
650,190.40921852083335,191.26706122916667,54.0,49.0
651,190.70333602083335,191.26706122916667,59.0,78.0
652,190.11510102083335,191.26706122916667,63.0,110.0
653,190.11510102083335,191.26706122916667,66.0,110.0
654,191.26706122916667,191.55382579166667,37.0,110.0
655,191.26706122916667,191.5954924375,49.0,110.0
656,191.26706122916667,191.61510027083335,64.0,109.0
657,191.26706122916667,191.71068845833335,57.0,110.0
658,191.26706122916667,191.75970804166667,61.0,110.0
659,192.14941372916667,192.9778446875,51.0,110.0
660,192.14941372916667,192.99745252083335,39.0,110.0
661,192.14941372916667,193.0391191666667,66.0,110.0
662,192.14941372916667,193.04892308333334,63.0,110.0
663,192.14941372916667,193.10529560416668,59.0,110.0
664,193.3258837291667,194.09794216666668,52.0,80.0
665,193.3258837291667,194.3332361666667,59.0,110.0
666,193.3258837291667,194.61019681250002,68.0,110.0
667,193.3258837291667,194.62490268750003,64.0,110.0
668,194.2082362291667,194.89696137500002,52.0,80.0
669,194.50235372916669,194.9484319375,59.0,110.0
670,195.09058872916668,195.46068658333334,52.0,106.0
671,194.79647122916668,195.53911791666667,68.0,110.0
672,194.79647122916668,195.544019875,64.0,110.0
673,193.3258837291667,195.67392177083335,40.0,82.0
674,195.38470622916668,195.97294122916668,59.0,110.0
675,195.67882372916668,195.97294122916668,64.0,88.0
676,195.67882372916668,195.97294122916668,68.0,105.0
677,196.56117622916668,197.2082347291667,56.0,110.0
678,196.26705872916668,197.54646985416667,51.0,106.0
679,197.44352872916667,197.58078356250002,56.0,110.0
680,195.97294122916668,197.58813650000002,44.0,110.0
681,196.85529372916668,197.82588147916667,59.0,109.0
682,197.14941122916667,198.26705772916668,68.0,110.0
683,197.73764622916667,198.2964694791667,63.0,110.0
684,198.03176372916667,198.35039102083334,59.0,110.0
685,198.9141162291667,199.57097864583335,49.0,110.0
686,198.61999872916667,199.8994098541667,44.0,42.0
687,198.32588122916667,199.97539020833335,37.0,110.0
688,199.2082337291667,200.1052921041667,52.0,106.0
689,199.7964687291667,200.10774308333336,49.0,110.0
690,199.5023512291667,200.65676241666668,61.0,110.0
691,200.3847037291667,200.65921339583335,52.0,110.0
692,200.0905862291667,200.67637025000002,56.0,110.0
693,201.26705622916668,201.97784018750002,56.0,110.0
694,200.97293872916669,202.249898875,51.0,32.0
695,202.14940872916668,202.2817616041667,56.0,110.0
696,200.6788212291667,202.338134125,44.0,90.0
697,201.56117372916668,202.4949967916667,59.0,106.0
698,201.85529122916668,203.00970241666667,68.0,110.0
699,202.44352622916668,203.05627102083335,63.0,110.0
700,202.73764372916668,203.06117297916668,59.0,102.0
701,203.61999622916667,204.32587822916668,49.0,106.0
702,203.32587872916667,204.63715258333335,44.0,34.0
703,203.03176122916668,204.67391727083336,37.0,101.0
704,204.50234872916667,204.75725056250002,49.0,110.0
705,203.91411372916667,204.88225050000003,52.0,106.0
706,205.0905837291667,205.2744071666667,52.0,88.0
707,204.20823122916667,205.294015,61.0,110.0
708,204.79646622916667,205.29891695833334,56.0,110.0
709,205.9729362291667,206.2940145,57.0,109.0
710,206.2670537291667,206.49989675,61.0,110.0
711,205.6788187291667,206.71803389583334,52.0,86.0
712,205.3847012291667,207.5072491875,45.0,110.0
713,206.5611712291667,207.64205304166668,64.0,110.0
714,207.1494062291667,207.64450402083335,61.0,110.0
715,207.44352372916669,207.6714647916667,57.0,110.0
716,206.8552887291667,207.78911179166667,52.0,110.0
717,207.73764122916668,208.14450377083335,57.0,110.0
718,207.73764122916668,208.44597420833335,61.0,110.0
719,207.73764122916668,208.49009183333334,64.0,105.0
720,208.32587622916668,208.79156227083334,57.0,106.0
721,208.61999372916668,208.82342500000001,61.0,90.0
722,208.61999372916668,208.82832695833335,64.0,80.0
723,208.03175872916668,209.04401312500002,52.0,110.0
724,208.91411122916668,209.23518950000002,57.0,110.0
725,207.73764122916668,209.31116985416668,45.0,106.0
726,209.20822872916668,209.33567964583335,52.0,109.0
727,208.91411122916668,209.55626777083336,61.0,110.0
728,208.91411122916668,209.82342450000002,64.0,110.0
729,209.50234622916668,210.01214989583335,57.0,110.0
730,209.79646372916667,210.02195381250002,61.0,110.0
731,210.09058122916667,210.15920864583336,57.0,97.0
732,210.09058122916667,211.05871800000003,61.0,110.0
733,210.09058122916667,211.05871800000003,66.0,110.0
734,210.97293372916667,211.17391402083334,57.0,81.0
735,210.67881622916667,211.33812962500002,54.0,110.0
736,211.26705122916667,211.61509027083335,57.0,58.0
737,210.38469872916667,211.62244320833335,49.0,69.0
738,210.09058122916667,211.72538433333335,42.0,106.0
739,211.5611687291667,211.91656070833335,54.0,110.0
740,211.26705122916667,211.93126658333335,61.0,110.0
741,211.26705122916667,212.06361945833333,66.0,110.0
742,211.8552862291667,212.191070375,57.0,110.0
743,212.1494037291667,212.34303108333336,61.0,110.0
744,212.4435212291667,212.85038377083336,59.0,110.0
745,212.4435212291667,213.16656008333334,63.0,110.0
746,212.4435212291667,213.16656008333334,66.0,110.0
747,213.3258737291667,213.50479520833335,63.0,93.0
748,213.3258737291667,213.51459912500002,66.0,109.0
749,213.0317562291667,213.52930500000002,59.0,68.0
750,212.7376387291667,213.76950095833334,54.0,105.0
751,213.6199912291667,213.91410872916668,59.0,56.0
752,213.6199912291667,214.28910854166668,63.0,110.0
753,213.6199912291667,214.3258732291667,66.0,110.0
754,214.20822622916668,214.59302995833335,59.0,110.0
755,214.50234372916668,214.65675541666667,66.0,105.0
756,214.50234372916668,214.67391227083334,63.0,110.0
757,212.4435212291667,214.67636325,47.0,109.0
758,213.91410872916668,214.691069125,54.0,110.0
759,214.79646122916668,216.57097014583334,54.0,110.0
760,214.79646122916668,216.88469547916668,47.0,93.0
761,214.79646122916668,216.91655820833336,59.0,106.0
762,214.79646122916668,216.96067583333334,63.0,110.0
763,214.79646122916668,216.98273464583335,66.0,110.0
764,218.3258712291667,218.38714570833335,68.0,80.0
765,218.3258712291667,218.38959668750002,64.0,88.0
766,218.0317537291667,218.44106725,59.0,101.0
767,217.14940122916667,218.4631260625,40.0,110.0
768,217.7376362291667,218.47538095833335,52.0,110.0
769,217.44351872916667,218.57587110416668,47.0,80.0
770,218.6199887291667,219.21067470833336,42.0,110.0
771,218.6199887291667,219.27685114583335,61.0,110.0
772,218.6199887291667,219.3748903125,54.0,110.0
773,218.6199887291667,219.38224325000002,57.0,110.0
774,220.38469372916668,220.74008570833334,63.0,110.0
775,219.7964587291667,220.8038111666667,56.0,100.0
776,220.0905762291667,221.11508552083336,59.0,84.0
777,220.97292872916668,221.35528147916668,56.0,110.0
778,219.5023412291667,221.3846932291667,44.0,110.0
779,220.67881122916668,221.80135968750002,68.0,110.0
780,221.56116372916668,221.84057535416667,59.0,110.0
781,221.26704622916668,221.85037927083334,63.0,110.0
782,221.87979102083335,222.8993983541667,64.0,74.0
783,221.87979102083335,222.90430031250003,61.0,68.0
784,221.87979102083335,222.9067512916667,57.0,81.0
785,222.46802602083335,223.18126095833335,52.0,54.0
786,221.87979102083335,223.43126083333334,45.0,74.0
787,223.35037852083335,223.4876333541667,52.0,38.0
788,223.05626102083335,223.69106462500002,64.0,90.0
789,223.64449602083334,223.7891037916667,57.0,85.0
790,223.05626102083335,223.79155477083336,61.0,109.0
791,224.23273102083334,225.25969129166668,66.0,78.0
792,224.23273102083334,225.28420108333336,59.0,80.0
793,224.23273102083334,225.28420108333336,63.0,74.0
794,224.82096602083334,225.64939697916668,54.0,57.0
795,225.70331852083336,226.00478895833334,54.0,80.0
796,224.23273102083334,226.05380854166668,47.0,72.0
797,225.40920102083334,226.08812225000003,66.0,110.0
798,225.40920102083334,226.1248869375,63.0,110.0
799,225.99743602083336,226.44596520833335,59.0,85.0
800,226.58567102083336,227.6248861875,61.0,96.0
801,226.58567102083336,227.62733716666668,64.0,81.0
802,226.58567102083336,227.62978814583334,57.0,97.0
803,227.17390602083336,227.9655722916667,52.0,46.0
804,228.05625852083335,228.1984153125,52.0,53.0
805,226.58567102083336,228.23027804166668,45.0,74.0
806,227.76214102083335,228.37978777083336,64.0,92.0
807,228.35037602083335,228.6567484166667,57.0,77.0
808,227.76214102083335,228.76949345833336,61.0,110.0
809,228.93861102083335,229.38714020833336,68.0,80.0
810,228.93861102083335,229.3895911875,56.0,66.0
811,228.93861102083335,229.51704210416668,63.0,74.0
812,228.93861102083335,229.58812050000003,59.0,84.0
813,228.93861102083335,229.76214002083336,44.0,62.0
814,230.11508102083334,230.6788062291667,49.0,69.0
815,230.11508102083334,230.77194343750003,64.0,76.0
816,230.11508102083334,230.81115910416668,61.0,65.0
817,230.11508102083334,230.81851204166668,56.0,81.0
818,231.29155102083334,232.3013544375,66.0,78.0
819,231.29155102083334,232.31360933333335,57.0,84.0
820,231.29155102083334,232.32586422916668,61.0,96.0
821,231.87978602083334,232.59302095833334,54.0,82.0
822,231.29155102083334,232.89449139583334,42.0,84.0
823,232.76213852083336,233.03664818750002,54.0,64.0
824,232.46802102083336,233.10527560416668,66.0,109.0
825,233.05625602083336,233.44105975000002,57.0,82.0
826,232.46802102083336,233.53419695833335,61.0,110.0
827,233.64449102083336,234.38223575,66.0,109.0
828,233.64449102083336,234.38468672916667,59.0,86.0
829,233.64449102083336,234.40184358333335,63.0,110.0
830,234.52684352083335,234.72047087500002,66.0,60.0
831,234.52684352083335,234.72537283333335,59.0,57.0
832,234.52684352083335,234.7449806666667,63.0,60.0
833,234.23272602083335,234.97292172916667,54.0,45.0
834,235.11507852083335,235.2866470625,54.0,92.0
835,233.64449102083336,235.34301958333336,47.0,78.0
836,234.82096102083335,235.47292147916667,63.0,110.0
837,234.82096102083335,235.5243920416667,66.0,110.0
838,235.70331352083335,235.90919577083335,63.0,110.0
839,235.40919602083335,235.9288036041667,59.0,110.0
840,235.99743102083335,236.67635225,59.0,84.0
841,235.99743102083335,236.68860714583334,68.0,110.0
842,235.99743102083335,236.80380316666668,64.0,109.0
843,236.87978352083334,236.9361560416667,68.0,34.0
844,236.87978352083334,237.04399912500003,64.0,34.0
845,236.58566602083334,237.25968529166667,52.0,96.0
846,236.87978352083334,237.28174410416668,59.0,86.0
847,235.99743102083335,237.5317439791667,40.0,90.0
848,236.29154852083335,237.61752825000002,47.0,37.0
849,237.46801852083334,237.65919489583334,52.0,88.0
850,237.17390102083334,237.7572340625,68.0,110.0
851,237.17390102083334,237.76948895833334,64.0,109.0
852,237.76213602083334,238.20331227083335,59.0,96.0
853,238.35037102083336,238.81605706250002,59.0,78.0
854,238.35037102083336,239.0317432291667,63.0,100.0
855,238.35037102083336,239.0390961666667,68.0,88.0
856,238.93860602083336,239.40429206250002,59.0,48.0
857,239.23272352083336,239.4214489166667,68.0,56.0
858,239.23272352083336,239.42389989583336,63.0,69.0
859,238.64448852083336,239.6420370416667,56.0,77.0
860,238.35037102083336,240.01458587500002,44.0,92.0
861,239.82095852083336,240.02929175000003,56.0,85.0
862,239.52684102083336,240.14938972916667,68.0,110.0
863,239.52684102083336,240.15184070833334,63.0,110.0
864,240.11507602083336,240.67144829166668,59.0,86.0
865,240.70331102083335,241.5096831666667,64.0,92.0
866,240.70331102083335,241.70331052083336,61.0,110.0
867,241.29154602083335,242.02683977083336,52.0,50.0
868,241.87978102083335,242.19105537500002,57.0,72.0
869,240.70331102083335,242.40183958333336,45.0,80.0
870,242.17389852083335,242.47781993750002,52.0,36.0
871,241.87978102083335,242.48272189583335,64.0,88.0
872,242.46801602083335,242.84056485416667,57.0,92.0
873,241.87978102083335,242.97046675,61.0,105.0
874,243.05625102083334,244.02928975,66.0,88.0
875,243.05625102083334,244.03174072916667,59.0,84.0
876,243.05625102083334,244.04889758333334,63.0,72.0
877,243.64448602083334,244.44595620833334,54.0,48.0
878,244.52683852083334,244.7572305625,54.0,56.0
879,243.05625102083334,244.82830895833334,47.0,66.0
880,244.23272102083334,244.86997560416668,66.0,100.0
881,244.23272102083334,244.9140932291667,63.0,105.0
882,244.82095602083336,245.19105387500002,59.0,72.0
883,245.40919102083336,246.47536695833335,57.0,86.0
884,245.40919102083336,246.4802689166667,61.0,81.0
885,245.40919102083336,246.4802689166667,64.0,74.0
886,245.99742602083336,246.73271977083334,52.0,30.0
887,246.87977852083336,247.05624902083335,52.0,49.0
888,245.40919102083336,247.0905627291667,45.0,70.0
889,246.58566102083336,247.1248764375,64.0,81.0
890,247.17389602083335,247.5219350625,57.0,69.0
891,246.58566102083336,247.61752325,61.0,105.0
892,247.76213102083335,248.21066020833334,56.0,56.0
893,247.76213102083335,248.30134643750003,68.0,80.0
894,247.76213102083335,248.4655620416667,63.0,86.0
895,247.76213102083335,248.50477770833336,59.0,85.0
896,247.76213102083335,248.76458150000002,44.0,64.0
897,248.93860102083335,249.529287,49.0,72.0
898,248.93860102083335,249.55869875000002,64.0,78.0
899,248.93860102083335,249.57095364583336,56.0,96.0
900,248.93860102083335,249.61262029166667,61.0,70.0
901,250.11507102083334,251.14203129166668,66.0,81.0
902,250.11507102083334,251.1714430416667,61.0,100.0
903,250.11507102083334,251.43614879166668,57.0,86.0
904,250.70330602083334,251.49007033333336,54.0,72.0
905,250.11507102083334,251.67634475000003,42.0,78.0
906,251.58565852083336,251.82095252083334,54.0,60.0
907,251.29154102083336,251.90918777083334,66.0,106.0
908,251.87977602083336,252.24252093750002,57.0,81.0
909,251.29154102083336,252.3160503125,61.0,110.0
910,252.44350122916669,252.70085404166667,66.0,109.0
911,252.44350122916669,252.705756,54.0,110.0
912,252.85281475000002,253.08810875000003,56.0,110.0
913,252.85036377083335,253.10526560416668,68.0,110.0
914,252.84301083333335,253.13712833333335,44.0,110.0
915,253.2890890416667,253.44840268750002,69.0,109.0
916,253.28663806250003,253.47536345833336,57.0,109.0
917,253.27683414583336,253.53908891666669,45.0,110.0
918,253.61997122916668,254.18614741666667,47.0,76.0
919,253.63467710416668,254.18614741666667,47.0,110.0
920,253.61997122916668,259.3944781458334,63.0,110.0
921,253.61997122916668,259.41163500000005,54.0,105.0
922,253.61997122916668,259.4189879375,59.0,101.0
923,253.61997122916668,259.4238898958333,66.0,93.0
924,253.61997122916668,259.4336938125,71.0,90.0
925,259.45330164583333,261.3258497291667,40.0,72.0
926,259.8160465625,261.38957518750004,47.0,52.0
927,260.13712483333336,261.67633975,52.0,74.0
928,261.28418308333335,261.9189866875,64.0,52.0
929,260.6934971041667,261.9361435416667,68.0,96.0
930,260.40428156250005,262.0072219375,59.0,52.0
931,262.73271177083336,263.07094689583334,61.0,57.0
932,262.44594720833334,263.1199664791667,57.0,65.0
933,262.12977089583336,263.2743781666667,52.0,60.0
934,263.40673104166666,263.52928,52.0,22.0
935,261.8552612291667,263.61506427083333,45.0,69.0
936,263.05624102083334,264.4336913125,64.0,86.0
937,263.926338625,264.79643622916666,57.0,33.0
938,263.602809375,265.21800464583333,61.0,42.0
939,264.5219265625,266.04888658333334,47.0,56.0
940,264.23026004166667,266.0758473541667,40.0,61.0
941,265.411632,266.1199649791667,68.0,92.0
942,264.81849504166667,266.20329827083333,52.0,88.0
943,265.9802591666667,266.2425139375,64.0,77.0
944,265.10035764583336,266.29888645833336,59.0,61.0
945,266.7621215208334,267.5243760416667,64.0,57.0
946,266.691043125,267.5635917083334,49.0,37.0
947,266.62976864583334,267.6640818541667,57.0,66.0
948,266.6934941041667,267.6714347916667,61.0,45.0
949,268.3724148333334,269.28417908333336,51.0,25.0
950,268.31359133333336,269.6199632291667,63.0,57.0
951,268.38466972916666,269.71064945833336,66.0,80.0
952,268.19594433333333,269.9434924791667,59.0,30.0
953,270.9434919791667,271.8331974166667,64.0,37.0
954,270.82094302083334,271.838099375,68.0,53.0
955,271.014570375,271.8920209166667,59.0,34.0
956,272.30133443750003,272.69839306250003,56.0,65.0
957,272.5341774583334,272.808687125,59.0,61.0
958,272.7694714583333,272.8552557291667,64.0,64.0
959,273.0660399375,273.41652995833334,68.0,28.0
960,273.367510375,273.4704515,71.0,46.0
961,273.67633375,274.3503530208334,76.0,56.0
962,274.0072159375,274.38221575,80.0,64.0
963,274.3405491041667,274.43123533333335,83.0,65.0
964,271.7694719583333,276.7155479166667,47.0,70.0
965,272.073393375,276.7302537916667,52.0,97.0
966,275.07829383333336,276.749861625,92.0,65.0
967,276.0390776666667,276.7645675,100.0,32.0
968,275.4949602916667,276.7719204375,95.0,34.0
969,271.0831977916667,276.77682239583334,40.0,102.0
970,274.7008430416667,276.77682239583334,88.0,58.0
