,start,end,pitch,velocity
0,15.933461999999997,16.510961999999996,71.0,86.0
1,16.543461999999998,16.985961999999997,69.0,63.0
2,16.995962,17.426565141666664,67.0,59.0
3,17.376996212499996,19.76912575,71.0,72.0
4,20.253315575,20.653513287499997,71.0,89.0
5,20.68068720625,21.00677423125,69.0,73.0
6,21.10558848125,21.64906685625,67.0,69.0
7,21.6416557875,23.9539092375,66.0,61.0
8,24.126834175,24.361518018749997,67.0,71.0
9,24.536913312499998,25.895703958333332,64.0,73.0
10,25.804357816666663,26.01108855833333,76.0,75.0
11,26.237050066666665,27.025511499999997,76.0,76.0
12,27.394855381249997,27.556620143749996,76.0,77.0
13,27.882600649999997,28.1914242875,74.0,77.0
14,28.2110321375,28.647306799999996,71.0,53.0
15,28.637502874999996,30.220836762499996,74.0,63.0
16,30.760052637499996,31.019856649999998,74.0,79.0
17,31.068876274999997,31.39975874375,78.0,77.0
18,31.37524893125,31.875249106249996,79.0,78.0
19,31.943876581249995,33.152210337499994,72.0,74.0
20,34.115445968749995,34.3678970375,71.0,71.0
21,34.41936764374999,34.833583475,76.0,67.0
22,34.813975625,35.382603274999994,78.0,77.0
23,35.38015229375,37.470839299999994,74.0,67.0
24,37.60319228749999,37.91936886875,74.0,72.0
25,37.90466298125,38.22329054375,72.0,74.0
26,38.19878073125,38.554173012499994,71.0,70.0
27,38.537016143749995,40.24289909375,76.0,74.0
28,41.23799748125,41.637507424999995,76.0,79.0
29,41.642409387499995,42.03701736875,74.0,74.0
30,42.07378208749999,42.35074296875,72.0,73.0
31,42.480644975,43.62892933333333,71.0,69.0
32,44.096984829166665,44.9247624,69.0,78.0
33,44.90531796041666,45.16642900625,71.0,76.0
34,45.19414639166666,45.43599425,69.0,58.0
35,45.449581208333335,45.76208125,67.0,61.0
36,45.721320375,47.777026487499995,71.0,63.0
37,49.112443,49.45312930625,71.0,75.0
38,49.4359724375,49.752149018749996,69.0,74.0
39,49.747247056249996,50.32077666875,67.0,68.0
40,50.27665900625,51.8673458375,66.0,66.0
41,52.7595030125,53.195777675,66.0,66.0
42,53.31587575625,53.57077780625,67.0,59.0
43,53.68352294375,54.144307418749996,67.0,69.0
44,54.161464287499996,55.1320528625,64.0,71.0
45,55.1124450125,55.399209818749995,76.0,73.0
46,55.51685691875,55.9555825625,76.0,79.0
47,56.39430820625,56.71538675,76.0,76.0
48,56.90411230625,57.2104849625,74.0,74.0
49,57.24724968125,57.627151775,71.0,63.0
50,57.614896868749994,59.26440725,74.0,60.0
51,59.685976025,60.02666241875,74.0,69.0
52,59.999701625,60.293819375,78.0,88.0
53,60.29136839375,60.74725090625,79.0,62.0
54,60.867348987499994,62.1075455,72.0,74.0
55,63.19823215625,63.4555851875,69.0,79.0
56,63.489898925,63.74234999375,76.0,74.0
57,63.818330412499996,64.2202913375,78.0,95.0
58,64.3379384375,65.136958325,74.0,73.0
59,65.40901724375,65.72274284375,81.0,77.0
60,65.7398997125,66.63450786875,79.0,72.0
61,66.73744908124999,67.02176290625,76.0,71.0
62,66.99725309375,67.2595080875,78.0,65.0
63,67.27666495625,67.44333168125,79.0,71.0
64,67.59529251875,68.1026456375,79.0,82.0
65,69.02911655,69.18352836875,72.0,72.0
66,69.3379401875,70.03156788125,72.0,77.0
67,70.25460717499999,70.58548964375,76.0,72.0
68,70.5830386625,70.882058375,78.0,79.0
69,71.00705841875,71.20313691875,79.0,89.0
70,71.37960756875,73.46049065,81.0,90.0
71,73.76686330625,74.27176544375,74.0,92.0
72,74.6712753875,75.46741154166666,83.0,88.0
73,75.99710278333333,76.15472716666667,76.0,88.0
74,76.43698478333333,77.11880188333333,76.0,95.0
75,77.32591299166667,77.51836136666667,76.0,85.0
76,77.61000345000001,77.78962193333334,78.0,88.0
77,77.90875664166667,78.06271534166667,79.0,66.0
78,78.18001720833334,78.550251225,81.0,89.0
79,78.57957669166667,78.96630628333334,83.0,86.0
80,79.050617,79.36769860833334,81.0,89.0
81,79.48683331666668,79.73609978333333,74.0,79.0
82,79.7544282,80.86879593333333,79.0,79.0
83,81.25919120833333,81.44797390000001,76.0,86.0
84,81.497460625,81.66974774166667,78.0,79.0
85,81.73206435833333,82.542180375,79.0,90.0
86,82.98572805833334,83.27165135833333,72.0,85.0
87,83.42927574166667,84.00845370833333,72.0,89.0
88,84.329201,84.5711361,79.0,92.0
89,84.60779293333334,84.96519705833333,78.0,83.0
90,84.93770443333334,85.07333471666666,76.0,67.0
91,85.22912625833334,86.08139763333334,76.0,83.0
92,86.08323047500001,86.87318523333333,74.0,82.0
93,86.97215868333333,87.622817475,84.0,107.0
94,87.86658541666667,88.139678825,83.0,97.0
95,88.304634575,88.52274273333333,86.0,112.0
96,89.184398575,89.29253623333334,76.0,85.0
97,88.755513625,89.33652443333334,83.0,107.0
98,89.4318322,89.98535038333334,76.0,95.0
99,91.36548015833333,91.5652599,83.0,100.0
100,91.68622745,91.900669925,81.0,90.0
101,92.00330905833334,92.15360207500001,79.0,74.0
102,92.27273678333333,92.60264828333334,81.0,95.0
103,92.703454575,92.80609370833334,74.0,96.0
104,92.934392625,93.59971415,74.0,99.0
105,93.56305731666667,93.9186286,81.0,102.0
106,93.99927363333333,94.671926525,79.0,99.0
107,95.16129525,95.33908089166667,76.0,102.0
108,95.53702779166667,95.672658075,78.0,96.0
109,95.78629425833333,96.398463375,79.0,96.0
110,98.76466196666667,98.92228635000001,76.0,92.0
111,99.11290188333334,99.31634730833333,78.0,92.0
112,99.48496874166666,100.489365975,79.0,85.0
113,130.14459493333334,130.48600413333332,71.0,82.0
114,130.43828026666665,130.73563666666666,69.0,66.0
115,130.7319656,131.02014433333332,67.0,66.0
116,131.02565093333334,132.8134604,71.0,71.0
117,133.66881893333334,133.8597144,71.0,92.0
118,133.96250426666666,134.140551,69.0,79.0
119,134.54987493333334,134.8619156,67.0,77.0
120,134.84356026666666,136.66991593333333,66.0,74.0
121,137.48672826666666,137.6482552,67.0,70.0
122,138.07409893333335,139.41770933333333,64.0,75.0
123,139.24884026666666,139.42321593333332,76.0,75.0
124,139.83621093333332,140.6878984,76.0,81.0
125,140.71726693333332,140.89531366666665,76.0,88.0
126,141.3046376,141.52857266666666,74.0,78.0
127,141.59832293333332,142.02783773333334,71.0,79.0
128,142.18569359999998,143.54765933333334,74.0,70.0
129,144.24149093333332,144.53334073333332,74.0,85.0
130,144.53517626666667,144.81968393333332,78.0,93.0
131,144.82886159999998,145.23267893333332,79.0,83.0
132,145.41623226666667,146.695599,72.0,83.0
133,147.76571493333333,148.30719726666666,69.0,83.0
134,148.05940026666667,148.33840133333334,76.0,76.0
135,148.64677093333333,149.25249693333333,78.0,82.0
136,149.2341416,150.32628393333334,74.0,76.0
137,151.28993893333333,151.57628213333334,74.0,96.0
138,151.58362426666667,151.85711873333332,72.0,78.0
139,151.8773096,152.18200813333334,71.0,82.0
140,152.17099493333333,153.42099313333333,76.0,86.0
141,154.81416293333334,155.00138733333333,76.0,96.0
142,155.10784826666668,155.3574808,74.0,79.0
143,155.4015336,155.57407373333334,72.0,59.0
144,155.69521893333334,157.15079686666667,71.0,90.0
145,157.1636456,157.3728964,69.0,78.0
146,157.45733093333334,157.79506906666666,69.0,78.0
147,158.3750976,158.66511186666668,71.0,95.0
148,158.75138193333333,158.98265913333333,69.0,71.0
149,159.07076473333333,159.66364199999998,67.0,85.0
150,159.67832626666666,160.90629806666666,71.0,75.0
151,161.86261093333331,162.0535064,71.0,92.0
152,162.15629626666666,162.334343,69.0,79.0
153,162.74366693333332,163.0557076,67.0,77.0
154,163.03735226666666,164.86370793333333,66.0,74.0
155,165.38316386666668,165.7649548,66.0,86.0
156,165.94300153333333,166.21833153333333,67.0,89.0
157,166.26789093333332,167.61150133333334,64.0,75.0
158,167.67941606666665,167.87581813333333,76.0,83.0
159,168.02082526666666,168.33470146666667,76.0,88.0
160,168.91105893333332,169.08910566666668,76.0,88.0
161,169.4984296,169.72236466666666,74.0,78.0
162,169.79211493333332,170.22162973333332,71.0,79.0
163,170.3794856,171.74145133333332,74.0,70.0
164,172.43528293333333,172.72713273333335,74.0,85.0
165,172.72896826666667,173.01347593333332,78.0,93.0
166,173.0226536,173.42647093333335,79.0,83.0
167,173.61002426666667,174.889391,72.0,83.0
168,175.95950693333333,176.50098926666666,69.0,83.0
169,176.25319226666664,176.53219333333334,76.0,76.0
170,176.54687760000002,177.1526036,78.0,82.0
171,177.13424826666665,178.2263906,74.0,76.0
172,178.1566403333333,178.58431960000001,81.0,81.0
173,178.63020793333334,179.2340984,79.0,90.0
174,179.4433492,179.72785686666668,76.0,89.0
175,179.75538986666666,179.98116046666667,78.0,88.0
176,180.04723966666666,180.20326,79.0,90.0
177,180.34459606666667,181.21830993333333,79.0,95.0
178,181.77998313333333,181.9213192,72.0,92.0
179,182.10487253333332,182.46463706666668,72.0,96.0
180,182.9914351333333,183.2153702,76.0,97.0
181,183.26676513333334,183.42645653333335,78.0,92.0
182,183.56412153333332,183.69811546666665,79.0,92.0
183,183.86882006666667,185.83467626666666,81.0,107.0
184,186.52116573333333,187.35633339999998,74.0,107.0
185,187.41323493333334,188.2043498,83.0,88.0
186,188.73481893333332,188.8926748,76.0,88.0
187,189.17534693333334,189.85816533333332,76.0,95.0
188,190.0655806,190.2583116,76.0,85.0
189,190.35008826666666,190.5299705333333,78.0,88.0
190,190.64928020000002,190.80346500000002,79.0,66.0
191,190.92093913333332,191.29171686666666,81.0,89.0
192,191.32108540000002,191.70838293333333,83.0,86.0
193,191.79281746666666,192.1103647333333,81.0,89.0
194,192.2296744,192.47930693333333,74.0,79.0
195,192.49766226666668,193.61366653333334,79.0,79.0
196,194.00463513333335,194.19369506666666,76.0,86.0
197,194.24325446666666,194.4157946,78.0,79.0
198,194.47820273333332,195.28950846666666,79.0,90.0
199,195.73370753333333,196.02005073333333,72.0,85.0
200,196.1779066,196.75793513333332,72.0,89.0
201,197.07915346666667,197.32144386666667,79.0,92.0
202,197.35815453333333,197.71608353333335,78.0,83.0
203,197.68855053333334,197.82438000000002,76.0,67.0
204,197.98040033333334,198.83392333333333,76.0,83.0
205,198.83575886666665,199.62687373333335,74.0,82.0
206,199.72599253333334,200.37760686666667,84.0,107.0
207,200.62173280000002,200.89522726666667,83.0,97.0
208,201.06042526666667,201.27885373333334,86.0,112.0
209,201.94148126666667,202.04977773333331,76.0,85.0
210,201.51196646666665,202.09383053333335,83.0,107.0
211,202.18927826666666,202.74360933333332,76.0,95.0
212,204.12576593333335,204.32583906666667,83.0,100.0
213,204.44698426666668,204.66174166666667,81.0,90.0
214,204.76453153333335,204.91504526666665,79.0,74.0
215,205.03435493333333,205.36475093333334,81.0,95.0
216,205.46570526666667,205.56849513333333,74.0,96.0
217,205.69698246666667,206.36328106666667,74.0,99.0
218,206.32657039999998,206.68266386666667,81.0,102.0
219,206.76342733333334,207.43706806666665,79.0,99.0
220,207.92715546666665,208.1052022,76.0,102.0
221,208.3034398,208.43926926666666,78.0,96.0
222,208.55307233333332,209.16614046666666,79.0,96.0
223,211.1668718,211.6441104666667,76.0,97.0
224,211.60556426666665,212.06077653333335,78.0,78.0
225,212.06811866666666,214.6525496,79.0,96.0
226,214.72780646666666,215.34821673333335,74.0,117.0
227,215.60702693333332,216.39814180000002,83.0,88.0
228,216.92861093333335,217.08646679999998,76.0,88.0
229,217.36913893333332,218.05195733333335,76.0,95.0
230,218.2593726,218.4521036,76.0,85.0
231,218.54388026666666,218.72376253333334,78.0,88.0
232,218.8430722,218.997257,79.0,66.0
233,219.11473113333335,219.48550886666666,81.0,89.0
234,219.5148774,219.90217493333336,83.0,86.0
235,219.98660946666666,220.30415673333334,81.0,89.0
236,220.4234664,220.67309893333334,74.0,79.0
237,220.69145426666665,221.80745853333332,79.0,79.0
238,222.19842713333333,222.38748706666667,76.0,86.0
239,222.4370464666667,222.6095866,78.0,79.0
240,222.67199473333335,223.48330046666666,79.0,90.0
241,223.92749953333333,224.21384273333334,72.0,85.0
242,224.3716986,224.95172713333335,72.0,89.0
243,225.27294546666667,225.51523586666667,79.0,92.0
244,225.55194653333334,225.90987553333332,78.0,83.0
245,225.88234253333331,226.018172,76.0,67.0
246,226.17419233333334,227.02771533333333,76.0,83.0
247,227.02955086666668,227.82066573333333,74.0,82.0
248,227.91978453333334,228.57139886666667,84.0,107.0
249,228.8155248,229.08901926666667,83.0,97.0
250,229.25421726666667,229.47264573333334,86.0,112.0
251,230.13527326666667,230.24356973333335,76.0,85.0
252,229.70575846666668,230.28762253333335,83.0,107.0
253,230.38307026666666,230.93740133333333,76.0,95.0
254,232.31955793333333,232.51963106666668,83.0,100.0
255,232.64077626666668,232.85553366666667,81.0,90.0
256,232.95832353333333,233.10883726666668,79.0,74.0
257,233.22814693333333,233.55854293333334,81.0,95.0
258,233.65949726666668,233.76228713333333,74.0,96.0
259,233.89077446666667,234.55707306666667,74.0,99.0
260,234.5203624,234.87645586666667,81.0,102.0
261,234.95721933333334,235.63086006666666,79.0,99.0
262,236.12094746666668,236.2989942,76.0,102.0
263,236.4972318,236.63306126666666,78.0,96.0
264,236.74686433333335,237.35993246666666,79.0,96.0
265,240.2086802,241.12644686666667,76.0,81.0
266,241.0897362,243.35478433333333,78.0,82.0
267,243.3144026,248.15103293333334,79.0,81.0
