,start,end,pitch,velocity
0,2.663366758333333,3.019802458333333,67.0,56.0
1,2.3465350249999997,3.1435648541666663,60.0,52.0
2,2.9727727479166663,3.3044559687499997,64.0,51.0
3,1.7326735416666665,3.428218364583333,48.0,65.0
4,2.0470300270833333,3.5668322479166665,55.0,51.0
5,3.2475252666666665,3.844060014583333,67.0,51.0
6,4.123763029166667,4.576733397916667,60.0,57.0
7,3.858911502083333,4.727723520833333,55.0,52.0
8,3.5742579916666664,4.851485916666666,48.0,52.0
9,4.430693770833333,5.339109756249999,67.0,72.0
10,4.725248272916667,5.349010747916666,64.0,40.0
11,4.990099799999999,5.378713722916666,60.0,51.0
12,5.8886147937499995,6.477723797916666,59.0,50.0
13,5.316832525,6.992575364583333,47.0,52.0
14,5.616337522916666,7.1188130083333325,54.0,46.0
15,6.809407018749999,7.41831800625,59.0,43.0
16,6.504951524999999,7.5717833770833325,62.0,41.0
17,6.175743552083333,7.579209120833333,66.0,75.0
18,7.675743789583333,8.1534666375,59.0,44.0
19,7.383664535416666,8.3019815125,54.0,51.0
20,7.101486272916667,8.8069320875,47.0,58.0
21,7.965347795833333,8.861387541666666,66.0,92.0
22,8.2722785375,8.878714277083333,62.0,54.0
23,8.566833039583333,8.913367747916666,59.0,46.0
24,9.450496545833333,9.903466914583333,57.0,49.0
25,8.868813285416666,10.56683335625,45.0,59.0
26,9.183169770833333,10.603962074999998,52.0,41.0
27,10.3811897625,10.668318520833333,57.0,53.0
28,10.086635260416665,10.695546247916665,60.0,40.0
29,9.750001543749999,10.705447239583332,64.0,85.0
30,11.240100789583332,11.655942439583333,57.0,47.0
31,10.658417529166666,11.96619,45.0,67.0
32,10.940595791666667,12.301189999999998,52.0,55.0
33,11.519803804166665,12.313689999999998,64.0,88.0
34,11.794556322916666,12.378689999999999,60.0,47.0
35,12.066189999999999,12.411189999999998,57.0,56.0
36,13.051189999999998,13.461871716666664,62.0,55.0
37,12.711189999999998,13.62096258333333,57.0,42.0
38,12.403689999999997,14.441985091666664,50.0,56.0
39,14.731757741666664,16.723461999999998,50.0,40.0
40,14.20050788333333,16.810961999999996,57.0,55.0
41,13.771530724999998,16.813461999999998,62.0,61.0
42,13.407894458333331,16.838461999999996,66.0,85.0
43,18.364064454166666,18.805874475,59.0,55.0
44,17.42440997083333,20.668335425,43.0,56.0
45,17.799409695833333,20.710331481249998,50.0,33.0
46,18.06880605,20.8214975125,55.0,41.0
47,19.487505137499998,21.142643825,59.0,1.0
48,18.659322858333333,21.55519331875,62.0,48.0
49,21.886221056249997,22.64215006875,59.0,39.0
50,21.241458074999997,23.8452135625,47.0,65.0
51,21.557663675,24.265174124999998,54.0,51.0
52,22.1950155875,24.39363265,66.0,56.0
53,22.92871139375,24.443039775,59.0,34.0
54,22.54827653125,24.47515440625,62.0,40.0
55,24.7839489375,27.232242241666665,55.0,48.0
56,24.294818399999997,27.289934541666664,48.0,69.0
57,26.003877020833333,27.980639899999996,67.0,51.0
58,25.532723237499997,27.990443824999996,64.0,49.0
59,25.15291559583333,28.049267374999996,60.0,44.0
60,28.828679412499998,29.20367954375,62.0,45.0
61,28.554169512499996,29.745346399999995,59.0,36.0
62,28.1816203625,30.603189837499997,54.0,50.0
63,27.843384949999997,30.733091843749996,47.0,33.0
64,29.961032749999998,31.019856649999998,59.0,37.0
65,29.639954206249996,31.019856649999998,62.0,40.0
66,29.120346181249996,31.019856649999998,66.0,66.0
67,31.630150981249997,32.519857175,52.0,37.0
68,31.269856737499996,32.5443669875,45.0,66.0
69,31.956131487499995,32.6080925,57.0,47.0
70,32.24779825624999,33.137504449999994,64.0,59.0
71,32.539465025,33.220837812499994,60.0,57.0
72,32.855641606249996,33.22819075625,57.0,59.0
73,33.152210337499994,34.340936243749994,38.0,48.0
74,33.4953477125,34.362995075,45.0,35.0
75,33.8188772375,34.47819119375,50.0,34.0
76,34.078681249999995,35.034563937499996,57.0,47.0
77,34.6865246,35.054171787499996,62.0,46.0
78,34.39240685,35.095838468749996,66.0,68.0
79,35.264956174999995,36.230642787499995,54.0,61.0
80,35.56642686875,36.233093768749995,59.0,43.0
81,35.005152162499996,36.380152643749994,47.0,51.0
82,35.85074069375,36.6227997875,66.0,74.0
83,36.421819325,37.193878418749996,59.0,55.0
84,36.166917274999996,37.73064331249999,62.0,64.0
85,36.94142735,38.22329054375,40.0,63.0
86,37.255152949999996,38.287016056249996,47.0,55.0
87,37.568878549999994,38.480643574999995,52.0,58.0
88,37.87525120625,38.507604368749995,67.0,76.0
89,38.19387876875,38.554173012499994,64.0,56.0
90,39.03701631875,39.522310606249995,57.0,61.0
91,39.323781125,39.91936956875,60.0,57.0
92,38.80172211874999,40.465938387499996,52.0,35.0
93,38.512506331249995,40.556624693749995,45.0,68.0
94,39.617898874999995,40.9855464125,64.0,70.0
95,40.2208402625,40.9953503375,60.0,63.0
96,39.92917349375,40.99780131874999,57.0,47.0
97,41.644860368749995,42.686220999999996,57.0,45.0
98,40.7992718375,43.45705433333333,38.0,66.0
99,41.11054645625,43.67580433333333,45.0,48.0
100,41.93652713749999,43.80080433333333,66.0,76.0
101,42.581135206249996,43.90531821041666,62.0,50.0
102,41.36054654375,43.98309596874999,50.0,40.0
103,43.98587374583333,45.11087346458333,38.0,36.0
104,44.1247626,45.13031790416666,45.0,38.0
105,44.21642924375,45.330015975,50.0,38.0
106,44.14976259375,46.05827694166667,57.0,39.0
107,44.299762556249995,46.15610304166667,66.0,39.0
108,44.22754035208333,47.42633218333333,62.0,35.0
109,45.710450808333334,48.437442999999995,43.0,50.0
110,46.06099433333333,49.529109725,50.0,34.0
111,46.368059591666665,49.845286306249996,55.0,45.0
112,47.40202663749999,50.1908746625,67.0,63.0
113,46.85341574583333,50.195776625,59.0,43.0
114,48.164942999999994,50.22273741875,62.0,51.0
115,50.59528656875,51.333031925,59.0,44.0
116,51.176169125,51.8281301375,62.0,52.0
117,49.999698125,53.102640387499996,47.0,56.0
118,50.30116881875,53.4751895375,54.0,56.0
119,51.74234579375,53.4751895375,59.0,48.0
120,50.872247449999996,53.4751895375,66.0,79.0
121,54.4359741875,54.79381745,64.0,57.0
122,54.154111343749996,54.80607235625,60.0,56.0
123,54.9702881,55.374700006249995,60.0,45.0
124,53.6026405625,55.64430794375,48.0,74.0
125,53.882052425,55.81097466875,55.0,58.0
126,55.79136681875,56.89430838125,48.0,53.0
127,55.249699962499996,57.42126935,64.0,53.0
128,54.705582125,57.4408772,67.0,71.0
129,55.53646476875,57.46048505,60.0,42.0
130,57.921269525,58.573230537499995,59.0,48.0
131,58.2251912,58.8869561375,66.0,89.0
132,58.81097571875,59.2398974375,59.0,44.0
133,57.61734785,59.81097606875,54.0,50.0
134,57.29136734375,60.07568204375,47.0,66.0
135,58.51195600625,60.49725081875,62.0,49.0
136,59.18597585,60.509505725,66.0,66.0
137,60.56097633125,61.46783939375,52.0,58.0
138,60.86489800625,61.48254528125,57.0,48.0
139,60.26685858125,61.51685901875,45.0,68.0
140,61.42127075,62.08793765,64.0,74.0
141,61.13450594375,62.10019255625,60.0,56.0
142,61.681074762499996,62.11980040625,57.0,62.0
143,61.9849964375,63.3232322,38.0,43.0
144,62.2644083,63.34529103125,45.0,38.0
145,62.56587899375,63.4948008875,50.0,45.0
146,62.87470263125,63.9751932125,57.0,63.0
147,63.18842823125,64.18842858125,66.0,86.0
148,64.70803660625,65.2693113125,62.0,52.0
149,64.1320560125,65.41391920625,54.0,53.0
150,63.840389243749996,65.53156630625,47.0,63.0
151,64.4359776875,65.55852709999999,59.0,39.0
152,65.4948015875,66.078135125,62.0,54.0
153,64.97764454375,66.12715475,66.0,85.0
154,65.69578204999999,66.176174375,59.0,31.0
155,65.9898998,67.22519435,40.0,39.0
156,66.27176264375,67.23254729375,47.0,53.0
157,66.54627254375,67.54627289375,52.0,69.0
158,66.784017725,67.65411606875,59.0,69.0
159,67.32568458125,67.65656705,64.0,53.0
160,67.05607664375,67.66391999375,67.0,95.0
161,67.88450830625,69.019312625,52.0,40.0
162,67.57813565000001,69.1124499125,45.0,59.0
163,68.78646940625,69.51686181875,64.0,68.0
164,68.176175075,69.59039125625,57.0,51.0
165,68.4604889,69.64431284375,60.0,66.0
166,70.50705824375,70.66882300625,57.0,55.0
167,69.39921471875,71.0095094,38.0,50.0
168,70.02911689999999,71.16882318124999,45.0,59.0
169,70.50705824375,72.15166666249999,66.0,63.0
170,70.50215628125,72.17862745625,62.0,65.0
171,70.46784254375,72.40656871249999,50.0,41.0
172,71.98499993749999,72.40901969375,57.0,51.0
173,71.1271565,72.7300982375,38.0,66.0
174,72.3036275,72.78647080625,66.0,74.0
175,72.293823575,72.7889217875,62.0,68.0
176,72.5830393625,72.79137276875,50.0,30.0
177,71.64921550625,72.8183335625,45.0,43.0
178,72.8771571125,73.7497064375,38.0,58.0
179,72.86980416875,73.7497064375,50.0,66.0
180,72.87960809375,73.7497064375,57.0,67.0
181,72.87470613125,73.7497064375,62.0,69.0
182,72.87225515,73.7497064375,66.0,65.0
183,73.78647115625,74.2006869875,50.0,61.0
184,73.80607900625,74.21784385625,66.0,54.0
185,73.803628025,74.2202948375,69.0,54.0
186,73.80117704375,74.24235366875,62.0,55.0
187,75.22914212500001,75.625035925,60.0,52.0
188,74.94688450833334,75.70384811666666,55.0,50.0
189,74.6320596875,76.32518144166667,48.0,59.0
190,76.2353722,76.955678975,60.0,38.0
191,75.50956690000001,77.01616275,64.0,69.0
192,75.51323258333333,77.05281958333333,67.0,69.0
193,76.86953541666666,77.36990119166667,55.0,49.0
194,77.51286284166667,77.75113225833334,55.0,47.0
195,76.41315784166667,77.76762783333334,48.0,69.0
196,77.73463668333333,78.16902015833334,64.0,73.0
197,77.28192479166667,78.18918141666667,67.0,96.0
198,77.96924041666666,78.26249508333333,60.0,64.0
199,78.61806636666667,79.16975170833334,54.0,50.0
200,79.29621778333333,79.44834364166667,54.0,45.0
201,78.17085300000001,79.49966320833333,47.0,69.0
202,79.07077825833333,79.55281561666666,62.0,63.0
203,79.06344689166667,79.82224334166666,66.0,93.0
204,79.715938525,79.90105553333333,62.0,62.0
205,79.50332889166667,80.00369466666668,59.0,72.0
206,80.36109879166666,80.837637625,52.0,67.0
207,80.562711375,81.0960683,59.0,69.0
208,79.88822564166666,81.15288639166667,40.0,58.0
209,80.12649505833333,81.15838491666668,47.0,37.0
210,81.01908895,81.46080379166666,52.0,66.0
211,80.810145,81.66608205833333,67.0,92.0
212,81.233531425,81.673413425,64.0,73.0
213,81.475466525,81.72106730833333,59.0,69.0
214,82.14078805,82.476198075,57.0,66.0
215,81.915348525,82.608162675,52.0,54.0
216,82.34056779166667,82.62099256666667,60.0,63.0
217,81.6679149,82.88675460833333,45.0,61.0
218,82.7456258,82.89591881666666,52.0,58.0
219,83.01138784166668,83.35229639166667,60.0,74.0
220,82.58250289166666,83.40178311666666,64.0,95.0
221,83.223997475,83.50625509166667,57.0,65.0
222,83.88748615833333,84.36035930833333,50.0,74.0
223,84.07993453333333,84.52348221666666,57.0,70.0
224,83.64005253333333,84.61329145833334,45.0,45.0
225,83.41461300833333,84.64444976666667,38.0,56.0
226,84.301708375,85.06783619166667,66.0,107.0
227,84.52531505833333,85.07333471666666,50.0,69.0
228,84.97069558333334,85.20163363333333,57.0,89.0
229,84.75991879166666,85.20529931666667,62.0,53.0
230,85.654345525,86.10339173333334,55.0,65.0
231,85.841295375,86.12538583333334,59.0,70.0
232,86.29584010833334,86.54693941666667,55.0,81.0
233,86.11438878333334,86.59276045833333,62.0,65.0
234,85.17597385,86.798038725,43.0,63.0
235,85.42524031666667,86.80537009166667,50.0,41.0
236,86.50844974166667,86.88418228333333,59.0,82.0
237,86.74488631666667,86.973991525,62.0,83.0
238,87.435867625,87.93806624166666,55.0,72.0
239,87.44869751666667,88.20932680833333,53.0,54.0
240,88.07552936666667,88.20932680833333,53.0,75.0
241,86.95016458333333,88.24598364166667,41.0,74.0
242,87.644811575,88.34678993333334,59.0,62.0
243,87.85008984166667,88.69686269166667,62.0,99.0
244,88.53007410000001,88.722522475,59.0,90.0
245,88.29180468333334,88.77017635833333,55.0,99.0
246,89.17706720833334,89.69209571666667,48.0,67.0
247,88.711525425,90.32076040833334,36.0,69.0
248,88.942463475,90.46922058333334,43.0,56.0
249,89.82955884166667,90.54986561666666,48.0,86.0
250,89.38601115833333,90.93109668333334,55.0,68.0
251,90.05133268333333,90.9714192,60.0,77.0
252,90.267608,90.98241625,59.0,72.0
253,89.61694920833334,91.07589117500001,64.0,85.0
254,90.92926384166667,91.44429235,48.0,71.0
255,90.4655549,91.67706324166667,36.0,71.0
256,90.69649295,91.68806029166667,43.0,46.0
257,91.57808979166667,91.79803079166666,48.0,86.0
258,91.14004063333334,92.07845556666666,55.0,75.0
259,92.03630020833333,92.22874858333333,59.0,77.0
260,91.80352931666667,92.23424710833334,60.0,75.0
261,91.35998163333333,92.25807405,64.0,92.0
262,92.945389675,93.13967089166667,62.0,46.0
263,92.72178299166667,93.16349783333334,59.0,56.0
264,92.43402685000001,93.22214876666666,54.0,58.0
265,93.17449488333334,93.25330707500001,62.0,38.0
266,93.341283475,93.52640048333333,54.0,78.0
267,92.2250829,93.55389310833334,47.0,72.0
268,93.14516941666668,93.704186125,66.0,97.0
269,93.80132673333333,94.09458140000001,64.0,85.0
270,93.58505141666667,94.32368660833333,59.0,81.0
271,94.4684811,94.93402288333334,52.0,72.0
272,94.68658925833333,95.15029820000001,59.0,72.0
273,93.99560795,95.23094323333333,40.0,71.0
274,94.21188326666666,95.24743880833333,47.0,69.0
275,95.09348010833334,95.64699829166668,52.0,77.0
276,94.902864575,95.74780458333333,67.0,90.0
277,95.35007794166667,95.75330310833334,64.0,66.0
278,95.54985768333333,95.79545846666667,59.0,66.0
279,96.23534046666667,96.72470919166668,52.0,42.0
280,96.849342425,96.98863839166667,52.0,57.0
281,95.74597174166666,97.014298175,45.0,78.0
282,96.645897,97.16459119166666,60.0,66.0
283,96.64223131666667,97.35337388333333,64.0,79.0
284,97.32771410000001,97.38636503333333,60.0,46.0
285,97.09860889166667,97.47067575,57.0,70.0
286,97.55865215,100.137460375,62.0,82.0
287,97.54948794166667,100.14112605833333,57.0,63.0
288,97.55681930833333,100.14479174166667,66.0,100.0
289,97.54032373333334,100.15395595,38.0,74.0
290,100.19427846666667,100.67998150833333,57.0,86.0
291,100.19611130833334,100.68364719166667,64.0,76.0
292,100.19794415,100.69647708333333,60.0,83.0
293,100.17411720833334,100.71663834166667,41.0,70.0
294,100.192445625,101.36179860833333,53.0,85.0
295,101.05754689166668,101.62040693333333,62.0,56.0
296,101.050215525,101.63692673333333,55.0,68.0
297,101.039218475,101.64793993333333,58.0,55.0
298,101.03555279166667,101.65161099999999,51.0,59.0
299,101.04838268333333,101.65344653333332,39.0,63.0
300,101.97833593333333,102.32525173333333,67.0,75.0
301,101.97650039999999,102.33442939999999,71.0,71.0
302,101.97282933333332,102.3454426,64.0,79.0
303,102.00036233333333,102.49412079999999,62.0,58.0
304,101.99485573333332,102.50146293333333,52.0,65.0
305,101.9875136,102.505134,55.0,67.0
306,101.99118466666665,102.50880506666667,59.0,60.0
307,101.9985268,102.51981826666666,38.0,81.0
308,103.7000662,104.19933126666666,60.0,71.0
309,102.85021426666665,104.40674653333333,36.0,82.0
310,103.27605799999999,104.57928666666666,43.0,59.0
311,103.91665913333333,104.6031486,48.0,41.0
312,104.13141653333332,105.09323599999999,55.0,58.0
313,104.35351606666666,105.14095986666666,60.0,58.0
314,103.70190173333333,105.17216393333332,64.0,71.0
315,105.02348573333333,105.49154673333332,48.0,60.0
316,105.23273653333332,105.69529093333333,55.0,63.0
317,104.54441153333333,105.70997519999999,36.0,52.0
318,104.79220853333332,105.7375082,43.0,37.0
319,105.66225133333333,105.85681786666666,48.0,78.0
320,105.46952033333332,106.03302906666666,64.0,102.0
321,105.88985746666665,106.26430626666667,60.0,78.0
322,106.12113466666666,106.36893166666665,64.0,66.0
323,106.79661093333333,107.24081,54.0,60.0
324,106.33405653333332,107.29954706666666,47.0,65.0
325,107.25549426666666,107.54183746666666,66.0,122.0
326,107.2628364,107.54917959999999,62.0,86.0
327,107.67032479999999,107.78963446666666,66.0,83.0
328,107.66848926666665,107.82083853333333,62.0,78.0
329,107.67216033333332,107.82818066666667,59.0,74.0
330,107.90343753333333,108.85240826666666,67.0,92.0
331,107.89793093333333,108.88911893333332,64.0,75.0
332,107.901602,108.91481639999999,59.0,66.0
333,108.5679006,109.05982353333333,47.0,58.0
334,107.88875326666665,109.31129159999999,40.0,74.0
335,109.1846398,109.34066013333333,47.0,66.0
336,108.98456666666667,109.78853026666667,67.0,97.0
337,109.44345,109.85277393333332,64.0,66.0
338,109.63985206666666,109.92986633333332,59.0,81.0
339,110.29880853333333,110.88801473333334,52.0,55.0
340,109.82891199999999,110.9247254,45.0,71.0
341,110.7430076,111.17252239999999,64.0,81.0
342,110.75218526666666,111.29366759999999,60.0,67.0
343,111.40196406666666,112.35460586666666,66.0,85.0
344,111.40930619999999,112.35827693333333,62.0,69.0
345,111.17986453333333,112.3839744,57.0,83.0
346,112.03155199999999,112.57119879999999,45.0,50.0
347,111.40747066666665,112.74373893333333,38.0,66.0
348,112.69968613333333,112.82083133333333,45.0,47.0
349,112.48676426666665,113.01906893333333,62.0,95.0
350,112.48492873333333,113.29807,66.0,107.0
351,112.93279886666666,113.32743853333332,57.0,83.0
352,113.160405,113.38250453333333,62.0,76.0
353,113.80100613333333,114.27457373333333,55.0,70.0
354,114.0029148,114.32596866666665,59.0,76.0
355,114.44527833333333,114.70041746666666,55.0,68.0
356,114.261725,114.76833219999999,62.0,77.0
357,113.34762939999999,114.9996094,43.0,77.0
358,113.56422233333333,115.12259013333333,50.0,63.0
359,114.90232613333333,115.4401374,62.0,88.0
360,114.66737786666667,115.44747953333332,59.0,77.0
361,114.9004906,115.4566572,65.0,92.0
362,115.73015166666666,115.90452733333333,59.0,38.0
363,115.73198719999999,115.9192116,62.0,58.0
364,115.72464506666667,115.92288266666667,65.0,49.0
365,115.38323586666667,116.22758119999999,43.0,64.0
366,115.99997506666666,116.244101,59.0,83.0
367,115.99446846666666,116.24777206666666,65.0,88.0
368,116.0018106,116.25327866666666,62.0,95.0
369,116.32669999999999,116.55247059999999,62.0,82.0
370,116.32853553333332,116.56164826666667,59.0,81.0
371,116.33037106666666,116.5634838,65.0,88.0
372,116.66443813333333,116.82412953333333,65.0,70.0
373,116.657096,116.8388138,62.0,77.0
374,116.66627366666665,116.90305746666667,59.0,73.0
375,117.59138246666666,117.9181074,55.0,52.0
376,117.3619408,117.93279166666666,43.0,64.0
377,118.02456833333332,118.36414199999999,43.0,27.0
378,118.2429968,118.36781306666666,60.0,51.0
379,117.81531753333333,118.36964859999999,64.0,93.0
380,116.89020873333332,118.38249733333333,36.0,76.0
381,118.2374902,118.38433286666665,55.0,82.0
382,118.45958973333333,119.41773813333333,64.0,74.0
383,118.46142526666667,119.44710666666666,60.0,79.0
384,118.4632608,119.4599554,55.0,69.0
385,119.08734213333332,119.65452193333333,43.0,52.0
386,119.57192293333333,119.7187656,55.0,31.0
387,118.44490546666665,119.82706206666666,36.0,67.0
388,119.72794326666666,119.89130573333333,43.0,64.0
389,119.54071886666667,120.06384586666667,60.0,66.0
390,119.97574026666666,120.37221546666666,55.0,74.0
391,120.19049766666666,120.4401302,60.0,58.0
392,119.5425544,120.45481446666666,64.0,76.0
393,120.86046733333333,121.31384406666666,54.0,53.0
394,120.39424186666666,121.4368248,47.0,65.0
395,121.30283086666665,121.7562076,66.0,88.0
396,121.31751513333333,121.92507666666666,62.0,68.0
397,121.99115586666666,122.96765959999999,67.0,77.0
398,121.98748479999999,122.98968599999999,64.0,68.0
399,121.778234,123.07044946666666,59.0,73.0
400,121.97830713333333,123.38249013333333,40.0,69.0
401,122.67397426666666,123.42470739999999,47.0,33.0
402,123.08696926666667,123.58806986666666,64.0,81.0
403,123.30356219999999,123.7661166,52.0,52.0
404,123.09247586666666,123.89093286666666,67.0,81.0
405,123.74041913333333,123.953341,64.0,63.0
406,123.50914193333332,123.96802526666666,59.0,75.0
407,124.15524966666666,124.87661426666666,52.0,53.0
408,124.60495533333332,124.9004762,60.0,54.0
409,124.38285579999999,124.9775686,57.0,62.0
410,123.91846586666666,125.56677479999999,45.0,70.0
411,125.05098993333333,125.65120933333333,52.0,39.0
412,125.48968239999999,125.8586246,57.0,69.0
413,124.84357466666665,126.10825713333332,64.0,83.0
414,125.26758286666666,126.14863886666666,60.0,69.0
415,126.376245,126.57081153333333,60.0,50.0
416,125.9247038,126.63872626666667,52.0,61.0
417,126.1394612,126.68277906666665,57.0,64.0
418,126.80759533333332,126.91772733333333,52.0,59.0
419,125.6769068,126.9599446,45.0,69.0
420,126.61119326666666,127.06640553333332,64.0,93.0
421,126.60935773333333,127.0700766,60.0,66.0
422,127.04254359999999,127.24261673333334,57.0,74.0
423,127.4720584,128.3200748,64.0,67.0
424,127.47389393333333,130.77968946666667,41.0,72.0
425,129.14422926666666,130.81640013333333,48.0,24.0
426,128.40634486666667,130.87697273333333,64.0,52.0
427,127.46655179999999,130.87880826666665,57.0,76.0
428,127.47022286666666,130.89349253333333,60.0,73.0
429,127.46838733333333,131.5689688,53.0,85.0
430,131.6130216,132.2462806,55.0,38.0
431,131.02565093333334,132.63357813333334,43.0,68.0
432,131.31933626666665,132.72351926666667,50.0,56.0
433,131.90670693333334,133.5293184,62.0,83.0
434,132.20039226666665,133.589891,59.0,36.0
435,132.4940776,133.61925953333332,55.0,37.0
436,132.78776293333334,133.7881286,43.0,48.0
437,133.3751336,133.7991418,50.0,34.0
438,133.96250426666666,134.55354599999998,55.0,55.0
439,133.66881893333334,134.56088813333332,62.0,69.0
440,134.2561896,134.581079,59.0,51.0
441,134.54987493333334,136.1559666,47.0,54.0
442,134.84356026666666,136.22755239999998,54.0,39.0
443,135.104206,136.42395446666666,59.0,45.0
444,135.41991773333334,137.01683173333333,66.0,86.0
445,135.9687422,137.04987133333333,62.0,52.0
446,136.9048642,137.36925413333333,54.0,37.0
447,136.31382246666666,137.5381232,47.0,44.0
448,137.20405613333332,138.00985526666665,66.0,95.0
449,137.49774146666667,138.03004613333331,62.0,42.0
450,137.77674253333333,138.06859233333333,59.0,55.0
451,138.65229193333334,139.041425,48.0,40.0
452,138.0392238,139.69303933333333,36.0,61.0
453,139.21580066666667,139.78848706666668,48.0,53.0
454,138.34575786666667,139.79399366666667,43.0,34.0
455,138.94597726666666,140.51535826666668,64.0,73.0
456,139.4929662,140.5447268,60.0,51.0
457,139.78665153333333,140.90632686666666,36.0,62.0
458,140.39421306666668,140.98892586666665,48.0,52.0
459,140.98158373333334,141.44597366666665,55.0,64.0
460,141.28077566666667,141.56711886666665,60.0,56.0
461,140.6989116,141.59832293333332,64.0,75.0
462,141.8552976,142.60970179999998,54.0,44.0
463,142.16183166666667,142.83180133333332,59.0,42.0
464,141.57262546666666,143.20625013333333,47.0,54.0
465,142.76021553333334,143.31821766666667,54.0,51.0
466,143.04288766666667,144.05977313333332,62.0,48.0
467,142.46469466666667,144.07629293333332,66.0,82.0
468,143.92761473333331,144.37548486666665,54.0,42.0
469,143.34024406666666,144.57922906666667,47.0,51.0
470,144.24149093333332,145.14090226666667,66.0,90.0
471,144.54068286666666,145.153751,62.0,47.0
472,144.79949306666666,145.16476419999998,59.0,51.0
473,145.39971246666667,146.07151766666667,52.0,44.0
474,146.26424866666667,146.39090046666666,52.0,45.0
475,145.11336926666667,146.4312822,45.0,58.0
476,146.56711166666668,146.85345486666665,60.0,50.0
477,145.96138566666667,146.8828234,64.0,79.0
478,145.69156226666666,146.93054726666668,57.0,52.0
479,147.48671386666666,147.89970886666666,50.0,41.0
480,146.860797,148.16769673333334,38.0,61.0
481,147.15998893333332,148.17136779999998,45.0,29.0
482,148.06857793333333,148.3090328,50.0,55.0
483,148.32922366666668,148.71835673333334,62.0,60.0
484,147.77305706666667,148.7275344,66.0,92.0
485,148.90741666666668,149.67099853333332,54.0,45.0
486,149.20477306666666,149.834361,59.0,54.0
487,149.78847266666668,149.94265746666667,54.0,55.0
488,148.65778413333334,149.99588793333334,47.0,63.0
489,149.49111626666667,150.19963213333332,66.0,90.0
490,150.05278946666667,150.43274486666667,62.0,64.0
491,150.66402206666666,151.46247906666667,47.0,42.0
492,150.34280373333334,151.48266993333334,40.0,61.0
493,150.98891146666665,151.6460324,52.0,56.0
494,151.84794106666666,152.12694213333333,59.0,56.0
495,151.55609126666667,152.12694213333333,64.0,54.0
496,151.25873486666666,152.12694213333333,67.0,83.0
497,152.74001026666667,153.2264266,60.0,59.0
498,152.47202240000001,153.23376873333333,55.0,48.0
499,152.17283046666665,153.71284293333332,48.0,72.0
500,153.331052,153.88721859999998,55.0,56.0
501,153.02635346666665,154.67099133333335,67.0,81.0
502,153.6284084,154.68934666666667,64.0,38.0
503,153.57517793333332,154.69852433333332,60.0,59.0
504,154.50579333333332,154.8618868,55.0,46.0
505,153.881712,154.9114462,48.0,68.0
506,154.82884719999998,155.05278226666667,64.0,63.0
507,155.3905204,155.70072553333333,64.0,48.0
508,155.0766442,155.73009406666665,60.0,63.0
509,154.8233406,155.73009406666665,67.0,85.0
510,156.26423426666668,156.62216326666666,50.0,63.0
511,156.53956426666667,157.2076984,62.0,71.0
512,156.5358932,157.25542226666667,66.0,79.0
513,155.6603438,157.28295526666665,38.0,61.0
514,157.103073,157.34903446666667,57.0,68.0
515,155.95035806666667,157.37106086666665,45.0,52.0
516,157.4169492,159.1350084,62.0,78.0
517,157.41511366666666,159.14602159999998,66.0,75.0
518,157.40226493333333,159.16070586666666,38.0,61.0
519,157.41327813333334,159.1625414,57.0,63.0
520,156.82590746666665,159.16437693333333,50.0,68.0
521,159.8068136,160.4400726,55.0,38.0
522,159.21944293333334,160.82737013333332,43.0,68.0
523,159.51312826666666,160.91731126666667,50.0,56.0
524,160.10049893333334,161.7231104,62.0,83.0
525,160.39418426666666,161.783683,59.0,36.0
526,160.6878696,161.81305153333332,55.0,37.0
527,160.9815549333333,161.9819206,43.0,48.0
528,161.5689256,161.9929338,50.0,34.0
529,162.15629626666666,162.747338,55.0,55.0
530,161.86261093333331,162.75468013333332,62.0,69.0
531,162.4499816,162.774871,59.0,51.0
532,162.74366693333332,164.3497586,47.0,54.0
533,163.03735226666666,164.4213444,54.0,39.0
534,163.297998,164.61774646666666,59.0,45.0
535,163.61370973333334,165.21062373333334,66.0,86.0
536,164.16253419999998,165.24366333333333,62.0,52.0
537,165.0986562,165.56304613333333,54.0,37.0
538,164.50761446666667,165.7319152,47.0,44.0
539,165.39784813333333,166.20364726666668,66.0,95.0
540,165.69153346666667,166.22383813333335,62.0,42.0
541,165.97053453333334,166.26238433333333,59.0,55.0
542,166.84608393333332,167.23521699999998,48.0,40.0
543,166.2330158,167.88683133333333,36.0,61.0
544,167.40959266666667,167.98227906666665,48.0,53.0
545,166.53954986666668,167.98778566666667,43.0,34.0
546,167.13976926666666,168.70915026666665,64.0,73.0
547,167.68675819999999,168.7385188,60.0,51.0
548,167.98044353333333,169.10011886666666,36.0,62.0
549,168.58800506666665,169.18271786666668,48.0,52.0
550,169.17537573333334,169.63976566666668,55.0,64.0
551,169.47456766666664,169.76091086666668,60.0,56.0
552,168.8927036,169.79211493333332,64.0,75.0
553,170.0490896,170.8034938,54.0,44.0
554,170.35562366666665,171.02559333333335,59.0,42.0
555,169.76641746666667,171.40004213333333,47.0,54.0
556,170.9540075333333,171.51200966666667,54.0,51.0
557,171.23667966666665,172.25356513333332,62.0,48.0
558,170.65848666666665,172.27008493333335,66.0,82.0
559,172.12140673333334,172.56927686666666,54.0,42.0
560,171.53403606666666,172.77302106666667,47.0,51.0
561,172.43528293333333,173.33469426666665,66.0,90.0
562,172.73447486666666,173.347543,62.0,47.0
563,172.99328506666666,173.3585562,59.0,51.0
564,173.59350446666667,174.26530966666667,52.0,44.0
565,174.45804066666665,174.58469246666667,52.0,45.0
566,173.30716126666667,174.6250742,45.0,58.0
567,174.76090366666665,175.04724686666668,60.0,50.0
568,174.15517766666665,175.07661539999998,64.0,79.0
569,173.88535426666667,175.12433926666665,57.0,52.0
570,175.68050586666666,176.09350086666666,50.0,41.0
571,175.054589,176.36148873333332,38.0,61.0
572,175.35378093333333,176.36515980000001,45.0,29.0
573,176.26236993333333,176.50282479999998,50.0,55.0
574,176.52301566666665,176.91214873333334,62.0,60.0
575,175.96684906666667,176.9213264,66.0,92.0
576,177.10120866666665,177.86479053333335,54.0,45.0
577,177.39856506666666,178.028153,59.0,54.0
578,177.98226466666665,178.13644946666665,54.0,55.0
579,176.85157613333334,178.18967993333334,47.0,63.0
580,177.68490826666667,178.39342413333333,66.0,90.0
581,178.24658146666667,178.62653686666667,62.0,64.0
582,178.85781406666666,179.65627106666665,47.0,42.0
583,178.53659573333334,179.67646193333331,40.0,61.0
584,179.18270346666668,179.8398244,52.0,56.0
585,180.04173306666667,180.32073413333333,59.0,56.0
586,179.74988326666667,180.32073413333333,64.0,54.0
587,179.45252686666666,180.32073413333333,67.0,83.0
588,180.65847226666665,181.26970486666667,52.0,41.0
589,180.9521576,181.68086433333332,57.0,58.0
590,180.36478693333333,181.95619433333331,45.0,69.0
591,181.53952826666665,182.1636096,52.0,39.0
592,181.8332136,182.58394673333333,57.0,23.0
593,181.8332136,182.8299082,60.0,64.0
594,181.24584293333334,182.83357926666667,64.0,92.0
595,182.42058426666665,183.0520077333333,52.0,56.0
596,183.30164026666665,183.36771946666667,52.0,37.0
597,182.12689893333334,183.38240373333332,45.0,68.0
598,182.7142696,183.4686738,57.0,60.0
599,183.00795493333334,183.67058246666667,64.0,99.0
600,183.5953256,183.81008300000002,57.0,76.0
601,183.88901093333334,184.67645473333334,62.0,82.0
602,183.88901093333334,184.68012579999998,66.0,90.0
603,184.4763816,184.89304766666666,50.0,82.0
604,183.88901093333334,185.1702132,57.0,78.0
605,185.06375226666665,185.49693813333334,50.0,60.0
606,184.77006693333334,185.5281422,66.0,90.0
607,183.88901093333334,185.53364879999998,38.0,75.0
608,184.77006693333334,185.53731986666668,62.0,85.0
609,185.3574376,185.5832082,57.0,60.0
610,184.18269626666665,185.59238586666666,45.0,48.0
611,185.65112293333334,185.71903766666668,38.0,49.0
612,185.65112293333334,185.7539128,45.0,62.0
613,185.65112293333334,185.75758386666666,62.0,73.0
614,185.65112293333334,185.7594194,66.0,72.0
615,185.65112293333334,185.76125493333333,57.0,76.0
616,185.65112293333334,185.76676153333335,50.0,73.0
617,185.94480826666666,186.0347494,38.0,47.0
618,185.94480826666666,186.05494026666668,50.0,69.0
619,185.94480826666666,186.067789,45.0,57.0
620,185.94480826666666,186.08614433333332,57.0,60.0
621,185.94480826666666,186.08614433333332,62.0,59.0
622,185.94480826666666,186.08797986666667,66.0,60.0
623,186.2384936,186.30640833333334,38.0,47.0
624,186.2384936,186.3376124,50.0,70.0
625,186.2384936,186.33944793333333,62.0,79.0
626,186.2384936,186.33944793333333,66.0,76.0
627,186.2384936,186.34495453333335,57.0,76.0
628,186.2384936,186.3486256,45.0,73.0
629,186.53217893333334,186.67167946666666,38.0,66.0
630,186.53217893333334,186.70104800000001,45.0,83.0
631,186.53217893333334,186.71389673333334,50.0,86.0
632,186.53217893333334,186.73775866666665,66.0,97.0
633,186.53217893333334,186.7395942,62.0,92.0
634,186.53217893333334,186.7451008,57.0,85.0
635,187.85376293333331,188.29979753333333,48.0,52.0
636,187.41323493333334,188.99913573333333,36.0,77.0
637,187.63349893333333,189.1312941333333,43.0,44.0
638,188.51455493333333,189.21022206666666,48.0,39.0
639,188.95508293333333,189.60486173333334,60.0,59.0
640,188.07402693333333,189.6525856,55.0,52.0
641,188.73481893333332,189.68195413333333,59.0,45.0
642,188.29429093333334,189.79942826666667,64.0,75.0
643,189.61587493333332,190.09127806666666,48.0,56.0
644,189.83613893333333,190.20141006666665,55.0,70.0
645,189.17534693333334,190.37762126666667,36.0,59.0
646,189.39561093333333,190.418003,43.0,37.0
647,190.27666693333333,190.49693093333332,48.0,43.0
648,190.49693093333332,190.86587313333334,59.0,50.0
649,190.71719493333333,190.90074826666665,60.0,56.0
650,190.05640293333335,190.9466366,64.0,73.0
651,191.59825093333333,191.8442124,62.0,49.0
652,191.15772293333333,191.8607322,54.0,56.0
653,191.37798693333332,191.92864693333334,59.0,58.0
654,190.93745893333335,192.180115,47.0,61.0
655,192.03877893333333,192.20397693333334,54.0,73.0
656,191.81851493333335,192.48481353333335,66.0,93.0
657,192.25904293333332,192.62247853333332,62.0,75.0
658,192.47930693333333,192.71976180000001,59.0,71.0
659,193.14009893333332,193.639364,52.0,69.0
660,193.36036293333333,193.82842393333334,59.0,81.0
661,192.69957093333335,193.942227,40.0,66.0
662,192.91983493333333,193.98260873333334,47.0,56.0
663,193.80089093333333,194.17901080000001,52.0,60.0
664,194.02115493333332,194.41763013333332,64.0,66.0
665,193.58062693333335,194.43965653333333,67.0,89.0
666,194.24141893333334,194.48003826666667,59.0,70.0
667,194.90221093333332,195.15735006666665,57.0,60.0
668,194.68194693333334,195.36292980000002,52.0,50.0
669,195.12247493333334,195.4950882,60.0,71.0
670,195.56300293333334,195.71351666666666,52.0,59.0
671,194.46168293333335,195.76858266666665,45.0,70.0
672,195.78326693333332,196.12284060000002,60.0,83.0
673,195.34273893333335,196.1393604,64.0,89.0
674,196.00353093333334,196.25132793333333,57.0,62.0
675,196.66432293333332,197.15073926666668,50.0,72.0
676,196.88458693333334,197.36366113333332,57.0,76.0
677,196.22379493333335,197.43708246666665,38.0,70.0
678,196.44405893333334,197.44626013333334,45.0,37.0
679,197.32511493333334,197.8684328,50.0,81.0
680,197.10485093333335,197.9290054,66.0,102.0
681,197.76564293333334,197.9657160666667,57.0,82.0
682,197.54537893333332,197.99141353333334,62.0,63.0
683,198.42643493333333,198.88715380000002,55.0,83.0
684,198.64669893333334,198.97342386666668,59.0,82.0
685,198.86696293333335,199.35888586666667,62.0,100.0
686,199.08722693333334,199.62320266666666,55.0,82.0
687,197.98590693333335,199.6489001333333,43.0,72.0
688,199.5277549333333,199.67276206666668,62.0,79.0
689,199.30749093333333,199.69295293333334,59.0,93.0
690,198.20617093333334,199.74985446666665,50.0,48.0
691,199.74801893333333,200.27848806666668,59.0,75.0
692,199.74801893333333,200.36842919999998,62.0,82.0
693,199.74801893333333,200.38862006666665,65.0,83.0
694,200.4088109333333,200.7373714,59.0,81.0
695,199.96828293333334,200.9521288,50.0,43.0
696,199.74801893333333,201.02555013333335,43.0,85.0
697,200.62907493333333,201.11549126666665,62.0,74.0
698,200.18854693333333,201.35594613333333,53.0,70.0
699,200.84933893333334,201.35594613333333,53.0,81.0
700,200.62907493333333,201.46057153333334,65.0,82.0
701,201.28986693333331,201.4642426,62.0,68.0
702,201.06960293333333,201.49177559999998,59.0,88.0
703,202.17092293333332,202.45175953333333,55.0,49.0
704,201.95065893333333,202.61695753333333,48.0,78.0
705,201.51013093333333,202.64449053333334,36.0,85.0
706,202.39118693333333,202.65183266666668,64.0,93.0
707,201.73039493333334,202.6646814,43.0,59.0
708,202.61145093333334,202.7472804,55.0,68.0
709,202.83171493333333,202.93634033333333,36.0,58.0
710,202.83171493333333,202.93817586666665,55.0,64.0
711,202.83171493333333,202.9400114,48.0,85.0
712,202.83171493333333,202.94368246666667,60.0,72.0
713,202.83171493333333,202.95836673333332,64.0,72.0
714,203.05197893333332,204.01196286666666,64.0,77.0
715,203.05197893333332,204.01563393333333,60.0,83.0
716,203.05197893333332,204.03949586666667,55.0,83.0
717,203.05197893333332,204.21020046666666,48.0,88.0
718,204.15329893333333,204.30014160000002,55.0,29.0
719,203.05197893333332,204.4378066,36.0,66.0
720,203.71277093333333,204.48920153333333,43.0,43.0
721,204.37356293333335,204.54977413333333,48.0,77.0
722,204.15329893333333,204.72047873333332,60.0,89.0
723,204.59382693333333,204.94074273333334,55.0,89.0
724,204.81409093333332,204.99764426666667,60.0,63.0
725,204.15329893333333,205.03435493333333,64.0,95.0
726,205.46386973333335,205.7373642,59.0,66.0
727,205.63640986666667,205.9245886,66.0,89.0
728,205.22892146666666,205.94294393333334,54.0,72.0
729,205.00131533333334,205.9631348,47.0,83.0
730,205.8530028,206.0126942,59.0,86.0
731,206.06959573333333,206.50461713333334,47.0,79.0
732,206.056747,206.5468344,66.0,96.0
733,206.06225360000002,206.62759786666666,59.0,69.0
734,206.06408913333334,206.63126893333333,62.0,86.0
735,206.75241413333333,207.39117973333333,64.0,74.0
736,206.75792073333332,207.3948508,67.0,72.0
737,206.7560852,207.46276553333334,59.0,71.0
738,206.7560852,207.55821326666666,40.0,75.0
739,207.1966132,207.58941733333333,47.0,54.0
740,207.65182546666665,207.88493820000002,67.0,83.0
741,207.653661,207.8904448,64.0,90.0
742,207.653661,207.901458,59.0,83.0
743,207.6646742,207.98589253333333,40.0,47.0
744,207.64998993333333,208.01893213333335,47.0,48.0
745,207.96937273333333,208.19147226666666,64.0,89.0
746,207.97120826666668,208.19514333333333,67.0,86.0
747,207.96753719999998,208.204321,59.0,79.0
748,207.65549653333335,208.42825606666668,52.0,93.0
749,208.28141340000002,208.4686378,67.0,73.0
750,208.28508446666666,208.53838806666667,64.0,81.0
751,208.27957786666667,208.55674340000002,59.0,78.0
752,208.96239626666667,209.4763456,52.0,57.0
753,209.18816686666668,209.60483293333334,57.0,65.0
754,208.4851576,210.17751933333335,45.0,77.0
755,209.4065953333333,210.20688786666665,64.0,93.0
756,209.83794566666666,210.22157213333332,60.0,72.0
757,210.06555179999998,210.22340766666667,57.0,85.0
758,209.636037,210.25094066666668,52.0,36.0
759,210.2858158,212.22597453333333,50.0,67.0
760,210.2748026,212.23148113333332,57.0,77.0
761,210.2803092,212.23515220000002,60.0,86.0
762,210.28214473333333,212.2461654,45.0,62.0
763,210.27847366666668,212.25167199999999,62.0,82.0
764,210.2803092,212.26268520000002,66.0,81.0
765,210.296829,212.26635626666666,38.0,55.0
766,212.96018786666667,213.7494672,41.0,86.0
767,212.95468126666668,213.75864486666666,65.0,74.0
768,212.96936553333333,213.76231593333335,53.0,72.0
769,212.96018786666667,213.765987,59.0,89.0
770,212.95835233333332,213.76965806666666,62.0,79.0
771,212.96202340000002,213.79168446666665,55.0,74.0
772,213.85225706666665,214.71495773333334,51.0,85.0
773,213.85042153333333,214.72046433333333,39.0,67.0
774,213.848586,214.72780646666666,58.0,68.0
775,213.85776366666667,214.7351486,50.0,70.0
776,214.68558919999998,214.7351486,50.0,81.0
777,213.8595992,214.73698413333335,55.0,68.0
778,214.6800826,215.41062486666667,54.0,88.0
779,214.69660240000002,215.4289802,38.0,63.0
780,214.6837536666667,215.43632233333335,60.0,73.0
781,214.68926026666668,215.43815786666667,57.0,75.0
782,216.04755493333334,216.48257633333333,48.0,67.0
783,216.26781893333333,216.69916926666667,55.0,52.0
784,215.60702693333332,217.1635592,36.0,76.0
785,215.82729093333333,217.31407293333334,43.0,43.0
786,217.14887493333333,217.4168628,55.0,64.0
787,216.70834693333333,217.42604046666668,48.0,70.0
788,216.48808293333332,217.78580499999998,64.0,95.0
789,216.92861093333335,217.8243512,60.0,61.0
790,217.80966693333335,218.28874113333333,48.0,72.0
791,218.02993093333333,218.3584914,59.0,79.0
792,217.36913893333332,218.54388026666666,36.0,63.0
793,217.58940293333333,218.58793306666666,43.0,49.0
794,218.47045893333333,218.76414426666668,48.0,64.0
795,218.69072293333335,219.13675753333334,60.0,76.0
796,218.25019493333332,219.14409966666665,64.0,92.0
797,218.91098693333333,219.16061946666667,59.0,56.0
798,219.35151493333333,220.08939933333335,54.0,56.0
799,219.57177893333335,220.13895873333334,59.0,59.0
800,219.79204293333333,220.16282066666668,62.0,48.0
801,220.23257093333334,220.4179598,54.0,65.0
802,219.13125093333332,220.50973646666665,47.0,68.0
803,220.01230693333332,220.77405326666667,66.0,93.0
804,220.67309893333334,220.88234973333334,62.0,60.0
805,220.45283493333335,220.9741264,59.0,78.0
806,221.33389093333335,221.81480066666666,52.0,69.0
807,221.55415493333334,221.88822199999998,59.0,67.0
808,220.89336293333332,222.0405712666667,40.0,58.0
809,221.11362693333334,222.05525553333334,47.0,76.0
810,221.99468293333334,222.35995406666666,52.0,82.0
811,222.21494693333335,222.59490233333332,64.0,69.0
812,221.77441893333332,222.60224446666666,67.0,97.0
813,222.43521093333334,222.66281706666666,59.0,83.0
814,223.09600293333335,223.3181024666667,57.0,69.0
815,222.87573893333334,223.567735,52.0,41.0
816,223.31626693333334,223.5787482,60.0,63.0
817,223.75679493333334,223.90730866666667,52.0,68.0
818,222.65547493333332,223.98623659999998,45.0,63.0
819,223.97705893333335,224.32581026666668,60.0,72.0
820,223.53653093333332,224.3551788,64.0,95.0
821,224.19732293333334,224.42492906666666,57.0,75.0
822,224.85811493333335,225.34269573333333,50.0,75.0
823,225.07837893333334,225.5831506,57.0,76.0
824,224.41758693333333,225.64005213333334,38.0,67.0
825,224.63785093333334,225.6547364,45.0,48.0
826,225.51890693333334,226.02000753333334,50.0,85.0
827,225.29864293333333,226.08792226666668,66.0,117.0
828,225.95943493333334,226.19805426666667,57.0,77.0
829,225.73917093333336,226.21457406666667,62.0,86.0
830,226.62022693333336,227.07360366666666,55.0,76.0
831,226.84049093333334,227.20025546666668,59.0,82.0
832,227.06075493333333,227.55451340000002,62.0,102.0
833,227.28101893333334,227.70686266666667,55.0,93.0
834,226.17969893333333,227.86104746666666,43.0,72.0
835,227.72154693333334,227.8683896,65.0,74.0
836,227.50128293333336,227.87022513333335,59.0,88.0
837,227.72154693333334,227.87022513333335,62.0,70.0
838,226.39996293333334,227.9344688,50.0,58.0
839,227.94181093333333,228.64114913333333,65.0,97.0
840,227.94181093333333,228.6723532,59.0,92.0
841,227.94181093333333,228.67969533333334,62.0,96.0
842,228.60260293333334,228.84122226666668,55.0,79.0
843,228.82286693333333,229.12022333333334,59.0,93.0
844,228.38233893333333,229.16611166666667,50.0,60.0
845,229.04313093333332,229.1789604,55.0,99.0
846,227.94181093333333,229.26339493333333,43.0,92.0
847,228.82286693333333,229.3276386,62.0,99.0
848,228.82286693333333,229.65987013333333,65.0,100.0
849,229.48365893333334,229.66537673333335,62.0,90.0
850,229.26339493333333,229.68923866666668,59.0,89.0
851,229.66904780000002,230.1976814,55.0,72.0
852,229.67271886666666,230.42161646666668,64.0,72.0
853,229.67088333333334,230.42712306666667,60.0,75.0
854,230.3518662,230.6382094,55.0,65.0
855,230.14995753333335,230.82726933333333,48.0,82.0
856,229.66537673333335,230.84378913333333,36.0,71.0
857,229.900325,230.8529668,43.0,45.0
858,230.56295253333334,230.8584734,64.0,90.0
859,230.75568353333333,230.89885513333334,55.0,65.0
860,230.99063180000002,231.08791506666668,60.0,72.0
861,231.0181648,231.0897506,36.0,53.0
862,230.98696073333335,231.0952572,55.0,66.0
863,230.98879626666667,231.09892826666666,64.0,70.0
864,230.99246733333334,231.10259933333333,48.0,78.0
865,231.2053892,231.71933853333334,55.0,81.0
866,231.20722473333333,231.91757613333334,60.0,83.0
867,231.20722473333333,232.14701780000001,64.0,74.0
868,231.81295073333334,232.17638633333334,55.0,64.0
869,231.20722473333333,232.3342422,48.0,92.0
870,232.2901894,232.37462393333334,55.0,35.0
871,231.20355366666666,232.58754580000002,36.0,59.0
872,232.05707666666666,232.6150788,43.0,34.0
873,232.4994402,232.736224,48.0,81.0
874,232.26632746666667,232.818823,64.0,88.0
875,232.7417306,232.94363926666668,55.0,89.0
876,232.26816300000002,233.05377126666667,60.0,89.0
877,233.19510733333334,234.11103846666666,62.0,76.0
878,233.19143626666667,234.1183806,66.0,68.0
879,233.1877652,234.12021613333334,47.0,68.0
880,233.1932718,234.1238872,59.0,70.0
881,233.61728,234.140407,54.0,44.0
882,234.2615522,234.65068526666667,66.0,95.0
883,234.27623646666666,234.70024466666666,47.0,71.0
884,234.27072986666667,234.7351198,59.0,76.0
885,234.27440093333334,234.77183046666667,62.0,88.0
886,234.91867313333333,235.68592606666667,59.0,75.0
887,234.9168376,235.68592606666667,64.0,75.0
888,234.90949546666667,235.68959713333334,40.0,77.0
889,234.92050866666668,235.69143266666666,67.0,73.0
890,235.8529596,236.04201953333333,52.0,76.0
891,235.84928853333335,236.04385506666668,64.0,89.0
892,235.8584662,236.0456906,40.0,58.0
893,235.847453,236.04936166666667,67.0,83.0
894,235.84561746666668,236.05303273333334,59.0,81.0
895,236.1668358,236.32836273333334,52.0,83.0
896,236.15398706666667,236.3540602,64.0,85.0
897,236.15215153333332,236.35773126666666,67.0,82.0
898,236.1448094,236.36690893333335,40.0,53.0
899,236.150316,236.37425106666666,59.0,83.0
900,236.48438306666668,236.53944906666666,67.0,52.0
901,236.47704093333334,236.58350186666667,64.0,69.0
902,236.47153433333332,236.62755466666667,59.0,88.0
903,236.47336986666667,236.68078513333333,52.0,89.0
904,236.73034453333332,237.47373553333333,64.0,85.0
905,236.72667346666668,237.4884198,57.0,82.0
906,236.72483793333333,237.49576193333334,60.0,79.0
907,237.1910634,237.69032846666667,52.0,55.0
908,237.6205782,238.14186966666668,60.0,79.0
909,237.83900666666668,238.4741012,52.0,48.0
910,238.2923834,238.51998953333333,60.0,73.0
911,238.07395493333334,238.53650933333333,57.0,83.0
912,238.51081186666667,238.53650933333333,57.0,65.0
913,236.72116686666666,238.53834486666668,45.0,82.0
914,237.61874266666666,238.54568700000002,64.0,81.0
915,238.5126474,242.96565126666667,62.0,66.0
916,238.50897633333335,242.9895132,66.0,62.0
917,239.39553893333334,242.99134873333333,50.0,44.0
918,238.9752018,242.99318426666667,45.0,37.0
919,238.5126474,243.00786853333335,38.0,71.0
920,243.31807366666666,243.75125953333333,79.0,78.0
921,243.75309506666667,245.48033193333333,74.0,73.0
922,244.58826273333332,245.48033193333333,74.0,74.0
923,243.69802906666666,247.30852313333332,59.0,40.0
924,243.68701586666668,247.32137186666668,43.0,44.0
925,243.69252246666667,247.3232074,55.0,36.0
926,247.0643972,247.3232074,55.0,37.0
927,243.69619353333334,247.32504293333335,62.0,37.0
928,244.59009826666667,247.4168196,86.0,81.0
929,246.97262053333333,247.77841966666668,72.0,83.0
930,247.90507146666667,248.4465538,72.0,71.0
931,247.1139566,250.77401006666668,48.0,33.0
932,247.05705506666666,250.78135220000001,60.0,55.0
933,250.77951666666667,250.78135220000001,60.0,39.0
934,247.06623273333335,250.7923654,64.0,42.0
935,247.08825913333334,250.79970753333333,36.0,35.0
936,248.40433653333335,250.80704966666667,74.0,64.0
937,250.82907606666666,251.4256244,67.0,82.0
938,251.3154924,251.71380313333333,72.0,54.0
939,250.78869433333332,252.1580022,65.0,38.0
940,251.72114526666667,252.1580022,65.0,58.0
941,252.1304692,254.129365,67.0,53.0
942,250.79052986666667,254.54419553333335,53.0,40.0
943,250.8033786,254.55520873333333,48.0,40.0
944,250.79603646666666,254.56255086666667,69.0,35.0
945,254.12018733333335,254.56255086666667,69.0,36.0
946,250.7868588,254.56438640000002,41.0,34.0
947,254.59008386666667,255.3793632,67.0,43.0
948,254.64331433333334,260.2710595333333,69.0,55.0
949,254.7240778,260.6987388,71.0,59.0
950,254.8121834,260.7262718,74.0,88.0
951,254.8287032,261.1833196,43.0,32.0
952,254.8121834,261.20534599999996,50.0,38.0
953,254.80851233333334,261.25123433333334,55.0,44.0
954,254.87092046666666,261.25674093333333,59.0,43.0
955,254.94250626666667,261.2714252,62.0,61.0
