,start,end,pitch,velocity
0,21.25875,21.43,64.0,79.0
1,21.55875,21.72875,64.0,74.0
2,21.85875,22.035,64.0,72.0
3,22.15875,22.375,64.0,73.0
4,22.458750000000002,22.650000000000002,62.0,71.0
5,22.75875,23.00125,62.0,71.0
6,23.05875,23.31375,60.0,71.0
7,23.35875,23.65625,62.0,72.0
8,23.65875,23.87,62.0,73.0
9,23.958750000000002,24.20625,62.0,76.0
10,24.25875,24.49125,60.0,77.0
11,24.55875,24.85625,62.0,76.0
12,24.85875,25.66125,57.0,72.0
13,26.05875,26.265,60.0,71.0
14,26.35875,26.555,60.0,74.0
15,26.65875,26.8775,60.0,74.0
16,26.958750000000002,27.1725,60.0,77.0
17,27.25875,27.48125,57.0,71.0
18,27.55875,27.78375,57.0,70.0
19,27.85875,28.075,60.0,77.0
20,28.15875,28.385,64.0,77.0
21,28.458750000000002,28.64,62.0,71.0
22,28.75875,28.96,62.0,72.0
23,29.05875,29.26125,60.0,77.0
24,29.35875,29.93375,57.0,74.0
25,29.958750000000002,30.52,55.0,76.0
26,30.85875,31.0475,64.0,77.0
27,31.15875,31.3825,64.0,78.0
28,31.458750000000002,31.64,67.0,69.0
29,31.75875,31.99625,67.0,70.0
30,32.05875,32.4475,64.0,78.0
31,32.65875,32.89,60.0,77.0
32,32.95875,33.43875,62.0,73.0
33,33.55875,33.745,62.0,73.0
34,33.85875,34.075,64.0,75.0
35,34.15875,34.410000000000004,57.0,76.0
36,34.45875,35.13125,62.0,72.0
37,35.65875,35.8375,60.0,76.0
38,35.95875,36.16375,60.0,74.0
39,36.25875,36.465,60.0,72.0
40,36.55875,36.80125,60.0,78.0
41,36.85875,37.055,57.0,69.0
42,37.15875,37.43,57.0,71.0
43,37.45875,37.68,60.0,76.0
44,37.75875,38.2775,64.0,68.0
45,38.35875,38.545,62.0,72.0
46,38.65875,39.61,62.0,72.0
47,39.85875,40.11125,57.0,74.0
48,40.15875,40.456250000000004,64.0,75.0
49,40.45875,40.77875,60.0,73.0
50,40.75875,42.5225,62.0,70.0
51,45.25875,45.43,64.0,79.0
52,45.55875,45.72875,64.0,74.0
53,45.85875,46.035000000000004,64.0,72.0
54,46.15875,46.375,64.0,73.0
55,46.45875,46.65,62.0,71.0
56,46.75875,47.00125,62.0,71.0
57,47.05875,47.31375,60.0,71.0
58,47.35875,47.65625,62.0,72.0
59,47.65875,47.870000000000005,62.0,73.0
60,47.95875,48.206250000000004,62.0,76.0
61,48.25875,48.49125,60.0,77.0
62,48.55875,48.85625,62.0,76.0
63,48.85875,49.66125,57.0,72.0
64,50.05875,50.265,60.0,71.0
65,50.35875,50.555,60.0,74.0
66,50.65875,50.8775,60.0,74.0
67,50.95875,51.1725,60.0,77.0
68,51.25875,51.48125,57.0,71.0
69,51.55875,51.78375,57.0,70.0
70,51.85875,52.075,60.0,77.0
71,52.15875,52.75625,64.0,77.0
72,52.75875,52.94,62.0,71.0
73,53.05875,53.261250000000004,60.0,77.0
74,53.35875,53.65625,57.0,74.0
75,53.65875,54.55625,55.0,76.0
76,54.85875,55.0475,64.0,77.0
77,55.15875,55.3825,64.0,78.0
78,55.45875,55.64,67.0,69.0
79,55.75875,55.99625,67.0,70.0
80,56.05875,56.35625,64.0,78.0
81,56.35875,56.65625,62.0,77.0
82,56.65875,56.89,60.0,77.0
83,56.95875,57.25625,62.0,73.0
84,57.25875,57.55625,62.0,73.0
85,57.55875,57.745000000000005,62.0,73.0
86,57.85875,58.075,64.0,75.0
87,58.15875,58.410000000000004,57.0,76.0
88,58.45875,59.13125,62.0,72.0
89,59.65875,59.8375,60.0,76.0
90,59.95875,60.16375,60.0,74.0
91,60.25875,60.465,60.0,72.0
92,60.55875,60.80125,60.0,78.0
93,60.85875,61.055,57.0,69.0
94,61.15875,61.43,57.0,71.0
95,61.45875,61.68,60.0,76.0
96,61.75875,62.2775,64.0,68.0
97,62.35875,62.545,62.0,72.0
98,62.658750000000005,63.25625,62.0,72.0
99,63.25875,63.55625,60.0,77.0
100,63.55875,63.81125,57.0,74.0
101,63.85875,65.95625,60.0,75.0
102,69.55875,69.82375,65.0,78.0
103,69.85875,70.04,64.0,80.0
104,70.15875,70.39625,65.0,81.0
105,70.45875,70.70875,64.0,80.0
106,70.75875,71.04375,60.0,77.0
107,71.05875,71.66,64.0,77.0
108,71.65875,72.80875,60.0,78.0
109,72.85875,73.07000000000001,60.0,76.0
110,73.15875,73.39,60.0,75.0
111,73.45875,73.675,57.0,75.0
112,73.75875,73.95375,60.0,77.0
113,74.05875,74.24375,60.0,72.0
114,74.35875,74.59125,60.0,74.0
115,74.65875,74.935,57.0,72.0
116,74.95875,75.54625,60.0,77.0
117,75.55875,75.88875,57.0,71.0
118,75.85875,76.485,64.0,68.0
119,76.45875,78.40125,62.0,76.0
120,79.15875,79.3575,65.0,78.0
121,79.45875,79.63875,64.0,80.0
122,79.75875,79.97500000000001,65.0,78.0
123,80.05875,80.275,64.0,77.0
124,80.35875,80.65625,60.0,78.0
125,80.65875,81.24,64.0,78.0
126,81.25875,81.9525,60.0,76.0
127,82.75875,83.0025,60.0,77.0
128,83.05875,83.29125,57.0,77.0
129,83.35875,83.51125,67.0,75.0
130,83.65875,83.7975,67.0,78.0
131,83.95875,84.14,67.0,76.0
132,84.25875,84.4325,67.0,74.0
133,84.55875,84.73,67.0,76.0
134,84.85875,85.34125,64.0,77.0
135,85.45875,85.7,65.0,70.0
136,85.75875,86.59875,69.0,76.0
137,86.65875,88.77431167916669,67.0,77.0
138,89.39800959583336,90.52937456250002,72.0,80.0
139,90.64711606250003,91.25572924791668,71.0,80.0
140,91.25824181041668,91.49709859166668,69.0,79.0
141,91.55834859166669,91.71584859166668,67.0,72.0
142,91.85834859166668,92.08959859166669,67.0,72.0
143,92.15834859166668,92.40584859166668,64.0,81.0
144,92.45834859166668,92.98459859166668,67.0,77.0
145,93.05834859166669,93.28334859166668,69.0,76.0
146,93.35834859166668,94.52834859166668,67.0,77.0
147,95.45834859166668,95.63459859166669,64.0,78.0
148,95.75834859166669,95.97959859166669,67.0,69.0
149,96.05834859166669,96.26209859166669,69.0,71.0
150,96.35834859166668,96.90459859166668,69.0,77.0
151,96.95834859166668,97.14834859166669,72.0,76.0
152,97.25834859166669,97.55584859166669,69.0,77.0
153,97.55834859166669,98.15584859166668,67.0,72.0
154,98.15834859166668,98.75584859166668,64.0,77.0
155,98.75834859166669,99.64334859166668,62.0,77.0
156,100.25834859166669,100.50709859166669,64.0,78.0
157,100.55834859166669,100.80959859166668,62.0,76.0
158,100.85834859166668,101.12709859166668,60.0,76.0
159,101.15834859166668,101.35959859166668,62.0,73.0
160,101.45834859166669,101.69584859166669,64.0,77.0
161,101.75834859166669,102.44209859166668,69.0,78.0
162,102.65834859166668,102.85709859166668,64.0,76.0
163,102.95834859166669,103.19584859166669,62.0,76.0
164,103.25834859166669,103.49834859166668,60.0,71.0
165,103.55834859166669,103.83334859166669,62.0,75.0
166,103.85834859166668,104.08459859166669,64.0,77.0
167,104.15834859166668,104.92459859166668,71.0,77.0
168,105.05834859166669,105.27959859166668,69.0,78.0
169,105.35834859166668,105.54209859166669,71.0,77.0
170,105.65834859166668,106.00459859166668,72.0,79.0
171,106.10834859166668,106.49334859166669,72.0,79.0
172,106.55834859166669,106.81959859166669,69.0,77.0
173,106.85834859166668,107.19459859166669,72.0,78.0
174,107.30834859166669,107.74459859166669,72.0,78.0
175,107.75834859166669,107.97459859166668,69.0,76.0
176,108.05834859166669,108.31334859166668,69.0,74.0
177,108.35834859166668,109.59959859166668,67.0,75.0
178,109.85834859166668,110.09584859166668,72.0,78.0
179,110.15834859166668,110.44334859166668,71.0,77.0
180,110.45834859166669,110.72709859166669,69.0,77.0
181,110.75834859166669,110.92959859166669,67.0,71.0
182,111.05834859166669,111.27084859166669,67.0,70.0
183,111.35834859166668,111.58709859166669,64.0,79.0
184,111.65834859166668,112.28084859166668,67.0,77.0
185,112.25834859166669,112.54834859166668,64.0,80.0
186,112.55834859166669,113.15334859166668,69.0,78.0
187,113.15834859166668,114.22209859166668,67.0,70.0
188,114.65834859166668,114.83834859166669,64.0,81.0
189,114.95834859166669,115.18584859166668,67.0,76.0
190,115.25834859166669,115.62459859166668,69.0,77.0
191,115.70834859166669,116.07709859166668,69.0,77.0
192,116.15834859166668,116.42209859166668,72.0,77.0
193,116.45834859166669,116.99084859166669,69.0,77.0
194,117.05834859166669,117.29709859166668,67.0,77.0
195,117.35834859166668,117.97709859166669,64.0,78.0
196,117.95834859166669,119.26209859166669,62.0,72.0
197,119.45834859166669,119.68584859166668,64.0,77.0
198,119.75834859166669,120.06459859166668,62.0,76.0
199,120.05834859166669,120.39709859166669,60.0,77.0
200,120.35834859166668,120.64834859166669,62.0,78.0
201,120.65834859166668,121.00584859166668,64.0,78.0
202,120.95834859166669,121.71459859166669,69.0,75.0
203,121.85834859166668,122.09959859166668,64.0,78.0
204,122.15834859166668,122.46209859166669,62.0,76.0
205,122.45834859166669,122.78334859166668,60.0,76.0
206,122.75834859166669,123.05834859166669,62.0,77.0
207,123.05834859166669,123.36834859166669,64.0,78.0
208,123.35834859166668,124.04584859166668,71.0,77.0
209,124.25834859166667,124.40834859166668,69.0,80.0
210,124.55834859166669,124.76459859166668,71.0,78.0
211,124.85834859166668,125.04334859166669,72.0,77.0
212,125.15834859166668,125.35334859166669,72.0,76.0
213,125.45834859166669,125.70084859166668,72.0,77.0
214,125.75834859166667,126.09084859166668,69.0,77.0
215,126.05834859166669,126.69959859166669,74.0,81.0
216,126.65834859166668,128.34834859166668,72.0,70.0
217,128.4583485916667,128.85209859166667,69.0,82.0
218,128.75834859166667,129.6120985916667,76.0,78.0
219,129.65834859166668,130.0233485916667,69.0,73.0
220,129.9583485916667,132.3983485916667,72.0,77.0
221,173.11566003125,173.28691003125002,64.0,79.0
222,173.41566003125,173.58566003125,64.0,74.0
223,173.71566003125,173.89191003125,64.0,72.0
224,174.01566003125,174.23191003125,64.0,73.0
225,174.31566003125002,174.50691003125002,62.0,71.0
226,174.61566003125,174.85816003125,62.0,71.0
227,174.91566003125,175.17066003125,60.0,71.0
228,175.21566003125,175.51316003125,62.0,72.0
229,175.51566003125,175.72691003125001,62.0,73.0
230,175.81566003125002,176.06316003125,62.0,76.0
231,176.11566003125,176.34816003125002,60.0,77.0
232,176.41566003125,176.71316003125,62.0,76.0
233,176.71566003125,177.51816003125,57.0,72.0
234,177.91566003125,178.12191003125,60.0,71.0
235,178.21566003125,178.41191003125002,60.0,74.0
236,178.51566003125,178.73441003125,60.0,74.0
237,178.81566003125002,179.02941003125,60.0,77.0
238,179.11566003125,179.33816003125,57.0,71.0
239,179.41566003125,179.64066003125,57.0,70.0
240,179.71566003125,179.93191003125,60.0,77.0
241,180.01566003125,180.61316003125,64.0,77.0
242,180.61566003125,180.79691003125,62.0,71.0
243,180.91566003125,181.11816003125,60.0,77.0
244,181.21566003125,181.51316003125,57.0,74.0
245,181.51566003125,182.41316003125002,55.0,76.0
246,182.71566003125,182.90441003125,64.0,77.0
247,183.01566003125,183.23941003125,64.0,78.0
248,183.31566003125002,183.49691003125,67.0,69.0
249,183.61566003125,183.85316003125,67.0,70.0
250,183.91566003125,184.21316003125,64.0,78.0
251,184.21566003125,184.51316003125,62.0,77.0
252,184.51566003125,184.74691003125,60.0,77.0
253,184.81566003125002,185.11316003125,62.0,73.0
254,185.11566003125,185.41316003125002,62.0,73.0
255,185.41566003125,185.60191003125001,62.0,73.0
256,185.71566003125,185.93191003125,64.0,75.0
257,186.01566003125,186.26691003125,57.0,76.0
258,186.31566003125002,186.98816003125,62.0,72.0
259,187.51566003125,187.69441003125002,60.0,76.0
260,187.81566003125002,188.02066003125,60.0,74.0
261,188.11566003125,188.32191003125,60.0,72.0
262,188.41566003125,188.65816003125002,60.0,78.0
263,188.71566003125,188.91191003125002,57.0,69.0
264,189.01566003125,189.28691003125002,57.0,71.0
265,189.31566003125002,189.53691003125002,60.0,76.0
266,189.61566003125,190.13441003125,64.0,68.0
267,190.21566003125,190.40191003125,62.0,72.0
268,190.51566003125,191.11316003125,62.0,72.0
269,191.11566003125,191.41316003125002,60.0,77.0
270,191.41566003125,191.66816003125,57.0,74.0
271,191.71566003125,193.81316003125,60.0,75.0
272,197.41566003125,197.68066003125,65.0,78.0
273,197.71566003125,197.89691003125,64.0,80.0
274,198.01566003125,198.25316003125002,65.0,81.0
275,198.31566003125002,198.56566003125002,64.0,80.0
276,198.61566003125,198.90066003125,60.0,77.0
277,198.91566003125,199.51691003125,64.0,77.0
278,199.51566003125,200.66566003125,60.0,78.0
279,200.71566003125,200.92691003125,60.0,76.0
280,201.01566003125,201.24691003125,60.0,75.0
281,201.31566003125002,201.53191003125,57.0,75.0
282,201.61566003125,201.81066003125,60.0,77.0
283,201.91566003125,202.10066003125002,60.0,72.0
284,202.21566003125,202.44816003125,60.0,74.0
285,202.51566003125,202.79191003125,57.0,72.0
286,202.81566003125002,203.40316003125,60.0,77.0
287,203.41566003125,203.74566003125,57.0,71.0
288,203.71566003125,204.34191003125,64.0,68.0
289,204.31566003125002,206.25816003125001,62.0,76.0
290,207.01566003125,207.21441003125,65.0,78.0
291,207.31566003125,207.49566003125,64.0,80.0
292,207.61566003125,207.83191003125,65.0,78.0
293,207.91566003125,208.13191003125002,64.0,77.0
294,208.21566003125002,208.51316003125,60.0,78.0
295,208.51566003125,209.09691003125,64.0,78.0
296,209.11566003125,209.80941003125002,60.0,76.0
297,210.61566003125,210.85941003125,60.0,77.0
298,210.91566003125,211.14816003125,57.0,77.0
299,211.21566003125002,211.36816003125,67.0,75.0
300,211.51566003125,211.65441003125,67.0,78.0
301,211.81566003125,211.99691003125002,67.0,76.0
302,212.11566003125,212.28941003125001,67.0,74.0
303,212.41566003125,212.58691003125,67.0,76.0
304,212.71566003125002,213.19816003125,64.0,77.0
305,213.31566003125,213.55691003125,65.0,70.0
306,213.61566003125,214.45566003125,69.0,76.0
307,214.51566003125,216.61691003125,67.0,77.0
308,217.81566003125,218.11316003125,72.0,80.0
309,218.11566003125,218.41316003125002,71.0,80.0
310,218.41566003125,218.65441003125,69.0,79.0
311,218.71566003125002,218.87316003125,67.0,72.0
312,219.01566003125,219.24691003125002,67.0,72.0
313,219.31566003125,219.56316003125,64.0,81.0
314,219.61566003125,220.14191003125,67.0,77.0
315,220.21566003125002,220.44066003125,69.0,76.0
316,220.51566003125,221.68566003125,67.0,77.0
317,222.61566003125,222.79191003125,64.0,78.0
318,222.91566003125,223.13691003125,67.0,69.0
319,223.21566003125002,223.41941003125,69.0,71.0
320,223.51566003125,224.06191003125002,69.0,77.0
321,224.11566003125,224.30566003125,72.0,76.0
322,224.41566003125,224.71316003125,69.0,77.0
323,224.71566003125002,225.31316003125,67.0,72.0
324,225.31566003125,225.91316003125002,64.0,77.0
325,225.91566003125,226.80066003125,62.0,77.0
326,227.41566003125,227.66441003125001,64.0,78.0
327,227.71566003125002,227.96691003125,62.0,76.0
328,228.01566003125,228.28441003125,60.0,76.0
329,228.31566003125,228.51691003125,62.0,73.0
330,228.61566003125,228.85316003125,64.0,77.0
331,228.91566003125,229.59941003125002,69.0,78.0
332,229.81566003125,230.01441003125,64.0,76.0
333,230.11566003125,230.35316003125,62.0,76.0
334,230.41566003125,230.65566003125002,60.0,71.0
335,230.71566003125002,230.99066003125,62.0,75.0
336,231.01566003125,231.24191003125,64.0,77.0
337,231.31566003125,232.08191003125,71.0,77.0
338,232.21566003125002,232.43691003125002,69.0,78.0
339,232.51566003125,232.69941003125,71.0,77.0
340,232.81566003125,233.16191003125002,72.0,79.0
341,233.26566003125,233.65066003125,72.0,79.0
342,233.71566003125002,233.97691003125001,69.0,77.0
343,234.01566003125,234.35191003125001,72.0,78.0
344,234.46566003125002,234.90191003125,72.0,78.0
345,234.91566003125,235.13191003125002,69.0,76.0
346,235.21566003125002,235.47066003125002,69.0,74.0
347,235.51566003125,236.75691003125002,67.0,75.0
348,237.01566003125,237.25316003125,72.0,78.0
349,237.31566003125,237.60066003125002,71.0,77.0
350,237.61566003125,237.88441003125,69.0,77.0
351,237.91566003125,238.08691003125,67.0,71.0
352,238.21566003125002,238.42816003125,67.0,70.0
353,238.51566003125,238.74441003125003,64.0,79.0
354,238.81566003125,239.43816003125,67.0,77.0
355,239.41566003125,239.70566003125,64.0,80.0
356,239.71566003125002,240.31066003125,69.0,78.0
357,240.31566003125,241.37941003125002,67.0,70.0
358,241.81566003125,241.99566003125,64.0,81.0
359,242.11566003125,242.34316003125002,67.0,76.0
360,242.41566003125,242.78191003125,69.0,77.0
361,242.86566003125,243.23441003125,69.0,77.0
362,243.31566003125,243.57941003125,72.0,77.0
363,243.61566003125,244.14816003125003,69.0,77.0
364,244.21566003125002,244.45441003125,67.0,77.0
365,244.51566003125,245.13441003125,64.0,78.0
366,245.11566003125,246.41941003125,62.0,72.0
367,246.61566003125,246.84316003125002,64.0,77.0
368,246.91566003125,247.22191003125,62.0,76.0
369,247.21566003125002,247.55441003125003,60.0,77.0
370,247.51566003125,247.80566003125,62.0,78.0
371,247.81566003125,248.16316003125002,64.0,78.0
372,248.11566003125,248.87191003125002,69.0,75.0
373,249.01566003125,249.25691003125002,64.0,78.0
374,249.31566003125,249.61941003125003,62.0,76.0
375,249.61566003125,249.94066003125,60.0,76.0
376,249.91566003125,250.21566003125002,62.0,77.0
377,250.21566003125002,250.52566003125003,64.0,78.0
378,250.51566003125,251.20316003125,71.0,77.0
379,251.41566003125,251.56566003125,69.0,80.0
380,251.71566003125002,251.92191003125,71.0,78.0
381,252.01566003125,252.20066003125,72.0,77.0
382,252.31566003125,252.51066003125,72.0,76.0
383,252.61566003125,252.85816003125,72.0,77.0
384,252.91566003125,253.24816003125,69.0,77.0
385,253.21566003125002,253.85691003125,74.0,81.0
386,253.81566003125,255.50566003125,72.0,70.0
387,256.19691003125,256.65066003125,69.0,78.0
388,256.59941003125,257.48066003125,76.0,82.0
389,257.46441003125,257.90691003125,69.0,78.0
390,257.88191003125,262.09191003125,72.0,76.0
391,267.16941003125,267.45941003125,69.0,76.0
392,267.55566003125,267.85066003125,71.0,80.0
393,267.91566003125,268.17941003125003,72.0,76.0
394,268.26066003125004,268.54316003125,72.0,76.0
395,268.64941003125,268.95441003125,72.0,77.0
396,268.97316003125,269.39191003125,69.0,77.0
397,269.39066003125004,270.22566003125,74.0,79.0
398,270.22816003125,272.81566003125,72.0,76.0
399,272.78191003125,273.34691003125,69.0,76.0
400,273.30816003125,274.52941003125,76.0,77.0
401,274.51066003125004,275.58816003125,69.0,76.0
402,275.54316003125,279.54566003125,72.0,76.0
