,start,end,pitch,velocity
0,2.4025,3.7775,60.0,75.0
1,2.41875,3.81375,67.0,71.0
2,2.07125,4.89125,55.0,69.0
3,1.7725,4.9175,48.0,80.0
4,7.1075,8.6275,55.0,64.0
5,6.54125,8.668750000000001,48.0,76.0
6,7.1225000000000005,8.95625,60.0,66.0
7,7.2325,9.025,67.0,60.0
8,8.95875,11.05625,46.0,53.0
9,9.515,11.3275,58.0,67.0
10,9.23,11.34875,53.0,61.0
11,9.815,11.36,62.0,73.0
12,11.85875,12.07875,60.0,48.0
13,11.73375,15.03125,55.0,67.0
14,11.34125,15.0675,48.0,78.0
15,11.981250000000001,15.26625,67.0,69.0
16,11.94875,15.2675,62.0,65.0
17,16.79,18.1675,65.0,61.0
18,16.74875,18.22625,62.0,70.0
19,16.645,18.23125,58.0,65.0
20,16.02375,18.4025,46.0,73.0
21,16.44625,18.44875,53.0,58.0
22,18.6525,18.84,53.0,62.0
23,18.6575,19.435,50.0,64.0
24,18.5325,19.46125,43.0,72.0
25,18.72125,19.6125,55.0,69.0
26,18.8,19.65875,60.0,58.0
27,20.052500000000002,21.0,62.0,35.0
28,19.78125,21.015,50.0,68.0
29,19.8225,21.02,55.0,64.0
30,19.91125,21.021250000000002,59.0,69.0
31,19.645,21.05125,43.0,70.0
32,21.55875,21.86625,62.0,71.0
33,22.458750000000002,22.76875,60.0,64.0
34,21.25875,23.165,55.0,69.0
35,20.958750000000002,23.16875,48.0,78.0
36,21.85875,23.47375,64.0,77.0
37,22.75875,23.4825,67.0,72.0
38,23.65875,25.43875,55.0,59.0
39,23.35875,25.4775,48.0,77.0
40,23.958750000000002,25.8275,62.0,65.0
41,24.25875,25.87125,66.0,66.0
42,26.05875,27.37875,48.0,66.0
43,26.35875,27.57375,53.0,70.0
44,25.75875,27.90625,41.0,72.0
45,27.55875,27.92625,48.0,54.0
46,27.85875,28.153750000000002,53.0,69.0
47,26.65875,28.185000000000002,60.0,74.0
48,28.75875,29.15125,62.0,71.0
49,28.458750000000002,30.028750000000002,55.0,72.0
50,29.05875,30.21125,64.0,78.0
51,28.15875,30.2175,48.0,77.0
52,30.25875,30.5075,60.0,68.0
53,30.55875,31.095000000000002,64.0,72.0
54,31.15875,32.11125,59.0,77.0
55,30.85875,32.12125,47.0,60.0
56,31.458750000000002,32.15,67.0,77.0
57,30.55875,32.1775,40.0,78.0
58,32.05875,32.4425,64.0,73.0
59,32.35875,32.52875,59.0,69.0
60,32.95875,33.35625,53.0,66.0
61,32.95875,33.61,57.0,70.0
62,33.55875,34.485,53.0,76.0
63,33.25875,34.89625,48.0,65.0
64,33.85875,34.90875,60.0,72.0
65,32.95875,34.95125,41.0,73.0
66,34.75875,35.165,53.0,72.0
67,35.05875,35.355000000000004,60.0,71.0
68,34.45875,35.6875,65.0,71.0
69,35.65875,36.67625,62.0,68.0
70,35.35875,37.191250000000004,50.0,78.0
71,35.95875,37.2125,57.0,68.0
72,37.15875,37.36125,62.0,71.0
73,36.25875,37.3775,65.0,74.0
74,37.59625,38.136250000000004,57.0,61.0
75,37.68,38.3875,62.0,63.0
76,37.73875,38.3925,65.0,66.0
77,38.05125,39.295,45.0,50.0
78,37.7325,39.36875,38.0,78.0
79,38.347500000000004,40.128750000000004,57.0,66.0
80,38.667500000000004,40.89125,65.0,66.0
81,40.75875,41.073750000000004,57.0,78.0
82,41.05875,41.65,60.0,79.0
83,41.65875,42.005,57.0,67.0
84,40.15875,42.2725,43.0,71.0
85,41.95875,42.300000000000004,60.0,78.0
86,40.45875,42.37625,50.0,70.0
87,42.25875,42.58375,59.0,69.0
88,42.55875,42.6725,60.0,52.0
89,42.55875,42.917500000000004,67.0,76.0
90,42.85875,43.23625,55.0,77.0
91,43.15875,43.5125,65.0,65.0
92,43.45875,43.785000000000004,55.0,76.0
93,43.75875,44.362500000000004,64.0,79.0
94,44.05875,44.395,55.0,68.0
95,44.35875,44.86375,62.0,75.0
96,44.65875,44.93375,55.0,70.0
97,42.55875,44.99625,43.0,72.0
98,45.55875,45.86625,62.0,71.0
99,46.45875,46.768750000000004,60.0,64.0
100,45.25875,47.165,55.0,69.0
101,44.95875,47.16875,48.0,78.0
102,45.85875,47.47375,64.0,77.0
103,46.75875,47.4825,67.0,72.0
104,47.65875,49.43875,55.0,59.0
105,47.35875,49.4775,48.0,77.0
106,47.95875,49.8275,62.0,65.0
107,48.25875,49.87125,66.0,66.0
108,50.05875,51.378750000000004,48.0,66.0
109,50.35875,51.573750000000004,53.0,70.0
110,49.75875,51.90625,41.0,72.0
111,51.55875,51.92625,48.0,54.0
112,51.85875,52.15375,53.0,69.0
113,50.65875,52.185,60.0,74.0
114,52.75875,53.151250000000005,62.0,71.0
115,52.45875,54.02875,55.0,72.0
116,53.05875,54.21125,64.0,78.0
117,52.15875,54.2175,48.0,77.0
118,54.25875,54.5075,60.0,68.0
119,54.55875,55.095,64.0,72.0
120,55.15875,56.11125,59.0,77.0
121,54.85875,56.12125,47.0,60.0
122,55.45875,56.15,67.0,77.0
123,54.55875,56.1775,40.0,78.0
124,56.05875,56.4425,64.0,73.0
125,56.35875,56.52875,59.0,69.0
126,56.95875,57.35625,53.0,66.0
127,56.95875,57.61,57.0,70.0
128,57.55875,58.485,53.0,76.0
129,57.25875,58.89625,48.0,65.0
130,57.85875,58.90875,60.0,72.0
131,56.95875,58.95125,41.0,73.0
132,58.75875,59.165,53.0,72.0
133,59.05875,59.355000000000004,60.0,71.0
134,58.45875,59.6875,65.0,71.0
135,59.65875,60.67625,62.0,68.0
136,59.35875,61.191250000000004,50.0,78.0
137,59.95875,61.2125,57.0,68.0
138,61.15875,61.36125,62.0,71.0
139,60.25875,61.3775,65.0,74.0
140,61.596250000000005,62.136250000000004,57.0,61.0
141,61.68,62.3875,62.0,63.0
142,61.73875,62.3925,65.0,66.0
143,62.05125,63.295,45.0,50.0
144,61.7325,63.36875,38.0,78.0
145,62.347500000000004,64.12875,57.0,66.0
146,62.667500000000004,64.89125,65.0,66.0
147,64.75875,65.0975,62.0,67.0
148,64.45875,65.17625,55.0,69.0
149,65.35875,65.78,55.0,53.0
150,65.65875,66.045,60.0,57.0
151,65.95875,66.17125,55.0,66.0
152,64.15875,66.21875,48.0,80.0
153,65.05875,66.5175,64.0,72.0
154,66.25875,66.73125,60.0,71.0
155,67.75875,68.11,55.0,77.0
156,66.85875,68.1175,43.0,52.0
157,68.05875,68.9825,48.0,75.0
158,68.65875,68.98375,55.0,71.0
159,68.35875,69.00875,43.0,63.0
160,66.55875,69.015,36.0,74.0
161,69.25875,70.3375,48.0,74.0
162,69.55875,70.615,53.0,79.0
163,69.85875,70.79625,60.0,80.0
164,70.45875,70.8325,48.0,65.0
165,68.95875,70.885,41.0,79.0
166,70.75875,71.2525,53.0,38.0
167,70.75875,71.32625,57.0,72.0
168,71.05875,71.65375,65.0,67.0
169,71.65875,72.5625,52.0,72.0
170,71.95875,72.7975,57.0,76.0
171,72.25875,73.1225,64.0,81.0
172,71.35875,73.21375,45.0,73.0
173,72.85875,73.22,52.0,60.0
174,73.15875,73.425,60.0,76.0
175,73.45875,73.6125,55.0,80.0
176,73.75875,74.1275,53.0,76.0
177,73.75875,74.395,57.0,76.0
178,74.35875,75.25375,53.0,78.0
179,74.05875,75.51625,48.0,69.0
180,73.75875,75.54375,41.0,76.0
181,74.65875,75.59625,60.0,77.0
182,75.55875,75.95375,53.0,76.0
183,75.25875,76.135,65.0,75.0
184,75.85875,76.44500000000001,60.0,72.0
185,76.45875,77.23625,50.0,70.0
186,76.75875,77.42,55.0,75.0
187,76.15875,77.89625,43.0,75.0
188,77.35875,77.91,50.0,68.0
189,77.65875,77.985,55.0,76.0
190,77.05875,78.025,62.0,72.0
191,77.95875,78.355,67.0,76.0
192,78.25875,78.42375,55.0,78.0
193,78.55875,78.98125,58.0,64.0
194,79.15875,79.52625,58.0,65.0
195,78.55875,79.5275,62.0,71.0
196,79.45875,80.1275,65.0,77.0
197,80.05875,80.54625,62.0,71.0
198,80.35875,80.55875,58.0,66.0
199,78.85875,80.5775,53.0,65.0
200,78.55875,80.8325,46.0,74.0
201,80.95875,81.5975,60.0,69.0
202,81.55875,82.52250000000001,57.0,70.0
203,81.85875,82.54,64.0,77.0
204,81.25875,82.795,52.0,68.0
205,82.45875,82.80125,60.0,71.0
206,80.95875,82.815,45.0,77.0
207,82.75875,83.425,57.0,68.0
208,83.35875,84.28125,65.0,73.0
209,83.95875,84.375,57.0,68.0
210,84.25875,84.63625,64.0,65.0
211,84.25875,85.16375000000001,60.0,67.0
212,83.65875,85.39750000000001,48.0,64.0
213,83.35875,85.43875,41.0,76.0
214,85.15875,85.81,57.0,72.0
215,85.45875,85.8425,60.0,70.0
216,86.35875,86.75750000000001,62.0,71.0
217,86.05875,87.4025,50.0,71.0
218,85.75875,87.42125,43.0,77.0
219,86.65875,87.61125,67.0,76.0
220,87.25875,87.67375,55.0,70.0
221,87.55875,87.85625,62.0,76.0
222,88.74696792916669,88.80556167916669,55.0,44.0
223,88.73655126250003,89.58030126250003,62.0,77.0
224,89.03472834583336,90.19488459583336,67.0,76.0
225,88.41753134166669,91.13239525625002,50.0,74.0
226,89.35764501250003,91.13744575625002,55.0,69.0
227,89.69228042916669,91.16389729791668,59.0,73.0
228,88.11125,91.18027009375001,43.0,77.0
229,90.13889501250003,91.18530787708335,62.0,65.0
230,91.85834859166668,92.19084859166668,60.0,77.0
231,91.55834859166669,92.21584859166668,55.0,70.0
232,92.15834859166668,92.77334859166669,64.0,76.0
233,92.75834859166669,93.16959859166668,55.0,62.0
234,91.25824181041668,93.22334859166668,36.0,76.0
235,93.05834859166669,93.79209859166669,67.0,72.0
236,94.25834859166669,94.61584859166669,55.0,71.0
237,95.15834859166668,95.46584859166668,52.0,70.0
238,94.55834859166669,95.49084859166669,59.0,73.0
239,93.95834859166668,95.65334859166668,47.0,66.0
240,93.65834859166668,95.68834859166668,40.0,78.0
241,95.75834859166669,96.00084859166668,52.0,79.0
242,95.45834859166668,96.39709859166669,64.0,78.0
243,96.65834859166668,97.87834859166668,53.0,77.0
244,96.35834859166668,97.89334859166668,48.0,72.0
245,97.55834859166669,97.90834859166668,57.0,68.0
246,96.05834859166669,97.93084859166669,41.0,78.0
247,96.95834859166668,97.95459859166668,60.0,76.0
248,97.85834859166668,98.12084859166669,65.0,70.0
249,99.05834859166669,99.69459859166669,55.0,85.0
250,99.35834859166668,99.70834859166669,60.0,79.0
251,99.95834859166669,100.36209859166668,55.0,68.0
252,99.65834859166668,100.64334859166668,64.0,77.0
253,100.25834859166669,100.68834859166668,60.0,72.0
254,98.45834859166668,100.72459859166668,45.0,77.0
255,98.75834859166669,100.73709859166668,52.0,75.0
256,101.45834859166669,102.07709859166668,60.0,70.0
257,102.35834859166668,102.72209859166668,53.0,70.0
258,101.15834859166668,102.91834859166669,48.0,69.0
259,100.85834859166668,103.02959859166668,41.0,77.0
260,102.95834859166669,103.07584859166668,53.0,61.0
261,101.75834859166669,103.08084859166668,65.0,76.0
262,102.65834859166668,103.09334859166668,60.0,69.0
263,103.25834859166669,103.54959859166668,55.0,68.0
264,103.25834859166669,103.72209859166668,59.0,71.0
265,103.55834859166669,103.93084859166669,55.0,74.0
266,103.85834859166668,104.73209859166668,59.0,73.0
267,104.75834859166669,105.17459859166668,55.0,71.0
268,103.25834859166669,105.18834859166668,40.0,77.0
269,104.15834859166668,105.47084859166668,64.0,68.0
270,105.05834859166669,105.57084859166669,59.0,82.0
271,105.35834859166668,105.63084859166668,55.0,70.0
272,105.95834859166669,106.37334859166668,57.0,74.0
273,106.25834859166669,106.39709859166669,62.0,78.0
274,106.55834859166669,106.76334859166668,57.0,77.0
275,106.55834859166669,107.23709859166668,65.0,78.0
276,105.65834859166668,107.41459859166669,50.0,81.0
277,107.15834859166668,107.45334859166668,62.0,73.0
278,107.45834859166669,107.77959859166668,57.0,77.0
279,107.75834859166669,108.74334859166669,62.0,67.0
280,108.65834859166668,109.32334859166669,55.0,77.0
281,108.95834859166669,109.37709859166668,62.0,73.0
282,109.55834859166669,109.96834859166668,55.0,71.0
283,108.35834859166668,110.35959859166668,50.0,77.0
284,110.15834859166668,110.41334859166668,55.0,61.0
285,108.05834859166669,110.44959859166669,43.0,77.0
286,109.85834859166668,110.45209859166668,62.0,69.0
287,109.25834859166669,110.49209859166669,67.0,75.0
288,111.05834859166669,111.39084859166668,60.0,77.0
289,110.75834859166669,111.41584859166669,55.0,70.0
290,111.35834859166668,111.97334859166668,64.0,76.0
291,111.95834859166669,112.36959859166669,55.0,62.0
292,110.45834859166669,112.42334859166668,36.0,76.0
293,112.25834859166669,112.99209859166669,67.0,72.0
294,113.45834859166669,113.81584859166668,55.0,71.0
295,114.35834859166668,114.66584859166669,52.0,70.0
296,113.75834859166669,114.69084859166668,59.0,73.0
297,113.15834859166668,114.85334859166669,47.0,66.0
298,112.85834859166668,114.88834859166668,40.0,78.0
299,114.95834859166669,115.20084859166668,52.0,79.0
300,114.65834859166668,115.59709859166668,64.0,78.0
301,115.85834859166668,117.07834859166668,53.0,77.0
302,115.55834859166669,117.09334859166668,48.0,72.0
303,116.75834859166669,117.10834859166668,57.0,68.0
304,115.25834859166669,117.13084859166668,41.0,78.0
305,116.15834859166668,117.15459859166668,60.0,76.0
306,117.05834859166669,117.32084859166669,65.0,70.0
307,118.25834859166669,118.89459859166669,55.0,85.0
308,118.55834859166669,118.90834859166668,60.0,79.0
309,119.15834859166668,119.56209859166668,55.0,68.0
310,118.85834859166668,119.84334859166668,64.0,77.0
311,119.45834859166669,119.88834859166668,60.0,72.0
312,117.65834859166668,119.92459859166668,45.0,77.0
313,117.95834859166669,119.93709859166668,52.0,75.0
314,120.65834859166668,121.27709859166669,60.0,70.0
315,121.55834859166669,121.92209859166668,53.0,70.0
316,120.35834859166668,122.11834859166669,48.0,69.0
317,120.05834859166669,122.22959859166669,41.0,77.0
318,122.15834859166668,122.27584859166669,53.0,61.0
319,120.95834859166669,122.28084859166668,65.0,76.0
320,121.85834859166668,122.29334859166669,60.0,69.0
321,122.45834859166669,122.74959859166668,55.0,68.0
322,122.45834859166669,122.92209859166668,59.0,71.0
323,122.75834859166669,123.13084859166668,55.0,74.0
324,123.05834859166669,123.93209859166669,59.0,73.0
325,123.95834859166669,124.37459859166668,55.0,71.0
326,122.45834859166669,124.38834859166668,40.0,77.0
327,123.35834859166668,124.67084859166668,64.0,68.0
328,124.25834859166667,124.77084859166669,59.0,82.0
329,124.55834859166669,124.8308485916667,55.0,70.0
330,125.15834859166668,125.57334859166669,57.0,74.0
331,125.45834859166669,125.59709859166668,62.0,78.0
332,125.75834859166667,125.96334859166669,57.0,77.0
333,125.75834859166667,126.43709859166668,65.0,78.0
334,124.85834859166668,126.61459859166669,50.0,81.0
335,126.35834859166668,126.65334859166668,62.0,73.0
336,126.65834859166668,126.97959859166669,57.0,77.0
337,126.95834859166669,127.94334859166668,62.0,67.0
338,127.85834859166668,128.5233485916667,55.0,77.0
339,128.15834859166668,128.5770985916667,62.0,73.0
340,128.75834859166667,129.1683485916667,55.0,71.0
341,127.55834859166669,129.55959859166668,50.0,77.0
342,129.3583485916667,129.6133485916667,55.0,61.0
343,127.25834859166667,129.6495985916667,43.0,77.0
344,129.0583485916667,129.6520985916667,62.0,69.0
345,128.4583485916667,129.69209859166668,67.0,75.0
346,129.65834859166668,129.8058485916667,96.0,59.0
347,129.8083485916667,129.9558485916667,95.0,59.0
348,129.9583485916667,130.1058485916667,91.0,59.0
349,130.1083485916667,130.25584859166668,88.0,59.0
350,130.25834859166667,130.40584859166668,96.0,59.0
351,130.40834859166668,130.5558485916667,95.0,59.0
352,130.5583485916667,130.7058485916667,91.0,59.0
353,130.5583485916667,130.7595985916667,57.0,75.0
354,130.25834859166667,130.7695985916667,53.0,76.0
355,130.7083485916667,130.8558485916667,88.0,59.0
356,130.8583485916667,130.90834859166668,53.0,57.0
357,130.8583485916667,130.94584859166667,57.0,64.0
358,130.8583485916667,131.00584859166668,96.0,59.0
359,131.00834859166667,131.15584859166668,95.0,59.0
360,131.15834859166668,131.3058485916667,91.0,59.0
361,131.3083485916667,131.4558485916667,88.0,59.0
362,131.4583485916667,131.6058485916667,96.0,59.0
363,131.6083485916667,131.75584859166668,95.0,59.0
364,131.4583485916667,131.79709859166667,48.0,48.0
365,131.75834859166667,131.90584859166668,91.0,59.0
366,129.9583485916667,131.9333485916667,41.0,76.0
367,131.90834859166668,132.0558485916667,88.0,59.0
368,132.0583485916667,132.2058485916667,96.0,59.0
369,132.2083485916667,132.3558485916667,95.0,59.0
370,131.75834859166667,132.3995985916667,53.0,68.0
371,132.3583485916667,132.50584859166668,91.0,59.0
372,132.50834859166667,132.65584859166668,88.0,59.0
373,132.65834859166668,132.8058485916667,96.0,59.0
374,132.8083485916667,132.9558485916667,95.0,59.0
375,130.8583485916667,132.96834859166668,60.0,78.0
376,132.9583485916667,133.1058485916667,91.0,59.0
377,133.1083485916667,133.25584859166668,88.0,59.0
378,133.25834859166667,133.40584859166668,96.0,59.0
379,133.40834859166668,133.5558485916667,95.0,59.0
380,132.9583485916667,133.6833485916667,53.0,76.0
381,133.5583485916667,133.7058485916667,91.0,59.0
382,133.25834859166667,133.74959859166668,57.0,68.0
383,133.7083485916667,133.8558485916667,88.0,59.0
384,133.8583485916667,134.00584859166668,96.0,59.0
385,134.00834859166667,134.15584859166668,95.0,59.0
386,132.65834859166668,134.3008485916667,48.0,72.0
387,134.15834859166668,134.3058485916667,91.0,59.0
388,132.3583485916667,134.31709859166668,41.0,73.0
389,134.3083485916667,134.4558485916667,88.0,59.0
390,134.15834859166668,134.53709859166668,57.0,65.0
391,133.8583485916667,134.54459859166667,53.0,73.0
392,134.4583485916667,134.6058485916667,96.0,59.0
393,134.6083485916667,134.75584859166668,95.0,59.0
394,133.25834859166667,134.8045985916667,60.0,77.0
395,134.75834859166667,134.90584859166668,91.0,59.0
396,134.90834859166668,135.0558485916667,88.0,59.0
397,135.0583485916667,135.2058485916667,96.0,59.0
398,135.2083485916667,135.3558485916667,95.0,59.0
399,135.3583485916667,135.50584859166668,91.0,59.0
400,135.50834859166667,135.65584859166668,88.0,59.0
401,135.0583485916667,135.75459859166668,52.0,74.0
402,135.3583485916667,135.79459859166667,55.0,73.0
403,135.65834859166668,135.8058485916667,96.0,59.0
404,135.8083485916667,135.9558485916667,95.0,59.0
405,135.9583485916667,136.1058485916667,91.0,59.0
406,136.1083485916667,136.25584859166668,88.0,59.0
407,136.25834859166667,136.40584859166668,96.0,59.0
408,136.40834859166668,136.5558485916667,95.0,59.0
409,134.75834859166667,136.6458485916667,40.0,77.0
410,136.5583485916667,136.7058485916667,91.0,59.0
411,136.7083485916667,136.8558485916667,88.0,59.0
412,136.8583485916667,137.00584859166668,96.0,59.0
413,137.00834859166667,137.15584859166668,95.0,59.0
414,135.65834859166668,137.2645985916667,60.0,77.0
415,137.15834859166668,137.3058485916667,91.0,59.0
416,136.25834859166667,137.3245985916667,52.0,67.0
417,136.5583485916667,137.34959859166668,55.0,69.0
418,137.3083485916667,137.4558485916667,88.0,59.0
419,137.4583485916667,137.6058485916667,96.0,59.0
420,137.6083485916667,137.75584859166668,95.0,59.0
421,137.75834859166667,137.90584859166668,91.0,59.0
422,137.90834859166668,138.0558485916667,88.0,59.0
423,138.0583485916667,138.2058485916667,96.0,59.0
424,137.75834859166667,138.32334859166667,52.0,81.0
425,138.2083485916667,138.3558485916667,95.0,59.0
426,138.0583485916667,138.37334859166668,55.0,76.0
427,138.3583485916667,138.50584859166668,91.0,59.0
428,138.50834859166667,138.65584859166668,88.0,59.0
429,138.65834859166668,138.8058485916667,96.0,59.0
430,137.4583485916667,138.81459859166668,47.0,72.0
431,138.8083485916667,138.9558485916667,95.0,59.0
432,137.15834859166668,139.00084859166668,40.0,77.0
433,138.9583485916667,139.1058485916667,91.0,59.0
434,138.65834859166668,139.25459859166668,55.0,71.0
435,139.1083485916667,139.25584859166668,88.0,59.0
436,138.9583485916667,139.2620985916667,52.0,76.0
437,138.0583485916667,139.31834859166668,62.0,77.0
438,139.25834859166667,139.40584859166668,96.0,59.0
439,139.40834859166668,139.5558485916667,95.0,59.0
440,139.5583485916667,139.7058485916667,91.0,59.0
441,139.7083485916667,139.8558485916667,88.0,59.0
442,139.8583485916667,140.00584859166668,96.0,59.0
443,140.00834859166667,140.15584859166668,95.0,59.0
444,139.8583485916667,140.2095985916667,50.0,81.0
445,140.15834859166668,140.3058485916667,91.0,59.0
446,140.3083485916667,140.4558485916667,88.0,59.0
447,140.4583485916667,140.6058485916667,96.0,59.0
448,140.6083485916667,140.75584859166668,95.0,59.0
449,140.75834859166667,140.90584859166668,91.0,59.0
450,140.90834859166668,141.0558485916667,88.0,59.0
451,140.15834859166668,141.13334859166667,57.0,71.0
452,141.0583485916667,141.2058485916667,96.0,59.0
453,139.5583485916667,141.35209859166667,45.0,69.0
454,141.2083485916667,141.3558485916667,95.0,59.0
455,140.15834859166668,141.37834859166668,60.0,72.0
456,139.25834859166667,141.3945985916667,38.0,80.0
457,141.3583485916667,141.50584859166668,91.0,59.0
458,141.50834859166667,141.65584859166668,88.0,59.0
459,141.65834859166668,141.8058485916667,96.0,59.0
460,141.0583485916667,141.94334859166668,50.0,72.0
461,141.8083485916667,141.9558485916667,95.0,59.0
462,141.3583485916667,142.00459859166668,57.0,62.0
463,141.9583485916667,142.1058485916667,91.0,59.0
464,142.1083485916667,142.25584859166668,88.0,59.0
465,142.25834859166667,142.40584859166668,96.0,59.0
466,142.40834859166668,142.5558485916667,95.0,59.0
467,142.5583485916667,142.7058485916667,91.0,59.0
468,142.7083485916667,142.8558485916667,88.0,59.0
469,142.8583485916667,143.00584859166668,96.0,59.0
470,143.00834859166667,143.15584859166668,95.0,59.0
471,141.9583485916667,143.2933485916667,45.0,64.0
472,143.15834859166668,143.3058485916667,91.0,59.0
473,142.25834859166667,143.41334859166668,50.0,75.0
474,143.3083485916667,143.4558485916667,88.0,59.0
475,143.4583485916667,143.6058485916667,96.0,59.0
476,143.6083485916667,143.75584859166668,95.0,59.0
477,143.75834859166667,143.90584859166668,91.0,59.0
478,142.5583485916667,143.97584859166668,60.0,73.0
479,142.5583485916667,143.9808485916667,57.0,72.0
480,143.75834859166667,144.0483485916667,50.0,67.0
481,143.4583485916667,144.0533485916667,45.0,63.0
482,141.65834859166668,144.0558485916667,38.0,82.0
483,143.90834859166668,144.0558485916667,88.0,59.0
484,144.0583485916667,144.2058485916667,98.0,59.0
485,144.2083485916667,144.3558485916667,95.0,59.0
486,144.3583485916667,144.50584859166668,91.0,59.0
487,144.50834859166667,144.65584859166668,88.0,59.0
488,144.65834859166668,144.8058485916667,98.0,59.0
489,144.65834859166668,144.8645985916667,48.0,77.0
490,144.8083485916667,144.9558485916667,95.0,59.0
491,144.9583485916667,145.1058485916667,91.0,59.0
492,145.1083485916667,145.25584859166668,88.0,59.0
493,145.25834859166667,145.40584859166668,98.0,59.0
494,145.40834859166668,145.5558485916667,95.0,59.0
495,145.5583485916667,145.7058485916667,91.0,59.0
496,144.9583485916667,145.8058485916667,48.0,75.0
497,145.7083485916667,145.8558485916667,88.0,59.0
498,145.8583485916667,146.00584859166668,98.0,59.0
499,146.00834859166667,146.15584859166668,95.0,59.0
500,144.3583485916667,146.1658485916667,43.0,69.0
501,144.0583485916667,146.2308485916667,36.0,74.0
502,146.15834859166668,146.3058485916667,91.0,59.0
503,146.3083485916667,146.4558485916667,88.0,59.0
504,146.15834859166668,146.5483485916667,48.0,76.0
505,146.4583485916667,146.6058485916667,98.0,59.0
506,144.9583485916667,146.6658485916667,55.0,75.0
507,146.6083485916667,146.75584859166668,95.0,59.0
508,146.75834859166667,146.90584859166668,91.0,59.0
509,146.90834859166668,147.0558485916667,88.0,59.0
510,147.0583485916667,147.2058485916667,98.0,59.0
511,147.2083485916667,147.3558485916667,95.0,59.0
512,147.0583485916667,147.40584859166668,52.0,76.0
513,147.3583485916667,147.50584859166668,91.0,59.0
514,147.50834859166667,147.65584859166668,88.0,59.0
515,147.65834859166668,147.8058485916667,98.0,59.0
516,147.3583485916667,147.8870985916667,60.0,75.0
517,147.8083485916667,147.9558485916667,95.0,59.0
518,147.3583485916667,148.0183485916667,55.0,76.0
519,147.9583485916667,148.1058485916667,91.0,59.0
520,148.1083485916667,148.25584859166668,88.0,59.0
521,147.9583485916667,148.2758485916667,52.0,69.0
522,148.25834859166667,148.40584859166668,98.0,59.0
523,146.75834859166667,148.44334859166668,43.0,66.0
524,146.4583485916667,148.44834859166667,36.0,77.0
525,148.40834859166668,148.5558485916667,95.0,59.0
526,148.5583485916667,148.7058485916667,91.0,59.0
527,148.25834859166667,148.7758485916667,55.0,70.0
528,148.5583485916667,148.79709859166667,52.0,72.0
529,148.7083485916667,148.8558485916667,88.0,59.0
530,148.25834859166667,148.9883485916667,64.0,79.0
531,148.8583485916667,149.00584859166668,96.0,59.0
532,149.00834859166667,149.15584859166668,95.0,59.0
533,149.15834859166668,149.3058485916667,91.0,59.0
534,149.3083485916667,149.4558485916667,88.0,59.0
535,149.4583485916667,149.6058485916667,96.0,59.0
536,149.6083485916667,149.75584859166668,95.0,59.0
537,149.75834859166667,149.90584859166668,91.0,59.0
538,149.90834859166668,150.0558485916667,88.0,59.0
539,150.0583485916667,150.2058485916667,96.0,59.0
540,150.2083485916667,150.3558485916667,95.0,59.0
541,150.3583485916667,150.50584859166668,91.0,59.0
542,150.50834859166667,150.65584859166668,88.0,59.0
543,150.65834859166668,150.8058485916667,96.0,59.0
544,150.8083485916667,150.9558485916667,95.0,59.0
545,149.15834859166668,151.00209859166668,48.0,70.0
546,148.8583485916667,151.0145985916667,41.0,77.0
547,150.9583485916667,151.1058485916667,91.0,59.0
548,151.1083485916667,151.25584859166668,88.0,59.0
549,151.25834859166667,151.40584859166668,96.0,59.0
550,149.4583485916667,151.4870985916667,53.0,69.0
551,151.40834859166668,151.5558485916667,95.0,59.0
552,149.75834859166667,151.6445985916667,57.0,69.0
553,151.5583485916667,151.7058485916667,91.0,59.0
554,151.7083485916667,151.8558485916667,88.0,59.0
555,149.75834859166667,151.98209859166667,64.0,78.0
556,151.8583485916667,152.00584859166668,96.0,59.0
557,152.00834859166667,152.15584859166668,95.0,59.0
558,152.15834859166668,152.3058485916667,91.0,59.0
559,151.8583485916667,152.32084859166667,53.0,77.0
560,152.15834859166668,152.3383485916667,60.0,76.0
561,152.3083485916667,152.4558485916667,88.0,59.0
562,152.4583485916667,152.6058485916667,96.0,59.0
563,152.6083485916667,152.75584859166668,95.0,59.0
564,152.75834859166667,152.90584859166668,91.0,59.0
565,152.90834859166668,153.0558485916667,88.0,59.0
566,153.0583485916667,153.2058485916667,96.0,59.0
567,151.5583485916667,153.24709859166668,48.0,72.0
568,151.25834859166667,153.31959859166668,41.0,76.0
569,153.2083485916667,153.3558485916667,95.0,59.0
570,153.3583485916667,153.50584859166668,91.0,59.0
571,152.4583485916667,153.51334859166667,53.0,76.0
572,152.4583485916667,153.5795985916667,64.0,75.0
573,153.50834859166667,153.65584859166668,88.0,59.0
574,153.65834859166668,153.8058485916667,96.0,59.0
575,153.8083485916667,153.9558485916667,95.0,59.0
576,153.9583485916667,154.1058485916667,91.0,59.0
577,154.1083485916667,154.25584859166668,88.0,59.0
578,154.25834859166667,154.40584859166668,96.0,59.0
579,154.40834859166668,154.5558485916667,95.0,59.0
580,154.5583485916667,154.7058485916667,91.0,59.0
581,154.7083485916667,154.8558485916667,88.0,59.0
582,154.8583485916667,155.00584859166668,96.0,59.0
583,155.00834859166667,155.15584859166668,95.0,59.0
584,155.15834859166668,155.3058485916667,91.0,59.0
585,155.3083485916667,155.45584859166667,88.0,59.0
586,155.4583485916667,155.6058485916667,96.0,59.0
587,154.25834859166667,155.73459859166667,52.0,78.0
588,155.6083485916667,155.75584859166668,95.0,59.0
589,153.65834859166668,155.7720985916667,40.0,78.0
590,153.9583485916667,155.7933485916667,47.0,68.0
591,155.75834859166667,155.90584859166668,91.0,59.0
592,155.90834859166668,156.0558485916667,88.0,59.0
593,156.0583485916667,156.20584859166667,96.0,59.0
594,154.5583485916667,156.29709859166667,64.0,80.0
595,156.2083485916667,156.3558485916667,95.0,59.0
596,156.3583485916667,156.50584859166668,91.0,59.0
597,156.50834859166667,156.65584859166668,88.0,59.0
598,156.65834859166668,156.8058485916667,96.0,59.0
599,156.8083485916667,156.95584859166667,95.0,59.0
600,156.9583485916667,157.1058485916667,91.0,59.0
601,157.1083485916667,157.25584859166668,88.0,59.0
602,156.3583485916667,157.3633485916667,52.0,73.0
603,157.25834859166667,157.40584859166668,96.0,59.0
604,157.40834859166668,157.5558485916667,95.0,59.0
605,157.5583485916667,157.70584859166667,91.0,59.0
606,157.7083485916667,157.8558485916667,88.0,59.0
607,156.65834859166668,157.8658485916667,57.0,77.0
608,157.8583485916667,158.00584859166668,96.0,59.0
609,156.0583485916667,158.14084859166667,45.0,76.0
610,158.00834859166667,158.15584859166668,95.0,59.0
611,157.8583485916667,158.17459859166667,52.0,75.0
612,158.15834859166668,158.3058485916667,91.0,59.0
613,156.9583485916667,158.3295985916667,60.0,76.0
614,156.9583485916667,158.3320985916667,64.0,78.0
615,158.3083485916667,158.45584859166667,88.0,59.0
616,158.15834859166668,158.47334859166668,57.0,68.0
617,158.4583485916667,158.6058485916667,96.0,59.0
618,158.6083485916667,158.75584859166668,94.0,59.0
619,158.75834859166667,158.90584859166668,92.0,59.0
620,158.90834859166668,159.0558485916667,87.0,59.0
621,159.0583485916667,159.20584859166667,96.0,59.0
622,159.0583485916667,159.3058485916667,56.0,79.0
623,159.2083485916667,159.3558485916667,94.0,59.0
624,159.3583485916667,159.50584859166668,92.0,59.0
625,159.50834859166667,159.65584859166668,87.0,59.0
626,159.3583485916667,159.7108485916667,56.0,60.0
627,159.3583485916667,159.78334859166668,60.0,76.0
628,159.65834859166668,159.8058485916667,96.0,59.0
629,159.8083485916667,159.95584859166667,94.0,59.0
630,159.3583485916667,160.0383485916667,63.0,76.0
631,159.9583485916667,160.1058485916667,92.0,59.0
632,160.1083485916667,160.25584859166668,87.0,59.0
633,160.25834859166667,160.40584859166668,96.0,59.0
634,160.40834859166668,160.5558485916667,94.0,59.0
635,158.4583485916667,160.6170985916667,44.0,87.0
636,160.5583485916667,160.70584859166667,92.0,59.0
637,158.75834859166667,160.77834859166668,51.0,63.0
638,160.7083485916667,160.8558485916667,87.0,59.0
639,160.8583485916667,161.00584859166668,96.0,59.0
640,161.00834859166667,161.15584859166668,94.0,59.0
641,160.8583485916667,161.18834859166668,60.0,19.0
642,160.5583485916667,161.19584859166667,63.0,64.0
643,160.5583485916667,161.2095985916667,68.0,73.0
644,160.25834859166667,161.2383485916667,56.0,61.0
645,161.15834859166668,161.3058485916667,92.0,59.0
646,161.3083485916667,161.45584859166667,87.0,59.0
647,161.4583485916667,161.6058485916667,96.0,59.0
648,161.6083485916667,161.75584859166668,94.0,59.0
649,161.75834859166667,161.90584859166668,92.0,59.0
650,161.90834859166668,162.0558485916667,87.0,59.0
651,161.15834859166668,162.1033485916667,51.0,71.0
652,162.0583485916667,162.20584859166667,96.0,59.0
653,162.2083485916667,162.3558485916667,94.0,59.0
654,161.4583485916667,162.41709859166667,56.0,76.0
655,162.3583485916667,162.50584859166668,92.0,59.0
656,162.50834859166667,162.65584859166668,87.0,59.0
657,162.3583485916667,162.66209859166668,51.0,64.0
658,160.8583485916667,162.68459859166668,44.0,78.0
659,161.75834859166667,162.7145985916667,60.0,76.0
660,161.75834859166667,162.7458485916667,63.0,76.0
661,162.65834859166668,162.8058485916667,96.0,59.0
662,162.8083485916667,162.95584859166667,94.0,59.0
663,162.9583485916667,163.1058485916667,92.0,59.0
664,162.65834859166668,163.15709859166668,56.0,78.0
665,163.1083485916667,163.25584859166668,87.0,59.0
666,162.9583485916667,163.28334859166668,68.0,70.0
667,163.25834859166667,163.40584859166668,98.0,59.0
668,163.40834859166668,163.5558485916667,96.0,59.0
669,163.5583485916667,163.70584859166667,95.0,59.0
670,163.7083485916667,163.8558485916667,91.0,59.0
671,163.8583485916667,164.00584859166668,98.0,59.0
672,164.00834859166667,164.15584859166668,96.0,59.0
673,163.8583485916667,164.2445985916667,60.0,72.0
674,164.15834859166668,164.3058485916667,95.0,59.0
675,164.3083485916667,164.45584859166667,91.0,59.0
676,164.4583485916667,164.6058485916667,98.0,59.0
677,164.6083485916667,164.75584859166668,96.0,59.0
678,164.15834859166668,164.8395985916667,62.0,77.0
679,163.5583485916667,164.84709859166668,50.0,74.0
680,164.75834859166667,164.90584859166668,95.0,59.0
681,164.90834859166668,165.0558485916667,91.0,59.0
682,165.0583485916667,165.20584859166667,98.0,59.0
683,165.2083485916667,165.3558485916667,96.0,59.0
684,163.25834859166667,165.49709859166668,43.0,77.0
685,165.3583485916667,165.50584859166668,95.0,59.0
686,165.50834859166667,165.65584859166668,91.0,59.0
687,165.65834859166668,165.8058485916667,98.0,59.0
688,164.75834859166667,165.8320985916667,55.0,76.0
689,165.8083485916667,165.95584859166667,96.0,59.0
690,165.9583485916667,166.1058485916667,95.0,59.0
691,165.0583485916667,166.18709859166668,62.0,73.0
692,165.3583485916667,166.23459859166667,67.0,70.0
693,166.1083485916667,166.25584859166668,91.0,59.0
694,166.25834859166667,166.40584859166668,98.0,59.0
695,166.40834859166668,166.5558485916667,96.0,59.0
696,166.25834859166667,166.6495985916667,55.0,75.0
697,166.5583485916667,166.70584859166667,95.0,59.0
698,166.7083485916667,166.8558485916667,91.0,59.0
699,165.9583485916667,166.9308485916667,50.0,73.0
700,166.8583485916667,167.00584859166668,98.0,59.0
701,167.00834859166667,167.15584859166668,96.0,59.0
702,166.5583485916667,167.18959859166668,59.0,72.0
703,167.15834859166668,167.3058485916667,95.0,59.0
704,166.5583485916667,167.41209859166668,62.0,76.0
705,167.3083485916667,167.45584859166667,91.0,59.0
706,167.4583485916667,167.6058485916667,98.0,59.0
707,167.6083485916667,167.75584859166668,96.0,59.0
708,165.65834859166668,167.80959859166668,43.0,77.0
709,167.15834859166668,167.82334859166667,50.0,66.0
710,167.75834859166667,167.90584859166668,95.0,59.0
711,167.4583485916667,168.3920985916667,55.0,76.0
712,167.75834859166667,168.68987080208336,62.0,72.0
713,167.90834859166668,169.1007616104167,91.0,59.0
714,168.0583485916667,169.10571210208334,43.0,81.0
715,168.3583485916667,169.1230388229167,50.0,71.0
716,168.65769260625,169.60199889166668,55.0,78.0
717,168.95472210625002,169.69729585625,67.0,71.0
718,168.95472210625002,169.9287313416667,62.0,75.0
719,169.54878110625,170.34333501875003,50.0,71.0
720,169.25175160625002,170.35694887083335,43.0,78.0
721,169.84581060625,170.80496836666669,55.0,76.0
722,170.43986960625003,171.12303745625002,67.0,70.0
723,170.14284010625002,171.1242750791667,62.0,66.0
724,171.03392860625002,172.66264036458335,55.0,66.0
725,170.43986960625003,172.67501659375003,43.0,72.0
726,171.33095810625002,172.67501659375003,62.0,64.0
727,170.73689910625,172.68120470833335,50.0,68.0
728,173.41566003125,173.72316003125002,62.0,71.0
729,174.31566003125002,174.62566003125,60.0,64.0
730,173.11566003125,175.02191003125,55.0,69.0
731,172.81610560625,175.02566003125,48.0,78.0
732,173.71566003125,175.33066003125,64.0,77.0
733,174.61566003125,175.33941003125,67.0,72.0
734,175.51566003125,177.29566003125,55.0,59.0
735,175.21566003125,177.33441003125,48.0,77.0
736,175.81566003125002,177.68441003125,62.0,65.0
737,176.11566003125,177.72816003125,66.0,66.0
738,177.91566003125,179.23566003125,48.0,66.0
739,178.21566003125,179.43066003125,53.0,70.0
740,177.61566003125,179.76316003125,41.0,72.0
741,179.41566003125,179.78316003125002,48.0,54.0
742,179.71566003125,180.01066003125,53.0,69.0
743,178.51566003125,180.04191003125,60.0,74.0
744,180.61566003125,181.00816003125001,62.0,71.0
745,180.31566003125002,181.88566003125,55.0,72.0
746,180.91566003125,182.06816003125002,64.0,78.0
747,180.01566003125,182.07441003125,48.0,77.0
748,182.11566003125,182.36441003125,60.0,68.0
749,182.41566003125,182.95191003125,64.0,72.0
750,183.01566003125,183.96816003125,59.0,77.0
751,182.71566003125,183.97816003125,47.0,60.0
752,183.31566003125002,184.00691003125002,67.0,77.0
753,182.41566003125,184.03441003125002,40.0,78.0
754,183.91566003125,184.29941003125,64.0,73.0
755,184.21566003125,184.38566003125,59.0,69.0
756,184.81566003125002,185.21316003125,53.0,66.0
757,184.81566003125002,185.46691003125,57.0,70.0
758,185.41566003125,186.34191003125,53.0,76.0
759,185.11566003125,186.75316003125002,48.0,65.0
760,185.71566003125,186.76566003125,60.0,72.0
761,184.81566003125002,186.80816003125,41.0,73.0
762,186.61566003125,187.02191003125,53.0,72.0
763,186.91566003125,187.21191003125,60.0,71.0
764,186.31566003125002,187.54441003125,65.0,71.0
765,187.51566003125,188.53316003125002,62.0,68.0
766,187.21566003125,189.04816003125,50.0,78.0
767,187.81566003125002,189.06941003125002,57.0,68.0
768,189.01566003125,189.21816003125002,62.0,71.0
769,188.11566003125,189.23441003125,65.0,74.0
770,189.45316003125,189.99316003125,57.0,61.0
771,189.53691003125002,190.24441003125,62.0,63.0
772,189.59566003125002,190.24941003125002,65.0,66.0
773,189.90816003125002,191.15191003125,45.0,50.0
774,189.58941003125,191.22566003125002,38.0,78.0
775,190.20441003125,191.98566003125,57.0,66.0
776,190.52441003125,192.74816003125,65.0,66.0
777,192.61566003125,192.95441003125,62.0,67.0
778,192.31566003125002,193.03316003125002,55.0,69.0
779,193.21566003125,193.63691003125,55.0,53.0
780,193.51566003125,193.90191003125,60.0,57.0
781,193.81566003125002,194.02816003125,55.0,66.0
782,192.01566003125,194.07566003125,48.0,80.0
783,192.91566003125,194.37441003125002,64.0,72.0
784,194.11566003125,194.58816003125,60.0,71.0
785,195.61566003125,195.96691003125,55.0,77.0
786,194.71566003125,195.97441003125002,43.0,52.0
787,195.91566003125,196.83941003125,48.0,75.0
788,196.51566003125,196.84066003125,55.0,71.0
789,196.21566003125,196.86566003125,43.0,63.0
790,194.41566003125,196.87191003125,36.0,74.0
791,197.11566003125,198.19441003125002,48.0,74.0
792,197.41566003125,198.47191003125002,53.0,79.0
793,197.71566003125,198.65316003125,60.0,80.0
794,198.31566003125002,198.68941003125002,48.0,65.0
795,196.81566003125002,198.74191003125,41.0,79.0
796,198.61566003125,199.10941003125,53.0,38.0
797,198.61566003125,199.18316003125,57.0,72.0
798,198.91566003125,199.51066003125,65.0,67.0
799,199.51566003125,200.41941003125,52.0,72.0
800,199.81566003125002,200.65441003125,57.0,76.0
801,200.11566003125,200.97941003125,64.0,81.0
802,199.21566003125,201.07066003125001,45.0,73.0
803,200.71566003125,201.07691003125,52.0,60.0
804,201.01566003125,201.28191003125,60.0,76.0
805,201.31566003125002,201.46941003125,55.0,80.0
806,201.61566003125,201.98441003125,53.0,76.0
807,201.61566003125,202.25191003125002,57.0,76.0
808,202.21566003125,203.11066003125,53.0,78.0
809,201.91566003125,203.37316003125,48.0,69.0
810,201.61566003125,203.40066003125,41.0,76.0
811,202.51566003125,203.45316003125,60.0,77.0
812,203.41566003125,203.81066003125,53.0,76.0
813,203.11566003125,203.99191003125,65.0,75.0
814,203.71566003125,204.30191003125,60.0,72.0
815,204.31566003125002,205.09316003125002,50.0,70.0
816,204.61566003125,205.27691003125,55.0,75.0
817,204.01566003125,205.75316003125,43.0,75.0
818,205.21566003125002,205.76691003125,50.0,68.0
819,205.51566003125,205.84191003125,55.0,76.0
820,204.91566003125,205.88191003125002,62.0,72.0
821,205.81566003125,206.21191003125,67.0,76.0
822,206.11566003125,206.28066003125002,55.0,78.0
823,206.41566003125,206.83816003125,58.0,64.0
824,207.01566003125,207.38316003125001,58.0,65.0
825,206.41566003125,207.38441003125,62.0,71.0
826,207.31566003125,207.98441003125,65.0,77.0
827,207.91566003125,208.40316003125002,62.0,71.0
828,208.21566003125002,208.41566003125,58.0,66.0
829,206.71566003125002,208.43441003125002,53.0,65.0
830,206.41566003125,208.68941003125002,46.0,74.0
831,208.81566003125,209.45441003125,60.0,69.0
832,209.41566003125,210.37941003125002,57.0,70.0
833,209.71566003125002,210.39691003125,64.0,77.0
834,209.11566003125,210.65191003125,52.0,68.0
835,210.31566003125,210.65816003125002,60.0,71.0
836,208.81566003125,210.67191003125,45.0,77.0
837,210.61566003125,211.28191003125,57.0,68.0
838,211.21566003125002,212.13816003125,65.0,73.0
839,211.81566003125,212.23191003125,57.0,68.0
840,212.11566003125,212.49316003125,64.0,65.0
841,212.11566003125,213.02066003125,60.0,67.0
842,211.51566003125,213.25441003125002,48.0,64.0
843,211.21566003125002,213.29566003125,41.0,76.0
844,213.01566003125,213.66691003125,57.0,72.0
845,213.31566003125,213.69941003125,60.0,70.0
846,214.21566003125002,214.61441003125,62.0,71.0
847,213.91566003125,215.25941003125,50.0,71.0
848,213.61566003125,215.27816003125002,43.0,77.0
849,214.51566003125,215.46816003125002,67.0,76.0
850,215.11566003125,215.53066003125002,55.0,70.0
851,215.41566003125,215.71316003125,62.0,76.0
852,216.59066003125002,216.64691003125,55.0,44.0
853,216.58066003125,217.39066003125,62.0,77.0
854,216.86691003125,217.98066003125,67.0,76.0
855,216.27191003125,218.31941003125002,50.0,74.0
856,217.17691003125,218.32441003125,55.0,69.0
857,217.49816003125,218.35066003125002,59.0,73.0
858,215.96816003125002,218.36566003125,43.0,77.0
859,217.92691003125,218.37066003125,62.0,65.0
860,219.01566003125,219.34816003125002,60.0,77.0
861,218.71566003125002,219.37316003125,55.0,70.0
862,219.31566003125,219.93066003125,64.0,76.0
863,219.91566003125,220.32691003125,55.0,62.0
864,218.41566003125,220.38066003125002,36.0,76.0
865,220.21566003125002,220.94941003125,67.0,72.0
866,221.41566003125,221.77316003125,55.0,71.0
867,222.31566003125,222.62316003125,52.0,70.0
868,221.71566003125002,222.64816003125,59.0,73.0
869,221.11566003125,222.81066003125,47.0,66.0
870,220.81566003125,222.84566003125002,40.0,78.0
871,222.91566003125,223.15816003125002,52.0,79.0
872,222.61566003125,223.55441003125,64.0,78.0
873,223.81566003125,225.03566003125002,53.0,77.0
874,223.51566003125,225.05066003125,48.0,72.0
875,224.71566003125002,225.06566003125,57.0,68.0
876,223.21566003125002,225.08816003125,41.0,78.0
877,224.11566003125,225.11191003125,60.0,76.0
878,225.01566003125,225.27816003125002,65.0,70.0
879,226.21566003125002,226.85191003125001,55.0,85.0
880,226.51566003125,226.86566003125,60.0,79.0
881,227.11566003125,227.51941003125,55.0,68.0
882,226.81566003125,227.80066003125,64.0,77.0
883,227.41566003125,227.84566003125002,60.0,72.0
884,225.61566003125,227.88191003125002,45.0,77.0
885,225.91566003125,227.89441003125,52.0,75.0
886,228.61566003125,229.23441003125,60.0,70.0
887,229.51566003125,229.87941003125002,53.0,70.0
888,228.31566003125,230.07566003125,48.0,69.0
889,228.01566003125,230.18691003125002,41.0,77.0
890,230.11566003125,230.23316003125,53.0,61.0
891,228.91566003125,230.23816003125,65.0,76.0
892,229.81566003125,230.25066003125,60.0,69.0
893,230.41566003125,230.70691003125,55.0,68.0
894,230.41566003125,230.87941003125002,59.0,71.0
895,230.71566003125002,231.08816003125,55.0,74.0
896,231.01566003125,231.88941003125,59.0,73.0
897,231.91566003125,232.33191003125,55.0,71.0
898,230.41566003125,232.34566003125002,40.0,77.0
899,231.31566003125,232.62816003125,64.0,68.0
900,232.21566003125002,232.72816003125,59.0,82.0
901,232.51566003125,232.78816003125002,55.0,70.0
902,233.11566003125,233.53066003125002,57.0,74.0
903,233.41566003125,233.55441003125,62.0,78.0
904,233.71566003125002,233.92066003125,57.0,77.0
905,233.71566003125002,234.39441003125,65.0,78.0
906,232.81566003125,234.57191003125,50.0,81.0
907,234.31566003125,234.61066003125,62.0,73.0
908,234.61566003125,234.93691003125002,57.0,77.0
909,234.91566003125,235.90066003125,62.0,67.0
910,235.81566003125,236.48066003125,55.0,77.0
911,236.11566003125,236.53441003125,62.0,73.0
912,236.71566003125002,237.12566003125,55.0,71.0
913,235.51566003125,237.51691003125,50.0,77.0
914,237.31566003125,237.57066003125001,55.0,61.0
915,235.21566003125002,237.60691003125,43.0,77.0
916,237.01566003125,237.60941003125,62.0,69.0
917,236.41566003125,237.64941003125,67.0,75.0
918,238.21566003125002,238.54816003125,60.0,77.0
919,237.91566003125,238.57316003125,55.0,70.0
920,238.51566003125,239.13066003125,64.0,76.0
921,239.11566003125,239.52691003125,55.0,62.0
922,237.61566003125,239.58066003125,36.0,76.0
923,239.41566003125,240.14941003125,67.0,72.0
924,240.61566003125,240.97316003125002,55.0,71.0
925,241.51566003125,241.82316003125,52.0,70.0
926,240.91566003125,241.84816003125002,59.0,73.0
927,240.31566003125,242.01066003125,47.0,66.0
928,240.01566003125,242.04566003125,40.0,78.0
929,242.11566003125,242.35816003125,52.0,79.0
930,241.81566003125,242.75441003125002,64.0,78.0
931,243.01566003125,244.23566003125,53.0,77.0
932,242.71566003125002,244.25066003125,48.0,72.0
933,243.91566003125,244.26566003125,57.0,68.0
934,242.41566003125,244.28816003125002,41.0,78.0
935,243.31566003125,244.31191003125002,60.0,76.0
936,244.21566003125002,244.47816003125,65.0,70.0
937,245.41566003125,246.05191003125,55.0,85.0
938,245.71566003125002,246.06566003125,60.0,79.0
939,246.31566003125,246.71941003125,55.0,68.0
940,246.01566003125,247.00066003125,64.0,77.0
941,246.61566003125,247.04566003125,60.0,72.0
942,244.81566003125,247.08191003125,45.0,77.0
943,245.11566003125,247.09441003125,52.0,75.0
944,247.81566003125,248.43441003125002,60.0,70.0
945,248.71566003125002,249.07941003125,53.0,70.0
946,247.51566003125,249.27566003125003,48.0,69.0
947,247.21566003125002,249.38691003125,41.0,77.0
948,249.31566003125,249.43316003125,53.0,61.0
949,248.11566003125,249.43816003125,65.0,76.0
950,249.01566003125,249.45066003125,60.0,69.0
951,249.61566003125,249.90691003125,55.0,68.0
952,249.61566003125,250.07941003125,59.0,71.0
953,249.91566003125,250.28816003125002,55.0,74.0
954,250.21566003125002,251.08941003125,59.0,73.0
955,251.11566003125,251.53191003125,55.0,71.0
956,249.61566003125,251.54566003125,40.0,77.0
957,250.51566003125,251.82816003125,64.0,68.0
958,251.41566003125,251.92816003125,59.0,82.0
959,251.71566003125002,251.98816003125,55.0,70.0
960,252.31566003125,252.73066003125,57.0,74.0
961,252.61566003125,252.75441003125002,62.0,78.0
962,252.91566003125,253.12066003125,57.0,77.0
963,252.91566003125,253.59441003125,65.0,78.0
964,252.01566003125,253.77191003125,50.0,81.0
965,253.51566003125,253.81066003125,62.0,73.0
966,253.81566003125,254.13691003125,57.0,77.0
967,254.11566003125,255.10066003125002,62.0,67.0
968,255.01566003125,255.68066003125,55.0,77.0
969,255.31566003125,255.73441003125,62.0,73.0
970,255.91566003125,256.32566003125,55.0,71.0
971,254.71566003125002,256.71691003125,50.0,77.0
972,256.51566003125004,256.77066003125003,55.0,61.0
973,254.41566003125,256.80691003125,43.0,77.0
974,256.21566003125,256.80941003125,62.0,69.0
975,255.61566003125,256.84941003125,67.0,75.0
976,256.81566003125,257.89566003125003,59.0,66.0
977,256.81566003125,257.89691003125,55.0,64.0
978,256.81566003125,257.98441003125004,43.0,60.0
979,258.26941003125,260.03691003125,60.0,71.0
980,258.54816003125,260.04066003125,62.0,75.0
981,257.95691003125,260.05191003125003,54.0,70.0
982,258.82441003125,260.06191003125,69.0,76.0
983,260.49316003125,260.86066003125,60.0,73.0
984,260.18691003125,262.25066003125,53.0,78.0
985,260.80441003125003,262.25441003125,62.0,72.0
986,261.06566003125,262.25941003125,67.0,76.0
987,262.95566003125,263.31691003125,62.0,72.0
988,262.69441003125,263.53566003125,55.0,76.0
989,263.49066003125,263.86441003125003,62.0,72.0
990,263.76191003125,264.22066003125,55.0,70.0
991,264.04441003125,264.66316003125,62.0,74.0
992,264.36816003125,264.66816003125,55.0,70.0
993,263.21941003125,264.67316003125,67.0,76.0
994,262.43316003125,264.69816003125004,52.0,80.0
995,265.12566003125,265.45441003125,62.0,71.0
996,264.54691003125004,265.59941003125,45.0,77.0
997,264.85441003125004,265.61441003125003,52.0,69.0
998,265.41441003125,265.84441003125,64.0,72.0
999,265.89441003125,267.96941003125,52.0,67.0
1000,265.88816003125,267.98441003125004,61.0,67.0
1001,265.74566003125,267.98941003125003,45.0,73.0
1002,265.76191003125,267.99441003125,57.0,63.0
1003,268.23066003125,269.67816003125,45.0,65.0
1004,267.89816003125003,269.73441003125004,38.0,82.0
1005,268.38191003125,269.80441003125003,50.0,70.0
1006,268.53941003125,269.91191003125,53.0,73.0
1007,268.79691003125004,270.27691003125,62.0,78.0
1008,271.12066003125,274.95441003125,55.0,63.0
1009,271.30316003125,274.97191003125,67.0,64.0
1010,271.01941003125,274.98316003125,50.0,66.0
1011,270.83691003125,274.99316003125,43.0,70.0
1012,276.12191003125,276.54316003125,62.0,67.0
1013,276.46566003125,276.92691003125003,64.0,75.0
1014,275.82191003125,277.41691003125004,55.0,71.0
1015,276.88191003125,278.11941003125,67.0,70.0
1016,275.50941003125,278.27191003125,48.0,77.0
1017,277.62691003125,278.37066003125,55.0,70.0
1018,277.23066003125,278.39066003125004,60.0,66.0
1019,278.04066003125,278.79816003125,62.0,69.0
1020,278.84816003125,278.96816003125,60.0,56.0
1021,278.91816003125,279.54066003125,62.0,68.0
1022,279.46566003125,279.82816003125004,64.0,70.0
1023,278.52941003125,281.16441003125,48.0,72.0
1024,278.71566003125,281.18816003125,55.0,63.0
1025,282.20441003125,282.92316003125,55.0,62.0
1026,281.97316003125,283.11191003125,48.0,63.0
1027,283.39441003125,284.11191003125,53.0,58.0
1028,283.48191003125,284.28941003125,56.0,54.0
1029,284.45316003125004,284.66941003125,53.0,50.0
1030,284.54816003125,284.72691003125,56.0,59.0
1031,284.67316003125,284.90566003125,60.0,72.0
1032,284.99066003125,285.25941003125,62.0,70.0
1033,283.23816003125,286.02941003125,48.0,61.0
1034,281.74191003125003,286.10816003125,41.0,76.0
1035,285.38816003125,286.16566003125,64.0,61.0
1036,287.51191003125,287.76691003125,67.0,61.0
1037,287.80066003125,288.08066003125,62.0,63.0
1038,288.13441003125,288.42941003125003,64.0,64.0
1039,288.48691003125,289.01441003125,60.0,49.0
1040,289.12191003125,289.39066003125004,62.0,61.0
1041,287.23941003125003,290.50566003125,43.0,61.0
1042,287.00691003125,290.54191003125004,36.0,71.0
1043,289.77316003125003,290.56691003125,55.0,49.0
