,start,end,pitch,velocity
0,23.758416275,24.005607174999998,58.0,99.0
1,24.095494775,24.3735845375,60.0,90.0
2,24.432573275,25.21487629375,63.0,95.0
3,25.443808775,25.8174041125,65.0,95.0
4,25.780887274999998,26.1095388125,67.0,85.0
5,26.117965775,26.432572375,65.0,88.0
6,26.455044275,26.80195423125,63.0,86.0
7,26.792122775,27.1713360875,60.0,85.0
8,27.129201275,28.6432455375,63.0,97.0
9,29.151672275,29.34970589375,67.0,97.0
10,29.488750775,29.65588553125,70.0,102.0
11,29.825829275,30.17835720625,72.0,122.0
12,30.499986274999998,30.799143443749998,72.0,107.0
13,30.837064774999998,31.11655903125,70.0,90.0
14,31.174143275,31.42554765625,67.0,92.0
15,31.511221775,31.68397450625,60.0,90.0
16,31.848300275,32.09689566875,60.0,96.0
17,32.185378775,32.38341239375,63.0,93.0
18,32.522457275,33.65307474375,65.0,95.0
19,35.219085275,35.63902890625,67.0,96.0
20,35.893242275,36.12498374375,65.0,90.0
21,36.230320775,36.4466128125,67.0,90.0
22,36.567399275,37.21767988125,70.0,107.0
23,37.915713275,38.24015133125,65.0,99.0
24,38.421331025,38.71206123125,67.0,100.0
25,38.926948775,39.24295986875,63.0,97.0
26,39.264027275,39.74015065625,60.0,95.0
27,39.938184275,40.1488583375,60.0,95.0
28,40.275262775,40.50419525625,63.0,102.0
29,40.612341275,40.7415547,65.0,92.0
30,40.949419775,41.08003769375,65.0,99.0
31,41.286498275,41.41711619375,65.0,100.0
32,41.623576775,41.93116090625,67.0,102.0
33,41.960655275,42.21767763125,65.0,102.0
34,42.634812275,42.940991912499996,65.0,97.0
35,42.971890775,43.32441870625,63.0,90.0
36,43.308969275,45.0814403875,65.0,99.0
37,45.331440275,45.5589682625,58.0,107.0
38,45.668518775,45.91149619375,60.0,93.0
39,46.005597275,46.6657093375,63.0,102.0
40,47.016832775,47.2162708875,65.0,102.0
41,47.353911275,47.608124643749996,67.0,96.0
42,47.690989775,47.89885485,65.0,96.0
43,48.028068274999995,48.26261873125,63.0,112.0
44,48.365146775,48.6067197,60.0,93.0
45,48.702225274999996,49.76402255,63.0,99.0
46,50.724696275,50.85531419375,67.0,100.0
47,51.061774774999996,51.1713252875,70.0,112.0
48,51.398853275,51.75980816875,72.0,117.0
49,51.904471025,51.970482231249996,72.0,93.0
50,52.073010275,52.21486414375,72.0,107.0
51,52.410088775,52.65868416875,70.0,102.0
52,52.747167274999995,53.0533469125,60.0,96.0
53,53.084245775,53.2668299625,70.0,112.0
54,53.421324274999996,53.65306574375,70.0,122.0
55,53.758402775,53.94239145625,67.0,99.0
56,54.095481275,54.82722251875,65.0,99.0
57,56.792109275,57.317389937499996,67.0,107.0
58,57.466266274999995,57.70643470625,65.0,99.0
59,57.803344775,58.04070421875,67.0,100.0
60,58.140423274999996,58.803344325,70.0,127.0
61,59.488737275,59.85250115625,65.0,117.0
62,59.825815774999995,60.31879308125,67.0,93.0
63,60.499972774999996,60.79632095625,63.0,97.0
64,60.837051275,61.334242062499996,60.0,86.0
65,61.511208275,61.724691325,60.0,102.0
66,61.848286775,61.9999721,63.0,100.0
67,62.185365274999995,62.542106687499995,65.0,97.0
68,62.690983025,62.766825687499995,65.0,96.0
69,62.859522274999996,63.0645783625,65.0,95.0
70,63.196600775,63.446600662499996,67.0,99.0
71,63.533679275,63.870757775,65.0,97.0
72,63.870757775,64.05193746875,67.0,96.0
73,64.207836275,64.421319325,58.0,99.0
74,64.544914775,64.76822928125,60.0,90.0
75,64.881993275,66.410082475,63.0,112.0
76,67.578621275,67.859520025,70.0,122.0
77,67.915699775,68.23732884374999,67.0,96.0
78,68.252778275,68.5168231,70.0,102.0
79,68.589856775,68.85249710625,72.0,97.0
80,68.926935275,69.3904182125,75.0,117.0
81,69.601092275,69.747159625,75.0,122.0
82,69.938170775,70.13058641875,74.0,112.0
83,70.275249275,70.46064245,72.0,112.0
84,70.612327775,70.73451873124999,72.0,127.0
85,70.78086702499999,70.93957481875,74.0,96.0
86,70.949406275,71.1713162875,72.0,93.0
87,71.286484775,71.511203775,67.0,99.0
88,71.623563275,72.55755161875,70.0,100.0
89,72.971877275,73.1909783,70.0,127.0
90,73.308955775,73.455023125,67.0,90.0
91,73.646034275,73.83564093125,70.0,127.0
92,73.983112775,74.16429246874999,72.0,95.0
93,74.320191275,74.64884281249999,75.0,122.0
94,74.994348275,75.22047176875,75.0,117.0
95,75.49996602499999,75.5701907125,60.0,99.0
96,75.668505275,75.92131415,60.0,100.0
97,76.005583775,76.15305561875,70.0,112.0
98,76.342662275,76.5645722875,70.0,122.0
99,76.679740775,76.8847968625,67.0,100.0
100,77.016819275,77.4971561375,65.0,100.0
101,78.365133275,78.8847959625,67.0,100.0
102,79.039290275,79.27384073125,65.0,107.0
103,79.376368775,79.578615875,67.0,100.0
104,79.713447275,80.41709864375,70.0,127.0
105,81.061761275,81.511199275,65.0,99.0
106,81.567379025,81.92131145,67.0,95.0
107,82.072996775,82.297715775,63.0,102.0
108,82.410075275,82.67833358125,60.0,97.0
109,83.084232275,83.3005243125,60.0,112.0
110,83.421310775,83.65867021875,67.0,93.0
111,83.758389275,84.0926587875,65.0,93.0
112,84.264007025,84.37496203124999,65.0,112.0
113,84.769624775,84.99574826874999,67.0,96.0
114,85.106703275,85.40305145625,72.0,112.0
115,85.612321025,85.92552313125,75.0,100.0
116,86.117938775,86.37074765,72.0,96.0
117,86.455017275,87.657263925,70.0,99.0
118,89.15164527499999,89.432544025,70.0,122.0
119,89.488723775,89.81035284375,67.0,96.0
120,89.825802275,90.0898471,70.0,102.0
121,90.162880775,90.42552110625,72.0,97.0
122,90.499959275,90.9634422125,75.0,117.0
123,91.174116275,91.320183625,75.0,122.0
124,91.51119477499999,91.70361041875,74.0,112.0
125,91.848273275,92.03366645,72.0,112.0
126,92.185351775,92.30754273125,72.0,127.0
127,92.353891025,92.51259881874999,74.0,96.0
128,92.522430275,92.7443402875,72.0,93.0
129,92.859508775,93.084227775,67.0,99.0
130,93.196587275,94.13057561875,70.0,100.0
131,94.544901275,94.7640023,70.0,127.0
132,94.881979775,95.028047125,67.0,90.0
133,95.219058275,95.40866493125,70.0,127.0
134,95.556136775,95.73731646875,72.0,95.0
135,95.893215275,96.2218668125,75.0,122.0
136,96.567372275,96.79349576874999,72.0,122.0
137,96.904450775,97.1207428125,70.0,117.0
138,97.241529275,97.46765276875,60.0,122.0
139,97.578607775,97.72607961874999,70.0,112.0
140,97.915686275,98.1375962875,70.0,122.0
141,98.252764775,98.4578208625,67.0,100.0
142,98.58984327499999,99.5870338375,65.0,100.0
143,99.938157275,100.4578199625,67.0,100.0
144,100.612314275,100.84686473125,65.0,107.0
145,100.94939277499999,101.151639875,67.0,100.0
146,101.286471275,102.4409651375,70.0,127.0
147,102.634785275,103.084223275,65.0,99.0
148,103.140403025,103.49433545,67.0,95.0
149,103.646020775,103.870739775,63.0,102.0
150,103.983099275,104.25135758124999,60.0,97.0
151,104.657256275,104.87354831249999,60.0,112.0
152,104.994334775,105.23169421875,67.0,93.0
153,105.331413275,106.1713005375,65.0,93.0
154,106.342648775,106.5364689125,67.0,112.0
155,106.679727275,106.99854735625,65.0,97.0
156,107.016805775,107.1375922375,67.0,107.0
157,107.353884275,107.58843473125,58.0,107.0
158,107.690962775,107.92832221875,60.0,99.0
159,108.02804127499999,110.13618639375,63.0,117.0
160,131.623536275,131.8510642625,58.0,107.0
161,131.960614775,132.20359219374998,60.0,93.0
162,132.297693275,132.9578053375,63.0,102.0
163,133.308928775,133.5083668875,65.0,102.0
164,133.646007275,133.90022064375,67.0,96.0
165,133.983085775,134.19095085,65.0,96.0
166,134.320164275,134.55471473125,63.0,112.0
167,134.657242775,134.8988157,60.0,93.0
168,134.994321275,136.05611855,63.0,99.0
169,137.016792275,137.14741019375,67.0,100.0
170,137.353870775,137.46342128749998,70.0,112.0
171,137.690949275,138.05190416874999,72.0,117.0
172,138.196567025,138.26257823125,72.0,93.0
173,138.365106275,138.50696014375,72.0,107.0
174,138.702184775,138.95078016875,70.0,102.0
175,139.039263275,139.3454429125,60.0,96.0
176,139.376341775,139.55892596249998,70.0,112.0
177,139.713420275,139.94516174375,70.0,122.0
178,140.050498775,140.23448745625,67.0,99.0
179,140.38757727499998,141.11931851875,65.0,99.0
180,143.084205275,143.60948593749998,67.0,107.0
181,143.758362275,143.99853070625,65.0,99.0
182,144.095440775,144.33280021875,67.0,100.0
183,144.432519275,145.095440325,70.0,127.0
184,145.780833275,146.14459715625,65.0,117.0
185,146.117911775,146.61088908125,67.0,93.0
186,146.792068775,147.08841695625,63.0,97.0
187,147.129147275,147.6263380625,60.0,86.0
188,147.803304275,148.016787325,60.0,102.0
189,148.140382775,148.2920681,63.0,100.0
190,148.477461275,148.8342026875,65.0,97.0
191,148.983079025,149.0589216875,65.0,96.0
192,149.151618275,149.3566743625,65.0,95.0
193,149.488696775,149.7386966625,67.0,99.0
194,149.82577527499998,150.162853775,65.0,97.0
195,150.162853775,150.34403346874998,67.0,96.0
196,150.499932275,150.713415325,58.0,99.0
197,150.837010775,151.06032528125,60.0,90.0
198,151.174089275,152.702178475,63.0,112.0
199,153.870717275,154.151616025,70.0,122.0
200,154.207795775,154.52942484375,67.0,96.0
201,154.54487427499998,154.8089191,70.0,102.0
202,154.881952775,155.14459310625,72.0,97.0
203,155.219031275,155.6825142125,75.0,117.0
204,155.893188275,156.039255625,75.0,122.0
205,156.230266775,156.42268241875,74.0,112.0
206,156.567345275,156.75273845,72.0,112.0
207,156.904423775,157.02661473125,72.0,127.0
208,157.072963025,157.23167081875,74.0,96.0
209,157.241502275,157.4634122875,72.0,93.0
210,157.578580775,157.803299775,67.0,99.0
211,157.915659275,158.84964761875,70.0,100.0
212,159.26397327499998,159.4830743,70.0,127.0
213,159.601051775,159.74711912499998,67.0,90.0
214,159.938130275,160.12773693124998,70.0,127.0
215,160.275208775,160.45638846875,72.0,95.0
216,160.612287275,160.9409388125,75.0,122.0
217,161.286444275,161.51256776875,75.0,117.0
218,161.792062025,161.8622867125,60.0,99.0
219,161.960601275,162.21341015,60.0,100.0
220,162.297679775,162.44515161875,70.0,112.0
221,162.634758275,162.85666828749999,70.0,122.0
222,162.97183677499999,163.17689286249998,67.0,100.0
223,163.308915275,163.7892521375,65.0,100.0
224,164.657229275,165.1768919625,67.0,100.0
225,165.331386275,165.56593673125,65.0,107.0
226,165.668464775,165.87071187499998,67.0,100.0
227,166.005543275,166.70919464375,70.0,127.0
228,167.353857275,167.80329527499998,65.0,99.0
229,167.859475025,168.21340745,67.0,95.0
230,168.365092775,168.589811775,63.0,102.0
231,168.70217127499998,168.97042958125,60.0,97.0
232,169.376328275,169.5926203125,60.0,112.0
233,169.713406775,169.95076621875,67.0,93.0
234,170.050485275,170.3847547875,65.0,93.0
235,170.556103025,170.66705803125,65.0,112.0
236,171.061720775,171.28784426875,67.0,96.0
237,171.398799275,171.69514745625,72.0,112.0
238,171.904417025,172.21761913125,75.0,100.0
239,172.41003477499999,172.66284364999999,72.0,96.0
240,172.747113275,173.949359925,70.0,99.0
241,175.443741275,175.72464002499999,70.0,122.0
242,175.780819775,176.10244884374998,67.0,96.0
243,176.117898275,176.3819431,70.0,102.0
244,176.454976775,176.71761710625,72.0,97.0
245,176.792055275,177.2555382125,75.0,117.0
246,177.466212275,177.61227962499999,75.0,122.0
247,177.803290775,177.99570641875,74.0,112.0
248,178.14036927499998,178.32576244999998,72.0,112.0
249,178.477447775,178.59963873125,72.0,127.0
250,178.64598702499998,178.80469481875,74.0,96.0
251,178.814526275,179.0364362875,72.0,93.0
252,179.151604775,179.376323775,67.0,99.0
253,179.488683275,180.42267161875,70.0,100.0
254,180.836997275,181.0560983,70.0,127.0
255,181.174075775,181.320143125,67.0,90.0
256,181.511154275,181.70076093125,70.0,127.0
257,181.84823277499999,182.02941246875,72.0,95.0
258,182.185311275,182.51396281249998,75.0,122.0
259,182.85946827499998,183.08559176875,72.0,122.0
260,183.196546775,183.41283881249998,70.0,117.0
261,183.533625275,183.75974876875,60.0,122.0
262,183.870703775,184.01817561875,70.0,112.0
263,184.207782275,184.4296922875,70.0,122.0
264,184.544860775,184.7499168625,67.0,100.0
265,184.881939275,185.8791298375,65.0,100.0
266,186.230253275,186.74991596249998,67.0,100.0
267,186.904410275,187.13896073125,65.0,107.0
268,187.241488775,187.443735875,67.0,100.0
269,187.57856727499998,188.7330611375,70.0,127.0
270,188.926881275,189.376319275,65.0,99.0
271,189.432499025,189.78643145,67.0,95.0
272,189.938116775,190.162835775,63.0,102.0
273,190.275195275,190.54345358125,60.0,97.0
274,190.949352275,191.1656443125,60.0,112.0
275,191.28643077499999,191.52379021875,67.0,93.0
276,191.623509275,192.4633965375,65.0,93.0
277,192.634744775,192.82856491249998,67.0,112.0
278,192.971823275,193.29064335625,65.0,97.0
279,193.308901775,193.4296882375,67.0,107.0
280,193.645980275,193.88053073125,58.0,107.0
281,193.983058775,194.22041821874998,60.0,99.0
282,194.320137275,196.42828239375,63.0,117.0
283,197.01676527499998,197.297664025,70.0,122.0
284,197.353843775,197.67547284375,67.0,96.0
285,197.690922275,197.9549671,70.0,102.0
286,198.028000775,198.29064110625,72.0,97.0
287,198.365079275,198.8285622125,75.0,117.0
288,199.039236275,199.185303625,75.0,122.0
289,199.376314775,199.56873041875,74.0,112.0
290,199.713393275,199.89878645,72.0,112.0
291,200.050471775,200.17266273125,72.0,127.0
292,200.219011025,200.37771881875,74.0,96.0
293,200.387550275,200.60946028749999,72.0,93.0
294,200.72462877499999,200.949347775,67.0,99.0
295,201.061707275,201.99569561875,70.0,100.0
296,202.410021275,202.6291223,70.0,127.0
297,202.747099775,202.893167125,67.0,90.0
298,203.084178275,203.27378493125,70.0,127.0
299,203.421256775,203.60243646875,72.0,95.0
300,203.758335275,204.0869868125,75.0,122.0
301,204.432492275,204.65861576875,75.0,117.0
302,204.938110025,205.0083347125,60.0,99.0
303,205.106649275,205.35945815,60.0,100.0
304,205.44372777499999,205.59119961874998,70.0,112.0
305,205.780806275,206.0027162875,70.0,122.0
306,206.117884775,206.3229408625,67.0,100.0
307,206.45496327499998,206.9353001375,65.0,100.0
308,207.803277275,208.3229399625,67.0,100.0
309,208.477434275,208.71198473125,65.0,107.0
310,208.814512775,209.016759875,67.0,100.0
311,209.151591275,209.85524264375,70.0,127.0
312,210.499905275,210.949343275,65.0,99.0
313,211.005523025,211.35945544999998,67.0,95.0
314,211.511140775,211.735859775,63.0,102.0
315,211.848219275,212.11647758125,60.0,97.0
316,212.522376275,212.73866831249998,60.0,112.0
317,212.859454775,213.09681421874998,67.0,93.0
318,213.196533275,213.5308027875,65.0,93.0
319,213.702151025,213.81310603125,65.0,112.0
320,214.207768775,214.43389226875,67.0,96.0
321,214.544847275,214.84119545625,72.0,112.0
322,215.050465025,215.36366713125,75.0,100.0
323,215.556082775,215.80889165,72.0,96.0
324,215.89316127499998,217.095407925,70.0,99.0
325,218.589789275,218.870688025,70.0,122.0
326,218.926867775,219.24849684375,67.0,96.0
327,219.263946275,219.5279911,70.0,102.0
328,219.60102477499998,219.86366510624998,72.0,97.0
329,219.938103275,220.4015862125,75.0,117.0
330,220.61226027499998,220.758327625,75.0,122.0
331,220.949338775,221.14175441875,74.0,112.0
332,221.286417275,221.47181045,72.0,112.0
333,221.623495775,221.74568673125,72.0,127.0
334,221.792035025,221.95074281875,74.0,96.0
335,221.960574275,222.1824842875,72.0,93.0
336,222.297652775,222.52237177499998,67.0,99.0
337,222.634731275,223.56871961875,70.0,100.0
338,223.983045275,224.20214629999998,70.0,127.0
339,224.32012377499998,224.466191125,67.0,90.0
340,224.657202275,224.84680893125,70.0,127.0
341,224.994280775,225.17546046875,72.0,95.0
342,225.33135927499998,225.6600108125,75.0,122.0
343,226.005516275,226.23163976875,72.0,122.0
344,226.342594775,226.5588868125,70.0,117.0
345,226.679673275,226.90579676875,60.0,122.0
346,227.016751775,227.16422361875,70.0,112.0
347,227.353830275,227.5757402875,70.0,122.0
348,227.690908775,227.8959648625,67.0,100.0
349,228.027987275,229.0251778375,65.0,100.0
350,229.376301275,229.8959639625,67.0,100.0
351,230.05045827499998,230.28500873125,65.0,107.0
352,230.387536775,230.589783875,67.0,100.0
353,230.724615275,231.8791091375,70.0,127.0
354,232.072929275,232.522367275,65.0,99.0
355,232.578547025,232.93247945,67.0,95.0
356,233.084164775,233.308883775,63.0,102.0
357,233.421243275,233.68950158125,60.0,97.0
358,234.095400275,234.31169231249999,60.0,112.0
359,234.432478775,234.66983821875,67.0,93.0
360,234.76955727499998,235.6094445375,65.0,93.0
361,235.780792775,235.9746129125,67.0,112.0
362,236.117871275,236.43669135625,65.0,97.0
363,236.454949775,236.5757362375,67.0,107.0
364,236.792028275,237.02657873125,58.0,107.0
365,237.129106775,237.36646621875,60.0,99.0
366,237.466185275,238.814499275,63.0,117.0
367,240.162813275,240.6824759625,67.0,100.0
368,240.836970275,241.07152073125,65.0,107.0
369,241.174048775,241.37629587499998,67.0,100.0
370,241.511127275,242.66562113749998,70.0,127.0
371,242.859441275,243.30887927499998,65.0,99.0
372,243.365059025,243.71899145,67.0,95.0
373,243.870676775,244.095395775,63.0,102.0
374,244.20775527499998,244.47601358125,60.0,97.0
375,244.881912275,245.0982043125,60.0,112.0
376,245.218990775,245.45635021875,67.0,93.0
377,245.556069275,246.39595653749998,65.0,93.0
378,246.567304775,246.7611249125,67.0,112.0
379,246.904383275,247.22320335625,65.0,97.0
380,247.47320324375,247.91140529375,67.0,107.0
381,247.95354010625,248.3397758875,58.0,100.0
382,248.40016911875,249.54904500625,60.0,92.0
383,249.89455046875,250.36365138125,60.0,100.0
384,250.32994353125,253.93247,63.0,117.0
