,start,end,pitch,velocity
0,3.196627775,3.6797736249999997,51.0,59.0
1,2.859549275,3.72893090625,39.0,66.0
2,3.8707847749999997,4.00421168125,39.0,72.0
3,3.533706275,4.47050360625,63.0,62.0
4,3.533706275,4.56320019375,67.0,53.0
5,3.533706275,4.5842675999999996,58.0,60.0
6,3.533706275,4.65027880625,70.0,55.0
7,4.207863275,4.9396045187499995,39.0,72.0
8,4.544941775,5.02246965,51.0,76.0
9,5.219098775,5.53791885625,58.0,42.0
10,4.8820202749999995,5.556177275,63.0,72.0
11,4.8820202749999995,5.556177275,67.0,58.0
12,5.556177275,6.387637575,48.0,77.0
13,5.893255775,6.4073004875,55.0,48.0
14,6.567412775,6.78230031875,48.0,82.0
15,6.230334275,6.87499690625,67.0,73.0
16,6.230334275,6.89465981875,63.0,78.0
17,7.241569774999999,7.8005582874999995,50.0,53.0
18,6.904491275,7.814603225,43.0,65.0
19,7.578648275,8.15870419375,58.0,62.0
20,7.578648275,8.167131156249999,62.0,59.0
21,7.9157267749999995,8.21347945,55.0,53.0
22,8.252805275,9.0421307625,41.0,70.0
23,8.589883775,9.113759943749999,48.0,37.0
24,9.264040775,9.45364743125,41.0,53.0
25,8.926962275,9.96207416875,68.0,82.0
26,8.926962275,9.97050113125,65.0,76.0
27,9.601119275,10.59971433125,41.0,77.0
28,10.275276275,10.61797275,53.0,66.0
29,9.938197774999999,10.623590725,48.0,47.0
30,10.612354775,10.949433275,60.0,43.0
31,10.612354775,10.949433275,65.0,69.0
32,10.612354775,10.949433275,68.0,62.0
33,10.949433275,12.08285973125,46.0,89.0
34,11.286511775,12.106736125,53.0,55.0
35,11.623590275,12.1432529625,58.0,78.0
36,11.960668775,12.75420774375,62.0,59.0
37,11.960668775,12.79774705,70.0,53.0
38,11.960668775,12.79915154375,65.0,57.0
39,12.297747274999999,13.44943215,46.0,71.0
40,13.308982775,13.52948829375,62.0,58.0
41,12.971904275,13.5308927875,65.0,58.0
42,12.634825775,13.539319749999999,58.0,77.0
43,12.971904275,13.55196019375,70.0,72.0
44,13.646061275,15.095498825,55.0,55.0
45,13.646061275,15.10813926875,67.0,56.0
46,13.646061275,15.15027408125,62.0,67.0
47,13.646061275,15.189599906249999,50.0,52.0
48,13.646061275,15.22892573125,58.0,72.0
49,13.646061275,15.244375162499999,43.0,55.0
50,16.342689274999998,17.8398796125,48.0,50.0
51,16.342689274999998,17.87218296875,55.0,60.0
52,16.342689274999998,17.91150879375,36.0,40.0
53,16.342689274999998,17.92134025,60.0,63.0
54,16.342689274999998,17.92274474375,43.0,49.0
55,16.342689274999998,17.9803289875,63.0,56.0
56,19.039317275,19.97330561875,41.0,56.0
57,19.376395775,19.9803280875,48.0,40.0
58,19.713474275,20.20364259375,53.0,83.0
59,20.050552775,20.42836159375,60.0,58.0
60,20.050552775,20.4522379875,68.0,58.0
61,20.050552775,20.45645146875,65.0,63.0
62,21.061788274999998,21.1376309375,62.0,36.0
63,21.061788274999998,21.49858583125,58.0,85.0
64,20.724709775,21.51543975625,53.0,56.0
65,20.387631275,21.5645970375,46.0,47.0
66,21.398866775,21.706450906249998,62.0,58.0
67,21.061788274999998,21.71909135,65.0,54.0
68,22.073023775,22.49296740625,51.0,63.0
69,22.747180775,23.26824795625,51.0,65.0
70,22.410102275,23.5983039875,58.0,69.0
71,22.410102275,23.824427481249998,55.0,62.0
72,21.735945275,24.275269975,39.0,71.0
73,23.421337774999998,24.3398766875,51.0,56.0
74,24.095494775,24.48453954375,55.0,58.0
75,23.758416275,24.485944037499998,58.0,56.0
76,23.084259275,24.51543840625,63.0,62.0
77,24.769651775,25.27667401875,51.0,55.0
78,24.432573275,25.29633693125,39.0,82.0
79,25.443808775,25.58425815,39.0,72.0
80,25.106730275,26.011224249999998,55.0,49.0
81,25.106730275,26.14605565,58.0,59.0
82,25.106730275,26.15026913125,63.0,47.0
83,26.117965775,26.474707187499998,51.0,68.0
84,25.780887274999998,26.59408915625,39.0,82.0
85,26.455044275,27.015437281249998,63.0,83.0
86,26.455044275,27.06880804375,58.0,72.0
87,26.792122775,27.34127983125,55.0,58.0
88,27.129201275,27.96768404375,36.0,59.0
89,27.466279775,27.9971784125,43.0,35.0
90,28.140436774999998,28.2921221,36.0,69.0
91,27.803358275,28.62498711875,55.0,55.0
92,27.803358275,28.7387511125,60.0,63.0
93,27.803358275,28.75420054375,63.0,67.0
94,28.477515275,29.20644753125,36.0,73.0
95,28.814593775,29.22611044375,43.0,53.0
96,29.488750775,29.786503449999998,55.0,57.0
97,29.151672275,29.786503449999998,60.0,76.0
98,29.151672275,29.82723376875,63.0,85.0
99,29.825829275,30.65026710625,44.0,56.0
100,30.162907775,30.669930018749998,51.0,28.0
101,30.837064774999998,30.99577256875,44.0,77.0
102,30.499986274999998,31.5954914,60.0,62.0
103,30.499986274999998,31.605322856249998,63.0,64.0
104,30.499986274999998,31.6376262125,68.0,58.0
105,31.848300275,32.1600978875,56.0,40.0
106,31.511221775,32.1797608,51.0,55.0
107,31.174143275,32.2275135875,44.0,72.0
108,32.185378775,32.4718955,60.0,65.0
109,31.848300275,32.55195164375,63.0,74.0
110,31.848300275,32.5702100625,68.0,77.0
111,32.522457275,33.34127713125,46.0,77.0
112,32.859535775,33.421333275,53.0,53.0
113,33.196614275,33.4353782125,58.0,77.0
114,33.533692775,33.73734436875,46.0,95.0
115,33.196614275,34.27105199375,65.0,68.0
116,33.196614275,34.27666996875,62.0,65.0
117,34.207849775,34.7640293,58.0,71.0
118,33.870771275,35.0196471625,46.0,78.0
119,34.882006775,35.185377425,62.0,73.0
120,34.544928275,35.196613375,65.0,72.0
121,34.544928275,35.2106583125,70.0,93.0
122,35.219085275,36.029478168749996,43.0,71.0
123,35.556163775,36.084253425,50.0,58.0
124,36.230320775,36.3960510375,43.0,68.0
125,35.893242275,36.69239921875,62.0,49.0
126,35.893242275,36.70082618125,67.0,60.0
127,35.893242275,36.94520809375,70.0,49.0
128,36.567399275,37.50419660625,43.0,65.0
129,36.904477775,37.511219075,50.0,40.0
130,37.241556275,37.8173987125,67.0,72.0
131,37.241556275,37.88060093125,70.0,66.0
132,37.241556275,37.8960503625,55.0,69.0
133,37.578634775,37.983128975,62.0,61.0
134,37.915713275,38.77666794375,48.0,71.0
135,38.252791775,38.8061623125,55.0,53.0
136,38.926948775,39.091274543749996,48.0,67.0
137,38.589870275,39.19801606875,60.0,58.0
138,38.589870275,39.365150825,63.0,64.0
139,38.589870275,39.38621823125,67.0,55.0
140,39.264027275,39.96206066875,48.0,69.0
141,39.601105775,39.9915550375,60.0,69.0
142,39.938184275,40.41149866875,67.0,68.0
143,39.938184275,40.46767841875,63.0,63.0
144,40.275262775,41.016835475,60.0,62.0
145,40.612341275,41.43677910625,41.0,72.0
146,40.949419775,41.56177905,48.0,59.0
147,41.623576775,41.824419381249996,41.0,72.0
148,41.286498275,42.16711585625,65.0,68.0
149,41.286498275,42.17273383125,68.0,71.0
150,41.960655275,42.5814415125,41.0,74.0
151,42.297733775,42.70082348125,48.0,74.0
152,42.634812275,43.24295806875,65.0,85.0
153,42.971890775,43.30194680625,60.0,74.0
154,42.634812275,43.30756478125,68.0,89.0
155,43.308969275,44.061777925,46.0,78.0
156,43.646047775,44.13902508125,53.0,56.0
157,44.320204775,44.529474343749996,46.0,70.0
158,43.983126275,44.696609099999996,65.0,73.0
159,43.983126275,44.72610346875,62.0,66.0
160,43.983126275,44.88902474375,70.0,83.0
161,44.994361775,45.64183339375,58.0,90.0
162,45.499979525,45.6881816875,53.0,39.0
163,44.657283275,45.74576593125,46.0,76.0
164,45.668518775,45.9690804375,62.0,85.0
165,45.331440275,46.005597275,65.0,75.0
166,45.331440275,46.02385569375,70.0,93.0
167,46.342675775,46.84969801875,51.0,55.0
168,46.005597275,46.86936093125,39.0,82.0
169,47.016832775,47.15728215,39.0,72.0
170,46.679754275,47.58424825,55.0,49.0
171,46.679754275,47.71907965,58.0,59.0
172,46.679754275,47.723293131249996,63.0,47.0
173,47.690989775,48.0477311875,51.0,68.0
174,47.353911275,48.16711315625,39.0,82.0
175,48.028068274999995,48.58846128125,63.0,83.0
176,48.028068274999995,48.64183204375,58.0,72.0
177,48.365146775,48.91430383125,55.0,58.0
178,48.702225274999996,49.54070804375,36.0,59.0
179,49.039303775,49.5702024125,43.0,35.0
180,49.713460775,49.8651461,36.0,69.0
181,49.376382275,50.198011118749996,55.0,55.0
182,49.376382275,50.3117751125,60.0,63.0
183,49.376382275,50.32722454375,63.0,67.0
184,50.050539275,50.779471531249996,36.0,73.0
185,50.387617774999995,50.79913444375,43.0,53.0
186,51.061774774999996,51.35952745,55.0,57.0
187,50.724696275,51.35952745,60.0,76.0
188,50.724696275,51.40025776875,63.0,85.0
189,51.398853275,52.22329110625,44.0,56.0
190,51.735931775,52.24295401875,51.0,28.0
191,52.410088775,52.568796568749995,44.0,77.0
192,52.073010275,53.1685154,60.0,62.0
193,52.073010275,53.17834685625,63.0,64.0
194,52.073010275,53.2106502125,68.0,58.0
195,53.421324274999996,53.7331218875,56.0,40.0
196,53.084245775,53.7527848,51.0,55.0
197,52.747167274999995,53.800537587499996,44.0,72.0
198,53.758402775,54.0449195,60.0,65.0
199,53.421324274999996,54.12497564375,63.0,74.0
200,53.421324274999996,54.1432340625,68.0,77.0
201,54.095481275,54.91430113125,46.0,77.0
202,54.432559775,54.994357275,53.0,53.0
203,54.769638275,55.0084022125,58.0,77.0
204,55.106716774999995,55.31036836875,46.0,95.0
205,54.769638275,55.844075993749996,65.0,68.0
206,54.769638275,55.849693968749996,62.0,65.0
207,55.780873774999996,56.3370533,58.0,71.0
208,55.443795275,56.5926711625,46.0,78.0
209,56.455030775,56.758401424999995,62.0,73.0
210,56.117952275,56.769637375,65.0,72.0
211,56.117952275,56.7836823125,70.0,93.0
212,56.792109275,57.60250216875,43.0,71.0
213,57.129187775,57.657277425,50.0,58.0
214,57.803344775,57.9690750375,43.0,68.0
215,57.466266274999995,58.26542321875,62.0,49.0
216,57.466266274999995,58.27385018125,67.0,60.0
217,57.466266274999995,58.51823209375,70.0,49.0
218,58.140423274999996,59.07722060625,43.0,65.0
219,58.477501775,59.084243074999996,50.0,40.0
220,58.814580275,59.3904227125,67.0,72.0
221,58.814580275,59.45362493125,70.0,66.0
222,58.814580275,59.469074362499995,55.0,69.0
223,59.151658775,59.556152974999996,62.0,61.0
224,59.488737275,60.349691943749995,48.0,71.0
225,59.825815774999995,60.379186312499996,55.0,53.0
226,60.499972774999996,60.66429854375,48.0,67.0
227,60.162894275,60.77104006875,60.0,58.0
228,60.162894275,60.938174825,63.0,64.0
229,60.162894275,60.95924223125,67.0,55.0
230,60.837051275,61.535084668749995,48.0,69.0
231,61.174129775,61.564579037499996,60.0,69.0
232,61.511208275,61.984522668749996,67.0,68.0
233,61.511208275,62.04070241875,63.0,63.0
234,61.848286775,62.589859475,60.0,62.0
235,62.185365274999995,63.00980310625,41.0,72.0
236,62.522443775,63.13480305,48.0,59.0
237,63.196600775,63.39744338125,41.0,72.0
238,62.859522274999996,63.533679275,65.0,68.0
239,62.859522274999996,63.533679275,68.0,71.0
240,63.533679275,64.36935305624999,46.0,77.0
241,64.207836275,64.511206925,62.0,55.0
242,64.207836275,64.5477237625,65.0,71.0
243,64.207836275,64.6488473125,70.0,72.0
244,64.544914775,64.7050270625,46.0,52.0
245,65.219071775,65.68115021875,46.0,34.0
246,64.881993275,65.68957718125,39.0,61.0
247,65.556150275,66.07159948125,58.0,68.0
248,65.556150275,66.09688036874999,55.0,53.0
249,65.893228775,66.1713185375,39.0,74.0
250,65.556150275,66.47890266875,63.0,61.0
251,66.904464275,67.2555877125,58.0,112.0
252,66.230307275,67.37496968125,39.0,69.0
253,66.904464275,67.41710449375,63.0,100.0
254,66.567385775,67.443789875,46.0,36.0
255,67.241542775,67.4606438,55.0,88.0
256,67.073003525,67.47187975,51.0,73.0
257,67.410082025,67.52946399375,58.0,73.0
258,68.084239025,68.342665875,55.0,66.0
259,68.42131752499999,68.6151376625,58.0,71.0
260,68.252778275,68.7443510875,63.0,112.0
261,67.747160525,68.81036229375,46.0,36.0
262,67.578621275,68.83002520625,39.0,97.0
263,68.589856775,68.8960364125,55.0,76.0
264,67.915699775,68.90586786875,51.0,88.0
265,68.758396025,68.97328356874999,58.0,85.0
266,69.264013775,69.62215968125,51.0,93.0
267,69.432553025,69.68676639375,55.0,75.0
268,69.095474525,69.85951912499999,46.0,47.0
269,69.769631525,69.89884495,51.0,88.0
270,68.926935275,69.96345166249999,39.0,86.0
271,69.601092275,70.12356395,63.0,99.0
272,69.938170775,70.13620439374999,58.0,88.0
273,70.106710025,70.37777731874999,55.0,73.0
274,70.612327775,71.01120399999999,48.0,86.0
275,70.78086702499999,71.0645747625,55.0,70.0
276,70.443788525,71.19800166875,43.0,77.0
277,70.275249275,71.2134511,36.0,76.0
278,71.117945525,71.3286195875,48.0,66.0
279,70.949406275,71.34406901875,63.0,96.0
280,71.286484775,71.58283295625,60.0,93.0
281,71.455024025,71.58704643749999,55.0,74.0
282,71.960641775,72.320192175,55.0,93.0
283,72.129181025,72.38901236875,58.0,77.0
284,71.792102525,72.51822579375,50.0,60.0
285,71.623563275,72.52946174375,43.0,79.0
286,72.466259525,72.54210218749999,55.0,77.0
287,72.297720275,72.71204593125,67.0,58.0
288,72.634798775,72.79491106249999,62.0,52.0
289,72.803338025,72.9859222125,58.0,90.0
290,73.308955775,73.66710168125,51.0,89.0
291,73.477495025,73.7443488375,55.0,73.0
292,72.971877275,74.22047221875,39.0,81.0
293,73.646034275,74.24013513125,63.0,90.0
294,73.14041652499999,74.25698905624999,46.0,34.0
295,73.983112775,74.25979804375,58.0,66.0
296,73.814573525,74.29912386875,51.0,72.0
297,74.151652025,74.34125868125,55.0,72.0
298,74.825809025,74.99575276875,55.0,81.0
299,74.657269775,75.04631454375,51.0,79.0
300,74.488730525,75.18395493125,46.0,52.0
301,74.320191275,75.25137063125,39.0,72.0
302,75.162887525,75.30755038125,51.0,86.0
303,75.331426775,75.56878621874999,58.0,77.0
304,74.994348275,75.59406710625,63.0,95.0
305,75.49996602499999,75.62496596875,55.0,77.0
306,76.005583775,76.3454712625,53.0,81.0
307,76.174123025,76.40867348124999,56.0,59.0
308,75.668505275,76.6881677375,41.0,66.0
309,75.837044525,76.713448625,48.0,58.0
310,76.342662275,76.8342350875,65.0,55.0
311,76.511201525,76.83844856875,53.0,77.0
312,76.679740775,76.9016507875,56.0,73.0
313,76.848280025,76.971875475,60.0,65.0
314,77.522437025,77.6881672875,62.0,82.0
315,77.353897775,77.702212225,58.0,96.0
316,77.690976275,78.02103230624999,65.0,72.0
317,77.185358525,78.17271763125,53.0,62.0
318,77.85951552499999,78.17833560625,58.0,95.0
319,78.028054775,78.35389732499999,70.0,90.0
320,77.016819275,78.35811080625,46.0,55.0
321,78.196594025,78.376369225,62.0,67.0
322,78.702211775,79.06316666875,55.0,72.0
323,78.870751025,79.15586325625,58.0,63.0
324,79.207829525,79.36653731875,55.0,63.0
325,78.365133275,79.5364810625,43.0,79.0
326,79.376368775,79.61653720625,62.0,57.0
327,78.533672525,79.69518885625,50.0,64.0
328,79.544908025,79.72889670625,58.0,99.0
329,79.039290275,79.7668180375,67.0,69.0
330,80.050525775,80.43676155625,55.0,88.0
331,80.21906502499999,80.48451434374999,58.0,79.0
332,80.556143525,80.657267075,55.0,79.0
333,79.881986525,80.68535695,50.0,57.0
334,79.713447275,80.71344682499999,43.0,72.0
335,80.724682775,80.938165825,62.0,50.0
336,80.387604275,81.0758062125,67.0,72.0
337,80.893222025,81.08985115,58.0,83.0
338,81.567379025,81.76822163125,55.0,72.0
339,81.398839775,81.8061429625,48.0,75.0
340,81.735918275,81.96204176875,60.0,66.0
341,81.904457525,82.196592225,48.0,82.0
342,81.061761275,82.26260343125,36.0,67.0
343,81.230300525,82.3819854,43.0,55.0
344,82.072996775,82.42552470625,55.0,70.0
345,82.241536025,82.4578280625,63.0,88.0
346,82.747153775,83.1376030375,48.0,75.0
347,82.915693025,83.15586145625,55.0,63.0
348,82.410075275,83.32720969374999,36.0,72.0
349,82.57861452499999,83.3510860875,43.0,63.0
350,83.252771525,83.52383881875,48.0,81.0
351,83.421310775,83.69518705624999,60.0,70.0
352,83.084232275,83.70080503125,63.0,93.0
353,83.589850025,83.7162544625,55.0,76.0
354,84.264007025,84.43114178124999,60.0,40.0
355,84.095467775,84.49013051875,53.0,83.0
356,84.601085525,84.8538944,53.0,78.0
357,83.758389275,85.03226510625,41.0,66.0
358,84.769624775,85.05333251249999,65.0,77.0
359,84.43254627499999,85.0870403625,68.0,93.0
360,83.926928525,85.129175175,48.0,56.0
361,84.93816402499999,85.1544560625,60.0,72.0
362,85.612321025,85.84827597499999,60.0,74.0
363,85.443781775,85.86091641875,53.0,82.0
364,85.106703275,86.0533320625,41.0,69.0
365,85.275242525,86.06035453125,48.0,67.0
366,85.949399525,86.140410675,53.0,90.0
367,85.780860275,86.286478025,68.0,99.0
368,86.117938775,86.33142182499999,65.0,85.0
369,86.286478025,86.44237683125,60.0,77.0
370,86.960635025,87.12496079374999,62.0,86.0
371,86.79209577499999,87.13619674374999,58.0,83.0
372,87.129174275,87.45642131875,65.0,79.0
373,86.455017275,87.668499875,46.0,90.0
374,86.623556525,87.7443425375,53.0,54.0
375,87.29771352499999,87.8904098875,58.0,93.0
376,87.466252775,87.97327501875,62.0,66.0
377,87.634792025,88.2246794,70.0,102.0
378,88.140409775,88.50417365625,58.0,97.0
379,88.308949025,88.5617579,62.0,85.0
380,87.971870525,89.03226330625,53.0,63.0
381,88.646027525,89.03788128125,58.0,99.0
382,87.803331275,89.08001609375,46.0,83.0
383,88.814566775,89.1319823625,65.0,88.0
384,88.477488275,89.1684992,70.0,107.0
385,88.983106025,89.17271268125,62.0,89.0
386,89.65726302499999,89.915689875,55.0,66.0
387,89.994341525,90.1881616625,58.0,71.0
388,89.825802275,90.3173750875,63.0,112.0
389,89.320184525,90.38338629375,46.0,36.0
390,89.15164527499999,90.40304920625,39.0,97.0
391,90.162880775,90.4690604125,55.0,76.0
392,89.488723775,90.47889186875,51.0,88.0
393,90.331420025,90.54630756875,58.0,85.0
394,90.837037775,91.19518368125,51.0,93.0
395,91.005577025,91.25979039375,55.0,75.0
396,90.668498525,91.432543125,46.0,47.0
397,91.342655525,91.47186895,51.0,88.0
398,90.499959275,91.5364756625,39.0,86.0
399,91.174116275,91.69658795,63.0,99.0
400,91.51119477499999,91.70922839375,58.0,88.0
401,91.679734025,91.95080131875,55.0,73.0
402,92.185351775,92.584228,48.0,86.0
403,92.353891025,92.6375987625,55.0,70.0
404,92.01681252499999,92.77102566875,43.0,77.0
405,91.848273275,92.7864751,36.0,76.0
406,92.690969525,92.9016435875,48.0,66.0
407,92.522430275,92.91709301875,63.0,96.0
408,92.859508775,93.15585695624999,60.0,93.0
409,93.028048025,93.1600704375,55.0,74.0
410,93.533665775,93.89321617499999,55.0,93.0
411,93.702205025,93.96203636874999,58.0,77.0
412,93.365126525,94.09124979375,50.0,60.0
413,93.196587275,94.10248574375,43.0,79.0
414,94.039283525,94.1151261875,55.0,77.0
415,93.87074427499999,94.28506993124999,67.0,58.0
416,94.207822775,94.3679350625,62.0,52.0
417,94.37636202499999,94.5589462125,58.0,90.0
418,94.881979775,95.24012568124999,51.0,89.0
419,95.050519025,95.3173728375,55.0,73.0
420,94.544901275,95.79349621875,39.0,81.0
421,95.219058275,95.81315913125,63.0,90.0
422,94.713440525,95.83001305625,46.0,34.0
423,95.556136775,95.83282204375,58.0,66.0
424,95.387597525,95.87214786874999,51.0,72.0
425,95.724676025,95.91428268125,55.0,72.0
426,96.398833025,96.56877676875,55.0,81.0
427,96.23029377499999,96.61933854375,51.0,79.0
428,96.061754525,96.75697893125,46.0,52.0
429,95.893215275,96.82439463125,39.0,72.0
430,96.73591152499999,96.88057438125,51.0,86.0
431,96.904450775,97.14181021875,58.0,77.0
432,96.567372275,97.16709110625,63.0,95.0
433,97.072990025,97.19798996875,55.0,77.0
434,97.578607775,97.9184952625,53.0,81.0
435,97.747147025,97.98169748125,56.0,59.0
436,97.241529275,98.2611917375,41.0,66.0
437,97.410068525,98.286472625,48.0,58.0
438,97.915686275,98.4072590875,65.0,55.0
439,98.084225525,98.41147256875,53.0,77.0
440,98.252764775,98.47467478749999,56.0,73.0
441,98.421304025,98.544899475,60.0,65.0
442,99.09546102499999,99.2611912875,62.0,82.0
443,98.926921775,99.275236225,58.0,96.0
444,99.264000275,99.59405630625,65.0,72.0
445,98.758382525,99.74574163125,53.0,62.0
446,99.432539525,99.75135960624999,58.0,95.0
447,99.601078775,99.926921325,70.0,90.0
448,98.58984327499999,99.93113480625,46.0,55.0
449,99.769618025,99.949393225,62.0,67.0
450,100.275235775,100.63619066875,55.0,72.0
451,100.443775025,100.72888725625,58.0,63.0
452,100.780853525,100.93956131875,55.0,63.0
453,99.938157275,101.10950506249999,43.0,79.0
454,100.94939277499999,101.18956120624999,62.0,57.0
455,100.106696525,101.26821285625,50.0,64.0
456,101.117932025,101.30192070625,58.0,99.0
457,100.612314275,101.33984203749999,67.0,69.0
458,101.623549775,102.00978555625,55.0,88.0
459,101.792089025,102.05753834375,58.0,79.0
460,102.129167525,102.230291075,55.0,79.0
461,101.45501052499999,102.25838095,50.0,57.0
462,101.286471275,102.286470825,43.0,72.0
463,102.297706775,102.511189825,62.0,50.0
464,101.960628275,102.6488302125,67.0,72.0
465,102.466246025,102.66287514999999,58.0,83.0
466,103.140403025,103.34124563125,55.0,72.0
467,102.971863775,103.3791669625,48.0,75.0
468,103.30894227499999,103.53506576875,60.0,66.0
469,103.477481525,103.769616225,48.0,82.0
470,102.634785275,103.83562743125,36.0,67.0
471,102.803324525,103.9550094,43.0,55.0
472,103.646020775,103.99854870624999,55.0,70.0
473,103.81456002499999,104.0308520625,63.0,88.0
474,104.320177775,104.7106270375,48.0,75.0
475,104.488717025,104.72888545625,55.0,63.0
476,103.983099275,104.90023369375,36.0,72.0
477,104.151638525,104.9241100875,43.0,63.0
478,104.825795525,105.09686281875,48.0,81.0
479,104.994334775,105.26821105625,60.0,70.0
480,104.657256275,105.27382903125,63.0,93.0
481,105.162874025,105.2892784625,55.0,76.0
482,105.837031025,105.98450286875,60.0,77.0
483,105.66849177499999,106.0224242,53.0,72.0
484,105.499952525,106.1769185125,48.0,61.0
485,105.331413275,106.20641288125,41.0,71.0
486,106.17410952499999,106.35248023125,53.0,69.0
487,106.005570275,106.5701767625,68.0,90.0
488,106.342648775,106.58281720625,65.0,77.0
489,106.511188025,106.6488284125,60.0,83.0
490,107.185345025,107.36090674375,62.0,72.0
491,107.016805775,107.40304155625,58.0,78.0
492,106.848266525,107.56596283125,53.0,59.0
493,107.522423525,107.60247966875,58.0,90.0
494,106.679727275,107.61090663125,46.0,76.0
495,107.690962775,107.93113120625,65.0,67.0
496,107.353884275,107.94377165,70.0,96.0
497,107.859502025,108.00697386875,62.0,70.0
498,108.365119775,108.724670175,51.0,82.0
499,108.53365902499999,108.825793725,55.0,70.0
500,108.02804127499999,109.30753508125,39.0,75.0
501,108.196580525,109.353883375,46.0,66.0
502,109.207816025,109.49854623125,55.0,65.0
503,109.039276775,109.9297258125,58.0,56.0
504,108.702198275,109.95641119375,63.0,92.0
505,108.870737525,110.1207369625,51.0,82.0
506,110.050512275,110.4578154625,58.0,69.0
507,109.713433775,110.5926468625,46.0,47.0
508,110.38759077499999,110.601073825,55.0,78.0
509,110.219051525,110.60809629375,51.0,82.0
510,110.556130025,110.67832098125,58.0,70.0
511,110.050512275,110.6965794,63.0,93.0
512,109.376355275,110.71483781875,39.0,67.0
513,111.061747775,111.90303953125,46.0,56.0
514,110.724669275,111.910062,39.0,81.0
515,111.735904775,112.44236513125,55.0,69.0
516,111.398826275,112.567365075,63.0,93.0
517,112.072983275,112.983095225,39.0,73.0
518,112.410061775,113.0027581375,51.0,73.0
519,112.74714027499999,113.31455575,58.0,63.0
520,112.74714027499999,113.42831974375,63.0,95.0
521,113.084218775,113.53927475,55.0,66.0
522,113.421297275,114.2724204875,48.0,61.0
523,114.095454275,114.37494853125,60.0,79.0
524,113.758375775,114.39742043125,55.0,76.0
525,114.095454275,114.4409597375,63.0,77.0
526,114.432532775,114.79348766875,48.0,78.0
527,115.10668977499999,115.556127775,50.0,56.0
528,114.769611275,115.5701727125,43.0,65.0
529,115.443768275,116.03786913124999,58.0,82.0
530,115.443768275,116.04910508124999,62.0,72.0
531,115.780846775,116.0673635,55.0,58.0
532,115.949386025,116.91146424375,41.0,67.0
533,116.792082275,117.13056526875,53.0,56.0
534,116.455003775,117.1600596375,48.0,63.0
535,117.129160775,117.252756225,41.0,79.0
536,116.792082275,118.016800825,65.0,67.0
537,116.792082275,118.0252277875,68.0,56.0
538,117.803317775,118.25837375,48.0,50.0
539,117.46623927499999,118.28225014374999,41.0,74.0
540,118.140396275,118.3960141375,53.0,69.0
541,118.47747477499999,118.7836544125,60.0,73.0
542,118.140396275,118.79629485625,68.0,73.0
543,118.140396275,118.82157574375,65.0,78.0
544,119.151631775,119.59123831875,53.0,43.0
545,118.814553275,119.63899110625,46.0,82.0
546,119.82578877499999,120.0364628375,46.0,67.0
547,119.488710275,120.3510694375,62.0,61.0
548,119.488710275,120.6151142625,65.0,57.0
549,119.488710275,120.6151142625,70.0,56.0
550,120.499945775,120.859496175,58.0,97.0
551,120.162867275,120.94236130624999,46.0,89.0
552,120.83702427499999,121.42550715624999,70.0,102.0
553,120.83702427499999,121.45359703125,65.0,90.0
554,121.174102775,121.5027543125,62.0,76.0
555,121.511181275,123.308933275,50.0,27.0
556,121.511181275,123.4521916375,43.0,59.0
557,121.511181275,123.79348361875,62.0,70.0
558,121.511181275,123.96764084375,58.0,76.0
559,121.511181275,124.06595540625,55.0,72.0
560,124.207809275,125.78224676875,48.0,60.0
561,124.207809275,126.05612305,55.0,66.0
562,124.207809275,126.0926398875,63.0,57.0
563,124.207809275,126.10106685,60.0,66.0
564,124.207809275,126.17831400624999,36.0,46.0
565,125.893201775,126.3679206625,48.0,34.0
566,126.230280275,126.90865075625,60.0,97.0
567,126.230280275,126.91145974375,63.0,112.0
568,126.567358775,126.9184822125,55.0,76.0
569,126.90443727499999,127.60808864375,41.0,85.0
570,127.241515775,127.77381890625,48.0,56.0
571,127.578594275,127.8510660625,56.0,73.0
572,127.578594275,127.91567277499999,60.0,67.0
573,127.91567277499999,128.09966145625,41.0,95.0
574,128.589829775,129.0364587875,58.0,77.0
575,129.095447525,129.17269468125,58.0,73.0
576,128.252751275,129.31033506875,46.0,95.0
577,128.926908275,129.6038742625,65.0,86.0
578,129.601065275,130.49291880625,39.0,81.0
579,129.938143775,130.50555925,51.0,72.0
580,130.612300775,130.7555591375,39.0,92.0
581,130.275222275,130.85808718125,55.0,61.0
582,130.275222275,131.38055885625,58.0,66.0
583,130.275222275,131.4072442375,63.0,66.0
584,130.94937927499998,132.04347990624998,39.0,92.0
585,131.286457775,132.08280573125,51.0,92.0
586,131.623536275,132.2780303625,58.0,86.0
587,131.960614775,132.31033371875,55.0,68.0
588,131.623536275,132.3173561875,63.0,85.0
589,132.634771775,133.14179401875,51.0,55.0
590,132.297693275,133.16145693125,39.0,82.0
591,133.308928775,133.44937815,39.0,72.0
592,132.971850275,133.87634425,55.0,49.0
593,132.971850275,134.01117564999998,58.0,59.0
594,132.971850275,134.01538913125,63.0,47.0
595,133.983085775,134.3398271875,51.0,68.0
596,133.646007275,134.45920915624998,39.0,82.0
597,134.320164275,134.88055728125,63.0,83.0
598,134.320164275,134.93392804375,58.0,72.0
599,134.657242775,135.20639983125,55.0,58.0
600,134.994321275,135.83280404375,36.0,59.0
601,135.331399775,135.8622984125,43.0,35.0
602,136.005556775,136.1572421,36.0,69.0
603,135.66847827499998,136.49010711875,55.0,55.0
604,135.66847827499998,136.6038711125,60.0,63.0
605,135.66847827499998,136.61932054375,63.0,67.0
606,136.342635275,137.07156753125,36.0,73.0
607,136.679713775,137.09123044375,43.0,53.0
608,137.353870775,137.65162345,55.0,57.0
609,137.016792275,137.65162345,60.0,76.0
610,137.016792275,137.69235376875,63.0,85.0
611,137.690949275,138.51538710625,44.0,56.0
612,138.028027775,138.53505001874998,51.0,28.0
613,138.702184775,138.86089256875,44.0,77.0
614,138.365106275,139.4606114,60.0,62.0
615,138.365106275,139.47044285625,63.0,64.0
616,138.365106275,139.5027462125,68.0,58.0
617,139.713420275,140.0252178875,56.0,40.0
618,139.376341775,140.0448808,51.0,55.0
619,139.039263275,140.0926335875,44.0,72.0
620,140.050498775,140.3370155,60.0,65.0
621,139.713420275,140.41707164375,63.0,74.0
622,139.713420275,140.4353300625,68.0,77.0
623,140.38757727499998,141.20639713125,46.0,77.0
624,140.724655775,141.28645327499999,53.0,53.0
625,141.061734275,141.3004982125,58.0,77.0
626,141.398812775,141.60246436875,46.0,95.0
627,141.061734275,142.13617199375,65.0,68.0
628,141.061734275,142.14178996875,62.0,65.0
629,142.072969775,142.6291493,58.0,71.0
630,141.735891275,142.8847671625,46.0,78.0
631,142.747126775,143.050497425,62.0,73.0
632,142.410048275,143.061733375,65.0,72.0
633,142.410048275,143.0757783125,70.0,93.0
634,143.084205275,143.89459816875,43.0,71.0
635,143.421283775,143.949373425,50.0,58.0
636,144.095440775,144.2611710375,43.0,68.0
637,143.758362275,144.55751921875,62.0,49.0
638,143.758362275,144.56594618124998,67.0,60.0
639,143.758362275,144.81032809375,70.0,49.0
640,144.432519275,145.36931660625,43.0,65.0
641,144.769597775,145.376339075,50.0,40.0
642,145.10667627499998,145.68251871249998,67.0,72.0
643,145.10667627499998,145.74572093125,70.0,66.0
644,145.10667627499998,145.7611703625,55.0,69.0
645,145.443754775,145.848248975,62.0,61.0
646,145.780833275,146.64178794375,48.0,71.0
647,146.117911775,146.67128231249998,55.0,53.0
648,146.792068775,146.95639454375,48.0,67.0
649,146.454990275,147.06313606875,60.0,58.0
650,146.454990275,147.230270825,63.0,64.0
651,146.454990275,147.25133823125,67.0,55.0
652,147.129147275,147.82718066875,48.0,69.0
653,147.466225775,147.8566750375,60.0,69.0
654,147.803304275,148.27661866875,67.0,68.0
655,147.803304275,148.33279841875,63.0,63.0
656,148.140382775,148.88195547499998,60.0,62.0
657,148.477461275,149.30189910625,41.0,72.0
658,148.814539775,149.42689905,48.0,59.0
659,149.488696775,149.68953938125,41.0,72.0
660,149.151618275,149.82577527499998,65.0,68.0
661,149.151618275,149.82577527499998,68.0,71.0
662,149.82577527499998,150.66144905625,46.0,77.0
663,150.499932275,150.803302925,62.0,55.0
664,150.499932275,150.83981976249999,65.0,71.0
665,150.499932275,150.9409433125,70.0,72.0
666,150.837010775,150.9971230625,46.0,52.0
667,151.511167775,151.97324621875,46.0,34.0
668,151.174089275,151.98167318125,39.0,61.0
669,151.848246275,152.36369548125,58.0,68.0
670,151.848246275,152.38897636875,55.0,53.0
671,152.185324775,152.4634145375,39.0,74.0
672,151.848246275,152.77099866875,63.0,61.0
673,153.196560275,153.5476837125,58.0,112.0
674,152.522403275,153.66706568125,39.0,69.0
675,153.196560275,153.70920049375,63.0,100.0
676,152.859481775,153.735885875,46.0,36.0
677,153.533638775,153.7527398,55.0,88.0
678,153.365099525,153.76397575,51.0,73.0
679,153.702178025,153.82155999375,58.0,73.0
680,154.376335025,154.634761875,55.0,66.0
681,154.713413525,154.9072336625,58.0,71.0
682,154.54487427499998,155.0364470875,63.0,112.0
683,154.03925652499998,155.10245829375,46.0,36.0
684,153.870717275,155.12212120625,39.0,97.0
685,154.881952775,155.1881324125,55.0,76.0
686,154.207795775,155.19796386875,51.0,88.0
687,155.05049202499998,155.26537956875,58.0,85.0
688,155.556109775,155.91425568124998,51.0,93.0
689,155.724649025,155.97886239375,55.0,75.0
690,155.387570525,156.151615125,46.0,47.0
691,156.061727525,156.19094095,51.0,88.0
692,155.219031275,156.2555476625,39.0,86.0
693,155.893188275,156.41565995,63.0,99.0
694,156.230266775,156.42830039375,58.0,88.0
695,156.398806025,156.66987331875,55.0,73.0
696,156.904423775,157.3033,48.0,86.0
697,157.072963025,157.3566707625,55.0,70.0
698,156.735884525,157.49009766875,43.0,77.0
699,156.567345275,157.5055471,36.0,76.0
700,157.410041525,157.6207155875,48.0,66.0
701,157.241502275,157.63616501875,63.0,96.0
702,157.578580775,157.87492895625,60.0,93.0
703,157.747120025,157.8791424375,55.0,74.0
704,158.25273777499999,158.612288175,55.0,93.0
705,158.421277025,158.68110836875,58.0,77.0
706,158.084198525,158.81032179375,50.0,60.0
707,157.915659275,158.82155774375,43.0,79.0
708,158.75835552499998,158.8341981875,55.0,77.0
709,158.589816275,159.00414193125,67.0,58.0
710,158.926894775,159.0870070625,62.0,52.0
711,159.095434025,159.2780182125,58.0,90.0
712,159.601051775,159.95919768125,51.0,89.0
713,159.76959102499998,160.0364448375,55.0,73.0
714,159.26397327499998,160.51256821875,39.0,81.0
715,159.938130275,160.53223113125,63.0,90.0
716,159.432512525,160.54908505625,46.0,34.0
717,160.275208775,160.55189404375,58.0,66.0
718,160.106669525,160.59121986875,51.0,72.0
719,160.443748025,160.63335468124998,55.0,72.0
720,161.117905025,161.28784876875,55.0,81.0
721,160.949365775,161.33841054375,51.0,79.0
722,160.780826525,161.47605093125,46.0,52.0
723,160.612287275,161.54346663125,39.0,72.0
724,161.454983525,161.59964638124998,51.0,86.0
725,161.623522775,161.86088221875,58.0,77.0
726,161.286444275,161.88616310625,63.0,95.0
727,161.792062025,161.91706196875,55.0,77.0
728,162.297679775,162.6375672625,53.0,81.0
729,162.466219025,162.70076948125,56.0,59.0
730,161.960601275,162.9802637375,41.0,66.0
731,162.129140525,163.005544625,48.0,58.0
732,162.634758275,163.1263310875,65.0,55.0
733,162.803297525,163.13054456875,53.0,77.0
734,162.97183677499999,163.1937467875,56.0,73.0
735,163.140376025,163.263971475,60.0,65.0
736,163.814533025,163.9802632875,62.0,82.0
737,163.645993775,163.994308225,58.0,96.0
738,163.98307227499998,164.31312830625,65.0,72.0
739,163.47745452499998,164.46481363125,53.0,62.0
740,164.151611525,164.47043160625,58.0,95.0
741,164.320150775,164.645993325,70.0,90.0
742,163.308915275,164.65020680625,46.0,55.0
743,164.48869002499998,164.668465225,62.0,67.0
744,164.994307775,165.35526266875,55.0,72.0
745,165.162847025,165.44795925625,58.0,63.0
746,165.499925525,165.65863331875,55.0,63.0
747,164.657229275,165.8285770625,43.0,79.0
748,165.668464775,165.90863320625,62.0,57.0
749,164.825768525,165.98728485625,50.0,64.0
750,165.837004025,166.02099270624998,58.0,99.0
751,165.331386275,166.0589140375,67.0,69.0
752,166.342621775,166.72885755625,55.0,88.0
753,166.511161025,166.77661034375,58.0,79.0
754,166.848239525,166.949363075,55.0,79.0
755,166.174082525,166.97745294999999,50.0,57.0
756,166.005543275,167.005542825,43.0,72.0
757,167.016778775,167.23026182499999,62.0,50.0
758,166.679700275,167.36790221249998,67.0,72.0
759,167.185318025,167.38194715,58.0,83.0
760,167.859475025,168.06031763125,55.0,72.0
761,167.69093577499999,168.0982389625,48.0,75.0
762,168.028014275,168.25413776874998,60.0,66.0
763,168.19655352499998,168.488688225,48.0,82.0
764,167.353857275,168.55469943125,36.0,67.0
765,167.522396525,168.6740814,43.0,55.0
766,168.365092775,168.71762070625,55.0,70.0
767,168.533632025,168.74992406249999,63.0,88.0
768,169.039249775,169.4296990375,48.0,75.0
769,169.20778902499998,169.44795745625,55.0,63.0
770,168.70217127499998,169.61930569375,36.0,72.0
771,168.870710525,169.6431820875,43.0,63.0
772,169.544867525,169.81593481875,48.0,81.0
773,169.713406775,169.98728305625,60.0,70.0
774,169.376328275,169.99290103125,63.0,93.0
775,169.881946025,170.0083504625,55.0,76.0
776,170.556103025,170.72323778125,60.0,40.0
777,170.387563775,170.78222651875,53.0,83.0
778,170.893181525,171.1459904,53.0,78.0
779,170.050485275,171.32436110625,41.0,66.0
780,171.061720775,171.3454285125,65.0,77.0
781,170.724642275,171.3791363625,68.0,93.0
782,170.219024525,171.421271175,48.0,56.0
783,171.230260025,171.4465520625,60.0,72.0
784,171.904417025,172.140371975,60.0,74.0
785,171.735877775,172.15301241875,53.0,82.0
786,171.398799275,172.3454280625,41.0,69.0
787,171.567338525,172.35245053124999,48.0,67.0
788,172.241495525,172.43250667499998,53.0,90.0
789,172.072956275,172.578574025,68.0,99.0
790,172.41003477499999,172.623517825,65.0,85.0
791,172.578574025,172.73447283125,60.0,77.0
792,173.252731025,173.41705679375,62.0,86.0
793,173.084191775,173.42829274375,58.0,83.0
794,173.42127027499998,173.74851731875,65.0,79.0
795,172.747113275,173.960595875,46.0,90.0
796,172.91565252499998,174.0364385375,53.0,54.0
797,173.589809525,174.18250588749999,58.0,93.0
798,173.758348775,174.26537101875,62.0,66.0
799,173.92688802499998,174.5167754,70.0,102.0
800,174.432505775,174.79626965625,58.0,97.0
801,174.601045025,174.8538539,62.0,85.0
802,174.263966525,175.32435930625,53.0,63.0
803,174.938123525,175.32997728125,58.0,99.0
804,174.095427275,175.37211209375,46.0,83.0
805,175.106662775,175.42407836249998,65.0,88.0
806,174.769584275,175.4605952,70.0,107.0
807,175.275202025,175.46480868125,62.0,89.0
808,175.949359025,176.20778587499998,55.0,66.0
809,176.286437525,176.4802576625,58.0,71.0
810,176.117898275,176.6094710875,63.0,112.0
811,175.612280525,176.67548229375,46.0,36.0
812,175.443741275,176.69514520625,39.0,97.0
813,176.454976775,176.7611564125,55.0,76.0
814,175.780819775,176.77098786874998,51.0,88.0
815,176.623516025,176.83840356875,58.0,85.0
816,177.12913377499999,177.48727968125,51.0,93.0
817,177.297673025,177.55188639375,55.0,75.0
818,176.960594525,177.724639125,46.0,47.0
819,177.63475152499998,177.76396495,51.0,88.0
820,176.792055275,177.8285716625,39.0,86.0
821,177.466212275,177.98868395,63.0,99.0
822,177.803290775,178.00132439375,58.0,88.0
823,177.971830025,178.24289731874998,55.0,73.0
824,178.477447775,178.87632399999998,48.0,86.0
825,178.64598702499998,178.9296947625,55.0,70.0
826,178.308908525,179.06312166875,43.0,77.0
827,178.14036927499998,179.0785711,36.0,76.0
828,178.983065525,179.1937395875,48.0,66.0
829,178.814526275,179.20918901875,63.0,96.0
830,179.151604775,179.44795295625,60.0,93.0
831,179.320144025,179.45216643749998,55.0,74.0
832,179.825761775,180.185312175,55.0,93.0
833,179.994301025,180.25413236875,58.0,77.0
834,179.657222525,180.38334579375,50.0,60.0
835,179.488683275,180.39458174375,43.0,79.0
836,180.331379525,180.4072221875,55.0,77.0
837,180.162840275,180.57716593125,67.0,58.0
838,180.499918775,180.6600310625,62.0,52.0
839,180.668458025,180.8510422125,58.0,90.0
840,181.174075775,181.53222168125,51.0,89.0
841,181.342615025,181.6094688375,55.0,73.0
842,180.836997275,182.08559221875,39.0,81.0
843,181.511154275,182.10525513125,63.0,90.0
844,181.005536525,182.12210905625,46.0,34.0
845,181.84823277499999,182.12491804375,58.0,66.0
846,181.679693525,182.16424386875,51.0,72.0
847,182.016772025,182.20637868125,55.0,72.0
848,182.690929025,182.86087276875,55.0,81.0
849,182.522389775,182.91143454375,51.0,79.0
850,182.35385052499998,183.04907493125,46.0,52.0
851,182.185311275,183.11649063125,39.0,72.0
852,183.028007525,183.17267038125,51.0,86.0
853,183.196546775,183.43390621875,58.0,77.0
854,182.85946827499998,183.45918710625,63.0,95.0
855,183.36508602499998,183.49008596875,55.0,77.0
856,183.870703775,184.2105912625,53.0,81.0
857,184.039243025,184.27379348125,56.0,59.0
858,183.533625275,184.5532877375,41.0,66.0
859,183.702164525,184.578568625,48.0,58.0
860,184.207782275,184.6993550875,65.0,55.0
861,184.376321525,184.70356856875,53.0,77.0
862,184.544860775,184.7667707875,56.0,73.0
863,184.713400025,184.836995475,60.0,65.0
864,185.387557025,185.55328728749998,62.0,82.0
865,185.219017775,185.567332225,58.0,96.0
866,185.556096275,185.88615230624998,65.0,72.0
867,185.050478525,186.03783763125,53.0,62.0
868,185.724635525,186.04345560625,58.0,95.0
869,185.893174775,186.219017325,70.0,90.0
870,184.881939275,186.22323080625,46.0,55.0
871,186.061714025,186.241489225,62.0,67.0
872,186.56733177499999,186.92828666875,55.0,72.0
873,186.735871025,187.02098325625,58.0,63.0
874,187.07294952499998,187.23165731875,55.0,63.0
875,186.230253275,187.4016010625,43.0,79.0
876,187.241488775,187.48165720625,62.0,57.0
877,186.398792525,187.56030885625,50.0,64.0
878,187.410028025,187.59401670625,58.0,99.0
879,186.904410275,187.6319380375,67.0,69.0
880,187.915645775,188.30188155625,55.0,88.0
881,188.08418502499998,188.34963434374998,58.0,79.0
882,188.421263525,188.52238707499998,55.0,79.0
883,187.747106525,188.55047695,50.0,57.0
884,187.57856727499998,188.578566825,43.0,72.0
885,188.589802775,188.803285825,62.0,50.0
886,188.252724275,188.9409262125,67.0,72.0
887,188.758342025,188.95497115,58.0,83.0
888,189.432499025,189.63334163125,55.0,72.0
889,189.263959775,189.6712629625,48.0,75.0
890,189.601038275,189.82716176875,60.0,66.0
891,189.769577525,190.061712225,48.0,82.0
892,188.926881275,190.12772343125,36.0,67.0
893,189.095420525,190.2471054,43.0,55.0
894,189.938116775,190.29064470625,55.0,70.0
895,190.106656025,190.3229480625,63.0,88.0
896,190.612273775,191.0027230375,48.0,75.0
897,190.780813025,191.02098145624998,55.0,63.0
898,190.275195275,191.19232969375,36.0,72.0
899,190.443734525,191.21620608749998,43.0,63.0
900,191.117891525,191.38895881874998,48.0,81.0
901,191.28643077499999,191.56030705625,60.0,70.0
902,190.949352275,191.56592503125,63.0,93.0
903,191.454970025,191.5813744625,55.0,76.0
904,192.129127025,192.27659886875,60.0,77.0
905,191.960587775,192.3145202,53.0,72.0
906,191.79204852499998,192.4690145125,48.0,61.0
907,191.623509275,192.49850888125,41.0,71.0
908,192.466205525,192.64457623125,53.0,69.0
909,192.29766627499998,192.8622727625,68.0,90.0
910,192.634744775,192.87491320625,65.0,77.0
911,192.80328402499998,192.9409244125,60.0,83.0
912,193.477441025,193.65300274375,62.0,72.0
913,193.308901775,193.69513755625,58.0,78.0
914,193.140362525,193.85805883125,53.0,59.0
915,193.814519525,193.89457566875,58.0,90.0
916,192.971823275,193.90300263125,46.0,76.0
917,193.983058775,194.22322720625,65.0,67.0
918,193.645980275,194.23586765,70.0,96.0
919,194.151598025,194.29906986875,62.0,70.0
920,194.657215775,195.005530225,51.0,63.0
921,194.825755025,195.11648523124998,55.0,57.0
922,194.488676525,195.52097943125,46.0,42.0
923,194.320137275,195.6038445625,39.0,76.0
924,195.331372775,195.7162040625,58.0,89.0
925,194.994294275,195.79064223125,63.0,99.0
926,195.499912025,195.93951856875,55.0,79.0
927,196.00552977499999,196.16423756875,55.0,57.0
928,196.00552977499999,196.25693415625,58.0,93.0
929,196.00552977499999,196.2611476375,63.0,78.0
930,195.162833525,196.34682175625,51.0,83.0
931,196.174069025,196.82154064374998,46.0,28.0
932,196.51114752499998,196.9437316,51.0,68.0
933,195.668451275,196.98727090625,39.0,88.0
934,196.342608275,197.01255179375,58.0,97.0
935,196.679686775,197.0195742625,55.0,78.0
936,196.342608275,197.0308102125,63.0,85.0
937,197.52238302499998,197.780809875,55.0,66.0
938,197.859461525,198.05328166249998,58.0,71.0
939,197.690922275,198.1824950875,63.0,112.0
940,197.185304525,198.24850629374998,46.0,36.0
941,197.01676527499998,198.26816920625,39.0,97.0
942,198.028000775,198.3341804125,55.0,76.0
943,197.353843775,198.34401186875,51.0,88.0
944,198.196540025,198.41142756874999,58.0,85.0
945,198.702157775,199.06030368125,51.0,93.0
946,198.870697025,199.12491039374999,55.0,75.0
947,198.533618525,199.29766312499999,46.0,47.0
948,199.207775525,199.33698895,51.0,88.0
949,198.365079275,199.4015956625,39.0,86.0
950,199.039236275,199.56170795,63.0,99.0
951,199.376314775,199.57434839375,58.0,88.0
952,199.544854025,199.81592131875,55.0,73.0
953,200.050471775,200.449348,48.0,86.0
954,200.219011025,200.5027187625,55.0,70.0
955,199.881932525,200.63614566875,43.0,77.0
956,199.713393275,200.6515951,36.0,76.0
957,200.556089525,200.7667635875,48.0,66.0
958,200.387550275,200.78221301874999,63.0,96.0
959,200.72462877499999,201.02097695625,60.0,93.0
960,200.893168025,201.0251904375,55.0,74.0
961,201.398785775,201.75833617499998,55.0,93.0
962,201.567325025,201.82715636875,58.0,77.0
963,201.23024652499998,201.95636979374999,50.0,60.0
964,201.061707275,201.96760574375,43.0,79.0
965,201.904403525,201.9802461875,55.0,77.0
966,201.73586427499998,202.15018993125,67.0,58.0
967,202.072942775,202.2330550625,62.0,52.0
968,202.24148202499998,202.4240662125,58.0,90.0
969,202.747099775,203.10524568124998,51.0,89.0
970,202.915639025,203.1824928375,55.0,73.0
971,202.410021275,203.65861621874998,39.0,81.0
972,203.084178275,203.67827913125,63.0,90.0
973,202.578560525,203.69513305625,46.0,34.0
974,203.421256775,203.69794204375,58.0,66.0
975,203.252717525,203.73726786875,51.0,72.0
976,203.589796025,203.77940268125,55.0,72.0
977,204.263953025,204.43389676875,55.0,81.0
978,204.095413775,204.48445854375,51.0,79.0
979,203.926874525,204.62209893125,46.0,52.0
980,203.758335275,204.68951463125,39.0,72.0
981,204.601031525,204.74569438125,51.0,86.0
982,204.769570775,205.00693021875,58.0,77.0
983,204.432492275,205.03221110625,63.0,95.0
984,204.938110025,205.06310996874998,55.0,77.0
985,205.44372777499999,205.7836152625,53.0,81.0
986,205.612267025,205.84681748124999,56.0,59.0
987,205.106649275,206.1263117375,41.0,66.0
988,205.275188525,206.151592625,48.0,58.0
989,205.780806275,206.27237908749998,65.0,55.0
990,205.94934552499998,206.27659256875,53.0,77.0
991,206.117884775,206.33979478749998,56.0,73.0
992,206.286424025,206.41001947499998,60.0,65.0
993,206.96058102499998,207.1263112875,62.0,82.0
994,206.792041775,207.140356225,58.0,96.0
995,207.129120275,207.45917630625,65.0,72.0
996,206.623502525,207.61086163125,53.0,62.0
997,207.297659525,207.61647960624998,58.0,95.0
998,207.466198775,207.79204132499999,70.0,90.0
999,206.45496327499998,207.79625480625,46.0,55.0
1000,207.634738025,207.81451322499998,62.0,67.0
1001,208.140355775,208.50131066875,55.0,72.0
1002,208.308895025,208.59400725625,58.0,63.0
1003,208.645973525,208.80468131875,55.0,63.0
1004,207.803277275,208.9746250625,43.0,79.0
1005,208.814512775,209.05468120625,62.0,57.0
1006,207.971816525,209.13333285625,50.0,64.0
1007,208.983052025,209.16704070625,58.0,99.0
1008,208.477434275,209.2049620375,67.0,69.0
1009,209.488669775,209.87490555624998,55.0,88.0
1010,209.657209025,209.92265834375,58.0,79.0
1011,209.994287525,210.095411075,55.0,79.0
1012,209.320130525,210.12350095,50.0,57.0
1013,209.151591275,210.151590825,43.0,72.0
1014,210.16282677499998,210.376309825,62.0,50.0
1015,209.825748275,210.5139502125,67.0,72.0
1016,210.331366025,210.52799515,58.0,83.0
1017,211.005523025,211.20636563125,55.0,72.0
1018,210.836983775,211.24428696249998,48.0,75.0
1019,211.17406227499998,211.40018576875,60.0,66.0
1020,211.342601525,211.63473622499998,48.0,82.0
1021,210.499905275,211.70074743125,36.0,67.0
1022,210.66844452499998,211.82012939999998,43.0,55.0
1023,211.511140775,211.86366870625,55.0,70.0
1024,211.67968002499998,211.8959720625,63.0,88.0
1025,212.185297775,212.5757470375,48.0,75.0
1026,212.353837025,212.59400545625,55.0,63.0
1027,211.848219275,212.76535369375,36.0,72.0
1028,212.016758525,212.7892300875,43.0,63.0
1029,212.690915525,212.96198281875,48.0,81.0
1030,212.859454775,213.13333105625,60.0,70.0
1031,212.522376275,213.13894903125,63.0,93.0
1032,213.027994025,213.15439846249998,55.0,76.0
1033,213.702151025,213.86928578125,60.0,40.0
1034,213.533611775,213.92827451875,53.0,83.0
1035,214.039229525,214.2920384,53.0,78.0
1036,213.196533275,214.47040910625,41.0,66.0
1037,214.207768775,214.4914765125,65.0,77.0
1038,213.870690275,214.5251843625,68.0,93.0
1039,213.365072525,214.567319175,48.0,56.0
1040,214.376308025,214.5926000625,60.0,72.0
1041,215.050465025,215.286419975,60.0,74.0
1042,214.88192577499998,215.29906041875,53.0,82.0
1043,214.544847275,215.4914760625,41.0,69.0
1044,214.713386525,215.49849853125,48.0,67.0
1045,215.38754352499998,215.578554675,53.0,90.0
1046,215.219004275,215.724622025,68.0,99.0
1047,215.556082775,215.769565825,65.0,85.0
1048,215.724622025,215.88052083124998,60.0,77.0
1049,216.39877902499998,216.56310479375,62.0,86.0
1050,216.230239775,216.57434074374999,58.0,83.0
1051,216.567318275,216.89456531874998,65.0,79.0
1052,215.89316127499998,217.106643875,46.0,90.0
1053,216.061700525,217.18248653749998,53.0,54.0
1054,216.735857525,217.3285538875,58.0,93.0
1055,216.904396775,217.41141901875,62.0,66.0
1056,217.072936025,217.6628234,70.0,102.0
1057,217.578553775,217.94231765625,58.0,97.0
1058,217.747093025,217.9999019,62.0,85.0
1059,217.410014525,218.47040730625,53.0,63.0
1060,218.084171525,218.47602528125,58.0,99.0
1061,217.241475275,218.51816009375,46.0,83.0
1062,218.252710775,218.5701263625,65.0,88.0
1063,217.915632275,218.6066432,70.0,107.0
1064,218.421250025,218.61085668125,62.0,89.0
1065,219.095407025,219.353833875,55.0,66.0
1066,219.432485525,219.6263056625,58.0,71.0
1067,219.263946275,219.7555190875,63.0,112.0
1068,218.758328525,219.82153029375,46.0,36.0
1069,218.589789275,219.84119320624998,39.0,97.0
1070,219.60102477499998,219.9072044125,55.0,76.0
1071,218.926867775,219.91703586875,51.0,88.0
1072,219.769564025,219.98445156875,58.0,85.0
1073,220.275181775,220.63332768125,51.0,93.0
1074,220.443721025,220.69793439375,55.0,75.0
1075,220.10664252499998,220.870687125,46.0,47.0
1076,220.780799525,220.91001295,51.0,88.0
1077,219.938103275,220.9746196625,39.0,86.0
1078,220.61226027499998,221.13473195,63.0,99.0
1079,220.949338775,221.14737239375,58.0,88.0
1080,221.11787802499998,221.38894531875,55.0,73.0
1081,221.623495775,222.022372,48.0,86.0
1082,221.792035025,222.0757427625,55.0,70.0
1083,221.454956525,222.20916966875,43.0,77.0
1084,221.286417275,222.22461909999998,36.0,76.0
1085,222.129113525,222.33978758749998,48.0,66.0
1086,221.960574275,222.35523701875,63.0,96.0
1087,222.297652775,222.59400095625,60.0,93.0
1088,222.466192025,222.5982144375,55.0,74.0
1089,222.971809775,223.331360175,55.0,93.0
1090,223.140349025,223.40018036875,58.0,77.0
1091,222.803270525,223.52939379375,50.0,60.0
1092,222.634731275,223.54062974375,43.0,79.0
1093,223.477427525,223.5532701875,55.0,77.0
1094,223.308888275,223.72321393125,67.0,58.0
1095,223.645966775,223.8060790625,62.0,52.0
1096,223.814506025,223.99709021249998,58.0,90.0
1097,224.32012377499998,224.67826968125,51.0,89.0
1098,224.488663025,224.75551683749998,55.0,73.0
1099,223.983045275,225.23164021875,39.0,81.0
1100,224.657202275,225.25130313124998,63.0,90.0
1101,224.151584525,225.26815705625,46.0,34.0
1102,224.994280775,225.27096604375,58.0,66.0
1103,224.82574152499998,225.31029186875,51.0,72.0
1104,225.162820025,225.35242668125,55.0,72.0
1105,225.83697702499998,226.00692076875,55.0,81.0
1106,225.668437775,226.05748254374998,51.0,79.0
1107,225.499898525,226.19512293124998,46.0,52.0
1108,225.33135927499998,226.26253863124998,39.0,72.0
1109,226.174055525,226.31871838125,51.0,86.0
1110,226.342594775,226.57995421875,58.0,77.0
1111,226.005516275,226.60523510625,63.0,95.0
1112,226.511134025,226.63613396875,55.0,77.0
1113,227.016751775,227.35663926249998,53.0,81.0
1114,227.185291025,227.41984148125,56.0,59.0
1115,226.679673275,227.6993357375,41.0,66.0
1116,226.848212525,227.72461662499998,48.0,58.0
1117,227.353830275,227.8454030875,65.0,55.0
1118,227.522369525,227.84961656875,53.0,77.0
1119,227.690908775,227.9128187875,56.0,73.0
1120,227.859448025,227.983043475,60.0,65.0
1121,228.53360502499999,228.6993352875,62.0,82.0
1122,228.365065775,228.713380225,58.0,96.0
1123,228.702144275,229.03220030625,65.0,72.0
1124,228.196526525,229.18388563125,53.0,62.0
1125,228.870683525,229.18950360624999,58.0,95.0
1126,229.03922277499998,229.365065325,70.0,90.0
1127,228.027987275,229.36927880625,46.0,55.0
1128,229.207762025,229.387537225,62.0,67.0
1129,229.713379775,230.07433466875,55.0,72.0
1130,229.881919025,230.16703125625,58.0,63.0
1131,230.218997525,230.37770531875,55.0,63.0
1132,229.376301275,230.5476490625,43.0,79.0
1133,230.387536775,230.62770520625,62.0,57.0
1134,229.54484052499998,230.70635685624998,50.0,64.0
1135,230.55607602499998,230.74006470625,58.0,99.0
1136,230.05045827499998,230.7779860375,67.0,69.0
1137,231.061693775,231.44792955625,55.0,88.0
1138,231.230233025,231.49568234375,58.0,79.0
1139,231.567311525,231.668435075,55.0,79.0
1140,230.893154525,231.69652495,50.0,57.0
1141,230.724615275,231.724614825,43.0,72.0
1142,231.735850775,231.949333825,62.0,50.0
1143,231.398772275,232.0869742125,67.0,72.0
1144,231.904390025,232.10101914999998,58.0,83.0
1145,232.578547025,232.77938963124998,55.0,72.0
1146,232.410007775,232.8173109625,48.0,75.0
1147,232.747086275,232.97320976875,60.0,66.0
1148,232.915625525,233.207760225,48.0,82.0
1149,232.072929275,233.27377143125,36.0,67.0
1150,232.241468525,233.3931534,43.0,55.0
1151,233.084164775,233.43669270625,55.0,70.0
1152,233.25270402499999,233.4689960625,63.0,88.0
1153,233.75832177499998,234.14877103749998,48.0,75.0
1154,233.926861025,234.16702945625,55.0,63.0
1155,233.421243275,234.33837769375,36.0,72.0
1156,233.589782525,234.3622540875,43.0,63.0
1157,234.26393952499998,234.53500681875,48.0,81.0
1158,234.432478775,234.70635505625,60.0,70.0
1159,234.095400275,234.71197303124998,63.0,93.0
1160,234.601018025,234.7274224625,55.0,76.0
1161,235.27517502499998,235.42264686875,60.0,77.0
1162,235.106635775,235.46056819999998,53.0,72.0
1163,234.938096525,235.6150625125,48.0,61.0
1164,234.76955727499998,235.64455688125,41.0,71.0
1165,235.612253525,235.79062423125,53.0,69.0
1166,235.443714275,236.0083207625,68.0,90.0
1167,235.780792775,236.02096120625,65.0,77.0
1168,235.949332025,236.0869724125,60.0,83.0
1169,236.623489025,236.79905074375,62.0,72.0
1170,236.454949775,236.84118555625,58.0,78.0
1171,236.286410525,237.00410683125,53.0,59.0
1172,236.960567525,237.04062366875,58.0,90.0
1173,236.117871275,237.04905063125,46.0,76.0
1174,237.129106775,237.36927520625,65.0,67.0
1175,236.792028275,237.38191565,70.0,96.0
1176,237.297646025,237.44511786875,62.0,70.0
1177,237.803263775,238.151578225,51.0,63.0
1178,237.97180302499999,238.26253323125,55.0,57.0
1179,237.634724525,238.66702743125,46.0,42.0
1180,237.466185275,238.7498925625,39.0,76.0
1181,238.47742077499998,238.8622520625,58.0,89.0
1182,238.140342275,238.93669023125,63.0,99.0
1183,238.645960025,239.08556656874998,55.0,79.0
1184,239.151577775,239.31028556875,55.0,57.0
1185,239.151577775,239.40298215625,58.0,93.0
1186,239.151577775,239.4071956375,63.0,78.0
1187,238.308881525,239.49286975625,51.0,83.0
1188,239.320117025,239.96758864375,46.0,28.0
1189,239.657195525,240.08977959999999,51.0,68.0
1190,238.814499275,240.13331890625,39.0,88.0
1191,239.48865627499998,240.15859979375,58.0,97.0
1192,239.825734775,240.1656222625,55.0,78.0
1193,240.162813275,240.1656222625,55.0,76.0
1194,239.48865627499998,240.1768582125,63.0,85.0
1195,240.162813275,241.92826191875,50.0,53.0
1196,240.162813275,242.1206775625,43.0,38.0
1197,240.162813275,242.151576425,67.0,68.0
1198,240.162813275,242.16421686875,70.0,66.0
1199,240.162813275,242.2667449125,62.0,70.0
1200,242.859441275,244.544833775,36.0,44.0
1201,242.859441275,244.78781119375,48.0,38.0
1202,242.859441275,244.7892156875,67.0,63.0
1203,242.859441275,244.79904714375,60.0,60.0
1204,242.859441275,244.82011455,63.0,65.0
1205,245.556069275,246.3004509625,41.0,55.0
1206,245.556069275,246.342585775,65.0,67.0
1207,245.556069275,246.34960824375,68.0,69.0
1208,245.556069275,246.37067564999998,60.0,66.0
1209,246.904383275,250.86505565,62.0,46.0
1210,246.904383275,250.881909575,58.0,55.0
1211,246.904383275,250.89735900624999,65.0,56.0
1212,246.904383275,250.949325275,46.0,61.0
1213,251.286403775,251.769549625,51.0,59.0
1214,250.949325275,251.81870690625,39.0,66.0
1215,251.960560775,252.09398768124998,39.0,72.0
1216,251.623482275,252.56027960625,63.0,62.0
1217,251.623482275,252.65297619375,67.0,53.0
1218,251.623482275,252.6740436,58.0,60.0
1219,251.623482275,252.74005480625,70.0,55.0
1220,252.297639275,253.02938051875,39.0,72.0
1221,252.63471777499998,253.11224565,51.0,76.0
1222,253.308874775,253.62769485625,58.0,42.0
1223,252.971796275,253.64595327499998,63.0,72.0
1224,252.971796275,253.64595327499998,67.0,58.0
1225,253.64595327499998,254.47741357499999,48.0,77.0
1226,253.983031775,254.49707648749998,55.0,48.0
1227,254.65718877499998,254.87207631875,48.0,82.0
1228,254.320110275,254.96477290625,67.0,73.0
1229,254.320110275,254.98443581875,63.0,78.0
1230,255.331345775,255.8903342875,50.0,53.0
1231,254.994267275,255.90437922499999,43.0,65.0
1232,255.668424275,256.24848019374997,58.0,62.0
1233,255.668424275,256.25690715625,62.0,59.0
1234,256.00550277499997,256.30325545,55.0,53.0
1235,256.342581275,257.13190676249997,41.0,70.0
1236,256.679659775,257.20353594375,48.0,37.0
1237,257.353816775,257.54342343125,41.0,53.0
1238,257.01673827499997,258.05185016875,68.0,82.0
1239,257.01673827499997,258.06027713125,65.0,76.0
1240,257.690895275,258.68949033125,41.0,77.0
1241,258.365052275,258.70774875,53.0,66.0
1242,258.027973775,258.713366725,48.0,47.0
1243,258.702130775,259.039209275,60.0,43.0
1244,258.702130775,259.039209275,65.0,69.0
1245,258.702130775,259.039209275,68.0,62.0
1246,259.039209275,260.17263573125,46.0,89.0
1247,259.376287775,260.19651212499997,53.0,55.0
1248,259.713366275,260.2330289625,58.0,78.0
1249,260.050444775,260.84398374375,62.0,59.0
1250,260.050444775,260.88752304999997,70.0,53.0
1251,260.050444775,260.88892754375,65.0,57.0
1252,260.387523275,261.53920815,46.0,71.0
1253,261.398758775,261.61926429375,62.0,58.0
1254,261.061680275,261.6206687875,65.0,58.0
1255,260.724601775,261.62909575,58.0,77.0
1256,261.061680275,261.64173619375,70.0,72.0
1257,261.735837275,263.185274825,55.0,55.0
1258,261.735837275,263.19791526874997,67.0,56.0
1259,261.735837275,263.24005008125,62.0,67.0
1260,261.735837275,263.27937590625,50.0,52.0
1261,261.735837275,263.31870173125,58.0,72.0
1262,261.735837275,263.3341511625,43.0,55.0
1263,264.43246527499997,265.92965561249997,48.0,50.0
1264,264.43246527499997,265.96195896874997,55.0,60.0
1265,264.43246527499997,266.00128479375,36.0,40.0
1266,264.43246527499997,266.01111625,60.0,63.0
1267,264.43246527499997,266.01252074375,43.0,49.0
1268,264.43246527499997,266.0701049875,63.0,56.0
1269,267.129093275,268.06308161875,41.0,56.0
1270,267.466171775,268.0701040875,48.0,40.0
1271,267.803250275,268.29341859375,53.0,83.0
1272,268.140328775,268.477407275,60.0,58.0
1273,268.140328775,268.477407275,65.0,63.0
1274,268.466171325,268.477407275,65.0,72.0
1275,268.140328775,268.477407275,68.0,58.0
1276,268.477407275,270.23442895625,58.0,63.0
1277,268.46195784375,270.39735023125,46.0,75.0
1278,268.45914885625,270.4352715625,70.0,74.0
1279,268.4689803125,270.43667605625,74.0,68.0
1280,272.21476514375,272.9886412,67.0,40.0
1281,271.81027094374997,273.00689961874997,63.0,49.0
1282,272.54341668125,273.01251759375,70.0,66.0
1283,272.86645024374997,273.06307936875,75.0,66.0
1284,273.36645001875,275.0701009375,79.0,37.0
1285,274.19229234375,275.0757189125,87.0,47.0
1286,271.5026868125,275.07993239374997,51.0,56.0
1287,273.7330228875,275.08274138125,82.0,54.0
1288,273.82431498125,275.08976385,75.0,24.0
1289,271.129091475,275.13049416875,39.0,76.0
