,start,end,pitch,velocity
0,19.532993475,19.778276175,64.0,82.0
1,19.816011975,20.0259173625,73.0,93.0
2,20.099030475,20.2829925,71.0,76.0
3,20.382048975,20.85846345,73.0,97.0
4,20.948085975,21.3230854875,71.0,83.0
5,21.514122975,21.8301603,69.0,82.0
6,21.797141475,23.306573475,64.0,73.0
7,24.061289475,24.268836375,64.0,69.0
8,24.344307975,24.5777982375,66.0,77.0
9,24.627326475,24.7924206,69.0,63.0
10,24.910344975,25.1108164125,71.0,89.0
11,25.3183633125,25.51883475,73.0,102.0
12,25.759400475,26.117890575,66.0,82.0
13,26.325437475,28.0966615875,69.0,75.0
14,28.589585475,28.679208,66.0,71.0
15,28.872603975,29.0730754125,74.0,95.0
16,29.155622475,29.268829875,73.0,99.0
17,29.438640975,29.8183574625,74.0,97.0
18,30.004677975,30.18864,69.0,88.0
19,30.287696475,30.7759033875,69.0,93.0
20,30.853733475,32.155618575,66.0,92.0
21,33.117881475,33.38674905,64.0,77.0
22,33.400899975,33.6343902375,66.0,78.0
23,33.683918475,33.9268426875,64.0,78.0
24,33.966936975,34.3230685875,73.0,95.0
25,34.532973975,35.0447657625,76.0,71.0
26,35.099010975,35.466935025,69.0,82.0
27,35.382029475,37.1485366125,71.0,71.0
28,37.646177475,37.891460175,64.0,82.0
29,37.929195975,38.1391013625,73.0,93.0
30,38.212214475,38.3961765,71.0,76.0
31,38.495232975,38.97164745,73.0,97.0
32,39.061269975,39.4362694875,71.0,83.0
33,39.627306975,39.9433443,69.0,82.0
34,39.910325475,40.9999467,64.0,73.0
35,41.325417975,41.4692857125,64.0,83.0
36,41.608436475,41.7735306,64.0,86.0
37,41.891454975,42.183907425,73.0,112.0
38,42.174473475,42.2947563375,76.0,90.0
39,42.457491974999996,42.599001225,76.0,92.0
40,42.740510475,42.9032461125,73.0,96.0
41,43.023528975,43.4173963875,78.0,127.0
42,43.589565975,43.712207325,76.0,100.0
43,43.872584475,44.3584329,73.0,112.0
44,44.5211685375,44.6296589625,71.0,85.0
45,44.8041870375,45.1013564625,71.0,90.0
46,45.287676975,45.70748775,69.0,70.0
47,45.853713975,46.0589023875,69.0,95.0
48,46.136732475,46.268807775,66.0,92.0
49,46.419750975,46.6296563625,71.0,99.0
50,46.702769475,46.9079578875,71.0,112.0
51,47.268806475,47.44333455,69.0,78.0
52,47.551824975,47.8112586,71.0,89.0
53,47.834843475,48.0754092,71.0,88.0
54,48.117861975,48.2239939125,71.0,82.0
55,48.400880475,48.6579556125,73.0,90.0
56,48.683898975,49.032955125,71.0,77.0
57,49.249935975,49.872576675,66.0,79.0
58,50.665028475,50.9598394125,64.0,85.0
59,50.948046975,51.2664427875,78.0,122.0
60,51.231065475,51.5683291875,76.0,96.0
61,51.797102475,51.9834229875,76.0,100.0
62,52.080120975,52.410309225,76.0,117.0
63,52.363139475,52.410309225,76.0,100.0
64,52.929176475,53.0447423625,73.0,100.0
65,53.212194975,53.8466281125,78.0,122.0
66,54.061250475,54.5305894875,76.0,102.0
67,54.627287475,54.806532525,69.0,93.0
68,54.910305975,55.06596615,71.0,100.0
69,55.193324475,55.3466261625,73.0,112.0
70,55.476342975,56.6060584875,76.0,127.0
71,56.608416975,57.0164353125,73.0,127.0
72,57.174453975,57.3890763375,71.0,83.0
73,57.457472475,58.7192632875,73.0,107.0
74,59.155583475,59.287658775,73.0,99.0
75,59.438601975,59.5659603,76.0,96.0
76,59.721620475,59.8301109,73.0,100.0
77,60.004638975,60.2192613375,78.0,122.0
78,60.287657475,60.4032233625,76.0,96.0
79,60.570675975,60.68860035,76.0,93.0
80,60.853694475,60.9739773375,76.0,93.0
81,61.136712975,61.610768962499996,73.0,117.0
82,61.702749975,62.014070325,71.0,93.0
83,61.985768475,62.3796358875,73.0,82.0
84,62.551805475,63.4786910625,69.0,82.0
85,63.683879475,63.863124524999996,66.0,90.0
86,63.966897975,64.1720863875,69.0,79.0
87,64.249916475,64.4975576625,66.0,95.0
88,64.532934975,65.032934325,73.0,96.0
89,65.098971975,65.6791599,71.0,89.0
90,65.948027475,66.0918952125,69.0,85.0
91,66.231045975,66.3772722,71.0,89.0
92,66.514064475,66.806516925,69.0,81.0
93,66.797082975,67.2805729125,73.0,100.0
94,67.363119975,68.0211379875,76.0,89.0
95,68.778212475,69.0352876125,76.0,86.0
96,69.061230975,69.1956647625,78.0,89.0
97,69.344249475,69.4692493125,78.0,99.0
98,69.627267975,69.8041545375,78.0,99.0
99,69.910286475,70.2381162375,76.0,76.0
100,70.193304975,70.51877625,78.0,117.0
101,70.759341975,70.891417275,76.0,96.0
102,71.042360475,71.4267939375,73.0,99.0
103,71.608397475,72.4645284375,71.0,97.0
104,72.740471475,72.919716525,69.0,93.0
105,73.023489975,73.17915015,71.0,100.0
106,73.306508475,73.4598101625,73.0,112.0
107,73.589526975,74.7192424875,76.0,127.0
108,74.721600975,75.1296193125,73.0,127.0
109,75.287637975,75.5022603375,71.0,83.0
110,75.57065647499999,76.8324472875,73.0,107.0
111,77.268767475,77.400842775,73.0,99.0
112,77.551785975,77.6791443,76.0,96.0
113,77.834804475,77.9432949,73.0,100.0
114,78.117822975,78.3324453375,78.0,122.0
115,78.400841475,78.5164073625,76.0,96.0
116,78.683859975,78.80178435,76.0,93.0
117,78.966878475,79.0871613375,76.0,93.0
118,79.249896975,79.7239529625,73.0,117.0
119,79.815933975,80.127254325,71.0,93.0
120,80.098952475,80.4928198875,73.0,82.0
121,80.664989475,81.5918750625,69.0,82.0
122,81.797063475,81.976308525,66.0,90.0
123,82.080081975,82.2852703875,69.0,79.0
124,82.363100475,82.6107416625,66.0,95.0
125,82.646118975,83.146118325,73.0,96.0
126,83.212155975,83.7923439,71.0,89.0
127,84.061211475,84.2050792125,69.0,85.0
128,84.344229975,84.4904562,71.0,89.0
129,84.627248475,84.919700925,69.0,81.0
130,84.910266975,85.3937569125,73.0,100.0
131,85.476303975,86.1343219875,76.0,89.0
132,86.891396475,87.1484716125,76.0,86.0
133,87.174414975,87.3088487625,78.0,89.0
134,87.457433475,87.5824333125,78.0,99.0
135,87.740451975,87.9173385375,78.0,99.0
136,88.023470475,88.3513002375,76.0,76.0
137,88.306488975,88.63196025,78.0,117.0
138,88.872525975,89.004601275,76.0,96.0
139,89.155544475,89.5399779375,73.0,99.0
140,89.721581475,90.5777124375,71.0,97.0
141,90.570636975,91.0541269125,66.0,89.0
142,91.136673975,91.4786546625,69.0,85.0
143,91.702710975,92.48101185,71.0,96.0
144,92.551766475,94.344216975,69.0,81.0
145,114.627209475,114.872492175,64.0,82.0
146,114.910227975,115.1201333625,73.0,93.0
147,115.193246475,115.3772085,71.0,76.0
148,115.476264975,115.95267945,73.0,97.0
149,116.042301975,116.4173014875,71.0,83.0
150,116.608338975,116.9243763,69.0,82.0
151,116.891357475,117.9809787,64.0,73.0
152,118.306449975,118.4503177125,64.0,83.0
153,118.589468475,118.7545626,64.0,86.0
154,118.872486975,119.164939425,73.0,112.0
155,119.155505475,119.2757883375,76.0,90.0
156,119.438523975,119.580033225,76.0,92.0
157,119.72154247499999,119.8842781125,73.0,96.0
158,120.004560975,120.3984283875,78.0,127.0
159,120.570597975,120.693239325,76.0,100.0
160,120.853616475,121.3394649,73.0,112.0
161,121.5022005375,121.6106909625,71.0,85.0
162,121.7852190375,122.0823884625,71.0,90.0
163,122.268708975,122.68851975,69.0,70.0
164,122.834745975,123.0399343875,69.0,95.0
165,123.117764475,123.249839775,66.0,92.0
166,123.400782975,123.6106883625,71.0,99.0
167,123.683801475,123.8889898875,71.0,112.0
168,124.249838475,124.42436655,69.0,78.0
169,124.532856975,124.7922906,71.0,89.0
170,124.815875475,125.0564412,71.0,88.0
171,125.098893975,125.2050259125,71.0,82.0
172,125.381912475,125.6389876125,73.0,90.0
173,125.664930975,126.013987125,71.0,77.0
174,126.230967975,126.853608675,66.0,79.0
175,127.646060475,127.9408714125,64.0,85.0
176,127.929078975,128.2474747875,78.0,122.0
177,128.212097475,128.5493611875,76.0,96.0
178,128.778134475,128.9644549875,76.0,100.0
179,129.061152975,129.391341225,76.0,117.0
180,129.344171475,129.391341225,76.0,100.0
181,129.910208475,130.0257743625,73.0,100.0
182,130.193226975,130.8276601125,78.0,122.0
183,131.042282475,131.5116214875,76.0,102.0
184,131.608319475,131.787564525,69.0,93.0
185,131.891337975,132.04699815,71.0,100.0
186,132.174356475,132.3276581625,73.0,112.0
187,132.457374975,133.5870904875,76.0,127.0
188,133.589448975,133.9974673125,73.0,127.0
189,134.155485975,134.3701083375,71.0,83.0
190,134.438504475,135.7002952875,73.0,107.0
191,136.136615475,136.268690775,73.0,99.0
192,136.419633975,136.5469923,76.0,96.0
193,136.702652475,136.8111429,73.0,100.0
194,136.985670975,137.2002933375,78.0,122.0
195,137.268689475,137.3842553625,76.0,96.0
196,137.551707975,137.66963235,76.0,93.0
197,137.834726475,137.9550093375,76.0,93.0
198,138.117744975,138.5918009625,73.0,117.0
199,138.683781975,138.995102325,71.0,93.0
200,138.966800475,139.3606678875,73.0,82.0
201,139.532837475,140.4597230625,69.0,82.0
202,140.664911475,140.844156525,66.0,90.0
203,140.947929975,141.1531183875,69.0,79.0
204,141.230948475,141.4785896625,66.0,95.0
205,141.513966975,142.013966325,73.0,96.0
206,142.080003975,142.6601919,71.0,89.0
207,142.929059475,143.0729272125,69.0,85.0
208,143.212077975,143.3583042,71.0,89.0
209,143.495096475,143.787548925,69.0,81.0
210,143.778114975,144.2616049125,73.0,100.0
211,144.344151975,145.0021699875,76.0,89.0
212,145.759244475,146.0163196125,76.0,86.0
213,146.042262975,146.1766967625,78.0,89.0
214,146.325281475,146.4502813125,78.0,99.0
215,146.608299975,146.7851865375,78.0,99.0
216,146.891318475,147.2191482375,76.0,76.0
217,147.174336975,147.49980825,78.0,117.0
218,147.740373975,147.872449275,76.0,96.0
219,148.023392475,148.4078259375,73.0,99.0
220,148.589429475,149.4455604375,71.0,97.0
221,149.721503475,149.900748525,69.0,93.0
222,150.004521975,150.16018215,71.0,100.0
223,150.287540475,150.4408421625,73.0,112.0
224,150.570558975,151.7002744875,76.0,127.0
225,151.702632975,152.1106513125,73.0,127.0
226,152.268669975,152.4832923375,71.0,83.0
227,152.551688475,153.8134792875,73.0,107.0
228,154.249799475,154.381874775,73.0,99.0
229,154.532817975,154.6601763,76.0,96.0
230,154.815836475,154.9243269,73.0,100.0
231,155.098854975,155.3134773375,78.0,122.0
232,155.381873475,155.4974393625,76.0,96.0
233,155.664891975,155.78281635,76.0,93.0
234,155.947910475,156.0681933375,76.0,93.0
235,156.230928975,156.7049849625,73.0,117.0
236,156.796965975,157.108286325,71.0,93.0
237,157.079984475,157.4738518875,73.0,82.0
238,157.646021475,158.5729070625,69.0,82.0
239,158.778095475,158.957340525,66.0,90.0
240,159.061113975,159.2663023875,69.0,79.0
241,159.344132475,159.5917736625,66.0,95.0
242,159.627150975,160.127150325,73.0,96.0
243,160.193187975,160.7733759,71.0,89.0
244,161.042243475,161.1861112125,69.0,85.0
245,161.325261975,161.4714882,71.0,89.0
246,161.608280475,161.900732925,69.0,81.0
247,161.891298975,162.3747889125,73.0,100.0
248,162.457335975,163.1153539875,76.0,89.0
249,163.872428475,164.1295036125,76.0,86.0
250,164.155446975,164.2898807625,78.0,89.0
251,164.438465475,164.5634653125,78.0,99.0
252,164.721483975,164.8983705375,78.0,99.0
253,165.004502475,165.3323322375,76.0,76.0
254,165.287520975,165.61299225,78.0,117.0
255,165.853557975,165.985633275,76.0,96.0
256,166.136576475,166.5210099375,73.0,99.0
257,166.702613475,167.5587444375,71.0,97.0
258,167.551668975,168.0351589125,66.0,89.0
259,168.117705975,168.4596866625,69.0,85.0
260,168.683742975,169.46204385,71.0,96.0
261,169.532798475,171.325248975,69.0,81.0
262,172.362983475,172.542228525,69.0,93.0
263,172.646001975,172.80166215,71.0,100.0
264,172.929020475,173.0823221625,73.0,112.0
265,173.212038975,174.3417544875,76.0,127.0
266,174.344112975,174.7521313125,73.0,127.0
267,174.910149975,175.1247723375,71.0,83.0
268,175.193168475,176.4549592875,73.0,107.0
269,176.891279475,177.023354775,73.0,99.0
270,177.174297975,177.3016563,76.0,96.0
271,177.457316475,177.5658069,73.0,100.0
272,177.740334975,177.9549573375,78.0,122.0
273,178.023353475,178.1389193625,76.0,96.0
274,178.306371975,178.42429635,76.0,93.0
275,178.589390475,178.7096733375,76.0,93.0
276,178.872408975,179.3464649625,73.0,117.0
277,179.438445975,179.749766325,71.0,93.0
278,179.721464475,180.1153318875,73.0,82.0
279,180.287501475,181.2143870625,69.0,82.0
280,181.419575475,181.598820525,66.0,90.0
281,181.702593975,181.9077823875,69.0,79.0
282,181.985612475,182.2332536625,66.0,95.0
283,182.268630975,182.768630325,73.0,96.0
284,182.834667975,183.4148559,71.0,89.0
285,183.683723475,183.8275912125,69.0,85.0
286,183.966741975,184.1129682,71.0,89.0
287,184.249760475,184.542212925,69.0,81.0
288,184.532778975,185.0162689125,73.0,100.0
289,185.098815975,185.7568339875,76.0,89.0
290,186.513908475,186.7709836125,76.0,86.0
291,186.796926975,186.9313607625,78.0,89.0
292,187.079945475,187.2049453125,78.0,99.0
293,187.36296397499999,187.5398505375,78.0,99.0
294,187.645982475,187.9738122375,76.0,76.0
295,187.929000975,188.25447225,78.0,117.0
296,188.495037975,188.627113275,76.0,96.0
297,188.778056475,189.1624899375,73.0,99.0
298,189.344093475,190.2002244375,71.0,97.0
299,190.476167475,190.655412525,69.0,93.0
300,190.759185975,190.91484615,71.0,100.0
301,191.042204475,191.1955061625,73.0,112.0
302,191.325222975,192.4549384875,76.0,127.0
303,192.457296975,192.8653153125,73.0,127.0
304,193.02333397499999,193.2379563375,71.0,83.0
305,193.306352475,194.5681432875,73.0,107.0
306,195.004463475,195.136538775,73.0,99.0
307,195.287481975,195.4148403,76.0,96.0
308,195.570500475,195.6789909,73.0,100.0
309,195.853518975,196.0681413375,78.0,122.0
310,196.136537475,196.2521033625,76.0,96.0
311,196.419555975,196.53748035,76.0,93.0
312,196.702574475,196.8228573375,76.0,93.0
313,196.985592975,197.4596489625,73.0,117.0
314,197.551629975,197.86295032499999,71.0,93.0
315,197.834648475,198.2285158875,73.0,82.0
316,198.400685475,199.3275710625,69.0,82.0
317,199.532759475,199.712004525,66.0,90.0
318,199.815777975,200.0209663875,69.0,79.0
319,200.098796475,200.3464376625,66.0,95.0
320,200.381814975,200.881814325,73.0,96.0
321,200.947851975,201.5280399,71.0,89.0
322,201.796907475,201.9407752125,69.0,85.0
323,202.079925975,202.2261522,71.0,89.0
324,202.362944475,202.655396925,69.0,81.0
325,202.645962975,203.1294529125,73.0,100.0
326,203.211999975,203.8700179875,76.0,89.0
327,204.627092475,204.8841676125,76.0,86.0
328,204.910110975,205.0445447625,78.0,89.0
329,205.193129475,205.3181293125,78.0,99.0
330,205.476147975,205.6530345375,78.0,99.0
331,205.759166475,206.0869962375,76.0,76.0
332,206.042184975,206.36765625,78.0,117.0
333,206.608221975,206.740297275,76.0,96.0
334,206.891240475,207.2756739375,73.0,99.0
335,207.457277475,208.3134084375,71.0,97.0
336,208.306332975,208.7898229125,66.0,89.0
337,208.872369975,209.2143506625,69.0,85.0
338,209.438406975,210.21670785,71.0,96.0
339,210.287462475,212.079912975,69.0,81.0
340,213.966702975,218.7190552875,76.0,127.0
