,start,end,pitch,velocity
0,1.136790975,2.976411225,45.0,57.0
1,1.702827975,3.27358065,52.0,37.0
2,3.117920475,3.38678805,57.0,50.0
3,2.268864975,3.4221653625,64.0,90.0
4,2.834901975,3.448108725,61.0,45.0
5,3.400938975,5.033012325,49.0,59.0
6,3.966975975,5.617917225,56.0,38.0
7,4.249994475,5.63206815,64.0,66.0
8,5.099049975,5.66037,61.0,60.0
9,6.231123975,6.8985759375,50.0,48.0
10,6.797160975,6.8985759375,50.0,42.0
11,7.363197975,8.34904575,62.0,22.0
12,7.929234975,8.5023474375,50.0,50.0
13,8.495271975,8.5023474375,50.0,39.0
14,6.514142475,8.8867809,66.0,63.0
15,7.646216475,8.97168645,57.0,63.0
16,5.665086975,9.4905537,38.0,63.0
17,5.948105475,9.5164970625,45.0,35.0
18,9.344327475,9.6768742125,50.0,55.0
19,9.061308975,10.1438547375,66.0,97.0
20,9.627345975,10.1957414625,57.0,81.0
21,9.061308975,10.1957414625,62.0,92.0
22,10.759419975,11.1202685625,57.0,69.0
23,10.476401475,11.457532275,52.0,38.0
24,11.608475475,12.0353617125,52.0,51.0
25,10.193382975,12.0919654125,45.0,73.0
26,11.042438474999999,12.466964925,64.0,89.0
27,11.891493975,12.5023422375,61.0,72.0
28,12.740549475,13.48111455,56.0,44.0
29,12.457530975,14.1344155875,44.0,42.0
30,13.023567975,14.2830003,61.0,67.0
31,14.155641975,14.721678975,56.0,56.0
32,14.438660475,14.721678975,61.0,59.0
33,13.306586475,14.721678975,64.0,72.0
34,15.570734475,15.8466775125,50.0,52.0
35,15.570734475,15.8608284375,57.0,65.0
36,15.570734475,15.8608284375,62.0,72.0
37,15.570734475,15.8844133125,45.0,53.0
38,15.570734475,15.8938472625,66.0,66.0
39,14.721678975,15.9315830625,38.0,65.0
40,16.419789975,17.2853548875,38.0,39.0
41,16.419789975,17.287713375,45.0,38.0
42,16.419789975,17.2947888375,50.0,37.0
43,16.419789975,17.4457320375,66.0,55.0
44,16.419789975,17.8183730625,57.0,58.0
45,16.419789975,17.891486175,62.0,63.0
46,18.117900975,19.221673125,40.0,35.0
47,18.117900975,19.245258,47.0,37.0
48,18.117900975,19.2617674125,52.0,35.0
49,18.117900975,19.278276825,64.0,53.0
50,18.117900975,19.278276825,68.0,44.0
51,18.117900975,19.2806353125,59.0,44.0
52,19.249974975,21.3796891875,45.0,66.0
53,19.816011975,21.4339344,52.0,57.0
54,20.382048975,22.38676335,64.0,74.0
55,20.948085975,22.5683668875,61.0,44.0
56,22.363178475,22.6603479,62.0,73.0
57,21.514122975,23.099026575,45.0,58.0
58,22.080159975,23.1061020375,52.0,49.0
59,22.646196975,23.3584602,64.0,76.0
60,22.646196975,23.3584602,64.0,79.0
61,22.646196975,23.83959165,59.0,82.0
62,23.212233975,23.8796859375,61.0,44.0
63,23.212233975,23.8796859375,61.0,69.0
64,23.778270975,25.948079475,42.0,72.0
65,24.910344975,26.1013811625,64.0,88.0
66,24.344307975,26.1532678875,49.0,35.0
67,24.910344975,27.080153475,61.0,67.0
68,24.910344975,27.63203955,54.0,46.0
69,26.608455975,27.665058375,49.0,34.0
70,26.042418975,27.735813,42.0,53.0
71,25.476381975,27.7900582125,57.0,46.0
72,27.174492975,28.27354815,64.0,66.0
73,27.740529975,28.34901975,61.0,54.0
74,27.174492975,28.3655291625,66.0,85.0
75,27.457511475,28.3749631125,76.0,70.0
76,28.023548475,28.469302612499998,57.0,55.0
77,28.306566975,30.457507575,38.0,69.0
78,28.872603975,30.6815638875,45.0,35.0
79,29.438640975,31.127318025,50.0,41.0
80,29.438640975,31.363166775,62.0,66.0
81,30.004677975,31.745241749999998,57.0,51.0
82,31.702788975,32.1202412625,50.0,34.0
83,30.570714975,32.3136372375,38.0,56.0
84,31.136751975,32.4339201,45.0,41.0
85,32.268825975,32.99052315,57.0,50.0
86,31.702788975,33.061277775,66.0,52.0
87,31.702788975,33.2192964375,62.0,62.0
88,32.834862975,34.9787281125,40.0,56.0
89,33.400899975,35.1957089625,47.0,39.0
90,33.966936975,35.655614025,52.0,37.0
91,33.966936975,36.0565569,64.0,66.0
92,34.532973975,36.5164619625,59.0,40.0
93,35.099010975,36.7334428125,40.0,60.0
94,35.665047975,36.78297105,47.0,35.0
95,36.231084975,36.9975934125,52.0,48.0
96,36.797121975,37.259385525,59.0,71.0
97,36.514103475,37.29240435,64.0,50.0
98,35.665047975,37.31127225,54.0,53.0
99,36.231084975,37.3136307375,68.0,90.0
100,37.363158975,37.8867432,59.0,93.0
101,37.363158975,37.8867432,61.0,66.0
102,37.363158975,37.8867432,64.0,66.0
103,37.3702344375,37.8938186625,57.0,59.0
104,37.9221205125,38.448063225,61.0,93.0
105,37.929195975,38.561270625,57.0,58.0
106,37.363158975,39.4527789,45.0,71.0
107,37.9221205125,39.683910675,52.0,58.0
108,38.495232975,40.59428685,64.0,83.0
109,38.48108205,40.66975845,61.0,55.0
110,39.061269975,40.70749425,57.0,38.0
111,40.193343975,41.0730598125,52.0,57.0
112,39.627306975,41.146172925,45.0,54.0
113,40.759380975,41.966926575,61.0,93.0
114,40.759380975,41.9692850625,64.0,82.0
115,41.325417975,41.9740020375,57.0,63.0
116,42.457491974999996,43.40560395,44.0,36.0
117,41.891454975,43.4221133625,37.0,83.0
118,43.023528975,43.5777735375,49.0,51.0
119,43.589565975,44.146169025,52.0,54.0
120,43.023528975,44.174470875,56.0,64.0
121,43.023528975,44.1956972625,61.0,76.0
122,44.155602975,45.8183366625,42.0,67.0
123,44.721639975,45.8419215375,49.0,39.0
124,45.287676975,45.9268270875,54.0,57.0
125,45.853713975,46.4527698,57.0,64.0
126,45.287676975,46.4645622375,61.0,63.0
127,45.287676975,46.51880745,66.0,66.0
128,46.419750975,48.542389725,47.0,70.0
129,46.985787975,48.7098423375,54.0,62.0
130,47.551824975,49.353709425,62.0,67.0
131,47.551824975,49.3938037125,66.0,78.0
132,48.117861975,49.485784725,59.0,49.0
133,49.249935975,50.1320103,54.0,40.0
134,48.683898975,50.4268212375,47.0,66.0
135,49.815972975,50.9456884875,66.0,93.0
136,49.815972975,50.9928582375,62.0,76.0
137,50.382009975,51.0754053,59.0,85.0
138,50.948046975,53.1060630375,40.0,73.0
139,51.514083975,53.29238355,47.0,47.0
140,52.080120975,53.6037039,52.0,55.0
141,52.646157975,53.9692694625,59.0,77.0
142,52.080120975,54.016439212499996,64.0,79.0
143,52.080120975,54.016439212499996,68.0,88.0
144,53.778231975,54.4150236,52.0,78.0
145,54.061250475,54.4220990625,59.0,69.0
146,54.627287475,54.9881360625,52.0,90.0
147,53.212194975,55.3772865,40.0,81.0
148,53.495213475,55.382003475,47.0,53.0
149,54.344268975,55.4928523875,64.0,88.0
150,54.910305975,55.514078775,59.0,99.0
151,54.344268975,55.5282297,68.0,107.0
152,56.042379975,56.6343603375,57.0,102.0
153,56.325398475,56.7381337875,61.0,93.0
154,56.891435475,57.2334161625,61.0,92.0
155,55.476342975,57.5730383625,45.0,97.0
156,55.759361475,57.76407585,52.0,93.0
157,57.174453975,58.240490325,64.0,70.0
158,56.608416975,58.3206789,69.0,72.0
159,57.457472475,58.391433525,61.0,117.0
160,58.306527975,58.8937913625,57.0,92.0
161,58.589546475,59.0305836375,61.0,73.0
162,58.023509475,59.10369675,52.0,64.0
163,59.155583475,59.3324700375,52.0,73.0
164,57.740490975,59.3890737375,45.0,85.0
165,58.872564975,59.46218685,64.0,75.0
166,58.872564975,59.7239789625,69.0,72.0
167,59.438601975,60.1154878875,61.0,90.0
168,59.721620475,60.1319973,64.0,75.0
169,60.570675975,61.193316675,49.0,90.0
170,60.853694475,61.2145430625,61.0,86.0
171,60.004638975,61.4456748375,37.0,72.0
172,60.287657475,61.457467275,44.0,36.0
173,61.419731475,61.665014175,49.0,92.0
174,61.136712975,61.6720896375,64.0,82.0
175,61.136712975,61.8466177125,68.0,97.0
176,61.985768475,62.26407,64.0,69.0
177,61.985768475,62.297088825,68.0,76.0
178,61.702749975,62.3088812625,61.0,99.0
179,62.834823975,63.457464675,54.0,95.0
180,62.551805475,63.863124524999996,49.0,37.0
181,62.268786975,63.8937848625,42.0,73.0
182,63.117842475,63.91501125,57.0,85.0
183,63.683879475,64.0258601625,54.0,93.0
184,63.966897975,64.429161525,61.0,122.0
185,63.400860975,64.5093501,66.0,122.0
186,64.249916475,64.5211425375,57.0,95.0
187,65.098971975,65.3937829125,59.0,97.0
188,65.381990475,65.6673674625,62.0,100.0
189,64.815953475,65.8560464625,54.0,90.0
190,65.948027475,66.1107631125,54.0,100.0
191,64.532934975,66.1862347125,47.0,89.0
192,66.231045975,66.85840365,62.0,99.0
193,66.514064475,66.863120625,59.0,95.0
194,65.665008975,66.8749130625,66.0,122.0
195,67.363119975,68.032930425,49.0,83.0
196,67.646138475,68.19802455,61.0,92.0
197,66.797082975,68.5447222125,37.0,75.0
198,68.212175475,68.5470807,49.0,82.0
199,67.080101475,68.55415616249999,44.0,38.0
200,68.495193975,68.7994388625,64.0,92.0
201,67.929156975,68.9433066,68.0,112.0
202,68.778212475,69.06594795,61.0,107.0
203,69.627267975,70.3041538875,50.0,82.0
204,70.193304975,70.608398775,66.0,127.0
205,70.476323475,70.6909458375,50.0,95.0
206,69.910286475,70.7286816375,57.0,90.0
207,69.061230975,71.0400019875,38.0,73.0
208,69.344249475,71.325378975,45.0,59.0
209,70.759341975,71.3607562875,62.0,93.0
210,71.042360475,71.4150015,57.0,89.0
211,70.759341975,71.4150015,66.0,117.0
212,72.174434475,72.5541509625,59.0,70.0
213,71.891415975,72.5635849125,52.0,81.0
214,71.608397475,73.0069805625,47.0,64.0
215,71.325378975,73.0211314875,40.0,70.0
216,72.457452975,73.0942446,64.0,97.0
217,72.740471475,73.3017915,52.0,92.0
218,72.457452975,73.58481,68.0,127.0
219,73.306508475,73.608394875,64.0,85.0
220,73.023489975,73.6107533625,59.0,96.0
221,74.155563975,74.5399974375,57.0,63.0
222,74.438582475,74.7947140875,61.0,75.0
223,73.872545475,74.85839325,52.0,62.0
224,73.589526975,75.6532035375,45.0,86.0
225,75.004619475,75.83952405,52.0,53.0
226,75.57065647499999,75.9220711125,57.0,86.0
227,75.287637975,75.9456559875,61.0,90.0
228,74.721600975,75.948014475,64.0,97.0
229,76.419711975,76.8041454375,57.0,85.0
230,76.702730475,77.0777299875,64.0,73.0
231,76.136693475,77.1626355375,52.0,53.0
232,77.268767475,77.438578575,52.0,70.0
233,75.853674975,77.485748325,45.0,69.0
234,76.98574897499999,77.6225406,69.0,82.0
235,77.834804475,78.1697097,69.0,75.0
236,76.98574897499999,78.1815021375,73.0,97.0
237,77.551785975,78.2003700375,64.0,89.0
238,78.683859975,79.3182931125,49.0,89.0
239,78.966878475,79.36782135,52.0,69.0
240,78.117822975,79.6248964875,37.0,77.0
241,78.400841475,79.646122875,44.0,33.0
242,79.532915475,79.853669775,49.0,73.0
243,79.249896975,79.89612255,56.0,83.0
244,79.815933975,80.3418766875,52.0,77.0
245,79.249896975,80.3607445875,61.0,96.0
246,80.098952475,80.3890464375,56.0,77.0
247,80.948007975,81.580082625,54.0,93.0
248,81.231026475,81.6437617875,57.0,66.0
249,80.664989475,81.8843275125,49.0,63.0
250,80.381970975,81.93385575,42.0,71.0
251,81.797063475,82.0777234875,54.0,86.0
252,81.514044975,82.1508366,61.0,90.0
253,82.080081975,82.5965907375,57.0,79.0
254,82.363100475,82.617817125,61.0,93.0
255,81.514044975,82.655552925,66.0,96.0
256,83.212155975,83.5541366625,59.0,75.0
257,83.495174475,83.9079097875,62.0,71.0
258,82.929137475,83.9550795375,54.0,66.0
259,84.061211475,84.2663998875,54.0,71.0
260,82.646118975,84.315928125,47.0,68.0
261,84.344229975,84.95271975,62.0,82.0
262,84.627248475,84.9692291625,59.0,83.0
263,83.778192975,85.0069649625,66.0,102.0
264,85.476303975,86.0918692125,49.0,73.0
265,85.759322475,86.146114425,61.0,73.0
266,86.325359475,86.51875545,49.0,72.0
267,85.193285475,86.5494157875,44.0,32.0
268,86.042340975,86.59422705,64.0,62.0
269,84.910266975,86.6013025125,37.0,78.0
270,86.891396475,87.1154527875,64.0,36.0
271,86.042340975,87.16733951249999,68.0,99.0
272,86.608377975,87.2239432125,61.0,90.0
273,88.023470475,88.3961115,57.0,68.0
274,87.740451975,88.40554545,50.0,81.0
275,88.589507475,88.7923374,50.0,69.0
276,88.306488975,88.9362051375,62.0,83.0
277,87.174414975,89.231016075,38.0,76.0
278,88.872525975,89.4079026375,57.0,88.0
279,88.306488975,89.4149781,66.0,89.0
280,89.155544475,89.429129025,62.0,67.0
281,87.457433475,89.447996925,45.0,37.0
282,90.287618475,90.6602595,59.0,65.0
283,90.004599975,90.6767689125,52.0,69.0
284,89.438562975,90.8890327875,40.0,81.0
285,89.721581475,90.9550704375,47.0,53.0
286,90.570636975,91.787616525,64.0,78.0
287,90.570636975,91.8088429125,68.0,83.0
288,92.551766475,92.9550678375,59.0,55.0
289,91.985729475,93.0399733875,52.0,41.0
290,92.268747975,93.0942186,57.0,67.0
291,91.702710975,93.759312075,45.0,67.0
292,93.117803475,94.0116702375,52.0,62.0
293,92.834784975,95.04704625,64.0,83.0
294,93.400821975,95.0494047375,61.0,89.0
295,93.966858975,95.0753481,57.0,61.0
296,93.683840475,95.08478205,59.0,56.0
297,93.966858975,95.3088383625,45.0,59.0
298,95.381951475,95.485724925,45.0,78.0
299,95.098932975,95.768743425,59.0,90.0
300,95.098932975,95.85836595,61.0,112.0
301,95.947988475,96.2192145375,59.0,100.0
302,95.664969975,96.2286484875,57.0,99.0
303,95.947988475,96.231006975,61.0,43.0
304,95.098932975,96.231006975,64.0,96.0
305,97.080062475,97.40553375,61.0,78.0
306,97.363080975,97.410250725,64.0,35.0
307,96.797043975,97.627231575,49.0,85.0
308,96.514025475,97.655533425,44.0,61.0
309,97.363080975,97.74515595,68.0,107.0
310,96.231006975,97.82062755,37.0,92.0
311,97.646099475,97.863080325,61.0,88.0
312,97.929117975,98.0446838625,37.0,72.0
313,97.929117975,98.0777026875,68.0,83.0
314,97.929117975,98.1343063875,64.0,75.0
315,97.929117975,98.1673252125,61.0,88.0
316,98.212136475,98.8512865875,69.0,62.0
317,98.212136475,98.9456260875,61.0,44.0
318,98.212136475,99.032890125,66.0,78.0
319,99.061191975,99.089493825,66.0,29.0
320,98.778173475,99.1885503,54.0,64.0
321,99.061191975,99.7286439375,61.0,92.0
322,99.344210475,99.7545873,54.0,85.0
323,99.910247475,100.0493982375,54.0,93.0
324,98.212136475,100.0635491625,42.0,100.0
325,99.627228975,100.2993979125,66.0,97.0
326,99.627228975,100.3371337125,69.0,69.0
327,100.476284475,100.74515205,69.0,60.0
328,100.476284475,100.83949155,66.0,69.0
329,100.193265975,100.91496315,61.0,93.0
330,101.325339975,101.9409052125,49.0,85.0
331,101.608358475,101.9927919375,61.0,86.0
332,101.042321475,102.2710934625,44.0,33.0
333,100.759302975,102.2993953125,37.0,71.0
334,101.891376975,102.31118775,64.0,62.0
335,101.891376975,102.315904725,68.0,93.0
336,102.457413975,102.63194205,68.0,52.0
337,102.457413975,102.6673193625,64.0,61.0
338,102.174395475,102.6720363375,49.0,88.0
339,102.740432475,103.230997875,69.0,64.0
340,102.457413975,103.46212965,61.0,99.0
341,102.740432475,103.5210918375,66.0,77.0
342,103.589487975,103.655525625,66.0,32.0
343,103.306469475,103.80175185,54.0,68.0
344,103.589487975,104.0776948875,61.0,97.0
345,103.872506475,104.2569399375,54.0,86.0
346,104.155524975,104.3135436375,61.0,62.0
347,102.740432475,104.528166,42.0,93.0
348,104.438543475,104.7663732375,54.0,95.0
349,104.155524975,104.853637275,66.0,102.0
350,104.155524975,105.2640141,69.0,67.0
351,105.004580475,105.3276932625,66.0,85.0
352,104.721561975,105.3394857,61.0,99.0
353,105.853635975,106.485710625,59.0,77.0
354,106.136654475,106.53759735,62.0,72.0
355,106.702691475,106.8795780375,59.0,89.0
356,105.570617475,106.9173138375,54.0,58.0
357,105.287598975,106.9927854375,47.0,68.0
358,106.419672975,107.0258042625,66.0,92.0
359,106.419672975,107.0258042625,71.0,93.0
360,106.985709975,107.617784625,62.0,96.0
361,108.400802475,108.598915425,64.0,53.0
362,108.117783975,108.608349375,61.0,81.0
363,107.834765475,108.7545756,49.0,56.0
364,107.551746975,109.04702805,37.0,95.0
365,108.966839475,109.136650575,49.0,88.0
366,108.683820975,109.174386375,64.0,74.0
367,108.683820975,109.44797092499999,68.0,107.0
368,109.249857975,109.5446689125,61.0,102.0
369,109.815894975,110.344196175,65.0,92.0
370,109.815894975,110.532875175,69.0,90.0
371,109.815894975,110.5729694625,62.0,86.0
372,110.381931975,110.9691953625,50.0,88.0
373,110.664950475,111.3512703375,69.0,93.0
374,110.664950475,111.3583458,65.0,97.0
375,110.664950475,111.429100425,62.0,81.0
376,111.230987475,111.5022135375,50.0,72.0
377,111.514005975,111.5776851375,62.0,42.0
378,111.514005975,111.76400565,69.0,93.0
379,109.815894975,111.8418357375,38.0,69.0
380,111.797024475,111.9125903625,62.0,45.0
381,111.514005975,111.97155255,65.0,100.0
382,110.098913475,112.032873225,45.0,42.0
383,112.080042975,112.7923062,64.0,86.0
384,112.080042975,112.7993816625,71.0,89.0
385,112.080042975,112.8111741,68.0,97.0
386,112.929098475,113.1390038625,71.0,78.0
387,112.929098475,113.155513275,68.0,93.0
388,112.929098475,113.1720226875,64.0,86.0
389,112.646079975,113.3182489125,52.0,95.0
390,113.212116975,113.532871275,64.0,70.0
391,113.212116975,114.3040966875,68.0,127.0
392,113.212116975,114.3276815625,71.0,99.0
393,113.778153975,114.3559834125,64.0,86.0
394,113.495135475,114.3607003875,52.0,96.0
395,112.363061475,114.3748513125,47.0,77.0
396,112.080042975,114.4078701375,40.0,83.0
397,114.910227975,115.542302625,57.0,58.0
398,114.344190975,116.4338109,45.0,71.0
399,114.627209475,116.664942675,52.0,58.0
400,115.476264975,117.57531885,64.0,83.0
401,115.193246475,117.65079045,61.0,55.0
402,116.042301975,117.68852625,57.0,38.0
403,117.174375975,118.0540918125,52.0,57.0
404,116.608338975,118.127204925,45.0,54.0
405,117.740412975,118.947958575,61.0,93.0
406,117.740412975,118.9503170625,64.0,82.0
407,118.306449975,118.9550340375,57.0,63.0
408,119.438523975,120.38663595,44.0,36.0
409,118.872486975,120.4031453625,37.0,83.0
410,120.004560975,120.5588055375,49.0,51.0
411,120.570597975,121.127201025,52.0,54.0
412,120.004560975,121.155502875,56.0,64.0
413,120.004560975,121.1767292625,61.0,76.0
414,121.13663497499999,122.7993686625,42.0,67.0
415,121.702671975,122.8229535375,49.0,39.0
416,122.268708975,122.9078590875,54.0,57.0
417,122.834745975,123.4338018,57.0,64.0
418,122.268708975,123.4455942375,61.0,63.0
419,122.268708975,123.49983945,66.0,66.0
420,123.400782975,125.523421725,47.0,70.0
421,123.96681997499999,125.6908743375,54.0,62.0
422,124.532856975,126.334741425,62.0,67.0
423,124.532856975,126.3748357125,66.0,78.0
424,125.098893975,126.466816725,59.0,49.0
425,126.230967975,127.1130423,54.0,40.0
426,125.664930975,127.4078532375,47.0,66.0
427,126.797004975,127.9267204875,66.0,93.0
428,126.797004975,127.9738902375,62.0,76.0
429,127.363041975,128.0564373,59.0,85.0
430,127.929078975,130.0870950375,40.0,73.0
431,128.495115975,130.27341555,47.0,47.0
432,129.061152975,130.5847359,52.0,55.0
433,129.627189975,130.9503014625,59.0,77.0
434,129.061152975,130.9974712125,64.0,79.0
435,129.061152975,130.9974712125,68.0,88.0
436,130.759263975,131.3960556,52.0,78.0
437,131.042282475,131.4031310625,59.0,69.0
438,131.608319475,131.9691680625,52.0,90.0
439,130.193226975,132.3583185,40.0,81.0
440,130.476245475,132.363035475,47.0,53.0
441,131.325300975,132.4738843875,64.0,88.0
442,131.891337975,132.495110775,59.0,99.0
443,131.325300975,132.5092617,68.0,107.0
444,133.023411975,133.6153923375,57.0,102.0
445,133.306430475,133.7191657875,61.0,93.0
446,133.872467475,134.2144481625,61.0,92.0
447,132.457374975,134.5540703625,45.0,97.0
448,132.740393475,134.74510785,52.0,93.0
449,134.155485975,135.221522325,64.0,70.0
450,133.589448975,135.3017109,69.0,72.0
451,134.438504475,135.372465525,61.0,117.0
452,135.287559975,135.8748233625,57.0,92.0
453,135.570578475,136.0116156375,61.0,73.0
454,135.004541475,136.08472875,52.0,64.0
455,136.136615475,136.3135020375,52.0,73.0
456,134.721522975,136.3701057375,45.0,85.0
457,135.853596975,136.44321885,64.0,75.0
458,135.853596975,136.7050109625,69.0,72.0
459,136.419633975,137.0965198875,61.0,90.0
460,136.702652475,137.1130293,64.0,75.0
461,137.551707975,138.174348675,49.0,90.0
462,137.834726475,138.1955750625,61.0,86.0
463,136.985670975,138.4267068375,37.0,72.0
464,137.268689475,138.438499275,44.0,36.0
465,138.400763475,138.646046175,49.0,92.0
466,138.117744975,138.6531216375,64.0,82.0
467,138.117744975,138.8276497125,68.0,97.0
468,138.966800475,139.245102,64.0,69.0
469,138.966800475,139.278120825,68.0,76.0
470,138.683781975,139.2899132625,61.0,99.0
471,139.815855975,140.438496675,54.0,95.0
472,139.532837475,140.844156525,49.0,37.0
473,139.249818975,140.8748168625,42.0,73.0
474,140.098874475,140.89604325,57.0,85.0
475,140.664911475,141.0068921625,54.0,93.0
476,140.947929975,141.410193525,61.0,122.0
477,140.381892975,141.4903821,66.0,122.0
478,141.230948475,141.5021745375,57.0,95.0
479,142.080003975,142.3748149125,59.0,97.0
480,142.363022475,142.6483994625,62.0,100.0
481,141.796985475,142.8370784625,54.0,90.0
482,142.929059475,143.0917951125,54.0,100.0
483,141.513966975,143.1672667125,47.0,89.0
484,143.212077975,143.83943565,62.0,99.0
485,143.495096475,143.844152625,59.0,95.0
486,142.646040975,143.8559450625,66.0,122.0
487,144.344151975,145.013962425,49.0,83.0
488,144.62717047499999,145.17905655,61.0,92.0
489,143.778114975,145.5257542125,37.0,75.0
490,145.193207475,145.5281127,49.0,82.0
491,144.061133475,145.5351881625,44.0,38.0
492,145.476225975,145.7804708625,64.0,92.0
493,144.910188975,145.9243386,68.0,112.0
494,145.759244475,146.04697995,61.0,107.0
495,146.608299975,147.2851858875,50.0,82.0
496,147.174336975,147.589430775,66.0,127.0
497,147.45735547499999,147.6719778375,50.0,95.0
498,146.891318475,147.7097136375,57.0,90.0
499,146.042262975,148.0210339875,38.0,73.0
500,146.325281475,148.306410975,45.0,59.0
501,147.740373975,148.3417882875,62.0,93.0
502,148.023392475,148.3960335,57.0,89.0
503,147.740373975,148.3960335,66.0,117.0
504,149.155466475,149.5351829625,59.0,70.0
505,148.872447975,149.5446169125,52.0,81.0
506,148.589429475,149.9880125625,47.0,64.0
507,148.306410975,150.0021634875,40.0,70.0
508,149.438484975,150.0752766,64.0,97.0
509,149.721503475,150.2828235,52.0,92.0
510,149.438484975,150.565842,68.0,127.0
511,150.287540475,150.589426875,64.0,85.0
512,150.004521975,150.5917853625,59.0,96.0
513,151.136595975,151.5210294375,57.0,63.0
514,151.419614475,151.7757460875,61.0,75.0
515,150.853577475,151.83942525,52.0,62.0
516,150.570558975,152.6342355375,45.0,86.0
517,151.985651475,152.82055605,52.0,53.0
518,152.551688475,152.9031031125,57.0,86.0
519,152.268669975,152.9266879875,61.0,90.0
520,151.702632975,152.929046475,64.0,97.0
521,153.400743975,153.7851774375,57.0,85.0
522,153.683762475,154.0587619875,64.0,73.0
523,153.117725475,154.1436675375,52.0,53.0
524,154.249799475,154.419610575,52.0,70.0
525,152.834706975,154.466780325,45.0,69.0
526,153.966780975,154.6035726,69.0,82.0
527,154.815836475,155.1507417,69.0,75.0
528,153.966780975,155.1625341375,73.0,97.0
529,154.532817975,155.1814020375,64.0,89.0
530,155.664891975,156.2993251125,49.0,89.0
531,155.947910475,156.34885335,52.0,69.0
532,155.098854975,156.6059284875,37.0,77.0
533,155.381873475,156.627154875,44.0,33.0
534,156.513947475,156.834701775,49.0,73.0
535,156.230928975,156.87715455,56.0,83.0
536,156.796965975,157.3229086875,52.0,77.0
537,156.230928975,157.3417765875,61.0,96.0
538,157.079984475,157.3700784375,56.0,77.0
539,157.929039975,158.561114625,54.0,93.0
540,158.212058475,158.6247937875,57.0,66.0
541,157.646021475,158.8653595125,49.0,63.0
542,157.363002975,158.91488775,42.0,71.0
543,158.778095475,159.0587554875,54.0,86.0
544,158.495076975,159.1318686,61.0,90.0
545,159.061113975,159.5776227375,57.0,79.0
546,159.344132475,159.598849125,61.0,93.0
547,158.495076975,159.636584925,66.0,96.0
548,160.193187975,160.5351686625,59.0,75.0
549,160.476206475,160.8889417875,62.0,71.0
550,159.910169475,160.9361115375,54.0,66.0
551,161.042243475,161.2474318875,54.0,71.0
552,159.627150975,161.296960125,47.0,68.0
553,161.325261975,161.93375175,62.0,82.0
554,161.608280475,161.9502611625,59.0,83.0
555,160.759224975,161.9879969625,66.0,102.0
556,162.457335975,163.0729012125,49.0,73.0
557,162.740354475,163.127146425,61.0,73.0
558,163.306391475,163.49978745,49.0,72.0
559,162.174317475,163.5304477875,44.0,32.0
560,163.023372975,163.57525905,64.0,62.0
561,161.891298975,163.5823345125,37.0,78.0
562,163.872428475,164.0964847875,64.0,36.0
563,163.023372975,164.1483715125,68.0,99.0
564,163.589409975,164.2049752125,61.0,90.0
565,165.004502475,165.3771435,57.0,68.0
566,164.721483975,165.38657745,50.0,81.0
567,165.570539475,165.7733694,50.0,69.0
568,165.287520975,165.9172371375,62.0,83.0
569,164.155446975,166.212048075,38.0,76.0
570,165.853557975,166.3889346375,57.0,88.0
571,165.287520975,166.3960101,66.0,89.0
572,166.136576475,166.410161025,62.0,67.0
573,164.438465475,166.429028925,45.0,37.0
574,167.268650475,167.6412915,59.0,65.0
575,166.985631975,167.6578009125,52.0,69.0
576,166.419594975,167.8700647875,40.0,81.0
577,166.702613475,167.9361024375,47.0,53.0
578,167.551668975,168.683742975,64.0,78.0
579,167.551668975,168.683742975,68.0,83.0
580,168.683742975,169.4455344375,73.0,97.0
581,168.683742975,169.5776097375,69.0,99.0
582,168.683742975,169.6106285625,64.0,89.0
583,169.532798475,169.8983640375,57.0,67.0
584,170.098835475,170.344118175,57.0,60.0
585,169.815816975,170.4832689375,73.0,96.0
586,169.815816975,170.4927028875,69.0,88.0
587,170.664872475,171.0823247625,73.0,96.0
588,170.664872475,171.1247775375,69.0,71.0
589,170.381853975,171.1342114875,64.0,64.0
590,171.230909475,171.3653432625,73.0,52.0
591,171.230909475,171.3747772125,69.0,59.0
592,171.230909475,171.3842111625,64.0,59.0
593,171.513927975,171.6059089875,73.0,88.0
594,171.513927975,171.6153429375,69.0,90.0
595,171.513927975,171.6200599125,64.0,78.0
596,171.230909475,172.0941159,57.0,33.0
597,172.079964975,172.400719275,64.0,90.0
598,172.362983475,172.5870397875,57.0,97.0
599,168.683742975,172.702605675,45.0,93.0
600,172.079964975,172.721473575,69.0,112.0
601,172.079964975,172.7285490375,73.0,112.0
602,169.249779975,173.212038975,52.0,51.0
603,172.646001975,173.2662841875,64.0,89.0
604,173.212038975,175.3606210875,45.0,76.0
605,173.778075975,175.51863975,52.0,56.0
606,174.910149975,176.2662802875,57.0,55.0
607,174.344112975,176.4549592875,64.0,66.0
608,174.344112975,176.49977055,61.0,66.0
609,175.759205475,176.6908080375,52.0,41.0
610,176.325242475,176.749770225,57.0,44.0
611,176.891279475,177.1342036875,52.0,50.0
612,175.476186975,177.155430075,45.0,66.0
613,176.608260975,177.6389200125,64.0,75.0
614,176.608260975,177.6813727875,61.0,82.0
615,177.174297975,177.68844825,57.0,63.0
616,178.306371975,179.0587294875,56.0,51.0
617,177.740334975,179.2615594125,49.0,68.0
618,178.872408975,179.9313698625,64.0,78.0
619,179.438445975,180.0068414625,56.0,62.0
620,178.872408975,180.3653315625,61.0,65.0
621,180.287501475,180.7662744375,54.0,37.0
622,180.570519975,181.2709907625,57.0,48.0
623,181.136556975,182.1908008875,66.0,79.0
624,181.136556975,182.2096687875,61.0,75.0
625,181.136556975,182.2261782,54.0,14.0
626,181.702593975,182.240329125,57.0,70.0
627,180.004482975,182.296932825,42.0,75.0
628,182.834667975,183.5634406125,54.0,56.0
629,182.268630975,183.7922139,47.0,79.0
630,183.683723475,183.8134402875,54.0,38.0
631,183.966741975,184.5681562875,59.0,57.0
632,183.400704975,184.6294769625,62.0,69.0
633,183.400704975,184.664854275,66.0,99.0
634,185.098815975,185.7615509625,49.0,53.0
635,185.947871475,186.155418375,49.0,71.0
636,184.532778975,186.174286275,37.0,69.0
637,185.664852975,186.7544742,64.0,69.0
638,185.664852975,186.80164395,68.0,86.0
639,186.230889975,186.8511721875,61.0,59.0
640,187.645982475,187.87711425,57.0,52.0
641,187.36296397499999,188.01626501249999,50.0,82.0
642,187.929000975,188.3393778,57.0,41.0
643,188.212019475,188.3841890625,50.0,73.0
644,187.929000975,188.5634341125,66.0,100.0
645,186.796926975,188.881829925,38.0,74.0
646,187.929000975,189.0021127875,62.0,99.0
647,187.079945475,189.0068297625,45.0,37.0
648,188.495037975,189.0752259,57.0,69.0
649,188.778056475,189.155414475,64.0,37.0
650,189.344093475,189.52333852499999,68.0,55.0
651,189.344093475,189.532772475,59.0,58.0
652,189.344093475,189.5398479375,64.0,59.0
653,189.627111975,189.7568287875,68.0,93.0
654,189.627111975,189.7709797125,59.0,78.0
655,189.627111975,189.7709797125,64.0,89.0
656,189.910130475,190.04692275,68.0,102.0
657,189.910130475,190.0587151875,59.0,95.0
658,189.910130475,190.06579065,64.0,97.0
659,189.344093475,190.306356375,47.0,50.0
660,189.910130475,190.3228657875,52.0,37.0
661,189.061074975,190.3582431,40.0,59.0
662,190.19314897499999,190.57522395,68.0,127.0
663,190.19314897499999,190.5870163875,64.0,127.0
664,190.19314897499999,190.59409185,59.0,112.0
665,190.476167475,191.34880785,40.0,76.0
666,191.042204475,191.34880785,59.0,102.0
667,190.759185975,191.3558833125,64.0,122.0
668,190.759185975,191.362958775,68.0,127.0
669,190.476167475,191.36767575,52.0,95.0
670,190.476167475,191.372392725,47.0,77.0
671,192.174278475,192.5539949625,64.0,85.0
672,191.891259975,192.5728628625,57.0,102.0
673,192.740315475,192.9808812,57.0,82.0
674,192.457296975,193.1341828875,69.0,66.0
675,192.457296975,193.1813526375,73.0,122.0
676,191.325222975,193.3794655875,45.0,92.0
677,191.608241475,193.6223898,52.0,97.0
678,193.02333397499999,194.240313525,64.0,95.0
679,193.306352475,194.2804078125,69.0,81.0
680,193.306352475,194.3228605875,73.0,102.0
681,194.155407975,194.87710515,57.0,93.0
682,194.438426475,194.9219164125,64.0,93.0
683,195.004463475,195.1624821375,57.0,81.0
684,193.872389475,195.212010375,52.0,64.0
685,193.589370975,195.2285197875,45.0,78.0
686,195.287481975,195.9054057,69.0,90.0
687,194.721444975,195.91483965,73.0,117.0
688,195.570500475,195.9832357875,64.0,95.0
689,196.419555975,197.0775739875,49.0,79.0
690,196.702574475,197.1153097875,56.0,74.0
691,195.853518975,197.428988625,37.0,75.0
692,196.136537475,197.447856525,44.0,35.0
693,196.985592975,197.5822903125,61.0,66.0
694,197.268611475,197.6200261125,49.0,83.0
695,197.551629975,198.0256859625,56.0,102.0
696,196.985592975,198.1247424375,64.0,67.0
697,197.834648475,198.145968825,61.0,50.0
698,198.683703975,199.32992955,54.0,100.0
699,198.966722475,199.37002383749999,57.0,82.0
700,198.400685475,199.61294805,49.0,65.0
701,198.117666975,199.6789857,42.0,86.0
702,199.532759475,199.80162705,54.0,99.0
703,199.249740975,199.891249575,61.0,100.0
704,199.815777975,200.3181358125,57.0,95.0
705,200.098796475,200.32992825,61.0,107.0
706,199.249740975,200.36766405,66.0,100.0
707,200.947851975,201.2756817375,59.0,92.0
708,200.664833475,201.7167189,54.0,79.0
709,201.796907475,201.947850675,54.0,82.0
710,200.381814975,201.9620016,47.0,75.0
711,201.230870475,202.164831525,62.0,82.0
712,202.362944475,202.641246,62.0,96.0
713,202.079925975,202.6530384375,59.0,102.0
714,201.513888975,202.66954785,66.0,117.0
715,203.495018475,203.7332257125,61.0,78.0
716,203.778036975,203.872376475,64.0,95.0
717,203.211999975,203.87473496249999,49.0,88.0
718,204.061055475,204.2285080875,64.0,27.0
719,204.061055475,204.2379420375,49.0,92.0
720,202.928981475,204.2638854,44.0,61.0
721,202.645962975,204.315772125,37.0,92.0
722,203.778036975,204.7190734875,68.0,122.0
723,204.627092475,204.910110975,64.0,85.0
724,204.344073975,204.9431298,61.0,100.0
725,205.476147975,206.1530338875,50.0,92.0
726,205.759166475,206.372373225,57.0,65.0
727,206.325203475,206.6435992875,50.0,85.0
728,206.042184975,206.68841055,62.0,99.0
729,206.042184975,206.7520897125,66.0,122.0
730,204.910110975,206.99029695,38.0,68.0
731,205.193129475,207.1435986375,45.0,62.0
732,206.608221975,207.174258975,57.0,92.0
733,206.891240475,207.174258975,62.0,83.0
734,206.891240475,207.174258975,66.0,99.0
735,207.457277475,207.51859815,59.0,32.0
736,207.457277475,207.5280321,64.0,35.0
737,207.740295975,207.8841637125,68.0,48.0
738,207.740295975,207.8865222,59.0,63.0
739,207.740295975,207.8888806875,64.0,55.0
740,207.740295975,207.95255985,52.0,72.0
741,207.174258975,207.9926541375,40.0,74.0
742,207.457277475,208.023314475,47.0,69.0
743,208.023314475,208.1695407,52.0,54.0
744,208.023314475,208.1766161625,68.0,77.0
745,208.023314475,208.17897465,40.0,66.0
746,208.023314475,208.17897465,47.0,66.0
747,208.023314475,208.1884086,59.0,71.0
748,208.023314475,208.1907670875,64.0,85.0
749,208.306332975,208.4549176875,52.0,67.0
750,208.306332975,208.4714271,47.0,66.0
751,208.306332975,208.4714271,64.0,88.0
752,208.306332975,208.4737855875,59.0,74.0
753,208.306332975,208.476144075,68.0,86.0
754,208.306332975,208.4879365125,40.0,66.0
755,208.589351475,208.7332192125,64.0,89.0
756,208.589351475,208.7332192125,68.0,72.0
757,208.589351475,208.74501165,59.0,72.0
758,208.589351475,208.7473701375,47.0,58.0
759,208.589351475,208.7544456,40.0,64.0
760,208.589351475,208.7568040875,52.0,79.0
761,208.872369975,209.0068037625,64.0,90.0
762,208.872369975,209.0115207375,68.0,86.0
763,208.872369975,209.013879225,40.0,63.0
764,208.872369975,209.013879225,47.0,74.0
765,208.872369975,209.0185962,52.0,82.0
766,208.872369975,209.0185962,59.0,79.0
767,209.155388475,209.334633525,64.0,97.0
768,209.155388475,209.353501425,59.0,82.0
769,209.155388475,209.3652938625,68.0,92.0
770,209.155388475,209.3700108375,47.0,72.0
771,209.155388475,209.3770863,52.0,81.0
772,209.155388475,209.3935957125,40.0,60.0
773,209.438406975,210.1294438125,61.0,96.0
774,209.438406975,210.1341607875,69.0,65.0
775,209.438406975,210.1530286875,66.0,96.0
776,210.287462475,210.3983113875,69.0,56.0
777,210.287462475,210.4501981125,61.0,63.0
778,210.287462475,210.457273575,66.0,69.0
779,210.570480975,210.825197625,66.0,122.0
780,210.570480975,210.83934855,69.0,97.0
781,210.570480975,210.8487825,54.0,63.0
782,210.004443975,210.8794428375,49.0,41.0
783,209.438406975,210.9077446875,42.0,95.0
784,210.853499475,211.04689545,61.0,117.0
785,211.136517975,212.27330895,64.0,93.0
786,211.136517975,212.362931475,68.0,112.0
787,211.136517975,212.3700069375,61.0,93.0
788,212.551610475,212.8228365375,61.0,88.0
789,212.834628975,212.8983081375,61.0,38.0
790,212.268591975,212.99028915,49.0,86.0
791,211.136517975,213.2756661375,37.0,90.0
792,212.834628975,213.4124584125,64.0,85.0
793,213.117647475,213.4643451375,49.0,79.0
794,212.834628975,213.504439425,68.0,112.0
795,213.400665975,213.617646825,61.0,107.0
796,213.966702975,214.8747206625,62.0,88.0
797,213.966702975,214.9549092375,66.0,88.0
798,213.966702975,215.0492487375,57.0,76.0
799,213.966702975,215.1695316,38.0,78.0
800,215.098776975,215.1883995,62.0,75.0
801,215.098776975,215.1883995,66.0,62.0
802,215.098776975,215.2001919375,57.0,40.0
803,215.098776975,215.2143428625,50.0,66.0
804,214.532739975,215.2520786625,45.0,52.0
805,215.664813975,216.4124545125,62.0,89.0
806,215.664813975,216.4171714875,57.0,86.0
807,215.664813975,216.4313224125,66.0,86.0
808,215.664813975,216.63179385,38.0,51.0
809,215.664813975,216.7143409125,45.0,54.0
810,216.513869475,216.740284275,62.0,67.0
811,216.513869475,216.7473597375,66.0,71.0
812,216.513869475,216.7615106625,57.0,56.0
813,215.664813975,216.7850955375,50.0,72.0
814,216.796887975,216.9549066375,62.0,77.0
815,216.796887975,216.966699075,66.0,78.0
816,216.796887975,216.9784915125,57.0,66.0
817,217.079906475,217.2001893375,66.0,66.0
818,217.079906475,217.2332081625,57.0,66.0
819,217.079906475,217.25443455,62.0,86.0
820,217.362924975,218.438395275,59.0,83.0
821,217.362924975,218.438395275,64.0,86.0
822,217.362924975,218.447829225,68.0,92.0
823,217.362924975,218.4737725875,47.0,68.0
824,217.362924975,218.4737725875,52.0,72.0
825,217.362924975,218.4832065375,40.0,69.0
826,218.494998975,219.4973561625,64.0,74.0
827,218.494998975,219.5256580125,61.0,85.0
828,218.494998975,219.5775447375,57.0,78.0
829,219.061035975,219.7049030625,52.0,70.0
830,219.627072975,219.740280375,57.0,34.0
831,219.627072975,220.3794304875,61.0,88.0
832,218.494998975,220.6341471375,45.0,69.0
833,220.193109975,220.6624489875,57.0,55.0
834,219.627072975,220.66952445,64.0,75.0
835,220.476128475,220.7001847875,61.0,29.0
836,219.910091475,220.8110337,52.0,51.0
837,220.759146975,221.730843825,68.0,54.0
838,220.759146975,221.7544287,57.0,58.0
839,220.759146975,221.7567871875,64.0,62.0
840,220.759146975,221.7662211375,61.0,63.0
841,221.891220975,221.95254165,57.0,35.0
842,220.759146975,222.07754148749999,45.0,58.0
843,222.174239475,222.3582015,45.0,53.0
844,221.891220975,222.428956125,68.0,66.0
845,221.891220975,222.61291815,61.0,83.0
846,221.891220975,222.6388615125,64.0,70.0
847,222.457257975,222.872351775,57.0,67.0
848,223.018578,224.2190481375,66.0,78.0
849,223.018578,224.287444275,62.0,78.0
850,223.0162195125,224.5209345375,57.0,69.0
851,224.06574645,224.551594875,50.0,63.0
852,223.023294975,224.59404765,38.0,69.0
853,223.4973509625,224.6105570625,45.0,33.0
854,224.68838715,225.9265930875,38.0,52.0
855,224.674236225,226.1341399875,65.0,62.0
856,224.683670175,226.17895125,50.0,65.0
857,224.6671607625,226.2048946125,57.0,69.0
858,224.66951925,226.3204605,62.0,70.0
859,226.476120675,227.8086661125,52.0,50.0
860,226.46196975,227.9360244375,47.0,36.0
861,226.4714037,227.9548923375,40.0,39.0
862,226.466686725,227.994986625,64.0,56.0
863,226.466686725,228.0020620875,68.0,61.0
864,226.457252775,228.04687335,59.0,58.0
865,229.2567774375,232.551584475,61.0,61.0
866,229.2803623125,232.57516935,52.0,52.0
867,229.3463999625,232.5822448125,64.0,70.0
868,229.19781525,232.5846033,57.0,58.0
869,229.2897962625,232.598754225,45.0,51.0
870,229.249701975,233.6529981375,73.0,50.0
871,229.249701975,233.6978094,69.0,71.0
872,229.532720475,233.8605450375,76.0,69.0
