,start,end,pitch,velocity
0,23.351078033333334,23.659901233333336,69.0,86.0
1,23.792254033333336,24.145194833333335,69.0,87.0
2,24.233430033333335,24.360268133333335,69.0,84.0
3,24.454018033333334,25.038576233333334,69.0,84.0
4,25.115782033333335,25.437472866666667,67.0,76.0
5,25.556958033333334,26.0018105,67.0,73.0
6,25.998134033333336,26.477912933333336,66.0,81.0
7,26.439310033333335,28.562469533333335,64.0,85.0
8,30.409894033333337,30.737099566666668,69.0,85.0
9,30.851070033333336,31.17827556666667,69.0,82.0
10,31.292246033333335,31.4393047,69.0,81.0
11,31.512834033333334,32.03673053333333,69.0,85.0
12,32.17459803333334,32.499965333333336,69.0,86.0
13,32.61577403333334,32.99261186666667,73.0,86.0
14,33.05695003333334,33.244449833333334,74.0,87.0
15,33.277538033333336,35.35106523333334,69.0,87.0
16,36.80694603333334,37.058784,69.0,81.0
17,37.02753403333334,37.347386633333336,67.0,84.0
18,37.46871003333334,37.67275393333334,67.0,80.0
19,37.68929803333334,38.097385833333334,69.0,85.0
20,38.130474033333336,38.685620500000006,74.0,89.0
21,38.792238033333334,39.1433406,73.0,81.0
22,39.23341403333334,39.42275206666667,71.0,85.0
23,39.45400203333334,39.779369333333335,69.0,81.0
24,39.89517803333334,40.3951775,67.0,82.0
25,40.336354033333336,41.503632200000006,69.0,85.0
26,42.32164603333334,43.90068846666667,74.0,87.0
27,44.52752603333334,44.86576096666667,71.0,81.0
28,44.96870203333334,45.32348106666667,71.0,83.0
29,45.409878033333335,45.580833733333336,69.0,81.0
30,45.630466033333335,45.977892133333334,69.0,86.0
31,46.07164203333334,46.46318573333334,67.0,84.0
32,46.51281803333334,46.876788233333336,67.0,86.0
33,46.95399403333334,47.38597886666667,66.0,80.0
34,47.395170033333336,50.16354943333334,64.0,87.0
35,51.58634203333334,51.89516523333334,69.0,86.0
36,52.02751803333334,52.380458833333336,69.0,87.0
37,52.468694033333335,52.595532133333336,69.0,84.0
38,52.689282033333335,53.27384023333334,69.0,84.0
39,53.35104603333334,53.67273686666667,67.0,76.0
40,53.79222203333334,54.237074500000006,67.0,73.0
41,54.23339803333334,54.71317693333334,66.0,81.0
42,54.674574033333336,56.797733533333336,64.0,85.0
43,57.98339403333334,58.192952633333334,69.0,85.0
44,58.20398203333334,58.617584533333336,74.0,90.0
45,58.64515803333334,58.8032461,73.0,86.0
46,58.86574603333334,59.42640720000001,74.0,87.0
47,59.527510033333336,59.700303966666674,73.0,81.0
48,59.748098033333335,60.29405333333334,74.0,85.0
49,60.40986203333334,60.60287653333334,76.0,88.0
50,60.63045003333334,61.37309630000001,78.0,86.0
51,61.29221403333334,61.518316733333336,74.0,87.0
52,61.51280203333334,63.57713806666667,76.0,81.0
53,65.04221003333333,65.25912156666668,69.0,84.0
54,65.26279803333334,65.58816533333334,71.0,86.0
55,65.70397403333334,65.86573856666668,71.0,86.0
56,65.92456203333334,66.2536058,73.0,84.0
57,66.36573803333334,66.7609582,74.0,87.0
58,66.80691403333334,67.35286933333335,76.0,87.0
59,67.46867803333333,67.6322808,74.0,88.0
60,67.68926603333334,68.11022146666667,73.0,84.0
61,68.13044203333334,68.73154433333333,71.0,87.0
62,68.79220603333334,70.09918993333334,69.0,85.0
63,70.11573403333334,70.52382183333334,76.0,81.0
64,70.55691003333334,72.13595246666667,74.0,87.0
65,72.32161403333333,72.65249603333334,71.0,88.0
66,72.76279003333335,72.8988193,74.0,85.0
67,72.98337803333334,73.37124526666668,74.0,87.0
68,73.42455403333334,73.95028876666667,71.0,88.0
69,74.08631803333334,74.45212646666667,74.0,94.0
70,74.52749403333334,74.66536153333334,76.0,84.0
71,74.74808203333333,75.17271393333334,76.0,86.0
72,75.18925803333335,75.76278683333334,74.0,91.0
73,75.85102203333334,77.77013763333333,76.0,90.0
74,78.05690203333334,78.36021053333334,78.0,83.0
75,78.49807803333334,78.85837176666668,78.0,81.0
76,78.93925403333334,79.27197426666667,74.0,86.0
77,79.38043003333334,79.73520906666667,71.0,86.0
78,79.82160603333334,80.19844386666668,71.0,87.0
79,80.26278203333334,80.64881103333335,78.0,86.0
80,80.70395803333334,81.02932533333333,74.0,89.0
81,81.14513403333333,82.26461813333334,76.0,87.0
82,82.90983803333334,83.21866123333334,69.0,86.0
83,83.35101403333334,83.67454310000001,69.0,86.0
84,83.79219003333334,84.17454256666667,76.0,87.0
85,84.23336603333334,84.5679245,73.0,85.0
86,84.67454203333334,85.62307043333334,74.0,87.0
87,86.43924603333333,86.75358393333335,71.0,86.0
88,86.88042203333335,87.24623046666667,71.0,86.0
89,87.32159803333334,87.68740646666667,78.0,86.0
90,87.76277403333334,88.13961186666667,74.0,91.0
91,88.20395003333334,88.58446433333334,73.0,85.0
92,88.64512603333334,88.7921847,71.0,85.0
93,88.86571403333333,89.29034593333334,71.0,85.0
94,89.30689003333335,89.85468356666668,69.0,86.0
95,89.96865403333334,90.2646096,79.0,87.0
96,90.40983003333334,90.53115343333334,78.0,92.0
97,90.63041803333334,90.98152060000001,78.0,89.0
98,91.07159403333334,91.42453483333334,76.0,86.0
99,91.51277003333334,92.04953416666667,78.0,89.0
100,92.17453403333334,92.54953363333334,78.0,86.0
101,92.61571003333334,92.89879796666668,78.0,87.0
102,93.05688603333334,93.33813573333335,79.0,86.0
103,93.49806203333334,93.81239993333334,81.0,86.0
104,93.93923803333334,94.25541416666667,79.0,86.0
105,94.38041403333334,94.78298713333334,78.0,91.0
106,94.82159003333334,95.15798673333335,74.0,89.0
107,95.26276603333334,96.25725026666667,76.0,84.0
108,96.80688203333334,97.00541123333333,73.0,83.0
109,97.02747003333334,97.45026370000001,81.0,86.0
110,97.46864603333334,97.81055743333334,79.0,87.0
111,97.90982203333334,98.28114516666668,78.0,89.0
112,98.35099803333334,98.74437996666667,76.0,87.0
113,98.79217403333334,99.69290836666667,74.0,92.0
114,100.11570203333333,100.3179077,76.0,91.0
115,100.33629003333334,100.477834,78.0,86.0
116,100.55687803333335,100.94290703333334,78.0,84.0
117,100.99805403333335,101.43555356666667,79.0,85.0
118,101.43923003333335,102.10467050000001,71.0,88.0
119,102.10099403333334,102.21680273333334,74.0,89.0
120,102.32158203333334,102.6671699,74.0,89.0
121,102.76275803333334,103.18738993333334,73.0,90.0
122,103.20393403333334,103.67084530000001,71.0,89.0
123,103.64511003333334,104.10466836666667,73.0,87.0
124,104.08628603333334,104.72599123333335,76.0,89.0
125,104.74805003333334,107.61201756666668,74.0,87.0
126,118.64509403333334,118.95391723333334,69.0,86.0
127,119.08627003333335,119.43921083333335,69.0,87.0
128,119.52744603333335,119.65428413333335,69.0,84.0
129,119.74803403333334,120.33259223333334,69.0,84.0
130,120.40979803333335,120.73148886666668,67.0,76.0
131,120.85097403333334,121.2958265,67.0,73.0
132,121.29215003333334,121.77192893333334,66.0,81.0
133,121.73332603333334,123.85648553333334,64.0,85.0
134,125.04214603333334,125.25170463333335,69.0,85.0
135,125.26273403333334,125.67633653333334,74.0,90.0
136,125.70391003333334,125.86199810000001,73.0,86.0
137,125.92449803333334,126.48515920000001,74.0,87.0
138,126.58626203333334,126.75905596666668,73.0,81.0
139,126.80685003333335,127.35280533333334,74.0,85.0
140,127.46861403333334,127.66162853333334,76.0,88.0
141,127.68920203333334,128.4318483,78.0,86.0
142,128.35096603333335,128.57706873333333,74.0,87.0
143,128.57155403333334,130.6358900666667,76.0,81.0
144,132.10096203333333,132.31787356666666,69.0,84.0
145,132.32155003333335,132.64691733333333,71.0,86.0
146,132.76272603333334,132.9244905666667,71.0,86.0
147,132.98331403333336,133.3123578,73.0,84.0
148,133.42449003333334,133.8197102,74.0,87.0
149,133.86566603333335,134.41162133333336,76.0,87.0
150,134.52743003333333,134.69103280000002,74.0,88.0
151,134.74801803333335,135.16897346666667,73.0,84.0
152,135.18919403333334,135.79029633333334,71.0,87.0
153,135.85095803333334,137.15794193333335,69.0,85.0
154,137.17448603333335,137.58257383333336,76.0,81.0
155,137.61566203333334,139.19470446666668,74.0,87.0
156,139.38036603333333,139.71124803333333,71.0,88.0
157,139.82154203333334,139.9575713,74.0,85.0
158,140.04213003333334,140.42999726666667,74.0,87.0
159,140.48330603333335,141.0090407666667,71.0,88.0
160,141.14507003333335,141.51087846666667,74.0,94.0
161,141.58624603333334,141.72411353333334,76.0,84.0
162,141.80683403333333,142.23146593333334,76.0,86.0
163,142.24801003333334,142.82153883333334,74.0,91.0
164,142.90977403333335,144.82888963333335,76.0,90.0
165,145.11565403333336,145.41896253333334,78.0,83.0
166,145.55683003333334,145.9171237666667,78.0,81.0
167,145.99800603333335,146.3307262666667,74.0,86.0
168,146.43918203333334,146.79396106666667,71.0,86.0
169,146.88035803333335,147.25719586666668,71.0,87.0
170,147.32153403333334,147.70756303333334,78.0,86.0
171,147.76271003333335,148.08807733333333,74.0,89.0
172,148.20388603333333,149.32337013333336,76.0,87.0
173,149.96859003333336,150.27741323333333,69.0,86.0
174,150.40976603333334,150.73329510000002,69.0,86.0
175,150.85094203333335,151.23329456666667,76.0,87.0
176,151.29211803333334,151.6266765,73.0,85.0
177,151.73329403333335,152.68182243333334,74.0,87.0
178,153.49799803333335,153.81233593333334,71.0,86.0
179,153.93917403333336,154.30498246666667,71.0,86.0
180,154.38035003333334,154.74615846666669,78.0,86.0
181,154.82152603333336,155.19836386666668,74.0,91.0
182,155.26270203333334,155.64321633333336,73.0,85.0
183,155.70387803333335,155.8509367,71.0,85.0
184,155.92446603333335,156.34909793333335,71.0,85.0
185,156.36564203333336,156.9134355666667,69.0,86.0
186,157.02740603333334,157.3233616,79.0,87.0
187,157.46858203333335,157.58990543333334,78.0,92.0
188,157.68917003333334,158.0402726,78.0,89.0
189,158.13034603333335,158.48328683333335,76.0,86.0
190,158.57152203333334,159.1082861666667,78.0,89.0
191,159.23328603333334,159.60828563333334,78.0,86.0
192,159.67446203333336,159.95754996666668,78.0,87.0
193,160.11563803333334,160.39688773333336,79.0,86.0
194,160.55681403333335,160.87115193333335,81.0,86.0
195,160.99799003333334,161.31416616666667,79.0,86.0
196,161.43916603333335,161.84173913333333,78.0,91.0
197,161.88034203333333,162.21673873333336,74.0,89.0
198,162.32151803333335,163.3160022666667,76.0,84.0
199,163.86563403333335,164.06416323333335,73.0,83.0
200,164.08622203333334,164.50901570000002,81.0,86.0
201,164.52739803333336,164.86930943333334,79.0,87.0
202,164.96857403333334,165.33989716666667,78.0,89.0
203,165.40975003333335,165.80313196666668,76.0,87.0
204,165.85092603333334,166.75166036666667,74.0,92.0
205,167.17445403333335,167.3766597,76.0,91.0
206,167.39504203333334,167.536586,78.0,86.0
207,167.61563003333333,168.00165903333334,78.0,84.0
208,168.05680603333334,168.49430556666667,79.0,85.0
209,168.49798203333336,169.16342250000002,71.0,88.0
210,169.15974603333333,169.27555473333334,74.0,89.0
211,169.38033403333336,169.7259219,74.0,89.0
212,169.82151003333334,170.24614193333335,73.0,90.0
213,170.26268603333335,170.72959730000002,71.0,89.0
214,170.70386203333334,171.16342036666668,73.0,87.0
215,171.14503803333335,171.78474323333336,76.0,89.0
216,171.80680203333335,174.67076956666668,74.0,87.0
217,174.67444603333334,174.86194583333335,74.0,92.0
218,174.89503403333336,175.01451920000002,73.0,87.0
219,175.11562203333335,175.23694543333335,74.0,89.0
220,175.33621003333334,175.4612099,73.0,94.0
221,175.55679803333334,175.84907713333334,74.0,89.0
222,176.21856203333334,176.58069400000002,74.0,91.0
223,176.65973803333335,176.93731126666668,73.0,91.0
224,177.10091403333334,177.43363426666667,73.0,91.0
225,177.54209003333335,177.66157520000002,71.0,85.0
226,177.76267803333334,178.13400116666668,69.0,87.0
227,178.20385403333336,178.40054500000002,73.0,92.0
228,178.42444203333335,178.5751771666667,71.0,80.0
229,178.64503003333334,178.81047103333336,73.0,83.0
230,178.86561803333333,178.9961326,71.0,85.0
231,179.08620603333335,179.61010253333336,73.0,87.0
232,179.74797003333336,180.1027490666667,76.0,87.0
233,180.18914603333334,180.61193970000002,74.0,92.0
234,180.63032203333336,180.85091003333335,71.0,83.0
235,180.85091003333335,180.98142460000003,74.0,89.0
236,181.07149803333334,181.2240714,76.0,89.0
237,181.29208603333333,181.63399743333335,78.0,89.0
238,182.17443803333336,182.47223183333335,74.0,92.0
239,182.61561403333334,182.9814224666667,76.0,88.0
240,183.05679003333336,183.36561323333333,74.0,96.0
241,183.49796603333334,183.8196568666667,76.0,92.0
242,183.93914203333335,184.25531816666668,74.0,89.0
243,184.38031803333334,184.77186173333334,76.0,87.0
244,184.82149403333335,185.2442877,74.0,92.0
245,185.26267003333334,185.64869903333334,76.0,80.0
246,185.70384603333335,186.26083073333334,74.0,91.0
247,186.36561003333335,186.77921253333335,76.0,86.0
248,186.80678603333334,187.04391813333334,74.0,85.0
249,187.02737403333336,190.1395030666667,76.0,86.0
250,190.99795803333336,191.30126653333335,78.0,83.0
251,191.43913403333335,191.79942776666667,78.0,81.0
252,191.88031003333336,192.2130302666667,74.0,86.0
253,192.32148603333334,192.67626506666667,71.0,86.0
254,192.76266203333336,193.13949986666668,71.0,87.0
255,193.20383803333334,193.58986703333335,78.0,86.0
256,193.64501403333335,193.97038133333334,74.0,89.0
257,194.08619003333334,195.20567413333336,76.0,87.0
258,195.85089403333336,196.15971723333334,69.0,86.0
259,196.29207003333335,196.61559910000003,69.0,86.0
260,196.73324603333336,197.11559856666668,76.0,87.0
261,197.17442203333334,197.5089805,73.0,85.0
262,197.61559803333336,198.56412643333334,74.0,87.0
263,199.38030203333335,199.69463993333335,71.0,86.0
264,199.82147803333334,200.18728646666668,71.0,86.0
265,200.26265403333335,200.6284624666667,78.0,86.0
266,200.70383003333336,201.0806678666667,74.0,91.0
267,201.14500603333335,201.52552033333336,73.0,85.0
268,201.58618203333336,201.7332407,71.0,85.0
269,201.80677003333335,202.23140193333336,71.0,85.0
270,202.24794603333333,202.79573956666667,69.0,86.0
271,202.90971003333334,203.2056656,79.0,87.0
272,203.35088603333335,203.47220943333335,78.0,92.0
273,203.57147403333335,203.9225766,78.0,89.0
274,204.01265003333336,204.36559083333336,76.0,86.0
275,204.45382603333334,204.9905901666667,78.0,89.0
276,205.11559003333335,205.49058963333334,78.0,86.0
277,205.55676603333336,205.83985396666668,78.0,87.0
278,205.99794203333335,206.27919173333336,79.0,86.0
279,206.43911803333336,206.75345593333336,81.0,86.0
280,206.88029403333334,207.19647016666667,79.0,86.0
281,207.32147003333336,207.72404313333334,78.0,91.0
282,207.76264603333334,208.09904273333336,74.0,89.0
283,208.20382203333335,209.1983062666667,76.0,84.0
284,209.74793803333336,209.94646723333335,73.0,83.0
285,209.96852603333335,210.39131970000003,81.0,86.0
286,210.40970203333336,210.75161343333335,79.0,87.0
287,210.85087803333334,211.22220116666668,78.0,89.0
288,211.29205403333336,211.6854359666667,76.0,87.0
289,211.73323003333334,212.63396436666667,74.0,92.0
290,213.05675803333335,213.2589637,76.0,91.0
291,213.27734603333334,213.41889,78.0,86.0
292,213.49793403333334,213.88396303333334,78.0,84.0
293,213.93911003333335,214.37660956666667,79.0,85.0
294,214.38028603333336,215.04572650000003,71.0,88.0
295,215.04205003333334,215.15785873333334,74.0,89.0
296,215.26263803333336,215.6082259,74.0,89.0
297,215.70381403333334,216.12844593333335,73.0,90.0
298,216.14499003333336,216.61190130000003,71.0,89.0
299,216.58616603333334,217.0457243666667,73.0,87.0
300,217.02734203333335,217.66704723333336,76.0,89.0
301,217.68910603333336,219.9574859666667,74.0,87.0
302,220.2681474,220.54572063333336,76.0,85.0
303,220.52366183333336,220.7460880666667,78.0,79.0
304,220.85822030000003,221.31226393333336,78.0,86.0
305,221.4078520666667,221.75711640000003,79.0,82.0
306,221.78101343333336,222.5346891,71.0,84.0
307,222.68358600000002,222.89865930000002,74.0,84.0
308,222.99976213333335,223.43542343333334,74.0,87.0
309,223.5420409666667,224.01446693333335,73.0,74.0
310,224.09351096666668,225.62475933333334,71.0,85.0
311,226.19828813333336,227.22953703333334,73.0,83.0
312,227.1946106,229.61259553333338,74.0,89.0
