,start,end,pitch,velocity
0,9.233446033333333,9.887857100000002,55.0,79.0
1,9.454034033333334,10.176459733333335,62.0,77.0
2,10.115798033333334,10.294106666666668,55.0,75.0
3,9.895210033333335,10.305136066666668,67.0,80.0
4,10.556974033333335,11.4871201,55.0,63.0
5,10.556974033333335,11.4981495,59.0,55.0
6,10.556974033333335,11.507340666666668,62.0,69.0
7,9.012858033333334,11.6029288,50.0,76.0
8,8.792270033333335,11.628664066666667,43.0,83.0
9,12.321678033333335,13.492632666666667,42.0,78.0
10,12.542266033333334,13.511015,49.0,66.0
11,12.762854033333335,13.547779666666667,54.0,76.0
12,12.983442033333334,13.575353166666668,57.0,76.0
13,14.086382033333335,14.573513866666667,62.0,82.0
14,14.527558033333335,14.965057566666667,57.0,84.0
15,14.748146033333335,15.101086833333335,62.0,80.0
16,14.306970033333334,15.183807333333334,54.0,74.0
17,15.189322033333335,15.262851366666668,62.0,74.0
18,14.086382033333335,15.332704233333335,47.0,85.0
19,15.189322033333335,15.363954200000002,66.0,75.0
20,15.851086033333335,16.1801298,59.0,75.0
21,15.851086033333335,16.4613795,67.0,66.0
22,16.292262033333333,16.981599533333334,59.0,73.0
23,16.512850033333336,17.005496566666668,64.0,85.0
24,16.071674033333334,17.13233466666667,47.0,73.0
25,15.851086033333335,17.19851106666667,40.0,86.0
26,17.174614033333334,17.69483406666667,59.0,73.0
27,16.954026033333335,17.9117456,67.0,79.0
28,18.056966033333335,18.444833266666667,55.0,80.0
29,18.277554033333335,18.470568533333335,61.0,80.0
30,18.498142033333334,18.959538600000002,64.0,80.0
31,17.836378033333336,19.0753473,52.0,73.0
32,17.615790033333333,19.136009,45.0,82.0
33,19.380494033333335,19.591890866666667,57.0,69.0
34,19.821670033333334,20.3933606,57.0,69.0
35,19.380494033333335,20.7407867,62.0,73.0
36,20.262846033333336,20.759169033333336,67.0,77.0
37,19.380494033333335,20.935639433333336,50.0,77.0
38,20.704022033333334,21.270197900000003,57.0,72.0
39,21.145198033333337,21.7389474,62.0,75.0
40,21.145198033333337,21.74262386666667,66.0,74.0
41,21.586374033333335,21.83085906666667,57.0,59.0
42,21.145198033333337,22.8253433,50.0,79.0
43,22.027550033333334,22.871299133333334,62.0,70.0
44,22.027550033333334,22.893357933333334,66.0,70.0
45,23.792254033333336,24.283062333333334,52.0,85.0
46,24.233430033333335,24.718723633333337,54.0,91.0
47,23.351078033333334,24.852914666666667,45.0,70.0
48,25.115782033333335,25.72423726666667,45.0,54.0
49,22.909902033333335,25.838207733333334,38.0,89.0
50,25.556958033333334,25.838207733333334,50.0,64.0
51,25.556958033333334,25.849237133333336,54.0,78.0
52,24.674606033333337,25.98342816666667,57.0,85.0
53,26.880486033333334,27.547764733333334,52.0,66.0
54,27.321662033333336,27.849235000000004,61.0,87.0
55,28.204014033333337,28.3179845,57.0,67.0
56,28.204014033333337,28.66908706666667,61.0,75.0
57,28.204014033333337,28.716881133333334,64.0,84.0
58,26.439310033333335,29.441145066666667,45.0,80.0
59,29.086366033333334,29.652541900000003,61.0,79.0
60,27.762838033333335,29.781218233333334,52.0,74.0
61,29.968718033333335,30.567982100000002,59.0,75.0
62,30.409894033333337,31.040408066666668,54.0,68.0
63,29.968718033333335,31.106584466666668,62.0,81.0
64,30.851070033333336,32.07717166666667,59.0,82.0
65,31.292246033333335,32.635994600000004,54.0,49.0
66,31.733422033333337,32.681950433333334,66.0,81.0
67,29.968718033333335,32.91356783333334,47.0,79.0
68,32.61577403333334,33.01283243333334,62.0,80.0
69,33.05695003333334,33.57533183333334,59.0,65.0
70,33.498126033333335,34.4172427,61.0,84.0
71,33.939302033333334,34.634154233333334,52.0,76.0
72,34.38047803333333,34.9962862,57.0,82.0
73,35.26283003333334,35.75547656666667,61.0,75.0
74,35.26283003333334,35.8124618,57.0,78.0
75,35.704006033333336,36.189299633333334,62.0,80.0
76,34.82165403333334,36.4687111,52.0,79.0
77,33.498126033333335,36.52201986666667,45.0,77.0
78,36.145182033333334,36.58268156666667,61.0,77.0
79,36.58635803333333,36.77018136666667,57.0,81.0
80,37.02753403333334,37.97790066666667,62.0,81.0
81,37.909886033333336,38.4540031,55.0,87.0
82,38.351062033333335,38.483414833333335,59.0,89.0
83,38.792238033333334,39.0054731,55.0,81.0
84,38.792238033333334,39.03672306666667,62.0,76.0
85,37.46871003333334,39.05878186666667,50.0,70.0
86,37.02753403333334,39.0606201,43.0,84.0
87,39.67459003333334,39.97973676666667,45.0,86.0
88,39.67459003333334,40.1745895,61.0,77.0
89,39.67459003333334,40.18745713333334,57.0,79.0
90,40.556942033333335,41.2609854,57.0,72.0
91,40.556942033333335,41.54039686666667,61.0,77.0
92,40.556942033333335,41.604735033333334,42.0,74.0
93,40.998118033333334,41.604735033333334,49.0,67.0
94,41.43929403333334,42.14517563333334,66.0,87.0
95,42.32164603333334,42.937454200000005,62.0,79.0
96,42.32164603333334,42.950321833333334,57.0,73.0
97,42.762822033333336,43.248115633333335,54.0,67.0
98,43.203998033333335,43.29407146666667,57.0,73.0
99,42.32164603333334,43.4282625,47.0,85.0
100,43.203998033333335,43.60105643333333,66.0,73.0
101,43.203998033333335,43.70767396666667,62.0,80.0
102,44.08635003333334,45.029363733333334,64.0,82.0
103,44.96870203333334,45.51649556666667,59.0,86.0
104,45.409878033333335,45.57715726666667,64.0,81.0
105,44.08635003333334,46.7260531,40.0,76.0
106,44.52752603333334,46.73708250000001,47.0,74.0
107,45.851054033333334,46.749950133333336,67.0,76.0
108,45.851054033333334,46.7591413,64.0,81.0
109,45.851054033333334,46.78303833333334,59.0,79.0
110,48.277522033333334,48.700315700000004,55.0,79.0
111,48.49811003333334,48.751786233333334,58.0,87.0
112,48.71869803333334,48.953991900000005,64.0,87.0
113,48.056934033333334,49.0091389,50.0,71.0
114,47.615758033333336,49.33818266666667,43.0,86.0
115,49.38046203333334,49.742594000000004,55.0,74.0
116,49.38046203333334,49.865755633333336,48.0,85.0
117,49.38046203333334,49.871270333333335,60.0,77.0
118,50.262814033333335,51.11759253333334,57.0,68.0
119,50.262814033333335,51.13965133333334,45.0,86.0
120,50.262814033333335,51.14516603333334,61.0,74.0
121,51.14516603333334,51.71869483333334,57.0,73.0
122,51.14516603333334,51.79773886666667,62.0,75.0
123,52.02751803333334,52.0973709,57.0,50.0
124,51.58634203333334,52.44663523333334,45.0,66.0
125,52.02751803333334,52.49810576666667,64.0,85.0
126,51.14516603333334,52.6157527,38.0,87.0
127,52.468694033333335,52.81795836666667,57.0,79.0
128,52.909870033333334,53.48523706666667,62.0,78.0
129,52.909870033333334,53.5587664,66.0,75.0
130,53.35104603333334,53.5642811,57.0,64.0
131,53.79222203333334,53.972368900000006,57.0,81.0
132,52.909870033333334,54.05325116666667,38.0,71.0
133,53.79222203333334,54.35472143333334,66.0,85.0
134,53.79222203333334,54.363912600000006,62.0,85.0
135,54.23339803333334,54.545897700000005,57.0,74.0
136,54.674574033333336,54.96685313333334,57.0,75.0
137,54.674574033333336,55.20949993333334,61.0,75.0
138,55.115750033333335,55.34920566666667,57.0,73.0
139,55.55692603333334,55.755455233333336,61.0,78.0
140,55.55692603333334,55.77383756666667,64.0,85.0
141,56.43927803333334,56.74258653333334,69.0,81.0
142,56.43927803333334,56.89699813333334,61.0,81.0
143,56.880454033333336,57.060600900000004,57.0,78.0
144,57.321630033333335,57.663541433333336,61.0,91.0
145,57.321630033333335,57.67640906666667,57.0,85.0
146,55.99810203333334,57.74074723333334,52.0,67.0
147,54.674574033333336,57.89515883333334,45.0,79.0
148,57.76280603333334,57.99993813333334,62.0,84.0
149,58.20398203333334,58.6378051,62.0,80.0
150,58.20398203333334,58.66905506666667,59.0,74.0
151,58.64515803333334,59.27567206666667,54.0,67.0
152,59.08633403333334,59.36758373333334,59.0,80.0
153,59.08633403333334,59.395157233333336,66.0,86.0
154,59.08633403333334,59.41170133333334,62.0,81.0
155,59.527510033333336,60.137803500000004,54.0,56.0
156,59.96868603333334,60.46500903333334,59.0,80.0
157,59.96868603333334,60.48339136666667,62.0,80.0
158,58.20398203333334,60.53853836666667,47.0,85.0
159,60.40986203333334,60.999934933333336,54.0,45.0
160,60.85103803333334,61.0146408,59.0,83.0
161,60.85103803333334,61.2738317,62.0,85.0
162,60.85103803333334,61.3179493,66.0,81.0
163,61.29221403333334,61.476037366666674,59.0,80.0
164,61.733390033333336,62.21500716666667,61.0,78.0
165,61.733390033333336,62.24441890000001,57.0,77.0
166,62.61574203333334,62.79772713333334,57.0,84.0
167,61.733390033333336,62.84368296666667,42.0,86.0
168,62.174566033333335,62.84368296666667,49.0,62.0
169,62.61574203333334,63.13412383333334,61.0,89.0
170,62.61574203333334,63.165373800000005,66.0,80.0
171,63.05691803333334,63.27750603333334,57.0,86.0
172,63.49809403333334,63.87309363333334,57.0,85.0
173,63.49809403333334,64.0422111,60.0,85.0
174,63.93927003333334,64.09551986666668,52.0,83.0
175,63.49809403333334,64.12125513333334,45.0,87.0
176,64.15985803333334,64.2958873,57.0,85.0
177,64.38044603333334,64.59368110000001,57.0,85.0
178,64.38044603333334,64.63044576666667,62.0,83.0
179,64.60103403333333,64.99809243333334,45.0,74.0
180,64.38044603333334,65.0127983,38.0,89.0
181,64.82162203333334,65.21868043333333,57.0,87.0
182,65.04221003333333,65.25176863333334,66.0,82.0
183,65.70397403333334,66.2150029,55.0,80.0
184,65.92456203333334,66.25912050000001,59.0,80.0
185,66.36573803333334,66.54220843333334,55.0,77.0
186,66.36573803333334,66.54956136666667,59.0,77.0
187,65.26279803333334,66.56426723333334,43.0,86.0
188,65.48338603333333,66.59367896666667,50.0,78.0
189,66.36573803333334,66.59919366666666,62.0,82.0
190,67.02750203333333,67.56242793333334,57.0,79.0
191,67.02750203333333,67.61389846666667,61.0,79.0
192,67.46867803333333,68.09735383333334,52.0,73.0
193,67.90985403333333,68.10470676666667,57.0,83.0
194,67.02750203333333,68.14514790000001,45.0,86.0
195,67.90985403333333,68.19294196666667,64.0,86.0
196,67.90985403333333,68.19661843333334,61.0,88.0
197,68.79220603333334,69.22970556666667,57.0,79.0
198,68.79220603333334,69.48522,61.0,77.0
199,68.79220603333334,69.73705796666667,42.0,87.0
200,69.23338203333334,69.77198440000001,49.0,77.0
201,69.45397003333333,69.8933078,57.0,85.0
202,69.67455803333334,69.95213126666667,61.0,89.0
203,69.89514603333333,70.10470463333334,66.0,89.0
204,70.55691003333334,71.1837476,57.0,76.0
205,70.55691003333334,71.18926230000001,62.0,81.0
206,70.99808603333334,72.0164673,54.0,70.0
207,70.55691003333334,72.132276,47.0,86.0
208,71.43926203333334,72.16904066666667,62.0,78.0
209,71.43926203333334,72.22234943333333,66.0,76.0
210,72.32161403333333,72.80139293333333,59.0,81.0
211,72.32161403333333,73.05139266666667,67.0,79.0
212,72.98337803333334,73.29220123333334,59.0,85.0
213,72.76279003333335,73.47970103333334,47.0,75.0
214,72.32161403333333,73.54587743333335,40.0,85.0
215,73.42455403333334,73.61756853333334,64.0,85.0
216,73.42455403333334,73.64698026666667,59.0,85.0
217,74.08631803333334,74.38411183333334,59.0,80.0
218,74.08631803333334,74.6359498,64.0,85.0
219,74.08631803333334,74.65617036666667,67.0,78.0
220,74.52749403333334,74.72234676666667,59.0,79.0
221,74.74808203333333,74.82161136666667,59.0,72.0
222,74.74808203333333,75.26646383333333,64.0,88.0
223,74.74808203333333,75.40616956666668,67.0,86.0
224,74.08631803333334,75.4686695,38.0,75.0
225,75.18925803333335,75.49256653333335,59.0,85.0
226,75.40984603333334,75.9208749,64.0,80.0
227,75.63043403333334,75.93006606666667,59.0,72.0
228,76.29219803333334,76.50359486666667,55.0,71.0
229,76.29219803333334,76.52565366666667,57.0,70.0
230,76.51278603333334,76.7701387,61.0,86.0
231,76.07161003333334,77.12491773333333,52.0,78.0
232,76.95396203333334,77.1341089,57.0,82.0
233,76.95396203333334,77.14697653333334,61.0,85.0
234,76.95396203333334,77.17087356666667,64.0,87.0
235,75.85102203333334,77.20763823333334,45.0,87.0
236,77.61572603333335,77.93006393333334,57.0,79.0
237,77.61572603333335,77.99991680000001,69.0,83.0
238,77.61572603333335,78.01462266666667,61.0,78.0
239,77.61572603333335,78.98520986666668,45.0,86.0
240,78.05690203333334,78.99072456666667,52.0,73.0
241,78.49807803333334,79.3455036,61.0,81.0
242,78.49807803333334,79.35837123333334,55.0,85.0
243,78.49807803333334,79.37859180000001,64.0,86.0
244,79.38043003333334,79.74991493333334,62.0,80.0
245,79.38043003333334,79.78851783333334,55.0,81.0
246,79.82160603333334,80.30138493333334,50.0,74.0
247,80.26278203333334,80.51829646666667,55.0,88.0
248,80.26278203333334,80.54035526666668,59.0,90.0
249,79.38043003333334,80.92638426666667,43.0,85.0
250,80.70395803333334,80.98153126666668,55.0,84.0
251,80.48337003333334,81.00726653333334,50.0,85.0
252,80.92454603333334,81.20947220000001,59.0,85.0
253,81.14513403333333,81.49807483333333,61.0,85.0
254,81.14513403333333,81.56608946666667,57.0,76.0
255,81.58631003333333,82.22050053333334,52.0,64.0
256,81.14513403333333,82.2296917,45.0,86.0
257,82.02748603333335,82.3565298,57.0,84.0
258,82.02748603333335,82.4061621,61.0,89.0
259,82.02748603333335,82.43557383333334,64.0,87.0
260,82.46866203333335,82.61204423333334,45.0,85.0
261,82.68925003333334,82.8363087,57.0,79.0
262,82.90983803333334,83.36755813333333,57.0,76.0
263,82.90983803333334,83.42638160000001,61.0,78.0
264,83.35101403333334,83.88042523333334,49.0,65.0
265,83.79219003333334,84.0495427,57.0,86.0
266,82.90983803333334,84.08079266666667,42.0,87.0
267,84.01277803333333,84.14513083333334,49.0,76.0
268,83.79219003333334,84.31608653333333,61.0,91.0
269,83.79219003333334,84.32895416666668,66.0,85.0
270,84.23336603333334,84.41718936666668,57.0,86.0
271,84.67454203333334,85.19292383333334,59.0,82.0
272,84.67454203333334,85.22968850000001,62.0,81.0
273,85.11571803333334,85.588144,54.0,72.0
274,85.55689403333334,85.81608493333334,57.0,85.0
275,84.67454203333334,85.88777603333334,47.0,85.0
276,85.77748203333334,85.92454070000001,54.0,82.0
277,85.55689403333334,85.95211420000001,62.0,86.0
278,85.55689403333334,86.24255506666667,66.0,86.0
279,85.99807003333333,86.30689323333334,57.0,85.0
280,86.21865803333334,86.47049600000001,62.0,79.0
281,86.43924603333333,86.97968663333334,59.0,70.0
282,86.43924603333333,87.04770126666668,64.0,80.0
283,86.88042203333335,87.41902440000001,47.0,77.0
284,87.32159803333334,87.49623020000001,59.0,85.0
285,86.43924603333333,87.50358313333334,40.0,87.0
286,87.32159803333334,87.76277403333334,67.0,83.0
287,87.32159803333334,87.77931813333333,64.0,88.0
288,87.76277403333334,87.89880330000001,59.0,79.0
289,88.20395003333334,88.6653466,57.0,77.0
290,88.20395003333334,88.67453776666667,61.0,74.0
291,88.20395003333334,88.77747883333333,64.0,86.0
292,88.64512603333334,88.97416980000001,52.0,74.0
293,88.86571403333333,89.17453723333334,57.0,87.0
294,89.08630203333334,89.40063993333334,52.0,86.0
295,88.20395003333334,89.51461040000001,45.0,86.0
296,89.30689003333335,89.55321330000001,57.0,87.0
297,89.30689003333335,89.6359338,61.0,101.0
298,89.52747803333334,89.74255133333334,49.0,78.0
299,89.30689003333335,89.82527183333335,64.0,92.0
300,89.74806603333334,89.86387473333335,57.0,86.0
301,89.96865403333334,90.59181513333334,57.0,86.0
302,89.96865403333334,90.69107973333334,55.0,86.0
303,89.96865403333334,90.72968263333334,60.0,90.0
304,90.40983003333334,90.8988001,52.0,85.0
305,90.85100603333333,91.12306456666667,55.0,88.0
306,89.96865403333334,91.16534393333335,45.0,89.0
307,90.85100603333333,91.1800498,60.0,92.0
308,90.85100603333333,91.18740273333334,64.0,91.0
309,91.07159403333334,91.22784386666667,52.0,90.0
310,91.29218203333335,91.55872586666668,55.0,87.0
311,91.51277003333334,91.6598287,60.0,85.0
312,91.73335803333335,92.00541656666667,57.0,81.0
313,91.73335803333335,92.2168134,66.0,80.0
314,91.73335803333335,92.25909276666667,60.0,82.0
315,92.17453403333334,92.27379863333334,57.0,72.0
316,91.73335803333335,92.48335723333334,50.0,91.0
317,92.39512203333334,92.68372466666668,57.0,85.0
318,92.39512203333334,92.71129816666668,62.0,87.0
319,92.61571003333334,92.94107733333334,50.0,91.0
320,92.83629803333334,92.9833567,57.0,86.0
321,92.83629803333334,93.13041536666667,60.0,88.0
322,93.27747403333333,93.36203276666667,55.0,77.0
323,93.49806203333334,93.93739980000001,59.0,86.0
324,93.49806203333334,93.95210566666667,55.0,86.0
325,93.93923803333334,94.43004633333334,50.0,72.0
326,94.38041403333334,94.59364910000001,55.0,84.0
327,94.38041403333334,94.65247256666667,59.0,87.0
328,94.38041403333334,94.72232543333334,62.0,86.0
329,93.49806203333334,94.9465899,43.0,87.0
330,94.60100203333334,94.99806043333334,50.0,76.0
331,94.82159003333334,95.11754560000001,55.0,78.0
332,95.04217803333334,95.32894243333334,59.0,76.0
333,95.26276603333334,95.68555970000001,61.0,85.0
334,95.26276603333334,95.75908903333334,57.0,83.0
335,95.70394203333333,96.2094562,52.0,76.0
336,96.14511803333335,96.61386753333333,57.0,82.0
337,96.14511803333335,96.63776456666668,61.0,92.0
338,95.2829866,96.672691,43.0,86.0
339,96.14511803333335,96.672691,64.0,87.0
340,96.58629403333335,96.70394096666668,52.0,81.0
341,97.02747003333334,97.45945486666668,57.0,80.0
342,97.02747003333334,97.5109254,61.0,86.0
343,97.46864603333334,97.72967516666668,49.0,64.0
344,97.68923403333334,97.93555730000001,61.0,90.0
345,97.68923403333334,97.98518960000001,57.0,85.0
346,97.02747003333334,98.05871893333334,42.0,87.0
347,97.68923403333334,98.18739526666667,66.0,87.0
348,97.92085143333334,98.45761556666668,46.0,79.0
349,98.13041003333333,98.51827726666667,61.0,94.0
350,98.35099803333334,98.7351888,58.0,85.0
351,98.79217403333334,99.4686439,57.0,82.0
352,98.79217403333334,99.48702623333334,62.0,85.0
353,99.23335003333334,99.7112907,54.0,58.0
354,99.67452603333334,99.91349636666668,57.0,85.0
355,98.79217403333334,99.96680513333334,47.0,86.0
356,99.67452603333334,100.02930506666668,62.0,88.0
357,99.89511403333334,100.05320210000001,54.0,76.0
358,99.67452603333334,100.12305496666667,66.0,86.0
359,100.11570203333333,100.2793048,47.0,85.0
360,100.55687803333335,101.16349503333335,64.0,84.0
361,100.55687803333335,101.19106853333334,59.0,78.0
362,100.99805403333335,101.51643583333335,47.0,70.0
363,100.55687803333335,101.76643556666667,40.0,86.0
364,101.43923003333335,101.85099430000001,59.0,81.0
365,101.43923003333335,101.86202370000001,64.0,87.0
366,101.43923003333335,101.93739126666668,67.0,81.0
367,102.32158203333334,102.7774639,55.0,79.0
368,102.32158203333334,102.81790503333335,61.0,73.0
369,102.76275803333334,103.26643396666667,52.0,72.0
370,102.32158203333334,103.41349263333335,45.0,84.0
371,103.20393403333334,103.62488946666667,61.0,85.0
372,103.20393403333334,103.70209526666667,57.0,79.0
373,103.20393403333334,103.73518346666667,64.0,86.0
374,104.08628603333334,104.56974140000001,59.0,75.0
375,104.08628603333334,104.61753546666668,55.0,78.0
376,104.74805003333334,105.1818731,57.0,82.0
377,105.18922603333334,105.59731383333335,62.0,82.0
378,104.52746203333334,106.8638566,50.0,65.0
379,106.95393003333334,107.17451803333334,50.0,81.0
380,104.08628603333334,107.205768,43.0,84.0
381,107.17451803333334,107.55687056666667,55.0,82.0
382,107.39510603333333,107.59363523333334,62.0,75.0
383,107.61569403333334,107.86569376666668,57.0,72.0
384,107.61569403333334,108.10650233333334,61.0,78.0
385,107.61569403333334,108.70208993333334,42.0,81.0
386,107.83628203333335,108.75539870000001,49.0,71.0
387,108.27745803333335,108.77929573333334,61.0,88.0
388,108.05687003333334,108.79583983333335,57.0,80.0
389,108.71863403333334,108.98150140000001,66.0,85.0
390,109.38039803333334,110.10098550000001,57.0,73.0
391,109.38039803333334,110.31422056666668,62.0,79.0
392,109.82157403333335,110.38223520000001,54.0,55.0
393,110.26275003333335,110.46679393333334,57.0,71.0
394,109.38039803333334,110.55686736666668,47.0,85.0
395,111.14510203333334,111.59546920000001,59.0,80.0
396,111.14510203333334,111.75355726666668,64.0,83.0
397,111.58627803333334,112.18186563333335,47.0,74.0
398,111.14510203333334,112.24252733333334,40.0,88.0
399,111.80686603333334,112.27193906666668,59.0,84.0
400,112.02745403333334,112.28664493333333,64.0,79.0
401,112.24804203333335,112.37855660000001,67.0,87.0
402,112.90980603333334,113.15980576666668,57.0,74.0
403,112.90980603333334,113.32892323333334,61.0,76.0
404,113.35098203333334,113.81789330000001,57.0,74.0
405,113.57157003333334,113.84362856666668,61.0,91.0
406,112.90980603333334,113.89509910000001,42.0,82.0
407,113.13039403333335,113.9171579,49.0,74.0
408,113.79215803333334,114.10649593333335,66.0,89.0
409,114.01274603333334,114.28480456666668,61.0,87.0
410,114.23333403333334,114.38590740000001,57.0,82.0
411,114.67451003333335,114.92267153333334,55.0,80.0
412,114.67451003333335,115.15980363333334,58.0,71.0
413,115.11568603333335,115.4337004,55.0,84.0
414,115.33627403333334,115.82892056666668,62.0,86.0
415,114.89509803333334,115.89142050000001,50.0,72.0
416,114.67451003333335,115.9520822,43.0,85.0
417,115.99803803333334,116.14509670000001,55.0,84.0
418,115.77745003333334,116.2664201,67.0,86.0
419,116.43921403333334,118.06605053333334,57.0,75.0
420,116.43921403333334,118.06788876666667,61.0,77.0
421,116.43921403333334,118.124874,45.0,86.0
422,118.20391803333334,118.77744683333334,57.0,73.0
423,118.20391803333334,118.85649086666668,62.0,75.0
424,119.08627003333335,119.15612290000001,57.0,50.0
425,118.64509403333334,119.50538723333334,45.0,66.0
426,119.08627003333335,119.55685776666668,64.0,85.0
427,118.20391803333334,119.67450470000001,38.0,87.0
428,119.52744603333335,119.87671036666667,57.0,79.0
429,119.96862203333335,120.54398906666668,62.0,78.0
430,119.96862203333335,120.61751840000001,66.0,75.0
431,120.40979803333335,120.62303310000001,57.0,64.0
432,120.85097403333334,121.0311209,57.0,81.0
433,119.96862203333335,121.11200316666668,38.0,71.0
434,120.85097403333334,121.41347343333334,66.0,85.0
435,120.85097403333334,121.4226646,62.0,85.0
436,121.29215003333334,121.60464970000001,57.0,74.0
437,121.73332603333334,122.02560513333334,57.0,75.0
438,121.73332603333334,122.26825193333335,61.0,75.0
439,122.17450203333334,122.40795766666668,57.0,73.0
440,122.61567803333334,122.81420723333335,61.0,78.0
441,122.61567803333334,122.83258956666667,64.0,85.0
442,123.49803003333334,123.80133853333334,69.0,81.0
443,123.49803003333334,123.95575013333334,61.0,81.0
444,123.93920603333335,124.11935290000001,57.0,78.0
445,124.38038203333335,124.72229343333335,61.0,91.0
446,124.38038203333335,124.73516106666668,57.0,85.0
447,123.05685403333334,124.79949923333334,52.0,67.0
448,121.73332603333334,124.95391083333334,45.0,79.0
449,124.82155803333335,125.05869013333334,62.0,84.0
450,125.26273403333334,125.6965571,62.0,80.0
451,125.26273403333334,125.72780706666667,59.0,74.0
452,125.70391003333334,126.33442406666667,54.0,67.0
453,126.14508603333334,126.42633573333335,59.0,80.0
454,126.14508603333334,126.45390923333335,66.0,86.0
455,126.14508603333334,126.47045333333334,62.0,81.0
456,126.58626203333334,127.19655550000002,54.0,56.0
457,127.02743803333334,127.52376103333334,59.0,80.0
458,127.02743803333334,127.54214336666668,62.0,80.0
459,125.26273403333334,127.59729036666667,47.0,85.0
460,127.46861403333334,128.05868693333335,54.0,45.0
461,127.90979003333334,128.07339280000002,59.0,83.0
462,127.90979003333334,128.33258370000001,62.0,85.0
463,127.90979003333334,128.3767013,66.0,81.0
464,128.35096603333335,128.53478936666667,59.0,80.0
465,128.79214203333333,129.27375916666668,61.0,78.0
466,128.79214203333333,129.3031709,57.0,77.0
467,129.67449403333333,129.85647913333335,57.0,84.0
468,128.79214203333333,129.90243496666668,42.0,86.0
469,129.23331803333335,129.90243496666668,49.0,62.0
470,129.67449403333333,130.19287583333335,61.0,89.0
471,129.67449403333333,130.2241258,66.0,80.0
472,130.11567003333334,130.33625803333334,57.0,86.0
473,130.55684603333333,130.93184563333335,57.0,85.0
474,130.55684603333333,131.1009631,60.0,85.0
475,130.99802203333334,131.15427186666668,52.0,83.0
476,130.55684603333333,131.18000713333333,45.0,87.0
477,131.21861003333333,131.3546393,57.0,85.0
478,131.43919803333335,131.6524331,57.0,85.0
479,131.43919803333335,131.68919776666667,62.0,83.0
480,131.65978603333335,132.05684443333334,45.0,74.0
481,131.43919803333335,132.0715503,38.0,89.0
482,131.88037403333334,132.27743243333333,57.0,87.0
483,132.10096203333333,132.31052063333334,66.0,82.0
484,132.76272603333334,133.2737549,55.0,80.0
485,132.98331403333336,133.31787250000002,59.0,80.0
486,133.42449003333334,133.60096043333334,55.0,77.0
487,133.42449003333334,133.60831336666666,59.0,77.0
488,132.32155003333335,133.62301923333334,43.0,86.0
489,132.54213803333334,133.65243096666669,50.0,78.0
490,133.42449003333334,133.65794566666668,62.0,82.0
491,134.08625403333335,134.62117993333334,57.0,79.0
492,134.08625403333335,134.67265046666668,61.0,79.0
493,134.52743003333333,135.15610583333336,52.0,73.0
494,134.96860603333334,135.16345876666668,57.0,83.0
495,134.08625403333335,135.2038999,45.0,86.0
496,134.96860603333334,135.25169396666666,64.0,86.0
497,134.96860603333334,135.25537043333335,61.0,88.0
498,135.85095803333334,136.28845756666666,57.0,79.0
499,135.85095803333334,136.543972,61.0,77.0
500,135.85095803333334,136.79580996666667,42.0,87.0
501,136.29213403333335,136.8307364,49.0,77.0
502,136.51272203333335,136.9520598,57.0,85.0
503,136.73331003333334,137.01088326666667,61.0,89.0
504,136.95389803333333,137.16345663333334,66.0,89.0
505,137.61566203333334,138.2424996,57.0,76.0
506,137.61566203333334,138.24801430000002,62.0,81.0
507,138.05683803333335,139.07521930000001,54.0,70.0
508,137.61566203333334,139.19102800000002,47.0,86.0
509,138.49801403333333,139.2277926666667,62.0,78.0
510,138.49801403333333,139.28110143333333,66.0,76.0
511,139.38036603333333,139.86014493333334,59.0,81.0
512,139.38036603333333,140.11014466666668,67.0,79.0
513,140.04213003333334,140.35095323333334,59.0,85.0
514,139.82154203333334,140.53845303333335,47.0,75.0
515,139.38036603333333,140.60462943333334,40.0,85.0
516,140.48330603333335,140.67632053333335,64.0,85.0
517,140.48330603333335,140.70573226666667,59.0,85.0
518,141.14507003333335,141.44286383333335,59.0,80.0
519,141.14507003333335,141.69470180000002,64.0,85.0
520,141.14507003333335,141.71492236666668,67.0,78.0
521,141.58624603333334,141.78109876666667,59.0,79.0
522,141.80683403333333,141.88036336666667,59.0,72.0
523,141.80683403333333,142.32521583333335,64.0,88.0
524,141.80683403333333,142.46492156666667,67.0,86.0
525,141.14507003333335,142.5274215,38.0,75.0
526,142.24801003333334,142.55131853333336,59.0,85.0
527,142.46859803333334,142.9796269,64.0,80.0
528,142.68918603333336,142.98881806666668,59.0,72.0
529,143.35095003333333,143.56234686666667,55.0,71.0
530,143.35095003333333,143.58440566666667,57.0,70.0
531,143.57153803333335,143.82889070000002,61.0,86.0
532,143.13036203333334,144.18366973333335,52.0,78.0
533,144.01271403333334,144.1928609,57.0,82.0
534,144.01271403333334,144.20572853333334,61.0,85.0
535,144.01271403333334,144.22962556666667,64.0,87.0
536,142.90977403333335,144.26639023333334,45.0,87.0
537,144.67447803333334,144.98881593333334,57.0,79.0
538,144.67447803333334,145.05866880000002,69.0,83.0
539,144.67447803333334,145.07337466666667,61.0,78.0
540,144.67447803333334,146.04396186666668,45.0,86.0
541,145.11565403333336,146.04947656666667,52.0,73.0
542,145.55683003333334,146.4042556,61.0,81.0
543,145.55683003333334,146.41712323333334,55.0,85.0
544,145.55683003333334,146.4373438,64.0,86.0
545,146.43918203333334,146.80866693333334,62.0,80.0
546,146.43918203333334,146.84726983333334,55.0,81.0
547,146.88035803333335,147.36013693333334,50.0,74.0
548,147.32153403333334,147.57704846666667,55.0,88.0
549,147.32153403333334,147.59910726666666,59.0,90.0
550,146.43918203333334,147.98513626666667,43.0,85.0
551,147.76271003333335,148.04028326666668,55.0,84.0
552,147.54212203333336,148.06601853333333,50.0,85.0
553,147.98329803333334,148.26822420000002,59.0,85.0
554,148.20388603333333,148.55682683333333,61.0,85.0
555,148.20388603333333,148.62484146666668,57.0,76.0
556,148.64506203333335,149.27925253333333,52.0,64.0
557,148.20388603333333,149.28844370000002,45.0,86.0
558,149.08623803333333,149.4152818,57.0,84.0
559,149.08623803333333,149.46491410000002,61.0,89.0
560,149.08623803333333,149.49432583333333,64.0,87.0
561,149.52741403333334,149.67079623333333,45.0,85.0
562,149.74800203333334,149.89506070000002,57.0,79.0
563,149.96859003333336,150.42631013333335,57.0,76.0
564,149.96859003333336,150.4851336,61.0,78.0
565,150.40976603333334,150.93917723333334,49.0,65.0
566,150.85094203333335,151.10829470000002,57.0,86.0
567,149.96859003333336,151.13954466666667,42.0,87.0
568,151.07153003333335,151.20388283333335,49.0,76.0
569,150.85094203333335,151.37483853333333,61.0,91.0
570,150.85094203333335,151.38770616666667,66.0,85.0
571,151.29211803333334,151.4759413666667,57.0,86.0
572,151.73329403333335,152.25167583333334,59.0,82.0
573,151.73329403333335,152.2884405,62.0,81.0
574,152.17447003333334,152.646896,54.0,72.0
575,152.61564603333335,152.87483693333334,57.0,85.0
576,151.73329403333335,152.94652803333335,47.0,85.0
577,152.83623403333334,152.98329270000002,54.0,82.0
578,152.61564603333335,153.0108662,62.0,86.0
579,152.61564603333335,153.30130706666668,66.0,86.0
580,153.05682203333333,153.36564523333334,57.0,85.0
581,153.27741003333335,153.52924800000002,62.0,79.0
582,153.49799803333335,154.03843863333336,59.0,70.0
583,153.49799803333335,154.10645326666668,64.0,80.0
584,153.93917403333336,154.4777764,47.0,77.0
585,154.38035003333334,154.5549822,59.0,85.0
586,153.49799803333335,154.56233513333333,40.0,87.0
587,154.38035003333334,154.82152603333336,67.0,83.0
588,154.38035003333334,154.83807013333333,64.0,88.0
589,154.82152603333336,154.95755530000002,59.0,79.0
590,155.26270203333334,155.72409860000002,57.0,77.0
591,155.26270203333334,155.73328976666667,61.0,74.0
592,155.26270203333334,155.83623083333333,64.0,86.0
593,155.70387803333335,156.03292180000003,52.0,74.0
594,155.92446603333335,156.23328923333335,57.0,87.0
595,156.14505403333334,156.45939193333334,52.0,86.0
596,155.26270203333334,156.5733624,45.0,86.0
597,156.36564203333336,156.6119653,57.0,87.0
598,156.36564203333336,156.6946858,61.0,101.0
599,156.58623003333335,156.80130333333335,49.0,78.0
600,156.36564203333336,156.88402383333334,64.0,92.0
601,156.80681803333334,156.92262673333335,57.0,86.0
602,157.02740603333334,157.65056713333334,57.0,86.0
603,157.02740603333334,157.74983173333334,55.0,86.0
604,157.02740603333334,157.78843463333334,60.0,90.0
605,157.46858203333335,157.95755210000002,52.0,85.0
606,157.90975803333333,158.18181656666667,55.0,88.0
607,157.02740603333334,158.22409593333336,45.0,89.0
608,157.90975803333333,158.2388018,60.0,92.0
609,157.90975803333333,158.24615473333336,64.0,91.0
610,158.13034603333335,158.2865958666667,52.0,90.0
611,158.35093403333335,158.6174778666667,55.0,87.0
612,158.57152203333334,158.71858070000002,60.0,85.0
613,158.79211003333336,159.06416856666667,57.0,81.0
614,158.79211003333336,159.2755654,66.0,80.0
615,158.79211003333336,159.31784476666667,60.0,82.0
616,159.23328603333334,159.33255063333334,57.0,72.0
617,158.79211003333336,159.54210923333335,50.0,91.0
618,159.45387403333334,159.74247666666668,57.0,85.0
619,159.45387403333334,159.7700501666667,62.0,87.0
620,159.67446203333336,159.99982933333334,50.0,91.0
621,159.89505003333335,160.0421087,57.0,86.0
622,159.89505003333335,160.18916736666668,60.0,88.0
623,160.33622603333333,160.42078476666669,55.0,77.0
624,160.55681403333335,160.9961518,59.0,86.0
625,160.55681403333335,161.01085766666668,55.0,86.0
626,160.99799003333334,161.48879833333334,50.0,72.0
627,161.43916603333335,161.65240110000002,55.0,84.0
628,161.43916603333335,161.7112245666667,59.0,87.0
629,161.43916603333335,161.78107743333334,62.0,86.0
630,160.55681403333335,162.00534190000002,43.0,87.0
631,161.65975403333334,162.05681243333333,50.0,76.0
632,161.88034203333333,162.17629760000003,55.0,78.0
633,162.10093003333336,162.38769443333334,59.0,76.0
634,162.32151803333335,162.74431170000003,61.0,85.0
635,162.32151803333335,162.81784103333334,57.0,83.0
636,162.76269403333333,163.2682082,52.0,76.0
637,163.20387003333335,163.67261953333335,57.0,82.0
638,163.20387003333335,163.69651656666667,61.0,92.0
639,162.3417386,163.731443,43.0,86.0
640,163.20387003333335,163.731443,64.0,87.0
641,163.64504603333336,163.7626929666667,52.0,81.0
642,164.08622203333334,164.51820686666667,57.0,80.0
643,164.08622203333334,164.56967740000002,61.0,86.0
644,164.52739803333336,164.78842716666668,49.0,64.0
645,164.74798603333335,164.99430930000003,61.0,90.0
646,164.74798603333335,165.0439416,57.0,85.0
647,164.08622203333334,165.11747093333335,42.0,87.0
648,164.74798603333335,165.24614726666667,66.0,87.0
649,164.97960343333335,165.51636756666667,46.0,79.0
650,165.18916203333333,165.57702926666667,61.0,94.0
651,165.40975003333335,165.7939408,58.0,85.0
652,165.85092603333334,166.52739590000002,57.0,82.0
653,165.85092603333334,166.54577823333335,62.0,85.0
654,166.29210203333335,166.7700427,54.0,58.0
655,166.73327803333333,166.9722483666667,57.0,85.0
656,165.85092603333334,167.02555713333334,47.0,86.0
657,166.73327803333333,167.0880570666667,62.0,88.0
658,166.95386603333336,167.11195410000002,54.0,76.0
659,166.73327803333333,167.18180696666667,66.0,86.0
660,167.17445403333335,167.3380568,47.0,85.0
661,167.61563003333333,168.22224703333333,64.0,84.0
662,167.61563003333333,168.24982053333335,59.0,78.0
663,168.05680603333334,168.57518783333336,47.0,70.0
664,167.61563003333333,168.82518756666667,40.0,86.0
665,168.49798203333336,168.90974630000002,59.0,81.0
666,168.49798203333336,168.9207757,64.0,87.0
667,168.49798203333336,168.99614326666668,67.0,81.0
668,169.38033403333336,169.8362159,55.0,79.0
669,169.38033403333336,169.87665703333334,61.0,73.0
670,169.82151003333334,170.32518596666668,52.0,72.0
671,169.38033403333336,170.47224463333333,45.0,84.0
672,170.26268603333335,170.68364146666667,61.0,85.0
673,170.26268603333335,170.76084726666667,57.0,79.0
674,170.26268603333335,170.79393546666668,64.0,86.0
675,171.14503803333335,171.3527584,54.0,86.0
676,171.14503803333335,171.42077303333335,57.0,85.0
677,171.80680203333335,171.92261073333336,57.0,91.0
678,171.58621403333333,172.3454044,45.0,75.0
679,172.24797803333334,172.45937486666668,57.0,86.0
680,172.24797803333334,172.5310659666667,62.0,87.0
681,171.14503803333335,172.55496300000001,38.0,91.0
682,172.46856603333336,172.73878633333334,45.0,87.0
683,172.90974203333334,173.15238883333333,52.0,86.0
684,172.90974203333334,173.23878580000002,64.0,86.0
685,172.90974203333334,173.41341796666669,40.0,87.0
686,173.13033003333334,173.44834440000002,47.0,81.0
687,173.35091803333336,173.58253543333333,52.0,88.0
688,173.79209403333334,174.02554966666668,54.0,79.0
689,173.79209403333334,174.22407886666667,57.0,73.0
690,173.79209403333334,174.24613766666667,42.0,96.0
691,174.01268203333333,174.32150523333334,49.0,86.0
692,174.23327003333335,174.51084326666668,54.0,91.0
693,174.45385803333335,174.57518143333334,57.0,75.0
694,174.67444603333334,174.93915163333335,55.0,81.0
695,174.67444603333334,174.98326923333335,62.0,83.0
696,175.11562203333335,175.22223956666667,55.0,88.0
697,174.89503403333336,175.35826883333334,50.0,79.0
698,174.67444603333334,175.38951880000002,43.0,87.0
699,175.33621003333334,175.56782743333335,62.0,88.0
700,175.33621003333334,175.5715039,59.0,91.0
701,175.33621003333334,175.57518036666667,55.0,89.0
702,175.77738603333336,175.90973883333334,55.0,88.0
703,175.77738603333336,175.96488583333334,62.0,90.0
704,176.43915003333333,176.66525273333335,57.0,85.0
705,176.43915003333333,176.74797323333334,61.0,88.0
706,176.88032603333335,176.97223770000002,57.0,85.0
707,176.65973803333335,177.1762816,52.0,84.0
708,177.10091403333334,177.352752,57.0,85.0
709,177.10091403333334,177.36745786666668,64.0,86.0
710,176.43915003333333,177.49245773333334,45.0,87.0
711,177.32150203333336,177.6156193666667,52.0,76.0
712,177.54209003333335,177.6376781666667,57.0,80.0
713,177.32150203333336,177.6450311,69.0,85.0
714,177.54209003333335,177.82517796666667,64.0,86.0
715,177.54209003333335,177.83436913333335,61.0,88.0
716,177.76267803333334,177.9262808,57.0,80.0
717,178.20385403333336,178.40789793333335,57.0,80.0
718,178.20385403333336,178.62480946666668,61.0,80.0
719,178.64503003333334,178.94282383333334,57.0,76.0
720,178.86561803333333,179.07517663333334,61.0,77.0
721,178.20385403333336,179.2810587666667,42.0,86.0
722,178.42444203333335,179.2810587666667,49.0,76.0
723,179.30679403333335,179.41524980000003,57.0,85.0
724,179.30679403333335,179.5862055,61.0,87.0
725,179.30679403333335,179.76635236666667,66.0,86.0
726,179.52738203333334,179.77922,57.0,78.0
727,179.74797003333336,179.86929343333335,61.0,86.0
728,179.96855803333335,180.19649896666667,59.0,83.0
729,179.96855803333335,180.3251753,62.0,85.0
730,180.40973403333334,180.52002803333335,57.0,84.0
731,180.18914603333334,180.68179256666667,54.0,74.0
732,179.96855803333335,180.84355710000003,47.0,86.0
733,180.63032203333336,180.93546876666667,62.0,89.0
734,180.63032203333336,180.937307,57.0,88.0
735,180.63032203333336,180.94465993333336,66.0,85.0
736,180.85091003333335,181.04392453333335,54.0,77.0
737,181.07149803333334,181.19282143333334,57.0,86.0
738,181.07149803333334,181.2516449,62.0,86.0
739,181.73326203333335,181.95385003333334,59.0,81.0
740,181.73326203333335,182.04392346666668,64.0,85.0
741,182.17443803333336,182.47774653333335,59.0,79.0
742,182.39502603333335,182.55679056666668,64.0,83.0
743,182.61561403333334,182.86193730000002,67.0,87.0
744,181.95385003333334,182.8729667,47.0,78.0
745,181.73326203333335,182.92259900000002,40.0,87.0
746,182.83620203333334,183.03473123333336,64.0,94.0
747,183.05679003333336,183.30862800000003,59.0,87.0
748,183.27737803333335,183.3509073666667,64.0,85.0
749,183.49796603333334,183.74061283333336,57.0,79.0
750,183.49796603333334,183.92259793333335,61.0,87.0
751,183.93914203333335,184.25899463333334,57.0,83.0
752,184.15973003333335,184.33803866666668,61.0,92.0
753,183.49796603333334,184.65972950000003,42.0,89.0
754,183.71855403333333,184.66708243333335,49.0,87.0
755,184.60090603333336,184.79943523333336,57.0,81.0
756,184.60090603333336,184.89318513333336,61.0,89.0
757,184.82149403333335,184.9464939,49.0,85.0
758,184.60090603333336,184.97774386666669,66.0,87.0
759,185.04208203333334,185.1615672,57.0,78.0
760,185.26267003333334,185.56597853333335,55.0,80.0
761,185.26267003333334,185.58803733333335,59.0,86.0
762,185.26267003333334,185.95016930000003,43.0,86.0
763,185.70384603333335,185.97590456666669,55.0,83.0
764,185.70384603333335,185.9998016,59.0,85.0
765,186.14502203333333,186.42627173333335,55.0,85.0
766,186.14502203333333,186.6670803,50.0,87.0
767,186.14502203333333,186.68546263333334,62.0,85.0
768,186.14502203333333,186.69097733333334,59.0,85.0
769,186.14502203333333,186.70384496666668,43.0,87.0
770,186.58619803333335,186.8527418666667,55.0,88.0
771,187.41891773333336,187.70568213333334,57.0,87.0
772,187.64685866666667,187.89502016666668,62.0,89.0
773,187.8509025666667,188.06781410000002,64.0,91.0
774,188.0567847,188.33803440000003,69.0,87.0
775,188.27001976666668,188.3582549666667,57.0,85.0
776,188.65788700000002,188.81597506666668,69.0,71.0
777,188.73693103333335,188.8178133,73.0,69.0
778,188.80494566666667,188.86376913333334,76.0,76.0
779,188.83068093333335,188.94465140000003,81.0,89.0
780,187.23141793333335,190.75163476666668,52.0,86.0
781,187.03288873333335,190.78839943333335,45.0,86.0
782,192.19832440000002,192.94280890000002,55.0,71.0
783,192.25530963333335,193.39869076666668,59.0,76.0
784,193.22589683333334,193.47405833333335,55.0,68.0
785,192.3196478,193.53104356666668,62.0,74.0
786,192.80677963333335,193.54942590000002,50.0,57.0
787,192.29391253333335,193.5990582,43.0,85.0
788,194.00530776666668,194.54391013333336,57.0,59.0
789,194.05310183333336,194.77185106666667,61.0,73.0
790,194.14317526666667,194.9667038,64.0,76.0
791,194.51266016666668,195.14501243333333,52.0,71.0
792,194.1064106,195.1689094666667,45.0,77.0
793,194.96486556666667,195.22589470000003,57.0,81.0
794,195.65604130000003,195.92442336666667,57.0,68.0
795,195.76082060000002,195.9905997666667,61.0,72.0
796,195.7920705666667,196.0126585666667,66.0,73.0
797,195.87295283333336,196.55126093333334,69.0,85.0
798,195.81964406666668,196.7479519,42.0,80.0
799,196.06229086666667,196.80677536666667,49.0,74.0
800,196.3049376666667,196.80677536666667,57.0,79.0
801,196.51449626666667,196.94831933333336,61.0,85.0
802,196.74979013333333,197.06780450000002,66.0,73.0
803,197.4924364,198.27184733333334,57.0,69.0
804,197.58250983333335,198.44831773333334,62.0,74.0
805,198.00530350000002,198.5328764666667,54.0,60.0
806,198.46486183333334,198.6100822666667,57.0,74.0
807,197.59905393333335,198.65787633333335,47.0,79.0
808,199.33250796666667,199.97588963333334,59.0,78.0
809,199.34169913333335,200.27000696666667,64.0,82.0
810,199.34353736666668,200.30860986666667,67.0,81.0
811,199.75162516666668,200.35456570000002,47.0,53.0
812,199.33986090000002,200.4648597,40.0,90.0
813,200.22405113333335,200.4685361666667,59.0,80.0
814,201.78287300000002,202.07147563333334,61.0,92.0
815,201.57331440000002,202.0861815,57.0,87.0
816,201.9924316,202.2461078,64.0,86.0
817,201.3637558,202.3490488666667,52.0,85.0
818,201.1578736666667,202.43176936666669,45.0,87.0
819,202.2019902,202.56779863333335,69.0,89.0
820,202.4262546666667,202.61743093333334,57.0,81.0
821,202.88029830000002,203.22404793333334,57.0,84.0
822,202.885813,203.52184173333336,62.0,84.0
823,203.31412136666668,203.86007666666669,45.0,73.0
824,202.8692689,203.8986795666667,38.0,87.0
825,203.75345913333334,203.9758853666667,57.0,85.0
826,203.7552973666667,204.0052971,62.0,88.0
827,203.75345913333334,204.08985583333336,66.0,88.0
828,204.64867876666668,204.90235496666668,60.0,90.0
829,204.64132583333335,204.97588430000002,66.0,91.0
830,205.08434006666667,205.37478093333334,60.0,86.0
831,205.31044276666668,205.42808970000002,66.0,92.0
832,204.88029616666668,205.60823656666668,57.0,86.0
833,204.65419346666667,205.6964717666667,50.0,91.0
834,205.55308956666667,205.7957363666667,66.0,92.0
835,205.56044250000002,205.79757460000002,62.0,96.0
836,205.5549278,205.81963340000001,69.0,92.0
837,205.96853030000003,206.04205963333334,62.0,89.0
838,205.78470696666668,206.09904486666667,50.0,61.0
839,205.75897170000002,206.2773535,57.0,89.0
840,205.95382443333335,206.33985343333336,66.0,99.0
841,206.16705950000002,206.36742693333335,62.0,85.0
842,205.95566266666668,206.3766181,69.0,94.0
843,205.9575009,206.38397103333335,74.0,90.0
844,206.43911803333336,206.8784558,59.0,86.0
845,206.43911803333336,206.89316166666669,55.0,86.0
846,206.88029403333334,207.37110233333334,50.0,72.0
847,207.32147003333336,207.53470510000002,55.0,84.0
848,207.32147003333336,207.5935285666667,59.0,87.0
849,207.32147003333336,207.66338143333334,62.0,86.0
850,206.43911803333336,207.88764590000002,43.0,87.0
851,207.54205803333335,207.93911643333334,50.0,76.0
852,207.76264603333334,208.0586016,55.0,78.0
853,207.98323403333336,208.26999843333334,59.0,76.0
854,208.20382203333335,208.6266157,61.0,85.0
855,208.20382203333335,208.70014503333334,57.0,83.0
856,208.64499803333334,209.1505122,52.0,76.0
857,209.08617403333335,209.55492353333335,57.0,82.0
858,209.08617403333335,209.57882056666668,61.0,92.0
859,208.22404260000002,209.61374700000002,43.0,86.0
860,209.08617403333335,209.61374700000002,64.0,87.0
861,209.52735003333336,209.6449969666667,52.0,81.0
862,209.96852603333335,210.40051086666668,57.0,80.0
863,209.96852603333335,210.45198140000002,61.0,86.0
864,210.40970203333336,210.67073116666668,49.0,64.0
865,210.63029003333335,210.8766133,61.0,90.0
866,210.63029003333335,210.92624560000002,57.0,85.0
867,209.96852603333335,210.99977493333336,42.0,87.0
868,210.63029003333335,211.12845126666667,66.0,87.0
869,210.86190743333336,211.39867156666668,46.0,79.0
870,211.07146603333334,211.45933326666668,61.0,94.0
871,211.29205403333336,211.6762448,58.0,85.0
872,211.73323003333334,212.40969990000002,57.0,82.0
873,211.73323003333334,212.42808223333336,62.0,85.0
874,212.17440603333336,212.6523467,54.0,58.0
875,212.61558203333334,212.8545523666667,57.0,85.0
876,211.73323003333334,212.90786113333334,47.0,86.0
877,212.61558203333334,212.97036106666667,62.0,88.0
878,212.83617003333336,212.99425810000002,54.0,76.0
879,212.61558203333334,213.06411096666668,66.0,86.0
880,213.05675803333335,213.2203608,47.0,85.0
881,213.49793403333334,214.10455103333334,64.0,84.0
882,213.49793403333334,214.13212453333335,59.0,78.0
883,213.93911003333335,214.45749183333334,47.0,70.0
884,213.49793403333334,214.70749156666668,40.0,86.0
885,214.38028603333336,214.79205030000003,59.0,81.0
886,214.38028603333336,214.8030797,64.0,87.0
887,214.38028603333336,214.87844726666668,67.0,81.0
888,215.26263803333336,215.71851990000002,55.0,79.0
889,215.26263803333336,215.75896103333335,61.0,73.0
890,215.70381403333334,216.20748996666669,52.0,72.0
891,215.26263803333336,216.35454863333334,45.0,84.0
892,216.14499003333336,216.56594546666668,61.0,85.0
893,216.14499003333336,216.64315126666668,57.0,79.0
894,216.14499003333336,216.6762394666667,64.0,86.0
895,216.8857980666667,217.1229301666667,50.0,71.0
896,216.94278330000003,217.12660663333335,54.0,75.0
897,216.99057736666668,217.14866543333335,57.0,62.0
898,217.03837143333334,217.46851803333334,62.0,83.0
899,217.86006173333334,218.41520820000002,57.0,79.0
900,217.41704750000002,218.61557563333335,45.0,69.0
901,216.9850626666667,218.63028150000002,38.0,86.0
902,218.31594360000003,218.94461940000002,62.0,80.0
903,218.6247668,218.95381056666668,57.0,32.0
904,219.22954556666667,219.81042730000001,45.0,53.0
905,218.75528136666668,219.89498603333334,38.0,85.0
906,218.78653133333336,220.35086790000003,66.0,77.0
907,219.7001333,220.36005906666668,62.0,77.0
908,220.8527056,221.85821923333336,47.0,75.0
909,220.61189703333335,221.90049860000002,40.0,85.0
910,221.03652893333336,222.36557163333336,52.0,79.0
911,221.21851403333335,222.49057150000002,55.0,77.0
912,221.37844033333334,222.5567479,59.0,72.0
913,221.5971901,222.573292,64.0,70.0
914,223.52182040000002,224.77917200000002,57.0,75.0
915,223.31961473333334,225.7993915,52.0,80.0
916,223.08248263333334,225.96667073333336,45.0,87.0
917,223.75159956666667,226.9446108666667,64.0,72.0
918,224.08615803333336,226.98137553333336,69.0,65.0
919,227.44461033333334,228.09902140000003,55.0,79.0
920,227.66519833333336,228.3857858,62.0,77.0
921,228.32696233333334,228.50527096666667,55.0,75.0
922,228.10637433333335,228.51630036666668,67.0,80.0
923,228.76813833333335,229.70333618333336,55.0,63.0
924,228.76813833333335,229.71444728333336,59.0,55.0
925,228.76813833333335,229.72370653333337,62.0,69.0
926,227.22402233333335,229.82000273333335,50.0,76.0
927,227.00343433333336,229.84592863333336,43.0,83.0
928,230.54407608333335,231.72718567708336,42.0,78.0
929,230.76629808333337,231.74392674583336,49.0,66.0
930,230.98871853333335,231.78298923958334,54.0,76.0
931,231.21193278333334,231.81089102083334,57.0,76.0
932,232.3299080625,232.82552088333335,62.0,82.0
933,232.77859900833337,233.22589157083337,57.0,84.0
934,233.00382400833337,233.3658309666667,62.0,80.0
935,232.55378856250002,233.45099833541667,54.0,74.0
936,233.45670609791668,233.53280959791667,62.0,74.0
937,232.3299080625,233.6051079229167,47.0,85.0
938,233.45670609791668,233.6355493229167,66.0,75.0
939,234.1439347375,234.49006302708332,59.0,75.0
940,234.1439347375,234.78907380833334,67.0,66.0
941,234.60901772916665,235.35157435833335,59.0,73.0
942,234.84454128333334,235.37757435833333,64.0,85.0
943,234.37500847916667,235.51557435833334,47.0,73.0
944,234.1439347375,235.58757435833334,40.0,86.0
945,235.56157435833333,236.12757435833333,59.0,73.0
946,235.32157435833335,236.36357435833335,67.0,79.0
947,236.52157435833334,236.94357435833334,55.0,80.0
948,236.76157435833335,236.97157435833336,61.0,80.0
949,237.00157435833336,237.50357435833334,64.0,80.0
950,236.28157435833333,237.62957435833334,52.0,73.0
951,236.04157435833335,237.69557435833335,45.0,82.0
952,237.96157435833334,238.19157435833336,57.0,69.0
953,238.44157435833336,239.06157435833333,57.0,69.0
954,237.96157435833334,239.44157435833336,62.0,73.0
955,238.92157435833334,239.46157435833334,67.0,77.0
956,237.96157435833334,239.65357435833334,50.0,77.0
957,239.40157435833333,239.94557435833335,57.0,72.0
958,240.00357435833334,240.26957435833336,57.0,59.0
959,239.88157435833335,241.70957435833336,50.0,79.0
960,240.03757435833336,242.09757435833333,62.0,75.0
961,240.09957435833334,242.16357435833334,69.0,74.0
