,start,end,pitch,velocity
0,15.099120247916666,15.521913914583333,71.0,87.0
1,15.540296247916666,16.630794589583335,76.0,82.0
2,16.848185589583334,17.24130098125,80.0,83.0
3,17.282967589583333,18.36629940625,83.0,83.0
4,18.587313589583335,18.95868988125,76.0,80.0
5,19.022095589583333,20.011224639583332,75.0,79.0
6,20.326441589583332,20.721368572916667,80.0,82.0
7,20.761223589583334,21.891656789583333,83.0,87.0
8,22.065569589583333,22.41701837291667,83.0,83.0
9,22.500351589583335,23.658544997916668,85.0,82.0
10,23.797033989583337,24.09019899791667,87.0,83.0
11,24.228687989583335,25.027247889583336,88.0,81.0
12,25.091995989583335,25.30779220625,85.0,82.0
13,25.30779220625,25.521772206250002,83.0,80.0
14,25.521772206250002,25.855224372916666,85.0,81.0
15,25.94973220625,28.30351220625,83.0,79.0
16,28.51749220625,28.825980039583335,80.0,83.0
17,28.94545220625,29.259289539583335,78.0,76.0
18,29.373412206250002,30.578647416666666,76.0,85.0
19,30.65134238125,30.974037102083333,75.0,82.0
20,31.07687388125,31.76836256875,76.0,80.0
21,31.927936881249998,32.25772379375,80.0,80.0
22,32.353468381249996,32.660205670833335,78.0,85.0
23,32.77899988125,34.00838393333333,76.0,81.0
24,34.05415855833333,34.41155274583333,75.0,80.0
25,34.47669355833333,35.23373543333333,76.0,78.0
26,35.32176355833333,35.63866480833333,78.0,81.0
27,35.74429855833333,36.08936880833333,80.0,82.0
28,36.16683355833333,37.37986112083333,78.0,87.0
29,37.434438558333326,37.68795955833333,76.0,93.0
30,37.85697355833333,38.59640980833333,73.0,83.0
31,38.70204355833333,39.49429668333333,80.0,82.0
32,39.54711355833333,42.199751308333326,78.0,80.0
33,42.495205558333325,42.89730305833333,71.0,87.0
34,42.91478555833333,43.951153006249996,76.0,82.0
35,44.15776425624999,44.53138626666666,80.0,83.0
36,44.570986756249994,45.60059948541666,83.0,83.0
37,45.81065425624999,46.16361514166666,76.0,80.0
38,46.22387675624999,47.16395794374999,75.0,79.0
39,47.46354425624999,47.83888802708333,80.0,82.0
40,47.87676675624999,48.949645356249995,83.0,87.0
41,49.11402875624999,49.44622021041666,83.0,83.0
42,49.52498725624999,50.62601357083333,85.0,82.0
43,50.75786275624999,51.03697207083333,87.0,83.0
44,51.16882125624999,51.92909448125,88.0,81.0
45,51.99073825625,52.196217506249994,85.0,82.0
46,52.196217506249994,52.40169675625,83.0,80.0
47,52.40169675625,52.721901920833325,85.0,81.0
48,52.81265525625,55.07292700624999,83.0,79.0
49,55.278406256249994,55.57463884166666,80.0,83.0
50,55.689364756249994,55.99073432291666,78.0,76.0
51,56.10032325624999,57.26299334583332,76.0,85.0
52,57.33319875624999,57.64484228541666,75.0,82.0
53,57.74415725624999,58.41196481874999,76.0,80.0
54,58.56607425624999,58.88456709374999,80.0,80.0
55,58.97703275625,59.27326534166666,78.0,85.0
56,59.38799125624999,60.576346252083326,76.0,81.0
57,60.620866756249995,60.968469154166655,75.0,80.0
58,61.031825256249995,61.76812590208333,76.0,78.0
59,61.853742256249994,62.161961131249996,78.0,81.0
60,62.264700756249994,62.60031686458333,80.0,82.0
61,62.67565925624999,63.85545261666666,78.0,87.0
62,63.90853475624999,64.15510985625,73.0,93.0
63,64.31949325625,65.03867063125,75.0,83.0
64,65.14141025625,65.91195744375,78.0,82.0
65,65.96332725625,68.44292186041666,76.0,80.0
66,68.44292186041666,69.12929764166667,83.0,83.0
67,69.27279686041666,70.38102576666667,80.0,83.0
68,70.51760936041666,70.91007107916666,78.0,83.0
69,70.93254686041666,71.71747029791666,76.0,81.0
70,71.76242186041667,72.41421951666666,83.0,83.0
71,72.59229686041667,74.99720545416666,75.0,80.0
72,75.08192186041666,75.38659118124998,73.0,80.0
73,75.49770224791666,75.83103544791666,75.0,77.0
74,75.91436874791665,77.03936829791665,73.0,80.0
75,77.16436824791666,77.47165979166665,75.0,83.0
76,77.58103474791666,78.30499279166666,73.0,83.0
77,78.41436774791666,79.25290907916666,71.0,81.0
78,79.24770074791665,81.61749146666665,80.0,82.0
79,81.74769974791666,82.46992168124999,83.0,79.0
80,82.58103274791665,83.88311556041666,80.0,82.0
81,83.83103224791665,84.27026818333333,78.0,83.0
82,84.24769874791666,85.03068454583332,76.0,79.0
83,85.08103174791665,85.96123972916666,83.0,81.0
84,85.91436474791665,88.34665544166666,75.0,83.0
85,88.41436374791665,88.7459608375,73.0,78.0
86,88.83103024791666,89.20603009791665,75.0,80.0
87,89.24769674791665,90.38311296041665,76.0,87.0
88,90.49769624791665,90.78415446666665,76.0,82.0
89,90.91436274791666,91.66783466874999,76.0,82.0
90,91.74769574791665,92.45082046666666,80.0,78.0
91,92.58102874791666,95.13300528749998,78.0,83.0
92,95.52395866666666,95.92718412499998,71.0,87.0
93,95.94471566666665,96.99660816666665,76.0,82.0
94,97.20698666666665,97.58742112083333,80.0,83.0
95,97.62774366666666,98.67612985833333,83.0,83.0
96,98.89001466666666,99.24941127083332,76.0,80.0
97,99.31077166666665,100.26799384166665,75.0,79.0
98,100.57304266666665,100.95523027499999,80.0,82.0
99,100.99379966666666,102.08776786666665,83.0,87.0
100,102.25607066666666,102.59618257499999,83.0,83.0
101,102.67682766666665,103.80410579583332,85.0,82.0
102,103.93909866666665,104.22486279583332,87.0,83.0
103,104.35985566666665,105.13825611666665,88.0,81.0
104,105.20136966666665,105.41174816666665,85.0,82.0
105,105.41174816666665,105.62212666666666,83.0,80.0
106,105.62212666666666,105.94996649583332,85.0,81.0
107,106.04288366666665,108.35704716666666,83.0,79.0
108,108.56742566666665,108.87072133749999,80.0,83.0
109,108.98818266666666,109.29673779999999,78.0,76.0
110,109.40893966666665,110.59121215833332,76.0,85.0
111,110.66249168333331,110.97890323333331,75.0,82.0
112,111.07973768333332,111.75776243333331,76.0,80.0
113,111.91422968333332,112.23759533333332,80.0,80.0
114,112.33147568333331,112.63224050833331,78.0,85.0
115,112.74872168333332,113.95525803333331,76.0,81.0
116,114.00045968333332,114.35338025833332,75.0,80.0
117,114.41770568333331,115.16527143333332,76.0,78.0
118,115.25219768333332,115.56513218333332,78.0,81.0
119,115.66944368333331,116.01019458333332,80.0,82.0
120,116.08668968333332,117.28453340833332,78.0,87.0
121,117.33842768333332,117.58877528333332,73.0,93.0
122,117.75567368333331,118.48585418333332,75.0,83.0
123,118.59016568333331,119.37250193333331,78.0,82.0
124,119.42465768333332,121.92813368333331,76.0,80.0
125,148.6318776833333,149.32207210833332,83.0,83.0
126,149.4663696833333,150.58468264166666,80.0,83.0
127,150.7226015,151.11889999166664,78.0,83.0
128,151.1415955,151.9341924833333,76.0,81.0
129,151.9795835,152.63775324166664,83.0,83.0
130,152.81757149999999,155.24599089166665,75.0,80.0
131,155.33153549999997,155.63879776666664,73.0,80.0
132,155.75052949999997,156.0857247,75.0,77.0
133,156.16952349999997,157.30080729999997,73.0,80.0
134,157.4265055,157.73551357499997,75.0,83.0
135,157.8454995,158.573501575,73.0,83.0
136,158.68348749999998,159.52671292499997,71.0,81.0
137,159.52147549999998,161.904503875,80.0,82.0
138,162.0354395,162.76169576666666,83.0,79.0
139,162.8734275,164.18278374999997,80.0,82.0
140,164.13040949999998,164.5720990083333,78.0,83.0
141,164.54940349999998,165.3367630583333,76.0,79.0
142,165.38739149999998,166.27251632499997,83.0,81.0
143,166.22537949999997,168.66812454791665,75.0,83.0
144,168.73583285416666,169.06742994374997,73.0,78.0
145,169.15249935416665,169.52749920416665,75.0,80.0
146,169.56916585416664,170.70458206666666,76.0,87.0
147,170.81916535416664,171.10562357291664,76.0,82.0
148,171.23583185416663,171.98930377499997,76.0,82.0
149,172.06916485416664,172.77228957291663,80.0,78.0
150,172.90249785416665,175.43737969791664,78.0,83.0
151,175.82778579791665,176.23044679791664,71.0,87.0
152,176.24795379791664,177.29837379791664,76.0,82.0
153,177.50845779791663,177.88835969791663,80.0,83.0
154,177.92862579791662,178.97554439791665,83.0,83.0
155,179.18791229791665,179.54430992291665,76.0,80.0
156,179.60515829791663,180.55439294791665,75.0,79.0
157,180.85689629791665,181.23589474791663,80.0,82.0
158,181.27414229791665,182.35898189791664,83.0,87.0
159,182.52588029791664,182.86315414791665,83.0,83.0
160,182.94312629791665,184.06099787291663,85.0,82.0
161,184.19486429791664,184.47824387291664,87.0,83.0
162,184.61211029791664,185.37785513541664,88.0,81.0
163,185.43975331041665,185.64608056041664,85.0,82.0
164,185.64608056041664,185.85240781041665,83.0,80.0
165,185.85240781041665,186.17393444166666,85.0,81.0
166,186.26506231041665,188.52338146874996,83.0,79.0
167,188.72857971874996,189.0244071958333,80.0,83.0
168,189.13897621874997,189.4399336520833,78.0,76.0
169,189.54937271874996,190.71045281666665,76.0,85.0
170,190.78056221874996,191.0917795645833,75.0,82.0
171,191.19095871874995,191.85785303124996,76.0,80.0
172,192.01175171874996,192.32980900624997,80.0,80.0
173,192.42214821874995,192.7179756958333,78.0,85.0
174,192.83254471874997,194.01927459791662,76.0,81.0
175,194.06373421874997,194.4108612583333,75.0,80.0
176,194.47413071874996,195.20942444791663,76.0,78.0
177,195.29492371874997,195.60272109374998,78.0,81.0
178,195.70532021874996,196.04047736041665,80.0,82.0
179,196.11571671874998,197.2952552708333,78.0,87.0
180,197.3487035333333,197.5969793333333,73.0,93.0
181,197.7624965333333,198.4894456583333,75.0,83.0
182,198.59346765833328,199.3736326583333,78.0,82.0
183,199.42564365833329,201.9221716583333,76.0,80.0
184,201.9221716583333,202.22210175833328,80.0,83.0
185,202.3382596583333,202.6433908583333,78.0,76.0
186,202.7543476583333,203.9315299583333,76.0,85.0
187,204.0026116583333,204.3181450583333,75.0,82.0
188,204.41869965833328,205.0948426583333,76.0,80.0
189,205.25087565833329,205.5733438583333,80.0,80.0
190,205.6669636583333,205.9668937583333,78.0,85.0
191,206.0830516583333,207.28623945833328,76.0,81.0
192,207.3313156583333,207.6832567583333,75.0,80.0
193,207.7474036583333,208.49289465833328,76.0,78.0
194,208.5795796583333,208.8916456583333,78.0,81.0
195,208.9956676583333,209.3354728583333,80.0,82.0
196,209.4117556583333,210.6062749583333,78.0,87.0
197,210.66001965833328,210.9096724583333,73.0,93.0
198,211.07610765833329,211.8042616583333,75.0,83.0
199,211.9082836583333,212.6884486583333,78.0,82.0
200,212.7404596583333,215.2369876583333,76.0,80.0
