,start,end,pitch,velocity
0,1.9525516041666666,2.5401419,56.0,77.0
1,2.390507104166667,3.0748125729166667,59.0,72.0
2,2.8284626041666665,3.3540092041666667,52.0,67.0
3,3.2664181041666667,3.7901398895833336,56.0,71.0
4,3.2664181041666667,3.7992639625,64.0,72.0
5,3.2664181041666667,3.8740813604166666,59.0,72.0
6,3.704373604166667,4.058387633333333,52.0,57.0
7,1.5145961041666667,4.29743834375,40.0,80.0
8,4.1423291041666666,4.43977388125,56.0,64.0
9,4.1423291041666666,4.481744616666667,59.0,70.0
10,5.018240104166667,5.91239925,56.0,71.0
11,5.894151104166667,6.4269969625000005,49.0,76.0
12,5.456195604166667,7.1186016895833335,44.0,64.0
13,6.3321066041666665,7.364951658333333,56.0,72.0
14,6.770062104166667,7.545608302083333,61.0,71.0
15,7.208017604166667,7.72444013125,49.0,74.0
16,5.018240104166667,7.7499875354166665,37.0,77.0
17,7.645973104166667,7.8704252979166665,56.0,72.0
18,7.645973104166667,8.065680458333334,61.0,75.0
19,8.083928604166667,8.2335634,61.0,61.0
20,9.397795104166667,9.90326874375,61.0,87.0
21,9.835750604166666,10.29195425,57.0,77.0
22,10.273706104166667,10.837573810416666,61.0,70.0
23,10.273706104166667,10.94341305625,64.0,76.0
24,10.711661604166666,11.193412654166666,57.0,64.0
25,8.959839604166667,11.253631535416666,52.0,74.0
26,8.521884104166666,11.372244483333333,45.0,77.0
27,11.149617104166667,11.981732554166667,64.0,74.0
28,11.149617104166667,12.003630329166667,61.0,66.0
29,11.587572604166667,12.01640403125,57.0,71.0
30,11.149617104166667,12.5364761875,69.0,70.0
31,13.339394604166667,13.61494160625,63.0,78.0
32,12.463483604166667,13.63683938125,59.0,72.0
33,12.901439104166666,14.001802297916667,54.0,71.0
34,12.025528104166668,14.98514978125,47.0,77.0
35,13.777350104166667,15.521913914583333,66.0,69.0
36,13.777350104166667,15.52559038125,63.0,77.0
37,15.978621589583334,16.67970756458333,47.0,64.0
38,16.413403589583332,17.947821731250002,56.0,77.0
39,17.282967589583333,17.97499560625,59.0,70.0
40,17.717749589583335,18.19238660625,52.0,65.0
41,16.848185589583334,18.25216913125,47.0,63.0
42,18.152531589583333,18.277531414583333,56.0,68.0
43,15.540296247916666,18.286589372916666,40.0,77.0
44,18.152531589583333,18.315574839583334,59.0,72.0
45,19.022095589583333,19.641659939583334,59.0,76.0
46,19.022095589583333,19.951442114583333,56.0,65.0
47,19.891659589583334,20.514847122916667,59.0,71.0
48,20.326441589583332,20.821006114583334,56.0,67.0
49,19.456877589583335,20.94962912291667,51.0,60.0
50,20.761223589583334,21.279338806250003,59.0,72.0
51,21.630787589583335,22.12172893125,59.0,77.0
52,19.022095589583333,22.14890280625,44.0,76.0
53,21.196005589583333,22.17064190625,51.0,59.0
54,22.065569589583333,22.221366472916667,56.0,69.0
55,20.761223589583334,22.489482039583336,63.0,70.0
56,22.500351589583335,23.43192664791667,57.0,69.0
57,22.500351589583335,23.44451655625,61.0,70.0
58,23.365379989583335,24.023652339583336,64.0,78.0
59,23.797033989583337,24.39235679791667,57.0,64.0
60,22.933725989583337,24.410342381250004,52.0,70.0
61,24.228687989583335,24.840197822916668,61.0,65.0
62,24.228687989583335,24.865377639583336,64.0,76.0
63,22.500351589583335,25.322057539583334,45.0,77.0
64,24.660341989583337,25.35772087291667,52.0,59.0
65,25.091995989583335,25.55921870625,61.0,71.0
66,25.521772206250002,25.68760670625,57.0,70.0
67,25.091995989583335,25.94438270625,64.0,75.0
68,25.94973220625,26.498947539583334,59.0,66.0
69,25.94973220625,26.69331270625,64.0,70.0
70,26.805652206250002,26.900160039583334,64.0,54.0
71,26.805652206250002,27.759646372916666,59.0,78.0
72,27.66157220625,28.28746370625,68.0,74.0
73,27.23361220625,28.323127039583333,64.0,74.0
74,28.089532206250002,28.383754706250002,59.0,70.0
75,28.51749220625,28.786750372916668,59.0,72.0
76,25.94973220625,28.884824539583335,40.0,75.0
77,26.37769220625,28.890174039583336,47.0,63.0
78,28.51749220625,28.96150070625,64.0,80.0
79,28.94545220625,29.253940039583334,63.0,78.0
80,29.373412206250002,29.73999575208333,61.0,67.0
81,29.373412206250002,29.743541847916667,64.0,76.0
82,29.80027938125,30.4545340625,56.0,64.0
83,30.22581088125,30.68680333958333,64.0,77.0
84,30.22581088125,30.732902585416667,61.0,68.0
85,30.65134238125,31.24708648125,56.0,52.0
86,31.07687388125,31.536093291666667,64.0,81.0
87,31.07687388125,31.543185483333332,68.0,73.0
88,31.07687388125,31.61765349583333,61.0,74.0
89,31.927936881249998,32.09637643333333,64.0,78.0
90,31.927936881249998,32.122972152083335,61.0,72.0
91,31.50240538125,32.348149237499996,56.0,56.0
92,29.373412206250002,32.42261725,49.0,77.0
93,32.353468381249996,32.79850340833333,63.0,68.0
94,32.77899988125,33.677935175,64.0,74.0
95,33.20453138125,33.8268712,52.0,72.0
96,33.63006288125,34.26190493333333,61.0,80.0
97,34.05415855833333,34.63866530833333,52.0,75.0
98,34.47669355833333,34.97845387083333,61.0,76.0
99,34.47669355833333,35.09112987083333,64.0,76.0
100,32.77899988125,35.64746762083333,45.0,76.0
101,34.89922855833333,35.65274930833333,52.0,71.0
102,35.32176355833333,35.66683380833333,57.0,81.0
103,35.74429855833333,36.20556593333333,56.0,78.0
104,36.16683355833333,36.44852355833333,54.0,70.0
105,37.01190355833333,37.27422737083333,54.0,70.0
106,36.58936855833333,37.33408649583333,49.0,66.0
107,37.01190355833333,37.71964968333333,58.0,67.0
108,37.434438558333326,38.09993118333333,49.0,62.0
109,37.85697355833333,38.39746624583333,58.0,76.0
110,37.85697355833333,38.43443805833333,61.0,78.0
111,36.16683355833333,38.791832245833334,42.0,78.0
112,38.27950855833333,38.83408574583333,49.0,64.0
113,38.70204355833333,39.15450812083333,58.0,76.0
114,38.70204355833333,39.23197287083333,61.0,74.0
115,39.124578558333326,39.23373343333333,54.0,70.0
116,39.96964855833333,40.55063418333333,54.0,65.0
117,39.54711355833333,41.08232405833333,59.0,77.0
118,39.54711355833333,41.10873249583333,47.0,77.0
119,40.81471855833333,41.136815308333325,54.0,78.0
120,41.23646555833333,41.64905255833333,66.0,66.0
121,41.23646555833333,41.78191955833333,59.0,72.0
122,41.23646555833333,41.78366780833333,63.0,66.0
123,41.656045558333325,42.24870230833333,54.0,66.0
124,42.07562555833333,42.82912130833333,63.0,73.0
125,42.495205558333325,42.83436605833333,54.0,66.0
126,42.07562555833333,42.85184855833333,66.0,69.0
127,41.23646555833333,42.86758280833333,47.0,77.0
128,43.33131925624999,43.99764053749999,47.0,64.0
129,43.744541756249994,45.20287282916666,56.0,77.0
130,44.570986756249994,45.228699235416656,59.0,70.0
131,44.98420925624999,45.43531048541666,52.0,65.0
132,44.15776425624999,45.49212857916666,47.0,63.0
133,45.39743175624999,45.51623322499999,56.0,68.0
134,42.91478555833333,45.524842027083324,40.0,77.0
135,45.39743175624999,45.55239019374999,59.0,72.0
136,46.22387675624999,46.81271881874999,59.0,76.0
137,46.22387675624999,47.107139849999996,56.0,65.0
138,47.05032175624999,47.64260733958333,59.0,71.0
139,47.46354425624999,47.93358484999999,56.0,67.0
140,46.63709925624999,48.055829839583325,51.0,60.0
141,47.87676675624999,48.36919023541666,59.0,72.0
142,48.703070256249994,49.167110895833325,59.0,77.0
143,46.22387675624999,49.192795802083324,44.0,76.0
144,48.289989256249996,49.21334372708333,51.0,59.0
145,49.11402875624999,49.26128888541666,56.0,69.0
146,47.87676675624999,49.51471329374999,63.0,70.0
147,49.52498725624999,50.410260358333325,57.0,69.0
148,49.52498725624999,50.42224664791666,61.0,70.0
149,50.34690425624999,50.973615968749996,64.0,78.0
150,50.75786275624999,51.32464302083333,57.0,64.0
151,49.93594575624999,51.34176629166666,52.0,70.0
152,51.16882125624999,51.751012464583326,61.0,65.0
153,51.16882125624999,51.77498504374999,64.0,76.0
154,49.52498725624999,52.20991612291666,45.0,77.0
155,51.57977975624999,52.24416266458333,52.0,59.0
156,51.99073825625,52.43765562499999,61.0,71.0
157,52.40169675625,52.56094317499999,57.0,70.0
158,51.99073825625,52.80751827499999,64.0,75.0
159,52.81265525625,53.34005199791666,59.0,66.0
160,52.81265525625,53.52669564999999,64.0,70.0
161,53.634572256249996,53.72532559166666,64.0,54.0
162,53.634572256249996,54.550667245833324,59.0,78.0
163,54.456489256249995,55.05751606249999,68.0,74.0
164,54.045530756249995,55.09176260416666,64.0,74.0
165,54.867447756249994,55.149981724999996,59.0,70.0
166,55.278406256249994,55.53696764583333,59.0,72.0
167,52.81265525625,55.63114563541666,40.0,75.0
168,53.223613756249996,55.63628261666666,47.0,63.0
169,55.278406256249994,55.70477569999999,64.0,80.0
170,55.689364756249994,55.98559734166666,63.0,78.0
171,56.10032325624999,56.45306263541666,61.0,67.0
172,56.10032325624999,56.45648728958333,64.0,76.0
173,56.51128175624999,57.143130449999994,56.0,64.0
174,56.92224025624999,57.36744529791666,64.0,77.0
175,56.92224025624999,57.41196580208333,61.0,68.0
176,57.33319875624999,57.90854065625,56.0,52.0
177,57.74415725624999,58.18764997083333,64.0,81.0
178,57.74415725624999,58.19449927916666,68.0,73.0
179,57.74415725624999,58.26641701666666,61.0,74.0
180,58.56607425624999,58.72874532916666,64.0,78.0
181,58.56607425624999,58.75443023541666,61.0,72.0
182,58.15511575624999,58.97189577499999,56.0,56.0
183,56.10032325624999,59.043813512499995,49.0,77.0
184,58.97703275625,59.40682685416666,63.0,68.0
185,59.38799125624999,60.25614108749999,64.0,74.0
186,59.798949756249996,60.399976562499994,52.0,72.0
187,60.20990825624999,60.82292135208333,61.0,80.0
188,60.620866756249995,61.18935934791666,52.0,75.0
189,61.031825256249995,61.51983847499999,61.0,76.0
190,61.031825256249995,61.62942740833333,64.0,76.0
191,59.38799125624999,62.17052276666666,45.0,76.0
192,61.442783756249995,62.17565974791666,52.0,71.0
193,61.853742256249994,62.18935836458333,57.0,81.0
194,62.264700756249994,62.713330452083326,56.0,78.0
195,62.67565925624999,63.17223411041666,61.0,72.0
196,62.67565925624999,63.42908317291666,54.0,73.0
197,63.49757625624999,63.535247452083325,54.0,51.0
198,62.67565925624999,63.739014375,42.0,77.0
199,63.08661775624999,63.74415135624999,49.0,69.0
200,63.49757625624999,63.94278129791666,61.0,71.0
201,63.49757625624999,63.956479914583326,58.0,62.0
202,63.90853475624999,64.29209602291667,54.0,81.0
203,63.49757625624999,64.60202722499999,66.0,72.0
204,64.73045175624999,65.29894434791666,54.0,71.0
205,64.31949325625,65.40682095416666,47.0,78.0
206,65.14141025625,65.41709491666666,59.0,69.0
207,65.14141025625,65.60716322291665,63.0,77.0
208,65.14141025625,65.86058763124998,66.0,76.0
209,65.55236875624999,65.88284788333333,59.0,76.0
210,65.96332725625,66.27497078541666,59.0,75.0
211,65.96332725625,66.56777871666665,64.0,77.0
212,66.78524425625,67.28628357916666,64.0,78.0
213,66.78524425625,67.29838592291667,68.0,78.0
214,66.37428575624999,67.38828904791666,47.0,72.0
215,65.96332725625,67.45571639166666,40.0,79.0
216,67.19810936041667,67.70294998541667,59.0,80.0
217,67.61304686041666,68.12998982916666,64.0,81.0
218,67.61304686041666,68.24063982916667,68.0,82.0
219,68.44292186041666,68.90972654791666,59.0,79.0
220,68.44292186041666,68.93911795416666,64.0,80.0
221,68.85785936041665,69.25204998541666,66.0,78.0
222,68.02798436041667,69.27106795416667,47.0,70.0
223,67.61304686041666,69.28317029791666,40.0,78.0
224,69.27279686041666,69.28317029791666,40.0,78.0
225,69.27279686041666,69.98337732916666,59.0,73.0
226,69.27279686041666,70.14935232916666,52.0,76.0
227,69.68773436041666,70.23579764166666,47.0,63.0
228,70.10267186041666,70.55045857916666,56.0,90.0
229,70.51760936041666,70.90661326666667,47.0,68.0
230,70.93254686041666,71.21262967291666,52.0,68.0
231,70.93254686041666,71.43738748541666,56.0,71.0
232,70.93254686041666,71.45294764166667,59.0,74.0
233,71.34748436041666,71.86615623541667,47.0,63.0
234,70.93254686041666,71.92321014166666,40.0,78.0
235,71.76242186041667,72.20675076666666,56.0,78.0
236,71.76242186041667,72.22749764166666,59.0,74.0
237,71.76242186041667,72.23441326666666,64.0,78.0
238,72.17735936041666,72.26207576666665,52.0,78.0
239,72.59229686041667,73.12479998541666,59.0,76.0
240,72.59229686041667,73.33572654791666,56.0,65.0
241,73.42217186041665,73.49478592291666,56.0,61.0
242,72.59229686041667,73.56912889166667,44.0,81.0
243,73.00723436041666,73.59679139166666,51.0,63.0
244,73.42217186041665,74.16733045416666,59.0,83.0
245,73.42217186041665,74.17078826666666,63.0,79.0
246,73.83710936041666,74.28835389166666,51.0,70.0
247,74.25204686041666,74.67562889166666,63.0,72.0
248,74.25204686041666,74.79665232916666,59.0,78.0
249,74.25204686041666,74.86753748541666,56.0,70.0
250,74.66698436041666,75.19775857916666,51.0,73.0
251,74.25204686041666,75.21677654791667,44.0,80.0
252,75.08192186041666,75.32582731666666,59.0,77.0
253,75.08192186041666,75.34839675208332,56.0,75.0
254,75.49770224791666,75.63832719166666,44.0,69.0
255,75.91436874791665,76.46297963958332,61.0,72.0
256,75.91436874791665,76.5792990375,57.0,67.0
257,75.91436874791665,76.76159063124999,42.0,76.0
258,76.33103524791666,76.80152117083333,49.0,64.0
259,76.74770174791665,77.2042987875,61.0,82.0
260,77.16436824791666,77.32061818541666,57.0,77.0
261,76.74770174791665,77.38138204999998,66.0,77.0
262,77.58103474791666,78.08797898958332,63.0,70.0
263,77.58103474791666,78.23728448541665,59.0,76.0
264,77.99770124791665,78.49596493749999,54.0,71.0
265,77.58103474791666,78.57929823749998,47.0,78.0
266,78.41436774791666,78.86749256666666,63.0,82.0
267,78.41436774791666,78.92999254166665,66.0,77.0
268,78.83103424791666,79.12790912916665,59.0,78.0
269,79.24770074791665,79.53936729791666,59.0,78.0
270,79.24770074791665,79.8501310625,64.0,80.0
271,80.08103374791665,80.24943645833332,59.0,80.0
272,80.08103374791665,80.53068634583332,64.0,87.0
273,79.66436724791666,80.70429738749999,47.0,76.0
274,79.24770074791665,80.76679736249999,40.0,79.0
275,80.49770024791665,81.06193613333332,59.0,78.0
276,80.91436674791666,81.35360268333332,64.0,79.0
277,80.91436674791666,81.35360268333332,68.0,80.0
278,81.33103324791665,81.85360248333332,59.0,70.0
279,81.33103324791665,81.87617191874999,47.0,72.0
280,80.91436674791666,82.16783846874999,40.0,78.0
281,81.74769974791666,82.21818567083332,71.0,77.0
282,81.74769974791666,82.23728288541666,64.0,80.0
283,82.16436624791666,82.42131058958333,59.0,78.0
284,82.58103274791665,82.84665764166665,59.0,77.0
285,82.58103274791665,83.0584631125,64.0,77.0
286,83.41436574791666,83.52894903541666,59.0,70.0
287,83.41436574791666,83.85707390416665,64.0,77.0
288,82.58103274791665,84.11575435625,40.0,80.0
289,82.99769924791666,84.11749046666665,47.0,67.0
290,83.83103224791665,84.37096258749999,59.0,76.0
291,84.24769874791666,84.73728188541665,68.0,76.0
292,84.24769874791666,84.73901799583332,64.0,77.0
293,84.24769874791666,85.14874005416665,40.0,79.0
294,84.66436524791666,85.15742060624999,59.0,77.0
295,85.08103174791665,85.38832329166665,68.0,81.0
296,85.08103174791665,85.40221217499999,64.0,82.0
297,85.91436474791665,86.42130898958332,63.0,65.0
298,85.91436474791665,86.47860063333333,59.0,76.0
299,85.91436474791665,86.64700334374999,56.0,67.0
300,86.74769774791666,87.19040590416665,59.0,80.0
301,85.91436474791665,87.38832249166666,44.0,81.0
302,86.33103124791666,87.42651692083332,51.0,72.0
303,87.16436424791665,87.65394738541666,56.0,77.0
304,87.58103074791666,88.10880831458333,63.0,71.0
305,87.58103074791666,88.18172495208333,59.0,77.0
306,87.58103074791666,88.57408590624999,44.0,80.0
307,88.41436374791665,88.70082196666665,59.0,81.0
308,88.41436374791665,88.71991918124999,63.0,75.0
309,87.99769724791666,88.72686362291665,51.0,67.0
310,88.41436374791665,88.77894693541666,56.0,77.0
311,88.83103024791666,89.04109960833333,44.0,82.0
312,89.24769674791665,89.87443260833332,58.0,65.0
313,89.24769674791665,90.12616861874999,54.0,72.0
314,89.24769674791665,90.61575175624999,42.0,78.0
315,89.66436324791665,90.61748786666665,49.0,71.0
316,90.08102974791666,90.64873785416665,58.0,76.0
317,90.08102974791666,90.67998784166666,64.0,78.0
318,90.49769624791665,91.08276545833333,54.0,76.0
319,90.91436274791666,91.49943195833332,64.0,78.0
320,90.91436274791666,91.53415416666665,58.0,65.0
321,90.91436274791666,91.93519567291665,42.0,78.0
322,91.33102924791666,92.01332064166665,49.0,64.0
323,91.74769574791665,92.14700114374999,54.0,77.0
324,92.16436224791666,92.30672330208333,42.0,78.0
325,91.74769574791665,92.56193153333332,58.0,78.0
326,91.74769574791665,92.66609815833333,64.0,79.0
327,92.99941666666665,93.55516653749999,59.0,78.0
328,92.58102874791666,93.87599374999999,47.0,81.0
329,93.42017366666666,94.04079024166666,63.0,85.0
330,93.84093066666665,94.18805519166665,54.0,77.0
331,94.26168766666666,95.26098554166666,59.0,67.0
332,95.10320166666665,95.72907770416666,54.0,70.0
333,94.26168766666666,95.74836239999999,47.0,78.0
334,94.26168766666666,95.87809580833331,66.0,69.0
335,94.26168766666666,95.88686157916665,63.0,73.0
336,95.52395866666666,95.90614627499998,59.0,46.0
337,94.26168766666666,95.92893727916665,71.0,77.0
338,96.36547266666665,97.04394332916665,47.0,64.0
339,96.78622966666666,98.27115124583332,56.0,77.0
340,97.62774366666666,98.29744855833331,59.0,70.0
341,98.04850066666665,98.50782705833332,52.0,65.0
342,97.20698666666665,98.56568114583332,47.0,63.0
343,98.46925766666665,98.59022530416665,56.0,68.0
344,95.94471566666665,98.59899107499999,40.0,77.0
345,98.46925766666665,98.62704154166666,59.0,72.0
346,99.31077166666665,99.91035039166665,59.0,76.0
347,99.31077166666665,100.21013975416665,56.0,65.0
348,100.15228566666666,100.75537069999999,59.0,71.0
349,100.57304266666665,101.05165375416665,56.0,67.0
350,99.73152866666665,101.1761277,51.0,60.0
351,100.99379966666666,101.49520175833332,59.0,72.0
352,101.83531366666665,102.31041844583332,59.0,77.0
353,99.31077166666665,102.33671575833333,44.0,76.0
354,101.41455666666666,102.35775360833333,51.0,59.0
355,102.25607066666666,102.40684192499998,56.0,69.0
356,100.99379966666666,102.66630874166665,63.0,70.0
357,102.67682766666665,103.58320837083332,57.0,69.0
358,102.67682766666665,103.59548044999998,61.0,70.0
359,103.51834166666666,104.15999609166666,64.0,78.0
360,103.93909866666665,104.51939269583332,57.0,64.0
361,103.09758466666665,104.53692423749999,52.0,70.0
362,104.35985566666665,104.95592808333332,61.0,65.0
363,104.35985566666665,104.98047224166666,64.0,76.0
364,102.67682766666665,105.42577339999998,45.0,77.0
365,104.78061266666666,105.46083648333332,52.0,59.0
366,105.20136966666665,105.65894290416665,61.0,71.0
367,105.62212666666666,105.78517000416666,57.0,70.0
368,105.20136966666665,106.03762420416666,64.0,75.0
369,106.04288366666665,106.58285514999999,59.0,66.0
370,106.04288366666665,106.77394895416666,64.0,70.0
371,106.88439766666666,106.97731483749999,64.0,54.0
372,106.88439766666666,107.82233514583332,59.0,78.0
373,107.72591166666666,108.34126877916665,68.0,74.0
374,107.30515466666665,108.3763318625,64.0,74.0
375,108.14666866666666,108.43593910416665,59.0,70.0
376,108.56742566666665,108.83215194583332,59.0,72.0
377,106.04288366666665,108.92857542499999,40.0,75.0
378,106.46364066666665,108.93383488749998,47.0,63.0
379,108.56742566666665,109.00396105416665,64.0,80.0
380,108.98818266666666,109.2914783375,63.0,78.0
381,109.40893966666665,109.76888983333332,61.0,67.0
382,109.40893966666665,109.77236688333332,64.0,76.0
383,109.82799968333332,110.46951540833332,56.0,64.0
384,110.24524568333331,110.69726218333332,64.0,77.0
385,110.24524568333331,110.74246383333332,61.0,68.0
386,110.66249168333331,111.24663608333331,56.0,52.0
387,111.07973768333332,111.53001565833331,64.0,81.0
388,111.07973768333332,111.53696975833331,68.0,73.0
389,111.07973768333332,111.60998780833332,61.0,74.0
390,111.91422968333332,112.07938955833332,64.0,78.0
391,111.91422968333332,112.10546743333332,61.0,72.0
392,111.49698368333331,112.32626010833332,56.0,56.0
393,109.40893966666665,112.39927815833332,49.0,77.0
394,112.33147568333331,112.76784545833331,63.0,68.0
395,112.74872168333332,113.63015385833332,64.0,74.0
396,113.16596768333332,113.77618995833332,52.0,72.0
397,113.58321368333331,114.20560563333332,61.0,80.0
398,114.00045968333332,114.57764998333332,52.0,75.0
399,114.41770568333331,114.91318530833331,61.0,76.0
400,114.41770568333331,115.02445090833332,64.0,76.0
401,112.74872168333332,115.57382480833331,45.0,76.0
402,114.83495168333332,115.57904038333332,52.0,71.0
403,115.25219768333332,115.59294858333331,57.0,81.0
404,115.66944368333331,116.12493723333331,56.0,78.0
405,116.08668968333332,116.59086193333331,61.0,72.0
406,116.08668968333332,116.85164068333331,54.0,73.0
407,116.92118168333332,116.95942923333331,54.0,51.0
408,116.08668968333332,117.16631370833332,42.0,77.0
409,116.50393568333331,117.17152928333331,49.0,69.0
410,116.92118168333332,117.37319818333332,61.0,71.0
411,116.92118168333332,117.38710638333332,58.0,62.0
412,117.33842768333332,117.72785728333332,54.0,81.0
413,116.92118168333332,118.04253030833331,66.0,72.0
414,118.17291968333332,118.75010998333332,54.0,71.0
415,117.75567368333331,118.85963705833332,47.0,78.0
416,118.59016568333331,118.87006820833332,59.0,69.0
417,118.59016568333331,119.06304448333331,63.0,77.0
418,118.59016568333331,119.32034618333331,66.0,76.0
419,119.00741168333332,119.34294700833331,59.0,76.0
420,119.42465768333332,119.94273813333331,56.0,73.0
421,119.42465768333332,120.00358650833331,59.0,75.0
422,119.42465768333332,120.20525540833331,52.0,76.0
423,119.84190368333331,120.35650708333331,47.0,77.0
424,119.42465768333332,120.44864890833331,40.0,81.0
425,120.25914968333332,120.59642353333331,59.0,79.0
426,120.25914968333332,120.61380878333331,56.0,82.0
427,120.67639568333331,120.75984488333332,52.0,81.0
428,120.25914968333332,120.77201455833331,64.0,78.0
429,121.09364168333332,121.67778608333332,63.0,72.0
430,121.09364168333332,121.77340495833332,59.0,77.0
431,121.51088768333332,122.04287633333331,54.0,63.0
432,121.09364168333332,122.07416978333332,47.0,80.0
433,121.92813368333331,122.51053955833332,59.0,72.0
434,121.92813368333331,122.51053955833332,63.0,66.0
435,121.92813368333331,122.51053955833332,66.0,70.0
436,121.92813368333331,122.51053955833332,71.0,62.0
437,123.17987168333332,123.85268085833331,47.0,64.0
438,123.59711768333331,125.06964835833331,56.0,77.0
439,124.43160968333332,125.09572623333331,59.0,70.0
440,124.84885568333331,125.30434923333331,52.0,65.0
441,124.01436368333331,125.36172055833332,47.0,63.0
442,125.26610168333332,125.38605990833332,56.0,68.0
443,122.76262568333331,125.39475253333332,40.0,77.0
444,125.26610168333332,125.42256893333331,59.0,72.0
445,126.10059368333332,126.69516923333332,59.0,76.0
446,126.10059368333332,126.99245700833332,56.0,65.0
447,126.93508568333331,127.53313828333332,59.0,71.0
448,127.35233168333332,127.82694900833332,56.0,67.0
449,126.5178396833333,127.9503842833333,51.0,60.0
450,127.76957768333331,128.2667958333333,59.0,72.0
451,128.6040696833333,129.07520995833332,59.0,77.0
452,126.10059368333332,129.10128783333332,44.0,76.0
453,128.18682368333333,129.12215013333332,51.0,59.0
454,129.0213156833333,129.1708288333333,56.0,69.0
455,127.76957768333331,129.4281305333333,63.0,70.0
456,129.43856168333332,130.33737910833332,57.0,69.0
457,129.43856168333332,130.34954878333332,61.0,70.0
458,130.27305368333333,130.9093538333333,64.0,78.0
459,130.6902996833333,131.2657514583333,57.0,64.0
460,129.85580768333332,131.2831367083333,52.0,70.0
461,131.1075456833333,131.69864418333333,61.0,65.0
462,131.1075456833333,131.72298353333332,64.0,76.0
463,129.43856168333332,132.16456888333332,45.0,77.0
464,131.52479168333332,132.19933938333332,52.0,59.0
465,131.94203768333333,132.39579270833332,61.0,71.0
466,132.3592836833333,132.52096650833332,57.0,70.0
467,131.94203768333333,132.7713141083333,64.0,75.0
468,132.7765296833333,133.3119953833333,59.0,66.0
469,132.7765296833333,133.5014946083333,64.0,70.0
470,133.61102168333332,133.70316350833332,64.0,54.0
471,133.61102168333332,134.54113255833332,59.0,78.0
472,134.4455136833333,135.05573595833332,68.0,74.0
473,134.02826768333333,135.09050645833332,64.0,74.0
474,134.8627596833333,135.14961630833332,59.0,70.0
475,135.28000568333331,135.5425229583333,59.0,72.0
476,132.7765296833333,135.63814183333332,40.0,75.0
477,133.1937756833333,135.64335740833332,47.0,63.0
478,135.28000568333331,135.7128984083333,64.0,80.0
479,135.69725168333332,135.9980165083333,63.0,78.0
480,136.11449768333333,136.4726338333333,61.0,67.0
481,136.11449768333333,136.47611088333332,64.0,76.0
482,136.5317436833333,137.1732594083333,56.0,64.0
483,136.9489896833333,137.40100618333332,64.0,77.0
484,136.9489896833333,137.44620783333332,61.0,68.0
485,137.36623568333331,137.9503800833333,56.0,52.0
486,137.78348168333332,138.23375965833333,64.0,81.0
487,137.78348168333332,138.2407137583333,68.0,73.0
488,137.78348168333332,138.31373180833333,61.0,74.0
489,138.6179736833333,138.7831335583333,64.0,78.0
490,138.6179736833333,138.8092114333333,61.0,72.0
491,138.2007276833333,139.03000410833332,56.0,56.0
492,136.11449768333333,139.10302215833332,49.0,77.0
493,139.0352196833333,139.4715894583333,63.0,68.0
494,139.45246568333332,140.3338978583333,64.0,74.0
495,139.86971168333332,140.4799339583333,52.0,72.0
496,140.2869576833333,140.9093496333333,61.0,80.0
497,140.7042036833333,141.28139398333332,52.0,75.0
498,141.1214496833333,141.6169293083333,61.0,76.0
499,141.1214496833333,141.7281949083333,64.0,76.0
500,139.45246568333332,142.2775688083333,45.0,76.0
501,141.53869568333332,142.2827843833333,52.0,71.0
502,141.95594168333332,142.2966925833333,57.0,81.0
503,142.3731876833333,142.82868123333333,56.0,78.0
504,142.7904336833333,143.29460593333332,61.0,72.0
505,142.7904336833333,143.55538468333333,54.0,73.0
506,143.62492568333332,143.6631732333333,54.0,51.0
507,142.7904336833333,143.87005770833332,42.0,77.0
508,143.2076796833333,143.8752732833333,49.0,69.0
509,143.62492568333332,144.0769421833333,61.0,71.0
510,143.62492568333332,144.0908503833333,58.0,62.0
511,144.04217168333332,144.43160128333332,54.0,81.0
512,143.62492568333332,144.7462743083333,66.0,72.0
513,144.8766636833333,145.45385398333332,54.0,71.0
514,144.4594176833333,145.5633810583333,47.0,78.0
515,145.2939096833333,145.57381220833332,59.0,69.0
516,145.2939096833333,145.7667884833333,63.0,77.0
517,145.2939096833333,146.02409018333333,66.0,76.0
518,145.71115568333332,146.0466910083333,59.0,76.0
519,146.12840168333332,146.44481323333332,59.0,75.0
520,146.12840168333332,146.74210100833332,64.0,77.0
521,146.9628936833333,147.46880445833332,64.0,78.0
522,146.9628936833333,147.48097413333332,68.0,78.0
523,146.5456476833333,147.5713774333333,47.0,72.0
524,146.12840168333332,147.63917990833332,40.0,79.0
525,147.3801396833333,147.8877889833333,59.0,80.0
526,147.79738568333332,148.3172046583333,64.0,81.0
527,147.79738568333332,148.4284702583333,68.0,82.0
528,148.6318776833333,149.1012794333333,59.0,79.0
529,148.6318776833333,149.13083435833332,64.0,80.0
530,149.0491236833333,149.4455073833333,66.0,78.0
531,148.21463168333332,149.4646311583333,47.0,70.0
532,147.79738568333332,149.4768008333333,40.0,78.0
533,149.4663696833333,149.4768008333333,40.0,78.0
534,149.4663696833333,150.18314672499997,59.0,73.0
535,149.4663696833333,150.350744325,52.0,76.0
536,149.88461349999997,150.43803474166666,47.0,63.0
537,150.30360749999997,150.7557718583333,56.0,90.0
538,150.7226015,151.115408375,47.0,68.0
539,151.1415955,151.42441645,52.0,68.0
540,151.1415955,151.6513715333333,56.0,71.0
541,151.1415955,151.6670838083333,59.0,74.0
542,151.5605895,152.084332,47.0,63.0
543,151.1415955,152.141943675,40.0,78.0
544,151.9795835,152.42825624166665,56.0,78.0
545,151.9795835,152.44920594166666,59.0,74.0
546,151.9795835,152.456189175,64.0,78.0
547,152.3985775,152.4841221083333,52.0,78.0
548,152.81757149999999,153.35528046666664,59.0,76.0
549,152.81757149999999,153.56826908333332,56.0,65.0
550,153.65555949999998,153.72888344999998,56.0,61.0
551,152.81757149999999,153.80395320833333,44.0,81.0
552,153.23656549999998,153.83188614166664,51.0,63.0
553,153.65555949999998,154.40800289166665,59.0,83.0
554,153.65555949999998,154.4114945083333,63.0,79.0
555,154.07455349999998,154.530209475,51.0,70.0
556,154.49354749999998,154.92127054166664,63.0,72.0
557,154.49354749999998,155.04347712499998,59.0,78.0
558,154.49354749999998,155.11505526666664,56.0,70.0
559,154.91254149999997,155.44850465833332,51.0,73.0
560,154.49354749999998,155.46770854999997,44.0,80.0
561,155.33153549999997,155.577694475,59.0,77.0
562,155.33153549999997,155.60038998333332,56.0,75.0
563,155.75052949999997,155.89193997499999,44.0,69.0
564,156.16952349999997,156.7211989333333,61.0,72.0
565,156.16952349999997,156.83816809166666,57.0,67.0
566,156.16952349999997,157.02147796666665,42.0,76.0
567,156.5885175,157.06163155833332,49.0,64.0
568,157.0075115,157.46665909166666,61.0,82.0
569,157.4265055,157.58362824999998,57.0,77.0
570,157.0075115,157.64473154166666,66.0,77.0
571,157.8454995,158.35527553333333,63.0,70.0
572,157.8454995,158.50541504999998,59.0,76.0
573,158.2644935,158.76554049166666,54.0,71.0
574,157.8454995,158.84933929166664,47.0,78.0
575,158.68348749999998,159.13914347499997,63.0,82.0
576,158.68348749999998,159.201992575,66.0,77.0
577,159.10248149999998,159.40101472499998,59.0,78.0
578,159.52147549999998,159.8147713,59.0,78.0
579,159.52147549999998,160.12727099166665,64.0,80.0
580,160.35946349999998,160.5288069083333,59.0,80.0
581,160.35946349999998,160.8116278583333,64.0,87.0
582,159.94046949999998,160.98620869166666,47.0,76.0
583,159.52147549999998,161.04905779166666,40.0,79.0
584,160.77845749999997,161.34584520833332,59.0,78.0
585,161.19745149999997,161.63914100833333,64.0,79.0
586,161.19745149999997,161.63914100833333,68.0,80.0
587,161.61644549999997,162.1419338083333,59.0,70.0
588,161.61644549999997,162.16462931666666,47.0,72.0
589,161.19745149999997,162.45792511666664,40.0,78.0
590,162.0354395,162.50855355833332,71.0,77.0
591,162.0354395,162.52775744999997,64.0,80.0
592,162.4544335,162.71281313333333,59.0,78.0
593,162.8734275,163.140536175,59.0,77.0
594,162.8734275,163.35352479166664,64.0,77.0
595,163.7114155,163.82663885,59.0,70.0
596,163.7114155,164.156596625,64.0,77.0
597,162.8734275,164.41672206666664,40.0,80.0
598,163.2924215,164.41846787499998,47.0,67.0
599,164.13040949999998,164.67335589166666,59.0,76.0
600,164.54940349999998,165.04172144999998,68.0,76.0
601,164.54940349999998,165.04346725833332,64.0,77.0
602,164.54940349999998,165.455478025,40.0,79.0
603,164.96839749999998,165.46420706666666,59.0,77.0
604,165.38739149999998,165.696399575,68.0,81.0
605,165.38739149999998,165.71036604166665,64.0,82.0
606,166.22537949999997,166.7351555333333,63.0,65.0
607,166.22537949999997,166.79276720833332,59.0,76.0
608,166.22537949999997,166.96211061666665,56.0,67.0
609,167.06336749999997,167.50854862499997,59.0,80.0
610,166.22537949999997,167.707570775,44.0,81.0
611,166.64437349999997,167.74597855833332,51.0,72.0
612,167.48236149999997,167.97467945,56.0,77.0
613,167.9013555,168.4302774208333,63.0,71.0
614,167.9013555,168.50319405833332,59.0,77.0
615,167.9013555,168.89555501249998,44.0,80.0
616,168.73583285416666,169.02229107291666,59.0,81.0
617,168.73583285416666,169.04138828749998,63.0,75.0
618,168.31916635416664,169.04833272916665,51.0,67.0
619,168.73583285416666,169.10041604166665,56.0,77.0
620,169.15249935416665,169.36256871458332,44.0,82.0
621,169.56916585416664,170.1959017145833,58.0,65.0
622,169.56916585416664,170.447637725,54.0,72.0
623,169.56916585416664,170.93722086249997,42.0,78.0
624,169.98583235416666,170.93895697291666,49.0,71.0
625,170.40249885416665,170.97020696041665,58.0,76.0
626,170.40249885416665,171.00145694791664,64.0,78.0
627,170.81916535416664,171.4042345645833,54.0,76.0
628,171.23583185416663,171.82090106458332,64.0,78.0
629,171.23583185416663,171.85562327291666,58.0,65.0
630,171.23583185416663,172.25666477916664,42.0,78.0
631,171.65249835416665,172.33478974791666,49.0,64.0
632,172.06916485416664,172.46847024999997,54.0,77.0
633,172.48583135416663,172.62819240833332,42.0,78.0
634,172.06916485416664,172.8834006395833,58.0,78.0
635,172.06916485416664,172.9875672645833,64.0,79.0
636,173.31916435416665,173.86951135624997,59.0,78.0
637,172.90249785416665,174.1872195625,47.0,81.0
638,173.73583085416664,174.35041394166666,63.0,85.0
639,174.15249735416666,174.49624721666666,54.0,77.0
640,174.56916385416665,175.56518079791664,59.0,67.0
641,175.40761779791663,176.03261769791663,54.0,70.0
642,174.56916385416665,176.05187539791663,47.0,78.0
643,174.56916385416665,176.18142719791663,66.0,69.0
644,174.56916385416665,176.19018069791665,63.0,73.0
645,175.82778579791665,176.20943839791664,59.0,46.0
646,174.56916385416665,176.23219749791664,71.0,77.0
647,176.66812179791663,177.34564269791665,47.0,64.0
648,177.08828979791664,178.57113269791662,56.0,77.0
649,177.92862579791662,178.59739319791663,59.0,70.0
650,178.34879379791664,178.80747719791663,52.0,65.0
651,177.50845779791663,178.86525029791665,47.0,63.0
652,178.76896179791663,178.88976009791665,56.0,68.0
653,176.24795379791664,178.89851359791663,40.0,77.0
654,178.76896179791663,178.92652479791664,59.0,72.0
655,179.60515829791663,180.19973384791663,59.0,76.0
656,179.60515829791663,180.49702162291663,56.0,65.0
657,180.43965029791664,181.03770289791663,59.0,71.0
658,180.85689629791665,181.33151362291665,56.0,67.0
659,180.02240429791664,181.45494889791664,51.0,60.0
660,181.27414229791665,181.77136044791663,59.0,72.0
661,182.10863429791664,182.57977457291665,59.0,77.0
662,179.60515829791663,182.60585244791665,44.0,76.0
663,181.69138829791663,182.62671474791665,51.0,59.0
664,182.52588029791664,182.67539344791663,56.0,69.0
665,181.27414229791665,182.93269514791663,63.0,70.0
666,182.94312629791665,183.84194372291665,57.0,69.0
667,182.94312629791665,183.85411339791665,61.0,70.0
668,183.77761829791663,184.41391844791664,64.0,78.0
669,184.19486429791664,184.77031607291664,57.0,64.0
670,183.36037229791665,184.78770132291663,52.0,70.0
671,184.61211029791664,185.19903818541664,61.0,65.0
672,184.61211029791664,185.22310969791664,64.0,76.0
673,182.94312629791665,185.65983571041664,45.0,77.0
674,185.02709881041665,185.69422358541664,52.0,59.0
675,185.43975331041665,185.88851507916664,61.0,71.0
676,185.85240781041665,186.01231142916666,57.0,70.0
677,185.43975331041665,186.25990412916664,64.0,75.0
678,186.26506231041665,186.7928762270833,59.0,66.0
679,186.26506231041665,186.97926463749997,64.0,70.0
680,187.08699371874997,187.1776229458333,64.0,54.0
681,187.08699371874997,188.00183591666664,59.0,78.0
682,187.90778671874997,188.50799159999997,68.0,74.0
683,187.49739021874996,188.5421913083333,64.0,74.0
684,188.31818321874997,188.60033081249998,59.0,70.0
685,188.72857971874996,188.98678751666662,59.0,72.0
686,186.26506231041665,189.0808367145833,40.0,75.0
687,186.67659721874998,189.0859666708333,47.0,63.0
688,188.72857971874996,189.15436608749997,64.0,80.0
689,189.13897621874997,189.4348036958333,63.0,78.0
690,189.54937271874996,189.9016297145833,61.0,67.0
691,189.54937271874996,189.90504968541663,64.0,76.0
692,189.95976921874995,190.59075383749996,56.0,64.0
693,190.37016571874997,190.8147619270833,64.0,77.0
694,190.37016571874997,190.85922154791663,61.0,68.0
695,190.78056221874996,191.35511731874996,56.0,52.0
696,191.19095871874995,191.63384494166664,64.0,81.0
697,191.19095871874995,191.6406848833333,68.0,73.0
698,191.19095871874995,191.7125042708333,61.0,74.0
699,192.01175171874996,192.1742003333333,64.0,78.0
700,192.01175171874996,192.1998501145833,61.0,72.0
701,191.60135521874997,192.41701826249997,56.0,56.0
702,189.54937271874996,192.48883764999997,49.0,77.0
703,192.42214821874995,192.8513545583333,63.0,68.0
704,192.83254471874997,193.69950732499996,64.0,74.0
705,193.24294121874996,193.84314609999996,52.0,72.0
706,193.65333771874998,194.26551249791663,61.0,80.0
707,194.06373421874997,194.6314493770833,52.0,75.0
708,194.47413071874996,194.96147656249997,61.0,76.0
709,194.47413071874996,195.07091562916662,64.0,76.0
710,192.83254471874997,195.6112710208333,45.0,76.0
711,194.88452721874998,195.6164009770833,52.0,71.0
712,195.29492371874997,195.63008086041663,57.0,81.0
713,195.70532021874996,196.15333639791663,56.0,78.0
714,196.11571671874998,196.6116124895833,61.0,72.0
715,196.11571671874998,196.8681103020833,54.0,73.0
716,196.93650971874996,196.97412939791664,54.0,51.0
717,196.11571671874998,197.1780139208333,42.0,77.0
718,196.52611321874997,197.1831863333333,49.0,69.0
719,196.93650971874996,197.3831862833333,61.0,71.0
720,196.93650971874996,197.3969793833333,58.0,62.0
721,197.3487035333333,197.7349103333333,54.0,81.0
722,196.93650971874996,198.0473521583333,66.0,72.0
723,198.1773796583333,198.7529680583333,54.0,71.0
724,197.7624965333333,198.8621911583333,47.0,78.0
725,198.59346765833328,198.8725933583333,59.0,69.0
726,198.59346765833328,199.06503405833328,63.0,77.0
727,198.59346765833328,199.3216216583333,66.0,76.0
728,199.00955565833328,199.3441597583333,59.0,76.0
729,199.42564365833329,199.9422862583333,56.0,73.0
730,199.42564365833329,200.0029657583333,59.0,75.0
731,199.42564365833329,200.2040749583333,52.0,76.0
732,199.8417316583333,200.3549068583333,47.0,77.0
733,199.42564365833329,200.4467929583333,40.0,81.0
734,200.2578196583333,200.59415745833329,59.0,79.0
735,200.2578196583333,200.61149445833328,56.0,82.0
736,200.6739076583333,200.7571252583333,52.0,81.0
737,200.2578196583333,200.7692611583333,64.0,78.0
738,201.0899956583333,201.6725188583333,63.0,72.0
739,201.0899956583333,201.7678723583333,59.0,77.0
740,201.5060836583333,202.0365958583333,54.0,63.0
741,201.0899956583333,202.0678024583333,47.0,80.0
742,201.9221716583333,202.5029611583333,59.0,72.0
743,201.9221716583333,202.5029611583333,63.0,66.0
744,201.9221716583333,202.5029611583333,66.0,70.0
745,201.9221716583333,202.5029611583333,71.0,62.0
746,202.7543476583333,203.1114898583333,61.0,67.0
747,202.7543476583333,203.1149572583333,64.0,76.0
748,203.1704356583333,203.8101709583333,56.0,64.0
749,203.5865236583333,204.0372856583333,64.0,77.0
750,203.5865236583333,204.0823618583333,61.0,68.0
751,204.0026116583333,204.5851348583333,56.0,52.0
752,204.41869965833328,204.8677279583333,64.0,81.0
753,204.41869965833328,204.8746627583333,68.0,73.0
754,204.41869965833328,204.9474781583333,61.0,74.0
755,205.25087565833329,205.4155771583333,64.0,78.0
756,205.25087565833329,205.4415826583333,61.0,72.0
757,204.83478765833328,205.6617625583333,56.0,56.0
758,202.7543476583333,205.7345779583333,49.0,77.0
759,205.6669636583333,206.1021223583333,63.0,68.0
760,206.0830516583333,206.9620375583333,64.0,74.0
761,206.4991396583333,207.10766835833329,52.0,72.0
762,206.9152276583333,207.5358922583333,61.0,80.0
763,207.3313156583333,207.90690405833328,52.0,75.0
764,207.7474036583333,208.2415081583333,61.0,76.0
765,207.7474036583333,208.3524649583333,64.0,76.0
766,206.0830516583333,208.9003141583333,45.0,76.0
767,208.1634916583333,208.90551525833328,52.0,71.0
768,208.5795796583333,208.9193848583333,57.0,81.0
769,208.9956676583333,209.4498970583333,56.0,78.0
770,209.4117556583333,209.9145286583333,61.0,72.0
771,209.4117556583333,210.1745836583333,54.0,73.0
772,210.24393165833328,210.28207305833328,54.0,51.0
773,209.4117556583333,210.4883833583333,42.0,77.0
774,209.82784365833328,210.4935844583333,49.0,69.0
775,210.24393165833328,210.69469365833328,61.0,71.0
776,210.24393165833328,210.7085632583333,58.0,62.0
777,210.66001965833328,211.0483684583333,54.0,81.0
778,210.24393165833328,211.3621681583333,66.0,72.0
779,211.4921956583333,212.0677840583333,54.0,71.0
780,211.07610765833329,212.17700715833328,47.0,78.0
781,211.9082836583333,212.1874093583333,59.0,69.0
782,211.9082836583333,212.3798500583333,63.0,77.0
783,211.9082836583333,212.6364376583333,66.0,76.0
784,212.3243716583333,212.6589757583333,59.0,76.0
785,213.1236073583333,213.6246466583333,47.0,77.0
786,212.71618785833329,213.6575869583333,40.0,81.0
787,213.9523159583333,214.3285288583333,52.0,85.0
788,213.5136898583333,214.3302625583333,59.0,72.0
789,213.50675505833328,214.33546365833328,56.0,80.0
790,213.5119561583333,214.49669775833328,64.0,77.0
791,214.7827582583333,215.3687488583333,56.0,72.0
792,214.38227355833328,215.3739499583333,49.0,81.0
793,215.2161832583333,215.4502327583333,61.0,75.0
794,215.2179169583333,215.96687535833328,64.0,80.0
795,215.6392060583333,216.0362233583333,61.0,76.0
796,215.2092484583333,216.0674299583333,68.0,72.0
797,216.8874700583333,217.3885093583333,61.0,76.0
798,216.03448965833329,217.4387866583333,45.0,77.0
799,216.8996059583333,217.4474551583333,64.0,76.0
800,216.4748494583333,217.4717269583333,52.0,77.0
801,216.8926711583333,217.4994661583333,57.0,67.0
802,217.83233655833328,218.51194695833328,60.0,67.0
803,217.7751244583333,218.53795245833328,57.0,65.0
804,217.9068856583333,218.5951645583333,64.0,74.0
805,218.3108377583333,219.41347095833328,52.0,71.0
806,217.8392713583333,219.4966885583333,45.0,77.0
807,218.88989355833328,220.4172832583333,69.0,69.0
808,218.73732795833328,220.4224843583333,57.0,57.0
809,218.78413785833328,220.4224843583333,60.0,73.0
810,218.8413499583333,220.4224843583333,64.0,65.0
811,220.9772683583333,221.1523720583333,52.0,77.0
812,221.1905134583333,221.30320395833328,56.0,75.0
813,221.43496515833328,222.0209557583333,59.0,71.0
814,221.7002212583333,222.1041733583333,64.0,74.0
815,221.96200995833328,222.2012605583333,68.0,62.0
816,222.3330217583333,222.53586465833328,71.0,73.0
817,223.45299195833329,223.63676415833328,71.0,60.0
818,223.5015355583333,223.67837295833328,76.0,64.0
819,223.6211608583333,223.72171545833328,80.0,65.0
820,220.7518873583333,224.43946725833328,47.0,69.0
821,220.4692942583333,224.4741412583333,40.0,82.0
