,start,end,pitch,velocity
0,28.403291,28.7665784,62.0,79.0
1,28.837067,29.2057766,64.0,88.0
2,29.053955000000002,29.7010042,67.0,88.0
3,30.138395,30.541445200000002,69.0,95.0
4,30.572171,30.807133,71.0,76.0
5,31.873499,32.2277494,62.0,69.0
6,30.789059,32.460904,64.0,75.0
7,32.307275,32.460904,64.0,77.0
8,32.741051,32.840458,67.0,95.0
9,32.957939,33.1965158,67.0,100.0
10,33.391715,33.4712406,67.0,98.0
11,33.608603,33.961046,67.0,95.0
12,34.042379000000004,34.425547800000004,64.0,79.0
13,34.259267,34.8629386,62.0,91.0
14,35.343707,35.7539868,62.0,91.0
15,35.777483000000004,35.9708748,64.0,79.0
16,35.994371,36.8763822,67.0,79.0
17,37.078811,37.440291,69.0,98.0
18,37.512587,37.7258602,71.0,73.0
19,37.729475,38.7343894,64.0,71.0
20,38.813915,39.1952764,62.0,68.0
21,39.247691,39.4428902,64.0,91.0
22,39.681467,40.070058,71.0,91.0
23,40.115243,40.7514478,69.0,77.0
24,40.549019,40.9267656,67.0,77.0
25,40.982795,41.1870312,64.0,91.0
26,41.199683,42.1539902,69.0,100.0
27,42.284123,42.6383734,69.0,109.0
28,42.717899,43.0956456,71.0,100.0
29,43.151675,43.5456882,74.0,111.0
30,43.585451,43.9794642,71.0,100.0
31,44.019227,44.3861292,69.0,100.0
32,44.453003,44.8795494,67.0,98.0
33,44.886779,45.7886716,64.0,109.0
34,45.754331,46.0778556,62.0,106.0
35,46.188107,46.414032,64.0,82.0
36,46.621883000000004,46.856845,67.0,106.0
37,47.055659,47.2598952,67.0,88.0
38,47.489435,47.8726038,67.0,106.0
39,47.923211,48.1382916,64.0,100.0
40,48.140099,49.043799,69.0,113.0
41,49.224539,49.748685,69.0,106.0
42,49.658315,50.048713400000004,71.0,109.0
43,50.092091,50.4644154,74.0,111.0
44,50.525867,50.9126506,71.0,106.0
45,50.959643,51.321123,69.0,103.0
46,51.176531,51.6229588,67.0,109.0
47,51.610307,52.2212082,64.0,111.0
48,52.694747,52.9947754,62.0,109.0
49,53.128523,53.4954252,64.0,95.0
50,53.562299,53.869557,67.0,109.0
51,53.996075,54.6322798,67.0,115.0
52,54.863627,55.1871516,76.0,113.0
53,55.297403,56.9403296,74.0,111.0
54,57.900059,58.2651538,71.0,111.0
55,58.333835,58.6609744,74.0,91.0
56,58.767611,58.9881138,76.0,109.0
57,59.201387000000004,59.2772978,76.0,106.0
58,59.418275,59.4959932,76.0,103.0
59,59.635163,59.960495,76.0,113.0
60,60.068939,60.3780044,74.0,109.0
61,60.502715,60.9129948,74.0,111.0
62,61.370267,61.7281322,71.0,113.0
63,61.804043,62.129375,69.0,106.0
64,62.237819,62.606528600000004,71.0,113.0
65,62.671595,63.0583786,74.0,103.0
66,63.105371,63.4795028,69.0,109.0
67,63.539147,63.9494268,67.0,109.0
68,63.972923,65.0338668,64.0,111.0
69,64.840475,65.165807,71.0,103.0
70,65.274251,65.5941608,74.0,98.0
71,65.708027,65.9484112,76.0,113.0
72,66.141803,66.376765,76.0,109.0
73,66.575579,66.9659774,76.0,109.0
74,67.009355,67.1322582,74.0,98.0
75,67.226243,67.795574,76.0,109.0
76,67.876907,68.2799572,74.0,103.0
77,68.310683,68.4751564,71.0,103.0
78,68.527571,69.114976,69.0,100.0
79,68.961347,70.9097242,71.0,109.0
80,71.780891,72.11526,71.0,111.0
81,72.214667,72.4875844,74.0,100.0
82,72.648443,72.85087180000001,76.0,117.0
83,73.082219,73.1581298,76.0,103.0
84,73.299107,73.3750178,76.0,106.0
85,73.515995,73.7744532,76.0,115.0
86,73.949771,74.1955774,74.0,109.0
87,74.38354700000001,74.989026,74.0,111.0
88,75.251099,75.6451122,71.0,103.0
89,75.684875,76.019244,69.0,98.0
90,76.118651,76.507242,71.0,111.0
91,76.552427,76.8940256,74.0,98.0
92,76.986203,77.3802162,69.0,109.0
93,77.419979,77.781459,67.0,103.0
94,78.721307,78.974343,62.0,103.0
95,77.853755,79.0050688,64.0,100.0
96,79.155083,79.2978676,64.0,91.0
97,79.371971,79.8943096,67.0,100.0
98,80.022635,80.266634,67.0,95.0
99,80.456411,80.799817,67.0,88.0
100,80.673299,80.9516386,71.0,91.0
101,81.323963,81.3980664,69.0,100.0
102,81.540851,81.8065388,69.0,95.0
103,81.974627,82.0939154,69.0,95.0
104,82.191515,82.5674542,67.0,100.0
105,82.625291,83.03195600000001,64.0,91.0
106,82.842179,85.363502,67.0,113.0
107,109.953179,110.30923680000001,62.0,115.0
108,110.386955,110.72674620000001,64.0,111.0
109,110.820731,111.4478988,67.0,103.0
110,111.688283,112.076874,69.0,111.0
111,112.12205900000001,112.3136434,71.0,109.0
112,112.338947,113.26252840000001,64.0,111.0
113,113.423387,113.7523338,62.0,103.0
114,113.857163,114.1083916,64.0,98.0
115,114.290939,114.5765082,67.0,109.0
116,114.724715,114.968714,67.0,106.0
117,115.158491,115.4639416,67.0,103.0
118,115.592267,115.7693922,64.0,100.0
119,115.809155,117.0707202,62.0,106.0
120,116.893595,117.0707202,62.0,106.0
121,117.327371,117.6870436,64.0,88.0
122,117.76114700000001,118.0087608,67.0,100.0
123,118.194923,118.393737,67.0,95.0
124,118.628699,118.8166686,69.0,106.0
125,118.845587,119.6155394,71.0,98.0
126,119.279363,120.083656,64.0,106.0
127,120.363803,120.4577878,62.0,98.0
128,120.580691,120.89517860000001,62.0,106.0
129,121.014467,121.1662886,64.0,85.0
130,121.23135500000001,121.42474680000001,67.0,106.0
131,121.665131,121.7898416,67.0,100.0
132,122.098907,122.324832,67.0,113.0
133,122.31579500000001,122.577868,64.0,106.0
134,122.749571,123.228532,69.0,113.0
135,123.834011,124.123195,69.0,113.0
136,124.267787,124.60215600000001,71.0,98.0
137,124.70156300000001,125.0738874,74.0,109.0
138,125.135339,125.5311596,71.0,91.0
139,125.569115,125.722744,69.0,113.0
140,125.78600300000001,126.3770228,67.0,111.0
141,126.219779,126.6336736,64.0,115.0
142,127.304219,127.638588,62.0,103.0
143,127.737995,127.918735,64.0,98.0
144,128.171771,128.34347400000001,67.0,103.0
145,128.605547,128.7194132,67.0,103.0
146,129.039323,129.2236778,67.0,111.0
147,129.256211,129.6068466,64.0,106.0
148,129.689987,130.6063388,69.0,115.0
149,130.774427,131.0925294,69.0,115.0
150,131.208203,131.60221620000002,71.0,103.0
151,131.641979,132.0016516,74.0,115.0
152,132.07575500000002,132.4878422,71.0,109.0
153,132.509531,132.66135260000001,69.0,113.0
154,132.726419,133.133084,67.0,111.0
155,133.160195,133.919303,64.0,113.0
156,134.244635,134.4850192,62.0,113.0
157,134.461523,134.6657592,64.0,115.0
158,134.895299,135.0525428,64.0,111.0
159,135.112187,135.292927,67.0,115.0
160,135.545963,135.753814,67.0,111.0
161,135.979739,136.1713234,67.0,111.0
162,136.196627,136.6340178,76.0,117.0
163,136.630403,138.9059196,74.0,120.0
164,139.449947,139.8132344,71.0,117.0
165,139.883723,140.190981,74.0,111.0
166,140.317499,140.57414980000001,76.0,120.0
167,140.751275,140.8289932,76.0,113.0
168,140.968163,141.0440738,76.0,115.0
169,141.18505100000002,141.5031534,76.0,117.0
170,141.618827,141.8917444,74.0,120.0
171,142.052603,142.8062888,74.0,120.0
172,142.920155,143.3141682,71.0,115.0
173,143.353931,143.670226,69.0,106.0
174,143.787707,144.1654536,71.0,117.0
175,144.221483,144.5576594,74.0,106.0
176,144.655259,145.0366204,69.0,111.0
177,145.089035,145.4938926,67.0,111.0
178,145.522811,146.2403488,64.0,113.0
179,146.390363,146.6813544,71.0,117.0
180,146.824139,146.9199312,74.0,111.0
181,147.041027,147.5940914,76.0,120.0
182,147.691691,147.9302678,76.0,111.0
183,148.12546700000001,148.4453768,76.0,115.0
184,148.559243,148.6478056,74.0,106.0
185,148.776131,149.3508842,76.0,123.0
186,149.426795,149.8316526,74.0,111.0
187,149.860571,150.005163,71.0,115.0
188,150.077459,150.63052340000002,69.0,115.0
189,150.511235,152.99641,71.0,117.0
190,153.330779,153.6814146,71.0,113.0
191,153.764555,154.0302428,74.0,109.0
192,154.198331,154.41883380000002,76.0,120.0
193,154.632107,154.71344,76.0,111.0
194,154.848995,154.930328,76.0,115.0
195,155.065883,155.364104,76.0,120.0
196,155.499659,155.7364284,74.0,115.0
197,155.933435,156.4774624,74.0,115.0
198,156.800987,157.1733114,71.0,117.0
199,157.23476300000002,157.5438284,69.0,109.0
200,157.668539,158.05713,71.0,115.0
201,158.102315,158.5613946,74.0,103.0
202,158.536091,158.9084154,69.0,115.0
203,158.969867,159.2518214,67.0,111.0
204,159.403643,159.719938,64.0,111.0
205,160.271195,160.6543638,62.0,106.0
206,160.704971,160.8513704,64.0,109.0
207,160.921859,161.391783,67.0,113.0
208,161.572523,161.8598996,67.0,109.0
209,162.006299,162.1581206,67.0,111.0
210,162.223187,162.7003406,71.0,111.0
211,162.873851,162.955184,69.0,115.0
212,163.090739,163.4269154,69.0,113.0
213,163.524515,163.7215216,69.0,111.0
214,163.741403,164.11372740000002,67.0,115.0
215,164.175179,164.3179636,64.0,111.0
216,164.392067,166.3368294,67.0,111.0
217,167.211611,167.5767058,71.0,115.0
218,167.645387,167.961682,74.0,106.0
219,168.079163,168.3195472,76.0,117.0
220,168.512939,168.5906572,76.0,113.0
221,168.729827,168.8093526,76.0,113.0
222,168.946715,169.3588022,76.0,117.0
223,169.380491,169.732934,79.0,115.0
224,169.814267,170.4866198,74.0,117.0
225,170.681819,171.0396842,71.0,115.0
226,171.115595,171.4246604,69.0,106.0
227,171.549371,171.9578434,71.0,115.0
228,171.983147,172.3554714,74.0,106.0
229,172.416923,172.8127436,69.0,115.0
230,172.850699,173.2682084,67.0,117.0
231,173.28447500000001,174.25685620000002,64.0,117.0
232,174.152027,174.5514624,71.0,111.0
233,174.585803,174.6978618,74.0,103.0
234,174.802691,175.2780372,76.0,117.0
235,175.45335500000002,175.6648208,76.0,109.0
236,175.887131,176.1835446,76.0,113.0
237,176.320907,176.411277,74.0,113.0
238,176.537795,177.0836298,76.0,123.0
239,177.188459,177.57162780000002,79.0,103.0
240,177.622235,177.9710632,71.0,98.0
241,178.056011,178.4464094,69.0,100.0
242,178.489787,179.8923294,71.0,117.0
243,181.092443,181.4304268,79.0,109.0
244,181.526219,181.91481,78.0,100.0
245,181.959995,182.1335054,76.0,117.0
246,182.39377100000002,182.447993,74.0,69.0
247,182.39377100000002,182.4624522,76.0,79.0
248,182.610659,182.691992,76.0,111.0
249,182.827547,183.1420346,76.0,113.0
250,183.261323,183.53424040000002,74.0,115.0
251,183.695099,184.37468140000001,74.0,115.0
252,184.562651,184.906057,71.0,115.0
253,184.996427,185.3326034,69.0,109.0
254,185.430203,185.82060140000002,71.0,117.0
255,185.863979,186.225459,74.0,106.0
256,186.297755,186.65562020000002,69.0,113.0
257,186.731531,187.1490404,67.0,111.0
258,187.165307,188.2660136,64.0,113.0
259,188.032859,188.3889168,62.0,88.0
260,188.466635,188.8588408,64.0,95.0
261,188.683523,188.9835514,67.0,100.0
262,189.33418700000001,189.4896234,67.0,103.0
263,189.767963,189.9378586,67.0,117.0
264,189.984851,190.4023604,71.0,111.0
265,190.635515,190.7385368,69.0,106.0
266,190.852403,191.0729058,69.0,113.0
267,191.286179,191.6548886,69.0,109.0
268,191.50306700000002,191.882621,67.0,72.0
269,191.936843,192.1211978,64.0,117.0
270,192.153731,193.66291,67.0,120.0
