,start,end,pitch,velocity
0,42.96870416666667,43.34370376666667,69.0,89.0
1,43.40988016666667,44.1617176,76.0,96.0
2,44.29223216666667,44.455834933333335,74.0,92.0
3,44.51282016666667,44.6414965,72.0,78.0
4,44.73340816666667,45.1157607,74.0,92.0
5,45.17458416666667,45.498113233333335,79.0,89.0
6,45.61576016666667,45.99627446666667,72.0,88.0
7,46.056936166666674,46.27752416666667,69.0,87.0
8,46.27752416666667,46.49811216666667,69.0,87.0
9,46.49811216666667,46.84002356666667,67.0,85.0
10,46.93928816666667,49.6323,69.0,87.0
11,50.02752016666667,50.36759333333334,69.0,91.0
12,50.46869616666667,50.58818133333334,74.0,96.0
13,50.689284166666674,51.24626886666667,74.0,102.0
14,51.35104816666667,51.7389154,72.0,86.0
15,51.79222416666667,52.159870833333336,69.0,89.0
16,52.23340016666667,52.61391446666667,79.0,90.0
17,52.67457616666667,53.05692870000001,79.0,92.0
18,53.115752166666674,53.2995755,76.0,92.0
19,53.33634016666667,53.498104700000006,74.0,87.0
20,53.55692816666667,56.417219233333334,76.0,91.0
21,57.08633616666667,57.65435026666667,76.0,92.0
22,57.748100166666674,57.91170293333334,81.0,92.0
23,57.968688166666674,58.354717166666674,79.0,89.0
24,58.40986416666667,58.749937333333335,76.0,92.0
25,58.85104016666667,59.1947898,74.0,79.0
26,59.29221616666667,60.1047153,74.0,94.0
27,60.174568166666674,60.38780323333334,69.0,89.0
28,60.39515616666667,60.54221483333334,72.0,87.0
29,60.61574416666667,63.3032413,74.0,96.0
30,63.70397616666667,63.83816720000001,79.0,88.0
31,63.92456416666667,64.05140226666667,76.0,87.0
32,64.14515216666668,64.47419593333333,74.0,99.0
33,64.58632816666668,65.28853330000001,72.0,79.0
34,65.46868016666667,65.58265063333334,67.0,86.0
35,65.68926816666666,65.82162096666667,67.0,83.0
36,65.90985616666667,66.23889993333334,67.0,89.0
37,66.35103216666667,66.69662003333333,74.0,89.0
38,66.79220816666667,67.18375186666667,72.0,86.0
39,67.23338416666667,67.67456016666667,74.0,88.0
40,67.67456016666667,68.11573616666668,72.0,86.0
41,68.11573616666668,70.0477194,69.0,86.0
42,71.20396816666667,71.57896776666668,69.0,89.0
43,71.64514416666667,72.3969816,76.0,96.0
44,72.52749616666667,72.69109893333334,74.0,92.0
45,72.74808416666667,72.8767605,72.0,78.0
46,72.96867216666668,73.35102470000001,74.0,92.0
47,73.40984816666668,73.73337723333334,79.0,89.0
48,73.85102416666668,74.23153846666668,72.0,88.0
49,74.29220016666667,74.51278816666667,69.0,87.0
50,74.51278816666667,74.73337616666667,69.0,87.0
51,74.73337616666667,75.07528756666667,67.0,85.0
52,75.17455216666667,77.867564,69.0,87.0
53,78.26278416666668,78.60285733333333,69.0,91.0
54,78.70396016666668,78.82344533333334,74.0,96.0
55,78.92454816666667,79.48153286666667,74.0,102.0
56,79.58631216666667,79.97417940000001,72.0,86.0
57,80.02748816666667,80.39513483333334,69.0,89.0
58,80.46866416666667,80.84917846666667,79.0,90.0
59,80.90984016666667,81.2921927,79.0,92.0
60,81.35101616666667,81.5348395,76.0,92.0
61,81.57160416666667,81.7333687,74.0,87.0
62,81.79219216666667,84.65248323333334,76.0,91.0
63,85.32160016666667,85.88961426666667,76.0,92.0
64,85.98336416666668,86.14696693333335,81.0,92.0
65,86.20395216666667,86.58998116666667,79.0,89.0
66,86.64512816666668,86.98520133333334,76.0,92.0
67,87.08630416666668,87.43005380000001,74.0,79.0
68,87.52748016666668,88.33997930000001,74.0,94.0
69,88.40983216666667,88.62306723333334,69.0,89.0
70,88.63042016666667,88.77747883333333,72.0,87.0
71,88.85100816666667,91.53850530000001,74.0,96.0
72,91.93924016666668,92.04769593333334,74.0,99.0
73,92.15982816666667,92.31240153333334,76.0,92.0
74,92.38041616666668,92.75357753333334,79.0,90.0
75,92.82159216666668,93.53666493333334,76.0,92.0
76,93.70394416666667,93.83629696666668,74.0,96.0
77,93.92453216666668,94.0697526,76.0,96.0
78,94.14512016666667,94.411664,79.0,91.0
79,94.58629616666667,94.87489880000001,79.0,87.0
80,95.02747216666667,95.46864816666667,79.0,89.0
81,95.46864816666667,95.64695680000001,79.0,86.0
82,95.68923616666667,95.90982416666668,79.0,89.0
83,95.90982416666668,96.29217670000001,76.0,96.0
84,96.35100016666668,98.55688016666667,81.0,83.0
85,98.99805616666667,99.3142323,76.0,101.0
86,99.43923216666667,99.76276123333334,81.0,99.0
87,99.88040816666667,100.10099616666668,81.0,92.0
88,100.32158416666667,100.62305443333334,79.0,90.0
89,100.76276016666668,101.06606866666668,79.0,88.0
90,101.20393616666668,101.64511216666668,81.0,86.0
91,101.86570016666667,102.02378823333333,84.0,80.0
92,102.08628816666668,102.43739073333334,81.0,91.0
93,102.52746416666668,102.94841960000001,79.0,89.0
94,102.96864016666667,103.29952216666668,76.0,96.0
95,103.40981616666667,104.17084476666668,79.0,89.0
96,104.29216816666667,104.62121193333334,74.0,96.0
97,104.73334416666667,105.13591726666668,72.0,87.0
98,105.17452016666668,105.98518106666667,69.0,87.0
99,106.01091633333334,106.22047493333334,69.0,92.0
100,106.27746016666667,106.4061365,72.0,87.0
101,106.49804816666668,107.71128216666668,74.0,101.0
102,107.82157616666667,107.94841426666667,74.0,111.0
103,108.04216416666668,108.1653258,76.0,92.0
104,108.26275216666667,108.58995770000001,79.0,90.0
105,108.70392816666667,109.03113370000001,81.0,90.0
106,109.14510416666667,109.26091286666667,79.0,89.0
107,109.36569216666668,109.49436850000001,76.0,94.0
108,109.58628016666667,109.92451510000001,74.0,99.0
109,110.02745616666668,112.75723266666668,76.0,89.0
110,113.11568816666667,113.43186430000002,76.0,101.0
111,113.55686416666667,113.88039323333334,81.0,99.0
112,113.99804016666667,114.21862816666668,81.0,92.0
113,114.43921616666668,114.74068643333334,79.0,90.0
114,114.88039216666668,115.18370066666668,79.0,88.0
115,115.32156816666668,115.76274416666668,81.0,86.0
116,115.98333216666667,116.14142023333335,84.0,80.0
117,116.20392016666668,116.55502273333335,81.0,91.0
118,116.64509616666668,117.06605160000001,79.0,89.0
119,117.08627216666667,117.41715416666668,76.0,96.0
120,117.52744816666667,118.28847676666668,79.0,89.0
121,118.40980016666667,118.73884393333334,74.0,96.0
122,118.85097616666667,119.25354926666668,72.0,87.0
123,119.29215216666668,120.10281306666667,69.0,87.0
124,120.12854833333334,120.33810693333334,69.0,92.0
125,120.39509216666667,120.5237685,72.0,87.0
126,120.61568016666668,121.82891416666668,74.0,101.0
127,121.93920816666667,122.30501660000002,76.0,99.0
128,122.38038416666667,122.69656030000002,79.0,89.0
129,122.82156016666667,123.14508923333334,79.0,90.0
130,123.26273616666667,123.70391216666668,79.0,87.0
131,123.70391216666668,124.14508816666668,79.0,87.0
132,124.14508816666668,126.79214416666667,76.0,96.0
133,127.23332016666667,127.54949630000002,76.0,101.0
134,127.67449616666667,127.99802523333334,81.0,99.0
135,128.11567216666668,128.33626016666668,81.0,92.0
136,128.55684816666667,128.85831843333335,79.0,90.0
137,128.99802416666668,129.30133266666667,79.0,88.0
138,129.43920016666667,129.88037616666668,81.0,86.0
139,130.10096416666667,130.25905223333334,84.0,80.0
140,130.32155216666666,130.67265473333333,81.0,91.0
141,130.76272816666668,131.18368360000002,79.0,89.0
142,131.2039041666667,131.53478616666666,76.0,96.0
143,131.64508016666667,132.40610876666668,79.0,89.0
144,132.52743216666667,132.85647593333334,74.0,96.0
145,132.96860816666668,133.37118126666667,72.0,87.0
146,133.40978416666667,134.22044506666668,69.0,87.0
147,134.24618033333334,134.45573893333335,69.0,92.0
148,134.5127241666667,134.6414005,72.0,87.0
149,134.73331216666668,135.94654616666668,74.0,101.0
150,136.0568401666667,136.18367826666667,74.0,111.0
151,136.27742816666668,136.4005898,76.0,92.0
152,136.49801616666667,136.82522170000001,79.0,90.0
153,136.9391921666667,137.2663977,81.0,90.0
154,137.38036816666667,137.49617686666667,79.0,89.0
155,137.6009561666667,137.7296325,76.0,94.0
156,137.82154416666668,138.1597791,74.0,99.0
157,138.26272016666667,140.99249666666668,76.0,89.0
158,141.35095216666667,141.57154016666667,76.0,101.0
159,141.57154016666667,141.79212816666669,79.0,101.0
160,141.79212816666669,142.11565723333334,81.0,99.0
161,142.23330416666667,142.4538921666667,81.0,92.0
162,142.67448016666668,142.97595043333334,79.0,90.0
163,143.11565616666667,143.41896466666668,79.0,88.0
164,143.55683216666668,143.99800816666666,81.0,86.0
165,144.21859616666669,144.37668423333335,84.0,80.0
166,144.43918416666668,144.79028673333335,81.0,91.0
167,144.8803601666667,145.3013156,79.0,89.0
168,145.32153616666668,145.65241816666668,76.0,96.0
169,145.7627121666667,146.5237407666667,79.0,89.0
170,146.64506416666669,146.97410793333336,74.0,96.0
171,147.08624016666667,147.48881326666668,72.0,87.0
172,147.52741616666668,148.33807706666667,69.0,87.0
173,148.36381233333336,148.57337093333334,69.0,92.0
174,148.63035616666667,148.75903250000002,72.0,87.0
175,148.85094416666666,149.29212016666668,74.0,101.0
176,149.29212016666668,150.06417816666666,74.0,101.0
177,150.17447216666667,150.39506016666667,74.0,99.0
178,150.39506016666667,150.6156481666667,76.0,89.0
179,150.6156481666667,150.93917723333334,79.0,90.0
180,151.05682416666667,151.93917616666667,79.0,87.0
181,151.93917616666667,152.38035216666668,67.0,87.0
182,152.38035216666668,155.02740816666667,69.0,96.0
183,184.14502416666667,184.52002376666667,69.0,89.0
184,184.58620016666669,185.3380376,76.0,96.0
185,185.46855216666668,185.63215493333334,74.0,92.0
186,185.68914016666668,185.81781650000002,72.0,78.0
187,185.90972816666667,186.2920807,74.0,92.0
188,186.35090416666668,186.67443323333336,79.0,89.0
189,186.7920801666667,187.17259446666668,72.0,88.0
190,187.23325616666668,187.45384416666667,69.0,87.0
191,187.45384416666667,187.6744321666667,69.0,87.0
192,187.6744321666667,188.01634356666668,67.0,85.0
193,188.11560816666668,190.80862000000002,69.0,87.0
194,191.20384016666668,191.54391333333334,69.0,91.0
195,191.6450161666667,191.76450133333336,74.0,96.0
196,191.86560416666669,192.42258886666667,74.0,102.0
197,192.5273681666667,192.91523540000003,72.0,86.0
198,192.96854416666667,193.33619083333335,69.0,89.0
199,193.4097201666667,193.79023446666667,79.0,90.0
200,193.85089616666667,194.23324870000002,79.0,92.0
201,194.29207216666669,194.4758955,76.0,92.0
202,194.51266016666668,194.6744247,74.0,87.0
203,194.73324816666667,197.59353923333336,76.0,91.0
204,198.2626561666667,198.8306702666667,76.0,92.0
205,198.9244201666667,199.08802293333335,81.0,92.0
206,199.14500816666668,199.5310371666667,79.0,89.0
207,199.58618416666667,199.92625733333335,76.0,92.0
208,200.02736016666668,200.37110980000003,74.0,79.0
209,200.4685361666667,201.2810353,74.0,94.0
210,201.3508881666667,201.56412323333336,69.0,89.0
211,201.57147616666668,201.71853483333334,72.0,87.0
212,201.79206416666668,204.47956130000003,74.0,96.0
213,204.88029616666668,204.98875193333336,74.0,99.0
214,205.10088416666667,205.25345753333335,76.0,92.0
215,205.3214721666667,205.69463353333336,79.0,90.0
216,205.76264816666668,206.47772093333336,76.0,92.0
217,206.64500016666668,206.77735296666668,74.0,96.0
218,206.86558816666667,207.01080860000002,76.0,96.0
219,207.0861761666667,207.35272,79.0,91.0
220,207.52735216666667,207.81595480000001,79.0,87.0
221,207.9685281666667,208.40970416666667,79.0,89.0
222,208.40970416666667,208.58801280000003,79.0,86.0
223,208.6302921666667,208.85088016666668,79.0,89.0
224,208.85088016666668,209.2332327,76.0,96.0
225,209.29205616666667,211.49793616666668,81.0,83.0
226,211.9391121666667,212.25528830000002,76.0,101.0
227,212.38028816666667,212.70381723333335,81.0,99.0
228,212.8214641666667,213.04205216666668,81.0,92.0
229,213.26264016666667,213.56411043333335,79.0,90.0
230,213.70381616666668,214.00712466666667,79.0,88.0
231,214.1449921666667,214.58616816666668,81.0,86.0
232,214.80675616666667,214.96484423333334,84.0,80.0
233,215.0273441666667,215.37844673333336,81.0,91.0
234,215.46852016666668,215.88947560000003,79.0,89.0
235,215.9096961666667,216.2405781666667,76.0,96.0
236,216.35087216666668,217.11190076666668,79.0,89.0
237,217.23322416666667,217.56226793333335,74.0,96.0
238,217.6744001666667,218.07697326666667,72.0,87.0
239,218.11557616666667,218.9262370666667,69.0,87.0
240,218.95197233333334,219.16153093333335,69.0,92.0
241,219.2185161666667,219.3471925,72.0,87.0
242,219.43910416666668,220.65233816666668,74.0,101.0
243,220.7626321666667,220.88947026666668,74.0,111.0
244,220.98322016666668,221.1063818,76.0,92.0
245,221.20380816666668,221.53101370000002,79.0,90.0
246,221.6449841666667,221.97218970000003,81.0,90.0
247,222.08616016666667,222.20196886666668,79.0,89.0
248,222.3067481666667,222.4354245,76.0,94.0
249,222.5273361666667,222.8655711,74.0,99.0
250,222.96851216666667,225.69828866666668,76.0,89.0
251,226.05674416666668,226.3729203,76.0,101.0
252,226.4979201666667,226.82144923333334,81.0,99.0
253,226.93909616666667,227.1596841666667,81.0,92.0
254,227.38027216666669,227.68174243333334,79.0,90.0
255,227.82144816666667,228.12475666666668,79.0,88.0
256,228.26262416666668,228.7038001666667,81.0,86.0
257,228.9243881666667,229.08247623333335,84.0,80.0
258,229.14497616666668,229.49607873333335,81.0,91.0
259,229.5861521666667,230.0071076,79.0,89.0
260,230.02732816666668,230.35821016666668,76.0,96.0
261,230.4685041666667,231.2295327666667,79.0,89.0
262,231.3508561666667,231.67989993333336,74.0,96.0
263,231.79203216666667,232.19460526666668,72.0,87.0
264,232.23320816666669,233.04386906666667,69.0,87.0
265,233.06960433333336,233.27916293333334,69.0,92.0
266,233.33614816666667,233.46482450000002,72.0,87.0
267,233.5567361666667,234.7699701666667,74.0,101.0
268,234.88026416666668,235.24607260000002,76.0,99.0
269,235.3214401666667,235.63761630000002,79.0,89.0
270,235.76261616666667,236.08614523333335,79.0,90.0
271,236.2037921666667,236.64496816666667,79.0,87.0
272,236.64496816666667,237.08614416666668,79.0,87.0
273,237.08614416666668,239.73320016666668,76.0,96.0
274,241.0567281666667,241.1945956666667,74.0,92.0
275,241.27731616666668,241.41334543333335,74.0,91.0
276,241.49790416666667,241.8306244,74.0,102.0
277,241.93908016666668,242.29202096666668,72.0,96.0
278,242.3802561666667,242.70929993333334,69.0,91.0
279,242.82143216666668,243.1467994666667,72.0,99.0
280,243.2626081666667,243.56591666666668,79.0,92.0
281,243.70378416666668,243.8986369,76.0,91.0
282,243.92437216666667,244.15966603333337,74.0,96.0
283,244.1449601666667,246.99422183333334,76.0,94.0
284,248.1155441666667,248.2368675666667,74.0,92.0
285,248.3361321666667,248.4684849666667,74.0,96.0
286,248.55672016666668,248.90598450000002,74.0,99.0
287,248.9978961666667,249.1651754,74.0,106.0
288,249.21848416666668,249.35451343333335,76.0,92.0
289,249.43907216666668,249.8802481666667,79.0,90.0
290,249.8802481666667,250.10635086666667,79.0,90.0
291,250.32142416666667,250.6412767666667,79.0,90.0
292,250.7626001666667,250.94090880000002,79.0,90.0
293,250.98318816666668,251.139438,76.0,92.0
294,251.2037761666667,254.16149360000003,81.0,101.0
295,254.29200816666668,254.60818430000003,76.0,101.0
296,254.7331841666667,255.05671323333334,81.0,99.0
297,255.17436016666667,255.3949481666667,81.0,92.0
298,255.6155361666667,255.91700643333334,79.0,90.0
299,256.05671216666667,256.3600206666667,79.0,88.0
300,256.4978881666667,256.9390641666667,81.0,86.0
301,257.15965216666666,257.3177402333333,84.0,80.0
302,257.3802401666667,257.73134273333335,81.0,91.0
303,257.82141616666667,258.2423716,79.0,89.0
304,258.2625921666667,258.5934741666667,76.0,96.0
305,258.7037681666667,259.46479676666667,79.0,89.0
306,259.58612016666666,259.91516393333336,74.0,96.0
307,260.0272961666667,260.4298692666667,72.0,87.0
308,260.4684721666667,261.2791330666667,69.0,87.0
309,261.30486833333333,261.51442693333337,69.0,92.0
310,261.5714121666667,261.7000885,72.0,87.0
311,261.7920001666667,263.0052341666667,74.0,101.0
312,263.1155281666667,263.2423662666667,74.0,111.0
313,263.33611616666667,263.4592778,76.0,92.0
314,263.5567041666667,263.8839097,79.0,90.0
315,263.9978801666667,264.32508570000005,81.0,90.0
316,264.43905616666666,264.55486486666666,79.0,89.0
317,264.6596441666667,264.7883205,76.0,94.0
318,264.8802321666667,265.2184671,74.0,99.0
319,265.3214081666667,268.0511846666667,76.0,89.0
320,268.4096401666667,268.6302281666667,76.0,101.0
321,268.6302281666667,268.8508161666667,79.0,101.0
322,268.8508161666667,269.1743452333333,81.0,99.0
323,269.29199216666666,269.5125801666667,81.0,92.0
324,269.7331681666667,270.0346384333333,79.0,90.0
325,270.1743441666667,270.4776526666667,79.0,88.0
326,270.61552016666667,271.0566961666667,81.0,86.0
327,271.2772841666667,271.43537223333334,84.0,80.0
328,271.4978721666667,271.84897473333336,81.0,91.0
329,271.9390481666667,272.3600036,79.0,89.0
330,272.38022416666666,272.7111061666667,76.0,96.0
331,272.8214001666667,273.5824287666667,79.0,89.0
332,273.7037521666667,274.0327959333334,74.0,96.0
333,274.14492816666666,274.5475012666667,72.0,87.0
334,274.5861041666667,275.39676506666666,69.0,87.0
335,275.42250033333335,275.6320589333333,69.0,92.0
336,275.6890441666667,275.8177205,72.0,87.0
337,275.9096321666667,276.3508081666667,74.0,101.0
338,276.3508081666667,277.1228661666667,74.0,101.0
339,277.23316016666666,277.4537481666667,74.0,99.0
340,277.4537481666667,277.6743361666667,76.0,89.0
341,277.6743361666667,277.99786523333336,79.0,90.0
342,278.1155121666667,278.9978641666667,84.0,87.0
343,278.9978641666667,279.4390401666667,79.0,87.0
344,279.4390401666667,282.08609616666666,81.0,96.0
