,start,end,pitch,velocity
0,0.5496317666666667,1.8639686000000002,64.0,71.0
1,0.6029405333333334,1.9926449333333336,57.0,76.0
2,0.6249993333333334,2.3345563333333335,69.0,70.0
3,4.045951566666667,5.386023666666667,65.0,67.0
4,4.1470544,5.443008900000001,69.0,61.0
5,5.8124938,6.007346533333334,65.0,54.0
6,5.854773166666667,6.053302366666667,69.0,68.0
7,5.9172731,6.069846466666667,72.0,58.0
8,5.437494200000001,6.931977900000001,60.0,56.0
9,4.1194809,7.0477866,53.0,72.0
10,7.579036033333334,8.987122766666667,60.0,63.0
11,7.6378595,9.169107866666668,65.0,77.0
12,7.691168266666668,9.169107866666668,69.0,73.0
13,9.814327766666667,10.106606866666667,60.0,74.0
14,10.257342000000001,10.481606466666667,65.0,72.0
15,10.2628567,10.492635866666667,69.0,77.0
16,7.663594766666667,10.560650500000001,53.0,76.0
17,11.1507234,11.836384433333334,64.0,76.0
18,11.193002766666668,11.9393255,71.0,73.0
19,12.058810666666668,12.3860162,64.0,73.0
20,12.935647966666668,13.685647166666667,76.0,79.0
21,12.908074466666667,13.705867733333335,68.0,63.0
22,11.573517066666668,13.727926533333335,59.0,72.0
23,12.8161628,13.762852966666667,64.0,71.0
24,11.176458666666667,13.801455866666668,52.0,87.0
25,14.733440166666668,15.558806933333335,64.0,80.0
26,15.174616166666668,15.852924266666667,52.0,70.0
27,15.615792166666667,16.637849900000003,57.0,84.0
28,16.93932016666667,17.159908166666668,57.0,73.0
29,17.380496166666667,17.5532901,64.0,77.0
30,16.498144166666666,17.56248126666667,69.0,85.0
31,17.380496166666667,17.573510666666667,57.0,74.0
32,16.056968166666667,17.79961336666667,52.0,67.0
33,14.733440166666668,17.8014516,45.0,81.0
34,18.262848166666668,19.1194649,60.0,77.0
35,18.262848166666668,19.16174426666667,57.0,71.0
36,19.14520016666667,19.613949666666667,64.0,81.0
37,19.586376166666668,20.104757966666668,57.0,79.0
38,20.46872816666667,20.948507066666668,57.0,73.0
39,20.02755216666667,20.970565866666668,69.0,85.0
40,18.704024166666667,21.036742266666668,52.0,71.0
41,20.909904166666667,21.051448133333334,64.0,79.0
42,18.262848166666668,21.07534516666667,45.0,83.0
43,21.792256166666668,22.386005533333336,62.0,77.0
44,21.792256166666668,22.672769933333335,69.0,74.0
45,22.67460816666667,23.130490033333334,65.0,89.0
46,23.115784166666668,23.382328,62.0,80.0
47,23.55696016666667,23.67276886666667,69.0,79.0
48,24.439312166666667,24.525709133333336,65.0,81.0
49,22.233432166666667,24.542253233333334,57.0,69.0
50,24.439312166666667,24.56063556666667,62.0,79.0
51,21.792256166666668,24.606591400000003,50.0,86.0
52,25.321664166666668,25.9411488,60.0,77.0
53,25.321664166666668,26.117619200000004,67.0,78.0
54,26.20401616666667,26.670927433333336,62.0,80.0
55,26.645192166666668,26.755486166666667,64.0,86.0
56,27.08636816666667,27.20217686666667,60.0,86.0
57,27.08636816666667,27.21872096666667,67.0,85.0
58,27.52754416666667,27.687470466666667,60.0,84.0
59,27.968720166666667,28.130484700000004,64.0,92.0
60,27.968720166666667,28.17276406666667,60.0,87.0
61,25.762840166666667,28.23894046666667,55.0,73.0
62,25.321664166666668,28.284896300000003,48.0,86.0
63,28.40989616666667,28.588204800000003,59.0,86.0
64,28.40989616666667,28.5992342,62.0,86.0
65,28.85107216666667,29.431953900000003,57.0,84.0
66,28.85107216666667,29.488939133333336,60.0,86.0
67,29.73342416666667,29.897026933333336,57.0,85.0
68,29.95401216666667,30.215041300000003,59.0,81.0
69,30.174600166666668,30.465041033333335,60.0,83.0
70,30.395188166666667,30.66540846666667,62.0,73.0
71,30.61577616666667,31.06798156666667,64.0,81.0
72,31.05695216666667,31.275701933333334,57.0,77.0
73,31.498128166666667,31.709525000000003,57.0,85.0
74,31.498128166666667,31.766510233333335,60.0,88.0
75,29.29224816666667,31.777539633333337,52.0,82.0
76,31.498128166666667,31.814304300000003,64.0,90.0
77,28.85107216666667,31.858421900000003,45.0,86.0
78,32.38048016666667,33.04592063333334,64.0,84.0
79,32.38048016666667,33.06981766666667,59.0,77.0
80,32.82165616666667,33.408052600000005,47.0,75.0
81,33.26283216666667,33.446655500000006,59.0,86.0
82,32.38048016666667,33.455846666666666,40.0,85.0
83,33.26283216666667,33.7444493,67.0,81.0
84,34.14518416666667,34.73341883333334,60.0,79.0
85,34.14518416666667,34.7756982,57.0,79.0
86,35.02753616666667,35.17459483333334,57.0,86.0
87,35.02753616666667,35.37496226666667,64.0,86.0
88,34.58636016666667,35.45768276666667,52.0,80.0
89,34.14518416666667,35.514668,45.0,85.0
90,35.46871216666667,35.84555,57.0,85.0
91,35.90988816666667,36.580843333333334,65.0,80.0
92,36.35106416666667,36.8492254,57.0,75.0
93,35.90988816666667,37.1470192,50.0,80.0
94,36.79224016666667,37.226063233333335,62.0,88.0
95,37.23341616666667,37.34371016666667,57.0,89.0
96,37.67459216666667,38.57716473333333,55.0,80.0
97,37.67459216666667,38.608414700000004,59.0,81.0
98,38.55694416666667,38.95951726666667,62.0,86.0
99,38.11576816666667,39.02569366666667,50.0,77.0
100,37.67459216666667,39.06981126666667,43.0,84.0
101,38.998120166666666,39.128634733333335,55.0,85.0
102,39.43929616666667,40.09003076666667,57.0,84.0
103,40.32164816666667,40.74628006666667,60.0,77.0
104,39.43929616666667,41.034882700000004,45.0,86.0
105,39.88047216666667,41.03855916666667,52.0,83.0
106,40.76282416666667,41.290397133333336,59.0,82.0
107,42.08635216666667,42.545910500000005,69.0,87.0
108,41.20400016666667,42.6617192,57.0,76.0
109,41.64517616666667,42.70951326666667,52.0,68.0
110,41.20400016666667,42.77017496666667,45.0,85.0
111,42.96870416666667,43.8584091,57.0,79.0
112,42.96870416666667,43.87862966666667,60.0,78.0
113,43.40988016666667,44.12127646666667,52.0,71.0
114,42.96870416666667,44.15987936666667,45.0,85.0
115,43.85105616666667,44.24259986666667,64.0,86.0
116,44.73340816666667,45.66539246666667,59.0,76.0
117,45.61576016666667,46.110244933333334,55.0,90.0
118,44.73340816666667,46.154362533333334,43.0,82.0
119,45.17458416666667,46.187450733333336,50.0,74.0
120,46.056936166666674,46.52384743333334,59.0,91.0
121,46.49811216666667,47.41722883333334,60.0,82.0
122,46.93928816666667,47.50730226666667,52.0,71.0
123,47.38046416666667,47.9834047,57.0,83.0
124,47.82164016666667,48.46686006666667,52.0,78.0
125,48.26281616666667,48.74810976666667,57.0,79.0
126,48.26281616666667,48.7940656,64.0,81.0
127,49.14516816666667,49.27568273333334,60.0,87.0
128,48.70399216666667,49.356565,52.0,73.0
129,46.49811216666667,49.7646528,45.0,82.0
130,50.02752016666667,50.5256814,62.0,81.0
131,50.46869616666667,50.98156326666667,57.0,86.0
132,50.02752016666667,50.992592666666674,50.0,85.0
133,50.90987216666667,51.336342300000005,65.0,84.0
134,51.35104816666667,51.59185673333334,57.0,85.0
135,51.79222416666667,52.69112026666667,55.0,81.0
136,51.79222416666667,52.71317906666667,59.0,81.0
137,52.67457616666667,52.98339936666667,62.0,86.0
138,52.23340016666667,53.05692870000001,50.0,78.0
139,51.79222416666667,53.0900169,43.0,85.0
140,53.55692816666667,54.48523600000001,64.0,88.0
141,53.99810416666667,54.496265400000006,55.0,86.0
142,54.43928016666667,54.676412266666674,60.0,81.0
143,53.55692816666667,54.843691500000006,48.0,80.0
144,54.88045616666667,54.981559000000004,62.0,88.0
145,55.321632166666674,55.672734733333336,59.0,75.0
146,55.321632166666674,55.91905800000001,64.0,87.0
147,55.76280816666667,56.284866433333335,47.0,80.0
148,55.321632166666674,56.30876346666667,40.0,87.0
149,56.20398416666667,56.42273393333334,52.0,92.0
150,56.20398416666667,56.442954500000006,56.0,86.0
151,57.08633616666667,57.97971756666667,57.0,79.0
152,57.08633616666667,57.9870705,60.0,81.0
153,57.968688166666674,58.3675848,64.0,92.0
154,57.08633616666667,58.49258466666667,45.0,86.0
155,57.52751216666667,58.51648170000001,52.0,79.0
156,58.40986416666667,58.8914813,57.0,90.0
157,58.85104016666667,59.742583333333336,65.0,86.0
158,59.29221616666667,59.744421566666674,57.0,86.0
159,58.85104016666667,59.77015683333334,50.0,80.0
160,59.73339216666667,59.81243620000001,62.0,76.0
161,60.61574416666667,61.44294916666667,59.0,79.0
162,60.61574416666667,61.46316973333334,55.0,76.0
163,61.49809616666667,61.66169893333334,62.0,85.0
164,61.93927216666667,62.49809510000001,55.0,86.0
165,62.82162416666667,63.31610893333334,55.0,74.0
166,62.380448166666675,63.32530010000001,67.0,86.0
167,63.26280016666667,63.52566753333334,62.0,84.0
168,61.05692016666667,63.634123300000006,50.0,77.0
169,60.61574416666667,63.67088796666667,43.0,85.0
170,63.48338816666667,63.727873200000005,60.0,86.0
171,63.70397616666667,63.810593700000005,59.0,76.0
172,64.14515216666668,65.06426883333334,53.0,85.0
173,64.14515216666668,65.0900041,57.0,78.0
174,64.58632816666668,65.33448913333334,48.0,74.0
175,64.14515216666668,65.37493026666667,41.0,83.0
176,65.02750416666667,65.43007726666667,60.0,86.0
177,65.90985616666667,66.8216199,55.0,80.0
178,65.90985616666667,66.83448753333334,59.0,80.0
179,66.79220816666667,67.11573723333333,62.0,85.0
180,66.35103216666667,67.1800754,50.0,77.0
181,65.90985616666667,67.2297077,43.0,83.0
182,67.23338416666667,67.45397216666667,60.0,92.0
183,67.45397216666667,67.70581013333334,59.0,85.0
184,67.67456016666667,68.68742673333334,57.0,86.0
185,68.55691216666668,68.76647076666667,64.0,87.0
186,68.99808816666668,69.23154380000001,60.0,74.0
187,67.67456016666667,69.26095553333334,45.0,85.0
188,68.11573616666668,69.3087496,52.0,77.0
189,69.21867616666667,69.4907347,59.0,78.0
190,69.43926416666667,70.37492493333333,57.0,76.0
191,70.32161616666667,71.13595353333334,60.0,87.0
192,70.76279216666667,71.14146823333334,57.0,87.0
193,70.32161616666667,71.14146823333334,64.0,87.0
194,69.88044016666667,71.16536526666667,52.0,79.0
195,69.43926416666667,71.1837476,45.0,85.0
196,72.30690816666667,72.56977553333334,57.0,81.0
197,72.08632016666667,72.57896670000001,64.0,94.0
198,71.20396816666667,72.83448113333334,45.0,87.0
199,71.64514416666667,72.83448113333334,52.0,83.0
200,72.52749616666667,72.97418686666667,69.0,86.0
201,72.96867216666668,73.02749563333334,41.0,85.0
202,72.74808416666667,73.04955443333334,57.0,76.0
203,73.40984816666668,73.95764170000001,50.0,82.0
204,72.96867216666668,74.47418526666667,43.0,84.0
205,73.85102416666668,74.4815382,62.0,87.0
206,74.29220016666667,74.56242046666667,55.0,83.0
207,74.07161216666667,74.57161163333333,50.0,85.0
208,74.73337616666667,75.2921991,60.0,72.0
209,74.73337616666667,75.33447846666667,57.0,81.0
210,75.17455216666667,75.716831,52.0,79.0
211,75.61572816666667,75.97969836666667,64.0,96.0
212,76.05690416666667,76.28852156666667,60.0,87.0
213,74.73337616666667,76.34366856666668,45.0,87.0
214,75.83631616666668,76.38594793333334,52.0,82.0
215,76.27749216666668,76.52381543333334,59.0,87.0
216,76.49808016666667,77.6138878,57.0,86.0
217,77.38043216666668,77.70947593333334,69.0,89.0
218,77.60102016666667,77.84366696666667,64.0,85.0
219,76.93925616666667,77.93190216666667,52.0,84.0
220,76.49808016666667,78.02932853333334,45.0,86.0
221,77.82160816666668,78.02932853333334,60.0,84.0
222,78.04219616666667,78.2260195,57.0,81.0
223,78.26278416666668,78.7774895,62.0,89.0
224,78.70396016666668,79.23704783333334,57.0,79.0
225,78.26278416666668,79.31057716666668,50.0,87.0
226,79.14513616666667,79.44292996666667,65.0,91.0
227,79.36572416666667,79.58079746666667,57.0,85.0
228,79.58631216666667,79.80873840000001,62.0,80.0
229,79.80690016666668,79.92822356666667,57.0,70.0
230,80.02748816666667,80.74991386666667,55.0,82.0
231,80.02748816666667,80.7517521,59.0,87.0
232,80.46866416666667,81.09550173333334,50.0,81.0
233,80.02748816666667,81.35653086666667,43.0,85.0
234,80.90984016666667,81.40616316666667,62.0,80.0
235,80.90984016666667,81.43741313333334,59.0,86.0
236,81.35101616666667,81.69292756666667,55.0,81.0
237,81.79219216666667,82.69292650000001,64.0,91.0
238,82.23336816666668,82.75542643333334,55.0,79.0
239,82.67454416666668,82.97233796666667,60.0,85.0
240,81.79219216666667,83.11572016666668,48.0,86.0
241,82.89513216666667,83.14145543333333,55.0,84.0
242,83.11572016666668,83.40983750000001,62.0,87.0
243,83.33630816666667,83.49991093333334,55.0,83.0
244,83.55689616666668,84.20946900000001,64.0,88.0
245,83.99807216666667,84.21314546666667,52.0,87.0
246,84.21866016666667,84.33630710000001,56.0,87.0
247,83.77748416666667,84.6947626,47.0,72.0
248,84.43924816666667,84.705792,59.0,86.0
249,83.55689616666668,84.71130670000001,40.0,90.0
250,84.65983616666668,84.91167413333334,62.0,89.0
251,84.88042416666667,85.08079160000001,64.0,87.0
252,85.32160016666667,85.73704090000001,64.0,85.0
253,85.76277616666667,86.03115823333334,57.0,82.0
254,85.98336416666668,86.21314333333333,60.0,80.0
255,86.20395216666667,86.50174596666668,64.0,94.0
256,86.42454016666667,86.66534873333335,57.0,80.0
257,86.64512816666668,86.87123086666668,60.0,81.0
258,85.54218816666668,86.87674556666667,52.0,79.0
259,85.32160016666667,86.9337308,45.0,86.0
260,86.86571616666667,86.99623073333333,57.0,70.0
261,87.08630416666668,87.8436563,65.0,87.0
262,87.52748016666668,87.9704944,57.0,83.0
263,87.96865616666668,88.18372946666668,62.0,86.0
264,88.18924416666667,88.30872933333335,57.0,86.0
265,87.08630416666668,88.48703796666668,50.0,86.0
266,88.40983216666667,88.6984348,60.0,87.0
267,88.85100816666667,89.33078706666667,55.0,85.0
268,88.85100816666667,89.51277216666668,59.0,83.0
269,89.51277216666668,89.72600723333333,55.0,85.0
270,89.73336016666667,90.00174223333335,62.0,86.0
271,89.95394816666668,90.2425508,55.0,86.0
272,90.39512416666668,90.63777096666668,55.0,79.0
273,90.17453616666667,90.68005033333334,62.0,80.0
274,90.83630016666667,91.09732930000001,55.0,82.0
275,90.61571216666667,91.31240260000001,67.0,85.0
276,91.05688816666667,91.31424083333334,62.0,77.0
277,89.29218416666667,91.80137266666668,50.0,80.0
278,91.49806416666668,91.91166666666668,59.0,77.0
279,91.49806416666668,91.9245343,55.0,81.0
280,88.85100816666667,91.97049013333334,43.0,86.0
281,91.93924016666668,92.29034273333335,50.0,88.0
282,92.38041616666668,92.8068863,53.0,78.0
283,92.38041616666668,92.86754800000001,57.0,77.0
284,93.04218016666667,93.27379756666667,53.0,79.0
285,92.82159216666668,93.30872400000001,60.0,85.0
286,92.60100416666667,93.71129710000001,48.0,80.0
287,92.38041616666668,93.72967943333335,41.0,85.0
288,93.48335616666667,93.73887060000001,53.0,87.0
289,93.26276816666667,93.8160764,65.0,87.0
290,93.70394416666667,93.91350276666667,60.0,80.0
291,94.14512016666667,94.39695813333334,55.0,80.0
292,94.14512016666667,94.63960493333335,59.0,80.0
293,94.58629616666667,95.09364856666667,55.0,86.0
294,94.36570816666668,95.1340897,50.0,80.0
295,95.02747216666667,95.38225120000001,62.0,87.0
296,94.14512016666667,95.59364803333334,43.0,86.0
297,95.24806016666668,95.60100096666667,50.0,81.0
298,95.46864816666667,95.67636853333335,60.0,91.0
299,95.68923616666667,95.93923590000001,59.0,85.0
300,95.90982416666668,96.32342666666668,57.0,86.0
301,96.35100016666668,96.5844558,60.0,86.0
302,96.79217616666668,97.03298473333334,64.0,94.0
303,96.79217616666668,97.10651406666668,60.0,92.0
304,96.79217616666668,97.12489640000001,57.0,86.0
305,97.23335216666668,97.54217536666667,52.0,85.0
306,95.90982416666668,97.54585183333334,45.0,85.0
307,97.67452816666668,97.75541043333334,57.0,56.0
308,97.67452816666668,97.8914397,64.0,83.0
309,97.67452816666668,97.90982203333334,60.0,79.0
310,97.67452816666668,98.11938063333334,69.0,86.0
311,98.55688016666667,98.70945353333335,69.0,86.0
312,98.55688016666667,98.74989466666668,72.0,94.0
313,98.77746816666668,98.97048266666667,71.0,87.0
314,97.67452816666668,99.40062926666667,45.0,94.0
315,98.11570416666667,99.40062926666667,52.0,88.0
316,98.99805616666667,99.4079822,69.0,89.0
317,99.43923216666667,99.71680540000001,57.0,83.0
318,99.43923216666667,99.85099643333334,60.0,86.0
319,99.88040816666667,100.15430493333334,57.0,88.0
320,100.10099616666668,100.26459893333335,60.0,96.0
321,99.65982016666668,100.43739286666667,52.0,76.0
322,100.32158416666667,100.58445153333334,64.0,101.0
323,99.43923216666667,100.78481896666668,45.0,88.0
324,100.54217216666667,100.81055423333333,52.0,86.0
325,100.76276016666668,101.06974513333334,57.0,91.0
326,100.98334816666667,101.47967116666668,60.0,94.0
327,101.64511216666668,101.98518533333335,53.0,86.0
328,101.86570016666667,102.08628816666668,57.0,87.0
329,101.42452416666667,102.16900866666667,48.0,79.0
330,101.20393616666668,102.48150833333334,41.0,86.0
331,102.08628816666668,102.51827300000001,60.0,99.0
332,102.30687616666667,102.59731703333334,48.0,85.0
333,102.52746416666668,102.83077266666668,53.0,87.0
334,103.40981616666667,103.70209526666667,52.0,85.0
335,103.63040416666668,103.74621286666668,55.0,85.0
336,103.18922816666668,103.90981563333334,47.0,85.0
337,103.85099216666667,104.11018306666668,52.0,89.0
338,102.96864016666667,104.12672716666667,40.0,89.0
339,104.07158016666668,104.19658003333335,47.0,90.0
340,103.85099216666667,104.34363870000001,59.0,89.0
341,104.29216816666667,104.57893256666668,52.0,94.0
342,104.51275616666668,104.72782946666668,55.0,85.0
343,104.73334416666667,105.055035,57.0,81.0
344,105.17452016666668,105.41349050000001,57.0,89.0
345,104.95393216666668,105.69841666666667,52.0,79.0
346,105.61569616666668,105.85466650000001,57.0,89.0
347,105.61569616666668,105.87304883333334,60.0,99.0
348,105.61569616666668,105.93187230000001,64.0,94.0
349,105.83628416666667,106.09363683333333,52.0,87.0
350,104.73334416666667,106.14694560000001,45.0,87.0
351,106.05687216666668,106.3344454,57.0,86.0
352,106.27746016666667,106.45025410000001,60.0,85.0
353,106.49804816666668,106.89326833333334,65.0,86.0
354,106.93922416666668,107.22231210000001,57.0,85.0
355,107.15981216666667,107.29032673333334,62.0,84.0
356,106.71863616666667,107.481503,53.0,78.0
357,106.49804816666668,107.60282640000001,50.0,88.0
358,107.60098816666668,107.7958409,57.0,87.0
359,107.38040016666667,107.83995850000001,65.0,96.0
360,107.82157616666667,108.04400240000001,62.0,89.0
361,108.04216416666668,108.24804630000001,57.0,77.0
362,108.26275216666667,108.694737,62.0,85.0
363,108.70392816666667,108.99620726666667,55.0,86.0
364,108.92451616666668,109.09363363333334,59.0,85.0
365,109.14510416666667,109.37120686666667,62.0,96.0
366,109.36569216666668,109.61201543333334,55.0,85.0
367,109.58628016666667,109.77377996666668,62.0,85.0
368,108.48334016666668,109.8307652,50.0,77.0
369,108.26275216666667,109.907971,43.0,86.0
370,109.80686816666667,110.00907383333335,55.0,81.0
371,110.02745616666668,110.49620566666667,60.0,90.0
372,110.46863216666668,110.77194066666668,55.0,91.0
373,110.68922016666667,110.95024930000001,60.0,85.0
374,110.90980816666668,111.13407263333335,62.0,87.0
375,110.24804416666667,111.30870480000002,52.0,86.0
376,110.02745616666668,111.31421950000001,48.0,87.0
377,111.13039616666667,111.35098416666668,60.0,89.0
378,111.35098416666668,111.63039563333334,55.0,88.0
379,111.57157216666667,111.77193960000001,60.0,82.0
380,111.79216016666668,112.21311560000001,64.0,88.0
381,112.23333616666667,112.32157136666667,59.0,87.0
382,112.45392416666668,112.5384829,59.0,85.0
383,112.45392416666668,112.54583583333334,64.0,85.0
384,112.01274816666667,112.72230623333334,47.0,81.0
385,112.67451216666667,112.9189972,59.0,94.0
386,112.67451216666667,112.97414420000001,64.0,99.0
387,111.79216016666668,113.00907063333334,40.0,89.0
388,112.89510016666668,113.05870293333334,47.0,101.0
389,113.11568816666667,113.25355566666667,59.0,87.0
390,113.11568816666667,113.25723213333335,62.0,86.0
391,113.55686416666667,113.8013492,57.0,85.0
392,113.55686416666667,113.99252546666668,60.0,85.0
393,113.99804016666667,114.30318690000001,57.0,87.0
394,114.21862816666668,114.37487800000001,60.0,82.0
395,114.43921616666668,114.68553943333335,64.0,96.0
396,114.65980416666667,114.91715683333334,57.0,87.0
397,113.77745216666668,114.9649509,52.0,86.0
398,113.55686416666667,115.04767140000001,45.0,86.0
399,114.88039216666668,115.12303896666667,60.0,87.0
400,115.10098016666667,115.36384753333334,57.0,76.0
401,115.32156816666668,115.91531753333334,60.0,90.0
402,115.76274416666668,116.29399360000001,53.0,86.0
403,115.98333216666667,116.30134653333334,57.0,86.0
404,115.54215616666667,116.57708153333334,48.0,81.0
405,115.32156816666668,116.6083315,41.0,88.0
406,116.20392016666668,116.64877263333334,65.0,92.0
407,116.42450816666667,116.6965667,60.0,87.0
408,116.64509616666668,116.89509590000002,57.0,86.0
409,116.86568416666668,116.98516933333335,53.0,86.0
410,117.08627216666667,117.41347770000002,52.0,90.0
411,117.08627216666667,117.58443340000001,55.0,86.0
412,117.74803616666668,117.93737420000001,52.0,86.0
413,117.52744816666667,117.96862416666667,59.0,88.0
414,117.30686016666668,118.36935903333334,47.0,83.0
415,118.18921216666668,118.43553543333334,52.0,91.0
416,117.08627216666667,118.43737366666667,40.0,87.0
417,117.96862416666667,118.47965303333335,64.0,96.0
418,118.40980016666667,118.63774110000001,59.0,87.0
419,118.63038816666668,118.71862336666668,52.0,86.0
420,118.85097616666667,119.30318156666668,60.0,86.0
421,119.29215216666668,119.56053423333334,57.0,86.0
422,119.51274016666667,119.65979883333334,60.0,80.0
423,119.07156416666668,119.83810746666667,52.0,84.0
424,119.73332816666668,119.95207793333334,57.0,91.0
425,119.73332816666668,120.00722493333335,64.0,91.0
426,118.85097616666667,120.40795980000001,45.0,85.0
427,119.95391616666667,120.40795980000001,52.0,88.0
428,120.17450416666668,120.44656270000002,57.0,86.0
429,120.39509216666667,120.58443020000001,60.0,83.0
430,120.61568016666668,121.05685616666668,62.0,87.0
431,121.05685616666668,121.36935583333334,57.0,87.0
432,121.27744416666667,121.53479683333335,62.0,84.0
433,120.61568016666668,121.77928186666668,50.0,94.0
434,120.83626816666667,121.79950243333334,53.0,74.0
435,121.71862016666668,121.95759050000001,57.0,81.0
436,121.49803216666668,121.98148753333334,65.0,91.0
437,121.93920816666667,122.15979616666668,62.0,86.0
438,122.15979616666668,122.28663426666668,57.0,85.0
439,122.38038416666667,122.88589833333334,62.0,87.0
440,122.82156016666667,123.11016280000001,55.0,85.0
441,123.04214816666668,123.18369213333334,59.0,85.0
442,123.26273616666667,123.55501526666667,62.0,91.0
443,122.60097216666668,123.59361816666667,50.0,81.0
444,123.48332416666668,123.74435330000001,55.0,85.0
445,122.38038416666667,123.89508843333334,43.0,85.0
446,123.70391216666668,123.9263384,59.0,87.0
447,123.92450016666668,124.08994116666668,55.0,87.0
448,124.14508816666668,124.61199943333334,60.0,91.0
449,124.58626416666668,124.86935210000001,55.0,90.0
450,124.80685216666667,124.98148433333334,60.0,88.0
451,125.02744016666668,125.27008696666668,62.0,88.0
452,124.36567616666667,125.41163093333334,52.0,79.0
453,124.14508816666668,125.42633680000002,48.0,90.0
454,125.24802816666667,125.49802790000001,60.0,92.0
455,125.46861616666668,125.77743936666667,55.0,89.0
456,125.68920416666667,125.92449803333334,60.0,84.0
457,125.90979216666668,126.28295353333334,64.0,89.0
458,126.35096816666668,126.43736513333334,59.0,90.0
459,126.57155616666668,126.67633546666667,59.0,92.0
460,126.57155616666668,126.69104133333335,64.0,90.0
461,126.79214416666667,126.92817343333334,59.0,94.0
462,126.79214416666667,126.96677633333334,64.0,96.0
463,126.13038016666668,127.09545266666667,47.0,87.0
464,125.90979216666668,127.10464383333334,40.0,88.0
465,127.01273216666668,127.21677606666668,62.0,102.0
466,127.23332016666667,127.46861403333334,60.0,94.0
467,127.45390816666668,127.67817263333335,59.0,86.0
468,127.67449616666667,127.95206940000001,57.0,83.0
469,127.67449616666667,128.08626043333334,60.0,86.0
470,128.11567216666668,128.38956893333335,57.0,88.0
471,128.33626016666668,128.49986293333333,60.0,96.0
472,127.89508416666668,128.67265686666667,52.0,76.0
473,128.55684816666667,128.81971553333335,64.0,101.0
474,127.67449616666667,129.02008296666668,45.0,88.0
475,128.7774361666667,129.04581823333334,52.0,86.0
476,128.99802416666668,129.30500913333336,57.0,91.0
477,129.21861216666667,129.71493516666666,60.0,94.0
478,129.88037616666668,130.22044933333333,53.0,86.0
479,130.10096416666667,130.32155216666666,57.0,87.0
480,129.6597881666667,130.40427266666669,48.0,79.0
481,129.43920016666667,130.71677233333335,41.0,86.0
482,130.32155216666666,130.75353700000002,60.0,99.0
483,130.54214016666668,130.83258103333335,48.0,85.0
484,130.76272816666668,131.0660366666667,53.0,87.0
485,131.64508016666667,131.93735926666668,52.0,85.0
486,131.86566816666667,131.98147686666667,55.0,85.0
487,131.42449216666668,132.14507963333335,47.0,85.0
488,132.0862561666667,132.34544706666668,52.0,89.0
489,131.2039041666667,132.36199116666668,40.0,89.0
490,132.30684416666668,132.43184403333333,47.0,90.0
491,132.0862561666667,132.57890270000001,59.0,89.0
492,132.52743216666667,132.81419656666668,52.0,94.0
493,132.74802016666666,132.96309346666666,55.0,85.0
494,132.96860816666668,133.290299,57.0,81.0
495,133.40978416666667,133.64875450000002,57.0,89.0
496,133.18919616666668,133.93368066666667,52.0,79.0
497,133.85096016666668,134.0899305,57.0,89.0
498,133.85096016666668,134.10831283333334,60.0,99.0
499,133.85096016666668,134.1671363,64.0,94.0
500,134.07154816666667,134.32890083333334,52.0,87.0
501,132.96860816666668,134.3822096,45.0,87.0
502,134.29213616666667,134.56970940000002,57.0,86.0
503,134.5127241666667,134.68551810000002,60.0,85.0
504,134.73331216666668,135.12853233333334,65.0,86.0
505,135.17448816666666,135.4575761,57.0,85.0
506,135.39507616666668,135.52559073333333,62.0,84.0
507,134.95390016666667,135.716767,53.0,78.0
508,134.73331216666668,135.8380904,50.0,88.0
509,135.83625216666667,136.0311049,57.0,87.0
510,135.61566416666668,136.07522250000002,65.0,96.0
511,136.0568401666667,136.2792664,62.0,89.0
512,136.27742816666668,136.4833103,57.0,77.0
513,136.49801616666667,136.930001,62.0,85.0
514,136.9391921666667,137.2314712666667,55.0,86.0
515,137.15978016666668,137.32889763333336,59.0,85.0
516,137.38036816666667,137.60647086666668,62.0,96.0
517,137.6009561666667,137.84727943333334,55.0,85.0
518,137.82154416666668,138.00904396666667,62.0,85.0
519,136.71860416666667,138.0660292,50.0,77.0
520,136.49801616666667,138.143235,43.0,86.0
521,138.04213216666668,138.24433783333333,55.0,81.0
522,138.26272016666667,138.73146966666667,60.0,90.0
523,138.70389616666668,139.00720466666667,55.0,91.0
524,138.92448416666667,139.1855133,60.0,85.0
525,139.14507216666667,139.36933663333335,62.0,87.0
526,138.4833081666667,139.54396880000002,52.0,86.0
527,138.26272016666667,139.5494835,48.0,87.0
528,139.3656601666667,139.58624816666668,60.0,89.0
529,139.58624816666668,139.86565963333334,55.0,88.0
530,139.80683616666667,140.0072036,60.0,82.0
531,140.0274241666667,140.4483796,64.0,88.0
532,140.46860016666668,140.5568353666667,59.0,87.0
533,140.68918816666667,140.77374690000002,59.0,85.0
534,140.68918816666667,140.78109983333334,64.0,85.0
535,140.24801216666668,140.95757023333334,47.0,81.0
536,140.9097761666667,141.1542612,59.0,94.0
537,140.9097761666667,141.2094082,64.0,99.0
538,140.0274241666667,141.24433463333335,40.0,89.0
539,141.13036416666668,141.29396693333334,47.0,101.0
540,141.35095216666667,141.48881966666667,59.0,87.0
541,141.35095216666667,141.49249613333333,62.0,86.0
542,141.79212816666669,142.0366132,57.0,85.0
543,141.79212816666669,142.22778946666668,60.0,85.0
544,142.23330416666667,142.53845090000002,57.0,87.0
545,142.4538921666667,142.61014200000002,60.0,82.0
546,142.67448016666668,142.92080343333333,64.0,96.0
547,142.89506816666668,143.15242083333334,57.0,87.0
548,142.01271616666668,143.20021490000002,52.0,86.0
549,141.79212816666669,143.2829354,45.0,86.0
550,143.11565616666667,143.35830296666668,60.0,87.0
551,143.3362441666667,143.59911153333334,57.0,76.0
552,143.55683216666668,144.15058153333334,60.0,90.0
553,143.99800816666666,144.52925760000002,53.0,86.0
554,144.21859616666669,144.53661053333335,57.0,86.0
555,143.77742016666667,144.81234553333334,48.0,81.0
556,143.55683216666668,144.84359550000002,41.0,88.0
557,144.43918416666668,144.88403663333335,65.0,92.0
558,144.65977216666667,144.9318307,60.0,87.0
559,144.8803601666667,145.1303599,57.0,86.0
560,145.10094816666668,145.22043333333335,53.0,86.0
561,145.32153616666668,145.64874170000002,52.0,90.0
562,145.32153616666668,145.81969740000002,55.0,86.0
563,145.98330016666668,146.17263820000002,52.0,86.0
564,145.7627121666667,146.20388816666667,59.0,88.0
565,145.54212416666667,146.60462303333335,47.0,83.0
566,146.42447616666666,146.67079943333334,52.0,91.0
567,145.32153616666668,146.67263766666667,40.0,87.0
568,146.20388816666667,146.71491703333334,64.0,96.0
569,146.64506416666669,146.8730051,59.0,87.0
570,146.86565216666668,146.9538873666667,52.0,86.0
571,147.08624016666667,147.53844556666667,60.0,86.0
572,147.52741616666668,147.79579823333336,57.0,86.0
573,147.74800416666668,147.89506283333336,60.0,80.0
574,147.3068281666667,148.07337146666669,52.0,84.0
575,147.96859216666667,148.18734193333336,57.0,91.0
576,147.96859216666667,148.24248893333333,64.0,91.0
577,147.08624016666667,148.64322380000002,45.0,85.0
578,148.1891801666667,148.64322380000002,52.0,88.0
579,148.40976816666668,148.68182670000002,57.0,86.0
580,148.63035616666667,148.81969420000001,60.0,83.0
581,148.85094416666666,149.29212016666668,62.0,87.0
582,149.29212016666668,149.60461983333335,57.0,87.0
583,149.51270816666667,149.77006083333333,62.0,84.0
584,148.85094416666666,150.01454586666668,50.0,94.0
585,149.07153216666669,150.03476643333335,53.0,74.0
586,149.95388416666668,150.1928545,57.0,81.0
587,149.7332961666667,150.21675153333334,65.0,91.0
588,150.17447216666667,150.39506016666667,62.0,86.0
589,150.39506016666667,150.52189826666668,57.0,85.0
590,150.6156481666667,151.12116233333333,62.0,87.0
591,151.05682416666667,151.3454268,55.0,85.0
592,151.27741216666666,151.41895613333335,59.0,85.0
593,151.49800016666669,151.7902792666667,62.0,91.0
594,150.83623616666668,151.8288821666667,50.0,81.0
595,151.71858816666668,151.9796173,55.0,85.0
596,150.6156481666667,152.13035243333334,43.0,85.0
597,151.93917616666667,152.16160240000002,59.0,87.0
598,152.1597641666667,152.32520516666668,55.0,87.0
599,152.38035216666668,152.91343983333334,57.0,78.0
600,152.38035216666668,152.9888074,60.0,80.0
601,153.26270416666668,153.43917456666668,57.0,85.0
602,153.26270416666668,153.8325565,64.0,85.0
603,153.70388016666666,153.95571813333333,57.0,69.0
604,152.82152816666667,154.3325559666667,52.0,72.0
605,154.14505616666668,154.67814383333334,60.0,80.0
606,154.14505616666668,154.68733500000002,57.0,77.0
607,155.02740816666667,155.2222609,57.0,85.0
608,155.02740816666667,155.47042240000002,60.0,88.0
609,154.5862321666667,155.53476056666668,52.0,73.0
610,155.02740816666667,155.5365988,64.0,86.0
611,152.38035216666668,155.70571626666668,45.0,83.0
612,155.90976016666667,156.51453893333334,57.0,78.0
613,155.90976016666667,156.6119653,64.0,85.0
614,156.35093616666668,156.86380326666668,52.0,75.0
615,156.79211216666667,157.21490583333335,60.0,90.0
616,155.90976016666667,157.41894973333333,45.0,86.0
617,157.0127001666667,157.51453786666667,52.0,80.0
618,157.23328816666668,157.53475843333334,57.0,79.0
619,157.45387616666667,157.70755236666668,60.0,67.0
620,158.11564016666668,158.4097575,55.0,80.0
621,158.33622816666667,158.64321313333335,59.0,78.0
622,158.5568161666667,158.83438940000002,62.0,74.0
623,157.8950521666667,158.86563936666667,50.0,82.0
624,157.67446416666667,158.9281393,43.0,86.0
625,159.4391681666667,159.8766677,60.0,83.0
626,159.88034416666667,160.17262326666668,57.0,81.0
627,160.10093216666667,160.3601230666667,60.0,89.0
628,160.3215201666667,160.54578463333334,64.0,90.0
629,160.54210816666668,160.69468153333335,57.0,79.0
630,159.65975616666668,160.77004910000002,52.0,78.0
631,159.4391681666667,160.7810785,45.0,86.0
632,161.20387216666668,161.48328363333334,55.0,73.0
633,161.20387216666668,161.61012173333336,59.0,75.0
634,161.64504816666667,161.93181256666668,55.0,85.0
635,161.8656361666667,162.08622416666668,59.0,87.0
636,162.08622416666668,162.33806213333335,62.0,87.0
637,161.42446016666668,162.36195916666668,50.0,85.0
638,161.20387216666668,162.3693121,43.0,86.0
639,162.30681216666667,162.42629733333334,55.0,83.0
640,162.96857616666668,163.20203180000001,57.0,76.0
641,162.96857616666668,163.40423746666667,60.0,78.0
642,163.4097521666667,163.71306066666668,57.0,85.0
643,163.63034016666668,163.87666343333333,60.0,99.0
644,163.18916416666667,164.05681030000002,52.0,78.0
645,163.85092816666668,164.09357496666667,64.0,94.0
646,162.96857616666668,164.12114846666668,45.0,86.0
647,164.07151616666667,164.30864826666667,60.0,86.0
648,164.2921041666667,164.38585406666667,57.0,82.0
649,164.73328016666667,164.97041226666667,53.0,79.0
650,164.73328016666667,165.16710323333334,57.0,82.0
651,164.73328016666667,165.38217653333334,41.0,86.0
652,164.95386816666667,165.4189412,48.0,84.0
653,165.1744561666667,165.43916176666667,53.0,90.0
654,165.39504416666668,165.56416163333336,57.0,89.0
655,165.61563216666667,165.8876907,55.0,83.0
656,165.61563216666667,166.04394053333334,59.0,90.0
657,166.05680816666668,166.3398961,55.0,91.0
658,165.8362201666667,166.37482253333334,50.0,88.0
659,165.61563216666667,166.4005578,43.0,87.0
660,166.27739616666668,166.40974896666668,59.0,85.0
661,166.49798416666667,166.98879246666667,57.0,86.0
662,166.49798416666667,166.99246893333336,53.0,88.0
663,166.93916016666668,167.41710083333334,48.0,85.0
664,167.38033616666667,167.56599773333335,53.0,94.0
665,167.38033616666667,167.7626887,60.0,91.0
666,166.49798416666667,167.8840121,41.0,90.0
667,167.6009241666667,167.99062963333336,48.0,94.0
668,167.82151216666668,168.1082765666667,53.0,86.0
669,168.04210016666667,168.20202646666667,57.0,87.0
670,168.2626881666667,168.45570266666667,59.0,89.0
671,168.2626881666667,168.47224676666667,55.0,86.0
672,168.70386416666668,168.84908460000003,55.0,81.0
673,168.48327616666668,168.99430503333335,50.0,88.0
674,168.92445216666667,169.1799666,55.0,87.0
675,168.92445216666667,169.2571724,67.0,85.0
676,168.92445216666667,169.33621643333333,62.0,88.0
677,168.92445216666667,169.36562816666668,59.0,96.0
678,168.2626881666667,169.3987163666667,43.0,91.0
679,169.1450401666667,169.5972455666667,50.0,96.0
680,169.36562816666668,169.63401023333336,55.0,101.0
681,169.58621616666667,169.7590101,59.0,86.0
682,170.0273921666667,170.27371543333334,57.0,85.0
683,170.0273921666667,170.3545977,60.0,83.0
684,170.46856816666667,170.72040613333334,57.0,84.0
685,170.90974416666668,171.1101116,57.0,88.0
686,170.90974416666668,171.1487145,60.0,96.0
687,170.90974416666668,171.18180270000002,64.0,94.0
688,171.13033216666668,171.5016553,52.0,86.0
689,170.0273921666667,171.58621403333333,45.0,88.0
690,171.35092016666667,171.6229787,57.0,83.0
691,171.5715081666667,171.7093756666667,60.0,86.0
692,171.79209616666668,172.0751841,57.0,80.0
693,171.79209616666668,172.1781251666667,60.0,85.0
694,172.23327216666667,172.51084540000002,57.0,85.0
695,172.4538601666667,172.54944830000002,60.0,82.0
696,172.01268416666667,172.7369481,52.0,85.0
697,172.67444816666668,172.9079038,57.0,87.0
698,172.67444816666668,172.90974203333334,60.0,96.0
699,171.79209616666668,172.94283023333335,45.0,87.0
700,172.67444816666668,172.9520214,64.0,94.0
701,172.89503616666667,173.03658013333336,52.0,91.0
702,173.1156241666667,173.22591816666667,45.0,86.0
703,173.55680016666668,173.78106463333336,59.0,86.0
704,173.55680016666668,174.05679963333336,67.0,83.0
705,173.9979761666667,174.27554940000002,59.0,87.0
706,174.21856416666668,174.33804933333334,64.0,88.0
707,173.77738816666667,174.55128440000001,47.0,81.0
708,173.55680016666668,174.71488716666667,40.0,88.0
709,174.43915216666667,174.72407833333335,59.0,92.0
710,174.6597401666667,174.87481346666667,47.0,81.0
711,174.43915216666667,174.87481346666667,64.0,96.0
712,174.43915216666667,174.926284,67.0,88.0
713,174.8803281666667,174.9961368666667,40.0,87.0
714,175.32150416666667,175.55312156666668,57.0,85.0
715,175.32150416666667,175.76268016666668,60.0,85.0
716,175.76268016666668,176.05128280000002,57.0,85.0
717,175.98326816666668,176.0935621666667,60.0,82.0
718,175.5420921666667,176.2829002,52.0,85.0
719,176.20385616666667,176.41892946666667,57.0,86.0
720,176.20385616666667,176.4924588,64.0,88.0
721,175.32150416666667,176.5145176,45.0,87.0
722,176.4244441666667,176.6174586666667,52.0,90.0
723,176.64503216666668,176.79209083333333,57.0,87.0
724,177.0862081666667,177.58804586666668,65.0,88.0
725,177.52738416666668,177.77370743333336,57.0,91.0
726,177.3067961666667,177.84539853333334,53.0,76.0
727,177.74797216666667,178.20753050000002,62.0,81.0
728,177.0862081666667,178.26819220000002,50.0,94.0
729,177.9685601666667,178.3729715,53.0,85.0
730,178.18914816666668,178.4336332,57.0,90.0
731,178.40973616666668,178.66157413333335,62.0,91.0
732,178.63032416666667,178.75532403333335,57.0,76.0
733,178.8509121666667,179.32149990000002,62.0,89.0
734,179.29208816666667,179.59723490000002,55.0,83.0
735,179.5126761666667,179.6854701,59.0,88.0
736,179.7332641666667,180.02186680000003,62.0,91.0
737,179.95385216666668,180.24245480000002,55.0,87.0
738,179.07150016666668,180.25899890000002,50.0,82.0
739,178.8509121666667,180.26083713333335,43.0,86.0
740,180.17444016666667,180.34907233333334,59.0,88.0
741,180.61561616666668,181.07333626666667,60.0,80.0
742,180.61561616666668,181.1395126666667,57.0,79.0
743,181.05679216666667,181.5476004666667,52.0,86.0
744,181.49796816666668,181.76635023333336,64.0,89.0
745,181.9391441666667,182.1339969,57.0,76.0
746,181.71855616666667,182.15605570000002,52.0,86.0
747,180.61561616666668,182.17443803333336,45.0,86.0
748,181.9391441666667,182.20201153333335,60.0,86.0
749,182.15973216666669,182.42443776666667,59.0,78.0
750,182.38032016666668,184.05495073333336,57.0,83.0
751,183.26267216666668,184.07884776666668,69.0,81.0
752,182.8214961666667,184.1082595,52.0,71.0
753,182.38032016666668,184.1119359666667,45.0,86.0
754,185.2479641666667,185.51083153333335,57.0,81.0
755,185.02737616666667,185.52002270000003,64.0,94.0
756,184.14502416666667,185.77553713333336,45.0,87.0
757,184.58620016666669,185.77553713333336,52.0,83.0
758,185.46855216666668,185.9152428666667,69.0,86.0
759,185.90972816666667,185.96855163333333,41.0,85.0
760,185.68914016666668,185.99061043333336,57.0,76.0
761,186.35090416666668,186.8986977,50.0,82.0
762,185.90972816666667,187.41524126666667,43.0,84.0
763,186.7920801666667,187.42259420000002,62.0,87.0
764,187.23325616666668,187.50347646666668,55.0,83.0
765,187.01266816666669,187.51266763333334,50.0,85.0
766,187.6744321666667,188.2332551,60.0,72.0
767,187.6744321666667,188.27553446666667,57.0,81.0
768,188.11560816666668,188.65788700000002,52.0,79.0
769,188.5567841666667,188.92075436666667,64.0,96.0
770,188.99796016666667,189.22957756666668,60.0,87.0
771,187.6744321666667,189.28472456666668,45.0,87.0
772,188.77737216666668,189.32700393333334,52.0,82.0
773,189.2185481666667,189.46487143333334,59.0,87.0
774,189.43913616666669,190.55494380000002,57.0,86.0
775,190.32148816666668,190.65053193333335,69.0,89.0
776,190.54207616666667,190.7847229666667,64.0,85.0
777,189.88031216666667,190.87295816666668,52.0,84.0
778,189.43913616666669,190.97038453333334,45.0,86.0
779,190.76266416666667,190.97038453333334,60.0,84.0
780,190.9832521666667,191.1670755,57.0,81.0
781,191.20384016666668,191.7185455,62.0,89.0
782,191.6450161666667,192.17810383333335,57.0,79.0
783,191.20384016666668,192.2516331666667,50.0,87.0
784,192.08619216666668,192.38398596666667,65.0,91.0
785,192.30678016666667,192.52185346666667,57.0,85.0
786,192.5273681666667,192.7497944,62.0,80.0
787,192.74795616666668,192.86927956666668,57.0,70.0
788,192.96854416666667,193.69096986666668,55.0,82.0
789,192.96854416666667,193.6928081,59.0,87.0
790,193.4097201666667,194.03655773333335,50.0,81.0
791,192.96854416666667,194.29758686666668,43.0,85.0
792,193.85089616666667,194.3472191666667,62.0,80.0
793,193.85089616666667,194.37846913333334,59.0,86.0
794,194.29207216666669,194.63398356666667,55.0,81.0
795,194.73324816666667,195.6339825,64.0,91.0
796,195.17442416666668,195.69648243333336,55.0,79.0
797,195.6156001666667,195.9133939666667,60.0,85.0
798,194.73324816666667,196.05677616666668,48.0,86.0
799,195.8361881666667,196.08251143333334,55.0,84.0
800,196.05677616666668,196.3508935,62.0,87.0
801,196.27736416666667,196.44096693333336,55.0,83.0
802,196.4979521666667,197.15052500000002,64.0,88.0
803,196.93912816666668,197.15420146666668,52.0,87.0
804,197.15971616666667,197.2773631,56.0,87.0
805,196.71854016666668,197.63581860000002,47.0,72.0
806,197.3803041666667,197.646848,59.0,86.0
807,196.4979521666667,197.65236270000003,40.0,90.0
808,197.60089216666668,197.85273013333335,62.0,89.0
809,197.82148016666667,198.0218476,64.0,87.0
810,198.2626561666667,198.6780969,64.0,85.0
811,198.70383216666667,198.97221423333335,57.0,82.0
812,198.9244201666667,199.15419933333334,60.0,80.0
813,199.14500816666668,199.44280196666668,64.0,94.0
814,199.36559616666668,199.60640473333333,57.0,80.0
815,199.58618416666667,199.81228686666668,60.0,81.0
816,198.48324416666668,199.81780156666667,52.0,79.0
817,198.2626561666667,199.8747868,45.0,86.0
818,199.8067721666667,199.93728673333334,57.0,70.0
819,200.02736016666668,200.78471230000002,65.0,87.0
820,200.4685361666667,200.9115504,57.0,83.0
821,200.90971216666668,201.12478546666668,62.0,86.0
822,201.13030016666667,201.24978533333334,57.0,86.0
823,200.02736016666668,201.4280939666667,50.0,86.0
824,201.3508881666667,201.6394908,60.0,87.0
825,201.79206416666668,202.2718430666667,55.0,85.0
826,201.79206416666668,202.45382816666668,59.0,83.0
827,202.45382816666668,202.66706323333335,55.0,85.0
828,202.67441616666667,202.94279823333335,62.0,86.0
829,202.8950041666667,203.1836068,55.0,86.0
830,203.33618016666668,203.57882696666667,55.0,79.0
831,203.1155921666667,203.62110633333336,62.0,80.0
832,203.7773561666667,204.03838530000002,55.0,82.0
833,203.55676816666667,204.25345860000002,67.0,85.0
834,203.99794416666668,204.25529683333335,62.0,77.0
835,202.2332401666667,204.74242866666668,50.0,80.0
836,204.43912016666667,204.8527226666667,59.0,77.0
837,204.43912016666667,204.8655903,55.0,81.0
838,201.79206416666668,204.91154613333336,43.0,86.0
839,204.88029616666668,205.23139873333335,50.0,88.0
840,205.3214721666667,205.7479423,53.0,78.0
841,205.3214721666667,205.808604,57.0,77.0
842,205.98323616666667,206.21485356666668,53.0,79.0
843,205.76264816666668,206.24978000000002,60.0,85.0
844,205.5420601666667,206.65235310000003,48.0,80.0
845,205.3214721666667,206.67073543333336,41.0,85.0
846,206.42441216666668,206.67992660000002,53.0,87.0
847,206.2038241666667,206.75713240000002,65.0,87.0
848,206.64500016666668,206.85455876666668,60.0,80.0
849,207.0861761666667,207.33801413333336,55.0,80.0
850,207.0861761666667,207.58066093333335,59.0,80.0
851,207.52735216666667,208.03470456666668,55.0,86.0
852,207.30676416666668,208.0751457,50.0,80.0
853,207.9685281666667,208.32330720000002,62.0,87.0
854,207.0861761666667,208.53470403333336,43.0,86.0
855,208.18911616666668,208.54205696666668,50.0,81.0
856,208.40970416666667,208.61742453333335,60.0,91.0
857,208.6302921666667,208.8802919,59.0,85.0
858,208.85088016666668,209.26448266666668,57.0,86.0
859,209.29205616666667,209.5255118,60.0,86.0
860,209.73323216666668,209.97404073333334,64.0,94.0
861,209.73323216666668,210.04757006666668,60.0,92.0
862,209.73323216666668,210.06595240000001,57.0,86.0
863,210.1744081666667,210.48323136666667,52.0,85.0
864,208.85088016666668,210.48690783333336,45.0,85.0
865,210.61558416666668,210.69646643333334,57.0,56.0
866,210.61558416666668,210.8324957,64.0,83.0
867,210.61558416666668,210.85087803333334,60.0,79.0
868,210.61558416666668,211.06043663333335,69.0,86.0
869,211.49793616666668,211.65050953333335,69.0,86.0
870,211.49793616666668,211.69095066666668,72.0,94.0
871,211.7185241666667,211.91153866666667,71.0,87.0
872,210.61558416666668,212.34168526666667,45.0,94.0
873,211.0567601666667,212.34168526666667,52.0,88.0
874,211.9391121666667,212.34903820000002,69.0,89.0
875,212.38028816666667,212.65786140000003,57.0,83.0
876,212.38028816666667,212.79205243333334,60.0,86.0
877,212.8214641666667,213.09536093333335,57.0,88.0
878,213.04205216666668,213.20565493333336,60.0,96.0
879,212.6008761666667,213.37844886666667,52.0,76.0
880,213.26264016666667,213.52550753333335,64.0,101.0
881,212.38028816666667,213.72587496666668,45.0,88.0
882,213.4832281666667,213.75161023333334,52.0,86.0
883,213.70381616666668,214.01080113333336,57.0,91.0
884,213.92440416666668,214.4207271666667,60.0,94.0
885,214.58616816666668,214.92624133333334,53.0,86.0
886,214.80675616666667,215.0273441666667,57.0,87.0
887,214.3655801666667,215.1100646666667,48.0,79.0
888,214.1449921666667,215.42256433333336,41.0,86.0
889,215.0273441666667,215.45932900000003,60.0,99.0
890,215.2479321666667,215.53837303333336,48.0,85.0
891,215.46852016666668,215.7718286666667,53.0,87.0
892,216.35087216666668,216.64315126666668,52.0,85.0
893,216.5714601666667,216.68726886666667,55.0,85.0
894,216.13028416666668,216.85087163333336,47.0,85.0
895,216.7920481666667,217.05123906666668,52.0,89.0
896,215.9096961666667,217.0677831666667,40.0,89.0
897,217.01263616666668,217.13763603333334,47.0,90.0
898,216.7920481666667,217.28469470000002,59.0,89.0
899,217.23322416666667,217.51998856666668,52.0,94.0
900,217.4538121666667,217.6688854666667,55.0,85.0
901,217.6744001666667,217.996091,57.0,81.0
902,218.11557616666667,218.35454650000003,57.0,89.0
903,217.89498816666668,218.63947266666668,52.0,79.0
904,218.55675216666668,218.7957225,57.0,89.0
905,218.55675216666668,218.81410483333335,60.0,99.0
906,218.55675216666668,218.8729283,64.0,94.0
907,218.77734016666668,219.03469283333334,52.0,87.0
908,217.6744001666667,219.0880016,45.0,87.0
909,218.9979281666667,219.27550140000002,57.0,86.0
910,219.2185161666667,219.39131010000003,60.0,85.0
911,219.43910416666668,219.83432433333334,65.0,86.0
912,219.8802801666667,220.1633681,57.0,85.0
913,220.1008681666667,220.23138273333336,62.0,84.0
914,219.65969216666667,220.422559,53.0,78.0
915,219.43910416666668,220.54388240000003,50.0,88.0
916,220.54204416666667,220.7368969,57.0,87.0
917,220.32145616666668,220.78101450000003,65.0,96.0
918,220.7626321666667,220.9850584,62.0,89.0
919,220.98322016666668,221.18910230000003,57.0,77.0
920,221.20380816666668,221.635793,62.0,85.0
921,221.6449841666667,221.9372632666667,55.0,86.0
922,221.86557216666668,222.03468963333336,59.0,85.0
923,222.08616016666667,222.31226286666669,62.0,96.0
924,222.3067481666667,222.55307143333334,55.0,85.0
925,222.5273361666667,222.7148359666667,62.0,85.0
926,221.4243961666667,222.7718212,50.0,77.0
927,221.20380816666668,222.849027,43.0,86.0
928,222.74792416666668,222.95012983333336,55.0,81.0
929,222.96851216666667,223.43726166666667,60.0,90.0
930,223.40968816666668,223.7129966666667,55.0,91.0
931,223.63027616666668,223.89130530000003,60.0,85.0
932,223.8508641666667,224.07512863333335,62.0,87.0
933,223.1891001666667,224.24976080000002,52.0,86.0
934,222.96851216666667,224.2552755,48.0,87.0
935,224.0714521666667,224.29204016666668,60.0,89.0
936,224.29204016666668,224.57145163333334,55.0,88.0
937,224.51262816666667,224.71299560000003,60.0,82.0
938,224.7332161666667,225.1541716,64.0,88.0
939,225.17439216666668,225.2626273666667,59.0,87.0
940,225.39498016666667,225.47953890000002,59.0,85.0
941,225.39498016666667,225.48689183333335,64.0,85.0
942,224.95380416666669,225.66336223333334,47.0,81.0
943,225.6155681666667,225.8600532,59.0,94.0
944,225.6155681666667,225.91520020000002,64.0,99.0
945,224.7332161666667,225.95012663333335,40.0,89.0
946,225.83615616666668,225.99975893333334,47.0,101.0
947,226.05674416666668,226.19461166666667,59.0,87.0
948,226.05674416666668,226.19828813333336,62.0,86.0
949,226.4979201666667,226.7424052,57.0,85.0
950,226.4979201666667,226.93358146666668,60.0,85.0
951,226.93909616666667,227.24424290000002,57.0,87.0
952,227.1596841666667,227.31593400000003,60.0,82.0
953,227.38027216666669,227.62659543333336,64.0,96.0
954,227.60086016666668,227.85821283333334,57.0,87.0
955,226.71850816666668,227.90600690000002,52.0,86.0
956,226.4979201666667,227.98872740000002,45.0,86.0
957,227.82144816666667,228.0640949666667,60.0,87.0
958,228.0420361666667,228.30490353333334,57.0,76.0
959,228.26262416666668,228.85637353333334,60.0,90.0
960,228.7038001666667,229.23504960000002,53.0,86.0
961,228.9243881666667,229.24240253333335,57.0,86.0
962,228.48321216666668,229.51813753333334,48.0,81.0
963,228.26262416666668,229.54938750000002,41.0,88.0
964,229.14497616666668,229.58982863333335,65.0,92.0
965,229.36556416666667,229.6376227,60.0,87.0
966,229.5861521666667,229.8361519,57.0,86.0
967,229.80674016666669,229.92622533333335,53.0,86.0
968,230.02732816666668,230.35453370000002,52.0,90.0
969,230.02732816666668,230.52548940000003,55.0,86.0
970,230.68909216666668,230.87843020000003,52.0,86.0
971,230.4685041666667,230.90968016666667,59.0,88.0
972,230.2479161666667,231.31041503333336,47.0,83.0
973,231.1302681666667,231.37659143333335,52.0,91.0
974,230.02732816666668,231.37842966666668,40.0,87.0
975,230.90968016666667,231.42070903333334,64.0,96.0
976,231.3508561666667,231.57879710000003,59.0,87.0
977,231.57144416666668,231.6596793666667,52.0,86.0
978,231.79203216666667,232.2442375666667,60.0,86.0
979,232.23320816666669,232.50159023333336,57.0,86.0
980,232.45379616666668,232.60085483333336,60.0,80.0
981,232.0126201666667,232.7791634666667,52.0,84.0
982,232.6743841666667,232.89313393333336,57.0,91.0
983,232.6743841666667,232.94828093333336,64.0,91.0
984,231.79203216666667,233.34901580000002,45.0,85.0
985,232.8949721666667,233.34901580000002,52.0,88.0
986,233.11556016666668,233.38761870000002,57.0,86.0
987,233.33614816666667,233.52548620000002,60.0,83.0
988,233.5567361666667,233.99791216666668,62.0,87.0
989,233.99791216666668,234.31041183333335,57.0,87.0
990,234.21850016666667,234.47585283333336,62.0,84.0
991,233.5567361666667,234.72033786666668,50.0,94.0
992,233.7773241666667,234.74055843333335,53.0,74.0
993,234.65967616666669,234.8986465,57.0,81.0
994,234.4390881666667,234.92254353333334,65.0,91.0
995,234.88026416666668,235.1008521666667,62.0,86.0
996,235.1008521666667,235.22769026666668,57.0,85.0
997,235.3214401666667,235.82695433333336,62.0,87.0
998,235.76261616666667,236.05121880000002,55.0,85.0
999,235.9832041666667,236.12474813333336,59.0,85.0
1000,236.2037921666667,236.4960712666667,62.0,91.0
1001,235.54202816666668,236.5346741666667,50.0,81.0
1002,236.42438016666668,236.68540930000003,55.0,85.0
1003,235.3214401666667,236.83614443333335,43.0,85.0
1004,236.64496816666667,236.86739440000002,59.0,87.0
1005,236.8655561666667,237.03099716666668,55.0,87.0
1006,237.08614416666668,237.61923183333334,57.0,78.0
1007,237.08614416666668,237.69459940000002,60.0,80.0
1008,237.96849616666668,238.14496656666668,57.0,85.0
1009,237.96849616666668,238.5383485,64.0,85.0
1010,238.4096721666667,238.66151013333337,57.0,69.0
1011,237.5273201666667,239.0383479666667,52.0,72.0
1012,238.85084816666668,239.38393583333334,60.0,80.0
1013,238.85084816666668,239.39312700000002,57.0,77.0
1014,239.73320016666668,239.9280529,57.0,85.0
1015,239.73320016666668,240.17621440000002,60.0,88.0
1016,239.2920241666667,240.24055256666668,52.0,73.0
1017,239.73320016666668,240.2423908,64.0,86.0
1018,237.08614416666668,240.4115082666667,45.0,83.0
1019,240.61555216666667,240.76628730000002,57.0,86.0
1020,240.61555216666667,240.90231656666668,62.0,92.0
1021,240.61555216666667,240.9574635666667,65.0,89.0
1022,240.8361401666667,241.0034194,57.0,85.0
1023,241.0567281666667,241.2405515,62.0,85.0
1024,241.27731616666668,241.39863956666667,57.0,86.0
1025,241.49790416666667,241.5934923,57.0,94.0
1026,241.49790416666667,241.71113923333334,62.0,101.0
1027,241.49790416666667,241.7956979666667,65.0,99.0
1028,241.7184921666667,241.82694793333334,57.0,88.0
1029,241.93908016666668,242.12841820000003,62.0,92.0
1030,240.61555216666667,242.21297693333335,50.0,88.0
1031,242.15966816666668,242.29202096666668,57.0,86.0
1032,242.3802561666667,242.53650600000003,57.0,86.0
1033,242.3802561666667,242.66334410000002,60.0,90.0
1034,242.6008441666667,242.72584403333335,57.0,84.0
1035,242.82143216666668,243.06775543333336,60.0,80.0
1036,243.04202016666667,243.15599063333335,57.0,86.0
1037,242.3802561666667,243.15782886666668,45.0,89.0
1038,243.2626081666667,243.3747404,57.0,86.0
1039,243.2626081666667,243.4905491,60.0,92.0
1040,243.2626081666667,243.55304903333337,52.0,85.0
1041,243.2626081666667,243.5677549,64.0,89.0
1042,243.2626081666667,243.60268133333335,45.0,88.0
1043,243.4831961666667,243.7148135666667,57.0,86.0
1044,243.70378416666668,243.8306222666667,60.0,91.0
1045,244.1449601666667,244.29385706666667,59.0,88.0
1046,244.1449601666667,244.40047460000002,64.0,87.0
1047,244.36554816666668,244.47400393333336,59.0,79.0
1048,244.58613616666668,244.70194486666668,64.0,88.0
1049,244.8067241666667,244.9023123,59.0,85.0
1050,244.1449601666667,244.95562106666668,40.0,92.0
1051,245.0273121666667,245.16701790000002,59.0,88.0
1052,245.0273121666667,245.23135606666668,68.0,89.0
1053,245.24790016666668,245.4482676,59.0,88.0
1054,245.46848816666667,245.65782620000002,64.0,83.0
1055,245.0273121666667,245.76076726666668,40.0,99.0
1056,245.6890761666667,245.85084070000002,59.0,88.0
1057,245.9096641666667,245.99789936666667,59.0,82.0
1058,245.9096641666667,246.1541492,64.0,94.0
1059,245.9096641666667,246.1927521,68.0,92.0
1060,246.13025216666668,246.29753140000003,59.0,88.0
1061,246.35084016666667,246.49238413333336,64.0,88.0
1062,245.9096641666667,246.64495750000003,40.0,96.0
1063,246.5714281666667,246.6872368666667,59.0,89.0
1064,246.79201616666668,246.8857660666667,59.0,91.0
1065,246.79201616666668,246.99422183333334,64.0,99.0
1066,246.79201616666668,247.1228981666667,68.0,92.0
1067,246.79201616666668,247.19275103333337,40.0,99.0
1068,247.01260416666668,247.19826573333336,59.0,89.0
1069,247.2331921666667,247.39495670000002,64.0,84.0
1070,247.4537801666667,247.59532413333335,59.0,82.0
1071,247.67436816666668,247.90782380000002,62.0,86.0
1072,247.67436816666668,247.9519414,65.0,89.0
1073,247.89495616666667,248.04017660000002,57.0,81.0
1074,248.1155441666667,248.25157343333336,62.0,86.0
1075,248.3361321666667,248.43355853333335,57.0,86.0
1076,247.67436816666668,248.4464261666667,38.0,90.0
1077,248.55672016666668,248.80304343333336,62.0,88.0
1078,248.55672016666668,248.81407283333334,65.0,90.0
1079,248.55672016666668,248.84532280000002,38.0,89.0
1080,248.7773081666667,248.89311686666667,57.0,88.0
1081,248.9978961666667,249.19826360000002,65.0,85.0
1082,248.9978961666667,249.21664593333335,62.0,90.0
1083,249.21848416666668,249.31039583333336,57.0,87.0
1084,249.43907216666668,249.59348376666668,55.0,86.0
1085,249.43907216666668,249.68355720000002,59.0,86.0
1086,249.6596601666667,249.7938512,55.0,86.0
1087,249.8802481666667,250.0126009666667,62.0,89.0
1088,249.8802481666667,250.04385093333335,59.0,90.0
1089,250.10083616666668,250.21848310000001,55.0,85.0
1090,250.32142416666667,250.5714239,59.0,94.0
1091,250.32142416666667,250.57510036666667,62.0,92.0
1092,250.5420121666667,250.67436496666667,55.0,90.0
1093,250.7626001666667,250.88208533333335,59.0,88.0
1094,250.7626001666667,250.89311473333336,62.0,87.0
1095,249.43907216666668,251.05304103333336,43.0,87.0
1096,249.6596601666667,251.0714233666667,50.0,77.0
1097,250.98318816666668,251.08245276666668,55.0,91.0
1098,251.2037761666667,251.3379672,57.0,91.0
1099,251.2037761666667,251.4464229666667,60.0,92.0
1100,251.64495216666668,251.80120200000002,57.0,88.0
1101,251.64495216666668,251.80855493333334,60.0,92.0
1102,251.2037761666667,251.84164313333335,45.0,88.0
1103,252.0861281666667,252.16701043333336,57.0,87.0
1104,252.0861281666667,252.19642216666668,60.0,90.0
1105,252.0861281666667,252.21112803333335,64.0,90.0
1106,252.3067161666667,252.4004660666667,57.0,96.0
1107,252.0861281666667,252.7589215666667,52.0,99.0
1108,252.0861281666667,252.78649506666667,45.0,89.0
1109,252.74789216666667,253.01811246666668,64.0,96.0
1110,252.74789216666667,253.02546540000003,60.0,99.0
1111,252.74789216666667,253.0364948,69.0,86.0
1112,252.74789216666667,253.0456859666667,57.0,88.0
1113,253.1890681666667,253.36186210000002,57.0,89.0
1114,253.1890681666667,253.43539143333336,69.0,88.0
1115,253.1890681666667,253.4427443666667,64.0,94.0
1116,253.1890681666667,253.47950903333336,60.0,106.0
1117,253.6302441666667,253.7295087666667,57.0,87.0
1118,252.9684801666667,253.78465576666667,45.0,86.0
1119,253.40965616666668,253.7956851666667,52.0,86.0
1120,253.8508321666667,253.92619973333336,57.0,88.0
1121,253.8508321666667,254.09715543333334,69.0,87.0
1122,253.8508321666667,254.11002306666668,64.0,96.0
1123,253.8508321666667,254.12289070000003,60.0,99.0
1124,254.07142016666668,254.172523,57.0,86.0
1125,254.29200816666668,254.45377270000003,67.0,86.0
1126,254.29200816666668,254.5475226,60.0,92.0
1127,254.5125961666667,254.6173754666667,57.0,91.0
1128,254.07142016666668,254.70009596666668,52.0,87.0
1129,253.8508321666667,254.72031653333335,45.0,90.0
1130,254.7331841666667,255.01075740000002,57.0,83.0
1131,254.7331841666667,255.14494843333335,60.0,86.0
1132,255.17436016666667,255.44825693333334,57.0,88.0
1133,255.3949481666667,255.55855093333335,60.0,96.0
1134,254.95377216666668,255.7313448666667,52.0,76.0
1135,255.6155361666667,255.87840353333334,64.0,101.0
1136,254.7331841666667,256.0787709666667,45.0,88.0
1137,255.83612416666668,256.1045062333333,52.0,86.0
1138,256.05671216666667,256.36369713333335,57.0,91.0
1139,256.2773001666667,256.7736231666667,60.0,94.0
1140,256.9390641666667,257.2791373333334,53.0,86.0
1141,257.15965216666666,257.3802401666667,57.0,87.0
1142,256.7184761666667,257.4629606666667,48.0,79.0
1143,256.4978881666667,257.77546033333334,41.0,86.0
1144,257.3802401666667,257.812225,60.0,99.0
1145,257.6008281666667,257.89126903333334,48.0,85.0
1146,257.82141616666667,258.1247246666667,53.0,87.0
1147,258.7037681666667,258.99604726666666,52.0,85.0
1148,258.9243561666667,259.0401648666667,55.0,85.0
1149,258.48318016666667,259.20376763333337,47.0,85.0
1150,259.1449441666667,259.4041350666667,52.0,89.0
1151,258.2625921666667,259.4206791666667,40.0,89.0
1152,259.3655321666667,259.49053203333335,47.0,90.0
1153,259.1449441666667,259.63759070000003,59.0,89.0
1154,259.58612016666666,259.8728845666667,52.0,94.0
1155,259.8067081666667,260.0217814666667,55.0,85.0
1156,260.0272961666667,260.348987,57.0,81.0
1157,260.4684721666667,260.7074425,57.0,89.0
1158,260.24788416666667,260.99236866666666,52.0,79.0
1159,260.90964816666667,261.1486185,57.0,89.0
1160,260.90964816666667,261.16700083333336,60.0,99.0
1161,260.90964816666667,261.2258243,64.0,94.0
1162,261.1302361666667,261.3875888333333,52.0,87.0
1163,260.0272961666667,261.4408976,45.0,87.0
1164,261.3508241666667,261.62839740000004,57.0,86.0
1165,261.5714121666667,261.74420610000004,60.0,85.0
1166,261.7920001666667,262.18722033333336,65.0,86.0
1167,262.2331761666667,262.5162641,57.0,85.0
1168,262.4537641666667,262.58427873333335,62.0,84.0
1169,262.01258816666666,262.775455,53.0,78.0
1170,261.7920001666667,262.8967784,50.0,88.0
1171,262.8949401666667,263.0897929,57.0,87.0
1172,262.67435216666667,263.1339105,65.0,96.0
1173,263.1155281666667,263.3379544,62.0,89.0
1174,263.33611616666667,263.54199830000005,57.0,77.0
1175,263.5567041666667,263.988689,62.0,85.0
1176,263.9978801666667,264.2901592666667,55.0,86.0
1177,264.2184681666667,264.38758563333334,59.0,85.0
1178,264.43905616666666,264.6651588666667,62.0,96.0
1179,264.6596441666667,264.90596743333333,55.0,85.0
1180,264.8802321666667,265.0677319666667,62.0,85.0
1181,263.7772921666667,265.1247172,50.0,77.0
1182,263.5567041666667,265.201923,43.0,86.0
1183,265.10082016666667,265.3030258333334,55.0,81.0
1184,265.3214081666667,265.7901576666667,60.0,90.0
1185,265.76258416666667,266.0658926666667,55.0,91.0
1186,265.9831721666667,266.24420130000004,60.0,85.0
1187,266.2037601666667,266.42802463333334,62.0,87.0
1188,265.5419961666667,266.60265680000003,52.0,86.0
1189,265.3214081666667,266.6081715,48.0,87.0
1190,266.4243481666667,266.6449361666667,60.0,89.0
1191,266.6449361666667,266.92434763333335,55.0,88.0
1192,266.86552416666666,267.06589160000004,60.0,82.0
1193,267.0861121666667,267.5070676,64.0,88.0
1194,267.52728816666666,267.6155233666667,59.0,87.0
1195,267.7478761666667,267.8324349,59.0,85.0
1196,267.7478761666667,267.83978783333333,64.0,85.0
1197,267.3067001666667,268.01625823333336,47.0,81.0
1198,267.9684641666667,268.2129492,59.0,94.0
1199,267.9684641666667,268.2680962,64.0,99.0
1200,267.0861121666667,268.30302263333334,40.0,89.0
1201,268.18905216666667,268.3526549333333,47.0,101.0
1202,268.4096401666667,268.54750766666666,59.0,87.0
1203,268.4096401666667,268.5511841333334,62.0,86.0
1204,268.8508161666667,269.0953012,57.0,85.0
1205,268.8508161666667,269.28647746666667,60.0,85.0
1206,269.29199216666666,269.5971389,57.0,87.0
1207,269.5125801666667,269.66883,60.0,82.0
1208,269.7331681666667,269.97949143333335,64.0,96.0
1209,269.95375616666666,270.21110883333336,57.0,87.0
1210,269.0714041666667,270.2589029,52.0,86.0
1211,268.8508161666667,270.3416234,45.0,86.0
1212,270.1743441666667,270.4169909666667,60.0,87.0
1213,270.3949321666667,270.65779953333333,57.0,76.0
1214,270.61552016666667,271.2092695333333,60.0,90.0
1215,271.0566961666667,271.5879456,53.0,86.0
1216,271.2772841666667,271.59529853333333,57.0,86.0
1217,270.8361081666667,271.87103353333333,48.0,81.0
1218,270.61552016666667,271.9022835,41.0,88.0
1219,271.4978721666667,271.94272463333334,65.0,92.0
1220,271.71846016666666,271.9905187,60.0,87.0
1221,271.9390481666667,272.18904790000005,57.0,86.0
1222,272.1596361666667,272.27912133333336,53.0,86.0
1223,272.38022416666666,272.70742970000003,52.0,90.0
1224,272.38022416666666,272.8783854,55.0,86.0
1225,273.04198816666667,273.2313262,52.0,86.0
1226,272.8214001666667,273.2625761666667,59.0,88.0
1227,272.6008121666667,273.66331103333334,47.0,83.0
1228,273.4831641666667,273.72948743333336,52.0,91.0
1229,272.38022416666666,273.7313256666667,40.0,87.0
1230,273.2625761666667,273.77360503333335,64.0,96.0
1231,273.7037521666667,273.9316931,59.0,87.0
1232,273.9243401666667,274.0125753666667,52.0,86.0
1233,274.14492816666666,274.5971335666667,60.0,86.0
1234,274.5861041666667,274.8544862333334,57.0,86.0
1235,274.80669216666666,274.95375083333334,60.0,80.0
1236,274.3655161666667,275.1320594666667,52.0,84.0
1237,275.0272801666667,275.2460299333334,57.0,91.0
1238,275.0272801666667,275.30117693333335,64.0,91.0
1239,274.14492816666666,275.7019118,45.0,85.0
1240,275.2478681666667,275.7019118,52.0,88.0
1241,275.46845616666667,275.7405147,57.0,86.0
1242,275.6890441666667,275.87838220000003,60.0,83.0
1243,275.9096321666667,276.3508081666667,62.0,87.0
1244,276.3508081666667,276.66330783333336,57.0,87.0
1245,276.5713961666667,276.82874883333335,62.0,84.0
1246,275.9096321666667,277.07323386666667,50.0,94.0
1247,276.1302201666667,277.09345443333336,53.0,74.0
1248,277.0125721666667,277.2515425,57.0,81.0
1249,276.7919841666667,277.2754395333333,65.0,91.0
1250,277.23316016666666,277.4537481666667,62.0,86.0
1251,277.4537481666667,277.58058626666667,57.0,85.0
1252,277.6743361666667,278.1798503333334,62.0,87.0
1253,278.1155121666667,278.4041148,55.0,85.0
1254,278.3361001666667,278.47764413333334,59.0,85.0
1255,278.5566881666667,278.8489672666667,62.0,91.0
1256,277.89492416666667,278.8875701666667,50.0,81.0
1257,278.7772761666667,279.03830530000005,55.0,85.0
1258,277.6743361666667,279.18904043333333,43.0,85.0
1259,278.9978641666667,279.2202904,59.0,87.0
1260,279.2184521666667,279.38389316666667,55.0,87.0
1261,279.46109896666667,279.8691867666667,69.0,82.0
1262,279.44271663333336,279.9151426,64.0,80.0
1263,279.3085256,279.926172,57.0,80.0
1264,279.374702,280.01073073333333,60.0,84.0
1265,280.32874510000005,280.5162449,60.0,80.0
1266,280.3379362666667,280.5309507666667,64.0,85.0
1267,279.85815736666666,281.26256763333333,52.0,70.0
1268,279.39676080000004,281.28462643333336,45.0,86.0
1269,280.75889170000005,281.31587640000004,57.0,67.0
1270,281.25153823333335,281.58058200000005,60.0,81.0
1271,281.26256763333333,281.65411133333333,64.0,81.0
1272,282.1338902333334,282.4298458,57.0,81.0
1273,282.13205200000004,282.6375661666667,60.0,92.0
1274,282.1357284666667,282.6596249666667,64.0,90.0
1275,283.0180804666667,284.05852053333336,57.0,71.0
1276,283.07690393333337,284.1632998333334,60.0,74.0
1277,284.1063146,284.7846227,64.0,86.0
1278,283.0713892333334,284.9206519666667,45.0,85.0
1279,283.58425633333337,284.9666078,52.0,80.0
1280,284.6118287666667,285.17984286666666,60.0,85.0
1281,285.3673426666667,286.04748900000004,52.0,73.0
1282,285.20006343333336,286.0566801666667,45.0,64.0
1283,285.50153370000004,286.3655033666667,60.0,77.0
1284,285.5897689,286.3710180666667,64.0,65.0
1285,285.4004308666667,286.37469453333335,57.0,63.0
1286,285.64123943333334,286.39123863333333,69.0,74.0
