,start,end,pitch,velocity
0,16.079679470833334,16.44270726875,59.0,106.0
1,16.536016970833334,16.891650175,62.0,109.0
2,16.95855147083333,17.27721290625,59.0,115.0
3,17.381085970833333,18.352719777083333,64.0,106.0
4,18.63223321875,18.92389941875,71.0,112.0
5,19.04889921875,19.37181536875,69.0,104.0
6,19.46556521875,19.732925902083334,67.0,106.0
7,19.88223121875,20.410008152083332,66.0,113.0
8,20.71556321875,20.97597946875,62.0,109.0
9,21.13222921875,22.43951879375,59.0,104.0
10,22.79889321875,23.09576774375,59.0,112.0
11,23.21555921875,23.48639211875,62.0,112.0
12,23.63222521875,23.890905360416667,59.0,106.0
13,24.04889121875,24.64784859375,60.0,109.0
14,24.88222321875,25.14784779375,64.0,106.0
15,25.29888921875,25.55409714375,67.0,112.0
16,25.715555218749998,26.00722141875,66.0,117.0
17,26.132221218749997,26.462081802083333,64.0,109.0
18,26.54888721875,27.378747002083333,62.0,112.0
19,27.38221921875,27.784996352083333,57.0,109.0
20,27.79888521875,29.22075794375,59.0,99.0
21,29.46554921875,29.755479310416668,59.0,112.0
22,29.882215218749998,30.18082585208333,62.0,109.0
23,30.298881218749997,30.607908502083333,59.0,115.0
24,30.715547218749997,31.745059460416666,64.0,112.0
25,31.96554521875,32.23985033541666,71.0,106.0
26,32.38221121875,32.630474710416664,69.0,109.0
27,32.79887721875,33.04366849375,67.0,104.0
28,33.21554321875,33.46727892708333,66.0,113.0
29,33.63220921875,33.93602817708333,62.0,112.0
30,34.04887521875,34.91172106041667,71.0,94.0
31,34.88220721875,35.503734002083334,69.0,112.0
32,35.715539218749996,36.34227432708333,67.0,109.0
33,36.548871218749994,36.83880131041667,62.0,109.0
34,36.96553721875,37.271092285416664,59.0,106.0
35,37.38220321875,39.08706160208333,60.0,109.0
36,39.46553321875,39.71206060208333,62.0,109.0
37,39.88219921875,40.44643442708333,62.0,109.0
38,40.71553121875,40.995193585416665,59.0,106.0
39,41.14162201041667,42.60223558958333,60.0,104.0
40,42.847026864583334,43.171679122916665,59.0,106.0
41,43.263692864583334,43.61438674791667,62.0,109.0
42,43.68035886458333,43.99459447291667,59.0,115.0
43,44.09702486458333,45.067509422916665,64.0,106.0
44,45.34702286458333,45.63868906458333,71.0,112.0
45,45.76368886458333,46.086605014583334,69.0,104.0
46,46.180354864583336,46.447715547916665,67.0,106.0
47,46.597020864583335,47.12479779791666,66.0,113.0
48,47.430352864583334,47.69076911458333,62.0,109.0
49,47.84701886458333,49.15430843958333,59.0,104.0
50,49.51368286458333,49.81055738958333,59.0,112.0
51,49.93034886458333,50.20118176458333,62.0,112.0
52,50.34701486458333,50.60569500625,59.0,106.0
53,50.763680864583336,51.36263823958333,60.0,109.0
54,51.597012864583334,51.86263743958333,64.0,106.0
55,52.01367886458333,52.268886789583334,67.0,112.0
56,52.43034486458333,52.722011064583334,66.0,117.0
57,52.84701086458333,53.17687144791667,64.0,109.0
58,53.26367686458333,54.093536647916665,62.0,112.0
59,54.09700886458333,54.49978599791667,57.0,109.0
60,54.51367486458333,55.93554758958333,59.0,99.0
61,56.180338864583334,56.470268956249996,59.0,112.0
62,56.59700486458333,56.895615497916666,62.0,109.0
63,57.01367086458333,57.32269814791667,59.0,115.0
64,57.43033686458333,58.45984910625,64.0,112.0
65,58.68033486458333,58.95463998125,71.0,106.0
66,59.097000864583336,59.34526435625,69.0,109.0
67,59.51366686458333,59.75845813958333,67.0,104.0
68,59.930332864583335,60.18206857291666,66.0,113.0
69,60.34699886458333,60.650817822916665,62.0,112.0
70,60.76366486458333,61.62651070625,71.0,94.0
71,61.59699686458333,62.21852364791667,69.0,112.0
72,62.43032886458333,63.057063972916666,67.0,109.0
73,63.26366086458333,63.55359095625,62.0,109.0
74,63.680326864583336,63.98588193125,59.0,106.0
75,64.09699286458333,65.34351864791667,60.0,109.0
76,65.34699086458333,65.62303208958333,59.0,115.0
77,65.76365686458334,66.01886478958333,69.0,109.0
78,66.18032286458333,66.39560029791667,67.0,109.0
79,66.59698886458332,67.25323781458333,66.0,120.0
80,67.43032086458334,67.78101474791666,64.0,112.0
81,67.84698686458333,70.09238597291666,66.0,120.0
82,71.39986085624999,71.69673538125,71.0,109.0
83,71.81652685625,72.11340138125,71.0,112.0
84,72.23319285625,72.53006738124999,72.0,104.0
85,72.64985885624999,72.94846948958333,71.0,112.0
86,73.06652485625,73.30610780625,69.0,109.0
87,73.48319085624999,73.76270429791666,67.0,112.0
88,73.89985685625,74.19846748958332,66.0,113.0
89,74.31652285624999,76.90332427291666,67.0,106.0
90,78.06651685624999,78.35297473124999,67.0,115.0
91,78.48318285625,78.76096018958333,67.0,106.0
92,78.89984885624999,79.13422348124999,69.0,109.0
93,79.31651485625,79.59255608125,66.0,120.0
94,79.73318085624999,79.94324996458333,64.0,112.0
95,80.14984685625,80.39116591458333,62.0,115.0
96,80.56651285625,80.83040132291666,57.0,112.0
97,80.98317885624999,84.24879863125,59.0,109.0
98,84.73317285625,85.02831127291665,71.0,112.0
99,85.14983885625,85.42414397291665,71.0,109.0
100,85.56650485624999,85.84949051458332,72.0,104.0
101,85.98317085625,86.31997587291666,71.0,112.0
102,86.39983685624999,86.57518379791667,69.0,99.0
103,86.81650285625,87.41372412291666,69.0,112.0
104,88.06650085624999,88.34080597291666,67.0,112.0
105,88.48316685625,88.74705532291665,69.0,115.0
106,88.89983285624999,89.16719353958332,71.0,115.0
107,89.31649885624999,89.68976214791667,67.0,109.0
108,89.73316485625,90.01267829791666,64.0,106.0
109,90.14983085624999,90.98837118124999,64.0,109.0
110,91.39982885625,91.66371732291665,60.0,115.0
111,91.81649485624999,92.25920248124999,64.0,112.0
112,92.44149385624999,92.59947971458332,67.0,109.0
113,92.64982685624999,92.90677088958333,71.0,112.0
114,92.91892364791666,93.11857610624999,67.0,106.0
115,93.21232595625,93.39635343958332,64.0,109.0
116,93.55607540624999,93.81996387291666,71.0,104.0
117,93.85815825625,93.99531081458332,67.0,106.0
118,94.07517179791665,94.21579657291666,64.0,106.0
119,94.31649085625,94.60121262291666,67.0,112.0
120,94.73315685624999,95.04565635624999,67.0,112.0
121,95.14982285625,95.40329467291666,67.0,109.0
122,95.56648885624999,95.81567143541666,69.0,112.0
123,95.99581809791665,96.69896702499999,69.0,118.0
124,96.93052427083333,97.26837436666666,64.0,115.0
125,97.41756777083333,97.99602531666666,62.0,115.0
126,98.36313081458333,98.65593874583332,71.0,109.0
127,98.77408931458334,99.06689724583333,71.0,112.0
128,99.18504781458333,99.47785574583332,72.0,104.0
129,99.59600631458333,99.89052657291667,71.0,112.0
130,100.00696481458333,100.24326595208333,69.0,109.0
131,100.41792331458333,100.69360797499999,67.0,112.0
132,100.82888181458333,101.12340207291666,66.0,113.0
133,101.23984031458333,103.79120766874999,67.0,106.0
134,104.93846681458334,105.22100078333332,67.0,115.0
135,105.34942531458333,105.62339764791666,67.0,106.0
136,105.76038381458334,105.99154797083332,69.0,109.0
137,106.17134231458333,106.44360232083334,66.0,120.0
138,106.58230081458333,106.78949239166667,64.0,112.0
139,106.99325931458333,107.23127277916666,62.0,115.0
140,107.40421781458333,107.66449153125,57.0,112.0
141,107.81517631458333,111.09941966041666,59.0,109.0
142,111.51380281458333,111.80489841875,71.0,112.0
143,111.92476131458334,112.19530899374999,71.0,109.0
144,112.33571981458333,112.61482912916667,72.0,104.0
145,112.74667831458333,113.07886976875,71.0,112.0
146,113.15763681458333,113.33058185,69.0,99.0
147,113.56859531458333,114.15763583124999,69.0,112.0
148,114.80147081458333,115.07201849375,67.0,112.0
149,115.21242931458333,115.47270303124999,69.0,115.0
150,115.62338781458332,115.88708618541666,71.0,115.0
151,116.03434631458333,116.4024966375,67.0,109.0
152,116.44530481458332,116.720989475,64.0,106.0
153,116.85626331458333,117.68331729583333,64.0,109.0
154,118.08913881458332,118.34941253125,60.0,115.0
155,118.50009731458333,118.93674072083333,64.0,112.0
156,119.11653506458333,119.27235682916665,67.0,109.0
157,119.32201431458333,119.57543872291666,71.0,112.0
158,119.58742501249999,119.78434262708333,67.0,106.0
159,119.87680828958332,120.05831496041667,64.0,109.0
160,120.21584905208333,120.47612276875,71.0,104.0
161,120.51379396458333,120.64906780416666,67.0,106.0
162,120.72783485,120.86653334374999,64.0,106.0
163,120.96584831458333,121.24666995625,67.0,112.0
164,121.37680681458333,121.68502568958333,67.0,112.0
165,121.78776531458332,122.19529916041665,67.0,109.0
166,122.60968231458332,122.89564093749999,67.0,112.0
167,123.02064081458333,123.35111994166667,67.0,109.0
168,123.43159931458332,124.70043368333333,67.0,112.0
169,125.48639181458333,125.81173396041666,71.0,106.0
170,125.89735031458332,126.30488416041666,69.0,112.0
171,126.30830881458333,128.95214183125,67.0,109.0
172,140.28089781458334,140.60110297916665,59.0,106.0
173,140.69185631458333,141.03774638541665,62.0,109.0
174,141.10281481458333,141.41274601666666,59.0,115.0
175,141.51377331458332,142.47096415416667,64.0,106.0
176,142.74664881458332,143.03431976458333,71.0,112.0
177,143.15760731458332,143.47610015208332,69.0,104.0
178,143.56856581458334,143.83226418541665,67.0,106.0
179,143.97952431458333,144.50007174791665,66.0,113.0
180,144.80144131458331,145.05829037708332,62.0,109.0
181,145.21239981458334,146.50178210833332,59.0,104.0
182,146.85623381458333,147.14904174583333,59.0,112.0
183,147.26719231458333,147.53431533958332,62.0,112.0
184,147.67815081458332,147.93328755,59.0,106.0
185,148.0891093145833,148.67986215833332,60.0,109.0
186,148.91102631458332,149.17301235833332,64.0,106.0
187,149.32198481458332,149.57369689583334,67.0,112.0
188,149.73294331458334,150.02061426458332,66.0,117.0
189,150.14390181458333,150.46924396041666,64.0,109.0
190,150.55486031458332,151.37335266041666,62.0,112.0
191,151.3767773145833,151.77403719791664,57.0,109.0
192,151.78773581458333,153.19013169583332,59.0,99.0
193,153.43156981458333,153.7175284375,59.0,112.0
194,153.84252831458332,154.13704857291665,62.0,109.0
195,154.2534868145833,154.55828103541666,59.0,115.0
196,154.66444531458333,155.679855275,64.0,112.0
197,155.89732081458334,156.16786849375,71.0,106.0
198,156.30827931458333,156.5531420875,69.0,109.0
199,156.71923781458332,156.96067593333333,67.0,104.0
200,157.13019631458332,157.37848374166666,66.0,113.0
201,157.5411548145833,157.84081205416666,62.0,112.0
202,157.95211331458333,158.803139875,71.0,94.0
203,158.7740303145833,159.38704341041665,69.0,112.0
204,159.59594731458333,160.21409739166666,67.0,109.0
205,160.4178643145833,160.70382293749998,62.0,109.0
206,160.82882281458333,161.13019238125,59.0,106.0
207,161.23978131458333,162.46923216041665,60.0,109.0
208,162.47265681458333,162.74491682083334,59.0,115.0
209,162.88361531458332,163.13532739583331,69.0,109.0
210,163.29457381458332,163.50690237291667,67.0,109.0
211,163.7055323145833,164.35279195208332,66.0,120.0
212,164.52744931458332,164.87333938541667,64.0,112.0
213,164.93840781458334,167.10450157499997,66.0,120.0
214,168.22607581458334,168.5188837458333,71.0,109.0
215,168.63703431458333,168.92984224583333,71.0,112.0
216,169.04799281458332,169.34080074583332,72.0,104.0
217,169.45895131458332,169.75347157291665,71.0,112.0
218,169.8699098145833,170.1062109520833,69.0,109.0
219,170.2808683145833,170.556552975,67.0,112.0
220,170.69182681458332,170.98634707291666,66.0,113.0
221,171.10278531458331,173.65415266875,67.0,106.0
222,174.80141181458333,175.08394578333332,67.0,115.0
223,175.21237031458332,175.48634264791667,67.0,106.0
224,175.62332881458332,175.85449297083332,69.0,109.0
225,176.0342873145833,176.30654732083332,66.0,120.0
226,176.4452458145833,176.65243739166664,64.0,112.0
227,176.85620431458332,177.09421777916666,62.0,115.0
228,177.26716281458332,177.52743653124998,57.0,112.0
229,177.67812131458334,180.93306129166666,59.0,109.0
230,181.41080054791666,181.70189615208332,71.0,112.0
231,181.82175904791666,182.09230672708333,71.0,109.0
232,182.23271754791668,182.5118268625,72.0,104.0
233,182.64367604791667,182.97586750208333,71.0,112.0
234,183.05463454791666,183.22757958333332,69.0,99.0
235,183.46559304791666,184.05463356458333,69.0,112.0
236,184.69846854791666,184.96901622708333,67.0,112.0
237,185.10942704791665,185.36970076458334,69.0,115.0
238,185.52038554791667,185.78408391874999,71.0,115.0
239,185.93134404791667,186.29949437083334,67.0,109.0
240,186.34230254791666,186.61798720833332,64.0,106.0
241,186.75326104791665,187.58031502916666,64.0,109.0
242,187.98613654791666,188.24641026458332,60.0,115.0
243,188.39709504791665,188.83373845416668,64.0,112.0
244,189.01353279791667,189.1693545625,67.0,109.0
245,189.21901204791666,189.47243645625,71.0,112.0
246,189.48442274583334,189.68134036041667,67.0,106.0
247,189.77380602291666,189.95531269375,64.0,109.0
248,190.11284678541665,190.37312050208334,71.0,104.0
249,190.41079169791666,190.5460655375,67.0,106.0
250,190.62483258333333,190.76353107708334,64.0,106.0
251,190.86284604791666,191.14366768958334,67.0,112.0
252,191.27380454791665,191.58202342291668,67.0,112.0
253,191.68476304791668,191.93476280208333,67.0,109.0
254,192.09572154791667,192.33887199375,69.0,112.0
255,192.50668004791666,193.73613089375,69.0,118.0
256,194.15051404791666,194.42277405416667,69.0,115.0
257,194.56147254791665,194.67106148125,69.0,112.0
258,194.76695179791668,195.261814325,69.0,115.0
259,195.38338954791666,195.65393722708333,71.0,112.0
260,195.79434804791666,197.4912641875,71.0,112.0
261,214.28748054791666,214.58028847916665,71.0,109.0
262,214.69843904791665,214.99124697916665,71.0,112.0
263,215.10939754791667,215.40220547916667,72.0,104.0
264,215.52035604791666,215.81487630625,71.0,112.0
265,215.93131454791666,216.16761568541665,69.0,109.0
266,216.34227304791665,216.61795770833334,67.0,112.0
267,216.75323154791667,217.04775180625,66.0,113.0
268,217.16419004791666,219.71555740208333,67.0,106.0
269,220.86281654791665,221.14535051666667,67.0,115.0
270,221.27377504791667,221.54774738125,67.0,106.0
271,221.68473354791666,221.91589770416667,69.0,109.0
272,222.09569204791666,222.36795205416666,66.0,120.0
273,222.50665054791665,222.71384212499999,64.0,112.0
274,222.91760904791664,223.1556225125,62.0,115.0
275,223.32856754791666,223.58884126458332,57.0,112.0
276,223.73952604791666,226.96041329166667,59.0,109.0
277,227.43815254791667,227.72924815208333,71.0,112.0
278,227.84911104791667,228.11965872708333,71.0,109.0
279,228.26006954791666,228.5391788625,72.0,104.0
280,228.67102804791665,229.0032195020833,71.0,112.0
281,229.08198654791664,229.25493158333333,69.0,99.0
282,229.49294504791666,230.08198556458333,69.0,112.0
283,230.72582054791667,230.99636822708334,67.0,112.0
284,231.13677904791666,231.39705276458332,69.0,115.0
285,231.54773754791665,231.81143591875,71.0,115.0
286,231.95869604791665,232.32684637083332,67.0,109.0
287,232.36965454791667,232.64533920833333,64.0,106.0
288,232.78061304791666,233.60766702916666,64.0,109.0
289,234.01348854791667,234.27376226458333,60.0,115.0
290,234.42444704791666,234.86109045416666,64.0,112.0
291,235.04088479791665,235.1967065625,67.0,109.0
292,235.24636404791664,235.49978845625,71.0,112.0
293,235.51177474583332,235.70869236041665,67.0,106.0
294,235.80115802291667,235.98266469375,64.0,109.0
295,236.14019878541666,236.40047250208332,71.0,104.0
296,236.43814369791664,236.5734175375,67.0,106.0
297,236.65218458333334,236.79088307708332,64.0,106.0
298,236.89019804791667,237.17101968958332,67.0,112.0
299,237.30115654791666,237.60937542291666,67.0,112.0
300,237.71211504791665,237.96211480208333,67.0,109.0
301,238.53403204791667,239.21211357291665,68.0,120.0
302,239.35594904791665,240.18985233749999,70.0,123.0
303,240.58882454791666,240.88163247916665,72.0,109.0
304,240.99978304791665,241.29259097916665,72.0,112.0
305,241.41074154791664,241.70354947916667,73.0,104.0
306,241.82170004791666,242.11622030625,72.0,112.0
307,242.23265854791666,242.46895968541665,70.0,109.0
308,242.64361704791665,242.9193017083333,68.0,112.0
309,243.05457554791667,243.34909580624998,67.0,113.0
310,243.46553404791666,246.0169014020833,68.0,106.0
311,247.16416054791665,247.44669451666664,68.0,115.0
312,247.57511904791664,247.84909138125,68.0,106.0
313,247.98607754791664,248.21724170416667,70.0,109.0
314,248.39703604791666,248.66929605416664,67.0,120.0
315,248.80799454791665,249.01518612499999,65.0,112.0
316,249.21895304791667,249.4569665125,63.0,115.0
317,249.62991154791666,249.89018526458332,58.0,112.0
318,250.04087004791666,253.26175729166664,60.0,109.0
319,253.73949654791664,254.03059215208333,72.0,112.0
320,254.15045504791664,254.4210027270833,72.0,109.0
321,254.56141354791666,254.8405228625,73.0,104.0
322,254.97237204791665,255.30456350208334,72.0,112.0
323,255.38333054791667,255.55627558333333,70.0,99.0
324,255.79428904791666,256.38332956458333,70.0,112.0
325,257.02716454791664,257.2977122270833,68.0,112.0
326,257.43812304791663,257.6983967645833,70.0,115.0
327,257.8490815479166,258.11277991875,72.0,115.0
328,258.2600400479167,258.6281903708333,68.0,109.0
329,258.67099854791667,258.9466832083333,65.0,106.0
330,259.08195704791666,259.90901102916666,65.0,109.0
331,260.31483254791664,260.5751062645833,61.0,115.0
332,260.7257910479167,261.16243445416666,65.0,112.0
333,261.3422287979167,261.4980505625,68.0,109.0
334,261.5477080479167,261.80113245625,72.0,112.0
335,261.8131187458333,262.0100363604166,68.0,106.0
336,262.10250202291667,262.28400869374997,65.0,109.0
337,262.4415427854167,262.7018165020833,72.0,104.0
338,262.7394876979167,262.8747615375,68.0,106.0
339,262.9535285833333,263.0922270770833,65.0,106.0
340,263.19154204791664,263.4723636895833,68.0,112.0
341,263.60250054791663,263.91071942291666,68.0,112.0
342,264.0134590479166,264.26345880208333,68.0,109.0
343,264.83537604791667,265.12133467083333,68.0,120.0
344,265.24633454791666,265.5083205916667,68.0,117.0
345,265.65729304791665,267.8165375,68.0,117.0
346,268.0853728520833,268.69324896666666,72.0,104.0
347,268.66585173333334,268.91927614166667,70.0,110.0
348,268.9124268333333,271.2754382083333,68.0,107.0
