,start,end,pitch,velocity
0,1.546872525,2.074649458333333,60.0,87.0
1,1.546872525,2.0763855666666666,64.0,96.0
2,1.963538525,2.4357599916666666,55.0,62.0
3,2.380204525,2.855898208333333,62.0,104.0
4,2.7968705249999997,3.2968697249999996,55.0,58.0
5,3.213536525,3.8732576916666663,60.0,96.0
6,3.213536525,4.081590691666666,67.0,101.0
7,3.6302025249999996,4.130201725,55.0,69.0
8,4.046868525,4.184021083333334,64.0,91.0
9,4.046868525,4.21874325,60.0,94.0
10,1.546872525,4.248257091666667,48.0,99.0
11,4.880200524999999,5.404505241666667,59.0,89.0
12,5.2968665249999995,5.727421391666667,50.0,71.0
13,4.880200524999999,6.005198725,62.0,104.0
14,5.713532525,6.1840178833333335,59.0,85.0
15,6.130198525,6.541656199999999,50.0,46.0
16,6.546864524999999,6.960058308333333,71.0,99.0
17,6.546864524999999,6.9791555,62.0,104.0
18,6.546864524999999,7.015613774999999,59.0,99.0
19,6.9635305249999995,7.435751991666666,50.0,66.0
20,4.880200524999999,7.583321199999999,43.0,101.0
21,7.380196525,7.628460016666667,59.0,99.0
22,7.380196525,7.819431933333333,62.0,104.0
23,7.796862525,8.013876066666667,59.0,101.0
24,7.380196525,8.017348283333334,66.0,110.0
25,8.213528525,8.807277574999999,60.0,96.0
26,8.213528525,9.0208189,64.0,96.0
27,9.046860525,9.565956916666666,60.0,106.0
28,9.463526524999999,9.682276175,64.0,89.0
29,8.630194525,9.80206765,55.0,76.0
30,9.880192525,10.423594433333333,67.0,101.0
31,9.880192525,10.4374833,64.0,101.0
32,9.880192525,10.506927633333333,60.0,85.0
33,10.296858525,10.715260633333333,55.0,25.0
34,8.213528525,10.807274374999999,48.0,99.0
35,10.713524524999999,10.86456595,64.0,109.0
36,10.713524524999999,10.892343683333333,60.0,104.0
37,11.546856524999999,12.105883491666667,60.0,94.0
38,11.546856524999999,12.440451612499999,64.0,99.0
39,11.975448891666666,12.853862925,57.0,87.0
40,11.546856524999999,12.885112925,50.0,106.0
41,12.4177243625,12.924175425,60.0,104.0
42,12.881206675,13.0159723,64.0,106.0
43,13.197482716666666,17.19270600625,50.0,96.0
44,13.337066049999999,17.194466566666666,57.0,89.0
45,13.50013423125,17.212072170833334,66.0,93.0
46,13.445399383333333,17.247283379166667,62.0,51.0
47,17.381085970833333,17.88223441875,60.0,85.0
48,17.381085970833333,18.29890041875,67.0,99.0
49,17.79890121875,18.607927702083334,55.0,80.0
50,17.381085970833333,18.68431646875,48.0,99.0
51,18.21556721875,18.760705235416665,60.0,94.0
52,18.63223321875,19.094038035416666,67.0,104.0
53,19.04889921875,19.92910614375,66.0,99.0
54,19.04889921875,20.029800427083334,50.0,101.0
55,19.46556521875,20.029800427083334,57.0,85.0
56,19.88223121875,20.30931386875,62.0,101.0
57,20.71556321875,21.344034435416667,59.0,82.0
58,21.13222921875,21.614867335416665,54.0,58.0
59,20.71556321875,21.66521447708333,62.0,96.0
60,21.548895218749998,23.349239560416667,59.0,104.0
61,23.21555921875,23.44993384375,54.0,58.0
62,21.96556121875,23.60097526875,62.0,101.0
63,20.71556321875,23.60618359375,47.0,62.0
64,23.63222521875,23.811044377083334,59.0,106.0
65,24.04889121875,24.609654210416664,57.0,99.0
66,24.04889121875,24.936042577083334,60.0,96.0
67,24.46555721875,25.09576454375,52.0,32.0
68,24.04889121875,25.340555818749998,45.0,104.0
69,24.88222321875,25.380486310416664,57.0,96.0
70,25.29888921875,25.732916302083332,60.0,87.0
71,25.715555218749998,25.97249925208333,57.0,101.0
72,25.715555218749998,26.165207277083333,62.0,101.0
73,26.132221218749997,26.96208100208333,57.0,91.0
74,26.54888721875,26.979442085416665,66.0,107.0
75,25.715555218749998,27.258955527083334,50.0,99.0
76,27.38221921875,28.019370977083334,59.0,91.0
77,27.38221921875,28.26763446875,55.0,89.0
78,28.21555121875,28.63221721875,57.0,101.0
79,28.63221721875,28.984647210416668,59.0,96.0
80,27.79888521875,29.219021835416665,50.0,74.0
81,29.04888321875,29.640896160416666,55.0,104.0
82,29.04888321875,29.69471551875,62.0,106.0
83,29.46554921875,30.01242334375,50.0,76.0
84,27.38221921875,30.071451027083334,43.0,101.0
85,29.882215218749998,30.15304811875,55.0,106.0
86,29.882215218749998,30.179089743749998,59.0,104.0
87,30.715547218749997,31.281518535416666,60.0,87.0
88,30.715547218749997,31.567976410416666,64.0,91.0
89,30.715547218749997,31.781517735416664,48.0,99.0
90,31.13221321875,31.82492044375,55.0,51.0
91,31.54887921875,32.008947927083334,60.0,96.0
92,31.96554521875,32.31797521041666,64.0,101.0
93,32.38221121875,32.93255756041667,62.0,104.0
94,32.38221121875,33.26589036041666,66.0,107.0
95,32.38221121875,33.474223360416666,50.0,106.0
96,32.79887721875,33.47769557708333,57.0,76.0
97,33.21554321875,33.67908414375,62.0,104.0
98,33.63220921875,33.778042318749996,66.0,117.0
99,34.04887521875,34.70859638541667,59.0,94.0
100,34.04887521875,34.946443227083336,62.0,104.0
101,34.46554121875,35.024568102083336,54.0,63.0
102,34.04887521875,35.12352627708333,47.0,99.0
103,34.88220721875,35.36831755208333,59.0,96.0
104,35.715539218749996,35.83880291041666,40.0,87.0
105,35.715539218749996,35.998524877083334,59.0,87.0
106,35.715539218749996,36.481162993750004,64.0,87.0
107,36.548871218749994,36.83012076875,59.0,85.0
108,36.13220521875,36.84574574375,52.0,52.0
109,36.96553721875,37.06623150208333,64.0,112.0
110,37.38220321875,37.937757885416666,55.0,94.0
111,37.38220321875,38.36310442708333,60.0,82.0
112,37.79886921875,38.666923385416666,52.0,67.0
113,38.63220121875,39.626991293749995,60.0,101.0
114,38.21553521875,39.64608848541667,55.0,91.0
115,37.38220321875,39.92039360208334,45.0,104.0
116,39.88219921875,40.114837735416664,55.0,106.0
117,39.88219921875,40.192962610416664,60.0,104.0
118,40.71553121875,41.188050535416664,62.0,96.0
119,40.71553121875,41.250550472916665,66.0,101.0
120,41.570193010416666,42.23804948541667,62.0,99.0
121,42.42733501041666,42.55362455625,62.0,64.0
122,41.14162201041667,42.65431883958333,57.0,82.0
123,41.998764010416664,42.92167952291667,69.0,101.0
124,42.42733501041666,43.08313759791667,74.0,109.0
125,40.71553121875,43.39390098958333,50.0,106.0
126,43.263692864583334,43.43730369791667,62.0,104.0
127,43.263692864583334,43.62306728958333,66.0,110.0
128,43.263692864583334,43.702928272916665,69.0,106.0
129,43.68035886458333,43.82619196458333,62.0,73.0
130,44.09702486458333,44.687301697916666,64.0,99.0
131,44.09702486458333,44.74112105625,60.0,94.0
132,44.93035686458333,45.097023264583335,60.0,96.0
133,45.34702286458333,45.44771714791666,60.0,56.0
134,44.51369086458333,45.50153650625,55.0,61.0
135,44.93035686458333,45.56577251458333,64.0,101.0
136,44.93035686458333,45.58660581458333,67.0,101.0
137,44.09702486458333,45.782786056249996,48.0,99.0
138,45.76368886458333,46.46681273958333,60.0,87.0
139,45.76368886458333,46.49979879791667,64.0,99.0
140,46.597020864583335,46.97028415625,60.0,109.0
141,46.597020864583335,47.01715908125,64.0,112.0
142,47.430352864583334,48.017157481249995,59.0,89.0
143,47.430352864583334,48.04146299791667,62.0,104.0
144,48.26368486458333,48.414726289583335,59.0,106.0
145,47.84701886458333,48.44076791458333,54.0,50.0
146,47.430352864583334,48.583128797916665,47.0,96.0
147,48.26368486458333,48.67167032291667,62.0,109.0
148,48.26368486458333,48.75153130625,66.0,113.0
149,49.09701686458333,49.61090493125,59.0,99.0
150,49.09701686458333,49.94597383958333,67.0,101.0
151,49.09701686458333,49.95986270625,64.0,101.0
152,49.09701686458333,50.317501022916666,52.0,99.0
153,49.722015864583334,50.35048708125,55.0,9.0
154,49.93034886458333,50.42687584791666,59.0,112.0
155,50.34701486458333,50.47027855625,67.0,109.0
156,50.763680864583336,51.28104114791667,55.0,104.0
157,50.763680864583336,51.60222118958333,60.0,99.0
158,51.18034686458333,51.694234931249994,52.0,71.0
159,50.763680864583336,51.72027655625,45.0,104.0
160,51.597012864583334,52.04666492291666,55.0,115.0
161,52.01367886458333,52.246317381249995,60.0,101.0
162,52.43034486458333,53.05360775625,62.0,99.0
163,52.43034486458333,53.12305208958333,66.0,101.0
164,52.84701086458333,53.31749622291667,57.0,87.0
165,52.43034486458333,53.36957947291667,50.0,109.0
166,53.26367686458333,53.46853764791666,66.0,117.0
167,53.26367686458333,53.54492641458333,62.0,109.0
168,54.09700886458333,54.65429963958333,62.0,99.0
169,54.09700886458333,54.786243872916664,67.0,96.0
170,54.93034086458333,55.416451197916665,62.0,104.0
171,54.51367486458333,55.47547888125,50.0,62.0
172,55.347006864583335,55.50672883125,69.0,104.0
173,54.09700886458333,55.56922873125,43.0,101.0
174,55.763672864583334,56.41818570625,62.0,106.0
175,56.180338864583334,56.83311559791667,50.0,66.0
176,55.763672864583334,56.86957387291666,43.0,104.0
177,56.59700486458333,56.94596263958333,67.0,109.0
178,56.59700486458333,56.973740372916666,62.0,112.0
179,55.763672864583334,56.98068480625,71.0,104.0
180,57.43033686458333,57.975474881249994,64.0,99.0
181,57.43033686458333,58.03797478125,60.0,94.0
182,57.84700286458333,58.38693255625,55.0,78.0
183,58.26366886458333,58.416446397916665,60.0,109.0
184,57.43033686458333,58.45637688958333,48.0,101.0
185,58.26366886458333,58.65776545625,64.0,112.0
186,58.26366886458333,59.14908411458333,67.0,106.0
187,59.097000864583336,59.55533346458333,62.0,99.0
188,59.097000864583336,59.95637448958333,66.0,110.0
189,59.097000864583336,60.020610497916664,50.0,104.0
190,59.51366686458333,60.02929103958333,57.0,91.0
191,59.930332864583335,60.23588793125,62.0,112.0
192,60.76366486458333,61.33658061458333,62.0,106.0
193,60.76366486458333,61.379983322916665,57.0,106.0
194,61.18033086458333,61.70289947291667,54.0,27.0
195,60.76366486458333,61.748038289583334,47.0,96.0
196,61.59699686458333,61.791440997916666,57.0,99.0
197,61.59699686458333,61.85220478958333,62.0,112.0
198,61.59699686458333,61.91991301458333,66.0,117.0
199,62.43032886458333,62.98067520625,62.0,104.0
200,62.43032886458333,63.05880008125,67.0,101.0
201,62.84699486458333,63.38518844791666,59.0,89.0
202,62.43032886458333,63.45116056458333,52.0,106.0
203,63.26366086458333,63.713312922916664,67.0,109.0
204,63.26366086458333,63.72372957291667,71.0,106.0
205,63.680326864583336,63.81574331458333,64.0,104.0
206,64.09699286458333,64.68379748125,60.0,96.0
207,64.09699286458333,64.69595023958334,55.0,99.0
208,64.51365886458333,64.99456087291667,52.0,69.0
209,64.09699286458333,65.05011633958333,45.0,104.0
210,64.93032486458333,65.10914402291667,55.0,115.0
211,64.93032486458333,65.16296338125,60.0,112.0
212,65.76365686458334,66.37129478125,64.0,104.0
213,65.76365686458334,66.40948916458333,60.0,104.0
214,65.76365686458334,66.42511413958333,57.0,106.0
215,65.76365686458334,66.61782216458333,42.0,107.0
216,66.59698886458332,66.81400240625,57.0,109.0
217,66.59698886458332,66.81921073125,60.0,106.0
218,66.59698886458332,66.84351624791667,64.0,106.0
219,67.43032086458334,67.98761163958333,63.0,113.0
220,67.43032086458334,68.02059769791666,59.0,101.0
221,67.84698686458333,68.34524995625,54.0,68.0
222,68.26365286458334,68.62302728958333,64.0,112.0
223,68.26365286458334,68.64212448125,59.0,109.0
224,67.43032086458334,68.86434634791667,47.0,104.0
225,68.68031886458333,69.05010993958334,54.0,77.0
226,69.09698486458333,69.52255788958333,66.0,104.0
227,69.09698486458333,69.54973176458333,63.0,110.0
228,69.09698486458333,69.77231053541665,59.0,104.0
229,69.52074629791666,70.06208297291666,54.0,36.0
230,69.96738609791666,70.09427991041666,59.0,101.0
231,69.09698486458333,70.56183422708332,47.0,104.0
232,69.96738609791666,71.00165241874998,63.0,120.0
233,69.96738609791666,71.01261731458332,66.0,113.0
234,70.43683429791666,71.04331902291666,59.0,96.0
235,70.95121389791666,71.04331902291666,59.0,94.0
236,69.96738609791666,71.07182775208332,71.0,96.0
237,70.95121389791666,71.48493016458333,62.0,104.0
238,70.95121389791666,71.52138843958333,55.0,96.0
239,71.39986085624999,71.95541552291667,50.0,50.0
240,71.81652685625,72.06131813124999,55.0,112.0
241,71.81652685625,72.07347088958333,59.0,115.0
242,70.95121389791666,72.14638743958332,43.0,101.0
243,71.81652685625,72.15159576458333,62.0,112.0
244,72.64985885624999,72.95888613958333,57.0,106.0
245,72.64985885624999,73.19152465625,60.0,101.0
246,73.06652485625,73.33735775624999,57.0,101.0
247,72.64985885624999,73.59430178958333,42.0,113.0
248,73.48319085624999,73.64117671458332,57.0,106.0
249,73.48319085624999,73.96756508124999,60.0,106.0
250,73.48319085624999,73.99881503124999,64.0,101.0
251,74.31652285624999,74.79395264791665,55.0,101.0
252,74.31652285624999,74.94499407291666,52.0,94.0
253,74.73318885625,75.16547983125,47.0,34.0
254,75.14985485624999,75.34256288124999,59.0,104.0
255,75.14985485624999,75.35297953125,55.0,112.0
256,74.31652285624999,75.50054873958332,40.0,101.0
257,75.56652085625,76.04047843125,52.0,47.0
258,75.98318685625,76.39638063958333,55.0,109.0
259,75.98318685625,76.42068615625,64.0,106.0
260,75.98318685625,76.44151945624999,59.0,109.0
261,76.81651885625,77.24707372291667,55.0,109.0
262,76.81651885625,77.26269869791666,40.0,99.0
263,76.81651885625,77.30610140625,59.0,106.0
264,77.23318485624999,77.33735135625,52.0,104.0
265,77.64985085625,78.21582217291666,55.0,104.0
266,77.64985085625,78.21929438958333,60.0,99.0
267,78.48318285625,78.59602989791667,55.0,112.0
268,77.64985085625,78.60471043958333,48.0,106.0
269,78.06651685624999,78.60644654791666,52.0,76.0
270,78.48318285625,78.94151545624999,60.0,109.0
271,78.89984885624999,79.02311254791665,55.0,99.0
272,78.48318285625,79.04568195625,64.0,106.0
273,79.31651485625,79.55609780625,57.0,99.0
274,79.31651485625,79.90852779791666,62.0,99.0
275,79.73318085624999,79.91720833958333,57.0,91.0
276,79.31651485625,80.20887453958332,50.0,104.0
277,80.14984685625,80.28526330624999,57.0,109.0
278,80.14984685625,80.45192970625,66.0,117.0
279,80.14984685625,80.48144354791665,62.0,112.0
280,80.98317885624999,81.50053913958332,55.0,104.0
281,80.98317885624999,81.52658076458333,59.0,109.0
282,81.39984485625,81.87553853958333,50.0,74.0
283,81.81651085624999,82.00574666458333,55.0,112.0
284,81.81651085624999,82.19151025625,59.0,115.0
285,80.98317885624999,82.20539912291666,43.0,104.0
286,82.23317685625,82.50227364791667,55.0,106.0
287,81.81651085624999,82.53873192291665,62.0,112.0
288,82.64984285624999,83.22102249791666,55.0,112.0
289,82.64984285624999,83.34949451458333,60.0,109.0
290,83.48317485624999,83.93629913125,59.0,112.0
291,83.48317485624999,83.94324356458333,55.0,112.0
292,83.06650885625,84.00053513958332,43.0,99.0
293,83.89984085625,84.02831287291666,50.0,87.0
294,84.31650685624999,84.61685359791666,57.0,106.0
295,84.31650685624999,84.80088108125,60.0,109.0
296,84.73317285625,84.99011688958333,57.0,106.0
297,84.31650685624999,85.28004698125,42.0,117.0
298,85.14983885625,85.33560244791666,57.0,115.0
299,85.14983885625,85.49532441458332,60.0,115.0
300,85.14983885625,85.56650485624999,64.0,112.0
301,85.98317085625,86.52657276458332,63.0,113.0
302,85.98317085625,86.52830887291665,59.0,106.0
303,86.39983685624999,86.86858610624999,54.0,81.0
304,85.98317085625,86.91372492291666,47.0,104.0
305,86.81650285625,87.05608580625,59.0,109.0
306,86.81650285625,87.11337738124999,66.0,117.0
307,86.81650285625,87.12553013958333,63.0,120.0
308,87.23316885624999,87.33039092291666,47.0,89.0
309,87.64983485625,88.00052873958333,64.0,104.0
310,87.64983485625,88.03525090624998,67.0,106.0
311,87.64983485625,88.24011168958333,52.0,104.0
312,88.06650085624999,88.38420868124999,59.0,82.0
313,88.48316685625,88.82170798125,66.0,110.0
314,88.48316685625,88.82691630624998,62.0,106.0
315,88.48316685625,89.00573546458332,50.0,104.0
316,88.89983285624999,89.00920768124999,57.0,34.0
317,89.31649885624999,89.80781751458332,64.0,106.0
318,89.31649885624999,90.02309494791666,61.0,104.0
319,90.14983085624999,90.54913577291666,64.0,104.0
320,90.14983085624999,90.57170518125,61.0,99.0
321,90.14983085624999,90.67587168124999,67.0,104.0
322,89.31649885624999,90.68455222291666,49.0,101.0
323,90.98316285624999,91.60121742291666,57.0,96.0
324,90.98316285624999,91.64114791458333,60.0,96.0
325,91.39982885625,91.88073086458333,52.0,64.0
326,91.81649485624999,92.24357750624999,60.0,101.0
327,90.98316285624999,92.38941060625,45.0,106.0
328,91.81649485624999,92.40677168958332,57.0,106.0
329,92.64982685624999,93.06302063958333,64.0,101.0
330,92.64982685624999,93.11336778124999,60.0,104.0
331,93.48315885624999,93.67239466458332,57.0,115.0
332,93.48315885624999,93.89635263958333,60.0,112.0
333,93.48315885624999,93.91544983124999,64.0,109.0
334,93.89982485624999,94.06475514791666,57.0,96.0
335,94.31649085625,94.40503238125,38.0,106.0
336,94.31649085625,94.61162927291666,57.0,104.0
337,94.31649085625,94.68975414791666,62.0,106.0
338,95.35815585625,95.66371092291666,62.0,115.0
339,95.56648885624999,95.79912735416666,66.0,120.0
340,95.14982285625,95.82118612916665,57.0,115.0
341,94.73315685624999,95.87449483541666,50.0,96.0
342,95.77523034791666,95.89287714791665,69.0,106.0
343,95.99581809791665,96.07486204166665,38.0,106.0
344,95.99581809791665,96.33014660416666,57.0,106.0
345,95.99581809791665,96.34967785416666,62.0,109.0
346,96.44928722916666,96.66618015833332,50.0,99.0
347,96.93052427083333,97.83712719166667,57.0,106.0
348,96.93052427083333,97.84136447499999,66.0,120.0
349,96.93052427083333,97.84136447499999,69.0,109.0
350,96.93052427083333,97.84348311666666,62.0,109.0
351,96.93052427083333,97.8477204,50.0,106.0
352,97.91763557499999,98.44703484166666,62.0,104.0
353,97.91763557499999,98.45730880416666,59.0,94.0
354,97.91763557499999,98.48299371041666,55.0,96.0
355,98.36313081458333,98.91107548125,50.0,50.0
356,97.91763557499999,99.09943146041667,43.0,101.0
357,98.77408931458334,99.50354065208333,55.0,112.0
358,98.77408931458334,99.51381461458332,59.0,115.0
359,98.77408931458334,99.59258166041667,62.0,112.0
360,99.59600631458333,99.90080053541666,57.0,106.0
361,99.59600631458333,100.13025236458333,60.0,101.0
362,100.00696481458333,100.27408783958333,57.0,101.0
363,99.59600631458333,100.52751224791666,42.0,113.0
364,100.41792331458333,100.57374507916667,57.0,106.0
365,100.41792331458333,100.89566257083334,60.0,106.0
366,100.41792331458333,100.92648445833333,64.0,101.0
367,101.23984031458333,101.7107302625,55.0,101.0
368,101.23984031458333,101.85970271875,52.0,94.0
369,101.65079881458333,102.07716825833333,47.0,34.0
370,102.06175731458333,102.25182562083333,59.0,104.0
371,102.06175731458333,102.26209958333334,55.0,112.0
372,101.23984031458333,102.40764738541667,40.0,101.0
373,102.47271581458332,102.94018110833333,52.0,47.0
374,102.88367431458333,103.29120816041666,55.0,109.0
375,102.88367431458333,103.31518073958333,64.0,106.0
376,102.88367431458333,103.33572866458333,59.0,109.0
377,103.70559131458333,104.13024843125,55.0,109.0
378,103.70559131458333,104.145659375,40.0,99.0
379,103.70559131458333,104.18846755208332,59.0,106.0
380,104.11654981458334,104.21928943958333,52.0,104.0
381,104.52750831458333,105.08572694374999,55.0,104.0
382,104.52750831458333,105.08915159791667,60.0,99.0
383,105.34942531458333,105.460726575,55.0,112.0
384,104.52750831458333,105.46928821041666,48.0,106.0
385,104.93846681458334,105.4710005375,52.0,76.0
386,105.34942531458333,105.80147966458333,60.0,109.0
387,105.76038381458334,105.8819590375,55.0,99.0
388,105.34942531458333,105.90421928958332,64.0,106.0
389,106.17134231458333,106.40764345208333,57.0,99.0
390,106.17134231458333,106.75524585,62.0,99.0
391,106.58230081458333,106.76380748541666,57.0,91.0
392,106.17134231458333,107.05147843541667,50.0,104.0
393,106.99325931458333,107.12682082708334,57.0,109.0
394,106.99325931458333,107.29120422708333,66.0,117.0
395,106.99325931458333,107.3203137875,62.0,112.0
396,107.81517631458333,108.32544978541667,55.0,104.0
397,107.81517631458333,108.35113469166666,59.0,109.0
398,108.22613481458333,108.69531243541667,50.0,74.0
399,108.63709331458332,108.82373696666666,55.0,112.0
400,108.63709331458332,109.00695596458333,59.0,115.0
401,107.81517631458333,109.02065458125,43.0,104.0
402,109.04805181458333,109.3134625125,55.0,106.0
403,108.63709331458332,109.34942138125,62.0,112.0
404,109.45901031458332,110.022365925,55.0,112.0
405,109.45901031458332,110.14907812916667,60.0,109.0
406,110.28092731458332,110.72784468333333,59.0,112.0
407,110.28092731458332,110.73469399166666,55.0,112.0
408,109.86996881458333,110.79120078541666,43.0,99.0
409,110.69188581458333,110.81859801875,50.0,87.0
410,111.10284431458334,111.3990769,57.0,106.0
411,111.10284431458334,111.58058357083333,60.0,109.0
412,111.51380281458333,111.76722722291666,57.0,106.0
413,111.10284431458334,112.05318584583333,42.0,117.0
414,111.92476131458334,112.10798031249999,57.0,115.0
415,111.92476131458334,112.26551440416667,60.0,115.0
416,111.92476131458334,112.33571981458333,64.0,112.0
417,112.74667831458333,113.28263669166667,63.0,113.0
418,112.74667831458333,113.28434901874999,59.0,106.0
419,113.15763681458333,113.61996512708333,54.0,81.0
420,112.74667831458333,113.66448563124999,47.0,104.0
421,113.56859531458333,113.80489645208333,59.0,109.0
422,113.56859531458333,113.86140324583333,66.0,117.0
423,113.56859531458333,113.87338953541666,63.0,120.0
424,113.97955381458333,114.07544413125,47.0,89.0
425,114.39051231458333,114.73640238541667,64.0,104.0
426,114.39051231458333,114.77064892708333,67.0,106.0
427,114.39051231458333,114.97270352291666,52.0,104.0
428,114.80147081458333,115.11482667083332,59.0,82.0
429,115.21242931458333,115.54633309583333,66.0,110.0
430,115.21242931458333,115.55147007708334,62.0,106.0
431,115.21242931458333,115.72783976666666,50.0,104.0
432,115.62338781458332,115.73126442083333,57.0,34.0
433,116.03434631458333,116.51893487916666,64.0,106.0
434,116.03434631458333,116.73126343749999,61.0,104.0
435,116.85626331458333,117.25009854375,64.0,104.0
436,116.85626331458333,117.27235879583333,61.0,99.0
437,116.85626331458333,117.37509842083333,67.0,104.0
438,116.03434631458333,117.38366005625,49.0,101.0
439,117.67818031458333,118.28776875624999,57.0,96.0
440,117.67818031458333,118.32715227916665,60.0,96.0
441,118.08913881458332,118.56345341666666,52.0,64.0
442,118.50009731458333,118.92132977708333,60.0,101.0
443,117.67818031458333,119.06516525208333,45.0,106.0
444,118.50009731458333,119.08228852291666,57.0,106.0
445,119.32201431458333,119.72954816041667,64.0,101.0
446,119.32201431458333,119.77920564583333,60.0,104.0
447,120.14393131458333,120.33057496666666,57.0,115.0
448,120.14393131458333,120.55146516041665,60.0,112.0
449,120.14393131458333,120.57030075833333,64.0,109.0
450,120.55488981458333,120.7175608875,57.0,96.0
451,120.96584831458333,121.05317699583333,38.0,106.0
452,120.96584831458333,121.25694391875,57.0,104.0
453,120.96584831458333,121.3339986375,62.0,106.0
454,121.99324456458334,122.29461413125,62.0,115.0
455,122.19872381458333,122.42646331666666,66.0,120.0
456,121.78776531458332,122.44701124166666,57.0,115.0
457,121.37680681458333,122.49666872708333,50.0,96.0
458,122.40420306458333,122.51379199791666,69.0,106.0
459,122.60968231458332,123.953859075,38.0,104.0
460,122.60968231458332,124.54289959166667,62.0,104.0
461,122.60968231458332,124.56173518958333,66.0,104.0
462,122.60968231458332,124.59084475,69.0,104.0
463,125.89735031458332,126.56173322291666,60.0,94.0
464,126.30830881458333,126.81686995833333,55.0,69.0
465,125.89735031458332,126.84940417291666,64.0,101.0
466,126.71926731458333,127.25351336458333,60.0,106.0
467,127.13022581458333,127.68844444375,55.0,55.0
468,127.54118431458332,127.90077300208333,60.0,94.0
469,125.89735031458332,127.95727979583333,48.0,104.0
470,127.54118431458332,128.29803288541666,67.0,96.0
471,128.36310131458333,128.63707364791665,66.0,104.0
472,128.36310131458333,128.67474484375,62.0,104.0
473,128.36310131458333,128.71584069374998,50.0,99.0
474,129.18501831458332,129.71926436458332,59.0,94.0
475,129.59597681458334,130.0565928,54.0,49.0
476,129.18501831458332,130.06001745416665,62.0,101.0
477,130.00693531458333,130.50522249583332,59.0,96.0
478,130.41789381458332,130.89563307083333,54.0,39.0
479,130.82885231458334,131.55145434374998,66.0,117.0
480,131.23981081458334,131.60624881041667,54.0,44.0
481,129.18501831458332,131.7004268,47.0,96.0
482,131.65076931458333,131.81515271458332,62.0,109.0
483,131.65076931458333,131.83056365833332,59.0,109.0
484,132.4726863145833,132.56172732291665,40.0,101.0
485,132.4726863145833,132.70898745208333,59.0,99.0
486,132.4726863145833,132.84939827291666,64.0,101.0
487,133.29460331458333,134.28432836874998,59.0,106.0
488,133.70556181458332,134.37508170416666,64.0,112.0
489,132.88364481458333,134.67473894375,52.0,80.0
490,134.11652031458334,134.85795794166665,67.0,112.0
491,134.52747881458333,134.9059031,59.0,82.0
492,134.93843731458333,135.16446448958334,50.0,78.0
493,134.93843731458333,135.16617681666665,66.0,104.0
494,134.93843731458333,135.21412197499998,62.0,109.0
495,135.7603543145833,136.35624413958334,64.0,104.0
496,135.7603543145833,136.899051825,60.0,99.0
497,136.99322981458332,137.25179120416666,62.0,106.0
498,136.58227131458332,139.73809012916666,55.0,96.0
499,135.7603543145833,141.09939016041665,36.0,96.0
500,136.17131281458333,141.09939016041665,48.0,51.0
501,137.40418831458334,141.30486941041664,60.0,96.0
502,137.40418831458334,141.30486941041664,67.0,99.0
503,141.51377331458332,142.09596452291666,64.0,99.0
504,141.51377331458332,142.14904666249998,60.0,94.0
505,142.33569031458333,142.50007371458332,60.0,96.0
506,142.74664881458332,142.84596378541664,60.0,56.0
507,141.9247318145833,142.899045925,55.0,61.0
508,142.33569031458333,142.96240202708333,64.0,101.0
509,142.33569031458333,142.98294995208332,67.0,101.0
510,141.51377331458332,143.1764429125,48.0,99.0
511,143.15760731458332,143.85109978333332,60.0,87.0
512,143.15760731458332,143.88363399791666,64.0,99.0
513,143.97952431458333,144.3476746375,60.0,109.0
514,143.97952431458333,144.39390746875,64.0,112.0
515,144.80144131458331,145.38020786875,59.0,89.0
516,144.80144131458331,145.40418044791664,62.0,104.0
517,145.62335831458333,145.77233077083332,59.0,106.0
518,145.21239981458334,145.79801567708333,54.0,50.0
519,144.80144131458331,145.93842649791665,47.0,96.0
520,145.62335831458333,146.02575517916665,62.0,109.0
521,145.62335831458333,146.10452222499998,66.0,113.0
522,146.44527531458334,146.95212413125,59.0,99.0
523,146.44527531458334,147.28260325833332,67.0,101.0
524,146.44527531458334,147.29630187499998,64.0,101.0
525,146.44527531458334,147.64904125416666,52.0,99.0
526,147.06171306458333,147.68157546875,55.0,9.0
527,147.26719231458333,147.75691786041665,59.0,112.0
528,147.67815081458332,147.7997260375,67.0,109.0
529,148.0891093145833,148.59938278541665,55.0,104.0
530,148.0891093145833,148.91616329583331,60.0,99.0
531,148.50006781458333,149.00691663125,52.0,71.0
532,148.0891093145833,149.0326015375,45.0,104.0
533,148.91102631458332,149.35451902916665,55.0,115.0
534,149.32198481458332,149.55143664374998,60.0,101.0
535,149.73294331458334,150.3476687375,62.0,99.0
536,149.73294331458334,150.41616182083334,66.0,101.0
537,150.14390181458333,150.60794245416668,57.0,87.0
538,149.73294331458334,150.65931226666666,50.0,109.0
539,150.55486031458332,150.75691491041664,66.0,117.0
540,150.55486031458332,150.83225730208332,62.0,109.0
541,151.3767773145833,151.92643430833334,62.0,99.0
542,151.3767773145833,152.05657116666666,67.0,96.0
543,152.19869431458332,152.67814589791666,62.0,104.0
544,151.78773581458333,152.73636501875,50.0,62.0
545,152.60965281458334,152.76718690625,69.0,104.0
546,151.3767773145833,152.82883068125,43.0,101.0
547,153.02061131458333,153.66615862499998,62.0,106.0
548,153.43156981458333,154.07540479791666,50.0,66.0
549,153.02061131458333,154.11136366666665,43.0,104.0
550,153.84252831458332,154.18670605833333,67.0,109.0
551,153.84252831458332,154.21410329166667,62.0,112.0
552,153.02061131458333,154.22095259999998,71.0,104.0
553,154.66444531458333,155.20211601875,64.0,99.0
554,154.66444531458333,155.26375979374998,60.0,94.0
555,155.07540381458332,155.6079375375,55.0,78.0
556,155.48636231458332,155.63704709791665,60.0,109.0
557,154.66444531458333,155.67643062083332,48.0,101.0
558,155.48636231458332,155.87506056249998,64.0,112.0
559,155.48636231458332,156.35964912708332,67.0,106.0
560,156.30827931458333,156.76033366458333,62.0,99.0
561,156.30827931458333,157.15588122083332,66.0,110.0
562,156.30827931458333,157.21923732291665,50.0,104.0
563,156.71923781458332,157.22779895833332,57.0,91.0
564,157.13019631458332,157.43156588124998,62.0,112.0
565,157.95211331458333,158.51718125208333,62.0,106.0
566,157.95211331458333,158.55998942916665,57.0,106.0
567,158.36307181458332,158.87848226666665,54.0,27.0
568,157.95211331458333,158.9230027708333,47.0,96.0
569,158.7740303145833,158.96581094791665,57.0,99.0
570,158.7740303145833,159.02574239583333,62.0,112.0
571,158.7740303145833,159.09252315208332,66.0,117.0
572,159.59594731458333,160.138755,62.0,104.0
573,159.59594731458333,160.21580971875,67.0,101.0
574,160.00690581458332,160.53772721041665,59.0,89.0
575,159.59594731458333,160.60279563958332,52.0,106.0
576,160.4178643145833,160.86135702916664,67.0,109.0
577,160.4178643145833,160.87163099166665,71.0,106.0
578,160.82882281458333,160.96238432708333,64.0,104.0
579,161.23978131458333,161.81854786875,60.0,96.0
580,161.23978131458333,161.8305341583333,55.0,99.0
581,161.65073981458332,162.12505441666667,52.0,69.0
582,161.23978131458333,162.1798488833333,45.0,104.0
583,162.06169831458334,162.23806800416665,55.0,115.0
584,162.06169831458334,162.29115014374997,60.0,112.0
585,162.88361531458332,163.48292979374997,64.0,104.0
586,162.88361531458332,163.52060098958333,60.0,104.0
587,162.88361531458332,163.53601193333333,57.0,106.0
588,162.88361531458332,163.72608023958333,42.0,107.0
589,163.7055323145833,163.9195732,57.0,109.0
590,163.7055323145833,163.92471018125,60.0,106.0
591,163.7055323145833,163.94868276041666,64.0,106.0
592,164.52744931458332,165.07710630833333,63.0,113.0
593,164.52744931458332,165.10964052291666,59.0,101.0
594,164.93840781458334,165.4298456875,54.0,68.0
595,165.34936631458334,165.70381802083332,64.0,112.0
596,165.34936631458334,165.72265361874997,59.0,109.0
597,164.52744931458332,165.94183148541666,47.0,104.0
598,165.76032481458333,166.12505048333333,54.0,77.0
599,166.17128331458332,166.58395414166665,66.0,104.0
600,166.17128331458332,166.60963904791666,63.0,110.0
601,166.17128331458332,166.816830625,59.0,104.0
602,166.5822418145833,167.07881666875,54.0,36.0
603,166.9932003145833,167.10792622916665,59.0,101.0
604,166.17128331458332,167.50689843958332,47.0,104.0
605,166.9932003145833,167.85450083749998,63.0,120.0
606,166.9932003145833,167.86135014583334,66.0,113.0
607,167.40415881458333,167.88703505208332,59.0,96.0
608,167.81511731458332,167.88703505208332,59.0,94.0
609,166.9932003145833,167.90929530416668,71.0,96.0
610,167.81511731458332,168.31169216874997,62.0,104.0
611,167.81511731458332,168.34593871041665,55.0,96.0
612,168.22607581458334,168.77402048124998,50.0,50.0
613,168.63703431458333,168.87847243333334,55.0,112.0
614,168.63703431458333,168.89045872291666,59.0,115.0
615,167.81511731458332,168.96408878749997,43.0,101.0
616,168.63703431458333,168.96751344166665,62.0,112.0
617,169.45895131458332,169.76374553541666,57.0,106.0
618,169.45895131458332,169.99319736458332,60.0,101.0
619,169.8699098145833,170.13703283958333,57.0,101.0
620,169.45895131458332,170.39045724791666,42.0,113.0
621,170.2808683145833,170.43669007916665,57.0,106.0
622,170.2808683145833,170.7586075708333,60.0,106.0
623,170.2808683145833,170.7894294583333,64.0,101.0
624,171.10278531458331,171.5736752625,55.0,101.0
625,171.10278531458331,171.72264771874998,52.0,94.0
626,171.51374381458334,171.94011325833333,47.0,34.0
627,171.92470231458333,172.11477062083333,59.0,104.0
628,171.92470231458333,172.1250445833333,55.0,112.0
629,171.10278531458331,172.27059238541665,40.0,101.0
630,172.33566081458332,172.80312610833332,52.0,47.0
631,172.7466193145833,173.15415316041666,55.0,109.0
632,172.7466193145833,173.17812573958332,64.0,106.0
633,172.7466193145833,173.19867366458334,59.0,109.0
634,173.56853631458333,173.99319343125,55.0,109.0
635,173.56853631458333,174.008604375,40.0,99.0
636,173.56853631458333,174.05141255208332,59.0,106.0
637,173.97949481458332,174.08223443958332,52.0,104.0
638,174.39045331458334,174.94867194374999,55.0,104.0
639,174.39045331458334,174.95209659791664,60.0,99.0
640,175.21237031458332,175.323671575,55.0,112.0
641,174.39045331458334,175.33223321041666,48.0,106.0
642,174.80141181458333,175.33394553749997,52.0,76.0
643,175.21237031458332,175.66442466458332,60.0,109.0
644,175.62332881458332,175.7449040375,55.0,99.0
645,175.21237031458332,175.76716428958332,64.0,106.0
646,176.0342873145833,176.2705884520833,57.0,99.0
647,176.0342873145833,176.61819085,62.0,99.0
648,176.4452458145833,176.62675248541666,57.0,91.0
649,176.0342873145833,176.91442343541667,50.0,104.0
650,176.85620431458332,176.98976582708332,57.0,109.0
651,176.85620431458332,177.15414922708334,66.0,117.0
652,176.85620431458332,177.1832587875,62.0,112.0
653,177.67812131458334,178.18839478541665,55.0,104.0
654,177.67812131458334,178.21407969166665,59.0,109.0
655,178.08907981458333,178.55825743541664,50.0,74.0
656,178.50003831458332,178.68668196666664,55.0,112.0
657,178.50003831458332,178.86990096458334,59.0,115.0
658,177.67812131458334,178.88359958125,43.0,104.0
659,178.9109968145833,179.1764075125,55.0,106.0
660,178.50003831458332,179.21236638124998,62.0,112.0
661,179.3219553145833,179.89592225833331,55.0,112.0
662,179.3219553145833,180.02620372916667,60.0,109.0
663,180.16176688124997,180.62127314999998,59.0,112.0
664,180.16176688124997,180.62831539166666,55.0,112.0
665,179.73923238125,180.68641388541664,43.0,99.0
666,180.58430138125,180.7145828520833,50.0,87.0
667,180.99984204791667,181.29607463333332,57.0,106.0
668,180.99984204791667,181.47758130416668,60.0,109.0
669,181.41080054791666,181.66422495625,57.0,106.0
670,180.99984204791667,181.95018357916666,42.0,117.0
671,181.82175904791666,182.00497804583333,57.0,115.0
672,181.82175904791666,182.1625121375,60.0,115.0
673,181.82175904791666,182.23271754791668,64.0,112.0
674,182.64367604791667,183.179634425,63.0,113.0
675,182.64367604791667,183.18134675208333,59.0,106.0
676,183.05463454791666,183.51696286041667,54.0,81.0
677,182.64367604791667,183.56148336458332,47.0,104.0
678,183.46559304791666,183.70189418541668,59.0,109.0
679,183.46559304791666,183.75840097916665,66.0,117.0
680,183.46559304791666,183.77038726875,63.0,120.0
681,183.87655154791668,183.97244186458335,47.0,89.0
682,184.28751004791667,184.63340011875,64.0,104.0
683,184.28751004791667,184.66764666041666,67.0,106.0
684,184.28751004791667,184.86970125625,52.0,104.0
685,184.69846854791666,185.01182440416667,59.0,82.0
686,185.10942704791665,185.44333082916665,66.0,110.0
687,185.10942704791665,185.44846781041667,62.0,106.0
688,185.10942704791665,185.6248375,50.0,104.0
689,185.52038554791667,185.62826215416666,57.0,34.0
690,185.93134404791667,186.4159326125,64.0,106.0
691,185.93134404791667,186.62826117083333,61.0,104.0
692,186.75326104791665,187.14709627708334,64.0,104.0
693,186.75326104791665,187.16935652916666,61.0,99.0
694,186.75326104791665,187.27209615416666,67.0,104.0
695,185.93134404791667,187.28065778958333,49.0,101.0
696,187.57517804791667,188.18476648958332,57.0,96.0
697,187.57517804791667,188.2241500125,60.0,96.0
698,187.98613654791666,188.46045114999998,52.0,64.0
699,188.39709504791665,188.81832751041665,60.0,101.0
700,187.57517804791667,188.96216298541665,45.0,106.0
701,188.39709504791665,188.97928625625,57.0,106.0
702,189.21901204791666,189.62654589375,64.0,101.0
703,189.21901204791666,189.67620337916665,60.0,104.0
704,190.04092904791668,190.2275727,57.0,115.0
705,190.04092904791668,190.44846289375,60.0,112.0
706,190.04092904791668,190.46729849166667,64.0,109.0
707,190.45188754791667,190.61455862083332,57.0,96.0
708,190.86284604791666,190.95017472916666,38.0,106.0
709,190.86284604791666,191.15394165208332,57.0,104.0
710,190.86284604791666,191.23099637083334,62.0,106.0
711,191.89024229791667,192.19161186458334,62.0,115.0
712,192.09572154791667,192.32346105,66.0,120.0
713,191.68476304791668,192.344008975,57.0,115.0
714,191.27380454791665,192.39366646041665,50.0,96.0
715,192.30120079791666,192.41078973125,69.0,106.0
716,192.50668004791666,192.59229640208332,38.0,109.0
717,192.50668004791666,193.07859729375,69.0,106.0
718,192.50668004791666,193.08715892916666,62.0,109.0
719,192.91763854791665,193.44161063541665,50.0,106.0
720,193.32859704791667,193.55976120416668,66.0,123.0
721,193.32859704791667,193.5666105125,69.0,112.0
722,193.32859704791667,193.57003516666666,62.0,115.0
723,193.32859704791667,193.63510359583333,74.0,101.0
724,193.73955554791667,193.80804863125,50.0,99.0
725,194.15051404791666,194.23270574791667,40.0,109.0
726,194.15051404791666,194.96215708541666,64.0,112.0
727,194.15051404791666,195.11455419583334,68.0,117.0
728,195.17791029791667,195.60770439583334,64.0,118.0
729,195.38338954791666,195.61455370416667,68.0,123.0
730,194.97243104791667,195.62482766666668,59.0,118.0
731,194.56147254791665,195.62825232083333,52.0,101.0
732,195.58886879791666,195.71900565625,71.0,109.0
733,195.79434804791666,196.29434755625,76.0,89.0
734,195.79434804791666,196.42448441458333,68.0,110.0
735,195.79434804791666,196.48270353541668,64.0,109.0
736,195.79434804791666,196.49297749791666,71.0,104.0
737,195.79434804791666,196.55462127291668,52.0,112.0
738,195.79434804791666,196.55975825416667,59.0,112.0
739,196.20530654791668,196.56489523541666,56.0,113.0
740,196.61626504791667,196.87825109166667,64.0,106.0
741,196.61626504791667,197.38509990833333,68.0,120.0
742,197.02722354791666,197.41763412291667,64.0,112.0
743,196.61626504791667,197.41934645,52.0,106.0
744,196.61626504791667,197.42619575833334,59.0,104.0
745,196.61626504791667,197.439894375,71.0,106.0
746,197.43818204791665,197.51523676666667,38.0,104.0
747,197.43818204791665,197.77379815625,62.0,106.0
748,197.43818204791665,197.90051036041666,66.0,113.0
749,198.05461979791667,198.40393452291667,62.0,112.0
750,198.26009904791667,198.51523578333334,66.0,120.0
751,198.46557829791666,198.6933178,69.0,101.0
752,197.84914054791665,199.05975579583333,57.0,106.0
753,199.28749529791668,199.76352222708334,62.0,115.0
754,199.08201604791665,199.93817958958334,66.0,123.0
755,198.87653679791666,199.99126172916667,69.0,109.0
756,199.49297454791667,200.04091921458334,54.0,117.0
757,199.69845379791667,200.12139858749998,57.0,112.0
758,197.64366129791665,200.14365883958334,50.0,89.0
759,198.67105754791666,200.15050814791667,74.0,104.0
760,200.10941229791666,200.40050790208332,66.0,120.0
761,199.90393304791667,200.43646677083333,62.0,115.0
762,200.31489154791666,200.55119268541665,69.0,109.0
763,200.52037079791666,200.64194602083333,74.0,109.0
764,201.13680854791667,201.6213971125,55.0,112.0
765,201.34228779791667,201.6419450375,59.0,112.0
766,201.54776704791666,201.78406818541666,62.0,109.0
767,200.93132929791665,202.22242391875,50.0,89.0
768,200.72585004791665,202.2498211520833,43.0,109.0
769,201.75324629791666,202.77379323958334,67.0,112.0
770,202.16420479791665,202.83714934166667,59.0,109.0
771,201.95872554791666,202.84399865,62.0,112.0
772,202.78064254791667,203.14365588958333,55.0,106.0
773,202.98612179791667,203.29262834583332,59.0,112.0
774,202.57516329791667,203.29776532708334,50.0,87.0
775,202.36968404791668,203.39536797083332,43.0,106.0
776,203.39708029791666,203.645367725,62.0,115.0
777,203.19160104791666,203.66249099583334,67.0,118.0
778,203.60255954791666,203.82687439583333,59.0,115.0
779,203.80803879791665,203.8816688625,55.0,112.0
780,203.80803879791665,203.89023049791666,67.0,5.0
781,204.01351804791665,204.25838082083334,60.0,109.0
782,204.01351804791665,204.43475051041668,64.0,115.0
783,204.42447654791667,204.71899680625,60.0,109.0
784,204.62995579791667,204.91933907499998,64.0,112.0
785,204.83543504791666,205.31659895833332,72.0,109.0
786,205.04091429791666,205.43646185416665,67.0,109.0
787,204.21899729791667,205.4638590875,55.0,96.0
788,204.01351804791665,205.47584537708332,48.0,106.0
789,205.45187279791665,205.48611933958333,67.0,56.0
790,205.45187279791665,205.90735180208333,60.0,115.0
791,205.24639354791665,205.92105041874999,64.0,112.0
792,206.27378979791666,206.58543332708334,64.0,112.0
793,205.86283129791667,206.68303597083332,55.0,94.0
794,206.06831054791667,206.74467974583334,60.0,112.0
795,205.65735204791667,206.77207697916666,48.0,104.0
796,206.47926904791666,206.90050151041666,72.0,112.0
797,206.68474829791666,206.94844666875,67.0,115.0
798,206.89022754791665,207.15392591875,64.0,106.0
799,207.09570679791665,207.26009019791667,60.0,106.0
800,207.71214454791667,208.05803461874999,53.0,106.0
801,207.91762379791666,208.15734958958333,57.0,106.0
802,208.12310304791666,208.37481512916668,64.0,112.0
803,207.50666529791667,208.73440381666666,48.0,91.0
804,207.30118604791667,208.74296545208333,41.0,109.0
805,208.32858229791665,209.11625275625,60.0,106.0
806,208.73954079791667,209.17447187708333,53.0,115.0
807,208.53406154791665,209.39878672499998,57.0,109.0
808,209.35597854791666,209.63851251666665,53.0,109.0
809,209.56145779791666,209.67104673125,57.0,106.0
810,209.76693704791666,209.83885478541666,60.0,112.0
811,209.15049929791667,209.87652598124998,48.0,82.0
812,209.76693704791666,209.9227588125,57.0,118.0
813,209.97241629791665,210.00837516666667,57.0,78.0
814,209.76693704791666,210.02207378333333,53.0,118.0
815,208.94502004791667,210.15049831458333,41.0,109.0
816,209.76693704791666,210.20358045416666,64.0,115.0
817,209.97241629791665,210.40905970416665,60.0,112.0
818,210.17789554791665,210.43131995624998,57.0,115.0
819,210.38337479791667,210.56145681458332,53.0,118.0
820,210.58885404791667,210.74981279374998,66.0,117.0
821,210.58885404791667,210.76351141041667,62.0,106.0
822,210.58885404791667,210.76522373749998,69.0,101.0
823,210.58885404791667,210.78405933541666,38.0,109.0
824,210.99981254791666,211.15905896666666,66.0,117.0
825,210.99981254791666,211.16419594791665,38.0,101.0
826,210.99981254791666,211.165908275,62.0,109.0
827,210.99981254791666,211.18131921875,69.0,109.0
828,211.41077104791665,211.55974350416665,66.0,120.0
829,211.41077104791665,211.56488048541667,62.0,112.0
830,211.41077104791665,211.57857910208332,69.0,109.0
831,211.41077104791665,211.5871407375,38.0,106.0
832,211.82172954791668,211.98611294791667,62.0,115.0
833,211.82172954791668,211.99124992916666,38.0,109.0
834,211.82172954791668,211.99296225625,66.0,120.0
835,211.82172954791668,211.99638691041667,69.0,115.0
836,212.23268804791667,212.84912579791666,66.0,123.0
837,212.23268804791667,212.85426277916667,69.0,112.0
838,212.23268804791667,212.85597510624999,62.0,115.0
839,212.64364654791666,213.01008454375,45.0,78.0
840,212.23268804791667,213.28748153125,38.0,112.0
841,213.05460504791665,213.82343990833334,74.0,112.0
842,213.46556354791664,213.84227550625,38.0,104.0
843,213.05460504791665,213.84227550625,62.0,118.0
844,213.05460504791665,213.84398783333333,66.0,123.0
845,213.46556354791664,213.84741248749998,45.0,104.0
846,213.05460504791665,213.84912481458332,69.0,118.0
847,213.87652204791667,214.37309690208332,62.0,104.0
848,213.87652204791667,214.38337086458333,59.0,94.0
849,213.87652204791667,214.40734344375,55.0,96.0
850,214.28748054791666,214.83542521458332,50.0,50.0
851,214.69843904791665,214.93987716666666,55.0,112.0
852,214.69843904791665,214.95186345625,59.0,115.0
853,213.87652204791667,215.02549352083332,43.0,101.0
854,214.69843904791665,215.028918175,62.0,112.0
855,215.52035604791666,215.82515026875,57.0,106.0
856,215.52035604791666,216.05460209791664,60.0,101.0
857,215.93131454791666,216.19843757291665,57.0,101.0
858,215.52035604791666,216.45186198124998,42.0,113.0
859,216.34227304791665,216.4980948125,57.0,106.0
860,216.34227304791665,216.82001230416665,60.0,106.0
861,216.34227304791665,216.85083419166665,64.0,101.0
862,217.16419004791666,217.63507999583334,55.0,101.0
863,217.16419004791666,217.78405245208333,52.0,94.0
864,217.57514854791665,218.00151799166667,47.0,34.0
865,217.98610704791668,218.17617535416667,59.0,104.0
866,217.98610704791668,218.18644931666665,55.0,112.0
867,217.16419004791666,218.33199711875,40.0,101.0
868,218.39706554791667,218.86453084166666,52.0,47.0
869,218.80802404791666,219.21555789375,55.0,109.0
870,218.80802404791666,219.23953047291667,64.0,106.0
871,218.80802404791666,219.26007839791666,59.0,109.0
872,219.62994104791665,220.05459816458333,55.0,109.0
873,219.62994104791665,220.07000910833332,40.0,99.0
874,219.62994104791665,220.11281728541667,59.0,106.0
875,220.04089954791667,220.14363917291666,52.0,104.0
876,220.45185804791666,221.01007667708333,55.0,104.0
877,220.45185804791666,221.01350133124998,60.0,99.0
878,221.27377504791667,221.38507630833334,55.0,112.0
879,220.45185804791666,221.39363794374998,48.0,106.0
880,220.86281654791665,221.39535027083332,52.0,76.0
881,221.27377504791667,221.72582939791667,60.0,109.0
882,221.68473354791666,221.8063087708333,55.0,99.0
883,221.27377504791667,221.82856902291667,64.0,106.0
884,222.09569204791666,222.33199318541665,57.0,99.0
885,222.09569204791666,222.6795955833333,62.0,99.0
886,222.50665054791665,222.68815721875,57.0,91.0
887,222.09569204791666,222.97582816874998,50.0,104.0
888,222.91760904791664,223.05117056041667,57.0,109.0
889,222.91760904791664,223.21555396041666,66.0,117.0
890,222.91760904791664,223.24466352083334,62.0,112.0
891,223.73952604791666,224.24979951875,55.0,104.0
892,223.73952604791666,224.275484425,59.0,109.0
893,224.15048454791668,224.61966216874998,50.0,74.0
894,224.56144304791667,224.7480867,55.0,112.0
895,224.56144304791667,224.93130569791666,59.0,115.0
896,223.73952604791666,224.94500431458334,43.0,104.0
897,224.97240154791666,225.2378122458333,55.0,106.0
898,224.56144304791667,225.27377111458333,62.0,112.0
899,225.38336004791665,225.94671565833332,55.0,112.0
900,225.38336004791665,226.07342786249998,60.0,109.0
901,226.20527704791667,226.65219441666665,59.0,112.0
902,226.20527704791667,226.659043725,55.0,112.0
903,225.79431854791665,226.71555051874998,43.0,99.0
904,226.61623554791666,226.74294775208332,50.0,87.0
905,227.02719404791665,227.32342663333333,57.0,106.0
906,227.02719404791665,227.50493330416666,60.0,109.0
907,227.43815254791667,227.69157695625,57.0,106.0
908,227.02719404791665,227.97753557916667,42.0,117.0
909,227.84911104791667,228.03233004583333,57.0,115.0
910,227.84911104791667,228.1898641375,60.0,115.0
911,227.84911104791667,228.26006954791666,64.0,112.0
912,228.67102804791665,229.206986425,63.0,113.0
913,228.67102804791665,229.20869875208334,59.0,106.0
914,229.08198654791664,229.54431486041665,54.0,81.0
915,228.67102804791665,229.58883536458333,47.0,104.0
916,229.49294504791666,229.72924618541666,59.0,109.0
917,229.49294504791666,229.78575297916666,66.0,117.0
918,229.49294504791666,229.79773926874998,63.0,120.0
919,229.90390354791666,229.99979386458332,47.0,89.0
920,230.31486204791665,230.66075211875,64.0,104.0
921,230.31486204791665,230.69499866041667,67.0,106.0
922,230.31486204791665,230.89705325625,52.0,104.0
923,230.72582054791667,231.03917640416665,59.0,82.0
924,231.13677904791666,231.47068282916666,66.0,110.0
925,231.13677904791666,231.47581981041665,62.0,106.0
926,231.13677904791666,231.6521895,50.0,104.0
927,231.54773754791665,231.65561415416664,57.0,34.0
928,231.95869604791665,232.4432846125,64.0,106.0
929,231.95869604791665,232.65561317083333,61.0,104.0
930,232.78061304791666,233.17444827708331,64.0,104.0
931,232.78061304791666,233.19670852916664,61.0,99.0
932,232.78061304791666,233.29944815416667,67.0,104.0
933,231.95869604791665,233.3080097895833,49.0,101.0
934,233.60253004791667,234.21211848958333,57.0,96.0
935,233.60253004791667,234.2515020125,60.0,96.0
936,234.01348854791667,234.48780315,52.0,64.0
937,234.42444704791666,234.84567951041666,60.0,101.0
938,233.60253004791667,234.98951498541666,45.0,106.0
939,234.42444704791666,235.00663825625,57.0,106.0
940,235.24636404791664,235.65389789374998,64.0,101.0
941,235.24636404791664,235.70355537916666,60.0,104.0
942,236.06828104791666,236.2549247,57.0,115.0
943,236.06828104791666,236.47581489375,60.0,112.0
944,236.06828104791666,236.49465049166668,64.0,109.0
945,236.47923954791665,236.64191062083333,57.0,96.0
946,236.89019804791667,236.97752672916664,38.0,106.0
947,236.89019804791667,237.18129365208333,57.0,104.0
948,236.89019804791667,237.25834837083332,62.0,106.0
949,237.91759429791665,238.21896386458332,62.0,115.0
950,238.12307354791665,238.35081305,66.0,120.0
951,237.71211504791665,238.371360975,57.0,115.0
952,237.30115654791666,238.42101846041666,50.0,96.0
953,238.32855279791664,238.43814173125,69.0,106.0
954,238.53403204791667,238.90047004374998,67.0,104.0
955,238.53403204791667,238.91074400624998,63.0,113.0
956,238.53403204791667,239.0186206125,70.0,104.0
957,238.53403204791667,239.24122313333334,51.0,120.0
958,238.94499054791666,239.26005873124998,58.0,107.0
959,239.15046979791666,239.26177105833332,63.0,113.0
960,238.53403204791667,239.35252439375,39.0,114.0
961,239.35594904791665,239.65046930625,51.0,120.0
962,239.35594904791665,239.72067471666665,58.0,113.0
963,239.35594904791665,240.11964692708332,67.0,115.0
964,239.35594904791665,240.14190717916665,63.0,120.0
965,239.35594904791665,240.14361950625,70.0,120.0
966,239.76690754791667,240.17272906666665,51.0,117.0
967,240.17786604791667,240.67444090208332,63.0,104.0
968,240.17786604791667,240.68471486458333,60.0,94.0
969,240.17786604791667,240.70868744375,56.0,96.0
970,240.58882454791666,241.13676921458332,51.0,50.0
971,240.99978304791665,241.24122116666666,56.0,112.0
972,240.99978304791665,241.25320745624998,60.0,115.0
973,240.17786604791667,241.32683752083332,44.0,101.0
974,240.99978304791665,241.33026217499997,63.0,112.0
975,241.82170004791666,242.12649426874998,58.0,106.0
976,241.82170004791666,242.35594609791667,61.0,101.0
977,242.23265854791666,242.49978157291667,58.0,101.0
978,241.82170004791666,242.75320598125,43.0,113.0
979,242.64361704791665,242.7994388125,58.0,106.0
980,242.64361704791665,243.12135630416665,61.0,106.0
981,242.64361704791665,243.15217819166665,65.0,101.0
982,243.46553404791666,243.9364239958333,56.0,101.0
983,243.46553404791666,244.08539645208333,53.0,94.0
984,243.87649254791665,244.30286199166665,48.0,34.0
985,244.28745104791665,244.47751935416665,60.0,104.0
986,244.28745104791665,244.48779331666665,56.0,112.0
987,243.46553404791666,244.63334111875,41.0,101.0
988,244.69840954791664,245.16587484166666,53.0,47.0
989,245.10936804791666,245.51690189375,56.0,109.0
990,245.10936804791666,245.54087447291664,65.0,106.0
991,245.10936804791666,245.56142239791666,60.0,109.0
992,245.93128504791667,246.35594216458333,56.0,109.0
993,245.93128504791667,246.37135310833332,41.0,99.0
994,245.93128504791667,246.41416128541664,60.0,106.0
995,246.34224354791667,246.44498317291664,53.0,104.0
996,246.75320204791666,247.31142067708333,56.0,104.0
997,246.75320204791666,247.31484533124998,61.0,99.0
998,247.57511904791664,247.6864203083333,56.0,112.0
999,246.75320204791666,247.69498194375,49.0,106.0
1000,247.16416054791665,247.69669427083332,53.0,76.0
1001,247.57511904791664,248.02717339791667,61.0,109.0
1002,247.98607754791664,248.10765277083334,56.0,99.0
1003,247.57511904791664,248.12991302291664,65.0,106.0
1004,248.39703604791666,248.63333718541665,58.0,99.0
1005,248.39703604791666,248.98093958333334,63.0,99.0
1006,248.80799454791665,248.98950121874998,58.0,91.0
1007,248.39703604791666,249.27717216874998,51.0,104.0
1008,249.21895304791667,249.35251456041664,58.0,109.0
1009,249.21895304791667,249.51689796041666,67.0,117.0
1010,249.21895304791667,249.5460075208333,63.0,112.0
1011,250.04087004791666,250.55114351875,56.0,104.0
1012,250.04087004791666,250.57682842499997,60.0,109.0
1013,250.45182854791665,250.92100616874998,51.0,74.0
1014,250.86278704791664,251.0494307,56.0,112.0
1015,250.86278704791664,251.23264969791666,60.0,115.0
1016,250.04087004791666,251.24634831458332,44.0,104.0
1017,251.27374554791666,251.53915624583334,56.0,106.0
1018,250.86278704791664,251.57511511458333,63.0,112.0
1019,251.68470404791665,252.24805965833332,56.0,112.0
1020,251.68470404791665,252.37477186249998,61.0,109.0
1021,252.50662104791667,252.95353841666667,60.0,112.0
1022,252.50662104791667,252.96038772499998,56.0,112.0
1023,252.09566254791667,253.01689451875,44.0,99.0
1024,252.91757954791666,253.04429175208332,51.0,87.0
1025,253.32853804791665,253.62477063333333,58.0,106.0
1026,253.32853804791665,253.80627730416666,61.0,109.0
1027,253.73949654791664,253.99292095624998,58.0,106.0
1028,253.32853804791665,254.27887957916664,43.0,117.0
1029,254.15045504791664,254.33367404583333,58.0,115.0
1030,254.15045504791664,254.4912081375,61.0,115.0
1031,254.15045504791664,254.56141354791666,65.0,112.0
1032,254.97237204791665,255.508330425,64.0,113.0
1033,254.97237204791665,255.51004275208334,60.0,106.0
1034,255.38333054791667,255.84565886041665,55.0,81.0
1035,254.97237204791665,255.89017936458333,48.0,104.0
1036,255.79428904791666,256.03059018541666,60.0,109.0
1037,255.79428904791666,256.08709697916663,67.0,117.0
1038,255.79428904791666,256.09908326875,64.0,120.0
1039,256.20524754791666,256.3011378645833,48.0,89.0
1040,256.61620604791665,256.96209611874997,65.0,104.0
1041,256.61620604791665,256.99634266041664,68.0,106.0
1042,256.61620604791665,257.19839725625,53.0,104.0
1043,257.02716454791664,257.3405204041667,60.0,82.0
1044,257.43812304791663,257.77202682916663,67.0,110.0
1045,257.43812304791663,257.77716381041665,63.0,106.0
1046,257.43812304791663,257.9535335,51.0,104.0
1047,257.8490815479166,257.95695815416667,58.0,34.0
1048,258.2600400479167,258.7446286125,65.0,106.0
1049,258.2600400479167,258.95695717083333,62.0,104.0
1050,259.08195704791666,259.4757922770833,65.0,104.0
1051,259.08195704791666,259.49805252916667,62.0,99.0
1052,259.08195704791666,259.60079215416664,68.0,104.0
1053,258.2600400479167,259.60935378958334,50.0,101.0
1054,259.90387404791664,260.51346248958333,58.0,96.0
1055,259.90387404791664,260.55284601249997,61.0,96.0
1056,260.31483254791664,260.78914714999996,53.0,64.0
1057,260.7257910479167,261.14702351041666,61.0,101.0
1058,259.90387404791664,261.29085898541666,46.0,106.0
1059,260.7257910479167,261.30798225625,58.0,106.0
1060,261.5477080479167,261.95524189375,65.0,101.0
1061,261.5477080479167,262.00489937916666,61.0,104.0
1062,262.36962504791666,262.5562687,58.0,115.0
1063,262.36962504791666,262.77715889374997,61.0,112.0
1064,262.36962504791666,262.79599449166665,65.0,109.0
1065,262.78058354791665,262.94325462083333,58.0,96.0
1066,263.19154204791664,263.27887072916667,39.0,106.0
1067,263.19154204791664,263.4826376520833,58.0,104.0
1068,263.19154204791664,263.5596923708333,63.0,106.0
1069,264.2189382979167,264.5203078645833,63.0,115.0
1070,264.4244175479166,264.65215704999997,67.0,120.0
1071,264.0134590479166,264.672704975,58.0,115.0
1072,263.60250054791663,264.72236246041666,51.0,96.0
1073,264.6298967979167,264.73948573125,70.0,106.0
1074,264.80455416041667,264.95352661666664,39.0,110.0
1075,264.81996510416667,265.823388775,63.0,101.0
1076,264.8251020854167,266.01688173541663,67.0,99.0
1077,265.71208751458335,267.71037322083333,51.0,41.0
1078,265.8918818583333,267.7360581270833,58.0,93.0
1079,266.0819501645833,267.9381127229167,63.0,110.0
1080,266.33194991874996,267.95523599374997,67.0,87.0
1081,266.56825105625,267.9620853020833,70.0,86.0
1082,268.51345462291664,269.05454998125,56.0,94.0
1083,268.91927614166667,269.57680974166664,61.0,99.0
1084,269.32509766041665,269.78228899166663,56.0,56.0
1085,269.76516572083335,270.43297328333335,61.0,99.0
1086,269.75317943125,270.58365806666666,68.0,101.0
1087,270.59906901041666,270.79769895208335,65.0,99.0
1088,268.07681121666667,270.8542057458333,49.0,73.0
1089,270.5973566833333,270.8696166895833,61.0,91.0
1090,271.39701343125,272.0374237604167,60.0,89.0
1091,271.40215041249996,272.04941005,63.0,99.0
1092,271.80797193125,272.3798891770833,55.0,61.0
1093,272.6230396229166,273.50660039791666,60.0,56.0
1094,272.19838250624997,273.7035180125,67.0,110.0
1095,273.44666895,273.9158465708333,55.0,55.0
1096,271.40728739375,274.06481902708333,48.0,85.0
1097,273.84050417916666,274.0699560083333,60.0,101.0
1098,273.84221650625,274.24632569791663,63.0,106.0
1099,274.69324306666664,275.19837955624996,58.0,94.0
1100,274.6881060854166,275.50488610416664,61.0,94.0
1101,275.10420156666663,275.81995428749997,53.0,40.0
1102,274.6898184125,276.04084448125,46.0,99.0
1103,275.51002308541666,276.15728272291665,58.0,101.0
1104,275.9346802020833,276.36961128125,61.0,104.0
1105,276.3730359354166,276.72919996875,58.0,85.0
1106,276.3730359354166,276.85591217291665,63.0,89.0
1107,276.8490628645833,277.80625370416664,51.0,62.0
1108,276.38330989791666,278.6435816479167,36.0,100.0
1109,277.35933633541663,278.809677375,67.0,120.0
1110,277.94666452499996,278.94837586874996,63.0,96.0
1111,279.40899185416663,279.74803261666665,56.0,99.0
1112,279.67440255208334,279.98947073541666,63.0,106.0
1113,279.94495023125,280.2805663395833,60.0,89.0
1114,280.2548814333333,280.48262093541666,68.0,96.0
1115,280.8987164166667,281.2668667395833,72.0,87.0
1116,280.56994961666663,281.3130995708333,63.0,106.0
1117,281.25830510416665,281.6059075020833,70.0,94.0
1118,281.64015404375,281.89700310625,75.0,94.0
1119,279.1607044270833,282.2120712895833,51.0,71.0
1120,282.12303028124995,282.39529028749996,70.0,39.0
1121,278.912417,282.40042726875,44.0,76.0
1122,282.9637828791667,283.13672791458333,75.0,44.0
1123,282.8952897958333,285.5802186625,51.0,89.0
1124,283.09905671875,285.6350131291666,80.0,94.0
1125,282.7035091625,285.64699941875,44.0,61.0
1126,283.17611143749997,285.7446020625,84.0,99.0
