,start,end,pitch,velocity
0,16.652083333333334,16.870833333333334,67.0,83.0
1,16.985416666666666,17.19375,67.0,80.0
2,17.31875,17.529166666666665,67.0,85.0
3,17.652083333333334,17.87708333333333,67.0,84.0
4,17.985416666666666,18.20625,66.0,86.0
5,18.31875,18.539583333333333,66.0,79.0
6,18.652083333333334,19.483333333333334,64.0,89.0
7,19.985416666666666,20.191666666666666,71.0,84.0
8,20.31875,20.554166666666667,71.0,84.0
9,20.652083333333334,20.9125,69.0,83.0
10,20.985416666666666,21.2,66.0,85.0
11,21.31875,21.529166666666665,66.0,87.0
12,21.652083333333334,21.872916666666665,66.0,80.0
13,21.985416666666666,22.172916666666666,64.0,83.0
14,22.31875,22.554166666666667,64.0,84.0
15,22.652083333333334,23.31875,62.0,85.0
16,23.652083333333334,23.90625,59.0,86.0
17,23.985416666666666,24.19375,69.0,83.0
18,24.31875,24.539583333333333,66.0,78.0
19,24.652083333333334,24.891666666666666,67.0,80.0
20,24.985416666666666,25.185416666666665,66.0,86.0
21,25.31875,25.510416666666668,67.0,75.0
22,25.652083333333334,25.879166666666666,67.0,85.0
23,25.985416666666666,26.210416666666667,66.0,86.0
24,26.318749999999998,26.54375,66.0,83.0
25,26.652083333333334,27.412499999999998,64.0,85.0
26,27.652083333333334,27.972916666666666,64.0,87.0
27,27.985416666666666,28.289583333333333,66.0,86.0
28,28.318749999999998,28.545833333333334,67.0,82.0
29,28.652083333333334,28.87708333333333,67.0,84.0
30,28.985416666666666,29.193749999999998,66.0,84.0
31,29.318749999999998,29.527083333333334,66.0,83.0
32,29.652083333333334,29.89375,66.0,86.0
33,29.985416666666666,30.193749999999998,63.0,79.0
34,30.318749999999998,30.53125,63.0,78.0
35,30.652083333333334,31.662499999999998,63.0,80.0
36,32.65208333333333,32.87083333333333,67.0,83.0
37,32.985416666666666,33.19375,67.0,80.0
38,33.31875,33.52916666666667,67.0,85.0
39,33.65208333333333,33.87708333333333,67.0,84.0
40,33.985416666666666,34.20625,66.0,86.0
41,34.31875,34.53958333333333,66.0,79.0
42,34.65208333333333,35.483333333333334,64.0,89.0
43,35.985416666666666,36.19166666666666,71.0,84.0
44,36.31875,36.55416666666667,71.0,84.0
45,36.65208333333333,36.9125,69.0,83.0
46,36.985416666666666,37.2,66.0,85.0
47,37.31875,37.52916666666667,66.0,87.0
48,37.65208333333333,37.87291666666667,66.0,80.0
49,37.985416666666666,38.172916666666666,64.0,83.0
50,38.31875,38.55416666666667,64.0,84.0
51,38.65208333333333,39.31875,62.0,85.0
52,39.65208333333333,39.90625,59.0,86.0
53,39.985416666666666,40.19375,69.0,83.0
54,40.31875,40.53958333333333,66.0,78.0
55,40.65208333333333,40.891666666666666,67.0,80.0
56,40.985416666666666,41.18541666666667,66.0,86.0
57,41.31875,41.510416666666664,67.0,75.0
58,41.65208333333333,41.87916666666666,67.0,85.0
59,41.985416666666666,42.21041666666667,66.0,86.0
60,42.31875,42.54375,66.0,83.0
61,42.65208333333333,43.4125,64.0,85.0
62,43.65208333333333,43.97291666666666,64.0,87.0
63,43.985416666666666,44.28958333333333,66.0,86.0
64,44.31875,44.545833333333334,67.0,82.0
65,44.65208333333333,44.87708333333333,71.0,84.0
66,44.985416666666666,45.19375,69.0,84.0
67,45.31875,45.52708333333333,69.0,83.0
68,45.65208333333333,45.89375,69.0,86.0
69,45.985416666666666,46.19375,66.0,79.0
70,46.31875,46.53125,64.0,78.0
71,46.65208333333333,47.6625,66.0,80.0
72,47.985416666666666,48.175,67.0,83.0
73,48.31875,48.547916666666666,69.0,81.0
74,48.65208333333333,48.885416666666664,71.0,80.0
75,48.985416666666666,49.225,76.0,85.0
76,49.31875,49.47708333333333,74.0,86.0
77,49.65208333333333,49.93333333333333,71.0,80.0
78,49.985416666666666,50.22083333333333,69.0,77.0
79,50.31875,50.56458333333333,67.0,77.0
80,50.65208333333333,51.4125,69.0,78.0
81,51.985416666666666,52.199999999999996,62.0,85.0
82,52.31875,52.547916666666666,74.0,90.0
83,52.65208333333333,52.895833333333336,74.0,87.0
84,52.985416666666666,53.18958333333333,69.0,76.0
85,53.31875,53.55833333333333,69.0,78.0
86,53.65208333333333,53.856249999999996,69.0,79.0
87,53.985416666666666,54.233333333333334,67.0,77.0
88,54.31875,54.55,66.0,81.0
89,54.65208333333333,55.69375,67.0,83.0
90,55.985416666666666,56.225,64.0,86.0
91,56.31875,56.56875,66.0,77.0
92,56.65208333333333,56.927083333333336,67.0,79.0
93,56.985416666666666,57.1875,66.0,85.0
94,57.31875,57.574999999999996,67.0,80.0
95,57.65208333333333,58.422916666666666,72.0,86.0
96,58.65208333333333,58.93333333333333,67.0,74.0
97,58.985416666666666,59.2125,66.0,86.0
98,59.31875,59.59583333333333,67.0,85.0
99,59.65208333333333,60.420833333333334,76.0,86.0
100,60.985416666666666,61.225,76.0,87.0
101,61.31875,61.543749999999996,76.0,89.0
102,61.65208333333333,61.90208333333333,76.0,86.0
103,61.985416666666666,62.21875,74.0,86.0
104,62.31875,62.574999999999996,71.0,85.0
105,62.65208333333333,63.99375,74.0,80.0
106,65.65208333333334,65.97708333333333,66.0,87.0
107,65.98541666666667,66.23333333333333,68.0,91.0
108,66.31875,66.57916666666667,69.0,84.0
109,66.65208333333334,66.86666666666666,78.0,87.0
110,66.98541666666667,67.16875,78.0,87.0
111,67.31875,67.49583333333334,78.0,88.0
112,67.65208333333334,67.86041666666667,78.0,87.0
113,67.98541666666667,68.17916666666666,76.0,85.0
114,68.31875,68.5625,73.0,85.0
115,68.65208333333334,69.31875,71.0,85.0
116,69.31875,69.55208333333333,68.0,87.0
117,69.65208333333334,69.89583333333333,68.0,87.0
118,69.98541666666667,70.21458333333334,69.0,81.0
119,70.31875,70.54791666666667,71.0,87.0
120,70.65208333333334,70.88125,76.0,86.0
121,70.98541666666667,71.17708333333333,76.0,86.0
122,71.31875,71.53541666666666,76.0,85.0
123,71.65208333333334,71.90625,76.0,86.0
124,71.98541666666667,72.21875,71.0,83.0
125,72.31875,72.54166666666667,71.0,85.0
126,72.65208333333334,73.34166666666667,69.0,89.0
127,73.31875,73.56875,66.0,80.0
128,73.65208333333334,73.92708333333333,66.0,85.0
129,73.98541666666667,74.17916666666666,68.0,87.0
130,74.31875,74.58541666666666,69.0,81.0
131,74.65208333333334,74.86458333333333,78.0,86.0
132,74.98541666666667,75.175,78.0,87.0
133,75.31875,75.50625,78.0,85.0
134,75.65208333333334,75.87291666666667,78.0,86.0
135,75.98541666666667,76.2,76.0,81.0
136,76.31875,76.55833333333334,73.0,78.0
137,76.65208333333334,77.31875,71.0,86.0
138,77.65208333333334,77.93125,68.0,89.0
139,77.98541666666667,78.23541666666667,69.0,80.0
140,78.31875,78.56875,71.0,86.0
141,78.65208333333334,79.31875,74.0,91.0
142,79.31875,79.55833333333334,73.0,79.0
143,79.65208333333334,80.20208333333333,73.0,89.0
144,80.31875,80.65208333333334,72.0,85.0
145,80.65208333333334,81.44791666666667,73.0,87.0
146,81.65208333333334,81.97708333333333,66.0,87.0
147,81.98541666666667,82.23333333333333,68.0,91.0
148,82.31875,82.57916666666667,69.0,84.0
149,82.65208333333334,82.86666666666666,78.0,87.0
150,82.98541666666667,83.16875,78.0,87.0
151,83.31875,83.49583333333334,78.0,88.0
152,83.65208333333334,83.86041666666667,78.0,87.0
153,83.98541666666667,84.17916666666666,76.0,85.0
154,84.31875,84.5625,73.0,85.0
155,84.65208333333334,85.31875,71.0,85.0
156,85.31875,85.55208333333333,68.0,87.0
157,85.65208333333334,85.89583333333333,68.0,87.0
158,85.98541666666667,86.21458333333334,69.0,81.0
159,86.31875,86.54791666666667,71.0,87.0
160,86.65208333333334,86.88125,76.0,86.0
161,86.98541666666667,87.17708333333333,76.0,86.0
162,87.31875,87.53541666666666,76.0,85.0
163,87.65208333333334,87.90625,76.0,86.0
164,87.98541666666667,88.21875,73.0,83.0
165,88.31875,88.54166666666667,80.0,85.0
166,88.65208333333334,89.34166666666667,78.0,89.0
167,89.65208333333334,89.92708333333333,66.0,85.0
168,89.98541666666667,90.17916666666666,68.0,87.0
169,90.31875,90.58541666666666,69.0,81.0
170,90.65208333333334,91.31875,76.0,86.0
171,91.31875,91.65208333333334,74.0,85.0
172,91.65208333333334,91.87291666666667,74.0,86.0
173,91.98541666666667,92.2,73.0,81.0
174,92.31875,92.55833333333334,69.0,78.0
175,92.65208333333334,93.31875,71.0,86.0
176,93.65208333333334,93.93125,68.0,89.0
177,93.98541666666667,94.23541666666667,69.0,80.0
178,94.31875,94.56875,71.0,86.0
179,94.65208333333334,95.31875,71.0,91.0
180,95.31875,97.65208333333334,69.0,79.0
181,101.98541666666667,102.19166666666666,71.0,84.0
182,102.31875,102.55416666666666,71.0,84.0
183,102.65208333333334,102.9125,69.0,83.0
184,102.98541666666667,103.2,66.0,85.0
185,103.31875,103.52916666666667,66.0,87.0
186,103.65208333333334,103.87291666666667,66.0,80.0
187,103.98541666666667,104.17291666666667,64.0,83.0
188,104.31875,104.55416666666666,64.0,84.0
189,104.65208333333334,105.31875,62.0,85.0
190,105.65208333333334,105.90625,59.0,86.0
191,105.98541666666667,106.19375,69.0,83.0
192,106.31875,106.53958333333333,66.0,78.0
193,106.65208333333334,106.89166666666667,67.0,80.0
194,106.98541666666667,107.18541666666667,66.0,86.0
195,107.31875,107.51041666666667,67.0,75.0
196,107.65208333333334,107.87916666666666,67.0,85.0
197,107.98541666666667,108.21041666666666,66.0,86.0
198,108.31875,108.54375,66.0,83.0
199,108.65208333333334,109.4125,64.0,85.0
200,109.65208333333334,109.97291666666666,64.0,87.0
201,109.98541666666667,110.28958333333333,66.0,86.0
202,110.31875,110.54583333333333,67.0,82.0
203,110.65208333333334,110.87708333333333,67.0,84.0
204,110.98541666666667,111.19375,66.0,84.0
205,111.31875,111.52708333333334,66.0,83.0
206,111.65208333333334,111.89375,66.0,86.0
207,111.98541666666667,112.19375,63.0,79.0
208,112.31875,112.53125,63.0,78.0
209,112.65208333333334,113.6625,63.0,80.0
210,114.65208333333334,114.87083333333334,67.0,83.0
211,114.98541666666667,115.19375,67.0,80.0
212,115.31875,115.52916666666667,67.0,85.0
213,115.65208333333334,115.87708333333333,67.0,84.0
214,115.98541666666667,116.20625,66.0,86.0
215,116.31875,116.53958333333333,66.0,79.0
216,116.65208333333334,117.48333333333333,64.0,89.0
217,117.98541666666667,118.19166666666666,71.0,84.0
218,118.31875,118.55416666666666,71.0,84.0
219,118.65208333333334,118.9125,69.0,83.0
220,118.98541666666667,119.2,66.0,85.0
221,119.31875,119.52916666666667,66.0,87.0
222,119.65208333333334,119.87291666666667,66.0,80.0
223,119.98541666666667,120.17291666666667,64.0,83.0
224,120.31875,120.55416666666666,64.0,84.0
225,120.65208333333334,121.31875,62.0,85.0
226,121.65208333333334,121.90625,59.0,86.0
227,121.98541666666667,122.19375,69.0,83.0
228,122.31875,122.53958333333333,66.0,78.0
229,122.65208333333334,122.89166666666667,67.0,80.0
230,122.98541666666667,123.18541666666667,66.0,86.0
231,123.31875,123.51041666666667,67.0,75.0
232,123.65208333333334,123.87916666666666,67.0,85.0
233,123.98541666666667,124.21041666666666,66.0,86.0
234,124.31875,124.54375,66.0,83.0
235,124.65208333333334,125.4125,64.0,85.0
236,125.65208333333334,125.97291666666666,64.0,87.0
237,125.98541666666667,126.28958333333333,66.0,86.0
238,126.31875,126.54583333333333,67.0,82.0
239,126.65208333333334,126.87708333333333,71.0,84.0
240,126.98541666666667,127.19375,69.0,84.0
241,127.31875,127.52708333333334,69.0,83.0
242,127.65208333333334,127.89375,69.0,86.0
243,127.98541666666667,128.19375,66.0,79.0
244,128.31875,128.53125,64.0,78.0
245,128.65208333333334,129.6625,66.0,80.0
246,129.98541666666665,130.175,67.0,83.0
247,130.31875,130.54791666666665,69.0,81.0
248,130.65208333333334,130.88541666666666,71.0,80.0
249,130.98541666666665,131.225,76.0,85.0
250,131.31875,131.47708333333333,74.0,86.0
251,131.65208333333334,131.93333333333334,71.0,80.0
252,131.98541666666665,132.22083333333333,69.0,77.0
253,132.31875,132.56458333333333,67.0,77.0
254,132.65208333333334,133.4125,69.0,78.0
255,133.98541666666665,134.2,62.0,85.0
256,134.31875,134.54791666666665,74.0,90.0
257,134.65208333333334,134.89583333333334,74.0,87.0
258,134.98541666666665,135.18958333333333,69.0,76.0
259,135.31875,135.55833333333334,69.0,78.0
260,135.65208333333334,135.85625,69.0,79.0
261,135.98541666666665,136.23333333333332,67.0,77.0
262,136.31875,136.55,66.0,81.0
263,136.65208333333334,137.69375,67.0,83.0
264,137.98541666666665,138.225,64.0,86.0
265,138.31875,138.56875,66.0,77.0
266,138.65208333333334,138.92708333333334,67.0,79.0
267,138.98541666666665,139.1875,66.0,85.0
268,139.31875,139.575,67.0,80.0
269,139.65208333333334,140.42291666666665,72.0,86.0
270,140.65208333333334,140.93333333333334,67.0,74.0
271,140.98541666666665,141.2125,66.0,86.0
272,141.31875,141.59583333333333,67.0,85.0
273,141.65208333333334,142.42083333333332,76.0,86.0
274,142.98541666666665,143.225,76.0,87.0
275,143.31875,143.54375,76.0,89.0
276,143.65208333333334,143.90208333333334,76.0,86.0
277,143.98541666666665,144.21875,74.0,86.0
278,144.31875,144.575,71.0,85.0
279,144.65208333333334,145.99375,74.0,80.0
280,147.65208333333334,147.97708333333333,66.0,87.0
281,147.98541666666665,148.23333333333332,68.0,91.0
282,148.31875,148.57916666666665,69.0,84.0
283,148.65208333333334,148.86666666666667,78.0,87.0
284,148.98541666666665,149.16875,78.0,87.0
285,149.31875,149.49583333333334,78.0,88.0
286,149.65208333333334,149.86041666666665,78.0,87.0
287,149.98541666666665,150.17916666666667,76.0,85.0
288,150.31875,150.5625,73.0,85.0
289,150.65208333333334,151.31875,71.0,85.0
290,151.31875,151.55208333333334,68.0,87.0
291,151.65208333333334,151.89583333333334,68.0,87.0
292,151.98541666666665,152.21458333333334,69.0,81.0
293,152.31875,152.54791666666665,71.0,87.0
294,152.65208333333334,152.88125,76.0,86.0
295,152.98541666666665,153.17708333333334,76.0,86.0
296,153.31875,153.53541666666666,76.0,85.0
297,153.65208333333334,153.90625,76.0,86.0
298,153.98541666666665,154.21875,71.0,83.0
299,154.31875,154.54166666666666,71.0,85.0
300,154.65208333333334,155.34166666666667,69.0,89.0
301,155.31875,155.56875,66.0,80.0
302,155.65208333333334,155.92708333333334,66.0,85.0
303,155.98541666666665,156.17916666666667,68.0,87.0
304,156.31875,156.58541666666667,69.0,81.0
305,156.65208333333334,156.86458333333334,78.0,86.0
306,156.98541666666665,157.175,78.0,87.0
307,157.31875,157.50625,78.0,85.0
308,157.65208333333334,157.87291666666667,78.0,86.0
309,157.98541666666665,158.2,76.0,81.0
310,158.31875,158.55833333333334,73.0,78.0
311,158.65208333333334,159.31875,71.0,86.0
312,159.65208333333334,159.93125,68.0,89.0
313,159.98541666666665,160.23541666666665,69.0,80.0
314,160.31875,160.56875,71.0,86.0
315,160.65208333333334,161.31875,74.0,91.0
316,161.31875,161.55833333333334,73.0,79.0
317,161.65208333333334,162.20208333333332,73.0,89.0
318,162.31875,162.65208333333334,72.0,85.0
319,162.65208333333334,163.44791666666666,73.0,87.0
320,163.65208333333334,163.97708333333333,66.0,87.0
321,163.98541666666665,164.23333333333332,68.0,91.0
322,164.31875,164.57916666666665,69.0,84.0
323,164.65208333333334,164.86666666666667,78.0,87.0
324,164.98541666666665,165.16875,78.0,87.0
325,165.31875,165.49583333333334,78.0,88.0
326,165.65208333333334,165.86041666666665,78.0,87.0
327,165.98541666666665,166.17916666666667,76.0,85.0
328,166.31875,166.5625,73.0,85.0
329,166.65208333333334,167.31875,71.0,85.0
330,167.31875,167.55208333333334,68.0,87.0
331,167.65208333333334,167.89583333333334,68.0,87.0
332,167.98541666666665,168.21458333333334,69.0,81.0
333,168.31875,168.54791666666665,71.0,87.0
334,168.65208333333334,168.88125,76.0,86.0
335,168.98541666666665,169.17708333333334,76.0,86.0
336,169.31875,169.53541666666666,76.0,85.0
337,169.65208333333334,169.90625,76.0,86.0
338,169.98541666666665,170.21875,73.0,83.0
339,170.31875,170.54166666666666,80.0,85.0
340,170.65208333333334,171.34166666666667,78.0,89.0
341,171.65208333333334,171.92708333333334,66.0,85.0
342,171.98541666666665,172.17916666666667,68.0,87.0
343,172.31875,172.58541666666667,69.0,81.0
344,172.65208333333334,173.31875,76.0,86.0
345,173.31875,173.65208333333334,74.0,85.0
346,173.65208333333334,173.87291666666667,74.0,86.0
347,173.98541666666665,174.2,73.0,81.0
348,174.31875,174.55833333333334,69.0,78.0
349,174.65208333333334,175.31875,71.0,86.0
350,175.65208333333334,175.93125,68.0,89.0
351,175.98541666666665,176.23541666666665,69.0,80.0
352,176.31875,176.56875,71.0,86.0
353,176.65208333333334,177.31875,71.0,91.0
354,177.31875,179.65208333333334,69.0,79.0
355,195.65208333333334,195.97708333333333,66.0,87.0
356,195.98541666666665,196.23333333333332,68.0,91.0
357,196.31875,196.57916666666665,69.0,84.0
358,196.65208333333334,196.86666666666667,78.0,87.0
359,196.98541666666665,197.16875,78.0,87.0
360,197.31875,197.49583333333334,78.0,88.0
361,197.65208333333334,197.86041666666665,78.0,87.0
362,197.98541666666665,198.17916666666667,76.0,85.0
363,198.31875,198.5625,73.0,85.0
364,198.65208333333334,199.31875,71.0,85.0
365,199.31875,199.55208333333334,68.0,87.0
366,199.65208333333334,199.89583333333334,68.0,87.0
367,199.98541666666665,200.21458333333334,69.0,81.0
368,200.31875,200.54791666666665,71.0,87.0
369,200.65208333333334,200.88125,76.0,86.0
370,200.98541666666665,201.17708333333334,76.0,86.0
371,201.31875,201.53541666666666,76.0,85.0
372,201.65208333333334,201.90625,76.0,86.0
373,201.98541666666665,202.21875,71.0,83.0
374,202.31875,202.54166666666666,71.0,85.0
375,202.65208333333334,203.34166666666667,69.0,89.0
376,203.31875,203.56875,66.0,80.0
377,203.65208333333334,203.92708333333334,66.0,85.0
378,203.98541666666665,204.17916666666667,68.0,87.0
379,204.31875,204.58541666666667,69.0,81.0
380,204.65208333333334,204.86458333333334,78.0,86.0
381,204.98541666666665,205.17499999999998,78.0,87.0
382,205.31875,205.50625,78.0,85.0
383,205.65208333333334,205.87291666666667,78.0,86.0
384,205.98541666666665,206.2,76.0,81.0
385,206.31875,206.55833333333334,73.0,78.0
386,206.65208333333334,207.31875,71.0,86.0
387,207.65208333333334,207.93125,68.0,89.0
388,207.98541666666665,208.23541666666665,69.0,80.0
389,208.31875,208.56875,71.0,86.0
390,208.65208333333334,209.31875,74.0,91.0
391,209.31875,209.55833333333334,73.0,79.0
392,209.65208333333334,210.20208333333332,73.0,89.0
393,210.31875,210.65208333333334,72.0,85.0
394,210.65208333333334,211.44791666666666,73.0,87.0
395,211.65208333333334,211.97708333333333,66.0,87.0
396,211.98541666666665,212.23333333333332,68.0,91.0
397,212.31875,212.57916666666665,69.0,84.0
398,212.65208333333334,212.86666666666667,78.0,87.0
399,212.98541666666665,213.16875,78.0,87.0
400,213.31875,213.49583333333334,78.0,88.0
401,213.65208333333334,213.86041666666665,78.0,87.0
402,213.98541666666665,214.17916666666667,76.0,85.0
403,214.31875,214.5625,73.0,85.0
404,214.65208333333334,215.31875,71.0,85.0
405,215.31875,215.55208333333334,68.0,87.0
406,215.65208333333334,215.89583333333334,68.0,87.0
407,215.98541666666665,216.21458333333334,69.0,81.0
408,216.31875,216.54791666666665,71.0,87.0
409,216.65208333333334,216.88125,76.0,86.0
410,216.98541666666665,217.17708333333334,76.0,86.0
411,217.31875,217.53541666666666,76.0,85.0
412,217.65208333333334,217.90625,76.0,86.0
413,217.98541666666665,218.21875,73.0,83.0
414,218.31875,218.54166666666666,80.0,85.0
415,218.65208333333334,219.34166666666667,78.0,89.0
416,219.65208333333334,219.92708333333334,66.0,85.0
417,219.98541666666665,220.17916666666667,68.0,87.0
418,220.31875,220.58541666666667,69.0,81.0
419,220.65208333333334,221.31875,76.0,86.0
420,221.31875,221.65208333333334,74.0,85.0
421,221.65208333333334,221.87291666666667,74.0,86.0
422,221.98541666666665,222.2,73.0,81.0
423,222.31875,222.55833333333334,69.0,78.0
424,222.65208333333334,223.31875,71.0,86.0
425,223.65208333333334,223.93125,68.0,89.0
426,223.98541666666665,224.23541666666665,69.0,80.0
427,224.31875,224.56875,71.0,86.0
428,224.65208333333334,225.31875,71.0,91.0
429,225.31875,227.65208333333334,69.0,79.0
