,start,end,pitch,velocity
0,17.776695808333333,18.166279141666667,59.0,107.0
1,18.276695808333333,18.622529141666668,59.0,95.0
2,18.776695808333333,19.220445808333334,60.0,112.0
3,19.276695808333333,19.395445808333335,59.0,96.0
4,19.526695808333333,19.853779141666667,62.0,100.0
5,20.026695808333333,20.551695808333335,62.0,122.0
6,20.526695808333333,20.835029141666666,64.0,99.0
7,21.026695808333333,21.605862475000002,62.0,102.0
8,22.026695808333333,22.337112475,67.0,100.0
9,22.526695808333333,22.880862475,67.0,100.0
10,23.026695808333333,23.418362475000002,66.0,107.0
11,23.776695808333333,24.112112475,62.0,81.0
12,24.026695808333333,25.089195808333336,59.0,78.0
13,26.27757851666667,26.595374766666666,55.0,92.0
14,26.78605251666667,27.127153825,64.0,89.0
15,27.294526516666668,27.682237941666667,55.0,79.0
16,27.803000516666668,28.322067725,54.0,72.0
17,28.311474516666667,28.680118166666666,62.0,88.0
18,28.819948516666667,29.250032775,62.0,92.0
19,29.328422516666667,29.51910026666667,60.0,96.0
20,29.582659516666666,29.851727008333334,59.0,69.0
21,29.836896516666666,31.190708541666666,60.0,77.0
22,31.36231851666667,31.527572566666667,59.0,78.0
23,31.61655551666667,31.754267225,60.0,69.0
24,31.87079251666667,32.22672431666667,62.0,75.0
25,32.37926651666667,32.69918140833333,59.0,77.0
26,32.88774051666667,33.527458900000006,57.0,77.0
27,33.924388506250004,34.27526550625,59.0,92.0
28,34.449758745833336,34.839844666666664,59.0,81.0
29,34.966999745833334,35.36570635,60.0,82.0
30,35.48424074583333,35.69329231666667,59.0,78.0
31,35.74286124583333,36.00148174583333,62.0,97.0
32,36.26010224583334,36.64156748333333,62.0,86.0
33,36.777343245833336,37.160963654166665,64.0,82.0
34,37.294584245833335,37.67820465416667,66.0,93.0
35,38.58768674583334,38.93682442083333,69.0,93.0
36,39.104927745833336,39.3549275625,67.0,96.0
37,39.622168745833335,39.7945824125,66.0,92.0
38,39.880789245833334,40.292426875000004,67.0,95.0
39,40.39803024583333,40.64371972083333,64.0,78.0
40,40.65665074583333,40.9971677375,62.0,85.0
41,41.17389174583334,41.683863591666665,62.0,92.0
42,42.707167516666665,43.03767561666667,66.0,112.0
43,43.215641516666665,43.6775054,67.0,97.0
44,43.72411551666667,44.14360656666667,64.0,93.0
45,44.23258951666667,44.66479241666667,62.0,93.0
46,44.74106351666667,45.00801236666667,64.0,93.0
47,45.24953751666667,45.575808333333335,55.0,86.0
48,45.75801151666667,45.931740133333335,60.0,92.0
49,46.012248516666666,46.22834996666667,59.0,72.0
50,46.26648551666667,46.522841158333335,60.0,96.0
51,46.77495951666667,47.75800925,67.0,96.0
52,48.04614451666667,48.272839175,64.0,86.0
53,48.30038151666667,49.68809180833334,67.0,100.0
54,49.84077226666667,50.17772883333333,66.0,99.0
55,50.49294626666667,52.5330658625,67.0,117.0
56,67.53840050625001,67.70233500625001,59.0,97.0
57,67.78430225625002,67.99126956250001,60.0,82.0
58,68.03020400625002,68.17774505625002,59.0,81.0
59,68.27610575625,68.58758130625002,59.0,93.0
60,68.76790925625001,69.48717187500002,57.0,95.0
61,71.47282850625001,71.70643516875,59.0,95.0
62,71.71873025625001,71.9748779125,60.0,78.0
63,71.96463200625001,72.13471405000001,59.0,57.0
64,72.21053375625002,72.54455030000001,59.0,86.0
65,73.19414075625001,73.41545233125001,55.0,86.0
66,72.70233725625,73.4830753125,57.0,88.0
67,73.68594425625001,74.31709208125001,50.0,78.0
68,75.40725650625001,75.60807626875001,59.0,95.0
69,75.65315825625001,75.8437321125,60.0,69.0
70,75.89906000625001,76.01996170000001,59.0,77.0
71,76.14496175625001,76.33553561250001,57.0,86.0
72,76.63676525625002,77.08553595000001,55.0,83.0
73,77.12856875625002,77.34578196875,55.0,90.0
74,77.86712780833334,78.071294475,50.0,76.0
75,78.11712780833334,78.258794475,52.0,69.0
76,78.36712780833334,79.62962780833334,57.0,88.0
77,79.61712780833334,79.80671114166667,50.0,85.0
78,79.86669739166668,80.07124294166667,52.0,82.0
79,80.11463139166668,80.26545790833335,55.0,85.0
80,80.36256539166668,80.76545814166667,59.0,93.0
81,80.85843339166668,80.998929325,60.0,93.0
82,81.10636739166668,81.64562384166668,55.0,81.0
83,81.60223539166668,82.660087125,57.0,89.0
84,83.33777339166667,83.61050079166668,59.0,88.0
85,83.58570739166667,83.84865514166667,60.0,73.0
86,83.83407180833333,83.99032180833333,59.0,73.0
87,84.08407180833333,84.38407180833335,59.0,88.0
88,84.58407180833333,84.96323847500001,57.0,79.0
89,85.08407180833333,86.30907180833334,62.0,99.0
90,87.33407180833333,87.531988475,62.0,95.0
91,87.58407180833333,87.69865514166668,55.0,72.0
92,87.83407180833333,87.94032180833334,55.0,74.0
93,88.08407180833333,88.406988475,54.0,70.0
94,88.58407180833333,89.050738475,54.0,72.0
95,89.08407180833333,89.47365514166667,55.0,85.0
96,89.58407180833333,90.33823847500001,57.0,86.0
97,91.33407180833333,91.49657180833334,59.0,100.0
98,91.58407180833333,91.72157180833334,60.0,69.0
99,91.83407180833333,91.98407180833334,59.0,92.0
100,92.08407180833333,92.41115514166667,57.0,90.0
101,92.58407180833333,93.019488475,55.0,90.0
102,93.08407180833333,93.40907180833334,62.0,99.0
103,93.58407180833333,93.68615514166667,55.0,78.0
104,93.83407180833333,93.97157180833334,55.0,82.0
105,94.08407180833333,94.194488475,62.0,90.0
106,94.33407180833333,94.75282180833334,62.0,96.0
107,94.83407180833333,94.98198847500001,60.0,81.0
108,95.08407180833333,95.594488475,60.0,89.0
109,96.07911975625001,96.28403788125,55.0,78.0
110,96.32502150625001,96.7082184,62.0,90.0
111,96.81682500625,96.9500217875,60.0,78.0
112,97.06272675625,97.44797283125001,60.0,96.0
113,97.55453025625,97.85985826250001,55.0,88.0
114,98.04633375625001,99.97461331250001,62.0,89.0
115,102.22666350625,102.6098604,59.0,107.0
116,102.71846700625001,103.05863109375001,59.0,95.0
117,103.21027050625001,103.64674611250001,60.0,112.0
118,103.70207400625,103.8188773375,59.0,96.0
119,103.94797575625,104.2696972125,62.0,100.0
120,104.43977925625,104.95617293125001,62.0,122.0
121,104.93158275625001,105.23486158125,64.0,99.0
122,105.42338625625001,105.99305864375,62.0,102.0
123,106.40699325625,106.71232126250001,67.0,100.0
124,106.89879675625001,107.24715756875001,67.0,100.0
125,107.39060025625001,107.779022475,66.0,107.0
126,108.13735580833334,108.47277247500001,62.0,81.0
127,108.38735580833334,109.44985580833334,59.0,78.0
128,110.63735580833334,110.94985580833334,55.0,92.0
129,111.13735580833334,111.47277247500001,64.0,89.0
130,111.63735580833334,112.01860580833335,55.0,79.0
131,112.13735580833334,112.64777247500001,54.0,72.0
132,112.63735580833334,112.99985580833334,62.0,88.0
133,113.13735580833334,113.560272475,62.0,92.0
134,113.63735580833334,113.82485580833334,60.0,96.0
135,113.88735580833334,114.15193914166667,59.0,69.0
136,114.13735580833334,115.46860580833334,60.0,77.0
137,115.63735580833334,115.79985580833335,59.0,78.0
138,115.88735580833334,116.02277247500001,60.0,69.0
139,116.13735580833334,116.48735580833335,62.0,75.0
140,116.63735580833334,116.95193914166668,59.0,77.0
141,117.13735580833334,117.76027247500001,57.0,77.0
142,118.13735580833334,118.47068914166668,59.0,92.0
143,118.63650200625001,119.00740381250002,59.0,81.0
144,119.12830550625002,119.50740403750001,60.0,82.0
145,119.62010900625,119.8188795875,59.0,78.0
146,119.86601075625,120.11191250625001,62.0,97.0
147,120.35781425625001,120.72051933750001,62.0,86.0
148,120.84961775625001,121.21437201875001,64.0,82.0
149,121.34142125625002,121.70617551875002,66.0,93.0
150,122.57093000625001,122.90289736875,69.0,93.0
151,123.06273350625001,123.30043853125001,67.0,96.0
152,123.55453700625002,123.71847150625001,66.0,92.0
153,123.80043875625002,124.191832375,67.0,95.0
154,124.29224225625,124.52584891875001,64.0,78.0
155,124.53814400625001,124.86191464375001,62.0,85.0
156,125.02994750625001,125.51560346250001,62.0,92.0
157,126.50578139166667,126.82809559166667,66.0,112.0
158,127.00164939166667,127.452062825,67.0,97.0
159,127.49751739166668,127.90660849166667,64.0,93.0
160,127.99338539166668,128.41487319166666,62.0,93.0
161,128.48925339166667,128.74958409166666,64.0,93.0
162,128.98512139166667,129.30330335833335,55.0,86.0
163,129.48098939166667,129.65041095833334,60.0,92.0
164,129.72892339166668,129.93966729166667,59.0,72.0
165,129.97685739166667,130.22685750833332,60.0,96.0
166,130.47272539166667,131.431403525,67.0,96.0
167,131.71239539166666,131.93346987500001,64.0,86.0
168,131.96032939166668,133.31363580833334,67.0,100.0
169,133.44793339166668,133.92520634166667,66.0,90.0
170,133.94380139166668,136.14008340833334,67.0,95.0
171,136.59256295833333,136.77024899166668,65.0,72.0
172,136.75372005833333,136.929339975,67.0,69.0
173,136.916943275,138.26198522500002,65.0,83.0
174,150.80331339166668,150.968602725,59.0,97.0
175,151.05124739166666,151.259925175,60.0,82.0
176,151.29918139166668,151.44794179166666,59.0,81.0
177,151.54711539166667,151.861165125,59.0,93.0
178,152.04298339166667,152.76819034166667,57.0,95.0
179,154.7702573916667,155.00579469166667,59.0,95.0
180,155.01819139166668,155.276455975,60.0,78.0
181,155.26612539166666,155.437613075,59.0,57.0
182,155.51405939166668,155.85083640833335,59.0,86.0
183,156.50579539166668,156.72893599166667,55.0,86.0
184,156.00992739166668,156.79711784166668,57.0,88.0
185,157.00166339166668,157.638027325,50.0,78.0
186,158.73720139166667,158.939680825,59.0,95.0
187,158.9851353916667,159.17728424166668,60.0,69.0
188,159.23306939166667,159.354970275,59.0,77.0
189,159.48100339166666,159.67315224166668,57.0,86.0
190,159.9768713916667,160.42935094166668,55.0,83.0
191,160.47273939166666,160.69174775833335,55.0,90.0
192,161.21654139166668,161.41902082500002,50.0,76.0
193,161.46447539166667,161.604971325,52.0,69.0
194,161.71240939166668,162.96447609166668,57.0,88.0
195,162.95207939166667,163.14009600833333,50.0,85.0
196,163.2000133916667,163.40455894166666,52.0,82.0
197,163.44794739166667,163.59877390833333,55.0,85.0
198,163.69588139166666,164.09877414166667,59.0,93.0
199,164.1917493916667,164.332245325,60.0,93.0
200,164.43968339166668,164.9789398416667,55.0,81.0
201,164.93555139166668,165.99340312500001,57.0,89.0
202,166.67108939166667,166.94381679166668,59.0,88.0
203,166.91902339166668,167.18142020833335,60.0,73.0
204,167.16695739166667,167.3219161416667,59.0,73.0
205,167.41489139166669,167.7124121916667,59.0,88.0
206,167.9107593916667,168.286792625,57.0,79.0
207,168.4066273916667,169.62150399166669,62.0,99.0
208,170.63803339166668,170.834314475,62.0,95.0
209,170.88596739166667,170.99960380833335,55.0,72.0
210,171.13390139166668,171.23927334166666,55.0,74.0
211,171.38183539166667,171.702083475,54.0,70.0
212,171.87770339166667,172.340513525,54.0,72.0
213,172.37357139166667,172.75993520833333,55.0,85.0
214,172.86943939166667,173.61737362500003,57.0,86.0
215,174.6049773916667,174.76613449166666,59.0,100.0
216,174.85291139166668,174.98927509166668,60.0,69.0
217,175.10084539166667,175.24960579166668,59.0,92.0
218,175.34877939166668,175.67315970833334,57.0,90.0
219,175.84464739166668,176.27646577500002,55.0,90.0
220,176.34051539166668,176.66282959166668,62.0,99.0
221,176.8363833916667,176.93762310833336,55.0,78.0
222,177.08431739166667,177.22068109166668,55.0,82.0
223,177.3322513916667,177.441755575,62.0,90.0
224,177.58018539166667,177.9954748416667,62.0,96.0
225,178.07605339166668,178.22274767500002,60.0,81.0
226,178.32398739166666,178.830185975,60.0,89.0
227,179.31572339166667,179.52233505833334,55.0,78.0
228,179.56365739166668,179.95002120833334,62.0,90.0
229,180.05952539166668,180.19382297500002,60.0,78.0
230,180.30745939166667,180.695889325,60.0,96.0
231,180.80332739166667,181.111178775,55.0,88.0
232,181.29919539166667,183.243411175,62.0,89.0
233,185.51407339166667,185.90043720833336,59.0,107.0
234,186.00994139166667,186.35291675833335,59.0,95.0
235,186.50580939166667,186.94589224166668,60.0,112.0
236,187.00167739166668,187.11944604166666,59.0,96.0
237,187.2496113916667,187.57399170833335,62.0,100.0
238,187.74547939166666,188.2661407916667,62.0,122.0
239,188.2413473916667,188.54713265833334,64.0,99.0
240,188.73721539166667,189.311595825,62.0,102.0
241,189.72895139166667,190.036802775,67.0,100.0
242,190.22481939166667,190.576059225,67.0,100.0
243,190.72068739166667,191.109117325,66.0,107.0
244,191.4644893916667,191.797134175,62.0,81.0
245,191.71242339166668,192.76614289166668,59.0,78.0
246,193.94382939166667,194.25374689166668,55.0,92.0
247,194.4396973916667,194.772342175,64.0,89.0
248,194.93556539166667,195.31366474166668,55.0,79.0
249,195.4314333916667,195.93763197500002,54.0,72.0
250,195.92730139166667,196.2868056916667,62.0,88.0
251,196.42316939166668,196.84259107500003,62.0,92.0
252,196.91903739166668,197.10498789166667,60.0,96.0
253,197.16697139166666,197.42936820833336,59.0,69.0
254,197.41490539166668,198.73515394166668,60.0,77.0
255,198.90250939166668,199.06366649166668,59.0,78.0
256,199.15044339166667,199.28474097500003,60.0,69.0
257,199.39837739166668,199.74548499166667,62.0,75.0
258,199.8942453916667,200.20622900833337,59.0,77.0
259,200.3901133916667,201.00788227500001,57.0,77.0
260,201.38184939166666,201.71242805833333,59.0,92.0
261,201.8777173916667,202.25168450833337,59.0,81.0
262,202.37358539166667,202.75581697500002,60.0,82.0
263,202.8694533916667,203.06986670833334,59.0,78.0
264,203.11738739166668,203.36532139166667,62.0,97.0
265,203.61325539166668,203.9789580416667,62.0,86.0
266,204.10912339166669,204.47689215833333,64.0,82.0
267,204.6049913916667,204.97276015833336,66.0,93.0
268,205.84466139166668,206.17937229166668,69.0,93.0
269,206.34052939166668,206.58019892500002,67.0,96.0
270,206.83639739166668,207.001686725,66.0,92.0
271,207.0843313916667,207.478959675,67.0,95.0
272,207.58019939166667,207.8157366916667,64.0,78.0
273,207.82813339166668,208.154579825,62.0,85.0
274,208.32400139166668,208.81367104166668,62.0,92.0
275,209.8116053916667,210.13391959166668,66.0,112.0
276,210.3074733916667,210.757886825,67.0,97.0
277,210.80334139166666,211.21243249166668,64.0,93.0
278,211.2992093916667,211.7206971916667,62.0,93.0
279,211.79507739166667,212.05540809166666,64.0,93.0
280,212.2909453916667,212.60912735833335,55.0,86.0
281,212.78681339166667,212.95623495833337,60.0,92.0
282,213.03474739166668,213.24549129166667,59.0,72.0
283,213.2826813916667,213.53268150833335,60.0,96.0
284,213.77854939166667,214.73722752500004,67.0,96.0
285,215.0182193916667,215.23929387500002,64.0,86.0
286,215.2661533916667,216.61945980833335,67.0,100.0
287,216.5058233916667,216.81160865833334,69.0,96.0
288,217.00169139166667,217.408716375,69.0,107.0
289,217.4975593916667,219.770287725,67.0,96.0
290,221.21656939166667,221.60293320833335,59.0,107.0
291,221.7124373916667,222.05541275833335,59.0,95.0
292,222.20830539166667,222.64838824166668,60.0,112.0
293,222.7041733916667,222.8219420416667,59.0,96.0
294,222.9521073916667,223.27648770833335,62.0,100.0
295,223.4479753916667,223.96863679166668,62.0,122.0
296,223.9438433916667,224.24962865833334,64.0,99.0
297,224.4397113916667,225.01409182500004,62.0,102.0
298,225.43144739166667,225.739298775,67.0,100.0
299,225.9273153916667,226.27855522500002,67.0,100.0
300,226.42318339166667,226.81161332500002,66.0,107.0
301,227.16698539166669,227.49963017500002,62.0,81.0
302,227.41491939166667,228.46863889166667,59.0,78.0
303,229.6463253916667,229.9562428916667,55.0,92.0
304,230.1421933916667,230.474838175,64.0,89.0
305,230.63806139166667,231.01616074166668,55.0,79.0
306,231.1339293916667,231.640127975,54.0,72.0
307,231.62979739166667,231.9893016916667,62.0,88.0
308,232.1256653916667,232.54508707500003,62.0,92.0
309,232.62153339166667,232.8074838916667,60.0,96.0
310,232.8694673916667,233.13186420833335,59.0,69.0
311,233.1174013916667,234.43764994166668,60.0,77.0
312,234.60500539166668,234.7661624916667,59.0,78.0
313,234.85293939166667,234.98723697500003,60.0,69.0
314,235.10087339166668,235.44798099166667,62.0,75.0
315,235.59674139166668,235.90872500833336,59.0,77.0
316,236.09260939166668,236.71037827500004,57.0,77.0
317,237.0843453916667,237.41492405833336,59.0,92.0
318,237.5802133916667,237.95418050833337,59.0,81.0
319,238.0760813916667,238.458312975,60.0,82.0
320,238.5719493916667,238.77236270833336,59.0,78.0
321,238.81988339166668,239.0678173916667,62.0,97.0
322,239.3157513916667,239.68145404166668,62.0,86.0
323,239.81161939166668,240.17938815833335,64.0,82.0
324,240.30748739166668,240.67525615833335,66.0,93.0
325,241.5471573916667,241.8818682916667,69.0,93.0
326,242.04302539166667,242.28269492500002,67.0,96.0
327,242.5388933916667,242.704182725,66.0,92.0
328,242.7868273916667,243.18145567500002,67.0,95.0
329,243.2826953916667,243.5182326916667,64.0,78.0
330,243.5306293916667,243.85707582500004,62.0,85.0
331,244.02649739166668,244.51616704166668,62.0,92.0
332,245.51410139166669,245.8364155916667,66.0,112.0
333,246.0099693916667,246.460382825,67.0,97.0
334,246.5058373916667,246.91492849166667,64.0,93.0
335,247.0017053916667,247.42319319166668,62.0,93.0
336,247.4975733916667,247.7579040916667,64.0,93.0
337,247.9934413916667,248.31162335833335,55.0,86.0
338,248.4893093916667,248.65873095833336,60.0,92.0
339,248.7372433916667,248.9479872916667,59.0,72.0
340,248.9851773916667,249.23517750833335,60.0,96.0
341,249.48104539166667,250.43972352500003,67.0,96.0
342,250.7207153916667,250.94178987500004,64.0,86.0
343,250.9686493916667,252.32195580833337,67.0,100.0
344,252.45625339166668,252.9335263416667,66.0,90.0
345,252.9521213916667,255.14840340833337,67.0,95.0
346,257.6628673916667,257.914933625,64.0,82.0
347,257.9108013916667,259.6360088083334,62.0,88.0
348,261.38187739166665,261.7062577083334,66.0,99.0
349,261.8777453916667,262.185596775,67.0,92.0
350,262.3736133916667,262.61741515833336,64.0,85.0
351,262.8694813916667,263.33642375833335,62.0,92.0
352,263.36534939166665,263.592622225,64.0,86.0
353,263.8612173916667,264.64840784166665,55.0,89.0
354,264.84055669166673,265.074027875,60.0,95.0
355,265.0719617583334,265.346755275,59.0,66.0
356,265.34882139166666,265.6711355916667,60.0,78.0
357,265.83849104166666,266.8880783083333,67.0,102.0
358,267.1587395916667,267.43353310833334,64.0,86.0
359,267.54097117500004,269.3095670416667,67.0,86.0
360,269.8426251416667,270.37774935833335,66.0,93.0
361,270.5513031583333,275.83849570833337,67.0,90.0
