,start,end,pitch,velocity
0,1.0490689333333334,1.7026219583333335,47.0,50.0
1,0.5414549333333334,1.7322327750000002,40.0,60.0
2,2.0642969333333334,2.607866925,55.0,60.0
3,1.5566829333333334,2.624787391666667,59.0,81.0
4,2.5719109333333336,3.925548266666667,38.0,70.0
5,3.0795249333333334,3.976309666666667,45.0,37.0
6,3.5871389333333337,4.058796941666667,50.0,44.0
7,3.5871389333333337,4.58121635,62.0,66.0
8,3.5871389333333337,4.608712108333334,66.0,56.0
9,4.094752933333334,4.693314441666667,57.0,49.0
10,5.617594933333334,6.093483058333334,55.0,69.0
11,4.602366933333334,6.520724841666667,43.0,83.0
12,5.1099809333333335,6.563026008333334,50.0,59.0
13,6.125208933333334,6.639168108333334,55.0,56.0
14,6.632822933333334,6.639168108333334,55.0,49.0
15,5.617594933333334,6.706849975000001,59.0,68.0
16,5.617594933333334,6.715310208333334,62.0,68.0
17,7.140436933333334,7.612094941666667,48.0,40.0
18,6.632822933333334,7.669201516666668,64.0,55.0
19,6.632822933333334,7.6988123333333345,36.0,58.0
20,6.632822933333334,7.6988123333333345,60.0,57.0
21,8.155664933333334,8.591366950000001,62.0,71.0
22,8.155664933333334,8.599827183333334,57.0,66.0
23,8.155664933333334,8.604057300000001,38.0,43.0
24,8.155664933333334,8.608287416666668,66.0,71.0
25,8.663278933333334,9.443735458333334,67.0,51.0
26,8.663278933333334,9.515647441666667,64.0,56.0
27,8.663278933333334,9.629860591666668,59.0,51.0
28,9.678506933333335,9.801180316666668,59.0,36.0
29,8.663278933333334,9.980960275000001,40.0,64.0
30,9.170892933333334,10.042296966666667,47.0,52.0
31,9.678506933333335,10.1776607,52.0,56.0
32,10.186120933333335,10.729690925000002,64.0,57.0
33,9.678506933333335,10.750841508333334,67.0,81.0
34,11.201348933333334,12.019876508333335,54.0,48.0
35,10.693734933333335,12.203886583333334,47.0,71.0
36,12.216576933333334,12.724190933333334,59.0,64.0
37,11.708962933333334,12.724190933333334,66.0,93.0
38,12.724190933333334,14.896355841666669,50.0,47.0
39,12.724190933333334,14.980958175000001,43.0,31.0
40,12.724190933333334,15.086711091666668,55.0,48.0
41,12.724190933333334,15.126897200000002,62.0,57.0
42,12.724190933333334,15.129012258333335,59.0,55.0
43,15.262260933333335,17.639195808333334,62.0,58.0
44,15.262260933333335,17.655862475,66.0,48.0
45,15.262260933333335,17.680862475,57.0,47.0
46,15.262260933333335,17.695445808333332,38.0,33.0
47,15.262260933333335,17.732945808333334,50.0,41.0
48,18.276695808333333,18.98502914166667,50.0,62.0
49,17.776695808333333,19.010029141666667,43.0,85.0
50,18.776695808333333,20.185029141666668,62.0,93.0
51,19.276695808333333,20.189195808333334,59.0,66.0
52,19.776695808333333,21.17252914166667,42.0,69.0
53,21.276695808333333,21.822529141666667,62.0,60.0
54,20.776695808333333,21.824612475000002,66.0,95.0
55,20.276695808333333,21.880862475,59.0,63.0
56,21.776695808333333,23.176695808333335,40.0,69.0
57,22.276695808333333,23.193362475,47.0,42.0
58,22.776695808333333,23.335029141666666,52.0,44.0
59,23.276695808333333,23.82877914166667,59.0,62.0
60,22.776695808333333,23.872529141666668,64.0,76.0
61,24.276695808333336,24.94127914166667,54.0,52.0
62,23.776695808333333,25.039195808333332,47.0,68.0
63,25.276695808333336,25.75377914166667,59.0,69.0
64,24.776695808333336,25.755862475,66.0,99.0
65,25.026695808333336,25.764195808333334,62.0,56.0
66,26.026695808333336,27.20978085,55.0,56.0
67,25.776695808333336,27.43859415,48.0,78.0
68,26.27757851666667,27.779695458333336,59.0,59.0
69,27.294526516666668,27.783932741666668,55.0,56.0
70,26.53181551666667,27.796644591666666,62.0,68.0
71,27.817831008333336,28.364440558333335,59.0,67.0
72,27.813593725,28.5445251,54.0,69.0
73,27.803000516666668,28.752151983333334,47.0,72.0
74,28.817829875,29.309354741666667,67.0,58.0
75,28.817829875,29.313592025000002,64.0,56.0
76,28.817829875,29.34113436666667,59.0,52.0
77,28.817829875,29.353846216666668,40.0,73.0
78,28.819948516666667,29.377151275000003,52.0,73.0
79,30.34537051666667,31.025454491666668,48.0,52.0
80,29.836896516666666,31.076301891666667,41.0,70.0
81,30.85384451666667,31.88986029166667,57.0,61.0
82,30.85384451666667,31.891978933333334,60.0,64.0
83,30.85384451666667,31.891978933333334,67.0,64.0
84,31.36231851666667,31.898334858333335,53.0,38.0
85,32.633503516666664,32.90045236666667,54.0,67.0
86,32.37926651666667,32.991553958333334,50.0,64.0
87,31.87079251666667,33.32206205833334,38.0,70.0
88,32.12502951666667,33.34982741875,45.0,51.0
89,33.14197751666667,33.481406293750005,50.0,48.0
90,33.39807300625,33.887107825,54.0,72.0
91,32.88774051666667,33.92219552500001,57.0,86.0
92,33.924388506250004,35.16743063333333,43.0,75.0
93,34.449758745833336,35.20622370833333,50.0,39.0
94,35.48424074583333,36.07260238333333,59.0,56.0
95,34.966999745833334,36.08984375,62.0,86.0
96,36.51872274583334,37.38294625,50.0,35.0
97,36.00148174583333,37.490704791666666,42.0,62.0
98,37.035963745833335,37.928204470833336,66.0,68.0
99,37.035963745833335,38.08984228333333,62.0,72.0
100,37.553204745833334,39.11354842916667,59.0,59.0
101,38.07044574583333,39.495013666666665,40.0,63.0
102,38.58768674583334,39.61139289166667,47.0,63.0
103,39.104927745833336,39.736392800000004,52.0,42.0
104,39.104927745833336,40.2213062375,64.0,76.0
105,39.622168745833335,40.4540646875,59.0,64.0
106,40.65665074583333,41.5661328375,54.0,55.0
107,40.13940974583333,41.62216727916667,47.0,69.0
108,41.43251224583334,42.17538845833334,62.0,56.0
109,41.690219516666666,42.20504944166667,59.0,77.0
110,41.17389174583334,42.21140536666667,66.0,95.0
111,42.45293051666667,43.43174296666667,55.0,39.0
112,42.198693516666665,43.78979340833334,36.0,61.0
113,43.72411551666667,44.23258951666667,55.0,55.0
114,42.707167516666665,44.23258951666667,59.0,78.0
115,42.96140451666667,44.23258951666667,62.0,55.0
116,44.23258951666667,44.73682623333333,47.0,66.0
117,45.24953751666667,45.813096200000004,40.0,48.0
118,45.24953751666667,46.251655025000005,67.0,63.0
119,45.24953751666667,46.26012959166667,64.0,62.0
120,44.74106351666667,46.26860415833333,59.0,53.0
121,46.77495951666667,47.471992625,52.0,44.0
122,46.26648551666667,47.60546705,45.0,69.0
123,47.79190751666667,48.30038151666667,57.0,52.0
124,47.28343351666667,48.30038151666667,60.0,65.0
125,47.28343351666667,48.30038151666667,64.0,61.0
126,48.30038151666667,50.67229411666667,50.0,55.0
127,48.213517208333336,50.694033250000004,38.0,56.0
128,48.26648325,50.69675064166667,62.0,61.0
129,48.51648296666667,50.71305499166667,74.0,73.0
130,48.31521200833333,50.72120716666667,67.0,66.0
131,48.404194958333335,50.72664195,69.0,67.0
132,51.6339074125,51.984747275000004,52.0,48.0
133,50.49294626666667,52.161217625,40.0,71.0
134,51.1297064125,52.1654193,47.0,56.0
135,51.6339074125,52.6633177875,64.0,65.0
136,52.1381084125,52.757855475,59.0,63.0
137,53.6507114125,53.9574336875,50.0,38.0
138,53.1465104125,54.081383100000004,45.0,50.0
139,52.6423094125,54.114996500000004,38.0,70.0
140,54.1549124125,54.7095335125,62.0,69.0
141,53.6507114125,54.76205445,66.0,102.0
142,56.65005039166667,57.453769775,64.0,51.0
143,56.65005039166667,57.49302599166667,60.0,53.0
144,56.154182391666666,57.534348325,55.0,61.0
145,55.65831439166667,57.738893875,48.0,68.0
146,54.6591134125,58.10253040833334,36.0,69.0
147,55.16244639166667,58.158315558333335,43.0,38.0
148,57.88972039166667,58.536414908333334,48.0,62.0
149,58.385588391666666,58.64798520833334,55.0,55.0
150,58.13765439166667,58.656249675000005,60.0,75.0
151,57.64178639166667,58.69757200833334,64.0,86.0
152,59.62525839166667,59.920713075,52.0,41.0
153,59.12939039166667,60.019886675,47.0,42.0
154,58.633522391666666,60.12319250833333,40.0,78.0
155,59.62525839166667,60.594267108333334,64.0,65.0
156,59.62525839166667,60.60666380833334,67.0,65.0
157,60.12112639166667,60.687242358333336,59.0,69.0
158,61.60873039166667,61.916581775000004,50.0,51.0
159,61.11286239166667,62.11079674166667,45.0,42.0
160,60.616994391666665,62.168648008333335,38.0,69.0
161,61.60873039166667,62.635590375,62.0,79.0
162,61.60873039166667,62.666582125000005,66.0,89.0
163,62.10459839166667,62.72649950833333,57.0,68.0
164,63.59220239166667,63.97856620833333,48.0,62.0
165,62.60046639166667,64.39798789166667,36.0,76.0
166,63.09633439166667,64.58600450833333,43.0,34.0
167,64.08807039166666,64.61493014166666,55.0,59.0
168,63.59220239166667,64.619062375,60.0,66.0
169,63.59220239166667,64.62939295833334,64.0,67.0
170,64.58393839166666,66.02405556250001,38.0,81.0
171,65.07938300625001,66.05479328125001,45.0,54.0
172,65.57118650625002,66.15520316250002,50.0,46.0
173,65.57118650625002,66.58962958750001,62.0,68.0
174,67.04659700625001,67.89085968125,50.0,61.0
175,66.55479350625001,67.92569576250001,43.0,83.0
176,68.03020400625002,68.57938458125001,59.0,66.0
177,67.53840050625001,68.58963048750002,62.0,72.0
178,69.01381100625001,69.66954900625001,54.0,50.0
179,68.52200750625,69.92569666250002,42.0,73.0
180,69.50561450625001,70.51381168125,66.0,100.0
181,69.99741800625002,70.52200840625001,62.0,60.0
182,70.48922150625,71.78635323750001,40.0,74.0
183,70.98102500625001,71.89700902500002,47.0,38.0
184,71.47282850625001,72.04045171250002,52.0,35.0
185,71.47282850625001,72.47897650000002,67.0,79.0
186,71.96463200625001,72.49946831250001,64.0,66.0
187,72.94823900625,73.79660004375,54.0,58.0
188,72.45643550625002,73.91955091875,47.0,71.0
189,73.68594425625001,74.45848558750001,62.0,54.0
190,73.44004250625001,74.46668231250001,66.0,99.0
191,73.93184600625001,74.4789774,59.0,69.0
192,74.91545300625,75.59168281875002,55.0,45.0
193,74.42364950625002,75.70028942500001,48.0,65.0
194,75.40725650625001,76.41340450000001,64.0,66.0
195,75.40725650625001,76.43594549375001,67.0,67.0
196,75.89906000625001,76.54250291875002,60.0,51.0
197,76.88266700625002,77.53225746250001,54.0,55.0
198,76.39086350625001,77.67365096875001,47.0,69.0
199,77.37447050625,78.352544475,62.0,78.0
200,77.37447050625,78.383794475,66.0,93.0
201,77.86712780833334,78.50046114166668,59.0,66.0
202,78.86712780833334,79.508794475,57.0,60.0
203,78.36712780833334,80.22826780833334,45.0,86.0
204,79.86669739166668,80.40595384166667,57.0,67.0
205,79.36712780833334,80.47000345833334,64.0,89.0
206,79.36712780833334,80.47000345833334,67.0,89.0
207,80.61049939166668,81.21587157500001,55.0,50.0
208,80.85843339166668,81.28611954166668,64.0,83.0
209,80.36256539166668,81.30058235833334,48.0,77.0
210,81.10636739166668,81.538185775,60.0,69.0
211,81.35430139166668,81.934880175,50.0,71.0
212,81.85016939166667,82.381161375,66.0,77.0
213,81.60223539166668,82.41008700833333,57.0,70.0
214,82.09810339166667,82.42454982500001,62.0,65.0
215,82.34603739166667,83.78407180833334,43.0,67.0
216,82.84190539166667,83.813238475,50.0,55.0
217,83.33777339166667,84.36115514166667,62.0,90.0
218,83.83407180833333,84.363238475,55.0,73.0
219,84.83407180833333,85.59240514166667,54.0,36.0
220,84.33407180833333,85.83615514166667,42.0,70.0
221,85.83407180833333,86.42990514166667,62.0,52.0
222,85.33407180833333,86.44657180833335,66.0,83.0
223,86.08407180833333,86.844488475,59.0,54.0
224,87.33407180833333,87.67157180833334,59.0,32.0
225,86.33407180833333,87.706988475,40.0,67.0
226,86.83407180833333,87.71115514166667,47.0,39.0
227,87.33407180833333,87.91532180833335,52.0,37.0
228,87.83407180833333,88.32573847500001,64.0,71.0
229,87.33407180833333,88.36532180833333,67.0,82.0
230,88.83407180833333,89.50907180833335,54.0,43.0
231,88.33407180833333,89.62782180833334,47.0,68.0
232,89.33407180833333,90.34240514166667,66.0,102.0
233,89.83407180833333,90.34657180833334,62.0,63.0
234,90.33407180833333,91.675738475,36.0,73.0
235,90.83407180833333,91.71740514166667,43.0,53.0
236,91.33407180833333,91.925738475,48.0,47.0
237,91.83407180833333,92.36740514166667,60.0,49.0
238,91.33407180833333,92.394488475,64.0,86.0
239,92.83407180833333,93.43407180833334,54.0,49.0
240,92.33407180833333,93.71115514166667,47.0,70.0
241,93.33407180833333,93.87782180833334,62.0,82.0
242,93.33407180833333,93.88407180833335,66.0,89.0
243,93.83407180833333,94.20490514166667,59.0,60.0
244,94.33407180833333,95.21532180833334,60.0,69.0
245,94.33407180833333,95.21532180833334,67.0,69.0
246,94.33407180833333,95.22365514166667,57.0,76.0
247,94.83407180833333,95.500738475,48.0,46.0
248,94.33407180833333,95.72990514166668,41.0,68.0
249,95.33407180833333,96.208218175,67.0,69.0
250,95.33407180833333,96.36190676875,57.0,65.0
251,95.33407180833333,96.37010349375001,60.0,66.0
252,97.30862850625,97.62420241875,48.0,53.0
253,97.30862850625,97.95207141875001,64.0,69.0
254,97.80043200625,98.02379276250001,55.0,52.0
255,96.32502150625001,98.06272720625,36.0,64.0
256,97.30862850625,98.16723545,60.0,72.0
257,96.81682500625,98.34141585625001,43.0,40.0
258,98.29223550625001,99.1057604625,62.0,81.0
259,98.29223550625001,99.109858825,66.0,77.0
260,98.29223550625001,99.12215391250001,57.0,72.0
261,99.52174425625,99.70617056875001,50.0,63.0
262,98.29223550625001,99.70821975000001,38.0,69.0
263,99.27584250625,99.73280992500001,66.0,112.0
264,98.78403900625001,99.73485910625,45.0,52.0
265,99.27584250625,99.90494115000001,62.0,100.0
266,99.76764600625,99.99305594375001,57.0,90.0
267,100.25944950625001,100.89059733125,36.0,81.0
268,100.25944950625001,100.9090399625,64.0,69.0
269,100.25944950625001,100.94592522500001,55.0,74.0
270,100.25944950625001,101.0975646375,60.0,68.0
271,101.24305650625,102.23281105000001,62.0,68.0
272,101.24305650625,102.23690941250001,38.0,57.0
273,101.24305650625,102.2451061375,57.0,66.0
274,101.24305650625,102.2451061375,66.0,70.0
275,102.71846700625001,103.25330331250001,55.0,72.0
276,102.96436875625001,103.72051663750001,59.0,70.0
277,103.45617225625,103.75535271875,55.0,56.0
278,102.47256525625001,103.83322160625,50.0,45.0
279,102.22666350625,103.84961505625,43.0,78.0
280,103.21027050625001,104.0237954625,67.0,93.0
281,103.70207400625,104.26764803125,62.0,78.0
282,103.94797575625,104.32092674375001,59.0,71.0
283,104.43977925625,104.83322205625001,54.0,58.0
284,104.93158275625001,105.22871403750001,54.0,58.0
285,105.42338625625001,105.58527157500001,54.0,60.0
286,104.19387750625,105.69797654375,42.0,72.0
287,104.68568100625001,105.74305853125,59.0,75.0
288,105.17748450625001,105.83732086875,66.0,89.0
289,105.66928800625001,106.10166525000001,62.0,74.0
290,105.91518975625,106.48896050625001,59.0,73.0
291,106.65289500625,107.24510838750001,52.0,68.0
292,106.16109150625,107.55043639375,40.0,66.0
293,106.40699325625,107.55453475625,47.0,41.0
294,106.89879675625001,107.70402247500002,59.0,70.0
295,107.39060025625001,107.75610580833334,52.0,54.0
296,107.63735580833334,108.05193914166668,64.0,75.0
297,107.14469850625001,108.05818914166667,67.0,90.0
298,107.88735580833334,108.20610580833335,59.0,75.0
299,108.88735580833334,109.17902247500001,62.0,53.0
300,108.38735580833334,109.23110580833334,54.0,50.0
301,108.63735580833334,109.27693914166667,59.0,60.0
302,109.38735580833334,109.54152247500001,54.0,59.0
303,108.13735580833334,109.64777247500001,47.0,58.0
304,109.63735580833334,110.04985580833335,62.0,86.0
305,109.13735580833334,110.07485580833334,66.0,100.0
306,109.88735580833334,110.16443914166668,59.0,74.0
307,110.38735580833334,110.73735580833335,55.0,62.0
308,110.63735580833334,111.04568914166667,59.0,82.0
309,110.88735580833334,111.31652247500001,55.0,69.0
310,111.38735580833334,111.73110580833334,55.0,57.0
311,110.13735580833334,111.93318914166667,48.0,75.0
312,111.63735580833334,112.06443914166668,59.0,71.0
313,111.13735580833334,112.09985580833334,62.0,100.0
314,111.88735580833334,112.11027247500002,55.0,79.0
315,112.13735580833334,112.66652247500001,47.0,86.0
316,112.63735580833334,113.00402247500001,66.0,96.0
317,112.38735580833334,113.33318914166668,59.0,44.0
318,112.88735580833334,113.63527247500001,62.0,78.0
319,113.13735580833334,114.01652247500002,40.0,69.0
320,113.63735580833334,114.03943914166668,52.0,72.0
321,113.38735580833334,114.10193914166668,47.0,57.0
322,113.88735580833334,114.11235580833335,67.0,83.0
323,114.63735580833334,115.03735580833334,53.0,67.0
324,114.88735580833334,115.19152247500001,57.0,62.0
325,114.38735580833334,115.22068914166668,48.0,59.0
326,115.38735580833334,115.66027247500001,48.0,47.0
327,114.13735580833334,115.68943914166668,41.0,64.0
328,115.63735580833334,116.10818914166668,57.0,58.0
329,115.88735580833334,116.12068914166667,53.0,61.0
330,115.13735580833334,116.16652247500001,60.0,79.0
331,115.13735580833334,116.16652247500001,67.0,79.0
332,116.63735580833334,117.24568914166667,50.0,76.0
333,116.88735580833334,117.42068914166668,57.0,82.0
334,116.13735580833334,117.66652247500001,38.0,65.0
335,116.38735580833334,117.69152247500001,45.0,42.0
336,117.38735580833334,118.03527247500001,50.0,66.0
337,117.13735580833334,118.13318914166668,66.0,122.0
338,117.63735580833334,118.154022475,62.0,82.0
339,117.88735580833334,118.16652247500001,57.0,89.0
340,118.63650200625001,118.93773165000002,55.0,73.0
341,118.88240375625001,119.15699404375,59.0,85.0
342,118.38735580833334,119.17338749375001,50.0,56.0
343,118.13735580833334,119.5237974875,43.0,76.0
344,119.37420725625002,119.53404339375001,50.0,49.0
345,119.12830550625002,120.05043706875001,62.0,97.0
346,119.62010900625,120.05453543125002,59.0,81.0
347,119.86601075625,120.08937151250001,55.0,81.0
348,120.35781425625001,120.72461770000001,59.0,64.0
349,120.60371600625001,121.0074047125,62.0,57.0
350,120.84961775625001,121.34961798125,59.0,69.0
351,121.34142125625002,121.62010990625001,54.0,44.0
352,120.11191250625001,121.75740505000002,42.0,39.0
353,121.09551950625001,121.98076580625,66.0,107.0
354,121.58732300625002,122.08527405000001,62.0,81.0
355,121.83322475625,122.19797901875,59.0,69.0
356,122.81683175625001,123.32502870625001,59.0,63.0
357,122.07912650625,123.437733675,40.0,63.0
358,122.32502825625001,123.4418320375,47.0,38.0
359,122.57093000625001,123.53814355625,52.0,63.0
360,123.30863525625001,123.58937308750001,64.0,58.0
361,123.80043875625002,124.05043886875,64.0,69.0
362,123.06273350625001,124.06478313750002,67.0,93.0
363,123.55453700625002,124.12011103125,59.0,72.0
364,124.78404575625001,125.05043931875001,62.0,61.0
365,124.53814400625001,125.142652475,59.0,66.0
366,124.29224225625,125.27380007500001,54.0,65.0
367,124.04634050625,125.42339030625001,47.0,63.0
368,125.27584925625001,125.56068545000001,62.0,81.0
369,125.76765275625002,125.95412825000001,62.0,62.0
370,125.02994750625001,125.98486596875001,66.0,112.0
371,125.52175100625001,125.99306269375,59.0,78.0
372,126.25945625625,127.04503784166667,48.0,35.0
373,126.75371539166667,127.05123619166667,59.0,64.0
374,126.50578139166667,127.10288910833334,55.0,74.0
375,127.24958339166668,127.576029825,55.0,52.0
376,126.01355450625002,127.71032740833334,36.0,68.0
377,127.74545139166668,127.91280684166667,55.0,72.0
378,127.49751739166668,127.91280684166667,59.0,73.0
379,127.00164939166667,127.92313742500001,62.0,97.0
380,128.73718739166668,128.89214614166667,66.0,96.0
381,127.99338539166668,128.96652634166668,47.0,69.0
382,128.48925339166667,129.03057595833334,59.0,73.0
383,128.98512139166667,129.59669192500002,52.0,66.0
384,129.48098939166667,129.900411075,67.0,83.0
385,129.72892339166668,129.92313835833335,64.0,70.0
386,129.23305539166668,129.94586564166667,59.0,66.0
387,130.7206593916667,130.94999834166669,60.0,47.0
388,130.22479139166668,131.00165125833334,52.0,52.0
389,130.47272539166667,131.04917194166669,57.0,61.0
390,131.21652739166666,131.35908944166667,52.0,61.0
391,129.97685739166667,131.41280847500002,45.0,68.0
392,130.96859339166667,131.92313929166667,64.0,95.0
393,131.46446139166667,131.93346987500001,60.0,76.0
394,131.71239539166666,131.99958560833335,57.0,68.0
395,132.45619739166668,133.06983404166667,50.0,62.0
396,132.70413139166666,133.328098625,57.0,61.0
397,133.44793339166668,133.90661129166668,62.0,68.0
398,133.19999939166667,133.91074352500002,50.0,49.0
399,132.20826339166666,133.91280964166668,45.0,63.0
400,132.95206539166668,133.92727245833333,66.0,99.0
401,133.69586739166667,133.94586750833335,57.0,72.0
402,131.96032939166668,133.94999974166666,38.0,70.0
403,133.94380139166668,134.28057840833333,58.0,74.0
404,133.94380139166668,134.499586775,65.0,54.0
405,134.19173539166667,134.555371925,57.0,56.0
406,133.94380139166668,134.61528930833333,62.0,63.0
407,134.43966939166668,134.96446302500001,58.0,62.0
408,133.94380139166668,135.342562375,46.0,89.0
409,134.68760339166667,135.53677734166666,57.0,63.0
410,134.93553739166668,135.91694280833335,65.0,83.0
411,135.43140539166666,135.937603975,58.0,85.0
412,135.67933939166667,135.98512465833335,57.0,56.0
413,136.67107539166668,136.93347220833334,57.0,61.0
414,136.42314139166666,136.954133375,53.0,88.0
415,136.17520739166667,137.04504250833332,48.0,47.0
416,135.92727339166666,137.76611722500002,41.0,67.0
417,137.16694339166668,137.80124120833335,48.0,45.0
418,137.66281139166668,138.001654525,53.0,66.0
419,137.41487739166666,138.36115882500002,57.0,66.0
420,136.91900939166666,138.37562164166667,60.0,90.0
421,138.65454739166668,138.91694420833335,57.0,59.0
422,138.15867939166668,139.08429965833335,48.0,37.0
423,138.40661339166667,139.47686182500001,53.0,63.0
424,137.91074539166667,139.78264709166666,41.0,52.0
425,139.15041539166668,139.83223389166668,48.0,44.0
426,139.64628339166669,140.25578780833334,53.0,57.0
427,139.39834939166667,140.47892840833333,57.0,61.0
428,138.90248139166667,140.691738425,60.0,90.0
429,140.63801939166666,140.82603600833335,57.0,62.0
430,140.1421513916667,140.96033359166668,48.0,48.0
431,140.39008539166667,141.218598175,53.0,54.0
432,141.13388739166666,141.27025109166667,48.0,58.0
433,139.89421739166667,141.28471390833334,41.0,71.0
434,140.88595339166667,141.844631525,60.0,96.0
435,141.62975539166666,141.87768939166668,53.0,77.0
436,141.38182139166668,141.87768939166668,57.0,88.0
437,142.37355739166668,142.95207005833333,48.0,69.0
438,142.62149139166667,143.17107842500002,55.0,69.0
439,142.12562339166666,143.20620240833335,43.0,61.0
440,141.87768939166668,143.22479745833334,36.0,83.0
441,143.11735939166667,143.31157435833333,48.0,79.0
442,142.86942539166668,143.68967370833334,63.0,100.0
443,143.36529339166668,143.79917789166666,60.0,86.0
444,143.61322739166667,143.846698575,55.0,85.0
445,144.60496339166667,144.88388914166669,58.0,95.0
446,144.35702939166669,144.95413710833333,53.0,73.0
447,144.10909539166667,145.33017034166667,50.0,61.0
448,145.10083139166667,145.34463315833335,53.0,69.0
449,143.86116139166668,145.38802160833333,46.0,93.0
450,144.85289739166666,145.56777375833335,65.0,86.0
451,145.3487653916667,145.7082696916667,58.0,92.0
452,145.59669939166668,145.85703009166667,62.0,71.0
453,146.58843539166668,146.85909667500002,54.0,82.0
454,146.34050139166666,146.90041900833333,50.0,72.0
455,147.08430339166668,147.34463409166668,50.0,62.0
456,146.83636939166666,147.35496467500002,57.0,85.0
457,147.33223739166667,147.56984080833334,55.0,89.0
458,145.84463339166666,147.578105275,38.0,71.0
459,146.09256739166668,147.84876655833335,45.0,43.0
460,147.82810539166667,149.784717875,54.0,88.0
461,147.82810539166667,149.81777574166668,38.0,77.0
462,147.58017139166668,149.85083360833335,57.0,64.0
463,150.30744539166668,151.15868545833334,50.0,61.0
464,149.81157739166667,151.19380944166667,43.0,83.0
465,151.29918139166668,151.85290065833334,59.0,66.0
466,150.80331339166668,151.86323124166668,62.0,72.0
467,152.29091739166668,152.95207472500002,54.0,50.0
468,151.79504939166668,153.21033930833335,42.0,73.0
469,152.78678539166668,153.80331479166668,66.0,100.0
470,153.28265339166668,153.81157925833335,62.0,60.0
471,153.7785213916667,155.08637324166668,40.0,74.0
472,154.27438939166666,155.1979435416667,47.0,38.0
473,154.7702573916667,155.34257170833334,52.0,35.0
474,154.7702573916667,155.78472067500002,67.0,79.0
475,155.26612539166666,155.80538184166667,64.0,66.0
476,156.25786139166667,157.11323369166666,54.0,58.0
477,155.76199339166666,157.2372006916667,47.0,71.0
478,157.00166339166668,157.780589375,62.0,54.0
479,156.75372939166667,157.78885384166668,66.0,99.0
480,157.24959739166667,157.80125054166666,59.0,69.0
481,158.24133339166667,158.9231518916667,55.0,45.0
482,157.74546539166667,159.032656075,48.0,65.0
483,158.73720139166667,159.751664675,64.0,66.0
484,158.73720139166667,159.77439195833335,67.0,67.0
485,159.23306939166667,159.881830025,60.0,51.0
486,160.22480539166668,160.879764375,54.0,55.0
487,159.72893739166668,161.02232642500002,47.0,69.0
488,160.72067339166668,161.697946575,62.0,78.0
489,160.72067339166668,161.728938325,66.0,93.0
490,161.21654139166668,161.84464085833335,59.0,66.0
491,162.20827739166668,162.844641325,57.0,60.0
492,161.71240939166668,163.56158380833335,45.0,86.0
493,163.2000133916667,163.73926984166667,57.0,67.0
494,162.70414539166669,163.80331945833333,64.0,89.0
495,163.94381539166667,164.54918757500002,55.0,50.0
496,164.1917493916667,164.6194355416667,64.0,83.0
497,163.69588139166666,164.63389835833334,48.0,77.0
498,164.43968339166668,164.871501775,60.0,69.0
499,164.68761739166666,165.268196175,50.0,71.0
500,165.1834853916667,165.714477375,66.0,77.0
501,164.93555139166668,165.74340300833336,57.0,70.0
502,165.43141939166668,165.757865825,62.0,65.0
503,165.67935339166667,167.11737059166668,43.0,67.0
504,166.17522139166667,167.14629622500001,50.0,55.0
505,166.67108939166667,167.68968490833333,62.0,90.0
506,167.16695739166667,167.691751025,55.0,73.0
507,168.15869339166667,168.91075985833334,54.0,36.0
508,167.66282539166667,169.15249550833335,42.0,70.0
509,169.15042939166668,169.74133875833334,62.0,52.0
510,168.65456139166668,169.75786769166666,66.0,83.0
511,169.3983633916667,170.15249597500002,59.0,54.0
512,170.63803339166668,170.9727442916667,59.0,32.0
513,169.64629739166668,171.00786827500002,40.0,67.0
514,170.14216539166668,171.01200050833336,47.0,39.0
515,170.63803339166668,171.21447994166667,52.0,37.0
516,171.13390139166668,171.621504925,64.0,71.0
517,170.63803339166668,171.66076114166668,67.0,82.0
518,172.1256373916667,172.79505919166667,54.0,43.0
519,171.62976939166668,172.91282784166668,47.0,68.0
520,172.6215053916667,173.62150585833334,66.0,102.0
521,173.11737339166666,173.62563809166667,62.0,63.0
522,173.6132413916667,174.943820525,36.0,73.0
523,174.10910939166666,174.98514285833335,43.0,53.0
524,174.6049773916667,175.19175452500002,48.0,47.0
525,175.10084539166667,175.62977125833334,60.0,49.0
526,174.6049773916667,175.656630775,64.0,86.0
527,176.09258139166667,176.68762299166667,54.0,49.0
528,175.59671339166667,176.96241650833335,47.0,70.0
529,176.58844939166667,177.12770584166668,62.0,82.0
530,176.58844939166667,177.1339041916667,66.0,89.0
531,177.08431739166667,177.45208615833334,59.0,60.0
532,177.58018539166667,178.4541527416667,60.0,69.0
533,177.58638374166668,178.46035109166667,65.0,69.0
534,177.58018539166667,178.46241720833333,57.0,76.0
535,178.27646670833334,178.55126022500002,64.0,72.0
536,178.07605339166668,178.737210725,48.0,46.0
537,178.51407012500002,178.76613635833334,62.0,72.0
538,177.58018539166667,178.96448355833334,41.0,68.0
539,178.57192139166668,179.09258279166667,60.0,66.0
540,178.73514460833334,179.09258279166667,60.0,63.0
541,178.57192139166668,179.60084749166668,57.0,65.0
542,180.55539339166668,180.87357535833334,48.0,53.0
543,180.55539339166668,181.204154025,64.0,69.0
544,181.05126139166669,181.27646810833335,55.0,52.0
545,179.56365739166668,181.31572432500002,36.0,64.0
546,180.55539339166668,181.42109627500002,60.0,72.0
547,180.05952539166668,181.59671619166667,43.0,40.0
548,181.5471293916667,182.36737770833335,62.0,81.0
549,181.5471293916667,182.3715099416667,66.0,77.0
550,181.5471293916667,182.38390664166667,57.0,72.0
551,182.78679939166668,182.9727498916667,50.0,63.0
552,181.5471293916667,182.97481600833333,38.0,69.0
553,182.5388653916667,182.99960940833336,66.0,112.0
554,182.0429973916667,183.001675525,45.0,52.0
555,182.5388653916667,183.17316320833334,62.0,100.0
556,183.0347333916667,183.26200622500002,57.0,90.0
557,183.53060139166666,184.166965325,36.0,81.0
558,183.53060139166666,184.18556037500002,64.0,69.0
559,183.53060139166666,184.222750475,55.0,74.0
560,183.53060139166666,184.37564310833335,60.0,68.0
561,184.52233739166667,185.52027174166668,62.0,68.0
562,184.52233739166667,185.524403975,38.0,57.0
563,184.52233739166667,185.5326684416667,57.0,66.0
564,184.52233739166667,185.5326684416667,66.0,70.0
565,186.00994139166667,186.54919784166668,55.0,72.0
566,186.2578753916667,187.0202724416667,59.0,70.0
567,186.7537433916667,187.05539642500003,55.0,56.0
568,185.76200739166669,187.13390885833334,50.0,45.0
569,185.51407339166667,187.1504377916667,43.0,78.0
570,186.50580939166667,187.32605770833334,67.0,93.0
571,187.00167739166668,187.57192559166668,62.0,78.0
572,187.2496113916667,187.625644625,59.0,71.0
573,187.74547939166666,188.14217379166666,54.0,58.0
574,188.2413473916667,188.54093430833336,54.0,58.0
575,188.73721539166667,188.90043860833333,54.0,60.0
576,187.49754539166668,189.014075025,42.0,72.0
577,187.99341339166668,189.0595295916667,59.0,75.0
578,188.48928139166668,189.15457095833335,66.0,89.0
579,188.98514939166668,189.42110000833335,62.0,74.0
580,189.2330833916667,189.81159605833335,59.0,73.0
581,189.97688539166668,190.57399310833335,52.0,68.0
582,189.48101739166668,190.8818444916667,40.0,66.0
583,189.72895139166667,190.88597672500003,47.0,41.0
584,190.22481939166667,191.03473712500002,59.0,70.0
585,190.72068739166667,191.08639004166668,52.0,54.0
586,190.9686213916667,191.37977860833337,64.0,75.0
587,190.47275339166669,191.38597695833334,67.0,90.0
588,191.21655539166667,191.53267124166666,59.0,75.0
589,192.20829139166668,192.497547725,62.0,53.0
590,191.71242339166668,192.5492006416667,54.0,50.0
591,191.96035739166666,192.59465520833334,59.0,60.0
592,192.70415939166668,192.85705202500003,54.0,59.0
593,191.4644893916667,192.962423975,47.0,58.0
594,192.95209339166666,193.36118449166668,62.0,86.0
595,192.4562253916667,193.3859778916667,66.0,100.0
596,193.20002739166668,193.47482090833336,59.0,74.0
597,193.69589539166668,194.0430029916667,55.0,62.0
598,193.94382939166667,194.34878825833334,59.0,82.0
599,194.19176339166668,194.617383425,55.0,69.0
600,194.68763139166668,195.02854064166667,55.0,57.0
601,193.4479613916667,195.22895395833336,48.0,75.0
602,194.93556539166667,195.35911930833333,59.0,71.0
603,194.4396973916667,195.39424329166667,62.0,100.0
604,195.1834993916667,195.404573875,55.0,79.0
605,195.4314333916667,195.95622702500003,47.0,86.0
606,195.92730139166667,196.290937925,66.0,96.0
607,195.6793673916667,196.61738435833337,59.0,44.0
608,196.17523539166666,196.916971275,62.0,78.0
609,196.42316939166668,197.295070625,40.0,69.0
610,196.91903739166668,197.31779790833335,52.0,72.0
611,196.6711033916667,197.37978140833334,47.0,57.0
612,197.16697139166666,197.39011199166669,67.0,83.0
613,197.91077339166668,198.30746779166668,53.0,67.0
614,198.15870739166667,198.46036042500003,57.0,62.0
615,197.6628393916667,198.48928605833333,48.0,59.0
616,198.6545753916667,198.925236675,48.0,47.0
617,197.41490539166668,198.95416230833337,41.0,64.0
618,198.90250939166668,199.36945175833335,57.0,58.0
619,199.15044339166667,199.38184845833337,53.0,61.0
620,198.40664139166668,199.42730302500001,60.0,79.0
621,198.40870750833335,199.42936914166668,67.0,79.0
622,199.8942453916667,200.49755145833336,50.0,76.0
623,200.14217939166667,200.67110525833334,57.0,82.0
624,199.39837739166668,200.91490702500002,38.0,65.0
625,199.6463113916667,200.939700425,45.0,42.0
626,200.6380473916667,201.28060967500002,50.0,66.0
627,200.3901133916667,201.37771715833335,66.0,122.0
628,200.8859813916667,201.398378325,62.0,82.0
629,201.13391539166668,201.41077502500002,57.0,89.0
630,201.8777173916667,202.1814365416667,55.0,73.0
631,202.12565139166668,202.40251102500002,59.0,85.0
632,201.62978339166668,202.41903995833334,50.0,56.0
633,201.38184939166666,202.77234590833336,43.0,76.0
634,202.62151939166668,202.78267649166668,50.0,49.0
635,202.37358539166667,203.30333789166667,62.0,97.0
636,202.8694533916667,203.307470125,59.0,81.0
637,203.11738739166668,203.34259410833334,55.0,81.0
638,203.61325539166668,203.983090275,59.0,64.0
639,203.8611893916667,204.268214375,62.0,57.0
640,204.10912339166669,204.61325585833333,59.0,69.0
641,204.6049913916667,204.88598325833334,54.0,44.0
642,203.36532139166667,205.024413075,42.0,39.0
643,204.35705739166667,205.2496197916667,66.0,107.0
644,204.8529253916667,205.35499174166668,62.0,81.0
645,205.1008593916667,205.46862815833333,59.0,69.0
646,206.0925953916667,206.604992325,59.0,63.0
647,205.34879339166667,206.7186287416667,40.0,63.0
648,205.5967273916667,206.72276097500003,47.0,38.0
649,205.84466139166668,206.81986845833336,52.0,63.0
650,206.58846339166666,206.87152137500001,64.0,58.0
651,207.0843313916667,207.33639762500002,64.0,69.0
652,206.34052939166668,207.35086044166667,67.0,93.0
653,206.83639739166668,207.4066455916667,59.0,72.0
654,208.0760673916667,208.34466255833337,62.0,61.0
655,207.82813339166668,208.43763780833336,59.0,66.0
656,207.58019939166667,208.56986927500003,54.0,65.0
657,207.33226539166668,208.72069579166669,47.0,63.0
658,208.57193539166667,208.85912560833333,62.0,81.0
659,209.0678033916667,209.25582000833333,62.0,62.0
660,208.32400139166668,209.28681175833333,66.0,112.0
661,208.81986939166669,209.295076225,59.0,78.0
662,209.56367139166667,210.3508618416667,48.0,35.0
663,210.0595393916667,210.35706019166668,59.0,64.0
664,209.8116053916667,210.40871310833336,55.0,74.0
665,210.55540739166668,210.881853825,55.0,52.0
666,209.3157373916667,211.01615140833337,36.0,68.0
667,211.05127539166668,211.21863084166668,55.0,72.0
668,210.80334139166666,211.21863084166668,59.0,73.0
669,210.3074733916667,211.22896142500002,62.0,97.0
670,212.04301139166668,212.1979701416667,66.0,96.0
671,211.2992093916667,212.27235034166668,47.0,69.0
672,211.79507739166667,212.33639995833335,59.0,73.0
673,212.2909453916667,212.90251592500002,52.0,66.0
674,212.78681339166667,213.20623507500002,67.0,83.0
675,213.03474739166668,213.22896235833335,64.0,70.0
676,212.53887939166668,213.2516896416667,59.0,66.0
677,214.0264833916667,214.2558223416667,60.0,47.0
678,213.5306153916667,214.30747525833334,52.0,52.0
679,213.77854939166667,214.3549959416667,57.0,61.0
680,214.5223513916667,214.66491344166667,52.0,61.0
681,213.2826813916667,214.71863247500002,45.0,68.0
682,214.2744173916667,215.22896329166667,64.0,95.0
683,214.77028539166668,215.23929387500002,60.0,76.0
684,215.0182193916667,215.2661533916667,57.0,68.0
685,215.2661533916667,216.62359204166668,38.0,95.0
686,215.76202139166668,216.63392262500003,45.0,40.0
687,216.25788939166668,216.75582350833335,50.0,68.0
688,216.25788939166668,216.96243517500002,62.0,93.0
689,216.25788939166668,216.9645012916667,66.0,97.0
690,216.75375739166668,217.27235267500004,57.0,77.0
691,217.74549339166668,218.14425390833335,62.0,56.0
692,217.74549339166668,218.1545844916667,59.0,57.0
693,217.74549339166668,218.16078284166667,55.0,61.0
694,217.74549339166668,218.19177459166667,50.0,55.0
695,217.24962539166668,218.20830352500002,43.0,92.0
696,218.2413613916667,218.654584725,59.0,83.0
697,218.2413613916667,218.70210540833335,62.0,85.0
698,218.7372293916667,218.86532862500002,59.0,60.0
699,218.7372293916667,218.86946085833335,62.0,45.0
700,218.7372293916667,219.11119650833336,55.0,83.0
701,219.2330973916667,219.67318024166667,63.0,93.0
702,219.2330973916667,219.683510825,58.0,93.0
703,219.2330973916667,219.801279475,39.0,86.0
704,219.7289653916667,219.8653290916667,51.0,45.0
705,219.7289653916667,220.05541182500002,63.0,79.0
706,219.7289653916667,220.0946680416667,58.0,89.0
707,220.22483339166666,220.59053604166667,53.0,81.0
708,220.22483339166666,220.60706497500001,57.0,92.0
709,220.22483339166666,220.61119720833335,60.0,92.0
710,220.22483339166666,221.07607345833335,41.0,70.0
711,220.7207013916667,221.20417269166668,57.0,90.0
712,220.7207013916667,221.2103710416667,53.0,88.0
713,220.7207013916667,221.22483385833334,60.0,88.0
714,221.21656939166667,222.37152860833334,43.0,75.0
715,221.7124373916667,222.38392530833335,50.0,39.0
716,222.20830539166667,223.2496281916667,62.0,86.0
717,222.7041733916667,223.2558265416667,55.0,67.0
718,223.6959093916667,224.23929807500002,59.0,61.0
719,224.19177739166668,224.5822734416667,54.0,27.0
720,223.20004139166667,224.7062404416667,42.0,78.0
721,224.19177739166668,225.20004232500003,66.0,59.0
722,224.19177739166668,225.4624391416667,62.0,65.0
723,225.18351339166668,226.489299125,40.0,72.0
724,225.67938139166668,226.52442310833334,47.0,52.0
725,226.17524939166668,226.70624137500002,52.0,43.0
726,226.17524939166668,227.24756394166667,67.0,78.0
727,226.17524939166668,227.26202675833335,64.0,75.0
728,226.67111739166668,227.282687925,59.0,63.0
729,227.9107873916667,228.30128344166667,59.0,54.0
730,227.6628533916667,228.31368014166668,54.0,55.0
731,228.40665539166667,228.55334967500002,54.0,48.0
732,227.16698539166669,228.6607877416667,47.0,64.0
733,228.6545893916667,229.1504573916667,62.0,54.0
734,228.1587213916667,229.17318467500002,66.0,107.0
735,228.9025233916667,229.235168175,59.0,61.0
736,229.89425939166668,230.2351686416667,43.0,38.0
737,229.6463253916667,230.44797865833334,55.0,56.0
738,229.1504573916667,230.70211100833336,36.0,69.0
739,230.39012739166668,230.71450770833337,43.0,45.0
740,230.63806139166667,231.113268225,59.0,61.0
741,230.88599539166668,231.12359880833336,55.0,56.0
742,230.1421933916667,231.15045832500002,62.0,92.0
743,231.62979739166667,231.999632275,66.0,85.0
744,231.1339293916667,232.02442567500003,47.0,69.0
745,231.38186339166668,232.11533480833336,59.0,48.0
746,231.87773139166669,232.352938225,62.0,55.0
747,232.1256653916667,232.6587234916667,52.0,59.0
748,232.62153339166667,233.03062449166669,67.0,63.0
749,232.8694673916667,233.10913692500003,64.0,44.0
750,232.3735993916667,233.1174013916667,59.0,56.0
751,233.1174013916667,233.512029675,64.0,62.0
752,233.1174013916667,233.51616190833334,57.0,56.0
753,233.1174013916667,233.52029414166668,60.0,60.0
754,233.1174013916667,233.53475695833333,45.0,62.0
755,233.61326939166668,233.89426125833336,64.0,64.0
756,233.61326939166668,233.94384805833334,57.0,74.0
757,233.61326939166668,233.98723650833335,60.0,68.0
758,233.61326939166668,234.06781505833334,45.0,57.0
759,234.1091373916667,234.50789790833335,62.0,82.0
760,234.1091373916667,234.51203014166668,59.0,85.0
761,234.1091373916667,234.51616237500002,47.0,68.0
762,234.1091373916667,234.5182284916667,66.0,86.0
763,234.60500539166668,234.9521129916667,62.0,95.0
764,234.60500539166668,234.962443575,59.0,79.0
765,234.60500539166668,234.96864192500001,66.0,97.0
766,234.60500539166668,235.055418825,47.0,56.0
767,235.10087339166668,235.48723720833334,67.0,88.0
768,235.10087339166668,235.5037661416667,64.0,89.0
769,235.10087339166668,235.50789837500002,48.0,61.0
770,235.10087339166668,235.50789837500002,60.0,82.0
771,235.59674139166668,235.93558452500002,64.0,92.0
772,235.59674139166668,235.9438489916667,67.0,90.0
773,235.59674139166668,235.97070850833336,60.0,78.0
774,235.59674139166668,236.00376637500003,48.0,65.0
775,236.09260939166668,236.47277485833337,62.0,89.0
776,236.09260939166668,236.47277485833337,69.0,89.0
777,236.09260939166668,236.49756825833336,50.0,76.0
778,236.09260939166668,236.52236165833335,66.0,100.0
779,236.5884773916667,237.01822965833335,50.0,69.0
780,236.5884773916667,237.07814704166668,62.0,86.0
781,236.5884773916667,237.09467597500003,66.0,102.0
782,236.5884773916667,237.09880820833337,69.0,93.0
783,237.5802133916667,238.14632935833336,55.0,90.0
784,237.82814739166668,238.15872605833334,59.0,82.0
785,238.3240153916667,238.44385015833336,55.0,85.0
786,237.0843453916667,238.445916275,43.0,83.0
787,237.3322793916667,238.445916275,50.0,66.0
788,238.0760813916667,239.00376777500003,67.0,93.0
789,238.5719493916667,239.02029670833335,62.0,90.0
790,238.81988339166668,239.146329825,59.0,92.0
791,239.3157513916667,239.62980112500003,59.0,74.0
792,239.5636853916667,239.87773512500002,62.0,77.0
793,239.81161939166668,240.16079310833334,59.0,82.0
794,240.05955339166667,240.35914030833334,54.0,66.0
795,239.0678173916667,240.50170235833338,42.0,74.0
796,240.30748739166668,240.61327265833336,59.0,77.0
797,240.05955339166667,240.94385132500003,66.0,117.0
798,240.5554213916667,241.00583482500002,62.0,102.0
799,240.80335539166668,241.06781832500002,59.0,89.0
800,241.5471573916667,242.171124625,52.0,82.0
801,241.7950913916667,242.171124625,55.0,90.0
802,241.2992233916667,242.49757105833334,47.0,73.0
803,241.05128939166667,242.5512900916667,40.0,90.0
804,242.2909593916667,242.68558767500002,52.0,78.0
805,242.5388933916667,242.84674477500002,55.0,92.0
806,242.7868273916667,243.02443080833336,59.0,86.0
807,242.04302539166667,243.04095974166668,64.0,96.0
808,243.7785633916667,243.96658000833335,62.0,79.0
809,243.5306293916667,243.98310894166667,59.0,59.0
810,243.2826953916667,244.13393545833335,54.0,75.0
811,244.2744313916667,244.4169934416667,54.0,95.0
812,243.03476139166668,244.42112567500004,47.0,77.0
813,244.02649739166668,244.87773745833334,66.0,127.0
814,244.52236539166668,244.90253085833336,62.0,96.0
815,244.7702993916667,245.03476232500003,59.0,88.0
816,245.7620353916667,246.00790327500002,59.0,88.0
817,245.51410139166669,246.12980415833334,55.0,78.0
818,245.01823339166668,246.59261429166668,36.0,76.0
819,246.25790339166667,246.6112093416667,55.0,79.0
820,245.26616739166667,246.70211847500002,48.0,30.0
821,246.5058373916667,246.8343499416667,59.0,88.0
822,246.0099693916667,246.84881275833334,62.0,102.0
823,246.7537713916667,246.89220120833335,55.0,93.0
824,247.4975733916667,247.77856525833334,66.0,102.0
825,247.0017053916667,247.96038352500003,47.0,75.0
826,247.24963939166668,247.9934413916667,59.0,85.0
827,247.7455073916667,247.9934413916667,62.0,88.0
828,248.24137539166668,248.58021852500002,47.0,73.0
829,247.9934413916667,248.62154085833336,40.0,86.0
830,248.4893093916667,248.86947485833338,67.0,76.0
831,248.4893093916667,248.9417889416667,52.0,73.0
832,248.7372433916667,249.01203690833336,59.0,82.0
833,249.72897939166668,249.92112824166668,60.0,69.0
834,249.23311139166668,249.96864892500002,52.0,67.0
835,249.48104539166667,250.08641757500004,57.0,69.0
836,250.22484739166669,250.37567390833334,52.0,52.0
837,248.9851773916667,250.50583925833337,45.0,77.0
838,249.9769133916667,250.86534355833334,64.0,86.0
839,250.47278139166667,250.86947579166667,60.0,86.0
840,250.7207153916667,251.01203784166668,57.0,81.0
841,250.9686493916667,252.58228650833337,38.0,83.0
842,251.2165833916667,252.62774107500002,45.0,58.0
843,251.46451739166667,252.87980730833334,50.0,76.0
844,251.9603853916667,252.93765857500003,66.0,96.0
845,251.7124513916667,252.94592304166667,57.0,69.0
846,252.9521213916667,254.79303134166668,43.0,68.0
847,253.44798939166668,254.80336192500002,50.0,53.0
848,254.43972539166668,254.93559339166669,59.0,59.0
849,253.9438573916667,254.95212232500003,62.0,76.0
850,255.4314613916667,256.1938584416667,54.0,45.0
851,254.93559339166669,256.41906515833335,42.0,79.0
852,255.9273293916667,257.04303239166666,66.0,93.0
853,256.4231973916667,257.468652425,59.0,61.0
854,258.4066693916667,258.8984051583334,64.0,67.0
855,257.4149333916667,258.90666962500006,47.0,57.0
856,257.9108013916667,258.93766137500006,52.0,41.0
857,257.9108013916667,258.9769175916667,67.0,72.0
858,256.91906539166666,258.99757875833336,40.0,70.0
859,258.90253739166667,259.8033642583333,43.0,65.0
860,259.3984053916667,259.873612225,50.0,45.0
861,259.89427339166673,260.49138110833337,66.0,58.0
862,259.89427339166673,260.6690671416667,59.0,54.0
863,259.89427339166673,260.7641085083334,47.0,52.0
864,259.89427339166673,261.032703675,62.0,67.0
865,260.8860093916667,262.51824155833333,48.0,77.0
866,261.38187739166665,262.53270437500004,55.0,62.0
867,261.8777453916667,262.8012995416667,64.0,62.0
868,262.3736133916667,262.805431775,60.0,60.0
869,261.8777453916667,262.8074978916667,67.0,63.0
870,263.31782870833337,264.268242375,54.0,63.0
871,262.8570846916667,264.33642422500003,47.0,68.0
872,263.8136967083334,264.875680675,62.0,61.0
873,263.8054322416667,264.8839451416667,66.0,69.0
874,265.4066726583334,266.499648375,52.0,48.0
875,264.8343583416667,266.629813725,45.0,66.0
876,266.51617730833334,267.0802271583334,57.0,47.0
877,265.9438629916667,267.09262385833335,64.0,56.0
878,265.9500613416667,267.27444212500006,60.0,51.0
879,267.590557975,269.87774912500004,62.0,63.0
880,267.4624587416667,269.88807970833335,57.0,55.0
881,267.6070869083334,269.89841029166666,66.0,65.0
882,267.55336787500005,269.90047640833336,50.0,67.0
883,267.3508884416667,269.914939225,38.0,53.0
884,270.53477422500004,271.4376672083333,50.0,63.0
885,269.94386485833337,271.4417994416667,43.0,68.0
886,271.086427375,272.74138682500006,62.0,78.0
887,271.58849372500003,272.8137009083333,59.0,68.0
888,272.67940332500007,273.96866012500004,54.0,69.0
889,272.10708900833333,274.136015575,42.0,81.0
890,273.2517176416667,274.50998269166666,66.0,99.0
891,273.8467592416667,274.557503375,62.0,67.0
892,274.36328840833335,274.724858825,52.0,38.0
893,274.38394957500003,274.82403242500004,47.0,41.0
894,274.37568510833336,274.8942803916667,40.0,41.0
895,274.4108090916667,274.96866059166666,67.0,61.0
896,274.49965210833335,274.997586225,71.0,73.0
897,274.35915617500007,275.1360160416667,64.0,66.0
898,275.36742110833336,275.902545325,38.0,41.0
899,275.350892175,275.97899164166665,66.0,63.0
900,275.44180130833337,275.995520575,69.0,74.0
901,275.28064420833334,276.16907437500004,62.0,69.0
902,276.3322975916667,277.84262887500006,60.0,67.0
903,276.280644675,277.90048014166666,36.0,23.0
904,276.31576865833335,277.97072810833333,43.0,34.0
905,276.361223225,277.991389275,48.0,33.0
906,276.46659517500007,278.00171985833333,67.0,58.0
907,276.417008375,278.01618267500004,64.0,50.0
908,277.62981885833335,278.51618290833335,38.0,26.0
909,277.62775274166665,278.5327118416667,45.0,35.0
910,277.6484139083334,278.57403417500007,50.0,38.0
911,277.731058575,278.74552185833335,66.0,56.0
912,277.66081060833335,278.778579725,62.0,75.0
913,277.8343644083334,278.78891030833336,69.0,65.0
914,279.64634872500005,283.507920775,50.0,58.0
915,279.640150375,283.5161852416667,55.0,63.0
916,279.503786675,283.52238359166665,67.0,60.0
917,279.4438692916667,283.52651582500005,69.0,52.0
918,279.6360181416667,283.5306480583333,43.0,64.0
919,279.3570923916667,283.5409786416667,71.0,56.0
920,279.60089415833335,283.5533753416667,62.0,45.0
