,start,end,pitch,velocity
0,16.165323658333335,16.3004043125,65.0,100.0
1,16.407259158333336,16.5423398125,65.0,77.0
2,16.649194658333336,16.806452733333334,68.0,107.0
3,16.891130158333333,17.030243070833333,65.0,73.0
4,17.133065658333333,17.302420508333334,68.0,112.0
5,17.375001158333333,17.586694720833336,65.0,99.0
6,17.858872158333334,18.034275395833333,63.0,107.0
7,18.100807658333334,19.5000013,65.0,100.0
8,20.036291658333333,20.1713723125,65.0,96.0
9,20.278227158333333,20.427420716666667,65.0,74.0
10,20.520162658333334,20.7520175125,68.0,112.0
11,20.762098158333334,21.004033658333334,65.0,82.0
12,21.004033658333334,21.302420775,68.0,117.0
13,21.487904658333335,21.774195000000002,65.0,92.0
14,21.729840158333335,21.949598237500002,63.0,100.0
15,21.971775658333335,23.167340254166668,65.0,99.0
16,23.907259658333334,24.131049995833333,56.0,99.0
17,24.149195158333335,24.38911452916667,58.0,92.0
18,24.391130658333335,24.649195191666667,61.0,97.0
19,24.633066158333335,24.923388758333335,58.0,100.0
20,24.875001658333336,25.247985554166668,61.0,97.0
21,25.358872658333336,25.816533979166667,61.0,102.0
22,25.842743658333333,26.35484046666667,56.0,96.0
23,26.326614658333334,26.552421125000002,58.0,100.0
24,26.568550158333334,27.768147012500002,61.0,100.0
25,27.778227658333336,28.002017995833334,63.0,117.0
26,28.020163158333336,28.252018012500002,65.0,72.0
27,28.262098658333336,28.512098675,63.0,100.0
28,28.504034158333333,28.653227716666667,65.0,85.0
29,28.745969658333333,29.058469679166667,58.0,97.0
30,29.229840658333334,29.4254051875,61.0,93.0
31,29.471776158333334,31.364921445833335,63.0,97.0
32,31.649195658333333,31.935486,63.0,117.0
33,31.891131158333334,32.10282472083333,65.0,76.0
34,32.133066658333334,32.387098933333334,68.0,107.0
35,32.37500215833334,32.5463731375,65.0,92.0
36,32.616937658333335,32.8366957375,68.0,112.0
37,32.85887315833334,33.1995989875,65.0,93.0
38,33.34274415833333,33.54234094583334,63.0,95.0
39,33.584679658333336,35.044357175,65.0,102.0
40,35.52016365833334,35.72580883333333,63.0,117.0
41,35.762099158333335,35.939518525000004,65.0,96.0
42,36.00403465833333,36.2419379,68.0,112.0
43,36.245970158333336,36.473792754166666,65.0,95.0
44,36.48790565833333,36.721776641666665,63.0,95.0
45,36.729841158333336,37.026212145833334,68.0,99.0
46,37.21371215833334,38.59677676666667,65.0,93.0
47,39.391131658333336,39.6108897375,56.0,95.0
48,39.63306715833333,39.90322846666667,58.0,73.0
49,39.87500265833334,40.15121235416667,61.0,97.0
50,40.11693815833333,40.3366962375,58.0,88.0
51,40.35887365833334,40.854841433333334,61.0,90.0
52,41.084680158333335,41.288309204166666,58.0,102.0
53,41.32661565833334,41.61492212916667,56.0,97.0
54,41.568551158333335,41.8125027875,58.0,95.0
55,42.052422158333336,43.21169642916667,61.0,100.0
56,43.262099658333334,43.35282547083334,63.0,112.0
57,43.50403515833334,43.76411582083333,63.0,107.0
58,43.98790615833334,44.08871261666667,61.0,100.0
59,44.229841658333335,44.409277154166666,61.0,100.0
60,44.47177715833334,44.80242234166667,63.0,97.0
61,44.95564815833333,46.921374095833336,65.0,99.0
62,47.13306765833334,47.377019287500005,61.0,122.0
63,47.375003158333335,47.5100838125,73.0,102.0
64,47.61693865833334,47.86290641666667,73.0,107.0
65,47.858874158333336,48.10484191666667,72.0,100.0
66,48.10080965833333,48.489922587500004,73.0,122.0
67,48.58468065833333,48.893148420833334,70.0,112.0
68,48.82661615833334,49.048390366666666,65.0,85.0
69,49.068551658333334,50.61089047083333,68.0,117.0
70,51.004035658333336,51.20766470416667,63.0,127.0
71,51.24597115833333,51.36693890833334,61.0,97.0
72,51.48790665833334,51.69355183333334,61.0,117.0
73,51.729842158333334,51.83064861666667,61.0,107.0
74,51.97177765833334,52.15322928333334,61.0,122.0
75,52.213713158333334,52.52822930833334,58.0,100.0
76,52.697584158333335,52.85282610416667,61.0,117.0
77,52.93951965833334,54.50806815,65.0,100.0
78,54.875003658333334,55.11693915833334,61.0,127.0
79,55.11693915833334,55.24193916666667,73.0,122.0
80,55.358874658333335,55.590729512500005,73.0,112.0
81,55.60081015833334,55.715729520833335,72.0,107.0
82,55.842745658333335,56.13911664583333,72.0,122.0
83,56.08468115833334,56.3891166625,70.0,102.0
84,56.56855215833333,56.818552175,72.0,112.0
85,56.81048765833334,57.106858645833334,70.0,117.0
86,57.29435865833334,57.520165125000005,65.0,100.0
87,57.536294158333334,58.54637487083333,68.0,127.0
88,58.74597165833334,58.94556844583334,61.0,117.0
89,58.987907158333336,59.088713616666666,63.0,93.0
90,59.22984265833334,59.455649125,63.0,117.0
91,59.471778158333336,59.58871365,61.0,97.0
92,59.71371365833333,59.96169754583334,61.0,117.0
93,60.197584658333334,60.435487900000005,58.0,112.0
94,60.43952015833334,63.09879452916667,61.0,122.0
95,81.97177965833333,82.1068603125,65.0,100.0
96,82.21371515833334,82.3487958125,65.0,77.0
97,82.45565065833334,82.61290873333334,68.0,107.0
98,82.69758615833334,82.83669907083333,65.0,73.0
99,82.93952165833333,83.10887650833334,68.0,112.0
100,83.18145715833333,83.39315072083333,65.0,99.0
101,83.66532815833334,83.84073139583333,63.0,107.0
102,83.90726365833333,85.3064573,65.0,100.0
103,85.84274765833334,85.97782831250001,68.0,96.0
104,86.08468315833333,86.23387671666667,65.0,74.0
105,86.32661865833333,86.5584735125,63.0,112.0
106,86.56855415833334,86.81048965833334,65.0,82.0
107,86.81048965833334,87.108876775,68.0,117.0
108,87.25807033333334,87.580651,68.0,92.0
109,87.53629615833334,87.75605423750001,63.0,100.0
110,87.77823165833334,88.97379625416667,65.0,99.0
111,89.71371565833334,89.93750599583333,56.0,99.0
112,89.95565115833334,90.19557052916667,58.0,92.0
113,90.19758665833334,90.45565119166668,61.0,97.0
114,90.43952215833333,90.72984475833334,58.0,100.0
115,90.68145765833334,91.05444155416667,61.0,97.0
116,91.16532865833334,91.62298997916668,58.0,102.0
117,91.64919965833334,92.16129646666667,56.0,96.0
118,92.13307065833334,92.358877125,58.0,100.0
119,92.37500615833333,93.5746030125,61.0,100.0
120,93.58468365833333,93.80847399583334,63.0,117.0
121,93.82661915833334,94.0584740125,61.0,96.0
122,94.06855465833334,94.318554675,63.0,100.0
123,94.31049015833334,94.45968371666667,61.0,85.0
124,94.55242565833333,94.86492567916667,58.0,97.0
125,95.03629665833334,95.2318611875,61.0,93.0
126,95.27823215833334,97.17137744583334,63.0,97.0
127,97.45565165833334,97.74194200000001,63.0,117.0
128,97.69758715833333,97.90928072083334,65.0,76.0
129,97.93952265833333,98.19355493333333,68.0,107.0
130,98.18145815833334,98.35282913750001,65.0,92.0
131,98.42339365833334,98.6431517375,68.0,112.0
132,98.66532915833334,99.00605498750001,65.0,93.0
133,99.14920015833334,99.34879694583334,63.0,95.0
134,99.39113565833334,100.850813175,65.0,102.0
135,101.32661965833334,101.53226483333334,63.0,117.0
136,101.56855515833334,101.74597452500001,65.0,96.0
137,101.81049065833334,102.04839390000001,68.0,112.0
138,102.05242615833333,102.28024875416668,65.0,95.0
139,102.29436165833334,102.52823264166668,63.0,95.0
140,102.53629715833334,102.83266814583334,68.0,99.0
141,103.02016815833333,104.40323276666668,65.0,93.0
142,105.19758765833333,105.4173457375,56.0,95.0
143,105.43952315833334,105.70968446666667,58.0,73.0
144,105.68145865833334,105.95766835416667,61.0,97.0
145,105.92339415833334,106.1431522375,58.0,88.0
146,106.16532965833333,106.66129743333335,61.0,90.0
147,106.89113615833334,107.09476520416668,58.0,102.0
148,107.13307165833334,107.42137812916667,56.0,97.0
149,107.37500715833333,107.6189587875,58.0,95.0
150,107.85887815833334,109.01815242916668,61.0,100.0
151,109.06855565833334,109.15928147083333,63.0,112.0
152,109.31049115833333,109.57057182083334,63.0,107.0
153,109.79436215833334,109.89516861666667,61.0,100.0
154,110.03629765833334,110.21573315416667,61.0,100.0
155,110.27823315833334,110.60887834166667,63.0,97.0
156,110.76210415833334,112.72783009583334,65.0,99.0
157,112.93952365833334,113.1834752875,61.0,122.0
158,113.18145915833334,113.31653981250001,73.0,102.0
159,113.42339465833334,113.66936241666667,73.0,107.0
160,113.66533015833333,113.91129791666667,72.0,100.0
161,113.90726565833334,114.2963785875,73.0,122.0
162,114.39113665833334,114.69960442083334,70.0,112.0
163,114.63307215833333,114.85484636666668,65.0,85.0
164,114.87500765833335,116.41734647083334,68.0,117.0
165,116.81049165833333,117.01412070416667,63.0,127.0
166,117.05242715833334,117.17339490833334,61.0,97.0
167,117.29436265833334,117.50000783333334,61.0,117.0
168,117.53629815833334,117.63710461666668,61.0,107.0
169,117.77823365833333,117.95968528333334,61.0,122.0
170,118.02016915833335,118.33468530833333,58.0,100.0
171,118.50404015833334,118.65928210416668,61.0,117.0
172,118.74597565833334,120.31452415000001,65.0,100.0
173,120.68145965833334,120.92339515833334,61.0,127.0
174,120.92339515833334,121.04839516666667,73.0,122.0
175,121.16533065833335,121.3971855125,73.0,112.0
176,121.40726615833334,121.52218552083333,72.0,107.0
177,121.64920165833334,121.94557264583334,72.0,122.0
178,121.89113715833334,122.19557266250001,70.0,102.0
179,122.37500815833334,122.625008175,72.0,112.0
180,122.61694365833334,122.91331464583334,70.0,117.0
181,123.10081465833333,123.326621125,65.0,100.0
182,123.34275015833335,124.35283087083334,68.0,127.0
183,124.55242765833334,124.75605670416667,70.0,127.0
184,124.79436315833334,125.05444382083334,72.0,102.0
185,125.03629865833334,125.24799222083334,73.0,127.0
186,125.27823415833333,125.51815352916667,72.0,117.0
187,125.52016965833334,125.75404064166668,73.0,127.0
188,126.00404065833334,126.19758905833334,70.0,127.0
189,126.24597615833333,128.07258918333335,72.0,122.0
190,128.42339565833333,128.66331502916668,73.0,127.0
191,128.66533115833334,128.92541182083335,72.0,93.0
192,128.90726665833333,129.1633150625,73.0,122.0
193,129.14920215833334,129.37097636666667,72.0,95.0
194,129.39113765833335,129.62097638333333,73.0,127.0
195,129.63307315833333,129.93347640416667,73.0,127.0
196,130.11694415833335,130.3508151416667,75.0,127.0
197,130.35887965833334,130.6754119375,72.0,107.0
198,130.84275065833333,131.0746055125,70.0,122.0
199,131.08468615833334,131.86896040416667,68.0,99.0
200,132.29436365833334,132.52823464166667,70.0,127.0
201,132.53629915833335,132.78831530416667,68.0,122.0
202,132.77823465833333,132.98992822083335,70.0,117.0
203,133.02017015833334,133.2278314625,68.0,122.0
204,133.26210565833333,133.75202504583334,63.0,117.0
205,133.74597665833335,133.97581538333333,68.0,127.0
206,133.98791215833333,135.7318638875,65.0,122.0
207,136.16533165833334,136.42339619166668,61.0,127.0
208,136.40726715833333,136.52420265,73.0,127.0
209,136.64920265833334,136.86694460833334,73.0,122.0
210,136.89113815833335,137.14315430416667,72.0,102.0
211,137.13307365833333,137.46775110000002,73.0,127.0
212,137.37500915833334,137.65726724166666,70.0,122.0
213,137.85888015833333,138.05041242916667,72.0,117.0
214,138.10081565833335,138.4899285875,70.0,127.0
215,138.58468665833334,138.79436409166667,65.0,107.0
216,138.82662215833335,139.71775125000002,68.0,122.0
217,140.03629965833335,140.21573515416668,63.0,127.0
218,140.27823515833333,140.38710613333333,61.0,122.0
219,140.52017065833334,140.6310577625,61.0,117.0
220,140.76210615833335,140.87097713333333,61.0,117.0
221,141.00404165833334,141.2600900625,61.0,117.0
222,141.48791265833333,141.71170299583335,58.0,127.0
223,141.72984815833334,143.55444505416668,61.0,127.0
224,145.84275165833333,146.05847747916667,61.0,112.0
225,146.2258162,146.37299362916667,73.0,96.0
226,146.47783234583335,146.67742913333333,73.0,107.0
227,146.69960655416668,146.86492914583334,72.0,93.0
228,146.963719475,147.43146144166667,72.0,112.0
229,147.35283240416666,147.56250983750002,70.0,117.0
230,147.72783242916668,147.94355825,72.0,112.0
231,147.99396147916667,148.37904215,70.0,117.0
232,148.5000099,148.76815507916666,65.0,99.0
233,148.79234862916667,150.17944549583333,68.0,107.0
234,150.18549388333335,150.46976809583333,63.0,122.0
235,150.44557454583335,150.616945525,61.0,93.0
236,150.73992940416667,150.95767135416668,61.0,102.0
237,151.05444555416668,151.2520262125,61.0,97.0
238,151.35283267083335,153.84678445,61.0,117.0
239,154.6996070875,155.72380070416668,58.0,117.0
240,155.28428454583334,160.52017199166667,61.0,117.0
