,start,end,pitch,velocity
0,10.4446324125,10.721417850000002,54.0,97.0
1,10.658917912500002,10.892846250000002,59.0,70.0
2,10.8732034125,11.241060187500002,63.0,89.0
3,11.301774412500002,11.607131250000002,63.0,72.0
4,11.730345412500002,12.130345012500001,63.0,100.0
5,12.158916412500002,12.639273075000002,61.0,92.0
6,12.587487412500002,13.353558075000002,59.0,78.0
7,13.873200412500001,14.032128825000003,59.0,89.0
8,14.087485912500002,14.337485662500002,61.0,85.0
9,14.301771412500003,14.594628262500002,59.0,83.0
10,14.730342412500002,14.985699300000002,59.0,77.0
11,15.158913412500002,15.501770212500002,59.0,88.0
12,15.587484412500002,16.078555350000002,56.0,75.0
13,16.016055412500002,17.17855425,54.0,83.0
14,17.301768412500003,17.489268225000004,59.0,89.0
15,17.516053912500002,17.703553725000003,61.0,86.0
16,17.7303394125,18.017839125000002,63.0,97.0
17,18.158910412500003,18.471410100000003,63.0,100.0
18,18.5874814125,18.935695350000003,63.0,100.0
19,19.016052412500002,19.432123425000004,61.0,112.0
20,19.444623412500004,20.1410512875,59.0,83.0
21,20.7303364125,21.473192812500002,63.0,95.0
22,21.5874784125,23.514262200000005,66.0,107.0
23,24.158904412500004,24.299975700000005,68.0,107.0
24,24.373189912500003,24.496404075000004,70.0,93.0
25,24.5874754125,25.071403500000002,71.0,100.0
26,25.230331912500002,25.710688575000002,71.0,117.0
27,25.873188412500003,26.294616562500003,73.0,112.0
28,26.301759412500004,26.966044462500005,68.0,107.0
29,27.587472412500002,27.762472237500003,71.0,95.0
30,27.801757912500005,27.939257775000005,68.0,92.0
31,28.016043412500004,28.494614362500005,66.0,93.0
32,28.658899912500004,29.074970925000002,66.0,96.0
33,29.301756412500005,29.657113200000005,68.0,102.0
34,29.730327412500003,30.553540875000003,63.0,96.0
35,31.016040412500004,31.433897137500004,63.0,100.0
36,31.444611412500006,32.4053247375,61.0,89.0
37,32.7303244125,33.02139555,61.0,99.0
38,33.1588954125,33.61960923750001,61.0,95.0
39,34.016037412500005,34.439251275000004,63.0,93.0
40,34.4446084125,34.746393825000006,61.0,83.0
41,34.87317941250001,35.382107475000005,59.0,83.0
42,35.301750412500006,36.61246338750001,61.0,74.0
43,37.87317641250001,38.110676175,54.0,89.0
44,38.087461912500004,38.34639022500001,56.0,66.0
45,38.301747412500006,38.61424710000001,63.0,86.0
46,38.730318412500004,39.0410323875,63.0,97.0
47,39.1588894125,39.510674775000005,63.0,96.0
48,39.58746041250001,40.032102825,61.0,96.0
49,40.016031412500006,40.926744787500006,59.0,81.0
50,41.30174441250001,41.47852995,59.0,82.0
51,41.5160299125,41.805315337500005,61.0,92.0
52,41.730315412500005,42.053529375000004,59.0,75.0
53,42.1588864125,42.446386125000004,59.0,75.0
54,42.58745741250001,42.96781417500001,59.0,82.0
55,43.016028412500006,43.50352792500001,56.0,83.0
56,43.444599412500004,44.3910270375,54.0,82.0
57,44.730312412500005,44.92138365,59.0,92.0
58,44.94459791250001,45.128526300000004,61.0,69.0
59,45.1588834125,45.46245453750001,63.0,93.0
60,45.58745441250001,45.889239825000004,63.0,93.0
61,46.01602541250001,46.37852505000001,63.0,100.0
62,46.444596412500005,46.919595937500006,61.0,93.0
63,46.8731674125,47.77673793750001,59.0,88.0
64,48.158880412500004,48.49280865000001,61.0,95.0
65,48.58745141250001,49.032093825000004,63.0,92.0
66,49.01602241250001,50.960663325000006,66.0,96.0
67,51.58744841250001,51.757091100000004,68.0,95.0
68,51.801733912500005,51.92316236250001,70.0,92.0
69,52.01601941250001,52.50351892500001,71.0,99.0
70,52.65887591250001,53.155303987500005,71.0,122.0
71,53.30173241250001,53.803517625000005,73.0,107.0
72,53.73030341250001,54.633873937500006,68.0,99.0
73,55.01601641250001,55.26065902500001,71.0,97.0
74,55.23030191250001,55.46601596250001,68.0,88.0
75,55.444587412500006,55.930301212500005,66.0,99.0
76,56.08744391250001,56.61422910000001,66.0,102.0
77,56.73030041250001,57.151728562500004,68.0,92.0
78,57.158871412500005,58.014227700000006,63.0,99.0
79,58.44458441250001,58.75886981250001,63.0,102.0
80,58.873155412500005,59.98565430000001,61.0,95.0
81,60.158868412500006,60.47493952500001,61.0,99.0
82,60.58743941250001,61.10886746250001,61.0,97.0
83,61.01601041250001,61.10886746250001,61.0,99.0
84,61.44458141250001,61.88386668750001,63.0,102.0
85,61.873152412500005,62.70529443750001,61.0,85.0
86,62.73029441250001,64.46779267500001,59.0,90.0
87,64.87314941250001,65.23743476250002,63.0,107.0
88,65.3017204125,65.59457726250001,66.0,97.0
89,65.73029141250001,66.7427904,66.0,100.0
90,67.01600441250001,67.28564700000001,63.0,107.0
91,67.23028991250001,67.4588611125,61.0,88.0
92,67.44457541250001,68.16600326250001,59.0,86.0
93,68.30171741250001,68.61778852500001,59.0,93.0
94,68.7302884125,69.04635952500001,71.0,102.0
95,69.15885941250001,70.20171551250002,71.0,99.0
96,70.44457241250001,70.8410005875,68.0,112.0
97,70.87314341250001,71.532071325,66.0,97.0
98,72.15885641250001,72.3481419375,59.0,96.0
99,72.3731419125,72.57492742500001,61.0,92.0
100,72.5874274125,73.36064092500001,63.0,102.0
101,73.8731404125,74.20171151250001,68.0,100.0
102,74.30171141250001,74.62135395000001,66.0,107.0
103,74.7302824125,74.9945678625,66.0,117.0
104,75.15885341250001,75.35885321250001,63.0,112.0
105,75.37313891250001,75.7302814125,61.0,100.0
106,75.80170991250002,76.0409953875,59.0,85.0
107,76.0159954125,77.41956543750001,61.0,102.0
108,78.5874214125,78.9088496625,63.0,107.0
109,79.01599241250001,79.31063497500001,66.0,102.0
110,79.44456341250002,80.63206222500001,66.0,102.0
111,80.7302764125,80.96777617500001,63.0,99.0
112,80.9445619125,81.17849025000001,61.0,93.0
113,81.15884741250001,81.77670393750002,59.0,95.0
114,82.0159894125,82.45706040000002,59.0,92.0
115,82.44456041250001,82.7767029375,71.0,117.0
116,82.87313141250002,84.06955878750001,71.0,122.0
117,84.15884441250002,84.55705830000001,73.0,117.0
118,84.80170091250001,85.5142002,68.0,112.0
119,85.87312841250001,86.13741386250001,71.0,102.0
120,86.08741391250001,86.2999137,68.0,96.0
121,86.30169941250001,86.77134180000002,66.0,95.0
122,86.94455591250001,87.46241253750001,71.0,95.0
123,87.58741241250002,87.78026936250001,63.0,127.0
124,87.80169791250002,87.93384063750001,61.0,93.0
125,88.0159834125,89.01598241250001,61.0,100.0
126,88.87312541250002,89.51419620000001,63.0,107.0
127,89.51598191250001,89.79455306250001,61.0,88.0
128,89.73026741250001,92.07133650000002,59.0,90.0
129,123.15880541250002,123.43559085000001,54.0,97.0
130,123.58737641250002,123.82130475000001,59.0,90.0
131,124.01594741250001,124.38380418750002,63.0,89.0
132,124.44451841250002,124.74987525000002,63.0,72.0
133,124.87308941250002,125.27308901250002,63.0,100.0
134,125.30166041250001,125.78201707500001,61.0,92.0
135,125.73023141250002,126.49630207500002,59.0,78.0
136,127.01594441250002,127.17487282500002,59.0,89.0
137,127.23022991250002,127.48022966250002,61.0,85.0
138,127.44451541250001,127.73737226250002,59.0,83.0
139,127.87308641250002,128.12844330000001,59.0,77.0
140,128.30165741250002,128.6445142125,59.0,88.0
141,128.73022841250003,129.22129935,56.0,75.0
142,129.15879941250003,130.32129825,54.0,83.0
143,130.44451241250002,130.632012225,59.0,89.0
144,130.6587979125,130.84629772500003,61.0,86.0
145,130.87308341250002,131.16058312500002,63.0,97.0
146,131.30165441250003,131.6141541,63.0,100.0
147,131.7302254125,132.07843935000002,63.0,100.0
148,132.1587964125,132.574867425,61.0,112.0
149,132.58736741250002,133.28379528750003,59.0,83.0
150,133.87308041250003,134.61593681250002,63.0,95.0
151,134.7302224125,136.6570062,66.0,107.0
152,137.30164841250001,137.44271970000003,68.0,107.0
153,137.51593391250003,137.639148075,70.0,93.0
154,137.73021941250002,138.21414750000002,71.0,100.0
155,138.3730759125,138.85343257500003,71.0,117.0
156,139.0159324125,139.43736056250003,73.0,112.0
157,139.4445034125,140.10878846250003,68.0,107.0
158,140.73021641250003,140.9052162375,71.0,95.0
159,140.94450191250002,141.082001775,68.0,92.0
160,141.15878741250003,141.6373583625,66.0,93.0
161,141.80164391250003,142.21771492500002,66.0,96.0
162,142.44450041250002,142.79985720000002,68.0,102.0
163,142.87307141250002,143.69628487500003,63.0,96.0
164,144.1587844125,144.57664113750002,63.0,100.0
165,144.58735541250002,145.54806873750002,61.0,89.0
166,145.87306841250003,146.16413955000002,61.0,99.0
167,146.3016394125,146.7623532375,61.0,95.0
168,147.15878141250002,147.58199527500003,63.0,93.0
169,147.58735241250002,147.889137825,61.0,83.0
170,148.01592341250003,148.52485147500002,59.0,83.0
171,148.4444944125,149.7552073875,61.0,74.0
172,151.0159204125,151.25342017500003,54.0,89.0
173,151.23020591250003,151.48913422500002,56.0,66.0
174,151.4444914125,151.75699110000002,63.0,86.0
175,151.87306241250002,152.18377638750002,63.0,97.0
176,152.30163341250002,152.653418775,63.0,96.0
177,152.73020441250003,153.17484682500003,61.0,96.0
178,153.1587754125,154.0694887875,59.0,81.0
179,154.44448841250002,154.62127395000002,59.0,82.0
180,154.6587739125,154.9480593375,61.0,92.0
181,154.87305941250003,155.19627337500003,59.0,75.0
182,155.30163041250003,155.58913012500003,59.0,75.0
183,155.7302014125,156.11055817500002,59.0,82.0
184,156.1587724125,156.646271925,56.0,83.0
185,156.58734341250002,157.53377103750003,54.0,82.0
186,157.87305641250003,158.06412765000002,59.0,92.0
187,158.08734191250002,158.27127030000003,61.0,69.0
188,158.3016274125,158.60519853750003,63.0,93.0
189,158.73019841250002,159.03198382500003,63.0,93.0
190,159.15876941250002,159.52126905000003,63.0,100.0
191,159.58734041250003,160.0623399375,61.0,93.0
192,160.01591141250003,160.91948193750002,59.0,88.0
193,161.30162441250002,161.63555265000002,61.0,95.0
194,161.73019541250002,162.17483782500003,63.0,92.0
195,162.15876641250003,164.10340732500003,66.0,96.0
196,164.73019241250003,164.89983510000002,68.0,95.0
197,164.94447791250002,165.06590636250002,70.0,92.0
198,165.1587634125,165.64626292500003,71.0,99.0
199,165.80161991250003,166.2980479875,71.0,122.0
200,166.44447641250002,166.94626162500003,73.0,107.0
201,166.87304741250003,167.77661793750002,68.0,99.0
202,168.15876041250002,168.40340302500002,71.0,97.0
203,168.37304591250003,168.60875996250002,68.0,88.0
204,168.58733141250002,169.07304521250003,66.0,99.0
205,169.2301879125,169.7569731,66.0,102.0
206,169.87304441250004,170.29447256250003,68.0,92.0
207,170.3016154125,171.1569717,63.0,99.0
208,171.58732841250003,171.90161381250002,63.0,102.0
209,172.01589941250003,173.12839830000001,61.0,95.0
210,173.30161241250002,173.61768352500002,61.0,99.0
211,173.73018341250003,174.25161146250002,61.0,97.0
212,174.15875441250003,174.25161146250002,61.0,99.0
213,174.58732541250004,175.0266106875,63.0,102.0
214,175.0158964125,175.84803843750004,61.0,85.0
215,175.87303841250002,177.61053667500002,59.0,90.0
216,178.01589341250002,178.38017876250004,63.0,107.0
217,178.44446441250003,178.73732126250002,66.0,97.0
218,178.87303541250003,179.8855344,66.0,100.0
219,180.15874841250002,180.42839100000003,63.0,107.0
220,180.37303391250003,180.6016051125,61.0,88.0
221,180.58731941250002,181.30874726250002,59.0,86.0
222,181.44446141250003,181.76053252500003,59.0,93.0
223,181.87303241250004,182.18910352500004,71.0,102.0
224,182.30160341250001,183.34445951250004,71.0,99.0
225,183.58731641250003,183.9837445875,68.0,112.0
226,184.01588741250004,184.67481532500003,66.0,97.0
227,185.30160041250002,185.49088593750002,59.0,96.0
228,185.5158859125,185.71767142500002,61.0,92.0
229,185.73017141250003,186.50338492500003,63.0,102.0
230,187.01588441250001,187.34445551250002,68.0,100.0
231,187.44445541250002,187.76409795000004,66.0,107.0
232,187.87302641250002,188.1373118625,66.0,117.0
233,188.30159741250003,188.50159721250003,63.0,112.0
234,188.51588291250002,188.87302541250003,61.0,100.0
235,188.94445391250002,189.18373938750003,59.0,85.0
236,189.1587394125,190.56230943750003,61.0,102.0
237,191.7301654125,192.05159366250004,63.0,107.0
238,192.15873641250002,192.45337897500002,66.0,102.0
239,192.58730741250002,193.77480622500002,66.0,102.0
240,193.8730204125,194.11052017500003,63.0,99.0
241,194.08730591250003,194.32123425000003,61.0,93.0
242,194.30159141250002,194.91944793750002,59.0,95.0
243,195.15873341250003,195.59980440000004,59.0,92.0
244,195.58730441250003,195.91944693750003,71.0,117.0
245,196.01587541250004,197.21230278750002,71.0,122.0
246,197.30158841250002,197.69980230000002,73.0,117.0
247,197.94444491250002,198.65694420000003,68.0,112.0
248,199.01587241250002,199.28015786250003,71.0,102.0
249,199.23015791250003,199.4426577,68.0,96.0
250,199.44444341250002,199.91408580000004,66.0,95.0
251,200.08729991250001,200.60515653750002,71.0,95.0
252,200.73015641250004,200.92301336250003,63.0,127.0
253,200.94444191250003,201.07658463750002,61.0,93.0
254,201.1587274125,202.15872641250002,61.0,100.0
255,202.01586941250002,202.65694020000004,63.0,107.0
256,202.65872591250002,202.93729706250002,61.0,88.0
257,202.87301141250003,205.21408050000002,59.0,90.0
258,205.44443741250004,205.80872276250003,64.0,107.0
259,205.8730084125,206.16586526250003,67.0,97.0
260,206.30157941250002,207.31407840000003,67.0,100.0
261,207.58729241250003,207.85693500000002,64.0,107.0
262,207.80157791250002,208.03014911250003,62.0,88.0
263,208.01586341250004,208.73729126250004,60.0,86.0
264,208.87300541250002,209.18907652500002,60.0,93.0
265,209.30157641250003,209.61764752500002,72.0,102.0
266,209.73014741250003,210.77300351250003,72.0,99.0
267,211.01586041250002,211.41228858750003,69.0,112.0
268,211.44443141250002,212.103359325,67.0,97.0
269,212.73014441250004,212.91942993750004,60.0,96.0
270,212.94442991250003,213.14621542500004,62.0,92.0
271,213.15871541250002,213.93192892500002,64.0,102.0
272,214.44442841250003,214.77299951250004,69.0,100.0
273,214.87299941250004,215.19264195000002,67.0,107.0
274,215.30157041250004,215.56585586250003,67.0,117.0
275,215.73014141250002,215.93014121250002,64.0,112.0
276,215.94442691250003,216.30156941250002,62.0,100.0
277,216.37299791250004,216.61228338750004,60.0,85.0
278,216.58728341250003,217.99085343750002,62.0,102.0
279,219.15870941250003,219.48013766250003,64.0,107.0
280,219.58728041250004,219.88192297500004,67.0,102.0
281,220.01585141250004,221.20335022500004,67.0,102.0
282,221.30156441250003,221.53906417500002,64.0,99.0
283,221.51584991250002,221.74977825000002,62.0,93.0
284,221.73013541250003,222.34799193750004,60.0,95.0
285,222.58727741250004,223.02834840000003,60.0,92.0
286,223.01584841250002,223.34799093750004,72.0,117.0
287,223.44441941250003,224.64084678750004,72.0,122.0
288,224.73013241250004,225.12834630000003,74.0,117.0
289,225.37298891250003,226.08548820000004,69.0,112.0
290,226.44441641250003,226.70870186250002,72.0,102.0
291,226.65870191250002,226.87120170000003,69.0,96.0
292,226.87298741250004,227.34262980000003,67.0,95.0
293,227.51584391250003,228.03370053750004,72.0,95.0
294,228.15870041250002,228.55155716250002,69.0,107.0
295,228.58727141250003,229.35512778750004,72.0,127.0
296,229.44441341250004,230.09798418750003,74.0,127.0
297,230.30155541250002,233.68905202500002,72.0,127.0
