,start,end,pitch,velocity
0,4.016067412500001,4.4660669625,66.0,56.0
1,4.016067412500001,4.517852625000001,63.0,74.0
2,4.016067412500001,4.5767811375,59.0,66.0
3,4.444638412500001,5.083923487500001,54.0,59.0
4,4.8732094125000005,5.4196374375000005,66.0,54.0
5,4.8732094125000005,5.4321374250000005,63.0,53.0
6,4.8732094125000005,5.433923137500001,59.0,65.0
7,5.3017804125,5.887494112500001,54.0,60.0
8,5.730351412500001,6.294636562500001,59.0,70.0
9,5.730351412500001,6.348207937500001,66.0,64.0
10,5.730351412500001,6.3714222000000005,63.0,69.0
11,4.016067412500001,6.924993075000001,47.0,67.0
12,6.158922412500001,7.101778612500001,54.0,56.0
13,6.587493412500001,7.108921462500001,63.0,88.0
14,6.587493412500001,7.121421450000001,66.0,78.0
15,7.016064412500001,7.399992600000001,59.0,79.0
16,7.444635412500001,7.955349187500001,66.0,86.0
17,7.444635412500001,7.973206312500001,63.0,85.0
18,7.444635412500001,8.0232062625,59.0,67.0
19,7.873206412500001,8.437491562500002,54.0,41.0
20,8.301777412500002,8.7482055375,66.0,63.0
21,8.301777412500002,9.0053481375,63.0,72.0
22,8.301777412500002,9.012490987500001,59.0,72.0
23,7.444635412500001,9.014276700000002,47.0,70.0
24,8.730348412500001,9.064276650000002,54.0,52.0
25,9.158919412500001,10.460703825000001,47.0,54.0
26,9.158919412500001,10.732132125000001,59.0,74.0
27,9.158919412500001,10.749989250000002,66.0,70.0
28,9.158919412500001,10.757132100000002,63.0,77.0
29,9.158919412500001,10.791060637500001,54.0,64.0
30,10.8732034125,11.410702875000002,66.0,71.0
31,10.8732034125,11.444631412500001,63.0,85.0
32,10.8732034125,11.466059962500001,59.0,81.0
33,10.8732034125,12.433916137500002,47.0,76.0
34,11.301774412500002,12.657130200000001,54.0,75.0
35,11.730345412500002,13.010701275000002,66.0,85.0
36,11.730345412500002,13.074986925000001,63.0,95.0
37,12.158916412500002,13.119629737500002,59.0,68.0
38,13.016058412500001,13.441057987500002,54.0,76.0
39,12.587487412500002,13.596414975000002,47.0,74.0
40,13.444629412500001,13.876771837500002,66.0,82.0
41,13.444629412500001,14.133914437500001,63.0,90.0
42,13.873200412500001,14.198200087500002,59.0,72.0
43,14.301771412500003,14.983913587500002,64.0,75.0
44,14.301771412500003,15.008913562500002,59.0,73.0
45,14.301771412500003,15.010699275000002,68.0,77.0
46,14.301771412500003,15.291056137500002,40.0,65.0
47,14.730342412500002,15.291056137500002,47.0,36.0
48,15.158913412500002,15.601770112500002,52.0,52.0
49,15.158913412500002,15.607127250000001,64.0,88.0
50,15.158913412500002,15.632127225000001,68.0,93.0
51,15.587484412500002,15.955341187500002,59.0,76.0
52,16.016055412500002,16.607126250000004,66.0,75.0
53,16.016055412500002,16.678554750000004,59.0,69.0
54,16.016055412500002,16.680340462500002,63.0,76.0
55,16.444626412500003,17.130340012500003,54.0,49.0
56,16.016055412500002,17.5428396,47.0,59.0
57,16.8731974125,17.617839525,66.0,66.0
58,16.8731974125,17.6428395,63.0,66.0
59,16.8731974125,17.6714109,59.0,56.0
60,17.301768412500003,17.694625162500003,54.0,55.0
61,17.7303394125,18.482124375,59.0,74.0
62,17.7303394125,18.489267225000003,66.0,86.0
63,17.7303394125,18.508910062500004,63.0,89.0
64,18.158910412500003,18.846409725,54.0,64.0
65,18.5874814125,19.307123550000004,66.0,90.0
66,18.5874814125,19.310694975000004,59.0,85.0
67,18.5874814125,19.323194962500004,63.0,97.0
68,17.7303394125,19.328552100000003,47.0,72.0
69,19.016052412500002,19.46426625,54.0,43.0
70,19.444623412500004,20.148194137500003,66.0,62.0
71,19.444623412500004,20.173194112500003,59.0,67.0
72,19.444623412500004,20.174979825,63.0,65.0
73,19.873194412500002,20.457122400000003,54.0,47.0
74,19.444623412500004,20.537479462500002,47.0,63.0
75,20.301765412500004,20.810693475000004,66.0,89.0
76,20.301765412500004,20.823193462500004,63.0,95.0
77,20.7303364125,21.121407450000003,59.0,72.0
78,21.158907412500003,21.6999783,66.0,68.0
79,21.158907412500003,21.896406675,61.0,72.0
80,22.016049412500003,22.371406200000003,66.0,71.0
81,22.016049412500003,22.489263225000002,61.0,85.0
82,22.444620412500004,23.0124769875,54.0,46.0
83,22.873191412500002,23.312476687500002,66.0,68.0
84,22.873191412500002,23.387476612500002,61.0,69.0
85,22.873191412500002,23.5303336125,58.0,63.0
86,23.301762412500004,23.7017620125,54.0,56.0
87,21.5874784125,23.717833425000002,49.0,40.0
88,21.158907412500003,23.837476162500003,42.0,72.0
89,23.730333412500002,24.185690100000002,66.0,69.0
90,24.158904412500004,24.457118400000002,58.0,52.0
91,23.730333412500002,24.478546950000002,61.0,90.0
92,24.5874754125,25.305331837500002,68.0,56.0
93,24.5874754125,25.314260400000002,59.0,71.0
94,24.5874754125,25.326760387500002,64.0,63.0
95,25.444617412500005,25.951759762500004,68.0,76.0
96,25.444617412500005,25.958902612500005,64.0,75.0
97,25.444617412500005,26.108902462500005,59.0,71.0
98,25.873188412500003,26.532116325000004,52.0,52.0
99,26.301759412500004,26.864258850000002,64.0,68.0
100,26.301759412500004,26.864258850000002,68.0,64.0
101,26.301759412500004,27.039258675000003,59.0,72.0
102,24.5874754125,27.182115675000002,40.0,71.0
103,25.016046412500003,27.232115625000002,47.0,45.0
104,26.730330412500003,27.371401200000005,52.0,56.0
105,27.158901412500004,27.585686700000004,68.0,86.0
106,27.158901412500004,27.591043837500003,64.0,85.0
107,27.587472412500002,27.917829225000002,59.0,66.0
108,28.016043412500004,28.521400050000004,59.0,64.0
109,28.016043412500004,28.542828600000004,66.0,78.0
110,28.016043412500004,28.573185712500003,63.0,78.0
111,28.016043412500004,28.899971100000005,47.0,61.0
112,28.444614412500005,28.908899662500005,54.0,50.0
113,28.873185412500003,29.303542125000003,66.0,81.0
114,28.873185412500003,29.366042062500004,63.0,85.0
115,29.301756412500005,29.619613237500005,59.0,72.0
116,29.730327412500003,30.349969650000006,68.0,75.0
117,29.730327412500003,30.401755312500004,59.0,72.0
118,29.730327412500003,30.412469587500006,63.0,79.0
119,30.158898412500005,30.753540675000004,51.0,30.0
120,30.587469412500003,30.794612062500004,56.0,74.0
121,29.730327412500003,30.871397700000003,44.0,74.0
122,30.587469412500003,31.108897462500003,63.0,90.0
123,30.587469412500003,31.155325987500003,68.0,79.0
124,31.016040412500004,31.267825875000003,59.0,46.0
125,31.444611412500006,31.482111375000006,68.0,43.0
126,31.444611412500006,32.144610712500004,64.0,73.0
127,31.444611412500006,32.176753537500005,61.0,83.0
128,31.873182412500004,32.4410389875,44.0,47.0
129,32.301753412500005,32.794610062500006,64.0,66.0
130,32.301753412500005,32.832110025000006,68.0,58.0
131,32.301753412500005,32.842824300000004,49.0,67.0
132,31.444611412500006,32.9231813625,37.0,63.0
133,32.7303244125,33.067824075000004,61.0,74.0
134,33.1588954125,33.74996625000001,68.0,66.0
135,33.1588954125,33.855323287500006,64.0,63.0
136,33.1588954125,33.860680425000005,61.0,73.0
137,33.58746641250001,34.123180162500006,44.0,26.0
138,33.1588954125,34.14282300000001,37.0,69.0
139,34.016037412500005,34.421394150000005,49.0,58.0
140,34.016037412500005,34.508894062500005,68.0,68.0
141,34.016037412500005,34.5374654625,64.0,76.0
142,34.4446084125,34.78567950000001,61.0,70.0
143,34.87317941250001,35.376750337500006,70.0,69.0
144,34.87317941250001,35.60889296250001,66.0,68.0
145,34.87317941250001,35.6160358125,61.0,72.0
146,35.301750412500006,35.81424990000001,49.0,46.0
147,35.730321412500004,36.267820875000005,70.0,66.0
148,34.87317941250001,36.467820675000006,42.0,72.0
149,35.730321412500004,36.5267491875,54.0,85.0
150,36.1588924125,36.53210632500001,49.0,58.0
151,35.730321412500004,36.535677750000005,66.0,64.0
152,35.730321412500004,36.553534875000004,61.0,69.0
153,36.58746341250001,37.321391250000005,70.0,88.0
154,36.58746341250001,37.358891212500005,66.0,89.0
155,36.58746341250001,37.366034062500006,61.0,90.0
156,37.4446054125,38.14103328750001,70.0,81.0
157,37.4446054125,38.151747562500006,61.0,70.0
158,37.4446054125,38.1553189875,66.0,70.0
159,36.58746341250001,38.157104700000005,49.0,55.0
160,36.58746341250001,38.169604687500005,42.0,55.0
161,36.58746341250001,38.201747512500006,54.0,66.0
162,38.301747412500006,38.83924687500001,66.0,71.0
163,38.301747412500006,38.873175412500004,63.0,85.0
164,38.301747412500006,38.89460396250001,59.0,81.0
165,38.301747412500006,39.86246013750001,47.0,76.0
166,38.730318412500004,40.08567420000001,54.0,75.0
167,39.1588894125,40.439245275000005,66.0,85.0
168,39.1588894125,40.50353092500001,63.0,95.0
169,39.58746041250001,40.54817373750001,59.0,68.0
170,40.444602412500004,40.869601987500005,54.0,76.0
171,40.016031412500006,41.024958975000004,47.0,74.0
172,40.87317341250001,41.305315837500004,66.0,82.0
173,40.87317341250001,41.562458437500005,63.0,90.0
174,41.30174441250001,41.62674408750001,59.0,72.0
175,41.730315412500005,42.41245758750001,64.0,75.0
176,41.730315412500005,42.43745756250001,59.0,73.0
177,41.730315412500005,42.439243275,68.0,77.0
178,41.730315412500005,42.7196001375,40.0,65.0
179,42.1588864125,42.7196001375,47.0,36.0
180,42.58745741250001,43.03031411250001,52.0,52.0
181,42.58745741250001,43.03567125000001,64.0,88.0
182,42.58745741250001,43.06067122500001,68.0,93.0
183,43.016028412500006,43.383885187500006,59.0,76.0
184,43.444599412500004,44.03567025,66.0,75.0
185,43.444599412500004,44.107098750000006,59.0,69.0
186,43.444599412500004,44.10888446250001,63.0,76.0
187,43.87317041250001,44.55888401250001,54.0,49.0
188,43.444599412500004,44.9713836,47.0,59.0
189,44.30174141250001,45.046383525,66.0,66.0
190,44.30174141250001,45.0713835,63.0,66.0
191,44.30174141250001,45.09995490000001,59.0,56.0
192,44.730312412500005,45.123169162500005,54.0,55.0
193,45.1588834125,45.91066837500001,59.0,74.0
194,45.1588834125,45.91781122500001,66.0,86.0
195,45.1588834125,45.93745406250001,63.0,89.0
196,45.58745441250001,46.274953725,54.0,64.0
197,46.01602541250001,46.73566755000001,66.0,90.0
198,46.01602541250001,46.739238975000006,59.0,85.0
199,46.01602541250001,46.751738962500006,63.0,97.0
200,45.1588834125,46.757096100000005,47.0,72.0
201,46.444596412500005,46.892810250000004,54.0,43.0
202,46.8731674125,47.57673813750001,66.0,62.0
203,46.8731674125,47.60173811250001,59.0,67.0
204,46.8731674125,47.603523825,63.0,65.0
205,47.30173841250001,47.885666400000005,54.0,47.0
206,46.8731674125,47.966023462500004,47.0,63.0
207,47.730309412500006,48.239237475,66.0,89.0
208,47.730309412500006,48.2517374625,63.0,95.0
209,48.158880412500004,48.54995145000001,59.0,72.0
210,48.58745141250001,49.12852230000001,66.0,68.0
211,48.58745141250001,49.324950675000004,61.0,72.0
212,49.444593412500005,49.799950200000005,66.0,71.0
213,49.444593412500005,49.917807225000004,61.0,85.0
214,49.8731644125,50.4410209875,54.0,46.0
215,50.30173541250001,50.741020687500004,66.0,68.0
216,50.30173541250001,50.816020612500004,61.0,69.0
217,50.30173541250001,50.958877612500004,58.0,63.0
218,50.730306412500006,51.13030601250001,54.0,56.0
219,49.01602241250001,51.146377425000004,49.0,40.0
220,48.58745141250001,51.266020162500006,42.0,72.0
221,51.158877412500004,51.614234100000004,66.0,69.0
222,51.58744841250001,51.88566240000001,58.0,52.0
223,51.158877412500004,51.907090950000004,61.0,90.0
224,52.01601941250001,52.73387583750001,68.0,56.0
225,52.01601941250001,52.742804400000004,59.0,71.0
226,52.01601941250001,52.755304387500004,64.0,63.0
227,52.873161412500004,53.380303762500006,68.0,76.0
228,52.873161412500004,53.38744661250001,64.0,75.0
229,52.873161412500004,53.53744646250001,59.0,71.0
230,53.30173241250001,53.960660325000006,52.0,52.0
231,53.73030341250001,54.29280285000001,64.0,68.0
232,53.73030341250001,54.29280285000001,68.0,64.0
233,53.73030341250001,54.46780267500001,59.0,72.0
234,52.01601941250001,54.61065967500001,40.0,71.0
235,52.444590412500006,54.66065962500001,47.0,45.0
236,54.158874412500005,54.79994520000001,52.0,56.0
237,54.58744541250001,55.014230700000006,68.0,86.0
238,54.58744541250001,55.019587837500005,64.0,85.0
239,55.01601641250001,55.34637322500001,59.0,66.0
240,55.444587412500006,55.949944050000006,59.0,64.0
241,55.444587412500006,55.97137260000001,66.0,78.0
242,55.444587412500006,56.00172971250001,63.0,78.0
243,55.444587412500006,56.328515100000004,47.0,61.0
244,55.873158412500004,56.33744366250001,54.0,50.0
245,56.30172941250001,56.73208612500001,66.0,81.0
246,56.30172941250001,56.79458606250001,63.0,85.0
247,56.73030041250001,57.04815723750001,59.0,72.0
248,57.158871412500005,57.77851365000001,68.0,75.0
249,57.158871412500005,57.83029931250001,59.0,72.0
250,57.158871412500005,57.84101358750001,63.0,79.0
251,57.58744241250001,58.182084675000006,51.0,30.0
252,58.01601341250001,58.22315606250001,56.0,74.0
253,57.158871412500005,58.299941700000005,44.0,74.0
254,58.01601341250001,58.537441462500006,63.0,90.0
255,58.01601341250001,58.58386998750001,68.0,79.0
256,58.44458441250001,58.69636987500001,59.0,46.0
257,58.873155412500005,58.910655375000005,68.0,43.0
258,58.873155412500005,59.573154712500006,64.0,73.0
259,58.873155412500005,59.60529753750001,61.0,83.0
260,59.30172641250001,59.86958298750001,44.0,47.0
261,59.73029741250001,60.22315406250001,64.0,66.0
262,59.73029741250001,60.26065402500001,68.0,58.0
263,59.73029741250001,60.271368300000006,49.0,67.0
264,58.873155412500005,60.351725362500005,37.0,63.0
265,60.158868412500006,60.49636807500001,61.0,74.0
266,60.58743941250001,61.019581837500006,66.0,75.0
267,60.58743941250001,61.05172466250001,70.0,78.0
268,60.58743941250001,61.26065302500001,61.0,79.0
269,60.58743941250001,61.48565280000001,42.0,70.0
270,61.01601041250001,61.52672418750001,49.0,47.0
271,61.44458141250001,61.698152587500005,54.0,61.0
272,61.44458141250001,61.85350957500001,70.0,89.0
273,61.44458141250001,61.86422385000001,66.0,93.0
274,61.873152412500005,62.22493777500001,61.0,62.0
275,62.30172341250001,62.73565155000001,66.0,68.0
276,62.30172341250001,62.996365575000006,63.0,67.0
277,62.73029441250001,63.301722412500006,54.0,66.0
278,63.158865412500006,63.68922202500001,63.0,72.0
279,63.158865412500006,63.732079125000006,66.0,69.0
280,63.158865412500006,63.89815038750001,59.0,72.0
281,63.58743641250001,64.2410071875,54.0,53.0
282,64.0160074125,64.7302924125,66.0,74.0
283,64.0160074125,64.7517209625,59.0,73.0
284,64.0160074125,64.7552923875,63.0,76.0
285,64.44457841250001,64.99814928750001,54.0,74.0
286,64.87314941250001,65.35350607500001,63.0,99.0
287,64.87314941250001,65.35529178750001,66.0,107.0
288,62.30172341250001,65.5910058375,47.0,69.0
289,65.08743491250002,65.646362925,54.0,75.0
290,65.3017204125,66.246362325,59.0,75.0
291,65.73029141250001,66.2481480375,63.0,82.0
292,65.73029141250001,66.2481480375,66.0,89.0
293,65.73029141250001,67.1124328875,47.0,75.0
294,66.15886241250001,67.467789675,54.0,63.0
295,66.5874334125,67.92493207500002,66.0,107.0
296,67.01600441250001,67.9731463125,59.0,95.0
297,66.5874334125,68.05528908750001,63.0,107.0
298,67.8731464125,68.3285031,54.0,69.0
299,67.44457541250001,68.43207442500001,47.0,78.0
300,68.30171741250001,68.7552883875,66.0,95.0
301,68.30171741250001,68.9802881625,63.0,100.0
302,68.7302884125,69.039216675,59.0,88.0
303,69.15885941250001,70.296358275,59.0,92.0
304,69.15885941250001,70.55707230000002,68.0,92.0
305,69.15885941250001,70.56421515000001,64.0,86.0
306,69.15885941250001,70.59278655000001,40.0,77.0
307,70.0160014125,70.62135795,52.0,85.0
308,69.58743041250001,70.68742931250002,47.0,48.0
309,70.44457241250001,70.7017150125,59.0,73.0
310,70.87314341250001,71.2767144375,66.0,93.0
311,70.87314341250001,71.3874286125,63.0,96.0
312,70.87314341250001,71.857071,39.0,92.0
313,71.3017144125,72.00349942500002,51.0,34.0
314,71.73028541250001,72.17849925000002,63.0,95.0
315,71.73028541250001,72.19278495,66.0,92.0
316,72.15885641250001,72.332070525,58.0,70.0
317,72.5874274125,73.303498125,63.0,82.0
318,72.5874274125,73.59456926250002,59.0,69.0
319,73.44456941250002,73.99278315000001,68.0,95.0
320,72.5874274125,74.14099728750001,44.0,86.0
321,73.8731404125,74.18742581250001,59.0,71.0
322,73.01599841250001,74.32313996250001,56.0,85.0
323,74.30171141250001,75.03742496250001,68.0,86.0
324,74.30171141250001,75.05171066250001,63.0,86.0
325,74.30171141250001,75.0552820875,59.0,81.0
326,74.7302824125,75.06778207500001,56.0,69.0
327,74.30171141250001,75.27671043750001,44.0,93.0
328,75.15885341250001,75.61421010000001,63.0,93.0
329,75.15885341250001,75.64278150000001,68.0,96.0
330,75.58742441250001,75.72313856250001,59.0,69.0
331,76.0159954125,76.46956638750001,64.0,85.0
332,76.0159954125,76.5017092125,68.0,93.0
333,76.0159954125,76.7267089875,61.0,95.0
334,76.44456641250001,76.95528018750001,44.0,50.0
335,76.0159954125,76.9909944375,37.0,78.0
336,76.87313741250001,77.232065625,49.0,71.0
337,76.87313741250001,77.27492272500001,64.0,76.0
338,76.87313741250001,77.30349412500001,68.0,83.0
339,77.3017084125,77.446351125,61.0,81.0
340,77.73027941250001,78.20349322500002,61.0,92.0
341,77.73027941250001,78.41063587500001,58.0,100.0
342,78.5874214125,78.64634992500001,54.0,77.0
343,77.73027941250001,78.79099263750001,42.0,72.0
344,78.15885041250002,78.8427783,49.0,61.0
345,78.5874214125,78.87492112500001,61.0,93.0
346,78.5874214125,78.8981353875,58.0,100.0
347,79.44456341250002,80.1195627375,66.0,93.0
348,79.44456341250002,80.14099128750001,59.0,88.0
349,79.44456341250002,80.14991985,63.0,100.0
350,79.87313441250001,80.53384803750001,54.0,52.0
351,80.30170541250001,81.01599041250002,66.0,96.0
352,80.30170541250001,81.05170466250001,63.0,102.0
353,80.7302764125,81.34634722500002,54.0,63.0
354,81.15884741250001,81.63563265,59.0,85.0
355,81.15884741250001,81.69634687500002,66.0,85.0
356,81.15884741250001,81.79991820000001,63.0,92.0
357,81.58741841250001,82.11241788750002,54.0,76.0
358,79.44456341250002,82.13741786250002,47.0,70.0
359,82.0159894125,82.48206037500002,66.0,100.0
360,82.0159894125,82.53027461250001,63.0,107.0
361,82.44456041250001,82.73741726250002,59.0,81.0
362,82.87313141250002,83.94455891250001,59.0,88.0
363,82.87313141250002,84.17670153750001,68.0,93.0
364,82.87313141250002,84.25170146250001,64.0,92.0
365,84.15884441250002,84.48562980000001,59.0,89.0
366,83.73027341250001,84.89455796250002,52.0,86.0
367,84.58741541250001,85.21955763750002,64.0,93.0
368,84.58741541250001,85.26598616250001,59.0,96.0
369,84.58741541250001,85.27134330000001,68.0,93.0
370,85.01598641250001,85.35170036250001,52.0,73.0
371,82.87313141250002,85.44098598750001,40.0,79.0
372,83.3017024125,85.50170021250001,47.0,58.0
373,85.44455741250002,85.82134275000001,68.0,95.0
374,85.44455741250002,85.90169981250001,64.0,100.0
375,85.87312841250001,86.23027091250002,59.0,89.0
376,86.30169941250001,86.95348447500001,70.0,97.0
377,86.30169941250001,87.01955583750001,66.0,100.0
378,86.30169941250001,87.03562725,61.0,97.0
379,87.15884141250001,87.68205517500002,70.0,83.0
380,86.30169941250001,87.85169786250002,42.0,81.0
381,87.15884141250001,87.87491212500001,66.0,92.0
382,87.15884141250001,87.88026926250001,61.0,99.0
383,86.7302704125,88.01241198750002,49.0,35.0
384,87.58741241250002,88.0909833375,54.0,37.0
385,88.0159834125,88.7266969875,70.0,72.0
386,88.0159834125,88.77312551250002,66.0,81.0
387,88.0159834125,88.782054075,61.0,93.0
388,89.30169641250001,89.71598171250001,61.0,93.0
389,88.87312541250002,89.72669598750001,70.0,92.0
390,88.87312541250002,89.73562455000001,66.0,97.0
391,89.73026741250001,89.73562455000001,66.0,72.0
392,88.0159834125,89.75526738750001,42.0,77.0
393,89.73026741250001,90.453480975,59.0,79.0
394,90.15883841250002,90.7731235125,54.0,90.0
395,90.58740941250001,91.17133740000001,66.0,76.0
396,90.58740941250001,91.30348012500001,59.0,86.0
397,90.58740941250001,91.3338372375,63.0,73.0
398,91.44455141250002,92.18740781250001,66.0,88.0
399,91.44455141250002,92.21419350000001,63.0,92.0
400,91.44455141250002,92.29812198750001,59.0,83.0
401,89.73026741250001,93.10704975000002,47.0,78.0
402,92.30169341250001,93.11597831250002,63.0,86.0
403,91.01598041250001,93.14276400000001,54.0,83.0
404,92.30169341250001,93.15169256250002,66.0,75.0
405,93.58740641250002,93.86954898750001,59.0,78.0
406,93.80169191250002,94.05704880000002,63.0,89.0
407,93.15883541250001,94.74990525000001,47.0,81.0
408,93.37312091250001,94.88026226250001,54.0,79.0
409,94.0159774125,95.37847605000002,66.0,102.0
410,94.44454841250001,95.59811868750002,63.0,70.0
411,95.30169041250001,95.80704705000001,54.0,59.0
412,94.87311941250002,96.00883256250002,47.0,76.0
413,96.15883241250002,96.57133200000001,63.0,72.0
414,95.73026141250001,96.59633197500001,66.0,117.0
415,97.87311641250001,98.38918732500001,59.0,78.0
416,97.44454541250002,98.52847290000001,52.0,81.0
417,98.30168741250002,99.05525808750001,68.0,85.0
418,98.30168741250002,99.07132950000002,64.0,74.0
419,98.7302584125,99.26775787500002,52.0,56.0
420,96.58740341250001,99.3159721125,40.0,88.0
421,97.01597441250001,99.34632922500002,47.0,46.0
422,99.15882941250001,99.98204287500002,64.0,86.0
423,99.15882941250001,99.98740001250002,68.0,90.0
424,99.58740041250002,100.04097138750001,59.0,82.0
425,100.44454241250001,101.02847040000002,54.0,82.0
426,100.01597141250001,101.11775602500002,47.0,76.0
427,100.87311341250002,101.66596976250001,66.0,117.0
428,101.30168441250001,101.7981124875,63.0,83.0
429,102.15882641250002,103.01775412500001,51.0,56.0
430,102.58739741250001,103.03382553750001,56.0,93.0
431,101.73025541250001,103.08739691250001,44.0,77.0
432,103.01596841250002,103.55703930000001,59.0,89.0
433,104.30168141250002,105.36418035000001,54.0,92.0
434,105.15882341250001,105.66060862500001,61.0,90.0
435,105.15882341250001,105.70882286250001,66.0,93.0
436,105.58739441250002,106.12489387500001,54.0,83.0
437,104.73025241250001,106.18025096250001,58.0,93.0
438,103.87311041250001,106.32489367500001,49.0,67.0
439,103.44453941250002,106.34989365000001,42.0,88.0
440,106.23025091250001,106.41417930000001,54.0,93.0
441,106.44453641250001,106.81417890000002,61.0,117.0
442,106.65882191250002,106.82310746250002,58.0,96.0
443,106.01596541250001,106.82667888750001,66.0,117.0
444,107.30167841250001,107.60524953750001,59.0,89.0
445,107.51596391250001,107.76596366250001,63.0,95.0
446,107.08739291250001,107.83382073750002,54.0,82.0
447,106.87310741250002,108.43739156250001,47.0,69.0
448,107.94453491250002,108.60167711250001,54.0,67.0
449,107.73024941250002,108.60346282500001,66.0,93.0
450,108.15882041250002,108.61953423750002,63.0,50.0
451,108.37310591250001,108.65346277500001,59.0,56.0
452,109.01596241250002,109.53560475000002,54.0,44.0
453,109.65881891250001,109.82310446250001,54.0,69.0
454,108.58739141250001,109.90346152500001,47.0,71.0
455,109.44453341250001,110.24453261250001,66.0,99.0
456,109.87310441250001,110.24810403750001,63.0,85.0
457,110.08738991250002,110.80346062500001,59.0,71.0
458,110.94453191250001,111.69095973750001,59.0,76.0
459,110.30167541250002,111.89095953750001,40.0,76.0
460,110.51596091250002,112.04810223750002,47.0,56.0
461,110.73024641250001,112.74988725000001,52.0,79.0
462,111.15881741250001,112.76953008750002,68.0,127.0
463,111.58738841250002,112.77845865000002,64.0,75.0
464,112.01595941250001,112.96417275000002,59.0,77.0
465,112.01595941250001,113.09274405000002,40.0,69.0
466,112.44453041250001,113.14095828750001,47.0,48.0
467,112.87310141250002,113.60702925000001,52.0,67.0
468,112.87310141250002,113.71774342500001,64.0,79.0
469,112.87310141250002,113.72667198750001,68.0,93.0
470,113.30167241250001,113.77667193750001,59.0,79.0
471,113.73024341250002,114.80167091250001,47.0,76.0
472,114.15881441250002,114.81059947500002,54.0,66.0
473,114.58738541250001,115.52309876250001,66.0,107.0
474,115.01595641250002,115.53381303750001,59.0,78.0
475,114.58738541250001,115.56059872500002,63.0,97.0
476,115.87309841250001,116.58024056250001,49.0,37.0
477,115.44452741250001,116.59988340000001,42.0,89.0
478,116.30166941250002,116.76238323750002,54.0,69.0
479,116.30166941250002,116.88202597500002,66.0,86.0
480,116.73024041250001,117.15881141250001,58.0,93.0
481,116.30166941250002,117.15881141250001,61.0,88.0
482,117.15881141250001,118.79095263750001,47.0,77.0
483,117.58738241250002,118.99095243750001,54.0,78.0
484,118.44452441250002,119.28916642500002,66.0,88.0
485,118.01595341250001,119.71952313750002,63.0,96.0
486,118.87309541250002,120.44273670000001,47.0,88.0
487,119.30166641250001,120.61595081250002,54.0,83.0
488,120.15880841250002,121.25345017500001,63.0,85.0
489,120.58737941250001,122.16594926250002,47.0,67.0
490,121.01595041250002,122.35880621250001,54.0,56.0
491,119.73023741250002,123.65523348750001,59.0,75.0
492,121.44452141250001,123.93916177500002,63.0,75.0
493,121.87309241250001,123.95880461250002,66.0,79.0
494,122.30166341250002,123.97844745000002,47.0,72.0
495,124.01594741250001,124.55344687500002,66.0,71.0
496,124.01594741250001,124.58737541250002,63.0,85.0
497,124.01594741250001,124.60880396250002,59.0,81.0
498,124.01594741250001,125.57666013750001,47.0,76.0
499,124.44451841250002,125.79987420000002,54.0,75.0
500,124.87308941250002,126.15344527500001,66.0,85.0
501,124.87308941250002,126.21773092500001,63.0,95.0
502,125.30166041250001,126.26237373750001,59.0,68.0
503,126.15880241250002,126.58380198750001,54.0,76.0
504,125.73023141250002,126.73915897500002,47.0,74.0
505,126.58737341250001,127.01951583750002,66.0,82.0
506,126.58737341250001,127.27665843750002,63.0,90.0
507,127.01594441250002,127.34094408750002,59.0,72.0
508,127.44451541250001,128.1266575875,64.0,75.0
509,127.44451541250001,128.15165756250002,59.0,73.0
510,127.44451541250001,128.15344327500003,68.0,77.0
511,127.44451541250001,128.43380013750001,40.0,65.0
512,127.87308641250002,128.43380013750001,47.0,36.0
513,128.30165741250002,128.7445141125,52.0,52.0
514,128.30165741250002,128.74987125,64.0,88.0
515,128.30165741250002,128.77487122500003,68.0,93.0
516,128.73022841250003,129.0980851875,59.0,76.0
517,129.15879941250003,129.74987025000001,66.0,75.0
518,129.15879941250003,129.82129875,59.0,69.0
519,129.15879941250003,129.82308446250002,63.0,76.0
520,129.5873704125,130.27308401250002,54.0,49.0
521,129.15879941250003,130.68558360000003,47.0,59.0
522,130.0159414125,130.76058352500002,66.0,66.0
523,130.0159414125,130.78558350000003,63.0,66.0
524,130.0159414125,130.8141549,59.0,56.0
525,130.44451241250002,130.8373691625,54.0,55.0
526,130.87308341250002,131.624868375,59.0,74.0
527,130.87308341250002,131.632011225,66.0,86.0
528,130.87308341250002,131.65165406250003,63.0,89.0
529,131.30165441250003,131.98915372500002,54.0,64.0
530,131.7302254125,132.44986755000002,66.0,90.0
531,131.7302254125,132.453438975,59.0,85.0
532,131.7302254125,132.46593896250002,63.0,97.0
533,130.87308341250002,132.47129610000002,47.0,72.0
534,132.1587964125,132.60701025000003,54.0,43.0
535,132.58736741250002,133.2909381375,66.0,62.0
536,132.58736741250002,133.31593811250002,59.0,67.0
537,132.58736741250002,133.31772382500003,63.0,65.0
538,133.01593841250002,133.59986640000002,54.0,47.0
539,132.58736741250002,133.6802234625,47.0,63.0
540,133.44450941250003,133.95343747500002,66.0,89.0
541,133.44450941250003,133.96593746250002,63.0,95.0
542,133.87308041250003,134.26415145,59.0,72.0
543,134.3016514125,134.84272230000002,66.0,68.0
544,134.3016514125,135.03915067500003,61.0,72.0
545,135.15879341250002,135.51415020000002,66.0,71.0
546,135.15879341250002,135.63200722500002,61.0,85.0
547,135.58736441250002,136.15522098750003,54.0,46.0
548,136.01593541250003,136.45522068750003,66.0,68.0
549,136.01593541250003,136.53022061250002,61.0,69.0
550,136.01593541250003,136.6730776125,58.0,63.0
551,136.4445064125,136.8445060125,54.0,56.0
552,134.7302224125,136.86057742500003,49.0,40.0
553,134.3016514125,136.98022016250002,42.0,72.0
554,136.8730774125,137.3284341,66.0,69.0
555,137.30164841250001,137.5998624,58.0,52.0
556,136.8730774125,137.62129095000003,61.0,90.0
557,137.73021941250002,138.44807583750003,68.0,56.0
558,137.73021941250002,138.45700440000002,59.0,71.0
559,137.73021941250002,138.46950438750002,64.0,63.0
560,138.58736141250003,139.0945037625,68.0,76.0
561,138.58736141250003,139.10164661250002,64.0,75.0
562,138.58736141250003,139.25164646250002,59.0,71.0
563,139.0159324125,139.67486032500003,52.0,52.0
564,139.4445034125,140.00700285000002,64.0,68.0
565,139.4445034125,140.00700285000002,68.0,64.0
566,139.4445034125,140.182002675,59.0,72.0
567,137.73021941250002,140.32485967500003,40.0,71.0
568,138.15879041250003,140.37485962500003,47.0,45.0
569,139.87307441250002,140.51414520000003,52.0,56.0
570,140.30164541250002,140.72843070000002,68.0,86.0
571,140.30164541250002,140.73378783750002,64.0,85.0
572,140.73021641250003,141.060573225,59.0,66.0
573,141.15878741250003,141.66414405,59.0,64.0
574,141.15878741250003,141.68557260000003,66.0,78.0
575,141.15878741250003,141.7159297125,63.0,78.0
576,141.15878741250003,142.0427151,47.0,61.0
577,141.5873584125,142.05164366250003,54.0,50.0
578,142.01592941250001,142.44628612500003,66.0,81.0
579,142.01592941250001,142.5087860625,63.0,85.0
580,142.44450041250002,142.76235723750003,59.0,72.0
581,142.87307141250002,143.49271365,68.0,75.0
582,142.87307141250002,143.54449931250002,59.0,72.0
583,142.87307141250002,143.55521358750002,63.0,79.0
584,143.30164241250003,143.89628467500003,51.0,30.0
585,143.7302134125,143.93735606250002,56.0,74.0
586,142.87307141250002,144.0141417,44.0,74.0
587,143.7302134125,144.25164146250003,63.0,90.0
588,143.7302134125,144.2980699875,68.0,79.0
589,144.1587844125,144.41056987500002,59.0,46.0
590,144.58735541250002,144.624855375,68.0,43.0
591,144.58735541250002,145.28735471250002,64.0,73.0
592,144.58735541250002,145.3194975375,61.0,83.0
593,145.01592641250002,145.58378298750003,44.0,47.0
594,145.44449741250003,145.93735406250002,64.0,66.0
595,145.44449741250003,145.974854025,68.0,58.0
596,145.44449741250003,145.9855683,49.0,67.0
597,144.58735541250002,146.06592536250002,37.0,63.0
598,145.87306841250003,146.21056807500003,61.0,74.0
599,146.3016394125,146.89271025000002,68.0,66.0
600,146.3016394125,146.99806728750002,64.0,63.0
601,146.3016394125,147.00342442500002,61.0,73.0
602,146.7302104125,147.26592416250003,44.0,26.0
603,146.3016394125,147.28556700000001,37.0,69.0
604,147.15878141250002,147.56413815000002,49.0,58.0
605,147.15878141250002,147.6516380625,68.0,68.0
606,147.15878141250002,147.68020946250002,64.0,76.0
607,147.58735241250002,147.9284235,61.0,70.0
608,148.01592341250003,148.51949433750002,70.0,69.0
609,148.01592341250003,148.75163696250002,66.0,68.0
610,148.01592341250003,148.75877981250002,61.0,72.0
611,148.4444944125,148.95699390000001,49.0,46.0
612,148.8730654125,149.410564875,70.0,66.0
613,148.01592341250003,149.610564675,42.0,72.0
614,148.8730654125,149.66949318750002,54.0,85.0
615,149.30163641250002,149.67485032500002,49.0,58.0
616,148.8730654125,149.67842175,66.0,64.0
617,148.8730654125,149.69627887500002,61.0,69.0
618,149.73020741250002,150.46413525000003,70.0,88.0
619,149.73020741250002,150.50163521250002,66.0,89.0
620,149.73020741250002,150.50877806250003,61.0,90.0
621,150.58734941250003,151.28377728750002,70.0,81.0
622,150.58734941250003,151.2944915625,61.0,70.0
623,150.58734941250003,151.29806298750003,66.0,70.0
624,149.73020741250002,151.2998487,49.0,55.0
625,149.73020741250002,151.31234868750002,42.0,55.0
626,149.73020741250002,151.3444915125,54.0,66.0
627,151.4444914125,151.981990875,66.0,71.0
628,151.4444914125,152.0159194125,63.0,85.0
629,151.4444914125,152.0373479625,59.0,81.0
630,151.4444914125,153.00520413750002,47.0,76.0
631,151.87306241250002,153.22841820000002,54.0,75.0
632,152.30163341250002,153.581989275,66.0,85.0
633,152.30163341250002,153.64627492500003,63.0,95.0
634,152.73020441250003,153.69091773750003,59.0,68.0
635,153.5873464125,154.01234598750003,54.0,76.0
636,153.1587754125,154.16770297500003,47.0,74.0
637,154.01591741250002,154.4480598375,66.0,82.0
638,154.01591741250002,154.70520243750002,63.0,90.0
639,154.44448841250002,154.7694880875,59.0,72.0
640,154.87305941250003,155.55520158750002,64.0,75.0
641,154.87305941250003,155.5802015625,59.0,73.0
642,154.87305941250003,155.58198727500002,68.0,77.0
643,154.87305941250003,155.86234413750003,40.0,65.0
644,155.30163041250003,155.86234413750003,47.0,36.0
645,155.7302014125,156.17305811250003,52.0,52.0
646,155.7302014125,156.17841525000003,64.0,88.0
647,155.7302014125,156.20341522500001,68.0,93.0
648,156.1587724125,156.52662918750002,59.0,76.0
649,156.58734341250002,157.17841425000003,66.0,75.0
650,156.58734341250002,157.24984275000003,59.0,69.0
651,156.58734341250002,157.2516284625,63.0,76.0
652,157.01591441250002,157.7016280125,54.0,49.0
653,156.58734341250002,158.11412760000002,47.0,59.0
654,157.44448541250003,158.18912752500003,66.0,66.0
655,157.44448541250003,158.21412750000002,63.0,66.0
656,157.44448541250003,158.24269890000002,59.0,56.0
657,157.87305641250003,158.26591316250003,54.0,55.0
658,158.3016274125,159.05341237500002,59.0,74.0
659,158.3016274125,159.06055522500003,66.0,86.0
660,158.3016274125,159.08019806250002,63.0,89.0
661,158.73019841250002,159.417697725,54.0,64.0
662,159.15876941250002,159.87841155,66.0,90.0
663,159.15876941250002,159.88198297500003,59.0,85.0
664,159.15876941250002,159.8944829625,63.0,97.0
665,158.3016274125,159.89984010000003,47.0,72.0
666,159.58734041250003,160.03555425000002,54.0,43.0
667,160.01591141250003,160.71948213750002,66.0,62.0
668,160.01591141250003,160.7444821125,59.0,67.0
669,160.01591141250003,160.74626782500002,63.0,65.0
670,160.4444824125,161.0284104,54.0,47.0
671,160.01591141250003,161.10876746250003,47.0,63.0
672,160.8730534125,161.38198147500003,66.0,89.0
673,160.8730534125,161.3944814625,63.0,95.0
674,161.30162441250002,161.69269545000003,59.0,72.0
675,161.73019541250002,162.2712663,66.0,68.0
676,161.73019541250002,162.46769467500002,61.0,72.0
677,162.58733741250003,162.94269420000003,66.0,71.0
678,162.58733741250003,163.060551225,61.0,85.0
679,163.0159084125,163.58376498750002,54.0,46.0
680,163.44447941250002,163.88376468750002,66.0,68.0
681,163.44447941250002,163.95876461250003,61.0,69.0
682,163.44447941250002,164.10162161250003,58.0,63.0
683,163.87305041250002,164.27305001250002,54.0,56.0
684,162.15876641250003,164.28912142500002,49.0,40.0
685,161.73019541250002,164.40876416250003,42.0,72.0
686,164.30162141250003,164.75697810000003,66.0,69.0
687,164.73019241250003,165.02840640000002,58.0,52.0
688,164.30162141250003,165.04983495000002,61.0,90.0
689,165.1587634125,165.87661983750002,68.0,56.0
690,165.1587634125,165.88554840000003,59.0,71.0
691,165.1587634125,165.8980483875,64.0,63.0
692,166.01590541250002,166.52304776250003,68.0,76.0
693,166.01590541250002,166.53019061250004,64.0,75.0
694,166.01590541250002,166.6801904625,59.0,71.0
695,166.44447641250002,167.103404325,52.0,52.0
696,166.87304741250003,167.43554685,64.0,68.0
697,166.87304741250003,167.43554685,68.0,64.0
698,166.87304741250003,167.61054667500002,59.0,72.0
699,165.1587634125,167.75340367500002,40.0,71.0
700,165.5873344125,167.80340362500002,47.0,45.0
701,167.30161841250003,167.94268920000002,52.0,56.0
702,167.7301894125,168.15697470000003,68.0,86.0
703,167.7301894125,168.16233183750003,64.0,85.0
704,168.15876041250002,168.48911722500003,59.0,66.0
705,168.58733141250002,169.09268805000002,59.0,64.0
706,168.58733141250002,169.11411660000002,66.0,78.0
707,168.58733141250002,169.14447371250003,63.0,78.0
708,168.58733141250002,169.47125910000003,47.0,61.0
709,169.01590241250003,169.48018766250001,54.0,50.0
710,169.44447341250003,169.87483012500002,66.0,81.0
711,169.44447341250003,169.93733006250002,63.0,85.0
712,169.87304441250004,170.19090123750001,59.0,72.0
713,170.3016154125,170.92125765000003,68.0,75.0
714,170.3016154125,170.9730433125,59.0,72.0
715,170.3016154125,170.9837575875,63.0,79.0
716,170.73018641250002,171.32482867500002,51.0,30.0
717,171.15875741250002,171.36590006250003,56.0,74.0
718,170.3016154125,171.44268570000003,44.0,74.0
719,171.15875741250002,171.68018546250002,63.0,90.0
720,171.15875741250002,171.72661398750003,68.0,79.0
721,171.58732841250003,171.839113875,59.0,46.0
722,172.01589941250003,172.05339937500003,68.0,43.0
723,172.01589941250003,172.71589871250004,64.0,73.0
724,172.01589941250003,172.74804153750003,61.0,83.0
725,172.4444704125,173.01232698750002,44.0,47.0
726,172.87304141250002,173.36589806250004,64.0,66.0
727,172.87304141250002,173.40339802500003,68.0,58.0
728,172.87304141250002,173.41411230000003,49.0,67.0
729,172.01589941250003,173.4944693625,37.0,63.0
730,173.30161241250002,173.639112075,61.0,74.0
731,173.73018341250003,174.16232583750002,66.0,75.0
732,173.73018341250003,174.19446866250001,70.0,78.0
733,173.73018341250003,174.40339702500003,61.0,79.0
734,173.73018341250003,174.62839680000002,42.0,70.0
735,174.15875441250003,174.66946818750003,49.0,47.0
736,174.58732541250004,174.84089658750003,54.0,61.0
737,174.58732541250004,174.99625357500003,70.0,89.0
738,174.58732541250004,175.00696785000002,66.0,93.0
739,175.0158964125,175.36768177500002,61.0,62.0
740,175.44446741250002,175.87839555000002,66.0,68.0
741,175.44446741250002,176.13910957500002,63.0,67.0
742,175.87303841250002,176.44446641250002,54.0,66.0
743,176.30160941250003,176.831966025,63.0,72.0
744,176.30160941250003,176.87482312500003,66.0,69.0
745,176.30160941250003,177.04089438750003,59.0,72.0
746,176.73018041250003,177.38375118750002,54.0,53.0
747,177.1587514125,177.87303641250003,66.0,74.0
748,177.1587514125,177.89446496250002,59.0,73.0
749,177.1587514125,177.8980363875,63.0,76.0
750,177.58732241250001,178.14089328750003,54.0,74.0
751,178.01589341250002,178.49625007500003,63.0,99.0
752,178.01589341250002,178.49803578750002,66.0,107.0
753,175.44446741250002,178.73374983750003,47.0,69.0
754,178.23017891250004,178.78910692500003,54.0,75.0
755,178.44446441250003,179.38910632500003,59.0,75.0
756,178.87303541250003,179.3908920375,63.0,82.0
757,178.87303541250003,179.3908920375,66.0,89.0
758,178.87303541250003,180.25517688750003,47.0,75.0
759,179.30160641250004,180.61053367500003,54.0,63.0
760,179.7301774125,181.06767607500004,66.0,107.0
761,180.15874841250002,181.11589031250003,59.0,95.0
762,179.7301774125,181.19803308750002,63.0,107.0
763,181.01589041250003,181.47124710000003,54.0,69.0
764,180.58731941250002,181.57481842500002,47.0,78.0
765,181.44446141250003,181.89803238750002,66.0,95.0
766,181.44446141250003,182.1230321625,63.0,100.0
767,181.87303241250004,182.18196067500003,59.0,88.0
768,182.30160341250001,183.439102275,59.0,92.0
769,182.30160341250001,183.69981630000004,68.0,92.0
770,182.30160341250001,183.70695915000002,64.0,86.0
771,182.30160341250001,183.73553055000002,40.0,77.0
772,183.15874541250002,183.76410195000003,52.0,85.0
773,182.73017441250002,183.83017331250002,47.0,48.0
774,183.58731641250003,183.8444590125,59.0,73.0
775,184.01588741250004,184.41945843750003,66.0,93.0
776,184.01588741250004,184.53017261250002,63.0,96.0
777,184.01588741250004,184.999815,39.0,92.0
778,184.4444584125,185.14624342500002,51.0,34.0
779,184.87302941250002,185.32124325000004,63.0,95.0
780,184.87302941250002,185.33552895000003,66.0,92.0
781,185.30160041250002,185.47481452500003,58.0,70.0
782,185.73017141250003,186.44624212500003,63.0,82.0
783,185.73017141250003,186.73731326250004,59.0,69.0
784,186.58731341250004,187.13552715000003,68.0,95.0
785,185.73017141250003,187.28374128750002,44.0,86.0
786,187.01588441250001,187.33016981250003,59.0,71.0
787,186.15874241250003,187.46588396250002,56.0,85.0
788,187.44445541250002,188.18016896250003,68.0,86.0
789,187.44445541250002,188.19445466250002,63.0,86.0
790,187.44445541250002,188.1980260875,59.0,81.0
791,187.87302641250002,188.21052607500002,56.0,69.0
792,187.44445541250002,188.41945443750004,44.0,93.0
793,188.30159741250003,188.75695410000003,63.0,93.0
794,188.30159741250003,188.78552550000003,68.0,96.0
795,188.73016841250003,188.86588256250002,59.0,69.0
796,189.1587394125,189.61231038750003,64.0,85.0
797,189.1587394125,189.64445321250003,68.0,93.0
798,189.1587394125,189.8694529875,61.0,95.0
799,189.58731041250002,190.09802418750002,44.0,50.0
800,189.1587394125,190.13373843750003,37.0,78.0
801,190.01588141250002,190.374809625,49.0,71.0
802,190.01588141250002,190.41766672500003,64.0,76.0
803,190.01588141250002,190.44623812500004,68.0,83.0
804,190.44445241250003,190.58909512500003,61.0,81.0
805,190.87302341250003,191.34623722500004,61.0,92.0
806,190.87302341250003,191.55337987500002,58.0,100.0
807,191.7301654125,191.78909392500003,54.0,77.0
808,190.87302341250003,191.93373663750003,42.0,72.0
809,191.30159441250004,191.9855223,49.0,61.0
810,191.7301654125,192.01766512500004,61.0,93.0
811,191.7301654125,192.0408793875,58.0,100.0
812,192.58730741250002,193.2623067375,66.0,93.0
813,192.58730741250002,193.28373528750004,59.0,88.0
814,192.58730741250002,193.29266385000003,63.0,100.0
815,193.01587841250003,193.67659203750003,54.0,52.0
816,193.44444941250003,194.15873441250002,66.0,96.0
817,193.44444941250003,194.19444866250004,63.0,102.0
818,193.8730204125,194.48909122500004,54.0,63.0
819,194.30159141250002,194.77837665,59.0,85.0
820,194.30159141250002,194.83909087500004,66.0,85.0
821,194.30159141250002,194.94266220000003,63.0,92.0
822,194.73016241250002,195.25516188750004,54.0,76.0
823,192.58730741250002,195.28016186250002,47.0,70.0
824,195.15873341250003,195.62480437500002,66.0,100.0
825,195.15873341250003,195.67301861250002,63.0,107.0
826,195.58730441250003,195.88016126250002,59.0,81.0
827,196.01587541250004,197.08730291250004,59.0,88.0
828,196.01587541250004,197.31944553750003,68.0,93.0
829,196.01587541250004,197.39444546250002,64.0,92.0
830,197.30158841250002,197.62837380000002,59.0,89.0
831,196.87301741250002,198.03730196250004,52.0,86.0
832,197.73015941250003,198.36230163750002,64.0,93.0
833,197.73015941250003,198.40873016250004,59.0,96.0
834,197.73015941250003,198.41408730000003,68.0,93.0
835,198.15873041250003,198.49444436250002,52.0,73.0
836,196.01587541250004,198.58372998750002,40.0,79.0
837,196.4444464125,198.64444421250002,47.0,58.0
838,198.58730141250004,198.96408675000004,68.0,95.0
839,198.58730141250004,199.04444381250002,64.0,100.0
840,199.01587241250002,199.37301491250003,59.0,89.0
841,199.44444341250002,200.09622847500003,70.0,97.0
842,199.44444341250002,200.16229983750003,66.0,100.0
843,199.44444341250002,200.17837125000003,61.0,97.0
844,200.30158541250003,200.82479917500004,70.0,83.0
845,199.44444341250002,200.99444186250003,42.0,81.0
846,200.30158541250003,201.01765612500003,66.0,92.0
847,200.30158541250003,201.02301326250003,61.0,99.0
848,199.87301441250003,201.15515598750002,49.0,35.0
849,200.73015641250004,201.23372733750003,54.0,37.0
850,201.1587274125,201.8694409875,70.0,72.0
851,201.1587274125,201.91586951250002,66.0,81.0
852,201.1587274125,201.924798075,61.0,93.0
853,202.44444041250003,202.85872571250002,61.0,93.0
854,202.01586941250002,202.86943998750002,70.0,92.0
855,202.01586941250002,202.87836855000003,66.0,97.0
856,202.87301141250003,202.87836855000003,66.0,72.0
857,201.1587274125,202.89801138750002,42.0,77.0
858,202.87301141250003,203.596224975,59.0,79.0
859,203.30158241250004,203.91586751250003,54.0,90.0
860,203.73015341250002,204.31408140000002,66.0,76.0
861,203.73015341250002,204.44622412500001,59.0,86.0
862,203.73015341250002,204.47658123750003,63.0,73.0
863,202.87301141250003,204.58729541250003,47.0,78.0
864,204.15872441250002,204.58729541250003,54.0,83.0
865,204.58729541250003,205.10336632500002,62.0,97.0
866,204.58729541250003,205.17300911250004,67.0,86.0
867,204.58729541250003,205.18193767500003,71.0,81.0
868,205.01586641250003,205.48015166250002,55.0,107.0
869,205.23015191250002,205.53015161250002,62.0,89.0
870,205.44443741250004,205.90872266250003,67.0,107.0
871,205.65872291250002,205.95157976250002,55.0,107.0
872,204.80158091250001,206.26943658750002,50.0,66.0
873,204.58729541250003,206.33729366250003,43.0,99.0
874,206.08729391250003,206.34622222500002,67.0,102.0
875,206.30157941250002,206.34622222500002,67.0,89.0
876,205.44443741250004,206.35157936250002,71.0,99.0
877,205.8730084125,206.35872221250003,62.0,112.0
878,206.30157941250002,206.81943603750003,64.0,82.0
879,206.30157941250002,207.68372088750002,48.0,75.0
880,206.73015041250002,208.03907767500002,55.0,63.0
881,207.15872141250003,208.49622007500002,67.0,107.0
882,207.58729241250003,208.54443431250002,60.0,95.0
883,207.15872141250003,208.62657708750004,64.0,107.0
884,208.44443441250002,208.89979110000002,55.0,69.0
885,208.01586341250004,209.00336242500003,48.0,78.0
886,208.87300541250002,209.32657638750004,67.0,95.0
887,208.87300541250002,209.55157616250003,64.0,100.0
888,209.30157641250003,209.61050467500002,60.0,88.0
889,209.73014741250003,210.86764627500003,60.0,92.0
890,209.73014741250003,211.12836030000003,69.0,92.0
891,209.73014741250003,211.13550315000003,65.0,86.0
892,209.73014741250003,211.16407455000004,41.0,77.0
893,210.58728941250004,211.19264595,53.0,85.0
894,210.15871841250004,211.25871731250004,48.0,48.0
895,211.01586041250002,211.27300301250003,60.0,73.0
896,211.44443141250002,211.8480024375,67.0,93.0
897,211.44443141250002,211.95871661250004,64.0,96.0
898,211.44443141250002,212.42835900000003,40.0,92.0
899,211.87300241250003,212.57478742500004,52.0,34.0
900,212.30157341250003,212.74978725000003,64.0,95.0
901,212.30157341250003,212.76407295000004,67.0,92.0
902,212.73014441250004,212.90335852500002,59.0,70.0
903,213.15871541250002,213.874786125,64.0,82.0
904,213.15871541250002,214.16585726250003,60.0,69.0
905,214.01585741250003,214.56407115000002,69.0,95.0
906,213.15871541250002,214.71228528750004,45.0,86.0
907,214.44442841250003,214.75871381250002,60.0,71.0
908,213.58728641250002,214.89442796250003,57.0,85.0
909,214.87299941250004,215.60871296250002,69.0,86.0
910,214.87299941250004,215.62299866250004,64.0,86.0
911,214.87299941250004,215.62657008750003,60.0,81.0
912,215.30157041250004,215.63907007500003,57.0,69.0
913,214.87299941250004,215.84799843750002,45.0,93.0
914,215.73014141250002,216.18549810000002,64.0,93.0
915,215.73014141250002,216.21406950000002,69.0,96.0
916,216.15871241250002,216.29442656250004,60.0,69.0
917,216.58728341250003,217.04085438750002,65.0,85.0
918,216.58728341250003,217.07299721250004,69.0,93.0
919,216.58728341250003,217.29799698750003,62.0,95.0
920,217.01585441250003,217.52656818750003,45.0,50.0
921,216.58728341250003,217.56228243750002,38.0,78.0
922,217.44442541250004,217.80335362500003,50.0,71.0
923,217.44442541250004,217.84621072500002,65.0,76.0
924,217.44442541250004,217.87478212500002,69.0,83.0
925,217.87299641250002,218.01763912500002,62.0,81.0
926,218.30156741250002,218.77478122500003,62.0,92.0
927,218.30156741250002,218.98192387500004,59.0,100.0
928,219.15870941250003,219.21763792500002,55.0,77.0
929,218.30156741250002,219.36228063750002,43.0,72.0
930,218.73013841250003,219.41406630000003,50.0,61.0
931,219.15870941250003,219.44620912500002,62.0,93.0
932,219.15870941250003,219.46942338750003,59.0,100.0
933,220.01585141250004,220.69085073750003,67.0,93.0
934,220.01585141250004,220.71227928750002,60.0,88.0
935,220.01585141250004,220.72120785000004,64.0,100.0
936,220.44442241250002,221.10513603750002,55.0,52.0
937,220.87299341250002,221.58727841250004,67.0,96.0
938,220.87299341250002,221.62299266250002,64.0,102.0
939,221.30156441250003,221.91763522500003,55.0,63.0
940,221.73013541250003,222.20692065000003,60.0,85.0
941,221.73013541250003,222.26763487500003,67.0,85.0
942,221.73013541250003,222.37120620000002,64.0,92.0
943,222.15870641250004,222.68370588750003,55.0,76.0
944,220.01585141250004,222.70870586250004,48.0,70.0
945,222.58727741250004,223.05334837500004,67.0,100.0
946,222.58727741250004,223.10156261250003,64.0,107.0
947,223.01584841250002,223.30870526250004,60.0,81.0
948,223.44441941250003,224.51584691250002,60.0,88.0
949,223.44441941250003,224.74798953750002,69.0,93.0
950,223.44441941250003,224.82298946250003,65.0,92.0
951,224.73013241250004,225.05691780000004,60.0,89.0
952,224.30156141250004,225.46584596250003,53.0,86.0
953,225.15870341250002,225.79084563750004,65.0,93.0
954,225.15870341250002,225.83727416250002,60.0,96.0
955,225.15870341250002,225.84263130000002,69.0,93.0
956,225.58727441250002,225.92298836250004,53.0,73.0
957,223.44441941250003,226.01227398750004,41.0,79.0
958,223.87299041250003,226.07298821250004,48.0,58.0
959,226.01584541250003,226.39263075000002,69.0,95.0
960,226.01584541250003,226.47298781250004,65.0,100.0
961,226.44441641250003,226.80155891250004,60.0,89.0
962,226.87298741250004,227.56941528750002,71.0,88.0
963,226.87298741250004,227.57120100000003,67.0,96.0
964,226.87298741250004,227.58191527500003,62.0,100.0
965,227.73012941250002,228.53548575000002,67.0,100.0
966,227.73012941250002,228.55334287500003,71.0,107.0
967,228.15870041250002,228.57298571250004,62.0,93.0
968,226.87298741250004,228.58369998750004,43.0,88.0
969,227.30155841250004,228.59619997500002,50.0,54.0
970,228.58727141250003,229.70691315000002,43.0,82.0
971,228.58727141250003,229.91048437500004,62.0,95.0
972,228.58727141250003,229.91227008750002,55.0,96.0
973,228.58727141250003,229.93012721250003,59.0,100.0
974,230.30155541250002,231.38369718750002,60.0,97.0
975,230.30155541250002,231.39084003750003,48.0,107.0
976,230.30155541250002,231.39798288750004,64.0,95.0
977,230.30155541250002,231.41941143750003,55.0,97.0
978,231.58726841250004,231.68369688750002,48.0,100.0
979,231.58726841250004,231.68548260000003,55.0,92.0
980,231.58726841250004,231.68905402500002,60.0,100.0
981,231.58726841250004,231.69262545000004,64.0,92.0
982,231.80155391250003,231.91583951250004,48.0,97.0
983,231.80155391250003,231.91583951250004,55.0,65.0
984,231.80155391250003,231.92655378750004,60.0,82.0
985,231.80155391250003,231.92655378750004,64.0,79.0
986,232.01583941250004,232.33726766250004,48.0,117.0
987,232.01583941250004,232.33905337500002,55.0,92.0
988,232.01583941250004,232.34976765000002,64.0,85.0
989,232.01583941250004,232.35512478750002,60.0,95.0
990,232.44441041250002,233.18369538750002,64.0,83.0
991,232.44441041250002,233.19262395000004,60.0,90.0
992,232.44441041250002,233.19798108750004,55.0,90.0
993,232.44441041250002,233.74798053750004,43.0,107.0
994,233.30155241250003,233.79262335000004,60.0,96.0
995,233.73012341250003,233.79262335000004,60.0,97.0
996,233.30155241250003,233.79619477500003,64.0,92.0
997,233.30155241250003,233.80333762500004,55.0,88.0
998,233.73012341250003,234.47833695000003,69.0,96.0
999,233.73012341250003,234.48547980000004,65.0,100.0
1000,234.58726541250002,234.72119385000002,65.0,90.0
1001,234.58726541250002,234.73012241250004,60.0,82.0
1002,233.73012341250003,234.74083668750004,53.0,93.0
1003,234.58726541250002,234.74083668750004,69.0,85.0
1004,233.73012341250003,234.76405095000004,48.0,81.0
1005,233.73012341250003,234.76583666250002,41.0,58.0
1006,235.01583641250002,235.08726491250002,48.0,78.0
1007,235.01583641250002,235.08905062500003,65.0,93.0
1008,235.01583641250002,235.09262205000002,53.0,88.0
1009,235.01583641250002,235.09976490000003,69.0,85.0
1010,235.01583641250002,235.10155061250003,41.0,56.0
1011,235.01583641250002,235.10690775000003,60.0,93.0
1012,235.23012191250004,235.32119325000002,41.0,56.0
1013,235.23012191250004,235.32476467500004,65.0,86.0
1014,235.23012191250004,235.32655038750002,48.0,82.0
1015,235.23012191250004,235.32655038750002,53.0,82.0
1016,235.23012191250004,235.33905037500003,69.0,77.0
1017,235.23012191250004,235.34262180000002,60.0,85.0
1018,235.44440741250003,235.58726441250002,41.0,63.0
1019,235.44440741250003,235.59440726250003,53.0,88.0
1020,235.44440741250003,235.60155011250004,48.0,86.0
1021,235.44440741250003,235.60869296250004,65.0,95.0
1022,235.44440741250003,235.62476437500004,60.0,89.0
1023,235.44440741250003,235.63905007500003,69.0,86.0
1024,235.87297841250003,237.17119140000003,69.0,96.0
1025,235.87297841250003,237.17833425000003,65.0,99.0
1026,235.87297841250003,237.19083423750004,60.0,99.0
1027,235.87297841250003,237.19261995000002,48.0,85.0
1028,235.87297841250003,237.19440566250003,53.0,90.0
1029,235.87297841250003,237.21226278750004,41.0,68.0
1030,237.15869141250002,237.38011976250004,67.0,75.0
1031,237.15869141250002,237.38369118750003,50.0,63.0
1032,237.15869141250002,237.39440546250003,43.0,57.0
1033,237.15869141250002,237.39440546250003,62.0,82.0
1034,237.15869141250002,237.39619117500004,71.0,72.0
1035,237.15869141250002,237.40690545000004,55.0,81.0
1036,238.01583341250003,239.44440341250004,55.0,95.0
1037,238.01583341250003,239.61226038750004,50.0,86.0
1038,238.01583341250003,239.61404610000002,71.0,97.0
1039,238.01583341250003,239.62654608750003,43.0,64.0
1040,238.01583341250003,239.63190322500003,67.0,112.0
1041,238.01583341250003,239.65511748750004,62.0,107.0
1042,239.73011741250002,240.06225993750004,55.0,92.0
1043,239.73011741250002,240.09975990000004,50.0,88.0
1044,239.73011741250002,240.10690275000002,67.0,97.0
1045,239.73011741250002,240.10690275000002,71.0,93.0
1046,239.73011741250002,240.13547415000002,43.0,69.0
1047,239.73011741250002,240.14261700000003,62.0,90.0
1048,240.58725941250003,246.58725341250002,36.0,107.0
1049,240.58725941250003,246.58725341250002,43.0,112.0
1050,240.58725941250003,246.58725341250002,48.0,112.0
1051,240.58725941250003,246.58725341250002,60.0,122.0
1052,240.58725941250003,246.58725341250002,64.0,112.0
1053,240.58725941250003,246.58725341250002,67.0,102.0
1054,246.58725341250002,246.77653893750002,60.0,122.0
1055,246.58725341250002,246.77832465000003,48.0,127.0
1056,246.80153891250004,246.91403880000004,55.0,90.0
1057,246.80153891250004,246.99261015000002,43.0,100.0
1058,247.01582441250002,247.16046712500003,60.0,102.0
1059,247.01582441250002,247.18368138750003,48.0,107.0
1060,247.23010991250004,247.40689545000004,43.0,97.0
1061,247.23010991250004,247.42296686250003,55.0,96.0
1062,247.44439541250003,252.39796188750003,48.0,107.0
1063,247.44439541250003,252.43010471250003,60.0,112.0
1064,247.44439541250003,252.44974755000004,55.0,48.0
1065,247.44439541250003,252.45153326250002,64.0,97.0
