,start,end,pitch,velocity
0,33.67470533333333,34.08437733333333,55.0,85.0
1,34.07438533333333,34.31252799999999,56.0,69.0
2,34.47406533333333,34.77215999999999,58.0,90.0
3,34.87374533333333,35.098565333333326,60.0,85.0
4,35.27342533333333,36.39585999999999,58.0,92.0
5,36.87214533333333,37.29347466666666,53.0,88.0
6,37.271825333333325,37.53161733333333,58.0,72.0
7,37.67150533333333,37.99791066666666,58.0,89.0
8,38.071185333333325,38.30599733333333,60.0,78.0
9,38.47086533333333,40.122876,58.0,83.0
10,40.06958533333333,40.42097066666666,51.0,83.0
11,40.469265333333325,40.812324,53.0,79.0
12,40.86894533333333,41.153717333333326,55.0,76.0
13,41.268625333333326,41.57504666666666,63.0,102.0
14,41.66830533333333,42.70913866666666,60.0,89.0
15,42.46766533333333,43.32364666666666,55.0,92.0
16,43.26702533333333,45.87660266666666,58.0,74.0
17,46.46446533333333,46.824177333333324,60.0,97.0
18,46.864145333333326,47.14059066666666,63.0,86.0
19,47.26382533333333,47.626867999999995,63.0,88.0
20,47.663505333333326,48.02488266666666,65.0,85.0
21,48.06318533333333,49.14898266666666,63.0,86.0
22,49.262225333333326,49.47705333333333,60.0,88.0
23,49.66190533333333,49.94168133333333,58.0,77.0
24,50.061585333333326,50.291401333333326,60.0,81.0
25,50.46126533333333,50.71606133333333,55.0,73.0
26,50.860945333333326,51.090761333333326,53.0,52.0
27,51.26062533333333,52.10994533333333,51.0,57.0
28,52.85934533333333,53.222387999999995,48.0,89.0
29,53.25902533333333,53.53047466666666,51.0,74.0
30,53.65870533333332,53.90517466666666,53.0,76.0
31,54.05838533333333,54.30485466666666,58.0,86.0
32,54.45806533333332,55.112541333333326,55.0,79.0
33,55.25742533333332,55.63045999999999,53.0,89.0
34,55.65710533333333,55.86027599999999,55.0,72.0
35,55.85694533333333,56.080099999999995,53.0,69.0
36,56.05678533333332,58.93614666666666,51.0,63.0
37,61.652305333333324,62.03366666666666,55.0,96.0
38,62.05198533333333,62.34674933333333,58.0,99.0
39,62.451665333333324,63.28100133333332,67.0,107.0
40,63.65070533333333,63.893843999999994,67.0,112.0
41,64.05038533333332,64.35181066666667,67.0,107.0
42,64.45006533333333,64.71318799999999,65.0,112.0
43,64.84974533333333,65.10121066666666,65.0,102.0
44,65.24942533333332,65.52920133333332,63.0,107.0
45,65.64910533333332,67.40936266666665,58.0,90.0
46,68.04718533333333,68.44686533333332,55.0,93.0
47,68.44686533333332,68.76494399999999,58.0,96.0
48,68.84654533333332,69.88904399999998,63.0,112.0
49,70.04558533333332,70.33868399999999,63.0,117.0
50,70.44526533333332,70.92987733333332,63.0,117.0
51,70.84494533333333,71.09141466666665,60.0,99.0
52,71.24462533333332,71.497756,60.0,100.0
53,71.64430533333332,71.82416133333332,58.0,102.0
54,71.84414533333333,72.00235199999999,60.0,92.0
55,72.04398533333332,73.90416266666665,55.0,86.0
56,74.44206533333332,74.83841466666665,55.0,107.0
57,74.84174533333332,75.15815866666665,58.0,107.0
58,75.24142533333332,76.25061733333332,67.0,102.0
59,76.44046533333332,76.71024933333332,67.0,127.0
60,76.84014533333333,77.24648666666666,67.0,117.0
61,77.23982533333333,77.49795199999998,65.0,96.0
62,77.63950533333332,77.96257999999999,65.0,112.0
63,78.03918533333332,78.34394133333332,63.0,117.0
64,78.43886533333333,80.245752,60.0,122.0
65,80.83694533333332,81.23162933333332,60.0,102.0
66,81.23662533333332,81.63630533333333,63.0,99.0
67,81.63630533333333,82.49894799999998,65.0,100.0
68,82.83534533333332,83.07348799999998,65.0,97.0
69,83.23502533333333,83.54144666666666,65.0,112.0
70,83.63470533333333,83.83621066666666,65.0,112.0
71,83.83454533333332,83.97443333333332,67.0,100.0
72,84.03438533333332,84.40242399999998,62.0,93.0
73,84.43406533333332,84.78211999999999,60.0,85.0
74,84.83374533333333,86.42913466666666,58.0,85.0
75,88.03118533333333,88.44085733333333,55.0,85.0
76,88.43086533333332,88.66900799999999,56.0,69.0
77,88.83054533333332,89.12863999999999,58.0,90.0
78,89.23022533333332,89.45504533333332,60.0,85.0
79,89.62990533333333,90.75233999999999,58.0,92.0
80,91.22862533333333,91.64995466666666,53.0,88.0
81,91.62830533333332,91.88809733333332,58.0,72.0
82,92.02798533333332,92.35439066666666,58.0,89.0
83,92.42766533333332,92.66247733333333,60.0,78.0
84,92.82734533333333,94.47935599999998,58.0,83.0
85,94.42606533333333,94.77745066666665,51.0,83.0
86,94.82574533333332,95.168804,53.0,79.0
87,95.22542533333332,95.51019733333332,55.0,76.0
88,95.62510533333332,95.93152666666666,63.0,102.0
89,96.02478533333333,97.06561866666665,60.0,89.0
90,96.82414533333332,97.68012666666665,55.0,92.0
91,97.62350533333333,100.23308266666665,58.0,74.0
92,100.82094533333333,101.18065733333331,60.0,97.0
93,101.22062533333332,101.49707066666666,63.0,86.0
94,101.62030533333332,101.98334799999999,63.0,88.0
95,102.01998533333332,102.38136266666665,65.0,85.0
96,102.41966533333331,103.50546266666666,63.0,86.0
97,103.61870533333332,103.83353333333332,60.0,88.0
98,104.01838533333331,104.29816133333333,58.0,77.0
99,104.41806533333332,104.64788133333332,60.0,81.0
100,104.81774533333332,105.07254133333332,55.0,73.0
101,105.21742533333332,105.44724133333332,53.0,52.0
102,105.61710533333331,106.46642533333332,51.0,57.0
103,107.21582533333331,107.57886799999999,48.0,89.0
104,107.61550533333332,107.88695466666665,51.0,74.0
105,108.01518533333332,108.26165466666666,53.0,76.0
106,108.41486533333332,108.66133466666665,58.0,86.0
107,108.81454533333331,109.46902133333332,55.0,79.0
108,109.61390533333332,109.98693999999999,53.0,89.0
109,110.01358533333332,110.21675599999999,55.0,72.0
110,110.21342533333332,110.43657999999999,53.0,69.0
111,110.41326533333331,113.29262666666665,51.0,63.0
112,129.59790533333333,130.00757733333333,55.0,85.0
113,129.99758533333332,130.235728,56.0,69.0
114,130.3972653333333,130.69536,58.0,90.0
115,130.79694533333333,131.02176533333332,60.0,85.0
116,131.19662533333332,132.31905999999998,58.0,92.0
117,132.79534533333333,133.21667466666665,53.0,88.0
118,133.19502533333332,133.45481733333332,58.0,72.0
119,133.5947053333333,133.92111066666664,58.0,89.0
120,133.99438533333333,134.2291973333333,60.0,78.0
121,134.39406533333332,136.04607599999997,58.0,83.0
122,135.9927853333333,136.34417066666666,51.0,83.0
123,136.39246533333332,136.73552399999997,53.0,79.0
124,136.7921453333333,137.0769173333333,55.0,76.0
125,137.19182533333333,137.49824666666666,63.0,102.0
126,137.59150533333332,138.63233866666664,60.0,89.0
127,138.39086533333332,139.24684666666664,55.0,92.0
128,139.1902253333333,141.79980266666664,58.0,74.0
129,142.3876653333333,142.7473773333333,60.0,97.0
130,142.78734533333332,143.06379066666665,63.0,86.0
131,143.1870253333333,143.55006799999998,63.0,88.0
132,143.58670533333333,143.94808266666664,65.0,85.0
133,143.98638533333332,145.07218266666663,63.0,86.0
134,145.1854253333333,145.40025333333332,60.0,88.0
135,145.5851053333333,145.8648813333333,58.0,77.0
136,145.98478533333332,146.21460133333332,60.0,81.0
137,146.3844653333333,146.6392613333333,55.0,73.0
138,146.78414533333333,147.01396133333333,53.0,52.0
139,147.18382533333332,148.03314533333332,51.0,57.0
140,148.7825453333333,149.14558799999998,48.0,89.0
141,149.18222533333332,149.45367466666664,51.0,74.0
142,149.5819053333333,149.82837466666663,53.0,76.0
143,149.98158533333333,150.22805466666665,58.0,86.0
144,150.38126533333332,151.0357413333333,55.0,79.0
145,151.18062533333332,151.55365999999998,53.0,89.0
146,151.5803053333333,151.78347599999998,55.0,72.0
147,151.7801453333333,152.00329999999997,53.0,69.0
148,151.9799853333333,153.92176399999997,51.0,63.0
149,154.37806533333332,154.75942666666666,55.0,96.0
150,154.7777453333333,155.0725093333333,58.0,99.0
151,155.1774253333333,156.00676133333332,67.0,107.0
152,156.3764653333333,156.61960399999998,67.0,112.0
153,156.77614533333332,157.07757066666665,67.0,107.0
154,157.1758253333333,157.43894799999998,65.0,112.0
155,157.57550533333333,157.82697066666665,65.0,102.0
156,157.97518533333331,158.2549613333333,63.0,107.0
157,158.3748653333333,160.13512266666663,58.0,90.0
158,160.77294533333333,161.17262533333331,55.0,93.0
159,161.17262533333331,161.49070399999997,58.0,96.0
160,161.5723053333333,162.614804,63.0,112.0
161,162.7713453333333,163.06444399999998,63.0,117.0
162,163.17102533333332,163.65563733333332,63.0,117.0
163,163.5707053333333,163.81717466666666,60.0,99.0
164,163.97038533333333,164.223516,60.0,100.0
165,164.37006533333332,164.54992133333332,58.0,102.0
166,164.5699053333333,164.72811199999998,60.0,92.0
167,164.7697453333333,166.62992266666666,55.0,86.0
168,167.16782533333333,167.56417466666664,55.0,107.0
169,167.56750533333332,167.88391866666666,58.0,107.0
170,167.9671853333333,168.97637733333332,67.0,102.0
171,169.1662253333333,169.43600933333332,67.0,127.0
172,169.56590533333332,169.97224666666665,67.0,117.0
173,169.9655853333333,170.22371199999998,65.0,96.0
174,170.3652653333333,170.68833999999998,65.0,112.0
175,170.76494533333332,171.0697013333333,63.0,117.0
176,171.1646253333333,172.971512,60.0,122.0
177,173.5627053333333,173.9573893333333,60.0,102.0
178,173.96238533333332,174.3620653333333,63.0,99.0
179,174.3620653333333,175.22470799999996,65.0,100.0
180,175.5611053333333,175.79924799999998,65.0,97.0
181,175.96078533333332,176.26720666666665,65.0,112.0
182,176.3604653333333,176.56197066666664,65.0,112.0
183,176.5603053333333,176.70019333333332,67.0,100.0
184,176.7601453333333,177.12818399999998,62.0,93.0
185,177.15982533333332,177.50787999999997,60.0,85.0
186,177.5595053333333,179.15489466666665,58.0,85.0
187,180.7569453333333,181.1666173333333,55.0,85.0
188,181.15662533333332,181.39476799999997,56.0,69.0
189,181.5563053333333,181.85439999999997,58.0,90.0
190,181.9559853333333,182.1808053333333,60.0,85.0
191,182.35566533333332,183.47809999999998,58.0,92.0
192,183.9543853333333,184.37571466666665,53.0,88.0
193,184.3540653333333,184.6138573333333,58.0,72.0
194,184.7537453333333,185.08015066666664,58.0,89.0
195,185.1534253333333,185.3882373333333,60.0,78.0
196,185.55310533333332,187.20511599999998,58.0,83.0
197,187.1518253333333,187.50321066666663,51.0,83.0
198,187.5515053333333,187.89456399999997,53.0,79.0
199,187.9511853333333,188.23595733333332,55.0,76.0
200,188.3508653333333,188.65728666666664,63.0,102.0
201,188.75054533333332,189.79137866666665,60.0,89.0
202,189.5499053333333,190.40588666666665,55.0,92.0
203,190.3492653333333,192.95884266666664,58.0,74.0
204,193.5467053333333,193.9064173333333,60.0,97.0
205,193.9463853333333,194.22283066666665,63.0,86.0
206,194.3460653333333,194.709108,63.0,88.0
207,194.7457453333333,195.10712266666664,65.0,85.0
208,195.14542533333332,196.23122266666664,63.0,86.0
209,196.34446533333332,196.5592933333333,60.0,88.0
210,196.7441453333333,197.0239213333333,58.0,77.0
211,197.1438253333333,197.3736413333333,60.0,81.0
212,197.54350533333331,197.7983013333333,55.0,73.0
213,197.9431853333333,198.1730013333333,53.0,52.0
214,198.34286533333332,199.1921853333333,51.0,57.0
215,199.9415853333333,200.30462799999998,48.0,89.0
216,200.3412653333333,200.61271466666665,51.0,74.0
217,200.74094533333331,200.98741466666664,53.0,76.0
218,201.1406253333333,201.38709466666663,58.0,86.0
219,201.5403053333333,202.1947813333333,55.0,79.0
220,202.3396653333333,202.71269999999998,53.0,89.0
221,202.73934533333332,202.94251599999998,55.0,72.0
222,202.9391853333333,203.16233999999997,53.0,69.0
223,203.1390253333333,206.01838666666663,51.0,63.0
224,209.6831203333333,210.1956203333333,57.0,85.0
225,210.1831203333333,210.481037,58.0,69.0
226,210.65907743749997,210.96144199999998,60.0,90.0
227,211.06448243749998,211.29252275,62.0,85.0
228,211.46988743749998,212.60839981249998,60.0,92.0
229,213.09150743749998,213.51887187499997,55.0,88.0
230,213.4969124375,213.76042568749997,60.0,72.0
231,213.90094366666662,214.2276103333333,60.0,89.0
232,214.30094366666663,214.53594366666664,62.0,78.0
233,214.70094366666663,216.35427699999997,60.0,83.0
234,216.30094366666663,216.65261033333329,53.0,83.0
235,216.70094366666663,217.04427699999997,55.0,79.0
236,217.10094366666664,217.38594366666663,57.0,76.0
237,217.50094366666661,217.8076103333333,65.0,102.0
238,217.90094366666662,218.9426103333333,62.0,89.0
239,218.70094366666663,219.5576103333333,57.0,92.0
240,219.50094366666661,222.1126103333333,60.0,74.0
241,222.70094366666663,223.06094366666662,62.0,97.0
242,223.10094366666664,223.37761033333328,65.0,86.0
243,223.50094366666661,223.86427699999996,65.0,88.0
244,223.90094366666662,224.2626103333333,67.0,85.0
245,224.30094366666663,225.3876103333333,65.0,86.0
246,225.50094366666661,225.71594366666662,62.0,88.0
247,225.90094366666662,226.18094366666662,60.0,77.0
248,226.30094366666663,226.53094366666662,62.0,81.0
249,226.70094366666663,226.95594366666663,57.0,73.0
250,227.10094366666664,227.33094366666663,55.0,52.0
251,227.50094366666661,228.35094366666664,53.0,57.0
252,229.10094366666664,229.46427699999995,50.0,89.0
253,229.50094366666661,229.7726103333333,53.0,74.0
254,229.90094366666662,230.1476103333333,55.0,76.0
255,230.30094366666663,230.5476103333333,60.0,86.0
256,230.70094366666663,231.35594366666663,57.0,79.0
257,231.50094366666661,231.87427699999995,55.0,89.0
258,231.90094366666662,232.10427699999997,57.0,72.0
259,232.10094366666664,232.32427699999997,55.0,69.0
260,232.30094366666663,233.8976103333333,53.0,63.0
261,235.50094366666661,235.86094366666663,62.0,97.0
262,235.90094366666662,236.1776103333333,65.0,86.0
263,236.30087580416662,236.66396661249996,65.0,88.0
264,236.70060880416662,237.0620340583333,67.0,85.0
265,237.10034180416665,238.1862831208333,65.0,86.0
266,238.29954080416664,238.51439729166663,62.0,88.0
267,238.69927380416664,238.97908690416662,60.0,77.0
268,239.09900680416663,239.32885327916662,62.0,81.0
269,239.49873980416663,239.75356959166663,57.0,73.0
270,239.89847280416663,240.12831927916665,55.0,52.0
271,240.29820580416663,241.14763842916665,53.0,57.0
272,241.89713780416665,242.26022861249996,50.0,89.0
273,242.29687080416664,242.5683561333333,53.0,74.0
274,242.69660380416664,242.9431058208333,55.0,76.0
275,243.09633680416664,243.3428388208333,60.0,86.0
276,243.49606980416664,244.15063259166664,57.0,79.0
277,244.29553580416663,244.66861993749995,55.0,89.0
278,244.69526880416663,244.89846641249997,57.0,72.0
279,244.89513530416664,245.11831956249998,55.0,69.0
280,245.09500180416663,246.6906026958333,53.0,63.0
281,248.29286580416664,248.65595661249998,50.0,89.0
282,248.69259880416664,248.9640841333333,53.0,74.0
283,249.09233180416663,249.3388338208333,55.0,76.0
284,249.49206480416663,249.7385668208333,60.0,86.0
285,250.1932631083333,251.05102350416664,57.0,86.0
286,251.2675455458333,254.20225198749998,55.0,82.0
287,254.60365054166664,259.12563010416665,53.0,97.0
