,start,end,pitch,velocity
0,1.7003053333333331,8.09352,53.0,38.0
1,1.7003053333333331,8.095185333333331,41.0,46.0
2,1.7003053333333331,8.103511999999998,60.0,40.0
3,8.894545333333332,9.940374666666665,51.0,53.0
4,9.294225333333332,10.539894666666665,55.0,43.0
5,8.095185333333331,11.052817333333332,39.0,64.0
6,8.494865333333331,11.255987999999999,46.0,36.0
7,10.093585333333332,11.350912,51.0,35.0
8,10.892945333333332,12.265179999999999,55.0,42.0
9,9.693905333333332,12.551617333333331,63.0,59.0
10,10.493265333333332,12.638214666666665,58.0,44.0
11,12.491665333333332,13.099511999999999,55.0,38.0
12,13.291025333333332,13.74566133333333,55.0,45.0
13,11.292625333333332,14.168655999999999,39.0,55.0
14,11.692305333333332,14.491730666666665,46.0,35.0
15,12.091985333333332,14.556678666666665,51.0,38.0
16,14.090385333333332,15.522571999999998,55.0,44.0
17,12.891345333333332,15.923917333333332,63.0,77.0
18,13.690705333333332,15.945566666666664,58.0,55.0
19,15.689105333333332,16.315270666666663,55.0,44.0
20,14.490065333333332,16.938105333333333,39.0,44.0
21,14.889745333333332,16.964750666666664,46.0,40.0
22,16.48846533333333,16.989730666666663,55.0,51.0
23,15.289425333333332,17.11296533333333,51.0,49.0
24,17.28782533333333,17.69749733333333,55.0,56.0
25,16.88814533333333,17.704158666666665,58.0,77.0
26,16.08878533333333,17.764110666666664,63.0,93.0
27,18.48686533333333,19.532694666666664,56.0,73.0
28,18.08718533333333,20.05560933333333,51.0,43.0
29,19.68590533333333,20.062270666666663,56.0,60.0
30,18.88654533333333,20.14054133333333,60.0,62.0
31,17.68750533333333,20.173847999999996,44.0,73.0
32,19.28622533333333,20.81500133333333,67.0,92.0
33,20.08558533333333,20.90492933333333,63.0,89.0
34,20.48526533333333,20.961550666666664,60.0,56.0
35,21.28462533333333,22.387075999999997,43.0,39.0
36,21.68430533333333,22.392072,48.0,40.0
37,20.88494533333333,22.455354666666665,36.0,67.0
38,22.08398533333333,23.364626666666663,55.0,62.0
39,23.28302533333333,24.06739733333333,60.0,48.0
40,23.68270533333333,24.07239333333333,55.0,61.0
41,22.48366533333333,24.109030666666662,63.0,93.0
42,24.88174533333333,25.278094666666664,56.0,66.0
43,24.48206533333333,25.359695999999996,51.0,62.0
44,25.28142533333333,25.36635733333333,63.0,16.0
45,24.08238533333333,25.42630933333333,44.0,63.0
46,25.28142533333333,25.694427999999995,60.0,72.0
47,26.08078533333333,26.57538933333333,50.0,56.0
48,25.68110533333333,26.59037733333333,43.0,72.0
49,26.88014533333333,27.276494666666665,55.0,68.0
50,26.48046533333333,27.276494666666665,62.0,92.0
51,27.27982533333333,28.39393333333333,41.0,82.0
52,27.67950533333333,28.497183999999997,48.0,62.0
53,28.07918533333333,28.80860133333333,60.0,82.0
54,28.478865333333328,29.001779999999997,53.0,76.0
55,28.878545333333328,29.726199999999995,46.0,95.0
56,29.677905333333328,30.470603999999994,62.0,90.0
57,29.278225333333328,30.523894666666664,53.0,61.0
58,30.077585333333328,30.533886666666664,58.0,59.0
59,31.276625333333328,33.07018933333333,51.0,59.0
60,30.477265333333328,33.47153466666666,39.0,68.0
61,30.876945333333328,33.613088,46.0,43.0
62,31.676305333333328,34.675570666666665,55.0,48.0
63,32.07598533333333,34.70554666666666,63.0,50.0
64,32.07598533333333,34.937028,58.0,56.0
65,34.47406533333333,35.471599999999995,51.0,43.0
66,35.67310533333333,35.979526666666665,51.0,54.0
67,34.07438533333333,36.07111999999999,46.0,64.0
68,33.67470533333333,36.07278533333333,39.0,83.0
69,34.87374533333333,36.151056,55.0,49.0
70,36.47246533333333,37.26849466666666,55.0,38.0
71,35.27342533333333,37.529951999999994,63.0,102.0
72,36.07278533333333,37.554931999999994,58.0,67.0
73,37.67150533333333,38.61241866666666,55.0,48.0
74,37.271825333333325,38.75064133333333,50.0,50.0
75,38.071185333333325,38.98045733333333,58.0,51.0
76,36.87214533333333,39.403451999999994,38.0,66.0
77,38.870545333333325,39.989649333333325,50.0,33.0
78,39.669905333333325,40.06625466666666,55.0,55.0
79,39.27022533333333,40.06625466666666,58.0,62.0
80,38.47086533333333,40.06625466666666,62.0,81.0
81,40.86894533333333,41.899786666666664,48.0,59.0
82,40.06958533333333,42.485983999999995,36.0,79.0
83,41.268625333333326,42.50929866666666,55.0,66.0
84,40.469265333333325,42.527617333333325,43.0,53.0
85,42.067985333333326,42.699146666666664,48.0,43.0
86,42.46766533333333,43.32864266666666,60.0,63.0
87,42.867345333333326,43.330307999999995,55.0,55.0
88,41.66830533333333,43.34196533333333,63.0,86.0
89,44.06638533333333,44.70087733333333,55.0,56.0
90,44.466065333333326,45.02062133333333,58.0,63.0
91,43.666705333333326,45.052262666666664,50.0,59.0
92,45.265425333333326,45.58683466666666,50.0,59.0
93,43.26702533333333,45.593495999999995,43.0,67.0
94,46.064785333333326,46.50942933333333,55.0,66.0
95,45.66510533333333,46.53940533333333,58.0,85.0
96,44.86574533333333,46.55605866666666,62.0,95.0
97,47.26382533333333,48.27468266666666,56.0,85.0
98,47.663505333333326,48.85421866666666,60.0,71.0
99,48.462865333333326,48.88752533333333,56.0,68.0
100,46.864145333333326,48.91250533333333,51.0,52.0
101,46.46446533333333,48.98911066666666,44.0,88.0
102,48.06318533333333,49.73351466666666,68.0,99.0
103,49.262225333333326,49.74850266666666,60.0,57.0
104,48.86254533333333,49.77348266666666,63.0,99.0
105,50.061585333333326,50.78933599999999,50.0,61.0
106,49.66190533333333,50.82930399999999,43.0,74.0
107,50.860945333333326,51.280609333333324,62.0,83.0
108,50.46126533333333,51.36221066666666,55.0,69.0
109,51.660305333333326,52.20486933333333,43.0,58.0
110,51.26062533333333,52.25649466666666,36.0,75.0
111,52.05998533333333,52.804389333333326,48.0,50.0
112,52.45966533333333,52.85601466666666,55.0,72.0
113,52.05998533333333,52.92096266666666,63.0,92.0
114,53.25902533333333,53.82523866666666,56.0,42.0
115,53.65870533333332,54.39644799999999,63.0,66.0
116,52.85934533333333,54.42309333333333,44.0,67.0
117,54.05838533333333,54.43974666666666,56.0,43.0
118,54.45806533333332,55.18914666666666,46.0,71.0
119,54.85774533333333,56.05345466666666,53.0,59.0
120,55.65710533333333,56.05345466666666,58.0,64.0
121,55.25742533333332,56.05345466666666,62.0,92.0
122,56.85614533333332,57.66383199999999,51.0,69.0
123,57.25582533333333,58.56977333333332,55.0,55.0
124,56.05678533333332,58.73464133333333,39.0,86.0
125,56.45646533333333,59.297523999999996,46.0,59.0
126,58.05518533333333,59.367467999999995,51.0,53.0
127,58.85454533333333,60.281735999999995,55.0,56.0
128,59.65390533333333,60.48157599999999,46.0,38.0
129,60.053585333333324,60.49323333333333,51.0,66.0
130,57.65550533333332,60.53986266666666,63.0,86.0
131,58.45486533333332,60.56983866666666,58.0,63.0
132,60.45326533333333,60.70139999999999,55.0,50.0
133,59.25422533333332,60.81464266666666,39.0,63.0
134,60.852945333333324,61.142713333333326,53.0,72.0
135,60.852945333333324,61.56903866666666,62.0,66.0
136,60.852945333333324,61.61733333333333,58.0,65.0
137,61.652305333333324,62.39004799999999,62.0,96.0
138,60.852945333333324,62.43667733333333,46.0,56.0
139,62.05198533333333,62.44000799999999,58.0,67.0
140,62.47331466666666,63.09281866666666,58.0,72.0
141,62.466653333333326,63.09781466666666,63.0,77.0
142,63.24935999999999,63.67568533333333,58.0,78.0
143,63.251025333333324,63.67568533333333,63.0,77.0
144,62.82303466666666,64.16695866666666,46.0,51.0
145,63.98710266666666,64.43008133333332,63.0,96.0
146,63.99376399999999,64.44007333333333,58.0,108.0
147,64.40343599999999,64.85141066666665,46.0,50.0
148,62.46998399999999,64.85474133333332,39.0,70.0
149,64.808112,65.23776799999999,63.0,65.0
150,64.81477333333332,65.25442133333333,58.0,71.0
151,65.21278799999999,65.61579866666666,55.0,78.0
152,65.65743199999999,65.90057066666665,55.0,42.0
153,65.627456,66.17035466666665,62.0,80.0
154,66.01381333333333,66.58335733333332,50.0,67.0
155,66.40350133333332,66.81816933333333,58.0,93.0
156,66.791524,67.37272533333332,50.0,60.0
157,67.21784933333332,67.69246933333332,58.0,74.0
158,67.226176,67.85733733333332,55.0,72.0
159,67.22284533333332,67.930612,62.0,75.0
160,67.99889066666665,68.34527999999999,58.0,96.0
161,65.62579066666666,68.51847466666666,43.0,89.0
162,67.59088399999999,68.54845066666665,50.0,56.0
163,68.39357466666665,68.874856,55.0,89.0
164,68.82156533333333,69.61426399999999,63.0,99.0
165,68.824896,69.63258266666666,48.0,77.0
166,69.22291066666666,69.67088533333333,55.0,80.0
167,69.62092533333332,70.00728266666665,60.0,80.0
168,70.013944,70.16548933333333,55.0,93.0
169,70.43527333333333,70.88657866666665,58.0,91.0
170,70.44193466666665,70.93820399999998,62.0,86.0
171,70.43194266666666,71.34954133333332,46.0,80.0
172,71.23962933333333,71.45612266666666,53.0,86.0
173,71.23962933333333,71.52107066666666,58.0,99.0
174,71.24296,71.57769199999998,62.0,80.0
175,72.01900533333333,72.50861333333333,58.0,78.0
176,72.02733199999999,72.53026266666666,63.0,71.0
177,72.45532266666666,72.64017466666665,55.0,47.0
178,72.83002266666665,73.22137599999999,63.0,89.0
179,72.826692,73.23303333333332,58.0,80.0
180,73.21637999999999,73.43953466666666,55.0,80.0
181,73.64103999999999,74.21557999999999,58.0,108.0
182,73.63437866666666,74.23223333333333,63.0,93.0
183,72.41035866666665,74.530328,46.0,45.0
184,74.43207333333332,74.54698133333332,58.0,91.0
185,74.43373866666666,74.58361866666665,63.0,93.0
186,72.01567466666665,74.59527599999998,39.0,77.0
187,75.22976799999999,75.53785466666666,62.0,74.0
188,75.22144133333332,75.719376,65.0,80.0
189,75.22144133333332,75.78765466666665,68.0,73.0
190,75.20978399999998,76.08574933333333,38.0,69.0
191,76.00581333333332,76.20232266666666,62.0,86.0
192,75.999152,76.43047333333332,65.0,99.0
193,75.999152,76.43047333333332,68.0,99.0
194,76.393836,76.508744,62.0,80.0
195,76.83847999999999,77.48462933333332,55.0,74.0
196,76.843476,77.49295599999999,62.0,74.0
197,77.63617466666666,77.86099466666666,55.0,93.0
198,77.63617466666666,78.01920133333333,59.0,93.0
199,77.63450933333333,78.06916133333333,62.0,99.0
200,77.19319599999999,78.22570266666666,50.0,71.0
201,76.82016133333332,78.26733599999999,43.0,93.0
202,78.03751999999999,78.30064266666666,55.0,93.0
203,78.43220399999998,78.622052,55.0,93.0
204,78.43053866666666,79.05836933333332,60.0,93.0
205,78.80856933333332,79.08501466666665,55.0,93.0
206,79.22656799999999,79.36312533333333,55.0,101.0
207,79.21990666666666,79.60959466666665,60.0,101.0
208,78.42387733333332,79.66954666666666,48.0,80.0
209,79.59460666666665,79.96597599999998,55.0,93.0
210,80.03758533333333,80.26407066666665,58.0,76.0
211,80.04258133333332,80.50720933333332,62.0,89.0
212,80.43726533333333,80.665416,58.0,80.0
213,80.02259733333332,81.189996,46.0,66.0
214,80.83361466666666,81.23995599999999,58.0,80.0
215,80.83361466666666,81.29657733333332,62.0,89.0
216,81.62964399999998,82.13257466666666,56.0,66.0
217,81.62964399999998,82.17087733333332,60.0,78.0
218,81.99268666666666,82.46730666666666,51.0,49.0
219,81.61132533333333,82.50394399999999,44.0,74.0
220,82.39070133333333,82.71877199999999,56.0,93.0
221,82.39236666666666,82.86865199999998,60.0,93.0
222,83.22503333333333,83.79291199999999,53.0,80.0
223,83.21670666666665,83.80789999999999,60.0,80.0
224,84.02106266666665,84.27752399999999,53.0,86.0
225,83.21670666666665,84.31582666666665,41.0,89.0
226,83.61139066666665,84.35912533333332,48.0,69.0
227,84.02106266666665,84.38077466666665,57.0,93.0
228,84.01440133333332,84.46071066666666,60.0,93.0
229,84.822088,85.25340933333332,58.0,75.0
230,84.84207199999999,85.35832533333333,62.0,74.0
231,85.62311333333332,86.10272933333333,58.0,101.0
232,86.011136,86.21264133333332,62.0,77.0
233,84.82708399999999,87.94791866666665,46.0,69.0
234,85.22676399999999,87.95124933333332,53.0,59.0
235,86.42247333333333,87.95124933333332,58.0,74.0
236,86.42913466666666,87.98955199999999,65.0,93.0
237,88.83054533333332,89.79976933333332,51.0,86.0
238,90.02958533333332,90.45091466666665,51.0,58.0
239,88.43086533333332,90.51586266666665,46.0,61.0
240,89.23022533333332,90.54084266666665,55.0,59.0
241,88.03118533333333,90.56582266666665,39.0,83.0
242,89.62990533333333,91.22196399999999,63.0,92.0
243,90.82894533333332,91.44012266666665,55.0,63.0
244,90.42926533333332,91.64828933333332,58.0,82.0
245,92.42766533333332,92.87563999999999,58.0,54.0
246,91.62830533333332,93.00220533333332,50.0,63.0
247,92.02798533333332,93.20037999999998,55.0,69.0
248,93.22702533333332,93.63170133333333,50.0,60.0
249,91.22862533333333,93.80156533333331,38.0,75.0
250,92.82734533333333,94.39275866666665,62.0,88.0
251,93.62670533333332,94.50766666666665,58.0,83.0
252,94.02638533333332,94.52431999999999,55.0,69.0
253,95.22542533333332,96.21629866666666,48.0,76.0
254,95.62510533333332,96.87910133333332,55.0,66.0
255,94.82574533333332,96.95737199999999,43.0,55.0
256,94.42606533333333,96.97569066666665,36.0,79.0
257,96.42446533333332,97.15554666666665,48.0,59.0
258,96.02478533333333,97.63183199999999,63.0,90.0
259,97.22382533333332,97.64182399999999,55.0,76.0
260,96.82414533333332,97.67179999999999,60.0,86.0
261,98.82254533333332,99.26718933333332,58.0,81.0
262,99.22222533333333,99.69851066666665,62.0,82.0
263,98.42286533333332,100.06488399999999,55.0,83.0
264,98.02318533333332,100.15148133333332,50.0,54.0
265,97.62350533333333,100.17313066666665,43.0,75.0
266,100.02158533333332,100.83926399999999,67.0,93.0
267,99.62190533333332,100.85092133333332,70.0,100.0
268,100.42126533333332,100.85591733333332,62.0,77.0
269,101.62030533333332,102.56288399999998,56.0,86.0
270,102.01998533333332,102.85431733333333,60.0,79.0
271,102.81934533333332,103.28896933333333,56.0,78.0
272,101.22062533333332,103.37223599999999,51.0,40.0
273,100.82094533333333,103.44884133333332,44.0,76.0
274,103.61870533333332,104.01505466666666,60.0,64.0
275,103.21902533333332,104.01505466666666,63.0,65.0
276,102.41966533333331,104.01505466666666,68.0,102.0
277,104.01838533333331,104.79276533333332,46.0,90.0
278,104.81774533333332,105.26905066666666,47.0,82.0
279,104.41806533333332,105.58379866666665,62.0,81.0
280,105.21742533333332,105.81527999999999,59.0,66.0
281,105.61710533333331,106.96602533333332,36.0,71.0
282,106.01678533333332,107.00432799999999,43.0,55.0
283,106.41646533333332,107.20250266666665,48.0,69.0
284,106.81614533333332,107.26745066666665,63.0,86.0
285,108.01518533333332,108.43651466666665,53.0,72.0
286,107.21582533333331,108.71795599999999,41.0,64.0
287,108.41486533333332,108.83119866666665,56.0,66.0
288,107.61550533333332,108.88948533333333,48.0,63.0
289,108.81454533333331,109.51065466666665,46.0,92.0
290,109.61390533333332,110.27004666666666,62.0,85.0
291,109.21422533333332,110.44157599999998,53.0,66.0
292,110.01358533333332,110.51984666666665,58.0,76.0
293,111.21262533333332,112.14854266666666,51.0,68.0
294,110.41326533333331,112.77637333333332,39.0,69.0
295,110.81294533333332,112.78469999999999,46.0,53.0
296,111.61230533333332,112.86130533333332,55.0,50.0
297,112.41166533333332,112.92458799999999,51.0,69.0
298,113.21102533333332,113.61070533333331,55.0,64.0
299,112.81134533333332,113.61570133333332,58.0,86.0
300,112.01198533333331,113.64567733333332,63.0,100.0
301,114.41006533333332,115.42092266666666,56.0,89.0
302,114.80974533333332,115.55248399999998,60.0,77.0
303,115.60910533333332,115.99546266666665,56.0,66.0
304,114.01038533333332,116.04042666666665,51.0,69.0
305,113.61070533333331,116.10537466666665,44.0,89.0
306,116.60830533333332,116.69490266666665,36.0,23.0
307,115.20942533333331,116.77150799999998,67.0,99.0
308,116.00878533333332,116.85643999999998,63.0,96.0
309,116.40846533333333,116.87309333333332,60.0,85.0
310,117.60750533333332,118.54009199999999,48.0,86.0
311,116.80814533333331,119.18957199999998,36.0,73.0
312,117.20782533333332,119.23453599999999,43.0,59.0
313,118.00718533333333,119.30114933333331,55.0,71.0
314,118.80654533333332,119.37608933333331,48.0,61.0
315,119.60590533333331,120.05387999999998,55.0,64.0
316,119.20622533333332,120.06054133333332,60.0,72.0
317,118.40686533333331,120.13381599999998,63.0,100.0
318,120.80494533333332,121.17631466666666,56.0,102.0
319,120.40526533333332,121.32619466666665,51.0,72.0
320,120.00558533333331,121.36116666666665,44.0,79.0
321,121.40446533333332,121.49272799999999,51.0,25.0
322,121.20462533333331,121.67424933333332,68.0,112.0
323,121.20462533333331,121.70422533333331,63.0,76.0
324,122.40366533333332,122.63514666666666,55.0,90.0
325,121.60430533333331,122.81500266666666,43.0,78.0
326,122.00398533333332,122.85163999999999,50.0,79.0
327,122.80334533333331,123.23633199999999,58.0,96.0
328,122.40366533333332,123.24132799999998,62.0,97.0
329,123.20302533333331,124.32212933333332,41.0,100.0
330,123.60270533333332,124.38541199999999,48.0,58.0
331,124.00238533333332,124.58192133333331,53.0,82.0
332,124.40206533333331,124.81839866666665,57.0,73.0
333,124.00238533333332,124.87168933333332,60.0,86.0
334,125.20142533333332,125.86755866666665,53.0,64.0
335,125.60110533333332,125.86755866666665,58.0,65.0
336,124.80174533333332,125.93916799999998,46.0,89.0
337,126.00078533333331,126.52369999999998,65.0,69.0
338,125.60110533333332,126.53535733333332,62.0,70.0
339,127.19982533333332,128.17571066666665,51.0,73.0
340,127.59950533333331,128.84517466666665,55.0,62.0
341,126.80014533333332,129.52962666666664,46.0,57.0
342,128.3988653333333,129.56293333333332,51.0,69.0
343,127.99918533333332,129.56293333333332,63.0,86.0
344,128.79854533333332,129.5779213333333,58.0,52.0
345,129.1982253333333,129.58624799999998,55.0,55.0
346,126.40046533333332,129.59790533333333,39.0,72.0
347,130.3972653333333,131.39479999999998,51.0,43.0
348,131.5963053333333,131.90272666666664,51.0,54.0
349,129.99758533333332,131.99432,46.0,64.0
350,129.59790533333333,131.99598533333332,39.0,83.0
351,130.79694533333333,132.074256,55.0,49.0
352,132.3956653333333,133.19169466666665,55.0,38.0
353,131.19662533333332,133.453152,63.0,102.0
354,131.99598533333332,133.478132,58.0,67.0
355,133.5947053333333,134.53561866666664,55.0,48.0
356,133.19502533333332,134.6738413333333,50.0,50.0
357,133.99438533333333,134.9036573333333,58.0,51.0
358,132.79534533333333,135.326652,38.0,66.0
359,134.7937453333333,135.91284933333333,50.0,33.0
360,135.5931053333333,135.98945466666666,55.0,55.0
361,135.19342533333332,135.98945466666666,58.0,62.0
362,134.39406533333332,135.98945466666666,62.0,81.0
363,136.7921453333333,137.82298666666665,48.0,59.0
364,135.9927853333333,138.40918399999998,36.0,79.0
365,137.19182533333333,138.43249866666665,55.0,66.0
366,136.39246533333332,138.4508173333333,43.0,53.0
367,137.9911853333333,138.62234666666666,48.0,43.0
368,138.39086533333332,139.25184266666665,60.0,63.0
369,138.7905453333333,139.25350799999998,55.0,55.0
370,137.59150533333332,139.26516533333333,63.0,86.0
371,139.9895853333333,140.6240773333333,55.0,56.0
372,140.38926533333333,140.94382133333332,58.0,63.0
373,139.58990533333332,140.97546266666666,50.0,59.0
374,141.1886253333333,141.51003466666666,50.0,59.0
375,139.1902253333333,141.51669599999997,43.0,67.0
376,141.9879853333333,142.43262933333332,55.0,66.0
377,141.58830533333332,142.46260533333333,58.0,85.0
378,140.78894533333332,142.47925866666665,62.0,95.0
379,143.1870253333333,144.19788266666666,56.0,85.0
380,143.58670533333333,144.77741866666665,60.0,71.0
381,144.3860653333333,144.81072533333332,56.0,68.0
382,142.78734533333332,144.83570533333332,51.0,52.0
383,142.3876653333333,144.91231066666666,44.0,88.0
384,143.98638533333332,145.65671466666666,68.0,99.0
385,145.1854253333333,145.67170266666665,60.0,57.0
386,144.78574533333332,145.69668266666665,63.0,99.0
387,145.98478533333332,146.71253599999997,50.0,61.0
388,145.5851053333333,146.752504,43.0,74.0
389,146.78414533333333,147.2038093333333,62.0,83.0
390,146.3844653333333,147.28541066666665,55.0,69.0
391,147.5835053333333,148.12806933333331,43.0,58.0
392,147.18382533333332,148.17969466666665,36.0,75.0
393,147.98318533333332,148.72758933333333,48.0,50.0
394,148.3828653333333,148.77921466666666,55.0,72.0
395,147.98318533333332,148.84416266666665,63.0,92.0
396,149.18222533333332,149.74843866666666,56.0,42.0
397,149.5819053333333,150.31964799999997,63.0,66.0
398,148.7825453333333,150.3462933333333,44.0,67.0
399,149.98158533333333,150.36294666666666,56.0,43.0
400,150.38126533333332,151.11234666666664,46.0,71.0
401,150.7809453333333,151.97665466666663,53.0,59.0
402,151.5803053333333,151.97665466666663,58.0,64.0
403,151.18062533333332,151.97665466666663,62.0,92.0
404,152.7793453333333,153.587032,51.0,69.0
405,153.1790253333333,154.4929733333333,55.0,55.0
406,151.9799853333333,154.65784133333332,39.0,86.0
407,152.37966533333332,155.17409466666663,46.0,59.0
408,153.9783853333333,155.17409466666663,51.0,53.0
409,154.7777453333333,155.17409466666663,55.0,56.0
410,154.37806533333332,155.17409466666663,58.0,63.0
411,153.57870533333332,155.17409466666663,63.0,86.0
412,155.19907466666663,155.81857866666664,58.0,72.0
413,155.19241333333332,155.82357466666664,63.0,77.0
414,155.97511999999998,156.4014453333333,58.0,78.0
415,155.9767853333333,156.4014453333333,63.0,77.0
416,155.54879466666665,156.89271866666664,46.0,51.0
417,156.71286266666664,157.1558413333333,63.0,96.0
418,156.71952399999998,157.16583333333332,58.0,108.0
419,157.12919599999998,157.57717066666666,46.0,50.0
420,155.195744,157.5805013333333,39.0,70.0
421,157.53387199999997,157.96352799999997,63.0,65.0
422,157.54053333333331,157.98018133333332,58.0,71.0
423,157.93854799999997,158.34155866666666,55.0,78.0
424,158.38319199999998,158.62633066666663,55.0,42.0
425,158.35321599999997,158.89611466666665,62.0,80.0
426,158.7395733333333,159.30911733333332,50.0,67.0
427,159.12926133333332,159.54392933333332,58.0,93.0
428,159.517284,160.09848533333331,50.0,60.0
429,159.9436093333333,160.4182293333333,58.0,74.0
430,159.951936,160.5830973333333,55.0,72.0
431,159.94860533333332,160.65637199999998,62.0,75.0
432,160.72465066666663,161.07103999999998,58.0,96.0
433,158.35155066666664,161.24423466666664,43.0,89.0
434,160.31664399999997,161.27421066666665,50.0,56.0
435,161.11933466666665,161.60061599999997,55.0,89.0
436,161.5473253333333,162.34002399999997,63.0,99.0
437,161.55065599999998,162.35834266666666,48.0,77.0
438,161.94867066666666,162.3966453333333,55.0,80.0
439,162.3466853333333,162.73304266666665,60.0,80.0
440,162.739704,162.89124933333332,55.0,93.0
441,163.1610333333333,163.61233866666666,58.0,91.0
442,163.16769466666665,163.663964,62.0,86.0
443,163.15770266666664,164.0753013333333,46.0,80.0
444,163.96538933333332,164.18188266666664,53.0,86.0
445,163.96538933333332,164.24683066666665,58.0,99.0
446,163.96872,164.303452,62.0,80.0
447,164.7447653333333,165.2343733333333,58.0,78.0
448,164.75309199999998,165.25602266666664,63.0,71.0
449,165.18108266666664,165.36593466666665,55.0,47.0
450,165.55578266666666,165.94713599999997,63.0,89.0
451,165.552452,165.95879333333332,58.0,80.0
452,165.94213999999997,166.16529466666665,55.0,80.0
453,166.36679999999998,166.94133999999997,58.0,108.0
454,166.36013866666664,166.95799333333332,63.0,93.0
455,165.13611866666665,167.25608799999998,46.0,45.0
456,167.15783333333331,167.2727413333333,58.0,91.0
457,167.15949866666665,167.30937866666665,63.0,93.0
458,164.74143466666663,167.321036,39.0,77.0
459,167.955528,168.26361466666665,62.0,74.0
460,167.9472013333333,168.445136,65.0,80.0
461,167.9472013333333,168.51341466666665,68.0,73.0
462,167.93554399999996,168.8115093333333,38.0,69.0
463,168.7315733333333,168.92808266666665,62.0,86.0
464,168.724912,169.15623333333332,65.0,99.0
465,168.724912,169.15623333333332,68.0,99.0
466,169.11959599999997,169.234504,62.0,80.0
467,169.56423999999998,170.21038933333332,55.0,74.0
468,169.569236,170.21871599999997,62.0,74.0
469,170.36193466666666,170.58675466666665,55.0,93.0
470,170.36193466666666,170.74496133333332,59.0,93.0
471,170.36026933333332,170.79492133333332,62.0,99.0
472,169.91895599999998,170.95146266666666,50.0,71.0
473,169.54592133333333,170.99309599999998,43.0,93.0
474,170.76327999999998,171.02640266666666,55.0,93.0
475,171.15796399999996,171.34781199999998,55.0,93.0
476,171.15629866666666,171.7841293333333,60.0,93.0
477,171.53432933333332,171.81077466666665,55.0,93.0
478,171.95232799999997,172.0888853333333,55.0,101.0
479,171.94566666666665,172.33535466666663,60.0,101.0
480,171.14963733333332,172.39530666666664,48.0,80.0
481,172.32036666666664,172.691736,55.0,93.0
482,172.76334533333332,172.98983066666665,58.0,76.0
483,172.76834133333332,173.2329693333333,62.0,89.0
484,173.1630253333333,173.39117599999997,58.0,80.0
485,172.7483573333333,173.915756,46.0,66.0
486,173.55937466666666,173.965716,58.0,80.0
487,173.55937466666666,174.0223373333333,62.0,89.0
488,174.35540399999996,174.85833466666665,56.0,66.0
489,174.35540399999996,174.8966373333333,60.0,78.0
490,174.71844666666664,175.19306666666665,51.0,49.0
491,174.3370853333333,175.22970399999997,44.0,74.0
492,175.11646133333332,175.44453199999998,56.0,93.0
493,175.11812666666665,175.59441199999998,60.0,93.0
494,175.9507933333333,176.51867199999998,53.0,80.0
495,175.94246666666663,176.53365999999997,60.0,80.0
496,176.74682266666665,177.00328399999998,53.0,86.0
497,175.94246666666663,177.04158666666663,41.0,89.0
498,176.33715066666664,177.08488533333332,48.0,69.0
499,176.74682266666665,177.10653466666665,57.0,93.0
500,176.7401613333333,177.18647066666665,60.0,93.0
501,177.547848,177.97916933333332,58.0,75.0
502,177.56783199999998,178.08408533333332,62.0,74.0
503,178.3488733333333,178.82848933333332,58.0,101.0
504,178.73689599999997,178.9384013333333,62.0,77.0
505,177.55284399999996,180.67367866666663,46.0,69.0
506,177.95252399999998,180.6770093333333,53.0,59.0
507,179.1482333333333,180.6770093333333,58.0,74.0
508,179.15489466666665,180.71531199999998,65.0,93.0
509,180.77859466666663,181.39809866666664,58.0,72.0
510,180.77193333333332,181.40309466666665,63.0,77.0
511,181.55463999999998,181.9809653333333,58.0,78.0
512,181.5563053333333,181.9809653333333,63.0,77.0
513,181.12831466666665,182.47223866666664,46.0,51.0
514,182.29238266666664,182.73536133333332,63.0,96.0
515,182.29904399999998,182.7453533333333,58.0,108.0
516,182.70871599999998,183.15669066666663,46.0,50.0
517,180.77526399999996,183.1600213333333,39.0,70.0
518,183.11339199999998,183.54304799999997,63.0,65.0
519,183.12005333333332,183.55970133333332,58.0,71.0
520,183.51806799999997,183.92107866666663,55.0,78.0
521,183.96271199999998,184.20585066666663,55.0,42.0
522,183.93273599999998,184.47563466666665,62.0,80.0
523,184.3190933333333,184.88863733333332,50.0,67.0
524,184.70878133333332,185.1234493333333,58.0,93.0
525,185.09680399999996,185.67800533333332,50.0,60.0
526,185.52312933333332,185.9977493333333,58.0,74.0
527,185.53145599999996,186.16261733333332,55.0,72.0
528,185.52812533333332,186.23589199999998,62.0,75.0
529,186.30417066666664,186.65055999999998,58.0,96.0
530,183.93107066666664,186.82375466666664,43.0,89.0
531,185.89616399999997,186.85373066666665,50.0,56.0
532,186.69885466666665,187.18013599999998,55.0,89.0
533,187.1268453333333,187.91954399999997,63.0,99.0
534,187.13017599999998,187.93786266666663,48.0,77.0
535,187.52819066666663,187.9761653333333,55.0,80.0
536,187.92620533333331,188.31256266666665,60.0,80.0
537,188.31922399999996,188.47076933333332,55.0,93.0
538,188.7405533333333,189.19185866666663,58.0,91.0
539,188.74721466666665,189.24348399999997,62.0,86.0
540,188.73722266666664,189.6548213333333,46.0,80.0
541,189.54490933333332,189.76140266666664,53.0,86.0
542,189.54490933333332,189.82635066666666,58.0,99.0
543,189.54823999999996,189.88297199999997,62.0,80.0
544,190.3242853333333,190.8138933333333,58.0,78.0
545,190.33261199999998,190.83554266666664,63.0,71.0
546,190.76060266666664,190.94545466666665,55.0,47.0
547,191.13530266666663,191.52665599999997,63.0,89.0
548,191.13197199999996,191.53831333333332,58.0,80.0
549,191.52165999999997,191.74481466666666,55.0,80.0
550,191.94632,192.52085999999997,58.0,108.0
551,191.93965866666665,192.53751333333332,63.0,93.0
552,190.71563866666665,192.83560799999998,46.0,45.0
553,192.73735333333332,192.8522613333333,58.0,91.0
554,192.73901866666665,192.88889866666665,63.0,93.0
555,190.32095466666664,192.90055599999997,39.0,77.0
556,193.535048,193.84313466666663,62.0,74.0
557,193.5267213333333,194.02465599999996,65.0,80.0
558,193.5267213333333,194.09293466666665,68.0,73.0
559,193.51506399999997,194.3910293333333,38.0,69.0
560,194.3110933333333,194.50760266666663,62.0,86.0
561,194.30443199999996,194.73575333333332,65.0,99.0
562,194.30443199999996,194.73575333333332,68.0,99.0
563,194.69911599999998,194.81402399999996,62.0,80.0
564,195.14376,195.7899093333333,55.0,74.0
565,195.14875599999996,195.79823599999997,62.0,74.0
566,195.94145466666663,196.16627466666665,55.0,93.0
567,195.94145466666663,196.3244813333333,59.0,93.0
568,195.9397893333333,196.3744413333333,62.0,99.0
569,195.49847599999998,196.53098266666663,50.0,71.0
570,195.1254413333333,196.57261599999998,43.0,93.0
571,196.34279999999998,196.60592266666663,55.0,93.0
572,196.73748399999997,196.92733199999998,55.0,93.0
573,196.73581866666663,197.3636493333333,60.0,93.0
574,197.11384933333332,197.39029466666665,55.0,93.0
575,197.53184799999997,197.6684053333333,55.0,101.0
576,197.52518666666663,197.91487466666663,60.0,101.0
577,196.72915733333332,197.97482666666664,48.0,80.0
578,197.89988666666665,198.27125599999997,55.0,93.0
579,198.34286533333332,198.56935066666665,58.0,76.0
580,198.3478613333333,198.8124893333333,62.0,89.0
581,198.7425453333333,198.97069599999998,58.0,80.0
582,198.3278773333333,199.49527599999996,46.0,66.0
583,199.13889466666663,199.54523599999996,58.0,80.0
584,199.13889466666663,199.6018573333333,62.0,89.0
585,199.93492399999997,200.43785466666665,56.0,66.0
586,199.93492399999997,200.4761573333333,60.0,78.0
587,200.29796666666664,200.77258666666665,51.0,49.0
588,199.9166053333333,200.80922399999997,44.0,74.0
589,200.69598133333332,201.02405199999998,56.0,93.0
590,200.69764666666663,201.17393199999998,60.0,93.0
591,201.5303133333333,202.09819199999998,53.0,80.0
592,201.52198666666663,202.11317999999997,60.0,80.0
593,202.32634266666665,202.58280399999998,53.0,86.0
594,201.52198666666663,202.62110666666663,41.0,89.0
595,201.91667066666665,202.66440533333332,48.0,69.0
596,202.32634266666665,202.68605466666665,57.0,93.0
597,202.3196813333333,202.76599066666665,60.0,93.0
598,203.12736799999996,203.55868933333332,58.0,75.0
599,203.14735199999998,203.6636053333333,62.0,74.0
600,203.9283933333333,204.4080093333333,58.0,101.0
601,204.31641599999998,204.5179213333333,62.0,77.0
602,203.13236399999997,206.25319866666663,46.0,69.0
603,203.53204399999998,206.2565293333333,53.0,59.0
604,204.7277533333333,206.2565293333333,58.0,74.0
605,204.73441466666665,206.29483199999999,65.0,93.0
606,207.5355053333333,207.87856399999998,55.0,75.0
607,207.13582533333332,208.09172666666663,48.0,95.0
608,207.9351853333333,208.31321599999998,55.0,77.0
609,207.9351853333333,208.51971733333332,64.0,92.0
610,207.9351853333333,208.56634666666665,60.0,95.0
611,208.3348653333333,208.7964215520833,48.0,97.0
612,208.7502677020833,208.7964215520833,48.0,86.0
613,208.7502677020833,209.28872928541662,60.0,86.0
614,206.7361453333333,209.4483446833333,43.0,66.0
615,206.3364653333333,209.5233446895833,36.0,99.0
616,209.4425754520833,209.84353699999997,60.0,93.0
617,209.2118062020833,209.87478699999997,55.0,99.0
618,208.7502677020833,209.88937033333332,64.0,99.0
619,210.65907743749997,211.54252249999996,53.0,99.0
620,211.06448243749998,211.88542756249998,60.0,85.0
621,211.46988743749998,212.08306249999998,69.0,97.0
622,211.46988743749998,212.18103537499996,65.0,76.0
623,211.87529243749998,212.35333249999996,53.0,95.0
624,212.48339993749997,212.67596731249998,53.0,72.0
625,210.1831203333333,212.78914287499998,48.0,52.0
626,209.6831203333333,212.843196875,41.0,92.0
627,212.68610243749998,213.16245331249996,65.0,96.0
628,212.28069743749998,213.18948031249997,69.0,112.0
629,212.88880493749997,213.19792624999997,60.0,88.0
630,213.90094366666662,213.91927699999997,63.0,68.0
631,213.4969124375,214.11927699999995,57.0,78.0
632,214.30094366666663,214.7926103333333,57.0,72.0
633,213.90094366666662,215.34094366666662,64.0,100.0
634,214.70094366666663,215.3526103333333,60.0,88.0
635,215.10094366666664,215.57094366666664,57.0,58.0
636,213.09150743749998,215.62427699999995,40.0,90.0
637,215.70094366666663,215.93927699999995,40.0,58.0
638,215.90094366666662,216.2426103333333,60.0,100.0
639,215.50094366666661,216.26927699999996,64.0,100.0
640,216.10094366666664,216.37594366666661,57.0,95.0
641,217.10094366666664,217.9826103333333,50.0,88.0
642,217.50094366666661,218.75594366666664,57.0,71.0
643,218.30094366666663,218.79094366666664,50.0,82.0
644,217.90094366666662,218.97927699999997,65.0,112.0
645,216.30094366666663,218.9926103333333,38.0,93.0
646,216.70094366666663,219.01427699999996,45.0,72.0
647,218.90094366666662,219.21427699999995,50.0,77.0
648,219.10094366666664,219.45594366666663,57.0,81.0
649,218.70094366666663,219.48094366666663,62.0,102.0
650,219.30094366666663,219.49761033333328,65.0,99.0
651,219.90094366666662,220.20094366666663,57.0,90.0
652,220.10094366666664,220.25927699999997,60.0,73.0
653,219.70094366666663,220.40594366666662,52.0,59.0
654,220.50094366666661,220.6776103333333,52.0,99.0
655,219.50094366666661,220.74761033333328,45.0,86.0
656,220.30094366666663,220.79094366666664,64.0,107.0
657,220.70094366666663,221.02094366666662,57.0,92.0
658,221.10094366666664,221.7976103333333,63.0,112.0
659,221.10094366666664,221.8326103333333,60.0,100.0
660,221.10094366666664,221.99094366666662,53.0,93.0
661,221.10094366666664,222.01094366666663,57.0,95.0
662,222.10094366666664,222.51594366666663,53.0,79.0
663,221.10094366666664,222.5676103333333,41.0,72.0
664,221.90094366666662,222.7426103333333,63.0,127.0
665,222.50094366666661,222.74594366666662,57.0,73.0
666,222.30094366666663,222.7576103333333,60.0,102.0
667,223.10094366666664,223.53094366666662,58.0,89.0
668,223.30094366666663,223.6026103333333,62.0,63.0
669,222.70094366666663,224.14594366666662,46.0,93.0
670,222.90094366666662,224.28427699999997,53.0,73.0
671,223.70094366666663,224.38427699999997,58.0,92.0
672,224.10094366666664,224.7576103333333,62.0,97.0
673,223.50094366666661,224.88427699999997,70.0,127.0
674,223.90094366666662,224.92594366666663,65.0,93.0
675,224.70094366666663,225.12261033333328,58.0,88.0
676,224.90094366666662,225.2876103333333,62.0,74.0
677,224.50094366666661,225.40261033333329,53.0,62.0
678,224.30094366666663,225.42927699999996,46.0,88.0
679,225.30094366666663,225.43761033333328,58.0,107.0
680,225.10094366666664,225.7626103333333,70.0,117.0
681,225.50094366666661,225.85427699999997,65.0,92.0
682,225.70094366666663,225.8926103333333,62.0,99.0
683,226.30094366666663,226.5326103333333,57.0,93.0
684,225.90094366666662,226.59094366666662,45.0,93.0
685,226.10094366666664,226.61094366666663,52.0,79.0
686,226.50094366666661,227.04594366666663,64.0,100.0
687,226.90094366666662,227.1176103333333,61.0,85.0
688,226.70094366666663,227.23594366666663,49.0,100.0
689,227.30094366666663,227.53594366666664,64.0,89.0
690,227.10094366666664,227.58094366666663,57.0,100.0
691,227.90094366666662,228.3526103333333,50.0,93.0
692,228.10094366666664,228.39094366666663,57.0,85.0
693,227.50094366666661,228.88594366666663,38.0,69.0
694,227.70094366666663,228.92927699999996,45.0,96.0
695,228.50094366666661,229.0376103333333,50.0,90.0
696,228.70094366666663,229.07594366666663,62.0,97.0
697,228.30094366666663,229.10594366666663,65.0,107.0
698,228.90094366666662,229.11094366666663,57.0,102.0
699,229.50094366666661,229.7626103333333,55.0,81.0
700,229.70094366666663,229.86594366666662,58.0,88.0
701,229.30094366666663,229.94094366666664,50.0,90.0
702,229.10094366666664,230.22594366666664,43.0,97.0
703,230.10094366666664,230.26594366666663,50.0,81.0
704,230.30094366666663,230.62594366666661,58.0,100.0
705,229.90094366666662,230.6326103333333,62.0,97.0
706,230.50094366666661,230.71927699999998,55.0,89.0
707,231.10094366666664,231.5176103333333,48.0,83.0
708,231.30094366666663,231.75261033333328,55.0,78.0
709,230.90094366666662,232.2726103333333,43.0,85.0
710,231.90094366666662,232.2826103333333,60.0,92.0
711,231.70094366666663,232.29427699999997,48.0,79.0
712,230.70094366666663,232.3026103333333,36.0,82.0
713,232.10094366666664,232.3076103333333,55.0,90.0
714,231.50094366666661,232.32594366666663,64.0,96.0
715,232.70094366666663,233.14094366666663,53.0,88.0
716,232.90094366666662,233.24594366666662,57.0,71.0
717,233.30094366666663,233.60594366666663,53.0,83.0
718,232.30094366666663,233.7276103333333,41.0,92.0
719,232.50094366666661,233.90261033333329,48.0,81.0
720,233.70094366666663,234.35094366666664,57.0,90.0
721,233.50094366666661,234.4476103333333,60.0,83.0
722,233.10094366666664,234.4526103333333,65.0,100.0
723,234.30094366666663,235.5676103333333,53.0,41.0
724,234.10094366666664,235.59261033333328,48.0,63.0
725,234.70094366666663,235.59594366666664,65.0,79.0
726,234.50094366666661,235.6026103333333,57.0,43.0
727,233.90094366666662,235.62094366666662,41.0,62.0
728,236.70060880416662,237.21026837916662,62.0,69.0
729,236.30087580416662,237.29521164166664,58.0,93.0
730,237.10034180416665,237.97309218749996,65.0,88.0
731,237.50007480416664,238.08968097916664,58.0,72.0
732,235.90094366666662,238.2462430708333,53.0,55.0
733,235.50094366666661,238.28788192499997,46.0,85.0
734,238.29954080416664,238.73258488749997,65.0,66.0
735,237.89980780416664,238.74757487499997,62.0,86.0
736,239.49873980416663,239.78688067499996,57.0,88.0
737,238.69927380416664,239.89347614166664,45.0,69.0
738,239.09900680416663,239.9351149958333,52.0,55.0
739,239.89847280416663,240.3398446583333,60.0,78.0
740,240.29820580416663,241.3391771583333,38.0,69.0
741,240.69793880416663,241.37082268749998,45.0,58.0
742,241.09767180416662,241.52571922499996,50.0,46.0
743,241.09767180416662,241.81719120416665,62.0,68.0
744,241.09767180416662,241.81719120416665,65.0,66.0
745,241.49740480416662,241.83717785416664,57.0,78.0
746,242.09700430416663,242.34517187499998,55.0,75.0
747,242.49673730416663,242.7332459958333,58.0,95.0
748,242.09700430416663,242.74990153749997,50.0,95.0
749,242.89647030416663,243.15629675416665,50.0,89.0
750,241.89713780416665,243.18461117499996,43.0,112.0
751,243.09633680416664,243.42445097499996,58.0,117.0
752,242.69660380416664,243.46942093749996,62.0,97.0
753,243.29620330416662,243.4827453708333,55.0,92.0
754,243.89580280416664,244.3621579708333,48.0,86.0
755,244.09566930416662,244.44710123333329,55.0,77.0
756,243.49606980416664,244.57534890416665,36.0,78.0
757,243.69593630416662,244.6169877583333,43.0,81.0
758,244.49540230416665,244.78021206666662,48.0,85.0
759,244.69526880416663,245.0566940583333,60.0,93.0
760,244.89513530416664,245.06335627499996,55.0,77.0
761,244.29553580416663,245.0916706958333,64.0,97.0
762,245.49473480416663,245.91778556249997,50.0,76.0
763,245.69460130416664,246.10932429166664,57.0,79.0
764,245.29486830416664,246.21425420416662,45.0,77.0
765,245.09500180416663,246.23257529999998,38.0,92.0
766,246.09433430416664,246.24756528749998,50.0,83.0
767,246.29420080416662,246.67394715416663,62.0,96.0
768,245.89446780416662,246.7105893458333,65.0,100.0
769,246.49406730416663,246.7155860083333,57.0,88.0
770,247.09366680416665,247.52837644166664,48.0,77.0
771,247.29353330416663,247.64663078749996,55.0,71.0
772,246.69393380416665,247.7798751208333,36.0,72.0
773,246.89380030416663,247.80319287916663,43.0,73.0
774,247.69326630416663,247.8048584333333,48.0,77.0
775,247.89313280416664,248.2395680708333,60.0,90.0
776,248.09299930416663,248.27287915416665,55.0,72.0
777,247.49339980416664,248.2895346958333,64.0,95.0
778,248.25122694999996,249.55535586249997,34.0,95.0
779,248.6842710333333,249.56534918749998,41.0,45.0
780,249.12064622499997,249.60532248749996,46.0,62.0
781,249.49872702083331,249.60698804166663,53.0,63.0
782,249.96508218749997,254.26887415416664,36.0,72.0
783,249.98173772916664,254.40711514999998,48.0,59.0
784,249.96008552499995,254.43376401666663,55.0,69.0
785,249.9534233083333,254.43876067916665,60.0,72.0
786,249.96175107916665,254.4654095458333,64.0,69.0
787,255.5346953208333,256.6089777583333,53.0,53.0
788,255.93109721249996,257.2185705833333,57.0,54.0
789,255.14162453749998,257.9230999958333,48.0,40.0
790,256.7538809708333,257.93808998333327,53.0,40.0
791,257.1586106333333,257.9430866458333,60.0,57.0
792,254.72690154999998,257.9530799708333,41.0,74.0
793,257.5133736708333,257.9680699583333,57.0,58.0
794,256.32583354999997,257.97140106666666,65.0,54.0
795,257.9097755625,257.97140106666666,65.0,62.0
796,257.8881233583333,260.94441525416664,58.0,48.0
797,257.914772225,261.04268294999997,62.0,46.0
798,261.04434850416663,261.0460140583333,65.0,59.0
799,257.9131066708333,261.0809906958333,70.0,58.0
800,257.9064444541666,261.1892517166666,46.0,48.0
801,264.2205603,264.2338847333333,65.0,66.0
802,261.0493451666666,264.2372158416666,62.0,53.0
803,264.22222585416665,264.2372158416666,62.0,66.0
804,261.0460140583333,264.2538713833333,69.0,55.0
805,261.04268294999997,264.25720249166665,57.0,50.0
806,261.0593384916666,264.2838513583333,50.0,45.0
807,264.22722251666664,265.8877800208333,58.0,77.0
808,264.2188947458333,265.909432225,70.0,63.0
809,264.2238914083333,265.9227566583333,46.0,78.0
810,266.2675263708333,266.75053707916663,52.0,40.0
811,265.849472275,266.7721892833333,45.0,79.0
812,265.84281005833327,266.7738548375,60.0,67.0
813,267.0536679375,267.52335421249995,60.0,50.0
814,266.6272860708333,267.5266853208333,57.0,77.0
815,265.84614116666665,267.5366786458333,64.0,65.0
816,267.8664583708333,268.67258658749995,50.0,54.0
817,267.45006982916664,268.68924212916664,43.0,68.0
818,268.6525999375,269.12561732083327,58.0,67.0
819,268.2545324916666,269.14227286249996,55.0,61.0
820,269.1622595125,270.56299056666666,55.0,45.0
821,269.15726284999994,271.0509979375,60.0,54.0
822,270.23654194999995,272.0170193541666,48.0,50.0
823,269.6802468583333,272.0519959916666,43.0,42.0
824,269.15559729583333,272.1419359166666,64.0,53.0
825,270.8494658833333,272.18024366249995,55.0,32.0
826,269.167256175,272.1835747708333,36.0,72.0
827,272.8781108583333,272.9430674708333,29.0,59.0
828,272.7931675958333,273.79916231249996,53.0,59.0
829,272.7215487666666,274.00569102916666,57.0,48.0
830,272.6016288666666,274.2821730208333,60.0,50.0
831,274.21888196249995,274.4920328458333,57.0,38.0
832,274.4537251,274.53866836249995,60.0,53.0
833,274.6952304541666,275.0416657208333,65.0,76.0
834,274.94506357916663,275.19323115,69.0,58.0
835,275.19323115,275.2865021833333,72.0,57.0
836,275.47304425,276.5439955791666,77.0,61.0
837,275.76951289166664,276.55398890416666,81.0,50.0
838,276.11261705,276.5856344333333,84.0,44.0
839,276.49402895416665,276.6172799625,89.0,40.0
840,277.41841151666665,277.87310780416664,101.0,58.0
841,277.2052205833333,277.8831011291666,93.0,39.0
842,277.26684608749997,277.8880977916666,96.0,31.0
843,277.1502572958333,277.88976334583333,89.0,31.0
844,273.82581117916664,277.8947600083333,48.0,48.0
845,274.0623198708333,277.8997566708333,53.0,43.0
846,273.53100809166665,277.9314022,41.0,50.0
