,start,end,pitch,velocity
0,25.7711916125,25.967620079166668,72.0,90.0
1,26.0390486125,26.215387804166667,67.0,94.0
2,26.3069056125,26.457575175000002,70.0,99.0
3,26.574762612500002,26.734360741666666,72.0,92.0
4,26.842619612500002,27.020074875000002,72.0,93.0
5,27.1104766125,27.255565820833333,75.0,98.0
6,27.3783336125,27.571413866666667,75.0,94.0
7,27.6461906125,27.83257444166667,72.0,93.0
8,27.9140476125,28.136145708333334,70.0,94.0
9,28.181904612500002,28.850431041666667,72.0,93.0
10,30.0569036125,30.232126733333335,70.0,92.0
11,30.3247606125,30.515608725,70.0,92.0
12,30.5926176125,30.794626433333335,72.0,92.0
13,30.860474612500003,31.149536958333336,70.0,99.0
14,31.3961886125,31.661813470833334,70.0,88.0
15,31.6640456125,31.842616945833335,67.0,92.0
16,31.9319026125,32.12833107916667,65.0,88.0
17,32.1997596125,32.37051845,63.0,95.0
18,32.4676166125,33.26895547083333,67.0,92.0
19,33.2711876125,33.462035725,60.0,93.0
20,33.5390446125,33.6997588125,63.0,93.0
21,33.8069016125,34.60600832916667,65.0,90.0
22,34.8783296125,35.32475794583333,65.0,93.0
23,35.4140436125,35.578106025000004,63.0,92.0
24,35.6819006125,35.85154337916667,65.0,90.0
25,35.9497576125,36.104891458333334,67.0,86.0
26,36.2176146125,36.403998441666666,67.0,89.0
27,36.4854716125,36.65623045,65.0,89.0
28,36.7533286125,37.2957390375,67.0,92.0
29,37.556899612500004,37.73658701666667,67.0,93.0
30,37.8247566125,37.97989045833334,70.0,93.0
31,38.0926136125,38.25221174166667,72.0,95.0
32,38.3604706125,38.78792574166667,72.0,94.0
33,38.8961846125,39.09261307916667,70.0,97.0
34,39.1640416125,39.563594970833336,72.0,93.0
35,39.6997556125,40.1417196625,75.0,96.0
36,40.235469612500005,40.48546947916667,74.0,94.0
37,40.503326612500004,40.97988885833333,72.0,97.0
38,41.0390406125,41.73993309583334,70.0,99.0
39,42.9140396125,43.110468079166665,72.0,90.0
40,43.181896612500005,43.35823580416667,67.0,94.0
41,43.449753612500004,43.600423175,70.0,99.0
42,43.7176106125,43.87720874166667,72.0,92.0
43,43.9854676125,44.162922875,72.0,93.0
44,44.2533246125,44.39841382083333,75.0,98.0
45,44.5211816125,44.71426186666667,75.0,94.0
46,44.7890386125,44.975422441666666,72.0,93.0
47,45.0568956125,45.27899370833333,70.0,94.0
48,45.3247526125,45.99327904166667,72.0,93.0
49,46.9318946125,47.10711773333333,70.0,92.0
50,47.1997516125,47.37497473333333,70.0,92.0
51,47.4676086125,47.658456725,70.0,92.0
52,47.7354656125,47.937474433333335,72.0,92.0
53,48.0033226125,48.292384958333336,70.0,99.0
54,48.5390366125,48.80466147083334,70.0,88.0
55,48.806893612500005,48.985464945833336,67.0,92.0
56,49.074750612500004,49.27117907916667,65.0,88.0
57,49.342607612500004,49.51336645,63.0,95.0
58,49.6104646125,50.411803470833334,67.0,92.0
59,50.4140356125,50.604883725,60.0,93.0
60,50.6818926125,50.8426068125,63.0,93.0
61,50.9497496125,51.48323147083333,65.0,90.0
62,51.4854636125,51.75108847083334,65.0,90.0
63,51.753320612500005,52.01894547083334,65.0,90.0
64,52.021177612500004,52.467605945833334,65.0,93.0
65,52.5568916125,52.720954025000005,63.0,92.0
66,52.8247486125,52.99439137916667,65.0,90.0
67,53.0926056125,53.247739458333335,67.0,86.0
68,53.3604626125,53.546846441666666,67.0,89.0
69,53.6283196125,53.79907845,70.0,89.0
70,53.8961766125,54.16180147083333,67.0,92.0
71,54.4318906125,54.69751547083334,67.0,92.0
72,54.699747612500005,54.87943501666667,70.0,93.0
73,54.967604612500004,55.12273845833334,67.0,93.0
74,55.2354616125,55.39505974166667,72.0,95.0
75,55.5033186125,55.768943470833335,72.0,94.0
76,55.7711756125,56.036800470833334,72.0,94.0
77,56.0390326125,56.23546107916667,75.0,97.0
78,56.3068896125,56.706442970833336,77.0,93.0
79,56.8426036125,57.10822847083333,75.0,96.0
80,57.1104606125,57.36046047916667,72.0,94.0
81,57.3783176125,58.983227470833334,74.0,97.0
82,60.592601612500005,61.05019065416667,67.0,96.0
83,61.1283156125,61.52786897083333,70.0,97.0
84,61.6640296125,61.8381366625,72.0,95.0
85,61.9318866125,62.09706509583334,72.0,92.0
86,62.1997436125,62.39728815,72.0,94.0
87,62.4676006125,62.666261220833334,70.0,98.0
88,62.7354576125,62.95867177916667,72.0,96.0
89,63.0033146125,63.19527879583333,79.0,96.0
90,63.271171612500005,63.443046520833335,77.0,93.0
91,63.539028612500005,63.73099279583334,75.0,90.0
92,63.806885612500004,64.25889430000001,77.0,94.0
93,64.3425996125,64.51782273333333,77.0,93.0
94,64.6104566125,65.07585815,75.0,96.0
95,65.1461706125,65.67965247083333,72.0,95.0
96,65.6818846125,65.84483095416667,72.0,94.0
97,65.9497416125,66.10487545833334,74.0,103.0
98,66.2175986125,66.38277709583333,74.0,96.0
99,66.4854556125,66.65733052083334,74.0,98.0
100,66.7533126125,66.92295537916667,75.0,96.0
101,67.0211696125,67.1952766625,77.0,88.0
102,67.2890266125,67.4631336625,75.0,96.0
103,67.5568836125,67.70085675,77.0,93.0
104,67.82474061250001,68.25554395416667,80.0,96.0
105,68.3604546125,69.0234006875,79.0,94.0
106,70.2354536125,70.3559892625,79.0,93.0
107,70.5033106125,70.6305426875,79.0,93.0
108,70.77116761250001,70.91514075,79.0,93.0
109,71.0390246125,71.17853346666666,79.0,92.0
110,71.3068816125,71.47764045,79.0,93.0
111,71.5747386125,71.73322067083333,77.0,93.0
112,71.8425956125,71.99884552916667,77.0,91.0
113,72.1104526125,72.28121145,75.0,94.0
114,72.3783096125,72.55353273333334,75.0,93.0
115,72.6461666125,72.79013975000001,77.0,85.0
116,72.9140236125,73.0713896,77.0,87.0
117,73.1818806125,73.69192498333334,75.0,93.0
118,73.71759461250001,74.33812999583334,72.0,93.0
119,74.5211656125,74.64839768750001,74.0,92.0
120,74.7890226125,74.94415645833334,74.0,94.0
121,75.0568796125,75.19750453750001,74.0,99.0
122,75.3247366125,75.49995973333334,72.0,93.0
123,75.5925936125,75.8202720625,70.0,95.0
124,75.8604506125,76.04237015833334,67.0,91.0
125,76.12830761250001,76.31803965416667,70.0,92.0
126,76.3961646125,76.801298325,72.0,93.0
127,76.9318786125,78.27339575416667,72.0,93.0
128,78.2711636125,78.53678847083333,67.0,96.0
129,78.5390206125,78.80464547083334,70.0,97.0
130,78.8068776125,78.9809846625,72.0,95.0
131,79.07473461250001,79.23991309583333,72.0,92.0
132,79.3425916125,79.54013615000001,72.0,94.0
133,79.61044861250001,79.80910922083334,70.0,98.0
134,79.8783056125,80.10151977916667,72.0,96.0
135,80.1461626125,80.33812679583333,79.0,96.0
136,80.4140196125,80.58589452083334,77.0,93.0
137,80.6818766125,80.87384079583333,75.0,90.0
138,80.9497336125,81.40174230000001,77.0,94.0
139,81.4854476125,81.66067073333333,77.0,93.0
140,81.7533046125,82.21870615,75.0,96.0
141,82.2890186125,82.82250047083333,72.0,95.0
142,82.8247326125,82.98767895416667,72.0,94.0
143,83.0925896125,83.24772345833334,74.0,103.0
144,83.3604466125,83.52562509583333,74.0,96.0
145,83.6283036125,83.80017852083334,74.0,98.0
146,83.8961606125,84.06580337916667,75.0,96.0
147,84.1640176125,84.33812466250001,77.0,88.0
148,84.4318746125,84.6059816625,75.0,96.0
149,84.6997316125,84.84370475,77.0,93.0
150,84.96758861250001,85.39839195416667,80.0,96.0
151,85.50330261250001,86.1662486875,79.0,94.0
152,87.3783016125,87.4988372625,79.0,93.0
153,87.6461586125,87.7733906875,79.0,93.0
154,87.91401561250001,88.05798875,79.0,93.0
155,88.1818726125,88.32138146666667,79.0,92.0
156,88.44972961250001,88.62048845,79.0,93.0
157,88.7175866125,88.87606867083333,77.0,93.0
158,88.9854436125,89.14169352916667,77.0,91.0
159,89.2533006125,89.42405945,75.0,94.0
160,89.5211576125,89.78678247083333,77.0,93.0
161,90.0568716125,90.2142376,77.0,87.0
162,90.3247286125,90.83477298333334,75.0,93.0
163,90.86044261250001,91.39392447083334,72.0,93.0
164,91.39615661250001,91.66178147083333,72.0,93.0
165,91.6640136125,91.79124568750001,74.0,92.0
166,91.9318706125,92.08700445833334,74.0,94.0
167,92.1997276125,92.3403525375,74.0,99.0
168,92.4675846125,92.64280773333334,72.0,93.0
169,92.7354416125,92.9631200625,70.0,95.0
170,93.0032986125,93.18521815833334,67.0,91.0
171,93.2711556125,93.46088765416667,70.0,92.0
172,93.5390126125,93.944146325,72.0,93.0
173,94.0747266125,95.41624375416667,72.0,93.0
174,115.7711436125,115.96757207916667,72.0,90.0
175,116.0390006125,116.21533980416667,67.0,94.0
176,116.30685761250001,116.45752717500001,70.0,99.0
177,116.5747146125,116.73431274166667,72.0,92.0
178,116.84257161250001,117.020026875,72.0,93.0
179,117.1104286125,117.25551782083333,75.0,98.0
180,117.37828561250001,117.57136586666667,75.0,94.0
181,117.6461426125,117.83252644166667,72.0,93.0
182,117.9139996125,118.13609770833334,70.0,94.0
183,118.1818566125,118.85038304166667,72.0,93.0
184,119.78899861250001,119.96422173333333,70.0,92.0
185,120.0568556125,120.23207873333334,70.0,92.0
186,120.32471261250001,120.515560725,70.0,92.0
187,120.5925696125,120.79457843333334,72.0,92.0
188,120.8604266125,121.14948895833334,70.0,99.0
189,121.3961406125,121.66176547083333,70.0,88.0
190,121.6639976125,121.84256894583334,67.0,92.0
191,121.9318546125,122.12828307916666,65.0,88.0
192,122.19971161250001,122.37047045,63.0,95.0
193,122.4675686125,123.26890747083334,67.0,92.0
194,123.27113961250001,123.461987725,60.0,93.0
195,123.5389966125,123.6997108125,63.0,93.0
196,123.8068536125,124.34033547083334,65.0,90.0
197,124.3425676125,124.60819247083333,65.0,90.0
198,124.6104246125,124.87604947083334,65.0,90.0
199,124.8782816125,125.32470994583333,65.0,93.0
200,125.4139956125,125.578058025,63.0,92.0
201,125.68185261250001,125.85149537916666,65.0,90.0
202,125.9497096125,126.10484345833333,67.0,86.0
203,126.21756661250001,126.40395044166667,67.0,89.0
204,126.4854236125,126.65618245,70.0,89.0
205,126.7532806125,127.01890547083333,67.0,92.0
206,127.2889946125,127.55461947083333,67.0,92.0
207,127.5568516125,127.73653901666667,70.0,93.0
208,127.8247086125,127.97984245833334,67.0,93.0
209,128.0925656125,128.25216374166666,72.0,95.0
210,128.3604226125,128.62604747083333,72.0,94.0
211,128.6282796125,128.89390447083335,72.0,94.0
212,128.89613661250002,129.09256507916666,75.0,97.0
213,129.1639936125,129.56354697083333,77.0,93.0
214,129.6997076125,129.96533247083335,75.0,96.0
215,129.9675646125,130.21756447916667,72.0,94.0
216,130.2354216125,131.84033147083335,74.0,97.0
217,133.4497056125,133.90729465416666,67.0,96.0
218,133.9854196125,134.38497297083333,70.0,97.0
219,134.5211336125,134.6952406625,72.0,95.0
220,134.78899061250002,134.95416909583335,72.0,92.0
221,135.0568476125,135.25439215,72.0,94.0
222,135.3247046125,135.52336522083334,70.0,98.0
223,135.5925616125,135.81577577916667,72.0,96.0
224,135.8604186125,136.05238279583332,79.0,96.0
225,136.1282756125,136.30015052083334,77.0,93.0
226,136.3961326125,136.58809679583334,75.0,90.0
227,136.66398961250002,137.1159983,77.0,94.0
228,137.1997036125,137.37492673333333,77.0,93.0
229,137.4675606125,137.93296215,75.0,96.0
230,138.0032746125,138.53675647083332,72.0,95.0
231,138.5389886125,138.70193495416666,72.0,94.0
232,138.8068456125,138.96197945833333,74.0,103.0
233,139.0747026125,139.23988109583334,74.0,96.0
234,139.3425596125,139.51443452083333,74.0,98.0
235,139.61041661250002,139.78005937916666,75.0,96.0
236,139.8782736125,140.0523806625,77.0,88.0
237,140.1461306125,140.3202376625,75.0,96.0
238,140.4139876125,140.55796075,77.0,93.0
239,140.68184461250002,141.11264795416668,80.0,96.0
240,141.2175586125,141.8805046875,79.0,94.0
241,143.0925576125,143.2130932625,79.0,93.0
242,143.3604146125,143.48764668750002,79.0,93.0
243,143.62827161250001,143.77224475,79.0,93.0
244,143.8961286125,144.03563746666669,79.0,92.0
245,144.1639856125,144.33474445000002,79.0,93.0
246,144.4318426125,144.59032467083333,77.0,93.0
247,144.6996996125,144.85594952916668,77.0,91.0
248,144.9675566125,145.13831545,75.0,94.0
249,145.2354136125,145.41063673333335,75.0,93.0
250,145.50327061250002,145.64724375,77.0,85.0
251,145.7711276125,145.9284936,77.0,87.0
252,146.0389846125,146.54902898333333,75.0,93.0
253,146.57469861250001,147.19523399583335,72.0,93.0
254,147.3782696125,147.50550168750001,74.0,92.0
255,147.6461266125,147.80126045833333,74.0,94.0
256,147.9139836125,148.0546085375,74.0,99.0
257,148.1818406125,148.35706373333335,72.0,93.0
258,148.44969761250002,148.6773760625,70.0,95.0
259,148.7175546125,148.89947415833333,67.0,91.0
260,148.9854116125,149.17514365416667,70.0,92.0
261,149.2532686125,149.658402325,72.0,93.0
262,149.7889826125,151.13049975416666,72.0,93.0
263,151.1282676125,151.39389247083335,67.0,96.0
264,151.39612461250002,151.66174947083334,70.0,97.0
265,151.6639816125,151.8380886625,72.0,95.0
266,151.9318386125,152.09701709583334,72.0,92.0
267,152.1996956125,152.39724015000002,72.0,94.0
268,152.46755261250001,152.66621322083333,70.0,98.0
269,152.7354096125,152.95862377916666,72.0,96.0
270,153.0032666125,153.19523079583334,79.0,96.0
271,153.2711236125,153.44299852083333,77.0,93.0
272,153.5389806125,153.73094479583335,75.0,90.0
273,153.8068376125,154.25884630000002,77.0,94.0
274,154.34255161250002,154.51777473333334,77.0,93.0
275,154.6104086125,155.07581015,75.0,96.0
276,155.1461226125,155.67960447083334,72.0,95.0
277,155.6818366125,155.84478295416667,72.0,94.0
278,155.9496936125,156.10482745833335,74.0,103.0
279,156.2175506125,156.38272909583333,74.0,96.0
280,156.4854076125,156.65728252083335,74.0,98.0
281,156.7532646125,156.92290737916667,75.0,96.0
282,157.0211216125,157.1952286625,77.0,88.0
283,157.28897861250002,157.4630856625,75.0,96.0
284,157.5568356125,157.70080875,77.0,93.0
285,157.8246926125,158.25549595416666,80.0,96.0
286,158.36040661250001,159.0233526875,79.0,94.0
287,160.23540561250002,160.3559412625,79.0,93.0
288,160.5032626125,160.6304946875,79.0,93.0
289,160.7711196125,160.91509275,79.0,93.0
290,161.0389766125,161.17848546666667,79.0,92.0
291,161.30683361250001,161.47759245,79.0,93.0
292,161.5746906125,161.73317267083334,77.0,93.0
293,161.8425476125,161.99879752916667,77.0,91.0
294,162.1104046125,162.28116345,75.0,94.0
295,162.3782616125,162.64388647083334,77.0,93.0
296,162.9139756125,163.0713416,77.0,87.0
297,163.18183261250002,163.69187698333334,75.0,93.0
298,163.7175466125,164.25102847083335,72.0,93.0
299,164.25326061250001,164.51888547083334,72.0,93.0
300,164.5211176125,164.6483496875,74.0,92.0
301,164.7889746125,164.94410845833335,74.0,94.0
302,165.0568316125,165.19745653750002,74.0,99.0
303,165.3246886125,165.49991173333333,72.0,93.0
304,165.5925456125,165.82022406250002,70.0,95.0
305,165.8604026125,166.04232215833335,67.0,91.0
306,166.12825961250002,166.31799165416666,70.0,92.0
307,166.3961166125,166.801250325,72.0,93.0
308,166.9318306125,168.27334775416668,72.0,93.0
309,168.8068296125,170.07468607916667,79.0,94.0
310,170.1461146125,170.42178410833333,79.0,94.0
311,170.4139716125,170.6952214625,77.0,87.0
312,170.6818286125,170.82580175,75.0,93.0
313,170.94968561250002,171.21531047083334,77.0,92.0
314,171.2175426125,171.75102447083333,79.0,96.0
315,171.7532566125,172.5635240375,72.0,94.0
316,172.8246846125,173.04678270833332,72.0,94.0
317,173.0925416125,173.2197736875,74.0,103.0
318,173.3603986125,173.50995210416667,74.0,96.0
319,173.6282556125,173.81687158333335,74.0,99.0
320,173.89611261250002,174.05124645833334,75.0,96.0
321,174.1639696125,174.314639175,77.0,92.0
322,174.4318266125,174.68405862083333,75.0,94.0
323,174.6996836125,174.81687105,77.0,93.0
324,174.96754061250002,175.36821004166669,80.0,94.0
325,175.5032546125,177.0702180625,79.0,95.0
326,177.3782536125,178.64611007916668,79.0,94.0
327,178.7175386125,178.99320810833333,79.0,94.0
328,178.9853956125,179.2666454625,77.0,87.0
329,179.2532526125,179.39722575000002,75.0,93.0
330,179.5211096125,179.78673447083335,77.0,92.0
331,179.78896661250002,180.32244847083334,79.0,96.0
332,180.3246806125,181.1349480375,72.0,94.0
333,181.3961086125,181.61820670833333,72.0,94.0
334,181.6639656125,181.79119768750002,74.0,103.0
335,181.9318226125,182.08137610416668,74.0,96.0
336,182.1996796125,182.38829558333333,74.0,99.0
337,182.4675366125,182.62267045833335,75.0,96.0
338,182.73539361250002,182.886063175,74.0,92.0
339,183.0032506125,183.53673247083333,72.0,94.0
340,183.5389646125,183.80458947083335,70.0,94.0
341,183.80682161250002,184.34030347083333,72.0,95.0
342,184.3425356125,185.37378506250002,72.0,95.0
343,185.6416420625,185.85257945,72.0,94.0
344,185.92847226666666,186.07244540416667,74.0,98.0
345,186.1974453375,186.34699882916667,74.0,96.0
346,186.46865055,186.64387367083333,74.0,96.0
347,186.74097183333333,186.99543598333335,75.0,94.0
348,187.064632375,187.33360544583334,74.0,103.0
349,187.439632175,187.73873915833335,72.0,93.0
350,187.86708730416666,189.86150588333334,70.0,94.0
351,190.7711036125,191.57244247083335,72.0,92.0
352,192.44967414583334,194.3068160125,72.0,93.0
