,start,end,pitch,velocity
0,4.3426316125,5.020086608333333,48.0,82.0
1,4.0747746125,5.104907991666667,43.0,75.0
2,3.8069176125,5.147318683333333,36.0,87.0
3,4.6104886125,5.575889883333334,55.0,83.0
4,5.9497736125000005,7.062496233333333,44.0,91.0
5,6.2176306125,7.070308729166667,51.0,75.0
6,6.4854876125,7.316960383333334,56.0,75.0
7,6.7533446125,7.324772879166667,60.0,83.0
8,8.3604866125,9.193075454166667,53.0,84.0
9,8.0926296125,9.460932454166667,46.0,89.0
10,8.6283436125,9.541289554166667,58.0,80.0
11,8.8962006125,9.76338765,62.0,87.0
12,10.2354856125,11.386154641666668,39.0,89.0
13,10.503342612500001,11.399547491666667,46.0,78.0
14,11.0390566125,11.559145620833334,58.0,86.0
15,10.7711996125,11.578118825,51.0,88.0
16,11.5747706125,11.745529450000001,55.0,86.0
17,12.3783416125,12.758921766666667,55.0,78.0
18,12.3783416125,12.852671716666666,60.0,74.0
19,12.9140556125,13.08481445,55.0,80.0
20,13.1819126125,13.829233695833334,63.0,89.0
21,12.646198612500001,13.934144354166667,43.0,80.0
22,12.3783416125,13.962046125,36.0,86.0
23,13.1819126125,14.285706666666668,55.0,85.0
24,14.5211976125,15.080349100000001,60.0,91.0
25,15.0569116125,15.220974025,56.0,87.0
26,14.789054612500001,15.5089203,51.0,81.0
27,14.5211976125,15.68302735,44.0,106.0
28,15.3247686125,15.902893304166668,56.0,87.0
29,15.3247686125,15.944187925000001,60.0,90.0
30,15.8604826125,16.0814646375,51.0,84.0
31,16.1283396125,16.408473391666668,56.0,89.0
32,17.1997676125,17.378338945833335,58.0,93.0
33,16.9319106125,17.619410245833333,53.0,90.0
34,16.664053612500002,17.8426244125,46.0,96.0
35,17.4676246125,18.1305706875,58.0,86.0
36,17.4676246125,18.328115225,62.0,91.0
37,18.003338612500002,18.347088429166668,53.0,85.0
38,18.2711956125,18.582579375,58.0,94.0
39,18.5390526125,19.207579041666666,62.0,91.0
40,19.3426236125,19.482132466666666,55.0,92.0
41,19.6104806125,19.950882216666667,55.0,90.0
42,19.6104806125,19.9553465,59.0,92.0
43,19.6104806125,19.964275066666666,62.0,90.0
44,19.0747666125,20.274542758333332,50.0,80.0
45,20.1461946125,20.506685491666666,55.0,90.0
46,18.8069096125,20.54016761666667,43.0,91.0
47,20.1461946125,20.5479801125,67.0,77.0
48,20.1461946125,20.581462237500002,59.0,96.0
49,20.1461946125,20.61159615,62.0,91.0
50,20.4140516125,20.731015729166668,50.0,88.0
51,20.949765612500002,21.328113625,55.0,82.0
52,21.4854796125,22.0680685875,55.0,78.0
53,20.949765612500002,22.083693579166667,62.0,85.0
54,21.7533366125,22.106014995833334,67.0,87.0
55,22.289050612500002,22.43302375,62.0,78.0
56,22.289050612500002,22.451996954166667,55.0,75.0
57,21.2176226125,22.90735385416667,50.0,79.0
58,20.949765612500002,22.98771095416667,43.0,90.0
59,23.0926216125,23.888380116666667,62.0,78.0
60,23.0926216125,23.956460437500002,55.0,78.0
61,24.1640496125,24.49552265,55.0,81.0
62,24.1640496125,24.5725315375,59.0,76.0
63,23.0926216125,25.109361608333334,43.0,88.0
64,24.1640496125,25.127218741666667,62.0,85.0
65,24.6997636125,25.1551205125,55.0,85.0
66,24.4319066125,25.25445081666667,50.0,88.0
67,25.7711916125,25.929673670833335,55.0,95.0
68,26.0390486125,26.263378850000002,55.0,93.0
69,26.0390486125,26.345968091666666,63.0,91.0
70,25.235477612500002,26.698646475,36.0,90.0
71,25.5033346125,26.723200033333335,43.0,77.0
72,26.574762612500002,26.80467320416667,55.0,93.0
73,26.574762612500002,26.871637454166667,62.0,90.0
74,27.1104766125,27.64172632916667,60.0,99.0
75,27.9140476125,28.0178422,56.0,90.0
76,27.6461906125,28.256681358333335,51.0,80.0
77,28.181904612500002,28.4095830625,63.0,89.0
78,28.181904612500002,28.4899401625,56.0,95.0
79,27.3783336125,28.78346679166667,44.0,102.0
80,28.4497616125,28.869404245833334,51.0,74.0
81,28.7176186125,29.0390470125,56.0,88.0
82,28.7176186125,29.488823558333333,62.0,89.0
83,29.521189612500002,29.858243004166667,58.0,80.0
84,30.0569036125,30.212037458333334,58.0,97.0
85,29.7890466125,30.731010395833334,53.0,81.0
86,30.3247606125,30.939715641666666,58.0,90.0
87,30.860474612500003,31.10712626666667,53.0,89.0
88,29.521189612500002,31.166278020833335,46.0,99.0
89,30.3247606125,31.168510162500002,62.0,94.0
90,31.128331612500002,31.424090383333333,58.0,94.0
91,31.3961886125,32.11828644166667,62.0,87.0
92,32.1997596125,32.53681300416667,58.0,91.0
93,32.4676166125,32.85824140416667,55.0,88.0
94,31.6640456125,33.183018016666665,39.0,99.0
95,31.9319026125,33.22542870833333,46.0,76.0
96,33.0033306125,33.622749925,58.0,93.0
97,33.0033306125,33.768955204166666,63.0,95.0
98,33.5390446125,33.84819623333333,55.0,90.0
99,34.3426156125,34.54462443333333,56.0,91.0
100,34.610472612500004,34.983240270833335,60.0,90.0
101,35.1461866125,35.639489920833334,53.0,89.0
102,34.0747586125,35.732123800000004,48.0,89.0
103,33.8069016125,35.74998093333333,41.0,93.0
104,35.1461866125,35.954221895833335,65.0,90.0
105,35.6819006125,36.02565042916667,60.0,88.0
106,36.2176146125,36.53792694166667,60.0,89.0
107,36.4854716125,36.6327929625,55.0,89.0
108,36.7533286125,37.097078429166665,55.0,86.0
109,36.7533286125,37.143953404166666,63.0,90.0
110,35.9497576125,37.59149780833334,48.0,105.0
111,37.2890426125,37.59484602083334,60.0,99.0
112,37.556899612500004,37.8984172875,55.0,88.0
113,37.8247566125,38.243283175,63.0,83.0
114,38.6283276125,38.767836466666665,56.0,81.0
115,38.8961846125,39.2377022875,63.0,89.0
116,38.8961846125,39.289041545833335,56.0,90.0
117,38.3604706125,39.541273554166665,51.0,82.0
118,38.0926136125,39.55131819166667,44.0,95.0
119,39.4318986125,39.618282441666665,56.0,83.0
120,39.4318986125,39.95980011666667,60.0,89.0
121,39.4318986125,40.018951870833334,63.0,90.0
122,39.9676126125,40.064710775,56.0,88.0
123,40.235469612500005,40.30689814583334,62.0,77.0
124,40.235469612500005,40.43078200833333,53.0,78.0
125,40.235469612500005,40.5635944375,58.0,84.0
126,40.503326612500004,40.87386212916667,53.0,73.0
127,40.7711836125,40.886138908333336,58.0,76.0
128,41.0390406125,41.434129687500004,53.0,84.0
129,41.0390406125,41.497745725,62.0,87.0
130,41.5747546125,41.890602658333336,58.0,102.0
131,41.8426116125,42.2176114125,53.0,88.0
132,40.235469612500005,42.319173858333336,46.0,90.0
133,42.1104686125,42.368280975000005,58.0,89.0
134,42.3783256125,42.729887925,60.0,87.0
135,42.3783256125,43.02229848333334,67.0,88.0
136,42.9140396125,43.085914520833335,60.0,91.0
137,43.181896612500005,43.5234142875,63.0,104.0
138,42.6461826125,43.806896279166665,55.0,82.0
139,42.3783256125,43.8850212375,48.0,90.0
140,43.7176106125,44.0089051,60.0,90.0
141,43.7176106125,44.2935031625,63.0,106.0
142,43.7176106125,44.309128154166665,67.0,90.0
143,44.2533246125,44.470958425,60.0,90.0
144,44.5211816125,45.073636675,67.0,90.0
145,44.5211816125,45.09372595,63.0,91.0
146,45.0568956125,45.3783240125,60.0,89.0
147,45.3247526125,45.67743099583333,63.0,97.0
148,44.5211816125,45.94193978333333,44.0,99.0
149,44.7890386125,45.9542165625,51.0,81.0
150,45.8604666125,46.078100425,60.0,90.0
151,45.8604666125,46.193055720833335,63.0,101.0
152,45.8604666125,46.24327890833334,67.0,91.0
153,46.6640376125,46.97653744583334,58.0,90.0
154,46.6640376125,47.26336765,62.0,90.0
155,47.1997516125,47.326983687500004,58.0,85.0
156,47.4676086125,47.832563775000004,58.0,95.0
157,47.4676086125,47.872742325000004,65.0,91.0
158,46.9318946125,48.22542070833333,53.0,78.0
159,48.0033226125,48.24327784166667,58.0,92.0
160,46.6640376125,48.270063541666666,46.0,92.0
161,48.0033226125,48.399527758333335,62.0,91.0
162,48.806893612500005,49.3292147625,63.0,83.0
163,49.6104646125,49.771178812500004,58.0,96.0
164,49.342607612500004,49.940821579166666,55.0,89.0
165,48.806893612500005,50.16403574583334,39.0,97.0
166,49.074750612500004,50.19863394166667,46.0,80.0
167,50.1461786125,50.301312458333335,55.0,90.0
168,50.1461786125,50.42631239166667,58.0,96.0
169,50.1461786125,50.4374731,63.0,91.0
170,50.9497496125,51.28233872083334,53.0,80.0
171,50.9497496125,51.55800821666667,60.0,86.0
172,51.753320612500005,52.08032936666667,60.0,86.0
173,51.4854636125,52.280106045833335,53.0,90.0
174,51.2176066125,52.38055242083333,48.0,90.0
175,50.9497496125,52.43189167916667,41.0,91.0
176,52.289034612500004,52.6372487125,60.0,88.0
177,52.5568916125,52.67965940416667,53.0,93.0
178,52.021177612500004,52.72876652083333,65.0,95.0
179,53.0926056125,53.40622151666667,60.0,85.0
180,53.0926056125,53.59706962916667,63.0,83.0
181,53.6283196125,53.762248112500004,60.0,88.0
182,53.8961766125,54.01336405,63.0,92.0
183,53.8961766125,54.31247103333334,60.0,92.0
184,53.8961766125,54.400640629166666,67.0,90.0
185,53.3604626125,54.693051187500004,55.0,89.0
186,53.0926056125,54.696399400000004,48.0,94.0
187,54.4318906125,54.724301170833336,63.0,104.0
188,54.699747612500005,54.997738525,60.0,90.0
189,55.2354616125,55.587023925000004,63.0,97.0
190,55.7711756125,55.91514875,56.0,94.0
191,55.5033186125,56.176309325,51.0,83.0
192,56.0390326125,56.425193120833335,63.0,90.0
193,56.0390326125,56.428541333333335,56.0,96.0
194,55.2354616125,56.575862683333334,44.0,92.0
195,56.5747466125,56.83367504583334,63.0,91.0
196,56.5747466125,56.84371968333333,56.0,95.0
197,57.914031612500004,58.0881386625,55.0,94.0
198,58.1818886125,58.61269195416667,55.0,85.0
199,58.1818886125,58.61604016666667,62.0,93.0
200,58.7176026125,58.82697755416667,62.0,90.0
201,58.7176026125,58.83479005,55.0,93.0
202,58.7176026125,58.94751320416667,67.0,90.0
203,57.646174612500005,59.0122453125,50.0,90.0
204,57.3783176125,59.193048787500004,43.0,97.0
205,59.5211736125,59.778985975000005,67.0,91.0
206,59.5211736125,59.7890306125,71.0,91.0
207,59.5211736125,59.81693238333334,74.0,99.0
208,59.7890306125,60.090369737500005,50.0,88.0
209,59.5211736125,60.111575083333335,43.0,96.0
210,60.0568876125,60.17519112083333,67.0,90.0
211,60.324744612500005,60.598181966666665,79.0,90.0
212,60.324744612500005,60.613806958333335,74.0,106.0
213,60.324744612500005,60.638360516666665,71.0,99.0
214,60.324744612500005,60.67407478333334,67.0,90.0
215,60.860458612500004,60.937467500000004,74.0,93.0
216,60.860458612500004,60.940815712500005,67.0,84.0
217,61.1283156125,61.265592325,67.0,95.0
218,61.1283156125,61.29461016666667,74.0,104.0
219,61.3961726125,61.64282426666667,67.0,93.0
220,60.324744612500005,61.707556375,43.0,92.0
221,61.6640296125,61.94974374583334,60.0,90.0
222,61.6640296125,62.00777942916667,67.0,91.0
223,62.1997436125,62.32251140416667,60.0,99.0
224,61.6640296125,62.551305925,36.0,90.0
225,61.9318866125,62.56693091666667,43.0,78.0
226,62.4676006125,63.10934134166667,60.0,95.0
227,62.4676006125,63.1305466875,63.0,104.0
228,63.0033146125,63.30576980833334,48.0,91.0
229,63.271171612500005,63.3649215625,60.0,95.0
230,63.271171612500005,63.593716083333334,63.0,106.0
231,63.271171612500005,63.63054642083333,67.0,90.0
232,63.539028612500005,63.83925166666667,60.0,91.0
233,63.806885612500004,64.04572477083333,63.0,95.0
234,64.3425996125,64.47094775833334,56.0,92.0
235,64.0747426125,64.73322440416666,51.0,83.0
236,63.806885612500004,64.83478685,44.0,97.0
237,64.6104566125,64.96983142083333,63.0,92.0
238,64.6104566125,64.97429570416666,56.0,96.0
239,64.87831361250001,65.25108127083334,51.0,90.0
240,65.1461706125,65.4006347625,56.0,104.0
241,65.4140276125,65.65733105416668,63.0,95.0
242,65.6818846125,65.7856792,56.0,92.0
243,65.9497416125,66.15286650416667,53.0,95.0
244,65.9497416125,66.2946075,58.0,87.0
245,66.2175986125,66.54795557916667,53.0,91.0
246,66.4854556125,66.94862500833334,65.0,92.0
247,66.7533126125,67.10041064166667,53.0,93.0
248,67.0211696125,67.1082231375,58.0,92.0
249,65.9497416125,67.37831227916666,46.0,99.0
250,67.2890266125,67.51447292083334,53.0,88.0
251,67.5568836125,67.680767475,46.0,86.0
252,67.2890266125,67.79683884166667,58.0,96.0
253,67.2890266125,67.83478525,62.0,94.0
254,67.82474061250001,67.948624475,53.0,90.0
255,68.0925976125,68.3805438875,55.0,87.0
256,68.0925976125,68.64393660416667,58.0,96.0
257,68.6283116125,68.75665975833334,55.0,91.0
258,68.3604546125,69.04572210416667,46.0,81.0
259,68.8961686125,69.18969524166667,55.0,95.0
260,68.8961686125,69.41625762083333,63.0,92.0
261,68.8961686125,69.4720611625,58.0,99.0
262,69.4318826125,69.73545387916667,55.0,92.0
263,68.0925976125,69.770052075,39.0,94.0
264,69.1640256125,69.7934895625,46.0,91.0
265,69.6997396125,70.03344479166667,58.0,79.0
266,69.6997396125,70.03567693333333,62.0,92.0
267,69.9675966125,70.12273045833334,55.0,91.0
268,70.2354536125,70.7376854875,63.0,101.0
269,70.77116761250001,70.91514075,60.0,92.0
270,70.5033106125,71.12496206666667,55.0,90.0
271,71.0390246125,71.34259587916667,60.0,92.0
272,71.0390246125,71.39505120833334,63.0,95.0
273,71.0390246125,71.5077743625,67.0,90.0
274,71.5747386125,71.74438137916667,60.0,90.0
275,70.2354536125,71.8827741625,48.0,96.0
276,71.3068816125,71.9564348375,55.0,88.0
277,71.8425956125,72.21313112916667,65.0,99.0
278,72.1104526125,72.35933640833333,60.0,91.0
279,72.3783096125,72.73210406666666,63.0,94.0
280,72.9140236125,73.02228248333334,56.0,93.0
281,72.6461666125,73.2890234125,51.0,82.0
282,72.3783096125,73.3392466,44.0,99.0
283,73.1818806125,73.506657225,56.0,99.0
284,73.1818806125,73.66960356666667,63.0,93.0
285,73.71759461250001,73.87719274166668,56.0,96.0
286,73.4497376125,74.03232658750001,51.0,87.0
287,73.9854516125,74.26223717916668,63.0,96.0
288,74.2533086125,74.39728175,56.0,95.0
289,74.5211656125,74.98656715,62.0,91.0
290,74.7890226125,75.14281706666667,53.0,90.0
291,75.0568796125,75.15955812916667,58.0,91.0
292,74.5211656125,75.44638833333333,46.0,91.0
293,75.3247366125,75.6260757375,53.0,90.0
294,75.3247366125,75.70420069583334,58.0,95.0
295,75.3247366125,75.79571850416667,62.0,93.0
296,75.5925936125,75.9475041375,46.0,86.0
297,75.8604506125,76.00553982083333,53.0,95.0
298,76.12830761250001,76.30353073333333,58.0,104.0
299,76.66402161250001,76.84036080416666,55.0,79.0
300,76.66402161250001,77.00777142916667,60.0,91.0
301,76.9318786125,77.27228021666667,55.0,90.0
302,77.1997356125,77.30799448333333,60.0,84.0
303,77.4675926125,77.68076214166666,55.0,90.0
304,77.4675926125,78.04125302083334,60.0,95.0
305,77.4675926125,78.07473514583333,63.0,92.0
306,78.0033066125,78.1573243875,55.0,91.0
307,76.66402161250001,78.46424386666666,48.0,99.0
308,78.2711636125,78.83812759583334,60.0,92.0
309,78.8068776125,78.83812759583334,60.0,90.0
310,78.5390206125,78.85598472916666,55.0,93.0
311,78.2711636125,78.86491329583333,63.0,95.0
312,78.8068776125,79.15062742916668,67.0,91.0
313,79.3425916125,79.46535940416666,60.0,99.0
314,78.8068776125,79.69415392500001,36.0,90.0
315,79.07473461250001,79.70977891666666,43.0,78.0
316,79.61044861250001,80.25218934166666,60.0,95.0
317,79.61044861250001,80.2733946875,63.0,104.0
318,80.1461626125,80.44861780833334,48.0,91.0
319,80.4140196125,80.5077695625,60.0,95.0
320,80.4140196125,80.73656408333333,63.0,106.0
321,80.4140196125,80.77339442083334,67.0,90.0
322,80.6818766125,80.98209966666667,60.0,91.0
323,80.9497336125,81.18857277083333,63.0,95.0
324,81.4854476125,81.61379575833334,56.0,92.0
325,81.2175906125,81.87607240416666,51.0,83.0
326,80.9497336125,81.97763485,44.0,97.0
327,81.7533046125,82.11267942083333,63.0,92.0
328,81.7533046125,82.11714370416666,56.0,96.0
329,82.02116161250001,82.39392927083334,51.0,90.0
330,82.2890186125,82.5434827625,56.0,104.0
331,82.55687561250001,82.80017905416666,63.0,95.0
332,82.8247326125,82.9285272,56.0,92.0
333,83.0925896125,83.29571450416667,53.0,95.0
334,83.0925896125,83.4374555,58.0,87.0
335,83.3604466125,83.69080357916667,53.0,91.0
336,83.6283036125,84.09147300833334,65.0,92.0
337,83.8961606125,84.24325864166667,53.0,93.0
338,84.1640176125,84.2510711375,58.0,92.0
339,83.0925896125,84.52116027916666,46.0,99.0
340,84.4318746125,84.65732092083334,53.0,88.0
341,84.6997316125,84.823615475,46.0,86.0
342,84.4318746125,84.93968684166667,58.0,96.0
343,84.4318746125,84.97763325,62.0,94.0
344,84.96758861250001,85.091472475,53.0,90.0
345,85.2354456125,85.5233918875,55.0,87.0
346,85.2354456125,85.78678460416667,58.0,96.0
347,85.7711596125,85.89950775833334,55.0,91.0
348,85.50330261250001,86.18857010416667,46.0,81.0
349,86.0390166125,86.33254324166667,55.0,95.0
350,86.0390166125,86.55910562083334,63.0,92.0
351,86.0390166125,86.6149091625,58.0,99.0
352,86.5747306125,86.87830187916667,55.0,92.0
353,85.2354456125,86.912900075,39.0,94.0
354,86.3068736125,86.9363375625,46.0,91.0
355,86.8425876125,87.17629279166667,58.0,79.0
356,86.8425876125,87.17852493333334,62.0,92.0
357,87.1104446125,87.26557845833334,55.0,91.0
358,87.3783016125,87.8805334875,63.0,101.0
359,87.91401561250001,88.05798875,60.0,92.0
360,87.6461586125,88.26781006666667,55.0,90.0
361,88.1818726125,88.48544387916667,60.0,92.0
362,88.1818726125,88.53789920833334,63.0,95.0
363,88.1818726125,88.6506223625,67.0,90.0
364,88.7175866125,88.88722937916667,60.0,90.0
365,87.3783016125,89.0256221625,48.0,96.0
366,88.44972961250001,89.0992828375,55.0,88.0
367,88.9854436125,89.35597912916667,65.0,99.0
368,89.2533006125,89.50218440833333,60.0,91.0
369,89.5211576125,89.87495206666667,63.0,94.0
370,90.0568716125,90.16513048333334,56.0,93.0
371,89.7890146125,90.4318714125,51.0,82.0
372,89.5211576125,90.4820946,44.0,99.0
373,90.3247286125,90.649505225,56.0,99.0
374,90.3247286125,90.81245156666667,63.0,93.0
375,90.86044261250001,91.02004074166668,56.0,96.0
376,90.5925856125,91.17517458750001,51.0,87.0
377,91.1282996125,91.40508517916668,63.0,96.0
378,91.39615661250001,91.54012975,56.0,95.0
379,91.6640136125,92.12941515,62.0,91.0
380,91.9318706125,92.28566506666667,53.0,90.0
381,92.1997276125,92.30240612916667,58.0,91.0
382,91.6640136125,92.58923633333333,46.0,91.0
383,92.4675846125,92.7689237375,53.0,90.0
384,92.4675846125,92.84704869583334,58.0,95.0
385,92.4675846125,92.93856650416667,62.0,93.0
386,92.7354416125,93.0903521375,46.0,86.0
387,93.0032986125,93.14838782083334,53.0,95.0
388,93.2711556125,93.44637873333333,58.0,104.0
389,93.80686961250001,93.98320880416667,55.0,79.0
390,93.80686961250001,94.15061942916667,60.0,91.0
391,94.0747266125,94.41512821666667,55.0,90.0
392,94.34258361250001,94.45084248333333,60.0,84.0
393,94.6104406125,94.82361014166666,55.0,90.0
394,94.6104406125,95.18410102083334,60.0,95.0
395,94.6104406125,95.21758314583333,63.0,92.0
396,95.1461546125,95.3001723875,55.0,91.0
397,93.80686961250001,95.60709186666666,48.0,99.0
398,95.4140116125,95.98097559583334,60.0,92.0
399,95.9497256125,95.98097559583334,60.0,85.0
400,95.6818686125,95.99883272916666,55.0,93.0
401,95.9497256125,95.99883272916666,55.0,85.0
402,95.4140116125,96.00776129583333,63.0,95.0
403,95.9497256125,97.10709106666667,48.0,87.0
404,98.0925816125,98.69191165000001,63.0,79.0
405,98.0925816125,99.38164342500001,44.0,87.0
406,98.6282956125,99.38499163750001,56.0,74.0
407,98.3604386125,99.39503627500001,51.0,78.0
408,98.8961526125,99.435214825,63.0,78.0
409,100.23543761250001,101.06802645416667,62.0,86.0
410,100.7711516125,101.10374072083334,58.0,85.0
411,101.0390086125,101.61155295,65.0,88.0
412,100.5032946125,101.7823117875,53.0,69.0
413,100.23543761250001,101.85708853333334,46.0,86.0
414,101.5747226125,101.86713317083334,62.0,88.0
415,101.8425796125,102.00775809583334,58.0,83.0
416,102.3782936125,102.88610584166668,58.0,87.0
417,102.9140076125,103.27338242083334,55.0,87.0
418,103.18186461250001,103.30463240416667,58.0,89.0
419,102.64615061250001,103.5568644125,46.0,76.0
420,102.3782936125,103.57137333333334,39.0,86.0
421,103.4497216125,103.7510607375,63.0,100.0
422,103.4497216125,103.80239999583334,55.0,88.0
423,103.4497216125,103.83588212083333,58.0,97.0
424,103.7175786125,103.8983820875,46.0,90.0
425,103.9854356125,104.2499444,55.0,82.0
426,103.9854356125,104.26556939166667,62.0,89.0
427,104.5211496125,104.7957030375,53.0,84.0
428,104.5211496125,105.05239932916668,56.0,86.0
429,105.05686361250001,105.21199745833334,53.0,86.0
430,104.7890066125,105.41065806666667,48.0,78.0
431,105.3247206125,105.72204182916667,60.0,89.0
432,105.3247206125,105.75775609583334,53.0,93.0
433,105.59257761250001,105.9407917125,48.0,86.0
434,104.5211496125,106.07918449583333,41.0,89.0
435,105.8604346125,106.17293444583333,56.0,88.0
436,105.8604346125,106.20083621666667,60.0,90.0
437,106.1282916125,106.25329154583333,53.0,87.0
438,105.8604346125,106.29012188333334,65.0,87.0
439,106.6640056125,106.80574660833334,55.0,86.0
440,106.6640056125,107.15842499166666,63.0,89.0
441,106.9318626125,107.243246375,55.0,86.0
442,107.1997196125,107.50329087916667,60.0,86.0
443,107.4675766125,107.58476405,55.0,82.0
444,106.6640056125,107.819138925,48.0,88.0
445,107.7354336125,107.93744243333333,55.0,92.0
446,107.7354336125,108.0434691625,62.0,92.0
447,108.00329061250001,108.17404945,48.0,87.0
448,108.53900461250001,108.6394509875,55.0,85.0
449,108.2711476125,108.6595402625,63.0,103.0
450,109.0747186125,109.53788800833334,62.0,91.0
451,109.3425756125,109.6372183125,65.0,87.0
452,109.6104326125,109.74994146666667,68.0,100.0
453,108.8068616125,110.04011988333333,38.0,92.0
454,109.8782896125,110.08922700000001,62.0,86.0
455,109.8782896125,110.13386983333334,68.0,80.0
456,109.8782896125,110.27226261666667,72.0,59.0
457,110.1461466125,110.27561082916667,38.0,91.0
458,110.4140036125,110.53119105,62.0,88.0
459,110.4140036125,110.87717300833334,68.0,88.0
460,110.6818606125,110.99212830416667,62.0,87.0
461,111.48543161250001,111.83810999583334,55.0,92.0
462,111.7532886125,112.3224847375,62.0,88.0
463,111.2175746125,112.6372167125,50.0,81.0
464,112.2890026125,112.66065420000001,67.0,88.0
465,110.94971761250001,112.7041809625,43.0,91.0
466,112.5568596125,112.72092202500001,55.0,93.0
467,113.0925736125,115.17292964583334,59.0,76.0
468,113.0925736125,115.18074214166667,55.0,76.0
469,113.0925736125,115.18632249583334,43.0,86.0
470,113.0925736125,115.18632249583334,62.0,81.0
471,115.2354296125,115.586991925,60.0,87.0
472,115.2354296125,115.87940248333334,67.0,88.0
473,115.7711436125,115.94301852083333,60.0,91.0
474,116.0390006125,116.38051828750001,63.0,104.0
475,115.5032866125,116.66400027916667,55.0,82.0
476,115.2354296125,116.7421252375,48.0,90.0
477,116.5747146125,116.8660091,60.0,90.0
478,116.5747146125,117.15060716250001,63.0,106.0
479,116.5747146125,117.16623215416666,67.0,90.0
480,117.1104286125,117.328062425,60.0,90.0
481,117.37828561250001,117.93074067500001,67.0,90.0
482,117.37828561250001,117.95082995,63.0,91.0
483,117.9139996125,118.23542801250001,60.0,89.0
484,118.1818566125,118.53453499583334,63.0,97.0
485,117.37828561250001,118.79904378333333,44.0,99.0
486,117.6461426125,118.8113205625,51.0,81.0
487,118.7175706125,118.93520442500001,60.0,90.0
488,118.7175706125,119.05015972083334,63.0,101.0
489,118.7175706125,119.10038290833333,67.0,91.0
490,119.5211416125,119.83364144583334,58.0,90.0
491,119.5211416125,120.12047165,62.0,90.0
492,120.0568556125,120.18408768750001,58.0,85.0
493,120.32471261250001,120.689667775,58.0,95.0
494,120.32471261250001,120.729846325,65.0,91.0
495,119.78899861250001,121.08252470833334,53.0,78.0
496,120.8604266125,121.10038184166667,58.0,92.0
497,119.5211416125,121.12716754166667,46.0,92.0
498,120.8604266125,121.25663175833334,62.0,91.0
499,121.6639976125,122.18631876250001,63.0,83.0
500,122.4675686125,122.6282828125,58.0,96.0
501,122.19971161250001,122.79792557916667,55.0,89.0
502,121.6639976125,123.02113974583334,39.0,97.0
503,121.9318546125,123.05573794166666,46.0,80.0
504,123.0032826125,123.15841645833333,55.0,90.0
505,123.0032826125,123.28341639166668,58.0,96.0
506,123.0032826125,123.2945771,63.0,91.0
507,123.8068536125,124.13944272083334,53.0,80.0
508,123.8068536125,124.41511221666667,60.0,86.0
509,124.6104246125,124.93743336666667,60.0,86.0
510,124.3425676125,125.13721004583334,53.0,90.0
511,124.0747106125,125.23765642083333,48.0,90.0
512,123.8068536125,125.28899567916667,41.0,91.0
513,125.14613861250001,125.4943527125,60.0,88.0
514,125.4139956125,125.53676340416668,53.0,93.0
515,124.8782816125,125.58587052083334,65.0,95.0
516,125.9497096125,126.26332551666667,60.0,85.0
517,125.9497096125,126.45417362916668,63.0,83.0
518,126.4854236125,126.61935211250001,60.0,88.0
519,126.7532806125,126.87046805,63.0,92.0
520,126.7532806125,127.16957503333333,60.0,92.0
521,126.7532806125,127.25774462916667,67.0,90.0
522,126.21756661250001,127.55015518750001,55.0,89.0
523,125.9497096125,127.55350340000001,48.0,94.0
524,127.2889946125,127.58140517083334,63.0,104.0
525,127.5568516125,127.85484252500001,60.0,90.0
526,128.0925656125,128.444127925,63.0,97.0
527,128.6282796125,128.77225275,56.0,94.0
528,128.3604226125,129.033413325,51.0,83.0
529,128.89613661250002,129.28229712083333,63.0,90.0
530,128.89613661250002,129.28564533333335,56.0,96.0
531,128.0925656125,129.43296668333335,44.0,92.0
532,129.4318506125,129.69077904583332,63.0,91.0
533,129.4318506125,129.70082368333334,56.0,95.0
534,130.77113561250002,130.9452426625,55.0,94.0
535,131.0389926125,131.46979595416667,55.0,85.0
536,131.0389926125,131.47314416666666,62.0,93.0
537,131.5747066125,131.68408155416668,62.0,90.0
538,131.5747066125,131.69189405,55.0,93.0
539,131.5747066125,131.80461720416668,67.0,90.0
540,130.5032786125,131.8693493125,50.0,90.0
541,130.2354216125,132.0501527875,43.0,97.0
542,132.3782776125,132.636089975,67.0,91.0
543,132.3782776125,132.6461346125,71.0,91.0
544,132.3782776125,132.67403638333334,74.0,99.0
545,132.6461346125,132.9474737375,50.0,88.0
546,132.3782776125,132.96867908333334,43.0,96.0
547,132.9139916125,133.03229512083334,67.0,90.0
548,133.1818486125,133.45528596666668,79.0,90.0
549,133.1818486125,133.47091095833335,74.0,106.0
550,133.1818486125,133.49546451666666,71.0,99.0
551,133.1818486125,133.53117878333333,67.0,90.0
552,133.71756261250002,133.79457150000002,74.0,93.0
553,133.71756261250002,133.7979197125,67.0,84.0
554,133.9854196125,134.122696325,67.0,95.0
555,133.9854196125,134.15171416666666,74.0,104.0
556,134.2532766125,134.49992826666667,67.0,93.0
557,133.1818486125,134.56466037500002,43.0,92.0
558,134.5211336125,134.80684774583332,60.0,90.0
559,134.5211336125,134.86488342916667,67.0,91.0
560,135.0568476125,135.17961540416667,60.0,99.0
561,134.5211336125,135.408409925,36.0,90.0
562,134.78899061250002,135.42403491666667,43.0,78.0
563,135.3247046125,135.96644534166668,60.0,95.0
564,135.3247046125,135.9876506875,63.0,104.0
565,135.8604186125,136.16287380833333,48.0,91.0
566,136.1282756125,136.2220255625,60.0,95.0
567,136.1282756125,136.45082008333333,63.0,106.0
568,136.1282756125,136.48765042083335,67.0,90.0
569,136.3961326125,136.69635566666668,60.0,91.0
570,136.66398961250002,136.90282877083334,63.0,95.0
571,137.1997036125,137.32805175833334,56.0,92.0
572,136.9318466125,137.59032840416668,51.0,83.0
573,136.66398961250002,137.69189085,44.0,97.0
574,137.4675606125,137.82693542083334,63.0,92.0
575,137.4675606125,137.83139970416667,56.0,96.0
576,137.73541761250002,138.10818527083333,51.0,90.0
577,138.0032746125,138.2577387625,56.0,104.0
578,138.2711316125,138.51443505416668,63.0,95.0
579,138.5389886125,138.6427832,56.0,92.0
580,138.8068456125,139.00997050416666,53.0,95.0
581,138.8068456125,139.1517115,58.0,87.0
582,139.0747026125,139.40505957916668,53.0,91.0
583,139.3425596125,139.80572900833334,65.0,92.0
584,139.61041661250002,139.95751464166668,53.0,93.0
585,139.8782736125,139.9653271375,58.0,92.0
586,138.8068456125,140.23541627916669,46.0,99.0
587,140.1461306125,140.37157692083335,53.0,88.0
588,140.4139876125,140.537871475,46.0,86.0
589,140.1461306125,140.65394284166666,58.0,96.0
590,140.1461306125,140.69188925,62.0,94.0
591,140.68184461250002,140.805728475,53.0,90.0
592,140.9497016125,141.2376478875,55.0,87.0
593,140.9497016125,141.50104060416666,58.0,96.0
594,141.4854156125,141.61376375833333,55.0,91.0
595,141.2175586125,141.90282610416668,46.0,81.0
596,141.7532726125,142.04679924166666,55.0,95.0
597,141.7532726125,142.27336162083333,63.0,92.0
598,141.7532726125,142.3291651625,58.0,99.0
599,142.2889866125,142.59255787916666,55.0,92.0
600,140.9497016125,142.62715607500002,39.0,94.0
601,142.0211296125,142.6505935625,46.0,91.0
602,142.55684361250002,142.89054879166667,58.0,79.0
603,142.55684361250002,142.89278093333334,62.0,92.0
604,142.8247006125,142.97983445833333,55.0,91.0
605,143.0925576125,143.5947894875,63.0,101.0
606,143.62827161250001,143.77224475,60.0,92.0
607,143.3604146125,143.98206606666668,55.0,90.0
608,143.8961286125,144.19969987916667,60.0,92.0
609,143.8961286125,144.25215520833333,63.0,95.0
610,143.8961286125,144.3648783625,67.0,90.0
611,144.4318426125,144.60148537916666,60.0,90.0
612,143.0925576125,144.7398781625,48.0,96.0
613,144.1639856125,144.8135388375,55.0,88.0
614,144.6996996125,145.07023512916666,65.0,99.0
615,144.9675566125,145.21644040833334,60.0,91.0
616,145.2354136125,145.58920806666666,63.0,94.0
617,145.7711276125,145.87938648333335,56.0,93.0
618,145.50327061250002,146.1461274125,51.0,82.0
619,145.2354136125,146.19635060000002,44.0,99.0
620,146.0389846125,146.363761225,56.0,99.0
621,146.0389846125,146.52670756666666,63.0,93.0
622,146.57469861250001,146.73429674166667,56.0,96.0
623,146.3068416125,146.88943058750002,51.0,87.0
624,146.8425556125,147.11934117916667,63.0,96.0
625,147.1104126125,147.25438575,56.0,95.0
626,147.3782696125,147.84367115,62.0,91.0
627,147.6461266125,147.99992106666667,53.0,90.0
628,147.9139836125,148.01666212916666,58.0,91.0
629,147.3782696125,148.30349233333334,46.0,91.0
630,148.1818406125,148.4831797375,53.0,90.0
631,148.1818406125,148.56130469583334,58.0,95.0
632,148.1818406125,148.65282250416666,62.0,93.0
633,148.44969761250002,148.8046081375,46.0,86.0
634,148.7175546125,148.86264382083334,53.0,95.0
635,148.9854116125,149.16063473333332,58.0,104.0
636,149.52112561250001,149.69746480416669,55.0,79.0
637,149.52112561250001,149.86487542916666,60.0,91.0
638,149.7889826125,150.12938421666666,55.0,90.0
639,150.0568396125,150.16509848333334,60.0,84.0
640,150.3246966125,150.53786614166668,55.0,90.0
641,150.3246966125,150.89835702083334,60.0,95.0
642,150.3246966125,150.93183914583335,63.0,92.0
643,150.8604106125,151.0144283875,55.0,91.0
644,149.52112561250001,151.32134786666668,48.0,99.0
645,151.1282676125,151.69523159583335,60.0,92.0
646,151.6639816125,151.69523159583335,60.0,90.0
647,151.39612461250002,151.71308872916669,55.0,93.0
648,151.1282676125,151.72201729583333,63.0,95.0
649,151.6639816125,152.00773142916668,67.0,91.0
650,152.1996956125,152.32246340416668,60.0,99.0
651,151.6639816125,152.55125792500002,36.0,90.0
652,151.9318386125,152.56688291666669,43.0,78.0
653,152.46755261250001,153.10929334166667,60.0,95.0
654,152.46755261250001,153.1304986875,63.0,104.0
655,153.0032666125,153.30572180833335,48.0,91.0
656,153.2711236125,153.3648735625,60.0,95.0
657,153.2711236125,153.59366808333334,63.0,106.0
658,153.2711236125,153.63049842083333,67.0,90.0
659,153.5389806125,153.83920366666666,60.0,91.0
660,153.8068376125,154.04567677083332,63.0,95.0
661,154.34255161250002,154.47089975833333,56.0,92.0
662,154.0746946125,154.73317640416667,51.0,83.0
663,153.8068376125,154.83473885,44.0,97.0
664,154.6104086125,154.96978342083335,63.0,92.0
665,154.6104086125,154.97424770416666,56.0,96.0
666,154.8782656125,155.25103327083335,51.0,90.0
667,155.1461226125,155.4005867625,56.0,104.0
668,155.41397961250001,155.65728305416667,63.0,95.0
669,155.6818366125,155.7856312,56.0,92.0
670,155.9496936125,156.15281850416667,53.0,95.0
671,155.9496936125,156.2945595,58.0,87.0
672,156.2175506125,156.54790757916666,53.0,91.0
673,156.4854076125,156.94857700833333,65.0,92.0
674,156.7532646125,157.10036264166666,53.0,93.0
675,157.0211216125,157.1081751375,58.0,92.0
676,155.9496936125,157.37826427916667,46.0,99.0
677,157.28897861250002,157.51442492083333,53.0,88.0
678,157.5568356125,157.68071947500002,46.0,86.0
679,157.28897861250002,157.79679084166668,58.0,96.0
680,157.28897861250002,157.83473725000002,62.0,94.0
681,157.8246926125,157.948576475,53.0,90.0
682,158.0925496125,158.38049588750002,55.0,87.0
683,158.0925496125,158.64388860416668,58.0,96.0
684,158.6282636125,158.75661175833335,55.0,91.0
685,158.36040661250001,159.04567410416666,46.0,81.0
686,158.8961206125,159.18964724166668,55.0,95.0
687,158.8961206125,159.41620962083334,63.0,92.0
688,158.8961206125,159.4720131625,58.0,99.0
689,159.4318346125,159.73540587916668,55.0,92.0
690,158.0925496125,159.770004075,39.0,94.0
691,159.1639776125,159.7934415625,46.0,91.0
692,159.6996916125,160.03339679166666,58.0,79.0
693,159.6996916125,160.03562893333333,62.0,92.0
694,159.9675486125,160.12268245833334,55.0,91.0
695,160.23540561250002,160.7376374875,63.0,101.0
696,160.7711196125,160.91509275,60.0,92.0
697,160.5032626125,161.12491406666666,55.0,90.0
698,161.0389766125,161.34254787916666,60.0,92.0
699,161.0389766125,161.39500320833335,63.0,95.0
700,161.0389766125,161.5077263625,67.0,90.0
701,161.5746906125,161.74433337916668,60.0,90.0
702,160.23540561250002,161.8827261625,48.0,96.0
703,161.30683361250001,161.9563868375,55.0,88.0
704,161.8425476125,162.21308312916668,65.0,99.0
705,162.1104046125,162.35928840833333,60.0,91.0
706,162.3782616125,162.73205606666667,63.0,94.0
707,162.9139756125,163.02223448333334,56.0,93.0
708,162.6461186125,163.2889754125,51.0,82.0
709,162.3782616125,163.3391986,44.0,99.0
710,163.18183261250002,163.506609225,56.0,99.0
711,163.18183261250002,163.66955556666667,63.0,93.0
712,163.7175466125,163.87714474166668,56.0,96.0
713,163.4496896125,164.0322785875,51.0,87.0
714,163.9854036125,164.26218917916668,63.0,96.0
715,164.25326061250001,164.39723375,56.0,95.0
716,164.5211176125,164.98651915,62.0,91.0
717,164.7889746125,165.14276906666666,53.0,90.0
718,165.0568316125,165.15951012916668,58.0,91.0
719,164.5211176125,165.44634033333332,46.0,91.0
720,165.3246886125,165.6260277375,53.0,90.0
721,165.3246886125,165.70415269583333,58.0,95.0
722,165.3246886125,165.79567050416668,62.0,93.0
723,165.5925456125,165.9474561375,46.0,86.0
724,165.8604026125,166.00549182083333,53.0,95.0
725,166.12825961250002,166.30348273333334,58.0,104.0
726,166.6639736125,166.84031280416667,55.0,79.0
727,166.6639736125,167.00772342916667,60.0,91.0
728,166.9318306125,167.27223221666668,55.0,90.0
729,167.19968761250001,167.30794648333332,60.0,84.0
730,167.4675446125,167.68071414166667,55.0,90.0
731,167.4675446125,168.04120502083333,60.0,95.0
732,167.4675446125,168.07468714583334,63.0,92.0
733,168.00325861250002,168.15727638750002,55.0,91.0
734,166.6639736125,168.46419586666667,48.0,99.0
735,168.2711156125,168.83807959583334,60.0,92.0
736,168.5389726125,168.85593672916667,55.0,93.0
737,168.2711156125,168.86486529583334,63.0,95.0
738,168.8068296125,168.86486529583334,63.0,99.0
739,169.3425436125,169.55013278750002,55.0,95.0
740,169.6104006125,169.90615938333335,62.0,90.0
741,169.07468661250002,170.17736459583332,43.0,85.0
742,168.8068296125,170.30124845833333,36.0,90.0
743,170.4139716125,170.53897154583333,43.0,95.0
744,170.1461146125,170.68740896666668,63.0,104.0
745,170.6818286125,170.899462425,55.0,96.0
746,170.94968561250002,171.46754247916667,60.0,91.0
747,171.4853996125,171.62937275000002,56.0,90.0
748,171.7532566125,171.88048868750002,63.0,101.0
749,171.2175426125,172.39499734166668,51.0,87.0
750,170.94968561250002,172.42401518333335,44.0,101.0
751,172.2889706125,172.6170954375,56.0,94.0
752,172.5568276125,172.67401505,51.0,95.0
753,172.8246846125,172.93852383750001,56.0,93.0
754,173.0925416125,173.36932717916667,58.0,87.0
755,173.6282556125,173.7621841125,58.0,95.0
756,173.3603986125,174.00883576666666,53.0,92.0
757,173.0925416125,174.49879086250002,46.0,95.0
758,173.89611261250002,174.50437121666667,58.0,91.0
759,173.89611261250002,174.6929871875,62.0,92.0
760,174.4318266125,174.73763002083334,53.0,87.0
761,174.6996836125,174.81129069583335,46.0,101.0
762,175.2353976125,175.54120102083334,55.0,86.0
763,175.2353976125,175.80794195000001,58.0,80.0
764,175.7711116125,176.10704893333335,55.0,90.0
765,176.0389686125,176.15615605,58.0,95.0
766,175.5032546125,176.47200409583334,46.0,78.0
767,176.3068256125,176.61262902083334,63.0,99.0
768,175.2353976125,176.6516915,39.0,96.0
769,176.3068256125,176.65950399583335,58.0,90.0
770,176.5746826125,176.74097716666668,55.0,93.0
771,176.84253961250002,177.12490553333333,62.0,106.0
772,177.1103966125,177.274459025,55.0,91.0
773,177.3782536125,177.54343209583334,55.0,85.0
774,177.3782536125,177.77445875833334,63.0,97.0
775,177.6461106125,178.011065775,55.0,83.0
776,177.91396761250002,178.10369965416666,60.0,86.0
777,178.1818246125,178.33695845833333,62.0,94.0
778,178.7175386125,178.85369925416668,63.0,99.0
779,177.3782536125,178.90280637083333,48.0,94.0
780,179.2532526125,179.484279275,55.0,91.0
781,179.5211096125,179.81686838333334,63.0,93.0
782,180.0568236125,180.1907521125,56.0,84.0
783,180.3246806125,180.4586091125,62.0,92.0
784,179.78896661250002,180.94521599583334,51.0,88.0
785,180.86039461250002,180.99543918333333,63.0,97.0
786,179.5211096125,181.03226952083335,44.0,96.0
787,181.1282516125,181.23651048333335,51.0,91.0
788,181.6639656125,181.9552601,58.0,84.0
789,181.6639656125,182.09811716666667,62.0,92.0
790,182.1996796125,182.3269116875,58.0,99.0
791,181.9318226125,182.618206175,53.0,87.0
792,181.6639656125,182.79008108333335,46.0,95.0
793,182.4675366125,183.10258091666668,58.0,96.0
794,183.0032506125,183.19856300833334,53.0,86.0
795,182.4675366125,183.27892010833335,62.0,96.0
796,183.2711076125,183.5914199416667,58.0,97.0
797,183.5389646125,183.70414309583333,62.0,90.0
798,183.80682161250002,183.90168763333335,36.0,91.0
799,183.80682161250002,184.09365181666666,55.0,87.0
800,183.80682161250002,184.19633033333335,60.0,91.0
801,184.3425356125,184.7141872,55.0,90.0
802,184.6103926125,184.9519102875,63.0,91.0
803,184.6103926125,184.98204420000002,60.0,91.0
804,185.1461066125,185.43628502916667,62.0,92.0
805,185.4139636125,185.7153027375,63.0,99.0
806,185.68182061250002,185.91507941666669,62.0,94.0
807,184.0746786125,185.95525796666666,48.0,86.0
808,184.8782496125,185.96865081666667,55.0,88.0
809,186.43628449583335,186.6427576,58.0,80.0
810,186.71195399166666,187.0478913125,58.0,59.0
811,185.91731155833335,187.841417675,46.0,89.0
812,186.1572667875,187.88717657916666,53.0,66.0
813,186.70748970833333,192.10257611666668,65.0,75.0
814,192.98650421666667,193.32020939583333,60.0,84.0
815,193.26328978333333,193.7677538,62.0,85.0
816,192.72087935833335,193.84029840416667,55.0,80.0
817,192.48538841250001,193.89275373333334,48.0,89.0
818,193.76552165833334,194.00770902916668,63.0,75.0
819,194.95748530833333,195.89944909166667,56.0,78.0
820,195.26552085833333,195.9407437125,60.0,77.0
821,194.75324434583334,195.99877939583334,51.0,78.0
822,194.48985162916668,196.01217224583334,44.0,86.0
823,195.85592232916667,197.25882336666666,63.0,74.0
824,197.62712674166667,198.0534658,59.0,81.0
825,197.28895727916668,198.30681387916667,55.0,79.0
826,197.0077074291667,198.63382263333335,50.0,74.0
827,196.71976115416666,198.77891184166668,43.0,83.0
828,197.9563676375,199.45190255416668,62.0,75.0
829,199.37042938333335,199.53560786666668,36.0,83.0
830,198.287840675,200.03002724583334,67.0,75.0
831,200.24096463333333,200.37600920416668,60.0,51.0
832,200.33471458333335,200.511053775,62.0,68.0
833,200.49319664166669,200.62042871666668,63.0,77.0
834,200.70636617083335,200.87712500833334,67.0,71.0
835,200.91507141666668,201.17734806250002,74.0,83.0
836,201.1237766625,201.34364261666667,72.0,70.0
837,201.35703546666667,201.60033890833333,67.0,76.0
838,201.6193121125,201.76328525,79.0,77.0
839,201.95524943333334,202.104802925,86.0,81.0
840,202.38828491666666,202.5367223375,84.0,72.0
841,202.82690075416667,202.9284632,79.0,51.0
842,202.88828465,202.98761495416667,84.0,73.0
843,202.948552475,203.05011492083335,91.0,74.0
844,200.069089725,203.6416324625,55.0,73.0
845,199.82690235416666,203.68069494166667,48.0,81.0
