,start,end,pitch,velocity
0,19.863333333333333,20.360000000000003,60.0,104.0
1,20.263333333333335,20.663333333333334,62.0,102.0
2,20.663333333333334,21.46166666666667,69.0,114.0
3,21.463333333333335,21.863333333333333,69.0,110.0
4,21.863333333333333,22.063333333333336,67.0,100.0
5,22.063333333333336,23.463333333333335,69.0,107.0
6,23.463333333333335,23.663333333333334,67.0,104.0
7,23.663333333333334,23.863333333333333,69.0,93.0
8,23.863333333333333,24.66166666666667,72.0,113.0
9,24.663333333333334,25.063333333333336,72.0,108.0
10,25.063333333333336,25.263333333333335,74.0,113.0
11,25.263333333333335,26.663333333333334,72.0,91.0
12,26.663333333333334,26.863333333333333,69.0,107.0
13,26.863333333333333,27.063333333333336,72.0,100.0
14,27.063333333333336,27.861666666666668,74.0,116.0
15,27.863333333333337,28.263333333333335,74.0,119.0
16,28.263333333333335,28.463333333333335,72.0,113.0
17,28.463333333333335,29.063333333333336,74.0,117.0
18,29.063333333333336,29.463333333333335,72.0,104.0
19,29.463333333333335,29.663333333333334,69.0,104.0
20,29.663333333333334,30.063333333333336,67.0,102.0
21,30.063333333333336,30.263333333333335,65.0,108.0
22,30.263333333333335,31.463333333333335,67.0,107.0
23,31.463333333333335,31.863333333333337,69.0,108.0
24,31.863333333333337,33.06333333333333,67.0,113.0
25,33.06333333333333,33.263333333333335,69.0,107.0
26,33.263333333333335,33.46333333333334,67.0,100.0
27,33.46333333333334,34.26166666666667,65.0,107.0
28,34.263333333333335,34.663333333333334,65.0,113.0
29,34.663333333333334,34.86333333333334,67.0,113.0
30,34.86333333333334,36.263333333333335,69.0,108.0
31,36.263333333333335,36.46333333333334,74.0,110.0
32,36.46333333333334,36.663333333333334,77.0,113.0
33,36.663333333333334,37.461666666666666,76.0,119.0
34,37.46333333333334,37.86333333333334,76.0,114.0
35,37.86333333333334,38.07,74.0,108.0
36,38.06333333333333,39.461666666666666,72.0,102.0
37,39.46333333333334,39.663333333333334,72.0,102.0
38,39.663333333333334,39.86333333333334,69.0,102.0
39,39.86333333333334,41.06166666666667,67.0,108.0
40,41.06333333333333,41.263333333333335,67.0,107.0
41,41.263333333333335,41.468333333333334,69.0,108.0
42,41.46333333333334,42.663333333333334,67.0,114.0
43,42.663333333333334,43.06333333333333,65.0,110.0
44,43.06333333333333,45.46333333333334,67.0,116.0
45,45.46333333333334,45.96,60.0,104.0
46,45.86333333333334,46.263333333333335,62.0,102.0
47,46.263333333333335,47.06166666666667,69.0,114.0
48,47.06333333333334,47.46333333333334,69.0,110.0
49,47.46333333333334,47.663333333333334,67.0,100.0
50,47.663333333333334,49.06333333333334,69.0,107.0
51,49.06333333333334,49.263333333333335,67.0,104.0
52,49.263333333333335,49.46333333333334,69.0,93.0
53,49.46333333333334,50.26166666666667,72.0,113.0
54,50.263333333333335,50.663333333333334,72.0,108.0
55,50.663333333333334,50.86333333333334,74.0,113.0
56,50.86333333333334,52.263333333333335,72.0,91.0
57,52.263333333333335,52.46333333333334,69.0,107.0
58,52.46333333333334,52.663333333333334,72.0,100.0
59,52.663333333333334,53.46166666666667,74.0,116.0
60,53.46333333333334,53.86333333333334,74.0,119.0
61,53.86333333333334,54.06333333333334,72.0,113.0
62,54.06333333333334,54.663333333333334,74.0,117.0
63,54.663333333333334,55.06333333333334,72.0,104.0
64,55.06333333333334,55.263333333333335,69.0,104.0
65,55.263333333333335,55.663333333333334,67.0,102.0
66,55.663333333333334,55.86333333333334,65.0,108.0
67,55.86333333333334,57.06333333333334,67.0,107.0
68,57.06333333333334,57.46333333333334,69.0,108.0
69,57.46333333333334,58.663333333333334,67.0,113.0
70,58.663333333333334,58.86333333333334,69.0,107.0
71,58.86333333333334,59.06333333333334,67.0,100.0
72,59.06333333333334,59.86166666666667,65.0,107.0
73,59.86333333333334,60.263333333333335,65.0,113.0
74,60.263333333333335,60.46333333333334,67.0,113.0
75,60.46333333333334,61.86333333333334,69.0,108.0
76,61.86333333333334,62.06333333333334,74.0,110.0
77,62.06333333333334,62.263333333333335,77.0,113.0
78,62.263333333333335,63.06166666666667,76.0,119.0
79,63.06333333333334,63.46333333333334,76.0,114.0
80,63.46333333333334,63.67,74.0,108.0
81,63.663333333333334,65.06166666666667,72.0,102.0
82,65.06333333333333,65.26333333333334,72.0,102.0
83,65.26333333333334,65.46333333333334,69.0,102.0
84,65.46333333333334,66.66166666666668,67.0,108.0
85,66.66333333333334,66.86333333333334,67.0,107.0
86,66.86333333333334,67.06833333333334,69.0,108.0
87,67.06333333333333,67.46333333333334,67.0,114.0
88,67.46333333333334,67.86333333333334,65.0,113.0
89,67.86333333333334,68.06333333333333,62.0,107.0
90,68.06333333333333,68.66166666666668,65.0,113.0
91,68.66333333333334,71.06166666666667,65.0,114.0
92,71.06333333333333,71.30166666666668,65.0,116.0
93,71.26333333333334,71.66333333333334,67.0,116.0
94,71.66333333333334,71.86333333333334,69.0,116.0
95,71.86333333333334,73.26166666666667,72.0,114.0
96,73.26333333333334,73.46333333333334,72.0,114.0
97,73.46333333333334,73.86333333333334,74.0,117.0
98,73.86333333333334,74.26333333333334,72.0,116.0
99,74.26333333333334,74.66333333333334,69.0,113.0
100,74.66333333333334,75.06333333333333,67.0,116.0
101,75.06333333333333,75.46166666666667,69.0,114.0
102,75.46333333333334,75.86166666666666,69.0,110.0
103,75.86333333333334,76.07333333333334,69.0,113.0
104,76.06333333333333,76.46333333333334,67.0,110.0
105,76.46333333333334,77.46166666666667,65.0,107.0
106,77.46333333333334,77.67,65.0,116.0
107,77.66333333333334,78.06333333333333,67.0,114.0
108,78.06333333333333,78.26333333333334,69.0,114.0
109,78.26333333333334,79.66166666666668,77.0,117.0
110,79.66333333333334,79.86333333333334,77.0,114.0
111,79.86333333333334,80.26333333333334,79.0,116.0
112,80.26333333333334,80.66333333333334,77.0,110.0
113,80.66333333333334,80.86333333333334,74.0,113.0
114,80.86333333333334,81.26333333333334,72.0,107.0
115,81.26333333333334,81.46333333333334,69.0,113.0
116,81.46333333333334,83.86166666666668,72.0,117.0
117,83.86333333333334,84.26333333333334,72.0,117.0
118,84.26333333333334,84.61333333333334,74.0,119.0
119,84.61333333333334,85.81333333333333,77.0,123.0
120,85.81333333333333,86.21166666666667,79.0,117.0
121,86.21333333333334,86.61333333333334,79.0,114.0
122,86.61333333333334,87.01333333333334,77.0,119.0
123,87.01333333333334,87.41333333333334,74.0,117.0
124,87.41333333333334,87.64500000000001,72.0,116.0
125,87.61333333333334,88.21166666666667,74.0,117.0
126,88.21333333333334,88.61166666666668,74.0,114.0
127,88.61333333333334,88.825,74.0,113.0
128,88.81333333333333,89.21333333333334,72.0,114.0
129,89.21333333333334,90.21333333333334,69.0,113.0
130,90.21333333333334,90.61333333333334,72.0,114.0
131,90.61333333333334,91.01333333333334,69.0,119.0
132,91.01333333333334,92.21166666666667,67.0,119.0
133,92.21333333333334,92.41333333333334,67.0,117.0
134,92.41333333333334,92.61333333333334,69.0,114.0
135,92.61333333333334,93.81333333333333,67.0,119.0
136,93.81333333333333,94.21333333333334,62.0,116.0
137,94.21333333333334,96.0,65.0,119.0
138,125.41333333333334,125.91000000000001,60.0,104.0
139,125.81333333333335,126.21333333333334,62.0,102.0
140,126.21333333333334,127.01166666666667,69.0,114.0
141,127.01333333333334,127.41333333333334,69.0,110.0
142,127.41333333333334,127.61333333333334,67.0,100.0
143,127.61333333333334,129.01333333333335,69.0,107.0
144,129.01333333333335,129.21333333333334,67.0,104.0
145,129.21333333333334,129.41333333333336,69.0,93.0
146,129.41333333333336,130.21166666666667,72.0,113.0
147,130.21333333333334,130.61333333333334,72.0,108.0
148,130.61333333333334,130.81333333333333,74.0,113.0
149,130.81333333333333,132.21333333333334,72.0,91.0
150,132.21333333333334,132.41333333333336,69.0,107.0
151,132.41333333333336,132.61333333333334,72.0,100.0
152,132.61333333333334,133.41166666666666,74.0,116.0
153,133.41333333333336,133.81333333333333,74.0,119.0
154,133.81333333333333,134.01333333333335,72.0,113.0
155,134.01333333333335,134.61333333333334,74.0,117.0
156,134.61333333333334,135.01333333333335,72.0,104.0
157,135.01333333333335,135.21333333333334,69.0,104.0
158,135.21333333333334,135.61333333333334,67.0,102.0
159,135.61333333333334,135.81333333333333,65.0,108.0
160,135.81333333333333,137.01333333333335,67.0,107.0
161,137.01333333333335,137.41333333333336,69.0,108.0
162,137.41333333333336,138.61333333333334,67.0,113.0
163,138.61333333333334,138.81333333333333,69.0,107.0
164,138.81333333333333,139.01333333333335,67.0,100.0
165,139.01333333333335,139.81166666666667,65.0,107.0
166,139.81333333333333,140.21333333333334,65.0,113.0
167,140.21333333333334,140.41333333333336,67.0,113.0
168,140.41333333333336,141.81333333333333,69.0,108.0
169,141.81333333333333,142.01333333333335,74.0,110.0
170,142.01333333333335,142.21333333333334,77.0,113.0
171,142.21333333333334,143.01166666666668,76.0,119.0
172,143.01333333333335,143.41333333333336,76.0,114.0
173,143.41333333333336,143.62,74.0,108.0
174,143.61333333333334,145.01166666666668,72.0,102.0
175,145.01333333333335,145.21333333333334,72.0,102.0
176,145.21333333333334,145.41333333333336,69.0,102.0
177,145.41333333333336,146.61166666666668,67.0,108.0
178,146.61333333333334,146.81333333333333,67.0,107.0
179,146.81333333333333,147.01833333333335,69.0,108.0
180,147.01333333333335,147.41333333333336,67.0,114.0
181,147.41333333333336,147.81333333333333,65.0,113.0
182,147.81333333333333,148.01333333333335,62.0,107.0
183,148.01333333333335,148.61166666666668,65.0,113.0
184,148.61333333333334,150.96166666666667,65.0,114.0
185,150.96333333333334,151.20166666666668,65.0,116.0
186,151.16333333333336,151.56333333333333,67.0,116.0
187,151.56333333333333,151.76333333333335,69.0,116.0
188,151.76333333333335,153.1616666666667,72.0,114.0
189,153.16333333333336,153.36333333333334,72.0,114.0
190,153.36333333333334,153.76333333333335,74.0,117.0
191,153.76333333333335,154.16333333333336,72.0,116.0
192,154.16333333333336,154.56333333333333,69.0,113.0
193,154.56333333333333,154.96333333333334,67.0,116.0
194,154.96333333333334,155.36166666666668,69.0,114.0
195,155.36333333333334,155.76166666666668,69.0,110.0
196,155.76333333333335,155.97333333333333,69.0,113.0
197,155.96333333333334,156.36333333333334,67.0,110.0
198,156.36333333333334,157.36166666666668,65.0,107.0
199,157.36333333333334,157.57000000000002,65.0,116.0
200,157.56333333333333,157.96333333333334,67.0,114.0
201,157.96333333333334,158.16333333333336,69.0,114.0
202,158.16333333333336,159.56166666666667,77.0,117.0
203,159.56333333333333,159.76333333333335,77.0,114.0
204,159.76333333333335,160.16333333333336,79.0,116.0
205,160.16333333333336,160.56333333333333,77.0,110.0
206,160.56333333333333,160.76333333333335,74.0,113.0
207,160.76333333333335,161.16333333333336,72.0,107.0
208,161.16333333333336,161.36333333333334,69.0,113.0
209,161.36333333333334,163.76166666666668,72.0,117.0
210,163.76333333333335,164.16333333333336,72.0,117.0
211,164.16333333333336,164.56333333333333,74.0,119.0
212,164.56333333333333,165.76333333333335,77.0,123.0
213,165.76333333333335,166.1616666666667,79.0,117.0
214,166.16333333333336,166.56333333333333,79.0,114.0
215,166.56333333333333,166.96333333333334,77.0,119.0
216,166.96333333333334,167.36333333333334,74.0,117.0
217,167.36333333333334,167.595,72.0,116.0
218,167.56333333333333,168.1616666666667,74.0,117.0
219,168.16333333333336,168.56166666666667,74.0,114.0
220,168.56333333333333,168.775,74.0,113.0
221,168.76333333333335,169.16333333333336,72.0,114.0
222,169.16333333333336,170.16333333333336,69.0,113.0
223,170.16333333333336,170.56333333333333,72.0,114.0
224,170.56333333333333,170.96333333333334,69.0,119.0
225,170.96333333333334,172.1616666666667,67.0,119.0
226,172.16333333333336,172.36333333333334,67.0,117.0
227,172.36333333333334,172.56333333333333,69.0,114.0
228,172.56333333333333,173.76333333333335,67.0,119.0
229,173.76333333333335,174.16333333333336,65.0,116.0
230,174.16333333333336,176.56333333333333,67.0,119.0
231,176.56333333333333,176.80166666666668,65.0,116.0
232,176.76333333333335,177.16333333333336,67.0,116.0
233,177.16333333333336,177.36333333333334,69.0,116.0
234,177.36333333333334,178.76166666666668,72.0,114.0
235,178.76333333333335,178.96333333333334,72.0,114.0
236,178.96333333333334,179.36333333333334,74.0,117.0
237,179.36333333333334,179.76333333333335,72.0,116.0
238,179.76333333333335,180.16333333333336,69.0,113.0
239,180.16333333333336,180.56333333333333,67.0,116.0
240,180.56333333333333,180.96166666666667,69.0,114.0
241,180.96333333333334,181.36166666666668,69.0,110.0
242,181.36333333333334,181.57333333333335,69.0,113.0
243,181.56333333333333,181.96333333333334,67.0,110.0
244,181.96333333333334,182.96166666666667,65.0,107.0
245,182.96333333333334,183.17000000000002,65.0,116.0
246,183.16333333333336,183.56333333333333,67.0,114.0
247,183.56333333333333,183.76333333333335,69.0,114.0
248,183.76333333333335,185.1616666666667,77.0,117.0
249,185.16333333333336,185.36333333333334,77.0,114.0
250,185.36333333333334,185.76333333333335,79.0,116.0
251,185.76333333333335,186.16333333333336,77.0,110.0
252,186.16333333333336,186.36333333333334,74.0,113.0
253,186.36333333333334,186.76333333333335,72.0,107.0
254,186.76333333333335,186.96333333333334,69.0,113.0
255,186.96333333333334,189.36166666666668,72.0,117.0
256,189.36333333333334,189.76333333333335,72.0,117.0
257,189.76333333333335,190.16333333333336,74.0,119.0
258,190.16333333333336,191.36333333333334,77.0,123.0
259,191.36333333333334,191.76166666666668,79.0,117.0
260,191.76333333333335,192.16333333333336,79.0,114.0
261,192.16333333333336,192.56333333333333,77.0,119.0
262,192.56333333333333,192.96333333333334,74.0,117.0
263,192.96333333333334,193.19500000000002,72.0,116.0
264,193.16333333333336,193.76166666666668,74.0,117.0
265,193.76333333333335,194.1616666666667,74.0,114.0
266,194.16333333333336,194.375,74.0,113.0
267,194.36333333333334,194.76333333333335,72.0,114.0
268,194.76333333333335,195.76333333333335,69.0,113.0
269,195.76333333333335,196.16333333333336,72.0,114.0
270,196.16333333333336,196.56333333333333,69.0,119.0
271,196.56333333333333,197.76166666666668,67.0,119.0
272,197.76333333333335,197.96333333333334,67.0,117.0
273,197.96333333333334,198.16333333333336,69.0,114.0
274,198.16333333333336,198.41333333333336,67.0,119.0
275,198.56833333333336,198.81,65.0,114.0
276,198.96,199.28833333333336,62.0,114.0
277,199.35833333333335,200.0966666666667,65.0,114.0
278,200.14833333333334,202.16333333333336,65.0,102.0
279,202.16333333333336,202.56333333333333,72.0,117.0
280,202.56333333333333,202.96333333333334,74.0,119.0
281,202.96333333333334,204.16333333333336,77.0,123.0
282,204.16333333333336,204.56166666666667,79.0,117.0
283,204.56333333333333,204.96333333333334,79.0,114.0
284,204.96333333333334,205.36333333333334,77.0,119.0
285,205.36333333333334,205.76333333333335,74.0,117.0
286,205.76333333333335,205.995,72.0,116.0
287,205.96333333333334,206.56166666666667,74.0,117.0
288,206.56333333333333,206.96166666666667,74.0,114.0
289,206.96333333333334,207.175,74.0,113.0
290,207.16333333333336,207.56333333333333,72.0,114.0
291,207.56333333333333,208.56333333333333,69.0,113.0
292,208.56333333333333,208.96333333333334,72.0,114.0
293,208.96333333333334,209.36333333333334,69.0,119.0
294,209.36333333333334,210.56166666666667,67.0,119.0
295,210.56333333333336,210.76333333333335,67.0,117.0
296,210.76333333333335,210.96333333333334,69.0,114.0
297,210.96333333333334,211.36333333333334,67.0,119.0
298,211.36333333333334,212.01333333333335,65.0,96.0
299,212.01333333333335,212.46166666666667,62.0,98.0
300,212.46166666666667,213.26000000000002,65.0,100.0
301,213.26166666666668,214.4,65.0,107.0
