,start,end,pitch,velocity
0,24.397571250000002,24.689739695833335,71.0,117.0
1,24.75901675,24.852390170833335,71.0,108.0
2,24.9397395,25.019558714583333,71.0,107.0
3,25.12046225,25.29666693125,71.0,113.0
4,25.48190775,25.697269027083333,76.0,117.0
5,25.84335325,26.168654200000002,74.0,119.0
6,26.204798750000002,26.540641860416667,74.0,114.0
7,26.56624425,26.905099406250002,71.0,116.0
8,26.92768975,27.20329194375,69.0,113.0
9,27.28913525,27.652086772916668,71.0,117.0
10,30.18069925,30.5692531625,74.0,117.0
11,30.542144750000002,30.865939677083333,69.0,113.0
12,30.90359025,31.21684301666667,69.0,116.0
13,31.26503575,31.605396929166666,76.0,117.0
14,31.62648125,32.01352913958333,74.0,117.0
15,31.98792675,32.01352913958333,74.0,102.0
16,32.34937225,33.030094608333336,76.0,114.0
17,33.07226325,33.34786544375,74.0,117.0
18,33.43370875,34.533105479166665,71.0,114.0
19,35.96382725,36.21232103125,76.0,108.0
20,36.32527275,36.612923127083334,76.0,108.0
21,36.68671825,36.99545294791667,76.0,110.0
22,37.04816375,37.4457538,79.0,114.0
23,37.40960925,38.1686448,78.0,114.0
24,38.13250025,38.49695779583333,76.0,114.0
25,38.49394575,38.727379302083335,74.0,114.0
26,38.855391250000004,39.18521026875,71.0,116.0
27,39.21683675,39.412619729166664,71.0,108.0
28,39.57828225,39.825270008333334,71.0,114.0
29,39.93972775,40.17014925625,78.0,116.0
30,40.30117325,40.634004314583336,76.0,116.0
31,41.74695525,42.12948507083333,74.0,119.0
32,42.10840075,42.33731623333333,69.0,114.0
33,42.46984625,42.879484483333336,76.0,117.0
34,42.83129175,43.252978166666665,74.0,114.0
35,43.19273725,44.096351,71.0,116.0
36,44.63851925,45.00448281875,69.0,114.0
37,44.999964750000004,45.00448281875,69.0,110.0
38,45.36141025,45.813217125,67.0,113.0
39,45.72285575,46.17616864791667,66.0,109.0
40,46.08430125,46.716830875,64.0,114.0
41,47.530083250000004,47.852372154166666,71.0,117.0
42,47.89152875,48.07978161458333,71.0,108.0
43,48.0722515,48.07978161458333,71.0,107.0
44,48.25297425,48.638516116666665,71.0,113.0
45,48.61441975,49.01803389166667,76.0,117.0
46,48.97586525,49.301166200000004,74.0,119.0
47,49.33731075,49.69875625,74.0,114.0
48,49.69875625,50.108394483333335,71.0,116.0
49,50.060201750000004,50.44273157083334,69.0,113.0
50,50.42164725,51.557188529166666,71.0,117.0
51,53.31321125,53.677668795833334,74.0,117.0
52,53.674656750000004,53.89905416458333,69.0,113.0
53,53.8553795,53.89905416458333,69.0,113.0
54,54.03610225,54.079776914583334,69.0,116.0
55,54.39754775,54.69875233333333,76.0,117.0
56,54.75899325,55.10688454375,74.0,117.0
57,55.12043875,55.615920289583336,74.0,102.0
58,55.48188425,56.329775152083336,76.0,114.0
59,56.204775250000004,56.71531701875,74.0,117.0
60,56.56622075,57.98338831458334,71.0,114.0
61,59.09633925,59.39754383333334,76.0,108.0
62,59.45778475,59.798145929166665,76.0,108.0
63,59.819230250000004,60.18067575,76.0,110.0
64,60.18067575,60.63097660208334,79.0,114.0
65,60.54212125,61.001458239583336,78.0,114.0
66,61.265012250000005,61.7348914,76.0,114.0
67,61.62645775,61.96531290625,74.0,114.0
68,61.98790325,62.42314387291667,71.0,116.0
69,62.349348750000004,62.42314387291667,71.0,108.0
70,62.71079425,63.063203612500004,71.0,114.0
71,63.07223975,63.42163706666667,78.0,116.0
72,63.43368525,63.885492125,76.0,116.0
73,64.87946725,65.35235844583333,76.0,92.0
74,65.24091275,65.6836834875,79.0,116.0
75,65.60235825000001,66.42765880833333,81.0,117.0
76,66.32524925,66.67615258958334,79.0,117.0
77,66.68669475,67.04814025,78.0,116.0
78,67.77103125000001,68.02705514583333,78.0,119.0
79,68.13247675,68.51801861666667,78.0,116.0
80,68.49392225,68.90807855208334,76.0,116.0
81,68.85536775,69.25898189166666,74.0,117.0
82,69.21681325,69.668620125,76.0,114.0
83,73.55415925,73.87343610833334,76.0,119.0
84,73.91560475,74.24843581458333,76.0,117.0
85,74.27705025,74.62343552083334,76.0,117.0
86,74.63849575,75.00144727291666,83.0,120.0
87,74.99994125,75.62494076041666,81.0,117.0
88,75.72283225,76.1204223,78.0,123.0
89,76.08427775,76.48789189166666,76.0,114.0
90,76.44572325,76.8162048875,74.0,117.0
91,76.80716875,77.1324697,71.0,116.0
92,77.16861425,77.53005975,71.0,116.0
93,77.53005975,77.88698718125,78.0,119.0
94,77.89150525000001,78.34180610208334,76.0,119.0
95,78.97584175,79.24843189791667,71.0,116.0
96,79.1565645,79.38397396041667,74.0,113.0
97,79.33728725,79.61590148958334,76.0,116.0
98,79.69873275,80.01650358541667,76.0,114.0
99,80.06017825,80.38698522291666,78.0,114.0
100,80.42162375000001,80.80415357083334,79.0,119.0
101,80.78306925,81.18818941458333,78.0,119.0
102,81.14451475,81.52252650208334,74.0,116.0
103,81.50596025,81.86740575,79.0,117.0
104,81.86740575,82.22132113541667,81.0,119.0
105,82.22885125,84.45776516666668,83.0,120.0
106,84.75896975,85.17915014375001,79.0,114.0
107,84.9396925,85.34933073333333,81.0,108.0
108,85.12041525000001,85.69119793541667,83.0,114.0
109,85.48186075,86.04661934375,81.0,116.0
110,85.84330625,86.34029381250001,79.0,116.0
111,86.20475175,86.75294409166666,83.0,120.0
112,86.56619725,87.22884733333333,81.0,119.0
113,87.65053375000001,88.07222016666667,78.0,116.0
114,87.83125650000001,88.24541280208334,79.0,113.0
115,88.01197925,88.56770170625,81.0,117.0
116,88.37342475,88.56770170625,81.0,119.0
117,88.73487025,89.51800216666668,83.0,119.0
118,89.45776125,89.99992950000001,81.0,116.0
119,89.81920675,90.40053159583334,79.0,120.0
120,90.54209775,91.04661542708334,76.0,107.0
121,90.7228205,91.13697680208334,78.0,95.0
122,90.90354325,91.38095251458334,79.0,117.0
123,91.26498875,91.38095251458334,79.0,116.0
124,91.62643425,92.15806033958333,81.0,117.0
125,91.98787975,92.548120275,83.0,119.0
126,92.34932525,93.13245716666667,78.0,123.0
127,93.07221625,93.64751700416667,74.0,116.0
128,93.43366175,94.16107081875,78.0,119.0
129,94.15655275,95.873418875,76.0,119.0
130,96.32522575,96.54209305,74.0,116.0
131,96.68667125,97.09781550625,76.0,116.0
132,97.04811675,97.09781550625,76.0,119.0
133,97.40956225000001,97.5270320375,76.0,116.0
134,97.77100775000001,98.22582667083334,83.0,120.0
135,98.13245325,98.84932015833334,81.0,117.0
136,98.85534425,99.34480169791667,78.0,123.0
137,99.21678975,99.71227128958334,76.0,114.0
138,99.57823525,100.04058428541667,74.0,117.0
139,99.93968075000001,100.35684909791667,71.0,116.0
140,100.30112625,100.35684909791667,71.0,116.0
141,100.66257175,101.11136657916667,78.0,119.0
142,101.02401725,101.5661855,76.0,119.0
143,102.10835375,102.39751015,71.0,116.0
144,102.28907650000001,102.5330522125,74.0,113.0
145,102.46979925000001,102.76497974166666,76.0,116.0
146,102.83124475,103.1655818375,76.0,114.0
147,103.19269025,103.536063475,78.0,114.0
148,103.55413575,103.95323182291666,79.0,119.0
149,103.91558125,104.33726766666668,78.0,119.0
150,104.27702675,104.63847225,74.0,116.0
151,104.63847225,105.06015866666667,79.0,117.0
152,104.99991775000001,105.42160416666667,81.0,119.0
153,105.36136325,107.34931350000001,83.0,120.0
154,107.89148175,108.11587916458333,79.0,114.0
155,108.0722045,108.28605975416667,81.0,108.0
156,108.25292725,108.62792695625001,83.0,114.0
157,108.61437275,108.98334836458334,81.0,116.0
158,108.97581825,109.39750466666666,79.0,116.0
159,109.33726375,109.6896731125,83.0,120.0
160,109.69870925000001,110.16557635416667,81.0,119.0
161,110.78304575,111.0360576,78.0,116.0
162,110.9637685,111.20925023541668,79.0,113.0
163,111.14449125,111.53153913958333,81.0,117.0
164,111.50593675,111.53153913958333,81.0,119.0
165,111.86738225,112.680634625,83.0,119.0
166,112.59027325000001,112.96376693333333,81.0,116.0
167,112.95171875,113.36436902916667,79.0,120.0
168,113.67460975,113.98033240208333,76.0,107.0
169,113.8553325,114.07069377708333,78.0,95.0
170,114.03605525,114.31466948958334,79.0,117.0
171,114.39750075,114.7228017,79.0,116.0
172,114.75894625000001,115.09177731458334,81.0,117.0
173,115.12039175000001,115.48183725,79.0,119.0
174,115.48183725,115.90352366666667,78.0,123.0
175,115.84328275,116.08424641666667,76.0,123.0
176,116.0240055,116.62641466666668,74.0,116.0
177,116.56617375,117.4246068125,78.0,119.0
178,117.28906475000001,117.62942592916667,76.0,119.0
179,142.95169525,143.30561063541668,71.0,117.0
180,143.31314075,143.46826111041668,71.0,108.0
181,143.4938635,143.63542965416667,71.0,107.0
182,143.67458625,143.91253787083335,71.0,113.0
183,144.03603175,144.31313996666668,76.0,117.0
184,144.39747725,144.78452513958334,74.0,119.0
185,144.75892275,144.78452513958334,74.0,114.0
186,145.12036825,145.52097034583335,71.0,116.0
187,145.48181375000001,145.81916288333335,69.0,113.0
188,145.84325925000002,146.2679577125,71.0,117.0
189,148.73482325,149.14747352916666,74.0,117.0
190,149.09626875,149.44416004375,69.0,113.0
191,149.45771425,149.79506338333334,69.0,116.0
192,149.81915975,150.16855706666666,76.0,117.0
193,150.18060525,150.57668927708335,74.0,117.0
194,150.54205075000002,150.57668927708335,74.0,102.0
195,150.90349625000002,151.41403801875,76.0,114.0
196,151.62638725,152.0239773,74.0,117.0
197,151.98783275,152.46976008333334,71.0,114.0
198,154.51795125,154.78752935208334,76.0,108.0
199,154.87939675,155.18813144791667,76.0,108.0
200,155.24084225000001,155.57066126875,76.0,110.0
201,155.60228775000002,156.02096212083333,79.0,114.0
202,155.96373325000002,156.39144375833334,78.0,114.0
203,156.68662425,157.12487691875,76.0,114.0
204,157.04806975,157.355298425,74.0,114.0
205,157.40951525,157.81312939166668,71.0,116.0
206,157.77096075,157.81312939166668,71.0,108.0
207,158.13240625,158.45318913125,71.0,114.0
208,158.49385175,158.85529725,78.0,116.0
209,158.85529725,159.51794733333332,76.0,116.0
210,160.30107925000002,160.66553679583333,76.0,92.0
211,160.66252475000002,161.11583764791666,79.0,116.0
212,161.02397025,161.927584,81.0,117.0
213,161.74686125,162.09023447500002,79.0,117.0
214,162.10830675,162.46222213541668,78.0,116.0
215,163.19264325,163.44866714583333,78.0,119.0
216,163.55408875,163.93963061666668,78.0,116.0
217,163.91553425,164.32969055208335,76.0,116.0
218,164.27697975,164.68059389166666,74.0,117.0
219,164.63842525,166.355291375,76.0,114.0
220,168.97577125,169.36884323125,76.0,119.0
221,169.33721675,169.36884323125,76.0,117.0
222,169.69866225,169.7438429375,76.0,117.0
223,170.06010775000001,170.49685439583334,83.0,120.0
224,170.42155325000002,171.12034788333335,81.0,117.0
225,171.14444425,171.61582942291668,78.0,123.0
226,171.50588975,171.98329901458334,76.0,114.0
227,171.86733525,172.31161201041667,74.0,117.0
228,172.22878075,172.62787682291668,71.0,116.0
229,172.59022625,172.62787682291668,71.0,116.0
230,172.95167175,173.38239430416667,78.0,119.0
231,173.31311725,173.837213225,76.0,119.0
232,174.39745375,174.74383902083335,71.0,116.0
233,174.5781765,174.87938108333333,74.0,113.0
234,174.75889925,175.1113086125,76.0,116.0
235,175.12034475000002,175.51191070833335,76.0,114.0
236,175.48179025000002,175.88239234583332,78.0,114.0
237,175.84323575,176.29956069375,79.0,119.0
238,176.20468125,176.6835965375,78.0,119.0
239,176.56612675,177.017933625,74.0,116.0
240,176.92757225,177.36281287291666,79.0,117.0
241,177.28901775,177.71672825833335,81.0,119.0
242,177.65046325,178.282992875,83.0,120.0
243,180.18058175000002,180.4426297375,79.0,114.0
244,180.36130450000002,180.61281032708334,81.0,108.0
245,180.54202725000002,180.95467752916667,83.0,114.0
246,180.90347275,181.31009893750002,81.0,116.0
247,181.26491825,181.60377340625,79.0,116.0
248,181.62636375,182.01642368541667,83.0,120.0
249,181.98780925,182.49232692708333,81.0,119.0
250,183.07214575,183.33569976041667,78.0,116.0
251,183.2528685,183.50889239583333,79.0,113.0
252,183.43359125,183.8311813,81.0,117.0
253,183.79503675,183.8311813,81.0,119.0
254,184.15648225,184.61883128541666,83.0,119.0
255,184.87937325000001,185.26340909375,81.0,116.0
256,185.24081875000002,185.66401118958333,79.0,120.0
257,185.96370975,186.31009502083333,76.0,107.0
258,186.1444325,186.40045639583334,78.0,95.0
259,186.32515525,186.64443210833335,79.0,117.0
260,186.68660075,187.05256431875,79.0,116.0
261,187.04804625,187.42153993333335,81.0,117.0
262,187.40949175,187.81159986875,83.0,119.0
263,187.77093725,188.584189625,78.0,123.0
264,188.49382825,188.91099659791666,74.0,116.0
265,188.85527375,189.63840566666667,78.0,119.0
266,189.57816475,191.14442858333334,76.0,119.0
267,191.74683775,192.08569290625002,74.0,116.0
268,192.10828325,192.42756010833335,76.0,116.0
269,192.46972875,192.85677663958333,76.0,119.0
270,192.83117425,192.85677663958333,76.0,116.0
271,193.19261975,193.55557127291667,83.0,120.0
272,193.55406525,194.17906476041668,81.0,117.0
273,194.27695625,194.6745463,78.0,123.0
274,194.63840175,195.04201589166667,76.0,114.0
275,194.99984725000002,195.3703288875,74.0,117.0
276,195.36129275000002,195.6865937,71.0,116.0
277,195.72273825,196.08418375,71.0,116.0
278,196.08418375,196.44111118125,78.0,119.0
279,196.44562925,196.89593010208333,76.0,119.0
280,197.52996575,197.84020647083335,71.0,116.0
281,197.7106885,197.97574853333333,74.0,113.0
282,197.89141125,198.2076760625,76.0,116.0
283,198.25285675,198.60827815833335,76.0,114.0
284,198.61430225,198.97875979583333,78.0,114.0
285,198.97574775,199.39592814375,79.0,119.0
286,199.33719325,199.74231341458335,78.0,119.0
287,199.69863875000001,200.07665050208334,74.0,116.0
288,200.06008425000002,200.42152975000002,79.0,117.0
289,200.42152975000002,200.77544513541667,81.0,119.0
290,200.78297525,202.65044366666666,83.0,120.0
291,203.31309375,203.49231047708335,79.0,114.0
292,203.4938165,203.66249106666666,81.0,108.0
293,203.67453925,204.00435826875,83.0,114.0
294,204.03598475,204.35977967708334,81.0,116.0
295,204.39743025,204.75887575000002,79.0,116.0
296,204.75887575000002,205.066104425,83.0,120.0
297,205.12032125000002,206.023935,81.0,119.0
298,206.20465775,206.3853805,78.0,116.0
299,206.3853805,206.55857313541668,79.0,113.0
300,206.56610325,206.88086203958335,81.0,117.0
301,206.92754875,207.37935562500002,81.0,119.0
302,207.28899425,208.13236708333335,83.0,119.0
303,208.01188525,208.31308983333335,81.0,116.0
304,208.37333075,209.09622175,79.0,120.0
305,209.09622175,209.35977576041668,76.0,107.0
306,209.2769445,209.45013713541667,78.0,95.0
307,209.45766725000001,209.69411284791667,79.0,117.0
308,209.81911275000002,210.10224505833335,79.0,116.0
309,210.18055825000002,210.47122067291667,81.0,117.0
310,210.54200375,210.86128060833335,83.0,119.0
311,210.90344925,211.60676195208333,78.0,123.0
312,211.62634025,212.26188192083333,74.0,116.0
313,211.98778575,212.77543573541666,78.0,119.0
314,212.71067675,213.43356775,76.0,119.0
315,215.24079525000002,215.63386723125,76.0,119.0
316,215.60224075,215.63386723125,76.0,117.0
317,215.96368625,216.00886693750002,76.0,117.0
318,216.32513175,216.76187839583335,83.0,120.0
319,216.68657725,217.38537188333333,81.0,117.0
320,217.40946825,217.8808534229167,78.0,123.0
321,217.77091375,218.24832301458335,76.0,114.0
322,218.13235925,218.57663601041668,74.0,117.0
323,218.49380475,218.8929008229167,71.0,116.0
324,218.85525025,218.8929008229167,71.0,116.0
325,219.21669575,219.64741830416668,78.0,119.0
326,219.57814125000002,220.102237225,76.0,119.0
327,220.66247775,221.00886302083333,71.0,116.0
328,220.8432005,221.14440508333334,74.0,113.0
329,221.02392325,221.3763326125,76.0,116.0
330,221.38536875,221.77693470833333,76.0,114.0
331,221.74681425,222.14741634583334,78.0,114.0
332,222.10825975,222.56458469375,79.0,119.0
333,222.46970525,222.9486205375,78.0,119.0
334,222.83115075,223.282957625,74.0,116.0
335,223.19259625,223.62783687291667,79.0,117.0
336,223.55404175,223.98175225833333,81.0,119.0
337,223.91548725,226.02391933333334,83.0,120.0
338,226.44560575,226.74530431041669,79.0,114.0
339,226.6263285,226.9154849,81.0,108.0
340,226.80705125,227.25735210208333,83.0,114.0
341,227.16849675,227.61277351041667,81.0,116.0
342,227.52994225,227.90644797916667,79.0,116.0
343,227.89138775,228.31909825833333,83.0,120.0
344,228.25283325,228.7950015,81.0,119.0
345,229.33716975000002,229.63837433333333,78.0,116.0
346,229.51789250000002,229.81156696875001,79.0,113.0
347,229.69861525000002,230.13385587291668,81.0,117.0
348,230.06006075000002,230.13385587291668,81.0,119.0
349,230.42150625,230.92150585833335,83.0,119.0
350,231.14439725,231.56608366666669,81.0,116.0
351,231.50584275,231.96668576250002,79.0,120.0
352,232.22873375,232.57963708958334,76.0,107.0
353,232.4094565,232.66999846458333,78.0,95.0
354,232.59017925,232.91397417708333,79.0,117.0
355,232.95162475,233.3221063875,79.0,116.0
356,233.31307025,233.69108200208333,81.0,117.0
357,233.67451575,234.0811419375,83.0,119.0
358,234.03596125,234.73475588333335,78.0,123.0
359,234.75885225000002,235.24077958333334,74.0,116.0
360,235.12029775000002,235.90342966666668,78.0,119.0
361,235.84318875,237.4696935,76.0,119.0
362,238.01186175,238.42451202916666,74.0,116.0
363,238.37330725,238.76637923125,76.0,116.0
364,238.73475275,238.76637923125,76.0,119.0
365,239.09619825000001,239.1955957625,76.0,116.0
366,239.45764375000002,239.89439039583334,83.0,120.0
367,239.81908925000002,240.51788388333333,81.0,117.0
368,240.54198025,241.01336542291668,78.0,123.0
369,240.90342575,241.38083501458334,76.0,114.0
370,241.26487125,241.70914801041667,74.0,117.0
371,241.62631675,242.02541282291668,71.0,116.0
372,241.98776225,242.02541282291668,71.0,116.0
373,242.34920775,242.77993030416667,78.0,119.0
374,242.71065325,243.234749225,76.0,119.0
375,243.79498975,244.14137502083335,71.0,116.0
376,243.97571250000001,244.27691708333333,74.0,113.0
377,244.15643525000002,244.5088446125,76.0,116.0
378,244.51788075000002,244.90944670833335,76.0,114.0
379,244.87932625000002,245.27992834583333,78.0,114.0
380,245.24077175,245.69709669375,79.0,119.0
381,245.60221725,246.0811325375,78.0,119.0
382,245.96366275,246.41546962500001,74.0,116.0
383,246.32510825,246.76034887291667,79.0,117.0
384,246.68655375,247.11426425833335,81.0,119.0
385,247.04799925,248.674504,83.0,120.0
386,249.57811775000002,249.87781631041668,79.0,114.0
387,249.75884050000002,250.04799690000002,81.0,108.0
388,249.93956325000002,250.38986410208335,83.0,114.0
389,250.30100875,250.74528551041666,81.0,116.0
390,250.66245425,251.03895997916666,79.0,116.0
391,251.02389975,251.45161025833335,83.0,120.0
392,251.38534525,252.4245010625,81.0,119.0
393,252.46968175,252.77088633333335,78.0,116.0
394,252.6504045,252.94407896875,79.0,113.0
395,252.83112725,253.26636787291667,81.0,117.0
396,253.19257275,253.26636787291667,81.0,119.0
397,253.55401825,254.05401785833334,83.0,119.0
398,254.27690925000002,254.69859566666668,81.0,116.0
399,254.63835475000002,255.24076391666668,79.0,120.0
400,255.36124575,255.74528159375,76.0,107.0
401,255.5419685,255.83564296875,78.0,95.0
402,255.72269125,256.07961868125,79.0,117.0
403,256.08413675,256.4877508916667,79.0,116.0
404,256.44558225000003,256.85672650625,81.0,117.0
405,256.80702775000003,257.2467864416667,83.0,119.0
406,257.16847325000003,257.8717859520833,78.0,123.0
407,257.89136425,258.5269059208333,74.0,116.0
408,258.25280975,259.0404597354167,78.0,119.0
409,258.97570075,260.42148275,76.0,119.0
410,261.14437375,261.46666265416667,76.0,108.0
411,261.32509650000003,261.56606016666666,78.0,106.0
412,261.50581925,261.78895155833334,79.0,114.0
413,261.86726475,262.20913195208334,79.0,116.0
414,262.22871025,262.62178223125,81.0,114.0
415,262.59015575,262.95009522708335,79.0,108.0
416,262.95160125,263.43503460625,78.0,116.0
417,263.31304675,263.7558174875,76.0,108.0
418,263.67449225,265.210635625,74.0,113.0
419,265.84316525,266.656417625,78.0,116.0
420,266.56605625000003,268.915452,76.0,117.0
