,start,end,pitch,velocity
0,1.8072275,2.30873313125,64.0,82.0
1,1.26505925,2.4051185979166667,52.0,67.0
2,1.62650475,2.72439545625,59.0,71.0
3,2.3493957500000002,3.3057203020833335,67.0,85.0
4,2.71084125,3.777105475,50.0,82.0
5,3.07228675,4.17017745625,59.0,80.0
6,3.79517775,4.44126158125,67.0,72.0
7,3.4337322500000003,4.61294819375,62.0,84.0
8,4.15662325,5.203309177083334,47.0,83.0
9,4.51806875,5.283128391666667,54.0,75.0
10,5.24095975,5.6295136625,69.0,88.0
11,4.87951425,5.637043777083334,62.0,84.0
12,4.6987915000000005,5.650597983333333,59.0,76.0
13,5.60240525,6.10391088125,67.0,84.0
14,6.32529625,6.66415140625,64.0,87.0
15,5.96385075,6.74547664375,59.0,76.0
16,5.60240525,6.775597102083333,52.0,83.0
17,6.68674175,7.06174145625,66.0,84.0
18,7.04818725,7.831319166666667,67.0,85.0
19,7.04818725,8.149090002083334,64.0,84.0
20,7.04818725,8.158126139583334,48.0,84.0
21,7.77107825,8.230415239583333,60.0,83.0
22,7.40963275,8.463848791666667,55.0,77.0
23,8.13252375,8.48041504375,67.0,88.0
24,8.493969250000001,8.871981002083334,62.0,82.0
25,8.493969250000001,8.899089414583333,66.0,85.0
26,9.21686025,9.47439016875,62.0,86.0
27,8.85541475,9.561739497916667,57.0,84.0
28,8.493969250000001,9.665655079166667,50.0,82.0
29,9.57830575,9.966859662500001,69.0,88.0
30,9.93975125,10.01204035,67.0,78.0
31,9.93975125,10.647582020833333,62.0,85.0
32,10.662642250000001,11.066256391666666,60.0,88.0
33,9.93975125,11.138545491666667,43.0,38.0
34,10.4819195,11.180714133333334,55.0,83.0
35,11.2048105,11.341858585416666,60.0,68.0
36,10.30119675,11.370473020833334,50.0,73.0
37,11.02408775,11.403605525,62.0,87.0
38,11.38553325,12.006014691666667,67.0,85.0
39,11.38553325,12.030111058333334,59.0,87.0
40,11.9277015,12.435231222916666,55.0,81.0
41,12.10842425,12.459327589583333,62.0,96.0
42,11.38553325,12.475893841666666,43.0,84.0
43,13.3734835,13.478905104166667,67.0,81.0
44,13.19276075,13.841856627083335,64.0,85.0
45,12.831315250000001,13.948784254166666,52.0,87.0
46,13.012038,13.950290277083333,59.0,88.0
47,13.55420625,14.234928608333334,71.0,94.0
48,13.91565175,14.731916170833333,67.0,91.0
49,14.638542750000001,15.33884340625,57.0,84.0
50,14.27709725,15.36143375,50.0,89.0
51,14.999988250000001,15.423180689583333,69.0,93.0
52,14.8192655,15.900589954166668,62.0,84.0
53,15.36143375,16.281613752083334,66.0,85.0
54,16.44577025,16.772577222916667,62.0,87.0
55,15.72287925,16.83583018541667,47.0,86.0
56,16.626493,16.867456666666666,66.0,85.0
57,16.08432475,16.927697583333334,54.0,80.0
58,16.2650475,17.17317931875,59.0,85.0
59,16.80721575,17.329805702083334,69.0,88.0
60,17.53010675,18.265045933333333,59.0,80.0
61,17.16866125,18.28462423125,52.0,87.0
62,17.89155225,18.62950347916667,64.0,86.0
63,18.252997750000002,18.909623741666667,67.0,90.0
64,18.61444325,19.736430322916668,48.0,86.0
65,19.33733425,19.74847850625,64.0,88.0
66,18.97588875,19.756008620833335,55.0,65.0
67,19.1566115,19.77558691875,60.0,83.0
68,19.69877975,20.361429833333332,67.0,88.0
69,20.060225250000002,21.1716701625,50.0,87.0
70,20.78311625,21.509019295833333,62.0,85.0
71,20.42167075,21.512031341666667,57.0,84.0
72,21.14456175,21.5150433875,67.0,87.0
73,22.22889825,22.632512391666666,64.0,86.0
74,22.590343750000002,22.953295272916666,67.0,83.0
75,21.325284500000002,23.692752525,52.0,84.0
76,22.95178925,23.80570424375,66.0,82.0
77,21.86745275,23.817752427083335,59.0,83.0
78,25.12046225,25.460823429166666,64.0,86.0
79,24.397571250000002,25.55570287291667,52.0,82.0
80,24.75901675,25.91112428125,59.0,80.0
81,25.48190775,26.09787112291667,67.0,82.0
82,25.84335325,26.971364414583334,50.0,87.0
83,26.56624425,27.231906379166666,62.0,80.0
84,26.56624425,27.256002745833335,69.0,80.0
85,26.204798750000002,27.278593089583335,59.0,76.0
86,28.01202625,28.436724712500002,64.0,82.0
87,27.65058075,28.85690510625,59.0,73.0
88,28.37347175,29.1325073,71.0,87.0
89,27.28913525,29.820759772916666,52.0,81.0
90,29.09636275,30.1716631125,67.0,82.0
91,30.542144750000002,31.281602002083336,62.0,86.0
92,30.90359025,31.754493197916666,69.0,86.0
93,31.26503575,32.439733625,66.0,86.0
94,31.98792675,32.45479385416667,57.0,67.0
95,30.18069925,32.551179320833334,50.0,87.0
96,32.710817750000004,33.15961257916667,66.0,85.0
97,32.34937225,33.403588291666665,62.0,83.0
98,34.15659975,34.50449104375,71.0,88.0
99,33.79515425,34.609912647916666,64.0,80.0
100,34.51804525,35.186719425,74.0,88.0
101,35.240936250000004,35.35991206041667,74.0,74.0
102,33.07226325,35.62346607083333,52.0,86.0
103,33.43370875,35.6294901625,59.0,75.0
104,35.240936250000004,35.65057448333334,67.0,85.0
105,35.60238175,36.016538052083334,69.0,88.0
106,35.96382725,36.405091964583335,71.0,87.0
107,35.96382725,36.66563392916667,67.0,86.0
108,36.32527275,37.102380575,59.0,67.0
109,35.96382725,37.195753995833336,52.0,82.0
110,37.04816375,37.40207913541667,71.0,84.0
111,36.68671825,37.4547899375,64.0,82.0
112,38.13250025,38.19123514375,62.0,85.0
113,37.77105475,38.39003016875,59.0,78.0
114,37.40960925,38.44123494791667,50.0,81.0
115,38.13250025,38.865933410416666,69.0,85.0
116,38.49394575,38.87045147916667,66.0,81.0
117,38.855391250000004,39.912619337500004,47.0,84.0
118,39.21683675,39.978884345833336,54.0,77.0
119,39.57828225,40.04665537708333,59.0,83.0
120,39.93972775,40.272558814583334,62.0,86.0
121,39.93972775,40.31322143333333,69.0,79.0
122,40.8433415,41.25147371041667,64.0,88.0
123,40.66261875,41.302678489583336,59.0,74.0
124,40.30117325,41.3945458875,52.0,81.0
125,41.02406425,41.41713623125,67.0,91.0
126,41.385509750000004,41.728882975,69.0,87.0
127,41.74695525,42.837315841666666,50.0,89.0
128,42.10840075,42.909604941666665,57.0,79.0
129,42.46984625,43.180689066666666,62.0,84.0
130,42.83129175,43.21382157083333,66.0,85.0
131,43.55418275,44.334302620833334,59.0,82.0
132,43.19273725,44.34484478125,52.0,87.0
133,43.915628250000005,44.54062776041667,64.0,87.0
134,44.27707375,44.55418196666667,67.0,87.0
135,44.63851925,45.676169039583336,45.0,87.0
136,44.999964750000004,45.73038586458333,52.0,81.0
137,45.36141025,45.83731349166667,57.0,84.0
138,45.72285575,46.137012052083335,60.0,81.0
139,45.72285575,46.230385472916666,69.0,80.0
140,46.08430125,47.239420827083336,52.0,86.0
141,46.44574675,47.27556537708333,59.0,82.0
142,46.80719225,47.51803506666667,64.0,86.0
143,47.16863775,47.52857722708333,67.0,87.0
144,47.530083250000004,47.981890125,71.0,84.0
145,47.530083250000004,48.03761297291667,64.0,85.0
146,47.530083250000004,48.102371958333336,67.0,83.0
147,48.25297425,48.68670885,64.0,87.0
148,48.25297425,48.71080521666667,71.0,86.0
149,48.25297425,48.91110626458333,67.0,86.0
150,47.530083250000004,48.920142402083336,52.0,82.0
151,48.97586525,49.55568407291667,62.0,86.0
152,48.97586525,49.57676839375,69.0,86.0
153,48.97586525,49.612912943750004,66.0,86.0
154,49.69875625,50.1234547125,62.0,84.0
155,49.69875625,50.20779199583333,66.0,86.0
156,49.69875625,50.29363530208334,69.0,86.0
157,48.97586525,50.30718950833334,50.0,81.0
158,50.42164725,50.774056612500004,71.0,87.0
159,50.42164725,51.064719035416665,64.0,85.0
160,50.42164725,51.0993575625,67.0,81.0
161,51.144538250000004,51.522550002083335,71.0,87.0
162,51.144538250000004,51.52857409375,64.0,86.0
163,51.144538250000004,51.53761023125,67.0,85.0
164,51.50598375,51.993935175000004,59.0,74.0
165,51.86742925,52.3101999875,71.0,84.0
166,51.86742925,52.31471805625,62.0,87.0
167,51.86742925,52.38399511041667,67.0,86.0
168,52.22887475,52.85839232916667,59.0,72.0
169,50.42164725,52.950259727083335,52.0,85.0
170,52.590320250000005,53.07375360625,71.0,86.0
171,52.590320250000005,53.1053800875,64.0,87.0
172,52.95176575,53.22586192083333,67.0,83.0
173,53.31321125,53.82525904166667,62.0,86.0
174,53.31321125,53.88399393541667,66.0,83.0
175,53.31321125,53.885499958333334,69.0,86.0
176,53.31321125,54.478872987500004,50.0,83.0
177,54.03610225,54.58881266041667,62.0,83.0
178,54.03610225,54.63851141666667,69.0,88.0
179,54.03610225,54.64604153125,66.0,87.0
180,54.75899325,55.147547162500004,62.0,84.0
181,54.75899325,55.18670375833334,69.0,83.0
182,54.75899325,55.200257964583336,66.0,86.0
183,55.12043875,55.76953462708334,57.0,78.0
184,54.75899325,55.86592009375,50.0,81.0
185,55.48188425,55.88399236875,69.0,88.0
186,55.48188425,55.90206464375,62.0,87.0
187,55.48188425,55.996944087500005,66.0,89.0
188,56.204775250000004,56.70477485833334,71.0,83.0
189,56.204775250000004,56.748449522916665,64.0,82.0
190,56.204775250000004,56.790618164583336,67.0,81.0
191,56.92766625,57.334292437500004,71.0,67.0
192,56.92766625,57.46531643125,64.0,78.0
193,56.92766625,57.50296700416667,67.0,75.0
194,57.65055725,58.034593093750004,71.0,87.0
195,57.65055725,58.15356890416667,64.0,90.0
196,58.01200275,58.383990410416665,67.0,86.0
197,58.37344825,58.737905795833335,64.0,85.0
198,58.37344825,58.890014110416665,71.0,92.0
199,58.734893750000005,59.004471852083334,67.0,87.0
200,56.204775250000004,59.02405015,52.0,78.0
201,59.09633925,60.06621800833334,52.0,85.0
202,59.45778475,60.075254145833334,59.0,82.0
203,59.819230250000004,60.186699841666666,64.0,86.0
204,60.18067575,60.490916470833334,71.0,87.0
205,60.54212125,60.98639801041667,62.0,85.0
206,60.54212125,60.987904033333336,69.0,86.0
207,60.54212125,60.993928125000004,66.0,87.0
208,60.54212125,61.552662627083336,50.0,83.0
209,61.265012250000005,61.78308413333333,69.0,86.0
210,61.265012250000005,61.79965038541667,62.0,85.0
211,61.265012250000005,61.84934914166667,66.0,83.0
212,61.98790325,62.311698177083336,69.0,88.0
213,61.98790325,62.5029630875,62.0,87.0
214,61.98790325,63.04061326875,47.0,80.0
215,62.349348750000004,63.0993481625,54.0,71.0
216,62.71079425,63.111396345833334,62.0,92.0
217,62.71079425,63.34633592083333,69.0,93.0
218,63.07223975,63.45326354791667,59.0,83.0
219,63.43368525,63.93217883541667,71.0,92.0
220,63.43368525,63.99693782083334,64.0,87.0
221,63.43368525,64.43217844375,52.0,83.0
222,64.15657625,64.53006993333334,71.0,88.0
223,64.15657625,64.63699756041667,64.0,93.0
224,64.87946725,65.14452728333333,60.0,88.0
225,64.87946725,65.21982842916667,67.0,92.0
226,65.60235825000001,65.91410499375,72.0,88.0
227,65.24091275,65.95326158958333,60.0,84.0
228,64.87946725,65.97886397916668,48.0,87.0
229,65.60235825000001,66.01350250625,64.0,89.0
230,66.32524925,66.8945259125,62.0,85.0
231,66.32524925,66.92314034791667,69.0,87.0
232,66.32524925,66.92916443958333,66.0,86.0
233,66.32524925,67.44874234583334,50.0,85.0
234,67.04814025,67.4909109875,69.0,89.0
235,67.04814025,67.49844110208333,66.0,90.0
236,67.04814025,67.51048928541667,62.0,88.0
237,67.77103125000001,68.16109118541667,69.0,88.0
238,67.77103125000001,68.19271766666667,62.0,88.0
239,67.77103125000001,68.75898228333334,47.0,90.0
240,68.13247675,68.85536775,54.0,69.0
241,68.49392225,68.8915123,62.0,92.0
242,68.49392225,68.95024719375,69.0,100.0
243,68.85536775,69.2529578,59.0,86.0
244,69.21681325,69.61741534583334,71.0,94.0
245,69.21681325,69.73639115625001,64.0,88.0
246,69.57825875,70.01048732708334,59.0,75.0
247,69.93970425,70.33277623125001,71.0,93.0
248,69.21681325,70.3463304375,52.0,87.0
249,69.93970425,70.43217374375,64.0,98.0
250,70.66259525,72.39150955833334,64.0,89.0
251,70.66259525,72.42765410833333,71.0,89.0
252,70.66259525,72.43518422291667,67.0,91.0
253,70.66259525,72.4788588875,52.0,87.0
254,70.30114975000001,72.48036491041667,59.0,70.0
255,73.55415925,74.00897817083333,71.0,91.0
256,73.55415925,74.03909862916667,64.0,91.0
257,73.91560475,74.37494173958333,59.0,81.0
258,74.27705025,74.65355597916667,64.0,100.0
259,73.55415925,74.70626678125001,52.0,91.0
260,74.27705025,74.81470043125,71.0,92.0
261,74.63849575,75.00747136458334,59.0,81.0
262,74.99994125,75.40054334583334,66.0,88.0
263,74.99994125,75.40506141458333,62.0,86.0
264,74.99994125,75.43969994166667,69.0,90.0
265,75.36138675000001,75.85686828958333,59.0,73.0
266,74.99994125,75.90054295416667,50.0,89.0
267,75.72283225,76.18518128541668,62.0,89.0
268,76.08427775,76.18668730833333,50.0,89.0
269,75.72283225,76.210783675,69.0,90.0
270,75.72283225,76.25295231666666,66.0,95.0
271,76.44572325,76.89301205625,62.0,88.0
272,76.44572325,76.93668672083334,69.0,91.0
273,76.44572325,76.95777104166667,66.0,95.0
274,76.9878915,77.26349369375001,59.0,84.0
275,76.44572325,77.51951758958333,47.0,85.0
276,76.80716875,77.57975850625,54.0,80.0
277,77.16861425,77.67011988125,62.0,107.0
278,77.16861425,77.78457762291667,69.0,113.0
279,77.53005975,77.90505945625,59.0,87.0
280,77.89150525000001,78.29060132291667,71.0,98.0
281,77.89150525000001,78.31770973541667,64.0,91.0
282,77.89150525000001,78.33879405625001,67.0,100.0
283,78.4336735,78.70626364791667,64.0,102.0
284,78.61439625,78.78005877083334,67.0,113.0
285,78.795119,78.90656469583334,69.0,90.0
286,78.25295075,78.92915503958334,59.0,86.0
287,77.89150525000001,79.01048027708333,52.0,86.0
288,78.97584175,79.25445598958333,71.0,113.0
289,79.33728725,79.5812629625,60.0,91.0
290,79.33728725,79.64752797083334,64.0,102.0
291,79.33728725,79.66861229166666,67.0,100.0
292,79.69873275,80.03758790625,60.0,81.0
293,79.33728725,80.37041897083334,48.0,87.0
294,80.06017825,80.39150329166667,64.0,100.0
295,80.06017825,80.43216591041667,71.0,108.0
296,80.42162375000001,80.69722594375,60.0,81.0
297,80.78306925,81.17312918541667,66.0,103.0
298,80.78306925,81.18668339166666,62.0,91.0
299,80.78306925,81.21529782708333,69.0,104.0
300,81.3252375,81.82674313125,57.0,84.0
301,80.78306925,81.87493586458334,50.0,91.0
302,81.50596025,81.90505632291666,62.0,102.0
303,81.50596025,81.91710450625,69.0,100.0
304,82.22885125,82.64601959791666,67.0,107.0
305,82.22885125,82.81168211875,59.0,102.0
306,82.77101950000001,83.14300716041667,55.0,94.0
307,82.95174225,83.28005524583334,60.0,113.0
308,82.22885125,83.4939105,43.0,90.0
309,83.31318775,83.65053688333333,62.0,96.0
310,82.59029675000001,83.70324768541667,50.0,86.0
311,83.67463325,83.83276565625,59.0,100.0
312,83.67463325,83.90505475625,67.0,108.0
313,84.2168015,84.34782549375001,62.0,114.0
314,83.855356,84.38397004375,55.0,87.0
315,84.39752425,84.43668084583334,62.0,87.0
316,84.39752425,84.66107826041667,71.0,120.0
317,83.67463325,84.71680110833334,43.0,92.0
318,84.578247,84.82674078125,62.0,88.0
319,84.578247,84.9487286375,55.0,96.0
320,84.75896975,84.96077682083333,69.0,116.0
321,84.9396925,85.07222251666667,67.0,104.0
322,85.12041525000001,85.43366801666667,64.0,107.0
323,85.12041525000001,85.47583665833334,71.0,117.0
324,85.48186075,85.86288454791666,59.0,74.0
325,85.84330625,86.19722163541667,64.0,107.0
326,85.12041525000001,86.22884811666667,52.0,89.0
327,85.84330625,86.42161905,71.0,110.0
328,86.20475175,86.60836589166666,59.0,84.0
329,86.56619725,87.07071492708333,62.0,92.0
330,86.56619725,87.14149800416666,69.0,96.0
331,87.28908825,87.61589522291666,69.0,113.0
332,86.56619725,87.68216023125001,50.0,87.0
333,87.28908825,87.70023250625,62.0,110.0
334,87.65053375000001,87.92011185208334,66.0,93.0
335,88.01197925,88.49390658333334,62.0,102.0
336,88.01197925,88.52553306458334,69.0,107.0
337,88.5541475,88.82974969375,59.0,89.0
338,88.01197925,89.042098925,47.0,87.0
339,88.73487025,89.09330370416667,62.0,116.0
340,88.37342475,89.12493018541667,54.0,79.0
341,88.73487025,89.36890589791668,69.0,119.0
342,89.45776125,89.49842386875,67.0,89.0
343,89.09631575,89.511978075,59.0,86.0
344,89.45776125,89.548122625,64.0,89.0
345,89.45776125,89.65354422916667,71.0,102.0
346,89.99992950000001,90.15806190625,71.0,87.0
347,90.18065225000001,90.32523045,64.0,87.0
348,89.81920675,90.45324239791667,59.0,81.0
349,89.45776125,90.48486887916667,52.0,86.0
350,90.18065225000001,90.57974832291667,79.0,114.0
351,90.36137500000001,90.63095310208334,71.0,98.0
352,90.54209775,90.68065185833333,74.0,91.0
353,90.7228205,90.84179631041667,76.0,88.0
354,91.26498875,91.70926551041667,60.0,86.0
355,91.62643425,91.96227736041666,72.0,104.0
356,91.62643425,91.9788436125,64.0,114.0
357,90.90354325,92.0330604375,48.0,96.0
358,91.98787975,92.23034943958334,60.0,81.0
359,92.34932525,92.51950583958333,62.0,89.0
360,92.34932525,92.63245755833334,69.0,96.0
361,92.8914935,93.24390286250001,62.0,87.0
362,92.71077075000001,93.415589475,57.0,75.0
363,92.34932525,93.42311958958334,50.0,88.0
364,93.07221625,93.63095075208334,66.0,103.0
365,93.07221625,93.67311939375,74.0,88.0
366,93.43366175,93.68968564583334,69.0,77.0
367,94.15655275,94.33878152291668,64.0,88.0
368,94.3372755,94.43667301250001,67.0,93.0
369,94.51799825,94.6264319,71.0,98.0
370,94.698721,94.80263658125,67.0,90.0
371,95.06016650000001,95.17462424166666,69.0,91.0
372,95.24088925000001,95.49088905416667,74.0,110.0
373,95.421612,95.56920224583334,67.0,88.0
374,95.60233475,95.71528646875001,71.0,100.0
375,95.7830575,95.8463104625,72.0,86.0
376,95.7830575,95.86739478333334,74.0,94.0
377,95.421612,95.86890080625,64.0,88.0
378,95.96378025,96.03908139583334,79.0,96.0
379,95.96378025,96.24992460416667,64.0,85.0
380,96.144503,96.26649085625,74.0,96.0
381,95.96378025,96.26950290208333,71.0,94.0
382,94.15655275,96.41408110208333,59.0,87.0
383,93.79510725,96.415587125,52.0,92.0
384,96.32522575,96.49992440833334,76.0,91.0
385,96.5059485,96.63094840208333,79.0,100.0
386,96.68667125,96.88998434375,79.0,86.0
387,96.68667125,96.92914093958333,71.0,102.0
388,97.04811675,97.47733328125,59.0,79.0
389,97.40956225000001,97.69118853541667,64.0,86.0
390,97.40956225000001,97.71980297083334,76.0,102.0
391,97.40956225000001,97.75745354375,67.0,113.0
392,96.68667125,97.85986310208334,52.0,94.0
393,97.77100775000001,98.15805563958334,59.0,80.0
394,98.13245325,98.50895897916666,66.0,103.0
395,98.13245325,98.56166978125,74.0,96.0
396,98.85534425,99.12341632916667,66.0,109.0
397,98.13245325,99.1896813375,50.0,88.0
398,98.85534425,99.20172952083334,74.0,100.0
399,99.21678975,99.55112683750001,69.0,86.0
400,99.57823525,99.73184958750001,74.0,96.0
401,100.30112625,100.46980081666666,66.0,100.0
402,99.758958,100.49690922916668,54.0,84.0
403,99.93968075000001,100.5541381,59.0,88.0
404,100.30112625,100.55715014583333,62.0,107.0
405,99.57823525,100.59781276458334,47.0,88.0
406,100.481849,100.86287279791667,67.0,94.0
407,101.02401725,101.55564333958334,71.0,100.0
408,101.02401725,101.57371561458334,64.0,89.0
409,101.74690825,102.00443816875,64.0,113.0
410,101.927631,102.05263090208334,67.0,100.0
411,101.5661855,102.08576340625001,59.0,87.0
412,101.02401725,102.1535344375,52.0,88.0
413,102.10835375,102.28305240833333,69.0,110.0
414,102.46979925000001,102.83124475,64.0,91.0
415,102.28907650000001,102.85082304791666,71.0,93.0
416,102.83124475,103.18666615833334,60.0,84.0
417,102.46979925000001,103.57220802500001,48.0,89.0
418,103.19269025,103.57220802500001,72.0,102.0
419,103.19269025,103.5902803,64.0,108.0
420,103.55413575,103.82070180625,60.0,86.0
421,103.91558125,104.35082187291667,62.0,92.0
422,103.91558125,104.43365313333334,69.0,98.0
423,104.27702675,104.68666498333333,57.0,80.0
424,103.91558125,104.85533955,50.0,87.0
425,104.63847225,104.95774910833333,69.0,107.0
426,104.63847225,105.27401392083334,62.0,113.0
427,105.36136325,105.56467634375001,67.0,100.0
428,105.36136325,105.83274842291667,59.0,110.0
429,106.08425425,106.283049275,57.0,113.0
430,105.9035315,106.31316973333334,55.0,98.0
431,106.264977,106.33877212291667,59.0,107.0
432,106.44569975,106.6264225,62.0,113.0
433,106.6264225,106.72280796666666,67.0,102.0
434,106.80714525,106.9155789,69.0,116.0
435,106.987868,107.09479562708334,71.0,113.0
436,107.16859075,107.28455451458333,67.0,102.0
437,106.80714525,107.367385775,55.0,88.0
438,107.34931350000001,107.47732544791667,69.0,108.0
439,105.36136325,107.73786741250001,43.0,86.0
440,107.53003625000001,107.76196377916666,74.0,119.0
441,105.72280875,107.80413242083334,50.0,84.0
442,107.53003625000001,107.84178299375,55.0,94.0
443,107.710759,107.84931310833333,69.0,107.0
444,107.89148175,108.05865029375,71.0,94.0
445,108.25292725,108.33575851041667,65.0,94.0
446,108.25292725,108.38244522083333,72.0,88.0
447,108.25292725,108.52702342083333,64.0,100.0
448,108.25292725,108.6234088875,67.0,87.0
449,108.25292725,108.62943297916667,71.0,96.0
450,108.0722045,108.6505173,74.0,104.0
451,108.61437275,108.93515563125,59.0,77.0
452,108.97581825,109.31617942916667,64.0,114.0
453,108.97581825,109.36738420833333,74.0,107.0
454,108.25292725,109.39599864375,52.0,91.0
455,109.33726375,109.68666106666667,59.0,84.0
456,109.69870925000001,109.83575733541667,71.0,94.0
457,109.69870925000001,110.26798591250001,62.0,100.0
458,109.69870925000001,110.30563648541667,66.0,109.0
459,109.69870925000001,110.31768466875,69.0,98.0
460,109.69870925000001,110.75292529166667,50.0,80.0
461,110.42160025,110.87943121666667,62.0,98.0
462,110.42160025,110.88846735416666,69.0,110.0
463,110.42160025,111.00443111875,66.0,91.0
464,111.14449125,111.60834630833334,62.0,88.0
465,111.14449125,111.67310529375,69.0,100.0
466,111.6866595,111.9487074875,57.0,91.0
467,111.14449125,112.174610925,47.0,87.0
468,111.50593675,112.2559361625,54.0,81.0
469,111.86738225,112.2559361625,69.0,114.0
470,111.86738225,112.28003252916668,62.0,108.0
471,112.22882775000001,112.46828539375001,66.0,87.0
472,112.22882775000001,112.56768290625,57.0,88.0
473,112.59027325000001,112.9788271625,71.0,102.0
474,112.59027325000001,113.09629695000001,64.0,89.0
475,112.59027325000001,113.1595499125,67.0,107.0
476,113.31316425,113.53756166458334,71.0,104.0
477,113.31316425,113.56165803125,64.0,114.0
478,113.1324415,113.59780258125001,59.0,87.0
479,112.59027325000001,113.61286281041667,52.0,85.0
480,113.493887,113.71226032291666,67.0,93.0
481,113.67460975,113.9366577375,71.0,104.0
482,114.03605525,114.216778,60.0,93.0
483,114.03605525,114.2890671,64.0,108.0
484,114.03605525,114.33274176458333,67.0,108.0
485,114.57822350000001,114.87792206041667,60.0,89.0
486,114.03605525,115.1294278875,48.0,86.0
487,114.75894625000001,115.13545197916667,72.0,107.0
488,114.75894625000001,115.15954834583334,64.0,116.0
489,115.12039175000001,115.39900598958333,67.0,86.0
490,115.12039175000001,115.40503008125,60.0,89.0
491,115.48183725,115.95322242291667,62.0,96.0
492,115.48183725,115.98786095,66.0,109.0
493,115.48183725,115.99388504166667,69.0,100.0
494,116.0240055,116.35533054166667,57.0,79.0
495,115.48183725,116.58725807083334,50.0,89.0
496,116.20472825,116.73334229375,62.0,102.0
497,116.20472825,116.77249888958333,69.0,113.0
498,117.28906475000001,117.80713663333334,59.0,79.0
499,117.65051025,117.95322085625,67.0,108.0
500,118.01195575,118.32370249375,69.0,91.0
501,118.37340125,119.72882187500001,71.0,91.0
502,118.37340125,119.73032789791667,64.0,87.0
503,118.37340125,119.76346040208334,67.0,88.0
504,118.37340125,119.8101471125,59.0,81.0
505,116.92761925,119.837255525,52.0,92.0
506,119.81918325000001,119.837255525,52.0,83.0
507,120.18062875,120.49237549375,59.0,61.0
508,119.81918325000001,120.82821860416666,40.0,75.0
509,120.54207425,121.02851965208333,67.0,78.0
510,120.54207425,121.2288207,64.0,71.0
511,120.90351975,121.30261582291666,59.0,71.0
512,121.62641075,121.98484420416666,57.0,66.0
513,121.26496525,122.02400080000001,50.0,85.0
514,121.26496525,122.22881991666667,38.0,80.0
515,121.98785625000001,122.4577354,66.0,79.0
516,122.34930175000001,122.47731369791667,57.0,73.0
517,121.98785625000001,122.47881972083334,62.0,72.0
518,123.07219275,123.46827677708333,59.0,51.0
519,123.43363825,123.46827677708333,59.0,84.0
520,122.71074725,123.79207170416667,47.0,84.0
521,123.79508375,123.86887887291667,59.0,65.0
522,123.43363825,124.13544492916667,62.0,74.0
523,123.43363825,124.18966175416666,66.0,79.0
524,124.51797475000001,124.92309491458333,52.0,51.0
525,124.15652925,125.20472120000001,40.0,68.0
526,125.24086575,125.33574519375,52.0,45.0
527,124.87942025000001,125.33875723958333,67.0,80.0
528,124.87942025000001,125.51345589791667,64.0,75.0
529,124.87942025000001,125.60682931875,59.0,77.0
530,125.96375675,126.31014202083334,48.0,51.0
531,126.32520225,126.5511056875,55.0,81.0
532,125.60231125,126.68363570416668,36.0,69.0
533,126.505925,126.68815377291666,48.0,59.0
534,126.68664775,127.03303302083334,55.0,53.0
535,126.32520225,127.0571293875,60.0,77.0
536,126.32520225,127.08574382291667,64.0,83.0
537,127.40953875000001,127.81917698333334,50.0,61.0
538,127.04809325000001,128.17158634583333,38.0,85.0
539,128.13242975,128.18212850625,50.0,57.0
540,127.77098425,128.46224876875002,57.0,88.0
541,127.77098425,128.46375479166667,62.0,80.0
542,127.77098425,128.475802975,66.0,89.0
543,128.49387525,129.30863364791668,67.0,82.0
544,128.49387525,129.42760945833334,59.0,76.0
545,129.57821175,129.99688612083332,60.0,78.0
546,129.93965725,130.36736775833333,45.0,85.0
547,129.93965725,130.391464125,57.0,83.0
548,129.93965725,130.81164451875,59.0,86.0
549,130.66254825000001,130.81164451875,59.0,94.0
550,128.85532075,130.87489748125,50.0,38.0
551,128.49387525,130.89899384791667,43.0,67.0
552,129.93965725,130.95923476458333,67.0,78.0
553,129.21676625,131.01194556666667,55.0,70.0
554,130.66254825000001,131.36887299791667,47.0,91.0
555,131.38543925,132.14146275416667,52.0,90.0
556,131.74688475,132.18061935,59.0,53.0
557,131.38543925,132.44869142916667,40.0,88.0
558,132.289053,132.47278779583334,52.0,62.0
559,132.10833025,132.80260681458333,67.0,82.0
560,132.10833025,132.81766704375,64.0,77.0
561,132.46977575,132.87489591458333,59.0,69.0
562,132.83122125,133.57820861666667,50.0,76.0
563,133.19266675,133.64899169375,57.0,68.0
564,132.83122125,133.90501558958334,38.0,76.0
565,133.734835,133.91856979583335,50.0,64.0
566,133.55411225,134.3221839375,66.0,91.0
567,133.91555775,134.32368996041666,57.0,68.0
568,133.55411225,134.32820802916666,62.0,72.0
569,134.27700325,134.34778632708333,48.0,49.0
570,134.27700325,134.66254511666668,47.0,72.0
571,134.8191715,135.02850868541668,47.0,75.0
572,134.63844875,135.06013516666667,59.0,72.0
573,134.27700325,135.23031575625,35.0,71.0
574,135.180617,135.26495428333334,47.0,59.0
575,134.99989425,135.50742397291668,71.0,80.0
576,134.99989425,135.66706240208333,62.0,74.0
577,135.36133975,135.75441173125,59.0,62.0
578,134.99989425,135.77097798333332,66.0,76.0
579,135.72278525000002,136.10983313958334,52.0,77.0
580,136.2649535,136.51495330416668,52.0,71.0
581,135.72278525000002,136.60531467916667,40.0,64.0
582,136.626399,136.71826639791666,52.0,67.0
583,136.80712175,136.89145903333335,50.0,72.0
584,136.80712175,136.89597710208335,38.0,72.0
585,136.08423075000002,136.90200119375,59.0,67.0
586,136.44567625,136.90953130833333,64.0,80.0
587,136.44567625,136.91404937708333,67.0,86.0
588,137.16856725,137.53754286458334,48.0,72.0
589,137.53001275,137.873385975,55.0,71.0
590,137.7107355,137.909530525,48.0,76.0
591,137.16856725,138.13693998541666,36.0,79.0
592,138.072181,138.15200021458332,48.0,53.0
593,137.89145825,138.60380708958334,64.0,84.0
594,137.89145825,138.62037334166666,60.0,84.0
595,138.25290375,138.64446970833333,55.0,68.0
596,137.89145825,138.65199982291668,67.0,87.0
597,138.97579475,139.10681874375,50.0,72.0
598,139.1565175,139.49386663333334,57.0,80.0
599,139.517963,139.69717972708332,50.0,81.0
600,138.61434925,139.71374597916667,38.0,84.0
601,139.33724025,139.81916758333332,69.0,89.0
602,139.33724025,139.90501088958334,66.0,89.0
603,139.33724025,140.05260113541667,62.0,91.0
604,139.69868575,140.07368545625,57.0,67.0
605,140.06013125,140.42007072708333,71.0,74.0
606,140.06013125,140.43362493333333,59.0,76.0
607,140.06013125,140.44266107083334,67.0,68.0
608,140.06013125,140.47729959791667,64.0,68.0
609,140.60229950000002,140.7016970125,59.0,67.0
610,140.42157675,140.80862463958334,52.0,71.0
611,140.06013125,141.18362434583335,40.0,59.0
612,140.96374500000002,141.18513036875,52.0,57.0
613,140.78302225000002,141.58573246458334,67.0,87.0
614,141.14446775,141.5872384875,59.0,65.0
615,140.78302225000002,141.87488886458334,71.0,89.0
616,140.78302225000002,141.8944671625,64.0,83.0
617,142.0480815,142.2016958375,59.0,81.0
618,141.86735875,142.22278015833334,52.0,69.0
619,141.50591325,142.58874372708334,40.0,79.0
620,142.409527,142.61434611666667,52.0,83.0
621,142.22880425,142.66253885,67.0,84.0
622,142.22880425,142.6715749875,71.0,83.0
623,142.59024975,142.67759907916667,59.0,67.0
624,142.22880425,142.68362317083333,64.0,85.0
625,142.95169525,143.40350212500002,71.0,84.0
626,142.95169525,143.45922497291667,64.0,85.0
627,142.95169525,143.52398395833333,67.0,83.0
628,143.67458625,144.10832085,64.0,87.0
629,143.67458625,144.13241721666668,71.0,86.0
630,143.67458625,144.33271826458335,67.0,86.0
631,142.95169525,144.34175440208332,52.0,82.0
632,144.39747725,144.97729607291666,62.0,86.0
633,144.39747725,144.99838039375,69.0,86.0
634,144.39747725,145.03452494375,66.0,86.0
635,145.12036825,145.54506671250002,62.0,84.0
636,145.12036825,145.62940399583334,66.0,86.0
637,145.12036825,145.71524730208333,69.0,86.0
638,144.39747725,145.72880150833333,50.0,81.0
639,145.84325925000002,146.19566861250001,71.0,87.0
640,145.84325925000002,146.48633103541667,64.0,85.0
641,145.84325925000002,146.5209695625,67.0,81.0
642,146.56615025,146.94416200208335,71.0,87.0
643,146.56615025,146.95018609375,64.0,86.0
644,146.56615025,146.95922223125,67.0,85.0
645,146.92759575,147.415547175,59.0,74.0
646,147.28904125,147.7318119875,71.0,84.0
647,147.28904125,147.73633005625,62.0,87.0
648,147.28904125,147.80560711041667,67.0,86.0
649,147.65048675,148.28000432916667,59.0,72.0
650,145.84325925000002,148.37187172708335,52.0,85.0
651,148.01193225,148.49536560625,71.0,86.0
652,148.01193225,148.5269920875,64.0,87.0
653,148.37337775,148.64747392083333,67.0,83.0
654,148.73482325,149.24687104166668,62.0,86.0
655,148.73482325,149.30560593541668,66.0,83.0
656,148.73482325,149.30711195833334,69.0,86.0
657,148.73482325,149.9004849875,50.0,83.0
658,149.45771425,150.01042466041667,62.0,83.0
659,149.45771425,150.06012341666667,69.0,88.0
660,149.45771425,150.06765353125002,66.0,87.0
661,150.18060525,150.5691591625,62.0,84.0
662,150.18060525,150.60831575833333,69.0,83.0
663,150.18060525,150.62186996458334,66.0,86.0
664,150.54205075000002,151.19114662708333,57.0,78.0
665,150.18060525,151.28753209375,50.0,81.0
666,150.90349625000002,151.30560436875,69.0,88.0
667,150.90349625000002,151.32367664375,62.0,87.0
668,150.90349625000002,151.4185560875,66.0,89.0
669,151.62638725,152.12638685833335,71.0,83.0
670,151.62638725,152.17006152291668,64.0,82.0
671,151.62638725,152.21223016458333,67.0,81.0
672,152.34927825,152.7559044375,71.0,67.0
673,152.34927825,152.88692843125,64.0,78.0
674,152.34927825,152.92457900416667,67.0,75.0
675,153.07216925,153.45620509375001,71.0,87.0
676,153.07216925,153.57518090416667,64.0,90.0
677,153.43361475,153.80560241041667,67.0,86.0
678,153.79506025,154.15951779583332,64.0,85.0
679,153.79506025,154.31162611041668,71.0,92.0
680,154.15650575,154.42608385208334,67.0,87.0
681,151.62638725,154.44566215,52.0,78.0
682,154.51795125,155.48783000833333,52.0,85.0
683,154.87939675,155.49686614583334,59.0,82.0
684,155.24084225000001,155.60831184166668,64.0,86.0
685,155.60228775000002,155.91252847083334,71.0,87.0
686,155.96373325000002,156.40801001041666,62.0,85.0
687,155.96373325000002,156.40951603333335,69.0,86.0
688,155.96373325000002,156.415540125,66.0,87.0
689,155.96373325000002,156.97427462708333,50.0,83.0
690,156.68662425,157.20469613333333,69.0,86.0
691,156.68662425,157.22126238541668,62.0,85.0
692,156.68662425,157.27096114166667,66.0,83.0
693,157.40951525,157.73331017708333,69.0,88.0
694,157.40951525,157.92457508750002,62.0,87.0
695,157.40951525,158.46222526875002,47.0,80.0
696,157.77096075,158.52096016250002,54.0,71.0
697,158.13240625,158.53300834583334,62.0,92.0
698,158.13240625,158.76794792083334,69.0,93.0
699,158.49385175,158.87487554791667,59.0,83.0
700,158.85529725,159.23330900208333,52.0,83.0
701,159.3974655,159.61282677708334,52.0,87.0
702,159.3974655,159.61282677708334,79.0,92.0
703,159.3974655,159.61583882291666,67.0,92.0
704,159.3974655,159.63089905208335,71.0,84.0
705,159.758911,159.99686262083333,52.0,77.0
706,158.85529725,159.99836864375,40.0,80.0
707,159.93963375,160.26041663125,67.0,73.0
708,159.93963375,160.283006975,71.0,55.0
709,159.93963375,160.30409129583333,78.0,87.0
710,160.30107925000002,160.56613928333334,60.0,88.0
711,160.30107925000002,160.64144042916666,67.0,92.0
712,161.02397025,161.33571699375,72.0,88.0
713,160.66252475000002,161.37487358958333,60.0,84.0
714,160.30107925000002,161.40047597916666,48.0,87.0
715,161.02397025,161.43511450625002,64.0,89.0
716,161.74686125,162.3161379125,62.0,85.0
717,161.74686125,162.34475234791668,69.0,87.0
718,161.74686125,162.35077643958334,66.0,86.0
719,161.74686125,162.87035434583333,50.0,85.0
720,162.46975225,162.9125229875,69.0,89.0
721,162.46975225,162.92005310208333,66.0,90.0
722,162.46975225,162.93210128541668,62.0,88.0
723,163.19264325,163.58270318541668,69.0,88.0
724,163.19264325,163.61432966666666,62.0,88.0
725,163.19264325,164.18059428333333,47.0,90.0
726,163.55408875,164.27697975,54.0,69.0
727,163.91553425,164.3131243,62.0,92.0
728,163.91553425,164.37185919375,69.0,100.0
729,164.27697975,164.6745698,59.0,86.0
730,164.63842525,165.03902734583335,71.0,94.0
731,164.63842525,165.15800315625,64.0,88.0
732,164.99987075,165.43209932708334,59.0,75.0
733,165.36131625000002,165.75438823125,71.0,93.0
734,164.63842525,165.7679424375,52.0,87.0
735,165.36131625000002,165.85378574375,64.0,98.0
736,166.08420725,167.81312155833334,64.0,89.0
737,166.08420725,167.84926610833332,71.0,89.0
738,166.08420725,167.85679622291667,67.0,91.0
739,166.08420725,167.9004708875,52.0,87.0
740,165.72276175000002,167.90197691041666,59.0,70.0
741,168.97577125,169.43059017083334,71.0,91.0
742,168.97577125,169.46071062916667,64.0,91.0
743,169.33721675,169.79655373958335,59.0,81.0
744,169.69866225,170.07516797916668,64.0,100.0
745,168.97577125,170.12787878125002,52.0,91.0
746,169.69866225,170.23631243125,71.0,92.0
747,170.06010775000001,170.42908336458333,59.0,81.0
748,170.42155325000002,170.82215534583335,66.0,88.0
749,170.42155325000002,170.82667341458333,62.0,86.0
750,170.42155325000002,170.86131194166668,69.0,90.0
751,170.78299875000002,171.27848028958334,59.0,73.0
752,170.42155325000002,171.32215495416668,50.0,89.0
753,171.14444425,171.60679328541667,62.0,89.0
754,171.50588975,171.60829930833333,50.0,89.0
755,171.14444425,171.632395675,69.0,90.0
756,171.14444425,171.67456431666668,66.0,95.0
757,171.86733525,172.31462405625,62.0,88.0
758,171.86733525,172.35829872083335,69.0,91.0
759,171.86733525,172.37938304166667,66.0,95.0
760,172.4095035,172.68510569375002,59.0,84.0
761,171.86733525,172.94112958958334,47.0,85.0
762,172.22878075,173.00137050625,54.0,80.0
763,172.59022625,173.09173188125,62.0,107.0
764,172.59022625,173.20618962291667,69.0,113.0
765,172.95167175,173.32667145625,59.0,87.0
766,173.31311725,173.71221332291668,71.0,98.0
767,173.31311725,173.73932173541667,64.0,91.0
768,173.31311725,173.76040605625,67.0,100.0
769,173.8552855,174.12787564791668,64.0,102.0
770,174.03600825,174.20167077083335,67.0,113.0
771,174.216731,174.32817669583335,69.0,90.0
772,173.67456275,174.35076703958333,59.0,86.0
773,173.31311725,174.43209227708334,52.0,86.0
774,174.39745375,174.67606798958334,71.0,113.0
775,174.75889925,175.00287496250002,60.0,91.0
776,174.75889925,175.06913997083333,64.0,102.0
777,174.75889925,175.09022429166666,67.0,100.0
778,175.12034475000002,175.45919990625,60.0,81.0
779,174.75889925,175.79203097083334,48.0,87.0
780,175.48179025000002,175.81311529166666,64.0,100.0
781,175.48179025000002,175.85377791041668,71.0,108.0
782,175.84323575,176.11883794375,60.0,81.0
783,176.20468125,176.59474118541667,66.0,103.0
784,176.20468125,176.60829539166667,62.0,91.0
785,176.20468125,176.63690982708334,69.0,104.0
786,176.7468495,177.24835513125,57.0,84.0
787,176.20468125,177.29654786458335,50.0,91.0
788,176.92757225,177.32666832291667,62.0,102.0
789,176.92757225,177.33871650625,69.0,100.0
790,177.65046325,178.06763159791666,67.0,107.0
791,177.65046325,178.23329411875,59.0,102.0
792,178.1926315,178.56461916041667,55.0,94.0
793,178.37335425,178.70166724583333,60.0,113.0
794,177.65046325,178.9155225,43.0,90.0
795,178.73479975,179.07214888333334,62.0,96.0
796,178.01190875,179.12485968541668,50.0,86.0
797,179.09624525,179.25437765625,59.0,100.0
798,179.09624525,179.32666675625,67.0,108.0
799,179.6384135,179.76943749375002,62.0,114.0
800,179.276968,179.80558204375,55.0,87.0
801,179.81913625,179.85829284583335,62.0,87.0
802,179.81913625,180.08269026041668,71.0,120.0
803,179.09624525,180.13841310833334,43.0,92.0
804,179.99985900000001,180.24835278125,62.0,88.0
805,179.99985900000001,180.3703406375,55.0,96.0
806,180.18058175000002,180.38238882083334,69.0,116.0
807,180.36130450000002,180.49383451666668,67.0,104.0
808,180.54202725000002,180.85528001666668,64.0,107.0
809,180.54202725000002,180.89744865833333,71.0,117.0
810,180.90347275,181.28449654791666,59.0,74.0
811,181.26491825,181.61883363541668,64.0,107.0
812,180.54202725000002,181.65046011666666,52.0,89.0
813,181.26491825,181.84323105,71.0,110.0
814,181.62636375,182.02997789166668,59.0,84.0
815,181.98780925,182.49232692708333,62.0,92.0
816,181.98780925,182.56311000416667,69.0,96.0
817,182.71070025,183.03750722291667,69.0,113.0
818,181.98780925,183.10377223125,50.0,87.0
819,182.71070025,183.12184450625,62.0,110.0
820,183.07214575,183.34172385208333,66.0,93.0
821,183.43359125,183.91551858333335,62.0,102.0
822,183.43359125,183.94714506458334,69.0,107.0
823,183.9757595,184.25136169375,59.0,89.0
824,183.43359125,184.46371092500002,47.0,87.0
825,184.15648225,184.51491570416667,62.0,116.0
826,183.79503675,184.54654218541668,54.0,79.0
827,184.15648225,184.79051789791666,69.0,119.0
828,184.87937325000001,184.92003586875,67.0,89.0
829,184.51792775,184.933590075,59.0,86.0
830,184.87937325000001,184.969734625,64.0,89.0
831,184.87937325000001,185.07515622916668,71.0,102.0
832,185.42154150000002,185.57967390625,71.0,87.0
833,185.60226425000002,185.74684245,64.0,87.0
834,185.24081875000002,185.87485439791666,59.0,81.0
835,184.87937325000001,185.90648087916668,52.0,86.0
836,185.60226425000002,186.00136032291667,79.0,114.0
837,185.782987,186.05256510208335,71.0,98.0
838,185.96370975,186.10226385833334,74.0,91.0
839,186.1444325,186.26340831041668,76.0,88.0
840,186.68660075,187.13087751041667,60.0,86.0
841,187.04804625,187.38388936041667,72.0,104.0
842,187.04804625,187.4004556125,64.0,114.0
843,186.32515525,187.4546724375,48.0,96.0
844,187.40949175,187.65196143958335,60.0,81.0
845,187.77093725,187.94111783958334,62.0,89.0
846,187.77093725,188.05406955833334,69.0,96.0
847,188.3131055,188.6655148625,62.0,87.0
848,188.13238275,188.837201475,57.0,75.0
849,187.77093725,188.84473158958335,50.0,88.0
850,188.49382825,189.05256275208333,66.0,103.0
851,188.49382825,189.09473139375,74.0,88.0
852,188.85527375,189.11129764583333,69.0,77.0
853,189.57816475,189.76039352291667,64.0,88.0
854,189.75888750000001,189.8582850125,67.0,93.0
855,189.93961025000002,190.0480439,71.0,98.0
856,190.12033300000002,190.22424858125,67.0,90.0
857,190.48177850000002,190.59623624166667,69.0,91.0
858,190.66250125,190.91250105416668,74.0,110.0
859,190.843224,190.99081424583335,67.0,88.0
860,191.02394675,191.13689846875002,71.0,100.0
861,191.2046695,191.2679224625,72.0,86.0
862,191.2046695,191.28900678333335,74.0,94.0
863,190.843224,191.29051280625,64.0,88.0
864,191.38539225,191.46069339583335,79.0,96.0
865,191.38539225,191.67153660416668,64.0,85.0
866,191.566115,191.68810285625,74.0,96.0
867,191.38539225,191.69111490208334,71.0,94.0
868,189.57816475,191.83569310208333,59.0,87.0
869,189.21671925,191.837199125,52.0,92.0
870,191.74683775,191.92153640833334,76.0,91.0
871,191.9275605,192.05256040208334,79.0,100.0
872,192.10828325,192.31159634375,79.0,86.0
873,192.10828325,192.35075293958334,71.0,102.0
874,192.46972875,192.89894528125,59.0,79.0
875,192.83117425,193.11280053541668,64.0,86.0
876,192.83117425,193.14141497083335,76.0,102.0
877,192.83117425,193.17906554375,67.0,113.0
878,192.10828325,193.28147510208333,52.0,94.0
879,193.19261975,193.57966763958333,59.0,80.0
880,193.55406525,193.93057097916667,66.0,103.0
881,193.55406525,193.98328178125,74.0,96.0
882,194.27695625,194.54502832916668,66.0,109.0
883,193.55406525,194.6112933375,50.0,88.0
884,194.27695625,194.62334152083335,74.0,100.0
885,194.63840175,194.9727388375,69.0,86.0
886,194.99984725000002,195.1534615875,74.0,96.0
887,195.72273825,195.89141281666667,66.0,100.0
888,195.18057000000002,195.91852122916669,54.0,84.0
889,195.36129275000002,195.9757501,59.0,88.0
890,195.72273825,195.97876214583334,62.0,107.0
891,194.99984725000002,196.01942476458333,47.0,88.0
892,195.903461,196.28448479791666,67.0,94.0
893,196.44562925,196.97725533958334,71.0,100.0
894,196.44562925,196.99532761458335,64.0,89.0
895,197.16852025,197.42605016875,64.0,113.0
896,197.349243,197.47424290208335,67.0,100.0
897,196.9877975,197.50737540625,59.0,87.0
898,196.44562925,197.5751464375,52.0,88.0
899,197.52996575,197.70466440833334,69.0,110.0
900,197.89141125,198.25285675,64.0,91.0
901,197.7106885,198.27243504791667,71.0,93.0
902,198.25285675,198.60827815833335,60.0,84.0
903,197.89141125,198.99382002500002,48.0,89.0
904,198.61430225,198.99382002500002,72.0,102.0
905,198.61430225,199.0118923,64.0,108.0
906,198.97574775,199.24231380625,60.0,86.0
907,199.33719325,199.77243387291668,62.0,92.0
908,199.33719325,199.85526513333335,69.0,98.0
909,199.69863875000001,200.10827698333333,57.0,80.0
910,199.33719325,200.27695155,50.0,87.0
911,200.06008425000002,200.37936110833334,69.0,107.0
912,200.06008425000002,200.69562592083335,62.0,113.0
913,200.78297525,200.98628834375,67.0,100.0
914,200.78297525,201.25436042291668,59.0,110.0
915,201.50586625,201.704661275,57.0,113.0
916,201.3251435,201.73478173333334,55.0,98.0
917,201.686589,201.76038412291666,59.0,107.0
918,201.86731175,202.0480345,62.0,113.0
919,202.0480345,202.14441996666667,67.0,102.0
920,202.22875725,202.3371909,69.0,116.0
921,202.40948,202.51640762708334,71.0,113.0
922,202.59020275,202.70616651458334,67.0,102.0
923,202.22875725,202.788997775,55.0,88.0
924,202.7709255,202.89893744791667,69.0,108.0
925,200.78297525,203.15947941250002,43.0,86.0
926,202.95164825,203.18357577916666,74.0,119.0
927,201.14442075,203.22574442083334,50.0,84.0
928,202.95164825,203.26339499375,55.0,94.0
929,203.132371,203.27092510833333,69.0,107.0
930,203.31309375,203.48026229375,71.0,94.0
931,203.67453925,203.94863542083334,64.0,100.0
932,203.67453925,204.04502088750002,67.0,87.0
933,203.67453925,204.05104497916668,71.0,96.0
934,203.4938165,204.0721293,74.0,104.0
935,204.03598475,204.35676763125,59.0,77.0
936,204.39743025,204.73779142916666,64.0,114.0
937,204.39743025,204.78899620833334,74.0,107.0
938,203.67453925,204.81761064375002,52.0,91.0
939,204.75887575000002,205.10827306666667,59.0,84.0
940,205.12032125000002,205.25736933541668,71.0,94.0
941,205.12032125000002,205.6895979125,62.0,100.0
942,205.12032125000002,205.72724848541668,66.0,109.0
943,205.12032125000002,205.73929666875,69.0,98.0
944,205.12032125000002,206.17453729166667,50.0,80.0
945,205.84321225,206.30104321666667,62.0,98.0
946,205.84321225,206.31007935416667,69.0,110.0
947,205.84321225,206.42604311875002,66.0,91.0
948,206.56610325,207.02995830833333,62.0,88.0
949,206.56610325,207.09471729375,69.0,100.0
950,207.1082715,207.3703194875,57.0,91.0
951,206.56610325,207.596222925,47.0,87.0
952,206.92754875,207.67754816250002,54.0,81.0
953,207.28899425,207.67754816250002,69.0,114.0
954,207.28899425,207.70164452916669,62.0,108.0
955,207.65043975,207.88989739375,66.0,87.0
956,207.65043975,207.98929490625,57.0,88.0
957,208.01188525,208.4004391625,71.0,102.0
958,208.01188525,208.51790895,64.0,89.0
959,208.01188525,208.5811619125,67.0,107.0
960,208.73477625,208.95917366458335,71.0,104.0
961,208.73477625,208.98327003125002,64.0,114.0
962,208.5540535,209.01941458125,59.0,87.0
963,208.01188525,209.03447481041667,52.0,85.0
964,208.915499,209.13387232291666,67.0,93.0
965,209.09622175,209.3582697375,71.0,104.0
966,209.45766725000001,209.63839000000002,60.0,93.0
967,209.45766725000001,209.7106791,64.0,108.0
968,209.45766725000001,209.75435376458333,67.0,108.0
969,209.99983550000002,210.29953406041668,60.0,89.0
970,209.45766725000001,210.5510398875,48.0,86.0
971,210.18055825000002,210.55706397916668,72.0,107.0
972,210.18055825000002,210.58116034583333,64.0,116.0
973,210.54200375,210.82061798958333,67.0,86.0
974,210.54200375,210.82664208125001,60.0,89.0
975,210.90344925,211.37483442291668,62.0,96.0
976,210.90344925,211.40947295,66.0,109.0
977,210.90344925,211.41549704166667,69.0,100.0
978,211.4456175,211.77694254166667,57.0,79.0
979,210.90344925,212.00887007083332,50.0,89.0
980,211.62634025,212.15495429375,62.0,102.0
981,211.62634025,212.19411088958333,69.0,113.0
982,212.71067675,213.22874863333334,59.0,79.0
983,213.07212225,213.37483285625,67.0,108.0
984,213.43356775,213.74531449375002,69.0,91.0
985,213.79501325,215.150433875,71.0,91.0
986,213.79501325,215.15193989791666,64.0,87.0
987,213.79501325,215.18507240208334,67.0,88.0
988,213.79501325,215.23175911250001,59.0,81.0
989,212.34923125,215.258867525,52.0,92.0
990,215.24079525000002,215.258867525,52.0,86.0
991,215.60224075,216.26790287916668,59.0,76.0
992,215.96368625,216.596215875,64.0,78.0
993,216.32513175,217.13236003333333,71.0,88.0
994,217.04802275,217.67754032916667,62.0,73.0
995,216.68657725,217.78597397916667,50.0,84.0
996,217.40946825,218.41549155833334,69.0,84.0
997,217.77091375,218.49079270416667,66.0,86.0
998,218.13235925,219.10976812291668,47.0,83.0
999,218.49380475,219.19711745208335,54.0,80.0
1000,218.85525025,219.57211715833333,69.0,92.0
1001,219.21669575,219.63687614375002,66.0,84.0
1002,219.93958675000002,220.5992247875,59.0,78.0
1003,219.57814125000002,220.65042956666667,52.0,88.0
1004,220.30103225000002,221.01940518125,67.0,108.0
1005,220.66247775,221.06609189166667,64.0,88.0
1006,221.74681425,222.13386213958333,60.0,87.0
1007,221.02392325,222.13536816250001,48.0,86.0
1008,221.38536875,222.14741634583334,55.0,81.0
1009,222.10825975,222.67904243541668,67.0,88.0
1010,222.83115075,223.46066832916668,57.0,83.0
1011,222.46970525,223.48777674166666,50.0,88.0
1012,223.19259625,223.95012577708334,62.0,86.0
1013,223.55404175,223.95012577708334,66.0,88.0
1014,224.27693275000001,224.77994440416668,55.0,82.0
1015,223.91548725,225.06157068958333,43.0,87.0
1016,224.63837825000002,225.31910060833334,60.0,98.0
1017,224.99982375000002,225.3341608375,55.0,83.0
1018,225.36126925,225.6157871229167,67.0,90.0
1019,225.36126925,225.81006407916666,59.0,96.0
1020,225.72271475,225.95464227916668,55.0,83.0
1021,225.9034375,226.28747334375,67.0,102.0
1022,225.9034375,226.32060584791668,59.0,96.0
1023,225.9034375,226.34018414583335,62.0,110.0
1024,226.264883,226.5103647354167,55.0,86.0
1025,225.36126925,226.5690996291667,43.0,91.0
1026,226.44560575,226.70162964583335,59.0,100.0
1027,226.44560575,226.78747295208333,67.0,108.0
1028,226.44560575,226.788978975,62.0,110.0
1029,226.80705125,227.12030401666667,64.0,107.0
1030,226.80705125,227.16247265833334,71.0,117.0
1031,227.16849675,227.54952054791667,59.0,74.0
1032,227.52994225,227.88385763541666,64.0,107.0
1033,226.80705125,227.91548411666668,52.0,89.0
1034,227.52994225,228.10825505,71.0,110.0
1035,227.89138775,228.2950018916667,59.0,84.0
1036,228.25283325,228.75735092708334,62.0,92.0
1037,228.25283325,228.82813400416669,69.0,96.0
1038,228.97572425,229.30253122291668,69.0,113.0
1039,228.25283325,229.36879623125,50.0,87.0
1040,228.97572425,229.38686850625,62.0,110.0
1041,229.33716975000002,229.60674785208334,66.0,93.0
1042,229.69861525000002,230.18054258333333,62.0,102.0
1043,229.69861525000002,230.21216906458335,69.0,107.0
1044,230.24078350000002,230.51638569375,59.0,89.0
1045,229.69861525000002,230.728734925,47.0,87.0
1046,230.42150625,230.77993970416668,62.0,116.0
1047,230.06006075000002,230.81156618541667,54.0,79.0
1048,230.42150625,231.05554189791667,69.0,119.0
1049,231.14439725,231.18505986875002,67.0,89.0
1050,230.78295175,231.198614075,59.0,86.0
1051,231.14439725,231.234758625,64.0,89.0
1052,231.14439725,231.34018022916666,71.0,102.0
1053,231.6865655,231.84469790625002,71.0,87.0
1054,231.86728825,232.01186645,64.0,87.0
1055,231.50584275,232.13987839791668,59.0,81.0
1056,231.14439725,232.17150487916666,52.0,86.0
1057,231.86728825,232.26638432291668,79.0,114.0
1058,232.048011,232.31758910208333,71.0,98.0
1059,232.22873375,232.36728785833333,74.0,91.0
1060,232.4094565,232.52843231041666,76.0,88.0
1061,232.95162475,233.39590151041668,60.0,86.0
1062,233.31307025,233.64891336041669,72.0,104.0
1063,233.31307025,233.6654796125,64.0,114.0
1064,232.59017925,233.7196964375,48.0,96.0
1065,233.67451575,233.91698543958333,60.0,81.0
1066,234.03596125,234.20614183958335,62.0,89.0
1067,234.03596125,234.31909355833335,69.0,96.0
1068,234.57812950000002,234.93053886250001,62.0,87.0
1069,234.39740675000002,235.102225475,57.0,75.0
1070,234.03596125,235.10975558958333,50.0,88.0
1071,234.75885225000002,235.31758675208334,66.0,103.0
1072,234.75885225000002,235.35975539375,74.0,88.0
1073,235.12029775000002,235.37632164583334,69.0,77.0
1074,235.84318875,236.02541752291668,64.0,88.0
1075,236.0239115,236.12330901250002,67.0,93.0
1076,236.20463425,236.3130679,71.0,98.0
1077,236.385357,236.48927258125002,67.0,90.0
1078,236.7468025,236.86126024166668,69.0,91.0
1079,236.92752525,237.17752505416667,74.0,110.0
1080,237.108248,237.25583824583333,67.0,88.0
1081,237.28897075,237.40192246875,71.0,100.0
1082,237.4696935,237.5329464625,72.0,86.0
1083,237.4696935,237.55403078333333,74.0,94.0
1084,237.108248,237.55553680625002,64.0,88.0
1085,237.65041625,237.72571739583333,79.0,96.0
1086,237.65041625,237.9365606041667,64.0,85.0
1087,237.831139,237.95312685625,74.0,96.0
1088,237.65041625,237.95613890208335,71.0,94.0
1089,235.84318875,238.10071710208334,59.0,87.0
1090,235.48174325,238.102223125,52.0,92.0
1091,238.01186175,238.18656040833335,76.0,91.0
1092,238.1925845,238.31758440208333,79.0,100.0
1093,238.37330725,238.57662034375,79.0,86.0
1094,238.37330725,238.61577693958333,71.0,102.0
1095,238.73475275,239.16396928125002,59.0,79.0
1096,239.09619825000001,239.37782453541666,64.0,86.0
1097,239.09619825000001,239.40643897083334,76.0,102.0
1098,239.09619825000001,239.44408954375,67.0,113.0
1099,238.37330725,239.54649910208335,52.0,94.0
1100,239.45764375000002,239.84469163958335,59.0,80.0
1101,239.81908925000002,240.19559497916669,66.0,103.0
1102,239.81908925000002,240.24830578125,74.0,96.0
1103,240.54198025,240.81005232916667,66.0,109.0
1104,239.81908925000002,240.8763173375,50.0,88.0
1105,240.54198025,240.88836552083333,74.0,100.0
1106,240.90342575,241.23776283750001,69.0,86.0
1107,241.26487125,241.41848558750002,74.0,96.0
1108,241.98776225,242.15643681666668,66.0,100.0
1109,241.445594,242.18354522916667,54.0,84.0
1110,241.62631675,242.2407741,59.0,88.0
1111,241.98776225,242.24378614583333,62.0,107.0
1112,241.26487125,242.28444876458335,47.0,88.0
1113,242.168485,242.54950879791667,67.0,94.0
1114,242.71065325,243.24227933958335,71.0,100.0
1115,242.71065325,243.26035161458333,64.0,89.0
1116,243.43354425,243.69107416875002,64.0,113.0
1117,243.614267,243.73926690208333,67.0,100.0
1118,243.2528215,243.77239940625,59.0,87.0
1119,242.71065325,243.8401704375,52.0,88.0
1120,243.79498975,243.96968840833333,69.0,110.0
1121,244.15643525000002,244.51788075000002,64.0,91.0
1122,243.97571250000001,244.53745904791668,71.0,93.0
1123,244.51788075000002,244.87330215833333,60.0,84.0
1124,244.15643525000002,245.258844025,48.0,89.0
1125,244.87932625000002,245.258844025,72.0,102.0
1126,244.87932625000002,245.2769163,64.0,108.0
1127,245.24077175,245.50733780625,60.0,86.0
1128,245.60221725,246.03745787291666,62.0,92.0
1129,245.60221725,246.12028913333333,69.0,98.0
1130,245.96366275,246.37330098333334,57.0,80.0
1131,245.60221725,246.54197555000002,50.0,87.0
1132,246.32510825,246.64438510833335,69.0,107.0
1133,246.32510825,246.96064992083333,62.0,113.0
1134,247.04799925,247.25131234375002,67.0,100.0
1135,247.04799925,247.5193844229167,59.0,110.0
1136,247.77089025,247.96968527500002,57.0,113.0
1137,247.5901675,247.99980573333335,55.0,98.0
1138,247.951613,248.02540812291667,59.0,107.0
1139,248.13233575,248.3130585,62.0,113.0
1140,248.3130585,248.4094439666667,67.0,102.0
1141,248.49378125,248.6022149,69.0,116.0
1142,248.674504,248.78143162708335,71.0,113.0
1143,248.85522675,248.97119051458333,67.0,102.0
1144,248.49378125,249.054021775,55.0,88.0
1145,249.03594950000002,249.16396144791668,69.0,108.0
1146,247.04799925,249.4245034125,43.0,86.0
1147,249.21667225000002,249.44859977916667,74.0,119.0
1148,247.40944475,249.49076842083335,50.0,84.0
1149,249.21667225000002,249.52841899375,55.0,94.0
1150,249.39739500000002,249.53594910833334,69.0,107.0
1151,249.57811775000002,249.74528629375,71.0,94.0
1152,249.93956325000002,250.02239451041666,65.0,94.0
1153,249.93956325000002,250.06908122083334,72.0,88.0
1154,249.93956325000002,250.21365942083335,64.0,100.0
1155,249.93956325000002,250.3100448875,67.0,87.0
1156,249.93956325000002,250.3160689791667,71.0,96.0
1157,249.75884050000002,250.3371533,74.0,104.0
1158,250.30100875,250.62179163125,59.0,77.0
1159,250.66245425,251.00281542916667,64.0,114.0
1160,250.66245425,251.05402020833333,74.0,107.0
1161,249.93956325000002,251.08263464375,52.0,91.0
1162,251.02389975,251.37329706666668,59.0,84.0
1163,251.38534525,251.52239333541667,71.0,94.0
1164,251.38534525,251.95462191250002,62.0,100.0
1165,251.38534525,251.99227248541666,66.0,109.0
1166,251.38534525,252.00432066875,69.0,98.0
1167,251.38534525,252.43956129166668,50.0,80.0
1168,252.10823625,252.56606721666668,62.0,98.0
1169,252.10823625,252.57510335416669,69.0,110.0
1170,252.10823625,252.69106711875,66.0,91.0
1171,252.83112725,253.29498230833335,62.0,88.0
1172,252.83112725,253.35974129375,69.0,100.0
1173,253.3732955,253.6353434875,57.0,91.0
1174,252.83112725,253.86124692500002,47.0,87.0
1175,253.19257275,253.9425721625,54.0,81.0
1176,253.55401825,253.9425721625,69.0,114.0
1177,253.55401825,253.96666852916667,62.0,108.0
1178,253.91546375000001,254.15492139375002,66.0,87.0
1179,253.91546375000001,254.25431890625,57.0,88.0
1180,254.27690925000002,254.6654631625,71.0,102.0
1181,254.27690925000002,254.78293295,64.0,89.0
1182,254.27690925000002,254.8461859125,67.0,107.0
1183,254.99980025,255.22419766458333,71.0,104.0
1184,254.99980025,255.24829403125,64.0,114.0
1185,254.81907750000002,255.28443858125001,59.0,87.0
1186,254.27690925000002,255.29949881041668,52.0,85.0
1187,255.180523,255.39889632291667,67.0,93.0
1188,255.36124575,255.6232937375,71.0,104.0
1189,255.72269125,255.903414,60.0,93.0
1190,255.72269125,255.9757031,64.0,108.0
1191,255.72269125,256.01937776458334,67.0,108.0
1192,256.2648595,256.5645580604167,60.0,89.0
1193,255.72269125,256.8160638875,48.0,86.0
1194,256.44558225000003,256.82208797916667,72.0,107.0
1195,256.44558225000003,256.84618434583336,64.0,116.0
1196,256.80702775000003,257.08564198958334,67.0,86.0
1197,256.80702775000003,257.09166608125,60.0,89.0
1198,257.16847325000003,257.6398584229167,62.0,96.0
1199,257.16847325000003,257.67449695,66.0,109.0
1200,257.16847325000003,257.6805210416667,69.0,100.0
1201,257.7106415,258.0419665416667,57.0,79.0
1202,257.16847325000003,258.27389407083336,50.0,89.0
1203,257.89136425,258.41997829375003,62.0,102.0
1204,257.89136425,258.45913488958337,69.0,113.0
1205,258.97570075,259.4937726333333,59.0,79.0
1206,259.33714625,259.63985685625,67.0,108.0
1207,259.69859175,260.01033849375,69.0,91.0
1208,260.06003725,261.415457875,71.0,91.0
1209,260.06003725,261.4169638979167,64.0,87.0
1210,260.06003725,261.4500964020833,67.0,88.0
1211,260.06003725,261.4967831125,59.0,81.0
1212,258.61425525,261.523891525,52.0,92.0
1213,261.50581925,262.680517125,48.0,88.0
1214,262.22871025,262.68503519375,60.0,86.0
1215,262.59015575,262.97720363958337,64.0,86.0
1216,262.7708785,262.99376989166666,67.0,36.0
1217,261.86726475,262.99979398333335,55.0,70.0
1218,263.31304675,264.0735883229167,57.0,84.0
1219,262.95160125,264.1970822020833,50.0,86.0
1220,264.03593775,265.39437042083335,66.0,84.0
1221,263.67449225,265.4154547416667,62.0,83.0
1222,265.6624425,266.67298387708337,52.0,82.0
1223,266.20461075000003,266.74828502291666,59.0,65.0
1224,266.56605625000003,267.06003176666667,64.0,81.0
1225,266.92750175000003,267.4892482979167,67.0,85.0
1226,267.65039275,268.10069360208337,57.0,80.0
1227,267.28894725000004,268.15641645,50.0,84.0
1228,268.01183825,268.8823194958333,62.0,84.0
1229,268.37328375,268.99828326041666,69.0,85.0
1230,268.73472925,269.6172586791667,47.0,75.0
1231,269.09617475,269.77990915416666,54.0,72.0
1232,269.45762025,270.23171602916665,62.0,81.0
1233,269.81906575,270.3988845729167,66.0,83.0
1234,270.18051125,271.0359322666667,52.0,85.0
1235,270.54195675,271.04948647291667,59.0,77.0
1236,270.90340225,271.61123302083337,64.0,86.0
1237,271.26484775,271.6473775708333,67.0,86.0
1238,271.98773875,272.7467743,55.0,77.0
1239,271.62629325,272.76183452916666,48.0,86.0
1240,272.34918425,273.03894274583337,60.0,76.0
1241,272.71062975,273.1353282125,64.0,85.0
1242,273.07207525,275.439543275,50.0,87.0
1243,273.6142435,275.475687825,57.0,79.0
1244,273.975689,276.25731371875,62.0,76.0
1245,274.51785725,276.2859281541667,66.0,74.0
1246,276.144362,280.282912975,64.0,41.0
1247,276.32508475000003,280.31152741041666,76.0,60.0
1248,276.144362,280.32357559375004,52.0,46.0
1249,276.32508475000003,280.3431538916667,40.0,53.0
1250,276.32508475000003,280.37327435000003,71.0,56.0
1251,276.32508475000003,280.41694901458334,67.0,45.0
