,start,end,pitch,velocity
0,28.404166666666665,28.695833333333333,79.0,80.0
1,28.904166666666665,29.083333333333332,79.0,80.0
2,29.154166666666665,29.287499999999998,77.0,80.0
3,29.404166666666665,29.695833333333333,79.0,80.0
4,29.904166666666665,30.016666666666666,79.0,80.0
5,30.154166666666665,30.25,77.0,80.0
6,30.404166666666665,31.46875,79.0,80.0
7,31.904166666666665,32.16458333333333,72.0,80.0
8,32.15416666666667,32.302083333333336,79.0,80.0
9,32.40416666666667,32.520833333333336,77.0,80.0
10,32.65416666666667,32.766666666666666,77.0,80.0
11,32.90416666666667,32.99166666666667,77.0,80.0
12,33.15416666666667,33.24375,77.0,80.0
13,33.40416666666667,33.65625,77.0,80.0
14,33.90416666666667,34.045833333333334,74.0,80.0
15,34.15416666666667,34.68541666666667,75.0,80.0
16,34.65416666666667,36.07083333333333,72.0,80.0
17,36.40416666666667,36.672916666666666,84.0,80.0
18,36.90416666666667,37.041666666666664,84.0,80.0
19,37.15416666666667,37.26875,82.0,80.0
20,37.40416666666667,37.66458333333333,84.0,80.0
21,37.90416666666667,38.1875,79.0,80.0
22,38.15416666666667,38.610416666666666,82.0,80.0
23,38.65416666666667,39.5625,77.0,80.0
24,39.90416666666667,40.12083333333333,75.0,81.0
25,40.15416666666667,40.420833333333334,77.0,81.0
26,40.40416666666667,40.708333333333336,79.0,81.0
27,40.90416666666667,41.233333333333334,80.0,82.0
28,41.40416666666667,41.72708333333333,79.0,82.0
29,41.90416666666667,42.3,77.0,82.0
30,42.40416666666667,43.36875,79.0,82.0
31,43.15416666666667,43.44375,67.0,83.0
32,43.40416666666667,43.71666666666667,79.0,83.0
33,43.90416666666667,44.025,82.0,74.0
34,44.15416666666667,44.516666666666666,79.0,73.0
35,44.65416666666667,45.05,77.0,73.0
36,45.40416666666667,45.78541666666666,79.0,73.0
37,45.90416666666667,46.045833333333334,82.0,73.0
38,46.15416666666667,46.5875,79.0,73.0
39,46.65416666666667,47.704166666666666,77.0,73.0
40,47.91458333333333,48.229166666666664,75.0,73.0
41,48.225,48.81875,74.0,73.0
42,48.81458333333333,50.07083333333333,72.0,73.0
43,52.40416666666667,52.69583333333333,79.0,74.0
44,52.90416666666667,53.083333333333336,79.0,74.0
45,53.15416666666667,53.2875,77.0,74.0
46,53.40416666666667,53.69583333333333,79.0,74.0
47,53.90416666666667,54.016666666666666,79.0,74.0
48,54.15416666666667,54.25,77.0,74.0
49,54.40416666666667,55.46875,79.0,74.0
50,55.90416666666667,56.16458333333333,72.0,74.0
51,56.15416666666667,56.302083333333336,79.0,74.0
52,56.40416666666667,56.520833333333336,77.0,74.0
53,56.65416666666667,56.766666666666666,77.0,74.0
54,56.90416666666667,56.99166666666667,77.0,74.0
55,57.15416666666667,57.24375,77.0,74.0
56,57.40416666666667,57.65625,77.0,74.0
57,57.90416666666667,58.045833333333334,74.0,74.0
58,58.15416666666667,58.68541666666667,75.0,74.0
59,58.65416666666667,60.07083333333333,72.0,74.0
60,60.40416666666667,60.672916666666666,84.0,75.0
61,60.90416666666667,61.041666666666664,84.0,75.0
62,61.15416666666667,61.26875,82.0,75.0
63,61.40416666666667,61.66458333333333,84.0,75.0
64,61.90416666666667,62.1875,79.0,75.0
65,62.15416666666667,62.610416666666666,82.0,75.0
66,62.65416666666667,63.5625,77.0,75.0
67,63.90416666666667,64.12083333333334,75.0,75.0
68,64.15416666666667,64.42083333333333,77.0,74.0
69,64.40416666666667,64.70833333333333,79.0,74.0
70,64.90416666666667,65.23333333333333,80.0,74.0
71,65.40416666666667,65.72708333333333,79.0,74.0
72,65.90416666666667,66.3,77.0,74.0
73,66.40416666666667,67.08541666666666,79.0,74.0
74,67.15416666666667,67.44375,67.0,74.0
75,67.40416666666667,67.71666666666667,79.0,74.0
76,67.90416666666667,68.025,82.0,75.0
77,68.15416666666667,68.51666666666667,79.0,74.0
78,68.65416666666667,69.05,77.0,75.0
79,69.15416666666667,69.325,67.0,74.0
80,69.40416666666667,69.78541666666666,79.0,74.0
81,69.90416666666667,70.04583333333333,82.0,74.0
82,70.15416666666667,70.5875,79.0,74.0
83,70.65416666666667,71.70416666666667,77.0,74.0
84,71.90416666666667,72.20208333333333,75.0,74.0
85,72.15416666666667,72.57083333333333,74.0,74.0
86,72.90416666666667,73.325,75.0,74.0
87,73.40416666666667,74.87708333333333,72.0,74.0
88,75.40416666666667,75.74166666666666,79.0,72.0
89,75.90416666666667,76.15833333333333,82.0,72.0
90,76.40416666666667,76.72291666666666,84.0,72.0
91,76.90416666666667,77.02291666666666,82.0,72.0
92,77.15416666666667,77.65416666666667,80.0,72.0
93,77.90416666666667,78.0625,79.0,72.0
94,78.15416666666667,78.44791666666667,79.0,72.0
95,78.65416666666667,79.52708333333334,77.0,72.0
96,79.90416666666667,80.16875,79.0,72.0
97,80.15416666666667,80.30625,80.0,72.0
98,80.40416666666667,80.84791666666666,82.0,72.0
99,80.90416666666667,81.22291666666666,79.0,72.0
100,81.15416666666667,81.63125,77.0,72.0
101,81.90416666666667,82.17083333333333,79.0,72.0
102,82.15416666666667,82.56875,77.0,72.0
103,82.65416666666667,83.77291666666666,76.0,72.0
104,83.90416666666667,84.15833333333333,77.0,72.0
105,84.15416666666667,84.30833333333334,79.0,72.0
106,84.40416666666667,84.74583333333334,80.0,72.0
107,84.90416666666667,85.07083333333333,79.0,72.0
108,85.15416666666667,85.45,75.0,72.0
109,85.65416666666667,86.05416666666666,72.0,72.0
110,86.40416666666667,86.72083333333333,80.0,72.0
111,86.90416666666667,87.01458333333333,79.0,72.0
112,87.15416666666667,87.59166666666667,75.0,72.0
113,87.67083333333333,88.03541666666666,77.0,72.0
114,88.40416666666667,88.78958333333333,77.0,72.0
115,88.90416666666667,89.0375,79.0,72.0
116,89.15416666666667,90.28125,79.0,72.0
117,91.40416666666667,91.7625,79.0,73.0
118,91.90416666666667,92.18958333333333,82.0,72.0
119,92.40416666666667,92.74583333333334,84.0,73.0
120,92.90416666666667,93.04583333333333,82.0,73.0
121,93.15416666666667,93.57916666666667,80.0,73.0
122,93.90416666666667,94.01875,79.0,73.0
123,94.15416666666667,94.4375,79.0,73.0
124,94.65416666666667,95.6,77.0,73.0
125,95.65416666666667,95.75833333333333,79.0,73.0
126,95.90416666666667,96.02916666666667,79.0,73.0
127,96.15416666666667,96.24583333333334,80.0,73.0
128,96.40416666666667,96.83958333333334,83.0,73.0
129,96.90416666666667,97.19583333333333,79.0,73.0
130,97.15416666666667,97.66458333333333,77.0,73.0
131,97.90416666666667,98.2125,79.0,74.0
132,98.15416666666667,98.45625,77.0,74.0
133,98.65416666666667,99.63125,75.0,74.0
134,99.65416666666667,99.92083333333333,75.0,74.0
135,99.90416666666667,100.18333333333334,77.0,74.0
136,100.15416666666667,100.27083333333333,79.0,74.0
137,100.40416666666667,100.72083333333333,80.0,74.0
138,100.90416666666667,101.1875,79.0,74.0
139,101.15416666666667,101.61875,75.0,74.0
140,101.65416666666667,102.20625,72.0,75.0
141,102.40416666666667,102.67291666666667,80.0,76.0
142,102.90416666666667,103.00416666666666,79.0,76.0
143,103.15416666666667,103.4375,75.0,76.0
144,103.65416666666667,104.10833333333333,77.0,76.0
145,104.15416666666667,104.27083333333333,77.0,76.0
146,104.40416666666667,104.86874999999999,77.0,76.0
147,105.15416666666667,107.37083333333334,75.0,77.0
148,134.40416666666667,134.69583333333333,79.0,77.0
149,134.90416666666667,135.08333333333334,79.0,77.0
150,135.15416666666667,135.2875,77.0,76.0
151,135.40416666666667,135.69583333333333,79.0,77.0
152,135.90416666666667,136.01666666666665,79.0,77.0
153,136.15416666666667,136.25,77.0,76.0
154,136.40416666666667,137.46875,79.0,77.0
155,137.90416666666667,138.16458333333333,72.0,78.0
156,138.15416666666667,138.30208333333334,79.0,78.0
157,138.40416666666667,138.52083333333334,77.0,78.0
158,138.65416666666667,138.76666666666665,77.0,78.0
159,138.90416666666667,138.99166666666667,77.0,78.0
160,139.15416666666667,139.24375,77.0,78.0
161,139.40416666666667,139.65625,77.0,78.0
162,139.90416666666667,140.04583333333332,74.0,78.0
163,140.15416666666667,140.68541666666667,75.0,78.0
164,140.65416666666667,142.07083333333333,72.0,78.0
165,142.40416666666667,142.67291666666665,84.0,78.0
166,142.90416666666667,143.04166666666666,84.0,78.0
167,143.15416666666667,143.26875,82.0,78.0
168,143.40416666666667,143.66458333333333,84.0,78.0
169,143.90416666666667,144.1875,79.0,78.0
170,144.15416666666667,144.61041666666665,82.0,78.0
171,144.65416666666667,145.5625,77.0,78.0
172,145.90416666666667,146.12083333333334,75.0,78.0
173,146.15416666666667,146.42083333333332,77.0,78.0
174,146.40416666666667,146.70833333333334,79.0,78.0
175,146.90416666666667,147.23333333333332,80.0,78.0
176,147.40416666666667,147.72708333333333,79.0,78.0
177,147.90416666666667,148.3,77.0,78.0
178,148.40416666666667,149.36875,79.0,78.0
179,149.15416666666667,149.44375,67.0,78.0
180,149.40416666666667,149.71666666666667,79.0,78.0
181,149.90416666666667,150.025,82.0,78.0
182,150.15416666666667,150.51666666666665,79.0,78.0
183,150.65416666666667,151.05,77.0,78.0
184,151.40416666666667,151.78541666666666,79.0,78.0
185,151.90416666666667,152.04583333333332,82.0,78.0
186,152.15416666666667,152.5875,79.0,78.0
187,152.65416666666667,153.70416666666665,77.0,78.0
188,153.91458333333333,154.22916666666666,75.0,78.0
189,154.225,154.81875,74.0,78.0
190,154.81458333333333,156.07083333333333,72.0,78.0
191,158.40416666666667,158.69583333333333,79.0,80.0
192,158.90416666666667,159.08333333333334,79.0,80.0
193,159.15416666666667,159.2875,77.0,80.0
194,159.40416666666667,159.69583333333333,79.0,80.0
195,159.90416666666667,160.01666666666665,79.0,80.0
196,160.15416666666667,160.25,77.0,80.0
197,160.40416666666667,161.46875,79.0,80.0
198,161.90416666666667,162.16458333333333,72.0,81.0
199,162.15416666666667,162.30208333333334,79.0,80.0
200,162.40416666666667,162.52083333333334,77.0,80.0
201,162.65416666666667,162.76666666666665,77.0,80.0
202,162.90416666666667,162.99166666666667,77.0,81.0
203,163.15416666666667,163.24375,77.0,81.0
204,163.40416666666667,163.65625,77.0,81.0
205,163.90416666666667,164.04583333333332,74.0,81.0
206,164.15416666666667,164.68541666666667,75.0,81.0
207,164.65416666666667,166.07083333333333,72.0,81.0
208,166.40416666666667,166.67291666666665,84.0,81.0
209,166.90416666666667,167.04166666666666,84.0,81.0
210,167.15416666666667,167.26875,82.0,81.0
211,167.40416666666667,167.66458333333333,84.0,81.0
212,167.90416666666667,168.1875,79.0,81.0
213,168.15416666666667,168.61041666666665,82.0,81.0
214,168.65416666666667,169.5625,77.0,82.0
215,169.90416666666667,170.12083333333334,75.0,83.0
216,170.15416666666667,170.42083333333332,77.0,83.0
217,170.40416666666667,170.70833333333334,79.0,83.0
218,170.90416666666667,171.23333333333332,80.0,83.0
219,171.40416666666667,171.72708333333333,79.0,83.0
220,171.90416666666667,172.3,77.0,83.0
221,172.40416666666667,173.08541666666667,79.0,83.0
222,173.15416666666667,173.44375,67.0,83.0
223,173.40416666666667,173.71666666666667,79.0,83.0
224,173.90416666666667,174.025,82.0,83.0
225,174.15416666666667,174.51666666666665,79.0,83.0
226,174.65416666666667,175.05,77.0,83.0
227,175.15416666666667,175.325,67.0,83.0
228,175.40416666666667,175.78541666666666,79.0,83.0
229,175.90416666666667,176.04583333333332,82.0,83.0
230,176.15416666666667,176.5875,79.0,83.0
231,176.65416666666667,177.70416666666665,77.0,83.0
232,177.90416666666667,178.20208333333332,75.0,85.0
233,178.15416666666667,178.57083333333333,74.0,83.0
234,178.90416666666667,179.325,75.0,85.0
235,179.40416666666667,180.87708333333333,72.0,85.0
236,181.40416666666667,181.74166666666667,79.0,84.0
237,181.90416666666667,182.15833333333333,82.0,84.0
238,182.40416666666667,182.72291666666666,84.0,84.0
239,182.90416666666667,183.02291666666667,82.0,84.0
240,183.15416666666667,183.65416666666667,80.0,84.0
241,183.90416666666667,184.0625,79.0,84.0
242,184.15416666666667,184.44791666666666,79.0,84.0
243,184.65416666666667,185.52708333333334,77.0,84.0
244,185.90416666666667,186.16875,79.0,84.0
245,186.15416666666667,186.30625,80.0,84.0
246,186.40416666666667,186.84791666666666,82.0,84.0
247,186.90416666666667,187.22291666666666,79.0,84.0
248,187.15416666666667,187.63125,77.0,84.0
249,187.90416666666667,188.17083333333332,79.0,84.0
250,188.15416666666667,188.56875,77.0,84.0
251,188.65416666666667,189.77291666666667,76.0,84.0
252,189.90416666666667,190.15833333333333,77.0,83.0
253,190.15416666666667,190.30833333333334,79.0,84.0
254,190.40416666666667,190.74583333333334,80.0,84.0
255,190.90416666666667,191.07083333333333,79.0,83.0
256,191.15416666666667,191.45,75.0,83.0
257,191.65416666666667,192.05416666666667,72.0,83.0
258,192.40416666666667,192.72083333333333,80.0,83.0
259,192.90416666666667,193.01458333333332,79.0,83.0
260,193.15416666666667,193.59166666666667,75.0,83.0
261,193.67083333333332,194.03541666666666,77.0,83.0
262,194.40416666666667,194.78958333333333,77.0,83.0
263,194.90416666666667,195.0375,79.0,83.0
264,195.15416666666667,196.28125,79.0,83.0
265,197.40416666666667,197.7625,79.0,85.0
266,197.90416666666667,198.18958333333333,82.0,86.0
267,198.40416666666667,198.74583333333334,84.0,85.0
268,198.90416666666667,199.04583333333332,82.0,86.0
269,199.15416666666667,199.57916666666665,80.0,86.0
270,199.90416666666667,200.01875,79.0,87.0
271,200.15416666666667,200.4375,79.0,87.0
272,200.65416666666667,201.6,77.0,87.0
273,201.65416666666667,201.75833333333333,79.0,87.0
274,201.90416666666667,202.02916666666667,79.0,87.0
275,202.15416666666667,202.24583333333334,80.0,87.0
276,202.40416666666667,202.83958333333334,83.0,87.0
277,202.90416666666667,203.19583333333333,79.0,87.0
278,203.15416666666667,203.66458333333333,77.0,87.0
279,203.90416666666667,204.2125,79.0,87.0
280,204.15416666666667,204.45625,77.0,87.0
281,204.65416666666667,205.63125,75.0,87.0
282,205.65416666666667,205.92083333333332,75.0,87.0
283,205.90416666666667,206.18333333333334,77.0,87.0
284,206.15416666666667,206.27083333333334,79.0,87.0
285,206.40416666666667,206.72083333333333,80.0,87.0
286,206.90416666666667,207.1875,79.0,87.0
287,207.15416666666667,207.61875,75.0,87.0
288,207.65416666666667,208.20624999999998,72.0,87.0
289,208.40416666666667,208.67291666666665,80.0,87.0
290,208.90416666666667,209.00416666666666,79.0,87.0
291,209.15416666666667,209.4375,75.0,87.0
292,209.65416666666667,210.10833333333332,77.0,87.0
293,210.15416666666667,210.27083333333334,77.0,87.0
294,210.40416666666667,210.86875,77.0,87.0
295,211.15416666666667,213.37083333333334,75.0,87.0
296,213.40416666666667,213.74166666666667,79.0,86.0
297,213.90416666666667,214.15833333333333,82.0,86.0
298,214.40416666666667,214.72291666666666,84.0,86.0
299,214.90416666666667,215.02291666666667,82.0,86.0
300,215.15416666666667,215.65416666666667,80.0,86.0
301,215.90416666666667,216.0625,79.0,86.0
302,216.15416666666667,216.44791666666666,79.0,86.0
303,216.65416666666667,217.52708333333334,77.0,86.0
304,217.90416666666667,218.16875,79.0,86.0
305,218.15416666666667,218.30625,80.0,86.0
306,218.40416666666667,218.84791666666666,82.0,86.0
307,218.90416666666667,219.22291666666666,79.0,86.0
308,219.15416666666667,219.63125,77.0,86.0
309,219.90416666666667,220.17083333333332,79.0,86.0
310,220.15416666666667,220.56875,77.0,86.0
311,220.65416666666667,221.77291666666667,76.0,86.0
312,221.90416666666667,222.15833333333333,77.0,86.0
313,222.15416666666667,222.30833333333334,79.0,86.0
314,222.40416666666667,222.74583333333334,80.0,86.0
315,222.90416666666667,223.07083333333333,79.0,86.0
316,223.15416666666667,223.45,75.0,86.0
317,223.65416666666667,224.05416666666667,72.0,86.0
318,224.40416666666667,224.72083333333333,80.0,86.0
319,224.90416666666667,225.01458333333332,79.0,86.0
320,225.15416666666667,225.59166666666667,75.0,86.0
321,225.67083333333332,226.03541666666666,77.0,86.0
322,226.40416666666667,226.78958333333333,77.0,86.0
323,226.90416666666667,227.0375,79.0,86.0
324,227.15416666666667,228.28125,79.0,86.0
325,229.40416666666667,229.7625,79.0,86.0
326,229.90416666666667,230.18958333333333,82.0,86.0
327,230.40416666666667,230.74583333333334,84.0,86.0
328,230.90416666666667,231.04583333333332,82.0,86.0
329,231.15416666666667,231.57916666666665,80.0,86.0
330,231.90416666666667,232.01874999999998,79.0,86.0
331,232.15416666666667,232.4375,79.0,86.0
332,232.65416666666667,233.6,77.0,86.0
333,233.65416666666667,233.75833333333333,79.0,86.0
334,233.90416666666667,234.02916666666667,79.0,86.0
335,234.15416666666667,234.24583333333334,80.0,86.0
336,234.40416666666667,234.83958333333334,83.0,86.0
337,234.90416666666667,235.19583333333333,79.0,86.0
338,235.15416666666667,235.66458333333333,77.0,86.0
339,235.90416666666667,236.2125,79.0,86.0
340,236.15416666666667,236.45624999999998,77.0,86.0
341,236.65416666666667,237.63125,75.0,86.0
342,237.65416666666667,237.92083333333332,75.0,86.0
343,237.90416666666667,238.18333333333334,77.0,87.0
344,238.15416666666667,238.27083333333334,79.0,86.0
345,238.40416666666667,238.72083333333333,80.0,87.0
346,238.90416666666667,239.1875,79.0,87.0
347,239.15416666666667,239.61875,75.0,87.0
348,239.65416666666667,240.20624999999998,72.0,88.0
349,240.40416666666667,240.67291666666665,80.0,88.0
350,240.90416666666667,241.00416666666666,79.0,88.0
351,241.15416666666667,241.4375,75.0,88.0
352,241.65416666666667,242.10833333333332,77.0,88.0
353,242.15416666666667,242.27083333333334,77.0,88.0
354,242.40416666666667,242.86875,77.0,88.0
355,243.15416666666667,245.37083333333334,75.0,88.0
356,245.65416666666667,245.89791666666667,75.0,88.0
357,245.90416666666667,246.19166666666666,77.0,88.0
358,246.15416666666667,246.44375,79.0,88.0
359,246.40416666666667,246.8875,80.0,88.0
360,246.90416666666667,247.04583333333332,79.0,88.0
361,247.15416666666667,247.72916666666666,75.0,88.0
362,247.65416666666667,248.04583333333332,72.0,88.0
363,248.40416666666667,248.91041666666666,80.0,88.0
364,248.90416666666667,249.11458333333334,79.0,88.0
365,249.15416666666667,252.09791666666666,82.0,88.0
366,251.90416666666667,252.14374999999998,75.0,88.0
367,252.40416666666667,254.48125,75.0,88.0
