,start,end,pitch,velocity
0,0.75,4.1125,55.0,56.0
1,0.75,4.116666666666666,67.0,54.0
2,0.75,4.11875,58.0,60.0
3,0.75,4.120833333333334,63.0,51.0
4,4.654166666666667,4.927083333333333,67.0,86.0
5,4.8875,5.09375,75.0,60.0
6,5.1375,5.41875,74.0,76.0
7,4.404166666666667,5.947916666666667,60.0,87.0
8,5.404166666666667,6.158333333333333,79.0,76.0
9,6.654166666666667,7.054166666666666,65.0,76.0
10,6.904166666666667,7.104166666666667,75.0,77.0
11,7.154166666666667,7.272916666666666,74.0,78.0
12,6.404166666666667,7.575,58.0,76.0
13,7.404166666666667,8.052083333333334,77.0,78.0
14,8.904166666666667,9.133333333333333,70.0,78.0
15,9.154166666666667,9.279166666666667,68.0,78.0
16,9.404166666666667,10.247916666666667,72.0,78.0
17,8.654166666666667,10.3625,63.0,78.0
18,8.404166666666667,10.379166666666666,56.0,78.0
19,10.904166666666667,11.189583333333333,60.0,78.0
20,11.154166666666667,11.4,58.0,77.0
21,11.404166666666667,12.4125,65.0,77.0
22,10.654166666666667,12.44375,51.0,78.0
23,10.404166666666667,12.458333333333334,44.0,78.0
24,12.404166666666667,12.458333333333334,44.0,75.0
25,12.404166666666667,13.233333333333333,60.0,75.0
26,12.404166666666667,13.235416666666666,68.0,75.0
27,12.404166666666667,13.245833333333334,63.0,75.0
28,13.404166666666667,13.941666666666666,68.0,75.0
29,13.404166666666667,13.945833333333333,60.0,75.0
30,13.404166666666667,13.954166666666666,63.0,75.0
31,12.904166666666667,13.995833333333334,51.0,75.0
32,13.904166666666667,14.397916666666667,56.0,75.0
33,14.404166666666667,15.299999999999999,62.0,75.0
34,14.404166666666667,15.314583333333333,70.0,75.0
35,14.404166666666667,15.31875,65.0,75.0
36,15.404166666666667,15.90625,65.0,73.0
37,15.404166666666667,15.908333333333333,62.0,73.0
38,14.404166666666667,15.910416666666666,46.0,75.0
39,15.404166666666667,15.916666666666666,70.0,73.0
40,14.904166666666667,16.427083333333332,53.0,74.0
41,16.404166666666665,17.291666666666668,63.0,73.0
42,16.404166666666665,17.308333333333334,67.0,73.0
43,16.404166666666665,17.308333333333334,72.0,73.0
44,17.404166666666665,18.352083333333333,72.0,73.0
45,17.404166666666665,18.360416666666666,63.0,73.0
46,17.404166666666665,18.3625,67.0,73.0
47,17.904166666666665,18.702083333333334,60.0,73.0
48,18.404166666666665,19.05,72.0,73.0
49,18.404166666666665,19.060416666666665,63.0,73.0
50,18.404166666666665,19.070833333333333,67.0,73.0
51,18.904166666666665,19.24375,60.0,73.0
52,19.154166666666665,19.652083333333334,72.0,73.0
53,19.154166666666665,19.691666666666666,63.0,73.0
54,19.154166666666665,19.702083333333334,67.0,73.0
55,19.654166666666665,19.81875,60.0,73.0
56,16.404166666666665,19.822916666666668,48.0,73.0
57,16.904166666666665,19.85,55.0,73.0
58,19.904166666666665,20.202083333333334,46.0,73.0
59,20.404166666666665,21.29375,60.0,73.0
60,20.404166666666665,21.29375,68.0,73.0
61,20.404166666666665,21.3,63.0,73.0
62,20.404166666666665,21.952083333333334,44.0,73.0
63,21.404166666666665,21.960416666666667,63.0,73.0
64,21.404166666666665,21.9625,60.0,73.0
65,21.404166666666665,21.964583333333334,68.0,73.0
66,21.904166666666665,22.395833333333332,56.0,73.0
67,20.904166666666665,22.40625,51.0,73.0
68,22.404166666666665,23.33125,62.0,72.0
69,22.404166666666665,23.335416666666667,65.0,72.0
70,22.404166666666665,23.3375,70.0,72.0
71,23.404166666666665,23.904166666666665,62.0,72.0
72,23.404166666666665,23.910416666666666,70.0,72.0
73,23.404166666666665,23.9125,65.0,72.0
74,22.404166666666665,23.941666666666666,46.0,72.0
75,22.904166666666665,24.379166666666666,53.0,72.0
76,23.904166666666665,24.38125,58.0,72.0
77,24.404166666666665,25.31458333333333,63.0,72.0
78,24.404166666666665,25.325,72.0,72.0
79,24.404166666666665,25.327083333333334,67.0,72.0
80,25.404166666666665,26.333333333333332,63.0,72.0
81,25.404166666666665,26.333333333333332,72.0,72.0
82,25.404166666666665,26.34375,67.0,72.0
83,26.404166666666665,28.18958333333333,72.0,72.0
84,26.404166666666665,28.202083333333334,67.0,72.0
85,26.404166666666665,28.20625,63.0,72.0
86,25.904166666666665,28.208333333333332,60.0,72.0
87,24.904166666666665,28.264583333333334,55.0,72.0
88,24.404166666666665,28.270833333333332,48.0,72.0
89,28.404166666666665,29.352083333333333,63.0,72.0
90,28.404166666666665,29.358333333333334,72.0,72.0
91,28.404166666666665,29.360416666666666,67.0,72.0
92,28.904166666666665,29.870833333333334,55.0,72.0
93,29.404166666666665,29.93125,67.0,72.0
94,29.404166666666665,29.933333333333334,72.0,72.0
95,29.404166666666665,29.945833333333333,63.0,72.0
96,28.404166666666665,29.99375,48.0,72.0
97,30.404166666666665,32.08958333333333,44.0,71.0
98,30.404166666666665,32.12708333333333,68.0,71.0
99,30.404166666666665,32.15,63.0,71.0
100,30.404166666666665,32.16875,60.0,71.0
101,32.40416666666667,33.922916666666666,65.0,70.0
102,32.40416666666667,33.925,46.0,70.0
103,32.40416666666667,33.93333333333333,62.0,70.0
104,32.40416666666667,33.94583333333333,70.0,70.0
105,35.15416666666667,35.46875,62.0,70.0
106,35.40416666666667,35.577083333333334,63.0,70.0
107,34.90416666666667,36.02291666666667,60.0,70.0
108,34.40416666666667,36.24583333333333,48.0,70.0
109,34.65416666666667,36.24791666666667,55.0,70.0
110,35.65416666666667,36.360416666666666,67.0,70.0
111,37.15416666666667,37.452083333333334,60.0,70.0
112,36.90416666666667,37.520833333333336,56.0,70.0
113,36.40416666666667,38.22083333333333,44.0,70.0
114,36.65416666666667,38.27708333333333,51.0,70.0
115,37.40416666666667,38.452083333333334,67.0,70.0
116,39.15416666666667,39.46458333333333,62.0,70.0
117,38.40416666666667,39.86666666666667,46.0,70.0
118,38.65416666666667,39.88125,53.0,70.0
119,38.90416666666667,39.922916666666666,58.0,70.0
120,39.40416666666667,40.391666666666666,65.0,70.0
121,40.40416666666667,41.27916666666667,55.0,70.0
122,40.40416666666667,41.30625,58.0,70.0
123,40.40416666666667,41.30625,63.0,70.0
124,40.40416666666667,41.885416666666664,39.0,70.0
125,41.40416666666667,41.9125,55.0,70.0
126,41.40416666666667,41.920833333333334,58.0,70.0
127,41.40416666666667,41.925,63.0,70.0
128,40.90416666666667,41.96875,46.0,70.0
129,41.90416666666667,42.395833333333336,51.0,70.0
130,42.40416666666667,43.26875,62.0,70.0
131,42.40416666666667,43.28541666666666,59.0,70.0
132,42.40416666666667,43.291666666666664,67.0,70.0
133,43.40416666666667,43.94375,62.0,71.0
134,43.40416666666667,43.983333333333334,67.0,71.0
135,42.90416666666667,43.9875,50.0,71.0
136,42.40416666666667,44.00416666666666,43.0,70.0
137,43.40416666666667,44.00833333333333,59.0,71.0
138,44.40416666666667,44.7875,68.0,72.0
139,44.40416666666667,44.81666666666666,60.0,72.0
140,44.40416666666667,44.85208333333333,63.0,72.0
141,45.15416666666667,45.35,60.0,73.0
142,45.40416666666667,45.91875,68.0,73.0
143,44.40416666666667,45.9375,44.0,72.0
144,45.40416666666667,45.94375,60.0,73.0
145,45.40416666666667,45.947916666666664,63.0,73.0
146,44.90416666666667,45.96458333333333,56.0,72.0
147,44.65416666666667,45.97708333333333,51.0,72.0
148,47.15416666666667,47.38333333333333,62.0,75.0
149,46.90416666666667,48.07083333333333,58.0,75.0
150,46.40416666666667,48.075,46.0,74.0
151,46.65416666666667,48.09166666666667,53.0,75.0
152,47.40416666666667,48.1125,70.0,75.0
153,47.40416666666667,48.12291666666667,65.0,75.0
154,47.40416666666667,48.125,62.0,75.0
155,48.40416666666667,49.21666666666667,72.0,75.0
156,48.40416666666667,49.25,63.0,75.0
157,48.40416666666667,49.25208333333333,67.0,75.0
158,49.40416666666667,50.25833333333333,72.0,75.0
159,49.40416666666667,50.28333333333333,63.0,75.0
160,49.40416666666667,50.291666666666664,67.0,75.0
161,50.40416666666667,51.03333333333333,75.0,75.0
162,50.40416666666667,51.04375,72.0,75.0
163,51.40416666666667,51.75,72.0,75.0
164,51.40416666666667,51.770833333333336,75.0,75.0
165,51.90416666666667,52.33541666666667,77.0,75.0
166,51.90416666666667,52.3375,72.0,75.0
167,48.40416666666667,52.37708333333333,48.0,75.0
168,48.90416666666667,52.40833333333333,55.0,75.0
169,52.90416666666667,53.358333333333334,60.0,74.0
170,53.15416666666667,53.85,72.0,74.0
171,53.15416666666667,53.85208333333333,63.0,74.0
172,53.15416666666667,53.858333333333334,67.0,74.0
173,52.65416666666667,53.87916666666666,55.0,74.0
174,52.40416666666667,53.9625,48.0,74.0
175,53.90416666666667,54.34375,72.0,74.0
176,53.90416666666667,54.360416666666666,63.0,74.0
177,53.90416666666667,54.364583333333336,67.0,74.0
178,54.90416666666667,55.24166666666667,56.0,74.0
179,55.15416666666667,55.71666666666667,68.0,74.0
180,55.15416666666667,55.74791666666667,60.0,74.0
181,55.15416666666667,55.75208333333333,63.0,74.0
182,55.90416666666667,56.24583333333333,68.0,74.0
183,54.40416666666667,56.25208333333333,44.0,74.0
184,55.90416666666667,56.25208333333333,60.0,74.0
185,55.90416666666667,56.27291666666667,63.0,74.0
186,55.65416666666667,56.360416666666666,56.0,74.0
187,54.65416666666667,56.43333333333333,51.0,74.0
188,56.40416666666667,57.020833333333336,70.0,74.0
189,56.40416666666667,57.041666666666664,62.0,74.0
190,56.40416666666667,57.047916666666666,65.0,74.0
191,56.90416666666667,57.37083333333333,58.0,74.0
192,56.40416666666667,57.84375,46.0,74.0
193,57.15416666666667,57.889583333333334,70.0,74.0
194,57.15416666666667,57.90416666666667,65.0,74.0
195,57.15416666666667,57.916666666666664,62.0,74.0
196,56.65416666666667,58.329166666666666,53.0,74.0
197,57.65416666666667,58.356249999999996,58.0,74.0
198,58.90416666666667,59.014583333333334,77.0,74.0
199,59.15416666666667,59.45625,75.0,74.0
200,58.90416666666667,59.81875,60.0,74.0
201,58.90416666666667,59.90625,68.0,74.0
202,58.65416666666667,59.99166666666667,55.0,74.0
203,58.40416666666667,60.077083333333334,48.0,74.0
204,59.65416666666667,60.13333333333333,72.0,75.0
205,60.40416666666667,61.2375,68.0,76.0
206,60.40416666666667,61.25833333333333,60.0,76.0
207,60.40416666666667,61.266666666666666,63.0,76.0
208,60.40416666666667,61.858333333333334,44.0,76.0
209,61.40416666666667,61.8625,68.0,76.0
210,60.90416666666667,61.87083333333333,51.0,76.0
211,61.40416666666667,61.887499999999996,60.0,76.0
212,61.40416666666667,61.887499999999996,63.0,76.0
213,62.40416666666667,63.33541666666667,62.0,77.0
214,62.40416666666667,63.34166666666667,70.0,77.0
215,62.40416666666667,63.354166666666664,65.0,77.0
216,63.40416666666667,63.55,87.0,77.0
217,63.40416666666667,63.770833333333336,82.0,77.0
218,63.65416666666667,63.797916666666666,89.0,78.0
219,63.40416666666667,63.858333333333334,70.0,77.0
220,63.40416666666667,63.887499999999996,65.0,77.0
221,63.40416666666667,63.89791666666667,62.0,77.0
222,63.80416666666667,63.91041666666666,87.0,78.0
223,62.40416666666667,63.927083333333336,46.0,77.0
224,62.90416666666667,63.97291666666666,53.0,77.0
225,63.90416666666667,64.16458333333333,82.0,78.0
226,63.90416666666667,64.16458333333333,82.0,78.0
227,64.40416666666667,65.25208333333333,63.0,78.0
228,64.40416666666667,65.25625,55.0,78.0
229,64.40416666666667,65.26666666666667,58.0,78.0
230,64.40416666666667,65.75,39.0,78.0
231,65.40416666666667,65.84166666666667,55.0,78.0
232,65.40416666666667,65.85625,58.0,78.0
233,65.40416666666667,65.85625,63.0,78.0
234,64.90416666666667,65.95833333333333,46.0,78.0
235,66.40416666666667,66.6,67.0,78.0
236,66.40416666666667,67.29375,62.0,78.0
237,66.40416666666667,67.33125,59.0,78.0
238,67.40416666666667,67.85833333333333,67.0,78.0
239,66.40416666666667,67.99166666666666,43.0,78.0
240,67.40416666666667,67.99583333333334,62.0,78.0
241,66.90416666666667,68.02916666666667,50.0,78.0
242,67.40416666666667,68.04375,59.0,78.0
243,68.90416666666667,69.01041666666667,60.0,78.0
244,69.15416666666667,69.79791666666667,60.0,78.0
245,68.90416666666667,70.01875,56.0,78.0
246,68.40416666666667,70.10625,44.0,78.0
247,68.65416666666667,70.275,51.0,78.0
248,69.65416666666667,70.4625,67.0,78.0
249,70.15416666666667,70.48125,60.0,78.0
250,71.15416666666667,71.58125,62.0,78.0
251,70.40416666666667,72.1125,46.0,78.0
252,70.90416666666667,72.12083333333334,58.0,78.0
253,70.65416666666667,72.29583333333333,53.0,78.0
254,71.65416666666667,72.3,62.0,78.0
255,71.65416666666667,72.30416666666666,65.0,78.0
256,72.40416666666667,73.27291666666666,63.0,78.0
257,72.40416666666667,73.27708333333334,67.0,78.0
258,72.40416666666667,73.81875,48.0,78.0
259,72.90416666666667,74.20833333333333,55.0,78.0
260,73.40416666666667,74.27291666666666,67.0,78.0
261,73.40416666666667,74.29166666666667,63.0,78.0
262,74.40416666666667,74.6375,48.0,78.0
263,74.40416666666667,74.6375,67.0,78.0
264,74.40416666666667,74.63958333333333,72.0,78.0
265,74.40416666666667,74.66041666666666,63.0,78.0
266,75.40416666666667,75.75208333333333,43.0,78.0
267,75.40416666666667,75.75625,67.0,78.0
268,75.40416666666667,75.76041666666667,58.0,78.0
269,75.40416666666667,75.76875,62.0,78.0
270,75.90416666666667,76.18333333333334,67.0,78.0
271,75.90416666666667,76.19166666666666,58.0,78.0
272,75.90416666666667,76.19166666666666,62.0,78.0
273,75.90416666666667,76.2,43.0,78.0
274,76.40416666666667,77.25625,60.0,78.0
275,76.40416666666667,77.25625,68.0,78.0
276,76.40416666666667,77.2625,63.0,78.0
277,76.40416666666667,77.87291666666667,44.0,78.0
278,77.40416666666667,77.91875,68.0,78.0
279,77.40416666666667,77.93958333333333,63.0,78.0
280,77.40416666666667,77.94791666666667,60.0,78.0
281,78.15416666666667,78.20833333333333,62.0,80.0
282,78.15416666666667,78.20833333333333,65.0,80.0
283,76.90416666666667,78.30208333333333,51.0,78.0
284,77.90416666666667,78.37708333333333,56.0,78.0
285,78.40416666666667,79.31041666666667,62.0,80.0
286,78.40416666666667,79.31041666666667,70.0,80.0
287,78.40416666666667,79.31666666666666,65.0,80.0
288,78.90416666666667,79.77708333333334,53.0,80.0
289,79.40416666666667,79.88125,70.0,80.0
290,79.40416666666667,79.8875,65.0,80.0
291,79.40416666666667,79.90416666666667,62.0,80.0
292,78.40416666666667,79.95,46.0,80.0
293,80.40416666666667,81.28125,67.0,82.0
294,80.40416666666667,81.28541666666666,58.0,82.0
295,80.40416666666667,81.28958333333333,62.0,82.0
296,80.40416666666667,81.89791666666666,43.0,82.0
297,80.90416666666667,81.95625,50.0,82.0
298,81.40416666666667,81.96875,67.0,82.0
299,81.40416666666667,81.97083333333333,62.0,82.0
300,81.40416666666667,81.97291666666666,58.0,82.0
301,81.90416666666667,82.40416666666667,55.0,82.0
302,82.40416666666667,82.89375,76.0,84.0
303,82.40416666666667,82.90416666666667,72.0,84.0
304,83.15416666666667,83.54166666666667,77.0,87.0
305,83.15416666666667,83.55,72.0,87.0
306,83.40416666666667,83.95,60.0,87.0
307,82.40416666666667,83.99166666666666,48.0,84.0
308,83.40416666666667,84.02708333333334,52.0,87.0
309,82.90416666666667,84.08541666666666,55.0,86.0
310,83.65416666666667,84.34583333333333,72.0,88.0
311,83.65416666666667,84.35,79.0,88.0
312,84.40416666666667,85.24583333333334,56.0,88.0
313,84.40416666666667,85.25208333333333,65.0,88.0
314,84.40416666666667,85.27083333333333,60.0,88.0
315,84.40416666666667,85.87083333333334,41.0,88.0
316,85.90416666666667,85.93958333333333,55.0,88.0
317,85.40416666666667,85.9625,65.0,88.0
318,85.40416666666667,85.96458333333334,60.0,88.0
319,85.40416666666667,85.96875,56.0,88.0
320,84.90416666666667,85.97083333333333,48.0,88.0
321,85.90416666666667,86.35833333333333,53.0,88.0
322,86.40416666666667,87.26875,70.0,88.0
323,86.40416666666667,87.27291666666666,62.0,88.0
324,86.40416666666667,87.27708333333334,65.0,88.0
325,86.90416666666667,87.80416666666666,53.0,88.0
326,86.40416666666667,87.90833333333333,46.0,88.0
327,87.40416666666667,87.91458333333333,70.0,88.0
328,87.40416666666667,87.92708333333333,65.0,88.0
329,87.40416666666667,87.92916666666666,62.0,88.0
330,88.40416666666667,89.31041666666667,63.0,88.0
331,88.40416666666667,89.32083333333333,55.0,88.0
332,88.40416666666667,89.33333333333333,58.0,88.0
333,89.40416666666667,90.28125,63.0,88.0
334,89.40416666666667,90.30625,55.0,88.0
335,89.40416666666667,90.31458333333333,58.0,88.0
336,88.40416666666667,90.40416666666667,39.0,88.0
337,88.90416666666667,90.40416666666667,46.0,88.0
338,90.40416666666667,91.21458333333334,67.0,88.0
339,90.40416666666667,91.23958333333333,62.0,88.0
340,90.40416666666667,91.25625,59.0,88.0
341,91.40416666666667,91.87083333333334,67.0,88.0
342,91.40416666666667,91.9,62.0,88.0
343,90.40416666666667,91.93125,43.0,88.0
344,91.40416666666667,91.95208333333333,59.0,88.0
345,90.90416666666667,92.35,50.0,88.0
346,91.90416666666667,92.375,55.0,88.0
347,92.40416666666667,93.01041666666667,68.0,88.0
348,93.15416666666667,93.21666666666667,68.0,87.0
349,92.40416666666667,93.31041666666667,60.0,88.0
350,92.40416666666667,93.31458333333333,63.0,88.0
351,93.40416666666667,93.93541666666667,68.0,86.0
352,93.40416666666667,93.94791666666667,63.0,86.0
353,93.40416666666667,93.95208333333333,60.0,86.0
354,92.40416666666667,93.97708333333333,44.0,88.0
355,92.90416666666667,94.37916666666666,51.0,88.0
356,93.90416666666667,94.40208333333334,56.0,86.0
357,94.40416666666667,95.275,70.0,85.0
358,94.40416666666667,95.28333333333333,65.0,85.0
359,94.40416666666667,95.28541666666666,62.0,85.0
360,94.90416666666667,95.71875,53.0,84.0
361,95.40416666666667,95.87291666666667,65.0,84.0
362,95.40416666666667,95.87291666666667,70.0,84.0
363,94.40416666666667,95.875,46.0,85.0
364,95.40416666666667,95.88333333333333,62.0,84.0
365,96.40416666666667,97.00833333333333,67.0,83.0
366,96.40416666666667,97.32083333333333,62.0,83.0
367,96.40416666666667,97.33125,59.0,83.0
368,96.40416666666667,97.65625,55.0,83.0
369,97.40416666666667,97.87291666666667,67.0,83.0
370,97.40416666666667,97.87916666666666,62.0,83.0
371,96.40416666666667,97.88333333333333,43.0,83.0
372,97.40416666666667,97.91458333333333,59.0,83.0
373,96.90416666666667,97.91666666666667,47.0,83.0
374,96.40416666666667,97.93125,50.0,83.0
375,97.90416666666667,98.41875,55.0,83.0
376,98.40416666666667,99.26666666666667,72.0,83.0
377,98.40416666666667,99.28125,63.0,83.0
378,98.40416666666667,99.28541666666666,67.0,83.0
379,98.40416666666667,99.89583333333333,48.0,83.0
380,99.40416666666667,99.97083333333333,72.0,83.0
381,99.40416666666667,99.97291666666666,67.0,83.0
382,98.90416666666667,99.98541666666667,55.0,83.0
383,99.40416666666667,99.98541666666667,63.0,83.0
384,99.90416666666667,100.38541666666667,60.0,83.0
385,100.40416666666667,101.27083333333333,77.0,83.0
386,100.40416666666667,101.27708333333334,68.0,83.0
387,100.40416666666667,101.29583333333333,72.0,83.0
388,100.90416666666667,101.56666666666666,60.0,83.0
389,100.40416666666667,101.85208333333333,53.0,83.0
390,101.40416666666667,101.89166666666667,77.0,83.0
391,101.40416666666667,101.91458333333333,72.0,83.0
392,101.40416666666667,101.92083333333333,68.0,83.0
393,102.40416666666667,103.27708333333334,62.0,83.0
394,102.40416666666667,103.28541666666666,70.0,83.0
395,102.40416666666667,103.28958333333333,65.0,83.0
396,102.90416666666667,103.73541666666667,53.0,83.0
397,103.40416666666667,103.86458333333333,70.0,83.0
398,103.40416666666667,103.86666666666666,65.0,83.0
399,103.40416666666667,103.875,62.0,83.0
400,102.40416666666667,103.87708333333333,46.0,83.0
401,104.40416666666667,105.30416666666666,63.0,83.0
402,104.40416666666667,105.31666666666666,55.0,83.0
403,104.40416666666667,105.33958333333334,58.0,83.0
404,105.40416666666667,106.07708333333333,63.0,83.0
405,105.40416666666667,106.27708333333334,55.0,83.0
406,105.40416666666667,106.29166666666667,58.0,83.0
407,106.40416666666667,107.1875,55.0,83.0
408,106.40416666666667,107.24374999999999,63.0,83.0
409,104.90416666666667,107.40416666666667,46.0,83.0
410,105.90416666666667,107.40416666666667,51.0,83.0
411,106.40416666666667,107.40416666666667,58.0,83.0
412,104.40416666666667,107.62291666666667,39.0,83.0
413,108.40416666666667,109.01458333333333,70.0,83.0
414,108.65416666666667,109.14583333333333,58.0,83.0
415,108.90416666666667,109.16875,63.0,83.0
416,108.40416666666667,109.24791666666667,51.0,83.0
417,109.15416666666667,109.34791666666666,68.0,83.0
418,109.40416666666667,109.94791666666667,47.0,83.0
419,109.40416666666667,109.97291666666666,66.0,83.0
420,109.65416666666667,110.18958333333333,54.0,83.0
421,109.90416666666667,110.30833333333334,59.0,83.0
422,110.15416666666667,110.46249999999999,66.0,83.0
423,110.40416666666667,110.69375,65.0,83.0
424,110.40416666666667,110.96458333333334,49.0,83.0
425,110.65416666666667,110.96458333333334,63.0,82.0
426,110.90416666666667,111.04791666666667,61.0,82.0
427,110.90416666666667,111.04791666666667,61.0,82.0
428,110.65416666666667,111.18333333333334,56.0,82.0
429,111.15416666666667,111.18333333333334,56.0,81.0
430,111.40416666666667,111.7625,44.0,81.0
431,111.65416666666667,111.93958333333333,48.0,81.0
432,111.40416666666667,111.95833333333333,58.0,81.0
433,111.90416666666667,112.37916666666666,51.0,81.0
434,112.40416666666667,112.90833333333333,75.0,81.0
435,112.40416666666667,112.92083333333333,51.0,81.0
436,112.90416666666667,113.09166666666667,63.0,81.0
437,112.65416666666667,113.11458333333333,58.0,81.0
438,113.15416666666667,113.4375,68.0,80.0
439,113.40416666666667,113.67083333333333,70.0,80.0
440,113.40416666666667,113.93124999999999,47.0,80.0
441,113.65416666666667,113.94583333333333,68.0,80.0
442,113.90416666666667,114.20625,66.0,80.0
443,113.65416666666667,114.30208333333333,54.0,80.0
444,113.90416666666667,114.31875,59.0,80.0
445,114.40416666666667,115.18541666666667,49.0,80.0
446,114.65416666666667,115.27499999999999,56.0,80.0
447,114.15416666666667,115.3,68.0,80.0
448,114.90416666666667,115.33958333333334,61.0,80.0
449,115.40416666666667,115.92291666666667,51.0,80.0
450,115.90416666666667,116.06041666666667,70.0,80.0
451,115.90416666666667,116.075,66.0,80.0
452,115.65416666666667,116.18333333333334,58.0,80.0
453,115.90416666666667,116.4375,63.0,80.0
454,116.40416666666667,116.4375,63.0,80.0
455,116.40416666666667,117.3,71.0,80.0
456,116.40416666666667,117.33125,66.0,80.0
457,117.40416666666667,117.94583333333333,71.0,80.0
458,117.40416666666667,117.96458333333334,66.0,80.0
459,117.40416666666667,117.975,63.0,80.0
460,116.40416666666667,117.98125,47.0,80.0
461,117.90416666666667,118.40416666666667,59.0,80.0
462,116.90416666666667,118.41666666666667,54.0,80.0
463,118.40416666666667,119.27916666666667,73.0,80.0
464,118.40416666666667,119.2875,65.0,80.0
465,118.40416666666667,119.2875,68.0,80.0
466,119.40416666666667,119.93958333333333,73.0,80.0
467,119.40416666666667,119.95,68.0,80.0
468,118.90416666666667,119.96041666666666,56.0,80.0
469,119.40416666666667,119.96041666666666,65.0,80.0
470,119.90416666666667,120.02291666666666,61.0,80.0
471,118.40416666666667,120.08125,49.0,80.0
472,120.40416666666667,121.23125,70.0,80.0
473,120.40416666666667,121.24374999999999,61.0,80.0
474,120.40416666666667,121.24583333333334,65.0,80.0
475,120.40416666666667,121.8875,46.0,80.0
476,121.40416666666667,121.89791666666666,65.0,80.0
477,121.40416666666667,121.90416666666667,61.0,80.0
478,121.40416666666667,121.90625,70.0,80.0
479,120.90416666666667,121.93541666666667,53.0,80.0
480,121.90416666666667,122.31458333333333,58.0,80.0
481,122.40416666666667,123.23125,75.0,80.0
482,122.40416666666667,123.24166666666666,70.0,80.0
483,122.40416666666667,123.25,67.0,80.0
484,123.40416666666667,123.96041666666666,75.0,80.0
485,123.40416666666667,123.97083333333333,70.0,80.0
486,122.40416666666667,123.97291666666666,51.0,80.0
487,123.40416666666667,124.00833333333333,67.0,80.0
488,123.90416666666667,124.03125,55.0,80.0
489,122.90416666666667,124.08749999999999,58.0,80.0
490,123.15416666666667,124.4375,63.0,80.0
491,124.40416666666667,125.2625,80.0,80.0
492,124.40416666666667,125.28125,71.0,80.0
493,124.40416666666667,125.28333333333333,75.0,80.0
494,124.90416666666667,125.83749999999999,63.0,80.0
495,124.40416666666667,125.89999999999999,56.0,80.0
496,125.40416666666667,125.93333333333334,80.0,80.0
497,125.40416666666667,125.95416666666667,75.0,80.0
498,125.40416666666667,125.96875,71.0,80.0
499,126.40416666666667,127.27708333333334,65.0,80.0
500,126.40416666666667,127.27708333333334,73.0,80.0
501,126.40416666666667,127.28333333333333,68.0,80.0
502,126.90416666666667,127.80624999999999,56.0,80.0
503,127.40416666666667,127.89375,68.0,80.0
504,127.40416666666667,127.89375,73.0,80.0
505,126.40416666666667,127.90208333333334,49.0,80.0
506,127.40416666666667,127.90208333333334,65.0,80.0
507,128.40416666666667,129.25416666666666,70.0,80.0
508,128.40416666666667,129.30625,65.0,80.0
509,128.40416666666667,129.33125,62.0,80.0
510,129.40416666666667,130.15,70.0,80.0
511,129.40416666666667,130.27083333333334,65.0,80.0
512,129.40416666666667,130.2875,62.0,80.0
513,130.40416666666667,131.18541666666667,70.0,80.0
514,130.40416666666667,131.30833333333334,65.0,80.0
515,130.40416666666667,131.31041666666667,62.0,80.0
516,131.40416666666667,132.1625,70.0,82.0
517,131.40416666666667,132.26041666666666,65.0,82.0
518,131.40416666666667,132.28541666666666,62.0,82.0
519,129.40416666666667,132.36458333333334,58.0,80.0
520,129.15416666666667,134.325,50.0,80.0
521,132.40416666666667,134.33958333333334,70.0,84.0
522,132.40416666666667,134.35833333333332,58.0,84.0
523,128.90416666666667,134.36041666666665,53.0,80.0
524,132.40416666666667,134.37291666666667,65.0,84.0
525,128.40416666666667,134.37708333333333,46.0,80.0
526,132.40416666666667,134.37708333333333,62.0,84.0
527,134.40416666666667,135.35208333333333,63.0,85.0
528,134.40416666666667,135.35833333333332,72.0,85.0
529,134.40416666666667,135.36041666666665,67.0,85.0
530,134.90416666666667,135.87083333333334,55.0,85.0
531,135.40416666666667,135.93125,67.0,85.0
532,135.40416666666667,135.93333333333334,72.0,85.0
533,135.40416666666667,135.94583333333333,63.0,85.0
534,134.40416666666667,135.99375,48.0,85.0
535,136.40416666666667,138.08958333333334,44.0,85.0
536,136.40416666666667,138.12708333333333,68.0,85.0
537,136.40416666666667,138.15,63.0,85.0
538,136.40416666666667,138.16875,60.0,85.0
539,138.40416666666667,139.92291666666665,65.0,85.0
540,138.40416666666667,139.925,46.0,85.0
541,138.40416666666667,139.93333333333334,62.0,85.0
542,138.40416666666667,139.94583333333333,70.0,85.0
543,141.15416666666667,141.46875,62.0,83.0
544,141.40416666666667,141.57708333333332,63.0,83.0
545,140.90416666666667,142.02291666666667,60.0,83.0
546,140.40416666666667,142.24583333333334,48.0,83.0
547,140.65416666666667,142.24791666666667,55.0,83.0
548,141.65416666666667,142.36041666666665,67.0,83.0
549,143.15416666666667,143.45208333333332,60.0,81.0
550,142.90416666666667,143.52083333333334,56.0,81.0
551,142.40416666666667,144.22083333333333,44.0,82.0
552,142.65416666666667,144.27708333333334,51.0,81.0
553,143.40416666666667,144.45208333333332,67.0,81.0
554,145.15416666666667,145.46458333333334,62.0,81.0
555,144.40416666666667,145.86666666666667,46.0,81.0
556,144.65416666666667,145.88125,53.0,81.0
557,144.90416666666667,145.92291666666665,58.0,81.0
558,145.40416666666667,146.39166666666665,65.0,81.0
559,146.40416666666667,147.27916666666667,55.0,80.0
560,146.40416666666667,147.30625,58.0,80.0
561,146.40416666666667,147.30625,63.0,80.0
562,146.40416666666667,147.88541666666666,39.0,80.0
563,147.40416666666667,147.9125,55.0,80.0
564,147.40416666666667,147.92083333333332,58.0,80.0
565,147.40416666666667,147.925,63.0,80.0
566,146.90416666666667,147.96875,46.0,80.0
567,147.90416666666667,148.39583333333334,51.0,80.0
568,148.40416666666667,149.26875,62.0,80.0
569,148.40416666666667,149.28541666666666,59.0,80.0
570,148.40416666666667,149.29166666666666,67.0,80.0
571,149.40416666666667,149.94375,62.0,80.0
572,149.40416666666667,149.98333333333332,67.0,80.0
573,148.90416666666667,149.9875,50.0,80.0
574,148.40416666666667,150.00416666666666,43.0,80.0
575,149.40416666666667,150.00833333333333,59.0,80.0
576,150.40416666666667,150.7875,68.0,79.0
577,150.40416666666667,150.81666666666666,60.0,79.0
578,150.40416666666667,150.85208333333333,63.0,79.0
579,151.15416666666667,151.35,60.0,79.0
580,151.40416666666667,151.91875,68.0,79.0
581,150.40416666666667,151.9375,44.0,79.0
582,151.40416666666667,151.94375,60.0,79.0
583,151.40416666666667,151.94791666666666,63.0,79.0
584,150.90416666666667,151.96458333333334,56.0,79.0
585,150.65416666666667,151.97708333333333,51.0,79.0
586,153.15416666666667,153.38333333333333,62.0,79.0
587,152.90416666666667,154.07083333333333,58.0,79.0
588,152.40416666666667,154.075,46.0,79.0
589,152.65416666666667,154.09166666666667,53.0,79.0
590,153.40416666666667,154.1125,70.0,79.0
591,153.40416666666667,154.12291666666667,65.0,79.0
592,153.40416666666667,154.125,62.0,79.0
593,154.40416666666667,155.21666666666667,72.0,78.0
594,154.40416666666667,155.25,63.0,78.0
595,154.40416666666667,155.25208333333333,67.0,78.0
596,155.40416666666667,156.25833333333333,72.0,78.0
597,155.40416666666667,156.28333333333333,63.0,78.0
598,155.40416666666667,156.29166666666666,67.0,78.0
599,156.40416666666667,157.03333333333333,75.0,78.0
600,156.40416666666667,157.04375,72.0,78.0
601,157.40416666666667,157.75,72.0,78.0
602,157.40416666666667,157.77083333333334,75.0,78.0
603,157.90416666666667,158.33541666666667,77.0,78.0
604,157.90416666666667,158.3375,72.0,78.0
605,154.40416666666667,158.37708333333333,48.0,78.0
606,154.90416666666667,158.40833333333333,55.0,78.0
607,158.90416666666667,159.35833333333332,60.0,78.0
608,159.15416666666667,159.85,72.0,78.0
609,159.15416666666667,159.85208333333333,63.0,78.0
610,159.15416666666667,159.85833333333332,67.0,78.0
611,158.65416666666667,159.87916666666666,55.0,78.0
612,158.40416666666667,159.9625,48.0,78.0
613,159.90416666666667,160.34375,72.0,78.0
614,159.90416666666667,160.36041666666665,63.0,78.0
615,159.90416666666667,160.36458333333334,67.0,78.0
616,160.90416666666667,161.24166666666667,56.0,78.0
617,161.15416666666667,161.71666666666667,68.0,78.0
618,161.15416666666667,161.74791666666667,60.0,78.0
619,161.15416666666667,161.75208333333333,63.0,78.0
620,161.90416666666667,162.24583333333334,68.0,78.0
621,160.40416666666667,162.25208333333333,44.0,78.0
622,161.90416666666667,162.25208333333333,60.0,78.0
623,161.90416666666667,162.27291666666667,63.0,78.0
624,161.65416666666667,162.36041666666665,56.0,78.0
625,160.65416666666667,162.43333333333334,51.0,78.0
626,162.40416666666667,163.02083333333334,70.0,78.0
627,162.40416666666667,163.04166666666666,62.0,78.0
628,162.40416666666667,163.04791666666665,65.0,78.0
629,162.90416666666667,163.37083333333334,58.0,78.0
630,162.40416666666667,163.84375,46.0,78.0
631,163.15416666666667,163.88958333333332,70.0,78.0
632,163.15416666666667,163.90416666666667,65.0,78.0
633,163.15416666666667,163.91666666666666,62.0,78.0
634,162.65416666666667,164.32916666666665,53.0,78.0
635,163.65416666666667,164.35625,58.0,78.0
636,164.90416666666667,165.01458333333332,77.0,78.0
637,165.15416666666667,165.45625,75.0,78.0
638,164.90416666666667,165.81875,60.0,78.0
639,164.90416666666667,165.90625,68.0,78.0
640,164.65416666666667,165.99166666666667,55.0,78.0
641,164.40416666666667,166.07708333333332,48.0,78.0
642,165.65416666666667,166.13333333333333,72.0,78.0
643,166.40416666666667,167.2375,68.0,78.0
644,166.40416666666667,167.25833333333333,60.0,78.0
645,166.40416666666667,167.26666666666665,63.0,78.0
646,166.40416666666667,167.85833333333332,44.0,78.0
647,167.40416666666667,167.8625,68.0,78.0
648,166.90416666666667,167.87083333333334,51.0,78.0
649,167.40416666666667,167.8875,60.0,78.0
650,167.40416666666667,167.8875,63.0,78.0
651,168.40416666666667,169.33541666666667,62.0,78.0
652,168.40416666666667,169.34166666666667,70.0,78.0
653,168.40416666666667,169.35416666666666,65.0,78.0
654,169.40416666666667,169.55,87.0,78.0
655,169.40416666666667,169.77083333333334,82.0,78.0
656,169.65416666666667,169.79791666666665,89.0,78.0
657,169.40416666666667,169.85833333333332,70.0,78.0
658,169.40416666666667,169.8875,65.0,78.0
659,169.40416666666667,169.89791666666667,62.0,78.0
660,169.80416666666667,169.91041666666666,87.0,78.0
661,168.40416666666667,169.92708333333334,46.0,78.0
662,168.90416666666667,169.97291666666666,53.0,78.0
663,169.90416666666667,170.16458333333333,82.0,78.0
664,169.90416666666667,170.16458333333333,82.0,78.0
665,170.40416666666667,171.25208333333333,63.0,78.0
666,170.40416666666667,171.25625,55.0,78.0
667,170.40416666666667,171.26666666666665,58.0,78.0
668,170.40416666666667,171.75,39.0,78.0
669,171.40416666666667,171.84166666666667,55.0,78.0
670,171.40416666666667,171.85625,58.0,78.0
671,171.40416666666667,171.85625,63.0,78.0
672,170.90416666666667,171.95833333333334,46.0,78.0
673,172.40416666666667,172.6,67.0,78.0
674,172.40416666666667,173.29375,62.0,78.0
675,172.40416666666667,173.33125,59.0,78.0
676,173.40416666666667,173.85833333333332,67.0,78.0
677,172.40416666666667,173.99166666666667,43.0,78.0
678,173.40416666666667,173.99583333333334,62.0,78.0
679,172.90416666666667,174.02916666666667,50.0,78.0
680,173.40416666666667,174.04375,59.0,78.0
681,174.90416666666667,175.01041666666666,60.0,78.0
682,175.15416666666667,175.79791666666665,60.0,78.0
683,174.90416666666667,176.01875,56.0,78.0
684,174.40416666666667,176.10625,44.0,78.0
685,174.65416666666667,176.275,51.0,78.0
686,175.65416666666667,176.4625,67.0,78.0
687,176.15416666666667,176.48125,60.0,78.0
688,177.15416666666667,177.58125,62.0,78.0
689,176.40416666666667,178.1125,46.0,78.0
690,176.90416666666667,178.12083333333334,58.0,78.0
691,176.65416666666667,178.29583333333332,53.0,78.0
692,177.65416666666667,178.3,62.0,78.0
693,177.65416666666667,178.30416666666667,65.0,78.0
694,178.40416666666667,179.27291666666667,63.0,78.0
695,178.40416666666667,179.27708333333334,67.0,78.0
696,178.40416666666667,179.81875,48.0,78.0
697,178.90416666666667,180.20833333333334,55.0,78.0
698,179.40416666666667,180.27291666666667,67.0,78.0
699,179.40416666666667,180.29166666666666,63.0,78.0
700,180.40416666666667,180.6375,48.0,78.0
701,180.40416666666667,180.6375,67.0,78.0
702,180.40416666666667,180.63958333333332,72.0,78.0
703,180.40416666666667,180.66041666666666,63.0,78.0
704,181.40416666666667,181.75208333333333,43.0,78.0
705,181.40416666666667,181.75625,67.0,78.0
706,181.40416666666667,181.76041666666666,58.0,78.0
707,181.40416666666667,181.76875,62.0,78.0
708,181.90416666666667,182.18333333333334,67.0,78.0
709,181.90416666666667,182.19166666666666,58.0,78.0
710,181.90416666666667,182.19166666666666,62.0,78.0
711,181.90416666666667,182.2,43.0,78.0
712,182.40416666666667,183.25625,60.0,78.0
713,182.40416666666667,183.25625,68.0,78.0
714,182.40416666666667,183.2625,63.0,78.0
715,182.40416666666667,183.87291666666667,44.0,78.0
716,183.40416666666667,183.91875,68.0,78.0
717,183.40416666666667,183.93958333333333,63.0,78.0
718,183.40416666666667,183.94791666666666,60.0,78.0
719,184.15416666666667,184.20833333333334,62.0,78.0
720,184.15416666666667,184.20833333333334,65.0,78.0
721,182.90416666666667,184.30208333333334,51.0,78.0
722,183.90416666666667,184.37708333333333,56.0,78.0
723,184.40416666666667,185.31041666666667,62.0,78.0
724,184.40416666666667,185.31041666666667,70.0,78.0
725,184.40416666666667,185.31666666666666,65.0,78.0
726,184.90416666666667,185.77708333333334,53.0,78.0
727,185.40416666666667,185.88125,70.0,78.0
728,185.40416666666667,185.8875,65.0,78.0
729,185.40416666666667,185.90416666666667,62.0,78.0
730,184.40416666666667,185.95,46.0,78.0
731,186.40416666666667,187.05208333333334,39.0,78.0
732,186.40416666666667,187.28125,67.0,78.0
733,186.40416666666667,187.28541666666666,58.0,78.0
734,186.40416666666667,187.28958333333333,62.0,78.0
735,186.40416666666667,187.89791666666667,43.0,78.0
736,186.90416666666667,187.95625,50.0,78.0
737,187.40416666666667,187.96875,67.0,78.0
738,187.40416666666667,187.97083333333333,62.0,78.0
739,187.40416666666667,187.97291666666666,58.0,78.0
740,187.90416666666667,188.40416666666667,55.0,78.0
741,188.40416666666667,188.89375,76.0,78.0
742,188.40416666666667,188.90416666666667,72.0,78.0
743,189.15416666666667,189.54166666666666,77.0,79.0
744,189.15416666666667,189.55,72.0,79.0
745,189.40416666666667,189.95,60.0,79.0
746,188.40416666666667,189.99166666666667,48.0,78.0
747,189.40416666666667,190.02708333333334,52.0,79.0
748,188.90416666666667,190.08541666666667,55.0,79.0
749,189.65416666666667,190.34583333333333,72.0,79.0
750,189.65416666666667,190.35,79.0,79.0
751,190.40416666666667,191.24583333333334,56.0,79.0
752,190.40416666666667,191.25208333333333,65.0,79.0
753,190.40416666666667,191.27083333333334,60.0,79.0
754,190.40416666666667,191.87083333333334,41.0,79.0
755,191.90416666666667,191.93958333333333,55.0,79.0
756,191.40416666666667,191.9625,65.0,79.0
757,191.40416666666667,191.96458333333334,60.0,79.0
758,191.40416666666667,191.96875,56.0,79.0
759,190.90416666666667,191.97083333333333,48.0,79.0
760,191.90416666666667,192.35833333333332,53.0,79.0
761,192.40416666666667,193.26875,70.0,79.0
762,192.40416666666667,193.27291666666667,62.0,79.0
763,192.40416666666667,193.27708333333334,65.0,79.0
764,192.90416666666667,193.80416666666667,53.0,79.0
765,192.40416666666667,193.90833333333333,46.0,79.0
766,193.40416666666667,193.91458333333333,70.0,79.0
767,193.40416666666667,193.92708333333334,65.0,79.0
768,193.40416666666667,193.92916666666667,62.0,79.0
769,194.40416666666667,195.31041666666667,63.0,79.0
770,194.40416666666667,195.32083333333333,55.0,79.0
771,194.40416666666667,195.33333333333334,58.0,79.0
772,195.40416666666667,196.28125,63.0,79.0
773,195.40416666666667,196.30625,55.0,79.0
774,195.40416666666667,196.31458333333333,58.0,79.0
775,194.40416666666667,196.40416666666667,39.0,79.0
776,194.90416666666667,196.40416666666667,46.0,79.0
777,196.40416666666667,197.21458333333334,67.0,79.0
778,196.40416666666667,197.23958333333334,62.0,79.0
779,196.40416666666667,197.25625,59.0,79.0
780,197.40416666666667,197.87083333333334,67.0,79.0
781,197.40416666666667,197.9,62.0,79.0
782,196.40416666666667,197.93125,43.0,79.0
783,197.40416666666667,197.95208333333332,59.0,79.0
784,196.90416666666667,198.35,50.0,79.0
785,197.90416666666667,198.375,55.0,79.0
786,198.40416666666667,199.01041666666666,68.0,79.0
787,199.15416666666667,199.21666666666667,68.0,80.0
788,198.40416666666667,199.31041666666667,60.0,79.0
789,198.40416666666667,199.31458333333333,63.0,79.0
790,199.40416666666667,199.93541666666667,68.0,80.0
791,199.40416666666667,199.94791666666666,63.0,80.0
792,199.40416666666667,199.95208333333332,60.0,80.0
793,198.40416666666667,199.97708333333333,44.0,79.0
794,198.90416666666667,200.37916666666666,51.0,79.0
795,199.90416666666667,200.40208333333334,56.0,80.0
796,200.40416666666667,201.275,70.0,80.0
797,200.40416666666667,201.28333333333333,65.0,80.0
798,200.40416666666667,201.28541666666666,62.0,80.0
799,200.90416666666667,201.71875,53.0,80.0
800,201.40416666666667,201.87291666666667,65.0,80.0
801,201.40416666666667,201.87291666666667,70.0,80.0
802,200.40416666666667,201.875,46.0,80.0
803,201.40416666666667,201.88333333333333,62.0,80.0
804,202.40416666666667,203.00833333333333,67.0,80.0
805,202.40416666666667,203.32083333333333,62.0,80.0
806,202.40416666666667,203.33125,59.0,80.0
807,202.40416666666667,203.65625,55.0,80.0
808,203.40416666666667,203.87291666666667,67.0,80.0
809,203.40416666666667,203.87916666666666,62.0,80.0
810,202.40416666666667,203.88333333333333,43.0,80.0
811,203.40416666666667,203.91458333333333,59.0,80.0
812,202.90416666666667,203.91666666666666,47.0,80.0
813,202.40416666666667,203.93125,50.0,80.0
814,203.90416666666667,204.41875,55.0,80.0
815,204.40416666666667,205.26666666666665,72.0,80.0
816,204.40416666666667,205.28125,63.0,80.0
817,204.40416666666667,205.28541666666666,67.0,80.0
818,204.40416666666667,205.89583333333334,48.0,80.0
819,205.40416666666667,205.97083333333333,72.0,80.0
820,205.40416666666667,205.97291666666666,67.0,80.0
821,204.90416666666667,205.98541666666665,55.0,80.0
822,205.40416666666667,205.98541666666665,63.0,80.0
823,205.90416666666667,206.38541666666666,60.0,82.0
824,206.40416666666667,207.27083333333334,77.0,82.0
825,206.40416666666667,207.27708333333334,68.0,82.0
826,206.40416666666667,207.29583333333332,72.0,82.0
827,206.90416666666667,207.56666666666666,60.0,82.0
828,206.40416666666667,207.85208333333333,53.0,82.0
829,207.40416666666667,207.89166666666665,77.0,82.0
830,207.40416666666667,207.91458333333333,72.0,82.0
831,207.40416666666667,207.92083333333332,68.0,82.0
832,208.40416666666667,209.27708333333334,62.0,86.0
833,208.40416666666667,209.28541666666666,70.0,86.0
834,208.40416666666667,209.28958333333333,65.0,86.0
835,208.90416666666667,209.73541666666665,53.0,86.0
836,209.40416666666667,209.86458333333334,70.0,86.0
837,209.40416666666667,209.86666666666667,65.0,86.0
838,209.40416666666667,209.875,62.0,86.0
839,208.40416666666667,209.87708333333333,46.0,86.0
840,210.40416666666667,211.30416666666667,63.0,88.0
841,210.40416666666667,211.31666666666666,55.0,88.0
842,210.40416666666667,211.33958333333334,58.0,88.0
843,211.40416666666667,212.07708333333332,63.0,88.0
844,211.40416666666667,212.27708333333334,55.0,88.0
845,211.40416666666667,212.29166666666666,58.0,88.0
846,212.40416666666667,213.1875,55.0,89.0
847,212.40416666666667,213.24375,63.0,89.0
848,210.90416666666667,213.40416666666667,46.0,88.0
849,211.90416666666667,213.40416666666667,51.0,89.0
850,212.40416666666667,213.40416666666667,58.0,89.0
851,210.40416666666667,213.62291666666667,39.0,88.0
852,213.40416666666667,213.75208333333333,43.0,90.0
853,213.40416666666667,213.75625,67.0,90.0
854,213.40416666666667,213.76041666666666,58.0,90.0
855,213.40416666666667,213.76874999999998,62.0,90.0
856,213.90416666666667,214.18333333333334,67.0,90.0
857,213.90416666666667,214.19166666666666,58.0,90.0
858,213.90416666666667,214.19166666666666,62.0,90.0
859,213.90416666666667,214.2,43.0,90.0
860,214.40416666666667,215.25625,60.0,90.0
861,214.40416666666667,215.25625,68.0,90.0
862,214.40416666666667,215.2625,63.0,90.0
863,214.40416666666667,215.87291666666667,44.0,90.0
864,215.40416666666667,215.91875,68.0,90.0
865,215.40416666666667,215.93958333333333,63.0,90.0
866,215.40416666666667,215.94791666666666,60.0,90.0
867,216.15416666666667,216.20833333333334,62.0,90.0
868,216.15416666666667,216.20833333333334,65.0,90.0
869,214.90416666666667,216.30208333333334,51.0,90.0
870,215.90416666666667,216.37708333333333,56.0,90.0
871,216.40416666666667,217.31041666666667,62.0,90.0
872,216.40416666666667,217.31041666666667,70.0,90.0
873,216.40416666666667,217.31666666666666,65.0,90.0
874,216.90416666666667,217.77708333333334,53.0,90.0
875,217.40416666666667,217.88125,70.0,90.0
876,217.40416666666667,217.8875,65.0,90.0
877,217.40416666666667,217.90416666666667,62.0,90.0
878,216.40416666666667,217.95,46.0,90.0
879,218.40416666666667,219.05208333333334,39.0,91.0
880,218.40416666666667,219.28125,67.0,91.0
881,218.40416666666667,219.28541666666666,58.0,91.0
882,218.40416666666667,219.28958333333333,62.0,91.0
883,218.40416666666667,219.89791666666667,43.0,91.0
884,218.90416666666667,219.95624999999998,50.0,91.0
885,219.40416666666667,219.96875,67.0,91.0
886,219.40416666666667,219.97083333333333,62.0,91.0
887,219.40416666666667,219.97291666666666,58.0,91.0
888,219.90416666666667,220.40416666666667,55.0,91.0
889,220.40416666666667,220.89374999999998,76.0,91.0
890,220.40416666666667,220.90416666666667,72.0,91.0
891,221.15416666666667,221.54166666666666,77.0,91.0
892,221.15416666666667,221.54999999999998,72.0,91.0
893,221.40416666666667,221.95,60.0,91.0
894,220.40416666666667,221.99166666666667,48.0,91.0
895,221.40416666666667,222.02708333333334,52.0,91.0
896,220.90416666666667,222.08541666666667,55.0,91.0
897,221.65416666666667,222.34583333333333,72.0,91.0
898,221.65416666666667,222.35,79.0,91.0
899,222.40416666666667,223.24583333333334,56.0,92.0
900,222.40416666666667,223.25208333333333,65.0,92.0
901,222.40416666666667,223.27083333333334,60.0,92.0
902,222.40416666666667,223.87083333333334,41.0,92.0
903,223.90416666666667,223.93958333333333,55.0,92.0
904,223.40416666666667,223.9625,65.0,92.0
905,223.40416666666667,223.96458333333334,60.0,92.0
906,223.40416666666667,223.96875,56.0,92.0
907,222.90416666666667,223.97083333333333,48.0,92.0
908,223.90416666666667,224.35833333333332,53.0,92.0
909,224.40416666666667,225.26874999999998,70.0,92.0
910,224.40416666666667,225.27291666666667,62.0,92.0
911,224.40416666666667,225.27708333333334,65.0,92.0
912,224.90416666666667,225.80416666666667,53.0,92.0
913,224.40416666666667,225.90833333333333,46.0,92.0
914,225.40416666666667,225.91458333333333,70.0,92.0
915,225.40416666666667,225.92708333333334,65.0,92.0
916,225.40416666666667,225.92916666666667,62.0,92.0
917,226.40416666666667,227.31041666666667,63.0,92.0
918,226.40416666666667,227.32083333333333,55.0,92.0
919,226.40416666666667,227.33333333333334,58.0,92.0
920,227.40416666666667,228.28125,63.0,92.0
921,227.40416666666667,228.30625,55.0,92.0
922,227.40416666666667,228.31458333333333,58.0,92.0
923,226.40416666666667,228.40416666666667,39.0,92.0
924,226.90416666666667,228.40416666666667,46.0,92.0
925,228.40416666666667,229.21458333333334,67.0,92.0
926,228.40416666666667,229.23958333333334,62.0,92.0
927,228.40416666666667,229.25625,59.0,92.0
928,229.40416666666667,229.87083333333334,67.0,92.0
929,229.40416666666667,229.9,62.0,92.0
930,228.40416666666667,229.93125,43.0,92.0
931,229.40416666666667,229.95208333333332,59.0,92.0
932,228.90416666666667,230.35,50.0,92.0
933,229.90416666666667,230.375,55.0,92.0
934,230.40416666666667,231.01041666666666,68.0,92.0
935,231.15416666666667,231.21666666666667,68.0,90.0
936,230.40416666666667,231.31041666666667,60.0,92.0
937,230.40416666666667,231.31458333333333,63.0,92.0
938,231.40416666666667,231.93541666666667,68.0,90.0
939,231.40416666666667,231.94791666666666,63.0,90.0
940,231.40416666666667,231.95208333333332,60.0,90.0
941,230.40416666666667,231.97708333333333,44.0,92.0
942,230.90416666666667,232.37916666666666,51.0,92.0
943,231.90416666666667,232.40208333333334,56.0,90.0
944,232.40416666666667,233.275,70.0,90.0
945,232.40416666666667,233.28333333333333,65.0,90.0
946,232.40416666666667,233.28541666666666,62.0,90.0
947,232.90416666666667,233.71875,53.0,90.0
948,233.40416666666667,233.87291666666667,65.0,88.0
949,233.40416666666667,233.87291666666667,70.0,88.0
950,232.40416666666667,233.875,46.0,90.0
951,233.40416666666667,233.88333333333333,62.0,88.0
952,234.40416666666667,235.00833333333333,67.0,87.0
953,234.40416666666667,235.32083333333333,62.0,87.0
954,234.40416666666667,235.33124999999998,59.0,87.0
955,234.40416666666667,235.65625,55.0,87.0
956,235.40416666666667,235.87291666666667,67.0,87.0
957,235.40416666666667,235.87916666666666,62.0,87.0
958,234.40416666666667,235.88333333333333,43.0,87.0
959,235.40416666666667,235.91458333333333,59.0,87.0
960,234.90416666666667,235.91666666666666,47.0,87.0
961,234.40416666666667,235.93125,50.0,87.0
962,235.90416666666667,236.41875,55.0,87.0
963,236.40416666666667,237.26666666666665,72.0,87.0
964,236.40416666666667,237.28125,63.0,87.0
965,236.40416666666667,237.28541666666666,67.0,87.0
966,236.40416666666667,237.89583333333334,48.0,87.0
967,237.40416666666667,237.97083333333333,72.0,87.0
968,237.40416666666667,237.97291666666666,67.0,87.0
969,236.90416666666667,237.98541666666665,55.0,87.0
970,237.40416666666667,237.98541666666665,63.0,87.0
971,237.90416666666667,238.38541666666666,60.0,87.0
972,238.40416666666667,239.27083333333334,77.0,87.0
973,238.40416666666667,239.27708333333334,68.0,87.0
974,238.40416666666667,239.29583333333332,72.0,87.0
975,238.90416666666667,239.56666666666666,60.0,87.0
976,238.40416666666667,239.85208333333333,53.0,87.0
977,239.40416666666667,239.89166666666665,77.0,86.0
978,239.40416666666667,239.91458333333333,72.0,86.0
979,239.40416666666667,239.92083333333332,68.0,86.0
980,240.40416666666667,241.27708333333334,62.0,85.0
981,240.40416666666667,241.28541666666666,70.0,85.0
982,240.40416666666667,241.28958333333333,65.0,85.0
983,240.90416666666667,241.73541666666665,53.0,85.0
984,241.40416666666667,241.86458333333334,70.0,85.0
985,241.40416666666667,241.86666666666667,65.0,85.0
986,241.40416666666667,241.875,62.0,85.0
987,240.40416666666667,241.87708333333333,46.0,85.0
988,242.40416666666667,243.30416666666667,63.0,85.0
989,242.40416666666667,243.31666666666666,55.0,85.0
990,242.40416666666667,243.33958333333334,58.0,85.0
991,243.40416666666667,244.07708333333332,63.0,85.0
992,243.40416666666667,244.27708333333334,55.0,85.0
993,243.40416666666667,244.29166666666666,58.0,85.0
994,244.40416666666667,245.1875,55.0,85.0
995,244.40416666666667,245.24375,63.0,85.0
996,242.90416666666667,245.40416666666667,46.0,85.0
997,243.90416666666667,245.40416666666667,51.0,85.0
998,244.40416666666667,245.40416666666667,58.0,85.0
999,242.40416666666667,245.62291666666667,39.0,85.0
1000,246.40416666666667,247.05416666666667,61.0,85.0
1001,246.40416666666667,247.0875,63.0,85.0
1002,246.40416666666667,247.08958333333334,73.0,85.0
1003,246.40416666666667,247.10416666666666,49.0,85.0
1004,247.40416666666667,248.0,48.0,85.0
1005,247.40416666666667,248.02708333333334,70.0,85.0
1006,247.40416666666667,248.04375,63.0,85.0
1007,248.41458333333333,248.99375,53.0,85.0
1008,248.40416666666667,249.03333333333333,47.0,85.0
1009,248.42499999999998,249.05625,56.0,85.0
1010,249.40416666666667,252.6625,53.0,85.0
1011,249.40416666666667,252.68125,58.0,85.0
1012,252.65416666666667,252.68125,58.0,83.0
1013,249.40416666666667,252.69583333333333,46.0,85.0
1014,252.90416666666667,253.0375,65.0,83.0
1015,253.15416666666667,253.33958333333334,58.0,83.0
1016,252.40416666666667,253.97291666666666,51.0,83.0
1017,253.65416666666667,253.97708333333333,58.0,83.0
1018,253.90416666666667,254.17499999999998,65.0,83.0
1019,253.40416666666667,254.41875,67.0,83.0
1020,254.65416666666667,254.90208333333334,58.0,83.0
1021,254.90416666666667,255.02708333333334,65.0,83.0
1022,255.15416666666667,255.38541666666666,58.0,83.0
1023,255.40416666666667,255.89791666666667,67.0,83.0
1024,255.65416666666667,255.975,58.0,83.0
1025,254.40416666666667,256.1375,51.0,83.0
1026,255.90416666666667,256.2916666666667,65.0,83.0
1027,256.65416666666664,256.8854166666667,70.0,83.0
1028,256.90416666666664,257.2270833333333,77.0,83.0
1029,257.15416666666664,257.4625,70.0,83.0
1030,256.65416666666664,257.76875,58.0,83.0
1031,257.40416666666664,257.79375,79.0,83.0
1032,257.65416666666664,258.05625,70.0,83.0
1033,256.40416666666664,258.40416666666664,51.0,83.0
1034,258.15416666666664,260.7104166666667,77.0,83.0
1035,259.40416666666664,261.3958333333333,63.0,83.0
1036,258.65416666666664,261.3979166666667,79.0,83.0
1037,258.90416666666664,261.43541666666664,58.0,83.0
1038,258.65416666666664,261.45208333333335,70.0,83.0
1039,258.65416666666664,261.45416666666665,75.0,83.0
1040,258.65416666666664,261.475,51.0,83.0
