,start,end,pitch,velocity
0,24.4888644,24.818030737500003,72.0,50.0
1,24.8221974,25.152752625,72.0,71.0
2,25.1555304,25.497196725000002,74.0,63.0
3,25.4888634,25.8180297375,75.0,63.0
4,25.822196400000003,26.1513627375,75.0,66.0
5,26.155529400000002,26.486084625,75.0,66.0
6,26.488862400000002,26.872195350000002,72.0,64.0
7,26.822195400000002,27.486083625000003,79.0,65.0
8,27.4888614,27.819416625000002,77.0,67.0
9,27.8221944,28.486082625,75.0,67.0
10,28.4888604,29.819414625,77.0,79.0
11,29.822192400000002,30.1513587375,70.0,64.0
12,30.155525400000002,30.486080625,70.0,66.0
13,30.4888584,30.819413625000003,72.0,65.0
14,30.8221914,31.1513577375,74.0,75.0
15,31.1555244,31.484690737500003,74.0,62.0
16,31.4888574,31.819412625000002,74.0,65.0
17,31.8221904,32.197190025000005,70.0,61.0
18,32.1555234,32.819411625,80.0,68.0
19,32.8221894,33.152744625000004,79.0,69.0
20,33.1555224,33.819410625,77.0,64.0
21,33.8221884,35.152742625,79.0,77.0
22,35.1555204,35.4846867375,77.0,64.0
23,35.4888534,35.819408625,77.0,58.0
24,35.8221864,36.152741625000004,79.0,66.0
25,36.1555194,36.4846857375,80.0,67.0
26,36.4888524,36.818018737500005,80.0,66.0
27,36.8221854,37.152740625,80.0,71.0
28,37.1555184,37.5069069375,77.0,65.0
29,37.4888514,38.152739625,79.0,66.0
30,38.1555174,38.4846837375,77.0,66.0
31,38.488850400000004,39.152738625000005,77.0,63.0
32,39.1555164,40.819403625,75.0,65.0
33,40.822181400000005,41.151347737500004,72.0,86.0
34,41.1555144,41.4846807375,72.0,71.0
35,41.488847400000004,42.152735625000005,72.0,80.0
36,42.155513400000004,42.486068625,70.0,65.0
37,42.4888464,45.486065625,72.0,81.0
38,45.822176400000004,46.1513427375,72.0,87.0
39,46.1555094,46.486064625000004,72.0,74.0
40,46.4888424,46.819397625,74.0,82.0
41,46.8221754,47.151341737500005,75.0,80.0
42,47.1555084,47.4846747375,75.0,79.0
43,47.488841400000005,47.819396625,75.0,79.0
44,47.8221744,48.186062925,72.0,66.0
45,48.155507400000005,48.819395625000006,79.0,72.0
46,48.822173400000004,49.152728625,77.0,68.0
47,49.1555064,49.819394625,75.0,72.0
48,49.8221724,51.152726625,77.0,84.0
49,51.155504400000005,51.484670737500004,70.0,61.0
50,51.4888374,51.819392625,70.0,66.0
51,51.822170400000005,52.152725625,72.0,65.0
52,52.1555034,52.4846697375,74.0,75.0
53,52.488836400000004,52.8180027375,74.0,68.0
54,52.8221694,53.152724625000005,74.0,67.0
55,53.1555024,53.502724275000006,70.0,77.0
56,53.4888354,54.152723625,80.0,80.0
57,54.155501400000006,54.486056625,79.0,86.0
58,54.4888344,55.152722625,77.0,86.0
59,55.1555004,56.152721625000005,79.0,91.0
60,56.4888324,56.817998737500005,77.0,63.0
61,56.8221654,57.152720625,77.0,61.0
62,57.1554984,57.5624424375,79.0,66.0
63,57.4888314,57.8179977375,80.0,64.0
64,57.822164400000005,58.151330737500004,80.0,60.0
65,58.1554974,58.486052625,80.0,73.0
66,58.488830400000005,58.840218937500005,77.0,63.0
67,58.8221634,59.486051625,79.0,66.0
68,59.4888294,59.817995737500006,77.0,73.0
69,59.8221624,60.486050625000004,77.0,64.0
70,60.4888284,61.486049625,75.0,65.0
71,62.155493400000005,62.4846597375,72.0,74.0
72,62.4888264,62.817992737500006,72.0,82.0
73,62.822159400000004,63.486047625000005,72.0,84.0
74,63.4888254,63.819380625,70.0,76.0
75,63.8221584,66.15271162500001,72.0,80.0
76,67.1554884,67.48465473750001,84.0,90.0
77,67.4888214,67.819376625,84.0,68.0
78,67.8221544,68.1513207375,82.0,64.0
79,68.1554874,68.4846537375,82.0,64.0
80,68.48882040000001,68.81798673750001,82.0,64.0
81,68.8221534,69.152708625,82.0,89.0
82,69.1554864,69.486041625,79.0,66.0
83,69.4888194,69.81937462500001,77.0,61.0
84,69.82215240000001,70.486040625,79.0,73.0
85,70.4888184,72.15270562500001,77.0,57.0
86,72.15548340000001,72.641594025,84.0,98.0
87,72.65548290000001,73.152704625,82.0,91.0
88,73.1554824,73.5263153625,79.0,77.0
89,73.48881540000001,73.98603712500001,77.0,72.0
90,73.98881490000001,74.486036625,82.0,89.0
91,74.48881440000001,76.8179787375,79.0,87.0
92,76.8221454,77.20547835,79.0,97.0
93,77.1554784,77.819366625,77.0,90.0
94,77.8221444,78.8179767375,75.0,90.0
95,78.8221434,79.48603162500001,75.0,91.0
96,79.48880940000001,79.819364625,72.0,66.0
97,79.8221424,82.486028625,77.0,90.0
98,82.4888064,82.819361625,72.0,73.0
99,82.8221394,83.4846387375,75.0,90.0
100,83.4888054,83.8179717375,75.0,76.0
101,83.8221384,84.48602662500001,75.0,76.0
102,84.4888044,85.1513037375,79.0,93.0
103,85.1554704,88.15268962500001,79.0,92.0
104,88.4888004,88.8179667375,84.0,92.0
105,88.8221334,89.15268862500001,84.0,90.0
106,89.15546640000001,89.48463273750001,82.0,89.0
107,89.4887994,89.8179657375,82.0,79.0
108,89.8221324,90.1512987375,82.0,79.0
109,90.1554654,90.48602062500001,82.0,84.0
110,90.48879840000001,90.819353625,79.0,65.0
111,90.8221314,91.152686625,77.0,76.0
112,91.1554644,91.81935262500001,79.0,83.0
113,91.8221304,93.486017625,77.0,77.0
114,93.4887954,93.82212840000001,84.0,100.0
115,93.82212840000001,94.486016625,82.0,93.0
116,94.4887944,94.8443496,79.0,66.0
117,94.8221274,95.319349125,82.0,68.0
118,95.3221269,95.819348625,84.0,84.0
119,95.8221264,98.1512907375,79.0,91.0
120,98.1554574,98.486012625,79.0,96.0
121,98.4887904,99.15267862500001,77.0,90.0
122,99.1554564,100.15128873750001,75.0,90.0
123,100.15545540000001,100.819343625,75.0,101.0
124,100.8221214,101.152676625,72.0,81.0
125,101.15545440000001,103.81934062500001,77.0,100.0
126,103.82211840000001,104.152673625,75.0,91.0
127,104.1554514,104.819339625,77.0,91.0
128,104.82211740000001,105.15267262500001,75.0,97.0
129,105.1554504,105.819338625,77.0,90.0
130,105.8221164,106.486004625,75.0,97.0
131,106.4887824,109.486001625,72.0,87.0
132,131.15542440000002,131.4734796375,72.0,50.0
133,131.4887574,131.80820152500002,72.0,71.0
134,131.8220904,132.15264562500002,74.0,63.0
135,132.15542340000002,132.4734786375,75.0,63.0
136,132.4887564,132.8068116375,75.0,66.0
137,132.8220894,133.141533525,75.0,66.0
138,133.1554224,133.5290331375,72.0,64.0
139,133.4887554,134.141532525,79.0,65.0
140,134.1554214,134.474865525,77.0,67.0
141,134.4887544,135.141531525,75.0,67.0
142,135.1554204,136.47486352500002,77.0,79.0
143,136.4887524,136.80680763750001,70.0,64.0
144,136.82208540000002,137.141529525,70.0,66.0
145,137.1554184,137.47486252500002,72.0,65.0
146,137.4887514,137.80680663750002,74.0,75.0
147,137.8220844,138.1401396375,74.0,62.0
148,138.1554174,138.474861525,74.0,65.0
149,138.48875040000001,138.852638925,70.0,61.0
150,138.8220834,139.474860525,80.0,68.0
151,139.48874940000002,139.808193525,79.0,69.0
152,139.8220824,140.474859525,77.0,64.0
153,140.48874840000002,141.808191525,79.0,77.0
154,141.8220804,142.1401356375,77.0,64.0
155,142.15541340000001,142.474857525,77.0,58.0
156,142.4887464,142.80819052500001,79.0,66.0
157,142.8220794,143.1401346375,80.0,67.0
158,143.15541240000002,143.4734676375,80.0,66.0
159,143.4887454,143.80818952500002,80.0,71.0
160,143.8220784,144.1623558375,77.0,65.0
161,144.15541140000002,144.80818852500002,79.0,66.0
162,144.8220774,145.14013263750002,77.0,66.0
163,145.1554104,145.808187525,77.0,63.0
164,145.82207640000001,147.47485252500002,75.0,65.0
165,147.4887414,147.8067966375,72.0,86.0
166,147.82207440000002,148.1401296375,72.0,71.0
167,148.1554074,148.808184525,72.0,80.0
168,148.8220734,149.141517525,70.0,65.0
169,149.1554064,152.14151452500002,72.0,81.0
170,152.4887364,152.8067916375,72.0,87.0
171,152.8220694,153.141513525,72.0,74.0
172,153.1554024,153.474846525,74.0,82.0
173,153.4887354,153.8067906375,75.0,80.0
174,153.8220684,154.1401236375,75.0,79.0
175,154.15540140000002,154.474845525,75.0,79.0
176,154.4887344,154.841511825,72.0,66.0
177,154.8220674,155.474844525,79.0,72.0
178,155.4887334,155.80817752500002,77.0,68.0
179,155.8220664,156.474843525,75.0,72.0
180,156.4887324,157.808175525,77.0,84.0
181,157.82206440000002,158.14011963750002,70.0,61.0
182,158.1553974,158.47484152500002,70.0,66.0
183,158.4887304,158.808174525,72.0,65.0
184,158.82206340000002,159.1401186375,74.0,75.0
185,159.1553964,159.4734516375,74.0,68.0
186,159.4887294,159.808173525,74.0,67.0
187,159.8220624,160.158173175,70.0,77.0
188,160.1553954,160.808172525,80.0,80.0
189,160.8220614,161.141505525,79.0,86.0
190,161.1553944,161.808171525,77.0,86.0
191,161.8220604,162.808170525,79.0,91.0
192,163.1553924,163.47344763750002,77.0,63.0
193,163.48872540000002,163.808169525,77.0,61.0
194,163.8220584,164.219280225,79.0,66.0
195,164.1553914,164.47344663750002,80.0,64.0
196,164.4887244,164.8067796375,80.0,60.0
197,164.8220574,165.141501525,80.0,73.0
198,165.15539040000002,165.4956678375,77.0,63.0
199,165.4887234,166.141500525,79.0,66.0
200,166.15538940000002,166.4734446375,77.0,73.0
201,166.4887224,167.141499525,77.0,64.0
202,167.15538840000002,168.141498525,75.0,65.0
203,168.82205340000002,169.14010863750002,72.0,74.0
204,169.1553864,169.4734416375,72.0,82.0
205,169.4887194,170.141496525,72.0,84.0
206,170.1553854,170.47482952500002,70.0,76.0
207,170.4887184,172.808160525,72.0,80.0
208,173.8220484,174.1401036375,84.0,90.0
209,174.1553814,174.474825525,84.0,68.0
210,174.48871440000002,174.8067696375,82.0,64.0
211,174.8220474,175.1401026375,82.0,64.0
212,175.1553804,175.47343563750002,82.0,64.0
213,175.4887134,175.808157525,82.0,89.0
214,175.8220464,176.141490525,79.0,66.0
215,176.15537940000002,176.474823525,77.0,61.0
216,176.4887124,177.141489525,79.0,73.0
217,177.15537840000002,178.80815452500002,77.0,57.0
218,178.8220434,179.297042925,84.0,98.0
219,179.3220429,179.808153525,82.0,91.0
220,179.82204240000002,180.1817642625,79.0,77.0
221,180.1553754,180.641486025,77.0,72.0
222,180.6553749,181.141485525,82.0,89.0
223,181.1553744,183.4734276375,79.0,87.0
224,183.48870540000001,183.86092725,79.0,97.0
225,183.8220384,184.474815525,77.0,90.0
226,184.48870440000002,185.47342563750001,75.0,90.0
227,185.48870340000002,186.14148052500002,75.0,91.0
228,186.1553694,186.474813525,72.0,66.0
229,186.48870240000002,189.141477525,77.0,90.0
230,189.15536640000002,189.474810525,72.0,73.0
231,189.4886994,190.14008763750002,75.0,90.0
232,190.15536540000002,190.4734206375,75.0,76.0
233,190.4886984,191.141475525,75.0,76.0
234,191.1553644,191.8067526375,79.0,93.0
235,191.82203040000002,194.808138525,79.0,92.0
236,195.1553604,195.4734156375,84.0,92.0
237,195.48869340000002,195.808137525,84.0,90.0
238,195.8220264,196.1400816375,82.0,89.0
239,196.1553594,196.4734146375,82.0,79.0
240,196.48869240000002,196.8067476375,82.0,79.0
241,196.8220254,197.14146952500002,82.0,84.0
242,197.1553584,197.474802525,79.0,65.0
243,197.48869140000002,197.808135525,77.0,76.0
244,197.8220244,198.474801525,79.0,83.0
245,198.4886904,200.141466525,77.0,77.0
246,200.15535540000002,200.4775773,84.0,100.0
247,200.4886884,201.141465525,82.0,93.0
248,201.15535440000002,201.4997985,79.0,66.0
249,201.4886874,201.974798025,82.0,68.0
250,201.9886869,202.474797525,84.0,84.0
251,202.4886864,204.80673963750002,79.0,91.0
252,204.82201740000002,205.141461525,79.0,96.0
253,205.1553504,205.808127525,77.0,90.0
254,205.8220164,206.80673763750002,75.0,90.0
255,206.8220154,207.474792525,75.0,101.0
256,207.48868140000002,207.808125525,72.0,81.0
257,207.8220144,210.474789525,77.0,100.0
258,210.4886784,210.80812252500002,75.0,91.0
259,210.8220114,211.474788525,77.0,91.0
260,211.4886774,211.80812152500002,75.0,97.0
261,211.8220104,212.474787525,77.0,90.0
262,212.4886764,213.141453525,75.0,97.0
263,213.15534240000002,216.141450525,72.0,87.0
264,216.4886724,216.80672763750002,84.0,92.0
265,216.82200540000002,217.141449525,84.0,90.0
266,217.1553384,217.4733936375,82.0,89.0
267,217.48867140000002,217.80672663750002,82.0,79.0
268,217.8220044,218.1400596375,82.0,79.0
269,218.1553374,218.474781525,82.0,84.0
270,218.48867040000002,218.808114525,79.0,65.0
271,218.8220034,219.14144752500002,77.0,76.0
272,219.1553364,219.808113525,79.0,83.0
273,219.8220024,221.474778525,77.0,77.0
274,221.4886674,221.8108893,84.0,100.0
275,221.8220004,222.474777525,82.0,93.0
276,222.4886664,222.8331105,79.0,66.0
277,222.8219994,223.30811002500002,82.0,68.0
278,223.3219989,223.80810952500002,84.0,84.0
279,223.8219984,226.14005163750002,79.0,91.0
280,226.1553294,226.47477352500002,79.0,96.0
281,226.4886624,227.141439525,77.0,90.0
282,227.1553284,228.1400496375,75.0,90.0
283,228.1553274,228.808104525,75.0,101.0
284,228.8219934,229.14143752500001,72.0,81.0
285,229.1553264,231.808101525,77.0,100.0
286,231.8219904,232.14143452500002,72.0,91.0
287,232.15532340000001,232.80810052500001,75.0,91.0
288,232.8219894,233.141433525,75.0,97.0
289,233.15532240000002,233.80809952500002,75.0,90.0
290,233.8219884,234.474765525,79.0,97.0
291,234.4886544,237.47476252500002,79.0,87.0
292,237.82198440000002,238.14003963750002,84.0,92.0
293,238.1553174,238.47476152500002,84.0,90.0
294,238.4886504,238.80670563750002,82.0,89.0
295,238.82198340000002,239.1400386375,82.0,79.0
296,239.1553164,239.4733716375,82.0,79.0
297,239.4886494,239.808093525,82.0,84.0
298,239.82198240000002,240.141426525,79.0,65.0
299,240.1553154,240.47475952500002,77.0,76.0
300,240.48864840000002,241.14142552500002,79.0,83.0
301,241.1553144,242.808090525,77.0,77.0
302,242.8219794,243.14420130000002,84.0,100.0
303,243.1553124,243.808089525,82.0,93.0
304,243.8219784,244.1664225,79.0,66.0
305,244.15531140000002,244.641422025,82.0,68.0
306,244.65531090000002,245.141421525,84.0,84.0
307,245.15531040000002,247.4733636375,79.0,91.0
308,247.4886414,247.80808552500002,79.0,96.0
309,247.82197440000002,248.47475152500002,77.0,90.0
310,248.4886404,249.4733616375,75.0,90.0
311,249.4886394,250.141416525,75.0,101.0
312,250.1553054,250.47474952500002,72.0,81.0
313,250.4886384,253.14141352500002,77.0,100.0
314,253.1553024,253.474746525,75.0,91.0
315,253.48863540000002,254.14141252500002,77.0,91.0
316,254.1553014,254.474745525,75.0,97.0
317,254.48863440000002,255.14141152500002,77.0,90.0
318,255.15530040000002,255.80807752500002,75.0,97.0
319,255.8219664,258.808074525,72.0,87.0
