,start,end,pitch,velocity
0,2.8222194000000003,3.4569409875000003,48.0,82.0
1,3.1555524,3.5041631625000003,55.0,78.0
2,3.4888854,3.8916627750000004,60.0,76.0
3,3.8222184,4.597217625,67.0,79.0
4,4.1555514,4.67221755,75.0,98.0
5,3.8222184,4.92777285,62.0,79.0
6,4.8222174,5.1444393,74.0,90.0
7,4.4888844,5.2152725625,63.0,80.0
8,5.488883400000001,6.108327225,46.0,86.0
9,5.8222164,6.1180494375,55.0,60.0
10,5.1555504,6.30554925,67.0,83.0
11,6.1555494,6.552771225,58.0,71.0
12,6.4888824000000005,7.208326125,60.0,68.0
13,6.4888824000000005,7.2958260375,67.0,70.0
14,6.8222154,7.419437025000001,75.0,93.0
15,7.155548400000001,7.5430480125,63.0,71.0
16,7.4888814,7.791658875,74.0,83.0
17,7.8222144,7.863881025,58.0,68.0
18,7.4888814,7.879158787500001,60.0,41.0
19,8.1555474,8.769435675,44.0,83.0
20,8.488880400000001,8.8180467375,55.0,79.0
21,7.8222144,8.9069355375,67.0,84.0
22,8.8222134,9.1999908,56.0,75.0
23,9.1555464,9.9208234125,58.0,72.0
24,9.1555464,9.9597122625,67.0,76.0
25,9.4888794,9.974990025,75.0,90.0
26,10.155545400000001,10.4736006375,74.0,84.0
27,9.8222124,10.513878375,60.0,71.0
28,10.8222114,11.169433275000001,43.0,93.0
29,10.4888784,11.469432975,67.0,82.0
30,11.1555444,11.5513773375,55.0,82.0
31,12.1555434,12.68332065,67.0,78.0
32,12.4888764,12.8180427375,72.0,79.0
33,11.822210400000001,13.087486912500001,62.0,84.0
34,11.4888774,13.140264637500001,60.0,83.0
35,12.8222094,13.1513757375,74.0,79.0
36,13.1555424,13.4847087375,75.0,79.0
37,13.488875400000001,14.104152562500001,48.0,86.0
38,13.822208400000001,14.158319175,55.0,82.0
39,14.1555414,14.602763175,60.0,79.0
40,14.4888744,15.169429275,62.0,74.0
41,14.8222074,15.2513736375,75.0,90.0
42,14.4888744,15.2958180375,67.0,76.0
43,15.155540400000001,15.513873375000001,63.0,68.0
44,15.488873400000001,15.793039762500001,62.0,76.0
45,15.488873400000001,15.805539750000001,74.0,84.0
46,15.8222064,15.986095125,60.0,75.0
47,15.8222064,16.697205525,67.0,74.0
48,16.4888724,16.9180386375,55.0,75.0
49,16.155539400000002,16.9291497375,46.0,79.0
50,16.8222054,17.158316175,58.0,51.0
51,16.8222054,17.333316,67.0,67.0
52,17.1555384,17.541649125,55.0,78.0
53,17.4888714,17.82775995,60.0,56.0
54,17.4888714,17.8680376875,75.0,84.0
55,17.4888714,17.8763710125,67.0,80.0
56,17.8222044,18.158315175000002,55.0,78.0
57,18.1555374,18.2513706375,67.0,57.0
58,18.1555374,18.408314925,62.0,69.0
59,18.1555374,18.4763704125,74.0,80.0
60,18.4888704,18.5930369625,55.0,82.0
61,18.8222034,19.3152584625,44.0,83.0
62,19.155536400000003,19.5569248875,55.0,79.0
63,18.4888704,19.663869225,67.0,79.0
64,19.488869400000002,19.8291468375,56.0,75.0
65,19.822202400000002,20.1555354,55.0,79.0
66,20.1555354,20.4888684,60.0,58.0
67,19.822202400000002,20.5902571875,67.0,74.0
68,20.1555354,20.6763682125,75.0,86.0
69,20.4888684,20.831923612500002,55.0,76.0
70,20.8222014,21.090256687500002,62.0,68.0
71,20.8222014,21.115256662500002,74.0,76.0
72,21.1555344,21.2374787625,55.0,52.0
73,21.1555344,21.579145087500002,67.0,78.0
74,22.1555334,22.452755325000002,59.0,63.0
75,21.8222004,22.684699537500002,55.0,80.0
76,22.488866400000003,22.8708104625,60.0,80.0
77,22.822199400000002,22.922199300000003,62.0,84.0
78,22.822199400000002,23.213865675,55.0,30.0
79,23.155532400000002,23.5777542,67.0,80.0
80,21.4888674,23.7152540625,43.0,83.0
81,23.4888654,23.745809587500002,71.0,63.0
82,23.8221984,24.1291425375,74.0,82.0
83,24.1555314,24.8541418125,72.0,80.0
84,24.1555314,24.874975125000002,63.0,70.0
85,25.1555304,25.541641125,62.0,78.0
86,25.4888634,26.1221961,63.0,84.0
87,24.8221974,26.18330715,60.0,78.0
88,24.1555314,26.451362437500002,48.0,78.0
89,24.4888644,26.488862400000002,55.0,77.0
90,26.155529400000002,26.569417875000003,67.0,82.0
91,26.488862400000002,26.8180287375,60.0,57.0
92,26.822195400000002,27.5152502625,68.0,80.0
93,27.4888614,28.240249537500002,65.0,73.0
94,27.8221944,28.634693587500003,68.0,68.0
95,28.1555274,28.741637925000003,75.0,84.0
96,27.1555284,28.804137862500003,60.0,63.0
97,28.4888604,28.843026712500002,65.0,47.0
98,26.822195400000002,29.156915287500002,53.0,82.0
99,28.8221934,29.463859425000003,72.0,81.0
100,29.488859400000003,30.084692137500003,46.0,78.0
101,29.822192400000002,30.113858775,53.0,61.0
102,30.155525400000002,30.556913887500002,58.0,51.0
103,29.488859400000003,30.8680246875,74.0,83.0
104,29.488859400000003,30.915246862500002,65.0,72.0
105,31.1555244,31.390246387500003,65.0,69.0
106,30.8221914,31.5777462,62.0,82.0
107,30.4888584,31.647190575,60.0,56.0
108,31.4888574,31.824968175000002,70.0,82.0
109,31.8221904,32.4041342625,75.0,86.0
110,32.1555234,32.8819115625,70.0,78.0
111,32.8221894,33.34996665,63.0,71.0
112,33.1555224,33.7569106875,65.0,77.0
113,33.8221884,34.222188,67.0,83.0
114,32.1555234,34.306910137500005,51.0,79.0
115,34.155521400000005,34.570798762500004,63.0,72.0
116,32.4888564,34.61663205,58.0,72.0
117,34.4888544,34.7874652125,70.0,78.0
118,34.822187400000004,35.448575662500005,72.0,78.0
119,34.822187400000004,35.5957977375,68.0,73.0
120,35.8221864,36.1680193875,67.0,72.0
121,36.1555194,36.2569081875,68.0,80.0
122,35.1555204,36.6013522875,60.0,68.0
123,35.4888534,36.741629925000005,65.0,78.0
124,36.4888524,36.741629925000005,72.0,72.0
125,36.8221854,36.908296425,60.0,55.0
126,34.822187400000004,36.9513519375,53.0,76.0
127,36.8221854,37.091629575,75.0,79.0
128,37.1555184,37.4819069625,77.0,79.0
129,37.4888514,37.811073300000004,79.0,79.0
130,38.488850400000004,38.797183425,62.0,68.0
131,38.8221834,38.915238862500004,63.0,77.0
132,39.1555164,39.3874606125,67.0,71.0
133,38.1555174,39.568015987500004,60.0,68.0
134,37.822184400000005,39.6652381125,55.0,80.0
135,37.4888514,39.67218255,48.0,82.0
136,39.4888494,39.793015762500005,74.0,72.0
137,39.8221824,40.130515425,75.0,79.0
138,40.1555154,40.470792862500005,44.0,77.0
139,40.4888484,40.8957924375,56.0,73.0
140,40.822181400000005,40.952736825,60.0,73.0
141,40.1555154,40.9652368125,68.0,79.0
142,40.1555154,41.0457922875,72.0,72.0
143,41.1555144,41.4555141,65.0,69.0
144,41.488847400000004,42.127735650000005,46.0,78.0
145,41.8221804,42.152735625000005,53.0,79.0
146,41.488847400000004,42.2069022375,65.0,34.0
147,41.488847400000004,42.247179975,70.0,78.0
148,42.155513400000004,42.569401875000004,58.0,62.0
149,42.4888464,42.6707906625,60.0,76.0
150,42.8221794,43.24995675,67.0,75.0
151,42.8221794,43.363845525,75.0,83.0
152,42.8221794,43.419401025,48.0,80.0
153,43.1555124,43.486067625000004,55.0,78.0
154,43.4888454,43.6291230375,67.0,76.0
155,43.4888454,43.752734025,74.0,84.0
156,43.4888454,43.8791227875,60.0,62.0
157,43.8221784,44.138844750000004,72.0,80.0
158,44.488844400000005,44.777733000000005,65.0,80.0
159,44.1555114,44.813844075,63.0,71.0
160,43.8221784,44.830510725,62.0,75.0
161,44.8221774,44.98328835,74.0,78.0
162,44.9888439,45.2110659,75.0,74.0
163,45.155510400000004,45.28328805,77.0,76.0
164,45.3221769,45.5777322,82.0,61.0
165,45.4888434,45.9874540125,48.0,76.0
166,45.4888434,46.06106505,79.0,76.0
167,45.822176400000004,46.123564987500004,55.0,76.0
168,46.1555094,46.573564537500005,60.0,57.0
169,47.1555084,47.4430081125,67.0,76.0
170,46.8221754,47.58328575,63.0,80.0
171,46.4888424,47.6110635,62.0,76.0
172,47.488841400000005,47.7985633125,70.0,78.0
173,47.8221744,48.186062925,75.0,77.0
174,48.155507400000005,48.9263399625,68.0,79.0
175,48.4888404,49.4652283125,60.0,67.0
176,49.1555064,49.52772825,67.0,75.0
177,48.822173400000004,49.662450337500005,65.0,75.0
178,49.4888394,49.91661675,68.0,79.0
179,48.155507400000005,50.152727625000004,53.0,75.0
180,49.8221724,50.29439415,60.0,58.0
181,50.1555054,50.4680050875,68.0,74.0
182,50.1555054,50.529116137500004,53.0,25.0
183,50.4888384,50.577727200000005,60.0,69.0
184,50.1555054,50.6096716125,75.0,57.0
185,50.8221714,51.2846709375,67.0,63.0
186,50.8221714,51.3152264625,46.0,50.0
187,50.8221714,51.324948675,70.0,71.0
188,51.155504400000005,51.3985597125,53.0,75.0
189,50.8221714,51.541615125,74.0,80.0
190,51.4888374,51.9374480625,58.0,43.0
191,51.4888374,51.9930035625,65.0,73.0
192,51.4888374,52.223558887500005,72.0,79.0
193,52.1555034,52.5318919125,70.0,78.0
194,52.1555034,52.574947425000005,65.0,79.0
195,51.822170400000005,52.6318918125,60.0,48.0
196,52.488836400000004,53.047169175,62.0,80.0
197,52.8221694,53.2846689375,65.0,75.0
198,53.1555024,53.547168675,70.0,60.0
199,53.4888354,54.3013345875,67.0,80.0
200,53.8221684,54.736056375000004,58.0,73.0
201,54.4888344,54.898556212500004,65.0,76.0
202,54.155501400000006,54.9402228375,63.0,68.0
203,54.822167400000005,55.119389325,67.0,80.0
204,55.1555004,55.540222237500004,70.0,75.0
205,55.488833400000004,55.612444387500005,58.0,76.0
206,53.4888354,55.636055475,51.0,76.0
207,55.488833400000004,55.790221987500004,63.0,76.0
208,55.8221664,56.2110549,67.0,78.0
209,56.155499400000004,56.647165575,41.0,82.0
210,56.4888324,56.756887687500004,48.0,63.0
211,56.8221654,57.2124427875,53.0,69.0
212,56.155499400000004,57.31660935,63.0,58.0
213,56.155499400000004,57.4291092375,60.0,52.0
214,56.155499400000004,57.470775862500005,68.0,86.0
215,57.822164400000005,58.261052850000006,60.0,71.0
216,57.4888314,58.330497225,56.0,80.0
217,57.1554984,58.377719400000004,55.0,80.0
218,58.1554974,58.7429968125,68.0,84.0
219,58.488830400000005,58.854107812500004,60.0,56.0
220,58.8221634,59.342996212500005,63.0,80.0
221,58.8221634,59.408273925,67.0,76.0
222,59.4888294,59.6735514375,62.0,71.0
223,59.4888294,59.781884662500005,65.0,78.0
224,59.8221624,60.2791063875,63.0,83.0
225,59.8221624,60.291606375,67.0,78.0
226,59.155496400000004,60.649939350000004,55.0,69.0
227,60.4888284,60.699939300000004,62.0,78.0
228,60.4888284,60.7443837,65.0,80.0
229,60.1554954,60.8652169125,60.0,59.0
230,58.8221634,60.888828000000004,48.0,77.0
231,60.822161400000006,61.11660555,67.0,80.0
232,60.822161400000006,61.1332722,63.0,82.0
233,61.1554944,61.3179942375,70.0,77.0
234,61.488827400000005,62.142993412500005,67.0,79.0
235,61.488827400000005,62.22771555,63.0,80.0
236,61.488827400000005,62.247159975,60.0,68.0
237,61.488827400000005,62.3513265375,44.0,78.0
238,61.8221604,62.392993162500005,51.0,79.0
239,62.155493400000005,62.395770937500004,56.0,72.0
240,62.4888264,62.594381850000005,70.0,52.0
241,62.4888264,62.6346595875,60.0,58.0
242,62.822159400000004,63.449936550000004,62.0,75.0
243,62.822159400000004,63.5291031375,70.0,78.0
244,62.822159400000004,63.5568808875,65.0,82.0
245,62.822159400000004,63.608269725,46.0,80.0
246,63.1554924,63.608269725,53.0,78.0
247,63.4888254,63.902713875,58.0,59.0
248,63.8221584,64.0402137375,62.0,68.0
249,64.1554914,64.4152133625,63.0,82.0
250,64.1554914,64.49854661250001,67.0,79.0
251,64.1554914,64.763824125,48.0,81.0
252,64.4888244,64.763824125,55.0,73.0
253,64.82215740000001,64.97493502500001,67.0,38.0
254,64.82215740000001,64.9957683375,75.0,58.0
255,64.82215740000001,65.2096570125,60.0,40.0
256,65.1554904,65.4096568125,65.0,56.0
257,65.1554904,65.55132333750001,74.0,82.0
258,65.1554904,65.7888231,62.0,71.0
259,65.4888234,66.0707672625,63.0,62.0
260,65.8221564,66.213822675,72.0,75.0
261,65.8221564,66.2263226625,67.0,68.0
262,66.15548940000001,66.29437815,62.0,80.0
263,66.4888224,66.7374332625,70.0,73.0
264,66.8221554,67.174932825,63.0,83.0
265,66.8221554,67.174932825,68.0,81.0
266,66.8221554,67.2152105625,60.0,70.0
267,67.4888214,67.81104330000001,68.0,80.0
268,67.4888214,67.8777099,63.0,84.0
269,67.4888214,67.9152098625,60.0,71.0
270,67.1554884,68.2596539625,56.0,50.0
271,68.1554874,68.4707648625,68.0,75.0
272,68.1554874,68.51520926250001,63.0,78.0
273,68.1554874,68.54159812500001,60.0,63.0
274,68.48882040000001,68.9013199875,56.0,50.0
275,68.8221534,69.0624309375,68.0,78.0
276,66.8221554,69.130486425,44.0,79.0
277,68.8221534,69.16104195,60.0,71.0
278,68.8221534,69.280486275,63.0,83.0
279,69.1554864,69.513819375,56.0,71.0
280,69.4888194,69.8568745875,65.0,82.0
281,69.4888194,69.8790967875,62.0,76.0
282,69.4888194,69.9235411875,70.0,81.0
283,70.1554854,70.4790961875,70.0,75.0
284,70.1554854,70.4874295125,62.0,73.0
285,70.1554854,70.49992950000001,65.0,80.0
286,70.4888184,70.8818735625,58.0,60.0
287,70.82215140000001,71.0902066875,70.0,79.0
288,70.82215140000001,71.130484425,65.0,84.0
289,70.82215140000001,71.17631771250001,62.0,80.0
290,71.1554844,71.5221507,58.0,62.0
291,71.4888174,71.5985395125,70.0,52.0
292,71.4888174,71.70548385000001,62.0,78.0
293,71.65548390000001,71.7818726625,58.0,63.0
294,69.82215240000001,71.7888171,53.0,62.0
295,69.4888194,71.819372625,46.0,78.0
296,71.8221504,71.9763169125,65.0,83.0
297,72.15548340000001,72.513816375,65.0,84.0
298,71.9888169,72.52909413750001,70.0,79.0
299,72.15548340000001,72.5374274625,62.0,78.0
300,72.4888164,72.9443715,55.0,71.0
301,72.8221494,73.1735379375,70.0,79.0
302,72.8221494,73.18464903750001,62.0,76.0
303,72.8221494,73.18464903750001,65.0,81.0
304,73.1554824,73.86381502500001,55.0,60.0
305,73.48881540000001,73.9443705,62.0,73.0
306,73.8221484,74.158259175,65.0,84.0
307,74.1554814,74.2568701875,62.0,83.0
308,74.1554814,74.29020348750001,70.0,84.0
309,72.15548340000001,74.4596477625,43.0,84.0
310,74.48881440000001,74.7110364,72.0,61.0
311,74.48881440000001,74.76520301250001,55.0,75.0
312,74.8221474,74.9554806,75.0,77.0
313,74.8221474,75.2485358625,67.0,76.0
314,74.8221474,75.3888135,48.0,79.0
315,75.1554804,75.4332579,55.0,60.0
316,75.4888134,75.863813025,67.0,68.0
317,75.4888134,76.0374239625,60.0,58.0
318,75.4888134,76.0929794625,75.0,83.0
319,76.1554794,76.3429792125,67.0,77.0
320,76.1554794,76.4457568875,74.0,90.0
321,76.4888124,76.6957566375,67.0,76.0
322,76.4888124,76.863812025,75.0,83.0
323,75.82214640000001,76.89992310000001,62.0,72.0
324,76.8221454,76.9346452875,63.0,84.0
325,76.8221454,77.0457562875,70.0,78.0
326,77.1554784,77.3152004625,67.0,71.0
327,77.4888114,77.9013109875,72.0,77.0
328,77.4888114,77.98047757500001,63.0,78.0
329,77.4888114,77.98186646250001,68.0,79.0
330,77.4888114,78.086033025,44.0,82.0
331,77.8221444,78.147144075,51.0,80.0
332,78.15547740000001,78.552699225,56.0,57.0
333,78.15547740000001,78.76103235000001,72.0,78.0
334,78.15547740000001,78.8013100875,68.0,80.0
335,78.15547740000001,78.8985322125,63.0,81.0
336,78.4888104,79.3929761625,58.0,69.0
337,79.1554764,79.447142775,63.0,78.0
338,79.48880940000001,79.7540869125,68.0,79.0
339,78.8221434,79.86242013750001,60.0,74.0
340,79.8221424,80.0790865875,72.0,79.0
341,80.1554754,80.31519746250001,65.0,78.0
342,80.1554754,80.613808275,46.0,80.0
343,80.48880840000001,80.7985303125,53.0,80.0
344,80.1554754,80.7999192,74.0,84.0
345,80.48880840000001,80.91658575000001,65.0,5.0
346,80.1554754,80.9763079125,70.0,79.0
347,80.8221414,81.23880765,58.0,72.0
348,81.82214040000001,81.980473575,74.0,58.0
349,81.82214040000001,82.0040846625,82.0,71.0
350,82.1554734,82.2624177375,63.0,59.0
351,81.4888074,82.3679731875,62.0,76.0
352,81.1554744,82.408250925,60.0,73.0
353,82.1554734,82.4332509,74.0,81.0
354,82.1554734,82.47491752500001,82.0,79.0
355,82.4888064,82.6846395375,77.0,82.0
356,82.8221394,83.1179724375,44.0,80.0
357,83.15547240000001,83.536027575,56.0,61.0
358,82.8221394,83.569360875,63.0,75.0
359,82.8221394,83.58047197500001,68.0,83.0
360,82.8221394,83.60547195000001,72.0,80.0
361,83.8221384,84.33602677500001,60.0,73.0
362,84.15547140000001,84.4235266875,63.0,80.0
363,84.4888044,84.8040818625,72.0,75.0
364,84.8221374,84.9707483625,60.0,80.0
365,83.4888054,85.03741496250001,58.0,76.0
366,85.1554704,85.4346367875,75.0,84.0
367,85.48880340000001,85.76796978750001,43.0,83.0
368,85.8221364,86.2263026625,55.0,75.0
369,85.48880340000001,86.51519126250001,74.0,84.0
370,86.4888024,86.57213565,62.0,84.0
371,86.1554694,86.574913425,60.0,79.0
372,86.82213540000001,87.01657965,67.0,71.0
373,86.82213540000001,87.1776906,71.0,71.0
374,87.1554684,87.30546825,67.0,77.0
375,87.1554684,87.4554681,72.0,81.0
376,87.1554684,87.558245775,55.0,78.0
377,87.4888014,87.6929678625,67.0,75.0
378,87.4888014,87.7929677625,74.0,86.0
379,87.4888014,87.82213440000001,47.0,79.0
380,86.82213540000001,87.8318566125,43.0,84.0
381,87.82213440000001,87.94713427500001,77.0,81.0
382,87.82213440000001,88.0068564375,55.0,84.0
383,88.1554674,88.58324475,68.0,75.0
384,88.1554674,88.5874114125,75.0,83.0
385,88.4888004,88.9179666375,56.0,69.0
386,88.8221334,89.163799725,68.0,82.0
387,88.8221334,89.19435525,63.0,77.0
388,88.8221334,89.20407746250001,72.0,78.0
389,88.8221334,89.2624107375,75.0,67.0
390,89.15546640000001,89.59435485,56.0,57.0
391,89.4887994,89.83879905,68.0,82.0
392,89.4887994,89.8665768,63.0,75.0
393,89.4887994,89.902687875,72.0,75.0
394,89.4887994,89.9124100875,75.0,67.0
395,89.8221324,90.25824307500001,56.0,58.0
396,90.1554654,90.25824307500001,75.0,59.0
397,88.1554674,90.430465125,44.0,57.0
398,90.1554654,90.4512984375,63.0,75.0
399,90.1554654,90.65963156250001,68.0,82.0
400,90.1554654,90.6707426625,72.0,82.0
401,90.48879840000001,90.830464725,56.0,79.0
402,90.8221314,91.19018658750001,74.0,82.0
403,90.8221314,91.2040754625,65.0,78.0
404,90.8221314,91.26101985000001,70.0,78.0
405,91.1554644,91.5290751375,58.0,54.0
406,91.48879740000001,91.6957416375,74.0,80.0
407,91.48879740000001,91.7846304375,70.0,74.0
408,91.48879740000001,91.8110193,65.0,79.0
409,90.8221314,91.96935247500001,46.0,81.0
410,91.8221304,92.111019,58.0,67.0
411,92.1554634,92.2776855,65.0,78.0
412,92.1554634,92.31796323750001,77.0,69.0
413,92.1554634,92.458240875,46.0,75.0
414,92.4887964,92.5901851875,67.0,69.0
415,92.4887964,92.61796293750001,79.0,82.0
416,92.4887964,92.87074046250001,58.0,69.0
417,92.82212940000001,92.91796263750001,70.0,71.0
418,92.82212940000001,92.9540737125,82.0,83.0
419,92.82212940000001,93.19435125000001,60.0,68.0
420,93.1554624,93.22212900000001,62.0,82.0
421,93.1554624,93.2568511875,72.0,69.0
422,93.1554624,93.2846289375,84.0,82.0
423,93.4887954,93.7596284625,43.0,83.0
424,93.4887954,94.15546140000001,86.0,84.0
425,93.82212840000001,94.1929613625,55.0,75.0
426,93.4887954,94.308239025,74.0,80.0
427,94.65546090000001,94.78323855000001,65.0,73.0
428,94.4887944,94.7985163125,62.0,80.0
429,94.8221274,95.03323830000001,70.0,69.0
430,94.9887939,95.1401826375,72.0,73.0
431,95.15546040000001,95.274904725,74.0,75.0
432,95.3221269,95.5012933875,75.0,80.0
433,95.4887934,95.5999044,62.0,79.0
434,94.15546140000001,95.6929598625,58.0,76.0
435,95.4887934,95.70684873750001,74.0,78.0
436,95.65545990000001,95.769348675,70.0,28.0
437,95.8221264,95.9776818,67.0,63.0
438,95.9887929,96.1485149625,72.0,71.0
439,96.1554594,96.4929590625,75.0,83.0
440,96.1554594,96.64018113750001,67.0,78.0
441,96.1554594,96.6985144125,48.0,80.0
442,96.48879240000001,96.78879210000001,55.0,79.0
443,96.48879240000001,96.81518096250001,74.0,83.0
444,96.8221254,97.0443474,67.0,72.0
445,96.8221254,97.06379182500001,75.0,80.0
446,96.8221254,97.23879165000001,60.0,57.0
447,97.1554584,97.31240268750001,67.0,62.0
448,97.1554584,97.552680225,74.0,84.0
449,97.48879140000001,97.83879105,72.0,79.0
450,97.48879140000001,97.89573543750001,67.0,76.0
451,97.8221244,98.1818462625,63.0,84.0
452,97.1554584,98.2374017625,62.0,72.0
453,98.1554574,98.37073496250001,67.0,82.0
454,98.1554574,98.4012904875,70.0,83.0
455,98.82212340000001,99.208234125,68.0,82.0
456,98.82212340000001,99.213789675,63.0,80.0
457,98.82212340000001,99.213789675,72.0,79.0
458,99.1554564,99.6110115,56.0,63.0
459,99.4887894,99.87628901250001,68.0,79.0
460,99.4887894,99.88323345,63.0,76.0
461,99.4887894,99.888789,72.0,78.0
462,99.8221224,100.33878855,56.0,59.0
463,100.15545540000001,100.5443439,72.0,73.0
464,100.15545540000001,100.55545500000001,68.0,76.0
465,100.15545540000001,100.62767715000001,63.0,75.0
466,100.4887884,100.95406571250001,56.0,58.0
467,98.82212340000001,100.98184346250001,44.0,84.0
468,100.8221214,101.01656565,63.0,80.0
469,100.8221214,101.17906548750001,72.0,78.0
470,100.8221214,101.3262875625,68.0,83.0
471,101.15545440000001,101.502676275,56.0,72.0
472,101.4887874,101.9512869375,74.0,86.0
473,101.4887874,102.13600897500001,46.0,83.0
474,101.8221204,102.1540645125,53.0,77.0
475,101.4887874,102.28739771250001,65.0,80.0
476,102.1554534,102.5457307875,58.0,72.0
477,101.4887874,102.82767495,70.0,79.0
478,103.1554524,103.574896425,65.0,79.0
479,102.8221194,103.708229625,62.0,80.0
480,102.48878640000001,103.74711847500001,60.0,72.0
481,103.4887854,103.79295176250001,70.0,80.0
482,103.82211840000001,104.002673775,72.0,90.0
483,104.1554514,104.46100665,43.0,83.0
484,104.4887844,104.84850626250001,55.0,73.0
485,104.1554514,105.0151727625,74.0,84.0
486,104.1554514,105.04711717500001,65.0,77.0
487,104.1554514,105.1318393125,70.0,79.0
488,105.1554504,105.72906093750001,62.0,80.0
489,105.4887834,105.75267202500001,65.0,75.0
490,105.8221164,106.08183836250001,70.0,83.0
491,106.15544940000001,106.27767150000001,62.0,80.0
492,104.82211740000001,106.30683813750001,58.0,78.0
493,106.15544940000001,106.4373935625,74.0,83.0
494,106.4887824,106.63322670000001,77.0,79.0
495,106.8221154,107.3012815875,67.0,79.0
496,106.8221154,107.4512814375,75.0,82.0
497,106.8221154,107.452670325,48.0,78.0
498,107.15544840000001,107.50822582500001,55.0,62.0
499,107.48878140000001,107.619336825,75.0,39.0
500,107.48878140000001,107.652670125,67.0,75.0
501,107.48878140000001,107.7679477875,74.0,84.0
502,107.48878140000001,107.88322545000001,60.0,58.0
503,107.8221144,108.13878075000001,67.0,79.0
504,107.8221144,108.224891775,72.0,79.0
505,108.48878040000001,108.91655775000001,65.0,76.0
506,108.8221134,108.9373910625,72.0,63.0
507,108.1554474,108.94294661250001,63.0,78.0
508,108.8221134,108.98322435,84.0,78.0
509,107.8221144,109.01377987500001,62.0,79.0
510,109.1554464,109.26933517500001,86.0,48.0
511,109.1554464,109.27072406250001,74.0,69.0
512,109.4887794,109.8262790625,75.0,84.0
513,109.4887794,109.99294556250001,48.0,76.0
514,109.4887794,109.99572333750001,67.0,73.0
515,109.82211240000001,110.16100095,55.0,69.0
516,109.82211240000001,110.18322315,74.0,77.0
517,110.1554454,110.458222875,75.0,81.0
518,110.1554454,110.4901672875,67.0,52.0
519,110.1554454,110.5151672625,60.0,51.0
520,110.4887784,110.82350028750001,74.0,70.0
521,110.82211140000001,111.12349998750001,75.0,80.0
522,110.82211140000001,111.135999975,67.0,58.0
523,111.15544440000001,111.50683293750001,63.0,76.0
524,110.4887784,111.535999575,62.0,73.0
525,111.4887774,111.7873882125,67.0,69.0
526,111.4887774,111.80544375000001,74.0,79.0
527,111.8221104,112.00683243750001,75.0,80.0
528,112.15544340000001,112.57905408750001,70.0,69.0
529,112.15544340000001,112.613776275,65.0,69.0
530,112.15544340000001,112.63322070000001,74.0,82.0
531,112.4887764,113.1776646,55.0,55.0
532,113.1554424,113.8443306,62.0,71.0
533,112.8221094,113.8540528125,58.0,69.0
534,113.48877540000001,113.8818305625,65.0,84.0
535,113.8221084,114.4207189125,53.0,76.0
536,114.1554414,114.502663275,62.0,78.0
537,114.48877440000001,114.580440975,58.0,52.0
538,114.1554414,114.597107625,70.0,84.0
539,112.15544340000001,114.5998854,46.0,38.0
540,114.48877440000001,114.62071871250001,53.0,68.0
541,114.82210740000001,115.39849571250001,44.0,82.0
542,114.82210740000001,115.463773425,68.0,82.0
543,115.1554404,115.48321785,51.0,80.0
544,114.82210740000001,115.5290511375,60.0,71.0
545,114.82210740000001,115.5401622375,63.0,82.0
546,115.4887734,115.89571743750001,56.0,72.0
547,116.4887724,116.72904993750001,63.0,79.0
548,115.82210640000001,116.91654975,58.0,73.0
549,116.1554394,116.919327525,60.0,79.0
550,116.8221054,117.1901605875,68.0,80.0
551,117.15543840000001,117.50127138750001,72.0,71.0
552,117.4887714,117.82904883750001,43.0,80.0
553,117.8221044,118.23599287500001,55.0,68.0
554,117.4887714,118.43460378750001,65.0,78.0
555,117.4887714,118.58460363750001,70.0,77.0
556,118.4887704,119.1068253375,62.0,82.0
557,118.8221034,119.2012696875,67.0,79.0
558,119.1554364,119.352658425,70.0,78.0
559,119.3221029,119.54988045,72.0,73.0
560,119.48876940000001,119.61099150000001,62.0,77.0
561,118.15543740000001,119.6512692375,58.0,76.0
562,119.48876940000001,119.6554359,74.0,82.0
563,119.6554359,119.8790467875,75.0,82.0
564,119.8221024,119.9568244875,74.0,76.0
565,119.98876890000001,120.1818242625,70.0,68.0
566,120.1554354,120.56654610000001,72.0,77.0
567,120.1554354,120.56932387500001,67.0,75.0
568,121.1554344,121.4776563,62.0,83.0
569,121.4887674,121.5776562,63.0,83.0
570,120.82210140000001,121.7929337625,60.0,68.0
571,121.82210040000001,122.05404461250001,67.0,78.0
572,120.48876840000001,122.3457109875,55.0,78.0
573,122.1554334,122.4095998125,67.0,68.0
574,120.1554354,122.5429330125,48.0,79.0
575,122.1554334,122.67348843750001,75.0,90.0
576,122.4887664,122.7873772125,55.0,82.0
577,122.8220994,123.3109878,46.0,76.0
578,123.15543240000001,123.45820987500001,53.0,73.0
579,122.8220994,123.80959841250001,65.0,75.0
580,123.4887654,123.8762650125,58.0,57.0
581,122.8220994,123.913764975,70.0,76.0
582,122.8220994,123.9957093375,74.0,83.0
583,123.8220984,124.36098675000001,60.0,71.0
584,124.48876440000001,124.597097625,70.0,71.0
585,124.48876440000001,124.6484864625,82.0,78.0
586,124.15543140000001,124.8207085125,62.0,72.0
587,124.8220974,124.93598617500001,60.0,63.0
588,124.8220974,124.9457083875,72.0,63.0
589,124.8220974,124.9929305625,84.0,77.0
590,125.1554304,125.28876360000001,74.0,59.0
591,125.1554304,125.33459688750001,86.0,80.0
592,125.48876340000001,125.71098540000001,87.0,84.0
593,125.48876340000001,125.7845964375,75.0,76.0
594,126.1554294,126.58320675,56.0,75.0
595,126.4887624,126.67209555000001,68.0,83.0
596,126.9887619,127.22626166250001,56.0,53.0
597,125.48876340000001,127.2318172125,44.0,83.0
598,125.8220964,127.4179281375,51.0,78.0
599,127.1554284,127.4595947625,68.0,79.0
600,127.1554284,127.5109836,60.0,49.0
601,127.1554284,127.5665391,63.0,61.0
602,127.4887614,127.6845945375,44.0,55.0
603,127.4887614,127.71653895,56.0,76.0
604,128.1554274,128.5957047375,67.0,82.0
605,128.1554274,128.6290380375,62.0,79.0
606,128.8220934,129.11653755,58.0,69.0
607,129.1554264,129.3429262125,65.0,78.0
608,129.4887594,129.6929258625,67.0,76.0
609,128.48876040000002,129.863759025,55.0,69.0
610,128.1554274,129.92625896250001,43.0,84.0
611,129.8220924,130.0623699375,70.0,72.0
612,130.1554254,130.333203,74.0,81.0
613,130.8220914,131.5207018125,72.0,80.0
614,130.8220914,131.541535125,63.0,70.0
615,131.8220904,132.20820112500002,62.0,78.0
616,132.15542340000002,132.7887561,63.0,84.0
617,131.4887574,132.84986715,60.0,78.0
618,130.8220914,133.1179224375,48.0,78.0
619,131.15542440000002,133.1554224,55.0,77.0
620,132.8220894,133.235977875,67.0,82.0
621,133.1554224,133.48458873750002,60.0,57.0
622,133.4887554,134.1818102625,68.0,80.0
623,134.1554214,134.9068095375,65.0,73.0
624,134.4887544,135.3012535875,68.0,68.0
625,134.82208740000002,135.408197925,75.0,84.0
626,133.8220884,135.4706978625,60.0,63.0
627,135.1554204,135.5095867125,65.0,47.0
628,133.4887554,135.8234752875,53.0,82.0
629,135.4887534,136.130419425,72.0,81.0
630,136.1554194,136.75125213750002,46.0,78.0
631,136.4887524,136.78041877500002,53.0,61.0
632,136.82208540000002,137.2234738875,58.0,51.0
633,136.1554194,137.5345846875,74.0,83.0
634,136.1554194,137.5818068625,65.0,72.0
635,137.8220844,138.05680638750002,65.0,69.0
636,137.4887514,138.2443062,62.0,82.0
637,137.1554184,138.313750575,60.0,56.0
638,138.1554174,138.491528175,70.0,82.0
639,138.48875040000001,139.0706942625,75.0,86.0
640,138.8220834,139.5484715625,70.0,78.0
641,139.48874940000002,140.01652665,63.0,71.0
642,139.8220824,140.42347068750001,65.0,77.0
643,140.48874840000002,140.888748,67.0,83.0
644,138.8220834,140.97347013750002,51.0,79.0
645,140.8220814,141.2373587625,63.0,72.0
646,139.1554164,141.28319205,58.0,72.0
647,141.1554144,141.4540252125,70.0,78.0
648,141.4887474,142.1151356625,72.0,78.0
649,141.4887474,142.2623577375,68.0,73.0
650,142.4887464,142.8345793875,67.0,72.0
651,142.8220794,142.9234681875,68.0,80.0
652,141.8220804,143.2679122875,60.0,68.0
653,142.15541340000001,143.40818992500002,65.0,78.0
654,143.15541240000002,143.40818992500002,72.0,72.0
655,143.4887454,143.574856425,60.0,55.0
656,141.4887474,143.6179119375,53.0,76.0
657,143.4887454,143.75818957500002,75.0,79.0
658,143.8220784,144.1484669625,77.0,79.0
659,144.15541140000002,144.4776333,79.0,79.0
660,145.1554104,145.46374342500002,62.0,68.0
661,145.4887434,145.5817988625,63.0,77.0
662,145.82207640000001,146.0540206125,67.0,71.0
663,144.8220774,146.2345759875,60.0,68.0
664,144.4887444,146.3317981125,55.0,80.0
665,144.15541140000002,146.33874255,48.0,82.0
666,146.1554094,146.4595757625,74.0,72.0
667,146.4887424,146.797075425,75.0,79.0
668,146.82207540000002,147.1373528625,44.0,77.0
669,147.1554084,147.5623524375,56.0,73.0
670,147.4887414,147.61929682500002,60.0,73.0
671,146.82207540000002,147.6317968125,68.0,79.0
672,146.82207540000002,147.7123522875,72.0,72.0
673,147.82207440000002,148.12207410000002,65.0,69.0
674,148.1554074,148.79429565,46.0,78.0
675,148.4887404,148.819295625,53.0,79.0
676,148.1554074,148.8734622375,65.0,34.0
677,148.1554074,148.9109622,74.0,82.0
678,148.1554074,148.913739975,70.0,78.0
679,148.8220734,149.23596187500002,58.0,62.0
680,149.1554064,149.3373506625,60.0,76.0
681,149.48873940000001,149.91651675,67.0,75.0
682,149.48873940000001,150.03040552500002,75.0,83.0
683,149.48873940000001,150.08596102500002,48.0,80.0
684,149.8220724,150.152627625,55.0,78.0
685,150.1554054,150.2956830375,67.0,76.0
686,150.1554054,150.419294025,74.0,84.0
687,150.1554054,150.5456827875,60.0,62.0
688,150.48873840000002,150.80540475,72.0,80.0
689,151.1554044,151.44429300000002,65.0,80.0
690,150.8220714,151.480404075,63.0,71.0
691,150.48873840000002,151.49707072500001,62.0,75.0
692,151.48873740000002,151.64984835,74.0,78.0
693,151.6554039,151.8776259,75.0,74.0
694,151.8220704,151.94984805,77.0,76.0
695,151.98873690000002,152.24429220000002,82.0,61.0
696,152.1554034,152.6540140125,48.0,76.0
697,152.1554034,152.72762505,79.0,76.0
698,152.4887364,152.7901249875,55.0,76.0
699,152.8220694,153.2401245375,60.0,57.0
700,153.8220684,154.1095681125,67.0,76.0
701,153.4887354,154.24984575000002,63.0,80.0
702,153.1554024,154.2776235,62.0,76.0
703,154.15540140000002,154.4651233125,70.0,78.0
704,154.4887344,154.85262292500002,75.0,77.0
705,154.8220674,155.5928999625,68.0,79.0
706,155.15540040000002,156.13178831250002,60.0,67.0
707,155.8220664,156.19428825,67.0,75.0
708,155.4887334,156.3290103375,65.0,75.0
709,156.1553994,156.58317675,68.0,79.0
710,154.8220674,156.81928762500002,53.0,75.0
711,156.4887324,156.96095415000002,60.0,58.0
712,156.8220654,157.1345650875,68.0,74.0
713,156.8220654,157.19567613750002,53.0,25.0
714,157.1553984,157.2442872,60.0,69.0
715,156.8220654,157.2762316125,75.0,57.0
716,157.4887314,157.95123093750001,67.0,63.0
717,157.4887314,157.9817864625,46.0,50.0
718,157.4887314,157.991508675,70.0,71.0
719,157.82206440000002,158.0651197125,53.0,75.0
720,157.4887314,158.208175125,74.0,80.0
721,158.1553974,158.60400806250001,58.0,43.0
722,158.1553974,158.6595635625,65.0,73.0
723,158.1553974,158.8901188875,72.0,79.0
724,158.82206340000002,159.19845191250002,70.0,78.0
725,158.82206340000002,159.241507425,65.0,79.0
726,158.4887304,159.29845181250002,60.0,48.0
727,159.1553964,159.713729175,62.0,80.0
728,159.4887294,159.95122893750002,65.0,75.0
729,159.8220624,160.213728675,70.0,60.0
730,160.1553954,160.9678945875,67.0,80.0
731,160.4887284,161.402616375,58.0,73.0
732,161.1553944,161.56511621250002,65.0,76.0
733,160.8220614,161.60678283750002,63.0,68.0
734,161.48872740000002,161.78594932500002,67.0,80.0
735,161.8220604,162.2067822375,70.0,75.0
736,162.1553934,162.2790043875,58.0,76.0
737,160.1553954,162.302615475,51.0,76.0
738,162.1553934,162.4567819875,63.0,76.0
739,162.48872640000002,162.8776149,67.0,78.0
740,162.8220594,163.313725575,41.0,82.0
741,163.1553924,163.42344768750002,48.0,63.0
742,163.48872540000002,163.8790027875,53.0,69.0
743,162.8220594,163.98316935,63.0,58.0
744,162.8220594,164.0956692375,60.0,52.0
745,162.8220594,164.1373358625,68.0,86.0
746,164.4887244,164.92761285,60.0,71.0
747,164.1553914,164.99705722500002,56.0,80.0
748,163.8220584,165.0442794,55.0,80.0
749,164.8220574,165.4095568125,68.0,84.0
750,165.15539040000002,165.5206678125,60.0,56.0
751,165.4887234,166.0095562125,63.0,80.0
752,165.4887234,166.074833925,67.0,76.0
753,166.15538940000002,166.3401114375,62.0,71.0
754,166.15538940000002,166.4484446625,65.0,78.0
755,166.4887224,166.9456663875,63.0,83.0
756,166.4887224,166.95816637500002,67.0,78.0
757,165.8220564,167.31649935000002,55.0,69.0
758,167.15538840000002,167.36649930000002,62.0,78.0
759,167.15538840000002,167.41094370000002,65.0,80.0
760,166.8220554,167.53177691250002,60.0,59.0
761,165.4887234,167.555388,48.0,77.0
762,167.4887214,167.78316555,67.0,80.0
763,167.4887214,167.7998322,63.0,82.0
764,167.8220544,167.98455423750002,70.0,77.0
765,168.1553874,168.8095534125,67.0,79.0
766,168.1553874,168.89427555,63.0,80.0
767,168.1553874,168.91371997500002,60.0,68.0
768,168.1553874,169.0178865375,44.0,78.0
769,168.4887204,169.0595531625,51.0,79.0
770,168.82205340000002,169.0623309375,56.0,72.0
771,169.1553864,169.26094185,70.0,52.0
772,169.1553864,169.30121958750001,60.0,58.0
773,169.4887194,170.11649655,62.0,75.0
774,169.4887194,170.19566313750002,70.0,78.0
775,169.4887194,170.2234408875,65.0,82.0
776,169.4887194,170.27482972500002,46.0,80.0
777,169.82205240000002,170.27482972500002,53.0,78.0
778,170.1553854,170.56927387500002,58.0,59.0
779,170.4887184,170.70677373750001,62.0,68.0
780,170.82205140000002,171.0817733625,63.0,82.0
781,170.82205140000002,171.1651066125,67.0,79.0
782,170.82205140000002,171.43038412500002,48.0,81.0
783,171.1553844,171.43038412500002,55.0,73.0
784,171.4887174,171.641495025,67.0,38.0
785,171.4887174,171.6623283375,75.0,58.0
786,171.4887174,171.8762170125,60.0,40.0
787,171.8220504,172.0762168125,65.0,56.0
788,171.8220504,172.2178833375,74.0,82.0
789,171.8220504,172.4553831,62.0,71.0
790,172.1553834,172.7373272625,63.0,62.0
791,172.48871640000002,172.88038267500002,72.0,75.0
792,172.48871640000002,172.8928826625,67.0,68.0
793,172.8220494,172.96093815,62.0,80.0
794,173.1553824,173.4039932625,70.0,73.0
795,173.48871540000002,173.84149282500002,63.0,83.0
796,173.48871540000002,173.84149282500002,68.0,81.0
797,173.48871540000002,173.8817705625,60.0,70.0
798,174.1553814,174.4776033,68.0,80.0
799,174.1553814,174.54426990000002,63.0,84.0
800,174.1553814,174.5817698625,60.0,71.0
801,173.8220484,174.92621396250001,56.0,50.0
802,174.8220474,175.1373248625,68.0,75.0
803,174.8220474,175.1817692625,63.0,78.0
804,174.8220474,175.208158125,60.0,63.0
805,175.1553804,175.56787998750002,56.0,50.0
806,175.4887134,175.72899093750001,68.0,78.0
807,173.48871540000002,175.79704642500002,44.0,79.0
808,175.4887134,175.82760195,60.0,71.0
809,175.4887134,175.94704627500002,63.0,83.0
810,175.8220464,176.180379375,56.0,71.0
811,176.15537940000002,176.52343458750002,65.0,82.0
812,176.15537940000002,176.5456567875,62.0,76.0
813,176.15537940000002,176.5901011875,70.0,81.0
814,176.8220454,177.1456561875,70.0,75.0
815,176.8220454,177.1539895125,62.0,73.0
816,176.8220454,177.1664895,65.0,80.0
817,177.15537840000002,177.5484335625,58.0,60.0
818,177.4887114,177.7567666875,70.0,79.0
819,177.4887114,177.797044425,65.0,84.0
820,177.4887114,177.8428777125,62.0,80.0
821,177.8220444,178.1887107,58.0,62.0
822,178.15537740000002,178.2650995125,70.0,52.0
823,178.15537740000002,178.37204385,62.0,78.0
824,178.3220439,178.4484326625,58.0,63.0
825,176.4887124,178.45537710000002,53.0,62.0
826,176.15537940000002,178.485932625,46.0,78.0
827,178.4887104,178.64287691250001,65.0,83.0
828,178.8220434,179.180376375,65.0,84.0
829,178.65537690000002,179.19565413750001,70.0,79.0
830,178.8220434,179.2039874625,62.0,78.0
831,179.1553764,179.61093150000002,55.0,71.0
832,179.4887094,179.84009793750002,70.0,79.0
833,179.4887094,179.8512090375,62.0,76.0
834,179.4887094,179.8512090375,65.0,81.0
835,179.82204240000002,180.530375025,55.0,60.0
836,180.1553754,180.6109305,62.0,73.0
837,180.4887084,180.82481917500002,65.0,84.0
838,180.82204140000002,180.9234301875,62.0,83.0
839,180.82204140000002,180.9567634875,70.0,84.0
840,178.8220434,181.1262077625,43.0,84.0
841,181.1553744,181.247040975,74.0,67.0
842,181.1553744,181.37759640000002,72.0,61.0
843,181.1553744,181.4317630125,55.0,75.0
844,181.4887074,181.6178739375,74.0,75.0
845,181.4887074,181.62204060000002,75.0,77.0
846,181.4887074,181.9150958625,67.0,76.0
847,181.4887074,182.0553735,48.0,79.0
848,181.82204040000002,182.0998179,55.0,60.0
849,182.1553734,182.53037302500002,67.0,68.0
850,182.1553734,182.70398396250002,60.0,58.0
851,182.1553734,182.75953946250002,75.0,83.0
852,182.8220394,183.00953921250002,67.0,77.0
853,182.8220394,183.11231688750001,74.0,90.0
854,183.1553724,183.36231663750002,67.0,76.0
855,183.1553724,183.53037202500002,75.0,83.0
856,182.4887064,183.5664831,62.0,72.0
857,183.48870540000001,183.60120528750002,63.0,84.0
858,183.48870540000001,183.71231628750002,70.0,78.0
859,183.8220384,183.9817604625,67.0,71.0
860,184.1553714,184.56787098750002,72.0,77.0
861,184.1553714,184.647037575,63.0,78.0
862,184.1553714,184.6484264625,68.0,79.0
863,184.1553714,184.752593025,44.0,82.0
864,184.48870440000002,184.813704075,51.0,80.0
865,184.8220374,185.219259225,56.0,57.0
866,184.8220374,185.42759235,72.0,78.0
867,184.8220374,185.46787008750002,68.0,80.0
868,184.8220374,185.56509221250002,63.0,81.0
869,185.1553704,186.0595361625,58.0,69.0
870,185.8220364,186.113702775,63.0,78.0
871,186.1553694,186.42064691250002,68.0,79.0
872,185.48870340000002,186.5289801375,60.0,74.0
873,186.48870240000002,186.7456465875,72.0,79.0
874,186.8220354,186.9817574625,65.0,78.0
875,186.8220354,187.280368275,46.0,80.0
876,187.15536840000001,187.4650903125,53.0,80.0
877,186.8220354,187.4664792,74.0,84.0
878,187.15536840000001,187.58314575,65.0,5.0
879,186.8220354,187.6428679125,70.0,79.0
880,187.4887014,187.90536765000002,58.0,72.0
881,188.4887004,188.647033575,74.0,58.0
882,188.4887004,188.6706446625,82.0,71.0
883,188.8220334,188.92619996250002,65.0,55.0
884,188.8220334,188.92897773750002,63.0,59.0
885,188.15536740000002,189.03453318750002,62.0,76.0
886,187.8220344,189.074810925,60.0,73.0
887,188.8220334,189.0998109,74.0,81.0
888,188.8220334,189.141477525,82.0,79.0
889,189.15536640000002,189.3511995375,77.0,82.0
890,189.4886994,189.78453243750002,44.0,80.0
891,189.8220324,190.202587575,56.0,61.0
892,189.4886994,190.235920875,63.0,75.0
893,189.4886994,190.247031975,68.0,83.0
894,189.4886994,190.27203195,72.0,80.0
895,190.4886984,191.002586775,60.0,73.0
896,190.82203140000001,191.09008668750002,63.0,80.0
897,191.1553644,191.4706418625,72.0,75.0
898,191.4886974,191.63730836250002,60.0,80.0
899,190.15536540000002,191.7039749625,58.0,76.0
900,191.82203040000002,192.10119678750002,75.0,84.0
901,192.1553634,192.4345297875,43.0,83.0
902,192.4886964,192.89286266250002,55.0,75.0
903,192.1553634,193.1817512625,74.0,84.0
904,193.1553624,193.23869565,62.0,84.0
905,192.82202940000002,193.241473425,60.0,79.0
906,193.4886954,193.68313965000002,67.0,71.0
907,193.4886954,193.8442506,71.0,71.0
908,193.82202840000002,193.97202825000002,67.0,77.0
909,193.82202840000002,194.12202810000002,72.0,81.0
910,193.82202840000002,194.22480577500002,55.0,78.0
911,194.1553614,194.35952786250002,67.0,75.0
912,194.1553614,194.45952776250002,74.0,86.0
913,194.1553614,194.4886944,47.0,79.0
914,193.4886954,194.4984166125,43.0,84.0
915,194.4886944,194.613694275,77.0,81.0
916,194.4886944,194.6734164375,55.0,84.0
917,194.8220274,194.93869395000002,43.0,63.0
918,194.8220274,195.24980475,68.0,75.0
919,194.8220274,195.25397141250002,75.0,83.0
920,195.1553604,195.5845266375,56.0,69.0
921,195.48869340000002,195.83035972500002,68.0,82.0
922,195.48869340000002,195.86091525,63.0,77.0
923,195.48869340000002,195.8706374625,72.0,78.0
924,195.48869340000002,195.9289707375,75.0,67.0
925,195.8220264,196.26091485,56.0,57.0
926,196.1553594,196.50535905,68.0,82.0
927,196.1553594,196.53313680000002,63.0,75.0
928,196.1553594,196.569247875,72.0,75.0
929,196.1553594,196.5789700875,75.0,67.0
930,196.48869240000002,196.924803075,56.0,58.0
931,196.8220254,196.924803075,75.0,59.0
932,194.8220274,197.09702512500002,44.0,57.0
933,196.8220254,197.11785843750002,63.0,75.0
934,196.8220254,197.32619156250001,68.0,82.0
935,196.8220254,197.3373026625,72.0,82.0
936,197.1553584,197.49702472500002,56.0,79.0
937,197.48869140000002,197.8567465875,74.0,82.0
938,197.48869140000002,197.87063546250002,65.0,78.0
939,197.48869140000002,197.92757985,70.0,78.0
940,197.8220244,198.1956351375,58.0,54.0
941,198.1553574,198.3623016375,74.0,80.0
942,198.1553574,198.4511904375,70.0,74.0
943,198.1553574,198.4775793,65.0,79.0
944,197.48869140000002,198.635912475,46.0,81.0
945,198.4886904,198.777579,58.0,67.0
946,198.8220234,198.94424550000002,65.0,78.0
947,198.8220234,198.9845232375,77.0,69.0
948,198.8220234,199.124800875,46.0,75.0
949,199.15535640000002,199.2567451875,67.0,69.0
950,199.15535640000002,199.28452293750001,79.0,82.0
951,199.15535640000002,199.5373004625,58.0,69.0
952,199.4886894,199.58452263750002,70.0,71.0
953,199.4886894,199.6206337125,82.0,83.0
954,199.4886894,199.86091125000002,60.0,68.0
955,199.8220224,199.888689,62.0,82.0
956,199.8220224,199.92341118750002,72.0,69.0
957,199.8220224,199.9511889375,84.0,82.0
958,200.15535540000002,200.42618846250002,43.0,83.0
959,200.15535540000002,200.8220214,86.0,84.0
960,200.4886884,200.8595213625,55.0,75.0
961,200.15535540000002,200.974799025,74.0,80.0
962,201.3220209,201.44979855,65.0,73.0
963,201.15535440000002,201.4650763125,62.0,80.0
964,201.4886874,201.6997983,70.0,69.0
965,201.65535390000002,201.8067426375,72.0,73.0
966,201.8220204,201.941464725,74.0,75.0
967,201.9886869,202.1678533875,75.0,80.0
968,202.1553534,202.26646440000002,62.0,79.0
969,200.8220214,202.3595198625,58.0,76.0
970,202.1553534,202.3734087375,74.0,78.0
971,202.32201990000002,202.435908675,70.0,28.0
972,202.4886864,202.6442418,67.0,63.0
973,202.6553529,202.8150749625,72.0,71.0
974,202.82201940000002,203.1595190625,75.0,83.0
975,202.82201940000002,203.3067411375,67.0,78.0
976,202.82201940000002,203.3650744125,48.0,80.0
977,203.1553524,203.4553521,55.0,79.0
978,203.1553524,203.4817409625,74.0,83.0
979,203.4886854,203.7109074,67.0,72.0
980,203.4886854,203.730351825,75.0,80.0
981,203.4886854,203.90535165,60.0,57.0
982,203.82201840000002,203.9789626875,67.0,62.0
983,203.82201840000002,204.21924022500002,74.0,84.0
984,204.1553514,204.50535105,72.0,79.0
985,204.1553514,204.5622954375,67.0,76.0
986,204.4886844,204.84840626250002,63.0,84.0
987,203.82201840000002,204.90396176250002,62.0,72.0
988,204.82201740000002,205.0372949625,67.0,82.0
989,204.82201740000002,205.0678504875,70.0,83.0
990,205.4886834,205.87479412500002,68.0,82.0
991,205.4886834,205.88034967500002,63.0,80.0
992,205.4886834,205.88034967500002,72.0,79.0
993,205.8220164,206.27757150000002,56.0,63.0
994,206.1553494,206.5428490125,68.0,79.0
995,206.1553494,206.54979345,63.0,76.0
996,206.1553494,206.555349,72.0,78.0
997,206.48868240000002,207.00534855,56.0,59.0
998,206.8220154,207.2109039,72.0,73.0
999,206.8220154,207.222015,68.0,76.0
1000,206.8220154,207.29423715000001,63.0,75.0
1001,207.1553484,207.62062571250001,56.0,58.0
1002,205.4886834,207.6484034625,44.0,84.0
1003,207.48868140000002,207.68312565000002,63.0,80.0
1004,207.48868140000002,207.8456254875,72.0,78.0
1005,207.48868140000002,207.9928475625,68.0,83.0
1006,207.8220144,208.169236275,56.0,72.0
1007,208.1553474,208.61784693750002,74.0,86.0
1008,208.1553474,208.802568975,46.0,83.0
1009,208.48868040000002,208.82062451250002,53.0,77.0
1010,208.1553474,208.9539577125,65.0,80.0
1011,208.8220134,209.2122907875,58.0,72.0
1012,208.1553474,209.49423495000002,70.0,79.0
1013,209.8220124,210.241456425,65.0,79.0
1014,209.4886794,210.374789625,62.0,80.0
1015,209.1553464,210.413678475,60.0,72.0
1016,210.15534540000002,210.4595117625,70.0,80.0
1017,210.4886784,210.669233775,74.0,90.0
1018,210.8220114,211.12756665,43.0,83.0
1019,211.15534440000002,211.5150662625,55.0,73.0
1020,210.8220114,211.68173276250002,74.0,84.0
1021,210.8220114,211.71367717500002,65.0,77.0
1022,210.8220114,211.7983993125,70.0,79.0
1023,211.8220104,212.3956209375,62.0,80.0
1024,212.15534340000002,212.419232025,65.0,75.0
1025,212.4886764,212.7483983625,70.0,83.0
1026,212.8220094,212.9442315,62.0,80.0
1027,211.4886774,212.9733981375,58.0,78.0
1028,212.8220094,213.1039535625,74.0,83.0
1029,213.15534240000002,213.2997867,77.0,79.0
1030,213.4886754,213.9678415875,67.0,79.0
1031,213.4886754,214.1178414375,75.0,82.0
1032,213.4886754,214.11923032500002,48.0,78.0
1033,213.82200840000002,214.17478582500001,55.0,62.0
1034,214.1553414,214.285896825,75.0,39.0
1035,214.1553414,214.31923012500002,67.0,75.0
1036,214.1553414,214.4345077875,74.0,84.0
1037,214.1553414,214.54978545,60.0,58.0
1038,214.4886744,214.80534075,67.0,79.0
1039,214.4886744,214.891451775,72.0,79.0
1040,215.1553404,215.58311775,65.0,76.0
1041,215.4886734,215.60395106250002,72.0,63.0
1042,214.82200740000002,215.6095066125,63.0,78.0
1043,215.4886734,215.64978435,84.0,78.0
1044,214.4886744,215.68033987500002,62.0,79.0
1045,215.82200640000002,215.935895175,86.0,48.0
1046,215.82200640000002,215.9372840625,74.0,69.0
1047,216.1553394,216.27200595000002,43.0,63.0
1048,216.1553394,216.58311675000002,68.0,75.0
1049,216.1553394,216.5872834125,75.0,83.0
1050,216.4886724,216.9178386375,56.0,69.0
1051,216.82200540000002,217.163671725,68.0,82.0
1052,216.82200540000002,217.19422725,63.0,77.0
1053,216.82200540000002,217.20394946250002,72.0,78.0
1054,216.82200540000002,217.26228273750002,75.0,67.0
1055,217.1553384,217.59422685,56.0,57.0
1056,217.48867140000002,217.83867105000002,68.0,82.0
1057,217.48867140000002,217.8664488,63.0,75.0
1058,217.48867140000002,217.902559875,72.0,75.0
1059,217.48867140000002,217.91228208750002,75.0,67.0
1060,217.8220044,218.258115075,56.0,58.0
1061,218.1553374,218.258115075,75.0,59.0
1062,216.1553394,218.43033712500002,44.0,57.0
1063,218.1553374,218.4511704375,63.0,75.0
1064,218.1553374,218.65950356250002,68.0,82.0
1065,218.1553374,218.67061466250001,72.0,82.0
1066,218.48867040000002,218.83033672500002,56.0,79.0
1067,218.8220034,219.1900585875,74.0,82.0
1068,218.8220034,219.2039474625,65.0,78.0
1069,218.8220034,219.26089185,70.0,78.0
1070,219.1553364,219.5289471375,58.0,54.0
1071,219.48866940000002,219.6956136375,74.0,80.0
1072,219.48866940000002,219.7845024375,70.0,74.0
1073,219.48866940000002,219.8108913,65.0,79.0
1074,218.8220034,219.969224475,46.0,81.0
1075,219.8220024,220.110891,58.0,67.0
1076,220.1553354,220.2775575,65.0,78.0
1077,220.1553354,220.31783523750002,77.0,69.0
1078,220.1553354,220.458112875,46.0,75.0
1079,220.48866840000002,220.5900571875,67.0,69.0
1080,220.48866840000002,220.61783493750002,79.0,82.0
1081,220.48866840000002,220.87061246250002,58.0,69.0
1082,220.8220014,220.91783463750002,70.0,71.0
1083,220.8220014,220.9539457125,82.0,83.0
1084,220.8220014,221.19422325000002,60.0,68.0
1085,221.15533440000002,221.222001,62.0,82.0
1086,221.15533440000002,221.2567231875,72.0,69.0
1087,221.15533440000002,221.2845009375,84.0,82.0
1088,221.4886674,221.7595004625,43.0,83.0
1089,221.4886674,222.15533340000002,86.0,84.0
1090,221.8220004,222.1928333625,55.0,75.0
1091,221.4886674,222.30811102500002,74.0,80.0
1092,222.65533290000002,222.78311055,65.0,73.0
1093,222.4886664,222.7983883125,62.0,80.0
1094,222.8219994,223.0331103,70.0,69.0
1095,222.9886659,223.14005463750001,72.0,73.0
1096,223.15533240000002,223.274776725,74.0,75.0
1097,223.3219989,223.5011653875,75.0,80.0
1098,223.4886654,223.5997764,62.0,79.0
1099,222.15533340000002,223.69283186250001,58.0,76.0
1100,223.4886654,223.7067207375,74.0,78.0
1101,223.65533190000002,223.769220675,70.0,28.0
1102,223.8219984,223.9775538,67.0,63.0
1103,223.9886649,224.1483869625,72.0,71.0
1104,224.15533140000002,224.49283106250002,75.0,83.0
1105,224.15533140000002,224.64005313750002,67.0,78.0
1106,224.15533140000002,224.6983864125,48.0,80.0
1107,224.4886644,224.7886641,55.0,79.0
1108,224.4886644,224.8150529625,74.0,83.0
1109,224.82199740000001,225.0442194,67.0,72.0
1110,224.82199740000001,225.06366382500002,75.0,80.0
1111,224.82199740000001,225.23866365,60.0,57.0
1112,225.1553304,225.3122746875,67.0,62.0
1113,225.1553304,225.552552225,74.0,84.0
1114,225.4886634,225.83866305,72.0,79.0
1115,225.4886634,225.89560743750002,67.0,76.0
1116,225.82199640000002,226.1817182625,63.0,84.0
1117,225.1553304,226.23727376250002,62.0,72.0
1118,226.1553294,226.3706069625,67.0,82.0
1119,226.1553294,226.40116248750002,70.0,83.0
1120,226.82199540000002,227.208106125,68.0,82.0
1121,226.82199540000002,227.213661675,63.0,80.0
1122,226.82199540000002,227.213661675,72.0,79.0
1123,227.1553284,227.6108835,56.0,63.0
1124,227.4886614,227.8761610125,68.0,79.0
1125,227.4886614,227.88310545000002,63.0,76.0
1126,227.4886614,227.888661,72.0,78.0
1127,227.82199440000002,228.33866055000001,56.0,59.0
1128,228.1553274,228.5442159,72.0,73.0
1129,228.1553274,228.555327,68.0,76.0
1130,228.1553274,228.62754915000002,63.0,75.0
1131,228.48866040000001,228.95393771250002,56.0,58.0
1132,226.82199540000002,228.9817154625,44.0,84.0
1133,228.8219934,229.01643765,63.0,80.0
1134,228.8219934,229.1789374875,72.0,78.0
1135,228.8219934,229.3261595625,68.0,83.0
1136,229.1553264,229.502548275,56.0,72.0
1137,229.48865940000002,229.9511589375,74.0,86.0
1138,229.48865940000002,230.13588097500002,46.0,83.0
1139,229.8219924,230.1539365125,53.0,77.0
1140,229.48865940000002,230.2872697125,65.0,80.0
1141,230.1553254,230.5456027875,58.0,72.0
1142,229.48865940000002,230.82754695,70.0,79.0
1143,231.1553244,231.574768425,65.0,79.0
1144,230.8219914,231.708101625,62.0,80.0
1145,230.48865840000002,231.74699047500002,60.0,72.0
1146,231.48865740000002,231.7928237625,70.0,80.0
1147,231.8219904,232.00254577500002,74.0,90.0
1148,232.15532340000001,232.46087865,43.0,83.0
1149,232.4886564,232.8483782625,55.0,73.0
1150,232.15532340000001,233.0150447625,74.0,84.0
1151,232.15532340000001,233.04698917500002,65.0,77.0
1152,232.15532340000001,233.13171131250002,70.0,79.0
1153,233.15532240000002,233.72893293750002,62.0,80.0
1154,233.4886554,233.75254402500002,65.0,75.0
1155,233.8219884,234.08171036250002,70.0,83.0
1156,234.15532140000002,234.2775435,62.0,80.0
1157,232.8219894,234.3067101375,58.0,78.0
1158,234.15532140000002,234.43726556250002,74.0,83.0
1159,234.4886544,234.6330987,77.0,79.0
1160,234.8219874,235.3011535875,67.0,79.0
1161,234.8219874,235.4511534375,75.0,82.0
1162,234.8219874,235.45254232500002,48.0,78.0
1163,235.15532040000002,235.50809782500002,55.0,62.0
1164,235.4886534,235.61920882500002,75.0,39.0
1165,235.4886534,235.652542125,67.0,75.0
1166,235.4886534,235.7678197875,74.0,84.0
1167,235.4886534,235.88309745,60.0,58.0
1168,235.82198640000001,236.13865275,67.0,79.0
1169,235.82198640000001,236.224763775,72.0,79.0
1170,236.4886524,236.91642975000002,65.0,76.0
1171,236.82198540000002,236.93726306250002,72.0,63.0
1172,236.1553194,236.94281861250002,63.0,78.0
1173,236.82198540000002,236.98309635,84.0,78.0
1174,235.82198640000001,237.01365187500002,62.0,79.0
1175,237.1553184,237.26920717500002,86.0,48.0
1176,237.1553184,237.2705960625,74.0,69.0
1177,237.4886514,237.896984325,72.0,80.0
1178,237.4886514,237.9344842875,80.0,90.0
1179,237.4886514,238.0622619375,44.0,78.0
1180,237.82198440000002,238.12198410000002,51.0,78.0
1181,238.1553174,238.32198390000002,72.0,80.0
1182,238.1553174,238.341428325,79.0,84.0
1183,238.1553174,238.5789280875,56.0,72.0
1184,238.82198340000002,239.17198305000002,67.0,78.0
1185,238.82198340000002,239.1844830375,75.0,86.0
1186,239.1553164,239.73864915000001,60.0,63.0
1187,239.4886494,239.75114913750002,63.0,78.0
1188,238.4886504,239.75670468750002,58.0,71.0
1189,239.4886494,239.83587127500002,68.0,81.0
1190,239.82198240000002,240.15392651250002,75.0,83.0
1191,240.1553154,240.724759275,46.0,78.0
1192,240.48864840000002,240.8219814,53.0,75.0
1193,240.8219814,241.246980975,58.0,69.0
1194,240.1553154,241.4428141125,65.0,75.0
1195,240.1553154,241.55670288750002,70.0,75.0
1196,240.1553154,241.63586947500002,74.0,84.0
1197,241.1553144,241.9428136125,60.0,75.0
1198,241.8219804,242.09698012500002,65.0,72.0
1199,241.48864740000002,242.2039244625,62.0,82.0
1200,242.1553134,242.330313225,60.0,73.0
1201,242.1553134,242.49975750000002,72.0,78.0
1202,242.48864640000002,242.81642385,77.0,83.0
1203,242.8219794,243.169201275,43.0,82.0
1204,243.1553124,243.5317009125,55.0,78.0
1205,242.8219794,243.813645075,70.0,81.0
1206,242.8219794,243.8330895,74.0,83.0
1207,243.8219784,244.16086695,62.0,80.0
1208,244.15531140000002,244.57058876250002,65.0,76.0
1209,244.4886444,244.9483661625,62.0,76.0
1210,243.48864540000002,245.074754925,58.0,76.0
1211,244.8219774,245.191421475,70.0,78.0
1212,245.15531040000002,245.4011434875,72.0,79.0
1213,245.3219769,245.50253227500002,74.0,82.0
1214,245.4886434,245.97336513750002,67.0,76.0
1215,245.4886434,246.091420575,75.0,82.0
1216,245.4886434,246.1011427875,48.0,79.0
1217,245.8219764,246.1219761,55.0,78.0
1218,246.15530940000002,246.34975365,67.0,72.0
1219,246.15530940000002,246.48308685,74.0,84.0
1220,246.15530940000002,246.541420125,60.0,71.0
1221,246.4886424,246.9039197625,67.0,57.0
1222,246.4886424,246.94280861250002,75.0,80.0
1223,246.4886424,246.94975305,62.0,79.0
1224,247.15530840000002,247.19280836250002,75.0,55.0
1225,246.8219754,247.21641945000002,63.0,79.0
1226,247.15530840000002,247.3289193375,67.0,81.0
1227,247.15530840000002,247.330308225,74.0,84.0
1228,247.15530840000002,247.6539190125,62.0,69.0
1229,247.4886414,247.7511411375,70.0,79.0
1230,247.82197440000002,248.052529725,67.0,78.0
1231,248.1553074,248.5441959,68.0,73.0
1232,248.1553074,248.5844736375,72.0,76.0
1233,248.1553074,248.61919582500002,63.0,72.0
1234,248.82197340000002,249.30391736250002,56.0,75.0
1235,249.1553064,249.57197265000002,68.0,86.0
1236,249.1553064,249.9233611875,60.0,70.0
1237,249.1553064,249.92752785000002,63.0,82.0
1238,249.82197240000002,250.10947211250001,56.0,79.0
1239,248.4886404,250.29280526250002,51.0,79.0
1240,250.1553054,250.45947176250002,60.0,76.0
1241,250.1553054,250.56224943750001,68.0,82.0
1242,248.1553074,250.591416075,44.0,78.0
1243,250.1553054,250.69558263750002,63.0,80.0
1244,250.4886384,250.7997492,56.0,71.0
1245,250.4886384,250.8733602375,51.0,5.0
1246,250.82197140000002,251.51224848750002,65.0,82.0
1247,250.82197140000002,251.5344706875,62.0,84.0
1248,250.82197140000002,251.58863730000002,70.0,83.0
1249,251.48863740000002,251.8872481125,58.0,79.0
1250,251.8219704,252.20947001250002,62.0,81.0
1251,251.8219704,252.4400253375,65.0,84.0
1252,251.1553044,252.7219695,53.0,78.0
1253,252.48863640000002,252.82058051250002,70.0,84.0
1254,252.1553034,252.91780263750002,58.0,55.0
1255,252.48863640000002,252.9983581125,62.0,74.0
1256,252.8219694,253.08308025000002,65.0,84.0
1257,250.82197140000002,253.16780238750002,46.0,82.0
1258,253.1553024,253.258080075,53.0,80.0
1259,253.1553024,253.3789132875,70.0,71.0
1260,253.48863540000002,253.7900239875,43.0,83.0
1261,253.48863540000002,254.12335698750002,62.0,73.0
1262,253.8219684,254.20530135,55.0,77.0
1263,253.48863540000002,254.26224573750002,65.0,84.0
1264,254.48863440000002,255.0066894375,62.0,78.0
1265,254.8219674,255.21780033750002,65.0,77.0
1266,255.15530040000002,255.4428001125,70.0,77.0
1267,255.4886334,255.62057771250002,62.0,82.0
1268,254.1553014,255.65807767500002,58.0,76.0
1269,255.4886334,255.7566886875,72.0,78.0
1270,255.8219664,256.1455771875,74.0,84.0
1271,256.1552994,256.5219657,75.0,83.0
1272,256.1552994,256.6039100625,67.0,70.0
1273,256.8219654,257.22752055,60.0,63.0
1274,257.1552984,257.4233536875,67.0,78.0
1275,257.1552984,257.444187,63.0,80.0
1276,257.48863140000003,257.75946446250003,65.0,78.0
1277,257.48863140000003,257.7983533125,62.0,61.0
1278,257.8219644,257.9761309125,63.0,74.0
1279,257.8219644,258.1261307625,67.0,70.0
1280,258.1552974,258.1983529125,63.0,27.0
1281,258.1552974,258.31640835,70.0,82.0
1282,258.1552974,258.319186125,60.0,59.0
1283,256.48863240000003,258.3761305125,55.0,76.0
1284,256.1552994,258.3997416,48.0,79.0
1285,258.8219634,259.130296425,75.0,73.0
1286,258.8219634,259.16085195,79.0,69.0
1287,258.8219634,259.419185025,48.0,76.0
1288,259.1552964,259.419185025,74.0,62.0
1289,259.1552964,259.444185,55.0,73.0
1290,259.1552964,259.44974055,77.0,76.0
1291,259.48862940000004,259.86501791250004,60.0,54.0
1292,259.48862940000004,259.9441845,79.0,74.0
1293,259.48862940000004,260.0594621625,75.0,73.0
1294,259.8219624,260.596961625,62.0,76.0
1295,260.48862840000004,260.7344614875,67.0,78.0
1296,260.1552954,260.8872391125,63.0,76.0
1297,260.8219614,260.9441835,62.0,79.0
1298,260.8219614,261.130294425,72.0,79.0
1299,261.1552944,261.444183,75.0,90.0
1300,261.4886274,261.7677937875,74.0,82.0
1301,261.4886274,261.91640475,46.0,77.0
1302,261.8219604,262.130293425,72.0,78.0
1303,261.8219604,262.1664045,58.0,60.0
1304,262.1552934,262.5650152125,74.0,83.0
1305,262.1552934,262.8219594,60.0,68.0
1306,262.8219594,263.11640355000003,65.0,75.0
1307,263.1552924,263.46084765,72.0,77.0
1308,262.4886264,263.524736475,62.0,82.0
1309,263.4886254,263.6511252375,60.0,70.0
1310,263.4886254,263.746958475,74.0,75.0
1311,263.8219584,264.13445808750004,70.0,75.0
1312,264.1552914,264.5761243125,44.0,77.0
1313,264.4886244,264.81640185000003,51.0,76.0
1314,264.82195740000003,265.19279036250003,56.0,71.0
1315,264.1552914,265.3177902375,63.0,70.0
1316,264.1552914,265.58306775,68.0,68.0
1317,264.1552914,265.78723421250004,72.0,79.0
1318,265.82195640000003,266.1900115875,63.0,79.0
1319,265.4886234,266.25112263750003,60.0,75.0
1320,265.1552904,266.3122336875,58.0,73.0
1321,266.1552894,266.4705668625,68.0,80.0
1322,266.4886224,266.808066525,72.0,72.0
1323,266.82195540000004,267.1205662125,43.0,84.0
1324,267.1552884,267.57195465,55.0,71.0
1325,266.82195540000004,267.8150099625,74.0,86.0
1326,266.82195540000004,267.91639875,67.0,62.0
1327,268.1552874,268.5316759125,71.0,79.0
1328,267.82195440000004,268.6219536,62.0,82.0
1329,268.4886204,268.76778678750003,72.0,78.0
1330,268.8219534,269.0219532,62.0,81.0
1331,267.4886214,269.063619825,60.0,75.0
1332,268.8219534,269.102508675,74.0,84.0
1333,269.1552864,269.496952725,75.0,86.0
1334,269.4886194,269.8316746125,79.0,83.0
1335,270.1552854,270.613618275,60.0,76.0
1336,270.4886184,270.8483402625,62.0,77.0
1337,270.8219514,270.930284625,63.0,84.0
1338,271.1552844,271.41500636250004,67.0,84.0
1339,269.8219524,271.5288951375,55.0,76.0
1340,271.4886174,271.541395125,67.0,33.0
1341,271.4886174,271.7108394,60.0,71.0
1342,271.4886174,271.763617125,75.0,84.0
1343,269.4886194,271.87333923750003,48.0,82.0
1344,271.8219504,272.09139457500004,74.0,79.0
1345,271.8219504,272.119172325,55.0,80.0
1346,272.15528340000003,272.7372272625,46.0,75.0
1347,272.4886164,272.8122271875,53.0,63.0
1348,272.8219494,273.224726775,58.0,72.0
1349,272.15528340000003,273.41361547500003,70.0,78.0
1350,273.15528240000003,273.941392725,60.0,61.0
1351,273.4886154,274.2483368625,62.0,79.0
1352,273.8219484,274.3344478875,65.0,79.0
1353,274.15528140000004,274.49000328750003,60.0,75.0
1354,274.4886144,274.646947575,72.0,68.0
1355,274.65528090000004,274.7983363125,74.0,86.0
1356,274.841391825,275.630279925,75.0,84.0
1357,274.84972515000004,275.8122241875,44.0,83.0
1358,275.4997245,276.0983350125,56.0,83.0
1359,275.13722486250003,276.16639050000003,51.0,76.0
1360,275.8566685875,276.174723825,63.0,38.0
1361,276.1733349375,276.7622232375,70.0,76.0
1362,276.1650016125,276.8650009125,74.0,82.0
1363,276.1705571625,276.8872231125,46.0,82.0
1364,276.81638985,277.0983340125,72.0,78.0
1365,276.8177787375,277.2844449375,58.0,67.0
1366,276.5219457,277.43722256250004,53.0,79.0
1367,277.1455561875,277.469166975,74.0,83.0
1368,277.474722525,278.0344441875,48.0,82.0
1369,277.80527775,278.152499625,55.0,78.0
1370,278.16083295,278.55388811250003,60.0,59.0
1371,277.485833625,278.93583217500003,75.0,80.0
1372,277.48305585,278.94972105,67.0,75.0
1373,279.1649986125,279.441387225,67.0,76.0
1374,278.81638785,279.46499831250003,63.0,80.0
1375,278.4997215,279.50110938750004,62.0,80.0
1376,279.48305385000003,279.819164625,72.0,76.0
1377,279.8330535,280.102497675,74.0,84.0
1378,280.1316643125,281.0899966875,72.0,6.0
1379,280.152497625,281.0955522375,67.0,71.0
1380,280.169164275,281.1261077625,60.0,52.0
1381,280.1455531875,281.1552744,75.0,83.0
1382,280.14971985,281.163607725,48.0,77.0
