,start,end,pitch,velocity
0,45.11430004583333,45.432118760416664,74.0,114.0
1,45.433448545833336,45.75126726041667,74.0,114.0
2,45.75259704583333,46.070415760416665,74.0,114.0
3,46.07174554583333,46.38956426041667,74.0,114.0
4,46.390894045833335,46.70871276041667,74.0,113.0
5,46.71004254583333,47.029191045833336,74.0,114.0
6,47.029191045833336,47.34833954583333,71.0,110.0
7,47.34833954583333,50.219346260416664,76.0,119.0
8,50.220676045833336,50.53849476041667,76.0,113.0
9,50.53982454583333,50.857643260416665,76.0,110.0
10,50.85897304583333,51.17679176041667,76.0,108.0
11,51.178121545833335,51.49727004583333,76.0,108.0
12,51.49727004583333,51.815088760416664,74.0,113.0
13,51.816418545833336,52.135567045833334,74.0,113.0
14,52.135567045833334,52.29514129583333,71.0,107.0
15,52.29514129583333,55.327052045833334,74.0,94.0
16,55.327052045833334,55.64620054583333,69.0,89.0
17,55.64620054583333,55.98928518333333,71.0,100.0
18,55.965349045833335,56.28449754583333,74.0,110.0
19,56.28449754583333,56.60364604583333,78.0,113.0
20,56.60364604583333,56.922794545833334,76.0,107.0
21,56.922794545833334,57.24194304583333,74.0,107.0
22,57.24194304583333,57.561091545833335,71.0,108.0
23,57.561091545833335,60.432098260416666,76.0,114.0
24,60.43342804583333,60.75124676041666,76.0,89.0
25,60.752576545833335,61.07039526041667,76.0,110.0
26,61.07172504583333,61.389543760416664,76.0,108.0
27,61.39087354583333,61.710022045833334,76.0,108.0
28,61.710022045833334,62.02917054583333,74.0,110.0
29,62.02917054583333,62.348319045833335,71.0,104.0
30,62.348319045833335,62.66746754583333,76.0,108.0
31,62.66746754583333,65.53847426041666,74.0,114.0
32,65.53980404583334,65.85762276041666,74.0,110.0
33,65.85895254583333,66.17810104583333,74.0,113.0
34,66.17810104583333,66.49724954583333,71.0,87.0
35,66.49724954583333,66.81639804583334,74.0,114.0
36,66.81639804583334,67.13554654583334,71.0,104.0
37,67.13554654583334,67.45469504583333,74.0,114.0
38,67.45469504583333,67.77251376041667,76.0,113.0
39,67.77384354583333,70.64485026041666,76.0,114.0
40,70.64618004583333,70.96399876041667,76.0,107.0
41,70.96532854583333,71.28447704583333,76.0,108.0
42,71.28447704583333,71.60362554583334,78.0,109.0
43,71.60362554583334,71.92277404583334,83.0,113.0
44,71.92277404583334,72.24192254583333,81.0,114.0
45,72.24192254583333,72.56107104583333,83.0,108.0
46,72.56107104583333,72.88021954583333,76.0,94.0
47,72.88021954583333,75.75255604583333,78.0,114.0
48,75.75255604583333,76.07037476041667,81.0,93.0
49,76.07170454583333,76.38952326041667,81.0,107.0
50,76.39085304583334,76.70867176041666,81.0,110.0
51,76.71000154583334,77.02915004583333,81.0,110.0
52,77.02915004583333,77.34829854583333,78.0,113.0
53,77.34829854583333,77.66744704583333,76.0,108.0
54,77.66744704583333,77.98659554583334,74.0,113.0
55,77.98659554583334,78.94404104583333,76.0,114.0
56,78.94404104583333,79.26318954583333,71.0,113.0
57,79.26318954583333,79.58233804583334,76.0,114.0
58,79.58233804583334,79.90148654583334,74.0,113.0
59,79.90148654583334,80.22063504583333,71.0,110.0
60,80.22063504583333,80.85760226041667,76.0,119.0
61,80.85893204583333,81.17675076041667,76.0,114.0
62,81.17808054583334,81.49589926041666,76.0,113.0
63,81.49722904583334,81.81504776041666,76.0,110.0
64,81.81637754583333,82.13552604583333,76.0,114.0
65,82.13552604583333,82.45467454583333,74.0,113.0
66,82.45467454583333,82.77382304583334,71.0,114.0
67,82.77382304583334,83.09297154583334,76.0,113.0
68,83.09297154583334,85.96397826041667,74.0,116.0
69,85.96530804583334,86.28312676041666,74.0,113.0
70,86.28445654583334,86.60227526041666,74.0,113.0
71,86.60360504583333,86.92142376041667,74.0,107.0
72,86.92275354583333,87.24057226041667,74.0,113.0
73,87.24190204583333,87.56105054583334,74.0,113.0
74,87.56105054583334,87.88019904583334,83.0,119.0
75,87.88019904583334,88.19934754583333,81.0,116.0
76,88.19934754583333,91.07035426041666,83.0,120.0
77,91.07168404583334,91.70998104583333,83.0,116.0
78,91.70998104583333,92.02912954583333,85.0,116.0
79,92.02912954583333,92.34827804583334,86.0,113.0
80,92.34827804583334,92.66742654583334,85.0,116.0
81,92.66742654583334,92.98657504583333,83.0,116.0
82,92.98657504583333,93.30572354583333,81.0,110.0
83,93.30572354583333,94.26316904583334,78.0,117.0
84,94.26316904583334,94.58231754583333,76.0,114.0
85,94.58231754583333,95.22061454583333,74.0,117.0
86,95.22061454583333,95.53976304583334,76.0,114.0
87,95.53976304583334,96.17673026041666,78.0,116.0
88,96.17806004583333,97.13550554583334,78.0,116.0
89,97.13550554583334,97.45465404583334,83.0,117.0
90,97.45465404583334,97.77380254583333,81.0,113.0
91,97.77380254583333,98.09295104583333,76.0,108.0
92,98.09295104583333,98.41209954583333,74.0,114.0
93,98.41209954583333,99.68869354583333,76.0,114.0
94,99.68869354583333,100.00651226041667,83.0,114.0
95,100.00784204583333,100.32699054583334,81.0,107.0
96,100.00784204583333,100.32699054583334,83.0,86.0
97,100.32699054583334,100.64613904583334,76.0,116.0
98,100.64613904583334,100.96528754583333,74.0,108.0
99,100.96528754583333,101.92273304583334,76.0,113.0
100,101.92273304583334,102.24188154583334,69.0,114.0
101,102.24188154583334,102.56103004583333,83.0,114.0
102,102.56103004583333,102.88017854583333,81.0,116.0
103,102.88017854583333,103.19932704583333,83.0,113.0
104,103.19932704583333,103.83762404583334,76.0,116.0
105,103.83762404583334,106.39081204583333,78.0,119.0
106,106.39081204583333,106.70863076041667,74.0,113.0
107,106.70996054583333,107.02777926041666,74.0,113.0
108,107.02910904583334,107.34825754583333,74.0,107.0
109,107.34825754583333,107.66740604583333,76.0,113.0
110,107.66740604583333,107.98655454583333,74.0,113.0
111,107.98655454583333,108.30570304583333,81.0,119.0
112,108.30570304583333,108.62352176041666,83.0,116.0
113,108.62485154583334,111.49585826041667,83.0,120.0
114,111.49718804583333,111.81500676041667,83.0,116.0
115,111.81633654583334,112.13415526041666,83.0,116.0
116,112.13548504583333,112.45330376041666,83.0,116.0
117,112.45463354583333,112.77378204583333,83.0,110.0
118,112.77378204583333,113.09160076041667,81.0,113.0
119,113.09293054583333,113.41340883125,81.0,114.0
120,113.41207904583334,113.73122754583333,78.0,113.0
121,113.73122754583333,114.68867304583333,81.0,107.0
122,114.68867304583333,115.00782154583334,78.0,116.0
123,115.00782154583334,115.32697004583333,76.0,113.0
124,115.32697004583333,115.96526704583333,81.0,117.0
125,115.96526704583333,117.56100954583333,78.0,119.0
126,117.56100954583333,117.88015804583333,83.0,117.0
127,117.88015804583333,118.19930654583334,81.0,108.0
128,118.19930654583334,118.51845504583333,78.0,116.0
129,118.51845504583333,118.83760354583333,74.0,116.0
130,118.83760354583333,120.11419754583333,76.0,119.0
131,120.11419754583333,120.4546226125,83.0,116.0
132,120.43334604583333,120.75914347291666,81.0,114.0
133,120.75249454583333,121.07164304583333,78.0,106.0
134,121.07164304583333,121.70994004583333,81.0,113.0
135,121.70994004583333,122.66605576041667,76.0,110.0
136,122.66738554583333,123.00382125624999,76.0,114.0
137,122.98653404583334,123.30568254583333,74.0,110.0
138,123.30568254583333,123.62483104583333,71.0,108.0
139,123.62483104583333,126.49716754583334,74.0,116.0
140,147.24182004583332,147.55963876041668,74.0,110.0
141,147.56096854583333,147.88011704583334,74.0,113.0
142,147.88011704583334,148.19926554583333,71.0,87.0
143,148.19926554583333,148.51841404583334,74.0,114.0
144,148.51841404583334,148.83756254583332,71.0,104.0
145,148.83756254583332,149.15671104583333,74.0,114.0
146,149.15671104583333,149.47452976041666,76.0,113.0
147,149.47585954583334,152.34686626041668,76.0,114.0
148,152.34819604583333,152.66601476041666,76.0,107.0
149,152.66734454583334,152.98649304583333,76.0,108.0
150,152.98649304583333,153.30564154583334,78.0,109.0
151,153.30564154583334,153.62479004583332,83.0,113.0
152,153.62479004583332,153.94393854583333,81.0,114.0
153,153.94393854583333,154.26308704583334,83.0,108.0
154,154.26308704583334,154.58223554583333,76.0,94.0
155,154.58223554583333,157.45457204583334,78.0,114.0
156,157.45457204583334,157.77239076041667,81.0,93.0
157,157.77372054583333,158.09153926041665,81.0,107.0
158,158.09286904583334,158.41068776041666,81.0,110.0
159,158.41201754583332,158.73116604583333,81.0,110.0
160,158.73116604583333,159.05031454583334,78.0,113.0
161,159.05031454583334,159.36946304583333,76.0,108.0
162,159.36946304583333,159.68861154583334,74.0,113.0
163,159.68861154583334,160.64605704583335,76.0,114.0
164,160.64605704583335,160.96520554583333,71.0,113.0
165,160.96520554583333,161.28435404583334,76.0,114.0
166,161.28435404583334,161.60350254583332,74.0,113.0
167,161.60350254583332,161.92265104583333,71.0,110.0
168,161.92265104583333,162.55961826041667,76.0,119.0
169,162.56094804583333,162.87876676041665,76.0,114.0
170,162.88009654583334,163.19791526041666,76.0,113.0
171,163.19924504583332,163.51706376041668,76.0,110.0
172,163.51839354583333,163.83754204583335,76.0,114.0
173,163.83754204583335,164.15669054583333,74.0,113.0
174,164.15669054583333,164.47583904583334,71.0,114.0
175,164.47583904583334,164.79498754583332,76.0,113.0
176,164.79498754583332,167.34817554583333,74.0,116.0
177,167.66732404583334,167.98514276041666,74.0,113.0
178,167.98647254583332,168.30429126041668,74.0,113.0
179,168.30562104583333,168.62343976041666,74.0,107.0
180,168.62476954583335,168.94258826041667,74.0,113.0
181,168.94391804583333,169.26306654583334,74.0,113.0
182,169.26306654583334,169.58221504583332,83.0,119.0
183,169.58221504583332,169.90136354583333,86.0,116.0
184,169.90136354583333,172.77237026041666,83.0,120.0
185,172.77370004583332,173.41199704583335,83.0,116.0
186,173.41199704583335,173.73114554583333,85.0,116.0
187,173.73114554583333,174.05029404583334,86.0,113.0
188,174.05029404583334,174.36944254583332,85.0,116.0
189,174.36944254583332,174.68859104583333,83.0,116.0
190,174.68859104583333,175.00773954583335,81.0,110.0
191,175.00773954583335,175.96518504583332,78.0,117.0
192,175.96518504583332,176.28433354583333,76.0,114.0
193,176.28433354583333,176.92263054583333,74.0,117.0
194,176.92263054583333,177.24177904583334,76.0,114.0
195,177.24177904583334,177.87874626041668,78.0,116.0
196,177.88007604583333,178.83752154583334,78.0,116.0
197,178.83752154583334,179.15667004583332,83.0,117.0
198,179.15667004583332,179.47581854583333,81.0,113.0
199,179.47581854583333,179.79496704583335,76.0,108.0
200,179.79496704583335,180.11411554583333,74.0,114.0
201,180.11411554583333,181.39070954583335,76.0,114.0
202,181.39070954583335,181.70852826041667,83.0,114.0
203,181.70985804583333,182.02900654583334,81.0,107.0
204,181.70985804583333,182.02900654583334,83.0,86.0
205,182.02900654583334,182.34815504583332,76.0,116.0
206,182.34815504583332,182.66730354583333,74.0,108.0
207,182.66730354583333,183.62474904583334,76.0,113.0
208,183.62474904583334,183.94389754583332,69.0,114.0
209,183.94389754583332,184.26304604583333,83.0,114.0
210,184.26304604583333,184.58219454583335,81.0,116.0
211,184.58219454583335,184.90134304583333,83.0,113.0
212,184.90134304583333,185.53964004583332,76.0,116.0
213,185.53964004583332,188.09282804583333,78.0,119.0
214,188.09282804583333,188.41064676041665,74.0,113.0
215,188.41197654583334,188.72979526041667,74.0,113.0
216,188.73112504583332,189.05027354583333,74.0,107.0
217,189.05027354583333,189.36942204583335,76.0,113.0
218,189.36942204583335,189.68857054583333,74.0,113.0
219,189.68857054583333,190.00771904583334,81.0,119.0
220,190.00771904583334,190.32553776041667,83.0,116.0
221,190.32686754583332,193.19787426041665,83.0,120.0
222,193.19920404583334,193.51702276041667,83.0,116.0
223,193.51835254583332,193.83617126041668,83.0,116.0
224,193.83750104583333,194.15531976041666,83.0,116.0
225,194.15664954583335,194.47579804583333,83.0,110.0
226,194.47579804583333,194.79361676041665,81.0,113.0
227,194.79494654583334,195.11542483125,81.0,114.0
228,195.11409504583332,195.43324354583334,78.0,113.0
229,195.43324354583334,196.39068904583334,81.0,107.0
230,196.39068904583334,196.70983754583332,78.0,116.0
231,196.70983754583332,197.02898604583334,76.0,113.0
232,197.02898604583334,197.66728304583333,78.0,117.0
233,197.66728304583333,198.30558004583332,81.0,119.0
234,198.30558004583332,199.26302554583333,78.0,119.0
235,199.26302554583333,199.58217404583334,83.0,117.0
236,199.58217404583334,199.90132254583332,81.0,108.0
237,199.90132254583332,200.22047104583334,78.0,116.0
238,200.22047104583334,200.53961954583332,74.0,116.0
239,200.53961954583332,201.49706504583332,76.0,119.0
240,201.49706504583332,201.81621354583334,71.0,119.0
241,201.81621354583334,202.1566386125,83.0,116.0
242,202.13536204583332,202.46115947291668,81.0,114.0
243,202.45451054583333,202.77365904583334,78.0,106.0
244,202.77365904583334,203.41195604583334,81.0,113.0
245,203.41195604583334,204.05025304583333,76.0,110.0
246,204.05025304583333,204.38668875625,69.0,114.0
247,204.36940154583334,204.70583725625,78.0,114.0
248,204.68855004583332,205.32684704583332,76.0,104.0
249,205.32684704583332,205.96514404583334,78.0,106.0
250,205.96514404583334,206.28429254583332,76.0,104.0
251,206.28429254583332,206.60344104583334,74.0,110.0
252,206.60344104583334,206.92258954583332,71.0,102.0
253,206.92258954583332,209.15662904583334,74.0,104.0
254,209.15662904583334,209.31620329583333,76.0,96.0
255,209.31620329583333,209.47577754583332,74.0,88.0
256,209.47577754583332,209.79359626041668,78.0,103.0
257,209.79492604583334,210.11274476041666,78.0,102.0
258,210.11407454583332,210.43322304583333,78.0,100.0
259,210.43322304583333,210.75237154583334,76.0,107.0
260,210.75237154583334,210.94386064583333,78.0,106.0
261,210.91194579583333,211.07152004583332,76.0,98.0
262,211.07152004583332,214.26300504583332,78.0,89.0
263,214.26300504583332,214.58215354583334,71.0,102.0
264,214.58215354583334,214.90130204583332,78.0,109.0
265,214.90130204583332,215.22045054583333,76.0,102.0
266,215.22045054583333,215.53959904583334,78.0,103.0
267,215.53959904583334,215.86140711666667,79.0,96.0
268,215.85874754583332,216.01832179583334,78.0,106.0
269,216.01832179583334,219.36938104583334,76.0,104.0
270,219.36938104583334,219.68852954583332,74.0,107.0
271,219.68852954583332,220.00767804583333,76.0,100.0
272,220.00767804583333,220.32682654583334,74.0,100.0
273,220.32682654583334,220.64597504583332,76.0,107.0
274,220.64597504583332,220.96379376041668,78.0,100.0
275,220.96512354583334,221.28427204583332,78.0,100.0
276,221.28427204583332,221.80155857291666,76.0,100.0
277,223.83746004583332,224.15527876041668,74.0,113.0
278,224.15660854583334,224.47442726041666,74.0,113.0
279,224.47575704583332,224.79357576041667,74.0,107.0
280,224.79490554583333,225.11272426041666,74.0,113.0
281,225.11405404583334,225.43320254583332,74.0,113.0
282,225.43320254583332,225.75235104583334,83.0,119.0
283,225.75235104583334,226.07149954583332,81.0,116.0
284,226.07149954583332,228.94250626041668,83.0,120.0
285,228.94383604583334,229.58213304583333,83.0,116.0
286,229.58213304583333,229.90128154583334,85.0,116.0
287,229.90128154583334,230.22043004583333,86.0,113.0
288,230.22043004583333,230.53957854583334,85.0,116.0
289,230.53957854583334,230.85872704583332,83.0,116.0
290,230.85872704583332,231.17787554583333,81.0,110.0
291,231.17787554583333,232.13532104583334,78.0,117.0
292,232.13532104583334,232.45446954583332,76.0,114.0
293,232.45446954583332,233.09276654583334,74.0,117.0
294,233.09276654583334,233.41191504583333,76.0,114.0
295,233.41191504583333,234.04888226041666,78.0,116.0
296,234.05021204583332,235.00765754583333,78.0,116.0
297,235.00765754583333,235.32680604583334,83.0,117.0
298,235.32680604583334,235.64595454583332,81.0,113.0
299,235.64595454583332,235.96510304583333,76.0,108.0
300,235.96510304583333,236.28425154583334,74.0,114.0
301,236.28425154583334,237.56084554583333,76.0,114.0
302,237.56084554583333,237.87866426041666,83.0,114.0
303,237.87999404583334,238.19914254583333,81.0,107.0
304,237.87999404583334,238.19914254583333,83.0,86.0
305,238.19914254583333,238.51829104583334,76.0,116.0
306,238.51829104583334,238.83743954583332,74.0,108.0
307,238.83743954583332,239.79488504583333,76.0,113.0
308,239.79488504583333,240.11403354583334,69.0,114.0
309,240.11403354583334,240.43318204583332,83.0,114.0
310,240.43318204583332,240.75233054583333,81.0,116.0
311,240.75233054583333,241.07147904583334,83.0,113.0
312,241.07147904583334,241.70977604583334,76.0,116.0
313,241.70977604583334,244.26296404583334,78.0,119.0
314,244.26296404583334,244.58078276041667,74.0,113.0
315,244.58211254583333,244.89993126041668,74.0,113.0
316,244.90126104583334,245.22040954583332,74.0,107.0
317,245.22040954583332,245.53955804583333,76.0,113.0
318,245.53955804583333,245.85870654583334,74.0,113.0
319,245.85870654583334,246.17785504583333,81.0,119.0
320,246.17785504583333,246.49567376041668,83.0,116.0
321,246.49700354583334,249.36801026041667,83.0,120.0
322,249.36934004583333,249.68715876041668,83.0,116.0
323,249.68848854583334,250.00630726041666,83.0,116.0
324,250.00763704583332,250.32545576041667,83.0,116.0
325,250.32678554583333,250.64593404583334,83.0,110.0
326,250.64593404583334,250.96375276041667,81.0,113.0
327,250.96508254583333,251.28556083125,81.0,114.0
328,251.28423104583334,251.60337954583332,78.0,113.0
329,251.60337954583332,252.56082504583333,81.0,107.0
330,252.56082504583333,252.87997354583334,78.0,116.0
331,252.87997354583334,253.19912204583332,76.0,113.0
332,253.19912204583332,253.83741904583334,81.0,117.0
333,253.83741904583334,255.43316154583334,78.0,119.0
334,255.43316154583334,255.75231004583333,83.0,117.0
335,255.75231004583333,256.0714585458333,81.0,108.0
336,256.0714585458333,256.39060704583335,78.0,116.0
337,256.39060704583335,256.70975554583333,74.0,116.0
338,256.70975554583333,257.9863495458333,76.0,119.0
339,257.9863495458333,258.3267746125,83.0,116.0
340,258.30549804583336,258.6312954729167,81.0,114.0
341,258.62464654583334,258.9437950458333,78.0,106.0
342,258.9437950458333,259.58209204583335,81.0,113.0
343,259.58209204583335,260.53820776041664,76.0,110.0
344,260.53953754583335,260.87597325625,76.0,114.0
345,260.85868604583334,261.20974939583334,74.0,104.0
346,261.1778345458333,261.53022768125,71.0,106.0
347,261.4969830458333,265.6459135458333,74.0,104.0
348,265.6459135458333,265.96506204583335,76.0,114.0
349,265.96506204583335,266.28421054583333,74.0,102.0
350,266.28421054583333,266.6033590458333,71.0,94.0
351,266.6033590458333,269.47569554583333,74.0,113.0
352,273.30547754583336,273.62462604583334,78.0,113.0
353,273.62462604583334,273.94244476041666,76.0,104.0
354,273.9437745458333,274.2629230458333,76.0,104.0
355,274.2629230458333,274.58207154583334,78.0,100.0
356,274.58207154583334,277.1352595458333,74.0,98.0
357,280.96504154583334,281.2841900458333,76.0,96.0
358,281.2841900458333,281.6033385458333,74.0,89.0
359,281.6033385458333,281.92248704583335,71.0,92.0
360,281.92248704583335,284.7948235458333,74.0,100.0
