,start,end,pitch,velocity
0,14.476044045833333,14.90822430625,57.0,84.0
1,14.795192545833332,15.1834898875,66.0,87.0
2,15.114341045833333,15.527904310416666,57.0,78.0
3,15.433489545833334,15.944127145833333,69.0,100.0
4,15.752638045833333,16.12896731875,57.0,81.0
5,14.156895545833333,16.47870088333333,50.0,88.0
6,16.390935045833334,16.800508954166666,57.0,84.0
7,16.071786545833334,16.9547640625,66.0,89.0
8,17.029232045833332,17.432157027083335,59.0,77.0
9,17.348380545833333,17.7526353125,67.0,93.0
10,17.667529045833334,18.049177460416665,59.0,83.0
11,17.986677545833334,18.573112914583334,71.0,88.0
12,16.710083545833335,18.87364441875,52.0,89.0
13,18.30582604583333,18.874974204166666,59.0,84.0
14,18.624974545833332,18.89758055625,42.0,79.0
15,18.944123045833333,19.283218327083333,43.0,85.0
16,18.624974545833332,19.299175752083332,67.0,87.0
17,18.944123045833333,19.30316510833333,64.0,82.0
18,19.582420045833334,19.952100391666665,57.0,79.0
19,19.90156854583333,20.256621252083335,61.0,86.0
20,20.220717045833332,20.610344172916665,57.0,79.0
21,20.539865545833333,21.204758254166666,64.0,90.0
22,19.263271545833334,21.381619714583334,45.0,90.0
23,20.859014045833334,21.448108985416667,52.0,73.0
24,21.49731104583333,21.69810864375,57.0,82.0
25,21.178162545833334,21.74598091875,61.0,83.0
26,22.135608045833333,22.636937147916665,57.0,78.0
27,22.454756545833334,22.856351741666668,66.0,87.0
28,22.773905045833335,23.160872602083334,57.0,84.0
29,23.09305354583333,23.537201875,69.0,104.0
30,23.412202045833332,23.79651003125,57.0,86.0
31,23.731350545833333,24.062467114583335,66.0,85.0
32,21.816459545833332,24.1834775875,50.0,86.0
33,24.050499045833334,24.381615614583332,64.0,88.0
34,24.68879604583333,25.07310403125,57.0,81.0
35,25.007944545833332,25.370975964583334,66.0,86.0
36,25.327093045833333,25.722039314583334,57.0,83.0
37,25.646241545833334,26.091719660416665,69.0,96.0
38,25.965390045833335,26.51592120833333,57.0,85.0
39,24.369647545833335,26.5531552,50.0,87.0
40,26.284538545833332,26.926824902083332,66.0,90.0
41,27.241984045833334,27.654217525,59.0,81.0
42,27.561132545833335,27.944110745833335,67.0,87.0
43,27.880281045833332,28.2845358125,59.0,81.0
44,28.199429545833333,28.676822510416667,71.0,87.0
45,28.518578045833333,28.873630752083333,59.0,83.0
46,26.922835545833333,28.944109379166665,52.0,86.0
47,29.156875045833335,29.48533204375,44.0,83.0
48,28.837726545833334,29.511927752083334,67.0,91.0
49,30.114320545833333,30.599692222916666,61.0,86.0
50,29.795172045833333,30.752617545833335,52.0,80.0
51,30.752617545833335,31.083734114583333,61.0,64.0
52,30.752617545833335,31.11298939375,69.0,88.0
53,29.476023545833332,31.582403645833335,45.0,78.0
54,31.071766045833332,31.666180127083333,52.0,82.0
55,31.390914545833333,31.694105620833334,64.0,83.0
56,31.710063045833333,32.07043489375,66.0,83.0
57,32.34836004583333,32.765912666666665,57.0,80.0
58,32.667508545833336,33.037188891666666,69.0,81.0
59,32.98665704583333,33.368305460416664,57.0,82.0
60,33.30580554583333,33.654209325,64.0,85.0
61,33.624954045833334,33.98532589375,57.0,85.0
62,32.029211545833334,34.34569774166667,50.0,86.0
63,34.263251045833336,34.6515483875,57.0,86.0
64,33.94410254583333,34.90287783125,66.0,100.0
65,34.90154804583333,35.29383474375,57.0,83.0
66,35.220696545833334,35.707398008333335,69.0,88.0
67,35.53984504583333,35.95074873958333,57.0,86.0
68,35.858993545833336,36.28186530833333,66.0,88.0
69,34.58239954583333,36.7579284875,50.0,88.0
70,36.49729054583333,36.843034754166666,64.0,86.0
71,36.17814204583333,37.1488854,57.0,88.0
72,36.816439045833334,37.17016196666667,66.0,84.0
73,37.454736045833336,37.866969525,59.0,83.0
74,37.77388454583333,38.152873389583334,67.0,94.0
75,38.09303304583333,38.46936231875,59.0,83.0
76,38.412181545833334,38.78053210625,71.0,100.0
77,38.73133004583333,39.073084897916665,59.0,84.0
78,37.13558754583333,39.15686137916666,52.0,86.0
79,39.36962704583333,39.6781372625,43.0,88.0
80,39.050478545833336,39.76989245625,67.0,98.0
81,40.32707254583333,40.581061560416664,64.0,86.0
82,40.96536954583333,41.05446516875,61.0,76.0
83,40.96536954583333,41.591698477083334,69.0,89.0
84,39.68877554583333,41.81776199791667,45.0,88.0
85,41.603666545833335,41.93212354375,64.0,86.0
86,41.92281504583333,42.26058054166667,61.0,83.0
87,42.56111204583333,42.966696597916666,57.0,71.0
88,42.88026054583333,43.39089814583333,66.0,83.0
89,43.199409045833335,43.59435531458333,57.0,74.0
90,43.51855754583333,43.92946123958333,69.0,87.0
91,43.837706045833336,44.1781311125,57.0,81.0
92,42.241963545833336,44.51988596458333,50.0,87.0
93,44.47600304583333,44.86563017291667,57.0,73.0
94,44.15685454583333,44.8962152375,66.0,84.0
95,45.11430004583333,45.502597387499996,57.0,77.0
96,45.433448545833336,45.8297246,66.0,86.0
97,45.75259704583333,46.14754331458333,57.0,78.0
98,46.07174554583333,46.5557874375,69.0,92.0
99,44.795151545833335,47.027861260416664,50.0,87.0
100,46.71004254583333,47.360307614583334,66.0,86.0
101,47.029191045833336,47.362967185416665,64.0,81.0
102,46.390894045833335,47.3696161125,57.0,81.0
103,47.66748804583333,48.04381731875,59.0,83.0
104,47.986636545833335,48.42413594791667,67.0,91.0
105,48.30578504583333,48.69541217291667,59.0,82.0
106,48.624933545833336,49.06243294791667,71.0,96.0
107,48.94408204583333,49.31243260625,59.0,84.0
108,47.34833954583333,49.69408102083333,52.0,82.0
109,49.26323054583333,49.998601881249996,67.0,86.0
110,50.220676045833336,50.610303172916666,52.0,75.0
111,50.53982454583333,51.18610025833333,61.0,83.0
112,50.85897304583333,51.24062146041667,52.0,81.0
113,51.178121545833335,51.807110047916666,69.0,92.0
114,51.49727004583333,51.8696099625,52.0,83.0
115,49.90152754583333,52.179449964583334,45.0,86.0
116,52.135567045833334,52.365619922916665,52.0,78.0
117,51.816418545833336,52.66482164166667,64.0,86.0
118,52.773864045833335,53.1701401,57.0,76.0
119,53.09301254583333,53.6408841375,66.0,88.0
120,53.41216104583334,53.81508602708333,57.0,78.0
121,53.731309545833334,54.28848963541667,69.0,98.0
122,54.05045804583333,54.39487246875,57.0,84.0
123,52.45471554583333,54.756574102083334,50.0,92.0
124,54.68875504583333,55.05444603541667,57.0,81.0
125,54.369606545833335,55.199392645833335,64.0,85.0
126,55.327052045833334,55.70471110416667,57.0,82.0
127,55.64620054583333,56.06907230833333,66.0,91.0
128,55.965349045833335,56.36561445625,57.0,84.0
129,56.28449754583333,56.87625205625,69.0,107.0
130,55.00790354583334,57.249921758333336,50.0,84.0
131,57.24194304583333,57.57970854166667,62.0,84.0
132,56.922794545833334,57.58635746875,66.0,103.0
133,56.60364604583333,57.604974464583336,57.0,84.0
134,57.88024004583333,58.27518631458333,59.0,86.0
135,58.19938854583333,58.79779198333333,71.0,107.0
136,58.518537045833334,58.932100310416665,59.0,86.0
137,58.83768554583333,59.4493868375,67.0,93.0
138,59.156834045833335,59.5451313875,59.0,84.0
139,59.79513104583333,59.888216025,59.0,83.0
140,57.561091545833335,59.922790445833336,52.0,83.0
141,59.47598254583333,60.143534824999996,64.0,88.0
142,60.43342804583333,60.807097747916664,52.0,79.0
143,60.752576545833335,61.43874582083333,61.0,85.0
144,61.07172504583333,61.44938410416667,52.0,73.0
145,61.39087354583333,61.908160072916665,69.0,89.0
146,61.710022045833334,62.07305346458333,52.0,86.0
147,62.02917054583333,62.34698926041666,64.0,87.0
148,60.114279545833334,62.402840247916664,45.0,87.0
149,62.348319045833335,62.66613776041667,61.0,74.0
150,62.98661604583333,63.36959424583333,57.0,83.0
151,63.305764545833334,63.90416798333333,66.0,89.0
152,63.62491304583333,64.03315716875,57.0,86.0
153,63.944061545833335,64.43342257916666,69.0,94.0
154,64.26321004583333,64.58900747291666,57.0,86.0
155,62.66746754583333,64.94007082291667,50.0,86.0
156,64.58235854583333,65.24060232708334,64.0,84.0
157,64.90150704583333,65.34565537499999,57.0,80.0
158,65.53980404583334,65.92145246041666,57.0,74.0
159,65.85895254583333,66.47198362291667,69.0,86.0
160,66.17810104583333,66.57703667083334,57.0,82.0
161,66.49724954583333,66.89618517083333,66.0,84.0
162,67.13554654583334,67.49591839375,62.0,84.0
163,65.22065554583334,67.53714174166667,50.0,88.0
164,66.81639804583334,67.5717161625,57.0,80.0
165,67.45469504583333,67.8908646625,66.0,86.0
166,68.09299204583333,68.51586380833334,59.0,80.0
167,68.41214054583334,69.05176733125,67.0,88.0
168,68.73128904583334,69.10628853333333,59.0,80.0
169,69.05043754583333,69.58634106875,71.0,88.0
170,69.36958604583333,69.72862810833334,59.0,76.0
171,67.77384354583333,69.81772373125,52.0,87.0
172,70.00788304583334,70.32703154583334,43.0,88.0
173,69.68873454583333,70.35495703958334,67.0,91.0
174,70.64618004583333,71.0424561,52.0,81.0
175,71.28447704583333,71.63819996666666,52.0,84.0
176,71.60362554583334,72.04245473333333,69.0,91.0
177,70.96532854583333,72.06639087083333,61.0,83.0
178,71.92277404583334,72.25123104375,52.0,83.0
179,70.32703154583334,72.66612409375,45.0,85.0
180,72.56107104583333,72.78447499583334,52.0,76.0
181,72.24192254583333,73.0131980875,64.0,88.0
182,73.19936804583334,73.61027173958334,57.0,82.0
183,73.51851654583334,74.07702642083333,66.0,86.0
184,73.83766504583333,74.17277097083333,57.0,86.0
185,74.15681354583333,74.81505732708334,69.0,92.0
186,74.47596204583333,74.8163871125,57.0,86.0
187,72.88021954583333,75.18872702916667,50.0,86.0
188,75.11425904583334,75.47995003541666,57.0,84.0
189,74.79511054583334,75.74723690416667,66.0,97.0
190,75.75255604583333,76.16345973958333,57.0,84.0
191,76.07170454583333,76.6834058375,69.0,91.0
192,76.39085304583334,76.78180995833333,57.0,85.0
193,76.71000154583334,77.11957545416666,66.0,86.0
194,77.02915004583333,77.55042592916666,57.0,86.0
195,75.43340754583333,77.65946833333334,50.0,87.0
196,77.34829854583333,77.92409563125,62.0,87.0
197,77.66744704583333,77.93872327083334,66.0,89.0
198,78.30574404583334,79.07037066041667,55.0,84.0
199,78.62489254583333,79.32834903125,60.0,76.0
200,78.94404104583333,79.48127435416667,67.0,93.0
201,79.26318954583333,79.94536946458334,55.0,88.0
202,77.98659554583334,79.97994388541666,48.0,90.0
203,80.22063504583333,80.5291452625,43.0,96.0
204,79.90148654583334,80.6887195125,60.0,88.0
205,79.58233804583334,80.70334715208334,64.0,89.0
206,80.85893204583333,81.29776123333333,52.0,81.0
207,81.17808054583334,81.58100552708333,69.0,81.0
208,81.17808054583334,81.82435625833334,61.0,86.0
209,81.49722904583334,81.89882424166666,52.0,86.0
210,81.81637754583333,82.32568536041667,64.0,88.0
211,80.53978354583333,82.74190819583333,45.0,89.0
212,82.13552604583333,82.78978047083334,52.0,84.0
213,82.45467454583333,82.81903575,61.0,86.0
214,82.77382304583334,83.4014817625,64.0,87.0
215,83.41212004583333,83.8163748125,57.0,84.0
216,83.73126854583333,84.34429962291667,66.0,88.0
217,84.05041704583333,84.45600159791667,57.0,87.0
218,84.36956554583334,84.95866048541667,69.0,98.0
219,84.68871404583334,85.12754323333333,57.0,88.0
220,83.09297154583334,85.42408538125,50.0,88.0
221,85.32701104583333,85.56371285,66.0,83.0
222,85.00786254583333,85.6195638375,64.0,87.0
223,85.96530804583334,86.52115835,57.0,81.0
224,86.28445654583334,86.73525380208334,62.0,82.0
225,86.60360504583333,86.95732796666667,57.0,85.0
226,86.92275354583333,87.58897603958333,69.0,107.0
227,87.24190204583333,87.81636934583334,57.0,87.0
228,85.64615954583333,87.8216884875,50.0,88.0
229,87.56105054583334,88.17541140833333,66.0,106.0
230,87.88019904583334,88.28578359791666,62.0,94.0
231,88.51849604583333,88.98791029791667,55.0,81.0
232,89.15679304583334,89.61157965833333,55.0,78.0
233,89.47594154583334,89.91743030416667,62.0,89.0
234,88.83764454583333,89.9280685875,67.0,104.0
235,88.19934754583333,90.52514223958333,43.0,93.0
236,89.79509004583333,90.71264198333333,55.0,84.0
237,90.11423854583333,91.04774790833333,59.0,88.0
238,90.43338704583333,91.17939666458334,62.0,86.0
239,91.07168404583334,91.6993427625,55.0,84.0
240,91.39083254583333,91.80173623958333,59.0,76.0
241,91.70998104583333,92.16742722916666,62.0,91.0
242,92.02912954583333,92.40013967708333,55.0,93.0
243,92.66742654583334,92.95333041041667,55.0,87.0
244,92.34827804583334,92.96928783541667,67.0,104.0
245,90.75253554583334,92.98923461666666,43.0,86.0
246,92.98657504583333,93.16476629166667,62.0,88.0
247,93.62487204583333,94.01183960208333,57.0,72.0
248,93.94402054583334,94.58630690208334,69.0,88.0
249,94.26316904583334,94.5956154,57.0,81.0
250,94.58231754583333,94.94534896458333,66.0,84.0
251,94.90146604583333,95.2578485375,57.0,81.0
252,93.30572354583333,95.67540115833333,50.0,88.0
253,95.22061454583333,95.96529437916666,62.0,87.0
254,95.53976304583334,96.24454931666666,66.0,87.0
255,96.17806004583333,96.79906983541666,57.0,84.0
256,96.49720854583333,96.93736751875,62.0,80.0
257,96.81635704583333,97.2126331,66.0,83.0
258,97.13550554583334,97.89348323333333,69.0,91.0
259,97.45465404583334,98.0025256375,57.0,86.0
260,95.85891154583334,98.026461775,50.0,85.0
261,97.77380254583333,98.38417405208334,66.0,100.0
262,98.09295104583333,98.42672718541667,62.0,87.0
263,98.73124804583334,99.39614075416667,59.0,80.0
264,99.05039654583334,99.41342796458333,64.0,82.0
265,99.36954504583333,99.88949114374999,67.0,91.0
266,100.00784204583333,100.35225646875,64.0,90.0
267,99.68869354583333,100.451990375,59.0,87.0
268,98.41209954583333,100.49986265,52.0,89.0
269,100.32699054583334,100.69800067708333,67.0,94.0
270,100.64613904583334,101.05438316875,71.0,91.0
271,101.28443604583333,101.72592480416667,52.0,80.0
272,101.60358454583333,102.16874334791666,69.0,91.0
273,101.92273304583334,102.36954094583334,52.0,86.0
274,102.24188154583334,102.8535828375,64.0,91.0
275,100.96528754583333,103.13682713125,45.0,87.0
276,102.56103004583333,103.16874198125,52.0,87.0
277,102.88017854583333,103.47991176875,61.0,86.0
278,103.19932704583333,103.81368790833334,64.0,87.0
279,103.83762404583334,104.2259213875,57.0,83.0
280,104.15677254583333,104.65012293541666,66.0,91.0
281,104.47592104583333,104.85358010416667,57.0,88.0
282,104.79506954583333,105.22857959166667,64.0,102.0
283,105.43336654583334,105.81634474583333,62.0,94.0
284,103.51847554583333,105.877514875,50.0,88.0
285,105.11421804583333,106.100918825,57.0,91.0
286,105.75251504583333,106.11288689375,64.0,93.0
287,106.07166354583333,106.515811875,66.0,106.0
288,106.70996054583333,106.95065170625,62.0,100.0
289,106.39081204583333,107.1301727375,57.0,89.0
290,107.02910904583334,107.49985308333333,66.0,119.0
291,107.66740604583333,107.91740570416667,62.0,114.0
292,107.98655454583333,108.01979918125,62.0,68.0
293,107.34825754583333,108.09559695,57.0,113.0
294,106.07166354583333,108.15809686458333,50.0,90.0
295,107.98655454583333,108.25384141458333,66.0,119.0
296,108.14612879583333,108.56368141666667,69.0,113.0
297,108.94400004583333,109.356233525,50.0,86.0
298,109.26314854583333,109.96394546041667,67.0,113.0
299,109.58229704583333,110.02910494583334,50.0,88.0
300,109.90144554583333,110.47990220208334,62.0,107.0
301,110.53974254583333,110.90144417916666,59.0,100.0
302,108.62485154583334,110.94000795625,43.0,102.0
303,110.22059404583334,111.16607147708334,50.0,88.0
304,110.85889104583333,111.51181568541666,62.0,108.0
305,111.33761379583333,111.76181534375,50.0,87.0
306,111.65676229583333,112.27777208541667,67.0,110.0
307,111.97591079583333,112.4120804125,50.0,87.0
308,112.29505929583333,112.75117569375,62.0,96.0
309,111.17803954583333,113.28043028958334,43.0,90.0
310,112.77378204583333,113.3615472,50.0,89.0
311,113.09293054583333,113.47058960416666,59.0,104.0
312,113.41207904583334,113.760482825,62.0,94.0
313,114.36952454583333,114.59558806666666,62.0,91.0
314,114.05037604583333,114.70330068541666,57.0,86.0
315,114.68867304583333,115.22723613958333,69.0,110.0
316,115.00782154583334,115.39877845833334,57.0,91.0
317,115.16739579583333,115.59691648541667,66.0,106.0
318,113.73122754583333,116.02776696041667,50.0,91.0
319,115.64611854583333,116.34292610416666,57.0,93.0
320,115.96526704583333,116.76579786666666,62.0,94.0
321,116.60356404583334,117.04904216041666,57.0,88.0
322,116.92271254583333,117.38946722708333,66.0,109.0
323,117.24186104583333,117.65941366666667,57.0,88.0
324,117.56100954583333,118.16340233958333,69.0,113.0
325,116.28441554583333,118.51446568958333,50.0,92.0
326,118.19930654583334,118.8269652625,66.0,109.0
327,117.88015804583333,118.82829504791667,57.0,100.0
328,118.51845504583333,118.87217796666667,62.0,104.0
329,119.47590054583333,119.82696389583333,64.0,93.0
330,119.79504904583334,120.06632527083333,67.0,108.0
331,119.15675204583333,120.15409110833333,59.0,87.0
332,120.11419754583333,120.93600493333334,71.0,113.0
333,120.43334604583333,120.94531343125,59.0,102.0
334,118.83760354583333,121.00249420416667,52.0,87.0
335,120.75249454583333,121.08627068541666,67.0,108.0
336,121.07164304583333,121.60754656875,64.0,102.0
337,121.70994004583333,122.1620670875,52.0,87.0
338,122.02908854583333,122.68600254166667,61.0,93.0
339,122.34823704583333,122.79371516041667,52.0,87.0
340,122.66738554583333,123.22589542083334,69.0,94.0
341,122.98653404583334,123.65940546666667,52.0,88.0
342,121.39079154583334,123.66738417916666,45.0,92.0
343,123.30568254583333,123.9014264125,64.0,88.0
344,123.62483104583333,123.973234825,61.0,89.0
345,124.26312804583333,124.64610624583334,57.0,79.0
346,124.58227654583334,125.16339277291667,66.0,89.0
347,124.90142504583334,125.26578625,57.0,84.0
348,125.22057354583333,125.8003599875,69.0,94.0
349,125.85887054583333,126.21259346666666,64.0,86.0
350,123.94397954583333,126.23918917499999,50.0,88.0
351,126.01844479583333,126.38014642916667,66.0,86.0
352,125.53972204583333,126.53174196666667,57.0,83.0
353,126.49716754583334,127.17003896666667,62.0,87.0
354,126.81631604583333,127.24982609166666,57.0,78.0
355,127.13546454583333,127.56764480625,66.0,84.0
356,127.45461304583333,127.86285716875,57.0,82.0
357,127.77376154583334,128.41870747291668,69.0,93.0
358,126.49716754583334,128.78838781875,50.0,84.0
359,128.09291004583332,128.80168567291668,57.0,86.0
360,128.73120704583334,129.02641940833334,62.0,85.0
361,128.41205854583333,129.05168533125,66.0,88.0
362,129.36950404583334,129.76445031458334,59.0,79.0
363,129.68865254583332,130.34157718541667,71.0,108.0
364,130.00780104583333,130.39875795833333,59.0,82.0
365,130.32694954583334,130.91604448541668,67.0,88.0
366,130.64609804583333,131.05966131041666,59.0,87.0
367,129.05035554583333,131.28705461666667,52.0,89.0
368,130.96524654583334,131.313650325,64.0,93.0
369,131.28439504583332,131.69130938333333,67.0,88.0
370,131.92269204583334,132.33359573958333,52.0,82.0
371,132.24184054583333,132.88944604375,69.0,91.0
372,132.56098904583334,132.97987145208333,52.0,86.0
373,132.88013754583332,133.24981789166665,64.0,90.0
374,131.60354354583333,133.82960433333332,45.0,86.0
375,133.19928604583333,133.84556175833333,52.0,87.0
376,133.51843454583334,133.87880639375,61.0,91.0
377,133.83758304583333,134.36018871458333,64.0,90.0
378,134.47588004583332,134.88279438333333,57.0,84.0
379,134.79502854583333,135.38678305625,66.0,103.0
380,135.11417704583334,135.48784674791668,57.0,86.0
381,135.43332554583333,136.0450268375,69.0,110.0
382,136.07162254583332,136.4439624625,64.0,93.0
383,134.15673154583334,136.53438787083334,50.0,88.0
384,135.75247404583334,136.71124933125,57.0,87.0
385,136.39077104583333,137.17933379791666,66.0,103.0
386,137.34821654583334,137.59555663333333,64.0,88.0
387,137.66736504583332,137.95592848125,66.0,103.0
388,137.02906804583333,138.08890702291666,57.0,87.0
389,137.98651354583333,138.64209775625,69.0,114.0
390,136.70991954583334,138.9173633375,50.0,89.0
391,138.62481054583333,139.25512883333334,66.0,103.0
392,138.30566204583334,139.26576711666667,57.0,91.0
393,139.90140454583334,140.24581896875,67.0,89.0
394,139.58225604583333,140.36018051458333,55.0,78.0
395,140.22055304583333,140.79369056041668,64.0,89.0
396,140.85885004583332,141.32560472708334,60.0,86.0
397,140.53970154583334,141.35087065,55.0,88.0
398,139.26310754583332,141.40539185208334,48.0,94.0
399,141.49714704583334,141.6301255875,43.0,83.0
400,141.17799854583333,141.98517829375,64.0,88.0
401,141.49714704583334,142.07560370208333,67.0,89.0
402,142.29501829583333,142.52507117291665,61.0,84.0
403,142.45459254583332,142.79102825625,64.0,91.0
404,142.77374104583333,143.45991032083333,61.0,82.0
405,143.41203804583333,143.76443118125,64.0,85.0
406,141.81629554583333,143.89475015208333,45.0,91.0
407,143.73118654583334,144.16868594791666,61.0,88.0
408,143.09288954583334,144.33357933958334,69.0,88.0
409,144.05033504583332,144.42533453333334,64.0,87.0
410,145.00778054583333,145.37214175,62.0,85.0
411,145.64607754583332,145.69660939166667,62.0,76.0
412,145.32692904583334,145.70325831875,66.0,85.0
413,144.68863204583334,145.72985402708332,57.0,83.0
414,145.64607754583332,146.32027875208334,69.0,110.0
415,146.28437454583334,146.6407570375,64.0,98.0
416,145.96522604583333,146.69261866875,57.0,91.0
417,144.36948354583333,146.69793781041668,50.0,88.0
418,146.60352304583333,147.09953300625,66.0,88.0
419,147.24182004583332,147.62346846041666,57.0,74.0
420,147.56096854583333,148.17399962291665,69.0,86.0
421,147.88011704583334,148.27905267083332,57.0,82.0
422,148.19926554583333,148.59820117083333,66.0,84.0
423,148.83756254583332,149.19793439375,62.0,84.0
424,146.92267154583334,149.23915774166667,50.0,88.0
425,148.51841404583334,149.2737321625,57.0,80.0
426,149.15671104583333,149.5928806625,66.0,86.0
427,149.79500804583333,150.21787980833332,59.0,80.0
428,150.11415654583334,150.75378333125,67.0,88.0
429,150.43330504583332,150.80830453333334,59.0,80.0
430,150.75245354583333,151.28835706875,71.0,88.0
431,151.07160204583334,151.43064410833333,59.0,76.0
432,149.47585954583334,151.51973973125,52.0,87.0
433,151.70989904583334,152.02904754583332,43.0,88.0
434,151.39075054583333,152.05697303958334,67.0,91.0
435,152.34819604583333,152.7444721,52.0,81.0
436,152.98649304583333,153.34021596666668,52.0,84.0
437,153.30564154583334,153.74447073333334,69.0,91.0
438,152.66734454583334,153.76840687083333,61.0,83.0
439,153.62479004583332,153.95324704375,52.0,83.0
440,152.02904754583332,154.36814009375,45.0,85.0
441,154.26308704583334,154.48649099583332,52.0,76.0
442,153.94393854583333,154.7152140875,64.0,88.0
443,154.90138404583334,155.31228773958333,57.0,82.0
444,155.22053254583332,155.77904242083332,66.0,86.0
445,155.53968104583333,155.87478697083333,57.0,86.0
446,155.85882954583334,156.51707332708332,69.0,92.0
447,156.17797804583333,156.5184031125,57.0,86.0
448,154.58223554583333,156.89074302916666,50.0,86.0
449,156.81627504583332,157.18196603541668,57.0,84.0
450,156.49712654583334,157.44925290416666,66.0,97.0
451,157.45457204583334,157.86547573958333,57.0,84.0
452,157.77372054583333,158.3854218375,69.0,91.0
453,158.09286904583334,158.48382595833334,57.0,85.0
454,158.41201754583332,158.82159145416668,66.0,86.0
455,158.73116604583333,159.25244192916668,57.0,86.0
456,157.13542354583333,159.36148433333332,50.0,87.0
457,159.05031454583334,159.62611163125,62.0,87.0
458,159.36946304583333,159.64073927083334,66.0,89.0
459,160.00776004583332,160.77238666041666,55.0,84.0
460,160.32690854583333,161.03036503125,60.0,76.0
461,160.64605704583335,161.18329035416667,67.0,93.0
462,160.96520554583333,161.64738546458332,55.0,88.0
463,159.68861154583334,161.68195988541666,48.0,90.0
464,161.92265104583333,162.2311612625,43.0,96.0
465,161.60350254583332,162.3907355125,60.0,88.0
466,161.28435404583334,162.40536315208334,64.0,89.0
467,162.56094804583333,162.99977723333333,52.0,81.0
468,162.88009654583334,163.28302152708332,69.0,81.0
469,162.88009654583334,163.52637225833334,61.0,86.0
470,163.19924504583332,163.60084024166667,52.0,86.0
471,163.51839354583333,164.02770136041667,64.0,88.0
472,162.24179954583335,164.44392419583332,45.0,89.0
473,163.83754204583335,164.49179647083332,52.0,84.0
474,164.15669054583333,164.52105175,61.0,86.0
475,164.47583904583334,165.1034977625,64.0,87.0
476,165.11413604583333,165.5183908125,57.0,84.0
477,165.43328454583335,166.04631562291667,66.0,88.0
478,165.75243304583333,166.15801759791665,57.0,87.0
479,166.07158154583334,166.66067648541667,69.0,98.0
480,166.39073004583332,166.82955923333333,57.0,88.0
481,164.79498754583332,167.12610138125,50.0,88.0
482,167.02902704583335,167.26572885,66.0,83.0
483,166.70987854583333,167.3215798375,64.0,87.0
484,167.66732404583334,168.22317435,57.0,81.0
485,167.98647254583332,168.43726980208334,62.0,82.0
486,168.30562104583333,168.65934396666665,57.0,85.0
487,168.62476954583335,169.29099203958333,69.0,107.0
488,168.94391804583333,169.51838534583334,57.0,87.0
489,167.34817554583333,169.5237044875,50.0,88.0
490,169.26306654583334,169.87742740833332,66.0,106.0
491,169.58221504583332,169.98779959791668,62.0,94.0
492,170.22051204583335,170.68992629791666,55.0,81.0
493,170.85880904583334,171.31359565833333,55.0,78.0
494,171.17795754583332,171.61944630416667,62.0,89.0
495,170.53966054583333,171.6300845875,67.0,104.0
496,169.90136354583333,172.22715823958333,43.0,93.0
497,171.49710604583333,172.41465798333334,55.0,84.0
498,171.81625454583335,172.74976390833334,59.0,88.0
499,172.13540304583333,172.88141266458334,62.0,86.0
500,172.77370004583332,173.4013587625,55.0,84.0
501,173.09284854583333,173.50375223958332,59.0,76.0
502,173.41199704583335,173.86944322916668,62.0,91.0
503,173.73114554583333,174.10215567708335,55.0,93.0
504,174.36944254583332,174.65534641041666,55.0,87.0
505,174.05029404583334,174.67130383541667,67.0,104.0
506,172.45455154583334,174.69125061666668,43.0,86.0
507,174.68859104583333,174.86678229166665,62.0,88.0
508,175.32688804583333,175.71385560208333,57.0,72.0
509,175.64603654583334,176.28832290208334,69.0,88.0
510,175.96518504583332,176.2976314,57.0,81.0
511,176.28433354583333,176.64736496458335,66.0,84.0
512,176.60348204583335,176.9598645375,57.0,81.0
513,175.00773954583335,177.37741715833334,50.0,88.0
514,176.92263054583333,177.66731037916668,62.0,87.0
515,177.24177904583334,177.94656531666666,66.0,87.0
516,177.88007604583333,178.50108583541666,57.0,84.0
517,178.19922454583335,178.63938351875,62.0,80.0
518,178.51837304583333,178.9146491,66.0,83.0
519,178.83752154583334,179.59549923333333,69.0,91.0
520,179.15667004583332,179.7045416375,57.0,86.0
521,177.56092754583332,179.728477775,50.0,85.0
522,179.47581854583333,180.08619005208334,66.0,100.0
523,179.79496704583335,180.12874318541665,62.0,87.0
524,180.43326404583334,181.09815675416667,59.0,80.0
525,180.75241254583332,181.11544396458333,64.0,82.0
526,181.07156104583333,181.59150714375,67.0,91.0
527,181.70985804583333,182.05427246874999,64.0,90.0
528,181.39070954583335,182.154006375,59.0,87.0
529,180.11411554583333,182.20187865,52.0,89.0
530,182.02900654583334,182.40001667708333,67.0,94.0
531,182.34815504583332,182.75639916875,71.0,91.0
532,182.98645204583335,183.42794080416667,52.0,80.0
533,183.30560054583333,183.87075934791667,69.0,91.0
534,183.62474904583334,184.07155694583332,52.0,86.0
535,183.94389754583332,184.55559883749999,64.0,91.0
536,182.66730354583333,184.83884313125,45.0,87.0
537,184.26304604583333,184.87075798125,52.0,87.0
538,184.58219454583335,185.18192776875,61.0,86.0
539,184.90134304583333,185.51570390833334,64.0,87.0
540,185.53964004583332,185.9279373875,57.0,83.0
541,185.85878854583333,186.35213893541666,66.0,91.0
542,186.17793704583335,186.55559610416665,57.0,88.0
543,186.49708554583333,186.93059559166667,64.0,102.0
544,187.13538254583332,187.51836074583332,62.0,94.0
545,185.22049154583334,187.579530875,50.0,88.0
546,186.81623404583334,187.802934825,57.0,91.0
547,187.45453104583333,187.81490289375,64.0,93.0
548,187.77367954583335,188.217827875,66.0,106.0
549,188.41197654583334,188.65266770624999,62.0,100.0
550,188.09282804583333,188.8321887375,57.0,89.0
551,188.73112504583332,189.20186908333332,66.0,119.0
552,189.36942204583335,189.61942170416665,62.0,114.0
553,189.68857054583333,189.72181518125,62.0,68.0
554,189.05027354583333,189.79761295,57.0,113.0
555,187.77367954583335,189.86011286458333,50.0,90.0
556,189.68857054583333,189.95585741458333,66.0,119.0
557,189.84814479583332,190.26569741666665,69.0,113.0
558,190.64601604583333,191.058249525,50.0,86.0
559,190.96516454583335,191.66596146041667,67.0,113.0
560,191.28431304583333,191.73112094583334,50.0,88.0
561,191.60346154583334,192.18191820208332,62.0,107.0
562,192.24175854583333,192.60346017916666,59.0,100.0
563,190.32686754583332,192.64202395625,43.0,102.0
564,191.92261004583332,192.86808747708332,50.0,88.0
565,192.56090704583335,193.21383168541666,62.0,108.0
566,193.19920404583334,193.46383134375,50.0,87.0
567,193.51835254583332,193.97978808541666,67.0,110.0
568,193.83750104583333,194.1140964125,50.0,87.0
569,194.15664954583335,194.45319169375,62.0,96.0
570,192.88005554583333,194.98244628958332,43.0,90.0
571,194.47579804583333,195.0635632,50.0,89.0
572,194.79494654583334,195.17260560416668,59.0,104.0
573,195.11409504583332,195.462498825,62.0,94.0
574,196.07154054583333,196.29760406666668,62.0,91.0
575,195.75239204583335,196.40531668541666,57.0,86.0
576,196.39068904583334,196.92925213958333,69.0,110.0
577,196.70983754583332,197.10079445833333,57.0,91.0
578,197.02898604583334,197.29893248541666,66.0,106.0
579,195.43324354583334,197.72978296041666,50.0,91.0
580,197.34813454583332,198.04494210416667,57.0,93.0
581,197.66728304583333,198.46781386666666,62.0,94.0
582,198.30558004583332,198.75105816041668,57.0,88.0
583,198.62472854583334,199.09148322708333,66.0,109.0
584,198.94387704583332,199.36142966666665,57.0,88.0
585,199.26302554583333,199.86541833958333,69.0,113.0
586,197.98643154583334,200.21648168958333,50.0,92.0
587,199.90132254583332,200.5289812625,66.0,109.0
588,199.58217404583334,200.53031104791665,57.0,100.0
589,200.22047104583334,200.57419396666666,62.0,104.0
590,201.17791654583334,201.52897989583334,64.0,93.0
591,201.49706504583332,201.76834127083333,67.0,108.0
592,200.85876804583333,201.85610710833333,59.0,87.0
593,201.81621354583334,202.63802093333334,71.0,113.0
594,202.13536204583332,202.64732943125,59.0,102.0
595,200.53961954583332,202.70451020416667,52.0,87.0
596,202.45451054583333,202.78828668541667,67.0,108.0
597,202.77365904583334,203.30956256875,64.0,102.0
598,203.41195604583334,203.8640830875,52.0,87.0
599,203.73110454583332,204.38801854166667,61.0,93.0
600,204.05025304583333,204.49573116041665,52.0,87.0
601,204.36940154583334,204.92791142083334,69.0,94.0
602,204.68855004583332,205.36142146666666,52.0,88.0
603,203.09280754583332,205.36940017916666,45.0,92.0
604,205.00769854583334,205.6034424125,64.0,88.0
605,205.32684704583332,205.675250825,61.0,89.0
606,205.96514404583334,206.34812224583334,57.0,79.0
607,206.28429254583332,206.86540877291665,66.0,89.0
608,206.60344104583334,206.96780225,57.0,84.0
609,206.92258954583332,207.5023759875,69.0,94.0
610,207.56088654583334,207.91460946666666,64.0,86.0
611,205.64599554583333,207.941205175,50.0,88.0
612,207.24173804583333,208.23375796666667,57.0,83.0
613,207.88003504583332,208.24173667916668,66.0,86.0
614,208.51833204583332,209.20716089166666,62.0,83.0
615,208.83748054583333,209.23242681458333,69.0,88.0
616,209.15662904583334,209.54226681666665,57.0,70.0
617,209.47577754583332,209.93056415833334,66.0,83.0
618,208.19918354583334,210.40263798125,50.0,86.0
619,209.79492604583334,210.44253154375,57.0,75.0
620,210.11407454583332,210.73508433541667,62.0,82.0
621,210.43322304583333,210.75237154583334,66.0,83.0
622,211.07152004583332,211.50237052083332,57.0,80.0
623,211.39066854583334,212.00369962291666,69.0,90.0
624,211.70981704583332,212.1459866625,57.0,83.0
625,212.02896554583333,212.6087519875,66.0,103.0
626,212.66726254583332,212.98641104583334,62.0,88.0
627,210.75237154583334,213.143325725,50.0,89.0
628,212.34811404583334,213.33082546875,57.0,83.0
629,212.98641104583334,213.71247388333333,66.0,93.0
630,213.94385654583334,214.32683474583334,69.0,100.0
631,213.62470804583333,214.34279217083332,57.0,85.0
632,214.26300504583332,214.72975972708332,66.0,103.0
633,214.90130204583332,215.20848247708332,62.0,88.0
634,213.30555954583332,215.42789707083332,50.0,86.0
635,214.58215354583334,215.45316299375,57.0,87.0
636,215.22045054583333,215.54624797291666,66.0,106.0
637,215.53959904583334,215.98108780416666,69.0,94.0
638,216.49704454583332,216.84810789583332,67.0,89.0
639,216.17789604583334,217.16592661041668,55.0,84.0
640,216.81619304583333,217.61273451041666,64.0,94.0
641,217.77363854583334,218.12736146666666,60.0,87.0
642,217.45449004583332,218.16326567291665,55.0,87.0
643,215.85874754583332,218.19651030833333,48.0,87.0
644,218.09278704583332,218.46113760625,64.0,88.0
645,218.73108404583334,219.31618962916667,55.0,82.0
646,219.05023254583332,219.6300189875,60.0,69.0
647,219.36938104583334,219.7257635375,55.0,84.0
648,219.68852954583332,220.28161384166665,67.0,91.0
649,218.41193554583333,220.71113453125,48.0,85.0
650,220.00767804583333,220.78959187083333,55.0,82.0
651,220.32682654583334,221.13267650833333,64.0,84.0
652,220.64597504583332,221.21379341875,60.0,79.0
653,221.28427204583332,221.70714380833334,52.0,79.0
654,221.60342054583333,222.23639840416666,69.0,91.0
655,221.92256904583334,222.3826748,52.0,83.0
656,222.24171754583332,222.877354975,64.0,92.0
657,220.96512354583334,223.26565231666666,45.0,88.0
658,222.56086604583334,223.50102433541667,52.0,84.0
659,222.88001454583332,223.739055925,61.0,86.0
660,223.19916304583333,223.93187481041667,64.0,87.0
661,223.83746004583332,224.55820374166666,52.0,81.0
662,224.15660854583334,224.8002246875,61.0,95.0
663,224.47575704583332,224.96378829374999,64.0,108.0
664,225.11405404583334,225.40926640833334,61.0,113.0
665,223.51831154583334,225.51697902708332,45.0,96.0
666,224.79490554583333,225.58479808333334,52.0,113.0
667,225.43320254583332,225.70447877083333,64.0,94.0
668,225.75235104583334,226.09543568333333,69.0,91.0
669,226.39064804583333,226.802881525,50.0,82.0
670,227.02894504583332,227.5129869375,50.0,90.0
671,226.70979654583334,227.77894402083334,67.0,92.0
672,227.34809354583334,227.83479500833334,62.0,107.0
673,226.07149954583332,228.36537938958332,43.0,98.0
674,227.66724204583332,228.6379854,50.0,91.0
675,227.98639054583333,228.781602225,59.0,87.0
676,228.30553904583334,228.99835724791666,62.0,88.0
677,229.26298454583332,229.53426077083333,59.0,82.0
678,229.58213304583333,229.63000532083333,59.0,69.0
679,228.94383604583334,229.64862231666666,50.0,88.0
680,229.58213304583333,230.05287708333333,67.0,102.0
681,228.62468754583332,230.59675931875,43.0,90.0
682,230.22043004583333,230.61537631458333,59.0,88.0
683,229.90128154583334,230.632663525,50.0,100.0
684,230.85872704583332,231.01431193958334,59.0,86.0
685,230.53957854583334,231.11537563125,62.0,89.0
686,231.49702404583334,231.92521495,57.0,87.0
687,231.81617254583333,232.483724825,69.0,92.0
688,232.13532104583334,232.58212894583332,57.0,91.0
689,232.45446954583332,232.95579864791665,66.0,113.0
690,233.09276654583334,233.38930869375,62.0,87.0
691,231.17787554583333,233.54356380208333,50.0,100.0
692,232.77361804583333,233.71244655,57.0,88.0
693,233.41191504583333,234.27893513749999,66.0,95.0
694,234.36936054583333,234.5103178,62.0,76.0
695,234.05021204583332,235.17388072291666,57.0,88.0
696,235.00765754583333,235.44249737708333,66.0,103.0
697,234.68850904583334,235.45845480208334,69.0,107.0
698,235.64595454583332,235.707124675,69.0,79.0
699,235.32680604583334,235.962443475,57.0,92.0
700,235.64595454583332,236.01430510625,62.0,92.0
701,233.73106354583334,236.06350716666665,50.0,91.0
702,235.96510304583333,236.30419832708333,66.0,106.0
703,236.92254854583334,237.16988863333333,64.0,83.0
704,236.60340004583333,237.64462202708333,59.0,84.0
705,237.24169704583332,237.75233464583334,71.0,107.0
706,237.56084554583333,238.05818529166666,67.0,108.0
707,237.87999404583334,238.43717413541665,59.0,91.0
708,236.28425154583334,238.45446134583332,52.0,93.0
709,238.19914254583333,238.5874398875,64.0,102.0
710,238.51829104583334,238.83079061875,67.0,116.0
711,238.67786529583333,238.9385032375,64.0,54.0
712,239.15658804583333,239.89860830833334,52.0,88.0
713,239.47573654583334,240.18983131458333,69.0,91.0
714,239.79488504583333,240.23238444791667,64.0,94.0
715,240.43318204583332,240.88264951666667,61.0,88.0
716,238.83743954583332,241.03424505416666,45.0,94.0
717,240.11403354583334,241.05685140625,52.0,94.0
718,241.07147904583334,241.43185089375,69.0,89.0
719,240.75233054583333,241.52227630208333,64.0,91.0
720,242.02892454583332,242.30950926875,62.0,85.0
721,242.34807304583333,242.65924283333334,66.0,109.0
722,241.70977604583334,242.72972146041667,57.0,87.0
723,242.66722154583334,243.28690155,69.0,113.0
724,243.30551854583334,243.59408198124999,64.0,102.0
725,241.39062754583333,243.74301794791666,50.0,91.0
726,242.98637004583333,243.98237932291667,57.0,98.0
727,243.62466704583332,244.46110207291667,66.0,109.0
728,244.58211254583333,244.84009091666667,62.0,102.0
729,244.26296404583334,244.97705881458333,57.0,91.0
730,244.90126104583334,245.56615375416666,69.0,110.0
731,245.53955804583333,245.85737676041666,66.0,116.0
732,245.22040954583332,245.94115324166665,57.0,114.0
733,243.94381554583333,245.99700422916666,50.0,94.0
734,245.85870654583334,246.24035496041665,62.0,108.0
735,246.17785504583333,246.52093968333332,66.0,119.0
736,247.13530054583333,247.39194913125,59.0,89.0
737,246.81615204583332,247.61402329583333,50.0,90.0
738,247.45444904583334,248.13795875,67.0,114.0
739,248.09274604583334,248.38662862291667,62.0,108.0
740,246.49700354583334,248.79088338958334,43.0,104.0
741,248.41189454583332,248.79088338958334,59.0,94.0
742,247.77359754583333,249.04620218958334,50.0,114.0
743,248.73104304583333,249.47439309375,62.0,110.0
744,249.68848854583334,250.0767858875,59.0,92.0
745,249.36934004583333,250.44912580416667,50.0,89.0
746,250.00763704583332,250.74034881041666,67.0,114.0
747,250.32678554583333,250.81215722291665,62.0,116.0
748,249.05019154583334,251.16455035833334,43.0,93.0
749,250.64593404583334,251.24300769791665,50.0,104.0
750,250.96508254583333,251.473060575,59.0,108.0
751,251.28423104583334,251.65258160625,62.0,114.0
752,252.24167654583334,252.48901663333334,62.0,90.0
753,251.92252804583333,252.63529302916666,57.0,87.0
754,252.56082504583333,252.6459313125,62.0,78.0
755,252.56082504583333,253.2523134625,69.0,110.0
756,253.19912204583332,253.49300462291666,66.0,103.0
757,253.51827054583333,253.78156805833333,62.0,100.0
758,253.83741904583334,253.88396153541666,62.0,81.0
759,251.60337954583332,253.91720617083334,50.0,98.0
760,252.87997354583334,254.18981218125,57.0,114.0
761,253.83741904583334,254.57146059583334,69.0,107.0
762,254.79486454583332,254.99832171458334,62.0,91.0
763,254.47571604583334,255.621991075,57.0,89.0
764,255.11401304583333,255.87199073333332,69.0,108.0
765,255.43316154583334,255.89725665625,66.0,113.0
766,255.75231004583333,256.4690643854167,57.0,102.0
767,254.15656754583333,256.54486215416665,50.0,91.0
768,256.0714585458333,256.5847557166667,62.0,102.0
769,256.39060704583335,256.70443640416664,66.0,113.0
770,257.34805254583335,257.53023314791665,60.0,102.0
771,257.0289040458333,257.8161370125,55.0,87.0
772,257.66720104583334,258.26693426875,67.0,116.0
773,258.30549804583336,258.63528482916666,64.0,108.0
774,256.70975554583333,258.8533696375,48.0,102.0
775,257.9863495458333,258.8786355604167,55.0,92.0
776,258.62464654583334,258.9198589083333,60.0,96.0
777,258.9437950458333,259.36533702291666,64.0,110.0
778,259.90124054583333,260.61400552916666,61.0,90.0
779,259.58209204583335,260.6791650145833,52.0,88.0
780,260.53953754583335,261.01161136875,64.0,92.0
781,260.2203890458333,261.01161136875,69.0,92.0
782,259.2629435458333,261.30815351666666,45.0,94.0
783,260.85868604583334,261.4052278520833,52.0,88.0
784,261.1778345458333,261.8041634770833,61.0,91.0
785,261.4969830458333,261.9358122333333,69.0,88.0
786,262.4544285458333,263.1725126708333,62.0,82.0
787,262.1352800458333,263.19777859375,57.0,86.0
788,262.77357704583335,263.5022994541667,69.0,92.0
789,263.09272554583333,263.55815044166667,66.0,90.0
790,261.81613154583334,264.1525645229167,50.0,91.0
791,263.4118740458333,264.398574825,57.0,88.0
792,263.73102254583335,264.40921310833335,62.0,86.0
793,264.05017104583334,264.73102117916665,66.0,84.0
794,265.00761654583334,265.3772968916667,62.0,79.0
795,265.3267650458333,265.6991049625,66.0,88.0
796,264.6884680458333,265.79218994166666,57.0,86.0
797,265.6459135458333,266.42915715624997,69.0,98.0
798,264.3693195458333,266.61532711458335,50.0,87.0
799,265.96506204583335,266.9025607645833,57.0,84.0
800,266.6033590458333,266.9850074604167,62.0,85.0
801,266.28421054583333,267.00229467083335,66.0,83.0
802,267.8799530458333,268.24431425,69.0,78.0
803,267.24165604583334,268.3480375125,57.0,81.0
804,267.5608045458333,268.51160111875,62.0,75.0
805,268.19910154583334,268.71106893125,66.0,84.0
806,266.7629332958333,269.25362138125,50.0,88.0
807,268.5182500458333,269.50628061041664,57.0,72.0
808,268.8373985458333,269.76957812291664,62.0,72.0
809,269.15654704583335,270.03287563541664,66.0,84.0
810,270.11399254583336,270.82276817291665,62.0,76.0
811,270.43314104583334,271.0155870583333,69.0,80.0
812,270.7522895458333,271.09936353958335,66.0,84.0
813,271.0714380458333,271.5980330708333,62.0,66.0
814,271.39058654583334,271.70574568958335,66.0,82.0
815,269.47569554583333,271.76159667708333,50.0,80.0
816,269.7948440458333,271.8094689520833,57.0,69.0
817,271.7097350458333,272.2895214875,69.0,87.0
818,272.66718054583333,273.31212647291665,62.0,68.0
819,272.9863290458333,273.54217935,69.0,80.0
820,273.30547754583336,273.64191325625,66.0,82.0
821,273.62462604583334,274.10201901041665,62.0,76.0
822,272.0288835458333,274.3161144625,50.0,83.0
823,272.34803204583335,274.60999703958333,57.0,77.0
824,274.2629230458333,274.9158476854167,69.0,84.0
825,273.9437745458333,275.07010279375,66.0,80.0
826,274.9012200458333,275.9756866625,57.0,81.0
827,275.2203685458333,276.16052683541665,62.0,65.0
828,275.53951704583335,276.17914383125,69.0,76.0
829,275.85866554583333,276.42116477708333,66.0,79.0
830,276.1778140458333,276.91318538125,57.0,78.0
831,274.58207154583334,276.94510023125,50.0,82.0
832,276.49696254583336,277.387918775,62.0,76.0
833,276.81611104583334,277.5581313083333,66.0,83.0
834,277.4544080458333,278.51424702291666,57.0,81.0
835,278.0927050458333,278.70041698125,69.0,82.0
836,277.77355654583334,278.74297011458333,62.0,69.0
837,278.4118535458333,278.9903102020833,66.0,82.0
838,277.1352595458333,279.49030951875,50.0,82.0
839,278.73100204583335,279.6605220520833,57.0,48.0
840,279.05015054583333,279.93711741875,62.0,73.0
841,279.3692990458333,280.09004274166665,66.0,79.0
842,280.00759604583334,281.03153081666665,57.0,74.0
843,280.3267445458333,281.1153072979167,62.0,74.0
844,280.6458930458333,281.2336582,69.0,82.0
845,280.96504154583334,281.4331260125,66.0,81.0
846,281.2841900458333,282.02488052291665,57.0,46.0
847,279.68844754583336,282.0581251583333,50.0,76.0
848,281.6033385458333,282.34668859375,62.0,69.0
849,281.92248704583335,282.7004115145833,66.0,83.0
850,282.87993254583336,283.31743194791665,62.0,70.0
851,283.19908104583334,283.51689976041666,69.0,76.0
852,283.5182295458333,284.07939899166666,66.0,83.0
853,282.5607840458333,284.49961118333334,57.0,79.0
854,282.24163554583333,284.54615367291666,50.0,79.0
855,284.15652654583334,285.1046635479167,62.0,70.0
856,284.4756750458333,285.4065248375,66.0,80.0
857,285.7522690458333,286.0953536833333,69.0,81.0
858,285.11397204583335,286.1671620958333,57.0,72.0
859,285.43312054583333,286.43178939375,62.0,74.0
860,286.07141754583336,286.71636347291667,66.0,83.0
861,286.39056604583334,287.17380965625,57.0,70.0
862,284.7948235458333,287.23099042916664,50.0,75.0
863,286.7097145458333,287.26157549375,62.0,74.0
864,287.0288630458333,287.28817120208333,66.0,82.0
