,start,end,pitch,velocity
0,24.253329033333333,24.9077401,66.0,77.0
1,24.915093033333335,25.1283281,61.0,91.0
2,25.136631845833335,25.3866316625,66.0,69.0
3,25.395252345833335,25.6452521625,68.0,79.0
4,25.653872845833334,25.903872662500003,69.0,78.0
5,25.912493345833337,26.162493162500002,71.0,99.0
6,26.171113845833336,27.7142161625,73.0,90.0
7,27.722836845833335,28.231457162500003,73.0,103.0
8,28.240077845833333,29.0073186625,81.0,96.0
9,29.015939345833335,29.265939162500004,73.0,85.0
10,29.274912514583338,30.084003356250005,78.0,81.0
11,30.09309426458334,30.356730606250004,73.0,91.0
12,30.36525333333334,32.35692,76.0,91.0
13,32.365253333333335,33.10692,66.0,78.0
14,33.115253333333335,33.35692,61.0,92.0
15,33.365947777083335,33.63446626875,66.0,72.0
16,33.64372552708333,33.91224401875,68.0,92.0
17,33.92150327708333,34.19002176875,69.0,90.0
18,34.19928102708333,34.46779951875,71.0,96.0
19,34.476470258333336,35.99341769166667,73.0,86.0
20,36.001892258333335,36.50189169166667,76.0,96.0
21,36.510589277083334,37.291290602083336,71.0,82.0
22,37.300062527083334,37.554448352083334,73.0,79.0
23,37.56289133333333,38.304558,71.0,81.0
24,38.31289133333333,38.554558,64.0,54.0
25,38.56289133333333,40.7080834875,66.0,54.0
26,40.71643971458333,41.42278895625,66.0,77.0
27,41.43072546458333,41.66088420625,61.0,91.0
28,41.669333845833336,41.9193336625,66.0,69.0
29,41.927954345833335,42.1779541625,68.0,79.0
30,42.186574845833334,42.4365746625,69.0,78.0
31,42.44519534583333,42.6951951625,71.0,99.0
32,42.70381584583333,44.5055386625,73.0,90.0
33,44.514159345833335,44.7641591625,73.0,103.0
34,44.772779845833334,45.540020662500005,81.0,96.0
35,45.54864134583334,45.798641162500004,73.0,85.0
36,45.80726184583334,46.5745026625,78.0,81.0
37,46.583123345833336,46.8331231625,73.0,91.0
38,46.841743845833335,48.9020871625,76.0,91.0
39,48.910707845833336,49.6779486625,66.0,78.0
40,49.686569345833334,49.93656916250001,61.0,92.0
41,49.94518984583334,50.1951896625,66.0,72.0
42,50.20381034583333,50.453810162500005,68.0,92.0
43,50.46243084583334,50.712430662500005,69.0,90.0
44,50.72105134583334,50.971051162500004,71.0,96.0
45,50.97967184583334,52.5227741625,73.0,86.0
46,52.53139484583333,53.040015162500005,76.0,96.0
47,53.04863584583334,53.8158766625,71.0,82.0
48,53.824497345833336,54.0744971625,73.0,79.0
49,54.083117845833335,54.5917381625,71.0,81.0
50,54.600358845833334,54.8503586625,64.0,54.0
51,54.85897934583333,56.6607021625,66.0,54.0
52,56.669322845833335,56.9193226625,66.0,60.0
53,56.927943345833334,57.1779431625,69.0,82.0
54,57.186563845833334,57.6951841625,71.0,86.0
55,57.70380484583333,57.953804662500005,71.0,92.0
56,57.96242534583334,58.212425162500004,69.0,86.0
57,58.22104584583334,58.7296661625,66.0,94.0
58,58.738286845833336,58.9882866625,66.0,91.0
59,58.996907345833336,59.2469071625,69.0,78.0
60,59.255527845833335,59.76414816250001,71.0,76.0
61,59.77276884583334,60.0227686625,71.0,86.0
62,60.03138934583333,60.281389162500005,69.0,85.0
63,60.29000984583334,60.798630162500004,66.0,91.0
64,60.80725084583334,61.0572506625,69.0,96.0
65,61.06587134583334,61.3158711625,71.0,85.0
66,61.324491845833336,62.09173266250001,73.0,107.0
67,62.10035334583334,62.3503531625,76.0,85.0
68,62.35897384583333,62.8675941625,71.0,107.0
69,62.87621484583333,63.126214662500004,76.0,92.0
70,63.13483534583334,64.9365581625,73.0,99.0
71,64.94517884583334,65.1951786625,66.0,60.0
72,65.20379934583333,65.4537991625,69.0,82.0
73,65.46241984583334,65.9710401625,71.0,86.0
74,65.97966084583334,66.22966066250001,71.0,92.0
75,66.23828134583334,66.4882811625,69.0,86.0
76,66.49690184583334,67.0055221625,66.0,94.0
77,67.01414284583333,67.2641426625,66.0,91.0
78,67.27276334583334,67.5227631625,69.0,78.0
79,67.53138384583333,68.0400041625,71.0,76.0
80,68.04862484583333,68.2986246625,71.0,86.0
81,68.30724534583334,68.55724516250001,69.0,85.0
82,68.56586584583334,69.07448616250001,66.0,91.0
83,69.08310684583334,69.3331066625,69.0,96.0
84,69.34172734583333,69.5917271625,71.0,85.0
85,69.60034784583334,70.3675886625,73.0,107.0
86,70.37620934583333,70.6262091625,76.0,85.0
87,70.63482984583334,71.1434501625,71.0,107.0
88,71.15207084583334,71.4020706625,76.0,92.0
89,71.41069134583333,71.6606911625,73.0,99.0
90,71.66931184583333,73.7296551625,76.0,99.0
91,73.73827584583333,74.7641371625,78.0,94.0
92,74.77275784583334,75.0227576625,73.0,99.0
93,75.03137834583333,75.2813781625,78.0,99.0
94,75.28999884583334,75.53999866250001,73.0,113.0
95,75.54861934583334,77.3503421625,78.0,92.0
96,77.35896284583333,77.86758316250001,73.0,99.0
97,77.87620384583334,78.90206516250001,80.0,107.0
98,78.91068584583334,79.1606856625,73.0,65.0
99,79.16930634583333,79.4193061625,80.0,94.0
100,79.42792684583334,79.6779266625,73.0,99.0
101,79.68654734583333,81.4882701625,80.0,99.0
102,81.49689084583333,82.0055111625,73.0,103.0
103,82.01413184583333,82.7813726625,81.0,113.0
104,82.78999334583334,83.0399931625,81.0,97.0
105,83.04861384583333,83.2986136625,83.0,88.0
106,83.30723434583334,83.55723416250001,81.0,107.0
107,83.56585484583334,84.0744751625,78.0,96.0
108,84.08309584583333,84.5917161625,78.0,91.0
109,84.60033684583334,85.1089571625,76.0,91.0
110,85.11757784583334,85.6261981625,76.0,107.0
111,85.63481884583334,85.88481866250001,71.0,107.0
112,85.89343934583334,87.4365416625,73.0,107.0
113,87.44516234583334,87.6951621625,71.0,92.0
114,87.70378284583333,87.9537826625,69.0,92.0
115,87.96240334583334,88.21240316250001,71.0,78.0
116,88.22102384583334,90.2813671625,73.0,99.0
117,90.28998784583334,91.3158491625,78.0,65.0
118,91.32446984583333,91.57446966250001,73.0,90.0
119,91.58309034583334,91.83309016250001,78.0,94.0
120,91.84171084583335,92.0917106625,73.0,96.0
121,92.10033134583334,93.90205416250001,78.0,92.0
122,93.91067484583334,94.4192951625,73.0,117.0
123,94.42791584583334,95.4537771625,80.0,124.0
124,95.46239784583334,95.7123976625,73.0,92.0
125,95.72101834583333,95.9710181625,80.0,92.0
126,95.97963884583334,96.22963866250001,73.0,97.0
127,96.23825934583334,98.0399821625,80.0,106.0
128,98.04860284583333,98.55722316250001,73.0,91.0
129,98.56584384583334,99.3330846625,81.0,111.0
130,99.34170534583333,99.5917051625,81.0,101.0
131,99.60032584583334,100.1089461625,81.0,99.0
132,100.11756684583334,100.6261871625,78.0,72.0
133,100.63480784583334,101.1434281625,78.0,103.0
134,101.15204884583333,101.6606691625,76.0,92.0
135,101.66928984583333,101.9192896625,76.0,92.0
136,101.92791034583334,102.4365306625,73.0,92.0
137,102.44515134583334,102.6951511625,73.0,78.0
138,102.70377184583333,106.8330791625,78.0,50.0
139,118.73824284583334,118.9882426625,66.0,60.0
140,118.99686334583333,119.2468631625,69.0,82.0
141,119.25548384583334,119.7641041625,71.0,86.0
142,119.77272484583334,120.02272466250001,71.0,92.0
143,120.03134534583334,120.2813451625,69.0,86.0
144,120.28996584583334,120.7985861625,66.0,94.0
145,120.80720684583333,121.05720666250001,66.0,91.0
146,121.06582734583334,121.3158271625,69.0,78.0
147,121.32444784583333,121.83306816250001,71.0,76.0
148,121.84168884583333,122.0916886625,71.0,86.0
149,122.10030934583334,122.35030916250001,69.0,85.0
150,122.35892984583334,122.86755016250001,66.0,91.0
151,122.87617084583334,123.1261706625,69.0,96.0
152,123.13479134583334,123.38479116250001,71.0,85.0
153,123.39341184583334,124.1606526625,73.0,107.0
154,124.16927334583333,124.4192731625,76.0,85.0
155,124.42789384583334,124.9365141625,71.0,107.0
156,124.94513484583334,125.19513466250001,76.0,92.0
157,125.20375534583334,127.00547816250001,73.0,99.0
158,127.01409884583335,127.2640986625,66.0,60.0
159,127.27271934583334,127.52271916250001,69.0,82.0
160,127.53133984583334,128.0399601625,71.0,86.0
161,128.04858084583333,128.2985806625,71.0,92.0
162,128.30720134583333,128.5572011625,69.0,86.0
163,128.56582184583334,129.07444216250002,66.0,94.0
164,129.08306284583335,129.33306266250003,66.0,91.0
165,129.34168334583336,129.5916831625,69.0,78.0
166,129.60030384583334,130.1089241625,71.0,76.0
167,130.11754484583332,130.3675446625,71.0,86.0
168,130.37616534583333,130.6261651625,69.0,85.0
169,130.63478584583333,131.1434061625,66.0,91.0
170,131.15202684583335,131.40202666250002,69.0,96.0
171,131.41064734583335,131.66064716250003,71.0,85.0
172,131.66926784583336,132.4365086625,73.0,107.0
173,132.44512934583332,132.6951291625,76.0,85.0
174,132.70374984583333,133.2123701625,71.0,107.0
175,133.22099084583334,133.47099066250001,76.0,92.0
176,133.47961134583335,133.72961116250002,73.0,99.0
177,133.73823184583335,135.79857516250001,76.0,99.0
178,135.80719584583335,136.8330571625,78.0,94.0
179,136.84167784583335,137.0916776625,73.0,99.0
180,137.10029834583332,137.3502981625,78.0,99.0
181,137.35891884583333,137.6089186625,73.0,113.0
182,137.61753934583334,139.4192621625,78.0,92.0
183,139.42788284583332,139.9365031625,73.0,99.0
184,139.94512384583334,140.9709851625,80.0,107.0
185,140.97960584583333,141.2296056625,73.0,65.0
186,141.23822634583334,141.4882261625,80.0,94.0
187,141.49684684583335,141.7468466625,73.0,99.0
188,141.75546734583332,143.5571901625,80.0,99.0
189,143.56581084583334,144.0744311625,73.0,103.0
190,144.08305184583332,144.8502926625,81.0,113.0
191,144.85891334583334,145.10891316250002,81.0,97.0
192,145.11753384583335,145.36753366250002,83.0,88.0
193,145.37615434583336,145.6261541625,81.0,107.0
194,145.63477484583333,146.1433951625,78.0,96.0
195,146.15201584583332,146.6606361625,78.0,91.0
196,146.66925684583333,147.1778771625,76.0,91.0
197,147.18649784583334,147.69511816250002,76.0,107.0
198,147.70373884583336,147.9537386625,71.0,107.0
199,147.96235934583333,149.5054616625,73.0,107.0
200,149.51408234583334,149.76408216250002,71.0,92.0
201,149.77270284583335,150.02270266250002,69.0,92.0
202,150.03132334583336,150.2813231625,71.0,78.0
203,150.28994384583333,152.35028716250002,73.0,99.0
204,152.35890784583336,153.3847691625,78.0,65.0
205,153.39338984583333,153.6433896625,73.0,90.0
206,153.65201034583333,153.9020101625,78.0,94.0
207,153.91063084583334,154.1606306625,73.0,96.0
208,154.16925134583335,155.9709741625,78.0,92.0
209,155.97959484583333,156.4882151625,73.0,117.0
210,156.49683584583335,157.5226971625,80.0,124.0
211,157.53131784583334,157.7813176625,73.0,92.0
212,157.78993834583332,158.0399381625,80.0,92.0
213,158.04855884583333,158.2985586625,73.0,97.0
214,158.30717934583333,160.1089021625,80.0,106.0
215,160.11752284583332,160.6261431625,73.0,91.0
216,160.63476384583333,161.40200466250002,81.0,111.0
217,161.41062534583335,161.66062516250003,81.0,101.0
218,161.66924584583336,162.1778661625,81.0,99.0
219,162.18648684583334,162.6951071625,78.0,72.0
220,162.70372784583333,163.2123481625,78.0,103.0
221,163.22096884583334,163.72958916250002,76.0,92.0
222,163.73820984583335,163.98820966250003,76.0,92.0
223,163.99683034583336,164.5054506625,73.0,92.0
224,164.51407134583334,164.7640711625,73.0,78.0
225,168.39337884583335,168.9019991625,73.0,91.0
226,164.77269184583332,168.9019991625,78.0,50.0
227,168.91061984583334,169.6778606625,81.0,111.0
228,169.68648134583333,169.9364811625,81.0,101.0
229,169.94510184583334,170.07441209583334,93.0,99.0
230,170.07441209583334,170.46234284583335,81.0,99.0
231,170.46234284583335,170.9709631625,78.0,72.0
232,170.97958384583333,171.4882041625,78.0,103.0
233,171.49682484583334,172.0054451625,76.0,92.0
234,172.53130684583334,172.78130666250001,76.0,92.0
235,172.78992734583335,173.03992716250002,73.0,92.0
236,173.30716834583333,173.8157886625,73.0,92.0
237,173.82440934583335,174.07440916250002,73.0,78.0
238,174.08302984583335,178.2123371625,78.0,50.0
