,start,end,pitch,velocity
0,23.9547238125,24.219809825000002,65.0,92.0
1,24.213344312500002,24.338344220833335,70.0,92.0
2,24.4719648125,24.5689475,70.0,92.0
3,24.7305853125,24.838343854166666,70.0,92.0
4,24.9892058125,25.140067770833333,70.0,92.0
5,25.247826312500003,25.49782612916667,70.0,92.0
6,25.7650673125,25.946101662500002,65.0,92.0
7,26.0236878125,26.262911775000003,74.0,92.0
8,26.4374806125,26.920238879166668,72.0,92.0
9,28.6098928125,28.754289258333333,74.0,92.0
10,28.868513312500003,28.984892537500002,72.0,92.0
11,29.127133812500002,29.295237137500003,70.0,92.0
12,29.482737,29.609892079166666,70.0,92.0
13,29.9159263375,30.107736541666668,62.0,92.0
14,30.161615812500003,30.685322325,65.0,92.0
15,31.7133388125,31.821097354166668,74.0,93.0
16,31.9719593125,32.07325234166667,74.0,93.0
17,32.230579812500004,32.37066591666667,74.0,94.0
18,32.4892003125,33.50644094583333,67.0,94.0
19,33.5236823125,33.99781989583334,74.0,94.0
20,34.2995438125,34.476267820833336,72.0,95.0
21,34.558164312500004,35.23919829583333,70.0,95.0
22,35.5926463125,35.853421983333334,67.0,95.0
23,35.8512668125,36.1034218,70.0,95.0
24,36.1098873125,36.30816302916667,67.0,95.0
25,36.3685078125,36.685317925,74.0,95.0
26,36.6271283125,37.28445541666667,67.0,95.0
27,37.4029898125,37.57540347916667,70.0,95.0
28,37.6616103125,38.12281687083333,74.0,95.0
29,38.4374718125,39.86203973333333,72.0,95.0
30,40.2478153125,40.34695317083334,65.0,96.0
31,40.5064358125,40.65298742916667,65.0,96.0
32,40.7650563125,40.86634934166667,70.0,96.0
33,41.0236768125,41.11850432916667,70.0,96.0
34,41.2822973125,41.381435170833335,70.0,96.0
35,41.5409178125,41.6831590875,70.0,96.0
36,41.799538312500005,42.077555350000004,70.0,96.0
37,42.3297103375,42.52152054166667,67.0,96.0
38,42.5753998125,42.7952272375,74.0,96.0
39,42.8340203125,43.719795525,72.0,96.0
40,45.1616048125,45.31246677083333,79.0,97.0
41,45.4202253125,45.523673512500004,77.0,97.0
42,45.6788458125,45.853414650000005,77.0,97.0
43,45.9374663125,46.314621208333335,70.0,97.0
44,46.4547073125,46.668069225,77.0,97.0
45,46.971948312500004,47.9159131375,74.0,97.0
46,48.5236713125,48.67022292916667,74.0,97.0
47,48.7822918125,48.8986710375,79.0,97.0
48,49.040912312500005,49.159446708333334,79.0,97.0
49,49.299532812500004,49.41160169583333,77.0,97.0
50,49.5581533125,50.025825383333334,79.0,97.0
51,50.3340148125,50.51073882083333,79.0,98.0
52,50.5926353125,50.691773170833336,77.0,98.0
53,50.8512558125,50.976255720833336,77.0,99.0
54,51.1098763125,51.405134716666666,70.0,99.0
55,51.627117312500005,52.277978904166666,74.0,99.0
56,52.372806420833335,52.5322890625,74.0,99.0
57,52.624961408333334,52.74780614583334,77.0,99.0
58,52.9202198125,53.08616796666667,79.0,99.0
59,53.30599539166667,53.441771154166666,79.0,99.0
60,53.66590892083334,53.77151229166667,79.0,99.0
61,53.961167325000005,54.09478791666667,79.0,99.0
62,54.31892568333333,54.54737379166667,79.0,99.0
63,54.7305633125,55.131425087500006,79.0,99.0
64,55.295218070833336,57.15297532916667,77.0,100.0
65,58.0926298125,58.437457145833335,74.0,101.0
66,58.6098708125,58.91590507083333,79.0,101.0
67,59.127111812500004,59.29952547916667,79.0,101.0
68,59.385732312500004,59.607714908333335,77.0,101.0
69,59.9029733125,60.03659390416667,74.0,101.0
70,60.1615938125,60.693921008333334,77.0,101.0
71,60.9374553125,61.10124829583334,74.0,101.0
72,61.196075812500005,61.379265333333336,79.0,101.0
73,61.454696312500005,61.67883407916667,77.0,101.0
74,61.9719373125,62.11633375833333,74.0,101.0
75,62.2305578125,62.57107480416667,77.0,101.0
76,62.7477988125,62.91805730833334,77.0,101.0
77,63.0064193125,63.103402,82.0,101.0
78,63.2650398125,63.383574208333336,82.0,101.0
79,63.523660312500006,63.83616008333333,79.0,101.0
80,64.2995218125,64.60555607083333,79.0,101.0
81,64.8167628125,65.03874540833334,77.0,101.0
82,65.07538331250001,65.34477966666667,70.0,101.0
83,65.3340038125,66.67452007083334,74.0,101.0
84,66.85555442083334,67.0021060375,77.0,100.0
85,67.1055542375,67.19822658333334,82.0,100.0
86,67.40296781250001,67.590467675,82.0,100.0
87,67.78012270833334,67.95253637500001,79.0,100.0
88,68.18313965416667,68.28012234166667,79.0,100.0
89,68.44607049583334,68.59046694166668,79.0,100.0
90,68.82107022083333,68.987018375,79.0,100.0
91,69.17882857916666,69.30167331666667,79.0,100.0
92,69.4719318125,69.68098338333334,79.0,100.0
93,69.87710392916667,70.0150348625,77.0,100.0
94,70.23917262916667,70.38141390416666,74.0,100.0
95,70.512879325,70.72839640833334,77.0,100.0
96,70.7650343125,70.87710319583334,70.0,100.0
97,71.0236548125,71.17667194166667,70.0,100.0
98,71.2822753125,71.39434419583334,74.0,100.0
99,71.5408958125,71.75210255416667,74.0,100.0
100,71.7995163125,71.96761963750001,72.0,100.0
101,72.3167573125,72.426671025,72.0,100.0
102,72.57537781250001,72.86848104583333,72.0,100.0
103,72.8339983125,73.11201535000001,70.0,100.0
104,73.3512393125,73.48917024583334,67.0,100.0
105,73.6098598125,74.20037662083334,72.0,100.0
106,75.1615828125,75.3038240875,74.0,99.0
107,75.4202033125,75.53011702500001,79.0,99.0
108,75.6788238125,75.9309788,79.0,99.0
109,76.1960648125,76.3964957,77.0,98.0
110,76.4546853125,76.58615073333334,74.0,98.0
111,76.7133058125,77.14433997916667,77.0,98.0
112,77.4891673125,77.6184775625,74.0,99.0
113,77.74778781250001,77.97408075,79.0,99.0
114,78.0064083125,78.18528749166667,77.0,98.0
115,78.5236493125,78.6723561,74.0,98.0
116,78.7822698125,79.047355825,77.0,98.0
117,79.2995108125,79.409424525,77.0,98.0
118,79.55813131250001,79.65726917083333,82.0,98.0
119,79.8167518125,79.96976894166667,82.0,98.0
120,80.07537231250001,80.29951007916667,79.0,98.0
121,80.5926133125,80.71114770833334,77.0,98.0
122,80.8512338125,81.01071645416667,77.0,98.0
123,81.3684748125,81.70683663333334,70.0,98.0
124,81.88571581250001,82.22623280416667,77.0,97.0
125,82.40295681250001,83.05812874583334,74.0,97.0
126,83.392180225,83.53873184166667,77.0,97.0
127,83.65942140833333,83.754248925,82.0,96.0
128,83.93312810416667,84.10554177083334,82.0,96.0
129,84.32752436666667,84.48269666666667,79.0,98.0
130,84.69605857916667,84.81243780416666,79.0,97.0
131,84.98485147083333,85.12278240416667,79.0,97.0
132,85.38140290416668,85.57752345,79.0,96.0
133,85.74347160416667,85.85554048750001,79.0,96.0
134,86.02795415416666,86.20898850416667,79.0,98.0
135,86.38355734166667,86.5667468625,77.0,98.0
136,86.780108775,86.909419025,74.0,97.0
137,87.04734995833334,87.2779532375,77.0,97.0
138,87.3167463125,87.43959105,70.0,97.0
139,87.57536681250001,87.71329774583333,70.0,96.0
140,87.8339873125,87.95898722083334,74.0,96.0
141,88.0926078125,88.35984899583333,74.0,96.0
142,88.3512283125,88.68959013333334,72.0,96.0
143,88.8684693125,89.1141587875,70.0,96.0
144,89.38571031250001,89.95036507083334,67.0,96.0
145,90.1615718125,90.40941645833334,74.0,96.0
146,90.6788128125,91.03441600000001,72.0,96.0
147,91.1960538125,91.36846747916667,74.0,96.0
148,91.4546743125,91.71544998333334,72.0,96.0
149,91.9719153125,92.12924278333334,67.0,96.0
150,92.4891563125,96.31889488333334,70.0,96.0
151,129.4718878125,129.736973825,65.0,92.0
152,129.7305083125,129.85550822083334,70.0,92.0
153,129.9891288125,130.08611150000002,70.0,92.0
154,130.2477493125,130.35550785416666,70.0,92.0
155,130.5063698125,130.65723177083333,70.0,92.0
156,130.7649903125,131.01499012916668,70.0,92.0
157,131.28223131250002,131.4632656625,65.0,92.0
158,131.5408518125,131.780075775,74.0,92.0
159,131.9546446125,132.43740287916668,72.0,92.0
160,134.1270568125,134.27145325833334,74.0,92.0
161,134.3856773125,134.5020565375,72.0,92.0
162,134.6442978125,134.81240113750002,70.0,92.0
163,134.999901,135.12705607916666,70.0,92.0
164,135.4330903375,135.62490054166668,62.0,92.0
165,135.6787798125,136.202486325,65.0,92.0
166,137.2305028125,137.33826135416666,74.0,92.0
167,137.4891233125,137.59041634166667,74.0,92.0
168,137.7477438125,137.88782991666667,74.0,92.0
169,138.0063643125,139.02360494583334,67.0,91.0
170,139.0408463125,139.51498389583332,74.0,91.0
171,139.8167078125,139.99343182083334,72.0,91.0
172,140.0753283125,140.75636229583333,70.0,91.0
173,141.1098103125,141.37058598333334,67.0,91.0
174,141.3684308125,141.62058580000001,70.0,91.0
175,141.62705131250002,141.82532702916666,67.0,91.0
176,141.8856718125,142.202481925,74.0,91.0
177,142.1442923125,142.80161941666668,67.0,90.0
178,142.92015381250002,143.09256747916666,70.0,90.0
179,143.1787743125,143.63998087083334,74.0,90.0
180,143.95463581250002,145.37920373333333,72.0,90.0
181,145.7649793125,145.86411717083334,65.0,90.0
182,146.0235998125,146.17015142916668,65.0,88.0
183,146.28222031250002,146.38351334166668,70.0,88.0
184,146.5408408125,146.63566832916666,70.0,88.0
185,146.7994613125,146.89859917083334,70.0,88.0
186,147.0580818125,147.2003230875,70.0,88.0
187,147.3167023125,147.59471935000002,70.0,88.0
188,147.8468743375,148.03868454166667,67.0,88.0
189,148.0925638125,148.3123912375,74.0,88.0
190,148.3511843125,149.236959525,72.0,88.0
191,150.6787688125,150.82963077083335,79.0,89.0
192,150.93738931250002,151.04083751250002,77.0,89.0
193,151.1960098125,151.37057865,77.0,89.0
194,151.4546303125,151.83178520833334,70.0,89.0
195,151.9718713125,152.18523322500002,77.0,89.0
196,152.4891123125,153.4330771375,74.0,89.0
197,154.0408353125,154.18738692916668,74.0,89.0
198,154.2994558125,154.41583503750002,79.0,90.0
199,154.5580763125,154.67661070833333,79.0,90.0
200,154.8166968125,154.92876569583333,77.0,90.0
201,155.0753173125,155.54298938333335,79.0,90.0
202,155.8511788125,156.02790282083333,79.0,90.0
203,156.1097993125,156.20893717083334,77.0,90.0
204,156.3684198125,156.49341972083334,77.0,90.0
205,156.62704031250001,156.92229871666666,70.0,90.0
206,157.1442813125,157.79514290416668,74.0,90.0
207,157.88997042083335,158.0494530625,74.0,90.0
208,158.14212540833333,158.26497014583333,77.0,90.0
209,158.4373838125,158.60333196666667,79.0,91.0
210,158.82315939166668,158.95893515416668,79.0,91.0
211,159.18307292083335,159.28867629166666,79.0,91.0
212,159.478331325,159.61195191666667,79.0,91.0
213,159.83608968333334,160.06453779166668,79.0,91.0
214,160.24772731250002,160.616261525,79.0,91.0
215,160.81884758333334,162.98694944166667,77.0,91.0
216,163.60979381250002,163.95462114583333,74.0,91.0
217,164.1270348125,164.43306907083334,79.0,91.0
218,164.6442758125,164.81668947916668,79.0,91.0
219,164.90289631250002,165.12487890833333,77.0,91.0
220,165.4201373125,165.55375790416667,74.0,91.0
221,165.6787578125,166.21108500833333,77.0,91.0
222,166.4546193125,166.61841229583334,74.0,91.0
223,166.7132398125,166.89642933333334,79.0,91.0
224,166.9718603125,167.19599807916669,77.0,91.0
225,167.4891013125,167.63349775833333,74.0,91.0
226,167.7477218125,168.08823880416668,77.0,91.0
227,168.26496281250002,168.43522130833335,77.0,91.0
228,168.5235833125,168.620566,82.0,91.0
229,168.7822038125,168.90073820833334,82.0,92.0
230,169.0408243125,169.35332408333335,79.0,92.0
231,169.8166858125,170.12272007083334,79.0,92.0
232,170.3339268125,170.55590940833335,77.0,92.0
233,170.59254731250002,170.86194366666666,70.0,92.0
234,170.8511678125,172.19168407083333,74.0,93.0
235,172.37271842083334,172.5192700375,77.0,92.0
236,172.6227182375,172.71539058333335,82.0,93.0
237,172.92013181250002,173.107631675,82.0,93.0
238,173.29728670833333,173.469700375,79.0,93.0
239,173.70030365416667,173.79728634166668,79.0,93.0
240,173.96323449583335,174.10763094166668,79.0,94.0
241,174.33823422083333,174.504182375,79.0,94.0
242,174.69599257916667,174.81883731666667,79.0,94.0
243,174.9890958125,175.19814738333335,79.0,94.0
244,175.39426792916666,175.5321988625,77.0,94.0
245,175.75633662916667,175.89857790416667,74.0,94.0
246,176.030043325,176.24556040833335,77.0,94.0
247,176.28219831250001,176.39426719583335,70.0,94.0
248,176.54081881250002,176.69383594166666,70.0,94.0
249,176.7994393125,176.91150819583333,74.0,94.0
250,177.0580598125,177.26926655416668,74.0,94.0
251,177.3166803125,177.48478363750002,72.0,94.0
252,177.8339213125,177.943835025,72.0,94.0
253,178.0925418125,178.38564504583334,72.0,94.0
254,178.3511623125,178.62917935000002,70.0,94.0
255,178.8684033125,179.00633424583333,67.0,94.0
256,179.1270238125,179.71754062083335,72.0,94.0
257,180.6787468125,180.8209880875,74.0,94.0
258,180.93736731250002,181.04728102500002,79.0,94.0
259,181.1959878125,181.4481428,79.0,94.0
260,181.7132288125,181.9136597,77.0,94.0
261,181.9718493125,182.10331473333335,74.0,94.0
262,182.23046981250002,182.66150397916667,77.0,94.0
263,183.0063313125,183.1356415625,74.0,94.0
264,183.26495181250002,183.49124475000002,79.0,94.0
265,183.5235723125,183.70245149166666,77.0,94.0
266,184.0408133125,184.1895201,74.0,94.0
267,184.2994338125,184.56451982500002,77.0,94.0
268,184.8166748125,184.926588525,77.0,94.0
269,185.0752953125,185.17443317083334,82.0,94.0
270,185.3339158125,185.48693294166668,82.0,94.0
271,185.59253631250002,185.81667407916666,79.0,94.0
272,186.1097773125,186.22831170833334,77.0,94.0
273,186.3683978125,186.52788045416668,77.0,94.0
274,186.88563881250002,187.22400063333333,70.0,94.0
275,187.4028798125,187.74339680416668,77.0,94.0
276,187.92012081250002,188.57529274583334,74.0,94.0
277,188.909344225,189.05589584166668,77.0,94.0
278,189.17658540833335,189.27141292500002,82.0,94.0
279,189.45029210416666,189.62270577083333,82.0,94.0
280,189.84468836666667,189.99986066666668,79.0,95.0
281,190.21322257916668,190.32960180416669,79.0,95.0
282,190.50201547083333,190.63994640416666,79.0,95.0
283,190.89856690416667,191.09468745,79.0,95.0
284,191.26063560416668,191.37270448750002,79.0,95.0
285,191.5451181541667,191.72615250416666,79.0,95.0
286,191.90072134166667,192.0839108625,77.0,95.0
287,192.297272775,192.426583025,74.0,95.0
288,192.56451395833335,192.7951172375,77.0,95.0
289,192.8339103125,192.95675505,70.0,95.0
290,193.0925308125,193.23046174583334,70.0,95.0
291,193.3511513125,193.47615122083334,74.0,95.0
292,193.60977181250001,193.87701299583335,74.0,96.0
293,193.86839231250002,194.20675413333333,72.0,96.0
294,194.3856333125,194.6313227875,70.0,96.0
295,194.90287431250002,195.46752907083334,67.0,96.0
296,195.6787358125,195.92658045833335,74.0,96.0
297,196.19597681250002,196.55158,72.0,96.0
298,196.7132178125,196.88563147916668,74.0,96.0
299,196.9718383125,197.23261398333335,72.0,96.0
300,197.4890793125,197.64640678333333,67.0,96.0
301,198.0063203125,200.85114581250002,70.0,96.0
302,200.85114581250002,201.19597314583334,74.0,97.0
303,201.3683868125,201.67442107083335,79.0,97.0
304,201.88562781250002,202.05804147916666,79.0,97.0
305,202.1442483125,202.36623090833334,77.0,97.0
306,202.6614893125,202.79510990416668,74.0,97.0
307,202.92010981250002,203.45243700833333,77.0,98.0
308,203.6959713125,203.85976429583334,74.0,97.0
309,203.9545918125,204.13778133333335,79.0,98.0
310,204.21321231250002,204.43735007916666,77.0,98.0
311,204.7304533125,204.87484975833334,74.0,98.0
312,204.9890738125,205.32959080416668,77.0,99.0
313,205.5063148125,205.67657330833333,77.0,99.0
314,205.7649353125,205.861918,82.0,99.0
315,206.0235558125,206.14209020833334,82.0,99.0
316,206.2821763125,206.59467608333335,79.0,99.0
317,207.0580378125,207.36407207083334,79.0,99.0
318,207.57527881250002,207.79726140833336,77.0,99.0
319,207.8338993125,208.10329566666667,70.0,99.0
320,208.0925198125,209.43303607083334,74.0,99.0
321,209.61407042083334,209.7606220375,77.0,97.0
322,209.86407023750002,209.95674258333335,82.0,96.0
323,210.1614838125,210.348983675,82.0,96.0
324,210.53863870833334,210.711052375,79.0,98.0
325,210.94165565416668,211.03863834166668,79.0,97.0
326,211.20458649583335,211.34898294166666,79.0,97.0
327,211.57958622083333,211.745534375,79.0,96.0
328,211.93734457916668,212.06018931666668,79.0,96.0
329,212.23044781250002,212.43949938333336,79.0,96.0
330,212.63561992916667,212.7735508625,77.0,98.0
331,212.99768862916667,213.13992990416668,74.0,97.0
332,213.27139532500001,213.48691240833335,77.0,97.0
333,213.52355031250002,213.63561919583333,70.0,97.0
334,213.7821708125,213.93518794166667,70.0,96.0
335,214.0407913125,214.15286019583334,74.0,96.0
336,214.2994118125,214.51061855416668,74.0,96.0
337,214.55803231250002,214.72613563750002,72.0,96.0
338,215.0752733125,215.185187025,72.0,96.0
339,215.3338938125,215.62699704583335,72.0,96.0
340,215.59251431250001,215.87053135000002,70.0,96.0
341,216.1097553125,216.24768624583334,67.0,96.0
342,216.3683758125,216.95889262083335,72.0,96.0
343,217.92009881250002,218.06234008750002,74.0,95.0
344,218.17871931250002,218.288633025,79.0,95.0
345,218.4373398125,218.6894948,79.0,95.0
346,218.9545808125,219.15501170000002,77.0,95.0
347,219.21320131250002,219.34466673333336,74.0,95.0
348,219.4718218125,219.90285597916667,77.0,95.0
349,220.24768331250002,220.37699356250002,74.0,95.0
350,220.50630381250002,220.73259675,79.0,95.0
351,220.7649243125,220.94380349166667,77.0,95.0
352,221.2821653125,221.43087210000002,74.0,95.0
353,221.54078581250002,221.805871825,77.0,95.0
354,222.0580268125,222.167940525,77.0,95.0
355,222.3166473125,222.41578517083335,82.0,95.0
356,222.57526781250002,222.7282849416667,82.0,95.0
357,222.83388831250002,223.05802607916667,79.0,95.0
358,223.3511293125,223.46966370833334,77.0,95.0
359,223.6097498125,223.76923245416668,77.0,95.0
360,224.1269908125,224.46535263333334,70.0,95.0
361,224.6442318125,224.98474880416668,77.0,95.0
362,225.16147281250002,225.81664474583334,74.0,95.0
363,226.15069622500002,226.2972478416667,77.0,95.0
364,226.41793740833333,226.512764925,82.0,95.0
365,226.69164410416667,226.86405777083334,82.0,95.0
366,227.08604036666668,227.24121266666668,79.0,95.0
367,227.4545745791667,227.57095380416666,79.0,95.0
368,227.74336747083333,227.88129840416667,79.0,95.0
369,228.13991890416668,228.33603945000002,79.0,95.0
370,228.5019876041667,228.61405648750002,79.0,95.0
371,228.78647015416666,228.96750450416667,79.0,95.0
372,229.14207334166667,229.3252628625,77.0,95.0
373,229.53862477500002,229.66793502500002,74.0,95.0
374,229.80586595833336,230.0364692375,77.0,95.0
375,230.0752623125,230.19810705,70.0,95.0
376,230.3338828125,230.47181374583334,70.0,95.0
377,230.5925033125,230.71750322083335,74.0,95.0
378,230.85112381250002,231.11836499583333,74.0,95.0
379,231.1097443125,231.44810613333334,72.0,95.0
380,231.6269853125,231.87267478750002,70.0,95.0
381,232.1442263125,232.70888107083334,67.0,95.0
382,232.92008781250001,233.16793245833335,74.0,95.0
383,233.4373288125,233.792932,72.0,95.0
384,233.9545698125,234.12698347916668,74.0,95.0
385,234.21319031250002,234.47396598333333,72.0,95.0
386,234.7304313125,234.88775878333334,67.0,95.0
387,235.24767231250001,238.0924978125,70.0,95.0
388,238.08172195833333,238.54939402916668,65.0,95.0
389,238.5709457375,238.93301443750002,70.0,95.0
390,239.1269798125,239.36189343333334,70.0,95.0
391,239.5019795375,239.73904832916668,67.0,95.0
392,239.87266892083335,240.00628951250002,67.0,95.0
393,240.16146181250002,240.44378919166667,67.0,95.0
394,240.51490982916667,240.74551310833334,67.0,95.0
395,240.89637506666668,241.02353014583335,67.0,95.0
396,241.19594381250002,241.46965050833333,67.0,95.0
397,241.50197807083333,241.76275374166667,65.0,95.0
398,241.93085706666668,242.055856975,62.0,95.0
399,242.23042581250002,242.47611528750002,65.0,95.0
400,242.48904631250002,242.61620139166666,58.0,95.0
401,242.7476668125,242.9028391125,58.0,95.0
402,243.0062873125,243.1355975625,62.0,95.0
403,243.2649078125,243.55585587500002,62.0,95.0
404,243.7821488125,244.02352794583334,60.0,95.0
405,244.0407693125,244.279993275,58.0,95.0
406,244.55801031250002,245.236889125,55.0,95.0
407,245.3338718125,245.60326816666668,62.0,95.0
408,245.85111281250002,246.3683538125,60.0,95.0
409,246.3683538125,246.6916294375,62.0,95.0
410,246.88559481250002,248.12266287083335,60.0,95.0
411,248.4373178125,249.17654140833335,55.0,95.0
412,249.47179981250002,251.857573925,58.0,95.0
