,start,end,pitch,velocity
0,0.9525855083333333,1.11206815,74.0,55.0
1,0.9999992666666667,1.1271543458333333,77.0,61.0
2,1.11206815,1.1487060541666667,81.0,56.0
3,1.1961198125,2.5043085083333336,82.0,77.0
4,2.4590499208333334,2.7090497375,74.0,63.0
5,2.71551525,2.9418081875,77.0,72.0
6,2.2306018125000002,2.9547392125000003,70.0,46.0
7,1.1961198125,3.1573252708333333,58.0,84.0
8,2.9676702375,3.2004286875,82.0,65.0
9,1.7133608125000002,3.49137675,65.0,63.0
10,3.2306010791666666,4.6810310500000005,81.0,96.0
11,4.2995658125,5.303875420833333,70.0,50.0
12,5.124996241666667,5.312496104166667,75.0,62.0
13,3.2650838125000003,5.344823666666667,57.0,53.0
14,5.2047375625,5.357754691666667,77.0,74.0
15,3.7823248125,5.364220204166667,65.0,51.0
16,5.334047812500001,6.163788583333334,82.0,75.0
17,6.6271503125,6.890081154166667,70.0,57.0
18,6.885770812500001,7.0495637958333335,75.0,63.0
19,6.3685298125,7.127149945833334,63.0,46.0
20,5.334047812500001,7.224132633333333,51.0,61.0
21,7.144391312500001,7.297408441666667,79.0,71.0
22,5.8512888125,7.306029125,58.0,62.0
23,7.4030118125,9.0323209625,77.0,96.0
24,7.4030118125,9.577579183333334,53.0,56.0
25,8.4374938125,9.592665379166666,65.0,50.0
26,7.9202528125,9.605596404166667,60.0,61.0
27,9.4719758125,10.3383544875,55.0,59.0
28,9.4719758125,10.342664829166667,63.0,75.0
29,9.4719758125,10.370682050000001,58.0,68.0
30,10.5064578125,11.129302183333333,63.0,65.0
31,10.5064578125,11.150853891666667,55.0,62.0
32,10.5064578125,11.165940087500001,58.0,69.0
33,11.023698812500001,11.215509016666667,51.0,45.0
34,9.4719758125,11.2823193125,39.0,65.0
35,9.9892168125,11.465508833333335,46.0,47.0
36,11.540939812500001,12.478439125000001,53.0,67.0
37,11.540939812500001,12.506456345833334,57.0,68.0
38,12.0581808125,13.075421445833333,45.0,58.0
39,12.5754218125,13.133611058333333,57.0,62.0
40,12.5754218125,13.142231741666667,62.0,70.0
41,11.540939812500001,13.16378345,38.0,62.0
42,12.5754218125,13.200421354166668,53.0,64.0
43,13.6099038125,14.323265358333334,51.0,67.0
44,13.6099038125,14.407317020833334,55.0,72.0
45,14.40516185,14.543092783333334,53.0,73.0
46,14.489213512500001,14.594816883333333,55.0,74.0
47,14.127144812500001,14.644385812500001,43.0,60.0
48,13.6099038125,14.676713375,36.0,71.0
49,14.644385812500001,14.836196016666667,44.0,61.0
50,14.642230641666668,14.862058066666668,56.0,85.0
51,15.002144170833335,15.189644033333334,55.0,59.0
52,15.004299341666668,15.2068854,43.0,61.0
53,15.353437016666668,15.534471366666667,42.0,65.0
54,15.359902529166668,15.553867904166667,54.0,91.0
55,15.6788678125,16.644384345833334,57.0,60.0
56,15.6788678125,16.672401566666668,65.0,74.0
57,15.6788678125,16.68102225,60.0,66.0
58,16.713349812500002,17.28015974166667,60.0,62.0
59,16.713349812500002,17.28015974166667,65.0,66.0
60,16.713349812500002,17.50860785,57.0,59.0
61,17.4892113125,17.562487120833335,60.0,13.0
62,17.7478318125,18.71550351666667,65.0,84.0
63,17.7478318125,18.717658687500002,57.0,65.0
64,17.7478318125,18.741365566666666,60.0,81.0
65,17.2305908125,19.127141145833335,53.0,50.0
66,18.7823138125,19.691795904166668,60.0,77.0
67,18.7823138125,19.7004165875,57.0,71.0
68,18.7823138125,19.7004165875,65.0,85.0
69,19.299554812500002,19.734899320833335,53.0,64.0
70,16.1961088125,19.801709616666667,48.0,68.0
71,15.6788678125,19.900847475,41.0,79.0
72,19.8167958125,19.900847475,41.0,57.0
73,19.8167958125,21.6530013625,65.0,72.0
74,19.8167958125,21.681018583333334,60.0,52.0
75,19.8167958125,21.80170815,57.0,37.0
76,20.8512778125,23.8448101,53.0,51.0
77,21.8857598125,23.91377556666667,65.0,64.0
78,21.8857598125,23.924551420833335,57.0,29.0
79,20.3340368125,23.92670659166667,48.0,61.0
80,21.8857598125,23.9547238125,60.0,52.0
81,23.9547238125,24.752137020833334,62.0,61.0
82,23.9547238125,24.78015424166667,65.0,73.0
83,24.4719648125,25.633601891666668,53.0,57.0
84,23.9547238125,25.683170820833336,46.0,75.0
85,24.9892058125,25.859894829166667,62.0,74.0
86,24.9892058125,25.874981025,65.0,81.0
87,26.0236878125,26.896532,57.0,65.0
88,26.0236878125,26.918083708333334,60.0,72.0
89,27.0581698125,27.678859012500002,60.0,69.0
90,27.0581698125,27.685324525000002,57.0,62.0
91,26.0236878125,27.693945208333336,41.0,67.0
92,27.5754108125,28.051703566666667,53.0,47.0
93,26.540928812500002,28.120669033333336,48.0,59.0
94,28.0926518125,28.999978733333336,55.0,61.0
95,28.0926518125,29.00213390416667,62.0,66.0
96,28.0926518125,29.01506492916667,58.0,67.0
97,28.6098928125,29.549547295833335,46.0,57.0
98,28.0926518125,29.6379093,39.0,67.0
99,29.127133812500002,29.655150666666668,62.0,88.0
100,29.127133812500002,29.661616179166668,55.0,77.0
101,29.127133812500002,29.668081691666668,58.0,77.0
102,29.6443748125,30.056012441666667,51.0,57.0
103,30.161615812500003,31.081873758333334,62.0,69.0
104,30.161615812500003,31.114201320833335,65.0,75.0
105,30.6788568125,31.868511112500002,53.0,50.0
106,31.1960978125,32.053855804166666,70.0,56.0
107,31.1960978125,32.09911439166667,62.0,66.0
108,31.1960978125,32.1012695625,65.0,61.0
109,30.161615812500003,32.116355758333334,46.0,57.0
110,32.230579812500004,33.13144122083334,55.0,57.0
111,32.230579812500004,33.13144122083334,63.0,58.0
112,32.230579812500004,33.159458441666665,58.0,48.0
113,33.2650618125,34.1573025375,63.0,73.0
114,33.2650618125,34.1960956125,58.0,68.0
115,33.2650618125,34.20040595416667,55.0,60.0
116,33.7823028125,34.2348886875,51.0,54.0
117,32.230579812500004,34.3124748375,39.0,69.0
118,32.7478208125,34.34695757083333,46.0,68.0
119,34.2995438125,35.14868112083334,62.0,66.0
120,34.2995438125,35.152991462500005,53.0,60.0
121,34.2995438125,35.16807765833333,57.0,57.0
122,34.8167848125,35.73919792916667,45.0,59.0
123,35.3340258125,35.885749545833335,62.0,72.0
124,35.3340258125,35.90730125416667,57.0,71.0
125,35.3340258125,35.937473645833336,53.0,62.0
126,34.2995438125,35.943939158333336,38.0,63.0
127,36.1098873125,36.202559658333335,55.0,8.0
128,36.3685078125,37.29092092916667,51.0,65.0
129,36.3685078125,37.301696783333334,60.0,67.0
130,36.3685078125,37.31678297916667,55.0,72.0
131,36.3685078125,37.8814377375,36.0,72.0
132,37.4029898125,37.902989445833335,60.0,74.0
133,37.4029898125,37.90514461666667,51.0,72.0
134,37.4029898125,37.922385983333335,55.0,75.0
135,36.885748812500005,37.952558375,43.0,64.0
136,37.9202308125,38.40729942083333,48.0,56.0
137,38.4374718125,39.3814366375,57.0,60.0
138,38.4374718125,39.396522833333336,65.0,73.0
139,38.4374718125,39.402988345833336,60.0,63.0
140,39.471953812500004,40.28445321666667,65.0,81.0
141,39.471953812500004,40.29738424166667,57.0,63.0
142,39.471953812500004,40.29738424166667,60.0,73.0
143,39.9891948125,40.52367717916667,53.0,52.0
144,38.9547128125,40.5322978625,48.0,61.0
145,38.4374718125,40.59264264583334,41.0,63.0
146,40.5064358125,41.4116075625,70.0,69.0
147,40.5064358125,41.413762733333336,62.0,74.0
148,40.5064358125,41.4310041,65.0,84.0
149,41.5409178125,42.374968925000005,70.0,75.0
150,41.0236768125,42.37927926666667,53.0,62.0
151,41.5409178125,42.38358960833334,65.0,85.0
152,41.5409178125,42.39652063333334,62.0,67.0
153,40.5064358125,42.42884819583333,46.0,81.0
154,42.5753998125,43.53660600416667,57.0,62.0
155,42.5753998125,43.545226687500005,65.0,70.0
156,42.5753998125,43.55384737083334,60.0,59.0
157,43.6098818125,44.16160554583333,65.0,84.0
158,43.6098818125,44.1917779375,60.0,77.0
159,43.6098818125,44.20039862083333,57.0,67.0
160,44.127122812500005,44.336174383333336,53.0,57.0
161,42.5753998125,44.49134668333333,41.0,71.0
162,43.0926408125,44.543070783333334,48.0,60.0
163,44.6443638125,45.58401829583334,55.0,62.0
164,44.6443638125,45.59048380833333,63.0,77.0
165,44.6443638125,45.6012596625,58.0,72.0
166,45.1616048125,46.19824198333333,46.0,72.0
167,45.6788458125,46.206862666666666,63.0,83.0
168,45.6788458125,46.21117300833333,55.0,77.0
169,45.6788458125,46.213328179166666,58.0,77.0
170,44.6443638125,46.23272471666667,39.0,85.0
171,46.1960868125,46.681000250000004,51.0,92.0
172,46.713327812500005,47.64005127083333,62.0,94.0
173,46.713327812500005,47.64651678333333,70.0,94.0
174,46.713327812500005,47.650827125,65.0,94.0
175,48.2650508125,48.40944725833334,58.0,91.0
176,47.2305688125,48.5172058,53.0,93.0
177,47.7478098125,48.5883264375,70.0,92.0
178,47.7478098125,48.603412633333335,65.0,92.0
179,47.7478098125,48.61849882916667,62.0,92.0
180,46.713327812500005,48.69608497916667,46.0,94.0
181,48.7822918125,49.6874635625,63.0,90.0
182,48.7822918125,49.71117044166667,55.0,90.0
183,48.7822918125,49.71117044166667,58.0,90.0
184,49.8167738125,50.40513545,58.0,90.0
185,49.8167738125,50.40729062083334,63.0,90.0
186,49.8167738125,50.43315267083334,55.0,90.0
187,50.3340148125,50.48703194166667,51.0,90.0
188,49.299532812500004,50.512893991666665,46.0,91.0
189,48.7822918125,50.599100825,39.0,90.0
190,50.5926353125,50.6572904375,53.0,90.0
191,50.8512558125,51.78659995416667,53.0,90.0
192,50.8512558125,51.788755125,57.0,90.0
193,50.8512558125,51.790910295833335,62.0,90.0
194,50.8512558125,52.37065125,38.0,90.0
195,51.368496812500005,52.40728915416667,45.0,90.0
196,51.885737812500004,52.411599495833336,53.0,90.0
197,51.885737812500004,52.41375466666667,57.0,90.0
198,51.885737812500004,52.4159098375,62.0,90.0
199,52.4029788125,52.80599575833334,50.0,90.0
200,52.9202198125,53.846943270833336,63.0,90.0
201,52.9202198125,53.85556395416667,67.0,90.0
202,53.954701812500005,54.491339350000004,67.0,90.0
203,53.954701812500005,54.51289105833334,63.0,90.0
204,53.4374608125,54.536597937500005,55.0,90.0
205,54.471942812500004,54.605563404166666,60.0,91.0
206,52.9202198125,54.64651165,48.0,90.0
207,55.2478043125,56.8771134625,57.0,90.0
208,55.2478043125,56.8771134625,65.0,90.0
209,55.2478043125,56.881423804166666,60.0,90.0
210,55.2478043125,56.91806170833333,41.0,90.0
211,57.0581478125,57.142199475000005,65.0,94.0
212,57.0581478125,57.14435464583334,60.0,94.0
213,57.0581478125,57.165906354166665,57.0,94.0
214,57.0581478125,57.178837379166666,41.0,94.0
215,57.3167683125,58.064612591666666,41.0,91.0
216,57.3167683125,58.0861643,60.0,91.0
217,57.3167683125,58.0926298125,57.0,91.0
218,57.3167683125,58.0926298125,65.0,91.0
219,58.0926298125,58.640043204166666,38.0,95.0
220,58.0926298125,58.64435354583333,50.0,95.0
221,58.6098708125,58.87280165416667,55.0,93.0
222,58.6098708125,58.9331464375,43.0,93.0
223,58.6098708125,58.952542975,67.0,93.0
224,59.127111812500004,59.49780119583333,65.0,127.0
225,59.127111812500004,59.70038725416667,70.0,127.0
226,59.127111812500004,59.70685276666667,74.0,107.0
227,59.9029733125,60.02150770833334,74.0,88.0
228,59.9029733125,60.038749075000005,70.0,95.0
229,59.6443528125,60.04305941666667,65.0,86.0
230,59.385732312500004,60.25426615833334,58.0,122.0
231,60.1615938125,60.4654729,65.0,122.0
232,60.1615938125,60.52150734166667,74.0,127.0
233,60.1615938125,60.530128025,70.0,127.0
234,60.4202143125,60.54521422083334,58.0,102.0
235,59.127111812500004,60.58400729583334,46.0,127.0
236,60.6788348125,60.898662237500005,70.0,127.0
237,60.6788348125,60.924524287500006,74.0,127.0
238,60.9374553125,61.09693795416667,65.0,90.0
239,61.196075812500005,61.353403283333336,69.0,127.0
240,61.196075812500005,61.3641791375,72.0,117.0
241,61.196075812500005,61.39866187083334,65.0,117.0
242,61.9719373125,62.10340273333333,60.0,100.0
243,61.9719373125,62.105557904166666,69.0,99.0
244,61.9719373125,62.107713075,65.0,100.0
245,61.713316812500004,62.340471525000005,53.0,89.0
246,62.2305578125,62.605557537500005,69.0,127.0
247,62.2305578125,62.612023050000005,65.0,127.0
248,62.2305578125,62.62926441666667,60.0,127.0
249,61.196075812500005,62.68529885833333,41.0,92.0
250,61.454696312500005,62.75210915416667,48.0,81.0
251,62.4891783125,62.762885008333335,53.0,112.0
252,62.7477988125,62.831850475,60.0,96.0
253,62.7477988125,62.91159179583334,69.0,107.0
254,62.7477988125,63.12064336666667,65.0,122.0
255,63.2650398125,63.969780675,67.0,112.0
256,63.2650398125,63.978401358333336,70.0,127.0
257,63.2650398125,63.99348755416667,62.0,112.0
258,64.0409013125,64.17883224583333,70.0,97.0
259,64.0409013125,64.18098741666667,62.0,88.0
260,64.0409013125,64.18098741666667,67.0,95.0
261,63.782280812500005,64.4288320625,55.0,90.0
262,64.2995218125,64.68960773333333,62.0,127.0
263,64.5581423125,64.70900427083333,55.0,97.0
264,63.523660312500006,64.76288354166667,50.0,73.0
265,63.2650398125,64.79952144583334,43.0,96.0
266,64.2995218125,64.88788345,70.0,127.0
267,64.2995218125,64.9202110125,67.0,127.0
268,64.8167628125,65.1529694625,62.0,117.0
269,65.07538331250001,65.211159075,65.0,83.0
270,65.3340038125,65.34909000833333,68.0,86.0
271,65.3340038125,65.95253784166667,62.0,117.0
272,65.3340038125,65.95900335416667,65.0,122.0
273,65.3340038125,65.961158525,69.0,107.0
274,66.1098653125,66.25210658750001,62.0,100.0
275,66.1098653125,66.25426175833334,65.0,100.0
276,66.1098653125,66.25857210000001,69.0,97.0
277,65.8512448125,66.49133055,50.0,99.0
278,65.3340038125,66.70253729166667,38.0,89.0
279,66.3684858125,66.70900280416667,62.0,127.0
280,65.5926243125,66.7434855375,45.0,76.0
281,66.6271063125,66.76503724583334,50.0,99.0
282,66.3684858125,66.892192325,69.0,122.0
283,66.3684858125,66.9115888625,65.0,127.0
284,66.8857268125,67.03658877083333,62.0,117.0
285,67.40296781250001,68.02150184166666,70.0,99.0
286,67.40296781250001,68.08615696666666,63.0,127.0
287,67.40296781250001,68.10555350416666,67.0,102.0
288,68.1788293125,68.31029473333334,70.0,83.0
289,68.1788293125,68.31891541666667,63.0,97.0
290,68.1788293125,68.31891541666667,67.0,79.0
291,67.92020881250001,68.57322557500001,51.0,96.0
292,67.6615883125,68.79089782916667,46.0,37.0
293,67.40296781250001,68.81460470833333,39.0,96.0
294,68.4374498125,68.83615641666667,63.0,127.0
295,68.6960703125,68.84262192916667,51.0,96.0
296,68.4374498125,68.97193217916667,70.0,127.0
297,68.4374498125,68.9999494,67.0,122.0
298,68.9546908125,69.0452079875,63.0,112.0
299,69.4719318125,70.07106930416667,62.0,117.0
300,69.4719318125,70.1184830625,70.0,112.0
301,69.4719318125,70.13356925833334,65.0,100.0
302,70.24779331250001,70.56029308333333,62.0,107.0
303,69.9891728125,70.91158592916666,58.0,112.0
304,70.5064138125,70.91158592916666,70.0,122.0
305,70.5064138125,70.9202066125,65.0,102.0
306,69.4719318125,71.0365858375,46.0,127.0
307,71.0236548125,71.10986164583333,70.0,117.0
308,71.0236548125,71.14434437916667,65.0,112.0
309,71.5408958125,72.193912575,63.0,117.0
310,71.5408958125,72.19606774583333,60.0,122.0
311,71.5408958125,72.20899877083333,55.0,112.0
312,72.3167573125,72.4331365375,63.0,97.0
313,72.3167573125,72.44391239166667,60.0,97.0
314,72.3167573125,72.4460675625,55.0,89.0
315,72.05813681250001,72.7046880625,48.0,100.0
316,72.57537781250001,72.90942929166667,55.0,107.0
317,72.57537781250001,72.99132578333334,63.0,127.0
318,72.57537781250001,72.99779129583334,60.0,127.0
319,71.5408958125,73.03011885833334,36.0,95.0
320,71.7995163125,73.06244642083334,43.0,77.0
321,72.8339983125,73.10986017916667,48.0,102.0
322,73.0926188125,73.16804979166668,55.0,99.0
323,73.0926188125,73.23701525833333,60.0,127.0
324,73.0926188125,73.25210145416666,63.0,127.0
325,73.6098598125,74.0171871,65.0,102.0
326,73.6098598125,74.23485935416667,60.0,122.0
327,73.6098598125,74.24132486666667,69.0,107.0
328,74.3857213125,74.5344281,65.0,99.0
329,74.3857213125,74.53873844166667,69.0,100.0
330,74.1271008125,74.76503137916667,53.0,112.0
331,73.6098598125,74.98485880416666,41.0,93.0
332,73.8684803125,75.0064105125,48.0,95.0
333,74.90296231250001,75.07968632083333,53.0,112.0
334,74.6443418125,75.16373798333333,65.0,122.0
335,74.6443418125,75.18097935,69.0,127.0
336,75.1615828125,75.23054827916667,60.0,117.0
337,75.6788238125,76.06028905000001,65.0,102.0
338,75.6788238125,76.11847866250001,74.0,99.0
339,75.6788238125,76.26287510833333,70.0,127.0
340,76.4546853125,76.5193404375,74.0,79.0
341,76.4546853125,76.5193404375,74.0,107.0
342,76.4546853125,76.54089214583334,70.0,63.0
343,76.4546853125,76.54089214583334,70.0,127.0
344,76.1960648125,76.68313342083334,65.0,99.0
345,75.9374443125,76.7262368375,58.0,127.0
346,76.7133058125,77.09692622083334,70.0,112.0
347,76.7133058125,77.10339173333334,65.0,127.0
348,76.7133058125,77.107702075,74.0,122.0
349,76.9719263125,77.1206331,58.0,117.0
350,75.6788238125,77.14865032083334,46.0,122.0
351,77.23054681250001,77.26718471666668,65.0,59.0
352,77.23054681250001,77.35339155,74.0,100.0
353,77.23054681250001,77.366322575,70.0,127.0
354,77.74778781250001,78.30813222916667,65.0,112.0
355,77.74778781250001,78.32321842500001,69.0,117.0
356,77.74778781250001,78.32537359583334,72.0,107.0
357,78.5236493125,78.5689079,65.0,96.0
358,78.5236493125,78.57321824166667,72.0,95.0
359,78.5236493125,78.57752858333333,69.0,107.0
360,78.7822698125,78.87709732916667,69.0,122.0
361,78.2650288125,78.88140767083334,53.0,117.0
362,78.7822698125,78.88356284166667,65.0,107.0
363,78.7822698125,78.89002835416667,72.0,112.0
364,79.0408903125,79.33614871666667,53.0,72.0
365,79.2995108125,79.36847627916667,69.0,127.0
366,79.2995108125,79.37278662083334,72.0,117.0
367,79.2995108125,79.37925213333334,65.0,112.0
368,77.74778781250001,79.383562475,41.0,95.0
369,78.0064083125,79.67235536666666,48.0,88.0
370,79.8167518125,79.88356210833334,74.0,112.0
371,79.8167518125,79.89864830416667,70.0,127.0
372,79.8167518125,79.90295864583334,67.0,97.0
373,80.5926133125,80.68313048750001,62.0,89.0
374,80.5926133125,80.69390634166668,67.0,97.0
375,80.5926133125,80.69606151250001,70.0,99.0
376,80.3339928125,80.88571654583333,55.0,100.0
377,80.07537231250001,81.0516647,50.0,89.0
378,80.8512338125,81.18097495,62.0,107.0
379,79.8167518125,81.19821631666667,43.0,78.0
380,80.8512338125,81.22192319583334,67.0,122.0
381,81.1098543125,81.22407836666667,50.0,100.0
382,80.8512338125,81.24994041666667,70.0,127.0
383,81.3684748125,81.50209540416667,70.0,127.0
384,81.3684748125,81.62278497083334,67.0,127.0
385,81.6270953125,81.79088829583334,62.0,69.0
386,81.88571581250001,82.49131881666666,62.0,112.0
387,81.88571581250001,82.4934739875,65.0,117.0
388,81.88571581250001,82.5193360375,69.0,102.0
389,82.6615773125,82.76287034166667,62.0,97.0
390,82.6615773125,82.76287034166667,65.0,93.0
391,82.6615773125,82.771491025,69.0,83.0
392,82.40295681250001,83.03226669583334,50.0,93.0
393,82.9201978125,83.23485275416667,62.0,122.0
394,81.88571581250001,83.275801,38.0,83.0
395,82.1443363125,83.32321475833334,45.0,73.0
396,83.1788183125,83.33183544166667,50.0,100.0
397,82.9201978125,83.418042275,65.0,127.0
398,82.9201978125,83.48485257083334,69.0,127.0
399,83.4374388125,83.53226632916667,62.0,117.0
400,83.9546798125,84.54304145,67.0,127.0
401,83.9546798125,84.56674832916667,63.0,127.0
402,83.9546798125,84.56674832916667,70.0,127.0
403,84.73054131250001,84.80381712083333,70.0,35.0
404,84.73054131250001,84.81243780416666,67.0,59.0
405,84.73054131250001,84.827524,63.0,70.0
406,84.4719208125,85.16588582083334,51.0,122.0
407,84.9891618125,85.40726495416666,63.0,127.0
408,84.9891618125,85.48485110416667,67.0,127.0
409,84.9891618125,85.51502349583333,70.0,127.0
410,83.9546798125,85.52579935,39.0,112.0
411,85.5064028125,85.66588545416667,51.0,122.0
412,86.0236438125,86.62062613333333,65.0,107.0
413,86.0236438125,86.6314019875,70.0,127.0
414,86.0236438125,86.64217784166667,74.0,107.0
415,86.7995053125,86.90510868333334,74.0,93.0
416,86.7995053125,86.909419025,65.0,89.0
417,86.7995053125,86.91157419583334,70.0,112.0
418,86.5408848125,87.13786713333333,58.0,112.0
419,87.3167463125,87.4654531,58.0,122.0
420,86.0236438125,87.48915997916667,46.0,127.0
421,87.05812581250001,87.54734959166667,70.0,127.0
422,87.05812581250001,87.5495047625,74.0,127.0
423,87.57536681250001,87.63571159583334,65.0,100.0
424,88.0926078125,88.72838320833334,63.0,127.0
425,88.0926078125,88.73700389166667,60.0,112.0
426,88.0926078125,88.74131423333334,67.0,100.0
427,88.8684693125,88.9848485375,60.0,69.0
428,88.8684693125,88.9848485375,67.0,78.0
429,88.8684693125,88.99131405,63.0,93.0
430,88.6098488125,89.20036562083334,48.0,88.0
431,88.0926078125,89.40726202083334,36.0,97.0
432,89.1270898125,89.47191714583333,60.0,102.0
433,88.3512283125,89.51286539166667,43.0,74.0
434,89.38571031250001,89.58398602916667,48.0,102.0
435,89.1270898125,89.6960549125,63.0,127.0
436,89.1270898125,89.94389955833334,67.0,100.0
437,89.6443308125,90.00855468333334,60.0,112.0
438,89.90295131250001,90.04088224583333,63.0,107.0
439,90.1615718125,91.564588025,69.0,107.0
440,90.1615718125,91.59476041666667,60.0,112.0
441,90.1615718125,91.60984661250001,65.0,117.0
442,91.71329481250001,92.23915649583334,60.0,100.0
443,91.71329481250001,92.24131166666668,65.0,99.0
444,92.23053581250001,92.24131166666668,65.0,68.0
445,91.71329481250001,92.25208752083334,69.0,96.0
446,90.1615718125,92.25855303333334,41.0,100.0
447,91.1960538125,92.26717371666668,53.0,92.0
448,92.23053581250001,95.12061990000001,70.0,65.0
449,92.23053581250001,95.17880951250001,62.0,48.0
450,92.23053581250001,95.19174053750001,46.0,70.0
451,95.3339818125,95.9482055,65.0,88.0
452,95.3339818125,95.961136525,60.0,84.0
453,95.3339818125,95.96975720833333,57.0,81.0
454,95.3339818125,96.01070545416667,41.0,84.0
455,96.36846381250001,97.25208385416667,55.0,75.0
456,96.36846381250001,97.25639419583334,63.0,91.0
457,96.36846381250001,97.26501487916667,58.0,83.0
458,97.1443253125,97.51285952500001,51.0,62.0
459,96.36846381250001,97.8038075875,39.0,83.0
460,97.40294581250001,97.8102731,58.0,84.0
461,97.40294581250001,97.81242827083334,63.0,93.0
462,97.40294581250001,97.81458344166667,55.0,84.0
463,96.88570481250001,97.823204125,46.0,84.0
464,98.1788073125,98.25208312083333,70.0,53.0
465,98.1788073125,98.27363482916667,65.0,45.0
466,97.6615663125,98.31673824583333,51.0,60.0
467,98.4374278125,99.35984092916667,70.0,84.0
468,98.4374278125,99.36415127083333,62.0,93.0
469,98.4374278125,99.36630644166667,65.0,102.0
470,98.9546688125,99.55165113333334,58.0,61.0
471,99.73053031250001,99.8986336375,58.0,60.0
472,99.4719098125,100.03225422916667,62.0,96.0
473,99.4719098125,100.03656457083333,70.0,85.0
474,99.4719098125,100.04949559583333,65.0,102.0
475,99.9891508125,100.20682306666667,58.0,62.0
476,99.21328931250001,100.29734024166667,50.0,37.0
477,100.2477713125,100.35121951250001,70.0,67.0
478,100.2477713125,100.36199536666668,65.0,74.0
479,100.2477713125,100.36846087916668,62.0,75.0
480,100.2477713125,100.39432292916668,58.0,48.0
481,98.4374278125,100.5063918125,46.0,83.0
482,98.6960483125,100.5516504,53.0,70.0
483,100.5063918125,101.39647736666667,63.0,96.0
484,100.5063918125,101.40078770833334,72.0,85.0
485,100.5063918125,101.40725322083334,67.0,91.0
486,101.0236328125,102.28009740833333,60.0,61.0
487,100.7650123125,102.2908732625,55.0,58.0
488,101.54087381250001,102.297338775,72.0,93.0
489,101.54087381250001,102.30811462916667,67.0,93.0
490,101.2822533125,102.3167353125,51.0,61.0
491,101.54087381250001,102.3167353125,63.0,106.0
492,100.5063918125,102.35768355833333,48.0,96.0
493,102.5753558125,103.47406205,57.0,77.0
494,102.5753558125,103.48483790416667,60.0,88.0
495,102.5753558125,103.486993075,65.0,88.0
496,103.0925968125,103.54949302916667,53.0,48.0
497,103.6098378125,104.030096125,60.0,91.0
498,103.6098378125,104.030096125,65.0,102.0
499,103.6098378125,104.03225129583333,57.0,85.0
500,102.5753558125,104.133544325,48.0,81.0
501,102.5753558125,104.17664774166667,41.0,58.0
502,103.86845831250001,104.22190632916667,53.0,63.0
503,104.1270788125,104.23914769583334,60.0,84.0
504,104.1270788125,104.24561320833334,65.0,93.0
505,103.3512173125,104.26716491666667,45.0,68.0
506,104.1270788125,104.27363042916667,57.0,75.0
507,104.6443198125,105.4589743875,55.0,70.0
508,104.6443198125,105.47837092500001,58.0,85.0
509,104.6443198125,105.48052609583334,63.0,96.0
510,105.1615608125,105.71328454583333,51.0,62.0
511,105.6788018125,106.12276700416668,63.0,102.0
512,105.6788018125,106.13138768750001,55.0,84.0
513,105.6788018125,106.13354285833334,58.0,91.0
514,104.6443198125,106.35337028333333,39.0,85.0
515,105.4201813125,106.39431852916667,43.0,59.0
516,106.19604281250001,106.3964737,55.0,74.0
517,106.19604281250001,106.40724955416667,63.0,79.0
518,106.19604281250001,106.41155989583334,58.0,74.0
519,104.90294031250001,106.43957711666667,46.0,83.0
520,105.9374223125,106.72621483750001,51.0,72.0
521,106.71328381250001,107.54517975416667,70.0,77.0
522,106.71328381250001,107.547334925,62.0,88.0
523,106.71328381250001,107.547334925,65.0,93.0
524,107.23052481250001,107.87923123333334,58.0,61.0
525,107.7477658125,108.2132827125,62.0,96.0
526,107.7477658125,108.22190339583334,70.0,88.0
527,107.7477658125,108.2262137375,65.0,98.0
528,108.2650068125,108.35121364583334,70.0,57.0
529,108.2650068125,108.3619895,65.0,58.0
530,108.2650068125,108.37061018333334,62.0,57.0
531,107.4891453125,108.47621355416668,50.0,58.0
532,106.71328381250001,108.55379970416666,46.0,93.0
533,108.52362731250001,108.60336863333333,70.0,70.0
534,108.52362731250001,108.63138585416667,65.0,75.0
535,108.52362731250001,108.63785136666667,62.0,64.0
536,108.0063863125,108.7951788375,58.0,61.0
537,106.9719043125,108.8275064,53.0,72.0
538,108.7822478125,109.62491960833334,72.0,85.0
539,108.7822478125,109.62707477916668,67.0,84.0
540,108.7822478125,109.62922995000001,63.0,84.0
541,109.2994888125,109.9137125,60.0,60.0
542,109.8167298125,110.26500534583334,72.0,93.0
543,109.8167298125,110.26931568750001,67.0,93.0
544,109.8167298125,110.27147085833334,63.0,106.0
545,109.55810931250001,110.31888461666667,51.0,56.0
546,110.0753503125,110.33181564166667,60.0,56.0
547,108.7822478125,110.4244879875,48.0,83.0
548,109.04086831250001,110.4244879875,55.0,61.0
549,110.3339708125,110.44172935416667,72.0,83.0
550,110.3339708125,110.44603969583333,67.0,75.0
551,110.3339708125,110.47190174583334,63.0,75.0
552,110.85121181250001,111.71328014583334,57.0,77.0
553,110.85121181250001,111.7175904875,65.0,93.0
554,110.85121181250001,111.72190082916667,60.0,88.0
555,111.36845281250001,111.98914201250001,53.0,61.0
556,111.88569381250001,112.357676225,65.0,102.0
557,111.88569381250001,112.3641417375,60.0,93.0
558,111.88569381250001,112.36629690833334,57.0,88.0
559,112.1443143125,112.53008989166668,53.0,58.0
560,112.4029348125,112.57319330833334,60.0,65.0
561,112.4029348125,112.57319330833334,65.0,72.0
562,112.4029348125,112.58827950416666,57.0,64.0
563,111.6270733125,112.67017599583333,45.0,63.0
564,111.1098323125,112.67879667916667,48.0,79.0
565,110.85121181250001,112.72405526666667,41.0,81.0
566,112.9201758125,113.81457170833333,70.0,77.0
567,112.9201758125,113.81672687916667,62.0,74.0
568,112.9201758125,113.82103722083333,65.0,85.0
569,113.4374168125,114.04948532916667,58.0,59.0
570,114.21327831250001,114.504226375,58.0,47.0
571,113.9546578125,114.56672632916667,70.0,88.0
572,113.9546578125,114.57750218333334,65.0,98.0
573,113.9546578125,114.59043320833334,62.0,96.0
574,113.1787963125,114.6206056,53.0,68.0
575,112.9201758125,114.68957106666667,46.0,91.0
576,114.9891398125,115.83827712083334,60.0,79.0
577,114.9891398125,115.849052975,65.0,88.0
578,114.9891398125,115.85767365833334,57.0,67.0
579,115.5063808125,116.02577698333334,53.0,65.0
580,116.2822423125,116.44172495416667,53.0,58.0
581,116.02362181250001,116.8124143375,57.0,79.0
582,116.02362181250001,116.8447419,60.0,93.0
583,116.02362181250001,116.8512074125,65.0,96.0
584,114.9891398125,116.87275912083334,41.0,79.0
585,115.7650013125,116.88784531666667,45.0,61.0
586,116.54086281250001,116.98913834583334,53.0,72.0
587,115.2477603125,117.10982791250001,48.0,88.0
588,117.05810381250001,117.95465487916667,67.0,88.0
589,117.05810381250001,117.9632755625,62.0,93.0
590,117.05810381250001,117.97189624583334,58.0,81.0
591,117.8339653125,118.46543036666667,55.0,12.0
592,117.5753448125,118.56241305416667,50.0,73.0
593,118.0925858125,118.57749925,67.0,93.0
594,118.0925858125,118.59474061666667,62.0,91.0
595,118.0925858125,118.616292325,58.0,83.0
596,117.05810381250001,118.6227578375,43.0,77.0
597,119.1270678125,119.7930156,62.0,84.0
598,119.9029293125,120.00206717083334,62.0,38.0
599,119.1270678125,120.06672229583334,57.0,79.0
600,119.1270678125,120.07103263750001,53.0,75.0
601,120.1615498125,120.79085969583333,62.0,96.0
602,120.1615498125,120.80163555,57.0,91.0
603,120.1615498125,120.8081010625,53.0,84.0
604,119.1270678125,120.8727561875,38.0,77.0
605,120.9374113125,121.03223882916667,55.0,47.0
606,120.67879081250001,121.09473878333334,50.0,60.0
607,119.6443088125,121.20034215416668,45.0,75.0
608,121.19603181250001,122.05163463333334,63.0,88.0
609,121.19603181250001,122.05378980416667,58.0,85.0
610,121.19603181250001,122.055944975,55.0,73.0
611,121.71327281250001,122.30378962083334,51.0,61.0
612,121.19603181250001,122.7865478875,39.0,74.0
613,121.4546523125,122.7994789125,46.0,72.0
614,122.2305138125,122.81456510833334,58.0,81.0
615,122.2305138125,122.81672027916667,63.0,81.0
616,122.2305138125,122.82749613333334,55.0,81.0
617,123.00637531250001,123.10120282916667,62.0,46.0
618,122.7477548125,123.19818551666667,51.0,59.0
619,123.2649958125,124.11197795000001,70.0,79.0
620,123.2649958125,124.11413312083334,62.0,79.0
621,123.2649958125,124.11844346250001,65.0,79.0
622,123.7822368125,124.3382708875,58.0,48.0
623,123.2649958125,124.99990833333334,46.0,79.0
624,124.2994778125,125.004218675,70.0,77.0
625,124.2994778125,125.00637384583334,65.0,77.0
626,124.2994778125,125.01930487083334,62.0,77.0
627,125.0753393125,125.15077029166667,63.0,42.0
628,124.04085731250001,125.25421849166668,50.0,53.0
629,124.8167188125,125.28223571250001,58.0,59.0
630,123.52361631250001,125.40077010833333,53.0,60.0
631,125.3339598125,126.22835570833334,63.0,74.0
632,125.3339598125,126.22835570833334,67.0,77.0
633,125.3339598125,126.22835570833334,72.0,81.0
634,125.5925803125,126.33611425000001,55.0,30.0
635,125.85120081250001,126.43309693750001,60.0,61.0
636,126.36844181250001,126.5365451375,72.0,88.0
637,126.36844181250001,126.5494761625,67.0,88.0
638,126.36844181250001,126.57102787083333,63.0,88.0
639,125.3339598125,126.57964855416667,48.0,91.0
640,126.88568281250001,126.96542413333334,65.0,75.0
641,126.88568281250001,126.96757930416668,57.0,63.0
642,126.88568281250001,126.97404481666668,60.0,77.0
643,126.88568281250001,127.00852755000001,41.0,77.0
644,127.9201648125,129.38999132083333,48.0,67.0
645,127.1443033125,129.44387059166667,60.0,83.0
646,127.1443033125,129.452491275,57.0,83.0
647,127.1443033125,129.452491275,65.0,83.0
648,127.1443033125,129.46973264166667,41.0,83.0
649,129.4718878125,130.26930102083332,62.0,61.0
650,129.4718878125,130.29731824166666,65.0,73.0
651,129.9891288125,130.83395577916667,53.0,57.0
652,129.4718878125,130.88352470833334,46.0,75.0
653,130.5063698125,131.06024871666668,62.0,74.0
654,130.5063698125,131.0753349125,65.0,81.0
655,132.0580928125,132.33826502083335,65.0,69.0
656,131.5408518125,132.41369600000002,57.0,65.0
657,131.5408518125,132.43524770833335,60.0,72.0
658,132.3167133125,132.49774766250002,67.0,63.0
659,132.5753338125,132.81886811666666,69.0,79.0
660,132.8339543125,133.11412652083334,67.0,61.0
661,132.5753338125,133.1960230125,60.0,69.0
662,132.5753338125,133.202488525,57.0,62.0
663,131.5408518125,133.21110920833334,41.0,67.0
664,133.0925748125,133.56886756666668,53.0,47.0
665,133.0925748125,133.60550547083335,62.0,68.0
666,132.0580928125,133.63783303333335,48.0,59.0
667,133.60981581250002,134.51714273333334,55.0,61.0
668,133.60981581250002,134.51929790416668,62.0,66.0
669,133.60981581250002,134.53222892916668,58.0,67.0
670,134.1270568125,135.06671129583333,46.0,57.0
671,133.60981581250002,135.1550733,39.0,67.0
672,134.6442978125,135.17231466666667,62.0,88.0
673,134.6442978125,135.17878017916667,55.0,77.0
674,134.6442978125,135.18524569166667,58.0,77.0
675,135.1615388125,135.57317644166667,51.0,57.0
676,135.6787798125,136.59903775833334,62.0,69.0
677,135.6787798125,136.63136532083334,65.0,75.0
678,136.1960208125,137.05377880416668,53.0,50.0
679,136.7132618125,137.23912349583333,70.0,56.0
680,136.7132618125,137.28438208333333,62.0,66.0
681,136.7132618125,137.28653725416666,65.0,61.0
682,135.6787798125,137.30162345,46.0,57.0
683,137.7477438125,138.64860522083333,55.0,57.0
684,137.7477438125,138.64860522083333,63.0,58.0
685,137.7477438125,138.67662244166667,58.0,48.0
686,138.7822258125,139.6744665375,63.0,73.0
687,138.7822258125,139.7132596125,58.0,68.0
688,138.7822258125,139.71756995416666,55.0,60.0
689,139.29946681250001,139.7520526875,51.0,54.0
690,137.7477438125,139.8296388375,39.0,69.0
691,138.26498481250002,139.86412157083333,46.0,68.0
692,139.8167078125,140.66584512083332,62.0,66.0
693,139.8167078125,140.6701554625,53.0,60.0
694,139.8167078125,140.68524165833333,57.0,57.0
695,140.3339488125,141.25636192916667,45.0,59.0
696,140.8511898125,141.40291354583334,62.0,72.0
697,140.8511898125,141.42446525416668,57.0,71.0
698,140.8511898125,141.45463764583334,53.0,62.0
699,139.8167078125,141.46110315833334,38.0,63.0
700,141.62705131250002,141.71972365833335,55.0,26.0
701,141.8856718125,142.80808492916668,51.0,65.0
702,141.8856718125,142.81886078333335,60.0,67.0
703,141.8856718125,142.83394697916668,55.0,72.0
704,141.8856718125,143.3986017375,36.0,72.0
705,142.92015381250002,143.42015344583334,60.0,74.0
706,142.92015381250002,143.42230861666667,51.0,72.0
707,142.92015381250002,143.43954998333334,55.0,75.0
708,142.4029128125,143.469722375,43.0,64.0
709,143.4373948125,143.92446342083335,48.0,56.0
710,143.95463581250002,144.8986006375,57.0,60.0
711,143.95463581250002,144.91368683333334,65.0,73.0
712,143.95463581250002,144.92015234583334,60.0,63.0
713,144.9891178125,145.80161721666667,65.0,81.0
714,144.9891178125,145.81454824166667,57.0,63.0
715,144.9891178125,145.81454824166667,60.0,73.0
716,145.5063588125,146.04084117916668,53.0,52.0
717,144.4718768125,146.0494618625,48.0,61.0
718,143.95463581250002,146.10980664583334,41.0,63.0
719,146.0235998125,146.9287715625,70.0,69.0
720,146.0235998125,146.93092673333334,62.0,74.0
721,146.0235998125,146.9481681,65.0,84.0
722,147.0580818125,147.50851251666668,70.0,79.0
723,146.5408408125,147.51282285833335,53.0,62.0
724,147.0580818125,147.51713320000002,65.0,79.0
725,147.0580818125,147.53006422500002,62.0,79.0
726,146.0235998125,147.56239178750002,46.0,81.0
727,148.0925638125,149.05377000416667,57.0,62.0
728,148.0925638125,149.0623906875,65.0,70.0
729,148.0925638125,149.07101137083333,60.0,59.0
730,149.1270458125,149.67876954583335,65.0,84.0
731,149.1270458125,149.70894193750001,60.0,77.0
732,149.1270458125,149.71756262083335,57.0,67.0
733,149.6442868125,149.85333838333335,53.0,57.0
734,148.0925638125,150.00851068333333,41.0,71.0
735,148.60980481250002,150.06023478333333,48.0,60.0
736,150.1615278125,151.10118229583333,55.0,62.0
737,150.1615278125,151.10764780833333,63.0,77.0
738,150.1615278125,151.1184236625,58.0,72.0
739,150.6787688125,151.71540598333334,46.0,72.0
740,151.1960098125,151.72402666666667,63.0,83.0
741,151.1960098125,151.72833700833334,55.0,77.0
742,151.1960098125,151.73049217916667,58.0,77.0
743,150.1615278125,151.74988871666667,39.0,85.0
744,151.7132508125,152.19816425000002,51.0,58.0
745,152.23049181250002,153.15721527083335,62.0,85.0
746,152.23049181250002,153.16368078333335,70.0,72.0
747,152.23049181250002,153.16799112500001,65.0,83.0
748,153.26497381250002,153.814542375,70.0,75.0
749,153.26497381250002,153.82962857083334,65.0,88.0
750,153.26497381250002,153.8468699375,62.0,72.0
751,152.7477328125,153.86411130416667,53.0,65.0
752,153.7822148125,153.92661125833334,58.0,56.0
753,152.23049181250002,154.04299048333334,46.0,29.0
754,154.2994558125,155.2046275625,63.0,69.0
755,154.2994558125,155.22833444166668,55.0,61.0
756,154.2994558125,155.22833444166668,58.0,57.0
757,155.3339378125,155.92229945,58.0,77.0
758,155.3339378125,155.92445462083333,63.0,85.0
759,155.3339378125,155.95031667083333,55.0,79.0
760,155.8511788125,156.00419594166667,51.0,50.0
761,154.8166968125,156.03005799166667,46.0,74.0
762,154.2994558125,156.116264825,39.0,83.0
763,156.1097993125,156.1744544375,53.0,43.0
764,156.3684198125,157.30376395416667,53.0,76.0
765,156.3684198125,157.305919125,57.0,76.0
766,156.3684198125,157.30807429583334,62.0,76.0
767,156.3684198125,157.88781525000002,38.0,76.0
768,156.8856608125,157.92445315416668,45.0,74.0
769,157.4029018125,157.92876349583335,53.0,81.0
770,157.4029018125,157.93091866666668,57.0,79.0
771,157.4029018125,157.93307383750002,62.0,83.0
772,157.92014281250002,158.32315975833333,50.0,58.0
773,158.4373838125,159.36410727083333,63.0,84.0
774,158.4373838125,159.37272795416666,67.0,74.0
775,159.4718658125,160.00850335,67.0,74.0
776,159.4718658125,160.03005505833335,63.0,77.0
777,158.95462481250001,160.0537619375,55.0,66.0
778,159.9891068125,160.12272740416668,60.0,52.0
779,158.4373838125,160.16367565000002,48.0,84.0
780,160.7649683125,162.3942774625,57.0,88.0
781,160.7649683125,162.3942774625,65.0,88.0
782,160.7649683125,162.39858780416668,60.0,88.0
783,160.7649683125,162.43522570833335,41.0,88.0
784,162.57531181250002,162.659363475,65.0,87.0
785,162.57531181250002,162.66151864583333,60.0,87.0
786,162.57531181250002,162.68307035416666,57.0,87.0
787,162.57531181250002,162.69600137916666,41.0,87.0
788,162.8339323125,163.58177659166668,41.0,99.0
789,162.8339323125,163.60332830000002,60.0,99.0
790,162.8339323125,163.60979381250002,57.0,99.0
791,162.8339323125,163.60979381250002,65.0,99.0
792,163.60979381250002,164.15720720416667,38.0,85.0
793,163.60979381250002,164.16151754583333,50.0,85.0
794,164.1270348125,164.38996565416667,55.0,84.0
795,164.1270348125,164.4503104375,43.0,84.0
796,164.1270348125,164.469706975,67.0,84.0
797,164.6442758125,165.01496519583333,65.0,127.0
798,164.6442758125,165.21755125416666,70.0,127.0
799,164.6442758125,165.22401676666667,74.0,107.0
800,165.4201373125,165.53867170833334,74.0,88.0
801,165.4201373125,165.555913075,70.0,95.0
802,165.1615168125,165.56022341666667,65.0,86.0
803,164.90289631250002,165.77143015833335,58.0,122.0
804,165.6787578125,165.98263690000002,65.0,122.0
805,165.6787578125,166.03867134166669,74.0,127.0
806,165.6787578125,166.04729202500002,70.0,127.0
807,165.93737831250002,166.06237822083335,58.0,102.0
808,164.6442758125,166.10117129583335,46.0,127.0
809,166.1959988125,166.4158262375,70.0,127.0
810,166.1959988125,166.4416882875,74.0,127.0
811,166.4546193125,166.61410195416667,65.0,90.0
812,166.7132398125,166.87056728333334,69.0,127.0
813,166.7132398125,166.8813431375,72.0,117.0
814,166.7132398125,166.91582587083334,65.0,117.0
815,167.4891013125,167.62056673333333,60.0,100.0
816,167.4891013125,167.62272190416667,69.0,99.0
817,167.4891013125,167.624877075,65.0,100.0
818,167.23048081250002,167.857635525,53.0,89.0
819,167.7477218125,168.1227215375,69.0,127.0
820,167.7477218125,168.12918705,65.0,127.0
821,167.7477218125,168.14642841666668,60.0,127.0
822,166.7132398125,168.20246285833335,41.0,92.0
823,166.9718603125,168.26927315416668,48.0,81.0
824,168.0063423125,168.28004900833335,53.0,112.0
825,168.26496281250002,168.34901447500002,60.0,96.0
826,168.26496281250002,168.42875579583335,69.0,107.0
827,168.26496281250002,168.63780736666666,65.0,122.0
828,168.7822038125,169.48694467500002,67.0,112.0
829,168.7822038125,169.49556535833335,70.0,127.0
830,168.7822038125,169.51065155416669,62.0,112.0
831,169.55806531250002,169.69599624583333,70.0,97.0
832,169.55806531250002,169.69815141666666,62.0,88.0
833,169.55806531250002,169.69815141666666,67.0,95.0
834,169.2994448125,169.9459960625,55.0,90.0
835,169.8166858125,170.20677173333334,62.0,127.0
836,170.0753063125,170.22616827083334,55.0,97.0
837,169.0408243125,170.28004754166668,50.0,73.0
838,168.7822038125,170.31668544583334,43.0,96.0
839,169.8166858125,170.40504745,70.0,127.0
840,169.8166858125,170.4373750125,67.0,127.0
841,170.3339268125,170.67013346250002,62.0,117.0
842,170.59254731250002,170.72832307500002,65.0,83.0
843,170.8511678125,170.86625400833333,68.0,86.0
844,170.8511678125,171.46970184166668,62.0,117.0
845,170.8511678125,171.47616735416668,65.0,122.0
846,170.8511678125,171.478322525,69.0,107.0
847,171.6270293125,171.76927058750002,62.0,100.0
848,171.6270293125,171.77142575833335,65.0,100.0
849,171.6270293125,171.77573610000002,69.0,97.0
850,171.3684088125,172.00849455,50.0,99.0
851,170.8511678125,172.21970129166667,38.0,89.0
852,171.88564981250002,172.22616680416667,62.0,127.0
853,171.1097883125,172.2606495375,45.0,76.0
854,172.1442703125,172.28220124583333,50.0,99.0
855,171.88564981250002,172.409356325,69.0,122.0
856,171.88564981250002,172.4287528625,65.0,127.0
857,172.4028908125,172.55375277083334,62.0,117.0
858,172.92013181250002,173.53866584166667,70.0,99.0
859,172.92013181250002,173.60332096666667,63.0,127.0
860,172.92013181250002,173.62271750416667,67.0,102.0
861,173.6959933125,173.82745873333334,70.0,83.0
862,173.6959933125,173.83607941666668,63.0,97.0
863,173.6959933125,173.83607941666668,67.0,79.0
864,173.4373728125,174.09038957500002,51.0,96.0
865,173.1787523125,174.30806182916666,46.0,37.0
866,172.92013181250002,174.33176870833333,39.0,96.0
867,173.9546138125,174.35332041666666,63.0,127.0
868,174.21323431250002,174.35978592916666,51.0,96.0
869,173.9546138125,174.48909617916667,70.0,127.0
870,173.9546138125,174.5171134,67.0,122.0
871,174.4718548125,174.5623719875,63.0,112.0
872,174.9890958125,175.58823330416666,62.0,117.0
873,174.9890958125,175.6356470625,70.0,112.0
874,174.9890958125,175.65073325833333,65.0,100.0
875,175.7649573125,176.07745708333334,62.0,107.0
876,175.5063368125,176.42874992916668,58.0,112.0
877,176.0235778125,176.42874992916668,70.0,122.0
878,176.0235778125,176.43737061250002,65.0,102.0
879,174.9890958125,176.5537498375,46.0,127.0
880,176.54081881250002,176.62702564583333,70.0,117.0
881,176.54081881250002,176.66150837916666,65.0,112.0
882,177.0580598125,177.711076575,63.0,117.0
883,177.0580598125,177.71323174583333,60.0,122.0
884,177.0580598125,177.72616277083333,55.0,112.0
885,177.8339213125,177.9503005375,63.0,97.0
886,177.8339213125,177.96107639166667,60.0,97.0
887,177.8339213125,177.9632315625,55.0,89.0
888,177.57530081250002,178.2218520625,48.0,100.0
889,178.0925418125,178.42659329166668,55.0,107.0
890,178.0925418125,178.50848978333335,63.0,127.0
891,178.0925418125,178.51495529583335,60.0,127.0
892,177.0580598125,178.54728285833335,36.0,95.0
893,177.3166803125,178.57961042083335,43.0,77.0
894,178.3511623125,178.62702417916668,48.0,102.0
895,178.60978281250001,178.68521379166668,55.0,99.0
896,178.60978281250001,178.75417925833335,60.0,127.0
897,178.60978281250001,178.76926545416669,63.0,127.0
898,179.1270238125,179.5343511,65.0,102.0
899,179.1270238125,179.75202335416668,60.0,122.0
900,179.1270238125,179.75848886666668,69.0,107.0
901,179.90288531250002,180.0515921,65.0,99.0
902,179.90288531250002,180.05590244166666,69.0,100.0
903,179.6442648125,180.28219537916667,53.0,112.0
904,179.1270238125,180.50202280416667,41.0,93.0
905,179.3856443125,180.5235745125,48.0,95.0
906,180.4201263125,180.59685032083334,53.0,112.0
907,180.1615058125,180.68090198333334,65.0,122.0
908,180.1615058125,180.69814335,69.0,127.0
909,180.6787468125,180.74771227916668,60.0,117.0
910,181.1959878125,181.57745305,65.0,102.0
911,181.1959878125,181.6356426625,74.0,99.0
912,181.1959878125,181.78003910833334,70.0,127.0
913,181.9718493125,182.0365044375,74.0,79.0
914,181.9718493125,182.0365044375,74.0,107.0
915,181.9718493125,182.05805614583335,70.0,63.0
916,181.9718493125,182.05805614583335,70.0,127.0
917,181.7132288125,182.20029742083335,65.0,99.0
918,181.4546083125,182.24340083750002,58.0,127.0
919,182.23046981250002,182.61409022083333,70.0,112.0
920,182.23046981250002,182.62055573333333,65.0,127.0
921,182.23046981250002,182.624866075,74.0,122.0
922,182.4890903125,182.6377971,58.0,117.0
923,181.1959878125,182.66581432083333,46.0,122.0
924,182.7477108125,182.78434871666667,65.0,59.0
925,182.7477108125,182.87055555,74.0,100.0
926,182.7477108125,182.883486575,70.0,127.0
927,183.26495181250002,183.82529622916667,65.0,112.0
928,183.26495181250002,183.840382425,69.0,117.0
929,183.26495181250002,183.84253759583333,72.0,107.0
930,184.0408133125,184.0860719,65.0,96.0
931,184.0408133125,184.09038224166667,72.0,95.0
932,184.0408133125,184.09469258333334,69.0,107.0
933,184.2994338125,184.39426132916668,69.0,122.0
934,183.7821928125,184.39857167083335,53.0,117.0
935,184.2994338125,184.40072684166668,65.0,107.0
936,184.2994338125,184.40719235416668,72.0,112.0
937,184.55805431250002,184.85331271666666,53.0,72.0
938,184.8166748125,184.88564027916667,69.0,127.0
939,184.8166748125,184.88995062083333,72.0,117.0
940,184.8166748125,184.89641613333333,65.0,112.0
941,183.26495181250002,184.900726475,41.0,95.0
942,183.5235723125,185.18951936666667,48.0,88.0
943,185.3339158125,185.40072610833334,74.0,112.0
944,185.3339158125,185.41581230416668,70.0,127.0
945,185.3339158125,185.42012264583335,67.0,97.0
946,186.1097773125,186.2002944875,62.0,89.0
947,186.1097773125,186.21107034166667,67.0,97.0
948,186.1097773125,186.2132255125,70.0,99.0
949,185.8511568125,186.40288054583334,55.0,100.0
950,185.59253631250002,186.5688287,50.0,89.0
951,186.3683978125,186.69813895000001,62.0,107.0
952,185.3339158125,186.71538031666668,43.0,78.0
953,186.3683978125,186.73908719583335,67.0,122.0
954,186.6270183125,186.74124236666668,50.0,100.0
955,186.3683978125,186.76710441666668,70.0,127.0
956,186.88563881250002,187.01925940416666,70.0,127.0
957,186.88563881250002,187.13994897083333,67.0,127.0
958,187.1442593125,187.30805229583333,62.0,69.0
959,187.4028798125,188.00848281666669,62.0,112.0
960,187.4028798125,188.01063798750002,65.0,117.0
961,187.4028798125,188.03650003750002,69.0,102.0
962,188.1787413125,188.28003434166666,62.0,97.0
963,188.1787413125,188.28003434166666,65.0,93.0
964,188.1787413125,188.288655025,69.0,83.0
965,187.92012081250002,188.54943069583334,50.0,93.0
966,188.4373618125,188.75201675416668,62.0,122.0
967,187.4028798125,188.792965,38.0,83.0
968,187.6615003125,188.84037875833334,45.0,73.0
969,188.6959823125,188.84899944166668,50.0,100.0
970,188.4373618125,188.935206275,65.0,127.0
971,188.4373618125,189.00201657083335,69.0,127.0
972,188.9546028125,189.04943032916668,62.0,117.0
973,189.4718438125,190.06020545,67.0,127.0
974,189.4718438125,190.08391232916668,63.0,127.0
975,189.4718438125,190.08391232916668,70.0,127.0
976,190.24770531250002,190.32098112083335,70.0,35.0
977,190.24770531250002,190.32960180416669,67.0,59.0
978,190.24770531250002,190.34468800000002,63.0,70.0
979,189.9890848125,190.68304982083333,51.0,122.0
980,190.5063258125,190.92442895416667,63.0,127.0
981,190.5063258125,191.00201510416667,67.0,127.0
982,190.5063258125,191.03218749583334,70.0,127.0
983,189.4718438125,191.04296335,39.0,112.0
984,191.0235668125,191.18304945416668,51.0,122.0
985,191.54080781250002,192.13779013333334,65.0,107.0
986,191.54080781250002,192.1485659875,70.0,127.0
987,191.54080781250002,192.15934184166667,74.0,107.0
988,192.3166693125,192.42227268333335,74.0,93.0
989,192.3166693125,192.426583025,65.0,89.0
990,192.3166693125,192.42873819583335,70.0,112.0
991,192.0580488125,192.65503113333335,58.0,112.0
992,192.8339103125,192.9826171,58.0,122.0
993,191.54080781250002,193.00632397916667,46.0,127.0
994,192.57528981250002,193.06451359166667,70.0,127.0
995,192.57528981250002,193.0666687625,74.0,127.0
996,193.0925308125,193.15287559583334,65.0,100.0
997,193.60977181250001,194.24554720833333,63.0,127.0
998,193.60977181250001,194.25416789166667,60.0,112.0
999,193.60977181250001,194.25847823333334,67.0,100.0
1000,194.3856333125,194.5020125375,60.0,69.0
1001,194.3856333125,194.5020125375,67.0,78.0
1002,194.3856333125,194.50847805,63.0,93.0
1003,194.1270128125,194.71752962083335,48.0,88.0
1004,193.60977181250001,194.92442602083335,36.0,97.0
1005,194.6442538125,194.98908114583335,60.0,102.0
1006,193.86839231250002,195.0300293916667,43.0,74.0
1007,194.90287431250002,195.10115002916666,48.0,102.0
1008,194.6442538125,195.2132189125,63.0,127.0
1009,194.6442538125,195.46106355833334,67.0,100.0
1010,195.1614948125,195.52571868333334,60.0,112.0
1011,195.4201153125,195.55804624583334,63.0,107.0
1012,195.6787358125,197.08175202500001,69.0,107.0
1013,195.6787358125,197.11192441666668,60.0,112.0
1014,195.6787358125,197.12701061250002,65.0,117.0
1015,195.6787358125,197.7476998125,41.0,100.0
1016,196.7132178125,197.7476998125,53.0,92.0
1017,197.23045881250002,197.7476998125,60.0,100.0
1018,197.23045881250002,197.7476998125,65.0,99.0
1019,197.23045881250002,197.7476998125,69.0,96.0
1020,197.7476998125,199.54080194583335,62.0,48.0
1021,197.7476998125,199.63562946250002,46.0,70.0
1022,197.7476998125,199.8166638125,70.0,65.0
1023,197.7476998125,199.90287064583333,65.0,68.0
1024,200.0752843125,200.18950836666667,41.0,97.0
1025,200.0752843125,200.18950836666667,53.0,97.0
1026,200.0752843125,200.20890490416667,63.0,97.0
1027,200.3339048125,200.4308875,41.0,96.0
1028,200.3339048125,200.44166335416668,67.0,96.0
1029,200.3339048125,200.443818525,53.0,96.0
1030,200.59252531250002,200.70890453750002,53.0,95.0
1031,200.59252531250002,200.71321487916669,41.0,95.0
1032,200.59252531250002,200.81450790833335,70.0,95.0
1033,201.1097663125,201.2778696375,53.0,94.0
1034,201.1097663125,201.28433515,41.0,94.0
1035,201.1097663125,201.51278325833334,65.0,94.0
1036,201.88562781250002,202.39424812916667,65.0,94.0
1037,201.88562781250002,202.40717915416667,70.0,94.0
1038,201.88562781250002,202.42011017916667,62.0,94.0
1039,201.88562781250002,202.42442052083334,46.0,94.0
1040,203.96536766666668,204.16795372500002,41.0,94.0
1041,203.9675228375,204.18735026250002,65.0,94.0
1042,203.96536766666668,204.19381577500002,60.0,94.0
1043,203.9675228375,204.19597094583335,57.0,94.0
1044,204.3339018791667,204.51278105833333,65.0,93.0
1045,204.30588465833335,204.51493622916666,41.0,93.0
1046,204.3339018791667,204.52140174166666,60.0,93.0
1047,204.33174670833336,204.53433276666667,57.0,93.0
1048,204.69812575,204.80588429166667,60.0,92.0
1049,204.69597057916667,204.80588429166667,65.0,92.0
1050,204.69597057916667,204.814504975,57.0,92.0
1051,204.68303955416667,204.81881531666667,41.0,92.0
1052,204.98476347083334,205.17657367500001,41.0,92.0
1053,204.99122898333334,205.17657367500001,60.0,92.0
1054,204.9890738125,205.17657367500001,65.0,92.0
1055,204.9890738125,205.18950470000001,57.0,92.0
1056,206.0235558125,206.59898642500002,62.0,122.0
1057,206.0235558125,206.62700364583335,67.0,127.0
1058,206.0235558125,206.63346915833336,70.0,127.0
1059,206.7994173125,206.9028655125,62.0,95.0
1060,206.7994173125,206.92010687916667,67.0,95.0
1061,206.7994173125,206.92226205,70.0,97.0
1062,206.54079681250002,207.10545157083334,55.0,107.0
1063,206.2821763125,207.167951525,50.0,90.0
1064,207.0580378125,207.43519270833335,62.0,127.0
1065,207.0580378125,207.452434075,67.0,127.0
1066,207.0580378125,207.4718306125,70.0,127.0
1067,206.0235558125,207.53433056666668,43.0,99.0
1068,207.3166583125,207.54079607916668,50.0,90.0
1069,207.57527881250002,207.82312345833333,70.0,127.0
1070,207.57527881250002,207.930882,67.0,127.0
1071,207.8338993125,207.99122678333333,62.0,93.0
1072,208.0925198125,208.68303662083335,62.0,127.0
1073,208.0925198125,208.70243315833335,65.0,117.0
1074,208.0925198125,208.71967452500002,69.0,112.0
1075,208.86838131250002,208.96751917083336,65.0,102.0
1076,208.86838131250002,208.97398468333333,62.0,96.0
1077,208.86838131250002,208.98045019583333,69.0,99.0
1078,208.6097608125,209.21967415833333,50.0,100.0
1079,209.1270018125,209.23476035416667,62.0,107.0
1080,208.0925198125,209.4373464125,38.0,92.0
1081,208.3511403125,209.51277739166667,45.0,81.0
1082,209.3856223125,209.5407946125,50.0,122.0
1083,209.1270018125,209.59682905416668,65.0,127.0
1084,209.1270018125,209.67226003333334,69.0,127.0
1085,209.6442428125,209.71751862083335,62.0,117.0
1086,210.1614838125,210.76062130416668,67.0,127.0
1087,210.1614838125,210.7821730125,70.0,127.0
1088,210.1614838125,210.79079369583334,63.0,127.0
1089,210.9373453125,211.01924180416668,67.0,100.0
1090,210.9373453125,211.03217282916668,70.0,95.0
1091,210.9373453125,211.03648317083335,63.0,96.0
1092,210.6787248125,211.2994140125,51.0,107.0
1093,211.19596581250002,211.55372417083333,67.0,127.0
1094,210.4201043125,211.57743105,46.0,54.0
1095,211.19596581250002,211.61406895416667,63.0,127.0
1096,210.1614838125,211.6226896375,39.0,100.0
1097,211.19596581250002,211.72829300833334,70.0,127.0
1098,211.4545863125,211.73475852083334,51.0,112.0
1099,211.7132068125,211.81234467083334,67.0,99.0
1100,212.23044781250002,212.81880945,65.0,117.0
1101,212.23044781250002,212.8511370125,74.0,102.0
1102,212.23044781250002,212.85544735416667,70.0,127.0
1103,213.0063093125,213.08174029166668,74.0,63.0
1104,213.0063093125,213.1097575125,70.0,82.0
1105,213.0063093125,213.11191268333334,65.0,79.0
1106,212.7476888125,213.34036079166668,58.0,112.0
1107,213.26492981250001,213.37484352500002,65.0,107.0
1108,213.52355031250002,213.63561919583333,58.0,122.0
1109,212.23044781250002,213.65717090416666,46.0,117.0
1110,213.26492981250001,213.74984325,74.0,127.0
1111,213.26492981250001,213.75415359166666,70.0,127.0
1112,213.7821708125,213.8468259375,65.0,127.0
1113,214.2994118125,214.95027340416667,63.0,127.0
1114,214.2994118125,214.95458374583333,60.0,127.0
1115,214.2994118125,214.9653596,67.0,127.0
1116,215.0752733125,215.159324975,67.0,74.0
1117,215.0752733125,215.1657904875,63.0,96.0
1118,215.0752733125,215.17656634166667,60.0,77.0
1119,215.0752733125,215.2433766375,48.0,34.0
1120,215.3338938125,215.58173845833335,60.0,122.0
1121,214.2994118125,215.70242802500002,36.0,96.0
1122,214.8166528125,215.75846246666669,43.0,60.0
1123,215.3338938125,215.76061763750002,63.0,127.0
1124,215.59251431250001,215.85328998333335,48.0,112.0
1125,215.3338938125,215.99768642916666,67.0,102.0
1126,215.85113481250002,216.06880706666666,60.0,112.0
1127,216.1097553125,216.19811731666667,60.0,53.0
1128,216.1097553125,216.219669025,63.0,122.0
1129,216.3683758125,216.95242710833335,69.0,117.0
1130,216.3683758125,216.95673745000002,65.0,117.0
1131,216.3683758125,216.97828915833335,60.0,117.0
1132,217.1442373125,217.27139239166667,60.0,97.0
1133,217.1442373125,217.27139239166667,69.0,97.0
1134,217.1442373125,217.280013075,65.0,100.0
1135,216.88561681250002,217.5450990875,53.0,117.0
1136,217.4028578125,217.758461,65.0,127.0
1137,217.4028578125,217.758461,69.0,122.0
1138,217.4028578125,217.80587475833335,60.0,127.0
1139,216.3683758125,217.8101851,41.0,96.0
1140,216.6269963125,217.85113334583335,48.0,96.0
1141,217.6614783125,217.92225398333335,53.0,117.0
1142,217.92009881250002,217.97613325416668,60.0,43.0
1143,217.92009881250002,217.99121945000002,65.0,127.0
1144,217.92009881250002,217.99552979166668,69.0,117.0
1145,218.4373398125,218.831736075,65.0,107.0
1146,218.4373398125,219.04940832916668,70.0,122.0
1147,218.4373398125,219.06449452500001,74.0,97.0
1148,219.21320131250002,219.32958053750002,74.0,75.0
1149,218.9545808125,219.34251156250002,65.0,74.0
1150,219.21320131250002,219.3468219041667,70.0,85.0
1151,218.6959603125,219.56018381666667,58.0,100.0
1152,219.4718218125,219.73475265416667,65.0,112.0
1153,219.7304423125,219.8468215375,53.0,42.0
1154,218.4373398125,219.8597525625,46.0,127.0
1155,219.7304423125,219.8726835875,58.0,122.0
1156,219.4718218125,219.98044212916668,74.0,102.0
1157,219.4718218125,219.98690764166668,70.0,127.0
1158,219.9890628125,220.1183730625,65.0,112.0
1159,220.50630381250002,220.61190718333333,69.0,112.0
1160,220.50630381250002,220.6226830375,65.0,107.0
1161,220.50630381250002,220.6226830375,72.0,102.0
1162,221.2821653125,221.40069970833335,69.0,56.0
1163,221.2821653125,221.41363073333335,65.0,66.0
1164,221.2821653125,221.42225141666668,60.0,68.0
1165,221.0235448125,221.68302708750002,53.0,95.0
1166,221.54078581250002,221.89207865833333,60.0,117.0
1167,221.7994063125,222.03431993333334,53.0,107.0
1168,220.50630381250002,222.03647510416667,41.0,82.0
1169,220.7649243125,222.07742335,48.0,73.0
1170,221.54078581250002,222.09466471666667,65.0,122.0
1171,221.54078581250002,222.11190608333334,69.0,107.0
1172,222.0580268125,222.17656120833334,60.0,127.0
1173,222.57526781250002,223.21535355,62.0,127.0
1174,222.57526781250002,223.26707765,67.0,127.0
1175,222.57526781250002,223.27569833333334,70.0,127.0
1176,223.3511293125,223.49121541666668,70.0,95.0
1177,223.3511293125,223.49552575833334,62.0,93.0
1178,223.3511293125,223.49768092916668,67.0,90.0
1179,223.0925088125,223.75630142916668,55.0,107.0
1180,223.6097498125,224.01276675833336,62.0,117.0
1181,223.6097498125,224.01276675833336,67.0,127.0
1182,223.6097498125,224.02785295416666,70.0,127.0
1183,223.86837031250002,224.1399218375,55.0,107.0
1184,222.83388831250002,224.2563010625,50.0,88.0
1185,222.57526781250002,224.27354242916667,43.0,95.0
1186,224.1269908125,224.31233550416667,70.0,127.0
1187,224.1269908125,224.3791458,67.0,117.0
1188,224.3856113125,224.4373354125,65.0,48.0
1189,224.1269908125,224.51061122083334,62.0,92.0
1190,224.6442318125,225.2907830625,65.0,117.0
1191,224.6442318125,225.29940374583333,62.0,117.0
1192,224.6442318125,225.31233477083333,69.0,112.0
1193,225.4200933125,225.56448975833334,65.0,92.0
1194,225.4200933125,225.57311044166667,69.0,89.0
1195,225.16147281250002,225.77138615833334,50.0,99.0
1196,224.6442318125,226.04509285416668,38.0,96.0
1197,224.90285231250002,226.07311007500002,45.0,60.0
1198,225.9373343125,226.10328246666668,50.0,112.0
1199,225.6787138125,226.19595481250002,65.0,127.0
1200,225.6787138125,226.22828237500002,69.0,127.0
1201,226.19595481250002,226.2907823291667,62.0,127.0
1202,226.7131958125,227.36621257500002,67.0,127.0
1203,226.7131958125,227.37914360000002,70.0,122.0
1204,226.7131958125,227.38776428333335,63.0,127.0
1205,227.48905731250002,227.58819517083333,67.0,90.0
1206,227.48905731250002,227.59681585416666,70.0,85.0
1207,227.48905731250002,227.60974687916666,63.0,95.0
1208,227.23043681250002,227.88560874583334,51.0,59.0
1209,227.7476778125,228.0192293375,63.0,127.0
1210,226.7131958125,228.07526377916668,39.0,117.0
1211,227.7476778125,228.13776373333334,67.0,127.0
1212,228.0062983125,228.193798175,51.0,100.0
1213,227.7476778125,228.30155671666668,70.0,127.0
1214,228.2649188125,228.33172910833335,63.0,127.0
1215,228.7821598125,229.38129730416668,70.0,127.0
1216,228.7821598125,229.38776281666668,74.0,99.0
1217,228.7821598125,229.4157800375,65.0,102.0
1218,229.55802131250002,229.68302122083335,74.0,93.0
1219,229.55802131250002,229.68733156250002,65.0,70.0
1220,229.55802131250002,229.68733156250002,70.0,112.0
1221,229.2994008125,229.9071589875,58.0,102.0
1222,229.8166418125,230.0494002625,65.0,117.0
1223,230.0752623125,230.22827944166667,58.0,112.0
1224,228.7821598125,230.236900125,46.0,122.0
1225,229.8166418125,230.2950897375,74.0,127.0
1226,229.8166418125,230.29940007916667,70.0,127.0
1227,230.3338828125,230.3985379375,65.0,127.0
1228,230.85112381250002,231.5106060875,60.0,112.0
1229,230.85112381250002,231.51491642916668,63.0,127.0
1230,230.85112381250002,231.5170716,67.0,107.0
1231,231.6269853125,231.74551970833335,60.0,88.0
1232,231.6269853125,231.74983005,67.0,82.0
1233,231.6269853125,231.76060590416668,63.0,102.0
1234,231.3683648125,232.0062953791667,48.0,102.0
1235,231.88560581250002,232.17870904583333,60.0,107.0
1236,230.85112381250002,232.33388134583333,36.0,88.0
1237,231.1097443125,232.35974339583333,43.0,83.0
1238,231.88560581250002,232.42439852083334,63.0,127.0
1239,232.1442263125,232.461036425,48.0,102.0
1240,231.88560581250002,232.564484625,67.0,117.0
1241,232.4028468125,232.7649155125,60.0,112.0
1242,232.6614673125,232.78646722083334,63.0,117.0
1243,232.92008781250001,233.38344954166666,65.0,112.0
1244,232.92008781250001,233.58172525833334,60.0,112.0
1245,232.92008781250001,233.59465628333334,69.0,100.0
1246,233.6959493125,233.81017336666667,69.0,57.0
1247,233.6959493125,233.81448370833334,65.0,70.0
1248,233.6959493125,233.83603541666668,60.0,66.0
1249,233.4373288125,234.07310420833335,53.0,100.0
1250,233.9545698125,234.31879368333335,65.0,127.0
1251,232.92008781250001,234.34250056250002,41.0,92.0
1252,233.17870831250002,234.35758675833335,48.0,85.0
1253,234.21319031250002,234.46750047083333,53.0,107.0
1254,233.9545698125,234.5106038875,60.0,127.0
1255,234.4718108125,234.54077627916666,65.0,102.0
1256,233.9545698125,234.54508662083333,69.0,107.0
1257,234.9890518125,235.68086165,74.0,100.0
1258,234.9890518125,235.84465463333333,65.0,112.0
1259,234.9890518125,235.87698219583334,70.0,127.0
1260,236.0235338125,236.081723425,65.0,74.0
1261,235.50629281250002,236.12913718333334,58.0,89.0
1262,236.0235338125,236.61405062083335,70.0,127.0
1263,236.0235338125,236.71749882083336,74.0,102.0
1264,234.9890518125,236.89422282916667,46.0,112.0
1265,236.2821543125,236.9998262,58.0,99.0
1266,236.54077481250002,237.02568825,65.0,97.0
1267,237.0580158125,237.44163622083335,46.0,102.0
1268,237.3166363125,237.63991193750002,58.0,72.0
1269,237.3166363125,237.63991193750002,70.0,72.0
1270,237.57525681250002,237.8705152166667,57.0,65.0
1271,237.57525681250002,237.8705152166667,69.0,65.0
1272,237.83387731250002,238.11404952083333,53.0,62.0
1273,237.83387731250002,238.11404952083333,65.0,62.0
1274,238.0924978125,238.3769803625,46.0,75.0
1275,238.0924978125,238.3769803625,58.0,75.0
1276,238.34034245833334,238.46965270833334,45.0,93.0
1277,238.34034245833334,238.46965270833334,57.0,93.0
1278,238.59249744583335,238.70025598750001,41.0,79.0
1279,238.59249744583335,238.70025598750001,53.0,79.0
1280,238.83603175000002,239.0601695166667,38.0,93.0
1281,238.83603175000002,239.0601695166667,50.0,93.0
1282,239.1269798125,240.659306275,46.0,72.0
1283,239.1269798125,240.6657717875,58.0,91.0
1284,239.1269798125,240.67008212916667,63.0,91.0
1285,239.1269798125,240.67439247083334,55.0,84.0
1286,239.1269798125,240.685168325,39.0,83.0
1287,239.3856003125,240.8209440875,51.0,91.0
1288,241.7131848125,242.8381839875,58.0,87.0
1289,241.19594381250002,242.85327018333334,46.0,89.0
1290,241.19594381250002,242.86835637916667,70.0,89.0
1291,241.19594381250002,242.8769770625,65.0,89.0
1292,241.19594381250002,242.909304625,62.0,89.0
1293,243.0062873125,243.0515459,63.0,85.0
1294,243.0062873125,243.08171829166668,67.0,85.0
1295,241.7131848125,243.20240785833334,53.0,87.0
1296,243.2649078125,244.7756825666667,72.0,85.0
1297,244.2993898125,244.78430325000002,60.0,83.0
1298,243.2649078125,244.8015446166667,63.0,85.0
1299,243.2649078125,244.80369978750002,67.0,85.0
1300,243.7821488125,244.86619974166666,55.0,84.0
1301,244.81663081250002,244.94378589166666,67.0,83.0
1302,244.81663081250002,244.94378589166666,72.0,83.0
1303,244.81663081250002,244.9588720875,63.0,83.0
1304,243.2649078125,244.97395828333333,48.0,85.0
1305,245.3338718125,246.28214697916667,57.0,81.0
1306,245.3338718125,246.30585385833334,60.0,81.0
1307,245.3338718125,246.30800902916667,65.0,81.0
1308,246.3683538125,249.35111024583335,60.0,79.0
1309,246.3683538125,249.3532654166667,65.0,79.0
1310,246.3683538125,249.35757575833335,57.0,79.0
1311,245.85111281250002,249.36404127083335,48.0,80.0
1312,245.3338718125,249.40714468750002,41.0,81.0
1313,249.39636883333336,250.96748837083334,67.0,60.0
1314,249.47179981250002,250.96748837083334,75.0,62.0
1315,249.46533430000002,250.9847297375,70.0,66.0
1316,249.47395498333336,251.04076417916667,63.0,74.0
1317,251.45455697916668,252.05369447083334,65.0,58.0
1318,251.48688454166668,252.1873150625,70.0,69.0
1319,251.54076381250002,252.23041847916667,74.0,77.0
1320,251.53645347083335,252.28214257916667,58.0,71.0
1321,252.57524581250001,252.94378002500002,65.0,84.0
1322,252.83386631250002,253.14636608333333,70.0,63.0
1323,253.0924868125,253.357572825,72.0,66.0
1324,253.3511073125,253.5838657625,74.0,67.0
1325,253.6097278125,254.13127915416666,72.0,84.0
1326,253.6097278125,254.3080031625,51.0,69.0
1327,253.6097278125,254.38343414166667,39.0,72.0
1328,254.3855893125,254.92438202083335,69.0,91.0
1329,254.3855893125,255.20886457083336,50.0,66.0
1330,254.3855893125,255.2562783291667,38.0,75.0
1331,255.16145081250002,255.48257126666667,67.0,93.0
1332,255.16145081250002,255.54507122083334,48.0,73.0
1333,255.16145081250002,255.59248497916667,36.0,60.0
1334,255.6786918125,258.7756723,65.0,93.0
1335,255.6786918125,259.4028270125,60.0,66.0
1336,255.6786918125,259.4114476958333,57.0,64.0
1337,255.6786918125,259.435154575,53.0,50.0
1338,255.6786918125,259.48256833333335,41.0,57.0
1339,260.0601541166667,264.85325405000003,58.0,43.0
1340,259.62480960833335,264.86834024583334,46.0,57.0
1341,259.82093015416666,264.88127127083334,53.0,67.0
1342,259.5838613625,264.89420229583334,65.0,63.0
1343,259.771361225,264.8963574666667,69.0,12.0
1344,259.5709303375,264.9092884916667,62.0,38.0
1345,265.7648913125,266.0019601041667,89.0,50.0
1346,266.02351181250003,267.55799344583335,93.0,60.0
