,start,end,pitch,velocity
0,15.108185537499999,15.31527476875,72.0,127.0
1,15.3320657875,15.440274574999998,74.0,96.0
2,15.555946037499998,15.7574382625,74.0,127.0
3,15.779826287499999,15.878706731249999,76.0,95.0
4,16.003706537499998,16.75183970625,76.0,127.0
5,16.8992275375,17.01303333125,76.0,127.0
6,17.123107787499997,17.376838737499998,76.0,127.0
7,17.570868287499998,17.85631560625,74.0,127.0
8,18.0186287875,18.3544491625,74.0,127.0
9,18.466389287499997,19.332059587499998,72.0,127.0
10,20.481311537499998,20.5783263125,72.0,122.0
11,20.7051917875,21.09138521875,72.0,112.0
12,21.1529522875,21.494369668749997,71.0,100.0
13,21.600712787499997,22.059667299999997,71.0,100.0
14,22.0484732875,22.824591487499998,69.0,95.0
15,22.943994287499997,23.26302364375,76.0,100.0
16,23.3917547875,24.542872406249998,67.0,85.0
17,24.735036287499998,24.932797174999997,65.0,97.0
18,24.9589165375,25.231304175,64.0,69.0
19,25.1827967875,25.7574227625,65.0,112.0
20,25.630557287499997,25.942123968749996,76.0,117.0
21,26.078317787499998,26.37869045625,76.0,112.0
22,26.5260782875,26.710779493749996,77.0,127.0
23,26.749958537499996,26.86749566875,76.0,112.0
24,26.973838787499997,27.356300881249997,76.0,112.0
25,27.421599287499998,28.2574188875,74.0,122.0
26,29.4365215375,29.647342106249997,72.0,117.0
27,29.660401787499996,29.766744906249997,74.0,112.0
28,29.884282037499997,30.0932369375,74.0,112.0
29,30.108162287499997,30.2051770625,76.0,99.0
30,30.332042537499998,30.790997049999998,76.0,127.0
31,31.227563537499996,31.374951368749997,76.0,122.0
32,31.451443787499997,31.863756581249998,76.0,117.0
33,31.899204287499998,32.1977112875,74.0,102.0
34,32.3469647875,32.80032229375,74.0,112.0
35,32.7947252875,33.624947881249994,72.0,107.0
36,34.8096475375,34.915990656249996,72.0,127.0
37,35.0335277875,35.41598988125,72.0,127.0
38,35.4812882875,35.774198281249994,71.0,99.0
39,35.929048787499994,36.26673483125,71.0,112.0
40,36.376809287499995,37.04285303125,69.0,117.0
41,37.2723302875,37.589493974999996,76.0,112.0
42,37.7200907875,38.55404471875,67.0,107.0
43,39.063372287499995,39.287252537499995,65.0,127.0
44,39.287252537499995,39.526058137499994,64.0,81.0
45,39.511132787499996,39.85628150625,65.0,100.0
46,39.9588932875,40.276056974999996,69.0,99.0
47,40.4066537875,40.733145818749996,72.0,112.0
48,40.8544142875,41.130533262499995,69.0,107.0
49,41.30217478749999,41.658517518749996,74.0,127.0
50,41.749935287499994,41.983143881249994,74.0,122.0
51,41.973815537499995,42.2275464875,72.0,107.0
52,42.197695787499995,42.442098393749994,74.0,112.0
53,42.6454562875,42.8618738625,74.0,127.0
54,42.8693365375,42.975679656249994,72.0,112.0
55,43.0932167875,44.2387374,72.0,122.0
56,46.89918103749999,47.21821039375,79.0,127.0
57,47.346941537499994,47.5484337625,72.0,127.0
58,47.570821787499995,47.789105031249996,71.0,97.0
59,47.794702037499995,48.188358143749994,72.0,127.0
60,48.242462537499996,48.494327818749994,79.0,127.0
61,48.6902230375,48.9961927125,79.0,127.0
62,49.1379835375,49.380520475,71.0,102.0
63,49.58574403749999,50.231265425,71.0,112.0
64,50.481265037499995,50.76111535,79.0,127.0
65,50.929025537499996,51.156637124999996,72.0,127.0
66,51.152905787499996,51.37118903125,71.0,97.0
67,51.3767860375,51.7424571125,72.0,117.0
68,51.8245465375,52.13238188125,79.0,127.0
69,52.27230703749999,52.58760505625,79.0,127.0
70,52.72006753749999,52.83760466875,71.0,112.0
71,53.167828037499994,53.630513887499994,71.0,127.0
72,53.615588537499995,53.753648025,72.0,127.0
73,54.0633490375,54.365587375,67.0,112.0
74,54.5111095375,54.6678257125,72.0,127.0
75,54.7349897875,54.86558659999999,71.0,100.0
76,54.95887003749999,55.2051383125,72.0,127.0
77,55.40663053749999,55.850659699999994,76.0,122.0
78,56.078271287499994,56.212599437499996,67.0,102.0
79,56.302151537499995,56.468196056249994,72.0,102.0
80,56.526031787499996,56.6566286,71.0,107.0
81,56.749912037499996,56.89729986875,72.0,127.0
82,56.9737922875,57.09692642499999,74.0,112.0
83,57.1976725375,57.5111048875,76.0,117.0
84,57.6454330375,57.92901468749999,76.0,122.0
85,58.09319353749999,58.369312512499995,72.0,107.0
86,58.54095403749999,58.845058043749994,76.0,127.0
87,58.988714537499995,59.23871414999999,72.0,117.0
88,59.660355287499996,59.751773056249995,72.0,117.0
89,59.8842355375,60.03908604375,72.0,122.0
90,60.1081157875,60.22751858749999,71.0,97.0
91,60.3319960375,60.522294249999995,72.0,122.0
92,60.55587628749999,60.64356271875,74.0,107.0
93,60.77975653749999,61.08199487499999,74.0,127.0
94,61.22751703749999,61.54654639374999,79.0,127.0
95,61.675277537499994,61.8767697625,72.0,127.0
96,61.899157787499995,62.117441031249996,71.0,97.0
97,62.123038037499995,62.516694143749994,72.0,127.0
98,62.570798537499996,62.822663818749994,79.0,127.0
99,63.0185590375,63.3245287125,79.0,127.0
100,63.46631953749999,63.708856475,71.0,102.0
101,63.91408003749999,64.559601425,71.0,112.0
102,64.80960103749999,65.08945134999999,79.0,127.0
103,65.25736153749999,65.484973125,72.0,127.0
104,65.4812417875,65.69952503124999,71.0,97.0
105,65.70512203749999,66.0707931125,72.0,117.0
106,66.15288253749999,66.46071788124999,79.0,127.0
107,66.60064303749999,66.91594105624999,79.0,127.0
108,67.0484035375,67.48683569375,77.0,122.0
109,67.4961640375,67.88982014375,76.0,112.0
110,67.9439245375,68.16220778124999,72.0,112.0
111,68.3916850375,68.693923375,67.0,112.0
112,68.8394455375,68.9961617125,72.0,127.0
113,69.06332578749999,69.1939226,71.0,100.0
114,69.2872060375,69.53347431249999,72.0,127.0
115,69.7349665375,70.17899569999999,76.0,122.0
116,70.4066072875,70.5409354375,67.0,102.0
117,70.63048753749999,70.79653205624999,72.0,102.0
118,70.8543677875,70.9849646,71.0,107.0
119,71.07824803749999,71.22563586874999,72.0,127.0
120,71.3021282875,71.425262425,74.0,112.0
121,71.52600853749999,71.83944088749999,76.0,117.0
122,71.97376903749999,72.3879475,77.0,127.0
123,72.42152953749999,72.7125738625,76.0,107.0
124,72.8692900375,73.30025951875,74.0,127.0
125,73.3170505375,73.63607989375,72.0,122.0
126,74.2125715375,74.5334665625,76.0,127.0
127,74.6603320375,75.14913725,74.0,127.0
128,75.33197278749999,75.4289875625,72.0,117.0
129,75.5558530375,77.83010324374999,72.0,117.0
130,83.16778153749999,83.37487076874999,72.0,127.0
131,83.3916617875,83.49987057499999,74.0,96.0
132,83.61554203749999,83.81703426249999,74.0,127.0
133,83.8394222875,83.93830273124999,76.0,95.0
134,84.0633025375,84.81143570625,76.0,127.0
135,84.9588235375,85.07262933125,76.0,127.0
136,85.18270378749999,85.4364347375,76.0,127.0
137,85.63046428749999,85.91591160624999,74.0,127.0
138,86.07822478749999,86.41404516249999,74.0,127.0
139,86.52598528749999,87.3916555875,72.0,127.0
140,88.54090753749999,88.6379223125,72.0,122.0
141,88.7647877875,89.15098121874999,72.0,112.0
142,89.2125482875,89.55396566875,71.0,100.0
143,89.66030878749999,90.11926329999999,71.0,100.0
144,90.10806928749999,90.88418748749999,69.0,95.0
145,91.00359028749999,91.32261964374999,76.0,100.0
146,91.45135078749999,92.60246840625,67.0,85.0
147,92.7946322875,92.99239317499999,65.0,97.0
148,93.01851253749999,93.29090017499999,64.0,69.0
149,93.2423927875,93.8170187625,65.0,112.0
150,93.6901532875,94.00171996875,76.0,117.0
151,94.1379137875,94.43828645625,76.0,112.0
152,94.5856742875,94.77037549375,77.0,127.0
153,94.80955453749999,94.92709166875,76.0,112.0
154,95.03343478749998,95.41589688124999,76.0,112.0
155,95.48119528749999,96.3170148875,74.0,122.0
156,97.4961175375,97.70693810624999,72.0,117.0
157,97.71999778749999,97.82634090625,74.0,112.0
158,97.94387803749999,98.1528329375,74.0,112.0
159,98.16775828749999,98.2647730625,76.0,99.0
160,98.39163853749999,98.85059304999999,76.0,127.0
161,99.28715953749999,99.43454736874999,76.0,122.0
162,99.5110397875,99.92335258124999,76.0,117.0
163,99.9588002875,100.2573072875,74.0,102.0
164,100.40656078749998,100.85991829374998,74.0,112.0
165,100.85432128749999,101.68454388125,72.0,107.0
166,102.8692435375,102.97558665624999,72.0,127.0
167,103.09312378749999,103.47558588124998,72.0,127.0
168,103.54088428749999,103.83379428125,71.0,99.0
169,103.9886447875,104.32633083124999,71.0,112.0
170,104.4364052875,105.10244903124999,69.0,117.0
171,105.3319262875,105.649089975,76.0,112.0
172,105.7796867875,106.61364071874999,67.0,107.0
173,107.12296828749999,107.3468485375,65.0,127.0
174,107.3468485375,107.58565413749999,64.0,81.0
175,107.57072878749999,107.91587750624998,65.0,100.0
176,108.01848928749999,108.33565297499999,69.0,99.0
177,108.46624978749999,108.79274181874999,72.0,112.0
178,108.91401028749999,109.1901292625,69.0,107.0
179,109.36177078749999,109.71811351874999,74.0,127.0
180,109.8095312875,110.04273988124999,74.0,122.0
181,110.03341153749999,110.28714248749999,72.0,107.0
182,110.2572917875,110.50169439374999,74.0,112.0
183,110.7050522875,110.92146986249999,74.0,127.0
184,110.92893253749999,111.03527565625,72.0,112.0
185,111.1528127875,112.29833339999999,72.0,122.0
186,114.95877703749998,115.27780639374998,79.0,127.0
187,115.40653753749999,115.6080297625,72.0,127.0
188,115.6304177875,115.84870103124999,71.0,97.0
189,115.85429803749999,116.24795414375,72.0,127.0
190,116.30205853749999,116.55392381875,79.0,127.0
191,116.74981903749999,117.05578871249999,79.0,127.0
192,117.19757953749999,117.440116475,71.0,102.0
193,117.64534003749999,118.29086142499999,71.0,112.0
194,118.5408610375,118.82071135,79.0,127.0
195,118.9886215375,119.21623312499999,72.0,127.0
196,119.21250178749999,119.43078503125,71.0,97.0
197,119.4363820375,119.80205311249999,72.0,117.0
198,119.88414253749998,120.19197788124998,79.0,127.0
199,120.33190303749998,120.64720105624998,79.0,127.0
200,120.77966353749999,120.89720066874999,71.0,112.0
201,121.22742403749999,121.69010988749999,71.0,127.0
202,121.67518453749999,121.81324402499999,72.0,127.0
203,122.12294503749999,122.42518337499999,67.0,112.0
204,122.57070553749999,122.72742171249999,72.0,127.0
205,122.79458578749998,122.92518259999999,71.0,100.0
206,123.01846603749999,123.26473431249998,72.0,127.0
207,123.46622653749999,123.9102557,76.0,122.0
208,124.13786728749999,124.27219543749999,67.0,102.0
209,124.3617475375,124.52779205625,72.0,102.0
210,124.58562778749999,124.71622459999999,71.0,107.0
211,124.8095080375,124.95689586875,72.0,127.0
212,125.03338828749999,125.15652242499999,74.0,112.0
213,125.25726853749998,125.5707008875,76.0,117.0
214,125.70502903749998,125.98861068749999,76.0,122.0
215,126.15278953749998,126.42890851249999,72.0,107.0
216,126.60055003749999,126.90465404374999,76.0,127.0
217,127.04831053749999,127.29831014999999,72.0,117.0
218,127.7199512875,127.81136905624999,72.0,117.0
219,127.94383153749999,128.09868204375,72.0,122.0
220,128.1677117875,128.28711458749999,71.0,97.0
221,128.39159203749998,128.58189025,72.0,122.0
222,128.61547228749998,128.70315871875,74.0,107.0
223,128.8393525375,129.141590875,74.0,127.0
224,129.28711303749998,129.60614239375,79.0,127.0
225,129.7348735375,129.93636576249997,72.0,127.0
226,129.9587537875,130.17703703125,71.0,97.0
227,130.18263403749998,130.57629014375,72.0,127.0
228,130.6303945375,130.88225981875,79.0,127.0
229,131.07815503749998,131.38412471249998,79.0,127.0
230,131.5259155375,131.76845247499998,71.0,102.0
231,131.97367603749998,132.61919742499998,71.0,112.0
232,132.8691970375,133.14904735,79.0,127.0
233,133.3169575375,133.54456912499998,72.0,127.0
234,133.54083778749998,133.75912103124998,71.0,97.0
235,133.7647180375,134.13038911249998,72.0,117.0
236,134.21247853749998,134.52031388125,79.0,127.0
237,134.6602390375,134.97553705624998,79.0,127.0
238,135.10799953749998,135.54643169374998,77.0,122.0
239,135.5557600375,135.94941614375,76.0,112.0
240,136.00352053749998,136.22180378124997,72.0,112.0
241,136.4512810375,136.753519375,67.0,112.0
242,136.89904153749998,137.0557577125,72.0,127.0
243,137.1229217875,137.25351859999998,71.0,100.0
244,137.3468020375,137.59307031249998,72.0,127.0
245,137.79456253749998,138.2385917,76.0,122.0
246,138.46620328749998,138.6005314375,67.0,102.0
247,138.6900835375,138.85612805625,72.0,102.0
248,138.9139637875,139.04456059999998,71.0,107.0
249,139.13784403749997,139.28523186874997,72.0,127.0
250,139.36172428749998,139.484858425,74.0,112.0
251,139.5856045375,139.8990368875,76.0,117.0
252,140.03336503749998,140.4475435,77.0,127.0
253,140.4811255375,140.7721698625,76.0,107.0
254,140.92888603749998,141.35985551874998,74.0,127.0
255,141.3766465375,141.69567589374998,72.0,122.0
256,142.2721675375,142.5930625625,76.0,127.0
257,142.71992803749998,143.20873325,74.0,127.0
258,143.39156878749998,143.4885835625,72.0,117.0
259,143.61544903749999,145.88969924375,72.0,117.0
260,149.6602157875,149.84118565625,76.0,122.0
261,149.8840960375,150.11730463125,74.0,117.0
262,150.10797628749998,150.5482741125,72.0,96.0
263,150.5557367875,150.80200506249997,69.0,92.0
264,150.77961703749997,152.13968955624998,72.0,127.0
265,158.39154553749998,158.4960229875,74.0,117.0
266,158.6154257875,158.70311221875,74.0,127.0
267,158.8393060375,159.04639526875,74.0,127.0
268,159.06318628749997,159.31691723749998,74.0,127.0
269,159.28706653749998,159.47549908124998,76.0,122.0
270,159.5109467875,159.71057334374999,77.0,122.0
271,159.7348270375,160.00534900625,77.0,127.0
272,160.18258753749998,160.27400530625,76.0,122.0
273,160.4064677875,160.74788516874997,74.0,127.0
274,160.85422828749998,161.13221293125,72.0,127.0
275,161.9736295375,162.07810698749998,72.0,100.0
276,162.1975097875,162.52400181874998,72.0,112.0
277,162.64527028749998,162.93818028125,79.0,127.0
278,163.0930307875,163.33183638749998,79.0,127.0
279,163.54079128749999,163.753477525,77.0,127.0
280,163.7646715375,164.01653681874998,77.0,100.0
281,164.21243203749998,164.932580175,77.0,112.0
282,165.10795303749998,165.40086303125,77.0,127.0
283,165.5557135375,165.75534009375,74.0,127.0
284,165.77959378749998,165.92325028124998,72.0,93.0
285,166.00347403749998,166.40086148125,74.0,127.0
286,166.4512345375,166.857950325,77.0,127.0
287,166.8989950375,167.15459165624998,77.0,127.0
288,167.34675553749997,167.55757610625,74.0,127.0
289,167.57063578749998,167.71429228124998,72.0,107.0
290,167.7945160375,168.19190348125,74.0,127.0
291,168.24227653749998,168.55944022499997,77.0,127.0
292,169.13779753749998,169.41951351875,76.0,127.0
293,169.5855580375,169.84861733124998,76.0,127.0
294,170.03331853749998,170.32436286249998,77.0,127.0
295,170.4810790375,170.89525749999999,76.0,127.0
296,170.92883953749998,171.3616746875,76.0,127.0
297,171.3766000375,171.74786811874998,78.0,127.0
298,171.82436053749998,172.18630027499998,79.0,127.0
299,172.27212103749997,172.59115039374998,81.0,127.0
300,172.7198815375,172.9213737625,74.0,127.0
301,172.9437617875,173.16204503125,73.0,97.0
302,173.16764203749997,173.56129814374998,74.0,127.0
303,173.6154025375,173.86726781874998,81.0,127.0
304,174.06316303749998,174.36913271249998,81.0,127.0
305,174.5109235375,174.753460475,73.0,102.0
306,174.95868403749998,175.60420542499998,73.0,112.0
307,175.85420503749998,176.13405534999998,81.0,127.0
308,176.3019655375,176.52957712499997,74.0,127.0
309,176.52584578749997,176.74412903125,73.0,97.0
310,176.74972603749998,177.11539711249998,74.0,117.0
311,177.1974865375,177.50532188124998,81.0,127.0
312,177.64524703749998,177.96054505625,81.0,127.0
313,178.09300753749997,178.21054466874998,73.0,112.0
314,178.5407680375,179.00345388749997,73.0,127.0
315,178.98852853749997,179.126588025,74.0,127.0
316,179.4362890375,179.738527375,69.0,112.0
317,179.88404953749998,180.0407657125,74.0,127.0
318,180.10792978749998,180.23852659999997,73.0,100.0
319,180.3318100375,180.5780783125,74.0,127.0
320,180.77957053749998,181.2235997,78.0,122.0
321,181.45121128749997,181.5855394375,69.0,102.0
322,181.67509153749998,181.84113605624998,74.0,102.0
323,181.8989717875,182.02956859999998,73.0,107.0
324,182.1228520375,182.27023986875,74.0,127.0
325,182.34673228749998,182.469866425,76.0,112.0
326,182.57061253749998,182.88404488749998,78.0,117.0
327,183.01837303749997,183.30195468749997,78.0,122.0
328,183.46613353749999,183.7422525125,74.0,107.0
329,183.91389403749997,184.21799804375,78.0,127.0
330,184.3616545375,184.61165415,74.0,117.0
331,185.03329528749998,185.12471305625,74.0,117.0
332,185.2571755375,185.41202604375,74.0,122.0
333,185.4810557875,185.6004585875,73.0,97.0
334,185.70493603749998,185.89523425,74.0,122.0
335,185.92881628749998,186.01650271875,76.0,107.0
336,186.1526965375,186.454934875,76.0,127.0
337,186.60045703749998,186.91948639375,81.0,127.0
338,187.0482175375,187.24970976249998,74.0,127.0
339,187.27209778749997,187.49038103125,73.0,97.0
340,187.49597803749998,187.88963414375,74.0,127.0
341,187.9437385375,188.19560381875,81.0,127.0
342,188.39149903749998,188.69746871249998,81.0,127.0
343,188.83925953749997,189.08179647499998,73.0,102.0
344,189.28702003749999,189.93254142499998,73.0,112.0
345,190.1825410375,190.46239135,81.0,127.0
346,190.63030153749997,190.85791312499998,74.0,127.0
347,190.85418178749998,191.07246503124998,73.0,97.0
348,191.0780620375,191.44373311249998,74.0,117.0
349,191.52582253749998,191.83365788125,81.0,127.0
350,191.9735830375,192.28888105624998,81.0,127.0
351,192.42134353749998,192.85977569374998,79.0,122.0
352,192.8691040375,193.26276014374997,78.0,112.0
353,193.31686453749998,193.53514778124998,74.0,112.0
354,193.7646250375,194.066863375,69.0,112.0
355,194.21238553749998,194.36910171249997,74.0,127.0
356,194.4362657875,194.56686259999998,73.0,100.0
357,194.66014603749997,194.90641431249998,74.0,127.0
358,195.10790653749999,195.55193569999997,78.0,122.0
359,195.77954728749998,195.9138754375,69.0,102.0
360,196.0034275375,196.16947205625,74.0,102.0
361,196.2273077875,196.35790459999998,73.0,107.0
362,196.45118803749997,196.59857586874998,74.0,127.0
363,196.67506828749998,196.79820242499997,76.0,112.0
364,196.8989485375,197.2123808875,78.0,117.0
365,197.34670903749998,197.7608875,79.0,127.0
366,197.7944695375,198.0855138625,78.0,107.0
367,198.24223003749998,198.67319951874998,76.0,127.0
368,198.6899905375,199.00901989374998,74.0,122.0
369,199.58551153749997,199.9064065625,78.0,127.0
370,200.03327203749998,200.52207725,76.0,127.0
371,200.70491278749998,200.80192756249997,74.0,117.0
372,200.9287930375,203.20304324375,74.0,117.0
373,208.09296103749998,208.39519937499998,69.0,112.0
374,208.5407215375,208.69743771249998,74.0,127.0
375,208.76460178749997,208.8951986,73.0,100.0
376,208.98848203749998,209.23475031249998,74.0,127.0
377,209.4362425375,209.88027169999998,78.0,122.0
378,210.1078832875,210.24221143749998,69.0,102.0
379,210.3317635375,210.49780805625,74.0,102.0
380,210.55564378749997,210.6862406,73.0,107.0
381,210.77952403749998,210.92691186874998,74.0,127.0
382,211.0034042875,211.12653842499998,76.0,112.0
383,211.22728453749997,211.54071688749997,78.0,117.0
384,211.67504503749998,211.9586266875,78.0,122.0
385,212.12280553749997,212.39892451249997,74.0,107.0
386,212.5705660375,212.87467004374997,78.0,127.0
387,213.01832653749997,213.26832614999998,74.0,117.0
388,213.68996728749997,213.78138505624997,74.0,117.0
389,213.91384753749998,214.06869804374998,74.0,122.0
390,214.13772778749998,214.25713058749997,73.0,97.0
391,214.3616080375,214.55190624999997,74.0,122.0
392,214.58548828749997,214.67317471874998,76.0,107.0
393,214.80936853749998,215.11160687499998,76.0,127.0
394,215.2571290375,218.648914825,81.0,127.0
395,218.83921303749997,219.09107831875,81.0,127.0
396,219.2869735375,219.52391346874998,74.0,107.0
397,219.51085378749997,219.68809231875,73.0,112.0
398,219.73473403749998,220.08547976249997,74.0,112.0
399,220.1824945375,220.70115044999997,83.0,127.0
400,220.63025503749998,222.14144672499998,81.0,127.0
401,222.42129703749998,222.72353537499998,69.0,112.0
402,222.86905753749997,223.02577371249998,74.0,127.0
403,223.09293778749998,223.2235346,73.0,100.0
404,223.31681803749998,223.5630863125,74.0,127.0
405,223.76457853749997,224.2086077,78.0,122.0
406,224.43621928749997,224.57054743749998,69.0,102.0
407,224.66009953749997,224.82614405624997,74.0,102.0
408,224.88397978749998,225.01457659999997,73.0,107.0
409,225.1078600375,225.25524786875,74.0,127.0
410,225.33174028749997,225.45487442499999,76.0,112.0
411,225.55562053749998,225.86905288749998,78.0,117.0
412,226.0033810375,226.41755949999998,79.0,127.0
413,226.45114153749998,226.74218586249998,78.0,107.0
414,226.8989020375,227.32987151874997,76.0,127.0
415,227.34666253749998,227.66569189375,74.0,122.0
416,228.24218353749998,228.56307856249998,78.0,127.0
417,228.68994403749997,229.17874924999998,76.0,127.0
418,229.3615847875,229.45859956249998,74.0,117.0
419,229.58546503749997,231.85971524374997,74.0,117.0
420,239.66007628749998,239.90261322499998,78.0,127.0
421,239.88395653749998,240.10597111874998,76.0,100.0
422,240.1078367875,240.24029926874996,74.0,95.0
423,240.33171703749997,244.87835178125,74.0,112.0
