,start,end,pitch,velocity
0,0.33208903749999996,1.1977593375,64.0,54.0
1,0.33208903749999996,1.22201303125,55.0,56.0
2,0.33208903749999996,1.291042775,48.0,75.0
3,1.2276100374999999,2.10447435,64.0,70.0
4,1.2276100374999999,2.1753697625,72.0,55.0
5,1.2276100374999999,2.1977577874999996,55.0,69.0
6,2.1231310375,2.6193989249999996,50.0,86.0
7,2.1231310375,2.8059657999999996,60.0,50.0
8,3.0186520375,3.3339500562499995,64.0,60.0
9,3.0186520375,3.5205169312499995,60.0,57.0
10,2.7947717874999998,3.7723822124999997,50.0,87.0
11,3.6902927875,3.9664117624999995,48.0,67.0
12,3.2425322874999996,3.98693411875,65.0,65.0
13,2.1231310375,3.9906654562499995,53.0,89.0
14,3.9141730374999995,4.8432760749999995,40.0,85.0
15,3.9141730374999995,4.86752976875,55.0,59.0
16,4.8096940375,5.60633459375,60.0,58.0
17,4.8096940375,5.81528949375,64.0,52.0
18,5.7052150374999995,6.139915856249999,55.0,56.0
19,5.7052150374999995,6.37312445,60.0,56.0
20,5.7052150374999995,6.466407887499999,57.0,56.0
21,5.7052150374999995,6.628721068749999,41.0,51.0
22,6.1529755375,6.686556799999999,55.0,55.0
23,6.376855787499999,7.490660031249999,48.0,64.0
24,6.8246162875,7.567152449999999,67.0,31.0
25,7.272376787499999,7.574615124999999,41.0,65.0
26,6.600736037499999,7.58021213125,53.0,84.0
27,7.4962570374999995,8.328345299999999,64.0,54.0
28,7.4962570374999995,8.39364370625,55.0,64.0
29,8.3917780375,8.39364370625,55.0,49.0
30,8.3917780375,9.115657512499999,64.0,43.0
31,7.4962570374999995,9.117523181249998,48.0,73.0
32,8.1678977875,9.28170203125,60.0,36.0
33,7.4962570374999995,9.350731775,36.0,52.0
34,9.0634187875,9.35819445,45.0,44.0
35,9.287299037499999,10.02050685625,38.0,65.0
36,9.958939787499999,10.02050685625,38.0,41.0
37,9.287299037499999,10.02050685625,60.0,50.0
38,9.287299037499999,10.04476055,53.0,66.0
39,9.287299037499999,10.04476055,64.0,50.0
40,9.958939787499999,10.210805068749998,62.0,35.0
41,10.182820037499999,10.38990926875,53.0,103.0
42,10.182820037499999,10.7164013,60.0,67.0
43,9.287299037499999,11.15856479375,57.0,44.0
44,9.287299037499999,11.182818487499999,50.0,54.0
45,11.0783410375,12.03916044375,64.0,54.0
46,10.4067002875,12.505577631249999,53.0,87.0
47,12.4216225375,12.505577631249999,53.0,17.0
48,12.4216225375,12.9216217625,55.0,27.0
49,12.4216225375,12.9216217625,60.0,24.0
50,12.645502787499998,13.921620212499999,57.0,18.0
51,11.0783410375,14.31527631875,41.0,56.0
52,12.4216225375,14.6604250375,29.0,48.0
53,10.854460787499999,14.6604250375,48.0,53.0
54,12.4216225375,14.6604250375,63.0,20.0
55,15.108185537499999,16.111915325,43.0,63.0
56,14.6604250375,16.1492287,36.0,95.0
57,15.555946037499998,16.52422811875,64.0,95.0
58,16.003706537499998,16.529825125,60.0,83.0
59,16.4514670375,17.6828084125,35.0,86.0
60,17.346988037499997,18.2798224125,64.0,99.0
61,17.7947485375,18.28355375,59.0,97.0
62,16.8992275375,18.3245984625,55.0,86.0
63,18.690269537499997,19.276089525,52.0,68.0
64,19.5857905375,20.102580781249998,52.0,78.0
65,20.481311537499998,20.88989299375,52.0,95.0
66,18.2425090375,20.89735566875,45.0,97.0
67,19.1380300375,20.906684012499998,60.0,112.0
68,20.033551037499997,21.095116556249998,57.0,102.0
69,20.9290720375,21.77608565,43.0,95.0
70,21.376832537499997,21.899219787499998,55.0,89.0
71,22.2723535375,23.098844793749997,48.0,61.0
72,21.824593037499998,23.11750148125,41.0,85.0
73,22.720114037499997,23.643620068749996,60.0,100.0
74,23.167874537499998,23.680933443749996,57.0,93.0
75,24.063395537499996,24.667872212499997,47.0,78.0
76,23.6156350375,24.87496144375,40.0,85.0
77,24.9589165375,25.462647099999998,55.0,97.0
78,24.511156037499997,25.468244106249998,59.0,102.0
79,25.1827967875,25.470109774999997,52.0,73.0
80,25.406677037499996,26.731301849999998,38.0,95.0
81,25.854437537499997,26.785406243749996,45.0,67.0
82,26.3021980375,27.18465935625,57.0,99.0
83,26.749958537499996,27.197719037499997,53.0,93.0
84,27.645479537499998,28.453314106249998,50.0,58.0
85,27.197719037499997,28.535403531249997,43.0,95.0
86,28.093240037499996,29.037268424999997,62.0,93.0
87,28.093240037499996,29.040999762499997,59.0,89.0
88,28.988761037499998,30.13241598125,36.0,93.0
89,29.4365215375,30.201445724999996,43.0,82.0
90,29.884282037499997,30.783534375,64.0,112.0
91,30.332042537499998,30.787265712499998,60.0,107.0
92,31.227563537499996,31.755547793749997,55.0,96.0
93,30.7798030375,32.078308487499996,35.0,92.0
94,32.1230845375,32.5708450375,55.0,85.0
95,31.675324037499998,32.5708450375,59.0,82.0
96,31.675324037499998,32.5708450375,64.0,117.0
97,33.466366037499995,33.9439772375,57.0,100.0
98,33.466366037499995,34.154797806249995,45.0,72.0
99,34.1380067875,34.304051306249995,57.0,41.0
100,33.914126537499996,34.6566627,52.0,85.0
101,33.466366037499995,34.695841743749995,60.0,100.0
102,33.018605537499994,34.78912518125,40.0,67.0
103,32.5708450375,34.798453525,33.0,100.0
104,34.8096475375,35.12494555625,52.0,89.0
105,34.3618870375,35.19957230625,45.0,100.0
106,35.0335277875,35.36001981875,60.0,107.0
107,35.0335277875,35.4215868875,57.0,99.0
108,35.2574080375,35.82270566875,43.0,127.0
109,35.70516853749999,36.201436425,55.0,93.0
110,35.70516853749999,36.235018462499994,59.0,86.0
111,36.600689537499996,37.35255404375,48.0,69.0
112,36.152929037499995,37.376807737499995,41.0,85.0
113,37.0484500375,37.94583670625,60.0,117.0
114,37.4962105375,38.01486645,57.0,92.0
115,38.3917315375,39.068969293749994,47.0,93.0
116,37.9439710375,39.145461712499994,40.0,82.0
117,38.839492037499994,39.7723264125,59.0,107.0
118,39.287252537499995,39.783520425,55.0,92.0
119,39.735013037499996,41.0782945375,38.0,92.0
120,40.1827735375,41.08016020625,45.0,79.0
121,40.6305340375,41.423443256249996,53.0,122.0
122,41.0782945375,41.432771599999995,50.0,82.0
123,41.526055037499994,42.261128525,60.0,93.0
124,41.526055037499994,42.279785212499995,65.0,96.0
125,41.526055037499994,42.287247887499994,68.0,100.0
126,41.973815537499995,42.54657584375,48.0,62.0
127,41.526055037499994,42.55030718125,41.0,81.0
128,42.421576037499996,43.380529775,65.0,95.0
129,42.421576037499996,43.38612678125,68.0,117.0
130,42.8693365375,43.415977481249996,60.0,72.0
131,43.7648575375,44.32642383125,43.0,77.0
132,44.21261803749999,44.77791566875,48.0,90.0
133,45.108139037499996,45.716347049999996,48.0,75.0
134,44.660378537499994,46.108137487499995,43.0,56.0
135,43.3170970375,46.184629906249995,36.0,97.0
136,44.21261803749999,46.2387343,55.0,92.0
137,45.108139037499996,46.276047674999994,60.0,82.0
138,45.108139037499996,46.277913343749994,64.0,90.0
139,47.346941537499994,47.887985474999994,48.0,102.0
140,47.570821787499995,48.05029865624999,55.0,93.0
141,46.89918103749999,48.240596868749996,36.0,95.0
142,47.12306128749999,48.259253556249995,43.0,97.0
143,48.018582287499996,48.35440266249999,48.0,117.0
144,48.242462537499996,48.693954375,60.0,127.0
145,47.794702037499995,48.69955138125,64.0,127.0
146,48.4663427875,48.701417049999996,55.0,117.0
147,49.1379835375,49.50365461249999,55.0,112.0
148,49.3618637875,49.60253505625,59.0,92.0
149,48.9141032875,49.699549831249996,50.0,96.0
150,49.58574403749999,50.07268358125,62.0,88.0
151,48.6902230375,50.096937274999995,43.0,85.0
152,49.80962428749999,50.149176,50.0,86.0
153,50.033504537499994,50.34693688749999,59.0,112.0
154,50.257384787499994,50.52044408125,62.0,127.0
155,49.58574403749999,50.555891787499995,67.0,102.0
156,50.929025537499996,51.18835349374999,57.0,102.0
157,51.152905787499996,51.42902476249999,60.0,99.0
158,50.705145287499995,51.464472468749996,52.0,96.0
159,51.3767860375,51.856262906249995,64.0,97.0
160,50.481265037499995,52.03723277499999,45.0,86.0
161,51.6006662875,52.1305162125,52.0,93.0
162,51.8245465375,52.20700863125,60.0,122.0
163,52.0484267875,52.305889074999996,64.0,122.0
164,51.3767860375,52.324545762499994,69.0,122.0
165,52.72006753749999,53.162231031249995,55.0,107.0
166,52.943947787499994,53.201410075,59.0,97.0
167,52.49618728749999,53.328275549999994,50.0,83.0
168,53.167828037499994,53.64917057499999,62.0,86.0
169,53.391708287499995,53.6715586,50.0,99.0
170,52.27230703749999,53.74431968125,43.0,100.0
171,53.615588537499995,54.05775203125,59.0,112.0
172,53.839468787499996,54.154766806249995,62.0,127.0
173,53.167828037499994,54.154766806249995,67.0,107.0
174,54.5111095375,54.832004562499996,53.0,102.0
175,54.7349897875,54.992452074999996,57.0,95.0
176,54.2872292875,55.076407168749995,48.0,88.0
177,55.18275028749999,55.35812315,48.0,95.0
178,54.0633490375,55.371182831249996,41.0,97.0
179,54.95887003749999,55.41782454999999,60.0,102.0
180,55.40663053749999,55.837600018749995,57.0,112.0
181,54.95887003749999,55.845062693749995,65.0,127.0
182,55.63051078749999,55.89730141875,60.0,117.0
183,56.526031787499996,56.774165731249994,55.0,96.0
184,56.302151537499995,56.833867131249995,52.0,99.0
185,56.9737922875,57.1155831125,52.0,107.0
186,56.078271287499994,57.207000881249996,47.0,90.0
187,56.749912037499996,57.218194893749995,59.0,102.0
188,55.854391037499994,57.25923960624999,40.0,96.0
189,57.1976725375,57.50550788125,55.0,112.0
190,56.749912037499996,57.615582337499994,64.0,107.0
191,57.4215527875,57.6454330375,59.0,127.0
192,58.31707378749999,58.613715118749994,57.0,99.0
193,58.09319353749999,58.62864046874999,50.0,99.0
194,57.6454330375,58.893565431249996,38.0,89.0
195,57.86931328749999,58.919684793749994,45.0,89.0
196,58.54095403749999,58.977520524999996,62.0,85.0
197,58.764834287499994,59.17714708124999,50.0,112.0
198,58.54095403749999,59.453266056249994,65.0,102.0
199,58.988714537499995,59.456997393749994,57.0,112.0
200,59.212594787499995,59.505504781249996,62.0,127.0
201,59.8842355375,60.214458906249995,55.0,93.0
202,60.1081157875,60.38236909374999,59.0,83.0
203,59.660355287499996,60.46072718124999,50.0,82.0
204,60.55587628749999,60.7125924625,50.0,107.0
205,59.436475037499996,60.748040168749995,43.0,88.0
206,60.3319960375,60.78162220624999,62.0,97.0
207,60.3319960375,61.1006515625,67.0,122.0
208,61.00363678749999,61.22938270624999,62.0,127.0
209,60.77975653749999,61.24430805624999,59.0,122.0
210,61.675277537499994,62.206993131249995,48.0,99.0
211,61.899157787499995,62.212590137499994,55.0,92.0
212,61.22751703749999,62.47005242499999,36.0,97.0
213,61.451397287499994,62.484977775,43.0,107.0
214,62.346918287499996,62.62303726249999,48.0,99.0
215,62.570798537499996,62.977514324999994,60.0,112.0
216,62.123038037499995,62.983111331249994,64.0,117.0
217,62.7946787875,63.00363368749999,55.0,107.0
218,63.46631953749999,63.83945328749999,55.0,100.0
219,63.69019978749999,63.968184431249995,59.0,93.0
220,63.24243928749999,64.05027385625,50.0,99.0
221,63.91408003749999,64.39355690625,62.0,93.0
222,63.0185590375,64.55773575625,43.0,92.0
223,64.1379602875,64.76482498749999,50.0,97.0
224,64.3618405375,64.8319890625,59.0,112.0
225,64.5857207875,64.84504874375,62.0,117.0
226,63.91408003749999,64.90475014375,67.0,102.0
227,65.25736153749999,65.57265955624999,57.0,117.0
228,65.4812417875,65.78534579375,60.0,95.0
229,65.0334812875,65.83198751249999,52.0,92.0
230,65.9290022875,66.3693001125,52.0,99.0
231,64.80960103749999,66.41221049375,45.0,76.0
232,65.70512203749999,66.57638934375,69.0,122.0
233,66.15288253749999,66.58758335625,64.0,122.0
234,66.3767627875,66.59877736874999,60.0,107.0
235,67.0484035375,67.15847799375,57.0,96.0
236,66.60064303749999,67.335716525,43.0,97.0
237,66.8245232875,67.35250754375,50.0,102.0
238,67.2722837875,67.462582,58.0,117.0
239,67.0484035375,67.50549238125,55.0,97.0
240,67.2722837875,67.50735805,62.0,93.0
241,67.72004428749999,67.98310358124999,55.0,92.0
242,67.4961640375,68.00362593749999,48.0,127.0
243,68.16780478749999,68.44765509999999,55.0,99.0
244,67.9439245375,68.46444611874999,60.0,112.0
245,67.9439245375,68.47564013124999,64.0,127.0
246,68.8394455375,69.24989266249999,53.0,107.0
247,69.06332578749999,69.3431761,57.0,90.0
248,68.61556528749999,69.40287749999999,48.0,95.0
249,69.2872060375,69.77787691875,60.0,97.0
250,68.3916850375,69.94951844375,41.0,82.0
251,69.51108628749999,69.99242882499999,48.0,93.0
252,69.9588467875,70.18459270624999,60.0,117.0
253,69.2872060375,70.18459270624999,65.0,97.0
254,69.7349665375,70.186458375,57.0,107.0
255,70.8543677875,71.11742708125,55.0,90.0
256,70.63048753749999,71.12115841875,52.0,99.0
257,71.3021282875,71.43832210625,52.0,99.0
258,70.4066072875,71.52227719999999,47.0,99.0
259,70.18272703749999,71.54279955624999,40.0,93.0
260,71.07824803749999,71.54839656249999,59.0,99.0
261,71.07824803749999,71.92526165,64.0,127.0
262,71.7498887875,71.95324668125,59.0,127.0
263,71.52600853749999,71.96257502499999,55.0,112.0
264,72.42152953749999,72.89540939999999,50.0,95.0
265,72.6454097875,72.97563315625,57.0,92.0
266,71.97376903749999,73.27040881875,38.0,89.0
267,72.1976492875,73.29652818125,45.0,88.0
268,73.09317028749999,73.45324435625,50.0,97.0
269,72.8692900375,73.589438175,65.0,127.0
270,73.3170505375,73.59503518125,62.0,117.0
271,73.54093078749999,73.81518409374999,57.0,95.0
272,73.98869128749999,74.86368993125,50.0,85.0
273,73.7648110375,74.88980929374999,43.0,95.0
274,73.7648110375,75.52040533124999,59.0,99.0
275,73.7648110375,75.52040533124999,62.0,100.0
276,74.6603320375,75.52227099999999,55.0,107.0
277,75.5558530375,75.67152449999999,57.0,104.0
278,75.5558530375,75.7648079375,59.0,117.0
279,75.5558530375,75.99615086249999,41.0,85.0
280,75.7797332875,76.13421034999999,60.0,116.0
281,76.00361353749999,76.42152333749999,40.0,52.0
282,75.5558530375,76.46070238124999,64.0,75.0
283,76.2274937875,76.529732125,55.0,70.0
284,75.5558530375,77.320775675,48.0,88.0
285,76.45137403749999,77.425253125,62.0,93.0
286,76.45137403749999,77.44950681875,65.0,76.0
287,77.34689503749999,77.4625665,60.0,105.0
288,76.45137403749999,77.51853656249999,57.0,88.0
289,77.1230147875,77.54092458749999,55.0,52.0
290,77.5707752875,77.887938975,60.0,83.0
291,77.34689503749999,78.08383419375,64.0,63.0
292,78.0185357875,78.24428170624999,72.0,35.0
293,77.5707752875,78.25920705624999,55.0,73.0
294,78.24241603749999,78.25920705624999,55.0,45.0
295,78.0185357875,78.29092342499999,67.0,55.0
296,78.0185357875,78.54652004375,62.0,70.0
297,78.0185357875,78.54652004375,65.0,73.0
298,77.34689503749999,78.9662955125,48.0,56.0
299,78.46629628749999,79.141668375,67.0,60.0
300,78.46629628749999,79.24428015625,60.0,74.0
301,78.46629628749999,79.24428015625,64.0,68.0
302,79.1379370375,80.33009936875,62.0,77.0
303,80.25733828749999,80.33009936875,62.0,75.0
304,79.1379370375,80.56330796249999,58.0,55.0
305,79.1379370375,80.56330796249999,74.0,60.0
306,80.25733828749999,80.58196464999999,81.0,55.0
307,79.1379370375,80.65472573125,41.0,88.0
308,80.4812185375,81.2647994125,55.0,64.0
309,80.4812185375,81.31144113124999,57.0,66.0
310,81.37673953749999,81.9103208,57.0,51.0
311,80.4812185375,81.9140521375,48.0,77.0
312,80.4812185375,81.93830583124999,53.0,97.0
313,83.16778153749999,84.171511325,43.0,63.0
314,82.72002103749999,84.2088247,36.0,95.0
315,83.61554203749999,84.58382411874999,64.0,95.0
316,84.0633025375,84.58942112499999,60.0,83.0
317,84.5110630375,85.7424044125,35.0,86.0
318,85.4065840375,86.3394184125,64.0,99.0
319,85.8543445375,86.34314975,59.0,97.0
320,84.9588235375,86.38419446249999,55.0,86.0
321,86.74986553749999,87.33568552499999,52.0,68.0
322,87.64538653749999,88.16217678125,52.0,78.0
323,88.54090753749999,88.94948899375,52.0,95.0
324,86.3021050375,88.95695166875,45.0,97.0
325,87.19762603749999,88.9662800125,60.0,112.0
326,88.09314703749999,89.15471255624999,57.0,102.0
327,88.98866803749999,89.83568165,43.0,95.0
328,89.43642853749999,89.95881578749999,55.0,89.0
329,90.3319495375,91.15844079374999,48.0,61.0
330,89.8841890375,91.17709748124999,41.0,85.0
331,90.7797100375,91.70321606875,60.0,100.0
332,91.2274705375,91.74052944374999,57.0,93.0
333,92.12299153749998,92.72746821249999,47.0,78.0
334,91.6752310375,92.93455744375,40.0,85.0
335,93.01851253749999,93.5222431,55.0,97.0
336,92.57075203749999,93.52784010625,59.0,102.0
337,93.2423927875,93.529705775,52.0,73.0
338,93.46627303749999,94.79089785,38.0,95.0
339,93.91403353749999,94.84500224374999,45.0,67.0
340,94.36179403749999,95.24425535625,57.0,99.0
341,94.80955453749999,95.25731503749999,53.0,93.0
342,95.7050755375,96.51291010624999,50.0,58.0
343,95.25731503749999,96.59499953125,43.0,95.0
344,96.1528360375,97.09686442499999,62.0,93.0
345,96.1528360375,97.10059576249999,59.0,89.0
346,97.0483570375,98.19201198124999,36.0,93.0
347,97.4961175375,98.261041725,43.0,82.0
348,97.94387803749999,98.84313037499999,64.0,112.0
349,98.39163853749999,98.84686171249999,60.0,107.0
350,99.28715953749999,99.81514379375,55.0,96.0
351,98.83939903749999,100.1379044875,35.0,92.0
352,100.18268053749999,100.63044103749999,55.0,85.0
353,99.73492003749999,100.63044103749999,59.0,82.0
354,99.73492003749999,100.63044103749999,64.0,117.0
355,101.5259620375,102.00357323749999,57.0,100.0
356,101.5259620375,102.21439380624999,45.0,72.0
357,102.19760278749999,102.36364730624999,57.0,41.0
358,101.9737225375,102.7162587,52.0,85.0
359,101.5259620375,102.75543774375,60.0,100.0
360,101.0782015375,102.84872118124999,40.0,67.0
361,100.63044103749999,102.85804952499998,33.0,100.0
362,102.8692435375,103.18454155625,52.0,89.0
363,102.4214830375,103.25916830624999,45.0,100.0
364,103.09312378749999,103.41961581874999,60.0,107.0
365,103.09312378749999,103.4811828875,57.0,99.0
366,103.31700403749998,103.88230166874999,43.0,127.0
367,103.76476453749999,104.261032425,55.0,93.0
368,103.76476453749999,104.2946144625,59.0,86.0
369,104.66028553749999,105.41215004374999,48.0,69.0
370,104.21252503749999,105.43640373749999,41.0,85.0
371,105.10804603749999,106.00543270624999,60.0,117.0
372,105.55580653749999,106.07446244999998,57.0,92.0
373,106.45132753749999,107.12856529374999,47.0,93.0
374,106.00356703749999,107.2050577125,40.0,82.0
375,106.8990880375,107.83192241249999,59.0,107.0
376,107.3468485375,107.84311642499999,55.0,92.0
377,107.7946090375,109.13789053749998,38.0,92.0
378,108.2423695375,109.13975620624998,45.0,79.0
379,108.69013003749998,109.48303925625,53.0,122.0
380,109.13789053749998,109.4923676,50.0,82.0
381,109.58565103749999,110.32072452499999,60.0,93.0
382,109.58565103749999,110.33938121249999,65.0,96.0
383,109.58565103749999,110.34684388749999,68.0,100.0
384,110.03341153749999,110.60617184374999,48.0,62.0
385,109.58565103749999,110.60990318124999,41.0,81.0
386,110.48117203749999,111.44012577499998,65.0,95.0
387,110.48117203749999,111.44572278124998,68.0,117.0
388,110.92893253749999,111.47557348125,60.0,72.0
389,111.82445353749999,112.38601983125,43.0,77.0
390,112.27221403749999,112.83751166875,48.0,90.0
391,113.1677350375,113.77594305,48.0,75.0
392,112.7199745375,114.16773348749999,43.0,56.0
393,111.37669303749999,114.24422590625,36.0,97.0
394,112.27221403749999,114.29833029999999,55.0,92.0
395,113.1677350375,114.33564367499999,60.0,82.0
396,113.1677350375,114.33750934374999,64.0,90.0
397,115.40653753749999,115.94758147499999,48.0,102.0
398,115.6304177875,116.10989465624999,55.0,93.0
399,114.95877703749998,116.30019286874999,36.0,95.0
400,115.18265728749999,116.31884955624999,43.0,97.0
401,116.0781782875,116.41399866249999,48.0,117.0
402,116.30205853749999,116.75355037499999,60.0,127.0
403,115.85429803749999,116.75914738124999,64.0,127.0
404,116.5259387875,116.76101304999999,55.0,117.0
405,117.19757953749999,117.56325061249998,55.0,112.0
406,117.42145978749998,117.66213105624999,59.0,92.0
407,116.97369928749998,117.75914583125,50.0,96.0
408,117.64534003749999,118.13227958124999,62.0,88.0
409,116.74981903749999,118.15653327499999,43.0,85.0
410,117.86922028749999,118.208772,50.0,86.0
411,118.09310053749999,118.40653288749999,59.0,112.0
412,118.31698078749999,118.58004008124999,62.0,127.0
413,117.64534003749999,118.61548778749999,67.0,102.0
414,118.9886215375,119.24794949374999,57.0,102.0
415,119.21250178749999,119.48862076249999,60.0,99.0
416,118.76474128749999,119.52406846874999,52.0,96.0
417,119.4363820375,119.91585890625,64.0,97.0
418,118.5408610375,120.09682877499999,45.0,86.0
419,119.66026228749999,120.19011221249998,52.0,93.0
420,119.88414253749998,120.26660463124999,60.0,122.0
421,120.10802278749999,120.365485075,64.0,122.0
422,119.4363820375,120.3841417625,69.0,122.0
423,120.77966353749999,121.22182703124999,55.0,107.0
424,121.00354378749999,121.26100607499998,59.0,97.0
425,120.55578328749999,121.38787154999999,50.0,83.0
426,121.22742403749999,121.70876657499998,62.0,86.0
427,121.4513042875,121.73115459999998,50.0,99.0
428,120.33190303749998,121.80391568124999,43.0,100.0
429,121.67518453749999,122.11734803124999,59.0,112.0
430,121.8990647875,122.21436280625,62.0,127.0
431,121.22742403749999,122.21436280625,67.0,107.0
432,122.57070553749999,122.89160056249999,53.0,102.0
433,122.79458578749998,123.05204807499999,57.0,95.0
434,122.3468252875,123.13600316875,48.0,88.0
435,123.24234628749998,123.41771914999998,48.0,95.0
436,122.12294503749999,123.43077883125,41.0,97.0
437,123.01846603749999,123.47742054999999,60.0,102.0
438,123.46622653749999,123.89719601875,57.0,112.0
439,123.01846603749999,123.90465869375,65.0,127.0
440,123.69010678749999,123.95689741874999,60.0,117.0
441,124.58562778749999,124.83376173125,55.0,96.0
442,124.3617475375,124.89346313124999,52.0,99.0
443,125.03338828749999,125.17517911249999,52.0,107.0
444,124.13786728749999,125.26659688125,47.0,90.0
445,124.8095080375,125.27779089375,59.0,102.0
446,123.9139870375,125.31883560624999,40.0,96.0
447,125.25726853749998,125.56510388124998,55.0,112.0
448,124.8095080375,125.67517833749999,64.0,107.0
449,125.48114878749999,125.70502903749998,59.0,127.0
450,126.37666978749999,126.67331111875,57.0,99.0
451,126.15278953749998,126.68823646874999,50.0,99.0
452,125.70502903749998,126.95316143125,38.0,89.0
453,125.92890928749999,126.97928079375,45.0,89.0
454,126.60055003749999,127.03711652499999,62.0,85.0
455,126.8244302875,127.23674308124998,50.0,112.0
456,126.60055003749999,127.51286205624999,65.0,102.0
457,127.04831053749999,127.51659339374999,57.0,112.0
458,127.2721907875,127.56510078125,62.0,127.0
459,127.94383153749999,128.27405490625,55.0,93.0
460,128.1677117875,128.44196509374999,59.0,83.0
461,127.7199512875,128.52032318124998,50.0,82.0
462,128.61547228749998,128.7721884625,50.0,107.0
463,127.49607103749999,128.80763616874998,43.0,88.0
464,128.39159203749998,128.84121820624998,62.0,97.0
465,128.39159203749998,129.1602475625,67.0,122.0
466,129.0632327875,129.28897870625,62.0,127.0
467,128.8393525375,129.30390405625,59.0,122.0
468,129.7348735375,130.26658913125,48.0,99.0
469,129.9587537875,130.2721861375,55.0,92.0
470,129.28711303749998,130.52964842499998,36.0,97.0
471,129.51099328749999,130.54457377499998,43.0,107.0
472,130.4065142875,130.6826332625,48.0,99.0
473,130.6303945375,131.037110325,60.0,112.0
474,130.18263403749998,131.04270733125,64.0,117.0
475,130.85427478749997,131.06322968749998,55.0,107.0
476,131.5259155375,131.8990492875,55.0,100.0
477,131.74979578749998,132.02778043125,59.0,93.0
478,131.3020352875,132.10986985625,50.0,99.0
479,131.97367603749998,132.45315290624998,62.0,93.0
480,131.07815503749998,132.61733175625,43.0,92.0
481,132.1975562875,132.8244209875,50.0,97.0
482,132.4214365375,132.89158506249998,59.0,112.0
483,132.64531678749998,132.90464474375,62.0,117.0
484,131.97367603749998,132.96434614375,67.0,102.0
485,133.3169575375,133.63225555625,57.0,117.0
486,133.54083778749998,133.84494179375,60.0,95.0
487,133.0930772875,133.89158351249998,52.0,92.0
488,133.9885982875,134.42889611249998,52.0,99.0
489,132.8691970375,134.47180649375,45.0,76.0
490,133.7647180375,134.63598534374998,69.0,122.0
491,134.21247853749998,134.64717935624998,64.0,122.0
492,134.43635878749998,134.65837336874998,60.0,107.0
493,135.10799953749998,135.21807399374998,57.0,96.0
494,134.6602390375,135.39531252499998,43.0,97.0
495,134.8841192875,135.41210354375,50.0,102.0
496,135.3318797875,135.522178,58.0,117.0
497,135.10799953749998,135.56508838124998,55.0,97.0
498,135.3318797875,135.56695405,62.0,93.0
499,135.7796402875,136.04269958125,55.0,92.0
500,135.5557600375,136.06322193749997,48.0,127.0
501,136.2274007875,136.5072511,55.0,99.0
502,136.00352053749998,136.52404211874997,60.0,112.0
503,136.00352053749998,136.53523613124997,64.0,127.0
504,136.89904153749998,137.3094886625,53.0,107.0
505,137.1229217875,137.4027721,57.0,90.0
506,136.67516128749998,137.4624735,48.0,95.0
507,137.3468020375,137.83747291875,60.0,97.0
508,136.4512810375,138.00911444374998,41.0,82.0
509,137.57068228749998,138.052024825,48.0,93.0
510,138.0184427875,138.24418870625,60.0,117.0
511,137.3468020375,138.24418870625,65.0,97.0
512,137.79456253749998,138.246054375,57.0,107.0
513,138.9139637875,139.17702308124998,55.0,90.0
514,138.6900835375,139.18075441874998,52.0,99.0
515,139.36172428749998,139.49791810624998,52.0,99.0
516,138.46620328749998,139.5818732,47.0,99.0
517,138.2423230375,139.60239555624997,40.0,93.0
518,139.13784403749997,139.6079925625,59.0,99.0
519,139.13784403749997,139.98485764999998,64.0,127.0
520,139.8094847875,140.01284268125,59.0,127.0
521,139.5856045375,140.02217102499998,55.0,112.0
522,140.4811255375,140.95500539999998,50.0,95.0
523,140.7050057875,141.03522915624998,57.0,92.0
524,140.03336503749998,141.33000481874998,38.0,89.0
525,140.25724528749998,141.35612418124998,45.0,88.0
526,141.1527662875,141.51284035625,50.0,97.0
527,140.92888603749998,141.649034175,65.0,127.0
528,141.3766465375,141.65463118124998,62.0,117.0
529,141.6005267875,141.87478009375,57.0,95.0
530,142.0482872875,142.92328593124998,50.0,85.0
531,141.82440703749998,142.94940529374998,43.0,95.0
532,141.82440703749998,143.58000133124997,59.0,99.0
533,141.82440703749998,143.58000133124997,62.0,100.0
534,142.71992803749998,143.581867,55.0,107.0
535,143.61544903749999,144.06134386875,64.0,99.0
536,143.61544903749999,144.08373189374998,57.0,112.0
537,143.61544903749999,144.0930602375,60.0,107.0
538,144.0632095375,144.68074589375,52.0,54.0
539,144.5109700375,145.0333572875,57.0,117.0
540,144.5109700375,145.14716308125,64.0,117.0
541,144.5109700375,145.16768543749998,60.0,122.0
542,144.95873053749997,145.26656588125,52.0,96.0
543,143.61544903749999,145.27216288749997,45.0,89.0
544,145.18261078749998,145.46432676875,57.0,97.0
545,145.4064910375,145.9438036375,62.0,112.0
546,145.4064910375,145.977385675,59.0,107.0
547,145.85425153749998,146.39529547499998,50.0,63.0
548,146.3020120375,146.56507133124998,55.0,95.0
549,146.3020120375,146.83372763124999,59.0,107.0
550,146.3020120375,147.01283183125,62.0,112.0
551,146.74977253749998,147.05014520625,55.0,93.0
552,146.5258922875,147.05387654375,50.0,64.0
553,145.4064910375,147.07813023749998,43.0,89.0
554,147.1975330375,147.94193486875,64.0,93.0
555,147.1975330375,147.96245722499998,60.0,96.0
556,147.1975330375,147.96991989999998,55.0,100.0
557,147.64529353749998,148.23857619999998,48.0,56.0
558,148.0930540375,148.49417281874997,55.0,100.0
559,148.54081453749998,148.87290357499998,55.0,54.0
560,148.0930540375,148.87663491249998,64.0,100.0
561,148.0930540375,148.88596325625,60.0,122.0
562,148.9885750375,149.51096228749998,55.0,96.0
563,148.9885750375,149.52215629999998,64.0,86.0
564,148.9885750375,149.54827566249998,60.0,96.0
565,149.6602157875,149.81879763125,55.0,79.0
566,149.43633553749999,150.10984195625,48.0,77.0
567,147.1975330375,150.13222998125,36.0,81.0
568,150.10797628749998,150.2273790875,43.0,68.0
569,149.8840960375,150.37476691875,60.0,112.0
570,149.8840960375,150.39155793749998,64.0,122.0
571,150.3318565375,150.5184234125,55.0,112.0
572,150.77961703749997,151.28894460625,60.0,102.0
573,150.77961703749997,151.31133263125,57.0,107.0
574,150.77961703749997,151.32066097499998,64.0,102.0
575,151.2273775375,151.71618274999997,52.0,56.0
576,151.67513803749998,152.1602119125,60.0,127.0
577,151.89901828749998,152.18446560625,52.0,93.0
578,150.77961703749997,152.23483866249998,45.0,75.0
579,151.67513803749998,152.39342050624998,64.0,127.0
580,152.3467787875,152.4661815875,60.0,67.0
581,152.1228985375,152.55200234999998,57.0,102.0
582,152.57065903749998,153.30386685624998,59.0,122.0
583,152.57065903749998,153.30386685624998,62.0,112.0
584,153.0184195375,153.54826946249997,50.0,61.0
585,153.46618003749998,153.8915525125,59.0,112.0
586,153.46618003749998,153.97923894374998,62.0,112.0
587,153.6900602875,154.08931339999998,50.0,86.0
588,152.57065903749998,154.18073116875,43.0,83.0
589,154.13782078749998,154.290805625,59.0,95.0
590,154.13782078749998,154.2982683,62.0,102.0
591,153.9139405375,154.30386530624997,55.0,112.0
592,154.36170103749998,154.92326733124997,65.0,100.0
593,154.36170103749998,154.93819268124997,69.0,122.0
594,154.36170103749998,154.96058070625,53.0,122.0
595,154.36170103749998,155.04453579999998,41.0,116.0
596,155.03334178749998,155.26841604999998,67.0,97.0
597,155.03334178749998,155.57438572499998,64.0,96.0
598,155.03334178749998,155.62662444999998,52.0,99.0
599,155.03334178749998,155.7273705625,40.0,110.0
600,155.70498253749997,156.13408635,65.0,122.0
601,155.70498253749997,156.141549025,62.0,97.0
602,155.70498253749997,156.1602057125,50.0,97.0
603,155.70498253749997,156.19005641249998,38.0,111.0
604,156.1527430375,156.3840859625,43.0,78.0
605,156.3766232875,156.3840859625,43.0,99.0
606,156.1527430375,156.49789175625,36.0,95.0
607,156.1527430375,156.49789175625,36.0,98.0
608,156.1527430375,156.50348876249998,67.0,89.0
609,156.1527430375,156.51281710625,60.0,97.0
610,156.1527430375,156.53333946249998,64.0,102.0
611,156.1527430375,156.82251811875,48.0,90.0
612,156.60050353749997,156.91020454999997,67.0,88.0
613,156.60050353749997,156.91393588749997,60.0,90.0
614,156.60050353749997,156.92139856249997,64.0,90.0
615,156.60050353749997,156.93445824375,43.0,87.0
616,156.60050353749997,156.9810999625,36.0,104.0
617,156.82438378749998,157.0557267125,48.0,112.0
618,157.0482640375,157.0557267125,48.0,105.0
619,157.0482640375,157.30386065624998,36.0,110.0
620,157.0482640375,157.3430397,67.0,127.0
621,157.0482640375,157.35236804374998,64.0,127.0
622,157.0482640375,157.3542337125,60.0,127.0
623,157.49602453749998,157.611696,48.0,94.0
624,157.49602453749998,157.62662135,64.0,127.0
625,157.49602453749998,157.63221835624998,60.0,127.0
626,157.49602453749998,157.63221835624998,67.0,127.0
627,157.49602453749998,157.68072574374997,36.0,116.0
628,157.49602453749998,157.81505389375,43.0,119.0
629,157.71990478749998,157.92326268124998,64.0,100.0
630,157.71990478749998,157.932591025,67.0,102.0
631,157.71990478749998,157.94191936874998,60.0,112.0
632,157.71990478749998,157.9997551,48.0,117.0
633,157.9437850375,158.45870961249997,65.0,92.0
634,157.9437850375,158.49229165,62.0,107.0
635,157.9437850375,158.50535133124998,58.0,127.0
636,157.9437850375,158.544530375,53.0,102.0
637,158.39154553749998,158.88035075,46.0,99.0
638,157.9437850375,159.13221603124998,34.0,102.0
639,159.06318628749997,159.2049771125,46.0,117.0
640,158.8393060375,159.33184258749998,58.0,127.0
641,158.8393060375,159.38594698125,65.0,107.0
642,158.8393060375,159.4139320125,62.0,122.0
643,159.28706653749998,159.4288573625,53.0,100.0
644,159.7348270375,160.0482593875,64.0,127.0
645,159.7348270375,160.051990725,60.0,127.0
646,159.95870728749998,160.59676599999997,52.0,112.0
647,160.18258753749998,160.60049733749997,57.0,107.0
648,160.4064677875,160.60609434375,60.0,117.0
649,160.85422828749998,161.13221293125,52.0,117.0
650,159.7348270375,161.16766063749998,45.0,93.0
651,160.6303480375,161.23669038124999,64.0,127.0
652,161.0781085375,161.32997381874998,60.0,127.0
653,161.3019887875,161.66952553124997,57.0,117.0
654,161.9736295375,162.4960167875,57.0,107.0
655,161.74974928749998,162.50907646874998,52.0,112.0
656,162.64527028749998,162.79265811874998,52.0,122.0
657,161.52586903749997,162.843031175,45.0,99.0
658,162.1975097875,162.89340423124997,60.0,117.0
659,162.42139003749998,163.00534435625,64.0,117.0
660,163.0930307875,163.24974696249998,60.0,117.0
661,163.31691103749998,163.85795497499998,62.0,107.0
662,162.8691505375,163.85982064375,57.0,99.0
663,163.31691103749998,163.86355198125,65.0,117.0
664,163.7646715375,164.02399949374998,50.0,117.0
665,163.98855178749997,164.066909875,62.0,50.0
666,163.98855178749997,164.26840209999997,57.0,112.0
667,163.54079128749999,164.34489451874998,45.0,100.0
668,163.31691103749998,164.53332706249998,38.0,89.0
669,164.4363122875,164.54265540625,45.0,112.0
670,164.21243203749998,164.6303418375,65.0,127.0
671,164.21243203749998,164.66578954374998,62.0,122.0
672,164.6601925375,164.86355043125,57.0,117.0
673,164.88407278749997,164.93444584374998,62.0,22.0
674,164.88407278749997,164.9586995375,58.0,78.0
675,165.10795303749998,165.13407239999998,53.0,72.0
676,165.3318332875,165.6452656375,46.0,100.0
677,165.10795303749998,165.6452656375,58.0,127.0
678,165.10795303749998,165.6751163375,62.0,102.0
679,165.5557135375,165.947503975,53.0,100.0
680,165.77959378749998,166.03892174375,46.0,112.0
681,165.10795303749998,166.26653333124997,34.0,117.0
682,166.2273542875,166.35048842499998,46.0,122.0
683,166.00347403749998,166.46242855,58.0,127.0
684,166.4512345375,166.69936848125,53.0,102.0
685,166.00347403749998,166.75720421249997,62.0,127.0
686,166.67511478749998,166.813174275,58.0,117.0
687,166.8989950375,167.10235293124998,55.0,122.0
688,166.8989950375,167.28332279999998,62.0,112.0
689,166.8989950375,167.38593458124998,59.0,127.0
690,167.34675553749997,167.54638209375,55.0,99.0
691,167.57063578749998,167.67138189999997,59.0,92.0
692,167.57063578749998,167.67138189999997,62.0,95.0
693,167.1228752875,167.90085915625,50.0,95.0
694,167.7945160375,168.066903675,55.0,122.0
695,167.7945160375,168.18817214375,59.0,127.0
696,166.8989950375,168.28518691875,43.0,99.0
697,167.7945160375,168.30757494374998,62.0,127.0
698,168.0183962875,168.31130628124998,50.0,127.0
699,168.24227653749998,168.53705219999998,55.0,127.0
700,168.6900370375,168.70682805624998,56.0,88.0
701,168.6900370375,169.0183947375,52.0,117.0
702,168.6900370375,169.0183947375,61.0,127.0
703,168.6900370375,169.0258574125,57.0,122.0
704,169.13779753749998,169.43070753125,52.0,99.0
705,169.13779753749998,169.44003587499998,57.0,117.0
706,169.13779753749998,169.44003587499998,61.0,117.0
707,169.13779753749998,169.66764746249999,40.0,73.0
708,169.5855580375,169.917647075,57.0,122.0
709,169.5855580375,169.9213784125,52.0,102.0
710,169.5855580375,169.93443809374997,61.0,127.0
711,169.5855580375,170.19563171874998,45.0,100.0
712,170.03331853749998,170.34861655625,52.0,107.0
713,170.03331853749998,170.35048222499998,57.0,127.0
714,170.03331853749998,170.35981056875,61.0,127.0
715,168.6900370375,170.70122794999997,33.0,83.0
716,170.03331853749998,170.70495928749997,40.0,83.0
717,170.4810790375,170.70495928749997,45.0,127.0
718,170.4810790375,170.70682495625,57.0,127.0
719,170.4810790375,170.70869062499997,52.0,127.0
720,170.4810790375,170.71242196249997,61.0,127.0
721,172.7198815375,173.260925475,50.0,102.0
722,172.9437617875,173.42323865625,57.0,93.0
723,172.27212103749997,173.61353686874997,38.0,95.0
724,172.49600128749998,173.63219355624997,45.0,97.0
725,173.39152228749998,173.72734266249998,50.0,117.0
726,173.6154025375,174.06689437499998,62.0,127.0
727,173.16764203749997,174.07249138125,66.0,127.0
728,173.8392827875,174.07435704999997,57.0,117.0
729,174.5109235375,174.87659461249999,57.0,112.0
730,174.73480378749997,174.97547505625,61.0,92.0
731,174.28704328749998,175.07248983124998,52.0,96.0
732,174.95868403749998,175.44562358124998,64.0,88.0
733,174.06316303749998,175.469877275,45.0,85.0
734,175.18256428749999,175.52211599999998,52.0,86.0
735,175.4064445375,175.7198768875,61.0,112.0
736,175.63032478749997,175.89338408125,64.0,127.0
737,174.95868403749998,175.92883178749997,69.0,102.0
738,176.3019655375,176.56129349375,59.0,102.0
739,176.52584578749997,176.80196476249998,62.0,99.0
740,176.0780852875,176.83741246875,54.0,96.0
741,176.74972603749998,177.22920290624998,66.0,97.0
742,175.85420503749998,177.41017277499998,47.0,86.0
743,176.9736062875,177.5034562125,54.0,93.0
744,177.1974865375,177.57994863124998,62.0,122.0
745,177.42136678749998,177.67882907499998,66.0,122.0
746,176.74972603749998,177.69748576249998,71.0,122.0
747,178.09300753749997,178.53517103124997,57.0,107.0
748,178.31688778749998,178.57435007499998,61.0,97.0
749,177.8691272875,178.70121554999997,52.0,83.0
750,178.5407680375,179.02211057499997,64.0,86.0
751,178.7646482875,179.0444986,52.0,99.0
752,177.64524703749998,179.11725968124998,45.0,100.0
753,178.98852853749997,179.43069203124998,61.0,112.0
754,179.21240878749998,179.52770680625,64.0,127.0
755,178.5407680375,179.52770680625,69.0,107.0
756,179.88404953749998,180.20494456249997,55.0,102.0
757,180.10792978749998,180.365392075,59.0,95.0
758,179.6601692875,180.44934716875,50.0,88.0
759,180.55569028749997,180.73106314999998,50.0,95.0
760,179.4362890375,180.74412283125,43.0,97.0
761,180.3318100375,180.79076454999998,62.0,102.0
762,180.77957053749998,181.21054001874998,59.0,112.0
763,180.3318100375,181.21800269374998,67.0,127.0
764,181.0034507875,181.27024141874998,62.0,117.0
765,181.8989717875,182.14710573124998,57.0,96.0
766,181.67509153749998,182.20680713124997,54.0,99.0
767,182.34673228749998,182.4885231125,54.0,107.0
768,181.45121128749997,182.57994088125,49.0,90.0
769,182.1228520375,182.59113489375,61.0,102.0
770,181.2273310375,182.63217960625,42.0,96.0
771,182.57061253749998,182.87844788125,57.0,112.0
772,182.1228520375,182.98852233749997,66.0,107.0
773,182.7944927875,183.01837303749997,61.0,127.0
774,183.6900137875,183.98665511874998,59.0,99.0
775,183.46613353749999,184.00158046874998,52.0,99.0
776,183.01837303749997,184.26650543124998,40.0,89.0
777,183.24225328749998,184.29262479374998,47.0,89.0
778,183.91389403749997,184.350460525,64.0,85.0
779,184.13777428749998,184.55008708124998,52.0,112.0
780,183.91389403749997,184.82620605625,67.0,102.0
781,184.3616545375,184.82993739375,59.0,112.0
782,184.5855347875,184.87844478124998,64.0,127.0
783,185.2571755375,185.58739890624997,57.0,93.0
784,185.4810557875,185.75530909375,61.0,83.0
785,185.03329528749998,185.83366718124998,52.0,82.0
786,185.92881628749998,186.08553246249997,52.0,107.0
787,184.80941503749997,186.12098016874998,45.0,88.0
788,185.70493603749998,186.15456220624998,64.0,97.0
789,185.70493603749998,186.4735915625,69.0,122.0
790,186.37657678749997,186.60232270625,64.0,127.0
791,186.1526965375,186.61724805625,61.0,122.0
792,187.0482175375,187.57993313125,50.0,99.0
793,187.27209778749997,187.58553013749997,57.0,92.0
794,186.60045703749998,187.84299242499998,38.0,97.0
795,186.8243372875,187.85791777499998,45.0,107.0
796,187.7198582875,187.9959772625,50.0,99.0
797,187.9437385375,188.350454325,62.0,112.0
798,187.49597803749998,188.35605133124997,66.0,117.0
799,188.16761878749998,188.37657368749998,57.0,107.0
800,188.83925953749997,189.2123932875,57.0,100.0
801,189.06313978749998,189.34112443125,61.0,93.0
802,188.6153792875,189.42321385625,52.0,99.0
803,189.28702003749999,189.76649690624998,64.0,93.0
804,188.39149903749998,189.93067575625,45.0,92.0
805,189.5109002875,190.1377649875,52.0,97.0
806,189.73478053749997,190.20492906249999,61.0,112.0
807,189.95866078749998,190.21798874374997,64.0,117.0
808,189.28702003749999,190.27769014375,69.0,102.0
809,190.63030153749997,190.94559955625,59.0,117.0
810,190.85418178749998,191.15828579375,62.0,95.0
811,190.4064212875,191.20492751249998,54.0,92.0
812,191.30194228749997,191.74224011249999,54.0,99.0
813,190.1825410375,191.78515049375,47.0,76.0
814,191.0780620375,191.94932934374998,71.0,122.0
815,191.52582253749998,191.96052335624998,66.0,122.0
816,191.74970278749998,191.97171736874998,62.0,107.0
817,192.42134353749998,192.53141799374998,59.0,96.0
818,191.9735830375,192.70865652499998,45.0,97.0
819,192.19746328749997,192.72544754375,52.0,102.0
820,192.6452237875,192.83552199999997,60.0,117.0
821,192.42134353749998,192.87843238124998,57.0,97.0
822,192.6452237875,192.88029805,64.0,93.0
823,193.09298428749997,193.35604358125,57.0,92.0
824,192.8691040375,193.37656593749998,50.0,127.0
825,193.5407447875,193.8205951,57.0,99.0
826,193.31686453749998,193.83738611874998,62.0,112.0
827,193.31686453749998,193.84858013124997,66.0,127.0
828,194.21238553749998,194.62283266249997,55.0,107.0
829,194.4362657875,194.7161161,59.0,90.0
830,193.98850528749998,194.7758175,50.0,95.0
831,194.66014603749997,195.15081691875,62.0,97.0
832,193.7646250375,195.32245844374998,43.0,82.0
833,194.88402628749998,195.365368825,50.0,93.0
834,195.3317867875,195.55753270625,62.0,117.0
835,194.66014603749997,195.55753270625,67.0,97.0
836,195.10790653749999,195.55939837499997,59.0,107.0
837,196.2273077875,196.49036708124999,57.0,90.0
838,196.0034275375,196.49409841874999,54.0,99.0
839,196.67506828749998,196.81126210624998,54.0,99.0
840,195.77954728749998,196.8952172,49.0,99.0
841,195.55566703749997,196.91573955624997,42.0,93.0
842,196.45118803749997,196.9213365625,61.0,99.0
843,196.45118803749997,197.29820164999998,66.0,127.0
844,197.12282878749997,197.32618668125,61.0,127.0
845,196.8989485375,197.33551502499998,57.0,112.0
846,197.7944695375,198.26834939999998,52.0,95.0
847,198.01834978749997,198.34857315624998,59.0,92.0
848,197.34670903749998,198.64334881874998,40.0,89.0
849,197.57058928749998,198.66946818124998,47.0,88.0
850,198.4661102875,198.82618435625,52.0,97.0
851,198.24223003749998,198.96237817499997,67.0,127.0
852,198.6899905375,198.96797518124998,64.0,117.0
853,198.91387078749997,199.18812409375,59.0,95.0
854,199.3616312875,200.23662993124998,52.0,85.0
855,199.13775103749998,200.26274929374998,45.0,95.0
856,199.13775103749998,200.89334533124998,61.0,99.0
857,199.13775103749998,200.89334533124998,64.0,100.0
858,200.03327203749998,200.895211,57.0,107.0
859,201.37655353749997,201.91759747499998,50.0,102.0
860,201.60043378749998,202.07991065624998,57.0,93.0
861,200.9287930375,202.27020886875,38.0,95.0
862,201.1526732875,202.28886555625,45.0,97.0
863,202.0481942875,202.3840146625,50.0,117.0
864,202.27207453749998,202.723566375,62.0,127.0
865,201.8243140375,202.72916338124998,66.0,127.0
866,202.49595478749998,202.73102905,57.0,117.0
867,203.16759553749998,203.53326661249997,57.0,112.0
868,203.39147578749999,203.63214705624998,61.0,92.0
869,202.94371528749997,203.72916183124997,52.0,96.0
870,203.6153560375,204.10229558125,64.0,88.0
871,202.7198350375,204.12654927499997,45.0,85.0
872,203.83923628749997,204.17878799999997,52.0,86.0
873,204.06311653749998,204.37654888749998,61.0,112.0
874,204.2869967875,204.55005608124998,64.0,127.0
875,203.6153560375,204.5855037875,69.0,102.0
876,204.95863753749998,205.21796549374997,59.0,102.0
877,205.1825177875,205.4586367625,62.0,99.0
878,204.73475728749997,205.49408446874997,54.0,96.0
879,205.40639803749997,205.88587490625,66.0,97.0
880,204.5108770375,206.066844775,47.0,86.0
881,205.63027828749998,206.16012821249998,54.0,93.0
882,205.85415853749998,206.23662063125,62.0,122.0
883,206.0780387875,206.33550107499997,66.0,122.0
884,205.40639803749997,206.3541577625,71.0,122.0
885,206.7496795375,207.19184303125,57.0,107.0
886,206.9735597875,207.23102207499997,61.0,97.0
887,206.52579928749998,207.35788755,52.0,83.0
888,207.19744003749997,207.67878257499999,64.0,86.0
889,207.42132028749998,207.70117059999998,52.0,99.0
890,206.30191903749997,207.77393168125,45.0,100.0
891,207.6452005375,208.08736403125,61.0,112.0
892,207.86908078749997,208.18437880624998,64.0,127.0
893,207.19744003749997,208.18437880624998,69.0,107.0
894,208.5407215375,208.8616165625,55.0,102.0
895,208.76460178749997,209.02206407499997,59.0,95.0
896,208.31684128749998,209.10601916874998,50.0,88.0
897,209.21236228749999,209.38773514999997,50.0,95.0
898,208.09296103749998,209.40079483124998,43.0,97.0
899,208.98848203749998,209.44743655,62.0,102.0
900,209.4362425375,209.86721201875,59.0,112.0
901,208.98848203749998,209.87467469375,67.0,127.0
902,209.66012278749997,209.92691341875,62.0,117.0
903,210.55564378749997,210.80377773125,57.0,96.0
904,210.3317635375,210.86347913125,54.0,99.0
905,211.0034042875,211.14519511249998,54.0,107.0
906,210.1078832875,211.23661288124998,49.0,90.0
907,210.77952403749998,211.24780689374998,61.0,102.0
908,209.88400303749998,211.28885160624998,42.0,96.0
909,211.22728453749997,211.53511988124998,57.0,112.0
910,210.77952403749998,211.6451943375,66.0,107.0
911,211.45116478749998,211.67504503749998,61.0,127.0
912,212.34668578749998,212.64332711875,59.0,99.0
913,212.12280553749997,212.65825246875,52.0,99.0
914,211.67504503749998,212.92317743124997,40.0,89.0
915,211.8989252875,212.94929679375,47.0,89.0
916,212.5705660375,213.00713252499997,64.0,85.0
917,212.7944462875,213.20675908124997,52.0,112.0
918,212.5705660375,213.48287805624997,67.0,102.0
919,213.01832653749997,213.48660939374997,59.0,112.0
920,213.24220678749998,213.53511678124997,64.0,127.0
921,213.91384753749998,214.24407090625,57.0,93.0
922,214.13772778749998,214.41198109374997,61.0,83.0
923,213.68996728749997,214.49033918125,52.0,82.0
924,214.58548828749997,214.74220446249998,52.0,107.0
925,213.4660870375,214.77765216875,45.0,88.0
926,214.3616080375,214.81123420625,64.0,97.0
927,214.3616080375,215.13026356249998,69.0,122.0
928,215.03324878749999,215.25899470624998,64.0,127.0
929,214.80936853749998,215.27392005624998,61.0,122.0
930,215.70488953749998,216.23660513124997,50.0,99.0
931,215.9287697875,216.2422021375,57.0,92.0
932,215.2571290375,216.499664425,38.0,97.0
933,215.48100928749997,216.514589775,45.0,107.0
934,216.37653028749997,216.65264926249998,50.0,99.0
935,216.60041053749998,217.00712632499997,62.0,112.0
936,216.15265003749997,217.01272333125,66.0,117.0
937,216.8242907875,217.03324568749997,57.0,107.0
938,217.49593153749998,217.86906528749998,57.0,100.0
939,217.7198117875,217.99779643124998,61.0,93.0
940,217.27205128749998,218.07988585624997,52.0,99.0
941,217.94369203749997,218.42316890624997,64.0,93.0
942,217.04817103749997,218.58734775624998,45.0,92.0
943,218.16757228749998,218.79443698749998,52.0,97.0
944,218.3914525375,218.86160106249997,61.0,112.0
945,218.6153327875,218.87466074374998,64.0,117.0
946,217.94369203749997,218.93436214374998,69.0,102.0
947,219.2869735375,219.60227155624997,59.0,117.0
948,219.51085378749997,219.81495779374998,62.0,95.0
949,219.06309328749998,219.8615995125,54.0,92.0
950,219.95861428749998,220.39891211249997,54.0,99.0
951,218.83921303749997,220.44182249374998,47.0,76.0
952,219.73473403749998,220.60600134375,71.0,122.0
953,220.1824945375,220.61719535625,66.0,122.0
954,220.40637478749997,220.62838936875,62.0,107.0
955,221.0780155375,221.18808999374997,59.0,96.0
956,220.63025503749998,221.36532852499997,45.0,97.0
957,220.8541352875,221.38211954374998,52.0,102.0
958,221.30189578749997,221.49219399999998,60.0,117.0
959,221.0780155375,221.53510438125,57.0,97.0
960,221.30189578749997,221.53697004999998,64.0,93.0
961,221.7496562875,222.01271558124998,57.0,92.0
962,221.52577603749998,222.0332379375,50.0,127.0
963,222.19741678749998,222.47726709999998,57.0,99.0
964,221.97353653749997,222.49405811875,62.0,112.0
965,221.97353653749997,222.50525213125,66.0,127.0
966,222.86905753749997,223.2795046625,55.0,107.0
967,223.09293778749998,223.37278809999998,59.0,90.0
968,222.6451772875,223.43248949999997,50.0,95.0
969,223.31681803749998,223.80748891874998,62.0,97.0
970,222.42129703749998,223.97913044374997,43.0,82.0
971,223.5406982875,224.02204082499998,50.0,93.0
972,223.98845878749998,224.21420470624997,62.0,117.0
973,223.31681803749998,224.21420470624997,67.0,97.0
974,223.76457853749997,224.216070375,59.0,107.0
975,224.88397978749998,225.14703908124997,57.0,90.0
976,224.66009953749997,225.15077041874997,54.0,99.0
977,225.33174028749997,225.46793410624997,54.0,99.0
978,224.43621928749997,225.55188919999998,49.0,99.0
979,224.2123390375,225.57241155625,42.0,93.0
980,225.1078600375,225.57800856249997,61.0,99.0
981,225.1078600375,225.95487364999997,66.0,127.0
982,225.77950078749998,225.98285868124998,61.0,127.0
983,225.55562053749998,225.992187025,57.0,112.0
984,226.45114153749998,226.9250214,52.0,95.0
985,226.6750217875,227.00524515624997,59.0,92.0
986,226.0033810375,227.30002081874997,40.0,89.0
987,226.22726128749997,227.32614018124997,47.0,88.0
988,227.12278228749997,227.48285635624998,52.0,97.0
989,226.8989020375,227.61905017499998,67.0,127.0
990,227.34666253749998,227.62464718124997,64.0,117.0
991,227.5705427875,227.79442303749997,59.0,95.0
992,227.79442303749997,229.30934606249997,45.0,102.0
993,227.79442303749997,229.31494306874998,40.0,89.0
994,227.79442303749997,229.34106243124998,33.0,67.0
995,227.79442303749997,229.34665943749997,61.0,117.0
996,227.79442303749997,229.3541221125,64.0,95.0
997,227.79442303749997,229.365316125,57.0,97.0
998,229.58546503749997,230.10038961249998,62.0,102.0
999,229.58546503749997,230.10412094999998,66.0,102.0
1000,229.58546503749997,230.3093445125,57.0,95.0
1001,230.0332255375,230.56680679999997,50.0,82.0
1002,230.70486628749998,230.84665711249997,50.0,85.0
1003,229.58546503749997,230.84852278124998,38.0,90.0
1004,230.48098603749997,231.24404455624997,66.0,122.0
1005,230.9287465375,231.24777589374997,62.0,97.0
1006,231.15262678749997,231.40822340625,57.0,100.0
1007,232.27202803749998,232.52389331874997,52.0,67.0
1008,231.8242675375,232.77389293124997,47.0,50.0
1009,231.37650703749998,232.7869526125,40.0,95.0
1010,232.27202803749998,233.13023566249998,59.0,89.0
1011,232.27202803749998,233.13583266874997,64.0,90.0
1012,232.71978853749997,233.16754903749998,55.0,97.0
1013,233.61530953749997,234.17687583125,54.0,58.0
1014,233.16754903749998,234.40448741874997,42.0,89.0
1015,234.2869502875,234.43620378749998,54.0,88.0
1016,234.06307003749998,234.49217384999997,66.0,112.0
1017,234.06307003749998,234.52015888124998,61.0,112.0
1018,234.51083053749997,234.86344193124998,57.0,97.0
1019,234.95859103749999,235.75336592499997,62.0,86.0
1020,234.95859103749999,235.77388828124998,59.0,86.0
1021,234.95859103749999,235.8093359875,55.0,97.0
1022,235.40635153749997,235.93620146249998,50.0,52.0
1023,234.95859103749999,236.1227683375,43.0,89.0
1024,236.07799228749997,236.1600817125,50.0,122.0
1025,235.8541120375,236.29814119999998,59.0,112.0
1026,235.8541120375,236.33732024374999,62.0,127.0
1027,236.30187253749997,236.43433501874998,55.0,100.0
1028,236.7496330375,237.48470652499998,66.0,112.0
1029,236.7496330375,237.50336321249998,62.0,107.0
1030,237.19739353749998,237.73843747499998,50.0,58.0
1031,236.7496330375,237.92313868124998,57.0,107.0
1032,237.86903428749997,238.00895944374997,50.0,88.0
1033,236.7496330375,238.04813848749998,38.0,81.0
1034,237.6451540375,238.15075026875,66.0,127.0
1035,238.09291453749998,238.19552631874998,62.0,102.0
1036,238.54067503749997,239.33544992499998,59.0,83.0
1037,238.54067503749997,239.35037527499998,55.0,85.0
1038,238.54067503749997,239.41007667499997,52.0,88.0
1039,238.98843553749998,239.52388246874997,47.0,72.0
1040,239.66007628749998,239.75149405624998,47.0,77.0
1041,238.54067503749997,239.77574774999997,40.0,77.0
1042,239.43619603749997,239.93806093125,59.0,107.0
1043,239.88395653749998,239.96044895625,52.0,79.0
1044,240.33171703749997,240.80559689999998,55.0,112.0
1045,240.33171703749997,240.81119390624997,59.0,107.0
1046,240.33171703749997,240.83731326874997,62.0,107.0
1047,240.7794775375,241.57425242499997,38.0,74.0
1048,240.33171703749997,241.57984943124998,31.0,96.0
1049,241.22723803749997,241.57984943124998,43.0,99.0
1050,241.6749985375,243.91380103749998,67.0,112.0
1051,241.6749985375,243.91753237499998,31.0,72.0
1052,241.6749985375,243.92499504999998,38.0,96.0
1053,241.6749985375,243.92499504999998,71.0,107.0
1054,241.6749985375,243.93618906249998,43.0,107.0
1055,241.6749985375,243.93992039999998,62.0,112.0
