,start,end,pitch,velocity
0,11.380190124999999,11.786439475,73.0,127.0
1,11.796856125,12.008661341666667,72.0,86.0
2,12.005189125,12.642340883333333,68.0,96.0
3,12.630188125,13.085048508333333,70.0,100.0
4,13.046854125,13.484353425,72.0,97.0
5,13.463520124999999,13.560742191666666,68.0,117.0
6,13.671853125,14.539907291666665,68.0,112.0
7,14.713518124999998,15.0416426,70.0,102.0
8,15.130184125,15.798585833333332,70.0,97.0
9,15.963516125,16.336779416666666,68.0,107.0
10,16.380182124999997,17.791638199999998,65.0,96.0
11,18.046846125,18.357609516666667,70.0,107.0
12,18.463512124999998,18.59024803333333,68.0,89.0
13,18.671845125,19.234344224999997,68.0,100.0
14,19.296844125,19.748232291666667,66.0,99.0
15,19.713510125,20.086773416666666,68.0,107.0
16,20.130176125,20.347189666666665,70.0,100.0
17,20.338509124999998,20.680522466666666,68.0,95.0
18,20.963508125,21.1457995,65.0,93.0
19,21.171841125,21.368021366666667,63.0,79.0
20,21.380174125,21.933992683333333,65.0,92.0
21,21.796840125,21.933992683333333,65.0,92.0
22,22.213506125,22.366283658333334,65.0,92.0
23,22.421839124999998,23.045102016666664,63.0,86.0
24,23.046838124999997,24.656210549999997,65.0,90.0
25,24.713502124999998,25.095445958333332,73.0,122.0
26,25.130168124999997,25.340237233333333,72.0,92.0
27,25.338501125,25.833292,68.0,96.0
28,25.963500125,26.275999624999997,70.0,107.0
29,26.380166125,26.786415475,72.0,112.0
30,26.796832124999998,26.921831925,68.0,89.0
31,27.213498124999997,27.96523303333333,68.0,102.0
32,28.046830125,28.29856583333333,70.0,117.0
33,28.463496125,28.654468041666664,70.0,112.0
34,28.671829125,28.791620599999998,68.0,99.0
35,28.880162125,29.243008766666666,68.0,117.0
36,29.296828124999998,29.671827524999998,72.0,93.0
37,29.713494124999997,31.147519608333333,65.0,96.0
38,31.380158124999998,31.7499492,70.0,122.0
39,31.796824124999997,31.93397668333333,68.0,97.0
40,32.005157125,32.506892433333334,68.0,107.0
41,32.630156125,32.96869725,66.0,102.0
42,33.046822125,33.397516008333334,68.0,122.0
43,33.463488125,33.89751520833333,70.0,99.0
44,33.880154125,34.47737539166666,68.0,102.0
45,34.296820124999996,34.505153125,65.0,92.0
46,34.505153125,34.682236175,63.0,89.0
47,34.713486124999996,35.010360649999996,65.0,93.0
48,35.130152124999995,35.371471183333334,65.0,95.0
49,35.546818125,35.734317825,65.0,89.0
50,35.755151125,36.128414416666665,63.0,85.0
51,36.380150125,37.192648825,65.0,95.0
52,37.213482125,37.59368985,61.0,112.0
53,37.630148125,38.005147525,63.0,99.0
54,38.046814125,39.177020649999996,65.0,96.0
55,39.296812124999995,39.715214233333334,63.0,97.0
56,39.713478124999995,40.11451915,65.0,95.0
57,40.546810125,40.89924011666667,61.0,97.0
58,40.963476125,41.34021163333333,68.0,102.0
59,41.380142125,42.274237916666664,65.0,99.0
60,42.630140125,43.02944504166666,63.0,96.0
61,43.046806124999996,43.6249302,65.0,92.0
62,43.880138124999995,44.2499292,61.0,100.0
63,44.296804125,44.59367865,73.0,100.0
64,44.713470125,45.10062228333333,73.0,107.0
65,45.130136125,45.453052275,70.0,100.0
66,45.546802125,45.9374265,70.0,112.0
67,45.963468125,46.28985649166666,68.0,97.0
68,46.380134125,46.630133725,70.0,117.0
69,46.796800125,47.09367465,70.0,117.0
70,47.213466125,47.49124345833333,70.0,117.0
71,47.421799125,47.977353791666665,72.0,112.0
72,48.046798124999995,49.755128725,68.0,96.0
73,51.380126125,51.786375475,77.0,102.0
74,51.796792124999996,52.14227768333333,75.0,97.0
75,52.213458124999995,52.57977698333333,77.0,99.0
76,52.630124124999995,53.06415120833333,80.0,102.0
77,53.046790124999994,54.12838561666666,77.0,122.0
78,54.713454125,55.1040785,77.0,127.0
79,55.130120125,55.51206395833333,72.0,89.0
80,55.546786125,56.00164650833333,73.0,117.0
81,55.963452124999996,56.411368075,75.0,107.0
82,56.380118124999996,57.41483869166667,73.0,112.0
83,56.796784124999995,57.80025474166666,70.0,107.0
84,58.046782125,58.43393428333333,70.0,127.0
85,58.463448125,58.756850433333334,78.0,127.0
86,58.880114125,59.274210716666666,78.0,122.0
87,59.296780125,59.67351563333333,77.0,107.0
88,59.713446125,60.150945424999996,75.0,122.0
89,60.130112125,60.505111525,72.0,102.0
90,60.546778124999996,60.992957966666665,73.0,107.0
91,60.963444124999995,61.33497130833333,75.0,122.0
92,61.380110124999995,61.775942824999994,75.0,122.0
93,61.796776124999994,61.900942625,77.0,92.0
94,62.005109125,64.265522175,77.0,102.0
95,64.713438125,65.05892368333333,77.0,127.0
96,65.130104125,65.4998952,75.0,107.0
97,65.546770125,65.91308898333332,77.0,107.0
98,65.963436125,66.380102125,80.0,122.0
99,66.380102125,67.49468367499999,77.0,127.0
100,68.04676612499999,68.3957239,77.0,127.0
101,68.463432125,68.80370935833334,72.0,100.0
102,68.880098125,68.96863965,73.0,117.0
103,69.088431125,69.25856974166666,73.0,112.0
104,69.296764125,69.6040553,75.0,107.0
105,69.713430125,71.18391388333333,70.0,122.0
106,71.380094125,71.73078800833333,70.0,117.0
107,71.79676012499999,71.93391268333333,78.0,127.0
108,72.005093125,72.494675675,78.0,96.0
109,72.63009212499999,73.015508175,77.0,122.0
110,73.046758125,73.44085471666666,78.0,127.0
111,73.463424125,73.859256825,77.0,112.0
112,73.880090125,74.23772844166666,73.0,107.0
113,74.296756125,74.50682523333333,73.0,122.0
114,74.505089125,74.72036655833332,75.0,112.0
115,74.713422125,76.85057148333333,73.0,127.0
116,108.046702125,108.45295147499999,73.0,127.0
117,108.46336812499999,108.67517334166666,72.0,86.0
118,108.671701125,109.30885288333333,68.0,96.0
119,109.296700125,109.75156050833333,70.0,100.0
120,109.713366125,110.15086542499999,72.0,97.0
121,110.130032125,110.22725419166666,68.0,117.0
122,110.338365125,111.20641929166666,68.0,112.0
123,111.38003012499999,111.7081546,70.0,102.0
124,111.796696125,112.46509783333333,70.0,97.0
125,112.630028125,113.00329141666666,68.0,107.0
126,113.04669412499999,114.45815019999999,65.0,96.0
127,114.713358125,115.02412151666667,70.0,107.0
128,115.13002412499999,115.25676003333332,68.0,89.0
129,115.338357125,115.900856225,68.0,100.0
130,115.96335612499999,116.41474429166666,66.0,99.0
131,116.380022125,116.75328541666666,68.0,107.0
132,116.79668812499999,117.01370166666666,70.0,100.0
133,117.005021125,117.34703446666666,68.0,95.0
134,117.630020125,117.81231149999999,65.0,93.0
135,117.838353125,118.03453336666666,63.0,79.0
136,118.046686125,118.60050468333333,65.0,92.0
137,118.463352125,118.60050468333333,65.0,92.0
138,118.88001812499999,119.03279565833333,65.0,92.0
139,119.08835112499999,119.71161401666666,63.0,86.0
140,119.71335012499999,121.32272255,65.0,90.0
141,121.38001412499999,121.76195795833333,73.0,122.0
142,121.796680125,122.00674923333332,72.0,92.0
143,122.00501312499999,122.499804,68.0,96.0
144,122.630012125,122.942511625,70.0,107.0
145,123.046678125,123.452927475,72.0,112.0
146,123.46334412499999,123.58834392499999,68.0,89.0
147,123.880010125,124.63174503333333,68.0,102.0
148,124.713342125,124.96507783333332,70.0,117.0
149,125.13000812499999,125.32098004166666,70.0,112.0
150,125.338341125,125.4581326,68.0,99.0
151,125.546674125,125.90952076666666,68.0,117.0
152,125.96334012499999,126.338339525,72.0,93.0
153,126.380006125,127.81403160833332,65.0,96.0
154,128.046670125,128.4164612,70.0,122.0
155,128.46333612499998,128.60048868333334,68.0,97.0
156,128.671669125,129.17340443333333,68.0,107.0
157,129.296668125,129.63520925,66.0,102.0
158,129.713334125,130.06402800833334,68.0,122.0
159,130.13000012499998,130.56402720833333,70.0,99.0
160,130.546666125,131.14388739166665,68.0,102.0
161,130.963332125,131.171665125,65.0,92.0
162,131.171665125,131.348748175,63.0,89.0
163,131.379998125,131.67687265,65.0,93.0
164,131.796664125,132.03798318333332,65.0,95.0
165,132.213330125,132.400829825,65.0,89.0
166,132.42166312499998,132.79492641666667,63.0,85.0
167,133.04666212499998,133.859160825,65.0,95.0
168,133.879994125,134.26020185,61.0,112.0
169,134.296660125,134.671659525,63.0,99.0
170,134.71332612499998,135.84353265,65.0,96.0
171,135.96332412499999,136.38172623333332,63.0,97.0
172,136.379990125,136.78103115,65.0,95.0
173,137.213322125,137.56575211666666,61.0,97.0
174,137.62998812499998,138.00672363333334,68.0,102.0
175,138.046654125,138.94074991666665,65.0,99.0
176,139.29665212499998,139.69595704166667,63.0,96.0
177,139.713318125,140.2914422,65.0,92.0
178,140.54665012499999,140.91644119999998,61.0,100.0
179,140.963316125,141.26019065,73.0,100.0
180,141.379982125,141.76713428333332,73.0,107.0
181,141.796648125,142.119564275,70.0,100.0
182,142.21331412499998,142.6039385,70.0,112.0
183,142.629980125,142.95636849166667,68.0,97.0
184,143.046646125,143.296645725,70.0,117.0
185,143.463312125,143.76018664999998,70.0,117.0
186,143.87997812499998,144.15775545833333,70.0,117.0
187,144.088311125,144.64386579166666,72.0,112.0
188,144.713310125,146.421640725,68.0,96.0
189,148.046638125,148.45288747499998,77.0,102.0
190,148.46330412499998,148.80878968333332,75.0,97.0
191,148.879970125,149.24628898333333,77.0,99.0
192,149.296636125,149.73066320833334,80.0,102.0
193,149.71330212499998,150.79489761666667,77.0,122.0
194,151.37996612499998,151.7705905,77.0,127.0
195,151.796632125,152.17857595833334,72.0,89.0
196,152.213298125,152.66815850833333,73.0,117.0
197,152.629964125,153.077880075,75.0,107.0
198,153.04663012499998,154.08135069166667,73.0,112.0
199,153.463296125,154.46676674166665,70.0,107.0
200,154.713294125,155.10044628333333,70.0,127.0
201,155.129960125,155.42336243333332,78.0,127.0
202,155.546626125,155.94072271666667,78.0,122.0
203,155.96329212499998,156.34002763333334,77.0,107.0
204,156.379958125,156.817457425,75.0,122.0
205,156.796624125,157.171623525,72.0,102.0
206,157.213290125,157.65946996666665,73.0,107.0
207,157.629956125,158.00148330833332,75.0,122.0
208,158.046622125,158.442454825,75.0,122.0
209,158.463288125,158.56745462499998,77.0,92.0
210,158.671621125,160.93203417499998,77.0,102.0
211,161.379950125,161.72543568333333,77.0,127.0
212,161.79661612499999,162.16640719999998,75.0,107.0
213,162.213282125,162.57960098333334,77.0,107.0
214,162.629948125,163.046614125,80.0,122.0
215,163.046614125,164.161195675,77.0,127.0
216,164.713278125,165.0622359,77.0,127.0
217,165.12994412499998,165.47022135833333,72.0,100.0
218,165.546610125,165.63515164999998,73.0,117.0
219,165.75494312499998,165.92508174166665,73.0,112.0
220,165.963276125,166.27056729999998,75.0,107.0
221,166.37994212499999,167.85042588333332,70.0,122.0
222,168.04660612499998,168.39730000833333,70.0,117.0
223,168.463272125,168.60042468333333,78.0,127.0
224,168.67160512499999,169.16118767499998,78.0,96.0
225,169.296604125,169.682020175,77.0,122.0
226,169.71327012499998,170.10736671666666,78.0,127.0
227,170.129936125,170.525768825,77.0,112.0
228,170.546602125,170.90424044166667,73.0,107.0
229,170.96326812499998,171.1733372333333,73.0,122.0
230,171.171601125,171.38687855833334,75.0,112.0
231,171.379934125,173.51708348333332,73.0,127.0
232,174.713262125,175.119511475,77.0,102.0
233,175.129928125,175.47541368333333,75.0,97.0
234,175.54659412499998,175.9129129833333,77.0,99.0
235,175.963260125,176.39728720833332,80.0,102.0
236,176.379926125,177.46152161666666,77.0,122.0
237,178.046590125,178.43721449999998,77.0,127.0
238,178.463256125,178.84519995833332,72.0,89.0
239,178.87992212499998,179.33478250833332,73.0,117.0
240,179.296588125,179.74450407499998,75.0,107.0
241,179.713254125,180.74797469166666,73.0,112.0
242,180.12992012499998,181.13339074166666,70.0,107.0
243,181.379918125,181.7670702833333,70.0,127.0
244,181.79658412499998,182.08998643333334,78.0,127.0
245,182.213250125,182.60734671666665,78.0,122.0
246,182.629916125,183.00665163333332,77.0,107.0
247,183.046582125,183.484081425,75.0,122.0
248,183.46324812499998,183.83824752499999,72.0,102.0
249,183.879914125,184.32609396666666,73.0,107.0
250,184.296580125,184.66810730833333,75.0,122.0
251,184.71324612499998,185.10907882499998,75.0,122.0
252,185.129912125,185.234078625,77.0,92.0
253,185.338245125,187.598658175,77.0,102.0
254,188.04657412499998,188.39205968333331,77.0,127.0
255,188.463240125,188.8330312,75.0,107.0
256,188.879906125,189.24622498333332,77.0,107.0
257,189.29657212499998,189.713238125,80.0,122.0
258,189.713238125,190.827819675,77.0,127.0
259,191.379902125,191.7288599,77.0,127.0
260,191.796568125,192.13684535833332,72.0,100.0
261,192.21323412499999,192.30177565,73.0,117.0
262,192.421567125,192.59170574166666,73.0,112.0
263,192.62990012499998,192.9371913,75.0,107.0
264,193.046566125,194.51704988333333,70.0,122.0
265,194.713230125,195.06392400833332,70.0,117.0
266,195.129896125,195.26704868333331,78.0,127.0
267,195.338229125,195.827811675,78.0,96.0
268,195.963228125,196.348644175,77.0,122.0
269,196.379894125,196.77399071666665,78.0,127.0
270,196.79656012499998,197.19239282499998,77.0,112.0
271,197.21322612499998,197.57086444166666,73.0,107.0
272,197.629892125,197.83996123333333,73.0,122.0
273,197.83822512499998,198.05350255833332,75.0,112.0
274,198.046558125,200.18370748333334,73.0,127.0
275,201.37988612499998,201.73058000833333,70.0,117.0
276,201.79655212499998,201.93370468333333,78.0,127.0
277,202.004885125,202.49446767499998,78.0,96.0
278,202.629884125,203.015300175,77.0,122.0
279,203.04655012499998,203.44064671666666,78.0,127.0
280,203.463216125,203.859048825,77.0,112.0
281,203.879882125,204.23752044166665,73.0,107.0
282,204.296548125,204.50661723333332,73.0,122.0
283,204.504881125,204.7201585583333,75.0,112.0
284,204.71321412499998,206.85036348333333,73.0,127.0
285,208.046542125,208.39723600833332,70.0,117.0
286,208.463208125,208.60036068333332,78.0,127.0
287,208.671541125,209.161123675,78.0,96.0
288,209.29654012499998,209.68195617499998,77.0,122.0
289,209.713206125,210.10730271666665,78.0,127.0
290,210.129872125,210.525704825,77.0,112.0
291,210.54653812499998,211.30174524999998,73.0,117.0
292,211.379870125,213.275700425,75.0,127.0
293,213.046534125,218.3034701583333,73.0,127.0
