,start,end,pitch,velocity
0,23.883483999999996,24.111744812499996,70.0,127.0
1,24.753048999999997,24.89918422916666,70.0,127.0
2,25.042903999999997,25.28686529166666,70.0,127.0
3,25.622613999999995,25.836382062499997,68.0,127.0
4,26.202323999999997,26.388314291666664,70.0,127.0
5,26.782033999999996,26.993386604166663,70.0,127.0
6,27.361743999999995,27.562227041666663,70.0,127.0
7,28.521163999999995,28.670922416666663,70.0,127.0
8,29.100873999999997,29.185415041666662,66.0,127.0
9,29.390728999999997,29.482516416666662,63.0,127.0
10,29.680583999999996,29.777202333333328,66.0,127.0
11,30.260293999999995,30.406429229166662,70.0,127.0
12,30.840003999999993,30.98613922916666,70.0,127.0
13,31.419713999999995,31.620197041666664,63.0,127.0
14,31.999423999999998,32.143143770833326,70.0,127.0
15,33.158843999999995,33.31826425,70.0,127.0
16,33.73855399999999,33.83034141666666,66.0,127.0
17,34.028408999999996,34.126235062499994,63.0,112.0
18,34.318264,34.41850552083333,66.0,127.0
19,34.897974,34.99096914583333,70.0,127.0
20,35.187828999999994,35.26270820833333,68.0,127.0
21,35.477683999999996,35.644350624999994,61.0,127.0
22,36.057393999999995,36.21077560416666,70.0,112.0
23,36.637103999999994,36.86294935416666,61.0,127.0
24,37.79652399999999,37.88468822916666,70.0,127.0
25,38.086378999999994,38.17092004166666,68.0,117.0
26,38.376234,38.46681368749999,70.0,127.0
27,38.666089,38.73976047916666,68.0,127.0
28,38.955943999999995,39.068262812499995,70.0,127.0
29,39.535653999999994,39.67454285416666,68.0,127.0
30,40.115364,40.24700647916666,70.0,127.0
31,40.69507399999999,40.83758604166666,61.0,127.0
32,41.274784,41.453181975,70.0,127.0
33,42.437017999999995,42.80899858333333,73.0,127.0
34,43.01672799999999,43.306582999999996,73.0,122.0
35,43.306582999999996,43.59885345833333,70.0,122.0
36,43.596438,44.27276633333333,73.0,122.0
37,44.176148,44.27276633333333,73.0,127.0
38,44.46600299999999,44.755857999999996,75.0,117.0
39,44.755857999999996,45.04450527083333,78.0,117.0
40,45.045713,45.33436027083333,78.0,117.0
41,45.335567999999995,45.625423,78.0,117.0
42,45.625423,45.915277999999994,75.0,127.0
43,45.915277999999994,47.07349027083333,73.0,127.0
44,47.074698,47.364552999999994,73.0,127.0
45,47.364552999999994,47.94426299999999,78.0,122.0
46,47.94426299999999,48.234117999999995,75.0,127.0
47,48.234117999999995,48.813827999999994,73.0,127.0
48,48.813827999999994,49.103683,70.0,127.0
49,49.103683,49.39353799999999,68.0,97.0
50,49.39353799999999,49.68580845833333,70.0,127.0
51,49.683392999999995,49.98532529166666,68.0,99.0
52,49.973248,50.29691941666666,73.0,117.0
53,50.263102999999994,50.55776569166667,70.0,127.0
54,50.552958,51.706804,68.0,127.0
55,51.706804,52.28252507708333,73.0,127.0
56,52.283727,52.572188499999996,73.0,127.0
57,52.572188499999996,52.86065,70.0,117.0
58,52.86065,53.43637107708333,73.0,117.0
59,53.43757299999999,53.72483257708333,73.0,127.0
60,53.7260345,54.069784454166665,73.0,122.0
61,54.000072925,54.3029575,68.0,117.0
62,54.3029575,54.59021707708333,70.0,127.0
63,54.591418999999995,54.8798805,70.0,112.0
64,54.8798805,55.168341999999996,68.0,99.0
65,55.168341999999996,56.322188,66.0,97.0
66,56.322188,56.60944757708333,68.0,127.0
67,56.610649499999994,56.89790907708333,68.0,122.0
68,56.899111,57.187572499999995,68.0,127.0
69,57.187572499999995,57.476034,70.0,127.0
70,57.476034,58.05175507708333,73.0,127.0
71,58.052957,58.341418499999996,73.0,127.0
72,58.341418499999996,58.635889614583334,70.0,127.0
73,58.62988,58.9183415,68.0,127.0
74,58.9183415,59.206802999999994,66.0,117.0
75,59.206802999999994,59.51569718958333,63.0,117.0
76,59.4952645,59.783725999999994,66.0,127.0
77,59.783725999999994,60.937571999999996,61.0,117.0
78,60.937571999999996,61.51329307708333,73.0,127.0
79,61.514495,61.80295649999999,73.0,127.0
80,61.80295649999999,62.09382184583333,70.0,122.0
81,62.091418,62.667139077083334,73.0,122.0
82,62.668341,62.956802499999995,73.0,127.0
83,62.956802499999995,63.245264,75.0,117.0
84,63.245264,63.82657440833333,78.0,117.0
85,63.827788,64.11905,78.0,117.0
86,64.11905,64.410312,75.0,127.0
87,64.410312,65.57414640833333,73.0,127.0
88,65.57536,65.86662199999999,73.0,127.0
89,65.86662199999999,66.449146,78.0,122.0
90,66.449146,66.740408,75.0,127.0
91,66.740408,67.322932,73.0,127.0
92,67.322932,67.614194,70.0,127.0
93,67.614194,67.905456,68.0,97.0
94,67.905456,68.19914518333333,70.0,127.0
95,68.196718,68.50011591666666,68.0,99.0
96,68.48798,68.81322256666667,73.0,117.0
97,68.779242,69.07535836666666,70.0,127.0
98,69.070504,70.235552,68.0,127.0
99,70.235552,70.81686240833334,73.0,127.0
100,70.81807599999999,71.109338,73.0,127.0
101,71.109338,71.4006,70.0,117.0
102,71.4006,71.98191040833333,73.0,117.0
103,71.983124,72.27438599999999,73.0,127.0
104,72.27438599999999,72.55108489999999,70.0,122.0
105,72.55108489999999,72.85691,68.0,117.0
106,72.85691,73.14695840833333,70.0,127.0
107,73.148172,73.43943399999999,70.0,112.0
108,73.43943399999999,73.730696,68.0,99.0
109,73.730696,74.895744,66.0,97.0
110,74.895744,75.18439127083333,68.0,127.0
111,75.185599,75.47424627083333,68.0,122.0
112,75.475454,75.76530899999999,68.0,127.0
113,75.76530899999999,76.05516399999999,70.0,127.0
114,76.05516399999999,76.63366627083333,73.0,127.0
115,76.634874,76.924729,73.0,127.0
116,76.924729,77.22062264583333,70.0,127.0
117,77.21458399999999,77.50443899999999,68.0,127.0
118,77.50443899999999,77.794294,66.0,117.0
119,77.794294,78.10468039583333,63.0,117.0
120,78.084149,78.374004,66.0,127.0
121,78.374004,79.533424,61.0,117.0
122,79.533424,80.10914507708333,78.0,127.0
123,80.11034699999999,80.3988085,78.0,127.0
124,80.3988085,80.68727,75.0,127.0
125,80.68727,81.26299107708333,78.0,127.0
126,81.26419299999999,81.45770258958333,78.0,127.0
127,81.40842375,81.841116,75.0,122.0
128,81.841116,82.418039,73.0,127.0
129,82.418039,83.0021735375,75.0,122.0
130,82.994962,84.14760607708332,73.0,127.0
131,84.148808,84.4372695,73.0,127.0
132,84.4372695,85.0141925,78.0,127.0
133,85.0141925,85.30265399999999,75.0,122.0
134,85.30265399999999,85.58991357708334,73.0,112.0
135,85.5911155,85.879577,73.0,127.0
136,85.879577,86.1680385,70.0,127.0
137,86.1680385,86.45649999999999,68.0,112.0
138,86.45649999999999,86.7449615,70.0,127.0
139,86.7449615,87.033423,68.0,97.0
140,87.033423,87.3218845,73.0,127.0
141,87.3218845,87.61034599999999,70.0,102.0
142,87.61034599999999,88.764192,68.0,117.0
143,88.764192,89.33991307708332,73.0,127.0
144,89.341115,89.6295765,73.0,127.0
145,89.6295765,89.918038,70.0,127.0
146,89.918038,90.49375907708333,73.0,127.0
147,90.49496099999999,90.78222057708334,73.0,127.0
148,90.7834225,91.071884,73.0,127.0
149,91.071884,91.3603455,68.0,127.0
150,91.3603455,91.64760507708333,70.0,102.0
151,91.64880699999999,91.9372685,70.0,127.0
152,91.9372685,92.22573,68.0,112.0
153,92.22573,93.0969795,66.0,117.0
154,93.0969795,93.387396,63.0,100.0
155,93.387396,93.67660243125,68.0,127.0
156,93.6778125,93.96701893125,68.0,117.0
157,93.968229,94.2586455,68.0,127.0
158,94.2586455,94.54906199999999,70.0,112.0
159,94.54906199999999,94.8394785,68.0,117.0
160,94.8394785,95.129895,66.0,117.0
161,95.129895,95.4203115,63.0,112.0
162,95.4203115,95.70951793125,66.0,112.0
163,95.710728,98.03406,66.0,127.0
164,116.620716,117.20033893125,73.0,127.0
165,117.201549,117.49196549999999,73.0,127.0
166,117.49196549999999,117.7848021375,70.0,122.0
167,117.782382,118.36200493125,73.0,122.0
168,118.363215,118.65363149999999,73.0,127.0
169,118.65363149999999,118.944048,75.0,117.0
170,118.944048,119.52367093125,78.0,117.0
171,119.524881,119.8152975,78.0,117.0
172,119.8152975,120.105714,75.0,127.0
173,120.105714,121.26616993125,73.0,127.0
174,121.26738,121.55658643125,73.0,127.0
175,121.5577965,122.1386295,73.0,122.0
176,122.1386295,122.429046,75.0,127.0
177,122.429046,123.009879,73.0,127.0
178,123.009879,123.3002955,70.0,127.0
179,123.3002955,123.590712,68.0,97.0
180,123.590712,123.8835486375,70.0,127.0
181,123.88112849999999,124.18364568749999,68.0,99.0
182,124.171545,124.495843425,73.0,117.0
183,124.4619615,124.757218275,70.0,127.0
184,124.752378,125.91404399999999,68.0,127.0
185,125.91404399999999,126.49366693125,70.0,127.0
186,126.494877,126.7852935,70.0,127.0
187,126.7852935,127.07570999999999,68.0,96.0
188,127.07570999999999,127.65533293125,73.0,122.0
189,127.656543,127.94574943125,73.0,127.0
190,127.94695949999999,128.222855175,73.0,127.0
191,128.222855175,128.5277925,68.0,117.0
192,128.5277925,128.81699893125,70.0,127.0
193,128.818209,129.1086255,70.0,112.0
194,129.1086255,129.399042,68.0,99.0
195,129.399042,130.560708,66.0,97.0
196,130.560708,130.84991443125,68.0,127.0
197,130.8511245,131.14033093125,68.0,122.0
198,131.141541,131.4319575,68.0,127.0
199,131.4319575,131.722374,70.0,127.0
200,131.722374,132.30199693125,73.0,127.0
201,132.303207,132.5936235,73.0,127.0
202,132.5936235,132.89009034375,70.0,127.0
203,132.88404,133.1744565,68.0,127.0
204,133.1744565,133.464873,66.0,117.0
205,133.464873,133.77586066875,63.0,117.0
206,133.7552895,134.045706,66.0,127.0
207,134.045706,135.207372,61.0,117.0
208,135.207372,135.78699493125,78.0,127.0
209,135.788205,136.0786215,78.0,127.0
210,136.0786215,136.369038,75.0,127.0
211,136.369038,136.94866093125,78.0,127.0
212,136.949871,137.14469206875,78.0,127.0
213,137.09507925,137.53070400000001,75.0,122.0
214,137.53070400000001,138.111537,73.0,127.0
215,138.111537,138.6996304125,75.0,122.0
216,138.69236999999998,139.85282593124998,73.0,127.0
217,139.854036,140.1444525,73.0,127.0
218,140.1444525,140.72528549999998,78.0,127.0
219,140.72528549999998,141.015702,75.0,122.0
220,141.015702,141.596535,80.0,127.0
221,141.596535,141.8869515,78.0,127.0
222,141.8869515,142.177368,75.0,122.0
223,142.177368,142.4677845,73.0,127.0
224,142.4677845,142.75820099999999,75.0,122.0
225,142.75820099999999,143.0486175,73.0,112.0
226,143.0486175,143.339034,70.0,122.0
227,143.339034,144.5007,68.0,99.0
228,144.5007,145.08032293125,66.0,127.0
229,145.08153299999998,145.28845475625,66.0,127.0
230,145.22674125,145.662366,63.0,100.0
231,145.662366,146.24198893125,66.0,127.0
232,146.243199,146.5336155,66.0,127.0
233,146.5336155,146.824032,63.0,99.0
234,146.824032,147.40095499999998,66.0,127.0
235,147.40095499999998,147.97787799999998,68.0,127.0
236,147.97787799999998,149.131724,73.0,127.0
237,149.131724,149.4189835770833,68.0,127.0
238,149.4201855,149.70864699999998,68.0,117.0
239,149.70864699999998,149.9971085,68.0,112.0
240,149.9971085,150.28556999999998,66.0,117.0
241,150.28556999999998,150.862493,68.0,127.0
242,150.862493,151.15095449999998,78.0,127.0
243,151.15095449999998,151.439416,75.0,122.0
244,151.439416,156.05359807708334,73.0,127.0
245,156.0548,156.63611040833334,73.0,127.0
246,156.637324,156.928586,73.0,122.0
247,156.928586,157.22227518333332,70.0,122.0
248,157.219848,157.89945933333334,73.0,122.0
249,157.802372,157.89945933333334,73.0,127.0
250,158.093634,158.384896,75.0,117.0
251,158.384896,158.67494440833335,78.0,117.0
252,158.676158,158.96620640833333,78.0,117.0
253,158.96742,159.258682,78.0,117.0
254,159.258682,159.549944,75.0,127.0
255,159.549944,160.71377840833333,73.0,127.0
256,160.714992,161.0051275,73.0,127.0
257,161.0051275,161.5853985,78.0,122.0
258,161.5853985,161.875534,75.0,127.0
259,161.875534,162.455805,73.0,127.0
260,162.455805,162.7459405,70.0,127.0
261,162.7459405,163.036076,68.0,97.0
262,163.036076,163.32862929583334,70.0,127.0
263,163.3262115,163.62843597916665,68.0,99.0
264,163.616347,163.94033164166666,73.0,117.0
265,163.90648249999998,164.20145359166665,70.0,127.0
266,164.196618,165.35716,68.0,127.0
267,165.35716,165.93622210208332,73.0,127.0
268,165.937431,166.2275665,73.0,127.0
269,166.2275665,166.51770199999999,70.0,117.0
270,166.51770199999999,167.09676410208334,73.0,117.0
271,167.097973,167.38689960208333,73.0,127.0
272,167.3881085,167.73385330416667,73.0,122.0
273,167.663737225,167.9683795,68.0,117.0
274,167.9683795,168.25730610208333,70.0,127.0
275,168.258515,168.5486505,70.0,112.0
276,168.5486505,168.838786,68.0,99.0
277,168.838786,169.999328,66.0,97.0
278,169.999328,170.28825460208333,68.0,127.0
279,170.28946349999998,170.57839010208332,68.0,122.0
280,170.579599,170.8697345,68.0,127.0
281,170.8697345,171.15986999999998,70.0,127.0
282,171.15986999999998,171.73893210208334,73.0,127.0
283,171.740141,172.03027649999999,73.0,127.0
284,172.03027649999999,172.32645648958334,70.0,127.0
285,172.320412,172.6105475,68.0,127.0
286,172.6105475,172.900683,66.0,117.0
287,172.900683,173.21136976458334,63.0,117.0
288,173.1908185,173.480954,66.0,127.0
289,173.480954,174.641496,61.0,117.0
290,174.641496,175.22055810208332,73.0,127.0
291,175.221767,175.5119025,73.0,127.0
292,175.5119025,175.80445579583332,70.0,122.0
293,175.80203799999998,176.38110010208334,73.0,122.0
294,176.382309,176.67244449999998,73.0,127.0
295,176.67244449999998,176.96258,75.0,117.0
296,176.96258,177.54164210208333,78.0,117.0
297,177.54285099999998,177.8329865,78.0,117.0
298,177.8329865,178.123122,75.0,127.0
299,178.123122,179.28245510208333,73.0,127.0
300,179.283664,179.5737995,73.0,127.0
301,179.5737995,180.1540705,78.0,122.0
302,180.1540705,180.444206,75.0,127.0
303,180.444206,181.024477,73.0,127.0
304,181.024477,181.3146125,70.0,127.0
305,181.3146125,181.604748,68.0,97.0
306,181.604748,181.89730129583333,70.0,127.0
307,181.8948835,182.19710797916667,68.0,99.0
308,182.18501899999998,182.50900364166665,73.0,117.0
309,182.4751545,182.77012559166667,70.0,127.0
310,182.76529,183.92583199999999,68.0,127.0
311,183.92583199999999,184.5048941020833,73.0,127.0
312,184.506103,184.7962385,73.0,127.0
313,184.7962385,185.086374,70.0,117.0
314,185.086374,185.66543610208333,73.0,117.0
315,185.666645,185.95678049999998,73.0,127.0
316,185.95678049999998,186.232409225,70.0,122.0
317,186.232409225,186.5370515,68.0,117.0
318,186.5370515,186.82597810208333,70.0,127.0
319,186.82718699999998,187.1173225,70.0,112.0
320,187.1173225,187.407458,68.0,99.0
321,187.407458,188.56799999999998,66.0,97.0
322,188.56799999999998,188.85692660208332,68.0,127.0
323,188.8581355,189.14706210208334,68.0,122.0
324,189.148271,189.43840649999999,68.0,127.0
325,189.43840649999999,189.728542,70.0,127.0
326,189.728542,190.30760410208333,73.0,127.0
327,190.308813,190.5989485,73.0,127.0
328,190.5989485,190.89509361458332,70.0,127.0
329,190.889084,191.1775455,68.0,127.0
330,191.1775455,191.466007,66.0,117.0
331,191.466007,191.77490118958332,63.0,117.0
332,191.7544685,192.04292999999998,66.0,127.0
333,192.04292999999998,193.196776,61.0,117.0
334,193.196776,193.77695976041667,78.0,127.0
335,193.778171,194.0688685,78.0,127.0
336,194.0688685,194.359566,75.0,127.0
337,194.359566,194.93974976041667,78.0,127.0
338,194.940961,195.13597057291668,78.0,127.0
339,195.08630975,195.522356,75.0,122.0
340,195.522356,196.103751,73.0,127.0
341,196.103751,196.6924134375,75.0,122.0
342,196.685146,197.84672476041666,73.0,127.0
343,197.847936,198.13639750000002,73.0,127.0
344,198.13639750000002,198.7133205,78.0,127.0
345,198.7133205,199.001782,75.0,122.0
346,199.001782,199.28904157708334,73.0,112.0
347,199.2902435,199.578705,73.0,127.0
348,199.578705,199.8671665,70.0,127.0
349,199.8671665,200.155628,68.0,112.0
350,200.155628,200.44408950000002,70.0,127.0
351,200.44408950000002,200.732551,68.0,97.0
352,200.732551,201.0210125,73.0,127.0
353,201.0210125,201.309474,70.0,102.0
354,201.309474,202.46332,68.0,117.0
355,202.46332,203.03904107708334,73.0,127.0
356,203.040243,203.32870450000001,73.0,127.0
357,203.32870450000001,203.617166,70.0,127.0
358,203.617166,204.19288707708333,73.0,127.0
359,204.194089,204.48134857708334,73.0,127.0
360,204.4825505,204.771012,73.0,127.0
361,204.771012,205.0594735,68.0,127.0
362,205.0594735,205.34673307708334,70.0,102.0
363,205.347935,205.63639650000002,70.0,127.0
364,205.63639650000002,205.924858,68.0,112.0
365,205.924858,206.7902425,66.0,117.0
366,206.7902425,207.07870400000002,63.0,100.0
367,207.07870400000002,207.36596357708333,68.0,127.0
368,207.3671655,207.65442507708335,68.0,117.0
369,207.655627,207.9440885,68.0,127.0
370,207.9440885,208.23255,70.0,112.0
371,208.23255,208.52101150000001,68.0,117.0
372,208.52101150000001,208.809473,66.0,117.0
373,208.809473,209.0979345,63.0,112.0
374,209.0979345,209.38519407708333,66.0,112.0
375,209.386396,211.4056265,66.0,127.0
376,211.4056265,211.694088,63.0,100.0
377,211.694088,211.98134757708334,68.0,127.0
378,211.9825495,212.26980907708332,68.0,117.0
379,212.27101100000002,212.5594725,68.0,127.0
380,212.5594725,212.847934,70.0,112.0
381,212.847934,213.1363955,68.0,117.0
382,213.1363955,213.424857,66.0,117.0
383,213.424857,213.7133185,63.0,112.0
384,213.7133185,214.00057807708333,66.0,112.0
385,214.00178,216.309472,66.0,127.0
386,216.309472,217.183258,70.0,127.0
387,217.183258,217.47452,61.0,122.0
388,217.47452,218.057044,70.0,127.0
389,218.057044,218.639568,68.0,127.0
390,218.639568,219.222092,70.0,127.0
391,219.222092,219.804616,68.0,127.0
392,219.804616,220.969664,70.0,127.0
393,220.969664,221.260926,68.0,127.0
394,221.260926,221.552188,70.0,117.0
395,221.552188,221.84345,63.0,127.0
396,221.84345,222.134712,61.0,97.0
397,222.134712,222.71602240833334,68.0,127.0
398,222.71723599999999,223.29976,68.0,127.0
399,223.29976,223.882284,70.0,127.0
400,223.882284,224.464808,68.0,127.0
401,224.464808,225.629856,61.0,127.0
402,225.629856,226.50364199999999,70.0,127.0
403,226.50364199999999,226.794904,68.0,127.0
404,226.794904,227.377428,61.0,122.0
405,227.377428,227.959952,70.0,127.0
406,227.959952,228.542476,68.0,127.0
407,228.542476,229.125,70.0,127.0
408,229.125,230.29004799999998,68.0,127.0
409,230.29004799999998,230.872572,61.0,127.0
410,230.872572,231.455096,68.0,127.0
411,231.455096,232.328882,61.0,127.0
412,232.328882,232.62014399999998,68.0,127.0
413,232.62014399999998,232.911406,61.0,117.0
414,232.911406,233.202668,63.0,127.0
415,233.202668,233.4911295,68.0,127.0
416,233.4911295,233.77959099999998,63.0,112.0
417,233.77959099999998,234.933437,68.0,127.0
418,234.933437,235.65459074999998,70.0,127.0
419,235.65459074999998,236.08728299999999,61.0,107.0
420,236.08728299999999,236.66420599999998,70.0,127.0
421,236.66420599999998,237.241129,68.0,127.0
422,237.241129,237.818052,70.0,127.0
423,237.818052,238.394975,68.0,127.0
424,238.394975,239.54882099999998,61.0,127.0
425,239.54882099999998,239.8372825,68.0,127.0
426,239.8372825,240.125744,70.0,127.0
427,240.125744,240.41300357708332,61.0,122.0
428,240.41420549999998,240.702667,61.0,122.0
429,240.702667,241.27838807708332,68.0,127.0
430,241.27958999999998,241.85531107708331,68.0,127.0
431,241.85651299999998,242.433436,68.0,127.0
432,242.433436,243.010359,70.0,127.0
433,243.010359,244.16420499999998,61.0,127.0
434,244.16420499999998,245.0295895,68.0,127.0
435,245.0295895,245.318051,70.0,127.0
436,245.318051,245.894974,61.0,122.0
437,245.894974,246.47189699999998,70.0,127.0
438,246.47189699999998,247.04881999999998,68.0,127.0
439,247.04881999999998,247.625743,70.0,127.0
440,247.625743,248.77838707708332,61.0,127.0
441,248.779589,249.35651199999998,61.0,127.0
442,249.35651199999998,249.9322330770833,68.0,112.0
