,start,end,pitch,velocity
0,1.7475719999999997,14.60193493333333,66.0,65.0
1,1.7475719999999997,14.645624233333331,61.0,79.0
2,1.7475719999999997,14.646837824999999,54.0,81.0
3,1.7475719999999997,14.649265008333332,42.0,69.0
4,14.563099999999999,18.555816583333332,56.0,57.0
5,14.563099999999999,18.570379683333332,49.0,72.0
6,14.563099999999999,18.60678743333333,37.0,117.0
7,18.640767999999998,18.88712710833333,42.0,112.0
8,18.640767999999998,18.888340699999997,54.0,112.0
9,18.932029999999997,19.156544458333332,51.0,88.0
10,18.932029999999997,19.23300073333333,39.0,89.0
11,19.223291999999997,22.81552333333333,49.0,90.0
12,19.223291999999997,22.827659249999996,56.0,95.0
13,19.223291999999997,22.861639816666663,37.0,99.0
14,23.300959999999996,23.53639678333333,42.0,102.0
15,23.300959999999996,23.548532699999996,54.0,112.0
16,23.592221999999996,23.911261770833327,51.0,96.0
17,23.592221999999996,23.93179316666666,39.0,72.0
18,23.883483999999996,27.85691295833333,56.0,57.0
19,23.883483999999996,27.871405708333327,49.0,72.0
20,23.883483999999996,27.90763758333333,37.0,117.0
21,27.941453999999997,28.18662302083333,42.0,112.0
22,27.941453999999997,28.187830749999996,54.0,112.0
23,28.231308999999996,28.45473889583333,51.0,88.0
24,28.231308999999996,28.530825833333328,39.0,89.0
25,28.521163999999995,32.42575239583333,49.0,90.0
26,28.521163999999995,32.4378296875,56.0,95.0
27,28.521163999999995,32.471646104166666,37.0,99.0
28,32.579133999999996,32.81343345833333,42.0,102.0
29,32.579133999999996,32.82551074999999,54.0,112.0
30,32.868989,33.18662177083333,51.0,96.0
31,32.868989,33.207153166666664,39.0,72.0
32,33.158843999999995,37.13227295833333,56.0,57.0
33,33.158843999999995,37.14676570833333,49.0,72.0
34,33.158843999999995,37.18299758333333,37.0,117.0
35,37.216814,37.46198302083333,42.0,112.0
36,37.216814,37.463190749999995,54.0,112.0
37,37.506668999999995,37.73009889583333,51.0,88.0
38,37.506668999999995,37.80618583333333,39.0,89.0
39,37.79652399999999,41.70318185833333,49.0,90.0
40,37.79652399999999,41.715317774999995,56.0,95.0
41,37.79652399999999,41.749298341666666,37.0,99.0
42,41.857307999999996,42.09160745833333,42.0,102.0
43,41.857307999999996,42.10368475,54.0,112.0
44,42.147163,42.46479577083333,51.0,96.0
45,42.147163,42.485327166666664,39.0,72.0
46,43.01672799999999,43.43822547916666,61.0,52.0
47,42.726873,43.67252493749999,54.0,77.0
48,43.596438,44.27276633333333,61.0,50.0
49,43.306582999999996,44.58798364583333,70.0,97.0
50,42.437017999999995,44.6507855625,42.0,83.0
51,44.176148,44.858514979166664,66.0,40.0
52,43.886292999999995,44.88991593749999,54.0,47.0
53,44.46600299999999,45.24378058333333,61.0,63.0
54,45.625423,45.96479489583333,66.0,54.0
55,45.045713,46.01914270833333,54.0,73.0
56,45.335567999999995,46.10609920833333,61.0,70.0
57,44.755857999999996,46.93822460416666,42.0,76.0
58,46.205133,47.16286222916666,54.0,86.0
59,45.915277999999994,47.307789729166664,68.0,97.0
60,46.49498799999999,47.33435977083333,66.0,67.0
61,46.784842999999995,47.38266893749999,61.0,78.0
62,47.654408,48.08798277083333,61.0,68.0
63,47.364552999999994,48.3246976875,54.0,96.0
64,48.523973,48.79088114583333,54.0,68.0
65,47.074698,48.82711302083333,42.0,78.0
66,47.94426299999999,48.86696808333333,70.0,95.0
67,48.813827999999994,49.18460085416666,68.0,100.0
68,48.234117999999995,49.38870708333333,61.0,63.0
69,49.103683,49.389914812499995,66.0,64.0
70,49.973248,50.371798625,53.0,76.0
71,50.263102999999994,50.643102218749995,56.0,66.0
72,49.683392999999995,50.70920797916666,49.0,77.0
73,49.39353799999999,51.21161175833333,37.0,72.0
74,50.84141949999999,51.31257328333333,49.0,77.0
75,51.129881,51.68036169583333,53.0,69.0
76,50.552958,51.724832843749994,61.0,97.0
77,52.283727,52.94358268125,61.0,92.0
78,51.995265499999995,52.98805382916666,54.0,85.0
79,52.572188499999996,53.25367879375,66.0,56.0
80,53.1491115,53.384688391666664,54.0,82.0
81,51.706804,53.4447845375,42.0,92.0
82,52.86065,53.982044081249995,70.0,107.0
83,53.7260345,54.014495999999994,66.0,69.0
84,53.43757299999999,54.123870985416666,61.0,92.0
85,54.8798805,55.19478430416666,63.0,55.0
86,54.591418999999995,55.22363045416667,58.0,95.0
87,54.3029575,55.26689967916666,51.0,69.0
88,54.014495999999994,55.75848615208333,39.0,79.0
89,55.4568035,56.23084185833333,51.0,90.0
90,56.0337265,56.25848608541666,58.0,52.0
91,55.168341999999996,56.29814954166666,66.0,100.0
92,55.745264999999996,56.33901492083333,63.0,74.0
93,56.899111,57.53252437708333,59.0,70.0
94,56.610649499999994,57.573389756249995,56.0,89.0
95,57.764495499999995,57.992860854166665,56.0,49.0
96,56.322188,58.07819738124999,44.0,96.0
97,57.476034,58.16473583125,63.0,40.0
98,57.187572499999995,58.64550499791666,68.0,122.0
99,58.341418499999996,58.656322304166665,63.0,86.0
100,58.052957,58.66473576458333,59.0,81.0
101,59.206802999999994,59.759687541666665,53.0,56.0
102,59.4952645,59.83060099375,56.0,73.0
103,58.9183415,59.921947135416666,49.0,88.0
104,60.0721875,60.76930279166666,49.0,92.0
105,60.360648999999995,60.93997584583333,56.0,79.0
106,58.62988,60.966418149999996,37.0,82.0
107,59.783725999999994,60.96762007291666,61.0,112.0
108,60.6491105,60.99286045416666,53.0,72.0
109,61.514495,61.93396609791667,61.0,52.0
110,61.2260335,62.16713914374999,54.0,77.0
111,62.091418,62.76449483333333,61.0,50.0
112,61.80295649999999,63.07819671458333,70.0,97.0
113,60.937571999999996,63.14069670625,42.0,83.0
114,62.668341,63.348419291666666,66.0,40.0
115,62.379879499999994,63.379972675,54.0,47.0
116,62.956802499999995,63.735555033333334,61.0,63.0
117,64.11905,64.46006925833333,66.0,54.0
118,63.536526,64.51468088333333,54.0,73.0
119,63.827788,64.60205948333333,61.0,70.0
120,63.245264,65.43822414166667,42.0,76.0
121,64.701574,65.66395219166667,54.0,86.0
122,64.410312,65.80958319166666,68.0,97.0
123,64.992836,65.83628220833333,66.0,67.0
124,65.284098,65.884825875,61.0,78.0
125,66.157884,66.59356340833334,61.0,68.0
126,65.86662199999999,66.831427375,54.0,96.0
127,67.03166999999999,67.29987375833333,54.0,68.0
128,65.57536,67.33628150833333,42.0,78.0
129,66.449146,67.37633003333333,70.0,95.0
130,67.322932,67.69550464166666,68.0,100.0
131,66.740408,67.90060163333334,61.0,63.0
132,67.614194,67.90181522499999,66.0,64.0
133,68.48798,68.88846525,53.0,76.0
134,68.779242,69.161523375,56.0,66.0
135,68.196718,69.22827091666666,49.0,77.0
136,67.905456,69.73555223333334,37.0,72.0
137,69.361766,69.83749393333333,49.0,77.0
138,69.65302799999999,70.20885298333333,53.0,69.0
139,69.070504,70.253755875,61.0,97.0
140,70.81807599999999,71.484337825,61.0,92.0
141,70.526814,71.52924071666666,54.0,85.0
142,71.109338,71.79744447499999,66.0,56.0
143,71.691862,71.92972596666667,54.0,82.0
144,70.235552,71.99040554999999,42.0,92.0
145,71.4006,72.532881025,70.0,107.0
146,72.27438599999999,72.565648,66.0,69.0
147,71.983124,72.67608484166666,61.0,92.0
148,73.43943399999999,73.75739501666666,63.0,55.0
149,73.148172,73.78652121666667,58.0,95.0
150,72.85691,73.83021051666667,51.0,69.0
151,72.565648,74.32656950833334,39.0,79.0
152,74.021958,74.80351103333334,51.0,90.0
153,74.60448199999999,74.83142364166666,58.0,52.0
154,73.730696,74.87147216666666,66.0,100.0
155,74.31322,74.91265220833333,63.0,74.0
156,75.475454,76.11192727083332,59.0,70.0
157,75.185599,76.1529900625,56.0,89.0
158,76.345019,76.57448754166666,56.0,49.0
159,74.895744,76.66023631249999,44.0,96.0
160,76.05516399999999,76.74719281249999,63.0,40.0
161,76.634874,77.21458399999999,59.0,81.0
162,76.924729,77.21458399999999,63.0,86.0
163,75.76530899999999,77.21458399999999,68.0,122.0
164,77.3595115,77.6892215625,54.0,89.0
165,77.21458399999999,77.81724085416666,47.0,92.0
166,77.93922149999999,78.29912479166666,66.0,72.0
167,77.6493665,78.30637116666666,59.0,89.0
168,78.5189315,79.38487331249999,49.0,97.0
169,78.95371399999999,79.52496989583332,53.0,70.0
170,78.374004,79.5839047625,37.0,78.0
171,79.243569,79.5839047625,61.0,88.0
172,80.11034699999999,80.45890464583333,61.0,83.0
173,79.8218855,80.56827963125,54.0,79.0
174,80.3988085,80.97212573125,70.0,112.0
175,80.3988085,80.98053919166667,66.0,90.0
176,79.533424,81.18246224166667,42.0,83.0
177,80.68727,81.35674106458333,61.0,41.0
178,80.9757315,81.38198144583333,54.0,63.0
179,81.26419299999999,81.78702946874999,70.0,112.0
180,81.26419299999999,81.79303908333333,66.0,117.0
181,81.5526545,81.855539075,61.0,69.0
182,82.418039,82.79303895,61.0,89.0
183,82.1295775,82.89520239791666,58.0,81.0
184,82.70650049999999,83.2762119625,65.0,74.0
185,82.70650049999999,83.28823119166667,70.0,97.0
186,82.994962,83.50097154791666,61.0,56.0
187,83.2834235,83.60553884166666,58.0,96.0
188,81.841116,83.7089042125,46.0,88.0
189,83.571885,84.08029839375,65.0,86.0
190,83.571885,84.08991377708332,70.0,117.0
191,83.86034649999999,84.16924068958333,61.0,88.0
192,84.725731,84.97933673541667,61.0,90.0
193,84.4372695,85.19808670625,54.0,82.0
194,85.0141925,85.61154818958333,70.0,107.0
195,85.0141925,85.67525010416666,66.0,97.0
196,85.5911155,85.90241353541666,54.0,79.0
197,84.148808,85.94688468333332,42.0,99.0
198,85.879577,86.26058656458333,66.0,112.0
199,85.879577,86.32188463333333,70.0,102.0
200,86.1680385,86.5214038375,61.0,65.0
201,86.7449615,87.11996144999999,68.0,72.0
202,86.7449615,87.22933643541666,65.0,72.0
203,86.7449615,87.29544219583333,61.0,69.0
204,87.3218845,87.86034596666667,49.0,67.0
205,87.61034599999999,87.89279788541666,68.0,102.0
206,87.61034599999999,88.00577863958333,65.0,102.0
207,86.45649999999999,88.20529784375,37.0,95.0
208,87.8988075,88.34472090208332,49.0,96.0
209,88.187269,88.79303815,65.0,97.0
210,88.187269,88.807461225,68.0,112.0
211,88.4757305,88.96130735833333,61.0,79.0
212,89.341115,89.54183612708333,61.0,74.0
213,89.05265349999999,89.86875916041666,54.0,86.0
214,89.6295765,90.23534565,66.0,102.0
215,89.6295765,90.23534565,70.0,102.0
216,90.20649949999999,90.44688408333333,54.0,40.0
217,88.764192,90.50097061458332,42.0,88.0
218,90.49496099999999,90.66443213125,66.0,122.0
219,90.49496099999999,91.03342246666666,70.0,107.0
220,90.7834225,91.03823015833333,66.0,27.0
221,90.7834225,91.10073015,61.0,93.0
222,91.64880699999999,91.90842235,63.0,67.0
223,91.3603455,92.14039347291666,51.0,76.0
224,91.9372685,92.57059959375,70.0,96.0
225,91.9372685,92.598431175,66.0,99.0
226,91.071884,92.75816025,39.0,88.0
227,92.5161465,92.8646463,51.0,83.0
228,92.806563,93.2784898125,70.0,107.0
229,92.806563,93.30027104999999,66.0,127.0
230,93.0969795,93.35351407499999,63.0,90.0
231,93.968229,94.1545795875,59.0,61.0
232,93.6778125,94.53333110625,56.0,79.0
233,94.54906199999999,94.8951416625,59.0,35.0
234,94.2586455,94.91571283125,63.0,100.0
235,94.2586455,94.92539338125,68.0,112.0
236,94.8394785,95.06334121875,56.0,59.0
237,93.387396,95.12626479375,44.0,90.0
238,95.129895,95.715568275,63.0,112.0
239,95.4203115,95.71677834375,59.0,69.0
240,95.129895,95.72161861875,68.0,99.0
241,96.291561,96.61464935625,61.0,90.0
242,96.0011445,96.86634365625,54.0,58.0
243,96.5819775,97.13618898749999,70.0,100.0
244,96.5819775,97.1821716,66.0,85.0
245,96.872394,97.4314457625,61.0,71.0
246,97.16281049999999,97.75453411875,54.0,85.0
247,97.453227,98.04253048125,66.0,102.0
248,98.03406,98.04253048125,66.0,88.0
249,95.710728,98.04495061875,42.0,79.0
250,98.03406,98.04495061875,42.0,99.0
251,97.453227,98.04737075625,70.0,102.0
252,98.03406,98.04737075625,70.0,82.0
253,97.7436435,98.087303025,61.0,100.0
254,98.03406,98.087303025,61.0,97.0
255,98.3244765,98.7310596,70.0,86.0
256,98.3244765,98.7528408375,66.0,79.0
257,98.3244765,98.77704221249999,61.0,93.0
258,98.9053095,99.08318960625,70.0,61.0
259,98.9053095,99.084399675,66.0,42.0
260,98.9053095,99.08802988125,61.0,66.0
261,98.76010124999999,99.3506148,54.0,38.0
262,99.195726,99.5756875875,70.0,89.0
263,99.195726,99.5950486875,66.0,86.0
264,99.195726,99.69790453125,61.0,97.0
265,99.77655899999999,100.20855354375,70.0,107.0
266,100.0669755,100.3065691125,61.0,107.0
267,99.77655899999999,100.3065691125,66.0,102.0
268,100.21218375,100.31503959375,54.0,8.0
269,100.6478085,100.9842076125,70.0,107.0
270,100.6478085,101.0132492625,66.0,107.0
271,100.6478085,101.02534994999999,61.0,102.0
272,101.2286415,101.4028914,61.0,82.0
273,101.2286415,101.4028914,70.0,93.0
274,101.2286415,101.40410146875,66.0,78.0
275,101.519058,101.7780127125,70.0,102.0
276,101.519058,101.78648319375,66.0,102.0
277,101.519058,102.03575735625,61.0,97.0
278,101.95468275,102.056328525,66.0,31.0
279,100.357392,102.53672581875,42.0,100.0
280,102.099891,102.77147915625,70.0,117.0
281,102.099891,102.78721005,66.0,117.0
282,102.3903075,102.830772525,61.0,96.0
283,102.9711405,103.24098583125,70.0,81.0
284,102.9711405,103.2930187875,66.0,81.0
285,102.9711405,103.3414215375,61.0,99.0
286,103.5519735,103.67177030625,66.0,82.0
287,103.5519735,103.69234147499999,70.0,82.0
288,103.5519735,103.70323209375,61.0,93.0
289,102.9711405,103.9706572875,54.0,93.0
290,103.84239,104.1207058125,66.0,117.0
291,103.84239,104.14248705,61.0,95.0
292,103.84239,104.1521676,70.0,107.0
293,104.1328065,104.3651397,54.0,83.0
294,102.680724,104.399021625,42.0,99.0
295,104.423223,104.563590975,66.0,127.0
296,104.423223,104.6361951,70.0,112.0
297,104.7136395,105.12869308124999,61.0,86.0
298,105.2944725,105.57883865625,68.0,95.0
299,105.2944725,105.638132025,65.0,93.0
300,105.2944725,105.696215325,61.0,100.0
301,105.8753055,106.02414395625,65.0,77.0
302,105.8753055,106.03624464375,68.0,88.0
303,105.8753055,106.044715125,61.0,76.0
304,105.2944725,106.25284694999999,49.0,83.0
305,106.165722,106.37748403124999,65.0,99.0
306,106.165722,106.4343572625,68.0,99.0
307,106.165722,106.4440378125,61.0,95.0
308,105.00405599999999,106.76107582499999,37.0,100.0
309,106.4561385,106.8820827,49.0,88.0
310,106.746555,107.30923696875,68.0,112.0
311,106.746555,107.32375779374999,65.0,97.0
312,107.03697149999999,107.53672989374999,61.0,83.0
313,107.6178045,107.92395189375,70.0,107.0
314,107.6178045,108.0243876,66.0,107.0
315,107.6178045,108.04495876874999,61.0,95.0
316,108.1986375,108.3269047875,70.0,95.0
317,108.1986375,108.38619815625,66.0,97.0
318,108.1986375,108.387408225,61.0,96.0
319,108.489054,108.52898626875,61.0,34.0
320,107.6178045,108.55681785,54.0,92.0
321,108.489054,108.87748606875,70.0,107.0
322,108.489054,108.90894785625,66.0,122.0
323,108.7794705,108.95735060625,54.0,88.0
324,107.327388,109.01543390625,42.0,88.0
325,109.069887,109.558754775,61.0,117.0
326,109.9411365,110.2194523125,66.0,85.0
327,109.9411365,110.27995575,63.0,89.0
328,109.9411365,110.3283585,58.0,99.0
329,110.5219695,110.6792784375,66.0,82.0
330,110.5219695,110.69258919375,63.0,93.0
331,110.5219695,110.71437043124999,58.0,86.0
332,109.9411365,110.894670675,51.0,86.0
333,110.812386,111.12458373749999,66.0,97.0
334,110.812386,111.15120525,63.0,102.0
335,109.65071999999999,111.3157746,39.0,102.0
336,111.1028025,111.475503675,51.0,92.0
337,111.6836355,111.8893471875,66.0,89.0
338,111.393219,111.89055725624999,58.0,100.0
339,111.6836355,111.91717876875,63.0,77.0
340,112.26446849999999,112.6541106375,65.0,99.0
341,112.26446849999999,112.65895091249999,68.0,100.0
342,112.26446849999999,112.6976731125,61.0,100.0
343,112.8453015,112.94452713749999,65.0,92.0
344,112.8453015,112.96267816875,68.0,89.0
345,112.8453015,112.9735687875,61.0,90.0
346,113.135718,113.42976470625,61.0,95.0
347,113.135718,113.430974775,65.0,97.0
348,113.135718,113.44428553125,68.0,93.0
349,111.974052,113.71776106875,37.0,97.0
350,113.42613449999999,113.8738599375,49.0,70.0
351,113.716551,114.24777118125,68.0,107.0
352,113.716551,114.26834235,65.0,102.0
353,114.0069675,114.48978493125,61.0,67.0
354,114.5878005,114.9435607125,70.0,81.0
355,114.5878005,115.03673600625,61.0,102.0
356,114.5878005,115.03673600625,66.0,81.0
357,115.1686335,115.38644587499999,70.0,92.0
358,115.1686335,115.41064725,66.0,83.0
359,115.1686335,115.44089896874999,61.0,82.0
360,114.5878005,115.531654125,54.0,39.0
361,115.45904999999999,116.65580799375,66.0,97.0
362,115.7494665,116.67153888749999,54.0,88.0
363,115.45904999999999,116.67153888749999,70.0,93.0
364,116.039883,116.712681225,61.0,93.0
365,114.297384,116.72478191249999,42.0,90.0
366,116.620716,116.72478191249999,42.0,83.0
367,117.201549,117.62386299375,61.0,52.0
368,116.9111325,117.85861633125,54.0,77.0
369,117.782382,118.4600205,61.0,50.0
370,117.49196549999999,118.77584844375,70.0,97.0
371,118.363215,119.04690384375,66.0,40.0
372,118.0727985,119.07836563125,54.0,47.0
373,118.65363149999999,119.432915775,61.0,63.0
374,119.8152975,120.15532681875,66.0,54.0
375,119.2344645,120.2097799125,54.0,73.0
376,119.524881,120.2969048625,61.0,70.0
377,118.944048,121.13064223125,42.0,76.0
378,120.3961305,121.35571501875,54.0,86.0
379,120.105714,121.50092326875,68.0,97.0
380,120.68654699999999,121.52754478125,66.0,67.0
381,120.9769635,121.57594753125,61.0,78.0
382,121.848213,122.28262768125,61.0,68.0
383,121.5577965,122.51980115625,54.0,96.0
384,122.71946249999999,122.98688769374999,54.0,68.0
385,121.26738,123.02318975624999,42.0,78.0
386,122.1386295,123.063122025,70.0,95.0
387,123.009879,123.38137010624999,68.0,100.0
388,122.429046,123.585871725,61.0,63.0
389,123.3002955,123.58708179375,66.0,64.0
390,123.3002955,123.61612344375,42.0,112.0
391,124.171545,124.5708676875,53.0,76.0
392,124.4619615,124.84313315624999,56.0,66.0
393,123.88112849999999,124.9096869375,49.0,77.0
394,123.590712,125.41549567499999,37.0,72.0
395,125.0427945,125.51714145,49.0,77.0
396,125.333211,125.8874224875,53.0,69.0
397,125.6236275,125.899523175,37.0,93.0
398,124.752378,125.93219503124999,61.0,97.0
399,126.494877,127.15920474375,61.0,92.0
400,126.2044605,127.2039772875,54.0,85.0
401,126.7852935,127.47140248125,66.0,56.0
402,127.36612650000001,127.603299975,54.0,82.0
403,125.91404399999999,127.66380341249999,42.0,92.0
404,127.94695949999999,128.1768725625,42.0,99.0
405,127.07570999999999,128.20470414375,70.0,107.0
406,127.94695949999999,128.23737599999998,66.0,69.0
407,127.656543,128.34749225625,61.0,92.0
408,129.1086255,129.4256635125,63.0,55.0
409,128.818209,129.4547051625,58.0,95.0
410,128.5277925,129.4982676375,51.0,69.0
411,128.23737599999998,129.99318575625,39.0,79.0
412,129.6894585,130.468742775,51.0,90.0
413,130.27029149999998,130.49657435625,58.0,52.0
414,129.399042,130.536506625,66.0,100.0
415,130.27029149999998,130.57159861875,39.0,99.0
416,129.979875,130.5776489625,63.0,74.0
417,131.141541,131.77924723125,59.0,70.0
418,130.8511245,131.82038956875,56.0,89.0
419,132.0127905,132.2427035625,56.0,49.0
420,130.560708,132.32861844375,44.0,96.0
421,131.722374,132.41574339375,63.0,40.0
422,132.5936235,132.8259567,44.0,117.0
423,132.303207,132.88404,59.0,81.0
424,132.5936235,132.88404,63.0,86.0
425,131.4319575,132.88404,68.0,122.0
426,133.02924825,133.35959701874998,54.0,89.0
427,132.88404,133.48786430625,47.0,92.0
428,133.61008125,133.9706817375,66.0,72.0
429,133.31966475,133.97794215,59.0,89.0
430,134.19091425,135.05853354375,49.0,97.0
431,134.62653899999998,135.19890151875,53.0,70.0
432,134.045706,135.2581948875,37.0,78.0
433,134.9169555,135.2581948875,61.0,88.0
434,135.207372,135.62968599375,70.0,88.0
435,135.207372,135.85475878124998,63.0,92.0
436,135.207372,135.87169974375,66.0,117.0
437,135.788205,136.28796339375,51.0,89.0
438,136.0786215,137.01521471249998,70.0,95.0
439,136.0786215,137.04304629375,66.0,107.0
440,136.0786215,137.061197325,63.0,82.0
441,135.207372,137.12533096875,39.0,112.0
442,136.949871,137.13380145,51.0,72.0
443,137.2402875,137.3758152,66.0,97.0
444,137.2402875,137.41816760625,63.0,92.0
445,137.53070400000001,137.98084957499998,68.0,96.0
446,137.53070400000001,138.21439284375,61.0,100.0
447,137.53070400000001,138.21681298125,66.0,96.0
448,138.111537,138.76497412499998,49.0,67.0
449,138.4019535,138.89445148125,68.0,122.0
450,138.4019535,139.036029525,66.0,127.0
451,138.69236999999998,139.0529704875,61.0,37.0
452,137.53070400000001,139.355487675,37.0,96.0
453,138.9827865,139.5031160625,49.0,83.0
454,139.273203,139.6289632125,68.0,127.0
455,139.41841125,139.6410639,61.0,83.0
456,139.273203,139.65921493125,66.0,127.0
457,139.854036,140.5002127125,66.0,107.0
458,139.854036,140.5389349125,59.0,93.0
459,139.854036,140.5389349125,63.0,122.0
460,140.28966075,141.06773495625,54.0,65.0
461,140.72528549999998,141.456167025,63.0,117.0
462,140.72528549999998,141.45737709374998,66.0,99.0
463,139.854036,141.50941004999999,47.0,68.0
464,141.3061185,141.55660273125,54.0,61.0
465,141.596535,141.64130754375,59.0,32.0
466,141.596535,141.69213043125,66.0,96.0
467,141.596535,141.72480228749998,63.0,112.0
468,142.177368,142.93608110625,65.0,92.0
469,142.177368,142.946971725,61.0,112.0
470,142.177368,143.47335163125,58.0,74.0
471,143.0486175,143.77465875,61.0,102.0
472,143.0486175,143.80733060625,65.0,86.0
473,143.6294505,143.81459101874998,58.0,64.0
474,142.177368,143.83274204999998,46.0,86.0
475,143.77465875,143.87509445625,61.0,117.0
476,143.919867,143.9973114,65.0,71.0
477,144.5007,145.14082636875,70.0,100.0
478,144.5007,145.1662378125,61.0,95.0
479,144.5007,145.16865795,66.0,102.0
480,144.93632474999998,145.5655605,54.0,57.0
481,145.3719495,145.99755504375,70.0,102.0
482,145.3719495,146.00723559375,66.0,112.0
483,145.80757425,146.0762095125,54.0,71.0
484,144.5007,146.2504594125,42.0,82.0
485,146.09799075,146.44770061875,70.0,100.0
486,146.09799075,146.596539075,66.0,127.0
487,146.824032,147.52114729166667,70.0,89.0
488,146.824032,147.53557036666666,66.0,93.0
489,146.824032,147.55359921041665,63.0,89.0
490,147.40095499999998,148.08124337083333,51.0,52.0
491,146.824032,148.5139356208333,39.0,86.0
492,147.97787799999998,148.54518561666666,70.0,127.0
493,147.97787799999998,148.56201253749998,66.0,127.0
494,148.2663395,148.61369522291665,51.0,100.0
495,148.554801,148.6341279125,63.0,99.0
496,149.131724,149.8408585208333,60.0,93.0
497,149.131724,149.85047390416665,63.0,127.0
498,149.131724,149.85888736458332,68.0,90.0
499,149.56441625,150.2639353875,56.0,82.0
500,149.9971085,150.59927188125,63.0,99.0
501,149.9971085,150.60888726458333,60.0,79.0
502,149.9971085,150.61850264791664,68.0,85.0
503,150.5740315,150.98028144583333,56.0,60.0
504,149.131724,151.078839125,44.0,86.0
505,150.862493,151.09206027708333,63.0,127.0
506,150.862493,151.11249296666665,68.0,117.0
507,151.439416,151.99710823333334,65.0,97.0
508,151.439416,152.01874284583332,68.0,99.0
509,151.439416,152.12811783125,61.0,99.0
510,152.016339,152.63052161041665,49.0,85.0
511,152.3048005,152.90456003541667,68.0,107.0
512,152.3048005,152.99350233125,61.0,97.0
513,152.3048005,152.99951194583332,65.0,107.0
514,151.439416,153.08124270416664,37.0,97.0
515,152.8817235,153.08244462708333,49.0,97.0
516,153.17018499999998,153.67739647083332,49.0,90.0
517,153.17018499999998,153.70263685208332,65.0,122.0
518,153.17018499999998,153.72787723333332,37.0,72.0
519,153.17018499999998,153.72907915624998,68.0,127.0
520,153.747108,153.85287721666666,65.0,97.0
521,153.747108,153.87090606041664,68.0,92.0
522,153.747108,153.90455990208332,61.0,96.0
523,153.747108,153.91537720833333,49.0,82.0
524,153.747108,153.93580989791664,37.0,66.0
525,154.03556949999998,154.16657909791667,65.0,56.0
526,154.03556949999998,154.18580986458332,49.0,71.0
527,154.03556949999998,154.18580986458332,68.0,61.0
528,154.03556949999998,154.19061755624998,61.0,71.0
529,154.03556949999998,154.2086464,37.0,71.0
530,154.324031,154.48148290208331,65.0,96.0
531,154.324031,154.48148290208331,68.0,74.0
532,154.324031,154.49470405416665,49.0,90.0
533,154.324031,154.49951174583333,61.0,93.0
534,154.324031,154.51393482083333,37.0,66.0
535,154.6124925,154.7627328645833,65.0,95.0
536,154.6124925,154.78196363125,49.0,99.0
537,154.6124925,154.78677132291665,61.0,100.0
538,154.6124925,154.78917516874998,68.0,88.0
539,154.6124925,154.80960785833332,37.0,73.0
540,154.90095399999998,155.05720397916664,65.0,97.0
541,154.90095399999998,155.06080974791666,49.0,102.0
542,154.90095399999998,155.06321359375,61.0,100.0
543,154.90095399999998,155.06441551666666,68.0,96.0
544,154.90095399999998,155.08605012916667,37.0,74.0
545,155.1894155,155.34566547916666,65.0,127.0
546,155.1894155,155.35407893958333,49.0,99.0
547,155.1894155,155.35648278541666,61.0,117.0
548,155.1894155,155.36369432291664,37.0,89.0
549,155.1894155,155.36609816875,68.0,122.0
550,155.47787699999998,155.61609813541665,65.0,100.0
551,155.47787699999998,155.62811736458332,61.0,100.0
552,155.47787699999998,155.63052121041665,68.0,95.0
553,155.47787699999998,155.64133851666665,49.0,100.0
554,155.47787699999998,155.6425404395833,37.0,90.0
555,155.7663385,155.78917503541666,66.0,72.0
556,155.7663385,156.01994423541666,65.0,122.0
557,155.7663385,156.02114615833332,68.0,127.0
558,155.7663385,156.03196346458333,61.0,117.0
559,155.7663385,156.03797307916665,49.0,90.0
560,155.7663385,156.05119423124998,37.0,93.0
561,156.0548,156.72227541666666,42.0,99.0
562,156.928586,157.03780925,54.0,96.0
563,156.928586,157.04023643333332,42.0,90.0
564,156.637324,157.20043053333333,70.0,100.0
565,156.637324,157.22227518333332,66.0,117.0
566,156.637324,157.22712955,61.0,107.0
567,157.219848,158.23076985833333,54.0,95.0
568,157.219848,158.25140091666665,42.0,83.0
569,157.802372,158.26960479166667,70.0,122.0
570,157.802372,158.3120805,66.0,127.0
571,158.093634,158.32543000833334,61.0,76.0
572,158.384896,159.04994423333332,42.0,93.0
573,158.384896,159.0547986,54.0,82.0
574,159.258682,159.36790525,42.0,76.0
575,159.258682,159.36790525,54.0,99.0
576,158.96742,159.46377899166666,61.0,102.0
577,158.96742,159.47470131666665,66.0,117.0
578,158.96742,159.48198286666667,70.0,102.0
579,159.841206,160.26960385833334,70.0,107.0
580,159.841206,160.27081745,66.0,122.0
581,159.841206,160.27324463333332,61.0,117.0
582,159.549944,160.55722508333332,54.0,100.0
583,159.549944,160.56693381666668,42.0,88.0
584,160.42373,160.71620089791665,66.0,107.0
585,160.42373,160.71982759166667,70.0,96.0
586,160.42373,160.73675216249998,61.0,102.0
587,160.714992,161.4040638125,54.0,93.0
588,160.714992,161.41131719999998,42.0,93.0
589,161.5853985,161.69782600624998,54.0,92.0
590,161.5853985,161.7014527,42.0,71.0
591,161.295263,161.88641408125,66.0,127.0
592,161.295263,161.90696534583333,61.0,100.0
593,161.295263,161.90817424374998,70.0,102.0
594,161.875534,162.41470247083333,54.0,93.0
595,161.875534,162.48723634583334,42.0,81.0
596,162.1656695,162.57669479166665,70.0,107.0
597,162.1656695,162.58394817916667,66.0,122.0
598,162.1656695,162.58999266875,61.0,112.0
599,162.7459405,162.96475102291666,66.0,117.0
600,162.7459405,162.98892898124998,70.0,100.0
601,162.7459405,163.02519591875,61.0,102.0
602,163.036076,163.70096985416666,49.0,86.0
603,163.036076,163.717894425,37.0,67.0
604,163.90648249999998,164.02132780208333,49.0,93.0
605,163.90648249999998,164.037043475,37.0,69.0
606,163.616347,164.23772052916667,68.0,107.0
607,163.616347,164.2473917125,65.0,122.0
608,163.616347,164.27036077291666,61.0,107.0
609,164.4867535,164.88448091458332,65.0,112.0
610,164.4867535,164.88689871041666,68.0,112.0
611,164.4867535,164.90261438333332,61.0,100.0
612,164.196618,165.01262409375,37.0,88.0
613,164.196618,165.09120245833333,49.0,97.0
614,165.0670245,165.18549649583332,65.0,112.0
615,165.0670245,165.21088335208333,68.0,96.0
616,165.0670245,165.23989690208333,61.0,100.0
617,165.35716,165.44661844583334,42.0,97.0
618,165.35716,165.45749852708332,54.0,102.0
619,165.64729549999998,166.04260511875,54.0,107.0
620,165.64729549999998,166.05348519999998,42.0,95.0
621,166.2275665,166.32548723125,42.0,88.0
622,166.2275665,166.3436207,54.0,96.0
623,165.937431,166.53704436666666,70.0,112.0
624,165.937431,166.55759563125,66.0,127.0
625,165.937431,166.58177358958332,61.0,107.0
626,166.51770199999999,167.07258614375,54.0,102.0
627,166.51770199999999,167.13423993749998,42.0,90.0
628,166.8078375,167.19589373124998,70.0,97.0
629,166.8078375,167.20798271041667,66.0,122.0
630,166.8078375,167.22007168958334,61.0,107.0
631,167.3881085,167.44130000833331,70.0,46.0
632,167.3881085,167.61900800208332,66.0,107.0
633,167.3881085,167.67461730624998,61.0,102.0
634,167.678244,167.76286685416667,51.0,90.0
635,167.678244,167.76891134375,39.0,96.0
636,167.9683795,168.65866021041666,39.0,92.0
637,167.9683795,168.65986910833334,51.0,90.0
638,168.838786,168.93670673124998,51.0,102.0
639,168.838786,168.94637791458334,39.0,93.0
640,168.258515,168.96572028125,66.0,117.0
641,168.258515,168.97418256666666,63.0,117.0
642,168.5486505,169.00440501458334,58.0,63.0
643,169.1289215,169.52906671041666,39.0,89.0
644,169.1289215,169.62336074791665,51.0,81.0
645,169.419057,169.9195407375,66.0,107.0
646,169.419057,169.926794125,63.0,127.0
647,169.7091925,169.96064326666666,58.0,77.0
648,169.999328,170.65817736458334,56.0,73.0
649,169.999328,170.66543075208332,44.0,93.0
650,170.8697345,170.96040184375,56.0,86.0
651,170.8697345,170.96523743541667,44.0,68.0
652,170.579599,171.21668820208333,59.0,93.0
653,171.15986999999998,171.24328395625,44.0,90.0
654,171.15986999999998,171.25053734374998,56.0,100.0
655,170.579599,171.2565818333333,63.0,117.0
656,170.579599,171.27834199583333,68.0,97.0
657,171.4500055,171.77399014166667,56.0,99.0
658,171.4500055,171.85135960833333,44.0,90.0
659,171.740141,172.23095355416666,63.0,127.0
660,172.03027649999999,172.25634041041667,59.0,79.0
661,171.740141,172.25996710416666,68.0,117.0
662,172.6105475,172.78704659583332,59.0,79.0
663,172.6105475,172.78704659583332,66.0,89.0
664,172.6105475,172.80880675833333,63.0,95.0
665,172.900683,172.94783001874998,59.0,69.0
666,172.320412,173.19323629583332,47.0,93.0
667,172.900683,173.4301802875,63.0,122.0
668,173.1908185,173.45073155208334,59.0,71.0
669,172.900683,173.45194045,66.0,117.0
670,173.7710895,173.95363308541667,68.0,88.0
671,173.7710895,173.95605088125,65.0,99.0
672,173.7710895,173.97660214583334,61.0,79.0
673,173.480954,174.1845325875,49.0,75.0
674,174.061225,174.61369134791667,65.0,102.0
675,174.061225,174.62940702083333,68.0,96.0
676,174.061225,174.7067764875,61.0,107.0
677,174.641496,175.3160610375,42.0,112.0
678,175.5119025,175.60498763958333,42.0,89.0
679,175.5119025,175.62191221041667,54.0,86.0
680,175.221767,175.83226044791667,66.0,117.0
681,175.221767,175.83226044791667,70.0,107.0
682,175.221767,175.84314052916665,61.0,100.0
683,176.0921735,176.46693185416666,70.0,95.0
684,176.0921735,176.48990091458333,66.0,102.0
685,176.0921735,176.4983632,61.0,99.0
686,175.80203799999998,176.80179657708334,54.0,95.0
687,175.80203799999998,176.80542327083333,42.0,90.0
688,176.67244449999998,176.919059675,70.0,107.0
689,176.67244449999998,176.93840204166668,66.0,112.0
690,176.67244449999998,176.9408198375,61.0,107.0
691,176.96258,177.6250560583333,54.0,85.0
692,176.96258,177.62989165,42.0,83.0
693,177.8329865,177.93695172083332,42.0,78.0
694,177.8329865,177.95024959791667,54.0,88.0
695,177.54285099999998,177.98168094375,70.0,93.0
696,177.54285099999998,177.99497882083332,66.0,112.0
697,177.54285099999998,178.03729024791667,61.0,99.0
698,178.4132575,178.83878956666666,70.0,112.0
699,178.4132575,178.86175862708333,66.0,122.0
700,178.4132575,178.86417642291667,61.0,112.0
701,178.123122,179.12771616875,42.0,92.0
702,178.123122,179.1313428625,54.0,93.0
703,178.9935285,179.2764106125,70.0,102.0
704,178.9935285,179.29333518333334,61.0,112.0
705,178.9935285,179.29696187708333,66.0,107.0
706,179.283664,179.90382863125,42.0,97.0
707,179.283664,179.90866422291666,54.0,93.0
708,179.863935,180.23264886458333,70.0,100.0
709,180.1540705,180.25440902708334,42.0,86.0
710,180.1540705,180.26408021041667,54.0,93.0
711,179.863935,180.27375139375,66.0,127.0
712,179.863935,180.29430265833332,61.0,117.0
713,180.444206,180.87457365833333,54.0,95.0
714,180.444206,180.98216557291667,42.0,86.0
715,180.7343415,181.13811340416666,70.0,117.0
716,180.7343415,181.14174009791665,61.0,112.0
717,180.7343415,181.14294899583334,66.0,122.0
718,181.3146125,181.54309420625,70.0,102.0
719,181.3146125,181.55880987916666,66.0,127.0
720,181.3146125,181.619254775,61.0,97.0
721,181.604748,182.26359736458332,49.0,77.0
722,181.604748,182.26964185416665,37.0,81.0
723,182.4751545,182.57791082291666,49.0,79.0
724,182.4751545,182.58516421041665,37.0,73.0
725,182.76529,182.85233065,37.0,86.0
726,182.76529,182.86079293541667,49.0,90.0
727,182.18501899999998,183.05542549999998,65.0,117.0
728,182.18501899999998,183.06872337708333,68.0,112.0
729,182.18501899999998,183.07960345833334,61.0,107.0
730,183.05542549999998,183.46040630208333,37.0,88.0
731,183.05542549999998,183.54744695208333,49.0,95.0
732,183.345561,183.90044514375,68.0,112.0
733,183.345561,183.90165404166666,65.0,117.0
734,183.6356965,183.95000995833334,61.0,76.0
735,183.92583199999999,184.58830805833333,42.0,89.0
736,183.92583199999999,184.59072585416666,54.0,88.0
737,184.7962385,184.90020372083333,42.0,72.0
738,184.7962385,184.91350159791665,54.0,88.0
739,184.506103,185.12747652916667,66.0,122.0
740,184.506103,185.12747652916667,70.0,100.0
741,184.506103,185.14923669166666,61.0,100.0
742,185.086374,185.52157725,54.0,97.0
743,185.086374,185.60378230833334,42.0,82.0
744,185.3765095,185.80445936249998,70.0,95.0
745,185.3765095,185.81654834166665,66.0,102.0
746,185.3765095,185.82380172916666,61.0,96.0
747,185.95678049999998,186.14657747291665,70.0,90.0
748,185.95678049999998,186.20218677708334,66.0,112.0
749,185.95678049999998,186.23603591875,61.0,102.0
750,186.246916,186.91785434374998,51.0,73.0
751,186.246916,186.92389883333334,39.0,76.0
752,187.1173225,187.2261233125,51.0,89.0
753,187.1173225,187.22733221041665,39.0,76.0
754,186.82718699999998,187.43042706041666,66.0,102.0
755,186.82718699999998,187.450978325,63.0,117.0
756,186.82718699999998,187.45702281458333,58.0,102.0
757,187.407458,187.8354078625,39.0,83.0
758,187.407458,187.95267096041667,51.0,88.0
759,187.69759349999998,188.12312556666666,66.0,99.0
760,187.69759349999998,188.13037895416667,63.0,112.0
761,187.69759349999998,188.14246793333334,58.0,96.0
762,188.2778645,188.47975045208332,66.0,90.0
763,188.2778645,188.50030171666666,63.0,100.0
764,188.2778645,188.51480849166666,58.0,96.0
765,188.56799999999998,189.23410275208332,44.0,79.0
766,188.56799999999998,189.24014724166665,56.0,96.0
767,189.43840649999999,189.52907384374998,44.0,75.0
768,189.43840649999999,189.54962510833332,56.0,96.0
769,189.148271,189.55808739375,63.0,107.0
770,189.148271,189.56050518958332,59.0,95.0
771,189.148271,189.56654967916666,68.0,99.0
772,189.728542,190.44179177083333,56.0,82.0
773,190.0186775,190.44179177083333,68.0,107.0
774,190.0186775,190.45025405625,59.0,93.0
775,190.0186775,190.45146295416666,63.0,117.0
776,189.728542,190.53971250208332,44.0,82.0
777,190.5989485,190.79116326874998,63.0,112.0
778,190.5989485,190.80567004374998,59.0,90.0
779,190.5989485,190.816550125,68.0,93.0
780,190.889084,191.01528590625,63.0,97.0
781,190.889084,191.01528590625,66.0,102.0
782,190.889084,191.018891675,59.0,90.0
783,190.889084,191.04172821041666,47.0,78.0
784,191.1775455,191.44797815625,47.0,88.0
785,191.1775455,191.61023775,59.0,88.0
786,191.1775455,191.61624736458333,66.0,97.0
787,191.1775455,191.62345890208334,63.0,97.0
788,191.7544685,191.9347569375,63.0,107.0
789,191.7544685,191.941968475,59.0,85.0
790,191.7544685,191.9636030875,66.0,99.0
791,192.04292999999998,192.63067030625,37.0,78.0
792,192.04292999999998,192.72922798541666,49.0,81.0
793,192.3313915,192.73163183124998,65.0,93.0
794,192.3313915,192.73643952291667,61.0,93.0
795,192.3313915,192.74004529166666,68.0,96.0
796,192.9083145,193.15831446666667,65.0,93.0
797,192.9083145,193.18355484791667,68.0,96.0
798,192.9083145,193.18595869375,61.0,93.0
799,193.196776,193.28640772916665,42.0,86.0
800,193.196776,193.29367516666667,54.0,83.0
801,193.778171,193.8871825625,66.0,127.0
802,193.778171,193.92473098958334,70.0,117.0
803,193.778171,193.95622321875,61.0,112.0
804,193.4874735,194.21785096875,54.0,93.0
805,193.4874735,194.22390716666666,42.0,85.0
806,194.0688685,194.44798648958334,66.0,88.0
807,194.0688685,194.45040896875,70.0,89.0
808,194.0688685,194.48916863541666,61.0,89.0
809,194.359566,194.99062182291667,42.0,89.0
810,194.940961,195.10932330208334,66.0,127.0
811,194.359566,195.16382908333333,54.0,89.0
812,194.940961,195.19653255208334,70.0,127.0
813,195.2316585,195.29464295833333,46.0,17.0
814,195.2316585,195.36852857291666,61.0,107.0
815,195.522356,195.65559235416666,46.0,92.0
816,195.95840225,196.02502042708332,58.0,100.0
817,195.66770475,196.43441940625,46.0,100.0
818,195.95840225,196.78931260416667,61.0,122.0
819,195.95840225,196.80505871875,65.0,99.0
820,196.685146,196.81353739583332,46.0,96.0
821,196.24909975,196.98553341666667,58.0,43.0
822,196.9758435,197.42157966666667,46.0,85.0
823,197.41188975,197.78374030208334,58.0,86.0
824,197.266541,197.78737402083334,65.0,112.0
825,197.847936,197.88639753333334,54.0,55.0
826,197.266541,197.92125329791668,61.0,127.0
827,197.847936,197.97173406041668,42.0,88.0
828,198.13639750000002,198.88519547708333,54.0,97.0
829,198.13639750000002,198.89240701458334,42.0,96.0
830,198.7133205,198.95490700625,66.0,25.0
831,198.28062825,199.07149352916667,61.0,95.0
832,199.001782,199.08952237291666,54.0,92.0
833,199.001782,199.102743525,42.0,82.0
834,198.424859,199.189281975,70.0,97.0
835,199.2902435,199.6003396125,54.0,93.0
836,199.2902435,199.6724549875,42.0,96.0
837,199.578705,199.95971456458335,66.0,127.0
838,199.72293575,200.02341647916668,61.0,90.0
839,199.578705,200.03783955416668,70.0,122.0
840,200.155628,200.25779144791667,49.0,83.0
841,200.155628,200.26259913958333,37.0,88.0
842,200.29985875,201.07750287708333,49.0,99.0
843,200.29985875,201.093127875,37.0,76.0
844,200.58832025,201.39481052708334,65.0,107.0
845,201.309474,201.40803167916667,49.0,89.0
846,201.309474,201.42726244583335,37.0,89.0
847,200.58832025,201.496973975,68.0,112.0
848,200.58832025,201.61476242083333,61.0,99.0
849,201.5979355,201.900820075,37.0,86.0
850,201.5979355,202.00298352291668,49.0,90.0
851,202.03062775,202.39601231666666,61.0,85.0
852,201.88639700000002,202.45490653958333,68.0,127.0
853,201.88639700000002,202.4705315375,65.0,117.0
854,202.46332,202.56548344791668,42.0,82.0
855,202.46332,202.57389690833332,54.0,85.0
856,202.7517815,203.46812755833335,42.0,86.0
857,202.7517815,203.47293525,54.0,100.0
858,203.040243,203.77101213333333,61.0,107.0
859,203.040243,203.94408903333334,70.0,112.0
860,203.040243,203.97413710625,66.0,127.0
861,203.617166,204.26019476041668,54.0,86.0
862,203.617166,204.29745437083335,42.0,83.0
863,204.4825505,204.54985818333333,39.0,31.0
864,204.194089,204.60033894583333,70.0,122.0
865,204.194089,204.65442547708335,66.0,127.0
866,204.4825505,204.75418507916666,61.0,83.0
867,204.771012,204.88279083125,39.0,86.0
868,204.771012,204.8863966,51.0,90.0
869,205.0594735,205.53303112916666,39.0,77.0
870,205.0594735,205.56067535625002,51.0,95.0
871,205.347935,206.00298298958333,66.0,107.0
872,205.347935,206.01139645,63.0,112.0
873,205.924858,206.01620414166666,39.0,78.0
874,205.924858,206.01980991041668,51.0,86.0
875,205.347935,206.02341567916667,58.0,96.0
876,206.2133195,206.54985791666667,39.0,82.0
877,206.2133195,206.660434825,51.0,99.0
878,206.501781,206.95130017083335,66.0,122.0
879,206.7902425,206.9561078625,58.0,82.0
880,206.501781,206.98735785833333,63.0,127.0
881,207.07870400000002,207.21692513541666,44.0,81.0
882,207.07870400000002,207.21692513541666,56.0,92.0
883,207.3671655,208.05586733125,44.0,77.0
884,207.3671655,208.06548271458334,56.0,96.0
885,208.23255,208.31908845,44.0,83.0
886,208.23255,208.33230960208334,56.0,83.0
887,207.655627,208.44288651041666,63.0,117.0
888,207.655627,208.45250189375,59.0,90.0
889,207.655627,208.45490573958332,68.0,100.0
890,208.52101150000001,208.823896075,56.0,93.0
891,208.52101150000001,208.8671653,44.0,82.0
892,209.0979345,209.31908831666667,59.0,67.0
893,208.809473,209.32269408541669,63.0,127.0
894,208.809473,209.33230946875,68.0,117.0
895,209.386396,209.98375168958333,42.0,92.0
896,209.386396,209.98375168958333,54.0,93.0
897,210.2517805,210.34913625625,42.0,88.0
898,210.2517805,210.35514587083333,54.0,93.0
899,210.540242,210.64480929375,42.0,83.0
900,210.540242,210.64601121666666,54.0,85.0
901,209.963319,210.79625158125,70.0,97.0
902,209.963319,210.81908811666668,66.0,107.0
903,209.963319,210.83351119166667,61.0,96.0
904,210.82870350000002,211.37798227291668,54.0,99.0
905,210.82870350000002,211.38038611875,42.0,88.0
906,211.117165,211.70610722916666,66.0,127.0
907,211.117165,211.71692453541667,70.0,127.0
908,211.4056265,211.7589918375,61.0,102.0
909,211.694088,211.78543414166666,44.0,86.0
910,211.694088,211.79865529375002,56.0,76.0
911,211.9825495,212.76139555,56.0,92.0
912,211.9825495,212.76500131875,44.0,97.0
913,212.847934,212.94408783333333,56.0,69.0
914,212.847934,212.94528975625,44.0,89.0
915,212.27101100000002,213.24937625416666,63.0,100.0
916,212.27101100000002,213.25418394583335,59.0,86.0
917,212.27101100000002,213.26019356041667,68.0,92.0
918,213.1363955,213.48375122291668,56.0,85.0
919,213.1363955,213.53903967708334,44.0,89.0
920,213.7133185,213.97413577291667,59.0,72.0
921,213.424857,213.9801453875,68.0,112.0
922,213.424857,214.06788576041666,63.0,117.0
923,214.00178,214.68807798541667,54.0,89.0
924,214.00178,214.6940876,42.0,96.0
925,214.8671645,214.95370295,42.0,71.0
926,214.8671645,214.968126025,54.0,77.0
927,214.57870300000002,215.50778941458333,70.0,100.0
928,214.57870300000002,215.53423171875,66.0,107.0
929,214.57870300000002,215.5522605625,61.0,92.0
930,215.732549,215.80466437500002,61.0,97.0
931,215.4440875,216.309472,42.0,72.0
932,215.4440875,216.309472,54.0,77.0
933,216.0210105,216.309472,61.0,97.0
934,215.732549,216.309472,66.0,122.0
935,215.732549,216.309472,70.0,102.0
936,216.309472,217.03034545,49.0,86.0
937,216.309472,217.04005418333332,37.0,96.0
938,216.309472,217.05461728333333,61.0,112.0
939,217.183258,217.43204429166667,63.0,117.0
940,217.47452,217.725733475,61.0,112.0
941,217.47452,217.72937425,37.0,79.0
942,217.47452,217.74393735,49.0,85.0
943,218.057044,218.199034225,61.0,117.0
944,218.057044,218.202675,37.0,81.0
945,218.057044,218.21966528333334,49.0,85.0
946,218.639568,218.847092175,61.0,127.0
947,218.639568,218.86044168333333,49.0,97.0
948,218.639568,218.86286886666667,37.0,95.0
949,218.93083,219.19175220833333,63.0,122.0
950,219.222092,219.41262589166666,37.0,89.0
951,219.222092,219.41869385,49.0,78.0
952,219.222092,219.480587025,66.0,127.0
953,219.513354,219.80704318333332,63.0,122.0
954,219.804616,220.24636336666666,49.0,73.0
955,219.804616,220.25849928333332,37.0,77.0
956,219.804616,220.48180015,61.0,122.0
957,220.38714,220.61529523333334,49.0,95.0
958,220.38714,220.6201496,37.0,96.0
959,220.969664,221.69053745,49.0,86.0
960,220.969664,221.70024618333332,37.0,96.0
961,220.969664,221.71480928333332,61.0,112.0
962,221.84345,222.09223629166667,63.0,117.0
963,222.134712,222.385925475,61.0,112.0
964,222.134712,222.38956625,37.0,79.0
965,222.134712,222.40412935,49.0,85.0
966,222.71723599999999,222.859226225,61.0,117.0
967,222.71723599999999,222.862867,37.0,81.0
968,222.71723599999999,222.87985728333334,49.0,85.0
969,223.29976,223.507284175,61.0,127.0
970,223.29976,223.52063368333333,49.0,97.0
971,223.29976,223.52306086666667,37.0,95.0
972,223.591022,223.85194420833332,63.0,122.0
973,223.882284,224.07281789166666,37.0,89.0
974,223.882284,224.07888585,49.0,78.0
975,223.882284,224.140779025,66.0,127.0
976,224.173546,224.46723518333334,63.0,122.0
977,224.464808,224.90655536666668,49.0,73.0
978,224.464808,224.91869128333332,37.0,77.0
979,224.464808,225.14199215,61.0,122.0
980,225.047332,225.27548723333334,49.0,95.0
981,225.047332,225.28034159999999,37.0,96.0
982,225.629856,226.35072945,49.0,86.0
983,225.629856,226.36043818333334,37.0,96.0
984,225.629856,226.37500128333332,61.0,112.0
985,226.50364199999999,226.75242829166666,63.0,117.0
986,226.794904,227.046117475,61.0,112.0
987,226.794904,227.04975825,37.0,79.0
988,226.794904,227.06432135,49.0,85.0
989,227.377428,227.519418225,61.0,117.0
990,227.377428,227.523059,37.0,81.0
991,227.377428,227.54004928333333,49.0,85.0
992,227.959952,228.167476175,61.0,127.0
993,227.959952,228.18082568333332,49.0,97.0
994,227.959952,228.18325286666666,37.0,95.0
995,228.251214,228.51213620833335,63.0,122.0
996,228.542476,228.73300989166665,37.0,89.0
997,228.542476,228.73907785,49.0,78.0
998,228.542476,228.800971025,66.0,127.0
999,228.833738,229.12742718333334,63.0,122.0
1000,229.125,229.56674736666668,49.0,73.0
1001,229.125,229.57888328333334,37.0,77.0
1002,229.125,229.80218415,61.0,122.0
1003,229.707524,229.93567923333333,49.0,95.0
1004,229.707524,229.9405336,37.0,96.0
1005,230.29004799999998,231.01092145,49.0,86.0
1006,230.29004799999998,231.02063018333334,37.0,96.0
1007,230.29004799999998,231.03519328333334,61.0,112.0
1008,231.163834,231.41262029166666,63.0,117.0
1009,231.455096,231.706309475,61.0,112.0
1010,231.455096,231.70995025,37.0,79.0
1011,231.455096,231.72451335,49.0,85.0
1012,232.03762,232.179610225,61.0,117.0
1013,232.03762,232.18325099999998,37.0,81.0
1014,232.03762,232.20024128333333,49.0,85.0
1015,232.62014399999998,232.82766817499999,61.0,127.0
1016,232.62014399999998,232.84101768333332,49.0,97.0
1017,232.62014399999998,232.84344486666666,37.0,95.0
1018,232.911406,233.17232820833334,63.0,122.0
1019,233.202668,233.39136989791666,37.0,89.0
1020,233.202668,233.39737951249998,49.0,78.0
1021,233.202668,233.45867758125,66.0,127.0
1022,233.4911295,233.7819948458333,63.0,122.0
1023,233.77959099999998,234.21709094166667,49.0,73.0
1024,233.77959099999998,234.2291101708333,37.0,77.0
1025,233.77959099999998,234.4502639875,61.0,122.0
1026,234.35651399999998,234.58247550833332,49.0,95.0
1027,234.35651399999998,234.5872832,37.0,96.0
1028,234.933437,235.6473792125,49.0,86.0
1029,234.933437,235.6569945958333,37.0,96.0
1030,234.933437,235.67141767083334,61.0,112.0
1031,235.79882149999997,236.04521569791666,63.0,117.0
1032,236.08728299999999,236.33608104375,61.0,112.0
1033,236.08728299999999,236.3396868125,37.0,79.0
1034,236.08728299999999,236.3541098875,49.0,85.0
1035,236.66420599999998,236.80483098124998,61.0,117.0
1036,236.66420599999998,236.80843675,37.0,81.0
1037,236.66420599999998,236.82526367083332,49.0,85.0
1038,237.241129,237.44665781875,61.0,127.0
1039,237.241129,237.45987897083333,49.0,97.0
1040,237.241129,237.46228281666666,37.0,95.0
1041,237.52959049999998,237.7880039270833,63.0,122.0
1042,237.818052,238.00675389791667,37.0,89.0
1043,237.818052,238.0127635125,49.0,78.0
1044,237.818052,238.07406158125,66.0,127.0
1045,238.10651349999998,238.39737884583332,63.0,122.0
1046,238.394975,238.83247494166665,49.0,73.0
1047,238.394975,238.84449417083331,37.0,77.0
1048,238.394975,239.0656479875,61.0,122.0
1049,238.97189799999998,239.19785950833332,49.0,95.0
1050,238.97189799999998,239.20266719999998,37.0,96.0
1051,239.54882099999998,240.26276321249998,49.0,86.0
1052,239.54882099999998,240.27237859583332,37.0,96.0
1053,239.54882099999998,240.2868016708333,61.0,112.0
1054,240.41420549999998,240.66059969791667,63.0,117.0
1055,240.702667,240.95146504374998,61.0,112.0
1056,240.702667,240.9550708125,37.0,79.0
1057,240.702667,240.9694938875,49.0,85.0
1058,241.27958999999998,241.42021498124998,61.0,117.0
1059,241.27958999999998,241.42382074999998,37.0,81.0
1060,241.27958999999998,241.44064767083333,49.0,85.0
1061,241.85651299999998,242.06204181874998,61.0,127.0
1062,241.85651299999998,242.0752629708333,49.0,97.0
1063,241.85651299999998,242.07766681666666,37.0,95.0
1064,242.1449745,242.40338792708332,63.0,122.0
1065,242.433436,242.62213789791664,37.0,89.0
1066,242.433436,242.6281475125,49.0,78.0
1067,242.433436,242.68944558125,66.0,127.0
1068,242.72189749999998,243.01276284583332,63.0,122.0
1069,243.010359,243.44785894166665,49.0,73.0
1070,243.010359,243.45987817083332,37.0,77.0
1071,243.010359,243.68103198749998,61.0,122.0
1072,243.587282,243.81324350833333,49.0,95.0
1073,243.587282,243.81805119999999,37.0,96.0
1074,244.16420499999998,244.87814721249998,49.0,86.0
1075,244.16420499999998,244.88776259583332,37.0,96.0
1076,244.16420499999998,244.90218567083332,61.0,112.0
1077,245.0295895,245.27598369791664,63.0,117.0
1078,245.318051,245.56684904374998,61.0,112.0
1079,245.318051,245.57045481249997,37.0,79.0
1080,245.318051,245.5848778875,49.0,85.0
1081,245.894974,246.03559898125,61.0,117.0
1082,245.894974,246.03920474999998,37.0,81.0
1083,245.894974,246.05603167083333,49.0,85.0
1084,246.47189699999998,246.67742581874998,61.0,127.0
1085,246.47189699999998,246.6906469708333,49.0,97.0
1086,246.47189699999998,246.69305081666664,37.0,95.0
1087,246.7603585,247.01877192708332,63.0,122.0
1088,247.04881999999998,247.23752189791665,37.0,89.0
1089,247.04881999999998,247.2435315125,49.0,78.0
1090,247.04881999999998,247.30482958124998,66.0,127.0
1091,247.3372815,247.62814684583333,63.0,122.0
1092,247.625743,248.06324294166666,49.0,73.0
1093,247.625743,248.07526217083333,37.0,77.0
1094,247.625743,248.29641598749998,61.0,122.0
1095,248.202666,248.4286275083333,49.0,95.0
1096,248.202666,248.4334352,37.0,96.0
1097,248.779589,249.4935312125,49.0,86.0
1098,248.779589,249.50314659583333,37.0,96.0
1099,248.779589,249.51756967083332,61.0,112.0
1100,249.6449735,249.89136769791665,63.0,117.0
1101,249.93343499999997,250.18223304375,61.0,112.0
1102,249.93343499999997,250.18583881249998,37.0,79.0
1103,249.93343499999997,250.20026188749998,49.0,85.0
1104,250.510358,250.65098298125,61.0,117.0
1105,250.510358,250.65458875,37.0,81.0
1106,250.510358,250.6714156708333,49.0,85.0
1107,251.087281,251.29280981875,61.0,127.0
1108,251.087281,251.30603097083332,49.0,97.0
1109,251.087281,251.30843481666665,37.0,95.0
1110,251.3757425,251.63415592708333,63.0,122.0
1111,251.66420399999998,251.85290589791666,37.0,89.0
1112,251.66420399999998,251.85891551249998,49.0,78.0
1113,251.66420399999998,251.92021358124998,66.0,127.0
1114,251.9526655,252.24353084583333,63.0,122.0
1115,252.24112699999998,252.67862694166666,49.0,73.0
1116,252.24112699999998,252.69064617083333,37.0,77.0
1117,252.24112699999998,252.9117999875,61.0,122.0
1118,252.81805,253.0440115083333,49.0,95.0
1119,252.81805,253.0488192,37.0,96.0
