,start,end,pitch,velocity
0,34.09582424583334,34.44908462083333,60.0,86.0
1,34.53060624583334,34.87118547916667,60.0,86.0
2,34.96538824583334,35.31683702916667,62.0,86.0
3,35.40017024583334,35.79509722916667,65.0,85.0
4,35.834952245833335,37.2932835375,69.0,82.0
5,37.574080245833336,37.901978337500005,67.0,81.0
6,38.00886224583334,38.344006704166674,65.0,86.0
7,38.44364424583334,38.815020537500004,67.0,81.0
8,38.87842624583334,39.28422277916667,62.0,87.0
9,39.31320824583334,40.75161202916667,65.0,86.0
10,41.05233624583334,41.38929229583334,69.0,85.0
11,41.48711824583334,41.79508882916667,69.0,89.0
12,41.92190024583334,42.302334495833335,69.0,88.0
13,42.35668224583334,42.662841237500004,72.0,85.0
14,42.79146424583334,43.19363759583334,74.0,88.0
15,43.22624624583334,43.67733257083334,72.0,89.0
16,43.661028245833336,43.894723570833335,69.0,87.0
17,43.87841924583334,44.063201595833334,67.0,84.0
18,44.095810245833334,44.50522996250001,65.0,86.0
19,44.53059224583334,47.229863829166675,67.0,81.0
20,48.008848245833335,48.420079554166676,69.0,86.0
21,48.44363024583333,48.75160082916668,72.0,87.0
22,48.878412245833346,49.171890095833334,72.0,86.0
23,49.313194245833344,49.61391846250001,72.0,88.0
24,49.74797624583334,51.122974320833336,72.0,86.0
25,51.487104245833336,51.8204371125,69.0,81.0
26,51.921886245833335,52.29869731250001,69.0,85.0
27,52.35666824583333,52.69905907083334,67.0,84.0
28,52.791450245833346,53.20992792083334,69.0,86.0
29,53.226232245833344,54.72804173750001,65.0,86.0
30,54.96536024583334,55.27514242083333,60.0,85.0
31,55.40014224583334,55.74615625416668,62.0,87.0
32,55.834924245833335,56.15919915416667,65.0,87.0
33,56.26970624583333,56.60122752083333,69.0,84.0
34,56.704488245833346,57.86934168750001,67.0,83.0
35,58.00883424583334,58.41100759583334,62.0,87.0
36,58.44361624583334,61.29687312083334,65.0,85.0
37,61.92187224583334,62.27513262083335,60.0,86.0
38,62.35665424583334,62.69723347916667,60.0,86.0
39,62.79143624583334,63.14288502916668,62.0,86.0
40,63.22621824583334,63.62114522916667,65.0,85.0
41,63.661000245833335,65.1193315375,69.0,82.0
42,65.40012824583334,65.72802633750001,67.0,81.0
43,65.83491024583334,66.17005470416667,65.0,86.0
44,66.26969224583334,66.6410685375,67.0,81.0
45,66.70447424583334,67.11027077916667,62.0,87.0
46,67.13925624583334,68.57766002916668,65.0,86.0
47,68.87838424583335,69.21534029583334,69.0,85.0
48,69.31316624583334,69.62113682916667,69.0,89.0
49,69.74794824583334,70.12838249583334,69.0,88.0
50,70.18273024583334,70.4888892375,72.0,85.0
51,70.61751224583334,71.01968559583334,74.0,88.0
52,71.05229424583334,71.50338057083334,72.0,89.0
53,71.48707624583334,71.72077157083335,69.0,87.0
54,71.70446724583334,71.88924959583335,67.0,84.0
55,71.92185824583335,72.33127796250001,65.0,86.0
56,72.35664024583335,75.05591182916667,67.0,81.0
57,75.83489624583335,76.24612755416668,69.0,86.0
58,76.26967824583335,76.57764882916668,72.0,87.0
59,76.70446024583335,76.99793809583333,72.0,86.0
60,77.13924224583334,77.43996646250001,72.0,88.0
61,77.57402424583334,78.94902232083334,72.0,86.0
62,79.31315224583334,79.6464851125,69.0,81.0
63,79.74793424583333,80.12474531250001,69.0,85.0
64,80.18271624583335,80.52510707083334,67.0,84.0
65,80.61749824583335,81.03597592083334,69.0,86.0
66,81.05228024583334,82.55408973750001,65.0,86.0
67,82.79140824583334,83.10119042083335,60.0,85.0
68,83.22619024583334,83.57220425416668,62.0,87.0
69,83.66097224583334,83.98524715416667,65.0,87.0
70,84.09575424583335,84.42727552083335,69.0,84.0
71,84.53053624583335,85.69538968750001,67.0,83.0
72,85.83488224583334,86.23705559583334,62.0,87.0
73,86.26966424583334,89.12292112083334,65.0,85.0
74,89.74792024583334,89.86386211250002,67.0,77.0
75,89.96531124583335,90.0540792375,67.0,85.0
76,90.18270224583334,90.2823397875,67.0,85.0
77,90.40009324583335,90.54139739583334,67.0,85.0
78,90.61748424583334,90.77509272083334,67.0,86.0
79,90.83487524583335,91.51241052916667,65.0,89.0
80,91.48704824583334,92.22436605416668,67.0,86.0
81,92.35661224583335,92.68994511250001,65.0,86.0
82,92.79139424583335,93.09393005416668,62.0,94.0
83,93.22617624583334,93.3421181125,69.0,86.0
84,93.44356724583334,93.55407433750001,69.0,85.0
85,93.66095824583334,93.78052329583335,69.0,85.0
86,93.87834924583335,94.00878384583335,69.0,85.0
87,94.09574024583334,94.53052224583334,69.0,85.0
88,94.53052224583334,94.96530424583334,67.0,86.0
89,94.96530424583334,95.76240457916667,69.0,86.0
90,95.83486824583335,96.19718657916668,69.0,89.0
91,96.26965024583335,96.62291062083334,72.0,89.0
92,96.70443224583335,96.8203741125,74.0,87.0
93,96.92182324583334,97.03595352083335,74.0,89.0
94,97.13921424583334,97.26602566250001,74.0,89.0
95,97.35660524583335,97.48160507083334,74.0,92.0
96,97.57399624583334,97.98522755416667,74.0,94.0
97,98.00877824583334,98.45805297916668,72.0,88.0
98,98.44356024583334,99.26783445416667,74.0,86.0
99,99.31312424583335,99.72979032916668,74.0,101.0
100,99.74790624583335,100.12834049583334,77.0,89.0
101,100.18268824583335,100.75696280416668,72.0,92.0
102,100.83486124583334,102.59391675416667,72.0,92.0
103,102.79138024583334,103.1192783375,72.0,92.0
104,103.22616224583335,103.56130670416668,74.0,99.0
105,103.66094424583335,103.76058178750002,77.0,91.0
106,103.87833524583334,103.99427711250001,77.0,85.0
107,104.09572624583335,104.2116681125,77.0,89.0
108,104.31311724583334,104.46529094583335,77.0,86.0
109,104.53050824583335,104.68811672083335,79.0,89.0
110,104.74789924583334,104.8801454375,77.0,89.0
111,104.96529024583334,105.28050719583335,74.0,94.0
112,105.40007224583334,106.20260735416667,77.0,89.0
113,106.26963624583334,106.59753433750001,72.0,89.0
114,106.70441824583334,106.98340336250001,74.0,94.0
115,107.13920024583335,107.25695370416668,77.0,85.0
116,107.35659124583334,107.46890992916668,77.0,84.0
117,107.57398224583335,107.68992411250001,77.0,84.0
118,107.79137324583334,107.93992376250002,77.0,84.0
119,108.00876424583335,108.15550317083334,79.0,89.0
120,108.22615524583334,108.34209711250001,77.0,87.0
121,108.44354624583335,108.80224139583335,74.0,89.0
122,108.87832824583334,109.66818221250001,72.0,88.0
123,109.74789224583334,110.05223964583334,65.0,87.0
124,110.18267424583334,110.49064482916668,69.0,85.0
125,110.61745624583334,110.73883288750001,67.0,85.0
126,110.83484724583334,110.9453543375,67.0,85.0
127,111.05223824583335,111.17180329583334,67.0,80.0
128,111.26962924583334,111.39100588750001,67.0,81.0
129,111.48702024583335,111.92180224583335,67.0,87.0
130,111.92180224583335,112.3747001625,65.0,87.0
131,112.35658424583335,113.11201797083335,67.0,87.0
132,113.22614824583334,113.58484339583335,65.0,87.0
133,113.66093024583334,113.95984287083334,62.0,92.0
134,114.09571224583334,114.21708888750001,72.0,86.0
135,114.31310324583335,114.41274078750001,72.0,86.0
136,114.53049424583335,114.65005929583334,72.0,85.0
137,114.74788524583334,114.87831984583335,72.0,86.0
138,114.96527624583335,115.09571084583335,74.0,92.0
139,115.18266724583334,115.35658004583334,72.0,85.0
140,115.40005824583335,115.78230408750001,69.0,87.0
141,115.83484024583335,116.61563625416667,67.0,87.0
142,116.70440424583335,117.03230233750001,72.0,92.0
143,117.13918624583334,117.47433070416668,74.0,99.0
144,117.57396824583334,117.67360578750001,77.0,91.0
145,117.79135924583335,117.90730111250001,77.0,85.0
146,118.00875024583334,118.12469211250001,77.0,89.0
147,118.22614124583335,118.37831494583335,77.0,86.0
148,118.44353224583335,118.60114072083334,79.0,89.0
149,118.66092324583335,118.79316943750001,77.0,89.0
150,118.87831424583335,119.19353119583334,74.0,94.0
151,119.31309624583335,120.11563135416668,77.0,89.0
152,120.18266024583335,120.51055833750002,72.0,89.0
153,120.61744224583335,120.89642736250002,74.0,94.0
154,121.05222424583334,121.16997770416668,77.0,85.0
155,121.26961524583335,121.38193392916668,77.0,84.0
156,121.48700624583334,121.60294811250002,77.0,84.0
157,121.70439724583335,121.85294776250001,77.0,84.0
158,121.92178824583334,122.06852717083335,79.0,89.0
159,122.13917924583335,122.25512111250002,77.0,87.0
160,122.35657024583335,122.71526539583334,74.0,89.0
161,122.79135224583335,123.58120621250002,72.0,88.0
162,123.66091624583335,123.96526364583335,65.0,87.0
163,124.09569824583335,124.40366882916668,69.0,85.0
164,124.53048024583335,124.65185688750002,67.0,85.0
165,124.74787124583335,124.85837833750001,67.0,85.0
166,124.96526224583334,125.08482729583335,67.0,80.0
167,125.18265324583335,125.30402988750001,67.0,81.0
168,125.40004424583334,125.83482624583334,67.0,87.0
169,125.83482624583334,126.28772416250001,65.0,87.0
170,126.26960824583335,127.02504197083334,67.0,87.0
171,127.13917224583335,127.49786739583335,65.0,87.0
172,127.57395424583335,127.87286687083335,62.0,92.0
173,128.00873624583335,128.13011288750002,72.0,86.0
174,128.22612724583337,128.32576478750002,72.0,86.0
175,128.44351824583336,128.56308329583337,72.0,85.0
176,128.66090924583335,128.79134384583335,72.0,86.0
177,128.87830024583334,129.00873484583335,74.0,92.0
178,129.09569124583336,129.26960404583335,72.0,85.0
179,129.31308224583336,129.69532808750003,69.0,87.0
180,129.74786424583337,130.52866025416668,67.0,87.0
181,130.61742824583337,130.91271768750002,60.0,85.0
182,131.05221024583335,131.8819192291667,62.0,85.0
183,131.92177424583335,134.74242247083336,65.0,85.0
184,152.32290165416669,152.67111559166668,60.0,86.0
185,152.7514726541667,153.09062853333336,60.0,86.0
186,153.1848313,153.53628008333334,62.0,86.0
187,153.61961330000003,154.01454028333336,65.0,85.0
188,154.0543953,155.51272659166668,69.0,82.0
189,155.7935233,156.12142139166667,67.0,81.0
190,156.22830530000002,156.56344975833335,65.0,86.0
191,156.66308730000003,157.03446359166668,67.0,81.0
192,157.0978693,157.50366583333334,62.0,87.0
193,157.53265130000003,158.97105508333334,65.0,86.0
194,159.27177930000002,159.60873535000002,69.0,85.0
195,159.7065613,160.01453188333335,69.0,89.0
196,160.14134330000002,160.52177755000002,69.0,88.0
197,160.57612530000003,160.88228429166668,72.0,85.0
198,161.0109073,161.41308065,74.0,88.0
199,161.44568930000003,161.896775625,72.0,89.0
200,161.8804713,162.11416662500002,69.0,87.0
201,162.09786230000003,162.28264465,67.0,84.0
202,162.31525330000002,162.72467301666669,65.0,86.0
203,162.7500353,165.44930688333335,67.0,81.0
204,166.22829130000002,166.63952260833335,69.0,86.0
205,166.6630733,166.97104388333335,72.0,87.0
206,167.09785530000002,167.39133315,72.0,86.0
207,167.5326373,167.83336151666668,72.0,88.0
208,167.96741930000002,169.34241737500003,72.0,86.0
209,169.7065473,170.03988016666668,69.0,81.0
210,170.14132930000002,170.51814036666667,69.0,85.0
211,170.5761113,170.91850212500003,67.0,84.0
212,171.01089330000002,171.429370975,69.0,86.0
213,171.4456753,172.94748479166668,65.0,86.0
214,173.18480330000003,173.494585475,60.0,85.0
215,173.6195853,173.96559930833337,62.0,87.0
216,174.05436730000002,174.37864220833336,65.0,87.0
217,174.4891493,174.820670575,69.0,84.0
218,174.92393130000002,176.0887847416667,67.0,83.0
219,176.22827730000003,176.63045065000003,62.0,87.0
220,176.66305930000001,179.51631617500001,65.0,85.0
221,180.14131530000003,180.25725716666668,67.0,77.0
222,180.35870630000002,180.44747429166668,67.0,85.0
223,180.57609730000001,180.6757348416667,67.0,85.0
224,180.7934883,180.93479245000003,67.0,85.0
225,181.01087930000003,181.16848777500002,67.0,86.0
226,181.22827030000002,181.90580558333335,65.0,89.0
227,181.88044330000002,182.61776110833335,67.0,86.0
228,182.75000730000002,183.0833401666667,65.0,86.0
229,183.18478930000003,183.48732510833335,62.0,94.0
230,183.61957130000002,183.7355131666667,69.0,86.0
231,183.8369623,183.9474693916667,69.0,85.0
232,184.05435330000003,184.17391835,69.0,85.0
233,184.27174430000002,184.40217890000002,69.0,85.0
234,184.48913530000002,184.92391730000003,69.0,85.0
235,184.92391730000003,185.3586993,67.0,86.0
236,185.3586993,186.15579963333334,69.0,86.0
237,186.22826330000004,186.59058163333336,69.0,89.0
238,186.66304530000002,187.016305675,72.0,89.0
239,187.0978273,187.21376916666668,74.0,87.0
240,187.31521830000003,187.429348575,74.0,89.0
241,187.53260930000002,187.6594207166667,74.0,89.0
242,187.7500003,187.875000125,74.0,92.0
243,187.96739130000003,188.37862260833336,74.0,94.0
244,188.40217330000002,188.85144803333336,72.0,88.0
245,188.83695530000003,189.66122950833335,74.0,86.0
246,189.70651930000002,190.12318538333335,74.0,101.0
247,190.1413013,190.52173555000002,77.0,89.0
248,190.57608330000002,191.15035785833334,72.0,92.0
249,191.22825630000003,192.98731180833335,72.0,92.0
250,193.1847753,193.51267339166668,72.0,92.0
251,193.61955730000003,193.95470175833336,74.0,99.0
252,194.05433930000004,194.1539768416667,77.0,91.0
253,194.27173030000003,194.38767216666668,77.0,85.0
254,194.48912130000002,194.6050631666667,77.0,89.0
255,194.7065123,194.85868600000003,77.0,86.0
256,194.9239033,195.08151177500002,79.0,89.0
257,195.14129430000003,195.2735404916667,77.0,89.0
258,195.35868530000002,195.67390225000003,74.0,94.0
259,195.79346730000003,196.59600240833336,77.0,89.0
260,196.66303130000003,196.9909293916667,72.0,89.0
261,197.0978133,197.3767984166667,74.0,94.0
262,197.53259530000003,197.65034875833337,77.0,85.0
263,197.74998630000002,197.86230498333336,77.0,84.0
264,197.9673773,198.08331916666668,77.0,84.0
265,198.18476830000003,198.3333188166667,77.0,84.0
266,198.40215930000002,198.54889822500002,79.0,89.0
267,198.61955030000001,198.7354921666667,77.0,87.0
268,198.83694130000003,199.19563645000002,74.0,89.0
269,199.27172330000002,200.0615772666667,72.0,88.0
270,200.14128730000002,200.44563470000003,65.0,87.0
271,200.57606930000003,200.88403988333334,69.0,85.0
272,201.0108513,201.13222794166668,67.0,85.0
273,201.22824230000003,201.33874939166668,67.0,85.0
274,201.44563330000003,201.56519835000003,67.0,80.0
275,201.66302430000002,201.7844009416667,67.0,81.0
276,201.88041530000004,202.31519730000002,67.0,87.0
277,202.31519730000002,202.7680952166667,65.0,87.0
278,202.7499793,203.50541302500002,67.0,87.0
279,203.61954330000003,203.97823845000002,65.0,87.0
280,204.05432530000002,204.35323792500003,62.0,92.0
281,204.48910730000003,204.6104839416667,72.0,86.0
282,204.70649830000002,204.80613584166667,72.0,86.0
283,204.9238893,205.04345435000002,72.0,85.0
284,205.1412803,205.2717149,72.0,86.0
285,205.35867130000003,205.48910590000003,74.0,92.0
286,205.57606230000002,205.74997510000003,72.0,85.0
287,205.7934533,206.17569914166668,69.0,87.0
288,206.22823530000002,207.00903130833336,67.0,87.0
289,207.09779930000002,207.4256973916667,72.0,92.0
290,207.53258130000003,207.86772575833336,74.0,99.0
291,207.96736330000002,208.0670008416667,77.0,91.0
292,208.1847543,208.30069616666668,77.0,85.0
293,208.40214530000003,208.5180871666667,77.0,89.0
294,208.61953630000002,208.77171,77.0,86.0
295,208.8369273,208.99453577500003,79.0,89.0
296,209.05431830000003,209.18656449166667,77.0,89.0
297,209.27170930000003,209.58692625000003,74.0,94.0
298,209.70649130000004,210.50902640833334,77.0,89.0
299,210.5760553,210.90395339166668,72.0,89.0
300,211.01083730000002,211.28982241666668,74.0,94.0
301,211.44561930000003,211.56337275833334,77.0,85.0
302,211.66301030000002,211.77532898333337,77.0,84.0
303,211.88040130000002,211.9963431666667,77.0,84.0
304,212.09779230000004,212.2463428166667,77.0,84.0
305,212.31518330000003,212.46192222500002,79.0,89.0
306,212.53257430000002,212.6485161666667,77.0,87.0
307,212.7499653,213.10866045000003,74.0,89.0
308,213.18474730000003,213.9746012666667,72.0,88.0
309,214.05431130000002,214.35865870000003,65.0,87.0
310,214.48909330000004,214.79706388333335,69.0,85.0
311,214.92387530000002,215.0452519416667,67.0,85.0
312,215.14126630000004,215.2517733916667,67.0,85.0
313,215.35865730000003,215.47822235,67.0,80.0
314,215.57604830000002,215.6974249416667,67.0,81.0
315,215.79343930000002,216.22822130000003,67.0,87.0
316,216.22822130000003,216.6811192166667,65.0,87.0
317,216.6630033,217.41403175833338,67.0,87.0
318,217.52734093333336,217.88345548333336,65.0,87.0
319,217.95899493333337,218.25575705833336,62.0,92.0
320,218.39064893333338,218.5111523416667,72.0,86.0
321,218.60647593333337,218.7053966416667,72.0,86.0
322,218.82230293333336,218.94100778333336,72.0,85.0
323,219.03812993333338,219.16762613333336,72.0,86.0
324,219.25395693333337,219.38345313333338,74.0,92.0
325,219.46978393333336,219.64244553333336,72.0,85.0
326,219.68561093333338,220.0651067416667,69.0,87.0
327,220.11726493333336,220.89244357500004,67.0,87.0
328,220.98057293333338,221.2737379416667,60.0,85.0
329,221.41222693333336,222.23596665000002,62.0,85.0
330,222.27553493333338,224.00215093333338,65.0,85.0
331,224.43380493333336,224.7593439916667,72.0,92.0
332,224.86545893333337,225.19819222500004,74.0,99.0
333,225.29711293333338,225.3960336416667,77.0,91.0
334,225.51293993333337,225.6280476666667,77.0,85.0
335,225.72876693333336,225.84405713333337,77.0,89.0
336,225.9455062666667,226.0976799666667,77.0,86.0
337,226.1628972666667,226.32050574166672,79.0,89.0
338,226.3802882666667,226.51253445833336,77.0,89.0
339,226.59767926666672,226.9128962166667,74.0,94.0
340,227.0324612666667,227.83499637500003,77.0,89.0
341,227.9020252666667,228.22992335833337,72.0,89.0
342,228.3368072666667,228.61579238333337,74.0,94.0
343,228.77158926666672,228.88934272500003,77.0,85.0
344,228.98898026666672,229.10129895000006,77.0,84.0
345,229.2063712666667,229.32231313333338,77.0,84.0
346,229.4237622666667,229.5723127833334,77.0,84.0
347,229.64115326666672,229.7878921916667,79.0,89.0
348,229.8585442666667,229.9744861333334,77.0,87.0
349,230.0759352666667,230.43463041666672,74.0,89.0
350,230.51071726666672,231.3005712333334,72.0,88.0
351,231.3802812666667,231.6846286666667,65.0,87.0
352,231.8150632666667,232.12303385000004,69.0,85.0
353,232.2498452666667,232.37122190833338,67.0,85.0
354,232.4672362666667,232.57774335833338,67.0,85.0
355,232.68462726666672,232.8041923166667,67.0,80.0
356,232.90201826666672,233.0233949083334,67.0,81.0
357,233.1194092666667,233.55419126666672,67.0,87.0
358,233.55419126666672,234.0070891833334,65.0,87.0
359,233.9889732666667,234.74440699166672,67.0,87.0
360,234.8585372666667,235.21723241666672,65.0,87.0
361,235.2933192666667,235.5922318916667,62.0,92.0
362,235.7281012666667,235.84947790833337,72.0,86.0
363,235.94549226666672,236.04512980833337,72.0,86.0
364,236.1628832666667,236.28244831666672,72.0,85.0
365,236.3802742666667,236.5107088666667,72.0,86.0
366,236.59766526666672,236.7280998666667,74.0,92.0
367,236.81505626666672,236.9889690666667,72.0,85.0
368,237.0324472666667,237.41469310833338,69.0,87.0
369,237.46722926666672,238.24802527500003,67.0,87.0
370,238.33679326666672,238.66469135833339,72.0,92.0
371,238.7715752666667,239.10671972500003,74.0,99.0
372,239.2063572666667,239.30599480833337,77.0,91.0
373,239.4237482666667,239.53969013333338,77.0,85.0
374,239.6411392666667,239.75708113333337,77.0,89.0
375,239.85853026666672,240.0107039666667,77.0,86.0
376,240.0759212666667,240.2335297416667,79.0,89.0
377,240.2933122666667,240.42555845833337,77.0,89.0
378,240.51070326666672,240.8259202166667,74.0,94.0
379,240.9454852666667,241.74802037500004,77.0,89.0
380,241.8150492666667,242.14294735833337,72.0,89.0
381,242.24983126666672,242.52881638333338,74.0,94.0
382,242.6846132666667,242.80236672500004,77.0,85.0
383,242.90200426666672,243.01432295000004,77.0,84.0
384,243.11939526666671,243.2353371333334,77.0,84.0
385,243.3367862666667,243.48533678333337,77.0,84.0
386,243.55417726666673,243.70091619166672,79.0,89.0
387,243.77156826666672,243.88751013333336,77.0,87.0
388,243.9889592666667,244.34765441666673,74.0,89.0
389,244.42374126666672,245.21359523333336,72.0,88.0
390,245.29330526666672,245.5976526666667,65.0,87.0
391,245.7280872666667,246.03605785000005,69.0,85.0
392,246.16286926666672,246.2842459083334,67.0,85.0
393,246.3802602666667,246.4907673583334,67.0,85.0
394,246.5976512666667,246.7172163166667,67.0,80.0
395,246.81504226666672,246.9364189083334,67.0,81.0
396,247.03243326666671,247.4672152666667,67.0,87.0
397,247.4672152666667,247.92011318333337,65.0,87.0
398,247.9019972666667,248.6574309916667,67.0,87.0
399,248.7715612666667,249.13025641666673,65.0,87.0
400,249.20634326666672,249.5052558916667,62.0,92.0
401,249.6411252666667,249.76250190833338,72.0,86.0
402,249.8585162666667,249.95815380833338,72.0,86.0
403,250.07590726666672,250.19547231666672,72.0,85.0
404,250.2932982666667,250.4237328666667,72.0,86.0
405,250.5106892666667,250.6411238666667,74.0,92.0
406,250.72808026666672,250.9019930666667,72.0,85.0
407,250.94547126666671,251.3277171083334,69.0,87.0
408,251.38025326666673,252.16104927500004,67.0,87.0
409,252.24981726666672,252.54510670833338,60.0,85.0
410,252.6845992666667,253.51430825000006,62.0,85.0
411,253.5541632666667,255.2932912666667,65.0,85.0
412,255.7280732666667,256.0559713583334,72.0,92.0
413,256.1628552666667,256.49799972500006,74.0,99.0
414,256.5976372666667,256.69727480833336,77.0,91.0
415,256.81502826666673,256.9309701333334,77.0,85.0
416,257.0324192666667,257.14836113333337,77.0,89.0
417,257.2498102666667,257.4019839666667,77.0,86.0
418,257.46720126666673,257.6248097416667,79.0,89.0
419,257.6845922666667,257.8168384583334,77.0,89.0
420,257.9019832666667,258.2172002166667,74.0,94.0
421,258.3367652666667,259.13930037500006,77.0,89.0
422,259.2063292666667,259.5342273583334,72.0,89.0
423,259.6411112666667,259.9200963833334,74.0,94.0
424,260.0758932666667,260.19364672500006,77.0,85.0
425,260.2932842666667,260.40560295000006,77.0,84.0
426,260.51067526666674,260.6266171333334,77.0,84.0
427,260.7280662666667,260.87661678333336,77.0,84.0
428,260.9454572666667,261.09219619166674,79.0,89.0
429,261.16284826666674,261.27879013333336,77.0,87.0
430,261.3802392666667,261.7389344166667,74.0,89.0
431,261.8150212666667,262.60487523333336,72.0,88.0
432,262.6845852666667,262.9889326666667,65.0,87.0
433,263.1193672666667,263.4273378500001,69.0,85.0
434,263.55414926666674,263.6755259083334,67.0,85.0
435,263.7715402666667,263.88204735833335,67.0,85.0
436,263.9889312666667,264.10849631666673,67.0,80.0
437,264.2063222666667,264.3276989083334,67.0,81.0
438,264.4237132666667,264.8584952666667,67.0,87.0
439,264.8584952666667,265.3113931833334,65.0,87.0
440,265.29327726666673,266.0487109916667,67.0,87.0
441,266.1628412666667,266.5215364166667,65.0,87.0
442,266.5976232666667,266.8965358916667,62.0,92.0
443,267.03240526666673,267.15378190833337,72.0,86.0
444,267.2497962666667,267.3494338083334,72.0,86.0
445,267.4671872666667,267.5867523166667,72.0,85.0
446,267.68457826666673,267.81501286666673,72.0,86.0
447,267.9019692666667,268.0324038666667,74.0,92.0
448,268.1193602666667,268.2932730666667,72.0,85.0
449,268.33675126666674,268.7189971083334,69.0,87.0
450,268.7715332666667,271.3802252666667,67.0,87.0
451,272.2497892666667,273.17913579166674,60.0,80.0
452,273.11935326666674,274.03058387500005,62.0,85.0
453,273.9889172666667,276.6537686083334,65.0,78.0
