,start,end,pitch,velocity
0,2.8839256875000006,3.7749962250000006,57.0,73.0
1,3.7357105500000003,4.298209987500001,60.0,82.0
2,4.132138725000001,4.4232098625,57.0,76.0
3,2.8839256875000006,4.453566975,53.0,72.0
4,4.598209687500001,4.991066437500001,57.0,76.0
5,4.5910668375000006,5.187494812500001,65.0,85.0
6,4.5589240125,5.374994625000001,53.0,54.0
7,3.3124966875000004,5.503565925000001,48.0,66.0
8,5.435708850000001,5.519637337500001,57.0,74.0
9,5.441065987500001,5.555351587500001,60.0,77.0
10,2.8839256875000006,5.57856585,41.0,80.0
11,6.279682454166667,7.159177479166667,62.0,79.0
12,6.290473804166667,7.202342879166667,57.0,71.0
13,6.7293220375,7.4955078875000005,45.0,65.0
14,6.301265154166667,7.553061754166667,38.0,86.0
15,7.1609760375,7.669968045833334,65.0,85.0
16,7.567450220833334,7.750903170833334,57.0,75.0
17,8.017089804166666,8.6879520625,60.0,77.0
18,8.020686920833334,8.954138695833333,57.0,73.0
19,8.455938037500001,8.970325720833333,52.0,73.0
20,8.901980504166668,9.002699770833335,60.0,74.0
21,8.896584829166667,9.0278795875,64.0,81.0
22,8.0242840375,9.035073820833333,45.0,85.0
23,9.7670870625,10.687948929166666,55.0,76.0
24,9.772482737499999,10.704135954166667,62.0,78.0
25,10.637589295833333,11.0728404125,58.0,77.0
26,11.0620490625,11.5692425125,55.0,85.0
27,11.502695854166667,11.810249329166666,62.0,81.0
28,10.186151154166666,12.725715520833333,50.0,63.0
29,12.366003854166667,12.731111195833332,58.0,75.0
30,9.781475529166666,12.830031904166667,43.0,81.0
31,12.774276595833333,13.0704913625,55.0,85.0
32,12.371399529166666,13.0759261375,62.0,81.0
33,13.213607104166666,13.412882187500001,55.0,79.0
34,13.2117955125,13.827736679166668,60.0,80.0
35,13.628461595833334,14.090417470833334,55.0,79.0
36,14.084982695833334,14.479909679166667,62.0,85.0
37,14.490779229166668,14.746213654166667,55.0,85.0
38,13.224476654166667,14.751648429166668,48.0,85.0
39,14.9563582875,15.191865204166668,55.0,77.0
40,14.950923512500001,15.474473504166667,60.0,79.0
41,14.954546695833333,15.574111045833334,64.0,85.0
42,15.3911402875,15.709980420833334,55.0,79.0
43,15.8150527375,15.952733704166668,60.0,81.0
44,14.969039429166667,16.003458270833335,48.0,81.0
45,16.7117906125,17.3041810875,60.0,81.0
46,16.715413795833335,17.498021395833334,53.0,80.0
47,17.56142710416667,17.7878760625,57.0,80.0
48,17.7770065125,18.42012155416667,53.0,86.0
49,18.190049412500002,18.498019995833335,57.0,73.0
50,17.987151145833334,18.508889545833334,60.0,80.0
51,18.853091962500002,19.358526037500003,53.0,85.0
52,17.1411378375,19.4454824375,48.0,70.0
53,16.719036979166667,19.5106997375,41.0,86.0
54,19.289685554166667,19.71359800416667,60.0,79.0
55,19.688235720833333,19.7878732625,53.0,74.0
56,18.456353387500002,19.840409420833335,65.0,83.0
57,20.1085249875,20.324104395833334,57.0,72.0
58,20.177365470833337,20.664683629166667,62.0,78.0
59,20.628451795833335,20.891132587500003,57.0,75.0
60,20.838596429166667,21.115769954166666,62.0,79.0
61,21.077726529166668,21.324102995833336,65.0,85.0
62,20.412872387500002,21.476276695833334,45.0,73.0
63,21.262508879166667,21.505262162500003,62.0,83.0
64,20.188235020833336,21.5270012625,38.0,88.0
65,21.46903032916667,21.684609737500004,57.0,84.0
66,21.902000737500003,22.510695537500002,57.0,77.0
67,21.900189145833338,22.516130312500003,60.0,80.0
68,22.345840695833335,22.994390512500004,52.0,71.0
69,21.909247104166667,23.010694837500004,45.0,85.0
70,22.77881110416667,23.010694837500004,57.0,72.0
71,22.76794155416667,23.036057120833334,60.0,72.0
72,22.775187920833336,23.072288954166666,64.0,81.0
73,23.537868012500002,23.802360395833336,55.0,71.0
74,23.595838945833336,24.07228755416667,58.0,72.0
75,23.65924465416667,24.144751220833335,62.0,74.0
76,24.307794470833336,24.601272320833335,58.0,86.0
77,24.0976498375,24.633880970833335,55.0,81.0
78,24.53424342916667,24.815040137500002,67.0,82.0
79,24.731706920833336,25.014315220833335,62.0,85.0
80,24.927358820833334,25.215401895833338,58.0,87.0
81,23.889316795833338,25.25163372916667,50.0,75.0
82,23.664679429166668,25.287865562500002,43.0,85.0
83,25.432792895833337,25.976270395833335,62.0,71.0
84,25.383879920833337,26.01250222916667,58.0,73.0
85,25.1411266375,26.0378645125,55.0,77.0
86,26.27337142916667,26.74076207916667,58.0,75.0
87,25.851270570833336,26.825906887500004,50.0,72.0
88,25.394749470833336,26.90924010416667,43.0,80.0
89,26.699095470833335,26.992573320833337,55.0,71.0
90,26.27880620416667,27.00706605416667,62.0,81.0
91,27.144747020833336,27.358514837500003,55.0,80.0
92,27.14293542916667,28.030615345833336,60.0,80.0
93,27.55597832916667,28.094021054166667,55.0,78.0
94,27.141123837500004,28.193658595833334,48.0,86.0
95,28.00162987916667,28.302354095833337,64.0,87.0
96,28.22445565416667,28.510687137500003,60.0,78.0
97,28.427353920833337,28.729889729166672,55.0,79.0
98,28.862135920833335,29.057787820833337,36.0,84.0
99,28.86575910416667,29.171918095833338,55.0,79.0
100,28.869382287500002,29.498004595833336,60.0,84.0
101,29.302352695833335,29.82227950416667,55.0,72.0
102,29.764308570833336,30.21901807916667,64.0,85.0
103,29.758873795833335,30.249815137500004,60.0,80.0
104,30.624814612500003,31.291480345833335,57.0,76.0
105,30.628437795833335,31.526987262500004,53.0,76.0
106,31.49075542916667,31.949088120833338,57.0,75.0
107,31.47445110416667,31.983508362500004,60.0,82.0
108,31.945464937500002,32.179160262500005,53.0,60.0
109,32.392928079166666,32.822275304166666,53.0,73.0
110,32.38749330416667,32.822275304166666,60.0,78.0
111,31.04510387916667,33.722636362500005,48.0,69.0
112,30.621191429166668,33.84401300416667,41.0,83.0
113,34.09582424583334,35.05959101250001,57.0,76.0
114,34.09582424583334,35.9345897875,53.0,72.0
115,35.363938412500005,36.34400950416667,57.0,76.0
116,34.96538824583334,36.452705004166674,60.0,81.0
117,35.84038702083333,36.69364669583334,65.0,83.0
118,36.280603795833336,36.75705240416667,53.0,75.0
119,36.71719738750001,36.80053060416667,57.0,74.0
120,36.70995102083334,36.88386382083334,60.0,72.0
121,34.52335987916667,36.95089271250001,48.0,67.0
122,34.09582424583334,37.030602745833335,41.0,84.0
123,37.590384570833336,38.24799234583334,58.0,71.0
124,37.595819345833334,38.27878940416667,62.0,76.0
125,37.58857297916667,38.37842694583334,55.0,73.0
126,38.03422452916667,38.749803237500004,50.0,67.0
127,38.44002106250001,38.805962579166675,58.0,74.0
128,38.44726742916667,38.81139735416667,62.0,79.0
129,37.60125412083334,38.82770167916667,43.0,85.0
130,39.32226620416667,40.287844562500005,53.0,72.0
131,39.31320824583334,40.29146774583334,57.0,74.0
132,39.8476277875,40.31864162083333,60.0,72.0
133,39.75885979583334,40.58856877916667,48.0,61.0
134,39.3204546125,40.594003554166676,41.0,83.0
135,40.219004079166666,40.92914801250001,65.0,85.0
136,41.04690147083333,41.74617585416667,60.0,79.0
137,41.04508987916667,41.97624799583333,57.0,73.0
138,41.9182770625,42.244363562500006,60.0,78.0
139,41.91646547083334,42.38929089583334,64.0,84.0
140,41.483495062500005,42.44907342083334,52.0,78.0
141,41.032408737500006,42.50885594583334,45.0,79.0
142,42.80052220416667,43.673709387500004,57.0,75.0
143,42.7987106125,43.699071670833334,50.0,85.0
144,43.24073897916667,43.699071670833334,53.0,68.0
145,42.79689902083334,43.731680320833334,62.0,81.0
146,43.67189779583334,44.03240453750001,65.0,81.0
147,44.52878065416667,45.47624309583334,55.0,75.0
148,44.5269690625,45.50522856250001,62.0,78.0
149,45.425518529166666,45.829503470833345,58.0,83.0
150,44.9563162875,45.9237062375,50.0,68.0
151,44.53421542916667,45.97080762083334,43.0,79.0
152,45.83493824583334,46.12116972916667,55.0,85.0
153,46.2497927375,46.972617812500005,55.0,79.0
154,46.247981145833336,47.014284420833334,60.0,84.0
155,46.68095155416667,47.508848945833336,52.0,78.0
156,46.26066228750001,47.537834412500004,48.0,83.0
157,47.135661062500006,47.5487039625,64.0,86.0
158,47.97080482083334,48.617543045833344,57.0,70.0
159,48.03421052916667,48.85848473750001,60.0,75.0
160,48.425514329166674,49.04507867916668,52.0,74.0
161,48.85667314583334,49.81319354583334,57.0,79.0
162,49.70812122916668,49.95087451250001,64.0,83.0
163,49.699063270833335,49.98167157083334,60.0,74.0
164,50.58312000416667,50.78420667916667,57.0,77.0
165,50.586743187500005,50.91101809583334,60.0,78.0
166,49.269716045833334,50.97804698750001,52.0,68.0
167,48.0432684875,50.99978608750001,45.0,85.0
168,51.35123487083334,51.58311860416667,57.0,70.0
169,51.42551012916667,51.968987629166676,62.0,81.0
170,51.516089712500005,52.007031054166674,65.0,80.0
171,51.90195873750001,52.40014644583334,57.0,75.0
172,51.4943506125,52.8150009375,50.0,85.0
173,52.34579869583334,52.862102320833344,65.0,84.0
174,52.79869661250001,53.25521771250001,57.0,76.0
175,53.22804383750001,53.92731822083334,62.0,76.0
176,53.99797029583334,54.191810604166676,58.0,71.0
177,54.0813035125,54.21898447916668,62.0,73.0
178,53.655579470833345,54.32405679583334,53.0,64.0
179,53.23347861250001,54.33492634583334,46.0,80.0
180,54.13927444583334,54.33492634583334,65.0,79.0
181,54.98347616250001,55.21717148750001,36.0,80.0
182,54.9019545375,55.91825746250001,60.0,70.0
183,54.9399979625,55.923692237500006,64.0,82.0
184,55.4345624875,56.550502954166674,48.0,81.0
185,55.82043151250001,56.63745935416668,55.0,77.0
186,56.71535779583334,57.26789325416668,67.0,76.0
187,56.67369118750001,57.296878720833334,64.0,79.0
188,56.25883669583334,57.32224100416667,60.0,87.0
189,57.12115432916667,57.59941452916668,55.0,62.0
190,56.699053470833334,57.693617295833334,48.0,85.0
191,57.56137110416667,57.7552114125,60.0,79.0
192,58.30412368750001,58.49434081250001,60.0,65.0
193,58.400138045833344,58.54144219583334,65.0,77.0
194,58.44723942916667,58.82767367916668,69.0,77.0
195,59.24071657916667,59.79868681250001,57.0,74.0
196,59.68636812916668,59.95629528750001,60.0,84.0
197,60.08491829583335,60.23165722083334,57.0,45.0
198,60.17549787916667,60.76788835416667,65.0,69.0
199,60.132019679166675,60.78781586250001,60.0,79.0
200,58.86934028750001,61.24614855416668,48.0,71.0
201,58.43093510416668,61.798684012500004,41.0,80.0
202,61.023322779166676,61.81861152083334,57.0,75.0
203,61.47440910416667,61.82948107083334,48.0,79.0
204,61.02513437083334,61.82948107083334,60.0,81.0
205,61.92187224583334,62.88563901250001,57.0,76.0
206,61.92187224583334,63.7606377875,53.0,72.0
207,63.189986412500005,64.17005750416668,57.0,76.0
208,62.79143624583334,64.27875300416667,60.0,81.0
209,63.66643502083335,64.51969469583334,65.0,83.0
210,64.10665179583334,64.58310040416667,53.0,75.0
211,64.54324538750001,64.62657860416668,57.0,74.0
212,64.53599902083334,64.70991182083334,60.0,72.0
213,62.34940787916668,64.77694071250001,48.0,67.0
214,61.92187224583334,64.85665074583333,41.0,84.0
215,65.41643257083334,66.07404034583334,58.0,71.0
216,65.42186734583335,66.10483740416667,62.0,76.0
217,65.41462097916667,66.20447494583334,55.0,73.0
218,65.86027252916668,66.5758512375,50.0,67.0
219,66.26606906250001,66.63201057916667,58.0,74.0
220,66.27331542916667,66.63744535416667,62.0,79.0
221,65.42730212083335,66.65374967916668,43.0,85.0
222,67.14831420416668,68.11389256250001,53.0,72.0
223,67.13925624583334,68.11751574583334,57.0,74.0
224,67.6736757875,68.14468962083335,60.0,72.0
225,67.58490779583335,68.41461677916668,48.0,61.0
226,67.14650261250002,68.42005155416668,41.0,83.0
227,68.04505207916668,68.75519601250001,65.0,85.0
228,68.87294947083335,69.57222385416668,60.0,79.0
229,68.87113787916668,69.80229599583335,57.0,73.0
230,69.74432506250001,70.07041156250001,60.0,78.0
231,69.74251347083334,70.21533889583334,64.0,84.0
232,69.30954306250001,70.27512142083334,52.0,78.0
233,68.8584567375,70.33490394583335,45.0,79.0
234,70.62657020416668,71.49975738750001,57.0,75.0
235,70.6247586125,71.52511967083335,50.0,85.0
236,71.06678697916668,71.52511967083335,53.0,68.0
237,70.62294702083334,71.55772832083335,62.0,81.0
238,71.49794579583335,71.85845253750001,65.0,81.0
239,72.35482865416668,73.30229109583334,55.0,75.0
240,72.35301706250002,73.33127656250001,62.0,78.0
241,73.25156652916668,73.65555147083334,58.0,83.0
242,72.78236428750002,73.74975423750001,50.0,68.0
243,72.36026342916668,73.79685562083334,43.0,79.0
244,73.66098624583334,73.94721772916668,55.0,85.0
245,74.07584073750002,74.7986658125,55.0,79.0
246,74.07402914583335,74.84033242083335,60.0,84.0
247,74.50699955416668,75.33489694583335,52.0,78.0
248,74.08671028750001,75.3638824125,48.0,83.0
249,74.9617090625,75.37475196250001,64.0,86.0
250,75.79685282083334,76.44359104583334,57.0,70.0
251,75.86025852916667,76.6845327375,60.0,75.0
252,76.25156232916667,76.87112667916668,52.0,74.0
253,76.68272114583334,77.63924154583334,57.0,79.0
254,77.53416922916668,77.77692251250001,64.0,83.0
255,77.52511127083334,77.80771957083334,60.0,74.0
256,78.40916800416667,78.61025467916667,57.0,77.0
257,78.4127911875,78.73706609583334,60.0,78.0
258,77.09576404583333,78.80409498750001,52.0,68.0
259,75.86931648750002,78.82583408750001,45.0,85.0
260,79.17728287083334,79.40916660416667,57.0,70.0
261,79.25155812916667,79.79503562916668,62.0,81.0
262,79.3421377125,79.83307905416667,65.0,80.0
263,79.72800673750001,80.22619444583334,57.0,75.0
264,79.3203986125,80.6410489375,50.0,85.0
265,80.17184669583334,80.68815032083334,65.0,84.0
266,80.62474461250001,81.08126571250001,57.0,76.0
267,81.05409183750001,81.75336622083334,62.0,76.0
268,81.82401829583334,82.01785860416668,58.0,71.0
269,81.90735151250001,82.04503247916668,62.0,73.0
270,81.48162747083335,82.15010479583334,53.0,64.0
271,81.05952661250001,82.16097434583334,46.0,80.0
272,81.96532244583334,82.16097434583334,65.0,79.0
273,82.80952416250001,83.04321948750001,36.0,80.0
274,82.7280025375,83.74430546250001,60.0,70.0
275,82.7660459625,83.7497402375,64.0,82.0
276,83.2606104875,84.37655095416667,48.0,81.0
277,83.64647951250001,84.46350735416668,55.0,77.0
278,84.54140579583334,85.09394125416668,67.0,76.0
279,84.49973918750001,85.12292672083335,64.0,79.0
280,84.08488469583334,85.14828900416667,60.0,87.0
281,84.94720232916667,85.42546252916668,55.0,62.0
282,84.52510147083333,85.51966529583333,48.0,85.0
283,85.38741910416667,85.5812594125,60.0,79.0
284,86.09575144583334,86.83125766250001,53.0,71.0
285,86.24792514583334,86.88017063750002,60.0,71.0
286,86.15915715416668,86.88379382083335,57.0,74.0
287,87.1029964125,87.42183654583334,65.0,85.0
288,87.30770627083334,87.62292322083334,60.0,85.0
289,87.51785090416668,87.8040823875,57.0,79.0
290,86.65915645416668,87.82400989583334,48.0,78.0
291,86.21531649583333,87.85118377083334,41.0,86.0
292,87.74067667916667,87.86205332083334,53.0,77.0
293,87.94176335416668,88.42002355416668,53.0,80.0
294,87.94538653750001,88.47255971250001,57.0,85.0
295,87.94719812916668,88.50879154583335,60.0,86.0
296,88.60661749583335,88.88016783750001,53.0,81.0
297,88.82219690416667,89.07219655416668,55.0,89.0
298,89.0269067625,89.26784845416668,57.0,84.0
299,88.38741490416668,89.44176125416668,48.0,77.0
300,87.95625608750001,89.51422492083334,41.0,86.0
301,89.26241367916667,89.6573406625,60.0,83.0
302,90.16820951250001,90.60299151250001,55.0,85.0
303,90.37654255416668,90.64465812083334,62.0,85.0
304,90.59574514583335,90.93632437916668,67.0,86.0
305,90.78958545416667,91.11023717916667,62.0,83.0
306,91.01422282083334,91.30588907916668,55.0,79.0
307,89.96893442916668,91.33125136250001,50.0,78.0
308,89.74792024583334,91.40190343750001,43.0,86.0
309,91.47255551250001,91.91458387916667,55.0,72.0
310,91.47617869583334,91.94356934583334,58.0,71.0
311,91.47436710416667,92.21530809583334,62.0,76.0
312,92.1410328375,92.24791674583334,55.0,75.0
313,91.92001865416668,92.44175705416667,50.0,67.0
314,92.36748179583334,92.64465532083334,55.0,86.0
315,91.49248302083335,92.70081466250001,43.0,82.0
316,92.36204702083334,92.72617694583334,58.0,86.0
317,92.59030757083335,92.81675652916668,50.0,85.0
318,92.36929338750001,93.05407503750001,62.0,87.0
319,92.80045220416667,93.08487209583335,55.0,85.0
320,93.00153887916667,93.1355966625,58.0,82.0
321,93.25153852916668,93.51965409583335,57.0,85.0
322,93.26784285416667,93.6355959625,60.0,82.0
323,93.66639302083334,93.95624768750001,57.0,84.0
324,93.87834924583335,93.98342156250001,60.0,75.0
325,94.09936342916667,94.28958055416668,57.0,83.0
326,94.10117502083334,94.30950806250002,64.0,86.0
327,94.54320338750001,94.73160892083334,60.0,80.0
328,93.48342226250001,94.77508712083335,52.0,83.0
329,93.24610375416668,94.82218850416668,45.0,85.0
330,94.74791324583335,94.88378262083334,57.0,78.0
331,94.97073902083335,95.23160822083334,57.0,78.0
332,94.96530424583334,95.27870960416668,60.0,79.0
333,95.41276738750001,95.66820181250002,57.0,84.0
334,95.60660769583335,95.7225495625,60.0,75.0
335,95.17907206250001,96.01602741250001,52.0,85.0
336,94.96349265416667,96.13378087083335,45.0,86.0
337,95.83849142916668,96.15008519583334,60.0,94.0
338,95.83849142916668,96.18812862083334,57.0,86.0
339,95.84211461250001,96.20443294583335,64.0,90.0
340,96.28595457083334,96.45805577916667,45.0,86.0
341,96.64102653750001,96.99066372916667,58.0,74.0
342,96.74428726250001,97.20986632083334,62.0,76.0
343,97.16819971250001,97.47254711250001,58.0,80.0
344,97.37653275416667,97.59754693750001,62.0,83.0
345,97.57761942916667,97.83305385416668,65.0,85.0
346,97.77508292083334,98.02689416250001,62.0,84.0
347,97.98885073750002,98.10660419583334,58.0,82.0
348,96.71349020416667,98.14827080416667,46.0,85.0
349,96.94356234583334,98.20986492083334,53.0,81.0
350,98.4453718375,99.08848687916668,58.0,72.0
351,98.45261820416668,99.1084143875,62.0,76.0
352,99.31312424583335,99.45986317083334,58.0,84.0
353,99.31855902083335,99.47616749583334,62.0,85.0
354,98.45442979583335,99.48703704583335,46.0,74.0
355,99.32942857083334,99.5431963875,65.0,79.0
356,98.88196542916668,99.54500797916668,53.0,72.0
357,99.72073237083335,99.82218150416668,46.0,85.0
358,100.00877544583335,100.21892007916668,55.0,71.0
359,100.16457232916667,100.25334032083335,36.0,86.0
360,100.08667388750001,100.47073132083334,60.0,80.0
361,100.15913755416668,100.75877439583334,64.0,86.0
362,101.01964359583334,101.28051279583335,60.0,82.0
363,101.2279766375,101.47978787916668,62.0,84.0
364,101.45261400416668,101.63377317083335,64.0,88.0
365,100.81493373750001,101.75877299583334,55.0,79.0
366,101.66819341250002,101.76420777083334,60.0,72.0
367,100.59029637083334,101.77507732083335,48.0,84.0
368,101.89283077916667,102.41638077083334,60.0,84.0
369,101.89826555416667,102.42000395416667,67.0,82.0
370,101.8910191875,102.42725032083334,64.0,86.0
371,102.56311969583335,102.67362678750001,60.0,79.0
372,102.33123596250002,102.86927868750001,55.0,83.0
373,102.78956865416667,103.02507557083334,64.0,94.0
374,102.7877570625,103.03775671250001,60.0,87.0
375,101.90913510416668,103.07580013750001,48.0,89.0
376,103.00514806250001,103.14826380416667,55.0,87.0
377,103.23703179583335,103.34210411250001,48.0,87.0
378,103.56492988750001,103.70442244583334,60.0,76.0
379,103.60659649583334,103.74065427916668,65.0,77.0
380,103.68087175416667,103.84029182083334,69.0,82.0
381,104.54318938750001,104.71710218750002,53.0,86.0
382,104.53231983750001,104.73884128750001,60.0,88.0
383,104.53775461250001,104.74608765416667,57.0,86.0
384,104.09210306250002,104.76420357083335,48.0,81.0
385,103.66094424583335,105.2442753625,41.0,81.0
386,104.97434820416667,105.29862311250001,48.0,77.0
387,105.40550702083334,105.90912950416667,57.0,77.0
388,105.18268124583335,105.95623088750001,53.0,77.0
389,105.40913020416667,106.00333227083334,60.0,79.0
390,106.27688261250002,106.39282447916668,57.0,86.0
391,106.28231738750002,106.41818676250001,53.0,83.0
392,105.86021652916668,106.43811427083334,48.0,74.0
393,106.27507102083335,106.45985337083334,60.0,86.0
394,105.42543452916668,106.47072292083334,41.0,85.0
395,106.72615734583334,106.91637447083335,41.0,87.0
396,107.01238882916668,107.18630162916668,57.0,73.0
397,107.14463502083335,107.22796823750001,38.0,85.0
398,107.07941772083335,107.30043190416667,62.0,82.0
399,107.15912775416668,107.66818501250002,65.0,83.0
400,107.79137324583334,108.13738725416668,57.0,74.0
401,107.56673587916667,108.51238672916668,50.0,84.0
402,108.01238742916668,108.52325627916667,62.0,86.0
403,108.44716942916668,108.59028517083334,57.0,79.0
404,108.00514106250002,108.88376302083334,65.0,85.0
405,108.66818361250002,108.96709623750002,62.0,79.0
406,109.29318273750002,109.59209536250002,57.0,80.0
407,109.49245782083335,109.62651560416668,60.0,81.0
408,109.07579173750001,109.8529645625,52.0,79.0
409,108.88738620416667,110.0160078125,45.0,87.0
410,109.74064587916668,110.07760192916668,60.0,88.0
411,109.74426906250001,110.12108012916669,64.0,91.0
412,109.74245747083334,110.12470331250002,57.0,85.0
413,110.17905106250001,110.37832614583334,45.0,86.0
414,110.49789119583335,111.04680347083334,55.0,76.0
415,110.53955780416668,111.13738305416668,58.0,69.0
416,110.61020987916667,111.1464410125,62.0,78.0
417,111.04136869583334,111.61745484583335,50.0,72.0
418,111.49064342916668,111.88738200416668,55.0,84.0
419,111.48702024583335,111.9399181625,58.0,85.0
420,111.48883183750002,111.99426591250001,62.0,86.0
421,110.60839828750001,112.11020777916669,43.0,84.0
422,111.9399181625,112.19172940416668,50.0,74.0
423,112.41274358750002,112.86382991250001,67.0,85.0
424,112.14643961250002,112.96346745416668,55.0,86.0
425,112.80585897916667,113.30948146250002,50.0,79.0
426,112.36564220416668,113.51237972916668,43.0,87.0
427,113.25332212083335,113.54861156250001,58.0,85.0
428,113.25694530416668,113.57578543750002,55.0,85.0
429,113.45078561250001,113.61201727083335,50.0,85.0
430,113.25513371250001,113.65730706250001,62.0,86.0
431,113.67361138750002,113.7986112125,43.0,85.0
432,114.11382816250001,114.19716137916667,36.0,85.0
433,114.09208906250001,114.42179874583334,55.0,81.0
434,114.09208906250001,114.51600151250001,60.0,85.0
435,114.96889942916668,115.26237727916669,60.0,86.0
436,115.19353679583335,115.42542052916669,62.0,87.0
437,115.41455097916668,115.52505807083335,64.0,99.0
438,114.76237797916669,115.66636222083335,55.0,81.0
439,114.53230583750002,115.68085495416668,48.0,85.0
440,115.62831879583335,115.74063747916668,60.0,86.0
441,115.83302865416668,116.06491238750002,64.0,94.0
442,115.82940547083335,116.06672397916668,60.0,87.0
443,115.83121706250002,116.11382536250001,67.0,86.0
444,116.26781065416668,116.37469456250001,60.0,87.0
445,116.04498487916668,116.58302760416667,55.0,87.0
446,116.48701324583335,116.76962154583335,60.0,87.0
447,116.49788279583335,116.97976617916667,67.0,82.0
448,115.83846342916668,117.00150527916668,48.0,91.0
449,116.70802742916668,117.02867915416668,55.0,87.0
450,116.90005614583335,117.13737465416668,60.0,86.0
451,117.12107032916668,117.20440354583334,52.0,94.0
452,117.32940337083335,117.48520025416668,60.0,85.0
453,117.56853347083334,117.81309834583335,65.0,86.0
454,117.57396824583334,117.84751858750002,60.0,86.0
455,118.0105618375,118.52324227916668,48.0,79.0
456,118.44172065416667,118.60838708750002,53.0,86.0
457,118.44353224583335,118.63918414583334,60.0,87.0
458,118.84751718750002,119.05222704583335,57.0,85.0
459,118.62831459583334,119.16635732083334,48.0,85.0
460,117.57577983750001,119.18628482916668,41.0,87.0
461,119.05403863750001,119.22070507083335,53.0,85.0
462,119.29316873750001,119.83845782916669,60.0,85.0
463,119.28954555416668,119.88918239583334,53.0,81.0
464,119.72070437083335,120.24606595416668,48.0,78.0
465,120.16454432916667,120.29497892916667,57.0,82.0
466,120.16092114583334,120.32034121250001,60.0,87.0
467,120.16273273750001,120.41454397916668,65.0,85.0
468,119.31853102083335,120.71164501250001,41.0,85.0
469,120.61744224583335,120.73700729583335,48.0,81.0
470,121.05222424583334,121.13193427916669,38.0,81.0
471,121.01599241250001,121.43447008750002,57.0,73.0
472,121.0268619625,121.50693375416668,62.0,81.0
473,121.04316628750001,121.57758582916668,65.0,86.0
474,121.90367232916668,122.13917924583335,60.0,82.0
475,121.69352769583335,122.16635312083335,57.0,75.0
476,121.90367232916668,122.19715017916668,62.0,78.0
477,121.49062942916667,122.27504862083335,50.0,86.0
478,122.12468651250002,122.40186003750001,65.0,87.0
479,122.35838183750002,122.85656954583335,69.0,87.0
480,123.22432265416668,123.57033666250001,57.0,77.0
481,123.42359773750002,123.72251036250002,60.0,80.0
482,123.01961279583335,123.76780015416668,52.0,75.0
483,123.85113337083335,124.05040845416669,57.0,77.0
484,123.65185828750002,124.05040845416669,64.0,86.0
485,122.80222179583335,124.16272713750001,45.0,85.0
486,124.08120551250002,124.16816191250001,52.0,78.0
487,124.43446588750001,124.62287142083335,55.0,73.0
488,124.47794408750002,124.96345065416668,58.0,68.0
489,124.52323387916668,124.98337816250002,62.0,71.0
490,124.94714632916669,125.46707313750001,50.0,65.0
491,125.38011673750002,125.57758022916668,55.0,74.0
492,125.37105877916667,125.58120341250002,58.0,79.0
493,125.38736310416668,125.59388455416668,62.0,81.0
494,126.10656499583335,126.29859371250001,55.0,61.0
495,126.17902866250002,126.38917329583334,58.0,68.0
496,125.81308714583335,126.45076741250001,50.0,67.0
497,126.26779665416669,126.66997000416669,62.0,79.0
498,126.70076706250002,127.20438954583335,50.0,63.0
499,127.15366497916668,127.38917189583334,58.0,84.0
500,124.52142228750002,127.40366462916668,43.0,85.0
501,127.15728816250001,127.42902691250002,55.0,83.0
502,127.15547657083334,127.46163556250002,62.0,86.0
503,127.35656324583334,127.49605580416669,50.0,79.0
504,127.59569334583335,127.73337431250002,43.0,86.0
505,127.88554801250001,128.07214195416668,55.0,72.0
506,128.0214173875,128.1156201541667,36.0,84.0
507,127.93083780416669,128.31308364583336,60.0,74.0
508,128.02685216250003,128.46344575416668,64.0,85.0
509,128.8873582041667,129.14822740416668,60.0,84.0
510,129.07938692083334,129.3819227291667,64.0,87.0
511,128.66272083750002,129.5177921041667,55.0,83.0
512,128.4525762041667,129.5377196125,48.0,83.0
513,129.32032861250002,129.5377196125,67.0,79.0
514,129.77141493750003,130.21525489583337,64.0,79.0
515,129.76598016250003,130.2188780791667,67.0,74.0
516,129.77503812083336,130.23155922083336,60.0,73.0
517,130.16634192083336,130.67177599583334,55.0,61.0
518,129.7623569791667,130.76416717083336,48.0,86.0
519,130.63554416250003,130.89460177083336,60.0,78.0
520,130.6319209791667,130.89460177083336,64.0,86.0
521,130.63373257083336,130.8982249541667,67.0,80.0
522,131.4797458791667,131.7080064291667,65.0,79.0
523,131.4906154291667,131.74423826250003,60.0,71.0
524,132.35293306250003,132.84025122083335,55.0,82.0
525,131.91271628750002,132.94351194583336,48.0,62.0
526,131.49242702083336,133.03771471250002,41.0,85.0
527,132.77322232916669,133.07575813750003,57.0,71.0
528,133.2080043291667,134.34568389583336,41.0,85.0
529,133.20438114583337,134.77140793750002,53.0,72.0
530,133.2134391041667,134.7768427125,57.0,72.0
531,133.20619273750003,134.79677022083337,60.0,77.0
532,134.96524824583335,135.86923248750003,57.0,73.0
533,135.82937747083335,136.40002884583336,60.0,82.0
534,136.23155082083335,136.52684026250003,57.0,76.0
535,134.96524824583335,136.55763732083335,53.0,72.0
536,136.70437624583334,137.1029264125,57.0,76.0
537,136.69712987916668,137.30220149583334,65.0,85.0
538,136.6645212291667,137.49241862083335,53.0,54.0
539,135.40003024583336,137.62285322083335,48.0,66.0
540,137.55401273750002,137.63915754583337,57.0,74.0
541,137.55944751250001,137.6753893791667,60.0,77.0
542,134.96524824583335,137.69894007083334,41.0,80.0
543,138.40546082083335,139.29132914583334,62.0,79.0
544,138.41633037083335,139.33480734583335,57.0,71.0
545,138.85835873750003,139.63009678750004,45.0,65.0
546,138.42719992083335,139.68806772083335,38.0,86.0
547,139.2931407375,139.80582117916668,65.0,85.0
548,139.7025604541667,139.88734280416668,57.0,75.0
549,140.15545837083334,140.83118206250003,60.0,77.0
550,140.1590815541667,141.09929762916667,57.0,73.0
551,140.59748673750002,141.1156019541667,52.0,73.0
552,141.04676147083336,141.14821060416668,60.0,74.0
553,141.04132669583336,141.17357288750003,64.0,81.0
554,140.16270473750004,141.1808192541667,45.0,85.0
555,141.91813706250002,142.84567199583336,55.0,76.0
556,141.92357183750002,142.86197632083335,62.0,78.0
557,142.79494742916668,143.23335261250003,58.0,77.0
558,143.2224830625,143.7333519125,55.0,85.0
559,143.66632302083335,143.97610519583336,62.0,81.0
560,142.34023792083335,144.8982053541667,50.0,63.0
561,144.53588702083334,144.9036401291667,58.0,75.0
562,141.93262979583335,145.00327767083334,43.0,81.0
563,144.94711832916667,145.24421936250002,55.0,85.0
564,144.54132179583334,145.24965413750002,62.0,81.0
565,145.38733510416668,145.5866101875,55.0,79.0
566,145.38552351250001,146.00146467916667,60.0,80.0
567,145.80218959583334,146.26414547083334,55.0,79.0
568,146.25871069583334,146.65363767916668,62.0,85.0
569,146.66450722916667,146.91994165416668,55.0,85.0
570,145.39820465416668,146.92537642916668,48.0,85.0
571,147.1300862875,147.3655932041667,55.0,77.0
572,147.1246515125,147.64820150416668,60.0,79.0
573,147.12827469583334,147.74783904583336,64.0,85.0
574,147.56486828750002,147.88370842083336,55.0,79.0
575,147.9887807375,148.12646170416667,60.0,81.0
576,147.1427674291667,148.17718627083335,48.0,81.0
577,148.88551861250002,149.55119381250003,57.0,76.0
578,148.88914179583335,149.78500639583336,53.0,76.0
579,149.74903522916668,150.20407048750002,57.0,75.0
580,149.7328482041667,150.23824309583335,60.0,82.0
581,150.20047337083335,150.43248739583336,53.0,60.0
582,150.64433190416668,151.06754576666668,53.0,73.0
583,150.63897476666668,151.06754576666668,60.0,78.0
584,149.30580787916668,151.95504487916668,48.0,69.0
585,148.8818954291667,152.0746876166667,41.0,83.0
586,152.32290165416669,153.27903406666667,57.0,76.0
587,152.32290165416669,154.1540328416667,53.0,72.0
588,153.58338146666668,154.56345255833335,57.0,76.0
589,153.1848313,154.67214805833333,60.0,81.0
590,154.059830075,154.91308975,65.0,83.0
591,154.50004685000002,154.97649545833335,53.0,75.0
592,154.93664044166667,155.01997365833336,57.0,74.0
593,154.929394075,155.10330687500002,60.0,72.0
594,152.74432980416668,155.17033576666668,48.0,67.0
595,152.32290165416669,155.2500458,41.0,84.0
596,155.80982762500003,156.46743540000003,58.0,71.0
597,155.81526240000002,156.49823245833335,62.0,76.0
598,155.80801603333336,156.59787000000003,55.0,73.0
599,156.25366758333334,156.96924629166668,50.0,67.0
600,156.65946411666667,157.02540563333335,58.0,74.0
601,156.66671048333336,157.03084040833335,62.0,79.0
602,155.82069717500002,157.04714473333334,43.0,85.0
603,157.54170925833336,158.50728761666667,53.0,72.0
604,157.53265130000003,158.5109108,57.0,74.0
605,158.0670708416667,158.53808467500002,60.0,72.0
606,157.97830285,158.80801183333335,48.0,61.0
607,157.5398976666667,158.81344660833335,41.0,83.0
608,158.43844713333334,159.14859106666668,65.0,85.0
609,159.26634452500002,159.96561890833334,60.0,79.0
610,159.26453293333336,160.19569105000002,57.0,73.0
611,160.13772011666669,160.4638066166667,60.0,78.0
612,160.13590852500002,160.60873395000002,64.0,84.0
613,159.70293811666667,160.66851647500002,52.0,78.0
614,159.2518517916667,160.72829900000002,45.0,79.0
615,161.01996525833334,161.89315244166667,57.0,75.0
616,161.01815366666668,161.91851472500002,50.0,85.0
617,161.46018203333335,161.91851472500002,53.0,68.0
618,161.016342075,161.951123375,62.0,81.0
619,161.89134085,162.2518475916667,65.0,81.0
620,162.74822370833334,163.69568615000003,55.0,75.0
621,162.74641211666668,163.72467161666668,62.0,78.0
622,163.64496158333336,164.04894652500002,58.0,83.0
623,163.1757593416667,164.14314929166667,50.0,68.0
624,162.75365848333334,164.19025067500002,43.0,79.0
625,164.05438130000002,164.34061278333334,55.0,85.0
626,164.46923579166668,165.19206086666668,55.0,79.0
627,164.4674242,165.23372747500002,60.0,84.0
628,164.90039460833336,165.728292,52.0,78.0
629,164.48010534166667,165.7572774666667,48.0,83.0
630,165.3551041166667,165.7681470166667,64.0,86.0
631,166.190247875,166.83698610000002,57.0,70.0
632,166.25365358333335,167.0779277916667,60.0,75.0
633,166.64495738333335,167.26452173333334,52.0,74.0
634,167.07611620000003,168.03263660000002,57.0,79.0
635,167.92756428333334,168.17031756666668,64.0,83.0
636,167.918506325,168.201114625,60.0,74.0
637,168.80256305833336,169.00364973333336,57.0,77.0
638,168.8061862416667,169.13046115000003,60.0,78.0
639,167.48915910000002,169.1974900416667,52.0,68.0
640,166.26271154166668,169.2192291416667,45.0,85.0
641,169.570677925,169.80256165833336,57.0,70.0
642,169.64495318333334,170.18843068333337,62.0,81.0
643,169.7355327666667,170.22647410833335,65.0,80.0
644,170.1214017916667,170.61958950000002,57.0,75.0
645,169.71379366666667,171.03444399166668,50.0,85.0
646,170.56524175,171.08154537500002,65.0,84.0
647,171.01813966666668,171.4746607666667,57.0,76.0
648,171.4474868916667,172.14676127500002,62.0,76.0
649,172.21741335000002,172.41125365833335,58.0,71.0
650,172.30074656666667,172.43842753333334,62.0,73.0
651,171.87502252500002,172.54349985000002,53.0,64.0
652,171.45292166666667,172.5543694,46.0,80.0
653,172.3587175,172.5543694,65.0,79.0
654,173.2029192166667,173.4366145416667,36.0,80.0
655,173.1213975916667,174.13770051666668,60.0,70.0
656,173.15944101666668,174.14313529166668,64.0,82.0
657,173.6540055416667,174.76994600833336,48.0,81.0
658,174.0398745666667,174.85690240833335,55.0,77.0
659,174.93480085000002,175.48733630833334,67.0,76.0
660,174.8931342416667,175.51632177500002,64.0,79.0
661,174.47827975,175.54168405833335,60.0,87.0
662,175.34059738333335,175.81885758333334,55.0,62.0
663,174.91849652500002,175.91306035000002,48.0,85.0
664,175.78081415833336,175.9746544666667,60.0,79.0
665,176.4891465,177.2246527166667,53.0,71.0
666,176.64132020000002,177.27356569166668,60.0,71.0
667,176.55255220833334,177.277188875,57.0,74.0
668,177.4963914666667,177.8152316,65.0,85.0
669,177.70110132500002,178.016318275,60.0,85.0
670,177.91124595833335,178.19747744166668,57.0,79.0
671,177.05255150833335,178.21740495000003,48.0,78.0
672,176.60871155,178.24457882500002,41.0,86.0
673,178.13407173333334,178.25544837500001,53.0,77.0
674,178.33515840833334,178.81341860833336,53.0,80.0
675,178.33878159166667,178.86595476666668,57.0,85.0
676,178.34059318333334,178.90218660000002,60.0,86.0
677,179.00001255,179.2735628916667,53.0,81.0
678,179.21559195833336,179.46559160833334,55.0,89.0
679,179.4203018166667,179.66124350833334,57.0,84.0
680,178.78080995833335,179.83515630833335,48.0,77.0
681,178.3496511416667,179.90761997500002,41.0,86.0
682,179.65580873333334,180.05073571666668,60.0,83.0
683,180.5616045666667,180.99638656666667,55.0,85.0
684,180.76993760833335,181.03805317500002,62.0,85.0
685,180.9891402,181.32971943333337,67.0,86.0
686,181.18298050833334,181.50363223333335,62.0,83.0
687,181.40761787500003,181.69928413333335,55.0,79.0
688,180.36232948333335,181.7246464166667,50.0,78.0
689,180.14131530000003,181.7952984916667,43.0,86.0
690,181.8659505666667,182.30797893333335,55.0,72.0
691,181.86957375000003,182.33696440000003,58.0,71.0
692,181.86776215833336,182.60870315000003,62.0,76.0
693,182.5344278916667,182.6413118,55.0,75.0
694,182.31341370833334,182.83515210833335,50.0,67.0
695,182.76087685000002,183.038050375,55.0,86.0
696,181.88587807500002,183.09420971666668,43.0,82.0
697,182.75544207500002,183.119572,58.0,86.0
698,182.98370262500003,183.21015158333336,50.0,85.0
699,182.76268844166668,183.44747009166667,62.0,87.0
700,183.19384725833336,183.47826715000002,55.0,85.0
701,183.39493393333336,183.5289917166667,58.0,82.0
702,183.64493358333334,183.91304915,57.0,85.0
703,183.66123790833336,184.02899101666668,60.0,82.0
704,184.05978807500003,184.34964274166668,57.0,84.0
705,184.27174430000002,184.3768166166667,60.0,75.0
706,184.49275848333335,184.68297560833335,57.0,83.0
707,184.494570075,184.70290311666668,64.0,86.0
708,184.9365984416667,185.12500397500003,60.0,80.0
709,183.8768173166667,185.168482175,52.0,83.0
710,183.63949880833334,185.21558355833335,45.0,85.0
711,185.14130830000002,185.27717767500002,57.0,78.0
712,185.364134075,185.625003275,57.0,78.0
713,185.3586993,185.67210465833335,60.0,79.0
714,185.8061624416667,186.0615968666667,57.0,84.0
715,186.00000275000002,186.1159446166667,60.0,75.0
716,185.5724671166667,186.40942246666668,52.0,85.0
717,185.35688770833335,186.52717592500002,45.0,86.0
718,186.23188648333337,186.54348025000002,60.0,94.0
719,186.23188648333337,186.58152367500003,57.0,86.0
720,186.2355096666667,186.59782800000002,64.0,90.0
721,186.67934962500001,186.85145083333336,45.0,86.0
722,187.03442159166667,187.38405878333336,58.0,74.0
723,187.13768231666668,187.60326137500002,62.0,76.0
724,187.5615947666667,187.86594216666668,58.0,80.0
725,187.76992780833336,187.9909419916667,62.0,83.0
726,187.97101448333336,188.22644890833334,65.0,85.0
727,188.16847797500003,188.42028921666667,62.0,84.0
728,188.3822457916667,188.49999925000003,58.0,82.0
729,187.10688525833336,188.54166585833335,46.0,85.0
730,187.33695740000002,188.60325997500001,53.0,81.0
731,188.8387668916667,189.48188193333334,58.0,72.0
732,188.84601325833336,189.5018094416667,62.0,76.0
733,189.70651930000002,189.85325822500002,58.0,84.0
734,189.71195407500002,189.86956255,62.0,85.0
735,188.84782485000002,189.8804321,46.0,74.0
736,189.72282362500002,189.93659144166668,65.0,79.0
737,189.27536048333334,189.93840303333334,53.0,72.0
738,190.11412742500002,190.21557655833334,46.0,85.0
739,190.4021705,190.61231513333337,55.0,71.0
740,190.55796738333336,190.64673537500002,36.0,86.0
741,190.48006894166667,190.864126375,60.0,80.0
742,190.55253260833337,191.15216945000003,64.0,86.0
743,191.41303865000003,191.67390785000003,60.0,82.0
744,191.6213716916667,191.87318293333334,62.0,84.0
745,191.84600905833335,192.02716822500003,64.0,88.0
746,191.2083287916667,192.15216805000003,55.0,79.0
747,192.06158846666668,192.15760282500003,60.0,72.0
748,190.98369142500002,192.16847237500002,48.0,84.0
749,192.28622583333336,192.80977582500003,60.0,84.0
750,192.29166060833336,192.81339900833336,67.0,82.0
751,192.2844142416667,192.82064537500003,64.0,86.0
752,192.95651475000003,193.0670218416667,60.0,79.0
753,192.72463101666668,193.26267374166667,55.0,83.0
754,193.18296370833335,193.41847062500003,64.0,94.0
755,193.18115211666668,193.4311517666667,60.0,87.0
756,192.30253015833335,193.4691951916667,48.0,89.0
757,193.3985431166667,193.54165885833336,55.0,87.0
758,193.63042685000002,193.73549916666667,48.0,87.0
759,193.9583249416667,194.09781750000002,60.0,76.0
760,193.99999155,194.13404933333334,65.0,77.0
761,194.07426680833336,194.23368687500002,69.0,82.0
762,194.9365844416667,195.11049724166668,53.0,86.0
763,194.9257148916667,195.1322363416667,60.0,88.0
764,194.9311496666667,195.13948270833336,57.0,86.0
765,194.4854981166667,195.15759862500002,48.0,81.0
766,194.05433930000004,195.63767041666668,41.0,81.0
767,195.36774325833335,195.69201816666668,48.0,77.0
768,195.79890207500003,196.30252455833335,57.0,77.0
769,195.5760763,196.3496259416667,53.0,77.0
770,195.80252525833336,196.39672732500003,60.0,79.0
771,196.6702776666667,196.78621953333334,57.0,86.0
772,196.6757124416667,196.8115818166667,53.0,83.0
773,196.25361158333334,196.831509325,48.0,74.0
774,196.66846607500003,196.853248425,60.0,86.0
775,195.81882958333335,196.86411797500003,41.0,85.0
776,197.11955240000003,197.30976952500004,41.0,87.0
777,197.40578388333336,197.57969668333334,57.0,73.0
778,197.53803007500002,197.62136329166668,38.0,85.0
779,197.47281277500002,197.69382695833335,62.0,82.0
780,197.55252280833335,198.0615800666667,65.0,83.0
781,198.18476830000003,198.53078230833336,57.0,74.0
782,197.96013093333335,198.90578178333334,50.0,84.0
783,198.40578248333335,198.91665133333336,62.0,86.0
784,198.84056448333337,198.98368022500003,57.0,79.0
785,198.3985361166667,199.27715807500002,65.0,85.0
786,199.0615786666667,199.36049129166668,62.0,79.0
787,199.68657779166668,199.9854904166667,57.0,80.0
788,199.885852875,200.01991065833334,60.0,81.0
789,199.4691867916667,200.2463596166667,52.0,79.0
790,199.28078125833335,200.40940286666668,45.0,87.0
791,200.13404093333335,200.47099698333335,60.0,88.0
792,200.13766411666668,200.51447518333336,64.0,91.0
793,200.13585252500002,200.5180983666667,57.0,85.0
794,200.5724461166667,200.77172120000003,45.0,86.0
795,200.89128625,201.44019852500003,55.0,76.0
796,200.93295285833335,201.53077810833335,58.0,69.0
797,201.00360493333335,201.53983606666668,62.0,78.0
798,201.43476375000003,202.01084990000004,50.0,72.0
799,201.88403848333337,202.28077705833334,55.0,84.0
800,201.88041530000004,202.33331321666668,58.0,85.0
801,201.88222689166668,202.3876609666667,62.0,86.0
802,201.00179334166668,202.50360283333336,43.0,84.0
803,202.33331321666668,202.58512445833335,50.0,74.0
804,202.80613864166668,203.25722496666668,67.0,85.0
805,202.5398346666667,203.35686250833336,55.0,86.0
806,203.19925403333335,203.7028765166667,50.0,79.0
807,202.75903725833336,203.90577478333336,43.0,87.0
808,203.64671717500002,203.94200661666667,58.0,85.0
809,203.65034035833335,203.9691804916667,55.0,85.0
810,203.8441806666667,204.005412325,50.0,85.0
811,203.6485287666667,204.05070211666668,62.0,86.0
812,204.0670064416667,204.19200626666668,43.0,85.0
813,204.5072232166667,204.59055643333335,36.0,85.0
814,204.4854841166667,204.81519380000003,55.0,81.0
815,204.4854841166667,204.9093965666667,60.0,85.0
816,205.36229448333336,205.65577233333335,60.0,86.0
817,205.58693185,205.81881558333336,62.0,87.0
818,205.80794603333337,205.918453125,64.0,99.0
819,205.15577303333336,206.05975727500004,55.0,81.0
820,204.92570089166668,206.07425000833337,48.0,85.0
821,206.02171385000003,206.13403253333337,60.0,86.0
822,206.22642370833336,206.4583074416667,64.0,94.0
823,206.22280052500003,206.46011903333334,60.0,87.0
824,206.2246121166667,206.50722041666668,67.0,86.0
825,206.66120570833334,206.76808961666669,60.0,87.0
826,206.43837993333335,206.97642265833335,55.0,87.0
827,206.88040830000003,207.16301660000002,60.0,87.0
828,206.89127785000002,207.37316123333335,67.0,82.0
829,206.23185848333335,207.39490033333334,48.0,91.0
830,207.10142248333335,207.42207420833336,55.0,87.0
831,207.29345120000002,207.53076970833337,60.0,86.0
832,207.51446538333335,207.59779860000003,52.0,94.0
833,207.722798425,207.87859530833336,60.0,85.0
834,207.96192852500002,208.20649340000003,65.0,86.0
835,207.96736330000002,208.24091364166668,60.0,86.0
836,208.4039568916667,208.91663733333337,48.0,79.0
837,208.83511570833335,209.0017821416667,53.0,86.0
838,208.8369273,209.03257920000001,60.0,87.0
839,209.2409122416667,209.44562210000004,57.0,85.0
840,209.02170965000002,209.55975237500002,48.0,85.0
841,207.96917489166668,209.57967988333337,41.0,87.0
842,209.44743369166667,209.61410012500002,53.0,85.0
843,209.68656379166669,210.23185288333337,60.0,85.0
844,209.68294060833335,210.28257745000002,53.0,81.0
845,210.114099425,210.63946100833334,48.0,78.0
846,210.55793938333335,210.68837398333335,57.0,82.0
847,210.55431620000002,210.7137362666667,60.0,87.0
848,210.55612779166668,210.80793903333335,65.0,85.0
849,209.711926075,211.10504006666667,41.0,85.0
850,211.01083730000002,211.13040235000003,48.0,81.0
851,211.44561930000003,211.52532933333336,38.0,81.0
852,211.4093874666667,211.82786514166668,57.0,73.0
853,211.42025701666668,211.90032880833337,62.0,81.0
854,211.43656134166667,211.97098088333337,65.0,86.0
855,212.29706738333334,212.53257430000002,60.0,82.0
856,212.08692275,212.55974817500004,57.0,75.0
857,212.29706738333334,212.59054523333336,62.0,78.0
858,211.88402448333335,212.66844367500002,50.0,86.0
859,212.5180815666667,212.7952550916667,65.0,87.0
860,212.75177689166668,213.24996460000003,69.0,87.0
861,213.61771770833337,213.9637317166667,57.0,77.0
862,213.81699279166668,214.1159054166667,60.0,80.0
863,213.41300785,214.16119520833337,52.0,75.0
864,214.24452842500003,214.44380350833336,57.0,77.0
865,214.0452533416667,214.44380350833336,64.0,86.0
866,213.19561685000002,214.5561221916667,45.0,85.0
867,214.47460056666668,214.5615569666667,52.0,78.0
868,214.8278609416667,215.016266475,55.0,73.0
869,214.87133914166668,215.35684570833337,58.0,68.0
870,214.91662893333336,215.3767732166667,62.0,71.0
871,215.34054138333335,215.86046819166668,50.0,65.0
872,215.7735117916667,215.97097528333336,55.0,74.0
873,215.76445383333336,215.9745984666667,58.0,79.0
874,215.78075815833336,215.98727960833335,62.0,81.0
875,216.49996005000003,216.6919887666667,55.0,61.0
876,216.5724237166667,216.78256835000002,58.0,68.0
877,216.20648220000004,216.8438887666667,50.0,67.0
878,216.66119170833335,217.06151432500005,62.0,79.0
879,217.09208981666671,217.59208903333337,50.0,63.0
880,217.54172940000004,217.77554198333337,58.0,84.0
881,214.9148173416667,217.78993045000004,43.0,85.0
882,217.5453265166667,217.8151102666667,55.0,83.0
883,217.54352795833339,217.8474843166667,62.0,86.0
884,217.74316793333338,217.88165692500004,50.0,79.0
885,217.98057763333338,218.1172680666667,43.0,86.0
886,218.2683469666667,218.45359847500004,55.0,72.0
887,218.4032388416667,218.49676387500003,36.0,84.0
888,218.31331092500002,218.69280673333338,60.0,74.0
889,218.4086345166667,218.84208707500005,64.0,85.0
890,219.26294972500003,219.52194212500004,60.0,84.0
891,219.45359690833337,219.75395615000005,64.0,87.0
892,219.0399284916667,219.88884802500004,55.0,83.0
893,218.83129572500005,219.9086321666667,48.0,83.0
894,219.69280516666672,219.9086321666667,67.0,79.0
895,220.1406461916667,220.58129298333338,64.0,79.0
896,220.1352505166667,220.58489010000002,67.0,74.0
897,220.14424330833336,220.59748000833338,60.0,73.0
898,220.53273190833337,221.03452968333337,55.0,61.0
899,220.13165340000003,221.12625615833338,48.0,86.0
900,220.9985585166667,221.25575235833338,60.0,78.0
901,220.99496140000005,221.25575235833338,64.0,86.0
902,220.99675995833337,221.25934947500005,67.0,80.0
903,221.83668670000003,222.06330505000003,65.0,79.0
904,221.84747805000003,222.0992762166667,60.0,71.0
905,222.70359181666672,223.18740400833337,55.0,82.0
906,222.26654214166672,223.28992183333338,48.0,62.0
907,221.84927660833338,223.3834468666667,41.0,85.0
908,223.12085735000005,223.4212165916667,57.0,71.0
909,223.55251135000003,224.68200598333337,41.0,85.0
910,223.54891423333336,225.1046671916667,53.0,72.0
911,223.55790702500005,225.1100628666667,57.0,72.0
912,223.5507127916667,225.12984700833337,60.0,77.0
913,225.2017893416667,225.34027833333337,60.0,76.0
914,225.24315618333338,225.37624950000003,65.0,77.0
915,225.31689707500004,225.47517020833337,69.0,82.0
916,226.17557840833337,226.34949120833338,53.0,86.0
917,226.16470885833337,226.37123030833337,60.0,88.0
918,226.17014363333337,226.37847667500003,57.0,86.0
919,225.7251698166667,226.39659259166672,48.0,81.0
920,225.29711293333338,226.87666438333338,41.0,81.0
921,226.60673722500005,226.93101213333338,48.0,77.0
922,227.0378960416667,227.54151852500004,57.0,77.0
923,226.8150702666667,227.58861990833338,53.0,77.0
924,227.04151922500003,227.6357212916667,60.0,79.0
925,227.9092716333334,228.02521350000004,57.0,86.0
926,227.9147064083334,228.0505757833334,53.0,83.0
927,227.49260555000004,228.0705032916667,48.0,74.0
928,227.9074600416667,228.0922423916667,60.0,86.0
929,227.05782355000005,228.1031119416667,41.0,85.0
930,228.3585463666667,228.5487634916667,41.0,87.0
931,228.64477785000005,228.81869065000004,57.0,73.0
932,228.77702404166672,228.86035725833338,38.0,85.0
933,228.71180674166672,228.93282092500004,62.0,82.0
934,228.79151677500005,229.3005740333334,65.0,83.0
935,229.4237622666667,229.76977627500005,57.0,74.0
936,229.19912490000004,230.14477575000004,50.0,84.0
937,229.64477645000005,230.15564530000003,62.0,86.0
938,230.07955845000004,230.2226741916667,57.0,79.0
939,229.6375300833334,230.51615204166671,65.0,85.0
940,230.3005726333334,230.59948525833337,62.0,79.0
941,230.92557175833338,231.2244843833334,57.0,80.0
942,231.1248468416667,231.25890462500004,60.0,81.0
943,230.70818075833338,231.48535358333336,52.0,79.0
944,230.51977522500005,231.64839683333338,45.0,87.0
945,231.37303490000005,231.70999095000005,60.0,88.0
946,231.37665808333338,231.75346915000006,64.0,91.0
947,231.37484649166672,231.7570923333334,57.0,85.0
948,231.81144008333337,232.0107151666667,45.0,86.0
949,232.1302802166667,232.6791924916667,55.0,76.0
950,232.17194682500005,232.76977207500005,58.0,69.0
951,232.24259890000005,232.77883003333338,62.0,78.0
952,232.6737577166667,233.2498438666667,50.0,72.0
953,233.12303245000004,233.51977102500004,55.0,84.0
954,233.1194092666667,233.57230718333338,58.0,85.0
955,233.12122085833337,233.62665493333338,62.0,86.0
956,232.24078730833338,233.74259680000006,43.0,84.0
957,233.57230718333338,233.82411842500005,50.0,74.0
958,234.04513260833338,234.49621893333338,67.0,85.0
959,233.77882863333338,234.59585647500003,55.0,86.0
960,234.43824800000004,234.9418704833334,50.0,79.0
961,233.99803122500003,235.14476875000005,43.0,87.0
962,234.88571114166672,235.18100058333337,58.0,85.0
963,234.88933432500005,235.2081744583334,55.0,85.0
964,235.08317463333339,235.2444062916667,50.0,85.0
965,234.88752273333338,235.28969608333338,62.0,86.0
966,235.30600040833338,235.43100023333338,43.0,85.0
967,235.74621718333339,235.82955040000004,36.0,85.0
968,235.72447808333337,236.0541877666667,55.0,81.0
969,235.72447808333337,236.14839053333338,60.0,85.0
970,236.60128845000006,236.89476630000004,60.0,86.0
971,236.8259258166667,237.05780955000006,62.0,87.0
972,237.04694000000003,237.1574470916667,64.0,99.0
973,236.39476700000006,237.2987512416667,55.0,81.0
974,236.16469485833338,237.31324397500003,48.0,85.0
975,237.26070781666672,237.37302650000004,60.0,86.0
976,237.46541767500005,237.69730140833337,64.0,94.0
977,237.46179449166672,237.69911300000004,60.0,87.0
978,237.4636060833334,237.74621438333338,67.0,86.0
979,237.90019967500004,238.00708358333338,60.0,87.0
980,237.67737390000005,238.21541662500005,55.0,87.0
981,238.11940226666673,238.40201056666672,60.0,87.0
982,238.13027181666672,238.61215520000005,67.0,82.0
983,237.47085245000005,238.63389430000004,48.0,91.0
984,238.34041645000005,238.66106817500005,55.0,87.0
985,238.53244516666672,238.76976367500004,60.0,86.0
986,238.75345935000004,238.8367925666667,52.0,94.0
987,238.9617923916667,239.11758927500006,60.0,85.0
988,239.20092249166672,239.44548736666673,65.0,86.0
989,239.2063572666667,239.47990760833338,60.0,86.0
990,239.6429508583334,240.15563130000004,48.0,79.0
991,240.07410967500005,240.24077610833336,53.0,86.0
992,240.0759212666667,240.2715731666667,60.0,87.0
993,240.47990620833338,240.6846160666667,57.0,85.0
994,240.26070361666672,240.7987463416667,48.0,85.0
995,239.20816885833338,240.81867385000004,41.0,87.0
996,240.68642765833337,240.85309409166672,53.0,85.0
997,240.92555775833338,241.47084685000004,60.0,85.0
998,240.92193457500005,241.52157141666672,53.0,81.0
999,241.3530933916667,241.87845497500004,48.0,78.0
1000,241.79693335000005,241.92736795000005,57.0,82.0
1001,241.7933101666667,241.95273023333337,60.0,87.0
1002,241.79512175833338,242.04693300000005,65.0,85.0
1003,240.9509200416667,242.34403403333337,41.0,85.0
1004,242.24983126666672,242.36939631666672,48.0,81.0
1005,242.6846132666667,242.76432330000006,38.0,81.0
1006,242.64838143333338,243.06685910833338,57.0,73.0
1007,242.65925098333338,243.13932277500004,62.0,81.0
1008,242.67555530833337,243.20997485000004,65.0,86.0
1009,243.53606135000004,243.77156826666672,60.0,82.0
1010,243.3259167166667,243.7987421416667,57.0,75.0
1011,243.53606135000004,243.82953920000006,62.0,78.0
1012,243.12301845000005,243.90743764166672,50.0,86.0
1013,243.75707553333336,244.0342490583334,65.0,87.0
1014,243.99077085833338,244.48895856666672,69.0,87.0
1015,244.85671167500004,245.20272568333337,57.0,77.0
1016,245.05598675833338,245.3548993833334,60.0,80.0
1017,244.6520018166667,245.40018917500004,52.0,75.0
1018,245.48352239166672,245.68279747500006,57.0,77.0
1019,245.2842473083334,245.68279747500006,64.0,86.0
1020,244.43461081666672,245.79511615833337,45.0,85.0
1021,245.71359453333338,245.80055093333337,52.0,78.0
1022,246.06685490833337,246.2552604416667,55.0,73.0
1023,246.11033310833338,246.59583967500004,58.0,68.0
1024,246.15562290000005,246.6157671833334,62.0,71.0
1025,246.57953535000004,247.09946215833338,50.0,65.0
1026,247.0125057583334,247.20996925000006,55.0,74.0
1027,247.00344780000006,247.2135924333334,58.0,79.0
1028,247.01975212500005,247.22627357500005,62.0,81.0
1029,247.73895401666672,247.9309827333334,55.0,61.0
1030,247.8114176833334,248.02156231666672,58.0,68.0
1031,247.4454761666667,248.0831564333334,50.0,67.0
1032,247.90018567500005,248.30235902500004,62.0,79.0
1033,248.3331560833334,248.8367785666667,50.0,63.0
1034,248.78605400000004,249.02156091666672,58.0,84.0
1035,246.1538113083334,249.03605365000004,43.0,85.0
1036,248.78967718333337,249.06141593333336,55.0,83.0
1037,248.7878655916667,249.09402458333338,62.0,86.0
1038,248.9889522666667,249.12844482500003,50.0,79.0
1039,249.2280823666667,249.36576333333338,43.0,86.0
1040,249.51793703333337,249.70453097500004,55.0,72.0
1041,249.65380640833337,249.74800917500005,36.0,84.0
1042,249.56322682500004,249.94547266666672,60.0,74.0
1043,249.6592411833334,250.09583477500004,64.0,85.0
1044,250.51974722500006,250.78061642500006,60.0,84.0
1045,250.7117759416667,251.01431175000005,64.0,87.0
1046,250.29510985833338,251.15018112500005,55.0,83.0
1047,250.08496522500005,251.17010863333337,48.0,83.0
1048,250.95271763333338,251.17010863333337,67.0,79.0
1049,251.40380395833338,251.8476439166667,64.0,79.0
1050,251.3983691833334,251.85126710000006,67.0,74.0
1051,251.40742714166672,251.86394824166672,60.0,73.0
1052,251.79873094166672,252.3041650166667,55.0,61.0
1053,251.39474600000005,252.39655619166672,48.0,86.0
1054,252.26793318333338,252.52699079166672,60.0,78.0
1055,252.26431000000005,252.52699079166672,64.0,86.0
1056,252.26612159166672,252.53061397500005,67.0,80.0
1057,253.11213490000006,253.34039545000005,65.0,79.0
1058,253.12300445000005,253.3766272833334,60.0,71.0
1059,253.9853220833334,254.4726402416667,55.0,82.0
1060,253.54510530833338,254.57590096666672,48.0,62.0
1061,253.12481604166672,254.67010373333338,41.0,85.0
1062,254.40561135000004,254.7081471583334,57.0,71.0
1063,254.84039335000006,255.97807291666672,41.0,85.0
1064,254.83677016666672,256.4037969583334,53.0,72.0
1065,254.84582812500005,256.4092317333334,57.0,72.0
1066,254.8385817583334,256.4291592416667,60.0,77.0
1067,256.5976372666667,257.5758967666667,65.0,79.0
1068,257.46720126666673,258.0867656166667,60.0,78.0
1069,257.9019832666667,258.09401198333336,57.0,49.0
1070,258.3367652666667,258.79147477500004,65.0,79.0
1071,257.0324192666667,259.2371263250001,48.0,69.0
1072,256.5976372666667,259.32408272500004,41.0,85.0
1073,259.2063292666667,259.34944500833336,60.0,78.0
1074,259.2063292666667,259.36212615000005,57.0,73.0
1075,260.0758932666667,261.00342820000003,65.0,79.0
1076,260.51067526666674,261.11755847500007,45.0,61.0
1077,260.0758932666667,261.1791525916667,38.0,84.0
1078,260.9454572666667,261.3204567416667,62.0,80.0
1079,261.8150212666667,262.72081710000003,60.0,78.0
1080,262.24980326666673,262.84219374166673,52.0,76.0
1081,261.8150212666667,262.8820487583334,45.0,67.0
1082,262.6845852666667,262.97262834166673,57.0,85.0
1083,263.55414926666674,264.43820600000004,62.0,78.0
1084,263.55414926666674,264.4617566916667,55.0,74.0
1085,264.4237132666667,264.90016187500004,58.0,79.0
1086,264.8584952666667,265.44363937500003,55.0,72.0
1087,265.29327726666673,265.62298695000004,67.0,78.0
1088,266.1628412666667,266.4472611583334,58.0,77.0
1089,263.9889312666667,266.5396523333334,50.0,64.0
1090,266.1628412666667,266.5650146166667,62.0,82.0
1091,263.55414926666674,266.6211739583334,43.0,80.0
1092,267.03240526666673,267.20994125000004,55.0,77.0
1093,267.03240526666673,267.6628391666667,60.0,83.0
1094,267.4671872666667,267.9526938333334,55.0,72.0
1095,267.9019692666667,268.3929106083334,62.0,83.0
1096,268.33675126666674,268.52334520833335,60.0,77.0
1097,267.03240526666673,273.24978786666674,48.0,82.0
1098,268.7715332666667,273.6356568916667,55.0,77.0
1099,268.7715332666667,273.7497871666667,64.0,82.0
1100,273.99616363333337,274.58855410833337,60.0,81.0
1101,273.9997868166667,274.7823944166667,53.0,80.0
1102,274.84580012500004,275.07224908333336,57.0,80.0
1103,275.06137953333337,275.70449457500007,53.0,86.0
1104,275.47442243333336,275.78239301666673,57.0,73.0
1105,275.2715241666667,275.7932625666667,60.0,80.0
1106,276.13746498333336,276.6428990583334,53.0,85.0
1107,274.4255108583334,276.72985545833336,48.0,70.0
1108,274.00341000000003,276.7950727583334,41.0,86.0
1109,276.57405857500004,276.997971025,60.0,79.0
1110,276.9726087416667,277.07224628333336,53.0,74.0
1111,275.7407264083334,277.1247824416667,65.0,83.0
1112,277.39289800833336,277.6084774166667,57.0,72.0
1113,277.4617384916667,277.94905665000005,62.0,78.0
1114,277.9128248166667,278.17550560833337,57.0,75.0
1115,278.12296945,278.40014297500005,62.0,79.0
1116,278.36209955000004,278.6084760166667,65.0,85.0
1117,277.6972454083334,278.7606497166667,45.0,73.0
1118,278.5468819000001,278.78963518333336,62.0,83.0
1119,277.4726080416667,278.8113742833334,38.0,88.0
1120,278.75340335000004,278.96898275833337,57.0,84.0
1121,279.1863737583334,279.79506855833336,57.0,77.0
1122,279.1845621666667,279.8005033333334,60.0,80.0
1123,279.63021371666673,280.2787635333334,52.0,71.0
1124,279.19362012500005,280.29506785833337,45.0,85.0
1125,280.063184125,280.29506785833337,57.0,72.0
1126,280.0523145750001,280.32043014166675,60.0,72.0
1127,280.05956094166675,280.35666197500007,64.0,81.0
1128,280.8222410333334,281.08673341666673,55.0,71.0
1129,280.8802119666667,281.35666057500003,58.0,72.0
1130,280.94361767500004,281.4291242416667,62.0,74.0
1131,281.5921674916667,281.8856453416667,58.0,86.0
1132,281.38202285833336,281.9182539916667,55.0,81.0
1133,281.81861645000004,282.0994131583334,67.0,82.0
1134,282.0160799416667,282.2986882416667,62.0,85.0
1135,282.21173184166673,282.4997749166667,58.0,87.0
1136,281.1736898166667,282.53600675000007,50.0,75.0
1137,280.94905245000007,282.5722385833334,43.0,85.0
1138,282.7171659166667,283.2606434166667,62.0,71.0
1139,282.6682529416667,283.29687525,58.0,73.0
1140,282.42549965833337,283.3222375333334,55.0,77.0
1141,283.55774445000003,284.02513510000006,58.0,75.0
1142,283.13564359166674,284.1102799083334,50.0,72.0
1143,282.6791224916667,284.19361312500007,43.0,80.0
1144,283.9834684916667,284.2769463416667,55.0,71.0
1145,283.56317922500006,284.291439075,62.0,81.0
1146,284.4291200416667,284.6428878583334,55.0,80.0
1147,284.42730845000006,285.31498836666674,60.0,80.0
1148,284.84035135000005,285.3783940750001,55.0,78.0
1149,284.42549685833336,285.4780316166667,48.0,86.0
1150,285.2860029,285.58672711666674,64.0,87.0
1151,285.5088286750001,285.7950601583334,60.0,78.0
1152,285.7117269416667,286.01426275000006,55.0,79.0
1153,286.1465089416667,286.3421608416667,36.0,84.0
1154,286.1628132666667,286.3421608416667,36.0,84.0
1155,286.150132125,286.4562911166667,55.0,79.0
1156,286.1537553083334,286.78237761666674,60.0,84.0
1157,286.1628132666667,286.78237761666674,60.0,76.0
1158,286.1628132666667,287.10121775000005,64.0,71.0
1159,286.5975952666667,287.7715066666667,48.0,54.0
1160,287.4671592666667,287.8204196416667,62.0,79.0
1161,287.03237726666674,287.8928833083334,55.0,75.0
1162,287.9019412666667,288.8149834666667,64.0,77.0
1163,287.9019412666667,288.8258530166667,60.0,70.0
1164,289.6410692666667,289.7678806833334,41.0,74.0
1165,289.6410692666667,290.72621267500006,60.0,74.0
1166,290.9454152666667,291.6211389583334,60.0,79.0
1167,289.6410692666667,291.6682403416667,69.0,73.0
1168,291.3801972666667,291.7968633500001,65.0,74.0
1169,291.81497926666674,292.0450514083334,60.0,53.0
1170,292.2497612666667,292.46534067500005,60.0,73.0
1171,290.51063326666673,292.53780434166674,57.0,69.0
1172,290.07585126666675,292.6428766583334,48.0,62.0
1173,292.2497612666667,292.8620792500001,67.0,70.0
1174,292.6845432666667,293.3004844333334,60.0,68.0
1175,293.1193252666667,293.62294775000004,41.0,78.0
1176,293.1193252666667,293.8367155666667,65.0,73.0
1177,293.55410726666673,294.07584566666674,60.0,72.0
1178,293.9888892666667,294.78598960000005,69.0,73.0
1179,294.4236712666667,294.99794582500004,60.0,67.0
1180,294.85845326666674,295.32946710000004,65.0,71.0
1181,295.2932352666667,295.8457707250001,60.0,69.0
1182,295.7280172666667,296.05229217500005,65.0,77.0
1183,295.7280172666667,296.2877990916667,72.0,74.0
1184,294.4236712666667,296.3910598166667,53.0,71.0
