,start,end,pitch,velocity
0,30.58323546666667,30.943082800000003,67.0,112.0
1,31.03777946666667,31.155203333333336,65.0,102.0
2,31.26505146666667,31.55482326666667,65.0,100.0
3,31.71959546666667,32.2101242,63.0,108.0
4,32.40141146666667,32.71201653333334,63.0,109.0
5,32.85595546666667,32.97337933333334,65.0,92.0
6,33.08322746666667,33.52072606666667,65.0,108.0
7,33.53777146666667,33.9601186,63.0,100.0
8,34.219587466666674,34.55860153333334,62.0,105.0
9,34.67413146666667,34.78776746666667,63.0,97.0
10,34.90140346666667,35.4998864,65.0,100.0
11,35.58321946666667,35.715794800000005,62.0,99.0
12,35.81049146666667,37.05291173333334,63.0,100.0
13,37.85593946666667,38.181696,68.0,108.0
14,38.310483466666675,38.4260134,68.0,94.0
15,38.537755466666674,38.8407848,68.0,102.0
16,38.99229946666667,39.4771464,67.0,102.0
17,39.67411546666667,39.946841866666674,70.0,105.0
18,40.12865946666667,40.23093186666667,70.0,100.0
19,40.355931466666675,40.4885068,70.0,102.0
20,40.583203466666674,40.89380853333334,67.0,99.0
21,41.03774746666667,41.34456466666667,65.0,102.0
22,41.49229146666667,41.91653253333334,63.0,105.0
23,42.17410746666667,42.29153133333334,63.0,97.0
24,42.401379466666675,42.71956026666667,67.0,102.0
25,42.855923466666674,42.96766553333334,70.0,97.0
26,43.08319546666667,43.37675513333334,63.0,111.0
27,43.53773946666667,44.76879613333334,65.0,108.0
28,44.901371466666674,45.01879533333334,58.0,108.0
29,45.128643466666674,45.41652133333334,60.0,100.0
30,45.58318746666667,45.90136826666667,63.0,100.0
31,46.03773146666667,46.16083713333334,63.0,97.0
32,46.26500346666667,46.78204726666667,67.0,109.0
33,46.946819466666675,47.715756400000004,65.0,102.0
34,48.53772346666667,48.66272306666667,58.0,105.0
35,48.764995466666676,49.062343000000006,67.0,109.0
36,49.219539466666674,49.333175466666674,68.0,94.0
37,49.446811466666674,49.72900753333334,67.0,112.0
38,49.90135546666667,50.21764233333334,65.0,108.0
39,50.35589946666667,50.488474800000006,62.0,102.0
40,50.58317146666667,51.55286533333334,63.0,94.0
41,52.17407546666667,52.312332600000005,58.0,92.0
42,52.40134746666667,52.73657366666667,60.0,105.0
43,52.85589146666668,52.975209266666674,63.0,89.0
44,53.083163466666676,53.30475366666667,65.0,100.0
45,53.537707466666674,53.81990353333334,67.0,102.0
46,53.99225146666667,55.08883886666668,58.0,108.0
47,55.810427466666674,55.90701806666667,58.0,105.0
48,56.03769946666667,56.30663800000001,60.0,108.0
49,56.49224346666667,56.791484933333344,63.0,105.0
50,56.94678746666668,57.07178706666667,63.0,105.0
51,57.17405946666668,57.76686060000001,60.0,102.0
52,57.855875466666674,59.264961866666674,58.0,102.0
53,61.49222746666668,61.833135466666675,58.0,111.0
54,61.946771466666675,62.05093780000001,63.0,94.0
55,62.174043466666674,62.719496266666674,63.0,105.0
56,62.85585946666667,63.19487353333334,67.0,102.0
57,63.31040346666668,63.64562966666667,68.0,105.0
58,63.764947466666676,63.888053133333344,67.0,109.0
59,63.992219466666675,64.33123353333335,65.0,97.0
60,64.44676346666668,64.77252000000001,63.0,102.0
61,65.12857946666668,65.44865420000001,62.0,102.0
62,65.58312346666668,65.69675946666668,63.0,97.0
63,65.81039546666668,66.34259073333334,65.0,100.0
64,66.49221146666667,66.65887760000001,62.0,96.0
65,66.71948346666667,67.85584346666667,63.0,89.0
66,68.76493146666668,69.04902146666667,68.0,100.0
67,69.21947546666668,69.33311146666668,68.0,94.0
68,69.44674746666668,69.7497768,68.0,102.0
69,69.90129146666668,70.25166913333334,67.0,109.0
70,70.58310746666668,70.86151566666668,70.0,100.0
71,71.03765146666667,71.16265106666667,70.0,102.0
72,71.26492346666667,71.59446786666668,67.0,100.0
73,71.71946746666667,71.80658840000001,65.0,52.0
74,71.94673946666667,72.24976880000001,63.0,82.0
75,72.40128346666667,72.85393353333335,63.0,102.0
76,73.08309946666668,73.19484153333335,63.0,105.0
77,73.31037146666668,73.58499180000001,67.0,109.0
78,73.76491546666668,73.86150606666668,70.0,100.0
79,73.99218746666668,74.261126,63.0,80.0
80,74.44673146666668,75.2213502,65.0,102.0
81,76.03763546666667,76.33119513333334,60.0,111.0
82,76.49217946666667,76.76111800000001,63.0,108.0
83,76.94672346666668,77.08119273333334,63.0,100.0
84,77.17399546666668,77.70997860000001,67.0,109.0
85,77.85581146666668,78.88800513333334,65.0,108.0
86,79.44671546666667,79.55845753333334,58.0,105.0
87,79.67398746666667,79.97322893333335,67.0,109.0
88,80.12853146666667,80.24784926666668,68.0,97.0
89,80.35580346666667,80.62852986666668,67.0,109.0
90,80.81034746666668,81.08875566666667,65.0,105.0
91,81.26489146666668,81.37852746666668,62.0,96.0
92,81.49216346666668,81.80087460000001,62.0,102.0
93,81.94670746666668,82.06981313333334,65.0,94.0
94,82.17397946666668,82.76299273333335,63.0,102.0
95,83.08306746666668,83.21564280000001,58.0,94.0
96,83.31033946666668,83.61336880000002,60.0,92.0
97,83.76488346666667,83.87662553333334,63.0,94.0
98,83.99215546666667,84.2667758,65.0,102.0
99,84.44669946666667,84.74783486666668,67.0,102.0
100,84.90124346666667,85.83305866666667,58.0,111.0
101,86.71941946666668,86.84441906666667,58.0,102.0
102,86.94669146666668,87.23646326666668,60.0,108.0
103,87.40123546666668,87.49972000000001,63.0,97.0
104,87.62850746666668,87.89555206666668,63.0,102.0
105,88.08305146666667,88.62282246666668,72.0,105.0
106,88.76486746666667,90.80273973333334,70.0,102.0
107,91.03758746666668,91.36902580000002,63.0,102.0
108,91.49213146666668,91.78190326666667,67.0,109.0
109,91.94667546666668,92.24023513333334,75.0,114.0
110,92.40121946666667,93.05462646666668,74.0,108.0
111,93.08303546666667,93.98833560000001,72.0,92.0
112,94.21939546666668,94.5337884,70.0,102.0
113,94.67393946666668,94.7781058,68.0,80.0
114,94.90121146666668,95.69666346666668,68.0,108.0
115,96.03757146666668,96.34628260000001,65.0,105.0
116,96.49211546666668,96.79703873333335,72.0,102.0
117,96.94665946666667,97.07165906666668,70.0,100.0
118,97.17393146666667,97.63605120000001,65.0,100.0
119,97.66067233333335,98.55271493333335,67.0,105.0
120,98.76483546666668,99.08491020000001,63.0,105.0
121,99.15877360000002,99.24778846666668,65.0,100.0
122,99.42581820000001,99.56975713333334,67.0,105.0
123,99.67392346666668,100.21937626666669,70.0,105.0
124,100.35573946666668,101.40687246666668,68.0,97.0
125,101.46369046666668,102.18906693333335,67.0,109.0
126,102.24967280000001,102.79133773333335,63.0,97.0
127,103.08300346666668,103.20610913333334,58.0,111.0
128,103.31027546666668,103.60383513333335,60.0,111.0
129,103.76481946666668,103.94095526666668,67.0,105.0
130,103.99209146666668,104.10951533333335,65.0,94.0
131,104.21936346666668,104.55837753333334,65.0,105.0
132,104.67390746666668,104.89739160000002,63.0,94.0
133,104.90117946666668,105.57920760000002,65.0,108.0
134,105.58299546666667,105.87655513333334,63.0,111.0
135,106.03753946666669,106.35572026666668,67.0,109.0
136,106.49208346666668,106.76670380000002,75.0,111.0
137,106.94662746666668,107.48639846666669,74.0,105.0
138,107.62844346666668,108.53374360000001,75.0,105.0
139,108.76480346666668,109.34624100000002,77.0,111.0
140,109.44661946666668,110.11707186666668,75.0,102.0
141,110.58297946666669,110.90873600000002,74.0,102.0
142,111.03752346666668,111.16062913333334,74.0,99.0
143,111.26479546666668,111.56971873333335,74.0,102.0
144,111.71933946666668,112.28183766666668,74.0,99.0
145,112.40115546666668,113.04698673333334,75.0,76.0
146,113.31024346666668,113.61895460000001,63.0,111.0
147,113.76478746666668,113.86137806666669,65.0,105.0
148,113.99205946666667,114.12652873333334,67.0,99.0
149,114.21933146666669,114.75531460000002,70.0,102.0
150,114.90114746666669,115.51856973333335,68.0,102.0
151,115.58296346666668,115.70606913333334,67.0,105.0
152,115.81023546666668,115.93523506666668,68.0,94.0
153,116.03750746666668,116.41440020000002,72.0,111.0
154,116.49205146666668,116.77045966666668,70.0,114.0
155,116.94659546666668,117.07348900000001,70.0,111.0
156,117.17386746666668,117.74204746666668,67.0,112.0
157,117.85568346666668,119.67007160000001,70.0,102.0
158,120.12840346666668,120.45984180000002,63.0,102.0
159,120.58294746666668,120.87271926666668,67.0,109.0
160,121.03749146666668,121.33105113333335,75.0,114.0
161,121.49203546666668,122.14544246666668,74.0,108.0
162,122.17385146666668,123.07915160000002,72.0,92.0
163,123.31021146666669,123.62460440000001,70.0,102.0
164,123.76475546666668,123.86892180000001,68.0,80.0
165,123.99202746666668,124.78747946666668,68.0,108.0
166,125.12838746666668,125.43709860000001,65.0,105.0
167,125.58293146666668,125.88785473333336,72.0,102.0
168,126.03747546666668,126.16247506666669,70.0,100.0
169,126.26474746666668,126.81588206666669,65.0,100.0
170,126.94656346666669,127.64353093333335,67.0,105.0
171,127.85565146666669,128.1757262,63.0,105.0
172,128.31019546666667,128.4181496666667,65.0,100.0
173,128.53746746666667,128.68140640000001,67.0,105.0
174,128.7647394666667,129.3101922666667,70.0,105.0
175,129.4465554666667,130.02231120000002,68.0,97.0
176,130.5829154666667,131.27988293333334,67.0,109.0
177,131.4920034666667,132.0336684,63.0,97.0
178,132.17381946666669,132.29692513333336,58.0,111.0
179,132.40109146666668,132.69465113333334,60.0,111.0
180,132.85563546666668,133.03177126666668,67.0,105.0
181,133.08290746666668,133.20033133333334,65.0,94.0
182,133.31017946666668,133.64919353333335,65.0,105.0
183,133.76472346666668,133.9882076,63.0,94.0
184,133.99199546666668,134.6700236,65.0,108.0
185,134.67381146666668,134.96737113333336,63.0,111.0
186,135.12835546666668,135.4465362666667,67.0,109.0
187,135.58289946666667,135.8575198,75.0,111.0
188,136.03744346666667,136.57721446666667,74.0,105.0
189,136.71925946666667,137.62455960000003,75.0,105.0
190,137.8556194666667,138.437057,77.0,111.0
191,138.5374354666667,139.20788786666668,75.0,102.0
192,139.4465234666667,139.67000760000002,75.0,100.0
193,139.6737954666667,139.99955200000002,74.0,102.0
194,140.1283394666667,140.25144513333336,70.0,99.0
195,140.3556114666667,140.66053473333335,70.0,102.0
196,140.81015546666669,141.39348693333335,77.0,111.0
197,141.49197146666668,142.0828786666667,75.0,97.0
198,142.40105946666668,142.67946766666668,63.0,84.0
199,142.85560346666668,142.97870913333335,65.0,108.0
200,143.08287546666668,143.22302653333335,67.0,96.0
201,143.31014746666668,143.80635800000002,67.0,99.0
202,143.99196346666668,144.54877986666668,60.0,105.0
203,144.90105146666667,145.00711173333335,60.0,111.0
204,145.12832346666667,145.4313528,58.0,100.0
205,145.5828674666667,145.93892693333336,63.0,108.0
206,146.0374114666667,146.15672926666667,62.0,109.0
207,146.2646834666667,146.8044544666667,65.0,92.0
208,146.9464994666667,149.6339908666667,63.0,108.0
209,179.6736674666667,180.01457546666668,58.0,111.0
210,180.1282114666667,180.23237780000002,63.0,94.0
211,180.3554834666667,180.9009362666667,63.0,105.0
212,181.0372994666667,181.37631353333336,67.0,102.0
213,181.4918434666667,181.8270696666667,68.0,105.0
214,181.9463874666667,182.06949313333337,67.0,109.0
215,182.1736594666667,182.51267353333336,65.0,97.0
216,182.6282034666667,182.95396000000002,63.0,102.0
217,183.3100194666667,183.63009420000003,62.0,102.0
218,183.7645634666667,183.8781994666667,63.0,97.0
219,183.99183546666669,184.52403073333335,65.0,100.0
220,184.67365146666668,184.84031760000002,62.0,96.0
221,184.90092346666668,186.03728346666668,63.0,89.0
222,186.9463714666667,187.2304614666667,68.0,100.0
223,187.4009154666667,187.5145514666667,68.0,94.0
224,187.6281874666667,187.93121680000002,68.0,102.0
225,188.0827314666667,188.43310913333335,67.0,109.0
226,188.7645474666667,189.0429556666667,70.0,100.0
227,189.2190914666667,189.3440910666667,70.0,102.0
228,189.4463634666667,189.7759078666667,67.0,100.0
229,189.9009074666667,189.98802840000002,65.0,52.0
230,190.1281794666667,190.43120880000004,63.0,82.0
231,190.5827234666667,191.03537353333337,63.0,102.0
232,191.2645394666667,191.37628153333335,63.0,105.0
233,191.4918114666667,191.76643180000002,67.0,109.0
234,191.9463554666667,192.0429460666667,70.0,100.0
235,192.1736274666667,192.44256600000003,63.0,80.0
236,192.62817146666669,193.40279020000003,65.0,102.0
237,194.21907546666668,194.51263513333336,60.0,111.0
238,194.67361946666668,194.94255800000002,63.0,108.0
239,195.1281634666667,195.26263273333336,63.0,100.0
240,195.3554354666667,195.89141860000004,67.0,109.0
241,196.0372514666667,197.06944513333335,65.0,108.0
242,197.6281554666667,197.73989753333336,58.0,105.0
243,197.8554274666667,198.15466893333337,67.0,109.0
244,198.3099714666667,198.4292892666667,68.0,97.0
245,198.5372434666667,198.8099698666667,67.0,109.0
246,198.9917874666667,199.2701956666667,65.0,105.0
247,199.4463314666667,199.5599674666667,62.0,96.0
248,199.6736034666667,199.98231460000002,62.0,102.0
249,200.1281474666667,200.25125313333336,65.0,94.0
250,200.3554194666667,200.94443273333337,63.0,102.0
251,201.26450746666669,201.39708280000002,58.0,94.0
252,201.49177946666669,201.79480880000003,60.0,92.0
253,201.94632346666668,202.05806553333335,63.0,94.0
254,202.17359546666668,202.4482158,65.0,102.0
255,202.62813946666668,202.9292748666667,67.0,102.0
256,203.08268346666668,204.0144986666667,58.0,111.0
257,204.9008594666667,205.0258590666667,58.0,102.0
258,205.1281314666667,205.41790326666668,60.0,108.0
259,205.5826754666667,205.68116000000003,63.0,97.0
260,205.8099474666667,206.0769920666667,63.0,102.0
261,206.2644914666667,206.8042624666667,72.0,105.0
262,206.9463074666667,208.98417973333335,70.0,102.0
263,209.2190274666667,209.55046580000004,63.0,102.0
264,209.6735714666667,209.9633432666667,67.0,109.0
265,210.12811546666669,210.42167513333337,75.0,114.0
266,210.58265946666668,211.2360664666667,74.0,108.0
267,211.26447546666668,212.16977560000004,72.0,92.0
268,212.4008354666667,212.71522840000003,70.0,102.0
269,212.8553794666667,212.95954580000003,68.0,80.0
270,213.0826514666667,213.8781034666667,68.0,108.0
271,214.2190114666667,214.52772260000003,65.0,105.0
272,214.6735554666667,214.97847873333336,72.0,102.0
273,215.1280994666667,215.2530990666667,70.0,100.0
274,215.3553714666667,215.9065060666667,65.0,100.0
275,216.0371874666667,216.73415493333337,67.0,105.0
276,216.9462754666667,217.26635020000003,63.0,105.0
277,217.4008194666667,217.50877366666668,65.0,100.0
278,217.6280914666667,217.77203040000003,67.0,105.0
279,217.8553634666667,218.4008162666667,70.0,105.0
280,218.5371794666667,219.11293520000004,68.0,97.0
281,219.67353946666668,220.37050693333336,67.0,109.0
282,220.5826274666667,221.12429240000003,63.0,97.0
283,221.2644434666667,221.38754913333335,58.0,111.0
284,221.4917154666667,221.78527513333336,60.0,111.0
285,221.9462594666667,222.1223952666667,67.0,105.0
286,222.1735314666667,222.29095533333336,65.0,94.0
287,222.4008034666667,222.73981753333337,65.0,105.0
288,222.8553474666667,223.07883160000003,63.0,94.0
289,223.0826194666667,223.76064760000003,65.0,108.0
290,223.7644354666667,224.05799513333335,63.0,111.0
291,224.2189794666667,224.5371602666667,67.0,109.0
292,224.6735234666667,224.94814380000003,75.0,111.0
293,225.1280674666667,225.6678384666667,74.0,105.0
294,225.8098834666667,226.71518360000002,75.0,105.0
295,226.9462434666667,227.52768100000003,77.0,111.0
296,227.62805946666668,228.2985118666667,75.0,102.0
297,228.7644194666667,229.09017600000004,74.0,102.0
298,229.2189634666667,229.34206913333335,74.0,99.0
299,229.4462354666667,229.75115873333337,74.0,102.0
300,229.9007794666667,230.4632776666667,74.0,99.0
301,230.5825954666667,231.22842673333335,75.0,76.0
302,231.4916834666667,231.80039460000003,63.0,111.0
303,231.9462274666667,232.04281806666668,65.0,105.0
304,232.1734994666667,232.30796873333335,67.0,99.0
305,232.4007714666667,232.93675460000003,70.0,102.0
306,233.0825874666667,233.70000973333336,68.0,102.0
307,233.7644034666667,233.88750913333337,67.0,105.0
308,233.9916754666667,234.1166750666667,68.0,94.0
309,234.2189474666667,234.59584020000003,72.0,111.0
310,234.6734914666667,234.9518996666667,70.0,114.0
311,235.1280354666667,235.25492900000003,70.0,111.0
312,235.3553074666667,235.9234874666667,67.0,112.0
313,236.03712346666669,237.85151160000004,70.0,102.0
314,238.3098434666667,238.64128180000003,63.0,102.0
315,238.7643874666667,239.0541592666667,67.0,109.0
316,239.2189314666667,239.51249113333336,75.0,114.0
317,239.6734754666667,240.3268824666667,74.0,108.0
318,240.3552914666667,241.26059160000003,72.0,92.0
319,241.4916514666667,241.80604440000002,70.0,102.0
320,241.9461954666667,242.05036180000002,68.0,80.0
321,242.1734674666667,242.9689194666667,68.0,108.0
322,243.3098274666667,243.61853860000002,65.0,105.0
323,243.7643714666667,244.06929473333338,72.0,102.0
324,244.2189154666667,244.3439150666667,70.0,100.0
325,244.4461874666667,244.9973220666667,65.0,100.0
326,245.1280034666667,245.82497093333336,67.0,105.0
327,246.0370914666667,246.35716620000002,63.0,105.0
328,246.4916354666667,246.5995896666667,65.0,100.0
329,246.7189074666667,246.86284640000002,67.0,105.0
330,246.9461794666667,247.4916322666667,70.0,105.0
331,247.6279954666667,248.20375120000003,68.0,97.0
332,248.7643554666667,249.46132293333338,67.0,109.0
333,249.6734434666667,250.21510840000002,63.0,97.0
334,250.3552594666667,250.47836513333337,58.0,111.0
335,250.5825314666667,250.87609113333338,60.0,111.0
336,251.0370754666667,251.2132112666667,67.0,105.0
337,251.2643474666667,251.38177133333338,65.0,94.0
338,251.4916194666667,251.83063353333335,65.0,105.0
339,251.9461634666667,252.16964760000002,63.0,94.0
340,252.1734354666667,252.85146360000005,65.0,108.0
341,252.8552514666667,253.14881113333337,63.0,111.0
342,253.3097954666667,253.6279762666667,67.0,109.0
343,253.7643394666667,254.03895980000004,75.0,111.0
344,254.2188834666667,254.7586544666667,74.0,105.0
345,254.9006994666667,255.80599960000004,75.0,105.0
346,256.0370594666667,256.61849700000005,77.0,111.0
347,256.7188754666667,257.3893278666667,75.0,102.0
348,257.6279634666667,257.85144760000003,75.0,100.0
349,257.8552354666667,258.18099200000006,74.0,102.0
350,258.3097794666667,258.43288513333334,70.0,99.0
351,258.5370514666667,258.84197473333336,70.0,102.0
352,258.9915954666667,259.57492693333336,77.0,111.0
353,259.6734114666667,260.2643186666667,75.0,97.0
354,260.5824994666667,260.8609076666667,63.0,84.0
355,261.0370434666667,261.1601491333334,65.0,108.0
356,261.2643154666667,261.4044665333334,67.0,96.0
357,261.4915874666667,261.98779800000005,67.0,99.0
358,262.1734034666667,262.7302198666667,60.0,105.0
359,263.0824914666667,263.1885517333334,60.0,111.0
360,263.3097634666667,263.6127928,58.0,100.0
361,263.7643074666667,264.12036693333334,63.0,108.0
362,264.2188514666667,264.3381692666667,62.0,109.0
363,264.4461234666667,264.9858944666667,65.0,92.0
364,265.1279394666667,266.94232760000006,63.0,108.0
365,267.4006594666667,267.7320978,63.0,102.0
366,267.8552034666667,268.1449752666667,67.0,109.0
367,268.3097474666667,268.6033071333334,75.0,114.0
368,268.7642914666667,269.4176984666667,74.0,108.0
369,269.4461074666667,270.3514076,72.0,92.0
370,270.5824674666667,270.89686040000004,70.0,102.0
371,271.0370114666667,271.14117780000004,68.0,80.0
372,271.2642834666667,272.0597354666667,68.0,108.0
373,272.4006434666667,272.70935460000004,65.0,105.0
374,272.8551874666667,273.1601107333334,72.0,102.0
375,273.3097314666667,273.4347310666667,70.0,100.0
376,273.5370034666667,274.0881380666667,65.0,100.0
377,274.21881946666673,274.9157869333334,67.0,105.0
378,275.1279074666667,275.4479822,63.0,105.0
379,275.5824514666667,275.6904056666667,65.0,100.0
380,275.8097234666667,275.95366240000004,67.0,105.0
381,276.0369954666667,276.5824482666667,70.0,105.0
382,276.7188114666667,277.2945672,68.0,97.0
383,277.8551714666667,278.55213893333337,67.0,109.0
384,278.7642594666667,279.30592440000004,63.0,97.0
385,279.4460754666667,279.56918113333336,58.0,111.0
386,279.6733474666667,279.9669071333334,60.0,111.0
387,280.1278914666667,280.3040272666667,67.0,105.0
388,280.3551634666667,280.47258733333337,65.0,94.0
389,280.5824354666667,280.9214495333334,65.0,105.0
390,281.0369794666667,281.26046360000004,63.0,94.0
391,281.2642514666667,281.94227960000006,65.0,108.0
392,281.9460674666667,282.2396271333334,63.0,111.0
393,282.4006114666667,282.7187922666667,67.0,109.0
394,282.8551554666667,283.12977580000006,75.0,111.0
395,283.3096994666667,283.84947046666673,74.0,105.0
396,283.9915154666667,284.8968156,75.0,105.0
397,285.1278754666667,285.709313,77.0,111.0
398,285.8096914666667,286.4801438666667,75.0,102.0
399,286.7187794666667,286.94226360000005,75.0,100.0
400,286.9460514666667,287.271808,74.0,102.0
401,287.4005954666667,287.52370113333336,70.0,99.0
402,287.6278674666667,287.9327907333334,70.0,102.0
403,288.0824114666667,288.6657429333334,77.0,111.0
404,288.7642274666667,289.3551346666667,75.0,97.0
405,289.6733154666667,289.9517236666667,63.0,84.0
406,290.1278594666667,290.25096513333335,65.0,108.0
407,290.3551314666667,290.49528253333335,67.0,96.0
408,290.5824034666667,291.078614,67.0,99.0
409,291.2642194666667,291.8210358666667,60.0,105.0
410,292.1733074666667,292.27936773333334,60.0,111.0
411,292.4005794666667,292.70360880000004,58.0,100.0
412,292.8551234666667,293.21118293333336,63.0,108.0
413,293.3096674666667,293.4289852666667,62.0,109.0
414,293.5369394666667,294.0767104666667,65.0,92.0
415,294.2187554666667,296.9062468666667,63.0,108.0
416,296.9460194666667,297.2244276666667,63.0,84.0
417,297.4005634666667,297.5236691333334,65.0,108.0
418,297.6278354666667,297.7679865333334,67.0,96.0
419,297.8551074666667,298.35131800000005,67.0,99.0
420,298.5369234666667,299.0937398666667,60.0,105.0
421,299.44601146666673,299.5520717333334,60.0,111.0
422,299.6732834666667,299.9763128,58.0,100.0
423,300.1278274666667,300.4838869333334,62.0,108.0
424,300.5823714666667,300.70168926666673,62.0,109.0
425,300.8096434666667,301.3494144666667,65.0,92.0
426,301.4914594666667,304.1789508666667,63.0,108.0
