,start,end,pitch,velocity
0,1.4924194666666668,2.1249932000000005,63.0,62.0
1,1.4924194666666668,2.492416266666667,67.0,38.0
2,2.401507466666667,2.719688266666667,63.0,94.0
3,1.9469634666666669,3.041656933333334,58.0,76.0
4,1.4924194666666668,3.5587007333333336,51.0,97.0
5,2.856051466666667,4.439379733333334,67.0,68.0
6,2.856051466666667,4.501879533333334,63.0,82.0
7,5.1287714666666675,5.990511133333334,63.0,78.0
8,5.1287714666666675,5.996192933333334,60.0,67.0
9,5.583315466666668,6.386343200000001,55.0,41.0
10,6.037859466666667,6.765129866666667,60.0,92.0
11,6.946947466666668,7.8276264666666675,67.0,42.0
12,6.4924034666666675,7.859823333333335,55.0,42.0
13,6.946947466666668,7.874974800000001,60.0,69.0
14,5.1287714666666675,8.020807666666668,48.0,78.0
15,8.765123466666667,9.348454933333334,56.0,58.0
16,8.765123466666667,9.767014200000002,63.0,76.0
17,9.219667466666667,10.302997333333334,51.0,48.0
18,9.674211466666668,10.659056800000002,56.0,87.0
19,11.037843466666668,11.151479466666668,56.0,18.0
20,10.128755466666668,11.196933866666669,63.0,46.0
21,10.583299466666668,11.645796066666668,51.0,53.0
22,8.765123466666667,11.7556442,44.0,92.0
23,11.492387466666669,11.854128733333335,56.0,80.0
24,11.492387466666669,11.939355733333334,60.0,84.0
25,11.946931466666669,12.261324400000001,51.0,57.0
26,12.401475466666668,12.952610066666669,58.0,82.0
27,12.856019466666668,13.352230000000002,53.0,51.0
28,12.401475466666668,13.560562666666668,62.0,85.0
29,12.401475466666668,14.490483933333335,46.0,97.0
30,13.310563466666668,14.948815800000002,58.0,82.0
31,13.765107466666668,15.016997400000003,65.0,87.0
32,14.674195466666669,15.242375466666669,53.0,42.0
33,14.219651466666669,15.244269400000002,70.0,87.0
34,15.12873946666667,15.460177800000002,58.0,71.0
35,15.12873946666667,15.490480733333335,62.0,41.0
36,16.03782746666667,17.04350606666667,67.0,57.0
37,16.49237146666667,17.15714206666667,58.0,73.0
38,16.03782746666667,17.5340348,63.0,60.0
39,16.94691546666667,17.806761200000004,65.0,87.0
40,17.40145946666667,18.12872986666667,58.0,69.0
41,17.856003466666667,18.530243733333336,63.0,71.0
42,17.856003466666667,18.62872826666667,70.0,92.0
43,16.03782746666667,19.016984600000004,51.0,94.0
44,18.31054746666667,19.10031766666667,58.0,50.0
45,18.765091466666668,19.121150933333336,63.0,82.0
46,18.765091466666668,19.132514533333335,67.0,90.0
47,19.67417946666667,20.234783733333337,63.0,73.0
48,20.12872346666667,20.664706600000002,60.0,73.0
49,19.67417946666667,20.721524600000002,68.0,80.0
50,19.67417946666667,21.34462866666667,53.0,89.0
51,22.40144346666667,22.57189746666667,60.0,89.0
52,20.58326746666667,22.630609400000004,63.0,89.0
53,22.40144346666667,22.683639533333338,53.0,80.0
54,21.49235546666667,22.848411733333336,72.0,84.0
55,21.03781146666667,22.988562800000004,68.0,78.0
56,23.31053146666667,24.25371026666667,62.0,41.0
57,23.76507546666667,24.312422200000004,53.0,57.0
58,23.31053146666667,24.41280066666667,46.0,94.0
59,23.31053146666667,24.831359933333335,58.0,71.0
60,24.21961946666667,24.926056600000003,65.0,89.0
61,24.67416346666667,25.380600600000005,53.0,47.0
62,25.12870746666667,25.865447533333338,62.0,65.0
63,25.12870746666667,25.876811133333337,58.0,80.0
64,25.58325146666667,26.29347646666667,53.0,57.0
65,26.03779546666667,26.42983966666667,58.0,87.0
66,26.03779546666667,26.433627533333336,62.0,79.0
67,26.03779546666667,26.465824400000002,65.0,89.0
68,24.67416346666667,26.55483926666667,46.0,36.0
69,26.49233946666667,26.660899533333335,53.0,60.0
70,25.12870746666667,26.954459200000002,70.0,92.0
71,27.40142746666667,27.956349933333335,58.0,69.0
72,26.94688346666667,27.967713533333338,63.0,73.0
73,27.85597146666667,28.556726800000003,65.0,80.0
74,28.76505946666667,30.244221400000004,63.0,66.0
75,28.76505946666667,30.249903200000006,67.0,52.0
76,28.310515466666672,30.393842133333337,58.0,52.0
77,26.94688346666667,30.448766200000005,51.0,80.0
78,31.03777946666667,31.641944200000005,58.0,62.0
79,30.58323546666667,31.81429213333334,67.0,61.0
80,30.58323546666667,31.85595866666667,63.0,73.0
81,31.492323466666672,32.06429133333334,65.0,92.0
82,31.94686746666667,32.55482006666667,58.0,51.0
83,32.40141146666667,32.95822786666667,70.0,92.0
84,32.40141146666667,33.024515533333336,63.0,73.0
85,33.31049946666667,33.486635266666674,67.0,87.0
86,33.31049946666667,33.51125640000001,63.0,87.0
87,30.58323546666667,33.516938200000006,51.0,92.0
88,32.85595546666667,33.56618046666667,58.0,51.0
89,34.219587466666674,34.765040266666674,58.0,94.0
90,34.219587466666674,34.93549426666667,55.0,43.0
91,34.219587466666674,34.95064573333334,62.0,55.0
92,34.219587466666674,35.136251200000004,43.0,68.0
93,34.67413146666667,35.17791773333334,50.0,40.0
94,35.12867546666667,35.283978000000005,55.0,79.0
95,35.12867546666667,35.29344766666667,58.0,97.0
96,36.03776346666667,36.99609373333334,60.0,66.0
97,36.03776346666667,37.02260880000001,63.0,73.0
98,36.492307466666674,37.09457826666667,55.0,44.0
99,36.03776346666667,37.232835400000006,48.0,84.0
100,36.94685146666667,37.499880000000005,67.0,96.0
101,37.40139546666667,37.59836453333334,60.0,78.0
102,37.85593946666667,38.537755466666674,60.0,92.0
103,37.85593946666667,38.63434606666667,56.0,78.0
104,37.85593946666667,39.18169280000001,44.0,94.0
105,38.310483466666675,39.213889666666674,51.0,41.0
106,38.76502746666667,39.25555620000001,60.0,89.0
107,39.21957146666667,39.3805558,56.0,67.0
108,39.67411546666667,39.80858473333334,60.0,50.0
109,39.67411546666667,39.886236000000004,58.0,64.0
110,40.12865946666667,40.653279000000005,58.0,80.0
111,39.67411546666667,40.66274866666667,63.0,73.0
112,39.67411546666667,41.03964140000001,51.0,89.0
113,40.583203466666674,41.08698973333334,67.0,99.0
114,41.49229146666667,42.43547026666667,56.0,62.0
115,41.49229146666667,42.45630353333334,60.0,80.0
116,41.49229146666667,42.67410586666667,44.0,87.0
117,41.94683546666667,42.7044088,51.0,62.0
118,42.401379466666675,42.91842326666667,63.0,94.0
119,42.855923466666674,42.99418060000001,56.0,82.0
120,43.31046746666667,43.93925333333334,62.0,57.0
121,43.31046746666667,43.94493513333334,58.0,89.0
122,43.76501146666667,44.49228186666667,53.0,60.0
123,43.31046746666667,44.569933133333336,46.0,80.0
124,44.21955546666667,44.58508460000001,58.0,89.0
125,44.21955546666667,45.0509922,65.0,87.0
126,45.128643466666674,45.75174753333334,60.0,78.0
127,45.128643466666674,46.09833733333334,56.0,58.0
128,45.58318746666667,46.170306800000006,51.0,47.0
129,45.128643466666674,46.33129113333334,44.0,94.0
130,46.03773146666667,46.48091186666667,63.0,94.0
131,46.492275466666676,46.672199133333336,56.0,64.0
132,46.946819466666675,47.55477206666667,62.0,54.0
133,46.946819466666675,47.641893,58.0,84.0
134,47.40136346666667,47.96196773333334,53.0,37.0
135,46.946819466666675,47.99605853333334,46.0,84.0
136,47.85590746666667,48.06234620000001,65.0,84.0
137,47.85590746666667,48.1305278,58.0,84.0
138,47.85590746666667,48.145679266666676,62.0,96.0
139,48.764995466666676,49.60968973333334,43.0,77.0
140,48.764995466666676,49.6134776,58.0,62.0
141,49.219539466666674,49.64378053333334,50.0,32.0
142,48.764995466666676,50.05097620000001,62.0,57.0
143,50.12862746666667,50.27824820000001,58.0,80.0
144,49.67408346666667,50.605898666666675,67.0,96.0
145,50.58317146666667,51.34832053333334,60.0,76.0
146,50.58317146666667,51.352108400000006,63.0,80.0
147,51.037715466666675,51.657031666666676,55.0,34.0
148,50.58317146666667,51.75930406666667,48.0,84.0
149,51.492259466666674,51.99225786666668,63.0,87.0
150,51.492259466666674,51.997939666666674,60.0,82.0
151,51.492259466666674,52.045288000000006,67.0,57.0
152,52.40134746666667,52.62672553333334,60.0,73.0
153,52.40134746666667,53.10778460000001,65.0,84.0
154,52.85589146666668,53.397556400000006,60.0,60.0
155,52.40134746666667,53.982781800000005,53.0,82.0
156,53.764979466666674,54.039599800000005,60.0,66.0
157,53.310435466666675,54.14187220000001,68.0,102.0
158,54.21952346666667,55.17406586666667,62.0,55.0
159,54.67406746666667,55.32936840000001,50.0,42.0
160,54.21952346666667,55.34262593333334,43.0,90.0
161,54.21952346666667,55.59073120000001,67.0,50.0
162,55.128611466666676,55.68921573333334,58.0,102.0
163,55.583155466666675,55.70057933333334,62.0,93.0
164,56.03769946666667,56.63618240000001,60.0,82.0
165,56.03769946666667,56.795272800000006,56.0,69.0
166,56.49224346666667,57.20246846666667,51.0,50.0
167,56.03769946666667,57.20815026666667,44.0,84.0
168,56.94678746666668,57.249816800000005,56.0,89.0
169,56.94678746666668,57.25171073333334,60.0,102.0
170,56.94678746666668,57.30284693333334,63.0,89.0
171,57.401331466666676,57.554740066666675,44.0,92.0
172,57.855875466666674,58.836932933333344,62.0,46.0
173,59.21950746666668,61.35586426666667,62.0,99.0
174,57.855875466666674,61.361546066666676,58.0,73.0
175,58.31041946666667,61.371015733333344,53.0,67.0
176,58.76496346666667,61.380485400000005,65.0,82.0
177,59.674051466666675,61.380485400000005,70.0,87.0
178,57.855875466666674,61.40321260000001,46.0,84.0
179,61.946771466666675,62.55093620000001,58.0,62.0
180,61.49222746666668,62.723284133333344,67.0,61.0
181,61.49222746666668,62.76495066666668,63.0,73.0
182,62.401315466666674,62.97328333333334,65.0,92.0
183,62.85585946666667,63.46381206666668,58.0,51.0
184,63.31040346666668,63.86721986666667,70.0,92.0
185,63.31040346666668,63.93350753333334,63.0,73.0
186,64.21949146666668,64.39562726666668,67.0,87.0
187,64.21949146666668,64.4202484,63.0,87.0
188,61.49222746666668,64.42593020000001,51.0,92.0
189,63.764947466666676,64.47517246666668,58.0,51.0
190,65.12857946666668,65.67403226666667,58.0,94.0
191,65.12857946666668,65.84448626666668,55.0,43.0
192,65.12857946666668,65.85963773333334,62.0,55.0
193,65.12857946666668,66.0452432,43.0,68.0
194,65.58312346666668,66.08690973333334,50.0,40.0
195,66.03766746666668,66.19297,55.0,79.0
196,66.03766746666668,66.20243966666668,58.0,97.0
197,66.94675546666667,67.90508573333334,60.0,66.0
198,66.94675546666667,67.93160080000001,63.0,73.0
199,67.40129946666667,68.00357026666667,55.0,44.0
200,66.94675546666667,68.14182740000001,48.0,84.0
201,67.85584346666667,68.408872,67.0,96.0
202,68.31038746666668,68.50735653333334,60.0,78.0
203,68.76493146666668,69.44674746666668,60.0,92.0
204,68.76493146666668,69.54333806666668,56.0,78.0
205,68.76493146666668,70.0906848,44.0,94.0
206,69.21947546666668,70.12288166666667,51.0,41.0
207,69.67401946666668,70.16454820000001,60.0,89.0
208,70.12856346666668,70.28954780000001,56.0,67.0
209,70.58310746666668,70.71757673333335,60.0,50.0
210,70.58310746666668,70.79522800000001,58.0,64.0
211,71.03765146666667,71.56227100000001,58.0,80.0
212,70.58310746666668,71.57174066666667,63.0,73.0
213,70.58310746666668,71.9486334,51.0,89.0
214,71.49219546666667,71.99598173333334,67.0,99.0
215,72.40128346666667,73.34446226666668,56.0,62.0
216,72.40128346666667,73.36529553333334,60.0,80.0
217,72.40128346666667,73.58309786666668,44.0,87.0
218,72.85582746666668,73.61340080000001,51.0,62.0
219,73.31037146666668,73.82741526666668,63.0,94.0
220,73.76491546666668,73.9031726,56.0,82.0
221,74.21945946666668,74.84824533333334,62.0,57.0
222,74.21945946666668,74.85392713333334,58.0,89.0
223,74.67400346666668,75.40127386666667,53.0,60.0
224,74.21945946666668,75.47892513333335,46.0,80.0
225,75.12854746666667,75.49407660000001,58.0,89.0
226,75.12854746666667,75.95998420000001,65.0,87.0
227,76.03763546666667,76.66073953333334,60.0,78.0
228,76.03763546666667,77.00732933333335,56.0,58.0
229,76.49217946666667,77.0792988,51.0,47.0
230,76.03763546666667,77.24028313333335,44.0,94.0
231,76.94672346666668,77.38990386666667,63.0,94.0
232,77.40126746666668,77.58119113333335,56.0,64.0
233,77.85581146666668,78.46376406666667,62.0,54.0
234,77.85581146666668,78.55088500000001,58.0,84.0
235,78.31035546666668,78.87095973333335,53.0,37.0
236,77.85581146666668,78.90505053333334,46.0,84.0
237,78.76489946666668,78.9713382,65.0,84.0
238,78.76489946666668,79.03951980000001,58.0,84.0
239,78.76489946666668,79.05467126666667,62.0,96.0
240,79.67398746666667,80.51868173333334,43.0,77.0
241,79.67398746666667,80.52246960000001,58.0,62.0
242,80.12853146666667,80.55277253333334,50.0,32.0
243,79.67398746666667,80.9599682,62.0,57.0
244,81.03761946666668,81.1872402,58.0,80.0
245,80.58307546666667,81.51489066666667,67.0,96.0
246,81.49216346666668,82.25731253333335,60.0,76.0
247,81.49216346666668,82.2611004,63.0,80.0
248,81.94670746666668,82.56602366666668,55.0,34.0
249,81.49216346666668,82.66829606666668,48.0,84.0
250,82.40125146666668,82.90124986666667,63.0,87.0
251,82.40125146666668,82.90693166666668,60.0,82.0
252,82.40125146666668,82.95428000000001,67.0,57.0
253,83.31033946666668,83.53571753333334,60.0,73.0
254,83.31033946666668,84.01677660000001,65.0,84.0
255,83.76488346666667,84.30654840000001,60.0,60.0
256,83.31033946666668,84.89177380000001,53.0,82.0
257,84.67397146666667,84.94859180000002,60.0,66.0
258,84.21942746666667,85.0508642,68.0,102.0
259,85.12851546666668,86.08305786666668,62.0,55.0
260,85.58305946666668,86.2383604,50.0,42.0
261,85.12851546666668,86.25161793333335,43.0,90.0
262,85.12851546666668,86.4997232,67.0,50.0
263,86.03760346666668,86.59820773333334,58.0,102.0
264,86.49214746666668,86.60957133333335,62.0,93.0
265,86.94669146666668,87.54517440000001,60.0,82.0
266,86.94669146666668,87.70426480000002,56.0,69.0
267,87.40123546666668,88.11146046666668,51.0,50.0
268,86.94669146666668,88.11714226666668,44.0,84.0
269,87.85577946666668,88.15880880000002,56.0,89.0
270,87.85577946666668,88.16070273333334,60.0,102.0
271,87.85577946666668,88.21183893333334,63.0,89.0
272,88.31032346666667,88.46373206666668,44.0,92.0
273,88.76486746666667,89.74592493333334,62.0,46.0
274,90.12849946666668,92.26485626666668,62.0,99.0
275,88.76486746666667,92.27053806666667,58.0,73.0
276,89.21941146666668,92.28000773333335,53.0,67.0
277,89.67395546666668,92.28947740000001,65.0,82.0
278,90.58304346666668,92.28947740000001,70.0,87.0
279,88.76486746666667,92.31220460000002,46.0,84.0
280,92.36712866666667,92.6758398,56.0,78.0
281,92.37091653333334,92.83493020000002,60.0,84.0
282,92.84439986666668,93.15689886666668,56.0,53.0
283,92.60387033333335,93.24780766666667,51.0,66.0
284,92.37470440000001,93.96560840000001,44.0,102.0
285,93.73454853333334,94.08682013333335,51.0,52.0
286,93.99022953333335,94.29136493333334,56.0,76.0
287,93.07356580000001,94.37280406666667,63.0,89.0
288,94.67204553333335,95.32166466666668,58.0,82.0
289,94.41825846666669,95.34249793333335,53.0,30.0
290,94.20045613333335,95.50727013333335,46.0,94.0
291,95.28567993333334,95.52431553333335,50.0,85.0
292,94.91446900000001,95.60007286666668,62.0,109.0
293,95.54325486666669,95.94666266666668,58.0,92.0
294,95.77431473333334,96.19287400000002,62.0,77.0
295,96.05272293333334,96.80840233333335,67.0,96.0
296,96.03757146666668,96.93150800000001,43.0,87.0
297,96.45613073333334,96.93150800000001,50.0,29.0
298,96.69097846666668,97.386052,62.0,85.0
299,97.13037100000001,97.41067313333335,58.0,82.0
300,97.59059680000001,97.69855100000001,58.0,64.0
301,97.386052,97.86521713333335,67.0,96.0
302,97.85195960000001,98.52998773333334,60.0,80.0
303,97.84059600000002,98.55650280000002,63.0,87.0
304,98.24021593333335,98.66256306666668,55.0,55.0
305,98.74779006666668,98.99021353333335,55.0,50.0
306,98.97316813333335,99.24589453333334,63.0,69.0
307,97.83870206666668,99.26104600000001,48.0,94.0
308,98.51862413333335,99.52051486666667,67.0,105.0
309,99.20422800000001,99.6189994,60.0,66.0
310,99.42203033333335,99.63415086666667,63.0,67.0
311,99.84248353333335,100.36899700000001,51.0,57.0
312,100.07354340000002,100.67392026666668,56.0,64.0
313,100.29892146666668,100.75914726666667,60.0,100.0
314,99.65119626666667,100.99020713333334,44.0,102.0
315,100.49778446666667,100.99588893333335,51.0,51.0
316,100.74778366666668,101.00914646666668,63.0,100.0
317,100.93528306666668,101.05081300000002,56.0,64.0
318,101.46558440000001,101.91444660000002,58.0,80.0
319,101.47316013333335,102.20043053333335,62.0,46.0
320,101.97315853333335,102.52239920000001,55.0,78.0
321,101.4599026,102.61330800000002,43.0,93.0
322,102.25724853333335,102.65497453333334,58.0,78.0
323,102.77239840000001,102.99588253333334,62.0,34.0
324,102.98830680000002,103.15118506666668,58.0,40.0
325,103.25345746666667,103.82353140000001,65.0,85.0
326,103.69095606666669,103.84057680000001,60.0,73.0
327,103.93906133333334,104.24777246666667,60.0,94.0
328,103.93337953333335,104.40875680000002,65.0,97.0
329,104.37087813333335,104.62087733333335,60.0,60.0
330,103.93148560000002,104.68716500000001,69.0,82.0
331,103.25345746666667,104.74208906666668,53.0,85.0
332,104.59436226666668,105.00723973333335,65.0,73.0
333,104.82921000000002,105.26481466666668,60.0,50.0
334,105.27428433333334,105.88791873333335,53.0,78.0
335,105.51670780000002,106.07163026666667,58.0,102.0
336,105.92579740000001,106.43337153333334,50.0,102.0
337,105.75723733333335,106.48261380000001,62.0,116.0
338,106.17579660000001,106.59624980000001,53.0,76.0
339,105.05080020000001,106.69284040000001,46.0,78.0
340,106.42768973333335,106.73829480000002,58.0,94.0
341,106.63981026666669,106.74965840000002,65.0,89.0
342,106.87655193333335,107.67768573333335,60.0,92.0
343,106.88223373333335,107.69094326666668,56.0,84.0
344,107.31026266666667,107.89738200000001,51.0,49.0
345,107.81594286666667,108.08109353333334,56.0,94.0
346,107.81026106666668,108.27616866666668,63.0,100.0
347,106.87655193333335,108.31783520000002,44.0,102.0
348,108.24018393333334,108.54889506666667,56.0,73.0
349,108.00723013333335,108.56972833333334,51.0,76.0
350,108.48071346666669,108.88601520000002,63.0,89.0
351,109.15305980000001,109.81404253333335,58.0,78.0
352,108.90116666666668,109.84055760000001,53.0,52.0
353,108.68715220000001,110.10381433333335,46.0,100.0
354,109.79510320000001,110.16820806666668,50.0,48.0
355,110.05457206666668,110.21934426666668,53.0,82.0
356,109.37465000000002,110.24775326666668,62.0,105.0
357,110.26101080000001,110.56214620000002,58.0,102.0
358,110.67199433333334,111.25532580000001,50.0,63.0
359,110.48828280000001,111.68524866666668,43.0,99.0
360,111.59623380000002,111.73638486666668,50.0,87.0
361,110.91441780000001,111.86706626666668,55.0,85.0
362,111.15305340000002,112.13979266666668,62.0,96.0
363,111.83865726666669,112.16820166666668,58.0,94.0
364,112.06024746666668,112.30267093333335,55.0,70.0
365,112.54888226666668,113.05077460000001,55.0,63.0
366,112.96744153333334,113.46933386666669,63.0,84.0
367,112.75153313333335,113.47122780000001,58.0,102.0
368,113.14925913333335,113.52047006666668,55.0,50.0
369,113.60380313333334,113.79509040000002,55.0,55.0
370,112.30645880000002,113.96365046666668,48.0,102.0
371,113.40494013333335,114.12084693333335,67.0,109.0
372,113.86516593333334,114.25531620000001,58.0,58.0
373,114.20607393333334,114.47501246666668,60.0,87.0
374,114.66440580000001,114.88410206666669,60.0,40.0
375,114.20986180000001,114.90493533333334,65.0,89.0
376,114.88788993333335,115.37652473333335,68.0,102.0
377,115.35000966666668,115.59811493333335,65.0,92.0
378,114.21175573333335,115.64167540000001,53.0,92.0
379,115.80455366666668,116.04697713333334,65.0,82.0
380,115.58106953333335,116.07538613333335,60.0,73.0
381,116.48068786666668,116.92955006666668,56.0,60.0
382,116.71174773333335,117.18333713333335,60.0,102.0
383,116.03750746666668,117.46742713333335,44.0,78.0
384,117.17197353333334,117.48257860000001,63.0,111.0
385,116.25341586666669,117.68901733333335,51.0,55.0
386,117.39735160000002,117.74394140000001,56.0,69.0
387,117.63788113333335,117.95227406666667,60.0,78.0
388,118.26856093333335,118.61704466666669,58.0,78.0
389,118.04507680000002,118.70416560000001,53.0,73.0
390,118.49583293333335,119.09242193333336,62.0,109.0
391,118.67196873333334,119.50719333333335,50.0,61.0
392,119.13787633333335,119.51287513333335,58.0,97.0
393,119.38219373333335,119.52613266666668,62.0,102.0
394,117.85568346666668,119.53560233333334,46.0,105.0
395,118.91818006666668,119.53939020000001,53.0,82.0
396,119.64545046666669,120.14923673333335,58.0,94.0
397,119.63219293333334,120.20984260000002,62.0,82.0
398,119.64545046666669,120.43711460000002,65.0,94.0
399,120.34620580000002,120.45794786666669,58.0,49.0
400,120.09431266666668,120.67385626666669,53.0,73.0
401,120.56400813333335,121.07726406666669,58.0,105.0
402,120.56022026666668,121.20415760000002,70.0,94.0
403,119.63598080000001,121.27044526666668,46.0,102.0
404,120.56022026666668,121.30832393333336,62.0,109.0
405,120.56022026666668,121.30832393333336,65.0,97.0
406,121.00340066666668,121.34999046666668,53.0,80.0
407,121.24393020000002,121.37839946666668,58.0,97.0
408,121.49014153333334,121.79695873333335,56.0,78.0
409,121.49203546666668,121.95604913333335,60.0,84.0
410,121.96551880000001,122.27991173333335,56.0,53.0
411,121.72688320000002,122.36892660000001,51.0,66.0
412,121.49582333333335,123.08672733333334,44.0,102.0
413,122.85756140000002,123.20983300000002,51.0,52.0
414,123.11134846666668,123.41437780000001,56.0,76.0
415,122.19657866666668,123.49392300000001,63.0,89.0
416,123.79505840000002,124.44278360000001,58.0,82.0
417,123.53937740000002,124.46361686666668,53.0,30.0
418,123.32157506666668,124.62838906666668,46.0,94.0
419,124.40869280000001,124.64732840000002,50.0,85.0
420,124.03748186666668,124.72119180000001,62.0,109.0
421,124.66437380000002,125.06967553333335,58.0,92.0
422,124.89543366666668,125.31399293333335,62.0,77.0
423,125.17384186666668,125.93141520000002,67.0,96.0
424,125.15869040000001,126.05452086666668,43.0,87.0
425,125.57914360000002,126.05452086666668,50.0,29.0
426,125.81209740000001,126.50906486666668,62.0,85.0
427,126.25148993333335,126.53179206666668,58.0,82.0
428,126.71360966666668,126.81966993333334,58.0,64.0
429,126.50717093333336,126.98823000000002,67.0,96.0
430,126.97307853333335,127.65110666666668,60.0,80.0
431,126.96360886666669,127.67951566666669,63.0,87.0
432,127.36322880000002,127.78368200000001,55.0,55.0
433,127.86890900000002,128.11322640000003,55.0,50.0
434,128.09618100000003,128.3670134666667,63.0,69.0
435,126.95982100000002,128.38216493333334,48.0,94.0
436,127.64163700000002,128.64352773333334,67.0,105.0
437,128.32724086666667,128.74011833333336,60.0,66.0
438,128.5450432,128.75716373333336,63.0,67.0
439,128.9654964,129.49200986666668,51.0,57.0
440,129.19655626666668,129.79503920000002,56.0,64.0
441,129.42193433333335,129.88216013333334,60.0,100.0
442,128.75716373333336,130.11322,44.0,102.0
443,129.61890340000002,130.1189018,51.0,51.0
444,129.84049360000003,130.1302654,63.0,100.0
445,130.05640200000002,130.17193193333335,56.0,64.0
446,130.57344580000003,131.0374594666667,58.0,80.0
447,130.54693073333334,131.32154946666668,62.0,46.0
448,130.56397613333334,131.73442693333334,43.0,93.0
449,130.97874753333335,131.74010873333336,50.0,52.0
450,131.22685280000002,131.77609346666668,58.0,78.0
451,131.89351733333336,132.1170014666667,62.0,34.0
452,131.69086646666668,132.19654666666668,67.0,109.0
453,132.10942573333335,132.27419793333334,58.0,40.0
454,132.37647033333334,132.94465033333336,65.0,100.0
455,132.81396893333334,132.96169573333336,60.0,73.0
456,133.0620742,133.36889140000002,60.0,94.0
457,133.05639240000002,133.52987573333334,65.0,97.0
458,133.49199706666667,133.7438902,60.0,60.0
459,133.05260453333335,133.80828393333334,69.0,82.0
460,132.37647033333334,133.86510193333336,53.0,105.0
461,133.71737513333335,134.1302526,65.0,73.0
462,133.95032893333334,134.38593360000002,60.0,50.0
463,134.39729720000003,135.00903766666667,53.0,78.0
464,134.63972066666668,135.1927492,58.0,102.0
465,135.0488102666667,135.5544904666667,50.0,102.0
466,134.87835626666669,135.6056266666667,62.0,116.0
467,135.29691553333336,135.71926266666668,53.0,76.0
468,134.17191913333335,135.81395933333334,46.0,78.0
469,135.55070260000002,135.85941373333335,58.0,94.0
470,135.76092920000002,135.87077733333336,65.0,89.0
471,135.99767086666668,136.8006986,60.0,92.0
472,136.00335266666667,136.81395613333336,56.0,84.0
473,136.4313816,137.01850093333334,51.0,49.0
474,136.9370618,137.20410640000003,56.0,94.0
475,136.93138000000002,137.39728760000003,63.0,100.0
476,135.99767086666668,137.43895413333334,44.0,102.0
477,137.36319680000003,137.670014,56.0,73.0
478,137.1283490666667,137.69084726666668,51.0,76.0
479,137.6018324,138.00902806666667,63.0,89.0
480,138.2760726666667,138.93705540000002,58.0,78.0
481,138.02228560000003,138.96357046666668,53.0,52.0
482,137.80827113333336,139.22682720000003,46.0,100.0
483,138.91622213333335,139.28932700000001,50.0,48.0
484,139.17569100000003,139.34046320000002,53.0,82.0
485,138.49766286666667,139.37076613333335,62.0,105.0
486,139.38402366666668,139.68515906666667,58.0,102.0
487,139.7931132666667,140.37644473333336,50.0,63.0
488,139.61129566666668,140.80636760000002,43.0,99.0
489,140.71735273333334,140.85750380000002,50.0,87.0
490,140.03553673333334,140.99007913333335,55.0,85.0
491,140.27417233333335,141.26280553333336,62.0,96.0
492,140.95977620000002,141.28932060000002,58.0,94.0
493,141.18136640000003,141.42378986666668,55.0,70.0
494,141.67000120000003,142.17189353333336,55.0,63.0
495,142.08856046666668,142.5904528,63.0,84.0
496,141.8726520666667,142.59424066666668,58.0,102.0
497,142.27227200000002,142.641589,55.0,50.0
498,142.726816,142.9181032666667,55.0,55.0
499,141.42757773333335,143.08476940000003,48.0,102.0
500,142.52605906666668,143.24385980000002,67.0,109.0
501,142.9862848666667,143.37643513333336,58.0,58.0
502,143.31393533333335,143.59044960000003,56.0,71.0
503,143.3063596,143.73060066666667,60.0,80.0
504,143.77226720000002,144.3783258666667,56.0,48.0
505,143.31014746666668,144.45029533333334,44.0,89.0
506,143.97302413333335,144.45976500000003,63.0,92.0
507,143.5317376666667,144.53362840000003,51.0,69.0
508,144.41052273333335,144.73627926666668,68.0,100.0
509,144.63968866666667,144.9578694666667,56.0,45.0
510,144.86127886666668,145.14158100000003,63.0,80.0
511,145.5317312666667,145.8442302666667,58.0,80.0
512,145.28173206666668,145.95597233333336,53.0,80.0
513,145.7646850666667,146.3555922666667,62.0,105.0
514,145.97491166666669,146.36316800000003,50.0,16.0
515,145.07339940000003,146.60937933333335,46.0,94.0
516,146.18703220000003,146.6851366666667,53.0,82.0
517,146.40483453333334,146.72112140000002,58.0,97.0
518,146.92377226666667,147.15862,58.0,100.0
519,146.92377226666667,147.52414913333334,63.0,89.0
520,147.36505873333334,147.5771792666667,58.0,47.0
521,147.613164,148.2267984,67.0,105.0
522,148.0601322666667,148.41808566666668,58.0,78.0
523,148.2760406666667,148.4881612,63.0,67.0
524,146.9294540666667,148.5714942666667,51.0,89.0
525,148.4862672666667,148.78740266666668,65.0,92.0
526,148.7249028666667,149.2381588,63.0,94.0
527,149.18512866666669,149.45406720000003,58.0,40.0
528,150.1396710666667,150.42754893333336,58.0,20.0
529,149.61126366666667,150.4427004,67.0,87.0
530,148.70406960000003,150.4597458,51.0,71.0
531,150.58285146666668,151.21542520000003,63.0,62.0
532,150.58285146666668,151.58284826666667,67.0,38.0
533,151.49193946666668,151.81012026666667,63.0,94.0
534,151.03739546666668,152.13208893333336,58.0,76.0
535,150.58285146666668,152.64913273333335,51.0,97.0
536,151.94648346666668,153.52981173333336,67.0,68.0
537,151.94648346666668,153.59231153333334,63.0,82.0
538,154.2192034666667,155.08094313333336,63.0,78.0
539,154.2192034666667,155.08662493333335,60.0,67.0
540,155.1282914666667,155.1529126,63.0,8.0
541,154.6737474666667,155.47677520000002,55.0,41.0
542,155.1282914666667,155.85556186666668,60.0,92.0
543,156.0373794666667,156.91805846666668,67.0,42.0
544,155.5828354666667,156.95025533333336,55.0,42.0
545,156.0373794666667,156.9654068,60.0,69.0
546,154.2192034666667,157.11123966666668,48.0,78.0
547,157.8555554666667,158.43888693333335,56.0,58.0
548,157.8555554666667,158.85744620000003,63.0,76.0
549,158.31009946666668,159.39342933333336,51.0,48.0
550,158.76464346666668,159.74948880000002,56.0,87.0
551,160.12827546666668,160.2419114666667,56.0,18.0
552,159.21918746666668,160.28736586666668,63.0,46.0
553,159.67373146666668,160.73622806666668,51.0,53.0
554,157.8555554666667,160.84607620000003,44.0,92.0
555,160.58281946666668,160.94456073333336,56.0,80.0
556,160.58281946666668,161.02978773333336,60.0,84.0
557,161.03736346666668,161.35175640000003,51.0,57.0
558,161.49190746666667,162.0430420666667,58.0,82.0
559,161.9464514666667,162.442662,53.0,51.0
560,161.49190746666667,162.6509946666667,62.0,85.0
561,162.8555394666667,163.30629560000003,53.0,87.0
562,161.49190746666667,163.58091593333336,46.0,97.0
563,162.4009954666667,164.03924780000003,58.0,82.0
564,163.7646274666667,164.33280746666668,53.0,42.0
565,163.3100834666667,164.33470140000003,70.0,87.0
566,164.2191714666667,164.55060980000002,58.0,71.0
567,164.2191714666667,164.58091273333335,62.0,41.0
568,165.1282594666667,166.1339380666667,67.0,57.0
569,165.5828034666667,166.2475740666667,58.0,73.0
570,165.1282594666667,166.62446680000002,63.0,60.0
571,166.0373474666667,166.89719320000003,65.0,87.0
572,166.4918914666667,167.2191618666667,58.0,69.0
573,166.94643546666668,167.62067573333334,63.0,71.0
574,166.94643546666668,167.71916026666668,70.0,92.0
575,165.1282594666667,168.10741660000002,51.0,94.0
576,167.40097946666668,168.19074966666668,58.0,50.0
577,167.85552346666668,168.21158293333335,63.0,82.0
578,167.85552346666668,168.22294653333336,67.0,90.0
579,168.76461146666668,169.32521573333335,63.0,73.0
580,169.21915546666668,169.7551386,60.0,73.0
581,168.76461146666668,169.81195660000003,68.0,80.0
582,168.76461146666668,170.4350606666667,53.0,89.0
583,171.4918754666667,171.66232946666668,60.0,89.0
584,169.67369946666668,171.72104140000002,63.0,89.0
585,171.4918754666667,171.77407153333337,53.0,80.0
586,170.5827874666667,171.93884373333336,72.0,84.0
587,170.1282434666667,172.07899480000003,68.0,78.0
588,172.4009634666667,173.3441422666667,62.0,41.0
589,172.8555074666667,173.40285420000004,53.0,57.0
590,172.4009634666667,173.5032326666667,46.0,94.0
591,172.4009634666667,173.92179193333337,58.0,71.0
592,173.3100514666667,174.01648860000003,65.0,89.0
593,173.7645954666667,174.47103260000003,53.0,47.0
594,174.2191394666667,174.95587953333336,62.0,65.0
595,174.2191394666667,174.96724313333337,58.0,80.0
596,174.6736834666667,175.3839084666667,53.0,57.0
597,175.1282274666667,175.5202716666667,58.0,87.0
598,175.1282274666667,175.52405953333334,62.0,79.0
599,175.1282274666667,175.55625640000002,65.0,89.0
600,173.7645954666667,175.6452712666667,46.0,36.0
601,175.58277146666669,175.75133153333334,53.0,60.0
602,174.2191394666667,176.04489120000002,70.0,92.0
603,176.49185946666668,177.04678193333336,58.0,69.0
604,176.03731546666668,177.05814553333335,63.0,73.0
605,176.94640346666668,177.64715880000003,65.0,80.0
606,177.85549146666668,179.33465340000004,63.0,66.0
607,177.85549146666668,179.34033520000003,67.0,52.0
608,177.40094746666668,179.48427413333334,58.0,52.0
609,176.03731546666668,179.53919820000002,51.0,80.0
610,180.1282114666667,180.73237620000003,58.0,62.0
611,179.6736674666667,180.90472413333336,67.0,61.0
612,179.6736674666667,180.9463906666667,63.0,73.0
613,180.5827554666667,181.15472333333335,65.0,92.0
614,181.0372994666667,181.6452520666667,58.0,51.0
615,181.4918434666667,182.0486598666667,70.0,92.0
616,181.4918434666667,182.11494753333335,63.0,73.0
617,182.4009314666667,182.5770672666667,67.0,87.0
618,182.4009314666667,182.60168840000003,63.0,87.0
619,179.6736674666667,182.60737020000002,51.0,92.0
620,181.9463874666667,182.6566124666667,58.0,51.0
621,183.3100194666667,183.85547226666668,58.0,94.0
622,183.3100194666667,184.0259262666667,55.0,43.0
623,183.3100194666667,184.04107773333337,62.0,55.0
624,183.3100194666667,184.22668320000002,43.0,68.0
625,183.7645634666667,184.26834973333337,50.0,40.0
626,184.21910746666669,184.37441,55.0,79.0
627,184.21910746666669,184.3838796666667,58.0,97.0
628,185.12819546666668,186.08652573333336,60.0,66.0
629,185.12819546666668,186.11304080000002,63.0,73.0
630,185.58273946666668,186.1850102666667,55.0,44.0
631,185.12819546666668,186.32326740000002,48.0,84.0
632,186.03728346666668,186.590312,67.0,96.0
633,186.49182746666668,186.68879653333335,60.0,78.0
634,186.9463714666667,187.6281874666667,60.0,92.0
635,186.9463714666667,187.7247780666667,56.0,78.0
636,186.9463714666667,188.27212480000003,44.0,94.0
637,187.4009154666667,188.30432166666668,51.0,41.0
638,187.8554594666667,188.34598820000002,60.0,89.0
639,188.3100034666667,188.47098780000002,56.0,67.0
640,188.7645474666667,188.89901673333335,60.0,50.0
641,188.7645474666667,188.97666800000002,58.0,64.0
642,189.2190914666667,189.74371100000002,58.0,80.0
643,188.7645474666667,189.75318066666668,63.0,73.0
644,188.7645474666667,190.13007340000001,51.0,89.0
645,189.6736354666667,190.17742173333335,67.0,99.0
646,190.5827234666667,191.5259022666667,56.0,62.0
647,190.5827234666667,191.54673553333336,60.0,80.0
648,190.5827234666667,191.7645378666667,44.0,87.0
649,191.0372674666667,191.79484080000003,51.0,62.0
650,191.4918114666667,192.0088552666667,63.0,94.0
651,191.9463554666667,192.0846126,56.0,82.0
652,192.4008994666667,193.02968533333336,62.0,57.0
653,192.4008994666667,193.03536713333335,58.0,89.0
654,192.85544346666669,193.5827138666667,53.0,60.0
655,192.4008994666667,193.66036513333336,46.0,80.0
656,193.30998746666668,193.67551660000004,58.0,89.0
657,193.30998746666668,194.14142420000002,65.0,87.0
658,194.21907546666668,194.84217953333336,60.0,78.0
659,194.21907546666668,195.18876933333337,56.0,58.0
660,194.67361946666668,195.2607388,51.0,47.0
661,194.21907546666668,195.42172313333336,44.0,94.0
662,195.1281634666667,195.5713438666667,63.0,94.0
663,195.5827074666667,195.76263113333337,56.0,64.0
664,196.0372514666667,196.64520406666668,62.0,54.0
665,196.0372514666667,196.73232500000003,58.0,84.0
666,196.4917954666667,197.05239973333335,53.0,37.0
667,196.0372514666667,197.08649053333335,46.0,84.0
668,196.9463394666667,197.15277820000003,65.0,84.0
669,196.9463394666667,197.22095980000003,58.0,84.0
670,196.9463394666667,197.23611126666668,62.0,96.0
671,197.8554274666667,198.70012173333336,43.0,77.0
672,197.8554274666667,198.70390960000003,58.0,62.0
673,198.3099714666667,198.73421253333336,50.0,32.0
674,197.8554274666667,199.14140820000003,62.0,57.0
675,199.2190594666667,199.36868020000003,58.0,80.0
676,198.7645154666667,199.69633066666668,67.0,96.0
677,199.6736034666667,200.43875253333337,60.0,76.0
678,199.6736034666667,200.4425404,63.0,80.0
679,200.1281474666667,200.7474636666667,55.0,34.0
680,199.6736034666667,200.84973606666668,48.0,84.0
681,200.5826914666667,201.0826898666667,63.0,87.0
682,200.5826914666667,201.0883716666667,60.0,82.0
683,200.5826914666667,201.13572000000002,67.0,57.0
684,201.49177946666669,201.71715753333336,60.0,73.0
685,201.49177946666669,202.19821660000002,65.0,84.0
686,201.94632346666668,202.48798840000003,60.0,60.0
687,201.49177946666669,203.07321380000002,53.0,82.0
688,202.85541146666668,203.13003180000004,60.0,66.0
689,202.40086746666668,203.23230420000002,68.0,102.0
690,203.30995546666668,204.2644978666667,62.0,55.0
691,203.7644994666667,204.4198004,50.0,42.0
692,203.30995546666668,204.43305793333337,43.0,90.0
693,203.30995546666668,204.68116320000001,67.0,50.0
694,204.2190434666667,204.77964773333335,58.0,102.0
695,204.6735874666667,204.79101133333336,62.0,93.0
696,205.1281314666667,205.72661440000002,60.0,82.0
697,205.1281314666667,205.8857048,56.0,69.0
698,205.5826754666667,206.29290046666668,51.0,50.0
699,205.1281314666667,206.2985822666667,44.0,84.0
700,206.0372194666667,206.34024880000004,56.0,89.0
701,206.0372194666667,206.34214273333336,60.0,102.0
702,206.0372194666667,206.39327893333336,63.0,89.0
703,206.4917634666667,206.6451720666667,44.0,92.0
704,206.9463074666667,207.92736493333337,62.0,46.0
705,208.3099394666667,210.4462962666667,62.0,99.0
706,206.9463074666667,210.4519780666667,58.0,73.0
707,207.4008514666667,210.46144773333336,53.0,67.0
708,207.8553954666667,210.47091740000002,65.0,82.0
709,208.7644834666667,210.47091740000002,70.0,87.0
710,206.9463074666667,210.49364460000004,46.0,84.0
711,210.54478080000004,210.85159800000002,56.0,78.0
712,210.54667473333336,211.01068840000002,60.0,84.0
713,211.02015806666668,211.33265706666668,56.0,53.0
714,210.77962853333335,211.4235658666667,51.0,66.0
715,210.55046260000003,212.14136660000003,44.0,102.0
716,211.91030673333336,212.26257833333335,51.0,52.0
717,212.16598773333337,212.46712313333336,56.0,76.0
718,211.24932400000003,212.5485622666667,63.0,89.0
719,212.84780373333336,213.49742286666668,58.0,82.0
720,212.5940166666667,213.51825613333335,53.0,30.0
721,212.37621433333337,213.68302833333337,46.0,94.0
722,213.46143813333336,213.70007373333337,50.0,85.0
723,213.09022720000002,213.77583106666668,62.0,109.0
724,213.7190130666667,214.1224208666667,58.0,92.0
725,213.95007293333336,214.36863220000004,62.0,77.0
726,214.22848113333336,214.98416053333335,67.0,96.0
727,214.21332966666668,215.10726620000003,43.0,87.0
728,214.63188893333336,215.10726620000003,50.0,29.0
729,214.8667366666667,215.56181020000002,62.0,85.0
730,215.30612920000002,215.58643133333337,58.0,82.0
731,215.76635500000003,215.87430920000003,58.0,64.0
732,215.56181020000002,216.04097533333336,67.0,96.0
733,216.02771780000003,216.70574593333336,60.0,80.0
734,216.01824813333337,216.73226100000002,63.0,87.0
735,216.41597413333335,216.8383212666667,55.0,55.0
736,216.9235482666667,217.1678656666667,55.0,50.0
737,217.14892633333335,217.42165273333336,63.0,69.0
738,216.0144602666667,217.43680420000004,48.0,94.0
739,216.69438233333335,217.6962730666667,67.0,105.0
740,217.37998620000002,217.79475760000003,60.0,66.0
741,217.5996824666667,217.8099090666667,63.0,67.0
742,218.01824173333335,218.54664913333337,51.0,57.0
743,218.25119553333337,218.8496784666667,56.0,64.0
744,218.47657360000002,218.93679940000004,60.0,100.0
745,217.8099090666667,219.16596533333336,44.0,102.0
746,218.6735426666667,219.17164713333335,51.0,51.0
747,218.8951328666667,219.18490466666668,63.0,100.0
748,219.1110412666667,219.22657120000002,56.0,64.0
749,219.6280850666667,220.09209873333336,58.0,80.0
750,219.60157000000004,220.37618873333335,62.0,46.0
751,219.61861540000004,220.78906620000004,43.0,93.0
752,220.0314928666667,220.79474800000003,50.0,52.0
753,220.2814920666667,220.83073273333335,58.0,78.0
754,220.94815660000003,221.17164073333336,62.0,34.0
755,220.74550573333337,221.24929200000003,67.0,109.0
756,221.16406500000002,221.3269432666667,58.0,40.0
757,221.4292156666667,221.99928960000003,65.0,100.0
758,221.8667142666667,222.01633500000003,60.0,73.0
759,222.11481953333336,222.4235306666667,60.0,94.0
760,222.10913773333337,222.58451500000004,65.0,97.0
761,222.54663633333337,222.79663553333336,60.0,60.0
762,222.10724380000002,222.86292320000004,69.0,82.0
763,221.4292156666667,222.91974120000003,53.0,105.0
764,222.7701204666667,223.18299793333335,65.0,73.0
765,223.00496820000004,223.44057286666668,60.0,50.0
766,223.45004253333337,224.06367693333337,53.0,78.0
767,223.69246600000002,224.2473884666667,58.0,102.0
768,224.10155560000004,224.60912973333336,50.0,102.0
769,223.93299553333335,224.65837200000004,62.0,116.0
770,224.35155480000003,224.77200800000003,53.0,76.0
771,223.22655840000002,224.86859860000004,46.0,78.0
772,224.60344793333337,224.91405300000002,58.0,94.0
773,224.8155684666667,224.92541660000003,65.0,89.0
774,225.05231013333335,225.85344393333335,60.0,92.0
775,225.05799193333337,225.86670146666668,56.0,84.0
776,225.4860208666667,226.07314020000004,51.0,49.0
777,225.9917010666667,226.25685173333335,56.0,94.0
778,225.9860192666667,226.4519268666667,63.0,100.0
779,225.05231013333335,226.49359340000004,44.0,102.0
780,226.41594213333337,226.7246532666667,56.0,73.0
781,226.18298833333336,226.74548653333335,51.0,76.0
782,226.6564716666667,227.06177340000002,63.0,89.0
783,227.32881800000004,227.98980073333337,58.0,78.0
784,227.0769248666667,228.01820973333335,53.0,52.0
785,226.86291040000003,228.2814664666667,46.0,100.0
786,227.97086140000002,228.34396626666668,50.0,48.0
787,228.2303302666667,228.39510246666669,53.0,82.0
788,227.55040820000002,228.4235114666667,62.0,105.0
789,228.43676900000003,228.73790440000002,58.0,102.0
790,228.84775253333336,229.43108400000003,50.0,63.0
791,228.66404100000003,229.86100686666668,43.0,99.0
792,229.77199200000004,229.9121430666667,50.0,87.0
793,229.09017600000004,230.0428244666667,55.0,85.0
794,229.32881160000002,230.31555086666668,62.0,96.0
795,230.0144154666667,230.3439598666667,58.0,94.0
796,230.2360056666667,230.47842913333335,55.0,70.0
797,230.7246404666667,231.22653280000003,55.0,63.0
798,231.14319973333338,231.6450920666667,63.0,84.0
799,230.92729133333336,231.64887993333338,58.0,102.0
800,231.32501733333336,231.6962282666667,55.0,50.0
801,231.77956133333336,231.97084860000004,55.0,55.0
802,230.48221700000002,232.1394086666667,48.0,102.0
803,231.58069833333337,232.29660513333337,67.0,109.0
804,232.04092413333336,232.43107440000003,58.0,58.0
805,232.38183213333338,232.6507706666667,60.0,87.0
806,232.84016400000004,233.0598602666667,60.0,40.0
807,232.38562000000002,233.0825874666667,65.0,89.0
808,233.06364813333337,233.55228293333337,68.0,102.0
809,233.52576786666668,233.77387313333335,65.0,92.0
810,232.38751393333337,233.81743360000004,53.0,92.0
811,233.9803118666667,234.22273533333336,65.0,82.0
812,233.75682773333335,234.2530382666667,60.0,73.0
813,234.6564460666667,235.1053082666667,56.0,60.0
814,234.8893998666667,235.35909533333336,60.0,102.0
815,234.2132656666667,235.64318533333338,44.0,78.0
816,235.34773173333338,235.65833680000003,63.0,111.0
817,234.4291740666667,235.86477553333336,51.0,55.0
818,235.57310980000003,235.91969960000003,56.0,69.0
819,235.81363933333336,236.1280322666667,60.0,78.0
820,236.44431913333335,236.7928028666667,58.0,78.0
821,236.22083500000002,236.87992380000003,53.0,73.0
822,236.67159113333335,237.2700740666667,62.0,109.0
823,236.84772693333338,237.68295153333335,50.0,61.0
824,237.31363453333336,237.68863333333337,58.0,97.0
825,237.55795193333336,237.7018908666667,62.0,102.0
826,236.0314416666667,237.71136053333336,46.0,105.0
827,237.0939382666667,237.71514840000003,53.0,82.0
828,237.8212086666667,238.32499493333336,58.0,94.0
829,237.80795113333338,238.38560080000002,62.0,82.0
830,237.8212086666667,238.61287280000002,65.0,94.0
831,238.52196400000003,238.6337060666667,58.0,49.0
832,238.27007086666669,238.8496144666667,53.0,73.0
833,238.73976633333336,239.2530222666667,58.0,105.0
834,238.7359784666667,239.37991580000002,70.0,94.0
835,237.81363293333337,239.4462034666667,46.0,102.0
836,238.7359784666667,239.48408213333337,62.0,109.0
837,238.7359784666667,239.48408213333337,65.0,97.0
838,239.1791588666667,239.5257486666667,53.0,80.0
839,239.41968840000004,239.5541576666667,58.0,97.0
840,239.66589973333336,239.97271693333337,56.0,78.0
841,239.66968760000003,240.13180733333337,60.0,84.0
842,240.14127700000003,240.45566993333335,56.0,53.0
843,239.90264140000002,240.54468480000003,51.0,66.0
844,239.67158153333335,241.26248553333338,44.0,102.0
845,241.03331960000003,241.38559120000002,51.0,52.0
846,241.28900060000004,241.59013600000003,56.0,76.0
847,240.3723368666667,241.66968120000004,63.0,89.0
848,241.97081660000003,242.61854180000003,58.0,82.0
849,241.71702953333337,242.6393750666667,53.0,30.0
850,241.4973332666667,242.8041472666667,46.0,94.0
851,242.58445100000003,242.82308660000004,50.0,85.0
852,242.21324006666669,242.89695000000003,62.0,109.0
853,242.84013200000004,243.24543373333336,58.0,92.0
854,243.0711918666667,243.48975113333336,62.0,77.0
855,243.3496000666667,244.10717340000002,67.0,96.0
856,243.33634253333335,244.2302790666667,43.0,87.0
857,243.75490180000003,244.2302790666667,50.0,29.0
858,243.98785560000005,244.6848230666667,62.0,85.0
859,244.42724813333336,244.70944420000004,58.0,82.0
860,244.8893678666667,244.99542813333338,58.0,64.0
861,244.68292913333337,245.16398820000003,67.0,96.0
862,245.14883673333335,245.82875880000003,60.0,80.0
863,245.1393670666667,245.8552738666667,63.0,87.0
864,245.53898700000002,245.95944020000005,55.0,55.0
865,246.04466720000002,246.28898460000002,55.0,50.0
866,246.27193920000002,246.5427716666667,63.0,69.0
867,245.13557920000002,246.55792313333336,48.0,94.0
868,245.81739520000002,246.81928593333336,67.0,105.0
869,246.5029990666667,246.91587653333337,60.0,66.0
870,246.72080140000003,246.93292193333338,63.0,67.0
871,247.14125460000002,247.6677680666667,51.0,57.0
872,247.3723144666667,247.97079740000004,56.0,64.0
873,247.59769253333337,248.05791833333336,60.0,100.0
874,246.93292193333338,248.28897820000003,44.0,102.0
875,247.79466160000004,248.29466000000002,51.0,51.0
876,248.01625180000002,248.30602360000003,63.0,100.0
877,248.23216020000004,248.34769013333337,56.0,64.0
878,248.74920400000002,249.2132176666667,58.0,80.0
879,248.72268893333336,249.4973076666667,62.0,46.0
880,248.73973433333336,249.91018513333336,43.0,93.0
881,249.15450573333337,249.91586693333338,50.0,52.0
882,249.40450493333336,249.9518516666667,58.0,78.0
883,250.06927553333335,250.29465360000003,62.0,34.0
884,249.8666246666667,250.3723048666667,67.0,109.0
885,250.28518393333337,250.44995613333336,58.0,40.0
886,250.55222853333336,251.12040853333338,65.0,100.0
887,250.98972713333336,251.13745393333338,60.0,73.0
888,251.23783240000003,251.54464960000004,60.0,94.0
889,251.23215060000004,251.7075278666667,65.0,97.0
890,251.6677552666667,251.91964840000003,60.0,60.0
891,251.22836273333337,251.98404213333336,69.0,82.0
892,250.55222853333336,252.04086013333335,53.0,105.0
893,251.89313333333337,252.30601080000002,65.0,73.0
894,252.12608713333336,252.56358573333335,60.0,50.0
895,252.57305540000004,253.1847958666667,53.0,78.0
896,252.8154788666667,253.36850740000003,58.0,102.0
897,253.2245684666667,253.7302486666667,50.0,102.0
898,253.0541144666667,253.7813848666667,62.0,116.0
899,253.47267373333338,253.8950208666667,53.0,76.0
900,252.34767733333337,253.98971753333336,46.0,78.0
901,253.72646080000004,254.03517193333337,58.0,94.0
902,253.93668740000004,254.04653553333335,65.0,89.0
903,254.1734290666667,254.97645680000002,60.0,92.0
904,254.1791108666667,254.98971433333335,56.0,84.0
905,254.60713980000003,255.19425913333336,51.0,49.0
906,255.11282000000003,255.37986460000005,56.0,94.0
907,255.10713820000004,255.57304580000005,63.0,100.0
908,254.1734290666667,255.6166062666667,44.0,102.0
909,255.53895500000004,255.84577220000003,56.0,73.0
910,255.30600120000003,255.8666054666667,51.0,76.0
911,255.77759060000002,256.1847862666667,63.0,89.0
912,256.4518308666667,257.11281360000004,58.0,78.0
913,256.19804380000005,257.1393286666667,53.0,52.0
914,255.98402933333335,257.4025854,46.0,100.0
915,257.09198033333337,257.46508520000003,50.0,48.0
916,257.35334313333334,257.5162214,53.0,82.0
917,256.6734210666667,257.54652433333337,62.0,105.0
918,257.5597818666667,257.8609172666667,58.0,102.0
919,257.9688714666667,258.5522029333334,50.0,63.0
920,257.7870538666667,258.9821258,43.0,99.0
921,258.8931109333334,259.03326200000004,50.0,87.0
922,258.21129493333336,259.16583733333334,55.0,85.0
923,258.4518244666667,259.43856373333335,62.0,96.0
924,259.1374283333334,259.4650788,58.0,94.0
925,259.3571246,259.5995480666667,55.0,70.0
926,259.8457594,260.34765173333335,55.0,63.0
927,260.2643186666667,260.76621100000006,63.0,84.0
928,260.0503042,260.7699988666667,58.0,102.0
929,260.44803020000006,260.81734720000003,55.0,50.0
930,260.90257420000006,261.0938614666667,55.0,55.0
931,259.60333593333337,261.26052760000005,48.0,102.0
932,260.7018172666667,261.419618,67.0,109.0
933,261.1620430666667,261.5540872666667,58.0,58.0
934,261.48969353333337,261.7662078,56.0,71.0
935,261.4840117333334,261.9082528,60.0,80.0
936,261.9480254,262.5540840666667,56.0,48.0
937,261.4859056666667,262.6260535333334,44.0,89.0
938,262.1487823333334,262.6355232,63.0,92.0
939,261.70938980000005,262.7093866,51.0,69.0
940,262.58628093333334,262.9139314,68.0,100.0
941,262.8154468666667,263.1336276666667,56.0,45.0
942,263.0370370666667,263.31733920000005,63.0,80.0
943,263.7074894666667,264.0199884666667,58.0,80.0
944,263.45938420000004,264.1317305333334,53.0,80.0
945,263.9404432666667,264.53324440000006,62.0,105.0
946,264.1506698666667,264.53892620000005,50.0,16.0
947,263.24915760000005,264.78513753333334,46.0,94.0
948,264.36279040000005,264.8608948666667,53.0,82.0
949,264.5805927333334,264.89687960000003,58.0,97.0
950,265.0995304666667,265.33437820000006,58.0,100.0
951,265.0995304666667,265.6999073333334,63.0,89.0
952,265.54081693333336,265.7529374666667,58.0,47.0
953,265.78892220000006,266.4025566,67.0,105.0
954,266.2358904666667,266.5938438666667,58.0,78.0
955,266.4517988666667,266.66391940000005,63.0,67.0
956,265.1052122666667,266.7472524666667,51.0,89.0
957,266.6620254666667,266.9631608666667,65.0,92.0
958,266.9006610666667,267.413917,63.0,94.0
959,267.3608868666667,267.6298254,58.0,40.0
960,268.31732320000003,268.6033071333334,58.0,20.0
961,267.7870218666667,268.61845860000005,67.0,87.0
962,266.87982780000004,268.635504,51.0,71.0
963,268.7642914666667,269.5426980666667,60.0,82.0
964,268.7642914666667,269.6146675333334,56.0,58.0
965,269.2188354666667,269.8551970666667,51.0,73.0
966,268.7642914666667,269.93853013333336,44.0,87.0
967,269.6733794666667,270.0199692666667,60.0,100.0
968,269.6733794666667,270.0767872666667,63.0,87.0
969,270.1279234666667,270.32489253333335,44.0,89.0
970,270.5824674666667,271.220723,62.0,79.0
971,270.5824674666667,271.3779194666667,58.0,80.0
972,271.0370114666667,271.5767824666667,53.0,58.0
973,270.5824674666667,271.6506458666667,46.0,97.0
974,271.4915554666667,271.78511513333336,62.0,105.0
975,271.4915554666667,271.8267816666667,65.0,87.0
976,272.4006434666667,273.1676864666667,55.0,74.0
977,272.4006434666667,273.1847318666667,62.0,72.0
978,272.8551874666667,273.4290492666667,50.0,43.0
979,273.3097314666667,273.51617020000003,58.0,100.0
980,273.3097314666667,273.5370034666667,55.0,79.0
981,272.4006434666667,273.5710942666667,43.0,85.0
982,273.5370034666667,273.7642754666667,50.0,61.0
983,273.7642754666667,273.9688202666667,43.0,59.0
984,274.21881946666673,274.8949536666667,63.0,82.0
985,274.21881946666673,274.92146873333337,60.0,69.0
986,274.67336346666673,275.3646491333334,55.0,61.0
987,274.21881946666673,275.36843700000003,48.0,100.0
988,275.1279074666667,275.65442093333337,67.0,93.0
989,275.1279074666667,275.68851173333337,60.0,97.0
990,275.5824514666667,275.8154052666667,48.0,100.0
991,276.0369954666667,276.7017660666667,60.0,87.0
992,276.0369954666667,276.7642658666667,56.0,76.0
993,276.4915394666667,277.0066893333334,51.0,78.0
994,276.9460834666667,277.2074462666667,56.0,94.0
995,276.0369954666667,277.41388500000005,44.0,73.0
996,277.1733554666667,277.4669151333334,51.0,76.0
997,276.9460834666667,277.58433900000006,63.0,92.0
998,277.4006274666667,277.68850533333335,56.0,80.0
999,277.6278994666667,277.7188082666667,60.0,80.0
1000,277.8551714666667,278.4119878666667,62.0,52.0
1001,277.8551714666667,278.4744876666667,55.0,50.0
1002,277.8551714666667,278.85138040000004,43.0,68.0
1003,278.3097154666667,278.87031973333336,50.0,44.0
1004,278.7642594666667,279.0881220666667,58.0,97.0
1005,278.7642594666667,279.10895533333337,55.0,72.0
1006,279.2188034666667,279.3475909333334,43.0,85.0
1007,279.6733474666667,280.2415274666667,57.0,68.0
1008,279.6733474666667,280.4119814666667,60.0,80.0
1009,280.1278914666667,280.65819280000005,53.0,46.0
1010,279.6733474666667,281.0616006,45.0,65.0
1011,280.5824354666667,281.35137240000006,57.0,102.0
1012,281.0369794666667,281.36841780000003,53.0,50.0
1013,280.5824354666667,281.39682680000004,60.0,97.0
1014,280.5824354666667,281.6089473333334,63.0,82.0
1015,281.7187954666667,282.2301574666667,53.0,71.0
1016,281.9460674666667,282.4100811333334,58.0,92.0
1017,282.1733394666667,282.44795980000004,62.0,109.0
1018,282.4006114666667,282.70553473333337,53.0,87.0
1019,282.62788346666673,282.9176552666667,58.0,97.0
1020,281.4915234666667,283.10704860000004,46.0,105.0
1021,282.62788346666673,283.11273040000003,62.0,93.0
1022,282.62788346666673,283.1562908666667,65.0,94.0
1023,283.08242746666673,283.21500280000004,58.0,89.0
1024,282.8551554666667,283.2528814666667,53.0,89.0
1025,283.3096994666667,283.90818240000004,60.0,100.0
1026,283.3096994666667,284.04075773333335,56.0,92.0
1027,283.7642434666667,284.4043929333334,51.0,45.0
1028,283.3096994666667,284.4479534,44.0,94.0
1029,284.2187874666667,284.63734673333335,60.0,111.0
1030,284.2187874666667,284.6524982,56.0,94.0
1031,284.2187874666667,284.72825553333337,63.0,97.0
1032,284.6733314666667,284.88545200000004,44.0,92.0
1033,285.1278754666667,285.75097953333335,58.0,89.0
1034,285.1278754666667,285.7774946,62.0,70.0
1035,285.1278754666667,286.16575093333336,46.0,100.0
1036,285.5824194666667,286.1865842,53.0,53.0
1037,286.0369634666667,286.44415913333336,65.0,94.0
1038,286.0369634666667,286.4687802666667,58.0,102.0
1039,286.0369634666667,286.4801438666667,62.0,105.0
1040,286.4915074666667,286.6562796666667,46.0,89.0
1041,286.9460514666667,287.413853,58.0,87.0
1042,286.9460514666667,287.71498840000004,62.0,72.0
1043,287.6278674666667,287.9214271333334,58.0,92.0
1044,287.4005954666667,287.9460482666667,50.0,43.0
1045,286.9460514666667,288.18278993333337,43.0,61.0
1046,288.0824114666667,288.23203220000005,50.0,68.0
1047,288.3096834666667,288.61460673333335,58.0,100.0
1048,288.5369554666667,288.6505914666667,62.0,96.0
1049,287.8551394666667,288.71119733333336,67.0,102.0
1050,288.7642274666667,289.4289980666667,60.0,87.0
1051,288.7642274666667,289.45361920000005,63.0,92.0
1052,289.2187714666667,289.8437694666667,55.0,41.0
1053,288.7642274666667,289.87407240000005,48.0,100.0
1054,289.6733154666667,290.0085416666667,67.0,87.0
1055,289.6733154666667,290.05020820000004,63.0,100.0
1056,289.6733154666667,290.0918747333334,60.0,97.0
1057,290.1278594666667,290.3077831333334,48.0,92.0
1058,290.5824034666667,291.05209893333335,56.0,67.0
1059,290.5824034666667,291.2585376666667,60.0,84.0
1060,291.03694746666673,291.39868873333336,51.0,52.0
1061,291.2642194666667,291.6051274666667,56.0,84.0
1062,291.49149146666673,291.7964147333334,51.0,78.0
1063,290.5824034666667,292.05777753333336,44.0,97.0
1064,291.7187634666667,292.15247420000003,63.0,100.0
1065,291.94603546666673,292.22065580000003,51.0,73.0
1066,292.1733074666667,292.25474660000003,56.0,38.0
1067,292.4005794666667,293.0142138666667,58.0,80.0
1068,292.4005794666667,293.03504713333336,62.0,39.0
1069,292.8551234666667,293.41572773333337,53.0,64.0
1070,292.4005794666667,293.51042440000003,46.0,97.0
1071,293.3096674666667,293.7945144,62.0,93.0
1072,293.3096674666667,293.8153476666667,58.0,89.0
1073,293.3096674666667,293.89678680000003,65.0,92.0
1074,293.7642114666667,294.1392102666667,46.0,89.0
1075,294.2187554666667,294.4971636666667,58.0,82.0
1076,294.2187554666667,294.7812536666667,63.0,87.0
1077,294.6732994666667,294.8058748,58.0,44.0
1078,294.9005714666667,295.3532215333334,65.0,105.0
1079,295.3551154666667,295.6278418666667,58.0,71.0
1080,295.5823874666667,295.76799293333335,63.0,57.0
1081,294.2187554666667,295.7698868666667,51.0,66.0
1082,296.0369314666667,296.7926108666667,58.0,67.0
1083,296.0369314666667,296.8001866,63.0,69.0
1084,296.0369314666667,296.83617133333337,67.0,61.0
1085,296.9460194666667,297.30586680000005,58.0,73.0
1086,296.0369314666667,297.7433654,51.0,67.0
1087,296.9460194666667,297.7812440666667,63.0,76.0
1088,297.4005634666667,297.7869258666667,58.0,69.0
1089,297.8551074666667,298.4801054666667,60.0,84.0
1090,297.8551074666667,298.54639313333337,56.0,73.0
1091,298.3096514666667,298.8607860666667,51.0,50.0
1092,298.7641954666667,299.0937398666667,56.0,84.0
1093,298.7641954666667,299.1562396666667,63.0,87.0
1094,297.8551074666667,299.2622999333334,44.0,94.0
1095,299.2187394666667,299.5747989333334,51.0,45.0
1096,299.6732834666667,300.2982814666667,58.0,78.0
1097,299.6732834666667,300.31722080000003,62.0,50.0
1098,299.6732834666667,300.7963859333334,46.0,89.0
1099,300.1278274666667,300.879719,53.0,48.0
1100,300.5823714666667,301.0615366,62.0,85.0
1101,300.5823714666667,301.1240364,58.0,84.0
1102,300.5823714666667,301.13540000000006,65.0,92.0
1103,301.0369154666667,301.44979293333336,46.0,76.0
1104,301.4914594666667,301.7850191333334,58.0,67.0
1105,301.4914594666667,302.2300934666667,63.0,76.0
1106,301.9460034666667,302.28501753333336,58.0,57.0
1107,302.4005474666667,302.7925916666667,65.0,92.0
1108,301.4914594666667,303.05584840000006,51.0,84.0
1109,302.8550914666667,303.1334996666667,58.0,64.0
1110,303.3096354666667,303.8834972666667,58.0,76.0
1111,303.3096354666667,304.34561700000006,67.0,44.0
1112,304.2187234666667,304.5028134666667,58.0,69.0
1113,304.2187234666667,304.6827371333334,63.0,84.0
1114,303.3096354666667,304.7850095333334,51.0,71.0
1115,305.1278114666667,305.76038520000003,63.0,62.0
1116,305.1278114666667,306.1278082666667,67.0,38.0
1117,306.0368994666667,306.35508026666673,63.0,94.0
1118,305.5823554666667,306.67704893333337,58.0,76.0
1119,305.1278114666667,307.1940927333334,51.0,97.0
1120,306.4914434666667,308.07477173333336,67.0,68.0
1121,306.4914434666667,308.1372715333334,63.0,82.0
1122,308.76416346666673,309.6259031333334,63.0,78.0
1123,308.76416346666673,309.6315849333334,60.0,67.0
1124,309.6732514666667,309.69787260000004,63.0,8.0
1125,309.21870746666673,310.0217352,55.0,41.0
1126,309.6732514666667,310.4005218666667,60.0,92.0
1127,310.5823394666667,311.4630184666667,67.0,42.0
1128,310.1277954666667,311.49521533333336,55.0,42.0
1129,310.5823394666667,311.51036680000004,60.0,69.0
1130,308.76416346666673,311.6561996666667,48.0,78.0
1131,312.4005154666667,312.9838469333334,56.0,58.0
1132,312.4005154666667,313.40240620000003,63.0,76.0
1133,312.8550594666667,313.93838933333336,51.0,48.0
1134,313.3096034666667,314.29444880000005,56.0,87.0
1135,314.6732354666667,314.7868714666667,56.0,18.0
1136,313.7641474666667,314.83232586666674,63.0,46.0
1137,314.2186914666667,315.2811880666667,51.0,53.0
1138,312.4005154666667,315.39103620000003,44.0,92.0
1139,315.1277794666667,315.4895207333334,56.0,80.0
1140,315.1277794666667,315.57474773333337,60.0,84.0
1141,315.5823234666667,315.89671640000006,51.0,57.0
1142,316.0368674666667,316.5880020666667,58.0,82.0
1143,316.4914114666667,316.98762200000004,53.0,51.0
1144,316.0368674666667,317.1959546666667,62.0,85.0
1145,317.4004994666667,317.85125560000006,53.0,87.0
1146,316.0368674666667,318.12587593333336,46.0,97.0
1147,316.9459554666667,318.58420780000006,58.0,82.0
1148,318.3095874666667,318.8777674666667,53.0,42.0
1149,317.8550434666667,318.87966140000003,70.0,87.0
1150,318.7641314666667,319.0955698,58.0,71.0
1151,318.7641314666667,319.1258727333334,62.0,41.0
1152,319.66374980000006,320.68079200000005,65.0,71.0
1153,320.6504890666667,321.37018373333336,63.0,80.0
1154,320.1713239333334,322.11828740000004,58.0,62.0
1155,319.6789012666667,322.3152564666667,51.0,84.0
1156,321.1826843333334,323.3777530666667,67.0,41.0
1157,321.8020005333334,323.3891166666667,70.0,82.0
1158,323.6144947333334,323.7035096,67.0,13.0
1159,323.42699533333337,326.078502,58.0,38.0
1160,323.3550258666667,326.0993352666667,51.0,28.0
1161,323.6694188,326.3228194,79.0,44.0
1162,323.52169200000003,326.3360769333334,70.0,39.0
