,start,end,pitch,velocity
0,20.04578321875,20.545781968750003,70.0,107.0
1,20.545781968750003,21.12216941666667,69.0,86.0
2,21.045780718750002,23.04577571875,62.0,86.0
3,23.04577571875,23.433274750000002,70.0,85.0
4,23.37910821875,23.720774031250002,69.0,88.0
5,23.712440718750003,24.04577321875,70.0,92.0
6,24.04577321875,24.37910571875,72.0,96.0
7,24.37910571875,24.723549302083335,70.0,85.0
8,24.712438218750002,25.12215941666667,69.0,66.0
9,25.045770718750003,25.39299207291667,70.0,107.0
10,25.37910321875,25.926324072916668,69.0,100.0
11,25.87910196875,26.54576696875,65.0,89.0
12,26.54576696875,30.71242321875,62.0,81.0
13,30.71242321875,31.24297744791667,70.0,117.0
14,31.21242196875,31.74297619791667,69.0,78.0
15,31.712420718750003,33.71241571875,62.0,72.0
16,33.71241571875,34.07769258333334,70.0,99.0
17,34.04574821875,34.38463626041667,69.0,88.0
18,34.379080718750004,34.71241321875,70.0,102.0
19,34.71241321875,35.06935677083334,72.0,95.0
20,35.04574571875,35.43741140625,70.0,99.0
21,35.37907821875,35.72352180208333,69.0,88.0
22,35.71241071875,36.077687583333336,70.0,93.0
23,36.045743218750005,36.737408156250005,69.0,100.0
24,36.71240821875,37.05962957291667,67.0,96.0
25,37.045740718750004,41.379063218750005,62.0,97.0
26,41.379063218750005,42.379060718750004,70.0,107.0
27,42.379060718750004,43.04572571875,67.0,96.0
28,43.04572571875,44.045723218750005,74.0,99.0
29,44.045723218750005,46.045718218750004,72.0,102.0
30,46.045718218750004,46.377661833333335,69.0,112.0
31,46.37905071875,46.71099433333334,69.0,95.0
32,46.712383218750006,47.37904821875,69.0,102.0
33,47.37904821875,47.71099183333334,65.0,93.0
34,47.712380718750005,48.37904571875,65.0,97.0
35,48.37904571875,49.04571071875,72.0,93.0
36,49.04571071875,51.71237071875,70.0,100.0
37,51.71237071875,52.045703218750006,69.0,102.0
38,52.045703218750006,52.71236821875,70.0,112.0
39,52.71236821875,53.045700718750005,70.0,127.0
40,53.045700718750005,53.71236571875,67.0,102.0
41,53.71236571875,54.37903071875,74.0,100.0
42,54.37903071875,55.712360718750006,72.0,96.0
43,55.712360718750006,56.044304333333336,70.0,95.0
44,56.04569321875,56.545691968750006,70.0,112.0
45,56.545691968750006,57.04569071875,67.0,100.0
46,57.04569071875,57.712355718750004,74.0,102.0
47,57.712355718750004,61.045680718750006,72.0,112.0
48,61.045680718750006,61.37901321875,74.0,97.0
49,61.37901321875,61.87901196875001,73.0,117.0
50,61.87901196875001,62.37901071875,74.0,112.0
51,62.37901071875,64.21095058333334,79.0,122.0
52,64.21233946875,64.71233821875,79.0,117.0
53,64.71233821875,65.04844848958334,77.0,102.0
54,65.04567071875,65.71233571875,74.0,102.0
55,65.71233571875,66.54011142708333,72.0,102.0
56,66.37900071875,66.54011142708333,72.0,97.0
57,66.71233321875,67.04566571875,72.0,97.0
58,67.04566571875,67.37899821875,70.0,99.0
59,67.37899821875,67.71233071875001,72.0,122.0
60,67.71233071875001,69.71232571875001,77.0,122.0
61,69.71232571875001,70.04426933333333,74.0,102.0
62,70.04565821875,70.37899071875,74.0,102.0
63,70.37899071875,70.71232321875,72.0,82.0
64,70.71232321875,71.06926677083334,70.0,92.0
65,71.04565571875,74.04425933333334,74.0,99.0
66,74.04564821875,74.37898071875,74.0,107.0
67,74.37898071875,74.71231321875,67.0,92.0
68,74.71231321875,75.04564571875001,69.0,117.0
69,75.04564571875001,75.71231071875,70.0,117.0
70,75.71231071875,76.55258639583333,72.0,112.0
71,76.37897571875,76.71091933333334,65.0,96.0
72,76.71230821875001,77.04425183333333,65.0,112.0
73,77.04564071875001,77.37897321875,65.0,102.0
74,77.37897321875,77.73313900000001,72.0,122.0
75,77.71230571875,78.37897071875,75.0,127.0
76,78.37897071875,82.37757183333333,74.0,127.0
77,82.37896071875001,82.71229321875,74.0,93.0
78,82.71229321875,83.29284732291667,73.0,127.0
79,83.21229196875001,83.71229071875,74.0,107.0
80,83.71229071875,85.21506473958334,79.0,117.0
81,85.04562071875,85.21506473958334,79.0,102.0
82,85.37895321875,86.04561821875001,79.0,127.0
83,86.04561821875001,86.37895071875,77.0,127.0
84,86.37895071875,87.04561571875,74.0,127.0
85,87.04561571875,87.71089183333333,72.0,127.0
86,87.71228071875001,88.04422433333333,72.0,122.0
87,88.04561321875,88.37894571875,72.0,112.0
88,88.37894571875,88.71227821875,70.0,99.0
89,88.71227821875,89.04561071875,72.0,112.0
90,89.04561071875,91.04560571875001,77.0,122.0
91,91.04560571875001,91.37754933333333,74.0,122.0
92,91.37893821875001,91.71227071875,74.0,97.0
93,91.71227071875,92.04560321875,72.0,99.0
94,92.04560321875,92.37893571875,70.0,92.0
95,92.37893571875,95.37892821875,74.0,117.0
96,95.37892821875,95.71226071875,75.0,112.0
97,95.71226071875,96.05670430208333,67.0,93.0
98,96.04559321875,96.43448113541668,69.0,97.0
99,96.37892571875001,97.04559071875,70.0,107.0
100,97.04559071875,98.116421375,72.0,127.0
101,98.04558821875001,98.37753183333334,65.0,99.0
102,98.37892071875001,98.71225321875,65.0,100.0
103,98.71225321875,99.54558446875001,74.0,122.0
104,99.54558446875001,100.04558321875001,72.0,102.0
105,100.04558321875001,103.71224071875001,70.0,112.0
106,103.71224071875001,104.04557321875001,74.0,97.0
107,104.04557321875001,104.54557196875001,73.0,117.0
108,104.54557196875001,105.04557071875,74.0,112.0
109,105.04557071875,107.04417683333334,79.0,122.0
110,107.04556571875001,107.37889821875001,79.0,117.0
111,107.37889821875001,107.71500848958334,77.0,102.0
112,107.71223071875,108.37889571875,74.0,102.0
113,108.37889571875,109.04417183333334,72.0,102.0
114,109.04556071875001,109.37750433333333,72.0,97.0
115,109.37889321875001,109.71222571875,72.0,97.0
116,109.71222571875,110.04555821875,70.0,99.0
117,110.04555821875,110.37889071875,72.0,122.0
118,110.37889071875,112.37888571875001,77.0,122.0
119,112.37888571875001,112.71082933333334,74.0,102.0
120,112.71221821875001,113.04555071875001,74.0,102.0
121,113.04555071875001,113.37888321875,72.0,82.0
122,113.37888321875,113.73582677083334,70.0,92.0
123,113.71221571875,116.71081933333333,74.0,99.0
124,116.71220821875,117.04554071875,74.0,107.0
125,117.04554071875,117.37887321875,67.0,92.0
126,117.37887321875,117.71220571875001,69.0,117.0
127,117.71220571875001,118.37887071875001,70.0,117.0
128,118.37887071875001,119.21914639583333,72.0,112.0
129,119.04553571875,119.37747933333334,65.0,96.0
130,119.37886821875,119.71081183333334,65.0,112.0
131,119.71220071875001,120.04553321875001,65.0,102.0
132,120.04553321875001,120.71219821875,72.0,122.0
133,120.71219821875,121.04553071875,74.0,127.0
134,121.04553071875,121.71219571875001,75.0,127.0
135,121.71219571875001,125.04413183333334,74.0,127.0
136,125.04552071875001,125.37885321875001,74.0,93.0
137,125.37885321875001,125.95940732291668,73.0,127.0
138,125.87885196875001,126.37885071875,74.0,107.0
139,126.37885071875,127.88162473958334,79.0,117.0
140,127.71218071875,127.88162473958334,79.0,102.0
141,128.04551321875002,128.71217821875,79.0,127.0
142,128.71217821875,129.04551071875,77.0,127.0
143,129.04551071875,129.71217571875002,74.0,127.0
144,129.71217571875002,130.37745183333334,72.0,127.0
145,130.37884071875,130.71078433333335,72.0,122.0
146,130.71217321875,131.04550571875,72.0,112.0
147,131.04550571875,131.37883821875002,70.0,117.0
148,131.37883821875002,131.71217071875,72.0,112.0
149,131.71217071875,133.71216571875001,77.0,122.0
150,133.71216571875001,134.04410933333335,74.0,122.0
151,134.04549821875,134.37883071875,74.0,97.0
152,134.37883071875,134.71216321875002,72.0,99.0
153,134.71216321875002,135.04549571875,70.0,92.0
154,135.04549571875,138.04548821875,74.0,117.0
155,138.04548821875,138.37882071875,75.0,112.0
156,138.37882071875,138.72326430208335,67.0,93.0
157,138.71215321875002,139.10104113541666,69.0,97.0
158,139.04548571875,139.71215071875,70.0,107.0
159,139.71215071875,140.78298137500002,72.0,127.0
160,140.71214821875,141.04409183333334,65.0,99.0
161,141.04548071875,141.37881321875,65.0,100.0
162,141.37881321875,142.21214446875,74.0,122.0
163,142.21214446875,142.71214321875001,72.0,102.0
164,142.71214321875001,146.09824586458333,70.0,112.0
165,166.71208321875,167.21208196875,70.0,107.0
166,167.21208196875,167.7884694166667,69.0,86.0
167,167.71208071875,169.71207571875001,62.0,86.0
168,169.71207571875001,170.09957475000002,70.0,85.0
169,170.04540821875,170.38707403125002,69.0,88.0
170,170.37874071875,170.71207321875002,70.0,92.0
171,170.71207321875002,171.04540571875,72.0,96.0
172,171.04540571875,171.38984930208335,70.0,85.0
173,171.37873821875002,171.78845941666668,69.0,66.0
174,171.71207071875,172.05929207291666,70.0,107.0
175,172.04540321875,172.59262407291666,69.0,100.0
176,172.54540196875,173.21206696875,65.0,89.0
177,173.21206696875,177.37872321875,62.0,81.0
178,177.37872321875,177.90927744791668,70.0,117.0
179,177.87872196875,178.40927619791668,69.0,78.0
180,178.37872071875,180.37871571875002,62.0,72.0
181,180.37871571875002,180.74399258333335,70.0,99.0
182,180.71204821875,181.05093626041668,69.0,88.0
183,181.04538071875,181.37871321875002,70.0,102.0
184,181.37871321875002,181.73565677083334,72.0,95.0
185,181.71204571875,182.10371140625,70.0,99.0
186,182.04537821875002,182.38982180208333,69.0,88.0
187,182.37871071875,182.74398758333334,70.0,93.0
188,182.71204321875,183.40370815625002,69.0,100.0
189,183.37870821875,183.72592957291667,67.0,96.0
190,183.71204071875002,188.04536321875,62.0,97.0
191,188.04536321875,189.04536071875,70.0,107.0
192,189.04536071875,189.71202571875,67.0,96.0
193,189.71202571875,190.71202321875,74.0,99.0
194,190.71202321875,192.71201821875002,72.0,102.0
195,192.71201821875002,193.04396183333336,69.0,112.0
196,193.04535071875,193.37729433333334,69.0,95.0
197,193.37868321875,194.04534821875,69.0,102.0
198,194.04534821875,194.37729183333335,65.0,93.0
199,194.37868071875002,195.04534571875,65.0,97.0
200,195.04534571875,195.71201071875,72.0,93.0
201,195.71201071875,198.37867071875002,70.0,100.0
202,198.37867071875002,198.71200321875,69.0,102.0
203,198.71200321875,199.37866821875002,70.0,112.0
204,199.37866821875002,199.71200071875,70.0,127.0
205,199.71200071875,200.37866571875,67.0,102.0
206,200.37866571875,201.04533071875002,74.0,100.0
207,201.04533071875002,202.37866071875,72.0,96.0
208,202.37866071875,202.71060433333335,70.0,95.0
209,202.71199321875002,203.21199196875,70.0,112.0
210,203.21199196875,203.71199071875,67.0,100.0
211,203.71199071875,204.37865571875003,74.0,102.0
212,204.37865571875003,207.71198071875,72.0,112.0
213,207.71198071875,208.04531321875,74.0,97.0
214,208.04531321875,208.54531196875,73.0,117.0
215,208.54531196875,209.04531071875002,74.0,112.0
216,209.04531071875002,210.87725058333334,79.0,122.0
217,210.87863946875,211.37863821875,79.0,117.0
218,211.37863821875,211.71474848958334,77.0,102.0
219,211.71197071875002,212.37863571875002,74.0,102.0
220,212.37863571875002,213.20641142708334,72.0,102.0
221,213.04530071875,213.20641142708334,72.0,97.0
222,213.37863321875002,213.71196571875,72.0,97.0
223,213.71196571875,214.04529821875002,70.0,99.0
224,214.04529821875002,214.37863071875,72.0,122.0
225,214.37863071875,216.37862571875002,77.0,122.0
226,216.37862571875002,216.71056933333335,74.0,102.0
227,216.71195821875,217.04529071875,74.0,102.0
228,217.04529071875,217.37862321875002,72.0,82.0
229,217.37862321875002,217.73556677083334,70.0,92.0
230,217.71195571875,220.71055933333335,74.0,99.0
231,220.71194821875002,221.04528071875,74.0,107.0
232,221.04528071875,221.37861321875002,67.0,92.0
233,221.37861321875002,221.71194571875,69.0,117.0
234,221.71194571875,222.37861071875002,70.0,117.0
235,222.37861071875002,223.21888639583335,72.0,112.0
236,223.04527571875002,223.37721933333336,65.0,96.0
237,223.37860821875,223.71055183333334,65.0,112.0
238,223.71194071875001,224.04527321875003,65.0,102.0
239,224.04527321875003,224.399439,72.0,122.0
240,224.37860571875,225.04527071875,75.0,127.0
241,225.04527071875,229.04387183333336,74.0,127.0
242,229.04526071875,229.37859321875,74.0,93.0
243,229.37859321875,229.9591473229167,73.0,127.0
244,229.87859196875002,230.37859071875002,74.0,107.0
245,230.37859071875002,231.88136473958335,79.0,117.0
246,231.71192071875,231.88136473958335,79.0,102.0
247,232.04525321875002,232.71191821875001,79.0,127.0
248,232.71191821875001,233.04525071875003,77.0,127.0
249,233.04525071875003,233.71191571875002,74.0,127.0
250,233.71191571875002,234.37719183333334,72.0,127.0
251,234.37858071875002,234.71052433333335,72.0,122.0
252,234.71191321875,235.04524571875,72.0,112.0
253,235.04524571875,235.37857821875002,70.0,99.0
254,235.37857821875002,235.71191071875,72.0,112.0
255,235.71191071875,237.71190571875002,77.0,122.0
256,237.71190571875002,238.04384933333336,74.0,122.0
257,238.04523821875,238.37857071875,74.0,97.0
258,238.37857071875,238.71190321875002,72.0,99.0
259,238.71190321875002,239.04523571875,70.0,92.0
260,239.04523571875,242.04522821875003,74.0,117.0
261,242.04522821875003,242.37856071875,75.0,112.0
262,242.37856071875,242.72300430208335,67.0,93.0
263,242.71189321875002,243.10078113541667,69.0,97.0
264,243.04522571875,243.71189071875003,70.0,107.0
265,243.71189071875003,244.78272137500002,72.0,127.0
266,244.71188821875,245.04383183333334,65.0,99.0
267,245.04522071875002,245.37855321875,65.0,100.0
268,245.37855321875,246.21188446875001,74.0,122.0
269,246.21188446875001,246.71188321875002,72.0,102.0
270,246.71188321875002,250.37854071875,70.0,112.0
271,250.37854071875,250.71187321875001,74.0,97.0
272,250.71187321875001,251.21187196875002,73.0,117.0
273,251.21187196875002,251.71187071875002,74.0,112.0
274,251.71187071875002,253.71047683333336,79.0,122.0
275,253.71186571875,254.04519821875002,79.0,117.0
276,254.04519821875002,254.38130848958335,77.0,102.0
277,254.37853071875,255.04519571875002,74.0,102.0
278,255.04519571875002,255.71047183333334,72.0,102.0
279,255.71186071875002,256.04380433333336,72.0,97.0
280,256.04519321875,256.37852571875004,72.0,97.0
281,256.37852571875004,256.71185821875,70.0,99.0
282,256.71185821875,257.04519071875,72.0,122.0
283,257.04519071875,259.04518571875,77.0,122.0
284,259.04518571875,259.37712933333336,74.0,102.0
285,259.37851821875,259.71185071875,74.0,102.0
286,259.71185071875,260.04518321875,72.0,82.0
287,260.04518321875,260.4021267708333,70.0,92.0
288,260.37851571875,263.3771193333333,74.0,99.0
289,263.37850821875,263.71184071875,74.0,107.0
290,263.71184071875,264.04517321875,67.0,92.0
291,264.04517321875,264.37850571875003,69.0,117.0
292,264.37850571875003,265.04517071875,70.0,117.0
293,265.04517071875,265.88544639583336,72.0,112.0
294,265.71183571875,266.04377933333336,65.0,96.0
295,266.04516821875,266.37711183333334,65.0,112.0
296,266.37850071875,266.71183321875003,65.0,102.0
297,266.71183321875003,267.37849821875,72.0,122.0
298,267.37849821875,267.71183071875004,74.0,127.0
299,267.71183071875004,268.37849571875,75.0,127.0
300,268.37849571875,271.71043183333336,74.0,127.0
301,271.71182071875,272.04515321875,74.0,93.0
302,272.04515321875,272.6257073229167,73.0,127.0
303,272.54515196875,273.04515071875,74.0,107.0
304,273.04515071875,274.5479247395833,79.0,117.0
305,274.37848071875004,274.5479247395833,79.0,102.0
306,274.71181321875,275.37847821875,79.0,127.0
307,275.37847821875,275.71181071875003,77.0,127.0
308,275.71181071875003,276.37847571875,74.0,127.0
309,276.37847571875,277.0437518333334,72.0,127.0
310,277.04514071875,277.37708433333336,72.0,122.0
311,277.37847321875,277.71180571875004,72.0,112.0
312,277.71180571875004,278.04513821875,70.0,117.0
313,278.04513821875,278.37847071875,72.0,112.0
314,278.37847071875,280.37846571875,77.0,122.0
315,280.37846571875,280.71040933333336,74.0,122.0
316,280.71179821875,281.04513071875,74.0,97.0
317,281.04513071875,281.37846321875,72.0,99.0
318,281.37846321875,281.71179571875,70.0,92.0
319,281.71179571875,284.37845571875,74.0,117.0
320,284.37845571875,284.7103993333333,75.0,100.0
321,284.71178821875003,285.04512071875,75.0,112.0
322,285.04512071875,285.38956430208333,67.0,93.0
323,285.37845321875,285.7673411354167,69.0,97.0
324,285.71178571875004,286.37845071875,70.0,107.0
325,286.37845071875,288.04511321875003,72.0,127.0
326,288.04511321875003,289.04511071875004,74.0,96.0
327,289.04511071875004,289.4048320416667,65.0,86.0
328,289.37844321875,289.84371983333335,72.0,95.0
329,289.71177571875,292.76454586458334,70.0,90.0
