,start,end,pitch,velocity
0,20.04578321875,20.619392895833336,74.0,57.0
1,20.04578321875,20.77911471875,70.0,47.0
2,20.71244821875,21.13744715625,65.0,42.0
3,20.37911571875,21.89300082291667,58.0,26.0
4,20.04578321875,22.434666135416666,46.0,89.0
5,21.045780718750002,23.455496916666668,70.0,44.0
6,21.045780718750002,23.498552364583336,74.0,52.0
7,25.37910321875,25.552713895833335,67.0,51.0
8,25.37910321875,25.63743590625,70.0,60.0
9,26.379100718750003,29.258260187500003,58.0,55.0
10,26.379100718750003,29.286037895833335,62.0,65.0
11,26.045768218750002,29.513815104166667,55.0,41.0
12,25.71243571875,29.57075940625,50.0,39.0
13,25.37910321875,29.576314947916668,43.0,64.0
14,30.71242321875,31.083255625000003,62.0,54.0
15,30.71242321875,31.330477229166668,69.0,68.0
16,30.71242321875,31.441588062500003,70.0,46.0
17,31.379088218750002,34.15963682291667,62.0,35.0
18,31.712420718750003,34.208247812500005,70.0,48.0
19,34.04574821875,34.45408053125,65.0,58.0
20,31.04575571875,34.79852411458334,58.0,57.0
21,34.379080718750004,34.848523989583335,62.0,43.0
22,30.71242321875,35.070745656250004,46.0,75.0
23,35.04574571875,35.12213441666667,58.0,32.0
24,34.71241321875,35.402689270833335,70.0,90.0
25,36.045743218750005,36.14435408333333,58.0,63.0
26,36.045743218750005,36.16935402083333,62.0,62.0
27,36.71240821875,37.54851723958333,55.0,58.0
28,37.045740718750004,38.46379272916667,67.0,65.0
29,37.71240571875,38.60962569791667,55.0,66.0
30,38.37907071875,38.62073678125,65.0,37.0
31,38.04573821875,38.826291822916666,62.0,58.0
32,37.045740718750004,39.81240046875,70.0,47.0
33,38.712403218750005,39.83601152083334,67.0,16.0
34,36.37907571875,40.222121666666666,50.0,32.0
35,38.712403218750005,40.238788291666665,55.0,59.0
36,36.045743218750005,40.31795476041667,43.0,58.0
37,40.37906571875,40.70962044791667,67.0,32.0
38,40.71239821875,40.765175864583334,62.0,33.0
39,41.379063218750005,41.598507114583334,63.0,49.0
40,42.04572821875,43.156836552083334,63.0,56.0
41,41.379063218750005,43.31516948958333,39.0,95.0
42,41.71239571875,43.394335958333336,51.0,58.0
43,41.379063218750005,43.43739140625,67.0,68.0
44,43.379058218750004,44.745721468750006,63.0,48.0
45,42.379060718750004,45.01516523958333,75.0,66.0
46,44.045723218750005,45.3915531875,58.0,32.0
47,45.045720718750005,45.59016380208334,63.0,52.0
48,44.045723218750005,45.82210766666667,55.0,40.0
49,44.045723218750005,45.84571871875,51.0,29.0
50,45.71238571875,45.91516298958334,58.0,35.0
51,43.71239071875,45.93460738541667,67.0,17.0
52,45.37905321875,46.03460713541667,75.0,95.0
53,41.379063218750005,46.045718218750004,70.0,69.0
54,46.045718218750004,46.13182911458333,63.0,58.0
55,46.712383218750006,47.43877029166667,65.0,73.0
56,46.712383218750006,47.46099245833334,69.0,74.0
57,47.37904821875,47.73876954166667,62.0,51.0
58,47.04571571875,48.27626819791667,50.0,35.0
59,46.712383218750006,48.35543466666667,38.0,71.0
60,47.712380718750005,48.769322520833335,69.0,81.0
61,47.712380718750005,49.049877375,65.0,67.0
62,49.379043218750006,49.49432070833333,67.0,59.0
63,48.712378218750004,49.50404290625,62.0,58.0
64,49.379043218750006,49.51932064583334,70.0,68.0
65,50.04570821875,50.50959594791667,55.0,72.0
66,50.379040718750005,50.78181748958334,58.0,63.0
67,49.71237571875,50.8582061875,50.0,40.0
68,51.04570571875,51.24014967708334,50.0,35.0
69,49.379043218750006,51.298482864583335,43.0,52.0
70,50.71237321875,51.45542691666667,62.0,100.0
71,51.379038218750004,51.71237071875,58.0,127.0
72,51.71237071875,51.96237009375,55.0,57.0
73,52.045703218750006,52.80264577083334,63.0,93.0
74,52.045703218750006,52.8248679375,58.0,81.0
75,52.71236821875,53.924865187500004,55.0,53.0
76,53.045700718750005,54.23041997916667,63.0,90.0
77,52.37903571875,54.24291994791667,51.0,58.0
78,53.045700718750005,54.252642145833335,58.0,63.0
79,54.045698218750005,54.34014192708334,55.0,38.0
80,52.045703218750006,54.35403078125,39.0,92.0
81,54.712363218750006,55.16375097916667,51.0,89.0
82,54.712363218750006,55.18875091666667,54.0,71.0
83,56.04569321875,56.40124788541667,58.0,40.0
84,54.712363218750006,56.73458038541667,39.0,68.0
85,56.04569321875,56.74291369791667,63.0,56.0
86,56.04569321875,56.76235809375,51.0,27.0
87,57.37902321875,57.46791188541667,53.0,76.0
88,57.37902321875,57.48457851041667,57.0,82.0
89,57.37902321875,57.49568959375,60.0,81.0
90,58.04568821875,58.783186375,53.0,75.0
91,59.04568571875,59.29985175,53.0,40.0
92,58.379020718750006,59.36790713541667,60.0,61.0
93,58.71235321875,59.39429595833334,65.0,97.0
94,57.37902321875,59.715128489583336,41.0,75.0
95,59.71235071875,59.86235034375,69.0,33.0
96,59.379018218750005,59.981794489583336,67.0,77.0
97,57.712355718750004,60.08457201041667,48.0,48.0
98,60.04568321875,61.37901321875,41.0,62.0
99,60.04568321875,61.37901321875,60.0,59.0
100,60.04568321875,61.37901321875,65.0,65.0
101,60.04568321875,61.37901321875,69.0,65.0
102,61.37901321875,61.83873429166667,40.0,86.0
103,61.37901321875,61.865123114583334,67.0,83.0
104,61.37901321875,61.89428970833334,64.0,71.0
105,61.37901321875,61.9748450625,70.0,82.0
106,63.37900821875,63.78039610416667,55.0,75.0
107,63.712340718750006,64.07622869791668,58.0,89.0
108,64.04567321875,64.10261752083333,63.0,117.0
109,64.37900571875001,64.75261589583333,63.0,31.0
110,62.71234321875,65.24567021875,39.0,100.0
111,63.045675718750005,65.2915034375,51.0,89.0
112,64.71233821875,65.2915034375,70.0,112.0
113,65.37900321875,65.47344742708334,67.0,69.0
114,65.04567071875,65.64150256250001,63.0,42.0
115,66.04566821875001,66.54705585416667,63.0,69.0
116,65.71233571875,66.79427745833334,51.0,70.0
117,66.71233321875,67.20122088541667,67.0,29.0
118,65.37900321875,67.33733165625,39.0,112.0
119,66.71233321875,67.36510936458333,63.0,56.0
120,66.37900071875,67.44427583333334,75.0,90.0
121,67.37899821875,67.45677580208334,67.0,61.0
122,65.37900321875,67.51094233333333,70.0,77.0
123,68.04566321875001,68.64566171875,70.0,112.0
124,68.04566321875001,68.77205029166667,74.0,96.0
125,68.71232821875,69.29566009375,65.0,86.0
126,68.37899571875,69.52065953125,58.0,99.0
127,69.71232571875001,69.88593639583334,58.0,79.0
128,68.04566321875001,69.96788063541668,46.0,100.0
129,69.37899321875,70.04010267708334,70.0,70.0
130,70.04565821875,70.39704622916668,69.0,107.0
131,69.04566071875,70.72621207291667,74.0,117.0
132,70.37899071875,70.75398978125,70.0,89.0
133,70.71232321875,70.84565621875001,67.0,77.0
134,71.37898821875001,71.733154,55.0,96.0
135,71.04565571875,72.26231934375001,50.0,59.0
136,70.71232321875,72.56648525,43.0,92.0
137,71.71232071875001,72.77065140625001,62.0,93.0
138,71.71232071875001,72.783151375,58.0,107.0
139,73.37898321875001,73.48870516666668,55.0,48.0
140,73.37898321875001,73.5914826875,60.0,76.0
141,73.37898321875001,73.65120476041668,63.0,79.0
142,74.04564821875,74.92064603125,48.0,89.0
143,74.37898071875,75.27342292708333,63.0,117.0
144,74.37898071875,75.34008942708334,67.0,93.0
145,73.37898321875001,75.45953357291667,36.0,72.0
146,73.71231571875,75.53175561458333,43.0,59.0
147,75.37897821875,75.78731053125,67.0,72.0
148,75.37897821875,75.83314375,63.0,127.0
149,75.71231071875,75.916476875,60.0,48.0
150,75.04564571875001,76.01230996875,48.0,61.0
151,76.04564321875,76.21092058333333,69.0,96.0
152,76.04564321875,76.21369835416667,65.0,93.0
153,76.71230821875001,77.10675167708334,53.0,86.0
154,77.04564071875001,77.26925127083334,60.0,49.0
155,77.04564071875001,77.28452901041668,57.0,52.0
156,76.37897571875,77.55119501041668,48.0,51.0
157,76.04564321875,77.77897221875,41.0,75.0
158,77.71230571875,77.81230546875,48.0,95.0
159,77.37897321875,77.96091620833334,57.0,99.0
160,77.37897321875,78.06786038541667,60.0,127.0
161,78.04563821875,78.10674917708334,53.0,99.0
162,78.71230321875001,78.78591414583333,62.0,95.0
163,78.71230321875001,78.79008080208334,65.0,99.0
164,78.71230321875001,78.83313625000001,70.0,100.0
165,79.37896821875,79.54285669791668,65.0,41.0
166,79.04563571875,80.183132875,58.0,93.0
167,79.71230071875,80.57618744791667,70.0,122.0
168,79.71230071875,80.58729853125,74.0,112.0
169,80.04563321875,80.59007630208333,65.0,59.0
170,80.71229821875,80.90535329166667,70.0,112.0
171,78.71230321875001,81.23035247916667,46.0,99.0
172,80.71229821875,81.23590802083334,74.0,102.0
173,81.04563071875,81.26090795833333,65.0,54.0
174,80.37896571875001,81.26785238541667,58.0,88.0
175,81.37896321875,81.53451838541667,65.0,71.0
176,81.37896321875,82.02757270833334,68.0,112.0
177,81.37896321875,82.21785001041667,74.0,90.0
178,81.37896321875,82.23034997916668,70.0,112.0
179,82.37896071875001,82.51646037500001,74.0,65.0
180,82.37896071875001,82.58034910416667,70.0,77.0
181,81.37896321875,82.71229321875,46.0,117.0
182,82.04562821875001,82.71229321875,58.0,97.0
183,82.71229321875,83.27895846875,64.0,73.0
184,82.71229321875,83.29840286458334,67.0,95.0
185,82.71229321875,83.33868054166668,70.0,99.0
186,82.71229321875,83.39423595833334,40.0,79.0
187,83.37895821875,83.9581234375,43.0,89.0
188,84.04562321875001,84.16923402083334,67.0,89.0
189,84.04562321875001,84.77617694791667,70.0,79.0
190,84.04562321875001,84.82617682291666,63.0,85.0
191,84.37895571875,84.87062115625001,67.0,25.0
192,85.04562071875,85.22339805208334,63.0,72.0
193,84.71228821875,85.2247869375,51.0,90.0
194,85.04562071875,85.87478531250001,67.0,77.0
195,85.04562071875,85.89978525000001,75.0,86.0
196,84.04562321875001,86.56922802083334,39.0,96.0
197,85.71228571875001,86.74839423958333,51.0,48.0
198,86.04561821875001,86.81922739583334,63.0,86.0
199,86.04561821875001,86.86922727083333,67.0,36.0
200,86.37895071875,86.89006055208334,75.0,100.0
201,85.04562071875,87.00394915625,70.0,71.0
202,87.37894821875001,87.93866904166667,63.0,74.0
203,87.71228071875001,88.08172423958334,67.0,63.0
204,87.04561571875,88.13589077083334,51.0,90.0
205,86.71228321875,88.41089008333334,39.0,96.0
206,88.37894571875,88.46505661458333,51.0,99.0
207,88.04561321875,88.72477818750001,70.0,122.0
208,88.71227821875,88.76366697916667,63.0,96.0
209,89.37894321875001,89.83171986458333,62.0,100.0
210,89.37894321875001,89.94699735416667,65.0,102.0
211,90.04560821875,90.24560771875001,62.0,63.0
212,89.71227571875,90.87893946875,58.0,86.0
213,91.04560571875001,91.23032747916668,58.0,79.0
214,90.37894071875,91.349771625,65.0,97.0
215,90.37894071875,91.40393815625,70.0,127.0
216,91.37893821875001,91.42199366666667,62.0,93.0
217,89.37894321875001,91.49977125000001,46.0,100.0
218,92.04560321875,92.149769625,58.0,93.0
219,92.04560321875,92.16782513541668,62.0,89.0
220,92.71226821875001,93.81782101041667,55.0,82.0
221,93.04560071875001,94.23031997916667,70.0,99.0
222,93.04560071875001,94.24004217708334,67.0,90.0
223,92.37893571875,94.24281994791667,50.0,48.0
224,92.04560321875,94.33726415625,43.0,74.0
225,94.71226321875001,95.67476081250001,63.0,88.0
226,94.71226321875001,96.50392540625,36.0,64.0
227,95.04559571875001,96.50531429166668,43.0,57.0
228,95.37892821875,96.55114751041667,48.0,83.0
229,94.71226321875001,96.70948044791668,67.0,74.0
230,95.71226071875,97.316423375,60.0,73.0
231,97.37892321875,97.46364522916667,69.0,90.0
232,97.37892321875,97.48864516666667,65.0,100.0
233,98.04558821875001,98.93030822916667,53.0,81.0
234,97.37892321875,99.40252927083334,41.0,82.0
235,97.71225571875,99.42891809375,48.0,55.0
236,98.37892071875001,99.4414180625,60.0,92.0
237,98.37892071875001,99.46225134375001,57.0,92.0
238,99.37891821875,99.46919577083334,65.0,61.0
239,99.04558571875,99.48725128125001,53.0,25.0
240,100.71224821875,101.149747125,62.0,67.0
241,100.37891571875001,101.55946832291667,58.0,90.0
242,100.04558321875001,102.56641025,46.0,89.0
243,101.71224571875001,102.69974325000001,58.0,70.0
244,102.37891071875,102.71224321875,62.0,56.0
245,102.04557821875001,102.71224321875,65.0,99.0
246,101.04558071875,102.71224321875,70.0,117.0
247,103.21224196875,103.38029710416667,62.0,96.0
248,102.71224321875,103.42196366666667,65.0,92.0
249,102.71224321875,103.466408,70.0,107.0
250,103.04557571875,103.516407875,58.0,100.0
251,103.54557446875,103.916406875,58.0,88.0
252,102.71224321875,104.02196216666667,46.0,97.0
253,104.04557321875001,104.06223984375,70.0,99.0
254,104.04557321875001,104.76918252083334,64.0,86.0
255,104.04557321875001,105.34556996875,67.0,99.0
256,104.71223821875,105.34556996875,70.0,95.0
257,104.04557321875001,105.34695885416667,73.0,127.0
258,105.37890321875001,105.76223559375,63.0,96.0
259,105.37890321875001,105.9580684375,67.0,99.0
260,105.37890321875001,106.23862329166667,70.0,100.0
261,106.04556821875,106.26778988541668,63.0,69.0
262,105.71223571875001,106.55251139583333,51.0,89.0
263,106.37890071875,107.333065,75.0,99.0
264,105.37890321875001,107.3747315625,39.0,96.0
265,107.37889821875001,107.79139718750001,63.0,93.0
266,107.71223071875,107.80111938541667,39.0,27.0
267,107.04556571875001,107.883063625,51.0,38.0
268,106.37890071875,107.90945244791668,67.0,92.0
269,106.37890071875,107.9330635,70.0,86.0
270,107.71223071875,107.97889671875001,75.0,82.0
271,108.04556321875,108.11361860416667,39.0,102.0
272,108.04556321875,108.16778513541668,67.0,69.0
273,108.04556321875,108.54695085416667,63.0,99.0
274,108.04556321875,108.799728,75.0,79.0
275,108.04556321875,108.83167236458334,70.0,70.0
276,108.71222821875,108.90944994791667,63.0,43.0
277,109.04556071875001,109.42889309375,75.0,96.0
278,109.37889321875001,109.55111501041667,63.0,38.0
279,109.04556071875001,109.66500361458334,67.0,88.0
280,109.04556071875001,109.74417008333334,70.0,82.0
281,109.71222571875,109.77750333333334,55.0,40.0
282,109.71222571875,109.87194754166667,58.0,63.0
283,110.04555821875,110.65944557291667,74.0,74.0
284,110.37889071875,110.67055665625,63.0,53.0
285,110.04555821875,110.683056625,67.0,85.0
286,110.04555821875,110.7080565625,70.0,72.0
287,111.04555571875001,112.14416408333334,58.0,93.0
288,111.37888821875,112.20110838541667,62.0,81.0
289,112.37888571875001,112.56777413541667,58.0,63.0
290,110.71222321875001,112.71499598958334,46.0,99.0
291,113.04555071875001,113.349716625,45.0,74.0
292,111.71222071875,113.38721653125,70.0,127.0
293,112.71221821875001,113.41916089583334,65.0,89.0
294,114.04554821875,114.34276969791668,55.0,97.0
295,113.71221571875,114.84693510416668,50.0,76.0
296,115.04554571875,115.18165648958333,50.0,50.0
297,114.37888071875001,115.24832298958334,58.0,107.0
298,113.37888321875,115.29554509375001,43.0,86.0
299,114.37888071875001,115.34971162500001,62.0,93.0
300,116.04554321875001,116.44831998958334,60.0,72.0
301,116.04554321875001,116.78443026041667,63.0,82.0
302,116.04554321875001,116.81776351041667,67.0,73.0
303,116.71220821875,117.35942882291667,48.0,83.0
304,117.04554071875,117.8247054375,63.0,117.0
305,117.04554071875,117.82609432291667,67.0,95.0
306,116.04554321875001,117.88026085416668,36.0,66.0
307,116.37887571875001,117.96359397916667,43.0,52.0
308,117.71220571875001,118.00387165625001,48.0,52.0
309,118.04553821875001,118.56637025,67.0,97.0
310,118.04553821875001,118.66220334375001,63.0,122.0
311,118.71220321875,119.01220246875,60.0,86.0
312,118.71220321875,119.09414670833334,69.0,95.0
313,118.71220321875,119.10386890625,65.0,93.0
314,119.71220071875001,120.00942219791668,60.0,60.0
315,119.37886821875,120.19136618750001,53.0,89.0
316,118.71220321875,120.61080958333334,41.0,78.0
317,119.04553571875,120.69553159375,48.0,57.0
318,120.04553321875001,120.73580927083334,65.0,117.0
319,120.04553321875001,120.73858704166668,69.0,117.0
320,120.37886571875,120.77053140625,53.0,85.0
321,120.71219821875,120.816364625,60.0,88.0
322,121.37886321875001,122.13997242708334,65.0,97.0
323,121.37886321875001,122.19552784375,70.0,117.0
324,122.04552821875001,122.24830548958334,62.0,69.0
325,121.71219571875001,122.71774876041667,58.0,99.0
326,122.37886071875,123.22330305208334,65.0,102.0
327,122.37886071875,123.23302525000001,70.0,127.0
328,123.37885821875001,123.41358035416667,65.0,72.0
329,123.37885821875001,123.43719140625001,70.0,72.0
330,123.37885821875001,123.43858029166667,62.0,92.0
331,121.37886321875001,123.62746870833334,46.0,127.0
332,123.04552571875,123.75246839583335,58.0,76.0
333,124.37885571875,124.46218884375001,86.0,97.0
334,124.37885571875,124.46913327083334,74.0,112.0
335,124.04552321875,124.53024422916667,58.0,107.0
336,125.04552071875001,125.12052053125001,84.0,85.0
337,125.04552071875001,125.149687125,72.0,89.0
338,124.71218821875,125.18718703125,58.0,97.0
339,125.37885321875001,125.45663080208334,86.0,92.0
340,125.37885321875001,125.47607519791667,74.0,102.0
341,125.37885321875001,125.92329630208334,58.0,117.0
342,124.04552321875,125.93162961458334,46.0,102.0
343,126.04551821875,126.12746245833334,68.0,95.0
344,126.71218321875001,127.04551571875001,63.0,79.0
345,126.71218321875001,127.30523729166667,67.0,76.0
346,126.71218321875001,127.64690310416667,70.0,81.0
347,127.37884821875001,127.88023585416667,63.0,67.0
348,127.04551571875001,128.2594015729167,51.0,66.0
349,127.71218071875,128.72051153125,75.0,100.0
350,126.71218321875001,128.75245589583335,39.0,96.0
351,128.37884571875,128.76634475,51.0,63.0
352,128.71217821875,129.08856616666668,63.0,72.0
353,127.71218071875,129.17884371875002,67.0,59.0
354,127.71218071875,129.2635657291667,70.0,53.0
355,129.04551071875,129.28578789583335,75.0,49.0
356,129.37884321875,129.45106526041667,39.0,96.0
357,129.37884321875,130.17328567708333,63.0,77.0
358,129.37884321875,130.23856329166668,67.0,76.0
359,129.37884321875,130.28439651041668,75.0,99.0
360,129.37884321875,130.49828486458335,70.0,67.0
361,130.37884071875,130.59689572916668,63.0,63.0
362,131.04550571875,131.14828323958335,58.0,89.0
363,131.04550571875,131.18856091666666,51.0,22.0
364,130.71217321875,131.34550496875002,67.0,93.0
365,130.71217321875,131.36494936458334,75.0,112.0
366,130.71217321875,131.42189366666668,70.0,95.0
367,131.37883821875002,131.466338,63.0,99.0
368,132.04550321875,132.82327905208334,62.0,107.0
369,132.04550321875,132.93022322916667,65.0,99.0
370,132.04550321875,132.93577877083334,69.0,96.0
371,132.71216821875,133.57327717708333,50.0,90.0
372,133.04550071875002,133.94688735416668,65.0,100.0
373,132.04550321875,134.0079983125,38.0,63.0
374,132.37883571875,134.07327592708333,45.0,72.0
375,133.71216571875001,134.149664625,50.0,45.0
376,133.04550071875002,134.15938682291667,69.0,99.0
377,134.04549821875,134.16216459375002,65.0,64.0
378,134.04549821875,134.19827561458334,62.0,89.0
379,134.71216321875002,134.816329625,62.0,76.0
380,134.71216321875002,134.83577402083333,67.0,93.0
381,134.71216321875002,134.8413295625,70.0,97.0
382,135.37882821875002,135.82049378125,55.0,90.0
383,135.04549571875,136.149659625,50.0,45.0
384,134.71216321875002,136.49826986458334,43.0,59.0
385,135.71216071875,136.58715853125,58.0,102.0
386,135.71216071875,136.63438063541668,62.0,90.0
387,137.37882321875,137.46910077083334,36.0,59.0
388,137.37882321875,138.08854366666668,60.0,71.0
389,137.37882321875,138.20521004166667,63.0,89.0
390,137.37882321875,138.20521004166667,67.0,73.0
391,138.04548821875,139.23298525,48.0,39.0
392,139.04548571875,139.24548521875002,55.0,36.0
393,138.37882071875,139.45659580208334,67.0,73.0
394,138.37882071875,139.45798468750002,63.0,96.0
395,139.37881821875,139.51770676041667,60.0,62.0
396,140.04548321875,140.71770376041667,60.0,83.0
397,140.04548321875,140.81909239583334,69.0,81.0
398,140.04548321875,140.83020347916667,65.0,85.0
399,140.71214821875,141.48714628125,53.0,69.0
400,140.04548321875,141.89686747916667,41.0,67.0
401,141.71214571875,141.90381190625,53.0,41.0
402,140.37881571875002,141.95381178125,48.0,61.0
403,141.04548071875,142.09408920833334,65.0,99.0
404,141.04548071875,142.11353360416666,69.0,95.0
405,142.04547821875002,142.13714465625,60.0,41.0
406,143.37880821875,143.79547384375002,62.0,66.0
407,143.04547571875,144.13019522916667,58.0,73.0
408,144.04547321875,144.57741633333333,62.0,46.0
409,142.71214321875001,144.84547121875002,46.0,81.0
410,143.71214071875002,144.8663045,70.0,117.0
411,144.37880571875002,144.88852666666668,58.0,61.0
412,144.71213821875,145.21213696875,65.0,85.0
413,145.37880321875,146.53852254166668,70.0,90.0
414,145.37880321875,146.5413003125,65.0,82.0
415,145.37880321875,146.65935557291667,62.0,77.0
416,147.04546571875,147.23574302083335,58.0,59.0
417,146.71213321875,147.40240927083335,70.0,122.0
418,145.37880321875,147.42185366666666,46.0,117.0
419,147.37879821875,147.49963125000002,65.0,74.0
420,148.04546321875,148.56212859375,58.0,93.0
421,148.04546321875,148.68018385416667,62.0,83.0
422,148.71212821875,149.15518266666666,55.0,96.0
423,148.37879571875,149.45657080208335,50.0,79.0
424,149.04546071875,149.46073745833334,58.0,117.0
425,149.04546071875,149.482959625,62.0,93.0
426,149.71212571875,149.98712503125,50.0,60.0
427,148.04546321875,150.03434713541668,43.0,69.0
428,150.04545821875,150.43990167708336,70.0,122.0
429,150.04545821875,150.4579571875,67.0,107.0
430,150.37879071875,150.56629025,62.0,70.0
431,150.71212321875,150.77740083333333,31.0,72.0
432,150.71212321875,150.97740033333335,62.0,79.0
433,150.71212321875,151.53434338541666,70.0,117.0
434,150.71212321875,151.54545446875,67.0,95.0
435,151.37878821875,151.56906552083333,62.0,50.0
436,151.71212071875001,152.54684085416667,67.0,90.0
437,151.71212071875001,152.82739570833334,70.0,102.0
438,152.71211821875002,152.85934007291667,67.0,63.0
439,153.37878321875002,153.95794843750002,70.0,89.0
440,153.37878321875002,154.049614875,63.0,100.0
441,153.37878321875002,154.09822586458336,67.0,92.0
442,154.04544821875,154.33433638541666,62.0,63.0
443,153.71211571875,154.8051685416667,51.0,90.0
444,154.37878071875002,155.46627800000002,63.0,107.0
445,154.37878071875002,155.50377790625,70.0,92.0
446,153.37878321875002,155.54405558333335,39.0,93.0
447,154.37878071875002,155.55655555208335,67.0,85.0
448,155.04544571875002,155.616277625,51.0,73.0
449,155.37877821875,155.65933307291667,62.0,83.0
450,155.71211071875,155.89822136458335,67.0,38.0
451,155.71211071875,155.91349910416668,70.0,55.0
452,156.04544321875,156.74821923958334,62.0,86.0
453,156.04544321875,156.81905239583335,67.0,89.0
454,156.04544321875,156.81905239583335,70.0,92.0
455,157.04544071875,157.89960525,67.0,112.0
456,157.71210571875,157.95238289583335,55.0,61.0
457,157.04544071875,157.96627175,70.0,127.0
458,156.04544321875,158.05377153125002,43.0,83.0
459,156.71210821875002,158.09543809375,50.0,56.0
460,158.04543821875,158.19266007291668,67.0,117.0
461,158.04543821875,158.19404895833335,70.0,122.0
462,158.37877071875002,158.44265944791667,62.0,31.0
463,158.71210321875,158.82599182291668,39.0,122.0
464,158.71210321875,159.25099076041667,70.0,93.0
465,158.71210321875,159.37876821875,63.0,112.0
466,158.71210321875,159.466268,67.0,96.0
467,159.37876821875,159.52321230208335,62.0,43.0
468,159.71210071875,160.36626575,63.0,127.0
469,159.71210071875,160.382932375,70.0,107.0
470,159.71210071875,160.399599,67.0,102.0
471,160.37876571875,160.60654292708335,58.0,61.0
472,160.71209821875001,160.7468203541667,70.0,89.0
473,160.71209821875001,160.82598682291666,67.0,100.0
474,160.71209821875001,160.82876459375,63.0,122.0
475,161.37876321875,161.4745963125,62.0,100.0
476,161.37876321875,161.482929625,67.0,107.0
477,161.37876321875,161.48570739583334,70.0,117.0
478,162.04542821875,162.21626112500002,55.0,96.0
479,161.71209571875002,163.00098138541668,50.0,90.0
480,162.37876071875002,163.14681435416668,55.0,97.0
481,162.37876071875002,163.17875871875,62.0,99.0
482,162.37876071875002,163.19403645833333,58.0,117.0
483,163.37875821875002,164.06208984375002,58.0,127.0
484,163.37875821875002,164.07458981250002,62.0,107.0
485,164.04542321875002,164.07458981250002,62.0,95.0
486,163.04542571875,164.07597869791667,50.0,66.0
487,163.71209071875,164.08431201041668,55.0,90.0
488,161.37876321875,164.13708965625,43.0,97.0
489,164.04542321875002,164.13708965625,43.0,96.0
490,164.04542321875002,164.65236614583335,67.0,97.0
491,164.04542321875002,164.65236614583335,70.0,107.0
492,165.37875321875,166.72180541666668,45.0,73.0
493,165.37875321875,166.72319430208333,69.0,95.0
494,165.37875321875,166.73291650000002,57.0,93.0
495,166.71208321875,167.28569289583334,74.0,57.0
496,166.71208321875,167.44541471875002,70.0,47.0
497,167.37874821875002,167.80374715625,65.0,42.0
498,167.04541571875,168.55930082291667,58.0,26.0
499,166.71208321875,169.10096613541668,46.0,89.0
500,167.71208071875,170.12179691666668,70.0,44.0
501,167.71208071875,170.16485236458334,74.0,52.0
502,172.04540321875,172.21901389583334,67.0,51.0
503,172.04540321875,172.30373590625,70.0,60.0
504,173.04540071875002,175.92456018750002,58.0,55.0
505,173.04540071875002,175.95233789583335,62.0,65.0
506,172.71206821875,176.18011510416667,55.0,41.0
507,172.37873571875002,176.23705940625,50.0,39.0
508,172.04540321875,176.24261494791668,43.0,64.0
509,177.37872321875,177.749555625,62.0,54.0
510,177.37872321875,177.99677722916667,69.0,68.0
511,177.37872321875,178.1078880625,70.0,46.0
512,178.04538821875002,180.82593682291667,62.0,35.0
513,178.37872071875,180.8745478125,70.0,48.0
514,180.71204821875,181.12038053125002,65.0,58.0
515,177.71205571875,181.46482411458334,58.0,57.0
516,181.04538071875,181.51482398958333,62.0,43.0
517,177.37872321875,181.73704565625002,46.0,75.0
518,181.71204571875,181.7884344166667,58.0,32.0
519,181.37871321875002,182.06898927083336,70.0,90.0
520,182.71204321875,182.81065408333333,58.0,63.0
521,182.71204321875,182.83565402083335,62.0,62.0
522,183.37870821875,184.21481723958334,55.0,58.0
523,183.71204071875002,185.13009272916668,67.0,65.0
524,184.37870571875,185.27592569791668,55.0,66.0
525,185.04537071875,185.28703678125,65.0,37.0
526,184.71203821875,185.49259182291667,62.0,58.0
527,183.71204071875002,186.47870046875002,70.0,47.0
528,185.37870321875002,186.50231152083333,67.0,16.0
529,183.04537571875002,186.8884216666667,50.0,32.0
530,185.37870321875002,186.9050882916667,55.0,59.0
531,182.71204321875,186.9842547604167,43.0,58.0
532,187.04536571875002,187.37592044791668,67.0,32.0
533,187.37869821875,187.43147586458335,62.0,33.0
534,188.04536321875,188.26480711458333,63.0,49.0
535,188.71202821875002,189.82313655208335,63.0,56.0
536,188.04536321875,189.98146948958333,39.0,95.0
537,188.37869571875,190.06063595833334,51.0,58.0
538,188.04536321875,190.10369140625002,67.0,68.0
539,190.04535821875,191.41202146875,63.0,48.0
540,189.04536071875,191.68146523958333,75.0,66.0
541,190.71202321875,192.0578531875,58.0,32.0
542,191.71202071875,192.25646380208335,63.0,52.0
543,190.71202321875,192.4884076666667,55.0,40.0
544,190.71202321875,192.51201871875,51.0,29.0
545,192.37868571875,192.58146298958334,58.0,35.0
546,190.37869071875002,192.6009073854167,67.0,17.0
547,192.04535321875002,192.70090713541668,75.0,95.0
548,188.04536321875,192.71201821875002,70.0,69.0
549,192.71201821875002,192.79812911458333,63.0,58.0
550,193.37868321875,194.10507029166666,65.0,73.0
551,193.37868321875,194.12729245833336,69.0,74.0
552,194.04534821875,194.40506954166668,62.0,51.0
553,193.71201571875002,194.94256819791667,50.0,35.0
554,193.37868321875,195.02173466666667,38.0,71.0
555,194.37868071875002,195.43562252083333,69.0,81.0
556,194.37868071875002,195.716177375,65.0,67.0
557,196.04534321875002,196.16062070833334,67.0,59.0
558,195.37867821875,196.17034290625,62.0,58.0
559,196.04534321875002,196.18562064583335,70.0,68.0
560,196.71200821875001,197.17589594791667,55.0,72.0
561,197.04534071875,197.44811748958335,58.0,63.0
562,196.37867571875,197.5245061875,50.0,40.0
563,197.71200571875002,197.90644967708334,50.0,35.0
564,196.04534321875002,197.96478286458336,43.0,52.0
565,197.37867321875,198.1217269166667,62.0,100.0
566,198.04533821875,198.37867071875002,58.0,127.0
567,198.37867071875002,198.62867009375,55.0,57.0
568,198.71200321875,199.66200084375,63.0,117.0
569,198.71200321875,199.66200084375,67.0,90.0
570,199.37866821875002,200.11199971875,48.0,39.0
571,199.71200071875,200.6633872291667,63.0,127.0
572,198.71200321875,200.67588719791667,36.0,77.0
573,199.71200071875,200.69255382291666,67.0,92.0
574,200.37866571875,200.75227589583335,48.0,66.0
575,200.71199821875,200.78977580208334,60.0,97.0
576,201.38838541666667,202.13838354166668,67.0,97.0
577,201.38699653125002,202.15227239583334,63.0,92.0
578,201.3911631875,202.17727233333335,70.0,96.0
579,202.36616075,203.1883809166667,70.0,95.0
580,202.36893852083335,203.22310305208333,67.0,95.0
581,202.36199409375,203.23282525000002,63.0,92.0
582,202.0550504166667,203.56337997916668,51.0,36.0
583,201.38421876041667,203.57449106250002,39.0,100.0
584,203.37171379166668,203.98143448958334,67.0,107.0
585,203.70643517708334,204.01060108333334,63.0,93.0
586,203.36893602083333,204.02310105208335,70.0,112.0
587,204.04532321875,204.13421188541668,53.0,76.0
588,204.04532321875,204.15087851041667,57.0,82.0
589,204.04532321875,204.16198959375,60.0,81.0
590,204.71198821875,205.44948637500002,53.0,75.0
591,205.71198571875001,205.96615175000002,53.0,40.0
592,205.04532071875002,206.03420713541666,60.0,61.0
593,205.37865321875,206.06059595833335,65.0,97.0
594,204.04532321875,206.38142848958336,41.0,75.0
595,206.37865071875,206.52865034375,69.0,33.0
596,206.04531821875,206.64809448958334,67.0,77.0
597,204.37865571875003,206.75087201041669,48.0,48.0
598,206.71198321875002,208.04531321875,41.0,62.0
599,206.71198321875002,208.04531321875,60.0,59.0
600,206.71198321875002,208.04531321875,65.0,65.0
601,206.71198321875002,208.04531321875,69.0,65.0
602,208.04531321875,208.50503429166668,40.0,86.0
603,208.04531321875,208.53142311458333,67.0,83.0
604,208.04531321875,208.56058970833334,64.0,71.0
605,208.04531321875,208.64114506250002,70.0,82.0
606,208.04531321875,209.19392145833334,61.0,112.0
607,210.04530821875002,210.44669610416668,55.0,75.0
608,210.37864071875,210.74252869791667,58.0,89.0
609,210.71197321875002,210.76891752083336,63.0,117.0
610,211.04530571875,211.41891589583335,63.0,31.0
611,209.37864321875,211.91197021875,39.0,100.0
612,209.71197571875,211.95780343750002,51.0,89.0
613,211.37863821875,211.95780343750002,70.0,112.0
614,212.04530321875,212.13974742708334,67.0,69.0
615,211.71197071875002,212.3078025625,63.0,42.0
616,212.71196821875,213.21335585416668,63.0,69.0
617,212.37863571875002,213.46057745833335,51.0,70.0
618,213.37863321875002,213.86752088541667,67.0,29.0
619,212.04530321875,214.00363165625,39.0,112.0
620,213.37863321875002,214.03140936458334,63.0,56.0
621,213.04530071875,214.11057583333334,75.0,90.0
622,214.04529821875002,214.12307580208335,67.0,61.0
623,212.04530321875,214.17724233333334,70.0,77.0
624,214.71196321875001,215.31196171875,70.0,112.0
625,214.71196321875001,215.43835029166667,74.0,96.0
626,215.37862821875,215.96196009375,65.0,86.0
627,215.04529571875,216.18695953125,58.0,99.0
628,216.37862571875002,216.55223639583335,58.0,79.0
629,214.71196321875001,216.63418063541667,46.0,100.0
630,216.04529321875,216.70640267708333,70.0,70.0
631,216.71195821875,217.06334622916668,69.0,107.0
632,215.71196071875002,217.39251207291667,74.0,117.0
633,217.04529071875,217.42028978125,70.0,89.0
634,217.37862321875002,217.51195621875002,67.0,77.0
635,218.04528821875002,218.39945400000002,55.0,96.0
636,217.71195571875,218.92861934375,50.0,59.0
637,217.37862321875002,219.23278525,43.0,92.0
638,218.37862071875,219.43695140625002,62.0,93.0
639,218.37862071875,219.44945137500002,58.0,107.0
640,220.04528321875,220.15500516666668,55.0,48.0
641,220.04528321875,220.25778268750003,60.0,76.0
642,220.04528321875,220.31750476041668,63.0,79.0
643,220.71194821875002,221.58694603125002,48.0,89.0
644,221.04528071875,221.93972292708335,63.0,117.0
645,221.04528071875,222.00638942708335,67.0,93.0
646,220.04528321875,222.1258335729167,36.0,72.0
647,220.37861571875,222.19805561458335,43.0,59.0
648,222.04527821875,222.45361053125,67.0,72.0
649,222.04527821875,222.49944375,63.0,127.0
650,222.37861071875002,222.582776875,60.0,48.0
651,221.71194571875,222.67860996875,48.0,61.0
652,222.71194321875,222.87722058333335,69.0,96.0
653,222.71194321875,222.87999835416667,65.0,93.0
654,223.37860821875,223.77305167708334,53.0,86.0
655,223.71194071875001,223.93555127083334,60.0,49.0
656,223.71194071875001,223.95082901041667,57.0,52.0
657,223.04527571875002,224.21749501041668,48.0,51.0
658,222.71194321875,224.44527221875,41.0,75.0
659,224.37860571875,224.47860546875,48.0,95.0
660,224.04527321875003,224.62721620833335,57.0,99.0
661,224.04527321875003,224.7341603854167,60.0,127.0
662,224.71193821875002,224.77304917708335,53.0,99.0
663,225.37860321875002,225.45221414583335,62.0,95.0
664,225.37860321875002,225.45638080208334,65.0,99.0
665,225.37860321875002,225.49943625,70.0,100.0
666,226.04526821875,226.20915669791668,65.0,41.0
667,225.71193571875,226.84943287500002,58.0,93.0
668,226.37860071875002,227.2424874479167,70.0,122.0
669,226.37860071875002,227.25359853125002,74.0,112.0
670,226.71193321875,227.25637630208334,65.0,59.0
671,227.37859821875,227.57165329166668,70.0,112.0
672,225.37860321875002,227.89665247916668,46.0,99.0
673,227.37859821875,227.90220802083334,74.0,102.0
674,227.71193071875,227.92720795833336,65.0,54.0
675,227.04526571875002,227.93415238541667,58.0,88.0
676,228.04526321875002,228.20081838541668,65.0,71.0
677,228.04526321875002,228.69387270833334,68.0,112.0
678,228.04526321875002,228.88415001041668,74.0,90.0
679,228.04526321875002,228.89664997916668,70.0,112.0
680,229.04526071875,229.18276037500002,74.0,65.0
681,229.04526071875,229.2466491041667,70.0,77.0
682,228.04526321875002,229.37859321875,46.0,117.0
683,228.71192821875002,229.37859321875,58.0,97.0
684,229.37859321875,229.94525846875,64.0,73.0
685,229.37859321875,229.96470286458336,67.0,95.0
686,229.37859321875,230.00498054166667,70.0,99.0
687,229.37859321875,230.06053595833333,40.0,79.0
688,230.04525821875,230.6244234375,43.0,89.0
689,230.71192321875,230.83553402083334,67.0,89.0
690,230.71192321875,231.44247694791667,70.0,79.0
691,230.71192321875,231.49247682291667,63.0,85.0
692,231.04525571875,231.53692115625,67.0,25.0
693,231.71192071875,231.88969805208333,63.0,72.0
694,231.37858821875002,231.8910869375,51.0,90.0
695,231.71192071875,232.5410853125,67.0,77.0
696,231.71192071875,232.56608525000001,75.0,86.0
697,230.71192321875,233.23552802083336,39.0,96.0
698,232.37858571875,233.41469423958335,51.0,48.0
699,232.71191821875001,233.48552739583334,63.0,86.0
700,232.71191821875001,233.53552727083334,67.0,36.0
701,233.04525071875003,233.55636055208333,75.0,100.0
702,231.71192071875,233.67024915625,70.0,71.0
703,234.04524821875,234.6049690416667,63.0,74.0
704,234.37858071875002,234.74802423958334,67.0,63.0
705,233.71191571875002,234.80219077083333,51.0,90.0
706,233.37858321875,235.07719008333333,39.0,96.0
707,235.04524571875,235.13135661458335,51.0,99.0
708,234.71191321875,235.3910781875,70.0,122.0
709,235.37857821875002,235.4299669791667,63.0,96.0
710,236.04524321875002,236.49801986458334,62.0,100.0
711,236.04524321875002,236.6132973541667,65.0,102.0
712,236.71190821875,236.91190771875,62.0,63.0
713,236.37857571875,237.54523946875003,58.0,86.0
714,237.71190571875002,237.89662747916668,58.0,79.0
715,237.04524071875002,238.01607162500002,65.0,97.0
716,237.04524071875002,238.07023815625,70.0,127.0
717,238.04523821875,238.0882936666667,62.0,93.0
718,236.04524321875002,238.16607125000002,46.0,100.0
719,238.71190321875002,238.816069625,58.0,93.0
720,238.71190321875002,238.83412513541668,62.0,89.0
721,239.37856821875002,240.4841210104167,55.0,82.0
722,239.71190071875,240.89661997916667,70.0,99.0
723,239.71190071875,240.90634217708336,67.0,90.0
724,239.04523571875,240.90911994791668,50.0,48.0
725,238.71190321875002,241.00356415625,43.0,74.0
726,241.37856321875,242.34106081250002,63.0,88.0
727,241.37856321875,243.17022540625,36.0,64.0
728,241.71189571875001,243.17161429166669,43.0,57.0
729,242.04522821875003,243.2174475104167,48.0,83.0
730,241.37856321875,243.37578044791667,67.0,74.0
731,242.37856071875,243.982723375,60.0,73.0
732,244.04522321875,244.12994522916668,69.0,90.0
733,244.04522321875,244.1549451666667,65.0,100.0
734,244.71188821875,245.5966082291667,53.0,81.0
735,244.04522321875,246.06882927083333,41.0,82.0
736,244.37855571875002,246.09521809375002,48.0,55.0
737,245.04522071875002,246.10771806250003,60.0,92.0
738,245.04522071875002,246.12855134375002,57.0,92.0
739,246.04521821875002,246.13549577083336,65.0,61.0
740,245.71188571875,246.15355128125,53.0,25.0
741,247.37854821875,247.816047125,62.0,67.0
742,247.04521571875,248.22576832291668,58.0,90.0
743,246.71188321875002,249.23271025000003,46.0,89.0
744,248.37854571875002,249.36604325000002,58.0,70.0
745,249.04521071875,249.37854321875002,62.0,56.0
746,248.71187821875,249.37854321875002,65.0,99.0
747,247.71188071875002,249.37854321875002,70.0,117.0
748,249.87854196875,250.0465971041667,62.0,96.0
749,249.37854321875002,250.08826366666668,65.0,92.0
750,249.37854321875002,250.132708,70.0,107.0
751,249.71187571875,250.182707875,58.0,100.0
752,250.21187446875,250.582706875,58.0,88.0
753,249.37854321875002,250.68826216666668,46.0,97.0
754,250.71187321875001,250.72853984375,70.0,99.0
755,250.71187321875001,251.43548252083335,64.0,86.0
756,250.71187321875001,252.01186996875,67.0,99.0
757,251.37853821875,252.01186996875,70.0,95.0
758,250.71187321875001,252.01325885416668,73.0,127.0
759,252.04520321875,252.42853559375,63.0,96.0
760,252.04520321875,252.6243684375,67.0,99.0
761,252.04520321875,252.90492329166668,70.0,100.0
762,252.71186821875003,252.93408988541668,63.0,69.0
763,252.37853571875002,253.21881139583334,51.0,89.0
764,253.04520071875,253.999365,75.0,99.0
765,252.04520321875,254.04103156250002,39.0,96.0
766,254.04519821875002,254.4576971875,63.0,93.0
767,254.37853071875,254.4674193854167,39.0,27.0
768,253.71186571875,254.549363625,51.0,38.0
769,253.04520071875,254.57575244791667,67.0,92.0
770,253.04520071875,254.5993635,70.0,86.0
771,254.37853071875,254.64519671875001,75.0,82.0
772,254.71186321875,254.77991860416668,39.0,102.0
773,254.71186321875,254.83408513541667,67.0,69.0
774,254.71186321875,255.2132508541667,63.0,99.0
775,254.71186321875,255.46602800000002,75.0,79.0
776,254.71186321875,255.49797236458335,70.0,70.0
777,255.37852821875,255.57574994791668,63.0,43.0
778,255.71186071875002,256.09519309375,75.0,96.0
779,256.04519321875,256.2174150104167,63.0,38.0
780,255.71186071875002,256.33130361458336,67.0,88.0
781,255.71186071875002,256.41047008333334,70.0,82.0
782,256.37852571875004,256.44380333333334,55.0,40.0
783,256.37852571875004,256.5382475416667,58.0,63.0
784,256.71185821875,257.3257455729167,74.0,74.0
785,257.04519071875,257.33685665625,63.0,53.0
786,256.71185821875,257.34935662500004,67.0,85.0
787,256.71185821875,257.3743565625,70.0,72.0
788,257.71185571875003,258.81046408333333,58.0,93.0
789,258.04518821875,258.8674083854167,62.0,81.0
790,259.04518571875,259.2340741354167,58.0,63.0
791,257.37852321875,259.38129598958335,46.0,99.0
792,259.71185071875,260.016016625,45.0,74.0
793,258.37852071875,260.05351653125,70.0,127.0
794,259.37851821875,260.08546089583336,65.0,89.0
795,260.71184821875,261.0090696979167,55.0,97.0
796,260.37851571875,261.51323510416665,50.0,76.0
797,261.71184571875,261.84795648958334,50.0,50.0
798,261.04518071875003,261.91462298958334,58.0,107.0
799,260.04518321875,261.96184509375,43.0,86.0
800,261.04518071875003,262.01601162500003,62.0,93.0
801,262.71184321875,263.11461998958333,60.0,72.0
802,262.71184321875,263.45073026041666,63.0,82.0
803,262.71184321875,263.48406351041666,67.0,73.0
804,263.37850821875,264.0257288229167,48.0,83.0
805,263.71184071875,264.4910054375,63.0,117.0
806,263.71184071875,264.49239432291665,67.0,95.0
807,262.71184321875,264.54656085416667,36.0,66.0
808,263.04517571875,264.6298939791667,43.0,52.0
809,264.37850571875003,264.67017165625003,48.0,52.0
810,264.71183821875,265.23267025,67.0,97.0
811,264.71183821875,265.32850334375,63.0,122.0
812,265.37850321875004,265.67850246875,60.0,86.0
813,265.37850321875004,265.76044670833335,69.0,95.0
814,265.37850321875004,265.77016890625003,65.0,93.0
815,266.37850071875,266.6757221979167,60.0,60.0
816,266.04516821875,266.8576661875,53.0,89.0
817,265.37850321875004,267.27710958333336,41.0,78.0
818,265.71183571875,267.36183159375,48.0,57.0
819,266.71183321875003,267.40210927083336,65.0,117.0
820,266.71183321875003,267.40488704166665,69.0,117.0
821,267.04516571875,267.43683140625,53.0,85.0
822,267.37849821875,267.48266462500004,60.0,88.0
823,268.04516321875,268.80627242708334,65.0,97.0
824,268.04516321875,268.86182784375,70.0,117.0
825,268.71182821875004,268.9146054895833,62.0,69.0
826,268.37849571875,269.3840487604167,58.0,99.0
827,269.04516071875,269.8896030520834,65.0,102.0
828,269.04516071875,269.89932525,70.0,127.0
829,270.04515821875003,270.0798803541667,65.0,72.0
830,270.04515821875003,270.10349140625,70.0,72.0
831,270.04515821875003,270.1048802916667,62.0,92.0
832,268.04516321875,270.29376870833335,46.0,127.0
833,269.71182571875,270.41876839583335,58.0,76.0
834,271.04515571875004,271.12848884375,86.0,97.0
835,271.04515571875004,271.13543327083335,74.0,112.0
836,270.71182321875,271.1965442291667,58.0,107.0
837,271.71182071875,271.78682053125,84.0,85.0
838,271.71182071875,271.815987125,72.0,89.0
839,271.37848821875,271.85348703125004,58.0,97.0
840,272.04515321875,272.1229308020834,86.0,92.0
841,272.04515321875,272.1423751979167,74.0,102.0
842,272.04515321875,272.58959630208335,58.0,117.0
843,270.71182321875,272.59792961458334,46.0,102.0
844,272.71181821875,272.79376245833333,68.0,95.0
845,273.37848321875003,273.71181571875,63.0,79.0
846,273.37848321875003,273.97153729166666,67.0,76.0
847,273.37848321875003,274.3132031041667,70.0,81.0
848,274.04514821875,274.5465358541667,63.0,67.0
849,273.71181571875,274.9257015729167,51.0,66.0
850,274.37848071875004,275.38681153125003,75.0,100.0
851,273.37848321875003,275.4187558958333,39.0,96.0
852,275.04514571875,275.43264475,51.0,63.0
853,275.37847821875,275.75486616666666,63.0,72.0
854,274.37848071875004,275.84514371875,67.0,59.0
855,274.37848071875004,275.9298657291667,70.0,53.0
856,275.71181071875003,275.95208789583336,75.0,49.0
857,276.04514321875,276.1173652604167,39.0,96.0
858,276.04514321875,276.83958567708333,63.0,77.0
859,276.04514321875,276.9048632916667,67.0,76.0
860,276.04514321875,276.95069651041666,75.0,99.0
861,276.04514321875,277.16458486458333,70.0,67.0
862,277.04514071875,277.2631957291667,63.0,63.0
863,277.71180571875004,277.8145832395833,58.0,89.0
864,277.71180571875004,277.85486091666667,51.0,22.0
865,277.37847321875,278.01180496875,67.0,93.0
866,277.37847321875,278.03124936458335,75.0,112.0
867,277.37847321875,278.08819366666665,70.0,95.0
868,278.04513821875,278.13263800000004,63.0,99.0
869,278.71180321875,279.48957905208334,62.0,107.0
870,278.71180321875,279.5965232291667,65.0,99.0
871,278.71180321875,279.6020787708334,69.0,96.0
872,279.37846821875,280.23957717708333,50.0,90.0
873,279.71180071875,280.61318735416666,65.0,100.0
874,278.71180321875,280.6742983125,38.0,63.0
875,279.04513571875003,280.73957592708337,45.0,72.0
876,280.37846571875,280.815964625,50.0,45.0
877,279.71180071875,280.8256868229167,69.0,99.0
878,280.71179821875,280.82846459375,65.0,64.0
879,280.71179821875,280.8645756145834,62.0,89.0
880,281.37846321875,281.482629625,62.0,76.0
881,281.37846321875,281.50207402083333,67.0,93.0
882,281.37846321875,281.50762956250003,70.0,97.0
883,282.04512821875,282.48679378125,55.0,90.0
884,281.71179571875,282.815959625,50.0,45.0
885,281.37846321875,283.16456986458337,43.0,59.0
886,282.37846071875003,283.25345853125003,58.0,102.0
887,282.37846071875003,283.30068063541665,62.0,90.0
888,284.04512321875,284.13540077083337,36.0,59.0
889,284.04512321875,284.75484366666666,60.0,71.0
890,284.04512321875,284.8715100416667,63.0,89.0
891,284.04512321875,284.8715100416667,67.0,73.0
892,284.71178821875003,285.89928525,48.0,39.0
893,285.71178571875004,285.91178521875,55.0,36.0
894,285.04512071875,286.12289580208335,67.0,73.0
895,285.04512071875,286.1242846875,63.0,96.0
896,286.04511821875,286.1840067604167,60.0,62.0
897,286.65900557291667,289.41733201041666,41.0,90.0
898,286.65345003125003,289.4395541770833,65.0,73.0
899,286.6562278020833,289.45205414583336,60.0,79.0
900,286.65206114583333,289.46038745833334,69.0,72.0
901,289.68538689583335,290.64232894791667,58.0,72.0
902,289.98677503125003,290.7687175208334,62.0,44.0
903,289.36594325000004,291.849270375,46.0,83.0
904,290.98955030208333,291.90899244791666,58.0,37.0
905,291.32149391666667,292.0603809583333,65.0,61.0
906,290.32566307291665,292.082603125,69.0,65.0
907,291.63121536458334,292.0839920104167,62.0,39.0
908,292.649268375,293.13815604166666,57.0,39.0
909,292.31454698958333,293.43537752083336,58.0,68.0
910,293.67843246875003,293.98954280208335,58.0,40.0
911,291.9964922291667,294.5423191979167,46.0,88.0
912,293.9964872291667,294.7909296875,57.0,65.0
913,294.33537527083337,294.8756516979167,62.0,42.0
914,292.99510084375004,294.96454036458334,65.0,65.0
915,294.97842921875,298.55619805208335,58.0,43.0
916,297.77286667708336,298.55619805208335,58.0,60.0
917,295.3256505729167,298.6673088854167,57.0,35.0
918,296.7423136979167,298.68119773958335,62.0,31.0
919,297.7923110729167,298.68119773958335,62.0,57.0
920,295.66453861458336,298.74230869791666,65.0,63.0
921,297.77703333333335,298.74230869791666,65.0,66.0
922,294.69509659375,298.7548086666667,46.0,69.0
923,297.7756444479167,301.94507846875,34.0,82.0
