,start,end,pitch,velocity
0,8.305484,8.50238125,72.0,85.0
1,8.59188,8.767297549999999,72.0,91.0
2,8.878276,9.0501136,71.0,89.0
3,9.164672,9.312643266666665,69.0,90.0
4,9.451068,10.379468366666666,67.0,88.0
5,10.596651999999999,10.791162616666666,67.0,83.0
6,10.883047999999999,11.091878416666665,67.0,85.0
7,11.169443999999999,11.356794716666666,69.0,86.0
8,11.455839999999998,11.630064233333332,71.0,85.0
9,11.742235999999998,12.241042366666665,72.0,86.0
10,12.315028,12.742235366666666,64.0,90.0
11,13.174216,13.409299383333332,64.0,93.0
12,13.460612,13.674215683333331,65.0,85.0
13,13.747008,13.948678516666666,67.0,84.0
14,14.033403999999999,16.430777183333333,69.0,85.0
15,17.470156,17.66705325,72.0,85.0
16,17.756552,17.931969549999998,72.0,91.0
17,18.042948,18.2147856,71.0,89.0
18,18.329344,18.477315266666665,69.0,90.0
19,18.61574,19.544140366666664,67.0,88.0
20,19.761324,19.955834616666664,67.0,83.0
21,20.047719999999998,20.256550416666666,67.0,85.0
22,20.334115999999998,20.521466716666666,69.0,86.0
23,20.620511999999998,20.79473623333333,71.0,85.0
24,20.906907999999998,21.405714366666665,72.0,86.0
25,21.479699999999998,21.906907366666665,64.0,90.0
26,22.338887999999997,22.57397138333333,64.0,93.0
27,22.625283999999997,22.838887683333333,65.0,85.0
28,22.911679999999997,23.113350516666664,67.0,84.0
29,23.198075999999997,25.595449183333333,69.0,85.0
30,26.348432,26.507143116666665,69.0,86.0
31,26.634828,26.831725249999998,69.0,84.0
32,26.921224,27.110961349999997,69.0,86.0
33,27.20762,27.643180583333333,76.0,88.0
34,27.780412,28.350817366666664,74.0,90.0
35,28.353203999999998,28.486855466666665,71.0,87.0
36,28.639599999999998,28.819790816666664,69.0,85.0
37,28.925995999999998,29.6205063,67.0,84.0
38,30.357975999999997,30.584706166666663,67.0,84.0
39,30.644371999999997,30.856782366666664,64.0,85.0
40,30.930767999999997,31.184944449999996,67.0,85.0
41,31.217163999999997,31.42838105,64.0,88.0
42,31.503559999999997,31.72074363333333,67.0,86.0
43,31.789955999999997,32.22909653333333,74.0,93.0
44,32.362747999999996,33.87587353333333,72.0,85.0
45,35.513104,35.68136165,69.0,86.0
46,35.799499999999995,35.97014428333333,69.0,85.0
47,36.085896,36.298306366666665,69.0,84.0
48,36.372291999999995,36.76011991666666,76.0,86.0
49,36.945083999999994,37.307852266666664,74.0,93.0
50,37.517875999999994,37.69329355,71.0,85.0
51,37.804272,37.988042766666666,69.0,85.0
52,38.090667999999994,39.090667366666665,67.0,89.0
53,39.236252,39.4438891,67.0,86.0
54,39.522648,39.67897248333333,76.0,87.0
55,39.809044,39.96298185,77.0,78.0
56,40.095439999999996,40.238637999999995,76.0,86.0
57,40.381836,40.56680008333333,77.0,82.0
58,40.668231999999996,41.081119566666665,76.0,85.0
59,41.241023999999996,41.405701699999995,71.0,88.0
60,41.52742,42.751762899999996,72.0,85.0
61,42.959399999999995,43.18016358333333,72.0,85.0
62,43.245796,43.374674199999994,71.0,85.0
63,43.532191999999995,43.655103616666665,72.0,90.0
64,43.818588,44.00235876666666,64.0,88.0
65,44.104983999999995,44.54054458333333,65.0,84.0
66,44.677775999999994,44.81262078333333,64.0,84.0
67,44.964172,45.43911203333333,65.0,88.0
68,45.823359999999994,46.10736936666666,76.0,88.0
69,46.109756,47.53934936666666,74.0,86.0
70,48.11452799999999,48.34603143333333,72.0,84.0
71,48.400923999999996,51.01309418333333,72.0,90.0
72,51.837675999999995,52.04173315,67.0,88.0
73,52.124072,52.31977593333333,77.0,91.0
74,52.410467999999995,52.587078866666666,76.0,91.0
75,52.696864,52.86750828333333,74.0,100.0
76,52.983259999999994,54.007125699999996,76.0,93.0
77,54.128843999999994,54.294715016666665,67.0,85.0
78,54.41524,54.640776849999995,76.0,93.0
79,54.70163599999999,54.85557385,74.0,95.0
80,54.988032,55.22550201666666,72.0,84.0
81,55.27442799999999,55.9689383,74.0,87.0
82,55.84721999999999,56.50712411666666,67.0,85.0
83,56.706407999999996,56.89375871666666,67.0,88.0
84,56.99280399999999,57.1574817,69.0,86.0
85,57.279199999999996,57.44984428333333,71.0,85.0
86,57.56559599999999,57.995189999999994,72.0,86.0
87,58.13838799999999,58.26607288333333,71.0,83.0
88,58.424783999999995,58.58349511666666,72.0,85.0
89,58.71118,58.86750448333333,71.0,85.0
90,58.997575999999995,59.354377683333325,72.0,85.0
91,59.570367999999995,59.78397168333333,64.0,85.0
92,59.856764,60.80783738333333,69.0,85.0
93,61.002348,61.21356504999999,67.0,89.0
94,61.288743999999994,61.478481349999996,77.0,90.0
95,61.57514,61.739817699999996,76.0,86.0
96,61.861535999999994,62.02621369999999,74.0,89.0
97,62.147932,63.11571181666666,76.0,87.0
98,63.293516,63.46416028333333,67.0,85.0
99,63.57991199999999,63.73862311666666,76.0,86.0
100,63.866308,64.04172555,74.0,83.0
101,64.152704,64.31260843333332,72.0,85.0
102,64.4391,64.87943385,74.0,90.0
103,65.01189199999999,65.3842068,67.0,86.0
104,65.87107999999999,66.03337106666666,67.0,88.0
105,66.15747599999999,66.33886013333333,69.0,86.0
106,66.443872,66.61332296666666,71.0,84.0
107,66.730268,67.24578079999999,72.0,88.0
108,67.30305999999999,67.47251096666666,71.0,86.0
109,67.589456,67.82811933333333,72.0,87.0
110,67.875852,68.08110246666666,71.0,87.0
111,68.16224799999999,68.35795193333333,72.0,85.0
112,68.448644,68.68014743333333,81.0,82.0
113,68.73504,68.96177016666667,76.0,76.0
114,69.021436,70.23384573333333,79.0,85.0
115,70.739812,70.94148251666667,76.0,89.0
116,71.026208,71.16821268333332,77.0,86.0
117,71.312604,71.70639849999999,79.0,86.0
118,71.885396,72.03933384999999,72.0,80.0
119,72.171792,72.38181573333333,72.0,85.0
120,72.45818799999999,72.78157681666666,72.0,88.0
121,73.03098,73.16463146666666,79.0,85.0
122,73.317376,73.49279354999999,72.0,87.0
123,73.60377199999999,74.72429634999999,72.0,86.0
124,75.608544,75.78276823333333,72.0,86.0
125,75.89493999999999,76.63837628333333,72.0,86.0
126,76.754128,76.93909208333332,72.0,88.0
127,77.04052399999999,77.49517764999999,72.0,85.0
128,77.613316,78.04887658333332,74.0,91.0
129,78.18610799999999,79.07512891666666,74.0,95.0
130,79.33169199999999,79.53574914999999,67.0,88.0
131,79.618088,79.81379193333332,77.0,91.0
132,79.904484,80.08109486666666,76.0,91.0
133,80.19087999999999,80.36152428333332,74.0,100.0
134,80.47727599999999,81.50114169999999,76.0,93.0
135,81.62285999999999,81.78873101666666,67.0,85.0
136,81.909256,82.13479285,76.0,93.0
137,82.195652,82.34958984999999,74.0,95.0
138,82.48204799999999,82.71951801666665,72.0,84.0
139,82.76844399999999,83.46295429999999,74.0,87.0
140,83.341236,84.00114011666666,67.0,85.0
141,84.200424,84.38777471666666,67.0,88.0
142,84.48682,84.6514977,69.0,86.0
143,84.77321599999999,84.94386028333332,71.0,85.0
144,85.05961199999999,85.489206,72.0,86.0
145,85.632404,85.76008888333332,71.0,83.0
146,85.91879999999999,86.07751111666666,72.0,85.0
147,86.20519599999999,86.36152048333332,71.0,85.0
148,86.491592,86.84839368333333,72.0,85.0
149,87.06438399999999,87.27798768333332,64.0,85.0
150,87.35077999999999,88.30185338333332,69.0,85.0
151,88.496364,88.70758104999999,67.0,89.0
152,88.78276,88.97249735,77.0,90.0
153,89.06915599999999,89.23383369999999,76.0,86.0
154,89.35555199999999,89.52022969999999,74.0,89.0
155,89.641948,90.071542,76.0,87.0
156,90.071542,90.20400015,74.0,82.0
157,90.21473999999999,90.67536023333332,72.0,86.0
158,90.787532,90.95817628333333,67.0,85.0
159,91.073928,91.23263911666666,76.0,86.0
160,91.36032399999999,91.53574155,74.0,83.0
161,91.64671999999999,91.80662443333333,72.0,85.0
162,91.933116,92.37344984999999,74.0,90.0
163,92.50590799999999,92.87822279999999,67.0,86.0
164,93.365096,93.52738706666666,67.0,88.0
165,93.65149199999999,93.83287613333333,69.0,86.0
166,93.93788799999999,94.10733896666666,71.0,84.0
167,94.224284,94.7397968,72.0,88.0
168,94.79707599999999,94.96652696666666,71.0,86.0
169,95.08347199999999,95.32213533333332,72.0,87.0
170,95.369868,95.57511846666667,71.0,87.0
171,95.656264,95.85196793333333,72.0,85.0
172,95.94265999999999,96.17416343333332,81.0,82.0
173,96.22905599999999,96.45578616666666,76.0,76.0
174,96.515452,97.72786173333333,79.0,85.0
175,98.23382799999999,98.43549851666666,76.0,89.0
176,98.520224,98.66222868333332,77.0,86.0
177,98.80662,99.2004145,79.0,86.0
178,99.37941199999999,99.53334985,72.0,80.0
179,99.665808,99.87583173333333,72.0,85.0
180,99.952204,100.27559281666666,79.0,88.0
181,100.52499599999999,100.65864746666666,72.0,85.0
182,100.811392,100.98680954999999,72.0,87.0
183,101.097788,102.21831234999999,72.0,86.0
184,102.52976799999999,103.48442133333333,74.0,86.0
185,103.388956,103.67535199999999,72.0,87.0
186,103.67535199999999,106.03215241666666,72.0,85.0
187,117.99515199999999,118.15386311666666,69.0,86.0
188,118.28154799999999,118.47844525,69.0,84.0
189,118.567944,118.75768134999998,69.0,86.0
190,118.85434,119.28990058333332,76.0,88.0
191,119.42713199999999,119.99753736666666,74.0,90.0
192,119.999924,120.13357546666666,71.0,87.0
193,120.28631999999999,120.46651081666666,69.0,85.0
194,120.57271599999999,121.26722629999999,67.0,84.0
195,122.004696,122.23142616666665,67.0,84.0
196,122.29109199999999,122.50350236666665,64.0,85.0
197,122.57748799999999,122.83166444999999,67.0,85.0
198,122.86388399999998,123.07510104999999,64.0,88.0
199,123.15028,123.36746363333333,67.0,86.0
200,123.43667599999999,123.87581653333332,74.0,93.0
201,124.00946799999998,125.52259353333332,72.0,85.0
202,127.15982399999999,127.32808164999999,69.0,86.0
203,127.44622,127.61686428333333,69.0,85.0
204,127.732616,127.94502636666665,69.0,84.0
205,128.019012,128.40683991666666,76.0,86.0
206,128.591804,128.95457226666664,74.0,93.0
207,129.164596,129.34001354999998,71.0,85.0
208,129.45099199999999,129.63476276666665,69.0,85.0
209,129.73738799999998,130.73738736666667,67.0,89.0
210,130.882972,131.0906091,67.0,86.0
211,131.169368,131.3256924833333,76.0,87.0
212,131.455764,131.60970185,77.0,78.0
213,131.74215999999998,131.885358,76.0,86.0
214,132.02855599999998,132.21352008333332,77.0,82.0
215,132.31495199999998,132.72783956666666,76.0,85.0
216,132.887744,133.0524217,71.0,88.0
217,133.17414,134.39848289999998,72.0,85.0
218,134.60611999999998,134.8268835833333,72.0,85.0
219,134.892516,135.0213942,71.0,85.0
220,135.178912,135.30182361666667,72.0,90.0
221,135.465308,135.64907876666666,64.0,88.0
222,135.751704,136.18726458333333,65.0,84.0
223,136.32449599999998,136.45934078333332,64.0,84.0
224,136.61089199999998,137.08583203333333,65.0,88.0
225,137.47008,137.75408936666665,76.0,88.0
226,137.756476,139.18606936666666,74.0,86.0
227,139.761248,139.99275143333332,72.0,84.0
228,140.047644,142.6598141833333,72.0,90.0
229,143.48439599999998,143.68845315,67.0,88.0
230,143.770792,143.96649593333333,77.0,91.0
231,144.057188,144.23379886666666,76.0,91.0
232,144.343584,144.51422828333332,74.0,100.0
233,144.62998,145.65384569999998,76.0,93.0
234,145.77556399999997,145.94143501666665,67.0,85.0
235,146.06196,146.28749685,76.0,93.0
236,146.348356,146.50229385,74.0,95.0
237,146.634752,146.87222201666665,72.0,84.0
238,146.921148,147.61565829999998,74.0,87.0
239,147.49393999999998,148.15384411666665,67.0,85.0
240,148.353128,148.54047871666666,67.0,88.0
241,148.639524,148.8042017,69.0,86.0
242,148.92592,149.09656428333332,71.0,85.0
243,149.212316,149.64191,72.0,86.0
244,149.78510799999998,149.9127928833333,71.0,83.0
245,150.07150399999998,150.23021511666664,72.0,85.0
246,150.3579,150.51422448333332,71.0,85.0
247,150.644296,151.0010976833333,72.0,85.0
248,151.217088,151.43069168333332,64.0,85.0
249,151.503484,152.4545573833333,69.0,85.0
250,152.649068,152.86028505,67.0,89.0
251,152.935464,153.12520135,77.0,90.0
252,153.22186,153.3865377,76.0,86.0
253,153.508256,153.6729337,74.0,89.0
254,153.79465199999999,154.76243181666666,76.0,87.0
255,154.940236,155.11088028333333,67.0,85.0
256,155.226632,155.38534311666666,76.0,86.0
257,155.513028,155.68844554999998,74.0,83.0
258,155.799424,155.95932843333333,72.0,85.0
259,156.08581999999998,156.52615385,74.0,90.0
260,156.65861199999998,157.03092679999997,67.0,86.0
261,157.5178,157.68009106666665,67.0,88.0
262,157.804196,157.98558013333331,69.0,86.0
263,158.090592,158.26004296666665,71.0,84.0
264,158.37698799999998,158.8925008,72.0,88.0
265,158.94977999999998,159.11923096666666,71.0,86.0
266,159.236176,159.4748393333333,72.0,87.0
267,159.522572,159.72782246666665,71.0,87.0
268,159.808968,160.00467193333333,72.0,85.0
269,160.095364,160.32686743333332,81.0,82.0
270,160.38175999999999,160.60849016666666,76.0,76.0
271,160.66815599999998,161.88056573333333,79.0,85.0
272,162.386532,162.58820251666666,76.0,89.0
273,162.67292799999998,162.81493268333332,77.0,86.0
274,162.95932399999998,163.3531185,79.0,86.0
275,163.53211599999997,163.68605384999998,72.0,80.0
276,163.818512,164.0285357333333,72.0,85.0
277,164.104908,164.42829681666666,72.0,88.0
278,164.6777,164.81135146666665,79.0,85.0
279,164.96409599999998,165.13951354999998,72.0,87.0
280,165.25049199999998,166.37101635,72.0,86.0
281,166.682472,167.57745949999997,74.0,86.0
282,167.54165999999998,167.73259066666665,72.0,87.0
283,167.82805599999998,170.18485641666666,72.0,85.0
284,172.983184,173.17769461666666,69.0,88.0
285,173.26958,173.46528393333332,69.0,87.0
286,173.555976,174.00704969999998,69.0,88.0
287,174.12876799999998,174.3244719333333,69.0,89.0
288,174.41516399999998,174.8972639333333,71.0,88.0
289,174.987956,176.24571176666666,71.0,91.0
290,176.41993599999998,176.63711963333333,71.0,85.0
291,176.70633199999997,176.88771613333333,71.0,87.0
292,176.992728,177.44738164999998,71.0,91.0
293,177.56552,177.73616428333332,71.0,87.0
294,177.851916,178.46766739999998,71.0,86.0
295,178.71110399999998,179.05716583333333,71.0,84.0
296,178.99749999999997,179.47482666666664,72.0,86.0
297,179.42709399999998,179.60967144999998,71.0,86.0
298,179.570292,181.19320266666665,69.0,84.0
299,182.147856,182.29582726666666,69.0,91.0
300,182.434252,182.60966954999998,69.0,85.0
301,182.72064799999998,183.13950215,69.0,88.0
302,183.29343999999998,183.47005086666664,69.0,85.0
303,183.57983599999997,184.04880945,71.0,88.0
304,184.152628,185.25883255,71.0,91.0
305,185.58460799999997,186.06074134999997,67.0,91.0
306,186.1574,186.74928506666666,74.0,77.0
307,186.730192,186.89606301666666,76.0,85.0
308,187.01658799999998,189.24212358333332,76.0,98.0
309,189.30775599999998,189.51181315,69.0,88.0
310,189.59415199999998,189.7898559333333,79.0,91.0
311,189.88054799999998,190.05715886666664,78.0,91.0
312,190.16694399999997,190.33758828333333,76.0,100.0
313,190.45334,191.47720569999998,78.0,93.0
314,191.59892399999998,191.76479501666665,69.0,85.0
315,191.88531999999998,192.11085684999998,78.0,93.0
316,192.17171599999998,192.32565384999998,76.0,95.0
317,192.45811199999997,192.69558201666666,74.0,84.0
318,192.744508,193.4390183,76.0,87.0
319,193.3173,193.97720411666666,69.0,85.0
320,194.17648799999998,194.36383871666666,69.0,88.0
321,194.46288399999997,194.62756169999997,71.0,86.0
322,194.74927999999997,194.91992428333333,73.0,85.0
323,195.035676,195.46526999999998,74.0,86.0
324,195.608468,195.73615288333332,73.0,83.0
325,195.89486399999998,196.05357511666665,74.0,85.0
326,196.18125999999998,196.33758448333333,73.0,85.0
327,196.46765599999998,196.82445768333332,74.0,85.0
328,197.040448,197.25405168333333,66.0,85.0
329,197.326844,198.27791738333332,71.0,85.0
330,198.47242799999998,198.68364505,69.0,89.0
331,198.75882399999998,198.94856134999998,79.0,90.0
332,199.04521999999997,199.20989769999997,78.0,86.0
333,199.331616,199.4962937,76.0,89.0
334,199.618012,200.58579181666664,78.0,87.0
335,200.76359599999998,200.9342402833333,69.0,85.0
336,201.04999199999997,201.20870311666664,78.0,86.0
337,201.33638799999997,201.51180555,76.0,83.0
338,201.622784,201.7826884333333,74.0,85.0
339,201.90918,202.34951385,76.0,90.0
340,202.48197199999998,202.85428679999998,69.0,86.0
341,203.34115999999997,203.50345106666666,69.0,88.0
342,203.62755599999997,203.80894013333332,71.0,86.0
343,203.913952,204.08340296666665,73.0,84.0
344,204.200348,204.71586079999997,74.0,88.0
345,204.77313999999998,204.94259096666664,73.0,86.0
346,205.05953599999998,205.29819933333332,74.0,87.0
347,205.34593199999998,205.55118246666666,73.0,87.0
348,205.63232799999997,205.8280319333333,74.0,85.0
349,205.918724,206.15022743333333,83.0,82.0
350,206.20512,206.43185016666666,78.0,76.0
351,206.491516,207.7039257333333,81.0,85.0
352,208.209892,208.41156251666666,78.0,89.0
353,208.496288,208.6382926833333,79.0,86.0
354,208.782684,209.17647849999997,81.0,86.0
355,209.35547599999998,209.50941385,74.0,80.0
356,209.64187199999998,209.85189573333332,74.0,85.0
357,209.92826799999997,210.49867336666665,74.0,88.0
358,210.50106,210.63471146666666,81.0,85.0
359,210.787456,210.96287354999998,74.0,87.0
360,211.073852,212.19437634999997,74.0,86.0
361,213.078624,213.30058089999997,74.0,90.0
362,213.36502,214.14902905,74.0,88.0
363,214.22420799999998,214.38053248333333,74.0,100.0
364,214.51060399999997,214.92587819999997,74.0,91.0
365,215.083396,215.54282291666664,76.0,91.0
366,215.656188,216.65260741666665,76.0,91.0
367,216.80177199999997,217.00582914999998,69.0,88.0
368,217.088168,217.2838719333333,79.0,91.0
369,217.374564,217.55117486666666,78.0,91.0
370,217.66096,217.83160428333332,76.0,100.0
371,217.94735599999998,218.97122169999997,78.0,93.0
372,219.09293999999997,219.25881101666664,69.0,85.0
373,219.379336,219.60487285,78.0,93.0
374,219.665732,219.81966984999997,76.0,95.0
375,219.952128,220.18959801666665,74.0,84.0
376,220.23852399999998,220.93303429999997,76.0,87.0
377,220.81131599999998,221.47122011666664,69.0,85.0
378,221.670504,221.85785471666665,69.0,88.0
379,221.9569,222.1215777,71.0,86.0
380,222.243296,222.41394028333332,73.0,85.0
381,222.52969199999998,222.959286,74.0,86.0
382,223.10248399999998,223.2301688833333,73.0,83.0
383,223.38887999999997,223.54759111666664,74.0,85.0
384,223.67527599999997,223.83160048333332,73.0,85.0
385,223.961672,224.3184736833333,74.0,85.0
386,224.53446399999999,224.74806768333332,66.0,85.0
387,224.82085999999998,225.7719333833333,71.0,85.0
388,225.966444,226.17766104999998,69.0,89.0
389,226.25284,226.44257735,79.0,90.0
390,226.539236,226.7039137,78.0,86.0
391,226.82563199999998,226.99030969999998,76.0,89.0
392,227.11202799999998,227.541622,78.0,87.0
393,227.541622,227.70391306666664,76.0,75.0
394,227.68481999999997,228.11918726666664,74.0,84.0
395,228.257612,228.42825628333333,69.0,85.0
396,228.544008,228.70271911666666,78.0,86.0
397,228.830404,229.00582154999998,76.0,83.0
398,229.11679999999998,229.27670443333332,74.0,85.0
399,229.40319599999998,229.84352984999998,76.0,90.0
400,229.97598799999997,230.34830279999997,69.0,86.0
401,230.835176,230.99746706666664,69.0,88.0
402,231.121572,231.3029561333333,71.0,86.0
403,231.40796799999998,231.57741896666664,73.0,84.0
404,231.69436399999998,232.2098768,74.0,88.0
405,232.26715599999997,232.43660696666666,73.0,86.0
406,232.55355199999997,232.7922153333333,74.0,87.0
407,232.839948,233.04519846666665,73.0,87.0
408,233.126344,233.32204793333332,74.0,85.0
409,233.41273999999999,233.64424343333332,83.0,82.0
410,233.69913599999998,233.92586616666665,78.0,76.0
411,233.98553199999998,235.19794173333332,81.0,85.0
412,238.09412128333332,238.35426431666664,78.0,77.0
413,238.3948370833333,238.63111378333332,79.0,84.0
414,238.7277724333333,239.30653101666664,81.0,74.0
415,239.36261689999998,239.56428741666664,74.0,82.0
416,239.6800391333333,239.928249,74.0,85.0
417,239.98910815,240.8041434333333,81.0,82.0
418,240.81846323333332,241.0093939,74.0,85.0
419,241.11440576666664,241.3053364333333,74.0,85.0
420,241.4019950833333,242.99626614999997,74.0,85.0
421,243.47836608333333,244.36738699999998,76.0,85.0
422,244.34352066666665,245.011778,74.0,84.0
423,245.06189729999997,249.73731199999997,74.0,81.0
