,start,end,pitch,velocity
0,0.5286392833333333,1.2147963666666666,55.0,66.0
1,0.61217145,1.3603809999999998,60.0,79.0
2,1.4248200999999998,1.52863865,55.0,72.0
3,1.11336445,1.7673019833333332,43.0,70.0
4,0.5847251666666666,1.8424809333333332,36.0,84.0
5,1.6885430833333333,1.8651539499999998,55.0,87.0
6,1.6837698166666666,1.9057267166666665,60.0,87.0
7,1.6909297166666666,1.9940321499999998,64.0,86.0
8,1.9928388333333331,2.161096483333333,55.0,79.0
9,2.239855383333333,2.3269675,60.0,73.0
10,2.7398550666666663,3.1288763,55.0,79.0
11,2.8078741166666665,3.2649144,59.0,80.0
12,2.86038005,3.442718583333333,62.0,69.0
13,3.360379733333333,3.8019068999999996,55.0,76.0
14,3.6491623666666664,3.8806657999999996,59.0,71.0
15,3.661095533333333,3.911692033333333,62.0,67.0
16,3.6718353833333333,4.001190783333333,67.0,77.0
17,3.091883483333333,4.447491216666666,50.0,80.0
18,2.82458055,4.7291139499999995,43.0,84.0
19,5.060855983333333,6.01789595,43.0,72.0
20,5.056082716666666,6.034602383333333,55.0,70.0
21,4.8567988333333325,6.070401883333333,67.0,71.0
22,4.971357233333333,6.079948416666666,59.0,71.0
23,4.923624566666667,6.101428116666666,62.0,75.0
24,7.446295999999999,7.752978383333333,55.0,78.0
25,7.446295999999999,8.082333783333333,60.0,79.0
26,8.019088,8.231498366666665,55.0,65.0
27,8.59188,8.720758199999999,55.0,79.0
28,7.446295999999999,9.017894049999999,48.0,85.0
29,8.59188,9.195698233333333,64.0,85.0
30,9.164672,9.26849055,55.0,67.0
31,9.737464,9.835315966666666,55.0,63.0
32,9.737464,10.578752249999999,62.0,79.0
33,10.310255999999999,11.322188533333332,50.0,66.0
34,9.737464,11.392594216666666,43.0,80.0
35,10.883047999999999,11.490446183333333,67.0,80.0
36,10.883047999999999,11.516699149999999,62.0,80.0
37,11.455839999999998,11.575171666666666,55.0,86.0
38,12.028631999999998,12.571591083333333,60.0,76.0
39,12.028631999999998,12.693309383333332,57.0,70.0
40,12.601424,13.509537983333333,52.0,65.0
41,13.174216,13.522664466666665,57.0,79.0
42,13.174216,13.726721616666666,60.0,79.0
43,13.174216,13.749394633333333,64.0,85.0
44,12.028631999999998,13.855599816666665,45.0,79.0
45,13.747008,13.887819366666665,52.0,78.0
46,14.319799999999999,14.887818733333333,65.0,77.0
47,14.319799999999999,15.015503616666665,60.0,74.0
48,14.892591999999999,15.529823099999998,48.0,61.0
49,15.465383999999998,15.77683965,57.0,73.0
50,15.465383999999998,15.898557949999999,60.0,78.0
51,14.319799999999999,16.107388366666665,41.0,80.0
52,15.465383999999998,16.10858168333333,65.0,81.0
53,15.751779999999998,16.1312547,48.0,73.0
54,16.038176,16.218366816666666,57.0,73.0
55,16.610968,16.91765038333333,55.0,76.0
56,16.610968,17.210012966666664,60.0,76.0
57,17.18376,17.457029516666665,55.0,72.0
58,17.756552,18.183759366666663,60.0,84.0
59,16.610968,18.2147856,48.0,83.0
60,17.756552,18.458222199999998,64.0,85.0
61,18.329344,18.556074166666665,55.0,76.0
62,18.902136,19.398555733333332,59.0,74.0
63,18.902136,19.418842116666664,62.0,76.0
64,18.902136,19.421228749999997,55.0,77.0
65,19.474928,20.12289895,50.0,63.0
66,20.047719999999998,20.335309316666667,55.0,78.0
67,20.047719999999998,20.468960783333333,62.0,80.0
68,18.902136,20.721943916666664,43.0,80.0
69,20.334115999999998,20.822182516666665,50.0,69.0
70,20.620511999999998,20.972540416666664,60.0,78.0
71,20.906907999999998,21.223136916666665,59.0,81.0
72,21.193303999999998,21.630057899999997,60.0,76.0
73,21.193303999999998,21.695690316666663,57.0,77.0
74,21.766095999999997,22.64915033333333,52.0,58.0
75,21.193303999999998,22.704042899999997,45.0,83.0
76,22.338887999999997,22.735069133333333,60.0,81.0
77,22.338887999999997,22.809054766666666,64.0,85.0
78,22.911679999999997,23.686142516666663,57.0,77.0
79,23.484471999999997,24.400939199999996,65.0,80.0
80,24.343659999999996,24.55010378333333,57.0,77.0
81,24.630056,24.92003195,65.0,88.0
82,24.057263999999996,24.992824266666666,48.0,63.0
83,23.484471999999997,25.069196533333333,41.0,84.0
84,24.916452,25.22790765,64.0,77.0
85,25.202848,25.33769278333333,62.0,73.0
86,25.77564,25.94270433333333,57.0,77.0
87,25.77564,26.120508516666664,62.0,79.0
88,26.062036,26.37945823333333,57.0,73.0
89,26.348432,26.503563166666666,62.0,73.0
90,25.77564,27.43196353333333,50.0,83.0
91,26.921224,27.46776303333333,65.0,80.0
92,26.921224,27.552488516666664,57.0,81.0
93,27.494016,27.59664123333333,62.0,76.0
94,28.066807999999998,28.714778949999996,55.0,75.0
95,28.066807999999998,28.83172398333333,62.0,78.0
96,28.639599999999998,29.274444466666665,50.0,72.0
97,28.066807999999998,29.713585,43.0,81.0
98,29.498787999999998,29.74819118333333,50.0,83.0
99,29.212391999999998,29.76967088333333,59.0,93.0
100,29.785183999999997,29.92360873333333,55.0,87.0
101,30.357975999999997,30.910481616666665,55.0,78.0
102,30.357975999999997,31.386614966666663,52.0,80.0
103,31.503559999999997,31.705230516666663,55.0,87.0
104,30.930767999999997,31.711197099999996,47.0,66.0
105,31.503559999999997,32.088285166666665,59.0,87.0
106,30.357975999999997,32.1694307,40.0,85.0
107,32.076352,32.28160246666666,47.0,74.0
108,32.362747999999996,32.69806998333333,55.0,79.0
109,32.649144,33.51310526666666,57.0,84.0
110,33.221936,33.91883293333333,52.0,78.0
111,33.508331999999996,34.171816066666665,64.0,80.0
112,33.794728,34.20045566666666,57.0,87.0
113,34.081123999999996,34.42002593333333,52.0,82.0
114,32.649144,34.470145233333334,45.0,85.0
115,34.36752,34.50117146666666,57.0,78.0
116,34.36752,34.640789516666665,60.0,77.0
117,34.653915999999995,34.714775149999994,57.0,55.0
118,34.940312,35.54532355,57.0,73.0
119,34.940312,35.58231636666667,53.0,68.0
120,35.513104,36.16346158333333,48.0,73.0
121,36.085896,36.41167145,53.0,81.0
122,34.940312,36.559642716666666,41.0,84.0
123,36.085896,36.64794815,60.0,83.0
124,36.372291999999995,36.735060266666665,48.0,76.0
125,36.658688,36.97611023333333,53.0,79.0
126,36.945083999999994,37.225513416666665,60.0,73.0
127,37.23148,37.95940316666666,59.0,73.0
128,37.23148,38.101407849999994,55.0,78.0
129,37.804272,38.53219516666666,50.0,74.0
130,38.377064,38.645560249999996,55.0,84.0
131,38.377064,38.656300099999996,59.0,85.0
132,37.23148,38.70045281666666,43.0,85.0
133,38.377064,38.706419399999994,62.0,84.0
134,38.66345999999999,38.88899685,50.0,75.0
135,38.949856,39.33410396666666,43.0,83.0
136,39.522648,39.62169328333333,40.0,87.0
137,39.522648,40.132432816666665,64.0,85.0
138,39.522648,40.21954493333333,69.0,85.0
139,40.381836,40.53577385,64.0,88.0
140,40.095439999999996,40.75653743333333,59.0,83.0
141,40.668231999999996,40.936728249999994,69.0,90.0
142,40.668231999999996,40.9617879,64.0,90.0
143,39.809044,40.99162081666666,52.0,84.0
144,40.954628,41.12885223333333,59.0,72.0
145,41.241023999999996,41.43672793333333,64.0,87.0
146,41.241023999999996,41.54054648333333,68.0,84.0
147,41.813815999999996,42.15987783333333,64.0,79.0
148,41.813815999999996,42.46298026666666,69.0,78.0
149,42.386607999999995,42.624078016666665,64.0,73.0
150,42.100212,43.093051466666665,52.0,72.0
151,42.959399999999995,43.479686066666666,64.0,84.0
152,42.959399999999995,43.5465118,72.0,80.0
153,42.959399999999995,43.54889843333333,69.0,80.0
154,41.813815999999996,43.59782441666666,45.0,83.0
155,43.532191999999995,43.655103616666665,52.0,78.0
156,44.104983999999995,44.76966138333333,65.0,77.0
157,44.104983999999995,44.80784751666666,60.0,73.0
158,44.677775999999994,45.35677318333333,48.0,59.0
159,45.250567999999994,45.58588998333333,60.0,84.0
160,45.250567999999994,45.81739341666666,65.0,85.0
161,45.536964,45.91047211666666,48.0,54.0
162,44.104983999999995,45.91285875,41.0,84.0
163,45.823359999999994,45.99758423333333,60.0,80.0
164,45.250567999999994,46.02025724999999,69.0,83.0
165,46.396151999999994,47.127655116666666,67.0,76.0
166,46.396151999999994,47.17300115,62.0,76.0
167,47.54173599999999,47.86631813333333,62.0,83.0
168,46.96894399999999,47.94865698333333,50.0,62.0
169,46.396151999999994,48.15390745,43.0,83.0
170,47.54173599999999,48.18493368333333,71.0,84.0
171,47.54173599999999,48.584694766666665,67.0,81.0
172,48.11452799999999,48.608561099999996,62.0,68.0
173,48.68731999999999,48.77920538333333,36.0,80.0
174,49.260112,49.82813073333333,55.0,82.0
175,49.546507999999996,50.119299999999996,60.0,82.0
176,49.546507999999996,50.20402548333333,65.0,79.0
177,48.973715999999996,50.830516733333326,48.0,76.0
178,50.119299999999996,50.8424499,55.0,71.0
179,50.405696,50.867509549999994,62.0,78.0
180,50.978488,51.059633533333326,36.0,83.0
181,50.978488,51.50354733333333,55.0,84.0
182,50.978488,51.71834433333333,60.0,84.0
183,50.978488,51.8090364,64.0,85.0
184,51.837675999999995,52.0095136,55.0,79.0
185,52.124072,52.453427399999995,55.0,84.0
186,52.124072,52.647938016666664,62.0,80.0
187,52.410467999999995,52.794715966666665,50.0,76.0
188,52.124072,52.8329021,43.0,85.0
189,52.696864,52.85318848333333,55.0,85.0
190,53.269656,53.50235274999999,60.0,79.0
191,53.269656,53.66703045,67.0,80.0
192,53.269656,54.022638816666664,48.0,88.0
193,53.842448,54.09423781666666,60.0,88.0
194,54.41524,54.733855549999994,60.0,85.0
195,54.41524,55.066790899999994,67.0,73.0
196,54.41524,55.0954305,48.0,86.0
197,54.988032,55.14674311666666,60.0,90.0
198,54.41524,55.50831806666666,55.0,85.0
199,55.560824,55.757721249999996,59.0,83.0
200,55.560824,56.16702886666666,67.0,81.0
201,56.133615999999996,56.447458283333326,59.0,87.0
202,56.706407999999996,56.95939113333333,59.0,85.0
203,56.706407999999996,57.065596316666664,62.0,85.0
204,55.560824,57.23504728333333,55.0,65.0
205,55.560824,57.294713116666664,47.0,84.0
206,57.279199999999996,57.37705196666666,59.0,85.0
207,56.706407999999996,57.57872248333333,67.0,82.0
208,57.851991999999996,58.118101616666664,57.0,76.0
209,57.851991999999996,58.18134739999999,60.0,76.0
210,57.851991999999996,58.349605049999994,67.0,79.0
211,58.424783999999995,58.75294608333333,57.0,72.0
212,58.997575999999995,59.30306506666666,57.0,85.0
213,58.997575999999995,59.39017718333333,60.0,85.0
214,59.570367999999995,59.645546949999996,60.0,53.0
215,58.997575999999995,59.69208629999999,67.0,80.0
216,57.851991999999996,59.76965188333333,45.0,85.0
217,59.283972,59.778005099999994,52.0,75.0
218,59.570367999999995,59.818577866666665,57.0,87.0
219,60.143159999999995,60.76249135,53.0,80.0
220,60.143159999999995,61.05604724999999,60.0,82.0
221,60.143159999999995,61.14315936666666,41.0,89.0
222,61.002348,61.161059116666664,53.0,89.0
223,60.715951999999994,61.18731208333333,48.0,86.0
224,61.288743999999994,61.917621883333325,59.0,83.0
225,61.288743999999994,61.92478178333333,55.0,81.0
226,61.288743999999994,62.224304266666664,43.0,87.0
227,61.861535999999994,62.25771713333333,50.0,93.0
228,62.434327999999994,62.725497266666665,55.0,86.0
229,62.434327999999994,62.92597446666666,60.0,85.0
230,63.00711999999999,63.20282393333333,55.0,88.0
231,62.434327999999994,63.40926771666666,48.0,98.0
232,63.57991199999999,63.93910031666666,55.0,88.0
233,63.57991199999999,64.02740575,64.0,86.0
234,64.152704,64.4176203,60.0,90.0
235,64.4391,64.60974428333333,55.0,85.0
236,64.72549599999999,65.15986326666666,59.0,80.0
237,64.72549599999999,65.22072241666666,55.0,80.0
238,64.72549599999999,65.226689,62.0,79.0
239,65.298288,66.03337106666666,50.0,76.0
240,65.87107999999999,66.19208218333333,55.0,86.0
241,65.87107999999999,66.25174801666667,59.0,89.0
242,65.87107999999999,66.36511309999999,62.0,85.0
243,66.443872,66.61451628333333,55.0,85.0
244,64.72549599999999,66.81141353333332,43.0,85.0
245,66.15747599999999,66.90926549999999,50.0,70.0
246,67.01666399999999,67.53456343333333,60.0,84.0
247,67.01666399999999,67.57513619999999,57.0,83.0
248,67.589456,68.27799971666666,52.0,79.0
249,68.16224799999999,68.77441945,57.0,86.0
250,68.16224799999999,68.84482513333333,60.0,90.0
251,68.16224799999999,68.89375111666666,64.0,90.0
252,68.73504,68.95222363333333,52.0,88.0
253,67.01666399999999,68.95819021666667,45.0,86.0
254,69.021436,69.14315429999999,57.0,85.0
255,69.30783199999999,69.83289133333332,59.0,84.0
256,69.30783199999999,69.96176953333332,64.0,84.0
257,70.16702,70.28993161666666,59.0,83.0
258,70.45341599999999,70.72668551666666,67.0,84.0
259,70.45341599999999,70.87943005,59.0,86.0
260,70.45341599999999,70.88062336666665,64.0,88.0
261,69.30783199999999,71.0118882,40.0,88.0
262,69.880624,71.01308151666666,47.0,85.0
263,71.026208,71.13002655,64.0,80.0
264,71.026208,71.1550862,59.0,85.0
265,71.59899999999999,72.0071143,53.0,80.0
266,71.59899999999999,72.23503778333333,60.0,80.0
267,72.171792,72.85198249999999,48.0,78.0
268,72.74458399999999,73.10138568333333,53.0,85.0
269,72.74458399999999,73.35198218333333,57.0,85.0
270,72.74458399999999,73.37823515,60.0,85.0
271,73.317376,73.58467893333332,53.0,90.0
272,71.59899999999999,73.69088411666667,41.0,87.0
273,73.03098,73.72310366666666,48.0,85.0
274,73.89016799999999,74.44506025,55.0,83.0
275,73.89016799999999,74.46892658333333,52.0,85.0
276,74.46296,74.66105056666666,59.0,84.0
277,75.03575199999999,75.47250589999999,52.0,95.0
278,75.03575199999999,75.55961801666666,64.0,87.0
279,73.89016799999999,75.58467766666666,40.0,90.0
280,75.608544,75.71236255,52.0,80.0
281,75.608544,75.72668234999999,55.0,84.0
282,75.608544,75.76128853333333,59.0,80.0
283,76.18133599999999,76.4462523,57.0,79.0
284,76.18133599999999,76.76009458333333,62.0,80.0
285,76.754128,77.0333641,57.0,84.0
286,77.32691999999999,77.58944966666667,57.0,89.0
287,77.32691999999999,77.971311,65.0,85.0
288,76.18133599999999,78.04290999999999,50.0,89.0
289,77.899712,78.20878101666666,57.0,86.0
290,78.18610799999999,78.54529631666666,62.0,84.0
291,78.472504,79.34362516666665,55.0,90.0
292,79.045296,79.43193059999999,62.0,79.0
293,79.045296,79.72190655,50.0,82.0
294,79.618088,79.88061766666667,55.0,85.0
295,79.618088,79.94147681666666,67.0,84.0
296,79.618088,79.94863671666666,62.0,86.0
297,80.19087999999999,80.23025944999999,62.0,43.0
298,80.19087999999999,80.36629755,55.0,90.0
299,78.472504,80.36749086666666,43.0,85.0
300,79.904484,80.41045026666666,50.0,85.0
301,80.763672,80.99636874999999,55.0,86.0
302,80.763672,81.40448305,60.0,84.0
303,81.33646399999999,81.56796743333332,55.0,84.0
304,81.909256,82.20161858333333,55.0,85.0
305,81.909256,82.42954206666666,60.0,88.0
306,81.909256,82.53694056666666,64.0,88.0
307,80.763672,82.553647,48.0,89.0
308,82.48204799999999,82.84242963333332,55.0,85.0
309,82.76844399999999,83.02262044999999,60.0,84.0
310,83.05484,83.44505455,59.0,83.0
311,83.05484,83.72548396666666,64.0,84.0
312,84.200424,84.43908733333333,59.0,85.0
313,83.62763199999999,84.4510205,47.0,79.0
314,83.05484,84.49636653333333,40.0,86.0
315,84.200424,84.69087714999999,67.0,84.0
316,84.200424,84.7660561,64.0,90.0
317,84.77321599999999,84.89612761666666,59.0,89.0
318,85.346008,85.91879999999999,60.0,80.0
319,85.346008,85.93789306666666,57.0,79.0
320,85.91879999999999,86.59541055,52.0,77.0
321,86.491592,86.79708106666666,57.0,85.0
322,86.491592,86.87583996666666,64.0,93.0
323,86.491592,86.89015976666666,60.0,88.0
324,85.346008,87.05961073333333,45.0,85.0
325,86.777988,87.06319068333333,52.0,82.0
326,87.06438399999999,87.45459855,57.0,86.0
327,87.637176,88.31736649999999,60.0,80.0
328,87.637176,88.31855981666666,57.0,83.0
329,87.637176,88.37345238333333,41.0,84.0
330,88.20996799999999,88.43311821666666,48.0,80.0
331,88.78276,89.09302233333332,55.0,84.0
332,88.78276,89.15149484999999,59.0,83.0
333,89.06915599999999,89.74457323333333,50.0,85.0
334,88.78276,89.75769971666666,43.0,87.0
335,89.35555199999999,89.79230589999999,55.0,91.0
336,89.641948,89.8639049,59.0,86.0
337,89.928344,90.1789405,55.0,83.0
338,89.928344,90.71593299999999,60.0,84.0
339,90.50113599999999,90.82452481666665,55.0,82.0
340,91.073928,91.43788958333333,55.0,85.0
341,91.073928,91.7684383,60.0,84.0
342,91.073928,91.78991799999999,64.0,84.0
343,89.928344,92.04886771666666,48.0,86.0
344,91.64671999999999,92.25650481666666,55.0,86.0
345,91.933116,92.83884334999999,62.0,85.0
346,92.79230399999999,93.25411754999999,55.0,86.0
347,92.50590799999999,93.46772123333332,50.0,79.0
348,93.365096,93.69445139999999,55.0,85.0
349,93.365096,93.87941548333333,67.0,80.0
350,93.365096,94.01068031666667,62.0,86.0
351,92.219512,94.07869936666665,43.0,86.0
352,93.93788799999999,94.08824589999999,55.0,98.0
353,93.65149199999999,94.44982085,50.0,77.0
354,94.51068,95.10137175,57.0,80.0
355,94.51068,95.10137175,60.0,81.0
356,95.369868,95.47368655,57.0,74.0
357,95.08347199999999,95.77678898333332,52.0,80.0
358,95.656264,95.98681271666666,57.0,84.0
359,95.656264,96.02261221666666,64.0,88.0
360,94.51068,96.30065499999999,45.0,86.0
361,95.94265999999999,96.30900821666665,52.0,80.0
362,96.22905599999999,96.41998666666666,60.0,90.0
363,96.22905599999999,96.46533269999999,57.0,86.0
364,96.80184799999999,97.41998603333333,60.0,79.0
365,97.37463999999999,98.11210969999999,47.0,79.0
366,97.94743199999999,98.51783736666665,55.0,90.0
367,96.80184799999999,98.76246728333332,40.0,89.0
368,97.94743199999999,98.82093979999999,59.0,91.0
369,98.520224,98.91998508333333,47.0,80.0
370,98.80662,98.96055784999999,55.0,86.0
371,99.09301599999999,99.74934016666666,60.0,80.0
372,99.09301599999999,99.809006,53.0,79.0
373,99.665808,100.36031829999999,48.0,85.0
374,100.23859999999999,100.55005564999999,53.0,86.0
375,100.23859999999999,100.85912466666666,60.0,86.0
376,99.09301599999999,101.02380236666666,41.0,87.0
377,100.811392,101.18012685,53.0,89.0
378,100.52499599999999,101.22189293333332,48.0,84.0
379,101.097788,101.38299068333332,57.0,83.0
380,101.38418399999999,101.7922983,59.0,80.0
381,101.38418399999999,101.95458936666665,55.0,82.0
382,101.956976,102.76723801666665,50.0,83.0
383,101.38418399999999,102.78633108333332,43.0,86.0
384,102.52976799999999,103.62881264999999,55.0,85.0
385,102.52976799999999,103.63835918333332,62.0,85.0
386,103.10256,103.66580546666665,43.0,86.0
387,103.67535199999999,104.26604375,55.0,62.0
388,103.67535199999999,104.49158059999999,64.0,67.0
389,103.67535199999999,104.49277391666666,67.0,73.0
390,103.67535199999999,104.54050658333333,60.0,64.0
391,104.67773799999999,105.05124611666666,55.0,61.0
392,104.82093599999999,105.14432481666665,72.0,89.0
393,104.82093599999999,105.19205748333333,60.0,80.0
394,104.82093599999999,105.24814336666665,64.0,68.0
395,105.10733199999999,105.32093568333333,71.0,78.0
396,105.393728,105.56079233333332,60.0,63.0
397,105.393728,105.56675891666666,55.0,75.0
398,105.393728,105.57749876666666,64.0,59.0
399,103.67535199999999,105.68609058333332,48.0,57.0
400,105.69325048333333,105.86747471666666,60.0,17.0
401,105.68012399999999,105.87940788333333,64.0,32.0
402,105.68012399999999,105.89611431666665,67.0,92.0
403,105.94862024999999,106.03692568333332,55.0,91.0
404,105.96651999999999,106.03692568333332,55.0,84.0
405,105.96651999999999,106.70518301666665,64.0,85.0
406,107.11210399999999,107.41162648333332,55.0,84.0
407,107.11210399999999,108.1216499,60.0,83.0
408,107.684896,108.17057588333333,55.0,79.0
409,105.96651999999999,108.18370236666665,48.0,89.0
410,108.25768799999999,108.60732978333333,53.0,77.0
411,108.25768799999999,108.88059929999999,60.0,80.0
412,108.83048,108.93907181666665,53.0,77.0
413,108.25768799999999,109.15386881666666,41.0,83.0
414,108.544084,109.18966831666665,48.0,67.0
415,109.40327199999999,110.05482289999999,59.0,78.0
416,109.40327199999999,110.09658898333332,55.0,77.0
417,109.976064,110.36031196666666,50.0,60.0
418,109.40327199999999,110.40207804999999,43.0,76.0
419,110.54885599999999,111.06078885,55.0,66.0
420,110.54885599999999,111.17654056666666,64.0,78.0
421,110.54885599999999,111.26484599999999,60.0,73.0
422,111.121648,111.34479821666666,55.0,73.0
423,110.54885599999999,111.83405805,48.0,78.0
424,111.69443999999999,112.07391469999999,55.0,85.0
425,111.69443999999999,112.07749464999999,60.0,90.0
426,111.69443999999999,112.15506023333333,64.0,91.0
427,112.26723199999999,112.36627728333332,62.0,82.0
428,112.84002399999999,113.15744623333332,53.0,76.0
429,112.84002399999999,113.51782786666666,60.0,79.0
430,113.69921199999999,114.13119263333333,57.0,79.0
431,113.41281599999999,114.13238594999999,53.0,80.0
432,113.12642,114.38775571666666,48.0,71.0
433,114.272004,114.87701555,60.0,85.0
434,112.84002399999999,114.91281504999999,41.0,84.0
435,114.84479599999999,115.00470043333333,53.0,80.0
436,115.13119199999998,115.55720604999999,53.0,84.0
437,115.13119199999998,115.57749243333332,60.0,80.0
438,115.13119199999998,115.69563078333333,41.0,85.0
439,116.27677599999998,117.38059391666665,52.0,85.0
440,116.27677599999998,117.38536718333333,64.0,86.0
441,116.27677599999998,117.38894713333332,40.0,87.0
442,117.42236,117.58942433333333,57.0,77.0
443,117.42236,117.76722851666666,62.0,79.0
444,117.708756,118.02617823333333,57.0,73.0
445,117.99515199999999,118.15028316666665,62.0,73.0
446,117.42236,119.07868353333332,50.0,83.0
447,118.567944,119.11448303333333,65.0,80.0
448,118.567944,119.19920851666666,57.0,81.0
449,119.14073599999999,119.24336123333332,62.0,76.0
450,119.713528,120.36149894999998,55.0,75.0
451,119.713528,120.47844398333332,62.0,78.0
452,120.28631999999999,120.92116446666665,50.0,72.0
453,119.713528,121.360305,43.0,81.0
454,121.14550799999999,121.39491118333332,50.0,83.0
455,120.859112,121.41639088333332,59.0,93.0
456,121.43190399999999,121.57032873333333,55.0,87.0
457,122.004696,122.55720161666666,55.0,78.0
458,122.004696,123.03333496666666,52.0,80.0
459,123.15028,123.35195051666666,55.0,87.0
460,122.57748799999999,123.3579171,47.0,66.0
461,123.15028,123.73500516666665,59.0,87.0
462,122.004696,123.8161507,40.0,85.0
463,123.72307199999999,123.92832246666666,47.0,74.0
464,124.00946799999998,124.34478998333333,55.0,79.0
465,124.295864,125.15982526666666,57.0,84.0
466,124.86865599999999,125.56555293333332,52.0,78.0
467,125.15505199999998,125.81853606666665,64.0,80.0
468,125.441448,125.84717566666666,57.0,87.0
469,125.72784399999999,126.06674593333332,52.0,82.0
470,124.295864,126.11686523333333,45.0,85.0
471,126.01423999999999,126.14789146666665,57.0,78.0
472,126.01423999999999,126.28750951666666,60.0,77.0
473,126.30063599999998,126.36149515,57.0,55.0
474,126.587032,127.19204355,57.0,73.0
475,126.587032,127.22903636666666,53.0,68.0
476,127.15982399999999,127.81018158333332,48.0,73.0
477,127.732616,128.05839145,53.0,81.0
478,126.587032,128.20636271666666,41.0,84.0
479,127.732616,128.29466814999998,60.0,83.0
480,128.019012,128.38178026666665,48.0,76.0
481,128.305408,128.62283023333333,53.0,79.0
482,128.591804,128.87223341666666,60.0,73.0
483,128.8782,129.60612316666666,59.0,73.0
484,128.8782,129.74812785,55.0,78.0
485,129.45099199999999,130.17891516666666,50.0,74.0
486,130.02378399999998,130.29228024999998,55.0,84.0
487,130.02378399999998,130.3030201,59.0,85.0
488,128.8782,130.34717281666664,43.0,85.0
489,130.02378399999998,130.3531394,62.0,84.0
490,130.31018,130.53571685,50.0,75.0
491,130.596576,130.98082396666666,43.0,83.0
492,131.169368,131.26841328333333,40.0,87.0
493,131.169368,131.77915281666665,64.0,85.0
494,131.169368,131.86626493333333,69.0,85.0
495,132.02855599999998,132.18249385,64.0,88.0
496,131.74215999999998,132.40325743333332,59.0,83.0
497,132.31495199999998,132.58344825,69.0,90.0
498,132.31495199999998,132.60850789999998,64.0,90.0
499,131.455764,132.63834081666667,52.0,84.0
500,132.601348,132.77557223333332,59.0,72.0
501,132.887744,133.08344793333333,64.0,87.0
502,132.887744,133.18726648333333,68.0,84.0
503,133.460536,133.8065978333333,64.0,79.0
504,133.460536,134.10970026666666,69.0,78.0
505,134.03332799999998,134.27079801666665,64.0,73.0
506,133.746932,134.73977146666667,52.0,72.0
507,134.60611999999998,135.12640606666665,64.0,84.0
508,134.60611999999998,135.19323179999998,72.0,80.0
509,134.60611999999998,135.19561843333332,69.0,80.0
510,133.460536,135.24454441666666,45.0,83.0
511,135.178912,135.30182361666667,52.0,78.0
512,135.751704,136.41638138333332,65.0,77.0
513,135.751704,136.45456751666666,60.0,73.0
514,136.32449599999998,137.00349318333332,48.0,59.0
515,136.897288,137.23260998333333,60.0,84.0
516,136.897288,137.46411341666666,65.0,85.0
517,137.183684,137.55719211666667,48.0,54.0
518,135.751704,137.55957875,41.0,84.0
519,137.47008,137.64430423333332,60.0,80.0
520,136.897288,137.66697725,69.0,83.0
521,138.042872,138.77437511666665,67.0,76.0
522,138.042872,138.81972115,62.0,76.0
523,139.188456,139.5130381333333,62.0,83.0
524,138.61566399999998,139.59537698333332,50.0,62.0
525,138.042872,139.80062744999998,43.0,83.0
526,139.188456,139.83165368333331,71.0,84.0
527,139.188456,140.23141476666666,67.0,81.0
528,139.761248,140.2552811,62.0,68.0
529,140.33404,140.42592538333332,36.0,80.0
530,140.90683199999998,141.4748507333333,55.0,82.0
531,141.19322799999998,141.76602,60.0,82.0
532,141.19322799999998,141.85074548333333,65.0,79.0
533,140.62043599999998,142.4772367333333,48.0,76.0
534,141.76602,142.48916989999998,55.0,71.0
535,142.052416,142.51422954999998,62.0,78.0
536,142.625208,142.70635353333333,36.0,83.0
537,142.625208,143.15026733333332,55.0,84.0
538,142.625208,143.36506433333332,60.0,84.0
539,142.625208,143.45575639999998,64.0,85.0
540,143.48439599999998,143.65623359999998,55.0,79.0
541,143.770792,144.1001474,55.0,84.0
542,143.770792,144.29465801666666,62.0,80.0
543,144.057188,144.44143596666666,50.0,76.0
544,143.770792,144.4796221,43.0,85.0
545,144.343584,144.49990848333331,55.0,85.0
546,144.91637599999999,145.14907275,55.0,86.0
547,144.91637599999999,145.55718704999998,60.0,84.0
548,145.48916799999998,145.7206714333333,55.0,84.0
549,146.06196,146.35432258333333,55.0,85.0
550,146.06196,146.58224606666664,60.0,88.0
551,146.06196,146.68964456666666,64.0,88.0
552,144.91637599999999,146.70635099999998,48.0,89.0
553,146.634752,146.99513363333332,55.0,85.0
554,146.921148,147.17532444999998,60.0,84.0
555,147.20754399999998,147.59775854999998,59.0,83.0
556,147.20754399999998,147.87818796666664,64.0,84.0
557,148.353128,148.59179133333333,59.0,85.0
558,147.78033599999998,148.6037245,47.0,79.0
559,147.20754399999998,148.64907053333332,40.0,86.0
560,148.353128,148.84358114999998,67.0,84.0
561,148.353128,148.9187601,64.0,90.0
562,148.92592,149.04883161666666,59.0,89.0
563,149.49871199999998,150.07150399999998,60.0,80.0
564,149.49871199999998,150.09059706666665,57.0,79.0
565,150.07150399999998,150.74811455,52.0,77.0
566,150.644296,150.94978506666666,57.0,85.0
567,150.644296,151.02854396666666,64.0,93.0
568,150.644296,151.04286376666664,60.0,88.0
569,149.49871199999998,151.21231473333333,45.0,85.0
570,150.930692,151.21589468333332,52.0,82.0
571,151.217088,151.60730254999999,57.0,86.0
572,151.78987999999998,152.4700705,60.0,80.0
573,151.78987999999998,152.47126381666666,57.0,83.0
574,151.78987999999998,152.52615638333333,41.0,84.0
575,152.36267199999998,152.58582221666666,48.0,80.0
576,152.935464,153.24572633333332,55.0,84.0
577,152.935464,153.30419884999998,59.0,83.0
578,153.22186,153.8972772333333,50.0,85.0
579,152.935464,153.91040371666665,43.0,87.0
580,153.508256,153.94500989999997,55.0,91.0
581,153.79465199999999,154.0166089,59.0,86.0
582,154.08104799999998,154.33164449999998,55.0,83.0
583,154.08104799999998,154.86863699999998,60.0,84.0
584,154.65383999999997,154.97722881666667,55.0,82.0
585,155.226632,155.59059358333332,55.0,85.0
586,155.226632,155.92114229999999,60.0,84.0
587,155.226632,155.942622,64.0,84.0
588,154.08104799999998,156.20157171666665,48.0,86.0
589,155.799424,156.40920881666665,55.0,86.0
590,156.08581999999998,156.99154735,62.0,85.0
591,156.945008,157.40682155,55.0,86.0
592,156.65861199999998,157.62042523333332,50.0,79.0
593,157.5178,157.8471554,55.0,85.0
594,157.5178,158.03211948333333,67.0,80.0
595,157.5178,158.16338431666665,62.0,86.0
596,156.37221599999998,158.23140336666665,43.0,86.0
597,158.090592,158.24094989999998,55.0,98.0
598,157.804196,158.60252484999998,50.0,77.0
599,158.66338399999998,159.25407575,57.0,80.0
600,158.66338399999998,159.25407575,60.0,81.0
601,159.522572,159.62639055,57.0,74.0
602,159.236176,159.92949298333332,52.0,80.0
603,159.808968,160.13951671666666,57.0,84.0
604,159.808968,160.17531621666666,64.0,88.0
605,158.66338399999998,160.45335899999998,45.0,86.0
606,160.095364,160.46171221666665,52.0,80.0
607,160.38175999999999,160.57269066666666,60.0,90.0
608,160.38175999999999,160.61803669999998,57.0,86.0
609,160.95455199999998,161.57269003333332,60.0,79.0
610,161.527344,162.2648137,47.0,79.0
611,162.100136,162.67054136666664,55.0,90.0
612,160.95455199999998,162.9151712833333,40.0,89.0
613,162.100136,162.9736438,59.0,91.0
614,162.67292799999998,163.07268908333333,47.0,80.0
615,162.95932399999998,163.11326185,55.0,86.0
616,163.24571999999998,163.90204416666666,60.0,80.0
617,163.24571999999998,163.96170999999998,53.0,79.0
618,163.818512,164.5130223,48.0,85.0
619,164.391304,164.70275965,53.0,86.0
620,164.391304,165.01182866666664,60.0,86.0
621,163.24571999999998,165.17650636666664,41.0,87.0
622,164.96409599999998,165.33283085,53.0,89.0
623,164.6777,165.37459693333332,48.0,84.0
624,165.25049199999998,165.53569468333333,57.0,83.0
625,165.53688799999998,165.87698325,55.0,83.0
626,165.53688799999998,166.24691141666665,67.0,79.0
627,166.10968,166.5201809333333,55.0,84.0
628,165.82328399999997,166.74929773333332,50.0,76.0
629,166.682472,167.03808036666666,55.0,86.0
630,166.682472,167.1932115333333,67.0,82.0
631,166.682472,167.32328305,62.0,85.0
632,165.53688799999998,167.36862908333333,43.0,84.0
633,166.968868,167.40800853333332,50.0,84.0
634,167.25526399999998,167.62877211666665,55.0,90.0
635,167.82805599999998,168.06791264999998,55.0,86.0
636,167.82805599999998,168.16695793333332,60.0,84.0
637,168.400848,168.68247073333333,55.0,81.0
638,167.82805599999998,169.11087141666664,48.0,91.0
639,168.97364,169.27316248333332,55.0,90.0
640,168.97364,169.33163499999998,60.0,91.0
641,168.97364,169.33402163333332,64.0,95.0
642,169.26003599999999,169.38652756666664,48.0,88.0
643,169.54643199999998,169.74332925,55.0,90.0
644,169.83282799999998,169.9426131333333,55.0,62.0
645,169.83282799999998,169.95335298333333,64.0,78.0
646,170.11922399999997,170.49631206666666,53.0,84.0
647,170.11922399999997,170.77674148333332,65.0,85.0
648,170.692016,170.94141918333332,53.0,86.0
649,170.11922399999997,170.96886546666664,41.0,88.0
650,170.40562,171.01540481666666,48.0,85.0
651,171.264808,171.59893666666665,55.0,85.0
652,171.264808,171.6538292333333,59.0,84.0
653,171.264808,171.77077426666665,62.0,84.0
654,171.264808,171.86862623333332,43.0,90.0
655,171.55120399999998,171.8948792,50.0,80.0
656,171.83759999999998,172.0082442833333,55.0,98.0
657,172.12399599999998,172.2337811333333,55.0,65.0
658,172.41039199999997,172.73736076666665,57.0,86.0
659,172.41039199999997,172.84595258333331,60.0,87.0
660,172.983184,173.3053795,60.0,81.0
661,172.983184,173.30895944999997,65.0,78.0
662,173.26958,173.40323146666665,57.0,69.0
663,173.555976,173.60370866666665,57.0,78.0
664,172.696788,173.7636131,48.0,78.0
665,172.41039199999997,173.89607124999998,41.0,87.0
666,173.84237199999998,174.00108311666665,48.0,85.0
667,173.555976,174.16576081666665,60.0,91.0
668,173.555976,174.19798036666666,65.0,85.0
669,174.41516399999998,174.5500087833333,60.0,70.0
670,174.12876799999998,174.56074863333333,57.0,83.0
671,174.70155999999997,175.02494881666667,57.0,76.0
672,174.70155999999997,175.06074831666666,65.0,77.0
673,174.70155999999997,175.06790821666667,60.0,77.0
674,175.274352,175.33521115,57.0,72.0
675,175.274352,175.37220396666666,60.0,82.0
676,175.274352,175.38294381666665,65.0,77.0
677,175.560748,175.66933981666665,57.0,72.0
678,175.847144,175.9855687333333,57.0,81.0
679,175.847144,176.11922019999997,65.0,84.0
680,175.847144,176.17172613333332,60.0,85.0
681,176.13353999999998,176.27793131666664,57.0,71.0
682,175.847144,176.7421315,48.0,84.0
683,176.41993599999998,176.78628421666664,60.0,85.0
684,174.70155999999997,176.81253718333332,41.0,85.0
685,176.41993599999998,176.82685698333333,67.0,85.0
686,176.70633199999997,176.8340168833333,57.0,66.0
687,176.992728,177.34117646666664,59.0,84.0
688,176.992728,177.36384948333333,64.0,84.0
689,177.56552,177.69559151666664,59.0,89.0
690,177.279124,177.71945785,47.0,84.0
691,177.56552,177.74571081666664,64.0,89.0
692,176.992728,177.91038851666664,40.0,88.0
693,177.851916,177.98437414999998,47.0,86.0
694,178.13831199999998,178.3805552833333,64.0,90.0
695,178.13831199999998,178.4915337333333,68.0,85.0
696,178.71110399999998,178.81969581666667,64.0,90.0
697,178.71110399999998,178.91277451666664,68.0,95.0
698,178.13831199999998,178.9402208,40.0,91.0
699,178.99749999999997,179.14189131666666,64.0,80.0
700,179.283896,179.5989316,64.0,85.0
701,179.283896,179.641891,69.0,81.0
702,179.856688,180.22542284999997,64.0,90.0
703,179.856688,180.24093596666665,69.0,85.0
704,179.570292,180.46527949999998,52.0,70.0
705,180.42947999999998,180.75286881666665,64.0,90.0
706,180.42947999999998,180.7731552,69.0,90.0
707,180.42947999999998,180.81969454999998,72.0,93.0
708,179.283896,180.8614606333333,45.0,85.0
709,180.71587599999998,180.90561334999998,52.0,85.0
710,181.00227199999998,181.15143658333332,64.0,90.0
711,181.00227199999998,181.3196942333333,71.0,86.0
712,181.28866799999997,181.47840534999997,69.0,77.0
713,181.575064,181.91873919999998,65.0,79.0
714,181.575064,181.95334538333333,69.0,81.0
715,181.86146,182.27554088333332,48.0,78.0
716,182.147856,182.47124481666665,65.0,88.0
717,182.434252,182.81134006666665,48.0,71.0
718,182.72064799999998,183.0667098333333,65.0,85.0
719,181.575064,183.2003613,41.0,85.0
720,183.00704399999998,183.26957366666664,48.0,79.0
721,182.72064799999998,183.3781654833333,69.0,89.0
722,183.29343999999998,183.4008385,65.0,48.0
723,182.72064799999998,183.4282847833333,72.0,85.0
724,183.29343999999998,183.47721076666664,41.0,86.0
725,183.866232,184.16694779999997,62.0,85.0
726,183.866232,184.29105273333332,67.0,81.0
727,184.439024,184.79105241666664,62.0,98.0
728,184.72541999999999,184.84475166666664,67.0,83.0
729,184.152628,185.12876103333332,50.0,77.0
730,185.01181599999998,185.27553898333332,62.0,86.0
731,185.01181599999998,185.37339095,67.0,91.0
732,185.29821199999998,185.54284191666665,50.0,80.0
733,183.866232,185.56432161666666,43.0,86.0
734,185.01181599999998,185.61921418333333,71.0,88.0
735,185.58460799999997,185.76479881666666,62.0,85.0
736,186.1574,186.39487001666666,64.0,87.0
737,186.1574,186.40680318333332,69.0,85.0
738,186.730192,186.86503678333332,57.0,84.0
739,186.443796,187.05954739999999,52.0,79.0
740,186.1574,187.13353303333332,45.0,90.0
741,187.30298399999998,187.38890279999998,45.0,59.0
742,187.01658799999998,187.40202928333332,57.0,89.0
743,187.01658799999998,187.61682628333332,62.0,89.0
744,187.58937999999998,187.70751835,57.0,93.0
745,187.87577599999997,188.00465419999998,57.0,86.0
746,187.30298399999998,188.0893796833333,52.0,85.0
747,187.87577599999997,188.30775663333333,62.0,93.0
748,188.162172,188.33042964999999,57.0,83.0
749,188.448568,189.3853215833333,45.0,90.0
750,188.448568,189.39009485,57.0,89.0
751,188.448568,189.4103812333333,61.0,98.0
752,189.59415199999998,190.64307735,61.0,98.0
753,189.59415199999998,190.65501051666666,57.0,88.0
754,189.59415199999998,190.65978378333332,52.0,98.0
755,189.59415199999998,190.6741035833333,45.0,90.0
756,189.59415199999998,190.69081001666666,69.0,85.0
757,190.739736,191.04999833333332,62.0,84.0
758,190.739736,191.28269508333332,69.0,83.0
759,191.312528,191.46765916666666,62.0,98.0
760,191.026132,191.78150144999998,57.0,89.0
761,191.59892399999998,192.20870881666664,62.0,100.0
762,191.59892399999998,192.5070379833333,69.0,90.0
763,190.739736,192.80178719999998,50.0,92.0
764,192.17171599999998,192.82446021666667,57.0,85.0
765,192.45811199999997,193.02493741666666,62.0,94.0
766,192.744508,193.50703735,66.0,100.0
767,193.3173,194.04164321666664,52.0,83.0
768,193.60369599999999,194.48197706666664,57.0,91.0
769,193.89009199999998,194.78865944999998,64.0,93.0
770,193.030904,194.87815819999997,45.0,90.0
771,194.17648799999998,194.97959011666666,52.0,87.0
772,194.74927999999997,195.0917618833333,57.0,94.0
773,195.035676,195.27314601666666,64.0,89.0
774,194.46288399999997,195.28746581666664,69.0,89.0
775,195.322072,195.64904076666664,59.0,84.0
776,195.322072,195.91515038333333,62.0,84.0
777,195.89486399999998,196.0237422,59.0,89.0
778,195.608468,196.32326468333332,54.0,86.0
779,196.18125999999998,196.53686836666665,59.0,90.0
780,196.18125999999998,196.79820471666665,66.0,94.0
781,196.75405199999997,196.93782276666664,59.0,89.0
782,196.46765599999998,197.30536429999998,54.0,83.0
783,197.040448,197.37696329999997,64.0,92.0
784,195.322072,197.39247641666665,47.0,90.0
785,197.326844,197.51777466666664,62.0,93.0
786,197.61324,198.14307259999998,62.0,91.0
787,198.18603199999998,198.52732056666665,55.0,91.0
788,197.61324,198.58698639999997,43.0,89.0
789,197.899636,198.64187896666664,50.0,77.0
790,198.47242799999998,198.71944455,62.0,91.0
791,198.75882399999998,199.05953979999998,57.0,89.0
792,198.75882399999998,199.25047046666666,61.0,90.0
793,199.331616,199.68245109999998,57.0,95.0
794,199.04521999999997,199.75643673333332,52.0,90.0
795,198.75882399999998,199.76478995,45.0,91.0
796,199.618012,199.81490924999997,61.0,91.0
797,199.904408,200.0762456,57.0,90.0
798,199.904408,200.25524309999997,62.0,88.0
799,200.19080399999999,200.4760066833333,57.0,86.0
800,200.47719999999998,200.60607819999998,62.0,80.0
801,200.76359599999998,201.03209224999998,57.0,89.0
802,200.76359599999998,201.32564814999998,66.0,95.0
803,201.33638799999997,201.48435926666664,57.0,90.0
804,199.904408,201.57147138333332,50.0,103.0
805,201.622784,201.67767656666666,57.0,76.0
806,201.90918,202.17528961666665,57.0,91.0
807,201.622784,202.17767625,66.0,100.0
808,202.195576,202.69557568333332,64.0,85.0
809,202.76836799999998,202.88292639999997,57.0,92.0
810,203.05476399999998,203.2433080333333,57.0,92.0
811,203.05476399999998,203.38650603333332,64.0,92.0
812,203.34115999999997,203.67051539999997,62.0,92.0
813,203.62755599999997,203.88769903333332,61.0,96.0
814,202.195576,204.07027648333332,45.0,90.0
815,202.48197199999998,204.14545543333332,52.0,83.0
816,203.913952,204.24688734999998,59.0,91.0
817,204.200348,204.4891306333333,61.0,89.0
818,204.486744,204.79700633333331,59.0,89.0
819,204.486744,205.08578896666666,62.0,90.0
820,205.05953599999998,205.19318746666664,59.0,85.0
821,205.34593199999998,205.76359283333332,59.0,90.0
822,205.34593199999998,205.77313936666664,66.0,94.0
823,204.77313999999998,206.03686234999998,54.0,89.0
824,205.918724,206.2504660333333,59.0,89.0
825,206.20512,206.37576428333333,54.0,88.0
826,204.486744,206.38173086666666,47.0,90.0
827,205.918724,206.55356846666666,62.0,92.0
828,206.491516,206.72540606666664,59.0,90.0
829,206.777912,207.2886515333333,61.0,91.0
830,207.35070399999998,207.51060843333332,57.0,89.0
831,207.06430799999998,207.78865121666664,49.0,81.0
832,207.63709999999998,208.1191999333333,61.0,90.0
833,207.63709999999998,208.28984421666664,57.0,89.0
834,207.92349599999997,208.32564371666666,49.0,83.0
835,208.209892,208.68602535,66.0,93.0
836,206.777912,208.68960529999998,42.0,91.0
837,208.209892,208.74807781666664,61.0,91.0
838,208.496288,208.80774365,49.0,89.0
839,208.782684,209.03089386666664,57.0,90.0
840,209.06907999999999,209.13590573333332,57.0,79.0
841,209.06907999999999,209.6633517,59.0,77.0
842,209.64187199999998,209.87934201666664,55.0,90.0
843,209.35547599999998,210.10249223333332,50.0,89.0
844,209.92826799999997,210.74568991666666,55.0,87.0
845,209.92826799999997,210.82683544999998,62.0,91.0
846,210.787456,210.92230078333333,59.0,91.0
847,210.50106,210.92826736666666,50.0,89.0
848,209.06907999999999,210.97600003333332,43.0,89.0
849,211.36024799999998,211.97599939999998,61.0,89.0
850,211.36024799999998,211.9819659833333,66.0,90.0
851,211.93303999999998,212.3041614833333,57.0,89.0
852,211.64664399999998,212.66692974999998,49.0,78.0
853,211.36024799999998,213.06669083333333,42.0,91.0
854,212.792228,213.09055716666666,49.0,89.0
855,212.21943599999997,213.10010369999998,61.0,90.0
856,212.21943599999997,213.1740893333333,66.0,94.0
857,213.078624,213.4151393,57.0,93.0
858,213.36502,213.58339694999998,61.0,86.0
859,213.65141599999998,214.01418426666666,64.0,83.0
860,213.93781199999998,214.29700031666664,59.0,89.0
861,214.22420799999998,214.57623641666666,62.0,82.0
862,215.083396,215.32802591666666,59.0,86.0
863,214.51060399999997,215.34353903333331,67.0,95.0
864,213.65141599999998,215.36859868333332,52.0,90.0
865,215.369792,215.71108056666665,64.0,90.0
866,215.656188,215.78983946666665,59.0,89.0
867,215.94258399999998,216.22420673333332,57.0,85.0
868,215.94258399999998,216.29938568333333,61.0,82.0
869,216.51537599999997,216.6430608833333,57.0,84.0
870,216.51537599999997,216.65260741666665,61.0,85.0
871,216.51537599999997,216.66215394999998,64.0,83.0
872,216.22897999999998,217.03566206666665,52.0,90.0
873,216.80177199999997,217.19198655,61.0,91.0
874,216.80177199999997,217.2098863,64.0,90.0
875,216.80177199999997,217.2230127833333,57.0,90.0
876,217.088168,217.51060209999997,52.0,81.0
877,217.374564,217.64425356666666,57.0,92.0
878,217.374564,218.03685474999997,69.0,89.0
879,215.94258399999998,218.05833445,45.0,90.0
880,217.66096,218.08220078333332,52.0,81.0
881,217.94735599999998,218.33518391666664,57.0,87.0
882,218.23375199999998,218.78983756666665,64.0,84.0
883,218.52014799999998,218.97122169999997,57.0,92.0
884,218.80654399999997,219.11203306666664,62.0,85.0
885,219.09293999999997,219.63589908333333,64.0,89.0
886,219.665732,220.01895373333332,62.0,84.0
887,218.23375199999998,220.11441906666664,50.0,90.0
888,219.952128,220.27909676666664,57.0,90.0
889,220.23852399999998,221.15976446666664,66.0,90.0
890,221.09771199999997,221.2981892,61.0,90.0
891,221.38410799999997,221.84592154999999,61.0,89.0
892,221.38410799999997,221.98553959999998,69.0,89.0
893,220.81131599999998,222.10964453333332,49.0,81.0
894,220.52491999999998,222.13231754999998,42.0,92.0
895,221.9569,222.26358238333333,66.0,93.0
896,222.243296,222.5821979333333,61.0,91.0
897,222.52969199999998,222.67050336666665,66.0,84.0
898,222.81608799999998,223.1597632,59.0,86.0
899,222.81608799999998,223.4378059833333,62.0,89.0
900,223.38887999999997,223.52969136666664,59.0,85.0
901,223.67527599999997,224.02014451666665,59.0,93.0
902,223.67527599999997,224.0750370833333,66.0,92.0
903,223.10248399999998,224.2755142833333,54.0,84.0
904,224.248068,224.53565731666666,59.0,89.0
905,224.248068,224.65856893333333,62.0,91.0
906,222.81608799999998,224.7086882333333,47.0,89.0
907,224.53446399999999,224.73613451666665,54.0,86.0
908,224.82085999999998,225.15140871666665,59.0,88.0
909,225.10725599999998,225.70272101666666,62.0,85.0
910,225.10725599999998,225.91513138333332,43.0,90.0
911,225.68004799999997,225.96525068333332,55.0,93.0
912,225.39365199999997,226.11083531666665,50.0,87.0
913,225.966444,226.19198085,62.0,86.0
914,226.25284,226.58696866666665,57.0,89.0
915,226.25284,226.80415229999997,61.0,87.0
916,226.82563199999998,227.15021413333332,57.0,91.0
917,226.539236,227.23374629999998,52.0,86.0
918,226.25284,227.255226,45.0,90.0
919,227.11202799999998,227.33159826666665,61.0,95.0
920,227.39842399999998,228.0344617833333,62.0,91.0
921,227.97121599999997,228.12515384999998,57.0,90.0
922,228.257612,228.5869674,57.0,90.0
923,228.257612,228.76477158333333,66.0,92.0
924,228.257612,228.88171661666664,62.0,94.0
925,228.830404,229.17288588333332,57.0,91.0
926,229.11679999999998,229.45928188333332,62.0,91.0
927,227.68481999999997,229.5416207333333,54.0,82.0
928,227.39842399999998,229.58816008333332,50.0,92.0
929,229.40319599999998,229.7468712,57.0,93.0
930,229.68959199999998,230.33994958333332,64.0,86.0
931,230.26238399999997,230.60605919999998,57.0,95.0
932,231.121572,231.44854076666664,64.0,89.0
933,229.68959199999998,231.5463927333333,45.0,90.0
934,229.97598799999997,231.7289701833333,52.0,89.0
935,230.54878,231.73493676666664,69.0,90.0
936,231.40796799999998,231.75044988333332,57.0,91.0
937,231.69436399999998,231.9437671833333,64.0,85.0
938,231.98075999999998,232.57741833333333,62.0,93.0
939,232.55355199999997,232.68601015,59.0,91.0
940,232.839948,233.42109321666663,66.0,91.0
941,232.839948,233.4294464333333,59.0,93.0
942,232.26715599999997,233.50939864999998,54.0,87.0
943,231.98075999999998,233.57980433333333,47.0,90.0
944,233.41273999999999,233.7516419333333,62.0,90.0
945,233.69913599999998,234.06071095,59.0,89.0
946,233.98553199999998,234.12873,62.0,90.0
947,234.31727403333332,236.3769386,42.0,88.0
948,234.6144098833333,236.46405071666663,49.0,74.0
949,235.24925434999997,236.7564133,57.0,77.0
950,234.93541206666666,236.76357319999997,54.0,90.0
951,235.57741643333333,236.77431305,61.0,77.0
952,235.73493423333332,236.80056601666664,66.0,79.0
953,239.65855943333332,240.27669746666666,55.0,79.0
954,239.36619685,240.58337984999997,50.0,60.0
955,239.05354788333332,240.62037266666664,43.0,84.0
956,239.95688859999998,240.64065904999998,62.0,80.0
957,240.54519371666666,240.70390483333333,55.0,66.0
958,240.2576044,240.78743699999998,67.0,83.0
959,241.6346918333333,242.0070066333333,45.0,84.0
960,241.82800913333332,242.00939326666665,57.0,71.0
961,241.80533611666664,242.02371306666666,52.0,73.0
962,241.9103479833333,242.0499660333333,61.0,72.0
963,241.98433361666665,242.09769869999997,64.0,69.0
964,242.08934548333332,242.25998976666665,69.0,68.0
965,243.2349294833333,243.35784109999997,69.0,64.0
966,243.28743541666665,243.41631361666666,76.0,73.0
967,243.36142105,243.4747861333333,81.0,75.0
968,246.6394619333333,247.75163306666664,50.0,73.0
969,246.94137105,248.1334944,62.0,78.0
970,246.36022583333332,248.47478296666665,43.0,85.0
971,247.82800533333332,248.53206216666663,50.0,72.0
972,248.08814836666664,248.64662056666666,55.0,77.0
973,247.25282669999999,248.72657278333332,67.0,80.0
974,248.3864775333333,248.8948304333333,62.0,85.0
975,249.30413804999998,249.7659516,57.0,69.0
976,249.62872018333331,249.90556965,62.0,75.0
977,250.03564116666664,250.20628544999997,64.0,77.0
978,250.52609431666664,250.6704856333333,69.0,77.0
979,249.00103561666666,251.32442316666663,52.0,74.0
980,248.67645348333332,251.3614159833333,45.0,85.0
981,252.53683289999998,252.84948186666665,52.0,79.0
982,252.70509054999997,252.93778729999997,54.0,75.0
983,252.93420734999998,253.04041253333332,57.0,73.0
984,253.20270359999998,253.3411283333333,62.0,79.0
985,253.44852683333332,253.66571046666664,64.0,81.0
986,253.82084163333332,254.01296561666663,66.0,72.0
987,254.6621298833333,255.61916985,66.0,31.0
988,254.69912269999998,255.66570919999998,69.0,52.0
989,252.40556806666666,255.66690251666665,45.0,70.0
990,254.54160489999998,255.67048246666664,62.0,62.0
991,254.75282194999997,255.68838221666664,74.0,50.0
992,252.20867081666665,255.7074752833333,38.0,87.0
