,start,end,pitch,velocity
0,13.427455708333335,13.759245500000002,60.0,82.0
1,13.797825708333335,14.060171125000002,65.0,84.0
2,14.168195708333334,14.466034916666668,65.0,83.0
3,14.538565708333335,14.770046958333335,67.0,79.0
4,14.908935708333335,15.157392250000001,67.0,77.0
5,15.279305708333334,15.604922666666669,69.0,84.0
6,15.649675708333335,16.333317,72.0,84.0
7,16.390415708333336,16.709859833333336,69.0,80.0
8,16.760785708333334,17.961401791666667,72.0,84.0
9,18.242265708333335,18.48917904166667,72.0,80.0
10,18.612635708333336,18.928993416666668,72.0,85.0
11,18.983005708333334,19.208314125,65.0,75.0
12,19.353375708333335,19.60954829166667,65.0,80.0
13,19.723745708333336,19.975288666666668,67.0,79.0
14,20.094115708333334,20.692880541666668,67.0,84.0
15,20.834855708333336,21.112633208333335,65.0,82.0
16,21.205225708333337,21.908928708333335,67.0,81.0
17,21.945965708333336,24.29935841666667,69.0,77.0
18,25.279295708333336,25.6110855,60.0,82.0
19,25.649665708333337,25.912011125000003,65.0,84.0
20,26.020035708333335,26.31787491666667,65.0,83.0
21,26.390405708333336,26.621886958333334,67.0,79.0
22,26.760775708333338,27.009232250000004,67.0,77.0
23,27.131145708333335,27.45676266666667,69.0,84.0
24,27.501515708333336,28.185157000000004,72.0,84.0
25,28.242255708333335,28.561699833333336,69.0,80.0
26,28.612625708333336,29.81324179166667,72.0,84.0
27,30.094105708333338,30.34101904166667,72.0,80.0
28,30.464475708333335,31.205215708333338,74.0,85.0
29,31.205215708333338,31.412005625000003,72.0,85.0
30,31.575585708333335,31.814783000000002,72.0,84.0
31,31.945955708333337,32.260770208333334,72.0,85.0
32,32.31632570833334,32.532374875,72.0,84.0
33,32.68669570833334,33.037004,69.0,77.0
34,33.05706570833334,35.01539708333334,67.0,79.0
35,36.39039570833334,37.62033275,74.0,86.0
36,37.871875708333334,38.259221000000004,74.0,95.0
37,38.242245708333336,38.56786266666667,76.0,84.0
38,38.61261570833334,38.94131908333334,77.0,84.0
39,38.98298570833334,40.063231541666674,76.0,87.0
40,40.094095708333334,40.439774375000006,72.0,86.0
41,40.464465708333336,41.57557570833334,72.0,81.0
42,41.94594570833334,42.20674791666667,72.0,85.0
43,42.316315708333335,42.63884625000001,74.0,88.0
44,42.686685708333336,42.91662375000001,72.0,84.0
45,43.05705570833334,43.245327125,72.0,86.0
46,43.42742570833334,43.6481045,72.0,84.0
47,43.79779570833334,44.28544954166667,72.0,85.0
48,44.538535708333335,44.81631320833334,65.0,79.0
49,44.908905708333336,45.57248529166667,67.0,84.0
50,45.64964570833334,47.58328575,69.0,81.0
51,48.24223570833334,49.472172750000006,74.0,86.0
52,49.72371570833334,50.11106100000001,74.0,95.0
53,50.09408570833334,50.41970266666667,76.0,84.0
54,50.46445570833334,50.793159083333336,77.0,84.0
55,50.83482570833334,51.91507154166667,76.0,87.0
56,51.94593570833334,52.29161437500001,72.0,86.0
57,52.31630570833334,53.42741570833334,72.0,81.0
58,53.797785708333336,54.058587916666674,72.0,85.0
59,54.16815570833334,54.49068625,74.0,88.0
60,54.53852570833334,54.76846375000001,72.0,84.0
61,54.90889570833334,55.097167125000006,72.0,86.0
62,55.27926570833334,55.499944500000005,72.0,84.0
63,55.64963570833334,56.137289541666675,74.0,85.0
64,56.39037570833334,56.71599266666667,77.0,82.0
65,56.76074570833334,58.59870683333334,79.0,86.0
66,58.98296570833334,59.26537283333334,65.0,85.0
67,59.35333570833334,59.59870583333334,69.0,81.0
68,59.72370570833334,59.97061904166667,72.0,83.0
69,60.09407570833334,60.32092733333334,77.0,79.0
70,60.464445708333336,60.70981583333334,77.0,84.0
71,60.83481570833334,61.11259320833334,77.0,80.0
72,61.20518570833334,61.44901262500001,77.0,78.0
73,61.57555570833334,61.86104925000001,77.0,84.0
74,61.94592570833334,62.19746866666667,76.0,84.0
75,62.31629570833334,62.62493737500001,76.0,84.0
76,62.68666570833334,62.938208666666675,74.0,79.0
77,63.05703570833334,63.43975137500001,74.0,86.0
78,63.42740570833334,63.68357829166667,72.0,78.0
79,63.79777570833334,64.10487416666668,72.0,83.0
80,64.16814570833334,64.79468829166667,69.0,83.0
81,64.90888570833334,65.17894716666667,65.0,85.0
82,65.27925570833334,65.58789737500001,69.0,82.0
83,65.64962570833335,65.92740320833335,72.0,85.0
84,66.01999570833334,66.25147695833334,74.0,86.0
85,66.39036570833333,66.62030375,74.0,84.0
86,66.76073570833334,66.99067375000001,74.0,85.0
87,67.13110570833334,67.39190791666667,74.0,86.0
88,67.50147570833334,67.78696925000001,74.0,86.0
89,67.87184570833334,68.12338866666667,72.0,82.0
90,68.24221570833335,68.49375866666668,72.0,81.0
91,68.61258570833334,69.31011587500001,72.0,84.0
92,69.35332570833334,70.46443570833334,69.0,85.0
93,70.83480570833333,71.12184245833335,65.0,85.0
94,71.20517570833334,71.51073095833334,69.0,87.0
95,71.57554570833334,71.85178,72.0,86.0
96,71.94591570833335,72.18356979166667,77.0,83.0
97,72.31628570833334,72.53079166666667,77.0,84.0
98,72.68665570833335,72.92276658333334,77.0,81.0
99,73.05702570833334,73.29776620833334,77.0,82.0
100,73.42739570833334,73.72060529166667,77.0,84.0
101,73.79776570833334,74.04930866666668,76.0,83.0
102,74.16813570833334,74.49529587500001,76.0,85.0
103,74.53850570833335,74.85332020833334,74.0,84.0
104,74.90887570833334,75.23449266666667,72.0,84.0
105,75.27924570833333,75.57245529166667,74.0,86.0
106,75.64961570833334,75.93202283333333,76.0,82.0
107,76.01998570833334,76.89807125000002,77.0,79.0
108,77.13109570833335,77.45516945833334,69.0,82.0
109,77.50146570833334,78.24220570833334,67.0,84.0
110,78.24220570833334,78.48448941666668,65.0,80.0
111,78.61257570833334,78.89806925,65.0,79.0
112,78.98294570833335,79.26535283333334,67.0,80.0
113,79.35331570833334,79.64035245833334,69.0,85.0
114,79.72368570833333,79.98603112500001,72.0,84.0
115,80.09405570833334,80.37646283333333,69.0,78.0
116,80.46442570833334,82.05238708333334,67.0,77.0
117,82.31627570833334,82.958250375,69.0,84.0
118,83.05701570833334,83.36102775,62.0,84.0
119,83.42738570833335,84.17275533333334,67.0,78.0
120,84.16812570833335,86.68818491666667,65.0,81.0
121,96.39033570833334,96.7221255,60.0,82.0
122,96.76070570833335,97.02305112500001,65.0,84.0
123,97.13107570833334,97.42891491666667,65.0,83.0
124,97.50144570833335,97.73292695833334,67.0,79.0
125,97.87181570833334,98.12027225000001,67.0,77.0
126,98.24218570833334,98.56780266666668,69.0,84.0
127,98.61255570833335,99.296197,72.0,84.0
128,99.35329570833335,99.67273983333334,69.0,80.0
129,99.72366570833334,100.92428179166667,72.0,84.0
130,101.20514570833335,101.45205904166667,72.0,80.0
131,101.57551570833334,101.89187341666668,72.0,85.0
132,101.94588570833335,102.17119412500001,65.0,75.0
133,102.31625570833334,102.57242829166668,65.0,80.0
134,102.68662570833334,102.93816866666668,67.0,79.0
135,103.05699570833335,103.65576054166668,67.0,84.0
136,103.79773570833335,104.07551320833335,65.0,82.0
137,104.16810570833334,104.87180870833335,67.0,81.0
138,104.90884570833335,107.26223841666668,69.0,77.0
139,108.24217570833335,108.57396550000001,60.0,82.0
140,108.61254570833334,108.874891125,65.0,84.0
141,108.98291570833335,109.28075491666668,65.0,83.0
142,109.35328570833335,109.58476695833335,67.0,79.0
143,109.72365570833334,109.97211225000001,67.0,77.0
144,110.09402570833335,110.41964266666668,69.0,84.0
145,110.46439570833334,111.14803700000002,72.0,84.0
146,111.20513570833334,111.52457983333335,69.0,80.0
147,111.57550570833334,112.77612179166668,72.0,84.0
148,113.05698570833334,113.30389904166668,72.0,80.0
149,113.42735570833335,114.16809570833334,74.0,85.0
150,114.16809570833334,114.37488562500002,72.0,85.0
151,114.53846570833335,114.77766300000002,72.0,84.0
152,114.90883570833334,115.22365020833334,72.0,85.0
153,115.27920570833335,115.49525487500001,72.0,84.0
154,115.64957570833334,115.99988400000001,69.0,77.0
155,116.01994570833335,117.97827708333335,67.0,79.0
156,119.35327570833334,120.58321275000002,74.0,86.0
157,120.83475570833335,121.22210100000001,74.0,95.0
158,121.20512570833334,121.53074266666668,76.0,84.0
159,121.57549570833335,121.90419908333335,77.0,84.0
160,121.94586570833334,123.02611154166668,76.0,87.0
161,123.05697570833334,123.40265437500001,72.0,86.0
162,123.42734570833335,124.53845570833334,72.0,81.0
163,124.90882570833335,125.16962791666668,72.0,85.0
164,125.27919570833335,125.60172625000001,74.0,88.0
165,125.64956570833334,125.87950375000001,72.0,84.0
166,126.01993570833335,126.20820712500002,72.0,86.0
167,126.39030570833334,126.61098450000001,72.0,84.0
168,126.76067570833335,127.24832954166668,72.0,85.0
169,127.50141570833334,127.77919320833335,65.0,79.0
170,127.87178570833335,128.5353652916667,67.0,84.0
171,128.61252570833335,130.54616575,69.0,81.0
172,131.20511570833335,132.43505275,74.0,86.0
173,132.68659570833336,133.07394100000002,74.0,95.0
174,133.05696570833334,133.38258266666668,76.0,84.0
175,133.42733570833335,133.75603908333335,77.0,84.0
176,133.79770570833335,134.87795154166668,76.0,87.0
177,134.90881570833335,135.254494375,79.0,86.0
178,135.27918570833336,136.39029570833335,81.0,81.0
179,136.76066570833333,137.0214679166667,79.0,85.0
180,137.13103570833334,137.45356625000002,79.0,88.0
181,137.50140570833335,137.73134375,77.0,84.0
182,137.87177570833336,138.060047125,77.0,86.0
183,138.24214570833334,138.4628245,74.0,84.0
184,138.61251570833335,139.10016954166667,72.0,85.0
185,139.35325570833334,139.67887266666668,69.0,82.0
186,139.72362570833334,141.56158683333334,67.0,86.0
187,141.94584570833334,142.22825283333336,65.0,85.0
188,142.31621570833335,142.56158583333334,69.0,81.0
189,142.68658570833335,142.9334990416667,72.0,83.0
190,143.05695570833336,143.28380733333336,77.0,79.0
191,143.42732570833334,143.67269583333334,77.0,84.0
192,143.79769570833335,144.07547320833334,77.0,80.0
193,144.16806570833336,144.411892625,77.0,78.0
194,144.53843570833334,144.82392925000002,77.0,84.0
195,144.90880570833335,145.1603486666667,76.0,84.0
196,145.27917570833336,145.58781737500001,76.0,84.0
197,145.64954570833333,145.90108866666668,74.0,79.0
198,146.01991570833334,146.40263137500003,74.0,86.0
199,146.39028570833335,146.64645829166668,72.0,78.0
200,146.76065570833336,147.06775416666667,72.0,83.0
201,147.13102570833334,147.75756829166667,69.0,83.0
202,147.87176570833336,148.14182716666667,65.0,85.0
203,148.24213570833334,148.55077737500002,69.0,82.0
204,148.61250570833334,148.89028320833336,72.0,85.0
205,148.98287570833335,149.21435695833335,74.0,86.0
206,149.35324570833336,149.58318375000002,74.0,84.0
207,149.72361570833334,149.95355375000003,74.0,85.0
208,150.09398570833335,150.35478791666668,74.0,86.0
209,150.46435570833336,150.74984925,74.0,86.0
210,150.83472570833334,151.08626866666668,72.0,82.0
211,151.20509570833335,151.4566386666667,72.0,81.0
212,151.57546570833335,152.27299587500002,72.0,84.0
213,152.31620570833334,153.42731570833334,69.0,85.0
214,153.79768570833335,154.08472245833335,65.0,85.0
215,154.16805570833336,154.47361095833335,69.0,87.0
216,154.53842570833336,154.81466,72.0,86.0
217,154.90879570833334,155.1464497916667,77.0,83.0
218,155.27916570833335,155.49367166666667,77.0,84.0
219,155.64953570833336,155.88564658333334,77.0,81.0
220,156.01990570833334,156.26064620833336,77.0,82.0
221,156.39027570833335,156.68348529166667,77.0,84.0
222,156.76064570833336,157.01218866666667,76.0,83.0
223,157.13101570833334,157.45817587500002,76.0,85.0
224,157.50138570833334,157.81620020833336,74.0,84.0
225,157.87175570833335,158.1973726666667,72.0,84.0
226,158.24212570833336,158.53533529166668,74.0,86.0
227,158.61249570833334,158.89490283333336,76.0,82.0
228,158.98286570833335,159.86095125000003,77.0,79.0
229,160.09397570833335,160.41804945833334,69.0,82.0
230,160.46434570833335,161.20508570833334,67.0,84.0
231,161.20508570833334,161.44736941666667,65.0,80.0
232,161.57545570833335,161.86094925,65.0,79.0
233,161.94582570833336,162.22823283333335,67.0,80.0
234,162.31619570833334,162.60323245833334,69.0,85.0
235,162.68656570833335,162.94891112500002,72.0,84.0
236,163.05693570833336,163.33934283333335,69.0,78.0
237,163.42730570833336,165.01526708333336,67.0,77.0
238,165.27915570833335,165.92113037500002,69.0,84.0
239,166.01989570833334,166.32390775000002,62.0,84.0
240,166.39026570833335,167.13563533333334,67.0,78.0
241,167.13100570833336,169.65106491666668,65.0,81.0
242,189.35320570833335,189.63561283333334,65.0,85.0
243,189.72357570833336,189.96894583333335,69.0,81.0
244,190.09394570833337,190.34085904166668,72.0,83.0
245,190.46431570833334,190.69116733333334,77.0,79.0
246,190.83468570833335,191.08005583333335,77.0,84.0
247,191.20505570833336,191.48283320833335,77.0,80.0
248,191.57542570833334,191.81925262500002,77.0,78.0
249,191.94579570833335,192.23128925000003,77.0,84.0
250,192.31616570833336,192.56770866666668,76.0,84.0
251,192.68653570833337,192.99517737500003,76.0,84.0
252,193.05690570833335,193.3084486666667,74.0,79.0
253,193.42727570833335,193.809991375,74.0,86.0
254,193.79764570833336,194.0538182916667,72.0,78.0
255,194.16801570833334,194.47511416666669,72.0,83.0
256,194.53838570833335,195.16492829166668,69.0,83.0
257,195.27912570833337,195.54918716666668,65.0,85.0
258,195.64949570833335,195.958137375,69.0,82.0
259,196.01986570833336,196.29764320833334,72.0,85.0
260,196.39023570833336,196.62171695833337,74.0,86.0
261,196.76060570833334,196.99054375000003,74.0,84.0
262,197.13097570833335,197.36091375,74.0,85.0
263,197.50134570833336,197.7621479166667,74.0,86.0
264,197.87171570833334,198.15720925000002,74.0,86.0
265,198.24208570833335,198.4936286666667,72.0,82.0
266,198.61245570833336,198.86399866666667,72.0,81.0
267,198.98282570833337,199.68035587500003,72.0,84.0
268,199.72356570833335,200.83467570833335,69.0,85.0
269,201.20504570833336,201.49208245833336,65.0,85.0
270,201.57541570833337,201.88097095833336,69.0,87.0
271,201.94578570833335,202.22202000000001,72.0,86.0
272,202.31615570833335,202.55380979166668,77.0,83.0
273,202.68652570833336,202.90103166666668,77.0,84.0
274,203.05689570833334,203.29300658333335,77.0,81.0
275,203.42726570833335,203.66800620833337,77.0,82.0
276,203.79763570833336,204.09084529166668,77.0,84.0
277,204.16800570833337,204.41954866666669,76.0,83.0
278,204.53837570833335,204.86553587500003,76.0,85.0
279,204.90874570833336,205.22356020833337,74.0,84.0
280,205.27911570833336,205.60473266666668,72.0,84.0
281,205.64948570833334,205.9426952916667,74.0,86.0
282,206.01985570833335,206.30226283333334,76.0,82.0
283,206.39022570833336,207.26831125,77.0,79.0
284,207.50133570833336,207.82540945833335,69.0,82.0
285,207.87170570833337,208.61244570833335,67.0,84.0
286,208.61244570833335,208.8547294166667,65.0,80.0
287,208.98281570833336,209.26830925000002,65.0,79.0
288,209.35318570833334,209.63559283333336,67.0,80.0
289,209.72355570833335,210.01059245833335,69.0,85.0
290,210.09392570833336,210.35627112500003,72.0,84.0
291,210.46429570833337,210.74670283333336,69.0,78.0
292,210.83466570833335,212.42262708333337,67.0,77.0
293,212.68651570833336,213.32849037500003,69.0,84.0
294,213.42725570833335,213.73126775000003,62.0,84.0
295,213.79762570833336,214.54299533333335,67.0,78.0
296,214.53836570833334,217.0584249166667,65.0,81.0
