,start,end,pitch,velocity
0,1.5756157083333335,1.9351832500000001,55.0,84.0
1,1.2052457083333334,3.2237622083333335,48.0,73.0
2,0.8348757083333335,3.280860916666667,41.0,85.0
3,1.9459857083333336,3.7191320833333337,53.0,77.0
4,1.9459857083333336,3.766971541666667,57.0,74.0
5,4.538575708333334,4.770056958333334,55.0,80.0
6,4.908945708333333,5.34258725,60.0,79.0
7,4.908945708333333,5.3919699166666675,55.0,80.0
8,4.168205708333334,6.1280802916666675,52.0,77.0
9,3.797835708333334,6.172833333333334,45.0,85.0
10,7.501535708333334,7.689807125000001,58.0,77.0
11,7.871905708333334,8.381164458333334,65.0,79.0
12,7.871905708333334,8.449065625000001,58.0,77.0
13,7.131165708333334,8.992274958333335,53.0,64.0
14,6.760795708333334,9.021595916666667,46.0,85.0
15,8.983015708333335,9.432089333333334,62.0,78.0
16,9.723755708333334,10.089496083333334,55.0,73.0
17,9.723755708333334,10.128076291666668,60.0,78.0
18,10.464495708333335,10.706779416666668,50.0,73.0
19,10.834865708333334,11.476840375000002,52.0,84.0
20,10.834865708333334,11.575605708333335,48.0,83.0
21,10.094125708333335,11.873444916666667,43.0,55.0
22,9.723755708333334,11.915111541666668,36.0,80.0
23,11.575605708333335,11.956778166666668,55.0,83.0
24,13.427455708333335,13.726838125000002,55.0,90.0
25,13.797825708333335,14.322516541666667,57.0,81.0
26,13.797825708333335,14.540108916666668,53.0,82.0
27,13.057085708333334,14.662022375000001,48.0,72.0
28,12.686715708333335,15.103379958333335,41.0,85.0
29,14.538565708333335,15.160478666666668,60.0,85.0
30,14.908935708333335,15.209861333333334,48.0,72.0
31,15.279305708333334,15.404305583333334,53.0,79.0
32,15.649675708333335,16.10029254166667,55.0,82.0
33,15.649675708333335,16.39813175,60.0,75.0
34,16.760785708333334,16.955229958333334,64.0,86.0
35,16.020045708333335,17.617266333333337,52.0,70.0
36,15.649675708333335,18.080228833333337,45.0,84.0
37,17.871895708333334,18.108006583333335,52.0,78.0
38,17.501525708333336,18.134241125000003,60.0,88.0
39,18.612635708333336,18.779302208333334,53.0,79.0
40,18.612635708333336,19.063252541666667,58.0,79.0
41,18.983005708333334,19.35028929166667,53.0,75.0
42,19.353375708333335,19.649671708333337,58.0,59.0
43,19.723745708333336,19.845659166666668,58.0,71.0
44,19.723745708333336,20.080226833333334,62.0,80.0
45,20.834855708333336,21.223744208333336,58.0,86.0
46,18.612635708333336,21.35954654166667,46.0,85.0
47,21.205225708333337,21.393497125000003,53.0,87.0
48,22.316335708333337,22.624977375000004,55.0,85.0
49,21.945965708333336,22.902754875000003,48.0,73.0
50,22.686705708333335,23.273124875000004,57.0,79.0
51,22.686705708333335,23.499976500000002,53.0,76.0
52,23.427445708333337,23.594112208333335,60.0,86.0
53,23.057075708333336,24.361086750000002,48.0,62.0
54,21.575595708333335,24.408926208333337,41.0,86.0
55,24.538555708333337,25.08330825,60.0,79.0
56,24.538555708333337,25.31324629166667,53.0,78.0
57,25.279295708333336,25.533925083333337,55.0,74.0
58,25.649665708333337,26.408924208333335,57.0,78.0
59,25.649665708333337,26.41509704166667,53.0,79.0
60,26.390405708333336,26.611084500000004,60.0,84.0
61,24.908925708333335,26.612627708333335,48.0,70.0
62,24.538555708333337,26.645035083333337,41.0,84.0
63,27.501515708333336,27.976823875000004,55.0,78.0
64,27.501515708333336,28.32713216666667,60.0,81.0
65,27.871885708333338,28.742255208333336,52.0,69.0
66,28.242255708333335,29.120341250000003,55.0,76.0
67,28.612625708333336,29.162007875000004,60.0,88.0
68,29.353365708333335,29.407378000000005,55.0,73.0
69,28.982995708333338,29.56787166666667,52.0,60.0
70,27.501515708333336,29.73453816666667,45.0,84.0
71,29.353365708333335,30.124969875,60.0,85.0
72,29.353365708333335,30.364167166666668,64.0,85.0
73,30.094105708333338,30.509228750000002,55.0,84.0
74,30.464475708333335,31.25305516666667,62.0,85.0
75,31.205215708333338,31.41509204166667,58.0,77.0
76,31.575585708333335,32.46138729166667,58.0,80.0
77,31.575585708333335,32.550893375,65.0,84.0
78,30.834845708333336,32.8333005,53.0,68.0
79,30.464475708333335,32.83638691666667,46.0,80.0
80,32.68669570833334,33.09564591666667,62.0,82.0
81,33.05706570833334,33.402744375000005,58.0,84.0
82,33.427435708333334,33.96138579166667,55.0,74.0
83,33.427435708333334,34.15274362500001,60.0,77.0
84,34.16817570833334,34.612619708333334,55.0,78.0
85,34.53854570833334,35.01076745833334,60.0,88.0
86,35.27928570833334,35.506137333333335,55.0,79.0
87,35.27928570833334,35.72064329166667,64.0,82.0
88,35.649655708333334,35.749964250000005,55.0,71.0
89,33.797805708333335,36.384222875000006,43.0,62.0
90,35.649655708333334,36.38576608333334,60.0,84.0
91,33.427435708333334,36.404284583333336,36.0,83.0
92,36.020025708333336,36.410457416666674,55.0,77.0
93,36.39039570833334,36.819407625000004,57.0,79.0
94,36.39039570833334,37.05397529166667,65.0,81.0
95,37.13113570833334,37.314777500000005,57.0,88.0
96,37.50150570833334,38.226813625000005,57.0,86.0
97,37.50150570833334,38.263850625,62.0,84.0
98,38.242245708333336,38.69440575,65.0,89.0
99,36.76076570833334,38.72835633333334,45.0,71.0
100,36.39039570833334,38.745331625000006,38.0,86.0
101,38.61261570833334,39.11570162500001,57.0,86.0
102,38.98298570833334,39.393479125000006,62.0,84.0
103,39.35335570833334,40.143478375,64.0,85.0
104,40.094095708333334,40.482984208333335,60.0,81.0
105,40.464465708333336,41.240699500000005,64.0,84.0
106,41.20520570833334,41.393477125000004,57.0,74.0
107,41.57557570833334,41.72989654166667,57.0,84.0
108,39.72372570833334,41.80242733333334,52.0,64.0
109,39.35335570833334,41.84872358333334,45.0,85.0
110,41.57557570833334,41.905822291666674,60.0,84.0
111,42.316315708333335,42.745327625,58.0,78.0
112,42.316315708333335,43.04316683333334,62.0,81.0
113,43.05705570833334,43.35489491666667,58.0,88.0
114,42.686685708333336,43.41508004166667,53.0,65.0
115,42.316315708333335,43.54162312500001,46.0,82.0
116,43.79779570833334,43.97372145833334,55.0,81.0
117,43.79779570833334,44.257671791666674,64.0,87.0
118,44.16816570833334,44.59717762500001,55.0,80.0
119,44.538535708333335,44.74686883333334,60.0,86.0
120,43.79779570833334,44.85180700000001,48.0,83.0
121,44.908905708333336,45.165078291666674,58.0,86.0
122,45.27927570833334,45.712917250000004,53.0,79.0
123,45.27927570833334,45.94131208333334,57.0,76.0
124,46.02001570833334,46.45211404166667,53.0,93.0
125,45.27927570833334,46.6481015,41.0,84.0
126,45.64964570833334,46.979891291666675,48.0,73.0
127,46.76075570833334,47.04470604166667,52.0,82.0
128,46.76075570833334,47.282360125000004,55.0,80.0
129,47.131125708333336,47.73297695833334,48.0,73.0
130,46.76075570833334,47.763841125000006,40.0,85.0
131,47.50149570833334,47.793162083333335,55.0,85.0
132,47.50149570833334,47.84563116666667,60.0,84.0
133,48.24223570833334,48.66507479166667,57.0,77.0
134,48.24223570833334,48.99840779166667,62.0,82.0
135,48.98297570833334,49.14655579166667,57.0,77.0
136,49.353345708333336,49.82556745833334,65.0,84.0
137,49.353345708333336,50.16044366666667,57.0,85.0
138,50.09408570833334,50.529270458333336,62.0,88.0
139,48.24223570833334,50.70056658333334,38.0,86.0
140,48.61260570833334,50.72680112500001,45.0,64.0
141,50.46445570833334,50.85334420833334,57.0,86.0
142,50.83482570833334,51.15889945833334,62.0,84.0
143,51.20519570833334,51.99223195833334,60.0,85.0
144,51.94593570833334,52.109515791666674,55.0,81.0
145,52.31630570833334,53.08173704166667,64.0,85.0
146,52.31630570833334,53.140378958333336,55.0,86.0
147,51.575565708333336,53.16815670833334,52.0,75.0
148,53.05704570833334,53.805501750000005,60.0,88.0
149,51.20519570833334,53.81630420833334,45.0,86.0
150,53.42741570833334,53.88266216666667,52.0,80.0
151,53.797785708333336,54.12648908333334,57.0,85.0
152,54.16815570833334,54.848710583333336,62.0,82.0
153,54.90889570833334,55.17741395833334,58.0,83.0
154,55.27926570833334,55.907351500000004,58.0,79.0
155,54.53852570833334,56.007660041666675,53.0,74.0
156,55.27926570833334,56.11568462500001,65.0,82.0
157,54.16815570833334,56.550869375000005,46.0,79.0
158,56.020005708333336,56.58944958333334,53.0,74.0
159,56.39037570833334,56.64037545833334,58.0,90.0
160,56.39037570833334,56.99531337500001,62.0,84.0
161,57.13111570833334,57.30086862500001,55.0,80.0
162,57.13111570833334,57.589448583333336,60.0,80.0
163,57.50148570833334,57.94284329166667,55.0,78.0
164,57.87185570833334,58.08481845833334,60.0,78.0
165,58.242225708333336,58.97833608333334,62.0,85.0
166,58.98296570833334,59.175866750000004,55.0,76.0
167,59.35333570833334,59.51228616666668,55.0,89.0
168,57.13111570833334,60.11722383333334,48.0,84.0
169,59.72370570833334,60.12802629166667,55.0,81.0
170,59.35333570833334,60.13728554166667,64.0,89.0
171,60.09407570833334,60.44129758333334,58.0,82.0
172,60.09407570833334,60.63882825,62.0,83.0
173,60.09407570833334,61.17586475000001,46.0,85.0
174,60.83481570833334,61.231420250000006,58.0,86.0
175,60.464445708333336,61.236049875000006,53.0,60.0
176,61.20518570833334,61.56166683333334,65.0,84.0
177,61.57555570833334,62.01382687500001,60.0,73.0
178,61.57555570833334,62.34253025000001,64.0,76.0
179,61.94592570833334,62.35024629166667,55.0,79.0
180,61.57555570833334,62.391912916666676,48.0,88.0
181,62.31629570833334,62.59561641666667,60.0,90.0
182,63.05703570833334,63.456726666666675,57.0,78.0
183,63.05703570833334,63.75147945833334,60.0,84.0
184,63.42740570833334,64.199009875,48.0,73.0
185,63.79777570833334,64.22215800000001,57.0,93.0
186,63.05703570833334,64.23450366666667,41.0,85.0
187,64.16814570833334,64.55857741666668,60.0,80.0
188,64.53851570833334,65.01073745833334,62.0,78.0
189,64.90888570833334,65.411971625,45.0,65.0
190,64.53851570833334,65.45672466666667,38.0,86.0
191,65.27925570833334,65.47524316666667,57.0,77.0
192,65.27925570833334,65.56011962500001,62.0,84.0
193,65.27925570833334,65.63573683333334,65.0,80.0
194,66.01999570833334,66.37956325,58.0,75.0
195,66.01999570833334,66.75610608333334,62.0,83.0
196,66.01999570833334,67.078636625,46.0,84.0
197,66.39036570833333,67.10332795833334,53.0,64.0
198,66.76073570833334,67.17277233333334,58.0,84.0
199,67.13110570833334,67.46752512500001,62.0,84.0
200,67.50147570833334,67.68203108333334,55.0,80.0
201,67.50147570833334,67.91196912500001,60.0,79.0
202,67.87184570833334,68.14499358333335,55.0,85.0
203,67.50147570833334,68.58635116666667,48.0,84.0
204,68.24221570833335,68.60949929166668,58.0,85.0
205,68.61258570833334,68.86104225000001,55.0,83.0
206,68.98295570833334,69.4628935,53.0,80.0
207,68.98295570833334,69.75147345833334,57.0,80.0
208,69.72369570833334,70.10795458333334,60.0,85.0
209,70.09406570833335,70.21906558333335,57.0,84.0
210,69.35332570833334,70.60023804166667,48.0,66.0
211,68.98295570833334,70.74838604166668,41.0,84.0
212,70.46443570833334,70.76690454166668,65.0,84.0
213,70.46443570833334,71.06628695833334,53.0,86.0
214,71.20517570833334,71.40579279166667,57.0,80.0
215,70.83480570833333,71.407336,41.0,46.0
216,70.83480570833333,71.50918775000001,48.0,74.0
217,71.57554570833334,71.86103925,53.0,71.0
218,71.20517570833334,71.92276758333334,64.0,85.0
219,71.94591570833335,72.31165608333335,58.0,61.0
220,71.94591570833335,72.66350758333334,62.0,80.0
221,71.94591570833335,72.93511225,46.0,85.0
222,72.31628570833334,72.93974187500001,53.0,67.0
223,72.68665570833335,73.11412441666667,58.0,95.0
224,73.05702570833334,73.46443270833335,62.0,85.0
225,73.42739570833334,73.62338316666667,55.0,80.0
226,73.42739570833334,73.86875329166668,60.0,84.0
227,73.79776570833334,73.98758033333334,55.0,77.0
228,74.16813570833334,74.365666375,55.0,83.0
229,73.42739570833334,74.44745641666667,48.0,84.0
230,74.16813570833334,74.48449341666668,60.0,85.0
231,74.16813570833334,74.52307362500001,64.0,86.0
232,74.90887570833334,75.296221,57.0,77.0
233,74.90887570833334,75.68202308333335,60.0,84.0
234,75.27924570833333,76.0554795,52.0,72.0
235,74.90887570833334,76.06782516666668,45.0,85.0
236,75.64961570833334,76.09560291666668,57.0,85.0
237,76.01998570833334,76.32862737500001,64.0,84.0
238,76.39035570833335,77.24066350000001,62.0,81.0
239,76.76072570833334,77.29158937500002,53.0,61.0
240,76.39035570833335,77.30856466666667,50.0,85.0
241,77.13109570833335,77.32708316666667,57.0,80.0
242,77.87183570833334,78.33479820833334,55.0,77.0
243,77.87183570833334,78.65115591666668,62.0,83.0
244,78.61257570833334,78.84868658333335,55.0,81.0
245,78.98294570833335,79.43973537500001,55.0,86.0
246,78.98294570833335,79.50455012500001,58.0,84.0
247,78.24220570833334,79.76998195833335,50.0,67.0
248,77.87183570833334,79.94899412500001,43.0,85.0
249,79.72368570833333,80.13109270833334,55.0,84.0
250,80.09405570833334,80.17893216666667,50.0,71.0
251,79.72368570833333,80.18973462500001,58.0,87.0
252,79.72368570833333,80.43510475000001,62.0,85.0
253,80.46442570833334,80.95979558333335,55.0,90.0
254,80.83479570833335,81.59714062500001,60.0,84.0
255,81.20516570833334,81.89189341666668,43.0,64.0
256,80.83479570833335,81.930473625,36.0,83.0
257,81.57553570833335,81.99991800000001,55.0,86.0
258,81.94590570833334,82.0925105,62.0,83.0
259,82.31627570833334,82.48294220833334,55.0,84.0
260,82.31627570833334,82.80238633333335,64.0,86.0
261,82.68664570833334,82.88726279166667,55.0,74.0
262,82.31627570833334,83.26843525000001,48.0,79.0
263,83.05701570833334,83.51226216666667,60.0,86.0
264,83.42738570833335,83.68818791666668,55.0,86.0
265,83.79775570833334,84.21596516666668,53.0,84.0
266,83.79775570833334,84.26534783333334,57.0,84.0
267,84.53849570833334,84.80701395833334,55.0,81.0
268,84.90886570833334,85.73293895833335,57.0,83.0
269,84.16812570833335,85.78232162500001,48.0,74.0
270,84.90886570833334,85.78695125000002,53.0,79.0
271,85.64960570833334,86.259173,60.0,84.0
272,83.79775570833334,86.27151866666668,41.0,84.0
273,86.01997570833335,86.32707416666668,48.0,71.0
274,86.76071570833334,87.17583875000001,57.0,78.0
275,86.76071570833334,87.458245875,60.0,82.0
276,87.50145570833334,87.65114691666668,57.0,76.0
277,87.87182570833335,88.54157812500002,57.0,84.0
278,87.87182570833335,88.70515820833334,64.0,86.0
279,87.13108570833334,88.75145445833334,52.0,75.0
280,86.76071570833334,89.24219470833334,45.0,85.0
281,88.98293570833334,89.32707116666667,52.0,79.0
282,88.61256570833335,89.32707116666667,60.0,90.0
283,89.35330570833334,89.55392279166668,57.0,80.0
284,89.72367570833335,90.14497158333334,58.0,74.0
285,89.72367570833335,90.56318104166668,62.0,80.0
286,90.09404570833334,90.60484766666667,53.0,70.0
287,89.72367570833335,90.62182295833334,46.0,86.0
288,90.46441570833335,90.6850945,58.0,86.0
289,91.20515570833334,91.37336541666667,55.0,79.0
290,91.20515570833334,91.61410591666667,60.0,81.0
291,91.57552570833334,91.89496983333335,55.0,85.0
292,91.20515570833334,92.19435225000001,48.0,83.0
293,91.94589570833334,92.24990775,58.0,81.0
294,92.68663570833334,93.09095629166667,53.0,72.0
295,92.68663570833334,93.18663520833334,57.0,79.0
296,93.42737570833334,93.82552345833335,55.0,87.0
297,93.79774570833334,94.58786837500001,57.0,83.0
298,94.16811570833335,94.62490537500001,53.0,80.0
299,93.05700570833335,94.72830033333334,48.0,67.0
300,94.90885570833335,95.56934887500002,57.0,30.0
301,94.90885570833335,95.60175625000001,48.0,78.0
302,94.53848570833334,95.60638587500002,60.0,84.0
303,92.68663570833334,95.60792908333335,41.0,84.0
304,96.39033570833334,96.68971812500001,55.0,90.0
305,96.76070570833335,97.28539654166667,57.0,81.0
306,96.76070570833335,97.50298891666668,53.0,82.0
307,96.01996570833334,97.624902375,48.0,72.0
308,95.64959570833334,98.06625995833335,41.0,85.0
309,97.50144570833335,98.12335866666668,60.0,85.0
310,97.87181570833334,98.17274133333335,48.0,72.0
311,98.24218570833334,98.36718558333334,53.0,79.0
312,98.61255570833335,99.06317254166667,55.0,82.0
313,98.61255570833335,99.36101175000002,60.0,75.0
314,99.72366570833334,99.91810995833335,64.0,86.0
315,98.98292570833334,100.58014633333335,52.0,70.0
316,98.61255570833335,101.04310883333335,45.0,84.0
317,100.83477570833334,101.07088658333335,52.0,78.0
318,100.46440570833335,101.09712112500002,60.0,88.0
319,101.57551570833334,101.74218220833335,53.0,79.0
320,101.57551570833334,102.02613254166668,58.0,79.0
321,101.94588570833335,102.31316929166668,53.0,75.0
322,102.31625570833334,102.61255170833334,58.0,59.0
323,102.68662570833334,102.80853916666668,58.0,71.0
324,102.68662570833334,103.04310683333334,62.0,80.0
325,103.79773570833335,104.18662420833334,58.0,86.0
326,101.57551570833334,104.32242654166667,46.0,85.0
327,104.16810570833334,104.35637712500001,53.0,87.0
328,105.27921570833334,105.58785737500001,55.0,85.0
329,104.90884570833335,105.86563487500001,48.0,73.0
330,105.64958570833335,106.236004875,57.0,79.0
331,105.64958570833335,106.46285650000002,53.0,76.0
332,106.39032570833335,106.55699220833334,60.0,86.0
333,106.01995570833334,107.32396675000001,48.0,62.0
334,104.53847570833335,107.37180620833334,41.0,86.0
335,107.50143570833335,108.04618825000001,60.0,79.0
336,107.50143570833335,108.27612629166669,53.0,78.0
337,108.24217570833335,108.49680508333334,55.0,74.0
338,108.61254570833334,109.37180420833334,57.0,78.0
339,108.61254570833334,109.37797704166668,53.0,79.0
340,109.35328570833335,109.57396450000002,60.0,84.0
341,107.87180570833334,109.57550770833335,48.0,70.0
342,107.50143570833335,109.60791508333334,41.0,84.0
343,110.46439570833334,110.939703875,55.0,78.0
344,110.46439570833334,111.29001216666668,60.0,81.0
345,110.83476570833335,111.70513520833335,52.0,69.0
346,111.20513570833334,112.08322125000001,55.0,76.0
347,111.57550570833334,112.12488787500001,60.0,88.0
348,112.31624570833334,112.370258,55.0,73.0
349,111.94587570833335,112.53075166666667,52.0,60.0
350,110.46439570833334,112.69741816666668,45.0,84.0
351,112.31624570833334,113.08784987500002,60.0,85.0
352,112.31624570833334,113.32704716666667,64.0,85.0
353,113.05698570833334,113.47210875000002,55.0,84.0
354,113.42735570833335,114.21593516666668,62.0,85.0
355,114.16809570833334,114.37797204166668,58.0,77.0
356,114.53846570833335,115.42426729166668,58.0,80.0
357,114.53846570833335,115.51377337500001,65.0,84.0
358,113.79772570833335,115.7961805,53.0,68.0
359,113.42735570833335,115.79926691666668,46.0,80.0
360,115.64957570833334,116.05852591666668,62.0,82.0
361,116.01994570833335,116.36562437500001,58.0,84.0
362,116.39031570833335,116.92426579166668,55.0,74.0
363,116.39031570833335,117.11562362500001,60.0,77.0
364,117.13105570833335,117.57549970833334,55.0,78.0
365,117.50142570833334,117.97364745833335,60.0,88.0
366,118.24216570833335,118.46901733333334,55.0,79.0
367,118.24216570833335,118.68352329166667,64.0,82.0
368,118.61253570833334,118.71284425000002,55.0,71.0
369,116.76068570833334,119.34710287500002,43.0,62.0
370,118.61253570833334,119.34864608333335,60.0,84.0
371,116.39031570833335,119.36716458333335,36.0,83.0
372,118.98290570833335,119.37333741666669,55.0,77.0
373,119.35327570833334,119.78228762500001,57.0,79.0
374,119.35327570833334,120.01685529166667,65.0,81.0
375,120.09401570833334,120.27765750000002,57.0,88.0
376,120.46438570833335,121.18969362500002,57.0,86.0
377,120.46438570833335,121.22673062500002,62.0,84.0
378,121.20512570833334,121.65728575000001,65.0,89.0
379,119.72364570833335,121.69123633333335,45.0,71.0
380,119.35327570833334,121.70821162500002,38.0,86.0
381,121.57549570833335,122.07858162500001,57.0,86.0
382,121.94586570833334,122.35635912500001,62.0,84.0
383,122.31623570833335,123.10635837500001,64.0,85.0
384,123.05697570833334,123.44586420833335,60.0,81.0
385,123.42734570833335,124.20357950000002,64.0,84.0
386,124.16808570833335,124.35635712500002,57.0,74.0
387,124.53845570833334,124.69277654166667,57.0,84.0
388,122.68660570833335,124.76530733333334,52.0,64.0
389,122.31623570833335,124.81160358333335,45.0,85.0
390,124.53845570833334,124.86870229166668,60.0,84.0
391,125.27919570833335,125.70820762500001,58.0,78.0
392,125.27919570833335,126.00604683333334,62.0,81.0
393,126.01993570833335,126.31777491666668,58.0,88.0
394,125.64956570833334,126.37796004166668,53.0,65.0
395,125.27919570833335,126.50450312500001,46.0,82.0
396,126.76067570833335,126.93660145833334,55.0,81.0
397,126.76067570833335,127.22055179166668,64.0,87.0
398,127.13104570833335,127.56005762500001,55.0,80.0
399,127.50141570833334,127.70974883333335,60.0,86.0
400,126.76067570833335,127.81468700000002,48.0,83.0
401,127.87178570833335,128.1279582916667,58.0,86.0
402,128.24215570833334,128.67579725000002,53.0,79.0
403,128.24215570833334,128.90419208333336,57.0,76.0
404,128.98289570833336,129.4149940416667,53.0,93.0
405,128.24215570833334,129.6109815,41.0,84.0
406,128.61252570833335,129.94277129166667,48.0,73.0
407,129.72363570833335,130.00758604166668,52.0,82.0
408,129.72363570833335,130.245240125,55.0,80.0
409,130.09400570833336,130.69585695833334,48.0,73.0
410,129.72363570833335,130.726721125,40.0,85.0
411,130.46437570833334,130.75604208333334,55.0,85.0
412,130.46437570833334,130.80851116666668,60.0,84.0
413,131.20511570833335,131.62795479166667,57.0,77.0
414,131.20511570833335,131.96128779166668,62.0,82.0
415,131.94585570833334,132.10943579166667,57.0,77.0
416,132.31622570833335,132.78844745833334,65.0,84.0
417,132.31622570833335,133.1233236666667,57.0,85.0
418,133.05696570833334,133.49215045833336,62.0,88.0
419,131.20511570833335,133.66344658333335,38.0,86.0
420,131.57548570833336,133.68968112500002,45.0,64.0
421,133.42733570833335,133.81622420833335,57.0,86.0
422,133.79770570833335,134.12177945833335,62.0,84.0
423,134.16807570833336,134.95511195833336,60.0,85.0
424,134.90881570833335,135.07239579166668,55.0,81.0
425,135.27918570833336,136.04461704166667,64.0,85.0
426,135.27918570833336,136.10325895833336,55.0,86.0
427,134.53844570833334,136.13103670833334,52.0,75.0
428,136.01992570833335,136.76838175,60.0,88.0
429,134.16807570833336,136.77918420833336,45.0,86.0
430,136.39029570833335,136.8455421666667,52.0,80.0
431,136.76066570833333,137.08936908333334,57.0,85.0
432,137.13103570833334,137.81159058333336,62.0,82.0
433,137.87177570833336,138.14029395833336,58.0,83.0
434,138.24214570833334,138.87023150000002,58.0,79.0
435,137.50140570833335,138.97054004166668,53.0,74.0
436,138.24214570833334,139.078564625,65.0,82.0
437,137.13103570833334,139.513749375,46.0,79.0
438,138.98288570833336,139.55232958333335,53.0,74.0
439,139.35325570833334,139.60325545833334,58.0,90.0
440,139.35325570833334,139.958193375,62.0,84.0
441,140.09399570833335,140.263748625,55.0,80.0
442,140.09399570833335,140.55232858333335,60.0,80.0
443,140.46436570833336,140.90572329166667,55.0,78.0
444,140.83473570833334,141.04769845833334,60.0,78.0
445,141.20510570833335,141.94121608333336,62.0,85.0
446,141.94584570833334,142.13874675000002,55.0,76.0
447,142.31621570833335,142.47516616666667,55.0,89.0
448,140.09399570833335,143.08010383333334,48.0,84.0
449,142.68658570833335,143.09090629166667,55.0,81.0
450,142.31621570833335,143.10016554166668,64.0,89.0
451,143.05695570833336,143.40417758333334,58.0,82.0
452,143.05695570833336,143.60170825,62.0,83.0
453,143.05695570833336,144.13874475000003,46.0,85.0
454,143.79769570833335,144.19430025000003,58.0,86.0
455,143.42732570833334,144.198929875,53.0,60.0
456,144.16806570833336,144.52454683333335,65.0,84.0
457,144.53843570833334,144.97670687500002,60.0,73.0
458,144.53843570833334,145.30541025000002,64.0,76.0
459,144.90880570833335,145.3131262916667,55.0,79.0
460,144.53843570833334,145.3547929166667,48.0,88.0
461,145.27917570833336,145.55849641666669,60.0,90.0
462,146.01991570833334,146.41960666666668,57.0,78.0
463,146.01991570833334,146.71435945833335,60.0,84.0
464,146.39028570833335,147.161889875,48.0,73.0
465,146.76065570833336,147.18503800000002,57.0,93.0
466,146.01991570833334,147.1973836666667,41.0,85.0
467,147.13102570833334,147.5214574166667,60.0,80.0
468,147.50139570833335,147.97361745833334,62.0,78.0
469,147.87176570833336,148.37485162500002,45.0,65.0
470,147.50139570833335,148.4196046666667,38.0,86.0
471,148.24213570833334,148.43812316666668,57.0,77.0
472,148.24213570833334,148.522999625,62.0,84.0
473,148.24213570833334,148.59861683333335,65.0,80.0
474,148.98287570833335,149.34244325,58.0,75.0
475,148.98287570833335,149.71898608333336,62.0,83.0
476,148.98287570833335,150.041516625,46.0,84.0
477,149.35324570833336,150.06620795833334,53.0,64.0
478,149.72361570833334,150.13565233333335,58.0,84.0
479,150.09398570833335,150.43040512500002,62.0,84.0
480,150.46435570833336,150.64491108333334,55.0,80.0
481,150.46435570833336,150.87484912500003,60.0,79.0
482,150.83472570833334,151.10787358333334,55.0,85.0
483,150.46435570833336,151.5492311666667,48.0,84.0
484,151.20509570833335,151.5723792916667,58.0,85.0
485,151.57546570833335,151.82392225,55.0,83.0
486,151.94583570833336,152.42577350000002,53.0,80.0
487,151.94583570833336,152.71435345833336,57.0,80.0
488,152.68657570833335,153.07083458333335,60.0,85.0
489,153.05694570833336,153.18194558333334,57.0,84.0
490,152.31620570833334,153.56311804166668,48.0,66.0
491,151.94583570833336,153.71126604166668,41.0,84.0
492,153.42731570833334,153.72978454166667,65.0,84.0
493,153.42731570833334,154.02916695833335,53.0,86.0
494,154.16805570833336,154.36867279166668,57.0,80.0
495,153.79768570833335,154.37021600000003,41.0,46.0
496,153.79768570833335,154.47206775,48.0,74.0
497,154.53842570833336,154.82391925000002,53.0,71.0
498,154.16805570833336,154.88564758333334,64.0,85.0
499,154.90879570833334,155.27453608333335,58.0,61.0
500,154.90879570833334,155.62638758333335,62.0,80.0
501,154.90879570833334,155.89799225000002,46.0,85.0
502,155.27916570833335,155.90262187500002,53.0,67.0
503,155.64953570833336,156.07700441666668,58.0,95.0
504,156.01990570833334,156.42731270833335,62.0,85.0
505,156.39027570833335,156.5862631666667,55.0,80.0
506,156.39027570833335,156.8316332916667,60.0,84.0
507,156.76064570833336,156.95046033333335,55.0,77.0
508,157.13101570833334,157.32854637500003,55.0,83.0
509,156.39027570833335,157.4103364166667,48.0,84.0
510,157.13101570833334,157.4473734166667,60.0,85.0
511,157.13101570833334,157.485953625,64.0,86.0
512,157.87175570833335,158.25910100000002,57.0,77.0
513,157.87175570833335,158.64490308333336,60.0,84.0
514,158.24212570833336,159.01835950000003,52.0,72.0
515,157.87175570833335,159.03070516666668,45.0,85.0
516,158.61249570833334,159.0584829166667,57.0,85.0
517,158.98286570833335,159.291507375,64.0,84.0
518,159.35323570833336,160.20354350000002,62.0,81.0
519,159.72360570833334,160.254469375,53.0,61.0
520,159.35323570833336,160.2714446666667,50.0,85.0
521,160.09397570833335,160.2899631666667,57.0,80.0
522,160.83471570833336,161.29767820833334,55.0,77.0
523,160.83471570833336,161.6140359166667,62.0,83.0
524,161.57545570833335,161.81156658333336,55.0,81.0
525,161.94582570833336,162.402615375,55.0,86.0
526,161.94582570833336,162.46743012500002,58.0,84.0
527,161.20508570833334,162.73286195833336,50.0,67.0
528,160.83471570833336,162.91187412500003,43.0,85.0
529,162.68656570833335,163.09397270833335,55.0,84.0
530,163.05693570833336,163.14181216666668,50.0,71.0
531,162.68656570833335,163.152614625,58.0,87.0
532,162.68656570833335,163.39798475,62.0,85.0
533,163.42730570833336,163.92267558333336,55.0,90.0
534,163.79767570833334,164.56002062500002,60.0,84.0
535,164.16804570833335,164.8547734166667,43.0,64.0
536,163.79767570833334,164.89335362500003,36.0,83.0
537,164.53841570833336,164.96279800000002,55.0,86.0
538,164.90878570833334,165.05539050000002,62.0,83.0
539,165.27915570833335,165.44582220833334,55.0,84.0
540,165.27915570833335,165.76526633333336,64.0,86.0
541,165.64952570833336,165.85014279166668,55.0,74.0
542,165.27915570833335,166.23131525000002,48.0,79.0
543,166.01989570833334,166.47514216666667,60.0,86.0
544,166.39026570833335,166.65106791666668,55.0,86.0
545,166.76063570833335,166.95507995833336,57.0,79.0
546,166.76063570833335,167.1788451666667,62.0,82.0
547,167.13100570833336,167.52452383333335,57.0,85.0
548,167.50137570833334,167.62174595833335,62.0,80.0
549,167.87174570833335,168.68810291666668,57.0,83.0
550,167.87174570833335,168.69581895833335,65.0,84.0
551,168.61248570833334,169.02760875,62.0,85.0
552,166.76063570833335,169.23902829166667,50.0,88.0
553,168.98285570833335,169.37946025000002,57.0,84.0
554,169.72359570833336,170.48285420833335,60.0,76.0
555,170.46433570833335,171.78377883333334,57.0,74.0
556,170.83470570833336,172.03840820833335,64.0,80.0
557,170.09396570833334,172.14951920833334,52.0,69.0
558,169.72359570833336,172.20970433333335,45.0,84.0
559,171.94581570833336,172.291494375,60.0,88.0
560,172.31618570833336,172.8038395416667,57.0,74.0
561,172.68655570833334,173.48748083333336,65.0,82.0
562,173.42729570833336,173.87636933333334,57.0,80.0
563,173.79766570833334,174.64488708333334,62.0,84.0
564,174.53840570833336,174.86247945833335,57.0,76.0
565,172.68655570833334,175.0908742916667,38.0,85.0
566,173.05692570833335,175.09396070833336,45.0,58.0
567,174.90877570833337,175.64334287500003,62.0,84.0
568,175.64951570833335,176.6479715,60.0,81.0
569,176.39025570833334,176.80846516666668,57.0,80.0
570,176.76062570833335,177.17574875000003,65.0,82.0
571,177.13099570833336,177.85167400000003,64.0,86.0
572,176.01988570833336,177.89488383333335,52.0,76.0
573,177.50136570833334,177.93963687500002,57.0,83.0
574,175.64951570833335,177.9936491666667,45.0,85.0
575,177.87173570833335,178.0075380416667,60.0,88.0
576,178.61247570833336,179.09549991666668,55.0,82.0
577,178.61247570833336,179.09858633333334,62.0,82.0
578,178.98284570833334,179.76833875000003,50.0,76.0
579,179.35321570833335,179.7714251666667,58.0,86.0
580,178.61247570833336,180.11556062500003,43.0,86.0
581,179.72358570833336,180.16494329166667,55.0,82.0
582,180.09395570833334,180.53685650000003,58.0,84.0
583,180.09395570833334,180.60321445833335,62.0,85.0
584,180.46432570833335,180.68500450000002,55.0,68.0
585,180.83469570833336,181.29302858333335,58.0,84.0
586,181.20506570833336,181.4627815,43.0,86.0
587,180.83469570833336,181.50136170833335,62.0,84.0
588,181.57543570833334,181.91802795833334,57.0,80.0
589,181.57543570833334,182.33623741666668,60.0,85.0
590,181.94580570833335,182.47512616666668,52.0,72.0
591,182.31617570833336,182.72821233333335,55.0,86.0
592,182.68654570833334,182.87944675000003,60.0,86.0
593,183.05691570833335,183.47049554166668,57.0,79.0
594,183.05691570833335,183.53839670833335,60.0,90.0
595,183.05691570833335,183.54919916666668,64.0,87.0
596,181.57543570833334,183.96432220833336,45.0,84.0
597,183.42728570833336,184.04919866666668,52.0,70.0
598,183.79765570833337,184.23901329166668,57.0,79.0
599,184.16802570833335,184.402593375,45.0,86.0
600,184.53839570833335,184.9566051666667,58.0,84.0
601,184.90876570833336,185.53993791666667,53.0,80.0
602,185.27913570833334,185.54148112500002,58.0,84.0
603,185.64950570833335,186.5738875,53.0,75.0
604,185.64950570833335,186.58931958333335,62.0,81.0
605,185.64950570833335,186.59703562500002,58.0,75.0
606,184.53839570833335,186.85629462500003,46.0,91.0
607,187.13098570833336,187.33005958333337,53.0,85.0
608,186.76061570833335,187.38561508333336,58.0,89.0
609,187.50135570833336,187.9103059166667,55.0,80.0
610,187.50135570833336,188.15104641666667,60.0,80.0
611,188.24209570833335,188.50444112500003,55.0,78.0
612,188.61246570833336,188.67573725000003,55.0,64.0
613,187.87172570833334,189.8871557916667,43.0,52.0
614,187.50135570833336,189.93499525000001,36.0,83.0
615,188.61246570833336,189.96431620833334,64.0,85.0
616,190.46431570833334,190.81153758333335,58.0,82.0
617,190.46431570833334,191.00906825,62.0,83.0
618,190.46431570833334,191.54610475,46.0,85.0
619,191.20505570833336,191.60166025,58.0,86.0
620,190.83468570833335,191.60628987500002,53.0,60.0
621,191.57542570833334,191.93190683333336,65.0,84.0
622,191.94579570833335,192.38406687500003,60.0,73.0
623,191.94579570833335,192.71277025000003,64.0,76.0
624,192.31616570833336,192.72048629166667,55.0,79.0
625,191.94579570833335,192.76215291666668,48.0,88.0
626,192.68653570833337,192.9658564166667,60.0,90.0
627,193.42727570833335,193.8269666666667,57.0,78.0
628,193.42727570833335,194.12171945833336,60.0,84.0
629,193.79764570833336,194.56924987500003,48.0,73.0
630,194.16801570833334,194.59239800000003,57.0,93.0
631,193.42727570833335,194.60474366666668,41.0,85.0
632,194.53838570833335,194.92881741666667,60.0,80.0
633,194.90875570833336,195.38097745833335,62.0,78.0
634,195.27912570833337,195.78221162500003,45.0,65.0
635,194.90875570833336,195.8269646666667,38.0,86.0
636,195.64949570833335,195.8454831666667,57.0,77.0
637,195.64949570833335,195.93035962500002,62.0,84.0
638,195.64949570833335,196.00597683333336,65.0,80.0
639,196.39023570833336,196.74980325,58.0,75.0
640,196.39023570833336,197.12634608333335,62.0,83.0
641,196.39023570833336,197.44887662500003,46.0,84.0
642,196.76060570833334,197.47356795833335,53.0,64.0
643,197.13097570833335,197.54301233333337,58.0,84.0
644,197.50134570833336,197.83776512500003,62.0,84.0
645,197.87171570833334,198.05227108333335,55.0,80.0
646,197.87171570833334,198.282209125,60.0,79.0
647,198.24208570833335,198.51523358333336,55.0,85.0
648,197.87171570833334,198.9565911666667,48.0,84.0
649,198.61245570833336,198.97973929166668,58.0,85.0
650,198.98282570833337,199.23128225000002,55.0,83.0
651,199.35319570833335,199.83313350000003,53.0,80.0
652,199.35319570833335,200.12171345833335,57.0,80.0
653,200.09393570833336,200.47819458333336,60.0,85.0
654,200.46430570833334,200.58930558333336,57.0,84.0
655,199.72356570833335,200.9704780416667,48.0,66.0
656,199.35319570833335,201.1186260416667,41.0,84.0
657,200.83467570833335,201.1371445416667,65.0,84.0
658,200.83467570833335,201.43652695833336,53.0,86.0
659,201.57541570833337,201.7760327916667,57.0,80.0
660,201.20504570833336,201.777576,41.0,46.0
661,201.20504570833336,201.87942775000002,48.0,74.0
662,201.94578570833335,202.23127925000003,53.0,71.0
663,201.57541570833337,202.29300758333335,64.0,85.0
664,202.31615570833335,202.68189608333336,58.0,61.0
665,202.31615570833335,203.03374758333337,62.0,80.0
666,202.31615570833335,203.30535225000003,46.0,85.0
667,202.68652570833336,203.30998187500003,53.0,67.0
668,203.05689570833334,203.4843644166667,58.0,95.0
669,203.42726570833335,203.83467270833336,62.0,85.0
670,203.79763570833336,203.99362316666668,55.0,80.0
671,203.79763570833336,204.2389932916667,60.0,84.0
672,204.16800570833337,204.35782033333336,55.0,77.0
673,204.53837570833335,204.735906375,55.0,83.0
674,203.79763570833336,204.81769641666668,48.0,84.0
675,204.53837570833335,204.85473341666668,60.0,85.0
676,204.53837570833335,204.89331362500002,64.0,86.0
677,205.27911570833336,205.66646100000003,57.0,77.0
678,205.27911570833336,206.05226308333334,60.0,84.0
679,205.64948570833334,206.4257195,52.0,72.0
680,205.27911570833336,206.4380651666667,45.0,85.0
681,206.01985570833335,206.4658429166667,57.0,85.0
682,206.39022570833336,206.69886737500002,64.0,84.0
683,206.76059570833337,207.61090350000003,62.0,81.0
684,207.13096570833335,207.66182937500002,53.0,61.0
685,206.76059570833337,207.67880466666668,50.0,85.0
686,207.50133570833336,207.69732316666668,57.0,80.0
687,208.24207570833335,208.70503820833335,55.0,77.0
688,208.24207570833335,209.02139591666668,62.0,83.0
689,208.98281570833336,209.21892658333334,55.0,81.0
690,209.35318570833334,209.80997537500002,55.0,86.0
691,209.35318570833334,209.87479012500003,58.0,84.0
692,208.61244570833335,210.14022195833334,50.0,67.0
693,208.24207570833335,210.319234125,43.0,85.0
694,210.09392570833336,210.50133270833336,55.0,84.0
695,210.46429570833337,210.5491721666667,50.0,71.0
696,210.09392570833336,210.55997462500002,58.0,87.0
697,210.09392570833336,210.80534475000002,62.0,85.0
698,210.83466570833335,211.33003558333337,55.0,90.0
699,211.20503570833336,211.96738062500003,60.0,84.0
700,211.57540570833336,212.2621334166667,43.0,64.0
701,211.20503570833336,212.30071362500001,36.0,83.0
702,211.94577570833334,212.37015800000003,55.0,86.0
703,212.31614570833335,212.46275050000003,62.0,83.0
704,212.68651570833336,212.85318220833335,55.0,84.0
705,212.68651570833336,213.17262633333337,64.0,86.0
706,213.05688570833337,213.2575027916667,55.0,74.0
707,212.68651570833336,213.63867525000003,48.0,79.0
708,213.42725570833335,213.88250216666668,60.0,86.0
709,213.79762570833336,214.0584279166667,55.0,86.0
710,214.90873570833335,215.26830325000003,55.0,84.0
711,214.53836570833334,216.55688220833335,48.0,73.0
712,214.16799570833336,216.6139809166667,41.0,85.0
713,215.27910570833336,217.05225208333334,53.0,77.0
714,215.27910570833336,217.1000915416667,57.0,74.0
715,217.87169570833336,218.10317695833336,55.0,80.0
716,218.24206570833334,218.67570725000002,60.0,79.0
717,218.24206570833334,218.7250899166667,55.0,80.0
718,217.50132570833335,219.4612002916667,52.0,77.0
719,217.13095570833335,219.50595333333337,45.0,85.0
720,220.83465570833334,221.02292712500002,58.0,77.0
721,221.20502570833335,221.71428445833337,65.0,79.0
722,221.20502570833335,221.782185625,58.0,77.0
723,220.46428570833336,222.32539495833336,53.0,64.0
724,220.09391570833336,222.3547159166667,46.0,85.0
725,222.31613570833335,222.76520933333336,62.0,78.0
726,223.05687570833337,223.42261608333337,55.0,73.0
727,223.05687570833337,223.46119629166668,60.0,78.0
728,223.79761570833335,224.03989941666669,50.0,73.0
729,224.16798570833336,224.80996037500003,52.0,84.0
730,224.16798570833336,224.90872570833335,48.0,83.0
731,223.42724570833334,225.20656491666668,43.0,55.0
732,223.05687570833337,225.24823154166668,36.0,80.0
733,224.90872570833335,225.2898981666667,55.0,83.0
734,226.76057570833336,227.12014325,55.0,84.0
735,226.39020570833335,228.40872220833336,48.0,73.0
736,226.01983570833335,228.4658209166667,41.0,85.0
737,227.13094570833337,228.90409208333335,53.0,77.0
738,227.13094570833337,228.95193154166668,57.0,74.0
739,229.72353570833334,229.95501695833335,55.0,80.0
740,230.09390570833335,230.52754725000003,60.0,79.0
741,230.09390570833335,230.5769299166667,55.0,80.0
742,229.35316570833336,231.31304029166668,52.0,77.0
743,228.98279570833336,231.35779333333335,45.0,85.0
744,232.68649570833335,232.87476712500003,58.0,77.0
745,233.05686570833336,233.56612445833335,65.0,79.0
746,233.05686570833336,233.63402562500002,58.0,77.0
747,232.31612570833335,234.17723495833337,53.0,64.0
748,231.94575570833337,234.2065559166667,46.0,85.0
749,234.16797570833336,234.61704933333337,62.0,78.0
750,234.91334533333335,235.43494975000002,55.0,77.0
751,234.9148885416667,235.80069012500002,60.0,78.0
752,235.643282875,236.30377604166668,55.0,79.0
753,235.9935911666667,236.40254137500003,62.0,77.0
754,235.25593758333335,237.08926908333336,43.0,67.0
755,234.91643175000002,237.16642950000002,36.0,84.0
756,236.71889908333335,237.29142937500004,55.0,73.0
757,236.35624512500002,237.36241695833337,64.0,79.0
758,237.1926640416667,237.6787746666667,60.0,78.0
759,237.62013275000004,237.78216962500002,55.0,69.0
760,238.02753975000002,238.74976125000003,36.0,51.0
761,238.3269221666667,238.97352645833337,48.0,64.0
762,238.4102554166667,239.07383500000003,52.0,72.0
763,238.51210716666668,239.1046991666667,55.0,67.0
764,238.58463795833336,239.36550137500004,60.0,74.0
765,240.25130295833335,240.5398829166667,55.0,79.0
766,240.4611792916667,240.7296975416667,57.0,70.0
767,240.6926605416667,240.85469741666668,60.0,69.0
768,240.97043804166668,241.14790700000003,65.0,80.0
769,241.2667340416667,241.45191904166668,67.0,68.0
770,241.60315345833337,241.87012850000002,69.0,67.0
771,240.04759945833337,243.15716425000002,48.0,72.0
772,242.24049850000003,243.1695099166667,65.0,52.0
773,242.35006629166668,243.1741395416667,69.0,55.0
774,239.78216762500003,243.17876916666668,41.0,84.0
775,242.4241402916667,243.20500370833335,77.0,67.0
