,start,end,pitch,velocity
0,19.874969193749997,21.018624137499998,70.0,117.0
1,21.218250693749997,21.50556368125,70.0,100.0
2,21.66601119375,21.949592843749997,69.0,97.0
3,22.11377169375,22.397353343749998,70.0,112.0
4,22.561532193749997,23.029815049999996,72.0,117.0
5,23.45705319375,23.552202299999998,70.0,112.0
6,23.680933443749996,24.695857243749998,70.0,95.0
7,24.80033469375,25.093244687499997,70.0,107.0
8,25.248095193749997,25.628691618749997,69.0,93.0
9,25.695855693749998,25.99063135625,70.0,102.0
10,26.14361619375,26.67719745625,72.0,99.0
11,27.039137193749998,27.320853174999996,74.0,97.0
12,27.263017443749998,27.617494506249997,67.0,88.0
13,28.382418693749997,28.570851237499998,67.0,97.0
14,28.83017919375,29.037268424999997,65.0,95.0
15,29.277939693749996,29.412267843749998,69.0,99.0
16,29.501819943749997,30.026072862499998,70.0,122.0
17,30.17346069375,30.380549924999997,74.0,102.0
18,30.621221193749996,31.141742774999997,75.0,107.0
19,31.292861943749998,31.692115056249996,75.0,112.0
20,31.964502693749996,32.233158993749996,70.0,102.0
21,32.41226319375,33.076441268749996,70.0,117.0
22,33.307784193749995,33.87494749375,72.0,97.0
23,34.20330519375,35.0409904625,70.0,117.0
24,35.546586693749994,35.766735606249995,70.0,117.0
25,35.994347193749995,36.294719862499996,69.0,102.0
26,36.442107693749996,36.716361,70.0,107.0
27,36.88986819375,37.386136081249994,72.0,102.0
28,37.78538919375,37.93464269375,70.0,107.0
29,38.00926944375,38.738745924999996,70.0,112.0
30,39.128670693749996,39.445834381249995,70.0,112.0
31,39.57643119375,39.910385899999994,69.0,100.0
32,40.02419169375,40.31523601875,70.0,102.0
33,40.47195219375,40.94210071875,72.0,112.0
34,41.367473193749994,41.675308537499994,74.0,100.0
35,41.591353443749995,42.54284450625,67.0,93.0
36,42.93463494375,43.18090321875,65.0,76.0
37,43.15851519375,43.5633653125,67.0,97.0
38,43.60627569374999,43.8394842875,65.0,72.0
39,43.83015594374999,44.434632618749994,67.0,100.0
40,44.501796693749995,45.02045260625,69.0,100.0
41,44.949557193749996,46.485002574999996,70.0,107.0
42,47.636120193749996,47.99059725625,70.0,117.0
43,48.08388069375,48.44582043125,72.0,102.0
44,48.53164119375,49.290968375,74.0,122.0
45,49.42716219374999,49.9066390625,72.0,112.0
46,50.098802943749995,50.861861462499995,72.0,95.0
47,51.21820419375,51.52044253125,70.0,117.0
48,51.66596469375,51.929023987499995,72.0,100.0
49,52.11372519374999,52.6827541625,74.0,122.0
50,53.009246193749995,53.50737975,72.0,127.0
51,53.68088694375,54.225662218749996,72.0,102.0
52,54.35252769375,54.927153668749995,70.0,90.0
53,54.80028819374999,54.927153668749995,70.0,117.0
54,55.24804869374999,55.535361681249995,72.0,112.0
55,55.695809193749994,56.02416689374999,74.0,122.0
56,56.143569693749996,56.24431580624999,72.0,107.0
57,56.367449943749996,57.03162801875,72.0,127.0
58,57.48685119374999,57.77602984999999,74.0,117.0
59,57.93461169374999,58.0334921375,72.0,96.0
60,58.15849194374999,58.591327093749996,72.0,102.0
61,58.830132693749995,59.16222173124999,70.0,100.0
62,59.277893193749996,60.61557768749999,72.0,112.0
63,61.964456193749996,62.47191809374999,70.0,127.0
64,62.41221669375,62.76109674999999,72.0,112.0
65,62.85997719374999,63.23124527499999,74.0,127.0
66,63.30773769374999,63.496170237499996,72.0,107.0
67,63.53161794374999,64.07452755,74.0,122.0
68,64.20325869375,64.35624353125,72.0,112.0
69,64.42713894375,65.052137975,74.0,127.0
70,65.09877969374999,65.34504796875,72.0,102.0
71,65.32265994375,65.78161445625,74.0,97.0
72,65.99430069374999,66.29094202499999,70.0,122.0
73,66.44206119374999,67.887954475,77.0,127.0
74,68.23310319375,68.50549083125,77.0,102.0
75,68.68086369375,69.04280343125,75.0,100.0
76,69.12862419375,69.41966851875,74.0,93.0
77,69.57638469375,69.83011564374999,75.0,117.0
78,70.02414519374999,70.30586117499999,74.0,127.0
79,70.47190569374999,70.61183084999999,72.0,100.0
80,70.69578594375,71.343173,74.0,127.0
81,71.36742669374999,71.58011293125,72.0,93.0
82,71.59130694375,72.13048521249999,74.0,102.0
83,72.26294769375,72.58197704999999,72.0,95.0
84,72.71070819375,72.95324513125,70.0,122.0
85,73.15846869375,73.72563199375,79.0,122.0
86,74.05398969375,75.08197317499999,77.0,117.0
87,75.39727119374999,75.69018118749999,77.0,99.0
88,75.84503169374999,76.19204608125,75.0,112.0
89,76.29279219374999,76.59503053124999,74.0,93.0
90,76.74055269374999,77.0036119875,75.0,122.0
91,77.18831319374999,77.65846171874999,74.0,107.0
92,77.85995394375,78.3767441875,70.0,96.0
93,78.53159469375,78.9364448125,70.0,117.0
94,78.97935519375,79.36181728749999,69.0,99.0
95,79.42711569375,79.77039874375,70.0,117.0
96,79.87487619375,80.25174128124999,72.0,117.0
97,80.32263669375,80.63980038125,79.0,112.0
98,80.77039719374999,81.35621718124999,78.0,112.0
99,81.44203794375,81.69576889375,72.0,96.0
100,81.66591819374999,82.10994735624999,74.0,90.0
101,82.11367869374999,82.49054378125,72.0,107.0
102,82.56143919374999,83.48681089374999,70.0,112.0
103,84.12860094374999,84.305839475,67.0,86.0
104,84.35248119375,84.74427163124999,75.0,127.0
105,84.80024169375,85.04277863124999,74.0,99.0
106,85.24800219375,85.51479282499999,75.0,127.0
107,85.69576269375,85.94203096874999,74.0,127.0
108,86.14352319375,86.43643318749999,75.0,127.0
109,86.59128369374999,86.75359687499999,74.0,127.0
110,87.03904419374999,87.59314781249999,75.0,127.0
111,87.71068494375,89.30023471874999,77.0,117.0
112,90.62112819375,90.947620225,70.0,127.0
113,91.06888869375,91.3692613625,72.0,100.0
114,91.51664919375,91.83754421875,74.0,112.0
115,91.96440969374999,92.1453795625,72.0,107.0
116,92.18828994375,92.73679655624998,74.0,122.0
117,92.85993069374999,93.00358718749999,72.0,107.0
118,93.08381094375,93.47560138124999,74.0,117.0
119,93.75545169374999,93.9811976125,72.0,92.0
120,93.97933194375,94.36739104374999,74.0,102.0
121,94.42709244375,94.56142059374999,70.0,100.0
122,94.65097269374999,94.97373338749999,70.0,117.0
123,95.09873319375,96.04089591249999,77.0,127.0
124,96.88977519375,97.17149117499999,77.0,112.0
125,97.33753569374998,97.62671434999999,75.0,112.0
126,97.78529619374999,98.03343013749999,74.0,99.0
127,98.23305669374999,98.52410101874999,75.0,122.0
128,98.68081719374999,99.02223457499998,74.0,117.0
129,99.12857769374999,99.2274581375,72.0,100.0
130,99.35245794375,99.8244721375,74.0,117.0
131,100.02409869374999,100.10991945625,72.0,96.0
132,100.24797894374998,100.7199931375,74.0,122.0
133,100.91961969375,101.193873,72.0,99.0
134,101.36738019375,101.58566343749999,70.0,127.0
135,101.81514069375,102.58193055,79.0,127.0
136,102.71066169375,103.90095835624999,77.0,96.0
137,104.05394319374999,104.37856955624999,77.0,122.0
138,104.50170369374999,104.93267317499999,75.0,107.0
139,104.94946419374999,105.19946380625,74.0,97.0
140,105.39722469374999,105.68453768124999,75.0,127.0
141,105.84498519374999,106.2423726375,74.0,127.0
142,106.51662594374999,107.20319204375,70.0,100.0
143,107.18826669375,107.20319204375,70.0,127.0
144,107.63602719375,108.02035495624999,69.0,102.0
145,108.08378769375,108.42707074375,70.0,122.0
146,108.53154819374998,108.79460748749999,72.0,112.0
147,108.97930869374999,109.26848734999999,79.0,107.0
148,109.42706919374999,109.91587440624998,78.0,127.0
149,110.09870994375,110.63788821249999,74.0,107.0
150,110.77035069374999,111.09124571874999,72.0,107.0
151,111.21811119374999,112.44385556249999,70.0,112.0
152,112.78527294374999,113.0035561875,67.0,85.0
153,113.00915319375,113.37668993749999,75.0,107.0
154,113.45691369375,113.58191349999998,74.0,99.0
155,113.68079394374999,114.15094246874999,75.0,127.0
156,114.35243469374998,114.60243430624999,74.0,107.0
157,114.80019519374999,115.24609002499999,72.0,99.0
158,115.24795569374999,115.57817906249998,70.0,127.0
159,115.69571619374999,116.61735655624999,69.0,100.0
160,116.59123719374999,118.32817479999999,70.0,100.0
161,120.17332119374998,121.31697613749999,70.0,117.0
162,121.51660269374999,121.80391568124999,70.0,100.0
163,121.96436319374999,122.24794484374999,69.0,97.0
164,122.41212369374999,122.69570534374999,70.0,112.0
165,122.85988419374999,123.32816704999999,72.0,117.0
166,123.75540519375,123.85055429999998,70.0,112.0
167,123.97928544374999,124.99420924374999,70.0,95.0
168,125.09868669374998,125.39159668749998,70.0,107.0
169,125.54644719374998,125.92704361874999,69.0,93.0
170,125.99420769374998,126.28898335624999,70.0,102.0
171,126.44196819374999,126.97554945625,72.0,99.0
172,127.33748919374999,127.61920517499999,74.0,97.0
173,127.56136944375,127.91584650624999,67.0,88.0
174,128.68077069375,128.8692032375,67.0,97.0
175,129.12853119374998,129.335620425,65.0,95.0
176,129.57629169375,129.71061984374998,69.0,99.0
177,129.80017194375,130.3244248625,70.0,122.0
178,130.47181269375,130.678901925,74.0,102.0
179,130.91957319374998,131.44009477499998,75.0,107.0
180,131.59121394374998,131.99046705625,75.0,112.0
181,132.26285469375,132.53151099374998,70.0,102.0
182,132.71061519375,133.37479326874998,70.0,117.0
183,133.60613619375,134.17329949375,72.0,97.0
184,134.50165719375,135.33934246249999,70.0,117.0
185,135.84493869374998,136.06508760625,70.0,117.0
186,136.29269919375,136.59307186249998,69.0,102.0
187,136.74045969374998,137.014713,70.0,107.0
188,137.18822019375,137.68448808124998,72.0,102.0
189,138.08374119375,138.23299469375,70.0,107.0
190,138.30762144374998,139.03709792499998,70.0,112.0
191,139.42702269375,139.74418638125,70.0,112.0
192,139.87478319374998,140.2087379,69.0,100.0
193,140.32254369375,140.61358801875,70.0,102.0
194,140.77030419374998,141.24045271875,72.0,112.0
195,141.66582519374998,141.9736605375,74.0,100.0
196,141.88970544375,142.84119650625,67.0,93.0
197,143.23298694374998,143.47925521874998,65.0,76.0
198,143.45686719374999,143.8617173125,67.0,97.0
199,143.90462769375,144.1378362875,65.0,72.0
200,144.12850794374998,144.73298461874998,67.0,100.0
201,144.80014869374997,145.31880460624998,69.0,100.0
202,145.24790919375,146.78335457499998,70.0,107.0
203,147.93447219375,148.28894925625,70.0,117.0
204,148.38223269374998,148.74417243124998,72.0,102.0
205,148.82999319375,149.589320375,74.0,122.0
206,149.72551419374997,150.2049910625,72.0,112.0
207,150.39715494375,151.1602134625,72.0,95.0
208,151.51655619374998,151.81879453124998,70.0,117.0
209,151.96431669375,152.22737598749998,72.0,100.0
210,152.41207719374998,152.9811061625,74.0,122.0
211,153.30759819374998,153.80573174999998,72.0,127.0
212,153.97923894374998,154.52401421874998,72.0,102.0
213,154.65087969375,155.22550566874997,70.0,90.0
214,155.09864019375,155.22550566874997,70.0,117.0
215,155.54640069374997,155.83371368124998,72.0,112.0
216,155.99416119375,156.32251889375,74.0,122.0
217,156.44192169374998,156.54266780625,72.0,107.0
218,156.66580194374998,157.32998001874998,72.0,127.0
219,157.78520319375,158.07438184999998,74.0,117.0
220,158.23296369374998,158.33184413749998,72.0,96.0
221,158.45684394375,158.88967909374998,72.0,102.0
222,159.12848469374998,159.46057373124998,70.0,100.0
223,159.57624519375,160.91392968749997,72.0,112.0
224,162.26280819374998,162.77027009374999,70.0,127.0
225,162.71056869375,163.05944874999997,72.0,112.0
226,163.15832919374998,163.529597275,74.0,127.0
227,163.60608969375,163.7945222375,72.0,107.0
228,163.82996994374997,164.37287955,74.0,122.0
229,164.50161069375,164.65459553124998,72.0,112.0
230,164.72549094374997,165.350489975,74.0,127.0
231,165.39713169375,165.64339996874997,72.0,102.0
232,165.62101194374998,166.07996645625,74.0,97.0
233,166.29265269374997,166.589294025,70.0,122.0
234,166.74041319375,168.18630647499998,77.0,127.0
235,168.53145519375,168.80384283125,77.0,102.0
236,168.97921569374998,169.34115543124997,75.0,100.0
237,169.42697619375,169.71802051875,74.0,93.0
238,169.87473669374998,170.12846764374999,75.0,117.0
239,170.32249719375,170.60421317499998,74.0,127.0
240,170.77025769374998,170.91018284999998,72.0,100.0
241,170.99413794375,171.64152499999997,74.0,127.0
242,171.66577869374998,171.87846493125,72.0,93.0
243,171.88965894375,172.42883721249999,74.0,102.0
244,172.56129969375,172.88032904999997,72.0,95.0
245,173.00906019374997,173.25159713124998,70.0,122.0
246,173.45682069375,174.02398399375,79.0,122.0
247,174.35234169375,175.380325175,77.0,117.0
248,175.69562319374998,175.9885331875,77.0,99.0
249,176.14338369375,176.49039808125,75.0,112.0
250,176.59114419374998,176.89338253124998,74.0,93.0
251,177.03890469375,177.3019639875,75.0,122.0
252,177.48666519374999,177.95681371875,74.0,107.0
253,178.15830594374998,178.67509618749997,70.0,96.0
254,178.82994669374997,179.23479681249998,70.0,117.0
255,179.27770719375,179.6601692875,69.0,99.0
256,179.72546769374998,180.06875074374997,70.0,117.0
257,180.17322819375,180.55009328124999,72.0,117.0
258,180.62098869374998,180.93815238124998,79.0,112.0
259,181.06874919375,181.65456918125,78.0,112.0
260,181.74038994375,181.99412089375,72.0,96.0
261,181.96427019375,182.40829935624998,74.0,90.0
262,182.41203069374998,182.78889578124998,72.0,107.0
263,182.85979119374997,183.78516289374997,70.0,112.0
264,184.42695294375,184.604191475,67.0,86.0
265,184.65083319374997,185.04262363125,75.0,127.0
266,185.09859369375,185.34113063125,74.0,99.0
267,185.54635419374998,185.813144825,75.0,127.0
268,185.99411469375,186.24038296874997,74.0,127.0
269,186.44187519374998,186.7347851875,75.0,127.0
270,186.88963569375,187.051948875,74.0,127.0
271,187.33739619374998,187.89149981249997,75.0,127.0
272,188.00903694374998,189.59858671874997,77.0,117.0
273,190.91948019375,191.24597222499997,70.0,127.0
274,191.36724069374998,191.6676133625,72.0,100.0
275,191.81500119375,192.13589621875,74.0,112.0
276,192.26276169374998,192.44373156249998,72.0,107.0
277,192.48664194375,193.03514855625,74.0,122.0
278,193.15828269374998,193.30193918749998,72.0,107.0
279,193.38216294375,193.77395338124998,74.0,117.0
280,194.05380369374998,194.27954961249998,72.0,92.0
281,194.27768394375,194.66574304374998,74.0,102.0
282,194.72544444374998,194.85977259375,70.0,100.0
283,194.94932469375,195.27208538749997,70.0,117.0
284,195.39708519374997,196.33924791249999,77.0,127.0
285,197.18812719374998,197.469843175,77.0,112.0
286,197.63588769375,197.92506634999998,75.0,112.0
287,198.08364819374998,198.33178213749997,74.0,99.0
288,198.53140869375,198.82245301875,75.0,122.0
289,198.97916919374998,199.320586575,74.0,117.0
290,199.42692969374997,199.52581013749997,72.0,100.0
291,199.65080994374998,200.12282413749998,74.0,117.0
292,200.32245069374997,200.40827145625,72.0,96.0
293,200.54633094374998,201.01834513749998,74.0,122.0
294,201.21797169374997,201.492225,72.0,99.0
295,201.66573219375,201.88401543749998,70.0,127.0
296,202.11349269374998,202.88028254999998,79.0,127.0
297,203.00901369374998,204.19931035624998,77.0,96.0
298,204.35229519375,204.67692155625,77.0,122.0
299,204.80005569374998,205.23102517499998,75.0,107.0
300,205.24781619374997,205.49781580624997,74.0,97.0
301,205.69557669374998,205.98288968125,75.0,127.0
302,206.14333719374997,206.54072463749998,74.0,127.0
303,206.81497794375,207.50154404375,70.0,100.0
304,207.48661869375,207.50154404375,70.0,127.0
305,207.93437919374998,208.31870695624997,69.0,102.0
306,208.38213969375,208.72542274375,70.0,122.0
307,208.82990019374998,209.09295948749997,72.0,112.0
308,209.27766069375,209.56683934999998,79.0,107.0
309,209.72542119374998,210.21422640625,78.0,127.0
310,210.39706194374997,210.93624021249997,74.0,107.0
311,211.06870269374997,211.38959771874997,72.0,107.0
312,211.51646319374998,212.74220756249997,70.0,112.0
313,213.08362494374998,213.30190818749998,67.0,85.0
314,213.30750519375,213.67504193749997,75.0,107.0
315,213.75526569374998,213.88026549999998,74.0,99.0
316,213.97914594374998,214.44929446874997,75.0,127.0
317,214.65078669374998,214.90078630624998,74.0,107.0
318,215.09854719375,215.544442025,72.0,99.0
319,215.54630769374998,215.8765310625,70.0,127.0
320,215.99406819374997,216.91570855624997,69.0,100.0
321,216.88958919374997,218.6265268,70.0,100.0
322,223.82987694374998,224.05935419999997,67.0,77.0
323,224.05375719375,224.44181629374998,75.0,107.0
324,224.50151769374997,224.828009725,74.0,93.0
325,224.94927819375,225.26830754999997,75.0,122.0
326,225.4063670375,225.80002314374997,77.0,99.0
327,225.89517224999997,226.46420121875,72.0,96.0
328,226.60226070624998,226.82054394999997,70.0,88.0
329,226.9511407625,228.72725741249997,69.0,88.0
330,229.07986880624998,230.12091196875,72.0,97.0
331,230.12277763749998,233.04254923124998,70.0,74.0
