,start,end,pitch,velocity
0,1.96454919375,4.529843724999999,53.0,34.0
1,1.96454919375,4.57275410625,46.0,34.0
2,1.96454919375,4.589545125,50.0,38.0
3,1.96454919375,4.64738085625,58.0,62.0
4,1.96454919375,4.6604405374999995,62.0,58.0
5,1.96454919375,4.6753658875,65.0,49.0
6,5.546633193749999,7.654838881249999,56.0,57.0
7,5.546633193749999,7.776107349999999,44.0,59.0
8,5.546633193749999,7.93468919375,60.0,57.0
9,5.546633193749999,7.951480212499999,63.0,64.0
10,5.546633193749999,7.972002568749999,68.0,62.0
11,9.12871719375,11.8805786,43.0,63.0
12,9.12871719375,12.444010562499999,62.0,70.0
13,9.12871719375,12.451473237499998,55.0,74.0
14,9.12871719375,12.486920943749999,58.0,68.0
15,13.158561693749999,13.869381487499998,49.0,37.0
16,12.71080119375,13.960799256249999,42.0,78.0
17,13.60632219375,14.091396068749999,54.0,63.0
18,14.054082693749999,14.541022237499998,58.0,69.0
19,13.60632219375,14.542887906249998,61.0,72.0
20,13.60632219375,14.580201281249998,66.0,81.0
21,14.94960369375,15.876841062499999,51.0,55.0
22,15.397364193749999,15.92721411875,56.0,55.0
23,14.501843193749998,16.0634079375,44.0,63.0
24,15.397364193749999,16.335795575,68.0,83.0
25,15.845124693749998,16.350720924999997,60.0,64.0
26,15.397364193749999,16.350720924999997,63.0,93.0
27,16.740645693749997,17.59885331875,50.0,38.0
28,17.188406193749998,17.66974873125,62.0,61.0
29,17.63616669375,17.7947485375,63.0,53.0
30,18.08392719375,19.486910093749998,53.0,40.0
31,16.29288519375,19.59698455,46.0,63.0
32,18.08392719375,20.320864025,58.0,63.0
33,18.08392719375,20.43466981875,65.0,45.0
34,18.08392719375,21.026086812499997,62.0,54.0
35,20.77049019375,21.789145331249998,53.0,59.0
36,21.218250693749997,21.906682462499997,58.0,58.0
37,22.11377169375,22.710785693749997,53.0,42.0
38,20.32272969375,22.88242721875,50.0,40.0
39,19.874969193749997,22.902949574999997,46.0,55.0
40,23.009292693749998,23.9589180875,58.0,69.0
41,21.66601119375,24.134290949999997,65.0,63.0
42,22.561532193749997,24.367499543749997,62.0,85.0
43,23.904813693749997,24.585782787499998,50.0,59.0
44,24.80033469375,25.33764729375,50.0,59.0
45,23.45705319375,26.03167606875,43.0,74.0
46,25.695855693749998,26.054064093749997,50.0,36.0
47,24.352574193749998,26.152944537499998,55.0,70.0
48,25.248095193749997,26.60630204375,62.0,97.0
49,26.591376693749996,27.111898274999998,55.0,66.0
50,26.14361619375,27.111898274999998,58.0,73.0
51,27.934658193749996,28.305926274999997,51.0,60.0
52,27.48689769375,28.380553024999998,46.0,39.0
53,27.039137193749998,28.453314106249998,39.0,72.0
54,28.382418693749997,28.457045443749998,58.0,12.0
55,28.382418693749997,28.921596962499997,55.0,75.0
56,29.725700193749997,30.0559235625,50.0,40.0
57,29.277939693749996,30.09137126875,45.0,48.0
58,28.83017919375,30.13241598125,38.0,71.0
59,29.725700193749997,30.55032578125,62.0,69.0
60,29.725700193749997,30.615624187499996,57.0,66.0
61,30.17346069375,30.63241520625,53.0,59.0
62,31.068981693749997,31.686518049999997,43.0,35.0
63,30.621221193749996,31.708906074999998,36.0,74.0
64,31.516742193749998,31.813383524999995,48.0,48.0
65,31.516742193749998,32.240621668749995,60.0,74.0
66,31.516742193749998,32.249950012499994,63.0,78.0
67,31.964502693749996,32.37494981875,55.0,64.0
68,32.41226319375,32.98315783125,39.0,78.0
69,32.860023693749994,33.26860515,55.0,41.0
70,32.860023693749994,33.28912750625,58.0,54.0
71,32.860023693749994,33.304052856249996,51.0,60.0
72,33.307784193749995,33.7947237375,41.0,69.0
73,33.75554469375,34.1827828375,53.0,69.0
74,33.75554469375,34.20330519375,57.0,77.0
75,33.75554469375,34.216364875,60.0,82.0
76,35.994347193749995,36.03166056875,62.0,44.0
77,35.546586693749994,36.068973943749995,58.0,90.0
78,35.09882619375,36.072705281249995,53.0,86.0
79,34.65106569375,37.19956920625,50.0,48.0
80,36.442107693749996,37.23688258124999,53.0,59.0
81,34.20330519375,37.24061391875,46.0,99.0
82,35.994347193749995,37.77606084999999,65.0,89.0
83,37.33762869375,37.8693442875,58.0,71.0
84,36.88986819375,38.00367243749999,62.0,82.0
85,38.23314969374999,38.887999425,50.0,64.0
86,39.128670693749996,39.764863737499994,50.0,48.0
87,38.680910193749995,40.503668562499996,55.0,88.0
88,40.02419169375,40.57269830625,50.0,41.0
89,37.78538919375,40.6268027,43.0,68.0
90,39.57643119375,40.979414093749995,62.0,89.0
91,40.47195219375,41.4066522375,58.0,95.0
92,40.91971269374999,41.507398349999995,55.0,78.0
93,41.367473193749994,42.4738147625,39.0,83.0
94,41.815233693749995,42.4887401125,46.0,37.0
95,42.262994193749996,42.5633668625,51.0,45.0
96,42.262994193749996,43.1641122,63.0,102.0
97,42.71075469375,43.18090321875,58.0,69.0
98,43.15851519375,44.09508090625,41.0,71.0
99,43.60627569374999,44.126797274999994,48.0,50.0
100,44.054036193749994,44.878661781249995,60.0,82.0
101,44.501796693749995,44.882393118749995,53.0,68.0
102,44.054036193749994,44.887990124999995,57.0,86.0
103,45.39731769375,46.335749074999995,51.0,52.0
104,45.84507819375,46.339480412499995,63.0,99.0
105,44.949557193749996,46.3842564625,46.0,93.0
106,45.84507819375,46.425301174999994,53.0,40.0
107,46.29283869375,47.503657712499994,65.0,59.0
108,46.74059919374999,47.768582675,46.0,59.0
109,46.74059919374999,47.811493056249994,58.0,52.0
110,46.74059919374999,48.50179049374999,62.0,66.0
111,47.636120193749996,48.568954568749994,65.0,59.0
112,48.08388069375,48.58947692499999,58.0,42.0
113,48.97940169375,49.639848431249995,46.0,35.0
114,48.53164119375,49.67343046875,39.0,68.0
115,49.42716219374999,49.69581849375,51.0,38.0
116,49.42716219374999,50.337608543749994,63.0,57.0
117,49.42716219374999,50.34880255624999,58.0,56.0
118,50.770443693749996,51.30402495625,48.0,50.0
119,50.322683193749995,51.35066667499999,41.0,65.0
120,51.66596469375,52.160366912499995,53.0,47.0
121,51.21820419375,52.162232581249995,57.0,59.0
122,51.21820419375,52.177157931249994,60.0,59.0
123,52.11372519374999,53.20887275,38.0,62.0
124,52.561485693749994,53.2200667625,45.0,49.0
125,53.009246193749995,53.25738013749999,50.0,44.0
126,53.009246193749995,53.839468787499996,62.0,65.0
127,53.009246193749995,53.863722481249994,65.0,55.0
128,53.457006693749996,53.98685661875,57.0,52.0
129,54.35252769375,54.535363231249995,50.0,54.0
130,53.90476719375,54.537228899999995,43.0,67.0
131,55.24804869374999,55.675286837499996,55.0,79.0
132,54.80028819374999,55.686480849999995,62.0,72.0
133,54.80028819374999,55.697674862499994,58.0,73.0
134,56.143569693749996,56.908493881249996,51.0,70.0
135,55.695809193749994,57.01856833749999,44.0,88.0
136,56.59133019375,57.535358581249994,60.0,97.0
137,57.03909069375,57.55401526874999,56.0,69.0
138,56.59133019375,57.56147794374999,63.0,99.0
139,57.93461169374999,58.77416263124999,50.0,55.0
140,57.48685119374999,58.843192374999994,43.0,86.0
141,58.382372193749994,59.290952874999995,62.0,102.0
142,58.830132693749995,59.300281218749994,55.0,79.0
143,59.72565369375,60.31520501874999,48.0,45.0
144,60.17341419374999,60.60998068124999,53.0,69.0
145,60.17341419374999,60.984980099999994,60.0,102.0
146,59.277893193749996,61.00550245624999,41.0,86.0
147,60.62117469374999,61.08759188124999,48.0,58.0
148,61.068935193749994,61.85065039999999,60.0,81.0
149,61.068935193749994,61.85251606874999,57.0,89.0
150,61.068935193749994,61.899157787499995,53.0,92.0
151,61.068935193749994,62.3282616,41.0,79.0
152,62.188336443749996,62.335724275,48.0,81.0
153,61.964456193749996,62.45512707499999,57.0,97.0
154,62.41221669375,62.7946787875,53.0,93.0
155,61.964456193749996,62.83199216249999,60.0,89.0
156,63.30773769374999,63.818930931249994,58.0,95.0
157,63.53161794374999,64.2125870375,62.0,74.0
158,62.85997719374999,64.48310900624999,46.0,97.0
159,63.08385744374999,64.664078875,53.0,47.0
160,63.979378443749994,64.7200489375,58.0,88.0
161,63.75549819374999,64.78721301249999,70.0,100.0
162,64.42713894375,64.83385473125,62.0,97.0
163,64.20325869375,65.18833179375,65.0,82.0
164,65.09877969374999,65.604375925,58.0,95.0
165,65.32265994375,65.76295776875,62.0,90.0
166,65.77042044375,65.99616636249999,58.0,96.0
167,64.87489944375,65.99989769999999,53.0,69.0
168,64.65101919374999,66.19019591249999,46.0,69.0
169,65.54654019374999,66.34877775624999,70.0,127.0
170,65.99430069374999,66.38609113125,65.0,97.0
171,66.21818094375,66.44206119374999,62.0,95.0
172,67.11370194374999,67.42153728749999,53.0,44.0
173,66.88982169375,67.64728320625,57.0,82.0
174,66.44206119374999,67.83571574999999,45.0,77.0
175,66.66594144375,68.09131236875,50.0,55.0
176,67.56146244374999,68.10437205,53.0,54.0
177,68.00922294374999,68.48310280624999,57.0,88.0
178,67.78534269375,68.75549044374999,62.0,90.0
179,67.33758219375,68.75922178124999,65.0,100.0
180,68.90474394374999,69.1678032375,62.0,85.0
181,68.45698344374999,69.1827285875,53.0,66.0
182,68.68086369375,69.23683298124999,57.0,72.0
183,68.23310319375,69.53907131874999,50.0,79.0
184,69.35250444375,69.5782503625,53.0,79.0
185,69.12862419375,69.9588467875,65.0,107.0
186,69.57638469375,69.96444379375,62.0,99.0
187,69.80026494375,70.05399589375,57.0,89.0
188,70.47190569374999,70.75362167499999,55.0,78.0
189,70.69578594375,70.97563625625,58.0,99.0
190,70.24802544375,71.00548695625,50.0,46.0
191,70.02414519374999,71.65660534999999,43.0,69.0
192,71.14354644375,71.78533649375,50.0,55.0
193,70.91966619374999,71.84317222499999,62.0,92.0
194,71.59130694375,71.873022925,55.0,81.0
195,71.36742669374999,71.87861993125,58.0,92.0
196,72.26294769375,72.828245325,55.0,79.0
197,72.03906744375,72.84503634375,50.0,63.0
198,72.48682794375,73.04279723124999,62.0,90.0
199,72.93458844374999,73.08384194374999,50.0,65.0
200,71.81518719374999,73.1043643,43.0,72.0
201,72.71070819375,73.47190104375,70.0,127.0
202,73.15846869375,73.5819755,67.0,93.0
203,73.38234894374999,73.69764696249999,62.0,85.0
204,74.05398969375,74.58943662499999,50.0,74.0
205,74.27786994374999,74.82637655625,62.0,77.0
206,74.72563044374999,75.03906279374999,50.0,93.0
207,73.60622919375,75.24428635624999,38.0,79.0
208,73.83010944374999,75.39167418749999,45.0,48.0
209,75.17339094375,75.9065987625,62.0,89.0
210,74.50175019375,75.91219576875,69.0,107.0
211,74.94951069375,76.11741933124999,65.0,96.0
212,75.84503169374999,76.37301595,50.0,88.0
213,76.06891194375,76.44018002499999,62.0,89.0
214,75.39727119374999,76.58383651874999,38.0,67.0
215,75.62115144375,76.634209575,45.0,71.0
216,76.51667244375,76.69577664375,50.0,96.0
217,76.74055269374999,77.10622376875,65.0,97.0
218,76.29279219374999,77.10622376875,69.0,122.0
219,76.96443294375,77.16219383125,62.0,96.0
220,77.85995394375,78.14726693124999,58.0,79.0
221,77.41219344375,78.1752519625,51.0,57.0
222,77.63607369374999,78.24055036875,55.0,85.0
223,77.18831319374999,78.44390826249999,39.0,74.0
224,78.30771444374999,78.514803675,51.0,86.0
225,78.08383419375,78.85808672499999,63.0,117.0
226,78.53159469375,78.86554939999999,58.0,92.0
227,78.75547494374999,78.9849522,55.0,86.0
228,78.97935519375,79.68457798124999,41.0,86.0
229,79.20323544374999,79.75174205625,53.0,83.0
230,79.65099594374999,79.78905543124999,57.0,72.0
231,79.42711569375,79.79278676874999,60.0,99.0
232,80.09875644374999,80.39912911249999,51.0,69.0
233,79.87487619375,80.52226325,39.0,86.0
234,80.32263669375,80.70323311874999,58.0,92.0
235,80.54651694374999,80.71256146249999,51.0,93.0
236,81.21815769374999,81.78532099374999,50.0,86.0
237,81.44203794375,81.98681321874999,57.0,85.0
238,80.77039719374999,82.0185295875,38.0,73.0
239,80.99427744375,82.0633056375,45.0,53.0
240,81.88979844375,82.14352939374999,50.0,61.0
241,82.11367869374999,82.5073348,62.0,88.0
242,81.66591819374999,82.55770785624999,66.0,102.0
243,82.33755894375,82.60621524374999,57.0,74.0
244,83.00919969374999,83.32076637499999,55.0,86.0
245,83.23307994375,83.52039293124999,58.0,89.0
246,82.78531944375,83.5782286625,50.0,46.0
247,83.68084044374999,83.8394222875,50.0,66.0
248,82.56143919374999,83.880467,43.0,64.0
249,83.45696019374999,84.33755584375,62.0,95.0
250,84.12860094374999,84.35248119375,55.0,59.0
251,83.90472069375,84.35248119375,58.0,83.0
252,84.80024169375,85.30024091874999,48.0,85.0
253,85.02412194374999,85.529718175,55.0,88.0
254,84.57636144374999,85.5782255625,43.0,69.0
255,84.35248119375,85.5856882375,36.0,73.0
256,85.47188244374999,85.59501658125,48.0,92.0
257,85.91964294374999,86.23494096249999,55.0,90.0
258,85.24800219375,86.23680663124999,63.0,127.0
259,85.69576269375,86.28904535624999,60.0,97.0
260,86.81516394375,86.96068610625,60.0,78.0
261,86.36740344374999,87.12113361875,46.0,35.0
262,86.59128369374999,87.13605896874999,55.0,70.0
263,86.14352319375,87.395386925,34.0,86.0
264,87.26292444375,87.45695399374999,46.0,70.0
265,87.03904419374999,87.58008813125,63.0,127.0
266,87.48680469374999,87.85247576875,60.0,102.0
267,87.71068494375,87.8804608,55.0,85.0
268,88.15844544375,88.45322110625,53.0,73.0
269,88.38232569374999,88.70695205624999,57.0,65.0
270,88.60620594375,88.93083230625,53.0,77.0
271,89.05396644374999,89.33008541874999,53.0,83.0
272,87.93456519374999,89.51478662499999,45.0,97.0
273,89.27784669374999,89.5707566875,57.0,82.0
274,88.83008619374999,89.58568203749999,60.0,117.0
275,89.50172694374999,89.66030878749999,53.0,90.0
276,89.72560719375,90.28903915625,39.0,85.0
277,89.94948744374999,90.33754654375,51.0,72.0
278,90.39724794374999,90.59500883125,63.0,112.0
279,90.17336769375,90.6528445625,55.0,83.0
280,90.62112819375,91.04463499999999,41.0,73.0
281,90.84500844374999,91.17523181249999,53.0,85.0
282,91.06888869375,91.42336575624999,60.0,99.0
283,91.29276894374999,91.45694779374999,57.0,89.0
284,91.96440969374999,92.4588119125,53.0,72.0
285,92.18828994375,92.55582668749999,58.0,76.0
286,91.51664919375,93.18269138749999,46.0,90.0
287,92.63605044375,93.201348075,53.0,73.0
288,91.74052944374999,93.29090017499999,50.0,65.0
289,92.85993069374999,93.8170187625,58.0,79.0
290,93.75545169374999,94.26664493124999,53.0,82.0
291,93.97933194375,94.38045072499999,58.0,99.0
292,93.08381094375,94.68268906249999,62.0,70.0
293,94.42709244375,94.78903218125,53.0,75.0
294,93.30769119374999,94.82447988749999,46.0,79.0
295,93.53157144375,95.01664376874999,50.0,59.0
296,94.20321219374999,95.06515115625,70.0,83.0
297,92.41217019374999,95.08380784375,65.0,73.0
298,94.65097269374999,95.11925554999999,58.0,89.0
299,94.87485294374999,95.12298688749999,62.0,69.0
300,95.32261344374999,95.65470248125,57.0,83.0
301,95.54649369375,95.89910508749999,62.0,81.0
302,95.77037394374999,96.10992565624998,57.0,93.0
303,96.21813444374999,96.49798475624999,57.0,72.0
304,95.09873319375,96.83567079999999,45.0,74.0
305,96.66589494374999,96.98678996874999,57.0,90.0
306,96.44201469375,97.18455085624998,62.0,83.0
307,95.99425419375,97.22186423125,65.0,99.0
308,97.11365544374999,97.42522212499999,57.0,64.0
309,97.33753569374998,97.64723670625,62.0,69.0
310,97.56141594374999,97.89537064999999,57.0,92.0
311,96.88977519375,97.98678841875,45.0,58.0
312,98.00917644375,98.29275809375,57.0,85.0
313,98.23305669374999,98.65469783124999,62.0,73.0
314,97.78529619374999,98.67148884999999,65.0,107.0
315,98.45693694375,98.67522018749999,57.0,90.0
316,99.12857769374999,99.44387571249999,55.0,85.0
317,99.35245794375,99.60432322499999,58.0,122.0
318,98.90469744375,99.61738290624999,50.0,55.0
319,98.68081719374999,100.36738174374999,43.0,64.0
320,99.80021844375,100.455068175,50.0,96.0
321,100.02409869374999,100.51476957499999,58.0,127.0
322,100.24797894374998,100.52409791874999,55.0,99.0
323,99.57633819374999,100.52969492499999,62.0,107.0
324,100.91961969375,101.28342509999999,55.0,83.0
325,100.69573944374999,101.44200694374999,50.0,82.0
326,101.14349994374999,101.6528275125,62.0,97.0
327,101.59126044374999,101.75357362499999,50.0,78.0
328,100.47185919374999,101.77969298749998,43.0,83.0
329,101.36738019375,102.15655807499999,70.0,122.0
330,101.81514069375,102.16402074999999,67.0,95.0
331,102.03902094374999,102.26290119375,62.0,83.0
332,102.71066169375,103.186407225,50.0,83.0
333,102.93454194374999,103.23864594999999,57.0,99.0
334,103.38230244374999,103.6714811,50.0,93.0
335,102.26290119375,103.91588370624999,38.0,74.0
336,102.48678144374999,104.05394319374999,45.0,67.0
337,103.83006294375,104.05394319374999,57.0,90.0
338,103.60618269374999,104.05394319374999,62.0,95.0
339,103.15842219374998,104.05394319374999,65.0,107.0
340,104.05394319374999,104.425211275,41.0,63.0
341,104.05394319374999,104.48118133749999,65.0,93.0
342,104.05394319374999,104.48118133749999,68.0,96.0
343,104.05394319374999,104.55021108125,60.0,86.0
344,104.94946419374999,105.35991131875,46.0,66.0
345,104.94946419374999,105.40282169999999,58.0,112.0
346,104.94946419374999,105.40468736874999,62.0,95.0
347,104.94946419374999,105.43267239999999,65.0,85.0
348,106.29274569374999,106.83938663749998,51.0,79.0
349,106.51662594374999,107.0147595,55.0,77.0
350,106.06886544374998,107.0558042125,46.0,58.0
351,105.84498519374999,107.13975930624999,39.0,95.0
352,106.96438644374999,107.14908764999998,51.0,82.0
353,106.74050619375,107.49796770625,63.0,112.0
354,107.18826669375,107.53714674999999,58.0,93.0
355,107.41214694374999,107.66960923124999,55.0,81.0
356,107.63602719375,108.04833998749999,41.0,74.0
357,108.30766794374999,108.45505577499999,57.0,69.0
358,108.08378769375,108.45505577499999,60.0,92.0
359,107.85990744374999,108.46998112499999,53.0,71.0
360,108.75542844374999,109.14348754374998,51.0,72.0
361,108.53154819374998,109.16214423125,39.0,83.0
362,108.97930869374999,109.30393505624998,55.0,70.0
363,109.20318894374999,109.42147218749999,58.0,96.0
364,109.87482969374999,110.410276625,50.0,90.0
365,109.42706919374999,110.61736585624999,38.0,60.0
366,109.65094944375,110.64908222499999,45.0,67.0
367,110.09870994375,110.66773891249998,57.0,86.0
368,110.54647044375,110.77408203124999,50.0,71.0
369,110.32259019374999,111.18079781875,66.0,117.0
370,110.77035069374999,111.19945450624999,62.0,97.0
371,110.99423094375,111.28154393124998,57.0,78.0
372,111.66587169374999,111.947587675,55.0,88.0
373,111.88975194374999,112.096841175,58.0,92.0
374,111.44199144374998,112.18825894374999,50.0,56.0
375,112.33751244374999,112.46624358749999,50.0,53.0
376,111.21811119374999,112.50728829999998,43.0,82.0
377,112.56139269375,112.992362175,58.0,90.0
378,112.11363219374999,112.99795918125,62.0,95.0
379,112.78527294374999,113.08751128124999,55.0,58.0
380,113.45691369375,114.00355463749999,48.0,72.0
381,113.68079394374999,114.18825584374999,55.0,70.0
382,113.23303344374999,114.19944985624998,43.0,40.0
383,113.00915319375,114.24049456875,36.0,72.0
384,114.12855444374999,114.3878824,48.0,67.0
385,113.90467419374998,114.70131475,63.0,107.0
386,114.35243469374998,114.73303111874999,60.0,96.0
387,114.57631494374999,114.77594149999999,55.0,79.0
388,114.80019519374999,116.11362599374999,41.0,67.0
389,115.02407544375,116.12482000624999,48.0,58.0
390,115.24795569374999,116.14907369999999,53.0,82.0
391,116.14347669374999,116.57631184374999,60.0,61.0
392,115.69571619374999,116.60616254374999,65.0,93.0
393,115.47183594375,116.6751922875,57.0,81.0
394,117.03899769374999,117.58377296874998,53.0,66.0
395,117.26287794374998,117.58750430624998,58.0,63.0
396,116.59123719374999,118.28526441874999,46.0,72.0
397,117.48675819374999,118.29645843124999,65.0,69.0
398,117.71063844374999,118.39347320625,53.0,63.0
399,116.81511744374998,118.41772689999999,50.0,47.0
400,117.93451869375,118.42145823749999,63.0,79.0
401,118.38227919375,118.87854708124999,62.0,83.0
402,118.38227919375,120.05018705625,46.0,89.0
403,118.83003969375,120.05391839375,50.0,52.0
404,119.50168044374999,120.0707094125,53.0,35.0
405,119.27780019375,120.07257508125,65.0,66.0
406,119.72556069374998,120.08563476249999,63.0,62.0
407,121.06884219374999,122.08749733124999,53.0,59.0
408,121.51660269374999,122.2050344625,58.0,58.0
409,122.41212369374999,123.00913769374999,53.0,42.0
410,120.62108169374999,123.18077921874999,50.0,40.0
411,120.17332119374998,123.20130157499999,46.0,55.0
412,123.30764469374999,124.25727008749999,58.0,69.0
413,121.96436319374999,124.43264294999999,65.0,63.0
414,122.85988419374999,124.66585154375,62.0,85.0
415,124.20316569375,124.88413478749999,50.0,59.0
416,125.09868669374998,125.63599929374999,50.0,59.0
417,123.75540519375,126.33002806874998,43.0,74.0
418,125.99420769374998,126.35241609375,50.0,36.0
419,124.65092619375,126.45129653749999,55.0,70.0
420,125.54644719374998,126.90465404374999,62.0,97.0
421,126.88972869374999,127.410250275,55.0,66.0
422,126.44196819374999,127.410250275,58.0,73.0
423,128.23301019374998,128.60427827499998,51.0,60.0
424,127.78524969374999,128.67890502499998,46.0,39.0
425,127.33748919374999,128.75166610624998,39.0,72.0
426,128.68077069375,128.75539744374998,58.0,12.0
427,128.68077069375,129.21994896249998,55.0,75.0
428,130.02405219374998,130.3542755625,50.0,40.0
429,129.57629169375,130.38972326874998,45.0,48.0
430,129.12853119374998,130.43076798125,38.0,71.0
431,130.02405219374998,130.84867778125,62.0,69.0
432,130.02405219374998,130.9139761875,57.0,66.0
433,130.47181269375,130.93076720624998,53.0,59.0
434,131.36733369375,131.98487004999998,43.0,35.0
435,130.91957319374998,132.00725807499998,36.0,74.0
436,131.81509419374999,132.111735525,48.0,48.0
437,131.81509419374999,132.53897366874997,60.0,74.0
438,131.81509419374999,132.5483020125,63.0,78.0
439,132.26285469375,132.67330181875,55.0,64.0
440,132.71061519375,133.28150983125,39.0,78.0
441,133.15837569374997,133.56695714999998,55.0,41.0
442,133.15837569374997,133.58747950625,58.0,54.0
443,133.15837569374997,133.60240485625,51.0,60.0
444,133.60613619375,134.0930757375,41.0,69.0
445,134.05389669374998,134.48113483749998,53.0,69.0
446,134.05389669374998,134.50165719375,57.0,77.0
447,134.05389669374998,134.51471687499998,60.0,82.0
448,136.29269919375,136.33001256875,62.0,44.0
449,135.84493869374998,136.36732594375,58.0,90.0
450,135.39717819375,136.37105728125,53.0,86.0
451,134.94941769374998,137.49792120625,50.0,48.0
452,136.74045969374998,137.53523458125,53.0,59.0
453,134.50165719375,137.53896591875,46.0,99.0
454,136.29269919375,138.07441285,65.0,89.0
455,137.63598069374999,138.16769628749998,58.0,71.0
456,137.18822019375,138.3020244375,62.0,82.0
457,138.53150169375,139.186351425,50.0,64.0
458,139.42702269375,140.06321573749997,50.0,48.0
459,138.97926219374997,140.8020205625,55.0,88.0
460,140.32254369375,140.87105030625,50.0,41.0
461,138.08374119375,140.92515469999998,43.0,68.0
462,139.87478319374998,141.27776609375,62.0,89.0
463,140.77030419374998,141.7050042375,58.0,95.0
464,141.21806469375,141.80575034999998,55.0,78.0
465,141.66582519374998,142.77216676249998,39.0,83.0
466,142.11358569375,142.78709211249998,46.0,37.0
467,142.56134619374998,142.8617188625,51.0,45.0
468,142.56134619374998,143.4624642,63.0,102.0
469,143.00910669375,143.47925521874998,58.0,69.0
470,143.45686719374999,144.39343290624998,41.0,71.0
471,143.90462769375,144.425149275,48.0,50.0
472,144.35238819375,145.17701378125,60.0,82.0
473,144.80014869374997,145.18074511875,53.0,68.0
474,144.35238819375,145.18634212499998,57.0,86.0
475,145.69566969374998,146.634101075,51.0,52.0
476,146.14343019375,146.6378324125,63.0,99.0
477,145.24790919375,146.68260846249999,46.0,93.0
478,146.14343019375,146.72365317499998,53.0,40.0
479,146.59119069374998,147.8020097125,65.0,59.0
480,147.03895119375,148.066934675,46.0,59.0
481,147.03895119375,148.10984505624998,58.0,52.0
482,147.03895119375,148.80014249374997,62.0,66.0
483,147.93447219375,148.86730656875,65.0,59.0
484,148.38223269374998,148.88782892499998,58.0,42.0
485,149.27775369375,149.93820043124998,46.0,35.0
486,148.82999319375,149.97178246874998,39.0,68.0
487,149.72551419374997,149.99417049374998,51.0,38.0
488,149.72551419374997,150.63596054374997,63.0,57.0
489,149.72551419374997,150.64715455624997,58.0,56.0
490,151.06879569375,151.60237695625,48.0,50.0
491,150.62103519374998,151.64901867499998,41.0,65.0
492,151.96431669375,152.4587189125,53.0,47.0
493,151.51655619374998,152.46058458124998,57.0,59.0
494,151.51655619374998,152.47550993124997,60.0,59.0
495,152.41207719374998,153.50722474999998,38.0,62.0
496,152.85983769375,153.51841876249998,45.0,49.0
497,153.30759819374998,153.55573213749997,50.0,44.0
498,153.30759819374998,154.13782078749998,62.0,65.0
499,153.30759819374998,154.16207448125,65.0,55.0
500,153.75535869375,154.28520861874998,57.0,52.0
501,154.65087969375,154.83371523124998,50.0,54.0
502,154.20311919374998,154.8355809,43.0,67.0
503,155.54640069374997,155.97363883749998,55.0,79.0
504,155.09864019375,155.98483284999998,62.0,72.0
505,155.09864019375,155.99602686249997,58.0,73.0
506,156.44192169374998,157.20684588125,51.0,70.0
507,155.99416119375,157.3169203375,44.0,88.0
508,156.88968219375,157.83371058125,60.0,97.0
509,157.33744269374998,157.85236726875,56.0,69.0
510,157.78520319375,157.85236726875,56.0,100.0
511,156.88968219375,157.85982994375,63.0,99.0
512,157.78520319375,158.35050082499998,44.0,117.0
513,158.45684394375,158.96803718125,43.0,90.0
514,158.45684394375,158.99042520625,55.0,100.0
515,159.12848469374998,159.32064857499998,54.0,99.0
516,159.12848469374998,159.55385716875,42.0,112.0
517,159.57624519375,159.66579729375,53.0,86.0
518,159.57624519375,159.66766296249997,57.0,88.0
519,159.57624519375,159.68072264375,60.0,82.0
520,160.02400569374998,160.19005021249998,60.0,85.0
521,160.02400569374998,160.22176658125,69.0,83.0
522,160.02400569374998,160.22922925625,65.0,89.0
523,160.02400569374998,160.27960231249997,48.0,55.0
524,159.57624519375,160.28146798125,41.0,72.0
525,160.02400569374998,160.29266199375,53.0,55.0
526,160.47176619375,160.62475103124999,60.0,92.0
527,160.47176619375,160.64154205,69.0,90.0
528,160.47176619375,160.6452733875,65.0,95.0
529,160.47176619375,160.6751240875,53.0,85.0
530,160.47176619375,160.69937778124998,41.0,63.0
531,160.47176619375,160.70124345,48.0,64.0
532,160.91952669375,161.03892949374998,65.0,100.0
533,160.91952669375,161.0407951625,69.0,95.0
534,160.91952669375,161.0445265,60.0,97.0
535,160.91952669375,161.21989936249997,53.0,83.0
536,160.91952669375,161.22549636875,41.0,63.0
537,160.91952669375,161.23669038124999,48.0,69.0
538,161.36728719374997,161.5631824125,65.0,117.0
539,161.36728719374997,161.56691375,60.0,102.0
540,161.36728719374997,161.57251075624998,48.0,99.0
541,161.36728719374997,161.57624209374998,69.0,107.0
542,161.36728719374997,161.59116744374998,53.0,112.0
543,161.36728719374997,161.62101814374998,41.0,77.0
544,163.60608969375,164.11728293124997,58.0,95.0
545,163.82996994374997,164.51093903749998,62.0,74.0
546,163.15832919374998,164.78146100625,46.0,97.0
547,163.38220944374999,164.962430875,53.0,47.0
548,164.27773044375,165.0184009375,58.0,88.0
549,164.05385019374998,165.08556501249998,70.0,100.0
550,164.72549094374997,165.13220673125,62.0,97.0
551,164.50161069375,165.48668379375,65.0,82.0
552,165.39713169375,165.902727925,58.0,95.0
553,165.62101194374998,166.06130976875,62.0,90.0
554,166.06877244375,166.29451836249999,58.0,96.0
555,165.17325144375,166.29824969999999,53.0,69.0
556,164.94937119374998,166.4885479125,46.0,69.0
557,165.84489219374998,166.64712975625,70.0,127.0
558,166.29265269374997,166.68444313125,65.0,97.0
559,166.51653294374998,166.74041319375,62.0,95.0
560,167.41205394374998,167.7198892875,53.0,44.0
561,167.18817369374997,167.94563520625,57.0,82.0
562,166.74041319375,168.13406774999999,45.0,77.0
563,166.96429344375,168.38966436874998,50.0,55.0
564,167.85981444375,168.40272405,53.0,54.0
565,168.30757494374998,168.78145480625,57.0,88.0
566,168.08369469374998,169.05384244374997,62.0,90.0
567,167.63593419375,169.05757378124997,65.0,100.0
568,169.20309594375,169.46615523749998,62.0,85.0
569,168.75533544375,169.48108058749997,53.0,66.0
570,168.97921569374998,169.53518498124998,57.0,72.0
571,168.53145519375,169.83742331874998,50.0,79.0
572,169.65085644374997,169.8766023625,53.0,79.0
573,168.53145519375,169.92510975,45.0,77.0
574,169.42697619375,170.2571987875,65.0,107.0
575,169.87473669374998,170.26279579374997,62.0,99.0
576,170.09861694375,170.35234789375,57.0,89.0
577,170.77025769374998,171.05197367499997,55.0,78.0
578,170.99413794375,171.27398825625,58.0,99.0
579,170.54637744374998,171.30383895625,50.0,46.0
580,170.32249719375,171.95495734999997,43.0,69.0
581,171.44189844374998,172.08368849374997,50.0,55.0
582,171.21801819375,172.14152422499998,62.0,92.0
583,171.88965894375,172.17137492499998,55.0,81.0
584,171.66577869374998,172.17697193125,58.0,92.0
585,172.56129969375,173.12659732499998,55.0,79.0
586,172.33741944374998,173.14338834375,50.0,63.0
587,172.78517994375,173.34114923124997,62.0,90.0
588,173.23294044374998,173.38219394375,50.0,65.0
589,172.11353919374997,173.40271629999998,43.0,72.0
590,173.00906019374997,173.77025304375,70.0,127.0
591,173.45682069375,173.8803275,67.0,93.0
592,173.68070094375,173.99599896249998,62.0,85.0
593,174.35234169375,174.88778862499998,50.0,74.0
594,174.57622194374997,175.12472855624998,62.0,77.0
595,175.02398244375,175.33741479374999,50.0,93.0
596,173.90458119374998,175.54263835625,38.0,79.0
597,174.12846144374998,175.6900261875,45.0,48.0
598,175.47174294374997,176.20495076249998,62.0,89.0
599,174.80010219374998,176.21054776875,69.0,107.0
600,175.24786269375,176.41577133124997,65.0,96.0
601,176.14338369375,176.67136795,50.0,88.0
602,176.36726394374998,176.73853202499998,62.0,89.0
603,175.69562319374998,176.88218851874998,38.0,67.0
604,175.91950344375,176.932561575,45.0,71.0
605,176.81502444375,176.99412864374997,50.0,96.0
606,177.03890469375,177.40457576875,65.0,97.0
607,176.59114419374998,177.40457576875,69.0,122.0
608,177.26278494374998,177.46054583125,62.0,96.0
609,178.15830594374998,178.44561893124998,58.0,79.0
610,177.71054544375,178.4736039625,51.0,57.0
611,177.93442569374997,178.53890236874997,55.0,85.0
612,177.48666519374999,178.7422602625,39.0,74.0
613,178.60606644375,178.813155675,51.0,86.0
614,178.38218619375,179.156438725,63.0,117.0
615,178.82994669374997,179.1639014,58.0,92.0
616,179.05382694374998,179.28330419999998,55.0,86.0
617,179.27770719375,179.98292998124998,41.0,86.0
618,179.50158744375,180.05009405624997,53.0,83.0
619,179.94934794374998,180.08740743124997,57.0,72.0
620,179.72546769374998,180.09113876874997,60.0,99.0
621,180.39710844374997,180.6974811125,51.0,69.0
622,180.17322819375,180.82061524999997,39.0,86.0
623,180.62098869374998,181.00158511874997,58.0,92.0
624,180.84486894375,181.01091346249999,51.0,93.0
625,181.51650969374998,182.08367299374999,50.0,86.0
626,181.74038994375,182.28516521875,57.0,85.0
627,181.06874919375,182.31688158749998,38.0,73.0
628,181.29262944374997,182.36165763749997,45.0,53.0
629,182.18815044374998,182.44188139374998,50.0,61.0
630,182.41203069374998,182.8056868,62.0,88.0
631,181.96427019375,182.85605985624997,66.0,102.0
632,182.63591094375,182.90456724375,57.0,74.0
633,183.30755169374999,183.61911837499997,55.0,86.0
634,183.53143194375,183.81874493125,58.0,89.0
635,183.08367144374998,183.87658066249998,50.0,46.0
636,183.97919244374998,184.13777428749998,50.0,66.0
637,182.85979119374997,184.17881899999998,43.0,64.0
638,183.75531219374997,184.63590784374998,62.0,95.0
639,184.42695294375,184.65083319374997,55.0,59.0
640,184.20307269375,184.65083319374997,58.0,83.0
641,185.09859369375,185.59859291874997,48.0,85.0
642,185.32247394375,185.828070175,55.0,88.0
643,184.87471344374998,185.8765775625,43.0,69.0
644,184.65083319374997,185.8840402375,36.0,73.0
645,185.77023444374998,185.89336858124997,48.0,92.0
646,186.21799494374997,186.53329296249998,55.0,90.0
647,185.54635419374998,186.53515863124997,63.0,127.0
648,185.99411469375,186.58739735625,60.0,97.0
649,187.11351594374997,187.25903810625,60.0,78.0
650,186.66575544375,187.41948561874997,46.0,35.0
651,186.88963569375,187.43441096874997,55.0,70.0
652,186.44187519374998,187.693738925,34.0,86.0
653,187.56127644375,187.75530599374997,46.0,70.0
654,187.33739619374998,187.87844013125,63.0,127.0
655,187.78515669375,188.15082776875,60.0,102.0
656,188.00903694374998,188.17881279999997,55.0,85.0
657,188.45679744375,188.75157310625,53.0,73.0
658,188.68067769374997,189.00530405625,57.0,65.0
659,188.90455794374998,189.22918430624998,53.0,77.0
660,189.35231844375,189.62843741875,53.0,83.0
661,188.23291719374998,189.813138625,45.0,97.0
662,189.57619869374997,189.8691086875,57.0,82.0
663,189.12843819375,189.8840340375,60.0,117.0
664,189.80007894374998,189.95866078749998,53.0,90.0
665,190.02395919375,190.58739115625,39.0,85.0
666,190.24783944375,190.63589854375,51.0,72.0
667,190.69559994374998,190.89336083125,63.0,112.0
668,190.47171969374998,190.95119656249997,55.0,83.0
669,190.91948019375,191.342987,41.0,73.0
670,191.14336044374997,191.47358381249998,53.0,85.0
671,191.36724069374998,191.72171775624997,60.0,99.0
672,191.59112094374998,191.75529979374997,57.0,89.0
673,192.26276169374998,192.75716391249998,53.0,72.0
674,192.48664194375,192.8541786875,58.0,76.0
675,191.81500119375,193.4810433875,46.0,90.0
676,192.93440244374997,193.499700075,53.0,73.0
677,192.03888144374997,193.58925217499998,50.0,65.0
678,193.15828269374998,194.1153707625,58.0,79.0
679,194.05380369374998,194.56499693125,53.0,82.0
680,194.27768394375,194.678802725,58.0,99.0
681,193.38216294375,194.98104106249997,62.0,70.0
682,194.72544444374998,195.08738418124997,53.0,75.0
683,193.60604319375,195.12283188749998,46.0,79.0
684,193.82992344374998,195.31499576874998,50.0,59.0
685,194.50156419374997,195.36350315624998,70.0,83.0
686,192.71052219375,195.38215984374997,65.0,73.0
687,194.94932469375,195.41760754999999,58.0,89.0
688,195.17320494375,195.42133888749999,62.0,69.0
689,195.62096544374998,195.95305448124998,57.0,83.0
690,195.84484569375,196.19745708749997,62.0,81.0
691,196.06872594375,196.40827765625,57.0,93.0
692,196.51648644374998,196.79633675624999,57.0,72.0
693,195.39708519374997,197.1340228,45.0,74.0
694,196.96424694374997,197.28514196874997,57.0,90.0
695,196.74036669375,197.48290285624998,62.0,83.0
696,196.29260619374998,197.52021623124998,65.0,99.0
697,197.41200744374999,197.72357412499997,57.0,64.0
698,197.63588769375,197.94558870625,62.0,69.0
699,197.85976794374997,198.19372264999998,57.0,92.0
700,197.18812719374998,198.28514041875,45.0,58.0
701,198.30752844375,198.59111009375,57.0,85.0
702,198.53140869375,198.95304983124998,62.0,73.0
703,198.08364819374998,198.96984084999997,65.0,107.0
704,198.75528894374997,198.97357218749997,57.0,90.0
705,199.42692969374997,199.74222771249998,55.0,85.0
706,199.65080994374998,199.902675225,58.0,122.0
707,199.20304944375,199.91573490624998,50.0,55.0
708,198.97916919374998,200.66573374375,43.0,64.0
709,200.09857044375,200.75342017499997,50.0,96.0
710,200.32245069374997,200.81312157499997,58.0,127.0
711,200.54633094374998,200.82244991874998,55.0,99.0
712,199.87469019374998,200.828046925,62.0,107.0
713,201.21797169374997,201.58177709999998,55.0,83.0
714,200.99409144375,201.74035894374998,50.0,82.0
715,201.44185194374998,201.95117951249998,62.0,97.0
716,201.88961244375,202.051925625,50.0,78.0
717,200.77021119375,202.0780449875,43.0,83.0
718,201.66573219375,202.454910075,70.0,122.0
719,202.11349269374998,202.46237275,67.0,95.0
720,202.33737294374998,202.56125319375,62.0,83.0
721,203.00901369374998,203.48475922499998,50.0,83.0
722,203.23289394374999,203.53699794999997,57.0,99.0
723,203.68065444374997,203.9698331,50.0,93.0
724,202.56125319375,204.21423570624998,38.0,74.0
725,202.78513344374997,204.35229519375,45.0,67.0
726,204.12841494375,204.35229519375,57.0,90.0
727,203.90453469374998,204.35229519375,62.0,95.0
728,203.45677419375,204.35229519375,65.0,107.0
729,204.35229519375,204.72356327499998,41.0,63.0
730,204.35229519375,204.77953333749997,65.0,93.0
731,204.35229519375,204.77953333749997,68.0,96.0
732,204.35229519375,204.84856308124998,60.0,86.0
733,205.24781619374997,205.65826331875,46.0,66.0
734,205.24781619374997,205.70117369999997,58.0,112.0
735,205.24781619374997,205.70303936874998,62.0,95.0
736,205.24781619374997,205.7310244,65.0,85.0
737,206.59109769375,207.13773863749998,51.0,79.0
738,206.81497794375,207.3131115,55.0,77.0
739,206.36721744374998,207.3541562125,46.0,58.0
740,206.14333719374997,207.43811130625,39.0,95.0
741,207.26273844374998,207.44743964999998,51.0,82.0
742,207.03885819374997,207.79631970625,63.0,112.0
743,207.48661869375,207.83549874999997,58.0,93.0
744,207.71049894374997,207.96796123124997,55.0,81.0
745,207.93437919374998,208.34669198749998,41.0,74.0
746,208.60601994374997,208.75340777499997,57.0,69.0
747,208.38213969375,208.75340777499997,60.0,92.0
748,208.15825944374998,208.76833312499997,53.0,71.0
749,209.05378044375,209.44183954374998,51.0,72.0
750,208.82990019374998,209.46049623124998,39.0,83.0
751,209.27766069375,209.60228705625,55.0,70.0
752,209.50154094374997,209.7198241875,58.0,96.0
753,210.17318169375,210.708628625,50.0,90.0
754,209.72542119374998,210.91571785624998,38.0,60.0
755,209.94930144375,210.947434225,45.0,67.0
756,210.39706194374997,210.9660909125,57.0,86.0
757,210.84482244375,211.07243403124997,50.0,71.0
758,210.62094219374998,211.47914981875,66.0,117.0
759,211.06870269374997,211.49780650625,62.0,97.0
760,211.29258294374998,211.51646319374998,57.0,78.0
761,211.96422369374997,212.49780495624998,55.0,93.0
762,212.18810394374998,212.5034019625,62.0,89.0
763,212.63586444375,212.80377463124998,55.0,90.0
764,212.41198419375,212.81496864374998,67.0,93.0
765,211.74034344375,212.835491,50.0,47.0
766,211.51646319374998,212.88586405624997,43.0,93.0
767,212.41198419375,213.28511716875,70.0,122.0
768,213.08362494374998,213.33175888749997,67.0,93.0
769,212.85974469374997,213.33922156249997,62.0,99.0
770,213.75526569374998,214.27205593749997,48.0,90.0
771,213.97914594374998,214.49033918125,60.0,81.0
772,213.30750519375,214.50713019999998,36.0,81.0
773,213.53138544374997,214.53324956249998,43.0,62.0
774,214.42690644374997,214.74593579999998,48.0,82.0
775,214.65078669374998,214.98660706874998,63.0,96.0
776,214.20302619375,215.04257713124997,67.0,100.0
777,214.87466694375,215.15824859375,60.0,85.0
778,215.99406819374997,216.86720116874997,65.0,85.0
779,215.54630769374998,216.88585785624997,48.0,52.0
780,215.99406819374997,216.88958919374997,69.0,88.0
781,215.09854719375,216.90451454374997,41.0,88.0
782,215.99406819374997,216.92317123125,53.0,83.0
783,217.33734969374999,217.87839363125,58.0,73.0
784,217.56122994375,218.23473636249997,62.0,51.0
785,218.00899044374998,218.55749705624999,58.0,45.0
786,217.78511019374997,219.36533162499998,70.0,93.0
787,218.45675094374997,219.71421168125,62.0,63.0
788,218.68063119374997,219.75339072499997,58.0,43.0
789,218.23287069375,219.82801747499997,65.0,46.0
790,219.57615219374998,219.85973384374998,70.0,65.0
791,220.02391269375,220.16943485624998,58.0,64.0
792,216.88958919374997,220.201151225,46.0,68.0
793,217.11346944374998,220.2086139,53.0,39.0
794,220.47167319374998,221.33174648749997,67.0,35.0
795,220.47167319374998,221.34480616874998,51.0,38.0
796,220.47167319374998,221.36719419374998,58.0,44.0
797,220.47167319374998,221.36905986249997,63.0,53.0
798,222.26271519374998,223.857861975,53.0,33.0
799,222.26271519374998,223.9138320375,58.0,34.0
800,222.26271519374998,223.92316038124997,65.0,42.0
801,222.26271519374998,223.93622006249998,46.0,39.0
802,222.26271519374998,223.94741407499998,62.0,35.0
803,222.26271519374998,223.96980209999998,70.0,42.0
804,224.07054821249997,225.24591952499998,36.0,82.0
805,224.514577375,225.25897920625,43.0,51.0
806,225.0780093375,225.29629258125,48.0,26.0
807,225.01644226874998,225.53696384999998,63.0,50.0
808,225.00711392499997,225.57241155625,60.0,56.0
809,226.42502217499998,228.81867518124997,48.0,35.0
810,226.85972299374998,228.83173486249999,53.0,38.0
811,227.46793100624998,228.83360053124997,55.0,36.0
812,225.92315728124998,228.84852588124997,57.0,50.0
813,225.91942594374999,228.85598855624997,60.0,52.0
814,225.92129161249997,228.86158556249998,41.0,64.0
815,231.18994016249997,231.71605874999997,62.0,58.0
816,230.75523934375,231.91941664374997,58.0,63.0
817,232.02575976249997,232.52389331874997,58.0,50.0
818,230.30001616874998,232.53135599374997,53.0,38.0
819,229.85971834375,232.62090809375,46.0,76.0
820,231.63770066249998,232.65822146874999,65.0,68.0
821,232.97165381874999,233.50336941249998,65.0,55.0
822,232.49777395624997,233.51269775625,62.0,66.0
823,234.327995,235.55747070624997,56.0,43.0
824,235.72164955625,236.24403680624997,56.0,40.0
825,233.86904048749997,236.27202183749998,51.0,33.0
826,234.76269581875,236.29254419375,60.0,45.0
827,233.39702629374997,236.35224559374998,44.0,76.0
828,236.71045399374998,236.85037914999998,60.0,47.0
829,236.22164878124997,236.85037914999998,63.0,69.0
830,235.23844135,236.85037914999998,68.0,77.0
831,237.68060174374997,238.33545147499999,49.0,31.0
832,237.16567716874997,238.37463051874997,42.0,68.0
833,238.12649657499998,238.55746605624998,54.0,53.0
834,238.59851076874997,239.10597266874998,58.0,60.0
835,238.13022791249998,239.14142037499997,61.0,59.0
836,238.13209358125,239.15821139374998,66.0,56.0
837,240.10970245624998,240.47723919999999,56.0,47.0
838,239.62835991875,240.49403021874997,51.0,43.0
839,239.07052496249997,240.60597034375,44.0,65.0
840,240.1227621375,240.78507454374997,68.0,54.0
841,240.111568125,240.80186556249998,63.0,73.0
842,240.63395537499997,240.85783562499998,60.0,58.0
843,241.38955121874997,242.81865348124998,55.0,40.0
844,241.41940191874997,242.82984749374998,43.0,25.0
845,241.42313325624997,242.99402634374997,62.0,43.0
846,241.42873026249998,243.03507105625,67.0,50.0
847,241.42686459374997,243.07425009999997,70.0,42.0
848,245.20484381249997,248.01454094999997,53.0,28.0
849,245.17126177499998,248.06118266874998,58.0,51.0
850,245.12835139374997,248.06491400624998,70.0,53.0
851,245.21790349375,248.0891677,74.0,61.0
852,245.06491865624997,248.09476470624998,46.0,27.0
853,245.05745598124997,248.11342139374997,65.0,39.0
854,245.26454521249997,248.13954075624997,77.0,66.0
