,start,end,pitch,velocity
0,35.088943283333336,35.68640023333334,55.0,115.0
1,35.85165428333334,36.499958633333335,55.0,112.0
2,36.614365283333335,36.756314275,58.0,120.0
3,36.86860228333334,36.99360214166667,60.0,104.0
4,37.122839283333334,38.35377009166667,62.0,109.0
5,38.656735850000004,38.82622718333334,58.0,113.0
6,38.90249828333334,39.03385406666667,60.0,106.0
7,39.15673528333334,39.50631115833334,62.0,109.0
8,39.66520928333334,39.80503963333334,60.0,101.0
9,39.919446283333336,40.519021875,60.0,109.0
10,40.68215728333334,40.83258084166667,58.0,117.0
11,40.936394283333335,41.095292408333336,60.0,101.0
12,41.19063128333334,41.451224208333336,58.0,113.0
13,41.444868283333335,42.781731175000004,55.0,104.0
14,43.22452728333334,43.62283191666667,55.0,112.0
15,43.73300128333334,43.86859435,58.0,117.0
16,43.98723828333334,44.12918727500001,60.0,94.0
17,44.24147528333334,44.57622066666667,58.0,120.0
18,44.749949283333336,45.03384726666667,55.0,115.0
19,45.258423283333336,45.62282965000001,65.0,109.0
20,45.766897283333336,45.97028688333334,67.0,109.0
21,46.02113428333334,46.15249006666667,69.0,112.0
22,46.275371283333335,46.49147273333334,67.0,109.0
23,46.52960828333334,46.754184300000006,65.0,109.0
24,46.783845283333335,46.946980691666674,62.0,104.0
25,47.03808228333334,47.17579399166667,60.0,104.0
26,47.292319283333335,49.86011298333334,62.0,112.0
27,51.36011128333334,51.959686875,62.0,118.0
28,52.122822283333335,52.73722836666667,62.0,115.0
29,52.88553328333334,53.28171927500001,65.0,112.0
30,53.39400728333334,54.69061598333334,67.0,112.0
31,54.919429283333336,55.04019185833334,65.0,115.0
32,55.17366628333334,55.35586946666667,67.0,112.0
33,55.427903283333336,55.976631475000005,67.0,109.0
34,56.19061428333334,56.36010561666667,55.0,109.0
35,56.444851283333335,56.61010533333334,58.0,117.0
36,56.69908828333334,56.847393200000006,60.0,101.0
37,56.953325283333335,57.34103670833334,62.0,106.0
38,57.46179928333334,59.11222114166667,60.0,99.0
39,59.49569528333334,59.828322025000006,62.0,115.0
40,60.00416928333334,60.12493185833334,65.0,115.0
41,60.258406283333336,60.39611799166667,67.0,109.0
42,60.51264328333334,60.82832089166667,65.0,118.0
43,61.02111728333334,61.34315081666667,62.0,115.0
44,61.52959128333334,61.88764172500001,60.0,109.0
45,62.03806528333334,62.16306514166667,62.0,112.0
46,62.29230228333334,62.417302141666674,65.0,112.0
47,62.54653928333334,62.93425070833334,62.0,109.0
48,63.05501328333334,63.21391140833334,53.0,106.0
49,63.30925028333334,63.48933482500001,58.0,117.0
50,63.56348728333334,66.61433128333334,55.0,96.0
51,67.63127928333334,68.22873623333334,55.0,115.0
52,68.39399028333334,69.04229463333334,55.0,112.0
53,69.15670128333333,69.298650275,58.0,120.0
54,69.41093828333334,69.53593814166668,60.0,104.0
55,69.66517528333334,70.89610609166667,62.0,109.0
56,71.19907185000001,71.36856318333334,58.0,113.0
57,71.44483428333334,71.57619006666667,60.0,106.0
58,71.69907128333334,72.04864715833334,62.0,109.0
59,72.20754528333335,72.34737563333334,60.0,101.0
60,72.46178228333333,73.06135787500001,60.0,109.0
61,73.22449328333335,73.37491684166667,58.0,117.0
62,73.47873028333333,73.63762840833334,60.0,101.0
63,73.73296728333334,73.99356020833334,58.0,113.0
64,73.98720428333334,75.32406717500001,55.0,104.0
65,75.76686328333334,76.16516791666668,55.0,112.0
66,76.27533728333334,76.41093035,58.0,117.0
67,76.52957428333335,76.67152327500001,60.0,94.0
68,76.78381128333334,77.11855666666668,58.0,120.0
69,77.29228528333334,77.57618326666667,55.0,115.0
70,77.80075928333333,78.16516565,65.0,109.0
71,78.30923328333334,78.51262288333334,67.0,109.0
72,78.56347028333334,78.69482606666668,69.0,112.0
73,78.81770728333333,79.03380873333334,67.0,109.0
74,79.07194428333334,79.29652030000001,65.0,109.0
75,79.32618128333334,79.48931669166667,62.0,104.0
76,79.58041828333334,79.71812999166667,60.0,104.0
77,79.83465528333333,82.40244898333334,62.0,112.0
78,83.90244728333334,84.50202287500001,62.0,118.0
79,84.66515828333334,85.27956436666668,62.0,115.0
80,85.42786928333334,85.824055275,65.0,112.0
81,85.93634328333334,87.23295198333334,67.0,112.0
82,87.46176528333334,87.58252785833334,65.0,115.0
83,87.71600228333334,87.89820546666668,67.0,112.0
84,87.97023928333334,88.51896747500001,67.0,109.0
85,88.73295028333334,88.90244161666668,55.0,109.0
86,88.98718728333334,89.15244133333334,58.0,117.0
87,89.24142428333334,89.3897292,60.0,101.0
88,89.49566128333335,89.88337270833334,62.0,106.0
89,90.00413528333334,91.65455714166667,60.0,99.0
90,92.03803128333334,92.37065802500001,62.0,115.0
91,92.54650528333335,92.66726785833335,65.0,115.0
92,92.80074228333334,92.93845399166668,67.0,109.0
93,93.05497928333334,93.37065689166667,65.0,118.0
94,93.56345328333335,93.88548681666667,62.0,115.0
95,94.07192728333334,94.42997772500001,60.0,109.0
96,94.58040128333334,94.70540114166667,62.0,112.0
97,94.83463828333335,94.95963814166667,65.0,112.0
98,95.08887528333334,95.47658670833334,62.0,109.0
99,95.59734928333334,95.75624740833334,53.0,106.0
100,95.85158628333335,96.031670825,58.0,117.0
101,96.10582328333334,99.15666728333335,55.0,96.0
102,100.17361528333335,101.54013915833335,62.0,118.0
103,101.69903728333334,102.09734191666668,70.0,123.0
104,102.20751128333335,103.49988270000001,67.0,112.0
105,103.73293328333334,103.89395005000002,70.0,120.0
106,103.98717028333334,104.11428878333334,72.0,115.0
107,104.24140728333334,104.57191538333335,74.0,112.0
108,104.74988128333334,104.88335570833334,72.0,112.0
109,105.00411828333334,105.14394863333334,74.0,112.0
110,105.25835528333334,105.64606670833334,72.0,115.0
111,105.76682928333334,106.18420169166667,70.0,120.0
112,106.27530328333334,107.98080982500001,67.0,112.0
113,108.30919928333334,108.70750391666668,69.0,115.0
114,108.81767328333335,108.94267314166667,67.0,109.0
115,109.07191028333334,109.20750335000001,69.0,112.0
116,109.32614728333334,109.64818081666668,67.0,115.0
117,109.83462128333335,110.15665481666667,65.0,115.0
118,110.34309528333334,110.72445078333334,67.0,115.0
119,110.85156928333335,110.97233185833335,65.0,115.0
120,111.10580628333334,111.2286875,67.0,109.0
121,111.36004328333334,111.49563635000001,58.0,117.0
122,111.61428028333334,111.78800890000001,60.0,87.0
123,111.86851728333335,112.035889975,62.0,115.0
124,112.12275428333334,112.26258463333335,65.0,112.0
125,112.37699128333334,115.82613991666668,62.0,115.0
126,116.44478328333334,117.68842594166668,67.0,115.0
127,117.97020528333334,118.17147624166668,62.0,109.0
128,118.22444228333335,118.43630645,65.0,104.0
129,118.47867928333335,119.81130489166668,60.0,115.0
130,120.00410128333334,120.14816891666668,60.0,109.0
131,120.25833828333334,120.39393135000002,62.0,109.0
132,120.51257528333335,120.87698165,65.0,115.0
133,121.02104928333334,121.16511691666668,65.0,115.0
134,121.27528628333334,121.88121780000002,62.0,115.0
135,122.03799728333334,122.41299685833334,74.0,109.0
136,122.54647128333335,123.72019876666668,72.0,109.0
137,124.58036728333335,125.154519175,65.0,112.0
138,125.34307828333334,125.49773912500001,65.0,115.0
139,125.59731528333334,125.93206066666667,65.0,115.0
140,126.10578928333335,126.45960244166668,62.0,115.0
141,126.61426328333334,127.56765203333335,72.0,109.0
142,128.13968528333334,128.30493933333335,67.0,109.0
143,128.39392228333335,128.52951535,65.0,109.0
144,128.64815928333334,132.5591718,67.0,112.0
145,148.98711928333336,149.58457623333334,55.0,115.0
146,149.74983028333335,150.39813463333334,55.0,112.0
147,150.51254128333335,150.654490275,58.0,120.0
148,150.76677828333334,150.8917781416667,60.0,104.0
149,151.02101528333336,152.25194609166667,62.0,109.0
150,152.55491185000002,152.72440318333335,58.0,113.0
151,152.80067428333334,152.93203006666667,60.0,106.0
152,153.05491128333335,153.40448715833335,62.0,109.0
153,153.56338528333336,153.70321563333334,60.0,101.0
154,153.81762228333335,154.417197875,60.0,109.0
155,154.58033328333335,154.73075684166668,58.0,117.0
156,154.83457028333333,154.99346840833334,60.0,101.0
157,155.08880728333335,155.34940020833335,58.0,113.0
158,155.34304428333334,156.679907175,55.0,104.0
159,157.12270328333335,157.5210079166667,55.0,112.0
160,157.63117728333336,157.76677035,58.0,117.0
161,157.88541428333335,158.02736327500003,60.0,94.0
162,158.13965128333334,158.47439666666668,58.0,120.0
163,158.64812528333334,158.93202326666668,55.0,115.0
164,159.15659928333335,159.52100565,65.0,109.0
165,159.66507328333336,159.86846288333334,67.0,109.0
166,159.91931028333335,160.05066606666668,69.0,112.0
167,160.17354728333333,160.38964873333336,67.0,109.0
168,160.42778428333335,160.65236030000003,65.0,109.0
169,160.68202128333334,160.8451566916667,62.0,104.0
170,160.93625828333336,161.07396999166667,60.0,104.0
171,161.19049528333335,163.75828898333336,62.0,112.0
172,165.25828728333335,165.85786287500002,62.0,118.0
173,166.02099828333334,166.63540436666668,62.0,115.0
174,166.78370928333334,167.179895275,65.0,112.0
175,167.29218328333334,168.58879198333335,67.0,112.0
176,168.81760528333334,168.93836785833335,65.0,115.0
177,169.07184228333335,169.25404546666667,67.0,112.0
178,169.32607928333334,169.874807475,67.0,109.0
179,170.08879028333334,170.2582816166667,55.0,109.0
180,170.34302728333336,170.50828133333334,58.0,117.0
181,170.59726428333335,170.7455692,60.0,101.0
182,170.85150128333333,171.23921270833335,62.0,106.0
183,171.35997528333334,173.0103971416667,60.0,99.0
184,173.39387128333334,173.726498025,62.0,115.0
185,173.90234528333335,174.02310785833336,65.0,115.0
186,174.15658228333334,174.29429399166668,67.0,109.0
187,174.41081928333335,174.72649689166667,65.0,118.0
188,174.91929328333336,175.24132681666669,62.0,115.0
189,175.42776728333334,175.78581772500002,60.0,109.0
190,175.93624128333335,176.06124114166667,62.0,112.0
191,176.19047828333336,176.3154781416667,65.0,112.0
192,176.44471528333335,176.83242670833334,62.0,109.0
193,176.95318928333336,177.11208740833334,53.0,106.0
194,177.20742628333335,177.38751082500002,58.0,117.0
195,177.46166328333334,180.51250728333335,55.0,96.0
196,181.52945528333336,182.12691223333334,55.0,115.0
197,182.29216628333336,182.94047063333335,55.0,112.0
198,183.05487728333335,183.196826275,58.0,120.0
199,183.30911428333334,183.43411414166667,60.0,104.0
200,183.56335128333336,184.79428209166667,62.0,109.0
201,185.09724785,185.26673918333336,58.0,113.0
202,185.34301028333334,185.47436606666668,60.0,106.0
203,185.59724728333336,185.94682315833336,62.0,109.0
204,186.10572128333334,186.24555163333335,60.0,101.0
205,186.35995828333336,186.959533875,60.0,109.0
206,187.12266928333335,187.27309284166668,58.0,117.0
207,187.37690628333334,187.53580440833335,60.0,101.0
208,187.63114328333336,187.89173620833336,58.0,113.0
209,187.88538028333335,189.22224317500002,55.0,104.0
210,189.66503928333336,190.0633439166667,55.0,112.0
211,190.17351328333336,190.30910635,58.0,117.0
212,190.42775028333335,190.569699275,60.0,94.0
213,190.68198728333334,191.01673266666668,58.0,120.0
214,191.19046128333335,191.47435926666668,55.0,115.0
215,191.69893528333336,192.06334165,65.0,109.0
216,192.20740928333336,192.41079888333334,67.0,109.0
217,192.46164628333335,192.59300206666668,69.0,112.0
218,192.71588328333334,192.93198473333334,67.0,109.0
219,192.97012028333336,193.1946963,65.0,109.0
220,193.22435728333335,193.3874926916667,62.0,104.0
221,193.47859428333334,193.61630599166668,60.0,104.0
222,193.73283128333335,196.30062498333336,62.0,112.0
223,197.80062328333335,198.40019887500003,62.0,118.0
224,198.56333428333335,199.17774036666668,62.0,115.0
225,199.32604528333334,199.722231275,65.0,112.0
226,199.83451928333335,201.13112798333336,67.0,112.0
227,201.35994128333334,201.48070385833336,65.0,115.0
228,201.61417828333336,201.79638146666667,67.0,112.0
229,201.86841528333335,202.41714347500002,67.0,109.0
230,202.63112628333334,202.80061761666667,55.0,109.0
231,202.88536328333336,203.05061733333335,58.0,117.0
232,203.13960028333335,203.2879052,60.0,101.0
233,203.39383728333334,203.78154870833336,62.0,106.0
234,203.90231128333335,205.5527331416667,60.0,99.0
235,205.93620728333335,206.26883402500002,62.0,115.0
236,206.44468128333335,206.56544385833334,65.0,115.0
237,206.69891828333334,206.83662999166668,67.0,109.0
238,206.95315528333336,207.26883289166668,65.0,118.0
239,207.46162928333334,207.7836628166667,62.0,115.0
240,207.97010328333334,208.32815372500002,60.0,109.0
241,208.47857728333335,208.60357714166668,62.0,112.0
242,208.73281428333334,208.8578141416667,65.0,112.0
243,208.98705128333336,209.37476270833335,62.0,109.0
244,209.49552528333336,209.65442340833334,53.0,106.0
245,209.74976228333335,209.92984682500003,58.0,117.0
246,210.00399928333334,213.05484328333335,55.0,96.0
247,214.07179128333334,215.43831515833335,62.0,118.0
248,215.59721328333336,215.9955179166667,70.0,123.0
249,216.10568728333334,217.3980587,67.0,112.0
250,217.63110928333336,217.79212605,70.0,120.0
251,217.88534628333335,218.01246478333334,72.0,115.0
252,218.13958328333337,218.47009138333334,74.0,112.0
253,218.64805728333334,218.78153170833335,72.0,112.0
254,218.90229428333336,219.04212463333334,74.0,112.0
255,219.15653128333335,219.54424270833334,72.0,115.0
256,219.66500528333336,220.0823776916667,70.0,120.0
257,220.17347928333336,221.87898582500003,67.0,112.0
258,222.20737528333336,222.60567991666667,69.0,115.0
259,222.71584928333334,222.8408491416667,67.0,109.0
260,222.97008628333336,223.10567935000003,69.0,112.0
261,223.22432328333335,223.54635681666667,67.0,115.0
262,223.73279728333335,224.05483081666668,65.0,115.0
263,224.24127128333336,224.62262678333335,67.0,115.0
264,224.74974528333334,224.87050785833335,65.0,115.0
265,225.00398228333336,225.1268635,67.0,109.0
266,225.25821928333335,225.39381235000002,58.0,117.0
267,225.51245628333336,225.68618490000003,60.0,87.0
268,225.76669328333335,225.934065975,62.0,115.0
269,226.02093028333334,226.16076063333335,65.0,112.0
270,226.27516728333336,229.72431591666668,62.0,115.0
271,230.34295928333336,231.5866019416667,67.0,115.0
272,231.86838128333335,232.0696522416667,62.0,109.0
273,232.12261828333337,232.33448245000002,65.0,104.0
274,232.37685528333336,233.7094808916667,60.0,115.0
275,233.90227728333335,234.0463449166667,60.0,109.0
276,234.15651428333337,234.29210735,62.0,109.0
277,234.41075128333335,234.77515765,65.0,115.0
278,234.91922528333336,235.06329291666668,65.0,115.0
279,235.17346228333335,235.7793938,62.0,115.0
280,235.93617328333335,236.31117285833335,74.0,109.0
281,236.44464728333335,237.61837476666668,72.0,109.0
282,238.47854328333335,239.05269517500003,65.0,112.0
283,239.24125428333335,239.39591512500002,65.0,115.0
284,239.49549128333337,239.83023666666668,65.0,115.0
285,240.00396528333334,240.35777844166668,62.0,115.0
286,240.51243928333335,241.46582803333337,72.0,109.0
287,242.03786128333334,242.20311533333336,67.0,109.0
288,242.29209828333336,242.42769135000003,65.0,109.0
289,242.54633528333335,246.4573478,67.0,112.0
290,246.61412728333335,247.18827917500002,65.0,112.0
291,247.37683828333334,247.531499125,65.0,115.0
292,247.63107528333336,247.9658206666667,65.0,115.0
293,248.13954928333337,248.49336244166668,62.0,115.0
294,248.64802328333334,249.60141203333336,72.0,109.0
295,249.66497128333336,251.19039328333335,69.0,109.0
296,252.20734128333336,252.3831885416667,67.0,106.0
297,252.46157828333335,252.61623912500002,65.0,104.0
298,252.71581528333334,256.8047937,67.0,109.0
