,start,end,pitch,velocity
0,2.800844283333334,4.110164833333334,50.0,73.0
1,2.5466072833333335,4.300842583333334,43.0,89.0
2,3.0550812833333336,4.860163983333334,55.0,87.0
3,4.834740283333334,5.709739291666668,50.0,80.0
4,4.580503283333334,5.78389175,43.0,76.0
5,5.0889772833333335,6.1080439250000005,55.0,101.0
6,3.3093182833333334,6.197026875000001,62.0,104.0
7,5.343214283333333,6.7033822333333335,67.0,101.0
8,6.614399283333334,8.425837908333333,48.0,94.0
9,6.868636283333334,8.487278516666667,55.0,78.0
10,7.122873283333334,8.894057716666667,60.0,87.0
11,7.377110283333334,9.252108158333334,67.0,91.0
12,9.156769283333334,9.332616541666667,60.0,94.0
13,8.902532283333334,9.889819300000001,55.0,87.0
14,8.648295283333335,9.904649791666667,48.0,82.0
15,9.411006283333334,10.010581875000002,63.0,104.0
16,9.411006283333334,10.05507335,60.0,94.0
17,10.682191283333335,11.86015605,39.0,104.0
18,10.936428283333335,11.919478016666668,46.0,58.0
19,11.190665283333335,11.98727455,55.0,74.0
20,11.444902283333334,12.239392908333334,58.0,96.0
21,11.953376283333334,12.368630050000002,63.0,88.0
22,12.207613283333334,12.406765600000002,55.0,47.0
23,12.716087283333334,13.002103908333334,53.0,85.0
24,12.716087283333334,13.309306950000002,57.0,87.0
25,12.970324283333335,14.286000758333335,48.0,67.0
26,12.716087283333334,14.298712608333334,41.0,96.0
27,13.224561283333335,14.377102350000001,53.0,87.0
28,13.478798283333335,14.6694749,60.0,55.0
29,15.004220283333334,16.680065841666668,50.0,69.0
30,14.749983283333334,16.682184483333334,43.0,96.0
31,15.258457283333335,17.09743825,55.0,89.0
32,17.292353283333334,18.298708075,55.0,74.0
33,17.038116283333334,18.31777585,50.0,71.0
34,15.512694283333335,18.34319955,62.0,101.0
35,17.546590283333334,18.34319955,67.0,101.0
36,16.783879283333334,18.523284091666667,43.0,82.0
37,19.072012283333336,20.381332833333335,50.0,73.0
38,18.817775283333336,20.572010583333334,43.0,89.0
39,19.326249283333336,21.131331983333336,55.0,87.0
40,21.105908283333335,21.980907291666668,50.0,80.0
41,20.851671283333335,22.05505975,43.0,76.0
42,21.360145283333335,22.379211925000003,55.0,101.0
43,19.580486283333336,22.468194875000002,62.0,104.0
44,21.614382283333335,22.974550233333336,67.0,101.0
45,22.885567283333334,24.697005908333335,48.0,94.0
46,23.139804283333337,24.75844651666667,55.0,78.0
47,23.394041283333337,25.16522571666667,60.0,87.0
48,23.648278283333337,25.523276158333335,67.0,91.0
49,25.427937283333335,25.60378454166667,60.0,94.0
50,25.173700283333336,26.160987300000002,55.0,87.0
51,24.919463283333336,26.17581779166667,48.0,82.0
52,25.682174283333335,26.281749875000003,63.0,104.0
53,25.682174283333335,26.326241350000004,60.0,94.0
54,26.953359283333334,28.131324050000003,39.0,104.0
55,27.207596283333334,28.19064601666667,46.0,58.0
56,27.461833283333334,28.25844255,55.0,74.0
57,27.716070283333337,28.510560908333336,58.0,96.0
58,28.224544283333337,28.639798050000003,63.0,88.0
59,28.478781283333337,28.677933600000003,55.0,47.0
60,28.987255283333337,29.273271908333335,53.0,85.0
61,28.987255283333337,29.580474950000003,57.0,87.0
62,29.241492283333336,30.557168758333336,48.0,67.0
63,28.987255283333337,30.569880608333335,41.0,96.0
64,29.495729283333336,30.648270350000004,53.0,87.0
65,29.749966283333336,30.940642900000004,60.0,55.0
66,31.275388283333335,32.95123384166667,50.0,69.0
67,31.021151283333335,32.95335248333333,43.0,96.0
68,31.529625283333335,33.368606250000006,55.0,89.0
69,33.56352128333334,34.569876075,55.0,74.0
70,33.309284283333334,34.58894385,50.0,71.0
71,31.783862283333335,34.614367550000004,62.0,101.0
72,33.81775828333333,34.614367550000004,67.0,101.0
73,33.05504728333334,34.79445209166667,43.0,82.0
74,35.088943283333336,35.644027400000006,62.0,99.0
75,35.088943283333336,35.65250196666667,55.0,64.0
76,35.088943283333336,35.69063751666667,58.0,63.0
77,36.105891283333335,36.51055184166667,62.0,101.0
78,36.105891283333335,36.641907625,58.0,104.0
79,35.597417283333336,37.22453408333334,50.0,37.0
80,37.122839283333334,37.805041900000006,62.0,94.0
81,37.122839283333334,37.88978756666667,58.0,96.0
82,37.631313283333334,38.374956508333334,50.0,28.0
83,38.139787283333334,38.61436301666667,62.0,99.0
84,38.139787283333334,38.64614264166667,58.0,101.0
85,35.088943283333336,38.84317631666667,43.0,85.0
86,38.64826128333333,38.91309149166667,55.0,54.0
87,39.15673528333334,39.45758240000001,55.0,82.0
88,39.15673528333334,39.81139555833334,60.0,94.0
89,39.66520928333334,40.01902244166667,55.0,59.0
90,40.17368328333334,40.53808965,60.0,104.0
91,40.17368328333334,40.55927606666667,63.0,110.0
92,39.15673528333334,40.57834384166667,48.0,96.0
93,41.19063128333334,41.866477975,62.0,101.0
94,41.19063128333334,41.955460925000004,58.0,77.0
95,41.69910528333334,42.49359590833334,50.0,48.0
96,41.19063128333334,42.56774836666667,43.0,78.0
97,42.20757928333334,42.72029056666667,62.0,101.0
98,42.20757928333334,42.75207019166667,58.0,113.0
99,42.71605328333334,43.252069625000004,55.0,80.0
100,43.22452728333334,43.81350966666667,58.0,101.0
101,43.22452728333334,43.824102875,63.0,96.0
102,43.22452728333334,44.16732282500001,39.0,86.0
103,43.73300128333334,44.28596675833334,55.0,73.0
104,44.24147528333334,44.54444104166667,58.0,113.0
105,44.24147528333334,44.64825448333334,63.0,110.0
106,45.258423283333336,45.514778925,57.0,85.0
107,45.258423283333336,45.89401578333334,60.0,82.0
108,45.766897283333336,46.156727350000004,57.0,94.0
109,45.258423283333336,46.624947158333335,41.0,91.0
110,46.275371283333335,46.80715034166667,60.0,99.0
111,46.275371283333335,46.91943835000001,65.0,101.0
112,46.783845283333335,47.065624625000005,57.0,99.0
113,47.292319283333335,47.81986105833334,58.0,88.0
114,47.292319283333335,47.83681019166667,62.0,101.0
115,47.800793283333334,48.45969084166667,53.0,44.0
116,48.30926728333334,48.593165266666674,58.0,110.0
117,47.292319283333335,48.60375847500001,46.0,77.0
118,48.30926728333334,48.671555008333335,62.0,101.0
119,49.32621528333334,49.56138450833334,57.0,87.0
120,49.32621528333334,50.046553450000005,62.0,99.0
121,49.32621528333334,50.08045171666667,38.0,80.0
122,49.83468928333334,50.120705908333335,57.0,87.0
123,50.34316328333334,50.70545100833334,66.0,110.0
124,50.34316328333334,50.70968829166667,62.0,112.0
125,50.34316328333334,50.841044075000006,57.0,104.0
126,51.36011128333334,51.90672083333334,58.0,99.0
127,51.36011128333334,51.91731404166667,62.0,104.0
128,51.36011128333334,52.169432400000005,55.0,91.0
129,52.37705928333334,52.58044888333334,58.0,104.0
130,52.37705928333334,52.582567525,62.0,101.0
131,51.86858528333334,53.29654976666667,50.0,18.0
132,53.39400728333334,53.815616975000005,62.0,104.0
133,53.39400728333334,53.974515100000005,58.0,110.0
134,51.36011128333334,54.012650650000005,43.0,94.0
135,53.90248128333334,54.12282001666667,55.0,64.0
136,54.41095528333334,54.98722581666667,58.0,113.0
137,54.41095528333334,55.038073216666675,62.0,104.0
138,54.919429283333336,55.315615275000006,55.0,96.0
139,55.427903283333336,56.008411100000004,58.0,99.0
140,55.936377283333336,56.055021216666674,55.0,23.0
141,55.427903283333336,56.059258500000006,63.0,86.0
142,55.427903283333336,56.561376575000004,39.0,88.0
143,56.444851283333335,56.84527455833334,58.0,110.0
144,56.444851283333335,56.90883380833334,63.0,93.0
145,57.46179928333334,57.788070100000006,55.0,85.0
146,57.46179928333334,58.139764616666675,60.0,78.0
147,57.46179928333334,58.144001900000006,63.0,72.0
148,57.97027328333334,58.31773051666667,55.0,76.0
149,57.46179928333334,58.807136741666675,48.0,80.0
150,58.47874728333334,58.997814491666674,60.0,104.0
151,58.47874728333334,59.002051775000005,63.0,113.0
152,59.49569528333334,59.781711908333335,57.0,96.0
153,60.00416928333334,60.12916914166667,57.0,38.0
154,59.49569528333334,60.146118275000006,62.0,104.0
155,60.51264328333334,60.74145658333334,57.0,96.0
156,60.51264328333334,60.91730384166667,62.0,106.0
157,60.51264328333334,60.98298173333334,65.0,99.0
158,59.49569528333334,61.42789648333334,50.0,96.0
159,61.52959128333334,61.74357409166667,57.0,87.0
160,61.52959128333334,62.07831947500001,62.0,91.0
161,62.03806528333334,62.135522800000004,57.0,61.0
162,62.54653928333334,62.66942050000001,57.0,101.0
163,61.52959128333334,62.771115300000005,50.0,99.0
164,62.54653928333334,63.004165883333336,62.0,109.0
165,62.54653928333334,63.10586068333334,65.0,104.0
166,63.05501328333334,63.19484363333334,57.0,104.0
167,63.56348728333334,64.24780854166667,62.0,85.0
168,63.56348728333334,64.31772371666668,58.0,99.0
169,63.56348728333334,64.43213036666667,55.0,73.0
170,64.58043528333334,64.9575535,58.0,117.0
171,64.58043528333334,64.97873991666667,62.0,106.0
172,65.59738328333334,66.32195873333333,58.0,110.0
173,65.59738328333334,66.41941625000001,62.0,104.0
174,66.10585728333334,66.70119559166667,55.0,89.0
175,64.07196128333334,67.53805905,50.0,73.0
176,67.12280528333334,67.582550525,55.0,101.0
177,63.56348728333334,67.58678780833334,43.0,96.0
178,66.61433128333334,67.58890645000001,58.0,101.0
179,66.61433128333334,67.60161830000001,67.0,99.0
180,66.61433128333334,67.61009286666668,62.0,106.0
181,67.63127928333334,68.1863634,62.0,99.0
182,67.63127928333334,68.19483796666667,55.0,64.0
183,67.63127928333334,68.23297351666668,58.0,63.0
184,68.64822728333334,69.05288784166667,62.0,101.0
185,68.64822728333334,69.18424362500001,58.0,104.0
186,68.13975328333333,69.76687008333334,50.0,37.0
187,69.66517528333334,70.34737790000001,62.0,94.0
188,69.66517528333334,70.43212356666668,58.0,96.0
189,70.17364928333333,70.91729250833333,50.0,28.0
190,70.68212328333334,71.15669901666668,62.0,99.0
191,70.68212328333334,71.18847864166668,58.0,101.0
192,67.63127928333334,71.38551231666668,43.0,85.0
193,71.19059728333335,71.45542749166667,55.0,54.0
194,71.69907128333334,71.99991840000001,55.0,82.0
195,71.69907128333334,72.35373155833334,60.0,94.0
196,72.20754528333335,72.56135844166667,55.0,59.0
197,72.71601928333334,73.08042565000001,60.0,104.0
198,72.71601928333334,73.10161206666668,63.0,110.0
199,71.69907128333334,73.12067984166667,48.0,96.0
200,73.73296728333334,74.408813975,62.0,101.0
201,73.73296728333334,74.497796925,58.0,77.0
202,74.24144128333334,75.03593190833334,50.0,48.0
203,73.73296728333334,75.11008436666667,43.0,78.0
204,74.74991528333334,75.26262656666667,62.0,101.0
205,74.74991528333334,75.29440619166667,58.0,113.0
206,75.25838928333334,75.79440562500001,55.0,80.0
207,75.76686328333334,76.35584566666667,58.0,101.0
208,75.76686328333334,76.366438875,63.0,96.0
209,75.76686328333334,76.709658825,39.0,86.0
210,76.27533728333334,76.82830275833334,55.0,73.0
211,76.78381128333334,77.08677704166668,58.0,113.0
212,76.78381128333334,77.19059048333334,63.0,110.0
213,77.80075928333333,78.05711492500001,57.0,85.0
214,77.80075928333333,78.43635178333334,60.0,82.0
215,78.30923328333334,78.69906335,57.0,94.0
216,77.80075928333333,79.16728315833333,41.0,91.0
217,78.81770728333333,79.34948634166668,60.0,99.0
218,78.81770728333333,79.46177435000001,65.0,101.0
219,79.32618128333334,79.607960625,57.0,99.0
220,79.83465528333333,80.36219705833334,58.0,88.0
221,79.83465528333333,80.37914619166668,62.0,101.0
222,80.34312928333334,81.00202684166668,53.0,44.0
223,80.85160328333335,81.13550126666668,58.0,110.0
224,79.83465528333333,81.14609447500001,46.0,77.0
225,80.85160328333335,81.21389100833333,62.0,101.0
226,81.86855128333335,82.10372050833334,57.0,87.0
227,81.86855128333335,82.58888945000001,62.0,99.0
228,81.86855128333335,82.62278771666668,38.0,80.0
229,82.37702528333334,82.66304190833334,57.0,87.0
230,82.88549928333335,83.24778700833335,66.0,110.0
231,82.88549928333335,83.25202429166667,62.0,112.0
232,82.88549928333335,83.383380075,57.0,104.0
233,83.90244728333334,84.44905683333334,58.0,99.0
234,83.90244728333334,84.45965004166668,62.0,104.0
235,83.90244728333334,84.71176840000001,55.0,91.0
236,84.91939528333334,85.12278488333334,58.0,104.0
237,84.91939528333334,85.12490352500001,62.0,101.0
238,84.41092128333334,85.83888576666668,50.0,18.0
239,85.93634328333334,86.357952975,62.0,104.0
240,85.93634328333334,86.51685110000001,58.0,110.0
241,83.90244728333334,86.55498665,43.0,94.0
242,86.44481728333334,86.66515601666667,55.0,64.0
243,86.95329128333334,87.52956181666667,58.0,113.0
244,86.95329128333334,87.58040921666668,62.0,104.0
245,87.46176528333334,87.857951275,55.0,96.0
246,87.97023928333334,88.55074710000001,58.0,99.0
247,88.47871328333333,88.59735721666668,55.0,23.0
248,87.97023928333334,88.6015945,63.0,86.0
249,87.97023928333334,89.103712575,39.0,88.0
250,88.98718728333334,89.38761055833334,58.0,110.0
251,88.98718728333334,89.45116980833335,63.0,93.0
252,90.00413528333334,90.3304061,55.0,85.0
253,90.00413528333334,90.68210061666667,60.0,78.0
254,90.00413528333334,90.68633790000001,63.0,72.0
255,90.51260928333335,90.86006651666668,55.0,76.0
256,90.00413528333334,91.34947274166667,48.0,80.0
257,91.02108328333334,91.54015049166668,60.0,104.0
258,91.02108328333334,91.544387775,63.0,113.0
259,92.03803128333334,92.32404790833334,57.0,96.0
260,92.54650528333335,92.67150514166667,57.0,38.0
261,92.03803128333334,92.68845427500001,62.0,104.0
262,93.05497928333334,93.28379258333334,57.0,96.0
263,93.05497928333334,93.45963984166667,62.0,106.0
264,93.05497928333334,93.52531773333334,65.0,99.0
265,92.03803128333334,93.97023248333335,50.0,96.0
266,94.07192728333334,94.28591009166668,57.0,87.0
267,94.07192728333334,94.620655475,62.0,91.0
268,94.58040128333334,94.67785880000001,57.0,61.0
269,95.08887528333334,95.2117565,57.0,101.0
270,94.07192728333334,95.31345130000001,50.0,99.0
271,95.08887528333334,95.54650188333333,62.0,109.0
272,95.08887528333334,95.64819668333334,65.0,104.0
273,95.59734928333334,95.73717963333334,57.0,104.0
274,96.10582328333334,96.79014454166668,62.0,85.0
275,96.10582328333334,96.86005971666667,58.0,99.0
276,96.10582328333334,96.97446636666668,55.0,73.0
277,97.12277128333334,97.49988950000001,58.0,117.0
278,97.12277128333334,97.52107591666667,62.0,106.0
279,98.13971928333333,98.86429473333334,58.0,110.0
280,98.13971928333333,98.96175225,62.0,104.0
281,98.64819328333334,99.24353159166668,55.0,89.0
282,96.61429728333334,100.08039505,50.0,73.0
283,99.66514128333334,100.12488652500001,55.0,101.0
284,96.10582328333334,100.12912380833335,43.0,96.0
285,99.15666728333335,100.13124245,58.0,101.0
286,99.15666728333335,100.1439543,67.0,99.0
287,99.15666728333335,100.15242886666668,62.0,106.0
288,100.17361528333335,100.41937771666667,57.0,104.0
289,100.17361528333335,100.83886876666668,65.0,104.0
290,100.17361528333335,100.88547888333335,62.0,109.0
291,100.68208928333334,100.91725850833335,57.0,73.0
292,101.19056328333335,101.42573250833334,57.0,104.0
293,100.17361528333335,101.71598641666668,50.0,104.0
294,101.19056328333335,101.72657962500001,69.0,91.0
295,101.19056328333335,101.73929147500002,62.0,106.0
296,101.69903728333334,101.90878280833334,57.0,99.0
297,102.20751128333335,102.61217184166668,58.0,88.0
298,102.20751128333335,102.67573109166668,55.0,94.0
299,102.20751128333335,102.76047675833334,62.0,94.0
300,103.22445928333335,103.45115394166667,55.0,106.0
301,103.22445928333335,103.62064527500002,62.0,106.0
302,102.71598528333334,103.70750958333335,50.0,85.0
303,102.20751128333335,103.74352649166667,43.0,82.0
304,103.22445928333335,103.7541197,58.0,113.0
305,104.24140728333334,104.44903416666668,55.0,91.0
306,104.24140728333334,104.84522015833335,58.0,101.0
307,104.24140728333334,104.86852521666668,63.0,99.0
308,104.24140728333334,105.32403317500001,39.0,81.0
309,105.25835528333334,105.42572797500002,58.0,117.0
310,105.25835528333334,105.47021945000002,63.0,117.0
311,106.27530328333334,106.65454014166667,58.0,99.0
312,106.27530328333334,106.67572655833334,63.0,107.0
313,106.78377728333334,107.20114969166667,55.0,66.0
314,107.29225128333334,107.78801343333335,67.0,101.0
315,107.29225128333334,107.79225071666667,63.0,107.0
316,107.29225128333334,107.80496256666667,58.0,113.0
317,107.80072528333335,107.95326748333335,55.0,109.0
318,108.30919928333334,108.83462241666668,57.0,99.0
319,108.30919928333334,109.19267285833334,53.0,91.0
320,109.32614728333334,109.71385870833335,57.0,115.0
321,108.81767328333335,109.73292648333334,48.0,51.0
322,109.32614728333334,109.73292648333334,60.0,104.0
323,108.30919928333334,109.79012980833335,41.0,99.0
324,109.32614728333334,109.82190943333335,65.0,94.0
325,109.83462128333335,110.00623125833334,53.0,94.0
326,110.34309528333334,110.88123026666668,63.0,96.0
327,110.34309528333334,110.90877260833334,58.0,99.0
328,110.34309528333334,111.018941975,39.0,110.0
329,110.85156928333335,111.22021293333334,55.0,87.0
330,111.36004328333334,111.87487320833334,58.0,117.0
331,111.36004328333334,111.90453419166667,63.0,110.0
332,111.86851728333335,112.30707610833335,55.0,109.0
333,112.37699128333334,112.7032621,58.0,107.0
334,112.37699128333334,112.73927900833334,62.0,109.0
335,112.88546528333335,113.48504087500001,53.0,46.0
336,113.39393928333334,113.63122715000002,58.0,107.0
337,112.37699128333334,113.73504059166667,46.0,107.0
338,113.39393928333334,113.898176,62.0,109.0
339,113.39393928333334,113.92783698333335,65.0,106.0
340,113.90241328333335,113.98927759166668,58.0,107.0
341,114.41088728333334,114.705378475,57.0,101.0
342,114.41088728333334,114.92995449166668,62.0,112.0
343,114.41088728333334,115.12910680833335,66.0,101.0
344,114.91936128333334,115.23080160833334,57.0,101.0
345,115.42783528333334,115.64393673333335,57.0,112.0
346,114.41088728333334,115.68419092500001,50.0,112.0
347,115.42783528333334,115.89817373333334,66.0,110.0
348,115.42783528333334,115.91936015000002,60.0,112.0
349,115.93630928333334,116.06766506666668,57.0,104.0
350,116.44478328333334,116.85368112500001,55.0,99.0
351,116.44478328333334,117.09732491666668,58.0,104.0
352,116.44478328333334,117.235036625,62.0,106.0
353,117.46173128333335,117.63334125833335,55.0,104.0
354,117.46173128333335,117.98503577500001,58.0,117.0
355,116.95325728333334,118.10579835000001,50.0,51.0
356,117.97020528333334,118.16723895833334,55.0,99.0
357,116.44478328333334,118.27105240000002,43.0,104.0
358,117.46173128333335,118.38545905000001,62.0,112.0
359,118.47867928333335,118.70537394166668,57.0,106.0
360,118.47867928333335,119.33461051666667,60.0,101.0
361,118.98715328333334,119.37062742500001,57.0,96.0
362,119.49562728333335,119.70537280833334,57.0,106.0
363,118.47867928333335,120.10791472500001,41.0,96.0
364,119.49562728333335,120.24350779166667,60.0,104.0
365,120.00410128333334,120.28164334166668,57.0,94.0
366,119.49562728333335,120.35579580000001,65.0,106.0
367,120.51257528333335,120.73715130000001,55.0,99.0
368,120.51257528333335,121.14604914166668,58.0,96.0
369,120.51257528333335,121.19689654166667,63.0,101.0
370,120.51257528333335,121.88121780000002,51.0,104.0
371,121.52952328333335,122.04859049166667,58.0,107.0
372,121.52952328333335,122.09308196666667,63.0,99.0
373,122.03799728333334,122.21596318333334,55.0,106.0
374,122.54647128333335,123.14816551666668,60.0,99.0
375,122.54647128333335,123.24350439166668,56.0,91.0
376,122.54647128333335,123.27104673333335,63.0,99.0
377,122.54647128333335,123.74774110833334,44.0,88.0
378,123.05494528333334,123.84096134166668,51.0,70.0
379,123.56341928333335,123.89180874166668,60.0,106.0
380,123.56341928333335,123.90240195000001,56.0,113.0
381,123.56341928333335,123.94477478333334,63.0,117.0
382,124.07189328333334,124.17994400833335,44.0,110.0
383,124.58036728333335,124.81977379166668,53.0,82.0
384,124.58036728333335,125.15663781666667,57.0,104.0
385,125.08884128333334,125.50197640833335,53.0,89.0
386,125.59731528333334,125.78375575000001,53.0,106.0
387,124.58036728333335,125.86214549166668,41.0,99.0
388,125.59731528333334,126.15028075833334,57.0,115.0
389,126.10578928333335,126.26892469166668,53.0,106.0
390,125.59731528333334,126.55494131666667,65.0,106.0
391,126.61426328333334,126.92570360833335,57.0,89.0
392,126.61426328333334,127.30917775000002,62.0,104.0
393,127.12273728333335,127.42570304166668,57.0,85.0
394,126.61426328333334,127.77739755833335,50.0,104.0
395,127.63121128333334,127.83460088333335,57.0,106.0
396,127.63121128333334,128.11426158333333,62.0,109.0
397,128.13968528333334,128.26256650000002,57.0,96.0
398,127.63121128333334,128.47866795000002,65.0,101.0
399,128.64815928333334,129.24349759166668,58.0,77.0
400,128.64815928333334,129.2540908,62.0,99.0
401,128.64815928333334,129.2689212916667,55.0,91.0
402,129.15663328333335,129.74985295000002,50.0,43.0
403,129.66510728333336,130.02739500833334,58.0,117.0
404,128.64815928333334,130.15663215,43.0,99.0
405,129.66510728333336,130.18417449166668,62.0,109.0
406,130.68205528333334,131.24773260833334,67.0,104.0
407,130.68205528333334,131.26680038333333,62.0,106.0
408,130.68205528333334,131.268919025,58.0,110.0
409,131.19052928333335,131.56341021666668,55.0,42.0
410,130.68205528333334,132.09095199166669,43.0,91.0
411,131.69900328333335,132.5740022916667,58.0,117.0
412,132.20747728333333,132.59518870833335,55.0,76.0
413,131.69900328333335,132.6184937666667,62.0,104.0
414,132.97018828333336,134.27950883333335,50.0,73.0
415,132.71595128333334,134.47018658333334,43.0,89.0
416,133.22442528333335,135.02950798333333,55.0,87.0
417,135.00408428333336,135.8790832916667,50.0,80.0
418,134.74984728333334,135.95323575,43.0,76.0
419,135.25832128333334,136.277387925,55.0,101.0
420,133.47866228333334,136.366370875,62.0,104.0
421,135.51255828333333,136.87272623333334,67.0,101.0
422,136.78374328333334,138.59518190833336,48.0,94.0
423,137.03798028333335,138.6566225166667,55.0,78.0
424,137.29221728333334,139.06340171666668,60.0,87.0
425,137.54645428333333,139.42145215833335,67.0,91.0
426,139.32611328333334,139.50196054166668,60.0,94.0
427,139.07187628333335,140.05916330000002,55.0,87.0
428,138.81763928333334,140.07399379166668,48.0,82.0
429,139.58035028333336,140.179925875,63.0,104.0
430,139.58035028333336,140.22441735,60.0,94.0
431,140.85153528333333,142.02950005000002,39.0,104.0
432,141.10577228333335,142.08882201666668,46.0,58.0
433,141.36000928333334,142.15661855000002,55.0,74.0
434,141.61424628333336,142.40873690833334,58.0,96.0
435,142.12272028333334,142.53797405,63.0,88.0
436,142.37695728333335,142.57610960000002,55.0,47.0
437,142.88543128333333,143.17144790833333,53.0,85.0
438,142.88543128333333,143.47865095,57.0,87.0
439,143.13966828333335,144.45534475833335,48.0,67.0
440,142.88543128333333,144.46805660833334,41.0,96.0
441,143.39390528333334,144.54644635000002,53.0,87.0
442,143.64814228333336,144.8388189,60.0,55.0
443,145.17356428333335,146.84940984166667,50.0,69.0
444,144.91932728333336,146.85152848333334,43.0,96.0
445,145.42780128333334,147.26678225,55.0,89.0
446,147.46169728333334,148.468052075,55.0,74.0
447,147.20746028333335,148.48711985,50.0,71.0
448,145.68203828333336,148.51254355,62.0,101.0
449,147.71593428333335,148.51254355,67.0,101.0
450,146.95322328333336,148.69262809166668,43.0,82.0
451,148.98711928333336,149.5422034,62.0,99.0
452,148.98711928333336,149.55067796666668,55.0,64.0
453,148.98711928333336,149.58881351666668,58.0,63.0
454,150.00406728333334,150.4087278416667,62.0,101.0
455,150.00406728333334,150.54008362500002,58.0,104.0
456,149.49559328333333,151.12271008333335,50.0,37.0
457,151.02101528333336,151.70321790000003,62.0,94.0
458,151.02101528333336,151.7879635666667,58.0,96.0
459,151.52948928333333,152.27313250833333,50.0,28.0
460,152.03796328333334,152.5125390166667,62.0,99.0
461,152.03796328333334,152.54431864166668,58.0,101.0
462,148.98711928333336,152.74135231666668,43.0,85.0
463,152.54643728333335,152.81126749166668,55.0,54.0
464,153.05491128333335,153.3557584,55.0,82.0
465,153.05491128333335,153.70957155833335,60.0,94.0
466,153.56338528333336,153.91719844166667,55.0,59.0
467,154.07185928333334,154.43626565000002,60.0,104.0
468,154.07185928333334,154.4574520666667,63.0,110.0
469,153.05491128333335,154.4765198416667,48.0,96.0
470,155.08880728333335,155.76465397500002,62.0,101.0
471,155.08880728333335,155.85363692500002,58.0,77.0
472,155.59728128333336,156.39177190833334,50.0,48.0
473,155.08880728333335,156.46592436666668,43.0,78.0
474,156.10575528333334,156.61846656666668,62.0,101.0
475,156.10575528333334,156.65024619166667,58.0,113.0
476,156.61422928333334,157.15024562500003,55.0,80.0
477,157.12270328333335,157.71168566666668,58.0,101.0
478,157.12270328333335,157.722278875,63.0,96.0
479,157.12270328333335,158.06549882500002,39.0,86.0
480,157.63117728333336,158.18414275833334,55.0,73.0
481,158.13965128333334,158.4426170416667,58.0,113.0
482,158.13965128333334,158.54643048333335,63.0,110.0
483,159.15659928333335,159.412954925,57.0,85.0
484,159.15659928333335,159.79219178333335,60.0,82.0
485,159.66507328333336,160.05490335000002,57.0,94.0
486,159.15659928333335,160.52312315833333,41.0,91.0
487,160.17354728333333,160.70532634166668,60.0,99.0
488,160.17354728333333,160.81761435,65.0,101.0
489,160.68202128333334,160.963800625,57.0,99.0
490,161.19049528333335,161.71803705833335,58.0,88.0
491,161.19049528333335,161.73498619166668,62.0,101.0
492,161.69896928333335,162.3578668416667,53.0,44.0
493,162.20744328333333,162.4913412666667,58.0,110.0
494,161.19049528333335,162.501934475,46.0,77.0
495,162.20744328333333,162.56973100833335,62.0,101.0
496,163.22439128333335,163.45956050833334,57.0,87.0
497,163.22439128333335,163.94472945,62.0,99.0
498,163.22439128333335,163.9786277166667,38.0,80.0
499,163.73286528333335,164.01888190833336,57.0,87.0
500,164.24133928333336,164.60362700833335,66.0,110.0
501,164.24133928333336,164.6078642916667,62.0,112.0
502,164.24133928333336,164.73922007500002,57.0,104.0
503,165.25828728333335,165.80489683333334,58.0,99.0
504,165.25828728333335,165.8154900416667,62.0,104.0
505,165.25828728333335,166.0676084,55.0,91.0
506,166.27523528333336,166.47862488333334,58.0,104.0
507,166.27523528333336,166.480743525,62.0,101.0
508,165.76676128333335,167.1947257666667,50.0,18.0
509,167.29218328333334,167.71379297500002,62.0,104.0
510,167.29218328333334,167.87269110000003,58.0,110.0
511,165.25828728333335,167.91082665000002,43.0,94.0
512,167.80065728333335,168.0209960166667,55.0,64.0
513,168.30913128333336,168.88540181666667,58.0,113.0
514,168.30913128333336,168.93624921666668,62.0,104.0
515,168.81760528333334,169.213791275,55.0,96.0
516,169.32607928333334,169.90658710000002,58.0,99.0
517,169.83455328333335,169.9531972166667,55.0,23.0
518,169.32607928333334,169.9574345,63.0,86.0
519,169.32607928333334,170.459552575,39.0,88.0
520,170.34302728333336,170.74345055833334,58.0,110.0
521,170.34302728333336,170.80700980833336,63.0,93.0
522,171.35997528333334,171.6862461,55.0,85.0
523,171.35997528333334,172.03794061666667,60.0,78.0
524,171.35997528333334,172.0421779,63.0,72.0
525,171.86844928333335,172.21590651666668,55.0,76.0
526,171.35997528333334,172.7053127416667,48.0,80.0
527,172.37692328333335,172.89599049166668,60.0,104.0
528,172.37692328333335,172.90022777500002,63.0,113.0
529,173.39387128333334,173.67988790833334,57.0,96.0
530,173.90234528333335,174.02734514166667,57.0,38.0
531,173.39387128333334,174.04429427500003,62.0,104.0
532,174.41081928333335,174.63963258333334,57.0,96.0
533,174.41081928333335,174.81547984166667,62.0,106.0
534,174.41081928333335,174.88115773333334,65.0,99.0
535,173.39387128333334,175.32607248333335,50.0,96.0
536,175.42776728333334,175.6417500916667,57.0,87.0
537,175.42776728333334,175.976495475,62.0,91.0
538,175.93624128333335,176.03369880000002,57.0,61.0
539,176.44471528333335,176.5675965,57.0,101.0
540,175.42776728333334,176.66929130000003,50.0,99.0
541,176.44471528333335,176.90234188333335,62.0,109.0
542,176.44471528333335,177.00403668333334,65.0,104.0
543,176.95318928333336,177.09301963333334,57.0,104.0
544,177.46166328333334,178.14598454166668,62.0,85.0
545,177.46166328333334,178.21589971666668,58.0,99.0
546,177.46166328333334,178.3303063666667,55.0,73.0
547,178.47861128333335,178.85572950000002,58.0,117.0
548,178.47861128333335,178.8769159166667,62.0,106.0
549,179.49555928333334,180.22013473333334,58.0,110.0
550,179.49555928333334,180.31759225000002,62.0,104.0
551,180.00403328333334,180.59937159166668,55.0,89.0
552,177.97013728333334,181.43623505000002,50.0,73.0
553,181.02098128333336,181.48072652500002,55.0,101.0
554,177.46166328333334,181.48496380833336,43.0,96.0
555,180.51250728333335,181.48708245,58.0,101.0
556,180.51250728333335,181.49979430000002,67.0,99.0
557,180.51250728333335,181.50826886666667,62.0,106.0
558,181.52945528333336,182.0845394,62.0,99.0
559,181.52945528333336,182.0930139666667,55.0,64.0
560,181.52945528333336,182.13114951666668,58.0,63.0
561,182.54640328333335,182.9510638416667,62.0,101.0
562,182.54640328333335,183.08241962500003,58.0,104.0
563,182.03792928333334,183.66504608333335,50.0,37.0
564,183.56335128333336,184.2455539,62.0,94.0
565,183.56335128333336,184.3302995666667,58.0,96.0
566,184.07182528333334,184.81546850833334,50.0,28.0
567,184.58029928333335,185.05487501666667,62.0,99.0
568,184.58029928333335,185.08665464166668,58.0,101.0
569,181.52945528333336,185.28368831666668,43.0,85.0
570,185.08877328333335,185.3536034916667,55.0,54.0
571,185.59724728333336,185.89809440000002,55.0,82.0
572,185.59724728333336,186.25190755833336,60.0,94.0
573,186.10572128333334,186.45953444166668,55.0,59.0
574,186.61419528333334,186.97860165000003,60.0,104.0
575,186.61419528333334,186.9997880666667,63.0,110.0
576,185.59724728333336,187.0188558416667,48.0,96.0
577,187.63114328333336,188.30698997500002,62.0,101.0
578,187.63114328333336,188.39597292500002,58.0,77.0
579,188.13961728333334,188.93410790833335,50.0,48.0
580,187.63114328333336,189.0082603666667,43.0,78.0
581,188.64809128333334,189.1608025666667,62.0,101.0
582,188.64809128333334,189.19258219166667,58.0,113.0
583,189.15656528333335,189.692581625,55.0,80.0
584,189.66503928333336,190.2540216666667,58.0,101.0
585,189.66503928333336,190.264614875,63.0,96.0
586,189.66503928333336,190.60783482500003,39.0,86.0
587,190.17351328333336,190.72647875833334,55.0,73.0
588,190.68198728333334,190.98495304166667,58.0,113.0
589,190.68198728333334,191.08876648333336,63.0,110.0
590,191.69893528333336,191.955290925,57.0,85.0
591,191.69893528333336,192.33452778333336,60.0,82.0
592,192.20740928333336,192.59723935000002,57.0,94.0
593,191.69893528333336,193.06545915833334,41.0,91.0
594,192.71588328333334,193.24766234166668,60.0,99.0
595,192.71588328333334,193.35995035000002,65.0,101.0
596,193.22435728333335,193.506136625,57.0,99.0
597,193.73283128333335,194.26037305833336,58.0,88.0
598,193.73283128333335,194.27732219166668,62.0,101.0
599,194.24130528333336,194.9002028416667,53.0,44.0
600,194.74977928333334,195.03367726666667,58.0,110.0
601,193.73283128333335,195.04427047500002,46.0,77.0
602,194.74977928333334,195.11206700833336,62.0,101.0
603,195.76672728333335,196.00189650833335,57.0,87.0
604,195.76672728333335,196.48706545000002,62.0,99.0
605,195.76672728333335,196.52096371666667,38.0,80.0
606,196.27520128333336,196.56121790833336,57.0,87.0
607,196.78367528333334,197.14596300833335,66.0,110.0
608,196.78367528333334,197.1502002916667,62.0,112.0
609,196.78367528333334,197.28155607500003,57.0,104.0
610,197.80062328333335,198.34723283333335,58.0,99.0
611,197.80062328333335,198.3578260416667,62.0,104.0
612,197.80062328333335,198.60994440000002,55.0,91.0
613,198.81757128333334,199.02096088333334,58.0,104.0
614,198.81757128333334,199.023079525,62.0,101.0
615,198.30909728333336,199.73706176666667,50.0,18.0
616,199.83451928333335,200.25612897500002,62.0,104.0
617,199.83451928333335,200.4150271,58.0,110.0
618,197.80062328333335,200.45316265000002,43.0,94.0
619,200.34299328333336,200.5633320166667,55.0,64.0
620,200.85146728333336,201.42773781666668,58.0,113.0
621,200.85146728333336,201.4785852166667,62.0,104.0
622,201.35994128333334,201.756127275,55.0,96.0
623,201.86841528333335,202.44892310000003,58.0,99.0
624,202.37688928333336,202.49553321666667,55.0,23.0
625,201.86841528333335,202.4997705,63.0,86.0
626,201.86841528333335,203.001888575,39.0,88.0
627,202.88536328333336,203.28578655833334,58.0,110.0
628,202.88536328333336,203.34934580833334,63.0,93.0
629,203.90231128333335,204.2285821,55.0,85.0
630,203.90231128333335,204.58027661666668,60.0,78.0
631,203.90231128333335,204.58451390000002,63.0,72.0
632,204.41078528333335,204.75824251666668,55.0,76.0
633,203.90231128333335,205.2476487416667,48.0,80.0
634,204.91925928333336,205.4383264916667,60.0,104.0
635,204.91925928333336,205.44256377500002,63.0,113.0
636,205.93620728333335,206.22222390833335,57.0,96.0
637,206.44468128333335,206.56968114166668,57.0,38.0
638,205.93620728333335,206.586630275,62.0,104.0
639,206.95315528333336,207.18196858333334,57.0,96.0
640,206.95315528333336,207.35781584166668,62.0,106.0
641,206.95315528333336,207.42349373333334,65.0,99.0
642,205.93620728333335,207.86840848333335,50.0,96.0
643,207.97010328333334,208.18408609166667,57.0,87.0
644,207.97010328333334,208.518831475,62.0,91.0
645,208.47857728333335,208.57603480000003,57.0,61.0
646,208.98705128333336,209.1099325,57.0,101.0
647,207.97010328333334,209.21162730000003,50.0,99.0
648,208.98705128333336,209.44467788333336,62.0,109.0
649,208.98705128333336,209.54637268333335,65.0,104.0
650,209.49552528333336,209.63535563333335,57.0,104.0
651,210.00399928333334,210.68832054166668,62.0,85.0
652,210.00399928333334,210.7582357166667,58.0,99.0
653,210.00399928333334,210.8726423666667,55.0,73.0
654,211.02094728333336,211.39806550000003,58.0,117.0
655,211.02094728333336,211.4192519166667,62.0,106.0
656,212.03789528333334,212.76247073333334,58.0,110.0
657,212.03789528333334,212.85992825000002,62.0,104.0
658,212.54636928333335,213.1417075916667,55.0,89.0
659,210.51247328333335,213.97857105000003,50.0,73.0
660,213.56331728333336,214.02306252500003,55.0,101.0
661,210.00399928333334,214.02729980833334,43.0,96.0
662,213.05484328333335,214.02941845,58.0,101.0
663,213.05484328333335,214.04213030000003,67.0,99.0
664,213.05484328333335,214.05060486666667,62.0,106.0
665,214.07179128333334,214.31755371666668,57.0,104.0
666,214.07179128333334,214.73704476666668,65.0,104.0
667,214.07179128333334,214.78365488333336,62.0,109.0
668,214.58026528333335,214.81543450833334,57.0,73.0
669,215.08873928333335,215.32390850833335,57.0,104.0
670,214.07179128333334,215.6141624166667,50.0,104.0
671,215.08873928333335,215.624755625,69.0,91.0
672,215.08873928333335,215.63746747500002,62.0,106.0
673,215.59721328333336,215.80695880833335,57.0,99.0
674,216.10568728333334,216.5103478416667,58.0,88.0
675,216.10568728333334,216.57390709166668,55.0,94.0
676,216.10568728333334,216.65865275833335,62.0,94.0
677,217.12263528333335,217.3493299416667,55.0,106.0
678,217.12263528333335,217.51882127500002,62.0,106.0
679,216.61416128333335,217.60568558333335,50.0,85.0
680,216.10568728333334,217.64170249166668,43.0,82.0
681,217.12263528333335,217.65229570000002,58.0,113.0
682,218.13958328333337,218.34721016666668,55.0,91.0
683,218.13958328333337,218.74339615833335,58.0,101.0
684,218.13958328333337,218.7667012166667,63.0,99.0
685,218.13958328333337,219.22220917500002,39.0,81.0
686,219.15653128333335,219.323903975,58.0,117.0
687,219.15653128333335,219.36839545,63.0,117.0
688,220.17347928333336,220.55271614166668,58.0,99.0
689,220.17347928333336,220.57390255833334,63.0,107.0
690,220.68195328333334,221.09932569166668,55.0,66.0
691,221.19042728333335,221.68618943333334,67.0,101.0
692,221.19042728333335,221.69042671666668,63.0,107.0
693,221.19042728333335,221.7031385666667,58.0,113.0
694,221.69890128333336,221.85144348333336,55.0,109.0
695,222.20737528333336,222.7327984166667,57.0,99.0
696,222.20737528333336,223.09084885833335,53.0,91.0
697,223.22432328333335,223.61203470833334,57.0,115.0
698,222.71584928333334,223.63110248333336,48.0,51.0
699,223.22432328333335,223.63110248333336,60.0,104.0
700,222.20737528333336,223.68830580833335,41.0,99.0
701,223.22432328333335,223.72008543333337,65.0,94.0
702,223.73279728333335,223.90440725833335,53.0,94.0
703,224.24127128333336,224.77940626666668,63.0,96.0
704,224.24127128333336,224.80694860833336,58.0,99.0
705,224.24127128333336,224.91711797500002,39.0,110.0
706,224.74974528333334,225.11838893333336,55.0,87.0
707,225.25821928333335,225.77304920833336,58.0,117.0
708,225.25821928333335,225.80271019166668,63.0,110.0
709,225.76669328333335,226.20525210833335,55.0,109.0
710,226.27516728333336,226.60143810000002,58.0,107.0
711,226.27516728333336,226.63745500833335,62.0,109.0
712,226.78364128333337,227.38321687500002,53.0,46.0
713,227.29211528333335,227.52940315,58.0,107.0
714,226.27516728333336,227.6332165916667,46.0,107.0
715,227.29211528333335,227.796352,62.0,109.0
716,227.29211528333335,227.82601298333336,65.0,106.0
717,227.80058928333335,227.88745359166668,58.0,107.0
718,228.30906328333336,228.603554475,57.0,101.0
719,228.30906328333336,228.82813049166668,62.0,112.0
720,228.30906328333336,229.02728280833335,66.0,101.0
721,228.81753728333337,229.12897760833334,57.0,101.0
722,229.32601128333334,229.54211273333334,57.0,112.0
723,228.30906328333336,229.58236692500003,50.0,112.0
724,229.32601128333334,229.79634973333336,66.0,110.0
725,229.32601128333334,229.81753615000002,60.0,112.0
726,229.83448528333335,229.96584106666668,57.0,104.0
727,230.34295928333336,230.75185712500002,55.0,99.0
728,230.34295928333336,230.99550091666669,58.0,104.0
729,230.34295928333336,231.13321262500003,62.0,106.0
730,231.35990728333334,231.53151725833337,55.0,104.0
731,231.35990728333334,231.883211775,58.0,117.0
732,230.85143328333336,232.00397435000002,50.0,51.0
733,231.86838128333335,232.06541495833335,55.0,99.0
734,230.34295928333336,232.1692284,43.0,104.0
735,231.35990728333334,232.28363505000002,62.0,112.0
736,232.37685528333336,232.6035499416667,57.0,106.0
737,232.37685528333336,233.2327865166667,60.0,101.0
738,232.88532928333336,233.26880342500002,57.0,96.0
739,233.39380328333334,233.60354880833336,57.0,106.0
740,232.37685528333336,234.006090725,41.0,96.0
741,233.39380328333334,234.14168379166668,60.0,104.0
742,233.90227728333335,234.1798193416667,57.0,94.0
743,233.39380328333334,234.25397180000002,65.0,106.0
744,234.41075128333335,234.63532730000003,55.0,99.0
745,234.41075128333335,235.0442251416667,58.0,96.0
746,234.41075128333335,235.0950725416667,63.0,101.0
747,234.41075128333335,235.7793938,51.0,104.0
748,235.42769928333334,235.9467664916667,58.0,107.0
749,235.42769928333334,235.9912579666667,63.0,99.0
750,235.93617328333335,236.11413918333335,55.0,106.0
751,236.44464728333335,237.0463415166667,60.0,99.0
752,236.44464728333335,237.14168039166668,56.0,91.0
753,236.44464728333335,237.16922273333336,63.0,99.0
754,236.44464728333335,237.64591710833335,44.0,88.0
755,236.95312128333336,237.7391373416667,51.0,70.0
756,237.46159528333337,237.7899847416667,60.0,106.0
757,237.46159528333337,237.80057795000002,56.0,113.0
758,237.46159528333337,237.84295078333335,63.0,117.0
759,237.97006928333334,238.07812000833334,44.0,110.0
760,238.47854328333335,238.71794979166668,53.0,82.0
761,238.47854328333335,239.0548138166667,57.0,104.0
762,238.98701728333336,239.40015240833335,53.0,89.0
763,239.49549128333337,239.68193175000002,53.0,106.0
764,238.47854328333335,239.7603214916667,41.0,99.0
765,239.49549128333337,240.04845675833334,57.0,115.0
766,240.00396528333334,240.1671006916667,53.0,106.0
767,239.49549128333337,240.4531173166667,65.0,106.0
768,240.51243928333335,240.82387960833336,57.0,89.0
769,240.51243928333335,241.20735375,62.0,104.0
770,241.02091328333336,241.3238790416667,57.0,85.0
771,240.51243928333335,241.67557355833335,50.0,104.0
772,241.52938728333336,241.73277688333334,57.0,106.0
773,241.52938728333336,242.01243758333337,62.0,109.0
774,242.03786128333334,242.16074250000003,57.0,96.0
775,241.52938728333336,242.37684395000002,65.0,101.0
776,242.54633528333335,243.1416735916667,58.0,77.0
777,242.54633528333335,243.15226680000004,62.0,99.0
778,242.54633528333335,243.1670972916667,55.0,91.0
779,243.05480928333336,243.64802895000003,50.0,43.0
780,243.56328328333336,243.92557100833335,58.0,117.0
781,242.54633528333335,244.05480815,43.0,99.0
782,243.56328328333336,244.0823504916667,62.0,109.0
783,244.58023128333335,245.14590860833334,67.0,104.0
784,244.58023128333335,245.16497638333337,62.0,106.0
785,244.58023128333335,245.167095025,58.0,110.0
786,245.08870528333335,245.4615862166667,55.0,42.0
787,244.58023128333335,245.9891279916667,43.0,91.0
788,245.59717928333336,246.4721782916667,58.0,117.0
789,246.10565328333337,246.49336470833336,55.0,76.0
790,245.59717928333336,246.5166697666667,62.0,104.0
791,246.61412728333335,246.85353379166668,53.0,82.0
792,246.61412728333335,247.1903978166667,57.0,104.0
793,247.12260128333335,247.53573640833335,53.0,89.0
794,247.63107528333336,247.81751575,53.0,106.0
795,246.61412728333335,247.8959054916667,41.0,99.0
796,247.63107528333336,248.18404075833337,57.0,115.0
797,248.13954928333337,248.30268469166668,53.0,106.0
798,247.63107528333336,248.5887013166667,65.0,106.0
799,248.64802328333334,248.95946360833335,57.0,89.0
800,248.64802328333334,249.34293775000003,62.0,104.0
801,249.15649728333335,249.45946304166668,57.0,85.0
802,248.64802328333334,249.81115755833335,50.0,104.0
803,249.66497128333336,249.86836088333337,57.0,106.0
804,249.66497128333336,250.14802158333336,62.0,109.0
805,250.17344528333336,250.29632650000002,57.0,96.0
806,249.66497128333336,250.51242795000002,65.0,101.0
807,250.63954645,251.50395225000003,50.0,87.0
808,250.62259731666668,251.73700283333335,65.0,91.0
809,250.74124125000003,251.77937566666668,69.0,67.0
810,250.5590380666667,251.78149430833335,62.0,82.0
811,252.71581528333334,253.31327223333335,58.0,79.0
812,252.71581528333334,253.32598408333337,62.0,89.0
813,252.71581528333334,253.51878047500003,55.0,82.0
814,253.22428928333335,253.7433564916667,50.0,16.0
815,253.73276328333336,253.88106820000002,58.0,107.0
816,253.73276328333336,254.1946271666667,62.0,104.0
817,254.74971128333337,255.20310060000003,67.0,99.0
818,254.74971128333337,255.23911750833335,62.0,101.0
819,254.74971128333337,255.253948,58.0,96.0
820,252.71581528333334,256.5484380583334,43.0,96.0
821,255.76665928333335,256.607760025,58.0,113.0
822,255.76665928333335,256.69250569166667,62.0,106.0
823,256.27513328333333,256.7242853166667,50.0,80.0
824,256.70309890000004,260.3916540416667,43.0,74.0
825,256.81962419166666,260.4191963833334,67.0,76.0
826,256.7073361833334,260.43190823333333,58.0,99.0
827,256.79208185000005,260.4403828,62.0,82.0
828,256.6183532333334,260.4425014416667,55.0,80.0
