,start,end,pitch,velocity
0,28.2306535875,28.498835137500002,63.0,56.0
1,28.5033805875,28.771562137500002,64.0,77.0
2,28.776107587500004,29.5897431375,66.0,94.0
3,29.594288587500003,29.8624701375,66.0,91.0
4,29.867015587500003,30.271560637500002,66.0,77.0
5,30.276106087500004,30.680651137500004,71.0,84.0
6,30.685196587500002,30.953378137500003,73.0,79.0
7,30.9579235875,32.9988306375,71.0,97.0
8,33.1397395875,33.544284637500006,70.0,105.0
9,33.5488300875,33.953375137500004,70.0,94.0
10,33.957920587500006,34.2261021375,71.0,98.0
11,34.2306475875,34.635192637500005,70.0,99.0
12,34.6397380875,34.9079196375,68.0,97.0
13,35.048828587500005,35.317010137500006,66.0,91.0
14,35.3215555875,37.3624626375,68.0,91.0
15,37.503371587500006,37.7715531375,64.0,90.0
16,37.9124620875,38.9988246375,64.0,87.0
17,38.8670065875,38.9988246375,64.0,91.0
18,39.139733587500004,39.407915137500005,66.0,92.0
19,39.4124605875,39.6806421375,68.0,87.0
20,39.6851875875,40.2260961375,66.0,96.0
21,40.2306415875,40.498823137500004,63.0,86.0
22,40.503368587500006,41.31700413750001,59.0,84.0
23,41.3215495875,41.5897311375,61.0,95.0
24,41.594276587500005,41.862458137500006,63.0,93.0
25,41.8670035875,42.5442756375,64.0,94.0
26,42.685184587500004,42.953366137500005,64.0,90.0
27,42.9579115875,43.3624566375,68.0,91.0
28,43.367002087500005,43.9079106375,71.0,89.0
29,43.7760925875,44.044274137500004,63.0,84.0
30,44.048819587500006,45.6806361375,61.0,63.0
31,45.685181587500004,45.953363137500006,63.0,96.0
32,45.9579085875,46.2260901375,64.0,83.0
33,46.230635587500004,46.63518063750001,66.0,97.0
34,46.6397260875,47.3169981375,66.0,98.0
35,47.3215435875,47.726088637500006,66.0,103.0
36,47.7306340875,48.1351791375,71.0,100.0
37,48.139724587500005,48.40790613750001,73.0,94.0
38,48.4124515875,50.044268137500005,71.0,103.0
39,50.04881358750001,50.3169951375,71.0,97.0
40,50.3215405875,50.589722137500004,73.0,87.0
41,50.594267587500006,51.40790313750001,75.0,94.0
42,51.4124485875,51.6806301375,70.0,83.0
43,51.685175587500005,52.0897206375,70.0,89.0
44,52.0942660875,52.7715381375,73.0,87.0
45,52.776083587500004,53.3169921375,71.0,96.0
46,53.3215375875,54.40790013750001,68.0,54.0
47,54.4124455875,54.680627137500004,68.0,90.0
48,54.685172587500006,54.95335413750001,70.0,86.0
49,54.9578995875,56.3169891375,71.0,95.0
50,56.321534587500004,56.589716137500005,71.0,98.0
51,56.59426158750001,56.8624431375,70.0,87.0
52,56.8669885875,57.135170137500005,68.0,67.0
53,57.13971558750001,57.680624137500004,66.0,86.0
54,57.685169587500006,57.95335113750001,70.0,92.0
55,57.9578965875,58.7715321375,71.0,92.0
56,58.776077587500005,59.044259137500006,68.0,98.0
57,59.0488045875,59.3169861375,70.0,87.0
58,59.321531587500004,59.589713137500006,71.0,74.0
59,59.59425858750001,59.8624401375,71.0,90.0
60,59.866985587500004,60.135167137500005,71.0,96.0
61,60.13971258750001,60.4078941375,71.0,93.0
62,60.4124395875,60.680621137500005,75.0,96.0
63,60.68516658750001,61.226075137500004,78.0,87.0
64,61.230620587500006,61.49880213750001,71.0,82.0
65,61.5033475875,62.589710137500006,73.0,68.0
66,62.59425558750001,62.8624371375,75.0,101.0
67,62.866982587500004,63.27152763750001,73.0,90.0
68,63.2760730875,63.680618137500005,71.0,86.0
69,63.68516358750001,64.4987991375,75.0,97.0
70,64.50334458750001,64.7715261375,75.0,108.0
71,64.7760715875,65.18061663750001,78.0,91.0
72,65.1851620875,65.5897071375,75.0,99.0
73,65.59425258750001,65.8624341375,73.0,91.0
74,65.86697958750001,66.9533421375,75.0,105.0
75,66.95788758750001,67.2260691375,75.0,93.0
76,67.2306145875,67.63515963750001,78.0,93.0
77,67.6397050875,68.0442501375,75.0,84.0
78,68.04879558750001,68.4533406375,80.0,103.0
79,68.4578860875,68.86243113750001,80.0,98.0
80,68.8669765875,69.1351581375,80.0,97.0
81,69.13970358750001,69.5442486375,78.0,106.0
82,69.5487940875,69.81697563750001,75.0,94.0
83,69.9578845875,70.08970263750001,73.0,94.0
84,70.23061158750001,70.9078836375,75.0,103.0
85,71.0487925875,71.31697413750001,68.0,84.0
86,71.3215195875,71.5897011375,75.0,95.0
87,71.59424658750001,71.9987916375,73.0,93.0
88,72.1397005875,72.40788213750001,75.0,98.0
89,72.4124275875,73.2260631375,68.0,89.0
90,73.2306085875,73.49879013750001,68.0,72.0
91,73.5033355875,73.9078806375,75.0,98.0
92,73.91242608750001,74.3169711375,73.0,90.0
93,74.3215165875,74.58969813750001,75.0,93.0
94,74.5942435875,75.6806061375,66.0,84.0
95,75.6851515875,76.08969663750001,75.0,101.0
96,76.0942420875,76.3624236375,73.0,97.0
97,76.36696908750001,76.7715141375,71.0,96.0
98,76.7760595875,77.18060463750001,76.0,77.0
99,77.1851500875,77.4533316375,76.0,99.0
100,77.59424058750001,77.8624221375,76.0,95.0
101,77.8669675875,78.40787613750001,76.0,96.0
102,78.4124215875,78.68514858750001,78.0,97.0
103,78.68514858750001,78.9533301375,75.0,94.0
104,78.95787558750001,79.2260571375,75.0,89.0
105,79.2306025875,80.0442381375,73.0,89.0
106,80.04878358750001,80.1806016375,75.0,101.0
107,80.3215105875,80.72605563750001,73.0,99.0
108,80.86696458750001,81.1351461375,71.0,96.0
109,81.13969158750001,82.2260541375,75.0,103.0
110,82.23059958750001,82.4987811375,78.0,92.0
111,82.50332658750001,82.90787163750001,75.0,100.0
112,83.0487805875,83.31696213750001,73.0,92.0
113,83.32150758750001,84.40787013750001,75.0,99.0
114,84.4124155875,84.8169606375,75.0,94.0
115,84.82150608750001,85.22605113750001,78.0,96.0
116,85.2305965875,85.49877813750001,75.0,87.0
117,85.5033235875,85.9078686375,80.0,105.0
118,85.91241408750001,86.3169591375,80.0,97.0
119,86.3215045875,86.58968613750001,80.0,98.0
120,86.5942315875,86.9987766375,78.0,96.0
121,87.00332208750001,87.4078671375,75.0,93.0
122,87.4124125875,87.68059413750001,73.0,90.0
123,87.6851395875,88.77150213750001,75.0,100.0
124,88.7760475875,89.04422913750001,75.0,106.0
125,89.0487745875,89.4533196375,73.0,101.0
126,89.59422858750001,89.8624101375,75.0,97.0
127,89.8669555875,90.9533181375,68.0,94.0
128,90.9578635875,91.36240863750001,75.0,105.0
129,91.3669540875,91.7714991375,73.0,97.0
130,91.77604458750001,92.0442261375,75.0,94.0
131,92.04877158750001,93.13967958750001,66.0,91.0
132,93.13967958750001,93.54422463750001,75.0,101.0
133,93.5487700875,93.95331513750001,73.0,91.0
134,93.95786058750001,94.2260421375,71.0,89.0
135,94.23058758750001,94.6351326375,76.0,98.0
136,94.6396780875,95.04422313750001,76.0,96.0
137,95.0487685875,95.3169501375,76.0,96.0
138,95.32149558750001,95.7260406375,78.0,99.0
139,95.7305860875,96.13513113750001,75.0,95.0
140,96.1396765875,96.6805851375,75.0,101.0
141,96.68513058750001,97.49876613750001,73.0,87.0
142,97.50331158750001,97.9078566375,75.0,103.0
143,97.91240208750001,98.31694713750001,73.0,101.0
144,98.3214925875,98.58967413750001,75.0,93.0
145,98.5942195875,99.40785513750001,73.0,90.0
146,99.4124005875,102.40785213750002,71.0,99.0
147,102.41239758750001,102.6805791375,63.0,56.0
148,102.68512458750001,102.95330613750001,64.0,77.0
149,102.9578515875,103.7714871375,66.0,94.0
150,103.77603258750001,104.0442141375,66.0,91.0
151,104.04875958750002,104.45330463750001,66.0,77.0
152,104.4578500875,104.8623951375,71.0,84.0
153,104.86694058750001,105.1351221375,73.0,79.0
154,105.13966758750001,107.18057463750002,71.0,97.0
155,107.32148358750001,107.5896651375,70.0,105.0
156,107.7305740875,107.99875563750001,70.0,94.0
157,108.13966458750001,108.4078461375,70.0,98.0
158,108.41239158750001,108.8169366375,70.0,99.0
159,108.8214820875,109.22602713750001,68.0,97.0
160,109.2305725875,109.6351176375,66.0,91.0
161,109.63966308750001,111.68057013750001,68.0,91.0
162,111.68511558750001,111.95329713750002,64.0,90.0
163,111.95784258750001,113.04420513750001,64.0,87.0
164,113.04875058750001,113.3169321375,64.0,91.0
165,113.32147758750001,113.5896591375,66.0,92.0
166,113.5942045875,113.86238613750001,68.0,87.0
167,113.8669315875,114.4078401375,66.0,96.0
168,114.41238558750001,114.6805671375,63.0,86.0
169,114.68511258750002,115.49874813750002,59.0,84.0
170,115.50329358750001,115.7714751375,61.0,95.0
171,115.77602058750001,116.04420213750001,63.0,93.0
172,116.0487475875,116.8623831375,64.0,94.0
173,116.86692858750001,117.1351101375,64.0,90.0
174,117.13965558750002,117.54420063750001,68.0,91.0
175,117.5487460875,117.9532911375,71.0,89.0
176,117.95783658750001,118.36238163750001,63.0,84.0
177,118.3669270875,119.99874363750001,61.0,63.0
178,120.00328908750001,120.13510713750001,63.0,96.0
179,120.13965258750001,120.4078341375,64.0,83.0
180,120.41237958750001,120.81692463750001,66.0,97.0
181,120.8214700875,121.4987421375,66.0,98.0
182,121.50328758750001,121.90783263750001,66.0,103.0
183,121.91237808750002,122.31692313750001,71.0,100.0
184,122.32146858750001,122.58965013750002,73.0,94.0
185,122.59419558750001,124.2260121375,71.0,103.0
186,124.23055758750002,124.49873913750001,71.0,97.0
187,124.5032845875,124.77146613750001,73.0,87.0
188,124.77601158750001,125.58964713750001,75.0,94.0
189,125.5941925875,125.86237413750001,70.0,83.0
190,125.8669195875,126.2714646375,70.0,89.0
191,126.27601008750001,126.68055513750001,73.0,87.0
192,126.68510058750002,127.22600913750001,71.0,96.0
193,127.23055458750001,128.58964413750002,68.0,88.0
194,128.5941895875,128.86237113750002,68.0,90.0
195,128.86691658750001,129.13964358750002,70.0,86.0
196,129.13964358750002,130.4987331375,71.0,95.0
197,130.5032785875,130.77146013750001,71.0,98.0
198,130.7760055875,131.04418713750002,70.0,87.0
199,131.0487325875,131.31691413750002,68.0,67.0
200,131.32145958750002,131.8623681375,66.0,86.0
201,131.86691358750002,132.1350951375,70.0,92.0
202,132.1396405875,132.9532761375,71.0,92.0
203,132.9578215875,133.22600313750002,68.0,98.0
204,133.2305485875,133.49873013750002,70.0,87.0
205,133.5032755875,133.77145713750002,71.0,74.0
206,133.77600258750002,134.0441841375,71.0,90.0
207,134.04872958750002,134.3169111375,71.0,96.0
208,134.32145658750002,134.5896381375,71.0,93.0
209,134.5941835875,134.99872863750002,75.0,96.0
210,135.00327408750002,135.5441826375,78.0,87.0
211,135.4123645875,135.68054613750002,71.0,82.0
212,135.6850915875,136.6350906375,73.0,85.0
213,136.77599958750002,137.18054463750002,75.0,101.0
214,137.18509008750001,137.5896351375,73.0,90.0
215,137.5941805875,137.8623621375,71.0,86.0
216,137.8669075875,138.68054313750002,75.0,97.0
217,138.68508858750002,138.9532701375,75.0,108.0
218,138.95781558750002,139.36236063750002,78.0,91.0
219,139.3669060875,139.7714511375,75.0,99.0
220,139.7759965875,140.0441781375,73.0,91.0
221,140.0487235875,141.13508613750002,75.0,105.0
222,141.13963158750002,141.4078131375,75.0,93.0
223,141.41235858750002,141.81690363750002,78.0,93.0
224,141.8214490875,142.2259941375,75.0,84.0
225,142.2305395875,142.6350846375,80.0,103.0
226,142.63963008750002,143.04417513750002,80.0,98.0
227,143.04872058750001,143.31690213750002,80.0,97.0
228,143.32144758750002,143.7259926375,78.0,106.0
229,143.7305380875,144.1350831375,75.0,94.0
230,144.1396285875,144.4078101375,73.0,94.0
231,144.4123555875,145.22599113750002,75.0,103.0
232,145.2305365875,145.49871813750002,68.0,84.0
233,145.50326358750002,145.9078086375,75.0,95.0
234,145.9123540875,146.3168991375,73.0,93.0
235,146.32144458750003,146.5896261375,75.0,98.0
236,146.5941715875,147.40780713750001,68.0,89.0
237,147.4123525875,147.68053413750002,68.0,72.0
238,147.6850795875,148.0896246375,75.0,98.0
239,148.0941700875,148.4987151375,73.0,90.0
240,148.50326058750002,148.7714421375,75.0,93.0
241,148.7759875875,149.86235013750002,66.0,84.0
242,149.8668955875,150.2714406375,75.0,101.0
243,150.2759860875,150.5441676375,73.0,97.0
244,150.5487130875,150.9532581375,71.0,96.0
245,150.95780358750002,151.36234863750002,76.0,77.0
246,151.36689408750001,151.7714391375,76.0,99.0
247,151.7759845875,152.0441661375,76.0,95.0
248,152.0487115875,152.58962013750002,76.0,96.0
249,152.59416558750002,152.86689258750002,78.0,97.0
250,152.86689258750002,153.27143763750001,75.0,94.0
251,153.2759830875,153.6805281375,75.0,89.0
252,153.5487100875,154.36689108750002,73.0,89.0
253,154.2305275875,154.49870913750001,75.0,101.0
254,154.63961808750003,155.04416313750002,73.0,99.0
255,155.04870858750002,155.31689013750002,71.0,96.0
256,155.32143558750002,156.4077981375,75.0,103.0
257,156.4123435875,156.8168886375,78.0,92.0
258,156.82143408750002,157.22597913750002,78.0,100.0
259,157.2305245875,157.6350696375,80.0,92.0
260,157.6396150875,158.5896141375,75.0,99.0
261,158.5941595875,158.99870463750003,75.0,94.0
262,159.00325008750002,159.40779513750002,78.0,96.0
263,159.4123405875,159.68052213750002,75.0,87.0
264,159.68506758750001,160.0896126375,80.0,105.0
265,160.0941580875,160.4987031375,80.0,97.0
266,160.50324858750002,160.7714301375,80.0,98.0
267,160.7759755875,161.18052063750002,78.0,96.0
268,161.18506608750002,161.58961113750001,75.0,93.0
269,161.5941565875,161.86233813750002,73.0,90.0
270,161.8668835875,162.9532461375,75.0,100.0
271,162.95779158750003,163.2259731375,75.0,106.0
272,163.36688208750002,163.63506363750002,73.0,101.0
273,163.7759725875,164.04415413750002,71.0,97.0
274,164.0486995875,165.1350621375,68.0,94.0
275,165.13960758750002,165.54415263750002,75.0,105.0
276,165.54869808750001,165.9532431375,73.0,97.0
277,165.9577885875,166.2259701375,75.0,94.0
278,166.2305155875,167.31687813750003,66.0,91.0
279,167.32142358750002,167.72596863750002,75.0,101.0
280,167.7305140875,168.1350591375,73.0,91.0
281,168.1396045875,168.4077861375,71.0,89.0
282,168.4123315875,168.8168766375,76.0,98.0
283,168.82142208750003,169.22596713750002,76.0,96.0
284,169.23051258750002,169.49869413750002,76.0,96.0
285,169.50323958750002,169.90778463750001,78.0,99.0
286,169.9123300875,170.3168751375,75.0,95.0
287,170.3214205875,170.8623291375,75.0,101.0
288,170.8668745875,171.68051013750002,73.0,87.0
289,171.68505558750002,172.0896006375,75.0,103.0
290,172.0941460875,172.4986911375,73.0,101.0
291,172.50323658750003,172.7714181375,75.0,93.0
292,172.7759635875,173.7259626375,73.0,90.0
293,173.73050808750003,176.0486875875,71.0,99.0
294,210.9577435875,211.36228863750003,75.0,101.0
295,211.36683408750002,211.77137913750002,73.0,90.0
296,211.77592458750001,212.04410613750002,71.0,86.0
297,212.04865158750002,212.8622871375,75.0,97.0
298,212.86683258750003,213.1350141375,75.0,108.0
299,213.1395595875,213.54410463750003,78.0,91.0
300,213.54865008750002,213.95319513750002,75.0,99.0
301,213.9577405875,214.22592213750002,73.0,91.0
302,214.23046758750002,215.18046663750002,75.0,105.0
303,215.32137558750003,215.72592063750002,75.0,93.0
304,215.73046608750002,216.13501113750002,78.0,93.0
305,216.1395565875,216.40773813750002,75.0,84.0
306,216.4122835875,216.8168286375,80.0,103.0
307,216.8213740875,217.22591913750003,80.0,98.0
308,217.23046458750002,217.4986461375,80.0,97.0
309,217.50319158750003,217.90773663750002,78.0,106.0
310,217.91228208750002,218.18046363750003,75.0,94.0
311,218.3213725875,218.58955413750002,73.0,94.0
312,218.5940995875,219.2713716375,75.0,103.0
313,219.41228058750002,219.68046213750003,68.0,84.0
314,219.68500758750002,220.08955263750002,75.0,95.0
315,220.09409808750002,220.36227963750002,73.0,93.0
316,220.5031885875,220.7713701375,75.0,98.0
317,220.7759155875,221.58955113750002,68.0,89.0
318,221.59409658750002,221.86227813750003,68.0,72.0
319,221.86682358750002,222.27136863750002,75.0,98.0
320,222.2759140875,222.6804591375,73.0,90.0
321,222.6850045875,222.9531861375,75.0,93.0
322,222.9577315875,224.04409413750002,66.0,84.0
323,224.04863958750002,224.45318463750002,75.0,101.0
324,224.4577300875,224.72591163750002,73.0,97.0
325,224.86682058750003,225.1350021375,71.0,96.0
326,225.1395475875,225.54409263750003,76.0,77.0
327,225.54863808750002,225.95318313750002,76.0,99.0
328,225.95772858750001,226.22591013750002,76.0,95.0
329,226.23045558750002,226.6350006375,76.0,96.0
330,226.6395460875,226.90772763750002,78.0,97.0
331,227.04863658750003,227.3168181375,75.0,94.0
332,227.32136358750003,227.5895451375,75.0,89.0
333,227.5940905875,228.5440896375,73.0,89.0
334,228.41227158750002,228.8168166375,75.0,101.0
335,228.8213620875,229.22590713750003,73.0,99.0
336,229.23045258750003,229.4986341375,71.0,96.0
337,229.50317958750003,230.58954213750002,75.0,103.0
338,230.5940875875,230.9986326375,78.0,92.0
339,231.00317808750003,231.40772313750003,78.0,100.0
340,231.41226858750002,231.68045013750003,80.0,92.0
341,231.68499558750003,232.77135813750002,75.0,99.0
342,232.7759035875,233.1804486375,75.0,94.0
343,233.18499408750003,233.58953913750003,78.0,96.0
344,233.59408458750002,233.86226613750003,75.0,87.0
345,233.86681158750002,234.27135663750002,80.0,105.0
346,234.27590208750001,234.6804471375,80.0,97.0
347,234.6849925875,234.9531741375,80.0,98.0
348,234.9577195875,235.3622646375,78.0,96.0
349,235.36681008750003,235.77135513750002,75.0,93.0
350,235.77590058750002,236.04408213750003,73.0,90.0
351,236.04862758750002,237.1349901375,75.0,100.0
352,237.1395355875,237.40771713750001,75.0,106.0
353,237.54862608750003,237.8168076375,73.0,101.0
354,237.95771658750002,238.22589813750002,75.0,97.0
355,238.23044358750002,239.3168061375,68.0,94.0
356,239.32135158750003,239.5895331375,75.0,105.0
357,239.73044208750002,240.13498713750002,73.0,97.0
358,240.1395325875,240.5440776375,75.0,94.0
359,240.41225958750002,241.4986221375,66.0,91.0
360,241.50316758750003,241.90771263750003,75.0,101.0
361,241.91225808750002,242.31680313750002,73.0,91.0
362,242.3213485875,242.58953013750002,71.0,89.0
363,242.59407558750001,242.9986206375,76.0,98.0
364,243.0031660875,243.40771113750003,76.0,96.0
365,243.41225658750002,243.68043813750003,76.0,96.0
366,243.68498358750003,244.2258921375,78.0,99.0
367,244.2304375875,244.63498263750003,75.0,95.0
368,244.63952808750003,245.04407313750002,75.0,101.0
369,245.04861858750002,245.86225413750003,73.0,87.0
370,245.86679958750003,246.27134463750002,75.0,103.0
371,246.27589008750002,246.6804351375,73.0,101.0
372,246.6849805875,247.08952563750003,75.0,93.0
373,246.9577075875,247.77134313750003,73.0,90.0
374,247.77588858750002,251.24520330000001,71.0,99.0
