,start,end,pitch,velocity
0,2.5943155875,2.7693154125,71.0,57.0
1,2.5943155875,3.002269725,47.0,57.0
2,2.8670425875000003,3.024996975,70.0,45.0
3,2.8670425875000003,3.1534059375,54.0,49.0
4,3.1397695875000005,3.3534057375,71.0,50.0
5,3.1397695875000005,3.5113601250000004,59.0,47.0
6,3.4124965875,3.7454508000000004,78.0,64.0
7,3.9579505875000005,4.1034049875,70.0,42.0
8,4.230677587500001,4.429541025000001,71.0,45.0
9,4.5034045875,4.7784043125,78.0,61.0
10,5.048858587500001,5.2545402,70.0,44.0
11,3.6852235875000003,5.306812875,63.0,56.0
12,5.3215855875,5.593176225000001,71.0,40.0
13,5.5943125875,5.674994325,78.0,72.0
14,6.1397665875000005,6.2079483375,87.0,70.0
15,3.4124965875,6.536357100000001,61.0,57.0
16,6.9579475875000005,7.143174675000001,71.0,55.0
17,6.9579475875000005,7.382947162500001,44.0,64.0
18,7.2306745875,7.3920380625,70.0,53.0
19,7.503401587500001,7.6909014,71.0,56.0
20,7.503401587500001,7.743174075000001,51.0,51.0
21,7.776128587500001,8.093173725,56.0,45.0
22,7.776128587500001,8.151128212500002,78.0,70.0
23,8.3215825875,8.464764262500001,70.0,39.0
24,8.594309587500002,8.7647639625,71.0,49.0
25,8.867036587500001,9.186354450000001,78.0,64.0
26,9.4124905875,9.584081325000001,70.0,36.0
27,9.6852175875,9.972717300000001,71.0,29.0
28,9.9579445875,10.064762662500002,78.0,73.0
29,10.230671587500002,10.677262050000001,61.0,38.0
30,10.503398587500001,10.718171100000001,90.0,48.0
31,9.139763587500001,10.7670346875,59.0,39.0
32,8.0488555875,10.8329437125,58.0,64.0
33,10.776125587500001,10.867034587500001,87.0,70.0
34,11.5943065875,11.7693064125,71.0,49.0
35,11.3215795875,12.035215237500001,52.0,67.0
36,11.867033587500002,12.176124187500001,75.0,56.0
37,12.139760587500001,12.412487587500001,76.0,70.0
38,12.6852145875,12.860214412500001,80.0,49.0
39,12.412487587500001,13.017032437500001,64.0,39.0
40,12.9579415875,13.132941412500001,75.0,49.0
41,11.5943065875,13.610213662500001,59.0,41.0
42,13.2306685875,13.611350025000002,76.0,66.0
43,13.776122587500002,13.88634975,71.0,46.0
44,14.048849587500001,14.234076675,73.0,49.0
45,14.321576587500001,14.4329401125,76.0,62.0
46,14.4579400875,14.829530625,75.0,35.0
47,14.8670305875,15.0420304125,92.0,49.0
48,13.503395587500002,15.076121287500001,52.0,47.0
49,14.8670305875,15.077257650000002,75.0,62.0
50,13.776122587500002,15.1738484625,59.0,45.0
51,15.139757587500002,15.292030162500001,73.0,56.0
52,15.139757587500002,15.3147574125,88.0,49.0
53,15.957938587500001,16.1329384125,66.0,49.0
54,15.685211587500001,16.152256575000003,42.0,57.0
55,15.957938587500001,16.224983775000002,49.0,44.0
56,16.230665587500003,16.405665412500003,71.0,49.0
57,16.230665587500003,16.556801625000002,54.0,42.0
58,16.503392587500002,16.678392412500003,73.0,49.0
59,17.0488465875,17.238619125,66.0,51.0
60,17.3215735875,17.4908916,71.0,48.0
61,17.5943005875,17.8579366875,73.0,58.0
62,17.8670275875,18.0420274125,76.0,49.0
63,16.776119587500002,18.0965728125,58.0,58.0
64,18.1397545875,18.269299912500003,68.0,49.0
65,16.503392587500002,18.5090724,56.0,64.0
66,18.4124815875,18.542026912500003,73.0,49.0
67,18.6852085875,18.814753912500002,70.0,49.0
68,18.9579355875,19.087480912500002,66.0,49.0
69,19.230662587500003,19.3602079125,64.0,49.0
70,19.503389587500003,19.6329349125,61.0,49.0
71,19.776116587500002,19.9056619125,58.0,49.0
72,20.048843587500002,20.1852070875,54.0,49.0
73,20.321570587500002,20.4579340875,52.0,49.0
74,20.5942975875,20.730661087500003,49.0,49.0
75,20.8670245875,21.003388087500003,46.0,49.0
76,21.1397515875,21.276115087500003,42.0,49.0
77,21.6852055875,21.821569087500002,37.0,49.0
78,22.6397500875,22.776113587500003,30.0,49.0
79,27.139745587500002,27.3124726875,64.0,72.0
80,27.4124725875,27.595426950000004,66.0,61.0
81,27.6851995875,28.18633545,61.0,62.0
82,28.776107587500004,29.312470687500003,66.0,70.0
83,28.776107587500004,29.314743412500004,63.0,63.0
84,28.776107587500004,29.337470662500003,71.0,73.0
85,29.321561587500003,30.299969700000002,59.0,50.0
86,29.867015587500003,30.465878625000002,66.0,64.0
87,29.867015587500003,30.5170149375,63.0,60.0
88,29.867015587500003,30.518151300000003,71.0,59.0
89,30.548833087500004,31.389741337500002,59.0,26.0
90,30.9579235875,31.557922987500003,66.0,70.0
91,30.9579235875,31.605650212500002,71.0,66.0
92,30.9579235875,31.629513825000004,63.0,66.0
93,31.5033775875,32.193149625000004,59.0,33.0
94,32.048831587500004,32.5636038,66.0,69.0
95,32.048831587500004,32.618149200000005,63.0,64.0
96,29.048834587500004,32.6283764625,54.0,44.0
97,28.776107587500004,32.6454219,47.0,70.0
98,32.048831587500004,32.661330975000006,71.0,66.0
99,32.5942855875,32.729512725,59.0,41.0
100,33.1397395875,33.679511775,70.0,63.0
101,33.1397395875,33.815875275,66.0,63.0
102,33.1397395875,33.832920712500005,61.0,63.0
103,33.1397395875,34.5761017875,58.0,69.0
104,34.2306475875,34.734056175,70.0,61.0
105,34.2306475875,34.748828887500004,66.0,63.0
106,34.2306475875,34.797692475000005,61.0,61.0
107,34.7761015875,34.885192387500005,58.0,47.0
108,33.1397395875,34.915874175000006,51.0,62.0
109,35.3215555875,35.913600450000004,66.0,67.0
110,35.3215555875,35.9647367625,63.0,62.0
111,35.3215555875,36.030645787500006,71.0,67.0
112,36.0033730875,36.6192815625,56.0,30.0
113,36.4124635875,36.902235825000005,68.0,60.0
114,36.4124635875,36.9817812,63.0,61.0
115,35.3215555875,37.011326625,44.0,66.0
116,36.4124635875,37.0181448,71.0,55.0
117,36.957917587500006,37.0999629,56.0,54.0
118,37.503371587500006,38.099961900000004,64.0,62.0
119,37.503371587500006,38.111325525000005,68.0,66.0
120,37.503371587500006,38.12268915000001,59.0,70.0
121,37.503371587500006,38.2010981625,71.0,48.0
122,38.048825587500005,38.64882498750001,56.0,37.0
123,38.594279587500004,38.88632475,68.0,62.0
124,38.594279587500004,38.8897338375,64.0,69.0
125,38.594279587500004,38.895415650000004,59.0,67.0
126,38.8670065875,39.213597150000005,56.0,47.0
127,37.503371587500006,39.264733462500004,52.0,59.0
128,39.139733587500004,39.334051575000004,59.0,61.0
129,39.4124605875,39.597687675,71.0,60.0
130,39.6851875875,40.1238235125,66.0,69.0
131,39.6851875875,40.267005187500004,63.0,70.0
132,39.6851875875,40.271550637500006,71.0,42.0
133,40.2306415875,40.91359545,54.0,25.0
134,40.7760955875,41.320413225,71.0,47.0
135,40.7760955875,41.368140450000006,59.0,51.0
136,39.6851875875,41.393140425000006,47.0,62.0
137,40.7760955875,41.398822237500006,63.0,69.0
138,40.7760955875,41.4101858625,66.0,69.0
139,41.320413225,41.447685825,54.0,57.0
140,41.8670035875,42.4420030125,68.0,66.0
141,41.8670035875,42.46813935,64.0,73.0
142,41.8670035875,42.493139325,59.0,69.0
143,42.4124575875,43.0124569875,56.0,31.0
144,42.9579115875,43.448820187500004,64.0,72.0
145,42.9579115875,43.4635929,59.0,70.0
146,42.9579115875,43.4715474375,68.0,69.0
147,41.8670035875,43.556774625,49.0,66.0
148,43.50336558750001,43.605638212500004,56.0,60.0
149,44.048819587500006,44.438591925000004,66.0,75.0
150,44.048819587500006,44.454501,70.0,75.0
151,44.048819587500006,44.5488190875,61.0,72.0
152,44.8670005875,45.196545712500004,61.0,57.0
153,44.594273587500005,45.411318225,54.0,46.0
154,45.139727587500005,45.4738181625,63.0,73.0
155,45.411318225,45.6181362,64.0,70.0
156,44.3215465875,45.7260906375,49.0,47.0
157,44.048819587500006,45.727227000000006,42.0,70.0
158,45.685181587500004,46.0374539625,66.0,75.0
159,45.685181587500004,46.122681150000005,54.0,48.0
160,45.9579085875,46.1579083875,73.0,60.0
161,46.230635587500004,46.630635187500005,75.0,69.0
162,46.230635587500004,46.652226075,71.0,73.0
163,46.230635587500004,46.6647260625,66.0,62.0
164,46.7760895875,47.35904355,59.0,53.0
165,47.048816587500006,47.565861525,61.0,57.0
166,47.3215435875,47.681770500000006,66.0,55.0
167,46.50336258750001,47.91245208750001,54.0,58.0
168,47.594270587500006,48.01927016250001,59.0,47.0
169,46.230635587500004,48.1306336875,47.0,72.0
170,47.8669975875,48.184042725000005,63.0,73.0
171,48.139724587500005,48.3238153125,54.0,31.0
172,48.139724587500005,48.36358800000001,66.0,58.0
173,48.4124515875,48.948814687500004,63.0,69.0
174,48.4124515875,49.09654181250001,71.0,72.0
175,48.9579055875,49.311314325000005,59.0,46.0
176,49.230632587500004,49.580632237500005,61.0,72.0
177,49.230632587500004,49.634041275,70.0,75.0
178,49.50335958750001,49.8601774125,59.0,45.0
179,48.685178587500005,49.87722285,54.0,63.0
180,49.776086587500004,50.151086212500005,71.0,73.0
181,50.04881358750001,50.165858925,54.0,56.0
182,49.776086587500004,50.165858925,66.0,70.0
183,49.776086587500004,50.17722255,63.0,73.0
184,48.4124515875,50.1919952625,47.0,66.0
185,50.594267587500006,50.928358162500004,70.0,69.0
186,50.594267587500006,50.934039975000005,61.0,72.0
187,50.594267587500006,50.94994905,66.0,80.0
188,51.139721587500006,51.360175912500004,61.0,50.0
189,51.4124485875,51.53176665,66.0,63.0
190,50.8669945875,51.778357312500006,58.0,64.0
191,51.685175587500005,52.01358435,67.0,101.0
192,51.685175587500005,52.043129775000004,63.0,69.0
193,51.685175587500005,52.07153883750001,70.0,72.0
194,51.9579025875,52.148811487500005,58.0,64.0
195,50.594267587500006,52.1829023625,51.0,76.0
196,52.230629587500005,52.4079021375,68.0,51.0
197,52.5033565875,52.719265462500005,70.0,59.0
198,52.776083587500004,53.2965376125,44.0,61.0
199,53.04881058750001,53.32494667500001,51.0,62.0
200,53.3215375875,53.6851735875,56.0,49.0
201,52.776083587500004,53.845400700000006,66.0,62.0
202,52.776083587500004,53.8919915625,63.0,67.0
203,52.776083587500004,53.895400650000006,71.0,70.0
204,53.59426458750001,54.161309475,58.0,62.0
205,53.8669915875,54.1942639875,59.0,64.0
206,54.139718587500006,54.328354762500005,63.0,67.0
207,54.4124455875,54.7328998125,66.0,70.0
208,54.685172587500006,54.85903605000001,71.0,66.0
209,54.9578995875,55.5078990375,68.0,78.0
210,54.9578995875,55.5090354,71.0,76.0
211,54.9578995875,55.54085355,64.0,78.0
212,54.9578995875,55.54880808750001,52.0,76.0
213,55.776080587500005,56.202216525000004,52.0,47.0
214,56.04880758750001,56.440852650000004,59.0,88.0
215,56.04880758750001,56.44994355000001,64.0,88.0
216,56.04880758750001,56.459034450000004,68.0,78.0
217,54.9578995875,56.547670725,40.0,75.0
218,56.321534587500004,56.60448885,52.0,55.0
219,56.59426158750001,56.789715937500006,59.0,63.0
220,56.8669885875,57.03289751250001,66.0,60.0
221,57.13971558750001,57.76585132500001,54.0,78.0
222,57.13971558750001,57.974942025000004,71.0,72.0
223,57.13971558750001,57.9897147375,63.0,88.0
224,57.13971558750001,57.99085110000001,66.0,75.0
225,57.9578965875,58.437441562500005,54.0,42.0
226,58.230623587500006,58.851077512500005,63.0,75.0
227,58.230623587500006,58.86244113750001,66.0,75.0
228,58.230623587500006,58.864713862500004,71.0,76.0
229,57.13971558750001,58.897668375,42.0,72.0
230,58.776077587500005,58.902213825000004,54.0,69.0
231,59.321531587500004,60.1874398125,68.0,78.0
232,59.321531587500004,60.21357615,71.0,73.0
233,59.321531587500004,60.21471251250001,63.0,75.0
234,59.321531587500004,60.656757525,56.0,69.0
235,60.4124395875,61.05902985,66.0,78.0
236,60.4124395875,61.076075287500004,63.0,76.0
237,60.4124395875,61.088575275000004,71.0,73.0
238,60.9578935875,61.09084800000001,56.0,78.0
239,59.321531587500004,61.09539345,44.0,70.0
240,61.5033475875,61.98061983750001,54.0,85.0
241,61.5033475875,62.014710712500005,70.0,78.0
242,61.5033475875,62.2488013875,66.0,93.0
243,61.5033475875,62.320392225000006,61.0,82.0
244,62.321528587500005,62.661300975,54.0,85.0
245,62.59425558750001,62.836300800000004,59.0,95.0
246,62.59425558750001,62.9124370875,68.0,93.0
247,62.59425558750001,62.95902795000001,64.0,99.0
248,62.866982587500004,63.148800487500004,54.0,60.0
249,63.13970958750001,63.28970943750001,70.0,78.0
250,63.13970958750001,63.30220942500001,61.0,95.0
251,63.13970958750001,63.322663950000006,66.0,95.0
252,61.5033475875,63.355618462500004,42.0,61.0
253,63.412436587500004,63.606754575000004,54.0,85.0
254,63.68516358750001,64.1362995,66.0,99.0
255,63.68516358750001,64.1487994875,71.0,88.0
256,63.68516358750001,64.1544813,63.0,97.0
257,64.50334458750001,64.68061713750001,63.0,76.0
258,64.2306175875,64.7965261125,59.0,78.0
259,64.7760715875,65.0715258375,66.0,93.0
260,63.9578905875,65.24425293750001,54.0,70.0
261,65.0487985875,65.365843725,59.0,70.0
262,65.3215255875,65.5283435625,63.0,85.0
263,63.68516358750001,65.615843475,47.0,78.0
264,65.3215255875,65.7147070125,71.0,70.0
265,65.59425258750001,65.729479725,54.0,64.0
266,65.86697958750001,66.2351610375,70.0,97.0
267,65.86697958750001,66.24425193750001,61.0,91.0
268,66.4124335875,66.5487970875,61.0,63.0
269,66.1397065875,66.761296875,58.0,60.0
270,66.68516058750001,67.1726601,61.0,85.0
271,66.68516058750001,67.18288736250001,66.0,101.0
272,65.86697958750001,67.52379611250001,51.0,69.0
273,67.2306145875,67.54993245,58.0,64.0
274,67.5033415875,67.574932425,61.0,51.0
275,67.5033415875,67.7033413875,63.0,56.0
276,67.7760685875,67.91811390000001,66.0,78.0
277,68.047659225,68.50447695000001,40.0,67.0
278,68.3215225875,68.584022325,47.0,69.0
279,68.5942495875,68.89538565000001,52.0,58.0
280,68.047659225,68.94311287500001,59.0,80.0
281,68.047659225,69.09311272500001,64.0,82.0
282,68.047659225,69.09879453750001,68.0,75.0
283,69.41243058750001,69.5715213375,59.0,82.0
284,69.13970358750001,69.665839425,56.0,66.0
285,68.8669765875,69.702203025,54.0,62.0
286,69.6851575875,70.006748175,64.0,91.0
287,69.9578845875,70.1487934875,71.0,72.0
288,70.229475225,70.7181111,71.0,76.0
289,70.229475225,70.76811105,66.0,82.0
290,70.229475225,70.76924741250001,63.0,78.0
291,70.229475225,70.89765637500001,47.0,69.0
292,70.7760655875,70.943110875,59.0,67.0
293,70.50333858750001,70.9737926625,54.0,57.0
294,71.0487925875,71.25333783750001,71.0,72.0
295,71.3215195875,71.75901915,61.0,72.0
296,71.3215195875,71.79424638750001,66.0,75.0
297,71.3215195875,71.820382725,70.0,76.0
298,71.8669735875,71.98629165000001,58.0,64.0
299,71.59424658750001,71.9874280125,54.0,66.0
300,71.3215195875,71.9919734625,46.0,69.0
301,72.1397005875,72.28629135,71.0,67.0
302,72.4124275875,72.9192452625,63.0,76.0
303,72.68515458750001,72.93856342500001,51.0,42.0
304,72.4124275875,72.9624270375,44.0,75.0
305,72.95788158750001,73.3033357875,56.0,54.0
306,72.4124275875,73.5419719125,71.0,70.0
307,72.4124275875,73.54651736250001,68.0,69.0
308,73.77606258750001,73.8828806625,71.0,57.0
309,73.77606258750001,73.9578805875,63.0,72.0
310,73.2306085875,73.95901695,58.0,88.0
311,73.5033355875,73.95901695,59.0,75.0
312,74.04878958750001,74.284016625,66.0,70.0
313,74.3215165875,74.6692435125,71.0,72.0
314,74.5942435875,75.0544704,61.0,72.0
315,74.5942435875,75.0601522125,66.0,75.0
316,74.5942435875,75.17265210000001,42.0,70.0
317,74.5942435875,75.21356115,70.0,69.0
318,74.8669705875,75.21469751250001,49.0,69.0
319,75.13969758750001,75.4306063875,54.0,58.0
320,75.41242458750001,75.6328789125,61.0,75.0
321,75.41242458750001,75.79196966250001,66.0,88.0
322,75.6851515875,76.0851511875,54.0,45.0
323,75.9578785875,76.30560551250001,59.0,91.0
324,75.9578785875,76.3487872875,68.0,97.0
325,76.23060558750001,76.36356,54.0,69.0
326,75.9578785875,76.39424178750001,64.0,97.0
327,75.6851515875,76.4510599125,42.0,55.0
328,76.50333258750001,76.64424153750001,59.0,69.0
329,76.7760595875,77.25787728750001,59.0,85.0
330,76.7760595875,77.270377275,68.0,82.0
331,76.7760595875,77.329468125,64.0,95.0
332,77.59424058750001,77.76128587500001,59.0,62.0
333,77.32151358750001,77.9453766,49.0,59.0
334,76.7760595875,78.19083090000001,37.0,78.0
335,77.8669675875,78.1919672625,68.0,72.0
336,77.8669675875,78.21923996250001,64.0,85.0
337,77.8669675875,78.22151268750001,59.0,88.0
338,78.1396945875,78.4362852,49.0,62.0
339,78.4124215875,78.570375975,59.0,76.0
340,78.68514858750001,78.784012125,64.0,76.0
341,78.95787558750001,79.502193225,58.0,69.0
342,78.95787558750001,79.502193225,61.0,93.0
343,78.95787558750001,79.5306022875,66.0,49.0
344,79.77605658750001,79.947647325,58.0,75.0
345,80.04878358750001,80.22264705,59.0,82.0
346,79.502193225,80.415828675,54.0,73.0
347,80.3215105875,80.424919575,61.0,85.0
348,78.95787558750001,80.64991935,42.0,64.0
349,79.2306025875,80.6556011625,49.0,59.0
350,80.5942375875,80.76469196250001,64.0,91.0
351,80.5942375875,80.82832826250001,54.0,51.0
352,80.86696458750001,81.0306007875,66.0,70.0
353,81.13969158750001,81.579463875,63.0,78.0
354,81.13969158750001,81.60332748750001,66.0,75.0
355,81.9578725875,82.06696338750001,61.0,80.0
356,81.9578725875,82.08400882500001,66.0,85.0
357,81.4124185875,82.22491777500001,54.0,73.0
358,82.23059958750001,82.41355395000001,61.0,75.0
359,81.6851455875,82.456735725,59.0,82.0
360,82.23059958750001,82.5215083875,66.0,93.0
361,81.13969158750001,82.63400827500001,47.0,73.0
362,82.6396900875,82.6715082375,66.0,64.0
363,82.36696308750001,82.81355355000001,54.0,45.0
364,82.6396900875,82.8987807375,63.0,91.0
365,82.6396900875,82.9783261125,70.0,97.0
366,82.7760535875,82.9817352,46.0,66.0
367,83.0487805875,83.24991675000001,70.0,73.0
368,83.32150758750001,83.58855277500001,39.0,70.0
369,83.59423458750001,83.92491607500001,51.0,69.0
370,83.32150758750001,84.06582502500001,61.0,75.0
371,83.32150758750001,84.1453704,70.0,78.0
372,83.32150758750001,84.19423398750001,66.0,80.0
373,84.4124155875,84.60218812500001,61.0,88.0
374,84.1396885875,84.7510516125,58.0,75.0
375,83.8669615875,85.04309677500001,54.0,44.0
376,84.95786958750001,85.06014221250001,58.0,85.0
377,84.68514258750001,85.09536945,66.0,91.0
378,85.2305965875,85.2805965375,71.0,45.0
379,85.2305965875,85.35673282500001,68.0,44.0
380,85.5033235875,86.074913925,64.0,97.0
381,85.5033235875,86.10900480000001,68.0,93.0
382,85.5033235875,86.1192320625,59.0,97.0
383,86.3215045875,86.49877713750001,59.0,78.0
384,86.04877758750001,86.58741341250001,52.0,75.0
385,86.5942315875,86.75900415000001,64.0,72.0
386,86.86695858750001,87.1999128,59.0,95.0
387,85.5033235875,87.20104916250001,40.0,72.0
388,85.77605058750001,87.21468551250001,47.0,75.0
389,86.86695858750001,87.315821775,66.0,93.0
390,87.13968558750001,87.4817307,52.0,58.0
391,87.4124125875,87.5544579,61.0,61.0
392,87.6851395875,88.23172995,71.0,75.0
393,87.6851395875,88.32491167500001,66.0,70.0
394,87.6851395875,88.33059348750001,63.0,76.0
395,88.50332058750001,88.61127502500001,71.0,64.0
396,88.50332058750001,88.7896839375,63.0,64.0
397,88.50332058750001,88.9124110875,66.0,66.0
398,88.23059358750001,89.01582007500001,59.0,62.0
399,87.6851395875,89.2146835125,47.0,73.0
400,89.0487745875,89.24422893750001,63.0,80.0
401,87.9578665875,89.2760470875,54.0,66.0
402,89.0487745875,89.2874107125,68.0,80.0
403,89.32150158750001,89.36127427500001,54.0,39.0
404,89.32150158750001,89.59081950000001,61.0,82.0
405,89.32150158750001,89.67491032500001,66.0,75.0
406,89.32150158750001,89.70445575000001,70.0,72.0
407,89.32150158750001,89.84877378750001,46.0,82.0
408,89.8669555875,90.35672782500001,44.0,66.0
409,89.8669555875,90.35900055,63.0,88.0
410,90.1396825875,90.42150048750001,51.0,56.0
411,90.41240958750001,90.76240923750001,56.0,53.0
412,89.8669555875,90.9533181375,71.0,80.0
413,89.8669555875,90.97377266250001,66.0,75.0
414,90.68513658750001,91.37149953750001,58.0,61.0
415,90.9578635875,91.39309042500001,59.0,67.0
416,91.2305905875,91.40672677500001,63.0,76.0
417,91.5033175875,91.56013571250001,63.0,43.0
418,91.5033175875,91.7305900875,66.0,78.0
419,91.77604458750001,91.97945347500001,71.0,72.0
420,92.04877158750001,92.4828620625,61.0,85.0
421,92.04877158750001,92.57263470000001,66.0,91.0
422,92.04877158750001,92.58968013750001,70.0,73.0
423,92.86695258750001,93.05104331250001,61.0,63.0
424,93.13967958750001,93.46922471250001,64.0,91.0
425,92.5942255875,93.5351337375,54.0,62.0
426,93.4124065875,93.6078609375,66.0,91.0
427,92.04877158750001,93.8601334125,42.0,75.0
428,92.3214985875,93.87263340000001,49.0,63.0
429,93.6851335875,93.906724275,68.0,85.0
430,93.95786058750001,94.0714968375,70.0,78.0
431,94.23058758750001,94.7089962,66.0,91.0
432,94.23058758750001,94.87717785000001,71.0,75.0
433,94.7760415875,95.12945032500001,52.0,70.0
434,94.50331458750001,95.4146773125,47.0,75.0
435,95.0487685875,95.4624045375,68.0,82.0
436,95.0487685875,95.54081355000001,59.0,97.0
437,95.0487685875,95.6919497625,64.0,95.0
438,95.59422258750001,95.85444960000001,52.0,88.0
439,95.59422258750001,96.024903975,47.0,33.0
440,95.8669495875,96.06013121250001,59.0,88.0
441,94.23058758750001,96.247631025,40.0,69.0
442,96.1396765875,96.261267375,47.0,47.0
443,96.1396765875,96.3192218625,52.0,85.0
444,95.8669495875,96.3305854875,64.0,95.0
445,96.41240358750001,96.89081220000001,66.0,95.0
446,96.41240358750001,97.002175725,61.0,85.0
447,96.9578575875,97.2419482125,54.0,80.0
448,97.2305845875,97.65899325000001,59.0,82.0
449,97.2305845875,97.83172035000001,64.0,85.0
450,96.68513058750001,98.0328565125,49.0,63.0
451,96.41240358750001,98.03626560000001,42.0,70.0
452,97.77603858750001,98.165810925,54.0,64.0
453,98.04876558750001,98.31240168750001,59.0,78.0
454,98.04876558750001,98.31467441250001,64.0,82.0
455,98.3214925875,98.52490147500001,66.0,72.0
456,98.5942195875,98.8714920375,66.0,64.0
457,98.5942195875,99.16921901250001,61.0,82.0
458,98.5942195875,99.193082625,63.0,88.0
459,99.4124005875,99.6124003875,61.0,82.0
460,99.6851275875,99.870354675,63.0,69.0
461,99.95785458750001,100.07830901250001,64.0,70.0
462,100.23058158750001,100.3453542,66.0,73.0
463,99.13967358750001,100.37489962500001,59.0,58.0
464,100.23058158750001,100.42489957500001,71.0,66.0
465,100.5033085875,100.7283083625,73.0,59.0
466,100.7760355875,101.35898955,66.0,73.0
467,100.7760355875,101.35898955,75.0,72.0
468,100.7760355875,101.41921676250001,71.0,76.0
469,100.7760355875,101.7033073875,59.0,60.0
470,101.59421658750001,101.870352675,66.0,44.0
471,101.7305800875,101.9805798375,71.0,62.0
472,101.8669435875,102.0089889,78.0,66.0
473,102.1396705875,102.37717035000001,76.0,58.0
474,102.41239758750001,102.5635338,75.0,59.0
475,98.86694658750001,102.6828518625,54.0,72.0
476,98.5942195875,102.72035182500001,47.0,76.0
477,102.9578515875,103.46012381250002,75.0,64.0
478,102.68512458750001,103.59535095000001,71.0,61.0
479,102.9578515875,103.61694183750001,66.0,57.0
480,103.77603258750001,104.32035022500001,59.0,34.0
481,104.04875958750002,104.51125912500001,71.0,76.0
482,104.04875958750002,104.51353185,75.0,70.0
483,104.04875958750002,104.5964863125,66.0,70.0
484,102.9578515875,104.90444055,47.0,72.0
485,104.59421358750001,105.0487585875,59.0,44.0
486,105.13966758750001,105.793076025,59.0,34.0
487,105.13966758750001,105.93853042500001,71.0,73.0
488,105.13966758750001,105.94193951250001,66.0,76.0
489,105.13966758750001,105.956712225,63.0,75.0
490,105.956712225,106.52943892500001,59.0,38.0
491,106.23057558750001,106.88852947500001,66.0,80.0
492,106.23057558750001,106.90443855000001,63.0,78.0
493,106.23057558750001,106.90443855000001,71.0,73.0
494,106.7760295875,106.92262035,59.0,57.0
495,105.13966758750001,106.93852942500001,47.0,62.0
496,107.32148358750001,108.083982825,70.0,64.0
497,107.32148358750001,108.12375551250001,61.0,76.0
498,107.32148358750001,108.14534640000001,66.0,78.0
499,107.32148358750001,108.811254825,51.0,70.0
500,108.41239158750001,108.952163775,70.0,73.0
501,108.41239158750001,109.06011821250002,66.0,75.0
502,108.41239158750001,109.07261820000001,63.0,75.0
503,108.9578455875,109.11466361250001,51.0,67.0
504,109.50329958750001,110.2737533625,68.0,76.0
505,109.50329958750001,110.29534425000001,71.0,73.0
506,109.50329958750001,110.315798775,63.0,73.0
507,109.50329958750001,110.83170735,56.0,59.0
508,110.59420758750001,111.15216157500001,71.0,78.0
509,110.59420758750001,111.16125247500001,68.0,78.0
510,110.59420758750001,111.18284336250001,63.0,80.0
511,111.13966158750002,111.2601160125,56.0,72.0
512,109.50329958750001,111.2873887125,44.0,67.0
513,111.68511558750001,112.53170565,68.0,76.0
514,111.68511558750001,112.55443290000001,64.0,95.0
515,111.68511558750001,112.60556921250001,59.0,82.0
516,111.68511558750001,113.0555687625,52.0,69.0
517,111.68511558750001,113.38284116250001,40.0,72.0
518,112.7760235875,113.41806840000001,59.0,76.0
519,112.7760235875,113.4646592625,64.0,91.0
520,112.7760235875,113.48170470000001,68.0,80.0
521,113.32147758750001,113.4998865,52.0,63.0
522,113.8669315875,114.67033987500001,71.0,80.0
523,113.8669315875,114.7055671125,66.0,78.0
524,113.8669315875,114.72033982500001,63.0,85.0
525,113.8669315875,115.25102111250001,42.0,73.0
526,114.9578395875,115.5635208,71.0,76.0
527,114.9578395875,115.5851116875,63.0,80.0
528,114.9578395875,115.5964753125,66.0,76.0
529,115.50329358750001,115.665793425,42.0,72.0
530,116.0487475875,116.89988310000001,61.0,72.0
531,116.0487475875,116.89988310000001,71.0,54.0
532,116.0487475875,116.90783763750001,64.0,85.0
533,116.0487475875,116.92033762500002,68.0,72.0
534,116.0487475875,117.44988255000001,49.0,67.0
535,117.13965558750002,117.6487459875,71.0,63.0
536,117.13965558750002,117.7760185875,61.0,76.0
537,117.13965558750002,117.78510948750001,64.0,85.0
538,117.13965558750002,117.78624585000001,68.0,58.0
539,117.68510958750001,117.8260185375,49.0,63.0
540,118.23056358750001,118.63169955000001,54.0,61.0
541,118.23056358750001,118.80669937500001,70.0,73.0
542,118.23056358750001,118.84874478750001,61.0,85.0
543,118.23056358750001,118.85442660000001,66.0,91.0
544,118.77601758750001,119.07374456250001,54.0,51.0
545,119.04874458750001,119.3669260875,59.0,80.0
546,119.04874458750001,119.433971475,68.0,78.0
547,119.04874458750001,119.46010781250001,64.0,88.0
548,119.32147158750001,119.59306222500001,54.0,48.0
549,119.59306222500001,119.92147098750002,70.0,80.0
550,119.59306222500001,119.97828911250001,66.0,73.0
551,119.59306222500001,119.99760727500001,61.0,88.0
552,118.23056358750001,120.0328345125,42.0,75.0
553,119.8669255875,120.03737996250001,54.0,59.0
554,120.13965258750001,120.24078885000002,46.0,78.0
555,120.41237958750001,120.93737906250001,66.0,85.0
556,120.41237958750001,120.94192451250001,71.0,80.0
557,120.41237958750001,120.95896995000001,63.0,82.0
558,121.23056058750001,121.61237838750002,63.0,64.0
559,120.9578335875,121.8101054625,59.0,62.0
560,121.77601458750001,122.1464687625,63.0,73.0
561,121.50328758750001,122.1601051125,66.0,66.0
562,121.77601458750001,122.165786925,71.0,80.0
563,122.0487415875,122.2601050125,59.0,61.0
564,120.41237958750001,122.34078675,47.0,76.0
565,120.68510658750002,122.39419578750001,54.0,67.0
566,122.32146858750001,122.39533215000002,71.0,53.0
567,122.32146858750001,122.44078665,63.0,60.0
568,122.59419558750001,122.94646796250001,63.0,80.0
569,122.59419558750001,123.08055873750001,71.0,93.0
570,123.1396495875,123.2396494875,66.0,49.0
571,123.2760130875,123.4373765625,58.0,44.0
572,123.2760130875,123.45896745,59.0,44.0
573,123.4123765875,123.7646489625,71.0,80.0
574,123.4123765875,123.79419438750001,63.0,91.0
575,123.4123765875,123.79873983750001,66.0,95.0
576,123.68510358750001,124.01919416250001,59.0,69.0
577,123.95783058750001,124.12487587500001,63.0,72.0
578,122.59419558750001,124.29078480000001,47.0,61.0
579,122.86692258750001,124.3260120375,54.0,59.0
580,124.23055758750002,124.3896483375,66.0,80.0
581,124.5032845875,124.67373896250001,71.0,72.0
582,124.77601158750001,125.08737491250001,39.0,72.0
583,125.04873858750001,125.39646551250001,51.0,57.0
584,124.77601158750001,125.5691926125,61.0,88.0
585,124.77601158750001,125.62032892500001,70.0,85.0
586,124.77601158750001,125.66010161250001,66.0,93.0
587,125.8669195875,126.03396487500001,63.0,82.0
588,125.5941925875,126.24532830000001,58.0,62.0
589,125.32146558750001,126.302146425,54.0,49.0
590,126.13964658750001,126.31123732500001,66.0,95.0
591,126.41237358750001,126.6271461,68.0,78.0
592,126.68510058750002,126.89305492500002,70.0,64.0
593,126.9578275875,127.45669072500002,63.0,72.0
594,126.9578275875,127.529417925,71.0,80.0
595,126.9578275875,127.57714515,66.0,73.0
596,127.77600858750002,127.93623570000001,63.0,63.0
597,127.50328158750001,128.0544174,56.0,58.0
598,128.0487355875,128.35214437500002,63.0,88.0
599,128.0487355875,128.4214624875,70.0,93.0
600,127.23055458750001,128.5214623875,51.0,64.0
601,128.18509908750002,128.570325975,56.0,44.0
602,128.45782608750002,128.68964403750002,71.0,62.0
603,128.5941895875,128.7214621875,63.0,80.0
604,126.9578275875,128.902143825,44.0,75.0
605,128.86691658750001,128.9600983125,51.0,64.0
606,128.86691658750001,129.01691643750002,66.0,54.0
607,129.13964358750002,129.6487339875,68.0,78.0
608,129.13964358750002,129.73964298750002,64.0,93.0
609,129.13964358750002,129.7828247625,59.0,80.0
610,129.9578245875,130.16691528750002,59.0,75.0
611,130.2305515875,130.415778675,59.0,70.0
612,130.2305515875,130.4737331625,64.0,78.0
613,130.5032785875,130.53964218750002,64.0,47.0
614,129.6850975875,130.593051225,52.0,69.0
615,130.5032785875,130.85896005,66.0,91.0
616,130.5032785875,130.8873691125,59.0,78.0
617,129.13964358750002,130.91691453750002,40.0,75.0
618,129.41237058750002,130.96123267500002,47.0,64.0
619,130.7760055875,131.0237326125,52.0,51.0
620,131.0487325875,131.193050625,66.0,63.0
621,131.32145958750002,131.9362317,42.0,72.0
622,131.59418658750002,131.970322575,51.0,64.0
623,131.32145958750002,131.97145893750002,71.0,80.0
624,131.32145958750002,131.99418618750002,63.0,91.0
625,131.32145958750002,132.01123162500002,66.0,85.0
626,132.1396405875,132.297594975,66.0,72.0
627,132.1396405875,132.53168565000001,63.0,91.0
628,131.86691358750002,132.756685425,54.0,55.0
629,132.6850945875,133.0180488,71.0,75.0
630,132.6850945875,133.0362306,66.0,95.0
631,132.6850945875,133.03736696250002,63.0,91.0
632,132.4123675875,133.20554861250002,42.0,49.0
633,132.9578215875,133.2782758125,54.0,67.0
634,133.2305485875,133.35554846250002,66.0,67.0
635,133.5032755875,133.89304792500002,71.0,69.0
636,133.5032755875,134.029411425,63.0,78.0
637,133.5032755875,134.1305476875,68.0,97.0
638,134.32145658750002,134.36463836250002,71.0,49.0
639,134.32145658750002,134.45895645000002,63.0,60.0
640,134.04872958750002,134.59759267500002,56.0,72.0
641,134.5941835875,134.85327423750002,63.0,91.0
642,134.5941835875,134.874865125,66.0,99.0
643,134.5941835875,134.8782742125,71.0,73.0
644,134.8669105875,135.1078194375,56.0,45.0
645,133.77600258750002,135.1623648375,51.0,72.0
646,135.00327408750002,135.3782737125,70.0,82.0
647,135.27600108750002,135.379410075,56.0,70.0
648,135.00327408750002,135.379410075,61.0,76.0
649,135.27600108750002,135.3964555125,51.0,55.0
650,133.5032755875,135.44759182500002,44.0,73.0
651,135.6850915875,135.8100914625,54.0,91.0
652,135.6850915875,135.999864,61.0,93.0
653,135.6850915875,136.00895490000002,66.0,99.0
654,135.6850915875,136.0180458,70.0,97.0
655,135.95781858750001,136.11463661250002,54.0,75.0
656,135.6850915875,136.1271366,42.0,70.0
657,136.50327258750002,136.59645431250001,64.0,41.0
658,136.77599958750002,137.00327208750002,59.0,95.0
659,136.77599958750002,137.0737265625,52.0,88.0
660,136.77599958750002,137.0737265625,64.0,99.0
661,136.77599958750002,137.0896356375,40.0,70.0
662,136.77599958750002,137.0941810875,68.0,101.0
663,137.18509008750001,137.4214534875,70.0,82.0
664,137.18509008750001,137.4259989375,61.0,95.0
665,137.18509008750001,137.454408,66.0,75.0
666,137.18509008750001,137.55895335000002,42.0,80.0
667,137.5941805875,137.7009986625,44.0,75.0
668,137.5941805875,137.720316825,71.0,82.0
669,137.5941805875,137.72486227500002,63.0,80.0
670,137.5941805875,137.756680425,66.0,73.0
671,137.8669075875,138.3100889625,63.0,85.0
672,137.8669075875,138.3169071375,66.0,95.0
673,137.8669075875,138.3214525875,47.0,85.0
674,137.8669075875,138.32940712500002,71.0,82.0
675,138.1396345875,138.4146343125,54.0,53.0
676,138.41236158750002,138.743043075,59.0,80.0
677,138.68508858750002,138.80667937500002,71.0,97.0
678,138.68508858750002,138.811224825,66.0,91.0
679,138.68508858750002,138.811224825,78.0,80.0
680,138.95781558750002,139.18508808750002,78.0,85.0
681,139.0941790875,139.1919062625,63.0,78.0
682,138.95781558750002,139.220315325,66.0,97.0
683,138.95781558750002,139.2362244,71.0,106.0
684,138.68508858750002,139.27372436250002,61.0,63.0
685,139.3669060875,139.5714513375,66.0,82.0
686,139.3669060875,139.5816786,76.0,93.0
687,139.3669060875,139.61349675000002,71.0,101.0
688,139.7759965875,139.815769275,76.0,63.0
689,139.7759965875,139.9600873125,75.0,93.0
690,140.0487235875,140.39645051250002,70.0,78.0
691,140.0487235875,140.3987232375,61.0,85.0
692,140.0487235875,140.41235958750002,66.0,78.0
693,140.5941775875,140.8089501,61.0,75.0
694,140.86690458750002,141.193040625,66.0,70.0
695,141.13963158750002,141.3259950375,68.0,80.0
696,141.13963158750002,141.63281291250001,63.0,67.0
697,141.41235858750002,141.6634947,70.0,80.0
698,140.3214505875,141.7805400375,58.0,62.0
699,140.0487235875,141.7850854875,51.0,73.0
700,141.6850855875,142.00099436250002,73.0,72.0
701,141.9578125875,142.15667602500002,78.0,66.0
702,142.2305395875,142.91122072500002,75.0,69.0
703,142.2305395875,142.9180389,71.0,69.0
704,142.2305395875,142.96576612500002,68.0,64.0
705,142.2305395875,142.98962973750002,40.0,73.0
706,142.5032665875,143.0691751125,47.0,69.0
707,142.7759935875,143.08622055,52.0,63.0
708,143.04872058750001,143.26008401250002,76.0,70.0
709,143.32144758750002,143.4373565625,76.0,59.0
710,143.32144758750002,143.6009927625,66.0,76.0
711,143.32144758750002,143.73735626250001,75.0,73.0
712,143.32144758750002,143.947583325,42.0,75.0
713,143.59417458750002,144.00440145000002,49.0,58.0
714,143.7305380875,144.0259923375,66.0,72.0
715,143.7305380875,144.03167415000001,73.0,70.0
716,143.86690158750002,144.1089468,54.0,55.0
717,144.1396285875,144.31349205,71.0,61.0
718,144.4123555875,144.7623552375,71.0,72.0
719,144.4123555875,144.774855225,75.0,76.0
720,144.4123555875,144.8123551875,66.0,69.0
721,144.9578095875,145.32144558750002,59.0,64.0
722,145.2305365875,145.62144528750002,63.0,67.0
723,145.2305365875,145.64076345,71.0,76.0
724,145.2305365875,145.6441725375,66.0,64.0
725,145.50326358750002,145.70894520000002,59.0,57.0
726,145.77599058750002,146.024853975,63.0,73.0
727,144.4123555875,146.083944825,47.0,70.0
728,146.04871758750002,146.102126625,59.0,44.0
729,145.77599058750002,146.1237175125,70.0,73.0
730,144.6850825875,146.12599023750002,54.0,61.0
731,146.32144458750003,146.47144443750003,46.0,59.0
732,146.32144458750003,146.5691716125,68.0,69.0
733,146.5941715875,147.10439835000003,71.0,75.0
734,146.5941715875,147.18053463750002,63.0,70.0
735,146.5941715875,147.2350800375,66.0,72.0
736,147.1396255875,147.58053423750002,56.0,67.0
737,147.4123525875,147.6180342,63.0,72.0
738,147.6850795875,147.9237157125,63.0,56.0
739,147.6850795875,147.9987156375,66.0,91.0
740,147.95780658750002,148.10212462500002,56.0,55.0
741,148.0941700875,148.1668972875,66.0,57.0
742,148.23053358750002,148.40439705,56.0,54.0
743,146.8668985875,148.4123515875,51.0,36.0
744,146.5941715875,148.4555333625,44.0,75.0
745,148.0941700875,148.49530605,63.0,66.0
746,148.0941700875,148.50439695,70.0,78.0
747,148.50326058750002,148.84644206250002,71.0,73.0
748,148.7759875875,149.20325988750002,66.0,70.0
749,148.7759875875,149.26803255000002,61.0,69.0
750,148.7759875875,149.28053253750002,42.0,72.0
751,149.0487145875,149.3271234,49.0,64.0
752,148.7759875875,149.3759869875,70.0,76.0
753,149.3214415875,149.688486675,54.0,88.0
754,150.1396225875,150.30439515,61.0,80.0
755,149.8668955875,150.365758725,58.0,63.0
756,149.5941685875,150.38962233750001,56.0,60.0
757,150.41234958750002,150.6759856875,66.0,67.0
758,150.95780358750002,151.33507593750002,59.0,78.0
759,150.95780358750002,151.4487121875,40.0,75.0
760,150.95780358750002,151.48393942500002,64.0,70.0
761,151.2305305875,151.51234848750002,47.0,64.0
762,150.95780358750002,151.538484825,68.0,62.0
763,150.68507658750002,151.538484825,71.0,70.0
764,151.5032575875,151.7305300875,66.0,63.0
765,151.5032575875,151.86121177500002,52.0,64.0
766,151.7759845875,152.1634842,59.0,72.0
767,151.7759845875,152.16689328750002,68.0,70.0
768,152.3214385875,152.47371116250002,59.0,85.0
769,152.4578020875,152.6089383,64.0,69.0
770,152.0487115875,152.67257460000002,56.0,63.0
771,152.59416558750002,152.67257460000002,66.0,63.0
772,151.7759845875,152.7759835875,54.0,67.0
773,152.7305290875,152.9987106375,68.0,82.0
774,152.86689258750002,153.1089378,71.0,61.0
775,153.0032560875,153.174846825,73.0,59.0
776,153.13961958750002,153.3418921125,76.0,55.0
777,153.13961958750002,153.593028225,42.0,72.0
778,153.41234658750002,153.65893725,49.0,69.0
779,153.6850735875,154.01007326250001,54.0,59.0
780,153.13961958750002,154.16802765,68.0,62.0
781,153.13961958750002,154.220300325,75.0,72.0
782,154.5032545875,154.71689073750002,66.0,88.0
783,154.2305275875,154.8146179125,58.0,66.0
784,153.9578005875,154.83279971250002,56.0,59.0
785,154.7759815875,154.9737086625,71.0,78.0
786,155.04870858750002,155.247572025,73.0,64.0
787,155.32143558750002,155.79984420000002,47.0,73.0
788,155.32143558750002,155.8532532375,66.0,80.0
789,155.59416258750002,155.8805259375,54.0,64.0
790,155.32143558750002,155.906662275,71.0,85.0
791,155.32143558750002,155.96120767500003,75.0,73.0
792,155.86688958750003,156.18279836250002,59.0,59.0
793,156.1396165875,156.27598008750002,66.0,66.0
794,156.1396165875,156.279389175,71.0,59.0
795,156.1396165875,156.283934625,78.0,76.0
796,156.4123435875,156.64757062500001,78.0,85.0
797,156.4123435875,156.7123432875,66.0,67.0
798,156.4123435875,156.72711600000002,71.0,75.0
799,156.4123435875,156.78847957500003,63.0,69.0
800,156.1396165875,156.84757042500001,61.0,67.0
801,156.82143408750002,156.98620665,66.0,66.0
802,156.82143408750002,157.15893375000002,75.0,78.0
803,157.2305245875,157.311206325,66.0,44.0
804,157.2305245875,157.402115325,73.0,69.0
805,157.50325158750002,157.94984205,66.0,72.0
806,157.50325158750002,157.9827965625,70.0,80.0
807,157.50325158750002,158.13166005000002,75.0,76.0
808,158.04870558750002,158.383932525,63.0,76.0
809,158.3214325875,158.506659675,75.0,49.0
810,158.3214325875,158.64302317500002,83.0,80.0
811,157.77597858750002,158.7282503625,58.0,54.0
812,158.5941595875,158.78620485000002,82.0,70.0
813,158.5941595875,158.8168866375,73.0,75.0
814,158.5941595875,158.9737046625,63.0,76.0
815,158.8668865875,159.0100682625,58.0,59.0
816,159.00325008750002,159.23165895000002,78.0,80.0
817,159.1396135875,159.283931625,58.0,67.0
818,157.50325158750002,159.3100679625,51.0,72.0
819,159.00325008750002,159.3271134,70.0,82.0
820,159.4123405875,159.643022175,73.0,82.0
821,159.68506758750001,159.97029457500003,76.0,85.0
822,159.68506758750001,159.9827945625,71.0,91.0
823,159.68506758750001,160.02029452500003,68.0,76.0
824,160.50324858750002,160.6373393625,59.0,91.0
825,160.6396120875,160.7941573875,64.0,58.0
826,160.7759755875,160.8373391625,66.0,58.0
827,160.91233908750002,161.0987025375,68.0,82.0
828,161.0487025875,161.2373387625,71.0,54.0
829,161.18506608750002,161.40438405,73.0,58.0
830,160.23052158750002,161.49529305000002,52.0,72.0
831,159.68506758750001,161.54529300000002,40.0,59.0
832,161.3214295875,161.5487020875,75.0,50.0
833,159.95779458750002,161.57483842500002,47.0,60.0
834,161.5941565875,161.8168836375,76.0,49.0
835,161.8668835875,162.38961033750002,66.0,82.0
836,161.8668835875,162.415746675,71.0,75.0
837,162.13961058750002,162.51347385000003,54.0,52.0
838,161.8668835875,162.54074655000002,75.0,70.0
839,162.68506458750002,162.86347350000003,66.0,70.0
840,162.41233758750002,162.98620065,59.0,70.0
841,162.95779158750003,163.20551861250001,66.0,66.0
842,163.0941550875,163.23506403750002,59.0,49.0
843,162.95779158750003,163.2691549125,75.0,82.0
844,163.36688208750002,163.5259728375,73.0,69.0
845,163.36688208750002,163.565745525,66.0,67.0
846,161.8668835875,163.570290975,47.0,78.0
847,163.5032455875,163.60665457500002,54.0,50.0
848,163.63960908750002,163.8259725375,46.0,72.0
849,163.7759725875,163.8816543,66.0,54.0
850,163.7759725875,163.97256330000002,71.0,52.0
851,164.0486995875,164.4373355625,71.0,75.0
852,164.0486995875,164.4418810125,66.0,67.0
853,164.59415358750002,164.9646077625,56.0,62.0
854,164.86688058750002,165.01347135,71.0,75.0
855,164.86688058750002,165.020289525,63.0,66.0
856,165.13960758750002,165.29415288750002,71.0,75.0
857,164.3214265875,165.33392557500002,51.0,64.0
858,165.13960758750002,165.34415283750002,63.0,76.0
859,165.13960758750002,165.65892525,56.0,60.0
860,165.54869808750001,165.71687973750002,70.0,72.0
861,165.54869808750001,165.73960698750003,61.0,72.0
862,164.0486995875,165.8623341375,44.0,72.0
863,165.6850615875,165.8634705,51.0,69.0
864,165.9577885875,166.1123338875,59.0,60.0
865,165.9577885875,166.16687928750002,68.0,57.0
866,166.2305155875,166.64074245,61.0,80.0
867,166.2305155875,166.679378775,66.0,85.0
868,167.04869658750002,167.3009690625,58.0,70.0
869,167.32142358750002,167.47028707500002,59.0,62.0
870,167.59415058750002,167.81460491250002,63.0,73.0
871,166.5032425875,167.87710485000002,49.0,66.0
872,166.2305155875,167.88165030000002,42.0,70.0
873,166.77596958750001,167.9123320875,54.0,72.0
874,167.8668775875,168.152104575,66.0,73.0
875,168.1396045875,168.3464225625,71.0,59.0
876,168.4123315875,168.8191493625,59.0,73.0
877,168.4123315875,168.82142208750003,68.0,69.0
878,168.4123315875,168.829376625,64.0,73.0
879,168.9577855875,169.16573992500003,59.0,69.0
880,168.6850585875,169.3464215625,56.0,58.0
881,169.23051258750002,169.5941485875,59.0,70.0
882,169.23051258750002,169.6396030875,64.0,67.0
883,169.50323958750002,169.8464210625,56.0,67.0
884,169.77596658750002,170.16460256250002,59.0,72.0
885,170.04869358750003,170.165738925,56.0,67.0
886,168.4123315875,170.1907389,52.0,66.0
887,169.77596658750002,170.19642071250001,66.0,69.0
888,170.3214205875,170.52482947500002,68.0,69.0
889,170.5941475875,170.99755627500002,70.0,69.0
890,170.5941475875,171.08164710000003,61.0,69.0
891,170.5941475875,171.10891980000002,66.0,69.0
892,171.1396015875,171.4441467375,54.0,63.0
893,171.4123285875,172.0168734375,59.0,76.0
894,171.4123285875,172.03619160000002,64.0,73.0
895,171.4123285875,172.05323703750003,68.0,61.0
896,171.4123285875,172.0714188375,71.0,70.0
897,170.5941475875,172.24641866250002,42.0,69.0
898,170.8668745875,172.25778228750002,49.0,66.0
899,171.95778258750002,172.311191325,54.0,52.0
900,172.23050958750002,172.31800950000002,71.0,37.0
901,172.23050958750002,172.45096391250001,59.0,63.0
902,172.50323658750003,172.65664552500002,64.0,66.0
903,172.77482722500002,173.2543722,61.0,61.0
904,172.77482722500002,173.29641761250002,63.0,66.0
905,172.77482722500002,173.3100539625,66.0,69.0
906,173.5941445875,173.86232613750002,61.0,75.0
907,173.0486905875,174.0816441,54.0,63.0
908,173.86687158750001,174.08505318750002,63.0,61.0
909,174.13959858750002,174.18505308750002,63.0,39.0
910,173.3214175875,174.197553075,59.0,67.0
911,174.13959858750002,174.37255290000002,66.0,88.0
912,172.77482722500002,174.5100527625,47.0,73.0
913,174.41232558750002,174.524825475,54.0,61.0
914,174.95777958750003,175.85550596250002,66.0,69.0
915,174.95777958750003,175.865733225,58.0,66.0
916,174.95777958750003,175.87368776250003,42.0,70.0
917,174.95777958750003,175.8907332,61.0,73.0
918,174.95777958750003,175.89982410000002,54.0,72.0
919,176.0486875875,176.2600510125,66.0,72.0
920,176.0486875875,176.28391462500002,58.0,69.0
921,176.0486875875,176.2907328,61.0,72.0
922,176.0486875875,176.30664187500003,42.0,75.0
923,176.0486875875,176.33164185,54.0,58.0
924,176.4577780875,176.7089142,59.0,67.0
925,176.4577780875,176.720277825,68.0,73.0
926,176.4577780875,176.73164145,54.0,59.0
927,176.4577780875,176.73959598750002,42.0,63.0
928,176.86686858750002,176.9873230125,46.0,70.0
929,176.86686858750002,176.9873230125,66.0,35.0
930,176.86686858750002,177.01345935,61.0,64.0
931,177.13959558750003,177.22709550000002,66.0,50.0
932,177.13959558750003,177.42141348750002,68.0,40.0
933,177.13959558750003,177.847549425,63.0,73.0
934,177.13959558750003,178.01118562500002,71.0,69.0
935,177.9577765875,178.2850489875,59.0,52.0
936,177.6850495875,178.3350489375,54.0,41.0
937,178.2305035875,178.48277606250002,61.0,62.0
938,178.2305035875,178.6305031875,70.0,59.0
939,178.77595758750002,178.87709385000002,63.0,55.0
940,178.77595758750002,178.9577755875,71.0,72.0
941,178.5032305875,178.983911925,59.0,34.0
942,177.13959558750003,179.09982090000003,47.0,85.0
943,178.9123210875,179.19300262500002,54.0,12.0
944,179.04868458750002,179.50550231250003,66.0,58.0
945,179.04868458750002,179.5668658875,61.0,49.0
946,179.59413858750003,180.14868348750002,54.0,52.0
947,180.1395925875,180.53618310000002,66.0,57.0
948,180.1395925875,180.5725467,63.0,72.0
949,180.1395925875,180.5964103125,59.0,73.0
950,180.6850465875,180.75436470000002,66.0,39.0
951,180.6850465875,180.89754637500002,58.0,69.0
952,179.32141158750002,180.9452736,47.0,67.0
953,180.4123195875,180.95322813750002,54.0,69.0
954,180.95777358750001,181.25322783750002,61.0,72.0
955,181.23050058750002,181.429364025,63.0,41.0
956,181.50322758750002,181.8441363375,54.0,69.0
957,181.50322758750002,181.8623181375,58.0,56.0
958,181.50322758750002,181.89640901250002,61.0,60.0
959,182.04868158750003,182.20890870000002,54.0,52.0
960,181.77595458750002,182.50322658750002,51.0,56.0
961,182.3214085875,182.8441353375,54.0,67.0
962,182.3214085875,182.91345345000002,58.0,72.0
963,182.3214085875,182.93618070000002,61.0,73.0
964,183.1395895875,183.2782258125,55.0,49.0
965,181.50322758750002,183.52254375,39.0,76.0
966,182.8668625875,183.52595283750003,51.0,44.0
967,183.41231658750002,183.94754332500003,55.0,73.0
968,183.41231658750002,183.99072510000002,58.0,73.0
969,183.41231658750002,184.06799775000002,63.0,72.0
970,183.95777058750002,184.138452225,51.0,56.0
971,184.23049758750003,184.33049748750003,55.0,55.0
972,184.50322458750003,184.87936057500002,55.0,97.0
973,184.50322458750003,184.93617870000003,58.0,73.0
974,184.50322458750003,184.938451425,61.0,76.0
975,184.7759515875,185.1089058,51.0,51.0
976,185.0486785875,185.25095111250002,55.0,72.0
977,183.68504358750002,185.420269125,39.0,61.0
978,185.3214055875,185.6827688625,58.0,61.0
979,185.5941325875,185.81231418750002,59.0,70.0
980,185.86685958750002,186.188450175,63.0,72.0
981,185.86685958750002,186.2373137625,56.0,70.0
982,185.86685958750002,186.25095011250002,59.0,64.0
983,186.41231358750002,186.61117702500002,56.0,45.0
984,186.13958658750002,186.94526760000002,52.0,47.0
985,186.68504058750003,187.19526735000002,64.0,69.0
986,186.68504058750003,187.2089037,59.0,75.0
987,186.68504058750003,187.215721875,56.0,64.0
988,187.2304945875,187.724812275,52.0,44.0
989,185.86685958750002,187.7418577125,40.0,66.0
990,187.5032215875,187.87253940000002,59.0,70.0
991,187.5032215875,187.88390302500002,64.0,53.0
992,187.5032215875,187.8986757375,56.0,53.0
993,187.7759485875,188.090721,47.0,61.0
994,188.32140258750002,188.53958418750003,59.0,1.0
995,188.32140258750002,188.57140233750002,64.0,19.0
996,187.7759485875,188.60549321250002,63.0,70.0
997,188.04867558750001,188.63958408750003,56.0,30.0
998,188.59412958750002,188.924811075,52.0,60.0
999,188.32140258750002,189.19867443750002,47.0,73.0
1000,188.86685658750002,189.40435605000002,59.0,75.0
1001,188.86685658750002,189.4089015,64.0,73.0
1002,188.86685658750002,189.4191287625,56.0,69.0
1003,188.04867558750001,189.54867408750002,40.0,75.0
1004,189.4123105875,189.54981045000002,47.0,30.0
1005,189.4123105875,189.5577649875,52.0,57.0
1006,189.6850375875,189.93390097500003,56.0,55.0
1007,189.9577645875,190.324809675,64.0,66.0
1008,190.229355225,190.324809675,64.0,69.0
1009,190.229355225,190.71117292500003,61.0,73.0
1010,190.229355225,190.7236729125,58.0,67.0
1011,190.229355225,190.7361729,66.0,58.0
1012,190.77594558750002,191.28162690000002,54.0,70.0
1013,191.04867258750002,191.61003566250002,66.0,73.0
1014,191.04867258750002,191.6168538375,58.0,61.0
1015,191.04867258750002,191.656626525,61.0,78.0
1016,190.229355225,192.09867153750002,42.0,69.0
1017,191.59412658750003,192.20435325000003,54.0,44.0
1018,191.8668535875,192.23162595000002,58.0,56.0
1019,192.1395805875,192.3168531375,61.0,70.0
1020,190.50321858750002,192.33276221250003,49.0,55.0
1021,192.4123075875,192.78730721250002,66.0,80.0
1022,192.4123075875,192.80207992500002,61.0,66.0
1023,192.4123075875,192.81003446250003,58.0,75.0
1024,192.95776158750002,193.133897775,58.0,49.0
1025,192.6850345875,193.79866983750003,54.0,53.0
1026,193.23048858750002,193.8441243375,61.0,91.0
1027,193.77594258750003,194.00321508750002,63.0,75.0
1028,192.4123075875,194.07935137500002,42.0,72.0
1029,194.04866958750003,194.161169475,54.0,64.0
1030,194.5941235875,195.18616845000003,69.0,75.0
1031,194.5941235875,195.1941229875,64.0,76.0
1032,194.5941235875,195.19525935000001,61.0,69.0
1033,195.41230458750002,195.77366786250002,61.0,54.0
1034,195.1395775875,196.061167575,57.0,66.0
1035,195.95775858750002,196.315712775,61.0,78.0
1036,195.95775858750002,196.3259400375,64.0,82.0
1037,195.95775858750002,196.37707635,69.0,70.0
1038,194.8668505875,196.3998036,52.0,51.0
1039,196.23048558750003,196.42366721250002,57.0,54.0
1040,194.5941235875,196.4873035125,45.0,85.0
1041,196.5032125875,196.63503063750002,61.0,48.0
1042,197.0486665875,197.64639326250003,64.0,78.0
1043,197.0486665875,197.65775688750003,69.0,39.0
1044,197.0486665875,197.6713932375,61.0,73.0
1045,197.59412058750002,198.224801775,57.0,91.0
1046,198.13957458750002,198.47707425000002,61.0,88.0
1047,198.41230158750002,198.49525605000002,57.0,62.0
1048,197.3213935875,198.5077560375,45.0,64.0
1049,198.13957458750002,198.51343785,64.0,85.0
1050,198.13957458750002,198.5418469125,69.0,82.0
1051,198.95661922500003,199.45434600000002,61.0,78.0
1052,198.95661922500003,199.51798230000003,63.0,88.0
1053,198.95661922500003,199.5691186125,66.0,75.0
1054,199.7759365875,199.88957283750003,61.0,73.0
1055,199.7759365875,199.91684553750002,63.0,85.0
1056,199.7759365875,199.97252730000002,71.0,78.0
1057,199.5032095875,199.97820911250002,59.0,61.0
1058,200.59411758750002,200.7077538375,75.0,66.0
1059,200.59411758750002,200.74979925000002,83.0,76.0
1060,200.86684458750003,200.92138998750002,83.0,50.0
1061,200.32139058750002,200.94070815,59.0,53.0
1062,198.95661922500003,200.94525360000003,47.0,82.0
1063,199.2304825875,201.1532079375,54.0,64.0
1064,200.86684458750003,201.20434425000002,82.0,78.0
1065,200.86684458750003,201.23957148750003,73.0,82.0
1066,201.6850255875,202.00434345000002,59.0,56.0
1067,201.9577525875,202.28616135000001,70.0,85.0
1068,201.9577525875,202.29525225,78.0,75.0
1069,201.4122985875,202.51116112500003,54.0,70.0
1070,202.2304795875,202.579342875,59.0,40.0
1071,202.50320658750002,202.71116092500003,73.0,78.0
1072,202.50320658750002,202.78161540000002,70.0,88.0
1073,201.13957158750003,202.84752442500002,47.0,64.0
1074,202.77593358750002,202.87706985000003,54.0,66.0
1075,203.32025122500002,203.73275081250003,70.0,61.0
1076,203.32025122500002,203.86911431250002,49.0,82.0
1077,203.32025122500002,204.129341325,65.0,78.0
1078,203.32025122500002,204.13161405000002,68.0,73.0
1079,203.32025122500002,204.19184126250002,61.0,75.0
1080,203.32025122500002,204.2327503125,73.0,64.0
1081,204.4122955875,204.5179773,70.0,63.0
1082,204.1395685875,204.629340825,49.0,44.0
1083,204.4122955875,204.95320413750002,73.0,64.0
1084,204.4122955875,205.00320408750002,65.0,73.0
1085,204.4122955875,205.0327495125,68.0,76.0
1086,204.4122955875,205.03502223750002,61.0,67.0
1087,203.32025122500002,205.32024922500003,37.0,67.0
1088,204.95774958750002,205.3282037625,49.0,40.0
1089,205.50320358750002,205.999794,65.0,76.0
1090,205.50320358750002,206.1054757125,61.0,69.0
1091,205.50320358750002,206.22252105,68.0,62.0
1092,206.3213845875,206.73388417500001,49.0,40.0
1093,206.5941115875,207.0259293375,65.0,78.0
1094,206.5941115875,207.192974625,61.0,64.0
1095,206.3213845875,207.20661097500002,37.0,50.0
1096,206.5941115875,207.2372927625,68.0,73.0
1097,207.13956558750002,207.27365636250002,49.0,60.0
1098,207.68501958750002,207.7441104375,61.0,64.0
1099,207.68501958750002,208.315700775,66.0,73.0
1100,207.68501958750002,208.31910986250003,63.0,60.0
1101,207.68501958750002,208.32479167500003,70.0,70.0
1102,208.5032005875,208.84979115000002,54.0,82.0
1103,208.7759275875,209.09524545000002,61.0,91.0
1104,208.7759275875,209.1088818,66.0,95.0
1105,208.7759275875,209.1531999375,70.0,85.0
1106,209.3213815875,209.43160875,63.0,80.0
1107,209.3213815875,209.4486541875,66.0,91.0
1108,209.3213815875,209.4645632625,71.0,72.0
1109,207.8213830875,209.60660857500002,42.0,73.0
1110,209.18501808750003,209.69069940000003,54.0,52.0
1111,208.23047358750003,209.69524485000002,49.0,66.0
1112,209.59410858750002,209.85660832500002,66.0,91.0
1113,209.59410858750002,209.870244675,61.0,88.0
1114,209.59410858750002,209.91683553750002,70.0,91.0
1115,210.5486530875,210.71342565,59.0,63.0
1116,210.68501658750003,210.77933467500003,61.0,67.0
1117,210.82138008750002,210.93160725,66.0,70.0
1118,210.9577435875,211.12251615000002,71.0,63.0
1119,211.09410708750002,211.1906979,73.0,80.0
1120,210.41228958750003,211.26797055000003,54.0,91.0
1121,209.86683558750002,211.47706125000002,42.0,72.0
1122,211.2304705875,211.48274306250002,78.0,80.0
1123,210.13956258750002,211.524788475,49.0,62.0
1124,211.36683408750002,211.61115202500002,83.0,48.0
1125,211.5031975875,211.66569742500002,54.0,43.0
1126,211.63956108750003,211.93387897500003,85.0,66.0
1127,211.77592458750001,211.9577425875,87.0,64.0
1128,211.91228808750003,212.04865158750002,90.0,63.0
1129,212.04865158750002,212.52819656250003,66.0,63.0
1130,212.04865158750002,212.579332875,61.0,66.0
1131,212.04865158750002,212.58728741250002,63.0,76.0
1132,212.04865158750002,212.61115102500003,71.0,70.0
1133,212.86683258750003,213.01569607500002,61.0,62.0
1134,212.86683258750003,213.06683238750003,66.0,63.0
1135,212.59410558750002,213.22819586250003,59.0,69.0
1136,213.1395595875,213.40319568750002,61.0,76.0
1137,213.1395595875,213.5009228625,66.0,80.0
1138,212.32137858750002,213.55546826250003,54.0,67.0
1139,213.4122865875,213.6781954125,59.0,47.0
1140,212.04865158750002,213.7850134875,47.0,73.0
1141,213.54865008750002,213.8577406875,63.0,78.0
1142,213.6850135875,213.86001341250002,54.0,62.0
1143,213.54865008750002,213.92478607500001,71.0,76.0
1144,213.9577405875,214.0350132375,71.0,41.0
1145,213.9577405875,214.12251315,70.0,70.0
1146,214.23046758750002,214.69410348750003,46.0,63.0
1147,214.23046758750002,214.7622852375,61.0,73.0
1148,214.50319458750002,214.78614885000002,54.0,66.0
1149,214.23046758750002,214.78728521250002,66.0,76.0
1150,214.23046758750002,215.0168304375,70.0,75.0
1151,214.77592158750002,215.1122848875,58.0,60.0
1152,215.5941025875,215.883875025,66.0,75.0
1153,215.04864858750003,215.911147725,61.0,50.0
1154,215.32137558750003,215.91455681250002,63.0,69.0
1155,215.8668295875,216.14637476250002,70.0,80.0
1156,216.1395565875,216.28501098750002,71.0,59.0
1157,216.4122835875,216.97932847500002,59.0,73.0
1158,216.4122835875,216.99751027500002,64.0,57.0
1159,216.4122835875,217.04637386250002,68.0,76.0
1160,217.23046458750002,217.37364626250002,59.0,76.0
1161,217.23046458750002,217.438418925,68.0,51.0
1162,216.95773758750002,217.82364581250002,52.0,85.0
1163,216.4122835875,218.11341825000002,40.0,75.0
1164,217.77591858750003,218.11341825000002,59.0,78.0
1165,217.77591858750003,218.15091821250002,66.0,82.0
1166,216.68501058750002,218.16228183750002,47.0,75.0
1167,218.0486455875,218.34182711250003,52.0,58.0
1168,218.3213725875,218.3986452375,59.0,54.0
1169,218.3213725875,218.50887240000003,64.0,78.0
1170,218.5940995875,219.1554626625,66.0,72.0
1171,218.5940995875,219.16228083750002,63.0,69.0
1172,218.5940995875,219.17818991250002,71.0,75.0
1173,219.13955358750002,219.5531895375,59.0,69.0
1174,219.41228058750002,219.7872802125,61.0,70.0
1175,219.41228058750002,219.86114377500002,70.0,61.0
1176,219.68500758750002,219.9713709375,59.0,41.0
1177,218.86682658750001,220.09523445000002,54.0,66.0
1178,219.95773458750003,220.35773418750003,63.0,88.0
1179,220.23046158750003,220.370234175,59.0,63.0
1180,218.5940995875,220.37932507500003,47.0,76.0
1181,220.23046158750003,220.3815978,54.0,44.0
1182,219.95773458750003,220.63387027500002,71.0,76.0
1183,220.5031885875,220.70659747500002,66.0,61.0
1184,220.7759155875,221.24636966250003,44.0,78.0
1185,221.0486425875,221.324778675,51.0,63.0
1186,221.32136958750002,221.67136923750002,56.0,64.0
1187,220.7759155875,221.83955088750002,63.0,76.0
1188,220.7759155875,221.90545991250002,71.0,78.0
1189,220.7759155875,221.91114172500002,68.0,78.0
1190,222.13955058750003,222.29068680000003,63.0,85.0
1191,221.59409658750002,222.32136858750002,58.0,61.0
1192,221.86682358750002,222.324777675,59.0,63.0
1193,222.41227758750003,222.68727731250002,68.0,75.0
1194,222.6850045875,222.8850043875,71.0,72.0
1195,222.9577315875,223.40432205000002,42.0,75.0
1196,223.2304585875,223.48159470000002,49.0,60.0
1197,222.9577315875,223.79977620000003,61.0,69.0
1198,223.5031855875,223.85545796250003,54.0,46.0
1199,222.9577315875,224.0350032375,66.0,73.0
1200,222.9577315875,224.13954858750003,70.0,60.0
1201,224.04863958750002,224.4634119,58.0,63.0
1202,223.77591258750002,224.48841187500003,56.0,59.0
1203,224.32136658750002,224.54863908750002,61.0,91.0
1204,224.59409358750003,224.86568422500002,66.0,58.0
1205,225.1395475875,225.733865175,64.0,62.0
1206,225.1395475875,225.7452288,59.0,75.0
1207,225.1395475875,225.76000151250003,68.0,70.0
1208,224.86568422500002,226.05318303750002,71.0,67.0
1209,225.95772858750001,226.30431915000003,59.0,61.0
1210,226.23045558750002,226.40886450000002,64.0,69.0
1211,225.6850015875,226.57590978750002,52.0,46.0
1212,226.50318258750002,226.92477307500002,59.0,75.0
1213,226.50318258750002,226.96000031250003,68.0,73.0
1214,225.1395475875,227.02136388750003,40.0,75.0
1215,226.50318258750002,227.04295477500003,64.0,76.0
1216,226.77590958750002,227.1440910375,52.0,62.0
1217,227.04863658750003,227.17704555000003,59.0,50.0
1218,225.4122745875,227.30204542500002,47.0,61.0
1219,227.32136358750003,227.90204482500002,70.0,75.0
1220,227.32136358750003,227.95318113750002,61.0,75.0
1221,227.32136358750003,227.9554538625,66.0,76.0
1222,227.8668175875,228.1940899875,54.0,72.0
1223,228.1395445875,228.565680525,59.0,85.0
1224,228.1395445875,228.77022577500003,68.0,85.0
1225,228.1395445875,228.80658937500002,64.0,82.0
1226,228.68499858750002,228.9554528625,54.0,61.0
1227,228.95772558750002,228.99068010000002,64.0,42.0
1228,227.32136358750003,229.20090716250002,42.0,76.0
1229,228.95772558750002,229.21795260000002,59.0,82.0
1230,227.5940905875,229.22590713750003,49.0,72.0
1231,228.95772558750002,229.35772518750002,66.0,51.0
1232,229.23045258750003,229.43954328750002,54.0,61.0
1233,229.50317958750003,229.588406775,61.0,55.0
1234,229.50317958750003,230.07363356250002,63.0,60.0
1235,229.50317958750003,230.08954263750002,71.0,75.0
1236,229.50317958750003,230.10772443750002,66.0,70.0
1237,230.3213605875,230.50090586250002,61.0,72.0
1238,230.3213605875,230.77476922500003,66.0,69.0
1239,230.0486335875,230.8815873,59.0,73.0
1240,229.77590658750003,231.1543143,54.0,51.0
1241,230.86681458750002,231.2327233125,71.0,80.0
1242,230.86681458750002,231.28613235000003,63.0,91.0
1243,231.13954158750002,231.36908681250003,59.0,73.0
1244,229.50317958750003,231.44635946250003,47.0,67.0
1245,231.41226858750002,231.5759047875,73.0,75.0
1246,231.41226858750002,231.64635926250003,54.0,63.0
1247,231.68499558750003,231.92476807500003,61.0,72.0
1248,231.68499558750003,231.92476807500003,66.0,64.0
1249,231.68499558750003,232.03044978750003,70.0,73.0
1250,231.68499558750003,232.13840422500002,46.0,69.0
1251,231.95772258750003,232.242949575,54.0,67.0
1252,232.2304495875,232.57249470000002,58.0,64.0
1253,232.5031765875,232.66681278750002,75.0,75.0
1254,232.5031765875,232.76113087500002,83.0,78.0
1255,232.7759035875,232.8645398625,83.0,49.0
1256,232.5031765875,232.91567617500002,59.0,50.0
1257,232.7759035875,232.93499433750003,73.0,85.0
1258,232.7759035875,233.0531760375,82.0,78.0
1259,233.0486305875,233.2531758375,63.0,69.0
1260,233.32135758750002,233.46681198750002,63.0,64.0
1261,233.18499408750003,233.49294832500001,78.0,88.0
1262,233.18499408750003,233.502039225,71.0,88.0
1263,232.7759035875,233.5088574,61.0,64.0
1264,233.59408458750002,233.74976625000002,75.0,88.0
1265,233.86681158750002,234.2463566625,52.0,70.0
1266,233.86681158750002,234.3463565625,71.0,73.0
1267,234.13953858750003,234.38272016250002,59.0,67.0
1268,233.86681158750002,234.38840197500002,76.0,91.0
1269,233.86681158750002,234.397492875,80.0,75.0
1270,234.41226558750003,234.74521980000003,64.0,60.0
1271,234.6849925875,234.90431055000002,71.0,55.0
1272,234.9577195875,235.00658317500003,71.0,38.0
1273,234.9577195875,235.1634012,76.0,88.0
1274,235.2304465875,235.3906737,78.0,78.0
1275,234.6849925875,235.49408268750003,66.0,49.0
1276,234.9577195875,235.5179463,68.0,72.0
1277,235.50317358750002,235.63840072500003,78.0,55.0
1278,235.77590058750002,235.98953673750003,83.0,66.0
1279,236.04862758750002,236.50430895000002,47.0,75.0
1280,236.04862758750002,236.50885440000002,78.0,58.0
1281,236.32135458750002,236.56680888750003,54.0,50.0
1282,236.04862758750002,236.6895360375,87.0,70.0
1283,236.59408158750003,236.96794485,59.0,48.0
1284,236.86680858750003,237.5236261125,61.0,52.0
1285,237.1395355875,237.70885320000002,63.0,55.0
1286,237.54862608750003,237.87135303750003,64.0,60.0
1287,237.82135308750003,238.09294372500003,87.0,82.0
1288,238.09294372500003,238.3122616875,85.0,57.0
1289,238.23044358750002,238.606579575,80.0,57.0
1290,238.23044358750002,238.7554430625,83.0,73.0
1291,238.77589758750003,239.07589728750003,68.0,63.0
1292,239.04862458750003,239.17589718750003,83.0,64.0
1293,239.04862458750003,239.19180626250002,75.0,61.0
1294,239.32135158750003,239.5395331875,82.0,73.0
1295,239.32135158750003,239.54862408750003,73.0,72.0
1296,238.50317058750002,239.6327149125,63.0,60.0
1297,239.45771508750002,239.74748752500003,68.0,49.0
1298,239.73044208750002,239.911123725,83.0,80.0
1299,239.73044208750002,239.915669175,75.0,72.0
1300,239.8668055875,239.9895327375,63.0,62.0
1301,238.23044358750002,240.01339635000002,56.0,69.0
1302,240.1395325875,240.2554415625,75.0,59.0
1303,240.1395325875,240.3440778375,82.0,66.0
1304,240.41225958750002,240.815668275,51.0,75.0
1305,240.68498658750002,240.92248635,58.0,62.0
1306,240.41225958750002,241.18384972500002,73.0,73.0
1307,240.95771358750002,241.32475867500003,61.0,45.0
1308,240.41225958750002,241.34975865,78.0,76.0
1309,241.50316758750003,241.742940075,75.0,75.0
1310,241.50316758750003,241.77362186250002,83.0,76.0
1311,241.50316758750003,241.9543035,66.0,64.0
1312,241.23044058750003,241.97703075,63.0,53.0
1313,241.7758945875,241.97703075,70.0,85.0
1314,241.91225808750002,242.09634881250003,82.0,75.0
1315,241.91225808750002,242.120212425,75.0,73.0
1316,242.3213485875,242.565666525,78.0,75.0
1317,242.59407558750001,243.070211475,80.0,69.0
1318,242.59407558750001,243.10543871250002,76.0,67.0
1319,242.59407558750001,243.13498413750003,71.0,57.0
1320,243.41225658750002,243.65657452500002,68.0,75.0
1321,243.68498358750003,243.7418017125,68.0,42.0
1322,243.68498358750003,243.8645288625,71.0,73.0
1323,242.86680258750002,243.9531651375,59.0,66.0
1324,243.13952958750002,244.02248325000002,64.0,67.0
1325,243.95771058750003,244.29634661250003,68.0,63.0
1326,242.59407558750001,244.33839202500002,52.0,70.0
1327,243.95771058750003,244.3418011125,76.0,76.0
1328,244.2304375875,244.37248290000002,59.0,67.0
1329,244.5031645875,244.64520990000003,73.0,66.0
1330,244.7758915875,245.12361851250003,75.0,72.0
1331,244.7758915875,245.170209375,66.0,76.0
1332,245.59407258750002,245.8849813875,59.0,80.0
1333,245.86679958750003,246.002026725,61.0,63.0
1334,245.32134558750002,246.18384472500003,54.0,60.0
1335,246.13952658750003,246.37248090000003,66.0,73.0
1336,244.7758915875,246.447480825,42.0,69.0
1337,245.04861858750002,246.48384442500003,49.0,66.0
1338,246.41225358750003,246.60884430000002,54.0,39.0
1339,246.41225358750003,246.62020792500002,71.0,63.0
1340,246.6849805875,246.84407133750003,73.0,53.0
1341,246.9577075875,247.34520720000003,75.0,61.0
1342,246.9577075875,247.41679803750003,66.0,69.0
1343,247.2304345875,247.94066115,54.0,61.0
1344,247.50316158750002,248.36906981250002,59.0,43.0
1345,247.77588858750002,248.3906607,64.0,78.0
1346,246.9577075875,248.4895242375,47.0,72.0
1347,248.59406958750003,248.8452057,61.0,85.0
1348,248.32134258750003,249.06452366250002,54.0,54.0
1349,248.86679658750003,249.09634181250001,64.0,76.0
1350,249.27588708750002,249.37588698750002,75.0,55.0
1351,249.1395235875,250.5395221875,61.0,66.0
1352,250.50315858750002,250.5395221875,61.0,44.0
1353,249.1395235875,250.58611305000002,63.0,44.0
1354,249.1395235875,250.7508856125,47.0,76.0
1355,250.77588558750003,251.088385275,66.0,39.0
1356,251.04861258750003,251.41906676250002,73.0,57.0
1357,251.3213395875,251.49633941250002,71.0,57.0
1358,251.3213395875,251.72929372500002,47.0,57.0
1359,251.5940665875,251.75202097500002,70.0,45.0
1360,251.5940665875,251.88042993750003,54.0,49.0
1361,251.8667935875,252.08042973750003,71.0,50.0
1362,251.8667935875,252.238384125,59.0,47.0
1363,252.13952058750002,252.47247480000001,78.0,64.0
1364,252.68497458750002,252.83042898750003,70.0,42.0
1365,252.95770158750003,253.15656502500002,71.0,45.0
1366,253.23042858750003,253.50542831250002,78.0,61.0
1367,253.7758825875,253.9815642,70.0,44.0
1368,252.41224758750002,254.03383687500002,63.0,56.0
1369,254.0486095875,254.320200225,71.0,40.0
1370,254.3213365875,254.40201832500003,78.0,72.0
1371,254.86679058750002,254.93497233750003,87.0,70.0
1372,252.13952058750002,255.26338110000003,61.0,57.0
1373,255.68497158750003,255.870198675,71.0,55.0
1374,255.68497158750003,256.1099711625,44.0,64.0
1375,255.95769858750003,256.1190620625,70.0,53.0
1376,256.2304255875,256.4179254,71.0,56.0
1377,256.2304255875,256.47019807500004,51.0,51.0
1378,256.50315258750004,256.820197725,56.0,45.0
1379,256.50315258750004,256.8781522125,78.0,70.0
1380,257.04860658750005,257.19178826250004,70.0,39.0
1381,257.3213335875,257.49178796250004,71.0,49.0
1382,257.5940605875,257.91337845000004,78.0,64.0
1383,258.1395145875,258.311105325,70.0,36.0
1384,258.41224158750003,258.6997413,71.0,29.0
1385,258.6849685875,258.79178666250004,78.0,73.0
1386,258.95769558750004,259.40428605,61.0,38.0
1387,259.2304225875,259.44519510000003,90.0,48.0
1388,257.8667875875,259.4940586875,59.0,39.0
1389,256.7758795875,259.5599677125,58.0,64.0
1390,259.50314958750005,259.5940585875,87.0,70.0
1391,260.32133058750003,260.4963304125,71.0,49.0
1392,260.0486035875,260.7622392375,52.0,67.0
1393,260.5940575875,260.9031481875,75.0,56.0
1394,260.86678458750004,261.1395115875,76.0,70.0
1395,261.41223858750004,261.5872384125,80.0,49.0
1396,261.1395115875,261.74405643750003,64.0,39.0
1397,261.6849655875,261.8599654125,75.0,49.0
1398,260.32133058750003,262.3372376625,59.0,41.0
1399,261.95769258750005,262.338374025,76.0,66.0
1400,262.5031465875,262.61337375,71.0,46.0
1401,262.77587358750003,262.961100675,73.0,49.0
1402,263.0486005875,263.1599641125,76.0,62.0
1403,263.1849640875,263.55655462500005,75.0,35.0
1404,263.5940545875,263.7690544125,92.0,49.0
1405,262.2304195875,263.8031452875,52.0,47.0
1406,263.5940545875,263.80428165,75.0,62.0
1407,262.5031465875,263.90087246250005,59.0,45.0
1408,263.86678158750004,264.0190541625,73.0,56.0
1409,263.86678158750004,264.04178141250003,88.0,49.0
1410,264.6849625875,264.8599624125,66.0,49.0
1411,264.4122355875,264.879280575,42.0,57.0
1412,264.6849625875,264.952007775,49.0,44.0
1413,264.9576895875,265.13268941250004,71.0,49.0
1414,264.9576895875,265.283825625,54.0,42.0
1415,265.23041658750003,265.4054164125,73.0,49.0
1416,265.77587058750004,265.96564312500004,66.0,51.0
1417,266.0485975875,266.2179156,71.0,48.0
1418,266.32132458750004,266.58496068750003,73.0,58.0
1419,266.5940515875,266.7690514125,76.0,49.0
1420,265.5031435875,266.8235968125,58.0,58.0
1421,266.8667785875,266.99632391250003,68.0,49.0
1422,265.23041658750003,267.2360964,56.0,64.0
1423,267.1395055875,267.2690509125,73.0,49.0
1424,267.4122325875,267.54177791250004,70.0,49.0
1425,267.68495958750003,267.8145049125,66.0,49.0
1426,267.9576865875,268.08723191250004,64.0,49.0
1427,268.23041358750004,268.3599589125,61.0,49.0
1428,268.5031405875,268.6326859125,58.0,49.0
1429,268.77586758750004,268.9122310875,54.0,49.0
1430,268.77586758750004,268.95086741250003,71.0,57.0
1431,268.77586758750004,269.18382172500003,47.0,57.0
1432,269.0485945875,269.20654897500003,70.0,45.0
1433,269.0485945875,269.3349579375,54.0,49.0
1434,269.3213215875,269.5349577375,71.0,50.0
1435,269.3213215875,269.692912125,59.0,47.0
1436,269.5940485875,269.9270028,78.0,64.0
1437,270.13950258750003,270.28495698750004,70.0,42.0
1438,270.4122295875,270.611093025,71.0,45.0
1439,270.68495658750004,270.9599563125,78.0,61.0
1440,271.23041058750005,271.4360922,70.0,44.0
1441,269.8667755875,271.488364875,63.0,56.0
1442,271.5031375875,271.77472822500005,71.0,40.0
1443,271.7758645875,271.856546325,78.0,72.0
1444,272.3213185875,272.3895003375,87.0,70.0
1445,269.5940485875,272.71790910000004,61.0,57.0
1446,273.13949958750004,273.324726675,71.0,55.0
1447,273.13949958750004,273.5644991625,44.0,64.0
1448,273.4122265875,273.57359006250005,70.0,53.0
1449,273.68495358750005,273.87245340000004,71.0,56.0
1450,273.68495358750005,273.924726075,51.0,51.0
1451,273.9576805875,274.274725725,56.0,45.0
1452,273.9576805875,274.3326802125,78.0,70.0
1453,274.5031345875,274.6463162625,70.0,39.0
1454,274.7758615875,274.9463159625,71.0,49.0
1455,275.04858858750003,275.36790645,78.0,64.0
1456,275.59404258750004,275.765633325,70.0,36.0
1457,275.8667695875,276.03949668750005,64.0,72.0
1458,275.8667695875,276.1542693,71.0,29.0
1459,276.13949658750005,276.2463146625,78.0,73.0
1460,276.13949658750005,276.32245095,66.0,61.0
1461,276.4122235875,276.85881405000003,61.0,38.0
1462,276.4122235875,276.85881405000003,61.0,62.0
1463,276.6849505875,276.8997231,90.0,48.0
1464,275.320179225,276.94858668750004,59.0,39.0
1465,274.2304075875,277.01449571250004,58.0,64.0
1466,276.95767758750003,277.04858658750004,87.0,70.0
