,start,end,pitch,velocity
0,8.686894352083334,8.779919804166667,64.0,112.0
1,8.911277352083333,9.038752808333333,64.0,112.0
2,9.135301273958333,9.288286282291667,67.0,117.0
3,9.359181773958333,9.466457846875,69.0,117.0
4,9.583062273958333,9.676812233333333,71.0,122.0
5,9.806942773958333,9.895562138541667,71.0,127.0
6,10.030823273958333,10.134368005208334,69.0,127.0
7,10.254703773958333,10.33819254375,67.0,122.0
8,10.478584273958333,10.565337967708333,71.0,127.0
9,10.702464773958333,10.798546821875,71.0,122.0
10,10.926345273958333,11.018695980208333,69.0,127.0
11,11.150225773958333,11.227184695833333,67.0,122.0
12,11.374106273958333,11.555076344791667,71.0,127.0
13,11.821867273958333,12.002370927083334,64.0,117.0
14,12.269628273958332,12.346587195833333,71.0,117.0
15,12.493508773958332,12.590057239583334,71.0,99.0
16,12.717389273958332,12.799012372916668,74.0,117.0
17,12.941269773958334,13.051810770833335,76.0,127.0
18,13.165150273958332,13.25983306875,74.0,127.0
19,13.389030773958332,13.465056860416666,71.0,122.0
20,13.612911273958334,13.697332879166666,71.0,96.0
21,13.836791773958334,13.92307905,71.0,112.0
22,14.060672273958334,14.139030448958334,71.0,122.0
23,14.284552773958334,14.3932281,71.0,127.0
24,14.508433273958333,14.58632503125,69.0,96.0
25,14.732313773958333,14.846586112499999,67.0,100.0
26,14.956194273958333,15.183339697916667,71.0,127.0
27,15.851716273958333,15.939402803124999,69.0,127.0
28,16.075596773958335,16.161417632291666,69.0,102.0
29,16.299477273958335,16.389962309375,69.0,127.0
30,16.523357773958335,16.611510720833333,67.0,112.0
31,16.747238273958335,16.838189727083332,69.0,127.0
32,17.642760273958334,17.713189347916668,69.0,122.0
33,17.866640773958334,17.940801189583333,69.0,99.0
34,18.090521273958334,18.178674220833333,69.0,127.0
35,18.314401773958334,18.390427860416665,67.0,112.0
36,18.538282273958334,18.68287176354167,69.0,127.0
37,19.433804273958334,19.509363942708333,71.0,127.0
38,19.657684773958334,19.736509366666667,71.0,102.0
39,19.881565273958334,19.968785385416666,71.0,117.0
40,20.105445773958333,20.189400961458333,69.0,112.0
41,20.329326273958333,20.415147132291665,71.0,127.0
42,20.553206773958333,20.629232860416668,71.0,112.0
43,20.777087273958333,20.86337455,71.0,117.0
44,21.000967773958333,21.074661771875,69.0,122.0
45,21.224848273958333,21.28968033541667,71.0,127.0
46,21.448728773958333,21.538747391666668,71.0,122.0
47,21.672609273958333,21.745370436458334,75.0,127.0
48,21.896489773958333,21.97997854375,76.0,112.0
49,22.120370273958333,22.302739597916666,78.0,127.0
50,23.015892273958336,23.10870939791667,64.0,112.0
51,23.239772773958336,23.367104808333334,64.0,112.0
52,23.463653273958336,23.616638282291667,67.0,117.0
53,23.687533773958336,23.794809846875,69.0,117.0
54,23.911414273958336,24.005164233333332,71.0,122.0
55,24.135294773958336,24.223914138541666,71.0,127.0
56,24.359175273958336,24.462720005208332,69.0,127.0
57,24.583055773958336,24.66654454375,67.0,122.0
58,24.806936273958335,24.893689967708333,71.0,127.0
59,25.030816773958335,25.126898821875,71.0,122.0
60,25.254697273958335,25.347047980208334,69.0,127.0
61,25.478577773958335,25.555536695833332,67.0,122.0
62,25.702458273958335,25.883428344791668,71.0,127.0
63,26.150219273958335,26.330722927083333,64.0,117.0
64,26.597980273958335,26.674939195833332,71.0,117.0
65,26.821860773958335,26.91839465625,71.0,99.0
66,27.045669815625,27.127256456250002,74.0,117.0
67,27.269450315625,27.3799419375,76.0,127.0
68,27.493230815625,27.58787131875,74.0,127.0
69,27.717011315625,27.793003443750003,71.0,122.0
70,27.940791815625,28.0251757125,71.0,96.0
71,28.164572315625,28.250821050000003,71.0,112.0
72,28.388352815625,28.466675990625003,71.0,122.0
73,28.612133315625,28.7207601,71.0,127.0
74,28.835913815625002,28.91377078125,69.0,96.0
75,29.059694315625002,29.1739156125,67.0,100.0
76,29.283474815625002,29.510518781250003,71.0,127.0
77,30.178596815625,30.266244178125,69.0,127.0
78,30.402377315625003,30.488159840625002,69.0,102.0
79,30.626157815625,30.716602434375,69.0,127.0
80,30.849938315625,30.938051887500002,67.0,112.0
81,31.073718815625,31.16462964375,69.0,127.0
82,31.968840815625,32.03923843125,69.0,122.0
83,32.192621315625004,32.266748606250005,69.0,99.0
84,32.416401815625,32.5045153875,69.0,127.0
85,32.640182315625,32.71617444375,67.0,112.0
86,32.863962815625,33.008487721875,69.0,127.0
87,33.535304315625,33.66910640625,59.0,102.0
88,33.759084815625,33.8882248125,71.0,117.0
89,34.057458815625,34.23415216875,71.0,127.0
90,34.355832815625,34.4775134625,69.0,127.0
91,34.654206815625,34.8318325875,67.0,117.0
92,35.101767815625,35.316224128125,66.0,127.0
93,35.549328815625,36.657042290625,64.0,127.0
94,37.563353315625,37.78853244375,79.0,127.0
95,38.010914315625,38.141452940625,78.0,127.0
96,38.234694815625005,38.39646946875,76.0,127.0
97,38.458475315625,38.652884625,71.0,112.0
98,38.906036315625,39.35948387083333,74.0,127.0
99,39.80078685729167,40.867929242708335,72.0,122.0
100,41.142869857291664,41.425266488541666,78.0,127.0
101,41.590230857291665,41.730031169791665,76.0,100.0
102,41.813911357291666,42.018485814583336,74.0,100.0
103,42.037591857291666,42.261272357291666,69.0,112.0
104,42.37311260729167,42.46258480729166,72.0,122.0
105,42.70863335729167,42.964001928125,71.0,107.0
106,43.15599435729167,43.350316791666664,69.0,102.0
107,43.37967485729167,44.118286508333334,71.0,117.0
108,44.721757857291664,44.95662238229167,76.0,122.0
109,45.169118857291664,45.301929154166665,74.0,127.0
110,45.392799357291665,45.58432578541667,72.0,117.0
111,45.616479857291665,45.89887648854167,67.0,102.0
112,46.063840857291666,46.179875116666665,71.0,117.0
113,46.287521357291666,46.517259870833335,71.0,127.0
114,46.51120185729167,46.599276054166666,69.0,127.0
115,46.95856285729167,47.045705052083335,67.0,107.0
116,47.18224335729167,47.72513457083333,69.0,127.0
117,47.85328485729167,48.014521217708335,67.0,102.0
118,48.07696535729167,48.251249746875004,69.0,122.0
119,48.30064585729167,48.42972814583334,71.0,107.0
120,48.52432635729167,48.670650684375,72.0,127.0
121,48.74800685729167,48.88920517291667,76.0,112.0
122,48.97168735729167,49.21354189791667,78.0,127.0
123,49.419048357291665,49.55512066145833,78.0,127.0
124,49.642728857291665,49.839381296875004,76.0,122.0
125,50.090089857291666,51.3002945625,78.0,127.0
126,51.87953385729167,52.143290446875,79.0,107.0
127,52.21505460729167,52.369300952083336,78.0,122.0
128,52.55057535729166,52.757013818749996,76.0,117.0
129,52.886096107291664,53.08927256145833,71.0,102.0
130,53.221616857291664,53.870756308333334,74.0,117.0
131,54.116338857291666,54.945354710416666,72.0,100.0
132,55.45842185729167,55.610338196875006,69.0,102.0
133,55.68210235729167,55.86850277395833,78.0,127.0
134,55.90578285729167,56.035331146875,76.0,107.0
135,56.12946335729167,56.301883742708334,74.0,122.0
136,56.46498410729167,56.62482246458333,69.0,107.0
137,56.80050485729167,57.019059345833334,72.0,122.0
138,57.24786585729167,58.168683915624996,71.0,127.0
139,59.03730985729167,59.256330346875004,76.0,127.0
140,59.48467085729167,59.66221725416666,74.0,117.0
141,59.70835135729167,59.84582166458333,72.0,127.0
142,59.93203185729167,60.11377226354167,67.0,112.0
143,60.37939285729166,60.53643520833333,71.0,127.0
144,60.60307335729166,60.76803772604167,69.0,127.0
145,60.938594107291664,61.080724425,69.0,127.0
146,61.274114857291664,61.403663146875004,67.0,107.0
147,61.497795357291665,61.92977832291667,69.0,127.0
148,62.168836857291666,62.236873009375,69.0,102.0
149,62.392517357291666,62.52719165833334,69.0,122.0
150,62.61619785729167,62.717320083333334,71.0,122.0
151,62.83987835729167,62.98433868020834,72.0,122.0
152,63.06355885729167,63.169807094791665,76.0,107.0
153,63.28723935729167,63.64792416354167,78.0,127.0
154,63.73460035729167,63.816616540625006,76.0,127.0
155,63.95828085729167,64.03517102916666,76.0,107.0
156,64.18196135729167,64.269569553125,78.0,127.0
157,64.40564185729167,64.49930806666667,78.0,127.0
158,64.85300285729167,64.93595104270834,76.0,122.0
159,65.07668335729167,65.21694967083333,78.0,127.0
160,65.41220410729167,65.52124835104166,78.0,127.0
161,65.74772485729167,65.83346904895834,76.0,107.0
162,65.97140535729167,66.07625559166667,78.0,127.0
163,66.30692610729167,66.40385432395834,78.0,127.0
164,66.53060660729167,66.62007880729166,76.0,117.0
165,66.86612735729167,66.99474364479167,78.0,127.0
166,67.76084935729168,67.85358356458333,64.0,112.0
167,67.98452985729168,68.111700825,64.0,112.0
168,68.208091021875,68.360825246875,67.0,117.0
169,68.431604521875,68.53870474062501,69.0,117.0
170,68.655118021875,68.7487143,71.0,122.0
171,68.87863152187501,68.967105615625,71.0,127.0
172,69.102145021875,69.205520015625,69.0,127.0
173,69.325658521875,69.40901043125,67.0,122.0
174,69.549172021875,69.635783503125,71.0,127.0
175,69.772685521875,69.868610065625,71.0,122.0
176,69.996199021875,70.088398340625,69.0,127.0
177,70.219712521875,70.2965452875,67.0,122.0
178,70.443226021875,70.623899434375,71.0,127.0
179,70.890253021875,71.07046078125,64.0,117.0
180,71.337280021875,71.4141127875,71.0,117.0
181,71.560793521875,71.65718371875,71.0,99.0
182,71.784307021875,71.86579631875,74.0,117.0
183,72.007820521875,72.1181803125,76.0,127.0
184,72.231334021875,72.32586160625,74.0,127.0
185,72.454847521875,72.53074898125,71.0,122.0
186,72.678361021875,72.7626442375,71.0,96.0
187,72.901874521875,72.98802035,71.0,112.0
188,73.125388021875,73.203617746875,71.0,122.0
189,73.348901521875,73.4573987,71.0,127.0
190,73.572415021875,73.65017909375,69.0,96.0
191,73.795928521875,73.9100135375,67.0,100.0
192,74.019442021875,74.24621509375,71.0,127.0
193,74.913496021875,75.001038809375,69.0,127.0
194,75.137009521875,75.222689696875,69.0,102.0
195,75.360523021875,75.450859728125,69.0,127.0
196,75.584036521875,75.6720449625,67.0,112.0
197,75.807550021875,75.89835238125,69.0,127.0
198,76.701604021875,76.77191764375,69.0,122.0
199,76.925117521875,76.99915636875001,69.0,99.0
200,77.148631021875,77.2366394625,69.0,127.0
201,77.372144521875,77.44804598125,67.0,112.0
202,77.595658021875,77.740010490625,69.0,127.0
203,78.266198521875,78.39984096875,59.0,102.0
204,78.48971202187501,78.6186979375,71.0,117.0
205,78.787730021875,78.96421255625,71.0,127.0
206,79.085748021875,79.2072834875,69.0,127.0
207,79.383766021875,79.5611798625,67.0,117.0
208,79.830793021875,80.04499345937501,66.0,127.0
209,80.277820021875,81.384211846875,64.0,127.0
210,105.33141227395834,105.42422939791666,64.0,112.0
211,105.55529277395834,105.68262480833333,64.0,112.0
212,105.77917327395834,105.93215828229167,67.0,117.0
213,106.00305377395833,106.110329846875,69.0,117.0
214,106.22693427395834,106.32068423333334,71.0,122.0
215,106.45081477395834,106.53943413854167,71.0,127.0
216,106.67469527395833,106.77824000520833,69.0,127.0
217,106.89857577395834,106.98206454375,67.0,122.0
218,107.12245627395833,107.20920996770833,71.0,127.0
219,107.34633677395834,107.44241882187501,71.0,122.0
220,107.57021727395833,107.66256798020834,69.0,127.0
221,107.79409777395834,107.87105669583333,67.0,122.0
222,108.01797827395833,108.19894834479167,71.0,127.0
223,108.46573927395833,108.64624292708334,64.0,117.0
224,108.91350027395833,108.99045919583334,71.0,117.0
225,109.13738077395834,109.23392923958333,71.0,99.0
226,109.36126127395833,109.44288437291667,74.0,117.0
227,109.58514177395834,109.69568277083334,76.0,127.0
228,109.80902227395833,109.90370506875,74.0,127.0
229,110.03290277395834,110.10892886041667,71.0,122.0
230,110.25678327395833,110.34120487916667,71.0,96.0
231,110.48066377395834,110.56695105,71.0,112.0
232,110.70454427395833,110.78290244895834,71.0,122.0
233,110.92842477395834,111.0371001,71.0,127.0
234,111.15230527395833,111.23019703125,69.0,96.0
235,111.37618577395834,111.49045811250001,67.0,100.0
236,111.60006627395833,111.82721169791667,71.0,127.0
237,112.49558827395833,112.58327480312501,69.0,127.0
238,112.71946877395834,112.80528963229168,69.0,102.0
239,112.94334927395833,113.03383430937501,69.0,127.0
240,113.16722977395834,113.25538272083334,67.0,112.0
241,113.39111027395833,113.48206172708333,69.0,127.0
242,114.28663227395833,114.35706134791667,69.0,122.0
243,114.51051277395834,114.58467318958333,69.0,99.0
244,114.73439327395833,114.82254622083333,69.0,127.0
245,114.95827377395834,115.03429986041667,67.0,112.0
246,115.18215427395833,115.32674376354167,69.0,127.0
247,116.07767627395833,116.15323594270833,71.0,127.0
248,116.30155677395834,116.38038136666667,71.0,102.0
249,116.52543727395833,116.61265738541667,71.0,117.0
250,116.74931777395834,116.83327296145833,69.0,112.0
251,116.97319827395833,117.05901913229167,71.0,127.0
252,117.19707877395834,117.27310486041667,71.0,112.0
253,117.42095927395833,117.50724655,71.0,117.0
254,117.64483977395834,117.718533771875,69.0,122.0
255,117.86872027395833,117.93355233541666,71.0,127.0
256,118.09260077395834,118.18261939166666,71.0,122.0
257,118.31648127395833,118.38924243645833,75.0,127.0
258,118.54036177395834,118.62385054375,76.0,112.0
259,118.76424227395833,118.94661159791667,78.0,127.0
260,119.65976427395833,119.75258139791667,64.0,112.0
261,119.88364477395834,120.01097680833334,64.0,112.0
262,120.10752527395834,120.26051028229168,67.0,117.0
263,120.33140577395834,120.438681846875,69.0,117.0
264,120.55528627395833,120.64903623333333,71.0,122.0
265,120.77916677395834,120.86778613854167,71.0,127.0
266,121.00304727395834,121.10659200520834,69.0,127.0
267,121.22692777395834,121.31041654375,67.0,122.0
268,121.45080827395833,121.53756196770834,71.0,127.0
269,121.67468877395834,121.770770821875,71.0,122.0
270,121.89856927395834,121.99091998020833,69.0,127.0
271,122.12244977395834,122.19940869583334,67.0,122.0
272,122.34633027395833,122.52730034479167,71.0,127.0
273,122.79409127395834,122.97459492708333,64.0,117.0
274,123.24185227395833,123.31881119583333,71.0,117.0
275,123.46573277395834,123.56225688541667,71.0,99.0
276,123.68949393854167,123.77105615208335,74.0,117.0
277,123.91320743854168,124.02366597916668,76.0,127.0
278,124.13692093854168,124.23153310625001,74.0,127.0
279,124.36063443854167,124.43660381458334,71.0,122.0
280,124.58434793854167,124.66870657083334,71.0,96.0
281,124.80806143854167,124.89428435,71.0,112.0
282,125.03177493854167,125.11007466354167,71.0,122.0
283,125.25548843854168,125.36408270000001,71.0,127.0
284,125.47920193854168,125.55703559375,69.0,96.0
285,125.70291543854168,125.8171025375,67.0,100.0
286,125.92662893854167,126.15360492708334,71.0,127.0
287,126.82148293854168,126.90910405937501,69.0,127.0
288,127.04519643854168,127.13095328020835,69.0,102.0
289,127.26890993854167,127.35932747812501,69.0,127.0
290,127.49262343854167,127.58071062916667,67.0,112.0
291,127.71633693854167,127.80722054791667,69.0,127.0
292,128.61119093854168,128.68156747708335,69.0,122.0
293,128.83490443854168,128.9090095354167,69.0,99.0
294,129.0586179385417,129.14670512916666,69.0,127.0
295,129.28233143854166,129.35830081458334,67.0,112.0
296,129.50604493854166,129.65052657395833,69.0,127.0
297,130.17718543854167,130.31094746875002,59.0,102.0
298,130.40089893854167,130.53000027083334,71.0,117.0
299,130.69918360520833,130.87582405625,71.0,127.0
300,130.997468271875,131.11911248750002,69.0,127.0
301,131.29575293854168,131.4733255291667,67.0,117.0
302,131.7431799385417,131.95757204270834,66.0,127.0
303,132.19060693854166,133.29798876354167,64.0,127.0
304,134.20402843854168,134.42914014791668,79.0,127.0
305,134.6514554385417,134.78195498020835,78.0,127.0
306,134.87516893854166,135.03689515625,76.0,127.0
307,135.09888243854166,135.29323354166667,71.0,112.0
308,135.54630943854167,135.99979534583335,74.0,127.0
309,136.44116343854168,137.50846326145833,72.0,122.0
310,137.78344443854166,138.06588273229167,78.0,127.0
311,138.23087143854167,138.3706923760417,76.0,100.0
312,138.45458493854167,138.65918957708334,74.0,100.0
313,138.67829843854167,138.90201193854168,69.0,112.0
314,139.01386868854166,139.10335408854166,72.0,122.0
315,139.34943893854168,139.604845184375,71.0,107.0
316,139.79686593854169,139.9912170416667,69.0,102.0
317,140.0205794385417,140.75930005833334,71.0,117.0
318,141.36286043854167,141.59775961354168,76.0,122.0
319,141.81028743854168,141.94311732916668,74.0,127.0
320,142.03400093854168,142.22555562291666,72.0,117.0
321,142.25771443854168,142.5401527322917,67.0,102.0
322,142.70514143854166,142.82119281666667,71.0,117.0
323,142.92885493854166,143.15862734583334,71.0,127.0
324,143.15256843854166,143.24065562916667,69.0,127.0
325,143.59999543854167,143.68715048958333,67.0,107.0
326,143.82370893854167,144.36668024583335,69.0,127.0
327,144.49484943854168,144.65610958645834,67.0,102.0
328,144.71856293854168,144.892873040625,69.0,122.0
329,144.94227643854168,145.07137777083335,71.0,107.0
330,145.16598993854168,145.312335853125,72.0,127.0
331,145.3897034385417,145.53092258541668,76.0,112.0
332,145.61341693854166,145.8553071604167,78.0,127.0
333,146.06084393854167,146.19693631770835,78.0,127.0
334,146.28455743854167,146.481238890625,76.0,122.0
335,146.73198443854167,147.9423676875,78.0,127.0
336,148.52169243854166,148.78548794062502,79.0,107.0
337,148.85726268854168,149.01153178958333,78.0,122.0
338,149.19283293854167,149.39930185625002,76.0,117.0
339,149.5284031885417,149.73160961770833,71.0,102.0
340,149.86397343854168,150.51320865833333,74.0,117.0
341,150.7588274385417,151.58796559791668,72.0,100.0
342,152.10110843854167,152.253047190625,69.0,102.0
343,152.32482193854167,152.51124985520835,78.0,127.0
344,152.54853543854168,152.678102840625,76.0,107.0
345,152.77224893854168,152.94469476145835,74.0,122.0
346,153.10781918854167,153.26768112708334,69.0,107.0
347,153.4433894385417,153.66197617083333,72.0,122.0
348,153.89081643854166,154.811770346875,71.0,127.0
349,155.68052443854168,155.899577240625,76.0,127.0
350,156.1279514385417,156.3055240291667,74.0,117.0
351,156.35166493854166,156.48915552708334,72.0,127.0
352,156.5753784385417,156.7571456572917,67.0,112.0
353,157.02280543854167,157.17987095833334,71.0,127.0
354,157.24651893854167,157.41150764479167,69.0,127.0
355,157.58208918854166,157.72424047500002,69.0,127.0
356,157.91765943854168,158.047226840625,67.0,107.0
357,158.14137293854168,158.57341963541668,69.0,127.0
358,158.81251343854166,158.880559628125,69.0,102.0
359,159.0362269385417,159.17092110833335,69.0,122.0
360,159.25994043854166,159.36107758333333,71.0,122.0
361,159.48365393854166,159.62813557395833,72.0,122.0
362,159.70736743854167,159.81363135104166,76.0,107.0
363,159.93108093854167,160.29181895729167,78.0,127.0
364,160.37850793854167,160.460536221875,76.0,127.0
365,160.60222143854168,160.67912295416667,76.0,107.0
366,160.82593493854168,160.91355605937503,78.0,127.0
367,161.04964843854168,161.14332846666667,78.0,127.0
368,161.49707543854169,161.58003586145833,76.0,122.0
369,161.72078893854166,161.86107594583333,78.0,127.0
370,162.05635918854168,162.16541951979167,78.0,127.0
371,162.39192943854167,162.47768628020833,76.0,107.0
372,162.61564293854167,162.72050864166667,78.0,127.0
373,162.95121318854166,163.04815570520833,78.0,127.0
374,163.1749266885417,163.2644120885417,76.0,117.0
375,163.51049693854168,163.63913220104166,78.0,127.0
376,164.62906443854166,164.8541761479167,79.0,127.0
377,165.07649143854167,165.20699098020833,78.0,127.0
378,165.30020493854167,165.46193115625002,76.0,127.0
379,165.52391843854167,165.71826954166667,71.0,112.0
380,165.97134543854168,166.42483134583335,74.0,127.0
381,166.86619943854168,167.93349926145834,72.0,122.0
382,168.20848043854167,168.49091873229168,78.0,127.0
383,168.65590743854167,168.79572837604167,76.0,100.0
384,168.87962093854168,169.08422557708334,74.0,100.0
385,169.10333443854168,169.32704793854168,69.0,112.0
386,169.43890468854167,169.52839008854167,72.0,122.0
387,169.7744749385417,170.029881184375,71.0,107.0
388,170.2219019385417,170.41625304166666,69.0,102.0
389,170.44561543854167,171.18433605833334,71.0,117.0
390,171.78789643854168,172.0227956135417,76.0,122.0
391,172.23532343854168,172.36815332916666,74.0,127.0
392,172.45903693854166,172.65059162291666,72.0,117.0
393,172.6827504385417,172.96518873229167,67.0,102.0
394,173.13017743854166,173.24622881666667,71.0,117.0
395,173.35389093854167,173.58366334583334,71.0,127.0
396,173.57760443854167,173.66569162916667,69.0,127.0
397,174.02503143854167,174.11218648958334,67.0,107.0
398,174.24874493854168,174.79171624583336,69.0,127.0
399,174.91988543854168,175.08114558645835,67.0,102.0
400,175.1435989385417,175.317909040625,69.0,122.0
401,175.36731243854166,175.49641377083333,71.0,107.0
402,175.5910259385417,175.737371853125,72.0,127.0
403,175.81473943854166,175.95595858541668,76.0,112.0
404,176.03845293854167,176.2803431604167,78.0,127.0
405,176.48587993854167,176.62197231770836,78.0,127.0
406,176.70959343854167,176.906274890625,76.0,122.0
407,177.15702043854168,178.3674036875,78.0,127.0
408,178.94672843854167,179.21052394062502,79.0,107.0
409,179.2822986885417,179.43656778958334,78.0,122.0
410,179.61786893854168,179.82433785625,76.0,117.0
411,179.95343918854167,180.15664561770834,71.0,102.0
412,180.28900943854168,180.93824465833333,74.0,117.0
413,181.18386343854166,182.01300159791668,72.0,100.0
414,182.52614443854168,182.67808319062502,69.0,102.0
415,182.74985793854168,182.93628585520833,78.0,127.0
416,182.97357143854168,183.103138840625,76.0,107.0
417,183.19728493854169,183.36973076145836,74.0,122.0
418,183.53285518854167,183.69271712708334,69.0,107.0
419,183.8684254385417,184.08701217083333,72.0,122.0
420,184.31585243854167,185.236806346875,71.0,127.0
421,186.10556043854166,186.324613240625,76.0,127.0
422,186.55298743854166,186.73056002916667,74.0,117.0
423,186.77670093854167,186.91419152708335,72.0,127.0
424,187.00041443854167,187.18218165729166,67.0,112.0
425,187.44784143854167,187.60490695833334,71.0,127.0
426,187.67155493854168,187.83654364479167,69.0,127.0
427,188.0071251885417,188.14927647500002,69.0,127.0
428,188.34269543854168,188.472262840625,67.0,107.0
429,188.56640893854166,188.9984556354167,69.0,127.0
430,189.2375494385417,189.305595628125,69.0,102.0
431,189.46126293854167,189.59595710833332,69.0,122.0
432,189.6849764385417,189.78611358333336,71.0,122.0
433,189.90868993854167,190.05317157395834,72.0,122.0
434,190.13240343854167,190.23866735104167,76.0,107.0
435,190.35611693854167,190.71685495729167,78.0,127.0
436,190.80354393854168,190.885572221875,76.0,127.0
437,191.02725743854168,191.10415895416668,76.0,107.0
438,191.25097093854168,191.338592059375,78.0,127.0
439,191.58654118854167,191.68022121666667,78.0,127.0
440,191.92211143854166,192.00507186145836,76.0,122.0
441,192.1458249385417,192.28611194583334,78.0,127.0
442,192.48139518854168,192.59045551979167,78.0,127.0
443,192.81696543854167,192.90272228020834,76.0,107.0
444,193.04067893854167,193.14554464166667,78.0,127.0
445,193.3762491885417,193.47319170520834,78.0,127.0
446,193.71181943854168,193.80130483854168,76.0,117.0
447,193.93553293854166,194.0641682010417,78.0,127.0
448,194.83038693854166,194.92313482708335,64.0,112.0
449,195.0541004385417,195.18133749166668,64.0,112.0
450,195.27781393854167,195.43068483020835,67.0,117.0
451,195.50152743854167,195.608723490625,69.0,117.0
452,195.72524093854167,195.81892096666667,71.0,122.0
453,195.94895443854168,196.03750769895834,71.0,127.0
454,196.17266793854168,196.27613543229168,69.0,127.0
455,196.39638143854168,196.47980793125,67.0,122.0
456,196.62009493854168,196.7067839197917,71.0,127.0
457,196.84380843854166,196.93981881562502,71.0,122.0
458,197.0675219385417,197.15980375729168,69.0,127.0
459,197.29123543854166,197.3681369541667,67.0,122.0
460,197.5149489385417,197.69578401770835,71.0,127.0
461,197.96237593854167,198.1427449479167,64.0,117.0
462,198.40980293854167,198.48670445416667,71.0,117.0
463,198.63351643854168,198.72999288541666,71.0,99.0
464,198.85722993854168,198.93879215208335,74.0,117.0
465,199.08094343854168,199.19140197916667,76.0,127.0
466,199.30465693854165,199.39926910625002,74.0,127.0
467,199.52837043854169,199.60433981458334,71.0,122.0
468,199.75208393854166,199.83644257083336,71.0,96.0
469,199.9757974385417,200.06202035,71.0,112.0
470,200.19951093854166,200.2778106635417,71.0,122.0
471,200.4232244385417,200.5318187,71.0,127.0
472,200.64693793854167,200.72477159375,69.0,96.0
473,200.87065143854167,200.98483853750002,67.0,100.0
474,201.09436493854167,201.32134092708333,71.0,127.0
475,201.98921893854168,202.076840059375,69.0,127.0
476,202.21293243854166,202.29868928020835,69.0,102.0
477,202.4366459385417,202.527063478125,69.0,127.0
478,202.66035943854166,202.74844662916666,67.0,112.0
479,202.8840729385417,202.9749565479167,69.0,127.0
480,203.77892693854167,203.84930347708334,69.0,122.0
481,204.00264043854168,204.07674553541668,69.0,99.0
482,204.22635393854168,204.31444112916668,69.0,127.0
483,204.45006743854168,204.52603681458334,67.0,112.0
484,204.67378093854168,204.81826257395835,69.0,127.0
485,205.3449214385417,205.47868346875,59.0,102.0
486,205.56863493854166,205.69773627083333,71.0,117.0
487,205.86691960520835,206.04356005625002,71.0,127.0
488,206.165204271875,206.2868484875,69.0,127.0
489,206.46348893854167,206.64106152916668,67.0,117.0
490,206.91091593854168,207.8057699385417,66.0,127.0
491,207.8057699385417,208.9131517635417,64.0,127.0
