,start,end,pitch,velocity
0,1.5066383520833335,2.077880072916667,40.0,93.0
1,1.9554043520833335,2.1068628770833335,52.0,65.0
2,1.9554043520833335,2.1185494916666667,59.0,65.0
3,2.6285533520833333,3.0338451458333333,47.0,66.0
4,2.1797873520833333,3.125468204166667,40.0,69.0
5,2.8529363520833333,3.289548272916667,55.0,74.0
6,2.8529363520833333,3.32227079375,59.0,73.0
7,3.3017023520833337,3.8308722604166667,40.0,72.0
8,3.9748513520833337,4.31516556875,40.0,69.0
9,3.7504683520833337,4.4399786125,55.0,69.0
10,3.7504683520833337,4.44418579375,59.0,66.0
11,3.7504683520833337,4.4511977625000005,52.0,63.0
12,4.423617352083333,5.0000011833333335,40.0,83.0
13,4.648000352083334,5.103778320833333,52.0,71.0
14,4.648000352083334,5.105180714583334,55.0,58.0
15,4.648000352083334,5.131826195833334,59.0,64.0
16,5.096766352083334,5.611912322916667,40.0,78.0
17,5.545532352083334,5.809182377083333,55.0,66.0
18,5.545532352083334,5.840035039583333,52.0,65.0
19,5.545532352083334,5.915296837500001,59.0,63.0
20,5.769915352083333,6.546841489583334,40.0,58.0
21,6.443064352083334,6.935772022916667,52.0,71.0
22,6.443064352083334,6.9362394875,59.0,71.0
23,6.443064352083334,6.954003141666667,55.0,74.0
24,6.891830352083334,7.402769141666667,40.0,79.0
25,7.564979352083334,7.825357125,40.0,71.0
26,7.340596352083334,8.038053510416667,52.0,67.0
27,7.340596352083334,8.0413257625,55.0,69.0
28,7.340596352083334,8.055817164583333,59.0,70.0
29,8.238128352083335,8.496636266666668,55.0,97.0
30,8.013745352083333,8.500843447916667,40.0,97.0
31,8.238128352083335,8.510660204166667,59.0,96.0
32,9.135301273958333,9.401159367708333,59.0,95.0
33,9.135301273958333,9.410021304166667,67.0,90.0
34,9.135301273958333,9.418883240625,64.0,95.0
35,8.686894352083334,9.479051125,40.0,97.0
36,9.471122023958333,9.62457345,59.0,85.0
37,9.471122023958333,9.643696576041666,64.0,89.0
38,9.471122023958333,9.660021195833334,67.0,85.0
39,9.583062273958333,9.673080891666666,47.0,59.0
40,9.583062273958333,9.679144321875,52.0,74.0
41,9.806942773958333,10.405823111458334,52.0,92.0
42,9.806942773958333,10.456196223958333,47.0,81.0
43,10.254703773958333,10.514032019791667,59.0,100.0
44,10.030823273958333,10.56767005625,64.0,96.0
45,10.030823273958333,10.580263334375001,67.0,97.0
46,10.478584273958333,11.203863810416667,40.0,88.0
47,10.926345273958333,11.207128734375,52.0,70.0
48,10.926345273958333,11.235113796875,64.0,97.0
49,10.926345273958333,11.238845138541667,67.0,97.0
50,11.038285523958333,11.274759302083334,47.0,26.0
51,11.150225773958333,11.292949592708332,59.0,66.0
52,11.374106273958333,11.472053992708332,64.0,99.0
53,11.374106273958333,11.475318916666666,40.0,79.0
54,11.374106273958333,11.476718169791667,59.0,100.0
55,11.374106273958333,11.479050258333334,47.0,63.0
56,11.374106273958333,11.47998309375,52.0,93.0
57,11.374106273958333,11.486046523958333,67.0,93.0
58,11.821867273958333,11.945001548958334,40.0,71.0
59,11.821867273958333,11.964591092708334,47.0,65.0
60,11.821867273958333,11.999572420833333,52.0,90.0
61,11.821867273958333,12.00610226875,64.0,99.0
62,11.821867273958333,12.009833610416667,67.0,93.0
63,11.821867273958333,12.015897040625,59.0,100.0
64,12.717389273958332,12.991642886458333,62.0,85.0
65,12.717389273958332,12.992109304166668,59.0,85.0
66,12.717389273958332,12.993974975,55.0,90.0
67,12.269628273958332,13.032221227083333,43.0,90.0
68,12.493508773958332,13.103583136458333,50.0,62.0
69,13.165150273958332,13.265430081249999,43.0,92.0
70,13.053210023958332,13.387165103125,55.0,81.0
71,13.053210023958332,13.417015836458333,59.0,75.0
72,13.053210023958332,13.4361389625,62.0,78.0
73,13.389030773958332,13.916549202083333,43.0,97.0
74,13.612911273958334,14.084925994791668,59.0,97.0
75,13.612911273958334,14.097985690625,62.0,97.0
76,13.836791773958334,14.121306576041667,55.0,86.0
77,14.060672273958334,14.792481658333333,43.0,96.0
78,14.732313773958333,14.865709238541667,55.0,88.0
79,14.284552773958334,14.892295047916667,50.0,72.0
80,14.508433273958333,14.968321134375,59.0,88.0
81,14.508433273958333,14.987910678125,62.0,93.0
82,14.956194273958333,15.022425588541667,43.0,60.0
83,15.180074773958333,15.653022330208334,43.0,77.0
84,15.403955273958333,15.788749883333335,59.0,86.0
85,15.403955273958333,15.806940173958333,62.0,90.0
86,15.627835773958333,15.825596882291666,55.0,79.0
87,15.851716273958333,16.63016742916667,45.0,90.0
88,16.075596773958335,16.674477111458334,52.0,58.0
89,16.299477273958335,16.787350196875,60.0,89.0
90,16.635298023958335,16.789215867708332,57.0,95.0
91,16.299477273958335,16.801342728125,64.0,85.0
92,16.747238273958335,16.833059132291666,45.0,97.0
93,16.971118773958334,17.489308847916668,45.0,92.0
94,17.19499927395833,17.602181933333334,60.0,95.0
95,17.19499927395833,17.605913275,64.0,95.0
96,17.418879773958334,17.613375958333336,57.0,88.0
97,17.642760273958334,18.360110709375,45.0,96.0
98,18.314401773958334,18.438002466666667,57.0,99.0
99,17.866640773958334,18.45012932708333,52.0,67.0
100,18.090521273958334,18.471118123958334,60.0,89.0
101,18.090521273958334,18.489308414583334,64.0,95.0
102,18.538282273958334,19.046677576041667,45.0,72.0
103,18.762162773958334,19.190800647916667,52.0,99.0
104,19.097983523958334,19.324662530208336,57.0,97.0
105,18.986043273958334,19.357311769791664,60.0,92.0
106,18.986043273958334,19.360110276041667,64.0,88.0
107,19.321864023958334,20.157684557291667,47.0,75.0
108,19.881565273958334,20.167012911458336,66.0,95.0
109,19.881565273958334,20.171210670833332,59.0,72.0
110,19.881565273958334,20.171210670833332,63.0,95.0
111,19.657684773958334,20.313468071875,54.0,89.0
112,20.217386023958333,20.365706855208334,59.0,89.0
113,20.217386023958333,20.36803894375,63.0,73.0
114,20.217386023958333,20.37083745,66.0,69.0
115,20.329326273958333,20.48324411770833,47.0,86.0
116,20.441266523958333,20.48324411770833,47.0,74.0
117,20.553206773958333,21.079792366666666,54.0,93.0
118,21.000967773958333,21.232777374999998,59.0,89.0
119,20.777087273958333,21.250967665624998,66.0,99.0
120,20.777087273958333,21.262161690625,63.0,112.0
121,21.672609273958333,21.804139067708334,63.0,112.0
122,21.672609273958333,21.804139067708334,66.0,102.0
123,21.672609273958333,21.807403991666668,59.0,95.0
124,21.224848273958333,21.965519594791665,47.0,100.0
125,21.448728773958333,21.97951212604167,54.0,100.0
126,21.896489773958333,22.08678819895833,63.0,117.0
127,21.896489773958333,22.088187452083332,66.0,112.0
128,21.896489773958333,22.1003143125,59.0,97.0
129,22.344250773958333,22.47204922604167,66.0,112.0
130,22.344250773958333,22.474381314583333,59.0,93.0
131,22.344250773958333,22.476246985416665,63.0,112.0
132,22.344250773958333,22.479978327083334,54.0,93.0
133,22.568131273958336,22.70525808020833,66.0,122.0
134,22.568131273958336,22.709455839583335,63.0,122.0
135,22.568131273958336,22.71318718125,59.0,95.0
136,22.008430023958333,22.788280432291668,47.0,95.0
137,22.568131273958336,22.90908261875,54.0,127.0
138,22.792011773958336,22.951993047916666,63.0,122.0
139,22.792011773958336,22.952925883333336,59.0,95.0
140,22.792011773958336,22.971116173958336,66.0,117.0
141,23.463653273958336,23.71738450729167,59.0,96.0
142,23.463653273958336,23.722981519791666,67.0,83.0
143,23.463653273958336,23.724380772916668,64.0,89.0
144,23.015892273958336,23.83258968125,40.0,97.0
145,23.239772773958336,23.877832198958334,47.0,69.0
146,23.911414273958336,24.0256866125,52.0,58.0
147,23.799474023958332,24.131563432291667,59.0,82.0
148,23.799474023958332,24.187533557291665,67.0,83.0
149,23.799474023958332,24.188466392708335,64.0,82.0
150,24.583055773958336,24.796675084375,59.0,81.0
151,24.135294773958336,24.797141502083335,47.0,95.0
152,24.359175273958336,24.824193729166666,64.0,93.0
153,24.359175273958336,24.834921336458333,67.0,89.0
154,24.806936273958335,25.692663502083334,40.0,95.0
155,25.254697273958335,25.726711994791668,67.0,88.0
156,25.590518023958335,25.729044083333335,59.0,96.0
157,25.254697273958335,25.730909754166667,64.0,95.0
158,25.702458273958335,25.943129811458334,47.0,92.0
159,26.150219273958335,26.394622153125,59.0,93.0
160,26.150219273958335,26.397887077083332,64.0,95.0
161,26.150219273958335,26.406749013541667,67.0,92.0
162,26.150219273958335,26.423540051041666,47.0,96.0
163,26.597980273958335,27.399988940625,43.0,92.0
164,27.045669815625,27.4246980375,59.0,92.0
165,27.045669815625,27.448940925000002,62.0,92.0
166,26.821860773958335,27.457798903125003,50.0,63.0
167,27.381340565625003,27.5179399125,55.0,99.0
168,27.493230815625,28.205598740625,43.0,96.0
169,27.717011315625,28.325880759375,50.0,100.0
170,27.940791815625,28.38788660625,59.0,90.0
171,28.164572315625,28.3944135375,55.0,96.0
172,27.940791815625,28.396744584375,62.0,89.0
173,28.388352815625,29.138949909375,43.0,90.0
174,28.612133315625,29.246644275,50.0,73.0
175,28.835913815625002,29.297927306250003,59.0,93.0
176,28.835913815625002,29.3417509875,62.0,95.0
177,29.171584565625,29.34827791875,55.0,95.0
178,29.283474815625002,29.823345271875002,43.0,88.0
179,29.507255315625002,29.872763465625003,50.0,100.0
180,29.731035815625003,30.147360787500002,59.0,97.0
181,29.731035815625003,30.163678115625,62.0,100.0
182,30.178596815625,30.924998025,45.0,86.0
183,30.626157815625,31.039219321875002,60.0,93.0
184,30.402377315625003,31.046678671875,52.0,69.0
185,30.626157815625,31.0760498625,64.0,88.0
186,30.961828565625,31.102157587500002,57.0,95.0
187,31.073718815625,31.867207171875002,45.0,92.0
188,31.297499315625,31.9376047875,52.0,107.0
189,31.521279815625,32.03923843125,64.0,79.0
190,31.521279815625,32.049028828125,60.0,83.0
191,31.745060315625,32.055555759375004,57.0,95.0
192,31.968840815625,32.7245662125,45.0,89.0
193,32.640182315625,32.827598484375,57.0,96.0
194,32.192621315625004,32.8401861375,52.0,82.0
195,32.416401815625,33.13016836875,64.0,81.0
196,32.416401815625,33.1366953,60.0,92.0
197,32.863962815625,33.60383709375,45.0,83.0
198,33.311523815625,33.68588994375,60.0,96.0
199,33.535304315625,33.69707896875,57.0,95.0
200,33.311523815625,33.703139690625,64.0,92.0
201,33.087743315625005,33.732977090625,52.0,95.0
202,33.759084815625,33.892420696875,47.0,127.0
203,33.759084815625,33.900812465625,66.0,122.0
204,33.759084815625,33.90967044375,59.0,99.0
205,34.057458815625,34.242077728125004,47.0,112.0
206,34.057458815625,34.242077728125004,66.0,107.0
207,34.057458815625,34.254199171875,59.0,96.0
208,34.355832815625,34.492898371875,45.0,112.0
209,34.355832815625,34.494763209375,57.0,117.0
210,34.654206815625,34.887777712500004,43.0,96.0
211,34.654206815625,34.928337928125,55.0,107.0
212,35.101767815625,35.351189831250004,54.0,122.0
213,35.101767815625,35.354453296875,42.0,102.0
214,35.549328815625,35.64956383125,40.0,86.0
215,35.549328815625,35.650030040625,52.0,107.0
216,35.773109315625,35.888263031250005,52.0,97.0
217,35.773109315625,35.89572238125,40.0,82.0
218,35.996889815625,36.158198259375,55.0,97.0
219,35.996889815625,36.19969089375,43.0,96.0
220,36.220670315625,36.388039481250004,57.0,93.0
221,36.220670315625,36.395965040625,45.0,89.0
222,36.444450815625004,36.565665253125005,47.0,97.0
223,36.444450815625004,36.566597671875,59.0,95.0
224,36.668231315625,36.840262575,47.0,88.0
225,36.668231315625,36.854715065625,59.0,89.0
226,36.892011815625,37.0770969375,45.0,102.0
227,36.892011815625,37.085022496875,57.0,127.0
228,37.115792315625,37.24679715,43.0,102.0
229,37.115792315625,37.270573828125,55.0,100.0
230,37.339572815625004,37.61976465,52.0,117.0
231,37.339572815625004,37.644473746875,40.0,96.0
232,38.794146065625,38.865942309375,45.0,21.0
233,39.12974535729167,39.9093651,45.0,102.0
234,39.57710635729167,40.017011340625,60.0,100.0
235,39.35342585729167,40.01747734166666,52.0,82.0
236,39.57710635729167,40.017943342708335,64.0,95.0
237,39.91262710729167,40.04963141354167,57.0,102.0
238,40.24814785729166,40.53101048958333,52.0,117.0
239,40.02446735729167,40.545456521874996,45.0,112.0
240,40.47182835729166,40.80129109375,64.0,95.0
241,40.47182835729166,40.88470528020833,60.0,107.0
242,40.695508857291664,40.98116749583333,57.0,112.0
243,40.807349107291664,41.57951283333333,38.0,86.0
244,41.142869857291664,41.754729225,45.0,76.0
245,41.366550357291665,41.79061130520833,66.0,112.0
246,41.366550357291665,41.801795330208336,62.0,100.0
247,41.702071107291665,41.87309348958333,57.0,112.0
248,41.813911357291666,41.876821497916666,62.0,31.0
249,41.813911357291666,42.467244817708334,38.0,88.0
250,42.037591857291666,42.53854297708333,45.0,73.0
251,42.261272357291666,42.642461209375,50.0,77.0
252,42.48495285729167,42.679741292708336,57.0,112.0
253,42.261272357291666,42.68067329479167,66.0,107.0
254,42.261272357291666,42.715157371875,62.0,97.0
255,42.70863335729167,43.4714770625,43.0,92.0
256,42.93231385729167,43.562347265625,50.0,82.0
257,43.15599435729167,43.56933728125,59.0,96.0
258,43.15599435729167,43.5833173125,62.0,95.0
259,43.49151510729167,43.627587411458336,55.0,102.0
260,43.82703585729167,44.121548515625,50.0,102.0
261,43.60335535729167,44.130402535416664,43.0,92.0
262,44.05071635729166,44.416993176041665,59.0,97.0
263,44.05071635729166,44.428643202083336,62.0,97.0
264,44.27439685729166,44.50320336875,55.0,102.0
265,44.49807735729166,45.259523059375,40.0,93.0
266,44.721757857291664,45.30798716770833,47.0,73.0
267,44.945438357291664,45.388139346875,59.0,95.0
268,44.945438357291664,45.40817739166667,64.0,96.0
269,45.280959107291665,45.444525472916666,55.0,112.0
270,45.392799357291665,45.899808490625,40.0,86.0
271,45.616479857291665,45.95339861041667,47.0,107.0
272,45.840160357291666,46.20131116458333,59.0,93.0
273,45.840160357291666,46.23299923541666,64.0,97.0
274,46.063840857291666,46.24418326041667,55.0,102.0
275,46.287521357291666,47.02706501041666,45.0,85.0
276,46.73488235729167,47.138439259375,60.0,96.0
277,46.51120185729167,47.158011303125,52.0,83.0
278,46.73488235729167,47.162671313541665,64.0,93.0
279,47.07040310729167,47.217659436458334,57.0,107.0
280,47.18224335729167,47.890564940625,45.0,96.0
281,47.40592385729167,48.030365253125,52.0,99.0
282,47.85328485729167,48.05879131666667,57.0,112.0
283,47.62960435729167,48.08675137916667,60.0,99.0
284,47.62960435729167,48.08768338125,64.0,95.0
285,48.07696535729167,48.800664975000004,45.0,95.0
286,48.74800685729167,48.862643113541665,57.0,107.0
287,48.52432635729167,48.892467180208335,60.0,96.0
288,48.30064585729167,48.90178720104167,52.0,100.0
289,48.52432635729167,48.90598121041667,64.0,99.0
290,48.85984710729167,49.500598539583336,45.0,100.0
291,49.419048357291665,49.72521104166667,60.0,107.0
292,49.419048357291665,49.73639506666667,64.0,102.0
293,49.195367857291664,49.77414115104167,52.0,102.0
294,49.642728857291665,49.823537261458334,57.0,112.0
295,49.754569107291665,50.54816888125,47.0,86.0
296,50.313770357291666,50.68424118541667,66.0,117.0
297,50.313770357291666,50.722453270833334,63.0,122.0
298,50.090089857291666,50.72664728020833,54.0,97.0
299,50.53745085729167,50.804003453125,59.0,96.0
300,50.98481185729167,51.309614583333335,66.0,117.0
301,50.98481185729167,51.31427459375,63.0,117.0
302,50.64929110729167,51.452676903125,47.0,81.0
303,51.09665210729167,51.470384942708336,54.0,59.0
304,51.43217285729167,51.71643349270833,59.0,122.0
305,51.43217285729167,51.736005536458336,63.0,122.0
306,51.43217285729167,51.741131547916666,66.0,122.0
307,51.65585335729167,51.93824998854167,47.0,86.0
308,51.65585335729167,51.94430800208333,54.0,107.0
309,51.87953385729167,51.97972408125,59.0,122.0
310,51.87953385729167,51.98438409166667,63.0,127.0
311,51.87953385729167,51.989976104166665,66.0,127.0
312,52.21505460729167,52.39819301666667,63.0,99.0
313,52.21505460729167,52.40797903854167,66.0,99.0
314,52.21505460729167,52.408445039583334,59.0,88.0
315,52.55057535729166,52.86326205625,66.0,112.0
316,52.55057535729166,52.866990064583334,59.0,99.0
317,52.55057535729166,52.870252071875,63.0,99.0
318,52.21505460729167,52.920580184375,54.0,83.0
319,52.32689485729166,53.02915842708333,47.0,45.0
320,52.997936357291664,53.22581086666666,63.0,127.0
321,52.997936357291664,53.25563493333333,66.0,127.0
322,52.997936357291664,53.382387216666665,59.0,102.0
323,53.445297357291665,54.18297700625,45.0,90.0
324,53.668977857291665,54.207209060416666,52.0,76.0
325,53.780818107291665,54.441141583333334,64.0,107.0
326,53.780818107291665,54.4541896125,60.0,102.0
327,54.116338857291666,54.47562566041667,57.0,99.0
328,54.56369985729167,54.842368480208336,52.0,90.0
329,54.340019357291666,54.89409459583334,45.0,93.0
330,54.78738035729167,55.14293915208333,64.0,99.0
331,54.78738035729167,55.23380935520834,60.0,107.0
332,55.01106085729167,55.322349553125,57.0,107.0
333,55.90578285729167,56.176063461458334,57.0,107.0
334,55.68210235729167,56.253885635416665,66.0,107.0
335,55.68210235729167,56.25854564583334,62.0,100.0
336,55.23474135729167,56.537680269791665,38.0,92.0
337,56.35314385729167,56.638336494791666,57.0,112.0
338,56.12946335729167,56.6686265625,50.0,92.0
339,55.57026210729167,56.7580987625,45.0,72.0
340,56.57682435729167,56.95428520104167,66.0,122.0
341,56.57682435729167,56.97152723958334,62.0,102.0
342,56.80050485729167,57.01579733854167,57.0,107.0
343,57.47154635729167,57.4906524,61.0,71.0
344,57.02418535729167,57.72085691458334,43.0,68.0
345,57.24786585729167,57.782835053125,50.0,85.0
346,57.69522685729167,57.96084745104167,55.0,96.0
347,57.47154635729167,57.99020551666666,59.0,92.0
348,57.47154635729167,57.995797529166666,62.0,99.0
349,58.14258785729167,58.411936459375,50.0,99.0
350,57.91890735729167,58.43383850833334,43.0,88.0
351,58.366268357291666,58.71576913854167,59.0,96.0
352,58.366268357291666,58.734875181250004,62.0,93.0
353,58.58994885729167,58.75770923229167,55.0,97.0
354,58.70178910729167,59.487932864583335,40.0,92.0
355,59.03730985729167,59.725593395833336,47.0,89.0
356,59.59651110729167,59.857471690625005,59.0,95.0
357,59.26099035729167,59.960457920833335,64.0,93.0
358,59.26099035729167,59.97164194583333,67.0,90.0
359,59.70835135729167,60.27873663229167,40.0,97.0
360,59.93203185729167,60.364946825000004,47.0,100.0
361,60.15571235729167,60.5718512875,64.0,97.0
362,60.15571235729167,60.613791381249996,67.0,95.0
363,60.37939285729166,60.654799472916665,59.0,107.0
364,60.60307335729166,61.36545106145833,45.0,78.0
365,61.274114857291664,61.42509919479167,57.0,100.0
366,61.050434357291664,61.436749220833335,60.0,99.0
367,60.82675385729166,61.441409231250006,52.0,88.0
368,61.050434357291664,61.46144727604167,64.0,96.0
369,61.385955107291664,62.13435278020833,45.0,78.0
370,61.945156357291665,62.34638325416667,60.0,102.0
371,62.168836857291666,62.34824725833333,57.0,99.0
372,61.721475857291665,62.34917926041667,52.0,102.0
373,61.945156357291665,62.35290726875,64.0,97.0
374,62.280677107291666,62.985736683333336,45.0,89.0
375,62.61619785729167,63.169341093750006,52.0,78.0
376,63.06355885729167,63.235513241666666,57.0,95.0
377,62.83987835729167,63.25275528020833,60.0,107.0
378,62.83987835729167,63.272327323958336,64.0,107.0
379,63.17539910729167,63.82314055520834,45.0,95.0
380,63.73460035729167,64.06732510104166,60.0,102.0
381,63.73460035729167,64.07291711354166,64.0,100.0
382,63.51091985729167,64.11112919895834,52.0,100.0
383,63.95828085729167,64.17077733229166,57.0,97.0
384,64.18196135729167,64.40051584583334,59.0,89.0
385,64.18196135729167,64.40051584583334,63.0,102.0
386,64.18196135729167,64.40051584583334,66.0,95.0
387,64.18196135729167,64.40424385416667,47.0,75.0
388,64.18196135729167,64.41635988125,54.0,99.0
389,64.51748210729167,64.624662346875,47.0,78.0
390,64.51748210729167,64.63817637708334,63.0,102.0
391,64.51748210729167,64.63817637708334,66.0,107.0
392,64.51748210729167,64.64703039687501,59.0,92.0
393,64.51748210729167,64.649826403125,54.0,96.0
394,64.85300285729167,64.95552308645833,63.0,102.0
395,64.85300285729167,64.96251310208334,59.0,88.0
396,64.85300285729167,64.96344510416667,54.0,112.0
397,64.85300285729167,64.965775109375,47.0,83.0
398,64.85300285729167,64.96810511458334,66.0,95.0
399,65.07668335729167,65.22813369583334,47.0,95.0
400,65.07668335729167,65.23512371145833,54.0,112.0
401,65.07668335729167,65.24351173020834,63.0,112.0
402,65.07668335729167,65.24910374270834,66.0,102.0
403,65.07668335729167,65.25143374791666,59.0,96.0
404,65.41220410729167,65.54641240729167,47.0,85.0
405,65.41220410729167,65.54687840833333,63.0,112.0
406,65.41220410729167,65.552936421875,54.0,107.0
407,65.41220410729167,65.55759643229166,66.0,100.0
408,65.41220410729167,65.56179044166667,59.0,96.0
409,65.74772485729167,65.86469111875,47.0,79.0
410,65.74772485729167,65.86795312604167,63.0,107.0
411,65.74772485729167,65.86981713020833,66.0,96.0
412,65.74772485729167,65.87354513854167,54.0,107.0
413,65.74772485729167,65.87354513854167,59.0,93.0
414,65.97140535729167,66.11120566979167,47.0,90.0
415,65.97140535729167,66.120525690625,54.0,112.0
416,65.97140535729167,66.134505721875,63.0,117.0
417,65.97140535729167,66.13543772395833,66.0,102.0
418,65.97140535729167,66.13916573229167,59.0,99.0
419,66.30692610729167,66.43740639895833,47.0,83.0
420,66.30692610729167,66.44020240520834,66.0,96.0
421,66.30692610729167,66.4434644125,54.0,112.0
422,66.30692610729167,66.4434644125,63.0,100.0
423,66.30692610729167,66.45138643020833,59.0,89.0
424,66.64244685729167,66.73518106458334,47.0,72.0
425,66.64244685729167,66.74822909375,63.0,117.0
426,66.64244685729167,66.74822909375,66.0,97.0
427,66.64244685729167,66.75568511041666,59.0,92.0
428,66.64244685729167,66.75615111145834,54.0,112.0
429,66.86612735729167,67.00639367083333,54.0,127.0
430,66.86612735729167,67.01151968229166,47.0,93.0
431,66.86612735729167,67.03575173645834,63.0,127.0
432,66.86612735729167,67.03947974479166,66.0,127.0
433,66.86612735729167,67.04367375416666,59.0,107.0
434,67.76084935729168,68.557330865625,40.0,95.0
435,67.98452985729168,68.593651809375,47.0,49.0
436,68.208091021875,68.620659690625,55.0,93.0
437,68.543361271875,68.69749245625,52.0,93.0
438,68.208091021875,68.719378153125,59.0,95.0
439,68.655118021875,69.42670525,40.0,92.0
440,69.102145021875,69.49841583125,55.0,88.0
441,69.325658521875,69.512851078125,52.0,93.0
442,68.87863152187501,69.526820671875,47.0,102.0
443,69.102145021875,69.5515002875,59.0,88.0
444,69.996199021875,70.2406669125,55.0,96.0
445,69.996199021875,70.314705759375,59.0,95.0
446,69.549172021875,70.329606659375,40.0,88.0
447,69.772685521875,70.359408459375,47.0,79.0
448,70.443226021875,70.52564662500001,55.0,92.0
449,70.219712521875,70.52704358437501,52.0,89.0
450,70.443226021875,70.5349596875,59.0,96.0
451,70.443226021875,70.559639303125,47.0,67.0
452,70.443226021875,70.581059346875,40.0,72.0
453,70.890253021875,71.0434529,40.0,71.0
454,70.890253021875,71.05090335,55.0,96.0
455,70.890253021875,71.05369726875,52.0,96.0
456,70.890253021875,71.071857740625,59.0,97.0
457,70.890253021875,71.086758640625,47.0,95.0
458,71.337280021875,72.07999675625,43.0,95.0
459,71.560793521875,72.21317355000001,50.0,90.0
460,71.784307021875,72.247166228125,59.0,95.0
461,71.784307021875,72.267654965625,62.0,96.0
462,72.119577271875,72.285349784375,55.0,97.0
463,72.231334021875,72.97777598125,43.0,89.0
464,72.454847521875,73.082547934375,50.0,102.0
465,72.678361021875,73.120731490625,59.0,95.0
466,72.678361021875,73.134701084375,62.0,96.0
467,72.901874521875,73.1444798,55.0,99.0
468,73.125388021875,73.881608696875,43.0,92.0
469,73.572415021875,73.955181890625,59.0,102.0
470,73.348901521875,73.97147975,50.0,82.0
471,73.572415021875,73.9770675875,62.0,102.0
472,73.907685271875,74.0292207375,55.0,93.0
473,74.019442021875,74.5954549375,43.0,93.0
474,74.466469021875,74.871587240625,59.0,107.0
475,74.242955521875,74.880900303125,50.0,117.0
476,74.466469021875,74.89626685625001,62.0,107.0
477,74.689982521875,74.911633409375,55.0,100.0
478,74.913496021875,75.679029759375,45.0,81.0
479,75.360523021875,75.77728256875,60.0,96.0
480,75.137009521875,75.783336059375,52.0,97.0
481,75.360523021875,75.815466125,64.0,95.0
482,75.695793271875,75.865291009375,57.0,93.0
483,75.807550021875,76.548869796875,45.0,93.0
484,76.031063521875,76.71045143125001,52.0,112.0
485,76.25457702187501,76.716970575,60.0,100.0
486,76.25457702187501,76.725817984375,64.0,99.0
487,76.478090521875,76.872964371875,57.0,97.0
488,76.701604021875,77.466206453125,45.0,93.0
489,77.372144521875,77.513703071875,57.0,95.0
490,77.148631021875,77.515565684375,60.0,96.0
491,77.148631021875,77.530466584375,64.0,95.0
492,76.925117521875,77.5570088125,52.0,97.0
493,77.595658021875,78.239190640625,45.0,93.0
494,78.042685021875,78.28808421875,64.0,99.0
495,78.042685021875,78.289481178125,60.0,102.0
496,78.266198521875,78.32347385625,57.0,92.0
497,77.819171521875,78.35234435,52.0,102.0
498,78.48971202187501,78.642446246875,63.0,127.0
499,78.48971202187501,78.6429119,47.0,127.0
500,78.48971202187501,78.656415840625,59.0,96.0
501,78.48971202187501,78.658278453125,66.0,122.0
502,78.824982271875,78.96234994375,63.0,127.0
503,78.824982271875,78.967472128125,66.0,100.0
504,78.824982271875,78.997273928125,59.0,97.0
505,78.824982271875,79.02288485,47.0,127.0
506,79.16025252187501,79.322299809375,45.0,112.0
507,79.16025252187501,79.333475484375,57.0,112.0
508,79.383766021875,79.562576821875,43.0,97.0
509,79.383766021875,79.58911905000001,55.0,127.0
510,79.830793021875,80.032420825,54.0,127.0
511,79.830793021875,80.109253590625,42.0,127.0
512,80.72484702187501,80.915764803125,59.0,74.0
513,80.277820021875,81.243584603125,40.0,102.0
514,80.501333521875,81.284562078125,47.0,85.0
515,81.171874021875,81.30179124375,52.0,74.0
516,80.72484702187501,81.518319946875,67.0,83.0
517,80.72484702187501,81.5280986625,64.0,90.0
518,81.060117271875,81.5392743375,59.0,92.0
519,81.395387521875,81.728795159375,52.0,93.0
520,81.395387521875,82.032400996875,47.0,78.0
521,81.842414521875,82.139501215625,59.0,97.0
522,81.618901021875,82.15673038125,64.0,82.0
523,81.618901021875,82.17768477187501,67.0,78.0
524,82.06592802187501,82.8244769625,40.0,90.0
525,82.289441521875,82.841706128125,47.0,58.0
526,82.959982021875,83.0479904625,47.0,79.0
527,82.959982021875,83.051250034375,52.0,93.0
528,82.84822527187501,83.228198221875,59.0,102.0
529,82.512955021875,83.23145779375,64.0,89.0
530,82.512955021875,83.2323891,67.0,88.0
531,83.183495521875,83.71759965625,52.0,100.0
532,83.183495521875,83.74367623125,40.0,73.0
533,83.407009021875,83.818646384375,64.0,99.0
534,83.407009021875,83.831684671875,67.0,99.0
535,83.63052252187501,83.845654265625,59.0,102.0
536,83.854036021875,83.90944874375,40.0,100.0
537,83.854036021875,83.940647503125,52.0,107.0
538,84.077549521875,84.163229696875,52.0,102.0
539,84.077549521875,84.17393971875,40.0,102.0
540,84.301063021875,84.44960636875001,55.0,100.0
541,84.301063021875,84.485461659375,43.0,102.0
542,84.524576521875,84.679173359375,45.0,112.0
543,84.524576521875,84.684761196875,57.0,102.0
544,84.748090021875,84.831907584375,59.0,102.0
545,84.748090021875,84.83935803437501,47.0,97.0
546,84.97160352187501,85.15507085312501,47.0,95.0
547,84.97160352187501,85.169971753125,59.0,127.0
548,85.195117021875,85.4023326625,57.0,107.0
549,85.195117021875,85.458676690625,45.0,117.0
550,85.418630521875,85.5736930125,43.0,99.0
551,85.418630521875,85.6183957125,55.0,96.0
552,85.642144021875,85.745519015625,40.0,96.0
553,85.642144021875,85.754366425,52.0,107.0
554,85.86565752187501,85.97508600625,52.0,100.0
555,85.86565752187501,86.007216071875,40.0,93.0
556,86.089171021875,86.262393984375,55.0,107.0
557,86.089171021875,86.3168754,43.0,112.0
558,86.312684521875,86.50593056875,45.0,112.0
559,86.312684521875,86.50779318125001,57.0,112.0
560,86.53619802187501,86.633985178125,59.0,117.0
561,86.53619802187501,86.64422954687501,47.0,117.0
562,86.759711521875,86.91943054375,59.0,107.0
563,86.759711521875,86.9632019375,47.0,97.0
564,86.983225021875,87.212326359375,57.0,127.0
565,86.983225021875,87.23979989375,45.0,122.0
566,87.206738521875,87.39998456875,43.0,95.0
567,87.206738521875,87.412557203125,55.0,127.0
568,87.430252021875,87.48566474375001,40.0,100.0
569,87.430252021875,87.516863503125,52.0,107.0
570,87.653765521875,87.73944569687501,52.0,102.0
571,87.653765521875,87.75015571875,40.0,102.0
572,87.877279021875,88.02582236875,55.0,100.0
573,87.877279021875,88.06167765937501,43.0,102.0
574,88.10079252187501,88.255389359375,45.0,112.0
575,88.10079252187501,88.260977196875,57.0,102.0
576,88.324306021875,88.408123584375,59.0,102.0
577,88.324306021875,88.415574034375,47.0,97.0
578,88.547819521875,88.731286853125,47.0,95.0
579,88.547819521875,88.746187753125,59.0,127.0
580,88.771333021875,88.9785486625,57.0,107.0
581,88.771333021875,89.034892690625,45.0,117.0
582,88.994846521875,89.1499090125,43.0,99.0
583,88.994846521875,89.1946117125,55.0,96.0
584,89.218360021875,89.321735015625,40.0,96.0
585,89.218360021875,89.330582425,52.0,107.0
586,89.44187352187501,89.55130200625,52.0,100.0
587,89.44187352187501,89.583432071875,40.0,93.0
588,89.665387021875,89.83860998437501,55.0,107.0
589,89.665387021875,89.8930914,43.0,112.0
590,89.888900521875,90.08214656875,45.0,112.0
591,89.888900521875,90.08400918125,57.0,112.0
592,90.112414021875,90.210201178125,59.0,117.0
593,90.112414021875,90.220445546875,47.0,117.0
594,90.335927521875,90.49564654375,59.0,107.0
595,90.335927521875,90.5394179375,47.0,97.0
596,90.559441021875,90.788542359375,57.0,127.0
597,90.559441021875,90.81601589375,45.0,122.0
598,90.782954521875,90.97620056875,43.0,95.0
599,90.782954521875,90.988773203125,55.0,127.0
600,91.00646802187501,91.06188074375001,40.0,100.0
601,91.00646802187501,91.09307950312501,52.0,107.0
602,91.229981521875,91.315661696875,52.0,102.0
603,91.229981521875,91.32637171875001,40.0,102.0
604,91.453495021875,91.60203836875,55.0,100.0
605,91.453495021875,91.63789365937501,43.0,102.0
606,91.677008521875,91.831605359375,45.0,112.0
607,91.677008521875,91.837193196875,57.0,102.0
608,91.900522021875,91.98433958437501,59.0,102.0
609,91.900522021875,91.991790034375,47.0,97.0
610,92.124035521875,92.307502853125,47.0,95.0
611,92.124035521875,92.322403753125,59.0,127.0
612,92.34754902187501,92.5547646625,57.0,107.0
613,92.34754902187501,92.611108690625,45.0,117.0
614,92.571062521875,92.7261250125,43.0,99.0
615,92.571062521875,92.77082771250001,55.0,96.0
616,92.794576021875,92.89795101562501,40.0,96.0
617,92.794576021875,92.906798425,52.0,107.0
618,93.018089521875,93.12759293541667,52.0,100.0
619,93.018089521875,93.15977575729167,40.0,93.0
620,93.24186527395834,93.41537266145833,55.0,107.0
621,93.24186527395834,93.46994353333334,43.0,112.0
622,93.46574577395833,93.65930912291667,45.0,112.0
623,93.46574577395833,93.66117479375,57.0,112.0
624,93.68962627395834,93.78757399270833,59.0,117.0
625,93.68962627395834,93.79783518229166,47.0,117.0
626,93.91350677395833,94.07348804791667,59.0,107.0
627,93.91350677395833,94.1173313125,47.0,97.0
628,94.13738727395834,94.36686478645834,57.0,127.0
629,94.13738727395834,94.39438343125,45.0,122.0
630,94.36126777395833,94.55483112291667,43.0,95.0
631,94.36126777395833,94.56742440104166,55.0,127.0
632,94.58514827395834,94.64065198125,40.0,100.0
633,94.58514827395834,94.67190196770834,52.0,107.0
634,94.80902877395833,94.89484963229167,52.0,102.0
635,94.80902877395833,94.90557723958334,40.0,102.0
636,95.03290927395834,95.18169652291667,55.0,100.0
637,95.03290927395834,95.21761068645833,43.0,102.0
638,95.25678977395833,95.411640453125,45.0,112.0
639,95.25678977395833,95.417237465625,57.0,102.0
640,95.48067027395834,95.56462546145833,59.0,102.0
641,95.48067027395834,95.57208814479166,47.0,97.0
642,95.70455077395833,95.88831935104167,47.0,95.0
643,95.70455077395833,95.90324471770833,59.0,127.0
644,95.92843127395834,96.13598715416667,57.0,107.0
645,95.92843127395834,96.192423696875,45.0,117.0
646,96.15231177395833,96.30762887083334,43.0,99.0
647,96.15231177395833,96.35240497083333,55.0,96.0
648,96.37619227395834,96.47973700520834,40.0,96.0
649,96.37619227395834,96.48859894166667,52.0,107.0
650,96.60007277395833,96.70968093541667,52.0,100.0
651,96.60007277395833,96.74186375729167,40.0,93.0
652,96.82395327395834,96.99746066145833,55.0,107.0
653,96.82395327395834,97.05203153333333,43.0,112.0
654,97.04783377395833,97.24139712291667,45.0,112.0
655,97.04783377395833,97.24326279375,57.0,112.0
656,97.27171427395834,97.36966199270833,59.0,117.0
657,97.27171427395834,97.37992318229166,47.0,117.0
658,97.49559477395833,97.65557604791667,59.0,107.0
659,97.49559477395833,97.6994193125,47.0,97.0
660,97.71947527395834,97.94895278645834,57.0,127.0
661,97.71947527395834,97.97647143125,45.0,122.0
662,97.94335577395833,98.13691912291667,43.0,95.0
663,97.94335577395833,98.14951240104168,55.0,127.0
664,98.16723627395834,98.22273998125,40.0,100.0
665,98.16723627395834,98.25398996770834,52.0,107.0
666,98.39111677395833,98.47693763229167,52.0,102.0
667,98.39111677395833,98.48766523958334,40.0,102.0
668,98.61499727395834,98.76378452291667,55.0,100.0
669,98.61499727395834,98.79969868645834,43.0,102.0
670,98.83887777395833,98.993728453125,45.0,112.0
671,98.83887777395833,98.999325465625,57.0,102.0
672,99.06275827395834,99.14671346145833,59.0,102.0
673,99.06275827395834,99.15417614479166,47.0,97.0
674,99.28663877395833,99.47040735104167,47.0,95.0
675,99.28663877395833,99.48533271770833,59.0,127.0
676,99.51051927395834,99.71807515416667,57.0,107.0
677,99.51051927395834,99.77451169687501,45.0,117.0
678,99.73439977395833,99.88971687083334,43.0,99.0
679,99.73439977395833,99.93449297083333,55.0,96.0
680,99.95828027395834,100.06182500520833,40.0,96.0
681,99.95828027395834,100.07068694166666,52.0,107.0
682,100.18216077395833,100.29176893541667,52.0,100.0
683,100.18216077395833,100.32395175729167,40.0,93.0
684,100.40604127395834,100.57954866145833,55.0,107.0
685,100.40604127395834,100.63411953333333,43.0,112.0
686,100.62992177395833,100.82348512291667,45.0,112.0
687,100.62992177395833,100.82535079375,57.0,112.0
688,100.85380227395834,100.95174999270833,59.0,117.0
689,100.85380227395834,100.96201118229168,47.0,117.0
690,101.07768277395833,101.23766404791667,59.0,107.0
691,101.07768277395833,101.2815073125,47.0,97.0
692,101.30156327395834,101.53104078645833,57.0,127.0
693,101.30156327395834,101.55855943125,45.0,122.0
694,101.52544377395833,101.71900712291666,43.0,95.0
695,101.52544377395833,101.73160040104167,55.0,127.0
696,101.74932427395834,101.80482798125,40.0,100.0
697,101.74932427395834,101.83607796770833,52.0,107.0
698,101.97320477395834,102.05902563229166,52.0,102.0
699,101.97320477395834,102.06975323958333,40.0,102.0
700,102.19708527395834,102.34587252291666,55.0,100.0
701,102.19708527395834,102.38178668645834,43.0,102.0
702,102.42096577395833,102.575816453125,45.0,112.0
703,102.42096577395833,102.581413465625,57.0,102.0
704,102.64484627395834,102.72880146145833,59.0,102.0
705,102.64484627395834,102.73626414479168,47.0,97.0
706,102.86872677395834,103.05249535104167,47.0,95.0
707,102.86872677395834,103.06742071770833,59.0,127.0
708,103.09260727395834,103.30016315416667,57.0,107.0
709,103.09260727395834,103.35659969687501,45.0,117.0
710,103.31648777395833,103.47180487083334,43.0,99.0
711,103.31648777395833,103.51658097083333,55.0,96.0
712,103.54036827395834,103.64391300520833,40.0,96.0
713,103.54036827395834,103.65277494166666,52.0,107.0
714,103.76424877395834,103.87385693541667,52.0,100.0
715,103.76424877395834,103.90603975729167,40.0,93.0
716,103.98812927395834,104.16163666145833,55.0,107.0
717,103.98812927395834,104.21620753333333,43.0,112.0
718,104.21200977395833,104.40557312291666,45.0,112.0
719,104.21200977395833,104.40743879375,57.0,112.0
720,104.43589027395834,104.53383799270833,59.0,117.0
721,104.43589027395834,104.54409918229167,47.0,117.0
722,104.65977077395834,104.81975204791667,59.0,107.0
723,104.65977077395834,104.8635953125,47.0,97.0
724,104.88365127395834,105.11312878645833,57.0,127.0
725,104.88365127395834,105.14064743125,45.0,122.0
726,105.10753177395833,105.30109512291666,43.0,95.0
727,105.10753177395833,105.31368840104167,55.0,127.0
728,105.77917327395834,106.04503136770833,59.0,95.0
729,105.77917327395834,106.05389330416666,67.0,90.0
730,105.77917327395834,106.062755240625,64.0,95.0
731,105.33141227395834,106.122923125,40.0,97.0
732,106.11499402395833,106.26844545,59.0,85.0
733,106.11499402395833,106.28756857604166,64.0,89.0
734,106.11499402395833,106.30389319583334,67.0,85.0
735,106.22693427395834,106.31695289166667,47.0,59.0
736,106.22693427395834,106.323016321875,52.0,74.0
737,106.45081477395834,107.04969511145833,52.0,92.0
738,106.45081477395834,107.10006822395833,47.0,81.0
739,106.89857577395834,107.15790401979167,59.0,100.0
740,106.67469527395833,107.21154205625001,64.0,96.0
741,106.67469527395833,107.224135334375,67.0,97.0
742,107.12245627395833,107.84773581041667,40.0,88.0
743,107.57021727395833,107.851000734375,52.0,70.0
744,107.57021727395833,107.878985796875,64.0,97.0
745,107.57021727395833,107.88271713854166,67.0,97.0
746,107.68215752395834,107.91863130208334,47.0,26.0
747,107.79409777395834,107.93682159270834,59.0,66.0
748,108.01797827395833,108.11592599270834,64.0,99.0
749,108.01797827395833,108.11919091666667,40.0,79.0
750,108.01797827395833,108.12059016979167,59.0,100.0
751,108.01797827395833,108.12292225833333,47.0,63.0
752,108.01797827395833,108.12385509375,52.0,93.0
753,108.01797827395833,108.12991852395834,67.0,93.0
754,108.46573927395833,108.58887354895833,40.0,71.0
755,108.46573927395833,108.60846309270833,47.0,65.0
756,108.46573927395833,108.64344442083333,52.0,90.0
757,108.46573927395833,108.64997426875,64.0,99.0
758,108.46573927395833,108.65370561041667,67.0,93.0
759,108.46573927395833,108.65976904062501,59.0,100.0
760,109.36126127395833,109.63551488645834,62.0,85.0
761,109.36126127395833,109.63598130416668,59.0,85.0
762,109.36126127395833,109.637846975,55.0,90.0
763,108.91350027395833,109.67609322708333,43.0,90.0
764,109.13738077395834,109.74745513645834,50.0,62.0
765,109.80902227395833,109.90930208125,43.0,92.0
766,109.69708202395833,110.031037103125,55.0,81.0
767,109.69708202395833,110.06088783645833,59.0,75.0
768,109.69708202395833,110.0800109625,62.0,78.0
769,110.03290277395834,110.56042120208333,43.0,97.0
770,110.25678327395833,110.72879799479168,59.0,97.0
771,110.25678327395833,110.74185769062501,62.0,97.0
772,110.48066377395834,110.76517857604168,55.0,86.0
773,110.70454427395833,111.43635365833333,43.0,96.0
774,111.37618577395834,111.50958123854167,55.0,88.0
775,110.92842477395834,111.53616704791668,50.0,72.0
776,111.15230527395833,111.612193134375,59.0,88.0
777,111.15230527395833,111.631782678125,62.0,93.0
778,111.60006627395833,111.66629758854167,43.0,60.0
779,111.82394677395834,112.29689433020833,43.0,77.0
780,112.04782727395833,112.43262188333334,59.0,86.0
781,112.04782727395833,112.45081217395834,62.0,90.0
782,112.27170777395834,112.46946888229166,55.0,79.0
783,112.49558827395833,113.27403942916666,45.0,90.0
784,112.71946877395834,113.31834911145833,52.0,58.0
785,112.94334927395833,113.431222196875,60.0,89.0
786,113.27917002395833,113.43308786770834,57.0,95.0
787,112.94334927395833,113.445214728125,64.0,85.0
788,113.39111027395833,113.47693113229167,45.0,97.0
789,113.61499077395834,114.13318084791666,45.0,92.0
790,113.83887127395833,114.24605393333334,60.0,95.0
791,113.83887127395833,114.24978527500001,64.0,95.0
792,114.06275177395834,114.25724795833334,57.0,88.0
793,114.28663227395833,115.00398270937501,45.0,96.0
794,114.95827377395834,115.08187446666668,57.0,99.0
795,114.51051277395834,115.09400132708333,52.0,67.0
796,114.73439327395833,115.11499012395834,60.0,89.0
797,114.73439327395833,115.13318041458334,64.0,95.0
798,115.18215427395833,115.69054957604166,45.0,72.0
799,115.40603477395834,115.83467264791668,52.0,99.0
800,115.74185552395834,115.96853453020833,57.0,97.0
801,115.62991527395833,116.00118376979167,60.0,92.0
802,115.62991527395833,116.00398227604167,64.0,88.0
803,115.96573602395833,116.80155655729166,47.0,75.0
804,116.52543727395833,116.81088491145834,66.0,95.0
805,116.52543727395833,116.81508267083333,59.0,72.0
806,116.52543727395833,116.81508267083333,63.0,95.0
807,116.30155677395834,116.957340071875,54.0,89.0
808,116.86125802395833,117.00957885520833,59.0,89.0
809,116.86125802395833,117.01191094375,63.0,73.0
810,116.86125802395833,117.01470945,66.0,69.0
811,116.97319827395833,117.12711611770834,47.0,86.0
812,117.08513852395834,117.12711611770834,47.0,74.0
813,117.19707877395834,117.72366436666667,54.0,93.0
814,117.64483977395834,117.876649375,59.0,89.0
815,117.42095927395833,117.894839665625,66.0,99.0
816,117.42095927395833,117.90603369062501,63.0,112.0
817,118.31648127395833,118.44801106770834,63.0,112.0
818,118.31648127395833,118.44801106770834,66.0,102.0
819,118.31648127395833,118.45127599166668,59.0,95.0
820,117.86872027395833,118.60939159479167,47.0,100.0
821,118.09260077395834,118.62338412604167,54.0,100.0
822,118.54036177395834,118.73066019895833,63.0,117.0
823,118.54036177395834,118.73205945208333,66.0,112.0
824,118.54036177395834,118.7441863125,59.0,97.0
825,118.98812277395834,119.11592122604168,66.0,112.0
826,118.98812277395834,119.11825331458334,59.0,93.0
827,118.98812277395834,119.12011898541667,63.0,112.0
828,118.98812277395834,119.12385032708333,54.0,93.0
829,119.21200327395835,119.34913008020834,66.0,122.0
830,119.21200327395835,119.35332783958333,63.0,122.0
831,119.21200327395835,119.35705918125001,59.0,95.0
832,118.65230202395833,119.43215243229167,47.0,95.0
833,119.21200327395835,119.55295461875001,54.0,127.0
834,119.43588377395834,119.59586504791667,63.0,122.0
835,119.43588377395834,119.59679788333334,59.0,95.0
836,119.43588377395834,119.61498817395834,66.0,117.0
837,120.10752527395834,120.36125650729167,59.0,96.0
838,120.10752527395834,120.36685351979168,67.0,83.0
839,120.10752527395834,120.36825277291666,64.0,89.0
840,119.65976427395833,120.47646168125,40.0,97.0
841,119.88364477395834,120.52170419895833,47.0,69.0
842,120.55528627395833,120.6695586125,52.0,58.0
843,120.44334602395834,120.77543543229167,59.0,82.0
844,120.44334602395834,120.83140555729167,67.0,83.0
845,120.44334602395834,120.83233839270834,64.0,82.0
846,121.22692777395834,121.440547084375,59.0,81.0
847,120.77916677395834,121.44101350208334,47.0,95.0
848,121.00304727395834,121.46806572916667,64.0,93.0
849,121.00304727395834,121.47879333645834,67.0,89.0
850,121.45080827395833,122.33653550208334,40.0,95.0
851,121.89856927395834,122.37058399479167,67.0,88.0
852,122.23439002395834,122.37291608333334,59.0,96.0
853,121.89856927395834,122.37478175416666,64.0,95.0
854,122.34633027395833,122.58700181145834,47.0,92.0
855,122.79409127395834,123.038494153125,59.0,93.0
856,122.79409127395834,123.04175907708334,64.0,95.0
857,122.79409127395834,123.05062101354167,67.0,92.0
858,122.79409127395834,123.06741205104167,47.0,96.0
859,123.24185227395833,124.04370698020834,43.0,92.0
860,123.68949393854167,124.06840867916668,59.0,92.0
861,123.68949393854167,124.09264430833333,62.0,92.0
862,123.46573277395834,124.101499634375,50.0,63.0
863,124.02506418854168,124.1616226375,55.0,99.0
864,124.13692093854168,124.84907558020834,43.0,96.0
865,124.36063443854167,124.96932158645834,50.0,100.0
866,124.58434793854167,125.03130886875,59.0,90.0
867,124.80806143854167,125.03783384583333,55.0,96.0
868,124.58434793854167,125.04016419479167,62.0,89.0
869,125.03177493854167,125.782147303125,43.0,90.0
870,125.25548843854168,125.88980942500001,50.0,73.0
871,125.47920193854168,125.94107710208334,59.0,93.0
872,125.47920193854168,125.9848876625,62.0,95.0
873,125.81477218854167,125.99141263958334,55.0,95.0
874,125.92662893854167,126.46633775729167,43.0,88.0
875,126.15034243854167,126.51574115520835,50.0,100.0
876,126.37405593854167,126.79025626250001,59.0,97.0
877,126.37405593854167,126.80656870520833,62.0,100.0
878,126.82148293854168,127.56766067500001,45.0,86.0
879,127.26890993854167,127.68184777395834,60.0,93.0
880,127.04519643854168,127.68930489062501,52.0,69.0
881,127.26890993854167,127.71866728750001,64.0,88.0
882,127.60448018854167,127.74476719583333,57.0,95.0
883,127.71633693854167,128.50958772395833,45.0,92.0
884,127.94005043854168,128.5799642625,52.0,107.0
885,128.16376393854168,128.68156747708335,64.0,79.0
886,128.16376393854168,128.69135494270833,60.0,83.0
887,128.38747743854168,128.69787991979166,57.0,95.0
888,128.61119093854168,129.36669007083333,45.0,89.0
889,129.28233143854166,129.46969149479168,57.0,96.0
890,128.83490443854168,129.48227537916668,52.0,82.0
891,129.0586179385417,129.77217078958333,64.0,81.0
892,129.0586179385417,129.7786957666667,60.0,92.0
893,129.50604493854166,130.24569769791668,45.0,83.0
894,129.95347193854167,130.32772598125,60.0,96.0
895,130.17718543854167,130.33891165625002,57.0,95.0
896,129.95347193854167,130.34497056354166,64.0,92.0
897,129.72975843854167,130.37479903020835,52.0,95.0
898,130.40089893854167,130.53419489895833,47.0,127.0
899,130.40089893854167,130.54258415520835,66.0,122.0
900,130.40089893854167,130.55143948125001,59.0,99.0
901,130.69918360520833,130.88374724270835,47.0,112.0
902,130.69918360520833,130.88374724270835,66.0,107.0
903,130.69918360520833,130.89586505729167,59.0,96.0
904,130.997468271875,131.13449279062502,45.0,112.0
905,130.997468271875,131.13635706979167,57.0,117.0
906,131.29575293854168,131.52925390416667,43.0,96.0
907,131.29575293854168,131.56980197604167,55.0,107.0
908,131.7431799385417,131.99252727708335,54.0,122.0
909,131.7431799385417,131.995789765625,42.0,102.0
910,132.19060693854166,132.29081194375001,40.0,86.0
911,132.19060693854166,132.29127801354167,52.0,107.0
912,132.41432043854167,132.52943967708333,52.0,97.0
913,132.41432043854167,132.53689679375,40.0,82.0
914,132.63803393854167,132.79929408645833,55.0,97.0
915,132.63803393854167,132.84077429791668,43.0,96.0
916,132.86174743854167,133.02906649375,57.0,93.0
917,132.86174743854167,133.03698968020834,45.0,89.0
918,133.08546093854167,133.206639084375,47.0,97.0
919,133.08546093854167,133.20757122395833,59.0,95.0
920,133.30917443854167,133.48115419166666,47.0,88.0
921,133.30917443854167,133.49560235520835,59.0,89.0
922,133.53288793854168,133.71791764583335,45.0,102.0
923,133.53288793854168,133.72584083229168,57.0,127.0
924,133.75660143854168,133.88756705,43.0,102.0
925,133.75660143854168,133.911336609375,55.0,100.0
926,133.98031493854168,134.26042288333335,52.0,117.0
927,133.98031493854168,134.28512458229167,40.0,96.0
928,135.77002293854167,136.54975770000001,45.0,102.0
929,136.21744993854168,136.657419821875,60.0,100.0
930,135.99373643854167,136.65788589166667,52.0,82.0
931,136.21744993854168,136.65835196145835,64.0,95.0
932,136.55302018854167,136.69004470729166,57.0,102.0
933,136.88859043854168,137.17149480208334,52.0,117.0
934,136.66487693854168,137.185942965625,45.0,112.0
935,137.1123039385417,137.44181528125,64.0,95.0
936,137.1123039385417,137.52524177395833,60.0,107.0
937,137.33601743854166,137.62171822083334,57.0,112.0
938,137.44787418854168,138.22015183333335,38.0,86.0
939,137.78344443854166,138.395394075,45.0,76.0
940,138.00715793854167,138.43128144895834,66.0,112.0
941,138.00715793854167,138.44246712395835,62.0,100.0
942,138.34272818854168,138.51377580208333,57.0,112.0
943,138.45458493854167,138.51750436041667,62.0,31.0
944,138.45458493854167,139.10801478645834,38.0,88.0
945,138.67829843854167,139.17932346458335,45.0,73.0
946,138.90201193854168,139.283257028125,50.0,77.0
947,139.12572543854168,139.32054261145834,57.0,112.0
948,138.90201193854168,139.32147475104168,66.0,107.0
949,138.90201193854168,139.355963915625,62.0,97.0
950,139.34943893854168,140.1123951875,43.0,92.0
951,139.57315243854168,140.203278796875,50.0,82.0
952,139.79686593854169,140.21026984375,59.0,96.0
953,139.79686593854169,140.22425193750001,62.0,95.0
954,140.13243618854167,140.26852856770833,55.0,102.0
955,140.46800643854166,140.76256254687502,50.0,102.0
956,140.24429293854166,140.7714178729167,43.0,92.0
957,140.69171993854167,141.05805079479168,59.0,97.0
958,140.69171993854167,141.06970253958335,62.0,97.0
959,140.91543343854167,141.14427370625,55.0,102.0
960,141.13914693854167,141.90070497812502,40.0,93.0
961,141.36286043854167,141.94917623645836,47.0,73.0
962,141.58657393854168,142.029340240625,59.0,95.0
963,141.58657393854168,142.04938124166668,64.0,96.0
964,141.92214418854167,142.08573468541667,55.0,112.0
965,142.03400093854168,142.541084871875,40.0,86.0
966,142.25771443854168,142.59468289791667,47.0,107.0
967,142.48142793854169,142.84263202708334,59.0,93.0
968,142.48142793854169,142.87432477291668,64.0,97.0
969,142.70514143854166,142.88551044791666,55.0,102.0
970,142.92885493854166,143.66850769791668,45.0,85.0
971,143.37628193854167,143.779898378125,60.0,96.0
972,143.15256843854166,143.799473309375,52.0,83.0
973,143.37628193854167,143.80413400729168,64.0,93.0
974,143.71185218854168,143.85913024270835,57.0,107.0
975,143.82370893854167,144.532135021875,45.0,96.0
976,144.04742243854167,144.671955959375,52.0,99.0
977,144.49484943854168,144.7003862166667,57.0,112.0
978,144.27113593854168,144.72835040416666,60.0,99.0
979,144.27113593854168,144.72928254375,64.0,95.0
980,144.71856293854168,145.44236932500002,45.0,95.0
981,145.3897034385417,145.50435660729167,57.0,107.0
982,145.16598993854168,145.53418507395833,60.0,96.0
983,144.94227643854168,145.54350646979168,52.0,100.0
984,145.16598993854168,145.54770109791667,64.0,99.0
985,145.50156018854167,146.14240615208334,45.0,100.0
986,146.06084393854167,146.36705179166668,60.0,107.0
987,146.06084393854167,146.3782374666667,64.0,102.0
988,145.83713043854166,146.41598911979167,52.0,102.0
989,146.28455743854167,146.46539251770835,57.0,112.0
990,146.39641418854168,147.19013104375,47.0,86.0
991,146.95569793854168,147.32622342291668,66.0,117.0
992,146.95569793854168,147.36444114583333,63.0,122.0
993,146.73198443854167,147.36863577395835,54.0,97.0
994,147.17941143854168,147.446003359375,59.0,96.0
995,147.62683843854168,147.95168908333335,66.0,117.0
996,147.62683843854168,147.95634978125,63.0,117.0
997,147.29126818854166,148.09477250937502,47.0,81.0
998,147.73869518854167,148.11248316145833,54.0,59.0
999,148.07426543854166,148.35856801145835,59.0,122.0
1000,148.07426543854166,148.37814294270834,63.0,122.0
1001,148.07426543854166,148.38326971041667,66.0,122.0
1002,148.2979789385417,148.58041723229167,47.0,86.0
1003,148.2979789385417,148.58647613958334,54.0,107.0
1004,148.52169243854166,148.62189744375002,59.0,122.0
1005,148.52169243854166,148.62655814166666,63.0,127.0
1006,148.52169243854166,148.63215097916668,66.0,127.0
1007,148.85726268854168,149.04042811666667,63.0,99.0
1008,148.85726268854168,149.05021558229168,66.0,99.0
1009,148.85726268854168,149.05068165208334,59.0,88.0
1010,149.19283293854167,149.50556576875002,66.0,112.0
1011,149.19283293854167,149.50929432708335,59.0,99.0
1012,149.19283293854167,149.512556815625,63.0,99.0
1013,148.85726268854168,149.562892353125,54.0,83.0
1014,148.96911943854167,149.67148661458333,47.0,45.0
1015,149.64025993854167,149.86816806666667,63.0,127.0
1016,149.64025993854167,149.89799653333336,66.0,127.0
1017,149.64025993854167,150.02476751666669,59.0,102.0
1018,150.08768693854168,150.82547541875002,45.0,90.0
1019,150.31140043854168,150.84971104791668,52.0,76.0
1020,150.42325718854167,151.08367808333333,64.0,107.0
1021,150.42325718854167,151.09672803750001,60.0,102.0
1022,150.7588274385417,151.1181672479167,57.0,99.0
1023,151.20625443854166,151.48496417395833,52.0,90.0
1024,150.98254093854166,151.53669792083335,45.0,93.0
1025,151.42996793854167,151.78557918958333,64.0,99.0
1026,151.42996793854167,151.87646279895833,60.0,107.0
1027,151.65368143854167,151.96501605937502,57.0,107.0
1028,152.54853543854168,152.81885591770833,57.0,107.0
1029,152.32482193854167,152.89668957291667,66.0,107.0
1030,152.32482193854167,152.90135027083335,62.0,100.0
1031,151.87739493854167,153.18052607604167,38.0,92.0
1032,152.99596243854168,153.28119715104168,57.0,112.0
1033,152.77224893854168,153.3114916875,50.0,92.0
1034,152.21296518854166,153.4009770875,45.0,72.0
1035,153.21967593854168,153.59719246979168,66.0,122.0
1036,153.21967593854168,153.61443705208333,62.0,102.0
1037,153.4433894385417,153.65871368229168,57.0,107.0
1038,154.11452993854166,154.1336388,61.0,71.0
1039,153.6671029385417,154.36387727708333,43.0,68.0
1040,153.89081643854166,154.42586455937501,50.0,85.0
1041,154.33824343854167,154.60390321979168,55.0,96.0
1042,154.11452993854166,154.63326561666668,59.0,92.0
1043,154.11452993854166,154.63885845416667,62.0,99.0
1044,154.78567043854167,155.05505877812502,50.0,99.0
1045,154.56195693854167,155.07696405833335,43.0,88.0
1046,155.00938393854167,155.35893628229167,59.0,96.0
1047,155.00938393854167,155.37804514375,62.0,93.0
1048,155.23309743854168,155.40088256354167,55.0,97.0
1049,155.34495418854166,156.13121392708334,40.0,92.0
1050,155.68052443854168,156.36890952083334,47.0,89.0
1051,156.23980818854167,156.500807271875,59.0,95.0
1052,155.90423793854168,156.60380869583335,64.0,93.0
1053,155.90423793854168,156.61499437083336,67.0,90.0
1054,156.35166493854166,156.92213436354166,40.0,97.0
1055,156.5753784385417,157.008357275,47.0,100.0
1056,156.79909193854166,157.21529226250001,64.0,97.0
1057,156.79909193854166,157.25723854375002,67.0,95.0
1058,157.02280543854167,157.29825268541668,59.0,107.0
1059,157.24651893854167,158.00900911770833,45.0,78.0
1060,157.91765943854168,158.06866605104167,57.0,100.0
1061,157.69394593854167,158.08031779583334,60.0,99.0
1062,157.47023243854167,158.08497849375001,52.0,88.0
1063,157.69394593854167,158.1050194947917,64.0,96.0
1064,158.02951618854166,158.77802427395835,45.0,78.0
1065,158.58879993854168,158.99008602916666,60.0,102.0
1066,158.81251343854166,158.99195030833334,57.0,99.0
1067,158.36508643854168,158.99288244791668,52.0,102.0
1068,158.58879993854168,158.99661100625002,64.0,97.0
1069,158.92437018854167,159.62953378333333,45.0,89.0
1070,159.25994043854166,159.81316528125,52.0,78.0
1071,159.70736743854167,159.87934719166668,57.0,95.0
1072,159.48365393854166,159.89659177395833,60.0,107.0
1073,159.48365393854166,159.91616670520835,64.0,107.0
1074,159.81922418854168,160.46706119895833,45.0,95.0
1075,160.37850793854167,160.71128176979167,60.0,102.0
1076,160.37850793854167,160.7168746072917,64.0,100.0
1077,160.15479443854167,160.75509233020836,52.0,100.0
1078,160.60222143854168,160.81474926354167,57.0,97.0
1079,160.82593493854168,161.04452167083335,59.0,89.0
1080,160.82593493854168,161.04452167083335,63.0,102.0
1081,160.82593493854168,161.04452167083335,66.0,95.0
1082,160.82593493854168,161.04825022916668,47.0,75.0
1083,160.82593493854168,161.06036804375,54.0,99.0
1084,161.16150518854167,161.268701240625,47.0,78.0
1085,161.16150518854167,161.28221726458335,63.0,102.0
1086,161.16150518854167,161.28221726458335,66.0,107.0
1087,161.16150518854167,161.291072590625,59.0,92.0
1088,161.16150518854167,161.29386900937502,54.0,96.0
1089,161.49707543854169,161.59961079270835,63.0,102.0
1090,161.49707543854169,161.60660183958333,59.0,88.0
1091,161.49707543854169,161.60753397916667,54.0,112.0
1092,161.49707543854169,161.609864328125,47.0,83.0
1093,161.49707543854169,161.61219467708335,66.0,95.0
1094,161.72078893854166,161.87226162083334,47.0,95.0
1095,161.72078893854166,161.87925266770833,54.0,112.0
1096,161.72078893854166,161.88764192395834,63.0,112.0
1097,161.72078893854166,161.89323476145833,66.0,102.0
1098,161.72078893854166,161.89556511041667,59.0,96.0
1099,162.05635918854168,162.19058728854168,47.0,85.0
1100,162.05635918854168,162.19105335833333,63.0,112.0
1101,162.05635918854168,162.197112265625,54.0,107.0
1102,162.05635918854168,162.20177296354166,66.0,100.0
1103,162.05635918854168,162.20596759166668,59.0,96.0
1104,162.39192943854167,162.50891295625001,47.0,79.0
1105,162.39192943854167,162.51217544479167,63.0,107.0
1106,162.39192943854167,162.51403972395835,66.0,96.0
1107,162.39192943854167,162.51776828229168,54.0,107.0
1108,162.39192943854167,162.51776828229168,59.0,93.0
1109,162.61564293854167,162.7554638760417,47.0,90.0
1110,162.61564293854167,162.764785271875,54.0,112.0
1111,162.61564293854167,162.77876736562501,63.0,117.0
1112,162.61564293854167,162.77969950520833,66.0,102.0
1113,162.61564293854167,162.7834280635417,59.0,99.0
1114,162.95121318854166,163.08171273020832,47.0,83.0
1115,162.95121318854166,163.08450914895835,66.0,96.0
1116,162.95121318854166,163.0877716375,54.0,112.0
1117,162.95121318854166,163.0877716375,63.0,100.0
1118,162.95121318854166,163.09569482395835,59.0,89.0
1119,163.28678343854168,163.37953132708333,47.0,72.0
1120,163.28678343854168,163.39258128125002,63.0,117.0
1121,163.28678343854168,163.39258128125002,66.0,97.0
1122,163.28678343854168,163.40003839791666,59.0,92.0
1123,163.28678343854168,163.40050446770834,54.0,112.0
1124,163.51049693854168,163.65078394583333,54.0,127.0
1125,163.51049693854168,163.6559107135417,47.0,93.0
1126,163.51049693854168,163.68014634270833,63.0,127.0
1127,163.51049693854168,163.6838749010417,66.0,127.0
1128,163.51049693854168,163.68806952916668,59.0,107.0
1129,166.19505893854168,166.97479370000002,45.0,102.0
1130,166.64248593854168,167.08245582187502,60.0,100.0
1131,166.41877243854168,167.08292189166667,52.0,82.0
1132,166.64248593854168,167.08338796145836,64.0,95.0
1133,166.97805618854167,167.11508070729167,57.0,102.0
1134,167.3136264385417,167.59653080208335,52.0,117.0
1135,167.08991293854166,167.610978965625,45.0,112.0
1136,167.53733993854166,167.86685128125,64.0,95.0
1137,167.53733993854166,167.95027777395833,60.0,107.0
1138,167.76105343854167,168.04675422083335,57.0,112.0
1139,167.87291018854168,168.64518783333335,38.0,86.0
1140,168.20848043854167,168.82043007500002,45.0,76.0
1141,168.43219393854167,168.85631744895835,66.0,112.0
1142,168.43219393854167,168.86750312395833,62.0,100.0
1143,168.76776418854166,168.93881180208334,57.0,112.0
1144,168.87962093854168,168.94254036041667,62.0,31.0
1145,168.87962093854168,169.53305078645835,38.0,88.0
1146,169.10333443854168,169.60435946458335,45.0,73.0
1147,169.32704793854168,169.708293028125,50.0,77.0
1148,169.55076143854168,169.74557861145834,57.0,112.0
1149,169.32704793854168,169.74651075104168,66.0,107.0
1150,169.32704793854168,169.78099991562502,62.0,97.0
1151,169.7744749385417,170.5374311875,43.0,92.0
1152,169.99818843854166,170.628314796875,50.0,82.0
1153,170.2219019385417,170.63530584375002,59.0,96.0
1154,170.2219019385417,170.6492879375,62.0,95.0
1155,170.55747218854168,170.69356456770834,55.0,102.0
1156,170.89304243854167,171.187598546875,50.0,102.0
1157,170.66932893854167,171.19645387291666,43.0,92.0
1158,171.11675593854167,171.4830867947917,59.0,97.0
1159,171.11675593854167,171.49473853958335,62.0,97.0
1160,171.34046943854167,171.56930970625,55.0,102.0
1161,171.56418293854168,172.325740978125,40.0,93.0
1162,171.78789643854168,172.37421223645833,47.0,73.0
1163,172.01160993854168,172.454376240625,59.0,95.0
1164,172.01160993854168,172.47441724166669,64.0,96.0
1165,172.34718018854167,172.51077068541667,55.0,112.0
1166,172.45903693854166,172.966120871875,40.0,86.0
1167,172.6827504385417,173.01971889791668,47.0,107.0
1168,172.90646393854166,173.26766802708335,59.0,93.0
1169,172.90646393854166,173.29936077291669,64.0,97.0
1170,173.13017743854166,173.3105464479167,55.0,102.0
1171,173.35389093854167,174.0935436979167,45.0,85.0
1172,173.80131793854167,174.20493437812502,60.0,96.0
1173,173.57760443854167,174.224509309375,52.0,83.0
1174,173.80131793854167,174.22917000729169,64.0,93.0
1175,174.13688818854166,174.28416624270835,57.0,107.0
1176,174.24874493854168,174.957171021875,45.0,96.0
1177,174.47245843854168,175.096991959375,52.0,99.0
1178,174.91988543854168,175.12542221666666,57.0,112.0
1179,174.69617193854168,175.15338640416667,60.0,99.0
1180,174.69617193854168,175.15431854375,64.0,95.0
1181,175.1435989385417,175.867405325,45.0,95.0
1182,175.81473943854166,175.92939260729167,57.0,107.0
1183,175.5910259385417,175.95922107395833,60.0,96.0
1184,175.36731243854166,175.96854246979166,52.0,100.0
1185,175.5910259385417,175.97273709791668,64.0,99.0
1186,175.92659618854168,176.56744215208334,45.0,100.0
1187,176.48587993854167,176.7920877916667,60.0,107.0
1188,176.48587993854167,176.80327346666667,64.0,102.0
1189,176.26216643854167,176.84102511979168,52.0,102.0
1190,176.70959343854167,176.89042851770836,57.0,112.0
1191,176.8214501885417,177.61516704375,47.0,86.0
1192,177.38073393854168,177.7512594229167,66.0,117.0
1193,177.38073393854168,177.78947714583336,63.0,122.0
1194,177.15702043854168,177.79367177395835,54.0,97.0
1195,177.60444743854168,177.871039359375,59.0,96.0
1196,178.0518744385417,178.37672508333333,66.0,117.0
1197,178.0518744385417,178.38138578125,63.0,117.0
1198,177.71630418854167,178.51980850937503,47.0,81.0
1199,178.16373118854168,178.53751916145833,54.0,59.0
1200,178.4993014385417,178.78360401145835,59.0,122.0
1201,178.4993014385417,178.80317894270834,63.0,122.0
1202,178.4993014385417,178.80830571041668,66.0,122.0
1203,178.72301493854167,179.00545323229167,47.0,86.0
1204,178.72301493854167,179.01151213958335,54.0,107.0
1205,178.94672843854167,179.04693344375,59.0,122.0
1206,178.94672843854167,179.05159414166667,63.0,127.0
1207,178.94672843854167,179.05718697916666,66.0,127.0
1208,179.2822986885417,179.46546411666668,63.0,99.0
1209,179.2822986885417,179.47525158229166,66.0,99.0
1210,179.2822986885417,179.47571765208335,59.0,88.0
1211,179.61786893854168,179.93060176875002,66.0,112.0
1212,179.61786893854168,179.93433032708333,59.0,99.0
1213,179.61786893854168,179.937592815625,63.0,99.0
1214,179.2822986885417,179.987928353125,54.0,83.0
1215,179.39415543854167,180.09652261458334,47.0,45.0
1216,180.06529593854168,180.29320406666668,63.0,127.0
1217,180.06529593854168,180.32303253333333,66.0,127.0
1218,180.06529593854168,180.4498035166667,59.0,102.0
1219,180.51272293854169,181.25051141875002,45.0,90.0
1220,180.73643643854166,181.27474704791666,52.0,76.0
1221,180.84829318854167,181.50871408333336,64.0,107.0
1222,180.84829318854167,181.52176403750002,60.0,102.0
1223,181.18386343854166,181.54320324791667,57.0,99.0
1224,181.63129043854167,181.91000017395834,52.0,90.0
1225,181.40757693854167,181.96173392083335,45.0,93.0
1226,181.85500393854167,182.21061518958334,64.0,99.0
1227,181.85500393854167,182.30149879895833,60.0,107.0
1228,182.07871743854167,182.39005205937502,57.0,107.0
1229,182.97357143854168,183.24389191770834,57.0,107.0
1230,182.74985793854168,183.32172557291668,66.0,107.0
1231,182.74985793854168,183.32638627083332,62.0,100.0
1232,182.30243093854168,183.60556207604168,38.0,92.0
1233,183.4209984385417,183.70623315104166,57.0,112.0
1234,183.19728493854169,183.7365276875,50.0,92.0
1235,182.63800118854166,183.8260130875,45.0,72.0
1236,183.64471193854166,184.02222846979168,66.0,122.0
1237,183.64471193854166,184.03947305208334,62.0,102.0
1238,183.8684254385417,184.08374968229168,57.0,107.0
1239,184.53956593854167,184.5586748,61.0,71.0
1240,184.09213893854167,184.78891327708334,43.0,68.0
1241,184.31585243854167,184.85090055937502,50.0,85.0
1242,184.76327943854167,185.02893921979168,55.0,96.0
1243,184.53956593854167,185.05830161666668,59.0,92.0
1244,184.53956593854167,185.06389445416667,62.0,99.0
1245,185.21070643854168,185.48009477812502,50.0,99.0
1246,184.98699293854168,185.50200005833335,43.0,88.0
1247,185.43441993854168,185.78397228229167,59.0,96.0
1248,185.43441993854168,185.80308114375,62.0,93.0
1249,185.65813343854168,185.82591856354168,55.0,97.0
1250,185.76999018854167,186.55624992708334,40.0,92.0
1251,186.10556043854166,186.79394552083335,47.0,89.0
1252,186.66484418854168,186.925843271875,59.0,95.0
1253,186.3292739385417,187.02884469583336,64.0,93.0
1254,186.3292739385417,187.04003037083334,67.0,90.0
1255,186.77670093854167,187.3471703635417,40.0,97.0
1256,187.00041443854167,187.43339327500001,47.0,100.0
1257,187.22412793854167,187.64032826250002,64.0,97.0
1258,187.22412793854167,187.68227454375,67.0,95.0
1259,187.44784143854167,187.72328868541666,59.0,107.0
1260,187.67155493854168,188.43404511770834,45.0,78.0
1261,188.34269543854168,188.49370205104168,57.0,100.0
1262,188.11898193854168,188.50535379583334,60.0,99.0
1263,187.89526843854168,188.51001449375002,52.0,88.0
1264,188.11898193854168,188.53005549479167,64.0,96.0
1265,188.45455218854167,189.20306027395833,45.0,78.0
1266,189.01383593854166,189.4151220291667,60.0,102.0
1267,189.2375494385417,189.41698630833332,57.0,99.0
1268,188.7901224385417,189.4179184479167,52.0,102.0
1269,189.01383593854166,189.42164700625,64.0,97.0
1270,189.34940618854168,190.05456978333336,45.0,89.0
1271,189.6849764385417,190.23820128125,52.0,78.0
1272,190.13240343854167,190.30438319166666,57.0,95.0
1273,189.90868993854167,190.32162777395834,60.0,107.0
1274,189.90868993854167,190.34120270520833,64.0,107.0
1275,190.24426018854166,190.89209719895834,45.0,95.0
1276,190.80354393854168,191.13631776979167,60.0,102.0
1277,190.80354393854168,191.14191060729166,64.0,100.0
1278,190.57983043854168,191.18012833020833,52.0,100.0
1279,191.02725743854168,191.23978526354168,57.0,97.0
1280,191.25097093854168,191.46955767083335,59.0,89.0
1281,191.25097093854168,191.46955767083335,63.0,102.0
1282,191.25097093854168,191.46955767083335,66.0,95.0
1283,191.25097093854168,191.47328622916666,47.0,75.0
1284,191.25097093854168,191.48540404375,54.0,99.0
1285,191.58654118854167,191.693737240625,47.0,78.0
1286,191.58654118854167,191.70725326458336,63.0,102.0
1287,191.58654118854167,191.70725326458336,66.0,107.0
1288,191.58654118854167,191.71610859062503,59.0,92.0
1289,191.58654118854167,191.71890500937502,54.0,96.0
1290,191.92211143854166,192.02464679270832,63.0,102.0
1291,191.92211143854166,192.03163783958334,59.0,88.0
1292,191.92211143854166,192.03256997916668,54.0,112.0
1293,191.92211143854166,192.034900328125,47.0,83.0
1294,191.92211143854166,192.03723067708336,66.0,95.0
1295,192.1458249385417,192.29729762083335,47.0,95.0
1296,192.1458249385417,192.30428866770836,54.0,112.0
1297,192.1458249385417,192.31267792395835,63.0,112.0
1298,192.1458249385417,192.31827076145834,66.0,102.0
1299,192.1458249385417,192.32060111041667,59.0,96.0
1300,192.48139518854168,192.61562328854166,47.0,85.0
1301,192.48139518854168,192.61608935833334,63.0,112.0
1302,192.48139518854168,192.62214826562501,54.0,107.0
1303,192.48139518854168,192.6268089635417,66.0,100.0
1304,192.48139518854168,192.63100359166668,59.0,96.0
1305,192.81696543854167,192.93394895625,47.0,79.0
1306,192.81696543854167,192.93721144479167,63.0,107.0
1307,192.81696543854167,192.93907572395835,66.0,96.0
1308,192.81696543854167,192.94280428229166,54.0,107.0
1309,192.81696543854167,192.94280428229166,59.0,93.0
1310,193.04067893854167,193.18049987604167,47.0,90.0
1311,193.04067893854167,193.18982127187502,54.0,112.0
1312,193.04067893854167,193.203803365625,63.0,117.0
1313,193.04067893854167,193.20473550520836,66.0,102.0
1314,193.04067893854167,193.20846406354167,59.0,99.0
1315,193.3762491885417,193.50674873020836,47.0,83.0
1316,193.3762491885417,193.50954514895835,66.0,96.0
1317,193.3762491885417,193.5128076375,54.0,112.0
1318,193.3762491885417,193.5128076375,63.0,100.0
1319,193.3762491885417,193.52073082395833,59.0,89.0
1320,193.71181943854168,193.80456732708336,47.0,72.0
1321,193.71181943854168,193.81761728125002,63.0,117.0
1322,193.71181943854168,193.81761728125002,66.0,97.0
1323,193.71181943854168,193.8250743979167,59.0,92.0
1324,193.71181943854168,193.82554046770832,54.0,112.0
1325,193.93553293854166,194.07581994583336,54.0,127.0
1326,193.93553293854166,194.08094671354166,47.0,93.0
1327,193.93553293854166,194.10518234270836,63.0,127.0
1328,193.93553293854166,194.10891090104167,66.0,127.0
1329,193.93553293854166,194.11310552916666,59.0,107.0
1330,194.83038693854166,195.6273662822917,40.0,95.0
1331,195.0541004385417,195.66371972604168,47.0,49.0
1332,195.27781393854167,195.69075177395834,55.0,93.0
1333,195.61338418854166,195.76765328958334,52.0,93.0
1334,195.27781393854167,195.78955856979167,59.0,95.0
1335,195.72524093854167,196.49751858333335,40.0,92.0
1336,196.17266793854168,196.56929333125,55.0,88.0
1337,196.39638143854168,196.5837414947917,52.0,93.0
1338,195.94895443854168,196.59772358854167,47.0,102.0
1339,196.17266793854168,196.6224252875,59.0,88.0
1340,197.0675219385417,197.31220857916668,55.0,96.0
1341,197.0675219385417,197.38631367604168,59.0,95.0
1342,196.62009493854168,197.401227909375,40.0,88.0
1343,196.84380843854166,197.43105637604168,47.0,79.0
1344,197.5149489385417,197.59744329166668,55.0,92.0
1345,197.29123543854166,197.59884150104168,52.0,89.0
1346,197.5149489385417,197.6067646875,59.0,96.0
1347,197.5149489385417,197.63146638645833,47.0,67.0
1348,197.5149489385417,197.65290559687503,40.0,72.0
1349,197.96237593854167,198.1157129,40.0,71.0
1350,197.96237593854167,198.12317001666668,55.0,96.0
1351,197.96237593854167,198.12596643541667,52.0,96.0
1352,197.96237593854167,198.1441431572917,59.0,97.0
1353,197.96237593854167,198.159057390625,47.0,95.0
1354,198.40980293854167,199.15318425625003,43.0,95.0
1355,198.63351643854168,199.2864802166667,50.0,90.0
1356,198.85722993854168,199.32050331145834,59.0,95.0
1357,198.85722993854168,199.34101038229167,62.0,96.0
1358,199.1928001885417,199.358721034375,55.0,97.0
1359,199.30465693854165,200.05176681458335,43.0,89.0
1360,199.52837043854169,200.15663251770835,50.0,102.0
1361,199.75208393854166,200.19485024062502,59.0,95.0
1362,199.75208393854166,200.20883233437502,62.0,96.0
1363,199.9757974385417,200.2186198,55.0,99.0
1364,200.19951093854166,200.95640828020834,43.0,92.0
1365,200.64693793854167,201.03004730729168,59.0,102.0
1366,200.4232244385417,201.04635975000002,50.0,82.0
1367,200.64693793854167,201.0519525875,62.0,102.0
1368,200.98250818854166,201.10415240416665,55.0,93.0
1369,201.09436493854167,201.67089327083335,43.0,93.0
1370,201.54179193854168,201.94727265729168,59.0,107.0
1371,201.31807843854168,201.956594053125,50.0,117.0
1372,201.54179193854168,201.97197435625003,62.0,107.0
1373,201.76550543854168,201.987354659375,55.0,100.0
1374,201.98921893854168,202.75543767604168,45.0,81.0
1375,202.4366459385417,202.85377840208332,60.0,96.0
1376,202.21293243854166,202.859837309375,52.0,97.0
1377,202.4366459385417,202.891996125,64.0,95.0
1378,202.77221618854168,202.94186559270833,57.0,93.0
1379,202.8840729385417,203.62605604687502,45.0,93.0
1380,203.10778643854167,203.78778226458334,52.0,112.0
1381,203.3314999385417,203.79430724166667,60.0,100.0
1382,203.3314999385417,203.80316256770834,64.0,99.0
1383,203.55521343854167,203.950440621875,57.0,97.0
1384,203.77892693854167,204.54421353645836,45.0,93.0
1385,204.45006743854168,204.59175265520832,57.0,95.0
1386,204.22635393854168,204.593616934375,60.0,96.0
1387,204.22635393854168,204.60853116770835,64.0,95.0
1388,204.00264043854168,204.63509714583336,52.0,97.0
1389,204.67378093854168,205.317889390625,45.0,93.0
1390,205.12120793854166,205.36682671875002,64.0,99.0
1391,205.12120793854166,205.36822492812502,60.0,102.0
1392,205.3449214385417,205.4022480229167,57.0,92.0
1393,204.89749443854168,205.43114435,52.0,102.0
1394,205.56863493854166,205.72150583020834,63.0,127.0
1395,205.56863493854166,205.72197190000003,47.0,127.0
1396,205.56863493854166,205.73548792395835,59.0,96.0
1397,205.56863493854166,205.737352203125,66.0,122.0
1398,205.90420518854168,206.04169577708336,63.0,127.0
1399,205.90420518854168,206.04682254479167,66.0,100.0
1400,205.90420518854168,206.07665101145835,59.0,97.0
1401,205.90420518854168,206.10228485,47.0,127.0
1402,206.23977543854167,206.40196772604168,45.0,112.0
1403,206.23977543854167,206.41315340104168,57.0,112.0
1404,206.46348893854167,206.64245973854167,43.0,97.0
1405,206.46348893854167,206.66902571666668,55.0,127.0
1406,206.91091593854168,207.11272415833332,54.0,127.0
1407,206.91091593854168,207.18962567395835,42.0,127.0
1408,207.8057699385417,207.996858553125,59.0,74.0
1409,207.35834293854168,208.32497168645835,40.0,102.0
1410,207.58205643854166,208.36598582812502,47.0,85.0
1411,208.2531969385417,208.38323041041667,52.0,74.0
1412,207.8057699385417,208.59995286354166,67.0,83.0
1413,207.8057699385417,208.60974032916667,64.0,90.0
1414,208.14134018854168,208.62092600416668,59.0,92.0
1415,208.47691043854167,208.81061640937503,52.0,93.0
1416,208.47691043854167,209.11449391354168,47.0,78.0
1417,208.92433743854167,209.221689965625,59.0,97.0
1418,208.7006239385417,209.23893454791667,64.0,82.0
1419,208.7006239385417,209.25990768854166,67.0,78.0
1420,209.14805093854167,209.90727862916668,40.0,90.0
1421,209.37176443854167,209.92452321145834,47.0,58.0
1422,210.04290493854168,210.13099212916666,47.0,79.0
1423,210.04290493854168,210.13425461770834,52.0,93.0
1424,209.9310481885417,210.31136113854166,59.0,102.0
1425,209.59547793854168,210.31462362708334,64.0,89.0
1426,209.59547793854168,210.31555576666668,67.0,88.0
1427,210.26661843854168,210.80120048958332,52.0,100.0
1428,210.26661843854168,210.82730039791667,40.0,73.0
1429,210.49033193854166,210.90233763437502,64.0,99.0
1430,210.49033193854166,210.91538758854168,67.0,99.0
1431,210.7140454385417,210.92936968229168,59.0,102.0
1432,210.93775893854166,210.99322124375,40.0,100.0
1433,210.93775893854166,211.02444791979167,52.0,107.0
1434,211.1614724385417,211.24722928020833,52.0,102.0
1435,211.1614724385417,211.25794888541668,40.0,102.0
1436,211.38518593854167,211.53386220208336,55.0,100.0
1437,211.38518593854167,211.56974957604166,43.0,102.0
1438,211.60889943854167,211.763634609375,45.0,112.0
1439,211.60889943854167,211.769227446875,57.0,102.0
1440,211.83261293854167,211.91650550104168,59.0,102.0
1441,211.83261293854167,211.92396261770836,47.0,97.0
1442,212.05632643854167,212.23995793645832,47.0,95.0
1443,212.05632643854167,212.25487216979167,59.0,127.0
1444,212.28003993854168,212.48744099583334,57.0,107.0
1445,212.28003993854168,212.543835440625,45.0,117.0
1446,212.50375343854168,212.6589546791667,43.0,99.0
1447,212.50375343854168,212.70369737916667,55.0,96.0
1448,212.72746693854168,212.83093443229166,40.0,96.0
1449,212.72746693854168,212.83978975833332,52.0,107.0
1450,212.95118043854166,213.06070683958336,52.0,100.0
1451,212.95118043854166,213.09286565520836,40.0,93.0
1452,213.1748939385417,213.34827190104167,55.0,107.0
1453,213.1748939385417,213.40280206666668,43.0,112.0
1454,213.39860743854166,213.59202640208335,45.0,112.0
1455,213.39860743854166,213.59389068125,57.0,112.0
1456,213.6223209385417,213.72019559479168,59.0,117.0
1457,213.6223209385417,213.73044913020834,47.0,117.0
1458,213.84603443854166,214.00589637708333,59.0,107.0
1459,213.84603443854166,214.0497069375,47.0,97.0
1460,214.0697479385417,214.29905427604166,57.0,127.0
1461,214.0697479385417,214.32655239375,45.0,122.0
1462,214.29346143854167,214.48688040208333,43.0,95.0
1463,214.29346143854167,214.49946428645836,55.0,127.0
1464,214.51717493854167,214.57263724375002,40.0,100.0
1465,214.51717493854167,214.60386391979168,52.0,107.0
1466,214.74088843854167,214.82664528020834,52.0,102.0
1467,214.74088843854167,214.83736488541666,40.0,102.0
1468,214.96460193854168,215.11327820208334,55.0,100.0
1469,214.96460193854168,215.1491655760417,43.0,102.0
1470,215.18831543854168,215.343050609375,45.0,112.0
1471,215.18831543854168,215.34864344687503,57.0,102.0
1472,215.41202893854168,215.49592150104166,59.0,102.0
1473,215.41202893854168,215.50337861770834,47.0,97.0
1474,215.63574243854168,215.81937393645836,47.0,95.0
1475,215.63574243854168,215.83428816979168,59.0,127.0
1476,215.85945593854166,216.06685699583335,57.0,107.0
1477,215.85945593854166,216.123251440625,45.0,117.0
1478,216.0831694385417,216.23837067916668,43.0,99.0
1479,216.0831694385417,216.28311337916668,55.0,96.0
1480,216.30688293854166,216.4103504322917,40.0,96.0
1481,216.30688293854166,216.41920575833336,52.0,107.0
1482,216.5305964385417,216.64012283958334,52.0,100.0
1483,216.5305964385417,216.67228165520834,40.0,93.0
1484,216.75430993854167,216.92768790104168,55.0,107.0
1485,216.75430993854167,216.9822180666667,43.0,112.0
1486,216.9780234385417,217.17144240208336,45.0,112.0
1487,216.9780234385417,217.17330668125,57.0,112.0
1488,217.20173693854167,217.29961159479166,59.0,117.0
1489,217.20173693854167,217.30986513020832,47.0,117.0
1490,217.42545043854167,217.58531237708334,59.0,107.0
1491,217.42545043854167,217.62912293750003,47.0,97.0
1492,217.64916393854168,217.8784702760417,57.0,127.0
1493,217.64916393854168,217.90596839375002,45.0,122.0
1494,217.87287743854168,218.06629640208334,43.0,95.0
1495,217.87287743854168,218.07888028645834,55.0,127.0
1496,218.09659093854168,218.15205324375,40.0,100.0
1497,218.09659093854168,218.1832799197917,52.0,107.0
1498,218.32030443854168,218.40606128020835,52.0,102.0
1499,218.32030443854168,218.41678088541667,40.0,102.0
1500,218.54401793854169,218.69269420208335,55.0,100.0
1501,218.54401793854169,218.72858157604168,43.0,102.0
1502,218.76773143854166,218.92246660937502,45.0,112.0
1503,218.76773143854166,218.928059446875,57.0,102.0
1504,218.9914449385417,219.07533750104167,59.0,102.0
1505,218.9914449385417,219.08279461770834,47.0,97.0
1506,219.21515843854166,219.39878993645834,47.0,95.0
1507,219.21515843854166,219.41370416979169,59.0,127.0
1508,219.4388719385417,219.64627299583333,57.0,107.0
1509,219.4388719385417,219.70266744062502,45.0,117.0
1510,219.66258543854167,219.81778667916666,43.0,99.0
1511,219.66258543854167,219.8625293791667,55.0,96.0
1512,219.88629893854167,219.98976643229167,40.0,96.0
1513,219.88629893854167,219.99862175833334,52.0,107.0
1514,220.11001243854167,220.21953883958332,52.0,100.0
1515,220.11001243854167,220.25169765520835,40.0,93.0
1516,220.33372593854168,220.50710390104166,55.0,107.0
1517,220.33372593854168,220.56163406666667,43.0,112.0
1518,220.55743943854168,220.75085840208334,45.0,112.0
1519,220.55743943854168,220.75272268125002,57.0,112.0
1520,220.78115293854168,220.8790275947917,59.0,117.0
1521,220.78115293854168,220.88928113020836,47.0,117.0
1522,221.00486643854168,221.16472837708335,59.0,107.0
1523,221.00486643854168,221.2085389375,47.0,97.0
1524,221.22857993854166,221.45788627604168,57.0,127.0
1525,221.22857993854166,221.48538439375,45.0,122.0
1526,221.4522934385417,221.64571240208335,43.0,95.0
1527,221.4522934385417,221.65829628645832,55.0,127.0
1528,221.67600693854166,221.84658848229168,64.0,127.0
1529,221.67600693854166,221.91836323020834,52.0,117.0
1530,221.8997204385417,222.0213646541667,62.0,127.0
1531,221.8997204385417,222.0493288416667,50.0,117.0
1532,222.12343393854167,222.24740850312503,59.0,127.0
1533,222.12343393854167,222.29867618020836,47.0,122.0
1534,222.3471474385417,222.82486897500002,52.0,127.0
1535,222.3471474385417,222.90130442083336,40.0,122.0
