,start,end,pitch,velocity
0,20.651067124999997,20.780484941666664,65.0,117.0
1,20.918828124999997,21.05717130833333,65.0,93.0
2,21.186589124999998,21.742193199999996,65.0,127.0
3,21.989872124999994,22.28887190833333,61.0,102.0
4,22.257633124999995,22.61687913333333,63.0,107.0
5,22.793155124999995,23.016289291666663,70.0,117.0
6,23.060916124999995,24.192206349999996,68.0,122.0
7,24.667482124999996,24.770123841666663,70.0,122.0
8,24.935243124999996,25.051272891666663,70.0,112.0
9,25.203004124999996,25.303414499999995,70.0,102.0
10,25.470765124999996,25.676048558333328,70.0,127.0
11,25.738526124999996,25.992899074999997,68.0,117.0
12,26.006287124999997,26.285204833333328,66.0,102.0
13,26.274048124999997,28.03680804166666,68.0,107.0
14,28.148375124999994,28.41390478333333,68.0,127.0
15,28.416136124999994,28.674971758333328,66.0,99.0
16,28.683897124999994,29.239501199999996,65.0,102.0
17,29.219419124999995,29.36222499166666,66.0,107.0
18,29.487180124999995,30.109724449999995,66.0,122.0
19,30.290463124999995,30.56045546666666,68.0,122.0
20,30.558224124999995,30.738962799999996,66.0,112.0
21,30.825985124999995,31.368201149999994,65.0,102.0
22,31.361507124999996,31.481999574999996,66.0,100.0
23,31.629268124999996,32.29197659999999,66.0,122.0
24,32.432551124999996,32.63560321666666,61.0,112.0
25,32.700312124999996,32.85873738333333,63.0,102.0
26,32.968073125,33.349632549999995,65.0,97.0
27,33.503595125,33.900773941666664,65.0,112.0
28,34.039117125,34.26894531666666,65.0,97.0
29,34.306878125,34.60810924999999,63.0,112.0
30,34.574639125,34.74422109166666,61.0,97.0
31,34.842400125,35.35114602499999,65.0,95.0
32,35.37792212499999,37.12506265,63.0,99.0
33,37.78777112499999,37.91718894166666,65.0,117.0
34,38.05553212499999,38.193875308333325,65.0,93.0
35,38.32329312499999,38.87889719999999,65.0,127.0
36,39.12657612499999,39.42557590833333,61.0,102.0
37,39.39433712499999,39.75358313333333,63.0,107.0
38,39.92985912499999,40.15299329166666,70.0,117.0
39,40.19762012499999,41.328910349999994,68.0,122.0
40,41.804186124999994,41.90682784166666,70.0,122.0
41,42.071947124999994,42.18797689166666,70.0,112.0
42,42.339708124999994,42.44011849999999,70.0,102.0
43,42.607469124999994,42.81275255833333,70.0,127.0
44,42.875230124999995,43.12960307499999,68.0,117.0
45,43.142991124999995,43.421908833333326,66.0,102.0
46,43.410752124999995,45.17351204166666,68.0,107.0
47,45.28507912499999,45.550608783333324,68.0,127.0
48,45.55284012499999,45.81167575833332,66.0,99.0
49,45.82060112499999,46.376205199999994,65.0,102.0
50,46.35612312499999,46.49892899166666,66.0,107.0
51,46.62388412499999,47.24642844999999,66.0,122.0
52,47.42716712499999,47.69715946666666,68.0,122.0
53,47.69492812499999,47.87566679999999,66.0,112.0
54,47.96268912499999,48.50490514999999,65.0,102.0
55,48.49821112499999,48.61870357499999,66.0,100.0
56,48.76597212499999,49.42868059999999,66.0,122.0
57,49.56925512499999,49.77230721666666,61.0,112.0
58,49.83701612499999,49.99544138333332,63.0,102.0
59,50.10477712499999,50.48633654999999,65.0,97.0
60,50.64029912499999,50.778642308333325,65.0,112.0
61,50.90806012499999,51.193671858333325,65.0,122.0
62,51.44358212499999,51.68233568333333,66.0,127.0
63,51.71134312499999,51.93001460833332,68.0,122.0
64,51.97910412499999,52.56817832499999,65.0,102.0
65,52.51462612499999,53.70169989166666,63.0,112.0
66,53.58567012499999,53.804341608333324,61.0,117.0
67,53.85343112499999,54.65671412499999,63.0,122.0
68,54.65671412499999,56.48864563333333,61.0,127.0
69,58.13760712499999,58.293801041666654,70.0,127.0
70,58.40536812499999,58.67312912499999,72.0,99.0
71,58.67312912499999,59.05468854999999,73.0,127.0
72,59.20865112499999,59.538889691666654,73.0,127.0
73,59.74417312499999,59.895904358333325,73.0,127.0
74,60.01193412499999,60.24622499999999,72.0,127.0
75,60.27969512499999,60.375642816666655,70.0,107.0
76,60.54745612499999,61.08744080833332,70.0,127.0
77,61.08297812499999,62.058074433333324,68.0,107.0
78,62.42178312499999,62.58913374999999,65.0,107.0
79,62.68954412499999,62.88143950833332,68.0,127.0
80,62.95730512499999,63.276386983333325,70.0,127.0
81,63.49282712499999,63.87438654999999,70.0,127.0
82,64.02834912499999,64.27825939166665,73.0,122.0
83,64.29611012499998,64.53709502499999,68.0,102.0
84,64.56387112499999,64.83386346666666,61.0,117.0
85,64.83163212499998,65.286825825,63.0,112.0
86,65.36715412499998,66.56315325833332,65.0,100.0
87,66.70595912499999,66.88446645833332,70.0,127.0
88,66.97372012499999,67.22139904999999,72.0,100.0
89,67.24148112499999,67.60742115833332,73.0,127.0
90,67.777003125,68.07600290833332,73.0,127.0
91,68.312525125,68.47318172499999,73.0,127.0
92,68.58028612499999,68.77218150833332,73.0,127.0
93,68.848047125,68.99308433333331,70.0,127.0
94,69.11580812499999,69.55538243333332,70.0,127.0
95,69.65133012499999,70.52378471666665,68.0,112.0
96,70.990135125,71.23781404999998,65.0,102.0
97,71.25789612499999,71.47656760833333,68.0,112.0
98,71.52565712499998,71.84250764166666,70.0,127.0
99,72.06117912499998,72.16828352499999,70.0,117.0
100,72.32894012499999,72.42265647499998,70.0,127.0
101,72.59670112499998,72.69934284166665,70.0,127.0
102,72.86446212499999,73.27279764999999,73.0,122.0
103,73.66774512499998,75.13819928333332,75.0,127.0
104,75.27431112499998,75.43050504166665,70.0,127.0
105,75.54207212499999,75.80983312499998,72.0,99.0
106,75.80983312499998,76.19139254999999,73.0,127.0
107,76.34535512499998,76.67559369166665,73.0,127.0
108,76.88087712499998,77.03260835833332,75.0,127.0
109,77.14863812499999,77.37400363333332,73.0,127.0
110,77.41639912499998,77.63283926666665,65.0,92.0
111,77.68416012499999,78.07687625833331,70.0,127.0
112,78.21968212499999,79.19477843333333,68.0,107.0
113,79.55848712499998,79.72583774999998,65.0,107.0
114,79.82624812499999,80.01814350833332,68.0,127.0
115,80.09400912499999,80.41309098333332,70.0,127.0
116,80.62953112499999,81.01109054999999,70.0,127.0
117,81.16505312499999,81.41496339166665,73.0,122.0
118,81.432814125,81.67379902499998,68.0,102.0
119,81.70057512499999,81.97056746666665,61.0,117.0
120,81.96833612499998,82.42352982499999,63.0,112.0
121,82.50385812499998,83.69985725833332,65.0,100.0
122,83.84266312499999,84.02117045833332,70.0,127.0
123,84.11042412499998,84.35810304999998,72.0,100.0
124,84.37818512499999,84.74412515833332,73.0,127.0
125,84.91370712499999,85.21270690833332,73.0,127.0
126,85.44922912499999,85.60988572499998,73.0,127.0
127,85.71699012499998,85.89996014166665,72.0,122.0
128,85.98475112499999,86.16995248333332,73.0,127.0
129,86.25251212499998,86.60729544999998,75.0,122.0
130,86.78803412499998,87.73189164999998,77.0,127.0
131,88.12683912499999,88.22501815833331,68.0,127.0
132,88.39460012499998,88.49501049999998,68.0,122.0
133,88.66236112499999,88.94127883333331,70.0,127.0
134,88.93012212499998,89.23135324999998,73.0,127.0
135,89.46564412499998,89.59059925833331,73.0,127.0
136,89.73340512499999,89.85612891666665,73.0,127.0
137,90.00116612499998,90.63709849999998,75.0,127.0
138,90.80444912499999,92.87513419166665,73.0,127.0
139,110.61876312499999,110.74818094166665,65.0,117.0
140,110.88652412499998,111.02486730833331,65.0,93.0
141,111.15428512499999,111.70988919999998,65.0,127.0
142,111.95756812499998,112.25656790833331,61.0,102.0
143,112.22532912499999,112.58457513333332,63.0,107.0
144,112.76085112499997,112.98398529166664,70.0,117.0
145,113.02861212499998,114.15990234999998,68.0,122.0
146,114.63517812499998,114.73781984166665,70.0,122.0
147,114.90293912499997,115.01896889166665,70.0,112.0
148,115.17070012499998,115.27111049999998,70.0,102.0
149,115.43846112499998,115.64374455833331,70.0,127.0
150,115.70622212499998,115.96059507499999,68.0,117.0
151,115.97398312499998,116.25290083333331,66.0,102.0
152,116.24174412499998,118.00450404166665,68.0,107.0
153,118.11607112499998,118.38160078333331,68.0,127.0
154,118.38383212499998,118.64266775833332,66.0,99.0
155,118.65159312499998,119.20719719999998,65.0,102.0
156,119.18711512499998,119.32992099166664,66.0,107.0
157,119.45487612499998,120.07742044999998,66.0,122.0
158,120.25815912499998,120.52815146666664,68.0,122.0
159,120.52592012499998,120.70665879999999,66.0,112.0
160,120.79368112499998,121.33589714999998,65.0,102.0
161,121.32920312499998,121.44969557499998,66.0,100.0
162,121.59696412499999,122.25967259999997,66.0,122.0
163,122.40024712499998,122.60329921666664,61.0,112.0
164,122.66800812499999,122.82643338333331,63.0,102.0
165,122.93576912499998,123.31732854999998,65.0,97.0
166,123.47129112499998,123.86846994166665,65.0,112.0
167,124.00681312499998,124.23664131666665,65.0,97.0
168,124.27457412499997,124.57580524999997,63.0,112.0
169,124.54233512499998,124.71191709166665,61.0,97.0
170,124.81009612499997,125.31884202499998,65.0,95.0
171,125.34561812499997,127.09275864999998,63.0,99.0
172,127.75546712499998,127.88488494166664,65.0,117.0
173,128.02322812499997,128.16157130833332,65.0,93.0
174,128.29098912499998,128.84659319999997,65.0,127.0
175,129.09427212499997,129.3932719083333,61.0,102.0
176,129.36203312499998,129.7212791333333,63.0,107.0
177,129.89755512499997,130.12068929166665,70.0,117.0
178,130.16531612499998,131.29660635,68.0,122.0
179,131.771882125,131.87452384166664,70.0,122.0
180,132.03964312499997,132.15567289166665,70.0,112.0
181,132.30740412499998,132.40781449999997,70.0,102.0
182,132.57516512499998,132.78044855833332,70.0,127.0
183,132.842926125,133.09729907499997,68.0,117.0
184,133.11068712499997,133.38960483333332,66.0,102.0
185,133.37844812499998,135.14120804166663,68.0,107.0
186,135.25277512499997,135.51830478333332,68.0,127.0
187,135.52053612499998,135.7793717583333,66.0,99.0
188,135.78829712499999,136.34390119999998,65.0,102.0
189,136.32381912499997,136.46662499166663,66.0,107.0
190,136.59158012499998,137.21412444999999,66.0,122.0
191,137.39486312499997,137.66485546666664,68.0,122.0
192,137.66262412499998,137.84336279999997,66.0,112.0
193,137.930385125,138.47260114999997,65.0,102.0
194,138.46590712499997,138.58639957499997,66.0,100.0
195,138.73366812499998,139.39637659999997,66.0,122.0
196,139.53695112499997,139.74000321666665,61.0,112.0
197,139.80471212499998,139.9631373833333,63.0,102.0
198,140.072473125,140.45403254999997,65.0,97.0
199,140.60799512499997,140.74633830833332,65.0,112.0
200,140.87575612499998,141.1613678583333,65.0,122.0
201,141.41127812499997,141.6500316833333,66.0,127.0
202,141.67903912499997,141.8977106083333,68.0,122.0
203,141.94680012499998,142.53587432499998,65.0,102.0
204,142.48232212499997,143.66939589166665,63.0,112.0
205,143.55336612499997,143.7720376083333,61.0,117.0
206,143.82112712499998,144.62441012499997,63.0,122.0
207,144.62441012499997,146.4563416333333,61.0,127.0
208,148.10530312499998,148.26149704166664,70.0,127.0
209,148.37306412499998,148.64082512499996,72.0,99.0
210,148.64082512499996,149.02238454999997,73.0,127.0
211,149.17634712499998,149.50658569166663,73.0,127.0
212,149.71186912499996,149.86360035833331,73.0,127.0
213,149.97963012499997,150.21392099999997,72.0,127.0
214,150.24739112499998,150.34333881666663,70.0,107.0
215,150.515152125,151.05513680833332,70.0,127.0
216,151.05067412499997,152.02577043333332,68.0,107.0
217,152.38947912499998,152.55682974999996,65.0,107.0
218,152.657240125,152.84913550833332,68.0,127.0
219,152.92500112499997,153.2440829833333,70.0,127.0
220,153.46052312499998,153.84208255,70.0,127.0
221,153.99604512499997,154.24595539166663,73.0,122.0
222,154.26380612499997,154.50479102499997,68.0,102.0
223,154.53156712499998,154.80155946666665,61.0,117.0
224,154.79932812499996,155.25452182499998,63.0,112.0
225,155.33485012499997,156.53084925833332,65.0,100.0
226,156.67365512499998,156.8521624583333,70.0,127.0
227,156.94141612499996,157.18909504999996,72.0,100.0
228,157.20917712499997,157.5751171583333,73.0,127.0
229,157.74469912499998,158.0436989083333,73.0,127.0
230,158.28022112499997,158.44087772499998,73.0,127.0
231,158.54798212499998,158.7398775083333,73.0,127.0
232,158.81574312499998,158.9607803333333,70.0,127.0
233,159.08350412499996,159.5230784333333,70.0,127.0
234,159.61902612499998,160.49148071666664,68.0,112.0
235,160.95783112499998,161.20551004999996,65.0,102.0
236,161.22559212499996,161.4442636083333,68.0,112.0
237,161.49335312499997,161.81020364166665,70.0,127.0
238,162.02887512499998,162.13597952499998,70.0,117.0
239,162.29663612499996,162.390352475,70.0,127.0
240,162.56439712499997,162.66703884166665,70.0,127.0
241,162.83215812499998,163.24049364999996,73.0,122.0
242,163.63544112499997,165.1058952833333,75.0,127.0
243,165.24200712499996,165.39820104166662,70.0,127.0
244,165.50976812499997,165.77752912499997,72.0,99.0
245,165.77752912499997,166.15908854999998,73.0,127.0
246,166.31305112499996,166.64328969166664,73.0,127.0
247,166.84857312499997,167.0003043583333,75.0,127.0
248,167.11633412499998,167.3416996333333,73.0,127.0
249,167.38409512499996,167.60053526666664,65.0,92.0
250,167.65185612499997,168.04457225833332,70.0,127.0
251,168.18737812499998,169.1624744333333,68.0,107.0
252,169.52618312499996,169.69353374999997,65.0,107.0
253,169.79394412499997,169.9858395083333,68.0,127.0
254,170.06170512499997,170.3807869833333,70.0,127.0
255,170.59722712499996,170.97878654999997,70.0,127.0
256,171.13274912499998,171.38265939166664,73.0,122.0
257,171.40051012499998,171.64149502499998,68.0,102.0
258,171.66827112499996,171.93826346666663,61.0,117.0
259,171.93603212499997,172.39122582499996,63.0,112.0
260,172.47155412499998,173.6675532583333,65.0,100.0
261,173.81035912499996,173.9888664583333,70.0,127.0
262,174.07812012499997,174.32579904999997,72.0,100.0
263,174.34588112499998,174.7118211583333,73.0,127.0
264,174.88140312499996,175.1804029083333,73.0,127.0
265,175.41692512499998,175.57758172499996,73.0,127.0
266,175.68468612499996,175.86765614166663,72.0,122.0
267,175.95244712499996,176.1376484833333,73.0,127.0
268,176.22020812499997,176.57499144999997,75.0,122.0
269,176.75573012499996,177.69958764999996,77.0,127.0
270,178.09453512499996,178.1927141583333,68.0,127.0
271,178.36229612499997,178.46270649999997,68.0,122.0
272,178.63005712499998,178.9089748333333,70.0,127.0
273,178.89781812499996,179.19904924999997,73.0,127.0
274,179.43334012499997,179.64978026666662,73.0,122.0
275,179.70110112499998,179.8996905333333,75.0,127.0
276,179.96886212499996,180.32587679166664,73.0,127.0
277,180.50438412499997,180.7766078083333,73.0,127.0
278,180.77214512499998,180.7766078083333,73.0,127.0
279,182.37871112499997,182.53490504166663,70.0,127.0
280,182.64647212499997,182.91423312499998,72.0,99.0
281,182.91423312499998,183.29579254999996,73.0,127.0
282,183.44975512499997,183.77999369166665,73.0,127.0
283,183.98527712499998,184.1370083583333,75.0,127.0
284,184.25303812499996,184.4784036333333,73.0,127.0
285,184.52079912499997,184.70376914166664,73.0,112.0
286,184.78856012499998,185.11210466666662,75.0,102.0
287,185.32408212499996,186.2523202583333,77.0,127.0
288,186.66288712499997,186.88602129166662,77.0,112.0
289,186.93064812499998,187.1426255833333,75.0,107.0
290,187.19840912499996,187.44608804999996,73.0,127.0
291,187.73393112499997,187.94813992499996,73.0,127.0
292,188.26945312499996,188.51936339166664,73.0,122.0
293,188.53721412499996,188.76034829166665,72.0,107.0
294,188.80497512499997,188.93885562499997,70.0,102.0
295,189.07273612499998,189.4119000583333,70.0,117.0
296,189.60825812499996,190.4026157583333,68.0,112.0
297,190.94706312499997,191.1255704583333,70.0,127.0
298,191.21482412499998,191.46250304999998,72.0,100.0
299,191.48258512499996,191.8485251583333,73.0,127.0
300,192.01810712499997,192.3171069083333,73.0,127.0
301,192.55362912499996,192.71428572499997,73.0,127.0
302,192.82139012499997,193.00436014166664,72.0,122.0
303,193.08915112499997,193.2743524833333,73.0,127.0
304,193.35691212499998,193.71169544999998,75.0,122.0
305,193.89243412499997,194.83629164999996,77.0,127.0
306,195.23123912499997,195.3294181583333,68.0,127.0
307,195.49900012499995,195.59941049999998,68.0,122.0
308,195.76676112499996,196.0456788333333,70.0,127.0
309,196.03452212499997,196.33575324999995,73.0,127.0
310,196.57004412499995,196.78648426666663,73.0,122.0
311,196.83780512499996,196.9761483083333,73.0,122.0
312,197.10556612499997,197.9133118083333,75.0,112.0
313,197.90884912499996,200.8854589083333,73.0,117.0
