,start,end,pitch,velocity
0,0.8367531249999999,2.532572791666666,37.0,85.0
1,2.175558125,2.5526548666666664,61.0,58.0
2,1.3722751249999998,2.5905876749999996,49.0,56.0
3,2.708848783333333,2.9766097833333327,37.0,81.0
4,2.4433191249999995,3.007848566666666,65.0,67.0
5,2.7110801249999996,3.014542591666666,61.0,71.0
6,1.9077971249999996,3.0658634499999993,68.0,97.0
7,2.9788411249999993,4.237317824999999,48.0,78.0
8,4.047653783333333,4.5586310249999995,65.0,81.0
9,3.5143631249999996,4.585407124999999,60.0,64.0
10,4.583175783333332,4.585407124999999,60.0,76.0
11,4.047653783333333,5.107541074999999,68.0,117.0
12,4.850936783333332,5.1186977833333325,48.0,81.0
13,5.654219783333333,6.620390724999999,58.0,83.0
14,5.120929124999999,6.678405608333332,46.0,86.0
15,5.921980783333332,6.798898058333332,61.0,60.0
16,6.189741783333332,6.798898058333332,61.0,95.0
17,6.725263783333332,6.897077091666666,58.0,63.0
18,6.189741783333332,7.068890399999999,65.0,81.0
19,6.995256124999999,7.068890399999999,65.0,83.0
20,6.9930247833333326,7.260785783333332,46.0,83.0
21,7.798539124999999,8.414389424999998,53.0,78.0
22,8.331829783333331,9.014620333333331,56.0,76.0
23,8.869583124999998,9.014620333333331,56.0,99.0
24,8.601822124999998,9.025777041666665,53.0,63.0
25,7.263017124999998,9.028008383333331,41.0,69.0
26,7.5307781249999985,9.061478508333332,48.0,58.0
27,8.331829783333331,9.338164874999999,60.0,85.0
28,9.137344124999998,9.338164874999999,60.0,67.0
29,9.135112783333332,9.402873783333332,41.0,81.0
30,10.206156783333332,10.569865474999999,58.0,75.0
31,9.938395783333332,10.690357924999999,54.0,76.0
32,10.743910124999998,10.938036849999998,54.0,69.0
33,9.405105124999999,11.087536741666664,42.0,92.0
34,10.47391778333333,11.348603716666664,61.0,92.0
35,11.279432124999998,11.348603716666664,61.0,96.0
36,11.277200783333331,11.544961783333331,42.0,81.0
37,11.011671124999998,11.558349833333331,58.0,85.0
38,10.47391778333333,11.826110833333331,66.0,99.0
39,12.082715124999998,12.72980420833333,53.0,81.0
40,12.616005783333332,13.15152778333333,56.0,85.0
41,11.814954124999998,13.15822180833333,48.0,54.0
42,11.547193124999998,13.169378516666665,41.0,72.0
43,13.15152778333333,13.367967924999999,53.0,83.0
44,12.616005783333332,13.515236474999998,60.0,82.0
45,13.421520124999997,13.515236474999998,60.0,72.0
46,13.41928878333333,13.68704978333333,41.0,81.0
47,14.758093783333331,15.048168199999997,54.0,92.0
48,14.490332783333331,15.081638324999997,51.0,68.0
49,15.028086124999998,15.081638324999997,51.0,89.0
50,13.689281124999997,15.262376999999997,39.0,86.0
51,14.758093783333331,15.338242616666664,58.0,77.0
52,14.222571783333331,15.516749949999998,46.0,59.0
53,15.295847124999998,15.717570699999998,54.0,90.0
54,14.758093783333331,15.826906441666663,63.0,73.0
55,15.56137678333333,15.82913778333333,39.0,81.0
56,16.63242078333333,17.185793516666664,56.0,89.0
57,17.170174124999996,17.185793516666664,56.0,85.0
58,16.90018178333333,17.50264403333333,63.0,99.0
59,15.831369124999997,17.513800741666664,44.0,79.0
60,16.90018178333333,17.59636038333333,68.0,90.0
61,16.36465978333333,17.826188574999996,51.0,64.0
62,17.973457124999996,19.281023341666664,56.0,63.0
63,17.973457124999996,19.401515791666665,51.0,69.0
64,17.973457124999996,19.48407543333333,44.0,53.0
65,17.973457124999996,20.211492816666663,63.0,72.0
66,17.973457124999996,20.231574891666664,68.0,77.0
67,17.437935124999996,20.258350991666664,60.0,82.0
68,20.115545124999997,22.025573591666664,37.0,71.0
69,20.651067124999997,22.137140674999998,44.0,27.0
70,21.722111124999998,22.22862568333333,53.0,57.0
71,21.186589124999998,22.297797274999997,56.0,83.0
72,21.186589124999998,22.333498741666663,61.0,79.0
73,22.793155124999995,23.355453224999994,53.0,89.0
74,22.257633124999995,23.612057516666663,41.0,69.0
75,23.328677124999995,24.395258441666662,60.0,77.0
76,23.864199124999995,24.399721124999996,53.0,56.0
77,23.328677124999995,24.399721124999996,56.0,83.0
78,24.399721124999996,25.37481743333333,42.0,79.0
79,24.935243124999996,25.437294999999995,61.0,93.0
80,25.470765124999996,26.133473599999995,44.0,66.0
81,26.006287124999997,26.568585224999996,60.0,66.0
82,26.006287124999997,26.579741933333327,63.0,74.0
83,26.541809124999997,27.287077241666662,37.0,72.0
84,27.077331124999997,27.58161434166666,49.0,74.0
85,27.612853124999994,28.032345358333327,46.0,71.0
86,27.612853124999994,28.507621133333327,65.0,62.0
87,27.612853124999994,28.596874799999995,62.0,69.0
88,27.612853124999994,28.73968066666666,58.0,92.0
89,28.683897124999994,30.645246449999995,39.0,93.0
90,29.754941124999995,30.76797024166666,54.0,77.0
91,29.219419124999995,30.825985124999995,51.0,46.0
92,29.754941124999995,30.825985124999995,58.0,86.0
93,30.825985124999995,30.87730598333333,54.0,27.0
94,30.825985124999995,32.316521358333326,39.0,97.0
95,31.361507124999996,32.36784221666666,51.0,63.0
96,31.897029124999996,32.999311908333326,54.0,99.0
97,31.897029124999996,33.01493129999999,57.0,85.0
98,32.968073125,34.98074330833333,44.0,78.0
99,33.503595125,35.15925064166666,51.0,83.0
100,34.039117125,35.790720333333326,60.0,93.0
101,34.842400125,35.82195911666666,68.0,53.0
102,34.039117125,35.83534716666666,63.0,97.0
103,34.574639125,35.844272533333324,56.0,67.0
104,35.64568312499999,36.292772208333325,51.0,65.0
105,36.18120512499999,36.321779649999996,56.0,32.0
106,36.44896612499999,36.60516004166666,51.0,88.0
107,35.11016112499999,36.68325699999999,44.0,82.0
108,36.71672712499999,36.75019724999999,60.0,31.0
109,36.71672712499999,37.314726691666664,56.0,97.0
110,36.98448812499999,37.332577425,60.0,67.0
111,36.18120512499999,37.34373413333333,63.0,63.0
112,36.18120512499999,37.34819681666666,68.0,99.0
113,37.78777112499999,38.98153891666666,44.0,63.0
114,37.25224912499999,38.99938964999999,37.0,90.0
115,38.32329312499999,39.36979236666666,61.0,107.0
116,38.85881512499999,39.38764309999999,56.0,76.0
117,39.92985912499999,40.79785103333332,48.0,69.0
118,39.39433712499999,40.833552499999996,41.0,73.0
119,40.46538112499999,41.46502219166666,60.0,82.0
120,40.46538112499999,41.46948487499999,56.0,95.0
121,41.000903124999994,41.53865646666666,53.0,75.0
122,41.536425124999994,42.591849733333326,42.0,63.0
123,42.071947124999994,42.63870790833332,58.0,82.0
124,42.071947124999994,42.66102132499999,61.0,88.0
125,42.607469124999994,43.274640283333326,44.0,99.0
126,43.410752124999995,43.678513124999995,56.0,83.0
127,43.142991124999995,43.678513124999995,63.0,112.0
128,43.678513124999995,44.278744033333325,37.0,86.0
129,44.214035124999995,44.704930291666656,49.0,68.0
130,44.749557124999995,45.71126538333333,46.0,54.0
131,44.749557124999995,45.81613844166666,58.0,93.0
132,44.749557124999995,45.818369783333324,65.0,61.0
133,44.749557124999995,45.825063808333326,62.0,71.0
134,46.89164512499999,47.42270444166666,51.0,54.0
135,46.35612312499999,47.518652133333326,46.0,34.0
136,45.82060112499999,47.83103996666666,39.0,95.0
137,46.89164512499999,47.938144366666656,63.0,90.0
138,46.89164512499999,47.96268912499999,58.0,93.0
139,47.42716712499999,47.982771199999995,54.0,89.0
140,48.49821112499999,49.11629276666666,51.0,76.0
141,47.96268912499999,49.24571058333333,39.0,93.0
142,49.56925512499999,50.013292116666655,51.0,74.0
143,49.03373312499999,50.035605533333325,57.0,86.0
144,49.03373312499999,50.04453089999999,54.0,100.0
145,51.17582112499999,51.401186633333324,56.0,79.0
146,50.10477712499999,52.148686091666654,44.0,96.0
147,50.64029912499999,52.313805374999994,51.0,74.0
148,51.17582112499999,52.891722866666655,60.0,107.0
149,51.17582112499999,52.95420043333333,63.0,107.0
150,51.71134312499999,53.16394654999999,56.0,82.0
151,52.78238712499999,53.449558283333324,51.0,81.0
152,53.58567012499999,53.728475991666656,51.0,96.0
153,52.24686512499999,53.79541624166666,44.0,97.0
154,53.31790912499999,54.411266541666656,63.0,127.0
155,53.85343112499999,54.51613959999999,56.0,97.0
156,54.924475124999994,55.66528055833332,49.0,86.0
157,55.459997124999994,56.040145958333326,61.0,127.0
158,54.38895312499999,56.43286209166666,37.0,100.0
159,55.72775812499999,56.57120527499999,49.0,97.0
160,55.99551912499999,57.195980941666654,56.0,99.0
161,56.26328012499999,57.222757041666654,61.0,64.0
162,57.33432412499999,57.49498072499999,56.0,56.0
163,56.53104112499999,57.50167474999999,37.0,100.0
164,57.06656312499999,57.50167474999999,49.0,92.0
165,56.26328012499999,57.52175682499999,65.0,76.0
166,57.60208512499999,58.57495009166666,48.0,95.0
167,57.60208512499999,58.58610679999999,60.0,107.0
168,59.206419783333324,59.62591201666665,58.0,92.0
169,59.474180783333324,60.06325498333332,61.0,107.0
170,59.74417312499999,60.13912059999999,65.0,83.0
171,60.01193412499999,60.23283694999999,58.0,90.0
172,58.94089012499999,60.27969512499999,53.0,76.0
173,60.277463783333324,60.27969512499999,53.0,100.0
174,58.67312912499999,60.371180133333326,46.0,93.0
175,59.74417312499999,60.78844102499999,70.0,107.0
176,60.545224783333325,60.812985783333325,46.0,81.0
177,60.54745612499999,60.83753054166666,65.0,72.0
178,61.080746783333325,61.709985133333326,56.0,92.0
179,61.616268783333325,61.959895399999986,60.0,90.0
180,61.88626112499999,62.15402212499999,65.0,103.0
181,62.151790783333325,62.419551783333326,60.0,107.0
182,60.81521712499999,62.51549947499999,41.0,72.0
183,62.419551783333326,62.687312783333326,56.0,104.0
184,62.68954412499999,62.91490963333332,60.0,69.0
185,62.687312783333326,62.955073783333326,41.0,81.0
186,62.687312783333326,62.955073783333326,53.0,88.0
187,63.22506612499999,63.69364787499999,54.0,90.0
188,63.49282712499999,63.80967764166665,58.0,112.0
189,62.95730512499999,63.95694619166665,42.0,112.0
190,63.76058812499999,63.97702826666666,61.0,127.0
191,64.02834912499999,64.49916221666666,44.0,112.0
192,64.29611012499998,64.68436357499999,56.0,90.0
193,64.83163212499998,65.13509459166666,56.0,112.0
194,64.56387112499999,65.15071398333332,63.0,127.0
195,65.90267612499999,66.13250431666665,53.0,93.0
196,65.63491512499999,66.16151175833332,49.0,97.0
197,66.17043712499999,66.43596678333333,56.0,93.0
198,65.36715412499998,66.598854725,44.0,68.0
199,65.09939312499999,66.60108606666665,37.0,72.0
200,66.16820578333332,66.70372778333332,65.0,81.0
201,66.43596678333333,66.72604119999998,53.0,93.0
202,66.70372778333332,67.04066037499999,49.0,96.0
203,66.17043712499999,67.21916770833332,61.0,109.0
204,66.97148878333333,67.23924978333332,44.0,81.0
205,66.97372012499999,67.23924978333332,56.0,97.0
206,67.777003125,68.44194294166665,58.0,99.0
207,68.04476412499999,68.72086064999999,61.0,102.0
208,68.31029378333332,68.87928590833332,70.0,112.0
209,68.58028612499999,68.94399481666666,58.0,99.0
210,67.50924212499999,68.97969628333333,53.0,63.0
211,67.24148112499999,69.04886787499998,46.0,97.0
212,68.312525125,69.37910644166665,65.0,101.0
213,69.11357678333331,69.38133778333332,46.0,81.0
214,69.919091125,70.19354614999999,53.0,88.0
215,69.65133012499999,70.57733691666665,48.0,83.0
216,69.383569125,70.86071730833332,41.0,70.0
217,70.18685212499999,70.93212024166665,56.0,96.0
218,70.72237412499999,70.990135125,53.0,95.0
219,70.45238178333332,71.25566478333332,65.0,81.0
220,70.98790378333332,71.52565712499998,48.0,96.0
221,70.454613125,71.52565712499998,60.0,99.0
222,71.25566478333332,71.55689590833332,41.0,91.0
223,72.32894012499999,72.66810405833333,54.0,65.0
224,72.06117912499998,72.70157418333332,51.0,92.0
225,71.52565712499998,73.02288738333333,39.0,71.0
226,71.79341812499999,73.04296945833332,46.0,69.0
227,72.59670112499998,73.09205897499999,58.0,92.0
228,72.86446212499999,73.18800666666665,53.0,97.0
229,73.12999178333332,73.46692437499999,51.0,102.0
230,72.59670112499998,73.64096902499999,63.0,106.0
231,73.39998412499999,73.64766304999999,39.0,105.0
232,74.47102812499999,74.66961753333332,68.0,110.0
233,74.47102812499999,74.67631155833332,63.0,110.0
234,74.20326712499998,74.78341595833332,56.0,102.0
235,75.00655012499999,75.25422904999999,56.0,108.0
236,73.93550612499999,75.28100514999998,51.0,64.0
237,75.27207978333333,75.28100514999998,51.0,107.0
238,74.73878912499998,75.31447527499999,63.0,109.0
239,73.66774512499998,75.42604235833332,44.0,93.0
240,74.73878912499998,75.84776593333332,68.0,109.0
241,75.53984078333332,75.85892264166665,44.0,105.0
242,76.61311612499999,76.88087712499998,61.0,102.0
243,76.34535512499998,77.09508592499999,58.0,102.0
244,76.87864578333333,77.39631705,70.0,101.0
245,77.14863812499999,77.49226474166666,58.0,71.0
246,76.88087712499998,77.52127218333332,65.0,99.0
247,76.07759412499999,77.53912291666666,53.0,78.0
248,75.80983312499998,77.65961536666666,46.0,95.0
249,77.41416778333333,77.68192878333332,56.0,81.0
250,77.68192878333332,77.94968978333333,46.0,100.0
251,78.75520412499999,79.10775610833332,56.0,86.0
252,78.48744312499998,79.116681475,53.0,92.0
253,77.95192112499998,79.50047224166666,41.0,88.0
254,78.21968212499999,79.51832297499999,48.0,81.0
255,79.29072612499999,79.55848712499998,56.0,96.0
256,79.02296512499998,80.07392704999998,65.0,95.0
257,79.55625578333331,80.16094937499999,53.0,100.0
258,79.82401678333332,80.16318071666666,41.0,71.0
259,80.09400912499999,80.89729212499999,42.0,93.0
260,80.89506078333332,80.89729212499999,42.0,102.0
261,80.62953112499999,80.93968761666665,54.0,117.0
262,80.36177012499999,81.13158299999999,49.0,93.0
263,81.432814125,81.87461977499999,51.0,107.0
264,81.16505312499999,81.87685111666666,44.0,95.0
265,81.70057512499999,82.18923894999999,56.0,104.0
266,81.96610478333332,82.23386578333331,44.0,102.0
267,83.03938012499998,83.42986491666666,56.0,85.0
268,82.77161912499999,83.43879028333332,49.0,93.0
269,83.30714112499999,83.73555872499999,61.0,108.0
270,82.50385812499998,84.08364802499999,44.0,92.0
271,83.57267078333332,84.09034204999999,56.0,92.0
272,82.23609712499999,84.17290169166665,37.0,98.0
273,83.84043178333332,84.38934183333332,49.0,89.0
274,83.30714112499999,84.42727464166666,65.0,108.0
275,84.10819278333332,84.45405074166665,44.0,85.0
276,85.18146812499998,85.50278132499999,61.0,93.0
277,84.91370712499999,85.54294547499998,58.0,112.0
278,85.44699778333332,85.71475878333332,70.0,81.0
279,85.44922912499999,85.86202733333332,65.0,71.0
280,84.64594612499998,85.98475112499999,53.0,54.0
281,85.98251978333332,85.98475112499999,53.0,74.0
282,85.71475878333332,86.03607198333331,58.0,100.0
283,84.37818512499999,86.12978833333332,46.0,102.0
284,86.25028078333332,86.61622081666665,46.0,100.0
285,87.05579512499999,87.32801880833331,53.0,83.0
286,87.32355612499998,87.59131712499999,56.0,86.0
287,86.78803412499998,87.70734689166665,48.0,76.0
288,87.58908578333332,88.12460778333332,65.0,81.0
289,87.85684678333332,88.17592864166666,56.0,95.0
290,86.52027312499999,88.20716742499998,41.0,75.0
291,88.12683912499999,88.48608513333332,53.0,100.0
292,87.59131712499999,88.56864477499998,60.0,102.0
293,88.39236878333332,88.57310745833331,41.0,99.0
294,88.93012212499998,89.25589800833332,54.0,95.0
295,88.66236112499999,89.55489779166665,42.0,100.0
296,89.19788312499999,89.59729328333331,58.0,100.0
297,89.19788312499999,89.63522609166665,61.0,107.0
298,89.46564412499998,89.71555439166666,54.0,97.0
299,89.73340512499999,90.25330773333332,44.0,99.0
300,90.00116612499998,90.32917334999999,56.0,85.0
301,90.26892712499999,90.79106107499999,60.0,73.0
302,90.53668812499998,90.80444912499999,56.0,93.0
303,90.26892712499999,90.80444912499999,63.0,112.0
304,90.80444912499999,91.52740382499998,37.0,117.0
305,91.33997112499999,91.58765004999998,61.0,99.0
306,91.07221012499998,91.64789627499998,49.0,96.0
307,91.60773212499998,91.86210507499999,68.0,127.0
308,91.87549312499998,92.31283609166665,60.0,117.0
309,91.87549312499998,92.31953011666666,48.0,112.0
310,92.41101512499998,92.68100746666666,48.0,86.0
311,92.41101512499998,92.87736553333332,60.0,117.0
312,93.74982012499999,94.04881990833331,61.0,89.0
313,93.48205912499998,94.10237210833331,58.0,100.0
314,94.01758112499998,94.44153604166665,65.0,102.0
315,93.21429812499998,94.50178226666665,53.0,65.0
316,94.28311078333331,94.53971507499999,61.0,102.0
317,92.94653712499998,94.61558069166665,46.0,90.0
318,94.01758112499998,94.64905081666664,70.0,102.0
319,94.55310312499998,94.70929704166664,65.0,38.0
320,94.81863278333331,95.08639378333332,46.0,102.0
321,94.82086412499999,95.08639378333332,65.0,100.0
322,94.82086412499999,95.13102061666665,70.0,100.0
323,94.55310312499998,95.15779671666665,58.0,102.0
324,95.62414712499998,95.97000508333332,53.0,90.0
325,95.89190812499999,96.24892279166664,56.0,82.0
326,95.35638612499999,96.32701974999998,48.0,89.0
327,96.42519878333331,96.61932550833332,56.0,90.0
328,95.08862512499998,96.65948965833331,41.0,73.0
329,96.15966912499998,96.74651198333332,60.0,72.0
330,96.15966912499998,97.17269824166665,65.0,78.0
331,96.96295212499999,97.21509373333332,60.0,66.0
332,96.96072078333331,97.22848178333332,41.0,81.0
333,96.69295978333332,97.22848178333332,53.0,97.0
334,97.23071312499998,98.03399612499999,42.0,97.0
335,97.76623512499998,98.10093637499999,54.0,102.0
336,97.49847412499999,98.23035419166665,49.0,88.0
337,98.03399612499999,98.32630188333331,42.0,117.0
338,98.29952578333332,98.69224191666665,56.0,96.0
339,98.30175712499998,98.80157765833331,44.0,97.0
340,98.29952578333332,98.87074924999999,63.0,117.0
341,98.83504778333332,99.10280878333332,51.0,81.0
342,99.10280878333332,99.37056978333332,44.0,81.0
343,100.44161378333331,100.79416576666665,56.0,101.0
344,100.17385278333332,100.79639710833331,49.0,107.0
345,100.71160612499999,100.79639710833331,49.0,102.0
346,100.44384512499998,100.97490444166665,61.0,127.0
347,99.37280112499998,101.05300139999999,37.0,88.0
348,99.90609178333331,101.30737434999999,44.0,83.0
349,100.97713578333331,101.30737434999999,44.0,112.0
350,101.24489678333332,101.51265778333331,37.0,112.0
351,102.04817978333331,102.44312725833332,58.0,107.0
352,102.31594078333332,102.92732839999998,61.0,102.0
353,102.85146278333332,102.92732839999998,61.0,102.0
354,101.78041878333332,102.94294779166665,53.0,66.0
355,102.58593312499998,103.08129097499999,65.0,90.0
356,101.51488912499998,103.30665648333331,46.0,93.0
357,103.11922378333331,103.35797734166665,58.0,107.0
358,103.38698478333332,103.65474578333331,46.0,81.0
359,103.12145512499998,103.65697712499998,70.0,127.0
360,104.19026778333331,104.48926756666665,53.0,96.0
361,104.45802878333332,104.77487929999998,56.0,107.0
362,103.92250678333332,104.81504344999998,48.0,97.0
363,103.65697712499998,105.15197604166664,41.0,77.0
364,104.99355078333332,105.17205811666665,56.0,96.0
365,105.26354312499998,105.66741596666665,53.0,117.0
366,104.72802112499998,105.70088609166665,60.0,122.0
367,105.52907278333332,105.79683378333331,41.0,81.0
368,105.52907278333332,105.81245317499999,48.0,93.0
369,106.60234812499998,106.76300472499999,58.0,97.0
370,106.33458712499998,106.76523606666665,61.0,99.0
371,106.33235578333331,106.78754948333331,54.0,99.0
372,105.79906512499998,106.82101960833332,42.0,93.0
373,106.86787778333331,107.25166854999998,56.0,89.0
374,106.87010912499998,107.34315355833331,44.0,122.0
375,106.86787778333331,107.40339978333331,63.0,127.0
376,107.40339978333331,107.67116078333332,51.0,107.0
377,107.67116078333332,107.93892178333331,44.0,81.0
378,107.93892178333331,108.58154818333331,61.0,100.0
379,108.47444378333331,108.58154818333331,61.0,96.0
380,108.74443612499998,109.28888349166665,65.0,86.0
381,108.20891412499998,109.93597257499998,56.0,61.0
382,107.93892178333331,110.06762173333331,49.0,89.0
383,109.01219712499999,110.07431575833331,73.0,94.0
384,110.08324112499999,111.99326959166665,37.0,71.0
385,110.61876312499999,112.10483667499999,44.0,27.0
386,111.68980712499999,112.19632168333331,53.0,57.0
387,111.15428512499999,112.26549327499998,56.0,83.0
388,111.15428512499999,112.30119474166665,61.0,79.0
389,112.76085112499997,113.32314922499998,53.0,89.0
390,112.22532912499999,113.57975351666664,41.0,69.0
391,113.29637312499997,114.36295444166664,60.0,77.0
392,113.83189512499997,114.36741712499997,53.0,56.0
393,113.29637312499997,114.36741712499997,56.0,83.0
394,114.36741712499997,115.34251343333331,42.0,79.0
395,114.90293912499997,115.40499099999998,61.0,93.0
396,115.43846112499998,116.10116959999998,44.0,66.0
397,115.97398312499998,116.53628122499998,60.0,66.0
398,115.97398312499998,116.54743793333331,63.0,74.0
399,116.50950512499998,117.25477324166664,37.0,72.0
400,117.04502712499998,117.54931034166664,49.0,74.0
401,117.58054912499998,118.00004135833332,46.0,71.0
402,117.58054912499998,118.47531713333332,65.0,62.0
403,117.58054912499998,118.56457079999998,62.0,69.0
404,117.58054912499998,118.70737666666665,58.0,92.0
405,118.65159312499998,120.61294244999998,39.0,93.0
406,119.72263712499998,120.73566624166665,54.0,77.0
407,119.18711512499998,120.79368112499998,51.0,46.0
408,119.72263712499998,120.79368112499998,58.0,86.0
409,120.79368112499998,120.84500198333332,54.0,27.0
410,120.79368112499998,122.28421735833331,39.0,97.0
411,121.32920312499998,122.33553821666665,51.0,63.0
412,121.86472512499998,122.96700790833331,54.0,99.0
413,121.86472512499998,122.98262729999998,57.0,85.0
414,122.93576912499998,124.9484393083333,44.0,78.0
415,123.47129112499998,125.12694664166665,51.0,83.0
416,124.00681312499998,125.75841633333332,60.0,93.0
417,124.81009612499997,125.78965511666665,68.0,53.0
418,124.00681312499998,125.80304316666664,63.0,97.0
419,124.54233512499998,125.81196853333331,56.0,67.0
420,125.61337912499998,126.26046820833331,51.0,65.0
421,126.14890112499998,126.28947564999997,56.0,32.0
422,126.41666212499997,126.57285604166664,51.0,88.0
423,125.07785712499998,126.65095299999997,44.0,82.0
424,126.68442312499998,126.71789324999997,60.0,31.0
425,126.68442312499998,127.28242269166664,56.0,97.0
426,126.95218412499997,127.30027342499997,60.0,67.0
427,126.14890112499998,127.31143013333332,63.0,63.0
428,126.14890112499998,127.31589281666665,68.0,99.0
429,127.75546712499998,128.94923491666665,44.0,63.0
430,127.21994512499998,128.96708564999997,37.0,90.0
431,128.29098912499998,129.33748836666663,61.0,107.0
432,128.82651112499997,129.35533909999998,56.0,76.0
433,129.89755512499997,130.76554703333332,48.0,69.0
434,129.36203312499998,130.80124849999999,41.0,73.0
435,130.43307712499998,131.43271819166665,60.0,82.0
436,130.43307712499998,131.43718087499997,56.0,95.0
437,130.96859912499997,131.50635246666664,53.0,75.0
438,131.50412112499998,132.55954573333332,42.0,63.0
439,132.03964312499997,132.6064039083333,58.0,82.0
440,132.03964312499997,132.62871732499997,61.0,88.0
441,132.57516512499998,133.24233628333332,44.0,99.0
442,133.37844812499998,133.64620912499998,56.0,83.0
443,133.11068712499997,133.64620912499998,63.0,112.0
444,133.64620912499998,134.2464400333333,37.0,86.0
445,134.18173112499997,134.67262629166663,49.0,68.0
446,134.71725312499998,135.6789613833333,46.0,54.0
447,134.71725312499998,135.78383444166664,58.0,93.0
448,134.71725312499998,135.7860657833333,65.0,61.0
449,134.71725312499998,135.7927598083333,62.0,71.0
450,136.859341125,137.39040044166666,51.0,54.0
451,136.32381912499997,137.4863481333333,46.0,34.0
452,135.78829712499999,137.79873596666664,39.0,95.0
453,136.859341125,137.90584036666664,63.0,90.0
454,136.859341125,137.930385125,58.0,93.0
455,137.39486312499997,137.95046719999996,54.0,89.0
456,138.46590712499997,139.08398876666664,51.0,76.0
457,137.930385125,139.2134065833333,39.0,93.0
458,139.53695112499997,139.98098811666665,51.0,74.0
459,139.001429125,140.0033015333333,57.0,86.0
460,139.001429125,140.01222689999997,54.0,100.0
461,141.143517125,141.3688826333333,56.0,79.0
462,140.072473125,142.11638209166665,44.0,96.0
463,140.60799512499997,142.28150137499998,51.0,74.0
464,141.143517125,142.85941886666663,60.0,107.0
465,141.143517125,142.9218964333333,63.0,107.0
466,141.67903912499997,143.13164254999998,56.0,82.0
467,142.75008312499997,143.4172542833333,51.0,81.0
468,143.55336612499997,143.69617199166663,51.0,96.0
469,142.214561125,143.76311224166665,44.0,97.0
470,143.285605125,144.37896254166665,63.0,127.0
471,143.82112712499998,144.48383559999996,56.0,97.0
472,144.89217112499998,145.6329765583333,49.0,86.0
473,145.42769312499996,146.0078419583333,61.0,127.0
474,144.35664912499996,146.40055809166665,37.0,100.0
475,145.69545412499997,146.53890127499997,49.0,97.0
476,145.96321512499998,147.16367694166664,56.0,99.0
477,146.23097612499998,147.19045304166664,61.0,64.0
478,147.30202012499998,147.46267672499997,56.0,56.0
479,146.49873712499996,147.46937074999997,37.0,100.0
480,147.03425912499998,147.46937074999997,49.0,92.0
481,146.23097612499998,147.48945282499997,65.0,76.0
482,147.56978112499996,148.54264609166665,48.0,95.0
483,147.56978112499996,148.55380279999997,60.0,107.0
484,149.17411578333332,149.59360801666665,58.0,92.0
485,149.4418767833333,150.0309509833333,61.0,107.0
486,149.71186912499996,150.10681659999997,65.0,83.0
487,149.97963012499997,150.20053294999997,58.0,90.0
488,148.90858612499997,150.24739112499998,53.0,76.0
489,150.24515978333332,150.24739112499998,53.0,100.0
490,148.64082512499996,150.33887613333332,46.0,93.0
491,149.71186912499996,150.756137025,70.0,107.0
492,150.5129207833333,150.7806817833333,46.0,81.0
493,150.515152125,150.80522654166663,65.0,72.0
494,151.04844278333331,151.6776811333333,56.0,92.0
495,151.5839647833333,151.92759139999998,60.0,90.0
496,151.85395712499997,152.12171812499997,65.0,103.0
497,152.11948678333331,152.3872477833333,60.0,107.0
498,150.78291312499996,152.48319547499997,41.0,72.0
499,152.3872477833333,152.6550087833333,56.0,104.0
500,152.657240125,152.8826056333333,60.0,69.0
501,152.6550087833333,152.9227697833333,41.0,81.0
502,152.6550087833333,152.9227697833333,53.0,88.0
503,153.19276212499997,153.66134387499997,54.0,90.0
504,153.46052312499998,153.77737364166663,58.0,112.0
505,152.92500112499997,153.92464219166663,42.0,112.0
506,153.728284125,153.94472426666664,61.0,127.0
507,153.99604512499997,154.46685821666665,44.0,112.0
508,154.26380612499997,154.65205957499998,56.0,90.0
509,154.79932812499996,155.10279059166663,56.0,112.0
510,154.53156712499998,155.1184099833333,63.0,127.0
511,155.87037212499996,156.10020031666664,53.0,93.0
512,155.60261112499998,156.1292077583333,49.0,97.0
513,156.13813312499997,156.40366278333332,56.0,93.0
514,155.33485012499997,156.56655072499998,44.0,68.0
515,155.06708912499997,156.56878206666664,37.0,72.0
516,156.1359017833333,156.6714237833333,65.0,81.0
517,156.40366278333332,156.6937372,53.0,93.0
518,156.6714237833333,157.00835637499998,49.0,96.0
519,156.13813312499997,157.1868637083333,61.0,109.0
520,156.9391847833333,157.2069457833333,44.0,81.0
521,156.94141612499996,157.2069457833333,56.0,97.0
522,157.74469912499998,158.40963894166663,58.0,99.0
523,158.01246012499996,158.68855664999998,61.0,102.0
524,158.2779897833333,158.8469819083333,70.0,112.0
525,158.54798212499998,158.91169081666663,58.0,99.0
526,157.47693812499998,158.9473922833333,53.0,63.0
527,157.20917712499997,159.01656387499997,46.0,97.0
528,158.28022112499997,159.34680244166663,65.0,101.0
529,159.0812727833333,159.3490337833333,46.0,81.0
530,159.88678712499998,160.16124214999996,53.0,88.0
531,159.61902612499998,160.54503291666663,48.0,83.0
532,159.35126512499997,160.8284133083333,41.0,70.0
533,160.15454812499996,160.89981624166663,56.0,96.0
534,160.69007012499998,160.95783112499998,53.0,95.0
535,160.4200777833333,161.2233607833333,65.0,81.0
536,160.9555997833333,161.49335312499997,48.0,96.0
537,160.42230912499997,161.49335312499997,60.0,99.0
538,161.2233607833333,161.5245919083333,41.0,91.0
539,162.29663612499996,162.6358000583333,54.0,65.0
540,162.02887512499998,162.6692701833333,51.0,92.0
541,161.49335312499997,162.9905833833333,39.0,71.0
542,161.76111412499998,163.0106654583333,46.0,69.0
543,162.56439712499997,163.05975497499998,58.0,92.0
544,162.83215812499998,163.15570266666663,53.0,97.0
545,163.0976877833333,163.43462037499998,51.0,102.0
546,162.56439712499997,163.60866502499996,63.0,106.0
547,163.36768012499996,163.61535904999997,39.0,105.0
548,164.43872412499996,164.6373135333333,68.0,110.0
549,164.43872412499996,164.6440075583333,63.0,110.0
550,164.170963125,164.7511119583333,56.0,102.0
551,164.97424612499998,165.22192504999998,56.0,108.0
552,163.90320212499998,165.24870114999996,51.0,64.0
553,165.2397757833333,165.24870114999996,51.0,107.0
554,164.70648512499997,165.28217127499997,63.0,109.0
555,163.63544112499997,165.3937383583333,44.0,93.0
556,164.70648512499997,165.8154619333333,68.0,109.0
557,165.5075367833333,165.82661864166664,44.0,105.0
558,166.58081212499997,166.84857312499997,61.0,102.0
559,166.31305112499996,167.06278192499997,58.0,102.0
560,166.84634178333332,167.36401304999998,70.0,101.0
561,167.11633412499998,167.45996074166663,58.0,71.0
562,166.84857312499997,167.4889681833333,65.0,99.0
563,166.04529012499998,167.50681891666665,53.0,78.0
564,165.77752912499997,167.62731136666665,46.0,95.0
565,167.3818637833333,167.6496247833333,56.0,81.0
566,167.6496247833333,167.91738578333332,46.0,100.0
567,168.72290012499997,169.0754521083333,56.0,86.0
568,168.45513912499996,169.08437747499997,53.0,92.0
569,167.91961712499997,169.46816824166663,41.0,88.0
570,168.18737812499998,169.48601897499998,48.0,81.0
571,169.25842212499998,169.52618312499996,56.0,96.0
572,168.99066112499997,170.04162304999997,65.0,95.0
573,169.5239517833333,170.12864537499996,53.0,100.0
574,169.7917127833333,170.13087671666665,41.0,71.0
575,170.06170512499997,170.86498812499997,42.0,93.0
576,170.8627567833333,170.86498812499997,42.0,102.0
577,170.59722712499996,170.90738361666664,54.0,117.0
578,170.32946612499998,171.09927899999997,49.0,93.0
579,171.40051012499998,171.84231577499997,51.0,107.0
580,171.13274912499998,171.84454711666663,44.0,95.0
581,171.66827112499996,172.15693494999996,56.0,104.0
582,171.9338007833333,172.2015617833333,44.0,102.0
583,173.00707612499997,173.39756091666663,56.0,85.0
584,172.73931512499996,173.4064862833333,49.0,93.0
585,173.27483712499998,173.70325472499997,61.0,108.0
586,172.47155412499998,174.05134402499996,44.0,92.0
587,173.5403667833333,174.05803804999996,56.0,92.0
588,172.20379312499998,174.14059769166664,37.0,98.0
589,173.8081277833333,174.3570378333333,49.0,89.0
590,173.27483712499998,174.39497064166665,65.0,108.0
591,174.0758887833333,174.42174674166662,44.0,85.0
592,175.14916412499997,175.47047732499996,61.0,93.0
593,174.88140312499996,175.51064147499997,58.0,112.0
594,175.4146937833333,175.6824547833333,70.0,81.0
595,175.41692512499998,175.8297233333333,65.0,71.0
596,174.61364212499996,175.95244712499996,53.0,54.0
597,175.9502157833333,175.95244712499996,53.0,74.0
598,175.6824547833333,176.0037679833333,58.0,100.0
599,174.34588112499998,176.0974843333333,46.0,102.0
600,176.2179767833333,176.58391681666663,46.0,100.0
601,177.02349112499996,177.29571480833332,53.0,83.0
602,177.29125212499997,177.55901312499998,56.0,86.0
603,176.75573012499996,177.67504289166664,48.0,76.0
604,177.5567817833333,178.0923037833333,65.0,81.0
605,177.8245427833333,178.14362464166663,56.0,95.0
606,176.48796912499998,178.17486342499996,41.0,75.0
607,178.09453512499996,178.4537811333333,53.0,100.0
608,177.55901312499998,178.53634077499996,60.0,102.0
609,178.3600647833333,178.5408034583333,41.0,99.0
610,178.89781812499996,179.2235940083333,54.0,95.0
611,178.63005712499998,179.52259379166662,42.0,100.0
612,179.16557912499997,179.5649892833333,58.0,100.0
613,179.16557912499997,179.60292209166664,61.0,107.0
614,179.43334012499997,179.68325039166663,54.0,97.0
615,179.70110112499998,180.2210037333333,44.0,99.0
616,179.96886212499996,180.29686934999998,56.0,85.0
617,180.23662312499997,180.75875707499998,60.0,73.0
618,180.50438412499997,180.77214512499998,56.0,93.0
619,180.23662312499997,180.77214512499998,63.0,112.0
620,180.77214512499998,181.49509982499998,37.0,117.0
621,181.30766712499997,181.55534604999997,61.0,99.0
622,181.03990612499996,181.61559227499995,49.0,96.0
623,181.57542812499997,181.82980107499998,68.0,127.0
624,181.84318912499998,182.28053209166663,60.0,117.0
625,181.84318912499998,182.28722611666663,48.0,112.0
626,182.37871112499997,182.64870346666663,48.0,86.0
627,182.37871112499997,182.8450615333333,60.0,117.0
628,183.4475237833333,183.86701601666664,58.0,92.0
629,183.7152847833333,184.30435898333332,61.0,107.0
630,183.98527712499998,184.38022459999996,65.0,83.0
631,184.25303812499996,184.47394094999996,58.0,90.0
632,183.18199412499996,184.52079912499997,53.0,76.0
633,184.5185677833333,184.52079912499997,53.0,100.0
634,182.91423312499998,184.6122841333333,46.0,93.0
635,183.98527712499998,185.02954502499998,70.0,107.0
636,184.7863287833333,185.0540897833333,46.0,81.0
637,184.78856012499998,185.07863454166664,65.0,72.0
638,185.3218507833333,185.9510891333333,56.0,92.0
639,185.8573727833333,186.20099939999997,60.0,90.0
640,186.12736512499995,186.39512612499996,65.0,103.0
641,186.3928947833333,186.6606557833333,60.0,107.0
642,185.05632112499995,186.75660347499996,41.0,72.0
643,186.6606557833333,186.9284167833333,56.0,104.0
644,186.93064812499998,187.1560136333333,60.0,69.0
645,186.9284167833333,187.1961777833333,41.0,81.0
646,186.9284167833333,187.1961777833333,53.0,88.0
647,187.46617012499996,187.93475187499996,54.0,90.0
648,187.73393112499997,188.05078164166665,58.0,112.0
649,187.19840912499996,188.19805019166662,42.0,112.0
650,188.00169212499998,188.21813226666663,61.0,127.0
651,188.26945312499996,188.74026621666664,44.0,112.0
652,188.53721412499996,188.92546757499997,56.0,90.0
653,189.07273612499998,189.37619859166662,56.0,112.0
654,188.80497512499997,189.3918179833333,63.0,127.0
655,190.14378012499998,190.37360831666663,53.0,93.0
656,189.87601912499997,190.4026157583333,49.0,97.0
657,190.41154112499996,190.6770707833333,56.0,93.0
658,189.60825812499996,190.83995872499997,44.0,68.0
659,189.34049712499996,190.84219006666663,37.0,72.0
660,190.4093097833333,190.9448317833333,65.0,81.0
661,190.6770707833333,190.96714519999998,53.0,93.0
662,190.9448317833333,191.28176437499997,49.0,96.0
663,190.41154112499996,191.4602717083333,61.0,109.0
664,191.2125927833333,191.4803537833333,44.0,81.0
665,191.21482412499998,191.4803537833333,56.0,97.0
666,192.01810712499997,192.68304694166665,58.0,99.0
667,192.28586812499998,192.96196464999997,61.0,102.0
668,192.5513977833333,193.1203899083333,70.0,112.0
669,192.82139012499997,193.18509881666662,58.0,99.0
670,191.75034612499996,193.2208002833333,53.0,63.0
671,191.48258512499996,193.28997187499996,46.0,97.0
672,192.55362912499996,193.62021044166664,65.0,101.0
673,193.3546807833333,193.6224417833333,46.0,81.0
674,194.16019512499997,194.43465014999995,53.0,88.0
675,193.89243412499997,194.81844091666665,48.0,83.0
676,193.62467312499996,195.1018213083333,41.0,70.0
677,194.42795612499998,195.17322424166665,56.0,96.0
678,194.96347812499997,195.23123912499997,53.0,95.0
679,194.6934857833333,195.4967687833333,65.0,81.0
680,195.2290077833333,195.76676112499996,48.0,96.0
681,194.69571712499996,195.76676112499996,60.0,99.0
682,195.4967687833333,195.7979999083333,41.0,91.0
683,196.57004412499995,196.9092080583333,54.0,65.0
684,196.30228312499997,196.9426781833333,51.0,92.0
685,195.76676112499996,197.2639913833333,39.0,71.0
686,196.03452212499997,197.2840734583333,46.0,69.0
687,196.83780512499996,197.33316297499996,58.0,92.0
688,197.10556612499997,197.42911066666665,53.0,97.0
689,197.3710957833333,197.70802837499997,51.0,102.0
690,196.83780512499996,197.88207302499995,63.0,106.0
691,197.64108812499995,197.88876704999996,39.0,105.0
692,198.44437112499998,199.08699752499996,49.0,100.0
693,198.71213212499995,199.25657949166663,53.0,86.0
694,199.24765412499997,199.83226564166662,49.0,96.0
695,198.17661012499997,199.90366857499995,44.0,61.0
696,199.51541512499998,200.03308639166664,56.0,102.0
697,197.90884912499996,200.03754907499996,37.0,89.0
698,198.97989312499996,200.0420117583333,61.0,127.0
699,199.78317612499995,200.05316846666662,53.0,92.0
700,200.05093712499996,200.7448843833333,68.0,95.0
701,200.05093712499996,200.74934706666664,60.0,88.0
702,200.05093712499996,200.75604109166665,65.0,93.0
703,200.58645912499998,201.1799960083333,48.0,49.0
704,200.05093712499996,201.44552566666664,36.0,81.0
705,201.38974212499997,201.66642849166664,48.0,47.0
706,200.85422012499996,201.7623761833333,65.0,96.0
707,201.65750312499998,202.2108758583333,60.0,96.0
708,201.92526412499996,202.29343549999996,65.0,72.0
709,200.85422012499996,202.30682354999996,68.0,107.0
710,202.99630812499996,203.31762132499998,61.0,75.0
711,202.72854712499998,203.37117352499996,58.0,102.0
712,203.53183012499997,203.73265087499996,58.0,95.0
713,202.46078612499997,203.77281502499997,53.0,59.0
714,202.19302512499996,203.8977701583333,46.0,85.0
715,203.26406912499996,204.33065044166662,65.0,86.0
716,203.79959112499998,204.3730459333333,61.0,100.0
717,204.87063512499998,205.19864234999997,53.0,99.0
718,204.60287412499997,205.55119433333329,48.0,82.0
719,205.67391812499997,205.95060449166664,48.0,65.0
720,204.33511312499996,205.95506717499995,41.0,73.0
721,205.94167912499995,206.43257429166664,56.0,117.0
722,205.13839612499996,206.4348056333333,60.0,97.0
723,207.01272312499995,207.59064061666663,54.0,90.0
724,207.81600612499997,207.99005077499996,54.0,88.0
725,206.74496212499997,208.0882298083333,49.0,58.0
726,206.47720112499997,208.10384919999996,42.0,79.0
727,208.08376712499995,208.63267717499997,61.0,97.0
728,207.28048412499996,208.63937119999997,66.0,99.0
729,208.35152812499996,208.67284132499995,58.0,96.0
730,209.15481112499995,209.8487583833333,53.0,77.0
731,209.95809412499997,210.19461634166663,53.0,86.0
732,209.42257212499996,210.1968476833333,56.0,112.0
733,208.88705012499997,210.3039520833333,48.0,56.0
734,208.61928912499997,210.31510879166663,41.0,78.0
735,210.22585512499995,210.61410857499996,60.0,88.0
736,210.49361612499996,210.75022041666662,56.0,78.0
737,211.29689912499995,211.90828674166664,51.0,76.0
738,210.76137712499997,212.3054655583333,39.0,83.0
739,211.02913812499997,212.34116702499998,46.0,52.0
740,211.56466012499996,212.41033861666662,63.0,112.0
741,212.10018212499998,212.4728161833333,51.0,97.0
742,212.36794312499995,212.95924866666664,66.0,102.0
743,213.70674812499996,214.52341917499996,60.0,78.0
744,213.43898712499995,214.90051591666662,56.0,102.0
745,212.90346512499997,214.91167262499997,44.0,90.0
746,213.97450912499997,214.92059799166663,68.0,122.0
747,213.17122612499998,214.9496054333333,51.0,67.0
748,214.51003112499995,214.97415019166664,63.0,99.0
749,215.04555312499997,217.62498409166662,56.0,72.0
750,215.04555312499997,217.7343198333333,51.0,66.0
751,215.04555312499997,217.78117800833328,44.0,64.0
752,215.04555312499997,218.07125242499995,63.0,97.0
753,215.04555312499997,218.14711804166663,60.0,85.0
754,215.04555312499997,218.17389414166664,68.0,74.0
755,219.32972912499997,223.9731511333333,49.0,83.0
756,219.32972912499997,223.9798451583333,44.0,77.0
757,219.32972912499997,223.99100186666664,65.0,69.0
758,219.32972912499997,224.00215857499995,68.0,66.0
759,219.32972912499997,224.0177779666666,37.0,71.0
760,219.32972912499997,224.0177779666666,61.0,68.0
