,start,end,pitch,velocity
0,31.414850683333334,31.70208433333333,71.0,107.0
1,33.010593183333334,33.33772039583333,67.0,89.0
2,33.32974168333333,33.56910305833333,69.0,90.0
3,33.648890183333336,33.7419751625,71.0,122.0
4,33.96803868333333,34.06378323333333,69.0,97.0
5,34.28718718333333,34.37495302083333,69.0,96.0
6,34.606335683333334,35.0026117375,71.0,112.0
7,34.92548418333333,35.88292968333333,69.0,96.0
8,36.52122668333333,37.69808677708333,67.0,95.0
9,38.11696918333333,38.3616497,67.0,92.0
10,38.436117683333336,38.54781965833333,69.0,100.0
11,38.75526618333333,39.11297846041666,71.0,102.0
12,39.07441468333333,39.17015923333334,69.0,95.0
13,39.393563183333335,39.55180764791667,69.0,95.0
14,39.71271168333333,39.966700697916664,71.0,102.0
15,40.031860183333336,40.65818911458333,69.0,88.0
16,41.627602683333336,42.14754878125,64.0,96.0
17,42.26589968333333,42.49329298958333,66.0,93.0
18,42.585048183333335,43.079728358333334,67.0,85.0
19,43.223345183333336,43.81244012291667,69.0,96.0
20,44.180790683333335,44.73531120208333,62.0,90.0
21,44.819087683333336,45.033183135416664,66.0,88.0
22,45.13823618333333,45.462703825,67.0,85.0
23,45.776533183333335,45.928128720833335,67.0,78.0
24,46.09568168333333,46.31243670625,69.0,96.0
25,46.414830183333336,46.58105336041667,71.0,81.0
26,46.73397868333333,47.10897817083333,72.0,112.0
27,47.372275683333335,47.74594538541667,71.0,102.0
28,48.010572683333336,48.257912770833336,69.0,112.0
29,48.329721183333334,48.615625047916666,67.0,96.0
30,48.968018183333335,49.3323793875,71.0,97.0
31,49.60631518333334,49.95338917708333,69.0,102.0
32,50.24461218333333,50.66083501875,67.0,97.0
33,50.88290918333333,51.4228020625,69.0,102.0
34,51.84035468333333,52.127588333333335,71.0,107.0
35,53.43609718333333,53.76322439583333,67.0,89.0
36,53.755245683333335,53.99460705833333,69.0,90.0
37,54.07439418333333,54.1674791625,71.0,122.0
38,54.39354268333333,54.489287233333336,69.0,97.0
39,54.712691183333334,54.800457020833335,69.0,96.0
40,55.03183968333333,55.4281157375,71.0,112.0
41,55.350988183333335,56.308433683333334,69.0,96.0
42,56.946730683333335,58.123590777083336,67.0,95.0
43,58.542473183333335,58.7871537,67.0,92.0
44,58.86162168333333,58.973323658333335,69.0,100.0
45,59.18077018333333,59.53848246041667,71.0,102.0
46,59.499918683333334,59.59566323333333,69.0,95.0
47,59.81906718333333,59.977311647916665,69.0,95.0
48,60.138215683333335,60.39220469791667,71.0,102.0
49,60.45736418333333,61.08369311458333,69.0,88.0
50,62.05310668333333,62.57305278125,64.0,96.0
51,62.691403683333334,62.918796989583335,66.0,93.0
52,63.01055218333333,63.50523235833333,67.0,85.0
53,63.64884918333333,64.23794412291667,69.0,96.0
54,64.60629468333333,65.16081520208333,62.0,90.0
55,65.24459168333334,65.45868713541667,67.0,88.0
56,65.56374018333334,65.888207825,67.0,85.0
57,66.20203718333333,66.35363272083333,67.0,78.0
58,66.52118568333333,66.73794070625,69.0,96.0
59,66.84033418333334,67.00655736041666,71.0,81.0
60,67.15948268333334,67.53448217083333,72.0,112.0
61,67.79777968333333,68.17144938541666,71.0,102.0
62,68.43607668333334,68.68341677083333,69.0,112.0
63,68.75522518333334,69.04112904791667,67.0,96.0
64,69.39352218333333,69.7578833875,71.0,97.0
65,70.03181918333333,70.37889317708333,69.0,102.0
66,70.67011618333333,71.08633901875,67.0,97.0
67,71.30841318333333,71.8483060625,69.0,102.0
68,72.26585868333333,72.73128357916667,67.0,100.0
69,72.90415568333333,73.24325096458334,69.0,117.0
70,73.54245268333334,73.97463294375,71.0,102.0
71,74.18074968333333,74.48261097291666,72.0,122.0
72,74.81904668333333,75.143514325,74.0,122.0
73,75.45734368333333,75.77250282708333,76.0,122.0
74,75.77649218333333,76.06505561875,74.0,112.0
75,76.41478918333333,76.8908523625,76.0,102.0
76,77.05308618333333,77.2578731375,78.0,112.0
77,77.37223468333333,77.65946833333334,79.0,112.0
78,78.01053168333333,78.40946730833333,79.0,117.0
79,78.64882868333333,79.04776430833333,79.0,112.0
80,79.28712568333333,79.66345495624999,79.0,112.0
81,79.92542268333334,80.31239023958334,78.0,127.0
82,80.40414543333333,80.6568046625,76.0,127.0
83,80.88286818333333,81.34430372291666,74.0,112.0
84,81.52116518333334,81.702016,74.0,122.0
85,81.84031368333333,81.99057943541666,74.0,100.0
86,82.15946218333333,82.31770664791667,74.0,99.0
87,82.47861068333333,82.68871677916667,76.0,117.0
88,82.79775918333333,82.98924828333334,67.0,99.0
89,83.11690768333334,83.24589686875,67.0,95.0
90,83.43605618333333,83.77648125,67.0,96.0
91,84.07435318333333,84.19270408541666,76.0,127.0
92,84.39350168333333,84.5025440875,76.0,102.0
93,84.71265018333334,84.84030958333334,76.0,122.0
94,85.03179868333334,85.2685004875,74.0,102.0
95,85.35094718333333,85.51052143333334,67.0,95.0
96,85.67009568333333,85.80440401041666,67.0,97.0
97,85.98924418333333,86.30839268333334,67.0,100.0
98,86.62754118333334,86.85360470416667,67.0,96.0
99,86.94668968333333,87.17142341875,69.0,100.0
100,87.26583818333333,87.45067835625,71.0,102.0
101,87.58498668333333,88.0211563,72.0,117.0
102,88.22328368333334,88.69269793541666,71.0,122.0
103,88.86158068333333,89.186048325,69.0,112.0
104,89.49987768333334,89.77248369375,67.0,122.0
105,89.81902618333334,90.07700455416666,71.0,122.0
106,90.45732318333333,90.877535375,69.0,122.0
107,91.09562018333334,91.46264095833334,67.0,102.0
108,91.73391718333333,92.5929585625,69.0,127.0
109,92.69136268333334,93.07833023958334,67.0,107.0
110,93.32965968333333,93.72061659583333,69.0,117.0
111,93.96795668333333,94.34162638541666,71.0,112.0
112,94.60625368333334,95.04508287083333,72.0,127.0
113,95.24455068333333,95.63683738125,74.0,127.0
114,95.88284768333334,96.0716772125,76.0,122.0
115,96.20199618333334,96.44135755833334,74.0,107.0
116,96.84029318333333,97.29507979583333,76.0,99.0
117,97.47859018333334,97.72460048541667,78.0,107.0
118,97.79773868333334,98.1700786,79.0,102.0
119,98.43603568333333,98.7844394625,79.0,107.0
120,99.07433268333334,99.43603431666666,79.0,112.0
121,99.71262968333333,99.93869320416667,79.0,107.0
122,100.35092668333333,100.6594369,78.0,127.0
123,100.67007518333334,101.10757458541667,76.0,102.0
124,101.30837218333333,101.7046482375,74.0,95.0
125,101.94666918333333,102.16209442083333,74.0,100.0
126,102.26581768333334,102.42406214791667,74.0,95.0
127,102.58496618333334,102.75384893125,74.0,102.0
128,102.90411468333333,103.12219949166666,76.0,107.0
129,103.22326318333333,103.44533734791666,67.0,92.0
130,103.54241168333333,103.69001786458334,67.0,93.0
131,103.86156018333334,104.06501735208333,67.0,102.0
132,104.49985718333333,104.664750575,76.0,107.0
133,104.81900568333333,104.95863315208334,76.0,102.0
134,105.13815418333333,105.32964328333334,76.0,100.0
135,105.45730268333334,105.64347264166666,74.0,96.0
136,105.77645118333334,105.96927006875,67.0,89.0
137,106.09559968333333,106.2126208,67.0,93.0
138,106.41474818333333,106.65809891458333,67.0,102.0
139,107.05304518333334,107.23522578541666,67.0,100.0
140,107.37219368333334,107.57033171041667,69.0,97.0
141,107.69134218333333,107.84160793541666,71.0,96.0
142,108.01049068333333,108.35224553541667,72.0,117.0
143,108.64878768333334,108.99054253541667,71.0,122.0
144,109.28708468333333,109.4599567875,69.0,112.0
145,109.60623318333333,109.86953069583333,67.0,107.0
146,110.24453018333334,110.57032761041667,71.0,107.0
147,110.88282718333333,111.13681619791667,69.0,127.0
148,111.84027268333334,112.08096384375,67.0,102.0
149,112.15942118333334,112.57830358958333,69.0,117.0
150,112.79771818333333,114.09026960833333,67.0,107.0
151,138.64874668333334,138.93598033333333,71.0,107.0
152,140.24448918333334,140.57161639583333,67.0,89.0
153,140.56363768333333,140.80299905833334,69.0,90.0
154,140.88278618333334,140.9758711625,71.0,122.0
155,141.20193468333332,141.29767923333333,69.0,97.0
156,141.52108318333333,141.60884902083333,69.0,96.0
157,141.84023168333334,142.2365077375,71.0,112.0
158,142.15938018333333,143.11682568333333,69.0,96.0
159,143.75512268333333,144.93198277708333,67.0,95.0
160,145.35086518333333,145.5955457,67.0,92.0
161,145.67001368333334,145.78171565833333,69.0,100.0
162,145.98916218333332,146.34687446041667,71.0,102.0
163,146.30831068333333,146.40405523333334,69.0,95.0
164,146.62745918333334,146.78570364791668,69.0,95.0
165,146.94660768333333,147.20059669791667,71.0,102.0
166,147.26575618333334,147.89208511458332,69.0,88.0
167,148.86149868333334,149.38144478125,64.0,96.0
168,149.49979568333333,149.72718898958334,66.0,93.0
169,149.81894418333334,150.31362435833333,67.0,85.0
170,150.45724118333334,151.04633612291667,69.0,96.0
171,151.41468668333334,151.96920720208334,62.0,90.0
172,152.05298368333334,152.26707913541668,67.0,88.0
173,152.37213218333332,152.696599825,67.0,85.0
174,153.01042918333334,153.16202472083333,67.0,78.0
175,153.32957768333333,153.54633270625,69.0,96.0
176,153.64872618333334,153.81494936041668,71.0,81.0
177,153.96787468333332,154.34287417083334,72.0,112.0
178,154.60617168333334,154.97984138541668,71.0,102.0
179,155.24446868333334,155.49180877083333,69.0,112.0
180,155.56361718333332,155.84952104791665,67.0,96.0
181,156.20191418333334,156.56627538749999,71.0,97.0
182,156.84021118333334,157.18728517708334,69.0,102.0
183,157.47850818333333,157.89473101875,67.0,97.0
184,158.11680518333333,158.6566980625,69.0,102.0
185,159.07425068333333,159.53967557916667,67.0,100.0
186,159.71254768333333,160.05164296458332,69.0,117.0
187,160.35084468333332,160.78302494375,71.0,102.0
188,160.98914168333334,161.29100297291666,72.0,122.0
189,161.62743868333334,161.951906325,74.0,122.0
190,162.26573568333333,162.58089482708334,76.0,122.0
191,162.58488418333334,162.87344761875,74.0,112.0
192,163.22318118333334,163.6992443625,76.0,102.0
193,163.86147818333333,164.0662651375,78.0,112.0
194,164.18062668333334,164.46786033333333,79.0,112.0
195,164.81892368333334,165.21785930833335,79.0,117.0
196,165.45722068333333,165.85615630833334,79.0,112.0
197,166.09551768333333,166.47184695625,79.0,112.0
198,166.73381468333332,167.12078223958332,78.0,127.0
199,167.21253743333332,167.4651966625,76.0,127.0
200,167.69126018333333,168.15269572291666,74.0,112.0
201,168.32955718333332,168.510408,74.0,122.0
202,168.64870568333333,168.79897143541666,74.0,100.0
203,168.96785418333334,169.12609864791668,74.0,99.0
204,169.28700268333333,169.49710877916667,76.0,117.0
205,169.60615118333334,169.79764028333332,67.0,99.0
206,169.92529968333332,170.05428886875,67.0,95.0
207,170.24444818333333,170.58487325,67.0,96.0
208,170.88274518333333,171.00109608541666,76.0,127.0
209,171.20189368333334,171.3109360875,76.0,102.0
210,171.52104218333332,171.64870158333332,76.0,122.0
211,171.84019068333333,172.0768924875,74.0,102.0
212,172.15933918333334,172.31891343333334,67.0,95.0
213,172.47848768333333,172.61279601041667,67.0,97.0
214,172.79763618333334,173.11678468333332,67.0,100.0
215,173.43593318333333,173.66199670416665,67.0,96.0
216,173.75508168333334,173.97981541875,69.0,100.0
217,174.07423018333333,174.25907035625,71.0,102.0
218,174.39337868333334,174.8295483,72.0,117.0
219,175.03167568333333,175.50108993541667,71.0,122.0
220,175.66997268333333,175.994440325,69.0,112.0
221,176.30826968333332,176.58087569375,67.0,122.0
222,176.62741818333333,176.88539655416668,71.0,122.0
223,177.26571518333333,177.685927375,69.0,122.0
224,177.90401218333332,178.27103295833334,67.0,102.0
225,178.54230918333334,179.4013505625,69.0,127.0
226,179.49975468333332,179.88672223958332,67.0,107.0
227,180.13805168333334,180.52900859583335,69.0,117.0
228,180.77634868333334,181.15001838541667,71.0,112.0
229,181.41464568333333,181.85347487083334,72.0,127.0
230,182.05294268333333,182.44522938125,74.0,127.0
231,182.69123968333332,182.8800692125,76.0,122.0
232,183.01038818333333,183.24974955833332,74.0,107.0
233,183.64868518333333,184.10347179583334,76.0,99.0
234,184.28698218333332,184.53299248541666,78.0,107.0
235,184.60613068333333,184.9784706,79.0,102.0
236,185.24442768333333,185.5928314625,79.0,107.0
237,185.88272468333332,186.24442631666668,79.0,112.0
238,186.52102168333334,186.74708520416667,79.0,107.0
239,187.15931868333334,187.4678289,78.0,127.0
240,187.47846718333332,187.91596658541667,76.0,102.0
241,188.11676418333334,188.5130402375,74.0,95.0
242,188.75506118333334,188.97048642083334,74.0,100.0
243,189.07420968333332,189.23245414791666,74.0,95.0
244,189.39335818333333,189.56224093125,74.0,102.0
245,189.71250668333334,189.93059149166666,76.0,107.0
246,190.03165518333333,190.25372934791667,67.0,92.0
247,190.35080368333334,190.49840986458332,67.0,93.0
248,190.66995218333332,190.87340935208334,67.0,102.0
249,191.30824918333334,191.473142575,76.0,107.0
250,191.62739768333333,191.76702515208333,76.0,102.0
251,191.94654618333334,192.13803528333332,76.0,100.0
252,192.26569468333332,192.45186464166667,74.0,96.0
253,192.58484318333333,192.77766206875,67.0,89.0
254,192.90399168333335,193.0210128,67.0,93.0
255,193.22314018333333,193.46649091458335,67.0,102.0
256,193.86143718333332,194.04361778541667,67.0,100.0
257,194.18058568333333,194.37872371041666,69.0,97.0
258,194.49973418333335,194.64999993541667,71.0,96.0
259,194.81888268333333,195.16063753541667,72.0,117.0
260,195.45717968333332,195.79893453541666,71.0,122.0
261,196.09547668333335,196.2683487875,69.0,112.0
262,196.41462518333333,196.67792269583333,67.0,107.0
263,197.05292218333332,197.37871961041665,71.0,107.0
264,197.69121918333335,197.94520819791666,69.0,127.0
265,198.64866468333332,198.88935584375,67.0,102.0
266,198.96781318333333,199.38669558958333,69.0,117.0
267,199.60611018333333,200.89866160833333,67.0,107.0
268,202.47844668333335,204.43323124583333,79.0,127.0
269,205.03163468333332,205.49705957916666,67.0,100.0
270,205.66993168333335,206.00902696458334,69.0,117.0
271,206.30822868333334,206.74040894375,71.0,102.0
272,206.94652568333333,207.24838697291668,72.0,122.0
273,207.58482268333333,207.909290325,74.0,122.0
274,208.22311968333332,208.53827882708333,76.0,122.0
275,208.54226818333333,208.83083161875,74.0,112.0
276,209.18056518333333,209.6566283625,76.0,102.0
277,209.81886218333332,210.0236491375,78.0,112.0
278,210.13801068333333,210.42524433333332,79.0,112.0
279,210.77630768333333,211.17524330833334,79.0,117.0
280,211.41460468333332,211.81354030833333,79.0,112.0
281,212.05290168333335,212.42923095625,79.0,112.0
282,212.69119868333334,213.07816623958334,78.0,127.0
283,213.16992143333334,213.4225806625,76.0,127.0
284,213.64864418333335,214.11007972291665,74.0,112.0
285,214.28694118333334,214.467792,74.0,122.0
286,214.60608968333332,214.75635543541665,74.0,100.0
287,214.92523818333333,215.08348264791667,74.0,99.0
288,215.24438668333335,215.45449277916666,76.0,117.0
289,215.56353518333333,215.75502428333334,67.0,99.0
290,215.88268368333334,216.01167286875,67.0,95.0
291,216.20183218333332,216.54225725,67.0,96.0
292,216.84012918333335,216.95848008541665,76.0,127.0
293,217.15927768333333,217.2683200875,76.0,102.0
294,217.47842618333334,217.60608558333334,76.0,122.0
295,217.79757468333332,218.0342764875,74.0,102.0
296,218.11672318333333,218.27629743333333,67.0,95.0
297,218.43587168333335,218.57018001041666,67.0,97.0
298,218.75502018333333,219.07416868333334,67.0,100.0
299,219.39331718333332,219.61938070416667,67.0,96.0
300,219.71246568333333,219.93719941875,69.0,100.0
301,220.03161418333335,220.21645435625,71.0,102.0
302,220.35076268333333,220.7869323,72.0,117.0
303,220.98905968333332,221.45847393541666,71.0,122.0
304,221.62735668333335,221.951824325,69.0,112.0
305,222.26565368333334,222.53825969375,67.0,122.0
306,222.58480218333332,222.84278055416667,71.0,122.0
307,223.22309918333335,223.643311375,69.0,122.0
308,223.86139618333334,224.22841695833333,67.0,102.0
309,224.49969318333333,225.3587345625,69.0,127.0
310,225.45713868333334,225.84410623958334,67.0,107.0
311,226.09543568333333,226.48639259583334,69.0,117.0
312,226.73373268333333,227.10740238541666,71.0,112.0
313,227.37202968333332,227.81085887083333,72.0,127.0
314,228.01032668333332,228.40261338125,74.0,127.0
315,228.64862368333334,228.8374532125,76.0,122.0
316,228.96777218333332,229.20713355833334,74.0,107.0
317,229.60606918333332,230.06085579583333,76.0,99.0
318,230.24436618333334,230.49037648541668,78.0,107.0
319,230.56351468333332,230.9358546,79.0,102.0
320,231.20181168333332,231.5502154625,79.0,107.0
321,231.84010868333334,232.20181031666667,79.0,112.0
322,232.47840568333334,232.70446920416666,79.0,107.0
323,233.11670268333333,233.4252129,78.0,127.0
324,233.43585118333334,233.87335058541666,76.0,102.0
325,234.07414818333334,234.4704242375,74.0,95.0
326,234.71244518333333,234.92787042083333,74.0,100.0
327,235.03159368333334,235.18983814791667,74.0,95.0
328,235.35074218333332,235.51962493125,74.0,102.0
329,235.66989068333334,235.88797549166665,76.0,107.0
330,235.98903918333332,236.21111334791667,67.0,92.0
331,236.30818768333333,236.45579386458334,67.0,93.0
332,236.62733618333334,236.83079335208333,67.0,102.0
333,237.26563318333334,237.430526575,76.0,107.0
334,237.58478168333332,237.72440915208333,76.0,102.0
335,237.90393018333333,238.09541928333334,76.0,100.0
336,238.22307868333334,238.40924864166666,74.0,96.0
337,238.54222718333332,238.73504606875,67.0,89.0
338,238.86137568333334,238.97839679999998,67.0,93.0
339,239.18052418333332,239.42387491458334,67.0,102.0
340,239.81882118333334,240.00100178541666,67.0,100.0
341,240.13796968333332,240.33610771041666,69.0,97.0
342,240.45711818333334,240.60738393541666,71.0,96.0
343,240.77626668333332,241.11802153541666,72.0,117.0
344,241.41456368333334,241.75631853541665,71.0,122.0
345,242.05286068333334,242.2257327875,69.0,112.0
346,242.37200918333332,242.63530669583332,67.0,107.0
347,243.01030618333334,243.33610361041667,71.0,107.0
348,243.64860318333334,243.90259219791668,69.0,127.0
349,244.60604868333334,244.84673984375,67.0,102.0
350,244.92519718333332,245.34407958958334,69.0,117.0
351,245.56349418333332,246.85604560833332,67.0,107.0
