,start,end,pitch,velocity
0,0.7765946833333334,1.87898679375,43.0,74.0
1,1.0957431833333333,2.02260361875,55.0,69.0
2,1.7340401833333334,2.1396247354166666,59.0,56.0
3,1.4148916833333334,2.1914863666666666,62.0,93.0
4,2.3723371833333333,2.8590386458333334,55.0,70.0
5,1.8936144333333333,3.3138252583333334,48.0,74.0
6,3.0106341833333334,3.3218039708333333,55.0,67.0
7,2.691485683333333,3.537229208333333,62.0,89.0
8,3.648931183333333,4.05318595,55.0,63.0
9,3.3297826833333333,4.410898227083333,47.0,69.0
10,4.287228183333333,4.422866295833333,55.0,72.0
11,3.9680796833333334,4.999993166666667,62.0,81.0
12,4.925525183333333,5.345737375,57.0,60.0
13,4.446802433333334,5.767279352083333,45.0,76.0
14,5.5638221833333334,5.882970683333333,57.0,78.0
15,5.244673683333334,5.882970683333333,62.0,82.0
16,6.202119183333333,6.648927083333334,55.0,69.0
17,5.882970683333333,6.944139445833334,43.0,76.0
18,6.521267683333333,6.948128802083334,62.0,96.0
19,6.840416183333334,7.115681764583333,55.0,81.0
20,6.999990433333333,7.88695730625,48.0,78.0
21,7.797861683333333,7.9388189375,62.0,67.0
22,7.478713183333333,8.19014838125,55.0,72.0
23,7.9574359333333335,8.398924691666666,48.0,76.0
24,8.276584433333333,8.426850185416667,55.0,57.0
25,8.117010183333333,8.587754220833332,62.0,85.0
26,8.755307183333333,9.106370533333333,59.0,63.0
27,8.436158683333334,9.484029591666667,47.0,93.0
28,9.074455683333333,9.5106253,62.0,90.0
29,9.393604183333334,9.533231652083334,59.0,82.0
30,9.553178433333333,10.421528310416667,45.0,85.0
31,10.031901183333334,10.424187881249999,57.0,79.0
32,10.351049683333333,10.757964020833333,62.0,85.0
33,10.670198183333333,10.877644708333333,57.0,92.0
34,10.510623933333333,10.881634064583332,45.0,67.0
35,11.308495183333333,11.73269673125,55.0,70.0
36,10.989346683333332,12.114345145833333,43.0,83.0
37,12.106366433333333,12.25131304375,55.0,92.0
38,11.627643683333334,12.277908752083333,62.0,96.0
39,12.265940683333334,12.380302229166666,43.0,92.0
40,12.585089183333332,13.15290755625,43.0,90.0
41,13.223386183333334,13.553172966666667,55.0,90.0
42,12.904237683333333,13.670194083333334,62.0,93.0
43,13.542534683333333,14.722054347916666,42.0,97.0
44,14.021257433333334,14.734022416666667,54.0,22.0
45,14.819128683333334,14.9441285125,42.0,96.0
46,14.659554433333334,15.106362333333333,59.0,59.0
47,14.180831683333333,15.127638899999999,62.0,99.0
48,15.138277183333333,15.747318904166667,42.0,78.0
49,15.457425683333334,16.07311633125,62.0,99.0
50,15.776574183333333,16.074446116666667,59.0,70.0
51,16.414871183333332,17.2898699875,47.0,58.0
52,16.09572268333333,17.295189129166666,40.0,76.0
53,17.212742433333332,17.377635825,52.0,78.0
54,17.372316683333334,17.4813590875,40.0,89.0
55,16.734019683333333,17.755294883333335,59.0,82.0
56,17.69146518333333,18.257953770833332,40.0,75.0
57,18.329762183333333,18.565134202083332,52.0,72.0
58,18.48933643333333,18.62630433125,55.0,66.0
59,18.010613683333332,18.655559610416667,59.0,93.0
60,18.648910683333334,19.787207,47.0,82.0
61,18.968059183333335,19.86300476875,54.0,60.0
62,19.925504683333333,20.057153439583335,47.0,88.0
63,19.765930433333335,20.216727689583333,59.0,78.0
64,19.28720768333333,20.351036016666665,66.0,99.0
65,20.244653183333334,20.777897135416666,47.0,83.0
66,20.563801683333335,21.085077566666666,66.0,117.0
67,20.88295018333333,21.154226408333333,59.0,86.0
68,21.840395683333334,21.930821091666665,64.0,78.0
69,21.840395683333334,21.930821091666665,67.0,81.0
70,21.521247183333333,21.9494380875,60.0,63.0
71,21.202098683333332,22.00129971875,48.0,97.0
72,22.159544183333335,22.9547558625,67.0,90.0
73,22.159544183333335,22.968053716666667,60.0,95.0
74,22.159544183333335,22.968053716666667,64.0,96.0
75,22.159544183333335,23.140925820833335,48.0,88.0
76,23.116989683333333,23.4254999,64.0,95.0
77,23.276563933333332,23.6728399875,48.0,76.0
78,23.116989683333333,23.70076548125,67.0,95.0
79,23.436138183333334,23.70741440833333,60.0,93.0
80,23.595712433333333,23.74065904375,64.0,56.0
81,24.393583683333333,24.464062310416665,66.0,96.0
82,24.074435183333332,24.487998447916667,59.0,76.0
83,24.393583683333333,24.48932823333333,62.0,82.0
84,23.755286683333335,24.533211152083332,47.0,99.0
85,24.712732183333333,25.5239012875,67.0,86.0
86,24.712732183333333,25.561135279166667,64.0,86.0
87,24.712732183333333,25.589060772916667,59.0,90.0
88,24.712732183333333,25.736666954166665,52.0,86.0
89,25.829751933333334,26.211400347916666,52.0,69.0
90,25.989326183333333,26.308474683333333,59.0,85.0
91,25.670177683333332,26.308474683333333,64.0,96.0
92,25.670177683333332,26.308474683333333,67.0,96.0
93,26.627623183333334,27.110335289583332,52.0,47.0
94,26.308474683333333,27.312462672916666,45.0,86.0
95,27.425494433333334,27.624962245833334,45.0,81.0
96,26.946771683333335,27.6781536625,64.0,74.0
97,26.946771683333335,27.69677065833333,60.0,79.0
98,27.585068683333333,27.72868550833333,48.0,67.0
99,27.904217183333333,28.39224843125,48.0,85.0
100,28.223365683333334,28.744641566666665,64.0,79.0
101,28.542514183333335,28.771237275,55.0,70.0
102,28.223365683333334,28.866981825,60.0,86.0
103,29.499959683333334,29.59969358958333,66.0,97.0
104,29.180811183333333,29.61299144375,57.0,58.0
105,28.861662683333332,29.694108354166666,38.0,76.0
106,29.819108183333334,30.92947900625,38.0,69.0
107,29.819108183333334,31.277882785416665,50.0,83.0
108,29.819108183333334,31.446765533333334,66.0,93.0
109,29.819108183333334,31.450754889583333,62.0,96.0
110,29.819108183333334,31.452084675,57.0,92.0
111,31.414850683333334,32.63160433958333,43.0,78.0
112,31.73399918333333,32.696763825,50.0,63.0
113,32.53187043333333,33.1036781625,55.0,58.0
114,32.053147683333336,33.13160365625,59.0,69.0
115,32.053147683333336,33.143571725,62.0,68.0
116,32.69144468333333,33.4467628,43.0,75.0
117,33.010593183333334,33.44942237083333,50.0,57.0
118,33.648890183333336,33.87628348958334,55.0,41.0
119,33.32974168333333,34.01857052916667,59.0,64.0
120,33.32974168333333,34.04117688125,62.0,66.0
121,33.96803868333333,35.19543062291667,42.0,72.0
122,34.28718718333333,35.24596246875,54.0,48.0
123,35.08505843333333,35.470696204166664,59.0,57.0
124,34.606335683333334,35.65819594791667,66.0,70.0
125,34.606335683333334,35.65952573333333,62.0,65.0
126,35.56378118333333,36.05713157291667,59.0,64.0
127,35.244632683333336,36.14622719583333,42.0,76.0
128,36.202078183333334,36.5823968125,62.0,62.0
129,35.88292968333333,36.583726597916666,66.0,93.0
130,36.52122668333333,37.67681021041667,40.0,63.0
131,36.840375183333336,37.79649089791667,47.0,53.0
132,37.638246433333336,38.14090532083333,59.0,72.0
133,37.15952368333333,38.17149038541667,64.0,67.0
134,37.15952368333333,38.179469097916666,67.0,64.0
135,37.797820683333335,38.60234086041667,40.0,72.0
136,38.11696918333333,38.691436483333334,47.0,63.0
137,38.436117683333336,39.13159545625,64.0,76.0
138,38.436117683333336,39.13824438333333,67.0,73.0
139,38.75526618333333,39.16218052083333,59.0,73.0
140,39.07441468333333,40.2685619875,47.0,62.0
141,39.393563183333335,40.33638104375,54.0,69.0
142,39.71271168333333,40.756593235416666,66.0,82.0
143,39.71271168333333,40.761912377083334,62.0,61.0
144,40.67015718333333,41.11829486875,54.0,74.0
145,40.191434433333335,41.13425229375,59.0,67.0
146,40.35100868333333,41.30712439791667,47.0,67.0
147,40.989305683333335,41.603666545833335,66.0,102.0
148,41.30845418333333,41.61430482916666,62.0,71.0
149,41.46802843333333,41.682123885416665,59.0,72.0
150,41.627602683333336,42.748611789583336,36.0,64.0
151,41.94675118333333,42.88424990208333,43.0,69.0
152,42.26589968333333,43.34701522708333,64.0,76.0
153,42.26589968333333,43.35765351041667,60.0,72.0
154,42.74462243333333,43.382919433333335,55.0,59.0
155,42.90419668333333,43.76589763333333,36.0,70.0
156,43.223345183333336,43.801801839583334,43.0,62.0
157,43.86164218333333,44.148875833333335,55.0,72.0
158,44.021216433333336,44.236641670833336,60.0,62.0
159,43.54249368333333,44.276535233333334,64.0,86.0
160,44.180790683333335,45.36296991875,47.0,56.0
161,44.49993918333333,45.50126760208333,54.0,83.0
162,45.29781043333333,46.12892631875,62.0,56.0
163,44.819087683333336,46.1887666625,66.0,95.0
164,45.776533183333335,46.20206451666667,54.0,71.0
165,45.45738468333333,46.29116013958333,47.0,76.0
166,46.414830183333336,46.745946752083334,66.0,92.0
167,46.09568168333333,46.81642537916667,59.0,85.0
168,46.73397868333333,47.910838777083335,45.0,69.0
169,47.05312718333333,47.9999344,52.0,57.0
170,47.85099843333333,48.45871036875,60.0,65.0
171,47.372275683333335,48.48796564791667,64.0,88.0
172,48.329721183333334,48.731316379166664,52.0,73.0
173,48.010572683333336,48.743284447916665,45.0,63.0
174,48.64886968333333,49.292485825,64.0,90.0
175,48.968018183333335,49.31908153333333,57.0,74.0
176,49.28716668333333,50.56509046875,38.0,67.0
177,49.925463683333334,50.66881373125,50.0,48.0
178,50.563760683333335,50.94806866875,62.0,65.0
179,49.925463683333334,50.96136652291667,66.0,99.0
180,50.40418643333334,50.97067502083333,57.0,77.0
181,50.88290918333333,51.3111000875,50.0,73.0
182,49.60631518333334,51.687429360416665,45.0,37.0
183,50.723334933333334,51.83503554166666,38.0,30.0
184,51.521206183333334,51.86030146458333,57.0,74.0
185,51.20205768333334,51.86695039166667,62.0,88.0
186,51.20205768333334,51.8855673875,66.0,97.0
187,51.84035468333333,53.05710833958333,43.0,78.0
188,52.159503183333335,53.122267825,50.0,63.0
189,52.957374433333335,53.5291821625,55.0,58.0
190,52.47865168333333,53.55710765625,59.0,69.0
191,52.47865168333333,53.569075725,62.0,68.0
192,53.116948683333334,53.8722668,43.0,75.0
193,53.43609718333333,53.874926370833336,50.0,57.0
194,54.07439418333333,54.30178748958333,55.0,41.0
195,53.755245683333335,54.44407452916666,59.0,64.0
196,53.755245683333335,54.46668088125,62.0,66.0
197,54.39354268333333,55.620934622916664,42.0,72.0
198,54.712691183333334,55.67146646875,54.0,48.0
199,55.510562433333334,55.89620020416667,59.0,57.0
200,55.03183968333333,56.083699947916664,66.0,70.0
201,55.03183968333333,56.085029733333336,62.0,65.0
202,55.98928518333333,56.482635572916664,59.0,64.0
203,55.67013668333333,56.57173119583333,42.0,76.0
204,56.62758218333333,57.0079008125,62.0,62.0
205,56.308433683333334,57.00923059791667,66.0,93.0
206,56.946730683333335,58.102314210416665,40.0,63.0
207,57.26587918333333,58.221994897916666,47.0,53.0
208,58.06375043333333,58.56640932083333,59.0,72.0
209,57.58502768333333,58.596994385416664,64.0,67.0
210,57.58502768333333,58.60497309791667,67.0,64.0
211,58.22332468333333,59.027844860416664,40.0,72.0
212,58.542473183333335,59.11694048333333,47.0,63.0
213,58.86162168333333,59.55709945625,64.0,76.0
214,58.86162168333333,59.56374838333333,67.0,73.0
215,59.18077018333333,59.587684520833335,59.0,73.0
216,59.499918683333334,60.6940659875,47.0,62.0
217,59.81906718333333,60.76188504375,54.0,69.0
218,60.138215683333335,61.18209723541666,66.0,82.0
219,60.138215683333335,61.18741637708333,62.0,61.0
220,61.095661183333334,61.54379886875,54.0,74.0
221,60.61693843333333,61.55975629375,59.0,67.0
222,60.77651268333333,61.73262839791666,47.0,67.0
223,61.41480968333333,62.02917054583333,66.0,102.0
224,61.733958183333336,62.03980882916667,62.0,71.0
225,61.893532433333334,62.10762788541667,59.0,72.0
226,62.05310668333333,63.17411578958333,36.0,64.0
227,62.37225518333333,63.30975390208333,43.0,69.0
228,62.691403683333334,63.772519227083336,64.0,76.0
229,62.691403683333334,63.783157510416665,60.0,72.0
230,63.17012643333333,63.80842343333333,55.0,59.0
231,63.329700683333336,64.19140163333333,36.0,70.0
232,63.64884918333333,64.22730583958334,43.0,62.0
233,64.28714618333333,64.57437983333334,55.0,72.0
234,64.44672043333334,64.60629468333333,60.0,62.0
235,63.96799768333333,64.60629468333333,64.0,86.0
236,64.92544318333333,65.41081486041666,50.0,60.0
237,64.60629468333333,65.43209142708334,43.0,73.0
238,65.24459168333334,65.87490997083333,67.0,85.0
239,65.24459168333334,65.91347374791667,71.0,76.0
240,65.72331443333333,65.94937795416666,62.0,85.0
241,65.88288868333333,66.00522894166667,40.0,82.0
242,66.20203718333333,66.84831289583333,40.0,70.0
243,66.84033418333334,67.14485504375,59.0,77.0
244,66.52118568333333,67.27118465833334,64.0,85.0
245,66.52118568333333,67.30708886458333,67.0,83.0
246,67.15948268333334,68.31240663958333,36.0,90.0
247,67.47863118333333,68.35628955833333,43.0,58.0
248,68.27650243333333,68.45336389375,60.0,92.0
249,68.43607668333334,68.5530978,36.0,77.0
250,67.79777968333333,68.89086329583333,67.0,83.0
251,67.79777968333333,68.90815050625,64.0,89.0
252,68.75522518333334,69.07304389791666,36.0,82.0
253,69.07437368333333,69.12224595833334,60.0,69.0
254,69.07437368333333,69.65283033958333,48.0,88.0
255,69.39352218333333,69.72862810833334,60.0,88.0
256,69.07437368333333,69.75522381666667,64.0,83.0
257,69.07437368333333,69.76719188541666,67.0,83.0
258,70.35096768333334,70.42543566666667,50.0,33.0
259,69.71267068333333,70.51453128958333,38.0,92.0
260,70.35096768333334,70.51719086041666,62.0,81.0
261,70.35096768333334,70.54245678333334,57.0,81.0
262,70.35096768333334,70.54511635416667,66.0,88.0
263,70.03181918333333,70.547775925,45.0,42.0
264,70.67011618333333,70.8110734375,38.0,56.0
265,70.67011618333333,70.83367978958333,50.0,96.0
266,70.67011618333333,70.84032871666666,62.0,88.0
267,70.67011618333333,70.84830742916667,57.0,82.0
268,70.67011618333333,70.85229678541667,66.0,78.0
269,70.98926468333333,71.13820065,38.0,72.0
270,70.98926468333333,71.14750914791667,50.0,95.0
271,70.98926468333333,71.15548786041667,62.0,99.0
272,70.98926468333333,71.15947721666667,57.0,97.0
273,70.98926468333333,71.1701155,66.0,100.0
274,71.30841318333333,71.44671086666666,38.0,76.0
275,71.30841318333333,71.47729593125,50.0,97.0
276,71.30841318333333,71.47862571666667,62.0,99.0
277,71.30841318333333,71.48660442916666,57.0,92.0
278,71.30841318333333,71.49192357083334,66.0,100.0
279,71.62756168333333,71.75123172708334,38.0,78.0
280,71.62756168333333,71.7685189375,62.0,112.0
281,71.62756168333333,71.77250829375,57.0,100.0
282,71.62756168333333,71.77649765,50.0,97.0
283,71.62756168333333,71.78048700625,66.0,107.0
284,71.94671018333334,72.11293336041666,57.0,100.0
285,71.94671018333334,72.11293336041666,62.0,127.0
286,71.94671018333334,72.11692271666666,50.0,107.0
287,71.94671018333334,72.16878434791667,66.0,117.0
288,72.58500718333333,72.77915585416666,71.0,99.0
289,72.58500718333333,72.79511327916667,67.0,90.0
290,72.58500718333333,72.82702812916666,62.0,76.0
291,72.90415568333333,73.05176186458333,55.0,38.0
292,72.90415568333333,73.28314452708334,67.0,112.0
293,72.90415568333333,73.29112323958333,62.0,99.0
294,72.90415568333333,73.29112323958333,71.0,100.0
295,72.26585868333333,73.48261233958333,43.0,96.0
296,72.90415568333333,73.55973989375,50.0,35.0
297,73.54245268333334,73.66213337083333,43.0,90.0
298,73.38287843333333,73.89617560416667,62.0,99.0
299,73.38287843333333,73.90282453125,67.0,107.0
300,73.38287843333333,73.92144152708333,71.0,95.0
301,73.86160118333333,74.24856873958333,43.0,90.0
302,74.18074968333333,74.34431328958333,67.0,100.0
303,74.18074968333333,74.345643075,71.0,112.0
304,74.34032393333334,74.66213200416666,43.0,90.0
305,74.49989818333333,74.71931277708333,67.0,97.0
306,74.49989818333333,74.75122762708334,71.0,93.0
307,74.65947243333333,74.824365825,62.0,86.0
308,75.45734368333333,75.85096016666667,62.0,102.0
309,75.45734368333333,75.85760909375,66.0,102.0
310,75.45734368333333,75.86425802083333,57.0,89.0
311,74.81904668333333,75.97197063958333,38.0,97.0
312,75.13819518333334,75.99191742083333,50.0,82.0
313,75.13819518333334,76.02383227083334,45.0,73.0
314,75.93606643333334,76.45734231666667,66.0,95.0
315,75.93606643333334,76.45867210208333,57.0,88.0
316,75.93606643333334,76.45867210208333,62.0,99.0
317,76.09564068333333,76.57037407708333,38.0,85.0
318,76.73393768333334,76.95601184791667,66.0,117.0
319,76.73393768333334,76.962660775,62.0,102.0
320,76.89351193333333,77.1701073,38.0,89.0
321,77.05308618333333,77.32835176458333,62.0,99.0
322,76.41478918333333,77.33500069166666,45.0,89.0
323,77.05308618333333,77.3376602625,66.0,112.0
324,76.41478918333333,77.36026661458334,50.0,92.0
325,77.21266043333333,77.38819210833333,57.0,86.0
326,78.01053168333333,78.42143537708333,64.0,99.0
327,78.01053168333333,78.43207366041666,59.0,95.0
328,78.01053168333333,78.43473323125,67.0,96.0
329,78.32968018333334,78.47462679375,52.0,38.0
330,77.37223468333333,78.54643520625,40.0,97.0
331,77.69138318333333,78.67010525,47.0,93.0
332,78.64882868333333,78.82037100208333,40.0,85.0
333,78.48925443333333,79.03180688333333,59.0,86.0
334,78.48925443333333,79.03845581041666,64.0,92.0
335,78.48925443333333,79.05973237708334,67.0,89.0
336,78.96797718333333,79.56239126458333,40.0,95.0
337,79.28712568333333,79.64483796041667,64.0,97.0
338,79.44669993333333,79.82967813333333,52.0,83.0
339,79.28712568333333,79.90414611666667,67.0,96.0
340,79.76584843333333,79.91877375625,64.0,77.0
341,79.60627418333333,79.92542268333334,59.0,117.0
342,80.56371968333333,80.90946389166666,59.0,86.0
343,80.56371968333333,80.95334681041666,62.0,97.0
344,80.56371968333333,80.95600638125,66.0,107.0
345,79.92542268333334,81.079676425,47.0,96.0
346,80.24457118333333,81.17409118958334,54.0,95.0
347,81.20201668333333,81.31637822916666,47.0,99.0
348,81.04244243333333,81.59430338125,59.0,89.0
349,81.04244243333333,81.61823951875,62.0,99.0
350,81.04244243333333,81.62621823125,66.0,112.0
351,81.52116518333334,81.80307969166667,47.0,99.0
352,81.84031368333333,81.99057943541666,62.0,102.0
353,81.84031368333333,82.01850492916667,66.0,122.0
354,82.15946218333333,82.38419591875,62.0,99.0
355,82.15946218333333,82.41079162708333,66.0,122.0
356,81.99988793333333,82.43206819375,47.0,100.0
357,82.31903643333334,82.5078659625,59.0,90.0
358,82.79775918333333,83.17142888541666,55.0,93.0
359,82.47861068333333,83.61424742916667,48.0,93.0
360,83.75520468333333,83.85360880416667,48.0,79.0
361,83.59563043333333,84.00387455625,55.0,89.0
362,83.11690768333334,84.07834253958333,64.0,96.0
363,83.11690768333334,84.09828932083333,60.0,82.0
364,84.07435318333333,84.65812898125,48.0,97.0
365,84.39350168333333,84.76185224375,60.0,96.0
366,84.71265018333334,84.97195833958334,55.0,95.0
367,84.87222443333333,85.00786254583333,60.0,81.0
368,84.39350168333333,85.03179868333334,64.0,95.0
369,85.35094718333333,85.68605310833334,54.0,92.0
370,85.03179868333334,85.70865946041667,47.0,88.0
371,85.67009568333333,86.27248847708333,66.0,122.0
372,85.67009568333333,86.27514804791667,62.0,97.0
373,86.30839268333334,86.43206272708333,40.0,90.0
374,86.14881843333333,86.61025397291667,59.0,93.0
375,86.62754118333334,87.2312637625,40.0,90.0
376,87.10626393333334,87.27647646666667,47.0,81.0
377,86.94668968333333,87.33232745416666,64.0,92.0
378,87.42541243333334,87.57966754166667,64.0,78.0
379,87.26583818333333,87.60759303541667,59.0,100.0
380,86.94668968333333,87.62621003125,67.0,89.0
381,87.58498668333333,88.72062342916666,45.0,89.0
382,87.90413518333334,88.76583613333334,52.0,90.0
383,88.22328368333334,88.82966583333334,60.0,99.0
384,88.22328368333334,88.8589211125,64.0,93.0
385,88.70200643333334,88.86291046875,57.0,102.0
386,88.86158068333333,88.97993158541667,47.0,83.0
387,89.49987768333334,89.83099425208333,54.0,69.0
388,89.49987768333334,89.95067493958334,62.0,96.0
389,89.18072918333333,89.95333451041667,47.0,82.0
390,89.81902618333334,90.09828112083333,59.0,100.0
391,89.49987768333334,90.15812146458333,66.0,112.0
392,90.45732318333333,90.67141863541667,60.0,95.0
393,90.13817468333333,90.83498224166667,48.0,90.0
394,90.77647168333333,91.292428425,64.0,102.0
395,90.77647168333333,91.324343275,67.0,107.0
396,91.25519443333333,91.43338567916666,60.0,100.0
397,91.41476868333334,91.53577915625,38.0,96.0
398,91.73391718333333,92.10093795833333,38.0,89.0
399,92.05306568333333,92.29109727291667,62.0,97.0
400,92.05306568333333,92.32301212291667,66.0,122.0
401,92.21263993333334,92.38152268125,38.0,93.0
402,92.37221418333333,92.71529882083334,62.0,56.0
403,92.37221418333333,92.74056474375,57.0,107.0
404,92.37221418333333,92.75120302708333,66.0,39.0
405,92.69136268333334,93.50120200208333,43.0,82.0
406,93.01051118333334,93.88285041666667,50.0,90.0
407,93.80838243333334,93.97061625416667,55.0,95.0
408,93.96795668333333,94.08896715624999,43.0,95.0
409,93.32965968333333,94.14747771458333,59.0,95.0
410,93.32965968333333,94.1488075,62.0,93.0
411,94.28710518333334,94.79109385625,43.0,93.0
412,94.60625368333334,94.98524252708333,59.0,93.0
413,94.92540218333333,95.19268905208334,55.0,95.0
414,95.08497643333334,95.2259336875,59.0,78.0
415,94.60625368333334,95.2578485375,62.0,95.0
416,95.24455068333333,96.32832579791666,38.0,83.0
417,95.56369918333333,96.43204906041666,45.0,54.0
418,96.36157043333333,96.49587876041667,50.0,69.0
419,96.52114468333333,96.68071893333334,38.0,93.0
420,95.88284768333334,96.90678245416666,57.0,76.0
421,95.88284768333334,96.90678245416666,62.0,89.0
422,95.88284768333334,96.92273987916667,66.0,92.0
423,96.84029318333333,97.19534588958334,38.0,78.0
424,97.15944168333333,97.52513267291667,62.0,97.0
425,97.31901593333333,97.62752615,38.0,79.0
426,97.47859018333334,97.78045147291667,57.0,100.0
427,97.15944168333333,97.80970675208333,66.0,107.0
428,97.63816443333333,97.84960031458333,62.0,77.0
429,98.43603568333333,98.80970538541666,64.0,93.0
430,98.59560993333334,98.83896066458334,52.0,69.0
431,97.79773868333334,98.98257748958333,40.0,90.0
432,98.11688718333333,99.05970504375,47.0,69.0
433,98.75518418333333,99.57034264375,59.0,92.0
434,98.43603568333333,99.58098092708333,67.0,90.0
435,98.91475843333333,99.58497028333333,64.0,75.0
436,99.07433268333334,99.95199105833333,40.0,82.0
437,99.39348118333334,99.96262934166667,47.0,100.0
438,99.71262968333333,100.03443775416666,64.0,95.0
439,99.87220393333334,100.10491638124999,52.0,56.0
440,100.19135243333334,100.36023518125,64.0,85.0
441,99.71262968333333,100.36821389375,67.0,89.0
442,100.03177818333333,100.49055415208333,59.0,100.0
443,100.67007518333334,101.07964909166667,54.0,97.0
444,100.98922368333334,101.20597870625,62.0,99.0
445,100.35092668333333,101.51448892291667,47.0,83.0
446,101.14879793333333,101.62353132708333,54.0,69.0
447,101.62752068333333,101.74986094166667,47.0,85.0
448,101.46794643333334,102.03044566458334,62.0,69.0
449,101.30837218333333,102.047732875,59.0,92.0
450,100.98922368333334,102.12884978541666,66.0,117.0
451,102.26581768333334,102.46661528125,62.0,93.0
452,101.94666918333333,102.53975347916666,47.0,95.0
453,102.42539193333333,102.53975347916666,54.0,93.0
454,102.26581768333334,102.83230627083333,66.0,117.0
455,102.58496618333334,102.87618918958333,59.0,97.0
456,102.74454043333333,102.89480618541667,62.0,90.0
457,103.54241168333333,103.80171983958333,60.0,86.0
458,103.22326318333333,103.91608138541666,48.0,85.0
459,102.90411468333333,104.06368756666667,36.0,79.0
460,103.70198593333333,104.19267675208333,43.0,38.0
461,104.02113443333333,104.600920875,60.0,69.0
462,103.86156018333334,104.66209100416667,55.0,86.0
463,103.54241168333333,104.664750575,64.0,88.0
464,104.49985718333333,104.98921821666667,43.0,86.0
465,104.18070868333334,105.01315435416667,36.0,83.0
466,104.81900568333333,105.07432448333333,48.0,71.0
467,104.81900568333333,105.19666474166667,60.0,90.0
468,105.13815418333333,105.3828347,55.0,92.0
469,105.29772843333333,105.44001547291667,60.0,64.0
470,104.81900568333333,105.4546431125,64.0,90.0
471,105.77645118333334,106.18602509166666,50.0,76.0
472,105.45730268333334,106.27911007083333,43.0,93.0
473,106.09559968333333,106.51714166041667,67.0,69.0
474,106.09559968333333,106.51714166041667,67.0,89.0
475,106.09559968333333,106.53043951458334,71.0,67.0
476,106.09559968333333,106.53043951458334,71.0,85.0
477,106.09559968333333,106.53575865625,62.0,75.0
478,106.57432243333334,106.66208827083334,62.0,53.0
479,106.57432243333334,106.66208827083334,62.0,93.0
480,106.57432243333334,106.66873719791667,67.0,71.0
481,106.57432243333334,106.67006698333333,71.0,65.0
482,106.73389668333333,106.84426887291667,40.0,76.0
483,107.05304518333334,107.24453428333334,62.0,79.0
484,107.05304518333334,107.30836398333334,67.0,82.0
485,107.05304518333334,107.34027883333333,71.0,79.0
486,107.05304518333334,107.82432072499999,40.0,79.0
487,107.37219368333334,107.9360227,67.0,85.0
488,107.37219368333334,107.94932055416666,64.0,88.0
489,107.69134218333333,107.95330991041666,59.0,83.0
490,108.01049068333333,109.18070185,36.0,85.0
491,108.32963918333333,109.23123369583334,43.0,56.0
492,109.28708468333333,109.40543558541667,36.0,76.0
493,109.12751043333333,109.50516949166666,55.0,89.0
494,108.64878768333334,109.66341395625,64.0,88.0
495,108.64878768333334,109.67671181041666,60.0,89.0
496,109.60623318333333,110.40011507708333,36.0,90.0
497,110.24453018333334,110.52112555,55.0,78.0
498,109.92538168333333,110.5291042625,60.0,83.0
499,109.92538168333333,110.56500846875,64.0,83.0
500,110.56367868333334,111.70596435624999,38.0,89.0
501,110.88282718333333,111.70596435624999,50.0,95.0
502,111.68069843333333,111.9174002375,57.0,77.0
503,111.84027268333334,111.98787886458334,38.0,88.0
504,111.20197568333333,112.2046338875,62.0,93.0
505,111.20197568333333,112.23255938125,66.0,99.0
506,112.15942118333334,112.56101637916666,38.0,85.0
507,112.47856968333333,113.11553689791667,62.0,95.0
508,112.47856968333333,113.14878153333333,66.0,100.0
509,113.11686668333333,114.30436506041667,41.0,70.0
510,113.43601518333334,114.32032248541667,48.0,60.0
511,114.39346068333333,114.52776901041666,41.0,68.0
512,114.23388643333334,114.89877914166667,60.0,52.0
513,113.75516368333334,114.90276849791667,65.0,67.0
514,113.75516368333334,114.90542806875,69.0,64.0
515,114.71260918333333,115.58627820208334,41.0,58.0
516,115.51048043333333,115.59957605625,60.0,33.0
517,115.03175768333334,115.71260781666666,65.0,72.0
518,115.03175768333334,115.72058652916667,69.0,73.0
519,115.67005468333333,116.88414876875,40.0,72.0
520,115.98920318333333,116.96925503541667,47.0,52.0
521,116.78707443333333,117.34026516666667,59.0,55.0
522,116.30835168333333,117.35356302083333,67.0,70.0
523,116.30835168333333,117.35755237708334,64.0,72.0
524,116.94664868333334,117.80303049166666,40.0,85.0
525,117.26579718333333,117.84159426875,47.0,85.0
526,117.90409418333333,118.26579581666667,59.0,70.0
527,117.58494568333333,118.3322850875,64.0,71.0
528,117.58494568333333,118.33627444375,67.0,69.0
529,118.22324268333334,119.3695177125,41.0,66.0
530,118.54239118333334,119.45462397916667,48.0,61.0
531,119.34026243333334,119.58494295,60.0,72.0
532,118.86153968333333,119.95861265208333,69.0,72.0
533,118.86153968333333,119.96393179374999,65.0,73.0
534,119.81898518333334,120.36419720416667,48.0,90.0
535,119.49983668333333,120.39345248333333,41.0,86.0
536,120.13813368333334,120.80967531875,69.0,107.0
537,120.45728218333333,120.8216433875,60.0,69.0
538,120.13813368333334,120.89079222916666,65.0,112.0
539,121.09557918333333,121.31499377708333,64.0,79.0
540,121.09557918333333,121.3163235625,67.0,85.0
541,121.09557918333333,121.33892991458333,59.0,72.0
542,121.09557918333333,121.59823807083333,52.0,36.0
543,121.41472768333334,121.88148236458333,64.0,100.0
544,121.41472768333334,121.88946107708334,67.0,95.0
545,121.89345043333333,122.24584356875,52.0,75.0
546,122.05302468333333,122.54105593125,64.0,95.0
547,122.05302468333333,122.54238571666667,59.0,73.0
548,122.05302468333333,122.55435378541667,67.0,90.0
549,122.37217318333333,122.64477919375,52.0,102.0
550,120.77643068333333,122.81366194166667,40.0,88.0
551,122.69132168333333,123.02775739375,64.0,102.0
552,122.69132168333333,123.30967190208334,67.0,122.0
553,123.17004443333333,123.34424632291666,64.0,67.0
554,123.01047018333334,123.35089525,59.0,99.0
555,123.96791568333333,124.3961065875,60.0,96.0
556,123.96791568333333,124.40142572916666,63.0,112.0
557,123.64876718333333,124.49185113749999,48.0,62.0
558,124.44663843333333,124.56232976458334,60.0,77.0
559,124.44663843333333,124.56897869166667,63.0,79.0
560,123.96791568333333,124.60621268333334,55.0,71.0
561,124.60621268333334,125.11020135625,48.0,72.0
562,124.92536118333334,125.47855191666666,60.0,92.0
563,124.92536118333334,125.48254127291666,63.0,97.0
564,124.92536118333334,125.50381783958333,55.0,83.0
565,123.32961868333334,125.52775397708334,36.0,92.0
566,125.24450968333333,125.537062475,48.0,58.0
567,125.56365818333333,125.84291312083333,60.0,93.0
568,125.56365818333333,125.84424290625,55.0,62.0
569,125.56365818333333,125.8801471125,63.0,99.0
570,126.20195518333334,126.90408188333333,50.0,73.0
571,126.52110368333334,126.96126265625,62.0,92.0
572,126.52110368333334,126.96392222708333,65.0,90.0
573,126.52110368333334,126.9652520125,57.0,85.0
574,126.84025218333333,127.03706042499999,45.0,28.0
575,126.99982643333334,127.11019862291667,62.0,72.0
576,125.88280668333333,127.12083690625,38.0,77.0
577,126.99982643333334,127.13413476041667,57.0,65.0
578,126.99982643333334,127.14610282916667,65.0,73.0
579,127.15940068333333,127.30833665,38.0,86.0
580,127.47854918333333,127.88413373541667,38.0,78.0
581,127.79769768333334,128.35886712916667,62.0,99.0
582,127.79769768333334,128.37615433958334,65.0,92.0
583,128.11684618333334,128.46392017708334,57.0,89.0
584,129.07429168333334,129.45195074166668,55.0,79.0
585,129.07429168333334,129.46125923958334,58.0,96.0
586,129.07429168333334,129.46657838125,63.0,92.0
587,128.43599468333332,129.5982271375,39.0,85.0
588,128.75514318333333,129.65540791041667,51.0,61.0
589,129.55301443333335,129.69530147291667,55.0,70.0
590,129.55301443333335,129.70062061458333,58.0,89.0
591,129.55301443333335,129.72322696666666,63.0,81.0
592,129.71258868333334,129.81498216041666,39.0,90.0
593,130.03173718333332,130.45061958958334,39.0,89.0
594,130.35088568333333,130.9546082625,63.0,107.0
595,130.35088568333333,130.98120397083332,58.0,117.0
596,130.67003418333334,130.98519332708332,55.0,82.0
597,131.62747968333332,131.99317067291668,53.0,86.0
598,131.62747968333332,132.00114938541665,57.0,93.0
599,131.62747968333332,132.00114938541665,60.0,90.0
600,130.98918268333333,132.10487264791666,41.0,85.0
601,131.30833118333334,132.16205342083333,48.0,77.0
602,132.10620243333332,132.20327676875,57.0,82.0
603,132.10620243333332,132.21923419375,53.0,82.0
604,132.10620243333332,132.24317033125,60.0,79.0
605,132.26577668333334,132.34157445208334,41.0,70.0
606,132.58492518333333,133.03439265416665,41.0,79.0
607,132.90407368333334,133.18465840625,60.0,95.0
608,132.90407368333334,133.20194561666668,53.0,89.0
609,132.90407368333334,133.20327540208334,57.0,95.0
610,133.54237068333333,133.98518922708334,62.0,90.0
611,133.54237068333333,133.9865190125,60.0,89.0
612,133.54237068333333,134.00114665208332,55.0,89.0
613,134.02109343333333,134.10486991458333,60.0,83.0
614,134.02109343333333,134.10486991458333,62.0,79.0
615,134.02109343333333,134.12082733958334,55.0,72.0
616,133.54237068333333,134.1620506875,43.0,77.0
617,134.49981618333334,134.53970974583333,61.0,65.0
618,134.49981618333334,135.34422992291667,62.0,85.0
619,134.49981618333334,135.35087885,59.0,82.0
620,134.49981618333334,135.37348520208334,55.0,76.0
621,134.49981618333334,135.45992125416666,50.0,76.0
622,134.49981618333334,135.4865169625,43.0,57.0
623,135.45726168333334,135.71656983958334,59.0,83.0
624,135.45726168333334,135.71656983958334,62.0,89.0
625,135.77641018333333,135.82561224375,62.0,35.0
626,135.61683593333333,136.05566512083334,43.0,78.0
627,136.09555868333334,136.46656881458333,48.0,89.0
628,136.09555868333334,136.48651559583334,62.0,83.0
629,135.77641018333333,136.48784538125,55.0,90.0
630,136.09555868333334,136.48784538125,60.0,88.0
631,136.57428143333334,136.63146220625,48.0,53.0
632,136.57428143333334,136.64741963125,60.0,78.0
633,136.57428143333334,136.6514089875,55.0,62.0
634,136.57428143333334,136.6514089875,62.0,77.0
635,137.05300418333334,138.6460871125,43.0,78.0
636,137.05300418333334,138.66071475208332,59.0,72.0
637,137.05300418333334,138.67667217708333,55.0,78.0
638,137.05300418333334,138.68199131875,62.0,73.0
639,138.64874668333334,139.86550033958332,43.0,78.0
640,138.96789518333333,139.930659825,50.0,63.0
641,139.76576643333334,140.3375741625,55.0,58.0
642,139.28704368333334,140.36549965625,59.0,69.0
643,139.28704368333334,140.377467725,62.0,68.0
644,139.92534068333333,140.6806588,43.0,75.0
645,140.24448918333334,140.68331837083332,50.0,57.0
646,140.88278618333334,141.11017948958335,55.0,41.0
647,140.56363768333333,141.25246652916667,59.0,64.0
648,140.56363768333333,141.27507288125,62.0,66.0
649,141.20193468333332,142.42932662291668,42.0,72.0
650,141.52108318333333,142.47985846875,54.0,48.0
651,142.31895443333335,142.70459220416666,59.0,57.0
652,141.84023168333334,142.89209194791667,66.0,70.0
653,141.84023168333334,142.89342173333333,62.0,65.0
654,142.79767718333332,143.29102757291668,59.0,64.0
655,142.47852868333334,143.38012319583333,42.0,76.0
656,143.43597418333334,143.8162928125,62.0,62.0
657,143.11682568333333,143.81762259791665,66.0,93.0
658,143.75512268333333,144.91070621041666,40.0,63.0
659,144.07427118333334,145.03038689791666,47.0,53.0
660,144.87214243333332,145.37480132083334,59.0,72.0
661,144.39341968333332,145.40538638541668,64.0,67.0
662,144.39341968333332,145.41336509791665,67.0,64.0
663,145.03171668333334,145.83623686041668,40.0,72.0
664,145.35086518333333,145.92533248333334,47.0,63.0
665,145.67001368333334,146.36549145625,64.0,76.0
666,145.67001368333334,146.37214038333335,67.0,73.0
667,145.98916218333332,146.39607652083333,59.0,73.0
668,146.30831068333333,147.5024579875,47.0,62.0
669,146.62745918333334,147.57027704375,54.0,69.0
670,146.94660768333333,147.99048923541667,66.0,82.0
671,146.94660768333333,147.99580837708334,62.0,61.0
672,147.90405318333333,148.35219086875,54.0,74.0
673,147.42533043333333,148.36814829375,59.0,67.0
674,147.58490468333332,148.54102039791667,47.0,67.0
675,148.22320168333334,148.83756254583332,66.0,102.0
676,148.54235018333333,148.84820082916667,62.0,71.0
677,148.70192443333335,148.91601988541666,59.0,72.0
678,148.86149868333334,149.98250778958334,36.0,64.0
679,149.18064718333332,150.11814590208334,43.0,69.0
680,149.49979568333333,150.58091122708333,64.0,76.0
681,149.49979568333333,150.59154951041666,60.0,72.0
682,149.97851843333333,150.61681543333333,55.0,59.0
683,150.13809268333333,150.99979363333333,36.0,70.0
684,150.45724118333334,151.03569783958332,43.0,62.0
685,151.09553818333333,151.38277183333332,55.0,72.0
686,151.25511243333332,151.41468668333334,60.0,62.0
687,150.77638968333332,151.41468668333334,64.0,86.0
688,151.73383518333333,152.21920686041668,50.0,60.0
689,151.41468668333334,152.24048342708332,43.0,73.0
690,152.05298368333334,152.68330197083333,67.0,85.0
691,152.05298368333334,152.72186574791667,71.0,76.0
692,152.53170643333334,152.75776995416666,62.0,85.0
693,152.69128068333333,152.81362094166667,40.0,82.0
694,153.01042918333334,153.65670489583334,40.0,70.0
695,153.64872618333334,153.95324704375,59.0,77.0
696,153.32957768333333,154.07957665833334,64.0,85.0
697,153.32957768333333,154.11548086458333,67.0,83.0
698,153.96787468333332,155.12079863958334,36.0,90.0
699,154.28702318333333,155.16468155833334,43.0,58.0
700,155.08489443333335,155.26175589375,60.0,92.0
701,155.24446868333334,155.3614898,36.0,77.0
702,154.60617168333334,155.69925529583332,67.0,83.0
703,154.60617168333334,155.71654250625,64.0,89.0
704,155.56361718333332,155.88143589791667,36.0,82.0
705,155.88276568333333,155.93063795833334,60.0,69.0
706,155.88276568333333,156.46122233958334,48.0,88.0
707,156.20191418333334,156.53702010833334,60.0,88.0
708,155.88276568333333,156.56361581666667,64.0,83.0
709,155.88276568333333,156.57558388541668,67.0,83.0
710,157.15935968333332,157.23382766666666,50.0,33.0
711,156.52106268333333,157.32292328958334,38.0,92.0
712,157.15935968333332,157.32558286041666,62.0,81.0
713,157.15935968333332,157.35084878333333,57.0,81.0
714,157.15935968333332,157.35350835416668,66.0,88.0
715,156.84021118333334,157.356167925,45.0,42.0
716,157.47850818333333,157.6194654375,38.0,56.0
717,157.47850818333333,157.64207178958333,50.0,96.0
718,157.47850818333333,157.64872071666667,62.0,88.0
719,157.47850818333333,157.65669942916668,57.0,82.0
720,157.47850818333333,157.66068878541665,66.0,78.0
721,157.79765668333334,157.94659264999999,38.0,72.0
722,157.79765668333334,157.95590114791668,50.0,95.0
723,157.79765668333334,157.96387986041665,62.0,99.0
724,157.79765668333334,157.96786921666666,57.0,97.0
725,157.79765668333334,157.9785075,66.0,100.0
726,158.11680518333333,158.25510286666668,38.0,76.0
727,158.11680518333333,158.28568793125,50.0,97.0
728,158.11680518333333,158.28701771666667,62.0,99.0
729,158.11680518333333,158.29499642916667,57.0,92.0
730,158.11680518333333,158.30031557083333,66.0,100.0
731,158.43595368333334,158.55962372708333,38.0,78.0
732,158.43595368333334,158.5769109375,62.0,112.0
733,158.43595368333334,158.58090029375,57.0,100.0
734,158.43595368333334,158.58488965,50.0,97.0
735,158.43595368333334,158.58887900625,66.0,107.0
736,158.75510218333332,158.92132536041666,57.0,100.0
737,158.75510218333332,158.92132536041666,62.0,127.0
738,158.75510218333332,158.92531471666666,50.0,107.0
739,158.75510218333332,158.97717634791667,66.0,117.0
740,159.39339918333334,159.58754785416667,71.0,99.0
741,159.39339918333334,159.60350527916665,67.0,90.0
742,159.39339918333334,159.63542012916668,62.0,76.0
743,159.71254768333333,159.86015386458334,55.0,38.0
744,159.71254768333333,160.09153652708332,67.0,112.0
745,159.71254768333333,160.09951523958333,62.0,99.0
746,159.71254768333333,160.09951523958333,71.0,100.0
747,159.07425068333333,160.29100433958334,43.0,96.0
748,159.71254768333333,160.36813189375,50.0,35.0
749,160.35084468333332,160.47052537083334,43.0,90.0
750,160.19127043333333,160.70456760416667,62.0,99.0
751,160.19127043333333,160.71121653125,67.0,107.0
752,160.19127043333333,160.72983352708334,71.0,95.0
753,160.66999318333333,161.05696073958333,43.0,90.0
754,160.98914168333334,161.15270528958334,67.0,100.0
755,160.98914168333334,161.154035075,71.0,112.0
756,161.14871593333334,161.47052400416666,43.0,90.0
757,161.30829018333333,161.52770477708333,67.0,97.0
758,161.30829018333333,161.55961962708332,71.0,93.0
759,161.46786443333335,161.632757825,62.0,86.0
760,162.26573568333333,162.65935216666668,62.0,102.0
761,162.26573568333333,162.66600109375,66.0,102.0
762,162.26573568333333,162.67265002083334,57.0,89.0
763,161.62743868333334,162.78036263958333,38.0,97.0
764,161.94658718333332,162.80030942083334,50.0,82.0
765,161.94658718333332,162.83222427083334,45.0,73.0
766,162.74445843333334,163.26573431666665,66.0,95.0
767,162.74445843333334,163.26706410208334,57.0,88.0
768,162.74445843333334,163.26706410208334,62.0,99.0
769,162.90403268333333,163.37876607708333,38.0,85.0
770,163.54232968333332,163.76440384791667,66.0,117.0
771,163.54232968333332,163.771052775,62.0,102.0
772,163.70190393333334,163.9784993,38.0,89.0
773,163.86147818333333,164.13674376458334,62.0,99.0
774,163.22318118333334,164.14339269166666,45.0,89.0
775,163.86147818333333,164.1460522625,66.0,112.0
776,163.22318118333334,164.16865861458334,50.0,92.0
777,164.02105243333332,164.19658410833333,57.0,86.0
778,164.81892368333334,165.22982737708332,64.0,99.0
779,164.81892368333334,165.24046566041667,59.0,95.0
780,164.81892368333334,165.24312523125,67.0,96.0
781,165.13807218333332,165.28301879375,52.0,38.0
782,164.18062668333334,165.35482720625,40.0,97.0
783,164.49977518333333,165.47849725,47.0,93.0
784,165.45722068333333,165.62876300208333,40.0,85.0
785,165.29764643333334,165.84019888333333,59.0,86.0
786,165.29764643333334,165.84684781041668,64.0,92.0
787,165.29764643333334,165.86812437708332,67.0,89.0
788,165.77636918333334,166.37078326458334,40.0,95.0
789,166.09551768333333,166.45322996041668,64.0,97.0
790,166.25509193333332,166.63807013333334,52.0,83.0
791,166.09551768333333,166.71253811666668,67.0,96.0
792,166.57424043333333,166.72716575625,64.0,77.0
793,166.41466618333334,166.73381468333332,59.0,117.0
794,167.37211168333334,167.71785589166666,59.0,86.0
795,167.37211168333334,167.76173881041666,62.0,97.0
796,167.37211168333334,167.76439838125,66.0,107.0
797,166.73381468333332,167.888068425,47.0,96.0
798,167.05296318333333,167.98248318958332,54.0,95.0
799,168.01040868333334,168.12477022916667,47.0,99.0
800,167.85083443333332,168.40269538125,59.0,89.0
801,167.85083443333332,168.42663151874999,62.0,99.0
802,167.85083443333332,168.43461023125,66.0,112.0
803,168.32955718333332,168.61147169166668,47.0,99.0
804,168.64870568333333,168.79897143541666,62.0,102.0
805,168.64870568333333,168.82689692916668,66.0,122.0
806,168.96785418333334,169.19258791875,62.0,99.0
807,168.96785418333334,169.21918362708334,66.0,122.0
808,168.80827993333332,169.24046019375,47.0,100.0
809,169.12742843333334,169.3162579625,59.0,90.0
810,169.60615118333334,169.97982088541667,55.0,93.0
811,169.28700268333333,170.42263942916668,48.0,93.0
812,170.56359668333334,170.66200080416667,48.0,79.0
813,170.40402243333332,170.81226655625,55.0,89.0
814,169.92529968333332,170.88673453958333,64.0,96.0
815,169.92529968333332,170.90668132083334,60.0,82.0
816,170.88274518333333,171.46652098125,48.0,97.0
817,171.20189368333334,171.57024424375,60.0,96.0
818,171.52104218333332,171.78035033958332,55.0,95.0
819,171.68061643333334,171.81625454583335,60.0,81.0
820,171.20189368333334,171.84019068333333,64.0,95.0
821,172.15933918333334,172.49444510833334,54.0,92.0
822,171.84019068333333,172.51705146041667,47.0,88.0
823,172.47848768333333,173.08088047708333,66.0,122.0
824,172.47848768333333,173.08354004791667,62.0,97.0
825,173.11678468333332,173.24045472708335,40.0,90.0
826,172.95721043333333,173.41864597291666,59.0,93.0
827,173.43593318333333,174.0396557625,40.0,90.0
828,173.91465593333334,174.08486846666668,47.0,81.0
829,173.75508168333334,174.14071945416666,64.0,92.0
830,174.23380443333332,174.38805954166668,64.0,78.0
831,174.07423018333333,174.41598503541667,59.0,100.0
832,173.75508168333334,174.43460203125,67.0,89.0
833,174.39337868333334,175.52901542916666,45.0,89.0
834,174.71252718333332,175.57422813333332,52.0,90.0
835,175.03167568333333,175.63805783333333,60.0,99.0
836,175.03167568333333,175.6673131125,64.0,93.0
837,175.51039843333334,175.67130246874999,57.0,102.0
838,175.66997268333333,175.78832358541666,47.0,83.0
839,176.30826968333332,176.63938625208334,54.0,69.0
840,176.30826968333332,176.75906693958333,62.0,96.0
841,175.98912118333334,176.76172651041668,47.0,82.0
842,176.62741818333333,176.90667312083335,59.0,100.0
843,176.30826968333332,176.96651346458333,66.0,112.0
844,177.26571518333333,177.47981063541667,60.0,95.0
845,176.94656668333334,177.64337424166666,48.0,90.0
846,177.58486368333334,178.100820425,64.0,102.0
847,177.58486368333334,178.132735275,67.0,107.0
848,178.06358643333334,178.24177767916666,60.0,100.0
849,178.22316068333333,178.34417115625,38.0,96.0
850,178.54230918333334,178.90932995833333,38.0,89.0
851,178.86145768333333,179.09948927291666,62.0,97.0
852,178.86145768333333,179.13140412291668,66.0,122.0
853,179.02103193333332,179.18991468125,38.0,93.0
854,179.18060618333334,179.52369082083334,62.0,56.0
855,179.18060618333334,179.54895674375,57.0,107.0
856,179.18060618333334,179.55959502708333,66.0,39.0
857,179.49975468333332,180.30959400208334,43.0,82.0
858,179.81890318333333,180.69124241666665,50.0,90.0
859,180.61677443333332,180.77900825416665,55.0,95.0
860,180.77634868333334,180.89735915625,43.0,95.0
861,180.13805168333334,180.95586971458334,59.0,95.0
862,180.13805168333334,180.9571995,62.0,93.0
863,181.09549718333332,181.59948585625,43.0,93.0
864,181.41464568333333,181.79363452708333,59.0,93.0
865,181.73379418333334,182.00108105208332,55.0,95.0
866,181.89336843333334,182.0343256875,59.0,78.0
867,181.41464568333333,182.0662405375,62.0,95.0
868,182.05294268333333,183.13671779791667,38.0,83.0
869,182.37209118333334,183.24044106041666,45.0,54.0
870,183.16996243333332,183.30427076041667,50.0,69.0
871,183.32953668333334,183.48911093333334,38.0,93.0
872,182.69123968333332,183.71517445416666,57.0,76.0
873,182.69123968333332,183.71517445416666,62.0,89.0
874,182.69123968333332,183.73113187916667,66.0,92.0
875,183.64868518333333,184.00373788958333,38.0,78.0
876,183.96783368333334,184.33352467291667,62.0,97.0
877,184.12740793333333,184.43591815,38.0,79.0
878,184.28698218333332,184.58884347291666,57.0,100.0
879,183.96783368333334,184.61809875208334,66.0,107.0
880,184.44655643333334,184.65799231458334,62.0,77.0
881,185.24442768333333,185.61809738541666,64.0,93.0
882,185.40400193333332,185.64735266458334,52.0,69.0
883,184.60613068333333,185.79096948958332,40.0,90.0
884,184.92527918333334,185.86809704375,47.0,69.0
885,185.56357618333334,186.37873464375,59.0,92.0
886,185.24442768333333,186.38937292708334,67.0,90.0
887,185.72315043333333,186.39336228333335,64.0,75.0
888,185.88272468333332,186.76038305833333,40.0,82.0
889,186.20187318333333,186.77102134166665,47.0,100.0
890,186.52102168333334,186.84282975416667,64.0,95.0
891,186.68059593333334,186.91330838125,52.0,56.0
892,186.99974443333332,187.16862718125,64.0,85.0
893,186.52102168333334,187.17660589375,67.0,89.0
894,186.84017018333333,187.29894615208335,59.0,100.0
895,187.47846718333332,187.88804109166668,54.0,97.0
896,187.79761568333333,188.01437070625,62.0,99.0
897,187.15931868333334,188.32288092291665,47.0,83.0
898,187.95718993333332,188.43192332708333,54.0,69.0
899,188.43591268333333,188.55825294166667,47.0,85.0
900,188.27633843333334,188.83883766458334,62.0,69.0
901,188.11676418333334,188.856124875,59.0,92.0
902,187.79761568333333,188.93724178541666,66.0,117.0
903,189.07420968333332,189.27500728125,62.0,93.0
904,188.75506118333334,189.34814547916667,47.0,95.0
905,189.23378393333334,189.34814547916667,54.0,93.0
906,189.07420968333332,189.64069827083333,66.0,117.0
907,189.39335818333333,189.68458118958333,59.0,97.0
908,189.55293243333332,189.70319818541665,62.0,90.0
909,190.35080368333334,190.61011183958334,60.0,86.0
910,190.03165518333333,190.72447338541667,48.0,85.0
911,189.71250668333334,190.87207956666666,36.0,79.0
912,190.51037793333333,191.00106875208334,43.0,38.0
913,190.82952643333334,191.409312875,60.0,69.0
914,190.66995218333332,191.47048300416665,55.0,86.0
915,190.35080368333334,191.473142575,64.0,88.0
916,191.30824918333334,191.79761021666667,43.0,86.0
917,190.98910068333333,191.82154635416666,36.0,83.0
918,191.62739768333333,191.88271648333333,48.0,71.0
919,191.62739768333333,192.00505674166666,60.0,90.0
920,191.94654618333334,192.1912267,55.0,92.0
921,192.10612043333333,192.24840747291665,60.0,64.0
922,191.62739768333333,192.2630351125,64.0,90.0
923,192.58484318333333,192.99441709166666,50.0,76.0
924,192.26569468333332,193.08750207083332,43.0,93.0
925,192.90399168333335,193.32553366041665,67.0,69.0
926,192.90399168333335,193.32553366041665,67.0,89.0
927,192.90399168333335,193.33883151458332,71.0,67.0
928,192.90399168333335,193.33883151458332,71.0,85.0
929,192.90399168333335,193.34415065625,62.0,75.0
930,193.38271443333332,193.47048027083332,62.0,53.0
931,193.38271443333332,193.47048027083332,62.0,93.0
932,193.38271443333332,193.47712919791667,67.0,71.0
933,193.38271443333332,193.47845898333333,71.0,65.0
934,193.54228868333334,193.65266087291667,40.0,76.0
935,193.86143718333332,194.05292628333333,62.0,79.0
936,193.86143718333332,194.11675598333332,67.0,82.0
937,193.86143718333332,194.14867083333334,71.0,79.0
938,193.86143718333332,194.632712725,40.0,79.0
939,194.18058568333333,194.7444147,67.0,85.0
940,194.18058568333333,194.75771255416666,64.0,88.0
941,194.49973418333335,194.76170191041666,59.0,83.0
942,194.81888268333333,195.98909385,36.0,85.0
943,195.13803118333334,196.03962569583334,43.0,56.0
944,196.09547668333335,196.21382758541665,36.0,76.0
945,195.93590243333333,196.31356149166666,55.0,89.0
946,195.45717968333332,196.47180595625,64.0,88.0
947,195.45717968333332,196.48510381041666,60.0,89.0
948,196.41462518333333,197.20850707708334,36.0,90.0
949,197.05292218333332,197.32951755,55.0,78.0
950,196.73377368333334,197.3374962625,60.0,83.0
951,196.73377368333334,197.37207068333333,64.0,83.0
952,197.37207068333333,197.98244218958334,62.0,89.0
953,197.37207068333333,198.00504854166667,66.0,88.0
954,197.37207068333333,198.03829317708332,57.0,77.0
955,197.37207068333333,198.08882502291667,50.0,88.0
956,197.37207068333333,198.15664407916665,38.0,68.0
957,198.32951618333334,199.20983412916667,62.0,93.0
958,198.32951618333334,199.21116391458332,66.0,96.0
959,198.32951618333334,199.2204724125,57.0,90.0
960,198.32951618333334,199.27765318541665,38.0,66.0
961,199.28696168333335,199.49839756458334,57.0,76.0
962,199.28696168333335,199.50637627708332,62.0,81.0
963,199.28696168333335,199.50637627708332,66.0,69.0
964,198.32951618333334,199.59414211458332,50.0,88.0
965,199.92525868333334,200.03563087291667,65.0,78.0
966,199.92525868333334,200.03962022916667,60.0,85.0
967,199.92525868333334,200.04759894166668,69.0,79.0
968,199.92525868333334,200.07951379166667,41.0,93.0
969,200.24440718333332,200.35477937291665,41.0,60.0
970,200.24440718333332,200.35876872916666,65.0,67.0
971,200.24440718333332,200.37206658333332,69.0,71.0
972,200.24440718333332,200.377385725,60.0,73.0
973,200.56355568333333,200.70983207916666,65.0,64.0
974,200.56355568333333,200.71116186458335,60.0,72.0
975,200.56355568333333,200.71914057708332,41.0,72.0
976,200.56355568333333,200.72180014791667,69.0,71.0
977,200.88270418333335,200.99573594375,60.0,83.0
978,200.88270418333335,201.00238487083334,65.0,76.0
979,200.88270418333335,201.015682725,69.0,71.0
980,200.88270418333335,201.03164015,41.0,81.0
981,201.20185268333333,201.30690573125,67.0,93.0
982,201.20185268333333,201.30823551666666,71.0,88.0
983,201.20185268333333,201.31621422916666,64.0,82.0
984,201.20185268333333,201.33217165416667,40.0,81.0
985,201.52100118333334,201.64467122708334,40.0,76.0
986,201.52100118333334,201.64733079791665,67.0,78.0
987,201.52100118333334,201.64999036875,64.0,72.0
988,201.52100118333334,201.66062865208332,71.0,74.0
989,201.84014968333332,201.96116015625,64.0,83.0
990,201.84014968333332,201.96116015625,67.0,86.0
991,201.84014968333332,201.96913886875,71.0,82.0
992,201.84014968333332,201.98642607916668,40.0,85.0
993,202.15929818333333,202.23110659583332,71.0,82.0
994,202.15929818333333,202.24307466458333,67.0,89.0
995,202.15929818333333,202.28562779791667,64.0,86.0
996,202.15929818333333,202.3002554375,40.0,86.0
997,202.47844668333335,202.5316381,70.0,71.0
998,202.47844668333335,202.56754230625,63.0,90.0
999,202.47844668333335,202.60610608333334,39.0,99.0
1000,202.79759518333333,202.89732908958334,70.0,83.0
1001,202.79759518333333,202.91062694375,63.0,89.0
1002,202.79759518333333,202.91727587083332,39.0,85.0
1003,203.11674368333334,203.21115844791666,70.0,92.0
1004,203.11674368333334,203.23243501458333,63.0,102.0
1005,203.11674368333334,203.24839243958334,39.0,86.0
1006,203.43589218333332,203.50105166875,70.0,60.0
1007,203.43589218333332,203.55158351458334,63.0,102.0
1008,203.43589218333332,203.568870725,39.0,95.0
1009,203.75504068333333,203.88535965416668,62.0,90.0
1010,203.75504068333333,203.89067879583334,69.0,86.0
1011,203.75504068333333,203.90131707916666,38.0,90.0
1012,204.07418918333335,204.18589115833333,66.0,93.0
1013,204.07418918333335,204.1991890125,62.0,86.0
1014,204.07418918333335,204.20051879791666,38.0,92.0
1015,204.07418918333335,204.20982729583332,69.0,77.0
1016,204.39333768333333,204.4864226625,66.0,100.0
1017,204.39333768333333,204.494401375,62.0,92.0
1018,204.39333768333333,204.5023800875,69.0,88.0
1019,204.39333768333333,204.526316225,38.0,99.0
1020,204.71248618333334,204.84014558333334,66.0,117.0
1021,204.71248618333334,204.85211365208332,62.0,96.0
1022,204.71248618333334,204.86009236458332,69.0,93.0
1023,204.71248618333334,204.8853582875,38.0,100.0
1024,205.35078318333333,205.54493185416666,71.0,99.0
1025,205.35078318333333,205.56088927916667,67.0,90.0
1026,205.35078318333333,205.59280412916667,62.0,76.0
1027,205.66993168333335,205.81753786458333,55.0,38.0
1028,205.66993168333335,206.04892052708334,67.0,112.0
1029,205.66993168333335,206.05689923958334,62.0,99.0
1030,205.66993168333335,206.05689923958334,71.0,100.0
1031,205.03163468333332,206.24838833958333,43.0,96.0
1032,205.66993168333335,206.32551589375,50.0,35.0
1033,206.30822868333334,206.42790937083333,43.0,90.0
1034,206.14865443333332,206.66195160416666,62.0,99.0
1035,206.14865443333332,206.66860053125,67.0,107.0
1036,206.14865443333332,206.68721752708333,71.0,95.0
1037,206.62737718333332,207.01434473958332,43.0,90.0
1038,206.94652568333333,207.11008928958333,67.0,100.0
1039,206.94652568333333,207.111419075,71.0,112.0
1040,207.10609993333333,207.42790800416665,43.0,90.0
1041,207.26567418333335,207.48508877708332,67.0,97.0
1042,207.26567418333335,207.51700362708334,71.0,93.0
1043,207.42524843333334,207.590141825,62.0,86.0
1044,208.22311968333332,208.61673616666667,62.0,102.0
1045,208.22311968333332,208.62338509375,66.0,102.0
1046,208.22311968333332,208.63003402083334,57.0,89.0
1047,207.58482268333333,208.73774663958332,38.0,97.0
1048,207.90397118333334,208.75769342083333,50.0,82.0
1049,207.90397118333334,208.78960827083333,45.0,73.0
1050,208.70184243333333,209.22311831666667,66.0,95.0
1051,208.70184243333333,209.22444810208333,57.0,88.0
1052,208.70184243333333,209.22444810208333,62.0,99.0
1053,208.86141668333335,209.33615007708335,38.0,85.0
1054,209.49971368333334,209.72178784791666,66.0,117.0
1055,209.49971368333334,209.728436775,62.0,102.0
1056,209.65928793333333,209.9358833,38.0,89.0
1057,209.81886218333332,210.09412776458333,62.0,99.0
1058,209.18056518333333,210.10077669166665,45.0,89.0
1059,209.81886218333332,210.1034362625,66.0,112.0
1060,209.18056518333333,210.12604261458333,50.0,92.0
1061,209.97843643333334,210.15396810833334,57.0,86.0
1062,210.77630768333333,211.18721137708334,64.0,99.0
1063,210.77630768333333,211.19784966041667,59.0,95.0
1064,210.77630768333333,211.20050923125,67.0,96.0
1065,211.09545618333334,211.24040279375,52.0,38.0
1066,210.13801068333333,211.31221120625,40.0,97.0
1067,210.45715918333335,211.43588125,47.0,93.0
1068,211.41460468333332,211.58614700208332,40.0,85.0
1069,211.25503043333333,211.79758288333332,59.0,86.0
1070,211.25503043333333,211.80423181041667,64.0,92.0
1071,211.25503043333333,211.82550837708334,67.0,89.0
1072,211.73375318333333,212.32816726458333,40.0,95.0
1073,212.05290168333335,212.41061396041667,64.0,97.0
1074,212.21247593333334,212.59545413333333,52.0,83.0
1075,212.05290168333335,212.66992211666667,67.0,96.0
1076,212.53162443333332,212.68454975625,64.0,77.0
1077,212.37205018333333,212.69119868333334,59.0,117.0
1078,213.32949568333333,213.67523989166668,59.0,86.0
1079,213.32949568333333,213.71912281041668,62.0,97.0
1080,213.32949568333333,213.72178238125,66.0,107.0
1081,212.69119868333334,213.845452425,47.0,96.0
1082,213.01034718333332,213.93986718958334,54.0,95.0
1083,213.96779268333333,214.08215422916666,47.0,99.0
1084,213.80821843333334,214.36007938125,59.0,89.0
1085,213.80821843333334,214.38401551875,62.0,99.0
1086,213.80821843333334,214.39199423125,66.0,112.0
1087,214.28694118333334,214.56885569166667,47.0,99.0
1088,214.60608968333332,214.75635543541665,62.0,102.0
1089,214.60608968333332,214.78428092916667,66.0,122.0
1090,214.92523818333333,215.14997191875,62.0,99.0
1091,214.92523818333333,215.17656762708333,66.0,122.0
1092,214.76566393333334,215.19784419375,47.0,100.0
1093,215.08481243333333,215.2736419625,59.0,90.0
1094,215.56353518333333,215.93720488541666,55.0,93.0
1095,215.24438668333335,216.38002342916667,48.0,93.0
1096,216.52098068333333,216.61938480416666,48.0,79.0
1097,216.36140643333334,216.76965055624999,55.0,89.0
1098,215.88268368333334,216.84411853958332,64.0,96.0
1099,215.88268368333334,216.86406532083333,60.0,82.0
1100,216.84012918333335,217.42390498125,48.0,97.0
1101,217.15927768333333,217.52762824375,60.0,96.0
1102,217.47842618333334,217.73773433958334,55.0,95.0
1103,217.63800043333333,217.77363854583334,60.0,81.0
1104,217.15927768333333,217.79757468333332,64.0,95.0
1105,218.11672318333333,218.45182910833333,54.0,92.0
1106,217.79757468333332,218.47443546041666,47.0,88.0
1107,218.43587168333335,219.03826447708335,66.0,122.0
1108,218.43587168333335,219.04092404791666,62.0,97.0
1109,219.07416868333334,219.19783872708334,40.0,90.0
1110,218.91459443333332,219.37602997291665,59.0,93.0
1111,219.39331718333332,219.9970397625,40.0,90.0
1112,219.87203993333333,220.04225246666667,47.0,81.0
1113,219.71246568333333,220.09810345416668,64.0,92.0
1114,220.19118843333334,220.34544354166667,64.0,78.0
1115,220.03161418333335,220.37336903541666,59.0,100.0
1116,219.71246568333333,220.39198603124998,67.0,89.0
1117,220.35076268333333,221.48639942916665,45.0,89.0
1118,220.66991118333334,221.53161213333334,52.0,90.0
1119,220.98905968333332,221.59544183333333,60.0,99.0
1120,220.98905968333332,221.6246971125,64.0,93.0
1121,221.46778243333333,221.62868646875,57.0,102.0
1122,221.62735668333335,221.74570758541665,47.0,83.0
1123,222.26565368333334,222.59677025208333,54.0,69.0
1124,222.26565368333334,222.71645093958332,62.0,96.0
1125,221.94650518333333,222.71911051041667,47.0,82.0
1126,222.58480218333332,222.86405712083334,59.0,100.0
1127,222.26565368333334,222.92389746458332,66.0,112.0
1128,223.22309918333335,223.43719463541666,60.0,95.0
1129,222.90395068333333,223.60075824166665,48.0,90.0
1130,223.54224768333333,224.05820442499999,64.0,102.0
1131,223.54224768333333,224.090119275,67.0,107.0
1132,224.02097043333333,224.19916167916668,60.0,100.0
1133,224.18054468333332,224.30155515625,38.0,96.0
1134,224.49969318333333,224.86671395833332,38.0,89.0
1135,224.81884168333332,225.05687327291668,62.0,97.0
1136,224.81884168333332,225.08878812291667,66.0,122.0
1137,224.97841593333334,225.14729868125,38.0,93.0
1138,225.13799018333333,225.48107482083333,62.0,56.0
1139,225.13799018333333,225.50634074375,57.0,107.0
1140,225.13799018333333,225.51697902708332,66.0,39.0
1141,225.45713868333334,226.26697800208333,43.0,82.0
1142,225.77628718333332,226.64862641666667,50.0,90.0
1143,226.57415843333334,226.73639225416667,55.0,95.0
1144,226.73373268333333,226.85474315625,43.0,95.0
1145,226.09543568333333,226.91325371458333,59.0,95.0
1146,226.09543568333333,226.9145835,62.0,93.0
1147,227.05288118333334,227.55686985625,43.0,93.0
1148,227.37202968333332,227.75101852708335,59.0,93.0
1149,227.69117818333334,227.95846505208334,55.0,95.0
1150,227.85075243333333,227.9917096875,59.0,78.0
1151,227.37202968333332,228.0236245375,62.0,95.0
1152,228.01032668333332,229.09410179791666,38.0,83.0
1153,228.32947518333333,229.19782506041668,45.0,54.0
1154,229.12734643333334,229.26165476041666,50.0,69.0
1155,229.28692068333334,229.44649493333333,38.0,93.0
1156,228.64862368333334,229.67255845416668,57.0,76.0
1157,228.64862368333334,229.67255845416668,62.0,89.0
1158,228.64862368333334,229.68851587916666,66.0,92.0
1159,229.60606918333332,229.96112188958332,38.0,78.0
1160,229.92521768333333,230.29090867291666,62.0,97.0
1161,230.08479193333332,230.39330215,38.0,79.0
1162,230.24436618333334,230.54622747291666,57.0,100.0
1163,229.92521768333333,230.57548275208333,66.0,107.0
1164,230.40394043333333,230.61537631458333,62.0,77.0
1165,231.20181168333332,231.57548138541665,64.0,93.0
1166,231.36138593333334,231.60473666458333,52.0,69.0
1167,230.56351468333332,231.74835348958334,40.0,90.0
1168,230.88266318333334,231.82548104375,47.0,69.0
1169,231.52096018333333,232.33611864375,59.0,92.0
1170,231.20181168333332,232.34675692708333,67.0,90.0
1171,231.68053443333332,232.35074628333334,64.0,75.0
1172,231.84010868333334,232.71776705833332,40.0,82.0
1173,232.15925718333332,232.72840534166667,47.0,100.0
1174,232.47840568333334,232.80021375416666,64.0,95.0
1175,232.63797993333333,232.87069238125,52.0,56.0
1176,232.95712843333334,233.12601118125,64.0,85.0
1177,232.47840568333334,233.13398989375,67.0,89.0
1178,232.79755418333332,233.25633015208334,59.0,100.0
1179,233.43585118333334,233.84542509166667,54.0,97.0
1180,233.75499968333332,233.97175470625,62.0,99.0
1181,233.11670268333333,234.28026492291667,47.0,83.0
1182,233.91457393333334,234.38930732708334,54.0,69.0
1183,234.39329668333332,234.51563694166666,47.0,85.0
1184,234.23372243333333,234.79622166458333,62.0,69.0
1185,234.07414818333334,234.813508875,59.0,92.0
1186,233.75499968333332,234.89462578541668,66.0,117.0
1187,235.03159368333334,235.23239128125,62.0,93.0
1188,234.71244518333333,235.30552947916667,47.0,95.0
1189,235.19116793333333,235.30552947916667,54.0,93.0
1190,235.03159368333334,235.59808227083334,66.0,117.0
1191,235.35074218333332,235.64196518958335,59.0,97.0
1192,235.51031643333334,235.66058218541667,62.0,90.0
1193,236.30818768333333,236.56749583958333,60.0,86.0
1194,235.98903918333332,236.68185738541666,48.0,85.0
1195,235.66989068333334,236.82946356666667,36.0,79.0
1196,236.46776193333332,236.95845275208333,43.0,38.0
1197,236.78691043333333,237.366696875,60.0,69.0
1198,236.62733618333334,237.42786700416667,55.0,86.0
1199,236.30818768333333,237.430526575,64.0,88.0
1200,237.26563318333334,237.75499421666666,43.0,86.0
1201,236.94648468333332,237.77893035416668,36.0,83.0
1202,237.58478168333332,237.84010048333334,48.0,71.0
1203,237.58478168333332,237.96244074166665,60.0,90.0
1204,237.90393018333333,238.1486107,55.0,92.0
1205,238.06350443333332,238.20579147291667,60.0,64.0
1206,237.58478168333332,238.2204191125,64.0,90.0
1207,238.54222718333332,238.95180109166665,50.0,76.0
1208,238.22307868333334,239.04488607083334,43.0,93.0
1209,238.86137568333334,239.28291766041667,67.0,69.0
1210,238.86137568333334,239.28291766041667,67.0,89.0
1211,238.86137568333334,239.29621551458334,71.0,67.0
1212,238.86137568333334,239.29621551458334,71.0,85.0
1213,238.86137568333334,239.30153465625,62.0,75.0
1214,239.34009843333334,239.42786427083334,62.0,53.0
1215,239.34009843333334,239.42786427083334,62.0,93.0
1216,239.34009843333334,239.43451319791666,67.0,71.0
1217,239.34009843333334,239.43584298333334,71.0,65.0
1218,239.49967268333333,239.61004487291666,40.0,76.0
1219,239.81882118333334,240.01031028333333,62.0,79.0
1220,239.81882118333334,240.07413998333334,67.0,82.0
1221,239.81882118333334,240.10605483333333,71.0,79.0
1222,239.81882118333334,240.590096725,40.0,79.0
1223,240.13796968333332,240.7017987,67.0,85.0
1224,240.13796968333332,240.71509655416668,64.0,88.0
1225,240.45711818333334,240.71908591041665,59.0,83.0
1226,240.77626668333332,241.94647785,36.0,85.0
1227,241.09541518333333,241.99700969583333,43.0,56.0
1228,242.05286068333334,242.17121158541667,36.0,76.0
1229,241.89328643333334,242.27094549166665,55.0,89.0
1230,241.41456368333334,242.42918995624999,64.0,88.0
1231,241.41456368333334,242.44248781041668,60.0,89.0
1232,242.37200918333332,243.16589107708333,36.0,90.0
1233,243.01030618333334,243.28690155,55.0,78.0
1234,242.69115768333333,243.2948802625,60.0,83.0
1235,242.69115768333333,243.32945468333332,64.0,83.0
1236,243.32945468333332,243.71642223958332,38.0,85.0
1237,243.32945468333332,243.85073056666667,62.0,93.0
1238,243.32945468333332,243.87067734791665,66.0,90.0
1239,243.32945468333332,243.87865606041666,57.0,85.0
1240,243.80817743333333,244.01163460208332,50.0,86.0
1241,243.80817743333333,244.0209431,38.0,57.0
1242,243.96775168333332,244.0289218125,62.0,92.0
1243,243.96775168333332,244.04354945208334,57.0,69.0
1244,243.96775168333332,244.04886859375,66.0,92.0
1245,244.28690018333333,245.83477040833333,57.0,90.0
1246,244.28690018333333,245.84008955,62.0,97.0
1247,244.28690018333333,245.84274912083333,50.0,95.0
1248,244.28690018333333,245.86269590208335,38.0,81.0
1249,244.28690018333333,245.87067461458332,66.0,96.0
1250,245.91322774791666,247.03290706875,43.0,88.0
1251,246.24833367291666,247.04886449375,50.0,65.0
1252,247.15790689791666,247.28157694166666,43.0,72.0
1253,246.99434329166667,247.36934277916666,55.0,73.0
1254,246.52891839583333,247.5555127375,62.0,90.0
1255,247.47173625625,247.962427075,43.0,79.0
1256,248.13130982291668,248.37200098333332,55.0,73.0
1257,248.297533,248.59540493333333,59.0,56.0
1258,247.81349110833332,249.02226605208332,62.0,81.0
1259,248.43982003958334,249.62731841666667,42.0,76.0
1260,248.77359617916667,249.67519069166667,54.0,50.0
1261,249.73104167916665,249.85604150833333,42.0,74.0
1262,249.56348871666665,250.12332837708334,59.0,56.0
1263,249.0874255375,250.20577507291665,66.0,72.0
1264,250.03955189583334,250.83742314583333,42.0,93.0
1265,250.66322125625,251.03689095833334,59.0,74.0
1266,249.08609575208334,251.0501888125,62.0,55.0
1267,250.32811533125,251.06215688125,66.0,88.0
1268,250.99832718125,252.16188942083332,40.0,68.0
1269,251.35205010208333,252.19779362708334,52.0,34.0
1270,252.24832547291666,252.39992101041668,40.0,75.0
1271,252.08343208125,252.80018642083334,59.0,69.0
1272,252.57013354375,253.14327105833334,40.0,63.0
1273,252.9331649625,253.53289818541666,64.0,79.0
1274,251.64460289375,253.56880239166668,67.0,75.0
1275,253.228377325,253.60736616875,59.0,55.0
1276,253.55018539583332,254.77092840833333,36.0,69.0
1277,253.88263175,254.8640133875,48.0,54.0
1278,254.86933252916666,255.12864068541666,36.0,66.0
1279,254.6884817125,255.34672549375,55.0,55.0
1280,255.21640652291666,256.1565648125,36.0,41.0
1281,255.67518249166667,256.44246867708335,60.0,76.0
1282,254.23103552916666,256.4531069604167,64.0,81.0
1283,256.7789043875,260.28820810208333,38.0,53.0
1284,256.86800001041667,260.29086767291665,59.0,61.0
1285,256.9570956333333,260.2948570291667,62.0,88.0
1286,256.7868831,260.3028357416667,55.0,57.0
1287,256.84672344375,260.3054953125,43.0,70.0
1288,256.65656412916667,260.36666544166667,31.0,59.0
