,start,end,pitch,velocity
0,17.918681216666666,18.401239585416665,71.0,86.0
1,18.383797716666667,18.845038245833333,70.0,70.0
2,18.848914216666664,19.309639283333333,71.0,55.0
3,19.313503266666665,19.564662183333333,70.0,60.0
4,19.777181266666666,20.236995283333332,68.0,45.0
5,20.240859266666664,20.46883428333333,66.0,39.0
6,20.472698266666665,21.260950866666665,70.0,55.0
7,21.27447480833333,21.525633725,71.0,55.0
8,21.533361691666663,22.05113545833333,70.0,55.0
9,22.060795416666664,22.3428662,66.0,32.0
10,22.327410266666664,23.648892566666664,63.0,32.0
11,24.413961266666664,24.715351966666667,66.0,43.0
12,24.82740748333333,25.0553825,66.0,33.0
13,25.034130591666667,25.0553825,66.0,30.0
14,25.573156266666665,26.025242316666663,68.0,32.0
15,26.036834266666666,27.19216528333333,59.0,43.0
16,28.123385266666666,28.563879366666665,66.0,55.0
17,28.672070899999998,28.75128255833333,66.0,41.0
18,28.9039099,29.524079225,66.0,41.0
19,29.400431758333333,29.77137415833333,67.0,45.0
20,29.86604175,30.534510866666665,67.0,51.0
21,30.443707258333333,30.913181233333333,66.0,43.0
22,30.772145841666664,31.84586365,64.0,48.0
23,32.7271046,33.213110875,71.0,55.0
24,33.180962599999994,33.3776344,70.0,55.0
25,33.4078916,34.094351825,71.0,51.0
26,34.088678599999994,34.317498674999996,70.0,45.0
27,34.3156076,34.954790949999996,68.0,45.0
28,34.996394599999995,35.4426883,66.0,64.0
29,35.4502526,35.830358675,73.0,80.0
30,35.904110599999996,36.004337574999994,73.0,78.0
31,36.131039599999994,36.58111545,73.0,83.0
32,36.811826599999996,37.297832875,68.0,35.0
33,37.2656846,38.5516156,66.0,51.0
34,39.084898749999994,39.364777849999996,66.0,60.0
35,39.533083524999995,39.64465695,66.0,51.0
36,39.773250049999994,40.34246362499999,66.0,48.0
37,40.32544394999999,40.7755198,75.0,69.0
38,40.773628724999995,41.223704575,73.0,80.0
39,41.227486725,41.662433975,71.0,55.0
40,42.284597649999995,42.52665525,68.0,55.0
41,42.490724825,42.77627715,70.0,55.0
42,42.7422378,43.048591949999995,71.0,80.0
43,43.179076124999995,43.2944317,71.0,55.0
44,43.402222975,43.939288274999996,71.0,51.0
45,43.931723975,44.4593339,73.0,48.0
46,44.44420529999999,45.323555174999996,71.0,51.0
47,46.3806661,46.7361882,70.0,80.0
48,46.86667237499999,46.95933504999999,70.0,60.0
49,47.084146,47.573934425,70.0,60.0
50,47.560696899999996,47.991862,71.0,41.0
51,48.001317375,49.15752484375,73.0,60.0
52,49.167169895833325,49.64942249999999,71.0,80.0
53,49.62434536458333,49.765163124999994,70.0,48.0
54,49.844252552083326,50.34965328124999,71.0,48.0
55,50.55412838541666,50.65636593749999,71.0,65.0
56,50.80104171874999,51.28136531249999,71.0,65.0
57,51.31030046874999,51.76940494791666,73.0,76.0
58,51.78869505208333,52.78406442708333,75.0,80.0
59,53.24509791666666,53.55181057291666,71.0,80.0
60,53.70806041666666,54.13822973958332,78.0,78.0
61,54.128584687499995,54.26940244791666,75.0,80.0
62,54.40443317708333,55.11623802083333,76.0,70.0
63,55.12395406249999,55.58305854166666,75.0,80.0
64,55.55991041666666,56.01901489583333,73.0,64.0
65,56.02287291666666,56.25242515624999,75.0,78.0
66,56.25435416666666,57.03367437499999,71.0,70.0
67,57.20921432291666,57.44262458333333,66.0,51.0
68,57.41176041666666,57.78213041666666,78.0,76.0
69,57.87472291666666,58.0174696875,76.0,76.0
70,58.12356526041666,58.843086145833325,76.0,78.0
71,58.80064791666666,58.91060151041666,75.0,92.0
72,59.04177421874999,59.564536041666656,75.0,75.0
73,59.56646505208333,60.87047609374999,73.0,69.0
74,66.1556230625,66.66741909999999,66.0,71.0
75,66.61985441249999,67.52738864999999,78.0,75.0
76,67.50265501249999,68.39116337499999,75.0,92.0
77,68.413994425,68.86681024999999,73.0,92.0
78,68.9200827,69.4699304875,71.0,55.0
79,69.83332469999999,70.9577539125,78.0,55.0
80,73.0296717,73.27510548749999,75.0,73.0
81,73.277008075,73.5015134,76.0,73.0
82,73.48629269999999,73.63088934999999,78.0,80.0
83,73.72601872499999,74.44519679999999,78.0,80.0
84,74.35767777499998,74.49276148749999,76.0,71.0
85,74.578377925,75.24999131249999,76.0,70.0
86,75.2576016625,75.628606225,75.0,78.0
87,75.54108719999999,76.22221352499999,73.0,75.0
88,76.2260187,76.44101108749999,75.0,69.0
89,76.45432919999999,77.11072188749999,71.0,65.0
90,77.36757119999999,77.6053946375,66.0,70.0
91,77.59588169999999,77.99352248749999,78.0,80.0
92,78.05250269999999,78.14953466249999,76.0,78.0
93,78.2808132,78.96193952499999,76.0,78.0
94,78.96574469999999,79.190250025,75.0,80.0
95,79.1940552,80.103492025,75.0,70.0
96,79.87898669999998,80.7560795375,73.0,62.0
97,81.02053919999999,81.30212214999999,66.0,48.0
98,81.2488497,82.15257876249999,78.0,80.0
99,82.16209169999999,83.09055439999999,75.0,104.0
100,83.07533369999999,83.627084075,73.0,80.0
101,83.5319547,84.39192424999999,71.0,60.0
102,84.4451967,86.1346944,78.0,104.0
103,87.6415437,87.96688616249999,75.0,104.0
104,87.86985419999999,88.12289833749999,76.0,73.0
105,88.09816469999998,88.22944323749999,78.0,75.0
106,88.32647519999999,88.9143747375,78.0,75.0
107,89.0114067,89.121756775,76.0,69.0
108,89.2397172,89.920843525,76.0,80.0
109,89.92464869999999,90.0311936,75.0,92.0
110,90.1529592,90.83979328749999,73.0,92.0
111,90.83789069999999,91.15562281249998,75.0,71.0
112,91.0662012,91.7872818625,71.0,83.0
113,91.97944319999999,92.226779575,66.0,60.0
114,92.20775369999998,92.54831686249999,78.0,75.0
115,92.6643747,92.7728221875,76.0,55.0
116,92.89268519999999,93.467266625,76.0,65.0
117,93.45394851249999,93.6784538375,75.0,80.0
118,93.80592719999999,94.13317225,76.0,51.0
119,94.03423769999999,94.75912353749999,73.0,75.0
120,94.94747969999999,95.293750625,73.0,78.0
121,95.40410069999999,95.52776888749999,71.0,55.0
122,95.63241119999999,98.25417677499999,71.0,60.0
123,103.3949682,103.83066073749998,73.0,92.0
124,104.0798997,104.5536439875,73.0,80.0
125,104.9931417,105.56201536249999,73.0,87.0
126,105.4497627,106.2165054625,71.0,83.0
127,106.5913152,107.500752025,73.0,92.0
128,107.2762467,108.26559219999999,75.0,104.0
129,108.1894887,109.6792147125,73.0,75.0
130,111.3858357,111.85957998749998,71.0,86.0
131,111.84245669999999,112.295272525,70.0,70.0
132,112.2990777,112.75189352499999,71.0,55.0
133,112.75569869999998,113.00303507499999,70.0,60.0
134,113.2123197,113.66513552499998,68.0,45.0
135,113.6689407,113.893446025,66.0,39.0
136,113.8972512,114.67350689999999,70.0,55.0
137,114.6868250125,114.93416138749998,71.0,55.0
138,114.94177173749999,115.4516651875,70.0,55.0
139,115.46117812499999,115.7389559,66.0,32.0
140,115.7237352,117.02510505,63.0,32.0
141,117.55021919999999,117.77472452499998,66.0,51.0
142,117.77852969999999,118.07533335,66.0,43.0
143,118.185683425,118.41018875,66.0,33.0
144,118.3892602875,118.41018875,66.0,30.0
145,118.9200822,119.36528767499999,68.0,32.0
146,119.3767032,120.514450525,59.0,43.0
147,121.2031872,121.427692525,66.0,70.0
148,121.4314977,121.86528765,66.0,55.0
149,121.891923875,122.0555464,66.0,66.0
150,122.1069162625,122.33142158749999,66.0,69.0
151,122.56353726249999,122.92354436458332,67.0,62.0
152,122.99267739999999,123.63916470416665,67.0,80.0
153,123.47660864791665,123.93064452916666,66.0,80.0
154,123.89888070208332,124.95082391666665,64.0,76.0
155,125.93737101666665,126.41756534374998,71.0,69.0
156,126.38580151666665,126.58012139999998,70.0,69.0
157,126.61001676666665,127.28826789791665,71.0,69.0
158,127.28266251666665,127.50874622708332,70.0,64.0
159,127.50687776666665,128.26173577499998,68.0,71.0
160,128.17952351666665,128.62048017499998,66.0,71.0
161,128.40747568749998,129.00725148125,73.0,66.0
162,129.07638451666665,129.17541291875,73.0,78.0
163,129.30059976666666,129.74529334583332,73.0,80.0
164,129.74716180624998,130.22735613333333,68.0,76.0
165,130.19559230624998,131.46427692916666,66.0,92.0
166,132.21913493749997,132.49566707916665,66.0,60.0
167,132.66171736249996,132.77179194166663,66.0,51.0
168,132.8986575583333,133.46022447916664,66.0,48.0
169,133.34828422916664,133.79231388749997,75.0,69.0
170,133.79044821666665,134.23447787499998,73.0,80.0
171,134.23820921666663,134.66917917916663,71.0,55.0
172,135.33149232499997,135.57216386249996,68.0,87.0
173,135.5348504458333,135.81656674166663,70.0,80.0
174,135.78298466666664,136.08522334166665,71.0,78.0
175,136.21582029999996,136.3296262208333,71.0,94.0
176,136.4359694583333,136.96395430416663,71.0,94.0
177,136.9173125333333,137.43783469583332,73.0,94.0
178,137.36507353333332,137.91171508749997,71.0,94.0
179,137.8128345333333,138.3725357833333,73.0,94.0
180,139.3799980333333,139.72887847916664,70.0,80.0
181,139.85760976666663,139.94902763749997,70.0,75.0
182,140.0740275833333,140.55537065833332,70.0,75.0
183,140.54231096249998,140.9695495833333,71.0,72.0
184,140.98447494999996,141.18969874166663,73.0,71.0
185,141.19902709583332,141.3277583833333,71.0,71.0
186,141.40984789999996,142.07589238749998,73.0,71.0
187,142.0665640333333,142.53298174166665,71.0,80.0
188,142.5087280208333,142.72887717916663,70.0,48.0
189,142.7382055333333,143.22887696249998,71.0,48.0
190,143.40798136249998,143.50686191666665,71.0,65.0
191,143.64678722916665,144.11133926666665,71.0,65.0
192,144.13932432916664,144.5852196583333,73.0,76.0
193,144.5292495333333,145.4919356833333,75.0,80.0
194,146.0964130333333,146.3930546958333,71.0,80.0
195,146.5441740333333,146.96021862916663,78.0,78.0
196,146.9583529583333,147.09454692916663,76.0,80.0
197,147.2102185208333,147.89865105833331,76.0,70.0
198,147.91357642499997,148.3576060833333,75.0,80.0
199,148.3352180333333,148.7839305708333,73.0,64.0
200,148.78777081666664,149.01626544374997,75.0,78.0
201,149.01818556666663,149.79391522499998,71.0,70.0
202,149.91680309166662,150.0972946458333,66.0,51.0
203,150.17025931666663,150.53892291666662,78.0,76.0
204,150.63108881666662,150.77317791249996,76.0,76.0
205,150.87878467291662,151.5949905208333,76.0,78.0
206,151.55274781666662,151.66219482291663,75.0,92.0
207,151.79276318124997,152.31311649166662,75.0,75.0
208,152.3150366145833,153.61303970624996,73.0,69.0
209,155.21442221874997,155.7309352833333,66.0,71.0
210,155.68293221041662,156.59883084166663,78.0,75.0
211,156.57386924374995,157.4705666458333,75.0,92.0
212,157.4936081208333,157.94699674999995,73.0,92.0
213,157.99907989999997,158.53665241249996,71.0,55.0
214,158.89193389999997,159.99126038749995,78.0,55.0
215,162.01692289999997,162.25687741249996,75.0,73.0
216,162.25873752499996,162.47823079999995,76.0,73.0
217,162.46334989999997,162.60471844999995,78.0,80.0
218,162.69772407499997,163.40084659999997,78.0,80.0
219,163.31528142499997,163.44734941249996,76.0,71.0
220,163.53105447499996,164.18767418749997,76.0,70.0
221,164.19511463749996,164.55783657499995,75.0,78.0
222,164.47227139999995,165.13819167499997,73.0,75.0
223,165.14191189999997,165.35210461249997,75.0,69.0
224,165.36512539999995,166.00686421249995,71.0,65.0
225,166.25797939999995,166.49049346249996,66.0,70.0
226,166.48119289999997,166.86995641249996,78.0,80.0
227,166.92761989999997,167.02248563749995,76.0,78.0
228,167.15083339999995,167.81819542916662,76.0,78.0
229,167.8219491833333,168.04342067916662,75.0,80.0
230,168.04717443333328,168.94432167916662,75.0,70.0
231,168.7228501833333,169.58809051874996,73.0,62.0
232,169.64251995416663,170.10610859374995,66.0,48.0
233,170.07420168333329,170.96571829791662,78.0,80.0
234,170.9751026833333,171.89101869999996,75.0,73.0
235,171.8760036833333,172.42029803749995,73.0,80.0
236,172.32645418333328,173.17480262499996,71.0,60.0
237,173.00588368749996,174.6744274145833,78.0,76.0
238,176.3805086833333,176.70145466458328,75.0,104.0
239,176.60573393333328,176.85535858541664,76.0,73.0
240,176.8309591833333,176.9604637020833,78.0,75.0
241,177.0561844333333,177.63613945208328,78.0,75.0
242,177.73186018333328,177.84071905416664,76.0,69.0
243,177.9570854333333,178.62900742916662,76.0,80.0
244,178.6327611833333,178.73786629999995,75.0,92.0
245,178.85798643333328,179.53553906041662,73.0,92.0
246,179.5336621833333,179.84710065624995,75.0,71.0
247,179.75888743333329,180.47022384791663,71.0,83.0
248,180.6597884333333,180.90378245416662,66.0,60.0
249,180.88501368333328,181.22097468124997,78.0,75.0
250,181.3354641833333,181.4424461770833,76.0,55.0
251,181.5606894333333,182.12750631249997,76.0,65.0
252,182.2363651833333,182.39214598124997,78.0,80.0
253,182.4615904333333,183.60273169999996,73.0,80.0
254,184.01376778124995,184.51864771666664,66.0,71.0
255,184.4717257895833,185.36699615833328,78.0,75.0
256,185.34259675624997,186.21909835416662,75.0,92.0
257,186.24162087916662,186.68831762499997,73.0,92.0
258,186.7408701833333,187.28328766041662,71.0,55.0
259,187.6417711833333,188.7510055395833,78.0,55.0
260,190.7949246833333,191.0370418270833,75.0,73.0
261,191.03891870416663,191.26039019999996,76.0,73.0
262,191.2453751833333,191.38801784166662,78.0,80.0
263,191.4818616958333,192.1913212333333,78.0,80.0
264,192.10498488749997,192.23824316041663,76.0,71.0
265,192.32270262916663,192.9852402395833,76.0,70.0
266,192.99274774791664,193.35873877916663,75.0,78.0
267,193.2724024333333,193.9443244291666,73.0,75.0
268,193.94807818333328,194.16016529374997,75.0,69.0
269,194.1733034333333,194.82082602708329,71.0,65.0
270,195.0742044333333,195.30881406874997,66.0,70.0
271,195.2994296833333,195.69169699374996,78.0,80.0
272,195.7498801833333,195.8456009145833,76.0,78.0
273,195.97510543333328,196.64702742916663,76.0,78.0
274,196.6507811833333,196.81594636666662,78.0,85.0
275,196.8760064333333,198.19732789999995,73.0,80.0
276,198.47135195416664,198.93494059374996,66.0,48.0
277,198.9030336833333,199.79455029791663,78.0,80.0
278,199.8039346833333,200.71985069999997,75.0,73.0
279,200.7048356833333,201.24913003749995,73.0,80.0
280,201.1552861833333,202.00363462499996,71.0,60.0
281,202.0561871833333,202.37525628749995,80.0,104.0
282,202.50663768333328,202.9739800770833,80.0,92.0
283,202.9570881833333,203.89928047916663,78.0,92.0
284,205.2093406833333,205.5302866645833,75.0,104.0
285,205.4345659333333,205.68419058541662,76.0,73.0
286,205.6597911833333,205.78929570208328,78.0,75.0
287,205.8850164333333,206.4649714520833,78.0,75.0
288,206.5606921833333,206.66955105416662,76.0,69.0
289,206.78591743333328,207.45783942916663,76.0,80.0
290,207.4615931833333,207.56669829999996,75.0,92.0
291,207.6868184333333,208.36437106041663,73.0,92.0
292,208.3624941833333,208.67593265624996,75.0,71.0
293,208.5877194333333,209.29905584791663,71.0,83.0
294,209.4886204333333,209.73261445416662,66.0,60.0
295,209.7138456833333,210.04980668124995,78.0,75.0
296,210.1642961833333,210.2712781770833,76.0,55.0
297,210.3895214333333,210.95633831249995,76.0,65.0
298,211.0483052895833,211.3410981145833,75.0,80.0
299,211.51752456041663,211.75401107291663,73.0,70.0
300,211.7352423020833,211.88914622291662,75.0,80.0
301,211.91729937916662,213.44320044791664,73.0,48.0
302,246.2172280770833,247.42593691874998,78.0,104.0
303,247.55544143749995,248.23111718749996,78.0,110.0
304,248.4244355270833,249.35718116666663,75.0,110.0
305,249.3822266770833,250.0661082708333,73.0,92.0
306,249.9349355625,250.68146259374998,71.0,87.0
307,250.79073334999998,252.06559849999996,78.0,80.0
308,252.20490006249997,252.69724414999996,80.0,104.0
309,252.69362096666663,253.92006852499998,78.0,104.0
310,254.02876402499996,254.24615502499995,75.0,92.0
311,254.2660825333333,254.4889083083333,76.0,92.0
312,254.4671692083333,254.57224152499995,78.0,94.0
313,254.70448771666662,255.45267507499997,78.0,96.0
314,255.40919687499996,255.6791240333333,76.0,80.0
315,255.65557334166664,256.1247755833333,75.0,85.0
316,256.31861589166664,256.52876052499994,75.0,92.0
317,256.54506484999996,257.21205596874995,73.0,80.0
318,257.1373175520833,257.3428481979166,75.0,92.0
319,257.3503220395833,258.21919025,73.0,75.0
320,258.16211262499996,258.4608188625,66.0,80.0
321,258.4075464125,258.74049922499995,78.0,92.0
322,258.9117321,259.029692525,76.0,80.0
323,259.15906847499997,259.74696801249996,76.0,92.0
324,259.7850197625,260.0171354375,78.0,80.0
325,260.0437716625,261.092097375,71.0,70.0
326,260.72489798749996,261.42695277499996,83.0,76.0
327,261.7941521625,262.05100147499996,66.0,70.0
328,262.05100147499996,262.9318994875,80.0,76.0
329,262.9052632625,263.41028087499996,78.0,76.0
330,263.39167975,263.83438652499996,75.0,73.0
331,263.856707875,264.0110972125,80.0,110.0
332,264.29755453749993,264.77560344999995,80.0,110.0
333,264.75142198749995,265.20528943749997,78.0,92.0
334,265.19970909999995,267.29047554999994,82.0,104.0
335,267.472766575,268.28191551249995,78.0,78.0
336,268.33771888749993,268.59255429999996,75.0,78.0
337,268.60371497499995,268.82134813749997,76.0,78.0
338,268.79344645,268.8957526375,78.0,78.0
339,269.02410039999995,269.600735275,78.0,78.0
340,269.66025887499995,269.74954427499995,76.0,78.0
341,269.88533248749997,270.56055332499994,76.0,78.0
342,270.53451175,270.78004659999993,75.0,80.0
343,270.79678761249994,271.49805002499994,73.0,80.0
344,271.49060957499995,271.71940341249996,75.0,85.0
345,271.7417247625,272.48204953749996,73.0,90.0
346,272.5359928,272.74246528749995,66.0,73.0
347,272.81128944999995,273.1312288,78.0,76.0
348,273.24283554999994,273.343281625,76.0,76.0
349,273.45860859999993,274.13196932499994,76.0,76.0
350,274.146850225,274.28077832499997,75.0,76.0
351,274.41098619999997,275.08806715,75.0,76.0
352,275.08806715,277.807551625,73.0,87.0
353,279.3086624125,279.72718772499996,66.0,92.0
354,279.74764896249997,280.68514566249996,73.0,87.0
355,280.66282431249994,283.27628237499994,71.0,87.0
356,283.23535989999993,285.917642125,68.0,80.0
