,start,end,pitch,velocity
0,34.486076625,34.9592904375,69.0,39.0
1,34.962266625000005,35.1973854375,69.0,62.0
2,35.200361625000006,35.91167043750001,69.0,55.0
3,35.914646625,36.388852500000006,69.0,72.0
4,36.390836625000006,37.1031375,71.0,90.0
5,37.105121625,37.817422500000006,69.0,84.0
6,37.819406625000006,38.2936125,71.0,93.0
7,38.295596625,40.198372500000005,74.0,98.0
8,40.200356625000005,42.1031325,78.0,93.0
9,42.10511662500001,42.57833043750001,76.0,90.0
10,42.581306625,43.0545204375,76.0,87.0
11,43.057496625000006,43.530710437500005,76.0,90.0
12,43.533686625,43.780710187500006,76.0,83.0
13,43.771781625,44.01682106250001,74.0,68.0
14,44.009876625000004,44.503923750000006,78.0,97.0
15,44.48606662500001,45.436462500000005,74.0,87.0
16,45.438446625000005,45.91265250000001,71.0,95.0
17,45.91463662500001,49.722172500000006,69.0,97.0
18,49.724156625000006,50.197370437500005,71.0,97.0
19,50.20034662500001,50.43546543750001,71.0,91.0
20,50.438441625,51.15074250000001,71.0,93.0
21,51.15272662500001,51.38883750000001,69.0,92.0
22,51.39082162500001,51.865027500000004,71.0,101.0
23,51.867011625,53.0555025,74.0,66.0
24,53.057486625,53.531692500000005,83.0,97.0
25,53.533676625000005,54.960262500000006,81.0,98.0
26,54.962246625000006,55.43645250000001,83.0,99.0
27,55.43843662500001,56.39081662500001,78.0,91.0
28,56.39081662500001,56.625935437500004,78.0,83.0
29,56.62891162500001,57.1031175,78.0,73.0
30,57.105101625,57.341212500000005,74.0,71.0
31,57.343196625000004,57.579307500000006,76.0,73.0
32,57.581291625000006,57.816410437500004,71.0,63.0
33,57.81938662500001,58.054505437500005,71.0,71.0
34,58.05748162500001,58.292600437500006,71.0,69.0
35,58.29557662500001,58.531687500000004,71.0,68.0
36,58.533671625000004,59.0068854375,74.0,86.0
37,59.009861625000006,60.67454250000001,74.0,93.0
38,60.67652662500001,61.626922500000006,71.0,99.0
39,61.628906625000006,64.0078725,76.0,101.0
40,64.00985662500001,64.48406250000001,78.0,99.0
41,64.486046625,64.96025250000001,76.0,100.0
42,64.962236625,66.3888225,74.0,97.0
43,66.39080662500001,66.8640204375,81.0,105.0
44,66.86699662500001,68.29358250000001,81.0,106.0
45,68.295566625,68.569375875,74.0,96.0
46,68.53366162500001,68.7697725,76.0,98.0
47,68.77175662500001,70.19834250000001,78.0,103.0
48,70.200326625,70.67354043750001,83.0,103.0
49,70.676516625,71.6269125,83.0,105.0
50,71.62889662500001,72.1021104375,78.0,93.0
51,72.10508662500001,72.57929250000001,78.0,85.0
52,72.581276625,72.82234781250001,76.0,64.0
53,72.819371625,73.29258543750001,74.0,64.0
54,73.295561625,73.53068043750001,74.0,84.0
55,73.533656625,74.0078625,74.0,64.0
56,74.00984662500001,74.51877468750001,71.0,61.0
57,74.48603662500001,74.98206787500001,76.0,66.0
58,74.96222662500001,75.4354404375,74.0,61.0
59,75.438416625,75.91262250000001,74.0,67.0
60,75.914606625,76.38881250000001,71.0,62.0
61,76.39079662500001,79.2459525,69.0,65.0
62,79.24793662500001,79.73999962500001,78.0,99.0
63,79.72412662500001,80.1983325,76.0,99.0
64,80.20031662500001,81.62690250000001,74.0,93.0
65,81.628886625,82.10210043750001,81.0,105.0
66,82.10507662500001,83.412615,81.0,98.0
67,83.41459912500001,83.76975750000001,74.0,87.0
68,83.771741625,84.00785250000001,76.0,82.0
69,84.009836625,85.4364225,78.0,94.0
70,85.43840662500001,85.9116204375,83.0,97.0
71,85.91459662500002,86.86499250000001,83.0,105.0
72,86.866976625,87.34019043750001,78.0,90.0
73,87.34316662500001,87.89971368750001,78.0,84.0
74,87.81935662500001,88.0872135,76.0,87.0
75,88.05745162500001,88.5306654375,74.0,83.0
76,88.53364162500002,88.7687604375,74.0,89.0
77,88.771736625,89.24594250000001,74.0,79.0
78,89.247926625,89.747926125,71.0,76.0
79,89.72411662500001,90.4364175,76.0,95.0
80,90.43840162500001,90.67352043750002,74.0,95.0
81,90.67649662500001,91.15070250000001,74.0,91.0
82,91.15268662500002,92.13978881250002,71.0,91.0
83,92.105066625,95.43641250000002,74.0,76.0
84,95.43839662500001,95.91161043750002,69.0,93.0
85,95.91458662500001,96.1497054375,69.0,91.0
86,96.15268162500001,96.86399043750001,69.0,96.0
87,96.866966625,97.34514075000001,69.0,89.0
88,97.343156625,97.93641000000001,71.0,93.0
89,98.05744162500001,98.88879000000001,69.0,87.0
90,98.77172662500001,99.24593250000001,71.0,57.0
91,99.24791662500002,101.1506925,74.0,81.0
92,101.15267662500001,103.17450000000001,78.0,68.0
93,103.05743662500001,103.53164250000002,76.0,97.0
94,103.53362662500001,103.7697375,76.0,85.0
95,103.77172162500001,104.0078325,76.0,84.0
96,104.00981662500001,104.36695912500001,76.0,93.0
97,104.48600662500002,104.96021250000001,74.0,72.0
98,104.962196625,105.69037050000001,78.0,98.0
99,105.67648162500001,106.3887825,74.0,98.0
100,106.39076662500001,106.86497250000001,71.0,99.0
101,106.86695662500001,110.67449250000001,69.0,97.0
102,110.676476625,111.14969043750001,71.0,98.0
103,111.15266662500001,111.38778543750001,71.0,97.0
104,111.39076162500001,112.10306250000001,71.0,95.0
105,112.10504662500001,112.34115750000001,69.0,98.0
106,112.34314162500002,112.81734750000001,71.0,98.0
107,112.81933162500002,114.00782250000002,74.0,95.0
108,114.00980662500001,114.4840125,83.0,97.0
109,114.48599662500001,115.91258250000001,81.0,97.0
110,115.914566625,116.38877250000002,83.0,101.0
111,116.39075662500001,117.34016043750002,78.0,98.0
112,117.34313662500001,117.57825543750002,78.0,93.0
113,117.58123162500002,118.05543750000001,78.0,79.0
114,118.05742162500002,118.29353250000001,74.0,79.0
115,118.29551662500002,118.53162750000001,76.0,91.0
116,118.533611625,118.76972250000001,71.0,84.0
117,118.77170662500001,119.00781750000002,71.0,80.0
118,119.00980162500001,119.24591250000002,71.0,80.0
119,119.24789662500001,119.60305500000001,71.0,90.0
120,119.60503912500002,119.9601975,74.0,94.0
121,119.96218162500001,121.62686250000002,74.0,73.0
122,121.62884662500001,122.10305250000002,78.0,101.0
123,122.10503662500001,124.96019250000002,76.0,83.0
124,124.96217662500001,125.43638250000001,78.0,91.0
125,125.43836662500001,125.92646137500002,76.0,92.0
126,125.91455662500002,127.34114250000002,74.0,98.0
127,127.34312662500001,127.81634043750002,81.0,90.0
128,127.81931662500001,129.2459025,81.0,85.0
129,129.247886625,129.51971175000003,74.0,81.0
130,129.48598162500002,129.74193375000002,76.0,79.0
131,129.724076625,131.21217037500003,78.0,93.0
132,131.15264662500002,131.62586043750002,83.0,93.0
133,131.62883662500002,132.57923250000002,83.0,96.0
134,132.58121662500002,133.0544304375,78.0,96.0
135,133.05740662500003,133.53161250000002,78.0,94.0
136,133.533596625,133.7697075,76.0,84.0
137,133.77169162500002,134.24490543750002,74.0,82.0
138,134.24788162500002,134.4830004375,74.0,72.0
139,134.485976625,134.9601825,74.0,90.0
140,134.962166625,135.4363725,71.0,89.0
141,135.438356625,136.15065750000002,76.0,88.0
142,136.152641625,136.38776043750002,74.0,100.0
143,136.39073662500002,136.8649425,74.0,96.0
144,136.86692662500002,137.84113200000002,71.0,91.0
145,137.81930662500002,141.1506525,74.0,101.0
146,141.152636625,141.6268425,78.0,103.0
147,141.62882662500002,142.1030325,69.0,90.0
148,142.10501662500002,142.57922250000001,74.0,98.0
149,142.58120662500002,143.05541250000002,78.0,105.0
150,143.05739662500002,144.00779250000002,76.0,101.0
151,144.00977662500003,144.48398250000002,81.0,101.0
152,144.485966625,144.98695818750002,76.0,90.0
153,144.962156625,145.4363625,74.0,100.0
154,145.438346625,145.95818737500002,66.0,87.0
155,145.914536625,146.15064750000002,71.0,96.0
156,146.15263162500003,146.8649325,74.0,93.0
157,146.86691662500002,148.76969250000002,73.0,90.0
158,148.77167662500003,149.24588250000002,71.0,87.0
159,149.24786662500003,149.7210804375,74.0,62.0
160,149.724056625,150.19826250000003,74.0,77.0
161,150.200246625,150.692309625,83.0,84.0
162,150.676436625,151.650642,81.0,94.0
163,151.628816625,152.81730750000003,83.0,87.0
164,152.58119662500002,153.17445,74.0,85.0
165,153.295481625,156.26869293750002,78.0,98.0
166,156.390716625,156.8649225,78.0,100.0
167,156.866906625,157.3411125,69.0,93.0
168,157.34309662500002,157.8173025,74.0,103.0
169,157.81928662500002,158.307381375,78.0,95.0
170,158.29547662500002,159.24587250000002,76.0,101.0
171,159.24785662500003,159.7210704375,81.0,85.0
172,159.72404662500003,160.2369429375,81.0,91.0
173,160.20023662500003,161.62682250000003,83.0,100.0
174,161.628806625,161.86491750000002,78.0,97.0
175,161.86690162500003,162.1030125,76.0,82.0
176,162.104996625,163.53059043750002,78.0,101.0
177,163.53356662500002,164.00777250000002,78.0,103.0
178,164.00975662500002,164.72106543750002,76.0,100.0
179,164.724041625,164.95916043750003,76.0,97.0
180,164.96213662500003,165.4353504375,76.0,94.0
181,165.43832662500003,165.91253250000003,76.0,90.0
182,165.914516625,166.42840500000003,78.0,100.0
183,166.390706625,167.3411025,76.0,100.0
184,167.343086625,168.30737137500003,74.0,99.0
185,168.29546662500002,171.62681250000003,76.0,106.0
186,171.628796625,172.10300250000003,78.0,103.0
187,172.104986625,172.5791925,69.0,87.0
188,172.581176625,173.0553825,74.0,99.0
189,173.05736662500001,173.5315725,78.0,91.0
190,173.53355662500002,174.48395250000002,76.0,99.0
191,174.48593662500002,174.997840875,81.0,100.0
192,174.96212662500002,175.43633250000002,76.0,99.0
193,175.43831662500003,175.91252250000002,74.0,95.0
194,175.91450662500003,176.38871250000003,66.0,90.0
195,176.39069662500003,176.6268075,71.0,90.0
196,176.62879162500002,177.39962418750002,74.0,96.0
197,177.343076625,179.2458525,73.0,106.0
198,179.24783662500002,179.72204250000001,71.0,97.0
199,179.72402662500002,180.19724043750003,74.0,103.0
200,180.20021662500002,180.67442250000002,74.0,94.0
201,180.67640662500003,181.15061250000002,83.0,95.0
202,181.15259662500003,182.13275437500002,81.0,100.0
203,182.104976625,183.0841423125,83.0,103.0
204,183.057356625,183.77164162500003,74.0,92.0
205,183.77164162500003,185.07918,78.0,97.0
206,185.200211625,185.43632250000002,76.0,56.0
207,185.43830662500002,186.86489250000002,74.0,62.0
208,186.86687662500003,187.34108250000003,78.0,101.0
209,187.343066625,187.81727250000003,69.0,84.0
210,187.819256625,188.29346250000003,74.0,103.0
211,188.295446625,188.7696525,78.0,109.0
212,188.771636625,189.7220325,76.0,106.0
213,189.72401662500002,190.19723043750002,81.0,100.0
214,190.20020662500002,190.70219025000003,81.0,94.0
215,190.67639662500002,192.10298250000002,83.0,106.0
216,192.10496662500003,192.3410775,78.0,97.0
217,192.34306162500002,192.60397406250001,76.0,91.0
218,192.58115662500003,194.00675043750002,78.0,105.0
219,194.009726625,194.4839325,78.0,90.0
220,194.48591662500002,195.43532043750002,76.0,96.0
221,195.43829662500002,195.91151043750003,76.0,91.0
222,195.91448662500002,196.15059750000003,76.0,72.0
223,196.152581625,196.86488250000002,78.0,69.0
224,196.86686662500003,197.34008043750003,74.0,64.0
225,197.34305662500003,198.3083334375,74.0,65.0
226,198.295436625,198.82619006250002,71.0,66.0
227,198.771626625,200.07023643750003,74.0,79.0
228,206.86685662500003,209.24582250000003,81.0,85.0
229,209.247806625,209.48292543750003,79.0,82.0
230,209.48590162500003,209.72102043750002,79.0,73.0
231,209.723996625,210.19820250000004,79.0,80.0
232,210.20018662500001,210.43629750000002,78.0,84.0
233,210.43828162500003,210.6743925,78.0,84.0
234,210.67637662500002,211.26963000000003,78.0,84.0
235,211.271614125,211.50772500000002,76.0,34.0
236,211.50970912500003,215.43629250000004,74.0,60.0
237,221.15255662500002,222.57914250000002,86.0,98.0
238,222.58112662500002,222.81723750000003,85.0,77.0
239,222.819221625,223.08410231250002,86.0,82.0
240,223.05731662500003,223.55533200000002,83.0,75.0
241,223.53350662500003,226.38866250000004,81.0,64.0
242,226.39064662500002,226.62576543750004,78.0,90.0
243,226.62874162500003,226.86386043750002,78.0,91.0
244,226.86683662500002,227.34104250000001,78.0,87.0
245,227.34302662500002,227.5781454375,76.0,97.0
246,227.58112162500004,228.76961250000002,76.0,94.0
247,228.77159662500003,229.00671543750002,74.0,94.0
248,229.00969162500002,229.26663581250003,76.0,86.0
249,229.24778662500003,232.57913250000001,78.0,93.0
250,236.15254162500003,236.38766043750002,78.0,91.0
251,236.390636625,236.65551731250002,78.0,91.0
252,236.62873162500003,236.86385043750002,76.0,66.0
253,236.86682662500002,237.10194543750004,76.0,73.0
254,237.10492162500003,237.34004043750002,76.0,65.0
255,237.34301662500002,237.57912750000003,76.0,71.0
256,237.58111162500003,237.81623043750002,74.0,66.0
257,237.81920662500002,240.19817250000003,74.0,79.0
258,242.10491662500002,242.57813043750002,69.0,39.0
259,242.58110662500002,242.81622543750004,69.0,62.0
260,242.81920162500003,243.53051043750003,69.0,55.0
261,243.53348662500002,244.00769250000002,69.0,72.0
262,244.00967662500003,244.72197750000004,71.0,90.0
263,244.72396162500002,245.43626250000003,69.0,84.0
264,245.43824662500003,245.91245250000003,71.0,93.0
265,245.91443662500004,247.81721250000004,74.0,98.0
266,247.81919662500002,249.72197250000002,78.0,93.0
267,249.72395662500003,250.19816250000002,76.0,90.0
268,250.20014662500003,250.67435250000003,76.0,87.0
269,250.67633662500003,251.15054250000003,76.0,90.0
270,251.15252662500004,251.38863750000002,76.0,83.0
271,251.39062162500002,251.62673250000003,74.0,68.0
272,251.62871662500004,252.12276375000002,78.0,97.0
273,252.10490662500004,253.05530250000004,74.0,87.0
274,253.05728662500002,253.5314925,71.0,95.0
275,253.53347662500002,257.34101250000003,69.0,97.0
276,257.342996625,257.81621043750005,71.0,97.0
277,257.81918662500004,258.05430543750003,71.0,91.0
278,258.05728162500003,258.7695825,71.0,93.0
279,258.77156662500005,259.0076775,69.0,92.0
280,259.00966162500004,259.48386750000003,71.0,101.0
281,259.485851625,260.6743425,74.0,66.0
282,260.676326625,261.15053250000005,83.0,97.0
283,261.15251662500003,262.57910250000003,81.0,98.0
284,262.581086625,263.0552925,83.0,99.0
285,263.05727662500004,264.00965662500005,78.0,91.0
286,264.00965662500005,264.24477543750004,78.0,83.0
287,264.24775162500003,264.72195750000003,78.0,73.0
288,264.723941625,264.9600525,74.0,71.0
289,264.96203662500005,265.1981475,76.0,73.0
290,265.20013162500004,265.43525043750003,71.0,63.0
291,265.438226625,265.6733454375,71.0,71.0
292,265.676321625,265.9114404375,71.0,69.0
293,265.914416625,266.1505275,71.0,68.0
294,266.15251162500005,266.6257254375,74.0,86.0
295,266.628701625,268.2933825,74.0,93.0
296,268.29536662500004,269.2457625,71.0,99.0
297,269.24774662500005,271.62671250000005,76.0,101.0
298,271.62869662500003,272.1029025,78.0,99.0
299,272.104886625,272.5790925,76.0,100.0
300,272.58107662500004,274.00766250000004,74.0,97.0
301,274.009646625,274.48286043750005,81.0,105.0
302,274.48583662500005,275.91242250000005,81.0,106.0
303,275.914406625,276.188215875,74.0,96.0
304,276.152501625,276.3886125,76.0,98.0
305,276.39059662500006,277.8171825,78.0,103.0
306,277.81916662500004,278.2923804375,83.0,103.0
307,278.295356625,279.24575250000004,83.0,105.0
308,279.247736625,279.72095043750005,78.0,93.0
309,279.72392662500005,280.19813250000004,78.0,85.0
310,280.200116625,280.4411878125,76.0,64.0
311,280.438211625,280.91142543750004,74.0,64.0
312,280.91440162500004,281.14952043750003,74.0,84.0
313,281.152496625,281.6267025,74.0,64.0
314,281.62868662500006,282.13761468750005,71.0,61.0
315,282.10487662500003,282.600907875,76.0,66.0
316,282.581066625,283.05428043750004,74.0,61.0
317,283.05725662500004,283.53146250000003,74.0,67.0
318,283.533446625,284.24574750000005,71.0,62.0
319,284.24773162500003,286.8647925,74.0,65.0
320,287.819156625,288.17431500000004,78.0,100.0
321,288.29534662500004,288.80526675000004,69.0,90.0
322,288.771536625,289.28145675,74.0,98.0
323,289.24772662500004,289.75764675000005,78.0,105.0
324,289.723916625,290.71002675000005,76.0,101.0
325,290.676296625,291.18621675,81.0,101.0
326,291.15248662500005,291.6891924375,76.0,90.0
327,291.628676625,292.13859675000003,74.0,100.0
328,292.10486662500006,292.660421625,66.0,87.0
329,292.58105662500003,292.85288175000005,71.0,96.0
330,292.819151625,293.53145250000006,74.0,93.0
331,293.53343662500004,295.47192675,73.0,90.0
332,295.43819662500005,295.94811675000005,71.0,87.0
333,295.914386625,296.3885925,74.0,62.0
334,296.39057662500005,296.90049675000006,74.0,77.0
335,296.866766625,297.394543875,83.0,84.0
336,297.34295662500006,298.35287625,81.0,94.0
337,298.295336625,299.60287500000004,83.0,87.0
338,299.604859125,300.079065,74.0,85.0
339,300.08104912500005,301.3885875,78.0,98.0
340,301.390571625,301.6266825,76.0,98.0
341,301.62866662500005,303.2090221875,74.0,98.0
342,303.05723662500003,303.56715675000004,78.0,100.0
343,303.533426625,304.04334675,69.0,93.0
344,304.00961662500004,304.51953675000004,74.0,103.0
345,304.485806625,305.00961562500004,78.0,95.0
346,304.96199662500004,305.94810675,76.0,101.0
347,305.91437662500005,306.38858250000004,81.0,85.0
348,306.390566625,306.93917718750004,81.0,91.0
349,306.86675662500005,308.29334250000005,83.0,100.0
350,308.29532662500003,308.53143750000004,78.0,97.0
351,308.533421625,308.7695325,76.0,82.0
352,308.77151662500006,310.19810250000006,78.0,101.0
353,310.20008662500004,310.71000675000005,78.0,103.0
354,310.676276625,311.38857750000005,76.0,100.0
355,311.39056162500003,311.62667250000004,76.0,97.0
356,311.628656625,312.1028625,76.0,94.0
357,312.10484662500005,312.61476675000006,76.0,90.0
358,312.581036625,313.13063925000006,78.0,100.0
359,313.05722662500006,314.04333675000004,76.0,100.0
360,314.00960662500006,315.009605625,74.0,99.0
361,314.961986625,316.86476250000004,76.0,106.0
362,316.866746625,317.81714250000005,81.0,106.0
363,317.819126625,318.76952250000005,79.0,106.0
364,318.77150662500003,319.4838075,78.0,106.0
365,319.48579162500005,320.19809250000003,76.0,100.0
366,320.557219125,320.91237750000005,74.0,91.0
367,320.914361625,321.22090893750004,76.0,85.0
368,321.152456625,321.6752735625,78.0,93.0
369,321.62864662500004,321.87368606250004,76.0,90.0
370,321.86674162500003,323.5314225,74.0,90.0
371,323.53340662500005,323.7695175,73.0,101.0
372,323.77150162500004,324.08300925000003,71.0,82.0
373,324.00959662500003,324.4838025,73.0,93.0
374,324.48578662500006,324.74868318750003,71.0,80.0
375,324.72388162500005,327.8171325,69.0,87.0
376,327.81911662500005,329.24570250000005,83.0,105.0
377,329.24768662500003,329.4828054375,81.0,94.0
378,329.485781625,330.19808250000006,81.0,93.0
379,330.20006662500003,333.5304204375,78.0,87.0
380,333.533396625,334.0076025,78.0,90.0
381,334.00958662500005,334.48379250000005,69.0,80.0
382,334.485776625,334.9599825,74.0,96.0
383,334.96196662500006,335.44906931250006,78.0,83.0
384,335.43815662500003,336.38855250000006,76.0,91.0
385,336.39053662500004,336.8637504375,81.0,100.0
386,336.866726625,337.3409325,81.0,98.0
387,337.34291662500004,338.76950250000004,83.0,105.0
388,338.771486625,339.00759750000003,78.0,97.0
389,339.009581625,339.28636706250006,76.0,65.0
390,339.24767662500005,340.67327043750004,78.0,101.0
391,340.67624662500003,341.15045250000003,78.0,101.0
392,341.15243662500006,342.1018404375,76.0,100.0
393,342.104816625,342.57803043750005,76.0,97.0
394,342.58100662500004,342.936165,76.0,84.0
395,342.93814912500005,343.5314025,78.0,97.0
396,343.53338662500005,344.0066004375,74.0,83.0
397,344.009576625,344.95997250000005,74.0,82.0
398,344.961956625,345.70997175,71.0,89.0
399,345.67624162500005,349.7218725,74.0,106.0
400,349.72385662500005,350.6901255,78.0,103.0
401,350.67623662500006,352.10282250000006,81.0,108.0
402,352.10480662500004,352.57901250000003,78.0,92.0
403,352.580996625,357.45996,76.0,86.0
404,357.46194412500006,357.81710250000003,74.0,96.0
405,357.819086625,358.0680943125,71.0,77.0
406,358.05718162500006,359.18317256250003,69.0,67.0
407,359.128609125,364.00757250000004,74.0,91.0
