,start,end,pitch,velocity
0,5.4186453750000005,5.638883250000001,69.0,73.0
1,5.638883250000001,5.930549625,71.0,76.0
2,5.930549625,6.454358625000001,74.0,82.0
3,6.456342750000001,6.698406,74.0,71.0
4,6.698406,6.946421625000001,71.0,78.0
5,6.946421625000001,7.297611750000001,69.0,60.0
6,7.297611750000001,7.650786000000001,71.0,78.0
7,7.650786000000001,8.833324500000002,74.0,82.0
8,8.833324500000002,9.073403625000001,69.0,89.0
9,9.073403625000001,9.30554625,71.0,80.0
10,9.30554625,9.537688875,69.0,82.0
11,9.537688875,9.799593375,71.0,71.0
12,9.799593375,10.285704,69.0,69.0
13,10.285704,10.545624375000001,64.0,66.0
14,10.545624375000001,11.017846125000002,69.0,78.0
15,11.017846125000002,12.912685500000002,67.0,58.0
16,12.912685500000002,13.132923375,74.0,71.0
17,13.132923375,13.420621500000001,76.0,57.0
18,13.420621500000001,13.682526000000001,79.0,76.0
19,13.682526000000001,14.412684000000002,76.0,80.0
20,14.412684000000002,14.690461500000001,74.0,73.0
21,14.690461500000001,15.162683250000002,76.0,69.0
22,15.162683250000002,16.099190250000003,79.0,78.0
23,16.101174375000003,16.59125325,79.0,78.0
24,16.59125325,16.843237125,76.0,69.0
25,16.843237125,17.103157500000002,79.0,87.0
26,17.103157500000002,17.472204750000003,76.0,76.0
27,17.472204750000003,17.9761725,71.0,85.0
28,17.9761725,18.251965875000003,76.0,73.0
29,18.251965875000003,20.156725875000003,74.0,82.0
30,39.38488125000001,39.62694450000001,71.0,73.0
31,39.62892862500001,39.89678550000001,71.0,82.0
32,39.89876962500001,40.22615025,71.0,78.0
33,40.22615025,40.611070500000004,69.0,80.0
34,40.611070500000004,40.94638762500001,67.0,55.0
35,40.94638762500001,43.136861625,62.0,64.0
36,43.136861625,43.599162750000005,67.0,76.0
37,43.599162750000005,43.980114750000006,66.0,85.0
38,43.982098875000005,44.359082625000006,66.0,74.0
39,44.359082625000006,44.60511412500001,67.0,71.0
40,44.60511412500001,45.059478750000004,66.0,93.0
41,45.059478750000004,47.17852425,64.0,76.0
42,47.17852425,47.497968375000006,72.0,87.0
43,47.499952500000006,47.787650625000005,72.0,73.0
44,47.789634750000005,48.196380375000004,72.0,76.0
45,48.196380375000004,48.456300750000004,71.0,84.0
46,48.456300750000004,48.863046375,72.0,87.0
47,48.863046375,49.126935,71.0,82.0
48,49.126935,50.382886125000006,69.0,89.0
49,50.382886125000006,50.638838250000006,67.0,57.0
50,50.640822375000006,51.081298125,67.0,73.0
51,51.081298125,51.351139125,66.0,74.0
52,51.35312325,51.78764662500001,66.0,63.0
53,51.78764662500001,52.206297000000006,67.0,69.0
54,52.206297000000006,54.587247000000005,69.0,80.0
55,54.587247000000005,54.81740550000001,71.0,78.0
56,54.81938962500001,55.05946875000001,71.0,80.0
57,55.06145287500001,55.32534150000001,71.0,87.0
58,55.32534150000001,55.787642625000004,69.0,82.0
59,55.787642625000004,56.22216600000001,67.0,87.0
60,56.22216600000001,58.363036875000006,62.0,78.0
61,58.363036875000006,58.59319537500001,66.0,65.0
62,58.59319537500001,58.87494112500001,64.0,73.0
63,58.87494112500001,59.335258125,66.0,63.0
64,59.335258125,59.60906737500001,67.0,62.0
65,59.60906737500001,60.12890812500001,69.0,69.0
66,60.12890812500001,62.11700137500001,71.0,87.0
67,62.11700137500001,62.323350375000004,72.0,89.0
68,62.325334500000004,62.545572375000006,72.0,82.0
69,62.547556500000006,62.78763562500001,72.0,82.0
70,62.78763562500001,63.06144487500001,71.0,66.0
71,63.06144487500001,63.488031750000005,72.0,78.0
72,63.488031750000005,63.95033287500001,71.0,71.0
73,63.95033287500001,65.50390275000001,69.0,82.0
74,65.50390275000001,65.76977550000001,67.0,67.0
75,65.771759625,66.24993375000001,67.0,80.0
76,66.24993375000001,66.509854125,66.0,65.0
77,66.51183825000001,66.99199650000001,66.0,74.0
78,66.99199650000001,67.24993275000001,67.0,64.0
79,67.24993275000001,68.72016937500001,69.0,64.0
80,68.7221535,68.93842312500001,69.0,89.0
81,68.94040725,69.148740375,69.0,84.0
82,69.148740375,69.38485125000001,67.0,80.0
83,69.38485125000001,69.62294625000001,66.0,68.0
84,69.624930375,69.87294600000001,66.0,52.0
85,69.874930125,70.120961625,66.0,52.0
86,70.12294575000001,70.37691375000001,66.0,55.0
87,70.378897875,70.82731012500001,66.0,77.0
88,70.82929425,71.09119875,66.0,82.0
89,71.09119875,71.555484,67.0,89.0
90,71.555484,72.835244625,74.0,94.0
91,72.835244625,73.11302212500001,66.0,63.0
92,73.11302212500001,73.38087900000001,69.0,66.0
93,73.38087900000001,73.874926125,67.0,64.0
94,73.87691025000001,74.12294175000001,67.0,73.0
95,74.124925875,74.581274625,67.0,80.0
96,74.581274625,74.88087750000001,66.0,96.0
97,74.88087750000001,75.33127387500001,69.0,78.0
98,75.33127387500001,76.966192875,67.0,71.0
99,76.966192875,77.196351375,71.0,89.0
100,77.196351375,77.450319375,72.0,84.0
101,77.450319375,77.70031912500001,71.0,92.0
102,77.70031912500001,77.96817600000001,72.0,78.0
103,77.96817600000001,78.43047712500001,71.0,89.0
104,78.43047712500001,78.68444512500001,72.0,78.0
105,78.68444512500001,79.18047637500001,71.0,89.0
106,79.18047637500001,80.34118950000001,69.0,89.0
107,80.34118950000001,80.56737975000001,67.0,84.0
108,80.56737975000001,80.81341125000002,69.0,82.0
109,80.81341125000002,81.03761737500001,71.0,89.0
110,81.03761737500001,81.26976,69.0,87.0
111,81.27174412500001,81.49595025,69.0,84.0
112,81.49595025,81.75785475,67.0,80.0
113,81.75983887500001,82.212219375,67.0,89.0
114,82.212219375,82.46420325000001,76.0,71.0
115,82.466187375,82.91459962500001,76.0,92.0
116,82.91459962500001,83.66261475,74.0,87.0
117,83.66459887500001,84.14078887500001,74.0,97.0
118,84.14078887500001,84.61697887500002,76.0,97.0
119,84.61697887500002,84.855073875,79.0,100.0
120,84.855073875,85.09118475000001,76.0,97.0
121,85.093168875,85.331263875,76.0,87.0
122,85.331263875,85.56737475000001,74.0,97.0
123,85.569358875,86.04554887500001,74.0,84.0
124,86.04554887500001,86.28364387500001,76.0,80.0
125,86.28364387500001,87.23403975000001,74.0,73.0
126,87.23602387500001,87.47411887500002,74.0,73.0
127,87.47411887500002,88.188403875,76.0,94.0
128,88.188403875,88.66459387500001,69.0,67.0
129,88.66459387500001,89.13879975,71.0,89.0
130,89.14078387500001,91.28363887500001,71.0,84.0
131,91.28363887500001,91.75982887500001,67.0,78.0
132,91.75982887500001,92.23601887500001,69.0,92.0
133,92.23601887500001,92.47411387500001,71.0,89.0
134,92.47411387500001,92.71022475000001,69.0,80.0
135,92.71220887500002,92.950303875,69.0,82.0
136,92.950303875,93.18641475000001,67.0,69.0
137,93.188398875,93.664588875,67.0,89.0
138,93.664588875,93.90268387500001,64.0,84.0
139,93.90268387500001,95.56934887500002,67.0,76.0
140,95.56934887500002,95.807443875,64.0,92.0
141,95.807443875,99.37886887500001,69.0,64.0
142,99.37886887500001,99.61696387500001,74.0,92.0
143,99.61696387500001,99.85505887500001,76.0,102.0
144,99.85505887500001,100.09315387500001,79.0,102.0
145,100.09315387500001,100.32926475000001,76.0,92.0
146,100.33124887500001,100.56934387500002,76.0,92.0
147,100.56934387500002,100.80545475000001,74.0,87.0
148,100.80743887500002,101.283628875,74.0,89.0
149,101.283628875,101.521723875,76.0,80.0
150,101.521723875,102.23600887500001,74.0,84.0
151,102.23600887500001,103.18838887500002,76.0,92.0
152,103.18838887500002,103.66457887500002,74.0,84.0
153,103.66457887500002,103.902673875,79.0,71.0
154,103.902673875,104.140768875,74.0,64.0
155,104.140768875,106.521718875,76.0,82.0
156,106.521718875,106.99790887500001,67.0,92.0
157,106.99790887500001,107.47409887500001,69.0,97.0
158,107.47409887500001,107.71219387500001,71.0,89.0
159,107.71219387500001,107.94830475,69.0,71.0
160,107.95028887500001,108.18838387500001,69.0,87.0
161,108.18838387500001,108.42449475000001,67.0,76.0
162,108.42647887500002,108.66457387500002,67.0,78.0
163,108.66457387500002,109.140763875,64.0,89.0
164,109.140763875,110.80742887500001,62.0,89.0
165,110.80742887500001,111.04552387500001,64.0,84.0
166,111.04552387500001,113.90266387500002,67.0,76.0
167,146.01572700000003,146.2458855,71.0,78.0
168,146.24786962500002,146.48794875000002,71.0,80.0
169,146.48993287500002,146.75382150000002,71.0,87.0
170,146.75382150000002,147.21612262500003,69.0,82.0
171,147.21612262500003,147.65064600000002,67.0,87.0
172,147.65064600000002,149.791516875,62.0,78.0
173,149.791516875,150.02167537500003,66.0,65.0
174,150.02167537500003,150.30342112500003,64.0,73.0
175,150.30342112500003,150.763738125,66.0,63.0
176,150.763738125,151.037547375,67.0,62.0
177,151.037547375,151.55738812500002,69.0,69.0
178,151.55738812500002,153.545481375,71.0,87.0
179,153.545481375,153.75183037500003,72.0,89.0
180,153.7538145,153.974052375,72.0,82.0
181,153.97603650000002,154.21611562500001,72.0,82.0
182,154.21611562500001,154.489924875,71.0,66.0
183,154.489924875,154.91651175,72.0,78.0
184,154.91651175,155.37881287500002,71.0,71.0
185,155.37881287500002,156.93238275000002,69.0,82.0
186,156.93238275000002,157.19825550000002,67.0,67.0
187,157.20023962500002,157.67841375,67.0,80.0
188,157.67841375,157.938334125,66.0,65.0
189,157.94031825000002,158.4204765,66.0,74.0
190,158.4204765,158.67841275,67.0,64.0
191,158.67841275,160.14864937500002,69.0,64.0
192,160.15063350000003,160.36690312500002,69.0,89.0
193,160.36888725000003,160.57722037500002,69.0,84.0
194,160.57722037500002,160.81333125,67.0,80.0
195,160.81333125,161.05142625000002,66.0,68.0
196,161.05341037500003,161.30142600000002,66.0,52.0
197,161.30341012500003,161.54944162500001,66.0,52.0
198,161.55142575000002,161.80539375,66.0,55.0
199,161.80737787500001,162.255790125,66.0,77.0
200,162.25777425,162.51967875000003,66.0,82.0
201,162.51967875000003,162.98396400000001,67.0,89.0
202,162.98396400000001,164.263724625,74.0,94.0
203,164.263724625,164.54150212500002,66.0,63.0
204,164.54150212500002,164.80935900000003,69.0,66.0
205,164.80935900000003,165.303406125,67.0,64.0
206,165.30539025000002,165.55142175000003,67.0,73.0
207,165.553405875,166.00975462500003,67.0,80.0
208,166.00975462500003,166.3093575,66.0,96.0
209,166.3093575,166.75975387500003,69.0,78.0
210,166.75975387500003,168.39467287500003,67.0,71.0
211,168.39467287500003,168.624831375,71.0,89.0
212,168.624831375,168.87879937500003,72.0,84.0
213,168.87879937500003,169.12879912500003,71.0,92.0
214,169.12879912500003,169.396656,72.0,78.0
215,169.396656,169.85895712500002,71.0,89.0
216,169.85895712500002,170.11292512500003,72.0,78.0
217,170.11292512500003,170.60895637500002,71.0,89.0
218,170.60895637500002,171.76966950000002,69.0,89.0
219,171.76966950000002,171.99585975000002,67.0,84.0
220,171.99585975000002,172.24189125,69.0,82.0
221,172.24189125,172.46609737500003,71.0,89.0
222,172.46609737500003,172.69824000000003,69.0,87.0
223,172.700224125,172.92443025000003,69.0,84.0
224,172.92443025000003,173.18633475000001,67.0,80.0
225,173.18831887500002,173.64069937500003,67.0,89.0
226,173.64069937500003,173.89268325,76.0,71.0
227,173.894667375,174.34307962500003,76.0,92.0
228,174.34307962500003,175.09109475000002,74.0,87.0
229,175.09307887500003,175.569268875,74.0,97.0
230,175.569268875,176.045458875,76.0,97.0
231,176.045458875,176.28355387500002,79.0,100.0
232,176.28355387500002,176.51966475000003,76.0,97.0
233,176.521648875,176.75974387500003,76.0,87.0
234,176.75974387500003,176.99585475,74.0,97.0
235,176.997838875,177.47402887500002,74.0,84.0
236,177.47402887500002,177.71212387500003,76.0,80.0
237,177.71212387500003,178.66251975000003,74.0,73.0
238,178.664503875,178.90259887500002,74.0,73.0
239,178.90259887500002,179.616883875,76.0,94.0
240,179.616883875,180.09307387500002,69.0,67.0
241,180.09307387500002,180.56727975,71.0,89.0
242,180.56926387500002,182.71211887500002,71.0,84.0
243,182.71211887500002,183.18830887500002,67.0,78.0
244,183.18830887500002,183.66449887500002,69.0,92.0
245,183.66449887500002,183.902593875,71.0,89.0
246,183.902593875,184.13870475000002,69.0,80.0
247,184.14068887500002,184.378783875,69.0,82.0
248,184.378783875,184.61489475000002,67.0,69.0
249,184.61687887500003,185.09306887500003,67.0,89.0
250,185.09306887500003,185.33116387500002,64.0,84.0
251,185.33116387500002,186.997828875,67.0,76.0
252,186.997828875,187.23592387500003,64.0,92.0
253,187.23592387500003,190.80734887500003,69.0,64.0
254,190.80734887500003,191.04544387500002,74.0,92.0
255,191.04544387500002,191.28353887500003,76.0,102.0
256,191.28353887500003,191.52163387500002,79.0,102.0
257,191.52163387500002,191.75774475000003,76.0,92.0
258,191.759728875,191.99782387500002,76.0,92.0
259,191.99782387500002,192.23393475000003,74.0,87.0
260,192.235918875,192.712108875,74.0,89.0
261,192.712108875,192.95020387500003,76.0,80.0
262,192.95020387500003,193.66448887500002,74.0,84.0
263,193.66448887500002,194.61686887500002,76.0,92.0
264,194.61686887500002,195.09305887500003,74.0,84.0
265,195.09305887500003,195.331153875,79.0,71.0
266,195.331153875,195.56924887500003,74.0,64.0
267,195.56924887500003,197.950198875,76.0,82.0
268,197.950198875,198.42638887500001,67.0,92.0
269,198.42638887500001,198.90257887500002,69.0,97.0
270,198.90257887500002,199.14067387500003,71.0,89.0
271,199.14067387500003,199.37678475,69.0,71.0
272,199.37876887500002,199.61686387500004,69.0,87.0
273,199.61686387500004,199.85297475000002,67.0,76.0
274,199.85495887500002,200.093053875,67.0,78.0
275,200.093053875,200.569243875,64.0,89.0
276,200.569243875,202.23590887500004,62.0,89.0
277,202.23590887500004,202.47400387500002,64.0,84.0
278,202.47400387500002,203.42638387500003,67.0,76.0
279,213.188278875,213.664468875,74.0,97.0
280,213.664468875,214.140658875,76.0,97.0
281,214.140658875,214.37875387500003,79.0,100.0
282,214.37875387500003,214.61486475,76.0,97.0
283,214.61684887500002,214.85494387500003,76.0,87.0
284,214.85494387500003,215.09105475,74.0,97.0
285,215.09303887500002,215.56922887500002,74.0,84.0
286,215.56922887500002,215.80732387500004,76.0,80.0
287,215.80732387500004,216.75771975000004,74.0,73.0
288,216.759703875,216.99779887500003,74.0,73.0
289,216.99779887500003,217.71208387500002,76.0,94.0
290,217.71208387500002,218.18827387500002,69.0,67.0
291,218.18827387500002,218.66247975000002,71.0,89.0
292,218.66446387500002,220.80731887500002,71.0,84.0
293,220.80731887500002,221.28350887500002,67.0,78.0
294,221.28350887500002,221.75969887500003,69.0,92.0
295,221.75969887500003,221.997793875,71.0,89.0
296,221.997793875,222.23390475000002,69.0,80.0
297,222.23588887500003,222.47398387500002,69.0,82.0
298,222.47398387500002,222.71009475000002,67.0,69.0
299,222.71207887500003,223.18826887500003,67.0,89.0
300,223.18826887500003,223.42636387500002,64.0,84.0
301,223.42636387500002,225.09302887500002,67.0,76.0
302,225.09302887500002,225.33112387500003,64.0,92.0
303,225.33112387500003,228.90254887500004,69.0,64.0
304,228.90254887500004,229.14064387500002,74.0,92.0
305,229.14064387500002,229.378738875,76.0,102.0
306,229.378738875,229.61683387500003,79.0,102.0
307,229.61683387500003,229.85294475000003,76.0,92.0
308,229.854928875,230.09302387500003,76.0,92.0
309,230.09302387500003,230.32913475000004,74.0,87.0
310,230.33111887500002,230.80730887500002,74.0,89.0
311,230.80730887500002,231.04540387500003,76.0,80.0
312,231.04540387500003,231.75968887500002,74.0,84.0
313,231.75968887500002,232.71206887500003,76.0,92.0
314,232.71206887500003,233.18825887500003,74.0,84.0
315,233.18825887500003,233.42635387500002,79.0,71.0
316,233.42635387500002,233.66444887500003,74.0,64.0
317,233.66444887500003,236.04539887500002,76.0,82.0
318,236.04539887500002,236.52158887500002,67.0,92.0
319,236.52158887500002,236.99777887500002,69.0,97.0
320,236.99777887500002,237.23587387500004,71.0,89.0
321,237.23587387500004,237.47198475000002,69.0,71.0
322,237.47396887500003,237.712063875,69.0,87.0
323,237.712063875,237.94817475000002,67.0,76.0
324,237.95015887500003,238.18825387500002,67.0,78.0
325,238.18825387500002,238.66444387500002,64.0,89.0
326,238.66444387500002,240.331108875,62.0,89.0
327,240.331108875,240.56920387500003,64.0,84.0
328,240.56920387500003,241.75967887500002,67.0,76.0
329,248.89260825000002,249.11483025000004,69.0,73.0
330,249.11483025000004,249.40451250000004,71.0,76.0
331,249.40451250000004,249.92832150000004,74.0,82.0
332,249.93030562500002,250.17435300000002,74.0,71.0
333,250.17435300000002,250.42236862500002,71.0,78.0
334,250.42236862500002,250.77157462500003,69.0,60.0
335,250.77157462500003,251.12474887500002,71.0,78.0
336,251.12474887500002,252.30927150000002,74.0,82.0
337,252.30927150000002,252.54736650000004,69.0,89.0
338,252.54736650000004,252.78149325000004,71.0,80.0
339,252.78149325000004,253.01165175000003,69.0,82.0
340,253.01165175000003,253.27554037500002,71.0,71.0
341,253.27554037500002,253.75966687500002,69.0,69.0
342,253.75966687500002,254.01958725000003,64.0,66.0
343,254.01958725000003,254.49379312500002,69.0,78.0
344,254.49379312500002,256.38664837500005,67.0,58.0
345,256.38664837500005,256.60887037500004,74.0,71.0
346,256.60887037500004,256.8965685,76.0,57.0
347,256.8965685,257.15648887500004,79.0,76.0
348,257.15648887500004,257.88664687500005,76.0,80.0
349,257.88664687500005,258.164424375,74.0,73.0
350,258.164424375,258.63863025,76.0,69.0
351,258.63863025,259.57315312500003,79.0,78.0
352,259.57513725,260.065216125,79.0,78.0
353,260.065216125,260.3172,76.0,69.0
354,260.3172,260.57712037500005,79.0,87.0
355,260.57712037500005,260.94616762500004,76.0,76.0
356,260.94616762500004,261.45211950000004,71.0,85.0
357,261.45211950000004,261.727912875,76.0,73.0
358,261.727912875,267.92235112500003,74.0,82.0
359,267.92235112500003,268.283461875,71.0,87.0
360,268.26362062500004,268.787429625,69.0,87.0
361,268.787429625,271.16837962500006,67.0,69.0
362,271.16837962500006,271.783458375,76.0,92.0
363,271.783458375,272.2457595,71.0,82.0
364,272.204092875,272.43821962500004,76.0,76.0
365,272.43821962500004,276.1902,74.0,78.0
