,start,end,pitch,velocity
0,2.3234103750000004,2.4543626250000004,43.0,90.0
1,3.2142825000000004,3.4325362500000005,67.0,79.0
2,3.4067426250000006,3.5634885000000005,69.0,83.0
3,3.6210281250000005,3.9027738750000003,71.0,94.0
4,3.8611072500000003,4.142853000000001,74.0,89.0
5,4.101186375,4.285710000000001,79.0,83.0
6,4.3571385000000005,4.492059,81.0,80.0
7,5.029756875,5.349201000000001,86.0,86.0
8,2.777775,5.359121625,55.0,66.0
9,4.6587255,5.390867625,83.0,75.0
10,3.0158700000000005,5.40872475,62.0,81.0
11,6.914675625000001,7.458325875000001,91.0,61.0
12,6.813485250000001,7.4801512500000005,86.0,83.0
13,6.765866250000001,7.509913125000001,83.0,51.0
14,8.48808675,8.845229250000001,55.0,82.0
15,8.698404000000002,9.57538725,57.0,79.0
16,8.238087,9.878958375000002,50.0,61.0
17,8.005944375,10.09125975,43.0,56.0
18,9.37697475,10.4206245,55.0,63.0
19,8.984118,10.626973500000002,59.0,75.0
20,10.55157675,10.672608375000001,40.0,83.0
21,9.384911250000002,10.952370000000002,62.0,55.0
22,11.228163375000001,12.740066625,59.0,83.0
23,10.978163625,12.801574500000001,52.0,76.0
24,11.646813750000002,13.801573500000002,67.0,87.0
25,11.4364965,13.837287750000002,62.0,80.0
26,11.912686500000001,13.894827375000002,71.0,88.0
27,15.101175375000002,16.204348875,57.0,75.0
28,15.234111750000002,16.424586750000003,64.0,82.0
29,15.180540375000001,16.460301,60.0,80.0
30,16.113079125000002,17.105141625,52.0,69.0
31,15.107127750000002,17.24204625,45.0,71.0
32,16.40871375,17.32934775,57.0,84.0
33,16.863078375,17.361093750000002,64.0,85.0
34,16.642840500000002,17.371014375,60.0,81.0
35,17.095221000000002,17.478157125000003,67.0,40.0
36,18.196410375000003,18.317442000000003,38.0,78.0
37,18.136886625000002,19.553551875000004,62.0,74.0
38,19.359107625000004,19.66267875,54.0,49.0
39,18.17855325,19.777758000000002,66.0,78.0
40,19.454345625000002,19.793631,57.0,76.0
41,18.194426250000003,20.019821250000003,69.0,69.0
42,19.954345125000003,23.547595500000003,66.0,80.0
43,20.172598875000002,23.547595500000003,69.0,56.0
44,19.714266000000002,23.557516125000003,62.0,83.0
45,20.232122625000002,23.58330975,74.0,84.0
46,23.664658875000004,23.819420625000003,43.0,79.0
47,23.664658875000004,24.097198125000002,74.0,93.0
48,23.664658875000004,24.156721875000002,67.0,79.0
49,24.378943875,24.948387750000002,62.0,80.0
50,24.855133875000003,24.980133750000004,69.0,79.0
51,25.093228875,25.442434875000004,62.0,73.0
52,25.331323875000002,25.446403125000003,67.0,76.0
53,24.140848875000003,25.48806975,55.0,78.0
54,25.569418875000004,26.2618785,71.0,81.0
55,25.569418875000004,26.281719750000004,67.0,82.0
56,25.569418875000004,26.367037125000003,62.0,83.0
57,26.521798875,26.898782625000003,62.0,83.0
58,25.569418875000004,26.946401625000004,55.0,75.0
59,26.997988875000004,27.166639500000002,67.0,74.0
60,27.474178875000003,27.966241875,67.0,84.0
61,27.474178875000003,27.968226,64.0,84.0
62,27.950368875000002,28.291638375,59.0,65.0
63,28.188463875000004,28.549574625,64.0,83.0
64,28.426558875,28.668622125000002,59.0,70.0
65,28.664653875000003,28.906717125000004,67.0,87.0
66,29.140843875,29.240050125000003,62.0,61.0
67,28.902748875000004,30.420604500000003,59.0,78.0
68,27.474178875000003,30.488064750000003,52.0,90.0
69,29.378938875000003,30.51187425,62.0,85.0
70,29.378938875000003,30.624969375000003,67.0,79.0
71,31.283698875000002,31.400762250000003,36.0,77.0
72,31.283698875000002,31.835285625000004,64.0,89.0
73,31.283698875000002,31.904730000000004,60.0,80.0
74,32.236078875000004,32.541634125,62.0,85.0
75,31.997983875000003,32.652745125,55.0,82.0
76,32.474173875000005,33.07536375,67.0,93.0
77,32.71226887500001,33.095205,60.0,87.0
78,33.188458875,33.86107725,60.0,88.0
79,33.188458875,33.863061375,67.0,89.0
80,34.14083887500001,34.48012425,55.0,82.0
81,31.759888875000005,34.486076625,48.0,64.0
82,34.14083887500001,34.573378125000005,60.0,86.0
83,34.14083887500001,34.589251125000004,64.0,90.0
84,35.093218875000005,35.200361625000006,38.0,93.0
85,35.093218875000005,36.277741500000005,66.0,86.0
86,35.093218875000005,36.303535125,62.0,85.0
87,36.521788875000006,36.831312375,62.0,89.0
88,36.997978875,37.136867625,66.0,71.0
89,36.045598875,38.513850375000004,50.0,63.0
90,36.997978875,38.565437625,62.0,81.0
91,36.283693875000004,38.58131062500001,57.0,86.0
92,40.331308875000005,40.67257837500001,59.0,87.0
93,39.855118875,40.724165625000005,62.0,88.0
94,40.80749887500001,41.16265725,67.0,83.0
95,40.80749887500001,41.86106925000001,55.0,82.0
96,39.37892887500001,41.894799375000005,50.0,67.0
97,40.80749887500001,41.898767625000005,59.0,89.0
98,40.80749887500001,41.942418375,62.0,83.0
99,38.902738875000004,42.00194212500001,43.0,93.0
100,42.712258875,42.835274625000004,40.0,82.0
101,42.712258875,43.718210250000006,64.0,76.0
102,42.712258875,43.799559375,67.0,82.0
103,44.61701887500001,45.50987512500001,64.0,86.0
104,43.664638875,45.66463687500001,59.0,82.0
105,44.61701887500001,45.77376375000001,71.0,91.0
106,43.188448875000006,45.857097,52.0,79.0
107,46.521778875,47.188444875,57.0,78.0
108,46.521778875,47.47614300000001,60.0,82.0
109,47.47415887500001,48.023761500000006,55.0,86.0
110,47.950348875,48.160666125000006,60.0,80.0
111,48.426538875000006,48.76384012500001,60.0,85.0
112,48.426538875000006,48.78963375000001,64.0,91.0
113,46.997968875000005,49.722172500000006,52.0,75.0
114,49.378918875000004,49.747966125000005,60.0,86.0
115,46.521778875,49.799553375,45.0,90.0
116,49.378918875000004,49.81939462500001,67.0,86.0
117,50.33129887500001,50.49994950000001,38.0,84.0
118,50.33129887500001,51.490027875,67.0,83.0
119,50.33129887500001,51.65471025000001,62.0,82.0
120,51.759868875,53.3253435,57.0,84.0
121,51.28367887500001,53.442406875,50.0,79.0
122,52.236058875000005,53.59121625,62.0,89.0
123,52.236058875000005,53.74994625000001,69.0,88.0
124,54.14081887500001,54.39875512500001,43.0,81.0
125,54.14081887500001,55.249944750000004,62.0,84.0
126,54.14081887500001,55.60311900000001,71.0,87.0
127,55.56938887500001,55.9285155,62.0,104.0
128,56.045578875000004,56.65073700000001,62.0,91.0
129,56.045578875000004,57.067403250000005,71.0,93.0
130,55.093198875000006,57.30549825000001,59.0,95.0
131,54.617008875,57.343196625000004,50.0,79.0
132,56.99795887500001,57.484069500000004,67.0,88.0
133,56.99795887500001,57.54160912500001,62.0,85.0
134,57.474148875000004,57.93446587500001,66.0,87.0
135,57.95033887500001,58.099148250000006,40.0,84.0
136,57.95033887500001,58.85509987500001,67.0,85.0
137,57.95033887500001,58.894782375000005,64.0,81.0
138,59.37890887500001,59.537638875000006,64.0,81.0
139,59.855098875,60.113035125,71.0,93.0
140,59.855098875,60.12890812500001,64.0,89.0
141,58.902718875000005,61.103113500000006,59.0,81.0
142,58.42652887500001,61.20628800000001,52.0,83.0
143,61.759858875000006,62.416604250000006,60.0,86.0
144,61.759858875000006,62.49795337500001,57.0,84.0
145,62.23604887500001,62.960254500000005,52.0,74.0
146,62.712238875000004,63.03763537500001,64.0,93.0
147,62.712238875000004,63.378904875,57.0,90.0
148,63.66461887500001,64.124935875,57.0,89.0
149,63.66461887500001,64.30747537500001,69.0,86.0
150,63.18842887500001,64.7697765,52.0,77.0
151,61.759858875000006,64.79953837500001,45.0,93.0
152,64.61699887500001,64.8650145,57.0,90.0
153,64.61699887500001,64.86898275,64.0,94.0
154,65.56937887500001,66.54755250000001,66.0,80.0
155,65.56937887500001,66.63286987500001,62.0,83.0
156,66.521758875,67.09120275000001,69.0,84.0
157,67.47413887500001,67.70826562500001,74.0,94.0
158,67.47413887500001,67.745964,62.0,81.0
159,66.045568875,68.539614,57.0,63.0
160,65.56937887500001,69.269772,50.0,86.0
161,68.42651887500001,69.29159737500001,66.0,90.0
162,68.42651887500001,69.29556562500001,62.0,87.0
163,68.42651887500001,69.317391,69.0,91.0
164,68.902708875,69.378898875,57.0,83.0
165,69.378898875,70.34516775,59.0,80.0
166,69.378898875,70.36897725000001,62.0,87.0
167,69.855088875,70.47215175000001,54.0,71.0
168,70.33127887500001,70.51977075,71.0,95.0
169,71.28365887500001,72.02373750000001,78.0,86.0
170,71.28365887500001,72.10111837500001,71.0,93.0
171,70.80746887500001,72.35508637500001,54.0,68.0
172,69.378898875,72.52770525000001,47.0,85.0
173,72.236038875,73.190403,74.0,94.0
174,73.18841887500001,73.283656875,40.0,91.0
175,73.18841887500001,73.65468825,71.0,84.0
176,73.18841887500001,73.73603737500001,76.0,87.0
177,74.616988875,75.13881375000001,66.0,84.0
178,74.140798875,75.28365487500001,59.0,78.0
179,75.093178875,75.620956125,67.0,94.0
180,75.56936887500001,76.10111437500001,59.0,70.0
181,76.04555887500001,76.30349512500001,64.0,92.0
182,76.28365387500001,76.52174887500001,59.0,76.0
183,76.04555887500001,76.58325675,71.0,95.0
184,73.66460887500001,76.63087575,52.0,85.0
185,76.52174887500001,76.809447,64.0,80.0
186,76.52174887500001,76.90071675000002,69.0,81.0
187,76.997938875,77.17452600000001,45.0,90.0
188,76.997938875,77.3729385,64.0,87.0
189,76.997938875,77.64079537500001,69.0,89.0
190,78.42650887500001,78.55150875000001,69.0,81.0
191,78.42650887500001,78.71023875,71.0,79.0
192,78.66460387500001,78.96420675,72.0,88.0
193,78.18841387500001,79.17055575,64.0,83.0
194,78.90269887500001,79.91658675000001,76.0,94.0
195,79.37888887500002,79.968174,64.0,76.0
196,77.95031887500001,80.06738025000001,57.0,67.0
197,79.855078875,80.28364987500001,67.0,87.0
198,79.855078875,80.351110125,72.0,88.0
199,80.80745887500001,80.92452225000001,38.0,93.0
200,80.80745887500001,81.19833150000001,69.0,84.0
201,80.80745887500001,81.2935695,74.0,94.0
202,81.99793387500002,82.26975900000001,60.0,94.0
203,82.236028875,82.45229850000001,66.0,89.0
204,81.75983887500001,82.56539362500001,57.0,93.0
205,81.28364887500001,82.59912375,50.0,83.0
206,82.474123875,82.634838,62.0,82.0
207,82.712218875,83.13682162500001,62.0,87.0
208,82.712218875,83.16063112500001,66.0,84.0
209,82.712218875,83.23007550000001,69.0,89.0
210,83.42650387500001,83.56340850000001,62.0,77.0
211,83.18840887500001,83.78563050000001,57.0,77.0
212,82.712218875,84.12888412500001,50.0,97.0
213,83.66459887500001,84.57134400000001,62.0,92.0
214,83.66459887500001,84.57134400000001,66.0,93.0
215,83.66459887500001,84.593169375,69.0,94.0
216,83.66459887500001,84.59912175000001,74.0,94.0
217,84.61697887500002,84.795550125,43.0,93.0
218,84.61697887500002,85.347136875,74.0,94.0
219,84.61697887500002,85.35308925000001,67.0,86.0
220,85.331263875,85.886818875,62.0,93.0
221,85.80745387500001,86.04951712500001,67.0,93.0
222,86.04554887500001,86.156659875,62.0,78.0
223,85.80745387500001,86.16856462500002,74.0,95.0
224,85.093168875,86.17848525000001,55.0,84.0
225,86.28364387500001,86.394754875,67.0,85.0
226,86.52173887500001,86.99594475,67.0,85.0
227,86.52173887500001,87.33721425,74.0,93.0
228,87.23602387500001,87.386817375,67.0,77.0
229,87.47411887500002,87.71419800000001,67.0,94.0
230,87.47411887500002,87.962213625,43.0,92.0
231,87.47411887500002,87.98007075000001,71.0,94.0
232,87.950308875,88.07729287500001,67.0,85.0
233,88.42649887500001,88.53165750000001,40.0,94.0
234,88.42649887500001,88.997926875,64.0,92.0
235,88.42649887500001,89.04356175000001,67.0,89.0
236,89.61697387500001,89.94633862500001,66.0,93.0
237,89.14078387500001,90.39871912500001,59.0,85.0
238,90.09316387500002,90.57927450000001,67.0,94.0
239,90.331258875,90.62292525000001,64.0,94.0
240,90.807448875,90.98205187500001,64.0,99.0
241,90.569353875,91.14475012500002,59.0,89.0
242,91.045543875,91.53760687500001,64.0,95.0
243,91.28363887500001,91.58721000000001,59.0,82.0
244,91.045543875,91.61101950000001,67.0,89.0
245,91.045543875,91.644749625,71.0,98.0
246,88.90268887500001,91.65665437500002,52.0,88.0
247,92.23601887500001,92.78958975,57.0,76.0
248,92.23601887500001,92.81935162500001,64.0,89.0
249,92.23601887500001,92.86697062500001,60.0,86.0
250,92.950303875,93.52768425000001,57.0,94.0
251,93.426493875,93.80943,69.0,93.0
252,94.14077887500001,94.91458762500001,64.0,89.0
253,94.14077887500001,94.93244475000002,60.0,86.0
254,94.14077887500001,94.94633362500001,57.0,83.0
255,92.71220887500002,95.22212700000001,52.0,77.0
256,95.09315887500001,95.30744437500002,60.0,89.0
257,95.09315887500001,95.31141262500002,64.0,94.0
258,95.09315887500001,95.32926975000001,57.0,88.0
259,92.23601887500001,95.35109512500001,45.0,93.0
260,96.045538875,96.13085625000001,38.0,94.0
261,96.045538875,96.26379262500001,57.0,86.0
262,96.045538875,96.319348125,62.0,90.0
263,96.75982387500001,97.08720450000001,54.0,81.0
264,97.23601387500001,97.7379975,62.0,99.0
265,97.47410887500001,97.74990225,66.0,102.0
266,96.99791887500001,97.76379112500001,57.0,93.0
267,96.52172887500001,97.78561650000002,50.0,80.0
268,97.71220387500001,97.87688625000001,69.0,90.0
269,97.95029887500002,98.28164775,57.0,93.0
270,97.95029887500002,98.31339375000002,62.0,90.0
271,97.95029887500002,98.5157745,66.0,85.0
272,97.95029887500002,98.52569512500001,74.0,99.0
273,97.95029887500002,98.5475205,69.0,80.0
274,98.426488875,98.67847275000001,62.0,80.0
275,98.902678875,99.15466275000001,66.0,97.0
276,97.95029887500002,99.192361125,50.0,97.0
277,98.902678875,99.28958325,62.0,95.0
278,98.902678875,99.37093237500001,69.0,93.0
279,99.85505887500001,99.94434450000001,43.0,93.0
280,99.85505887500001,100.21815375000001,62.0,91.0
281,99.85505887500001,100.26577275000001,67.0,86.0
282,99.85505887500001,100.40466150000002,71.0,94.0
283,100.80743887500002,101.09315287500002,69.0,85.0
284,101.045533875,101.37291450000001,71.0,96.0
285,100.56934387500002,101.59712062500002,62.0,90.0
286,101.521723875,102.069342375,67.0,89.0
287,101.521723875,102.577278375,74.0,97.0
288,102.47410387500001,102.59910375000001,67.0,70.0
289,101.75981887500001,102.74791312500001,62.0,97.0
290,102.71219887500001,102.9919605,67.0,93.0
291,102.95029387500001,103.093150875,62.0,87.0
292,100.33124887500001,103.13481750000001,55.0,86.0
293,102.71219887500001,103.18640475000001,74.0,104.0
294,102.71219887500001,103.20029362500001,71.0,96.0
295,103.18838887500002,103.34116650000001,67.0,89.0
296,103.66457887500002,104.26576875,67.0,86.0
297,103.66457887500002,104.418546375,64.0,85.0
298,104.85505387500001,105.15862500000001,66.0,79.0
299,104.61695887500001,105.37886287500001,59.0,81.0
300,105.09314887500001,105.39672000000002,67.0,82.0
301,105.33124387500001,106.08917962500001,71.0,94.0
302,105.80743387500002,106.23798900000001,64.0,87.0
303,106.04552887500002,106.33521112500001,67.0,75.0
304,105.56933887500001,106.70029012500001,59.0,87.0
305,103.66457887500002,106.78163925000001,52.0,94.0
306,106.521718875,106.783623375,64.0,93.0
307,106.521718875,106.81140112500002,67.0,93.0
308,106.521718875,106.84711537500002,71.0,95.0
309,107.47409887500001,107.96417775,57.0,82.0
310,107.47409887500001,107.98005075000002,60.0,85.0
311,107.95028887500001,108.56139937500001,52.0,64.0
312,108.42647887500002,108.64274850000001,57.0,97.0
313,108.42647887500002,108.72012937500001,64.0,98.0
314,108.66457387500002,108.82330387500001,52.0,88.0
315,107.47409887500001,108.862986375,45.0,92.0
316,108.90266887500002,109.22409712500001,60.0,92.0
317,109.378858875,109.47409687500001,38.0,94.0
318,109.378858875,109.66258875000001,57.0,85.0
319,109.378858875,109.73600137500001,62.0,91.0
320,110.33123887500001,110.74988925000001,54.0,90.0
321,109.85504887500001,110.78163525000001,50.0,58.0
322,111.28361887500002,111.43639650000001,43.0,86.0
323,111.28361887500002,112.07330062500002,67.0,83.0
324,111.28361887500002,112.08917362500002,62.0,84.0
325,112.47409387500001,112.56337950000001,60.0,80.0
326,112.47409387500001,112.84115700000001,59.0,85.0
327,111.75980887500002,114.81734550000002,50.0,76.0
328,111.997903875,114.86893275000001,55.0,87.0
329,112.235998875,114.87686925000001,57.0,89.0
330,113.18837887500001,114.93440887500002,59.0,82.0
331,112.71218887500001,114.94829775000001,62.0,88.0
332,112.95028387500001,115.00186912500001,67.0,87.0
333,115.09313887500001,115.39274175000001,64.0,95.0
334,115.09313887500001,115.50186862500001,67.0,93.0
335,115.80742387500001,115.96416975000001,64.0,97.0
336,115.56932887500001,116.12091562500001,59.0,89.0
337,116.04551887500001,116.24591550000001,64.0,104.0
338,116.04551887500001,116.3094075,71.0,96.0
339,115.09313887500001,116.52369300000001,40.0,94.0
340,116.28361387500001,116.60901037500001,59.0,86.0
341,116.52170887500002,116.82329587500001,64.0,96.0
342,116.75980387500002,117.12686700000002,59.0,85.0
343,116.99789887500002,117.29750175000001,64.0,96.0
344,116.99789887500002,117.51377137500002,67.0,89.0
345,117.235993875,117.58123162500002,59.0,84.0
346,117.474088875,117.77766000000001,64.0,94.0
347,117.71218387500001,117.97210425000002,59.0,95.0
348,117.95027887500001,118.19234212500001,64.0,99.0
349,117.95027887500001,118.23996112500001,67.0,98.0
350,117.95027887500001,118.25186587500001,71.0,99.0
351,115.33123387500001,118.25781825000001,52.0,94.0
352,118.18837387500001,118.32527850000001,59.0,94.0
353,118.42646887500001,118.63678612500001,64.0,97.0
354,118.90265887500001,119.18638875,59.0,94.0
355,118.90265887500001,119.4363885,62.0,93.0
356,119.14075387500002,119.45821387500001,54.0,81.0
357,119.37884887500002,119.69432475,59.0,99.0
358,119.61694387500002,119.95424512500001,54.0,85.0
359,119.85503887500002,120.08122912500001,59.0,109.0
360,119.85503887500002,120.38678437500002,66.0,99.0
361,118.90265887500001,120.71019675000001,47.0,94.0
362,120.33122887500001,120.74194275,59.0,99.0
363,120.093133875,120.79749825000002,54.0,92.0
364,120.80741887500001,121.04948212500001,59.0,94.0
365,121.04551387500001,121.40067225000001,54.0,81.0
366,120.80741887500001,121.410592875,66.0,96.0
367,121.28360887500001,121.61297362500001,59.0,104.0
368,121.52170387500001,121.79551312500001,54.0,94.0
369,121.75979887500002,122.02963987500002,59.0,96.0
370,121.99789387500002,122.14273500000002,54.0,94.0
371,120.80741887500001,122.18638575000001,47.0,94.0
372,121.75979887500002,122.25781425000001,62.0,95.0
373,121.75979887500002,122.36694112500001,66.0,100.0
374,122.47408387500002,122.56932187500001,62.0,64.0
375,122.23598887500002,122.57329012500001,59.0,100.0
376,122.712178875,122.98400400000001,57.0,93.0
377,122.712178875,123.22011487500001,60.0,94.0
378,123.18836887500001,123.51178125000001,57.0,92.0
379,123.42646387500001,123.54749550000001,60.0,86.0
380,122.95027387500001,123.69630487500001,52.0,87.0
381,123.66455887500001,123.92844750000002,57.0,94.0
382,123.66455887500001,123.98400300000002,64.0,99.0
383,123.66455887500001,124.03162200000001,60.0,97.0
384,124.14074887500001,124.21019325000002,60.0,70.0
385,124.14074887500001,124.52963737500001,57.0,94.0
386,124.37884387500002,124.53162150000001,60.0,95.0
387,122.712178875,124.537573875,45.0,93.0
388,123.90265387500001,124.54749450000001,52.0,93.0
389,124.61693887500002,124.87884337500002,59.0,95.0
390,124.61693887500002,124.94828775000002,62.0,97.0
391,124.85503387500002,125.18439862500001,54.0,95.0
392,125.09312887500002,125.45423962500001,59.0,109.0
393,125.331223875,125.59908075000001,54.0,96.0
394,125.56931887500001,125.82527100000001,59.0,99.0
395,124.61693887500002,125.84908050000001,47.0,95.0
396,125.56931887500001,125.851064625,66.0,102.0
397,125.80741387500001,125.94828675000001,54.0,97.0
398,126.04550887500001,126.15066750000001,59.0,97.0
399,126.04550887500001,126.30542925000002,62.0,99.0
400,126.28360387500001,126.39868312500002,59.0,94.0
401,126.52169887500001,126.81733350000002,60.0,95.0
402,126.52169887500001,126.84709537500001,64.0,97.0
403,126.75979387500001,127.06931737500001,55.0,83.0
404,126.99788887500002,127.27765050000001,60.0,97.0
405,127.23598387500002,127.51376137500002,55.0,95.0
406,127.47407887500002,127.72209450000001,60.0,96.0
407,127.47407887500002,127.74590400000001,64.0,98.0
408,127.47407887500002,127.77765000000001,67.0,94.0
409,126.52169887500001,127.80542775,48.0,95.0
410,127.71217387500002,127.84511025000002,55.0,97.0
411,127.95026887500002,128.24987175,60.0,97.0
412,128.18836387500002,128.378839875,64.0,93.0
413,128.426458875,128.732014125,66.0,94.0
414,128.426458875,128.79352200000002,62.0,90.0
415,128.426458875,129.23598187500002,38.0,97.0
416,129.14074387500003,129.28360087500002,62.0,98.0
417,128.902648875,129.394711875,57.0,93.0
418,128.66455387500002,129.63082275000002,50.0,89.0
419,129.378838875,129.652648125,62.0,95.0
420,129.378838875,129.68836237500003,66.0,99.0
421,129.378838875,129.69629887500002,74.0,97.0
422,129.616933875,129.747886125,57.0,96.0
423,129.85502887500002,129.997885875,62.0,100.0
424,130.33121887500002,130.418520375,40.0,97.0
425,130.33121887500002,130.83915487500002,64.0,96.0
426,130.33121887500002,130.890742125,67.0,91.0
427,131.045503875,131.16058312500002,64.0,99.0
428,130.80740887500002,131.351059125,59.0,89.0
429,131.28359887500002,131.54947162500002,64.0,104.0
430,131.28359887500002,131.682408,71.0,98.0
431,131.997883875,132.17645512500002,67.0,84.0
432,132.235978875,132.28359787500003,67.0,79.0
433,131.75978887500003,132.521692875,64.0,97.0
434,132.235978875,132.76375612500001,76.0,107.0
435,132.47407387500002,132.793518,71.0,93.0
436,131.521693875,132.99788287500002,59.0,89.0
437,132.712168875,132.99788287500002,67.0,94.0
438,132.95026387500002,133.116930375,64.0,102.0
439,133.188358875,133.380819,64.0,96.0
440,133.188358875,133.49193000000002,67.0,97.0
441,133.188358875,133.49589825,71.0,98.0
442,130.569313875,133.525660125,52.0,95.0
443,133.188358875,133.62883462500002,59.0,98.0
444,133.664548875,133.76573925000002,64.0,102.0
445,133.664548875,133.88478675000002,67.0,99.0
446,133.90264387500002,133.97605650000003,64.0,97.0
447,134.140738875,134.438357625,59.0,82.0
448,134.140738875,134.48399250000003,62.0,88.0
449,134.37883387500003,134.672484375,54.0,84.0
450,134.616928875,134.9284365,59.0,107.0
451,134.855023875,135.164547375,54.0,91.0
452,135.09311887500002,135.299467875,62.0,94.0
453,135.09311887500002,135.3252615,59.0,100.0
454,135.09311887500002,135.32724562500002,66.0,102.0
455,135.331213875,135.71613412500002,54.0,93.0
456,135.56930887500002,135.92645137500003,59.0,100.0
457,135.807403875,135.954229125,62.0,95.0
458,136.04549887500002,136.32922875000003,59.0,89.0
459,136.04549887500002,136.55145075000001,71.0,96.0
460,136.04549887500002,136.56930787500002,62.0,94.0
461,136.04549887500002,136.58319675,66.0,87.0
462,136.52168887500002,136.872879,59.0,91.0
463,136.759783875,136.8808155,62.0,90.0
464,136.283593875,137.063355,54.0,87.0
465,136.99787887500003,137.25581512500003,59.0,99.0
466,134.140738875,137.31335475,47.0,94.0
467,136.99787887500003,137.31930712500002,66.0,95.0
468,137.235973875,137.39073562500002,54.0,94.0
469,137.47406887500003,137.74192575,62.0,95.0
470,137.71216387500002,137.831211375,59.0,96.0
471,137.950258875,138.22009987500002,57.0,94.0
472,137.950258875,138.28160775,60.0,94.0
473,138.426448875,138.73795650000002,57.0,100.0
474,137.950258875,138.755813625,45.0,88.0
475,138.18835387500002,138.80144850000002,52.0,84.0
476,138.66454387500002,138.81732150000002,60.0,93.0
477,138.902638875,139.23398775,59.0,94.0
478,138.902638875,139.43041612500002,62.0,94.0
479,139.14073387500002,139.50978112500002,54.0,79.0
480,139.378828875,139.652638125,59.0,98.0
481,138.902638875,139.68835237500002,47.0,96.0
482,139.61692387500003,139.73795550000003,62.0,93.0
483,139.855018875,140.168510625,60.0,90.0
484,139.855018875,140.206209,64.0,102.0
485,140.33120887500002,140.61295462500001,60.0,90.0
486,139.855018875,140.6585895,48.0,97.0
487,140.09311387500003,140.682399,55.0,88.0
488,140.569303875,140.74192275000001,64.0,90.0
489,140.80739887500002,141.06533512500002,62.0,89.0
490,140.80739887500002,141.160573125,66.0,99.0
491,141.045493875,141.26771587500002,57.0,82.0
492,140.80739887500002,141.32525550000003,50.0,98.0
493,141.28358887500002,141.44033475,62.0,94.0
494,141.75977887500002,141.88081050000002,40.0,96.0
495,141.75977887500002,142.505809875,64.0,98.0
496,142.474063875,142.989936375,59.0,102.0
497,142.71215887500003,143.17644412500002,64.0,102.0
498,142.95025387500002,143.22009487500003,76.0,102.0
499,143.188348875,143.37088837500002,59.0,83.0
500,142.23596887500003,143.44826925,52.0,79.0
501,143.42644387500002,143.52763425,64.0,86.0
502,143.664538875,145.422473625,64.0,92.0
503,143.664538875,145.43239425000002,76.0,94.0
504,143.664538875,145.54548937500002,59.0,89.0
505,143.664538875,145.57921950000002,52.0,95.0
506,145.56929887500002,145.9125525,67.0,86.0
507,145.56929887500002,145.98398100000003,74.0,88.0
508,146.04548887500002,146.76175800000001,50.0,76.0
509,146.52167887500002,146.856996,71.0,93.0
510,146.52167887500002,146.870884875,62.0,86.0
511,145.56929887500002,147.3887415,43.0,92.0
512,146.99786887500002,147.53953500000003,50.0,65.0
513,147.47405887500003,147.759772875,62.0,85.0
514,147.47405887500003,147.98199487500003,67.0,82.0
515,147.47405887500003,148.081201125,74.0,90.0
516,147.95024887500003,148.128820125,62.0,80.0
517,148.426438875,148.61691487500002,67.0,94.0
518,148.426438875,148.66254975,71.0,94.0
519,148.426438875,148.676438625,62.0,94.0
520,147.95024887500003,148.735962375,50.0,66.0
521,147.47405887500003,148.886755875,43.0,71.0
522,148.902628875,149.13278737500002,66.0,91.0
523,149.378818875,149.61691387500002,40.0,94.0
524,149.378818875,150.02762775000002,67.0,90.0
525,149.378818875,150.047469,64.0,89.0
526,150.331198875,150.77564287500002,67.0,93.0
527,150.331198875,150.79151587500002,64.0,95.0
528,150.331198875,150.84508725,71.0,95.0
529,150.80738887500002,151.57722937500003,59.0,67.0
530,151.28357887500002,152.047467,64.0,89.0
531,151.28357887500002,152.05937175000003,67.0,86.0
532,151.28357887500002,152.06334,71.0,92.0
533,151.75976887500002,152.40460950000002,59.0,70.0
534,152.23595887500002,152.46016500000002,64.0,95.0
535,152.23595887500002,152.47802212500002,71.0,95.0
536,152.23595887500002,152.48595862500002,67.0,93.0
537,149.855008875,152.521672875,52.0,93.0
538,153.18833887500003,153.843100125,60.0,85.0
539,153.18833887500003,153.91651275,57.0,86.0
540,153.66452887500003,154.27365525000002,52.0,74.0
541,154.140718875,154.39270275,64.0,97.0
542,154.140718875,154.43436937500002,60.0,94.0
543,154.140718875,154.45222650000002,57.0,94.0
544,154.616908875,155.374844625,52.0,71.0
545,155.093098875,155.66254275000003,64.0,94.0
546,155.093098875,155.680399875,60.0,90.0
547,155.569288875,156.196272375,52.0,64.0
548,156.04547887500001,156.259764375,57.0,89.0
549,156.04547887500001,156.269685,60.0,94.0
550,156.04547887500001,156.28357387500003,64.0,99.0
551,153.18833887500003,156.327224625,45.0,92.0
552,156.04547887500001,156.390716625,69.0,92.0
553,156.52166887500002,156.71809725000003,45.0,93.0
554,156.99785887500002,157.116906375,38.0,93.0
555,156.99785887500002,157.66650900000002,66.0,86.0
556,156.99785887500002,157.67642962500003,62.0,87.0
557,157.95023887500003,158.15460375,62.0,95.0
558,157.95023887500003,158.17841325,74.0,99.0
559,158.42642887500003,158.78158725000003,69.0,86.0
560,158.188333875,158.78753962500002,57.0,71.0
561,157.47404887500002,158.81134912500002,50.0,90.0
562,158.66452387500001,158.84309512500002,62.0,89.0
563,158.90261887500003,159.347062875,62.0,85.0
564,158.90261887500003,159.35301525000003,66.0,86.0
565,159.61690387500002,159.73793550000002,62.0,81.0
566,159.378808875,159.89864962500002,57.0,63.0
567,159.854998875,160.10301450000003,66.0,104.0
568,159.854998875,160.12285575,62.0,99.0
569,158.90261887500003,160.168490625,50.0,93.0
570,160.09309387500002,160.323252375,57.0,81.0
571,160.331188875,160.4363475,50.0,92.0
572,160.807378875,161.40063225000003,59.0,89.0
573,160.807378875,161.4204735,62.0,91.0
574,161.28356887500001,161.989917375,54.0,84.0
575,160.807378875,162.110949,47.0,94.0
576,161.75975887500002,162.26174250000003,59.0,95.0
577,161.75975887500002,162.28555200000002,62.0,97.0
578,161.75975887500002,162.38277412500003,66.0,98.0
579,162.71213887500002,163.12483687500003,66.0,87.0
580,162.71213887500002,163.22602725000002,59.0,93.0
581,162.71213887500002,163.402614375,62.0,90.0
582,163.18832887500002,163.80539175,54.0,62.0
583,162.23594887500002,163.92245512500003,47.0,88.0
584,163.66451887500003,163.92245512500003,59.0,94.0
585,163.66451887500003,163.934359875,66.0,93.0
586,163.66451887500003,163.93634400000002,62.0,95.0
587,163.66451887500003,164.09705812500002,71.0,94.0
588,164.14070887500003,164.30737537500002,47.0,93.0
589,164.616898875,164.763724125,40.0,94.0
590,164.616898875,165.255787125,67.0,92.0
591,164.616898875,165.28554900000003,64.0,94.0
592,165.569278875,165.78158025000002,64.0,99.0
593,165.569278875,166.19031,67.0,95.0
594,166.045468875,166.430389125,64.0,93.0
595,166.521658875,166.82126175000002,64.0,100.0
596,166.99784887500002,167.17443600000001,64.0,95.0
597,166.521658875,167.190309,67.0,95.0
598,165.093088875,167.333166,52.0,87.0
599,167.47403887500002,167.88673687500003,66.0,93.0
600,167.47403887500002,167.92641937500002,62.0,93.0
601,167.47403887500002,167.98395900000003,50.0,94.0
602,168.42641887500002,168.9284025,57.0,90.0
603,168.42641887500002,168.970069125,60.0,86.0
604,168.90260887500003,169.51371937500002,52.0,80.0
605,169.37879887500003,169.58713200000003,64.0,98.0
606,169.37879887500003,169.66252875,60.0,97.0
607,169.37879887500003,169.72602075000003,57.0,95.0
608,168.42641887500002,170.10895687500002,45.0,92.0
609,169.85498887500003,170.20617900000002,52.0,75.0
610,170.331178875,170.628797625,57.0,82.0
611,170.331178875,170.783559375,64.0,91.0
612,170.331178875,170.79348000000002,60.0,88.0
613,170.331178875,170.807368875,69.0,86.0
614,170.807368875,171.378796875,52.0,58.0
615,171.283558875,171.4522095,57.0,98.0
616,171.283558875,171.460146,60.0,104.0
617,171.283558875,171.47403487500003,64.0,104.0
618,170.331178875,171.51966975000002,45.0,93.0
619,171.283558875,171.56133637500002,69.0,95.0
620,171.759748875,171.92244712500002,45.0,94.0
621,172.23593887500002,172.33712925000003,38.0,97.0
622,172.23593887500002,172.434351375,60.0,84.0
623,172.23593887500002,173.21212837500002,62.0,80.0
624,172.23593887500002,173.29149337500002,66.0,82.0
625,172.23593887500002,173.48593762500002,69.0,91.0
626,173.426413875,173.76966750000003,60.0,104.0
627,173.18831887500002,173.92442925000003,57.0,97.0
628,172.71212887500002,173.95419112500002,50.0,93.0
629,173.66450887500002,173.98593712500002,66.0,102.0
630,173.902603875,174.03752437500003,69.0,85.0
631,174.14069887500003,174.279587625,66.0,104.0
632,174.14069887500003,174.29347650000003,57.0,98.0
633,174.14069887500003,174.29546062500003,69.0,98.0
634,174.14069887500003,174.29744475,50.0,100.0
635,174.14069887500003,174.30339712500003,62.0,94.0
636,174.14069887500003,174.32323837500002,74.0,95.0
637,174.378793875,174.537523875,66.0,102.0
638,174.378793875,174.5474445,69.0,95.0
639,174.378793875,174.55339687500003,57.0,96.0
640,174.378793875,174.555381,62.0,95.0
641,174.378793875,174.57323812500002,50.0,95.0
642,174.378793875,174.57323812500002,74.0,97.0
643,175.09307887500003,175.45418962500003,57.0,96.0
644,175.09307887500003,175.47204675000003,50.0,102.0
645,175.09307887500003,175.700221125,66.0,95.0
646,175.09307887500003,175.739903625,74.0,99.0
647,175.09307887500003,175.942284375,62.0,94.0
648,175.09307887500003,175.96410975,69.0,95.0
649,176.045458875,176.13672862500002,43.0,94.0
650,176.045458875,176.43434737500002,62.0,91.0
651,176.045458875,176.86093425,71.0,94.0
652,176.75974387500003,177.05141025000003,62.0,100.0
653,176.521648875,177.08910862500002,59.0,93.0
654,176.997838875,177.27363225000002,67.0,107.0
655,177.23593387500003,177.40855275,62.0,94.0
656,176.28355387500002,177.51172725,50.0,86.0
657,177.47402887500002,177.57918750000002,67.0,93.0
658,177.71212387500003,177.87085387500002,62.0,86.0
659,177.95021887500002,178.21212337500003,62.0,94.0
660,177.95021887500002,178.672440375,71.0,94.0
661,178.42640887500002,178.67839275000003,62.0,89.0
662,177.95021887500002,178.88474175000002,50.0,78.0
663,177.95021887500002,178.91648775000002,55.0,88.0
664,177.95021887500002,179.116884375,59.0,90.0
665,178.90259887500002,179.13077325000003,69.0,100.0
666,178.90259887500002,179.16847162500002,62.0,99.0
667,179.140693875,179.237916,55.0,89.0
668,179.37878887500003,179.55339187500002,62.0,96.0
669,179.37878887500003,179.63672512500003,67.0,95.0
670,179.85497887500003,179.94029625000002,40.0,92.0
671,179.85497887500003,180.3252165,64.0,93.0
672,179.85497887500003,180.33712125000002,67.0,94.0
673,180.33116887500003,180.70616850000002,52.0,88.0
674,180.807358875,181.065295125,64.0,94.0
675,180.807358875,181.10696175,67.0,93.0
676,180.807358875,181.19227912500003,71.0,95.0
677,180.807358875,181.19823150000002,59.0,88.0
678,180.807358875,181.22204100000002,52.0,97.0
679,181.283548875,181.70616750000002,64.0,98.0
680,181.759738875,181.839103875,40.0,95.0
681,181.759738875,181.85299275000003,64.0,76.0
682,181.759738875,182.25577012500003,76.0,94.0
683,181.759738875,182.26370662500003,67.0,94.0
684,181.759738875,182.29346850000002,71.0,98.0
685,182.235928875,182.3887065,64.0,82.0
686,182.71211887500002,182.95815037500003,62.0,99.0
687,182.235928875,182.98989637500003,52.0,91.0
688,182.95021387500003,183.02957887500003,59.0,93.0
689,182.71211887500002,183.031563,67.0,100.0
690,183.18830887500002,183.30338812500003,62.0,93.0
691,183.66449887500002,184.09108575000002,60.0,89.0
692,183.66449887500002,184.160530125,57.0,86.0
693,184.14068887500002,184.668466125,52.0,79.0
694,183.66449887500002,184.73592637500002,45.0,94.0
695,184.61687887500003,185.02957687500003,60.0,102.0
696,184.61687887500003,185.07521175000002,57.0,95.0
697,184.61687887500003,185.07918,64.0,107.0
698,185.09306887500003,185.539497,52.0,83.0
699,185.56925887500003,185.763703125,71.0,94.0
700,185.56925887500003,186.1188615,60.0,89.0
701,185.56925887500003,186.14862337500003,69.0,83.0
702,185.56925887500003,186.15457575000002,64.0,98.0
703,185.56925887500003,186.38473425,57.0,89.0
704,186.04544887500003,186.62084512500002,52.0,90.0
705,185.56925887500003,186.716083125,45.0,88.0
706,186.521638875,186.997828875,57.0,99.0
707,186.521638875,187.04941612500002,60.0,107.0
708,186.521638875,187.06727325000003,64.0,107.0
709,186.521638875,187.0712415,69.0,98.0
710,186.997828875,187.15655887500003,45.0,94.0
711,187.474018875,187.55735212500002,38.0,99.0
712,187.474018875,187.77759000000003,57.0,89.0
713,187.474018875,187.83711375000001,62.0,90.0
714,188.42639887500002,189.124810875,57.0,100.0
715,187.95020887500002,189.14465212500002,50.0,91.0
716,188.90258887500002,189.19623937500003,66.0,98.0
717,188.66449387500003,189.23989012500002,62.0,100.0
718,189.140683875,189.27362025000002,69.0,89.0
719,189.37877887500002,189.745842,62.0,89.0
720,189.37877887500002,189.76369912500002,50.0,99.0
721,189.37877887500002,189.76568325000002,57.0,94.0
722,189.37877887500002,189.89663550000003,74.0,98.0
723,189.37877887500002,189.93631800000003,66.0,89.0
724,189.37877887500002,189.96211162500003,69.0,94.0
725,189.85496887500003,190.17441300000002,62.0,96.0
726,190.33115887500003,190.54544437500002,62.0,97.0
727,190.33115887500003,190.57322212500003,38.0,95.0
728,190.33115887500003,190.648618875,66.0,102.0
729,190.33115887500003,190.76568225000003,74.0,98.0
730,190.33115887500003,190.80338062500002,69.0,99.0
731,190.80734887500003,190.92441225000002,62.0,104.0
732,191.28353887500003,191.71012575000003,62.0,93.0
733,191.28353887500003,191.73195112500002,59.0,86.0
734,191.28353887500003,191.8331415,55.0,92.0
735,191.759728875,192.38671237500003,50.0,84.0
736,191.28353887500003,192.53949000000003,43.0,95.0
737,192.235918875,192.62083912500003,59.0,104.0
738,192.235918875,192.62282325,55.0,99.0
739,192.235918875,192.66250575,62.0,98.0
740,192.235918875,192.66448987500002,67.0,95.0
741,192.95020387500003,193.03552125000002,62.0,66.0
742,192.95020387500003,193.10893387500002,55.0,88.0
743,193.18829887500002,193.32917175000003,43.0,94.0
744,193.18829887500002,193.48393350000003,55.0,93.0
745,193.18829887500002,193.73393325,59.0,92.0
746,193.18829887500002,193.97996475000002,62.0,94.0
747,193.66448887500002,193.98591712500001,55.0,84.0
748,194.14067887500002,194.38075800000001,55.0,98.0
749,194.14067887500002,194.63075775000001,67.0,95.0
750,194.14067887500002,194.66845612500003,62.0,99.0
751,194.14067887500002,194.67639262500003,59.0,100.0
752,194.61686887500002,194.72797987500002,55.0,93.0
753,195.09305887500003,195.18036037500002,40.0,95.0
754,195.09305887500003,195.331153875,52.0,88.0
755,195.09305887500003,195.36091575000003,55.0,93.0
756,196.04543887500003,196.53750187500003,62.0,100.0
757,196.04543887500003,196.58512087500003,67.0,96.0
758,195.56924887500003,196.81924762500003,52.0,90.0
759,196.52162887500003,196.84504125,59.0,88.0
760,196.997818875,197.27162812500003,71.0,94.0
761,196.997818875,197.28154875,67.0,93.0
762,196.997818875,197.28948525,64.0,94.0
763,197.474008875,197.81329425,64.0,88.0
764,196.997818875,197.97797662500003,59.0,95.0
765,197.950198875,198.200198625,71.0,102.0
766,197.950198875,198.20218275000002,64.0,98.0
767,197.950198875,198.21210337500003,67.0,98.0
768,196.997818875,198.23392875000002,52.0,99.0
769,197.950198875,198.24980175000002,76.0,95.0
770,198.18829387500003,198.271627125,59.0,95.0
771,198.42638887500001,198.521626875,64.0,110.0
772,198.90257887500002,199.43432437500002,60.0,91.0
773,198.90257887500002,199.63868925000003,57.0,89.0
774,199.37876887500002,199.98591112500003,52.0,79.0
775,199.85495887500002,200.1823395,64.0,99.0
776,199.85495887500002,200.18829187500003,60.0,99.0
777,199.85495887500002,200.190276,57.0,94.0
778,198.90257887500002,200.47599000000002,45.0,94.0
779,200.33114887500003,200.608926375,52.0,71.0
780,200.80733887500003,200.89662450000003,38.0,90.0
781,200.80733887500003,201.64265550000002,66.0,83.0
782,200.80733887500003,201.65059200000002,62.0,86.0
783,200.80733887500003,201.65059200000002,74.0,94.0
784,200.80733887500003,201.66249675000003,69.0,88.0
785,201.75971887500003,202.76368612500002,57.0,95.0
786,201.75971887500003,202.76368612500002,66.0,93.0
787,201.75971887500003,202.76765437500003,62.0,94.0
788,201.75971887500003,202.77559087500003,69.0,92.0
789,201.75971887500003,202.77955912500002,74.0,95.0
790,201.28352887500003,202.79543212500002,50.0,92.0
791,202.95019387500002,203.58709800000003,57.0,95.0
792,202.95019387500002,203.61090750000002,62.0,95.0
793,202.95019387500002,203.63670112500003,66.0,95.0
794,202.95019387500002,203.64860587500002,47.0,99.0
795,203.66447887500001,204.60098587500002,57.0,95.0
796,203.66447887500001,204.61487475,61.0,94.0
797,203.66447887500001,204.62082712500003,64.0,95.0
798,203.66447887500001,204.64265250000003,45.0,96.0
799,204.61685887500002,204.93233475000002,59.0,94.0
800,204.61685887500002,204.97796962500001,63.0,97.0
801,204.61685887500002,205.073207625,66.0,94.0
802,204.85495387500004,205.11685837500002,54.0,85.0
803,204.61685887500002,205.12281075,47.0,97.0
804,205.09304887500002,205.20415987500002,59.0,96.0
805,205.331143875,205.62479437500002,59.0,100.0
806,205.331143875,205.84503225000003,64.0,102.0
807,205.807333875,205.90852425000003,59.0,93.0
808,206.04542887500003,206.19820650000003,59.0,100.0
809,206.28352387500001,206.4997935,59.0,90.0
810,206.04542887500003,206.50971412500002,64.0,102.0
811,206.04542887500003,206.51963475000002,67.0,97.0
812,205.331143875,206.557333125,52.0,104.0
813,206.52161887500003,207.03352312500002,69.0,91.0
814,206.52161887500003,207.04939612500002,74.0,99.0
815,206.99780887500003,207.35098312500003,52.0,78.0
816,207.23590387500002,207.571221,69.0,96.0
817,207.23590387500002,207.57320512500002,74.0,102.0
818,207.47399887500004,207.66447487500002,52.0,91.0
819,206.52161887500003,207.71010975000002,45.0,94.0
820,207.71209387500002,207.95415712500002,69.0,99.0
821,207.71209387500002,207.98987137500004,74.0,107.0
822,208.426378875,208.83114037500002,64.0,97.0
823,208.426378875,208.90455300000002,73.0,95.0
824,208.426378875,208.92241012500003,69.0,94.0
825,209.14066387500003,209.22796537500003,64.0,95.0
826,208.90256887500001,209.41645725000004,52.0,93.0
827,209.37875887500002,209.62082212500002,73.0,109.0
828,209.37875887500002,209.66844112500002,64.0,110.0
829,209.61685387500003,209.88074250000003,52.0,97.0
830,209.85494887500002,209.966059875,64.0,100.0
831,208.426378875,210.06526612500002,45.0,99.0
832,209.85494887500002,210.1664565,69.0,98.0
833,210.09304387500003,210.319234125,64.0,102.0
834,210.30931350000003,210.42637687500002,48.0,104.0
835,210.31328175000002,210.44621812500003,72.0,94.0
836,210.31526587500002,210.44820225,84.0,93.0
837,210.650583,210.79344000000003,70.0,92.0
838,210.64859887500003,210.79740825000002,82.0,92.0
839,210.65653537500003,210.80732887500002,46.0,104.0
840,210.95217000000002,211.1664555,45.0,96.0
841,210.96209062500003,211.16843962500002,81.0,95.0
842,210.96605887500002,211.19621737500003,69.0,93.0
843,211.28947125000002,211.50375675000004,79.0,93.0
844,211.29939187500003,211.51169325000004,67.0,98.0
845,211.28351887500003,211.51566150000002,43.0,114.0
846,211.616851875,211.77756600000004,65.0,99.0
847,211.608915375,211.77756600000004,77.0,89.0
848,211.60494712500002,211.79740725000002,41.0,100.0
849,211.92042300000003,212.03947050000002,63.0,94.0
850,211.93034362500003,212.04939112500003,75.0,79.0
851,211.90455000000003,212.08708950000002,39.0,97.0
852,212.21804175000003,212.51367637500002,38.0,109.0
853,212.22796237500003,212.51367637500002,74.0,102.0
854,212.23391475000003,212.54145412500003,62.0,99.0
855,213.188278875,213.34700887500003,66.0,99.0
856,213.188278875,213.34899300000004,62.0,94.0
857,213.188278875,213.358913625,69.0,95.0
858,213.188278875,213.366850125,38.0,102.0
859,213.188278875,213.37677075000002,74.0,89.0
860,213.42637387500002,214.25772225000003,62.0,95.0
861,213.42637387500002,214.25970637500004,66.0,95.0
862,213.42637387500002,214.26565875000003,69.0,94.0
863,213.42637387500002,214.27161112500002,74.0,99.0
864,213.42637387500002,214.31327775000003,38.0,104.0
865,214.140658875,214.44224587500003,67.0,82.0
866,214.140658875,214.46803950000003,71.0,92.0
867,214.37875387500003,214.64065837500002,62.0,86.0
868,214.61684887500002,214.83510262500002,67.0,82.0
869,214.85494387500003,214.91645175000002,62.0,74.0
870,215.09303887500002,215.204149875,62.0,88.0
871,215.09303887500002,215.38470525000002,67.0,87.0
872,215.09303887500002,215.38470525000002,71.0,91.0
873,215.33113387500003,215.39661,62.0,64.0
874,215.09303887500002,215.43430837500003,50.0,82.0
875,214.140658875,215.53549875000002,43.0,92.0
876,215.56922887500002,215.71010175000004,67.0,84.0
877,215.80732387500004,215.96208562500001,62.0,83.0
878,216.04541887500002,216.10295850000003,62.0,81.0
879,216.04541887500002,216.33510112500002,67.0,88.0
880,216.04541887500002,216.35097412500002,71.0,93.0
881,216.283513875,216.45018037500003,62.0,83.0
882,216.52160887500003,216.78946575000003,67.0,82.0
883,216.04541887500002,216.847005375,43.0,93.0
884,216.759703875,216.86089425000003,62.0,81.0
885,216.99779887500003,217.11287812500004,62.0,90.0
886,216.99779887500003,217.20613200000003,67.0,89.0
887,216.99779887500003,217.283512875,71.0,90.0
888,216.99779887500003,217.29343350000002,50.0,89.0
889,217.23589387500002,217.35890962500002,62.0,84.0
890,216.99779887500003,217.38470325000003,43.0,89.0
891,217.47398887500003,217.76962350000002,67.0,87.0
892,217.71208387500002,217.79144887500001,62.0,79.0
893,217.95017887500003,218.16248025000002,40.0,94.0
894,217.95017887500003,218.22398812500003,67.0,84.0
895,217.95017887500003,218.24581350000003,71.0,89.0
896,218.18827387500002,218.378749875,64.0,82.0
897,218.42636887500004,218.56724175000002,67.0,79.0
898,218.902558875,218.98787625000003,64.0,91.0
899,218.902558875,219.13271737500003,67.0,87.0
900,218.902558875,219.15057450000003,52.0,95.0
901,218.902558875,219.17041575000002,71.0,89.0
902,219.14065387500003,219.25176487500002,64.0,86.0
903,219.378748875,219.62478037500003,67.0,78.0
904,219.61684387500003,219.72001837500002,64.0,83.0
905,219.85493887500002,220.15057350000004,67.0,85.0
906,219.85493887500002,220.160494125,40.0,94.0
907,219.85493887500002,220.160494125,71.0,93.0
908,220.09303387500003,220.23787500000003,64.0,82.0
909,220.33112887500002,220.61485875000002,67.0,76.0
910,220.56922387500003,220.68827137500003,64.0,74.0
911,220.80731887500002,220.91644575000004,64.0,88.0
912,220.80731887500002,221.02954087500004,59.0,85.0
913,220.80731887500002,221.04938212500002,52.0,87.0
914,220.80731887500002,221.095017,67.0,85.0
915,220.80731887500002,221.11485825000003,71.0,92.0
916,221.04541387500004,221.15255662500002,64.0,84.0
917,221.28350887500002,221.51961975000003,67.0,83.0
918,221.521603875,221.5950165,64.0,81.0
919,221.75969887500003,221.94819075000004,57.0,83.0
920,221.75969887500003,222.07319062500002,60.0,86.0
921,221.997793875,222.25176187500003,57.0,89.0
922,222.23588887500003,222.48787275000004,60.0,85.0
923,222.47398387500002,222.56525362500003,57.0,76.0
924,222.71207887500003,222.80731687500003,57.0,82.0
925,222.71207887500003,222.98787225000004,64.0,94.0
926,222.71207887500003,222.99779287500002,60.0,86.0
927,222.71207887500003,223.02953887500001,52.0,83.0
928,222.95017387500002,223.07120550000002,57.0,80.0
929,221.75969887500003,223.15850700000001,45.0,93.0
930,223.18826887500003,223.46604637500002,60.0,81.0
931,223.42636387500002,223.55731612500003,57.0,82.0
932,223.66445887500004,223.82914125000002,57.0,87.0
933,223.66445887500004,223.96604587500002,60.0,88.0
934,223.90255387500002,224.03945850000002,57.0,84.0
935,224.140648875,224.38866450000003,60.0,87.0
936,224.37874387500003,224.48390250000003,57.0,78.0
937,223.66445887500004,224.54541037500002,45.0,93.0
938,224.616838875,224.72398162500002,52.0,93.0
939,224.616838875,224.72993400000001,57.0,89.0
940,224.616838875,224.76763237500003,45.0,69.0
941,224.616838875,224.90056875000002,60.0,93.0
942,224.616838875,224.91644175000002,64.0,97.0
943,224.85493387500003,225.11882250000002,57.0,81.0
944,225.09302887500002,225.21009225000003,60.0,84.0
945,225.56921887500002,225.67636162500003,62.0,93.0
946,225.56921887500002,225.70215525000003,38.0,97.0
947,225.56921887500002,225.79739325000003,66.0,94.0
948,225.80731387500003,225.94025025000002,62.0,82.0
949,226.04540887500002,226.243821375,69.0,88.0
950,226.28350387500004,226.39659900000004,62.0,80.0
951,226.52159887500002,226.64064637500002,62.0,86.0
952,226.52159887500002,226.79937637500004,66.0,91.0
953,226.52159887500002,226.82913825000003,74.0,97.0
954,226.759693875,226.91048737500003,62.0,82.0
955,226.52159887500002,227.21604262500003,50.0,93.0
956,226.52159887500002,227.22596325000004,57.0,88.0
957,226.99778887500003,227.25572512500003,66.0,85.0
958,227.235883875,227.3727885,62.0,89.0
959,227.47397887500003,227.57913750000003,62.0,85.0
960,227.47397887500003,227.69818500000002,66.0,81.0
961,227.47397887500003,227.791438875,69.0,85.0
962,227.71207387500002,227.87874037500004,62.0,80.0
963,227.95016887500003,228.07715287500002,66.0,93.0
964,228.18826387500002,228.24183525000004,69.0,76.0
965,227.47397887500003,228.275565375,57.0,85.0
966,227.47397887500003,228.30929550000002,50.0,94.0
967,228.18826387500002,228.35096212500002,62.0,94.0
968,228.42635887500003,228.48191437500003,62.0,84.0
969,228.42635887500003,228.55532700000003,57.0,93.0
970,228.42635887500003,228.58310475000002,50.0,96.0
971,228.42635887500003,228.67239037500002,66.0,99.0
972,228.42635887500003,228.67834275,74.0,98.0
973,228.42635887500003,228.72199350000002,69.0,96.0
974,228.66445387500002,228.846993375,62.0,93.0
975,228.90254887500004,229.08707250000003,66.0,83.0
976,229.14064387500002,229.21405650000003,62.0,73.0
977,229.378738875,229.52159587500003,62.0,87.0
978,229.378738875,229.66445287500002,67.0,89.0
979,229.61683387500003,229.80929400000002,62.0,87.0
980,229.854928875,230.08707150000004,67.0,82.0
981,230.09302387500003,230.18230950000003,62.0,74.0
982,229.378738875,230.26762687500002,43.0,94.0
983,230.33111887500002,230.44024575000003,62.0,94.0
984,230.33111887500002,230.63270587500003,67.0,93.0
985,230.33111887500002,230.66643600000003,71.0,89.0
986,230.56921387500003,230.70611850000003,62.0,90.0
987,230.33111887500002,230.99580075000003,50.0,91.0
988,230.80730887500002,231.07516575000002,67.0,92.0
989,230.33111887500002,231.10492762500002,43.0,89.0
990,231.04540387500003,231.200165625,62.0,92.0
991,231.28349887500002,231.39460987500001,62.0,89.0
992,231.28349887500002,231.5473875,67.0,85.0
993,231.52159387500004,231.66445087500003,62.0,76.0
994,231.75968887500002,231.989847375,67.0,82.0
995,231.28349887500002,232.05135525000003,43.0,92.0
996,231.99778387500004,232.0870695,62.0,80.0
997,232.23587887500003,232.34698987500002,62.0,88.0
998,232.23587887500003,232.51167225000003,50.0,91.0
999,232.23587887500003,232.52357700000002,67.0,89.0
1000,232.23587887500003,232.56722775000003,71.0,91.0
1001,232.23587887500003,232.602942,43.0,93.0
1002,232.473973875,232.6267515,62.0,85.0
1003,232.71206887500003,232.97794162500003,67.0,83.0
1004,232.95016387500002,233.02357650000002,62.0,82.0
1005,233.18825887500003,233.31325875000002,64.0,92.0
1006,233.18825887500003,233.47794112500003,67.0,87.0
1007,233.42635387500002,233.57317912500002,64.0,86.0
1008,233.66444887500003,233.811274125,67.0,81.0
1009,233.90254387500002,233.97595650000002,64.0,79.0
1010,233.18825887500003,234.23389275000002,40.0,93.0
1011,234.14063887500004,234.24778162500002,64.0,94.0
1012,234.14063887500004,234.33706725000002,67.0,93.0
1013,234.14063887500004,234.43825762500003,71.0,95.0
1014,234.37873387500002,234.50373375000004,64.0,94.0
1015,234.61682887500004,234.88468575000002,67.0,91.0
1016,234.85492387500003,234.98190787500002,64.0,93.0
1017,235.093018875,235.20016162500002,64.0,89.0
1018,235.093018875,235.343018625,67.0,85.0
1019,235.33111387500003,235.45611375000001,64.0,91.0
1020,235.56920887500002,235.86087525000002,67.0,81.0
1021,235.093018875,235.92833550000003,40.0,94.0
1022,235.80730387500003,235.92833550000003,64.0,88.0
1023,236.04539887500002,236.16047812500003,64.0,94.0
1024,236.04539887500002,236.29143037500003,67.0,93.0
1025,236.04539887500002,236.36087475000002,71.0,94.0
1026,236.28349387500003,236.406509625,64.0,88.0
1027,236.04539887500002,236.40849375000002,47.0,92.0
1028,236.04539887500002,236.42039850000003,40.0,90.0
1029,236.52158887500002,236.75968387500004,67.0,87.0
1030,236.75968387500004,236.83508062500002,64.0,89.0
1031,236.99777887500002,237.14857237500001,57.0,94.0
1032,236.99777887500002,237.29936587500003,60.0,95.0
1033,237.23587387500004,237.37873087500003,57.0,86.0
1034,237.47396887500003,237.75769875000003,60.0,89.0
1035,237.712063875,237.81325425000003,57.0,83.0
1036,236.99777887500002,237.8648415,45.0,93.0
1037,237.95015887500003,238.03746037500002,57.0,83.0
1038,237.95015887500003,238.11285712500003,60.0,86.0
1039,237.95015887500003,238.14857137500002,64.0,91.0
1040,237.95015887500003,238.20412687500001,52.0,89.0
1041,237.95015887500003,238.26166650000002,45.0,82.0
1042,238.18825387500002,238.33904737500004,57.0,84.0
1043,238.42634887500003,238.72595175000004,60.0,82.0
1044,238.66444387500002,238.78547550000002,57.0,82.0
1045,238.90055475000003,238.993808625,38.0,92.0
1046,238.904523,239.60888737500002,62.0,86.0
1047,238.90650712500002,239.66047462500003,66.0,80.0
1048,238.91047537500003,239.78150625000004,69.0,87.0
1049,239.823172875,240.38666437500004,62.0,89.0
1050,240.049363125,240.573172125,66.0,85.0
1051,239.58706200000003,240.70809262500003,57.0,59.0
1052,240.29142637500001,240.71404500000003,74.0,89.0
1053,239.34103050000002,240.71999737500002,50.0,89.0
1054,240.839044875,241.43626650000002,62.0,89.0
1055,240.83507662500003,241.46801250000001,67.0,84.0
1056,241.74579000000003,241.91245650000002,62.0,82.0
1057,242.19817050000003,242.47991625000003,62.0,77.0
1058,241.73388525000001,242.54340825000003,71.0,89.0
1059,242.65848750000004,243.01761412500002,62.0,85.0
1060,242.65650337500003,243.27356625000002,69.0,82.0
1061,243.60888337500003,243.90054975000004,62.0,81.0
1062,244.10689875000003,244.52951737500004,62.0,76.0
1063,243.602931,244.54539037500004,67.0,80.0
1064,244.53546975000003,244.54539037500004,67.0,81.0
1065,240.83706075000003,244.55531100000002,55.0,92.0
1066,244.56126337500004,245.12673900000001,71.0,88.0
1067,244.61483475000003,245.13269137500004,74.0,87.0
1068,245.28943725000002,245.569198875,67.0,80.0
1069,245.51959575000004,245.78943675000002,69.0,92.0
1070,245.74181775000002,245.96602387500002,71.0,95.0
1071,245.04340575000003,245.97594450000003,50.0,73.0
1072,244.58308875000003,246.24776962500002,43.0,91.0
1073,245.99181750000002,246.25173787500003,74.0,94.0
1074,246.23586487500003,246.36880125000002,67.0,68.0
1075,246.47991225,246.61483275000003,36.0,83.0
1076,246.48983287500002,247.01761012500003,67.0,83.0
1077,246.47395987500002,247.48983187500002,74.0,94.0
1078,247.45808587500002,247.71006975000003,50.0,89.0
1079,247.46999062500004,247.72197450000002,69.0,69.0
1080,247.45213350000003,248.41840237500003,72.0,82.0
1081,248.414434125,249.77157562500003,62.0,81.0
1082,248.41641825000002,249.98387700000004,67.0,69.0
1083,248.43229125000002,250.009670625,71.0,83.0
1084,250.32117825000003,251.11879650000003,67.0,80.0
1085,250.31919412500002,251.37276450000002,62.0,78.0
1086,248.422370625,251.73982762500003,43.0,70.0
1087,251.29538362500003,252.04935112500002,67.0,82.0
1088,251.30133600000002,252.07514475000002,71.0,87.0
1089,252.20212875,252.37474762500003,40.0,85.0
1090,252.20014462500004,254.80530075000001,67.0,76.0
1091,252.19816050000003,255.02553862500002,64.0,81.0
1092,252.21800175,255.29141137500002,71.0,86.0
1093,255.05728462500002,255.38268112500003,52.0,88.0
1094,255.28545900000003,255.47791912500003,59.0,88.0
1095,255.51958575000003,255.74974425000002,66.0,97.0
1096,255.71799825000002,255.83902987500002,67.0,91.0
1097,255.997759875,257.02355250000005,64.0,88.0
1098,256.00768050000005,257.02950487500004,60.0,85.0
1099,257.97196425000004,258.17632912500005,59.0,71.0
1100,255.99577575000004,258.23386875,48.0,93.0
1101,257.95013887500005,259.827121125,60.0,68.0
1102,259.82116875,259.96799400000003,38.0,81.0
1103,257.85093262500004,259.99974000000003,64.0,85.0
1104,257.80926600000004,260.053311375,67.0,76.0
1105,257.75172637500003,260.827120125,72.0,57.0
1106,260.307279375,261.11878650000006,50.0,82.0
1107,260.827120125,261.16640550000005,57.0,87.0
1108,261.77751600000005,263.743783875,66.0,81.0
1109,261.29338950000005,263.74775212500003,62.0,95.0
1110,261.779500125,263.79338700000005,69.0,81.0
1111,264.95608425,265.23584587500005,55.0,85.0
1112,265.18822687500005,265.398544125,57.0,87.0
1113,265.44021075,265.62076612500005,59.0,93.0
1114,265.69021050000003,265.74775012500004,59.0,73.0
1115,265.67433750000004,265.97989275000003,62.0,94.0
1116,264.68822737500005,266.08306725000006,50.0,77.0
1117,264.46402125000003,266.259654375,43.0,93.0
1118,266.434257375,266.64655875000005,62.0,80.0
1119,266.44020975,266.65251112500005,59.0,80.0
1120,266.42632087500004,266.755685625,67.0,81.0
1121,267.36084375,267.59100225000003,71.0,91.0
1122,267.36481200000003,267.63266887500004,67.0,86.0
1123,266.41044787500005,267.854890875,43.0,85.0
1124,268.398541125,268.48981087500005,40.0,86.0
1125,268.40052525000004,269.05925475000004,64.0,83.0
1126,268.39655700000003,269.10092137500004,67.0,84.0
1127,269.39655600000003,269.67830175,62.0,89.0
1128,269.14655625,269.71004775,59.0,79.0
1129,269.61084150000005,269.90052375000005,67.0,104.0
1130,270.10092037500004,270.20211075000003,62.0,71.0
1131,270.35885662500004,270.65845950000005,62.0,80.0
1132,270.34893600000004,270.69615787500004,71.0,87.0
1133,269.856873,271.35488737500003,59.0,74.0
1134,271.32115725000006,271.41242700000004,67.0,93.0
1135,271.32710962500005,271.434252375,62.0,93.0
1136,268.902508875,271.46004600000003,52.0,77.0
1137,272.19417225,272.4362355,64.0,91.0
1138,272.31321975000003,272.51758462500004,60.0,81.0
1139,272.11480725,272.561235375,67.0,82.0
1140,272.75766375,273.041393625,62.0,79.0
1141,272.983854,273.184250625,64.0,91.0
1142,272.51956875,273.32710762500005,55.0,81.0
1143,273.21202837500005,273.46004400000004,67.0,94.0
1144,273.684250125,273.99774187500003,60.0,81.0
1145,273.914408625,274.06718625,67.0,83.0
1146,273.43226625000005,274.35885262500005,55.0,84.0
1147,274.1822655,274.57115400000004,60.0,80.0
1148,274.17432900000006,274.6584555,67.0,82.0
1149,274.62274125000005,275.09893125,55.0,53.0
1150,275.120756625,275.23782000000006,60.0,95.0
1151,275.11877250000003,275.251708875,67.0,91.0
1152,272.299330875,275.32908975000004,48.0,94.0
1153,276.073136625,276.16242225,38.0,96.0
1154,275.993771625,276.6584535,66.0,80.0
1155,275.88067650000005,276.77154862500004,74.0,94.0
1156,276.06718425,276.83702475,62.0,86.0
1157,275.91837487500004,277.14059587500003,69.0,78.0
1158,277.085040375,277.283452875,62.0,93.0
1159,277.315198875,277.44019875000004,66.0,93.0
1160,277.60289700000004,277.75964287500005,67.0,100.0
1161,277.878690375,278.17630912500005,69.0,102.0
1162,276.82115175,278.46202312500003,57.0,84.0
1163,278.20805512500004,278.553292875,74.0,93.0
1164,278.52353100000005,278.69813400000004,69.0,77.0
1165,278.92432425000004,279.09694312500005,69.0,81.0
1166,278.922340125,279.152498625,78.0,76.0
1167,279.62868862500005,279.795355125,74.0,75.0
1168,279.815196375,279.92432325000004,86.0,98.0
1169,276.569167875,280.311227625,50.0,70.0
1170,280.88860800000003,281.081068125,74.0,73.0
1171,280.958052375,281.13860775,79.0,74.0
1172,280.96400475,281.148528375,43.0,77.0
1173,281.07511575,281.60289300000005,83.0,85.0
1174,281.989797375,282.15051150000005,78.0,76.0
1175,282.15646387500004,282.291384375,81.0,78.0
1176,282.327098625,282.454082625,76.0,88.0
1177,282.489796875,282.581066625,78.0,104.0
1178,282.6743205,282.84098700000004,74.0,92.0
1179,283.112812125,283.342970625,71.0,81.0
1180,283.358843625,283.56122437500005,74.0,77.0
1181,281.775511875,283.7854305,62.0,72.0
1182,283.63662112500003,283.827097125,69.0,74.0
1183,281.581067625,284.06717625000005,55.0,40.0
1184,283.99971600000003,284.20209675,66.0,75.0
1185,284.396541,284.66241375000004,62.0,71.0
