,start,end,pitch,velocity
0,36.411873,36.830578875,72.0,48.0
1,36.831453,37.260816150000004,72.0,53.0
2,37.255497000000005,37.695213,74.0,61.0
3,37.695213,39.49365999999999,72.0,60.0
4,39.49365999999999,39.95940027499999,77.0,69.0
5,39.938103999999996,40.395510949999995,76.0,65.0
6,40.38254799999999,40.82699199999999,74.0,59.0
7,40.82699199999999,43.465878249999996,72.0,56.0
8,43.465878249999996,43.893556393749996,69.0,72.0
9,43.894449249999994,44.32302024999999,69.0,81.0
10,44.32302024999999,44.788495975,67.0,65.0
11,44.763495999999996,46.207938999999996,69.0,72.0
12,46.207938999999996,46.77458443958333,74.0,82.0
13,46.54127199999999,47.00686045833333,69.0,64.0
14,46.98820375,47.485405027083324,67.0,51.0
15,47.43596475,50.55121899999999,69.0,52.0
16,50.55121899999999,50.99473707499999,70.0,89.0
17,50.99566299999999,51.47806992499999,70.0,84.0
18,51.44010699999999,51.884550999999995,69.0,79.0
19,51.884550999999995,52.35399497499999,72.0,87.0
20,52.32899499999999,54.106770999999995,70.0,75.0
21,54.106770999999995,54.550289074999995,81.0,92.0
22,54.55121499999999,54.98696653124999,81.0,91.0
23,54.98606724999999,55.41682296874999,79.0,89.0
24,55.41772224999999,55.86637639999999,79.0,82.0
25,55.858968999999995,57.19230099999999,77.0,79.0
26,57.19230099999999,57.63674499999999,81.0,105.0
27,57.63674499999999,59.63581707499999,74.0,93.0
28,59.63674299999999,60.08118699999999,74.0,76.0
29,60.08118699999999,60.47285327499999,77.0,82.0
30,60.41451999999999,60.74785299999999,79.0,84.0
31,60.74785299999999,61.46637079999999,74.0,89.0
32,61.30340799999999,64.95945925416666,72.0,73.0
33,64.96063849999999,65.52549725416665,72.0,87.0
34,65.5266765,66.09271449999999,72.0,85.0
35,66.09271449999999,66.56755699999998,74.0,91.0
36,66.56755699999998,67.90088899999998,72.0,87.0
37,67.90088899999998,68.36199964999999,77.0,93.0
38,68.34533299999998,68.79533254999998,76.0,96.0
39,68.78977699999999,69.23422099999998,74.0,90.0
40,69.23422099999998,72.34532899999998,72.0,94.0
41,72.34532899999998,72.78884707499998,69.0,92.0
42,72.78977299999998,73.23421699999999,69.0,94.0
43,73.23421699999999,73.66906924999998,67.0,89.0
44,73.66906924999998,74.96403424999998,69.0,98.0
45,74.96403424999998,75.78213247499998,74.0,97.0
46,75.73861399999998,75.96361377499998,69.0,93.0
47,75.96083599999997,76.41731702499997,67.0,82.0
48,76.40527999999998,79.40527699999998,69.0,90.0
49,79.40527699999998,79.84879507499998,70.0,95.0
50,79.84972099999997,80.29416499999998,70.0,95.0
51,80.29416499999998,80.53675734999997,69.0,94.0
52,80.51638699999998,81.07194199999998,72.0,97.0
53,81.07194199999998,82.96082899999998,70.0,95.0
54,82.96082899999998,83.40434707499998,81.0,100.0
55,83.40527299999998,83.85342069999997,81.0,105.0
56,83.84971699999997,84.18212407499998,79.0,91.0
57,84.18304999999998,84.66360507499998,79.0,91.0
58,84.62749399999998,86.07193699999998,77.0,101.0
59,86.07193699999998,86.51638099999998,81.0,106.0
60,86.51638099999998,88.51545307499998,74.0,103.0
61,88.51637899999997,88.73860099999997,74.0,97.0
62,88.73860099999997,89.21730422499998,81.0,100.0
63,89.18304499999998,89.42934104999998,79.0,93.0
64,89.40526699999998,89.63119269999997,77.0,92.0
65,89.62748899999998,90.18304399999998,81.0,106.0
66,90.18304399999998,92.73859699999997,79.0,96.0
67,92.73859699999997,93.18304099999997,72.0,98.0
68,93.18304099999997,95.40526099999998,81.0,103.0
69,95.40526099999998,95.84970499999997,82.0,105.0
70,95.84970499999997,96.29414899999998,81.0,100.0
71,96.29414899999998,96.72216049999997,72.0,91.0
72,96.72216049999997,97.1438142208333,79.0,100.0
73,97.14469449999997,97.5663482208333,79.0,93.0
74,97.56722849999997,97.98976249999997,79.0,98.0
75,97.98976249999997,98.4665486708333,81.0,93.0
76,98.44154874999997,98.9280856708333,79.0,100.0
77,98.90308574999996,100.05012034374997,74.0,89.0
78,100.05103274999996,100.27183506249996,74.0,66.0
79,100.27001024999997,100.70705284374996,82.0,99.0
80,100.70796524999996,101.14500784374997,82.0,103.0
81,101.14592024999996,102.47114099999996,82.0,104.0
82,102.47114099999996,102.91558499999996,86.0,103.0
83,102.91558499999996,103.36002899999995,84.0,99.0
84,103.36002899999995,103.80354707499995,82.0,99.0
85,103.80447299999996,104.24891699999996,82.0,100.0
86,104.24891699999996,104.69243507499996,81.0,98.0
87,104.69336099999995,105.13780499999996,81.0,105.0
88,105.13780499999996,105.36002699999996,79.0,99.0
89,105.36002699999996,107.13780299999996,81.0,100.0
90,107.13780299999996,107.37669164999996,77.0,98.0
91,107.36002499999996,107.80354307499996,84.0,109.0
92,107.80446899999995,109.13780099999995,84.0,109.0
93,109.13780099999995,109.36002299999996,81.0,91.0
94,109.36002299999996,109.58224499999996,82.0,87.0
95,109.58224499999996,110.02576307499996,84.0,93.0
96,110.02668899999996,110.26465172499996,84.0,97.0
97,110.24891099999996,110.47113299999995,82.0,91.0
98,110.47113299999995,110.91557699999996,81.0,87.0
99,110.91557699999996,111.35909507499996,82.0,103.0
100,111.36002099999996,111.80353907499996,82.0,89.0
101,111.80446499999996,112.24890899999995,82.0,95.0
102,112.24890899999995,112.69335299999996,74.0,89.0
103,112.69335299999996,114.24890699999996,77.0,91.0
104,114.24890699999996,114.48779564999995,72.0,65.0
105,114.47112899999996,114.93316557499996,81.0,96.0
106,114.80446199999996,115.13779499999995,79.0,87.0
107,115.13779499999995,115.40260954999997,77.0,91.0
108,115.36001699999996,115.82853504999996,81.0,100.0
109,115.69334999999995,116.01973874999996,79.0,89.0
110,116.01973874999996,116.28362784999996,77.0,91.0
111,116.22807224999995,117.05925074999995,81.0,106.0
112,117.05925074999995,117.52994028749995,86.0,109.0
113,117.47304374999995,118.06172827708328,81.0,94.0
114,117.93082274999995,118.44263383333328,79.0,87.0
115,118.44263383333328,118.95615599999995,77.0,82.0
116,118.95615599999995,121.02137049999995,79.0,100.0
117,121.02137049999995,121.46339899999995,72.0,101.0
118,121.46339899999995,123.72271399999995,81.0,105.0
119,123.72271399999995,124.14824599999996,82.0,100.0
120,124.14824599999996,124.57377799999996,81.0,93.0
121,124.57377799999996,125.02631374999996,72.0,84.0
122,125.02631374999996,125.48688921458329,79.0,103.0
123,125.48785074999995,125.9484262145833,79.0,100.0
124,125.94938774999996,126.41092474999995,79.0,99.0
125,126.41092474999995,126.85964199999995,81.0,96.0
126,126.85964199999995,127.30408599999996,79.0,96.0
127,127.30408599999996,127.52630799999996,81.0,75.0
128,127.52630799999996,127.79482624999996,79.0,71.0
129,127.69297449999995,128.5366209895833,77.0,89.0
130,128.41437874999997,128.6496720833333,74.0,91.0
131,128.63496624999996,129.07522213541662,82.0,96.0
132,129.07614124999995,129.29580963541662,82.0,100.0
133,129.29672874999997,130.82418124999995,82.0,104.0
134,130.82418124999995,131.25583624999996,86.0,105.0
135,131.25583624999996,131.68749124999997,84.0,105.0
136,131.68749124999997,132.11824696874996,82.0,95.0
137,132.11914624999997,132.55080124999995,82.0,103.0
138,132.55080124999995,132.98155696874997,81.0,96.0
139,132.98245624999996,133.41411124999996,81.0,99.0
140,133.41411124999996,133.64798613958328,79.0,97.0
141,133.63740924999996,135.47846674999997,81.0,100.0
142,135.47846674999997,135.69905424999996,77.0,90.0
143,135.69905424999996,136.13931013541662,84.0,106.0
144,136.14022924999995,136.35989763541662,84.0,108.0
145,136.36081674999997,137.47121824999996,84.0,108.0
146,137.47121824999996,137.7353155145833,81.0,93.0
147,137.69678174999996,137.93362342499995,82.0,89.0
148,137.92234524999995,138.1469689020833,84.0,89.0
149,138.14790874999997,138.59903574999996,84.0,91.0
150,138.59903574999996,139.05016274999997,82.0,95.0
151,139.05016274999997,139.31613971041662,81.0,87.0
152,139.27572624999996,139.7259134020833,82.0,96.0
153,139.72685324999995,140.1770404020833,82.0,77.0
154,140.17798024999996,140.62910724999995,82.0,77.0
155,140.62910724999995,141.06103799999997,74.0,53.0
156,141.06103799999997,142.33763399999995,77.0,83.0
157,142.33763399999995,142.77734999999996,72.0,65.0
158,142.77734999999996,143.10234967499994,81.0,92.0
159,143.05512749999994,143.33290499999995,79.0,72.0
160,143.33290499999995,143.66623799999994,77.0,73.0
161,143.66623799999994,144.13475604999994,81.0,98.0
162,143.99957099999995,144.33457474999994,79.0,84.0
163,144.33457474999994,144.60431110208327,77.0,66.0
164,144.56013824999994,145.42479833333326,79.0,72.0
165,145.23682874999994,145.42479833333326,79.0,98.0
166,145.68795574999993,146.13578974999993,77.0,98.0
167,146.13578974999993,146.58104399999993,76.0,79.0
168,146.57374474999995,160.94614524999992,77.0,97.0
169,160.94614524999992,161.38640113541658,72.0,48.0
170,161.38732024999993,161.83217170833325,72.0,53.0
171,161.82849524999992,162.26967024999993,74.0,61.0
172,162.26967024999993,163.79540045833326,72.0,60.0
173,163.59319524999992,164.03437024999994,77.0,69.0
174,164.03437024999994,164.58583899999994,76.0,65.0
175,164.58583899999994,165.13730774999993,74.0,59.0
176,165.13730774999993,168.00494524999993,72.0,56.0
177,168.00494524999993,168.4452011354166,69.0,72.0
178,168.44612024999992,168.78803087499992,69.0,81.0
179,168.66670774999992,169.23747790624992,67.0,65.0
180,169.10788274999993,170.98287649999992,69.0,72.0
181,170.98287649999992,171.57110983333325,74.0,82.0
182,171.42405149999993,171.65934483333325,69.0,64.0
183,171.64463899999993,172.19886509374993,67.0,51.0
184,172.19610774999992,175.08185674999993,69.0,52.0
185,175.08185674999993,175.52868491458327,70.0,89.0
186,175.52961774999991,176.08931899999993,70.0,84.0
187,176.08931899999993,176.4771853541666,69.0,79.0
188,176.42020024999994,176.88619134374994,72.0,87.0
189,176.86137524999992,178.62607524999993,70.0,75.0
190,178.62607524999993,179.0663311354166,81.0,92.0
191,179.06725024999994,179.5102634791666,81.0,91.0
192,179.50842524999993,179.9486811354166,79.0,89.0
193,179.94960024999995,180.3981281666666,79.0,82.0
194,180.39077524999993,181.72693024999995,77.0,79.0
195,181.72693024999995,182.18494524999994,81.0,105.0
196,182.18494524999994,184.20720363541662,74.0,93.0
197,184.20812274999997,184.43606316666663,74.0,76.0
198,184.42871024999997,184.86988524999995,81.0,82.0
199,184.86988524999995,185.14561962499997,79.0,84.0
200,185.09047274999995,185.31106024999997,77.0,89.0
201,185.31106024999997,185.9875285833333,81.0,89.0
202,185.97282274999995,188.39928524999996,79.0,73.0
203,188.39928524999996,188.84046024999995,72.0,98.0
204,188.84046024999995,191.04633524999997,81.0,103.0
205,191.04633524999997,191.48751024999996,82.0,105.0
206,191.48751024999996,191.92868524999994,81.0,100.0
207,191.92868524999994,192.36986024999996,72.0,91.0
208,192.36986024999996,192.81011613541662,79.0,100.0
209,192.81103524999995,193.25129113541664,79.0,93.0
210,193.25221024999996,193.69338524999995,79.0,98.0
211,193.69338524999995,194.13456024999996,81.0,93.0
212,194.13456024999996,194.57573524999995,79.0,100.0
213,194.57573524999995,195.6925584145833,74.0,89.0
214,195.69349124999997,195.9192374208333,74.0,66.0
215,195.91737174999997,196.3641999145833,82.0,99.0
216,196.36513274999996,196.8119609145833,82.0,103.0
217,196.81289374999997,198.14465124999995,82.0,104.0
218,198.14465124999995,198.58582624999997,86.0,103.0
219,198.58582624999997,199.02700124999996,84.0,99.0
220,199.02700124999996,199.46725713541662,82.0,99.0
221,199.46817624999997,199.90935124999996,82.0,100.0
222,199.90935124999996,200.34960713541662,81.0,98.0
223,200.35052624999997,200.79170124999996,81.0,105.0
224,200.79170124999996,201.48563276041662,79.0,99.0
225,201.23287624999995,202.77780599999994,81.0,100.0
226,202.77780599999994,203.01669464999995,77.0,98.0
227,203.00002799999996,203.44354607499994,84.0,109.0
228,203.44447199999993,204.77535224999994,84.0,109.0
229,204.77535224999994,204.99593974999993,81.0,91.0
230,204.99593974999993,205.21652724999993,82.0,87.0
231,205.21652724999993,205.6567831354166,84.0,93.0
232,205.65770224999994,205.8939146979166,84.0,97.0
233,205.87828974999994,206.09887724999993,82.0,91.0
234,206.09887724999993,206.54005224999995,81.0,87.0
235,206.54005224999995,206.9803081354166,82.0,103.0
236,206.98122724999993,207.4214831354166,82.0,89.0
237,207.42240224999995,207.86357724999993,82.0,95.0
238,207.86357724999993,208.30475224999992,74.0,89.0
239,208.30475224999992,209.75174299999995,77.0,91.0
240,209.75174299999995,210.08262424999995,72.0,65.0
241,210.08262424999995,210.41350549999996,81.0,96.0
242,210.41350549999996,210.6874016458333,79.0,87.0
243,210.63409299999995,210.8969597708333,77.0,91.0
244,210.96221690624995,211.4272888854166,81.0,100.0
245,211.29309815624995,211.62397940624996,79.0,89.0
246,211.51644299999995,211.79677294791662,77.0,91.0
247,211.8372139895833,212.28849924999994,81.0,106.0
248,212.6129466979166,213.17084924999995,86.0,109.0
249,213.17084924999995,213.6111051354166,79.0,94.0
250,213.61202424999993,214.06514773958327,79.0,87.0
251,214.05319924999995,214.50356539583328,77.0,82.0
252,214.49437424999994,214.82525549999994,79.0,100.0
253,214.82525549999994,215.04584299999993,77.0,100.0
254,215.04584299999993,216.70024924999996,79.0,100.0
255,216.70024924999996,217.18554174999994,72.0,91.0
256,217.14142424999994,217.48241576041661,81.0,99.0
257,217.47230549999995,217.6028197708333,79.0,76.0
258,217.58259924999996,218.26107424999995,81.0,96.0
259,218.26107424999995,218.6176079479166,79.0,84.0
260,218.48834674999995,219.37403924999992,77.0,89.0
261,219.37403924999992,219.81521424999994,82.0,100.0
262,219.81521424999994,220.26901924999993,81.0,93.0
263,220.26901924999993,220.72703424999992,72.0,84.0
264,220.72703424999992,221.18409505208325,79.0,103.0
265,221.18504924999993,221.6295151354166,79.0,100.0
266,221.63043424999992,222.0716092499999,79.0,99.0
267,222.0716092499999,222.51278424999992,81.0,96.0
268,222.51278424999992,222.88226831249992,79.0,96.0
269,222.84366549999993,223.08355440624993,81.0,75.0
270,222.9539592499999,223.1745467499999,79.0,71.0
271,223.1745467499999,224.10928628124992,77.0,89.0
272,224.0568967499999,224.29310919791658,74.0,91.0
273,224.27748424999993,224.7177401354166,82.0,96.0
274,224.71865924999992,224.93832763541658,82.0,100.0
275,224.9392467499999,226.48335924999992,82.0,104.0
276,226.48335924999992,226.9245342499999,86.0,105.0
277,226.9245342499999,227.36570924999992,84.0,105.0
278,227.36570924999992,227.80596513541659,82.0,95.0
279,227.8068842499999,228.24805924999993,82.0,103.0
280,228.24805924999993,228.6883151354166,81.0,96.0
281,228.6892342499999,229.13040924999993,81.0,99.0
282,229.13040924999993,229.36018789583326,79.0,97.0
283,229.35099674999992,231.14243674999992,81.0,100.0
284,231.14243674999992,231.3630242499999,77.0,90.0
285,231.3630242499999,231.80328013541657,84.0,106.0
286,231.8041992499999,232.02386763541656,84.0,108.0
287,232.02478674999992,233.12772424999991,84.0,108.0
288,233.12772424999991,233.38599544791657,81.0,93.0
289,233.3483117499999,233.5799286249999,82.0,89.0
290,233.5688992499999,233.78856763541657,84.0,89.0
291,233.7894867499999,234.2306617499999,84.0,91.0
292,234.2306617499999,234.6718367499999,82.0,95.0
293,234.6718367499999,234.93194617708323,81.0,87.0
294,234.89242424999992,235.33268013541658,82.0,96.0
295,235.3335992499999,235.77385513541657,82.0,77.0
296,235.7747742499999,236.2159492499999,82.0,77.0
297,236.2159492499999,236.6571242499999,74.0,53.0
298,236.6571242499999,238.2012367499999,77.0,83.0
299,238.2012367499999,238.4218242499999,72.0,65.0
300,238.4218242499999,238.7527054999999,81.0,92.0
301,238.7527054999999,239.0835867499999,79.0,72.0
302,239.0835867499999,239.3593211249999,77.0,73.0
303,239.3041742499999,239.76832711458323,81.0,98.0
304,239.7453492499999,239.9910595312499,79.0,84.0
305,239.96927924999991,240.2410592812499,77.0,66.0
306,240.1965517499999,241.0677629999999,79.0,72.0
307,240.8783692499999,241.0677629999999,79.0,98.0
308,241.3329142499999,241.78411674999992,77.0,98.0
309,241.78411674999992,242.23264466666657,76.0,79.0
310,245.53410424999993,246.63704174999992,81.0,91.0
311,242.2252917499999,246.82821758333324,77.0,97.0
312,246.63704174999992,246.9716823916666,79.0,74.0
313,246.85762924999992,247.30532840208326,77.0,79.0
314,247.30626824999993,248.88521274999994,77.0,66.0
315,248.88521274999994,249.13239275208326,72.0,80.0
316,249.11077624999993,249.4923545041666,81.0,89.0
317,249.44912149999993,249.7996847729166,79.0,72.0
318,249.78746674999994,250.12581199999994,77.0,80.0
319,250.12581199999994,250.51396918958326,81.0,93.0
320,250.46415724999991,250.92577524999993,79.0,73.0
321,250.92577524999993,251.27461149999993,77.0,79.0
322,251.27461149999993,251.8550362604166,79.0,89.0
323,251.85600524999992,252.54769274999992,79.0,87.0
324,252.54769274999992,253.31974899999992,77.0,92.0
325,253.31974899999992,253.5982407187499,74.0,87.0
326,253.5403364999999,254.00173202083326,72.0,54.0
327,253.87121774999991,256.8828289999999,74.0,107.0
328,256.8828289999999,257.3513401770833,67.0,66.0
329,257.34084399999995,257.8622779062499,69.0,91.0
330,257.79885899999994,258.2400339999999,72.0,90.0
331,258.2400339999999,258.79150274999995,81.0,97.0
332,258.79150274999995,261.32825899999995,79.0,94.0
333,261.32825899999995,261.7924050104166,77.0,96.0
334,261.793374,262.95616149999995,77.0,98.0
335,262.95616149999995,263.6298939999999,76.0,94.0
336,263.6298939999999,268.564267,77.0,101.0
