,start,end,pitch,velocity
0,7.9314165,8.326924312500001,60.0,44.0
1,7.4626665,8.332783687500001,53.0,56.0
2,8.400166500000001,8.968525875000001,65.0,44.0
3,9.319437,9.977769675000001,69.0,48.0
4,8.868916500000001,10.012954825000001,67.0,43.0
5,10.652769000000001,10.955546475,69.0,48.0
6,10.874991000000001,11.074990800000002,70.0,55.0
7,11.097213,11.61017545,72.0,63.0
8,11.986101000000001,12.34350805,69.0,56.0
9,11.541657,12.3675821,58.0,48.0
10,12.430545,13.3379515,65.0,55.0
11,11.097213,13.8305436,53.0,63.0
12,12.430545,13.90276575,72.0,62.0
13,11.986101000000001,14.0860989,60.0,44.0
14,13.986099000000001,14.184246950000002,70.0,48.0
15,13.763877,14.199061750000002,65.0,29.0
16,12.430545,14.208321000000002,77.0,73.0
17,14.208321000000002,14.416654125,72.0,44.0
18,14.430543,14.715727900000001,77.0,63.0
19,14.652765,15.051838675,72.0,51.0
20,14.652765,15.09165345,69.0,47.0
21,15.097209000000001,15.643504750000002,60.0,40.0
22,15.541653,16.0305414,65.0,39.0
23,14.652765,17.405540025,53.0,58.0
24,16.430541,17.422206674999998,65.0,45.0
25,15.986097000000001,17.49165105,60.0,42.0
26,19.097205000000002,19.42868615,70.0,44.0
27,19.541649,20.7972033,72.0,60.0
28,19.541649,20.88794395,77.0,67.0
29,19.541649,21.050906750000003,65.0,51.0
30,19.097205000000002,21.140721475,62.0,32.0
31,18.208317,21.150906650000003,53.0,60.0
32,18.652760999999998,21.20646215,58.0,58.0
33,20.874981,21.288869475,76.0,63.0
34,21.319425000000003,21.505535925,77.0,46.0
35,21.430536,21.587017324999998,74.0,39.0
36,21.763869,22.527757125,62.0,70.0
37,21.763869,22.59905335,65.0,58.0
38,21.763869,22.648127375,58.0,72.0
39,21.763869,23.118497275000003,43.0,66.0
40,22.208313,23.122200975,50.0,38.0
41,22.652757,23.181460174999998,55.0,60.0
42,23.097201,23.352756300000003,58.0,93.0
43,23.541645000000003,24.28053315,65.0,75.0
44,23.541645000000003,24.30645905,60.0,75.0
45,23.541645000000003,24.477755175,48.0,66.0
46,24.430533,24.953680625,58.0,70.0
47,24.430533,25.009236125,46.0,64.0
48,24.430533,25.03608795,62.0,69.0
49,25.319421000000002,25.720346525,55.0,61.0
50,25.319421000000002,25.937012975000002,60.0,75.0
51,25.319421000000002,25.998124025,64.0,75.0
52,25.319421000000002,26.5934938,45.0,75.0
53,25.763865,26.642567825,52.0,46.0
54,26.652753,26.9379379,62.0,75.0
55,26.208309,26.97682675,57.0,48.0
56,27.097197,27.19904875,62.0,46.0
57,27.097197,27.556455800000002,65.0,75.0
58,27.986085,28.303677275000002,62.0,51.0
59,27.097197,28.3675661,50.0,66.0
60,27.541641000000002,28.381454975,57.0,45.0
61,27.986085,28.4527512,67.0,73.0
62,28.430529,28.5749733,69.0,72.0
63,29.319417,30.962933875,50.0,70.0
64,28.874973,31.038859725000002,70.0,88.0
65,30.097194000000002,31.490711125,62.0,82.0
66,30.097194000000002,31.546266625,58.0,73.0
67,30.097194000000002,31.75459975,65.0,70.0
68,29.65275,31.946266225,55.0,69.0
69,28.874973,32.024969850000005,43.0,88.0
70,31.763859,32.044414275,70.0,69.0
71,31.541637,32.072192025,69.0,50.0
72,31.986081,32.191636349999996,74.0,66.0
73,31.986081,32.24534,64.0,61.0
74,31.541637,32.27682145,50.0,44.0
75,32.208303,32.468487925000005,77.0,66.0
76,32.430525,32.468487925000005,77.0,62.0
77,32.208303,33.1157095,65.0,62.0
78,33.319413,34.348115675,55.0,62.0
79,33.652746,35.209225925,58.0,80.0
80,33.652746,35.387003525,62.0,59.0
81,32.430525,35.4527442,43.0,70.0
82,32.874969,35.461077525,50.0,61.0
83,33.652746,35.479596025,65.0,53.0
84,35.986077,36.759774750000005,69.0,54.0
85,35.986077,36.982447300000004,77.0,64.0
86,36.831453,37.55262055,65.0,52.0
87,37.255497000000005,38.12415258333333,72.0,63.0
88,38.038881499999995,38.72051262499999,65.0,33.0
89,36.411873,38.87514209999999,60.0,49.0
90,35.986077,38.882549499999996,53.0,52.0
91,38.604772,38.92977167499999,69.0,55.0
92,38.604772,39.22236397499999,77.0,75.0
93,39.049215999999994,39.453845224999995,76.0,67.0
94,39.49365999999999,39.974215075,72.0,69.0
95,39.49365999999999,39.98717802499999,67.0,66.0
96,40.38254799999999,41.2158805,57.0,45.0
97,41.04921399999999,41.7232874,64.0,28.0
98,40.82699199999999,41.751065149999995,72.0,55.0
99,42.160323999999996,42.52513844999999,64.0,64.0
100,41.71587999999999,42.542731024999995,57.0,34.0
101,39.49365999999999,42.54550879999999,45.0,70.0
102,39.938103999999996,42.55013842499999,52.0,52.0
103,42.60476799999999,42.99891443124999,67.0,61.0
104,43.03730724999999,43.49980678749999,69.0,67.0
105,43.03730724999999,43.543556743749996,65.0,69.0
106,43.03730724999999,43.551592449999994,60.0,67.0
107,43.03730724999999,44.27302029999999,50.0,69.0
108,43.894449249999994,44.274806012499994,60.0,72.0
109,43.465878249999996,44.34266308749999,57.0,46.0
110,44.32302024999999,44.73942194999999,69.0,60.0
111,44.763495999999996,45.211643699999996,60.0,64.0
112,44.763495999999996,45.21997702499999,64.0,66.0
113,44.763495999999996,45.24312514999999,67.0,66.0
114,45.65238399999999,45.96627257499999,60.0,51.0
115,45.09682899999999,45.990346624999994,57.0,35.0
116,44.763495999999996,46.02090214999999,48.0,56.0
117,46.096827999999995,46.52090164999999,67.0,45.0
118,46.54127199999999,47.08428579791666,62.0,60.0
119,46.54127199999999,47.15891263124999,65.0,64.0
120,46.54127199999999,47.37439761249999,47.0,61.0
121,46.98820375,47.42663639583333,53.0,28.0
122,47.43596475,47.924770508333324,59.0,57.0
123,48.328998999999996,49.19010924999999,65.0,44.0
124,48.77344299999999,49.22436847499999,71.0,42.0
125,47.883725749999996,49.27714619999999,62.0,60.0
126,49.21788699999999,49.291035074999996,74.0,64.0
127,50.10677499999999,50.86881127499999,43.0,67.0
128,50.55121899999999,50.97621857499999,50.0,44.0
129,50.10677499999999,51.43732922499999,65.0,66.0
130,50.10677499999999,51.48732917499999,62.0,57.0
131,50.99566299999999,51.600292024999995,55.0,52.0
132,50.10677499999999,51.64195864999999,70.0,62.0
133,51.44010699999999,52.412328249999995,57.0,54.0
134,52.32899499999999,52.551216999999994,62.0,49.0
135,52.773438999999996,53.04103132499999,64.0,64.0
136,52.773438999999996,53.05677204999999,60.0,62.0
137,52.773438999999996,53.11325347499999,67.0,64.0
138,52.773438999999996,53.294734774999995,48.0,64.0
139,53.21788299999999,53.35769767499999,62.0,52.0
140,53.21788299999999,53.38917912499999,65.0,66.0
141,53.66232699999999,54.13084504999999,64.0,54.0
142,53.66232699999999,54.15306724999999,61.0,61.0
143,53.66232699999999,54.216030149999995,69.0,61.0
144,53.66232699999999,54.901534812499996,45.0,67.0
145,54.55121499999999,55.013944968749996,61.0,67.0
146,54.106770999999995,55.43121146874999,57.0,44.0
147,54.98606724999999,56.18767237499999,69.0,62.0
148,55.41772224999999,56.252487124999995,65.0,56.0
149,56.30341299999999,56.58952382499999,62.0,53.0
150,55.41772224999999,56.625634899999994,50.0,66.0
151,55.858968999999995,56.65804227499999,57.0,46.0
152,56.525634999999994,56.69970889999999,64.0,62.0
153,56.74785699999999,56.90711609999999,65.0,59.0
154,56.97007899999999,57.162671399999994,67.0,55.0
155,57.19230099999999,57.681189399999994,65.0,67.0
156,57.19230099999999,57.69507827499999,62.0,59.0
157,57.19230099999999,57.746930074999995,70.0,62.0
158,58.081188999999995,58.48952192499999,62.0,54.0
159,58.081188999999995,58.49137377499999,65.0,62.0
160,58.081188999999995,58.53304039999999,70.0,54.0
161,58.97007699999999,59.391372874999995,65.0,72.0
162,58.97007699999999,59.44415059999999,62.0,60.0
163,58.97007699999999,59.44507652499999,70.0,58.0
164,58.52563299999999,59.96081674999999,55.0,27.0
165,57.63674499999999,60.22563129999999,50.0,32.0
166,59.85896499999999,60.262668299999994,65.0,73.0
167,57.19230099999999,60.26914977499999,43.0,69.0
168,59.85896499999999,60.30711269999999,62.0,63.0
169,59.85896499999999,60.35248302499999,70.0,60.0
170,60.30340899999999,60.65433457499999,55.0,41.0
171,60.74785299999999,60.89692692499999,69.0,51.0
172,60.74785299999999,61.20803772499999,60.0,64.0
173,60.74785299999999,61.220074749999995,65.0,61.0
174,60.74785299999999,61.25618582499999,67.0,63.0
175,61.636740999999994,61.85988892499999,65.0,66.0
176,61.636740999999994,61.88766667499999,67.0,62.0
177,61.636740999999994,61.95248142499999,72.0,60.0
178,62.30340699999999,62.575628949999995,72.0,44.0
179,62.08118499999999,62.65711034999999,60.0,39.0
180,62.414517999999994,62.70155474999999,77.0,49.0
181,62.525628999999995,62.79322132499999,84.0,49.0
182,61.19229699999999,63.79322032499999,53.0,36.0
183,61.636740999999994,63.91729427499999,55.0,47.0
184,60.74785299999999,63.95710904999999,48.0,64.0
185,64.39460049999998,65.24247825416666,84.0,58.0
186,64.39460049999998,65.46771420833332,53.0,61.0
187,64.96063849999999,65.55733689166665,60.0,56.0
188,65.5266765,66.18469567499999,72.0,44.0
189,65.5266765,66.27774247499998,65.0,35.0
190,66.09271449999999,66.94440847499999,77.0,38.0
191,67.01200099999998,67.56940784999998,69.0,30.0
192,66.09271449999999,67.64996332499999,67.0,46.0
193,67.45644499999999,67.73885212499998,72.0,47.0
194,67.45644499999999,67.79625947499999,79.0,61.0
195,67.90088899999998,68.03051849999999,77.0,48.0
196,68.34533299999998,68.78792514999998,76.0,58.0
197,68.34533299999998,68.80736957499998,72.0,47.0
198,69.67866499999998,70.35459024999999,60.0,46.0
199,69.67866499999998,70.46014569999998,69.0,48.0
200,69.67866499999998,70.46847902499998,64.0,48.0
201,68.78977699999999,71.28699672499998,52.0,33.0
202,69.23422099999998,71.33977444999998,57.0,46.0
203,68.34533299999998,71.34532999999999,45.0,51.0
204,71.01199699999998,71.38144107499998,72.0,55.0
205,71.90088499999999,72.41569929999999,60.0,49.0
206,71.90088499999999,72.44440297499999,65.0,58.0
207,71.90088499999999,72.52310659999998,69.0,47.0
208,72.78977299999998,73.24717994999999,60.0,47.0
209,73.23421699999999,73.94964499999998,67.0,49.0
210,71.90088499999999,74.06205515624998,50.0,51.0
211,72.34532899999998,74.18165956249999,57.0,41.0
212,74.64029299999999,74.89209174999998,57.0,18.0
213,74.53237924999998,74.94065293749998,60.0,47.0
214,74.53237924999998,74.94604862499997,64.0,59.0
215,74.53237924999998,74.97752346874998,48.0,55.0
216,75.40528099999997,76.02472482499998,62.0,48.0
217,75.40528099999997,76.10435437499997,65.0,53.0
218,75.40528099999997,76.19602094999998,47.0,50.0
219,75.84972499999998,76.29416899999998,53.0,31.0
220,76.29416899999998,76.88490914999998,57.0,48.0
221,76.73861299999997,77.32657537499998,62.0,33.0
222,76.73861299999997,77.48398262499998,65.0,40.0
223,76.73861299999997,77.57101957499998,69.0,40.0
224,77.62750099999998,78.06268574999997,62.0,28.0
225,76.73861299999997,78.09972274999998,59.0,47.0
226,78.07194499999997,78.48583347499998,67.0,64.0
227,78.51638899999998,78.89231454999998,69.0,48.0
228,78.96083299999998,79.92472092499997,65.0,48.0
229,78.96083299999998,79.93768387499998,62.0,49.0
230,78.96083299999998,79.99509122499998,70.0,72.0
231,78.96083299999998,80.32286867499998,43.0,57.0
232,79.40527699999998,80.33675754999997,50.0,36.0
233,80.29416499999998,80.50805367499997,62.0,53.0
234,79.84972099999997,80.66175722499997,55.0,51.0
235,80.73860899999998,81.52008969999997,60.0,60.0
236,80.73860899999998,81.66360807499998,67.0,57.0
237,80.73860899999998,81.67286732499997,65.0,64.0
238,81.62749699999998,82.01082994999997,57.0,63.0
239,81.18305299999997,82.09416319999998,53.0,30.0
240,80.73860899999998,82.11268169999998,48.0,61.0
241,82.07194099999998,82.46082949999997,65.0,53.0
242,82.51638499999997,83.00342154999998,67.0,48.0
243,82.51638499999997,83.10897699999998,64.0,66.0
244,83.40527299999998,83.77193929999997,64.0,49.0
245,83.40527299999998,83.82193924999997,61.0,80.0
246,82.51638499999997,83.82379109999998,45.0,53.0
247,83.40527299999998,83.88119844999997,69.0,49.0
248,82.96082899999998,83.89138362499997,57.0,48.0
249,83.84971699999997,83.93490209999997,49.0,64.0
250,84.29416099999997,84.85897524999997,69.0,66.0
251,84.29416099999997,84.91453074999998,65.0,69.0
252,85.18304899999998,85.34878957499998,64.0,49.0
253,85.18304899999998,85.37008584999998,62.0,45.0
254,84.29416099999997,85.39601174999997,50.0,67.0
255,85.18304899999998,85.53675234999997,67.0,61.0
256,84.73860499999998,85.60619672499998,57.0,35.0
257,85.62749299999997,85.74786324999998,69.0,61.0
258,85.62749299999997,85.76360397499998,65.0,60.0
259,86.07193699999998,86.61175127499997,62.0,48.0
260,86.07193699999998,86.61452904999997,65.0,48.0
261,86.07193699999998,86.65064012499998,70.0,66.0
262,86.62749199999998,87.05341749999998,50.0,39.0
263,86.96082499999997,87.34415794999998,62.0,52.0
264,86.96082499999997,87.35712089999998,65.0,64.0
265,86.96082499999997,87.39323197499998,70.0,60.0
266,86.96082499999997,87.39508382499997,55.0,48.0
267,87.40526899999998,87.87656482499997,50.0,46.0
268,87.84971299999998,88.25063852499997,65.0,52.0
269,87.84971299999998,88.28674959999998,55.0,40.0
270,87.84971299999998,88.30526809999998,62.0,46.0
271,87.84971299999998,88.30989772499998,70.0,54.0
272,86.07193699999998,88.83304534999998,43.0,34.0
273,88.73860099999997,89.08119324999998,70.0,63.0
274,88.29415699999998,89.08582287499998,50.0,32.0
275,88.73860099999997,89.09045249999997,65.0,69.0
276,88.73860099999997,89.09508212499998,62.0,57.0
277,89.18304499999998,89.29045229999997,55.0,47.0
278,89.62748899999998,90.09600704999998,67.0,45.0
279,89.62748899999998,90.12193294999997,60.0,51.0
280,89.62748899999998,90.12378479999998,65.0,57.0
281,89.62748899999998,90.45804372499998,72.0,67.0
282,90.51637699999998,90.84878407499998,60.0,53.0
283,90.73859899999998,90.98119134999997,65.0,48.0
284,89.62748899999998,91.04878387499997,48.0,70.0
285,90.96082099999998,91.05804312499998,67.0,56.0
286,90.07193299999997,91.06267274999998,53.0,32.0
287,90.29415499999998,91.22841332499998,55.0,50.0
288,91.18304299999997,91.43396867499997,72.0,57.0
289,91.40526499999999,91.60989442499998,77.0,69.0
290,91.62748699999997,91.81730162499997,79.0,60.0
291,91.84970899999998,92.08489394999998,84.0,46.0
292,92.07193099999998,92.25711599999998,72.0,43.0
293,92.29415299999998,92.47656022499999,77.0,58.0
294,91.40526499999999,92.63859709999997,48.0,59.0
295,92.51637499999998,92.66915262499998,79.0,54.0
296,91.62748699999997,92.76081919999997,53.0,47.0
297,92.62748599999998,92.77285622499997,55.0,31.0
298,92.73859699999997,92.81174507499998,81.0,53.0
299,92.96081899999997,93.11359662499999,82.0,57.0
300,93.18304099999997,93.53859619999997,72.0,69.0
301,93.18304099999997,93.54878137499998,41.0,67.0
302,93.40526299999998,93.58489244999998,48.0,51.0
303,93.18304099999997,93.63304054999998,84.0,61.0
304,93.18304099999997,93.65063312499998,77.0,70.0
305,93.62748499999998,93.87007734999997,53.0,45.0
306,94.07192899999998,94.21174367499998,57.0,63.0
307,93.84970699999998,94.21266959999997,55.0,59.0
308,94.29415099999997,94.45526194999998,60.0,46.0
309,94.51637299999997,94.74600239999998,65.0,61.0
310,94.73859499999998,94.89970594999997,67.0,62.0
311,94.96081699999998,95.43581652499998,69.0,60.0
312,94.96081699999998,95.44044614999999,65.0,60.0
313,94.96081699999998,95.47007574999998,60.0,60.0
314,94.96081699999998,95.96359377499998,53.0,60.0
315,95.84970499999997,96.21081574999998,65.0,62.0
316,95.84970499999997,96.24414904999998,60.0,58.0
317,95.84970499999997,96.26914902499998,69.0,59.0
318,94.96081699999998,96.41142195416664,41.0,62.0
319,96.29414899999998,96.4730414958333,53.0,49.0
320,96.72216049999997,97.17726482916663,67.0,62.0
321,96.72216049999997,97.27497581666664,70.0,64.0
322,96.72216049999997,97.29082084166663,62.0,61.0
323,97.56722849999997,97.99592445416664,67.0,67.0
324,97.56722849999997,98.06722706666663,62.0,60.0
325,97.56722849999997,98.08747348749996,70.0,62.0
326,96.72216049999997,98.5588560708333,53.0,46.0
327,98.44154874999997,98.99250854374996,67.0,59.0
328,98.44154874999997,99.04731606249996,70.0,38.0
329,98.44154874999997,99.06462369999997,62.0,48.0
330,99.36462274999997,99.80404443541663,70.0,61.0
331,99.36462274999997,99.80692904166663,67.0,66.0
332,96.72216049999997,99.82039053749996,41.0,60.0
333,98.90308574999996,99.8251982145833,53.0,28.0
334,99.36462274999997,99.88769801666663,62.0,67.0
335,100.27001024999997,100.80011828124996,65.0,73.0
336,100.27001024999997,100.82566565624997,62.0,64.0
337,100.27001024999997,100.96982584374996,70.0,70.0
338,101.14592024999996,101.48898499999997,65.0,72.0
339,101.14592024999996,101.49810906249996,62.0,64.0
340,101.14592024999996,101.54099215624997,70.0,52.0
341,100.59847649999996,102.09243767499996,55.0,21.0
342,102.02669699999996,102.42206697499996,60.0,62.0
343,102.02669699999996,102.44614102499996,69.0,62.0
344,102.02669699999996,102.45354842499997,65.0,67.0
345,102.47114099999996,102.69984447499996,55.0,37.0
346,101.58387524999996,102.74428887499997,50.0,48.0
347,100.27001024999997,102.76651107499995,43.0,64.0
348,102.91558499999996,103.33132532499997,65.0,54.0
349,102.91558499999996,103.38873267499996,36.0,70.0
350,102.91558499999996,103.39706599999997,70.0,69.0
351,102.91558499999996,103.44614002499996,60.0,48.0
352,103.36002899999995,103.51558439999997,48.0,56.0
353,103.36002899999995,103.52299179999996,67.0,72.0
354,103.80447299999996,104.23595404999996,53.0,48.0
355,103.80447299999996,104.28225029999996,65.0,64.0
356,103.80447299999996,104.37669464999996,60.0,67.0
357,103.80447299999996,104.40354647499996,69.0,69.0
358,104.36002799999996,104.83317567499996,53.0,35.0
359,104.69336099999995,105.00076809999996,60.0,67.0
360,104.69336099999995,105.04613842499995,65.0,73.0
361,104.69336099999995,105.11373094999996,69.0,72.0
362,105.13780499999996,105.30076779999996,60.0,57.0
363,105.13780499999996,105.52576757499996,67.0,61.0
364,105.36002699999996,105.58224899999996,53.0,39.0
365,105.58224899999996,105.67576742499996,60.0,72.0
366,105.58224899999996,105.73224884999996,69.0,73.0
367,106.02669299999997,106.29891494999995,53.0,48.0
368,106.47113699999996,106.60632204999996,69.0,66.0
369,106.47113699999996,106.70354417499996,53.0,60.0
370,103.80447299999996,106.73409969999996,41.0,67.0
371,106.47113699999996,106.88224769999997,77.0,76.0
372,106.91558099999996,107.11650672499997,40.0,53.0
373,106.91558099999996,107.12298819999997,67.0,59.0
374,106.91558099999996,107.22946957499995,74.0,70.0
375,107.36002499999996,107.85909857499996,63.0,72.0
376,107.36002499999996,108.04706134999996,60.0,66.0
377,107.36002499999996,108.05354282499997,65.0,72.0
378,107.36002499999996,108.06372799999995,69.0,63.0
379,107.36002499999996,108.56465342499996,53.0,67.0
380,108.24891299999996,108.73224584999996,63.0,72.0
381,107.36002499999996,108.79983837499996,41.0,67.0
382,108.69335699999996,108.79983837499996,41.0,53.0
383,108.69335699999996,108.88872717499996,53.0,43.0
384,108.24891299999996,108.97113449999996,65.0,64.0
385,108.24891299999996,108.99520854999996,60.0,63.0
386,108.91557899999997,109.01743074999996,43.0,55.0
387,108.24891299999996,109.04613442499996,69.0,61.0
388,109.13780099999995,109.74057817499997,63.0,75.0
389,109.13780099999995,109.86465212499996,65.0,73.0
390,109.13780099999995,109.88780024999996,69.0,67.0
391,109.13780099999995,109.89613357499996,60.0,75.0
392,109.13780099999995,110.32483684999995,45.0,64.0
393,110.02668899999996,110.40354047499996,65.0,70.0
394,110.02668899999996,110.41742934999996,63.0,72.0
395,110.02668899999996,110.45724412499996,60.0,66.0
396,110.02668899999996,110.47298484999996,69.0,66.0
397,110.47113299999995,111.00261394999995,45.0,72.0
398,110.91557699999996,111.59150224999996,62.0,70.0
399,110.91557699999996,111.59428002499996,65.0,75.0
400,110.91557699999996,111.61094667499997,70.0,73.0
401,110.91557699999996,112.06650177499996,46.0,82.0
402,111.80446499999996,112.39520514999995,65.0,70.0
403,111.80446499999996,112.45353842499996,70.0,69.0
404,111.80446499999996,112.49150134999996,62.0,66.0
405,112.24890899999995,112.55261239999996,46.0,69.0
406,112.69335299999996,113.36742639999996,62.0,67.0
407,112.69335299999996,113.37113009999996,69.0,72.0
408,112.69335299999996,113.38038934999996,65.0,73.0
409,112.69335299999996,113.87761107499996,47.0,63.0
410,113.58224099999995,114.14798117499996,65.0,72.0
411,113.58224099999995,114.16464782499996,62.0,67.0
412,113.58224099999995,114.16557374999996,69.0,66.0
413,114.02668499999996,114.40816609999996,47.0,62.0
414,114.47112899999996,115.12760982499996,69.0,69.0
415,114.47112899999996,115.17020237499996,65.0,75.0
416,114.47112899999996,115.18501717499996,60.0,72.0
417,114.47112899999996,115.58038714999996,48.0,80.0
418,115.36001699999996,115.86557204999995,60.0,70.0
419,115.36001699999996,115.90446089999996,69.0,69.0
420,115.36001699999996,115.93727340624996,65.0,75.0
421,115.84149799999996,116.26019033124996,48.0,61.0
422,116.22807224999995,116.88683699999994,71.0,80.0
423,116.22807224999995,116.90149216874995,62.0,63.0
424,116.22807224999995,116.91787147499994,67.0,76.0
425,117.05925074999995,117.50235408749995,71.0,78.0
426,116.22807224999995,117.51614718749995,43.0,67.0
427,117.05925074999995,117.56011269374994,67.0,80.0
428,117.05925074999995,117.56959544999995,62.0,76.0
429,117.93082274999995,118.38456296041662,60.0,73.0
430,117.93082274999995,118.41409052291661,65.0,73.0
431,117.93082274999995,118.49283068958327,67.0,75.0
432,117.93082274999995,118.66267814999995,72.0,67.0
433,118.40326374999995,118.88640972083329,55.0,29.0
434,118.84746049999995,119.06122831666661,65.0,69.0
435,118.84746049999995,119.09383696666661,67.0,75.0
436,118.84746049999995,119.14999630833329,72.0,66.0
437,118.84746049999995,119.33477865833329,60.0,59.0
438,119.71702449999995,120.74510277083328,60.0,47.0
439,119.71702449999995,120.75053754583328,77.0,61.0
440,119.71702449999995,120.75506652499995,84.0,64.0
441,119.71702449999995,120.77137084999995,72.0,56.0
442,117.93082274999995,120.91901557083328,48.0,73.0
443,119.28224249999995,120.99781980833329,55.0,47.0
444,121.46339899999995,122.02953088958328,65.0,78.0
445,121.46339899999995,122.04010777916662,60.0,75.0
446,121.46339899999995,122.14972281666662,69.0,70.0
447,121.46339899999995,122.28529931041662,72.0,67.0
448,121.90784299999996,122.58145221874994,53.0,37.0
449,122.36510674999995,122.83048989166662,60.0,70.0
450,122.36510674999995,122.83241296249994,65.0,73.0
451,122.36510674999995,122.85645134791662,69.0,63.0
452,122.36510674999995,122.93048957499995,72.0,37.0
453,122.82664374999995,123.45852954999995,53.0,57.0
454,123.28818074999995,123.59150829999996,72.0,32.0
455,123.28818074999995,123.61101184999995,64.0,62.0
456,123.28818074999995,123.64026717499996,60.0,60.0
457,123.28818074999995,123.67218207499995,67.0,64.0
458,124.14824599999996,124.21296232499996,72.0,44.0
459,123.72271399999995,124.29806872499996,53.0,46.0
460,124.14824599999996,124.44434534999996,65.0,78.0
461,124.14824599999996,124.48423897499995,69.0,72.0
462,124.14824599999996,124.52945174999996,60.0,76.0
463,121.46339899999995,124.58973544999996,41.0,75.0
464,124.57377799999996,124.68977635416663,53.0,59.0
465,125.02631374999996,125.64650409374995,65.0,70.0
466,125.02631374999996,125.66669633749996,70.0,75.0
467,125.02631374999996,125.68111936874996,62.0,64.0
468,125.02631374999996,126.11765644791662,53.0,61.0
469,125.94938774999996,126.40323246666662,65.0,59.0
470,125.94938774999996,126.50130907916662,70.0,70.0
471,125.94938774999996,126.52438592916663,62.0,61.0
472,126.41092474999995,126.99204927499996,53.0,35.0
473,126.85964199999995,127.28371564999995,65.0,61.0
474,126.85964199999995,127.33741929999995,62.0,55.0
475,126.85964199999995,127.35408594999996,70.0,58.0
476,127.30408599999996,127.86056692499996,53.0,38.0
477,127.74852999999996,128.09204817499995,65.0,76.0
478,127.74852999999996,128.11704814999996,62.0,72.0
479,125.02631374999996,128.14945552499995,41.0,69.0
480,127.74852999999996,128.19389992499995,70.0,72.0
481,128.19297399999996,128.3463642708333,41.0,66.0
482,128.08186299999994,128.35095984374996,53.0,61.0
483,128.41437874999997,128.5669517708333,43.0,66.0
484,128.63496624999996,129.1322072395833,65.0,67.0
485,128.63496624999996,129.17264828124996,62.0,63.0
486,128.63496624999996,129.20022171874996,70.0,66.0
487,128.96584749999997,129.62944822916663,55.0,44.0
488,129.51731624999996,130.00444697916663,65.0,70.0
489,129.51731624999996,130.0448880208333,62.0,66.0
490,129.51731624999996,130.07058356249996,70.0,63.0
491,129.95849124999995,130.37903703124996,55.0,55.0
492,128.57981937499997,130.43029606249996,43.0,85.0
493,130.39252624999997,130.86824603124995,67.0,63.0
494,130.39252624999997,130.91321009374997,69.0,62.0
495,130.39252624999997,130.95187918749997,65.0,69.0
496,130.39252624999997,130.96267056249997,60.0,72.0
497,130.39252624999997,131.54360624999995,48.0,70.0
498,131.25583624999996,131.67310274999997,64.0,66.0
499,131.25583624999996,131.69468549999996,60.0,62.0
500,131.25583624999996,131.70367831249996,67.0,72.0
501,131.25583624999996,131.75403806249997,70.0,64.0
502,131.68749124999997,131.82148415624997,48.0,70.0
503,132.11914624999997,132.59756387499996,60.0,67.0
504,132.11914624999997,132.65871499999997,65.0,64.0
505,132.11914624999997,132.69558553124998,67.0,67.0
506,132.11914624999997,132.73875103124996,69.0,64.0
507,132.98245624999996,133.32957881249996,67.0,62.0
508,132.98245624999996,133.36644934374996,60.0,70.0
509,132.98245624999996,133.39342778124995,65.0,69.0
510,132.98245624999996,133.5874094083333,69.0,61.0
511,132.11914624999997,133.96048514999995,53.0,64.0
512,133.86817774999994,134.3431762458333,60.0,56.0
513,133.86817774999994,134.42009907916662,65.0,66.0
514,133.86817774999994,134.42298368541663,67.0,66.0
515,133.86817774999994,134.51721415624996,69.0,52.0
516,134.09894624999995,134.84029005624996,53.0,46.0
517,134.79125174999996,135.0758662333333,67.0,64.0
518,134.79125174999996,135.13548142916662,60.0,69.0
519,134.79125174999996,135.14317371249996,65.0,66.0
520,134.79125174999996,135.14413524791664,69.0,59.0
521,132.11914624999997,135.42056253124994,41.0,62.0
522,135.13740449999995,135.47387117708328,53.0,49.0
523,135.47846674999997,135.72754680208328,48.0,66.0
524,135.69905424999996,136.26522883333328,60.0,62.0
525,135.69905424999996,136.29188315624995,69.0,62.0
526,135.69905424999996,136.2992360729166,65.0,50.0
527,135.69905424999996,136.32129482291663,63.0,70.0
528,136.14022924999995,136.72938169791664,53.0,37.0
529,135.69905424999996,136.87827826041664,41.0,75.0
530,137.02257924999995,137.20148189791664,53.0,40.0
531,136.58140424999996,137.27385018749996,69.0,64.0
532,137.02257924999995,137.29640653749996,41.0,62.0
533,136.58140424999996,137.30768471249996,65.0,67.0
534,136.58140424999996,137.31426364791662,60.0,67.0
535,136.58140424999996,137.33306060624997,63.0,70.0
536,137.47121824999996,137.61313528541663,53.0,61.0
537,137.47121824999996,137.69490205416662,41.0,76.0
538,137.47121824999996,137.8368190895833,65.0,66.0
539,137.47121824999996,137.8668942229166,63.0,70.0
540,137.47121824999996,137.92610464166663,60.0,70.0
541,137.69678174999996,137.95899931874996,43.0,64.0
542,137.47121824999996,138.30110396041664,69.0,69.0
543,137.92234524999995,138.63944921041661,45.0,85.0
544,138.37347224999996,138.7362535458333,65.0,70.0
545,138.37347224999996,138.75880989583328,63.0,75.0
546,138.37347224999996,138.76256928749996,60.0,73.0
547,138.37347224999996,138.83587742499995,69.0,59.0
548,138.82459924999995,139.35279377916663,45.0,66.0
549,139.27572624999996,140.05955941249996,62.0,72.0
550,139.27572624999996,140.09903302499995,65.0,76.0
551,139.27572624999996,140.12440891874996,70.0,72.0
552,139.83963499999996,140.3969648145833,58.0,33.0
553,140.17798024999996,140.72027249791662,65.0,73.0
554,140.17798024999996,140.75252729999997,70.0,73.0
555,140.17798024999996,140.75341382499997,62.0,72.0
556,140.62910724999995,140.78089609999995,58.0,50.0
557,139.27572624999996,140.81635709999995,46.0,91.0
558,141.06103799999997,141.71263387499997,62.0,66.0
559,141.06103799999997,141.78178282499996,65.0,72.0
560,141.06103799999997,141.88461972499996,69.0,70.0
561,141.06103799999997,142.34295314999997,59.0,60.0
562,141.91210199999995,142.37841414999997,62.0,60.0
563,141.06103799999997,142.40678294999995,47.0,64.0
564,142.33763399999995,142.47272067499995,69.0,57.0
565,142.77734999999996,143.32457167499996,65.0,60.0
566,142.77734999999996,143.32734944999996,60.0,67.0
567,142.77734999999996,143.35234942499994,69.0,67.0
568,142.77734999999996,143.66531207499995,45.0,72.0
569,143.33290499999995,143.68383057499994,57.0,23.0
570,143.66623799999994,143.96438584999996,48.0,51.0
571,143.66623799999994,144.10975607499995,69.0,75.0
572,143.66623799999994,144.12457087499993,60.0,78.0
573,143.66623799999994,144.12457087499993,65.0,75.0
574,144.11068199999994,144.23025163124993,48.0,70.0
575,144.56013824999994,145.14002441458328,65.0,72.0
576,144.56013824999994,145.1588213729166,62.0,67.0
577,144.56013824999994,145.1926558979166,70.0,66.0
578,144.56013824999994,145.37122700208326,43.0,67.0
579,144.56013824999994,145.4041216791666,55.0,48.0
580,145.46239224999994,146.04911115624992,48.0,72.0
581,145.46239224999994,146.05367318749992,65.0,69.0
582,145.46239224999994,146.06827168749993,69.0,64.0
583,145.46239224999994,146.08195778124994,60.0,69.0
584,146.35476724999992,146.77356171874993,41.0,72.0
585,146.35476724999992,146.80275871874994,69.0,62.0
586,146.35476724999992,146.82739368749992,60.0,69.0
587,146.79272224999994,146.82739368749992,60.0,44.0
588,146.35476724999992,146.87301399999993,65.0,66.0
589,146.79272224999994,147.11115203124993,77.0,69.0
590,146.35476724999992,147.16772121874993,53.0,56.0
591,146.79272224999994,147.16772121874993,53.0,51.0
592,147.23067724999993,147.45604159374994,76.0,46.0
593,147.23067724999993,147.57647921874994,65.0,44.0
594,147.23067724999993,147.57647921874994,65.0,73.0
595,147.23067724999993,147.63669803124992,60.0,70.0
596,147.23067724999993,147.67593149999993,55.0,60.0
597,147.66863224999994,147.75257362499994,57.0,67.0
598,147.23067724999993,147.76625971874992,70.0,75.0
599,147.66863224999994,147.85750034374993,72.0,64.0
600,147.66863224999994,147.94691615624993,79.0,55.0
601,148.10658724999993,148.75530809374993,69.0,48.0
602,147.66863224999994,148.78997953124994,67.0,43.0
603,147.88760974999994,148.99435853124993,72.0,67.0
604,149.42045224999993,149.72448951874992,69.0,48.0
605,149.64272274999993,149.84572989999992,70.0,55.0
606,149.86828624999993,150.38896199583326,72.0,63.0
607,150.77054024999993,151.13332154583327,69.0,56.0
608,150.3194132499999,151.15775759166658,58.0,48.0
609,151.2216672499999,152.10230537499993,65.0,55.0
610,149.86828624999993,152.57730489999992,53.0,63.0
611,151.2216672499999,152.64694768749993,72.0,62.0
612,150.77054024999993,152.82373322499993,60.0,44.0
613,152.72730474999992,152.91837598749993,70.0,48.0
614,152.51301924999993,152.93266168749992,65.0,29.0
615,151.2216672499999,152.94159024999993,77.0,73.0
616,152.94159024999993,153.14595512499992,72.0,44.0
617,153.1598439999999,153.44502889999993,77.0,63.0
618,153.38206599999992,153.7811396749999,72.0,51.0
619,153.38206599999992,153.8209544499999,69.0,47.0
620,153.8265099999999,154.18206519999993,77.0,67.0
621,153.8265099999999,154.18206519999993,89.0,67.0
622,153.8265099999999,154.3728057499999,60.0,40.0
623,154.2709539999999,154.6598424999999,76.0,61.0
624,154.2709539999999,154.6598424999999,88.0,61.0
625,154.2709539999999,154.7598423999999,65.0,39.0
626,154.7153979999999,155.07375082291657,79.0,48.0
627,154.7153979999999,155.07375082291657,91.0,48.0
628,154.9368027499999,155.91474066666657,72.0,62.0
629,154.9368027499999,155.91474066666657,84.0,62.0
630,153.38206599999992,156.1252179062499,53.0,58.0
631,155.1573902499999,156.1417619687499,65.0,45.0
632,154.7153979999999,156.2106955624999,60.0,42.0
633,156.4809152499999,156.71345123958324,69.0,36.0
634,156.4809152499999,156.71345123958324,81.0,36.0
635,156.7015027499999,156.90462707291658,70.0,56.0
636,156.7015027499999,156.90462707291658,82.0,56.0
637,156.9220902499999,157.28973608333322,72.0,51.0
638,156.9220902499999,157.28973608333322,84.0,51.0
639,157.8044402499999,158.13348327083324,70.0,44.0
640,158.2456152499999,159.5263623749999,72.0,60.0
641,158.2456152499999,159.61916531249992,77.0,67.0
642,158.2456152499999,159.7858318124999,65.0,51.0
643,157.8044402499999,159.8776877812499,62.0,32.0
644,156.9220902499999,159.88810443749992,53.0,60.0
645,157.3632652499999,159.94492256249993,58.0,58.0
646,159.60590774999991,160.02920278124992,76.0,63.0
647,160.0604527499999,160.24853728124992,77.0,46.0
648,160.17408899999992,160.32941936458326,74.0,39.0
649,160.50497024999993,161.16581363541658,84.0,58.0
650,160.50497024999993,161.34136452083325,53.0,61.0
651,160.94614524999992,161.4112172291666,60.0,56.0
652,161.38732024999993,161.9001861874999,72.0,44.0
653,161.38732024999993,161.9819873854166,65.0,35.0
654,161.82849524999992,162.64374988541658,77.0,38.0
655,162.71084524999992,163.2641522291666,69.0,30.0
656,161.82849524999992,163.34411519791658,67.0,46.0
657,163.15202024999994,163.43235019791658,72.0,47.0
658,163.15202024999994,163.48933530208325,79.0,61.0
659,163.59319524999992,163.7218712916666,77.0,48.0
660,164.03437024999994,164.47370702083325,76.0,58.0
661,164.03437024999994,164.49300842708325,72.0,47.0
662,165.35789524999993,166.02884889583325,60.0,46.0
663,165.35789524999993,166.13362795833325,69.0,48.0
664,165.35789524999993,166.14189998958327,64.0,48.0
665,164.47554524999993,166.95439728124992,52.0,33.0
666,164.9167202499999,167.0067868124999,57.0,46.0
667,164.03437024999994,167.01230149999992,45.0,51.0
668,166.68142024999992,167.04814696874993,72.0,55.0
669,167.56377024999992,168.07479795833325,60.0,49.0
670,167.56377024999992,168.1032905104166,65.0,58.0
671,167.56377024999992,168.18141524999993,69.0,47.0
672,168.44612024999992,168.90016285416658,60.0,47.0
673,168.8872952499999,169.61523399999993,67.0,49.0
674,167.56377024999992,169.7301233229166,50.0,51.0
675,168.00494524999993,169.85236556249993,57.0,41.0
676,170.3211139999999,170.57846608333327,57.0,18.0
677,170.21082024999993,170.62809827083325,60.0,47.0
678,170.21082024999993,170.63361295833326,64.0,59.0
679,170.21082024999993,170.6657819687499,48.0,55.0
680,171.09317024999993,171.70805790624993,62.0,48.0
681,171.09317024999993,171.7871017604166,65.0,53.0
682,171.09317024999993,171.8780941041666,47.0,50.0
683,171.53434524999992,171.97552024999993,53.0,31.0
684,171.97552024999993,172.5619153541666,57.0,48.0
685,172.41669524999992,173.0003330104166,62.0,33.0
686,172.41669524999992,173.15658248958326,65.0,40.0
687,172.41669524999992,173.24297926041658,69.0,40.0
688,173.29904524999992,173.7310291041666,62.0,28.0
689,172.41669524999992,173.76779368749993,59.0,47.0
690,173.74022024999994,174.1555511812499,67.0,64.0
691,174.18633474999993,174.5650659291666,69.0,48.0
692,174.63409574999991,175.60517741874992,65.0,48.0
693,174.63409574999991,175.61823711458325,62.0,49.0
694,174.63409574999991,175.6760729104166,70.0,72.0
695,174.63409574999991,176.0062966479166,43.0,57.0
696,175.08185674999993,176.02028917916658,50.0,36.0
697,175.97737874999993,176.19134071874993,62.0,53.0
698,175.52961774999991,176.34391373958326,55.0,51.0
699,176.42020024999994,177.19593295833326,60.0,60.0
700,176.42020024999994,177.33839571874992,67.0,57.0
701,176.42020024999994,177.34758686458326,65.0,64.0
702,177.30255024999994,177.68306368749992,57.0,63.0
703,176.86137524999992,177.76578399999994,53.0,30.0
704,176.42020024999994,177.7841662916666,48.0,61.0
705,177.74372524999993,178.12975337499992,65.0,53.0
706,178.18490024999994,178.66835452083328,67.0,48.0
707,178.18490024999994,178.77313358333328,64.0,66.0
708,179.06725024999994,179.43121962499993,64.0,49.0
709,179.06725024999994,179.48085181249994,61.0,80.0
710,178.18490024999994,179.4826900416666,45.0,53.0
711,179.06725024999994,179.53967514583326,69.0,49.0
712,178.62607524999993,179.54978540624992,57.0,48.0
713,179.50842524999993,179.5929837916666,49.0,64.0
714,179.94960024999995,180.51026014583326,69.0,66.0
715,179.94960024999995,180.56540702083328,65.0,69.0
716,180.83195024999992,180.9964717604166,64.0,49.0
717,180.83195024999992,181.01761139583326,62.0,45.0
718,179.94960024999995,181.0433466041666,50.0,67.0
719,180.83195024999992,181.18305202083326,67.0,61.0
720,180.39077524999993,181.25198561458328,57.0,35.0
721,181.27312524999994,181.39296097916662,69.0,61.0
722,181.27312524999994,181.40918234374993,65.0,60.0
723,181.72693024999995,182.2832276354166,62.0,48.0
724,181.72693024999995,182.2860902291666,65.0,48.0
725,181.72693024999995,182.3233039479166,70.0,66.0
726,182.29944899999995,182.7383800416666,50.0,39.0
727,182.64296024999996,183.03799818749994,62.0,52.0
728,182.64296024999996,183.0513569583333,65.0,64.0
729,182.64296024999996,183.08857067708328,70.0,60.0
730,182.64296024999996,183.09047907291662,55.0,48.0
731,183.10097524999995,183.57301457291663,50.0,46.0
732,183.54636024999996,183.9443368645833,65.0,52.0
733,183.54636024999996,183.9801823333333,55.0,40.0
734,183.54636024999996,183.99856462499997,62.0,46.0
735,183.54636024999996,184.00316019791663,70.0,54.0
736,181.95593774999995,184.74304743749997,43.0,34.0
737,184.42871024999997,184.76878264583328,70.0,63.0
738,183.98753524999995,184.77337821874997,50.0,32.0
739,184.42871024999997,184.77797379166662,65.0,69.0
740,184.42871024999997,184.78256936458328,62.0,57.0
741,184.86988524999995,184.97650254166663,55.0,47.0
742,185.31106024999997,185.77613222916662,67.0,45.0
743,185.31106024999997,185.80186743749996,60.0,51.0
744,185.31106024999997,185.80370566666662,65.0,57.0
745,185.31106024999997,186.13550603124995,72.0,67.0
746,186.19341024999997,186.52337238541662,60.0,53.0
747,186.41399774999996,186.6548057708333,65.0,48.0
748,185.31106024999997,186.72190113541663,48.0,70.0
749,186.63458524999996,186.73109228124997,67.0,56.0
750,185.75223524999996,186.73568785416663,53.0,32.0
751,185.97282274999995,186.9002093645833,55.0,50.0
752,186.85517274999995,187.1042528020833,72.0,57.0
753,187.07576024999997,187.27888457291664,77.0,69.0
754,187.29634774999997,187.48476623958328,79.0,60.0
755,187.51693524999996,187.75039035416663,84.0,46.0
756,187.73752274999995,187.92134566666664,72.0,43.0
757,187.95811024999995,188.13917582291663,77.0,58.0
758,187.07576024999997,188.30002087499997,48.0,59.0
759,188.17869774999997,188.33035165624995,79.0,54.0
760,187.29634774999997,188.42134399999995,53.0,47.0
761,188.28899149999995,188.4332924895833,55.0,31.0
762,188.39928524999996,188.47189530208328,81.0,53.0
763,188.61987274999996,188.77152665624996,82.0,57.0
764,188.84046024999995,189.19340024999997,72.0,69.0
765,189.06104774999997,189.23935597916662,48.0,51.0
766,188.84046024999995,189.28714993749995,84.0,61.0
767,188.84046024999995,189.3046131145833,77.0,70.0
768,189.28163524999997,189.5224432708333,53.0,45.0
769,188.84046024999995,189.79725853124995,41.0,67.0
770,189.72281024999995,189.86159655208328,57.0,63.0
771,189.50222274999996,189.86251566666664,55.0,59.0
772,189.71729556249997,190.07023556249996,72.0,69.0
773,189.94339774999995,190.10332368749997,60.0,46.0
774,189.71729556249997,190.16398524999997,84.0,61.0
775,189.71729556249997,190.1814484270833,77.0,70.0
776,190.16398524999997,190.39192566666662,65.0,65.0
777,190.38457274999996,190.54449868749995,67.0,62.0
778,190.60516024999995,191.07666603124997,69.0,60.0
779,190.60516024999995,191.08126160416663,65.0,60.0
780,190.60516024999995,191.1106732708333,60.0,60.0
781,190.15571321874995,191.3781356145833,41.0,65.0
782,190.60516024999995,191.60056134374997,53.0,60.0
783,191.48751024999996,191.84596493749996,65.0,62.0
784,191.48751024999996,191.87905306249996,60.0,58.0
785,191.48751024999996,191.90386915624995,69.0,59.0
786,191.47372353124996,192.0454128020833,41.0,62.0
787,191.92868524999994,192.10975082291662,53.0,49.0
788,192.36986024999996,192.8450424895833,67.0,62.0
789,192.36986024999996,192.9470642083333,70.0,64.0
790,192.36986024999996,192.9636082708333,62.0,61.0
791,193.25221024999996,193.69981905208328,67.0,67.0
792,192.36986024999996,193.75864238541664,41.0,60.0
793,193.25221024999996,193.77426733333328,62.0,60.0
794,193.25221024999996,193.79540696874994,70.0,62.0
795,193.9314359270833,194.0472443645833,41.0,69.0
796,192.36986024999996,194.24669222916663,53.0,46.0
797,194.13456024999996,194.66121290624997,67.0,69.0
798,194.13456024999996,194.71401406249996,70.0,69.0
799,194.13456024999996,194.73080509999997,62.0,69.0
800,194.13639847916662,194.84274534999997,41.0,79.0
801,195.02184974999997,195.44815553541662,70.0,61.0
802,195.02184974999997,195.45095404166662,67.0,66.0
803,194.57573524999995,195.46867791458328,53.0,28.0
804,195.02184974999997,195.52931221666663,62.0,67.0
805,195.02464825624998,195.75878972916664,41.0,100.0
806,195.91737174999997,196.4593491270833,65.0,73.0
807,195.91737174999997,196.48546851874997,62.0,64.0
808,195.91737174999997,196.6328565145833,70.0,70.0
809,196.81289374999997,197.16363986666664,65.0,72.0
810,196.81289374999997,197.1729682208333,62.0,64.0
811,196.81289374999997,197.21681148541663,70.0,52.0
812,197.26065474999996,197.40752135416662,50.0,48.0
813,196.25319249999995,197.56744729166664,55.0,21.0
814,197.51046218749997,197.78527744791663,53.0,62.0
815,197.70347624999997,198.0959381770833,60.0,71.0
816,197.70347624999997,198.11983515624996,69.0,71.0
817,197.70347624999997,198.12718807291662,65.0,71.0
818,197.6961233333333,198.22093776041663,48.0,69.0
819,195.92390159791663,198.44428260416663,43.0,64.0
820,198.36156229166662,198.47001781249998,48.0,74.0
821,198.58582624999997,198.99850869791663,65.0,54.0
822,198.58582624999997,199.0554938020833,36.0,70.0
823,198.58582624999997,199.0637658333333,70.0,69.0
824,198.58582624999997,199.11247890624995,60.0,48.0
825,199.02700124999996,199.18141249999996,48.0,56.0
826,199.02700124999996,199.18876541666663,67.0,72.0
827,199.46817624999997,199.89648364583329,53.0,48.0
828,199.46817624999997,199.94243937499996,65.0,64.0
829,199.46817624999997,200.03618906249997,60.0,67.0
830,199.46817624999997,200.06284338541664,69.0,69.0
831,200.01964499999997,200.4893125520833,53.0,35.0
832,200.35052624999997,200.65567229166663,60.0,67.0
833,200.35052624999997,200.70070890624996,65.0,73.0
834,200.35052624999997,200.7678042708333,69.0,72.0
835,199.46817624999997,200.84409078124997,41.0,67.0
836,200.79170124999996,200.95346541666663,60.0,57.0
837,201.02331812499997,201.09408994791661,41.0,100.0
838,200.79170124999996,201.17681026041663,67.0,61.0
839,201.01228874999995,201.23287624999995,53.0,39.0
840,201.23287624999995,201.32570682291663,60.0,72.0
841,201.23287624999995,201.38177281249997,69.0,73.0
842,201.24114828124996,201.7273598958333,41.0,100.0
843,201.67405124999996,201.94427093749997,53.0,48.0
844,202.11522624999995,202.24941697916663,69.0,66.0
845,202.11522624999995,202.34592401041664,53.0,60.0
846,202.11522624999995,202.52331312499996,77.0,76.0
847,202.55640124999996,202.75650972499994,40.0,53.0
848,202.55640124999996,202.76299119999996,67.0,59.0
849,202.55640124999996,202.86947257499995,74.0,70.0
850,203.00002799999996,203.49910157499994,63.0,72.0
851,203.00002799999996,203.68706434999996,60.0,66.0
852,203.00002799999996,203.69354582499994,65.0,72.0
853,203.00002799999996,203.70373099999995,69.0,63.0
854,203.00002799999996,204.20465642499994,53.0,67.0
855,203.88891599999994,204.37224884999995,63.0,72.0
856,203.00002799999996,204.43984137499996,41.0,67.0
857,204.33335999999994,204.52811042708328,53.0,43.0
858,203.88891599999994,204.60991162499994,65.0,64.0
859,203.88891599999994,204.6338086041666,60.0,63.0
860,204.44447099999994,204.6668967291666,43.0,53.0
861,203.88891599999994,204.68435990624994,69.0,61.0
862,204.77535224999994,205.37369584374994,63.0,75.0
863,204.77535224999994,205.4968571979166,65.0,73.0
864,204.77535224999994,205.51983506249994,69.0,67.0
865,204.77535224999994,205.52810709374992,60.0,75.0
866,204.66505849999993,205.84336339583328,45.0,64.0
867,205.65770224999994,206.0317818854166,65.0,70.0
868,205.65770224999994,206.0455686041666,63.0,72.0
869,205.65770224999994,206.08509053124993,60.0,66.0
870,205.65770224999994,206.1007154791666,69.0,66.0
871,206.09887724999993,206.62644902083326,45.0,72.0
872,206.54005224999995,207.21100589583327,62.0,70.0
873,206.54005224999995,207.21376323958327,65.0,75.0
874,206.54005224999995,207.23030730208328,70.0,73.0
875,206.54005224999995,207.68251167708326,46.0,82.0
876,207.42240224999995,208.0087973541666,65.0,70.0
877,207.42240224999995,208.0667015729166,70.0,69.0
878,207.42240224999995,208.10438527083326,62.0,66.0
879,207.86357724999993,208.16504683333326,46.0,69.0
880,208.30475224999992,208.97562393333328,62.0,67.0
881,208.30475224999992,208.97935527499996,69.0,72.0
882,208.30475224999992,208.98868362916662,65.0,73.0
883,208.30475224999992,209.48961624791662,47.0,63.0
884,209.19204174999996,209.76185326041661,65.0,72.0
885,209.19204174999996,209.77839732291662,62.0,67.0
886,209.19204174999996,209.77931643749994,69.0,66.0
887,209.63980274999994,210.02012445833327,47.0,62.0
888,210.08262424999995,210.7342764895833,69.0,69.0
889,210.08262424999995,210.7765557604166,65.0,75.0
890,210.08262424999995,210.79126159374994,60.0,72.0
891,210.08262424999995,211.18372352083327,48.0,80.0
892,210.96497424999995,211.46681081249994,60.0,70.0
893,210.96497424999995,211.50541362499996,69.0,69.0
894,210.96497424999995,211.5394208645833,65.0,75.0
895,211.29585549999996,211.73427315624994,48.0,61.0
896,211.84732424999996,212.42268997916662,43.0,67.0
897,211.84732424999996,212.54585133333327,71.0,80.0
898,211.84732424999996,212.56147628124995,62.0,63.0
899,211.84732424999996,212.57893945833328,67.0,76.0
900,212.51184409374994,212.6405201354166,43.0,72.0
901,212.73794628124995,213.06055549999994,43.0,72.0
902,212.72967424999996,213.20209914583327,71.0,72.0
903,212.72967424999996,213.26367982291663,67.0,72.0
904,212.72967424999996,213.27379008333327,62.0,72.0
905,213.40706169791662,213.58445081249994,43.0,100.0
906,213.61202424999993,214.03573607291662,60.0,73.0
907,213.61202424999993,214.06330951041662,65.0,73.0
908,213.61202424999993,214.1368386770833,67.0,75.0
909,213.61202424999993,214.30687487499995,72.0,67.0
910,214.05319924999995,214.53389617708328,55.0,29.0
911,214.49437424999994,214.71128529166663,65.0,69.0
912,214.49437424999994,214.7443734166666,67.0,75.0
913,214.49437424999994,214.80135852083328,72.0,66.0
914,214.49437424999994,214.9888578958333,60.0,59.0
915,215.37672424999994,216.4199193020833,60.0,47.0
916,215.37672424999994,216.42543398958327,77.0,61.0
917,215.37672424999994,216.43002956249995,84.0,64.0
918,215.37672424999994,216.44657362499996,72.0,56.0
919,213.61202424999993,216.59638930208328,48.0,73.0
920,214.93554924999995,216.6763522708333,55.0,47.0
921,217.14142424999994,217.70330965624993,65.0,78.0
922,217.14142424999994,217.71372631249994,60.0,75.0
923,217.14142424999994,217.80558228124994,41.0,75.0
924,217.14142424999994,217.82168074999993,69.0,70.0
925,217.14142424999994,217.95520334374993,72.0,67.0
926,217.92963518749994,218.06315778124994,41.0,70.0
927,217.58259924999996,218.24686971874993,53.0,37.0
928,218.03380174999995,218.49213462499995,60.0,70.0
929,218.03380174999995,218.49402856249995,65.0,70.0
930,218.03380174999995,218.51770278124994,69.0,70.0
931,218.03380174999995,218.59061937499993,72.0,70.0
932,218.48834674999995,219.1001431041666,53.0,63.0
933,218.48645281249995,219.3207306041666,41.0,65.0
934,219.37403924999992,219.9722636979166,53.0,46.0
935,219.81521424999994,220.1297063541666,65.0,78.0
936,219.81521424999994,220.1726452604166,69.0,72.0
937,219.81521424999994,220.22130935416658,60.0,76.0
938,219.82072893749992,220.23562232291658,41.0,100.0
939,220.26901924999993,220.39306497916658,53.0,59.0
940,220.72703424999992,221.3409131562499,65.0,70.0
941,220.72703424999992,221.36021456249992,70.0,75.0
942,220.72703424999992,221.37400128124992,62.0,64.0
943,220.72703424999992,221.79127930208324,53.0,61.0
944,220.72703424999992,222.0486313854166,41.0,69.0
945,221.63043424999992,222.06425633333325,65.0,59.0
946,221.63043424999992,222.15800602083326,70.0,70.0
947,221.63043424999992,222.18006477083324,62.0,61.0
948,222.39513758333325,222.49991664583325,41.0,58.0
949,222.0716092499999,222.6442176354166,53.0,35.0
950,222.5320856562499,222.92730492708324,41.0,63.0
951,222.51278424999992,222.93373872916658,65.0,61.0
952,222.51278424999992,222.98704737499992,62.0,61.0
953,222.51278424999992,223.00359143749992,70.0,61.0
954,222.9539592499999,223.50634711458326,53.0,38.0
955,223.39513424999993,223.7361257604166,65.0,76.0
956,223.39513424999993,223.7609418541666,62.0,72.0
957,223.39513424999993,223.83722836458324,70.0,72.0
958,223.39513424999993,223.8795076354166,41.0,100.0
959,223.72601549999993,223.99347784374993,53.0,61.0
960,223.94660299999993,224.09917602083326,42.0,66.0
961,224.27748424999993,224.77472523958326,65.0,67.0
962,224.27748424999993,224.81516628124993,62.0,63.0
963,224.27748424999993,224.84273971874993,70.0,66.0
964,224.6083654999999,225.2719662291666,55.0,44.0
965,224.27748424999993,225.62122977083325,43.0,85.0
966,225.1598342499999,225.6469649791666,65.0,70.0
967,225.1598342499999,225.68740602083324,62.0,66.0
968,225.1598342499999,225.71314122916658,70.0,63.0
969,225.8215967499999,225.98244180208326,43.0,61.0
970,225.60100924999992,226.0283975312499,55.0,55.0
971,225.94383898958324,226.05689008333326,45.0,68.0
972,226.0421842499999,226.52839586458325,67.0,68.0
973,226.0421842499999,226.57435159374992,69.0,68.0
974,226.0421842499999,226.61387352083324,65.0,68.0
975,226.0421842499999,226.62490289583326,60.0,68.0
976,226.0421842499999,227.21865091666658,48.0,68.0
977,226.9245342499999,227.35100341666657,64.0,66.0
978,226.9245342499999,227.37306216666659,60.0,62.0
979,226.9245342499999,227.38225331249993,67.0,72.0
980,226.9245342499999,227.4337237291666,70.0,64.0
981,227.36570924999992,227.50265732291658,48.0,70.0
982,227.8068842499999,228.29585320833326,60.0,67.0
983,227.8068842499999,228.3583529999999,65.0,64.0
984,227.8068842499999,228.39603669791657,67.0,67.0
985,227.8068842499999,228.44015419791657,69.0,64.0
986,228.6892342499999,229.04401247916658,67.0,62.0
987,228.6892342499999,229.08169617708324,60.0,70.0
988,228.6892342499999,229.10926961458324,65.0,69.0
989,227.8068842499999,229.25816617708324,41.0,62.0
990,228.6892342499999,229.3032027916666,69.0,61.0
991,229.45945227083325,229.51459914583324,41.0,100.0
992,227.8068842499999,229.6598192499999,53.0,64.0
993,229.57158424999992,230.02562685416657,60.0,56.0
994,229.57158424999992,230.09915602083325,65.0,66.0
995,229.57158424999992,230.10191336458325,67.0,66.0
996,229.57158424999992,230.1940756562499,69.0,52.0
997,229.58904742708324,230.44502237499992,41.0,100.0
998,229.90246549999992,230.6258934062499,53.0,46.0
999,230.46396174999992,230.7442644999999,67.0,64.0
1000,230.46396174999992,230.8029765624999,60.0,69.0
1001,230.46396174999992,230.8105523124999,65.0,66.0
1002,230.46396174999992,230.81149928124992,69.0,59.0
1003,230.8048704999999,231.13784117708323,53.0,49.0
1004,231.14243674999992,231.39151680208323,48.0,66.0
1005,231.3630242499999,231.92919883333323,60.0,62.0
1006,231.3630242499999,231.9558531562499,69.0,62.0
1007,231.3630242499999,231.96320607291656,65.0,50.0
1008,231.3630242499999,231.98526482291658,63.0,70.0
1009,231.8041992499999,232.3933516979166,53.0,37.0
1010,231.3630242499999,232.54224826041659,41.0,75.0
1011,232.6865492499999,232.86393836458325,53.0,40.0
1012,232.2453742499999,232.93471018749992,69.0,64.0
1013,232.6865492499999,232.9567689374999,41.0,62.0
1014,232.2453742499999,232.9677983124999,65.0,67.0
1015,232.2453742499999,232.97423211458323,60.0,67.0
1016,232.2453742499999,232.9926144062499,63.0,70.0
1017,233.12772424999991,233.26651055208325,53.0,61.0
1018,233.12772424999991,233.34647352083323,41.0,76.0
1019,233.12772424999991,233.48525982291656,65.0,66.0
1020,233.12772424999991,233.51467148958324,63.0,70.0
1021,233.12772424999991,233.57257570833323,60.0,70.0
1022,233.3483117499999,233.6047447187499,43.0,64.0
1023,233.12772424999991,233.93930242708325,69.0,69.0
1024,233.5688992499999,234.27018367708325,45.0,85.0
1025,234.01007424999992,234.3648524791666,65.0,70.0
1026,234.01007424999992,234.38691122916657,63.0,75.0
1027,234.01007424999992,234.3905876874999,60.0,73.0
1028,234.01007424999992,234.4622786249999,69.0,59.0
1029,234.3409554999999,234.85749789583323,45.0,66.0
1030,234.89242424999992,235.6589658124999,62.0,72.0
1031,234.89242424999992,235.69756862499992,65.0,76.0
1032,234.89242424999992,235.7223847187499,70.0,72.0
1033,235.44389299999992,235.98892794791658,58.0,33.0
1034,235.7747742499999,236.30510336458323,65.0,73.0
1035,235.7747742499999,236.3372723749999,70.0,73.0
1036,235.7747742499999,236.33819148958324,62.0,72.0
1037,236.2159492499999,236.36668404166656,58.0,50.0
1038,234.89242424999992,236.4034486249999,46.0,91.0
1039,236.6571242499999,237.3326734687499,62.0,66.0
1040,236.6571242499999,237.4043644062499,65.0,72.0
1041,236.6571242499999,237.51098169791658,69.0,70.0
1042,236.6571242499999,237.9861639374999,59.0,60.0
1043,237.5394742499999,238.02292852083323,62.0,60.0
1044,236.6571242499999,238.0523401874999,47.0,64.0
1045,237.9806492499999,238.11943555208325,69.0,57.0
1046,238.4218242499999,238.9650209687499,65.0,60.0
1047,238.4218242499999,238.96777831249992,60.0,67.0
1048,238.4218242499999,238.9925944062499,69.0,67.0
1049,238.4218242499999,239.30325513541658,45.0,72.0
1050,238.9732929999999,239.32163742708323,57.0,23.0
1051,239.3041742499999,239.60012914583325,48.0,51.0
1052,239.3041742499999,239.74443013541656,69.0,75.0
1053,239.3041742499999,239.75913596874992,60.0,78.0
1054,239.3041742499999,239.75913596874992,65.0,75.0
1055,239.7453492499999,239.8641657187499,48.0,70.0
1056,240.1965517499999,240.7808314687499,65.0,72.0
1057,240.1965517499999,240.7997708437499,62.0,67.0
1058,240.1965517499999,240.83386171874992,70.0,66.0
1059,240.1965517499999,241.0137857812499,43.0,67.0
1060,240.1965517499999,241.0469296874999,55.0,48.0
1061,241.1056417499999,241.69680086458325,48.0,72.0
1062,241.1056417499999,241.7013964374999,65.0,69.0
1063,241.1056417499999,241.71610227083326,69.0,64.0
1064,241.1056417499999,241.72988898958326,60.0,69.0
1065,242.00470424999992,242.42657784374993,41.0,72.0
1066,242.00470424999992,242.45598951041657,69.0,62.0
1067,242.00470424999992,242.4808056041666,60.0,69.0
1068,242.00470424999992,242.52676133333324,65.0,66.0
1069,242.4458792499999,243.01021560416658,53.0,51.0
1070,242.88705424999992,243.23539867708325,65.0,73.0
1071,242.88705424999992,243.29606023958326,60.0,70.0
1072,242.88705424999992,243.33558216666657,55.0,60.0
1073,243.3282292499999,243.41278779166657,57.0,67.0
1074,242.88705424999992,243.42657451041657,70.0,75.0
1075,243.3282292499999,243.5184859687499,72.0,64.0
1076,243.76940424999992,244.28594664583323,65.0,67.0
1077,243.76940424999992,244.29421867708325,62.0,67.0
1078,243.76940424999992,244.32179211458325,70.0,80.0
1079,243.98999174999992,244.81259930208324,55.0,17.0
1080,244.65175424999993,245.0295103437499,70.0,69.0
1081,244.65175424999993,245.0322676874999,65.0,69.0
1082,244.65175424999993,245.04145883333325,62.0,62.0
1083,243.76940424999992,245.04697352083323,43.0,75.0
1084,245.0929292499999,245.20689945833325,55.0,46.0
1085,245.53410424999993,246.0635142499999,69.0,64.0
1086,245.53410424999993,246.09200680208323,60.0,67.0
1087,245.53410424999993,246.12785227083324,65.0,66.0
1088,245.53410424999993,246.59016690624992,57.0,53.0
1089,246.4164542499999,246.82270289583326,65.0,64.0
1090,246.4164542499999,246.83005581249992,60.0,64.0
1091,246.4164542499999,246.84200430208324,69.0,60.0
1092,245.53410424999993,246.8934747187499,45.0,63.0
1093,246.85762924999992,246.96700388541657,57.0,47.0
1094,247.30626824999993,247.88709426249991,65.0,70.0
1095,247.30626824999993,247.95664300833326,62.0,64.0
1096,247.30626824999993,247.97543996666658,70.0,66.0
1097,247.30626824999993,248.46792027499993,58.0,63.0
1098,248.20852224999993,248.67938605624994,65.0,69.0
1099,248.20852224999993,248.68784468749993,62.0,63.0
1100,248.20852224999993,248.7338972354166,70.0,63.0
1101,247.30626824999993,248.80908506874994,46.0,66.0
1102,248.65964924999992,248.85983685624993,58.0,43.0
1103,249.11077624999993,250.02336857708326,60.0,62.0
1104,249.11077624999993,250.45757831458326,67.0,50.0
1105,249.11077624999993,250.55438264999992,65.0,64.0
1106,249.11077624999993,250.76298499999993,72.0,59.0
1107,249.11077624999993,250.79205468749993,48.0,60.0
1108,250.92577524999993,251.45968851041658,61.0,60.0
1109,250.92577524999993,251.51685889583325,69.0,58.0
1110,251.85600524999992,252.2765467291666,61.0,70.0
1111,250.92577524999993,252.27945369791658,45.0,41.0
1112,252.32112024999992,252.60743519791657,64.0,62.0
1113,251.39089024999993,252.71221426041657,57.0,34.0
1114,252.76828024999992,253.3280210312499,60.0,55.0
1115,252.76828024999992,253.3473224374999,65.0,63.0
1116,253.5403364999999,253.9291219687499,69.0,38.0
1117,254.0918052499999,254.22599597916658,72.0,53.0
1118,254.53298024999992,254.6763621249999,77.0,63.0
1119,252.76828024999992,255.49621233333323,50.0,53.0
1120,256.31031024999993,256.7597374687499,43.0,47.0
1121,256.31031024999993,256.7626000624999,55.0,43.0
1122,256.31031024999993,256.78931760416657,65.0,48.0
1123,256.31031024999993,256.8484778749999,70.0,48.0
1124,256.31031024999993,256.85324886458324,62.0,43.0
1125,257.2263402499999,257.59466064583324,45.0,39.0
1126,257.2263402499999,257.61565299999995,60.0,46.0
1127,257.2263402499999,257.6242407812499,65.0,50.0
1128,257.2263402499999,257.63759955208326,57.0,43.0
1129,257.2263402499999,257.6948514270833,69.0,48.0
1130,258.12974024999994,258.57734905208326,62.0,43.0
1131,258.12974024999994,258.5801063958333,65.0,50.0
1132,258.12974024999994,258.6858045729166,70.0,56.0
1133,259.0120902499999,259.5378237916666,62.0,39.0
1134,259.45326524999996,260.6453568645833,65.0,36.0
1135,259.89444024999995,260.7014228541666,72.0,36.0
1136,258.12974024999994,260.76392264583325,46.0,55.0
1137,258.12974024999994,260.7869005104166,58.0,50.0
1138,262.14221024999995,262.48038761458326,77.0,69.0
1139,262.14221024999995,262.53465103124995,60.0,44.0
1140,261.6770952499999,262.54046496875,53.0,56.0
1141,262.60732525,262.84666567708325,76.0,46.0
1142,262.60732525,263.1712771874999,65.0,44.0
1143,263.07244024999994,263.3587551979166,79.0,55.0
1144,263.51960024999994,264.17309071874996,69.0,48.0
1145,263.07244024999994,264.2080170729166,67.0,43.0
1146,263.2990127499999,264.41389873958326,72.0,67.0
1147,264.84312524999996,265.15245683124994,69.0,48.0
1148,265.0688032499999,265.27649489999993,70.0,55.0
1149,265.2995717499999,265.8322623708333,72.0,63.0
1150,266.2226457499999,266.59379842083325,69.0,56.0
1151,265.76110874999995,266.6187983416666,58.0,48.0
1152,266.68418274999993,267.59000554166664,65.0,55.0
1153,265.2995717499999,268.07897449999996,53.0,63.0
1154,266.68418274999993,268.1506654375,72.0,62.0
1155,266.2226457499999,268.332650125,60.0,44.0
1156,268.23338574999997,268.4300762708333,70.0,48.0
1157,268.01279824999995,268.4447821041666,65.0,29.0
1158,266.68418274999993,268.45397325,77.0,73.0
1159,268.45397325,268.66077403124996,72.0,44.0
1160,268.67456074999996,268.95764804166663,77.0,63.0
1161,268.89514825,269.2912866354166,72.0,51.0
1162,268.89514825,269.33080856249995,69.0,47.0
1163,269.33632324999996,269.68926324999995,77.0,67.0
1164,269.33632324999996,269.68926324999995,89.0,67.0
1165,269.33632324999996,269.8786008541666,60.0,40.0
1166,269.77749824999995,270.16352637499995,76.0,61.0
1167,269.77749824999995,270.16352637499995,88.0,61.0
1168,269.77749824999995,270.26279074999997,65.0,39.0
1169,270.21867325,270.5762088229166,79.0,48.0
1170,270.21867325,270.5762088229166,91.0,48.0
1171,270.43926074999996,271.41719866666665,72.0,62.0
1172,270.43926074999996,271.41719866666665,84.0,62.0
1173,268.89514825,271.62767590625,53.0,58.0
1174,270.65984825,271.64421996874995,65.0,45.0
1175,270.21867325,271.71315356249994,60.0,42.0
1176,271.98337324999994,272.2159092395833,69.0,36.0
1177,271.98337324999994,272.2159092395833,81.0,36.0
1178,272.20396074999996,272.40708507291663,70.0,56.0
1179,272.20396074999996,272.40708507291663,82.0,56.0
1180,272.42454825,272.7921940833333,72.0,51.0
1181,272.42454825,272.7921940833333,84.0,51.0
1182,273.30689824999996,273.6359412708333,70.0,44.0
1183,273.74807324999995,274.994392625,72.0,60.0
1184,273.74807324999995,275.08446585416664,77.0,67.0
1185,273.74807324999995,275.2462300208333,65.0,51.0
1186,273.30689824999996,275.33538413541663,62.0,32.0
1187,272.42454825,275.3454943958333,53.0,60.0
1188,272.86572325,275.4006412708333,58.0,58.0
1189,275.07159824999997,275.48244246875,76.0,63.0
1190,275.51277324999995,275.69751528125,77.0,46.0
1191,275.623067,275.7783973645833,74.0,39.0
