,start,end,pitch,velocity
0,2.4693801000000004,2.6428489500000003,54.0,88.0
1,2.4693801000000004,2.6428489500000003,66.0,88.0
2,2.4821351625,2.6556040125000004,78.0,88.0
3,2.8022872312500002,3.3469284000000004,61.0,105.0
4,2.8022872312500002,3.3469284000000004,73.0,105.0
5,2.8150422937500004,3.3609589687500003,85.0,105.0
6,3.3609589687500003,3.607131675,54.0,83.0
7,3.3609589687500003,3.607131675,66.0,83.0
8,3.3737140312500005,3.6198867375000003,78.0,83.0
9,3.7027946437500003,6.934927481250001,61.0,96.0
10,3.7027946437500003,6.934927481250001,73.0,96.0
11,3.7168252125000003,6.948958050000001,85.0,96.0
12,7.2066103125000005,7.371150618750001,54.0,86.0
13,7.2066103125000005,7.371150618750001,66.0,86.0
14,7.2206408812500005,7.383905681250001,78.0,86.0
15,7.461711562500001,7.6007417437500004,61.0,95.0
16,7.461711562500001,7.6007417437500004,73.0,95.0
17,7.4757421312500005,7.613496806250001,85.0,95.0
18,7.728292368750001,8.1224238,61.0,93.0
19,7.728292368750001,8.1224238,73.0,93.0
20,7.741047431250001,8.1351788625,85.0,93.0
21,8.251249931250001,8.400484162500002,54.0,82.0
22,8.251249931250001,8.400484162500002,66.0,82.0
23,8.265280500000001,8.413239225000002,78.0,82.0
24,8.5025246625,8.63135079375,61.0,96.0
25,8.5025246625,8.63135079375,73.0,96.0
26,8.515279725000001,8.64410585625,85.0,96.0
27,8.749972875000001,8.883901031250002,61.0,93.0
28,8.749972875000001,8.883901031250002,73.0,93.0
29,8.764003443750001,8.897931600000001,85.0,93.0
30,9.010176150000001,9.1402777875,54.0,81.0
31,9.010176150000001,9.1402777875,66.0,81.0
32,9.024206718750001,9.15303285,78.0,81.0
33,9.257624362500001,9.397930050000001,54.0,83.0
34,9.257624362500001,9.397930050000001,66.0,83.0
35,9.271654931250001,9.410685112500001,78.0,83.0
36,9.508899093750001,9.633898706250001,61.0,88.0
37,9.508899093750001,9.633898706250001,73.0,88.0
38,9.521654156250001,9.646653768750001,85.0,88.0
39,9.755071800000001,11.20022038125,61.0,95.0
40,9.755071800000001,11.20022038125,73.0,95.0
41,9.767826862500002,11.21297544375,85.0,95.0
42,11.536954031250001,11.6657801625,54.0,88.0
43,11.536954031250001,11.6657801625,66.0,88.0
44,11.550984600000001,11.67981073125,78.0,88.0
45,11.815014393750001,16.28949031875,61.0,90.0
46,11.815014393750001,16.28949031875,73.0,90.0
47,11.827769456250001,16.303520887500003,85.0,90.0
48,16.209133425,16.744846050000003,66.0,93.0
49,16.209133425,16.744846050000003,78.0,93.0
50,16.821376425,17.354538037500003,73.0,90.0
51,16.821376425,17.354538037500003,85.0,90.0
52,17.433619425000003,17.90173021875,76.0,85.0
53,17.433619425000003,17.90173021875,88.0,85.0
54,18.045862425000003,18.34305538125,73.0,85.0
55,18.045862425000003,18.34305538125,85.0,85.0
56,18.351983925000003,18.627493275000003,76.0,81.0
57,18.351983925000003,18.627493275000003,88.0,81.0
58,18.658105425000002,19.46294986875,75.0,86.0
59,18.658105425000002,19.46294986875,87.0,86.0
60,19.576469925,19.869836362500003,73.0,86.0
61,19.576469925,19.869836362500003,85.0,86.0
62,19.882591425,20.4922834125,71.0,90.0
63,19.882591425,20.4922834125,83.0,90.0
64,20.494834425,20.780547825000003,66.0,84.0
65,20.494834425,20.780547825000003,78.0,84.0
66,20.800955925,21.146618118750002,68.0,82.0
67,20.800955925,21.146618118750002,80.0,82.0
68,21.107077425000004,21.614728912500002,69.0,84.0
69,21.107077425000004,21.614728912500002,81.0,84.0
70,21.719320425000003,22.056054075000002,69.0,83.0
71,21.719320425000003,22.056054075000002,81.0,83.0
72,22.025441925000003,22.348145006250004,71.0,83.0
73,22.025441925000003,22.348145006250004,83.0,83.0
74,22.331563425000002,22.626205368750004,68.0,82.0
75,22.331563425000002,22.626205368750004,80.0,82.0
76,22.637684925000002,22.965490031250003,66.0,80.0
77,22.637684925000002,22.965490031250003,78.0,80.0
78,22.943806425000002,23.265234000000003,64.0,90.0
79,22.943806425000002,23.265234000000003,76.0,90.0
80,23.249927925,23.55732493125,68.0,88.0
81,23.249927925,23.55732493125,80.0,88.0
82,23.556049425,26.01139895625,66.0,83.0
83,26.005021425000002,26.01139895625,66.0,93.0
84,23.556049425,26.01139895625,78.0,83.0
85,26.005021425000002,26.54073405,54.0,93.0
86,26.617264425000002,27.1504260375,61.0,90.0
87,26.617264425000002,27.1504260375,73.0,90.0
88,27.229507425,27.69761821875,64.0,85.0
89,27.229507425,27.69761821875,76.0,85.0
90,27.841750425000004,28.13894338125,61.0,85.0
91,27.841750425000004,28.13894338125,73.0,85.0
92,28.147871925000004,28.423381275000004,64.0,81.0
93,28.147871925000004,28.423381275000004,76.0,81.0
94,28.453993425000004,29.258837868750003,63.0,86.0
95,28.453993425000004,29.258837868750003,75.0,86.0
96,29.372357925000003,29.665724362500004,61.0,86.0
97,29.372357925000003,29.665724362500004,73.0,86.0
98,29.678479425000003,30.287704162500003,59.0,90.0
99,29.678479425000003,30.287704162500003,71.0,90.0
100,30.290249983333336,30.57538191666667,54.0,84.0
101,30.290249983333336,30.57538191666667,66.0,84.0
102,30.595748483333338,30.940707206250003,56.0,82.0
103,30.595748483333338,30.940707206250003,68.0,82.0
104,30.901246983333337,31.40786532916667,57.0,84.0
105,30.901246983333337,31.40786532916667,69.0,84.0
106,31.512243983333338,31.848292333333337,69.0,83.0
107,31.512243983333338,31.848292333333337,81.0,83.0
108,31.817742483333337,32.139788818750006,71.0,83.0
109,31.817742483333337,32.139788818750006,83.0,83.0
110,32.12324098333334,32.41728328958334,68.0,82.0
111,32.12324098333334,32.41728328958334,80.0,82.0
112,32.42873948333334,32.75587746041667,66.0,80.0
113,32.42873948333334,32.75587746041667,78.0,80.0
114,32.73423798333334,33.055011408333336,64.0,90.0
115,32.73423798333334,33.055011408333336,76.0,90.0
116,33.039736483333336,33.34650789375,68.0,88.0
117,33.039736483333336,33.34650789375,80.0,88.0
118,33.345234983333334,35.795494385416674,66.0,83.0
119,33.345234983333334,35.795494385416674,78.0,83.0
120,38.53582830208334,38.680792602083336,85.0,83.0
121,38.84101630208334,38.98598060208334,81.0,81.0
122,38.99361030208334,39.12967328541667,80.0,75.0
123,39.14620430208334,39.31024285208334,81.0,72.0
124,39.29879830208334,39.44884906875001,85.0,80.0
125,39.45139230208334,40.186386735416676,78.0,81.0
126,43.57143030208334,43.683332568750004,85.0,75.0
127,43.724024302083336,43.832111718750006,92.0,81.0
128,44.18180630208334,44.25810330208334,85.0,77.0
129,44.33440030208334,44.42595670208334,92.0,76.0
130,44.94477630208334,45.03633270208334,92.0,79.0
131,48.14925030208334,48.236991852083335,80.0,78.0
132,48.30184430208334,48.440450518750005,81.0,68.0
133,48.45443830208334,48.53073530208334,85.0,83.0
134,48.60703230208334,48.71511971875,78.0,83.0
135,48.71766295208334,48.80413288541667,80.0,78.0
136,48.87025695208334,49.00759155208334,81.0,68.0
137,49.02285095208334,49.09787633541667,85.0,83.0
138,49.17544495208334,49.28226075208334,78.0,83.0
139,53.032258302083335,53.11999985208334,80.0,78.0
140,53.18485230208334,53.32345851875,81.0,68.0
141,53.337446302083336,53.41374330208334,85.0,83.0
142,53.490040302083344,53.59812771875001,78.0,83.0
143,53.60067095208334,53.687140885416675,80.0,78.0
144,53.75326495208334,53.890599552083344,81.0,68.0
145,53.905858952083335,53.980884335416675,85.0,83.0
146,54.05845295208334,54.165268752083335,78.0,83.0
147,54.40560430208334,54.49334585208334,66.0,69.0
148,54.40560430208334,54.49461746875001,61.0,68.0
149,54.55819830208334,54.628137218750005,66.0,71.0
150,54.55819830208334,54.63449530208334,61.0,71.0
151,54.71079230208334,54.83541073541667,66.0,74.0
152,54.71079230208334,54.84049720208334,61.0,73.0
153,55.015980302083335,55.08210436875001,61.0,65.0
154,55.015980302083335,55.08337598541667,66.0,63.0
155,55.16857430208334,55.23469836875,66.0,69.0
156,55.16857430208334,55.24359968541667,61.0,66.0
157,55.62635630208334,55.776407068750004,81.0,73.0
158,55.77895030208334,55.92900106875001,83.0,73.0
159,55.93154430208334,56.081595068750005,85.0,73.0
160,56.23673230208334,56.386783068750006,81.0,73.0
161,56.38932630208334,56.53937706875001,83.0,73.0
162,55.321168302083336,56.62076053541667,61.0,79.0
163,55.321168302083336,56.65255095208334,66.0,77.0
164,56.54192030208334,56.69197106875001,85.0,73.0
165,56.84710830208334,56.99715906875001,81.0,73.0
166,56.999702302083335,57.14975306875,83.0,73.0
167,57.15229630208334,57.30234706875001,85.0,73.0
168,57.30489030208334,57.45494106875,83.0,73.0
169,57.457484302083344,57.60753506875001,85.0,73.0
170,57.61007830208334,57.760129068750004,88.0,73.0
171,57.76267230208334,57.912723068750005,90.0,73.0
172,57.91526630208334,58.065317068750005,88.0,73.0
173,58.06786030208334,58.13016951875001,69.0,67.0
174,58.06786030208334,58.139070835416675,66.0,65.0
175,58.06786030208334,58.217911068750006,90.0,73.0
176,58.22045430208334,58.28276351875,69.0,72.0
177,58.22045430208334,58.29166483541667,66.0,67.0
178,58.22045430208334,58.370505068750006,88.0,73.0
179,58.37304830208334,58.47350601875,69.0,75.0
180,58.37304830208334,58.47859248541667,66.0,70.0
181,58.37304830208334,58.52309906875001,90.0,73.0
182,58.52564230208334,58.67569306875001,92.0,73.0
183,58.678236302083334,58.76470623541667,66.0,64.0
184,58.678236302083334,58.76724946875001,69.0,68.0
185,58.678236302083334,58.82828706875001,93.0,73.0
186,58.83083030208334,58.89695436875,69.0,71.0
187,58.83083030208334,58.90204083541667,66.0,65.0
188,58.83083030208334,58.98088106875001,92.0,73.0
189,58.983424302083336,59.086425252083345,69.0,75.0
190,58.983424302083336,59.091511718750006,66.0,71.0
191,58.983424302083336,59.28606906875001,90.0,73.0
192,59.28861230208334,59.59125706875001,88.0,73.0
193,59.59380030208334,60.201633068750006,85.0,73.0
194,60.81455230208334,61.464348418750006,73.0,81.0
195,61.424928302083345,62.73723670208334,85.0,88.0
196,63.25605630208334,63.34379785208334,73.0,79.0
197,63.25605630208334,63.34761270208334,68.0,71.0
198,63.56124430208334,63.62355351875001,73.0,72.0
199,63.56124430208334,63.627368368750005,68.0,63.0
200,63.71383830208334,63.791406918750006,73.0,79.0
201,63.71383830208334,63.80030823541667,68.0,67.0
202,63.25605630208334,63.904580802083345,83.0,83.0
203,63.86643230208334,63.96561840208334,73.0,81.0
204,63.86643230208334,63.98342103541667,68.0,74.0
205,64.17162030208334,64.26063346875,73.0,79.0
206,64.17162030208334,64.27462125208334,68.0,63.0
207,63.86643230208334,64.45264758541667,80.0,83.0
208,64.47680830208334,64.57090793541667,73.0,81.0
209,64.47680830208334,64.58489571875,68.0,79.0
210,64.47680830208334,65.14059220208334,76.0,79.0
211,66.00274830208335,66.15279906875,81.0,73.0
212,66.15534230208334,66.30539306875,83.0,73.0
213,66.30793630208333,66.45798706875001,85.0,73.0
214,66.61312430208334,66.76317506875,81.0,73.0
215,66.76571830208334,66.91576906875001,83.0,73.0
216,66.91831230208334,67.06836306875,85.0,73.0
217,67.22350030208334,67.37355106875,81.0,73.0
218,67.37609430208335,67.52614506875001,83.0,73.0
219,67.52868830208334,67.67873906875,85.0,73.0
220,67.68128230208333,67.83160145000001,83.0,73.0
221,67.83415246250001,67.91195834375002,73.0,80.0
222,67.83415246250001,67.91450935625001,66.0,67.0
223,67.83415246250001,67.9846622,85.0,73.0
224,67.98721321250001,68.06246808125,73.0,75.0
225,67.98721321250001,68.07012111875001,66.0,68.0
226,68.1402739625,68.2423144625,73.0,82.0
227,68.1402739625,68.25634503125,66.0,74.0
228,68.4463954625,68.51399729375001,66.0,64.0
229,68.4463954625,68.5152728,73.0,78.0
230,68.5994562125,68.66450703125001,73.0,83.0
231,68.5994562125,68.67216006875,66.0,69.0
232,68.75251696250001,68.83925138750001,73.0,86.0
233,68.75251696250001,68.84052689375001,66.0,74.0
234,67.52868830208334,69.30736218125001,54.0,71.0
235,69.42598426250001,69.5152697,54.0,70.0
236,69.3647599625,69.87241145000002,66.0,79.0
237,69.97700296250001,71.65429368125001,64.0,77.0
238,71.81373196250001,72.17214921875001,85.0,72.0
239,71.81373196250001,72.28822028750001,59.0,73.0
240,71.81373196250001,72.29969984375,64.0,72.0
241,72.1198534625,72.46296464375001,83.0,79.0
242,72.4259749625,73.05479954375001,85.0,74.0
243,73.03821796250001,73.387706675,83.0,78.0
244,73.34433946250002,73.69765469375001,81.0,73.0
245,72.4259749625,73.9871946125,66.0,73.0
246,73.95658246250001,74.26015295,64.0,71.0
247,74.26270396250001,74.59943761250001,66.0,74.0
248,73.6504609625,74.87239595000001,78.0,71.0
249,74.601988625,74.938722275,64.0,74.0
250,74.8749469625,75.22965918125001,78.0,90.0
251,75.18106846250001,75.52008865625001,73.0,90.0
252,74.8749469625,75.55463313125001,66.0,81.0
253,75.48810303125,75.78109135625002,78.0,82.0
254,75.48810303125,76.11758013125001,64.0,88.0
255,75.79516503125001,76.15468345625001,80.0,83.0
256,76.10222703125001,76.40545075625,81.0,86.0
257,76.10222703125001,76.71379218125001,63.0,86.0
258,76.40928903125001,76.78671940625001,83.0,86.0
259,76.71635103125001,77.03876613125001,85.0,96.0
260,76.71635103125001,77.32791618125,61.0,86.0
261,77.02341303125002,77.33943100625001,88.0,90.0
262,77.33047503125002,78.84224936458334,85.0,78.0
263,77.33047503125002,78.86263669791667,90.0,77.0
264,78.86518511458334,79.04994532291667,81.0,78.0
265,78.86518511458334,79.19265665625001,93.0,74.0
266,79.17099511458333,79.78771194791668,80.0,70.0
267,79.17099511458333,79.78771194791668,92.0,81.0
268,79.78261511458334,80.69112565625001,90.0,77.0
269,79.78261511458334,80.69749669791668,78.0,75.0
270,80.70004511458333,81.02624244791667,88.0,80.0
271,81.00585511458334,81.30911669791666,85.0,83.0
272,81.31166511458333,81.60728144791668,88.0,79.0
273,81.00585511458334,81.67863711458334,66.0,66.0
274,81.61747511458334,81.91309144791667,83.0,76.0
275,81.61747511458334,82.04688332291667,64.0,76.0
276,81.92328511458334,82.23164353125,85.0,80.0
277,82.22909511458334,83.44978669791666,83.0,81.0
278,82.22909511458334,84.51247644791667,59.0,75.0
279,83.45233511458333,84.58383211458334,64.0,83.0
280,83.45233511458333,84.61696153125,88.0,83.0
281,84.67557511458334,85.19672632291667,61.0,69.0
282,84.67557511458334,85.19672632291667,61.0,79.0
283,84.67557511458334,85.34835711458334,85.0,88.0
284,85.28719511458334,85.60447298958334,64.0,80.0
285,85.28719511458334,85.62103769791668,88.0,96.0
286,85.59300511458333,85.88225040625001,66.0,79.0
287,85.59300511458333,85.95488028125,90.0,84.0
288,85.89881511458334,86.37536903125,61.0,80.0
289,85.89881511458334,86.51170932291667,92.0,85.0
290,86.51043511458334,86.99208586458334,64.0,80.0
291,86.51043511458334,87.11950669791668,88.0,86.0
292,87.12205511458333,88.62816936458334,85.0,78.0
293,87.12205511458333,88.64855669791667,90.0,77.0
294,88.65110511458334,88.83586532291667,81.0,78.0
295,88.65110511458334,88.97857665625,93.0,74.0
296,88.95691511458334,89.57363194791667,80.0,70.0
297,88.95691511458334,89.57363194791667,92.0,81.0
298,89.56853511458334,90.47704565625,90.0,77.0
299,89.56853511458334,90.48341669791667,78.0,75.0
300,90.48596511458334,90.81216244791668,88.0,80.0
301,90.79177511458334,91.09503669791667,85.0,83.0
302,91.09758511458334,91.39320144791667,88.0,79.0
303,90.79177511458334,91.46455711458334,66.0,66.0
304,91.40339511458333,91.69901144791667,83.0,76.0
305,91.40339511458333,91.83280332291667,64.0,76.0
306,91.70920511458334,92.01756353125,85.0,80.0
307,92.01501511458333,93.23570669791667,83.0,81.0
308,92.01501511458333,94.29839644791667,59.0,75.0
309,93.23825511458334,94.36975211458333,64.0,83.0
310,93.23825511458334,94.40288153125,88.0,83.0
311,94.46149511458334,94.98264632291668,61.0,69.0
312,94.46149511458334,94.98264632291668,61.0,79.0
313,94.46149511458334,95.13427711458334,85.0,88.0
314,95.07311511458335,95.39039298958333,64.0,80.0
315,95.07311511458335,95.40695769791667,88.0,96.0
316,95.37892511458334,95.66817040625,66.0,79.0
317,95.37892511458334,95.74080028125,90.0,84.0
318,95.68473511458333,96.16128903125,61.0,80.0
319,95.68473511458333,96.29762932291666,92.0,85.0
320,96.29635511458333,96.77800586458333,64.0,80.0
321,96.29635511458333,96.95766923958334,88.0,86.0
322,96.90797511458334,97.28641498958334,73.0,80.0
323,96.90797511458334,97.31827019791668,61.0,79.0
324,99.35445511458335,99.88962261458335,54.0,93.0
325,99.35445511458335,99.88962261458335,66.0,93.0
326,99.96607511458333,100.49869419791668,61.0,90.0
327,99.96607511458333,100.49869419791668,73.0,90.0
328,100.57769511458334,101.04532957291667,64.0,85.0
329,100.57769511458334,101.04532957291667,76.0,85.0
330,101.18931511458334,101.48620565625001,61.0,85.0
331,101.18931511458334,101.48620565625001,73.0,85.0
332,101.49512511458335,101.77035411458334,64.0,81.0
333,101.49512511458335,101.77035411458334,76.0,81.0
334,101.80093511458334,102.60496057291667,63.0,86.0
335,101.80093511458334,102.60496057291667,75.0,86.0
336,102.71836511458334,103.01143303125001,61.0,86.0
337,102.71836511458334,103.01143303125001,73.0,86.0
338,103.02417511458334,103.63324669791668,59.0,90.0
339,103.02417511458334,103.63324669791668,71.0,90.0
340,103.63579511458335,103.92121778125001,54.0,84.0
341,103.63579511458335,103.92121778125001,66.0,84.0
342,103.94160511458334,104.28691557291667,56.0,82.0
343,103.94160511458334,104.28691557291667,68.0,82.0
344,104.24741511458333,104.75455003125,57.0,84.0
345,104.24741511458333,104.75455003125,69.0,84.0
346,104.85903511458334,105.19542611458334,57.0,83.0
347,104.85903511458334,105.19542611458334,69.0,83.0
348,105.16484511458334,105.48721982291667,59.0,83.0
349,105.16484511458334,105.48721982291667,71.0,83.0
350,105.47065511458334,105.76499723958334,56.0,82.0
351,105.47065511458334,105.76499723958334,68.0,82.0
352,105.77646511458335,106.10393665625,54.0,80.0
353,105.77646511458335,106.10393665625,66.0,80.0
354,106.08227511458334,106.40337561458334,52.0,90.0
355,106.08227511458334,106.40337561458334,64.0,90.0
356,106.38808511458333,106.69516932291667,56.0,88.0
357,106.38808511458333,106.69516932291667,68.0,88.0
358,106.69389511458334,109.14674615625,54.0,83.0
359,109.14037511458334,109.14674615625,54.0,93.0
360,106.69389511458334,109.14674615625,66.0,83.0
361,109.14037511458334,109.14674615625,66.0,93.0
362,109.14037511458334,109.67554261458334,78.0,93.0
363,109.75199511458334,110.28461419791667,61.0,90.0
364,109.75199511458334,110.28461419791667,73.0,90.0
365,109.75199511458334,110.28461419791667,85.0,90.0
366,110.36361511458334,110.83124957291668,64.0,85.0
367,110.36361511458334,110.83124957291668,76.0,85.0
368,110.36361511458334,110.83124957291668,88.0,85.0
369,110.97523511458334,111.27212565625001,61.0,85.0
370,110.97523511458334,111.27212565625001,73.0,85.0
371,110.97523511458334,111.27212565625001,85.0,85.0
372,111.28104511458334,111.55627411458335,64.0,81.0
373,111.28104511458334,111.55627411458335,76.0,81.0
374,111.28104511458334,111.55627411458335,88.0,81.0
375,111.58685511458333,112.39088057291667,63.0,86.0
376,111.58685511458333,112.39088057291667,75.0,86.0
377,111.58685511458333,112.39088057291667,87.0,86.0
378,112.50428511458334,112.79735303125,61.0,86.0
379,112.50428511458334,112.79735303125,73.0,86.0
380,112.50428511458334,112.79735303125,85.0,86.0
381,112.81009511458333,113.41916669791667,59.0,90.0
382,112.81009511458333,113.41916669791667,71.0,90.0
383,112.81009511458333,113.41916669791667,83.0,90.0
384,113.42171511458334,113.70713778125,54.0,84.0
385,113.42171511458334,113.70713778125,66.0,84.0
386,113.42171511458334,113.70713778125,78.0,84.0
387,113.72752511458333,114.07283557291667,56.0,82.0
388,113.72752511458333,114.07283557291667,68.0,82.0
389,113.72752511458333,114.07283557291667,80.0,82.0
390,114.03333511458334,114.54047003125001,57.0,84.0
391,114.03333511458334,114.54047003125001,69.0,84.0
392,114.03333511458334,114.54047003125001,81.0,84.0
393,114.64495511458334,114.98134611458335,69.0,83.0
394,114.64495511458334,114.98134611458335,81.0,83.0
395,114.64495511458334,114.98134611458335,93.0,83.0
396,114.95076511458333,115.27313982291668,71.0,83.0
397,114.95076511458333,115.27313982291668,83.0,83.0
398,114.95076511458333,115.27313982291668,95.0,83.0
399,115.25657511458334,115.55091723958334,68.0,82.0
400,115.25657511458334,115.55091723958334,80.0,82.0
401,115.25657511458334,115.55091723958334,92.0,82.0
402,115.56238511458334,115.88985665625,66.0,80.0
403,115.56238511458334,115.88985665625,78.0,80.0
404,115.56238511458334,115.88985665625,90.0,80.0
405,115.86819511458333,116.18929561458333,64.0,90.0
406,115.86819511458333,116.18929561458333,76.0,90.0
407,115.86819511458333,116.18929561458333,88.0,90.0
408,116.17400511458334,116.48108932291667,68.0,88.0
409,116.17400511458334,116.48108932291667,80.0,88.0
410,116.17400511458334,116.48108932291667,92.0,88.0
411,116.47981511458335,118.93266615625001,66.0,83.0
412,116.47981511458335,118.93266615625001,78.0,83.0
413,116.47981511458335,118.93266615625001,90.0,83.0
414,121.67858511458334,121.82384486458334,85.0,83.0
415,121.98439511458334,122.12965486458333,81.0,81.0
416,122.13730011458334,122.27364040625,80.0,75.0
417,122.29020511458333,122.45457798958334,81.0,72.0
418,122.44311011458333,122.59346669791668,85.0,80.0
419,122.59601511458334,123.33250753125,78.0,81.0
420,126.72445011458333,126.83658044791667,85.0,75.0
421,126.87735511458334,126.98566282291668,92.0,81.0
422,127.33607011458334,127.41252261458334,85.0,77.0
423,127.48897511458334,127.58071811458333,92.0,76.0
424,128.10059511458334,128.19233811458332,92.0,79.0
425,131.31160011458334,131.39952048958332,80.0,78.0
426,131.46450511458335,131.60339382291667,81.0,68.0
427,131.61741011458332,131.69386261458334,85.0,83.0
428,131.77031511458335,131.87862282291667,78.0,83.0
429,131.88117123958335,131.96781740625,80.0,78.0
430,132.03407623958333,132.17169073958334,81.0,68.0
431,132.18698123958333,132.26215953125,85.0,83.0
432,132.33988623958334,132.44691973958334,78.0,83.0
433,136.20456011458333,136.29248048958334,80.0,78.0
434,136.35746511458333,136.49635382291666,81.0,68.0
435,136.51037011458334,136.58682261458335,85.0,83.0
436,136.66327511458334,136.77158282291668,78.0,83.0
437,136.77413123958334,136.86077740625,80.0,78.0
438,136.92703623958334,137.06465073958333,81.0,68.0
439,137.07994123958335,137.15511953125002,85.0,83.0
440,137.23284623958335,137.33987973958335,78.0,83.0
441,137.58070511458334,137.66862548958335,66.0,69.0
442,137.58070511458334,137.66989969791666,61.0,68.0
443,137.73361011458334,137.80369157291668,66.0,71.0
444,137.73361011458334,137.81006261458333,61.0,71.0
445,137.88651511458335,138.01138753125002,66.0,74.0
446,137.88651511458335,138.01648436458333,61.0,73.0
447,138.19232511458335,138.25858394791666,61.0,65.0
448,138.19232511458335,138.25985815625,66.0,63.0
449,138.34523011458333,138.41148894791667,66.0,69.0
450,138.34523011458333,138.42040840625,61.0,66.0
451,138.80394511458334,138.95430169791666,81.0,73.0
452,138.95685011458335,139.10720669791667,83.0,73.0
453,139.10975511458332,139.26011169791667,85.0,73.0
454,139.41556511458333,139.56592169791668,81.0,73.0
455,139.56847011458333,139.71882669791668,83.0,73.0
456,138.49813511458333,139.80037603125,61.0,79.0
457,138.49813511458333,139.83223123958334,66.0,77.0
458,139.72137511458334,139.8717316979167,85.0,73.0
459,140.02718511458335,140.17754169791667,81.0,73.0
460,140.18009011458332,140.33044669791667,83.0,73.0
461,140.33299511458335,140.48335169791667,85.0,73.0
462,140.48590011458333,140.63625669791668,83.0,73.0
463,140.63880511458333,140.78916169791668,85.0,73.0
464,140.79171011458334,140.9420666979167,88.0,73.0
465,140.94461511458334,141.09497169791666,90.0,73.0
466,141.09752011458335,141.24787669791667,88.0,73.0
467,141.25042511458332,141.31286132291666,69.0,67.0
468,141.25042511458332,141.32178078125,66.0,65.0
469,141.25042511458332,141.40078169791667,90.0,73.0
470,141.40333011458335,141.46576632291666,69.0,72.0
471,141.40333011458335,141.47468578125,66.0,67.0
472,141.40333011458335,141.55368669791667,88.0,73.0
473,141.55623511458333,141.65689757291668,69.0,75.0
474,141.55623511458333,141.66199440625002,66.0,70.0
475,141.55623511458333,141.70659169791668,90.0,73.0
476,141.70914011458333,141.85949669791668,92.0,73.0
477,141.86204511458334,141.94869128125,66.0,64.0
478,141.86204511458334,141.95123969791666,69.0,68.0
479,141.86204511458334,142.0124016979167,93.0,73.0
480,142.01495011458334,142.08120894791668,69.0,71.0
481,142.01495011458334,142.08630578125002,66.0,65.0
482,142.01495011458334,142.16530669791666,92.0,73.0
483,142.16785511458335,142.27106598958335,69.0,75.0
484,142.16785511458335,142.27616282291666,66.0,71.0
485,142.16785511458335,142.47111669791667,90.0,73.0
486,142.47366511458335,142.77692669791668,88.0,73.0
487,142.77947511458333,143.38854669791667,85.0,73.0
488,144.00271511458334,144.65383557291668,73.0,81.0
489,144.61433511458335,145.92931811458334,85.0,88.0
490,146.44919511458335,146.53711548958336,73.0,79.0
491,146.44919511458335,146.54093811458335,68.0,71.0
492,146.75500511458335,146.8174413229167,73.0,72.0
493,146.75500511458335,146.8212639479167,68.0,63.0
494,146.90791011458333,146.98563682291666,73.0,79.0
495,146.90791011458333,146.99455628125,68.0,67.0
496,146.44919511458335,147.09904136458334,83.0,83.0
497,147.06081511458333,147.16020336458334,73.0,81.0
498,147.06081511458333,147.17804228125,68.0,74.0
499,147.36662511458334,147.45581969791667,73.0,79.0
500,147.36662511458334,147.46983598958334,68.0,63.0
501,147.06081511458333,147.64822515625002,80.0,83.0
502,147.67243511458332,147.76672653125001,73.0,81.0
503,147.67243511458332,147.7807428229167,68.0,79.0
504,147.67243511458332,148.33757186458334,76.0,79.0
505,149.20148511458333,149.35184169791665,81.0,73.0
506,149.35439011458334,149.5047466979167,83.0,73.0
507,149.50729511458334,149.65765169791666,85.0,73.0
508,149.81310511458332,149.96346169791667,81.0,73.0
509,149.96601011458336,150.11636669791667,83.0,73.0
510,150.11891511458333,150.26927169791668,85.0,73.0
511,150.42472511458334,150.5750816979167,81.0,73.0
512,150.57763011458334,150.72798669791666,83.0,73.0
513,150.73053511458335,150.88089169791667,85.0,73.0
514,150.88344011458332,151.03379669791667,83.0,73.0
515,151.03634511458336,151.11407182291669,73.0,80.0
516,151.03634511458336,151.11662023958334,66.0,67.0
517,151.03634511458336,151.18670169791667,85.0,73.0
518,151.18925011458333,151.26442840625,73.0,75.0
519,151.18925011458333,151.27207365625,66.0,68.0
520,151.34215511458333,151.44409178125,73.0,82.0
521,151.34215511458333,151.45810807291667,66.0,74.0
522,151.64796511458334,151.71549815625002,66.0,64.0
523,151.64796511458334,151.71677236458333,73.0,78.0
524,151.80087011458335,151.86585473958334,73.0,83.0
525,151.80087011458335,151.87349998958334,66.0,69.0
526,151.95377511458332,152.04042128125002,73.0,86.0
527,151.95377511458332,152.04169548958333,66.0,74.0
528,150.73053511458335,152.50805573958334,54.0,71.0
529,152.62655711458333,152.7157516979167,54.0,70.0
530,152.56539511458334,153.07253003125,66.0,79.0
531,153.17701511458336,154.8525990729167,64.0,77.0
532,155.01187511458335,155.36992765625,85.0,72.0
533,155.01187511458335,155.48588061458332,59.0,73.0
534,155.01187511458335,155.49734848958335,64.0,72.0
535,155.31768511458336,155.66044715625,83.0,79.0
536,155.62349511458333,156.25167982291669,85.0,74.0
537,156.23511511458332,156.58424819791668,83.0,78.0
538,156.54092511458333,156.89388082291669,81.0,73.0
539,155.62349511458333,157.18312611458333,66.0,73.0
540,157.15254511458335,157.45580669791667,64.0,71.0
541,157.45835511458336,157.79474611458335,66.0,74.0
542,156.84673511458334,158.0674266979167,78.0,71.0
543,157.79729453125,158.13368553125002,64.0,74.0
544,158.06997511458334,158.42420503125,78.0,90.0
545,158.37578511458332,158.71345032291669,73.0,90.0
546,158.06997511458334,158.74785394791667,66.0,81.0
547,158.68159511458333,158.97338882291666,78.0,82.0
548,158.68159511458333,159.30850561458334,64.0,88.0
549,158.98740511458334,159.34545765625,80.0,83.0
550,159.29321511458335,159.59520248958336,81.0,86.0
551,159.29321511458335,159.90228669791668,63.0,86.0
552,159.59902511458336,159.97491657291667,83.0,86.0
553,159.90483511458334,160.22593561458334,85.0,96.0
554,159.90483511458334,160.51390669791667,61.0,86.0
555,160.21064511458334,160.5253745729167,88.0,90.0
556,160.51645511458332,162.02256936458332,85.0,78.0
557,160.51645511458332,162.04295669791668,90.0,77.0
558,162.04550511458334,162.2302653229167,81.0,78.0
559,162.04550511458334,162.37297665625,93.0,74.0
560,162.35131511458334,162.96803194791667,80.0,70.0
561,162.35131511458334,162.96803194791667,92.0,81.0
562,162.96293511458333,163.87144565625,90.0,77.0
563,162.96293511458333,163.87781669791667,78.0,75.0
564,163.88036511458336,164.20656244791667,88.0,80.0
565,164.18617511458334,164.4894366979167,85.0,83.0
566,164.49198511458334,164.78760144791667,88.0,79.0
567,164.18617511458334,164.85895711458335,66.0,66.0
568,164.79779511458332,165.09341144791668,83.0,76.0
569,164.79779511458332,165.2272033229167,64.0,76.0
570,165.10360511458333,165.41196353125002,85.0,80.0
571,165.40941511458334,166.62901560625002,83.0,81.0
572,165.40941511458334,167.68954390625,59.0,75.0
573,166.63155883958333,167.76075443958334,64.0,83.0
574,166.63155883958333,167.7938164729167,88.0,83.0
575,167.85231083958334,168.37240205625002,61.0,69.0
576,167.85231083958334,168.37240205625002,61.0,79.0
577,167.85231083958334,168.52372443958333,85.0,88.0
578,168.46268683958334,168.77931938958335,64.0,80.0
579,168.46268683958334,168.79585040625003,88.0,96.0
580,168.76787483958336,169.05653182291667,66.0,79.0
581,168.76787483958336,169.12901397291668,90.0,84.0
582,169.07306283958334,169.54864747291668,61.0,80.0
583,169.07306283958334,169.68471045625,92.0,85.0
584,169.68343883958335,170.16410993958334,64.0,80.0
585,169.68343883958335,170.29127160625,88.0,86.0
586,170.29381483958335,171.79686573958335,85.0,78.0
587,170.29381483958335,171.81721160625,90.0,77.0
588,171.81975483958334,172.00413925625,81.0,78.0
589,171.81975483958334,172.14656032291668,93.0,74.0
590,172.12494283958335,172.74040530625,80.0,70.0
591,172.12494283958335,172.74040530625,92.0,81.0
592,172.73531883958336,173.64198152291667,90.0,77.0
593,172.73531883958336,173.64833960625,78.0,75.0
594,173.65088283958335,173.97641670625,88.0,80.0
595,173.95607083958333,174.25871560625,85.0,83.0
596,174.26125883958335,174.55627390625,88.0,79.0
597,173.95607083958333,174.62748443958336,66.0,66.0
598,174.56644683958334,174.86146190625,83.0,76.0
599,174.56644683958334,174.99498165625002,64.0,76.0
600,174.87163483958335,175.17936607291668,85.0,80.0
601,175.17682283958334,176.39503160625,83.0,81.0
602,175.17682283958334,177.45555990625002,59.0,75.0
603,176.39757483958334,177.52677043958334,64.0,83.0
604,176.39757483958334,177.55983247291667,88.0,83.0
605,177.61832683958335,178.13841805625,61.0,69.0
606,177.61832683958335,178.13841805625,61.0,79.0
607,177.61832683958335,178.28974043958334,85.0,88.0
608,178.22870283958335,178.54533538958336,64.0,80.0
609,178.22870283958335,178.56186640625,88.0,96.0
610,178.53389083958334,178.82254782291668,66.0,79.0
611,178.53389083958334,178.8950299729167,90.0,84.0
612,178.83907883958335,179.3146634729167,61.0,80.0
613,178.83907883958335,179.45072645625,92.0,85.0
614,179.44945483958335,179.93012593958335,64.0,80.0
615,179.44945483958335,180.10942388958335,88.0,86.0
616,180.05983083958336,180.43750098958336,73.0,80.0
617,180.05983083958336,180.46929140625002,61.0,79.0
618,182.50133483958334,182.8548442729167,78.0,90.0
619,182.80652283958335,183.14350125625,73.0,90.0
620,182.50133483958334,183.17783490625,66.0,81.0
621,183.11171083958334,183.40291105625002,78.0,82.0
622,183.11171083958334,183.73734623958336,64.0,88.0
623,183.41689883958335,183.77422312291668,80.0,83.0
624,183.72208683958334,184.02345998958333,81.0,86.0
625,183.72208683958334,184.32991960625,63.0,86.0
626,184.02727483958336,184.40240175625001,83.0,86.0
627,184.33246283958334,184.65291023958335,85.0,96.0
628,184.33246283958334,184.94029560625,61.0,86.0
629,184.63765083958333,184.95174015625003,88.0,90.0
630,184.94283883958335,186.44588973958335,85.0,78.0
631,184.94283883958335,186.46623560625002,90.0,77.0
632,186.46877883958334,186.65316325625002,81.0,78.0
633,186.46877883958334,186.79558432291668,93.0,74.0
634,186.77396683958335,187.38942930625,80.0,70.0
635,186.77396683958335,187.38942930625,92.0,81.0
636,187.38434283958335,188.2910055229167,90.0,77.0
637,187.38434283958335,188.29736360625,78.0,75.0
638,188.29990683958334,188.62544070625,88.0,80.0
639,188.60509483958333,188.90773960625,85.0,83.0
640,188.91028283958335,189.20529790625002,88.0,79.0
641,188.60509483958333,189.27650843958335,66.0,66.0
642,189.21547083958336,189.51048590625,83.0,76.0
643,189.21547083958336,189.64400565625002,64.0,76.0
644,189.52065883958335,189.82839007291668,85.0,80.0
645,189.82584683958333,191.04405560625003,83.0,81.0
646,189.82584683958333,192.10458390625,59.0,75.0
647,191.04659883958334,192.17579443958334,64.0,83.0
648,191.04659883958334,192.2088564729167,88.0,83.0
649,192.26735083958334,192.78744205625,61.0,69.0
650,192.26735083958334,192.78744205625,61.0,79.0
651,192.26735083958334,192.93876443958334,85.0,88.0
652,192.87772683958335,193.19435938958335,64.0,80.0
653,192.87772683958335,193.21089040625,88.0,96.0
654,193.18291483958336,193.47157182291667,66.0,79.0
655,193.18291483958336,193.54405397291669,90.0,84.0
656,193.48810283958335,193.9636874729167,61.0,80.0
657,193.48810283958335,194.09975045625,92.0,85.0
658,194.09847883958335,194.57914993958335,64.0,80.0
659,194.09847883958335,194.70631160625,88.0,86.0
660,194.70885483958335,196.21190573958336,85.0,78.0
661,194.70885483958335,196.23225160625,90.0,77.0
662,196.23479483958334,196.41917925625,81.0,78.0
663,196.23479483958334,196.5616003229167,93.0,74.0
664,196.53998283958333,197.15544530625002,80.0,70.0
665,196.53998283958333,197.15544530625002,92.0,81.0
666,197.15035883958336,198.05702152291667,90.0,77.0
667,197.15035883958336,198.06337960625,78.0,75.0
668,198.06592283958335,198.39145670625,88.0,80.0
669,198.37111083958334,198.67375560625,85.0,83.0
670,198.67629883958335,198.97131390625,88.0,79.0
671,198.37111083958334,199.04252443958336,66.0,66.0
672,198.98148683958334,199.27650190625002,83.0,76.0
673,198.98148683958334,199.41002165625002,64.0,76.0
674,199.28667483958336,199.59440607291668,85.0,80.0
675,199.59186283958334,200.81007160625,83.0,81.0
676,199.59186283958334,201.87059990625002,59.0,75.0
677,200.81261483958335,201.94181043958335,64.0,83.0
678,200.81261483958335,201.97487247291667,88.0,83.0
679,202.03336683958335,202.55345805625,61.0,69.0
680,202.03336683958335,202.55345805625,61.0,79.0
681,202.03336683958335,202.70478043958335,85.0,88.0
682,202.64374283958335,202.96037538958336,64.0,80.0
683,202.64374283958335,202.97690640625,88.0,96.0
684,202.94893083958334,203.23758782291668,66.0,79.0
685,202.94893083958334,203.31006997291666,90.0,84.0
686,203.25411883958336,203.7297034729167,61.0,80.0
687,203.25411883958336,203.86576645625001,92.0,85.0
688,203.86449483958336,204.34516593958335,64.0,80.0
689,203.86449483958336,204.52446388958333,88.0,86.0
690,204.47487083958333,204.85254098958336,73.0,80.0
691,204.47487083958333,204.88433140625,61.0,79.0
