,start,end,pitch,velocity
0,35.78913630208334,36.501241635416676,78.0,85.0
1,36.70470030208334,36.95775201875001,76.0,84.0
2,37.00988830208334,37.94071170208334,73.0,90.0
3,37.925452302083336,38.22682545208334,71.0,75.0
4,38.23064030208334,38.47860555208334,69.0,80.0
5,38.53582830208334,38.759632835416674,71.0,81.0
6,38.84101630208334,39.09025316875,71.0,79.0
7,39.14620430208334,39.464108468750005,73.0,81.0
8,39.45139230208334,40.40128995208334,66.0,80.0
9,40.67214430208334,41.178247735416676,64.0,83.0
10,41.28252030208334,41.46181825208334,64.0,82.0
11,41.58770830208334,41.791166968750005,66.0,77.0
12,41.89289630208334,42.29981363541667,69.0,83.0
13,42.50327230208334,42.72071875208334,69.0,83.0
14,42.80846030208334,42.99030148541667,71.0,84.0
15,43.11364830208334,43.290403018750006,73.0,86.0
16,43.41883630208334,43.724024302083336,76.0,72.0
17,43.724024302083336,44.202152168750004,71.0,81.0
18,44.33440030208334,45.33261938541667,73.0,85.0
19,45.55515230208334,46.36898696875001,78.0,81.0
20,46.47071630208334,46.69833568541667,76.0,80.0
21,46.77590430208334,47.50326903541667,73.0,90.0
22,47.69146830208334,47.944520018750005,71.0,81.0
23,47.99665630208334,48.30311591875001,69.0,82.0
24,48.30184430208334,48.48114225208334,71.0,80.0
25,48.60703230208334,48.83592330208334,71.0,80.0
26,48.91222030208334,49.150012618750004,73.0,80.0
27,49.21740830208334,49.93460010208334,66.0,80.0
28,50.43816030208334,51.004029718750004,71.0,81.0
29,51.04853630208334,51.24436526875,71.0,81.0
30,51.353724302083336,51.55463973541667,73.0,86.0
31,51.65891230208334,52.09380520208334,76.0,81.0
32,52.26928830208334,52.44858625208334,76.0,76.0
33,52.57447630208334,52.76903365208334,73.0,82.0
34,52.87966430208334,53.07167841875001,71.0,78.0
35,53.18485230208334,53.434089168750006,69.0,78.0
36,53.490040302083344,53.67696795208334,66.0,81.0
37,53.79522830208334,53.99487211875001,64.0,81.0
38,54.10041630208334,55.180018852083336,66.0,81.0
39,56.23673230208334,56.48978401875,76.0,84.0
40,56.54192030208334,57.472743702083335,73.0,90.0
41,57.457484302083344,57.75885745208334,71.0,75.0
42,57.76267230208334,58.01063755208334,69.0,80.0
43,58.06786030208334,58.29166483541667,71.0,81.0
44,58.37304830208334,58.62228516875001,71.0,79.0
45,58.678236302083334,58.996140468750006,73.0,81.0
46,58.983424302083336,59.93332195208334,66.0,80.0
47,60.20417630208334,60.71027973541668,64.0,83.0
48,60.81455230208334,60.99385025208334,64.0,82.0
49,61.11974030208334,61.323198968750006,66.0,77.0
50,61.424928302083345,61.83184563541667,69.0,83.0
51,62.03530430208334,62.252750752083344,69.0,83.0
52,62.34049230208334,62.522333485416674,71.0,84.0
53,62.645680302083335,62.82243501875001,73.0,86.0
54,62.950868302083336,63.25605630208334,76.0,72.0
55,63.25605630208334,63.734184168750005,71.0,81.0
56,63.86643230208334,64.86465138541666,73.0,85.0
57,65.08718430208334,65.90101896875001,78.0,81.0
58,66.00274830208335,66.23036768541667,76.0,80.0
59,66.30793630208333,67.03530103541667,73.0,90.0
60,67.22350030208334,67.47655201875,71.0,81.0
61,67.52868830208334,67.83542796875001,69.0,82.0
62,67.83415246250001,68.01399884375,71.0,80.0
63,68.1402739625,68.3698650875,71.0,80.0
64,68.4463954625,68.68491513125001,73.0,80.0
65,68.75251696250001,69.4719024875,66.0,80.0
66,69.97700296250001,70.54460324375,71.0,81.0
67,70.58924596250002,70.78567392500001,71.0,81.0
68,70.8953674625,71.09689745000001,73.0,86.0
69,71.20148896250001,71.63771210000002,76.0,81.0
70,71.81373196250001,71.99357834375002,76.0,76.0
71,72.1198534625,72.31500591875,73.0,82.0
72,72.4259749625,72.61857640625001,71.0,78.0
73,72.73209646250001,72.9820956875,69.0,78.0
74,73.03821796250001,73.22571738125,66.0,81.0
75,73.34433946250002,73.54459394375002,64.0,81.0
76,73.6504609625,74.73336576875,66.0,81.0
77,77.33047503125002,77.84352445625001,78.0,90.0
78,77.94459903125001,78.42694225625002,81.0,86.0
79,78.55872303125001,79.15060778125,78.0,83.0
80,79.17099511458333,79.41564311458333,73.0,90.0
81,79.47680511458334,79.75840515625,76.0,81.0
82,79.78261511458334,80.06294094791667,78.0,80.0
83,80.08842511458334,80.38786407291667,81.0,83.0
84,80.39423511458334,80.67456094791667,78.0,86.0
85,80.70004511458333,81.03898453125001,76.0,82.0
86,81.00585511458334,82.03414123958333,73.0,95.0
87,82.22909511458334,82.70437482291668,71.0,86.0
88,82.84071511458333,83.07262103125001,71.0,86.0
89,83.14652511458334,83.37333419791668,73.0,90.0
90,83.45233511458333,83.87027544791667,76.0,81.0
91,84.06395511458334,84.24361848958334,76.0,79.0
92,84.36976511458334,84.59275157291667,78.0,82.0
93,84.67557511458334,85.18271003125001,73.0,93.0
94,85.28719511458334,85.50508473958334,73.0,84.0
95,85.59300511458333,85.80070107291667,71.0,80.0
96,85.89881511458334,86.99973111458334,73.0,84.0
97,87.12205511458333,87.73112669791666,78.0,85.0
98,87.73367511458333,88.12740548958334,81.0,83.0
99,88.34529511458334,88.93143094791667,78.0,81.0
100,88.95691511458334,89.21940203125,73.0,85.0
101,89.26272511458333,89.55834144791667,76.0,79.0
102,89.56853511458334,89.83866728125,78.0,79.0
103,89.87434511458333,90.11899311458333,81.0,79.0
104,90.18015511458334,90.44136782291667,78.0,85.0
105,90.48596511458334,90.75100044791667,76.0,81.0
106,90.79177511458334,91.73596348958334,73.0,86.0
107,92.01501511458333,92.20232373958333,71.0,81.0
108,92.32082511458334,92.48010115625,71.0,81.0
109,92.62663511458334,92.80375007291667,71.0,82.0
110,92.93244511458335,93.14396369791667,73.0,90.0
111,93.23825511458334,93.42811215625001,76.0,79.0
112,93.54406511458333,93.72118007291667,76.0,79.0
113,93.84987511458334,94.03081269791667,76.0,82.0
114,94.15568511458333,94.37357473958333,78.0,83.0
115,94.46149511458334,96.99079865625,80.0,80.0
116,98.13121511458334,99.39905240625001,76.0,80.0
117,99.35445511458335,101.69517582291667,78.0,90.0
118,118.92629511458334,119.63985178125,78.0,85.0
119,119.84372511458334,120.09729257291667,76.0,84.0
120,120.14953511458333,121.08225561458335,73.0,90.0
121,121.06696511458334,121.36895248958334,71.0,75.0
122,121.37277511458333,121.62124573958334,69.0,80.0
123,121.67858511458334,121.90284578125001,71.0,81.0
124,121.98439511458334,122.23413994791667,71.0,79.0
125,122.29020511458333,122.60875719791667,73.0,81.0
126,122.59601511458334,123.54784873958334,66.0,80.0
127,123.81925511458334,124.32639003125001,64.0,83.0
128,124.43087511458333,124.61053848958335,64.0,82.0
129,124.73668511458334,124.94055844791667,66.0,77.0
130,125.04249511458335,125.45024178125001,69.0,83.0
131,125.65411511458333,125.87200473958333,69.0,83.0
132,125.95992511458334,126.14213690625,71.0,84.0
133,126.26573511458334,126.44285007291667,73.0,86.0
134,126.57154511458333,126.87735511458334,76.0,72.0
135,126.87735511458334,127.35645744791668,71.0,81.0
136,127.48897511458334,128.48922865625002,73.0,85.0
137,128.71221511458333,129.52770844791667,78.0,81.0
138,129.62964511458335,129.85772840625,76.0,80.0
139,129.93545511458333,130.66430228125,73.0,90.0
140,130.85288511458333,131.10645257291668,71.0,81.0
141,131.15869511458334,131.46577932291666,69.0,82.0
142,131.46450511458335,131.64416848958334,71.0,80.0
143,131.77031511458335,131.99967261458335,71.0,80.0
144,132.07612511458333,132.31440207291666,73.0,80.0
145,132.38193511458334,133.10058861458333,66.0,80.0
146,133.60517511458335,134.17219782291667,71.0,81.0
147,134.21679511458333,134.4130231979167,71.0,81.0
148,134.52260511458334,134.72393003125,73.0,86.0
149,134.82841511458332,135.26419436458335,76.0,81.0
150,135.44003511458334,135.61969848958333,76.0,76.0
151,135.74584511458335,135.94079898958333,73.0,82.0
152,136.05165511458335,136.24406057291668,71.0,78.0
153,136.35746511458333,136.60720994791666,69.0,78.0
154,136.66327511458334,136.85058373958333,66.0,81.0
155,136.96908511458332,137.16913582291667,64.0,81.0
156,137.27489511458333,138.35669798958332,66.0,81.0
157,139.41556511458333,139.66913257291668,76.0,84.0
158,139.72137511458334,140.65409561458335,73.0,90.0
159,140.63880511458333,140.94079248958334,71.0,75.0
160,140.94461511458334,141.19308573958335,69.0,80.0
161,141.25042511458332,141.47468578125,71.0,81.0
162,141.55623511458333,141.80597994791668,71.0,79.0
163,141.86204511458334,142.18059719791668,73.0,81.0
164,142.16785511458335,143.11968873958335,66.0,80.0
165,143.39109511458332,143.89823003125002,64.0,83.0
166,144.00271511458334,144.18237848958336,64.0,82.0
167,144.30852511458335,144.51239844791667,66.0,77.0
168,144.61433511458335,145.02208178125,69.0,83.0
169,145.22595511458334,145.44384473958334,69.0,83.0
170,145.53176511458332,145.71397690625002,71.0,84.0
171,145.83757511458333,146.01469007291666,73.0,86.0
172,146.14338511458334,146.44919511458335,76.0,72.0
173,146.44919511458335,146.9282974479167,71.0,81.0
174,147.06081511458333,148.06106865625,73.0,85.0
175,148.28405511458334,149.09954844791667,78.0,81.0
176,149.20148511458333,149.42956840624998,76.0,80.0
177,149.50729511458334,150.23614228125,73.0,90.0
178,150.42472511458334,150.6782925729167,71.0,81.0
179,150.73053511458335,151.03761932291667,69.0,82.0
180,151.03634511458336,151.21600848958334,71.0,80.0
181,151.34215511458333,151.57151261458336,71.0,80.0
182,151.64796511458334,151.88624207291667,73.0,80.0
183,151.95377511458332,152.67242861458334,66.0,80.0
184,153.17701511458336,153.74403782291665,71.0,81.0
185,153.78863511458334,153.98486319791667,71.0,81.0
186,154.09444511458332,154.29577003125002,73.0,86.0
187,154.40025511458333,154.83603436458333,76.0,81.0
188,155.01187511458335,155.19153848958334,76.0,76.0
189,155.31768511458336,155.51263898958334,73.0,82.0
190,155.62349511458333,155.8159005729167,71.0,78.0
191,155.92930511458334,156.17904994791667,69.0,78.0
192,156.23511511458332,156.42242373958334,66.0,81.0
193,156.54092511458333,156.74097582291665,64.0,81.0
194,156.84673511458334,157.92853798958333,66.0,81.0
195,160.51645511458332,161.02741265625002,78.0,90.0
196,161.12807511458334,161.60845165625,81.0,86.0
197,161.73969511458336,162.33092778125,78.0,83.0
198,162.35131511458334,162.59596311458336,73.0,90.0
199,162.65712511458332,162.93872515625,76.0,81.0
200,162.96293511458333,163.24326094791667,78.0,80.0
201,163.26874511458334,163.56818407291667,81.0,83.0
202,163.57455511458335,163.85488094791668,78.0,86.0
203,163.88036511458336,164.21930453125,76.0,82.0
204,164.18617511458334,165.21446123958333,73.0,95.0
205,165.40941511458334,165.88469482291669,71.0,86.0
206,166.02103511458336,166.25261707291668,71.0,86.0
207,166.32637083958335,166.55271860625,73.0,90.0
208,166.63155883958333,167.04864910625002,76.0,81.0
209,167.24193483958334,167.42123278958334,76.0,79.0
210,167.54712283958335,167.76965575625002,78.0,82.0
211,167.85231083958334,168.3584142729167,73.0,93.0
212,168.46268683958334,168.68013328958335,73.0,84.0
213,168.76787483958336,168.97514835625,71.0,80.0
214,169.07306283958334,170.17173963958334,73.0,84.0
215,170.29381483958335,170.90164760625,78.0,85.0
216,170.90419083958335,171.29712038958334,81.0,83.0
217,171.51456683958335,172.09951050625,78.0,81.0
218,172.12494283958335,172.38689587291668,73.0,85.0
219,172.43013083958334,172.72514590625002,76.0,79.0
220,172.73531883958336,173.00490157291668,78.0,79.0
221,173.04050683958334,173.28465723958334,81.0,79.0
222,173.34569483958336,173.60637625625,78.0,85.0
223,173.65088283958335,173.91537910625001,76.0,81.0
224,173.95607083958333,174.89833878958333,73.0,86.0
225,175.17682283958334,175.36375048958334,71.0,81.0
226,175.48201083958335,175.64096292291669,71.0,81.0
227,175.78719883958334,175.96395355625,71.0,82.0
228,176.09238683958336,176.30347520625,73.0,90.0
229,176.39757483958334,176.58704572291668,76.0,79.0
230,176.70276283958336,176.87951755625002,76.0,79.0
231,177.00795083958334,177.18852040625,76.0,82.0
232,177.31313883958336,177.53058528958334,78.0,83.0
233,177.61832683958335,180.14248592291668,80.0,80.0
234,181.28058283958336,182.54584142291668,76.0,80.0
235,182.50133483958334,184.48251360625002,78.0,90.0
236,184.94283883958335,185.4527571229167,78.0,90.0
237,185.55321483958335,186.0326143229167,81.0,86.0
238,186.16359083958335,186.75362097291668,78.0,83.0
239,186.77396683958335,187.01811723958335,73.0,90.0
240,187.07915483958334,187.36018212291668,76.0,81.0
241,187.38434283958335,187.66409850625,78.0,80.0
242,187.68953083958334,187.98836075625002,81.0,83.0
243,187.99471883958336,188.27447450625002,78.0,86.0
244,188.29990683958334,188.63815687291668,76.0,82.0
245,188.60509483958333,189.63128948958334,73.0,95.0
246,189.82584683958333,190.30015985625002,71.0,86.0
247,190.43622283958334,190.66765707291668,71.0,86.0
248,190.74141083958335,190.96775860625002,73.0,90.0
249,191.04659883958334,191.46368910625,76.0,81.0
250,191.65697483958334,191.83627278958335,76.0,79.0
251,191.96216283958336,192.18469575625002,78.0,82.0
252,192.26735083958334,192.7734542729167,73.0,93.0
253,192.87772683958335,193.09517328958336,73.0,84.0
254,193.18291483958336,193.39018835625,71.0,80.0
255,193.48810283958335,194.58677963958334,73.0,84.0
256,194.70885483958335,195.31668760625,78.0,85.0
257,195.31923083958335,195.71216038958335,81.0,83.0
258,195.92960683958336,196.51455050625,78.0,81.0
259,196.53998283958333,196.8019358729167,73.0,85.0
260,196.84517083958335,197.14018590625,76.0,79.0
261,197.15035883958336,197.41994157291668,78.0,79.0
262,197.45554683958335,197.69969723958334,81.0,79.0
263,197.76073483958334,198.02141625625,78.0,85.0
264,198.06592283958335,198.33041910625002,76.0,81.0
265,198.37111083958334,199.31337878958334,73.0,86.0
266,199.59186283958334,199.77879048958334,71.0,81.0
267,199.89705083958336,200.05600292291666,71.0,81.0
268,200.20223883958334,200.37899355625,71.0,82.0
269,200.50742683958333,200.71851520625,73.0,90.0
270,200.81261483958335,201.0020857229167,76.0,79.0
271,201.11780283958336,201.29455755625003,76.0,79.0
272,201.42299083958335,201.60356040625,76.0,82.0
273,201.72817883958334,201.94562528958335,78.0,83.0
274,202.03336683958335,204.55752592291668,80.0,80.0
275,205.69562283958334,206.96088142291669,76.0,80.0
276,206.91637483958334,209.25233465625,78.0,90.0
