,start,end,pitch,velocity
0,1.8877492500000002,2.2181053687500003,66.0,78.0
1,1.8775452000000001,2.219380875,42.0,83.0
2,1.89157576875,2.229584925,54.0,79.0
3,1.8903002625000003,2.23086043125,57.0,71.0
4,2.3380029562500004,4.08799753125,54.0,77.0
5,4.3545783375000005,4.455343331250001,54.0,42.0
6,2.3316254250000004,4.627536675000001,57.0,70.0
7,2.3265234,4.69513850625,66.0,79.0
8,4.816311600000001,4.9770253875,57.0,63.0
9,4.81248508125,4.98595393125,54.0,68.0
10,4.8137605875,4.9923314625,61.0,66.0
11,5.188759425000001,5.320136568750001,54.0,65.0
12,5.1658003125,5.331616125000001,57.0,63.0
13,5.1760043625000005,5.348197706250001,61.0,72.0
14,5.519115543750001,5.6964109125,54.0,60.0
15,5.49615643125,5.709165975,57.0,63.0
16,5.531870606250001,5.72319654375,61.0,64.0
17,5.526768581250001,5.739778125000001,66.0,50.0
18,5.96554273125,6.13135854375,54.0,33.0
19,5.933655075000001,6.14411360625,57.0,36.0
20,5.8953898875,6.1568686687500005,61.0,50.0
21,5.927277543750001,6.17217474375,66.0,39.0
22,6.3596741625,6.563755162500001,54.0,49.0
23,6.4285515,6.563755162500001,54.0,63.0
24,6.348194606250001,6.567581681250001,61.0,62.0
25,6.335439543750001,6.57268370625,57.0,61.0
26,6.349470112500001,6.59309180625,66.0,51.0
27,6.8341624875,6.947682543750001,66.0,38.0
28,6.7920707812500005,6.962988618750001,61.0,56.0
29,6.774213693750001,6.964264125000001,57.0,55.0
30,6.802274831250001,6.968090643750001,54.0,41.0
31,7.438752450000001,7.609670287500001,54.0,64.0
32,7.433650425000001,7.6147723125,57.0,62.0
33,7.4285484,7.619874337500001,61.0,70.0
34,7.8009962250000005,7.936199887500001,57.0,56.0
35,7.812475781250001,7.94002640625,54.0,52.0
36,7.799720718750001,7.9464039375,61.0,62.0
37,8.19002563125,8.417065743750001,57.0,41.0
38,8.223188793750001,8.427269793750002,54.0,39.0
39,8.188750125,8.4489534,61.0,49.0
40,2.31631935,8.957880393750001,42.0,80.0
41,3.8839165312500006,8.974461975,49.0,60.0
42,8.716809712500002,8.983390518750001,57.0,46.0
43,8.72446275,8.998696593750001,54.0,46.0
44,8.7117076875,9.00379861875,61.0,53.0
45,9.340532268750001,9.656857818750002,57.0,39.0
46,9.354562837500001,9.658133325000001,61.0,36.0
47,9.366042393750002,9.668337375,66.0,25.0
48,9.331603725,9.709153575,54.0,38.0
49,9.3341547375,9.7754799,42.0,47.0
50,9.331603725,9.78951046875,49.0,60.0
51,9.987213937500002,10.360937268750002,42.0,58.0
52,10.025479125,10.360937268750002,57.0,51.0
53,9.992315962500001,10.362212775000001,49.0,66.0
54,10.031856656250001,10.366039293750001,66.0,42.0
55,10.0229281125,10.3673148,61.0,56.0
56,10.034407668750001,10.38644739375,54.0,46.0
57,10.535681625,10.747415662500002,42.0,62.0
58,10.554814218750002,10.852007175,61.0,63.0
59,10.553538712500002,10.85583369375,57.0,60.0
60,10.56119175,10.862211225000001,66.0,63.0
61,10.5382326375,10.877517300000001,54.0,55.0
62,11.153026650000001,11.498688843750001,57.0,64.0
63,11.1555776625,11.505066375000002,66.0,72.0
64,11.150475637500001,11.508892893750001,61.0,73.0
65,11.15430215625,11.519096943750002,54.0,73.0
66,12.391543218750002,12.590522193750001,61.0,52.0
67,12.4004717625,12.603277256250001,54.0,57.0
68,12.78567465,12.9361843875,61.0,52.0
69,12.78695015625,12.942561918750002,54.0,59.0
70,13.121132793750002,13.28184658125,54.0,65.0
71,13.110928743750002,13.285673100000002,61.0,66.0
72,13.445111381250001,13.595621118750001,61.0,77.0
73,13.451488912500002,13.60072314375,54.0,68.0
74,13.746130856250002,13.881334518750002,54.0,77.0
75,13.741028831250002,13.89153856875,61.0,79.0
76,14.073935962500002,14.2652619,54.0,79.0
77,14.063731912500002,14.2652619,61.0,80.0
78,14.4565878375,14.632607700000001,54.0,63.0
79,14.42980220625,14.63643421875,61.0,72.0
80,14.822658131250002,14.988473943750002,54.0,65.0
81,11.92980995625,15.040769700000002,42.0,71.0
82,11.92853445,15.056075775000002,49.0,69.0
83,14.813729587500001,15.081585900000002,61.0,65.0
84,15.226993612500001,15.417044043750002,66.0,67.0
85,15.223167093750002,15.442554168750002,54.0,67.0
86,15.206585512500002,15.447656193750001,61.0,68.0
87,15.238473168750001,15.459135750000002,42.0,66.0
88,15.232095637500002,15.475717331250001,49.0,73.0
89,15.640257637500001,15.779287818750001,49.0,79.0
90,15.635155612500002,15.790767375000001,42.0,78.0
91,15.63132909375,16.087960331250002,54.0,74.0
92,15.6300535875,16.1019909,66.0,73.0
93,15.628778081250001,16.10326640625,61.0,78.0
94,16.209133425,16.890253762500002,54.0,80.0
95,16.209133425,16.90428433125,61.0,78.0
96,17.127497925,17.2269874125,54.0,72.0
97,17.127497925,17.2320894375,61.0,72.0
98,16.821376425,17.359640062500002,49.0,75.0
99,16.209133425,17.362191075000002,42.0,82.0
100,17.433619425000003,17.80989376875,66.0,81.0
101,17.433619425000003,17.84688345,61.0,82.0
102,17.433619425000003,17.88897515625,54.0,83.0
103,18.045862425000003,18.123668306250003,54.0,80.0
104,18.045862425000003,18.2831065875,57.0,81.0
105,18.045862425000003,18.56499346875,66.0,79.0
106,18.351983925000003,18.58540156875,54.0,81.0
107,18.045862425000003,18.61091169375,61.0,84.0
108,18.658105425000002,18.925961737500003,59.0,81.0
109,18.658105425000002,18.929788256250003,54.0,82.0
110,19.117287675,19.2167771625,59.0,70.0
111,19.117287675,19.219328175,54.0,67.0
112,19.117287675,19.2422872875,63.0,80.0
113,18.658105425000002,19.6606533375,47.0,93.0
114,19.576469925,19.674683906250003,54.0,74.0
115,19.729530675000003,19.77417339375,59.0,67.0
116,19.729530675000003,19.785652950000003,54.0,68.0
117,19.882591425,20.090498943750003,54.0,80.0
118,19.882591425,20.122386600000002,59.0,82.0
119,20.188712925,20.300957475,54.0,78.0
120,19.882591425,20.43871215,47.0,82.0
121,20.494834425,20.59815043125,54.0,80.0
122,20.494834425,20.636415618750004,59.0,83.0
123,20.494834425,20.65172169375,63.0,83.0
124,21.107077425000004,21.484627275,62.0,75.0
125,21.107077425000004,21.5177904375,57.0,79.0
126,21.107077425000004,21.526718981250003,54.0,80.0
127,21.413198925000003,21.70784086875,45.0,49.0
128,21.719320425000003,21.826462950000003,54.0,80.0
129,21.107077425000004,21.84559554375,38.0,83.0
130,21.719320425000003,21.946360537500002,57.0,90.0
131,21.719320425000003,22.100696793750004,62.0,86.0
132,22.025441925000003,22.2320739375,54.0,66.0
133,22.178502675,22.26141058125,57.0,77.0
134,22.331563425000002,22.462940568750003,59.0,78.0
135,22.331563425000002,22.7014602375,61.0,76.0
136,22.331563425000002,22.771613081250003,56.0,80.0
137,22.943806425000002,23.077734581250002,56.0,82.0
138,22.331563425000002,23.107071225000002,37.0,88.0
139,22.943806425000002,23.189979131250002,61.0,85.0
140,23.249927925,23.31242773125,56.0,62.0
141,23.556049425,23.839211812500004,57.0,63.0
142,23.556049425,23.951456362500004,54.0,78.0
143,24.168292425,24.21803716875,54.0,71.0
144,24.168292425,24.281812481250004,61.0,80.0
145,24.168292425,24.288190012500003,57.0,81.0
146,24.627474675000002,24.683596950000002,54.0,63.0
147,24.627474675000002,24.68742346875,57.0,65.0
148,24.627474675000002,24.688698975,61.0,71.0
149,24.780535425000004,24.959106300000002,57.0,82.0
150,24.780535425000004,24.96293281875,54.0,80.0
151,24.780535425000004,24.9922694625,61.0,83.0
152,25.086656925000003,25.2371666625,54.0,75.0
153,25.392778425000003,25.428492600000002,54.0,73.0
154,23.862170925,25.529257593750003,49.0,79.0
155,25.392778425000003,25.615992018750003,57.0,84.0
156,25.392778425000003,25.646604168750002,61.0,88.0
157,25.392778425000003,25.68231834375,66.0,79.0
158,23.556049425,25.695073406250003,42.0,81.0
159,25.698899925000003,25.915735987500003,54.0,79.0
160,26.005021425000002,26.515223925,61.0,79.0
161,26.005021425000002,26.517774937500004,54.0,80.0
162,26.617264425000002,26.673386700000002,54.0,69.0
163,26.617264425000002,26.76139663125,61.0,80.0
164,26.617264425000002,26.767774162500004,57.0,75.0
165,26.923385925,26.989712250000004,61.0,77.0
166,26.923385925,26.990987756250004,57.0,67.0
167,27.076446675000003,27.11598736875,57.0,62.0
168,27.076446675000003,27.128742431250004,61.0,75.0
169,26.311142925000002,27.362160075000002,49.0,72.0
170,27.229507425,27.489710700000003,54.0,82.0
171,27.229507425,27.493537218750003,57.0,80.0
172,27.229507425,27.53690443125,61.0,84.0
173,27.535628925,27.909352256250003,49.0,79.0
174,26.005021425000002,27.937413393750003,42.0,85.0
175,27.841750425000004,28.039453893750004,54.0,86.0
176,27.841750425000004,28.086647625,57.0,90.0
177,27.841750425000004,28.249912425,66.0,79.0
178,27.841750425000004,28.350677418750003,61.0,90.0
179,28.147871925000004,28.494809625000002,42.0,80.0
180,28.453993425000004,28.673380500000004,54.0,82.0
181,28.453993425000004,28.797104606250002,59.0,83.0
182,28.760114925000003,28.877461500000003,54.0,71.0
183,29.066236425000003,29.151695343750003,59.0,83.0
184,29.066236425000003,29.170827937500004,54.0,79.0
185,28.453993425000004,29.173378950000004,47.0,100.0
186,29.066236425000003,29.187409518750002,63.0,84.0
187,29.372357925000003,29.402970075000002,63.0,68.0
188,29.372357925000003,29.43740874375,59.0,73.0
189,29.372357925000003,29.448888300000004,54.0,73.0
190,29.525418675000004,29.581540950000004,63.0,78.0
191,29.525418675000004,29.584091962500004,59.0,74.0
192,29.525418675000004,29.589193987500003,54.0,70.0
193,29.678479425000003,29.840468718750003,54.0,78.0
194,29.678479425000003,29.900417512500002,59.0,79.0
195,29.678479425000003,29.915723587500004,63.0,84.0
196,29.984600925000002,30.108223793750003,54.0,73.0
197,29.678479425000003,30.35771423541667,47.0,80.0
198,30.290249983333336,30.41881393541667,54.0,82.0
199,30.290249983333336,30.431543039583335,59.0,82.0
200,30.901246983333337,31.10236682916667,54.0,79.0
201,30.901246983333337,31.222020408333336,62.0,76.0
202,30.901246983333337,31.256388989583336,57.0,78.0
203,31.206745483333336,31.48805868541667,45.0,42.0
204,30.901246983333337,31.555522937500005,38.0,80.0
205,31.512243983333338,31.603893533333338,54.0,84.0
206,31.512243983333338,31.668811964583337,57.0,90.0
207,31.512243983333338,31.72863875416667,62.0,84.0
208,31.817742483333337,31.983220837500003,54.0,73.0
209,31.970491733333336,32.05704964166667,57.0,63.0
210,32.12324098333334,32.33708993333334,56.0,76.0
211,32.12324098333334,32.514024481250004,61.0,80.0
212,32.42873948333334,32.53184522708334,56.0,70.0
213,32.12324098333334,32.79915641458334,37.0,83.0
214,32.73423798333334,32.84243536875,56.0,81.0
215,32.73423798333334,32.974818052083336,61.0,85.0
216,32.73423798333334,33.05628431875,64.0,75.0
217,33.345234983333334,33.52344244166667,54.0,80.0
218,33.345234983333334,33.532352814583334,61.0,80.0
219,33.95623198333334,34.07333974166667,61.0,75.0
220,34.26173048333334,34.30755525833334,54.0,53.0
221,34.26173048333334,34.31773854166667,61.0,66.0
222,34.41447973333334,34.47557943333334,61.0,75.0
223,34.41447973333334,34.48703562708334,54.0,69.0
224,34.56722898333334,34.735253158333336,54.0,81.0
225,34.56722898333334,34.74416353125,61.0,85.0
226,34.872727483333335,34.99365397291667,54.0,76.0
227,35.178225983333334,35.32461068125,54.0,68.0
228,33.345234983333334,35.40989567916667,42.0,81.0
229,35.178225983333334,35.45317463333333,61.0,74.0
230,36.094324302083336,36.196053635416675,54.0,51.0
231,36.39951230208334,36.52667396875,54.0,72.0
232,36.39951230208334,36.56482246875001,61.0,75.0
233,36.70470030208334,36.78481215208334,54.0,56.0
234,37.00988830208334,37.12942026875,54.0,80.0
235,37.00988830208334,37.16629715208334,66.0,75.0
236,37.31507630208334,37.71182070208334,49.0,48.0
237,37.62026430208334,37.79193255208334,54.0,76.0
238,37.62026430208334,37.93562523541667,61.0,78.0
239,35.78913630208334,37.99539121875001,42.0,80.0
240,38.84101630208334,38.980894135416676,54.0,75.0
241,39.14620430208334,39.239032318750006,61.0,69.0
242,39.45139230208334,39.548035168750005,54.0,74.0
243,39.45139230208334,39.55439325208334,61.0,73.0
244,39.45139230208334,39.60652953541667,66.0,73.0
245,38.53582830208334,40.089743868750006,49.0,63.0
246,38.23064030208334,40.11899105208334,42.0,80.0
247,40.06176830208334,40.14696661875001,54.0,75.0
248,40.06176830208334,40.18765835208334,61.0,79.0
249,40.67214430208334,40.78531818541667,52.0,74.0
250,40.67214430208334,40.956986435416674,57.0,67.0
251,40.97733230208334,41.03074020208334,52.0,50.0
252,41.28252030208334,41.37661993541667,57.0,64.0
253,41.89289630208334,41.955205518750006,52.0,50.0
254,41.89289630208334,41.971736535416674,57.0,61.0
255,42.19808430208334,42.30490010208334,52.0,48.0
256,42.50327230208334,42.592285468750006,52.0,75.0
257,42.50327230208334,42.63552043541667,57.0,80.0
258,40.67214430208334,42.65205145208334,45.0,79.0
259,42.50327230208334,42.70037288541667,61.0,80.0
260,42.80846030208334,42.85805335208334,61.0,46.0
261,43.11364830208334,43.39086073541667,56.0,68.0
262,43.11364830208334,43.46207126875001,61.0,72.0
263,43.724024302083336,43.820667168750006,61.0,67.0
264,44.02921230208334,44.164003668750006,56.0,71.0
265,43.41883630208334,44.413240535416676,44.0,58.0
266,43.11364830208334,44.45393226875001,37.0,80.0
267,44.33440030208334,44.45774711875001,56.0,81.0
268,44.33440030208334,44.48699430208334,64.0,81.0
269,44.63958830208334,44.76929320208334,37.0,83.0
270,44.94477630208334,45.04396240208334,56.0,81.0
271,44.94477630208334,45.13679041875001,61.0,84.0
272,45.24996430208334,45.38348405208334,56.0,74.0
273,45.55515230208334,45.876871318750005,61.0,79.0
274,45.55515230208334,45.89467395208334,54.0,75.0
275,46.16552830208334,46.24182530208334,61.0,73.0
276,46.16552830208334,46.24691176875001,54.0,71.0
277,46.47071630208334,46.60169281875001,54.0,79.0
278,46.77590430208334,46.88399171875,54.0,81.0
279,46.77590430208334,46.92086860208334,66.0,77.0
280,47.08109230208334,47.20316750208334,54.0,76.0
281,47.386280302083335,47.51471358541667,54.0,85.0
282,47.386280302083335,47.58338088541667,61.0,83.0
283,45.55515230208334,47.75123428541667,42.0,80.0
284,47.69146830208334,47.82371643541667,54.0,70.0
285,47.99665630208334,48.18739880208334,54.0,79.0
286,47.99665630208334,48.33617795208334,61.0,79.0
287,48.30184430208334,48.39848716875001,54.0,66.0
288,48.60703230208334,48.68460091875001,54.0,70.0
289,48.60703230208334,48.72147780208334,61.0,74.0
290,48.91222030208334,49.02539418541667,54.0,72.0
291,47.99665630208334,49.043196818750005,42.0,81.0
292,49.21740830208334,49.375088768750004,54.0,79.0
293,49.21740830208334,49.62178240208334,61.0,75.0
294,49.52259630208334,49.635770185416675,54.0,63.0
295,49.21740830208334,49.64085665208334,66.0,73.0
296,49.82778430208334,49.95748920208334,54.0,80.0
297,49.82778430208334,50.15713301875,61.0,81.0
298,50.13297230208334,50.30209731875001,42.0,80.0
299,50.43816030208334,50.67976746875001,52.0,76.0
300,50.43816030208334,50.74843476875,56.0,72.0
301,51.04853630208334,51.16171018541667,56.0,71.0
302,51.04853630208334,51.173154735416674,59.0,71.0
303,51.353724302083336,51.47579950208334,52.0,67.0
304,51.65891230208334,51.79751851875001,56.0,78.0
305,51.65891230208334,51.828037318750006,59.0,77.0
306,51.65891230208334,51.957742218750006,64.0,73.0
307,51.96410030208334,52.02386628541667,52.0,44.0
308,52.26928830208334,52.39899320208334,56.0,83.0
309,50.74334830208334,52.402808052083344,47.0,74.0
310,50.43816030208334,52.41043775208334,40.0,85.0
311,52.26928830208334,52.45240110208334,59.0,83.0
312,52.26928830208334,52.48546313541667,64.0,80.0
313,52.57447630208334,52.71435413541667,40.0,83.0
314,52.87966430208334,53.100925602083336,54.0,82.0
315,52.87966430208334,53.127629552083334,66.0,77.0
316,53.490040302083344,53.59431286875001,57.0,64.0
317,53.490040302083344,53.603214185416675,61.0,72.0
318,53.79522830208334,53.93892098541667,54.0,60.0
319,54.10041630208334,54.222491502083344,57.0,73.0
320,54.10041630208334,54.227577968750005,61.0,79.0
321,54.10041630208334,54.312776285416675,66.0,70.0
322,53.18485230208334,54.32549245208334,49.0,73.0
323,54.40560430208334,54.51369171875001,54.0,72.0
324,52.87966430208334,54.85829983541667,42.0,85.0
325,54.71079230208334,54.948584618750004,57.0,81.0
326,54.71079230208334,54.97528856875,61.0,83.0
327,54.71079230208334,54.994362818750005,66.0,79.0
328,55.015980302083335,55.129154185416674,49.0,80.0
329,55.16857430208334,55.276661718750006,54.0,85.0
330,55.62635630208334,55.728085635416676,54.0,51.0
331,55.93154430208334,56.058705968750004,54.0,72.0
332,55.93154430208334,56.09685446875001,61.0,75.0
333,56.23673230208334,56.31684415208334,54.0,56.0
334,56.54192030208334,56.66145226875001,54.0,80.0
335,56.54192030208334,56.69832915208334,66.0,75.0
336,56.84710830208334,57.243852702083345,49.0,48.0
337,57.15229630208334,57.32396455208334,54.0,76.0
338,57.15229630208334,57.467657235416674,61.0,78.0
339,55.321168302083336,57.52742321875,42.0,80.0
340,58.37304830208334,58.51292613541668,54.0,75.0
341,58.678236302083334,58.77106431875001,61.0,69.0
342,58.983424302083336,59.080067168750006,54.0,74.0
343,58.983424302083336,59.086425252083345,61.0,73.0
344,58.983424302083336,59.13856153541667,66.0,73.0
345,58.06786030208334,59.62177586875001,49.0,63.0
346,57.76267230208334,59.65102305208334,42.0,80.0
347,59.59380030208334,59.67899861875001,54.0,75.0
348,59.59380030208334,59.71969035208334,61.0,79.0
349,60.20417630208334,60.31735018541667,52.0,74.0
350,60.20417630208334,60.48901843541667,57.0,67.0
351,60.50936430208334,60.56277220208334,52.0,50.0
352,60.81455230208334,60.90865193541667,57.0,64.0
353,61.424928302083345,61.48723751875001,52.0,50.0
354,61.424928302083345,61.50376853541667,57.0,61.0
355,61.73011630208334,61.83693210208334,52.0,48.0
356,62.03530430208334,62.12431746875001,52.0,75.0
357,62.03530430208334,62.167552435416674,57.0,80.0
358,60.20417630208334,62.18408345208334,45.0,79.0
359,62.03530430208334,62.23240488541667,61.0,80.0
360,62.34049230208334,62.39008535208334,61.0,46.0
361,62.645680302083335,62.922892735416674,56.0,68.0
362,62.645680302083335,62.99410326875001,61.0,72.0
363,63.25605630208334,63.35269916875001,61.0,67.0
364,63.56124430208334,63.69603566875001,56.0,71.0
365,62.950868302083336,63.94527253541668,44.0,58.0
366,62.645680302083335,63.98596426875001,37.0,80.0
367,63.86643230208334,63.98977911875001,56.0,81.0
368,63.86643230208334,64.01902630208335,64.0,81.0
369,64.17162030208334,64.30132520208335,37.0,83.0
370,64.47680830208334,64.57599440208334,56.0,81.0
371,64.47680830208334,64.66882241875001,61.0,84.0
372,64.78199630208334,64.91551605208335,56.0,74.0
373,65.08718430208334,65.40890331875,61.0,79.0
374,65.08718430208334,65.42670595208334,54.0,75.0
375,65.69756030208333,65.77385730208334,61.0,73.0
376,65.69756030208333,65.77894376875001,54.0,71.0
377,66.00274830208335,66.13372481875001,54.0,79.0
378,66.30793630208333,66.41602371875001,54.0,81.0
379,66.30793630208333,66.45290060208333,66.0,77.0
380,66.61312430208334,66.73519950208333,54.0,76.0
381,66.91831230208334,67.04674558541667,54.0,85.0
382,66.91831230208334,67.11541288541667,61.0,83.0
383,65.08718430208334,67.28326628541667,42.0,80.0
384,67.22350030208334,67.35574843541667,54.0,70.0
385,67.52868830208334,67.71943080208334,54.0,79.0
386,67.52868830208334,67.86859113125001,61.0,79.0
387,67.83415246250001,67.9310909375,54.0,66.0
388,68.1402739625,68.21807984375,54.0,70.0
389,68.1402739625,68.25506952500001,61.0,74.0
390,68.4463954625,68.55991551875,54.0,72.0
391,67.52868830208334,68.57777260625001,42.0,81.0
392,68.75251696250001,68.9106797375,54.0,79.0
393,68.75251696250001,69.15812795000001,61.0,75.0
394,69.05863846250001,69.17215851875001,54.0,63.0
395,68.75251696250001,69.17726054375001,66.0,73.0
396,69.3647599625,69.49486160000001,54.0,80.0
397,69.3647599625,69.69511608125,61.0,81.0
398,69.6708814625,69.84052379375001,42.0,80.0
399,69.97700296250001,70.21934915000001,52.0,76.0
400,69.97700296250001,70.28822648750001,56.0,72.0
401,70.58924596250002,70.70276601875001,56.0,71.0
402,70.58924596250002,70.714245575,59.0,71.0
403,70.8953674625,71.0178160625,52.0,67.0
404,71.20148896250001,71.34051914375002,56.0,78.0
405,71.20148896250001,71.37113129375001,59.0,77.0
406,71.20148896250001,71.50123293125002,64.0,73.0
407,71.50761046250001,71.56755925625001,52.0,44.0
408,71.81373196250001,71.9438336,56.0,83.0
409,70.28312446250001,71.94766011875001,47.0,74.0
410,69.97700296250001,71.95531315625001,40.0,85.0
411,71.81373196250001,71.9974048625,59.0,83.0
412,71.81373196250001,72.03056802500001,64.0,80.0
413,72.1198534625,72.26015915,40.0,83.0
414,72.4259749625,72.64791305000001,54.0,82.0
415,72.4259749625,72.67469868125,66.0,77.0
416,73.03821796250001,73.142809475,57.0,64.0
417,73.03821796250001,73.15173801875001,61.0,72.0
418,73.34433946250002,73.48847166875001,54.0,60.0
419,73.6504609625,73.7729095625,57.0,73.0
420,73.6504609625,73.7780115875,61.0,79.0
421,73.6504609625,73.86347050625001,66.0,70.0
422,72.73209646250001,73.87622556875002,49.0,73.0
423,73.95658246250001,74.06500049375,54.0,72.0
424,72.4259749625,74.41066268750001,42.0,85.0
425,74.26270396250001,74.50122363125001,57.0,81.0
426,74.26270396250001,74.5280092625,61.0,83.0
427,74.26270396250001,74.54714185625001,66.0,79.0
428,74.56882546250002,74.68234551875001,49.0,80.0
429,74.72188621250001,74.83030424375,54.0,85.0
430,74.8749469625,75.08668100000001,54.0,81.0
431,74.8749469625,75.163211375,66.0,78.0
432,75.18106846250001,75.26292423125001,66.0,65.0
433,74.8749469625,75.32049835625001,61.0,78.0
434,75.18106846250001,75.36783708125002,54.0,83.0
435,74.8749469625,75.39342558125001,42.0,85.0
436,75.48810303125,75.80667985625001,52.0,84.0
437,75.48810303125,75.82587123125,64.0,80.0
438,75.48810303125,75.90519558125001,40.0,84.0
439,75.79516503125001,75.95125488125001,47.0,81.0
440,76.10222703125001,76.30437618125,51.0,83.0
441,76.10222703125001,76.55386405625,63.0,81.0
442,76.40928903125001,76.58073198125001,51.0,85.0
443,76.10222703125001,76.59992335625002,39.0,95.0
444,76.71635103125001,76.96328005625001,49.0,88.0
445,77.02341303125002,77.29209228125,49.0,81.0
446,76.71635103125001,77.33559273125002,37.0,90.0
447,76.71635103125001,77.33559273125002,61.0,80.0
448,77.33047503125002,77.47632948125,54.0,79.0
449,77.33047503125002,77.53902130625,66.0,80.0
450,77.94459903125001,78.05207073125001,66.0,80.0
451,77.94459903125001,78.06358555625,61.0,81.0
452,78.25166103125001,78.30795573125,69.0,72.0
453,78.25166103125001,78.31179400625001,61.0,73.0
454,78.40519203125001,78.47044270625001,69.0,71.0
455,78.40519203125001,78.47683983125,61.0,72.0
456,78.55872303125001,78.72629640625,61.0,80.0
457,78.55872303125001,78.77216790625,69.0,84.0
458,78.86518511458334,79.00025119791667,61.0,80.0
459,79.17099511458333,79.34938428125001,61.0,81.0
460,79.17099511458333,79.37869107291667,66.0,83.0
461,79.17099511458333,79.52140240625,69.0,83.0
462,77.63753703125,79.55962865625,49.0,73.0
463,77.33047503125002,79.61187119791667,42.0,81.0
464,79.47680511458334,79.64117798958334,61.0,71.0
465,79.78261511458334,80.20437807291667,61.0,80.0
466,79.78261511458334,80.20692648958334,66.0,81.0
467,80.39423511458334,80.51783332291667,61.0,79.0
468,80.39423511458334,80.52038173958334,66.0,80.0
469,80.39423511458334,80.52420436458334,69.0,80.0
470,80.70004511458333,80.75483607291667,61.0,62.0
471,80.70004511458333,80.76120711458334,66.0,71.0
472,80.85295011458334,80.91920894791667,66.0,79.0
473,80.85295011458334,80.93195103125001,61.0,79.0
474,81.00585511458334,81.15493748958333,61.0,84.0
475,81.00585511458334,81.16258273958334,66.0,82.0
476,80.08842511458334,81.16513115625,49.0,62.0
477,79.78261511458334,81.20845423958333,42.0,83.0
478,81.31166511458333,81.44673119791668,61.0,79.0
479,81.31166511458333,81.44800540625,66.0,80.0
480,81.31166511458333,81.47731219791667,42.0,81.0
481,81.61747511458334,81.78184798958334,61.0,80.0
482,81.61747511458334,81.83154211458334,66.0,84.0
483,81.61747511458334,81.87231678125,49.0,84.0
484,81.61747511458334,81.92328511458334,42.0,84.0
485,81.61747511458334,81.99591498958334,69.0,86.0
486,81.92328511458334,82.09148061458333,61.0,80.0
487,82.53490511458334,82.69163273958334,59.0,80.0
488,82.84071511458333,82.97068436458333,59.0,81.0
489,82.84071511458333,82.98470065625,64.0,84.0
490,82.84071511458333,82.99871694791668,68.0,84.0
491,83.14652511458334,83.18092873958334,68.0,65.0
492,83.14652511458334,83.18857398958333,59.0,66.0
493,83.14652511458334,83.19876765625,64.0,70.0
494,83.29943011458334,83.35422107291667,68.0,69.0
495,83.29943011458334,83.35931790625,64.0,73.0
496,83.29943011458334,83.37843103125,59.0,71.0
497,83.45233511458333,83.57338490625,59.0,77.0
498,83.45233511458333,83.58612698958333,64.0,80.0
499,82.53490511458334,83.59886907291667,47.0,74.0
500,83.45233511458333,83.60014328125,68.0,81.0
501,82.22909511458334,83.69061207291668,40.0,81.0
502,83.75814511458334,83.87537228125001,59.0,78.0
503,84.06395511458334,84.16971440625001,59.0,81.0
504,84.06395511458334,84.25890898958333,64.0,79.0
505,84.06395511458334,84.33408728125,40.0,80.0
506,84.67557511458334,84.85269007291667,61.0,80.0
507,84.67557511458334,84.90238419791667,64.0,83.0
508,84.98138511458333,85.03745028125,61.0,70.0
509,85.13429011458334,85.16359690625,61.0,56.0
510,85.13429011458334,85.16487111458333,64.0,61.0
511,85.28719511458334,85.39550282291667,61.0,75.0
512,85.28719511458334,85.41334173958333,64.0,78.0
513,84.67557511458334,85.49616528125,37.0,83.0
514,85.59300511458333,85.74081328125,61.0,78.0
515,85.59300511458333,85.74336169791667,64.0,74.0
516,85.59300511458333,85.75992640625,37.0,84.0
517,85.89881511458334,86.06955903125001,61.0,80.0
518,85.89881511458334,86.17531832291667,64.0,81.0
519,86.20462511458334,86.23393190625,64.0,47.0
520,85.89881511458334,86.26833553125,68.0,86.0
521,85.89881511458334,86.32822332291667,44.0,81.0
522,86.20462511458334,86.34478803125,61.0,75.0
523,85.89881511458334,86.36007853125001,37.0,88.0
524,86.51043511458334,86.59962969791667,37.0,85.0
525,86.51043511458334,86.62383965625,61.0,80.0
526,86.51043511458334,86.67225957291667,64.0,79.0
527,86.81624511458334,86.98316640625,61.0,78.0
528,87.12205511458333,87.28133115625,66.0,80.0
529,87.12205511458333,87.29917007291667,61.0,80.0
530,87.42786511458334,87.48902711458334,66.0,73.0
531,87.58077011458334,87.62281898958334,66.0,69.0
532,87.58077011458334,87.63301265625,61.0,64.0
533,87.73367511458333,87.82032128125,61.0,71.0
534,87.73367511458333,87.82032128125,66.0,75.0
535,87.12205511458333,87.91206428125,42.0,81.0
536,88.03948511458334,88.18219644791667,66.0,80.0
537,88.03948511458334,88.18984169791668,61.0,78.0
538,88.03948511458334,88.20513219791667,42.0,81.0
539,88.34529511458334,88.50329694791667,61.0,80.0
540,88.34529511458334,88.54789423958334,66.0,81.0
541,88.34529511458334,88.76960648958334,69.0,83.0
542,88.65110511458334,88.82439744791667,61.0,71.0
543,88.95691511458334,89.07414228125,61.0,79.0
544,88.34529511458334,89.11491694791667,49.0,86.0
545,88.95691511458334,89.11491694791667,66.0,82.0
546,88.34529511458334,89.13912690625,42.0,81.0
547,88.95691511458334,89.15186898958333,69.0,85.0
548,89.26272511458333,89.45385636458334,61.0,83.0
549,89.56853511458334,89.76221478125001,61.0,80.0
550,89.56853511458334,89.78642473958334,66.0,80.0
551,89.87434511458333,89.93678132291667,61.0,65.0
552,90.02725011458334,90.08331528125001,61.0,66.0
553,90.02725011458334,90.08968632291668,66.0,68.0
554,90.18015511458334,90.28464019791667,61.0,73.0
555,90.18015511458334,90.30502753125,66.0,74.0
556,89.56853511458334,90.41843207291667,42.0,84.0
557,90.48596511458334,90.63504748958334,42.0,80.0
558,90.48596511458334,90.66180586458334,61.0,77.0
559,90.48596511458334,90.67199953125001,66.0,74.0
560,90.79177511458334,90.96251903125,61.0,79.0
561,90.79177511458334,91.01858419791667,66.0,79.0
562,90.79177511458334,91.20589282291667,69.0,81.0
563,91.09758511458334,91.21863490625,61.0,79.0
564,90.79177511458334,91.23519961458334,49.0,80.0
565,90.79177511458334,91.30145844791667,42.0,80.0
566,91.40339511458333,91.51552544791667,61.0,83.0
567,91.40339511458333,91.73468928125,66.0,84.0
568,91.70920511458334,91.84936803125001,61.0,73.0
569,92.01501511458333,92.18575903125,59.0,82.0
570,92.01501511458333,92.23290473958333,64.0,81.0
571,92.32082511458334,92.37689028125,64.0,68.0
572,92.32082511458334,92.38835815625,59.0,68.0
573,92.47373011458333,92.53998894791667,59.0,69.0
574,92.47373011458333,92.53998894791667,64.0,70.0
575,92.62663511458334,92.73621703125,59.0,73.0
576,92.62663511458334,92.74513648958333,64.0,73.0
577,92.01501511458333,92.78973378125,40.0,81.0
578,92.93244511458335,93.13377003125001,59.0,77.0
579,92.93244511458335,93.13886686458333,64.0,77.0
580,92.93244511458335,93.16052840625001,40.0,80.0
581,93.23825511458334,93.38733748958333,59.0,80.0
582,93.23825511458334,93.43193478125,64.0,79.0
583,93.23825511458334,93.43575740625,68.0,80.0
584,93.23825511458334,93.47016103125,47.0,79.0
585,93.23825511458334,93.53896828125,40.0,79.0
586,93.54406511458333,93.64600178125,59.0,76.0
587,93.84987511458334,93.93652128125001,59.0,80.0
588,93.84987511458334,93.97092490625,64.0,82.0
589,93.84987511458334,94.01297378125,68.0,81.0
590,94.15568511458333,94.25379915625001,59.0,71.0
591,94.46149511458334,94.72143361458333,61.0,76.0
592,94.46149511458334,94.74691778125,64.0,80.0
593,95.07311511458335,95.17632598958333,61.0,80.0
594,95.07311511458335,95.21200382291667,64.0,84.0
595,94.46149511458334,95.29864998958334,37.0,83.0
596,95.37892511458334,95.54457219791666,61.0,79.0
597,95.68473511458333,95.86057586458334,61.0,80.0
598,95.68473511458333,95.86694690625,64.0,80.0
599,95.99054511458334,96.04661028125,61.0,69.0
600,95.99054511458334,96.05043290625001,64.0,72.0
601,96.14345011458335,96.21607998958333,61.0,72.0
602,96.14345011458335,96.21607998958333,64.0,78.0
603,96.29635511458333,96.42632436458334,61.0,81.0
604,95.68473511458333,96.43524382291668,37.0,83.0
605,96.29635511458333,96.44034065625,64.0,82.0
606,96.60216511458334,96.73850540625,37.0,88.0
607,96.90797511458334,98.14650561458333,44.0,85.0
608,96.90797511458334,98.16689294791666,37.0,95.0
609,96.90797511458334,99.14166232291667,61.0,81.0
610,96.90797511458334,99.14421073958334,68.0,80.0
611,99.35445511458335,100.03488236458334,54.0,80.0
612,99.35445511458335,100.04889865625,61.0,78.0
613,100.27188511458334,100.37127336458335,54.0,72.0
614,100.27188511458334,100.37637019791667,61.0,72.0
615,99.96607511458333,100.50379103125,49.0,75.0
616,99.35445511458335,100.50633944791667,42.0,82.0
617,100.57769511458334,100.95358657291666,66.0,81.0
618,100.57769511458334,100.99053861458334,61.0,82.0
619,100.57769511458334,101.03258748958334,54.0,83.0
620,101.18931511458334,101.26704182291667,54.0,80.0
621,101.18931511458334,101.42631786458334,57.0,81.0
622,101.18931511458334,101.70791790625,66.0,79.0
623,101.49512511458335,101.72830523958334,54.0,81.0
624,101.18931511458334,101.75378940625001,61.0,84.0
625,101.80093511458334,102.06851886458334,59.0,81.0
626,101.80093511458334,102.07234148958334,54.0,82.0
627,102.25965011458334,102.35903836458334,59.0,70.0
628,102.25965011458334,102.36158678125,54.0,67.0
629,102.25965011458334,102.38452253125001,63.0,80.0
630,101.80093511458334,102.80246286458333,47.0,93.0
631,102.71836511458334,102.81647915625001,54.0,74.0
632,102.87127011458334,102.91586740625,59.0,67.0
633,102.87127011458334,102.92733528125001,54.0,68.0
634,103.02417511458334,103.23187107291668,54.0,80.0
635,103.02417511458334,103.26372628125,59.0,82.0
636,103.32998511458334,103.44211544791668,54.0,78.0
637,103.02417511458334,103.57972994791668,47.0,82.0
638,103.63579511458335,103.73900598958333,54.0,80.0
639,103.63579511458335,103.77723223958334,59.0,83.0
640,103.63579511458335,103.79252273958333,63.0,83.0
641,104.24741511458333,104.62458078125,62.0,75.0
642,104.24741511458333,104.65771019791667,57.0,79.0
643,104.24741511458333,104.66662965625001,54.0,80.0
644,104.55322511458334,104.84756723958334,45.0,49.0
645,104.85903511458334,104.96606861458334,54.0,80.0
646,104.24741511458333,104.98518173958334,38.0,83.0
647,104.85903511458334,105.08584419791667,57.0,90.0
648,104.85903511458334,105.24002340625,62.0,86.0
649,105.16484511458334,105.37126686458333,54.0,66.0
650,105.31775011458333,105.40057365625,57.0,77.0
651,105.47065511458334,105.60189857291667,59.0,78.0
652,105.47065511458334,105.84017553125,61.0,76.0
653,105.47065511458334,105.91025698958333,56.0,80.0
654,106.08227511458334,106.21606698958334,56.0,82.0
655,105.47065511458334,106.24537378125001,37.0,88.0
656,106.08227511458334,106.32819732291668,61.0,85.0
657,106.38808511458333,106.45052132291667,56.0,62.0
658,106.69389511458334,106.97676936458333,57.0,63.0
659,106.69389511458334,107.08889969791667,54.0,78.0
660,107.30551511458334,107.35520923958333,54.0,71.0
661,107.30551511458334,107.41891965625001,61.0,80.0
662,107.30551511458334,107.42529069791667,57.0,81.0
663,107.76423011458334,107.82029528125,54.0,63.0
664,107.76423011458334,107.82411790625001,57.0,65.0
665,107.76423011458334,107.82539211458334,61.0,71.0
666,107.91713511458335,108.09552428125001,57.0,82.0
667,107.91713511458335,108.09934690625,54.0,80.0
668,107.91713511458335,108.12865369791668,61.0,83.0
669,108.22294511458334,108.37330169791667,54.0,75.0
670,108.52875511458333,108.56443294791667,54.0,73.0
671,106.99970511458334,108.66509540625,49.0,79.0
672,108.52875511458333,108.75174157291667,57.0,84.0
673,108.52875511458333,108.78232257291667,61.0,88.0
674,108.52875511458333,108.81800040625001,66.0,79.0
675,106.69389511458334,108.83074248958334,42.0,81.0
676,108.83456511458334,109.05118053125,54.0,79.0
677,109.14037511458334,109.65005844791668,61.0,79.0
678,109.14037511458334,109.65260686458333,54.0,80.0
679,109.75199511458334,109.80806028125001,54.0,69.0
680,109.75199511458334,109.89598065625,61.0,80.0
681,109.75199511458334,109.90235169791667,57.0,75.0
682,110.05780511458335,110.12406394791667,61.0,77.0
683,110.05780511458335,110.12533815625001,57.0,67.0
684,110.21071011458334,110.25021057291667,57.0,62.0
685,110.21071011458334,110.26295265625001,61.0,75.0
686,109.44618511458334,110.49613278125,49.0,72.0
687,110.36361511458334,110.62355361458334,54.0,82.0
688,110.36361511458334,110.62737623958334,57.0,80.0
689,110.36361511458334,110.67069932291668,61.0,84.0
690,110.66942511458333,111.04276815625,49.0,79.0
691,109.14037511458334,111.07080073958335,42.0,85.0
692,110.97523511458334,111.17273740625001,54.0,86.0
693,110.97523511458334,111.21988311458334,57.0,90.0
694,110.97523511458334,111.38298178125001,66.0,79.0
695,110.97523511458334,111.48364423958334,61.0,90.0
696,111.28104511458334,111.62762978125001,42.0,80.0
697,111.58685511458333,111.80601894791667,54.0,82.0
698,111.58685511458333,111.92961715625,59.0,83.0
699,111.89266511458334,112.00989228125,54.0,71.0
700,112.19847511458335,112.28384707291667,59.0,83.0
701,112.19847511458335,112.30296019791666,54.0,79.0
702,111.58685511458333,112.30550861458335,47.0,100.0
703,112.19847511458335,112.31952490625,63.0,84.0
704,112.50428511458334,112.53486611458334,63.0,68.0
705,112.50428511458334,112.56926973958335,59.0,73.0
706,112.50428511458334,112.58073761458334,54.0,73.0
707,112.65719011458333,112.71325528125001,63.0,78.0
708,112.65719011458333,112.71580369791667,59.0,74.0
709,112.65719011458333,112.72090053125001,54.0,70.0
710,112.81009511458333,112.97191957291668,54.0,78.0
711,112.81009511458333,113.03180736458333,59.0,79.0
712,112.81009511458333,113.04709786458334,63.0,84.0
713,113.11590511458334,113.23950332291668,54.0,73.0
714,112.81009511458333,113.48924815625,47.0,80.0
715,113.42171511458334,113.55041015625,54.0,82.0
716,113.42171511458334,113.56315223958333,59.0,82.0
717,114.03333511458334,114.23466003125,54.0,79.0
718,114.03333511458334,114.35443561458334,62.0,76.0
719,114.03333511458334,114.38883923958335,57.0,78.0
720,114.33914511458335,114.62074515625,45.0,42.0
721,114.03333511458334,114.68827819791667,38.0,80.0
722,114.64495511458334,114.73669811458333,54.0,84.0
723,114.64495511458334,114.80168273958334,57.0,90.0
724,114.64495511458334,114.86157053125001,62.0,84.0
725,114.95076511458333,115.11641219791667,54.0,73.0
726,115.10367011458334,115.19031628125,57.0,63.0
727,115.25657511458334,115.47064211458334,56.0,76.0
728,115.25657511458334,115.64775707291668,61.0,80.0
729,115.56238511458334,115.66559598958334,56.0,70.0
730,115.25657511458334,115.93317973958334,37.0,83.0
731,115.86819511458333,115.97650282291667,56.0,81.0
732,115.86819511458333,116.10902048958334,61.0,85.0
733,115.86819511458333,116.19056982291667,64.0,75.0
734,116.47981511458335,116.65820428125001,54.0,80.0
735,116.47981511458335,116.66712373958333,61.0,80.0
736,117.09143511458333,117.20866228125001,61.0,75.0
737,117.39724511458334,117.44311661458335,54.0,53.0
738,117.39724511458334,117.45331028125,61.0,66.0
739,117.55015011458335,117.61131211458334,61.0,75.0
740,117.55015011458335,117.62277998958334,54.0,69.0
741,117.70305511458334,117.87125061458335,54.0,81.0
742,117.70305511458334,117.88017007291667,61.0,85.0
743,118.00886511458333,118.12991490625001,54.0,76.0
744,118.31467511458334,118.46120907291667,54.0,68.0
745,116.47981511458335,118.54658103125001,42.0,81.0
746,118.31467511458334,118.58990411458333,61.0,74.0
747,119.23210511458333,119.33404178125001,54.0,51.0
748,119.53791511458334,119.66533594791667,54.0,72.0
749,119.53791511458334,119.70356219791668,61.0,75.0
750,119.84372511458334,119.92400023958334,54.0,56.0
751,120.14953511458333,120.26931069791667,54.0,80.0
752,120.14953511458333,120.30626273958333,66.0,75.0
753,120.45534511458334,120.85289811458334,49.0,48.0
754,120.76115511458335,120.93317323958334,54.0,76.0
755,120.76115511458335,121.07715878125,61.0,78.0
756,118.92629511458334,121.13704657291667,42.0,80.0
757,121.98439511458334,122.12455803125,54.0,75.0
758,122.29020511458333,122.38322232291668,61.0,69.0
759,122.59601511458334,122.69285494791667,54.0,74.0
760,122.59601511458334,122.69922598958334,61.0,73.0
761,122.59601511458334,122.75146853125,66.0,73.0
762,121.67858511458334,123.23566769791668,49.0,63.0
763,121.37277511458333,123.26497448958334,42.0,80.0
764,123.20763511458334,123.29300707291668,54.0,75.0
765,123.20763511458334,123.33378173958334,61.0,79.0
766,123.81925511458334,123.93265965625,52.0,74.0
767,123.81925511458334,124.10467778125,57.0,67.0
768,124.12506511458334,124.17858186458334,52.0,50.0
769,124.43087511458333,124.52516653125001,57.0,64.0
770,125.04249511458335,125.10493132291667,52.0,50.0
771,125.04249511458335,125.12149603125,57.0,61.0
772,125.34830511458334,125.45533861458334,52.0,48.0
773,125.65411511458333,125.74330969791667,52.0,75.0
774,125.65411511458333,125.78663278125,57.0,80.0
775,123.81925511458334,125.80319748958334,45.0,79.0
776,125.65411511458333,125.85161740625,61.0,80.0
777,125.95992511458334,126.00961923958334,61.0,46.0
778,126.26573511458334,126.54351253125,56.0,68.0
779,126.26573511458334,126.61486819791668,61.0,72.0
780,126.87735511458334,126.97419494791667,61.0,67.0
781,127.18316511458335,127.31823119791667,56.0,71.0
782,126.57154511458333,127.56797603125,44.0,58.0
783,126.26573511458334,127.60875069791666,37.0,80.0
784,127.48897511458334,127.61257332291667,56.0,81.0
785,127.48897511458334,127.64188011458333,64.0,81.0
786,127.79478511458333,127.92475436458334,37.0,83.0
787,128.10059511458334,128.19998336458335,56.0,81.0
788,128.10059511458334,128.29300057291667,61.0,84.0
789,128.40640511458332,128.54019698958334,56.0,74.0
790,128.71221511458333,129.03458982291667,61.0,79.0
791,128.71221511458333,129.05242873958335,54.0,75.0
792,129.32383511458335,129.40028761458333,61.0,73.0
793,129.32383511458335,129.40538444791667,54.0,71.0
794,129.62964511458335,129.76088857291666,54.0,79.0
795,129.93545511458333,130.04376282291668,54.0,81.0
796,129.93545511458333,130.08071486458334,66.0,77.0
797,130.24126511458334,130.36358911458333,54.0,76.0
798,130.54707511458332,130.67577015625,54.0,85.0
799,130.54707511458332,130.74457740625002,61.0,83.0
800,128.71221511458333,130.91277290625,42.0,80.0
801,130.85288511458333,130.98540278125,54.0,70.0
802,131.15869511458334,131.34982636458335,54.0,79.0
803,131.15869511458334,131.49890873958333,61.0,79.0
804,131.46450511458335,131.56134494791667,54.0,66.0
805,131.77031511458335,131.84804182291668,54.0,70.0
806,131.77031511458335,131.88499386458335,61.0,74.0
807,132.07612511458333,132.18952965625,54.0,72.0
808,131.15869511458334,132.20736857291666,42.0,81.0
809,132.38193511458334,132.53993694791666,54.0,79.0
810,132.38193511458334,132.78713336458333,61.0,75.0
811,132.68774511458332,132.80114965625,54.0,63.0
812,132.38193511458334,132.80624648958334,66.0,73.0
813,132.99355511458333,133.12352436458335,54.0,80.0
814,132.99355511458333,133.32357507291667,61.0,81.0
815,133.29936511458334,133.46883482291668,42.0,80.0
816,133.60517511458335,133.84727469791667,52.0,76.0
817,133.60517511458335,133.91608194791667,56.0,72.0
818,134.21679511458333,134.33019965625,56.0,71.0
819,134.21679511458333,134.34166753125,59.0,71.0
820,134.52260511458334,134.64492911458333,52.0,67.0
821,134.82841511458332,134.96730382291668,56.0,78.0
822,134.82841511458332,134.99788482291666,59.0,77.0
823,134.82841511458332,135.12785407291668,64.0,73.0
824,135.13422511458333,135.19411290625,52.0,44.0
825,135.44003511458334,135.57000436458333,56.0,83.0
826,133.91098511458335,135.57382698958332,47.0,74.0
827,133.60517511458335,135.58147223958335,40.0,85.0
828,135.44003511458334,135.62352111458335,59.0,83.0
829,135.44003511458334,135.65665053125002,64.0,80.0
830,135.74584511458335,135.88600803125001,40.0,83.0
831,136.05165511458335,136.27336736458335,54.0,82.0
832,136.05165511458335,136.30012573958334,66.0,77.0
833,136.66327511458334,136.7677601979167,57.0,64.0
834,136.66327511458334,136.77667965625,61.0,72.0
835,136.96908511458332,137.11307065625,54.0,60.0
836,137.27489511458333,137.39721911458332,57.0,73.0
837,137.27489511458333,137.40231594791666,61.0,79.0
838,137.27489511458333,137.48768790625002,66.0,70.0
839,136.35746511458333,137.50042998958332,49.0,73.0
840,137.58070511458334,137.68901282291668,54.0,72.0
841,136.05165511458335,138.03432328125,42.0,85.0
842,137.88651511458335,138.12479207291668,57.0,81.0
843,137.88651511458335,138.15155044791666,61.0,83.0
844,137.88651511458335,138.17066357291668,66.0,79.0
845,138.19232511458335,138.30572965625,49.0,80.0
846,138.34523011458333,138.45353782291667,54.0,85.0
847,138.80394511458334,138.90588178125,54.0,51.0
848,139.10975511458332,139.23717594791668,54.0,72.0
849,139.10975511458332,139.27540219791666,61.0,75.0
850,139.41556511458333,139.49584023958334,54.0,56.0
851,139.72137511458334,139.84115069791667,54.0,80.0
852,139.72137511458334,139.87810273958334,66.0,75.0
853,140.02718511458335,140.42473811458333,49.0,48.0
854,140.33299511458335,140.50501323958335,54.0,76.0
855,140.33299511458335,140.64899878125001,61.0,78.0
856,138.49813511458333,140.70888657291667,42.0,80.0
857,141.55623511458333,141.69639803125,54.0,75.0
858,141.86204511458334,141.95506232291666,61.0,69.0
859,142.16785511458335,142.26469494791667,54.0,74.0
860,142.16785511458335,142.27106598958335,61.0,73.0
861,142.16785511458335,142.32330853125,66.0,73.0
862,141.25042511458332,142.80750769791666,49.0,63.0
863,140.94461511458334,142.83681448958333,42.0,80.0
864,142.77947511458333,142.8648470729167,54.0,75.0
865,142.77947511458333,142.90562173958335,61.0,79.0
866,143.39109511458332,143.50449965625,52.0,74.0
867,143.39109511458332,143.67651778125,57.0,67.0
868,143.69690511458333,143.75042186458336,52.0,50.0
869,144.00271511458334,144.09700653125,57.0,64.0
870,144.61433511458335,144.6767713229167,52.0,50.0
871,144.61433511458335,144.69333603125,57.0,61.0
872,144.92014511458333,145.02717861458333,52.0,48.0
873,145.22595511458334,145.31514969791667,52.0,75.0
874,145.22595511458334,145.35847278125,57.0,80.0
875,143.39109511458332,145.37503748958335,45.0,79.0
876,145.22595511458334,145.42345740625,61.0,80.0
877,145.53176511458332,145.58145923958335,61.0,46.0
878,145.83757511458333,146.11535253125,56.0,68.0
879,145.83757511458333,146.1867081979167,61.0,72.0
880,146.44919511458335,146.54603494791667,61.0,67.0
881,146.75500511458335,146.89007119791665,56.0,71.0
882,146.14338511458334,147.13981603125,44.0,58.0
883,145.83757511458333,147.18059069791667,37.0,80.0
884,147.06081511458333,147.18441332291667,56.0,81.0
885,147.06081511458333,147.21372011458334,64.0,81.0
886,147.36662511458334,147.49659436458336,37.0,83.0
887,147.67243511458332,147.77182336458333,56.0,81.0
888,147.67243511458332,147.86484057291668,61.0,84.0
889,147.97824511458333,148.11203698958334,56.0,74.0
890,148.28405511458334,148.60642982291665,61.0,79.0
891,148.28405511458334,148.62426873958333,54.0,75.0
892,148.89567511458336,148.97212761458334,61.0,73.0
893,148.89567511458336,148.97722444791668,54.0,71.0
894,149.20148511458333,149.33272857291666,54.0,79.0
895,149.50729511458334,149.61560282291668,54.0,81.0
896,149.50729511458334,149.65255486458335,66.0,77.0
897,149.81310511458332,149.93542911458334,54.0,76.0
898,150.11891511458333,150.24761015625,54.0,85.0
899,150.11891511458333,150.31641740625003,61.0,83.0
900,148.28405511458334,150.48461290625,42.0,80.0
901,150.42472511458334,150.55724278125,54.0,70.0
902,150.73053511458335,150.92166636458336,54.0,79.0
903,150.73053511458335,151.07074873958334,61.0,79.0
904,151.03634511458336,151.13318494791667,54.0,66.0
905,151.34215511458333,151.4198818229167,54.0,70.0
906,151.34215511458333,151.45683386458336,61.0,74.0
907,151.64796511458334,151.76136965625,54.0,72.0
908,150.73053511458335,151.77920857291667,42.0,81.0
909,151.95377511458332,152.11177694791667,54.0,79.0
910,151.95377511458332,152.35897336458333,61.0,75.0
911,152.25958511458333,152.37298965625,54.0,63.0
912,151.95377511458332,152.37808648958332,66.0,73.0
913,152.56539511458334,152.69536436458333,54.0,80.0
914,152.56539511458334,152.89541507291668,61.0,81.0
915,152.87120511458335,153.04067482291669,42.0,80.0
916,153.17701511458336,153.41911469791665,52.0,76.0
917,153.17701511458336,153.48792194791667,56.0,72.0
918,153.78863511458334,153.90203965625,56.0,71.0
919,153.78863511458334,153.91350753125,59.0,71.0
920,154.09444511458332,154.21676911458334,52.0,67.0
921,154.40025511458333,154.53914382291669,56.0,78.0
922,154.40025511458333,154.56972482291667,59.0,77.0
923,154.40025511458333,154.69969407291666,64.0,73.0
924,154.70606511458334,154.76595290625,52.0,44.0
925,155.01187511458335,155.14184436458333,56.0,83.0
926,153.48282511458333,155.14566698958333,47.0,74.0
927,153.17701511458336,155.15331223958333,40.0,85.0
928,155.01187511458335,155.19536111458333,59.0,83.0
929,155.01187511458335,155.22849053125,64.0,80.0
930,155.31768511458336,155.45784803125002,40.0,83.0
931,155.62349511458333,155.84520736458336,54.0,82.0
932,155.62349511458333,155.87196573958335,66.0,77.0
933,156.23511511458332,156.33960019791667,57.0,64.0
934,156.23511511458332,156.34851965625,61.0,72.0
935,156.54092511458333,156.68491065625,54.0,60.0
936,156.84673511458334,156.96905911458333,57.0,73.0
937,156.84673511458334,156.97415594791667,61.0,79.0
938,156.84673511458334,157.05952790625003,66.0,70.0
939,155.92930511458334,157.07226998958333,49.0,73.0
940,157.15254511458335,157.26085282291666,54.0,72.0
941,155.62349511458333,157.60616328125002,42.0,85.0
942,157.45835511458336,157.69663207291666,57.0,81.0
943,157.45835511458336,157.72339044791667,61.0,83.0
944,157.45835511458336,157.7425035729167,66.0,79.0
945,157.76416511458334,157.87756965625,49.0,80.0
946,157.91707011458334,158.02537782291665,54.0,85.0
947,158.06997511458334,158.2814936979167,54.0,81.0
948,158.06997511458334,158.35794619791668,66.0,78.0
949,158.37578511458332,158.45733444791668,66.0,65.0
950,158.06997511458334,158.51467382291668,61.0,78.0
951,158.37578511458332,158.56181953125002,54.0,83.0
952,158.06997511458334,158.58730369791667,42.0,85.0
953,158.68159511458333,158.99887298958333,52.0,84.0
954,158.68159511458333,159.01798611458332,64.0,80.0
955,158.68159511458333,159.09698703125002,40.0,84.0
956,158.98740511458334,159.14285853125,47.0,81.0
957,159.29321511458335,159.49454003125,51.0,83.0
958,159.29321511458335,159.74301065625002,63.0,81.0
959,159.59902511458336,159.76976903125,51.0,85.0
960,159.29321511458335,159.78888215625,39.0,95.0
961,159.90483511458334,160.15075732291666,49.0,88.0
962,160.21064511458334,160.47822886458334,49.0,81.0
963,159.90483511458334,160.5215519479167,37.0,90.0
964,159.90483511458334,160.5215519479167,61.0,80.0
965,160.51645511458332,160.66171486458336,54.0,79.0
966,160.51645511458332,160.72415107291667,66.0,80.0
967,161.12807511458334,161.23510861458334,66.0,80.0
968,161.12807511458334,161.24657648958333,61.0,81.0
969,161.43388511458335,161.48995028125,69.0,72.0
970,161.43388511458335,161.49377290625,61.0,73.0
971,161.58679011458332,161.65177473958335,69.0,71.0
972,161.58679011458332,161.65814578125,61.0,72.0
973,161.73969511458336,161.90661640625,61.0,80.0
974,161.73969511458336,161.95248790624998,69.0,84.0
975,162.04550511458334,162.18057119791666,61.0,80.0
976,162.35131511458334,162.52970428125002,61.0,81.0
977,162.35131511458334,162.5590110729167,66.0,83.0
978,162.35131511458334,162.70172240624998,69.0,83.0
979,160.82226511458333,162.73994865625002,49.0,73.0
980,160.51645511458332,162.79219119791668,42.0,81.0
981,162.65712511458332,162.82149798958335,61.0,71.0
982,162.96293511458333,163.38469807291668,61.0,80.0
983,162.96293511458333,163.38724648958333,66.0,81.0
984,163.57455511458335,163.69815332291665,61.0,79.0
985,163.57455511458335,163.70070173958334,66.0,80.0
986,163.57455511458335,163.70452436458334,69.0,80.0
987,163.88036511458336,163.93515607291667,61.0,62.0
988,163.88036511458336,163.94152711458332,66.0,71.0
989,164.03327011458333,164.09952894791667,66.0,79.0
990,164.03327011458333,164.11227103125,61.0,79.0
991,164.18617511458334,164.33525748958334,61.0,84.0
992,164.18617511458334,164.34290273958334,66.0,82.0
993,163.26874511458334,164.34545115625002,49.0,62.0
994,162.96293511458333,164.38877423958334,42.0,83.0
995,164.49198511458334,164.62705119791667,61.0,79.0
996,164.49198511458334,164.62832540624999,66.0,80.0
997,164.49198511458334,164.65763219791666,42.0,81.0
998,164.79779511458332,164.96216798958335,61.0,80.0
999,164.79779511458332,165.01186211458332,66.0,84.0
1000,164.79779511458332,165.05263678125,49.0,84.0
1001,164.79779511458332,165.10360511458333,42.0,84.0
1002,164.79779511458332,165.17623498958335,69.0,86.0
1003,165.10360511458333,165.27180061458336,61.0,80.0
1004,165.71522511458335,165.87195273958332,59.0,80.0
1005,166.02103511458336,166.15088773958334,59.0,81.0
1006,166.02103511458336,166.16487552291667,64.0,84.0
1007,166.02103511458336,166.17886330625,68.0,84.0
1008,166.32637083958335,166.36070448958336,68.0,65.0
1009,166.32637083958335,166.36833418958335,59.0,66.0
1010,166.32637083958335,166.3785071229167,64.0,70.0
1011,166.47896483958334,166.53364435625002,68.0,69.0
1012,166.47896483958334,166.53873082291668,64.0,73.0
1013,166.47896483958334,166.55780507291666,59.0,71.0
1014,166.63155883958333,166.7523624229167,59.0,77.0
1015,166.63155883958333,166.76507858958334,64.0,80.0
1016,165.71522511458335,166.77779475625002,47.0,74.0
1017,166.63155883958333,166.77906637291667,68.0,81.0
1018,165.40941511458334,166.86935115625002,40.0,81.0
1019,166.93674683958335,167.05373557291668,59.0,78.0
1020,167.24193483958334,167.34747902291667,59.0,81.0
1021,167.24193483958334,167.43649218958333,64.0,79.0
1022,167.24193483958334,167.5115175729167,40.0,80.0
1023,167.85231083958334,168.02906555625,61.0,80.0
1024,167.85231083958334,168.07865860625,64.0,83.0
1025,168.15749883958335,168.2134499729167,61.0,70.0
1026,168.31009283958335,168.33934002291667,61.0,56.0
1027,168.31009283958335,168.34061163958336,64.0,61.0
1028,168.46268683958334,168.57077425625002,61.0,75.0
1029,168.46268683958334,168.58857688958335,64.0,78.0
1030,167.85231083958334,168.67123197291667,37.0,83.0
1031,168.76787483958336,168.91538237291667,61.0,78.0
1032,168.76787483958336,168.91792560625,64.0,74.0
1033,168.76787483958336,168.93445662291668,37.0,84.0
1034,169.07306283958334,169.24345947291667,61.0,80.0
1035,169.07306283958334,169.34900365625,64.0,81.0
1036,169.37825083958336,169.40749802291668,64.0,47.0
1037,169.07306283958334,169.4418316729167,68.0,86.0
1038,169.07306283958334,169.50159765625,44.0,81.0
1039,169.37825083958336,169.51812867291667,61.0,75.0
1040,169.07306283958334,169.53338807291667,37.0,88.0
1041,169.68343883958335,169.77245200625,37.0,85.0
1042,169.68343883958335,169.79661272291668,61.0,80.0
1043,169.68343883958335,169.84493415625002,64.0,79.0
1044,169.98862683958333,170.1552086229167,61.0,78.0
1045,170.29381483958335,170.45276692291668,66.0,80.0
1046,170.29381483958335,170.47056955625,61.0,80.0
1047,170.59900283958333,170.66004043958336,66.0,73.0
1048,170.75159683958336,170.79356018958333,66.0,69.0
1049,170.75159683958336,170.80373312291667,61.0,64.0
1050,170.90419083958335,170.99066077291667,61.0,71.0
1051,170.90419083958335,170.99066077291667,66.0,75.0
1052,170.29381483958335,171.08221717291667,42.0,81.0
1053,171.20937883958334,171.35179990625002,66.0,80.0
1054,171.20937883958334,171.35942960625002,61.0,78.0
1055,171.20937883958334,171.37468900625,42.0,81.0
1056,171.51456683958335,171.67224730625,61.0,80.0
1057,171.51456683958335,171.71675388958334,66.0,81.0
1058,171.51456683958335,171.93801518958335,69.0,83.0
1059,171.81975483958334,171.99269470625,61.0,71.0
1060,172.12494283958335,172.24193157291668,61.0,79.0
1061,171.51456683958335,172.28262330625,49.0,86.0
1062,172.12494283958335,172.28262330625,66.0,82.0
1063,171.51456683958335,172.30678402291667,42.0,81.0
1064,172.12494283958335,172.31950018958335,69.0,85.0
1065,172.43013083958334,172.62087333958334,61.0,83.0
1066,172.73531883958336,172.92860457291667,61.0,80.0
1067,172.73531883958336,172.95276528958334,66.0,80.0
1068,173.04050683958334,173.10281605625002,61.0,65.0
1069,173.19310083958334,173.24905197291667,61.0,66.0
1070,173.19310083958334,173.25541005625,66.0,68.0
1071,173.34569483958336,173.44996740625,61.0,73.0
1072,173.34569483958336,173.47031327291668,66.0,74.0
1073,172.73531883958336,173.58348715625002,42.0,84.0
1074,173.65088283958335,173.79966198958334,42.0,80.0
1075,173.65088283958335,173.82636593958335,61.0,77.0
1076,173.65088283958335,173.8365388729167,66.0,74.0
1077,173.95607083958333,174.1264674729167,61.0,79.0
1078,173.95607083958333,174.18241860625002,66.0,79.0
1079,173.95607083958333,174.36934625625003,69.0,81.0
1080,174.26125883958335,174.38206242291668,61.0,79.0
1081,173.95607083958333,174.39859343958335,49.0,80.0
1082,173.95607083958333,174.46471750625003,42.0,80.0
1083,174.56644683958334,174.67834910625,61.0,83.0
1084,174.56644683958334,174.89706717291668,66.0,84.0
1085,174.87163483958335,175.01151267291667,61.0,73.0
1086,175.17682283958334,175.3472194729167,59.0,82.0
1087,175.17682283958334,175.39426928958335,64.0,81.0
1088,175.48201083958335,175.5379619729167,64.0,68.0
1089,175.48201083958335,175.54940652291668,59.0,68.0
1090,175.63460483958335,175.70072890625002,59.0,69.0
1091,175.63460483958335,175.70072890625002,64.0,70.0
1092,175.78719883958334,175.89655787291667,59.0,73.0
1093,175.78719883958334,175.90545918958335,64.0,73.0
1094,175.17682283958334,175.94996577291667,40.0,81.0
1095,176.09238683958336,176.2933022729167,59.0,77.0
1096,176.09238683958336,176.29838873958334,64.0,77.0
1097,176.09238683958336,176.32000622291667,40.0,80.0
1098,176.39757483958334,176.54635398958334,59.0,80.0
1099,176.39757483958334,176.59086057291668,64.0,79.0
1100,176.39757483958334,176.59467542291668,68.0,80.0
1101,176.39757483958334,176.6290090729167,47.0,79.0
1102,176.39757483958334,176.69767637291667,40.0,79.0
1103,176.70276283958336,176.80449217291667,59.0,76.0
1104,177.00795083958334,177.0944207729167,59.0,80.0
1105,177.00795083958334,177.12875442291667,64.0,82.0
1106,177.00795083958334,177.17071777291667,68.0,81.0
1107,177.31313883958336,177.41105332291667,59.0,71.0
1108,177.61832683958335,177.87773663958333,61.0,76.0
1109,177.61832683958335,177.9031689729167,64.0,80.0
1110,178.22870283958335,178.33170378958334,61.0,80.0
1111,178.22870283958335,178.36730905625,64.0,84.0
1112,177.61832683958335,178.45377898958336,37.0,83.0
1113,178.53389083958334,178.69920100625,61.0,79.0
1114,178.83907883958335,179.01456193958336,61.0,80.0
1115,178.83907883958335,179.02092002291667,64.0,80.0
1116,179.14426683958334,179.20021797291668,61.0,69.0
1117,179.14426683958334,179.20403282291667,64.0,72.0
1118,179.29686083958336,179.36934298958334,61.0,72.0
1119,179.29686083958336,179.36934298958334,64.0,78.0
1120,179.44945483958335,179.57915973958336,61.0,81.0
1121,178.83907883958335,179.58806105625,37.0,83.0
1122,179.44945483958335,179.59314752291667,64.0,82.0
1123,179.75464283958334,179.8907058229167,37.0,88.0
1124,180.05983083958336,181.29584223958335,44.0,85.0
1125,180.05983083958336,181.31618810625002,37.0,95.0
1126,180.05983083958336,182.28897485625,61.0,81.0
1127,180.05983083958336,182.29151808958335,68.0,80.0
1128,182.50133483958334,182.71242320625,54.0,81.0
1129,182.50133483958334,182.78872020625002,66.0,78.0
1130,182.80652283958335,182.88790630625002,66.0,65.0
1131,182.50133483958334,182.94512905625,61.0,78.0
1132,182.80652283958335,182.99217887291667,54.0,83.0
1133,182.50133483958334,183.01761120625002,42.0,85.0
1134,183.11171083958334,183.42834338958335,52.0,84.0
1135,183.11171083958334,183.44741763958334,64.0,80.0
1136,183.11171083958334,183.5262578729167,40.0,84.0
1137,183.41689883958335,183.5720360729167,47.0,81.0
1138,183.72208683958334,183.92300227291668,51.0,83.0
1139,183.72208683958334,184.17096752291667,63.0,81.0
1140,184.02727483958336,184.19767147291668,51.0,85.0
1141,183.72208683958334,184.21674572291667,39.0,95.0
1142,184.33246283958334,184.57788485625002,49.0,88.0
1143,184.63765083958333,184.90469033958334,49.0,81.0
1144,184.33246283958334,184.94792530625,37.0,90.0
1145,184.33246283958334,184.94792530625,61.0,80.0
1146,184.94283883958335,185.08780313958334,54.0,79.0
1147,184.94283883958335,185.15011235625002,66.0,80.0
1148,185.55321483958335,185.66003063958334,66.0,80.0
1149,185.55321483958335,185.67147518958336,61.0,81.0
1150,185.85840283958333,185.91435397291667,69.0,72.0
1151,185.85840283958333,185.91816882291667,61.0,73.0
1152,186.01099683958336,186.07584928958335,69.0,71.0
1153,186.01099683958336,186.08220737291668,61.0,72.0
1154,186.16359083958335,186.33017262291668,61.0,80.0
1155,186.16359083958335,186.37595082291668,69.0,84.0
1156,186.46877883958334,186.60357020625003,61.0,80.0
1157,186.77396683958335,186.95199317291667,61.0,81.0
1158,186.77396683958335,186.98124035625,66.0,83.0
1159,186.77396683958335,187.12366142291668,69.0,83.0
1160,185.24802683958336,187.1618099229167,49.0,73.0
1161,184.94283883958335,187.21394620625,42.0,81.0
1162,187.07915483958334,187.24319338958335,61.0,71.0
1163,187.38434283958335,187.80524795625,61.0,80.0
1164,187.38434283958335,187.80779118958336,66.0,81.0
1165,187.99471883958336,188.11806565625002,61.0,79.0
1166,187.99471883958336,188.12060888958334,66.0,80.0
1167,187.99471883958336,188.12442373958334,69.0,80.0
1168,188.29990683958334,188.35458635625002,61.0,62.0
1169,188.29990683958334,188.36094443958333,66.0,71.0
1170,188.45250083958334,188.51862490625,66.0,79.0
1171,188.45250083958334,188.5313410729167,61.0,79.0
1172,188.60509483958333,188.75387398958335,61.0,84.0
1173,188.60509483958333,188.76150368958335,66.0,82.0
1174,187.68953083958334,188.7640469229167,49.0,62.0
1175,187.38434283958335,188.80728188958335,42.0,83.0
1176,188.91028283958335,189.04507420625,61.0,79.0
1177,188.91028283958335,189.0463458229167,66.0,80.0
1178,188.91028283958335,189.07559300625002,42.0,81.0
1179,189.21547083958336,189.37950938958335,61.0,80.0
1180,189.21547083958336,189.42910243958335,66.0,84.0
1181,189.21547083958336,189.4697941729167,49.0,84.0
1182,189.21547083958336,189.52065883958335,42.0,84.0
1183,189.21547083958336,189.59314098958333,69.0,86.0
1184,189.52065883958335,189.68851223958336,61.0,80.0
1185,190.13103483958335,190.28744368958334,59.0,80.0
1186,190.43622283958334,190.56592773958334,59.0,81.0
1187,190.43622283958334,190.57991552291668,64.0,84.0
1188,190.43622283958334,190.59390330625,68.0,84.0
1189,190.74141083958335,190.77574448958336,68.0,65.0
1190,190.74141083958335,190.78337418958336,59.0,66.0
1191,190.74141083958335,190.79354712291666,64.0,70.0
1192,190.89400483958335,190.94868435625,68.0,69.0
1193,190.89400483958335,190.95377082291668,64.0,73.0
1194,190.89400483958335,190.97284507291667,59.0,71.0
1195,191.04659883958334,191.16740242291667,59.0,77.0
1196,191.04659883958334,191.18011858958334,64.0,80.0
1197,190.13103483958335,191.19283475625002,47.0,74.0
1198,191.04659883958334,191.19410637291668,68.0,81.0
1199,189.82584683958333,191.28439115625002,40.0,81.0
1200,191.35178683958335,191.46877557291668,59.0,78.0
1201,191.65697483958334,191.76251902291668,59.0,81.0
1202,191.65697483958334,191.85153218958334,64.0,79.0
1203,191.65697483958334,191.9265575729167,40.0,80.0
1204,192.26735083958334,192.44410555625,61.0,80.0
1205,192.26735083958334,192.49369860625,64.0,83.0
1206,192.57253883958333,192.62848997291667,61.0,70.0
1207,192.72513283958335,192.75438002291668,61.0,56.0
1208,192.72513283958335,192.75565163958333,64.0,61.0
1209,192.87772683958335,192.98581425625002,61.0,75.0
1210,192.87772683958335,193.00361688958336,64.0,78.0
1211,192.26735083958334,193.08627197291668,37.0,83.0
1212,193.18291483958336,193.33042237291667,61.0,78.0
1213,193.18291483958336,193.33296560625,64.0,74.0
1214,193.18291483958336,193.3494966229167,37.0,84.0
1215,193.48810283958335,193.65849947291667,61.0,80.0
1216,193.48810283958335,193.76404365625,64.0,81.0
1217,193.79329083958334,193.8225380229167,64.0,47.0
1218,193.48810283958335,193.85687167291667,68.0,86.0
1219,193.48810283958335,193.91663765625,44.0,81.0
1220,193.79329083958334,193.93316867291668,61.0,75.0
1221,193.48810283958335,193.94842807291667,37.0,88.0
1222,194.09847883958335,194.18749200625,37.0,85.0
1223,194.09847883958335,194.21165272291668,61.0,80.0
1224,194.09847883958335,194.25997415625002,64.0,79.0
1225,194.40366683958334,194.57024862291667,61.0,78.0
1226,194.70885483958335,194.86780692291669,66.0,80.0
1227,194.70885483958335,194.88560955625002,61.0,80.0
1228,195.01404283958334,195.07508043958336,66.0,73.0
1229,195.16663683958336,195.20860018958334,66.0,69.0
1230,195.16663683958336,195.21877312291667,61.0,64.0
1231,195.31923083958335,195.40570077291667,61.0,71.0
1232,195.31923083958335,195.40570077291667,66.0,75.0
1233,194.70885483958335,195.49725717291668,42.0,81.0
1234,195.62441883958334,195.76683990625003,66.0,80.0
1235,195.62441883958334,195.77446960625002,61.0,78.0
1236,195.62441883958334,195.78972900625,42.0,81.0
1237,195.92960683958336,196.08728730625,61.0,80.0
1238,195.92960683958336,196.13179388958335,66.0,81.0
1239,195.92960683958336,196.35305518958336,69.0,83.0
1240,196.23479483958334,196.40773470625,61.0,71.0
1241,196.53998283958333,196.6569715729167,61.0,79.0
1242,195.92960683958336,196.69766330625,49.0,86.0
1243,196.53998283958333,196.69766330625,66.0,82.0
1244,195.92960683958336,196.72182402291668,42.0,81.0
1245,196.53998283958333,196.73454018958336,69.0,85.0
1246,196.84517083958335,197.03591333958335,61.0,83.0
1247,197.15035883958336,197.34364457291667,61.0,80.0
1248,197.15035883958336,197.36780528958334,66.0,80.0
1249,197.45554683958335,197.51785605625003,61.0,65.0
1250,197.60814083958334,197.66409197291668,61.0,66.0
1251,197.60814083958334,197.67045005625002,66.0,68.0
1252,197.76073483958334,197.86500740625002,61.0,73.0
1253,197.76073483958334,197.8853532729167,66.0,74.0
1254,197.15035883958336,197.99852715625002,42.0,84.0
1255,198.06592283958335,198.21470198958335,42.0,80.0
1256,198.06592283958335,198.24140593958333,61.0,77.0
1257,198.06592283958335,198.2515788729167,66.0,74.0
1258,198.37111083958334,198.5415074729167,61.0,79.0
1259,198.37111083958334,198.59745860625003,66.0,79.0
1260,198.37111083958334,198.78438625625,69.0,81.0
1261,198.67629883958335,198.79710242291668,61.0,79.0
1262,198.37111083958334,198.81363343958336,49.0,80.0
1263,198.37111083958334,198.87975750625003,42.0,80.0
1264,198.98148683958334,199.09338910625002,61.0,83.0
1265,198.98148683958334,199.31210717291668,66.0,84.0
1266,199.28667483958336,199.42655267291667,61.0,73.0
1267,199.59186283958334,199.7622594729167,59.0,82.0
1268,199.59186283958334,199.80930928958335,64.0,81.0
1269,199.89705083958336,199.9530019729167,64.0,68.0
1270,199.89705083958336,199.9644465229167,59.0,68.0
1271,200.04964483958335,200.11576890625003,59.0,69.0
1272,200.04964483958335,200.11576890625003,64.0,70.0
1273,200.20223883958334,200.31159787291668,59.0,73.0
1274,200.20223883958334,200.32049918958336,64.0,73.0
1275,199.59186283958334,200.36500577291667,40.0,81.0
1276,200.50742683958333,200.7083422729167,59.0,77.0
1277,200.50742683958333,200.71342873958335,64.0,77.0
1278,200.50742683958333,200.73504622291668,40.0,80.0
1279,200.81261483958335,200.96139398958334,59.0,80.0
1280,200.81261483958335,201.0059005729167,64.0,79.0
1281,200.81261483958335,201.00971542291668,68.0,80.0
1282,200.81261483958335,201.04404907291666,47.0,79.0
1283,200.81261483958335,201.11271637291668,40.0,79.0
1284,201.11780283958336,201.21953217291667,59.0,76.0
1285,201.42299083958335,201.50946077291667,59.0,80.0
1286,201.42299083958335,201.54379442291668,64.0,82.0
1287,201.42299083958335,201.58575777291668,68.0,81.0
1288,201.72817883958334,201.82609332291668,59.0,71.0
1289,202.03336683958335,202.29277663958334,61.0,76.0
1290,202.03336683958335,202.3182089729167,64.0,80.0
1291,202.64374283958335,202.74674378958335,61.0,80.0
1292,202.64374283958335,202.78234905625,64.0,84.0
1293,202.03336683958335,202.86881898958336,37.0,83.0
1294,202.94893083958334,203.11424100625,61.0,79.0
1295,203.25411883958336,203.42960193958334,61.0,80.0
1296,203.25411883958336,203.43596002291667,64.0,80.0
1297,203.55930683958334,203.61525797291668,61.0,69.0
1298,203.55930683958334,203.61907282291668,64.0,72.0
1299,203.71190083958334,203.78438298958335,61.0,72.0
1300,203.71190083958334,203.78438298958335,64.0,78.0
1301,203.86449483958336,203.99419973958334,61.0,81.0
1302,203.25411883958336,204.00310105625002,37.0,83.0
1303,203.86449483958336,204.00818752291667,64.0,82.0
1304,204.16968283958334,204.30574582291666,37.0,88.0
1305,204.47487083958333,205.71088223958336,44.0,85.0
1306,204.47487083958333,205.73122810625,37.0,95.0
1307,204.47487083958333,206.70401485625,61.0,81.0
1308,204.47487083958333,206.70655808958335,68.0,80.0
1309,206.90493028958335,207.03082033958333,54.0,79.0
1310,207.04226488958335,207.14653745625003,66.0,78.0
1311,207.10584572291668,207.19231565625,54.0,73.0
1312,207.19994535625,207.27624235625,66.0,77.0
1313,207.2431803229167,207.34999612291668,54.0,76.0
1314,207.34872450625002,207.4148485729167,66.0,78.0
1315,207.40721887291667,207.5140346729167,54.0,62.0
1316,207.4797010229167,207.55854125625,66.0,78.0
1317,207.59541813958333,207.65136927291667,54.0,27.0
1318,207.61194915625,207.66154220625,61.0,81.0
1319,207.73402435625002,207.79124710625,61.0,81.0
1320,206.93036262291668,207.79506195625,42.0,93.0
1321,207.7467405229167,207.7963335729167,66.0,72.0
1322,207.73529597291667,207.81667943958334,54.0,58.0
1323,206.93163423958333,207.82685237291668,49.0,108.0
1324,207.87644542291667,207.93366817291667,61.0,82.0
1325,207.87135895625002,207.9451127229167,66.0,77.0
1326,207.89297643958335,207.95274242291669,54.0,67.0
1327,208.01632325625002,208.06973115625001,61.0,85.0
1328,208.02140972291667,208.09134863958334,54.0,75.0
1329,208.01123678958334,208.09643510625,66.0,80.0
1330,208.16255917291667,208.20960898958333,61.0,88.0
1331,208.05574337291668,208.21596707291667,49.0,85.0
1332,208.16001593958333,208.22486838958335,66.0,77.0
1333,208.16383078958336,208.2350413229167,54.0,77.0
1334,208.05065690625003,208.26810335625,42.0,81.0
1335,208.29735053958336,208.34948682291667,61.0,85.0
1336,208.30243700625002,208.35075843958333,66.0,75.0
1337,208.30370862291667,208.37364753958335,54.0,75.0
1338,208.44612968958336,208.49317950625002,61.0,80.0
1339,208.44867292291667,208.5135253729167,54.0,68.0
1340,208.57964943958336,208.62924248958336,61.0,76.0
1341,208.59999530625,208.63941542291667,54.0,55.0
1342,208.71952727291668,208.76530547291668,61.0,77.0
1343,208.72588535625002,208.79709588958335,54.0,63.0
1344,208.85813348958334,208.90645492291668,61.0,73.0
1345,208.86194833958334,208.9331588729167,54.0,59.0
1346,208.99292485625,209.04633275625002,61.0,70.0
1347,209.00436940625002,209.0857528729167,54.0,66.0
1348,209.11372843958335,209.17603765625,66.0,69.0
1349,209.11881490625,209.18621058958334,61.0,75.0
1350,209.14679047291668,209.2154577729167,54.0,67.0
1351,209.25996435625,209.30574255625,66.0,59.0
1352,209.26123597291667,209.31973033958334,61.0,72.0
1353,209.27522375625,209.34643428958333,49.0,86.0
1354,209.29556962291667,209.34643428958333,54.0,63.0
1355,209.2726805229167,209.3566072229167,42.0,83.0
1356,209.40111380625,209.44943523958335,66.0,64.0
1357,209.41128673958335,209.45833655625,61.0,79.0
1358,209.42400290625,209.50029990625,54.0,73.0
1359,209.5397200229167,209.58676983958335,66.0,64.0
1360,209.54607810625,209.60202923958335,61.0,75.0
1361,209.56260912291668,209.63381965625,54.0,73.0
1362,209.68341270625,209.74063545625,66.0,63.0
1363,209.69485725625,209.75208000625003,61.0,75.0
1364,209.70121533958334,209.77751233958335,54.0,71.0
1365,209.84872287291668,209.90340238958333,61.0,79.0
1366,209.85889580625002,209.91993340625,54.0,68.0
1367,209.99495878958334,210.05090992291667,61.0,78.0
1368,210.00640333958336,210.07125578958335,54.0,71.0
1369,210.14628117291667,210.21367685625,61.0,73.0
1370,210.16789865625,210.23402272291668,54.0,68.0
1371,210.30650487291666,210.37644378958333,61.0,67.0
1372,210.31794942291668,210.40950582291669,54.0,66.0
1373,210.45019755625,210.52267970625002,61.0,70.0
1374,210.43875300625,210.57481598958336,54.0,61.0
1375,210.56464305625002,210.65111298958334,66.0,65.0
1376,210.57100113958336,210.65365622291668,61.0,71.0
1377,210.71723705625,210.78590435625,61.0,72.0
1378,210.70706412291668,210.78590435625,66.0,54.0
1379,210.73885453958334,210.82150962291666,54.0,69.0
1380,210.86092973958336,210.91815248958335,66.0,68.0
1381,210.86347297291667,210.92959703958334,61.0,73.0
1382,210.89526338958336,210.93976997291668,54.0,62.0
1383,211.00970888958335,211.07837618958334,61.0,72.0
1384,211.02878313958334,211.08346265625002,54.0,67.0
1385,211.01225212291666,211.08346265625002,66.0,66.0
1386,211.16866097291668,211.23351342291667,61.0,80.0
1387,211.17883390625002,211.24495797291667,54.0,68.0
1388,210.50742030625003,211.33524275625,42.0,85.0
1389,210.51377838958334,211.35686023958334,49.0,86.0
1390,211.32252658958333,211.38865065625,61.0,73.0
1391,211.32761305625002,211.39882358958334,54.0,65.0
1392,211.47512058958336,211.54633112291668,61.0,72.0
1393,211.48020705625,211.56159052291667,54.0,64.0
1394,211.62898620625,211.70782643958336,61.0,74.0
1395,211.62644297291666,211.71672775625,54.0,66.0
1396,211.78030858958334,211.85660558958335,61.0,73.0
1397,211.80574092291667,211.86169205625,54.0,56.0
1398,211.7752221229167,211.86169205625,66.0,65.0
1399,211.92908773958334,211.98631048958333,66.0,59.0
1400,211.93417420625002,211.9964834229167,61.0,72.0
1401,211.9621497729167,212.04734808958335,54.0,68.0
1402,212.07913850625002,212.15416388958334,61.0,75.0
1403,212.06769395625003,212.16560843958334,66.0,67.0
1404,212.11092892291668,212.17705298958333,54.0,70.0
1405,212.24699190625,212.32074567291667,61.0,65.0
1406,212.41103045625002,212.45680865625002,66.0,47.0
1407,212.26479453958336,212.4771545229167,54.0,69.0
1408,212.39577105625,212.47842613958335,61.0,70.0
1409,211.76759242291666,212.5191178729167,42.0,83.0
1410,211.77267888958335,212.53946373958334,49.0,75.0
1411,212.55980960625,212.62720528958334,66.0,55.0
1412,212.55726637291667,212.63102013958334,61.0,72.0
1413,212.55217990625002,212.64627953958336,54.0,63.0
1414,212.72257653958334,212.75818180625,66.0,53.0
1415,212.70731713958335,212.77852767291668,61.0,74.0
1416,212.69587258958336,212.79887353958335,54.0,65.0
1417,212.85482467291666,212.93239328958333,61.0,75.0
1418,212.84973820625,212.94129460625,66.0,74.0
1419,213.00106058958335,213.0837156729167,61.0,80.0
1420,212.99597412291666,213.08880213958335,66.0,74.0
1421,212.87008407291668,213.09388860625,54.0,66.0
1422,213.01886322291668,213.10406153958334,49.0,88.0
1423,213.01250513958334,213.12059255625002,42.0,86.0
1424,213.16509913958333,213.23758128958335,61.0,81.0
1425,213.16637075625002,213.23758128958335,66.0,73.0
1426,213.16891398958336,213.25792715625002,54.0,75.0
1427,213.32532283958335,213.39526175625002,66.0,73.0
1428,213.3240512229167,213.40161983958336,61.0,80.0
1429,213.33040930625,213.4232373229167,54.0,71.0
1430,213.47791683958334,213.56057192291667,61.0,80.0
1431,213.49444785625002,213.57074485625003,54.0,70.0
1432,213.48300330625,213.58727587291668,66.0,75.0
1433,213.63051083958334,213.7055362229167,49.0,82.0
1434,213.6635728729167,213.71062268958335,61.0,79.0
1435,213.68010388958334,213.71570915625,54.0,56.0
1436,213.62542437291668,213.72079562291668,42.0,83.0
1437,213.82888303958333,213.88356255625,61.0,78.0
1438,213.83396950625,213.88992063958335,54.0,67.0
1439,213.87593285625002,213.91408135625002,42.0,78.0
1440,213.98402027291667,214.03488493958335,66.0,68.0
1441,213.9802054229167,214.03997140625,61.0,80.0
1442,213.98147703958335,214.05014433958334,54.0,69.0
1443,214.13915750625,214.18493570625003,61.0,81.0
1444,214.13788588958334,214.19129378958334,66.0,74.0
1445,214.14551558958334,214.20655318958336,54.0,69.0
1446,214.22435582291666,214.91230043958336,49.0,96.0
1447,214.21926935625,214.92374498958335,42.0,90.0
1448,214.25105977291668,215.0674376729167,66.0,83.0
1449,214.25360300625002,215.12593203958335,61.0,90.0
1450,214.24597330625002,215.13101850625003,54.0,76.0
