,start,end,pitch,velocity
0,23.987051375,24.12929265,68.0,92.0
1,24.245671875,24.36636144166667,68.0,93.0
2,24.504292375000002,24.665930187500003,68.0,94.0
3,24.762912875,24.8728265875,70.0,95.0
4,25.021533375,25.433171004166667,80.0,87.0
5,25.538774375000003,25.663774283333336,75.0,92.0
6,25.797394875000002,25.959032687500002,77.0,90.0
7,26.056015375,27.163773183333333,73.0,92.0
8,28.124979375000002,28.254289625000002,68.0,92.0
9,28.383599875,28.517220466666668,68.0,93.0
10,28.642220375,28.7779961375,68.0,94.0
11,28.900840875,29.0754097125,82.0,90.0
12,29.159461375000003,29.4892025125,80.0,93.0
13,29.676702375,30.053857270833333,77.0,93.0
14,30.193943375,31.400839041666668,75.0,96.0
15,32.262907375000005,32.4374762125,77.0,96.0
16,32.521527875000004,32.65299329583333,80.0,92.0
17,32.780148375,32.900837941666666,80.0,93.0
18,33.038768875,33.204717029166666,82.0,94.0
19,33.297389375,33.456872016666665,80.0,94.0
20,33.556009875,33.685320125000004,77.0,96.0
21,33.814630375,33.98704404166667,75.0,96.0
22,34.073250875,34.267216250000004,73.0,94.0
23,34.331871375,35.2435086375,70.0,93.0
24,36.400835375,36.55385250416667,75.0,90.0
25,36.659455875,36.8210936875,75.0,96.0
26,36.918076375,37.073248675,75.0,94.0
27,37.176696875000005,37.37066225,77.0,90.0
28,37.435317375000004,37.6034207,75.0,94.0
29,37.693937875,37.84479983333333,73.0,92.0
30,37.952558375,38.12928238333333,73.0,90.0
31,38.211178875,38.42885112916667,70.0,93.0
32,38.469799375,39.84264319583333,68.0,92.0
33,40.538763375,40.68315982083333,68.0,92.0
34,40.797383875,40.90945275833334,68.0,91.0
35,41.056004375,41.211176675000004,68.0,90.0
36,41.314624875,41.4245385875,70.0,94.0
37,41.573245375,41.786607287500004,77.0,96.0
38,41.831865875,41.99134851666667,80.0,92.0
39,42.090486375000005,42.271520725,75.0,94.0
40,42.349106875000004,42.506434345833334,77.0,93.0
41,42.607727375,43.64651971666667,73.0,92.0
42,44.418070875000005,44.61203625,70.0,92.0
43,44.676691375000004,44.81677747916667,68.0,91.0
44,44.935311875000004,45.06031178333333,68.0,93.0
45,45.193932375,45.340483991666666,68.0,96.0
46,45.452552875,45.6141906875,82.0,94.0
47,45.711173375,46.10341446666667,80.0,89.0
48,46.228414375,46.674534737500004,77.0,93.0
49,46.745655375,48.064619925,75.0,93.0
50,48.814619375,49.01936060416667,77.0,93.0
51,49.073239875,49.21332597916667,80.0,85.0
52,49.331860375000005,49.4676361375,80.0,92.0
53,49.590480875000004,49.741342833333334,82.0,89.0
54,49.849101375000004,50.00211850416667,80.0,94.0
55,50.107721875,50.260739004166666,77.0,96.0
56,50.366342375,50.532290529166666,75.0,89.0
57,50.624962875,50.8253937625,73.0,94.0
58,50.883583375,52.221944462500005,70.0,92.0
59,52.435306375,52.6034097,70.0,96.0
60,52.693926875,52.8426336625,73.0,93.0
61,52.952547375,53.09263347916667,75.0,91.0
62,53.211167875,53.32970227083334,75.0,94.0
63,53.469788375,53.624960675000004,75.0,98.0
64,53.728408875,53.90082254166667,73.0,93.0
65,53.987029375,54.13358099166667,75.0,96.0
66,54.245649875000005,54.38789115,73.0,94.0
67,54.504270375000004,54.64651165,75.0,96.0
68,54.762890875000004,54.92883902916667,77.0,93.0
69,55.021511375,56.71978599166667,80.0,88.0
70,57.090475375000004,57.4848716375,80.0,94.0
71,57.607716375,57.788750725,80.0,92.0
72,57.866336875,58.04306088333333,82.0,93.0
73,58.124957375,58.430991633333335,80.0,94.0
74,58.642198375,59.02797395416667,75.0,94.0
75,59.159439375000005,60.56030041666667,73.0,94.0
76,61.228403375,61.36848947916667,82.0,92.0
77,61.487023875000006,61.6357306625,82.0,88.0
78,61.745644375000005,61.91159252916667,82.0,88.0
79,62.004264875000004,62.159437175,85.0,96.0
80,62.262885375,62.402971479166666,82.0,88.0
81,62.521505875,62.650816125000006,80.0,93.0
82,62.780126375,62.915902137500005,80.0,94.0
83,63.038746875,63.20900537083334,77.0,94.0
84,63.297367375,64.590469875,75.0,94.0
85,65.366331375,65.53227952916667,75.0,93.0
86,65.62495187500001,65.7607276375,75.0,92.0
87,65.883572375,66.05383087083334,75.0,95.0
88,66.142192875,66.29952034583333,73.0,93.0
89,66.400813375,66.77150275833334,75.0,99.0
90,66.918054375,67.17451970416667,75.0,92.0
91,67.176674875,67.36201956666667,77.0,93.0
92,67.43529537500001,68.0365880375,80.0,96.0
93,68.211156875,68.3857257125,82.0,87.0
94,68.469777375,68.97193217916667,82.0,94.0
95,69.504259375,69.69175923750001,75.0,93.0
96,69.762879875,69.88787978333333,75.0,97.0
97,70.021500375,70.20037955416667,75.0,94.0
98,70.28012087500001,70.4482242,73.0,93.0
99,70.538741375,70.71115504166667,75.0,96.0
100,70.797361875,70.95037900416666,73.0,92.0
101,71.055982375,71.20253399166667,75.0,98.0
102,71.314602875,71.47624068750001,77.0,92.0
103,71.573223375,73.3964979,80.0,90.0
104,73.642187375,73.79735967500001,80.0,89.0
105,73.900807875,74.237014525,80.0,93.0
106,74.418048875,74.5796866875,82.0,92.0
107,74.676669375,75.02796222083333,80.0,96.0
108,75.193910375,75.59692732083333,75.0,98.0
109,75.711151375,77.26287437500001,73.0,92.0
110,77.78011537500001,77.93097733333333,82.0,93.0
111,78.038735875,78.17882197916667,82.0,87.0
112,78.297356375,78.44390799166666,82.0,93.0
113,78.555976875,78.7176146875,85.0,94.0
114,78.814597375,78.95037313750001,82.0,93.0
115,79.073217875,79.20683846666667,80.0,90.0
116,79.331838375,79.46761413750001,80.0,94.0
117,79.59045887500001,79.76287254166667,77.0,93.0
118,79.849079375,81.27580246666668,75.0,95.0
119,81.918043375,82.06890533333333,75.0,94.0
120,82.176663875,82.6098532125,75.0,95.0
121,82.693904875,82.83830132083334,73.0,93.0
122,82.95252537500001,83.12924938333333,75.0,97.0
123,83.211145875,83.35769749166667,73.0,95.0
124,83.469766375,83.61416282083334,75.0,96.0
125,83.728386875,83.87493849166667,77.0,93.0
126,83.987007375,84.59692072083334,80.0,92.0
127,84.76286887500001,84.92019634583333,82.0,93.0
128,85.021489375,85.46976490833333,82.0,93.0
129,86.055971375,86.1788161125,75.0,94.0
130,86.314591875,86.45467797916668,77.0,93.0
131,86.573212375,86.7413157,75.0,96.0
132,86.831832875,86.99778102916667,73.0,93.0
133,87.09045337500001,87.25640152916667,75.0,99.0
134,87.349073875,87.50209100416667,73.0,93.0
135,87.60769437500001,87.75424599166666,75.0,94.0
136,87.866314875,88.021487175,77.0,92.0
137,88.124935375,90.00208917083334,80.0,90.0
138,91.228381375,91.49131221666667,77.0,90.0
139,91.487001875,91.67881207916668,80.0,89.0
140,91.74562237500001,92.21544961666667,75.0,93.0
141,92.26286337500001,94.35553425416667,73.0,84.0
142,110.883539375,111.02578065,68.0,92.0
143,111.142159875,111.26284944166667,68.0,93.0
144,111.40078037500001,111.5624181875,68.0,94.0
145,111.659400875,111.7693145875,70.0,95.0
146,111.91802137500001,112.32965900416667,80.0,87.0
147,112.43526237500001,112.56026228333334,75.0,92.0
148,112.693882875,112.8555206875,77.0,90.0
149,112.952503375,114.06026118333334,73.0,92.0
150,115.021467375,115.150777625,68.0,92.0
151,115.280087875,115.41370846666668,68.0,93.0
152,115.538708375,115.6744841375,68.0,94.0
153,115.797328875,115.97189771250001,82.0,90.0
154,116.05594937500001,116.3856905125,80.0,93.0
155,116.57319037500001,116.95034527083334,77.0,93.0
156,117.09043137500001,118.29732704166668,75.0,96.0
157,119.159395375,119.3339642125,77.0,96.0
158,119.41801587500001,119.54948129583333,80.0,92.0
159,119.676636375,119.79732594166667,80.0,93.0
160,119.93525687500001,120.10120502916668,82.0,94.0
161,120.193877375,120.35336001666667,80.0,94.0
162,120.452497875,120.58180812500001,77.0,96.0
163,120.711118375,120.88353204166667,75.0,96.0
164,120.969738875,121.16370425000001,73.0,94.0
165,121.22835937500001,122.1399966375,70.0,93.0
166,123.297323375,123.45034050416668,75.0,90.0
167,123.55594387500001,123.7175816875,75.0,96.0
168,123.814564375,123.96973667500001,75.0,94.0
169,124.07318487500001,124.26715025,77.0,90.0
170,124.331805375,124.4999087,75.0,94.0
171,124.59042587500001,124.74128783333335,73.0,92.0
172,124.849046375,125.02577038333334,73.0,90.0
173,125.107666875,125.32533912916666,70.0,93.0
174,125.366287375,126.73913119583334,68.0,92.0
175,127.435251375,127.57964782083334,68.0,92.0
176,127.693871875,127.80594075833334,68.0,91.0
177,127.952492375,128.107664675,68.0,90.0
178,128.211112875,128.3210265875,70.0,94.0
179,128.469733375,128.6830952875,77.0,96.0
180,128.728353875,128.88783651666668,80.0,92.0
181,128.98697437500002,129.168008725,75.0,94.0
182,129.245594875,129.40292234583333,77.0,93.0
183,129.504215375,130.54300771666666,73.0,92.0
184,131.31455887500002,131.50852425,70.0,92.0
185,131.573179375,131.71326547916667,68.0,91.0
186,131.831799875,131.95679978333334,68.0,93.0
187,132.090420375,132.23697199166668,68.0,96.0
188,132.34904087500001,132.51067868750002,82.0,94.0
189,132.607661375,132.99990246666667,80.0,89.0
190,133.124902375,133.57102273750002,77.0,93.0
191,133.64214337500002,134.961107925,75.0,93.0
192,135.711107375,135.91584860416668,77.0,93.0
193,135.96972787500002,136.10981397916666,80.0,85.0
194,136.228348375,136.3641241375,80.0,92.0
195,136.486968875,136.63783083333334,82.0,89.0
196,136.745589375,136.89860650416668,80.0,94.0
197,137.00420987500002,137.15722700416669,77.0,96.0
198,137.262830375,137.42877852916666,75.0,89.0
199,137.521450875,137.7218817625,73.0,94.0
200,137.780071375,139.1184324625,70.0,92.0
201,139.33179437500002,139.49989770000002,70.0,96.0
202,139.590414875,139.7391216625,73.0,93.0
203,139.849035375,139.98912147916667,75.0,91.0
204,140.107655875,140.22619027083334,75.0,94.0
205,140.366276375,140.52144867500002,75.0,98.0
206,140.62489687500002,140.79731054166666,73.0,93.0
207,140.883517375,141.03006899166667,75.0,96.0
208,141.142137875,141.28437915,73.0,94.0
209,141.400758375,141.54299965,75.0,96.0
210,141.65937887500002,141.82532702916666,77.0,93.0
211,141.917999375,143.61627399166667,80.0,88.0
212,143.98696337500002,144.3813596375,80.0,94.0
213,144.504204375,144.685238725,80.0,92.0
214,144.762824875,144.93954888333334,82.0,93.0
215,145.021445375,145.32747963333333,80.0,94.0
216,145.538686375,145.92446195416667,75.0,94.0
217,146.055927375,147.45678841666668,73.0,94.0
218,148.124891375,148.26497747916667,82.0,92.0
219,148.383511875,148.53221866250001,82.0,88.0
220,148.64213237500002,148.80808052916666,82.0,88.0
221,148.900752875,149.055925175,85.0,96.0
222,149.159373375,149.29945947916667,82.0,88.0
223,149.417993875,149.547304125,80.0,93.0
224,149.676614375,149.81239013750002,80.0,94.0
225,149.935234875,150.10549337083333,77.0,94.0
226,150.193855375,151.486957875,75.0,94.0
227,152.262819375,152.42876752916666,75.0,93.0
228,152.521439875,152.6572156375,75.0,92.0
229,152.780060375,152.95031887083334,75.0,95.0
230,153.038680875,153.19600834583335,73.0,93.0
231,153.29730137500002,153.66799075833333,75.0,99.0
232,153.814542375,154.07100770416668,75.0,92.0
233,154.073162875,154.25850756666668,77.0,93.0
234,154.33178337500001,154.9330760375,80.0,96.0
235,155.107644875,155.2822137125,82.0,87.0
236,155.366265375,155.86842017916666,82.0,94.0
237,156.400747375,156.5882472375,75.0,93.0
238,156.65936787500002,156.78436778333335,75.0,97.0
239,156.917988375,157.09686755416666,75.0,94.0
240,157.176608875,157.3447122,73.0,93.0
241,157.435229375,157.60764304166668,75.0,96.0
242,157.693849875,157.84686700416668,73.0,92.0
243,157.95247037500002,158.09902199166666,75.0,98.0
244,158.211090875,158.3727286875,77.0,92.0
245,158.469711375,160.29298590000002,80.0,90.0
246,160.538675375,160.693847675,80.0,89.0
247,160.797295875,161.133502525,80.0,93.0
248,161.31453687500002,161.47617468750002,82.0,92.0
249,161.573157375,161.92445022083334,80.0,96.0
250,162.090398375,162.49341532083335,75.0,98.0
251,162.60763937500002,164.159362375,73.0,92.0
252,164.676603375,164.82746533333335,82.0,93.0
253,164.93522387500002,165.07530997916666,82.0,87.0
254,165.193844375,165.34039599166667,82.0,93.0
255,165.452464875,165.6141026875,85.0,94.0
256,165.711085375,165.8468611375,82.0,93.0
257,165.96970587500002,166.1033264666667,80.0,90.0
258,166.228326375,166.3641021375,80.0,94.0
259,166.486946875,166.65936054166667,77.0,93.0
260,166.745567375,168.17229046666668,75.0,95.0
261,168.814531375,168.96539333333334,75.0,94.0
262,169.073151875,169.50634121250002,75.0,95.0
263,169.59039287500002,169.73478932083333,73.0,93.0
264,169.849013375,170.02573738333334,75.0,97.0
265,170.107633875,170.25418549166668,73.0,95.0
266,170.366254375,170.51065082083335,75.0,96.0
267,170.62487487500002,170.77142649166666,77.0,93.0
268,170.883495375,171.49340872083334,80.0,92.0
269,171.65935687500001,171.81668434583335,82.0,93.0
270,171.91797737500002,172.36625290833334,82.0,93.0
271,172.95245937500002,173.07530411250002,75.0,94.0
272,173.211079875,173.35116597916667,77.0,93.0
273,173.469700375,173.6378037,75.0,96.0
274,173.728320875,173.89426902916668,73.0,93.0
275,173.98694137500001,174.15288952916669,75.0,99.0
276,174.245561875,174.39857900416666,73.0,93.0
277,174.504182375,174.65073399166667,75.0,94.0
278,174.762802875,174.917975175,77.0,92.0
279,175.021423375,176.89857717083333,80.0,90.0
280,177.090387375,177.48478363750002,80.0,94.0
281,177.60762837500002,177.788662725,80.0,92.0
282,177.866248875,178.04297288333333,82.0,93.0
283,178.124869375,178.43090363333334,80.0,94.0
284,178.64211037500002,179.02788595416666,75.0,94.0
285,179.159351375,180.56021241666667,73.0,94.0
286,181.228315375,181.36840147916666,82.0,92.0
287,181.486935875,181.6356426625,82.0,88.0
288,181.745556375,181.91150452916668,82.0,88.0
289,182.004176875,182.15934917500002,85.0,96.0
290,182.26279737500002,182.40288347916666,82.0,88.0
291,182.521417875,182.650728125,80.0,93.0
292,182.780038375,182.9158141375,80.0,94.0
293,183.038658875,183.20891737083335,77.0,94.0
294,183.29727937500002,184.59038187500002,75.0,94.0
295,185.366243375,185.53219152916668,75.0,93.0
296,185.62486387500002,185.76063963750002,75.0,92.0
297,185.883484375,186.05374287083333,75.0,95.0
298,186.142104875,186.29943234583334,73.0,93.0
299,186.400725375,186.77141475833335,75.0,99.0
300,186.91796637500002,187.17443170416666,75.0,92.0
301,187.176586875,187.36193156666667,77.0,93.0
302,187.435207375,188.03650003750002,80.0,96.0
303,188.211068875,188.3856377125,82.0,87.0
304,188.469689375,188.97184417916668,82.0,94.0
305,189.504171375,189.6916712375,75.0,93.0
306,189.762791875,189.88779178333334,75.0,97.0
307,190.021412375,190.20029155416668,75.0,94.0
308,190.28003287500002,190.4481362,73.0,93.0
309,190.538653375,190.71106704166667,75.0,96.0
310,190.797273875,190.95029100416667,73.0,92.0
311,191.055894375,191.20244599166668,75.0,98.0
312,191.31451487500001,191.47615268750002,77.0,92.0
313,191.57313537500002,193.3964099,80.0,90.0
314,193.64209937500002,193.79727167500002,80.0,89.0
315,193.90071987500002,194.236926525,80.0,93.0
316,194.417960875,194.5795986875,82.0,92.0
317,194.676581375,195.02787422083335,80.0,96.0
318,195.193822375,195.59683932083334,75.0,98.0
319,195.711063375,197.26278637500002,73.0,92.0
320,197.780027375,197.93088933333334,82.0,93.0
321,198.038647875,198.17873397916668,82.0,87.0
322,198.29726837500002,198.4438199916667,82.0,93.0
323,198.555888875,198.7175266875,85.0,94.0
324,198.814509375,198.9502851375,82.0,93.0
325,199.073129875,199.20675046666668,80.0,90.0
326,199.331750375,199.46752613750002,80.0,94.0
327,199.59037087500002,199.76278454166666,77.0,93.0
328,199.848991375,201.27571446666667,75.0,95.0
329,201.91795537500002,202.06881733333333,75.0,94.0
330,202.176575875,202.6097652125,75.0,95.0
331,202.693816875,202.83821332083335,73.0,93.0
332,202.95243737500002,203.12916138333335,75.0,97.0
333,203.211057875,203.35760949166666,73.0,95.0
334,203.469678375,203.61407482083334,75.0,96.0
335,203.728298875,203.87485049166668,77.0,93.0
336,203.986919375,204.59683272083333,80.0,92.0
337,204.762780875,204.92010834583334,82.0,93.0
338,205.021401375,205.46967690833335,82.0,93.0
339,206.055883375,206.1787281125,75.0,94.0
340,206.314503875,206.45458997916668,77.0,93.0
341,206.57312437500002,206.7412277,75.0,96.0
342,206.831744875,206.99769302916667,73.0,93.0
343,207.090365375,207.25631352916668,75.0,99.0
344,207.348985875,207.50200300416668,73.0,93.0
345,207.60760637500002,207.7541579916667,75.0,94.0
346,207.866226875,208.021399175,77.0,92.0
347,208.124847375,210.00200117083335,80.0,90.0
348,211.22829337500002,211.49122421666667,77.0,90.0
349,211.486913875,211.67872407916667,80.0,89.0
350,211.745534375,212.21536161666668,75.0,93.0
351,212.26277537500002,214.35544625416668,73.0,84.0
