,start,end,pitch,velocity
0,5.883616375,6.1831851208333335,63.0,84.0
1,5.624995875000001,6.224133366666667,56.0,81.0
2,6.142236875,6.715512316666667,65.0,95.0
3,6.659477875,6.803874320833334,61.0,78.0
4,6.400857375,6.8793053,56.0,74.0
5,5.3663753750000005,6.967667304166667,49.0,93.0
6,6.9180983750000005,7.47413245,68.0,91.0
7,7.693959875,8.275856000000001,53.0,78.0
8,7.952580375,8.284476683333335,56.0,82.0
9,8.211200875000001,8.737062558333333,61.0,91.0
10,8.728441875,9.0581830125,63.0,89.0
11,8.469821375,9.066803695833334,53.0,79.0
12,7.435339375,9.168096725,46.0,91.0
13,8.987062375,10.133613258333334,65.0,94.0
14,9.762923875,10.418095808333334,49.0,77.0
15,10.021544375,10.799561045833334,54.0,86.0
16,10.538785375,10.935336808333334,49.0,75.0
17,10.280164875,11.092664279166668,61.0,93.0
18,9.504303375000001,11.1142159875,42.0,89.0
19,11.056026375,11.394388195833335,54.0,91.0
20,11.314646875000001,11.614215620833333,61.0,85.0
21,10.797405875,11.726284504166667,66.0,91.0
22,11.573267375,11.730594845833334,44.0,92.0
23,12.090508375,12.411628829166666,63.0,88.0
24,12.349128875,12.898697437500001,68.0,91.0
25,12.607749375000001,12.905162950000001,63.0,80.0
26,11.831887875,12.993524954166666,56.0,71.0
27,12.866369875,13.204731695833335,75.0,93.0
28,13.124990375000001,13.5840417625,68.0,76.0
29,13.900851875,14.480592829166667,58.0,77.0
30,14.159472375,14.545247954166667,63.0,82.0
31,14.418092875000001,14.961195925,66.0,93.0
32,14.676713375,15.249988816666667,58.0,75.0
33,14.935333875000001,15.262919841666667,63.0,76.0
34,13.642231375,15.467661070833334,51.0,92.0
35,15.452574875,15.709040204166667,63.0,83.0
36,15.193954375,15.732747083333335,70.0,92.0
37,15.969815875,16.21550535,60.0,83.0
38,15.711195375,16.228436375,53.0,94.0
39,16.228436375,16.57757405,65.0,97.0
40,16.487056875,16.849125575000002,68.0,87.0
41,17.004297875,17.446107895833332,53.0,81.0
42,16.745677375,17.521538875,46.0,92.0
43,17.262918375,17.624987075,58.0,93.0
44,17.521538875,17.7413663,61.0,85.0
45,18.297400375000002,18.954727479166667,61.0,92.0
46,18.556020875,18.9633481625,66.0,92.0
47,18.038779875,19.3512789125,49.0,88.0
48,17.780159375,19.47412365,42.0,88.0
49,19.073261875,19.566795995833335,70.0,92.0
50,19.331882375,19.668089025,61.0,90.0
51,19.590502875000002,19.823261325,66.0,87.0
52,19.849123375,19.961192258333334,44.0,89.0
53,19.849123375,20.286623054166668,68.0,86.0
54,19.849123375,20.340502325,63.0,84.0
55,20.624984875,20.952570841666667,63.0,92.0
56,20.366364375,20.963346695833334,60.0,88.0
57,20.883605375000002,21.19826031666667,68.0,90.0
58,21.142225875,21.372829154166666,63.0,86.0
59,20.107743875,21.614208287500002,51.0,76.0
60,21.400846375,21.810328833333333,70.0,85.0
61,21.659466875,21.8469667375,63.0,84.0
62,21.918087375000002,23.9029997125,56.0,86.0
63,21.918087375000002,23.963344495833333,68.0,85.0
64,21.918087375000002,23.976275520833333,63.0,88.0
65,24.504292375000002,24.803861120833336,63.0,90.0
66,24.245671875,24.844809366666667,56.0,86.0
67,24.762912875,25.290929729166667,65.0,94.0
68,25.021533375,25.650843258333335,56.0,76.0
69,25.538774375000003,25.704722529166666,61.0,87.0
70,23.987051375,25.709032870833333,49.0,93.0
71,25.797394875000002,26.047394691666668,61.0,78.0
72,25.538774375000003,26.663773550000002,68.0,92.0
73,26.573256375,27.357738558333335,58.0,82.0
74,26.831876875000003,27.41808334166667,61.0,93.0
75,26.314635875,27.8857554125,53.0,78.0
76,26.056015375,27.9245484875,46.0,84.0
77,27.866358875,28.006444979166666,58.0,77.0
78,27.607738375,28.148686254166666,61.0,88.0
79,27.607738375,28.185324158333334,65.0,93.0
80,28.383599875,28.98920287916667,56.0,90.0
81,28.642220375,28.993513220833336,61.0,86.0
82,28.900840875,29.39653016666667,63.0,86.0
83,29.418081875000002,29.933167704166667,65.0,94.0
84,28.124979375000002,30.150839958333336,49.0,92.0
85,29.676702375,30.4073052875,56.0,81.0
86,30.711184375000002,31.0538565375,63.0,86.0
87,30.452563875000003,31.269373620833335,51.0,81.0
88,31.228425375,31.739200862500002,56.0,92.0
89,31.487045875,31.9137697,51.0,85.0
90,30.193943375,31.982735166666668,44.0,92.0
91,30.969804875,32.26075220416667,68.0,92.0
92,31.745666375000003,32.340493525,63.0,87.0
93,32.004286875,32.3986831375,56.0,72.0
94,32.780148375,33.1874756625,56.0,84.0
95,33.038768875,33.31463074166667,53.0,74.0
96,32.521527875000004,33.66807875833334,48.0,83.0
97,32.262907375000005,33.7758373,41.0,92.0
98,33.556009875,33.87066481666667,53.0,83.0
99,33.297389375,33.8986820375,60.0,88.0
100,33.814630375,34.0279922875,56.0,85.0
101,34.849112375000004,35.14868112083334,58.0,80.0
102,35.107732875,35.40945679166667,61.0,87.0
103,35.366353375,35.66376695,65.0,95.0
104,34.590491875,35.857732325,53.0,80.0
105,35.624973875,35.95255984166667,61.0,83.0
106,34.331871375,36.11850799583333,46.0,93.0
107,35.883594375,36.46333532916667,58.0,79.0
108,36.918076375,37.47195527916667,54.0,84.0
109,37.176696875000005,37.474110450000005,58.0,87.0
110,36.659455875,37.821092954166666,49.0,80.0
111,37.435317375000004,38.01290315833334,61.0,86.0
112,36.400835375,38.11635135833333,42.0,85.0
113,37.693937875,38.18316165416667,54.0,82.0
114,37.952558375,38.27367882916667,58.0,82.0
115,38.211178875,39.038764475,61.0,83.0
116,38.469799375,39.573246841666666,56.0,78.0
117,39.245660875,39.58617786666667,60.0,84.0
118,39.504281375000005,39.806005291666665,68.0,94.0
119,38.987040375,40.05169476666667,51.0,85.0
120,38.469799375,40.29091872916667,44.0,91.0
121,39.762901875000004,40.435315175,63.0,92.0
122,40.021522375,40.53660820416667,60.0,90.0
123,40.280142875,40.553849570833336,56.0,91.0
124,41.056004375,41.355573120833334,63.0,90.0
125,40.797383875,41.39652136666667,56.0,86.0
126,41.314624875,41.842641729166665,65.0,94.0
127,41.573245375,42.202555258333334,56.0,76.0
128,42.090486375000005,42.25643452916667,61.0,87.0
129,40.538763375,42.260744870833335,49.0,93.0
130,42.349106875000004,42.59910669166667,61.0,78.0
131,42.090486375000005,43.215485550000004,68.0,92.0
132,43.124968375,43.90945055833333,58.0,82.0
133,43.383588875,43.96979534166667,61.0,93.0
134,42.866347875,44.4374674125,53.0,78.0
135,42.607727375,44.4762604875,46.0,84.0
136,44.418070875000005,44.55815697916667,58.0,77.0
137,44.159450375,44.70039825416667,61.0,88.0
138,44.159450375,44.73703615833333,65.0,93.0
139,44.935311875000004,45.54091487916667,56.0,90.0
140,45.193932375,45.54522522083334,61.0,86.0
141,45.452552875,45.94824216666667,63.0,86.0
142,45.969793875,46.484879704166666,65.0,94.0
143,44.676691375000004,46.70255195833334,49.0,92.0
144,46.228414375,46.959017287500004,56.0,81.0
145,47.262896375000004,47.605568537500005,63.0,86.0
146,47.004275875000005,47.82108562083334,51.0,81.0
147,47.780137375,48.2909128625,56.0,92.0
148,48.038757875,48.465481700000005,51.0,85.0
149,46.745655375,48.534447166666666,44.0,92.0
150,47.521516875,48.812464204166666,68.0,92.0
151,48.297378375,48.892205525,63.0,87.0
152,48.555998875,48.9503951375,56.0,72.0
153,49.331860375000005,49.7391876625,56.0,84.0
154,49.590480875000004,49.86634274166667,53.0,74.0
155,49.073239875,50.21979075833333,48.0,83.0
156,48.814619375,50.3275493,41.0,92.0
157,50.107721875,50.42237681666667,53.0,83.0
158,49.849101375000004,50.450394037500004,60.0,88.0
159,50.366342375,50.5797042875,56.0,85.0
160,51.400824375,51.70039312083333,58.0,80.0
161,51.659444875000005,51.961168791666665,61.0,87.0
162,51.918065375000005,52.215478950000005,65.0,95.0
163,51.142203875,52.409444325,53.0,80.0
164,52.176685875000004,52.50427184166667,61.0,83.0
165,50.883583375,52.670219995833335,46.0,93.0
166,52.435306375,53.01504732916667,58.0,79.0
167,53.469788375,54.023667279166666,54.0,84.0
168,53.728408875,54.02582245,58.0,87.0
169,53.211167875,54.37280495416667,49.0,80.0
170,53.987029375,54.56461515833333,61.0,86.0
171,52.952547375,54.668063358333335,42.0,85.0
172,54.245649875000005,54.73487365416667,54.0,82.0
173,54.504270375000004,54.82539082916667,58.0,82.0
174,54.762890875000004,55.590476475,61.0,83.0
175,55.021511375,56.12495884166667,56.0,78.0
176,55.797372875,56.13788986666667,60.0,84.0
177,56.055993375,56.35771729166667,68.0,94.0
178,55.538752375,56.603406766666666,51.0,85.0
179,55.021511375,56.84263072916667,44.0,91.0
180,56.314613875,56.987027175,63.0,92.0
181,56.573234375000006,57.08832020416667,60.0,90.0
182,56.831854875000005,57.10556157083334,56.0,91.0
183,57.090475375000004,57.39004412083334,61.0,87.0
184,57.090475375000004,57.39866480416667,68.0,87.0
185,57.349095875,57.7758197,56.0,81.0
186,57.607716375,57.98056092916667,61.0,82.0
187,57.866336875,58.03659537083333,65.0,86.0
188,58.124957375,58.36633650833333,61.0,88.0
189,58.124957375,58.42237095,68.0,92.0
190,58.383577875,58.80599135833334,56.0,81.0
191,57.090475375000004,58.918060241666666,49.0,93.0
192,58.642198375,59.17021522916667,61.0,86.0
193,58.900818875,59.196077279166666,65.0,87.0
194,59.418059875000004,59.797369941666666,53.0,77.0
195,59.676680375000004,60.01073185416667,58.0,90.0
196,59.935300875,60.064611125,61.0,93.0
197,60.193921375,60.4460763625,58.0,89.0
198,60.193921375,60.474093583333335,65.0,94.0
199,60.193921375,60.48271426666667,61.0,101.0
200,60.452541875,60.75426579166667,53.0,82.0
201,59.159439375000005,60.80167955,46.0,88.0
202,60.711162375,61.055989708333335,58.0,82.0
203,60.969782875,61.10986897916667,61.0,80.0
204,61.228403375,61.45254114166667,58.0,87.0
205,61.228403375,61.61417895416667,66.0,93.0
206,61.228403375,61.76935125416667,61.0,90.0
207,61.745644375000005,62.06676482916667,58.0,79.0
208,62.004264875000004,62.14435097916667,61.0,81.0
209,61.487023875000006,62.44176455416667,49.0,85.0
210,62.262885375,62.45469557916667,58.0,92.0
211,62.262885375,62.605557537500005,66.0,93.0
212,62.521505875,62.928833162500005,49.0,76.0
213,61.228403375,62.971936579166666,42.0,92.0
214,62.780126375,63.0516779,61.0,92.0
215,63.038746875,63.187453662500005,58.0,84.0
216,63.297367375,63.913746233333335,56.0,89.0
217,63.297367375,63.94176345416667,60.0,86.0
218,63.814608375000006,64.20684946666667,63.0,85.0
219,64.073228875,64.25641839583334,56.0,85.0
220,64.331849375,64.48702167500001,56.0,89.0
221,64.331849375,64.74779734583333,68.0,93.0
222,64.590469875,64.7779697375,56.0,92.0
223,63.555987875,64.96331442916667,51.0,75.0
224,63.297367375,65.00857301666667,44.0,92.0
225,64.849090375,65.16374531666666,63.0,88.0
226,65.10771087500001,65.20684873333333,56.0,76.0
227,65.366331375,65.53658987083334,58.0,87.0
228,65.366331375,65.7219345625,63.0,93.0
229,65.62495187500001,65.94607232916667,58.0,85.0
230,65.883572375,66.20253765833334,63.0,84.0
231,66.142192875,66.21977902500001,58.0,72.0
232,66.400813375,66.5365891375,58.0,93.0
233,65.366331375,66.84262339583334,51.0,89.0
234,66.400813375,66.90943369166666,66.0,90.0
235,66.659433875,66.92236471666666,58.0,86.0
236,66.918054375,67.25641619583334,63.0,83.0
237,67.176674875,67.305985125,58.0,81.0
238,67.43529537500001,67.57753665,60.0,89.0
239,67.43529537500001,67.75426065833334,65.0,92.0
240,67.693915875,67.87279505416667,60.0,87.0
241,67.43529537500001,67.96977774166668,53.0,94.0
242,67.95253637500001,68.2240879,68.0,87.0
243,67.95253637500001,68.237018925,65.0,94.0
244,68.211156875,68.340467125,60.0,88.0
245,68.469777375,68.79736334166667,58.0,85.0
246,68.469777375,68.8383115875,61.0,91.0
247,68.987018375,69.09046657500001,58.0,86.0
248,68.728397875,69.271500925,53.0,84.0
249,68.987018375,69.28227677916666,65.0,93.0
250,68.987018375,69.297362975,61.0,87.0
251,68.469777375,69.349087075,46.0,93.0
252,69.245638875,69.3555525875,58.0,82.0
253,69.504259375,69.74994885000001,61.0,87.0
254,69.504259375,69.84908670833333,66.0,86.0
255,69.762879875,69.99132798333333,61.0,90.0
256,70.021500375,70.33400014583333,66.0,86.0
257,70.28012087500001,70.43960351666666,61.0,83.0
258,70.538741375,70.668051625,61.0,86.0
259,70.797361875,71.09046510833333,61.0,92.0
260,70.538741375,71.09908579166667,70.0,92.0
261,69.504259375,71.27365462916667,42.0,92.0
262,71.055982375,71.41374073333334,66.0,88.0
263,71.314602875,71.46546483333334,61.0,89.0
264,71.573223375,71.81675767916667,63.0,88.0
265,71.573223375,71.87494729166667,68.0,85.0
266,72.090464375,72.43529170833334,63.0,88.0
267,72.349084875,72.46330892916667,68.0,83.0
268,72.60770537500001,72.76718801666667,63.0,92.0
269,72.60770537500001,72.88787758333333,72.0,93.0
270,72.866325875,73.1055498375,68.0,87.0
271,71.831843875,73.26934282083333,51.0,81.0
272,73.12494637500001,73.41373926666667,63.0,87.0
273,73.383566875,73.50425644166667,68.0,80.0
274,71.573223375,73.5193426375,44.0,92.0
275,73.642187375,73.94175612083333,61.0,87.0
276,73.642187375,73.95037680416667,68.0,87.0
277,73.900807875,74.32753170000001,56.0,81.0
278,74.159428375,74.53227292916667,61.0,82.0
279,74.418048875,74.58830737083333,65.0,86.0
280,74.676669375,74.91804850833334,61.0,88.0
281,74.676669375,74.97408295,68.0,92.0
282,74.93528987500001,75.35770335833334,56.0,81.0
283,73.642187375,75.46977224166667,49.0,93.0
284,75.193910375,75.72192722916667,61.0,86.0
285,75.45253087500001,75.74778927916667,65.0,87.0
286,75.969771875,76.34908194166667,53.0,77.0
287,76.228392375,76.56244385416667,58.0,90.0
288,76.487012875,76.61632312500001,61.0,93.0
289,76.745633375,76.9977883625,58.0,89.0
290,76.745633375,77.02580558333334,65.0,94.0
291,76.745633375,77.03442626666667,61.0,101.0
292,77.004253875,77.30597779166666,53.0,82.0
293,75.711151375,77.35339155,46.0,88.0
294,77.26287437500001,77.60770170833334,58.0,82.0
295,77.521494875,77.66158097916667,61.0,80.0
296,77.78011537500001,78.00425314166667,58.0,87.0
297,77.78011537500001,78.16589095416667,66.0,93.0
298,77.78011537500001,78.32106325416667,61.0,90.0
299,78.297356375,78.61847682916667,58.0,79.0
300,78.555976875,78.69606297916667,61.0,81.0
301,78.038735875,78.99347655416668,49.0,85.0
302,78.814597375,79.00640757916668,58.0,92.0
303,78.814597375,79.1572695375,66.0,93.0
304,79.073217875,79.48054516250001,49.0,76.0
305,77.78011537500001,79.52364857916668,42.0,92.0
306,79.331838375,79.6033899,61.0,92.0
307,79.59045887500001,79.7391656625,58.0,84.0
308,79.849079375,80.46545823333334,56.0,89.0
309,79.849079375,80.49347545416667,60.0,86.0
310,80.366320375,80.75856146666666,63.0,85.0
311,80.62494087500001,80.80813039583333,56.0,85.0
312,80.883561375,81.038733675,56.0,89.0
313,80.883561375,81.29950934583334,68.0,93.0
314,81.142181875,81.3296817375,56.0,92.0
315,80.10769987500001,81.51502642916667,51.0,75.0
316,79.849079375,81.56028501666667,44.0,92.0
317,81.400802375,81.71545731666667,63.0,88.0
318,81.659422875,81.75856073333334,56.0,76.0
319,81.918043375,82.08830187083333,58.0,87.0
320,81.918043375,82.2736465625,63.0,93.0
321,82.176663875,82.49778432916666,58.0,85.0
322,82.43528437500001,82.75424965833334,63.0,84.0
323,82.693904875,82.771491025,58.0,72.0
324,82.95252537500001,83.0883011375,58.0,93.0
325,81.918043375,83.39433539583334,51.0,89.0
326,82.95252537500001,83.46114569166667,66.0,90.0
327,83.211145875,83.47407671666667,58.0,86.0
328,83.469766375,83.80812819583333,63.0,83.0
329,83.728386875,83.857697125,58.0,81.0
330,83.987007375,84.12924865000001,60.0,89.0
331,83.987007375,84.30597265833333,65.0,92.0
332,84.245627875,84.42450705416667,60.0,87.0
333,83.987007375,84.52148974166667,53.0,94.0
334,84.504248375,84.77579990000001,68.0,87.0
335,84.504248375,84.78873092500001,65.0,94.0
336,84.76286887500001,84.892179125,60.0,88.0
337,85.021489375,85.34907534166668,58.0,85.0
338,85.021489375,85.3900235875,61.0,91.0
339,85.538730375,85.642178575,58.0,86.0
340,85.28010987500001,85.823212925,53.0,84.0
341,85.538730375,85.83398877916667,65.0,93.0
342,85.538730375,85.84907497500001,61.0,87.0
343,85.021489375,85.90079907500001,46.0,93.0
344,85.797350875,85.90726458750001,58.0,82.0
345,86.055971375,86.30166085,61.0,87.0
346,86.055971375,86.40079870833334,66.0,86.0
347,86.314591875,86.54303998333333,61.0,90.0
348,86.573212375,86.88571214583334,66.0,86.0
349,86.831832875,86.99131551666667,61.0,83.0
350,87.09045337500001,87.219763625,61.0,86.0
351,87.349073875,87.64217710833334,61.0,92.0
352,87.09045337500001,87.65079779166668,70.0,92.0
353,86.055971375,87.82536662916667,42.0,92.0
354,87.60769437500001,87.96545273333334,66.0,88.0
355,87.866314875,88.01717683333334,61.0,89.0
356,88.124935375,88.36846967916667,63.0,88.0
357,88.124935375,88.42665929166667,68.0,85.0
358,88.642176375,88.98700370833333,63.0,88.0
359,88.900796875,89.01502092916667,68.0,83.0
360,89.159417375,89.31890001666667,63.0,92.0
361,89.159417375,89.43958958333333,72.0,93.0
362,89.41803787500001,89.6572618375,68.0,87.0
363,88.383555875,89.82105482083334,51.0,81.0
364,89.676658375,89.96545126666668,63.0,87.0
365,89.93527887500001,90.05596844166666,68.0,80.0
366,88.124935375,90.0710546375,44.0,92.0
367,90.142175275,91.77579476666666,44.0,92.0
368,90.0710546375,92.18743239583334,56.0,81.0
369,90.1227787375,92.19174273750001,60.0,88.0
370,90.18527869166667,92.20251859166667,63.0,83.0
371,90.24346830416667,92.22407030000001,68.0,84.0
372,92.78010437500001,93.07967312083333,63.0,84.0
373,92.521483875,93.12062136666667,56.0,81.0
374,93.038724875,93.61200031666667,65.0,95.0
375,93.555965875,93.70036232083334,61.0,78.0
376,93.297345375,93.7757933,56.0,74.0
377,92.26286337500001,93.86415530416667,49.0,93.0
378,93.814586375,94.37062045,68.0,91.0
379,94.59044787500001,95.17234400000001,53.0,78.0
380,94.849068375,95.18096468333334,56.0,82.0
381,95.10768887500001,95.63355055833334,61.0,91.0
382,95.624929875,95.9546710125,63.0,89.0
383,95.366309375,95.96329169583333,53.0,79.0
384,94.331827375,96.064584725,46.0,91.0
385,95.883550375,97.03010125833333,65.0,94.0
386,96.659411875,97.31458380833334,49.0,77.0
387,96.91803237500001,97.69604904583333,54.0,86.0
388,97.43527337500001,97.83182480833334,49.0,75.0
389,97.176652875,97.98915227916667,61.0,93.0
390,96.400791375,98.01070398750001,42.0,89.0
391,97.952514375,98.29087619583333,54.0,91.0
392,98.211134875,98.51070362083334,61.0,85.0
393,97.693893875,98.62277250416668,66.0,91.0
394,98.469755375,98.62708284583334,44.0,92.0
395,98.986996375,99.30811682916666,63.0,88.0
396,99.24561687500001,99.79518543750001,68.0,91.0
397,99.504237375,99.80165095000001,63.0,80.0
398,98.728375875,99.89001295416666,56.0,71.0
399,99.76285787500001,100.10121969583334,75.0,93.0
400,100.021478375,100.4805297625,68.0,76.0
401,100.797339875,101.37708082916667,58.0,77.0
402,101.055960375,101.44173595416667,63.0,82.0
403,101.314580875,101.857683925,66.0,93.0
404,101.57320137500001,102.14647681666668,58.0,75.0
405,101.831821875,102.15940784166668,63.0,76.0
406,100.538719375,102.36414907083334,51.0,92.0
407,102.349062875,102.60552820416667,63.0,83.0
408,102.09044237500001,102.62923508333334,70.0,92.0
409,102.866303875,103.11199335,60.0,83.0
410,102.60768337500001,103.124924375,53.0,94.0
411,103.124924375,103.47406205,65.0,97.0
412,103.383544875,103.74561357500001,68.0,87.0
413,103.90078587500001,104.34259589583334,53.0,81.0
414,103.642165375,104.41802687500001,46.0,92.0
415,104.159406375,104.521475075,58.0,93.0
416,104.41802687500001,104.6378543,61.0,85.0
417,105.193888375,105.85121547916667,61.0,92.0
418,105.452508875,105.8598361625,66.0,92.0
419,104.93526787500001,106.2477669125,49.0,88.0
420,104.676647375,106.37061165,42.0,88.0
421,105.969749875,106.46328399583334,70.0,92.0
422,106.228370375,106.564577025,61.0,90.0
423,106.486990875,106.71974932500001,66.0,87.0
424,106.74561137500001,106.85768025833333,44.0,89.0
425,106.74561137500001,107.18311105416667,68.0,86.0
426,106.74561137500001,107.23699032500001,63.0,84.0
427,107.521472875,107.84905884166668,63.0,92.0
428,107.26285237500001,107.85983469583334,60.0,88.0
429,107.780093375,108.09474831666667,68.0,90.0
430,108.038713875,108.26931715416667,63.0,86.0
431,107.004231875,108.51069628750001,51.0,76.0
432,108.297334375,108.70681683333333,70.0,85.0
433,108.555954875,108.7434547375,63.0,84.0
434,108.814575375,110.79948771250001,56.0,86.0
435,108.814575375,110.85983249583333,68.0,85.0
436,108.814575375,110.87276352083333,63.0,88.0
437,111.40078037500001,111.70034912083334,63.0,90.0
438,111.142159875,111.74129736666667,56.0,86.0
439,111.659400875,112.18741772916667,65.0,94.0
440,111.91802137500001,112.54733125833334,56.0,76.0
441,112.43526237500001,112.60121052916666,61.0,87.0
442,110.883539375,112.60552087083333,49.0,93.0
443,112.693882875,112.94388269166667,61.0,78.0
444,112.43526237500001,113.56026155,68.0,92.0
445,113.469744375,114.25422655833334,58.0,82.0
446,113.72836487500001,114.31457134166668,61.0,93.0
447,113.211123875,114.78224341250001,53.0,78.0
448,112.952503375,114.82103648750001,46.0,84.0
449,114.76284687500001,114.90293297916668,58.0,77.0
450,114.504226375,115.04517425416667,61.0,88.0
451,114.504226375,115.08181215833334,65.0,93.0
452,115.280087875,115.88569087916667,56.0,90.0
453,115.538708375,115.89000122083334,61.0,86.0
454,115.797328875,116.29301816666667,63.0,86.0
455,116.314569875,116.82965570416667,65.0,94.0
456,115.021467375,117.04732795833334,49.0,92.0
457,116.57319037500001,117.3037932875,56.0,81.0
458,117.607672375,117.9503445375,63.0,86.0
459,117.349051875,118.16586162083334,51.0,81.0
460,118.124913375,118.6356888625,56.0,92.0
461,118.383533875,118.81025770000001,51.0,85.0
462,117.09043137500001,118.87922316666668,44.0,92.0
463,117.866292875,119.15724020416667,68.0,92.0
464,118.642154375,119.236981525,63.0,87.0
465,118.90077487500001,119.2951711375,56.0,72.0
466,119.676636375,120.08396366250001,56.0,84.0
467,119.93525687500001,120.21111874166667,53.0,74.0
468,119.41801587500001,120.56456675833334,48.0,83.0
469,119.159395375,120.67232530000001,41.0,92.0
470,120.452497875,120.76715281666667,53.0,83.0
471,120.193877375,120.7951700375,60.0,88.0
472,120.711118375,120.9244802875,56.0,85.0
473,121.74560037500001,122.04516912083334,58.0,80.0
474,122.004220875,122.30594479166668,61.0,87.0
475,122.26284137500001,122.56025495,65.0,95.0
476,121.486979875,122.754220325,53.0,80.0
477,122.521461875,122.84904784166667,61.0,83.0
478,121.22835937500001,123.01499599583333,46.0,93.0
479,122.780082375,123.35982332916667,58.0,79.0
480,123.814564375,124.36844327916667,54.0,84.0
481,124.07318487500001,124.37059845,58.0,87.0
482,123.55594387500001,124.71758095416668,49.0,80.0
483,124.331805375,124.90939115833334,61.0,86.0
484,123.297323375,125.01283935833334,42.0,85.0
485,124.59042587500001,125.07964965416667,54.0,82.0
486,124.849046375,125.17016682916667,58.0,82.0
487,125.107666875,125.935252475,61.0,83.0
488,125.366287375,126.46973484166668,56.0,78.0
489,126.142148875,126.48266586666666,60.0,84.0
490,126.40076937500001,126.70249329166667,68.0,94.0
491,125.88352837500001,126.94818276666668,51.0,85.0
492,125.366287375,127.18740672916667,44.0,91.0
493,126.659389875,127.331803175,63.0,92.0
494,126.91801037500001,127.43309620416667,60.0,90.0
495,127.176630875,127.45033757083334,56.0,91.0
496,127.952492375,128.25206112083333,63.0,90.0
497,127.693871875,128.29300936666667,56.0,86.0
498,128.211112875,128.73912972916668,65.0,94.0
499,128.469733375,129.09904325833332,56.0,76.0
500,128.98697437500002,129.15292252916666,61.0,87.0
501,127.435251375,129.15723287083333,49.0,93.0
502,129.245594875,129.49559469166667,61.0,78.0
503,128.98697437500002,130.11197355000002,68.0,92.0
504,130.021456375,130.80593855833334,58.0,82.0
505,130.280076875,130.86628334166667,61.0,93.0
506,129.762835875,131.33395541250002,53.0,78.0
507,129.504215375,131.37274848750002,46.0,84.0
508,131.31455887500002,131.45464497916666,58.0,77.0
509,131.055938375,131.59688625416666,61.0,88.0
510,131.055938375,131.63352415833333,65.0,93.0
511,131.831799875,132.43740287916668,56.0,90.0
512,132.090420375,132.44171322083335,61.0,86.0
513,132.34904087500001,132.84473016666666,63.0,86.0
514,132.866281875,133.38136770416668,65.0,94.0
515,131.573179375,133.59903995833335,49.0,92.0
516,133.124902375,133.8555052875,56.0,81.0
517,134.159384375,134.5020565375,63.0,86.0
518,133.900763875,134.71757362083335,51.0,81.0
519,134.67662537500001,135.1874008625,56.0,92.0
520,134.935245875,135.3619697,51.0,85.0
521,133.64214337500002,135.43093516666667,44.0,92.0
522,134.418004875,135.70895220416668,68.0,92.0
523,135.193866375,135.788693525,63.0,87.0
524,135.452486875,135.84688313750001,56.0,72.0
525,136.228348375,136.6356756625,56.0,84.0
526,136.486968875,136.76283074166668,53.0,74.0
527,135.96972787500002,137.11627875833335,48.0,83.0
528,135.711107375,137.2240373,41.0,92.0
529,137.00420987500002,137.31886481666666,53.0,83.0
530,136.745589375,137.3468820375,60.0,88.0
531,137.262830375,137.4761922875,56.0,85.0
532,138.29731237500002,138.59688112083333,58.0,80.0
533,138.555932875,138.85765679166667,61.0,87.0
534,138.814553375,139.11196695,65.0,95.0
535,138.038691875,139.30593232500001,53.0,80.0
536,139.073173875,139.40075984166668,61.0,83.0
537,137.780071375,139.56670799583333,46.0,93.0
538,139.33179437500002,139.91153532916667,58.0,79.0
539,140.366276375,140.92015527916666,54.0,84.0
540,140.62489687500002,140.92231045,58.0,87.0
541,140.107655875,141.26929295416667,49.0,80.0
542,140.883517375,141.46110315833334,61.0,86.0
543,139.849035375,141.56455135833335,42.0,85.0
544,141.142137875,141.63136165416668,54.0,82.0
545,141.400758375,141.72187882916668,58.0,82.0
546,141.65937887500002,142.486964475,61.0,83.0
547,141.917999375,143.02144684166666,56.0,78.0
548,142.693860875,143.03437786666666,60.0,84.0
549,142.95248137500002,143.25420529166666,68.0,94.0
550,142.435240375,143.49989476666667,51.0,85.0
551,141.917999375,143.73911872916668,44.0,91.0
552,143.211101875,143.883515175,63.0,92.0
553,143.469722375,143.98480820416668,60.0,90.0
554,143.728342875,144.00204957083335,56.0,91.0
555,143.98696337500002,144.28653212083333,61.0,87.0
556,143.98696337500002,144.29515280416666,68.0,87.0
557,144.245583875,144.6723077,56.0,81.0
558,144.504204375,144.87704892916668,61.0,82.0
559,144.762824875,144.93308337083334,65.0,86.0
560,145.021445375,145.26282450833335,61.0,88.0
561,145.021445375,145.31885895,68.0,92.0
562,145.28006587500002,145.70247935833333,56.0,81.0
563,143.98696337500002,145.81454824166667,49.0,93.0
564,145.538686375,146.06670322916668,61.0,86.0
565,145.797306875,146.09256527916668,65.0,87.0
566,146.31454787500002,146.69385794166666,53.0,77.0
567,146.573168375,146.90721985416667,58.0,90.0
568,146.831788875,146.961099125,61.0,93.0
569,147.090409375,147.3425643625,58.0,89.0
570,147.090409375,147.37058158333335,65.0,94.0
571,147.090409375,147.37920226666668,61.0,101.0
572,147.349029875,147.65075379166666,53.0,82.0
573,146.055927375,147.69816755,46.0,88.0
574,147.60765037500002,147.95247770833333,58.0,82.0
575,147.866270875,148.00635697916667,61.0,80.0
576,148.124891375,148.34902914166668,58.0,87.0
577,148.124891375,148.51066695416668,66.0,93.0
578,148.124891375,148.66583925416668,61.0,90.0
579,148.64213237500002,148.96325282916666,58.0,79.0
580,148.900752875,149.04083897916667,61.0,81.0
581,148.383511875,149.33825255416667,49.0,85.0
582,149.159373375,149.35118357916667,58.0,92.0
583,149.159373375,149.5020455375,66.0,93.0
584,149.417993875,149.82532116250002,49.0,76.0
585,148.124891375,149.86842457916669,42.0,92.0
586,149.676614375,149.9481659,61.0,92.0
587,149.935234875,150.0839416625,58.0,84.0
588,150.193855375,150.81023423333335,56.0,89.0
589,150.193855375,150.83825145416668,60.0,86.0
590,150.711096375,151.10333746666666,63.0,85.0
591,150.96971687500002,151.15290639583333,56.0,85.0
592,151.228337375,151.383509675,56.0,89.0
593,151.228337375,151.64428534583334,68.0,93.0
594,151.486957875,151.6744577375,56.0,92.0
595,150.452475875,151.85980242916668,51.0,75.0
596,150.193855375,151.90506101666668,44.0,92.0
597,151.745578375,152.06023331666668,63.0,88.0
598,152.00419887500001,152.10333673333335,56.0,76.0
599,152.262819375,152.43307787083333,58.0,87.0
600,152.262819375,152.6184225625,63.0,93.0
601,152.521439875,152.84256032916667,58.0,85.0
602,152.780060375,153.09902565833335,63.0,84.0
603,153.038680875,153.116267025,58.0,72.0
604,153.29730137500002,153.4330771375,58.0,93.0
605,152.262819375,153.73911139583333,51.0,89.0
606,153.29730137500002,153.80592169166667,66.0,90.0
607,153.555921875,153.81885271666667,58.0,86.0
608,153.814542375,154.15290419583334,63.0,83.0
609,154.073162875,154.202473125,58.0,81.0
610,154.33178337500001,154.47402465000002,60.0,89.0
611,154.33178337500001,154.65074865833333,65.0,92.0
612,154.590403875,154.76928305416666,60.0,87.0
613,154.33178337500001,154.86626574166667,53.0,94.0
614,154.849024375,155.1205759,68.0,87.0
615,154.849024375,155.133506925,65.0,94.0
616,155.107644875,155.236955125,60.0,88.0
617,155.366265375,155.6938513416667,58.0,85.0
618,155.366265375,155.7347995875,61.0,91.0
619,155.883506375,155.986954575,58.0,86.0
620,155.62488587500002,156.167988925,53.0,84.0
621,155.883506375,156.17876477916667,65.0,93.0
622,155.883506375,156.193850975,61.0,87.0
623,155.366265375,156.245575075,46.0,93.0
624,156.142126875,156.2520405875,58.0,82.0
625,156.400747375,156.64643685000001,61.0,87.0
626,156.400747375,156.74557470833335,66.0,86.0
627,156.65936787500002,156.88781598333333,61.0,90.0
628,156.917988375,157.23048814583333,66.0,86.0
629,157.176608875,157.33609151666667,61.0,83.0
630,157.435229375,157.564539625,61.0,86.0
631,157.693849875,157.98695310833335,61.0,92.0
632,157.435229375,157.9955737916667,70.0,92.0
633,156.400747375,158.17014262916666,42.0,92.0
634,157.95247037500002,158.31022873333333,66.0,88.0
635,158.211090875,158.36195283333333,61.0,89.0
636,158.469711375,158.71324567916668,63.0,88.0
637,158.469711375,158.77143529166668,68.0,85.0
638,158.98695237500002,159.33177970833333,63.0,88.0
639,159.245572875,159.35979692916666,68.0,83.0
640,159.504193375,159.66367601666667,63.0,92.0
641,159.504193375,159.78436558333334,72.0,93.0
642,159.762813875,160.0020378375,68.0,87.0
643,158.728331875,160.16583082083335,51.0,81.0
644,160.021434375,160.3102272666667,63.0,87.0
645,160.28005487500002,160.40074444166666,68.0,80.0
646,158.469711375,160.4158306375,44.0,92.0
647,160.538675375,160.83824412083334,61.0,87.0
648,160.538675375,160.84686480416667,68.0,87.0
649,160.797295875,161.2240197,56.0,81.0
650,161.055916375,161.42876092916669,61.0,82.0
651,161.31453687500002,161.48479537083335,65.0,86.0
652,161.573157375,161.81453650833333,61.0,88.0
653,161.573157375,161.87057095,68.0,92.0
654,161.831777875,162.25419135833334,56.0,81.0
655,160.538675375,162.36626024166668,49.0,93.0
656,162.090398375,162.6184152291667,61.0,86.0
657,162.349018875,162.6442772791667,65.0,87.0
658,162.866259875,163.24556994166667,53.0,77.0
659,163.124880375,163.45893185416668,58.0,90.0
660,163.383500875,163.512811125,61.0,93.0
661,163.64212137500002,163.8942763625,58.0,89.0
662,163.64212137500002,163.92229358333333,65.0,94.0
663,163.64212137500002,163.93091426666666,61.0,101.0
664,163.900741875,164.20246579166667,53.0,82.0
665,162.60763937500002,164.24987955,46.0,88.0
666,164.159362375,164.50418970833334,58.0,82.0
667,164.417982875,164.55806897916668,61.0,80.0
668,164.676603375,164.90074114166669,58.0,87.0
669,164.676603375,165.06237895416666,66.0,93.0
670,164.676603375,165.21755125416666,61.0,90.0
671,165.193844375,165.51496482916667,58.0,79.0
672,165.452464875,165.59255097916667,61.0,81.0
673,164.93522387500002,165.88996455416668,49.0,85.0
674,165.711085375,165.90289557916668,58.0,92.0
675,165.711085375,166.05375753750002,66.0,93.0
676,165.96970587500002,166.3770331625,49.0,76.0
677,164.676603375,166.42013657916667,42.0,92.0
678,166.228326375,166.4998779,61.0,92.0
679,166.486946875,166.6356536625,58.0,84.0
680,166.745567375,167.36194623333333,56.0,89.0
681,166.745567375,167.38996345416666,60.0,86.0
682,167.26280837500002,167.65504946666667,63.0,85.0
683,167.521428875,167.70461839583334,56.0,85.0
684,167.780049375,167.935221675,56.0,89.0
685,167.780049375,168.19599734583335,68.0,93.0
686,168.038669875,168.22616973750002,56.0,92.0
687,167.004187875,168.4115144291667,51.0,75.0
688,166.745567375,168.45677301666666,44.0,92.0
689,168.29729037500002,168.61194531666666,63.0,88.0
690,168.555910875,168.65504873333333,56.0,76.0
691,168.814531375,168.98478987083334,58.0,87.0
692,168.814531375,169.1701345625,63.0,93.0
693,169.073151875,169.39427232916668,58.0,85.0
694,169.331772375,169.65073765833333,63.0,84.0
695,169.59039287500002,169.667979025,58.0,72.0
696,169.849013375,169.9847891375,58.0,93.0
697,168.814531375,170.29082339583334,51.0,89.0
698,169.849013375,170.35763369166668,66.0,90.0
699,170.107633875,170.37056471666668,58.0,86.0
700,170.366254375,170.70461619583335,63.0,83.0
701,170.62487487500002,170.75418512500002,58.0,81.0
702,170.883495375,171.02573665,60.0,89.0
703,170.883495375,171.20246065833334,65.0,92.0
704,171.142115875,171.32099505416667,60.0,87.0
705,170.883495375,171.41797774166668,53.0,94.0
706,171.400736375,171.67228790000001,68.0,87.0
707,171.400736375,171.68521892500002,65.0,94.0
708,171.65935687500001,171.78866712500002,60.0,88.0
709,171.91797737500002,172.24556334166667,58.0,85.0
710,171.91797737500002,172.2865115875,61.0,91.0
711,172.435218375,172.538666575,58.0,86.0
712,172.176597875,172.719700925,53.0,84.0
713,172.435218375,172.73047677916668,65.0,93.0
714,172.435218375,172.745562975,61.0,87.0
715,171.91797737500002,172.797287075,46.0,93.0
716,172.693838875,172.80375258750001,58.0,82.0
717,172.95245937500002,173.19814885,61.0,87.0
718,172.95245937500002,173.29728670833333,66.0,86.0
719,173.211079875,173.43952798333333,61.0,90.0
720,173.469700375,173.78220014583334,66.0,86.0
721,173.728320875,173.88780351666668,61.0,83.0
722,173.98694137500001,174.11625162500002,61.0,86.0
723,174.245561875,174.53866510833333,61.0,92.0
724,173.98694137500001,174.54728579166667,70.0,92.0
725,172.95245937500002,174.72185462916667,42.0,92.0
726,174.504182375,174.86194073333334,66.0,88.0
727,174.762802875,174.91366483333334,61.0,89.0
728,175.021423375,175.26495767916668,63.0,88.0
729,175.021423375,175.3231472916667,68.0,85.0
730,175.538664375,175.88349170833334,63.0,88.0
731,175.797284875,175.91150892916667,68.0,83.0
732,176.055905375,176.21538801666668,63.0,92.0
733,176.055905375,176.33607758333335,72.0,93.0
734,176.31452587500002,176.5537498375,68.0,87.0
735,175.28004387500002,176.71754282083333,51.0,81.0
736,176.573146375,176.86193926666667,63.0,87.0
737,176.831766875,176.95245644166667,68.0,80.0
738,175.021423375,176.9675426375,44.0,92.0
739,177.090387375,177.38995612083335,61.0,87.0
740,177.090387375,177.39857680416668,68.0,87.0
741,177.349007875,177.7757317,56.0,81.0
742,177.60762837500002,177.98047292916667,61.0,82.0
743,177.866248875,178.03650737083333,65.0,86.0
744,178.124869375,178.36624850833334,61.0,88.0
745,178.124869375,178.42228295,68.0,92.0
746,178.383489875,178.80590335833335,56.0,81.0
747,177.090387375,178.91797224166666,49.0,93.0
748,178.64211037500002,179.17012722916667,61.0,86.0
749,178.900730875,179.19598927916667,65.0,87.0
750,179.417971875,179.79728194166668,53.0,77.0
751,179.676592375,180.0106438541667,58.0,90.0
752,179.93521287500002,180.064523125,61.0,93.0
753,180.193833375,180.4459883625,58.0,89.0
754,180.193833375,180.47400558333334,65.0,94.0
755,180.193833375,180.48262626666667,61.0,101.0
756,180.452453875,180.75417779166668,53.0,82.0
757,179.159351375,180.80159155,46.0,88.0
758,180.711074375,181.05590170833335,58.0,82.0
759,180.96969487500002,181.1097809791667,61.0,80.0
760,181.228315375,181.45245314166667,58.0,87.0
761,181.228315375,181.61409095416667,66.0,93.0
762,181.228315375,181.76926325416667,61.0,90.0
763,181.745556375,182.06667682916668,58.0,79.0
764,182.004176875,182.14426297916668,61.0,81.0
765,181.486935875,182.44167655416666,49.0,85.0
766,182.26279737500002,182.45460757916666,58.0,92.0
767,182.26279737500002,182.6054695375,66.0,93.0
768,182.521417875,182.9287451625,49.0,76.0
769,181.228315375,182.97184857916668,42.0,92.0
770,182.780038375,183.0515899,61.0,92.0
771,183.038658875,183.1873656625,58.0,84.0
772,183.29727937500002,183.91365823333334,56.0,89.0
773,183.29727937500002,183.94167545416667,60.0,86.0
774,183.814520375,184.20676146666668,63.0,85.0
775,184.073140875,184.25633039583334,56.0,85.0
776,184.331761375,184.48693367500002,56.0,89.0
777,184.331761375,184.74770934583333,68.0,93.0
778,184.59038187500002,184.7778817375,56.0,92.0
779,183.555899875,184.96322642916667,51.0,75.0
780,183.29727937500002,185.00848501666667,44.0,92.0
781,184.849002375,185.16365731666667,63.0,88.0
782,185.107622875,185.20676073333334,56.0,76.0
783,185.366243375,185.53650187083335,58.0,87.0
784,185.366243375,185.72184656250002,63.0,93.0
785,185.62486387500002,185.94598432916666,58.0,85.0
786,185.883484375,186.20244965833334,63.0,84.0
787,186.142104875,186.219691025,58.0,72.0
788,186.400725375,186.5365011375,58.0,93.0
789,185.366243375,186.84253539583335,51.0,89.0
790,186.400725375,186.9093456916667,66.0,90.0
791,186.659345875,186.9222767166667,58.0,86.0
792,186.91796637500002,187.25632819583333,63.0,83.0
793,187.176586875,187.305897125,58.0,81.0
794,187.435207375,187.57744865,60.0,89.0
795,187.435207375,187.75417265833335,65.0,92.0
796,187.693827875,187.87270705416668,60.0,87.0
797,187.435207375,187.96968974166668,53.0,94.0
798,187.95244837500002,188.2239999,68.0,87.0
799,187.95244837500002,188.236930925,65.0,94.0
800,188.211068875,188.340379125,60.0,88.0
801,188.469689375,188.79727534166668,58.0,85.0
802,188.469689375,188.8382235875,61.0,91.0
803,188.98693037500001,189.09037857500002,58.0,86.0
804,188.728309875,189.27141292500002,53.0,84.0
805,188.98693037500001,189.2821887791667,65.0,93.0
806,188.98693037500001,189.297274975,61.0,87.0
807,188.469689375,189.348999075,46.0,93.0
808,189.24555087500002,189.3554645875,58.0,82.0
809,189.504171375,189.74986085,61.0,87.0
810,189.504171375,189.84899870833334,66.0,86.0
811,189.762791875,189.99123998333334,61.0,90.0
812,190.021412375,190.33391214583335,66.0,86.0
813,190.28003287500002,190.4395155166667,61.0,83.0
814,190.538653375,190.667963625,61.0,86.0
815,190.797273875,191.09037710833334,61.0,92.0
816,190.538653375,191.09899779166668,70.0,92.0
817,189.504171375,191.27356662916668,42.0,92.0
818,191.055894375,191.41365273333335,66.0,88.0
819,191.31451487500001,191.46537683333335,61.0,89.0
820,191.57313537500002,191.81666967916667,63.0,88.0
821,191.57313537500002,191.87485929166667,68.0,85.0
822,192.090376375,192.43520370833335,63.0,88.0
823,192.348996875,192.46322092916668,68.0,83.0
824,192.60761737500002,192.76710001666666,63.0,92.0
825,192.60761737500002,192.88778958333333,72.0,93.0
826,192.866237875,193.1054618375,68.0,87.0
827,191.831755875,193.26925482083334,51.0,81.0
828,193.124858375,193.41365126666668,63.0,87.0
829,193.383478875,193.50416844166668,68.0,80.0
830,191.57313537500002,193.5192546375,44.0,92.0
831,193.64209937500002,193.94166812083333,61.0,87.0
832,193.64209937500002,193.95028880416666,68.0,87.0
833,193.90071987500002,194.3274437,56.0,81.0
834,194.159340375,194.53218492916668,61.0,82.0
835,194.417960875,194.58821937083334,65.0,86.0
836,194.676581375,194.91796050833335,61.0,88.0
837,194.676581375,194.97399495000002,68.0,92.0
838,194.93520187500002,195.35761535833333,56.0,81.0
839,193.64209937500002,195.46968424166667,49.0,93.0
840,195.193822375,195.72183922916668,61.0,86.0
841,195.452442875,195.74770127916668,65.0,87.0
842,195.96968387500002,196.34899394166666,53.0,77.0
843,196.22830437500002,196.56235585416667,58.0,90.0
844,196.486924875,196.616235125,61.0,93.0
845,196.745545375,196.9977003625,58.0,89.0
846,196.745545375,197.02571758333335,65.0,94.0
847,196.745545375,197.03433826666668,61.0,101.0
848,197.004165875,197.3058897916667,53.0,82.0
849,195.711063375,197.35330355000002,46.0,88.0
850,197.26278637500002,197.60761370833333,58.0,82.0
851,197.521406875,197.66149297916667,61.0,80.0
852,197.780027375,198.00416514166668,58.0,87.0
853,197.780027375,198.16580295416668,66.0,93.0
854,197.780027375,198.32097525416668,61.0,90.0
855,198.29726837500002,198.61838882916666,58.0,79.0
856,198.555888875,198.69597497916666,61.0,81.0
857,198.038647875,198.99338855416667,49.0,85.0
858,198.814509375,199.00631957916667,58.0,92.0
859,198.814509375,199.1571815375,66.0,93.0
860,199.073129875,199.48045716250002,49.0,76.0
861,197.780027375,199.52356057916668,42.0,92.0
862,199.331750375,199.60330190000002,61.0,92.0
863,199.59037087500002,199.7390776625,58.0,84.0
864,199.848991375,200.46537023333335,56.0,89.0
865,199.848991375,200.49338745416668,60.0,86.0
866,200.366232375,200.7584734666667,63.0,85.0
867,200.62485287500002,200.80804239583335,56.0,85.0
868,200.883473375,201.038645675,56.0,89.0
869,200.883473375,201.29942134583334,68.0,93.0
870,201.142093875,201.3295937375,56.0,92.0
871,200.107611875,201.51493842916668,51.0,75.0
872,199.848991375,201.56019701666668,44.0,92.0
873,201.400714375,201.71536931666668,63.0,88.0
874,201.659334875,201.75847273333335,56.0,76.0
875,201.91795537500002,202.08821387083333,58.0,87.0
876,201.91795537500002,202.2735585625,63.0,93.0
877,202.176575875,202.49769632916667,58.0,85.0
878,202.435196375,202.75416165833335,63.0,84.0
879,202.693816875,202.771403025,58.0,72.0
880,202.95243737500002,203.08821313750002,58.0,93.0
881,201.91795537500002,203.39424739583333,51.0,89.0
882,202.95243737500002,203.46105769166667,66.0,90.0
883,203.211057875,203.47398871666667,58.0,86.0
884,203.469678375,203.80804019583334,63.0,83.0
885,203.728298875,203.857609125,58.0,81.0
886,203.986919375,204.12916065000002,60.0,89.0
887,203.986919375,204.30588465833335,65.0,92.0
888,204.24553987500002,204.42441905416666,60.0,87.0
889,203.986919375,204.52140174166666,53.0,94.0
890,204.504160375,204.7757119,68.0,87.0
891,204.504160375,204.788642925,65.0,94.0
892,204.762780875,204.892091125,60.0,88.0
893,205.021401375,205.34898734166669,58.0,85.0
894,205.021401375,205.38993558750002,61.0,91.0
895,205.538642375,205.642090575,58.0,86.0
896,205.28002187500002,205.823124925,53.0,84.0
897,205.538642375,205.83390077916667,65.0,93.0
898,205.538642375,205.848986975,61.0,87.0
899,205.021401375,205.900711075,46.0,93.0
900,205.797262875,205.9071765875,58.0,82.0
901,206.055883375,206.30157285,61.0,87.0
902,206.055883375,206.40071070833335,66.0,86.0
903,206.314503875,206.54295198333335,61.0,90.0
904,206.57312437500002,206.88562414583333,66.0,86.0
905,206.831744875,206.99122751666667,61.0,83.0
906,207.090365375,207.219675625,61.0,86.0
907,207.348985875,207.64208910833335,61.0,92.0
908,207.090365375,207.65070979166669,70.0,92.0
909,206.055883375,207.82527862916666,42.0,92.0
910,207.60760637500002,207.96536473333333,66.0,88.0
911,207.866226875,208.01708883333333,61.0,89.0
912,208.124847375,208.36838167916667,63.0,88.0
913,208.124847375,208.42657129166668,68.0,85.0
914,208.64208837500001,208.98691570833333,63.0,88.0
915,208.90070887500002,209.01493292916666,68.0,83.0
916,209.159329375,209.31881201666667,63.0,92.0
917,209.159329375,209.43950158333334,72.0,93.0
918,209.417949875,209.6571738375,68.0,87.0
919,208.383467875,209.82096682083335,51.0,81.0
920,209.676570375,209.96536326666669,63.0,87.0
921,209.93519087500002,210.0558804416667,68.0,80.0
922,208.124847375,210.07096663750002,44.0,92.0
923,210.142087275,211.77570676666667,44.0,92.0
924,210.07096663750002,212.18734439583335,56.0,81.0
925,210.12269073750002,212.19165473750002,60.0,88.0
926,210.18519069166666,212.20243059166668,63.0,83.0
927,210.24338030416666,212.22398230000002,68.0,84.0
928,212.780016375,213.07958512083334,63.0,84.0
929,212.521395875,213.12053336666668,56.0,81.0
930,213.038636875,213.61191231666666,65.0,95.0
931,213.55587787500002,213.70027432083333,61.0,78.0
932,213.29725737500002,213.7757053,56.0,74.0
933,212.26277537500002,213.86406730416667,49.0,93.0
934,213.814498375,214.37053245,68.0,91.0
935,214.59035987500002,215.172256,53.0,78.0
936,214.848980375,215.18087668333334,56.0,82.0
937,215.107600875,215.63346255833335,61.0,91.0
938,215.62484187500002,215.9545830125,63.0,89.0
939,215.366221375,215.96320369583333,53.0,79.0
940,214.331739375,216.064496725,46.0,91.0
941,215.88346237500002,217.03001325833335,65.0,94.0
942,216.659323875,217.31449580833333,49.0,77.0
943,216.91794437500002,217.69596104583334,54.0,86.0
944,217.435185375,217.83173680833335,49.0,75.0
945,217.176564875,217.98906427916668,61.0,93.0
946,216.400703375,218.01061598750002,42.0,89.0
947,217.95242637500002,218.29078819583333,54.0,91.0
948,218.21104687500002,218.51061562083333,61.0,85.0
949,217.693805875,218.62268450416667,66.0,91.0
950,218.469667375,218.62699484583334,44.0,92.0
951,218.986908375,219.3080288291667,63.0,88.0
952,219.24552887500002,219.7950974375,68.0,91.0
953,219.504149375,219.80156295,63.0,80.0
954,218.728287875,219.88992495416667,56.0,71.0
955,219.762769875,220.10113169583335,75.0,93.0
956,220.021390375,220.48044176250002,68.0,76.0
957,220.797251875,221.37699282916668,58.0,77.0
958,221.055872375,221.44164795416668,63.0,82.0
959,221.314492875,221.857595925,66.0,93.0
960,221.57311337500002,222.14638881666667,58.0,75.0
961,221.831733875,222.15931984166667,63.0,76.0
962,220.53863137500002,222.36406107083334,51.0,92.0
963,222.348974875,222.60544020416668,63.0,83.0
964,222.090354375,222.62914708333335,70.0,92.0
965,222.866215875,223.11190535,60.0,83.0
966,222.60759537500002,223.124836375,53.0,94.0
967,223.124836375,223.47397405,65.0,97.0
968,223.383456875,223.74552557500002,68.0,87.0
969,223.90069787500002,224.34250789583334,53.0,81.0
970,223.642077375,224.417938875,46.0,92.0
971,224.159318375,224.521387075,58.0,93.0
972,224.417938875,224.6377663,61.0,85.0
973,225.193800375,225.85112747916668,61.0,92.0
974,225.452420875,225.8597481625,66.0,92.0
975,224.93517987500002,226.24767891250002,49.0,88.0
976,224.676559375,226.37052365,42.0,88.0
977,225.969661875,226.46319599583333,70.0,92.0
978,226.22828237500002,226.564489025,61.0,90.0
979,226.486902875,226.719661325,66.0,87.0
980,226.745523375,226.85759225833334,44.0,89.0
981,226.745523375,227.18302305416668,68.0,86.0
982,226.745523375,227.23690232500002,63.0,84.0
983,227.521384875,227.84897084166667,63.0,92.0
984,227.26276437500002,227.85974669583334,60.0,88.0
985,227.780005375,228.09466031666668,68.0,90.0
986,228.038625875,228.26922915416668,63.0,86.0
987,227.004143875,228.51060828750002,51.0,76.0
988,228.29724637500001,228.70672883333333,70.0,85.0
989,228.55586687500002,228.7433667375,63.0,84.0
990,228.814487375,230.79939971250002,56.0,86.0
991,228.814487375,230.85974449583335,68.0,85.0
992,230.69595151250002,230.85974449583335,68.0,82.0
993,228.814487375,230.87267552083335,63.0,88.0
994,230.61621019166668,230.91146859583336,73.0,85.0
995,230.82741693333335,230.93086513333336,37.0,88.0
996,230.73258941666668,231.02569265,65.0,81.0
997,230.85327898333335,231.271382125,61.0,85.0
998,231.64638185,231.9739678166667,61.0,72.0
999,231.92439888750002,232.2476745125,63.0,82.0
1000,232.24551934166666,233.08603596666669,65.0,81.0
1001,232.62482940833334,233.1830186541667,68.0,79.0
1002,233.08172562500002,233.3209495875,73.0,76.0
1003,233.89422502916668,235.72396506666666,77.0,74.0
1004,233.805863025,235.73474092083333,73.0,70.0
1005,231.452416475,235.874827025,56.0,75.0
1006,234.01060425416668,235.98258556666667,85.0,80.0
1007,231.12914085,236.1140509875,49.0,92.0
