,start,end,pitch,velocity
0,30.203541225000006,30.489255225000004,67.0,105.0
1,30.632112225000004,30.924969075000003,69.0,117.0
2,31.060683225000005,31.348182937500003,70.0,105.0
3,31.489254225000003,31.787468212500006,70.0,102.0
4,31.917825225000005,32.1981820875,70.0,112.0
5,32.34639622500001,32.676753037500006,74.0,102.0
6,32.774967225000005,33.32139525,69.0,108.0
7,33.63210922500001,33.953537475000005,67.0,105.0
8,34.060680225000006,34.333894237500004,65.0,111.0
9,34.489251225000004,34.771393800000006,67.0,105.0
10,34.917822225,35.1856791,67.0,111.0
11,35.34639322500001,35.62675008750001,67.0,114.0
12,35.774964225000005,36.085678200000004,70.0,109.0
13,36.203535225,36.84282030000001,65.0,108.0
14,37.060677225000006,37.333891237500005,67.0,108.0
15,37.489248225000004,37.79281935,69.0,111.0
16,37.917819225,38.21603321250001,70.0,102.0
17,38.34639022500001,38.6410327875,70.0,109.0
18,38.774961225000006,39.07853235,70.0,109.0
19,39.203532225000004,39.489246225,74.0,97.0
20,39.63210322500001,40.29281685000001,72.0,102.0
21,40.489245225000005,41.14103028750001,65.0,114.0
22,41.34638722500001,43.18031396250001,67.0,108.0
23,43.917813225,44.20352722500001,67.0,105.0
24,44.34638422500001,44.63924107500001,69.0,117.0
25,44.77495522500001,45.06245493750001,70.0,105.0
26,45.203526225000005,45.5017402125,70.0,102.0
27,45.632097225,45.91245408750001,70.0,112.0
28,46.06066822500001,46.39102503750001,74.0,102.0
29,46.489239225000006,47.03566725,69.0,108.0
30,47.34638122500001,47.667809475000006,67.0,105.0
31,47.77495222500001,48.048166237500006,65.0,111.0
32,48.203523225000005,48.48566580000001,67.0,105.0
33,48.632094225,48.89995110000001,67.0,111.0
34,49.06066522500001,49.34102208750001,67.0,114.0
35,49.489236225000006,49.799950200000005,70.0,109.0
36,49.917807225000004,50.55709230000001,65.0,108.0
37,50.77494922500001,51.048163237500006,67.0,108.0
38,51.203520225000005,51.50709135000001,69.0,111.0
39,51.632091225,51.93030521250001,70.0,102.0
40,52.06066222500001,52.35530478750001,70.0,109.0
41,52.48923322500001,52.792804350000004,70.0,109.0
42,52.917804225000005,53.20351822500001,74.0,97.0
43,53.34637522500001,54.00708885000001,72.0,102.0
44,53.98923172500001,54.446374125000006,69.0,111.0
45,54.632088225000004,55.057087800000005,69.0,111.0
46,55.06065922500001,56.88565740000001,67.0,105.0
47,57.632085225000004,57.887442112500004,62.0,111.0
48,58.06065622500001,58.31601311250001,65.0,114.0
49,58.48922722500001,58.742798400000005,67.0,100.0
50,58.917798225000006,59.216012212500004,67.0,105.0
51,59.34636922500001,59.63208322500001,67.0,100.0
52,59.77494022500001,60.064225650000004,70.0,105.0
53,60.20351122500001,60.85172486250001,69.0,114.0
54,61.06065322500001,61.32315296250001,69.0,114.0
55,61.48922422500001,61.72493827500001,67.0,111.0
56,61.917795225000006,62.63208022500001,65.0,114.0
57,62.77493722500001,63.046365525000006,62.0,105.0
58,63.20350822500001,63.494579362500005,60.0,102.0
59,63.632079225000005,64.2410071875,58.0,105.0
60,64.48922122500001,64.75350667500001,62.0,111.0
61,64.91779222500001,65.15886341250001,65.0,114.0
62,65.346363225,65.6267200875,67.0,100.0
63,65.77493422500001,66.0374339625,67.0,102.0
64,66.20350522500001,66.46600496250001,67.0,102.0
65,66.632076225,66.917790225,70.0,102.0
66,67.06064722500001,67.66957518750002,69.0,111.0
67,67.703503725,68.1838603875,67.0,102.0
68,68.34636022500001,68.68028846250002,65.0,102.0
69,68.774931225,70.98921472500001,62.0,100.0
70,71.346357225,71.6267140875,62.0,111.0
71,71.77492822500001,72.03385653750001,65.0,102.0
72,72.20349922500002,72.51064177500001,67.0,92.0
73,72.632070225,72.86064142500001,67.0,89.0
74,73.06064122500001,73.36421235,67.0,94.0
75,73.489212225,73.78028336250001,70.0,105.0
76,73.91778322500001,74.64099678750001,69.0,102.0
77,74.774925225,75.09278205000001,69.0,108.0
78,75.20349622500001,75.48921022500001,65.0,111.0
79,75.63206722500001,75.9302812125,74.0,100.0
80,76.060638225,76.33385223750001,74.0,105.0
81,76.48920922500001,76.79992320000001,72.0,92.0
82,76.91778022500002,77.18563710000001,74.0,100.0
83,77.346351225,77.88385068750001,70.0,96.0
84,78.20349322500002,78.43206442500001,67.0,108.0
85,78.63206422500001,78.91420680000002,69.0,114.0
86,79.06063522500001,79.31956353750002,70.0,99.0
87,79.489206225,79.77134880000001,70.0,102.0
88,79.91777722500001,80.2088483625,70.0,105.0
89,80.34634822500001,80.58384798750001,74.0,94.0
90,80.774919225,81.26956158750001,72.0,97.0
91,81.63206122500002,82.33920337500001,69.0,108.0
92,82.48920322500001,84.66955818750002,67.0,111.0
93,112.48917322500002,112.77488722500001,67.0,105.0
94,112.91774422500002,113.21060107500001,69.0,117.0
95,113.34631522500001,113.63381493750002,70.0,105.0
96,113.77488622500002,114.07310021250001,70.0,102.0
97,114.20345722500001,114.48381408750002,70.0,112.0
98,114.63202822500001,114.96238503750001,74.0,102.0
99,115.06059922500002,115.60702725000002,69.0,108.0
100,115.91774122500001,116.23916947500001,67.0,105.0
101,116.34631222500002,116.61952623750001,65.0,111.0
102,116.77488322500001,117.05702580000002,67.0,105.0
103,117.20345422500002,117.47131110000001,67.0,111.0
104,117.63202522500002,117.91238208750002,67.0,114.0
105,118.06059622500001,118.37131020000001,70.0,109.0
106,118.48916722500002,119.12845230000002,65.0,108.0
107,119.34630922500001,119.61952323750002,67.0,108.0
108,119.77488022500002,120.07845135000001,69.0,111.0
109,120.20345122500001,120.50166521250001,70.0,102.0
110,120.63202222500001,120.92666478750002,70.0,109.0
111,121.06059322500002,121.36416435000001,70.0,109.0
112,121.48916422500001,121.77487822500001,74.0,97.0
113,121.91773522500002,122.57844885000002,72.0,102.0
114,122.77487722500001,122.98559130000001,69.0,114.0
115,123.20344822500002,123.34273380000002,70.0,112.0
116,123.41773372500002,123.54451931250001,69.0,102.0
117,123.63201922500002,125.32487467500002,67.0,102.0
118,126.20344522500001,126.48915922500002,67.0,105.0
119,126.63201622500002,126.92487307500002,69.0,117.0
120,127.06058722500002,127.34808693750001,70.0,105.0
121,127.48915822500001,127.78737221250002,70.0,102.0
122,127.91772922500002,128.19808608750003,70.0,112.0
123,128.34630022500002,128.6766570375,74.0,102.0
124,128.77487122500003,129.32129925,69.0,108.0
125,129.632013225,129.953441475,67.0,105.0
126,130.060584225,130.33379823750002,65.0,111.0
127,130.48915522500002,130.7712978,67.0,105.0
128,130.91772622500002,131.18558310000003,67.0,111.0
129,131.34629722500003,131.62665408750001,67.0,114.0
130,131.774868225,132.0855822,70.0,109.0
131,132.203439225,132.84272430000001,65.0,108.0
132,133.06058122500002,133.33379523750003,67.0,108.0
133,133.48915222500003,133.79272335000002,69.0,111.0
134,133.91772322500003,134.21593721250002,70.0,102.0
135,134.346294225,134.6409367875,70.0,109.0
136,134.774865225,135.07843635,70.0,109.0
137,135.20343622500002,135.48915022500003,74.0,97.0
138,135.63200722500002,136.29272085000002,72.0,102.0
139,136.27486372500002,136.73200612500003,69.0,111.0
140,136.917720225,137.34271980000003,69.0,111.0
141,137.34629122500002,139.1712894,67.0,105.0
142,139.91771722500002,140.17307411250002,62.0,111.0
143,140.34628822500002,140.60164511250002,65.0,114.0
144,140.77485922500003,141.02843040000002,67.0,100.0
145,141.203430225,141.50164421250003,67.0,105.0
146,141.632001225,141.91771522500002,67.0,100.0
147,142.06057222500002,142.34985765000002,70.0,105.0
148,142.48914322500002,143.1373568625,69.0,114.0
149,143.34628522500003,143.6087849625,69.0,114.0
150,143.774856225,144.01057027500002,67.0,111.0
151,144.203427225,144.91771222500003,65.0,114.0
152,145.06056922500002,145.33199752500002,62.0,105.0
153,145.48914022500003,145.7802113625,60.0,102.0
154,145.917711225,146.52663918750002,58.0,105.0
155,146.77485322500002,147.03913867500003,62.0,111.0
156,147.20342422500002,147.44449541250003,65.0,114.0
157,147.63199522500003,147.9123520875,67.0,100.0
158,148.06056622500003,148.3230659625,67.0,102.0
159,148.489137225,148.75163696250002,67.0,102.0
160,148.917708225,149.20342222500003,70.0,102.0
161,149.34627922500002,149.9552071875,69.0,111.0
162,149.989135725,150.46949238750003,67.0,102.0
163,150.63199222500003,150.9659204625,65.0,102.0
164,151.060563225,153.27484672500003,62.0,100.0
165,153.631989225,153.91234608750003,62.0,111.0
166,154.06056022500002,154.3194885375,65.0,102.0
167,154.48913122500002,154.79627377500003,67.0,92.0
168,154.91770222500003,155.14627342500003,67.0,89.0
169,155.34627322500003,155.64984435000002,67.0,94.0
170,155.774844225,156.06591536250002,70.0,105.0
171,156.20341522500001,156.92662878750002,69.0,102.0
172,157.06055722500003,157.37841405000003,69.0,108.0
173,157.48912822500003,157.77484222500001,65.0,111.0
174,157.917699225,158.21591321250003,74.0,100.0
175,158.346270225,158.61948423750002,74.0,105.0
176,158.77484122500002,159.08555520000002,72.0,92.0
177,159.20341222500002,159.47126910000003,74.0,100.0
178,159.63198322500003,160.16948268750002,70.0,96.0
179,160.489125225,160.717696425,67.0,108.0
180,160.91769622500001,161.1998388,69.0,114.0
181,161.34626722500002,161.6051955375,70.0,99.0
182,161.77483822500002,162.05698080000002,70.0,102.0
183,162.20340922500003,162.4944803625,70.0,105.0
184,162.63198022500004,162.86947998750003,74.0,94.0
185,163.060551225,163.5551935875,72.0,97.0
186,163.91769322500002,164.62483537500003,69.0,108.0
187,164.77483522500003,166.95519018750002,67.0,111.0
188,194.77480522500002,195.03016211250002,62.0,111.0
189,195.20337622500003,195.45873311250003,65.0,114.0
190,195.63194722500003,195.88551840000002,67.0,100.0
191,196.06051822500004,196.35873221250003,67.0,105.0
192,196.48908922500001,196.77480322500003,67.0,100.0
193,196.91766022500002,197.20694565000002,70.0,105.0
194,197.34623122500003,197.99444486250002,69.0,114.0
195,198.20337322500004,198.46587296250001,69.0,114.0
196,198.631944225,198.86765827500003,67.0,111.0
197,199.06051522500002,199.77480022500004,65.0,114.0
198,199.91765722500003,200.18908552500002,62.0,105.0
199,200.34622822500003,200.63729936250002,60.0,102.0
200,200.77479922500004,201.38372718750003,58.0,105.0
201,201.63194122500002,201.89622667500004,62.0,111.0
202,202.06051222500002,202.30158341250004,65.0,114.0
203,202.48908322500003,202.76944008750002,67.0,100.0
204,202.91765422500004,203.18015396250001,67.0,102.0
205,203.34622522500004,203.60872496250002,67.0,102.0
206,203.77479622500002,204.06051022500003,70.0,102.0
207,204.20336722500002,204.8122951875,69.0,111.0
208,204.84622372500002,205.32658038750003,67.0,102.0
209,205.48908022500004,205.8230084625,65.0,102.0
210,205.91765122500001,208.13193472500004,62.0,100.0
211,208.48907722500002,208.76943408750003,62.0,111.0
212,208.91764822500002,209.17657653750004,65.0,102.0
213,209.34621922500003,209.65336177500004,67.0,92.0
214,209.77479022500003,210.00336142500004,67.0,89.0
215,210.20336122500004,210.50693235000003,67.0,94.0
216,210.631932225,210.92300336250003,70.0,105.0
217,211.06050322500002,211.78371678750003,69.0,102.0
218,211.91764522500003,212.23550205000004,69.0,108.0
219,212.34621622500003,212.63193022500002,65.0,111.0
220,212.77478722500004,213.07300121250003,74.0,100.0
221,213.20335822500002,213.47657223750002,74.0,105.0
222,213.63192922500002,213.94264320000002,72.0,92.0
223,214.06050022500003,214.32835710000003,74.0,100.0
224,214.48907122500003,215.02657068750003,70.0,96.0
225,215.34621322500004,215.57478442500002,67.0,108.0
226,215.77478422500002,216.05692680000004,69.0,114.0
227,216.20335522500002,216.46228353750004,70.0,99.0
228,216.63192622500003,216.91406880000002,70.0,102.0
229,217.06049722500003,217.35156836250002,70.0,105.0
230,217.48906822500004,217.72656798750003,74.0,94.0
231,217.91763922500002,218.41228158750002,72.0,97.0
232,218.77478122500003,219.48192337500004,69.0,108.0
233,219.63192322500004,221.81227818750003,67.0,111.0
234,222.20334922500004,222.45870611250004,62.0,111.0
235,222.63192022500002,222.88727711250002,65.0,114.0
236,223.06049122500002,223.31406240000004,67.0,100.0
237,223.48906222500003,223.78727621250002,67.0,105.0
238,223.91763322500003,224.20334722500002,67.0,100.0
239,224.34620422500004,224.63548965000004,70.0,105.0
240,224.77477522500004,225.42298886250003,69.0,114.0
241,225.63191722500002,225.89441696250003,69.0,114.0
242,226.06048822500003,226.29620227500004,67.0,111.0
243,226.48905922500003,227.20334422500002,65.0,114.0
244,227.34620122500002,227.61762952500004,62.0,105.0
245,227.77477222500002,228.06584336250003,60.0,102.0
246,228.20334322500003,228.81227118750002,58.0,105.0
247,229.06048522500004,229.32477067500002,62.0,111.0
248,229.48905622500004,229.73012741250002,65.0,114.0
249,229.91762722500002,230.19798408750003,67.0,100.0
250,230.34619822500002,230.60869796250003,67.0,102.0
251,230.77476922500003,231.03726896250004,67.0,102.0
252,231.20334022500003,231.48905422500002,70.0,102.0
253,231.63191122500004,232.24083918750003,69.0,111.0
254,232.27476772500003,232.75512438750002,67.0,102.0
255,232.91762422500003,233.25155246250003,65.0,102.0
256,233.34619522500003,235.56047872500002,62.0,100.0
257,235.91762122500003,236.19797808750002,62.0,111.0
258,236.34619222500004,236.60512053750003,65.0,102.0
259,236.77476322500004,237.08190577500002,67.0,92.0
260,237.20333422500002,237.43190542500002,67.0,89.0
261,237.63190522500003,237.93547635000004,67.0,94.0
262,238.06047622500003,238.35154736250004,70.0,105.0
263,238.48904722500004,239.21226078750004,69.0,102.0
264,239.34618922500002,239.66404605000002,69.0,108.0
265,239.77476022500002,240.06047422500004,65.0,111.0
266,240.20333122500003,240.50154521250002,74.0,100.0
267,240.63190222500003,240.90511623750004,74.0,105.0
268,241.06047322500004,241.37118720000004,72.0,92.0
269,241.48904422500004,241.75690110000002,74.0,100.0
270,241.91761522500002,242.45511468750004,70.0,96.0
271,242.77475722500003,243.00332842500003,67.0,108.0
272,243.20332822500004,243.48547080000003,69.0,114.0
273,243.63189922500004,243.89082753750003,70.0,99.0
274,244.06047022500005,244.34261280000004,70.0,102.0
275,244.48904122500002,244.78011236250003,70.0,105.0
276,244.91761222500003,245.15511198750002,74.0,94.0
277,245.34618322500003,245.84082558750003,72.0,97.0
278,246.20332522500004,246.91046737500002,69.0,108.0
279,247.06046722500002,249.24082218750004,67.0,111.0
280,250.06046422500003,250.19691366250004,67.0,94.0
281,250.27963416250003,250.40831049583335,69.0,108.0
282,250.50022216250002,250.79529988750002,70.0,102.0
283,250.946419225,251.26731460833335,70.0,109.0
284,251.43709065416667,251.73000097500002,70.0,109.0
285,251.87509268125,252.17316898333334,72.0,105.0
286,252.34432247291667,253.73662726458335,69.0,108.0
287,253.71355038958333,254.21739549375002,67.0,102.0
288,254.21354934791668,255.69623856666666,65.0,84.0
289,256.0000840875,260.5250746604167,67.0,100.0
