,start,end,pitch,velocity
0,3.6321392250000004,4.174995825000001,63.0,68.0
1,3.6321392250000004,4.4732098125,51.0,54.0
2,4.060710225,4.4910669375,58.0,63.0
3,3.6321392250000004,4.555352587500001,67.0,87.0
4,4.489281225000001,4.930352212500001,63.0,65.0
5,4.917852225000001,5.128566300000001,67.0,78.0
6,5.346423225000001,6.035708250000001,69.0,76.0
7,5.346423225000001,6.039279675,65.0,73.0
8,5.774994225,6.344636512500001,60.0,58.0
9,5.346423225000001,6.366065062500001,53.0,82.0
10,6.203565225000001,6.430350712500001,65.0,78.0
11,6.203565225000001,6.471422100000001,69.0,84.0
12,7.060707225000001,7.744635112500001,65.0,82.0
13,7.060707225000001,7.753563675000001,62.0,69.0
14,7.489278225000001,8.0124919875,57.0,73.0
15,7.060707225000001,8.096420475,50.0,94.0
16,7.917849225000001,8.246420325,65.0,92.0
17,8.346420225000001,8.46427725,50.0,92.0
18,7.917849225000001,8.46427725,62.0,89.0
19,8.774991225,9.430347712500001,62.0,78.0
20,9.632133225,9.7946330625,62.0,76.0
21,9.203562225,9.896418675000001,50.0,40.0
22,8.774991225,9.937490062500002,43.0,87.0
23,8.774991225,10.108918462500002,70.0,65.0
24,9.632133225,10.182132675000002,67.0,92.0
25,10.060704225000002,10.253561175000002,62.0,100.0
26,10.489275225000002,11.124988875000001,67.0,94.0
27,10.489275225000002,11.162488837500002,70.0,52.0
28,10.489275225000002,11.448202837500002,51.0,93.0
29,11.346417225000001,11.596416975000002,63.0,87.0
30,11.346417225000001,11.5999884,67.0,92.0
31,11.346417225000001,11.649988350000001,70.0,72.0
32,10.917846225000002,11.703559725000002,58.0,46.0
33,11.774988225000001,11.866059562500002,51.0,87.0
34,12.203559225000001,12.392844750000002,41.0,89.0
35,12.203559225000001,12.851772862500003,65.0,78.0
36,12.203559225000001,12.980344162500002,69.0,87.0
37,13.060701225000003,13.469629387500001,69.0,92.0
38,13.060701225000003,13.492843650000001,65.0,82.0
39,13.060701225000003,13.501772212500002,57.0,76.0
40,12.632130225000001,13.567843575000001,53.0,92.0
41,13.917843225000002,14.782128075000003,70.0,54.0
42,14.346414225000002,14.866056562500003,53.0,82.0
43,13.917843225000002,15.282127575000002,46.0,90.0
44,14.774985225000002,15.285699000000003,58.0,87.0
45,15.203556225000002,15.578555850000003,53.0,58.0
46,15.632127225000001,15.849984150000003,57.0,82.0
47,15.632127225000001,16.346412225,60.0,89.0
48,16.060698225000003,16.360697925000004,57.0,64.0
49,15.632127225000001,16.3767693375,66.0,74.0
50,16.489269225,16.699983300000003,57.0,97.0
51,15.632127225000001,16.753554675000004,50.0,78.0
52,16.489269225,16.962483037500004,60.0,102.0
53,16.917840225000003,17.110697175000002,57.0,97.0
54,16.489269225,17.114268600000003,66.0,93.0
55,17.346411225,17.637482362500002,63.0,72.0
56,17.346411225,17.649982350000002,67.0,84.0
57,17.346411225,18.228553200000004,51.0,90.0
58,17.774982225000002,18.33569595,58.0,72.0
59,18.203553225000004,18.435695850000002,67.0,89.0
60,18.203553225000004,18.4660529625,63.0,85.0
61,18.203553225000004,18.485695800000002,70.0,65.0
62,18.632124225000002,18.757124100000002,51.0,65.0
63,19.060695225000003,19.703551725000004,60.0,84.0
64,19.060695225000003,19.705337437500003,65.0,94.0
65,19.917837225000003,20.1160513125,60.0,97.0
66,19.060695225000003,20.160694125000003,53.0,94.0
67,19.489266225,20.224979775,57.0,66.0
68,20.346408225,20.598193687500004,60.0,76.0
69,19.917837225000003,20.628550800000003,65.0,102.0
70,19.917837225000003,20.664265050000004,69.0,102.0
71,20.774979225000003,21.276764437500002,65.0,92.0
72,20.774979225000003,21.342835800000003,62.0,84.0
73,20.774979225000003,21.74997825,50.0,100.0
74,21.203550225000004,21.917835225000005,57.0,80.0
75,21.632121225000002,21.957120900000003,65.0,100.0
76,21.632121225000002,21.9803351625,69.0,97.0
77,21.632121225000002,22.007120850000003,62.0,84.0
78,22.060692225000004,22.1803349625,50.0,84.0
79,22.489263225000002,22.946405625000004,62.0,84.0
80,22.489263225000002,23.328548100000003,70.0,68.0
81,23.346405225,23.573190712500004,62.0,97.0
82,22.489263225000002,23.658904912500002,43.0,92.0
83,22.917834225000004,23.673190612500004,50.0,50.0
84,23.346405225,23.808904762500003,70.0,19.0
85,23.346405225,23.869618987500004,67.0,102.0
86,23.774976225000003,24.037475962500004,62.0,102.0
87,24.203547225000005,24.755332387500005,67.0,92.0
88,24.203547225000005,24.755332387500005,70.0,72.0
89,24.203547225000005,25.174974825000003,51.0,96.0
90,25.060689225000004,25.289260425000002,67.0,92.0
91,25.060689225000004,25.323188962500005,63.0,90.0
92,25.060689225000004,25.376760337500002,70.0,85.0
93,24.632118225000003,25.421403150000003,58.0,52.0
94,25.489260225000002,25.605331537500003,51.0,79.0
95,25.917831225000004,26.062473937500002,60.0,84.0
96,25.917831225000004,26.482116375000004,65.0,97.0
97,25.917831225000004,26.485687800000004,69.0,94.0
98,26.346402225000002,26.683901887500003,60.0,80.0
99,26.774973225000004,26.974973025000004,60.0,94.0
100,25.917831225000004,27.078544350000005,53.0,94.0
101,26.774973225000004,27.289258425000003,65.0,105.0
102,27.203544225000005,27.339258375000004,60.0,102.0
103,26.774973225000004,27.417829725000004,69.0,100.0
104,27.632115225000003,28.287471712500004,62.0,80.0
105,27.632115225000003,28.289257425000002,67.0,87.0
106,28.060686225000005,28.621399950000004,50.0,58.0
107,28.489257225000003,28.703542725000005,62.0,78.0
108,28.489257225000003,28.933899637500005,67.0,100.0
109,28.489257225000003,29.114256600000004,70.0,85.0
110,27.632115225000003,29.121399450000006,43.0,100.0
111,28.917828225000004,29.317827825000006,50.0,67.0
112,29.346399225000003,29.989255725000003,62.0,64.0
113,29.346399225000003,29.994612862500006,67.0,76.0
114,29.346399225000003,30.916040512500004,43.0,76.0
115,30.203541225000006,30.948183337500005,62.0,62.0
116,29.774970225000004,30.949969050000004,50.0,38.0
117,30.203541225000006,30.966040462500004,67.0,73.0
118,31.060683225000005,31.708896862500005,58.0,79.0
119,31.060683225000005,31.942825200000005,55.0,76.0
120,31.489254225000003,32.008896562500006,50.0,50.0
121,31.060683225000005,32.12853930000001,43.0,89.0
122,31.917825225000005,32.3481819375,58.0,93.0
123,31.917825225000005,32.41603901250001,62.0,94.0
124,32.34639622500001,32.5428246,55.0,58.0
125,32.774967225000005,33.285681000000004,57.0,84.0
126,32.774967225000005,33.66246633750001,53.0,76.0
127,33.203538225,33.7017520125,48.0,44.0
128,32.774967225000005,33.723180562500005,41.0,89.0
129,33.63210922500001,34.085680200000006,57.0,105.0
130,33.63210922500001,34.1571087,60.0,94.0
131,34.060680225000006,34.278537150000005,53.0,71.0
132,34.489251225000004,34.90353652500001,67.0,80.0
133,34.489251225000004,34.91603651250001,63.0,55.0
134,34.917822225,35.4410359875,58.0,63.0
135,34.489251225000004,35.519607337500005,51.0,90.0
136,35.34639322500001,35.9231783625,63.0,87.0
137,35.34639322500001,35.985678300000004,70.0,79.0
138,36.63210622500001,37.00710585,58.0,70.0
139,37.060677225000006,37.124962875,58.0,35.0
140,36.63210622500001,37.246391325000005,53.0,50.0
141,37.060677225000006,37.4999625,62.0,105.0
142,36.203535225,37.50710535,46.0,72.0
143,37.489248225000004,37.601748112500005,58.0,90.0
144,37.060677225000006,38.062461937500004,65.0,105.0
145,37.917819225,38.503532925,58.0,70.0
146,37.917819225,38.77853265,55.0,80.0
147,38.34639022500001,38.98210387500001,50.0,78.0
148,37.917819225,38.987461012500006,43.0,78.0
149,38.774961225000006,39.246389325,58.0,102.0
150,39.203532225000004,39.396389175,55.0,89.0
151,38.774961225000006,39.396389175,62.0,97.0
152,39.63210322500001,39.846388725000004,55.0,49.0
153,39.63210322500001,39.84996015000001,53.0,51.0
154,39.63210322500001,40.408888162500006,57.0,76.0
155,40.06067422500001,40.619602237500004,48.0,52.0
156,39.63210322500001,40.8428163,41.0,89.0
157,40.489245225000005,40.97853045000001,57.0,94.0
158,40.917816225,41.0981731875,53.0,100.0
159,40.489245225000005,41.344601512500006,60.0,94.0
160,41.34638722500001,41.937458062500006,58.0,48.0
161,41.34638722500001,42.02495797500001,55.0,58.0
162,41.774958225000006,42.40531473750001,50.0,62.0
163,42.203529225000004,42.483886087500004,57.0,97.0
164,41.34638722500001,42.95531418750001,43.0,92.0
165,42.632100225,43.028528400000006,50.0,58.0
166,43.06067122500001,43.40352802500001,62.0,87.0
167,43.06067122500001,43.58388498750001,58.0,63.0
168,43.06067122500001,43.7053134375,55.0,71.0
169,43.489242225000005,44.03924167500001,50.0,45.0
170,43.06067122500001,44.107098750000006,43.0,84.0
171,43.917813225,44.4910269375,58.0,82.0
172,43.917813225,44.503526925,62.0,89.0
173,43.917813225,44.5660268625,67.0,89.0
174,44.34638422500001,44.746383825,55.0,84.0
175,44.77495522500001,45.423168862500006,58.0,79.0
176,44.77495522500001,45.6570972,55.0,76.0
177,45.203526225000005,45.72316856250001,50.0,50.0
178,44.77495522500001,45.84281130000001,43.0,89.0
179,45.632097225,46.0624539375,58.0,93.0
180,45.632097225,46.13031101250001,62.0,94.0
181,46.06066822500001,46.257096600000004,55.0,58.0
182,46.489239225000006,46.999953000000005,57.0,84.0
183,46.489239225000006,47.37673833750001,53.0,76.0
184,46.917810225000004,47.4160240125,48.0,44.0
185,46.489239225000006,47.437452562500006,41.0,89.0
186,47.34638122500001,47.79995220000001,57.0,105.0
187,47.34638122500001,47.8713807,60.0,94.0
188,47.77495222500001,47.99280915000001,53.0,71.0
189,48.203523225000005,48.61780852500001,67.0,80.0
190,48.203523225000005,48.63030851250001,63.0,55.0
191,48.632094225,49.15530798750001,58.0,63.0
192,48.203523225000005,49.23387933750001,51.0,90.0
193,49.06066522500001,49.637450362500005,63.0,87.0
194,49.06066522500001,49.699950300000005,70.0,79.0
195,50.34637822500001,50.72137785,58.0,70.0
196,50.77494922500001,50.83923487500001,58.0,35.0
197,50.34637822500001,50.960663325000006,53.0,50.0
198,50.77494922500001,51.2142345,62.0,105.0
199,49.917807225000004,51.221377350000004,46.0,72.0
200,51.203520225000005,51.316020112500006,58.0,90.0
201,50.77494922500001,51.776733937500005,65.0,105.0
202,51.632091225,52.21780492500001,58.0,70.0
203,51.632091225,52.492804650000004,55.0,80.0
204,52.06066222500001,52.69637587500001,50.0,78.0
205,51.632091225,52.70173301250001,43.0,78.0
206,52.48923322500001,52.960661325000004,58.0,102.0
207,52.917804225000005,53.110661175000004,55.0,89.0
208,52.48923322500001,53.110661175000004,62.0,97.0
209,53.34637522500001,53.560660725000005,55.0,49.0
210,53.34637522500001,53.56423215000001,53.0,51.0
211,53.34637522500001,54.12316016250001,57.0,76.0
212,53.77494622500001,54.333874237500005,48.0,52.0
213,53.34637522500001,54.557088300000004,41.0,89.0
214,54.203517225000006,54.69280245000001,57.0,94.0
215,54.632088225000004,54.81244518750001,53.0,100.0
216,54.203517225000006,55.05887351250001,60.0,94.0
217,55.06065922500001,55.65173006250001,58.0,48.0
218,55.06065922500001,55.73922997500001,55.0,58.0
219,55.48923022500001,56.11958673750001,50.0,62.0
220,55.917801225000005,56.198158087500005,57.0,97.0
221,55.06065922500001,56.66958618750001,43.0,92.0
222,56.34637222500001,56.74280040000001,50.0,58.0
223,56.77494322500001,57.11780002500001,62.0,87.0
224,56.77494322500001,57.29815698750001,58.0,63.0
225,56.77494322500001,57.41958543750001,55.0,71.0
226,57.203514225000006,57.75351367500001,50.0,45.0
227,56.77494322500001,57.82137075000001,43.0,84.0
228,57.632085225000004,58.20529893750001,58.0,82.0
229,57.632085225000004,58.21779892500001,62.0,89.0
230,57.632085225000004,58.28029886250001,67.0,89.0
231,58.06065622500001,58.46065582500001,55.0,84.0
232,58.48922722500001,58.97136960000001,63.0,77.0
233,58.48922722500001,59.18208367500001,67.0,84.0
234,58.917798225000006,59.39279775000001,58.0,79.0
235,59.13208372500001,59.403512025000005,63.0,90.0
236,58.48922722500001,59.60708325000001,51.0,105.0
237,59.560654725000006,59.783868787500005,58.0,90.0
238,59.34636922500001,59.81422590000001,70.0,102.0
239,59.77494022500001,59.94279720000001,63.0,99.0
240,60.20351122500001,60.869581987500005,69.0,94.0
241,60.20351122500001,60.90172481250001,65.0,80.0
242,60.632082225000005,61.157081700000006,60.0,92.0
243,61.06065322500001,61.46600996250001,65.0,102.0
244,60.20351122500001,61.537438462500006,53.0,102.0
245,61.48922422500001,61.61958123750001,60.0,100.0
246,61.06065322500001,61.82672388750001,69.0,108.0
247,61.917795225000006,62.44279470000001,62.0,64.0
248,61.917795225000006,62.60529453750001,65.0,94.0
249,62.56065172500001,62.678508750000006,62.0,67.0
250,62.34636622500001,62.841008587500006,57.0,78.0
251,62.77493722500001,63.04815123750001,62.0,100.0
252,62.77493722500001,63.10350832500001,65.0,108.0
253,61.917795225000006,63.10707975000001,50.0,97.0
254,62.989222725000005,63.133865437500006,57.0,94.0
255,62.77493722500001,63.15529398750001,69.0,102.0
256,63.20350822500001,63.56065072500001,62.0,94.0
257,63.632079225000005,64.15707870000001,67.0,100.0
258,63.632079225000005,64.19279295000001,62.0,82.0
259,63.632079225000005,64.2160072125,70.0,85.0
260,64.060650225,64.6017211125,50.0,50.0
261,63.632079225000005,64.6660067625,43.0,92.0
262,64.48922122500001,64.80886376250001,62.0,102.0
263,64.48922122500001,64.92493507500001,67.0,111.0
264,64.91779222500001,65.01243498750001,43.0,97.0
265,64.48922122500001,65.01243498750001,70.0,105.0
266,65.346363225,65.9427912,67.0,108.0
267,65.346363225,65.99100543750001,63.0,87.0
268,65.77493422500001,66.3517193625,58.0,77.0
269,65.346363225,66.49457636250001,51.0,93.0
270,66.20350522500001,66.617790525,67.0,102.0
271,66.20350522500001,66.66064762500001,63.0,96.0
272,66.20350522500001,66.68029046250001,70.0,96.0
273,66.632076225,66.80171891250001,58.0,96.0
274,67.06064722500001,67.30171841250001,60.0,78.0
275,67.06064722500001,67.5981466875,65.0,92.0
276,67.489218225,67.77136080000001,60.0,84.0
277,67.917789225,68.1445747125,60.0,108.0
278,67.06064722500001,68.26243173750001,53.0,105.0
279,67.917789225,68.339217375,65.0,111.0
280,67.917789225,68.45171726250001,69.0,100.0
281,68.34636022500001,68.47136010000001,60.0,97.0
282,68.774931225,69.3445735125,62.0,102.0
283,69.20350222500001,69.71778742500001,53.0,80.0
284,68.774931225,69.89278725000001,58.0,74.0
285,68.774931225,70.05707280000001,46.0,105.0
286,69.63207322500001,70.08207277500001,62.0,100.0
287,69.63207322500001,70.0999299,65.0,102.0
288,69.84635872500002,70.410643875,53.0,82.0
289,70.274929725,70.410643875,62.0,87.0
290,70.060644225,70.41778672500001,58.0,93.0
291,70.48921522500001,71.12850030000001,62.0,105.0
292,70.48921522500001,71.22135735,58.0,82.0
293,70.48921522500001,71.54992845000001,46.0,105.0
294,70.91778622500001,71.61064267500001,53.0,67.0
295,71.346357225,71.61957123750001,62.0,102.0
296,71.346357225,71.63564265000001,58.0,85.0
297,71.346357225,71.71064257500001,65.0,105.0
298,71.77492822500001,71.8624281375,46.0,109.0
299,72.20349922500002,72.52492747500001,63.0,87.0
300,72.20349922500002,72.5427846,67.0,89.0
301,72.632070225,73.153498275,58.0,57.0
302,72.20349922500002,73.29099813750001,51.0,105.0
303,73.06064122500001,73.3588552125,63.0,99.0
304,73.06064122500001,73.43564085000001,67.0,111.0
305,73.27492672500001,73.48564080000001,58.0,87.0
306,73.489212225,73.703497725,63.0,102.0
307,73.06064122500001,73.79635477500001,70.0,96.0
308,73.91778322500001,74.4695683875,69.0,102.0
309,73.91778322500001,74.5088540625,65.0,73.0
310,74.34635422500001,74.89278225000001,60.0,84.0
311,73.91778322500001,74.97671073750001,53.0,97.0
312,74.989210725,75.1552819875,60.0,84.0
313,74.774925225,75.210639075,65.0,105.0
314,75.20349622500001,75.374924625,53.0,84.0
315,74.774925225,75.58742441250001,69.0,105.0
316,75.63206722500001,76.27670943750002,65.0,92.0
317,75.63206722500001,76.33742366250002,62.0,80.0
318,76.060638225,76.58028056250001,57.0,78.0
319,75.63206722500001,76.76778037500002,50.0,94.0
320,76.48920922500001,76.81956603750001,62.0,94.0
321,76.48920922500001,76.8713517,65.0,111.0
322,76.48920922500001,76.89456596250001,69.0,105.0
323,76.70349472500001,76.91242308750002,57.0,84.0
324,76.91778022500002,77.06242293750002,50.0,84.0
325,77.132065725,77.29277985000002,62.0,92.0
326,77.346351225,77.56956528750001,62.0,87.0
327,77.346351225,77.90706495,70.0,72.0
328,77.77492222500001,78.09992190000001,62.0,97.0
329,77.98920772500001,78.10706475,67.0,100.0
330,77.56063672500001,78.26599316250001,50.0,52.0
331,77.346351225,78.69099273750001,43.0,97.0
332,78.20349322500002,78.70170701250001,67.0,100.0
333,78.20349322500002,78.80706405000001,70.0,109.0
334,78.63206422500001,78.89099253750001,50.0,94.0
335,78.20349322500002,78.98563530000001,62.0,102.0
336,79.06063522500001,79.34634922500001,63.0,85.0
337,79.06063522500001,79.35170636250001,67.0,92.0
338,79.489206225,79.97313431250001,58.0,77.0
339,79.06063522500001,80.0588485125,51.0,96.0
340,79.91777722500001,80.1945626625,63.0,96.0
341,79.91777722500001,80.25170546250001,67.0,105.0
342,80.13206272500001,80.30349112500001,58.0,99.0
343,80.34634822500001,80.52670518750001,63.0,96.0
344,79.91777722500001,80.67670503750001,70.0,96.0
345,80.774919225,81.41777572500001,65.0,87.0
346,80.774919225,81.42670428750002,69.0,100.0
347,80.774919225,81.76956108750001,53.0,100.0
348,81.20349022500001,81.87491812500001,60.0,84.0
349,81.63206122500002,81.94277520000001,65.0,100.0
350,81.63206122500002,81.996346575,69.0,105.0
351,82.060632225,82.15170356250002,53.0,73.0
352,82.48920322500001,83.09455976250001,67.0,92.0
353,82.48920322500001,83.10348832500001,62.0,92.0
354,82.91777422500002,83.4124165875,50.0,53.0
355,83.34634522500001,83.91598751250001,67.0,111.0
356,83.34634522500001,83.92848750000002,70.0,102.0
357,83.34634522500001,84.05170166250001,62.0,97.0
358,82.48920322500001,84.067773075,43.0,92.0
359,83.77491622500001,84.14455871250001,50.0,69.0
360,84.20348722500002,84.74991525000002,62.0,71.0
361,84.20348722500002,84.77134380000001,67.0,80.0
362,84.63205822500001,85.17491482500002,50.0,44.0
363,85.06062922500001,85.85169986250001,62.0,87.0
364,85.06062922500001,85.87848555000001,67.0,100.0
365,84.20348722500002,85.89277125000001,43.0,89.0
366,85.06062922500001,85.89812838750001,70.0,82.0
367,85.489200225,85.90705695000001,50.0,67.0
368,85.91777122500001,86.3999136,63.0,77.0
369,85.91777122500001,86.61062767500002,67.0,84.0
370,86.34634222500001,86.82134175000002,58.0,79.0
371,86.56062772500002,86.83205602500001,63.0,90.0
372,85.91777122500001,87.03562725,51.0,105.0
373,86.98919872500001,87.21241278750001,58.0,90.0
374,86.774913225,87.24276990000001,70.0,102.0
375,87.20348422500001,87.37134120000002,63.0,99.0
376,87.63205522500002,88.29812598750001,69.0,94.0
377,87.63205522500002,88.33026881250001,65.0,80.0
378,88.06062622500001,88.58562570000001,60.0,92.0
379,88.48919722500001,88.89455396250001,65.0,102.0
380,87.63205522500002,88.96598246250001,53.0,102.0
381,88.91776822500002,89.04812523750002,60.0,100.0
382,88.48919722500001,89.25526788750001,69.0,108.0
383,89.34633922500001,89.87133870000001,62.0,64.0
384,89.34633922500001,90.03383853750002,65.0,94.0
385,89.98919572500002,90.10705275000001,62.0,67.0
386,89.77491022500001,90.26955258750002,57.0,78.0
387,90.20348122500002,90.47669523750001,62.0,100.0
388,90.20348122500002,90.53205232500001,65.0,108.0
389,89.34633922500001,90.53562375000001,50.0,97.0
390,90.417766725,90.56240943750001,57.0,94.0
391,90.20348122500002,90.58383798750002,69.0,102.0
392,90.63205222500001,90.98919472500002,62.0,94.0
393,91.06062322500001,91.58562270000002,67.0,100.0
394,91.06062322500001,91.62133695000001,62.0,82.0
395,91.06062322500001,91.6445512125,70.0,85.0
396,91.489194225,92.03026511250002,50.0,50.0
397,91.06062322500001,92.0945507625,43.0,92.0
398,91.91776522500001,92.23740776250001,62.0,102.0
399,91.91776522500001,92.35347907500001,67.0,111.0
400,92.34633622500002,92.44097898750002,43.0,97.0
401,91.91776522500001,92.44097898750002,70.0,105.0
402,92.774907225,93.37133520000002,67.0,108.0
403,92.774907225,93.41954943750001,63.0,87.0
404,93.20347822500001,93.78026336250001,58.0,77.0
405,92.774907225,93.92312036250001,51.0,93.0
406,93.63204922500002,94.046334525,67.0,102.0
407,93.63204922500002,94.08919162500001,63.0,96.0
408,93.63204922500002,94.10883446250001,70.0,96.0
409,94.06062022500001,94.23026291250001,58.0,96.0
410,94.48919122500001,94.73026241250001,60.0,78.0
411,94.48919122500001,95.02669068750001,65.0,92.0
412,94.91776222500002,95.19990480000001,60.0,84.0
413,95.34633322500001,95.57311871250002,60.0,108.0
414,94.48919122500001,95.69097573750001,53.0,105.0
415,95.34633322500001,95.767761375,65.0,111.0
416,95.34633322500001,95.88026126250001,69.0,100.0
417,95.77490422500001,95.89990410000001,60.0,97.0
418,96.20347522500002,96.77311751250001,62.0,102.0
419,96.63204622500001,97.14633142500001,53.0,80.0
420,96.20347522500002,97.32133125000001,58.0,74.0
421,96.20347522500002,97.48561680000002,46.0,105.0
422,97.06061722500002,97.51061677500002,62.0,100.0
423,97.06061722500002,97.52847390000001,65.0,102.0
424,97.27490272500002,97.83918787500001,53.0,82.0
425,97.70347372500001,97.83918787500001,62.0,87.0
426,97.489188225,97.84633072500002,58.0,93.0
427,97.91775922500001,98.55704430000002,62.0,105.0
428,97.91775922500001,98.64990135000001,58.0,82.0
429,97.91775922500001,98.97847245000001,46.0,105.0
430,98.34633022500002,99.03918667500001,53.0,67.0
431,98.77490122500001,99.04811523750001,62.0,102.0
432,98.77490122500001,99.06418665000001,58.0,85.0
433,98.77490122500001,99.13918657500001,65.0,105.0
434,99.20347222500001,99.2909721375,46.0,109.0
435,99.63204322500002,99.95347147500001,63.0,87.0
436,99.63204322500002,99.9713286,67.0,89.0
437,100.06061422500001,100.582042275,58.0,57.0
438,99.63204322500002,100.71954213750001,51.0,105.0
439,100.48918522500001,100.78739921250002,63.0,99.0
440,100.48918522500001,100.86418485000002,67.0,111.0
441,100.70347072500002,100.91418480000002,58.0,87.0
442,100.91775622500002,101.13204172500001,63.0,102.0
443,100.48918522500001,101.22489877500001,70.0,96.0
444,101.34632722500001,101.8981123875,69.0,102.0
445,101.34632722500001,101.93739806250001,65.0,73.0
446,101.77489822500002,102.32132625000001,60.0,84.0
447,101.34632722500001,102.40525473750002,53.0,97.0
448,102.41775472500001,102.58382598750002,60.0,84.0
449,102.203469225,102.63918307500002,65.0,105.0
450,102.63204022500001,102.80346862500001,53.0,84.0
451,102.203469225,103.01596841250002,69.0,105.0
452,103.06061122500002,103.70525343750002,65.0,92.0
453,103.06061122500002,103.76596766250002,62.0,80.0
454,103.48918222500001,104.00882456250001,57.0,78.0
455,103.06061122500002,104.19632437500002,50.0,94.0
456,103.91775322500001,104.24811003750001,62.0,94.0
457,103.91775322500001,104.29989570000001,65.0,111.0
458,103.91775322500001,104.32310996250001,69.0,105.0
459,104.13203872500002,104.34096708750002,57.0,84.0
460,104.34632422500002,104.49096693750002,50.0,84.0
461,104.56060972500002,104.72132385000002,62.0,92.0
462,104.77489522500001,104.99810928750001,62.0,87.0
463,104.77489522500001,105.33560895000001,70.0,72.0
464,105.20346622500001,105.52846590000001,62.0,97.0
465,105.41775172500002,105.53560875000001,67.0,100.0
466,104.98918072500001,105.69453716250001,50.0,52.0
467,104.77489522500001,106.11953673750001,43.0,97.0
468,105.63203722500002,106.13025101250001,67.0,100.0
469,105.63203722500002,106.23560805000001,70.0,109.0
470,106.06060822500001,106.31953653750001,50.0,94.0
471,105.63203722500002,106.41417930000001,62.0,102.0
472,106.48917922500002,106.77489322500001,63.0,85.0
473,106.48917922500002,106.78025036250001,67.0,92.0
474,106.91775022500002,107.40167831250001,58.0,77.0
475,106.48917922500002,107.48739251250001,51.0,96.0
476,107.34632122500001,107.62310666250002,63.0,96.0
477,107.34632122500001,107.68024946250002,67.0,105.0
478,107.56060672500001,107.73203512500001,58.0,99.0
479,107.77489222500002,107.95524918750002,63.0,96.0
480,107.34632122500001,108.10524903750002,70.0,96.0
481,108.20346322500001,108.84631972500001,65.0,87.0
482,108.20346322500001,108.85524828750002,69.0,100.0
483,108.20346322500001,109.19810508750001,53.0,100.0
484,108.63203422500001,109.30346212500001,60.0,84.0
485,109.06060522500002,109.37131920000002,65.0,100.0
486,109.06060522500002,109.42489057500002,69.0,105.0
487,109.48917622500001,109.58024756250002,53.0,73.0
488,109.91774722500001,110.52310376250001,67.0,92.0
489,109.91774722500001,110.53203232500002,62.0,92.0
490,110.34631822500002,110.84096058750002,50.0,53.0
491,110.77488922500001,111.34453151250001,67.0,111.0
492,110.77488922500001,111.35703150000002,70.0,102.0
493,110.77488922500001,111.48024566250001,62.0,97.0
494,109.91774722500001,111.49631707500002,43.0,92.0
495,111.20346022500001,111.57310271250002,50.0,69.0
496,111.63203122500002,112.17845925000002,62.0,71.0
497,111.63203122500002,112.19988780000001,67.0,80.0
498,112.06060222500001,112.60345882500002,50.0,44.0
499,112.48917322500002,113.28024386250001,62.0,87.0
500,112.48917322500002,113.30702955000001,67.0,100.0
501,111.63203122500002,113.32131525000001,43.0,89.0
502,112.48917322500002,113.32667238750001,70.0,82.0
503,112.91774422500002,113.33560095000001,50.0,67.0
504,113.34631522500001,113.99452886250002,58.0,79.0
505,113.34631522500001,114.22845720000001,55.0,76.0
506,113.77488622500002,114.29452856250002,50.0,50.0
507,113.34631522500001,114.41417130000002,43.0,89.0
508,114.20345722500001,114.63381393750001,58.0,93.0
509,114.20345722500001,114.70167101250001,62.0,94.0
510,114.63202822500001,114.82845660000001,55.0,58.0
511,115.06059922500002,115.57131300000002,57.0,84.0
512,115.06059922500002,115.94809833750001,53.0,76.0
513,115.48917022500001,115.98738401250002,48.0,44.0
514,115.06059922500002,116.00881256250001,41.0,89.0
515,115.91774122500001,116.37131220000002,57.0,105.0
516,115.91774122500001,116.44274070000002,60.0,94.0
517,116.34631222500002,116.56416915000001,53.0,71.0
518,116.77488322500001,117.18916852500001,67.0,80.0
519,116.77488322500001,117.20166851250002,63.0,55.0
520,117.20345422500002,117.72666798750002,58.0,63.0
521,116.77488322500001,117.80523933750001,51.0,90.0
522,117.63202522500002,118.20881036250002,63.0,87.0
523,117.63202522500002,118.27131030000001,70.0,79.0
524,118.91773822500002,119.29273785000001,58.0,70.0
525,119.34630922500001,119.41059487500002,58.0,35.0
526,118.91773822500002,119.53202332500001,53.0,50.0
527,119.34630922500001,119.78559450000002,62.0,105.0
528,118.48916722500002,119.79273735000001,46.0,72.0
529,119.77488022500002,119.88738011250001,58.0,90.0
530,119.34630922500001,120.34809393750001,65.0,105.0
531,120.20345122500001,120.78916492500002,58.0,70.0
532,120.20345122500001,121.06416465000001,55.0,80.0
533,120.63202222500001,121.26773587500001,50.0,78.0
534,120.20345122500001,121.27309301250001,43.0,78.0
535,121.06059322500002,121.53202132500002,58.0,102.0
536,121.48916422500001,121.68202117500002,55.0,89.0
537,121.06059322500002,121.68202117500002,62.0,97.0
538,121.91773522500002,122.13202072500002,55.0,49.0
539,121.91773522500002,122.13559215000002,53.0,51.0
540,121.91773522500002,122.69452016250001,57.0,76.0
541,122.34630622500002,122.90523423750001,48.0,52.0
542,121.91773522500002,123.12844830000002,41.0,89.0
543,122.77487722500001,123.26416245000001,57.0,94.0
544,123.20344822500002,123.38380518750002,53.0,100.0
545,122.77487722500001,123.63023351250001,60.0,94.0
546,123.63201922500002,124.22309006250002,58.0,48.0
547,123.63201922500002,124.31058997500001,55.0,58.0
548,124.06059022500001,124.69094673750001,50.0,62.0
549,124.48916122500002,124.76951808750002,57.0,97.0
550,123.63201922500002,125.24094618750001,43.0,92.0
551,124.91773222500002,125.31416040000002,50.0,58.0
552,125.34630322500001,125.68916002500002,62.0,87.0
553,125.34630322500001,125.86951698750002,58.0,63.0
554,125.34630322500001,125.99094543750002,55.0,71.0
555,125.77487422500002,126.32487367500002,50.0,45.0
556,125.34630322500001,126.39273075000001,43.0,84.0
557,126.20344522500001,126.77665893750002,58.0,82.0
558,126.20344522500001,126.78915892500001,62.0,89.0
559,126.20344522500001,126.85165886250002,67.0,89.0
560,126.63201622500002,127.03201582500002,55.0,84.0
561,127.06058722500002,127.70880086250001,58.0,79.0
562,127.06058722500002,127.94272920000002,55.0,76.0
563,127.48915822500001,128.00880056250003,50.0,50.0
564,127.06058722500002,128.12844330000001,43.0,89.0
565,127.91772922500002,128.34808593750003,58.0,93.0
566,127.91772922500002,128.4159430125,62.0,94.0
567,128.34630022500002,128.5427286,55.0,58.0
568,128.77487122500003,129.28558500000003,57.0,84.0
569,128.77487122500003,129.66237033750002,53.0,76.0
570,129.203442225,129.70165601250002,48.0,44.0
571,128.77487122500003,129.72308456250002,41.0,89.0
572,129.632013225,130.08558420000003,57.0,105.0
573,129.632013225,130.15701270000002,60.0,94.0
574,130.060584225,130.27844115000002,53.0,71.0
575,130.48915522500002,130.903440525,67.0,80.0
576,130.48915522500002,130.91594051250001,63.0,55.0
577,130.91772622500002,131.44093998750003,58.0,63.0
578,130.48915522500002,131.5195113375,51.0,90.0
579,131.34629722500003,131.92308236250003,63.0,87.0
580,131.34629722500003,131.9855823,70.0,79.0
581,132.63201022500002,133.00700985000003,58.0,70.0
582,133.06058122500002,133.124866875,58.0,35.0
583,132.63201022500002,133.246295325,53.0,50.0
584,133.06058122500002,133.49986650000002,62.0,105.0
585,132.203439225,133.50700935,46.0,72.0
586,133.48915222500003,133.6016521125,58.0,90.0
587,133.06058122500002,134.0623659375,65.0,105.0
588,133.91772322500003,134.50343692500002,58.0,70.0
589,133.91772322500003,134.77843665000003,55.0,80.0
590,134.346294225,134.98200787500002,50.0,78.0
591,133.91772322500003,134.98736501250002,43.0,78.0
592,134.774865225,135.246293325,58.0,102.0
593,135.20343622500002,135.396293175,55.0,89.0
594,134.774865225,135.396293175,62.0,97.0
595,135.63200722500002,135.846292725,55.0,49.0
596,135.63200722500002,135.84986415000003,53.0,51.0
597,135.63200722500002,136.40879216250002,57.0,76.0
598,136.06057822500003,136.61950623750002,48.0,52.0
599,135.63200722500002,136.84272030000002,41.0,89.0
600,136.489149225,136.97843445,57.0,94.0
601,136.917720225,137.09807718750002,53.0,100.0
602,136.489149225,137.3445055125,60.0,94.0
603,137.34629122500002,137.93736206250003,58.0,48.0
604,137.34629122500002,138.02486197500002,55.0,58.0
605,137.77486222500002,138.4052187375,50.0,62.0
606,138.20343322500003,138.4837900875,57.0,97.0
607,137.34629122500002,138.9552181875,43.0,92.0
608,138.63200422500003,139.0284324,50.0,58.0
609,139.060575225,139.40343202500003,62.0,87.0
610,139.060575225,139.58378898750001,58.0,63.0
611,139.060575225,139.7052174375,55.0,71.0
612,139.489146225,140.03914567500001,50.0,45.0
613,139.060575225,140.10700275000002,43.0,84.0
614,139.91771722500002,140.49093093750002,58.0,82.0
615,139.91771722500002,140.50343092500003,62.0,89.0
616,139.91771722500002,140.5659308625,67.0,89.0
617,140.34628822500002,140.74628782500002,55.0,84.0
618,140.77485922500003,141.25700160000002,63.0,77.0
619,140.77485922500003,141.46771567500002,67.0,84.0
620,141.203430225,141.67842975000002,58.0,79.0
621,141.41771572500002,141.68914402500002,63.0,90.0
622,140.77485922500003,141.89271525,51.0,105.0
623,141.84628672500003,142.0695007875,58.0,90.0
624,141.632001225,142.09985790000002,70.0,102.0
625,142.06057222500002,142.22842920000002,63.0,99.0
626,142.48914322500002,143.15521398750002,69.0,94.0
627,142.48914322500002,143.1873568125,65.0,80.0
628,142.91771422500003,143.4427137,60.0,92.0
629,143.34628522500003,143.75164196250003,65.0,102.0
630,142.48914322500002,143.82307046250003,53.0,102.0
631,143.774856225,143.90521323750002,60.0,100.0
632,143.34628522500003,144.11235588750003,69.0,108.0
633,144.203427225,144.72842670000003,62.0,64.0
634,144.203427225,144.8909265375,65.0,94.0
635,144.846283725,144.96414075,62.0,67.0
636,144.63199822500002,145.12664058750002,57.0,78.0
637,145.06056922500002,145.33378323750003,62.0,100.0
638,145.06056922500002,145.38914032500003,65.0,108.0
639,144.203427225,145.39271175000002,50.0,97.0
640,145.274854725,145.4194974375,57.0,94.0
641,145.06056922500002,145.4409259875,69.0,102.0
642,145.48914022500003,145.846282725,62.0,94.0
643,145.917711225,146.44271070000002,67.0,100.0
644,145.917711225,146.47842495000003,62.0,82.0
645,145.917711225,146.5016392125,70.0,85.0
646,146.346282225,146.88735311250002,50.0,50.0
647,145.917711225,146.9516387625,43.0,92.0
648,146.77485322500002,147.09449576250003,62.0,102.0
649,146.77485322500002,147.21056707500003,67.0,111.0
650,147.20342422500002,147.29806698750002,43.0,97.0
651,146.77485322500002,147.29806698750002,70.0,105.0
652,147.63199522500003,148.2284232,67.0,108.0
653,147.63199522500003,148.27663743750003,63.0,87.0
654,148.06056622500003,148.63735136250003,58.0,77.0
655,147.63199522500003,148.78020836250002,51.0,93.0
656,148.489137225,148.90342252500002,67.0,102.0
657,148.489137225,148.94627962500002,63.0,96.0
658,148.489137225,148.96592246250003,70.0,96.0
659,148.917708225,149.08735091250003,58.0,96.0
660,149.34627922500002,149.58735041250003,60.0,78.0
661,149.34627922500002,149.8837786875,65.0,92.0
662,149.77485022500002,150.05699280000002,60.0,84.0
663,150.20342122500003,150.43020671250002,60.0,108.0
664,149.34627922500002,150.54806373750003,53.0,105.0
665,150.20342122500003,150.62484937500003,65.0,111.0
666,150.20342122500003,150.73734926250003,69.0,100.0
667,150.63199222500003,150.75699210000002,60.0,97.0
668,151.060563225,151.63020551250003,62.0,102.0
669,151.48913422500002,152.00341942500003,53.0,80.0
670,151.060563225,152.17841925000002,58.0,74.0
671,151.060563225,152.3427048,46.0,105.0
672,151.91770522500002,152.36770477500002,62.0,100.0
673,151.91770522500002,152.38556190000003,65.0,102.0
674,152.131990725,152.69627587500003,53.0,82.0
675,152.560561725,152.69627587500003,62.0,87.0
676,152.34627622500003,152.703418725,58.0,93.0
677,152.77484722500003,153.41413230000003,62.0,105.0
678,152.77484722500003,153.50698935000003,58.0,82.0
679,152.77484722500003,153.83556045000003,46.0,105.0
680,153.203418225,153.89627467500003,53.0,67.0
681,153.631989225,153.90520323750002,62.0,102.0
682,153.631989225,153.92127465000002,58.0,85.0
683,153.631989225,153.99627457500003,65.0,105.0
684,154.06056022500002,154.1480601375,46.0,109.0
685,154.48913122500002,154.81055947500002,63.0,87.0
686,154.48913122500002,154.82841660000003,67.0,89.0
687,154.91770222500003,155.43913027500002,58.0,57.0
688,154.48913122500002,155.57663013750002,51.0,105.0
689,155.34627322500003,155.64448721250002,63.0,99.0
690,155.34627322500003,155.72127285000002,67.0,111.0
691,155.56055872500002,155.77127280000002,58.0,87.0
692,155.774844225,155.98912972500003,63.0,102.0
693,155.34627322500003,156.08198677500002,70.0,96.0
694,156.20341522500001,156.75520038750003,69.0,102.0
695,156.20341522500001,156.79448606250003,65.0,73.0
696,156.63198622500002,157.17841425000003,60.0,84.0
697,156.20341522500001,157.26234273750003,53.0,97.0
698,157.274842725,157.4409139875,60.0,84.0
699,157.06055722500003,157.496271075,65.0,105.0
700,157.48912822500003,157.66055662500003,53.0,84.0
701,157.06055722500003,157.87305641250003,69.0,105.0
702,157.917699225,158.5623414375,65.0,92.0
703,157.917699225,158.6230556625,62.0,80.0
704,158.346270225,158.86591256250003,57.0,78.0
705,157.917699225,159.05341237500002,50.0,94.0
706,158.77484122500002,159.10519803750003,62.0,94.0
707,158.77484122500002,159.1569837,65.0,111.0
708,158.77484122500002,159.18019796250002,69.0,105.0
709,158.98912672500003,159.19805508750002,57.0,84.0
710,159.20341222500002,159.34805493750002,50.0,84.0
711,159.417697725,159.57841185,62.0,92.0
712,159.63198322500003,159.85519728750003,62.0,87.0
713,159.63198322500003,160.19269695000003,70.0,72.0
714,160.06055422500003,160.38555390000002,62.0,97.0
715,160.27483972500002,160.39269675000003,67.0,100.0
716,159.84626872500002,160.55162516250002,50.0,52.0
717,159.63198322500003,160.97662473750003,43.0,97.0
718,160.489125225,160.98733901250003,67.0,100.0
719,160.489125225,161.09269605000003,70.0,109.0
720,160.91769622500001,161.17662453750003,50.0,94.0
721,160.489125225,161.27126730000003,62.0,102.0
722,161.34626722500002,161.63198122500003,63.0,85.0
723,161.34626722500002,161.63733836250003,67.0,92.0
724,161.77483822500002,162.25876631250003,58.0,77.0
725,161.34626722500002,162.3444805125,51.0,96.0
726,162.20340922500003,162.48019466250003,63.0,96.0
727,162.20340922500003,162.53733746250003,67.0,105.0
728,162.41769472500002,162.58912312500001,58.0,99.0
729,162.63198022500004,162.81233718750002,63.0,96.0
730,162.20340922500003,162.96233703750002,70.0,96.0
731,163.060551225,163.70340772500003,65.0,87.0
732,163.060551225,163.71233628750002,69.0,100.0
733,163.060551225,164.05519308750002,53.0,100.0
734,163.48912222500002,164.16055012500001,60.0,84.0
735,163.91769322500002,164.22840720000002,65.0,100.0
736,163.91769322500002,164.281978575,69.0,105.0
737,164.34626422500003,164.4373355625,53.0,73.0
738,164.77483522500003,165.38019176250003,67.0,92.0
739,164.77483522500003,165.38912032500002,62.0,92.0
740,165.203406225,165.6980485875,50.0,53.0
741,165.631977225,166.20161951250003,67.0,111.0
742,165.631977225,166.2141195,70.0,102.0
743,165.631977225,166.33733366250001,62.0,97.0
744,164.77483522500003,166.353405075,43.0,92.0
745,166.06054822500002,166.43019071250004,50.0,69.0
746,166.48911922500002,167.03554725000004,62.0,71.0
747,166.48911922500002,167.05697580000003,67.0,80.0
748,166.91769022500003,167.46054682500002,50.0,44.0
749,167.34626122500003,168.13733186250002,62.0,87.0
750,167.34626122500003,168.16411755000001,67.0,100.0
751,166.48911922500002,168.17840325000003,43.0,89.0
752,167.34626122500003,168.18376038750003,70.0,82.0
753,167.774832225,168.19268895000002,50.0,67.0
754,168.20340322500002,168.6855456,63.0,77.0
755,168.20340322500002,168.896259675,67.0,84.0
756,168.63197422500002,169.10697375,58.0,79.0
757,168.846259725,169.11768802500004,63.0,90.0
758,168.20340322500002,169.32125925000003,51.0,105.0
759,169.27483072500002,169.49804478750002,58.0,90.0
760,169.06054522500003,169.52840190000003,70.0,102.0
761,169.48911622500003,169.6569732,63.0,99.0
762,169.917687225,170.58375798750004,69.0,94.0
763,169.917687225,170.61590081250003,65.0,80.0
764,170.346258225,170.87125770000003,60.0,92.0
765,170.77482922500002,171.18018596250002,65.0,102.0
766,169.917687225,171.25161446250002,53.0,102.0
767,171.20340022500002,171.3337572375,60.0,100.0
768,170.77482922500002,171.54089988750002,69.0,108.0
769,171.63197122500003,172.15697070000002,62.0,64.0
770,171.63197122500003,172.31947053750002,65.0,94.0
771,172.27482772500002,172.39268475000003,62.0,67.0
772,172.06054222500003,172.55518458750004,57.0,78.0
773,172.489113225,172.76232723750002,62.0,100.0
774,172.489113225,172.81768432500002,65.0,108.0
775,171.63197122500003,172.82125575000003,50.0,97.0
776,172.70339872500003,172.84804143750003,57.0,94.0
777,172.489113225,172.86946998750003,69.0,102.0
778,172.91768422500002,173.27482672500003,62.0,94.0
779,173.34625522500002,173.8712547,67.0,100.0
780,173.34625522500002,173.90696895000002,62.0,82.0
781,173.34625522500002,173.93018321250003,70.0,85.0
782,173.77482622500003,174.3158971125,50.0,50.0
783,173.34625522500002,174.38018276250003,43.0,92.0
784,174.20339722500003,174.52303976250002,62.0,102.0
785,174.20339722500003,174.63911107500002,67.0,111.0
786,174.63196822500004,174.7266109875,43.0,97.0
787,174.20339722500003,174.7266109875,70.0,105.0
788,175.060539225,175.65696720000003,67.0,108.0
789,175.060539225,175.70518143750002,63.0,87.0
790,175.48911022500002,176.06589536250002,58.0,77.0
791,175.060539225,176.20875236250004,51.0,93.0
792,175.91768122500002,176.331966525,67.0,102.0
793,175.91768122500002,176.37482362500003,63.0,96.0
794,175.91768122500002,176.39446646250002,70.0,96.0
795,176.34625222500003,176.51589491250002,58.0,96.0
796,176.77482322500003,177.01589441250002,60.0,78.0
797,176.77482322500003,177.31232268750003,65.0,92.0
798,177.203394225,177.48553680000003,60.0,84.0
799,177.63196522500002,177.8587507125,60.0,108.0
800,176.77482322500003,177.97660773750002,53.0,105.0
801,177.63196522500002,178.053393375,65.0,111.0
802,177.63196522500002,178.16589326250002,69.0,100.0
803,178.06053622500002,178.18553610000004,60.0,97.0
804,178.48910722500003,179.05874951250001,62.0,102.0
805,178.91767822500003,179.43196342500002,53.0,80.0
806,178.48910722500003,179.60696325000004,58.0,74.0
807,178.48910722500003,179.77124880000002,46.0,105.0
808,179.34624922500004,179.796248775,62.0,100.0
809,179.34624922500004,179.81410590000002,65.0,102.0
810,179.56053472500002,180.12481987500001,53.0,82.0
811,179.98910572500003,180.12481987500001,62.0,87.0
812,179.774820225,180.13196272500002,58.0,93.0
813,180.20339122500002,180.84267630000002,62.0,105.0
814,180.20339122500002,180.93553335000001,58.0,82.0
815,180.20339122500002,181.26410445000002,46.0,105.0
816,180.63196222500002,181.32481867500002,53.0,67.0
817,181.06053322500003,181.33374723750003,62.0,102.0
818,181.06053322500003,181.34981865000003,58.0,85.0
819,181.06053322500003,181.42481857500002,65.0,105.0
820,181.48910422500003,181.57660413750003,46.0,109.0
821,181.917675225,182.23910347500004,63.0,87.0
822,181.917675225,182.2569606,67.0,89.0
823,182.34624622500002,182.867674275,58.0,57.0
824,181.917675225,183.00517413750003,51.0,105.0
825,182.77481722500002,183.0730312125,63.0,99.0
826,182.77481722500002,183.14981685000004,67.0,111.0
827,182.98910272500004,183.19981680000004,58.0,87.0
828,183.20338822500003,183.41767372500001,63.0,102.0
829,182.77481722500002,183.51053077500003,70.0,96.0
830,183.63195922500003,184.1837443875,69.0,102.0
831,183.63195922500003,184.22303006250002,65.0,73.0
832,184.06053022500004,184.60695825000002,60.0,84.0
833,183.63195922500003,184.69088673750002,53.0,97.0
834,184.70338672500003,184.86945798750003,60.0,84.0
835,184.489101225,184.92481507500003,65.0,105.0
836,184.91767222500002,185.08910062500001,53.0,84.0
837,184.489101225,185.30160041250002,69.0,105.0
838,185.34624322500002,185.99088543750003,65.0,92.0
839,185.34624322500002,186.05159966250002,62.0,80.0
840,185.77481422500003,186.29445656250002,57.0,78.0
841,185.34624322500002,186.48195637500004,50.0,94.0
842,186.20338522500003,186.53374203750002,62.0,94.0
843,186.20338522500003,186.58552770000003,65.0,111.0
844,186.20338522500003,186.60874196250003,69.0,105.0
845,186.41767072500002,186.6265990875,57.0,84.0
846,186.631956225,186.7765989375,50.0,84.0
847,186.84624172500003,187.00695585000003,62.0,92.0
848,187.06052722500002,187.28374128750002,62.0,87.0
849,187.06052722500002,187.62124095000001,70.0,72.0
850,187.48909822500002,187.81409790000004,62.0,97.0
851,187.70338372500004,187.82124075000002,67.0,100.0
852,187.27481272500003,187.98016916250003,50.0,52.0
853,187.06052722500002,188.40516873750002,43.0,97.0
854,187.91766922500003,188.41588301250002,67.0,100.0
855,187.91766922500003,188.52124005000002,70.0,109.0
856,188.34624022500003,188.60516853750002,50.0,94.0
857,187.91766922500003,188.69981130000002,62.0,102.0
858,188.77481122500004,189.06052522500002,63.0,85.0
859,188.77481122500004,189.06588236250002,67.0,92.0
860,189.203382225,189.68731031250002,58.0,77.0
861,188.77481122500004,189.77302451250003,51.0,96.0
862,189.63195322500002,189.9087386625,63.0,96.0
863,189.63195322500002,189.96588146250002,67.0,105.0
864,189.84623872500003,190.01766712500003,58.0,99.0
865,190.06052422500002,190.24088118750004,63.0,96.0
866,189.63195322500002,190.39088103750004,70.0,96.0
867,190.48909522500003,191.13195172500002,65.0,87.0
868,190.48909522500003,191.14088028750004,69.0,100.0
869,190.48909522500003,191.48373708750003,53.0,100.0
870,190.91766622500003,191.58909412500003,60.0,84.0
871,191.34623722500004,191.65695120000004,65.0,100.0
872,191.34623722500004,191.71052257500003,69.0,105.0
873,191.77480822500002,191.86587956250003,53.0,73.0
874,192.20337922500002,192.80873576250002,67.0,92.0
875,192.20337922500002,192.81766432500004,62.0,92.0
876,192.63195022500003,193.12659258750003,50.0,53.0
877,193.06052122500003,193.63016351250002,67.0,111.0
878,193.06052122500003,193.64266350000003,70.0,102.0
879,193.06052122500003,193.76587766250003,62.0,97.0
880,192.20337922500002,193.78194907500003,43.0,92.0
881,193.48909222500004,193.85873471250002,50.0,69.0
882,193.917663225,194.46409125000002,62.0,71.0
883,193.917663225,194.48551980000002,67.0,80.0
884,194.34623422500002,194.88909082500004,50.0,44.0
885,194.77480522500002,195.19980480000004,67.0,100.0
886,194.77480522500002,195.19980480000004,70.0,82.0
887,194.77480522500002,195.56587586250004,62.0,87.0
888,195.20337622500003,195.58551870000002,69.0,100.0
889,195.20337622500003,195.58730441250003,65.0,89.0
890,193.917663225,195.60694725000002,43.0,89.0
891,195.20337622500003,195.62123295000004,50.0,67.0
892,195.63194722500003,196.11408960000003,63.0,77.0
893,195.63194722500003,196.32480367500003,67.0,84.0
894,196.06051822500004,196.53551775000003,58.0,79.0
895,196.27480372500003,196.54623202500002,63.0,90.0
896,195.63194722500003,196.74980325,51.0,105.0
897,196.70337472500003,196.92658878750004,58.0,90.0
898,196.48908922500001,196.95694590000002,70.0,102.0
899,196.91766022500002,197.08551720000003,63.0,99.0
900,197.34623122500003,198.01230198750002,69.0,94.0
901,197.34623122500003,198.04444481250002,65.0,80.0
902,197.77480222500003,198.29980170000002,60.0,92.0
903,198.20337322500004,198.60872996250004,65.0,102.0
904,197.34623122500003,198.68015846250003,53.0,102.0
905,198.631944225,198.76230123750003,60.0,100.0
906,198.20337322500004,198.96944388750003,69.0,108.0
907,199.06051522500002,199.58551470000003,62.0,64.0
908,199.06051522500002,199.7480145375,65.0,94.0
909,199.70337172500004,199.82122875000002,62.0,67.0
910,199.48908622500002,199.98372858750002,57.0,78.0
911,199.91765722500003,200.19087123750003,62.0,100.0
912,199.91765722500003,200.24622832500003,65.0,108.0
913,199.06051522500002,200.24979975000002,50.0,97.0
914,200.13194272500002,200.27658543750002,57.0,94.0
915,199.91765722500003,200.2980139875,69.0,102.0
916,200.34622822500003,200.703370725,62.0,94.0
917,200.77479922500004,201.29979870000003,67.0,100.0
918,200.77479922500004,201.33551295000004,62.0,82.0
919,200.77479922500004,201.3587272125,70.0,85.0
920,201.20337022500001,201.74444111250003,50.0,50.0
921,200.77479922500004,201.80872676250002,43.0,92.0
922,201.63194122500002,201.95158376250004,62.0,102.0
923,201.63194122500002,202.06765507500003,67.0,111.0
924,202.06051222500002,202.15515498750003,43.0,97.0
925,201.63194122500002,202.15515498750003,70.0,105.0
926,202.48908322500003,203.0855112,67.0,108.0
927,202.48908322500003,203.13372543750003,63.0,87.0
928,202.91765422500004,203.49443936250003,58.0,77.0
929,202.48908322500003,203.63729636250002,51.0,93.0
930,203.34622522500004,203.76051052500003,67.0,102.0
931,203.34622522500004,203.80336762500002,63.0,96.0
932,203.34622522500004,203.82301046250004,70.0,96.0
933,203.77479622500002,203.94443891250003,58.0,96.0
934,204.20336722500002,204.44443841250003,60.0,78.0
935,204.20336722500002,204.74086668750002,65.0,92.0
936,204.63193822500003,204.91408080000002,60.0,84.0
937,205.06050922500003,205.28729471250003,60.0,108.0
938,204.20336722500002,205.40515173750003,53.0,105.0
939,205.06050922500003,205.48193737500003,65.0,111.0
940,205.06050922500003,205.59443726250004,69.0,100.0
941,205.48908022500004,205.61408010000002,60.0,97.0
942,205.91765122500001,206.48729351250003,62.0,102.0
943,206.34622222500002,206.86050742500004,53.0,80.0
944,205.91765122500001,207.03550725000002,58.0,74.0
945,205.91765122500001,207.19979280000004,46.0,105.0
946,206.77479322500002,207.22479277500003,62.0,100.0
947,206.77479322500002,207.24264990000003,65.0,102.0
948,206.989078725,207.55336387500003,53.0,82.0
949,207.41764972500002,207.55336387500003,62.0,87.0
950,207.20336422500003,207.56050672500004,58.0,93.0
951,207.63193522500003,208.27122030000004,62.0,105.0
952,207.63193522500003,208.36407735000003,58.0,82.0
953,207.63193522500003,208.69264845000004,46.0,105.0
954,208.06050622500004,208.75336267500003,53.0,67.0
955,208.48907722500002,208.76229123750002,62.0,102.0
956,208.48907722500002,208.77836265000002,58.0,85.0
957,208.48907722500002,208.85336257500003,65.0,105.0
958,208.91764822500002,209.00514813750002,46.0,109.0
959,209.34621922500003,209.66764747500002,63.0,87.0
960,209.34621922500003,209.68550460000003,67.0,89.0
961,209.77479022500003,210.29621827500003,58.0,57.0
962,209.34621922500003,210.43371813750002,51.0,105.0
963,210.20336122500004,210.50157521250003,63.0,99.0
964,210.20336122500004,210.57836085000002,67.0,111.0
965,210.41764672500003,210.62836080000002,58.0,87.0
966,210.631932225,210.84621772500003,63.0,102.0
967,210.20336122500004,210.93907477500002,70.0,96.0
968,211.06050322500002,211.61228838750003,69.0,102.0
969,211.06050322500002,211.65157406250003,65.0,73.0
970,211.48907422500002,212.03550225000004,60.0,84.0
971,211.06050322500002,212.11943073750004,53.0,97.0
972,212.13193072500002,212.29800198750002,60.0,84.0
973,211.91764522500003,212.35335907500001,65.0,105.0
974,212.34621622500003,212.51764462500003,53.0,84.0
975,211.91764522500003,212.73014441250004,69.0,105.0
976,212.77478722500004,213.4194294375,65.0,92.0
977,212.77478722500004,213.48014366250004,62.0,80.0
978,213.20335822500002,213.72300056250003,57.0,78.0
979,212.77478722500004,213.91050037500003,50.0,94.0
980,213.63192922500002,213.96228603750004,62.0,94.0
981,213.63192922500002,214.01407170000002,65.0,111.0
982,213.63192922500002,214.03728596250002,69.0,105.0
983,213.84621472500004,214.05514308750003,57.0,84.0
984,214.06050022500003,214.20514293750003,50.0,84.0
985,214.27478572500002,214.43549985000004,62.0,92.0
986,214.48907122500003,214.71228528750004,62.0,87.0
987,214.48907122500003,215.04978495000003,70.0,72.0
988,214.91764222500004,215.24264190000002,62.0,97.0
989,215.13192772500003,215.24978475000003,67.0,100.0
990,214.70335672500002,215.40871316250002,50.0,52.0
991,214.48907122500003,215.83371273750004,43.0,97.0
992,215.34621322500004,215.84442701250003,67.0,100.0
993,215.34621322500004,215.94978405000003,70.0,109.0
994,215.77478422500002,216.03371253750004,50.0,94.0
995,215.34621322500004,216.12835530000004,62.0,102.0
996,216.20335522500002,216.48906922500004,63.0,85.0
997,216.20335522500002,216.49442636250004,67.0,92.0
998,216.63192622500003,217.11585431250003,58.0,77.0
999,216.20335522500002,217.20156851250002,51.0,96.0
1000,217.06049722500003,217.33728266250003,63.0,96.0
1001,217.06049722500003,217.39442546250004,67.0,105.0
1002,217.27478272500002,217.44621112500002,58.0,99.0
1003,217.48906822500004,217.66942518750002,63.0,96.0
1004,217.06049722500003,217.81942503750003,70.0,96.0
1005,217.91763922500002,218.56049572500004,65.0,87.0
1006,217.91763922500002,218.56942428750003,69.0,100.0
1007,217.91763922500002,218.91228108750002,53.0,100.0
1008,218.34621022500002,219.01763812500002,60.0,84.0
1009,218.77478122500003,219.08549520000003,65.0,100.0
1010,218.77478122500003,219.13906657500002,69.0,105.0
1011,219.20335222500003,219.29442356250001,53.0,73.0
1012,219.63192322500004,220.23727976250004,67.0,92.0
1013,219.63192322500004,220.24620832500003,62.0,92.0
1014,220.06049422500004,220.55513658750002,50.0,53.0
1015,220.48906522500002,221.05870751250004,67.0,111.0
1016,220.48906522500002,221.07120750000004,70.0,102.0
1017,220.48906522500002,221.19442166250002,62.0,97.0
1018,219.63192322500004,221.21049307500002,43.0,92.0
1019,220.91763622500002,221.28727871250004,50.0,69.0
1020,221.34620722500003,221.89263525000004,62.0,71.0
1021,221.34620722500003,221.91406380000004,67.0,80.0
1022,221.77477822500003,222.31763482500003,50.0,44.0
1023,222.20334922500004,222.99441986250002,62.0,87.0
1024,222.20334922500004,223.02120555000002,67.0,100.0
1025,221.34620722500003,223.03549125000004,43.0,89.0
1026,222.20334922500004,223.04084838750003,70.0,82.0
1027,222.63192022500002,223.04977695000002,50.0,67.0
1028,223.06049122500002,223.54263360000002,63.0,77.0
1029,223.06049122500002,223.75334767500004,67.0,84.0
1030,223.48906222500003,223.96406175000004,58.0,79.0
1031,223.70334772500004,223.97477602500004,63.0,90.0
1032,223.06049122500002,224.17834725000003,51.0,105.0
1033,224.13191872500002,224.35513278750003,58.0,90.0
1034,223.91763322500003,224.38548990000004,70.0,102.0
1035,224.34620422500004,224.51406120000004,63.0,99.0
1036,224.77477522500004,225.44084598750004,69.0,94.0
1037,224.77477522500004,225.47298881250003,65.0,80.0
1038,225.20334622500002,225.72834570000003,60.0,92.0
1039,225.63191722500002,226.03727396250002,65.0,102.0
1040,224.77477522500004,226.10870246250002,53.0,102.0
1041,226.06048822500003,226.19084523750004,60.0,100.0
1042,225.63191722500002,226.39798788750002,69.0,108.0
1043,226.48905922500003,227.01405870000002,62.0,64.0
1044,226.48905922500003,227.17655853750003,65.0,94.0
1045,227.13191572500003,227.24977275000003,62.0,67.0
1046,226.91763022500004,227.41227258750004,57.0,78.0
1047,227.34620122500002,227.61941523750002,62.0,100.0
1048,227.34620122500002,227.67477232500002,65.0,108.0
1049,226.48905922500003,227.67834375000004,50.0,97.0
1050,227.56048672500003,227.70512943750003,57.0,94.0
1051,227.34620122500002,227.72655798750003,69.0,102.0
1052,227.77477222500002,228.13191472500003,62.0,94.0
1053,228.20334322500003,228.72834270000004,67.0,100.0
1054,228.20334322500003,228.76405695000003,62.0,82.0
1055,228.20334322500003,228.78727121250003,70.0,85.0
1056,228.63191422500003,229.17298511250004,50.0,50.0
1057,228.20334322500003,229.23727076250003,43.0,92.0
1058,229.06048522500004,229.38012776250002,62.0,102.0
1059,229.06048522500004,229.49619907500002,67.0,111.0
1060,229.48905622500004,229.58369898750004,43.0,97.0
1061,229.06048522500004,229.58369898750004,70.0,105.0
1062,229.91762722500002,230.51405520000003,67.0,108.0
1063,229.91762722500002,230.56226943750002,63.0,87.0
1064,230.34619822500002,230.92298336250002,58.0,77.0
1065,229.91762722500002,231.06584036250004,51.0,93.0
1066,230.77476922500003,231.18905452500002,67.0,102.0
1067,230.77476922500003,231.23191162500004,63.0,96.0
1068,230.77476922500003,231.25155446250002,70.0,96.0
1069,231.20334022500003,231.37298291250002,58.0,96.0
1070,231.63191122500004,231.87298241250002,60.0,78.0
1071,231.63191122500004,232.16941068750003,65.0,92.0
1072,232.06048222500004,232.34262480000004,60.0,84.0
1073,232.48905322500002,232.71583871250004,60.0,108.0
1074,231.63191122500004,232.83369573750002,53.0,105.0
1075,232.48905322500002,232.91048137500002,65.0,111.0
1076,232.48905322500002,233.02298126250002,69.0,100.0
1077,232.91762422500003,233.04262410000004,60.0,97.0
1078,233.34619522500003,233.91583751250002,62.0,102.0
1079,233.77476622500004,234.28905142500003,53.0,80.0
1080,233.34619522500003,234.46405125000004,58.0,74.0
1081,233.34619522500003,234.62833680000003,46.0,105.0
1082,234.20333722500004,234.65333677500004,62.0,100.0
1083,234.20333722500004,234.67119390000002,65.0,102.0
1084,234.41762272500003,234.98190787500002,53.0,82.0
1085,234.84619372500003,234.98190787500002,62.0,87.0
1086,234.63190822500002,234.98905072500003,58.0,93.0
1087,235.06047922500002,235.69976430000003,62.0,105.0
1088,235.06047922500002,235.79262135000002,58.0,82.0
1089,235.06047922500002,236.12119245000002,46.0,105.0
1090,235.48905022500003,236.18190667500002,53.0,67.0
1091,235.91762122500003,236.19083523750004,62.0,102.0
1092,235.91762122500003,236.20690665000004,58.0,85.0
1093,235.91762122500003,236.28190657500002,65.0,105.0
1094,236.34619222500004,236.43369213750003,46.0,109.0
1095,236.77476322500004,237.09619147500004,63.0,87.0
1096,236.77476322500004,237.11404860000002,67.0,89.0
1097,237.20333422500002,237.72476227500002,58.0,57.0
1098,236.77476322500004,237.86226213750004,51.0,105.0
1099,237.63190522500003,237.93011921250002,63.0,99.0
1100,237.63190522500003,238.00690485000004,67.0,111.0
1101,237.84619072500004,238.05690480000004,58.0,87.0
1102,238.06047622500003,238.27476172500002,63.0,102.0
1103,237.63190522500003,238.36761877500004,70.0,96.0
1104,238.48904722500004,239.04083238750002,69.0,102.0
1105,238.48904722500004,239.08011806250002,65.0,73.0
1106,238.91761822500004,239.46404625000002,60.0,84.0
1107,238.48904722500004,239.54797473750003,53.0,97.0
1108,239.56047472500003,239.72654598750003,60.0,84.0
1109,239.34618922500002,239.78190307500003,65.0,105.0
1110,239.77476022500002,239.94618862500002,53.0,84.0
1111,239.34618922500002,240.15868841250003,69.0,105.0
1112,240.20333122500003,240.84797343750003,65.0,92.0
1113,240.20333122500003,240.90868766250003,62.0,80.0
1114,240.63190222500003,241.15154456250002,57.0,78.0
1115,240.20333122500003,241.33904437500004,50.0,94.0
1116,241.06047322500004,241.39083003750002,62.0,94.0
1117,241.06047322500004,241.44261570000003,65.0,111.0
1118,241.06047322500004,241.46582996250004,69.0,105.0
1119,241.27475872500003,241.48368708750004,57.0,84.0
1120,241.48904422500004,241.63368693750004,50.0,84.0
1121,241.70332972500003,241.86404385000003,62.0,92.0
1122,241.91761522500002,242.14082928750003,62.0,87.0
1123,241.91761522500002,242.47832895000002,70.0,72.0
1124,242.34618622500003,242.67118590000004,62.0,97.0
1125,242.56047172500004,242.67832875000002,67.0,100.0
1126,242.13190072500004,242.83725716250004,50.0,52.0
1127,241.91761522500002,243.26225673750002,43.0,97.0
1128,242.77475722500003,243.27297101250002,67.0,100.0
1129,242.77475722500003,243.37832805000002,70.0,109.0
1130,243.20332822500004,243.46225653750002,50.0,94.0
1131,242.77475722500003,243.55689930000003,62.0,102.0
1132,243.63189922500004,243.91761322500003,63.0,85.0
1133,243.63189922500004,243.92297036250002,67.0,92.0
1134,244.06047022500005,244.54439831250002,58.0,77.0
1135,243.63189922500004,244.63011251250003,51.0,96.0
1136,244.48904122500002,244.76582666250002,63.0,96.0
1137,244.48904122500002,244.82296946250003,67.0,105.0
1138,244.70332672500004,244.87475512500004,58.0,99.0
1139,244.91761222500003,245.09796918750004,63.0,96.0
1140,244.48904122500002,245.24796903750004,70.0,96.0
1141,245.34618322500003,245.98903972500003,65.0,87.0
1142,245.34618322500003,245.99796828750004,69.0,100.0
1143,245.34618322500003,246.34082508750004,53.0,100.0
1144,245.77475422500004,246.44618212500004,60.0,84.0
1145,246.20332522500004,246.51403920000004,65.0,100.0
1146,246.20332522500004,246.56761057500003,69.0,105.0
1147,246.63189622500002,246.72296756250003,53.0,73.0
1148,247.06046722500002,247.66582376250003,67.0,92.0
1149,247.06046722500002,247.67475232500004,62.0,92.0
1150,247.48903822500003,247.98368058750003,50.0,53.0
1151,247.91760922500004,248.48725151250002,67.0,111.0
1152,247.91760922500004,248.49975150000003,70.0,102.0
1153,247.91760922500004,248.62296566250004,62.0,97.0
1154,247.06046722500002,248.63903707500003,43.0,92.0
1155,248.34618022500004,248.71582271250003,50.0,69.0
1156,248.77475122500005,249.32117925000003,62.0,71.0
1157,248.77475122500005,249.34260780000002,67.0,80.0
1158,249.20332222500002,249.74617882500004,50.0,44.0
1159,249.63189322500003,250.4322075291667,62.0,87.0
1160,249.63189322500003,250.46161926250002,67.0,100.0
1161,248.77475122500005,250.47448689583337,43.0,89.0
1162,249.63189322500003,250.48000159583336,70.0,82.0
1163,250.06046422500003,250.4891927625,50.0,67.0
1164,250.50022216250002,251.170299725,67.0,100.0
1165,250.4928692291667,251.18709076250002,63.0,63.0
1166,250.50022216250002,251.51731450000003,51.0,93.0
1167,251.36432949166667,251.60873237083334,63.0,93.0
1168,251.36992650416667,251.707612925,70.0,70.0
1169,250.93709087083334,251.75798603750002,58.0,82.0
1170,251.83086200416668,251.92316950416668,51.0,38.0
1171,252.31739945208335,252.44816841041668,41.0,92.0
1172,252.3077840875,253.29432049375,65.0,71.0
1173,252.30009179583334,253.40970486875,69.0,89.0
1174,252.780860025,254.00778054583333,53.0,84.0
1175,253.2770128375,254.02316512916667,60.0,105.0
1176,253.76547335833334,254.40201049375,67.0,111.0
1177,254.35201059791666,256.1058530979167,41.0,44.0
1178,256.03277632708335,256.70969799375,62.0,58.0
1179,254.28662611875,257.0193127333333,65.0,60.0
1180,255.94239190000002,257.05969726458335,55.0,45.0
1181,254.37893361875,257.07892799375,69.0,67.0
1182,257.01162044166665,257.32508132708335,57.0,66.0
1183,257.29431216041667,257.47508101458334,58.0,87.0
1184,257.6385422125,258.02892601458336,62.0,87.0
1185,257.94238773333336,258.35200226458335,69.0,94.0
1186,256.47700617083336,258.9116164833333,50.0,52.0
1187,256.0135455979167,259.05584695208336,43.0,97.0
1188,258.31354080625,259.13084679583335,67.0,84.0
1189,258.74046299375,259.29238492083334,70.0,87.0
1190,259.5769997125,262.64237794166667,43.0,40.0
1191,259.73276861875,262.6539163791667,50.0,62.0
1192,259.66161492083336,262.7077624208333,62.0,35.0
1193,259.74815320208336,262.7193008583333,67.0,80.0
1194,259.84622992083337,262.7385315875,70.0,36.0
