,start,end,pitch,velocity
0,9.44709365625,9.83170815625,66.0,91.0
1,9.83170815625,10.21632265625,69.0,89.0
2,10.21632265625,10.60093715625,66.0,89.0
3,10.60093715625,10.985551656250001,64.0,94.0
4,10.985551656250001,11.75478065625,66.0,89.0
5,11.75478065625,12.13939515625,69.0,89.0
6,12.13939515625,12.52400965625,71.0,91.0
7,12.52400965625,13.291636095833335,73.0,91.0
8,13.29323865625,14.060865095833334,73.0,93.0
9,14.06246765625,14.44708215625,73.0,94.0
10,14.44708215625,14.63938940625,76.0,91.0
11,14.63938940625,14.831696656250001,73.0,91.0
12,14.831696656250001,15.21631115625,71.0,98.0
13,15.21631115625,15.60092565625,69.0,89.0
14,15.60092565625,15.983937595833334,71.0,92.0
15,15.98554015625,16.75476915625,71.0,94.0
16,16.75476915625,17.13938365625,69.0,91.0
17,17.13938365625,17.90861265625,71.0,96.0
18,17.90861265625,18.67784165625,73.0,88.0
19,18.67784165625,19.06245615625,71.0,94.0
20,19.06245615625,19.25476340625,73.0,88.0
21,19.25476340625,19.447070656250002,71.0,91.0
22,19.447070656250002,19.83168515625,69.0,94.0
23,19.83168515625,20.21629965625,71.0,91.0
24,20.21629965625,21.753155095833336,66.0,93.0
25,21.75475765625,22.13937215625,66.0,91.0
26,22.13937215625,22.52398665625,69.0,89.0
27,22.52398665625,22.90860115625,66.0,89.0
28,22.90860115625,23.293215656250002,64.0,94.0
29,23.293215656250002,24.06244465625,66.0,89.0
30,24.06244465625,24.44705915625,69.0,89.0
31,24.44705915625,24.83167365625,73.0,91.0
32,24.83167365625,25.599300095833335,71.0,91.0
33,25.60090265625,26.368529095833335,71.0,93.0
34,26.370131656250003,26.75474615625,71.0,94.0
35,26.75474615625,26.94705340625,73.0,91.0
36,26.94705340625,27.139360656250002,71.0,91.0
37,27.139360656250002,27.52397515625,69.0,98.0
38,27.52397515625,28.293204156250003,71.0,89.0
39,28.293204156250003,28.67781865625,73.0,93.0
40,28.67781865625,29.062433156250002,71.0,94.0
41,29.062433156250002,29.44704765625,73.0,92.0
42,29.44704765625,30.02396940625,76.0,94.0
43,30.02396940625,30.60089115625,71.0,93.0
44,30.60089115625,31.003133820833334,73.0,93.0
45,30.98550565625,31.562427406250002,64.0,94.0
46,31.562427406250002,37.13933765625,66.0,88.0
47,37.13933765625,37.523952156250004,61.0,88.0
48,37.523952156250004,37.90856665625,69.0,88.0
49,37.90856665625,38.29318115625,66.0,85.0
50,38.29318115625,38.67779565625,64.0,91.0
51,38.67779565625,39.44542209583334,61.0,92.0
52,39.44702465625,39.83163915625,61.0,90.0
53,39.83163915625,40.216253656250004,64.0,91.0
54,40.216253656250004,40.60086815625,66.0,87.0
55,40.60086815625,40.98548265625,69.0,91.0
56,40.98548265625,41.384520200000004,66.0,88.0
57,41.370097156250004,41.75471165625,64.0,89.0
58,41.75471165625,43.29156709583334,66.0,91.0
59,43.29316965625,43.67778415625,66.0,93.0
60,43.67778415625,44.06079609583333,71.0,89.0
61,44.062398656250004,44.44701315625,71.0,89.0
62,44.44701315625,44.83162765625,73.0,91.0
63,44.83162765625,45.60085665625,71.0,88.0
64,45.60085665625,45.98547115625,69.0,93.0
65,45.98547115625,46.37008565625,66.0,91.0
66,46.37008565625,46.75470015625,64.0,94.0
67,46.75470015625,47.137712095833336,66.0,89.0
68,47.13931465625,47.52392915625,66.0,90.0
69,47.52392915625,47.90854365625,64.0,88.0
70,47.90854365625,49.44539909583334,61.0,87.0
71,49.44700165625,49.83161615625,61.0,91.0
72,49.83161615625,50.216230656250005,69.0,89.0
73,50.216230656250005,50.60084515625,66.0,87.0
74,50.60084515625,50.98545965625,64.0,88.0
75,50.98545965625,51.75468865625,61.0,88.0
76,51.75468865625,52.13930315625,64.0,98.0
77,52.13930315625,52.52391765625,66.0,93.0
78,52.52391765625,53.29154409583334,71.0,92.0
79,53.29314665625,54.06077309583333,71.0,88.0
80,54.062375656250005,55.60083365625,71.0,88.0
81,55.60083365625,55.98544815625,66.0,85.0
82,55.98544815625,56.368460095833335,71.0,88.0
83,56.37006265625,56.754677156250004,71.0,83.0
84,56.754677156250004,57.13929165625,73.0,91.0
85,57.13929165625,57.90691809583333,71.0,88.0
86,57.908520656250005,58.29313515625,71.0,91.0
87,58.29313515625,58.67774965625,73.0,87.0
88,58.67774965625,59.44697865625,64.0,93.0
89,59.44697865625,60.21620765625,69.0,87.0
90,60.21620765625,64.82997909583334,66.0,88.0
91,64.83158165625001,65.21619615625,66.0,91.0
92,65.21619615625,65.60081065625,69.0,89.0
93,65.60081065625,65.98542515625,66.0,89.0
94,65.98542515625,66.37003965625,64.0,94.0
95,66.37003965625,67.13926865625,66.0,89.0
96,67.13926865625,67.52388315625001,69.0,89.0
97,67.52388315625001,67.90849765625,71.0,91.0
98,67.90849765625,68.67612409583333,73.0,91.0
99,68.67772665625,69.44535309583334,73.0,93.0
100,69.44695565625,69.83157015625,73.0,94.0
101,69.83157015625,70.02387740625001,76.0,91.0
102,70.02387740625001,70.21618465625001,73.0,91.0
103,70.21618465625001,70.60079915625,71.0,98.0
104,70.60079915625,70.98541365625,69.0,89.0
105,70.98541365625,71.36842559583333,71.0,92.0
106,71.37002815625,72.13925715625,71.0,94.0
107,72.13925715625,72.52387165625001,69.0,91.0
108,72.52387165625001,73.29310065625,71.0,96.0
109,73.29310065625,74.06232965625,73.0,88.0
110,74.06232965625,74.44694415625,71.0,94.0
111,74.44694415625,74.63925140625,73.0,88.0
112,74.63925140625,74.83155865625,71.0,91.0
113,74.83155865625,75.21617315625001,69.0,94.0
114,75.21617315625001,75.60078765625,71.0,91.0
115,75.60078765625,77.13764309583334,66.0,93.0
116,77.13924565625,77.52386015625001,66.0,91.0
117,77.52386015625001,77.90847465625001,69.0,89.0
118,77.90847465625001,78.29308915625,66.0,89.0
119,78.29308915625,78.67770365625,64.0,94.0
120,78.67770365625,79.44693265625,66.0,89.0
121,79.44693265625,79.83154715625,69.0,89.0
122,79.83154715625,80.21616165625001,73.0,91.0
123,80.21616165625001,80.98378809583333,71.0,91.0
124,80.98539065625,81.75301709583334,71.0,93.0
125,81.75461965625,82.13923415625,71.0,94.0
126,82.13923415625,82.33154140625,73.0,91.0
127,82.33154140625,82.52384865625,71.0,91.0
128,82.52384865625,82.90846315625001,69.0,98.0
129,82.90846315625001,83.67769215625,71.0,89.0
130,83.67769215625,84.06070409583333,73.0,93.0
131,84.06230665625,84.44531859583334,73.0,94.0
132,84.44692115625,84.83153565625,73.0,92.0
133,84.83153565625,85.21615015625001,71.0,94.0
134,85.21615015625001,85.60076465625,73.0,93.0
135,85.60076465625,86.00300732083333,76.0,93.0
136,85.98537915625,86.36999365625,71.0,94.0
137,86.36999365625,89.44690965625,73.0,94.0
138,89.44690965625,89.83152415625,66.0,91.0
139,89.83152415625,90.21613865625001,69.0,89.0
140,90.21613865625001,90.60075315625001,66.0,89.0
141,90.60075315625001,90.98536765625,64.0,94.0
142,90.98536765625,91.75459665625,66.0,89.0
143,91.75459665625,92.13921115625,69.0,89.0
144,92.13921115625,92.52382565625,71.0,91.0
145,92.52382565625,93.29145209583334,73.0,91.0
146,93.29305465625,94.06068109583333,73.0,93.0
147,94.06228365625,94.44689815625,73.0,94.0
148,94.44689815625,94.63920540625,76.0,91.0
149,94.63920540625,94.83151265625,73.0,91.0
150,94.83151265625,95.21612715625,71.0,98.0
151,95.21612715625,95.60074165625001,69.0,89.0
152,95.60074165625001,95.98375359583333,71.0,92.0
153,95.98535615625,96.75458515625,71.0,94.0
154,96.75458515625,97.13919965625,69.0,91.0
155,97.13919965625,97.90842865625001,71.0,96.0
156,97.90842865625001,98.67765765625,73.0,88.0
157,98.67765765625,99.06227215625,71.0,94.0
158,99.06227215625,99.25457940625,73.0,88.0
159,99.25457940625,99.44688665625,71.0,91.0
160,99.44688665625,99.83150115625,69.0,94.0
161,99.83150115625,100.21611565625,71.0,91.0
162,100.21611565625,101.75297109583333,66.0,93.0
163,101.75457365625,102.13918815625,66.0,91.0
164,102.13918815625,102.52380265625,69.0,89.0
165,102.52380265625,102.90841715625001,66.0,89.0
166,102.90841715625001,103.29303165625001,64.0,94.0
167,103.29303165625001,104.06226065625,66.0,89.0
168,104.06226065625,104.44687515625,69.0,89.0
169,104.44687515625,104.83148965625,73.0,91.0
170,104.83148965625,105.59911609583334,71.0,91.0
171,105.60071865625001,106.36834509583333,71.0,93.0
172,106.36994765625,106.75456215625,71.0,94.0
173,106.75456215625,106.94686940625,73.0,91.0
174,106.94686940625,107.13917665625,71.0,91.0
175,107.13917665625,107.52379115625,69.0,98.0
176,107.52379115625,108.29302015625001,71.0,89.0
177,108.29302015625001,108.67763465625,73.0,93.0
178,108.67763465625,109.06224915625,71.0,94.0
179,109.06224915625,109.44686365625,73.0,92.0
180,109.44686365625,110.02378540625,76.0,94.0
181,110.02378540625,110.60070715625001,71.0,93.0
182,110.60070715625001,111.00294982083334,73.0,93.0
183,110.98532165625001,111.56224340625,64.0,94.0
184,111.56224340625,114.12634007291668,66.0,88.0
185,125.59265985416667,126.00932556250001,69.0,91.0
186,125.99810763958334,126.40355542500001,68.0,91.0
187,126.37150421666666,127.43400177291667,66.0,87.0
188,128.66476817291667,129.40515108541666,73.0,72.0
189,129.43720229375,130.98848077708334,71.0,68.0
190,131.79617122708333,132.31860592291667,71.0,68.0
191,132.29617007708333,132.56540022708333,69.0,68.0
192,132.53334901875002,133.85385880208335,68.0,68.0
193,134.83142065625,135.22565051875,73.0,68.0
194,135.22565051875,135.6631495125,71.0,68.0
195,135.93077710208334,137.595837375,66.0,68.0
196,138.67756565625,139.06218015625,61.0,88.0
197,139.06218015625,139.44679465625,69.0,88.0
198,139.44679465625,139.83140915625,66.0,85.0
199,139.83140915625,140.21602365625,64.0,91.0
200,140.21602365625,140.98365009583333,61.0,92.0
201,140.98525265625,141.36986715625,61.0,90.0
202,141.36986715625,141.75448165625,64.0,91.0
203,141.75448165625,142.13909615625,66.0,87.0
204,142.13909615625,142.52371065625002,69.0,91.0
205,142.52371065625002,142.9227482,66.0,88.0
206,142.90832515625002,143.29293965625,64.0,89.0
207,143.29293965625,144.82979509583333,66.0,91.0
208,144.83139765625,145.21601215625,66.0,93.0
209,145.21601215625,145.59902409583333,71.0,89.0
210,145.60062665625,145.98524115625,71.0,89.0
211,145.98524115625,146.36985565625,73.0,91.0
212,146.36985565625,147.13908465625,71.0,88.0
213,147.13908465625,147.52369915625002,69.0,93.0
214,147.52369915625002,147.90831365625002,66.0,91.0
215,147.90831365625002,148.29292815625,64.0,94.0
216,148.29292815625,148.67594009583334,66.0,89.0
217,148.67754265625,149.06215715625,66.0,90.0
218,149.06215715625,149.44677165625,64.0,88.0
219,149.44677165625,150.98362709583333,61.0,87.0
220,150.98522965625,151.36984415625,61.0,91.0
221,151.36984415625,151.75445865625,69.0,89.0
222,151.75445865625,152.13907315625,66.0,87.0
223,152.13907315625,152.52368765625002,64.0,88.0
224,152.52368765625002,153.29291665625001,61.0,88.0
225,153.29291665625001,153.67753115625,64.0,98.0
226,153.67753115625,154.06214565625,66.0,93.0
227,154.06214565625,154.82977209583333,71.0,92.0
228,154.83137465625,155.59900109583333,71.0,88.0
229,155.60060365625,157.13906165625,71.0,88.0
230,157.13906165625,157.52367615625,66.0,85.0
231,157.52367615625,157.90668809583335,71.0,88.0
232,157.90829065625002,158.29290515625001,71.0,83.0
233,158.29290515625001,158.67751965625,73.0,91.0
234,158.67751965625,159.44514609583334,71.0,88.0
235,159.44674865625,159.83136315625,71.0,91.0
236,159.83136315625,160.21597765625,73.0,87.0
237,160.21597765625,160.98520665625,64.0,93.0
238,160.98520665625,161.75443565625,69.0,87.0
239,161.75443565625,166.36820709583333,66.0,88.0
240,166.36980965625,166.75442415625,66.0,91.0
241,166.75442415625,167.13903865625,69.0,89.0
242,167.13903865625,167.52365315625,66.0,89.0
243,167.52365315625,167.90826765625002,64.0,94.0
244,167.90826765625002,168.67749665625,66.0,89.0
245,168.67749665625,169.06211115625,69.0,89.0
246,169.06211115625,169.44672565625,71.0,91.0
247,169.44672565625,170.21435209583333,73.0,91.0
248,170.21595465625,170.98358109583333,73.0,93.0
249,170.98518365625,171.36979815625,73.0,94.0
250,171.36979815625,171.56210540625,76.0,91.0
251,171.56210540625,171.75441265625,73.0,91.0
252,171.75441265625,172.13902715625,71.0,98.0
253,172.13902715625,172.52364165625,69.0,89.0
254,172.52364165625,172.90665359583335,71.0,92.0
255,172.90825615625002,173.67748515625001,71.0,94.0
256,173.67748515625001,174.06209965625,69.0,91.0
257,174.06209965625,174.83132865625,71.0,96.0
258,174.83132865625,175.60055765625,73.0,88.0
259,175.60055765625,175.98517215625,71.0,94.0
260,175.98517215625,176.17747940625,73.0,88.0
261,176.17747940625,176.36978665625,71.0,91.0
262,176.36978665625,176.75440115625,69.0,94.0
263,176.75440115625,177.13901565625,71.0,91.0
264,177.13901565625,178.67587109583334,66.0,93.0
265,178.67747365625002,179.06208815625,66.0,91.0
266,179.06208815625,179.44670265625,69.0,89.0
267,179.44670265625,179.83131715625,66.0,89.0
268,179.83131715625,180.21593165625,64.0,94.0
269,180.21593165625,180.98516065625,66.0,89.0
270,180.98516065625,181.36977515625,69.0,89.0
271,181.36977515625,181.75438965625,73.0,91.0
272,181.75438965625,182.52201609583335,71.0,91.0
273,182.52361865625,183.29124509583335,71.0,93.0
274,183.29284765625002,183.67746215625002,71.0,94.0
275,183.67746215625002,183.86976940625001,73.0,91.0
276,183.86976940625001,184.06207665625,71.0,91.0
277,184.06207665625,184.44669115625,69.0,98.0
278,184.44669115625,185.21592015625,71.0,89.0
279,185.21592015625,185.59893209583333,73.0,93.0
280,185.60053465625,185.98354659583333,73.0,94.0
281,185.98514915625,186.36976365625,73.0,92.0
282,186.36976365625,186.75437815625,71.0,94.0
283,186.75437815625,187.13899265625,73.0,93.0
284,187.13899265625,187.54123532083335,76.0,93.0
285,187.52360715625,187.90822165625,71.0,94.0
286,187.90822165625,190.98513765625,73.0,94.0
287,190.98513765625,191.36975215625,66.0,91.0
288,191.36975215625,191.75436665625,69.0,89.0
289,191.75436665625,192.13898115625,66.0,89.0
290,192.13898115625,192.52359565625,64.0,94.0
291,192.52359565625,193.29282465625002,66.0,89.0
292,193.29282465625002,193.67743915625002,69.0,89.0
293,193.67743915625002,194.06205365625001,71.0,91.0
294,194.06205365625001,194.82968009583334,73.0,91.0
295,194.83128265625,195.59890909583333,73.0,93.0
296,195.60051165625,195.98512615625,73.0,94.0
297,195.98512615625,196.17743340625,76.0,91.0
298,196.17743340625,196.36974065625,73.0,91.0
299,196.36974065625,196.75435515625,71.0,98.0
300,196.75435515625,197.13896965625,69.0,89.0
301,197.13896965625,197.52198159583335,71.0,92.0
302,197.52358415625,198.29281315625002,71.0,94.0
303,198.29281315625002,198.67742765625002,69.0,91.0
304,198.67742765625002,199.44665665625,71.0,96.0
305,199.44665665625,200.21588565625,73.0,88.0
306,200.21588565625,200.60050015625,71.0,94.0
307,200.60050015625,200.79280740625,73.0,88.0
308,200.79280740625,200.98511465625,71.0,91.0
309,200.98511465625,201.36972915625,69.0,94.0
310,201.36972915625,201.75434365625,71.0,91.0
311,201.75434365625,203.29119909583335,66.0,93.0
312,203.29280165625002,203.67741615625002,66.0,91.0
313,203.67741615625002,204.06203065625002,69.0,89.0
314,204.06203065625002,204.44664515625,66.0,89.0
315,204.44664515625,204.83125965625,64.0,94.0
316,204.83125965625,205.60048865625,66.0,89.0
317,205.60048865625,205.98510315625,69.0,89.0
318,205.98510315625,206.36971765625,73.0,91.0
319,206.36971765625,207.13734409583333,71.0,91.0
320,207.13894665625,207.90657309583335,71.0,93.0
321,207.90817565625,208.29279015625,71.0,94.0
322,208.29279015625,208.48509740625002,73.0,91.0
323,208.48509740625002,208.67740465625002,71.0,91.0
324,208.67740465625002,209.06201915625002,69.0,98.0
325,209.06201915625002,209.83124815625,71.0,89.0
326,209.83124815625,210.21586265625,73.0,93.0
327,210.21586265625,210.60047715625,71.0,94.0
328,210.60047715625,210.98509165625,73.0,92.0
329,210.98509165625,211.56201340625,76.0,94.0
330,211.56201340625,212.13893515625,71.0,93.0
331,212.13893515625,212.54117782083333,73.0,93.0
332,212.52354965625,213.10047140625,64.0,94.0
333,213.10047140625,215.59886309583334,66.0,88.0
334,215.60046565625,215.98508015625,66.0,91.0
335,215.98508015625,216.36969465625,69.0,89.0
336,216.36969465625,216.75430915625,66.0,89.0
337,216.75430915625,217.13892365625,64.0,94.0
338,217.13892365625,217.90815265625,66.0,89.0
339,217.90815265625,218.29276715625,69.0,89.0
340,218.29276715625,218.67738165625002,71.0,91.0
341,218.67738165625002,219.44500809583334,73.0,91.0
342,219.44661065625002,220.21423709583334,73.0,93.0
343,220.21583965625,220.60045415625,73.0,94.0
344,220.60045415625,220.79276140625,76.0,91.0
345,220.79276140625,220.98506865625,73.0,91.0
346,220.98506865625,221.36968315625,71.0,98.0
347,221.36968315625,221.75429765625,69.0,89.0
348,221.75429765625,222.13730959583333,71.0,92.0
349,222.13891215625,222.90814115625,71.0,94.0
350,222.90814115625,223.29275565625,69.0,91.0
351,223.29275565625,224.06198465625002,71.0,96.0
352,224.06198465625002,224.83121365625001,73.0,88.0
353,224.83121365625001,225.21582815625,71.0,94.0
354,225.21582815625,225.40813540625,73.0,88.0
355,225.40813540625,225.60044265625,71.0,91.0
356,225.60044265625,225.98505715625,69.0,94.0
357,225.98505715625,226.36967165625,71.0,91.0
358,226.36967165625,227.90652709583335,66.0,93.0
359,227.90812965625,228.29274415625,66.0,91.0
360,228.29274415625,228.67735865625,69.0,89.0
361,228.67735865625,229.06197315625002,66.0,89.0
362,229.06197315625002,229.44658765625002,64.0,94.0
363,229.44658765625002,230.21581665625,66.0,89.0
364,230.21581665625,230.60043115625,69.0,89.0
365,230.60043115625,230.98504565625,73.0,91.0
366,230.98504565625,231.75267209583333,71.0,91.0
367,231.75427465625,232.52190109583333,71.0,93.0
368,232.52350365625,232.90811815625,71.0,94.0
369,232.90811815625,233.10042540625,73.0,91.0
370,233.10042540625,233.29273265625,71.0,91.0
371,233.29273265625,233.67734715625,69.0,98.0
372,233.67734715625,234.44657615625002,71.0,89.0
373,234.44657615625002,234.83119065625002,73.0,93.0
374,234.83119065625002,235.21580515625,71.0,94.0
375,235.21580515625,235.60041965625,73.0,92.0
376,235.60041965625,235.98503415625,71.0,94.0
377,235.98503415625,236.36964865625,73.0,93.0
378,236.36964865625,236.77189132083333,76.0,93.0
379,236.75426315625,237.13887765625,71.0,94.0
380,237.13887765625,239.8327817166667,73.0,88.0
