,start,end,pitch,velocity
0,3.0512750333333334,3.5288380375,61.0,70.0
1,3.20672339375,3.6185814208333333,69.0,83.0
2,3.1330056145833334,3.6330044645833333,66.0,78.0
3,3.83172195625,4.294861916666667,61.0,73.0
4,4.198708291666667,4.467938441666667,69.0,74.0
5,5.1730650250000005,5.45671821875,61.0,60.0
6,5.371782516666666,5.487166866666667,66.0,76.0
7,3.616978860416667,5.681076677083333,49.0,60.0
8,5.592935854166667,5.729153489583333,69.0,83.0
9,3.1858901083333335,6.041652770833333,42.0,88.0
10,5.775627741666667,6.075306539583334,49.0,76.0
11,5.9791529145833335,6.161844802083333,61.0,78.0
12,6.325305964583333,6.608959158333334,61.0,76.0
13,6.323703404166666,6.749984475000001,66.0,81.0
14,6.347741810416667,6.762804958333334,69.0,82.0
15,6.939086604166667,7.2579961270833335,61.0,74.0
16,7.3365215875,7.548059562500001,66.0,74.0
17,7.924661260416667,8.051263533333334,61.0,68.0
18,7.8926100520833335,8.128186433333333,69.0,81.0
19,8.50478813125,8.645813447916668,61.0,63.0
20,8.488762527083333,8.657031370833334,66.0,73.0
21,6.754792156250001,8.963120410416668,49.0,55.0
22,8.842928379166667,8.9999793,61.0,70.0
23,9.067286837500001,9.249978725,69.0,86.0
24,6.37017765625,9.2980555375,42.0,85.0
25,9.301260658333334,9.9134387375,61.0,73.0
26,9.442285975,9.9134387375,69.0,84.0
27,9.374978437500001,9.931066902083334,66.0,78.0
28,9.809272310416667,10.429463191666667,49.0,61.0
29,10.2403610625,10.525616816666666,61.0,63.0
30,10.20670729375,10.58170643125,69.0,83.0
31,10.217925216666668,10.61055251875,66.0,75.0
32,10.767603439583334,11.190679389583334,61.0,75.0
33,11.15862818125,11.400614804166667,66.0,74.0
34,11.352537991666667,11.684267997916667,61.0,74.0
35,11.573691329166667,11.782024183333334,66.0,73.0
36,11.74516529375,12.025613366666667,69.0,87.0
37,10.602539716666668,12.084908102083334,49.0,51.0
38,12.126574672916668,12.277215352083333,66.0,75.0
39,9.411837327083333,12.278817912500001,42.0,89.0
40,11.931062302083333,12.306061439583333,61.0,77.0
41,12.517599414583334,12.820483333333334,61.0,75.0
42,12.503176370833334,13.10093140625,69.0,83.0
43,13.102533966666668,13.4615075,66.0,80.0
44,13.4711228625,13.998365239583334,61.0,71.0
45,13.70669924375,14.073685579166668,66.0,75.0
46,14.0672753375,14.536825539583333,69.0,87.0
47,12.903816475000001,14.613748439583334,49.0,62.0
48,12.506381491666668,14.655415010416666,42.0,82.0
49,14.43746679375,14.921440039583334,61.0,72.0
50,14.655415010416666,15.091311443750001,66.0,81.0
51,15.04323463125,15.314067341666668,69.0,87.0
52,15.599323095833334,15.959899189583334,62.0,85.0
53,15.597720535416666,15.977527354166668,59.0,83.0
54,16.189065329166667,16.632974564583336,66.0,81.0
55,16.765987079166667,17.036819789583333,62.0,82.0
56,16.554449104166668,17.040024910416665,59.0,77.0
57,15.983937595833334,17.3076525,54.0,66.0
58,17.16502462291667,17.453485497916667,59.0,78.0
59,17.15861438125,17.520793035416666,62.0,80.0
60,17.1538067,17.551241683333334,66.0,76.0
61,17.514382793750002,17.80284366875,54.0,58.0
62,17.69867724166667,18.158612081250002,59.0,84.0
63,17.950279227083335,18.163419762500002,54.0,58.0
64,15.59131029375,18.37656029791667,47.0,87.0
65,18.110535268750002,18.546431702083336,62.0,84.0
66,18.277201552083334,18.640982766666667,59.0,81.0
67,18.661816052083335,18.785213204166666,37.0,81.0
68,18.56245730625,18.794828566666666,61.0,68.0
69,18.640982766666667,19.28360949375,64.0,83.0
70,18.684251897916667,19.326878625,68.0,77.0
71,19.06405871666667,19.575275489583333,49.0,91.0
72,19.257968527083335,19.72751872916667,56.0,62.0
73,19.599313895833333,19.897390133333335,61.0,82.0
74,19.823672354166668,20.354119852083333,68.0,78.0
75,20.7980290875,21.16822054375,54.0,83.0
76,20.583285991666667,21.2403357625,49.0,74.0
77,21.136169335416668,21.350912431250002,61.0,82.0
78,20.213094535416666,21.4134122875,42.0,76.0
79,21.330079145833334,21.51597615416667,49.0,76.0
80,21.57366832916667,21.897385533333335,61.0,72.0
81,21.642578427083333,22.214692495833333,66.0,78.0
82,21.724309008333336,22.22591041875,69.0,86.0
83,22.310846120833332,22.743537433333334,61.0,75.0
84,22.681037577083334,22.942254925,66.0,82.0
85,22.878152508333333,23.225908118750002,61.0,76.0
86,22.10091070625,23.536804839583333,49.0,66.0
87,23.296420777083334,23.551227883333333,61.0,82.0
88,23.291613095833334,23.767573539583335,69.0,87.0
89,23.67783015625,23.950265427083334,49.0,70.0
90,21.7018731625,23.980714075,42.0,87.0
91,23.874945087500002,24.11212402916667,61.0,82.0
92,23.870137406250002,24.253149345833336,66.0,80.0
93,24.243533983333332,24.480712925000002,61.0,77.0
94,23.881355329166666,24.498341089583334,69.0,82.0
95,24.81404549166667,25.248339364583334,59.0,87.0
96,24.81244293125,25.27398033125,62.0,83.0
97,25.201865112500002,25.6634025125,54.0,74.0
98,25.41019796666667,25.793209906250002,66.0,81.0
99,25.799620147916666,26.285195954166667,54.0,75.0
100,24.810840370833333,26.294811316666667,47.0,86.0
101,25.98711971666667,26.5095544125,59.0,81.0
102,26.190644889583336,26.546413302083334,62.0,81.0
103,26.7403231125,27.145770897916666,54.0,73.0
104,26.915002197916667,27.435834333333336,59.0,85.0
105,27.25634756666667,27.57205196875,54.0,79.0
106,26.368529095833335,27.602500616666667,47.0,87.0
107,27.455065058333336,27.854102602083334,62.0,82.0
108,27.653782550000003,27.90538453541667,59.0,82.0
109,28.477498604166666,28.858907983333335,61.0,77.0
110,28.806023489583335,29.068843397916666,64.0,81.0
111,27.868525645833333,29.23550968125,49.0,83.0
112,28.288396475000003,29.277176252083333,56.0,75.0
113,28.995125618750002,29.30281721875,61.0,79.0
114,29.376534997916668,29.8364698375,61.0,81.0
115,29.3845478,29.84768776041667,64.0,85.0
116,29.371727316666668,30.0672385375,68.0,85.0
117,29.78518790416667,30.241917622916667,56.0,73.0
118,29.382945239583336,30.246725304166667,49.0,85.0
119,29.977495154166668,30.41819926875,61.0,83.0
120,30.36050709375,30.575250189583333,64.0,83.0
121,30.531981058333333,30.681019177083336,61.0,79.0
122,30.966274931250002,31.358902233333335,61.0,78.0
123,30.956659568750002,31.541594120833334,69.0,87.0
124,30.972685172916666,31.578453010416666,66.0,77.0
125,31.548004362500002,31.9999264,61.0,85.0
126,31.943836785416668,32.21306693541667,66.0,77.0
127,30.955057008333334,32.36370761458333,42.0,82.0
128,31.342876629166668,32.365310175,49.0,67.0
129,32.12652867291667,32.38614346041667,61.0,72.0
130,32.48870732708333,32.92780888125,61.0,75.0
131,32.485502206250004,33.099282845833336,66.0,77.0
132,32.48389964583333,33.116911010416665,69.0,82.0
133,33.059218835416665,33.33165410625,61.0,75.0
134,33.262744008333335,33.60729449791667,66.0,81.0
135,32.87973206875,33.81081967083333,49.0,67.0
136,32.47909196458333,33.83005039583333,42.0,75.0
137,33.91017841666667,34.4518438375,61.0,75.0
138,34.00152436041667,34.536779539583335,66.0,80.0
139,34.06402421666667,34.54479234166667,69.0,88.0
140,34.634535725,35.05600911458333,61.0,75.0
141,35.00312462083333,35.26434196875,66.0,77.0
142,35.2018421125,35.477482504166666,61.0,75.0
143,35.58164893125,35.7979945875,61.0,80.0
144,35.583251491666665,36.04959657291667,69.0,83.0
145,35.95344294791667,36.05440425416667,61.0,66.0
146,36.15536556041667,36.32523696458333,61.0,77.0
147,36.147352758333334,36.56081334583333,66.0,78.0
148,36.51754421458333,36.81562045208334,61.0,72.0
149,36.73068475,37.1441453375,66.0,81.0
150,34.43742079375,37.190619589583335,49.0,67.0
151,34.03357556875,37.20664519375,42.0,88.0
152,37.13933765625,37.20664519375,42.0,75.0
153,37.13933765625,37.68901587916667,61.0,81.0
154,37.13933765625,37.97427163333334,54.0,75.0
155,37.523952156250004,38.04318173125,49.0,61.0
156,37.90856665625,38.68741101875,57.0,83.0
157,38.29318115625,38.80119280833333,49.0,67.0
158,38.67779565625,38.951833487500004,61.0,83.0
159,39.44702465625,39.74510089375,61.0,83.0
160,39.44702465625,39.916574858333334,54.0,82.0
161,39.06241015625,39.964651670833334,49.0,40.0
162,40.216253656250004,40.597663035416666,66.0,81.0
163,40.216253656250004,40.878111108333336,54.0,67.0
164,40.98548265625,41.408558606250004,61.0,82.0
165,41.370097156250004,41.59125049375,57.0,77.0
166,40.60086815625,41.852467841666666,49.0,63.0
167,41.75471165625,42.330030845833335,61.0,77.0
168,42.13932615625,42.74188887291667,49.0,47.0
169,42.52394065625,42.80118360833333,57.0,74.0
170,42.52394065625,42.81240153125,61.0,79.0
171,40.216253656250004,42.8556706625,42.0,76.0
172,42.52394065625,42.86368346458333,54.0,69.0
173,43.67778415625,44.16816764375,54.0,73.0
174,44.062398656250004,44.834832777083335,62.0,84.0
175,44.062398656250004,44.854063502083335,59.0,80.0
176,44.44701315625,45.055986114583334,54.0,67.0
177,43.29316965625,45.71624100625,47.0,87.0
178,45.216242156250004,45.7210486875,54.0,61.0
179,44.83162765625,45.756305016666666,66.0,79.0
180,45.60085665625,45.882907289583336,62.0,82.0
181,46.37008565625,46.88931523125,64.0,81.0
182,46.37008565625,47.006302141666666,68.0,76.0
183,46.75470015625,47.15854538125,59.0,77.0
184,46.37008565625,47.193801710416665,52.0,87.0
185,47.13931465625,47.3364295875,64.0,89.0
186,47.90854365625,48.67777265625,68.0,74.0
187,47.90854365625,48.700208502083335,61.0,77.0
188,48.29315815625,48.74508019375,56.0,81.0
189,47.90854365625,48.7691186,49.0,78.0
190,48.67777265625,49.081617881250004,64.0,88.0
191,49.062387156250004,49.17136126458333,61.0,85.0
192,50.216230656250005,50.64892196875,57.0,86.0
193,50.60084515625,50.83481897708334,54.0,71.0
194,49.83161615625,51.08161328125,49.0,79.0
195,50.98545965625,51.365266475,61.0,79.0
196,51.75468865625,52.073598179166666,66.0,84.0
197,51.37007415625,52.121674991666666,49.0,56.0
198,49.44700165625,52.13770059583334,42.0,87.0
199,52.908532156250004,52.975839693750004,59.0,81.0
200,53.67776115625,54.09442686458333,62.0,81.0
201,53.29314665625,54.20981121458333,54.0,80.0
202,54.062375656250005,54.833207216666665,66.0,80.0
203,54.44699015625,54.90532243541667,54.0,68.0
204,52.52391765625,55.00468118125,47.0,85.0
205,54.83160465625,55.017501664583335,59.0,80.0
206,54.83160465625,55.03833495,62.0,83.0
207,55.60083365625,56.099229945833336,64.0,83.0
208,55.60083365625,56.17455028541667,68.0,80.0
209,56.37006265625,56.95820232916667,68.0,76.0
210,57.13929165625,57.73544413125,64.0,79.0
211,57.13929165625,57.7690979,71.0,83.0
212,56.754677156250004,57.84281567916667,56.0,69.0
213,55.98544815625,57.975828193750004,59.0,78.0
214,55.60083365625,58.00627684166667,52.0,89.0
215,57.908520656250005,58.25787882708334,68.0,82.0
216,59.44697865625,59.95338774791667,57.0,86.0
217,59.83159315625,60.25466910625,61.0,73.0
218,59.06236415625,60.44056611458333,49.0,73.0
219,60.21620765625,60.668129693750004,66.0,87.0
220,60.600822156250004,61.116846610416665,49.0,64.0
221,60.98543665625,61.76267845833333,54.0,80.0
222,61.58319169166667,61.76267845833333,54.0,75.0
223,60.98543665625,61.77710150208333,61.0,79.0
224,61.725819568750005,61.77710150208333,61.0,80.0
225,61.37005115625,61.797934787500004,49.0,76.0
226,61.69376836041667,61.81556295208333,57.0,84.0
227,58.67774965625,61.821973193750004,42.0,81.0
228,61.72421700833333,61.821973193750004,42.0,87.0
229,61.773896381250005,62.14088271666667,66.0,82.0
230,62.89568867291667,63.129662493750004,66.0,77.0
231,62.55434330416667,63.44536689583334,61.0,78.0
232,63.27068781041667,63.92934014166667,66.0,80.0
233,63.27389293125,63.94376318541667,73.0,73.0
234,63.65850743125,64.15530116041667,61.0,61.0
235,62.1633185625,64.47421068333334,54.0,88.0
236,64.40530058541667,64.70337682291667,61.0,75.0
237,64.04312193125,64.76747923958334,66.0,83.0
238,64.04472449166667,64.76747923958334,69.0,89.0
239,65.21619615625,65.80433582916667,49.0,73.0
240,65.60081065625,66.41170622708333,57.0,83.0
241,65.98542515625,66.53510337916667,49.0,69.0
242,66.37003965625,66.5671545875,61.0,87.0
243,67.13926865625,67.43574233333334,66.0,81.0
244,67.13926865625,67.45657561875001,54.0,92.0
245,64.83158165625001,67.69375456041666,42.0,88.0
246,66.75465415625,67.75465185625,49.0,64.0
247,68.67772665625,69.1248410125,57.0,87.0
248,69.06234115625,69.51586575416667,54.0,88.0
249,68.29311215625,69.61201937916667,49.0,76.0
250,69.44695565625,69.8748392875,66.0,84.0
251,67.90849765625,70.28349219375,42.0,82.0
252,69.83157015625,70.28509475416666,49.0,71.0
253,70.21618465625001,70.403684225,54.0,87.0
254,70.21618465625001,70.58477355208333,57.0,88.0
255,70.60079915625,70.70336302291666,54.0,88.0
256,70.98541365625,71.83316811666667,59.0,87.0
257,71.37002815625,71.90528333541667,54.0,74.0
258,71.75464265625,72.58957663333334,62.0,84.0
259,72.13925715625,72.62002528125001,54.0,70.0
260,72.52387165625001,72.8556016625,66.0,88.0
261,72.90848615625,73.31553650208333,54.0,63.0
262,70.98541365625,73.42931829166668,47.0,87.0
263,73.29310065625,73.4325234125,59.0,86.0
264,73.29310065625,73.55431800416667,62.0,88.0
265,73.29310065625,73.67931771666667,66.0,87.0
266,73.67771515625,73.91168897708333,59.0,84.0
267,74.06232965625,74.2979060375,61.0,78.0
268,74.06232965625,74.326752125,64.0,87.0
269,74.44694415625,74.8555970625,56.0,72.0
270,74.06232965625,74.90207131458334,49.0,89.0
271,74.83155865625,75.26424996875001,61.0,85.0
272,75.21617315625001,75.36040359375001,49.0,75.0
273,75.60078765625,76.66168265208334,42.0,86.0
274,75.98540215625,76.73219531041667,49.0,81.0
275,76.37001665625,76.81232333125,57.0,82.0
276,76.37001665625,76.8748231875,54.0,83.0
277,76.37001665625,76.90687439583334,61.0,82.0
278,77.13924565625,77.54629600208334,66.0,80.0
279,77.13924565625,77.81712871250001,54.0,82.0
280,77.52386015625001,78.06552557708333,49.0,75.0
281,77.90847465625001,78.37001205625,57.0,81.0
282,77.13924565625,78.97257477291667,42.0,84.0
283,78.29308915625,79.21776651666667,54.0,90.0
284,79.06231815625,79.24501004375,57.0,81.0
285,78.67770365625,79.26103564791667,61.0,88.0
286,79.44693265625,79.63923990625,57.0,88.0
287,79.44693265625,79.65847063125,61.0,81.0
288,79.44693265625,79.66488087291667,54.0,87.0
289,79.44693265625,79.85718812291667,66.0,84.0
290,80.21616165625001,81.05109563333333,62.0,83.0
291,80.60077615625,81.15686462083333,54.0,73.0
292,80.98539065625,81.79628622708334,66.0,83.0
293,80.21616165625001,81.95493970833334,59.0,80.0
294,81.37000515625,81.99340115833334,54.0,70.0
295,81.75461965625,81.9998114,62.0,44.0
296,81.75461965625,82.28987483541667,71.0,88.0
297,82.13923415625,82.43731039375,59.0,84.0
298,82.52384865625,82.57833571041667,59.0,78.0
299,80.21616165625001,82.76904040000001,47.0,87.0
300,82.52384865625,82.91006571666667,62.0,90.0
301,82.52384865625,82.93250156250001,66.0,80.0
302,82.90846315625001,83.03025774791666,59.0,88.0
303,83.29307765625,83.41487224791666,37.0,83.0
304,83.29307765625,84.26743438958333,61.0,85.0
305,83.29307765625,84.53345941875,64.0,88.0
306,84.44692115625,84.94531744583334,61.0,88.0
307,84.06230665625,84.97576609375,56.0,86.0
308,84.83153565625,85.26582952916667,68.0,87.0
309,84.83153565625,85.26743208958334,64.0,88.0
310,85.02384290625,85.64884146875,61.0,47.0
311,85.60076465625,85.76743093958333,64.0,89.0
312,85.21615015625001,86.00300732083333,56.0,70.0
313,85.60076465625,86.06550717708333,68.0,90.0
314,83.67769215625,86.09435326458333,49.0,84.0
315,85.98537915625,86.26582722916667,61.0,80.0
316,86.36999365625,86.8748001875,61.0,88.0
317,86.36999365625,87.30909406041667,49.0,90.0
318,86.75460815625,87.34595295,56.0,75.0
319,87.13922265625,87.36358111458334,61.0,89.0
320,87.13922265625,87.74018281250001,68.0,86.0
321,87.52383715625,87.78986218541667,61.0,77.0
322,87.90845165625001,88.30428407916666,68.0,83.0
323,87.90845165625001,88.34114296875,61.0,89.0
324,88.29306615625,88.77383428125,56.0,75.0
325,88.29306615625,88.79466756666667,49.0,74.0
326,88.67768065625,89.40043540416667,61.0,96.0
327,89.06229515625,89.44530709583334,49.0,85.0
328,89.06229515625,89.44851221666667,56.0,87.0
329,88.67768065625,89.45973013958334,73.0,87.0
330,89.83152415625,90.41966382916667,49.0,73.0
331,90.21613865625001,91.02703422708333,57.0,83.0
332,90.60075315625001,91.15043137916668,49.0,69.0
333,90.98536765625,91.1824825875,61.0,87.0
334,91.75459665625,92.05107033333334,66.0,81.0
335,91.75459665625,92.07190361875,54.0,92.0
336,89.44690965625,92.30908256041667,42.0,88.0
337,91.36998215625,92.36997985625,49.0,64.0
338,93.29305465625,93.7401690125,57.0,87.0
339,93.67766915625,94.13119375416667,54.0,88.0
340,92.90844015625001,94.22734737916667,49.0,76.0
341,94.06228365625,94.4901672875,66.0,84.0
342,92.52382565625,94.89882019375,42.0,82.0
343,94.44689815625,94.90042275416667,49.0,71.0
344,94.83151265625,95.019012225,54.0,87.0
345,94.83151265625,95.20010155208334,57.0,88.0
346,95.21612715625,95.31869102291667,54.0,88.0
347,95.60074165625001,96.44849611666667,59.0,87.0
348,95.98535615625,96.52061133541667,54.0,74.0
349,96.36997065625,97.20490463333334,62.0,84.0
350,96.75458515625,97.23535328125,54.0,70.0
351,97.13919965625,97.4709296625,66.0,88.0
352,97.52381415625,97.93086450208334,54.0,63.0
353,95.60074165625001,98.04464629166667,47.0,87.0
354,97.90842865625001,98.04785141250001,59.0,86.0
355,97.90842865625001,98.16964600416667,62.0,88.0
356,97.90842865625001,98.29464571666666,66.0,87.0
357,98.29304315625001,98.52701697708333,59.0,84.0
358,98.67765765625,98.9132340375,61.0,78.0
359,98.67765765625,98.942080125,64.0,87.0
360,99.06227215625,99.4709250625,56.0,72.0
361,98.67765765625,99.51739931458333,49.0,89.0
362,99.44688665625,99.87156516666667,68.0,80.0
363,99.44688665625,99.87957796875,61.0,85.0
364,99.83150115625,99.97573159375,49.0,75.0
365,100.21611565625,101.27701065208333,42.0,86.0
366,100.60073015625001,101.34752331041668,49.0,81.0
367,100.98534465625,101.42765133125,57.0,82.0
368,100.98534465625,101.4901511875,54.0,83.0
369,100.98534465625,101.52220239583333,61.0,82.0
370,101.75457365625,102.16162400208334,66.0,80.0
371,101.75457365625,102.4324567125,54.0,82.0
372,102.13918815625,102.68085357708334,49.0,75.0
373,102.52380265625,102.98534005625001,57.0,81.0
374,101.75457365625,103.58790277291666,42.0,84.0
375,102.90841715625001,103.83309451666668,54.0,90.0
376,103.67764615625,103.86033804375,57.0,81.0
377,103.29303165625001,103.87636364791668,61.0,88.0
378,104.06226065625,104.25456790625,57.0,88.0
379,104.06226065625,104.27379863125,61.0,81.0
380,104.06226065625,104.28020887291667,54.0,87.0
381,104.06226065625,104.47251612291667,66.0,84.0
382,104.83148965625,105.66642363333334,62.0,83.0
383,105.21610415625,105.77219262083334,54.0,73.0
384,105.60071865625001,106.41161422708333,66.0,83.0
385,104.83148965625,106.57026770833333,59.0,80.0
386,105.98533315625001,106.60872915833333,54.0,70.0
387,106.36994765625,106.6151394,62.0,44.0
388,106.36994765625,106.90520283541667,71.0,88.0
389,106.75456215625,107.05263839375,59.0,84.0
390,107.13917665625,107.19366371041667,59.0,78.0
391,104.83148965625,107.3843684,47.0,87.0
392,107.13917665625,107.52539371666667,62.0,90.0
393,107.13917665625,107.5478295625,66.0,80.0
394,107.52379115625,107.64558574791667,59.0,88.0
395,107.90840565625,108.03020024791667,37.0,83.0
396,107.90840565625,108.88276238958333,61.0,85.0
397,107.90840565625,109.14878741875,64.0,88.0
398,109.06224915625,109.56064544583333,61.0,88.0
399,108.67763465625,109.59109409375,56.0,86.0
400,109.44686365625,109.88115752916667,68.0,87.0
401,109.44686365625,109.88276008958334,64.0,88.0
402,109.63917090625,110.26416946875,61.0,47.0
403,110.21609265625,110.38275893958334,64.0,89.0
404,109.83147815625,110.61833532083334,56.0,70.0
405,110.21609265625,110.68083517708334,68.0,90.0
406,108.29302015625001,110.70968126458334,49.0,84.0
407,110.60070715625001,110.88115522916667,61.0,80.0
408,110.98532165625001,111.64878166875,61.0,80.0
409,110.98532165625001,111.65358935,66.0,82.0
410,111.75455065625,111.94044766458333,61.0,79.0
411,111.75455065625,112.16640868333333,69.0,87.0
412,112.13916515625,112.326664725,66.0,75.0
413,112.13916515625,112.32986984583334,61.0,71.0
414,111.36993615625,112.64236912708334,49.0,80.0
415,112.52377965625,112.87954806875,73.0,89.0
416,112.90839415625,113.15999614166667,61.0,78.0
417,113.29300865625001,114.01736596458333,66.0,84.0
418,113.29300865625001,114.02698132708333,61.0,79.0
419,110.98532165625001,114.03980181041668,42.0,88.0
420,113.67762315625001,114.06063509583333,49.0,76.0
421,113.29300865625001,114.06223765625,69.0,77.0
422,114.44685215625,114.76415911875,54.0,82.0
423,114.25454490625,114.77217192083334,49.0,75.0
424,114.63915940625,115.19685043125,61.0,87.0
425,115.02377390625,115.24813236458334,57.0,77.0
426,115.21608115625,115.49172154791667,54.0,80.0
427,114.06223765625,115.51736251458334,42.0,85.0
428,115.40838840625,115.79300290625001,61.0,85.0
429,115.79300290625001,116.24492494375001,49.0,69.0
430,115.98531015625001,116.26255310833334,54.0,83.0
431,116.36992465625,116.64075736666668,49.0,69.0
432,116.17761740625001,116.672808575,66.0,91.0
433,115.60069565625,116.7978082875,42.0,81.0
434,116.56223190625,116.83306461666668,61.0,83.0
435,116.75453915625,117.1247306125,54.0,89.0
436,116.94684640625,117.25614056666667,57.0,75.0
437,117.52376815625,117.94524154583334,54.0,76.0
438,117.71607540625,118.10068990625,57.0,86.0
439,118.29299715625001,118.55902218541667,57.0,79.0
440,118.10068990625,118.56543242708334,61.0,79.0
441,117.33146090625,118.61991948125001,49.0,75.0
442,118.67761165625001,118.74171407291666,61.0,61.0
443,118.48530440625001,118.74972687500001,54.0,77.0
444,119.06222615625,119.38914848125,49.0,71.0
445,117.13915365625,119.634340225,42.0,88.0
446,119.44684065625,119.634340225,49.0,73.0
447,118.67761165625001,119.71446824583333,66.0,87.0
448,119.25453340625,119.72889128958333,61.0,84.0
449,119.63914790625,119.86350636458334,57.0,83.0
450,119.83145515625,120.08465970208334,54.0,87.0
451,120.02376240625,120.18081332708334,57.0,84.0
452,120.60068415625,121.06382411666667,54.0,79.0
453,120.79299140625001,121.4324130125,62.0,90.0
454,121.17760590625001,121.634335625,54.0,75.0
455,120.21606965625,121.67600219583333,47.0,88.0
456,121.36991315625,121.81542495208333,59.0,83.0
457,121.56222040625,122.01253988333333,62.0,81.0
458,121.94683490625,122.39555182291667,54.0,75.0
459,122.13914215625,122.40516718541667,59.0,85.0
460,122.33144940625,122.80260216875,66.0,91.0
461,122.52375665625,122.8170252125,54.0,79.0
462,122.71606390625,122.94523004583334,62.0,88.0
463,121.75452765625,122.99170429791667,47.0,89.0
464,122.90837115625,123.18721666875,59.0,83.0
465,123.10067840625,123.25933188750001,62.0,83.0
466,123.67760015625001,123.93400982291666,61.0,88.0
467,123.48529290625001,123.95003542708334,56.0,75.0
468,123.86990740625001,124.45003427708333,68.0,89.0
469,123.29298565625001,124.52375205625,49.0,89.0
470,124.25452190625,124.56381606666667,56.0,87.0
471,124.44682915625,124.71285418541667,61.0,89.0
472,124.63913640625,124.84266157916667,68.0,79.0
473,125.02375090625,125.4612499,49.0,69.0
474,125.21605815625,125.49971135,54.0,82.0
475,125.40836540625,125.711249325,66.0,92.0
476,125.60067265625,125.88272328958334,49.0,81.0
477,124.83144365625,126.04778701250001,42.0,91.0
478,125.79297990625001,126.05419725416667,61.0,82.0
479,125.98528715625001,126.38913238125001,54.0,88.0
480,126.75451615625,127.06541287708333,54.0,89.0
481,126.56220890625,127.11669481041667,49.0,74.0
482,126.94682340625,127.36348911458333,66.0,89.0
483,127.33143790625,127.59265525416667,61.0,83.0
484,126.36990165625001,127.78335994375,42.0,91.0
485,127.52374515625,127.9131673375,54.0,88.0
486,128.29297415625,128.56220430625,54.0,82.0
487,127.71605240625,128.57181966875,66.0,86.0
488,128.10066690625,128.58944783333334,49.0,74.0
489,127.90835965625,129.0670108375,42.0,88.0
490,128.86989590625,129.07822876041666,49.0,86.0
491,128.48528140625,129.10066460625,61.0,87.0
492,129.06220315625,129.29617697708335,54.0,89.0
493,129.25451040625,129.5477789625,66.0,80.0
494,129.63912490625,129.99809843958334,54.0,67.0
495,129.83143215625,130.15354680000002,59.0,83.0
496,130.02373940625,130.38912318125,62.0,89.0
497,130.40835390625,130.69521222083333,59.0,88.0
498,130.21604665625,130.8939297125,54.0,82.0
499,129.44681765625,130.91636555833333,47.0,87.0
500,130.79296840625,131.21604435625,62.0,81.0
501,130.60066115625,131.61187677916666,66.0,86.0
502,131.17758290625,131.6631587125,54.0,82.0
503,131.36989015625,131.70803040416666,59.0,88.0
504,131.94681190625,132.26251630833335,54.0,88.0
505,130.98527565625,132.32822128541667,47.0,89.0
506,131.56219740625,132.42277235,71.0,90.0
507,132.13911915625002,132.50450293125002,66.0,89.0
508,132.33142640625002,132.52052853541667,59.0,88.0
509,132.71604090625002,133.18719366875,56.0,71.0
510,132.90834815625,133.18719366875,61.0,80.0
511,133.10065540625,133.49969295,68.0,91.0
512,132.52373365625002,133.87949976875,49.0,88.0
513,133.48526990625,133.93398682291667,56.0,87.0
514,133.67757715625,134.12629407291666,61.0,89.0
515,133.86988440625,134.53334441875,68.0,87.0
516,134.25449890625,134.72244654791666,56.0,72.0
517,134.44680615625,134.75770287708335,61.0,89.0
518,134.63911340625,135.14552249791666,73.0,90.0
519,134.83142065625,135.26571452916667,56.0,77.0
520,135.02372790625,135.27372733125,68.0,84.0
521,134.06219165625,135.33782974791666,49.0,89.0
522,135.21603515625,135.45481665833333,61.0,88.0
523,135.60064965625,135.8362260375,61.0,78.0
524,135.60064965625,136.02372560625,66.0,80.0
525,135.98526415625,136.24167382291668,61.0,86.0
526,136.17757140625,136.57019870833335,69.0,88.0
527,136.56218590625,136.80096740833335,66.0,83.0
528,135.60064965625,137.00128746041668,42.0,87.0
529,135.79295690625,137.00449258125,49.0,77.0
530,136.75449315625,137.32019698333335,61.0,87.0
531,136.94680040625,137.672760275,69.0,91.0
532,137.33141490625002,137.85705472291667,49.0,75.0
533,137.52372215625002,138.01410564375,61.0,83.0
534,137.71602940625002,138.04295173125,66.0,80.0
535,138.10064390625,138.2208359375,61.0,77.0
536,138.29295115625,138.56859154791667,66.0,77.0
537,138.48525840625,138.65352725,61.0,77.0
538,137.13910765625,138.70641174375,42.0,83.0
539,138.67756565625,138.70641174375,42.0,75.0
540,138.67756565625,139.22724387916668,61.0,81.0
541,138.67756565625,139.51249963333333,54.0,75.0
542,139.06218015625,139.58140973125,49.0,61.0
543,139.44679465625,140.22563901875,57.0,83.0
544,139.83140915625,140.33942080833333,49.0,67.0
545,140.21602365625,140.49006148750001,61.0,83.0
546,140.98525265625,141.28332889375,61.0,83.0
547,140.98525265625,141.45480285833335,54.0,82.0
548,140.60063815625,141.50287967083335,49.0,40.0
549,141.75448165625,142.13589103541668,66.0,81.0
550,141.75448165625,142.41633910833335,54.0,67.0
551,142.52371065625002,142.94678660625001,61.0,82.0
552,142.90832515625002,143.12947849375,57.0,77.0
553,142.13909615625,143.39069584166668,49.0,63.0
554,143.29293965625,143.86825884583334,61.0,77.0
555,143.67755415625,144.28011687291666,49.0,47.0
556,144.06216865625,144.33941160833334,57.0,74.0
557,144.06216865625,144.35062953125,61.0,79.0
558,141.75448165625,144.3938986625,42.0,76.0
559,144.06216865625,144.40191146458335,54.0,69.0
560,145.21601215625,145.70639564375,54.0,73.0
561,145.60062665625,146.37306077708334,62.0,84.0
562,145.60062665625,146.39229150208334,59.0,80.0
563,145.98524115625,146.59421411458334,54.0,67.0
564,144.83139765625,147.25446900625,47.0,87.0
565,146.75447015625,147.2592766875,54.0,61.0
566,146.36985565625,147.29453301666666,66.0,79.0
567,147.13908465625,147.42113528958333,62.0,82.0
568,147.90831365625002,148.42754323125,64.0,81.0
569,147.90831365625002,148.54453014166668,68.0,76.0
570,148.29292815625,148.69677338125,59.0,77.0
571,147.90831365625002,148.73202971041667,52.0,87.0
572,148.67754265625,148.8746575875,64.0,89.0
573,149.44677165625,150.21600065625,68.0,74.0
574,149.44677165625,150.23843650208335,61.0,77.0
575,149.83138615625,150.28330819375,56.0,81.0
576,149.44677165625,150.30734660000002,49.0,78.0
577,150.21600065625,150.61984588125,64.0,88.0
578,150.60061515625,150.70958926458334,61.0,85.0
579,151.75445865625,152.18714996875,57.0,86.0
580,152.13907315625,152.37304697708333,54.0,71.0
581,151.36984415625,152.61984128125002,49.0,79.0
582,152.52368765625002,152.903494475,61.0,79.0
583,153.29291665625001,153.61182617916668,66.0,84.0
584,152.90830215625002,153.65990299166668,49.0,56.0
585,150.98522965625,153.67592859583334,42.0,87.0
586,154.44676015625,154.51406769375,59.0,81.0
587,155.21598915625,155.63265486458334,62.0,81.0
588,154.83137465625,155.74803921458334,54.0,80.0
589,155.60060365625,156.37143521666667,66.0,80.0
590,155.98521815625,156.44355043541668,54.0,68.0
591,154.06214565625,156.54290918125,47.0,85.0
592,156.36983265625,156.55572966458334,59.0,80.0
593,156.36983265625,156.57656295,62.0,83.0
594,157.13906165625,157.63745794583335,64.0,83.0
595,157.13906165625,157.71277828541668,68.0,80.0
596,157.90829065625002,158.49643032916669,68.0,76.0
597,158.67751965625,159.27367213125,64.0,79.0
598,158.67751965625,159.3073259,71.0,83.0
599,158.29290515625001,159.38104367916668,56.0,69.0
600,157.52367615625,159.51405619375,59.0,78.0
601,157.13906165625,159.54450484166668,52.0,89.0
602,159.44674865625,159.79610682708335,68.0,82.0
603,160.98520665625,161.49161574791668,57.0,86.0
604,161.36982115625,161.79289710625,61.0,73.0
605,160.60059215625,161.97879411458334,49.0,73.0
606,161.75443565625,162.20635769375,66.0,87.0
607,162.13905015625,162.65507461041668,49.0,64.0
608,162.52366465625,163.30090645833334,54.0,80.0
609,163.12141969166666,163.30090645833334,54.0,75.0
610,162.52366465625,163.31532950208333,61.0,79.0
611,163.26404756875002,163.31532950208333,61.0,80.0
612,162.90827915625002,163.3361627875,49.0,76.0
613,163.23199636041667,163.35379095208333,57.0,84.0
614,160.21597765625,163.36020119375002,42.0,81.0
615,163.26244500833334,163.36020119375002,42.0,87.0
616,163.31212438125002,163.67911071666668,66.0,82.0
617,164.43391667291667,164.66789049375,66.0,77.0
618,164.09257130416668,164.98359489583333,61.0,78.0
619,164.80891581041666,165.46756814166667,66.0,80.0
620,164.81212093125,165.48199118541666,73.0,73.0
621,165.19673543125,165.69352916041666,61.0,61.0
622,163.7015465625,166.01243868333333,54.0,88.0
623,165.94352858541666,166.24160482291668,61.0,75.0
624,165.58134993125,166.30570723958334,66.0,83.0
625,165.58295249166667,166.30570723958334,69.0,89.0
626,166.75442415625,167.34256382916666,49.0,73.0
627,167.13903865625,167.94993422708333,57.0,83.0
628,167.52365315625,168.07333137916666,49.0,69.0
629,167.90826765625002,168.1053825875,61.0,87.0
630,168.67749665625,168.97397033333334,66.0,81.0
631,168.67749665625,168.99480361875,54.0,92.0
632,166.36980965625,169.23198256041667,42.0,88.0
633,168.29288215625002,169.29287985625,49.0,64.0
634,170.21595465625,170.66306901250002,57.0,87.0
635,170.60056915625,171.05409375416667,54.0,88.0
636,169.83134015625,171.15024737916667,49.0,76.0
637,170.98518365625,171.4130672875,66.0,84.0
638,169.44672565625,171.82172019375,42.0,82.0
639,171.36979815625,171.82332275416667,49.0,71.0
640,171.75441265625,171.941912225,54.0,87.0
641,171.75441265625,172.12300155208334,57.0,88.0
642,172.13902715625,172.24159102291668,54.0,88.0
643,172.52364165625,173.37139611666666,59.0,87.0
644,172.90825615625002,173.44351133541667,54.0,74.0
645,173.29287065625002,174.12780463333334,62.0,84.0
646,173.67748515625001,174.15825328125,54.0,70.0
647,174.06209965625,174.3938296625,66.0,88.0
648,174.44671415625,174.85376450208335,54.0,63.0
649,172.52364165625,174.96754629166668,47.0,87.0
650,174.83132865625,174.9707514125,59.0,86.0
651,174.83132865625,175.09254600416668,62.0,88.0
652,174.83132865625,175.21754571666668,66.0,87.0
653,175.21594315625,175.44991697708335,59.0,84.0
654,175.60055765625,175.83613403750002,61.0,78.0
655,175.60055765625,175.86498012500002,64.0,87.0
656,175.98517215625,176.3938250625,56.0,72.0
657,175.60055765625,176.44029931458334,49.0,89.0
658,176.36978665625,176.80247796875,61.0,85.0
659,176.75440115625,176.89863159375,49.0,75.0
660,177.13901565625,178.19991065208333,42.0,86.0
661,177.52363015625,178.27042331041667,49.0,81.0
662,177.90824465625002,178.35055133125002,57.0,82.0
663,177.90824465625002,178.4130511875,54.0,83.0
664,177.90824465625002,178.44510239583335,61.0,82.0
665,178.67747365625002,179.08452400208333,66.0,80.0
666,178.67747365625002,179.3553567125,54.0,82.0
667,179.06208815625,179.60375357708335,49.0,75.0
668,179.44670265625,179.90824005625,57.0,81.0
669,178.67747365625002,180.51080277291666,42.0,84.0
670,179.83131715625,180.75599451666668,54.0,90.0
671,180.60054615625,180.78323804375,57.0,81.0
672,180.21593165625,180.79926364791666,61.0,88.0
673,180.98516065625,181.17746790625,57.0,88.0
674,180.98516065625,181.19669863125,61.0,81.0
675,180.98516065625,181.20310887291666,54.0,87.0
676,180.98516065625,181.39541612291669,66.0,84.0
677,181.75438965625,182.58932363333335,62.0,83.0
678,182.13900415625,182.69509262083335,54.0,73.0
679,182.52361865625,183.33451422708333,66.0,83.0
680,181.75438965625,183.49316770833335,59.0,80.0
681,182.90823315625,183.53162915833335,54.0,70.0
682,183.29284765625002,183.5380394,62.0,44.0
683,183.29284765625002,183.82810283541667,71.0,88.0
684,183.67746215625002,183.97553839375,59.0,84.0
685,184.06207665625,184.11656371041667,59.0,78.0
686,181.75438965625,184.3072684,47.0,87.0
687,184.06207665625,184.44829371666668,62.0,90.0
688,184.06207665625,184.4707295625,66.0,80.0
689,184.44669115625,184.56848574791667,59.0,88.0
690,184.83130565625,184.95310024791667,37.0,83.0
691,184.83130565625,185.80566238958335,61.0,85.0
692,184.83130565625,186.07168741875,64.0,88.0
693,185.98514915625,186.48354544583333,61.0,88.0
694,185.60053465625,186.51399409375,56.0,86.0
695,186.36976365625,186.80405752916667,68.0,87.0
696,186.36976365625,186.80566008958334,64.0,88.0
697,186.56207090625,187.18706946875,61.0,47.0
698,187.13899265625,187.30565893958334,64.0,89.0
699,186.75437815625,187.54123532083335,56.0,70.0
700,187.13899265625,187.60373517708334,68.0,90.0
701,185.21592015625,187.63258126458334,49.0,84.0
702,187.52360715625,187.80405522916666,61.0,80.0
703,187.90822165625,188.4130281875,61.0,88.0
704,187.90822165625,188.84732206041667,49.0,90.0
705,188.29283615625002,188.88418095,56.0,75.0
706,188.67745065625002,188.90180911458333,61.0,89.0
707,188.67745065625002,189.2784108125,68.0,86.0
708,189.06206515625001,189.32809018541667,61.0,77.0
709,189.44667965625,189.84251207916668,68.0,83.0
710,189.44667965625,189.87937096875,61.0,89.0
711,189.83129415625,190.31206228125,56.0,75.0
712,189.83129415625,190.33289556666668,49.0,74.0
713,190.21590865625,190.93866340416668,61.0,96.0
714,190.60052315625,190.98353509583333,49.0,85.0
715,190.60052315625,190.98674021666667,56.0,87.0
716,190.21590865625,190.99795813958335,73.0,87.0
717,191.36975215625,191.95789182916667,49.0,73.0
718,191.75436665625,192.56526222708334,57.0,83.0
719,192.13898115625,192.68865937916667,49.0,69.0
720,192.52359565625,192.7207105875,61.0,87.0
721,193.29282465625002,193.58929833333335,66.0,81.0
722,193.29282465625002,193.61013161875002,54.0,92.0
723,190.98513765625,193.84731056041667,42.0,88.0
724,192.90821015625,193.90820785625002,49.0,64.0
725,194.83128265625,195.2783970125,57.0,87.0
726,195.21589715625,195.66942175416668,54.0,88.0
727,194.44666815625,195.76557537916668,49.0,76.0
728,195.60051165625,196.02839528750002,66.0,84.0
729,194.06205365625001,196.43704819375,42.0,82.0
730,195.98512615625,196.43865075416667,49.0,71.0
731,196.36974065625,196.55724022500002,54.0,87.0
732,196.36974065625,196.73832955208334,57.0,88.0
733,196.75435515625,196.85691902291668,54.0,88.0
734,197.13896965625,197.98672411666666,59.0,87.0
735,197.52358415625,198.05883933541668,54.0,74.0
736,197.90819865625,198.74313263333335,62.0,84.0
737,198.29281315625002,198.77358128125002,54.0,70.0
738,198.67742765625002,199.0091576625,66.0,88.0
739,199.06204215625002,199.46909250208333,54.0,63.0
740,197.13896965625,199.58287429166668,47.0,87.0
741,199.44665665625,199.5860794125,59.0,86.0
742,199.44665665625,199.70787400416668,62.0,88.0
743,199.44665665625,199.83287371666668,66.0,87.0
744,199.83127115625,200.06524497708335,59.0,84.0
745,200.21588565625,200.4514620375,61.0,78.0
746,200.21588565625,200.480308125,64.0,87.0
747,200.60050015625,201.00915306250002,56.0,72.0
748,200.21588565625,201.05562731458335,49.0,89.0
749,200.98511465625,201.40979316666667,68.0,80.0
750,200.98511465625,201.41780596875,61.0,85.0
751,201.36972915625,201.51395959375,49.0,75.0
752,201.75434365625,202.81523865208334,42.0,86.0
753,202.13895815625,202.88575131041668,49.0,81.0
754,202.52357265625,202.96587933125,57.0,82.0
755,202.52357265625,203.0283791875,54.0,83.0
756,202.52357265625,203.06043039583335,61.0,82.0
757,203.29280165625002,203.69985200208333,66.0,80.0
758,203.29280165625002,203.9706847125,54.0,82.0
759,203.67741615625002,204.21908157708333,49.0,75.0
760,204.06203065625002,204.52356805625,57.0,81.0
761,203.29280165625002,205.12613077291667,42.0,84.0
762,204.44664515625,205.37132251666668,54.0,90.0
763,205.21587415625,205.39856604375,57.0,81.0
764,204.83125965625,205.41459164791667,61.0,88.0
765,205.60048865625,205.79279590625,57.0,88.0
766,205.60048865625,205.81202663125,61.0,81.0
767,205.60048865625,205.81843687291666,54.0,87.0
768,205.60048865625,206.01074412291666,66.0,84.0
769,206.36971765625,207.20465163333333,62.0,83.0
770,206.75433215625,207.31042062083333,54.0,73.0
771,207.13894665625,207.94984222708334,66.0,83.0
772,206.36971765625,208.10849570833335,59.0,80.0
773,207.52356115625,208.14695715833335,54.0,70.0
774,207.90817565625,208.1533674,62.0,44.0
775,207.90817565625,208.44343083541668,71.0,88.0
776,208.29279015625,208.59086639375002,59.0,84.0
777,208.67740465625002,208.73189171041668,59.0,78.0
778,206.36971765625,208.9225964,47.0,87.0
779,208.67740465625002,209.06362171666666,62.0,90.0
780,208.67740465625002,209.0860575625,66.0,80.0
781,209.06201915625002,209.18381374791667,59.0,88.0
782,209.44663365625001,209.56842824791667,37.0,83.0
783,209.44663365625001,210.42099038958335,61.0,85.0
784,209.44663365625001,210.68701541875,64.0,88.0
785,210.60047715625,211.09887344583333,61.0,88.0
786,210.21586265625,211.12932209375,56.0,86.0
787,210.98509165625,211.41938552916668,68.0,87.0
788,210.98509165625,211.42098808958335,64.0,88.0
789,211.17739890625,211.80239746875,61.0,47.0
790,211.75432065625,211.92098693958334,64.0,89.0
791,211.36970615625,212.15656332083333,56.0,70.0
792,211.75432065625,212.21906317708334,68.0,90.0
793,209.83124815625,212.24790926458334,49.0,84.0
794,212.13893515625,212.41938322916667,61.0,80.0
795,212.52354965625,213.18700966875,61.0,80.0
796,212.52354965625,213.19181735,66.0,82.0
797,213.29277865625,213.47867566458333,61.0,79.0
798,213.29277865625,213.70463668333335,69.0,87.0
799,213.67739315625002,213.864892725,66.0,75.0
800,213.67739315625002,213.86809784583335,61.0,71.0
801,212.90816415625,214.18059712708333,49.0,80.0
802,214.06200765625002,214.41777606875002,73.0,89.0
803,214.44662215625002,214.69822414166669,61.0,78.0
804,214.83123665625,215.55559396458335,66.0,84.0
805,214.83123665625,215.56520932708335,61.0,79.0
806,212.52354965625,215.57802981041667,42.0,88.0
807,215.21585115625,215.59886309583334,49.0,76.0
808,214.83123665625,215.60046565625,69.0,77.0
809,215.98508015625,216.30238711875,54.0,82.0
810,215.79277290625,216.31039992083333,49.0,75.0
811,216.17738740625,216.73507843125,61.0,87.0
812,216.56200190625,216.78636036458335,57.0,77.0
813,216.75430915625,217.0299495479167,54.0,80.0
814,215.60046565625,217.05559051458334,42.0,85.0
815,216.94661640625,217.33123090625,61.0,85.0
816,217.33123090625,217.78315294375,49.0,69.0
817,217.52353815625,217.80078110833335,54.0,83.0
818,217.90815265625,218.17898536666667,49.0,69.0
819,217.71584540625,218.211036575,66.0,91.0
820,217.13892365625,218.3360362875,42.0,81.0
821,218.10045990625,218.37129261666666,61.0,83.0
822,218.29276715625,218.6629586125,54.0,89.0
823,218.48507440625,218.79436856666666,57.0,75.0
824,219.06199615625002,219.48346954583334,54.0,76.0
825,219.25430340625002,219.63891790625001,57.0,86.0
826,219.83122515625,220.09725018541667,57.0,79.0
827,219.63891790625001,220.10366042708333,61.0,79.0
828,218.86968890625002,220.15814748125,49.0,75.0
829,220.21583965625,220.27994207291667,61.0,61.0
830,220.02353240625,220.287954875,54.0,77.0
831,220.60045415625,220.92737648125,49.0,71.0
832,218.67738165625002,221.17256822500002,42.0,88.0
833,220.98506865625,221.17256822500002,49.0,73.0
834,220.21583965625,221.25269624583333,66.0,87.0
835,220.79276140625,221.26711928958335,61.0,84.0
836,221.17737590625,221.40173436458335,57.0,83.0
837,221.36968315625,221.62288770208335,54.0,87.0
838,221.56199040625,221.71904132708335,57.0,84.0
839,222.13891215625,222.60205211666667,54.0,79.0
840,222.33121940625,222.9706410125,62.0,90.0
841,222.71583390625,223.172563625,54.0,75.0
842,221.75429765625,223.21423019583335,47.0,88.0
843,222.90814115625,223.35365295208334,59.0,83.0
844,223.10044840625,223.55076788333335,62.0,81.0
845,223.48506290625,223.93377982291668,54.0,75.0
846,223.67737015625002,223.94339518541668,59.0,85.0
847,223.86967740625002,224.34083016875002,66.0,91.0
848,224.06198465625002,224.3552532125,54.0,79.0
849,224.25429190625002,224.48345804583334,62.0,88.0
850,223.29275565625,224.52993229791667,47.0,89.0
851,224.44659915625002,224.72544466875001,59.0,83.0
852,224.63890640625002,224.7975598875,62.0,83.0
853,225.21582815625,225.47223782291667,61.0,88.0
854,225.02352090625,225.48826342708335,56.0,75.0
855,225.40813540625,225.98826227708335,68.0,89.0
856,224.83121365625001,226.06198005625,49.0,89.0
857,225.79274990625,226.10204406666668,56.0,87.0
858,225.98505715625,226.25108218541666,61.0,89.0
859,226.17736440625,226.38088957916668,68.0,79.0
860,226.56197890625,226.99947790000002,49.0,69.0
861,226.75428615625,227.03793935000002,54.0,82.0
862,226.94659340625,227.24947732500002,66.0,92.0
863,227.13890065625,227.42095128958334,49.0,81.0
864,226.36967165625,227.5860150125,42.0,91.0
865,227.33120790625,227.59242525416667,61.0,82.0
866,227.52351515625,227.92736038125,54.0,88.0
867,228.29274415625,228.60364087708334,54.0,89.0
868,228.10043690625,228.65492281041668,49.0,74.0
869,228.48505140625,228.90171711458333,66.0,89.0
870,228.86966590625002,229.13088325416666,61.0,83.0
871,227.90812965625,229.32158794375002,42.0,91.0
872,229.06197315625002,229.4513953375,54.0,88.0
873,229.83120215625001,230.10043230625,54.0,82.0
874,229.25428040625002,230.11004766875,66.0,86.0
875,229.63889490625002,230.12767583333334,49.0,74.0
876,229.44658765625002,230.6052388375,42.0,88.0
877,230.40812390625,230.61645676041667,49.0,86.0
878,230.02350940625,230.63889260625,61.0,87.0
879,230.60043115625,230.83440497708335,54.0,89.0
880,230.79273840625,231.0860069625,66.0,80.0
881,231.17735290625,231.53632643958335,54.0,67.0
882,231.36966015625,231.69177480000002,59.0,83.0
883,231.56196740625,231.92735118125,62.0,89.0
884,231.94658190625,232.23344022083333,59.0,88.0
885,231.75427465625,232.43215771250001,54.0,82.0
886,230.98504565625,232.45459355833333,47.0,87.0
887,232.33119640625,232.75427235625,62.0,81.0
888,232.13888915625,233.15010477916667,66.0,86.0
889,232.71581090625,233.2013867125,54.0,82.0
890,232.90811815625,233.24625840416667,59.0,88.0
891,233.48503990625,233.80074430833335,54.0,88.0
892,232.52350365625,233.86644928541668,47.0,89.0
893,233.10042540625,233.96100035,71.0,90.0
894,233.67734715625,234.04273093125002,66.0,89.0
895,233.86965440625002,234.05875653541668,59.0,88.0
896,234.25426890625002,234.72542166875002,56.0,71.0
897,234.44657615625002,234.72542166875002,61.0,80.0
898,234.63888340625002,235.03792095,68.0,91.0
899,234.06196165625002,235.41772776875,49.0,88.0
900,235.02349790625001,235.47221482291667,56.0,87.0
901,235.21580515625,235.66452207291667,61.0,89.0
902,235.40811240625,236.07157241875,68.0,87.0
903,235.79272690625,236.26067454791666,56.0,72.0
904,235.98503415625,236.29593087708335,61.0,89.0
905,236.17734140625,236.68375049791666,73.0,90.0
906,236.36964865625,236.80394252916668,56.0,77.0
907,236.56195590625,236.81195533125,68.0,84.0
908,235.60041965625,236.87605774791666,49.0,89.0
909,236.75426315625,236.99304465833333,61.0,88.0
910,237.13887765625,237.37445403750002,61.0,78.0
911,237.13887765625,237.56195360625,66.0,80.0
912,237.52349215625,237.77990182291668,61.0,86.0
913,237.71579940625,238.10842670833335,69.0,88.0
914,238.10041390625,238.33919540833335,66.0,83.0
915,237.13887765625,238.53951546041668,42.0,87.0
916,237.33118490625,238.54272058125,49.0,77.0
917,238.29272115625,238.85842498333335,61.0,87.0
918,238.48502840625,239.210988275,69.0,91.0
919,238.86964290625002,239.39528272291668,49.0,75.0
920,239.06195015625002,239.55233364375002,61.0,83.0
921,239.25425740625002,239.58117973125002,66.0,80.0
922,239.63887190625002,239.7590639375,61.0,77.0
923,239.83117915625002,240.10681954791667,66.0,77.0
924,240.02348640625002,240.19175525,61.0,77.0
925,240.11964003125001,240.19175525,61.0,73.0
926,238.67733565625,240.24463974375,42.0,83.0
927,240.19335781041667,240.24463974375,42.0,81.0
928,240.29111399583334,241.76386701875,69.0,71.0
929,240.19496037083334,241.77989262291666,66.0,79.0
