,start,end,pitch,velocity
0,15.511539754166666,15.73269361875,63.0,97.0
1,15.742309004166666,15.921155172916666,65.0,69.0
2,15.973078254166667,16.26346289375,66.0,92.0
3,16.434616754166665,16.578847535416667,63.0,89.0
4,16.665386004166667,16.878847560416666,66.0,89.0
5,17.126924504166666,17.39423221875,63.0,100.0
6,19.203847754166667,19.359616997916667,63.0,92.0
7,19.434617004166668,19.5576939375,65.0,74.0
8,19.665386254166666,19.832693960416666,66.0,92.0
9,20.126924754166666,20.238463225,68.0,102.0
10,20.357694004166667,20.478847860416668,66.0,96.0
11,20.819232504166667,21.001924827083332,63.0,96.0
12,22.896155754166667,23.011540379166668,63.0,95.0
13,23.126925004166665,23.2269250125,65.0,83.0
14,23.357694254166667,23.580771195833332,66.0,100.0
15,23.819232754166666,23.9192327625,68.0,88.0
16,24.050002004166668,24.392309725,70.0,102.0
17,24.973079004166667,25.115386708333332,70.0,100.0
18,25.434617504166667,25.617309827083332,73.0,107.0
19,25.896156004166667,25.965386779166668,70.0,92.0
20,26.126925254166668,26.436540664583333,70.0,97.0
21,26.588463754166668,27.41346382291667,68.0,95.0
22,27.280771504166665,27.41346382291667,68.0,100.0
23,27.742310004166665,27.828848472916665,66.0,88.0
24,27.973079254166667,28.440386985416666,66.0,100.0
25,28.434617754166666,29.355771677083332,65.0,79.0
26,30.050002504166667,30.163464052083334,58.0,92.0
27,30.280771754166665,30.392310225,63.0,88.0
28,30.511541004166666,30.619233320833334,65.0,96.0
29,30.742310254166668,31.0269256625,66.0,107.0
30,31.203848754166668,31.301925685416666,63.0,93.0
31,31.434618004166666,31.5346180125,66.0,99.0
32,31.896156504166665,32.52307963333333,63.0,95.0
33,33.74231050416667,33.8192335875,58.0,96.0
34,33.97307975416667,34.05577206875,63.0,92.0
35,34.20384900416666,34.273079779166665,65.0,99.0
36,34.434618254166665,34.64423365625,66.0,127.0
37,34.89615675416667,35.02500291875,68.0,117.0
38,35.12692600416667,35.31154140416667,66.0,102.0
39,35.588464504166666,36.16731070625,63.0,100.0
40,37.665387754166666,37.76154160833333,63.0,92.0
41,37.89615700416667,37.98846470416667,63.0,77.0
42,38.12692625416667,38.459618589583336,63.0,93.0
43,38.588464754166665,38.68461860833333,63.0,73.0
44,38.81923400416667,39.34231097083333,63.0,92.0
45,39.97308025416667,40.14038796041667,62.0,95.0
46,40.434618754166664,40.592311075,63.0,75.0
47,40.665388004166665,40.790388014583336,65.0,82.0
48,40.89615725416667,42.10577273958333,63.0,90.0
49,45.51154225416666,45.86346536041667,66.0,107.0
50,45.973080754166666,46.08077307083333,68.0,100.0
51,46.20385000416667,46.919234679166664,70.0,127.0
52,47.35769625416667,47.49231165,70.0,107.0
53,47.58846550416666,47.67308089583333,73.0,99.0
54,47.819234754166665,47.97308092083333,73.0,99.0
55,48.05000400416667,48.16923478333333,70.0,95.0
56,48.28077325416667,48.569234816666665,73.0,122.0
57,48.742311754166664,48.83269637708333,75.0,95.0
58,48.973081004166666,49.411542579166664,75.0,107.0
59,49.43461950416667,50.473081129166665,73.0,97.0
60,51.050004254166666,51.3576965875,75.0,107.0
61,51.51154275416667,51.66346584375,77.0,112.0
62,51.74231200416666,52.8000044,78.0,127.0
63,53.35769675416667,53.592312158333336,78.0,127.0
64,53.58846600416667,53.69808139791667,77.0,95.0
65,53.819235254166664,54.09038912291667,78.0,112.0
66,54.28077375416667,54.53461992916667,77.0,112.0
67,54.74231225416666,54.98269688958333,78.0,122.0
68,55.203850754166666,55.357696920833334,70.0,100.0
69,55.43462000416667,56.530773941666666,73.0,127.0
70,58.43462025416667,58.75385105,70.0,112.0
71,58.89615875416666,59.02500491875,73.0,102.0
72,59.126928004166665,60.02500500208333,75.0,107.0
73,61.203851254166665,61.35192818958333,75.0,127.0
74,61.66538975416667,61.867312847916665,73.0,127.0
75,62.126928254166664,62.321159039583335,75.0,127.0
76,62.58846675416667,62.78269753958333,66.0,99.0
77,63.05000525416666,63.307697583333336,66.0,102.0
78,63.280774504166665,63.392312975,73.0,107.0
79,63.74231300416667,64.72500539375,70.0,117.0
80,66.28077475416667,66.50962092708333,71.0,127.0
81,66.51154400416667,66.77115941041667,70.0,89.0
82,66.74231325416666,67.52115947291666,71.0,112.0
83,68.35769800416666,68.59231340833334,70.0,93.0
84,68.58846725416667,68.8038518875,71.0,127.0
85,69.05000575416666,69.300005775,70.0,81.0
86,69.28077500416667,69.73654427291666,71.0,112.0
87,69.97308275416667,70.361544325,66.0,107.0
88,70.43462125416667,71.68654443541666,68.0,97.0
89,75.05000625416666,75.40192936041666,66.0,107.0
90,75.51154475416666,75.61923707083334,68.0,100.0
91,75.74231400416667,76.45769867916667,70.0,127.0
92,76.89616025416666,77.03077565,70.0,107.0
93,77.12692950416667,77.21154489583333,73.0,99.0
94,77.35769875416666,77.51154492083333,73.0,99.0
95,77.58846800416667,77.70769878333333,70.0,95.0
96,77.81923725416667,78.10769881666667,73.0,122.0
97,78.28077575416667,78.37116037708333,75.0,95.0
98,78.51154500416666,78.95000657916667,75.0,107.0
99,78.97308350416667,80.01154512916666,73.0,97.0
100,80.58846825416667,80.8961605875,75.0,107.0
101,81.05000675416666,81.20192984375,77.0,112.0
102,81.28077600416667,82.3384684,78.0,127.0
103,82.89616075416667,83.13077615833333,77.0,127.0
104,83.35769925416666,83.62885312291667,78.0,112.0
105,83.81923775416666,84.07308392916667,77.0,112.0
106,84.28077625416667,84.52116088958333,78.0,122.0
107,84.74231475416667,84.89616092083334,70.0,100.0
108,85.20385325416666,86.30000719166667,73.0,127.0
109,87.97308425416666,88.29231505,70.0,112.0
110,88.43462275416667,88.56346891875,73.0,102.0
111,88.89616125416667,89.22885358958334,75.0,107.0
112,89.35769975416666,89.45000745416667,73.0,97.0
113,89.58846900416667,91.00193066041666,75.0,117.0
114,91.66539225416666,91.84231534583333,75.0,122.0
115,92.12693075416666,92.21154614583334,70.0,102.0
116,92.35770000416666,92.48654616875,70.0,102.0
117,92.58846925416667,92.71539234166667,73.0,102.0
118,92.81923850416666,94.95770022083333,70.0,99.0
119,95.81923875416666,96.04808492708334,71.0,127.0
120,96.05000800416667,96.30962341041666,70.0,89.0
121,96.28077725416667,97.05962347291667,71.0,112.0
122,97.89616200416667,98.09039278958333,70.0,100.0
123,98.12693125416666,98.63077745,75.0,127.0
124,98.81923900416666,99.43462367083333,78.0,127.0
125,99.51154675416667,99.85962370625,75.0,122.0
126,99.97308525416666,102.64423932291666,75.0,127.0
127,115.20385575416667,115.42500961875,63.0,97.0
128,115.43462500416666,115.61347117291666,65.0,69.0
129,115.66539425416667,115.95577889375,66.0,92.0
130,116.12693275416666,116.27116353541666,63.0,89.0
131,116.35770200416667,116.57116356041666,66.0,89.0
132,116.81924050416667,117.08654821875,63.0,100.0
133,118.89616375416666,119.05193299791667,63.0,92.0
134,119.12693300416666,119.2500099375,65.0,74.0
135,119.35770225416667,119.52500996041667,66.0,92.0
136,119.81924075416667,119.930779225,68.0,102.0
137,120.05001000416667,120.17116386041667,66.0,96.0
138,120.51154850416667,120.69424082708333,63.0,96.0
139,122.58847175416666,122.70385637916667,63.0,95.0
140,122.81924100416667,122.9192410125,65.0,83.0
141,123.05001025416666,123.27308719583333,66.0,100.0
142,123.51154875416667,123.6115487625,68.0,88.0
143,123.74231800416666,124.084625725,70.0,102.0
144,124.66539500416667,124.80770270833334,70.0,100.0
145,125.12693350416667,125.30962582708334,73.0,107.0
146,125.58847200416666,125.65770277916667,70.0,92.0
147,125.81924125416667,126.12885666458334,70.0,97.0
148,126.28077975416667,126.74231825416666,68.0,95.0
149,126.97308750416667,127.10577982291666,68.0,100.0
150,127.43462600416666,127.52116447291667,66.0,88.0
151,127.66539525416667,128.13270298541667,66.0,100.0
152,128.12693375416666,129.04808767708334,65.0,79.0
153,129.74231850416666,129.85578005208333,58.0,92.0
154,129.97308775416667,130.084626225,63.0,88.0
155,130.20385700416668,130.31154932083334,65.0,96.0
156,130.43462625416666,130.7192416625,66.0,107.0
157,130.89616475416668,130.99424168541665,63.0,93.0
158,131.12693400416666,131.2269340125,66.0,99.0
159,131.58847250416667,132.21539563333334,63.0,95.0
160,133.43462650416666,133.51154958749999,58.0,96.0
161,133.66539575416667,133.74808806875,63.0,92.0
162,133.89616500416668,133.96539577916667,65.0,99.0
163,134.12693425416666,134.33654965624999,66.0,127.0
164,134.58847275416667,134.71731891875,68.0,117.0
165,134.81924200416665,135.00385740416667,66.0,102.0
166,135.28078050416667,135.85962670625,63.0,100.0
167,137.35770375416666,137.45385760833332,63.0,92.0
168,137.58847300416667,137.68078070416666,63.0,77.0
169,137.81924225416665,138.15193458958333,63.0,93.0
170,138.28078075416667,138.37693460833333,63.0,73.0
171,138.51155000416668,139.03462697083333,63.0,92.0
172,139.66539625416667,139.83270396041667,61.0,95.0
173,140.12693475416665,140.284627075,63.0,75.0
174,140.35770400416666,140.48270401458333,65.0,82.0
175,140.58847325416667,143.95962738125,63.0,90.0
176,145.20385825416668,145.55578136041666,66.0,107.0
177,145.66539675416666,145.77308907083332,68.0,100.0
178,145.89616600416667,146.61155067916667,70.0,127.0
179,147.05001225416666,147.18462765,70.0,107.0
180,147.28078150416667,147.36539689583333,73.0,99.0
181,147.51155075416668,147.66539692083333,73.0,99.0
182,147.74232000416666,147.86155078333334,70.0,95.0
183,147.97308925416667,148.26155081666667,73.0,122.0
184,148.43462775416666,148.52501237708333,75.0,95.0
185,148.66539700416666,149.10385857916665,75.0,107.0
186,149.12693550416665,150.16539712916668,73.0,97.0
187,150.74232025416666,151.0500125875,75.0,107.0
188,151.20385875416667,151.35578184375,77.0,112.0
189,151.43462800416665,152.4923204,78.0,127.0
190,153.05001275416666,153.28462815833333,78.0,127.0
191,153.28078200416667,153.39039739791667,77.0,95.0
192,153.51155125416668,153.78270512291667,78.0,112.0
193,153.97308975416666,154.22693592916667,77.0,112.0
194,154.43462825416665,154.67501288958334,78.0,122.0
195,154.89616675416667,155.05001292083332,70.0,100.0
196,155.12693600416665,156.22308994166667,73.0,127.0
197,158.12693625416668,158.44616704999999,70.0,112.0
198,158.58847475416667,158.71732091875,73.0,102.0
199,158.81924400416668,159.71732100208334,75.0,107.0
200,160.89616725416667,161.04424418958334,75.0,127.0
201,161.35770575416666,161.55962884791666,73.0,127.0
202,161.81924425416668,162.01347503958334,75.0,127.0
203,162.28078275416667,162.47501353958333,66.0,99.0
204,162.74232125416665,163.00001358333333,66.0,102.0
205,162.97309050416666,163.084628975,73.0,107.0
206,163.43462900416665,164.41732139375,70.0,117.0
207,165.97309075416666,166.20193692708332,71.0,127.0
208,166.20386000416667,166.46347541041666,70.0,89.0
209,166.43462925416668,167.21347547291666,71.0,112.0
210,168.05001400416666,168.28462940833333,70.0,93.0
211,168.28078325416666,168.4961678875,71.0,127.0
212,168.74232175416665,168.992321775,70.0,81.0
213,168.97309100416666,169.42886027291667,71.0,112.0
214,169.66539875416666,170.053860325,66.0,107.0
215,170.12693725416668,171.37886043541667,68.0,97.0
216,174.74232225416665,175.09424536041666,66.0,107.0
217,175.20386075416667,175.31155307083333,68.0,100.0
218,175.43463000416668,176.15001467916667,70.0,127.0
219,176.58847625416666,176.72309165,70.0,107.0
220,176.81924550416667,176.90386089583333,73.0,99.0
221,177.05001475416665,177.20386092083334,73.0,99.0
222,177.28078400416666,177.40001478333332,70.0,95.0
223,177.51155325416667,177.80001481666667,73.0,122.0
224,177.97309175416666,178.06347637708333,75.0,95.0
225,178.20386100416667,178.64232257916666,75.0,107.0
226,178.66539950416666,179.70386112916665,73.0,97.0
227,180.28078425416666,180.5884765875,75.0,107.0
228,180.74232275416668,180.89424584374999,77.0,112.0
229,180.97309200416666,182.0307844,78.0,127.0
230,182.58847675416666,182.82309215833334,77.0,127.0
231,183.05001525416665,183.32116912291667,78.0,112.0
232,183.51155375416667,183.76539992916668,77.0,112.0
233,183.97309225416666,184.21347688958332,78.0,122.0
234,184.43463075416668,184.58847692083333,70.0,100.0
235,184.89616925416667,185.99232319166666,73.0,127.0
236,187.66540025416666,187.98463105,70.0,112.0
237,188.12693875416667,188.25578491875,73.0,102.0
238,188.58847725416666,188.92116958958334,75.0,107.0
239,189.05001575416668,189.14232345416667,73.0,97.0
240,189.28078500416666,190.69424666041667,75.0,117.0
241,191.35770825416665,191.53463134583333,75.0,122.0
242,191.81924675416667,191.90386214583333,70.0,102.0
243,192.05001600416668,192.17886216875,70.0,102.0
244,192.28078525416666,192.40770834166668,73.0,102.0
245,192.51155450416667,194.65001622083332,70.0,99.0
246,195.51155475416667,195.74040092708333,71.0,127.0
247,195.74232400416668,196.00193941041667,70.0,89.0
248,195.97309325416666,196.75193947291666,71.0,112.0
249,197.58847800416666,197.78270878958332,70.0,100.0
250,197.81924725416667,198.32309345,75.0,127.0
251,198.51155500416667,199.12693967083334,78.0,127.0
252,199.20386275416666,199.55193970625,75.0,122.0
253,199.66540125416665,202.33655532291667,75.0,127.0
254,204.28078625416666,204.63270936041667,66.0,107.0
255,204.74232475416667,204.85001707083333,68.0,100.0
256,204.97309400416665,205.68847867916668,70.0,127.0
257,206.12694025416667,206.26155565,70.0,107.0
258,206.35770950416668,206.44232489583334,73.0,99.0
259,206.58847875416666,206.74232492083334,73.0,99.0
260,206.81924800416667,206.93847878333332,70.0,95.0
261,207.05001725416668,207.33847881666668,73.0,122.0
262,207.51155575416666,207.60194037708334,75.0,95.0
263,207.74232500416667,208.18078657916666,75.0,107.0
264,208.20386350416666,209.24232512916666,73.0,97.0
265,209.81924825416667,210.1269405875,75.0,107.0
266,210.28078675416666,210.43270984375,77.0,112.0
267,210.51155600416666,211.5692484,78.0,127.0
268,212.12694075416667,212.36155615833334,78.0,127.0
269,212.35771000416668,212.46732539791665,77.0,95.0
270,212.58847925416666,212.85963312291668,78.0,112.0
271,213.05001775416667,213.30386392916665,77.0,112.0
272,213.51155625416666,213.75194088958332,78.0,122.0
273,213.97309475416665,214.12694092083333,70.0,100.0
274,214.20386400416666,215.30001794166665,73.0,127.0
275,217.20386425416666,217.52309505,70.0,112.0
276,217.66540275416668,217.79424891875,73.0,102.0
277,217.89617200416666,218.79424900208332,75.0,107.0
278,219.97309525416668,220.12117218958332,75.0,127.0
279,220.43463375416667,220.63655684791667,73.0,127.0
280,220.89617225416666,221.09040303958332,75.0,127.0
281,221.35771075416667,221.55194153958334,66.0,99.0
282,221.81924925416666,222.07694158333334,66.0,102.0
283,222.05001850416667,222.161556975,73.0,107.0
284,222.51155700416666,223.49424939375,70.0,117.0
285,225.05001875416667,225.27886492708333,71.0,127.0
286,225.28078800416665,225.54040341041667,70.0,89.0
287,225.51155725416666,226.29040347291667,71.0,112.0
288,227.12694200416666,227.36155740833334,70.0,93.0
289,227.35771125416667,227.5730958875,71.0,127.0
290,227.81924975416666,228.069249775,70.0,81.0
291,228.05001900416667,228.50578827291667,71.0,112.0
292,228.74232675416667,229.130788325,66.0,107.0
293,229.20386525416666,230.45578843541668,68.0,97.0
294,233.81925025416666,234.17117336041667,66.0,107.0
295,234.28078875416668,234.38848107083334,68.0,100.0
296,234.51155800416666,235.22694267916665,70.0,127.0
297,235.66540425416667,235.80001965,70.0,107.0
298,235.89617350416665,235.98078889583334,73.0,99.0
299,236.12694275416666,236.28078892083334,73.0,99.0
300,236.35771200416667,236.47694278333333,70.0,95.0
301,236.58848125416665,236.87694281666666,73.0,122.0
302,237.05001975416667,237.14040437708334,75.0,95.0
303,237.28078900416668,237.71925057916667,75.0,107.0
304,237.74232750416667,238.78078912916666,73.0,97.0
305,239.35771225416667,239.6654045875,75.0,107.0
306,239.81925075416666,239.97117384375,77.0,112.0
307,240.05002000416667,241.1077124,78.0,127.0
308,241.66540475416667,241.90002015833332,77.0,127.0
309,242.12694325416666,242.39809712291665,78.0,112.0
310,242.58848175416668,242.84232792916666,77.0,112.0
311,243.05002025416667,243.29040488958333,78.0,122.0
312,243.51155875416666,243.66540492083334,70.0,100.0
313,243.97309725416667,245.06925119166667,73.0,127.0
314,246.74232825416667,247.06155905,70.0,112.0
315,247.20386675416665,247.33271291875,73.0,102.0
316,247.66540525416667,247.99809758958332,75.0,107.0
317,248.12694375416666,248.21925145416665,73.0,97.0
318,248.35771300416667,249.77117466041668,75.0,117.0
319,250.43463625416666,250.61155934583334,75.0,122.0
320,250.89617475416665,250.98079014583334,70.0,102.0
321,251.12694400416666,251.25579016875,70.0,102.0
322,251.35771325416667,251.48463634166666,73.0,102.0
323,251.58848250416668,253.72694422083333,70.0,99.0
324,254.58848275416668,254.81732892708334,71.0,127.0
325,254.81925200416666,255.07886741041668,70.0,89.0
326,255.05002125416667,255.82886747291667,71.0,112.0
327,256.66540600416664,256.8596367895833,70.0,100.0
328,256.8961752541667,257.40002145,75.0,127.0
329,257.5884830041667,258.20386767083335,78.0,127.0
330,258.2807907541667,258.62886770625,75.0,122.0
331,258.7423292541667,261.41348332291665,75.0,127.0
332,261.5115602541667,261.85194489791667,73.0,117.0
333,261.97309875416664,262.25579108541666,73.0,117.0
334,262.43463725416666,262.75386805,75.0,127.0
335,262.8961757541667,262.9923296083333,73.0,112.0
336,263.12694500416666,264.4634835770833,75.0,127.0
337,265.20386825416665,265.33271441875,75.0,112.0
338,265.66540675416667,265.87502215625,70.0,93.0
339,266.1269452541667,266.2865606520833,70.0,107.0
340,266.35771450416667,266.515406825,73.0,112.0
341,266.8192530041667,267.66156076666664,70.0,107.0
342,269.3577147541667,269.57886861875,71.0,127.0
343,269.5884840041667,269.8769455666667,70.0,81.0
344,269.81925325416665,270.3846379166667,71.0,99.0
345,271.20386875416665,271.546176475,71.0,117.0
346,271.66540725416667,272.05194574791665,75.0,112.0
347,272.35771500416666,272.85579196875,78.0,117.0
348,273.05002275416666,273.2884843125,75.0,102.0
349,273.5115612541667,276.1423307041667,75.0,127.0
