,start,end,pitch,velocity
0,3.973077254166667,4.269231125,63.0,66.0
1,3.973077254166667,4.29807728125,56.0,61.0
2,3.973077254166667,4.301923435416667,59.0,69.0
3,3.973077254166667,4.386538827083333,44.0,60.0
4,4.434615754166667,5.488461995833333,54.0,65.0
5,4.434615754166667,5.496154304166667,58.0,68.0
6,4.434615754166667,5.507692766666667,61.0,77.0
7,4.434615754166667,5.515385075,42.0,64.0
8,5.357692754166667,7.346154458333333,44.0,67.0
9,5.357692754166667,7.576923708333333,56.0,73.0
10,5.357692754166667,7.59807755625,59.0,78.0
11,5.357692754166667,7.619231404166666,63.0,82.0
12,8.588462254166666,9.1269238375,54.0,89.0
13,7.665385254166667,9.315385391666666,42.0,66.0
14,9.050000754166666,9.40961616875,56.0,81.0
15,8.126923754166667,9.52500079375,49.0,50.0
16,9.511539254166667,9.6576931125,61.0,82.0
17,9.511539254166667,9.6807700375,46.0,85.0
18,9.511539254166667,9.6807700375,58.0,93.0
19,9.511539254166667,9.6807700375,65.0,79.0
20,9.973077754166667,9.98653929375,63.0,81.0
21,9.973077754166667,10.121154689583333,46.0,99.0
22,9.973077754166667,10.146154691666666,65.0,78.0
23,9.973077754166667,10.153847,58.0,81.0
24,10.896154754166666,12.794231835416667,47.0,72.0
25,10.896154754166666,12.982693389583334,59.0,102.0
26,10.896154754166666,12.982693389583334,63.0,79.0
27,10.896154754166666,12.982693389583334,66.0,79.0
28,13.203847254166666,15.100001258333334,56.0,55.0
29,13.203847254166666,15.1038474125,49.0,58.0
30,13.203847254166666,15.1038474125,61.0,58.0
31,13.203847254166666,15.105770489583334,37.0,53.0
32,13.203847254166666,15.10961664375,65.0,63.0
33,15.973078254166667,17.10577065625,51.0,78.0
34,16.434616754166665,17.511539920833332,54.0,67.0
35,17.357693754166668,17.813463022916668,51.0,69.0
36,15.050001254166666,17.865386104166667,39.0,76.0
37,15.511539754166666,17.875001489583333,46.0,64.0
38,16.896155254166665,17.903847645833334,58.0,69.0
39,18.280770754166667,18.83654003125,58.0,72.0
40,16.896155254166665,18.880770804166666,63.0,69.0
41,17.819232254166668,18.89038618958333,54.0,92.0
42,19.665386254166666,20.755770960416665,47.0,83.0
43,20.126924754166666,21.00577098125,51.0,74.0
44,20.588463254166665,21.05192483125,54.0,73.0
45,20.588463254166665,21.078847910416666,59.0,81.0
46,21.050001754166665,21.67500180625,47.0,82.0
47,21.742309504166666,21.807694125,47.0,36.0
48,19.203847754166667,21.8192325875,42.0,48.0
49,18.742309254166667,21.821155664583333,35.0,81.0
50,21.973078754166668,22.434617254166668,54.0,75.0
51,21.51154025416667,22.434617254166668,59.0,112.0
52,21.51154025416667,22.434617254166668,63.0,95.0
53,23.357694254166667,24.42115588125,51.0,92.0
54,24.280771254166666,24.930771308333334,58.0,76.0
55,24.280771254166666,25.007694391666668,63.0,79.0
56,24.742309754166666,25.317309802083333,51.0,86.0
57,23.819232754166666,25.532694435416666,54.0,58.0
58,22.896155754166667,25.571155977083333,46.0,58.0
59,22.434617254166668,25.573079054166666,39.0,93.0
60,25.434617504166667,25.78269445625,51.0,65.0
61,25.665386754166665,26.126925254166668,58.0,81.0
62,25.203848254166665,26.17500218125,63.0,95.0
63,26.588463754166668,27.232694577083333,51.0,66.0
64,26.126925254166668,27.332694585416668,44.0,78.0
65,27.050002254166667,27.584617683333335,63.0,81.0
66,27.050002254166667,27.621156147916665,59.0,96.0
67,27.511540754166667,27.7846177,56.0,71.0
68,27.973079254166667,29.32115628958333,34.0,74.0
69,28.434617754166666,29.34807936875,41.0,63.0
70,28.896156254166666,29.525002460416665,46.0,72.0
71,29.357694754166666,29.84423325625,53.0,78.0
72,27.973079254166667,29.846156333333333,58.0,72.0
73,27.973079254166667,29.875002489583334,62.0,71.0
74,30.742310254166668,31.861541116666668,51.0,89.0
75,31.665387254166667,32.4000027,58.0,83.0
76,32.12692575416666,32.49615655416667,51.0,60.0
77,30.280771754166665,32.617310410416664,46.0,63.0
78,29.819233254166665,32.6192334875,39.0,96.0
79,31.203848754166668,32.644233489583335,54.0,79.0
80,31.665387254166667,33.54038741041666,63.0,92.0
81,32.58846425416667,33.58077202916667,58.0,89.0
82,33.05000275416667,33.62884895625,54.0,79.0
83,34.434618254166665,35.482695264583334,47.0,95.0
84,35.81923375416667,36.31731071875,47.0,82.0
85,33.97307975416667,36.36731072291666,42.0,58.0
86,33.511541254166666,36.42307995833333,35.0,83.0
87,35.357695254166664,36.45577226875,54.0,82.0
88,36.28077225416666,37.18269540625,51.0,97.0
89,36.74231075416667,37.18269540625,54.0,78.0
90,34.89615675416667,37.2346184875,59.0,100.0
91,37.665387754166666,38.39231089166667,44.0,82.0
92,37.20384925416667,38.52115705625,32.0,85.0
93,38.12692625416667,39.06346479375,63.0,93.0
94,38.588464754166665,39.10000325833333,56.0,81.0
95,39.05000325416667,40.3500033625,34.0,81.0
96,39.511541754166664,40.37115721041667,41.0,57.0
97,39.97308025416667,40.49038798958333,46.0,54.0
98,40.434618754166664,40.89615725416667,50.0,72.0
99,39.97308025416667,40.89615725416667,53.0,68.0
100,39.97308025416667,40.89615725416667,58.0,63.0
101,41.819234254166666,43.201926677083335,51.0,96.0
102,41.35769575416666,43.2807728375,46.0,55.0
103,40.89615725416667,43.369234383333335,39.0,97.0
104,42.742311254166665,43.44038823541667,63.0,77.0
105,42.742311254166665,43.45961900625,66.0,82.0
106,42.28077275416667,43.530772858333336,58.0,89.0
107,43.665388254166665,44.582696022916664,37.0,92.0
108,43.665388254166665,44.61731141041667,61.0,100.0
109,43.665388254166665,44.6192344875,56.0,99.0
110,43.665388254166665,44.621157564583335,65.0,96.0
111,45.05000375416667,45.6000038,54.0,93.0
112,45.28077300416667,45.909619210416665,58.0,77.0
113,45.742311504166665,46.157696154166665,54.0,85.0
114,44.588465254166664,46.351926939583336,42.0,95.0
115,44.819234504166666,46.4884654125,49.0,78.0
116,46.20385000416667,46.957696220833334,58.0,100.0
117,45.51154225416666,46.96731160625,66.0,99.0
118,45.973080754166666,46.988465454166665,61.0,92.0
119,46.896157754166666,47.24038855208333,54.0,90.0
120,46.665388504166664,47.48269626458333,49.0,60.0
121,47.12692700416667,47.75192705625,58.0,92.0
122,47.58846550416666,47.819234754166665,49.0,71.0
123,46.43461925416667,47.87885014375,42.0,69.0
124,48.05000400416667,48.29615787083333,58.0,99.0
125,47.819234754166665,48.29615787083333,61.0,92.0
126,47.35769625416667,48.29615787083333,66.0,102.0
127,48.742311754166664,49.23654256458333,49.0,85.0
128,49.43461950416667,49.65577336875,49.0,93.0
129,48.973081004166666,49.70192721875,53.0,77.0
130,48.28077325416667,50.015388783333336,37.0,86.0
131,49.896158004166665,50.1230811,53.0,100.0
132,48.51154250416667,50.15192725625,44.0,73.0
133,49.66538875416666,50.15192725625,56.0,89.0
134,49.20385025416667,50.18654264375,61.0,102.0
135,50.58846575416667,51.10961964375,49.0,93.0
136,50.819235004166664,51.12115810625,56.0,95.0
137,51.28077350416667,51.459619672916666,49.0,96.0
138,51.050004254166666,51.557696604166665,61.0,92.0
139,50.12692725416667,51.76538892916667,37.0,89.0
140,51.51154275416667,51.95385048333333,56.0,96.0
141,50.35769650416667,51.961542791666666,44.0,74.0
142,51.74231200416666,51.967312022916666,61.0,117.0
143,51.050004254166666,51.9692351,65.0,102.0
144,52.43461975416667,52.93077364166667,51.0,90.0
145,53.126927504166666,53.3538506,51.0,97.0
146,52.66538900416667,53.39038906458333,58.0,96.0
147,51.973081254166665,53.6884660125,39.0,86.0
148,52.20385050416667,53.840389102083336,46.0,82.0
149,53.58846600416667,54.384619916666665,58.0,100.0
150,52.896158254166664,54.44423530625,66.0,100.0
151,53.35769675416667,54.46923530833333,63.0,97.0
152,54.28077375416667,54.83654303125,51.0,86.0
153,54.51154300416667,55.06154305,58.0,96.0
154,54.973081504166665,55.167312289583336,51.0,93.0
155,54.050004504166665,55.184619983333334,46.0,89.0
156,53.819235254166664,55.24423537291667,39.0,79.0
157,54.74231225416666,55.6500046375,66.0,102.0
158,55.203850754166666,55.69808156458333,63.0,99.0
159,55.43462000416667,55.73654310625,58.0,102.0
160,56.126927754166665,56.65962010625,46.0,73.0
161,56.35769700416667,56.975004747916664,53.0,92.0
162,56.81923550416666,57.09038937291667,46.0,100.0
163,55.66538925416667,57.40769709166667,34.0,93.0
164,55.896158504166664,57.56154325833333,41.0,55.0
165,56.58846625416667,57.88462020833333,61.0,107.0
166,57.280774004166666,58.03462022083333,53.0,102.0
167,57.050004754166665,58.098081764583334,58.0,96.0
168,57.973081754166664,58.47115871875,46.0,93.0
169,57.51154325416667,58.684620275,34.0,78.0
170,57.74231250416667,58.8000049,41.0,81.0
171,58.66538950416667,58.91346644791667,46.0,92.0
172,58.203851004166665,58.92500491041667,53.0,92.0
173,58.43462025416667,59.34615879166667,61.0,100.0
174,58.89615875416666,59.37115879375,58.0,95.0
175,59.126928004166665,59.39038956458333,53.0,99.0
176,59.81923575416667,60.31346656458333,47.0,99.0
177,60.050005004166664,60.72885121458333,51.0,88.0
178,59.357697254166666,61.075005089583335,35.0,93.0
179,59.58846650416667,61.17115894375,42.0,44.0
180,60.97308200416666,61.248082027083335,51.0,86.0
181,60.74231275416667,61.269235875,54.0,81.0
182,60.280774254166666,61.29423587708333,59.0,122.0
183,60.51154350416667,61.52308205,47.0,100.0
184,61.66538975416667,62.196159029166665,47.0,85.0
185,61.89615900416667,62.21154364583333,54.0,90.0
186,61.434620504166666,62.450005204166665,42.0,63.0
187,61.203851254166665,62.482697514583336,35.0,64.0
188,62.357697504166666,62.57115906041667,47.0,102.0
189,62.126928254166664,62.65962060625,59.0,100.0
190,62.58846675416667,63.01923602083333,54.0,96.0
191,62.81923600416667,63.05577448541666,59.0,112.0
192,62.126928254166664,63.069236025,63.0,97.0
193,63.51154375416667,64.05385149166666,54.0,89.0
194,63.74231300416667,64.27692843333334,58.0,95.0
195,64.20385150416666,64.41154382916666,54.0,97.0
196,63.05000525416666,64.74039001041666,42.0,82.0
197,63.280774504166665,64.93077464166667,49.0,88.0
198,63.97308225416667,65.25577466874999,66.0,100.0
199,64.66539000416667,65.25962082291666,58.0,97.0
200,64.43462075416667,65.27692851666667,61.0,95.0
201,65.35769775416667,65.71346701458333,54.0,90.0
202,65.12692850416667,65.95192857291667,49.0,95.0
203,65.58846700416666,66.15192858958333,58.0,100.0
204,64.89615925416666,66.2423132125,42.0,72.0
205,66.05000550416666,66.25192859791666,49.0,95.0
206,66.28077475416667,66.75385171666666,61.0,99.0
207,65.81923625416667,66.75577479374999,66.0,102.0
208,66.51154400416667,66.80385172083334,58.0,96.0
209,67.20385175416666,67.72692872083333,44.0,89.0
210,66.74231325416666,67.98462105,32.0,74.0
211,66.97308250416667,68.02692874583333,39.0,63.0
212,67.89615950416666,68.16539029583333,44.0,88.0
213,67.43462100416667,68.16539029583333,51.0,93.0
214,68.12692875416667,68.53269801875,56.0,97.0
215,67.66539025416667,68.54039032708333,59.0,112.0
216,68.35769800416666,68.54615955833333,51.0,95.0
217,69.28077500416667,69.61346733958334,54.0,95.0
218,69.05000575416666,69.61539041666667,47.0,102.0
219,68.81923650416667,69.88654428541666,42.0,44.0
220,68.58846725416667,69.93269813541667,35.0,97.0
221,69.74231350416666,70.00000583333333,47.0,107.0
222,69.51154425416667,70.06731353125,59.0,107.0
223,69.97308275416667,70.37115971041666,54.0,102.0
224,70.20385200416666,70.39231355833333,59.0,117.0
225,69.51154425416667,70.43462125416667,63.0,100.0
226,70.43462125416667,70.869236675,56.0,100.0
227,70.43462125416667,70.87500590625,65.0,93.0
228,70.43462125416667,70.93077514166667,37.0,88.0
229,70.43462125416667,70.93846745,61.0,97.0
230,71.12692900416667,71.61154442916667,58.0,89.0
231,71.12692900416667,71.63269827708334,63.0,107.0
232,71.12692900416667,71.63654443125,66.0,100.0
233,71.12692900416667,71.69615982083333,39.0,73.0
234,71.81923675416667,72.3807752625,68.0,100.0
235,71.81923675416667,72.38269833958333,65.0,99.0
236,71.81923675416667,72.438467575,41.0,102.0
237,72.51154450416666,73.20962148541666,66.0,107.0
238,72.51154450416666,73.21539071666666,70.0,107.0
239,72.51154450416666,73.24231379583334,42.0,122.0
240,73.20385225416666,73.45577535208334,63.0,97.0
241,73.20385225416666,73.48269843125,56.0,96.0
242,73.20385225416666,73.48654458541667,44.0,107.0
243,73.20385225416666,73.48654458541667,59.0,122.0
244,73.20385225416666,73.592313825,68.0,122.0
245,73.66539075416667,73.71731383541666,39.0,70.0
246,73.66539075416667,74.06154463333333,41.0,83.0
247,73.66539075416667,74.12116002291667,53.0,112.0
248,73.66539075416667,74.15385233333333,65.0,107.0
249,74.12692925416667,74.51731390208333,58.0,88.0
250,74.12692925416667,74.53462159583333,61.0,89.0
251,74.81923700416667,75.17116011041666,54.0,96.0
252,75.28077550416667,75.62500630208334,54.0,100.0
253,75.05000625416666,75.807698625,61.0,122.0
254,74.12692925416667,75.81539093333333,42.0,99.0
255,74.58846775416667,75.97885248541667,49.0,90.0
256,75.51154475416666,76.20000635,70.0,122.0
257,75.74231400416667,76.58846792083334,66.0,99.0
258,76.43462175416667,76.99039103125,54.0,93.0
259,76.66539100416666,77.22885258958333,61.0,92.0
260,77.12692950416667,77.28654490208334,54.0,89.0
261,76.20385250416666,77.31346798125,49.0,89.0
262,75.97308325416667,77.33846798333333,42.0,77.0
263,77.35769875416666,77.78269878958334,66.0,89.0
264,76.89616025416666,77.792314175,70.0,122.0
265,77.58846800416667,77.8730834125,61.0,88.0
266,78.28077575416667,78.79231425833333,49.0,99.0
267,78.51154500416666,79.10192966875,56.0,92.0
268,78.97308350416667,79.25000660416667,49.0,96.0
269,77.81923725416667,79.55000662916666,37.0,78.0
270,78.05000650416666,79.6961604875,44.0,66.0
271,79.43462200416667,80.19039129791666,56.0,99.0
272,79.20385275416666,80.2500066875,61.0,96.0
273,78.74231425416667,80.44039131875,65.0,123.0
274,80.12692975416667,80.65962210625,49.0,99.0
275,80.35769900416666,80.74808365208334,56.0,96.0
276,80.58846825416667,81.09231445,65.0,126.0
277,80.81923750416667,81.10192983541667,49.0,99.0
278,79.66539125416666,81.36923755,37.0,79.0
279,79.89616050416667,81.51539140833333,44.0,92.0
280,81.05000675416666,81.53654525625,56.0,102.0
281,81.28077600416667,81.56154525833334,65.0,114.0
282,81.97308375416667,82.500006875,51.0,95.0
283,82.20385300416666,82.75962228125,58.0,97.0
284,82.66539150416666,82.92885306458334,51.0,96.0
285,81.51154525416666,83.19423770208333,39.0,92.0
286,81.74231450416667,83.41731464375,46.0,86.0
287,83.12693000416667,83.87885314374999,58.0,96.0
288,82.89616075416667,84.06346854375,63.0,99.0
289,82.43462225416667,84.08654546875,66.0,122.0
290,83.81923775416666,84.3115454875,51.0,97.0
291,84.05000700416667,84.54808396875,58.0,99.0
292,83.35769925416666,84.65000705416666,39.0,67.0
293,83.58846850416667,84.65577628541666,46.0,82.0
294,84.51154550416666,84.65577628541666,51.0,102.0
295,84.74231475416667,85.1076994,63.0,97.0
296,84.28077625416667,85.12116093958333,66.0,123.0
297,84.97308400416667,85.25000710416667,58.0,99.0
298,85.66539175416666,86.19423795208333,46.0,95.0
299,85.89616100416667,86.25193026458334,58.0,93.0
300,85.20385325416666,86.4346225875,34.0,78.0
301,85.43462250416667,86.45962258958333,41.0,82.0
302,86.35769950416666,86.60193029375,46.0,99.0
303,86.12693025416667,86.85769954583333,65.0,122.0
304,86.58846875416667,86.92500724375,61.0,112.0
305,86.81923800416666,87.68846884583333,58.0,97.0
306,87.74231500416667,87.89423809375,64.0,127.0
307,87.51154575416666,88.11346888125,54.0,97.0
308,87.05000725416667,88.39808428958334,42.0,81.0
309,87.28077650416667,88.41731506041667,49.0,92.0
310,88.20385350416666,88.50193045208333,54.0,92.0
311,87.97308425416666,88.71731508541667,64.0,127.0
312,88.43462275416667,88.86731509791666,61.0,112.0
313,88.66539200416666,88.89423817708334,58.0,100.0
314,89.35769975416666,89.89808441458334,59.0,97.0
315,89.58846900416667,90.20962290208334,63.0,81.0
316,88.89616125416667,90.61539216666667,47.0,95.0
317,89.12693050416667,90.78077679583333,54.0,72.0
318,90.05000750416667,90.9807768125,59.0,100.0
319,89.81923825416666,91.22885375625,71.0,117.0
320,90.51154600416666,91.25577683541667,63.0,96.0
321,90.28077675416667,91.37885376875,66.0,95.0
322,91.20385375416667,91.75769995416667,59.0,102.0
323,90.97308450416666,92.02885382291666,54.0,63.0
324,91.89616150416667,92.0423153625,59.0,102.0
325,90.74231525416667,92.09808459791667,47.0,76.0
326,91.43462300416667,92.19231537499999,63.0,78.0
327,92.12693075416666,92.57116156041667,66.0,97.0
328,91.66539225416666,92.5730846375,71.0,122.0
329,92.35770000416666,92.62308464166667,63.0,97.0
330,93.28077700416667,93.30770008333333,61.0,31.0
331,93.05000775416667,93.55577702708334,54.0,90.0
332,93.28077700416667,93.946161675,58.0,99.0
333,93.74231550416667,93.992315525,54.0,96.0
334,92.58846925416667,94.27500785625,42.0,78.0
335,92.81923850416666,94.50770018333333,49.0,79.0
336,93.51154625416666,94.8577002125,66.0,97.0
337,94.20385400416667,94.97693099166666,58.0,99.0
338,93.97308475416666,95.03462330416667,61.0,99.0
339,95.12693100416666,95.19616177916667,61.0,38.0
340,94.89616175416667,95.45000795416667,54.0,100.0
341,95.58846950416667,95.7577002875,54.0,107.0
342,95.12693100416666,95.77308490416667,58.0,97.0
343,94.43462325416667,96.08462339166667,42.0,88.0
344,95.35770025416667,96.24808494375,66.0,107.0
345,94.66539250416666,96.26154648333333,49.0,93.0
346,95.81923875416666,96.28077725416667,61.0,97.0
347,96.05000800416667,96.30385417916666,58.0,96.0
348,96.74231575416667,96.98270038958333,56.0,93.0
349,96.97308500416666,97.26346964375,59.0,95.0
350,96.51154650416666,97.2807773375,51.0,77.0
351,96.28077725416667,97.5807773625,44.0,88.0
352,97.43462350416667,97.60577736458333,51.0,82.0
353,97.20385425416667,98.07885432708333,63.0,92.0
354,97.66539275416666,98.08462355833333,59.0,107.0
355,97.89616200416667,98.09039278958333,56.0,90.0
356,98.12693125416666,98.6884697625,59.0,122.0
357,98.12693125416666,98.76154669166667,63.0,92.0
358,98.58846975416667,99.24616211666667,51.0,59.0
359,98.12693125416666,99.34423904791666,47.0,97.0
360,98.81923900416666,99.91923909583333,59.0,100.0
361,98.81923900416666,99.95385448333333,63.0,69.0
362,98.12693125416666,99.97116217708333,66.0,85.0
363,100.43462375416667,100.9961622625,51.0,83.0
364,101.12693150416666,101.41539306666667,51.0,82.0
365,100.66539300416666,101.41731614375,58.0,86.0
366,99.97308525416666,101.7230854,39.0,81.0
367,100.20385450416667,101.92693157083333,46.0,65.0
368,101.58847000416667,102.32885468125,58.0,82.0
369,100.89616225416667,102.42885468958333,66.0,95.0
370,101.35770075416667,102.4500085375,63.0,71.0
371,102.51154700416667,102.56347008541667,63.0,36.0
372,102.28077775416666,102.8884701125,51.0,77.0
373,102.97308550416666,103.19808552291667,51.0,96.0
374,102.51154700416667,103.29808553125,58.0,72.0
375,101.81923925416666,103.315393225,39.0,53.0
376,102.05000850416667,103.32308553333333,46.0,77.0
377,102.74231625416667,103.638470175,66.0,102.0
378,103.20385475416667,103.65193171458333,63.0,93.0
379,103.43462400416666,103.7538548,58.0,97.0
380,104.12693175416666,104.65962410624999,49.0,89.0
381,104.35770100416667,105.08270106458333,56.0,90.0
382,104.81923950416666,105.10193183541666,49.0,85.0
383,103.66539325416666,105.30577800625,37.0,72.0
384,103.89616250416667,105.54423956458334,44.0,55.0
385,105.28077800416666,106.05385499166667,56.0,74.0
386,104.58847025416667,106.14423961458333,65.0,96.0
387,105.05000875416667,106.2115473125,61.0,82.0
388,105.97308575416666,106.50770118333334,49.0,81.0
389,106.20385500416667,106.80193197708333,56.0,77.0
390,106.66539350416667,106.82308582499999,49.0,99.0
391,105.74231650416667,106.83654736458334,44.0,66.0
392,105.51154725416667,106.85962428958334,37.0,56.0
393,106.43462425416666,107.30193201875,65.0,117.0
394,106.89616275416667,107.31731663541666,61.0,112.0
395,107.12693200416666,107.35770125416667,56.0,112.0
396,107.81923975416666,108.37500903125,51.0,86.0
397,108.51154750416667,109.09808601458333,51.0,95.0
398,108.28077825416666,109.15385524999999,59.0,102.0
399,108.28077825416666,109.15385524999999,63.0,93.0
400,108.74231675416667,109.17116294375,56.0,97.0
401,107.35770125416667,109.19423986875,44.0,96.0
402,109.66539375416667,110.19423995208334,52.0,92.0
403,109.89616300416667,110.24423995625,56.0,90.0
404,109.43462450416666,110.4923169,47.0,86.0
405,110.35770150416667,110.52116305625,52.0,85.0
406,109.20385525416667,110.57885536875,40.0,93.0
407,110.12693225416666,110.6769323,59.0,89.0
408,110.12693225416666,111.00385540416667,64.0,122.0
409,111.51154775416667,112.15193242291667,53.0,69.0
410,111.74231700416667,112.1653939625,58.0,96.0
411,111.97308625416666,112.47116321875,63.0,127.0
412,111.05000925416667,112.80770170833333,46.0,100.0
413,112.89616325416667,114.46539415416666,46.0,55.0
414,112.20385550416667,114.47693261666667,53.0,74.0
415,112.89616325416667,114.50770185,62.0,74.0
416,112.89616325416667,114.51539415833334,58.0,72.0
417,112.43462475416666,114.5192403125,65.0,100.0
418,112.89616325416667,114.54808646875,68.0,76.0
419,115.66539425416667,116.79808665624999,51.0,78.0
420,116.12693275416666,117.20385592083333,54.0,67.0
421,117.05000975416667,117.50577902291667,51.0,69.0
422,114.74231725416666,117.55770210416667,39.0,76.0
423,115.20385575416667,117.56731748958333,46.0,64.0
424,116.58847125416666,117.59616364583333,58.0,69.0
425,117.97308675416667,118.52885603125,58.0,72.0
426,116.58847125416666,118.57308680416666,63.0,69.0
427,117.51154825416667,118.58270218958333,54.0,92.0
428,119.35770225416667,120.44808696041666,47.0,83.0
429,119.81924075416667,120.69808698125,51.0,74.0
430,120.28077925416666,120.74424083125,54.0,73.0
431,120.28077925416666,120.77116391041666,59.0,81.0
432,120.74231775416666,121.36731780625,47.0,82.0
433,121.43462550416666,121.500010125,47.0,36.0
434,118.89616375416666,121.5115485875,42.0,48.0
435,118.43462525416666,121.51347166458334,35.0,81.0
436,121.66539475416667,122.12693325416667,54.0,75.0
437,121.20385625416667,122.12693325416667,59.0,112.0
438,121.20385625416667,122.12693325416667,63.0,95.0
439,123.05001025416666,124.11347188124999,51.0,92.0
440,123.97308725416667,124.62308730833334,58.0,76.0
441,123.97308725416667,124.70001039166667,63.0,79.0
442,124.43462575416666,125.00962580208333,51.0,86.0
443,123.51154875416667,125.22501043541666,54.0,58.0
444,122.58847175416666,125.26347197708333,46.0,58.0
445,122.12693325416667,125.26539505416666,39.0,93.0
446,125.12693350416667,125.47501045625,51.0,65.0
447,125.35770275416667,125.81924125416667,58.0,81.0
448,124.89616425416666,125.86731818125,63.0,95.0
449,126.28077975416667,126.92501057708333,51.0,66.0
450,125.81924125416667,127.02501058541667,44.0,78.0
451,126.74231825416666,127.27693368333333,63.0,81.0
452,126.74231825416666,127.31347214791667,59.0,96.0
453,127.20385675416667,127.4769337,56.0,71.0
454,127.66539525416667,129.01347228958332,34.0,74.0
455,128.12693375416666,129.04039536875,41.0,63.0
456,128.58847225416667,129.21731846041666,46.0,72.0
457,129.05001075416666,129.53654925625,53.0,78.0
458,127.66539525416667,129.53847233333335,58.0,72.0
459,127.66539525416667,129.56731848958333,62.0,71.0
460,130.43462625416666,131.55385711666668,51.0,89.0
461,131.35770325416667,132.0923187,58.0,83.0
462,131.81924175416665,132.18847255416668,51.0,60.0
463,129.97308775416667,132.30962641041666,46.0,63.0
464,129.51154925416665,132.3115494875,39.0,96.0
465,130.89616475416668,132.33654948958332,54.0,79.0
466,131.35770325416667,133.23270341041666,63.0,92.0
467,132.28078025416667,133.27308802916667,58.0,89.0
468,132.74231875416666,133.32116495625,54.0,79.0
469,134.12693425416666,135.17501126458333,47.0,95.0
470,135.51154975416668,136.00962671875,47.0,82.0
471,133.66539575416667,136.05962672291668,42.0,58.0
472,133.20385725416668,136.11539595833332,35.0,83.0
473,135.05001125416666,136.14808826875,54.0,82.0
474,135.97308825416667,136.87501140625,51.0,97.0
475,136.43462675416666,136.87501140625,54.0,78.0
476,134.58847275416667,136.9269344875,59.0,100.0
477,137.35770375416666,138.08462689166666,44.0,82.0
478,136.89616525416668,138.21347305625,32.0,85.0
479,137.81924225416665,138.75578079375,63.0,93.0
480,138.28078075416667,138.79231925833332,56.0,81.0
481,138.74231925416666,140.0423193625,34.0,81.0
482,139.20385775416668,140.06347321041667,41.0,57.0
483,139.66539625416667,140.18270398958333,46.0,54.0
484,140.12693475416665,140.58847325416667,50.0,72.0
485,139.66539625416667,140.58847325416667,53.0,68.0
486,139.66539625416667,140.58847325416667,58.0,63.0
487,141.51155025416668,142.89424267708333,51.0,96.0
488,141.05001175416666,142.9730888375,46.0,55.0
489,140.58847325416667,143.06155038333333,39.0,97.0
490,142.43462725416666,143.13270423541667,63.0,77.0
491,142.43462725416666,143.15193500625,66.0,82.0
492,141.97308875416667,143.22308885833334,58.0,89.0
493,143.35770425416666,144.27501202291666,37.0,92.0
494,143.35770425416666,144.30962741041665,61.0,100.0
495,143.35770425416666,144.3115504875,56.0,99.0
496,143.35770425416666,144.31347356458332,65.0,96.0
497,144.74231975416666,145.2923198,54.0,93.0
498,144.97308900416667,145.60193521041666,58.0,77.0
499,145.43462750416666,145.85001215416668,54.0,85.0
500,144.28078125416667,146.04424293958334,42.0,95.0
501,144.51155050416668,146.1807814125,49.0,78.0
502,145.89616600416667,146.65001222083333,58.0,100.0
503,145.20385825416668,146.65962760625,66.0,99.0
504,145.66539675416666,146.68078145416666,61.0,92.0
505,146.58847375416667,146.93270455208332,54.0,90.0
506,146.35770450416666,147.17501226458333,49.0,60.0
507,146.81924300416668,147.44424305625,58.0,92.0
508,147.28078150416667,147.51155075416668,49.0,71.0
509,146.12693525416665,147.57116614375,42.0,69.0
510,147.74232000416666,147.98847387083333,58.0,99.0
511,147.51155075416668,147.98847387083333,61.0,92.0
512,147.05001225416666,147.98847387083333,66.0,102.0
513,148.43462775416666,148.92885856458332,49.0,85.0
514,149.12693550416665,149.34808936875,49.0,93.0
515,148.66539700416666,149.39424321875,53.0,77.0
516,147.97308925416667,149.70770478333333,37.0,86.0
517,149.58847400416667,149.8153971,53.0,100.0
518,148.20385850416667,149.84424325625,44.0,73.0
519,149.35770475416666,149.84424325625,56.0,89.0
520,148.89616625416667,149.87885864375,61.0,102.0
521,150.28078175416667,150.80193564375,49.0,93.0
522,150.51155100416668,150.81347410625,56.0,95.0
523,150.97308950416667,151.15193567291666,49.0,96.0
524,150.74232025416666,151.25001260416667,61.0,92.0
525,149.81924325416668,151.45770492916665,37.0,89.0
526,151.20385875416667,151.64616648333333,56.0,96.0
527,150.05001250416666,151.65385879166666,44.0,74.0
528,151.43462800416665,151.65962802291668,61.0,117.0
529,150.74232025416666,151.6615511,65.0,102.0
530,152.12693575416665,152.62308964166667,51.0,90.0
531,152.81924350416668,153.0461666,51.0,97.0
532,152.35770500416666,153.08270506458334,58.0,96.0
533,151.66539725416666,153.3807820125,39.0,86.0
534,151.89616650416667,153.53270510208333,46.0,82.0
535,153.28078200416667,154.07693591666666,58.0,100.0
536,152.58847425416667,154.13655130625,66.0,100.0
537,153.05001275416666,154.16155130833334,63.0,97.0
538,153.97308975416666,154.52885903125,51.0,86.0
539,154.20385900416667,154.75385905,58.0,96.0
540,154.66539750416666,154.85962828958333,51.0,93.0
541,153.74232050416666,154.87693598333334,46.0,89.0
542,153.51155125416668,154.93655137291665,39.0,79.0
543,154.43462825416665,155.3423206375,66.0,102.0
544,154.89616675416667,155.39039756458334,63.0,99.0
545,155.12693600416665,155.42885910625,58.0,102.0
546,155.81924375416668,156.35193610625,46.0,73.0
547,156.05001300416666,156.66732074791668,53.0,92.0
548,156.51155150416668,156.78270537291667,46.0,100.0
549,155.35770525416666,157.10001309166665,34.0,93.0
550,155.58847450416667,157.25385925833334,41.0,55.0
551,156.28078225416667,157.57693620833334,61.0,107.0
552,156.97309000416666,157.72693622083332,53.0,102.0
553,156.74232075416666,157.79039776458333,58.0,96.0
554,157.66539775416666,158.16347471875,46.0,93.0
555,157.20385925416667,158.376936275,34.0,78.0
556,157.43462850416665,158.4923209,41.0,81.0
557,158.35770550416666,158.60578244791665,46.0,92.0
558,157.89616700416667,158.61732091041665,53.0,92.0
559,158.12693625416668,159.03847479166666,61.0,100.0
560,158.58847475416667,159.06347479375,58.0,95.0
561,158.81924400416668,159.08270556458334,53.0,99.0
562,159.51155175416667,160.00578256458334,47.0,99.0
563,159.74232100416666,160.42116721458333,51.0,88.0
564,159.05001325416666,160.76732108958333,35.0,93.0
565,159.28078250416667,160.86347494375,42.0,44.0
566,160.66539800416666,160.94039802708332,51.0,86.0
567,160.43462875416665,160.961551875,54.0,81.0
568,159.97309025416666,160.98655187708334,59.0,122.0
569,160.20385950416667,161.21539805,47.0,100.0
570,161.35770575416666,161.88847502916667,47.0,85.0
571,161.58847500416667,161.90385964583334,54.0,90.0
572,161.12693650416668,162.14232120416668,42.0,63.0
573,160.89616725416667,162.17501351458333,35.0,64.0
574,162.05001350416666,162.26347506041665,47.0,102.0
575,161.81924425416668,162.35193660625,59.0,100.0
576,162.28078275416667,162.71155202083332,54.0,96.0
577,162.51155200416667,162.74809048541667,59.0,112.0
578,161.81924425416668,162.761552025,63.0,97.0
579,163.20385975416667,163.74616749166665,54.0,89.0
580,163.43462900416665,163.96924443333333,58.0,95.0
581,163.89616750416667,164.10385982916665,54.0,97.0
582,162.74232125416665,164.43270601041667,42.0,82.0
583,162.97309050416666,164.62309064166666,49.0,88.0
584,163.66539825416666,164.94809066875,66.0,100.0
585,164.35770600416666,164.95193682291668,58.0,97.0
586,164.12693675416668,164.96924451666666,61.0,95.0
587,165.05001375416666,165.40578301458333,54.0,90.0
588,164.81924450416668,165.64424457291668,49.0,95.0
589,165.28078300416666,165.84424458958333,58.0,100.0
590,164.58847525416667,165.9346292125,42.0,72.0
591,165.74232150416665,165.94424459791668,49.0,95.0
592,165.97309075416666,166.44616771666668,61.0,99.0
593,165.51155225416667,166.44809079375,66.0,102.0
594,166.20386000416667,166.49616772083334,58.0,96.0
595,166.89616775416667,167.41924472083332,44.0,89.0
596,166.43462925416668,167.67693705,32.0,74.0
597,166.66539850416666,167.71924474583332,39.0,63.0
598,167.58847550416667,167.85770629583334,44.0,88.0
599,167.12693700416668,167.85770629583334,51.0,93.0
600,167.81924475416668,168.22501401875,56.0,97.0
601,167.35770625416666,168.23270632708332,59.0,112.0
602,168.05001400416666,168.23847555833333,51.0,95.0
603,168.97309100416666,169.30578333958334,54.0,95.0
604,168.74232175416665,169.30770641666666,47.0,102.0
605,168.51155250416667,169.57886028541665,42.0,44.0
606,168.28078325416666,169.62501413541668,35.0,97.0
607,169.43462950416668,169.69232183333332,47.0,107.0
608,169.20386025416667,169.75962953125,59.0,107.0
609,169.66539875416666,170.06347571041667,54.0,102.0
610,169.89616800416667,170.08462955833332,59.0,117.0
611,169.20386025416667,170.12693725416668,63.0,100.0
612,170.12693725416668,170.561552675,56.0,100.0
613,170.12693725416668,170.56732190625,65.0,93.0
614,170.12693725416668,170.62309114166666,37.0,88.0
615,170.12693725416668,170.63078345,61.0,97.0
616,170.81924500416667,171.30386042916666,58.0,89.0
617,170.81924500416667,171.32501427708334,63.0,107.0
618,170.81924500416667,171.32886043125,66.0,100.0
619,170.81924500416667,171.38847582083332,39.0,73.0
620,171.51155275416667,172.0730912625,68.0,100.0
621,171.51155275416667,172.07501433958333,65.0,99.0
622,171.51155275416667,172.130783575,41.0,102.0
623,172.20386050416667,172.90193748541665,66.0,107.0
624,172.20386050416667,172.90770671666667,70.0,107.0
625,172.20386050416667,172.93462979583333,42.0,122.0
626,172.89616825416667,173.14809135208333,63.0,97.0
627,172.89616825416667,173.17501443125,56.0,96.0
628,172.89616825416667,173.17886058541666,44.0,107.0
629,172.89616825416667,173.17886058541666,59.0,122.0
630,172.89616825416667,173.284629825,68.0,122.0
631,173.35770675416666,173.40962983541667,39.0,70.0
632,173.35770675416666,173.75386063333335,41.0,83.0
633,173.35770675416666,173.81347602291666,53.0,112.0
634,173.35770675416666,173.84616833333334,65.0,107.0
635,173.81924525416667,174.20962990208332,58.0,88.0
636,173.81924525416667,174.22693759583333,61.0,89.0
637,174.51155300416667,174.86347611041666,54.0,96.0
638,174.97309150416666,175.31732230208334,54.0,100.0
639,174.74232225416665,175.500014625,61.0,122.0
640,173.81924525416667,175.50770693333334,42.0,99.0
641,174.28078375416666,175.67116848541667,49.0,90.0
642,175.20386075416667,175.89232235,70.0,122.0
643,175.43463000416668,176.28078392083333,66.0,99.0
644,176.12693775416668,176.68270703125,54.0,93.0
645,176.35770700416666,176.92116858958335,61.0,92.0
646,176.81924550416667,176.97886090208334,54.0,89.0
647,175.89616850416667,177.00578398125,49.0,89.0
648,175.66539925416666,177.03078398333332,42.0,77.0
649,177.05001475416665,177.47501478958333,66.0,89.0
650,176.58847625416666,177.484630175,70.0,122.0
651,177.28078400416666,177.5653994125,61.0,88.0
652,177.97309175416666,178.48463025833334,49.0,99.0
653,178.20386100416667,178.79424566875,56.0,92.0
654,178.66539950416666,178.94232260416666,49.0,96.0
655,177.51155325416667,179.24232262916667,37.0,78.0
656,177.74232250416668,179.3884764875,44.0,66.0
657,179.12693800416668,179.88270729791665,56.0,99.0
658,178.89616875416667,179.9423226875,61.0,96.0
659,178.43463025416668,180.13270731875,65.0,100.0
660,179.81924575416667,180.35193810625,49.0,99.0
661,180.05001500416665,180.44039965208333,56.0,96.0
662,180.28078425416666,180.78463045,65.0,117.0
663,180.51155350416667,180.79424583541666,49.0,99.0
664,179.35770725416666,181.06155354999999,37.0,79.0
665,179.58847650416666,181.20770740833333,44.0,92.0
666,180.74232275416668,181.22886125624998,56.0,102.0
667,180.97309200416666,181.25386125833333,65.0,97.0
668,181.66539975416666,182.192322875,51.0,95.0
669,181.89616900416667,182.45193828125,58.0,97.0
670,182.35770750416665,182.62116906458334,51.0,96.0
671,181.20386125416667,182.88655370208332,39.0,92.0
672,181.43463050416668,183.10963064375,46.0,86.0
673,182.81924600416667,183.57116914375,58.0,96.0
674,182.58847675416666,183.75578454375,63.0,99.0
675,182.12693825416667,183.77886146875,66.0,107.0
676,183.51155375416667,184.0038614875,51.0,97.0
677,183.74232300416668,184.24039996875,58.0,99.0
678,183.05001525416665,184.34232305416666,39.0,67.0
679,183.28078450416666,184.34809228541667,46.0,82.0
680,184.20386150416667,184.34809228541667,51.0,102.0
681,184.43463075416668,184.8000154,63.0,97.0
682,183.97309225416666,184.81347693958332,66.0,112.0
683,184.66540000416666,184.94232310416666,58.0,99.0
684,185.35770775416665,185.88655395208332,46.0,95.0
685,185.58847700416666,185.94424626458334,58.0,93.0
686,184.89616925416667,186.1269385875,34.0,78.0
687,185.12693850416667,186.15193858958332,41.0,82.0
688,186.05001550416665,186.29424629375,46.0,99.0
689,185.81924625416667,186.55001554583333,65.0,122.0
690,186.28078475416666,186.61732324375,61.0,112.0
691,186.51155400416667,187.38078484583332,58.0,97.0
692,187.43463100416668,187.58655409375,64.0,127.0
693,187.20386175416667,187.80578488125,54.0,97.0
694,186.74232325416668,188.09040028958333,42.0,81.0
695,186.97309250416666,188.10963106041666,49.0,92.0
696,187.89616950416666,188.19424645208332,54.0,92.0
697,187.66540025416666,188.40963108541666,64.0,127.0
698,188.12693875416667,188.55963109791668,61.0,112.0
699,188.35770800416665,188.58655417708334,58.0,100.0
700,189.05001575416668,189.59040041458334,59.0,97.0
701,189.28078500416666,189.90193890208334,63.0,81.0
702,188.58847725416666,190.30770816666666,47.0,95.0
703,188.81924650416667,190.47309279583334,54.0,72.0
704,189.74232350416668,190.6730928125,59.0,100.0
705,189.51155425416667,190.92116975625,71.0,117.0
706,190.20386200416667,190.94809283541667,63.0,96.0
707,189.97309275416666,191.07116976875,66.0,95.0
708,190.89616975416666,191.45001595416667,59.0,102.0
709,190.66540050416666,191.72116982291666,54.0,63.0
710,191.58847750416666,191.7346313625,59.0,102.0
711,190.43463125416667,191.79040059791666,47.0,76.0
712,191.12693900416667,191.884631375,63.0,78.0
713,191.81924675416667,192.26347756041667,66.0,97.0
714,191.35770825416665,192.2654006375,71.0,122.0
715,192.05001600416668,192.31540064166666,63.0,97.0
716,192.74232375416668,193.24809302708334,54.0,90.0
717,192.97309300416666,193.638477675,58.0,99.0
718,193.43463150416667,193.684631525,54.0,96.0
719,192.28078525416666,193.96732385625,42.0,78.0
720,192.51155450416667,194.20001618333333,49.0,79.0
721,193.20386225416667,194.5500162125,66.0,97.0
722,193.89617000416666,194.66924699166665,58.0,99.0
723,193.66540075416665,194.72693930416668,61.0,99.0
724,194.58847775416666,195.14232395416667,54.0,100.0
725,195.28078550416666,195.4500162875,54.0,107.0
726,194.81924700416667,195.46540090416667,58.0,97.0
727,194.12693925416667,195.77693939166667,42.0,88.0
728,195.05001625416668,195.94040094375,66.0,107.0
729,194.35770850416665,195.95386248333332,49.0,93.0
730,195.51155475416667,195.97309325416666,61.0,97.0
731,195.74232400416668,195.99617017916665,58.0,96.0
732,196.43463175416667,196.67501638958333,56.0,93.0
733,196.66540100416665,196.95578564375,59.0,95.0
734,196.20386250416666,196.9730933375,51.0,77.0
735,195.97309325416666,197.2730933625,44.0,88.0
736,197.12693950416667,197.29809336458334,51.0,82.0
737,196.89617025416666,197.77117032708333,63.0,92.0
738,197.35770875416665,197.77693955833334,59.0,107.0
739,197.58847800416666,197.78270878958332,56.0,90.0
740,198.28078575416666,198.80386272083334,47.0,64.0
741,198.51155500416667,199.02886273958333,54.0,86.0
742,197.81924725416667,199.05386274166668,35.0,122.0
743,198.97309350416666,199.24232429583333,47.0,97.0
744,198.74232425416668,199.29809353125,59.0,107.0
745,199.20386275416666,199.53270893541668,54.0,112.0
746,198.74232425416668,199.54809355208334,63.0,112.0
747,199.43463200416667,199.55193970625,59.0,97.0
748,199.66540125416665,200.04424743958333,63.0,117.0
749,199.66540125416665,200.053862825,66.0,99.0
750,199.66540125416665,200.20578591458334,58.0,97.0
751,199.66540125416665,200.2500166875,39.0,86.0
752,200.35770900416668,200.67309364583332,65.0,95.0
753,200.35770900416668,200.69232441666668,61.0,107.0
754,200.35770900416668,200.75193980625,37.0,93.0
755,200.35770900416668,200.90578597291668,56.0,102.0
756,201.05001675416668,201.75386296666667,63.0,96.0
757,201.05001675416668,201.75770912083334,59.0,122.0
758,201.05001675416668,201.78655527708332,66.0,93.0
759,201.05001675416668,201.78847835416667,35.0,107.0
760,202.43463225416667,202.80963228541665,68.0,100.0
761,202.43463225416667,202.8115553625,65.0,102.0
762,202.43463225416667,202.83847844166667,61.0,107.0
763,202.43463225416667,202.88463229166666,37.0,102.0
764,202.89617075416666,203.26924770833332,72.0,79.0
765,202.89617075416666,203.2730938625,68.0,100.0
766,202.89617075416666,203.31540155833332,65.0,117.0
767,202.89617075416666,203.32886309791667,41.0,102.0
768,203.35770925416668,204.09617085416667,61.0,107.0
769,203.35770925416668,204.15963239791665,70.0,107.0
770,203.35770925416668,204.16540162916667,66.0,117.0
771,204.51155550416667,204.8192478375,54.0,78.0
772,203.35770925416668,205.09040170625,42.0,107.0
773,204.05001700416668,205.19040171458334,49.0,62.0
774,204.28078625416666,205.92117100625,70.0,102.0
775,204.74232475416667,205.98847870416665,66.0,81.0
776,204.97309400416665,206.00963255208333,61.0,82.0
777,205.66540175416665,206.25963257291667,49.0,59.0
778,206.35770950416668,206.55194028958334,49.0,74.0
779,205.20386325416666,206.60578644791667,42.0,70.0
780,206.12694025416667,206.96347878541667,70.0,102.0
781,206.58847875416666,207.02886340625,66.0,90.0
782,206.81924800416667,207.08655571875,61.0,92.0
783,207.97309425416665,208.38078659583334,49.0,73.0
784,207.05001725416668,208.70001739166668,37.0,88.0
785,207.51155575416666,208.87309432916666,44.0,59.0
786,207.97309425416665,209.34040206041666,65.0,99.0
787,208.66540200416665,209.3654020625,56.0,90.0
788,208.43463275416667,209.47309437916667,61.0,89.0
789,209.35770975416668,209.93847903333332,49.0,85.0
790,209.58847900416666,209.97117134375,56.0,100.0
791,208.89617125416666,210.253863675,37.0,73.0
792,209.12694050416667,210.29232521666665,44.0,88.0
793,210.05001750416668,210.65578678541667,49.0,95.0
794,209.81924825416667,210.7384791,65.0,100.0
795,210.51155600416666,210.78270987291666,56.0,95.0
796,210.28078675416666,210.78270987291666,61.0,99.0
797,211.20386375416666,211.72309456666667,51.0,90.0
798,211.43463300416667,212.10194075208332,54.0,89.0
799,210.74232525416667,212.43655616458332,39.0,75.0
800,210.97309450416665,212.68078695416668,46.0,67.0
801,211.89617150416666,212.72117157291666,51.0,86.0
802,212.12694075416667,213.37694085833334,58.0,78.0
803,211.66540225416668,213.38271008958333,63.0,112.0
804,213.28078700416665,213.6000178,51.0,88.0
805,212.35771000416668,213.78847935416667,54.0,89.0
806,213.05001775416667,213.83078705,46.0,51.0
807,212.58847925416666,213.8423255125,39.0,68.0
808,213.74232550416667,213.93847936666666,51.0,97.0
809,213.97309475416665,214.2807870875,54.0,90.0
810,214.20386400416666,214.42309479166667,58.0,95.0
811,213.51155625416666,214.453864025,63.0,112.0
812,214.89617175416666,215.23078716666666,58.0,97.0
813,215.12694100416667,215.3654025625,61.0,97.0
814,214.66540250416668,215.45001795416667,53.0,66.0
815,214.43463325416667,216.1500180125,46.0,79.0
816,215.58847950416666,216.1500180125,53.0,71.0
817,215.35771025416668,216.36540264583334,65.0,100.0
818,216.05001800416667,216.39040264791666,58.0,92.0
819,215.81924875416667,216.49424881041668,61.0,85.0
820,216.74232575416667,217.30386426249999,54.0,97.0
821,216.97309500416665,217.37694119166667,58.0,92.0
822,216.28078725416665,217.63655659791667,42.0,76.0
823,216.51155650416666,217.6961719875,49.0,52.0
824,217.43463350416667,217.80771045833333,54.0,95.0
825,217.20386425416666,217.99809508958333,64.0,127.0
826,217.66540275416668,218.05578740208333,61.0,112.0
827,217.89617200416666,218.18271048958334,58.0,93.0
828,218.81924900416666,219.06155671666667,59.0,99.0
829,218.58847975416666,219.14232595416667,54.0,86.0
830,218.12694125416667,219.82309524166666,47.0,100.0
831,218.35771050416668,219.96540294583332,51.0,72.0
832,219.51155675416666,220.05771064583334,59.0,90.0
833,219.05001825416667,220.44617221666667,66.0,97.0
834,219.74232600416667,220.49809529791668,63.0,71.0
835,220.66540300416668,220.85578763541668,59.0,79.0
836,220.43463375416667,221.00578764791666,54.0,69.0
837,220.20386450416666,221.24232612916666,51.0,53.0
838,219.97309525416668,221.28078767083332,47.0,86.0
839,221.12694150416667,221.31347998125,54.0,70.0
840,221.35771075416667,221.81924925416666,59.0,95.0
841,220.89617225416666,221.81924925416666,63.0,96.0
842,222.28078775416665,222.55001854583332,58.0,81.0
843,222.51155700416666,222.69232625,61.0,93.0
844,222.05001850416667,222.82886472291668,53.0,90.0
845,221.81924925416666,223.09232628333334,46.0,92.0
846,222.97309550416668,223.1192493625,53.0,63.0
847,222.74232625416667,223.27886476041667,65.0,112.0
848,223.20386475416666,223.49617247083333,61.0,99.0
849,223.43463400416667,223.51540324166666,39.0,34.0
850,223.43463400416667,224.26348022708333,58.0,81.0
851,223.66540325416668,224.45194178124999,67.0,117.0
852,223.66540325416668,224.45578793541665,63.0,112.0
853,224.12694175416667,224.6654033375,51.0,92.0
854,224.35771100416667,224.92309566666665,58.0,63.0
855,223.66540325416668,224.94617259166665,39.0,78.0
856,223.89617250416666,225.04809567708332,46.0,88.0
857,224.81924950416666,225.08655721875,51.0,89.0
858,224.58848025416665,225.11348029791665,63.0,99.0
859,224.58848025416665,225.115403375,67.0,107.0
860,225.05001875416667,225.37501878125,58.0,85.0
861,225.97309575416668,226.26540347083332,56.0,95.0
862,226.20386500416666,226.47501887291668,59.0,102.0
863,225.74232650416667,226.51924964583333,51.0,85.0
864,225.51155725416666,226.75963428125,44.0,95.0
865,226.66540350416668,226.78655736041665,51.0,77.0
866,226.43463425416667,226.94040352708333,63.0,99.0
867,226.89617275416666,227.192326625,59.0,112.0
868,227.12694200416666,227.41348048958332,56.0,85.0
869,227.35771125416667,228.15386516666666,64.0,122.0
870,227.35771125416667,228.16732670625,59.0,102.0
871,227.81924975416666,228.37886518541666,52.0,96.0
872,228.05001900416667,228.39040364791666,56.0,86.0
873,228.28078825416665,228.81540368333333,59.0,99.0
874,228.28078825416665,228.88271138125,64.0,117.0
875,228.51155750416666,229.04040370208332,52.0,102.0
876,227.58848050416665,229.05578831875,47.0,62.0
877,227.35771125416667,229.12501909375,40.0,83.0
878,228.74232675416667,229.15386525,56.0,100.0
879,228.97309600416668,229.18078832916666,59.0,85.0
880,228.97309600416668,229.19809602291667,64.0,102.0
881,229.20386525416666,229.52309605,53.0,96.0
882,229.20386525416666,229.55963451458334,41.0,76.0
883,229.20386525416666,229.7423268375,68.0,122.0
884,229.20386525416666,229.7538653,65.0,112.0
885,229.89617300416666,230.38271150625,51.0,95.0
886,229.89617300416666,230.42501920208332,66.0,127.0
887,229.89617300416666,230.44232689583333,63.0,127.0
888,229.89617300416666,230.44617305,39.0,85.0
889,230.58848075416665,230.98078847916668,65.0,127.0
890,230.58848075416665,231.06540387083334,37.0,88.0
891,230.58848075416665,231.0807884875,49.0,96.0
892,230.58848075416665,231.15194233958334,61.0,112.0
893,231.28078850416668,231.75386546666667,47.0,127.0
894,231.28078850416668,231.853865475,59.0,127.0
895,231.28078850416668,231.85963470625,35.0,97.0
896,231.28078850416668,231.85963470625,63.0,102.0
897,231.97309625416668,232.34425013125,46.0,107.0
898,231.97309625416668,232.36732705625,58.0,112.0
899,231.97309625416668,232.3961732125,34.0,89.0
900,231.97309625416668,232.40194244375,61.0,112.0
901,232.43463475416667,232.96925018333334,44.0,107.0
902,232.43463475416667,232.99040403125,59.0,122.0
903,232.43463475416667,232.99425018541666,32.0,93.0
904,232.43463475416667,233.00194249375,56.0,112.0
905,233.35771175416667,233.85386564166666,54.0,102.0
906,233.58848100416665,234.07501950625,58.0,93.0
907,234.05001950416667,234.29040413958333,54.0,96.0
908,232.89617325416665,234.58463493333332,42.0,97.0
909,233.12694250416666,234.74617340833333,49.0,99.0
910,234.51155800416666,235.29617345416668,58.0,99.0
911,233.81925025416666,235.40963500208332,66.0,127.0
912,234.28078875416668,235.49040423958334,61.0,96.0
913,235.20386575416666,235.68271194791666,54.0,96.0
914,234.97309650416668,235.79617349583333,49.0,96.0
915,235.43463500416667,235.96348120208333,58.0,96.0
916,234.74232725416667,236.06925044166667,42.0,77.0
917,235.89617350416665,236.08078890416667,49.0,95.0
918,235.66540425416667,236.4577120125,66.0,117.0
919,236.12694275416666,236.58848125416665,61.0,112.0
920,236.35771200416667,236.60963510208333,58.0,107.0
921,237.05001975416667,237.530789025,49.0,97.0
922,237.28078900416668,237.82309674166666,56.0,100.0
923,237.74232750416667,238.08271214791665,49.0,100.0
924,236.58848125416665,238.27309677916668,37.0,89.0
925,236.81925050416666,238.4307891,44.0,88.0
926,238.20386600416666,238.96348145208333,56.0,107.0
927,237.97309675416668,239.05194299791665,61.0,100.0
928,237.51155825416666,239.07309684583333,65.0,112.0
929,238.89617375416665,239.40194302708332,49.0,102.0
930,239.12694300416666,239.71732766875,56.0,102.0
931,239.58848150416665,239.79425075208334,49.0,107.0
932,238.43463525416666,240.14232770416666,37.0,85.0
933,238.66540450416667,240.29232771666668,44.0,99.0
934,239.35771225416667,240.30194310208333,65.0,127.0
935,239.81925075416666,240.30771233333334,61.0,107.0
936,240.05002000416667,240.34425079791666,56.0,97.0
937,240.74232775416667,241.28463549166668,51.0,93.0
938,240.97309700416668,241.592327825,58.0,100.0
939,240.28078925416668,241.97694324166667,39.0,90.0
940,240.51155850416666,242.17117402708334,46.0,85.0
941,241.43463550416666,242.34425096458332,51.0,100.0
942,241.89617400416665,242.65771252916667,58.0,107.0
943,241.20386625416666,242.68655868541666,66.0,117.0
944,241.66540475416667,242.8500202375,63.0,107.0
945,242.58848175416668,243.15963564791667,51.0,99.0
946,242.12694325416666,243.33655873958332,39.0,82.0
947,242.35771250416667,243.38655874375,46.0,81.0
948,243.28078950416668,243.5654049125,51.0,96.0
949,242.81925100416666,243.59232799166668,58.0,95.0
950,243.74232800416667,243.98463571666667,58.0,102.0
951,243.05002025416667,243.98463571666667,66.0,117.0
952,243.51155875416666,243.99040494791666,63.0,99.0
953,244.43463575416666,244.93078964166668,58.0,100.0
954,244.66540500416667,245.21348197291667,61.0,97.0
955,245.12694350416666,245.38655891041665,58.0,112.0
956,243.97309725416667,245.65578970208333,46.0,82.0
957,244.20386650416665,245.81925125416666,53.0,92.0
958,245.58848200416668,245.81925125416666,61.0,102.0
959,245.35771275416667,245.81925125416666,65.0,102.0
960,244.89617425416665,245.81925125416666,70.0,117.0
961,246.28078975416668,246.84617441666666,54.0,100.0
962,246.51155900416666,247.03463597083334,58.0,102.0
963,245.81925125416666,247.15771290416666,42.0,92.0
964,246.05002050416667,247.17886675208334,49.0,97.0
965,246.97309750416667,247.30194368541666,54.0,102.0
966,246.74232825416667,247.57886678541666,64.0,127.0
967,247.43463600416666,247.67117448541666,58.0,122.0
968,247.20386675416665,247.69425141041665,61.0,127.0
969,248.35771300416667,248.62502071875,66.0,82.0
970,247.89617450416665,248.67886687708332,59.0,74.0
971,248.12694375416666,248.89040535625,63.0,96.0
972,247.66540525416667,249.38271308958332,47.0,73.0
973,248.81925150416666,249.51540540833332,59.0,100.0
974,249.28079000416668,249.71925157916667,63.0,107.0
975,248.58848225416668,249.83079005,71.0,127.0
976,249.05002075416667,249.91925159583334,66.0,97.0
977,250.20386700416665,250.42694394583333,66.0,95.0
978,249.97309775416667,250.73655935625,63.0,102.0
979,250.66540550416667,250.89232859999998,54.0,47.0
980,249.74232850416666,250.93848245,59.0,95.0
981,249.51155925416666,251.00002091666667,47.0,95.0
982,250.43463625416666,251.34425171458332,71.0,127.0
983,251.12694400416666,251.35771325416667,63.0,112.0
984,250.89617475416665,251.35771325416667,66.0,99.0
985,251.81925175416666,252.18271332291667,54.0,97.0
986,251.58848250416668,252.21155947916665,49.0,95.0
987,252.05002100416667,252.24425178958333,58.0,112.0
988,251.35771325416667,252.55579027708333,42.0,97.0
989,252.51155950416666,252.77694414166666,61.0,100.0
990,252.28079025416667,252.900021075,66.0,122.0
991,252.74232875416666,253.15002109583332,41.0,112.0
992,252.97309800416667,253.24040571875,58.0,88.0
993,253.89617500416668,254.06732886458335,58.0,100.0
994,254.12694425416666,254.16155964166666,58.0,26.0
995,253.66540575416667,254.24040580208333,51.0,95.0
996,253.20386725416665,254.51732890208334,39.0,72.0
997,253.43463650416666,254.51732890208334,46.0,95.0
998,254.35771350416667,254.92117508958333,51.0,99.0
999,254.58848275416668,254.96925201666667,63.0,102.0
1000,254.12694425416666,254.97309817083334,66.0,127.0
1001,254.81925200416666,255.04809817708332,58.0,107.0
1002,255.51155975416665,255.81732901041667,56.0,107.0
1003,255.74232900416666,256.038482875,59.0,117.0
1004,255.28079050416667,256.0730982625,51.0,99.0
1005,256.2038675041667,256.3961752125,51.0,100.0
1006,255.05002125416667,256.42117521458334,44.0,83.0
1007,255.97309825416667,256.73271370208334,63.0,122.0
1008,256.43463675416666,256.7404060104167,56.0,100.0
1009,256.66540600416664,256.92886756458336,59.0,127.0
1010,257.5884830041667,257.68079070416667,63.0,57.0
1011,257.5884830041667,257.73655993958334,59.0,92.0
1012,257.35771375416664,257.75579071041665,54.0,89.0
1013,257.12694450416666,257.89040610625,47.0,81.0
1014,256.8961752541667,258.69232925,35.0,117.0
1015,258.2807907541667,258.72117540625,54.0,93.0
1016,258.0500215041667,258.7711754104167,47.0,95.0
1017,257.81925225416666,258.7730984875,59.0,127.0
1018,257.81925225416666,258.80194464375,63.0,107.0
1019,259.20386775416665,259.74809856875,51.0,92.0
1020,259.89617550416665,260.3557909270833,51.0,77.0
1021,258.7423292541667,261.97694490833334,39.0,79.0
1022,258.97309850416667,262.0057910645833,46.0,83.0
1023,260.58848325416665,262.1115603041667,51.0,58.0
1024,259.66540625416667,262.1846372333333,66.0,107.0
1025,259.4346370041667,262.19425261875,58.0,90.0
1026,260.1269447541667,262.19809877291664,65.0,86.0
1027,260.58848325416665,262.21540646666665,63.0,89.0
1028,263.81925275416665,264.34232972083333,63.0,79.0
1029,263.35771425416664,264.51540665833335,59.0,88.0
1030,264.2807912541667,265.26348364375,66.0,81.0
1031,264.7423297541667,265.3519451895833,59.0,63.0
1032,262.8961757541667,265.4846375083333,54.0,66.0
1033,262.43463725416666,265.57502213125,47.0,89.0
1034,265.20386825416665,266.01348370625,63.0,82.0
1035,265.66540675416667,266.0307914,66.0,76.0
1036,266.58848375416665,267.17117611041664,53.0,72.0
1037,266.1269452541667,267.21156072916665,46.0,93.0
1038,267.5115607541667,268.0115607958333,61.0,79.0
1039,267.97309925416664,269.4134839895833,39.0,69.0
1040,268.8961762541667,269.80194556041664,51.0,55.0
1041,267.97309925416664,269.80579171458334,66.0,68.0
1042,267.05002225416666,269.8154071,58.0,82.0
1043,267.97309925416664,269.8154071,63.0,72.0
1044,270.28079175416667,271.5904072479167,51.0,74.0
1045,270.7423302541667,271.592330325,59.0,93.0
1046,269.81925325416665,271.6000226333333,44.0,72.0
1047,270.7423302541667,271.61925340416667,63.0,83.0
1048,271.20386875416665,271.6461764833333,56.0,82.0
1049,271.66540725416667,273.08656121875,47.0,55.0
1050,271.66540725416667,273.4423304791667,54.0,69.0
1051,271.66540725416667,273.4654074041667,59.0,70.0
1052,271.66540725416667,273.47886894375,66.0,57.0
1053,271.66540725416667,273.4923304833333,63.0,69.0
1054,274.8961767541667,275.3673306395833,63.0,100.0
1055,275.3577152541667,276.1230999333333,61.0,97.0
1056,276.28079225416667,276.95579231041665,58.0,95.0
1057,278.58848475416664,278.83079246666665,59.0,83.0
1058,278.58848475416664,278.8365616979167,63.0,79.0
1059,278.58848475416664,278.85194631458336,56.0,76.0
1060,278.58848475416664,278.85386939166665,44.0,57.0
1061,279.05002325416666,280.0269464125,58.0,75.0
1062,279.05002325416666,280.04040795208334,54.0,75.0
1063,279.05002325416666,280.0481002604167,61.0,73.0
1064,279.05002325416666,280.0500233375,42.0,59.0
1065,280.00771564166666,282.58079277916664,63.0,38.0
1066,280.02117718125,282.5865620104167,66.0,56.0
1067,279.9577156375,282.5884850875,60.0,63.0
1068,279.9134848645833,282.59233124166667,56.0,42.0
1069,279.992331025,282.62886970625,44.0,66.0
1070,282.36348506875,282.62886970625,44.0,82.0
1071,282.853869725,284.30002369166664,51.0,65.0
1072,283.80963903541664,284.32694677083333,63.0,93.0
1073,283.32310053333333,284.3327160020833,56.0,89.0
1074,284.3750236979167,285.161562225,65.0,82.0
1075,284.3692544666667,285.16733145625,61.0,79.0
1076,284.3731006208333,285.2634853104167,56.0,69.0
1077,285.3327160854167,286.9692546833333,49.0,67.0
1078,284.36733138958334,287.0269469958333,37.0,85.0
1079,285.33079300833333,287.0327162270833,56.0,71.0
1080,285.3346391625,287.0557931520833,65.0,90.0
1081,285.3365622395833,287.05963930625,61.0,93.0
1082,284.838485275,287.08079315416666,44.0,67.0
1083,287.238485475,287.93271630208335,70.0,58.0
1084,287.3538701,287.9500239958333,65.0,74.0
1085,287.30771625,287.95194707291665,66.0,81.0
1086,287.4038701041667,287.96925476666667,63.0,60.0
1087,288.3711778770833,288.42117788125,58.0,31.0
1088,288.3481009520833,288.7923317583333,54.0,68.0
1089,288.57117789375,288.8577163791667,58.0,69.0
1090,288.79425483541667,288.9211779229167,63.0,74.0
1091,288.14040862708333,292.92117825625,51.0,77.0
1092,287.4115624125,292.9404090270833,39.0,93.0
1093,287.90194706875,292.95771672083333,46.0,46.0
1094,289.823101075,292.9731013375,75.0,44.0
1095,289.45963950624997,293.0038705708333,70.0,54.0
1096,289.11540870833335,293.01156287916666,66.0,30.0
1097,290.27887034375,293.0557936520833,78.0,51.0
