,start,end,pitch,velocity
0,37.73459252083334,37.85082041666667,69.0,68.0
1,37.99775002083334,38.10739897916667,69.0,79.0
2,38.260907520833335,38.381521375000005,69.0,97.0
3,38.52406502083333,38.74774889583334,66.0,83.0
4,38.78722252083334,39.063537895833335,73.0,92.0
5,39.05038002083334,39.901255937500004,71.0,86.0
6,40.10301002083334,40.280641333333335,64.0,81.0
7,40.366167520833336,40.66221970833334,73.0,112.0
8,41.15564002083334,41.263096000000004,71.0,92.0
9,41.41879752083334,41.86397229166667,69.0,99.0
10,41.945112520833334,42.92098825,66.0,88.0
11,46.155632520833336,46.269667437500004,69.0,92.0
12,46.418790020833335,46.5328249375,69.0,92.0
13,46.68194752083334,46.813526270833336,69.0,97.0
14,46.94510502083334,47.18413975000001,64.0,90.0
15,47.20826252083334,47.49773577083334,73.0,102.0
16,47.471420020833335,48.35080466666667,71.0,89.0
17,48.524050020833336,48.62931302083334,71.0,92.0
18,48.787207520833334,49.0065054375,71.0,96.0
19,49.31352252083334,49.42975041666667,73.0,100.0
20,49.57668002083334,49.77185516666667,76.0,97.0
21,50.36615252083334,50.93413412500001,73.0,102.0
22,53.52404252083334,53.670972125000006,73.0,117.0
23,53.78720002083334,53.960445375000006,76.0,85.0
24,54.05035752083334,54.24114670833334,78.0,117.0
25,54.313515020833336,54.39026929166667,78.0,112.0
26,54.57667252083334,54.66658466666667,78.0,112.0
27,54.83983002083334,54.92535620833334,78.0,102.0
28,55.10298752083334,55.249917125,78.0,127.0
29,55.62930252083334,55.75210935416667,78.0,117.0
30,55.89246002083334,56.06789835416667,69.0,97.0
31,56.41877502083334,57.190703687500005,71.0,93.0
32,57.734562520833336,57.85298339583334,71.0,95.0
33,57.99772002083334,58.12271983333334,73.0,117.0
34,58.26087752083334,58.35517562500001,76.0,100.0
35,58.52403502083334,58.611754187500004,76.0,93.0
36,58.78719252083334,58.86833275000001,76.0,100.0
37,59.05035002083334,59.131490250000006,76.0,99.0
38,59.31350752083334,59.484559895833335,76.0,117.0
39,59.57666502083334,59.77184016666667,78.0,117.0
40,60.102980020833336,60.39026029166667,71.0,92.0
41,60.36613752083334,61.34420622916667,73.0,99.0
42,61.94508252083334,62.16218745833334,66.0,100.0
43,62.20824002083334,62.420959,69.0,69.0
44,62.47139752083334,62.74332693750001,73.0,97.0
45,62.73455502083334,63.02402827083334,71.0,82.0
46,62.99771252083334,63.304729604166674,69.0,79.0
47,63.26087002083334,64.07007933333334,71.0,88.0
48,65.36613002083334,65.55034027083335,66.0,90.0
49,65.62928752083334,65.87051522916667,73.0,102.0
50,66.15560252083334,66.38805831250001,71.0,92.0
51,66.41876002083333,66.72139114583334,69.0,73.0
52,66.68191752083334,68.25866954166668,71.0,90.0
53,71.41875252083334,71.53498041666667,69.0,83.0
54,71.68191002083334,71.78498004166667,69.0,86.0
55,71.94506752083333,72.10734797916668,69.0,90.0
56,72.20822502083334,72.37489143750001,66.0,95.0
57,72.47138252083334,72.65339979166667,73.0,117.0
58,72.73454002083334,73.6841,71.0,107.0
59,73.78717002083334,73.85734535416667,64.0,90.0
60,74.05032752083333,74.2827833125,73.0,127.0
61,74.31348502083334,74.61830912500001,71.0,92.0
62,74.83980002083334,75.01085239583334,69.0,83.0
63,75.10295752083334,75.5196235625,69.0,90.0
64,75.62927252083334,76.89462150000001,66.0,96.0
65,79.83979252083334,79.95382743750001,69.0,55.0
66,80.10295002083335,80.21917791666668,69.0,74.0
67,80.36610752083334,80.63365097916667,69.0,86.0
68,80.62926502083334,80.93189614583333,64.0,64.0
69,80.89242252083334,81.18628172916668,73.0,92.0
70,81.15558002083334,81.87268420833334,71.0,99.0
71,82.20821002083333,82.32882387500001,71.0,89.0
72,82.47136752083334,82.75426183333335,71.0,107.0
73,82.99768252083334,83.13145425,73.0,117.0
74,83.26084002083334,83.58540093750001,76.0,100.0
75,83.78715502083334,85.08101272916667,73.0,122.0
76,87.20820252083334,87.39460575000001,73.0,127.0
77,87.47136002083334,87.75644731250001,76.0,127.0
78,87.73451752083334,87.87925414583334,78.0,122.0
79,87.99767502083334,88.12925377083334,78.0,122.0
80,88.26083252083335,88.35951658333335,78.0,127.0
81,88.52399002083334,88.60732322916668,78.0,127.0
82,88.78714752083334,89.05249800000001,76.0,127.0
83,89.31346252083334,89.42530445833334,78.0,127.0
84,89.57662002083335,90.01960181250001,73.0,112.0
85,90.10293502083334,90.95819689583334,71.0,97.0
86,91.15556502083334,91.36389804166667,73.0,107.0
87,91.41872252083334,91.64898533333334,76.0,107.0
88,91.68188002083335,91.88363410416667,73.0,102.0
89,91.94503752083334,92.16652841666668,76.0,112.0
90,92.20819502083334,92.34196675000001,71.0,95.0
91,92.47135252083334,92.65117681250001,71.0,89.0
92,92.73451002083334,92.85731685416667,73.0,112.0
93,92.99766752083335,93.37705291666667,73.0,127.0
94,93.52398252083334,93.74985937500001,71.0,112.0
95,93.78714002083335,94.23231479166668,69.0,100.0
96,94.31345502083335,95.14898008333334,66.0,90.0
97,95.36608502083334,95.60292677083334,66.0,100.0
98,95.62924252083334,95.80248787500001,69.0,95.0
99,95.89240002083334,96.04371558333334,66.0,99.0
100,96.15555752083334,96.41871502083335,73.0,127.0
101,96.41871502083335,96.69283741666668,71.0,96.0
102,96.68187252083334,96.98888960416667,69.0,92.0
103,96.94503002083334,97.35731010416667,71.0,112.0
104,99.05029002083334,99.33318433333334,69.0,97.0
105,99.31344752083334,99.61169268750001,73.0,122.0
106,99.83976252083335,99.99985000000001,69.0,93.0
107,100.10292002083334,100.62265608333334,73.0,127.0
108,100.89239252083334,101.881426125,71.0,112.0
109,103.78712502083334,104.00422995833334,76.0,99.0
110,104.05028252083335,104.28273831250002,78.0,122.0
111,104.31344002083334,104.55028177083334,73.0,100.0
112,104.57659752083335,104.68843945833335,76.0,96.0
113,104.83975502083334,104.94940397916668,76.0,100.0
114,105.10291252083334,105.21256147916668,76.0,97.0
115,105.36607002083335,105.48449089583335,76.0,100.0
116,105.62922752083334,105.77835010416668,76.0,122.0
117,105.89238502083334,106.11606889583334,73.0,127.0
118,106.15554252083334,106.36387554166667,71.0,97.0
119,106.41870002083334,107.39457575000002,73.0,122.0
120,107.47133002083335,107.56782110416668,73.0,127.0
121,107.73448752083334,107.93843458333335,73.0,122.0
122,107.99764502083335,108.27834635416667,71.0,100.0
123,108.52396002083334,108.62922302083334,73.0,127.0
124,108.78711752083335,109.27176591666668,71.0,127.0
125,109.57659002083334,110.16211545833335,69.0,107.0
126,112.47132252083334,112.65991872916668,66.0,122.0
127,112.73448002083335,112.98886560416668,69.0,96.0
128,112.99763752083334,113.23009331250002,73.0,122.0
129,113.26079502083334,113.41211058333334,71.0,95.0
130,113.52395252083335,113.6511453125,71.0,102.0
131,113.78711002083334,113.90553089583334,71.0,107.0
132,114.05026752083334,114.29588118750002,71.0,127.0
133,114.31342502083335,114.53491591666668,71.0,127.0
134,114.57658252083334,114.84412597916668,69.0,99.0
135,114.83974002083335,115.08096772916667,71.0,112.0
136,115.62921252083335,115.75421233333334,71.0,102.0
137,115.89237002083334,115.99544004166668,69.0,99.0
138,116.15552752083335,116.36824650000001,78.0,127.0
139,116.68184252083334,116.79368445833335,76.0,122.0
140,116.94500002083335,117.23666625000001,69.0,107.0
141,117.47131502083334,118.44938372916668,71.0,127.0
142,120.62920502083334,120.84630995833335,76.0,99.0
143,120.89236252083334,121.12481831250001,78.0,122.0
144,121.15552002083335,121.39236177083335,73.0,100.0
145,121.41867752083334,121.53051945833334,76.0,96.0
146,121.68183502083335,121.79148397916667,76.0,100.0
147,121.94499252083334,122.05464147916668,76.0,97.0
148,122.20815002083334,122.32657089583334,76.0,100.0
149,122.47130752083335,122.62043010416667,76.0,122.0
150,122.73446502083334,122.95814889583335,73.0,127.0
151,122.99762252083335,123.20595554166668,71.0,97.0
152,123.26078002083334,124.23665575000001,73.0,122.0
153,124.31341002083335,124.40990110416668,73.0,127.0
154,124.57656752083335,124.83533906250001,81.0,127.0
155,124.83972502083334,125.15770700000002,80.0,122.0
156,125.36604002083334,125.50858366666668,81.0,122.0
157,125.62919752083334,125.95156545833335,81.0,127.0
158,126.15551252083334,126.28270531250001,80.0,117.0
159,126.41867002083335,127.10726547916668,78.0,122.0
160,129.31340252083334,129.51734958333336,71.0,107.0
161,129.57656002083334,129.77392814583334,73.0,112.0
162,129.83971752083335,130.20155908333334,74.0,107.0
163,130.36603252083336,130.70594429166667,74.0,122.0
164,130.89234752083334,131.16646991666667,74.0,127.0
165,131.15550502083335,131.86603027083333,78.0,127.0
166,131.94497752083333,132.39892420833334,76.0,117.0
167,132.73445002083335,132.91208133333333,73.0,122.0
168,132.99760752083336,133.49102783333333,71.0,95.0
169,133.52392252083334,133.70374681250001,73.0,107.0
170,133.78708002083334,134.36383354166668,71.0,100.0
171,134.57655252083333,136.223479875,69.0,99.0
172,176.68175252083336,176.7979804166667,69.0,83.0
173,176.94491002083336,177.04798004166668,69.0,86.0
174,177.20806752083334,177.3703479791667,69.0,90.0
175,177.47122502083334,177.6378914375,66.0,95.0
176,177.73438252083335,177.9163997916667,73.0,117.0
177,177.99754002083336,178.9471,71.0,107.0
178,179.05017002083335,179.1203453541667,64.0,90.0
179,179.31332752083335,179.54578331250002,73.0,127.0
180,179.57648502083336,179.88130912500003,71.0,92.0
181,180.10280002083334,180.27385239583336,69.0,83.0
182,180.36595752083335,180.78262356250002,69.0,90.0
183,180.89227252083336,182.1576215,66.0,96.0
184,185.10279252083336,185.21682743750003,69.0,55.0
185,185.36595002083334,185.48217791666667,69.0,74.0
186,185.62910752083334,185.89665097916668,69.0,86.0
187,185.89226502083335,186.19489614583335,64.0,64.0
188,186.15542252083335,186.44928172916667,73.0,92.0
189,186.41858002083336,187.13568420833334,71.0,99.0
190,187.47121002083335,187.59182387500002,71.0,89.0
191,187.73436752083336,188.01726183333335,71.0,107.0
192,188.26068252083334,188.39445425000002,73.0,117.0
193,188.52384002083335,188.8484009375,76.0,100.0
194,189.05015502083336,190.34401272916668,73.0,122.0
195,192.47120252083334,192.65760575000002,73.0,127.0
196,192.73436002083335,193.0194473125,76.0,127.0
197,192.99751752083336,193.14225414583336,78.0,122.0
198,193.26067502083336,193.39225377083335,78.0,122.0
199,193.52383252083334,193.62251658333335,78.0,127.0
200,193.78699002083334,193.87032322916667,78.0,127.0
201,194.05014752083335,194.31549800000002,76.0,127.0
202,194.57646252083336,194.68830445833336,78.0,127.0
203,194.83962002083334,195.28260181250002,73.0,112.0
204,195.36593502083335,196.22119689583334,71.0,97.0
205,196.41856502083334,196.6268980416667,73.0,107.0
206,196.68172252083335,196.91198533333335,76.0,107.0
207,196.94488002083335,197.14663410416668,73.0,102.0
208,197.20803752083336,197.42952841666667,76.0,112.0
209,197.47119502083336,197.60496675000002,71.0,95.0
210,197.73435252083334,197.91417681250002,71.0,89.0
211,197.99751002083335,198.12031685416667,73.0,112.0
212,198.26066752083335,198.6400529166667,73.0,127.0
213,198.78698252083336,199.012859375,71.0,112.0
214,199.05014002083334,199.4953147916667,69.0,100.0
215,199.57645502083335,200.41198008333336,66.0,90.0
216,200.62908502083334,200.86592677083334,66.0,100.0
217,200.89224252083335,201.06548787500003,69.0,95.0
218,201.15540002083335,201.30671558333336,66.0,99.0
219,201.41855752083336,201.68171502083334,73.0,127.0
220,201.68171502083334,201.9558374166667,71.0,96.0
221,201.94487252083334,202.25188960416668,69.0,92.0
222,202.20803002083335,202.6203101041667,71.0,112.0
223,204.31329002083336,204.59618433333335,69.0,97.0
224,204.57644752083334,204.87469268750002,73.0,122.0
225,205.10276252083335,205.26285000000001,69.0,93.0
226,205.36592002083336,205.88565608333334,73.0,127.0
227,206.15539252083335,207.14442612500002,71.0,112.0
228,209.05012502083335,209.26722995833336,76.0,99.0
229,209.31328252083335,209.54573831250002,78.0,122.0
230,209.57644002083336,209.81328177083336,73.0,100.0
231,209.83959752083337,209.95143945833334,76.0,96.0
232,210.10275502083334,210.21240397916668,76.0,100.0
233,210.36591252083335,210.47556147916669,76.0,97.0
234,210.62907002083335,210.74749089583335,76.0,100.0
235,210.89222752083336,211.0413501041667,76.0,122.0
236,211.15538502083336,211.37906889583334,73.0,127.0
237,211.41854252083334,211.6268755416667,71.0,97.0
238,211.68170002083335,212.65757575,73.0,122.0
239,212.73433002083334,212.8308211041667,73.0,127.0
240,212.99748752083335,213.20143458333337,73.0,122.0
241,213.26064502083335,213.54134635416668,71.0,100.0
242,213.78696002083336,213.89222302083334,73.0,127.0
243,214.05011752083334,214.5347659166667,71.0,127.0
244,214.83959002083336,215.42511545833335,69.0,107.0
245,217.73432252083336,217.9229187291667,66.0,122.0
246,217.99748002083336,218.25186560416668,69.0,96.0
247,218.26063752083334,218.4930933125,73.0,122.0
248,218.52379502083335,218.67511058333335,71.0,95.0
249,218.78695252083335,218.9141453125,71.0,102.0
250,219.05011002083336,219.16853089583336,71.0,107.0
251,219.31326752083336,219.55888118750002,71.0,127.0
252,219.57642502083334,219.79791591666668,71.0,127.0
253,219.83958252083335,220.10712597916668,69.0,99.0
254,220.10274002083335,220.34396772916668,71.0,112.0
255,220.89221252083334,221.01721233333336,71.0,102.0
256,221.15537002083335,221.2584400416667,69.0,99.0
257,221.41852752083335,221.63124650000003,78.0,127.0
258,221.94484252083336,222.05668445833336,76.0,122.0
259,222.20800002083337,222.49966625000002,69.0,107.0
260,222.73431502083335,223.71238372916667,71.0,127.0
261,225.89220502083336,226.10930995833334,76.0,99.0
262,226.15536252083336,226.38781831250003,78.0,122.0
263,226.41852002083334,226.65536177083337,73.0,100.0
264,226.68167752083335,226.79351945833335,76.0,96.0
265,226.94483502083335,227.0544839791667,76.0,100.0
266,227.20799252083336,227.3176414791667,76.0,97.0
267,227.47115002083336,227.58957089583336,76.0,100.0
268,227.73430752083334,227.88343010416668,76.0,122.0
269,227.99746502083335,228.22114889583335,73.0,127.0
270,228.26062252083335,228.46895554166667,71.0,97.0
271,228.52378002083336,229.49965575000002,73.0,122.0
272,229.57641002083335,229.6729011041667,73.0,127.0
273,229.83956752083336,230.09833906250003,81.0,127.0
274,230.10272502083336,230.42070700000002,80.0,122.0
275,230.62904002083334,230.7715836666667,81.0,122.0
276,230.89219752083335,231.21456545833337,81.0,127.0
277,231.41851252083336,231.54570531250002,80.0,117.0
278,231.68167002083337,232.37026547916668,78.0,122.0
279,234.57640252083334,234.78034958333336,71.0,107.0
280,234.83956002083335,235.03692814583334,73.0,112.0
281,235.10271752083335,235.46455908333334,74.0,107.0
282,235.62903252083336,235.96894429166667,74.0,122.0
283,236.15534752083335,236.42946991666668,74.0,127.0
284,236.41850502083335,237.12903027083337,78.0,127.0
285,237.20797752083337,237.66192420833335,76.0,117.0
286,237.99745002083336,238.17508133333337,73.0,122.0
287,238.26060752083336,238.75402783333337,71.0,95.0
288,238.78692252083334,238.96674681250002,73.0,107.0
289,239.05008002083335,239.62683354166668,71.0,100.0
290,239.83955252083337,241.48647987500001,69.0,99.0
291,242.73428502083337,242.95138995833335,76.0,99.0
292,242.99744252083335,243.2298983125,78.0,122.0
293,243.26060002083335,243.49744177083335,73.0,100.0
294,243.52375752083336,243.63559945833336,76.0,96.0
295,243.78691502083336,243.8965639791667,76.0,100.0
296,244.05007252083337,244.15972147916668,76.0,97.0
297,244.31323002083334,244.43165089583334,76.0,100.0
298,244.57638752083335,244.7255101041667,76.0,122.0
299,244.83954502083336,245.06322889583336,73.0,127.0
300,245.10270252083336,245.31103554166668,71.0,97.0
301,245.36586002083337,246.34173575000003,73.0,122.0
302,246.41849002083336,246.51498110416668,73.0,127.0
303,246.68164752083337,246.88559458333336,73.0,122.0
304,246.94480502083334,247.2255063541667,71.0,100.0
305,247.47112002083335,247.57638302083336,73.0,127.0
306,247.73427752083336,248.21892591666668,71.0,127.0
307,248.52375002083335,249.10927545833334,69.0,107.0
308,251.41848252083335,251.6070787291667,66.0,122.0
309,251.68164002083336,251.9360256041667,69.0,96.0
310,251.94479752083336,252.17725331250003,73.0,122.0
311,252.20795502083337,252.35927058333337,71.0,95.0
312,252.47111252083334,252.59830531250003,71.0,102.0
313,252.73427002083335,252.85269089583335,71.0,107.0
314,252.99742752083336,253.2430411875,71.0,127.0
315,253.26058502083336,253.4820759166667,71.0,127.0
316,253.52374252083337,253.7912859791667,69.0,99.0
317,253.78690002083334,254.0281277291667,71.0,112.0
318,254.57637252083336,254.70137233333335,71.0,102.0
319,254.83953002083337,254.94260004166668,69.0,99.0
320,255.10268752083334,255.31540650000002,78.0,127.0
321,255.62900252083335,255.74084445833336,76.0,122.0
322,255.89216002083336,256.18382625000004,69.0,107.0
323,256.41847502083334,257.3965437291667,71.0,127.0
324,259.57636502083335,259.79346995833333,76.0,99.0
325,259.8395225208334,260.07197831250005,78.0,122.0
326,260.10268002083336,260.33952177083336,73.0,100.0
327,260.36583752083334,260.47767945833334,76.0,96.0
328,260.6289950208334,260.7386439791667,76.0,100.0
329,260.89215252083335,261.0018014791667,76.0,97.0
330,261.1553100208334,261.27373089583335,76.0,100.0
331,261.41846752083336,261.5675901041667,76.0,122.0
332,261.68162502083334,261.90530889583334,73.0,127.0
333,261.94478252083337,262.1531155416667,71.0,97.0
334,262.20794002083335,263.18381575,73.0,122.0
335,263.26057002083337,263.3570611041667,73.0,127.0
336,263.52372752083335,263.78249906250005,81.0,127.0
337,263.7868850208334,264.104867,80.0,122.0
338,264.31320002083334,264.4557436666667,81.0,122.0
339,264.57635752083337,264.89872545833333,81.0,127.0
340,265.1026725208334,265.2298653125,80.0,117.0
341,265.36583002083336,266.0544254791667,78.0,122.0
342,268.26056252083333,268.4645095833334,71.0,107.0
343,268.52372002083337,268.72108814583333,73.0,112.0
344,268.78687752083334,269.14871908333333,74.0,107.0
345,269.31319252083335,269.6531042916667,74.0,122.0
346,269.83950752083337,270.1136299166667,74.0,127.0
347,270.10266502083334,270.81319027083333,78.0,127.0
348,270.89213752083333,271.34608420833337,76.0,117.0
349,271.6816100208334,271.85924133333333,73.0,122.0
350,271.94476752083335,272.43818783333336,71.0,95.0
351,272.47108252083336,272.6509068125,73.0,107.0
352,272.73424002083334,273.3109935416667,71.0,100.0
353,273.5237125208334,275.170639875,69.0,99.0
354,276.4425677916667,276.6794095416667,76.0,81.0
355,276.70353231250004,276.99739152083333,78.0,99.0
356,277.012742375,277.32195243750004,73.0,90.0
357,277.3087945625,277.59168887500005,76.0,69.0
358,277.6618642083334,277.85923233333335,76.0,77.0
359,277.95133745833334,278.1574775,76.0,100.0
360,278.26712645833334,278.43379287500005,76.0,100.0
361,278.54344183333336,278.802213375,76.0,107.0
362,278.9557219166667,279.23423027083334,73.0,107.0
363,279.2430021875,279.58949289583336,71.0,82.0
364,279.5346684166667,280.3044041041667,73.0,92.0
365,280.31975495833336,280.53905287500004,73.0,100.0
366,280.61800012500004,280.9096663541667,73.0,112.0
367,280.97326275,281.262736,71.0,92.0
368,281.3899287916667,281.55659520833336,73.0,107.0
369,281.6772090625,282.3745764375,71.0,95.0
370,282.1794012916667,282.47106752083334,69.0,85.0
371,282.4359798541667,284.57632752083333,66.0,96.0
372,285.2539580833334,285.617992625,66.0,99.0
373,285.591676875,285.85044841666667,69.0,82.0
374,285.8614133125,286.47106152083336,73.0,102.0
375,286.39430725,286.5719385625,71.0,75.0
376,286.6640436875,287.11579739583334,71.0,92.0
377,287.22763933333334,287.76272625,71.0,93.0
378,287.8723752083334,288.2188659166667,69.0,75.0
379,288.19474314583334,289.5719340625,71.0,92.0
380,292.24298268750005,292.6333329791667,64.0,95.0
381,292.8657887708334,293.33289333333335,73.0,102.0
382,293.578507,294.2320147916667,69.0,102.0
383,294.27148841666667,294.4951722916667,71.0,107.0
384,294.7561368125,295.4293814166667,71.0,100.0
385,295.42718843750004,298.986393625,69.0,85.0
