,start,end,pitch,velocity
0,23.098994116666667,23.230182145833332,66.0,88.0
1,23.396023616666668,23.521023531250002,66.0,85.0
2,23.69305311666667,23.939340077083333,66.0,86.0
3,23.990082616666665,24.150973595833335,73.0,81.0
4,24.287112116666666,24.483894160416668,73.0,86.0
5,24.584141616666667,25.17820061666667,68.0,83.0
6,25.17820061666667,25.31805200625,68.0,70.0
7,25.475230116666665,25.642309210416666,68.0,80.0
8,25.772259616666666,25.957903054166668,68.0,83.0
9,26.069289116666667,26.288348372916666,68.0,81.0
10,26.366318616666668,26.579189758333335,66.0,86.0
11,26.66334811666667,26.903446962500002,65.0,90.0
12,26.960377616666666,27.34651596666667,66.0,82.0
13,27.554436616666667,27.678198908333332,66.0,81.0
14,27.851466116666668,27.99131750625,66.0,81.0
15,28.14849561666667,28.28834700625,66.0,79.0
16,28.445525116666666,28.580426014583335,66.0,80.0
17,28.742554616666666,28.883643629166666,66.0,79.0
18,29.039584116666667,29.169534522916667,66.0,80.0
19,29.336613616666668,29.481415497916668,66.0,80.0
20,29.63364311666667,29.75864303125,66.0,83.0
21,29.930672616666666,30.101464579166667,66.0,82.0
22,30.227702116666666,30.73884038125,73.0,86.0
23,30.821761116666668,31.11879061666667,66.0,86.0
24,31.11879061666667,31.324236020833332,66.0,85.0
25,31.415820116666666,32.00987911666667,73.0,76.0
26,32.00987911666667,32.07794837708333,73.0,80.0
27,32.158393866666664,32.225225504166666,73.0,74.0
28,32.30690861666667,32.38487886041667,73.0,78.0
29,32.455423366666665,32.53339361041667,73.0,79.0
30,32.60393811666667,32.67695786875,73.0,79.0
31,32.752452866666665,32.82547261875,73.0,77.0
32,32.90096761666667,32.98141310625,73.0,74.0
33,33.049482366666666,33.13735359375,73.0,79.0
34,33.19799711666667,33.292056458333334,73.0,81.0
35,33.49502661666667,33.70913538125,66.0,80.0
36,33.792056116666664,33.98883816041667,68.0,71.0
37,34.089085616666665,34.26111520208333,66.0,83.0
38,34.386115116666666,34.5519565875,66.0,83.0
39,34.68314461666667,34.87002567708333,66.0,80.0
40,34.98017411666667,35.2351244375,66.0,77.0
41,35.27720361666667,35.433144104166665,61.0,83.0
42,35.57423311666667,35.7697775375,61.0,83.0
43,35.87126261666667,36.06804466041667,70.0,80.0
44,36.16829211666667,36.67324226666667,70.0,83.0
45,36.762351116666665,36.87745004791667,71.0,62.0
46,37.059380616666665,37.14725184375,71.0,80.0
47,37.20789536666667,37.285865610416664,71.0,74.0
48,37.356410116666666,37.46779617916667,71.0,80.0
49,37.65343961666667,37.77967715416667,71.0,86.0
50,37.95046911666667,38.08537001458333,71.0,81.0
51,38.24749861666667,38.420765825000004,71.0,81.0
52,38.54452811666667,38.747498275,73.0,81.0
53,38.84155761666667,39.811853983333336,68.0,83.0
54,42.10888211666667,42.240070145833336,66.0,88.0
55,42.405911616666664,42.53091153125,66.0,85.0
56,42.702941116666665,42.94922807708333,66.0,86.0
57,42.999970616666666,43.16086159583333,73.0,81.0
58,43.297000116666666,43.493782160416664,73.0,86.0
59,43.59402961666667,44.18808861666667,68.0,83.0
60,44.18808861666667,44.32794000625,68.0,70.0
61,44.48511811666667,44.65219721041667,68.0,80.0
62,44.78214761666667,44.96779105416667,68.0,83.0
63,45.07917711666667,45.29823637291667,68.0,81.0
64,45.376206616666664,45.58907775833333,70.0,86.0
65,45.673236116666665,45.9133349625,71.0,90.0
66,45.970265616666666,46.35640396666667,70.0,82.0
67,46.56432461666667,46.68313641666667,70.0,80.0
68,46.86135411666667,46.98635403125,70.0,80.0
69,47.15838361666667,47.29823500625,70.0,79.0
70,47.45541311666667,47.67323475,70.0,82.0
71,47.75244261666667,47.8885811375,68.0,81.0
72,48.04947211666667,48.2004621125,66.0,82.0
73,48.346501616666664,48.50491735,66.0,80.0
74,48.643531116666665,48.884867585416664,65.0,86.0
75,48.940560616666666,49.12249118541667,77.0,80.0
76,49.23759011666667,49.487589945833335,77.0,83.0
77,49.53461961666667,49.68437198958333,75.0,83.0
78,49.83164911666667,50.0865994375,75.0,86.0
79,50.12867861666667,50.42570811666667,73.0,81.0
80,50.42570811666667,50.565559506250004,70.0,80.0
81,50.574222866666666,50.68313368333333,68.0,74.0
82,50.72273761666667,50.879915727083336,66.0,79.0
83,51.01976711666667,51.107638343750004,66.0,83.0
84,51.16828186666667,51.25120260208333,66.0,78.0
85,51.316796616666664,51.41580645,66.0,78.0
86,51.613826116666665,51.72273693333334,66.0,81.0
87,51.910855616666666,52.00986545,66.0,84.0
88,52.05937036666667,52.38362757083333,66.0,86.0
89,52.50491461666667,52.62001354791667,68.0,80.0
90,52.80194411666667,52.9306569,70.0,81.0
91,53.09897361666667,53.219023039583334,66.0,80.0
92,53.39600311666667,53.48387434375,66.0,80.0
93,53.544517866666666,53.62248811041667,66.0,80.0
94,53.69303261666667,53.808131547916666,66.0,74.0
95,53.99006211666667,54.103923425,66.0,79.0
96,54.287091616666665,54.37620046666667,66.0,80.0
97,54.43560636666667,54.50986374166667,66.0,77.0
98,54.584121116666665,54.68560619583334,66.0,80.0
99,54.881150616666666,55.04204159583333,68.0,79.0
100,55.17818011666667,55.397239372916665,70.0,80.0
101,55.47520961666667,55.696744118750004,66.0,81.0
102,55.77223911666667,55.954169685416666,71.0,80.0
103,56.06926861666667,56.24624869375,71.0,81.0
104,56.36629811666667,56.54080294791667,71.0,80.0
105,56.66332761666667,56.85020867708334,70.0,80.0
106,56.96035711666667,57.13733719375,71.0,80.0
107,57.257386616666665,57.43931718541667,73.0,77.0
108,57.554416116666665,57.74748529166667,70.0,81.0
109,57.851445616666666,58.905900341666666,68.0,77.0
110,59.03956361666667,59.211593202083336,66.0,88.0
111,59.33659311666667,59.56679097916667,66.0,81.0
112,59.63362261666667,59.81060269375,68.0,83.0
113,59.93065211666667,60.12867178333333,68.0,83.0
114,60.227681616666665,60.43683988958333,66.0,83.0
115,60.524711116666666,61.232631425,70.0,82.0
116,61.41579961666667,61.613819283333335,66.0,81.0
117,61.71282911666667,61.93188837291667,66.0,82.0
118,62.00985861666667,62.183125825,68.0,81.0
119,62.30688811666667,62.49871966875,68.0,83.0
120,62.60391761666667,62.85763031458333,66.0,81.0
121,62.900947116666664,63.501194231250004,73.0,81.0
122,63.792035616666666,64.01109487291667,73.0,85.0
123,64.08906511666667,64.3440154375,73.0,85.0
124,64.38609461666667,64.56431231666667,75.0,84.0
125,64.68312411666666,64.88980714375,75.0,85.0
126,64.98015361666667,65.242529675,73.0,85.0
127,65.27718311666666,65.99624203125,78.0,83.0
128,66.16827161666667,66.38114275833334,78.0,82.0
129,66.46530111666667,66.69426135625,78.0,82.0
130,66.76233061666667,66.95416216875,77.0,81.0
131,67.05936011666667,67.24129068541667,75.0,86.0
132,67.35638961666666,67.56802313541667,77.0,80.0
133,67.65341911666667,68.30440877083333,73.0,81.0
134,68.54450761666666,68.717774825,73.0,83.0
135,68.84153711666667,69.01975481666666,73.0,88.0
136,69.13856661666667,69.30564571041667,70.0,81.0
137,69.43559611666667,69.63485340625,70.0,81.0
138,69.73262561666667,69.95168487291667,68.0,80.0
139,70.02965511666667,70.73138731041666,66.0,83.0
140,70.92074361666667,71.08906033333334,66.0,83.0
141,71.21777311666666,71.44302048750001,66.0,78.0
142,71.51480261666667,71.68311933333334,68.0,79.0
143,71.81183211666666,71.99500030833333,68.0,80.0
144,72.10886161666667,72.31430702083334,66.0,81.0
145,72.40589111666667,72.638564225,70.0,80.0
146,72.70292061666667,72.89970266041666,73.0,80.0
147,72.99995011666667,73.2474747,73.0,81.0
148,73.29697961666666,73.46653395625,70.0,79.0
149,73.59400911666667,74.02222664583333,66.0,80.0
150,74.18806811666667,74.35638483333334,66.0,80.0
151,74.48509761666666,74.67197867708333,66.0,81.0
152,74.78212711666667,74.93435473541666,68.0,79.0
153,75.07915661666667,75.15712686041667,68.0,72.0
154,75.22767136666667,75.54697807916666,68.0,79.0
155,75.67321561666667,75.876185775,66.0,79.0
156,75.97024511666667,76.22272019166667,66.0,80.0
157,76.26727461666667,76.4182646125,63.0,78.0
158,76.41578936666667,76.7747000125,70.0,85.0
159,76.86133361666667,77.10019483958334,70.0,82.0
160,77.15836311666666,77.74252113333334,68.0,80.0
161,78.04945161666667,78.22148120208334,66.0,88.0
162,78.34648111666667,78.57667897916667,66.0,81.0
163,78.64351061666667,78.82049069375,68.0,83.0
164,78.94054011666667,79.13855978333333,68.0,83.0
165,79.23756961666666,79.44672788958333,66.0,83.0
166,79.53459911666667,80.242519425,70.0,82.0
167,80.42568761666666,80.62370728333333,66.0,81.0
168,80.72271711666667,80.94177637291666,66.0,82.0
169,81.01974661666667,81.19301382500001,68.0,81.0
170,81.31677611666667,81.50860766875,68.0,83.0
171,81.61380561666667,81.86751831458334,66.0,81.0
172,81.91083511666668,82.51108223125,73.0,81.0
173,82.80192361666667,83.02098287291666,73.0,85.0
174,83.09895311666666,83.35390343750001,73.0,85.0
175,83.39598261666667,83.57420031666666,75.0,84.0
176,83.69301211666667,83.89969514375,75.0,85.0
177,83.99004161666667,84.252417675,73.0,85.0
178,84.28707111666667,85.00613003125,78.0,83.0
179,85.17815961666666,85.39103075833333,78.0,82.0
180,85.47518911666667,85.70414935625,78.0,82.0
181,85.77221861666666,85.96405016875,77.0,81.0
182,86.06924811666667,86.25117868541666,75.0,86.0
183,86.36627761666666,86.57791113541667,77.0,80.0
184,86.66330711666667,87.31429677083334,73.0,81.0
185,87.55439561666667,87.727662825,73.0,83.0
186,87.85142511666668,88.02964281666667,73.0,88.0
187,88.14845461666667,88.31553371041667,70.0,81.0
188,88.44548411666666,88.64474140625,70.0,81.0
189,88.74251361666667,88.96157287291666,68.0,80.0
190,89.03954311666666,89.74127531041667,66.0,83.0
191,89.93063161666667,90.09894833333334,66.0,83.0
192,90.22766111666667,90.4529084875,66.0,78.0
193,90.52469061666667,90.69300733333334,68.0,79.0
194,90.82172011666667,91.00488830833334,68.0,80.0
195,91.11874961666666,91.32419502083333,66.0,81.0
196,91.41577911666667,91.648452225,70.0,80.0
197,91.71280861666666,91.90959066041667,73.0,80.0
198,92.00983811666667,92.2573627,73.0,81.0
199,92.30686761666666,92.47642195625001,70.0,79.0
200,92.60389711666667,93.03211464583333,66.0,80.0
201,93.19795611666667,93.36627283333334,66.0,80.0
202,93.49498561666667,93.68186667708333,66.0,81.0
203,93.79201511666666,93.94424273541667,68.0,79.0
204,94.08904461666667,94.16701486041667,68.0,72.0
205,94.23755936666667,94.55686607916667,68.0,79.0
206,94.68310361666667,94.886073775,66.0,79.0
207,94.98013311666666,95.23260819166667,66.0,80.0
208,95.27716261666667,95.4281526125,63.0,78.0
209,95.42567736666666,95.7845880125,70.0,85.0
210,95.87122161666667,96.11008283958334,70.0,82.0
211,96.16825111666667,96.75240913333333,68.0,80.0
212,97.05933961666666,97.26602264375,61.0,83.0
213,97.35636911666667,97.52716107916667,71.0,81.0
214,97.65339861666666,97.74622033541667,71.0,80.0
215,97.80191336666667,98.06923991666667,71.0,78.0
216,98.24745761666667,98.44547728333333,70.0,83.0
217,98.54448711666667,101.08285171875,66.0,81.0
218,118.14843411666666,118.27962214583333,66.0,88.0
219,118.44546361666667,118.57046353125,66.0,85.0
220,118.74249311666667,118.98878007708333,66.0,86.0
221,119.03952261666667,119.20041359583334,73.0,81.0
222,119.33655211666667,119.53333416041667,73.0,86.0
223,119.63358161666667,120.22764061666666,68.0,83.0
224,120.22764061666666,120.36749200625,68.0,70.0
225,120.52467011666667,120.69174921041667,68.0,80.0
226,120.82169961666666,121.00734305416667,68.0,83.0
227,121.11872911666667,121.33778837291666,68.0,81.0
228,121.41575861666666,121.62862975833333,66.0,86.0
229,121.71278811666667,121.9528869625,65.0,90.0
230,122.00981761666667,122.39595596666666,66.0,82.0
231,122.60387661666667,122.72763890833333,66.0,81.0
232,122.90090611666668,123.04075750625,66.0,81.0
233,123.19793561666667,123.33778700625,66.0,79.0
234,123.49496511666666,123.62986601458334,66.0,80.0
235,123.79199461666667,123.93308362916667,66.0,79.0
236,124.08902411666666,124.21897452291667,66.0,80.0
237,124.38605361666667,124.53085549791668,66.0,80.0
238,124.68308311666667,124.80808303125,66.0,83.0
239,124.98011261666667,125.15090457916666,66.0,82.0
240,125.27714211666667,125.78828038125,73.0,86.0
241,125.87120111666667,126.16823061666666,66.0,86.0
242,126.16823061666666,126.37367602083333,66.0,85.0
243,126.46526011666667,127.05931911666667,73.0,76.0
244,127.05931911666667,127.12738837708334,73.0,80.0
245,127.20783386666668,127.27466550416666,73.0,74.0
246,127.35634861666666,127.43431886041667,73.0,78.0
247,127.50486336666667,127.58283361041667,73.0,79.0
248,127.65337811666667,127.72639786875,73.0,79.0
249,127.80189286666666,127.87491261875,73.0,77.0
250,127.95040761666667,128.03085310625,73.0,74.0
251,128.09892236666667,128.18679359375,73.0,79.0
252,128.24743711666667,128.34149645833332,73.0,81.0
253,128.54446661666668,128.75857538125,66.0,80.0
254,128.84149611666666,129.03827816041667,68.0,71.0
255,129.13852561666667,129.31055520208332,66.0,83.0
256,129.43555511666668,129.6013965875,66.0,83.0
257,129.73258461666666,129.91946567708334,66.0,80.0
258,130.02961411666666,130.2845644375,66.0,77.0
259,130.32664361666667,130.48258410416668,61.0,83.0
260,130.62367311666668,130.8192175375,61.0,83.0
261,130.92070261666666,131.11748466041666,70.0,80.0
262,131.21773211666667,131.72268226666668,70.0,83.0
263,131.81179111666668,131.92689004791666,71.0,62.0
264,132.10882061666666,132.19669184375,71.0,80.0
265,132.25733536666667,132.33530561041667,71.0,74.0
266,132.40585011666667,132.51723617916667,71.0,80.0
267,132.70287961666668,132.82911715416668,71.0,86.0
268,132.99990911666666,133.13481001458334,71.0,81.0
269,133.29693861666667,133.470205825,71.0,81.0
270,133.59396811666667,133.796938275,73.0,81.0
271,133.89099761666668,134.86129398333333,68.0,83.0
272,137.15832211666668,137.28951014583333,66.0,88.0
273,137.45535161666666,137.58035153125,66.0,85.0
274,137.75238111666667,137.99866807708332,66.0,86.0
275,138.04941061666668,138.21030159583333,73.0,81.0
276,138.34644011666666,138.54322216041666,73.0,86.0
277,138.64346961666666,139.23752861666668,68.0,83.0
278,139.23752861666668,139.37738000625,68.0,70.0
279,139.53455811666666,139.70163721041666,68.0,80.0
280,139.83158761666667,140.01723105416667,68.0,83.0
281,140.12861711666667,140.34767637291668,68.0,81.0
282,140.42564661666668,140.63851775833334,70.0,86.0
283,140.72267611666666,140.9627749625,71.0,90.0
284,141.01970561666667,141.40584396666668,70.0,82.0
285,141.61376461666666,141.73257641666666,70.0,80.0
286,141.91079411666666,142.03579403125,70.0,80.0
287,142.20782361666667,142.34767500625,70.0,79.0
288,142.50485311666668,142.72267475,70.0,82.0
289,142.80188261666666,142.93802113750002,68.0,81.0
290,143.09891211666667,143.2499021125,66.0,82.0
291,143.39594161666668,143.55435735,66.0,80.0
292,143.69297111666668,143.93430758541666,65.0,86.0
293,143.99000061666666,144.17193118541667,77.0,80.0
294,144.28703011666667,144.53702994583332,77.0,83.0
295,144.58405961666668,144.73381198958333,75.0,83.0
296,144.88108911666666,145.1360394375,75.0,86.0
297,145.17811861666667,145.47514811666667,73.0,81.0
298,145.47514811666667,145.61499950625,70.0,80.0
299,145.62366286666668,145.73257368333333,68.0,74.0
300,145.77217761666668,145.92935572708333,66.0,79.0
301,146.06920711666666,146.15707834375002,66.0,83.0
302,146.21772186666666,146.30064260208334,66.0,78.0
303,146.36623661666667,146.46524645,66.0,78.0
304,146.66326611666668,146.77217693333333,66.0,81.0
305,146.96029561666666,147.05930545,66.0,84.0
306,147.10881036666666,147.43306757083334,66.0,86.0
307,147.55435461666667,147.66945354791667,68.0,80.0
308,147.85138411666668,147.9800969,70.0,81.0
309,148.14841361666666,148.26846303958334,66.0,80.0
310,148.44544311666667,148.53331434375,66.0,80.0
311,148.59395786666667,148.67192811041667,66.0,80.0
312,148.74247261666667,148.85757154791668,66.0,74.0
313,149.03950211666668,149.153363425,66.0,79.0
314,149.33653161666666,149.42564046666666,66.0,80.0
315,149.48504636666667,149.55930374166667,66.0,77.0
316,149.63356111666667,149.73504619583335,66.0,80.0
317,149.93059061666668,150.09148159583333,68.0,79.0
318,150.22762011666666,150.44667937291666,70.0,80.0
319,150.52464961666666,150.74618411875,66.0,81.0
320,150.82167911666667,151.00360968541668,71.0,80.0
321,151.11870861666668,151.29568869375,71.0,81.0
322,151.41573811666666,151.59024294791666,71.0,80.0
323,151.71276761666667,151.89964867708335,70.0,80.0
324,152.00979711666668,152.18677719375,71.0,80.0
325,152.30682661666668,152.48875718541666,73.0,77.0
326,152.60385611666666,152.79692529166667,70.0,81.0
327,152.90088561666667,153.95534034166667,68.0,77.0
328,154.08900361666667,154.26103320208333,66.0,88.0
329,154.38603311666668,154.61623097916666,66.0,81.0
330,154.68306261666666,154.86004269375,68.0,83.0
331,154.98009211666667,155.17811178333335,68.0,83.0
332,155.27712161666668,155.48627988958333,66.0,83.0
333,155.57415111666666,156.282071425,70.0,82.0
334,156.46523961666668,156.66325928333333,66.0,81.0
335,156.76226911666666,156.98132837291666,66.0,82.0
336,157.05929861666667,157.232565825,68.0,81.0
337,157.35632811666667,157.54815966875,68.0,83.0
338,157.65335761666668,157.90707031458334,66.0,81.0
339,157.95038711666666,158.55063423125,73.0,81.0
340,158.84147561666666,159.06053487291666,73.0,85.0
341,159.13850511666666,159.3934554375,73.0,85.0
342,159.43553461666667,159.61375231666668,75.0,84.0
343,159.73256411666668,159.93924714375,75.0,85.0
344,160.02959361666666,160.291969675,73.0,85.0
345,160.32662311666667,161.04568203125,78.0,83.0
346,161.21771161666666,161.43058275833334,78.0,82.0
347,161.51474111666667,161.74370135625,78.0,82.0
348,161.81177061666668,162.00360216875,77.0,81.0
349,162.10880011666666,162.29073068541666,75.0,86.0
350,162.40582961666667,162.61746313541667,77.0,80.0
351,162.70285911666667,163.35384877083334,73.0,81.0
352,163.59394761666667,163.767214825,73.0,83.0
353,163.89097711666668,164.06919481666668,73.0,88.0
354,164.18800661666668,164.35508571041666,70.0,81.0
355,164.48503611666666,164.68429340625,70.0,81.0
356,164.78206561666667,165.00112487291668,68.0,80.0
357,165.07909511666668,165.78082731041667,66.0,83.0
358,165.97018361666667,166.13850033333333,66.0,83.0
359,166.26721311666668,166.4924604875,66.0,78.0
360,166.56424261666666,166.73255933333334,68.0,79.0
361,166.86127211666667,167.04444030833335,68.0,80.0
362,167.15830161666668,167.36374702083333,66.0,81.0
363,167.45533111666666,167.68800422500001,70.0,80.0
364,167.75236061666666,167.94914266041667,73.0,80.0
365,168.04939011666667,168.2969147,73.0,81.0
366,168.34641961666668,168.51597395625,70.0,79.0
367,168.64344911666666,169.07166664583335,66.0,80.0
368,169.23750811666667,169.40582483333333,66.0,80.0
369,169.53453761666668,169.72141867708334,66.0,81.0
370,169.83156711666666,169.98379473541667,68.0,79.0
371,170.12859661666667,170.20656686041667,68.0,72.0
372,170.27711136666667,170.59641807916668,68.0,79.0
373,170.72265561666666,170.92562577500001,66.0,79.0
374,171.01968511666666,171.27216019166667,66.0,80.0
375,171.31671461666667,171.4677046125,63.0,78.0
376,171.46522936666668,171.8241400125,70.0,85.0
377,171.91077361666666,172.14963483958334,70.0,82.0
378,172.20780311666667,172.79196113333333,68.0,80.0
379,173.09889161666666,173.27092120208334,66.0,88.0
380,173.39592111666667,173.62611897916668,66.0,81.0
381,173.69295061666668,173.86993069375,68.0,83.0
382,173.98998011666666,174.18799978333334,68.0,83.0
383,174.28700961666667,174.49616788958335,66.0,83.0
384,174.58403911666667,175.29195942500002,70.0,82.0
385,175.47512761666667,175.67314728333335,66.0,81.0
386,175.77215711666668,175.99121637291668,66.0,82.0
387,176.06918661666666,176.242453825,68.0,81.0
388,176.36621611666666,176.55804766875,68.0,83.0
389,176.66324561666667,176.91695831458333,66.0,81.0
390,176.96027511666668,177.56052223125,73.0,81.0
391,177.85136361666667,178.07042287291668,73.0,85.0
392,178.14839311666668,178.4033434375,73.0,85.0
393,178.44542261666666,178.62364031666667,75.0,84.0
394,178.74245211666667,178.94913514375,75.0,85.0
395,179.03948161666668,179.301857675,73.0,85.0
396,179.33651111666666,180.05557003125,78.0,83.0
397,180.22759961666668,180.44047075833333,78.0,82.0
398,180.52462911666666,180.75358935625,78.0,82.0
399,180.82165861666667,181.01349016875,77.0,81.0
400,181.11868811666668,181.30061868541668,75.0,86.0
401,181.41571761666668,181.62735113541666,77.0,80.0
402,181.71274711666666,182.36373677083333,73.0,81.0
403,182.60383561666666,182.77710282500001,73.0,83.0
404,182.90086511666667,183.07908281666667,73.0,88.0
405,183.19789461666667,183.36497371041668,70.0,81.0
406,183.49492411666668,183.69418140625,70.0,81.0
407,183.79195361666666,184.01101287291667,68.0,80.0
408,184.08898311666667,184.79071531041666,66.0,83.0
409,184.98007161666666,185.14838833333334,66.0,83.0
410,185.27710111666667,185.5023484875,66.0,78.0
411,185.57413061666668,185.74244733333333,68.0,79.0
412,185.87116011666666,186.05432830833334,68.0,80.0
413,186.16818961666667,186.37363502083335,66.0,81.0
414,186.46521911666667,186.697892225,70.0,80.0
415,186.76224861666668,186.95903066041666,73.0,80.0
416,187.05927811666666,187.3068027,73.0,81.0
417,187.35630761666667,187.52586195625,70.0,79.0
418,187.65333711666668,188.08155464583334,66.0,80.0
419,188.24739611666666,188.41571283333334,66.0,80.0
420,188.54442561666667,188.73130667708332,66.0,81.0
421,188.84145511666668,188.99368273541668,68.0,79.0
422,189.13848461666666,189.21645486041666,68.0,72.0
423,189.28699936666666,189.60630607916667,68.0,79.0
424,189.73254361666667,189.935513775,66.0,79.0
425,190.02957311666668,190.28204819166666,66.0,80.0
426,190.32660261666666,190.4775926125,63.0,78.0
427,190.47511736666667,190.8340280125,70.0,85.0
428,190.92066161666668,191.15952283958333,70.0,82.0
429,191.21769111666666,191.80184913333335,68.0,80.0
430,192.10877961666668,192.28080920208333,66.0,88.0
431,192.40580911666666,192.63600697916667,66.0,81.0
432,192.70283861666667,192.87981869375,68.0,83.0
433,192.99986811666668,193.19788778333333,68.0,83.0
434,193.29689761666668,193.50605588958334,66.0,83.0
435,193.59392711666666,194.301847425,70.0,82.0
436,194.48501561666666,194.68303528333334,66.0,81.0
437,194.78204511666667,195.00110437291667,66.0,82.0
438,195.07907461666667,195.252341825,68.0,81.0
439,195.37610411666668,195.56793566875,68.0,83.0
440,195.67313361666666,195.92684631458334,66.0,81.0
441,195.97016311666667,196.57041023125,73.0,81.0
442,196.86125161666666,197.08031087291667,73.0,85.0
443,197.15828111666667,197.4132314375,73.0,85.0
444,197.45531061666668,197.63352831666668,75.0,84.0
445,197.75234011666666,197.95902314375002,75.0,85.0
446,198.04936961666667,198.311745675,73.0,85.0
447,198.34639911666667,199.06545803125002,78.0,83.0
448,199.23748761666667,199.45035875833332,78.0,82.0
449,199.53451711666668,199.76347735625,78.0,82.0
450,199.83154661666666,200.02337816875,77.0,81.0
451,200.12857611666666,200.31050668541667,75.0,86.0
452,200.42560561666667,200.63723913541668,77.0,80.0
453,200.72263511666668,201.37362477083335,73.0,81.0
454,201.61372361666668,201.786990825,73.0,83.0
455,201.91075311666668,202.08897081666666,73.0,88.0
456,202.20778261666666,202.37486171041667,70.0,81.0
457,202.50481211666667,202.70406940625,70.0,81.0
458,202.80184161666668,203.02090087291668,68.0,80.0
459,203.09887111666666,203.80060331041668,66.0,83.0
460,203.98995961666668,204.15827633333333,66.0,83.0
461,204.28698911666666,204.5122364875,66.0,78.0
462,204.58401861666667,204.75233533333335,68.0,79.0
463,204.88104811666668,205.06421630833333,68.0,80.0
464,205.17807761666668,205.38352302083334,66.0,81.0
465,205.47510711666666,205.707780225,70.0,80.0
466,205.77213661666667,205.96891866041668,73.0,80.0
467,206.06916611666668,206.3166907,73.0,81.0
468,206.36619561666666,206.53574995625002,70.0,79.0
469,206.66322511666667,207.09144264583333,66.0,80.0
470,207.25728411666668,207.42560083333333,66.0,80.0
471,207.55431361666666,207.74119467708334,66.0,81.0
472,207.85134311666667,208.00357073541667,68.0,79.0
473,208.14837261666668,208.22634286041668,68.0,72.0
474,208.29688736666668,208.61619407916666,68.0,79.0
475,208.74243161666666,208.945401775,66.0,79.0
476,209.03946111666667,209.29193619166668,66.0,80.0
477,209.33649061666668,209.4874806125,63.0,78.0
478,209.48500536666668,209.84391601250002,70.0,85.0
479,209.93054961666667,210.16941083958335,70.0,82.0
480,210.22757911666667,210.81173713333334,68.0,80.0
481,211.11866761666667,211.29069720208335,66.0,88.0
482,211.41569711666668,211.64589497916668,66.0,81.0
483,211.71272661666666,211.88970669375,68.0,83.0
484,212.00975611666667,212.20777578333335,68.0,83.0
485,212.30678561666667,212.51594388958333,66.0,83.0
486,212.60381511666668,213.311735425,70.0,82.0
487,213.49490361666668,213.69292328333333,66.0,81.0
488,213.79193311666668,214.01099237291666,66.0,82.0
489,214.08896261666666,214.262229825,68.0,81.0
490,214.38599211666667,214.57782366875,68.0,83.0
491,214.68302161666668,214.93673431458333,66.0,81.0
492,214.98005111666666,215.58029823125,73.0,81.0
493,215.87113961666668,216.09019887291666,73.0,85.0
494,216.16816911666666,216.4231194375,73.0,85.0
495,216.46519861666667,216.64341631666667,75.0,84.0
496,216.76222811666668,216.96891114375,75.0,85.0
497,217.05925761666668,217.32163367500002,73.0,85.0
498,217.35628711666666,218.07534603125,78.0,83.0
499,218.24737561666666,218.46024675833334,78.0,82.0
500,218.54440511666667,218.77336535625,78.0,82.0
501,218.84143461666667,219.03326616875,77.0,81.0
502,219.13846411666668,219.32039468541666,75.0,86.0
503,219.43549361666666,219.64712713541667,77.0,80.0
504,219.73252311666667,220.38351277083333,73.0,81.0
505,220.62361161666666,220.796878825,73.0,83.0
506,220.92064111666667,221.09885881666668,73.0,88.0
507,221.21767061666668,221.38474971041668,70.0,81.0
508,221.51470011666666,221.71395740625002,70.0,81.0
509,221.81172961666667,222.03078887291667,68.0,80.0
510,222.10875911666668,222.81049131041667,66.0,83.0
511,222.99984761666667,223.16816433333335,66.0,83.0
512,223.29687711666668,223.5221244875,66.0,78.0
513,223.59390661666666,223.76222333333334,68.0,79.0
514,223.89093611666667,224.07410430833335,68.0,80.0
515,224.18796561666667,224.39341102083333,66.0,81.0
516,224.48499511666668,224.717668225,70.0,80.0
517,224.78202461666666,224.97880666041667,73.0,80.0
518,225.07905411666667,225.3265787,73.0,81.0
519,225.37608361666668,225.54563795625,70.0,79.0
520,225.67311311666668,226.10133064583334,66.0,80.0
521,226.26717211666667,226.43548883333332,66.0,80.0
522,226.56420161666668,226.75108267708333,66.0,81.0
523,226.86123111666666,227.01345873541666,68.0,79.0
524,227.15826061666667,227.23623086041667,68.0,72.0
525,227.30677536666667,227.62608207916668,68.0,79.0
526,227.75231961666668,227.955289775,66.0,79.0
527,228.04934911666666,228.30182419166667,66.0,80.0
528,228.34637861666667,228.4973686125,63.0,78.0
529,228.49489336666667,228.8538040125,70.0,85.0
530,228.94043761666666,229.17929883958334,70.0,82.0
531,229.23746711666666,229.82162513333333,68.0,80.0
532,230.12855561666666,230.33523864375002,61.0,83.0
533,230.42558511666667,230.59637707916667,71.0,81.0
534,230.72261461666668,230.81543633541668,71.0,80.0
535,230.87112936666668,232.05924736666668,71.0,78.0
536,233.69290961666667,233.91691936458335,70.0,81.0
537,233.98993911666668,234.25726566666668,68.0,80.0
538,234.28696861666668,237.29562992708333,66.0,85.0
