,start,end,pitch,velocity
0,3.4950471166666666,3.892324072916667,58.0,75.0
1,3.4950471166666666,4.131185295833333,61.0,79.0
2,4.089106116666667,5.204204364583333,58.0,78.0
3,5.277224116666667,5.355194360416667,58.0,71.0
4,3.792076616666667,5.3626200979166665,49.0,69.0
5,4.3861356166666665,5.391085425,66.0,84.0
6,3.4950471166666666,5.420788375,42.0,81.0
7,5.277224116666667,5.542075420833333,61.0,81.0
8,5.871283116666667,6.0816790125,56.0,75.0
9,5.871283116666667,6.381183758333333,65.0,82.0
10,6.168312616666666,6.53093613125,56.0,75.0
11,6.465342116666667,6.611381620833334,61.0,75.0
12,6.762371616666667,7.483905777083334,56.0,81.0
13,6.762371616666667,7.539598808333333,65.0,84.0
14,5.871283116666667,7.724004622916667,49.0,82.0
15,7.6534601166666665,7.825489702083334,56.0,82.0
16,7.6534601166666665,7.883657979166667,61.0,83.0
17,8.247519116666666,8.43192493125,58.0,74.0
18,8.247519116666666,8.868805820833334,66.0,79.0
19,8.544548616666667,9.044548275,58.0,76.0
20,8.841578116666668,9.04826114375,63.0,84.0
21,8.247519116666666,9.999993166666666,51.0,88.0
22,9.138607616666667,10.04330996875,66.0,80.0
23,9.138607616666667,10.059399066666668,58.0,80.0
24,10.029696116666667,10.320537502083333,63.0,82.0
25,10.326725616666668,10.482666104166666,58.0,74.0
26,10.623755116666667,10.819299537500001,56.0,82.0
27,10.623755116666667,11.221526985416666,65.0,82.0
28,10.920784616666667,11.3391011625,56.0,78.0
29,11.217814116666666,11.347764522916666,61.0,78.0
30,10.623755116666667,12.227714416666666,49.0,80.0
31,11.514843616666667,12.381179658333334,65.0,84.0
32,11.514843616666667,12.433159820833334,56.0,83.0
33,12.405932116666667,12.499991458333334,61.0,84.0
34,12.999991116666667,13.179446439583334,54.0,74.0
35,12.999991116666667,13.64479265625,63.0,79.0
36,13.297020616666668,13.698010441666668,54.0,79.0
37,13.594050116666667,13.728951014583334,59.0,80.0
38,13.891079616666667,14.566821729166668,54.0,83.0
39,12.999991116666667,14.857663114583334,47.0,85.0
40,14.782168116666666,14.924494752083334,54.0,80.0
41,14.782168116666666,14.936870981250001,59.0,84.0
42,13.891079616666667,14.955435325,63.0,82.0
43,15.376227116666668,15.525979489583333,58.0,79.0
44,15.376227116666668,15.711622927083333,61.0,81.0
45,15.673256616666666,16.111375129166667,58.0,74.0
46,15.970286116666667,16.215335454166667,61.0,78.0
47,16.267315616666668,17.011126989583335,61.0,79.0
48,16.267315616666668,17.09528534791667,66.0,82.0
49,15.376227116666668,17.248750589583334,42.0,79.0
50,17.158404116666667,17.301968375,61.0,85.0
51,17.158404116666667,17.329196079166667,58.0,80.0
52,17.752463116666668,18.3787003125,56.0,79.0
53,17.752463116666668,18.394789410416667,59.0,73.0
54,18.346522116666666,18.491323997916666,63.0,80.0
55,18.643551616666667,18.873749479166666,68.0,79.0
56,18.643551616666667,18.956670214583333,56.0,81.0
57,19.237610616666668,19.94181805625,56.0,80.0
58,18.04949261666667,19.9678081375,51.0,73.0
59,19.237610616666668,19.992560595833332,63.0,80.0
60,17.752463116666668,20.0123625625,44.0,80.0
61,20.128699116666667,20.26855050625,56.0,79.0
62,20.128699116666667,20.480184025,61.0,79.0
63,20.425728616666667,20.7697877875,56.0,79.0
64,20.722758116666668,20.826718441666667,61.0,76.0
65,21.019787616666665,21.191817202083335,65.0,85.0
66,21.019787616666665,21.198005316666666,56.0,81.0
67,21.613846616666667,21.771024727083333,56.0,78.0
68,21.613846616666667,22.004935458333335,61.0,80.0
69,21.910876116666667,22.263598647916666,56.0,81.0
70,22.207905616666668,22.4331529875,61.0,76.0
71,20.128699116666667,22.48513315,49.0,81.0
72,22.504935116666665,22.90221207291667,58.0,75.0
73,22.504935116666665,23.141073295833333,61.0,79.0
74,23.098994116666667,24.214092364583333,58.0,78.0
75,24.287112116666666,24.365082360416668,58.0,71.0
76,22.801964616666666,24.37250809791667,49.0,69.0
77,23.396023616666668,24.400973425,66.0,84.0
78,22.504935116666665,24.430676375,42.0,81.0
79,24.287112116666666,24.551963420833335,61.0,81.0
80,24.881171116666668,25.0915670125,56.0,75.0
81,24.881171116666668,25.391071758333332,65.0,82.0
82,25.17820061666667,25.54082413125,56.0,75.0
83,25.475230116666665,25.621269620833335,61.0,75.0
84,25.772259616666666,26.493793777083333,56.0,81.0
85,25.772259616666666,26.549486808333334,65.0,84.0
86,24.881171116666668,26.733892622916667,49.0,82.0
87,26.66334811666667,26.835377702083335,56.0,82.0
88,26.66334811666667,26.893545979166667,61.0,83.0
89,27.257407116666666,27.441812931250002,58.0,74.0
90,27.257407116666666,27.878693820833334,66.0,79.0
91,27.554436616666667,28.054436275,58.0,76.0
92,27.851466116666668,28.05814914375,63.0,84.0
93,27.257407116666666,29.009881166666666,51.0,88.0
94,28.14849561666667,29.053197968750002,66.0,80.0
95,28.14849561666667,29.069287066666668,58.0,80.0
96,29.039584116666667,29.330425502083333,63.0,82.0
97,29.336613616666668,29.49255410416667,58.0,74.0
98,29.63364311666667,29.8291875375,56.0,82.0
99,29.63364311666667,30.231414985416666,65.0,82.0
100,29.930672616666666,30.3489891625,56.0,78.0
101,30.227702116666666,30.357652522916666,61.0,78.0
102,29.63364311666667,31.237602416666668,49.0,80.0
103,30.524731616666667,31.391067658333334,65.0,84.0
104,30.524731616666667,31.443047820833335,56.0,83.0
105,31.415820116666666,31.509879458333334,61.0,84.0
106,32.00987911666667,32.189334439583334,54.0,74.0
107,32.00987911666667,32.65468065625,63.0,79.0
108,32.30690861666667,32.707898441666664,54.0,79.0
109,32.60393811666667,32.738839014583334,59.0,80.0
110,32.90096761666667,33.576709729166666,54.0,83.0
111,32.00987911666667,33.867551114583335,47.0,85.0
112,33.792056116666664,33.93438275208334,54.0,80.0
113,33.792056116666664,33.94675898125,59.0,84.0
114,32.90096761666667,33.965323325,63.0,82.0
115,34.386115116666666,34.53586748958333,58.0,79.0
116,34.386115116666666,34.72151092708334,61.0,81.0
117,34.68314461666667,35.121263129166664,58.0,74.0
118,34.98017411666667,35.22522345416667,61.0,78.0
119,35.27720361666667,36.021014989583335,61.0,79.0
120,35.27720361666667,36.10517334791667,66.0,82.0
121,34.386115116666666,36.258638589583335,42.0,79.0
122,36.16829211666667,36.311856375,61.0,85.0
123,36.16829211666667,36.33908407916667,58.0,80.0
124,36.762351116666665,37.3885883125,56.0,79.0
125,36.762351116666665,37.40467741041667,59.0,73.0
126,37.356410116666666,37.50121199791667,63.0,80.0
127,37.65343961666667,37.883637479166666,68.0,79.0
128,37.65343961666667,37.96655821458334,56.0,81.0
129,38.24749861666667,38.95170605625,56.0,80.0
130,37.059380616666665,38.977696137500004,51.0,73.0
131,38.24749861666667,39.002448595833336,63.0,80.0
132,36.762351116666665,39.0222505625,44.0,80.0
133,39.13858711666667,39.27843850625,56.0,79.0
134,39.13858711666667,39.490072025,61.0,79.0
135,39.435616616666664,39.779675787500004,56.0,79.0
136,39.732646116666665,39.83660644166667,61.0,76.0
137,40.029675616666665,40.20170520208333,65.0,85.0
138,40.029675616666665,40.20789331666667,56.0,81.0
139,40.62373461666667,40.78091272708333,56.0,78.0
140,40.62373461666667,41.01482345833333,61.0,80.0
141,40.92076411666667,41.27348664791667,56.0,81.0
142,41.21779361666667,41.4430409875,61.0,76.0
143,39.13858711666667,41.49502115,49.0,81.0
144,41.51482311666667,41.912100072916665,58.0,75.0
145,41.51482311666667,42.15096129583333,61.0,79.0
146,42.10888211666667,43.22398036458333,58.0,78.0
147,43.297000116666666,43.37497036041667,58.0,71.0
148,41.81185261666667,43.38239609791667,49.0,69.0
149,42.405911616666664,43.410861425,66.0,84.0
150,41.51482311666667,43.440564375,42.0,81.0
151,43.297000116666666,43.561851420833335,61.0,81.0
152,43.89105911666667,44.101455012500004,56.0,75.0
153,43.89105911666667,44.400959758333336,65.0,82.0
154,44.18808861666667,44.55071213125,56.0,75.0
155,44.48511811666667,44.631157620833335,61.0,75.0
156,44.78214761666667,45.50368177708334,56.0,81.0
157,44.78214761666667,45.55937480833333,65.0,84.0
158,43.89105911666667,45.74378062291667,49.0,82.0
159,45.673236116666665,45.84526570208333,56.0,82.0
160,45.673236116666665,45.90343397916667,61.0,83.0
161,46.267295116666666,46.45170093125,58.0,74.0
162,46.267295116666666,46.88858182083334,66.0,79.0
163,46.56432461666667,47.064324275000004,58.0,76.0
164,46.86135411666667,47.068037143750004,63.0,84.0
165,46.267295116666666,48.01976916666667,51.0,88.0
166,47.15838361666667,48.06308596875,66.0,80.0
167,47.15838361666667,48.079175066666664,58.0,80.0
168,48.04947211666667,48.34031350208333,63.0,82.0
169,48.346501616666664,48.50244210416667,58.0,74.0
170,48.643531116666665,48.8390755375,56.0,82.0
171,48.643531116666665,49.24130298541667,65.0,82.0
172,48.940560616666666,49.3588771625,56.0,78.0
173,49.23759011666667,49.36754052291667,61.0,78.0
174,48.643531116666665,50.247490416666665,49.0,80.0
175,49.53461961666667,50.40095565833333,65.0,84.0
176,49.53461961666667,50.45293582083333,56.0,83.0
177,50.42570811666667,50.519767458333334,61.0,84.0
178,51.01976711666667,51.19922243958334,54.0,74.0
179,51.01976711666667,51.66456865625,63.0,79.0
180,51.316796616666664,51.71778644166667,54.0,79.0
181,51.613826116666665,51.74872701458334,59.0,80.0
182,51.910855616666666,52.58659772916667,54.0,83.0
183,51.01976711666667,52.87743911458333,47.0,85.0
184,52.80194411666667,52.944270752083334,54.0,80.0
185,52.80194411666667,52.95664698125,59.0,84.0
186,51.910855616666666,52.975211325000004,63.0,82.0
187,53.39600311666667,53.545755489583335,58.0,79.0
188,53.39600311666667,53.73139892708333,61.0,81.0
189,53.69303261666667,54.13115112916667,58.0,74.0
190,53.99006211666667,54.23511145416667,61.0,78.0
191,54.287091616666665,55.03090298958333,61.0,79.0
192,54.287091616666665,55.115061347916665,66.0,82.0
193,53.39600311666667,55.26852658958333,42.0,79.0
194,55.17818011666667,55.321744375,61.0,85.0
195,55.17818011666667,55.348972079166664,58.0,80.0
196,55.77223911666667,56.3984763125,56.0,79.0
197,55.77223911666667,56.41456541041667,59.0,73.0
198,56.36629811666667,56.511099997916666,63.0,80.0
199,56.66332761666667,56.89352547916667,68.0,79.0
200,56.66332761666667,56.97644621458333,56.0,81.0
201,57.257386616666665,57.96159405625,56.0,80.0
202,56.06926861666667,57.9875841375,51.0,73.0
203,57.257386616666665,58.01233659583333,63.0,80.0
204,55.77223911666667,58.0321385625,44.0,80.0
205,58.14847511666667,58.28832650625,56.0,79.0
206,58.14847511666667,58.499960025,61.0,79.0
207,58.44550461666667,58.7895637875,56.0,79.0
208,58.74253411666667,58.84649444166667,61.0,76.0
209,59.03956361666667,59.211593202083336,65.0,85.0
210,59.03956361666667,59.21778131666667,56.0,81.0
211,59.63362261666667,59.79080072708334,56.0,78.0
212,59.63362261666667,60.024711458333336,61.0,80.0
213,59.93065211666667,60.283374647916666,56.0,81.0
214,60.227681616666665,60.4529289875,61.0,76.0
215,58.14847511666667,60.50490915,49.0,81.0
216,60.524711116666666,60.93931479375,61.0,79.0
217,60.524711116666666,60.96406725208333,58.0,77.0
218,61.11877011666667,61.292037325,66.0,82.0
219,61.11877011666667,61.293274947916665,58.0,81.0
220,60.821740616666666,61.618769775000004,49.0,72.0
221,60.524711116666666,61.658373708333336,42.0,81.0
222,61.564314366666665,61.67693805208334,61.0,86.0
223,61.564314366666665,61.6856014125,58.0,80.0
224,61.564314366666665,61.69426477291667,66.0,81.0
225,62.00985861666667,62.34896729583333,66.0,75.0
226,62.00985861666667,62.376195,58.0,77.0
227,62.00985861666667,62.381145491666665,61.0,79.0
228,62.00985861666667,62.700452204166666,42.0,80.0
229,62.60391761666667,62.73015515416667,61.0,82.0
230,62.60391761666667,62.75738285833334,58.0,80.0
231,62.60391761666667,62.79327392291667,66.0,74.0
232,62.900947116666664,63.34401612083334,65.0,79.0
233,62.900947116666664,63.35267948125,61.0,75.0
234,62.900947116666664,63.36134284166667,56.0,78.0
235,62.900947116666664,63.61876840833334,49.0,84.0
236,63.495006116666666,63.65713471875,65.0,90.0
237,63.495006116666666,63.65960996458333,61.0,93.0
238,63.495006116666666,63.70292676666667,56.0,83.0
239,63.94055036666667,64.07297601875,65.0,81.0
240,63.94055036666667,64.08040175625,61.0,83.0
241,63.94055036666667,64.10020372291667,56.0,80.0
242,64.08906511666667,64.54946084166667,49.0,80.0
243,64.38609461666667,64.70911419791666,65.0,85.0
244,64.38609461666667,64.74129239375,61.0,85.0
245,64.38609461666667,64.75366862291666,56.0,83.0
246,64.98015361666667,65.12248025208334,56.0,81.0
247,64.98015361666667,65.12743074375,61.0,82.0
248,64.98015361666667,65.1459950875,65.0,80.0
249,65.27718311666666,65.67446007291667,63.0,76.0
250,65.27718311666666,65.7252026125,58.0,73.0
251,65.27718311666666,65.79450949583334,51.0,85.0
252,65.87124211666666,66.06431129166667,66.0,80.0
253,65.87124211666666,66.09401424166667,63.0,84.0
254,65.87124211666666,66.16208350208333,58.0,80.0
255,66.31678636666666,66.51851890208333,63.0,81.0
256,66.31678636666666,66.51851890208333,66.0,80.0
257,66.31678636666666,66.5420337375,58.0,78.0
258,66.46530111666667,67.00119183958333,51.0,79.0
259,66.76233061666667,67.15960757291667,66.0,80.0
260,66.76233061666667,67.16703331041667,63.0,81.0
261,66.76233061666667,67.17569667083333,58.0,80.0
262,67.35638961666666,67.46158756458334,63.0,80.0
263,67.35638961666666,67.51109248125,66.0,79.0
264,67.35638961666666,67.51233010416667,58.0,79.0
265,67.65341911666667,68.11133959583333,56.0,79.0
266,67.65341911666667,68.123715825,65.0,79.0
267,67.65341911666667,68.35515131041667,49.0,79.0
268,68.24747811666667,68.4578740125,61.0,81.0
269,68.24747811666667,68.50861655208334,56.0,81.0
270,68.69302236666667,68.910844,65.0,85.0
271,68.69302236666667,68.93683408125,56.0,85.0
272,68.84153711666667,69.11010128958334,49.0,96.0
273,69.13856661666667,69.51480398333334,61.0,86.0
274,69.13856661666667,69.54079406458334,56.0,80.0
275,69.73262561666667,69.82668495833333,65.0,81.0
276,69.73262561666667,69.83906118750001,61.0,81.0
277,69.73262561666667,69.88114036666667,56.0,80.0
278,70.02965511666667,70.37000141875001,61.0,78.0
279,70.02965511666667,70.47519936666667,54.0,76.0
280,70.02965511666667,70.47643698958333,63.0,71.0
281,70.02965511666667,70.4776746125,59.0,72.0
282,70.62371411666666,70.86257533958333,59.0,84.0
283,70.62371411666666,70.87495156875,63.0,82.0
284,70.62371411666666,70.8786644375,54.0,82.0
285,70.02965511666667,71.04326828541667,47.0,83.0
286,71.06925836666667,71.28460475416666,54.0,79.0
287,71.06925836666667,71.30688196666667,63.0,80.0
288,71.06925836666667,71.31430770416667,59.0,80.0
289,71.21777311666666,71.67445597291666,47.0,79.0
290,71.51480261666667,71.89846572083333,54.0,79.0
291,71.51480261666667,71.925693425,59.0,83.0
292,71.81183211666666,71.93559440833333,47.0,73.0
293,72.10886161666667,72.21777243333334,54.0,65.0
294,72.10886161666667,72.24004964583334,59.0,75.0
295,72.40589111666667,72.80811856458334,61.0,79.0
296,72.40589111666667,72.82544528541666,58.0,72.0
297,72.99995011666667,73.16702921041667,65.0,84.0
298,72.99995011666667,73.17569257083333,61.0,88.0
299,72.99995011666667,73.18435593125,58.0,80.0
300,72.40589111666667,73.2549004375,46.0,80.0
301,73.44549436666667,73.61504870625001,61.0,76.0
302,73.44549436666667,73.61504870625001,65.0,80.0
303,73.44549436666667,73.63361305000001,58.0,75.0
304,73.59400911666667,74.06678107083333,46.0,71.0
305,73.89103861666666,74.23138491875,65.0,83.0
306,73.89103861666666,74.26851360625,61.0,80.0
307,73.89103861666666,74.27717696666667,58.0,81.0
308,74.48509761666666,74.5766817125,65.0,78.0
309,74.48509761666666,74.58782031875,61.0,80.0
310,74.48509761666666,74.62247376041667,58.0,78.0
311,74.78212711666667,75.11257243541667,63.0,77.0
312,74.78212711666667,75.14227538541667,56.0,76.0
313,74.78212711666667,75.14598825416667,59.0,72.0
314,75.37618611666667,75.52965135833334,59.0,90.0
315,75.37618611666667,75.53088898125,63.0,85.0
316,75.37618611666667,75.53707709583334,56.0,84.0
317,74.78212711666667,75.56059193125,44.0,80.0
318,75.82173036666667,75.97395798541667,63.0,75.0
319,75.82173036666667,75.99252232916666,59.0,72.0
320,75.82173036666667,76.00118568958334,56.0,72.0
321,76.26727461666667,76.50366059375,63.0,85.0
322,76.26727461666667,76.64351198333334,56.0,84.0
323,76.26727461666667,76.67445255625,59.0,86.0
324,76.86133361666667,76.975194925,59.0,81.0
325,75.97024511666667,76.97890779375,51.0,73.0
326,76.86133361666667,77.01356123541667,56.0,78.0
327,76.86133361666667,77.0271750875,63.0,80.0
328,75.97024511666667,77.03955131666667,44.0,75.0
329,77.15836311666666,77.53831335208334,61.0,80.0
330,77.15836311666666,77.54078859791667,56.0,79.0
331,77.75242211666666,77.9034121125,65.0,90.0
332,77.75242211666666,77.92197645625001,61.0,93.0
333,77.75242211666666,77.93806555416667,56.0,84.0
334,77.15836311666666,77.94549129166667,49.0,83.0
335,78.19796636666666,78.43930283541667,65.0,80.0
336,78.19796636666666,78.45044144166667,61.0,80.0
337,78.19796636666666,78.45786717916667,56.0,77.0
338,78.34648111666667,78.8687579875,49.0,88.0
339,78.94054011666667,78.98261929583333,49.0,71.0
340,78.64351061666667,79.05563904791667,61.0,90.0
341,78.64351061666667,79.06430240833333,56.0,82.0
342,78.64351061666667,79.06801527708333,65.0,88.0
343,79.23756961666666,79.46157936458333,56.0,80.0
344,79.23756961666666,79.47519321666667,61.0,81.0
345,79.23756961666666,79.4925199375,49.0,82.0
346,79.53459911666667,79.94920279375,61.0,79.0
347,79.53459911666667,79.97395525208333,58.0,77.0
348,80.12865811666667,80.301925325,66.0,82.0
349,80.12865811666667,80.30316294791666,58.0,81.0
350,79.83162861666666,80.62865777500001,49.0,72.0
351,79.53459911666667,80.66826170833333,42.0,81.0
352,80.57420236666667,80.68682605208333,61.0,86.0
353,80.57420236666667,80.6954894125,58.0,80.0
354,80.57420236666667,80.70415277291667,66.0,81.0
355,81.01974661666667,81.35885529583334,66.0,75.0
356,81.01974661666667,81.386083,58.0,77.0
357,81.01974661666667,81.39103349166666,61.0,79.0
358,81.01974661666667,81.71034020416667,42.0,80.0
359,81.61380561666667,81.74004315416667,61.0,82.0
360,81.61380561666667,81.76727085833333,58.0,80.0
361,81.61380561666667,81.80316192291667,66.0,74.0
362,81.91083511666668,82.35390412083333,65.0,79.0
363,81.91083511666668,82.36256748125,61.0,75.0
364,81.91083511666668,82.37123084166667,56.0,78.0
365,81.91083511666668,82.62865640833334,49.0,84.0
366,82.50489411666666,82.66702271875,65.0,90.0
367,82.50489411666666,82.66949796458333,61.0,93.0
368,82.50489411666666,82.71281476666667,56.0,83.0
369,82.95043836666667,83.08286401875,65.0,81.0
370,82.95043836666667,83.09028975625,61.0,83.0
371,82.95043836666667,83.11009172291666,56.0,80.0
372,83.09895311666666,83.55934884166666,49.0,80.0
373,83.39598261666667,83.71900219791667,65.0,85.0
374,83.39598261666667,83.75118039375,61.0,85.0
375,83.39598261666667,83.76355662291667,56.0,83.0
376,83.99004161666667,84.13236825208334,56.0,81.0
377,83.99004161666667,84.13731874375,61.0,82.0
378,83.99004161666667,84.1558830875,65.0,80.0
379,84.28707111666667,84.68434807291666,63.0,76.0
380,84.28707111666667,84.7350906125,58.0,73.0
381,84.28707111666667,84.80439749583333,51.0,85.0
382,84.88113011666667,85.07419929166667,66.0,80.0
383,84.88113011666667,85.10390224166667,63.0,84.0
384,84.88113011666667,85.17197150208334,58.0,80.0
385,85.32667436666667,85.52840690208333,63.0,81.0
386,85.32667436666667,85.52840690208333,66.0,80.0
387,85.32667436666667,85.5519217375,58.0,78.0
388,85.47518911666667,86.01107983958333,51.0,79.0
389,85.77221861666666,86.16949557291667,66.0,80.0
390,85.77221861666666,86.17692131041667,63.0,81.0
391,85.77221861666666,86.18558467083334,58.0,80.0
392,86.36627761666666,86.47147556458333,63.0,80.0
393,86.36627761666666,86.52098048125,66.0,79.0
394,86.36627761666666,86.52221810416667,58.0,79.0
395,86.66330711666667,87.12122759583333,56.0,79.0
396,86.66330711666667,87.133603825,65.0,79.0
397,86.66330711666667,87.36503931041666,49.0,79.0
398,87.25736611666667,87.4677620125,61.0,81.0
399,87.25736611666667,87.51850455208333,56.0,81.0
400,87.70291036666667,87.920732,65.0,85.0
401,87.70291036666667,87.94672208125,56.0,85.0
402,87.85142511666668,88.11998928958333,49.0,96.0
403,88.14845461666667,88.52469198333334,61.0,86.0
404,88.14845461666667,88.55068206458334,56.0,80.0
405,88.74251361666667,88.83657295833333,65.0,81.0
406,88.74251361666667,88.8489491875,61.0,81.0
407,88.74251361666667,88.89102836666667,56.0,80.0
408,89.03954311666666,89.37988941875,61.0,78.0
409,89.03954311666666,89.48508736666666,54.0,76.0
410,89.03954311666666,89.48632498958334,63.0,71.0
411,89.03954311666666,89.4875626125,59.0,72.0
412,89.63360211666667,89.87246333958333,59.0,84.0
413,89.63360211666667,89.88483956875,63.0,82.0
414,89.63360211666667,89.8885524375,54.0,82.0
415,89.03954311666666,90.05315628541666,47.0,83.0
416,90.07914636666666,90.29449275416667,54.0,79.0
417,90.07914636666666,90.31676996666667,63.0,80.0
418,90.07914636666666,90.32419570416667,59.0,80.0
419,90.22766111666667,90.68434397291666,47.0,79.0
420,90.52469061666667,90.90835372083333,54.0,79.0
421,90.52469061666667,90.935581425,59.0,83.0
422,90.82172011666667,90.94548240833333,47.0,73.0
423,91.11874961666666,91.22766043333334,54.0,65.0
424,91.11874961666666,91.24993764583334,59.0,75.0
425,91.41577911666667,91.81800656458333,61.0,79.0
426,91.41577911666667,91.83533328541667,58.0,72.0
427,92.00983811666667,92.17691721041666,65.0,84.0
428,92.00983811666667,92.18558057083334,61.0,88.0
429,92.00983811666667,92.19424393125,58.0,80.0
430,91.41577911666667,92.2647884375,46.0,80.0
431,92.45538236666667,92.62493670625,61.0,76.0
432,92.45538236666667,92.62493670625,65.0,80.0
433,92.45538236666667,92.64350105,58.0,75.0
434,92.60389711666667,93.07666907083333,46.0,71.0
435,92.90092661666667,93.24127291875,65.0,83.0
436,92.90092661666667,93.27840160625,61.0,80.0
437,92.90092661666667,93.28706496666666,58.0,81.0
438,93.49498561666667,93.58656971250001,65.0,78.0
439,93.49498561666667,93.59770831875001,61.0,80.0
440,93.49498561666667,93.63236176041667,58.0,78.0
441,93.79201511666666,94.12246043541667,63.0,77.0
442,93.79201511666666,94.15216338541667,56.0,76.0
443,93.79201511666666,94.15587625416667,59.0,72.0
444,94.38607411666666,94.53953935833333,59.0,90.0
445,94.38607411666666,94.54077698125,63.0,85.0
446,94.38607411666666,94.54696509583333,56.0,84.0
447,93.79201511666666,94.57047993125,44.0,80.0
448,94.83161836666667,94.98384598541666,63.0,75.0
449,94.83161836666667,95.00241032916666,59.0,72.0
450,94.83161836666667,95.01107368958334,56.0,72.0
451,95.27716261666667,95.51354859375,63.0,85.0
452,95.27716261666667,95.65339998333333,56.0,84.0
453,95.27716261666667,95.68434055625,59.0,86.0
454,95.87122161666667,95.985082925,59.0,81.0
455,94.98013311666666,95.98879579375,51.0,73.0
456,95.87122161666667,96.02344923541666,56.0,78.0
457,95.87122161666667,96.0370630875,63.0,80.0
458,94.98013311666666,96.04943931666666,44.0,75.0
459,96.16825111666667,96.54820135208334,61.0,80.0
460,96.16825111666667,96.55067659791666,56.0,79.0
461,96.76231011666667,96.9133001125,65.0,90.0
462,96.76231011666667,96.93186445625,61.0,93.0
463,96.76231011666667,96.94795355416667,56.0,84.0
464,96.16825111666667,96.95537929166667,49.0,83.0
465,97.20785436666667,97.44919083541667,65.0,80.0
466,97.20785436666667,97.46032944166667,61.0,80.0
467,97.20785436666667,97.46775517916667,56.0,77.0
468,97.35636911666667,97.87864598750001,49.0,88.0
469,97.95042811666667,97.99250729583333,49.0,71.0
470,97.65339861666666,98.06552704791667,61.0,90.0
471,97.65339861666666,98.07419040833334,56.0,82.0
472,97.65339861666666,98.07790327708334,65.0,88.0
473,98.24745761666667,98.47146736458333,56.0,80.0
474,98.24745761666667,98.48508121666667,61.0,81.0
475,98.24745761666667,98.5024079375,49.0,82.0
476,98.54448711666667,98.88112055,61.0,77.0
477,98.54448711666667,99.20909062291666,54.0,72.0
478,99.13854611666667,99.24250644166666,58.0,75.0
479,98.84151661666667,99.56800126875,49.0,74.0
480,99.43557561666667,99.60636757916667,66.0,81.0
481,99.43557561666667,99.88483273541667,54.0,79.0
482,100.02963461666667,100.12369395833333,58.0,83.0
483,100.02963461666667,100.17072362916667,61.0,81.0
484,99.73260511666666,100.1806246125,49.0,74.0
485,98.54448711666667,100.19300084166667,42.0,81.0
486,100.92072311666666,101.0717131125,56.0,80.0
487,100.92072311666666,101.391019825,65.0,80.0
488,101.21775261666667,101.46280195416666,56.0,75.0
489,101.51478211666667,101.60265334375,61.0,75.0
490,101.81181161666667,101.92319767916666,56.0,82.0
491,101.81181161666667,101.93186103958334,65.0,86.0
492,102.40587061666668,102.63978134791667,56.0,79.0
493,102.40587061666668,102.77220700000001,61.0,82.0
494,100.92072311666666,102.88235543958334,49.0,81.0
495,103.29695911666667,103.44299862083334,58.0,80.0
496,103.29695911666667,103.64225591041667,66.0,81.0
497,103.59398861666666,103.74992910416667,58.0,77.0
498,103.89101811666667,103.98507745833334,63.0,79.0
499,104.18804761666667,104.30314654791667,58.0,81.0
500,104.18804761666667,104.36131482500001,66.0,85.0
501,103.29695911666667,104.83532440208333,51.0,81.0
502,104.78210661666667,105.01230447916667,63.0,88.0
503,104.78210661666667,105.04572029791667,58.0,81.0
504,105.07913611666667,105.16453209791666,51.0,81.0
505,105.37616561666667,105.48755167916667,63.0,81.0
506,105.37616561666667,105.49992790833333,58.0,80.0
507,105.67319511666666,105.82047224375,56.0,79.0
508,105.67319511666666,105.87987814375,61.0,80.0
509,105.97022461666667,106.05809584375,56.0,71.0
510,106.26725411666666,106.36750157291667,56.0,80.0
511,106.26725411666666,106.37245206458334,65.0,81.0
512,106.56428361666667,106.67319443333334,65.0,83.0
513,106.56428361666667,106.68309541666667,56.0,84.0
514,105.67319511666666,107.29819400625,49.0,85.0
515,107.15834261666667,107.41948105208334,56.0,79.0
516,107.15834261666667,107.46774834583333,61.0,80.0
517,107.45537211666667,107.61626309583333,49.0,70.0
518,107.75240161666667,107.85141145,56.0,79.0
519,108.04943111666667,108.11750037708333,59.0,68.0
520,108.04943111666667,108.47888626875,54.0,74.0
521,108.04943111666667,108.64225249375001,63.0,79.0
522,108.64349011666667,108.73136134375,54.0,75.0
523,108.94051961666666,109.03581658125,59.0,88.0
524,108.94051961666666,109.03952945,54.0,80.0
525,108.94051961666666,109.05933141666667,63.0,83.0
526,108.04943111666667,109.09274723541667,47.0,79.0
527,109.53457861666666,109.59893500833334,54.0,71.0
528,109.83160811666667,109.93309319583334,59.0,82.0
529,109.83160811666667,109.94051893333334,54.0,80.0
530,109.83160811666667,110.00240007916666,63.0,80.0
531,110.42566711666667,110.75239956666667,58.0,79.0
532,110.42566711666667,110.78952825416667,61.0,80.0
533,111.01972611666667,111.103884475,61.0,88.0
534,111.01972611666667,111.11378545833334,58.0,79.0
535,111.01972611666667,111.11997357291666,65.0,85.0
536,110.72269661666667,111.5568544625,53.0,68.0
537,111.31675561666667,111.69299298333334,58.0,80.0
538,111.31675561666667,111.70289396666666,61.0,84.0
539,111.31675561666667,111.70660683541666,65.0,86.0
540,111.91081461666667,112.24125993541666,58.0,80.0
541,110.42566711666667,112.24497280416666,46.0,80.0
542,111.91081461666667,112.28952722916667,61.0,85.0
543,112.20784411666666,112.33160640833333,53.0,81.0
544,112.50487361666667,112.61997254791667,58.0,79.0
545,112.80190311666667,113.212793925,63.0,76.0
546,112.80190311666667,113.24868498958334,56.0,75.0
547,113.39596211666667,113.50982342500001,56.0,75.0
548,113.39596211666667,113.50982342500001,59.0,74.0
549,113.69299161666667,113.81922915416666,56.0,81.0
550,113.69299161666667,113.83160538333334,63.0,85.0
551,114.28705061666668,114.44299110416667,56.0,83.0
552,114.58408011666667,114.7127929,56.0,79.0
553,114.58408011666667,114.74002060416667,68.0,80.0
554,113.09893261666667,115.00610953125,51.0,66.0
555,112.80190311666667,115.02962436666667,44.0,81.0
556,114.88110961666666,115.03705010416667,56.0,79.0
557,115.17813911666667,115.30313903125,56.0,75.0
558,115.17813911666667,115.52096066458334,61.0,79.0
559,115.47516861666666,115.59150517083333,56.0,79.0
560,115.77219811666667,115.91823762083334,56.0,85.0
561,115.17813911666667,115.92566335833334,49.0,86.0
562,115.77219811666667,115.9825940125,65.0,84.0
563,116.06922761666667,116.24125720208333,56.0,80.0
564,116.66328661666667,117.044474475,56.0,82.0
565,116.66328661666667,117.04571209791666,61.0,84.0
566,116.36625711666667,117.36254356458333,49.0,83.0
567,117.25734561666667,117.40709798958333,56.0,64.0
568,117.25734561666667,117.41328610416667,61.0,77.0
569,117.25734561666667,117.41699897291667,65.0,77.0
570,117.55437511666666,117.95165207291667,58.0,75.0
571,117.55437511666666,118.19051329583334,61.0,79.0
572,118.14843411666666,119.26353236458334,58.0,78.0
573,119.33655211666667,119.41452236041667,58.0,71.0
574,117.85140461666667,119.42194809791667,49.0,69.0
575,118.44546361666667,119.45041342500001,66.0,84.0
576,117.55437511666666,119.48011637500001,42.0,81.0
577,119.33655211666667,119.60140342083334,61.0,81.0
578,119.93061111666667,120.1410070125,56.0,75.0
579,119.93061111666667,120.44051175833333,65.0,82.0
580,120.22764061666666,120.59026413125,56.0,75.0
581,120.52467011666667,120.67070962083334,61.0,75.0
582,120.82169961666666,121.54323377708333,56.0,81.0
583,120.82169961666666,121.59892680833333,65.0,84.0
584,119.93061111666667,121.78333262291667,49.0,82.0
585,121.71278811666667,121.88481770208334,56.0,82.0
586,121.71278811666667,121.94298597916666,61.0,83.0
587,122.30684711666667,122.49125293125,58.0,74.0
588,122.30684711666667,122.92813382083334,66.0,79.0
589,122.60387661666667,123.103876275,58.0,76.0
590,122.90090611666668,123.10758914375,63.0,84.0
591,122.30684711666667,124.05932116666666,51.0,88.0
592,123.19793561666667,124.10263796875,66.0,80.0
593,123.19793561666667,124.11872706666666,58.0,80.0
594,124.08902411666666,124.37986550208333,63.0,82.0
595,124.38605361666667,124.54199410416666,58.0,74.0
596,124.68308311666667,124.87862753750001,56.0,82.0
597,124.68308311666667,125.28085498541667,65.0,82.0
598,124.98011261666667,125.39842916250001,56.0,78.0
599,125.27714211666667,125.40709252291667,61.0,78.0
600,124.68308311666667,126.28704241666667,49.0,80.0
601,125.57417161666667,126.44050765833333,65.0,84.0
602,125.57417161666667,126.49248782083333,56.0,83.0
603,126.46526011666667,126.55931945833333,61.0,84.0
604,127.05931911666667,127.23877443958334,54.0,74.0
605,127.05931911666667,127.70412065625,63.0,79.0
606,127.35634861666666,127.75733844166668,54.0,79.0
607,127.65337811666667,127.78827901458334,59.0,80.0
608,127.95040761666667,128.62614972916666,54.0,83.0
609,127.05931911666667,128.91699111458334,47.0,85.0
610,128.84149611666666,128.98382275208334,54.0,80.0
611,128.84149611666666,128.99619898125,59.0,84.0
612,127.95040761666667,129.014763325,63.0,82.0
613,129.43555511666668,129.58530748958333,58.0,79.0
614,129.43555511666668,129.77095092708333,61.0,81.0
615,129.73258461666666,130.17070312916667,58.0,74.0
616,130.02961411666666,130.27466345416667,61.0,78.0
617,130.32664361666667,131.07045498958334,61.0,79.0
618,130.32664361666667,131.15461334791667,66.0,82.0
619,129.43555511666668,131.30807858958335,42.0,79.0
620,131.21773211666667,131.361296375,61.0,85.0
621,131.21773211666667,131.38852407916667,58.0,80.0
622,131.81179111666668,132.4380283125,56.0,79.0
623,131.81179111666668,132.45411741041667,59.0,73.0
624,132.40585011666667,132.55065199791667,63.0,80.0
625,132.70287961666668,132.93307747916666,68.0,79.0
626,132.70287961666668,133.01599821458333,56.0,81.0
627,133.29693861666667,134.00114605625,56.0,80.0
628,132.10882061666666,134.0271361375,51.0,73.0
629,133.29693861666667,134.05188859583333,63.0,80.0
630,131.81179111666668,134.0716905625,44.0,80.0
631,134.18802711666666,134.32787850625002,56.0,79.0
632,134.18802711666666,134.539512025,61.0,79.0
633,134.48505661666667,134.8291157875,56.0,79.0
634,134.78208611666668,134.88604644166668,61.0,76.0
635,135.07911561666666,135.25114520208334,65.0,85.0
636,135.07911561666666,135.25733331666666,56.0,81.0
637,135.67317461666667,135.83035272708332,56.0,78.0
638,135.67317461666667,136.06426345833333,61.0,80.0
639,135.97020411666668,136.32292664791666,56.0,81.0
640,136.26723361666666,136.49248098750002,61.0,76.0
641,134.18802711666666,136.54446115,49.0,81.0
642,136.56426311666667,136.96154007291668,58.0,75.0
643,136.56426311666667,137.20040129583333,61.0,79.0
644,137.15832211666668,138.27342036458333,58.0,78.0
645,138.34644011666666,138.42441036041666,58.0,71.0
646,136.86129261666667,138.43183609791666,49.0,69.0
647,137.45535161666666,138.460301425,66.0,84.0
648,136.56426311666667,138.490004375,42.0,81.0
649,138.34644011666666,138.61129142083334,61.0,81.0
650,138.94049911666667,139.1508950125,56.0,75.0
651,138.94049911666667,139.45039975833333,65.0,82.0
652,139.23752861666668,139.60015213125,56.0,75.0
653,139.53455811666666,139.68059762083334,61.0,75.0
654,139.83158761666667,140.55312177708333,56.0,81.0
655,139.83158761666667,140.60881480833334,65.0,84.0
656,138.94049911666667,140.79322062291666,49.0,82.0
657,140.72267611666666,140.89470570208334,56.0,82.0
658,140.72267611666666,140.95287397916667,61.0,83.0
659,141.31673511666668,141.50114093125,58.0,74.0
660,141.31673511666668,141.93802182083334,66.0,79.0
661,141.61376461666666,142.113764275,58.0,76.0
662,141.91079411666666,142.11747714375,63.0,84.0
663,141.31673511666668,143.06920916666667,51.0,88.0
664,142.20782361666667,143.11252596875,66.0,80.0
665,142.20782361666667,143.12861506666667,58.0,80.0
666,143.09891211666667,143.38975350208332,63.0,82.0
667,143.39594161666668,143.55188210416668,58.0,74.0
668,143.69297111666668,143.8885155375,56.0,82.0
669,143.69297111666668,144.29074298541667,65.0,82.0
670,143.99000061666666,144.4083171625,56.0,78.0
671,144.28703011666667,144.41698052291667,61.0,78.0
672,143.69297111666668,145.29693041666667,49.0,80.0
673,144.58405961666668,145.45039565833335,65.0,84.0
674,144.58405961666668,145.50237582083332,56.0,83.0
675,145.47514811666667,145.56920745833332,61.0,84.0
676,146.06920711666666,146.24866243958334,54.0,74.0
677,146.06920711666666,146.71400865625,63.0,79.0
678,146.36623661666667,146.76722644166668,54.0,79.0
679,146.66326611666668,146.79816701458333,59.0,80.0
680,146.96029561666666,147.63603772916667,54.0,83.0
681,146.06920711666666,147.92687911458333,47.0,85.0
682,147.85138411666668,147.99371075208333,54.0,80.0
683,147.85138411666668,148.00608698125,59.0,84.0
684,146.96029561666666,148.024651325,63.0,82.0
685,148.44544311666667,148.59519548958335,58.0,79.0
686,148.44544311666667,148.78083892708332,61.0,81.0
687,148.74247261666667,149.18059112916666,58.0,74.0
688,149.03950211666668,149.28455145416666,61.0,78.0
689,149.33653161666666,150.08034298958333,61.0,79.0
690,149.33653161666666,150.16450134791668,66.0,82.0
691,148.44544311666667,150.31796658958334,42.0,79.0
692,150.22762011666666,150.371184375,61.0,85.0
693,150.22762011666666,150.39841207916666,58.0,80.0
694,150.82167911666667,151.4479163125,56.0,79.0
695,150.82167911666667,151.46400541041666,59.0,73.0
696,151.41573811666666,151.56053999791666,63.0,80.0
697,151.71276761666667,151.94296547916667,68.0,79.0
698,151.71276761666667,152.02588621458332,56.0,81.0
699,152.30682661666668,153.01103405625,56.0,80.0
700,151.11870861666668,153.0370241375,51.0,73.0
701,152.30682661666668,153.06177659583332,63.0,80.0
702,150.82167911666667,153.0815785625,44.0,80.0
703,153.19791511666668,153.33776650625,56.0,79.0
704,153.19791511666668,153.549400025,61.0,79.0
705,153.49494461666666,153.8390037875,56.0,79.0
706,153.79197411666667,153.89593444166667,61.0,76.0
707,154.08900361666667,154.26103320208333,65.0,85.0
708,154.08900361666667,154.26722131666668,56.0,81.0
709,154.68306261666666,154.84024072708334,56.0,78.0
710,154.68306261666666,155.07415145833335,61.0,80.0
711,154.98009211666667,155.33281464791668,56.0,81.0
712,155.27712161666668,155.5023689875,61.0,76.0
713,153.19791511666668,155.55434915,49.0,81.0
714,155.57415111666666,155.98875479375,61.0,79.0
715,155.57415111666666,156.01350725208334,58.0,77.0
716,156.16821011666667,156.341477325,66.0,82.0
717,156.16821011666667,156.34271494791668,58.0,81.0
718,155.87118061666666,156.668209775,49.0,72.0
719,155.57415111666666,156.70781370833333,42.0,81.0
720,156.61375436666668,156.72637805208333,61.0,86.0
721,156.61375436666668,156.7350414125,58.0,80.0
722,156.61375436666668,156.74370477291666,66.0,81.0
723,157.05929861666667,157.39840729583332,66.0,75.0
724,157.05929861666667,157.425635,58.0,77.0
725,157.05929861666667,157.43058549166668,61.0,79.0
726,157.05929861666667,157.74989220416666,42.0,80.0
727,157.65335761666668,157.77959515416666,61.0,82.0
728,157.65335761666668,157.80682285833333,58.0,80.0
729,157.65335761666668,157.84271392291666,66.0,74.0
730,157.95038711666666,158.39345612083335,65.0,79.0
731,157.95038711666666,158.40211948125,61.0,75.0
732,157.95038711666666,158.41078284166667,56.0,78.0
733,157.95038711666666,158.66820840833333,49.0,84.0
734,158.54444611666668,158.70657471875,65.0,90.0
735,158.54444611666668,158.70904996458333,61.0,93.0
736,158.54444611666668,158.75236676666668,56.0,83.0
737,158.98999036666666,159.12241601875002,65.0,81.0
738,158.98999036666666,159.12984175625002,61.0,83.0
739,158.98999036666666,159.14964372291666,56.0,80.0
740,159.13850511666666,159.59890084166668,49.0,80.0
741,159.43553461666667,159.75855419791668,65.0,85.0
742,159.43553461666667,159.79073239375,61.0,85.0
743,159.43553461666667,159.80310862291668,56.0,83.0
744,160.02959361666666,160.17192025208334,56.0,81.0
745,160.02959361666666,160.17687074375002,61.0,82.0
746,160.02959361666666,160.19543508750002,65.0,80.0
747,160.32662311666667,160.72390007291668,63.0,76.0
748,160.32662311666667,160.7746426125,58.0,73.0
749,160.32662311666667,160.84394949583333,51.0,85.0
750,160.92068211666668,161.11375129166666,66.0,80.0
751,160.92068211666668,161.14345424166666,63.0,84.0
752,160.92068211666668,161.21152350208334,58.0,80.0
753,161.36622636666667,161.56795890208335,63.0,81.0
754,161.36622636666667,161.56795890208335,66.0,80.0
755,161.36622636666667,161.5914737375,58.0,78.0
756,161.51474111666667,162.05063183958333,51.0,79.0
757,161.81177061666668,162.20904757291666,66.0,80.0
758,161.81177061666668,162.21647331041666,63.0,81.0
759,161.81177061666668,162.22513667083334,58.0,80.0
760,162.40582961666667,162.51102756458334,63.0,80.0
761,162.40582961666667,162.56053248125,66.0,79.0
762,162.40582961666667,162.56177010416667,58.0,79.0
763,162.70285911666667,163.16077959583333,56.0,79.0
764,162.70285911666667,163.173155825,65.0,79.0
765,162.70285911666667,163.40459131041666,49.0,79.0
766,163.29691811666666,163.5073140125,61.0,81.0
767,163.29691811666666,163.55805655208334,56.0,81.0
768,163.74246236666667,163.960284,65.0,85.0
769,163.74246236666667,163.98627408125,56.0,85.0
770,163.89097711666668,164.15954128958333,49.0,96.0
771,164.18800661666668,164.56424398333334,61.0,86.0
772,164.18800661666668,164.59023406458334,56.0,80.0
773,164.78206561666667,164.87612495833335,65.0,81.0
774,164.78206561666667,164.8885011875,61.0,81.0
775,164.78206561666667,164.93058036666667,56.0,80.0
776,165.07909511666668,165.41944141875,61.0,78.0
777,165.07909511666668,165.52463936666666,54.0,76.0
778,165.07909511666668,165.52587698958334,63.0,71.0
779,165.07909511666668,165.52711461250001,59.0,72.0
780,165.67315411666667,165.91201533958335,59.0,84.0
781,165.67315411666667,165.92439156875,63.0,82.0
782,165.67315411666667,165.9281044375,54.0,82.0
783,165.07909511666668,166.09270828541668,47.0,83.0
784,166.11869836666668,166.33404475416668,54.0,79.0
785,166.11869836666668,166.35632196666666,63.0,80.0
786,166.11869836666668,166.36374770416666,59.0,80.0
787,166.26721311666668,166.72389597291667,47.0,79.0
788,166.56424261666666,166.94790572083335,54.0,79.0
789,166.56424261666666,166.975133425,59.0,83.0
790,166.86127211666667,166.98503440833335,47.0,73.0
791,167.15830161666668,167.26721243333333,54.0,65.0
792,167.15830161666668,167.28948964583333,59.0,75.0
793,167.45533111666666,167.85755856458334,61.0,79.0
794,167.45533111666666,167.87488528541667,58.0,72.0
795,168.04939011666667,168.21646921041668,65.0,84.0
796,168.04939011666667,168.22513257083332,61.0,88.0
797,168.04939011666667,168.23379593125,58.0,80.0
798,167.45533111666666,168.3043404375,46.0,80.0
799,168.49493436666668,168.66448870625,61.0,76.0
800,168.49493436666668,168.66448870625,65.0,80.0
801,168.49493436666668,168.68305305,58.0,75.0
802,168.64344911666666,169.11622107083335,46.0,71.0
803,168.94047861666667,169.28082491875,65.0,83.0
804,168.94047861666667,169.31795360625,61.0,80.0
805,168.94047861666667,169.32661696666668,58.0,81.0
806,169.53453761666668,169.6261217125,65.0,78.0
807,169.53453761666668,169.63726031875,61.0,80.0
808,169.53453761666668,169.67191376041666,58.0,78.0
809,169.83156711666666,170.16201243541667,63.0,77.0
810,169.83156711666666,170.19171538541667,56.0,76.0
811,169.83156711666666,170.19542825416667,59.0,72.0
812,170.42562611666668,170.57909135833333,59.0,90.0
813,170.42562611666668,170.58032898125,63.0,85.0
814,170.42562611666668,170.58651709583333,56.0,84.0
815,169.83156711666666,170.61003193125,44.0,80.0
816,170.87117036666666,171.02339798541666,63.0,75.0
817,170.87117036666666,171.04196232916667,59.0,72.0
818,170.87117036666666,171.05062568958334,56.0,72.0
819,171.31671461666667,171.55310059375,63.0,85.0
820,171.31671461666667,171.69295198333333,56.0,84.0
821,171.31671461666667,171.72389255625,59.0,86.0
822,171.91077361666666,172.02463492500002,59.0,81.0
823,171.01968511666666,172.02834779375002,51.0,73.0
824,171.91077361666666,172.06300123541666,56.0,78.0
825,171.91077361666666,172.07661508750002,63.0,80.0
826,171.01968511666666,172.08899131666666,44.0,75.0
827,172.20780311666667,172.58775335208333,61.0,80.0
828,172.20780311666667,172.59022859791668,56.0,79.0
829,172.80186211666668,172.9528521125,65.0,90.0
830,172.80186211666668,172.97141645625,61.0,93.0
831,172.80186211666668,172.98750555416666,56.0,84.0
832,172.20780311666667,172.99493129166666,49.0,83.0
833,173.24740636666667,173.48874283541667,65.0,80.0
834,173.24740636666667,173.49988144166667,61.0,80.0
835,173.24740636666667,173.50730717916667,56.0,77.0
836,173.39592111666667,173.9181979875,49.0,88.0
837,173.98998011666666,174.03205929583333,49.0,71.0
838,173.69295061666668,174.10507904791666,61.0,90.0
839,173.69295061666668,174.11374240833334,56.0,82.0
840,173.69295061666668,174.11745527708334,65.0,88.0
841,174.28700961666667,174.51101936458335,56.0,80.0
842,174.28700961666667,174.52463321666667,61.0,81.0
843,174.28700961666667,174.5419599375,49.0,82.0
844,174.58403911666667,174.99864279375,61.0,79.0
845,174.58403911666667,175.02339525208333,58.0,77.0
846,175.17809811666666,175.351365325,66.0,82.0
847,175.17809811666666,175.35260294791667,58.0,81.0
848,174.88106861666668,175.678097775,49.0,72.0
849,174.58403911666667,175.71770170833332,42.0,81.0
850,175.62364236666667,175.73626605208332,61.0,86.0
851,175.62364236666667,175.7449294125,58.0,80.0
852,175.62364236666667,175.75359277291668,66.0,81.0
853,176.06918661666666,176.40829529583334,66.0,75.0
854,176.06918661666666,176.435523,58.0,77.0
855,176.06918661666666,176.44047349166667,61.0,79.0
856,176.06918661666666,176.75978020416667,42.0,80.0
857,176.66324561666667,176.78948315416667,61.0,82.0
858,176.66324561666667,176.81671085833332,58.0,80.0
859,176.66324561666667,176.85260192291668,66.0,74.0
860,176.96027511666668,177.40334412083334,65.0,79.0
861,176.96027511666668,177.41200748125001,61.0,75.0
862,176.96027511666668,177.42067084166666,56.0,78.0
863,176.96027511666668,177.67809640833335,49.0,84.0
864,177.55433411666667,177.71646271875,65.0,90.0
865,177.55433411666667,177.71893796458335,61.0,93.0
866,177.55433411666667,177.76225476666667,56.0,83.0
867,177.99987836666668,178.13230401875,65.0,81.0
868,177.99987836666668,178.13972975625,61.0,83.0
869,177.99987836666668,178.15953172291668,56.0,80.0
870,178.14839311666668,178.60878884166667,49.0,80.0
871,178.44542261666666,178.76844219791667,65.0,85.0
872,178.44542261666666,178.80062039375,61.0,85.0
873,178.44542261666666,178.81299662291667,56.0,83.0
874,179.03948161666668,179.18180825208333,56.0,81.0
875,179.03948161666668,179.18675874375,61.0,82.0
876,179.03948161666668,179.2053230875,65.0,80.0
877,179.33651111666666,179.73378807291667,63.0,76.0
878,179.33651111666666,179.7845306125,58.0,73.0
879,179.33651111666666,179.85383749583335,51.0,85.0
880,179.93057011666667,180.12363929166668,66.0,80.0
881,179.93057011666667,180.15334224166668,63.0,84.0
882,179.93057011666667,180.22141150208333,58.0,80.0
883,180.37611436666668,180.57784690208334,63.0,81.0
884,180.37611436666668,180.57784690208334,66.0,80.0
885,180.37611436666668,180.6013617375,58.0,78.0
886,180.52462911666666,181.06051983958335,51.0,79.0
887,180.82165861666667,181.21893557291668,66.0,80.0
888,180.82165861666667,181.22636131041668,63.0,81.0
889,180.82165861666667,181.23502467083333,58.0,80.0
890,181.41571761666668,181.52091556458333,63.0,80.0
891,181.41571761666668,181.57042048125,66.0,79.0
892,181.41571761666668,181.57165810416666,58.0,79.0
893,181.71274711666666,182.17066759583335,56.0,79.0
894,181.71274711666666,182.183043825,65.0,79.0
895,181.71274711666666,182.41447931041668,49.0,79.0
896,182.30680611666668,182.5172020125,61.0,81.0
897,182.30680611666668,182.56794455208333,56.0,81.0
898,182.75235036666666,182.970172,65.0,85.0
899,182.75235036666666,182.99616208125,56.0,85.0
900,182.90086511666667,183.16942928958335,49.0,96.0
901,183.19789461666667,183.57413198333333,61.0,86.0
902,183.19789461666667,183.60012206458333,56.0,80.0
903,183.79195361666666,183.88601295833334,65.0,81.0
904,183.79195361666666,183.89838918750002,61.0,81.0
905,183.79195361666666,183.94046836666666,56.0,80.0
906,184.08898311666667,184.42932941875,61.0,78.0
907,184.08898311666667,184.53452736666668,54.0,76.0
908,184.08898311666667,184.53576498958333,63.0,71.0
909,184.08898311666667,184.5370026125,59.0,72.0
910,184.68304211666668,184.92190333958334,59.0,84.0
911,184.68304211666668,184.93427956875001,63.0,82.0
912,184.68304211666668,184.93799243750001,54.0,82.0
913,184.08898311666667,185.10259628541667,47.0,83.0
914,185.12858636666667,185.34393275416667,54.0,79.0
915,185.12858636666667,185.36620996666667,63.0,80.0
916,185.12858636666667,185.37363570416667,59.0,80.0
917,185.27710111666667,185.73378397291668,47.0,79.0
918,185.57413061666668,185.95779372083334,54.0,79.0
919,185.57413061666668,185.985021425,59.0,83.0
920,185.87116011666666,185.99492240833334,47.0,73.0
921,186.16818961666667,186.27710043333335,54.0,65.0
922,186.16818961666667,186.29937764583335,59.0,75.0
923,186.46521911666667,186.86744656458333,61.0,79.0
924,186.46521911666667,186.88477328541666,58.0,72.0
925,187.05927811666666,187.22635721041667,65.0,84.0
926,187.05927811666666,187.23502057083334,61.0,88.0
927,187.05927811666666,187.24368393125,58.0,80.0
928,186.46521911666667,187.3142284375,46.0,80.0
929,187.50482236666667,187.67437670625,61.0,76.0
930,187.50482236666667,187.67437670625,65.0,80.0
931,187.50482236666667,187.69294105,58.0,75.0
932,187.65333711666668,188.12610907083334,46.0,71.0
933,187.95036661666666,188.29071291875002,65.0,83.0
934,187.95036661666666,188.32784160625,61.0,80.0
935,187.95036661666666,188.33650496666667,58.0,81.0
936,188.54442561666667,188.6360097125,65.0,78.0
937,188.54442561666667,188.64714831875,61.0,80.0
938,188.54442561666667,188.68180176041668,58.0,78.0
939,188.84145511666668,189.17190043541666,63.0,77.0
940,188.84145511666668,189.20160338541666,56.0,76.0
941,188.84145511666668,189.20531625416666,59.0,72.0
942,189.43551411666667,189.58897935833335,59.0,90.0
943,189.43551411666667,189.59021698125,63.0,85.0
944,189.43551411666667,189.59640509583335,56.0,84.0
945,188.84145511666668,189.61991993125,44.0,80.0
946,189.88105836666668,190.03328598541668,63.0,75.0
947,189.88105836666668,190.05185032916668,59.0,72.0
948,189.88105836666668,190.06051368958333,56.0,72.0
949,190.32660261666666,190.56298859375,63.0,85.0
950,190.32660261666666,190.70283998333335,56.0,84.0
951,190.32660261666666,190.73378055625,59.0,86.0
952,190.92066161666668,191.034522925,59.0,81.0
953,190.02957311666668,191.03823579375,51.0,73.0
954,190.92066161666668,191.07288923541668,56.0,78.0
955,190.92066161666668,191.0865030875,63.0,80.0
956,190.02957311666668,191.09887931666668,44.0,75.0
957,191.21769111666666,191.59764135208334,61.0,80.0
958,191.21769111666666,191.60011659791667,56.0,79.0
959,191.81175011666667,191.9627401125,65.0,90.0
960,191.81175011666667,191.98130445625,61.0,93.0
961,191.81175011666667,191.99739355416668,56.0,84.0
962,191.21769111666666,192.00481929166668,49.0,83.0
963,192.25729436666666,192.49863083541666,65.0,80.0
964,192.25729436666666,192.50976944166666,61.0,80.0
965,192.25729436666666,192.51719517916666,56.0,77.0
966,192.40580911666666,192.9280859875,49.0,88.0
967,192.99986811666668,193.04194729583332,49.0,71.0
968,192.70283861666667,193.11496704791668,61.0,90.0
969,192.70283861666667,193.12363040833333,56.0,82.0
970,192.70283861666667,193.12734327708333,65.0,88.0
971,193.29689761666668,193.52090736458334,56.0,80.0
972,193.29689761666668,193.53452121666666,61.0,81.0
973,193.29689761666668,193.5518479375,49.0,82.0
974,193.59392711666666,193.93056055,61.0,77.0
975,193.59392711666666,194.25853062291668,54.0,72.0
976,194.18798611666668,194.29194644166668,58.0,75.0
977,193.89095661666667,194.61744126875,49.0,74.0
978,194.48501561666666,194.65580757916666,66.0,81.0
979,194.48501561666666,194.93427273541667,54.0,79.0
980,195.07907461666667,195.17313395833332,58.0,83.0
981,195.07907461666667,195.22016362916668,61.0,81.0
982,194.78204511666667,195.2300646125,49.0,74.0
983,193.59392711666666,195.24244084166668,42.0,81.0
984,195.97016311666667,196.1211531125,56.0,80.0
985,195.97016311666667,196.440459825,65.0,80.0
986,196.26719261666668,196.51224195416668,56.0,75.0
987,196.56422211666668,196.65209334375,61.0,75.0
988,196.86125161666666,196.97263767916667,56.0,82.0
989,196.86125161666666,196.98130103958334,65.0,86.0
990,197.45531061666668,197.68922134791666,56.0,79.0
991,197.45531061666668,197.821647,61.0,82.0
992,195.97016311666667,197.93179543958334,49.0,81.0
993,198.34639911666667,198.49243862083333,58.0,80.0
994,198.34639911666667,198.69169591041668,66.0,81.0
995,198.64342861666668,198.79936910416666,58.0,77.0
996,198.94045811666666,199.03451745833334,63.0,79.0
997,199.23748761666667,199.35258654791667,58.0,81.0
998,199.23748761666667,199.410754825,66.0,85.0
999,198.34639911666667,199.88476440208333,51.0,81.0
1000,199.83154661666666,200.06174447916666,63.0,88.0
1001,199.83154661666666,200.09516029791666,58.0,81.0
1002,200.12857611666666,200.21397209791667,51.0,81.0
1003,200.42560561666667,200.53699167916668,63.0,81.0
1004,200.42560561666667,200.54936790833332,58.0,80.0
1005,200.72263511666668,200.86991224375,56.0,79.0
1006,200.72263511666668,200.92931814375,61.0,80.0
1007,201.01966461666666,201.10753584375001,56.0,71.0
1008,201.31669411666667,201.41694157291667,56.0,80.0
1009,201.31669411666667,201.42189206458335,65.0,81.0
1010,201.61372361666668,201.72263443333333,65.0,83.0
1011,201.61372361666668,201.73253541666668,56.0,84.0
1012,200.72263511666668,202.34763400625,49.0,85.0
1013,202.20778261666666,202.46892105208335,56.0,79.0
1014,202.20778261666666,202.51718834583335,61.0,80.0
1015,202.50481211666667,202.66570309583335,49.0,70.0
1016,202.80184161666668,202.90085145,56.0,79.0
1017,203.09887111666666,203.16694037708334,59.0,68.0
1018,203.09887111666666,203.52832626875,54.0,74.0
1019,203.09887111666666,203.69169249375,63.0,79.0
1020,203.69293011666667,203.78080134375,54.0,75.0
1021,203.98995961666668,204.08525658125,59.0,88.0
1022,203.98995961666668,204.08896945,54.0,80.0
1023,203.98995961666668,204.10877141666668,63.0,83.0
1024,203.09887111666666,204.14218723541666,47.0,79.0
1025,204.58401861666667,204.64837500833335,54.0,71.0
1026,204.88104811666668,204.98253319583333,59.0,82.0
1027,204.88104811666668,204.98995893333333,54.0,80.0
1028,204.88104811666668,205.05184007916668,63.0,80.0
1029,205.47510711666666,205.80183956666667,58.0,79.0
1030,205.47510711666666,205.83896825416667,61.0,80.0
1031,206.06916611666668,206.153324475,61.0,88.0
1032,206.06916611666668,206.16322545833333,58.0,79.0
1033,206.06916611666668,206.16941357291668,65.0,85.0
1034,205.77213661666667,206.60629446250002,53.0,68.0
1035,206.36619561666666,206.74243298333334,58.0,80.0
1036,206.36619561666666,206.75233396666667,61.0,84.0
1037,206.36619561666666,206.75604683541667,65.0,86.0
1038,206.96025461666667,207.29069993541668,58.0,80.0
1039,205.47510711666666,207.29441280416668,46.0,80.0
1040,206.96025461666667,207.33896722916668,61.0,85.0
1041,207.25728411666668,207.38104640833333,53.0,81.0
1042,207.55431361666666,207.66941254791666,58.0,79.0
1043,207.85134311666667,208.262233925,63.0,76.0
1044,207.85134311666667,208.29812498958333,56.0,75.0
1045,208.44540211666666,208.559263425,56.0,75.0
1046,208.44540211666666,208.559263425,59.0,74.0
1047,208.74243161666666,208.86866915416667,56.0,81.0
1048,208.74243161666666,208.88104538333334,63.0,85.0
1049,209.33649061666668,209.49243110416668,56.0,83.0
1050,209.63352011666666,209.76223290000001,56.0,79.0
1051,209.63352011666666,209.78946060416666,68.0,80.0
1052,208.14837261666668,210.05554953125,51.0,66.0
1053,207.85134311666667,210.07906436666667,44.0,81.0
1054,209.93054961666667,210.08649010416667,56.0,79.0
1055,210.22757911666667,210.35257903125,56.0,75.0
1056,210.22757911666667,210.57040066458333,61.0,79.0
1057,210.52460861666668,210.64094517083333,56.0,79.0
1058,210.82163811666666,210.96767762083334,56.0,85.0
1059,210.22757911666667,210.97510335833334,49.0,86.0
1060,210.82163811666666,211.0320340125,65.0,84.0
1061,211.11866761666667,211.29069720208335,56.0,80.0
1062,211.71272661666666,212.093914475,56.0,82.0
1063,211.71272661666666,212.09515209791667,61.0,84.0
1064,211.41569711666668,212.41198356458332,49.0,83.0
1065,212.30678561666667,212.45653798958332,56.0,64.0
1066,212.30678561666667,212.46272610416668,61.0,77.0
1067,212.30678561666667,212.46643897291668,65.0,77.0
1068,212.60381511666668,213.01841879375002,61.0,79.0
1069,212.60381511666668,213.04317125208334,58.0,77.0
1070,213.19787411666667,213.371141325,66.0,82.0
1071,213.19787411666667,213.37237894791667,58.0,81.0
1072,212.90084461666666,213.697873775,49.0,72.0
1073,212.60381511666668,213.73747770833333,42.0,81.0
1074,213.64341836666668,213.75604205208333,61.0,86.0
1075,213.64341836666668,213.7647054125,58.0,80.0
1076,213.64341836666668,213.77336877291668,66.0,81.0
1077,214.08896261666666,214.42807129583335,66.0,75.0
1078,214.08896261666666,214.455299,58.0,77.0
1079,214.08896261666666,214.46024949166667,61.0,79.0
1080,214.08896261666666,214.77955620416668,42.0,80.0
1081,214.68302161666668,214.80925915416668,61.0,82.0
1082,214.68302161666668,214.83648685833333,58.0,80.0
1083,214.68302161666668,214.87237792291668,66.0,74.0
1084,214.98005111666666,215.42312012083335,65.0,79.0
1085,214.98005111666666,215.43178348125,61.0,75.0
1086,214.98005111666666,215.44044684166667,56.0,78.0
1087,214.98005111666666,215.69787240833332,49.0,84.0
1088,215.57411011666667,215.73623871875,65.0,90.0
1089,215.57411011666667,215.73871396458333,61.0,93.0
1090,215.57411011666667,215.78203076666668,56.0,83.0
1091,216.01965436666666,216.15208001875,65.0,81.0
1092,216.01965436666666,216.15950575625,61.0,83.0
1093,216.01965436666666,216.17930772291666,56.0,80.0
1094,216.16816911666666,216.62856484166667,49.0,80.0
1095,216.46519861666667,216.78821819791668,65.0,85.0
1096,216.46519861666667,216.82039639375,61.0,85.0
1097,216.46519861666667,216.83277262291668,56.0,83.0
1098,217.05925761666668,217.20158425208334,56.0,81.0
1099,217.05925761666668,217.20653474375,61.0,82.0
1100,217.05925761666668,217.2250990875,65.0,80.0
1101,217.35628711666666,217.75356407291667,63.0,76.0
1102,217.35628711666666,217.8043066125,58.0,73.0
1103,217.35628711666666,217.87361349583333,51.0,85.0
1104,217.95034611666668,218.14341529166668,66.0,80.0
1105,217.95034611666668,218.17311824166666,63.0,84.0
1106,217.95034611666668,218.24118750208333,58.0,80.0
1107,218.39589036666666,218.59762290208334,63.0,81.0
1108,218.39589036666666,218.59762290208334,66.0,80.0
1109,218.39589036666666,218.6211377375,58.0,78.0
1110,218.54440511666667,219.08029583958333,51.0,79.0
1111,218.84143461666667,219.23871157291666,66.0,80.0
1112,218.84143461666667,219.24613731041666,63.0,81.0
1113,218.84143461666667,219.25480067083333,58.0,80.0
1114,219.43549361666666,219.54069156458334,63.0,80.0
1115,219.43549361666666,219.59019648125,66.0,79.0
1116,219.43549361666666,219.59143410416667,58.0,79.0
1117,219.73252311666667,220.19044359583333,56.0,79.0
1118,219.73252311666667,220.202819825,65.0,79.0
1119,219.73252311666667,220.43425531041666,49.0,79.0
1120,220.32658211666666,220.53697801250001,61.0,81.0
1121,220.32658211666666,220.58772055208334,56.0,81.0
1122,220.77212636666667,220.989948,65.0,85.0
1123,220.77212636666667,221.01593808125,56.0,85.0
1124,220.92064111666667,221.18920528958333,49.0,96.0
1125,221.21767061666668,221.59390798333334,61.0,86.0
1126,221.21767061666668,221.61989806458334,56.0,80.0
1127,221.81172961666667,221.90578895833335,65.0,81.0
1128,221.81172961666667,221.9181651875,61.0,81.0
1129,221.81172961666667,221.96024436666667,56.0,80.0
1130,222.10875911666668,222.44910541875,61.0,78.0
1131,222.10875911666668,222.55430336666666,54.0,76.0
1132,222.10875911666668,222.55554098958333,63.0,71.0
1133,222.10875911666668,222.5567786125,59.0,72.0
1134,222.70281811666666,222.94167933958335,59.0,84.0
1135,222.70281811666666,222.95405556875,63.0,82.0
1136,222.70281811666666,222.9577684375,54.0,82.0
1137,222.10875911666668,223.12237228541667,47.0,83.0
1138,223.14836236666667,223.36370875416668,54.0,79.0
1139,223.14836236666667,223.38598596666668,63.0,80.0
1140,223.14836236666667,223.39341170416668,59.0,80.0
1141,223.29687711666668,223.75355997291666,47.0,79.0
1142,223.59390661666666,223.97756972083334,54.0,79.0
1143,223.59390661666666,224.004797425,59.0,83.0
1144,223.89093611666667,224.01469840833335,47.0,73.0
1145,224.18796561666667,224.29687643333332,54.0,65.0
1146,224.18796561666667,224.31915364583332,59.0,75.0
1147,224.48499511666668,224.88722256458334,61.0,79.0
1148,224.48499511666668,224.90454928541666,58.0,72.0
1149,225.07905411666667,225.24613321041667,65.0,84.0
1150,225.07905411666667,225.25479657083335,61.0,88.0
1151,225.07905411666667,225.26345993125,58.0,80.0
1152,224.48499511666668,225.3340044375,46.0,80.0
1153,225.52459836666668,225.69415270625,61.0,76.0
1154,225.52459836666668,225.69415270625,65.0,80.0
1155,225.52459836666668,225.71271705,58.0,75.0
1156,225.67311311666668,226.14588507083334,46.0,71.0
1157,225.97014261666666,226.31048891875,65.0,83.0
1158,225.97014261666666,226.34761760625,61.0,80.0
1159,225.97014261666666,226.35628096666667,58.0,81.0
1160,226.56420161666668,226.6557857125,65.0,78.0
1161,226.56420161666668,226.66692431875,61.0,80.0
1162,226.56420161666668,226.70157776041668,58.0,78.0
1163,226.86123111666666,227.19167643541667,63.0,77.0
1164,226.86123111666666,227.22137938541667,56.0,76.0
1165,226.86123111666666,227.22509225416667,59.0,72.0
1166,227.45529011666667,227.60875535833333,59.0,90.0
1167,227.45529011666667,227.60999298125,63.0,85.0
1168,227.45529011666667,227.61618109583333,56.0,84.0
1169,226.86123111666666,227.63969593125,44.0,80.0
1170,227.90083436666666,228.05306198541666,63.0,75.0
1171,227.90083436666666,228.07162632916666,59.0,72.0
1172,227.90083436666666,228.08028968958334,56.0,72.0
1173,228.34637861666667,228.58276459375,63.0,85.0
1174,228.34637861666667,228.72261598333333,56.0,84.0
1175,228.34637861666667,228.75355655625,59.0,86.0
1176,228.94043761666666,229.054298925,59.0,81.0
1177,228.04934911666666,229.05801179375,51.0,73.0
1178,228.94043761666666,229.09266523541666,56.0,78.0
1179,228.94043761666666,229.1062790875,63.0,80.0
1180,228.04934911666666,229.11865531666666,44.0,75.0
1181,229.23746711666666,229.61741735208335,61.0,80.0
1182,229.23746711666666,229.61989259791667,56.0,79.0
1183,229.83152611666668,229.9825161125,65.0,90.0
1184,229.83152611666668,230.00108045625,61.0,93.0
1185,229.83152611666668,230.01716955416668,56.0,84.0
1186,229.23746711666666,230.02459529166666,49.0,83.0
1187,230.27707036666666,230.51840683541667,65.0,80.0
1188,230.27707036666666,230.52954544166667,61.0,80.0
1189,230.27707036666666,230.53697117916667,56.0,77.0
1190,230.42558511666667,230.9478619875,49.0,88.0
1191,231.01964411666668,231.06172329583333,49.0,71.0
1192,230.72261461666668,231.13474304791666,61.0,90.0
1193,230.72261461666668,231.14340640833333,56.0,82.0
1194,230.72261461666668,231.14711927708333,65.0,88.0
1195,231.31667361666666,231.54068336458334,56.0,80.0
1196,231.31667361666666,231.55429721666667,61.0,81.0
1197,231.31667361666666,231.5716239375,49.0,82.0
1198,231.61370311666667,232.37484121041666,37.0,76.0
1199,231.61370311666667,232.826573575,61.0,75.0
1200,231.61370311666667,232.83152406666667,56.0,73.0
1201,234.58399811666666,235.45652227291666,54.0,85.0
1202,234.88102761666667,235.49612620625,58.0,81.0
1203,235.17805711666668,235.559244975,61.0,79.0
1204,235.47508661666666,235.62731423541666,66.0,79.0
1205,235.77211611666667,235.96518529166667,66.0,66.0
1206,235.77211611666667,236.00850209375,70.0,75.0
1207,236.06914561666667,236.2052841375,66.0,71.0
1208,236.06914561666667,236.212709875,73.0,60.0
1209,233.98993911666668,236.301818725,42.0,83.0
1210,234.28696861666668,236.301818725,49.0,78.0
1211,236.36617511666668,237.757263275,42.0,80.0
1212,236.36617511666668,237.83152065000002,78.0,76.0
1213,236.36617511666668,237.84018401041666,66.0,65.0
