,start,end,pitch,velocity
0,48.08923762500001,48.51780862500001,70.0,114.0
1,48.51780862500001,48.944593912500004,73.0,110.0
2,48.946379625000006,49.374950625000004,73.0,110.0
3,49.374950625000004,49.80173591250001,75.0,110.0
4,49.80352162500001,50.23209262500001,75.0,110.0
5,50.23209262500001,50.65887791250001,77.0,104.0
6,50.660663625000005,51.08923462500001,77.0,114.0
7,51.08923462500001,51.51780562500001,82.0,110.0
8,51.51780562500001,52.80351862500001,80.0,113.0
9,52.80351862500001,53.23208962500001,77.0,108.0
10,53.23208962500001,54.94637362500001,75.0,104.0
11,54.94637362500001,55.374944625000005,70.0,110.0
12,55.374944625000005,55.80172991250001,73.0,98.0
13,55.80351562500001,56.23208662500001,73.0,96.0
14,56.23208662500001,56.658871912500004,75.0,108.0
15,56.660657625000006,57.089228625000004,75.0,107.0
16,57.089228625000004,57.51601391250001,77.0,102.0
17,57.51779962500001,58.374941625000005,77.0,107.0
18,58.374941625000005,59.23208362500001,70.0,113.0
19,59.23208362500001,61.80350962500001,68.0,104.0
20,61.80350962500001,62.23208062500001,70.0,113.0
21,62.23208062500001,62.658865912500005,73.0,110.0
22,62.66065162500001,63.089222625000005,73.0,110.0
23,63.089222625000005,63.51600791250001,75.0,107.0
24,63.51779362500001,63.94636462500001,75.0,110.0
25,63.94636462500001,64.37314991250001,77.0,104.0
26,64.374935625,64.80350662500001,77.0,107.0
27,64.80350662500001,65.232077625,82.0,108.0
28,65.232077625,66.517790625,80.0,113.0
29,66.517790625,66.94636162500001,77.0,114.0
30,66.94636162500001,68.6588599125,75.0,113.0
31,68.66064562500002,69.089216625,75.0,113.0
32,69.089216625,69.51778762500001,77.0,88.0
33,69.51778762500001,70.37492962500001,70.0,93.0
34,70.37492962500001,70.80350062500001,75.0,110.0
35,70.80350062500001,71.232071625,77.0,91.0
36,71.232071625,71.66064262500001,70.0,94.0
37,71.66064262500001,72.08921362500001,68.0,102.0
38,72.08921362500001,74.6588539125,70.0,92.0
39,74.66063962500002,75.110639175,70.0,108.0
40,75.089210625,75.51778162500001,73.0,98.0
41,75.51778162500001,76.80349462500001,75.0,107.0
42,76.80349462500001,77.232065625,73.0,108.0
43,77.232065625,78.08920762500001,70.0,107.0
44,78.08920762500001,78.5427786,70.0,113.0
45,78.517778625,78.94634962500001,73.0,98.0
46,78.94634962500001,80.23206262500001,75.0,108.0
47,80.23206262500001,80.66063362500002,73.0,94.0
48,80.66063362500002,81.5159899125,77.0,102.0
49,81.51777562500001,81.946346625,77.0,110.0
50,81.946346625,82.37491762500001,80.0,107.0
51,82.37491762500001,83.23027391250001,82.0,110.0
52,83.232059625,83.66063062500001,82.0,110.0
53,83.66063062500001,84.08920162500002,80.0,102.0
54,84.08920162500002,84.5284869,77.0,107.0
55,84.517772625,84.95170076250001,75.0,100.0
56,84.94634362500001,85.80348562500001,73.0,100.0
57,85.80348562500001,86.66062762500002,75.0,108.0
58,86.66062762500002,88.37491162500001,77.0,98.0
59,88.37491162500001,88.80348262500002,70.0,104.0
60,88.80348262500002,89.232053625,73.0,104.0
61,89.232053625,90.51776662500001,75.0,107.0
62,90.51776662500001,90.94633762500001,73.0,104.0
63,90.94633762500001,91.80169391250001,70.0,92.0
64,91.80347962500001,92.24276490000001,70.0,110.0
65,92.23205062500001,92.66062162500002,73.0,102.0
66,92.66062162500002,93.51776362500001,75.0,107.0
67,93.51776362500001,94.37490562500001,73.0,107.0
68,94.37490562500001,96.08918962500002,77.0,108.0
69,96.08918962500002,96.51776062500001,75.0,113.0
70,96.51776062500001,96.94633162500001,77.0,90.0
71,96.94633162500001,97.80347362500001,70.0,104.0
72,97.80347362500001,98.23204462500001,75.0,114.0
73,98.23204462500001,98.66061562500002,77.0,88.0
74,98.66061562500002,99.08918662500001,70.0,98.0
75,99.08918662500001,99.52311476250001,68.0,89.0
76,99.51775762500002,102.08918362500002,70.0,94.0
77,102.08918362500002,102.55704030000001,77.0,117.0
78,102.51775462500001,102.94632562500001,80.0,119.0
79,102.94632562500001,104.23203862500002,85.0,114.0
80,104.23203862500002,104.66060962500002,84.0,108.0
81,104.66060962500002,105.51596591250001,77.0,108.0
82,105.51775162500002,105.94632262500001,77.0,110.0
83,105.94632262500001,106.37489362500001,75.0,110.0
84,106.37489362500001,107.23024991250001,73.0,110.0
85,107.23203562500001,107.69632087500001,73.0,110.0
86,107.66060662500001,108.13560615000002,75.0,108.0
87,108.08917762500002,108.94453391250002,77.0,110.0
88,108.94631962500002,109.37489062500002,77.0,108.0
89,109.37489062500002,109.83203302500002,75.0,108.0
90,109.80346162500001,110.66060362500002,73.0,110.0
91,110.66060362500002,111.08917462500001,82.0,110.0
92,111.08917462500001,111.56953128750001,85.0,114.0
93,111.51774562500002,111.94631662500001,84.0,110.0
94,111.94631662500001,112.43917327500002,82.0,113.0
95,112.37488762500001,112.80345862500002,80.0,114.0
96,112.80345862500002,113.23202962500001,75.0,114.0
97,113.23202962500001,115.80166991250002,77.0,107.0
98,115.80345562500001,116.23202662500002,77.0,104.0
99,116.23202662500002,116.66059762500001,80.0,114.0
100,116.66059762500001,117.94631062500001,85.0,113.0
101,117.94631062500001,118.37488162500001,84.0,117.0
102,118.37488162500001,119.23023791250002,77.0,114.0
103,119.23202362500001,119.66059462500002,77.0,107.0
104,119.66059462500002,120.09630847500001,75.0,104.0
105,120.08916562500002,120.94452191250002,73.0,107.0
106,120.94630762500002,121.38916432500001,73.0,108.0
107,121.37487862500002,121.80344962500001,75.0,104.0
108,121.80344962500001,123.51773362500002,77.0,108.0
109,123.51773362500002,123.94630462500001,75.0,113.0
110,123.94630462500001,124.37487562500002,77.0,102.0
111,124.37487562500002,125.23201762500001,70.0,104.0
112,125.23201762500001,125.66058862500002,75.0,110.0
113,125.66058862500002,126.12844530000001,77.0,88.0
114,126.08915962500002,126.53915917500002,70.0,100.0
115,126.51773062500001,126.94630162500002,68.0,96.0
116,126.94630162500002,130.2695125875,70.0,100.0
117,144.08914162500002,144.50699835000003,70.0,114.0
118,144.51771262500003,144.76592666250002,73.0,110.0
119,144.946283625,145.32664038750002,73.0,110.0
120,145.374854625,145.66771147500003,75.0,110.0
121,145.80342562500002,146.13556815,75.0,110.0
122,146.23199662500002,146.50699635,77.0,104.0
123,146.66056762500003,146.9855673,77.0,114.0
124,147.08913862500003,147.40878116250002,82.0,110.0
125,147.517709625,148.55878001250002,80.0,113.0
126,148.80342262500002,149.21592221250003,77.0,108.0
127,149.23199362500003,149.7730645125,75.0,104.0
128,150.94627762500002,151.29092013750002,70.0,110.0
129,151.37484862500003,151.62841980000002,73.0,98.0
130,151.80341962500003,152.15877641250003,73.0,96.0
131,152.231990625,152.50163321250002,75.0,108.0
132,152.660561625,152.96948988750003,75.0,107.0
133,153.08913262500002,153.3427038,77.0,102.0
134,153.51770362500002,153.92127465000002,77.0,107.0
135,154.374845625,154.724845275,70.0,113.0
136,155.23198762500002,155.52305876250003,68.0,104.0
137,157.80341362500002,158.16055612500003,70.0,113.0
138,158.23198462500002,158.46412725000002,73.0,110.0
139,158.66055562500003,158.98734101250002,73.0,110.0
140,159.08912662500003,159.39269775000002,75.0,107.0
141,159.517697625,159.84984015000003,75.0,110.0
142,159.94626862500002,160.21055407500003,77.0,104.0
143,160.37483962500002,160.65698220000002,77.0,107.0
144,160.80341062500003,161.09626747500002,82.0,108.0
145,161.23198162500003,161.71948113750003,80.0,113.0
146,162.51769462500002,162.92305136250002,77.0,114.0
147,162.94626562500002,163.36412235000003,75.0,113.0
148,164.66054962500002,165.07126350000001,75.0,113.0
149,165.08912062500002,165.47662023750001,77.0,88.0
150,165.51769162500003,166.02840540000003,70.0,93.0
151,166.374833625,166.71054757500002,75.0,110.0
152,166.803404625,167.13733286250002,77.0,91.0
153,167.23197562500002,167.42840400000003,70.0,94.0
154,167.66054662500002,167.8301893125,68.0,102.0
155,168.08911762500003,168.45518868750003,70.0,92.0
156,170.66054362500003,171.11054317500003,70.0,108.0
157,171.08911462500004,171.4837570875,73.0,98.0
158,171.517685625,172.52304176250001,75.0,107.0
159,172.80339862500003,173.22482677500003,73.0,108.0
160,173.23196962500003,173.5944692625,70.0,107.0
161,174.08911162500002,174.54268260000003,70.0,113.0
162,174.51768262500002,174.88911082500002,73.0,98.0
163,174.94625362500003,175.72839570000002,75.0,108.0
164,176.231966625,176.55518058750002,73.0,94.0
165,176.66053762500002,177.13910857500002,77.0,102.0
166,177.51767962500003,177.88017926250004,77.0,110.0
167,177.94625062500003,178.26232173750003,80.0,107.0
168,178.374821625,178.95696390000003,82.0,110.0
169,179.23196362500002,179.61589181250002,82.0,110.0
170,179.66053462500003,180.0801770625,80.0,102.0
171,180.08910562500003,180.52839090000003,77.0,107.0
172,180.51767662500004,180.9516047625,75.0,100.0
173,180.946247625,181.55338987500002,73.0,100.0
174,181.80338962500002,182.5623174375,75.0,108.0
175,182.66053162500003,183.05160266250002,77.0,98.0
176,184.37481562500002,184.79802948750003,70.0,104.0
177,184.80338662500003,185.19802908750003,73.0,104.0
178,185.23195762500004,186.40695645000002,75.0,107.0
179,186.51767062500002,186.93909877500002,73.0,104.0
180,186.94624162500003,187.31052697500002,70.0,92.0
181,187.80338362500004,188.2426689,70.0,110.0
182,188.23195462500001,188.58373998750002,73.0,102.0
183,188.66052562500002,189.51231048750003,75.0,107.0
184,189.51766762500003,190.11766702500003,73.0,107.0
185,190.374809625,190.82838060000003,77.0,108.0
186,192.08909362500003,192.47302181250004,75.0,113.0
187,192.51766462500004,192.91409280000002,77.0,90.0
188,192.946235625,193.34623522500002,70.0,104.0
189,193.80337762500002,194.14980585000004,75.0,114.0
190,194.23194862500003,194.61766252500001,77.0,88.0
191,194.66051962500003,195.02659068750003,70.0,98.0
192,195.089090625,195.52301876250002,68.0,89.0
193,195.51766162500002,196.21408950000003,70.0,94.0
194,198.08908762500002,198.55694430000003,77.0,117.0
195,198.51765862500002,198.91230108750003,80.0,119.0
196,198.94622962500003,199.75872881250004,85.0,114.0
197,200.23194262500002,200.61229938750003,84.0,108.0
198,200.66051362500002,201.04087038750004,77.0,108.0
199,201.51765562500003,201.91765522500003,77.0,110.0
200,201.94622662500004,202.34979765000003,75.0,110.0
201,202.374797625,203.01229698750004,73.0,110.0
202,203.23193962500002,203.696224875,73.0,110.0
203,203.66051062500003,204.13551015000002,75.0,108.0
204,204.08908162500003,204.43550985000002,77.0,110.0
205,204.94622362500002,205.317651825,77.0,108.0
206,205.37479462500002,205.83193702500003,75.0,108.0
207,205.80336562500003,206.19979380000004,73.0,110.0
208,206.66050762500004,207.02479297500003,82.0,110.0
209,207.089078625,207.56943528750003,85.0,114.0
210,207.51764962500002,207.94264920000003,84.0,110.0
211,207.94622062500002,208.43907727500002,82.0,113.0
212,208.37479162500003,208.78729121250004,80.0,114.0
213,208.80336262500003,209.21229078750002,75.0,114.0
214,209.23193362500004,209.75871881250004,77.0,107.0
215,211.80335962500004,212.11585931250002,77.0,104.0
216,212.23193062500002,212.56585886250002,80.0,114.0
217,212.66050162500002,213.71050057500003,85.0,113.0
218,213.94621462500004,214.32121425000003,84.0,117.0
219,214.37478562500002,214.66942818750002,77.0,114.0
220,215.23192762500003,215.60692725000004,77.0,107.0
221,215.66049862500003,216.09621247500002,75.0,104.0
222,216.08906962500004,216.67121190000003,73.0,107.0
223,216.94621162500002,217.38906832500004,73.0,108.0
224,217.37478262500002,217.76942508750003,75.0,104.0
225,217.80335362500003,218.19621037500002,77.0,108.0
226,219.51763762500002,219.91228008750002,75.0,113.0
227,219.94620862500003,220.36942248750003,77.0,102.0
228,220.37477962500003,220.91585051250001,70.0,104.0
229,221.23192162500004,221.62120695000002,75.0,110.0
230,221.66049262500002,222.12834930000002,77.0,88.0
231,222.08906362500002,222.53906317500002,70.0,100.0
232,222.51763462500003,222.91763422500003,68.0,96.0
233,222.94620562500003,223.42834800000003,70.0,100.0
234,251.23189162500003,251.66046262500004,77.0,114.0
235,251.66046262500004,252.09796218750003,80.0,110.0
236,252.08903362500004,252.94617562500002,82.0,113.0
237,252.94617562500002,253.37474662500003,84.0,108.0
238,253.37474662500003,253.82474617500003,80.0,107.0
239,253.80331762500003,255.08903062500002,82.0,113.0
240,255.08903062500002,255.53545875000003,80.0,107.0
241,255.51760162500003,256.374743625,77.0,107.0
242,255.51760162500003,256.39081503750003,82.0,119.0
243,256.374743625,257.231885625,80.0,119.0
244,257.231885625,258.0872419125,77.0,117.0
245,258.089027625,258.51759862500006,77.0,116.0
246,258.51759862500006,258.94616962500004,80.0,113.0
247,258.94616962500004,259.81581161250006,82.0,116.0
248,259.80331162500005,260.231882625,84.0,98.0
249,260.231882625,260.6622393375,80.0,113.0
250,260.66045362500006,261.53188132500003,82.0,113.0
251,261.517595625,262.374737625,84.0,116.0
252,262.374737625,264.94616362500005,85.0,116.0
253,264.94616362500005,265.37473462500003,82.0,116.0
254,265.37473462500003,265.81223418750005,89.0,116.0
255,265.803305625,266.80866176250004,87.0,116.0
256,266.660447625,267.08901862500005,82.0,116.0
257,267.08901862500005,267.517589625,89.0,116.0
258,267.517589625,269.23187362500005,87.0,116.0
259,269.23187362500005,270.0908013375,84.0,108.0
260,270.08901562500006,270.946157625,80.0,116.0
261,270.946157625,272.66044162500003,77.0,117.0
262,272.66044162500003,273.089012625,87.0,119.0
263,273.089012625,273.51758362500004,89.0,107.0
264,273.51758362500004,274.37472562500005,82.0,114.0
265,274.37472562500005,274.80329662500003,87.0,120.0
266,274.80329662500003,275.23901047500004,89.0,108.0
267,275.23186762500006,276.089009625,82.0,114.0
268,276.089009625,277.06222293750005,80.0,108.0
269,276.946151625,278.62114995,82.0,88.0
