,start,end,pitch,velocity
0,5.232137625000001,5.339280375,72.0,84.0
1,5.339280375,5.446423125000001,73.0,89.0
2,5.446423125000001,5.553565875,75.0,94.0
3,5.553565875,5.660708625000001,77.0,98.0
4,5.660708625000001,5.767851375000001,79.0,104.0
5,5.767851375000001,6.946421625000001,80.0,107.0
6,9.517847625000002,9.6196332375,70.0,64.0
7,9.624990375000001,9.710704575000001,71.0,67.0
8,9.732133125,9.8303473125,72.0,72.0
9,9.839275875000002,9.946418625000002,73.0,80.0
10,9.946418625000002,10.053561375000001,74.0,87.0
11,10.053561375000001,10.692846450000001,75.0,108.0
12,13.696414875000002,13.803557625000002,68.0,91.0
13,13.803557625000002,13.910700375000001,69.0,98.0
14,13.910700375000001,14.017843125000002,70.0,90.0
15,14.017843125000002,14.178557250000003,71.0,90.0
16,14.178557250000003,14.339271375000003,72.0,90.0
17,14.339271375000003,14.553556875000002,73.0,102.0
18,14.553556875000002,14.767842375000003,77.0,102.0
19,14.767842375000003,15.089270625000003,73.0,102.0
20,15.089270625000003,15.410698875000001,72.0,85.0
21,15.410698875000001,15.839269875000003,70.0,79.0
22,15.839269875000003,16.267840875,72.0,68.0
23,16.267840875,17.121411450000004,73.0,72.0
24,20.660693625000004,21.724978275,61.0,70.0
25,20.660693625000004,21.837478162500002,70.0,71.0
26,20.660693625000004,21.949978050000002,54.0,67.0
27,20.660693625000004,22.033906537500002,66.0,74.0
28,22.374977625000003,23.724976275000003,63.0,77.0
29,22.374977625000003,23.882118975000004,72.0,81.0
30,22.374977625000003,23.994618862500005,56.0,72.0
31,22.374977625000003,24.0696187875,68.0,72.0
32,24.089261625000002,25.589260125000003,65.0,72.0
33,24.089261625000002,25.692831450000003,73.0,80.0
34,24.089261625000002,25.723188562500003,70.0,71.0
35,24.089261625000002,25.833902737500004,58.0,71.0
36,25.803545625,27.116044312500005,63.0,74.0
37,25.803545625,27.126758587500003,72.0,70.0
38,25.803545625,27.155329987500004,68.0,70.0
39,25.803545625,27.241044187500005,56.0,64.0
40,27.517829625000005,28.864256850000004,61.0,73.0
41,27.517829625000005,29.098185187500004,70.0,77.0
42,27.517829625000005,29.171399400000002,54.0,73.0
43,27.517829625000005,29.187470812500003,66.0,78.0
44,29.232113625000004,30.623183662500004,63.0,67.0
45,29.232113625000004,30.673183612500004,72.0,77.0
46,29.232113625000004,30.676755037500005,68.0,71.0
47,29.232113625000004,30.726754987500005,56.0,74.0
48,32.232110625000004,32.637467362500004,70.0,81.0
49,30.946397625000003,33.6017521125,53.0,67.0
50,31.374968625000005,33.61246638750001,60.0,42.0
51,31.803539625000003,33.792823350000006,65.0,68.0
52,32.660681625,33.8088947625,72.0,75.0
53,34.374965625,35.9338926375,61.0,77.0
54,34.374965625,36.180320962500005,54.0,76.0
55,34.374965625,36.198178087500004,70.0,78.0
56,36.08924962500001,37.32317696250001,63.0,74.0
57,36.08924962500001,37.54103388750001,72.0,80.0
58,36.08924962500001,37.6999623,56.0,65.0
59,36.08924962500001,37.75353367500001,68.0,71.0
60,37.80353362500001,39.29460356250001,65.0,73.0
61,37.80353362500001,39.3338892375,58.0,70.0
62,37.80353362500001,39.378532050000004,73.0,78.0
63,37.80353362500001,39.4838890875,70.0,68.0
64,39.517817625000006,40.54103088750001,56.0,69.0
65,39.517817625000006,40.73567355000001,63.0,76.0
66,39.517817625000006,40.907101950000005,68.0,74.0
67,39.517817625000006,40.9731733125,72.0,80.0
68,41.232101625000006,41.55174416250001,70.0,84.0
69,41.232101625000006,42.54995745000001,42.0,78.0
70,42.08924362500001,42.6196002375,66.0,77.0
71,42.08924362500001,42.732100125,58.0,77.0
72,41.660672625000004,42.98567130000001,54.0,65.0
73,41.232101625000006,43.0195998375,61.0,76.0
74,42.946385625000005,43.70352772500001,68.0,78.0
75,42.946385625000005,44.25888431250001,44.0,79.0
76,43.374956625,44.3231699625,56.0,67.0
77,42.946385625000005,44.753526675,60.0,80.0
78,43.80352762500001,44.773169512500004,68.0,76.0
79,42.946385625000005,44.8088837625,63.0,65.0
80,45.946382625000005,46.426739287500006,60.0,76.0
81,44.660669625000004,47.374952625000006,46.0,83.0
82,45.51781162500001,47.403524025,56.0,76.0
83,45.08924062500001,47.43209542500001,53.0,78.0
84,46.374953625,47.51959533750001,61.0,60.0
85,49.80352162500001,50.30887826250001,80.0,81.0
86,48.08923762500001,51.085663200000006,58.0,88.0
87,48.51780862500001,51.276734437500004,65.0,77.0
88,50.660663625000005,51.56066272500001,82.0,76.0
89,48.946379625000006,51.58744841250001,70.0,69.0
90,49.374950625000004,51.6570912,73.0,77.0
91,51.946376625000006,54.14816013750001,65.0,74.0
92,52.374947625000004,54.18566010000001,68.0,72.0
93,51.51780562500001,54.18744581250001,56.0,78.0
94,52.80351862500001,54.41065987500001,77.0,80.0
95,54.94637362500001,56.148158137500005,73.0,86.0
96,55.80351562500001,57.53029961250001,66.0,76.0
97,55.374944625000005,57.626728087500005,61.0,65.0
98,54.94637362500001,57.69279945000001,54.0,73.0
99,56.660657625000006,58.36422735000001,78.0,78.0
100,56.23208662500001,58.36601306250001,70.0,84.0
101,59.23208362500001,61.02136755000001,63.0,80.0
102,58.80351262500001,61.049938950000005,60.0,74.0
103,59.66065462500001,61.06779607500001,68.0,74.0
104,58.374941625000005,61.07315321250001,53.0,76.0
105,60.089225625000005,61.07672463750001,75.0,84.0
106,60.94636762500001,61.79636677500001,72.0,83.0
107,62.66065162500001,64.48207837500001,70.0,81.0
108,61.80350962500001,64.63743536250001,58.0,87.0
109,62.23208062500001,64.67314961250001,65.0,80.0
110,63.089222625000005,64.69279245000001,73.0,78.0
111,63.51779362500001,65.12314916250001,82.0,78.0
112,65.232077625,66.58921912500001,80.0,81.0
113,66.517790625,66.94457591250001,77.0,68.0
114,66.08921962500001,67.8231464625,68.0,74.0
115,65.66064862500001,67.889217825,65.0,44.0
116,65.232077625,68.10171761250001,56.0,79.0
117,66.94636162500001,68.66778847500001,75.0,74.0
118,69.51778762500001,69.8999301,66.0,76.0
119,69.089216625,69.97671573750002,61.0,66.0
120,68.66064562500002,70.01778712500001,54.0,76.0
121,68.66064562500002,70.10885846250001,73.0,87.0
122,70.80350062500001,71.3517143625,63.0,68.0
123,70.37492962500001,71.43564285000001,56.0,83.0
124,71.232071625,72.11421360000001,68.0,72.0
125,72.08921362500001,73.47849795,70.0,83.0
126,72.94635562500001,73.48206937500001,61.0,78.0
127,73.37492662500001,73.8338547375,60.0,77.0
128,72.517784625,74.86778227500001,53.0,65.0
129,72.08921362500001,74.98206787500001,46.0,67.0
130,73.803497625,75.2695675875,63.0,78.0
131,76.37492362500001,76.85349457500001,58.0,69.0
132,75.51778162500001,76.86242313750002,42.0,84.0
133,75.946352625,77.21956563750001,54.0,74.0
134,76.80349462500001,77.571351,61.0,70.0
135,77.66063662500001,78.50170721250001,56.0,67.0
136,78.08920762500001,78.5481357375,60.0,74.0
137,77.232065625,78.55527858750001,44.0,85.0
138,78.517778625,79.05706380000001,63.0,86.0
139,80.23206262500001,80.63384793750001,60.0,70.0
140,80.66063362500002,80.7552763875,61.0,81.0
141,79.37492062500002,81.6159898125,53.0,67.0
142,79.803491625,81.63920407500001,58.0,77.0
143,78.94634962500001,81.7856325,46.0,79.0
144,81.51777562500001,81.87491812500001,70.0,89.0
145,81.08920462500001,81.93920377500001,65.0,82.0
146,81.946346625,82.33741766250002,72.0,91.0
147,82.37491762500001,82.68741731250002,73.0,88.0
148,82.160632125,82.91777422500002,65.0,78.0
149,82.37491762500001,83.71420200000001,42.0,79.0
150,82.80348862500001,83.73563055000001,49.0,71.0
151,83.66063062500001,83.86598756250001,61.0,82.0
152,83.66063062500001,83.932058925,70.0,84.0
153,83.232059625,84.03027311250001,54.0,84.0
154,84.08920162500002,85.39098603750001,44.0,80.0
155,84.517772625,85.40527173750002,51.0,74.0
156,84.94634362500001,85.7695570875,56.0,72.0
157,85.37491462500002,85.80705705000001,63.0,78.0
158,85.80348562500001,86.08741391250001,61.0,75.0
159,85.80348562500001,86.79634177500002,68.0,76.0
160,87.08919862500001,87.49812678750001,66.0,84.0
161,86.66062762500002,87.72848370000001,61.0,75.0
162,87.51776962500001,88.0659833625,65.0,87.0
163,87.946340625,88.40884016250001,61.0,80.0
164,86.23205662500001,88.46598296250001,56.0,70.0
165,85.80348562500001,88.60705425000002,49.0,65.0
166,88.37491162500001,88.8266968875,65.0,98.0
167,88.80348262500002,89.24633932500001,68.0,89.0
168,89.232053625,89.61955323750001,70.0,86.0
169,89.66062462500001,90.19276695,54.0,76.0
170,89.232053625,90.23205262500001,48.0,84.0
171,90.08919562500002,90.54633802500001,60.0,81.0
172,90.51776662500001,91.12312316250001,66.0,84.0
173,91.80347962500001,91.94276520000001,58.0,85.0
174,91.37490862500002,91.96597946250002,53.0,60.0
175,90.94633762500001,91.98205087500001,46.0,84.0
176,92.23205062500001,92.73205012500001,61.0,81.0
177,93.51776362500001,93.6909777375,56.0,82.0
178,92.66062162500002,93.77312051250001,44.0,83.0
179,93.08919262500001,93.96419175000001,60.0,80.0
180,93.946334625,94.46597696250001,63.0,86.0
181,94.37490562500001,96.09990390000002,61.0,70.0
182,94.37490562500001,96.10347532500002,43.0,63.0
183,94.37490562500001,96.1231181625,55.0,69.0
184,94.37490562500001,96.12490387500002,58.0,64.0
185,94.37490562500001,96.15526098750001,65.0,74.0
186,96.08918962500002,97.33383123750001,39.0,78.0
187,96.51776062500001,97.77668793750001,46.0,64.0
188,96.94633162500001,97.79633077500002,51.0,79.0
189,97.37490262500002,97.82311646250001,58.0,72.0
190,98.23204462500001,99.16597226250002,48.0,40.0
191,97.80347362500001,99.17132940000002,41.0,79.0
192,98.66061562500002,99.53025761250001,53.0,56.0
193,97.80347362500001,99.68918602500001,65.0,81.0
194,98.66061562500002,99.76061452500001,60.0,67.0
195,100.80347062500002,101.24811303750002,60.0,76.0
196,101.23204162500001,101.34097008750001,61.0,88.0
197,100.37489962500001,102.15168356250001,58.0,77.0
198,99.946328625,102.16061212500001,53.0,66.0
199,99.51775762500002,102.18739781250001,46.0,73.0
200,102.08918362500002,102.53204032500001,70.0,96.0
201,101.66061262500001,102.53739746250001,65.0,85.0
202,102.51775462500001,102.85346857500001,72.0,94.0
203,102.73204012500001,103.84811043750001,61.0,75.0
204,102.94632562500001,103.93382463750001,70.0,98.0
205,102.94632562500001,104.26596716250002,42.0,87.0
206,103.80346762500001,104.55525258750001,54.0,84.0
207,103.37489662500002,104.58739541250002,49.0,64.0
208,104.66060962500002,105.11775202500002,68.0,92.0
209,104.44632412500002,105.12668058750002,60.0,74.0
210,104.66060962500002,105.96775117500002,44.0,84.0
211,105.51775162500002,106.34096508750001,56.0,83.0
212,105.08918062500001,106.39453646250001,51.0,66.0
213,106.16060812500001,106.79989320000001,61.0,67.0
214,106.37489362500001,107.21596421250001,70.0,88.0
215,106.37489362500001,107.26239273750001,65.0,77.0
216,107.66060662500001,107.97846345000002,63.0,83.0
217,107.23203562500001,108.21239178750001,58.0,83.0
218,108.08917762500002,108.62131995000001,65.0,94.0
219,108.08917762500002,108.62667708750001,70.0,93.0
220,108.51774862500001,109.09631947500002,58.0,91.0
221,106.80346462500002,109.17489082500002,53.0,76.0
222,106.37489362500001,109.34631922500002,46.0,78.0
223,108.94631962500002,109.39810488750001,63.0,98.0
224,109.37489062500002,109.81596161250002,65.0,87.0
225,109.80346162500001,110.03203282500002,70.0,88.0
226,110.66060362500002,111.05346037500001,58.0,82.0
227,110.66060362500002,111.07131750000002,66.0,84.0
228,109.80346162500001,111.14988885000001,42.0,87.0
229,110.66060362500002,111.29274585000002,54.0,75.0
230,109.80346162500001,111.51060277500001,61.0,88.0
231,110.23203262500002,111.54453131250001,49.0,67.0
232,111.51774562500002,111.98381658750002,68.0,87.0
233,111.51774562500002,111.98738801250002,60.0,87.0
234,111.51774562500002,112.00881656250002,63.0,89.0
235,111.51774562500002,112.80345862500002,44.0,84.0
236,111.94631662500001,112.85524428750001,51.0,69.0
237,112.37488762500001,112.87667283750001,68.0,88.0
238,112.37488762500001,112.88560140000001,60.0,88.0
239,112.37488762500001,113.25167246250001,56.0,76.0
240,114.51774262500001,114.72667098750001,65.0,85.0
241,114.51774262500001,114.73202812500001,60.0,83.0
242,114.08917162500002,114.96417075000001,58.0,83.0
243,114.94631362500002,115.37488462500002,61.0,91.0
244,114.94631362500002,115.41952743750001,65.0,88.0
245,115.37488462500002,116.09452676250001,58.0,86.0
246,113.66060062500001,116.11774102500002,53.0,73.0
247,115.80345562500001,116.12131245000002,72.0,82.0
248,113.23202962500001,116.18381238750001,46.0,90.0
249,115.80345562500001,116.31952653750001,65.0,100.0
250,116.23202662500002,116.55345487500001,70.0,88.0
251,116.66059762500001,117.19631137500002,54.0,67.0
252,116.66059762500001,117.19631137500002,61.0,70.0
253,116.66059762500001,117.19631137500002,66.0,74.0
254,116.66059762500001,117.30702555000002,70.0,71.0
255,117.51773962500002,117.94631062500001,54.0,70.0
256,116.66059762500001,118.06773907500002,42.0,87.0
257,117.51773962500002,118.10166761250001,58.0,82.0
258,117.51773962500002,118.17845325000002,66.0,85.0
259,117.08916862500001,118.44273870000002,49.0,75.0
260,118.37488162500001,118.91059537500001,63.0,77.0
261,118.37488162500001,118.93380963750002,68.0,89.0
262,118.37488162500001,118.95523818750002,60.0,86.0
263,118.37488162500001,119.01773812500002,56.0,72.0
264,118.37488162500001,119.69452316250002,44.0,84.0
265,119.23202362500001,119.69452316250002,60.0,88.0
266,119.23202362500001,119.81595161250002,68.0,87.0
267,119.23202362500001,119.83738016250001,56.0,79.0
268,118.37488162500001,119.88202297500001,72.0,81.0
269,118.80345262500002,120.04630852500001,51.0,74.0
270,120.08916562500002,120.51773662500001,58.0,71.0
271,120.08916562500002,120.97130760000002,65.0,79.0
272,120.08916562500002,120.99987900000002,61.0,82.0
273,120.08916562500002,121.69273545000001,73.0,80.0
274,120.08916562500002,121.72309256250001,70.0,71.0
275,120.94630762500002,122.29452056250001,58.0,82.0
276,122.66059162500001,122.86416285000001,58.0,79.0
277,120.51773662500001,122.99273415000002,53.0,78.0
278,120.08916562500002,123.06237693750002,46.0,78.0
279,121.80344962500001,123.13559115000001,65.0,77.0
280,121.81416390000001,123.13737686250002,72.0,70.0
281,121.80344962500001,123.16237683750002,61.0,84.0
282,123.51773362500002,123.78380478750002,54.0,73.0
283,123.51773362500002,123.93559035000001,66.0,87.0
284,123.51773362500002,124.21594721250001,58.0,67.0
285,123.51773362500002,124.85166086250001,42.0,85.0
286,123.51773362500002,124.86416085000002,61.0,73.0
287,124.80344662500002,125.06951778750002,58.0,81.0
288,123.51773362500002,125.09808918750002,70.0,77.0
289,125.01773212500002,125.22130335000001,61.0,36.0
290,124.37487562500002,125.23023191250002,54.0,87.0
291,123.94630462500001,125.24630332500001,49.0,67.0
292,125.23201762500001,125.74630282500001,56.0,74.0
293,125.23201762500001,126.53201632500001,44.0,80.0
294,125.23201762500001,126.56237343750001,68.0,86.0
295,125.23201762500001,126.57844485000001,60.0,87.0
296,125.66058862500002,126.65165906250002,51.0,64.0
297,125.23201762500001,126.67308761250001,72.0,77.0
298,126.08915962500002,126.70344472500001,56.0,80.0
299,126.94630162500002,127.23915847500001,58.0,78.0
300,126.94630162500002,127.38558690000002,65.0,86.0
301,126.94630162500002,127.83915787500001,46.0,79.0
302,128.232014625,128.4445144125,72.0,82.0
303,128.44630012500002,128.67487132500003,73.0,81.0
304,128.660585625,128.9980852875,72.0,75.0
305,129.08915662500002,129.56415615000003,70.0,87.0
306,126.94630162500002,129.60165611250002,53.0,67.0
307,127.37487262500002,129.61237038750002,60.0,42.0
308,127.80344362500001,129.79272735,65.0,68.0
309,129.51772762500002,130.24451261250002,68.0,98.0
310,130.37486962500003,131.93379663750002,61.0,77.0
311,130.37486962500003,132.1802249625,54.0,76.0
312,130.37486962500003,132.1980820875,70.0,78.0
313,132.08915362500002,133.32308096250003,63.0,74.0
314,132.08915362500002,133.5409378875,72.0,80.0
315,132.08915362500002,133.69986630000002,56.0,65.0
316,132.08915362500002,133.75343767500001,68.0,71.0
317,133.80343762500002,135.29450756250003,65.0,73.0
318,133.80343762500002,135.3337932375,58.0,70.0
319,133.80343762500002,135.37843605,73.0,78.0
320,133.80343762500002,135.4837930875,70.0,68.0
321,135.517721625,136.54093488750001,56.0,69.0
322,135.517721625,136.73557755000002,63.0,76.0
323,135.517721625,136.90700595,68.0,74.0
324,135.517721625,136.9730773125,72.0,80.0
325,137.23200562500003,137.55164816250002,70.0,84.0
326,137.23200562500003,138.54986145,42.0,78.0
327,138.089147625,138.61950423750002,66.0,77.0
328,138.089147625,138.73200412500003,58.0,77.0
329,137.660576625,138.98557530000002,54.0,65.0
330,137.23200562500003,139.01950383750003,61.0,76.0
331,138.94628962500002,139.70343172500003,68.0,78.0
332,138.94628962500002,140.25878831250003,44.0,79.0
333,139.37486062500003,140.32307396250002,56.0,67.0
334,138.94628962500002,140.75343067500003,60.0,80.0
335,139.80343162500003,140.77307351250002,68.0,76.0
336,138.94628962500002,140.80878776250003,63.0,65.0
337,141.94628662500003,142.4266432875,60.0,76.0
338,140.660573625,143.374856625,46.0,83.0
339,141.51771562500002,143.403428025,56.0,76.0
340,141.08914462500002,143.43199942500001,53.0,78.0
341,142.37485762500003,143.5194993375,61.0,60.0
342,145.80342562500002,146.30878226250002,80.0,81.0
343,144.08914162500002,147.0855672,58.0,88.0
344,144.51771262500003,147.27663843750003,65.0,77.0
345,146.66056762500003,147.56056672500003,82.0,76.0
346,144.946283625,147.58735241250002,70.0,69.0
347,145.374854625,147.6569952,73.0,77.0
348,148.80342262500002,150.1159213125,77.0,80.0
349,147.946280625,150.14806413750003,65.0,74.0
350,148.37485162500002,150.18556410000002,68.0,72.0
351,147.517709625,150.18734981250003,56.0,78.0
352,150.089135625,150.96770617500002,75.0,85.0
353,150.94627762500002,152.14806213750003,73.0,86.0
354,151.80341962500003,153.53020361250003,66.0,76.0
355,151.37484862500003,153.6266320875,61.0,65.0
356,150.94627762500002,153.69270345,54.0,73.0
357,152.660561625,154.36413135,78.0,78.0
358,152.231990625,154.36591706250002,70.0,84.0
359,155.23198762500002,157.02127155000002,63.0,80.0
360,154.803416625,157.04984295000003,60.0,74.0
361,155.66055862500002,157.06770007500003,68.0,74.0
362,154.374845625,157.07305721250003,53.0,76.0
363,156.08912962500003,157.07662863750002,75.0,84.0
364,156.946271625,157.796270775,72.0,83.0
365,158.66055562500003,160.48198237500003,70.0,81.0
366,157.80341362500002,160.63733936250003,58.0,87.0
367,158.23198462500002,160.6730536125,65.0,80.0
368,159.08912662500003,160.69269645000003,73.0,78.0
369,159.517697625,161.1230531625,82.0,78.0
370,161.23198162500003,162.58912312500001,80.0,81.0
371,162.51769462500002,162.94447991250001,77.0,68.0
372,162.089123625,163.82305046250002,68.0,74.0
373,161.660552625,163.88912182500002,65.0,44.0
374,161.23198162500003,164.10162161250003,56.0,79.0
375,162.94626562500002,164.66769247500002,75.0,74.0
376,165.51769162500003,165.89983410000002,66.0,76.0
377,165.08912062500002,165.97661973750002,61.0,66.0
378,164.66054962500002,166.01769112500003,54.0,76.0
379,164.66054962500002,166.1087624625,73.0,87.0
380,166.803404625,167.35161836250003,63.0,68.0
381,166.374833625,167.43554685,56.0,83.0
382,167.23197562500002,168.11411760000001,68.0,72.0
383,168.08911762500003,169.47840195000003,70.0,83.0
384,169.37483062500002,169.83375873750003,63.0,77.0
385,168.946259625,170.83554345000002,58.0,78.0
386,168.51768862500003,170.867686275,53.0,65.0
387,168.08911762500003,170.98197187500003,46.0,67.0
388,169.80340162500002,171.26947158750002,61.0,78.0
389,172.37482762500002,172.85339857500003,58.0,69.0
390,171.517685625,172.86232713750002,42.0,84.0
391,171.94625662500002,173.21946963750003,54.0,74.0
392,172.80339862500003,173.57125500000004,61.0,70.0
393,173.660540625,174.50161121250002,56.0,67.0
394,174.08911162500002,174.54803973750003,60.0,74.0
395,173.23196962500003,174.5551825875,44.0,85.0
396,174.51768262500002,175.05696780000002,63.0,86.0
397,176.231966625,176.63375193750002,60.0,70.0
398,176.66053762500002,176.75518038750002,61.0,81.0
399,175.37482462500003,177.61589381250002,53.0,67.0
400,175.80339562500004,177.63910807500002,58.0,77.0
401,174.94625362500003,177.78553650000003,46.0,79.0
402,177.51767962500003,177.87482212500004,70.0,89.0
403,177.08910862500002,177.93910777500002,65.0,82.0
404,177.94625062500003,178.33732166250002,72.0,91.0
405,178.374821625,178.68732131250002,73.0,88.0
406,178.16053612500002,178.91767822500003,65.0,78.0
407,178.374821625,179.71410600000002,42.0,79.0
408,178.80339262500001,179.73553455,49.0,71.0
409,179.66053462500003,179.86589156250002,61.0,82.0
410,179.66053462500003,179.93196292500002,70.0,84.0
411,179.23196362500002,180.0301771125,54.0,84.0
412,180.08910562500003,180.496248075,68.0,87.0
413,180.08910562500003,180.61053367500003,60.0,81.0
414,180.08910562500003,181.39089003750001,44.0,80.0
415,180.51767662500004,181.40517573750003,51.0,74.0
416,180.946247625,181.42839000000004,68.0,85.0
417,180.946247625,181.43374713750003,60.0,86.0
418,180.946247625,181.76946108750002,56.0,72.0
419,181.37481862500002,181.80696105,63.0,78.0
420,181.80338962500002,182.08731791250003,61.0,75.0
421,181.80338962500002,182.79624577500002,68.0,76.0
422,183.08910262500004,183.49803078750003,66.0,84.0
423,182.66053162500003,183.7283877,61.0,75.0
424,183.51767362500001,184.06588736250004,65.0,87.0
425,183.94624462500002,184.40874416250003,61.0,80.0
426,182.23196062500003,184.46588696250004,56.0,70.0
427,181.80338962500002,184.60695825000002,49.0,65.0
428,184.37481562500002,184.82660088750004,65.0,98.0
429,184.80338662500003,185.24624332500002,68.0,89.0
430,185.23195762500004,185.61945723750003,70.0,86.0
431,185.660528625,186.19267095000004,54.0,76.0
432,185.23195762500004,186.23195662500004,48.0,84.0
433,186.08909962500002,186.54624202500003,60.0,81.0
434,186.51767062500002,186.86945598750003,66.0,84.0
435,187.80338362500004,188.29266885,58.0,83.0
436,186.94624162500003,188.2980259875,46.0,85.0
437,187.37481262500003,188.30874026250004,53.0,74.0
438,189.51766762500003,190.02838140000003,65.0,86.0
439,189.08909662500002,190.36230963750003,56.0,88.0
440,188.66052562500002,190.38373818750003,49.0,89.0
441,190.374809625,192.09980790000003,61.0,70.0
442,190.374809625,192.10337932500002,43.0,63.0
443,190.374809625,192.12302216250004,55.0,69.0
444,190.374809625,192.12480787500002,58.0,64.0
445,190.374809625,192.15516498750003,65.0,74.0
446,192.08909362500003,193.33373523750004,39.0,78.0
447,192.51766462500004,193.77659193750003,46.0,64.0
448,192.946235625,193.79623477500002,51.0,79.0
449,193.37480662500002,193.8230204625,58.0,72.0
450,194.23194862500003,195.16587626250003,48.0,40.0
451,193.80337762500002,195.17123340000003,41.0,79.0
452,194.66051962500003,195.53016161250002,53.0,56.0
453,193.80337762500002,195.689090025,65.0,81.0
454,194.66051962500003,195.76051852500004,60.0,67.0
455,196.80337462500003,197.24801703750003,60.0,76.0
456,197.23194562500004,197.34087408750003,61.0,88.0
457,196.37480362500003,198.15158756250003,58.0,77.0
458,195.94623262500002,198.16051612500002,53.0,66.0
459,195.51766162500002,198.18730181250004,46.0,73.0
460,198.08908762500002,198.531944325,70.0,96.0
461,197.660516625,198.53730146250004,65.0,85.0
462,198.51765862500002,198.85337257500004,72.0,94.0
463,198.94622962500003,199.02301526250002,66.0,73.0
464,198.94622962500003,199.93372863750002,70.0,98.0
465,198.94622962500003,200.06229993750003,61.0,75.0
466,198.94622962500003,200.26587116250002,42.0,87.0
467,199.80337162500004,200.55515658750002,54.0,84.0
468,199.37480062500003,200.58729941250002,49.0,64.0
469,200.66051362500002,200.73729926250002,63.0,80.0
470,200.66051362500002,201.11765602500003,68.0,92.0
471,200.44622812500003,201.12658458750002,60.0,74.0
472,200.66051362500002,201.96765517500003,44.0,84.0
473,201.51765562500003,202.34086908750004,56.0,83.0
474,201.08908462500003,202.39444046250003,51.0,66.0
475,202.16051212500003,202.79979720000003,61.0,67.0
476,202.374797625,203.21586821250003,70.0,88.0
477,202.374797625,203.26229673750004,65.0,77.0
478,203.66051062500003,203.97836745000004,63.0,83.0
479,203.23193962500002,204.21229578750004,58.0,83.0
480,204.08908162500003,204.62122395000003,65.0,94.0
481,204.08908162500003,204.62658108750003,70.0,93.0
482,204.51765262500004,205.09622347500002,58.0,91.0
483,202.80336862500002,205.17479482500002,53.0,76.0
484,202.374797625,205.34622322500002,46.0,78.0
485,204.94622362500002,205.39800888750003,63.0,98.0
486,205.37479462500002,205.81586561250003,65.0,87.0
487,205.80336562500003,206.03193682500003,70.0,88.0
488,206.66050762500004,207.05336437500003,58.0,82.0
489,206.66050762500004,207.07122150000004,66.0,84.0
490,205.80336562500003,207.14979285000004,42.0,87.0
491,206.66050762500004,207.29264985000003,54.0,75.0
492,205.80336562500003,207.51050677500004,61.0,88.0
493,206.23193662500003,207.5444353125,49.0,67.0
494,207.51764962500002,207.98372058750002,68.0,87.0
495,207.51764962500002,207.98729201250003,60.0,87.0
496,207.51764962500002,208.00872056250003,63.0,89.0
497,207.51764962500002,208.80336262500003,44.0,84.0
498,207.94622062500002,208.85514828750001,51.0,69.0
499,208.37479162500003,208.87657683750004,68.0,88.0
500,208.37479162500003,208.88550540000003,60.0,88.0
501,208.37479162500003,209.25157646250003,56.0,76.0
502,210.51764662500003,210.72657498750002,65.0,85.0
503,210.51764662500003,210.84086058750003,60.0,83.0
504,210.08907562500002,210.96407475000004,58.0,83.0
505,210.94621762500003,211.08371748750002,61.0,91.0
506,210.94621762500003,211.12836030000003,65.0,88.0
507,211.37478862500004,212.09443076250002,58.0,86.0
508,209.66050462500002,212.11764502500003,53.0,73.0
509,211.80335962500004,212.12121645000002,72.0,82.0
510,209.23193362500004,212.18371638750003,46.0,90.0
511,211.80335962500004,212.31943053750004,65.0,100.0
512,212.23193062500002,212.70157301250003,70.0,88.0
513,212.66050162500002,212.86228713750003,73.0,90.0
514,212.66050162500002,213.08550120000004,66.0,91.0
515,212.66050162500002,214.06764307500003,42.0,87.0
516,213.51764362500003,214.10157161250004,58.0,82.0
517,213.51764362500003,214.17835725000003,66.0,85.0
518,213.51764362500003,214.18907152500003,54.0,70.0
519,213.08907262500003,214.44264270000002,49.0,75.0
520,214.37478562500002,214.93371363750003,68.0,89.0
521,214.37478562500002,214.95514218750003,60.0,86.0
522,214.37478562500002,215.69442716250003,44.0,84.0
523,215.23192762500003,215.69442716250003,60.0,88.0
524,215.23192762500003,215.81585561250003,68.0,87.0
525,215.23192762500003,215.83728416250003,56.0,79.0
526,214.80335662500002,216.04621252500002,51.0,74.0
527,216.08906962500004,216.96406875000002,70.0,87.0
528,216.08906962500004,216.97121160000003,65.0,79.0
529,216.08906962500004,216.99978300000004,61.0,82.0
530,217.37478262500002,217.56763957500002,65.0,68.0
531,217.37478262500002,217.83728216250003,60.0,76.0
532,216.94621162500002,218.29442456250004,58.0,82.0
533,218.66049562500004,218.86406685000003,58.0,79.0
534,216.51764062500004,218.99263815000003,53.0,78.0
535,216.08906962500004,219.06228093750002,46.0,78.0
536,217.80335362500003,219.13549515000003,65.0,77.0
537,217.80335362500003,219.16228083750002,61.0,84.0
538,219.51763762500002,219.93549435000003,66.0,87.0
539,219.51763762500002,220.05870851250003,61.0,70.0
540,219.51763762500002,220.21585121250004,58.0,67.0
541,219.51763762500002,220.85156486250003,42.0,85.0
542,220.80335062500004,221.06942178750003,58.0,81.0
543,221.01763612500002,221.22120735000004,61.0,36.0
544,220.37477962500003,221.23013591250003,54.0,87.0
545,219.94620862500003,221.24620732500003,49.0,67.0
546,221.23192162500004,222.53192032500002,44.0,80.0
547,221.23192162500004,222.56227743750003,68.0,86.0
548,221.23192162500004,222.57834885000003,60.0,87.0
549,222.08906362500002,222.70334872500004,56.0,80.0
550,221.66049262500002,222.95870561250004,51.0,64.0
551,222.51763462500003,222.98727701250002,63.0,86.0
552,222.94620562500003,223.38370518750003,77.0,89.0
553,222.94620562500003,223.52656218750002,70.0,88.0
554,223.37477662500004,223.56763357500003,75.0,89.0
555,222.94620562500003,223.59620497500003,65.0,87.0
556,222.94620562500003,223.62834780000003,61.0,83.0
557,223.58906212500003,223.83370473750003,77.0,88.0
558,223.80334762500004,223.98370458750003,82.0,88.0
559,224.01763312500003,224.30334712500002,77.0,88.0
560,223.80334762500004,224.36406135000004,70.0,86.0
561,223.80334762500004,224.37834705000003,65.0,86.0
562,223.80334762500004,224.41227558750003,61.0,82.0
563,224.23191862500002,224.47656123750002,75.0,88.0
564,224.66048962500003,225.13191772500002,77.0,88.0
565,224.44620412500004,225.26406045000002,70.0,88.0
566,224.66048962500003,225.26406045000002,70.0,86.0
567,224.66048962500003,225.29084613750004,61.0,83.0
568,224.66048962500003,225.31584611250003,65.0,88.0
569,225.08906062500003,225.53548875000004,75.0,88.0
570,225.30334612500002,225.56941728750002,77.0,88.0
571,224.23191862500002,225.66227433750004,58.0,73.0
572,225.51763162500004,225.71941713750002,82.0,88.0
573,225.73191712500002,225.98370258750003,77.0,88.0
574,225.51763162500004,226.16584526250003,61.0,84.0
575,225.51763162500004,226.16584526250003,70.0,85.0
576,226.16048812500003,226.16584526250003,70.0,88.0
577,225.51763162500004,226.19263095000002,65.0,88.0
578,225.94620262500004,226.22298806250004,75.0,88.0
579,226.37477362500002,226.39441646250003,70.0,86.0
580,225.94620262500004,226.61763052500004,58.0,75.0
581,226.37477362500002,226.84084458750004,77.0,88.0
582,226.37477362500002,226.96763017500004,61.0,86.0
583,226.37477362500002,227.05155866250004,65.0,88.0
584,226.80334462500002,227.08905862500004,75.0,88.0
585,227.01763012500004,227.29262985000003,77.0,88.0
586,226.80334462500002,227.33191552500003,58.0,69.0
587,227.23191562500003,227.43370113750004,82.0,88.0
588,227.23191562500003,227.66048662500003,70.0,79.0
589,227.44620112500002,227.71405800000002,77.0,88.0
590,227.23191562500003,227.75512938750003,61.0,84.0
591,227.23191562500003,227.85155786250002,65.0,86.0
592,227.66048662500003,227.94977205000004,75.0,88.0
593,227.87477212500002,227.99262915000003,70.0,88.0
594,227.66048662500003,228.14977185000004,58.0,72.0
595,228.08905762500004,228.56584286250003,77.0,88.0
596,228.08905762500004,228.68012846250002,61.0,87.0
597,228.08905762500004,228.72477127500002,65.0,91.0
598,228.51762862500004,228.74262840000003,75.0,88.0
599,228.08905762500004,228.80155691250002,70.0,87.0
600,228.73191412500003,228.99619957500002,77.0,88.0
601,228.51762862500004,229.04619952500002,58.0,77.0
602,228.94619962500002,229.15869941250003,82.0,88.0
603,229.16048512500004,229.40512773750004,77.0,89.0
604,228.94619962500002,229.41048487500004,65.0,91.0
605,229.37477062500002,229.44798483750003,58.0,78.0
606,223.37477662500004,229.46941338750003,53.0,44.0
607,222.94620562500003,229.49441336250004,46.0,86.0
608,228.94619962500002,229.54441331250004,61.0,88.0
609,228.94619962500002,229.57119900000004,70.0,87.0
610,229.37477062500002,229.62119895000004,75.0,89.0
611,229.58905612500004,229.67477032500003,70.0,90.0
612,229.80334162500003,230.24084118750002,77.0,90.0
613,229.80334162500003,230.32119825000004,65.0,90.0
614,229.80334162500003,230.35691250000002,60.0,87.0
615,229.80334162500003,230.35691250000002,68.0,88.0
616,230.23191262500004,230.42476957500003,75.0,90.0
617,230.44619812500002,230.69084073750003,77.0,89.0
618,230.23191262500004,230.74976925000004,53.0,72.0
619,230.66048362500004,230.84084058750003,82.0,88.0
620,230.87476912500003,231.16048312500004,77.0,88.0
621,230.66048362500004,231.23191162500004,65.0,89.0
622,230.66048362500004,231.29084013750003,60.0,87.0
623,231.08905462500002,231.33369723750002,75.0,88.0
624,230.66048362500004,231.34619722500003,68.0,86.0
625,231.30334012500003,231.52298276250002,70.0,88.0
626,231.08905462500002,231.55512558750004,53.0,77.0
627,231.51762562500002,231.98905372500002,77.0,88.0
628,231.51762562500002,232.15691070000003,65.0,91.0
629,231.51762562500002,232.20869636250004,60.0,88.0
630,231.51762562500002,232.21583921250004,68.0,87.0
631,231.94619662500003,232.39262475000004,75.0,88.0
632,232.16048212500004,232.42655328750004,77.0,88.0
633,231.94619662500003,232.44262470000004,53.0,75.0
634,232.37476762500003,232.57655313750004,82.0,88.0
635,232.58905312500002,232.84083858750003,77.0,88.0
636,232.37476762500003,232.91405280000004,65.0,88.0
637,232.37476762500003,232.97476702500003,68.0,84.0
638,232.37476762500003,232.98369558750002,60.0,87.0
639,232.80333862500004,233.08012406250003,75.0,88.0
640,233.01762412500003,233.25155246250003,70.0,88.0
641,232.80333862500004,233.26762387500003,53.0,74.0
642,233.23190962500004,233.69798058750004,77.0,88.0
643,233.23190962500004,233.77655193750002,60.0,91.0
644,233.23190962500004,233.78012336250004,65.0,92.0
645,233.23190962500004,233.89619467500003,68.0,89.0
646,233.66048062500002,233.94619462500003,75.0,88.0
647,233.66048062500002,234.14619442500003,53.0,75.0
648,233.87476612500004,234.14976585000002,77.0,88.0
649,234.08905162500002,234.29083713750003,82.0,88.0
650,234.30333712500004,234.57119400000002,77.0,88.0
651,234.08905162500002,234.67297961250003,60.0,89.0
652,234.08905162500002,234.68547960000004,65.0,92.0
653,234.08905162500002,234.73190812500002,68.0,87.0
654,234.51762262500003,234.80690805000003,75.0,88.0
655,234.73190812500002,234.84976515000002,70.0,89.0
656,234.51762262500003,235.03905067500003,53.0,77.0
657,234.94619362500003,235.42297886250003,77.0,90.0
658,234.94619362500003,235.51940733750004,65.0,94.0
659,234.94619362500003,235.53190732500002,60.0,89.0
660,234.94619362500003,235.55333587500004,68.0,88.0
661,235.37476462500004,235.59976440000003,75.0,90.0
662,235.37476462500004,235.82833560000003,53.0,78.0
663,235.58905012500003,235.85333557500002,77.0,90.0
664,235.80333562500002,236.01583541250002,82.0,90.0
665,236.01762112500003,236.26226373750004,77.0,90.0
666,229.80334162500003,236.30869226250002,41.0,84.0
667,235.80333562500002,236.34619222500004,60.0,88.0
668,235.80333562500002,236.41940643750004,68.0,87.0
669,236.23190662500002,236.47833495000003,75.0,91.0
670,236.23190662500002,236.47833495000003,75.0,107.0
671,236.44619212500004,236.53190632500002,70.0,91.0
672,235.80333562500002,236.58369198750003,65.0,89.0
673,236.23190662500002,236.68547760000004,53.0,75.0
674,236.66047762500003,237.24083418750004,70.0,94.0
675,236.66047762500003,237.24976275000003,66.0,98.0
676,237.08904862500003,237.28190557500002,75.0,89.0
677,236.66047762500003,237.29083413750004,61.0,89.0
678,237.30333412500002,237.54797673750002,77.0,88.0
679,237.08904862500003,237.64440521250003,54.0,76.0
680,237.51761962500004,237.69797658750002,82.0,88.0
681,237.73190512500003,238.01761912500004,77.0,88.0
682,237.51761962500004,238.17297611250004,61.0,91.0
683,237.94619062500004,238.19083323750004,75.0,88.0
684,237.51761962500004,238.21404750000002,66.0,94.0
685,237.51761962500004,238.24797603750002,70.0,91.0
686,238.16047612500003,238.24797603750002,70.0,88.0
687,237.94619062500004,238.41940443750002,54.0,70.0
688,238.37476162500002,238.97654673750003,61.0,94.0
689,238.37476162500002,238.99083243750002,70.0,91.0
690,238.37476162500002,238.99261815000003,66.0,94.0
691,238.80333262500002,239.24976075000004,75.0,88.0
692,239.01761812500004,239.28368928750004,77.0,88.0
693,238.80333262500002,239.31940353750002,54.0,79.0
694,239.23190362500003,239.43368913750004,82.0,88.0
695,236.66047762500003,239.77833165000004,42.0,87.0
696,239.23190362500003,239.80868876250003,61.0,94.0
697,239.23190362500003,239.81226018750004,70.0,88.0
698,239.23190362500003,239.85154586250002,66.0,104.0
699,239.66047462500003,239.93726006250003,75.0,88.0
700,239.66047462500003,240.08904562500004,54.0,81.0
701,239.44618912500002,240.08904562500004,77.0,88.0
702,239.87476012500002,240.10868846250003,70.0,88.0
703,240.08904562500004,240.55511658750004,77.0,88.0
704,240.08904562500004,240.60154511250002,68.0,90.0
705,240.08904562500004,240.75511638750004,60.0,91.0
706,240.08904562500004,240.78725921250003,63.0,100.0
707,240.51761662500004,240.80333062500003,75.0,88.0
708,240.73190212500003,241.00690185000002,77.0,88.0
709,240.51761662500004,241.06404465000003,51.0,76.0
710,240.94618762500002,241.14797313750003,82.0,88.0
711,241.16047312500004,241.42833000000005,77.0,88.0
712,240.94618762500002,241.53547275000003,68.0,94.0
713,240.94618762500002,241.54261560000003,63.0,98.0
714,240.94618762500002,241.55154416250002,60.0,92.0
715,241.37475862500003,241.66404405000003,75.0,88.0
716,241.58904412500004,241.70690115000002,70.0,88.0
717,241.37475862500003,241.89618667500002,51.0,84.0
718,241.80332962500003,242.28011486250003,77.0,88.0
719,241.80332962500003,242.37654333750004,60.0,88.0
720,241.80332962500003,242.38190047500004,68.0,92.0
721,241.80332962500003,242.38547190000003,63.0,98.0
722,242.23190062500004,242.45690040000002,75.0,88.0
723,242.23190062500004,242.70511443750004,51.0,84.0
724,242.44618612500003,242.71047157500004,77.0,88.0
725,242.66047162500004,242.87297141250002,82.0,88.0
726,242.87475712500003,243.11939973750003,77.0,89.0
727,242.66047162500004,243.14261400000004,68.0,92.0
728,240.08904562500004,243.17832825000002,44.0,88.0
729,242.66047162500004,243.18904252500002,60.0,89.0
730,243.08904262500002,243.33547095000003,75.0,89.0
731,243.30332812500004,243.38904232500002,70.0,90.0
732,242.66047162500004,243.45154226250003,63.0,96.0
733,243.08904262500002,243.53547075000003,51.0,78.0
734,243.51761362500002,244.04618452500003,65.0,91.0
735,243.51761362500002,244.11404160000004,61.0,88.0
736,243.51761362500002,244.20332722500004,70.0,91.0
737,244.37475562500003,244.94975505000002,61.0,96.0
738,244.37475562500003,245.03368353750002,65.0,104.0
739,244.37475562500003,245.06761207500003,70.0,88.0
740,244.80332662500004,245.28725471250004,58.0,84.0
741,245.23189762500004,245.69618287500003,65.0,98.0
742,245.23189762500004,245.71761142500003,61.0,89.0
743,245.23189762500004,245.79261135000004,70.0,89.0
744,245.66046862500002,246.16582526250002,58.0,86.0
745,243.51761362500002,246.62118195000002,46.0,87.0
746,246.08903962500003,246.67832475000003,70.0,89.0
747,246.08903962500003,246.73546755000004,65.0,104.0
748,246.08903962500003,246.74261040000005,61.0,94.0
749,243.94618462500003,246.94261020000002,53.0,81.0
750,246.51761062500003,246.96761017500003,58.0,87.0
751,246.94618162500004,247.54796673750002,70.0,92.0
752,246.94618162500004,247.55689530000004,61.0,93.0
753,246.94618162500004,247.61225238750004,65.0,102.0
754,247.80332362500002,248.31225168750004,70.0,91.0
755,247.80332362500002,248.34260880000002,61.0,88.0
756,247.80332362500002,248.37832305000003,65.0,93.0
757,248.23189462500002,248.75153696250004,58.0,84.0
758,248.66046562500003,249.36225063750004,70.0,100.0
759,248.66046562500003,249.39439346250003,61.0,94.0
760,248.66046562500003,249.39975060000003,65.0,108.0
761,249.30332212500002,249.69260745000003,58.0,102.0
762,247.37475262500004,249.78546450000005,53.0,82.0
763,246.94618162500004,249.79260735000003,46.0,87.0
764,249.51760762500004,250.10689275000004,61.0,104.0
765,249.51760762500004,250.10689275000004,70.0,96.0
766,249.51760762500004,250.18546410000002,65.0,114.0
767,249.94617862500004,250.36224963750004,46.0,87.0
768,252.08903362500004,252.65153306250002,66.0,104.0
769,251.87474812500002,252.67474732500003,58.0,71.0
770,252.08903362500004,252.84974715000004,61.0,85.0
771,252.51760462500005,253.08010406250003,49.0,73.0
772,252.94617562500002,253.46581796250004,58.0,92.0
773,252.94617562500002,253.46760367500002,66.0,91.0
774,252.08903362500004,253.54081788750003,42.0,89.0
775,252.94617562500002,253.73367483750005,61.0,87.0
776,253.37474662500003,253.81581761250004,54.0,77.0
777,253.80331762500003,254.48903122500002,60.0,89.0
778,253.80331762500003,254.52653118750004,63.0,93.0
779,253.80331762500003,254.53188832500004,68.0,91.0
780,254.66045962500004,255.08010206250003,68.0,88.0
781,254.66045962500004,255.11938773750003,60.0,88.0
782,253.80331762500003,255.15153056250003,44.0,87.0
783,255.08903062500002,255.35331607500004,56.0,82.0
784,254.66045962500004,255.46403025000004,63.0,91.0
785,254.23188862500004,255.52831590000002,51.0,67.0
786,255.51760162500003,255.94795833750004,70.0,92.0
787,255.51760162500003,256.031886825,65.0,87.0
788,255.51760162500003,256.28188657500004,61.0,73.0
789,256.16045812500005,256.44974355000005,58.0,88.0
790,256.374743625,256.6336719375,60.0,113.0
791,256.589029125,256.7765289375,61.0,98.0
792,257.01760012500006,257.19259995000004,65.0,88.0
793,256.80331462500004,257.30509983750005,58.0,89.0
794,257.231885625,257.54974245000005,65.0,86.0
795,257.231885625,257.5550995875,72.0,104.0
796,257.66045662500005,257.7658136625,65.0,71.0
797,257.66045662500005,257.81224218750003,70.0,89.0
798,257.44617112500003,257.931884925,58.0,89.0
799,258.089027625,258.496170075,58.0,90.0
800,255.94617262500003,258.5658128625,53.0,73.0
801,257.874742125,258.57295571250006,73.0,113.0
802,257.874742125,258.61224138750003,65.0,91.0
803,255.51760162500003,258.62652708750005,46.0,81.0
804,258.51759862500006,258.90688395,72.0,113.0
805,258.94616962500004,259.2729550125,70.0,104.0
806,258.94616962500004,259.78902592500003,61.0,89.0
807,259.80331162500005,260.24973975000006,66.0,86.0
808,259.80331162500005,260.253311175,58.0,102.0
809,258.94616962500004,260.2979539875,42.0,86.0
810,259.58902612500003,260.34795393750005,54.0,85.0
811,260.231882625,260.66938218750005,61.0,86.0
812,259.374740625,260.68188217500006,49.0,73.0
813,260.66045362500006,261.231881625,68.0,87.0
814,260.66045362500006,261.2872387125,60.0,88.0
815,260.66045362500006,261.296167275,63.0,91.0
816,261.30331012500005,261.62473837500005,56.0,84.0
817,260.66045362500006,261.99259515000006,44.0,83.0
818,261.517595625,262.04438081250004,60.0,93.0
819,261.517595625,262.13188072500003,68.0,91.0
820,261.94616662500005,262.1515235625,56.0,82.0
821,261.08902462500004,262.22295206250004,51.0,67.0
822,263.23187962500003,263.4515222625,60.0,88.0
823,263.44616512500005,263.52116505000004,61.0,98.0
824,263.660450625,263.8283076,65.0,98.0
825,263.017594125,263.8515218625,58.0,87.0
826,263.874736125,264.16759297500005,70.0,102.0
827,264.08902162500004,264.2158072125,72.0,91.0
828,264.30330712500006,264.39973560000004,73.0,107.0
829,264.517592625,264.8300923125,77.0,104.0
830,264.73187812500004,264.86402085000003,82.0,98.0
831,264.30330712500006,264.8943779625,58.0,81.0
832,264.94616362500005,264.9854493,82.0,82.0
833,264.94616362500005,265.30866326250003,84.0,114.0
834,265.160449125,265.36937748750006,58.0,88.0
835,262.80330862500006,265.41937743750003,53.0,81.0
836,262.374737625,265.4729488125,46.0,91.0
837,265.37473462500003,265.681877175,77.0,88.0
838,265.37473462500003,265.74437711250005,85.0,114.0
839,265.803305625,266.03187682500004,85.0,108.0
840,266.44616212500006,266.78723321250004,54.0,85.0
841,266.660447625,267.26401845000004,66.0,90.0
842,265.803305625,267.26580416250005,42.0,89.0
843,266.660447625,267.28544700000003,58.0,88.0
844,267.08901862500005,267.34258980000004,54.0,82.0
845,266.660447625,267.47473252500004,61.0,92.0
846,266.23187662500004,267.5479467375,49.0,85.0
847,267.517589625,268.0158034125,63.0,100.0
848,267.517589625,268.10866046250004,68.0,94.0
849,267.517589625,268.124731875,60.0,93.0
850,267.517589625,268.846159725,44.0,87.0
851,268.37473162500004,268.9140168,68.0,91.0
852,268.37473162500004,268.92115965000005,60.0,93.0
853,268.37473162500004,269.160445125,63.0,110.0
854,268.803302625,269.22115935000005,56.0,82.0
855,267.94616062500006,269.26758787500006,51.0,77.0
856,269.23187362500005,269.7568731,70.0,93.0
857,269.23187362500005,269.78723021250005,65.0,102.0
858,269.23187362500005,270.03901567500003,61.0,90.0
859,270.08901562500006,270.53365803750006,60.0,93.0
860,270.08901562500006,270.55151516250004,65.0,91.0
861,270.51758662500004,271.01044327500006,58.0,88.0
862,270.946157625,271.45508568750006,70.0,98.0
863,270.946157625,271.49615707500004,61.0,93.0
864,271.37472862500005,271.93901377500003,58.0,86.0
865,269.660444625,272.08365648750004,53.0,74.0
866,269.23187362500005,272.20865636250005,46.0,83.0
867,271.803299625,272.27651343750006,70.0,107.0
868,271.803299625,272.303299125,61.0,110.0
869,272.23187062500006,272.54972745000003,65.0,87.0
870,272.66044162500003,273.1568697,66.0,102.0
871,272.66044162500003,273.45508368750006,61.0,91.0
872,273.089012625,273.6586549125,49.0,77.0
873,273.51758362500004,273.97294031250004,66.0,88.0
874,272.66044162500003,274.0122259875,42.0,87.0
875,273.51758362500004,274.03186882500006,58.0,92.0
876,273.51758362500004,274.089011625,54.0,86.0
877,273.51758362500004,274.33543995,61.0,84.0
878,273.946154625,274.3800827625,49.0,73.0
879,274.16044012500004,274.78365378750004,60.0,80.0
880,274.37472562500005,274.89258225000003,68.0,93.0
881,274.37472562500005,274.96043932500004,63.0,85.0
882,275.23186762500006,275.67472432500006,60.0,91.0
883,275.23186762500006,275.72650998750004,56.0,78.0
884,275.23186762500006,275.74972425000004,68.0,88.0
885,274.37472562500005,275.75329567500006,44.0,84.0
886,275.87472412500006,276.05865251250003,65.0,81.0
887,274.80329662500003,276.12115245,51.0,75.0
888,276.089009625,276.5425806,70.0,89.0
889,275.87472412500006,276.767580375,61.0,75.0
890,276.946151625,277.16222283750005,60.0,88.0
891,277.16043712500004,277.231865625,61.0,94.0
892,276.731866125,277.62472237500003,58.0,83.0
893,277.37472262500006,277.7443651125,65.0,94.0
894,277.589008125,277.753293675,70.0,92.0
895,277.80329362500004,277.90686495000006,58.0,67.0
896,277.80329362500004,278.153293275,65.0,88.0
897,277.80329362500004,278.2425789,73.0,110.0
898,278.231864625,278.39079303750003,72.0,89.0
899,278.231864625,278.39257875000004,65.0,81.0
900,278.01757912500005,278.50329292500004,58.0,81.0
901,278.44615012500003,279.46222053750006,70.0,96.0
902,279.51757762500006,279.67293461250006,77.0,117.0
903,279.731863125,279.8336487375,68.0,88.0
904,279.94614862500003,280.07114850000005,75.0,92.0
905,279.30329212500004,280.1657912625,61.0,66.0
906,278.44615012500003,280.26043402500005,65.0,80.0
907,276.51758062500005,280.2657911625,53.0,69.0
908,279.51757762500006,280.3086482625,42.0,88.0
909,276.089009625,280.3193625375,46.0,77.0
910,280.16043412500005,280.32650538750005,77.0,87.0
911,279.94614862500003,280.3443625125,49.0,68.0
912,280.374719625,280.52471947500004,54.0,78.0
913,280.374719625,280.64971935000005,80.0,100.0
914,280.80329062500005,280.92471907500004,75.0,91.0
915,281.01757612500006,281.16400455,77.0,84.0
916,281.231861625,281.3425758,84.0,104.0
917,281.231861625,281.39436146250006,82.0,102.0
918,281.44614712500004,281.58364698750006,70.0,89.0
919,281.66043262500006,281.77828965000003,75.0,88.0
920,281.874718125,281.9872180125,77.0,82.0
921,282.08900362500003,282.1979320875,84.0,100.0
922,282.08900362500003,282.285432,82.0,100.0
923,282.30328912500005,282.4407889875,70.0,98.0
924,281.231861625,282.617574525,44.0,84.0
925,282.517574625,282.63543165000004,75.0,89.0
926,282.517574625,282.74436011250003,56.0,74.0
927,282.731860125,282.81043147500003,77.0,90.0
928,281.66043262500006,282.89257425000005,51.0,70.0
929,282.94614562500004,283.10328832500005,84.0,117.0
930,283.16043112500006,283.22471677500005,70.0,73.0
931,283.374716625,283.46935938750005,75.0,87.0
932,283.58900212500004,283.68185917500006,70.0,92.0
933,283.80328762500005,283.97650173750003,77.0,117.0
934,284.017573125,284.117573025,70.0,78.0
935,284.23185862500003,284.38185847500006,75.0,107.0
936,284.017573125,284.45864411250005,58.0,87.0
937,284.44614412500005,284.553286875,70.0,96.0
938,284.66042962500006,284.68900102500004,82.0,116.0
939,284.874715125,284.99971500000004,70.0,107.0
940,284.874715125,285.13185772500003,58.0,70.0
941,285.08900062500004,285.2086433625,75.0,108.0
942,285.30328612500006,285.38185747500006,70.0,98.0
943,285.517571625,285.60685725,58.0,81.0
944,283.374716625,285.61221438750005,53.0,66.0
945,282.94614562500004,285.6836428875,46.0,82.0
946,285.73185712500003,285.896142675,70.0,94.0
947,285.517571625,285.93185692500003,80.0,113.0
948,285.94614262500005,286.05864251250006,75.0,100.0
949,286.160428125,286.23185662500003,77.0,89.0
950,286.374713625,286.57649913750004,77.0,117.0
951,286.58899912500004,286.74257040000003,70.0,88.0
952,286.80328462500006,286.90149881250005,75.0,94.0
953,287.017570125,287.138998575,77.0,87.0
954,287.23185562500004,287.50328392500006,80.0,107.0
955,287.44614112500005,287.58899812500005,70.0,107.0
956,286.374713625,287.74614082500005,42.0,91.0
957,287.660426625,287.83364073750005,75.0,104.0
958,287.23185562500004,287.89078353750006,54.0,85.0
959,287.87471212500003,287.981854875,70.0,104.0
960,286.80328462500006,288.00328342500006,49.0,82.0
961,288.08899762500005,288.30685455,82.0,116.0
962,288.30328312500006,288.45328297500004,70.0,89.0
963,288.517568625,288.67828275000005,75.0,107.0
964,288.73185412500004,288.8514968625,70.0,98.0
965,288.94613962500006,289.10685375,77.0,116.0
966,289.160425125,289.3264963875,70.0,100.0
967,288.08899762500005,289.44256770000004,44.0,86.0
968,289.37471062500003,289.52113905000004,75.0,94.0
969,288.94613962500006,289.5622104375,56.0,83.0
970,288.517568625,289.760424525,51.0,77.0
971,289.58899612500005,289.7729245125,70.0,104.0
972,289.803281625,289.99256715,84.0,116.0
973,290.017567125,290.12470987500006,70.0,70.0
974,290.23185262500004,290.39970960000005,75.0,90.0
975,290.44613812500006,290.55506658750005,70.0,88.0
976,290.660423625,290.87649483750005,82.0,113.0
977,290.87470912500004,291.05506608750005,70.0,84.0
978,291.08899462500005,291.2693515875,75.0,94.0
979,291.303280125,291.44435141250005,70.0,91.0
980,290.87470912500004,291.59256555,58.0,48.0
981,291.51756562500003,291.75506538750005,77.0,113.0
982,291.73185112500005,291.8943509625,70.0,91.0
983,291.94613662500007,292.1157793125,75.0,88.0
984,292.160422125,292.33185052500005,70.0,91.0
985,292.37470762500004,292.55327887500005,73.0,113.0
986,291.73185112500005,292.58363598750003,58.0,73.0
987,290.23185262500004,292.660421625,53.0,69.0
988,292.58899312500006,292.746135825,70.0,89.0
989,289.803281625,292.81042147500006,46.0,86.0
990,292.803278625,292.98542130000004,75.0,110.0
991,293.01756412500004,293.1479211375,70.0,96.0
992,293.23184962500005,293.39970660000006,77.0,119.0
993,293.446135125,293.65149206250004,70.0,98.0
994,293.66042062500003,293.82827760000004,75.0,94.0
995,293.87470612500005,294.02292026250007,70.0,98.0
996,294.08899162500006,294.11756302500004,80.0,100.0
997,294.08899162500006,294.29434856250003,82.0,107.0
998,294.303277125,294.503276925,70.0,84.0
999,293.23184962500005,294.62113395000006,42.0,89.0
1000,294.51756262500004,294.7014910125,75.0,94.0
1001,294.08899162500006,294.75149096250004,54.0,87.0
1002,294.73184812500006,294.91934793750005,70.0,91.0
1003,293.66042062500003,294.97291931250004,49.0,80.0
1004,294.946133625,295.15149056250004,80.0,114.0
1005,295.16041912500003,295.31934753750005,70.0,104.0
1006,295.37470462500005,295.53899017500004,75.0,89.0
1007,295.58899012500007,295.6907757375,70.0,92.0
1008,295.803275625,295.988989725,84.0,113.0
1009,296.01756112500004,296.16041812500004,70.0,87.0
1010,294.946133625,296.41934643750005,44.0,86.0
1011,296.23184662500006,296.42648928750003,75.0,86.0
1012,296.446132125,296.5443463125,70.0,88.0
1013,295.803275625,296.58541770000005,56.0,84.0
1014,295.37470462500005,296.68720331250006,51.0,75.0
1015,296.66041762500004,296.85327457500006,82.0,113.0
1016,296.87470312500005,297.01756012500005,70.0,93.0
1017,297.088988625,297.25863131250003,75.0,89.0
1018,297.30327412500003,297.47291681250005,70.0,91.0
1019,297.51755962500005,297.73184512500006,77.0,114.0
1020,297.73184512500006,297.93898777500004,70.0,92.0
1021,297.946130625,298.15148756250005,75.0,93.0
1022,298.16041612500004,298.28363028750005,70.0,88.0
1023,297.51755962500005,298.37113020000004,58.0,82.0
1024,298.37470162500006,298.63898707500005,70.0,94.0
1025,298.37470162500006,298.6550584875,77.0,110.0
1026,298.80327262500003,298.8443440125,70.0,82.0
1027,298.80327262500003,298.90505823750004,75.0,88.0
1028,298.588987125,299.05148666250005,58.0,77.0
1029,299.01755812500005,299.30505783750004,77.0,116.0
1030,299.01755812500005,299.30862926250006,70.0,104.0
1031,299.23184362500007,299.46041482500004,58.0,90.0
1032,297.088988625,299.5014862125,53.0,77.0
1033,296.66041762500004,299.61398610000003,46.0,81.0
1034,299.446129125,299.70505743750005,70.0,90.0
1035,299.66041462500004,299.83720016250004,75.0,89.0
1036,299.87470012500006,299.99255715000004,70.0,100.0
1037,300.07291421250005,300.47827095,75.0,110.0
1038,300.07291421250005,300.6121993875,42.0,88.0
1039,300.088985625,300.6121993875,42.0,87.0
1040,300.52469947500003,300.96934188750004,77.0,102.0
1041,300.52469947500003,301.5443413125,49.0,68.0
1042,300.97827045,301.54612702500003,54.0,70.0
1043,300.988984725,301.831841025,70.0,98.0
1044,301.86041242500005,302.32112625,75.0,107.0
1045,302.33719766250005,302.86398285,77.0,89.0
1046,302.86755427500003,303.70148201250004,70.0,96.0
1047,302.888982825,304.17112440000005,56.0,78.0
1048,301.87112670000005,304.20683865000007,44.0,78.0
1049,302.36398335,304.22112435,51.0,71.0
1050,303.7193391375,305.4854088,68.0,77.0
1051,305.54612302500004,305.68005146250005,65.0,42.0
1052,305.5871944125,306.00505113750006,70.0,81.0
1053,305.41040887500003,306.03362253750004,61.0,66.0
1054,306.30683655,306.45862211250005,60.0,82.0
1055,306.47647923750003,306.53540775000005,61.0,88.0
1056,306.67112190000006,306.8086217625,65.0,87.0
1057,306.85862171250005,306.93183592500003,70.0,80.0
1058,307.04612152500005,307.1514785625,72.0,86.0
1059,307.48004966250005,307.59254955000006,77.0,88.0
1060,307.7282637,307.88719211250003,82.0,83.0
1061,307.99433486250007,308.20504893750007,84.0,81.0
1062,308.2836202875,308.38004876250005,85.0,85.0
1063,308.60147711250005,308.70683415,89.0,88.0
1064,308.96397675000003,309.03361953750004,92.0,88.0
1065,309.68719031250004,309.90326152500006,82.0,70.0
1066,309.79790448750003,309.95504718750004,85.0,75.0
1067,309.88004726250006,309.96754717500005,89.0,77.0
1068,309.9514757625,310.03004711250003,94.0,92.0
1069,306.11576531250006,310.54433231250005,58.0,77.0
1070,305.8854084,310.57468942500003,53.0,67.0
1071,305.44433741250003,310.62647508750007,46.0,70.0
