,start,end,pitch,velocity
0,21.623621922916666,21.8666776,63.0,127.0
1,21.956955422916668,22.180566645833334,65.0,122.0
2,22.290288922916666,22.894455891666667,67.0,127.0
3,23.29028942291667,23.563900670833334,67.0,112.0
4,23.623622922916667,23.95417864375,65.0,117.0
5,24.290289922916667,24.581956735416668,63.0,127.0
6,24.62362342291667,24.973623597916667,62.0,107.0
7,24.956956922916667,25.3083459875,63.0,127.0
8,25.290290422916666,25.3083459875,63.0,127.0
9,25.623623922916668,25.838901808333333,63.0,122.0
10,25.956957422916666,26.193068652083333,65.0,117.0
11,26.290290922916668,26.743068927083335,67.0,127.0
12,26.95695792291667,27.143069127083333,65.0,122.0
13,27.290291422916667,27.422235933333333,67.0,127.0
14,27.62362492291667,28.08751404375,68.0,127.0
15,28.623625422916668,28.84862553541667,68.0,122.0
16,28.956958922916666,29.39445914166667,67.0,127.0
17,29.623625922916666,29.872237158333334,65.0,127.0
18,29.95695942291667,30.143070627083333,67.0,127.0
19,30.290292922916667,30.479181906250002,67.0,127.0
20,30.62362642291667,30.834737639583334,65.0,122.0
21,30.956959922916667,31.115293335416666,65.0,112.0
22,31.29029342291667,31.423626822916667,60.0,100.0
23,31.623626922916667,32.129182731250005,63.0,127.0
24,32.29029392291667,32.49723847083334,65.0,117.0
25,32.956960922916664,33.276405527083334,67.0,127.0
26,33.62362792291667,33.880572495833334,58.0,122.0
27,33.95696142291667,34.20696154791667,67.0,112.0
28,34.290294922916665,34.69585068125,65.0,127.0
29,34.95696192291667,35.063906420833334,63.0,127.0
30,35.29029542291667,35.38751769375,62.0,100.0
31,35.623628922916666,35.8250179125,63.0,127.0
32,35.95696242291667,36.10001805,63.0,127.0
33,36.29029592291667,36.450018225,63.0,127.0
34,36.623629422916665,36.79307395208333,65.0,122.0
35,36.95696292291667,37.38196313541667,67.0,127.0
36,37.62362992291667,37.74724109583333,65.0,102.0
37,37.956963422916665,38.13613017916667,67.0,117.0
38,38.29029692291667,38.71251935625,68.0,127.0
39,39.17918625625,39.383353025,68.0,127.0
40,39.62363092291667,39.972242208333334,67.0,127.0
41,39.95696442291667,40.1083533875,65.0,112.0
42,40.290297922916665,40.46529801041667,63.0,112.0
43,40.62363142291667,40.781964835416666,67.0,127.0
44,40.95696492291667,41.26113174166667,68.0,127.0
45,41.623631922916665,41.976409877083334,62.0,127.0
46,42.29029892291667,43.58891068333333,63.0,127.0
47,43.956966422916665,44.10141093958333,67.0,100.0
48,44.29029992291667,44.46252223125,67.0,102.0
49,44.62363342291667,44.71530013541667,63.0,102.0
50,44.790300172916666,45.15696702291667,65.0,100.0
51,45.290300422916665,45.43196716041667,65.0,99.0
52,45.62363392291667,45.758356212500004,65.0,102.0
53,45.95696742291667,46.04446746666667,62.0,96.0
54,46.12363417291667,46.55974550208334,63.0,127.0
55,46.623634422916666,46.75696782291667,67.0,117.0
56,46.95696792291667,47.10002355,67.0,96.0
57,47.29030142291667,47.387523693750005,63.0,117.0
58,47.45696817291667,47.818079464583334,65.0,107.0
59,47.95696842291667,48.093079602083336,65.0,107.0
60,48.29030192291667,48.42780199166667,65.0,102.0
61,48.62363542291667,48.70419101875,62.0,102.0
62,48.79030217291667,49.1333579,63.0,122.0
63,49.29030242291667,49.41530248541667,63.0,127.0
64,49.62363592291667,49.75696932291667,63.0,127.0
65,49.95696942291667,50.075025037500005,65.0,102.0
66,50.12363617291667,50.46946967916667,63.0,112.0
67,50.62363642291667,50.768080939583335,58.0,122.0
68,50.95696992291667,51.183358925,63.0,127.0
69,51.290303422916665,51.51530353541667,62.0,112.0
70,51.62363692291667,51.851414814583336,60.0,112.0
71,52.29030392291667,52.863915320833335,67.0,127.0
72,52.95697092291667,53.215304385416665,65.0,127.0
73,53.62363792291667,53.83752691875,63.0,127.0
74,53.956971422916666,54.20280487916667,65.0,127.0
75,54.62363842291667,54.76252738125,67.0,127.0
76,54.956971922916665,55.084749764583336,67.0,127.0
77,55.29030542291667,55.39447214166667,63.0,127.0
78,55.45697217291667,55.823639022916666,65.0,127.0
79,55.95697242291667,56.01947245416667,65.0,127.0
80,56.12363917291667,56.19030587291667,65.0,85.0
81,56.290305922916666,56.3916948625,65.0,107.0
82,56.62363942291667,56.72641725208334,62.0,112.0
83,56.790306172916665,56.951417364583335,63.0,127.0
84,57.29030642291667,57.4666954,67.0,100.0
85,57.62363992291667,57.77641777708334,67.0,107.0
86,57.95697342291667,58.06391792083333,63.0,127.0
87,58.123640172916666,58.35975140208333,65.0,112.0
88,58.623640422916665,58.75558493333334,65.0,127.0
89,58.95697392291667,59.08197398541667,65.0,107.0
90,59.29030742291667,59.37780746666667,62.0,99.0
91,59.45697417291667,59.6750298375,63.0,122.0
92,59.956974422916666,60.105585608333335,63.0,127.0
93,60.29030792291667,60.47780801666667,63.0,122.0
94,60.62364142291667,60.80419706875,65.0,107.0
95,60.95697492291667,61.17086391875,63.0,122.0
96,61.29030842291667,61.505586308333335,58.0,127.0
97,61.62364192291667,61.84864203541667,63.0,127.0
98,61.95697542291667,62.14030884791667,60.0,117.0
99,62.290308922916665,62.541697937500004,60.0,127.0
100,62.95697592291667,63.44864283541667,67.0,122.0
101,63.623642922916666,63.816698575000004,65.0,127.0
102,64.29030992291666,64.45975445208333,63.0,127.0
103,64.62364342291667,64.82364352291667,62.0,117.0
104,64.95697692291667,65.19031037291667,60.0,127.0
105,65.62364392291667,65.75697732291667,60.0,112.0
106,65.95697742291667,66.083366375,63.0,122.0
107,66.29031092291667,66.53336660000001,62.0,127.0
108,66.95697792291666,67.15697802291668,62.0,127.0
109,67.29031142291667,67.49864486041668,60.0,112.0
110,67.62364492291667,67.86808948958334,58.0,127.0
111,68.29031192291667,68.53753426875001,58.0,127.0
112,68.62364542291667,68.85281220416667,65.0,122.0
113,68.95697892291668,69.21253460625,63.0,127.0
114,69.62364592291667,69.850034925,60.0,117.0
115,69.95697942291667,70.19725732083333,55.0,102.0
116,70.29031292291667,70.52364637291667,56.0,127.0
117,70.95697992291667,71.18614670416667,56.0,107.0
118,71.29031342291667,71.37086901875,63.0,117.0
119,71.45698017291667,71.77225810833333,63.0,122.0
120,71.95698042291667,72.08059159583334,62.0,107.0
121,72.29031392291667,72.46114734166667,62.0,127.0
122,72.62364742291668,72.87920310625,60.0,122.0
123,73.29031442291667,74.49725947083334,58.0,117.0
124,74.95698192291667,75.16670425000001,63.0,127.0
125,75.29031542291666,75.46392662083333,62.0,122.0
126,75.62364892291667,75.91531573541667,60.0,112.0
127,76.29031592291668,76.48476046458333,60.0,122.0
128,76.62364942291667,76.81253840625,63.0,127.0
129,76.95698292291667,77.36948312916667,62.0,127.0
130,77.62364992291667,77.82087224375,62.0,117.0
131,77.95698342291666,78.13892795833334,60.0,112.0
132,78.29031692291667,78.52642815208334,58.0,127.0
133,78.95698392291666,79.47365084791667,65.0,122.0
134,79.62365092291667,79.89309550208334,63.0,127.0
135,80.29031792291667,80.47781801666667,60.0,112.0
136,80.62365142291667,80.73615147916667,62.0,127.0
137,80.79031817291667,81.10559610833333,63.0,122.0
138,81.29031842291667,81.43476293958334,63.0,127.0
139,81.62365192291666,81.74448531666667,63.0,127.0
140,81.95698542291667,82.09448549166667,62.0,127.0
141,82.29031892291667,82.48059679583334,63.0,127.0
142,82.62365242291666,82.850041425,65.0,127.0
143,82.95698592291667,83.05559708333334,67.0,122.0
144,83.29031942291667,83.88615305416667,67.0,127.0
145,83.95698642291667,84.0667087,68.0,127.0
146,84.29031992291667,84.57226450833333,67.0,127.0
147,84.62365342291668,85.46115384166667,65.0,127.0
148,85.62365392291667,85.82920958125,63.0,127.0
149,85.95698742291667,86.14865418541667,65.0,112.0
150,86.29032092291666,86.65559888333334,67.0,127.0
151,87.29032142291668,87.50282152916667,67.0,122.0
152,87.62365492291667,87.87087726875001,65.0,117.0
153,88.29032192291668,88.46254423125,63.0,127.0
154,88.62365542291667,88.79448884166666,62.0,100.0
155,88.95698892291666,89.20976682708334,63.0,127.0
156,89.29032242291667,89.4583780625,63.0,117.0
157,89.62365592291667,89.8000449,63.0,127.0
158,89.95698942291666,90.16254508125,65.0,117.0
159,90.29032292291667,90.58615640416667,67.0,127.0
160,90.95698992291668,91.10004555,65.0,122.0
161,91.29032342291667,91.42921238125,67.0,127.0
162,91.62365692291667,91.9750459875,68.0,127.0
163,92.62365742291666,92.78615750416667,68.0,127.0
164,92.95699092291667,93.3083799875,67.0,122.0
165,93.62365792291666,93.86115804166667,65.0,117.0
166,93.95699142291667,94.10282482916666,67.0,127.0
167,94.29032492291667,94.45560278333333,67.0,127.0
168,94.62365842291668,94.79588073125001,65.0,99.0
169,94.95699192291667,95.11115866666667,65.0,99.0
170,95.29032542291667,95.44449216666666,60.0,102.0
171,95.62365892291668,95.93615907916667,63.0,127.0
172,96.29032592291667,96.48199268541667,65.0,127.0
173,96.95699292291667,97.19310415208334,67.0,122.0
174,97.62365992291667,97.72365997291666,58.0,122.0
175,97.95699342291667,98.183382425,67.0,112.0
176,98.29032692291668,98.62782709166667,65.0,127.0
177,98.95699392291667,99.11254955625,63.0,127.0
178,99.29032742291668,99.44588305625,62.0,107.0
179,99.62366092291667,99.83477213958334,63.0,127.0
180,99.95699442291667,100.05699447291667,63.0,122.0
181,100.29032792291667,100.40005020000001,63.0,127.0
182,100.45699467291666,100.66116144166666,65.0,107.0
183,100.79032817291667,101.10560610833333,67.0,127.0
184,101.62366192291667,101.75560643333334,65.0,112.0
185,101.95699542291668,102.11116216666667,67.0,122.0
186,102.29032892291667,102.64032909791668,68.0,102.0
187,103.29032942291667,103.46255173125,68.0,127.0
188,103.62366292291667,103.80144078958334,67.0,122.0
189,103.95699642291667,104.14310762708334,65.0,117.0
190,104.29032992291667,104.42921888125001,63.0,122.0
191,104.62366342291666,104.81671907500001,67.0,127.0
192,104.95699692291667,105.29727487083333,68.0,127.0
193,105.62366392291668,105.83894180833333,62.0,127.0
194,106.29033092291667,107.78894278333334,63.0,127.0
195,107.95699842291667,108.10144293958334,67.0,100.0
196,108.29033192291666,108.46255423125001,67.0,102.0
197,108.62366542291667,108.71533213541667,63.0,102.0
198,108.79033217291666,109.15699902291666,65.0,100.0
199,109.29033242291668,109.43199916041667,65.0,99.0
200,109.62366592291667,109.75838821250001,65.0,102.0
201,109.95699942291667,110.04449946666666,62.0,96.0
202,110.12366617291667,110.55977750208334,63.0,127.0
203,110.62366642291667,110.75699982291667,67.0,117.0
204,110.95699992291667,111.10005555000001,67.0,96.0
205,111.29033342291667,111.38755569375,63.0,117.0
206,111.45700017291666,111.81811146458334,65.0,107.0
207,111.95700042291666,112.09311160208334,65.0,107.0
208,112.29033392291667,112.42783399166667,65.0,102.0
209,112.62366742291667,112.70422301875,62.0,102.0
210,112.79033417291667,113.1333899,63.0,122.0
211,113.29033442291667,113.41533448541666,63.0,127.0
212,113.62366792291667,113.75700132291666,63.0,127.0
213,113.95700142291668,114.0750570375,65.0,102.0
214,114.12366817291667,114.46950167916667,63.0,112.0
215,114.62366842291667,114.76811293958333,58.0,122.0
216,114.95700192291667,115.183390925,63.0,127.0
217,115.29033542291667,115.51533553541667,62.0,112.0
218,115.62366892291666,115.85144681458334,60.0,112.0
219,116.29033592291667,116.86394732083333,67.0,127.0
220,116.95700292291667,117.21533638541668,65.0,127.0
221,117.62366992291668,117.83755891875,63.0,127.0
222,117.95700342291667,118.20283687916667,65.0,127.0
223,118.62367042291667,118.76255938125,67.0,127.0
224,118.95700392291667,119.08478176458334,67.0,127.0
225,119.29033742291666,119.39450414166667,63.0,127.0
226,119.45700417291667,119.82367102291667,65.0,127.0
227,119.95700442291667,120.01950445416666,65.0,127.0
228,120.12367117291667,120.19033787291667,65.0,85.0
229,120.29033792291668,120.39172686250001,65.0,107.0
230,120.62367142291667,120.72644925208334,62.0,112.0
231,120.79033817291668,120.95144936458334,63.0,127.0
232,121.29033842291668,121.46672740000001,67.0,100.0
233,121.62367192291667,121.77644977708334,67.0,107.0
234,121.95700542291667,122.06394992083334,63.0,127.0
235,122.12367217291667,122.35978340208334,65.0,112.0
236,122.62367242291667,122.75561693333334,65.0,127.0
237,122.95700592291666,123.08200598541667,65.0,107.0
238,123.29033942291667,123.37783946666667,62.0,99.0
239,123.45700617291668,123.67506183750001,63.0,122.0
240,123.95700642291668,124.10561760833333,63.0,127.0
241,124.29033992291667,124.47784001666668,63.0,122.0
242,124.62367342291667,124.80422906875,65.0,107.0
243,124.95700692291668,125.17089591875,63.0,122.0
244,125.29034042291667,125.50561830833334,58.0,127.0
245,125.62367392291667,125.84867403541666,63.0,127.0
246,125.95700742291667,126.14034084791668,60.0,117.0
247,126.29034092291667,126.54172993750001,60.0,127.0
248,126.95700792291667,127.44867483541667,67.0,122.0
249,127.62367492291668,127.81673057500001,65.0,127.0
250,128.29034192291667,128.45978645208334,63.0,127.0
251,128.62367542291668,128.82367552291666,62.0,117.0
252,128.95700892291669,129.19034237291666,60.0,127.0
253,129.62367592291668,129.75700932291667,60.0,112.0
254,129.95700942291668,130.083398375,63.0,122.0
255,130.29034292291666,130.5333986,62.0,127.0
256,130.95700992291668,131.15701002291667,62.0,127.0
257,131.29034342291666,131.49867686041668,60.0,112.0
258,131.62367692291667,131.86812148958333,58.0,127.0
259,132.29034392291666,132.53756626875,58.0,127.0
260,132.62367742291667,132.85284420416667,65.0,122.0
261,132.95701092291668,133.21256660625,63.0,127.0
262,133.62367792291667,133.850066925,60.0,117.0
263,133.95701142291668,134.19728932083333,55.0,102.0
264,134.29034492291666,134.52367837291666,56.0,127.0
265,134.95701192291668,135.18617870416668,56.0,107.0
266,135.29034542291666,135.37090101875,63.0,117.0
267,135.45701217291668,135.77229010833335,63.0,122.0
268,135.95701242291668,136.08062359583334,62.0,107.0
269,136.29034592291669,136.46117934166668,62.0,127.0
270,136.62367942291667,136.87923510625,60.0,122.0
271,137.29034642291668,138.49729147083335,58.0,117.0
272,138.95701392291667,139.16673625,63.0,127.0
273,139.29034742291668,139.46395862083332,62.0,122.0
274,139.62368092291666,139.91534773541667,60.0,112.0
275,140.29034792291668,140.48479246458334,60.0,122.0
276,140.62368142291666,140.81257040625002,63.0,127.0
277,140.95701492291667,141.36951512916667,62.0,127.0
278,141.62368192291666,141.82090424375,62.0,117.0
279,141.95701542291667,142.13895995833334,60.0,112.0
280,142.29034892291668,142.52646015208333,58.0,127.0
281,142.95701592291667,143.47368284791668,65.0,122.0
282,143.6236829229167,143.89312750208333,63.0,127.0
283,144.29034992291668,144.47785001666668,60.0,112.0
284,144.62368342291668,144.73618347916667,62.0,127.0
285,144.79035017291667,145.10562810833335,63.0,122.0
286,145.29035042291667,145.43479493958333,63.0,127.0
287,145.62368392291668,145.74451731666667,63.0,127.0
288,145.95701742291666,146.09451749166666,62.0,127.0
289,146.29035092291667,146.48062879583333,63.0,127.0
290,146.62368442291668,146.850073425,65.0,127.0
291,146.95701792291666,147.05562908333334,67.0,122.0
292,147.29035142291667,147.88618505416667,67.0,127.0
293,147.95701842291666,148.0667407,68.0,127.0
294,148.29035192291667,148.57229650833335,67.0,127.0
295,148.62368542291668,149.46118584166666,65.0,127.0
296,149.62368592291668,149.82924158125002,63.0,127.0
297,149.95701942291666,150.14868618541666,65.0,112.0
298,150.29035292291667,150.65563088333334,67.0,127.0
299,151.29035342291667,151.50285352916669,67.0,122.0
300,151.62368692291668,151.87090926875,65.0,117.0
301,152.29035392291667,152.46257623125,63.0,127.0
302,152.62368742291667,152.79452084166667,62.0,100.0
303,152.95702092291668,153.20979882708335,63.0,127.0
304,153.29035442291666,153.4584100625,63.0,117.0
305,153.62368792291667,153.8000769,63.0,127.0
306,153.95702142291668,154.16257708125,65.0,117.0
307,154.29035492291666,154.58618840416668,67.0,127.0
308,154.95702192291668,155.10007755,65.0,122.0
309,155.29035542291666,155.42924438125002,67.0,127.0
310,155.62368892291667,155.97507798750001,68.0,127.0
311,156.62368942291667,156.78618950416669,68.0,127.0
312,156.95702292291668,157.3084119875,67.0,122.0
313,157.62368992291667,157.86119004166667,65.0,117.0
314,157.95702342291668,158.10285682916668,67.0,127.0
315,158.2903569229167,158.45563478333335,67.0,127.0
316,158.62369042291667,158.79591273125,65.0,99.0
317,158.95702392291668,159.11119066666666,65.0,99.0
318,159.29035742291668,159.44452416666667,60.0,102.0
319,159.62369092291667,159.93619107916666,63.0,127.0
320,160.29035792291668,160.48202468541666,65.0,127.0
321,160.95702492291667,161.19313615208333,67.0,122.0
322,161.62369192291666,161.72369197291667,58.0,122.0
323,161.95702542291667,162.183414425,67.0,112.0
324,162.29035892291668,162.62785909166666,65.0,127.0
325,162.95702592291667,163.11258155625,63.0,127.0
326,163.29035942291668,163.44591505625002,62.0,107.0
327,163.62369292291666,163.83480413958333,63.0,127.0
328,163.95702642291667,164.05702647291668,63.0,122.0
329,164.29035992291668,164.4000822,63.0,127.0
330,164.45702667291667,164.66119344166668,65.0,107.0
331,164.79036017291668,165.10563810833335,67.0,127.0
332,165.6236939229167,165.75563843333333,65.0,112.0
333,165.95702742291667,166.11119416666668,67.0,122.0
334,166.29036092291668,166.64036109791667,68.0,102.0
335,167.29036142291667,167.46258373125,68.0,127.0
336,167.62369492291668,167.80147278958333,67.0,122.0
337,167.95702842291666,168.14313962708334,65.0,117.0
338,168.29036192291667,168.42925088125,63.0,122.0
339,168.62369542291668,168.816751075,67.0,127.0
340,168.95702892291666,169.29730687083335,68.0,127.0
341,169.62369592291668,169.83897380833335,62.0,127.0
342,170.29036292291667,170.95702992291666,63.0,127.0
343,170.95702992291666,171.16258558125,64.0,127.0
344,171.29036342291667,171.48203018541668,66.0,112.0
345,171.62369692291668,171.98897488333333,68.0,127.0
346,172.62369742291668,172.83619752916667,68.0,122.0
347,172.9570309229167,173.20425326875,66.0,117.0
348,173.62369792291668,173.79592023125,64.0,127.0
349,173.95703142291669,174.12786484166668,63.0,100.0
350,174.29036492291667,174.54314282708333,64.0,127.0
351,174.62369842291668,174.79175406250002,64.0,117.0
352,174.95703192291668,175.1334209,64.0,127.0
353,175.29036542291666,175.49592108125,66.0,117.0
354,175.62369892291667,175.91953240416666,68.0,127.0
355,176.29036592291666,176.43342155000002,66.0,122.0
356,176.62369942291667,176.76258838125,68.0,127.0
357,176.95703292291668,177.3084219875,69.0,127.0
358,177.95703342291668,178.11953350416667,69.0,127.0
359,178.29036692291666,178.6417559875,68.0,122.0
360,178.95703392291668,179.19453404166669,66.0,117.0
361,179.29036742291666,179.43620082916667,68.0,127.0
362,179.62370092291667,179.78897878333333,68.0,127.0
363,179.95703442291668,180.12925673125,66.0,99.0
364,180.2903679229167,180.44453466666667,66.0,99.0
365,180.62370142291667,180.77786816666668,61.0,102.0
366,180.95703492291668,181.26953507916667,64.0,127.0
367,181.62370192291667,181.81536868541667,66.0,127.0
368,182.29036892291668,182.52648015208334,68.0,122.0
369,182.95703592291667,183.05703597291668,59.0,122.0
370,183.29036942291668,183.516758425,68.0,112.0
371,183.62370292291666,183.96120309166668,66.0,127.0
372,184.29036992291668,184.44592555625002,64.0,127.0
373,184.62370342291666,184.77925905625,63.0,107.0
374,184.95703692291667,185.16814813958334,64.0,127.0
375,185.29037042291668,185.3903704729167,64.0,122.0
376,185.62370392291666,185.7334262,64.0,127.0
377,185.79037067291668,185.99453744166667,66.0,107.0
378,186.12370417291666,186.43898210833333,68.0,127.0
379,186.95703792291667,187.08898243333334,66.0,112.0
380,187.29037142291668,187.44453816666666,68.0,122.0
381,187.6237049229167,187.97370509791668,69.0,102.0
382,188.6237054229167,188.79592773125,69.0,127.0
383,188.95703892291667,189.13481678958334,68.0,122.0
384,189.29037242291668,189.47648362708335,66.0,117.0
385,189.62370592291668,189.76259488125,64.0,122.0
386,189.95703942291667,190.150095075,68.0,127.0
387,190.29037292291667,190.63065087083334,69.0,127.0
388,190.95703992291666,191.17231780833333,63.0,127.0
389,191.62370692291668,193.12231878333333,64.0,127.0
