,start,end,pitch,velocity
0,11.956950422916668,12.4583395625,51.0,58.0
1,11.623616922916668,12.6416729875,39.0,70.0
2,12.290283922916666,13.0000065,70.0,47.0
3,12.623617422916666,13.005562058333334,63.0,56.0
4,13.290284422916667,13.693062402083333,50.0,53.0
5,12.956950922916667,14.156951522916668,38.0,55.0
6,13.623617922916667,14.255562683333334,70.0,76.0
7,13.956951422916667,14.329173831250001,62.0,52.0
8,14.623618422916667,15.083340875000001,60.0,56.0
9,14.290284922916667,15.365285460416667,36.0,63.0
10,15.290285422916668,15.631952260416668,60.0,66.0
11,14.956951922916668,15.650007825000001,67.0,83.0
12,15.956952422916666,16.318063714583335,58.0,40.0
13,15.623618922916668,16.6083416375,34.0,75.0
14,16.290285922916667,16.863897320833335,62.0,67.0
15,16.62361942291667,16.90278622916667,58.0,71.0
16,16.956952922916667,17.71250885625,32.0,66.0
17,17.29028642291667,17.747231095833335,56.0,64.0
18,17.623619922916667,18.20695354791667,63.0,81.0
19,17.956953422916666,18.306953597916667,56.0,73.0
20,18.623620422916666,19.07778731666667,55.0,58.0
21,18.290286922916668,19.290287422916666,43.0,70.0
22,19.290287422916666,19.613898695833335,55.0,69.0
23,18.956953922916668,19.62362092291667,62.0,93.0
24,19.62362092291667,20.1083433875,41.0,76.0
25,19.956954422916667,20.43334355,53.0,68.0
26,20.29028792291667,20.869454879166668,60.0,93.0
27,20.623621422916667,20.884732664583336,53.0,76.0
28,21.290288422916667,21.881955385416667,58.0,83.0
29,20.790288172916668,21.938899858333333,46.0,102.0
30,21.623621922916666,22.022233233333335,62.0,97.0
31,21.956955422916668,22.31251115625,65.0,92.0
32,22.623622422916668,23.0416781875,51.0,85.0
33,22.290288922916666,23.130567120833334,39.0,72.0
34,23.29028942291667,23.665289610416668,63.0,89.0
35,22.956955922916666,23.7083451875,70.0,99.0
36,23.95695642291667,24.284734364583333,50.0,63.0
37,23.95695642291667,24.383345525,62.0,82.0
38,23.623622922916667,24.851401314583335,38.0,75.0
39,24.290289922916667,24.861123541666668,70.0,102.0
40,24.62362342291667,25.04445696666667,62.0,88.0
41,25.290290422916666,25.70001285,48.0,89.0
42,25.290290422916666,25.70417951875,60.0,77.0
43,24.956956922916667,25.811124016666668,36.0,73.0
44,25.623623922916668,26.234735339583334,67.0,97.0
45,25.956957422916666,26.31945760416667,60.0,93.0
46,26.623624422916667,27.018069064583333,58.0,69.0
47,26.623624422916667,27.072235758333335,46.0,77.0
48,26.290290922916668,27.152791354166666,34.0,99.0
49,26.95695792291667,27.587513793750002,65.0,96.0
50,27.290291422916667,27.638902708333333,58.0,95.0
51,27.956958422916667,28.40418086875,44.0,89.0
52,27.62362492291667,28.57084761875,32.0,81.0
53,28.29029192291667,28.86529221041667,63.0,107.0
54,28.623625422916668,28.972236708333334,56.0,99.0
55,28.956958922916666,29.531959210416666,31.0,77.0
56,29.290292422916668,29.740292647916668,55.0,92.0
57,29.623625922916666,30.256959572916667,62.0,100.0
58,29.95695942291667,30.351404064583335,55.0,97.0
59,30.62362642291667,31.143071127083335,53.0,89.0
60,30.290292922916667,31.283348975000003,41.0,83.0
61,31.29029342291667,31.605571358333336,53.0,95.0
62,30.956959922916667,31.623626922916667,60.0,102.0
63,31.623626922916667,31.676404727083334,56.0,72.0
64,31.95696042291667,32.254182793750005,56.0,100.0
65,31.623626922916667,32.26807168958334,44.0,95.0
66,32.29029392291667,32.856960872916666,58.0,75.0
67,32.29029392291667,32.8666831,46.0,95.0
68,32.29029392291667,32.8750164375,62.0,86.0
69,33.29307220208334,33.711127966666666,51.0,85.0
70,32.959738702083335,33.8000169,39.0,72.0
71,33.959739202083334,34.33473938958333,63.0,89.0
72,33.62640570208333,34.37779496666667,70.0,99.0
73,34.62640620208334,34.952795254166666,50.0,63.0
74,34.62640620208334,35.052795304166665,62.0,82.0
75,34.293072702083336,35.519462204166665,38.0,75.0
76,34.95973970208333,35.52918443125,70.0,102.0
77,35.293073202083335,35.713906745833334,62.0,88.0
78,35.95974020208333,36.36946262916667,48.0,89.0
79,35.95974020208333,36.373629297916665,60.0,77.0
80,35.62640670208334,36.48057379583334,36.0,73.0
81,36.29307370208333,36.90279622916667,67.0,97.0
82,36.626407202083335,36.988907383333334,60.0,93.0
83,37.29307420208333,37.68612995416667,58.0,69.0
84,37.29307420208333,37.740296647916665,46.0,77.0
85,36.95974070208334,37.820852243750004,34.0,99.0
86,37.626407702083334,38.255574683333336,65.0,96.0
87,37.959741202083336,38.30696359791667,58.0,95.0
88,38.62640820208333,39.072241758333334,44.0,89.0
89,38.29307470208334,39.24029739791667,32.0,81.0
90,38.959741702083335,39.53474198958333,63.0,107.0
91,39.29307520208334,39.6416864875,56.0,99.0
92,39.62640870208333,40.2000201,31.0,77.0
93,39.95974220208333,40.40974242708334,55.0,92.0
94,40.293075702083335,40.9250204625,62.0,100.0
95,40.62640920208334,40.95696492291667,55.0,97.0
96,40.95696492291667,41.144465016666665,56.0,79.0
97,40.95696492291667,41.201409489583334,41.0,74.0
98,40.95696492291667,41.201409489583334,53.0,81.0
99,40.95696492291667,41.204187268750005,60.0,79.0
100,41.623631922916665,41.875020937500004,58.0,100.0
101,41.623631922916665,41.8916876125,62.0,82.0
102,41.623631922916665,41.90696539791667,46.0,97.0
103,41.623631922916665,41.91807651458333,65.0,75.0
104,42.62363242291667,43.630577370833336,51.0,73.0
105,42.956965922916666,43.63613292916667,70.0,99.0
106,43.29029942291667,43.63752181875,63.0,83.0
107,42.29029892291667,43.697244070833335,39.0,74.0
108,43.626410702083334,43.697244070833335,39.0,72.0
109,43.959744202083336,44.37779996666667,51.0,85.0
110,44.62641120208333,45.00141138958333,63.0,89.0
111,44.29307770208334,45.04446696666667,70.0,99.0
112,45.293078202083336,45.619467254166665,50.0,63.0
113,45.293078202083336,45.71946730416667,62.0,82.0
114,44.959744702083334,46.18613420416667,38.0,75.0
115,45.62641170208334,46.19585643125,70.0,102.0
116,45.95974520208333,46.38057874583333,62.0,88.0
117,46.62641220208334,47.03613462916667,48.0,89.0
118,46.62641220208334,47.04030129791667,60.0,77.0
119,46.293078702083335,47.147245795833335,36.0,73.0
120,46.95974570208333,47.56946822916667,67.0,97.0
121,47.293079202083334,47.65557938333333,60.0,93.0
122,47.95974620208334,48.352801954166665,58.0,69.0
123,47.95974620208334,48.40696864791667,46.0,77.0
124,47.626412702083336,48.48752424375,34.0,99.0
125,48.29307970208333,48.922246683333334,65.0,96.0
126,48.626413202083334,48.97363559791667,58.0,95.0
127,49.29308020208334,49.73891375833333,44.0,89.0
128,48.959746702083336,49.90696939791667,32.0,81.0
129,49.62641370208333,50.20141398958334,63.0,107.0
130,49.959747202083335,50.3083584875,56.0,99.0
131,50.29308070208334,50.8666921,31.0,77.0
132,50.62641420208333,51.076414427083336,55.0,92.0
133,50.959747702083334,51.5916924625,62.0,100.0
134,51.293081202083336,51.68752584375,55.0,97.0
135,51.95974820208333,52.47780401666667,53.0,89.0
136,51.62641470208334,52.61808186458334,41.0,83.0
137,52.62641520208334,52.94030424791667,53.0,95.0
138,52.293081702083335,52.95974870208334,60.0,102.0
139,52.95974870208334,53.012526506250005,56.0,72.0
140,53.29308220208333,53.58891568333333,56.0,100.0
141,52.95974870208334,53.602804579166666,44.0,95.0
142,53.626415702083335,54.19308265208333,58.0,75.0
143,53.626415702083335,54.20280487916667,46.0,95.0
144,53.626415702083335,54.21113821666667,62.0,86.0
145,54.626416202083334,55.04447196666667,51.0,85.0
146,54.29308270208333,55.1333609,39.0,72.0
147,55.29308320208334,55.66808338958334,63.0,89.0
148,54.959749702083336,55.71113896666667,70.0,99.0
149,55.959750202083335,56.28613925416667,50.0,63.0
150,55.959750202083335,56.38613930416667,62.0,82.0
151,55.62641670208333,56.85280620416667,38.0,75.0
152,56.29308370208334,56.86252843125,70.0,102.0
153,56.62641720208334,57.04725074583334,62.0,88.0
154,57.293084202083335,57.702806629166666,48.0,89.0
155,57.293084202083335,57.70697329791667,60.0,77.0
156,56.95975070208333,57.81391779583333,36.0,73.0
157,57.62641770208334,58.23614022916667,67.0,97.0
158,57.95975120208333,58.32225138333334,60.0,93.0
159,58.626418202083336,59.01947395416667,58.0,69.0
160,58.626418202083336,59.07364064791667,46.0,77.0
161,58.293084702083334,59.15419624375,34.0,99.0
162,58.95975170208334,59.58891868333333,65.0,96.0
163,59.29308520208333,59.64030759791667,58.0,95.0
164,59.95975220208334,60.40558575833334,44.0,89.0
165,59.626418702083335,60.57364139791667,32.0,81.0
166,60.29308570208334,60.868085989583335,63.0,107.0
167,60.62641920208333,60.9750304875,56.0,99.0
168,60.959752702083335,61.5333641,31.0,77.0
169,61.29308620208334,61.743086427083334,55.0,92.0
170,61.62641970208333,62.258364462500005,62.0,100.0
171,61.959753202083334,62.290308922916665,55.0,97.0
172,62.290308922916665,62.91947590416667,41.0,86.0
173,62.62364242291667,63.0916982125,53.0,81.0
174,62.95697592291667,63.34725389583333,60.0,97.0
175,63.29030942291667,63.705587408333336,53.0,95.0
176,63.623642922916666,64.02642090208333,58.0,95.0
177,63.623642922916666,64.06114314166666,62.0,96.0
178,63.95697642291667,64.44725444583334,53.0,67.0
179,63.623642922916666,64.87781021666667,46.0,83.0
180,64.62364342291667,64.89031022291667,58.0,100.0
181,64.29030992291666,64.90419911875,62.0,100.0
182,65.29031042291668,65.54586610625,60.0,90.0
183,64.95697692291667,65.70281062916666,44.0,112.0
184,65.62364392291667,65.98058854583334,56.0,112.0
185,66.12364417291667,66.28058869583333,44.0,68.0
186,65.62364392291667,66.28614425416667,68.0,97.0
187,65.62364392291667,66.30975537708333,63.0,93.0
188,66.62364442291667,66.90142233958333,58.0,70.0
189,66.29031092291667,67.08197798541667,46.0,127.0
190,66.95697792291666,67.10003355,58.0,67.0
191,66.95697792291666,67.17086691875001,65.0,95.0
192,66.95697792291666,67.18197803541666,62.0,95.0
193,67.45697817291666,67.5917004625,46.0,117.0
194,67.29031142291667,67.62781159166667,65.0,41.0
195,67.29031142291667,67.67225605833333,62.0,45.0
196,67.29031142291667,67.71947830416667,58.0,117.0
197,67.95697842291666,68.31392304583333,55.0,96.0
198,67.62364492291667,68.42781199166667,43.0,86.0
199,68.29031192291667,68.87364554791667,62.0,97.0
200,68.45697867291666,68.89864556041667,55.0,76.0
201,68.79031217291667,68.93059002083334,43.0,100.0
202,68.29031192291667,68.95975670208334,58.0,100.0
203,69.29031242291667,69.66392372083334,55.0,97.0
204,68.95697892291668,69.79170156250001,48.0,100.0
205,69.62364592291667,70.2667018,63.0,122.0
206,69.62364592291667,70.27225735833333,60.0,99.0
207,69.95697942291667,70.29031292291667,55.0,86.0
208,70.62364642291666,71.06531331041667,53.0,89.0
209,70.29031292291667,71.25420229375,41.0,97.0
210,70.79031317291667,71.27920230625,48.0,64.0
211,71.29031342291667,71.55420244375,56.0,99.0
212,70.95697992291667,71.58892468333333,60.0,102.0
213,71.45698017291667,71.60281357916666,53.0,86.0
214,71.62364692291666,72.31114726666667,44.0,92.0
215,71.95698042291667,72.41253620625,56.0,95.0
216,72.45698067291667,72.57781406666668,44.0,75.0
217,72.62364742291668,72.86253643125,56.0,96.0
218,72.29031392291667,72.90698089791667,63.0,112.0
219,72.79031417291667,72.93198091041667,60.0,63.0
220,73.29031442291667,73.66809238958334,51.0,92.0
221,73.95698142291667,74.15698152291667,58.0,93.0
222,72.95698092291667,74.19864821041666,39.0,112.0
223,73.62364792291667,74.19864821041666,63.0,127.0
224,73.79031467291667,74.26253713125,51.0,93.0
225,74.12364817291667,74.34448161666667,55.0,82.0
226,74.62364842291667,74.89725967083334,55.0,89.0
227,74.79031517291666,74.93198191041667,58.0,102.0
228,74.45698167291667,74.94864858541666,51.0,99.0
229,74.29031492291666,75.2083709375,39.0,107.0
230,75.12364867291667,75.29587098125,51.0,100.0
231,75.29031542291666,75.49587108125,58.0,112.0
232,74.95698192291667,75.56531556041666,63.0,127.0
233,75.45698217291667,75.5917044625,55.0,93.0
234,76.12364917291667,76.39448264166667,51.0,66.0
235,75.95698242291667,76.43198266041666,56.0,95.0
236,75.62364892291667,76.62087164375001,44.0,112.0
237,76.45698267291667,76.63614942916666,51.0,96.0
238,76.62364942291667,76.83892730833334,56.0,90.0
239,76.29031592291668,76.84309397708334,63.0,127.0
240,76.79031617291668,76.91253845625,60.0,78.0
241,77.45698317291667,77.64448326666667,53.0,95.0
242,77.62364992291667,77.68059439583334,65.0,62.0
243,77.62364992291667,77.95976120208334,62.0,82.0
244,77.29031642291667,77.97087231875,50.0,67.0
245,77.79031667291667,77.99031677291667,53.0,90.0
246,76.95698292291667,78.000039,46.0,102.0
247,77.95698342291666,78.19448354166667,58.0,112.0
248,78.12365017291667,78.32087249375,62.0,85.0
249,78.62365042291667,78.86531721041666,55.0,97.0
250,78.79031717291667,78.94031724791667,58.0,90.0
251,78.45698367291666,79.03476173958333,50.0,74.0
252,79.12365067291667,79.24170628750001,50.0,81.0
253,78.29031692291667,79.28059519583334,43.0,88.0
254,79.29031742291667,79.49170641250001,58.0,102.0
255,78.95698392291666,79.49726197083334,62.0,99.0
256,79.45698417291666,79.72226208333333,55.0,93.0
257,80.12365117291667,80.30559570833334,55.0,89.0
258,79.95698442291668,80.34448461666668,48.0,76.0
259,79.62365092291667,80.62087364375,36.0,79.0
260,79.79031767291667,80.63615142916667,43.0,74.0
261,80.29031792291667,80.84865153541666,63.0,117.0
262,80.62365142291667,80.85281820416667,60.0,95.0
263,80.45698467291668,80.87920710625,48.0,93.0
264,80.79031817291667,80.93059602083333,55.0,89.0
265,81.29031842291667,81.54170743750001,53.0,89.0
266,81.45698517291667,81.59448524166667,56.0,96.0
267,81.12365167291667,81.69031862291666,48.0,82.0
268,80.95698492291667,82.17087441875,41.0,76.0
269,81.95698542291667,82.23337445,56.0,96.0
270,81.62365192291666,82.24309667708333,60.0,99.0
271,82.12365217291666,82.26115224166666,53.0,75.0
272,81.79031867291667,82.26809668958333,48.0,81.0
273,82.62365242291666,82.83893030833333,53.0,96.0
274,82.79031917291667,82.94726369583334,56.0,90.0
275,82.45698567291667,83.04726374583333,48.0,70.0
276,83.12365267291666,83.26115274166666,48.0,83.0
277,82.29031892291667,83.26254163125,41.0,74.0
278,82.95698592291667,83.49587508125,60.0,100.0
279,83.29031942291667,83.51254175625,56.0,127.0
280,83.45698617291667,83.58893068333333,53.0,89.0
281,84.12365317291668,84.283375475,58.0,89.0
282,83.95698642291667,84.30281992916667,53.0,99.0
283,84.29031992291667,84.6583756625,65.0,112.0
284,84.45698667291667,84.83476463958334,53.0,97.0
285,83.62365292291668,84.86115354166667,46.0,107.0
286,84.79032017291667,84.89587578125,58.0,107.0
287,84.62365342291668,84.90143133958334,62.0,100.0
288,83.79031967291667,84.91393134583333,50.0,63.0
289,84.95698692291667,85.38059824583334,53.0,93.0
290,84.95698692291667,85.450042725,58.0,99.0
291,84.95698692291667,85.48476496458333,62.0,97.0
292,84.95698692291667,85.48615385416667,65.0,99.0
293,85.45698717291667,85.63615392916667,53.0,89.0
294,85.62365392291667,85.86115404166667,58.0,100.0
295,85.29032042291666,86.10559860833334,50.0,102.0
296,85.79032067291666,86.11393194583334,53.0,102.0
297,84.95698692291667,86.12643195208334,46.0,112.0
298,85.95698742291667,86.19587643125,62.0,97.0
299,86.12365417291667,86.26115424166667,58.0,112.0
300,86.79032117291666,86.97226570833334,63.0,92.0
301,86.62365442291667,87.03754351875,51.0,86.0
302,86.45698767291667,87.10976577708334,46.0,66.0
303,86.95698792291667,87.16671025000001,70.0,102.0
304,86.29032092291666,87.16809913958333,39.0,85.0
305,87.29032142291668,87.42921038125,67.0,68.0
306,87.12365467291667,87.4750437375,63.0,99.0
307,87.45698817291667,87.62921048125,70.0,100.0
308,87.62365492291667,87.87643282708333,38.0,89.0
309,87.95698842291667,88.20421076875,62.0,82.0
310,88.12365517291667,88.27782191666667,67.0,90.0
311,87.79032167291668,88.47643312708334,43.0,95.0
312,88.29032192291668,88.51393314583333,70.0,127.0
313,88.45698867291667,88.60698874791667,67.0,89.0
314,88.62365542291667,88.87782221666667,62.0,95.0
315,88.79032217291667,88.94448891666667,70.0,112.0
316,88.95698892291666,89.60976702708334,36.0,66.0
317,89.12365567291667,89.67782261666667,43.0,86.0
318,89.29032242291667,89.67921150625,48.0,95.0
319,89.45698917291666,89.67921150625,60.0,88.0
320,89.62365592291667,89.87782271666667,67.0,88.0
321,89.79032267291667,89.96393387083333,63.0,112.0
322,89.95698942291666,90.14726729583333,60.0,107.0
323,90.12365617291667,90.24448956666667,67.0,97.0
324,90.79032317291667,91.02365662291668,58.0,97.0
325,90.95698992291668,91.17504558750001,62.0,73.0
326,90.62365642291667,91.18060114583334,53.0,92.0
327,90.45698967291666,91.19865671041667,50.0,82.0
328,90.29032292291667,91.2583789625,46.0,100.0
329,91.12365667291667,91.40282347916667,65.0,97.0
330,91.29032342291667,91.53754576875001,62.0,74.0
331,91.45699017291668,91.56254578125001,58.0,92.0
332,91.62365692291667,91.85143481458334,44.0,112.0
333,92.12365717291667,92.29865726041668,60.0,78.0
334,92.29032392291667,92.49865736041667,68.0,127.0
335,92.45699067291667,92.6000463,63.0,122.0
336,91.95699042291668,92.65421299375001,51.0,100.0
337,91.95699042291668,92.70421301875,44.0,25.0
338,91.79032367291667,92.78615750416667,48.0,66.0
339,92.62365742291666,92.80560195833334,60.0,96.0
340,92.79032417291667,92.93476868958334,68.0,122.0
341,93.45699117291667,93.66949127916666,58.0,107.0
342,93.29032442291667,93.73615797916668,55.0,76.0
343,93.62365792291666,93.88754694375001,65.0,100.0
344,93.12365767291666,94.06671370000001,50.0,88.0
345,93.79032467291667,94.07226925833334,62.0,85.0
346,93.95699142291667,94.17643597708334,58.0,88.0
347,92.95699092291667,94.18893598333334,43.0,85.0
348,94.12365817291666,94.216713775,55.0,77.0
349,94.62365842291668,94.90976967708333,53.0,85.0
350,94.79032517291667,94.92921413125,56.0,85.0
351,94.45699167291667,95.03893640833334,48.0,88.0
352,94.29032492291667,95.24588095625,41.0,89.0
353,95.12365867291668,95.30421431875,48.0,68.0
354,95.29032542291667,95.46254773125,56.0,112.0
355,94.95699192291667,95.50976997708334,60.0,100.0
356,95.45699217291667,95.57782556666668,53.0,79.0
357,95.62365892291668,96.15421474375,44.0,107.0
358,95.95699242291667,96.16532586041667,56.0,96.0
359,96.12365917291667,96.22643700208333,63.0,75.0
360,96.62365942291667,96.81254840625,58.0,107.0
361,96.29032592291667,96.87365954791667,46.0,112.0
362,96.79032617291666,96.93615957916667,62.0,85.0
363,97.45699317291667,97.63893770833333,63.0,92.0
364,97.29032642291666,97.70421551875,51.0,86.0
365,97.12365967291667,97.77643777708333,46.0,66.0
366,97.62365992291667,97.83338225,70.0,102.0
367,96.95699292291667,97.83477113958334,39.0,85.0
368,97.95699342291667,98.09588238125001,67.0,68.0
369,97.79032667291666,98.14171573750001,63.0,99.0
370,98.12366017291667,98.29588248125,70.0,100.0
371,98.29032692291668,98.54310482708334,38.0,89.0
372,98.62366042291667,98.87088276875001,62.0,82.0
373,98.79032717291668,98.94449391666667,67.0,90.0
374,98.45699367291667,99.14310512708333,43.0,95.0
375,98.95699392291667,99.18060514583334,70.0,127.0
376,99.12366067291667,99.27366074791667,67.0,89.0
377,99.29032742291668,99.54449421666666,62.0,95.0
378,99.45699417291667,99.61116091666668,70.0,112.0
379,99.62366092291667,100.27643902708334,36.0,66.0
380,99.79032767291667,100.34449461666667,43.0,86.0
381,99.95699442291667,100.34588350625,48.0,95.0
382,100.12366117291667,100.34588350625,60.0,88.0
383,100.29032792291667,100.54449471666668,67.0,88.0
384,100.45699467291666,100.63060587083334,63.0,112.0
385,100.62366142291667,100.81393929583334,60.0,107.0
386,100.79032817291667,100.91116156666666,67.0,97.0
387,101.45699517291666,101.69032862291667,58.0,97.0
388,101.62366192291667,101.8417175875,62.0,73.0
389,101.29032842291667,101.84727314583334,53.0,92.0
390,101.12366167291667,101.86532871041668,50.0,82.0
391,100.95699492291666,101.92505096250001,46.0,100.0
392,101.79032867291667,102.06949547916668,65.0,97.0
393,101.95699542291668,102.20421776875,62.0,74.0
394,102.12366217291667,102.22921778125,58.0,92.0
395,102.29032892291667,102.51810681458333,44.0,112.0
396,102.79032917291667,102.96532926041667,60.0,78.0
397,102.95699592291668,103.16532936041666,68.0,127.0
398,103.12366267291667,103.26671830000001,63.0,122.0
399,102.62366242291667,103.32088499375,51.0,100.0
400,102.62366242291667,103.37088501875,44.0,25.0
401,102.45699567291668,103.45282950416667,48.0,66.0
402,103.29032942291667,103.47227395833333,60.0,96.0
403,103.45699617291667,103.60144068958334,68.0,122.0
404,104.12366317291666,104.33616327916667,58.0,107.0
405,103.95699642291667,104.40282997916667,55.0,76.0
406,104.29032992291667,104.55421894375,65.0,100.0
407,103.79032967291667,104.7333857,50.0,88.0
408,104.45699667291667,104.73894125833334,62.0,85.0
409,104.62366342291666,104.84310797708333,58.0,88.0
410,103.62366292291667,104.85560798333334,43.0,85.0
411,104.79033017291667,104.88338577500001,55.0,77.0
412,105.12366367291666,105.350052675,53.0,90.0
413,104.95699692291667,105.36949712916667,41.0,92.0
414,105.29033042291667,105.40283047916667,56.0,99.0
415,105.29033042291667,105.49033052291666,60.0,100.0
416,105.79033067291667,106.07088636875001,53.0,71.0
417,105.62366392291668,106.14866418541666,46.0,127.0
418,105.95699742291667,106.19866421041667,62.0,88.0
419,106.12366417291668,106.25283090416667,58.0,117.0
420,106.79033117291667,107.01949795416667,55.0,79.0
421,106.62366442291668,107.04033129791667,51.0,92.0
422,106.12366417291668,107.40144258958334,39.0,76.0
423,106.29033092291667,107.48477596458333,46.0,66.0
424,107.12366467291668,107.61255380625,51.0,86.0
425,106.95699792291667,107.62227603333334,63.0,99.0
426,107.45699817291667,107.62366492291667,55.0,70.0
427,107.29033142291667,107.62366492291667,58.0,102.0
428,107.95977620208333,108.37783196666668,51.0,85.0
429,107.62644270208334,108.4667209,39.0,72.0
430,108.62644320208334,109.00144338958334,63.0,89.0
431,108.29310970208334,109.04449896666667,70.0,99.0
432,109.29311020208334,109.61949925416667,50.0,63.0
433,109.29311020208334,109.71949930416667,62.0,82.0
434,108.95977670208333,110.18616620416667,38.0,75.0
435,109.62644370208334,110.19588843125,70.0,102.0
436,109.95977720208333,110.38061074583334,62.0,88.0
437,110.62644420208333,111.03616662916667,48.0,89.0
438,110.62644420208333,111.04033329791667,60.0,77.0
439,110.29311070208334,111.14727779583333,36.0,73.0
440,110.95977770208334,111.56950022916666,67.0,97.0
441,111.29311120208334,111.65561138333334,60.0,93.0
442,111.95977820208334,112.35283395416667,58.0,69.0
443,111.95977820208334,112.40700064791668,46.0,77.0
444,111.62644470208333,112.48755624375,34.0,99.0
445,112.29311170208334,112.92227868333333,65.0,96.0
446,112.62644520208333,112.97366759791667,58.0,95.0
447,113.29311220208334,113.73894575833334,44.0,89.0
448,112.95977870208334,113.90700139791667,32.0,81.0
449,113.62644570208333,114.20144598958333,63.0,107.0
450,113.95977920208334,114.3083904875,56.0,99.0
451,114.29311270208333,114.8667241,31.0,77.0
452,114.62644620208334,115.07644642708334,55.0,92.0
453,114.95977970208334,115.59172446250001,62.0,100.0
454,115.29311320208333,115.68755784375,55.0,97.0
455,115.95978020208334,116.47783601666667,53.0,89.0
456,115.62644670208334,116.61811386458334,41.0,83.0
457,116.62644720208334,116.94033624791668,53.0,95.0
458,116.29311370208333,116.95978070208334,60.0,102.0
459,116.95978070208334,117.01255850625,56.0,72.0
460,117.29311420208333,117.58894768333333,56.0,100.0
461,116.95978070208334,117.60283657916668,44.0,95.0
462,117.62644770208334,118.19311465208334,58.0,75.0
463,117.62644770208334,118.20283687916667,46.0,95.0
464,117.62644770208334,118.21117021666667,62.0,86.0
465,118.62644820208334,119.04450396666667,51.0,85.0
466,118.29311470208334,119.1333929,39.0,72.0
467,119.29311520208334,119.66811538958333,63.0,89.0
468,118.95978170208333,119.71117096666667,70.0,99.0
469,119.95978220208333,120.28617125416667,50.0,63.0
470,119.95978220208333,120.38617130416667,62.0,82.0
471,119.62644870208334,120.85283820416667,38.0,75.0
472,120.29311570208334,120.86256043125,70.0,102.0
473,120.62644920208334,121.04728274583334,62.0,88.0
474,121.29311620208334,121.70283862916668,48.0,89.0
475,121.29311620208334,121.70700529791667,60.0,77.0
476,120.95978270208333,121.81394979583334,36.0,73.0
477,121.62644970208333,122.23617222916667,67.0,97.0
478,121.95978320208334,122.32228338333334,60.0,93.0
479,122.62645020208333,123.01950595416668,58.0,69.0
480,122.62645020208333,123.07367264791667,46.0,77.0
481,122.29311670208334,123.15422824375,34.0,99.0
482,122.95978370208334,123.58895068333334,65.0,96.0
483,123.29311720208334,123.64033959791666,58.0,95.0
484,123.95978420208334,124.40561775833334,44.0,89.0
485,123.62645070208333,124.57367339791666,32.0,81.0
486,124.29311770208334,124.86811798958334,63.0,107.0
487,124.62645120208333,124.97506248750001,56.0,99.0
488,124.95978470208334,125.5333961,31.0,77.0
489,125.29311820208333,125.74311842708333,55.0,92.0
490,125.62645170208334,126.2583964625,62.0,100.0
491,125.95978520208334,126.29034092291667,55.0,97.0
492,126.29034092291667,126.91950790416666,41.0,86.0
493,126.62367442291666,127.09173021250001,53.0,81.0
494,126.95700792291667,127.34728589583334,60.0,97.0
495,127.29034142291667,127.70561940833333,53.0,95.0
496,127.62367492291668,128.02645290208335,58.0,95.0
497,127.62367492291668,128.06117514166667,62.0,96.0
498,127.95700842291667,128.44728644583333,53.0,67.0
499,127.62367492291668,128.87784221666666,46.0,83.0
500,128.62367542291668,128.89034222291667,58.0,100.0
501,128.29034192291667,128.90423111875,62.0,100.0
502,129.29034242291667,129.54589810625,60.0,90.0
503,128.95700892291669,129.70284262916667,44.0,112.0
504,129.62367592291668,129.98062054583335,56.0,112.0
505,130.12367617291667,130.28062069583333,44.0,68.0
506,129.62367592291668,130.28617625416666,68.0,97.0
507,129.62367592291668,130.30978737708332,63.0,93.0
508,130.62367642291667,130.90145433958332,58.0,70.0
509,130.29034292291666,131.08200998541668,46.0,127.0
510,130.95700992291668,131.10006555,58.0,67.0
511,130.95700992291668,131.17089891875,65.0,95.0
512,130.95700992291668,131.18201003541668,62.0,95.0
513,131.45701017291668,131.5917324625,46.0,117.0
514,131.29034342291666,131.62784359166668,65.0,41.0
515,131.29034342291666,131.67228805833335,62.0,45.0
516,131.29034342291666,131.71951030416668,58.0,117.0
517,131.95701042291668,132.31395504583332,55.0,96.0
518,131.62367692291667,132.42784399166666,43.0,86.0
519,132.29034392291666,132.87367754791669,62.0,97.0
520,132.45701067291668,132.89867756041667,55.0,76.0
521,132.79034417291666,132.93062202083334,43.0,100.0
522,132.29034392291666,132.95978870208333,58.0,100.0
523,133.29034442291666,133.66395572083334,55.0,97.0
524,132.95701092291668,133.7917335625,48.0,100.0
525,133.62367792291667,134.2667338,63.0,122.0
526,133.62367792291667,134.27228935833332,60.0,99.0
527,133.95701142291668,134.29034492291666,55.0,86.0
528,134.62367842291667,135.06534531041666,53.0,89.0
529,134.29034492291666,135.25423429375002,41.0,97.0
530,134.79034517291666,135.27923430625,48.0,64.0
531,135.29034542291666,135.55423444375,56.0,99.0
532,134.95701192291668,135.58895668333335,60.0,102.0
533,135.45701217291668,135.60284557916668,53.0,86.0
534,135.62367892291667,136.31117926666667,44.0,92.0
535,135.95701242291668,136.41256820625,56.0,95.0
536,136.45701267291668,136.57784606666667,44.0,75.0
537,136.62367942291667,136.86256843125,56.0,96.0
538,136.29034592291669,136.90701289791667,63.0,112.0
539,136.79034617291668,136.93201291041666,60.0,63.0
540,137.29034642291668,137.66812438958334,51.0,92.0
541,137.95701342291667,138.15701352291669,58.0,93.0
542,136.95701292291668,138.19868021041668,39.0,112.0
543,137.62367992291666,138.19868021041668,63.0,127.0
544,137.79034667291668,138.26256913125002,51.0,93.0
545,138.12368017291666,138.34451361666666,55.0,82.0
546,138.62368042291666,138.89729167083334,55.0,89.0
547,138.79034717291668,138.93201391041669,58.0,102.0
548,138.45701367291667,138.94868058541667,51.0,99.0
549,138.29034692291668,139.2084029375,39.0,107.0
550,139.12368067291666,139.29590298125,51.0,100.0
551,139.29034742291668,139.49590308125,58.0,112.0
552,138.95701392291667,139.56534756041668,63.0,127.0
553,139.45701417291667,139.5917364625,55.0,93.0
554,140.12368117291666,140.39451464166666,51.0,66.0
555,139.95701442291667,140.43201466041668,56.0,95.0
556,139.62368092291666,140.62090364375,44.0,112.0
557,140.45701467291667,140.63618142916667,51.0,96.0
558,140.62368142291666,140.83895930833333,56.0,90.0
559,140.29034792291668,140.84312597708333,63.0,127.0
560,140.79034817291668,140.91257045625,60.0,78.0
561,141.45701517291667,141.64451526666667,53.0,95.0
562,141.62368192291666,141.68062639583334,65.0,62.0
563,141.62368192291666,141.95979320208335,62.0,82.0
564,141.29034842291668,141.97090431875,50.0,67.0
565,141.79034867291668,141.99034877291666,53.0,90.0
566,140.95701492291667,142.000071,46.0,102.0
567,141.95701542291667,142.19451554166668,58.0,112.0
568,142.12368217291666,142.32090449375,62.0,85.0
569,142.62368242291666,142.86534921041667,55.0,97.0
570,142.79034917291668,142.94034924791669,58.0,90.0
571,142.45701567291667,143.03479373958334,50.0,74.0
572,143.12368267291666,143.2417382875,50.0,81.0
573,142.29034892291668,143.28062719583335,43.0,88.0
574,143.29034942291668,143.4917384125,58.0,102.0
575,142.95701592291667,143.49729397083334,62.0,99.0
576,143.45701617291667,143.72229408333334,55.0,93.0
577,144.12368317291669,144.30562770833333,55.0,89.0
578,143.95701642291667,144.34451661666668,48.0,76.0
579,143.6236829229167,144.62090564375,36.0,79.0
580,143.79034967291668,144.63618342916666,43.0,74.0
581,144.29034992291668,144.84868353541668,63.0,117.0
582,144.62368342291668,144.85285020416669,60.0,95.0
583,144.45701667291667,144.87923910625,48.0,93.0
584,144.79035017291667,144.93062802083332,55.0,89.0
585,145.29035042291667,145.5417394375,53.0,89.0
586,145.45701717291666,145.59451724166667,56.0,96.0
587,145.12368367291668,145.69035062291667,48.0,82.0
588,144.95701692291667,146.17090641875,41.0,76.0
589,145.95701742291666,146.23340645000002,56.0,96.0
590,145.62368392291668,146.24312867708335,60.0,99.0
591,146.12368417291668,146.26118424166668,53.0,75.0
592,145.79035067291667,146.26812868958334,48.0,81.0
593,146.62368442291668,146.83896230833335,53.0,96.0
594,146.79035117291667,146.94729569583333,56.0,90.0
595,146.45701767291666,147.04729574583334,48.0,70.0
596,147.12368467291668,147.26118474166668,48.0,83.0
597,146.29035092291667,147.26257363125,41.0,74.0
598,146.95701792291666,147.49590708125,60.0,100.0
599,147.29035142291667,147.51257375625,56.0,127.0
600,147.45701817291666,147.58896268333334,53.0,89.0
601,148.12368517291668,148.28340747500002,58.0,89.0
602,147.95701842291666,148.30285192916668,53.0,99.0
603,148.29035192291667,148.6584076625,65.0,112.0
604,148.45701867291666,148.83479663958335,53.0,97.0
605,147.62368492291668,148.86118554166669,46.0,107.0
606,148.79035217291667,148.89590778125,58.0,107.0
607,148.62368542291668,148.90146333958333,62.0,100.0
608,147.79035167291667,148.91396334583334,50.0,63.0
609,148.95701892291666,149.38063024583334,53.0,93.0
610,148.95701892291666,149.450074725,58.0,99.0
611,148.95701892291666,149.48479696458332,62.0,97.0
612,148.95701892291666,149.48618585416668,65.0,99.0
613,149.45701917291666,149.6361859291667,53.0,89.0
614,149.62368592291668,149.86118604166668,58.0,100.0
615,149.29035242291667,150.10563060833334,50.0,102.0
616,149.79035267291667,150.11396394583335,53.0,102.0
617,148.95701892291666,150.12646395208333,46.0,112.0
618,149.95701942291666,150.19590843125002,62.0,97.0
619,150.12368617291668,150.26118624166668,58.0,112.0
620,150.79035317291667,150.97229770833334,63.0,92.0
621,150.62368642291668,151.03757551875,51.0,86.0
622,150.45701967291666,151.10979777708334,46.0,66.0
623,150.9570199229167,151.16674225,70.0,102.0
624,150.29035292291667,151.16813113958335,39.0,85.0
625,151.29035342291667,151.42924238125,67.0,68.0
626,151.12368667291668,151.4750757375,63.0,99.0
627,151.45702017291669,151.62924248125,70.0,100.0
628,151.62368692291668,151.87646482708334,38.0,89.0
629,151.95702042291668,152.20424276875,62.0,82.0
630,152.12368717291668,152.2778539166667,67.0,90.0
631,151.79035367291667,152.47646512708334,43.0,95.0
632,152.29035392291667,152.51396514583334,70.0,127.0
633,152.45702067291668,152.60702074791666,67.0,89.0
634,152.62368742291667,152.87785421666666,62.0,95.0
635,152.79035417291666,152.94452091666668,70.0,112.0
636,152.95702092291668,153.60979902708334,36.0,66.0
637,153.12368767291667,153.67785461666668,43.0,86.0
638,153.29035442291666,153.67924350625,48.0,95.0
639,153.45702117291668,153.67924350625,60.0,88.0
640,153.62368792291667,153.87785471666666,67.0,88.0
641,153.79035467291666,153.96396587083333,63.0,112.0
642,153.95702142291668,154.14729929583334,60.0,107.0
643,154.12368817291667,154.24452156666666,67.0,97.0
644,154.79035517291666,155.02368862291667,58.0,97.0
645,154.95702192291668,155.1750775875,62.0,73.0
646,154.62368842291667,155.18063314583333,53.0,92.0
647,154.45702167291668,155.19868871041666,50.0,82.0
648,154.29035492291666,155.2584109625,46.0,100.0
649,155.12368867291667,155.40285547916667,65.0,97.0
650,155.29035542291666,155.53757776875,62.0,74.0
651,155.45702217291668,155.56257778125,58.0,92.0
652,155.62368892291667,155.85146681458335,44.0,112.0
653,156.12368917291667,156.29868926041667,60.0,78.0
654,156.29035592291666,156.49868936041668,68.0,127.0
655,156.45702267291668,156.6000783,63.0,122.0
656,155.95702242291668,156.65424499375,51.0,100.0
657,155.95702242291668,156.70424501875002,44.0,25.0
658,155.79035567291666,156.78618950416669,48.0,66.0
659,156.62368942291667,156.80563395833335,60.0,96.0
660,156.79035617291666,156.93480068958334,68.0,122.0
661,157.45702317291668,157.66952327916667,58.0,107.0
662,157.29035642291666,157.73618997916668,55.0,76.0
663,157.62368992291667,157.88757894375001,65.0,100.0
664,157.12368967291667,158.0667457,50.0,88.0
665,157.79035667291666,158.07230125833334,62.0,85.0
666,157.95702342291668,158.17646797708335,58.0,88.0
667,156.95702292291668,158.18896798333333,43.0,85.0
668,158.12369017291667,158.216745775,55.0,77.0
669,158.62369042291667,158.90980167708335,53.0,85.0
670,158.79035717291669,158.92924613125,56.0,85.0
671,158.45702367291668,159.03896840833335,48.0,88.0
672,158.2903569229167,159.24591295625,41.0,89.0
673,159.12369067291667,159.30424631875002,48.0,68.0
674,159.29035742291668,159.46257973125,56.0,112.0
675,158.95702392291668,159.50980197708333,60.0,100.0
676,159.45702417291668,159.57785756666667,53.0,79.0
677,159.62369092291667,160.15424674375,44.0,107.0
678,159.95702442291667,160.16535786041666,56.0,96.0
679,160.12369117291666,160.22646900208335,63.0,75.0
680,160.62369142291666,160.81258040625,58.0,107.0
681,160.29035792291668,160.87369154791668,46.0,112.0
682,160.79035817291668,160.93619157916666,62.0,85.0
683,161.45702517291667,161.63896970833335,63.0,92.0
684,161.29035842291668,161.70424751875,51.0,86.0
685,161.12369167291666,161.77646977708335,46.0,66.0
686,161.62369192291666,161.83341425,70.0,102.0
687,160.95702492291667,161.83480313958333,39.0,85.0
688,161.95702542291667,162.09591438125,67.0,68.0
689,161.79035867291668,162.1417477375,63.0,99.0
690,162.12369217291666,162.29591448125,70.0,100.0
691,162.29035892291668,162.54313682708334,38.0,89.0
692,162.62369242291666,162.87091476875,62.0,82.0
693,162.79035917291668,162.94452591666666,67.0,90.0
694,162.45702567291667,163.14313712708335,43.0,95.0
695,162.95702592291667,163.18063714583334,70.0,127.0
696,163.12369267291666,163.27369274791667,67.0,89.0
697,163.29035942291668,163.54452621666667,62.0,95.0
698,163.45702617291667,163.61119291666668,70.0,112.0
699,163.62369292291666,164.27647102708335,36.0,66.0
700,163.79035967291668,164.34452661666668,43.0,86.0
701,163.95702642291667,164.34591550625,48.0,95.0
702,164.12369317291666,164.34591550625,60.0,88.0
703,164.29035992291668,164.54452671666667,67.0,88.0
704,164.45702667291667,164.63063787083334,63.0,112.0
705,164.62369342291666,164.81397129583334,60.0,107.0
706,164.79036017291668,164.91119356666667,67.0,97.0
707,165.45702717291667,165.69036062291667,58.0,97.0
708,165.6236939229167,165.8417495875,62.0,73.0
709,165.29036042291668,165.84730514583333,53.0,92.0
710,165.12369367291666,165.86536071041667,50.0,82.0
711,164.95702692291667,165.9250829625,46.0,100.0
712,165.79036067291668,166.06952747916668,65.0,97.0
713,165.95702742291667,166.20424976875,62.0,74.0
714,166.1236941729167,166.22924978125002,58.0,92.0
715,166.29036092291668,166.51813881458335,44.0,112.0
716,166.79036117291668,166.96536126041667,60.0,78.0
717,166.95702792291667,167.16536136041668,68.0,127.0
718,167.12369467291668,167.2667503,63.0,122.0
719,166.62369442291669,167.32091699375002,51.0,100.0
720,166.62369442291669,167.37091701875,44.0,25.0
721,166.45702767291667,167.45286150416666,48.0,66.0
722,167.29036142291667,167.47230595833335,60.0,96.0
723,167.45702817291667,167.60147268958335,68.0,122.0
724,168.12369517291668,168.33619527916667,58.0,107.0
725,167.95702842291666,168.40286197916666,55.0,76.0
726,168.29036192291667,168.55425094375002,65.0,100.0
727,167.79036167291667,168.73341770000002,50.0,88.0
728,168.45702867291666,168.73897325833335,62.0,85.0
729,168.62369542291668,168.84313997708333,58.0,88.0
730,167.62369492291668,168.85563998333333,43.0,85.0
731,168.79036217291667,168.883417775,55.0,77.0
732,169.12369567291668,169.350084675,53.0,90.0
733,168.95702892291666,169.36952912916666,41.0,92.0
734,169.29036242291667,169.40286247916669,56.0,99.0
735,169.29036242291667,169.49036252291668,60.0,100.0
736,169.79036267291667,170.07091836875,53.0,71.0
737,169.62369592291668,170.14869618541667,46.0,127.0
738,169.95702942291666,170.19869621041667,62.0,88.0
739,170.12369617291668,170.25286290416668,58.0,117.0
740,170.29036292291667,170.65286310416667,51.0,107.0
741,170.62369642291668,170.75702982291668,63.0,100.0
742,170.95702992291666,171.55564133333334,63.0,117.0
743,170.95702992291666,171.55980800208334,47.0,117.0
744,170.95702992291666,171.56675245,66.0,122.0
745,170.95702992291666,171.58619690416668,59.0,122.0
746,172.12369717291668,172.30564170833333,64.0,92.0
747,171.95703042291666,172.37091951875001,52.0,86.0
748,171.79036367291667,172.44314177708333,47.0,66.0
749,172.29036392291667,172.50008625,71.0,102.0
750,171.62369692291668,172.50147513958333,40.0,85.0
751,172.62369742291668,172.76258638125,68.0,68.0
752,172.45703067291666,172.8084197375,64.0,99.0
753,172.79036417291667,172.96258648125,71.0,100.0
754,173.29036442291667,173.53758676875,63.0,82.0
755,173.4570311729167,173.61119791666667,68.0,90.0
756,173.62369792291668,173.84730914583335,71.0,127.0
757,173.79036467291667,173.94036474791668,68.0,89.0
758,173.29036442291667,173.97647587708335,44.0,95.0
759,172.9570309229167,174.04453146666668,39.0,89.0
760,173.95703142291669,174.21119821666667,63.0,95.0
761,174.12369817291668,174.2778649166667,71.0,112.0
762,174.29036492291667,174.94314302708335,37.0,66.0
763,174.62369842291668,175.01258750625001,49.0,95.0
764,174.79036517291667,175.01258750625001,61.0,88.0
765,174.62369842291668,175.17786536666668,44.0,86.0
766,174.95703192291668,175.21119871666667,68.0,88.0
767,175.12369867291667,175.29730987083335,64.0,112.0
768,175.29036542291666,175.48064329583335,61.0,107.0
769,175.45703217291668,175.57786556666667,68.0,97.0
770,176.12369917291667,176.35703262291668,59.0,97.0
771,176.29036592291666,176.5084215875,63.0,73.0
772,175.95703242291668,176.51397714583334,54.0,92.0
773,175.79036567291666,176.53203271041667,51.0,82.0
774,175.62369892291667,176.5917549625,47.0,100.0
775,176.45703267291668,176.7361994791667,66.0,97.0
776,176.62369942291667,176.87092176875,63.0,74.0
777,176.79036617291666,176.89592178125,59.0,92.0
778,176.95703292291668,177.18481081458333,45.0,112.0
779,177.45703317291668,177.63203326041668,61.0,78.0
780,177.62369992291667,177.83203336041666,69.0,127.0
781,177.79036667291666,177.93342230000002,64.0,122.0
782,177.29036642291666,177.98758899375,52.0,100.0
783,177.29036642291666,178.03758901875,45.0,25.0
784,177.12369967291667,178.11953350416667,49.0,66.0
785,177.95703342291668,178.13897795833333,61.0,96.0
786,178.12370017291667,178.26814468958335,69.0,122.0
787,178.79036717291666,179.00286727916668,59.0,107.0
788,178.62370042291667,179.06953397916666,56.0,76.0
789,178.95703392291668,179.22092294375,66.0,100.0
790,178.45703367291668,179.4000897,51.0,88.0
791,179.12370067291667,179.40564525833335,63.0,85.0
792,179.29036742291666,179.50981197708333,59.0,88.0
793,178.29036692291666,179.52231198333334,44.0,85.0
794,179.45703417291668,179.550089775,56.0,77.0
795,179.95703442291668,180.24314567708333,54.0,85.0
796,180.12370117291667,180.26259013125,57.0,85.0
797,179.79036767291666,180.37231240833333,49.0,88.0
798,179.62370092291667,180.57925695625002,42.0,89.0
799,180.45703467291668,180.63759031875,49.0,68.0
800,180.62370142291667,180.79592373125,57.0,112.0
801,180.2903679229167,180.84314597708334,61.0,100.0
802,180.7903681729167,180.91120156666668,54.0,79.0
803,180.95703492291668,181.48759074375002,45.0,107.0
804,181.29036842291669,181.49870186041667,57.0,96.0
805,181.45703517291668,181.55981300208333,64.0,75.0
806,181.95703542291668,182.14592440625,59.0,107.0
807,181.62370192291667,182.20703554791666,47.0,112.0
808,182.12370217291667,182.26953557916667,63.0,85.0
809,182.79036917291668,182.97231370833333,64.0,92.0
810,182.62370242291667,183.03759151875002,52.0,86.0
811,182.45703567291667,183.10981377708333,47.0,66.0
812,182.95703592291667,183.16675825000002,71.0,102.0
813,182.29036892291668,183.16814713958334,40.0,85.0
814,183.29036942291668,183.42925838125,68.0,68.0
815,183.12370267291666,183.4750917375,64.0,99.0
816,183.45703617291667,183.62925848125002,71.0,100.0
817,183.62370292291666,183.87648082708333,39.0,89.0
818,183.95703642291667,184.20425876875,63.0,82.0
819,184.12370317291666,184.27786991666667,68.0,90.0
820,183.79036967291668,184.47648112708333,44.0,95.0
821,184.29036992291668,184.51398114583333,71.0,127.0
822,184.45703667291667,184.60703674791668,68.0,89.0
823,184.62370342291666,184.87787021666668,63.0,95.0
824,184.79037017291668,184.94453691666666,71.0,112.0
825,184.95703692291667,185.60981502708333,37.0,66.0
826,185.12370367291666,185.67787061666667,44.0,86.0
827,185.29037042291668,185.67925950625002,49.0,95.0
828,185.45703717291667,185.67925950625002,61.0,88.0
829,185.62370392291666,185.87787071666668,68.0,88.0
830,185.79037067291668,185.96398187083335,64.0,112.0
831,185.95703742291667,186.14731529583335,61.0,107.0
832,186.12370417291666,186.24453756666668,68.0,97.0
833,186.79037117291668,187.02370462291668,59.0,97.0
834,186.95703792291667,187.17509358750002,63.0,73.0
835,186.62370442291666,187.18064914583334,54.0,92.0
836,186.45703767291667,187.19870471041668,51.0,82.0
837,186.29037092291668,187.2584269625,47.0,100.0
838,187.12370467291666,187.40287147916666,66.0,97.0
839,187.29037142291668,187.53759376875,63.0,74.0
840,187.45703817291667,187.56259378125,59.0,92.0
841,187.6237049229167,187.85148281458333,45.0,112.0
842,188.1237051729167,188.29870526041668,61.0,78.0
843,188.29037192291668,188.49870536041666,69.0,127.0
844,188.45703867291667,188.6000943,64.0,122.0
845,187.95703842291667,188.65426099375,52.0,100.0
846,187.95703842291667,188.70426101875,45.0,25.0
847,187.79037167291668,188.78620550416667,49.0,66.0
848,188.6237054229167,188.80564995833333,61.0,96.0
849,188.79037217291668,188.93481668958333,69.0,122.0
850,189.45703917291667,189.66953927916668,59.0,107.0
851,189.29037242291668,189.73620597916667,56.0,76.0
852,189.62370592291668,189.88759494375,66.0,100.0
853,189.12370567291669,190.0667617,51.0,88.0
854,189.79037267291667,190.07231725833333,63.0,85.0
855,189.95703942291667,190.17648397708334,59.0,88.0
856,188.95703892291667,190.18898398333334,44.0,85.0
857,190.12370617291668,190.216761775,56.0,77.0
858,190.45703967291666,190.68342867500002,54.0,90.0
859,190.29037292291667,190.70287312916668,42.0,92.0
860,190.62370642291668,190.73620647916667,57.0,99.0
861,190.62370642291668,190.82370652291667,61.0,100.0
862,191.12370667291668,191.40426236875,54.0,71.0
863,190.95703992291666,191.48204018541668,47.0,127.0
864,191.29037342291667,191.53204021041668,63.0,88.0
865,191.45704017291666,191.5862069041667,59.0,117.0
866,192.12370717291668,192.35287395416668,56.0,79.0
867,191.95704042291666,192.37370729791667,52.0,92.0
868,191.62370692291668,192.81815196458334,47.0,66.0
869,192.45704067291666,192.94592980625,52.0,86.0
870,192.29037392291667,192.95565203333334,64.0,99.0
871,192.79037417291667,192.95704092291666,56.0,70.0
872,192.62370742291668,192.95704092291666,59.0,102.0
873,193.45704117291666,193.63898570833334,64.0,92.0
874,193.29037442291667,193.70426351875,52.0,86.0
875,193.12370767291668,193.77648577708334,47.0,66.0
876,193.62370792291668,193.83343025000002,71.0,102.0
877,192.95704092291666,193.83481913958335,40.0,85.0
878,193.95704142291666,194.09593038125,68.0,68.0
879,193.79037467291667,194.1417637375,64.0,99.0
880,194.12370817291668,194.29593048125,71.0,100.0
881,194.62370842291668,194.87093076875001,63.0,82.0
882,194.79037517291667,194.94454191666668,68.0,90.0
883,194.9570419229167,195.18065314583333,71.0,127.0
884,195.12370867291668,195.2737087479167,68.0,89.0
885,194.62370842291668,195.30981987708333,44.0,95.0
886,194.29037492291667,195.37787546666667,39.0,89.0
887,195.29037542291667,195.54454221666668,63.0,95.0
888,195.4570421729167,195.61120891666667,71.0,112.0
889,195.62370892291668,196.27648702708333,37.0,66.0
890,195.9570424229167,196.34593150625,49.0,95.0
891,196.12370917291668,196.34593150625,61.0,88.0
892,195.9570424229167,196.51120936666666,44.0,86.0
893,196.29037592291667,196.54454271666668,68.0,88.0
894,196.45704267291669,196.63065387083333,64.0,112.0
895,196.62370942291668,196.81398729583333,61.0,107.0
896,196.79037617291667,196.91120956666668,68.0,97.0
897,197.45704317291668,197.6903766229167,59.0,97.0
898,197.62370992291667,197.84176558750002,63.0,73.0
899,197.29037642291667,197.84732114583335,54.0,92.0
900,197.12370967291668,197.86537671041668,51.0,82.0
901,196.95704292291668,197.92509896250002,47.0,100.0
902,197.79037667291666,198.06954347916667,66.0,97.0
903,197.95704342291668,198.20426576875002,63.0,74.0
904,198.12371017291667,198.22926578125,59.0,92.0
905,198.29037692291666,198.51815481458334,45.0,112.0
906,198.79037717291666,198.9653772604167,61.0,78.0
907,198.95704392291668,199.16537736041667,69.0,127.0
908,199.12371067291667,199.2667663,64.0,122.0
909,198.62371042291667,199.32093299375,52.0,100.0
910,198.62371042291667,199.37093301875,45.0,25.0
911,198.45704367291668,199.45287750416668,49.0,66.0
912,199.29037742291666,199.47232195833334,61.0,96.0
913,199.45704417291668,199.60148868958333,69.0,122.0
914,200.12371117291667,200.33621127916666,59.0,107.0
915,199.95704442291668,200.40287797916668,56.0,76.0
916,200.29037792291666,200.55426694375,66.0,100.0
917,199.79037767291666,200.7334337,51.0,88.0
918,200.45704467291668,200.73898925833333,63.0,85.0
919,200.62371142291667,200.84315597708334,59.0,88.0
920,199.62371092291667,200.85565598333335,44.0,85.0
921,200.79037817291666,200.88343377500001,56.0,77.0
922,201.29037842291666,201.57648967708334,54.0,85.0
923,201.45704517291668,201.59593413125,57.0,85.0
924,201.12371167291667,201.70565640833334,49.0,88.0
925,200.95704492291668,201.91260095625,42.0,89.0
926,201.79037867291666,201.97093431875,49.0,68.0
927,201.95704542291668,202.12926773125,57.0,112.0
928,201.62371192291667,202.17648997708335,61.0,100.0
929,202.12371217291667,202.2445455666667,54.0,79.0
930,202.2903789229167,202.82093474375,45.0,107.0
931,202.62371242291667,202.83204586041668,57.0,96.0
932,202.7903791729167,202.89315700208334,64.0,75.0
933,203.2903794229167,203.47926840625001,59.0,107.0
934,202.95704592291668,203.54037954791667,47.0,112.0
935,203.45704617291668,203.60287957916668,63.0,85.0
936,204.12371317291667,204.30565770833334,64.0,92.0
937,203.95704642291668,204.37093551875,52.0,86.0
938,203.79037967291669,204.44315777708334,47.0,66.0
939,204.29037992291669,204.50010225,71.0,102.0
940,203.62371292291667,204.50149113958335,40.0,85.0
941,204.62371342291667,204.76260238125002,68.0,68.0
942,204.45704667291668,204.80843573750002,64.0,99.0
943,204.79038017291668,204.96260248125,71.0,100.0
944,204.95704692291667,205.20982482708334,39.0,89.0
945,205.29038042291668,205.53760276875002,63.0,82.0
946,205.45704717291667,205.61121391666669,68.0,90.0
947,205.12371367291667,205.80982512708334,44.0,95.0
948,205.62371392291666,205.84732514583334,71.0,127.0
949,205.79038067291668,205.94038074791666,68.0,89.0
950,205.95704742291667,206.21121421666666,63.0,95.0
951,206.12371417291666,206.27788091666667,71.0,112.0
952,206.29038092291668,206.94315902708334,37.0,66.0
953,206.45704767291667,207.01121461666668,44.0,86.0
954,206.62371442291666,207.01260350625,49.0,95.0
955,206.79038117291668,207.01260350625,61.0,88.0
956,206.95704792291667,207.21121471666666,68.0,88.0
957,207.12371467291666,207.29732587083333,64.0,112.0
958,207.29038142291668,207.48065929583333,61.0,107.0
959,207.45704817291667,207.57788156666666,68.0,97.0
960,208.12371517291666,208.35704862291666,59.0,97.0
961,208.29038192291668,208.5084375875,63.0,73.0
962,207.95704842291667,208.51399314583335,54.0,92.0
963,207.79038167291668,208.53204871041666,51.0,82.0
964,207.62371492291666,208.59177096250002,47.0,100.0
965,208.45704867291667,208.73621547916667,66.0,97.0
966,208.62371542291666,208.87093776875,63.0,74.0
967,208.79038217291668,208.89593778125,59.0,92.0
968,208.95704892291667,209.18482681458335,45.0,112.0
969,209.45704917291667,209.63204926041666,61.0,78.0
970,209.6237159229167,209.83204936041668,69.0,127.0
971,209.79038267291668,209.9334383,64.0,122.0
972,209.29038242291668,209.98760499375,52.0,100.0
973,209.29038242291668,210.03760501875,45.0,25.0
974,209.12371567291666,210.11954950416668,49.0,66.0
975,209.95704942291667,210.13899395833334,61.0,96.0
976,210.1237161729167,210.26816068958334,69.0,122.0
977,210.79038317291668,211.00288327916667,59.0,107.0
978,210.6237164229167,211.06954997916668,56.0,76.0
979,210.95704992291667,211.22093894375,66.0,100.0
980,210.45704967291667,211.4001057,51.0,88.0
981,211.1237166729167,211.40566125833334,63.0,85.0
982,211.29038342291668,211.50982797708335,59.0,88.0
983,210.29038292291668,211.52232798333335,44.0,85.0
984,211.45705017291667,211.55010577500002,56.0,77.0
985,211.79038367291668,212.016772675,54.0,90.0
986,211.62371692291669,212.0362171291667,42.0,92.0
987,211.95705042291667,212.06955047916668,57.0,99.0
988,211.95705042291667,212.15705052291668,61.0,100.0
989,212.45705067291667,212.73760636875,54.0,71.0
990,212.29038392291667,212.81538418541666,47.0,127.0
991,212.62371742291668,212.86538421041666,63.0,88.0
992,212.79038417291667,212.91955090416667,59.0,117.0
993,213.45705117291666,213.68621795416666,56.0,79.0
994,213.29038442291667,213.70705129791668,52.0,92.0
995,212.95705092291666,214.15149596458335,47.0,66.0
996,213.79038467291667,214.27927380625002,52.0,86.0
997,213.62371792291668,214.28899603333335,64.0,99.0
998,214.12371817291668,214.29038492291667,56.0,70.0
999,213.95705142291666,214.29038492291667,59.0,102.0
1000,214.29038492291667,215.44732994583333,52.0,77.0
1001,214.62371842291668,215.77788566666666,59.0,45.0
1002,214.95705192291666,215.82371902291666,64.0,56.0
1003,215.95705242291666,216.40209652916667,63.0,53.0
1004,215.62371892291668,216.929085025,51.0,63.0
1005,216.29698292083336,216.95323274583333,64.0,44.0
1006,217.31970992083333,218.30550511250001,61.0,43.0
1007,216.97880092083335,218.35664146250002,49.0,55.0
1008,217.66061892083334,218.36942555000002,68.0,45.0
1009,218.68334592083335,219.1577776125,59.0,50.0
1010,218.34243692083334,219.61090249166668,47.0,63.0
1011,219.02425492083336,219.64215248333335,68.0,62.0
1012,220.04698192083333,220.45293438750002,57.0,48.0
1013,220.3947948875,221.07357355000002,64.0,69.0
1014,219.70607292083335,221.10700376250003,45.0,65.0
1015,221.44130588750002,221.83956146250003,56.0,43.0
1016,221.79014288750002,222.4070493041667,64.0,59.0
1017,221.09246888750002,222.50221973333336,44.0,59.0
1018,222.48091292083336,223.55051490833335,42.0,58.0
1019,222.82182192083334,223.75932167083334,54.0,37.0
1020,223.84454892083335,224.6911396041667,47.0,70.0
1021,224.52636692083334,225.24511672916668,66.0,74.0
1022,224.18545792083336,225.44113940416668,59.0,55.0
1023,225.54909392083334,226.1059119541667,59.0,53.0
1024,225.89000292083335,226.3743777916667,64.0,68.0
1025,225.20818492083336,226.40988914583335,52.0,63.0
1026,226.23091192083334,226.97096854166668,59.0,58.0
1027,226.91272992083336,227.32466162916668,63.0,58.0
1028,226.57182092083335,227.9255137416667,51.0,50.0
1029,227.25363892083334,227.93545692083336,64.0,57.0
1030,228.27636592083334,228.74653625000002,61.0,50.0
1031,228.61727492083335,229.26784292916668,68.0,58.0
1032,227.93545692083336,229.28914974166668,49.0,66.0
1033,228.95818392083333,229.343127,61.0,47.0
1034,229.64000192083336,230.03488817916667,59.0,50.0
1035,229.29909292083335,230.62437665833335,47.0,56.0
1036,229.98091092083334,230.65846755833334,66.0,68.0
1037,230.32181992083335,230.71812663333336,59.0,48.0
1038,231.00363792083334,231.4496605291667,57.0,53.0
1039,230.66272892083336,231.65988774583334,45.0,48.0
1040,231.34454692083335,232.01784219583334,64.0,71.0
1041,232.36727392083336,232.74369427500002,56.0,54.0
1042,232.70818292083334,233.34170547916668,64.0,50.0
1043,232.02636492083334,233.39000092083336,44.0,58.0
1044,233.39000092083336,234.13289845000003,42.0,75.0
1045,233.73090992083334,234.345966575,54.0,42.0
1046,234.07181892083335,234.90704597083334,61.0,50.0
1047,235.09454592083335,235.54767080000002,54.0,43.0
1048,234.75363692083334,235.67835258333335,47.0,42.0
1049,235.43545492083334,235.9240911541667,66.0,57.0
1050,236.11727292083336,239.52636292083335,40.0,35.0
1051,236.11727292083336,239.52636292083335,52.0,36.0
1052,236.11727292083336,239.52636292083335,59.0,42.0
1053,236.11727292083336,239.52636292083335,64.0,52.0
1054,236.11727292083336,239.52636292083335,68.0,51.0
