,start,end,pitch,velocity
0,15.34035265625,15.384583333333333,55.0,98.0
1,15.57112140625,15.83650546875,55.0,113.0
2,16.03265890625,16.14996635416667,60.0,102.0
3,16.26342765625,16.617273072916667,60.0,102.0
4,16.72496515625,16.98458,64.0,100.0
5,17.18650265625,17.467271302083333,64.0,108.0
6,17.64804015625,17.898039635416666,67.0,108.0
7,18.10957765625,18.459576927083333,67.0,108.0
8,18.57111515625,18.79034546875,55.0,89.0
9,19.26342140625,19.530728541666665,62.0,100.0
10,19.72495890625,19.961496875,60.0,88.0
11,20.18649640625,20.455726614583334,59.0,89.0
12,20.41726515625,20.680726145833333,60.0,93.0
13,21.10957140625,21.411493854166668,57.0,89.0
14,24.57110265625,24.653794791666666,62.0,91.0
15,24.80187140625,25.063409322916666,62.0,91.0
16,25.26340890625,25.37879328125,64.0,88.0
17,25.49417765625,25.73648484375,64.0,89.0
18,25.95571515625,26.18648390625,65.0,93.0
19,26.18648390625,26.303791354166666,57.0,87.0
20,26.64802140625,26.961482291666666,74.0,104.0
21,27.10955890625,27.36340453125,72.0,91.0
22,27.57109640625,27.748019114583332,62.0,96.0
23,28.032633906250002,28.1653259375,64.0,89.0
24,28.26340265625,28.5576328125,65.0,100.0
25,31.03262765625,31.146088958333333,69.0,91.0
26,31.26339640625,31.45954984375,69.0,108.0
27,31.72493390625,31.824933697916666,67.0,98.0
28,31.95570265625,32.17493296875,69.0,107.0
29,32.41724015625,32.653778125,71.0,98.0
30,32.87877765625,33.13070020833333,72.0,98.0
31,33.34031515625,33.619160729166666,69.0,91.0
32,34.72492765625,34.84223510416667,68.0,103.0
33,34.95569640625,35.19031130208333,68.0,116.0
34,35.41723390625,35.607618125,64.0,88.0
35,35.87877140625,36.12300166666667,71.0,100.0
36,36.34030890625,36.51530854166667,72.0,94.0
37,36.80184640625,37.23261473958333,69.0,83.0
38,37.49415265625,37.59992166666667,76.0,104.0
39,37.72492140625,37.961459375,77.0,114.0
40,38.18645890625,38.3076125,76.0,102.0
41,38.41722765625,38.67107328125,77.0,108.0
42,38.87876515625,39.113380052083336,76.0,107.0
43,39.34030265625,39.601840572916664,72.0,100.0
44,40.26337765625,40.45183880208334,72.0,113.0
45,40.72491515625,40.905684010416664,72.0,102.0
46,40.95568390625,41.0883759375,69.0,98.0
47,41.41722140625,41.77875911458333,74.0,114.0
48,44.87875265625,44.922983333333335,55.0,98.0
49,45.10952140625,45.37490546875,55.0,113.0
50,45.57105890625,45.68836635416667,60.0,102.0
51,45.80182765625,46.15567307291667,60.0,102.0
52,46.26336515625,46.52298,64.0,100.0
53,46.72490265625,47.005671302083336,64.0,108.0
54,47.18644015625,47.43643963541667,67.0,108.0
55,47.64797765625,47.997976927083336,67.0,108.0
56,48.10951515625,48.32874546875,55.0,89.0
57,48.80182140625,49.069128541666664,62.0,100.0
58,49.26335890625,49.499896875,60.0,88.0
59,49.724896406250004,49.99412661458334,59.0,89.0
60,49.95566515625,50.219126145833336,60.0,93.0
61,50.64797140625,50.94989385416667,57.0,89.0
62,54.10950265625,54.192194791666665,62.0,91.0
63,54.340271406250004,54.601809322916665,62.0,91.0
64,54.80180890625,54.91719328125,64.0,88.0
65,55.03257765625,55.27488484375,64.0,89.0
66,55.494115156250004,55.72488390625,65.0,93.0
67,55.72488390625,55.842191354166665,57.0,87.0
68,56.18642140625,56.499882291666665,74.0,104.0
69,56.64795890625,56.90180453125,72.0,91.0
70,57.10949640625,57.28641911458333,62.0,96.0
71,57.57103390625,57.7037259375,64.0,89.0
72,57.80180265625,58.0960328125,65.0,100.0
73,60.57102765625,60.68448895833333,69.0,91.0
74,60.80179640625,60.99794984375,69.0,108.0
75,61.26333390625,61.363333697916666,67.0,98.0
76,61.49410265625,61.71333296875,69.0,107.0
77,61.95564015625,62.192178125,71.0,98.0
78,62.41717765625,62.66910020833333,72.0,98.0
79,62.87871515625,63.15756072916667,69.0,91.0
80,64.26332765625,64.38063510416667,68.0,103.0
81,64.49409640625,64.72871130208334,68.0,116.0
82,64.95563390625,65.146018125,64.0,88.0
83,65.41717140625,65.66140166666666,71.0,100.0
84,65.87870890625,66.05370854166667,72.0,94.0
85,66.34024640625,66.77101473958334,76.0,105.0
86,67.03255265625,67.13832166666667,76.0,104.0
87,67.26332140625,67.499859375,77.0,114.0
88,67.72485890625,67.8460125,76.0,102.0
89,67.95562765625,68.20947328125,77.0,108.0
90,68.41716515625001,68.65178005208334,76.0,107.0
91,68.87870265625,69.14024057291667,72.0,100.0
92,70.03254640625,70.20369989583334,69.0,117.0
93,70.26331515625,70.48639161458334,72.0,117.0
94,70.72485265625001,70.84216010416667,69.0,116.0
95,70.95562140625,71.2267746875,79.0,117.0
96,71.41715890625,71.54023557291667,76.0,116.0
97,71.64792765625,71.8498503125,79.0,116.0
98,72.10946515625,72.36715692708333,76.0,117.0
99,72.57100265625,72.86715588541666,74.0,119.0
100,75.80176515625,75.92099567708334,67.0,110.0
101,76.03253390625,76.13445677083334,67.0,110.0
102,76.26330265625,76.42099463541666,79.0,113.0
103,76.49407140625,76.73253244791667,76.0,117.0
104,76.95560890625,77.18253151041667,74.0,113.0
105,77.41714640625,77.5959921875,76.0,116.0
106,77.64791515625,77.82099171875,79.0,108.0
107,78.10945265625,78.39599052083334,79.0,117.0
108,78.57099015625,78.830605,84.0,120.0
109,79.03252765625,79.31329630208333,83.0,119.0
110,79.49406515625,79.74791078125,79.0,114.0
111,79.95560265625,80.10752541666666,74.0,113.0
112,80.18637140625,80.422909375,76.0,119.0
113,80.64790890625,80.90175453125,74.0,116.0
114,81.10944640625,81.32867671875,76.0,117.0
115,81.57098390625,81.69982979166667,74.0,119.0
116,81.80175265625,82.0498290625,76.0,117.0
117,82.03252140625,82.21905947916667,72.0,104.0
118,83.18636515625,83.34021098958334,72.0,114.0
119,83.41713390625,83.5959796875,81.0,117.0
120,83.64790265625,83.77674854166666,79.0,117.0
121,83.87867140625,84.17097848958333,81.0,123.0
122,85.03251515625,85.16136104166667,72.0,113.0
123,85.26328390625,85.44982197916667,79.0,117.0
124,85.49405265625,85.62482161458334,77.0,113.0
125,85.72482140625,86.007513125,79.0,119.0
126,87.10943390625,87.33058729166667,77.0,114.0
127,87.34020265625,87.45558703125,76.0,114.0
128,87.57097140625,87.82289395833334,77.0,116.0
129,88.03250890625,88.23250848958334,77.0,113.0
130,88.26327765625,88.407508125,76.0,113.0
131,88.49404640625,88.72096901041667,77.0,117.0
132,88.95558390625,89.15558348958334,77.0,116.0
133,89.18635265625,89.31135239583334,76.0,116.0
134,89.41712140625,89.64019786458333,77.0,120.0
135,89.64789015625,89.76904375,76.0,114.0
136,90.10942765625,90.2882734375,74.0,117.0
137,90.57096515625,90.69019567708334,67.0,110.0
138,90.80173390625,90.90365677083334,67.0,110.0
139,91.03250265625,91.19019463541667,79.0,113.0
140,91.26327140625,91.50173244791667,76.0,117.0
141,91.72480890625,91.95173151041666,74.0,113.0
142,92.18634640625,92.3651921875,76.0,116.0
143,92.41711515625,92.59019171875,79.0,108.0
144,92.87865265625,93.16519052083333,79.0,117.0
145,93.34019015625,93.599805,84.0,120.0
146,93.80172765625,94.08249630208333,83.0,119.0
147,94.26326515625,94.51711078125,79.0,114.0
148,94.72480265625,94.87672541666667,74.0,113.0
149,94.95557140625,95.192109375,76.0,119.0
150,95.41710890625001,95.67095453125,74.0,116.0
151,95.87864640625,96.09787671875,76.0,117.0
152,96.34018390625,96.46902979166667,74.0,119.0
153,96.57095265625,96.81902906250001,76.0,117.0
154,96.80172140625,96.98825947916667,72.0,104.0
155,97.95556515625,98.10941098958334,72.0,114.0
156,98.18633390625,98.3651796875,81.0,117.0
157,98.41710265625,98.54594854166666,79.0,117.0
158,98.64787140625,98.94017848958333,81.0,123.0
159,99.80171515625,99.93056104166666,72.0,113.0
160,100.03248390625001,100.21902197916667,79.0,117.0
161,100.26325265625,100.39402161458334,77.0,113.0
162,100.49402140625,100.776713125,79.0,119.0
163,101.64786515625,101.86901854166666,69.0,114.0
164,101.87863390625,102.09978729166667,77.0,114.0
165,102.10940265625,102.22478703125,76.0,114.0
166,102.34017140625001,102.59209395833334,77.0,116.0
167,102.80170890625,103.00170848958334,77.0,113.0
168,103.03247765625,103.176708125,76.0,113.0
169,103.26324640625,103.49016901041666,77.0,117.0
170,103.72478390625,103.92478348958333,77.0,116.0
171,103.95555265625,104.08055239583334,76.0,116.0
172,104.18632140625,104.40939786458334,77.0,120.0
173,104.64785890625001,104.792089375,77.0,107.0
174,104.87862765625,105.11131947916667,76.0,116.0
175,105.34016515625,105.63631838541667,74.0,116.0
176,105.80170265625,105.93054854166667,71.0,113.0
177,106.03247140625,106.33824,72.0,110.0
178,120.57090265625,120.61513333333333,55.0,98.0
179,120.80167140625,121.06705546875,55.0,113.0
180,121.26320890625,121.38051635416667,60.0,102.0
181,121.49397765625,121.84782307291667,60.0,102.0
182,121.95551515625,122.21513,64.0,100.0
183,122.41705265625001,122.69782130208334,64.0,108.0
184,122.87859015625,123.12858963541667,67.0,108.0
185,123.34012765625,123.69012692708334,67.0,108.0
186,123.80166515625,124.02089546875,55.0,89.0
187,124.49397140625,124.76127854166667,62.0,100.0
188,124.95550890625,125.192046875,60.0,88.0
189,125.41704640625,125.68627661458333,59.0,89.0
190,125.64781515625,125.91127614583334,60.0,93.0
191,126.34012140625,126.64204385416667,57.0,89.0
192,129.80165265625,129.88434479166668,62.0,91.0
193,130.03242140625,130.29395932291666,62.0,91.0
194,130.49395890625001,130.60934328125,64.0,88.0
195,130.72472765625,130.96703484375,64.0,89.0
196,131.18626515625,131.41703390625,65.0,93.0
197,131.41703390625,131.53434135416666,57.0,87.0
198,131.87857140625,132.19203229166666,74.0,104.0
199,132.34010890625,132.59395453125,72.0,91.0
200,132.80164640625,132.97856911458334,62.0,96.0
201,133.26318390625,133.3958759375,64.0,89.0
202,133.49395265625,133.7881828125,65.0,100.0
203,136.26317765625,136.37663895833333,69.0,91.0
204,136.49394640625,136.69009984375,69.0,108.0
205,136.95548390625,137.05548369791666,67.0,98.0
206,137.18625265625,137.40548296875,69.0,107.0
207,137.64779015625,137.884328125,71.0,98.0
208,138.10932765625,138.36125020833333,72.0,98.0
209,138.57086515625,138.84971072916667,69.0,91.0
210,139.95547765625,140.07278510416666,68.0,103.0
211,140.18624640625,140.42086130208332,68.0,116.0
212,140.64778390625,140.838168125,64.0,88.0
213,141.10932140625,141.35355166666668,71.0,100.0
214,141.57085890625,141.74585854166668,72.0,94.0
215,142.03239640625,142.46316473958333,76.0,105.0
216,142.72470265625,142.83047166666665,76.0,104.0
217,142.95547140625,143.192009375,77.0,114.0
218,143.41700890625,143.5381625,76.0,102.0
219,143.64777765625,143.90162328125,77.0,108.0
220,144.10931515625,144.34393005208332,76.0,107.0
221,144.57085265625,144.83239057291667,72.0,100.0
222,145.72469640625,145.89584989583332,69.0,117.0
223,145.95546515625,146.17854161458334,72.0,117.0
224,146.41700265625,146.53431010416668,69.0,116.0
225,146.64777140625,146.9189246875,79.0,117.0
226,147.10930890625,147.23238557291666,76.0,116.0
227,147.34007765625,147.5420003125,79.0,116.0
228,147.80161515625,148.05930692708333,76.0,117.0
229,148.26315265625,148.55930588541668,74.0,119.0
230,149.64776515625,149.76699567708334,67.0,110.0
231,149.87853390625,149.98045677083334,67.0,110.0
232,150.10930265625,150.26699463541667,79.0,113.0
233,150.34007140625,150.57853244791667,76.0,117.0
234,150.80160890625,151.02853151041666,74.0,113.0
235,151.26314640625,151.4419921875,76.0,116.0
236,151.49391515625,151.66699171875,79.0,108.0
237,151.95545265625,152.24199052083333,79.0,117.0
238,152.41699015625,152.676605,84.0,120.0
239,152.87852765625001,153.15929630208333,83.0,119.0
240,153.34006515625,153.59391078125,79.0,114.0
241,153.80160265625,153.95352541666668,74.0,113.0
242,154.03237140625,154.268909375,76.0,119.0
243,154.49390890625,154.74775453125,74.0,116.0
244,154.95544640625,155.17467671875,76.0,117.0
245,155.41698390625,155.54582979166668,74.0,119.0
246,155.64775265625,155.8958290625,76.0,117.0
247,155.87852140625,156.06505947916668,72.0,104.0
248,157.03236515625,157.18621098958334,72.0,114.0
249,157.26313390625,157.4419796875,81.0,117.0
250,157.49390265625001,157.62274854166668,79.0,117.0
251,157.72467140625,158.01697848958332,81.0,123.0
252,158.87851515625,159.00736104166666,72.0,113.0
253,159.10928390625,159.29582197916667,79.0,117.0
254,159.34005265625,159.47082161458334,77.0,113.0
255,159.57082140625,159.853513125,79.0,119.0
256,160.95543390625,161.17658729166666,77.0,114.0
257,161.18620265625,161.30158703125,76.0,114.0
258,161.41697140625,161.66889395833334,77.0,116.0
259,161.87850890625,162.07850848958333,77.0,113.0
260,162.10927765625001,162.253508125,76.0,113.0
261,162.34004640625,162.56696901041667,77.0,117.0
262,162.80158390625,163.00158348958334,77.0,116.0
263,163.03235265625,163.15735239583333,76.0,116.0
264,163.26312140625,163.48619786458335,77.0,120.0
265,163.49389015625,163.61504375,76.0,114.0
266,163.95542765625,164.1342734375,74.0,117.0
267,164.41696515625,164.53619567708333,67.0,110.0
268,164.64773390625,164.74965677083333,67.0,110.0
269,164.87850265625,165.03619463541668,79.0,113.0
270,165.10927140625,165.34773244791666,76.0,117.0
271,165.57080890625,165.79773151041667,74.0,113.0
272,166.03234640625,166.2111921875,76.0,116.0
273,166.26311515625,166.43619171875,79.0,108.0
274,166.72465265625002,167.01119052083334,79.0,117.0
275,167.18619015625,167.445805,84.0,120.0
276,167.64772765625,167.92849630208335,83.0,119.0
277,168.10926515625,168.36311078125001,79.0,114.0
278,168.57080265625,168.72272541666666,74.0,113.0
279,168.80157140625,169.038109375,76.0,119.0
280,169.26310890625,169.51695453125,74.0,116.0
281,169.72464640625,169.94387671875,76.0,117.0
282,170.18618390625,170.31502979166666,74.0,119.0
283,170.41695265625,170.6650290625,76.0,117.0
284,170.64772140625,170.83425947916666,72.0,104.0
285,171.80156515625,171.95541098958333,72.0,114.0
286,172.03233390625,172.2111796875,81.0,117.0
287,172.26310265625,172.39194854166666,79.0,117.0
288,172.49387140625,172.78617848958334,81.0,123.0
289,173.64771515625,173.77656104166667,72.0,113.0
290,173.87848390625,174.06502197916666,79.0,117.0
291,174.10925265625,174.24002161458333,77.0,113.0
292,174.34002140625,174.622713125,79.0,119.0
293,175.49386515625,175.71501854166667,69.0,114.0
294,175.72463390625,175.94578729166668,77.0,114.0
295,175.95540265625,176.07078703125,76.0,114.0
296,176.18617140625,176.43809395833333,77.0,116.0
297,176.64770890625,176.84770848958334,77.0,113.0
298,176.87847765625,177.022708125,76.0,113.0
299,177.10924640625,177.33616901041665,77.0,117.0
300,177.57078390625,177.77078348958332,77.0,116.0
301,177.80155265625,177.92655239583334,76.0,116.0
302,178.03232140625,178.25539786458333,77.0,120.0
303,178.49385890625,178.638089375,77.0,107.0
304,178.72462765625,178.95731947916667,76.0,116.0
305,179.18616515625,179.48231838541668,74.0,116.0
306,179.64770265625,179.77654854166667,71.0,113.0
307,179.87847140625001,180.18424,72.0,110.0
308,208.95533390625,209.07456442708335,67.0,110.0
309,209.18610265625,209.28802552083334,67.0,110.0
310,209.41687140625,209.57456338541667,79.0,113.0
311,209.76302453125,210.00148557291666,76.0,117.0
312,210.22456203125,210.45148463541668,74.0,113.0
313,210.68609953125,210.8649453125,76.0,116.0
314,210.91686828125,211.08994484375,79.0,108.0
315,211.37840578125,211.66494364583335,79.0,117.0
316,211.83994328125002,212.09955812500002,84.0,120.0
317,212.30148078125,212.58224942708333,83.0,119.0
318,212.76301828125,213.01686390625,79.0,114.0
319,213.22455578125,213.37647854166667,74.0,113.0
320,213.45532453125,213.6918625,76.0,119.0
321,213.91686203125,214.17070765625,74.0,116.0
322,214.37839953125,214.59762984375,76.0,117.0
323,214.83993703125,214.96878291666667,74.0,119.0
324,215.07070578125,215.3187821875,76.0,117.0
325,215.30147453125,215.48801260416667,72.0,104.0
326,216.45531828125002,216.60916411458334,72.0,114.0
327,216.68608703125,216.8649328125,81.0,117.0
328,216.91685578125,217.04570166666667,79.0,117.0
329,217.14762453125,217.43993161458334,81.0,123.0
330,218.30146828125,218.43031416666668,72.0,113.0
331,218.53223703125,218.71877510416667,79.0,117.0
332,218.76300578125,218.89377473958334,77.0,113.0
333,218.99377453125,219.27646625,79.0,119.0
334,220.37838703125,220.59954041666666,77.0,114.0
335,220.60915578125,220.72454015625001,76.0,114.0
336,220.83992453125,221.09184708333333,77.0,116.0
337,221.30146203125,221.50146161458335,77.0,113.0
338,221.53223078125,221.67646125,76.0,113.0
339,221.76299953125,221.98992213541666,77.0,117.0
340,222.22453703125,222.42453661458333,77.0,116.0
341,222.45530578125,222.58030552083335,76.0,116.0
342,222.68607453125,222.90915098958334,77.0,120.0
343,222.91684328125,223.037996875,76.0,114.0
344,223.37838078125,223.5572265625,74.0,117.0
345,223.83991828125,223.95914880208335,67.0,110.0
346,224.07068703125,224.17260989583335,67.0,110.0
347,224.30145578125,224.45914776041667,79.0,113.0
348,224.53222453125,224.77068557291668,76.0,117.0
349,224.99376203125001,225.22068463541666,74.0,113.0
350,225.45529953125,225.6341453125,76.0,116.0
351,225.68606828125,225.85914484375,79.0,108.0
352,226.14760578125,226.43414364583333,79.0,117.0
353,226.60914328125,226.868758125,84.0,120.0
354,227.07068078125,227.35144942708334,83.0,119.0
355,227.53221828125,227.78606390625,79.0,114.0
356,227.99375578125,228.14567854166665,74.0,113.0
357,228.22452453125,228.4610625,76.0,119.0
358,228.68606203125,228.93990765625,74.0,116.0
359,229.14759953125,229.36682984375,76.0,117.0
360,229.60913703125001,229.73798291666668,74.0,119.0
361,229.83990578125,230.0879821875,76.0,117.0
362,230.07067453125,230.25721260416668,72.0,104.0
363,231.22451828125,231.37836411458335,72.0,114.0
364,231.45528703125,231.6341328125,81.0,117.0
365,231.68605578125,231.81490166666666,79.0,117.0
366,231.91682453125,232.20913161458333,81.0,123.0
367,233.07066828125,233.19951416666666,72.0,113.0
368,233.30143703125,233.48797510416668,79.0,117.0
369,233.53220578125,233.66297473958335,77.0,113.0
370,233.76297453125,234.04566625,79.0,119.0
371,234.91681828125,235.13797166666666,69.0,114.0
372,235.14758703125,235.36874041666667,77.0,114.0
373,235.37835578125,235.49374015625,76.0,114.0
374,235.60912453125,235.86104708333335,77.0,116.0
375,236.07066203125,236.27066161458333,77.0,113.0
376,236.30143078125,236.44566125,76.0,113.0
377,236.53219953125,236.75912213541667,77.0,117.0
378,236.99373703125,237.19373661458334,77.0,116.0
379,237.22450578125,237.34950552083333,76.0,116.0
380,237.45527453125,237.67835098958332,77.0,120.0
381,237.91681203125,238.0610425,77.0,107.0
382,238.14758078125,238.38027260416666,76.0,116.0
383,238.37834953125,238.67450276041666,74.0,116.0
384,238.83988703125002,238.96873291666668,71.0,113.0
385,239.18604015625002,239.49180875,72.0,110.0
386,242.18603390625,242.34372588541666,60.0,92.0
387,242.41680265625,242.62064838541667,69.0,102.0
388,242.64757140625,242.87834015625,67.0,91.0
389,242.99372453125,244.11102989583333,69.0,93.0
390,244.26295265625,244.499490625,60.0,86.0
391,244.49372140625,244.730259375,67.0,91.0
392,244.72449015625,245.01102802083332,65.0,78.0
393,244.95525890625,246.2187178125,67.0,87.0
394,246.10910265625,246.37640979166667,60.0,71.0
395,246.33987140625,246.5879478125,65.0,81.0
396,246.57064015625,246.86294723958335,64.0,80.0
397,246.91679328125,247.34371546875,65.0,88.0
398,247.37833078125,247.62256104166667,65.0,87.0
399,247.60909953125,247.86486822916666,64.0,86.0
400,247.83986828125,248.15909838541666,65.0,86.0
401,248.41679015625,248.68025114583332,65.0,85.0
402,248.64755890625,248.91486604166667,64.0,86.0
403,248.99371203125,249.36486510416668,65.0,84.0
404,249.57063390625,249.85909484375,65.0,86.0
405,249.80140265625,250.13601734375,64.0,83.0
406,250.14755578125,251.20716895833334,62.0,78.0
407,252.10909015625,253.37447213541668,59.0,76.0
408,253.26293390625,254.66870020833335,60.0,77.0
