,start,end,pitch,velocity
0,17.284908033333334,17.5202019,56.0,81.0
1,17.505496033333333,17.757334,58.0,88.0
2,17.726084033333336,17.908069133333335,56.0,90.0
3,17.946672033333336,18.1874806,58.0,96.0
4,18.167260033333335,18.3418922,56.0,81.0
5,18.387848033333334,18.5569655,58.0,102.0
6,18.608436033333334,19.165420733333335,61.0,102.0
7,19.049612033333336,19.235273600000003,56.0,93.0
8,19.270200033333335,19.44299396666667,58.0,82.0
9,19.490788033333335,19.628655533333333,56.0,93.0
10,19.711376033333334,19.90622876666667,58.0,97.0
11,19.931964033333333,20.0679933,56.0,90.0
12,20.152552033333336,20.257331333333333,58.0,93.0
13,20.373140033333335,20.737110233333336,61.0,107.0
14,20.814316033333334,20.91541886666667,56.0,93.0
15,21.034904033333333,21.18012446666667,58.0,96.0
16,21.255492033333336,21.363947800000002,56.0,89.0
17,21.476080033333336,21.663579833333333,58.0,112.0
18,21.917256033333334,22.176446933333334,65.0,93.0
19,22.358432033333337,23.027548966666668,61.0,107.0
20,23.240784033333334,23.411739733333334,61.0,117.0
21,23.461372033333337,23.658063000000002,59.0,89.0
22,23.902548033333336,24.117621333333336,58.0,96.0
23,24.123136033333335,24.349238733333337,56.0,86.0
24,24.564312033333334,24.696664833333337,54.0,88.0
25,24.784900033333336,25.049605633333336,54.0,90.0
26,25.226076033333335,25.454016966666668,61.0,96.0
27,25.667252033333334,25.77386956666667,61.0,93.0
28,25.887840033333337,26.04960456666667,61.0,99.0
29,26.108428033333336,26.299604300000002,58.0,89.0
30,26.548458441666668,26.769472625000002,54.0,86.0
31,27.41802244166667,27.584688875,54.0,71.0
32,27.63541344166667,28.055702708333335,61.0,89.0
33,28.28758644166667,28.669832283333335,63.0,107.0
34,28.93975944166667,29.341932791666668,58.0,95.0
35,29.37454144166667,30.207873608333337,56.0,82.0
36,31.331060441666672,31.454248675000002,56.0,99.0
37,31.54845144166667,31.666204900000004,58.0,96.0
38,31.76584244166667,31.854610433333335,56.0,102.0
39,31.98323344166667,32.09736371666667,58.0,95.0
40,32.20062444166667,32.296638800000004,56.0,102.0
41,32.41801544166667,32.50678343333334,58.0,102.0
42,32.63540644166667,32.86004380833334,61.0,122.0
43,33.07018844166667,33.180695533333335,56.0,97.0
44,33.28757944166667,33.44156473333334,58.0,97.0
45,33.50497044166667,33.62091230833334,56.0,97.0
46,33.72236144166667,33.856419225,58.0,97.0
47,33.93975244166667,34.08649136666667,56.0,92.0
48,34.15714344166667,34.258592575,58.0,122.0
49,34.37453444166667,34.52127336666667,61.0,99.0
50,34.591925441666675,34.87634533333333,66.0,100.0
51,35.02670744166667,35.273083908333334,65.0,93.0
52,35.46148944166667,35.736851375,61.0,107.0
53,35.89627144166667,36.21148839166667,58.0,86.0
54,36.33105344166667,37.073806025,61.0,102.0
55,37.20061744166667,37.432501175000006,61.0,112.0
56,37.41800844166667,37.59735601666667,63.0,102.0
57,37.85279044166667,37.99590618333334,66.0,95.0
58,38.07018144166667,38.436122958333335,68.0,127.0
59,38.504963441666675,38.69155738333334,66.0,107.0
60,38.72235444166667,39.017643883333335,63.0,96.0
61,39.15713644166667,39.398078133333335,63.0,99.0
62,39.59191844166667,39.709671900000004,63.0,97.0
63,39.80930944166667,39.979599058333335,63.0,112.0
64,40.02670044166667,40.18974369166667,61.0,112.0
65,40.461482441666675,40.62814887500001,61.0,112.0
66,40.67887344166667,41.01039471666667,58.0,112.0
67,41.11365544166667,41.390828966666675,54.0,100.0
68,41.54843744166667,42.391094066666675,56.0,93.0
69,42.42234403333334,43.00690223333334,58.0,112.0
70,43.30469603333334,43.96462180000001,59.0,97.0
71,44.18704803333334,44.61719463333334,61.0,102.0
72,45.06940003333334,45.74770813333334,63.0,112.0
73,45.95175203333334,46.54182493333334,70.0,112.0
74,46.83410403333334,47.420500466666674,68.0,122.0
75,48.37822003333334,48.50505813333334,58.0,102.0
76,48.59880803333334,48.793660766666676,66.0,89.0
77,48.81939603333334,49.00321936666668,65.0,93.0
78,49.26057203333334,49.43520420000001,61.0,112.0
79,49.48116003333334,49.82858613333334,58.0,99.0
80,49.92233603333334,50.36902673333334,56.0,96.0
81,50.36351203333334,50.749541033333344,58.0,99.0
82,51.24586403333334,51.46461380000001,58.0,122.0
83,51.46645203333334,51.66498123333334,61.0,102.0
84,51.90762803333334,52.02711320000001,63.0,96.0
85,52.128216033333345,52.63005373333334,54.0,99.0
86,53.01056803333334,53.216450166666675,58.0,97.0
87,53.23115603333334,53.43887640000001,61.0,127.0
88,53.67233203333334,53.81019953333334,63.0,102.0
89,53.89292003333334,54.177846200000005,54.0,102.0
90,54.554684033333345,54.692551533333344,54.0,95.0
91,54.77527203333334,54.93887480000001,56.0,102.0
92,54.995860033333344,55.17784513333334,58.0,107.0
93,55.43703603333334,55.567550600000004,56.0,112.0
94,55.65762403333334,56.671502816666674,58.0,107.0
95,59.14432544166667,59.814188133333346,63.0,112.0
96,60.01823203333334,60.60830493333334,70.0,112.0
97,60.900584033333345,61.48698046666668,68.0,122.0
98,62.00352403333334,62.33256780000001,65.0,107.0
99,62.22411203333334,62.341758966666674,63.0,93.0
100,62.66528803333334,62.95389066666667,63.0,117.0
101,63.106464033333346,63.23146390000001,61.0,83.0
102,63.327052033333345,63.634037000000006,61.0,96.0
103,63.547640033333344,63.895066133333344,58.0,107.0
104,63.98881603333334,64.27190396666667,63.0,102.0
105,64.42999203333335,64.83807983333334,63.0,127.0
106,65.30800144166668,65.52176925833334,58.0,112.0
107,65.52539244166667,65.76271095000001,61.0,122.0
108,65.96017444166668,66.13408724166668,63.0,112.0
109,66.17756544166667,66.75546318333335,54.0,107.0
110,67.04712944166667,67.25002770833333,58.0,112.0
111,67.26452044166668,67.52357805000001,61.0,107.0
112,67.69930244166667,67.83517181666667,63.0,102.0
113,67.91669344166668,68.45292457500001,54.0,97.0
114,68.5677536375,68.7070392125,54.0,79.0
115,68.7820391375,68.98203893750001,63.0,83.0
116,68.99632463750001,69.2338244,61.0,90.0
117,69.42489563750001,69.72489533750002,56.0,93.0
118,69.8534666375,71.730250475,54.0,88.0
119,73.27846321250001,73.39989166250001,56.0,99.0
120,73.4927487125,73.60882002500001,58.0,96.0
121,73.70809525833334,73.79686325000002,56.0,102.0
122,73.92548625833335,74.03961653333334,58.0,95.0
123,74.14287725833334,74.23889161666668,56.0,102.0
124,74.36026825833335,74.44903625000002,58.0,102.0
125,74.57765925833334,74.80229662500001,61.0,122.0
126,75.01606444166669,75.13925267500001,56.0,99.0
127,75.23345544166668,75.35120890000002,58.0,96.0
128,75.45084644166668,75.53961443333334,56.0,102.0
129,75.66823744166668,75.78236771666668,58.0,95.0
130,75.88562844166668,75.98164280000002,56.0,102.0
131,76.10301944166667,76.19178743333335,58.0,102.0
132,76.32041044166668,76.54504780833335,61.0,122.0
133,76.75519244166668,76.86569953333334,56.0,97.0
134,76.97258344166669,77.12656873333334,58.0,97.0
135,77.18997444166668,77.30591630833335,56.0,97.0
136,77.40736544166668,77.54142322500002,58.0,97.0
137,77.62475644166668,78.03961093333335,65.0,100.0
138,78.27692944166668,78.49794362500002,63.0,102.0
139,78.49432044166669,78.95230683333334,61.0,89.0
140,78.93024803333334,78.95230683333334,61.0,112.0
141,79.15083603333335,79.25745356666668,61.0,96.0
142,79.37142403333334,79.47436510000001,59.0,93.0
143,79.59201203333335,79.70965896666668,59.0,96.0
144,79.81260003333334,79.90634993333335,56.0,107.0
145,80.03318803333335,80.32730536666668,58.0,117.0
146,80.47436403333334,80.60671683333334,56.0,102.0
147,80.69495203333334,81.02951050000001,54.0,95.0
148,81.57730403333335,81.65818630000001,61.0,107.0
149,81.79789203333334,82.06995056666668,61.0,112.0
150,82.23906803333334,82.48355306666667,56.0,99.0
151,82.45965603333335,82.74825866666667,54.0,93.0
152,83.34200803333334,83.43943440000001,54.0,97.0
153,83.56259603333335,83.6986253,56.0,100.0
154,83.78318403333334,83.87693393333335,54.0,96.0
155,84.00377203333335,84.13612483333334,56.0,97.0
156,84.22378302708334,84.34604560416668,54.0,89.0
157,84.44276077708334,84.67268741458334,56.0,112.0
158,84.88071627708334,85.14166476250001,58.0,127.0
159,85.31867177708334,85.67998506458335,59.0,99.0
160,85.75662727708334,85.88071466875,61.0,107.0
161,85.97560502708335,86.28582350625001,58.0,107.0
162,86.41356052708335,86.94275675625,56.0,97.0
163,86.85151602708333,87.12888784375001,54.0,75.0
164,87.07049377708334,87.38436188541668,56.0,99.0
165,87.50844927708334,87.63801111250001,58.0,97.0
166,87.72742702708334,88.13801030833334,58.0,100.0
167,88.16538252708334,88.36793694583334,56.0,99.0
168,88.82231577708335,89.16355610416667,56.0,112.0
169,89.26027127708335,89.34786237708335,58.0,100.0
170,89.47924902708334,89.80771565208335,58.0,127.0
171,89.91720452708334,90.21099967500001,56.0,112.0
172,90.57413777708334,90.88618107083335,61.0,102.0
173,91.01209327708334,91.27398064166668,58.0,90.0
174,91.44789344166668,91.78666108333334,56.0,100.0
175,91.88267544166668,92.06564620000002,54.0,107.0
176,92.31745744166668,92.55477595,61.0,122.0
177,92.75223944166667,93.00223909166668,58.0,100.0
178,93.18702144166667,93.44245586666668,56.0,107.0
179,93.40441244166668,93.83557125833335,58.0,117.0
180,94.05658544166668,94.46781675000001,54.0,107.0
181,94.49136744166668,94.69064252500002,58.0,96.0
182,94.70875844166667,95.95332191666668,58.0,90.0
183,96.44788644166668,96.52759647500001,54.0,93.0
184,96.66527744166667,96.80477000000002,54.0,96.0
185,96.88266844166668,97.17614629166668,56.0,107.0
186,97.53484144166669,98.22492470000002,56.0,117.0
187,98.40874803333335,99.10360023333335,58.0,117.0
188,99.29110003333335,99.91214110625,59.0,112.0
189,100.17126477708334,100.49608177291668,61.0,117.0
190,101.04717577708334,101.82454678958334,56.0,112.0
191,101.92308677708334,102.68721456666668,58.0,102.0
192,102.80118503333335,103.59714006666668,59.0,99.0
193,103.68353703333335,104.08059543333334,61.0,122.0
194,104.56588903333335,105.24419713333334,63.0,112.0
195,105.44824103333335,106.03831393333334,70.0,112.0
196,106.33059303333334,106.91698946666668,68.0,122.0
197,107.87470903333335,108.00154713333335,58.0,102.0
198,108.09529703333335,108.29014976666669,66.0,89.0
199,108.31588503333334,108.49970836666668,65.0,93.0
200,108.75706103333334,108.93169320000001,61.0,112.0
201,108.97764903333335,109.32507513333334,58.0,99.0
202,109.41882503333335,109.86328822083334,56.0,96.0
203,109.85781377708334,110.24102483958335,58.0,99.0
204,110.73372477708334,110.9508777125,58.0,122.0
205,110.95270252708335,111.14978250208334,61.0,102.0
206,111.39065802708335,111.509270975,63.0,96.0
207,111.60963577708334,112.10781015833334,54.0,99.0
208,112.48554677708334,112.68992601041667,58.0,97.0
209,112.70452452708334,112.91072857500001,61.0,127.0
210,113.14248002708334,113.27934112083334,63.0,102.0
211,113.36145777708334,113.6443040375,54.0,102.0
212,114.01839102708334,114.15525212083334,54.0,95.0
213,114.23736877708335,114.399777275,56.0,102.0
214,114.45634652708334,114.63700317083334,58.0,107.0
215,114.89430202708334,115.02386386250001,56.0,112.0
216,115.11327977708333,116.12605187083334,58.0,107.0
217,118.61692377708334,119.29028035833335,63.0,112.0
218,119.49283477708335,120.07860025833334,70.0,112.0
219,120.36874577708335,120.95086162916668,68.0,122.0
220,121.46363452708334,121.7902763375,65.0,107.0
221,121.68261227708334,121.79940041041668,63.0,109.0
222,122.12056777708334,122.40706366666667,63.0,117.0
223,122.55852327708334,122.68261066875002,61.0,83.0
224,122.77750102708335,123.08224506250001,61.0,96.0
225,122.99647877708334,123.34136873333334,58.0,107.0
226,123.43443427708334,123.71545572291667,63.0,102.0
227,123.87238977708334,124.27749861458334,63.0,127.0
228,124.74830077708334,124.96362889791668,58.0,112.0
229,124.96727852708334,125.20632923750001,61.0,122.0
230,125.40523402708334,125.58041622708335,63.0,112.0
231,125.62421177708335,126.20632762916668,54.0,107.0
232,126.50012277708333,126.70450201041668,58.0,112.0
233,126.71910052708334,126.9800490125,61.0,107.0
234,127.15705602708334,127.29391712083334,63.0,102.0
235,127.37603377708334,127.91617889375001,54.0,97.0
236,128.03296702708334,128.17530256458335,54.0,79.0
237,128.25194477708334,128.45632401041667,63.0,83.0
238,128.47092252708333,128.71362286666667,61.0,90.0
239,128.90887802708335,129.21544687708334,56.0,93.0
240,129.34683352708333,131.26471365416668,54.0,88.0
241,132.63149977708335,132.9453678854167,63.0,127.0
242,133.06945527708334,133.16434563541668,68.0,112.0
243,133.28843302708333,133.54025743958334,68.0,122.0
244,133.72638852708334,134.25923438541668,63.0,127.0
245,134.38332177708335,134.78843061458335,63.0,127.0
246,134.82127727708334,134.92529170833333,61.0,122.0
247,135.04025502708333,135.3322253604167,61.0,107.0
248,135.47821052708335,135.98733379583334,59.0,102.0
249,136.57309927708334,136.67893852291667,63.0,112.0
250,136.13514377708333,136.779303325,61.0,127.0
251,136.79207702708334,137.81032356458334,63.0,112.0
252,138.54389902708334,138.6661616041667,54.0,99.0
253,138.76287677708333,139.01652600416668,66.0,107.0
254,139.20083227708335,139.47090483541666,63.0,122.0
255,139.41981002708334,139.54754704791668,61.0,112.0
256,139.63878777708334,139.99462662083334,61.0,122.0
257,140.07674327708335,140.23550214583335,59.0,93.0
258,140.29572102708335,141.1479094375,56.0,102.0
259,142.04754302708335,142.17163041875,54.0,99.0
260,142.26652077708334,142.52381963333335,66.0,107.0
261,142.70447627708336,142.97366333333335,63.0,112.0
262,143.14461903333333,143.56373623333334,61.0,122.0
263,143.58579503333334,143.6942508,63.0,102.0
264,143.80638303333333,145.08763166666668,63.0,127.0
265,146.67402703333335,147.40704001666666,68.0,127.0
266,147.70579320833332,148.4535926083333,70.0,127.0
267,148.43526419166665,149.31502819166667,67.0,127.0
268,149.31502819166667,150.16913240833333,65.0,122.0
269,150.19479219166666,150.87111076666665,65.0,112.0
270,151.07455619166666,151.66289836666667,72.0,112.0
271,151.95432019166665,152.53899668333332,70.0,122.0
272,153.05402519166665,153.44625330833333,67.0,127.0
273,153.49390719166666,153.69551977499998,65.0,100.0
274,153.71384819166667,153.91729361666665,65.0,117.0
275,153.93378919166665,154.16472724166667,63.0,122.0
276,154.37367119166666,154.62843618333332,63.0,117.0
277,154.59361219166667,154.94001926666667,60.0,99.0
278,155.03349419166665,155.47887471666667,58.0,96.0
279,155.47337619166666,155.85827294166666,60.0,99.0
280,156.35314019166665,156.57124835,60.0,122.0
281,156.57308119166666,156.77102809166666,63.0,102.0
282,157.01296319166664,157.1320979,65.0,96.0
283,157.23290419166665,157.73326996666665,56.0,99.0
284,158.11266819166664,158.31794645833332,60.0,97.0
285,158.33260919166665,158.5397203,63.0,127.0
286,158.77249119166666,158.90995431666664,65.0,102.0
287,158.99243219166667,159.38282746666667,63.0,122.0
288,159.65225519166665,159.77872126666665,63.0,107.0
289,159.87219619166666,160.09213719166667,72.0,100.0
290,160.09213719166667,160.33773797499998,70.0,122.0
291,160.53201919166665,160.83260522499998,68.0,127.0
292,160.97190119166666,161.63172419166665,72.0,122.0
293,161.85166519166665,162.03678219999998,70.0,100.0
294,162.07160619166666,162.25305751666664,72.0,93.0
295,162.29154719166667,162.42717747499998,70.0,117.0
296,162.51148819166664,162.872558,75.0,122.0
297,162.95137019166665,163.262953275,73.0,127.0
298,163.39125219166667,163.71933084999998,72.0,107.0
299,163.83113419166665,164.20503389166666,68.0,117.0
300,164.27101619166666,164.87768678333333,68.0,127.0
301,165.15078019166666,165.528345575,68.0,127.0
302,165.59066219166667,165.74095520833333,65.0,93.0
303,165.81060319166664,166.55656975,67.0,122.0
304,167.13024919166665,167.39967691666666,72.0,99.0
305,167.57013119166666,167.67643600833333,67.0,78.0
306,167.79007219166667,167.931201,67.0,100.0
307,168.22995419166665,168.35458742499998,63.0,83.0
308,168.44989519166666,168.75597975,63.0,96.0
309,168.66983619166666,169.01624326666666,60.0,107.0
310,169.10971819166664,169.3919758083333,65.0,102.0
311,169.54960019166666,169.95649104166665,65.0,127.0
312,170.42936419166665,170.64563950833332,60.0,112.0
313,170.64930519166666,170.88940745,63.0,122.0
314,171.08918719166667,171.26513999166664,65.0,112.0
315,171.30912819166664,171.89380468333331,56.0,107.0
316,172.18889219166664,172.39417045833332,60.0,112.0
317,172.40883319166664,172.67092954999998,63.0,107.0
318,172.84780144166666,172.98367081666666,65.0,102.0
319,173.06519244166665,173.601423575,56.0,97.0
320,173.71736544166666,173.85866959166665,56.0,79.0
321,173.93475644166668,174.13765470833334,65.0,83.0
322,174.15214744166667,174.39308913333332,63.0,90.0
323,174.58692944166665,174.89127684166667,58.0,93.0
324,175.02171144166667,176.92569428333334,56.0,88.0
325,178.28257644166666,178.87496691666666,65.0,112.0
326,179.15214044166666,179.75177728333333,72.0,127.0
327,180.02170444166666,180.6345819,70.0,122.0
328,181.11619903333334,181.42502223333332,67.0,100.0
329,181.55737503333333,181.6713455,65.0,79.0
330,181.77796303333332,182.06656566666666,65.0,95.0
331,181.99855103333334,182.1786979,63.0,85.0
332,182.43972703333333,182.65112386666667,63.0,96.0
333,182.66031503333335,183.01877053333334,60.0,97.0
334,183.10149103333333,183.50038766666665,65.0,99.0
335,183.54266703333334,184.11803406666667,65.0,96.0
336,184.4388485645833,184.68884858541665,60.0,112.0
337,184.73307935833333,184.979233225,63.0,112.0
338,185.073854625,185.33362025,65.0,92.0
339,185.366823375,185.7750265,56.0,93.0
340,186.33362025,186.5875265,60.0,102.0
341,186.706667125,186.92941638125,63.0,117.0
342,187.02068622708333,187.21116242708334,65.0,99.0
343,187.24687671458332,188.01870215,56.0,107.0
344,187.947273575,188.01870215,56.0,90.0
345,188.21909898541665,188.43338471041668,65.0,93.0
346,188.57624186041667,188.84211488958334,63.0,107.0
347,189.12782918958334,190.10401971458333,60.0,95.0
348,190.10401971458333,191.58021026458334,58.0,107.0
349,191.94925790208333,195.49886125416666,56.0,107.0
350,195.77862317291667,196.185369225,63.0,100.0
351,196.18735335208333,196.40957558541666,61.0,75.0
352,196.37187717083333,196.86195656041667,63.0,99.0
353,196.85005179791665,197.36195658541666,61.0,97.0
354,197.40163912708334,198.10997249583332,56.0,95.0
355,198.08814709791667,198.71513125625,58.0,96.0
356,198.66949633333334,202.7448933625,60.0,82.0
