,start,end,pitch,velocity
0,2.9466880333333334,4.4227894,47.0,68.0
1,3.3878640333333334,4.612127433333334,54.0,60.0
2,4.270216033333334,4.7113920333333335,59.0,67.0
3,3.8290400333333334,4.7316126,66.0,92.0
4,4.7113920333333335,5.696685100000001,49.0,72.0
5,5.152568033333334,6.3529344000000005,61.0,63.0
6,5.5937440333333335,6.4926401333333335,68.0,85.0
7,6.917272033333334,7.4540361666666675,49.0,43.0
8,6.4760960333333335,7.540433133333334,42.0,81.0
9,7.3584480333333335,8.273888233333334,66.0,82.0
10,7.799624033333334,8.312491133333333,58.0,69.0
11,8.240800033333334,9.358445900000001,39.0,56.0
12,8.681976033333333,9.511019266666667,51.0,56.0
13,9.123152033333334,9.999989333333334,63.0,58.0
14,10.446680033333335,11.1176352,54.0,50.0
15,10.005504033333334,11.145208700000001,47.0,70.0
16,10.887856033333334,11.788590366666668,66.0,88.0
17,11.329032033333334,11.843737366666668,59.0,55.0
18,11.770208033333335,12.681971766666667,49.0,62.0
19,12.211384033333335,13.095574266666668,56.0,75.0
20,12.652560033333334,13.450353300000002,65.0,61.0
21,13.093736033333334,13.5330738,61.0,49.0
22,13.976088033333335,16.54226176666667,49.0,41.0
23,14.417264033333334,16.7315998,54.0,42.0
24,13.534912033333335,16.937481933333334,42.0,55.0
25,14.858440033333334,17.224246333333333,58.0,52.0
26,15.299616033333335,17.257334533333335,66.0,61.0
27,17.505496033333333,18.0551278,58.0,57.0
28,17.064320033333335,18.73711236666667,42.0,56.0
29,17.946672033333336,18.7996123,66.0,102.0
30,18.387848033333334,18.961376833333336,58.0,57.0
31,19.270200033333335,19.781228900000002,58.0,73.0
32,18.829024033333337,19.825346500000002,41.0,71.0
33,19.711376033333334,20.566154533333336,65.0,69.0
34,19.711376033333334,20.637845633333335,61.0,72.0
35,20.152552033333336,20.6525515,58.0,53.0
36,21.034904033333333,21.624976933333336,51.0,49.0
37,20.593728033333335,21.8437267,39.0,75.0
38,21.917256033333334,22.26652036666667,54.0,82.0
39,21.476080033333336,22.294093866666667,63.0,88.0
40,22.799608033333335,23.306960433333334,49.0,61.0
41,22.358432033333337,23.525710200000002,37.0,79.0
42,23.240784033333334,24.05328316666667,68.0,100.0
43,23.681960033333336,24.1212978,61.0,92.0
44,24.123136033333335,25.2848995,35.0,83.0
45,25.005488033333336,25.3069583,47.0,52.0
46,24.564312033333334,25.365781766666668,42.0,60.0
47,25.446664033333334,25.908060600000002,59.0,77.0
48,25.005488033333336,25.911737066666667,63.0,69.0
49,25.005488033333336,25.926442933333334,66.0,88.0
50,25.887840033333337,26.40254536666667,65.0,67.0
51,25.887840033333337,26.610052558333336,61.0,90.0
52,25.887840033333337,26.61367574166667,58.0,85.0
53,26.329016033333335,26.83650151666667,46.0,50.0
54,25.887840033333337,27.093747533333335,34.0,88.0
55,26.76584944166667,27.64084821666667,65.0,69.0
56,26.76584944166667,27.66258731666667,61.0,95.0
57,27.20063144166667,27.718746658333338,58.0,83.0
58,27.63541344166667,29.088309958333337,32.0,77.0
59,28.07019544166667,29.149904075000002,44.0,99.0
60,28.504977441666668,29.296643000000003,63.0,93.0
61,28.93975944166667,29.490483308333335,56.0,75.0
62,29.80932344166667,30.67888744166667,49.0,79.0
63,29.37454144166667,31.050263733333338,37.0,81.0
64,30.24410544166667,31.091930341666668,65.0,66.0
65,30.24410544166667,31.095553525000003,61.0,75.0
66,30.67888744166667,31.110046258333337,56.0,72.0
67,31.54845144166667,32.09011735,58.0,57.0
68,31.11366944166667,32.76221785833334,42.0,56.0
69,31.98323344166667,32.823811975000005,66.0,102.0
70,32.41801544166667,32.98323204166667,58.0,57.0
71,33.28757944166667,33.791201925,58.0,73.0
72,32.85279744166667,33.834680125000006,41.0,71.0
73,33.72236144166667,34.56475156666667,65.0,69.0
74,33.72236144166667,34.63540364166667,61.0,72.0
75,34.15714344166667,34.649896375000004,58.0,53.0
76,35.02670744166667,35.60822836666667,51.0,49.0
77,34.591925441666675,35.823807775000006,39.0,75.0
78,35.89627144166667,36.24047385833334,54.0,82.0
79,35.46148944166667,36.267647733333334,63.0,88.0
80,36.76583544166667,37.26583474166667,49.0,61.0
81,36.33105344166667,37.481414150000006,37.0,79.0
82,37.20061744166667,38.00134095833334,68.0,100.0
83,37.63539944166667,38.06836985,61.0,92.0
84,38.504963441666675,39.122716200000006,42.0,56.0
85,38.07018144166667,39.733222591666674,35.0,92.0
86,39.37452744166667,39.872715150000005,42.0,45.0
87,38.93974544166667,39.93068608333334,47.0,74.0
88,39.80930944166667,40.506772233333336,35.0,78.0
89,39.37452744166667,40.57017794166667,59.0,56.0
90,38.93974544166667,40.59554022500001,66.0,92.0
91,38.93974544166667,40.6227141,63.0,85.0
92,40.24409144166667,40.71329368333334,47.0,57.0
93,40.67887344166667,41.49408969166667,66.0,99.0
94,40.67887344166667,41.52850993333334,63.0,97.0
95,41.11365544166667,41.539379483333335,59.0,58.0
96,42.42234403333334,43.14293150000001,65.0,63.0
97,41.54843744166667,43.19991673333334,37.0,82.0
98,42.42234403333334,43.22381376666667,61.0,58.0
99,41.98321944166667,43.24954903333334,44.0,28.0
100,42.42234403333334,43.39476946666667,49.0,85.0
101,43.30469603333334,43.86719543333334,65.0,69.0
102,42.86352003333334,44.05837170000001,56.0,69.0
103,43.30469603333334,44.06388640000001,61.0,58.0
104,44.18704803333334,44.420503666666676,56.0,99.0
105,44.18704803333334,44.690723966666674,49.0,70.0
106,44.18704803333334,44.994032466666674,65.0,72.0
107,44.18704803333334,44.99954716666667,61.0,99.0
108,43.30469603333334,45.039988300000005,37.0,78.0
109,44.62822403333334,45.039988300000005,56.0,93.0
110,45.508737800000006,46.16131063333334,42.0,90.0
111,45.949913800000004,46.27711933333334,51.0,83.0
112,45.06940003333334,46.455427966666676,35.0,72.0
113,45.944399100000005,46.47381030000001,47.0,89.0
114,46.39844273333334,46.69991300000001,42.0,85.0
115,45.95175203333334,46.85616283333334,59.0,92.0
116,47.714617800000006,47.95542636666667,56.0,85.0
117,47.26425063333334,48.021602766666675,49.0,89.0
118,46.83410403333334,48.161308500000004,37.0,99.0
119,47.723808966666674,48.29182306666667,53.0,85.0
120,48.16314673333334,48.47932286666668,49.0,90.0
121,47.716456033333344,48.501381666666674,61.0,112.0
122,49.03814580000001,49.35064546666668,54.0,90.0
123,48.59880803333334,49.37086603333334,42.0,85.0
124,49.03998403333334,49.42233656666667,58.0,107.0
125,49.48116003333334,50.10432113333334,41.0,82.0
126,49.92233603333334,50.33593853333334,58.0,107.0
127,49.90395370000001,50.398438466666676,53.0,66.0
128,50.80468803333334,51.08226126666668,54.0,85.0
129,50.36351203333334,51.10432006666667,39.0,99.0
130,50.802849800000004,51.20909936666668,51.0,76.0
131,51.69255473333334,52.005054400000006,49.0,63.0
132,51.68704003333334,52.05652493333334,56.0,79.0
133,51.24586403333334,52.06387786666667,37.0,82.0
134,53.00872980000001,53.381891166666676,59.0,81.0
135,52.128216033333345,53.40027350000001,35.0,65.0
136,52.57490673333334,53.64108206666668,42.0,69.0
137,53.44990580000001,53.74218490000001,47.0,69.0
138,53.01056803333334,53.821228933333344,54.0,81.0
139,54.76608086666668,54.97380123333334,56.0,84.0
140,54.32490486666667,55.02527176666668,49.0,85.0
141,53.89292003333334,55.168653966666675,37.0,74.0
142,54.78813966666667,55.18335983333334,53.0,83.0
143,54.77527203333334,55.58225646666668,61.0,84.0
144,55.19806570000001,55.68519753333334,49.0,79.0
145,56.53925662500001,56.82186492500001,58.0,81.0
146,56.09696180000001,56.83635765833334,54.0,89.0
147,56.535633441666675,56.899763366666676,61.0,76.0
148,55.65762403333334,57.33273377500001,42.0,77.0
149,56.95229952500001,57.604472525000006,54.0,83.0
150,57.845414216666676,58.120776150000005,54.0,71.0
151,58.26570348333334,58.546500191666674,54.0,82.0
152,57.40519744166667,58.647949325000006,40.0,79.0
153,58.274761441666676,58.74396368333334,64.0,64.0
154,58.263891891666674,58.96135468333334,58.0,63.0
155,58.71497821666667,59.23852820833334,54.0,88.0
156,59.57910744166667,60.10646723333334,47.0,89.0
157,60.00904086666667,60.33624640000001,51.0,83.0
158,59.14432544166667,60.521907966666674,35.0,72.0
159,59.577295850000006,60.79764296666668,42.0,90.0
160,60.474113900000006,60.81602530000001,47.0,89.0
161,60.01823203333334,60.92264283333334,59.0,92.0
162,61.78845073333334,62.02925930000001,56.0,85.0
163,61.34727473333334,62.10462686666668,49.0,89.0
164,60.900584033333345,62.22778850000001,37.0,99.0
165,61.78661250000001,62.35462660000001,53.0,85.0
166,61.78293603333334,62.56786166666667,61.0,112.0
167,62.214920866666674,62.61749396666668,49.0,90.0
168,63.111978733333345,63.42447840000001,54.0,90.0
169,62.66528803333334,63.43734603333334,42.0,85.0
170,63.54580180000001,63.812345633333344,66.0,100.0
171,63.55131650000001,63.933669033333345,58.0,107.0
172,63.547640033333344,64.17080113333334,41.0,82.0
173,63.979624866666676,64.47410963333334,53.0,66.0
174,65.30618985000001,65.44205922500001,58.0,40.0
175,64.86197686666668,65.56162427500001,51.0,79.0
176,65.52539244166667,65.56162427500001,51.0,68.0
177,65.29713189166668,65.63046475833335,54.0,74.0
178,64.42999203333335,65.789884825,39.0,92.0
179,65.30800144166668,66.04169606666667,63.0,100.0
180,65.74278344166667,66.05981198333335,54.0,93.0
181,65.96017444166668,66.17213066666667,58.0,88.0
182,67.05256421666668,67.23010020000001,51.0,77.0
183,67.04712944166667,67.26089725833334,47.0,71.0
184,67.050752625,67.26089725833334,47.0,89.0
185,66.17756544166667,67.32430296666668,35.0,68.0
186,67.04712944166667,67.54712874166667,54.0,100.0
187,66.61778221666667,67.62140400000001,42.0,66.0
188,67.48191144166667,67.78082406666667,51.0,72.0
189,67.69930244166667,67.85872250833334,54.0,90.0
190,67.91669344166668,68.6320392875,49.0,78.0
191,68.35147544166668,68.85882477500002,53.0,65.0
192,68.79632483750001,69.03918173750002,56.0,65.0
193,67.91669344166668,69.26418151250002,37.0,82.0
194,69.21061013750001,69.53203838750001,56.0,68.0
195,68.99632463750001,69.55703836250001,49.0,65.0
196,69.42489563750001,69.5677526375,53.0,77.0
197,68.7820391375,69.58025262500001,61.0,117.0
198,70.28203763750001,70.50703741250001,61.0,56.0
199,69.8534666375,70.55346593750001,54.0,69.0
200,70.06775213750001,70.5748944875,58.0,66.0
201,70.49632313750001,71.1195368,66.0,95.0
202,69.6391811375,71.2606080875,42.0,99.0
203,70.71060863750002,71.37132226250002,54.0,78.0
204,71.35346513750001,71.45525075,66.0,33.0
205,71.1391796375,71.46239360000001,61.0,53.0
206,70.9248941375,71.50167927500001,58.0,70.0
207,71.9963216375,72.21239285000001,61.0,37.0
208,71.56775063750001,72.29989276250001,54.0,72.0
209,71.78203613750001,72.30346418750001,58.0,61.0
210,71.35346513750001,73.07310627500001,42.0,82.0
211,73.06774913750002,73.07310627500001,42.0,56.0
212,72.2106071375,73.07310627500001,66.0,79.0
213,73.4963201375,74.03599335000001,58.0,57.0
214,73.92910944166668,74.76968797500001,66.0,102.0
215,74.36389144166668,74.92910804166668,58.0,57.0
216,75.23345544166668,75.73707792500001,58.0,73.0
217,74.79867344166668,75.78055612500002,41.0,71.0
218,75.66823744166668,76.51062756666668,65.0,69.0
219,75.66823744166668,76.58127964166668,61.0,72.0
220,76.10301944166667,76.59577237500001,58.0,53.0
221,76.97258344166669,77.55410436666668,51.0,49.0
222,76.53780144166669,77.76968377500002,39.0,75.0
223,77.84214744166668,78.18634985833334,54.0,82.0
224,77.40736544166668,78.21352373333335,63.0,88.0
225,78.71171144166668,79.21701243333334,49.0,61.0
226,78.27692944166668,79.43576220000001,37.0,79.0
227,79.15083603333335,79.96333516666668,68.0,100.0
228,79.59201203333335,80.03134980000002,61.0,92.0
229,80.03318803333335,81.19495150000002,35.0,83.0
230,80.91554003333334,81.21701030000001,47.0,52.0
231,80.47436403333334,81.27583376666668,42.0,60.0
232,81.35671603333334,81.8181126,59.0,77.0
233,80.91554003333334,81.82178906666668,63.0,69.0
234,80.91554003333334,81.83649493333334,66.0,88.0
235,81.79789203333334,82.31259736666668,65.0,67.0
236,81.79789203333334,82.52215596666667,61.0,90.0
237,81.79789203333334,82.52583243333335,58.0,85.0
238,82.23906803333334,82.75193513333335,46.0,50.0
239,81.79789203333334,83.01296426666667,34.0,88.0
240,82.68024403333334,83.56811073333334,65.0,69.0
241,82.68024403333334,83.59016953333334,61.0,95.0
242,83.12142003333335,83.64715476666667,58.0,83.0
243,83.56259603333335,85.03035107291667,32.0,77.0
244,84.00377203333335,85.09239476875001,44.0,99.0
245,84.44276077708334,85.24020475,63.0,93.0
246,84.88071627708334,85.43545991041667,56.0,75.0
247,85.75662727708334,86.63253827708334,49.0,79.0
248,85.31867177708334,87.00662526666667,37.0,81.0
249,86.19458277708334,87.04859600208334,65.0,66.0
250,86.19458277708334,87.05224563125,61.0,75.0
251,86.63253827708334,87.06684414791667,56.0,72.0
252,87.50844927708334,88.05406883750001,58.0,57.0
253,87.07049377708334,88.73107504791668,42.0,56.0
254,87.94640477708334,88.79311874375001,66.0,102.0
255,88.38436027708335,88.95370242708334,58.0,57.0
256,89.26027127708335,89.76756973125,58.0,73.0
257,88.82231577708335,89.81136528125,41.0,71.0
258,89.69822677708333,90.54676555833335,65.0,69.0
259,89.69822677708333,90.61793332708334,61.0,72.0
260,90.13618227708334,90.63253184375,58.0,53.0
261,91.01209327708334,91.59463236666667,51.0,49.0
262,90.57413777708334,91.81021177500001,39.0,75.0
263,91.88267544166668,92.22687785833334,54.0,82.0
264,91.44789344166668,92.25405173333334,63.0,88.0
265,92.75223944166667,93.25223874166667,49.0,61.0
266,92.31745744166668,93.46781815000001,37.0,79.0
267,93.18702144166667,93.98774495833334,68.0,100.0
268,93.62180344166667,94.05477385000002,61.0,92.0
269,94.92614944166668,95.67252520833334,66.0,100.0
270,94.05658544166668,95.68701794166668,35.0,90.0
271,94.92614944166668,95.71419181666668,63.0,90.0
272,95.36093144166668,96.06020582500001,47.0,76.0
273,94.49136744166668,96.06382900833334,42.0,67.0
274,95.79571344166668,96.13085790000001,59.0,79.0
275,95.79571344166668,96.14716222500002,35.0,75.0
276,95.79571344166668,96.14897381666668,63.0,73.0
277,95.79571344166668,96.16165495833334,66.0,77.0
278,97.53484144166669,98.08918849166668,68.0,99.0
279,97.53484144166669,98.26720406666668,61.0,73.0
280,97.96962344166668,98.53742436666668,49.0,89.0
281,98.40874803333335,99.14955606666668,65.0,92.0
282,98.84992403333335,99.46573220000002,49.0,79.0
283,99.29110003333335,99.74514366666668,68.0,95.0
284,99.29110003333335,99.79477596666668,65.0,83.0
285,99.29110003333335,100.05630145833334,61.0,69.0
286,100.17126477708334,100.75155581458334,68.0,122.0
287,97.53484144166669,100.88294246458334,37.0,93.0
288,99.73227603333335,101.04535096250001,49.0,86.0
289,98.62933603333335,101.07454799583334,44.0,22.0
290,100.60922027708334,101.12746761875,61.0,88.0
291,101.04717577708334,101.59826978125001,65.0,83.0
292,101.04717577708334,101.61286829791668,68.0,100.0
293,101.48513127708334,102.09096971875,44.0,46.0
294,101.92308677708334,102.41761152916668,68.0,99.0
295,101.92308677708334,102.53096473333335,65.0,81.0
296,102.80118503333335,102.88022906666669,61.0,33.0
297,101.92308677708334,102.91699373333334,49.0,96.0
298,102.80118503333335,103.32691976666668,68.0,117.0
299,103.24236103333335,103.76625753333335,49.0,78.0
300,103.90412503333334,104.26625700000001,49.0,100.0
301,102.36104227708334,104.33059516666668,44.0,57.0
302,103.68353703333335,104.53831553333335,65.0,112.0
303,104.12471303333335,104.56221256666669,61.0,122.0
304,103.68353703333335,104.56588903333335,68.0,127.0
305,101.04717577708334,104.62287426666668,37.0,90.0
306,105.00706503333335,105.53647623333335,47.0,89.0
307,105.22765303333335,105.55485856666668,51.0,83.0
308,104.56588903333335,105.95191696666669,35.0,72.0
309,104.78647703333336,106.00890220000002,42.0,90.0
310,105.66882903333335,106.01074043333335,47.0,89.0
311,105.88941703333334,106.19088730000001,51.0,85.0
312,106.11000503333335,106.31221070000001,54.0,45.0
313,105.44824103333335,106.35265183333335,59.0,92.0
314,106.99235703333335,107.23316560000002,56.0,85.0
315,106.55118103333335,107.30853316666668,49.0,89.0
316,106.77176903333336,107.33978313333336,53.0,85.0
317,106.33059303333334,107.65779750000002,37.0,99.0
318,107.43353303333335,107.83610613333335,49.0,90.0
319,107.65412103333335,107.97029716666668,56.0,90.0
320,107.21294503333336,107.99787066666669,61.0,112.0
321,107.87470903333335,108.00338536666668,53.0,86.0
322,108.31588503333334,108.62838470000001,54.0,90.0
323,108.09529703333335,108.86735503333335,42.0,85.0
324,108.53647303333335,108.91882556666668,58.0,107.0
325,108.75706103333334,109.02360486666669,66.0,100.0
326,108.97764903333335,109.60051492083335,41.0,82.0
327,109.19823703333336,109.69175565,53.0,66.0
328,109.41882503333335,109.83044155833335,58.0,107.0
329,109.63883602708334,109.89248525416667,61.0,83.0
330,110.07679152708334,110.48007555000001,51.0,76.0
331,110.29576927708334,110.57131627916668,54.0,85.0
332,109.85781377708334,110.59321405416668,39.0,99.0
333,110.51474702708335,110.66073219375001,63.0,92.0
334,110.95270252708335,111.26292100625001,49.0,63.0
335,111.39065802708335,111.53481837916668,49.0,97.0
336,111.17168027708334,111.53846800833334,56.0,79.0
337,110.73372477708334,111.54576726666667,37.0,82.0
338,112.04759127708334,112.55124010208334,47.0,75.0
339,112.26656902708334,112.63700638750001,59.0,76.0
340,111.60963577708334,112.87240746875001,35.0,65.0
341,111.82861352708335,112.88700598541668,42.0,69.0
342,112.70452452708334,112.99467004583335,47.0,69.0
343,112.48554677708334,113.29029000833334,66.0,102.0
344,112.92350227708334,113.30853815416667,63.0,102.0
345,113.14248002708334,113.35233370416668,59.0,88.0
346,113.79941327708335,114.1917484125,53.0,63.0
347,114.01839102708334,114.22459507500001,56.0,86.0
348,113.58043552708334,114.27568988333334,49.0,85.0
349,113.36145777708334,114.62787909791668,37.0,74.0
350,114.45634652708334,114.93992239166667,49.0,79.0
351,114.67532427708335,114.98006831250001,56.0,96.0
352,114.89430202708334,115.02386386250001,53.0,85.0
353,114.23736877708335,115.03846237916667,61.0,100.0
354,115.55123527708334,115.83590635208334,58.0,81.0
355,115.77021302708334,115.90159967708334,61.0,102.0
356,115.33225752708334,116.0749570625,54.0,89.0
357,115.98919077708334,116.35597850833334,61.0,76.0
358,116.64612402708335,116.78298512083335,64.0,53.0
359,115.11327977708333,116.79210919375001,42.0,77.0
360,116.20816852708334,116.86510177708334,54.0,83.0
361,116.42714627708334,116.86510177708334,58.0,86.0
362,117.08407952708335,117.36145134375,54.0,71.0
363,117.52203502708335,117.80488128750001,54.0,82.0
364,117.30305727708334,118.00561089166668,58.0,63.0
365,116.86510177708334,118.11692458125,40.0,79.0
366,117.74101277708334,118.21363975416668,64.0,64.0
367,117.95999052708333,118.48736194166668,54.0,88.0
368,118.17896827708334,118.55305526666668,58.0,96.0
369,118.39794602708335,118.62239822083335,64.0,72.0
370,119.05487927708334,119.58042587708334,47.0,89.0
371,119.27385702708334,119.59867402291667,51.0,83.0
372,118.61692377708334,119.99283397291667,35.0,72.0
373,118.83590152708334,120.049403225,42.0,90.0
374,119.71181252708334,120.05122803958335,47.0,89.0
375,119.93079027708335,120.23005986875,51.0,85.0
376,120.14976802708334,120.35049763125001,54.0,45.0
377,119.49283477708335,120.39064355208335,59.0,92.0
378,121.02567902708334,121.2647297375,56.0,85.0
379,120.58772352708334,121.33954713541668,49.0,89.0
380,120.80670127708333,121.37056898333334,53.0,85.0
381,120.36874577708335,121.68626190625001,37.0,99.0
382,121.46363452708334,121.86326892083335,49.0,90.0
383,121.68261227708334,121.99648038541667,56.0,90.0
384,121.24465677708335,122.02385260416668,61.0,112.0
385,121.90159002708334,122.02932704791668,53.0,86.0
386,122.33954552708335,122.64976400625001,54.0,90.0
387,122.12056777708334,122.88698990208334,42.0,85.0
388,122.55852327708334,122.93808471041667,58.0,107.0
389,122.77750102708335,123.04209914166668,66.0,100.0
390,122.99647877708334,123.61509092083334,41.0,82.0
391,123.21545652708335,123.70633165000001,53.0,66.0
392,123.43443427708334,123.84501755833334,58.0,107.0
393,123.65341202708335,123.87238977708334,61.0,83.0
394,124.31034527708334,124.64611116041668,54.0,74.0
395,124.52932302708334,124.66618412083335,58.0,40.0
396,124.09136752708335,124.79392114166667,51.0,79.0
397,124.96727852708334,125.17165776041668,51.0,68.0
398,123.87238977708334,125.23370145625,39.0,92.0
399,124.74830077708334,125.48735068333335,63.0,100.0
400,125.18625627708334,125.50559882916667,54.0,93.0
401,125.40523402708334,125.61873733333334,58.0,88.0
402,126.28114502708334,126.45997685625001,51.0,77.0
403,126.06216727708335,126.56034165833334,47.0,89.0
404,126.50012277708333,126.56034165833334,47.0,71.0
405,125.62421177708335,126.77931940833335,35.0,68.0
406,125.84318952708334,126.85413680625001,42.0,66.0
407,126.50012277708333,127.00377160208335,54.0,100.0
408,126.93807827708335,127.23917268333335,51.0,72.0
409,127.15705602708334,127.31763971041667,54.0,90.0
410,127.37603377708334,128.09866035208336,49.0,78.0
411,128.03296702708334,128.28114181041667,56.0,65.0
412,127.81398927708334,128.3304118041667,53.0,38.0
413,127.37603377708334,128.74464471458333,37.0,82.0
414,128.68990027708335,129.01836690208336,56.0,68.0
415,128.47092252708333,129.04391430625,49.0,65.0
416,128.90887802708335,129.05486319375,53.0,77.0
417,128.25194477708334,129.06763689583335,61.0,117.0
418,129.78478902708335,130.01471566458335,61.0,56.0
419,129.34683352708333,130.06216084375,54.0,69.0
420,129.56581127708336,130.08405861875002,58.0,66.0
421,130.00376677708334,130.64062706666667,66.0,95.0
422,129.12785577708334,130.78478741875,42.0,99.0
423,130.22274452708334,130.89792592291667,54.0,78.0
424,130.87967777708334,130.98369220833334,66.0,33.0
425,130.66070002708335,130.99099146666669,61.0,53.0
426,130.44172227708333,131.0311373875,58.0,70.0
427,131.53661102708335,131.75741359166668,61.0,37.0
428,131.09865552708334,131.84682950625,54.0,72.0
429,131.31763327708333,131.85047913541666,58.0,61.0
430,130.87967777708334,132.63697422083334,42.0,82.0
431,131.75558877708335,132.63697422083334,66.0,79.0
432,132.41252202708336,133.18076896666668,64.0,88.0
433,132.63149977708335,133.37967375625,68.0,79.0
434,133.28843302708333,133.56580484375002,63.0,93.0
435,133.06945527708334,133.61142520833334,52.0,86.0
436,132.63149977708335,133.8340525875,59.0,85.0
437,133.72638852708334,133.90339554166667,52.0,86.0
438,132.63149977708335,134.26288401458334,40.0,81.0
439,132.85047752708334,134.40156992291668,47.0,71.0
440,133.94536627708334,134.55302953333333,59.0,55.0
441,134.16434402708333,134.56580323541667,63.0,117.0
442,133.50741077708335,134.59135063958334,64.0,95.0
443,133.50741077708335,134.80667876041667,68.0,112.0
444,134.82127727708334,135.31032758541667,52.0,92.0
445,134.60229952708335,135.53477977916668,47.0,65.0
446,134.38332177708335,135.553027925,40.0,74.0
447,135.47821052708335,135.56032718333336,52.0,88.0
448,135.04025502708333,135.60047310416667,59.0,77.0
449,135.25923277708335,135.80667715208335,64.0,95.0
450,135.25923277708335,135.92346528541668,68.0,99.0
451,135.91616602708334,136.12784451875,59.0,96.0
452,135.69718827708334,136.13149414791667,63.0,127.0
453,136.57309927708334,137.08769698958335,47.0,92.0
454,136.79207702708334,137.1844121625,59.0,86.0
455,136.13514377708333,137.77930171666668,35.0,82.0
456,137.23003252708335,137.86689281666668,47.0,88.0
457,136.35412152708335,137.87601688958335,42.0,92.0
458,137.66798802708334,138.3449942375,59.0,99.0
459,137.01105477708333,138.3449942375,66.0,127.0
460,137.44901027708335,138.42893570833334,63.0,102.0
461,138.32492127708335,138.81397158541668,47.0,78.0
462,138.54389902708334,139.03842377916666,59.0,99.0
463,138.10594352708335,139.06032155416668,42.0,88.0
464,137.88696577708333,139.08404414375002,35.0,72.0
465,138.98185452708333,139.30302189375,47.0,95.0
466,138.76287677708333,139.54024778958333,66.0,127.0
467,139.20083227708335,139.54389741875002,63.0,127.0
468,139.41981002708334,139.78112331458334,59.0,88.0
469,140.07674327708335,140.58404173125,52.0,92.0
470,140.73367652708333,140.90338428333334,52.0,79.0
471,139.63878777708334,141.25009905416667,40.0,78.0
472,140.95265427708335,141.421631625,63.0,102.0
473,139.85776552708333,141.43987977083333,47.0,79.0
474,140.51469877708334,141.50557309583334,68.0,127.0
475,141.17163202708335,141.54206938750002,64.0,74.0
476,140.29572102708335,141.66433196458334,59.0,93.0
477,141.82856527708333,142.31214114166667,52.0,100.0
478,142.48549852708334,142.56396555416669,52.0,89.0
479,141.39060977708334,142.57308962708333,40.0,81.0
480,142.04754302708335,142.57308962708333,59.0,90.0
481,141.60958752708333,142.60776110416668,47.0,88.0
482,142.26652077708334,143.10050143333333,68.0,127.0
483,142.70447627708336,143.14461903333333,59.0,93.0
484,142.92403103333334,143.14461903333333,63.0,127.0
485,143.58579503333334,144.11520623333334,51.0,97.0
486,143.80638303333333,144.43138236666667,56.0,93.0
487,144.02697103333333,144.51961756666668,58.0,122.0
488,144.46814703333334,144.53432343333333,56.0,27.0
489,143.14461903333333,144.77880846666667,39.0,76.0
490,143.36520703333335,144.96447003333333,46.0,83.0
491,144.24755903333335,145.00307293333333,51.0,99.0
492,144.46814703333334,145.10969046666668,63.0,107.0
493,144.68873503333333,145.39461663333333,56.0,89.0
494,145.35049903333334,145.87623376666667,51.0,83.0
495,145.57108703333333,145.9001308,56.0,89.0
496,145.79167503333335,146.41483613333332,63.0,117.0
497,144.90932303333335,146.5453507,39.0,81.0
498,146.23285103333333,146.56005656666667,58.0,93.0
499,146.45343903333332,146.56557126666667,56.0,92.0
500,146.01226303333334,146.60233593333334,51.0,92.0
501,145.12991103333334,146.60968886666666,46.0,52.0
502,147.33555919166665,147.515177675,58.0,54.0
503,147.11520303333333,147.64897511666666,51.0,90.0
504,146.67402703333335,147.68929763333333,55.0,112.0
505,147.55550019166665,148.04853459999998,58.0,93.0
506,147.55550019166665,148.06136449166667,63.0,127.0
507,146.67402703333335,148.33262505833332,39.0,95.0
508,147.77544119166666,148.42976566666667,51.0,97.0
509,146.89461503333334,148.46275681666665,46.0,89.0
510,147.99538219166666,148.922800075,55.0,82.0
511,148.21532319166667,148.95029269999998,58.0,69.0
512,148.87514619166666,149.39750606666666,51.0,95.0
513,149.09508719166666,149.560628975,55.0,86.0
514,148.43526419166665,150.09581874166665,39.0,82.0
515,149.31502819166667,150.12697705,63.0,127.0
516,149.53496919166665,150.17829661666664,51.0,99.0
517,148.65520519166665,150.19479219166666,46.0,93.0
518,149.97485119166666,150.19479219166666,55.0,97.0
519,149.75491019166665,150.19479219166666,58.0,117.0
520,150.63467419166665,151.16253259166666,49.0,89.0
521,150.85461519166665,151.18086100833332,53.0,83.0
522,150.19479219166666,151.57675480833333,37.0,72.0
523,150.41473319166667,151.6335729,44.0,90.0
524,151.29449719166666,151.63540574166666,49.0,89.0
525,151.51443819166667,151.815024225,53.0,85.0
526,151.73437919166665,151.935991775,56.0,45.0
527,151.07455619166666,151.97631429166665,61.0,92.0
528,152.61414319166664,152.85424544999998,58.0,85.0
529,152.17426119166666,152.92939195833333,51.0,89.0
530,152.39420219166666,152.96055026666664,55.0,85.0
531,151.95432019166665,153.277631875,39.0,99.0
532,153.05402519166665,153.45541751666664,51.0,90.0
533,153.27396619166666,153.58921495833332,58.0,90.0
534,152.83408419166665,153.61670758333332,63.0,112.0
535,153.49390719166666,153.62220610833333,55.0,86.0
536,153.93378919166665,154.245372275,56.0,90.0
537,153.71384819166667,154.48364169166666,44.0,85.0
538,154.15373019166665,154.5349612583333,60.0,107.0
539,154.37367119166666,154.63943323333334,68.0,100.0
540,154.59361219166667,155.21494551666666,43.0,82.0
541,154.81355319166664,155.3065876,55.0,66.0
542,155.03349419166665,155.44588356666665,60.0,107.0
543,155.25343519166665,155.50820018333332,63.0,83.0
544,155.69331719166667,156.0983752,53.0,76.0
545,155.91325819166667,156.19001728333333,56.0,85.0
546,155.47337619166666,156.21201138333333,41.0,99.0
547,156.13319919166665,156.27982652499998,65.0,92.0
548,156.57308119166666,156.88466427499998,51.0,63.0
549,157.01296319166664,157.15775768333333,51.0,97.0
550,156.79302219166667,157.16142336666667,58.0,79.0
551,156.35314019166665,157.16875473333332,39.0,82.0
552,157.67278619166666,158.17865049166664,49.0,75.0
553,157.89272719166667,158.26479404999998,61.0,76.0
554,157.23290419166665,158.50123062499998,37.0,65.0
555,157.45284519166665,158.51589335833333,44.0,69.0
556,158.33260919166665,158.62403101666666,49.0,69.0
557,158.11266819166664,158.92095136666666,68.0,102.0
558,158.55255019166665,158.93927978333332,65.0,102.0
559,158.77249119166666,158.98326798333332,61.0,88.0
560,159.43231419166665,159.82637515,55.0,63.0
561,159.65225519166665,159.85936629999998,58.0,86.0
562,159.21237319166664,159.91068586666665,51.0,85.0
563,158.99243219166667,160.26442430833333,39.0,74.0
564,160.09213719166667,160.57784023333332,51.0,79.0
565,160.31207819166664,160.61816274999998,58.0,96.0
566,160.53201919166665,160.66215094999998,55.0,85.0
567,159.87219619166666,160.6768136833333,63.0,100.0
568,161.19184219166667,161.47776549166664,60.0,81.0
569,161.41178319166664,161.54374779166665,63.0,102.0
570,160.97190119166666,161.71786774999998,56.0,89.0
571,161.63172419166665,162.00012536666665,63.0,76.0
572,162.29154719166667,162.42901031666665,66.0,53.0
573,160.75196019166665,162.438174525,44.0,77.0
574,161.85166519166665,162.51148819166664,56.0,83.0
575,162.07160619166666,162.51148819166664,60.0,86.0
576,162.73142919166665,163.01002112499998,56.0,71.0
577,163.17131119166666,163.45540165,56.0,82.0
578,162.95137019166665,163.6570142333333,60.0,63.0
579,162.51148819166664,163.76881757499999,42.0,79.0
580,163.39125219166667,163.86595818333333,66.0,64.0
581,163.61119319166664,164.14088443333333,56.0,88.0
582,163.83113419166665,164.20686673333333,60.0,96.0
583,164.05107519166665,164.27651471666667,66.0,72.0
584,164.71089819166664,165.23875659166666,49.0,89.0
585,164.93083919166665,165.25708500833332,53.0,83.0
586,164.27101619166666,165.65297880833333,37.0,72.0
587,164.49095719166667,165.7097969,44.0,90.0
588,165.37072119166666,165.71162974166666,49.0,89.0
589,165.59066219166667,165.891248225,53.0,85.0
590,165.81060319166664,166.012215775,56.0,45.0
591,165.15078019166666,166.05253829166665,61.0,92.0
592,166.69036719166667,166.93046944999998,58.0,85.0
593,166.25048519166666,167.00561595833332,51.0,89.0
594,166.47042619166666,167.03677426666667,55.0,85.0
595,166.03054419166665,167.353855875,39.0,99.0
596,167.13024919166665,167.53164151666667,51.0,90.0
597,167.35019019166666,167.6654389583333,58.0,90.0
598,166.91030819166664,167.69293158333332,63.0,112.0
599,167.57013119166666,167.69843010833333,55.0,86.0
600,168.01001319166664,168.321596275,56.0,90.0
601,167.79007219166667,168.55986569166666,44.0,85.0
602,168.22995419166665,168.6111852583333,60.0,107.0
603,168.44989519166666,168.71565723333333,68.0,100.0
604,168.66983619166666,169.29116951666666,43.0,82.0
605,168.88977719166667,169.3828116,55.0,66.0
606,169.10971819166664,169.52210756666665,60.0,107.0
607,169.32965919166665,169.54960019166666,63.0,83.0
608,169.98948219166667,170.32672505833332,56.0,74.0
609,170.20942319166664,170.34688631666666,60.0,40.0
610,169.76954119166666,170.47518523333332,53.0,79.0
611,170.64930519166666,170.8545834583333,53.0,68.0
612,169.54960019166666,170.916900075,41.0,92.0
613,170.42936419166665,171.17166506666666,65.0,100.0
614,170.86924619166666,171.18999348333332,56.0,93.0
615,171.08918719166667,171.30362966666667,60.0,88.0
616,171.96895119166666,172.14856967499998,53.0,77.0
617,171.74901019166666,172.24937596666666,49.0,89.0
618,172.18889219166664,172.24937596666666,49.0,71.0
619,171.30912819166664,172.46931696666667,37.0,68.0
620,171.52906919166665,172.544463475,44.0,66.0
621,172.18889219166664,172.69475649166665,56.0,100.0
622,172.62877419166665,172.92932306666665,53.0,72.0
623,172.84780144166666,173.00722150833334,56.0,90.0
624,173.06519244166665,173.78258274166666,51.0,78.0
625,173.71736544166666,173.96374190833333,58.0,65.0
626,173.49997444166667,174.01265488333334,55.0,38.0
627,173.06519244166665,174.42388619166667,39.0,82.0
628,174.36953844166666,174.69562494166667,58.0,68.0
629,174.15214744166667,174.720987225,51.0,65.0
630,174.58692944166665,174.731856775,55.0,77.0
631,173.93475644166668,174.74453791666667,63.0,117.0
632,175.45649344166668,175.68475399166667,63.0,56.0
633,175.02171144166667,175.731855375,56.0,69.0
634,175.23910244166666,175.753594475,60.0,66.0
635,175.67388444166667,176.30612993333332,68.0,95.0
636,174.80432044166668,176.449245675,44.0,99.0
637,175.89127544166666,176.56156435833333,56.0,78.0
638,176.54344844166667,176.64670916666665,68.0,33.0
639,176.32605744166668,176.65395553333335,63.0,53.0
640,176.10866644166666,176.69381055,60.0,70.0
641,177.19562144166667,177.41482403333333,63.0,37.0
642,176.76083944166666,177.503592025,56.0,72.0
643,176.97823044166665,177.50721520833332,60.0,61.0
644,176.54344844166667,178.28801121666666,44.0,82.0
645,177.41301244166667,178.28801121666666,68.0,79.0
646,178.28257644166666,179.54163265,37.0,66.0
647,178.71735844166668,179.58511085,44.0,51.0
648,179.15214044166666,179.7916323,49.0,58.0
649,179.15214044166666,179.97641465,68.0,42.0
650,179.15214044166666,180.00177693333333,65.0,70.0
651,179.58692244166667,180.06518264166667,61.0,53.0
652,180.02170444166666,181.0316403,39.0,70.0
653,180.45648644166667,181.13274313333332,51.0,38.0
654,180.89561103333332,181.3956105,67.0,73.0
655,180.89561103333332,181.44156633333333,70.0,72.0
656,181.33678703333334,181.51877213333333,63.0,54.0
657,181.77796303333332,182.5592122,44.0,63.0
658,182.21913903333333,182.61252096666666,60.0,41.0
659,182.21913903333333,182.6805356,56.0,58.0
660,182.21913903333333,182.69524146666666,63.0,57.0
661,182.66031503333335,183.27979966666666,43.0,63.0
662,183.10149103333333,183.5628876,55.0,69.0
663,184.4388485645833,184.89846398749998,53.0,81.0
664,183.98384303333333,184.9676947625,48.0,73.0
665,183.54266703333334,185.01577168958332,41.0,78.0
666,184.90038706458333,185.366823375,60.0,72.0
667,185.366823375,186.773073375,37.0,82.0
668,185.835573375,186.894167125,49.0,58.0
669,186.304323375,187.17544813958332,61.0,92.0
670,186.773073375,187.26473385833333,56.0,52.0
671,188.19925771458333,191.91949599583333,58.0,66.0
672,188.19925771458333,191.95322615625,55.0,39.0
673,187.72306721458332,191.95719441041666,51.0,62.0
674,188.19925771458333,191.95719441041666,63.0,63.0
675,187.24687671458332,192.01274996875,39.0,88.0
676,192.08814679791666,192.54052777291668,61.0,68.0
677,192.08021028958333,192.54648015416666,54.0,72.0
678,192.08417854375,192.57624206041666,42.0,63.0
679,192.68933730416666,193.08814684791668,61.0,59.0
680,192.68735317708334,193.09608335625,54.0,81.0
681,192.66552777916667,193.11592462708333,42.0,56.0
682,193.25282939583332,193.55243258541665,54.0,81.0
683,193.26275003125,193.5544167125,61.0,39.0
684,193.66949608333334,193.80640085208333,54.0,96.0
685,193.23894050625,193.82425799583334,42.0,66.0
686,193.87782942708333,194.36195643541666,53.0,79.0
687,194.50084533125,194.9115596375,61.0,72.0
688,194.49886120416667,194.92743265416667,53.0,69.0
689,195.06235329583333,195.32624219791666,61.0,79.0
690,195.05838504166667,195.34211521458332,53.0,70.0
691,195.46711522083334,195.55243268541665,53.0,42.0
692,195.46909934791665,195.64568665833332,61.0,93.0
693,193.88378180833334,195.6853692,41.0,51.0
694,195.68338507291665,196.49886130416667,52.0,78.0
695,196.46314701666665,196.49886130416667,52.0,79.0
696,195.66751205625,196.82227401875,40.0,58.0
697,196.45719463541667,196.82227401875,40.0,64.0
698,196.46909939791666,197.05640101458334,61.0,76.0
699,197.2448930875,197.82822645,39.0,61.0
700,197.23497245208333,198.06830582708332,51.0,79.0
701,199.13179794375,199.58417891874998,56.0,56.0
702,199.35997255833334,199.613940825,60.0,76.0
703,199.57227415625,199.65957574791668,63.0,72.0
704,199.80044877083333,200.20719482291668,68.0,92.0
705,200.01076624166666,200.24290911041666,72.0,76.0
706,200.20124244166666,200.29648054166665,75.0,82.0
707,200.42743292916666,200.91552819166665,80.0,88.0
708,200.6377504,200.94132184375,84.0,71.0
709,200.84211548958334,201.00282978333334,87.0,71.0
710,201.18338534791667,201.76473458333334,92.0,102.0
711,201.72703616875,202.32029016666667,96.0,58.0
712,198.8282265,203.78457595416666,44.0,59.0
713,202.25282984583333,203.81036960625,99.0,63.0
714,198.24092488333332,203.84608389375,32.0,112.0
