,start,end,pitch,velocity
0,23.325919747916664,23.416890060416666,67.0,112.0
1,23.528075997916666,23.6072538625,67.0,100.0
2,23.730232247916668,24.070528602083332,67.0,112.0
3,24.134544747916664,24.565811414583333,67.0,102.0
4,24.943169747916667,25.1436413625,65.0,99.0
5,25.145325997916665,25.31042026875,63.0,99.0
6,25.347482247916666,25.596808289583333,65.0,102.0
7,25.549638497916668,26.19316922708333,67.0,100.0
8,26.964732247916665,27.04896401875,65.0,117.0
9,27.166888497916666,27.246066362500002,65.0,86.0
10,27.369044747916668,27.454961154166668,65.0,89.0
11,27.571200997916662,27.648694227083332,65.0,88.0
12,27.773357247916664,27.983936675000002,65.0,100.0
13,28.177669747916667,28.425311154166664,67.0,97.0
14,28.581982247916663,29.09411141458333,60.0,99.0
15,29.794919747916666,29.877466883333334,55.0,92.0
16,29.997075997916667,30.103208029166666,55.0,73.0
17,30.19923224791667,30.473827820833336,58.0,95.0
18,30.603544747916665,31.103881466666664,58.0,85.0
19,31.412169747916664,31.541886675,55.0,75.0
20,31.614325997916666,31.74235828958333,58.0,93.0
21,31.816482247916667,32.14667078958333,63.0,77.0
22,32.22079474791666,32.77167052916666,60.0,81.0
23,33.433732247916666,33.617357508333335,65.0,99.0
24,33.83804474791666,33.984608029166665,65.0,92.0
25,34.242357247916665,34.40408224791666,65.0,100.0
26,34.44451349791667,34.59276141458333,63.0,86.0
27,34.64666974791667,34.879149435416664,67.0,93.0
28,35.050982247916664,35.273354122916665,65.0,97.0
29,36.26391974791667,36.3329898,67.0,93.0
30,36.46607599791667,36.553677039583334,67.0,90.0
31,36.66823224791666,36.808056987499995,67.0,117.0
32,36.870388497916665,37.35556349791666,67.0,95.0
33,37.881169747916665,38.04963328958333,65.0,86.0
34,38.08332599791667,38.17935021666666,63.0,92.0
35,38.28548224791666,38.62072469583333,65.0,99.0
36,38.48763849791666,38.98797521666666,67.0,95.0
37,39.90273224791667,39.981910112499996,65.0,93.0
38,40.10488849791666,40.189120268749996,65.0,71.0
39,40.30704474791666,40.38959188333333,65.0,90.0
40,40.509200997916665,40.59174813333333,65.0,86.0
41,40.711357247916666,40.98258355,65.0,95.0
42,41.11566974791666,41.41048094583333,67.0,95.0
43,41.519982247916666,41.828270529166666,63.0,99.0
44,41.72213849791667,42.337030424999995,60.0,78.0
45,42.73291974791666,42.808728341666665,55.0,95.0
46,42.93507599791666,43.04794657083333,55.0,83.0
47,43.137232247916664,43.44720516458333,58.0,99.0
48,43.54154474791666,43.996396310416664,58.0,93.0
49,44.35016974791666,44.50178693541666,55.0,95.0
50,44.55232599791666,44.70394318541666,58.0,102.0
51,44.75448224791666,44.929684331249995,60.0,93.0
52,44.956638497916664,45.1975413625,63.0,96.0
53,45.158794747916666,45.59343068541666,60.0,97.0
54,46.37173224791666,46.62948146666666,65.0,96.0
55,46.776044747916664,46.98493953958333,65.0,90.0
56,47.18035724791666,47.34882078958333,65.0,88.0
57,47.38251349791666,47.54255386249999,63.0,74.0
58,47.584669747916664,47.91822756041666,67.0,93.0
59,47.98898224791666,48.725167924999994,65.0,86.0
60,48.79760724791666,48.9576476125,63.0,112.0
61,48.99976349791666,49.43271479999999,65.0,92.0
62,49.606232247916665,49.88925099791666,67.0,92.0
63,50.414857247916665,50.485611935416664,67.0,92.0
64,50.61701349791666,50.84275464375,67.0,88.0
65,51.02132599791666,51.253805685416665,67.0,81.0
66,51.223482247916664,51.50987026874999,71.0,95.0
67,51.62779474791666,52.097808029166664,71.0,92.0
68,52.84073224791666,53.07658120625,72.0,117.0
69,53.24504474791666,53.5061632375,72.0,112.0
70,53.64935724791666,53.85993667499999,74.0,93.0
71,54.053669747916665,54.190125216666665,70.0,99.0
72,54.25582599791666,54.54895256041666,72.0,90.0
73,54.862294747916664,55.517617924999996,67.0,95.0
74,55.67091974791666,55.830960112499994,65.0,89.0
75,55.873075997916665,56.07523224791666,63.0,82.0
76,56.07523224791666,56.34477391458333,65.0,92.0
77,56.47954474791666,56.89396506041666,65.0,86.0
78,57.28816974791666,57.493695268749995,65.0,99.0
79,57.49032599791666,57.630150737499996,67.0,73.0
80,57.69248224791666,58.01256297708333,63.0,100.0
81,58.09679474791666,58.56343875833333,60.0,93.0
82,59.30973224791666,59.540527299999994,65.0,95.0
83,59.71404474791666,59.8943007375,65.0,93.0
84,60.11835724791666,60.278397612499994,65.0,90.0
85,60.320513497916664,60.46202287291666,63.0,93.0
86,60.52266974791666,60.782103602083325,67.0,96.0
87,60.92698224791666,61.56882834166666,65.0,95.0
88,61.73560724791666,61.82152365416666,63.0,122.0
89,61.93776349791666,62.35723771666666,65.0,100.0
90,62.54423224791666,62.894636414583324,67.0,112.0
91,63.35285724791666,63.425296570833325,67.0,100.0
92,63.55501349791666,63.63587599791666,67.0,86.0
93,63.75716974791666,63.83971688333333,67.0,83.0
94,63.95932599791666,64.14463589374999,67.0,89.0
95,64.16148224791667,64.3821694875,71.0,122.0
96,64.56579474791667,64.99032287291666,71.0,117.0
97,65.77873224791666,66.0398507375,72.0,117.0
98,66.18304474791667,66.40204735208333,72.0,112.0
99,66.58735724791667,66.77266714375,72.0,102.0
100,66.99166974791666,67.121386675,70.0,100.0
101,67.19382599791666,67.49032183125,72.0,97.0
102,67.80029474791667,68.30063146666666,67.0,100.0
103,68.60891974791666,68.77906792499999,65.0,99.0
104,68.81107599791666,68.98290881041666,63.0,72.0
105,69.01323224791666,69.15979552916666,65.0,112.0
106,69.41754474791666,69.98863615416667,65.0,107.0
107,70.02401349791667,70.22616974791666,65.0,99.0
108,70.42832599791666,70.58499709166666,67.0,95.0
109,70.83263849791666,70.95056297708334,63.0,100.0
110,71.23695099791667,71.99672157083333,60.0,95.0
111,72.65204474791666,72.83398537291666,62.0,97.0
112,73.05635724791667,73.2163976125,62.0,86.0
113,73.46066974791667,73.6106023,63.0,112.0
114,73.86498224791666,74.11936219583333,62.0,102.0
115,74.26929474791666,74.53546714375,58.0,99.0
116,74.67360724791666,75.08297365416666,58.0,99.0
117,75.07791974791667,75.7231351125,55.0,90.0
118,75.88654474791667,77.59476506041666,60.0,96.0
119,88.01591974791667,88.10689006041666,67.0,112.0
120,88.21807599791667,88.2972538625,67.0,100.0
121,88.42023224791667,88.76052860208333,67.0,112.0
122,88.82454474791666,89.25581141458333,67.0,102.0
123,89.63316974791667,89.8336413625,65.0,99.0
124,89.83532599791667,90.00042026875,63.0,99.0
125,90.03748224791667,90.28680828958333,65.0,102.0
126,90.23963849791667,90.88316922708333,67.0,100.0
127,91.65473224791667,91.73896401875,65.0,117.0
128,91.85688849791667,91.9360663625,65.0,86.0
129,92.05904474791667,92.14496115416667,65.0,89.0
130,92.26120099791666,92.33869422708334,65.0,88.0
131,92.46335724791666,92.673936675,65.0,100.0
132,92.86766974791666,93.11531115416666,67.0,97.0
133,93.27198224791667,93.78411141458334,60.0,99.0
134,94.48491974791666,94.56746688333334,55.0,92.0
135,94.68707599791666,94.79320802916666,55.0,73.0
136,94.88923224791667,95.16382782083333,58.0,95.0
137,95.29354474791667,95.79388146666666,58.0,85.0
138,96.10216974791666,96.231886675,55.0,75.0
139,96.30432599791666,96.43235828958333,58.0,93.0
140,96.50648224791667,96.83667078958334,63.0,77.0
141,96.91079474791667,97.46167052916667,60.0,81.0
142,98.12373224791666,98.30735750833333,65.0,99.0
143,98.52804474791667,98.67460802916666,65.0,92.0
144,98.93235724791667,99.09408224791666,65.0,100.0
145,99.13451349791667,99.28276141458333,63.0,86.0
146,99.33666974791666,99.56914943541666,67.0,93.0
147,99.74098224791666,99.96335412291667,65.0,97.0
148,100.95391974791667,101.0229898,67.0,93.0
149,101.15607599791666,101.24367703958333,67.0,90.0
150,101.35823224791666,101.4980569875,67.0,117.0
151,101.56038849791666,102.04556349791666,67.0,95.0
152,102.57116974791667,102.73963328958334,65.0,86.0
153,102.77332599791667,102.86935021666666,63.0,92.0
154,102.97548224791666,103.31072469583333,65.0,99.0
155,103.17763849791666,103.67797521666667,67.0,95.0
156,104.59273224791666,104.6719101125,65.0,93.0
157,104.79488849791666,104.87912026875,65.0,71.0
158,104.99704474791666,105.07959188333334,65.0,90.0
159,105.19920099791666,105.28174813333334,65.0,86.0
160,105.40135724791666,105.67258355,65.0,95.0
161,105.80566974791667,106.10048094583333,67.0,95.0
162,106.20998224791667,106.51827052916667,63.0,99.0
163,106.41213849791666,107.02703042499999,60.0,78.0
164,107.42291974791667,107.49872834166666,55.0,95.0
165,107.62507599791667,107.73794657083333,55.0,83.0
166,107.82723224791667,108.13720516458334,58.0,99.0
167,108.23154474791666,108.68639631041667,58.0,93.0
168,109.04016974791666,109.19178693541666,55.0,95.0
169,109.24232599791667,109.39394318541666,58.0,102.0
170,109.44448224791667,109.61968433125,60.0,93.0
171,109.64663849791667,109.8875413625,63.0,96.0
172,109.84879474791667,110.28343068541666,60.0,97.0
173,111.06173224791667,111.31948146666666,65.0,96.0
174,111.46604474791667,111.67493953958333,65.0,90.0
175,111.87035724791666,112.03882078958333,65.0,88.0
176,112.07251349791666,112.2325538625,63.0,74.0
177,112.27466974791666,112.60822756041667,67.0,93.0
178,112.67898224791666,113.41516792499999,65.0,86.0
179,113.48760724791667,113.6476476125,63.0,112.0
180,113.68976349791666,114.1227148,65.0,92.0
181,114.29623224791666,114.57925099791666,67.0,92.0
182,115.10485724791667,115.17561193541667,67.0,92.0
183,115.30701349791666,115.53275464375,67.0,88.0
184,115.71132599791666,115.94380568541666,67.0,81.0
185,115.91348224791666,116.19987026874999,71.0,95.0
186,116.31779474791666,116.78780802916667,71.0,92.0
187,117.53073224791666,117.76658120625,72.0,117.0
188,117.93504474791666,118.1961632375,72.0,112.0
189,118.33935724791667,118.549936675,74.0,93.0
190,118.74366974791667,118.88012521666667,70.0,99.0
191,118.94582599791666,119.23895256041666,72.0,90.0
192,119.55229474791666,120.207617925,67.0,95.0
193,120.36091974791667,120.52096011249999,65.0,89.0
194,120.56307599791667,120.76523224791666,63.0,82.0
195,120.76523224791666,121.03477391458333,65.0,92.0
196,121.16954474791666,121.58396506041666,65.0,86.0
197,121.97816974791667,122.18369526875,65.0,99.0
198,122.18032599791667,122.3201507375,67.0,73.0
199,122.38248224791667,122.70256297708333,63.0,100.0
200,122.78679474791666,123.25343875833333,60.0,93.0
201,123.99973224791667,124.23052729999999,65.0,95.0
202,124.40404474791666,124.5843007375,65.0,93.0
203,124.80835724791666,124.9683976125,65.0,90.0
204,125.01051349791666,125.15202287291666,63.0,93.0
205,125.21266974791666,125.47210360208334,67.0,96.0
206,125.61698224791667,126.25882834166666,65.0,95.0
207,126.42560724791666,126.51152365416667,63.0,122.0
208,126.62776349791666,127.04723771666666,65.0,100.0
209,127.23423224791667,127.58463641458333,67.0,112.0
210,128.04285724791666,128.11529657083332,67.0,100.0
211,128.24501349791666,128.32587599791665,67.0,86.0
212,128.44716974791666,128.52971688333332,67.0,83.0
213,128.64932599791666,128.83463589374998,67.0,89.0
214,128.85148224791666,129.0721694875,71.0,122.0
215,129.25579474791667,129.68032287291666,71.0,117.0
216,130.46873224791665,130.7298507375,72.0,117.0
217,130.87304474791665,131.0920473520833,72.0,112.0
218,131.27735724791665,131.46266714375,72.0,102.0
219,131.68166974791666,131.811386675,70.0,100.0
220,131.88382599791666,132.18032183124998,72.0,97.0
221,132.49029474791666,132.99063146666666,67.0,100.0
222,133.29891974791664,133.469067925,65.0,99.0
223,133.50107599791664,133.67290881041666,63.0,72.0
224,133.70323224791665,133.84979552916664,65.0,112.0
225,134.10754474791665,134.67863615416667,65.0,107.0
226,134.71401349791665,134.91616974791665,65.0,99.0
227,135.11832599791666,135.27499709166665,67.0,95.0
228,135.52263849791666,135.64056297708333,63.0,100.0
229,135.92695099791666,136.68672157083333,60.0,95.0
230,137.34204474791665,137.52398537291666,62.0,97.0
231,137.74635724791665,137.9063976125,62.0,86.0
232,138.15066974791665,138.30060229999998,63.0,112.0
233,138.55498224791666,138.80936219583333,62.0,102.0
234,138.95929474791666,139.22546714375,58.0,99.0
235,139.36360724791666,139.77297365416666,58.0,99.0
236,139.76791974791666,140.4131351125,55.0,90.0
237,140.57654474791667,142.28476506041667,60.0,96.0
238,145.83260724791666,145.9926476125,63.0,112.0
239,146.03476349791666,146.46771479999998,65.0,92.0
240,146.64123224791666,146.92425099791666,67.0,92.0
241,147.44985724791667,147.52061193541667,67.0,92.0
242,147.65201349791667,147.87775464375,67.0,88.0
243,148.05632599791667,148.28880568541666,67.0,81.0
244,148.25848224791667,148.54487026875,71.0,95.0
245,148.66279474791665,149.13280802916665,71.0,92.0
246,149.87573224791666,150.11158120625,72.0,117.0
247,150.28004474791666,150.5411632375,72.0,112.0
248,150.68435724791667,150.894936675,74.0,93.0
249,151.08866974791667,151.22512521666667,70.0,99.0
250,151.29082599791667,151.58395256041666,72.0,90.0
251,151.89729474791667,152.552617925,67.0,95.0
252,152.70591974791665,152.8659601125,65.0,89.0
253,152.90807599791665,153.11023224791666,63.0,82.0
254,153.11023224791666,153.37977391458332,65.0,92.0
255,153.51454474791666,153.92896506041666,65.0,86.0
256,154.32316974791667,154.52869526875,65.0,99.0
257,154.52532599791667,154.6651507375,67.0,73.0
258,154.72748224791667,155.04756297708332,63.0,100.0
259,155.13179474791667,155.59843875833332,60.0,93.0
260,156.34473224791665,156.5755273,65.0,95.0
261,156.74904474791666,156.9293007375,65.0,93.0
262,157.15335724791666,157.31339761249998,65.0,90.0
263,157.35551349791666,157.49702287291666,63.0,93.0
264,157.55766974791666,157.81710360208334,67.0,96.0
265,157.96198224791667,158.60382834166666,65.0,95.0
266,158.77060724791667,158.85652365416666,63.0,122.0
267,158.97276349791667,159.39223771666667,65.0,100.0
268,159.57923224791665,159.9296364145833,67.0,112.0
269,160.38785724791666,160.46029657083332,67.0,100.0
270,160.59001349791666,160.67087599791665,67.0,86.0
271,160.79216974791666,160.87471688333332,67.0,83.0
272,160.99432599791666,161.17963589375,67.0,89.0
273,161.19648224791666,161.4171694875,71.0,122.0
274,161.60079474791667,162.02532287291666,71.0,117.0
275,162.81373224791665,163.0748507375,72.0,117.0
276,163.21804474791665,163.43704735208334,72.0,112.0
277,163.62235724791665,163.80766714375,72.0,102.0
278,164.02666974791666,164.156386675,70.0,100.0
279,164.22882599791666,164.52532183124998,72.0,97.0
280,164.83529474791666,165.33563146666665,67.0,100.0
281,165.64391974791667,165.814067925,65.0,99.0
282,165.84607599791667,166.01790881041666,63.0,72.0
283,166.04823224791667,166.19479552916667,65.0,112.0
284,166.45254474791665,167.02363615416667,65.0,107.0
285,167.05901349791665,167.26116974791665,65.0,99.0
286,167.46332599791666,167.61999709166665,67.0,95.0
287,167.86763849791666,167.98556297708333,63.0,100.0
288,168.27195099791666,169.03172157083333,60.0,95.0
289,169.68704474791667,169.86898537291665,62.0,97.0
290,170.09135724791665,170.2513976125,62.0,86.0
291,170.49566974791665,170.64560229999998,63.0,112.0
292,170.89998224791665,171.15436219583333,62.0,102.0
293,171.30429474791666,171.57046714375,58.0,99.0
294,171.70860724791666,172.11797365416666,58.0,99.0
295,172.11291974791666,172.75813511249999,55.0,90.0
296,172.92154474791667,174.62976506041664,60.0,96.0
