,start,end,pitch,velocity
0,10.792232247916667,11.49304058125,55.0,75.0
1,10.792232247916667,11.5183101125,63.0,85.0
2,10.792232247916667,11.52336401875,60.0,82.0
3,10.792232247916667,11.929361154166667,36.0,79.0
4,11.600857247916666,11.949576779166668,55.0,86.0
5,11.600857247916666,12.042231727083333,60.0,93.0
6,11.600857247916666,12.054024175,63.0,93.0
7,12.005169747916668,12.274711414583333,55.0,54.0
8,12.409482247916667,13.046274435416667,65.0,64.0
9,12.409482247916667,13.0749132375,62.0,75.0
10,12.409482247916667,13.09007495625,58.0,97.0
11,12.409482247916667,13.47417183125,46.0,75.0
12,13.218107247916667,13.536503341666666,65.0,69.0
13,13.218107247916667,13.563457508333332,62.0,85.0
14,13.218107247916667,13.573565320833334,58.0,97.0
15,13.622419747916666,13.95934683125,46.0,53.0
16,14.026732247916666,14.425990841666668,60.0,96.0
17,14.026732247916666,14.6719476125,56.0,83.0
18,14.026732247916666,14.690478602083333,63.0,96.0
19,14.026732247916666,15.018982508333334,44.0,93.0
20,14.835357247916667,15.167230425,56.0,88.0
21,14.835357247916667,15.185761414583332,60.0,99.0
22,14.835357247916667,15.219454122916666,63.0,97.0
23,15.239669747916667,15.588389279166666,44.0,107.0
24,15.643982247916668,16.326259591666666,55.0,93.0
25,15.643982247916668,16.331313497916668,62.0,92.0
26,15.643982247916668,16.332998133333334,59.0,92.0
27,16.048294747916668,16.5115694875,50.0,60.0
28,15.643982247916668,16.765949435416665,43.0,78.0
29,16.654763497916665,16.765949435416665,50.0,79.0
30,16.452607247916667,16.91251271666667,62.0,97.0
31,16.452607247916667,16.93104370625,59.0,95.0
32,16.856919747916667,17.17026193541667,55.0,83.0
33,17.261232247916666,17.955302039583334,55.0,71.0
34,17.261232247916666,17.96204058125,63.0,74.0
35,17.261232247916666,17.963725216666667,60.0,75.0
36,18.069857247916666,18.430369227083332,60.0,96.0
37,18.069857247916666,18.4320538625,63.0,102.0
38,17.665544747916666,18.45732339375,43.0,43.0
39,17.261232247916666,18.459008029166668,36.0,73.0
40,18.069857247916666,18.467431206249998,55.0,67.0
41,18.474169747916665,18.757188497916665,48.0,69.0
42,18.878482247916665,18.984614279166667,62.0,72.0
43,18.878482247916665,18.984614279166667,65.0,59.0
44,18.878482247916665,18.98966818541667,46.0,93.0
45,18.878482247916665,18.98966818541667,53.0,76.0
46,18.878482247916665,18.99303745625,58.0,83.0
47,19.282794747916668,19.6045601125,62.0,73.0
48,19.282794747916668,19.64162209166667,53.0,75.0
49,19.282794747916668,19.7258538625,58.0,92.0
50,19.282794747916668,20.037511414583335,65.0,66.0
51,19.687107247916664,20.06278094583333,62.0,37.0
52,19.687107247916664,20.08468120625,53.0,69.0
53,20.091419747916667,20.189128602083333,58.0,89.0
54,19.282794747916668,20.313791622916668,46.0,97.0
55,20.495732247916667,20.88319839375,60.0,82.0
56,20.495732247916667,21.112308810416664,56.0,76.0
57,20.495732247916667,21.1308398,63.0,75.0
58,20.495732247916667,21.599168445833335,44.0,76.0
59,21.304357247916666,21.63117651875,60.0,95.0
60,21.304357247916666,21.673292404166666,63.0,95.0
61,21.708669747916666,22.084343445833333,44.0,72.0
62,22.112982247916666,22.76325151875,55.0,90.0
63,22.112982247916666,22.77335933125,62.0,88.0
64,22.112982247916666,22.785151779166668,59.0,83.0
65,22.517294747916665,23.009208289583334,50.0,55.0
66,23.123763497916666,23.2332648,50.0,66.0
67,22.112982247916666,23.251795789583333,43.0,72.0
68,22.92160724791667,23.341081466666665,62.0,96.0
69,22.92160724791667,23.361297091666664,59.0,90.0
70,23.325919747916664,23.615677039583332,55.0,72.0
71,23.730232247916668,24.18845308125,60.0,79.0
72,23.730232247916668,24.205299435416666,63.0,81.0
73,23.730232247916668,24.262577039583334,55.0,83.0
74,23.730232247916668,24.665204904166664,36.0,90.0
75,24.943169747916667,25.089733029166666,36.0,78.0
76,24.538857247916667,25.237980945833332,63.0,89.0
77,24.538857247916667,25.24808875833333,60.0,89.0
78,25.145325997916665,25.261565841666666,31.0,67.0
79,24.538857247916667,25.26998901875,55.0,76.0
80,24.134544747916664,25.387913497916664,43.0,58.0
81,25.347482247916666,25.647347352083333,36.0,70.0
82,25.347482247916666,26.031444227083334,63.0,89.0
83,25.347482247916666,26.038182768749998,60.0,77.0
84,25.347482247916666,26.049975216666667,55.0,77.0
85,25.756848654166667,26.297616622916664,36.0,100.0
86,25.751794747916666,26.368371310416666,48.0,63.0
87,26.358263497916667,26.454287716666666,36.0,74.0
88,26.156107247916665,26.54357339375,63.0,99.0
89,26.156107247916665,26.550311935416666,60.0,95.0
90,26.560419747916665,26.681713497916668,38.0,84.0
91,26.560419747916665,26.772683810416666,55.0,92.0
92,26.762575997916663,26.9226163625,39.0,101.0
93,26.964732247916665,27.460015060416666,53.0,86.0
94,26.964732247916665,27.571200997916662,60.0,79.0
95,26.964732247916665,27.596470529166666,56.0,82.0
96,27.369044747916668,27.834004122916667,48.0,50.0
97,26.964732247916665,27.999098393749996,41.0,63.0
98,27.773357247916664,28.12544605,60.0,90.0
99,27.773357247916664,28.1658773,56.0,100.0
100,28.177669747916667,28.43373433125,41.0,72.0
101,28.581982247916663,28.900378341666666,36.0,83.0
102,28.581982247916663,29.22214370625,55.0,83.0
103,28.581982247916663,29.240674695833334,63.0,82.0
104,28.581982247916663,29.244043966666666,60.0,85.0
105,28.986294747916666,29.45293875833333,36.0,100.0
106,29.59444813333333,29.71574188333333,36.0,100.0
107,28.986294747916666,29.749434591666663,43.0,35.0
108,29.390607247916662,29.764596310416664,60.0,97.0
109,29.390607247916662,29.82861245625,63.0,100.0
110,29.794919747916666,29.936429122916664,38.0,100.0
111,30.19923224791667,30.652399175,58.0,77.0
112,30.19923224791667,30.71136141458333,63.0,75.0
113,30.19923224791667,30.766954383333335,55.0,79.0
114,30.603544747916665,31.113989279166667,51.0,49.0
115,30.19923224791667,31.322884070833332,39.0,93.0
116,31.412169747916664,31.508193966666667,39.0,100.0
117,31.412169747916664,31.54694058125,51.0,99.0
118,31.007857247916668,31.64801870625,63.0,93.0
119,31.007857247916668,31.668234331249998,58.0,99.0
120,31.614325997916666,31.71035021666667,38.0,74.0
121,31.816482247916667,32.29491870625,55.0,73.0
122,31.816482247916667,32.328611414583335,63.0,85.0
123,31.816482247916667,32.34545776875,60.0,82.0
124,31.816482247916667,32.731239279166665,36.0,63.0
125,32.22079474791666,32.96034969583333,48.0,90.0
126,32.62510724791667,32.99572703958333,63.0,97.0
127,32.62510724791667,33.01088875833333,60.0,95.0
128,32.82726349791667,33.01931193541667,36.0,100.0
129,33.02941974791666,33.37982391458333,39.0,100.0
130,33.433732247916666,33.83130620625,56.0,76.0
131,33.433732247916666,33.93069969583333,53.0,81.0
132,33.433732247916666,34.11095568541666,60.0,76.0
133,33.433732247916666,34.36870490416666,41.0,70.0
134,33.83804474791666,34.425982508333334,48.0,52.0
135,34.64666974791667,34.8067101125,41.0,100.0
136,34.242357247916665,34.86904162291666,53.0,69.0
137,34.242357247916665,34.89262651875,56.0,95.0
138,34.242357247916665,34.90104969583333,60.0,85.0
139,34.64666974791667,35.030766622916666,48.0,30.0
140,35.050982247916664,35.160483549999995,46.0,97.0
141,35.050982247916664,35.382855424999995,53.0,75.0
142,35.050982247916664,35.39127860208333,65.0,52.0
143,35.050982247916664,35.39970177916666,62.0,63.0
144,35.050982247916664,35.40812495625,58.0,72.0
145,35.45529474791667,36.1813726125,46.0,99.0
146,35.859607247916664,36.218434591666664,65.0,73.0
147,35.859607247916664,36.30940490416666,62.0,77.0
148,36.26391974791667,36.51998433125,53.0,72.0
149,35.859607247916664,36.5250382375,58.0,93.0
150,36.66823224791666,37.30165516458333,63.0,72.0
151,36.66823224791666,37.31681688333333,60.0,75.0
152,36.66823224791666,37.31850151875,55.0,89.0
153,36.66823224791666,37.73123719583333,36.0,66.0
154,37.47685724791666,37.86263875833333,48.0,76.0
155,37.881169747916665,37.951924435416664,36.0,88.0
156,38.08332599791667,38.21135828958333,31.0,67.0
157,37.072544747916666,38.23494318541667,43.0,56.0
158,38.28548224791666,38.40003745625,36.0,78.0
159,37.47685724791666,38.78750360208333,63.0,86.0
160,37.47685724791666,38.811088497916664,60.0,78.0
161,37.881169747916665,38.819511675,55.0,88.0
162,38.689794747916665,39.35859500833333,36.0,78.0
163,39.09410724791667,39.52032000833333,60.0,96.0
164,39.09410724791667,39.52705855,63.0,99.0
165,39.498419747916664,39.73258407083333,55.0,73.0
166,39.90273224791667,40.4569773,53.0,88.0
167,39.90273224791667,40.49909318541666,60.0,76.0
168,39.90273224791667,40.50414709166667,56.0,78.0
169,39.90273224791667,41.03480724791667,41.0,75.0
170,41.11566974791666,41.24370203958333,41.0,100.0
171,40.30704474791666,41.344780164583334,48.0,53.0
172,41.317825997916664,41.42058875833333,36.0,71.0
173,41.519982247916666,41.747408029166664,41.0,76.0
174,40.711357247916666,41.993364799999995,56.0,100.0
175,41.11566974791666,42.02705750833333,53.0,85.0
176,40.711357247916666,42.07759657083333,60.0,89.0
177,41.92429474791666,42.687434591666666,41.0,85.0
178,42.73291974791666,42.90643719583333,43.0,100.0
179,42.328607247916665,43.04289266458333,56.0,99.0
180,42.328607247916665,43.06984683125,60.0,83.0
181,42.73291974791666,43.07658537291666,53.0,90.0
182,43.137232247916664,43.81108641458333,55.0,76.0
183,43.137232247916664,43.812771049999995,58.0,83.0
184,43.137232247916664,44.29120750833333,46.0,97.0
185,44.35016974791666,44.439455425,43.0,100.0
186,43.94585724791666,44.44619396666666,63.0,92.0
187,43.94585724791666,44.48157131041666,58.0,90.0
188,44.35016974791666,44.64666558125,55.0,78.0
189,44.55232599791666,44.68035828958333,46.0,100.0
190,44.75448224791666,44.85556037291666,48.0,100.0
191,44.75448224791666,44.88925308125,63.0,64.0
192,44.75448224791666,44.89093771666666,55.0,73.0
193,44.75448224791666,44.89599162291666,60.0,69.0
194,45.158794747916666,45.46708302916666,48.0,100.0
195,45.158794747916666,45.788848393749994,36.0,82.0
196,45.56310724791666,46.00953563333333,63.0,95.0
197,45.56310724791666,46.017958810416665,60.0,93.0
198,45.967419747916665,46.177999175,55.0,81.0
199,46.37173224791666,46.86869969583333,56.0,69.0
200,46.37173224791666,46.93776974791666,53.0,85.0
201,46.37173224791666,46.97988563333333,60.0,76.0
202,46.776044747916664,47.32523589375,48.0,57.0
203,47.18035724791666,47.60151610208333,56.0,97.0
204,47.18035724791666,47.62847026874999,60.0,83.0
205,46.37173224791666,47.73965620625,41.0,72.0
206,47.584669747916664,47.88621948749999,48.0,75.0
207,47.98898224791666,48.073214018749994,62.0,73.0
208,47.98898224791666,48.08500646666666,58.0,79.0
209,47.98898224791666,48.08669110208333,46.0,95.0
210,47.98898224791666,48.08669110208333,53.0,73.0
211,48.39329474791666,48.50279604999999,62.0,63.0
212,48.39329474791666,48.512903862499996,58.0,74.0
213,48.39329474791666,48.86330802916666,53.0,71.0
214,48.39329474791666,48.90205464375,46.0,100.0
215,48.79760724791666,49.23392782083333,58.0,92.0
216,48.99976349791666,49.501784852083325,46.0,82.0
217,48.79760724791666,49.55737782083333,62.0,89.0
218,49.404075997916664,49.56748563333333,58.0,88.0
219,49.20191974791666,49.574224175,53.0,95.0
220,50.01054474791666,50.44181141458333,51.0,74.0
221,50.21270099791666,50.61364422708333,55.0,81.0
222,49.80838849791666,51.07860360208333,46.0,65.0
223,49.606232247916665,51.11566558124999,39.0,83.0
224,50.61701349791666,51.16957391458333,51.0,74.0
225,50.81916974791666,51.20495125833333,58.0,78.0
226,51.02132599791666,51.223482247916664,55.0,88.0
227,50.414857247916665,51.223482247916664,63.0,97.0
228,51.62779474791666,51.863643706249995,55.0,95.0
229,51.82995099791666,52.04895360208333,59.0,79.0
230,51.425638497916665,52.12307756041666,50.0,58.0
231,52.234263497916665,52.358926518749996,50.0,67.0
232,51.223482247916664,52.38588068541666,43.0,61.0
233,52.43641974791666,52.73123094583333,59.0,81.0
234,52.03210724791666,52.73965412291666,62.0,99.0
235,52.63857599791666,52.81546271666666,55.0,77.0
236,53.042888497916664,53.32927651874999,56.0,56.0
237,53.24504474791666,53.585341102083326,63.0,92.0
238,53.44720099791666,53.62577235208333,56.0,85.0
239,52.84073224791666,53.63756479999999,44.0,88.0
240,53.64935724791666,54.01660776874999,46.0,96.0
241,53.85151349791666,54.062092924999995,58.0,66.0
242,54.053669747916665,54.40238927916666,62.0,82.0
243,54.25582599791666,54.48493641458333,58.0,86.0
244,54.862294747916664,55.32725412291666,51.0,82.0
245,55.06445099791666,55.43507078958333,55.0,72.0
246,54.66013849791666,55.55131063333333,46.0,34.0
247,54.45798224791666,55.603534331249996,39.0,71.0
248,55.46876349791666,55.62543459166666,51.0,82.0
249,55.67091974791666,56.03143172708333,58.0,95.0
250,55.26660724791666,56.03143172708333,63.0,107.0
251,55.873075997916665,56.05838589374999,55.0,81.0
252,56.47954474791666,56.915865320833326,53.0,82.0
253,56.681700997916664,57.09780594583333,60.0,83.0
254,56.27738849791666,57.251107768749996,48.0,52.0
255,56.07523224791666,57.291539018749994,41.0,68.0
256,57.08601349791666,57.478533549999995,53.0,74.0
257,56.88385724791666,57.49874917499999,68.0,102.0
258,57.28816974791666,57.594773393749996,65.0,92.0
259,57.49032599791666,57.72280568541666,60.0,88.0
260,58.09679474791666,58.56849266458333,55.0,83.0
261,58.29895099791666,58.62408563333333,60.0,77.0
262,57.89463849791666,58.806026258333326,51.0,66.0
263,58.70326349791666,58.8127648,55.0,77.0
264,57.69248224791666,58.83129578958333,48.0,82.0
265,58.501107247916664,59.26761636249999,67.0,96.0
266,58.90541974791666,59.27603953958333,63.0,86.0
267,59.10757599791666,59.32994787291666,60.0,88.0
268,59.71404474791666,59.93978589374999,53.0,83.0
269,59.91620099791666,60.06781818541666,56.0,88.0
270,59.51188849791666,60.13857287291666,48.0,58.0
271,59.30973224791666,60.41148381041666,41.0,72.0
272,60.320513497916664,60.61532469583333,48.0,88.0
273,60.11835724791666,60.844435112499994,60.0,97.0
274,60.52266974791666,60.85117365416666,56.0,97.0
275,60.72482599791666,60.874758549999996,53.0,92.0
276,61.53345099791666,61.71202235208333,58.0,102.0
277,61.33129474791666,61.80299266458333,53.0,82.0
278,61.129138497916664,62.01694136249999,50.0,69.0
279,61.93776349791666,62.03210308124999,53.0,88.0
280,60.92698224791666,62.047264799999994,46.0,107.0
281,61.73560724791666,62.26795203958333,65.0,97.0
282,62.139919747916665,62.44820802916666,58.0,107.0
283,62.34207599791666,62.50548563333333,62.0,93.0
284,62.948544747916664,63.410134852083324,51.0,95.0
285,63.15070099791666,63.538167143749995,55.0,75.0
286,62.74638849791666,63.57859839374999,46.0,36.0
287,62.54423224791666,63.632506727083324,39.0,90.0
288,63.55501349791666,63.75043120624999,51.0,88.0
289,63.75716974791666,64.09578146666666,58.0,95.0
290,63.35285724791666,64.12105099791667,63.0,107.0
291,63.95932599791666,64.15642834166667,55.0,90.0
292,64.56579474791667,65.05433901875,55.0,88.0
293,64.76795099791667,65.06107756041666,59.0,74.0
294,64.16148224791667,65.26491844583333,43.0,82.0
295,64.36363849791667,65.28176479999999,50.0,50.0
296,65.17226349791666,65.30534969583333,55.0,78.0
297,64.97010724791666,65.70123901875,67.0,86.0
298,65.37441974791666,65.74167026875,62.0,92.0
299,65.57657599791666,65.82253276875,59.0,82.0
300,66.18304474791667,66.64126558125,56.0,69.0
301,66.38520099791667,66.80130594583333,60.0,71.0
302,65.77873224791666,67.25110360208333,44.0,69.0
303,65.98088849791667,67.34712782083334,51.0,63.0
304,66.78951349791666,67.485267925,56.0,77.0
305,66.58735724791667,67.5762382375,68.0,107.0
306,67.19382599791666,67.6975319875,60.0,72.0
307,66.99166974791666,67.89800360208334,63.0,77.0
308,67.80029474791667,68.28210047708333,56.0,77.0
309,68.00245099791667,68.35622443541666,60.0,81.0
310,67.59813849791666,68.51121089375,51.0,48.0
311,68.40676349791666,68.51794943541667,56.0,85.0
312,67.39598224791666,68.57691167499999,44.0,74.0
313,68.20460724791667,68.91215412291666,68.0,102.0
314,68.60891974791666,68.92226193541667,63.0,93.0
315,68.81107599791666,69.00480907083333,60.0,86.0
316,69.41754474791666,69.69214032083333,53.0,78.0
317,69.61970099791667,69.83196506041666,56.0,77.0
318,69.21538849791666,69.90777365416666,48.0,67.0
319,70.02401349791667,70.14867651875,48.0,69.0
320,69.01323224791666,70.17899995625,41.0,61.0
321,70.22616974791666,70.56983537291666,56.0,96.0
322,69.82185724791667,70.57320464375,60.0,88.0
323,70.42832599791666,70.64564396666667,53.0,59.0
324,71.03479474791666,71.50480802916667,48.0,83.0
325,71.23695099791667,71.61599396666666,55.0,78.0
326,70.63048224791666,71.76592651874999,36.0,66.0
327,70.83263849791666,71.76761115416666,43.0,48.0
328,71.64126349791667,71.87374318541666,48.0,81.0
329,71.43910724791667,72.03378355,63.0,112.0
330,71.84341974791667,72.17360828958333,60.0,96.0
331,72.04557599791666,72.2056163625,55.0,82.0
332,72.24773224791666,72.89126297708333,59.0,74.0
333,72.24773224791666,72.89463224791666,43.0,59.0
334,72.24773224791666,72.90979396666667,55.0,79.0
335,72.24773224791666,72.91484787291667,62.0,77.0
336,73.86498224791666,74.63991453958333,59.0,63.0
337,73.86498224791666,74.73762339375,55.0,67.0
338,73.86498224791666,74.94651818541666,67.0,78.0
339,73.86498224791666,74.94651818541666,71.0,72.0
340,73.86498224791666,74.96841844583334,62.0,83.0
341,75.48223224791667,76.22852573750001,63.0,100.0
342,75.48223224791667,76.23863355,60.0,97.0
343,75.48223224791667,76.2689569875,55.0,96.0
344,75.88654474791667,76.5115444875,43.0,48.0
345,76.29085724791666,76.622730425,48.0,81.0
346,76.29085724791666,76.70864683125001,63.0,81.0
347,76.29085724791666,76.72043927916667,60.0,78.0
348,75.48223224791667,76.79624787291667,36.0,77.0
349,76.69516974791667,76.81309422708334,43.0,40.0
350,76.69516974791667,77.05231245625001,48.0,69.0
351,77.09948224791667,77.37576245625,62.0,66.0
352,77.09948224791667,77.37913172708333,53.0,83.0
353,77.09948224791667,77.38250099791667,65.0,59.0
354,77.09948224791667,77.40271662291667,58.0,76.0
355,77.50379474791667,78.00413146666666,58.0,82.0
356,77.50379474791667,78.32589683125,65.0,63.0
357,77.50379474791667,78.33937391458333,62.0,70.0
358,77.90810724791666,78.38317443541666,53.0,88.0
359,78.31241974791666,78.43708276875,58.0,95.0
360,77.09948224791667,78.74368641458334,46.0,97.0
361,78.71673224791667,78.99975099791666,56.0,82.0
362,78.71673224791667,79.21369969583333,60.0,77.0
363,78.71673224791667,79.24739240416666,63.0,72.0
364,79.12104474791667,79.60790438333333,56.0,85.0
365,79.72751349791666,79.89092313333333,51.0,58.0
366,79.72751349791666,79.90440021666667,48.0,23.0
367,78.71673224791667,79.93135438333333,44.0,68.0
368,79.52535724791667,79.96336245625,60.0,86.0
369,79.52535724791667,80.0088476125,63.0,96.0
370,79.92966974791666,80.15709552916667,56.0,66.0
371,80.33398224791667,80.4131601125,59.0,69.0
372,80.33398224791667,80.42158328958334,55.0,79.0
373,80.33398224791667,80.42663719583334,62.0,77.0
374,80.73829474791667,80.8073648,55.0,59.0
375,80.73829474791667,81.13755334166666,50.0,66.0
376,80.33398224791667,81.22346974791667,43.0,71.0
377,80.73829474791667,81.40877964375,59.0,74.0
378,80.73829474791667,81.63283615416667,62.0,69.0
379,81.54691974791666,81.87542365416667,59.0,73.0
380,81.95123224791666,82.65372521666667,63.0,89.0
381,81.95123224791666,82.6570944875,60.0,83.0
382,81.14260724791667,82.6773101125,55.0,99.0
383,82.35554474791667,82.93674396666667,43.0,39.0
384,82.75985724791667,83.06983016458334,48.0,59.0
385,82.96201349791667,83.11194605,43.0,27.0
386,82.75985724791667,83.14563875833333,60.0,86.0
387,82.75985724791667,83.14900802916667,63.0,89.0
388,81.95123224791666,83.24166297708334,36.0,67.0
389,83.16416974791666,83.57016688333333,48.0,61.0
390,83.56848224791666,83.66282183125,62.0,69.0
391,83.56848224791666,83.67461427916666,65.0,66.0
392,83.56848224791666,83.68135282083334,53.0,72.0
393,83.56848224791666,83.69314526875,58.0,73.0
394,83.56848224791666,83.7487382375,46.0,70.0
395,83.97279474791667,84.04860334166666,53.0,56.0
396,83.97279474791667,84.47481610208334,58.0,78.0
397,83.97279474791667,84.67697235208334,65.0,53.0
398,83.97279474791667,84.85217443541667,62.0,65.0
399,84.37710724791667,84.92966766458333,53.0,66.0
400,84.78141974791667,85.12677000833334,58.0,75.0
401,83.97279474791667,85.17057052916667,46.0,95.0
402,85.18573224791666,85.881486675,60.0,72.0
403,85.18573224791666,85.88317131041667,63.0,70.0
404,85.18573224791666,85.90338693541666,56.0,82.0
405,85.18573224791666,86.24873719583333,44.0,58.0
406,85.99435724791667,86.40540828958333,56.0,51.0
407,85.99435724791667,86.407092925,63.0,64.0
408,85.99435724791667,86.42899318541667,60.0,69.0
409,86.39866974791667,86.79961297708333,44.0,57.0
410,86.80298224791666,86.87373693541667,59.0,72.0
411,86.80298224791666,86.88889865416667,55.0,66.0
412,86.80298224791666,86.9023757375,62.0,73.0
413,86.80298224791666,86.94786089375,43.0,65.0
414,87.20729474791666,87.63519214375,55.0,73.0
415,87.20729474791666,87.822186675,59.0,74.0
416,87.20729474791666,87.822186675,62.0,73.0
417,88.01591974791667,88.42191688333334,59.0,73.0
418,88.01591974791667,88.44550177916666,62.0,72.0
419,87.20729474791666,88.45560959166667,43.0,64.0
420,87.61160724791667,88.46571740416667,50.0,66.0
421,88.42023224791667,88.87845308125,60.0,79.0
422,88.42023224791667,88.89529943541666,63.0,81.0
423,88.42023224791667,88.95257703958333,55.0,83.0
424,88.42023224791667,89.35520490416667,36.0,90.0
425,89.63316974791667,89.77973302916666,36.0,78.0
426,89.22885724791666,89.92798094583333,63.0,89.0
427,89.22885724791666,89.93808875833334,60.0,89.0
428,89.83532599791667,89.95156584166666,31.0,67.0
429,89.22885724791666,89.95998901875,55.0,76.0
430,88.82454474791666,90.07791349791667,43.0,58.0
431,90.03748224791667,90.33734735208333,36.0,70.0
432,90.03748224791667,90.72144422708334,63.0,89.0
433,90.03748224791667,90.72818276875,60.0,77.0
434,90.03748224791667,90.73997521666666,55.0,77.0
435,90.44684865416667,90.98761662291666,36.0,100.0
436,90.44179474791666,91.05837131041666,48.0,63.0
437,91.04826349791666,91.14428771666667,36.0,74.0
438,90.84610724791666,91.23357339374999,63.0,99.0
439,90.84610724791666,91.24031193541667,60.0,95.0
440,91.25041974791667,91.37171349791666,38.0,84.0
441,91.25041974791667,91.46268381041666,55.0,92.0
442,91.45257599791667,91.6126163625,39.0,101.0
443,91.65473224791667,92.15001506041666,53.0,86.0
444,91.65473224791667,92.26120099791666,60.0,79.0
445,91.65473224791667,92.28647052916666,56.0,82.0
446,92.05904474791667,92.52400412291666,48.0,50.0
447,91.65473224791667,92.68909839375,41.0,63.0
448,92.46335724791666,92.81544605,60.0,90.0
449,92.46335724791666,92.8558773,56.0,100.0
450,92.86766974791666,93.12373433125,41.0,72.0
451,93.27198224791667,93.59037834166666,36.0,83.0
452,93.27198224791667,93.91214370624999,55.0,83.0
453,93.27198224791667,93.93067469583333,63.0,82.0
454,93.27198224791667,93.93404396666666,60.0,85.0
455,93.67629474791667,94.14293875833333,36.0,100.0
456,94.28444813333333,94.40574188333333,36.0,100.0
457,93.67629474791667,94.43943459166667,43.0,35.0
458,94.08060724791666,94.45459631041666,60.0,97.0
459,94.08060724791666,94.51861245625,63.0,100.0
460,94.48491974791666,94.62642912291666,38.0,100.0
461,94.88923224791667,95.342399175,58.0,77.0
462,94.88923224791667,95.40136141458333,63.0,75.0
463,94.88923224791667,95.45695438333333,55.0,79.0
464,95.29354474791667,95.80398927916667,51.0,49.0
465,94.88923224791667,96.01288407083334,39.0,93.0
466,96.10216974791666,96.19819396666666,39.0,100.0
467,96.10216974791666,96.23694058125,51.0,99.0
468,95.69785724791666,96.33801870625,63.0,93.0
469,95.69785724791666,96.35823433125,58.0,99.0
470,96.30432599791666,96.40035021666667,38.0,74.0
471,96.50648224791667,96.98491870625,55.0,73.0
472,96.50648224791667,97.01861141458333,63.0,85.0
473,96.50648224791667,97.03545776874999,60.0,82.0
474,96.50648224791667,97.42123927916667,36.0,63.0
475,96.91079474791667,97.65034969583333,48.0,90.0
476,97.31510724791667,97.68572703958333,63.0,97.0
477,97.31510724791667,97.70088875833333,60.0,95.0
478,97.51726349791666,97.70931193541666,36.0,100.0
479,97.71941974791666,98.06982391458334,39.0,100.0
480,98.12373224791666,98.52130620625,56.0,76.0
481,98.12373224791666,98.62069969583334,53.0,81.0
482,98.12373224791666,98.80095568541667,60.0,76.0
483,98.12373224791666,99.05870490416666,41.0,70.0
484,98.52804474791667,99.11598250833333,48.0,52.0
485,99.33666974791666,99.4967101125,41.0,100.0
486,98.93235724791667,99.55904162291667,53.0,69.0
487,98.93235724791667,99.58262651875,56.0,95.0
488,98.93235724791667,99.59104969583333,60.0,85.0
489,99.33666974791666,99.72076662291667,48.0,30.0
490,99.74098224791666,99.85048354999999,46.0,97.0
491,99.74098224791666,100.072855425,53.0,75.0
492,99.74098224791666,100.08127860208333,65.0,52.0
493,99.74098224791666,100.08970177916666,62.0,63.0
494,99.74098224791666,100.09812495625,58.0,72.0
495,100.14529474791667,100.8713726125,46.0,99.0
496,100.54960724791667,100.90843459166666,65.0,73.0
497,100.54960724791667,100.99940490416667,62.0,77.0
498,100.95391974791667,101.20998433125,53.0,72.0
499,100.54960724791667,101.2150382375,58.0,93.0
500,101.35823224791666,101.99165516458334,63.0,72.0
501,101.35823224791666,102.00681688333333,60.0,75.0
502,101.35823224791666,102.00850151875,55.0,89.0
503,101.35823224791666,102.42123719583333,36.0,66.0
504,102.16685724791667,102.55263875833333,48.0,76.0
505,102.57116974791667,102.64192443541667,36.0,88.0
506,102.77332599791667,102.90135828958333,31.0,67.0
507,101.76254474791666,102.92494318541667,43.0,56.0
508,102.97548224791666,103.09003745625,36.0,78.0
509,102.16685724791667,103.47750360208333,63.0,86.0
510,102.16685724791667,103.50108849791667,60.0,78.0
511,102.57116974791667,103.509511675,55.0,88.0
512,103.37979474791666,104.04859500833334,36.0,78.0
513,103.78410724791667,104.21032000833333,60.0,96.0
514,103.78410724791667,104.21705855,63.0,99.0
515,104.18841974791667,104.42258407083334,55.0,73.0
516,104.59273224791666,105.1469773,53.0,88.0
517,104.59273224791666,105.18909318541667,60.0,76.0
518,104.59273224791666,105.19414709166666,56.0,78.0
519,104.59273224791666,105.72480724791666,41.0,75.0
520,105.80566974791667,105.93370203958334,41.0,100.0
521,104.99704474791666,106.03478016458332,48.0,53.0
522,106.00782599791667,106.11058875833334,36.0,71.0
523,106.20998224791667,106.43740802916666,41.0,76.0
524,105.40135724791666,106.68336479999999,56.0,100.0
525,105.80566974791667,106.71705750833333,53.0,85.0
526,105.40135724791666,106.76759657083333,60.0,89.0
527,106.61429474791666,107.37743459166667,41.0,85.0
528,107.42291974791667,107.59643719583333,43.0,100.0
529,107.01860724791666,107.73289266458333,56.0,99.0
530,107.01860724791666,107.75984683125,60.0,83.0
531,107.42291974791667,107.76658537291667,53.0,90.0
532,107.82723224791667,108.50108641458333,55.0,76.0
533,107.82723224791667,108.50277104999999,58.0,83.0
534,107.82723224791667,108.98120750833333,46.0,97.0
535,109.04016974791666,109.129455425,43.0,100.0
536,108.63585724791666,109.13619396666667,63.0,92.0
537,108.63585724791666,109.17157131041667,58.0,90.0
538,109.04016974791666,109.33666558125,55.0,78.0
539,109.24232599791667,109.37035828958334,46.0,100.0
540,109.44448224791667,109.54556037291667,48.0,100.0
541,109.44448224791667,109.57925308125,63.0,64.0
542,109.44448224791667,109.58093771666667,55.0,73.0
543,109.44448224791667,109.58599162291667,60.0,69.0
544,109.84879474791667,110.15708302916667,48.0,100.0
545,109.84879474791667,110.47884839375,36.0,82.0
546,110.25310724791666,110.69953563333333,63.0,95.0
547,110.25310724791666,110.70795881041667,60.0,93.0
548,110.65741974791666,110.867999175,55.0,81.0
549,111.06173224791667,111.55869969583333,56.0,69.0
550,111.06173224791667,111.62776974791666,53.0,85.0
551,111.06173224791667,111.66988563333334,60.0,76.0
552,111.46604474791667,112.01523589375,48.0,57.0
553,111.87035724791666,112.29151610208334,56.0,97.0
554,111.87035724791666,112.31847026874999,60.0,83.0
555,111.06173224791667,112.42965620625,41.0,72.0
556,112.27466974791666,112.5762194875,48.0,75.0
557,112.67898224791666,112.76321401874999,62.0,73.0
558,112.67898224791666,112.77500646666667,58.0,79.0
559,112.67898224791666,112.77669110208333,46.0,95.0
560,112.67898224791666,112.77669110208333,53.0,73.0
561,113.08329474791667,113.19279605,62.0,63.0
562,113.08329474791667,113.2029038625,58.0,74.0
563,113.08329474791667,113.55330802916666,53.0,71.0
564,113.08329474791667,113.59205464375,46.0,100.0
565,113.48760724791667,113.92392782083333,58.0,92.0
566,113.68976349791666,114.19178485208333,46.0,82.0
567,113.48760724791667,114.24737782083334,62.0,89.0
568,114.09407599791666,114.25748563333333,58.0,88.0
569,113.89191974791666,114.264224175,53.0,95.0
570,114.70054474791667,115.13181141458332,51.0,74.0
571,114.90270099791667,115.30364422708332,55.0,81.0
572,114.49838849791666,115.76860360208333,46.0,65.0
573,114.29623224791666,115.80566558125,39.0,83.0
574,115.30701349791666,115.85957391458334,51.0,74.0
575,115.50916974791666,115.89495125833334,58.0,78.0
576,115.71132599791666,115.91348224791666,55.0,88.0
577,115.10485724791667,115.91348224791666,63.0,97.0
578,116.32284865416666,116.56038224791666,55.0,95.0
579,116.52500490416666,116.74400750833333,59.0,79.0
580,116.12069240416666,116.81981610208334,50.0,58.0
581,116.92931740416667,117.05566506041666,50.0,67.0
582,115.91853615416666,117.08093459166666,43.0,61.0
583,117.13147365416667,117.42628485208333,59.0,81.0
584,116.72716115416667,117.43470802916666,62.0,99.0
585,117.33362990416667,117.51220125833333,55.0,77.0
586,117.73794240416666,118.024330425,56.0,56.0
587,117.94009865416666,118.28207964375,63.0,92.0
588,118.14225490416666,118.32082625833333,56.0,85.0
589,117.53578615416666,118.33430334166667,44.0,88.0
590,118.34441115416666,118.71334631041667,46.0,96.0
591,118.54656740416667,118.75883146666666,58.0,66.0
592,118.74872365416667,119.09744318541667,62.0,82.0
593,118.95087990416667,119.17999032083333,58.0,86.0
594,119.55734865416666,120.02399266458333,51.0,82.0
595,119.75950490416666,120.13012469583333,55.0,72.0
596,119.35519240416666,120.24636453958333,46.0,34.0
597,119.15303615416666,120.2985882375,39.0,71.0
598,120.16381740416666,120.32048849791666,51.0,82.0
599,120.36597365416667,120.72648563333333,58.0,95.0
600,119.96166115416666,120.72648563333333,63.0,107.0
601,120.56812990416667,120.75512443541666,55.0,81.0
602,121.17459865416666,121.6126038625,53.0,82.0
603,121.37675490416666,121.79285985208332,60.0,83.0
604,120.97244240416666,121.94784631041667,48.0,52.0
605,120.77028615416667,121.986592925,41.0,68.0
606,121.78106740416666,122.17527209166667,53.0,74.0
607,121.57891115416666,122.19548771666666,68.0,102.0
608,121.98322365416666,122.29151193541666,65.0,92.0
609,122.18537990416667,122.41785959166667,60.0,88.0
610,122.79184865416666,123.26523120625,55.0,83.0
611,122.99400490416666,123.31913953958333,60.0,77.0
612,122.58969240416667,123.50108016458333,51.0,66.0
613,123.39831740416666,123.50950334166666,55.0,77.0
614,122.38753615416667,123.52803433125,48.0,82.0
615,123.19616115416666,123.96267026875,67.0,96.0
616,123.60047365416666,123.97277808125,63.0,86.0
617,123.80262990416666,124.02668641458332,60.0,88.0
618,124.40909865416667,124.6348398,53.0,83.0
619,124.61125490416666,124.76287209166667,56.0,88.0
620,124.20694240416667,124.83362677916666,48.0,58.0
621,124.00478615416667,125.10653771666667,41.0,72.0
622,125.01556740416666,125.31037860208333,48.0,88.0
623,124.81341115416666,125.54117365416667,60.0,97.0
624,125.21772365416666,125.54791219583333,56.0,97.0
625,125.41987990416666,125.57149709166666,53.0,92.0
626,126.22850490416667,126.40876089375,58.0,102.0
627,126.02634865416667,126.49804657083332,53.0,82.0
628,125.82419240416667,126.71367990416667,50.0,69.0
629,126.63281740416666,126.7271569875,53.0,88.0
630,125.62203615416666,126.74400334166667,46.0,107.0
631,126.43066115416666,126.96469058125,65.0,97.0
632,126.83497365416666,127.14494657083333,58.0,107.0
633,127.03712990416666,127.20053953958333,62.0,93.0
634,127.64359865416667,128.10518875833333,51.0,95.0
635,127.84575490416667,128.23322105,55.0,75.0
636,127.44144240416666,128.27365229999998,46.0,36.0
637,127.23928615416666,128.32756063333332,39.0,90.0
638,128.25006740416666,128.44716974791666,51.0,88.0
639,128.45222365416666,128.79252000833333,58.0,95.0
640,128.04791115416666,128.81778953958332,63.0,107.0
641,128.65437990416666,128.85148224791666,55.0,90.0
642,129.26084865416667,129.75107756041666,55.0,88.0
643,129.46300490416667,129.75781610208332,59.0,74.0
644,128.85653615416666,129.9616569875,43.0,82.0
645,129.05869240416666,129.97681870625,50.0,50.0
646,129.86731740416664,130.0004036020833,55.0,78.0
647,129.66516115416667,130.39797756041665,67.0,86.0
648,130.06947365416664,130.43840881041666,62.0,92.0
649,130.27162990416664,130.517586675,59.0,82.0
650,130.87809865416665,131.33800412291666,56.0,69.0
651,131.08025490416665,131.49804448749998,60.0,71.0
652,130.47378615416665,131.94615750833333,44.0,69.0
653,130.67594240416665,132.04386636249998,51.0,63.0
654,131.48456740416665,132.18032183124998,56.0,77.0
655,131.28241115416665,132.27129214375,68.0,107.0
656,131.88887990416666,132.39258589374998,60.0,72.0
657,131.68672365416666,132.59305750833332,63.0,77.0
658,132.49534865416666,132.97883901875,56.0,77.0
659,132.69750490416666,133.05127834166666,60.0,81.0
660,132.29319240416666,133.20794943541665,51.0,48.0
661,133.10181740416667,133.21300334166665,56.0,85.0
662,132.09103615416666,133.27196558125,44.0,74.0
663,132.89966115416667,133.60720802916666,68.0,102.0
664,133.30397365416667,133.61731584166665,63.0,93.0
665,133.50612990416664,133.70154761249998,60.0,86.0
666,134.11259865416665,134.3871942270833,53.0,78.0
667,134.31475490416665,134.52701896666665,56.0,77.0
668,133.91044240416664,134.60282756041664,48.0,67.0
669,134.71906740416665,134.843730425,48.0,69.0
670,133.70828615416664,134.87573849791664,41.0,61.0
671,134.92122365416665,135.26488927916665,56.0,96.0
672,134.51691115416665,135.26825854999998,60.0,88.0
673,135.12337990416665,135.34238250833332,53.0,59.0
674,135.72984865416666,136.19986193541666,48.0,83.0
675,135.93200490416666,136.3127325083333,55.0,78.0
676,135.32553615416666,136.46266506041667,36.0,66.0
677,135.52769240416666,136.46434969583333,43.0,48.0
678,136.33631740416666,136.57048172708332,48.0,81.0
679,136.13416115416666,136.72883745624998,63.0,112.0
680,136.53847365416667,136.87034683124998,60.0,96.0
681,136.74062990416667,136.90067026875,55.0,82.0
682,136.94278615416667,137.58800151875,59.0,74.0
683,136.94278615416667,137.58968615416666,43.0,59.0
684,136.94278615416667,137.60484787291665,55.0,79.0
685,136.94278615416667,137.61158641458331,62.0,77.0
686,138.56003615416665,139.33496844583334,59.0,63.0
687,138.56003615416665,139.4326773,55.0,67.0
688,138.56003615416665,139.64157209166666,67.0,78.0
689,138.56003615416665,139.64157209166666,71.0,72.0
690,138.56003615416665,139.66515698749998,62.0,83.0
691,140.17223224791667,141.70019657083333,48.0,77.0
692,140.57654474791667,141.83159813333333,55.0,58.0
693,140.98085724791667,142.38921245625,67.0,112.0
694,141.38516974791665,142.404374175,63.0,86.0
695,141.78948224791665,143.26690750833333,48.0,79.0
696,143.20457599791666,143.40167834166667,60.0,83.0
697,143.00241974791666,143.43537105,63.0,83.0
698,142.19379474791666,143.43874032083332,55.0,96.0
699,142.59810724791666,143.4656944875,67.0,100.0
700,143.81104474791667,144.25578849791665,55.0,79.0
701,143.40673224791666,144.88415750833332,48.0,86.0
702,144.41751349791667,145.02398224791665,55.0,82.0
703,144.82182599791665,145.02398224791665,60.0,95.0
704,144.61966974791667,145.02398224791665,63.0,99.0
705,144.21535724791667,145.02398224791665,67.0,117.0
706,145.42829474791665,145.92694683125,58.0,96.0
707,145.63045099791665,146.09204110208333,62.0,86.0
708,146.03476349791666,146.45592235208332,58.0,83.0
709,145.22613849791665,146.49972287291666,53.0,70.0
710,145.83260724791666,146.57216219583333,70.0,112.0
711,146.23691974791666,146.57553146666666,65.0,92.0
712,145.02398224791665,146.58900855,46.0,95.0
713,146.43907599791666,146.58900855,62.0,93.0
714,146.84844240416666,147.15504604999998,58.0,59.0
715,147.05059865416666,147.39594891458333,63.0,43.0
716,147.25275490416666,147.56441245624998,58.0,69.0
717,146.64628615416666,147.59305125833333,51.0,93.0
718,147.65706740416667,147.90807808124998,58.0,61.0
719,147.85922365416667,148.13887313333333,63.0,55.0
720,147.45491115416667,148.14392703958333,67.0,68.0
721,148.06137990416667,148.24332052916665,58.0,99.0
722,148.66784865416665,148.90538224791666,55.0,95.0
723,148.87000490416665,149.08900750833334,59.0,79.0
724,148.46569240416667,149.16481610208334,50.0,58.0
725,149.27431740416665,149.40066506041666,50.0,67.0
726,148.26353615416667,149.42593459166667,43.0,61.0
727,149.47647365416665,149.77128485208334,59.0,81.0
728,149.07216115416665,149.77970802916667,62.0,99.0
729,149.67862990416666,149.85720125833333,55.0,77.0
730,150.08294240416666,150.369330425,56.0,56.0
731,150.28509865416666,150.62707964375,63.0,92.0
732,150.48725490416666,150.66582625833334,56.0,85.0
733,149.88078615416666,150.67930334166667,44.0,88.0
734,150.68941115416666,151.05834631041665,46.0,96.0
735,150.89156740416666,151.10383146666666,58.0,66.0
736,151.09372365416667,151.44244318541666,62.0,82.0
737,151.29587990416667,151.52499032083333,58.0,86.0
738,151.90234865416667,152.36899266458332,51.0,82.0
739,152.10450490416667,152.47512469583333,55.0,72.0
740,151.70019240416667,152.59136453958334,46.0,34.0
741,151.49803615416667,152.64358823749998,39.0,71.0
742,152.50881740416665,152.66548849791667,51.0,82.0
743,152.71097365416665,153.07148563333334,58.0,95.0
744,152.30666115416665,153.07148563333334,63.0,107.0
745,152.91312990416665,153.10012443541666,55.0,81.0
746,153.51959865416666,153.9576038625,53.0,82.0
747,153.72175490416666,154.13785985208332,60.0,83.0
748,153.31744240416666,154.29284631041665,48.0,52.0
749,153.11528615416665,154.331592925,41.0,68.0
750,154.12606740416666,154.52027209166667,53.0,74.0
751,153.92391115416666,154.54048771666666,68.0,102.0
752,154.32822365416666,154.63651193541665,65.0,92.0
753,154.53037990416667,154.76285959166665,60.0,88.0
754,155.13684865416667,155.61023120625,55.0,83.0
755,155.33900490416667,155.66413953958332,60.0,77.0
756,154.93469240416667,155.84608016458333,51.0,66.0
757,155.74331740416667,155.85450334166666,55.0,77.0
758,154.73253615416667,155.87303433124998,48.0,82.0
759,155.54116115416667,156.30767026875,67.0,96.0
760,155.94547365416665,156.31777808125,63.0,86.0
761,156.14762990416665,156.37168641458334,60.0,88.0
762,156.75409865416665,156.9798398,53.0,83.0
763,156.95625490416666,157.10787209166665,56.0,88.0
764,156.55194240416665,157.17862677916665,48.0,58.0
765,156.34978615416665,157.45153771666665,41.0,72.0
766,157.36056740416666,157.65537860208332,48.0,88.0
767,157.15841115416666,157.88617365416667,60.0,97.0
768,157.56272365416666,157.89291219583333,56.0,97.0
769,157.76487990416666,157.91649709166666,53.0,92.0
770,158.57350490416667,158.75376089374998,58.0,102.0
771,158.37134865416667,158.84304657083334,53.0,82.0
772,158.16919240416667,159.05867990416667,50.0,69.0
773,158.97781740416667,159.0721569875,53.0,88.0
774,157.96703615416666,159.08900334166665,46.0,107.0
775,158.77566115416667,159.30969058124998,65.0,97.0
776,159.17997365416667,159.48994657083333,58.0,107.0
777,159.38212990416665,159.54553953958333,62.0,93.0
778,159.98859865416665,160.45018875833333,51.0,95.0
779,160.19075490416665,160.57822105,55.0,75.0
780,159.78644240416665,160.61865229999998,46.0,36.0
781,159.58428615416665,160.67256063333332,39.0,90.0
782,160.59506740416666,160.79216974791666,51.0,88.0
783,160.79722365416666,161.13752000833333,58.0,95.0
784,160.39291115416665,161.16278953958331,63.0,107.0
785,160.99937990416666,161.19648224791666,55.0,90.0
786,161.60584865416666,162.09607756041666,55.0,88.0
787,161.80800490416667,162.10281610208332,59.0,74.0
788,161.20153615416666,162.3066569875,43.0,82.0
789,161.40369240416666,162.32181870624999,50.0,50.0
790,162.21231740416667,162.34540360208334,55.0,78.0
791,162.01016115416667,162.74297756041665,67.0,86.0
792,162.41447365416667,162.78340881041666,62.0,92.0
793,162.61662990416667,162.862586675,59.0,82.0
794,163.22309865416665,163.68300412291666,56.0,69.0
795,163.42525490416665,163.84304448749998,60.0,71.0
796,162.81878615416667,164.29115750833333,44.0,69.0
797,163.02094240416665,164.38886636249998,51.0,63.0
798,163.82956740416665,164.52532183124998,56.0,77.0
799,163.62741115416665,164.61629214375,68.0,107.0
800,164.23387990416666,164.73758589374998,60.0,72.0
801,164.03172365416665,164.93805750833332,63.0,77.0
802,164.84034865416666,165.32383901875,56.0,77.0
803,165.04250490416666,165.39627834166666,60.0,81.0
804,164.63819240416666,165.55294943541665,51.0,48.0
805,165.44681740416667,165.55800334166665,56.0,85.0
806,164.43603615416666,165.61696558124999,44.0,74.0
807,165.24466115416666,165.95220802916666,68.0,102.0
808,165.64897365416667,165.96231584166665,63.0,93.0
809,165.85112990416667,166.0465476125,60.0,86.0
810,166.45759865416667,166.73219422708334,53.0,78.0
811,166.65975490416665,166.87201896666667,56.0,77.0
812,166.25544240416667,166.94782756041667,48.0,67.0
813,167.06406740416665,167.188730425,48.0,69.0
814,166.05328615416667,167.22073849791667,41.0,61.0
815,167.26622365416665,167.60988927916665,56.0,96.0
816,166.86191115416665,167.61325854999998,60.0,88.0
817,167.46837990416665,167.68738250833331,53.0,59.0
818,168.07484865416666,168.54486193541666,48.0,83.0
819,168.27700490416666,168.65773250833334,55.0,78.0
820,167.67053615416665,168.80766506041667,36.0,66.0
821,167.87269240416666,168.80934969583333,43.0,48.0
822,168.68131740416666,168.91548172708332,48.0,81.0
823,168.47916115416666,169.07383745625,63.0,112.0
824,168.88347365416666,169.21534683125,60.0,96.0
825,169.08562990416667,169.24567026875,55.0,82.0
826,169.28778615416667,169.93300151875,59.0,74.0
827,169.28778615416667,169.93468615416666,43.0,59.0
828,169.28778615416667,169.94984787291665,55.0,79.0
829,169.28778615416667,169.9565864145833,62.0,77.0
830,170.90503615416665,171.67996844583334,59.0,63.0
831,170.90503615416665,171.7776773,55.0,67.0
832,170.90503615416665,171.98657209166666,67.0,78.0
833,170.90503615416665,171.98657209166666,71.0,72.0
834,170.90503615416665,172.01015698749998,62.0,83.0
835,172.92659865416667,173.18771714374998,60.0,85.0
836,172.72444240416667,173.5061132375,55.0,57.0
837,172.52228615416666,173.576867925,48.0,79.0
838,173.12875490416667,173.81608615416667,63.0,85.0
839,173.73522365416665,174.19175985208332,60.0,95.0
840,173.93737990416665,174.68535802916665,63.0,90.0
841,173.33091115416667,174.9043606333333,67.0,93.0
842,174.54384865416665,174.98353849791667,58.0,63.0
843,174.74600490416665,175.0357621958333,62.0,76.0
844,175.15031740416666,175.25981870625,58.0,68.0
845,174.13953615416665,175.31709631041667,46.0,102.0
846,174.94816115416666,175.69782391458332,65.0,99.0
847,175.35247365416666,175.81406375833333,62.0,86.0
848,176.36325490416667,176.5991038625,63.0,64.0
849,175.95894240416666,176.64795828958333,56.0,73.0
850,176.76756740416667,176.93097703958333,56.0,53.0
851,176.16109865416666,176.95793120624998,60.0,66.0
852,175.75678615416666,177.04047834166667,44.0,96.0
853,176.56541115416667,177.29991219583331,68.0,99.0
854,176.96972365416667,177.32012782083333,63.0,95.0
855,177.17187990416667,177.46332183125,60.0,72.0
856,177.77834865416665,178.26015438333332,55.0,85.0
857,178.18266115416665,178.36123250833333,65.0,83.0
858,177.57619240416665,178.56170412291667,50.0,46.0
859,177.37403615416665,178.57181193541666,43.0,69.0
860,177.98050490416665,178.60045073749998,59.0,85.0
861,178.58697365416666,178.9744398,62.0,65.0
862,178.38481740416665,178.97612443541666,55.0,72.0
863,178.18266115416665,179.03003276875,67.0,89.0
864,178.78912990416666,179.05024839375,59.0,86.0
865,179.39559865416666,179.74431818541666,60.0,83.0
866,179.59775490416666,179.81675750833332,63.0,92.0
867,179.19344240416666,179.89593537291665,55.0,48.0
868,180.00206740416667,180.11662261249998,55.0,70.0
869,178.99128615416666,180.1570538625,48.0,69.0
870,179.79991115416667,180.60179761249998,67.0,93.0
871,180.20422365416667,180.62369787291667,63.0,92.0
872,180.40637990416667,180.69108328958333,60.0,74.0
873,181.01284865416665,181.25206688333333,62.0,65.0
874,180.81069240416664,181.38515308125,58.0,82.0
875,181.61931740416665,181.75240360208332,58.0,69.0
876,180.60853615416667,181.79957339375,46.0,78.0
877,181.21500490416665,181.85853563333333,65.0,93.0
878,181.82147365416665,182.18367026874998,62.0,74.0
879,182.02362990416665,182.20388589375,65.0,69.0
880,182.42794240416666,183.06473459166665,56.0,66.0
881,182.83225490416666,183.12538146666665,63.0,75.0
882,182.63009865416666,183.13212000833332,60.0,72.0
883,183.23656740416666,183.38481532083333,56.0,82.0
884,182.22578615416666,183.44546219583333,44.0,93.0
885,183.43872365416667,183.7588043833333,63.0,88.0
886,183.03441115416666,183.76891219583334,68.0,95.0
887,183.64087990416667,183.89189058124998,60.0,85.0
888,184.24734865416667,184.72915438333334,55.0,83.0
889,184.44950490416664,184.96500334166666,59.0,77.0
890,184.04519240416667,185.07282000833334,50.0,46.0
891,183.84303615416667,185.08798172708333,43.0,61.0
892,184.85381740416665,185.28676870625,55.0,64.0
893,184.65166115416665,185.36089266458333,67.0,92.0
894,185.05597365416665,185.39121610208332,62.0,82.0
895,185.25812990416665,185.45523224791665,59.0,85.0
896,185.45523224791665,187.74802104999998,63.0,99.0
897,185.45523224791665,187.76149813333333,60.0,95.0
898,185.45523224791665,187.77665985208333,48.0,97.0
899,185.45523224791665,187.7783444875,67.0,89.0
900,185.45523224791665,187.82888355,36.0,72.0
