,start,end,pitch,velocity
0,23.686775687500006,23.951143437500004,64.0,85.0
1,24.031603187500007,24.301718062500004,66.0,84.0
2,24.376430687500005,25.199706343750005,68.0,87.0
3,25.410913187500007,25.682464843750004,66.0,79.0
4,25.755740687500005,25.964073968750007,68.0,84.0
5,26.100568187500006,26.352004906250006,71.0,88.0
6,26.445395687500007,26.734188718750005,76.0,72.0
7,26.790223187500008,26.992809343750007,73.0,84.0
8,27.135050687500005,28.370682562500008,71.0,86.0
9,29.204015687500007,29.456889187500007,73.0,89.0
10,29.548843187500008,29.788785656250006,75.0,86.0
11,29.893670687500006,30.741371625000006,73.0,91.0
12,30.92815318750001,31.07470487500001,73.0,98.0
13,31.10056693750001,31.211199093750007,71.0,82.0
14,31.272980687500006,31.570394406250006,68.0,82.0
15,31.617808187500007,31.722693218750006,71.0,84.0
16,31.790221937500007,32.28878503125001,71.0,84.0
17,32.307463187500005,32.58045162500001,68.0,84.0
18,32.652290687500006,34.44108334375001,66.0,84.0
19,34.72125568750001,34.95257746875001,66.0,82.0
20,35.066083187500006,35.29596818750001,68.0,86.0
21,35.41091068750001,36.16522084375001,71.0,83.0
22,36.44539318750001,36.573266718750006,71.0,87.0
23,36.617806937500006,36.74424368750001,68.0,83.0
24,36.79022068750001,37.070393031250006,66.0,84.0
25,37.13504818750001,37.40228950000001,68.0,83.0
26,37.47987568750001,37.75286412500001,64.0,83.0
27,37.824703187500006,38.13361115625001,63.0,84.0
28,38.16953068750001,39.77297856250001,61.0,81.0
29,40.23849568750001,40.35631175000001,61.0,86.0
30,40.58332318750001,40.70113925000001,61.0,83.0
31,40.75573693750001,40.87211621875001,68.0,77.0
32,40.92815068750001,41.75286312500001,66.0,76.0
33,41.96263318750001,42.26579403125001,64.0,86.0
34,42.30746068750001,42.58332268750001,61.0,84.0
35,42.65228818750001,42.74711575000001,64.0,82.0
36,42.82470193750001,43.25573631250001,64.0,82.0
37,43.34194318750001,43.61493162500001,68.0,85.0
38,43.68677068750001,45.48562081250001,66.0,82.0
39,45.755735687500014,46.02010343750001,64.0,85.0
40,46.10056318750001,46.37067806250001,66.0,84.0
41,46.44539068750001,47.26866634375001,68.0,87.0
42,47.47987318750001,47.75142484375001,66.0,79.0
43,47.82470068750001,48.03303396875001,68.0,84.0
44,48.16952818750001,48.42096490625001,71.0,88.0
45,48.514355687500014,48.80314871875001,76.0,72.0
46,48.85918318750001,49.061769343750015,73.0,84.0
47,49.20401068750001,50.43964256250001,71.0,86.0
48,51.272975687500015,51.525849187500015,73.0,89.0
49,51.61780318750001,51.85774565625001,75.0,86.0
50,51.96263068750001,52.81033162500001,73.0,91.0
51,52.99711318750001,53.14366487500001,73.0,98.0
52,53.16952693750001,53.280159093750015,71.0,82.0
53,53.34194068750001,53.639354406250014,68.0,82.0
54,53.686768187500014,53.791653218750014,71.0,84.0
55,53.85918193750001,54.35774503125001,71.0,84.0
56,54.376423187500016,54.64941162500001,68.0,84.0
57,54.72125068750001,56.51004334375001,66.0,84.0
58,56.790215687500016,57.02153746875001,66.0,82.0
59,57.13504318750002,57.36492818750001,68.0,86.0
60,57.47987068750001,57.997111937500016,71.0,83.0
61,57.997111937500016,58.093376281250016,71.0,83.0
62,58.16952568750001,58.42814631250001,71.0,91.0
63,58.514353187500014,58.77153703125001,68.0,85.0
64,58.859180687500015,59.13935303125002,66.0,84.0
65,59.204008187500015,59.47124950000001,68.0,83.0
66,59.548835687500016,59.82182412500001,64.0,83.0
67,59.89366318750002,60.202571156250016,63.0,84.0
68,60.23849068750001,61.84193856250001,61.0,81.0
69,62.30745568750002,62.65228318750002,61.0,86.0
70,62.65228318750002,62.824696937500015,61.0,83.0
71,62.824696937500015,62.94107621875001,68.0,77.0
72,62.99711068750001,63.821823125000016,66.0,76.0
73,64.03159318750002,64.20400693750001,66.0,86.0
74,64.20400693750001,64.37642068750002,64.0,86.0
75,64.37642068750002,64.65228268750002,66.0,84.0
76,64.72124818750001,64.81607575000001,64.0,82.0
77,64.89366193750001,65.32469631250001,66.0,82.0
78,65.41090318750001,65.68389162500002,73.0,85.0
79,65.75573068750002,67.55458081250002,71.0,82.0
80,67.82469568750001,68.02297150000001,71.0,85.0
81,68.16952318750002,68.41090243750001,73.0,93.0
82,68.51435068750001,68.92670690625002,80.0,85.0
83,69.03159193750001,69.46837343750002,78.0,84.0
84,69.54883318750002,69.74710900000002,76.0,78.0
85,69.89366068750002,70.11348821875002,76.0,84.0
86,70.23848818750001,70.48274100000002,68.0,86.0
87,70.58331568750002,70.87067193750002,73.0,93.0
88,70.92814318750001,71.05457993750002,75.0,84.0
89,71.10055693750002,71.25285575000002,73.0,86.0
90,71.27297068750002,73.07469437500002,71.0,84.0
91,73.34193568750001,73.54739540625002,71.0,83.0
92,73.68676318750002,73.96837231250002,73.0,89.0
93,74.03159068750001,74.51147562500002,76.0,86.0
94,74.54883193750001,74.97268240625002,73.0,89.0
95,75.06607318750002,75.22555590625002,73.0,86.0
96,75.23848693750001,75.35486621875002,71.0,87.0
97,75.41090068750002,75.64509603125002,68.0,85.0
98,75.75572818750001,75.99854421875001,71.0,89.0
99,76.10055568750002,76.40371653125001,71.0,89.0
100,76.44538318750001,76.69969346875001,68.0,86.0
101,76.79021068750002,78.61635965625001,66.0,85.0
102,78.85917568750001,79.09480781250002,66.0,84.0
103,79.20400318750002,79.44538243750002,68.0,84.0
104,79.54883068750001,79.95831334375002,71.0,86.0
105,80.06607193750001,80.16089950000001,71.0,85.0
106,80.23848568750002,80.47986493750003,71.0,86.0
107,80.58331318750002,80.81463496875001,68.0,84.0
108,80.92814068750002,81.22842796875003,68.0,84.0
109,81.27296818750001,81.83618643750002,71.0,84.0
110,81.96262318750001,82.09911740625002,66.0,84.0
111,82.13503693750002,82.22986450000002,64.0,83.0
112,82.30745068750002,83.98848475000003,61.0,89.0
113,84.72124318750002,84.84767993750002,61.0,86.0
114,84.89365693750003,84.98417415625002,68.0,82.0
115,85.06607068750002,85.40084071875002,66.0,88.0
116,85.58331193750001,85.66808203125002,66.0,82.0
117,85.75572568750002,85.95974862500002,66.0,82.0
118,86.10055318750003,86.44538068750002,68.0,93.0
119,86.44538068750002,86.65515075000002,78.0,88.0
120,86.79020818750001,86.86923115625002,78.0,93.0
121,86.96262193750002,87.36348390625002,78.0,89.0
122,87.47986318750002,87.77727690625002,73.0,96.0
123,87.82469068750002,89.69537987500001,71.0,89.0
124,89.89365568750002,90.09193150000002,71.0,85.0
125,90.23848318750002,90.47986243750002,73.0,93.0
126,90.58331068750002,90.99566690625002,80.0,85.0
127,91.10055193750001,91.53733343750002,78.0,84.0
128,91.61779318750003,91.81606900000003,76.0,78.0
129,91.96262068750002,92.18244821875003,76.0,84.0
130,92.30744818750003,92.55170100000002,68.0,86.0
131,92.65227568750002,92.93963193750002,73.0,93.0
132,92.99710318750002,93.12353993750003,75.0,84.0
133,93.16951693750002,93.32181575000003,73.0,86.0
134,93.34193068750002,95.14365437500003,71.0,84.0
135,95.41089568750002,95.61635540625002,71.0,83.0
136,95.75572318750002,96.03733231250003,73.0,89.0
137,96.10055068750002,96.58043562500002,76.0,86.0
138,96.61779193750003,97.04164240625002,73.0,89.0
139,97.13503318750003,97.29451590625003,73.0,86.0
140,97.30744693750002,97.42382621875002,71.0,87.0
141,97.47986068750002,97.71405603125002,68.0,85.0
142,97.82468818750003,98.06750421875002,71.0,89.0
143,98.16951568750002,98.47267653125002,71.0,89.0
144,98.51434318750002,98.76865346875002,68.0,86.0
145,98.85917068750003,100.68531965625003,66.0,85.0
146,100.92813568750002,101.16376781250003,66.0,84.0
147,101.27296318750003,101.51434243750002,68.0,84.0
148,101.61779068750002,102.02727334375002,71.0,86.0
149,102.65227318750003,102.82468693750002,71.0,86.0
150,102.82468693750002,102.99710068750002,68.0,84.0
151,102.99710068750002,103.29738796875003,68.0,84.0
152,103.34192818750003,103.90514643750002,71.0,84.0
153,104.03158318750002,104.16807740625002,66.0,84.0
154,104.20399693750002,104.29882450000002,64.0,83.0
155,104.37641068750003,106.05744475000003,61.0,89.0
156,106.79020318750003,106.91663993750002,61.0,86.0
157,106.96261693750003,107.05313415625002,68.0,82.0
158,107.13503068750002,107.99709943750003,66.0,88.0
159,108.16951318750003,108.33761659375003,68.0,82.0
160,108.34192693750002,108.46261656250003,71.0,86.0
161,108.51434068750002,108.97123712500003,68.0,86.0
162,109.03158193750002,109.50571975000003,66.0,84.0
163,109.54882318750002,109.86635184375002,61.0,84.0
164,109.89365068750003,112.44537418750002,64.0,83.0
165,134.03157568750004,134.29594343750003,64.0,85.0
166,134.37640318750005,134.64651806250004,66.0,84.0
167,134.72123068750003,135.54450634375004,68.0,87.0
168,135.75571318750002,136.02726484375003,66.0,79.0
169,136.10054068750003,136.30887396875002,68.0,84.0
170,136.44536818750004,136.69680490625004,71.0,88.0
171,136.79019568750005,137.07898871875003,76.0,72.0
172,137.13502318750002,137.33760934375005,73.0,84.0
173,137.47985068750003,138.71548256250003,71.0,86.0
174,139.54881568750002,139.80168918750005,73.0,89.0
175,139.89364318750003,140.13358565625003,75.0,86.0
176,140.23847068750004,141.08617162500002,73.0,91.0
177,141.27295318750004,141.41950487500003,73.0,98.0
178,141.44536693750004,141.55599909375005,71.0,82.0
179,141.61778068750004,141.91519440625004,68.0,82.0
180,141.96260818750002,142.06749321875003,71.0,84.0
181,142.13502193750003,142.63358503125002,71.0,84.0
182,142.65226318750004,142.92525162500004,68.0,84.0
183,142.99709068750005,144.78588334375004,66.0,84.0
184,145.06605568750004,145.29737746875003,66.0,82.0
185,145.41088318750005,145.64076818750004,68.0,86.0
186,145.75571068750003,146.27295193750004,71.0,83.0
187,146.27295193750004,146.36921628125003,71.0,83.0
188,146.44536568750004,146.70398631250004,71.0,91.0
189,146.79019318750002,147.04737703125002,68.0,85.0
190,147.13502068750003,147.41519303125003,66.0,84.0
191,147.47984818750004,147.74708950000004,68.0,83.0
192,147.82467568750005,148.09766412500002,64.0,83.0
193,148.16950318750003,148.47841115625005,63.0,84.0
194,148.51433068750003,150.11777856250004,61.0,81.0
195,150.58329568750003,150.92812318750003,61.0,86.0
196,150.92812318750003,151.10053693750004,61.0,83.0
197,151.10053693750004,151.21691621875004,68.0,77.0
198,151.27295068750004,152.09766312500003,66.0,76.0
199,152.30743318750004,152.47984693750004,66.0,86.0
200,152.47984693750004,152.65226068750005,64.0,86.0
201,152.65226068750005,152.92812268750004,66.0,84.0
202,152.99708818750003,153.09191575000003,64.0,82.0
203,153.16950193750003,153.60053631250003,66.0,82.0
204,153.68674318750004,153.95973162500005,73.0,85.0
205,154.03157068750005,155.83042081250002,71.0,82.0
206,156.10053568750004,156.29881150000003,71.0,85.0
207,156.44536318750005,156.68674243750004,73.0,93.0
208,156.79019068750003,157.20254690625003,80.0,85.0
209,157.30743193750004,157.74421343750004,78.0,84.0
210,157.82467318750003,158.02294900000004,76.0,78.0
211,158.16950068750003,158.38932821875005,76.0,84.0
212,158.51432818750004,158.75858100000005,68.0,86.0
213,158.85915568750005,159.14651193750004,73.0,93.0
214,159.20398318750003,159.33041993750004,75.0,84.0
215,159.37639693750003,159.52869575000003,73.0,86.0
216,159.54881068750004,161.35053437500005,71.0,84.0
217,161.61777568750003,161.82323540625003,71.0,83.0
218,161.96260318750004,162.24421231250003,73.0,89.0
219,162.30743068750004,162.78731562500005,76.0,86.0
220,162.82467193750003,163.24852240625003,73.0,89.0
221,163.34191318750004,163.50139590625002,73.0,86.0
222,163.51432693750004,163.63070621875005,71.0,87.0
223,163.68674068750005,163.92093603125005,68.0,85.0
224,164.03156818750003,164.27438421875004,71.0,89.0
225,164.37639568750004,164.67955653125003,71.0,89.0
226,164.72122318750004,164.97553346875003,68.0,86.0
227,165.06605068750005,166.89219965625003,66.0,85.0
228,167.13501568750004,167.37064781250004,66.0,84.0
229,167.47984318750005,167.72122243750005,68.0,84.0
230,167.82467068750003,168.23415334375005,71.0,86.0
231,168.34191193750004,168.43673950000004,71.0,85.0
232,168.51432568750005,168.75570493750004,71.0,86.0
233,168.85915318750003,169.09047496875004,68.0,84.0
234,169.20398068750004,169.50426796875004,68.0,84.0
235,169.54880818750004,170.11202643750005,71.0,84.0
236,170.23846318750003,170.37495740625005,66.0,84.0
237,170.41087693750003,170.50570450000004,64.0,83.0
238,170.58329068750004,172.26432475000004,61.0,89.0
239,172.99708318750004,173.12351993750005,61.0,86.0
240,173.16949693750004,173.26001415625004,68.0,82.0
241,173.34191068750005,173.67668071875005,66.0,88.0
242,173.85915193750003,173.94392203125005,66.0,82.0
243,174.03156568750003,174.23558862500005,66.0,82.0
244,174.37639318750004,174.72122068750005,68.0,93.0
245,174.72122068750005,174.93099075000003,78.0,88.0
246,175.06604818750003,175.14507115625005,78.0,93.0
247,175.23846193750003,175.63932390625004,78.0,89.0
248,175.75570318750005,176.05311690625004,73.0,96.0
249,176.10053068750005,177.97121987500003,71.0,89.0
250,178.16949568750005,178.36777150000003,71.0,85.0
251,178.51432318750005,178.75570243750005,73.0,93.0
252,178.85915068750003,179.27150690625004,80.0,85.0
253,179.37639193750005,179.81317343750004,78.0,84.0
254,179.89363318750003,180.09190900000004,76.0,78.0
255,180.23846068750004,180.45828821875006,76.0,84.0
256,180.58328818750005,180.82754100000005,68.0,86.0
257,180.92811568750005,181.21547193750004,73.0,93.0
258,181.27294318750003,181.39937993750004,75.0,84.0
259,181.44535693750004,181.59765575000003,73.0,86.0
260,181.61777068750004,183.41949437500006,71.0,84.0
261,183.68673568750003,183.89219540625004,71.0,83.0
262,184.03156318750004,184.31317231250006,73.0,89.0
263,184.37639068750005,184.85627562500005,76.0,86.0
264,184.89363193750003,185.31748240625004,73.0,89.0
265,185.41087318750004,185.57035590625006,73.0,86.0
266,185.58328693750005,185.69966621875005,71.0,87.0
267,185.75570068750005,185.98989603125005,68.0,85.0
268,186.10052818750003,186.34334421875005,71.0,89.0
269,186.44535568750004,186.74851653125003,71.0,89.0
270,186.79018318750005,187.04449346875003,68.0,86.0
271,187.13501068750006,188.96115965625003,66.0,85.0
272,189.20397568750005,189.43960781250004,66.0,84.0
273,189.54880318750006,189.79018243750005,68.0,84.0
274,189.89363068750004,190.30311334375006,71.0,86.0
275,190.92811318750003,191.10052693750004,71.0,86.0
276,191.10052693750004,191.27294068750004,68.0,84.0
277,191.27294068750004,191.57322796875005,68.0,84.0
278,191.61776818750005,192.18098643750005,71.0,84.0
279,192.30742318750004,192.44391740625005,66.0,84.0
280,192.47983693750004,192.57466450000004,64.0,83.0
281,192.65225068750004,194.33328475000005,61.0,89.0
282,195.06604318750004,195.19247993750005,61.0,86.0
283,195.23845693750005,195.32897415625004,68.0,82.0
284,195.41087068750005,196.27293943750004,66.0,88.0
285,196.44535318750005,196.61345659375004,68.0,82.0
286,196.61776693750005,196.73845656250003,71.0,86.0
287,196.79018068750005,197.24707712500006,68.0,86.0
288,197.30742193750004,197.78155975000004,66.0,84.0
289,197.82466318750005,198.14219184375006,61.0,84.0
290,198.16949068750006,199.72121443750004,64.0,83.0
291,200.23845568750005,200.43673150000004,71.0,85.0
292,200.58328318750006,200.82466243750005,73.0,93.0
293,200.92811068750004,201.34046690625004,80.0,85.0
294,201.44535193750005,201.88213343750004,78.0,84.0
295,201.96259318750006,202.16086900000005,76.0,78.0
296,202.30742068750004,202.52724821875006,76.0,84.0
297,202.65224818750005,202.89650100000006,68.0,86.0
298,202.99707568750006,203.28443193750005,73.0,93.0
299,203.34190318750004,203.46833993750005,75.0,84.0
300,203.51431693750004,203.66661575000006,73.0,86.0
301,203.68673068750005,205.48845437500006,71.0,84.0
302,205.75569568750004,205.96115540625004,71.0,83.0
303,206.10052318750004,206.38213231250006,73.0,89.0
304,206.44535068750005,206.92523562500006,76.0,86.0
305,206.96259193750004,207.38644240625004,73.0,89.0
306,207.47983318750005,207.63931590625006,73.0,86.0
307,207.65224693750005,207.76862621875006,71.0,87.0
308,207.82466068750006,208.05885603125006,68.0,85.0
309,208.16948818750004,208.41230421875005,71.0,89.0
310,208.51431568750004,208.81747653125004,71.0,89.0
311,208.85914318750005,209.11345346875004,68.0,86.0
312,209.20397068750006,211.03011965625004,66.0,85.0
313,211.27293568750005,211.50856781250005,66.0,84.0
314,211.61776318750006,211.85914243750005,68.0,84.0
315,211.96259068750004,212.37207334375006,71.0,86.0
316,212.47983193750005,212.57465950000005,71.0,85.0
317,212.65224568750006,212.89362493750005,71.0,86.0
318,212.99707318750006,213.22839496875005,68.0,84.0
319,213.34190068750004,213.64218796875005,68.0,84.0
320,213.68672818750005,214.24994643750006,71.0,84.0
321,214.37638318750004,214.51287740625006,66.0,84.0
322,214.54879693750004,214.64362450000004,64.0,83.0
323,214.72121068750005,216.40224475000005,61.0,89.0
324,217.13500318750005,217.26143993750006,61.0,86.0
325,217.30741693750005,217.39793415625005,68.0,82.0
326,217.47983068750005,217.81460071875006,66.0,88.0
327,217.99707193750004,218.08184203125006,66.0,82.0
328,218.16948568750004,218.37350862500006,66.0,82.0
329,218.51431318750005,218.85914068750006,68.0,93.0
330,218.85914068750006,219.06891075000004,78.0,88.0
331,219.20396818750004,219.28299115625006,78.0,93.0
332,219.37638193750004,219.77724390625005,78.0,89.0
333,219.89362318750005,220.19103690625005,73.0,96.0
334,220.23845068750006,222.10913987500004,71.0,89.0
335,222.30741568750005,222.50569150000004,71.0,85.0
336,222.65224318750006,222.89362243750006,73.0,93.0
337,222.99707068750004,223.40942690625005,80.0,85.0
338,223.51431193750005,223.95109343750005,78.0,84.0
339,224.03155318750007,224.22982900000005,76.0,78.0
340,224.37638068750005,224.59620821875006,76.0,84.0
341,224.72120818750005,224.96546100000006,68.0,86.0
342,225.06603568750006,225.35339193750005,73.0,93.0
343,225.41086318750004,225.53729993750005,75.0,84.0
344,225.58327693750005,225.73557575000007,73.0,86.0
345,225.75569068750005,227.55741437500006,71.0,84.0
346,227.82465568750004,228.03011540625005,71.0,83.0
347,228.16948318750005,228.45109231250007,73.0,89.0
348,228.51431068750006,228.99419562500006,76.0,86.0
349,229.03155193750004,229.45540240625004,73.0,89.0
350,229.54879318750005,229.70827590625007,73.0,86.0
351,229.72120693750006,229.83758621875006,71.0,87.0
352,229.89362068750006,230.12781603125006,68.0,85.0
353,230.23844818750007,230.48126421875006,71.0,89.0
354,230.58327568750005,230.88643653125004,71.0,89.0
355,230.92810318750006,231.18241346875004,68.0,86.0
356,231.27293068750006,233.09907965625007,66.0,85.0
357,233.34189568750006,233.57752781250005,66.0,84.0
358,233.68672318750006,233.92810243750006,68.0,84.0
359,234.03155068750004,234.44103334375006,71.0,86.0
360,235.06603318750007,235.23844693750004,71.0,86.0
361,235.23844693750004,235.41086068750005,68.0,84.0
362,235.41086068750005,235.71114796875005,68.0,84.0
363,235.75568818750006,236.31890643750006,71.0,84.0
364,236.44534318750004,236.58183740625006,66.0,84.0
365,236.61775693750005,236.71258450000005,64.0,83.0
366,236.79017068750005,238.47120475000006,61.0,89.0
367,239.20396318750005,239.33039993750006,61.0,86.0
368,239.37637693750005,239.46689415625005,68.0,82.0
369,239.54879068750006,240.41085943750005,66.0,88.0
370,240.58327318750005,240.75137659375005,68.0,82.0
371,240.75568693750006,240.87637656250007,71.0,86.0
372,240.92810068750006,241.38499712500007,68.0,86.0
373,241.44534193750005,241.91947975000005,66.0,84.0
374,241.96258318750006,242.28011184375006,61.0,84.0
375,242.30741068750007,243.85913443750005,64.0,83.0
