,start,end,pitch,velocity
0,2.3074706875000004,2.7255740312500008,52.0,78.0
1,2.3074706875000004,2.8591946875000005,56.0,80.0
2,2.9971256875000005,3.229884250000001,52.0,82.0
3,3.3419531875000006,3.600573812500001,54.0,88.0
4,3.686780687500001,3.791665718750001,56.0,91.0
5,4.376435687500001,4.590516093750001,52.0,76.0
6,4.376435687500001,4.609194250000001,56.0,82.0
7,4.376435687500001,4.689654000000001,59.0,81.0
8,2.3074706875000004,4.818964312500001,40.0,82.0
9,2.6522981875000005,4.829021781250002,47.0,76.0
10,5.066090687500001,5.298849250000001,56.0,75.0
11,5.066090687500001,5.528734250000001,61.0,75.0
12,5.410918187500001,5.801722687500002,56.0,80.0
13,5.755745687500001,6.1293088125000015,61.0,84.0
14,6.100573187500001,6.221262812500002,56.0,74.0
15,6.445400687500001,6.596262718750001,56.0,79.0
16,6.790228187500001,7.035917781250002,56.0,70.0
17,6.445400687500001,7.063216625000002,64.0,83.0
18,5.066090687500001,7.248561406250002,49.0,79.0
19,7.135055687500001,7.275860250000002,63.0,87.0
20,7.824710687500001,8.461204781250002,61.0,79.0
21,7.824710687500001,8.607756468750003,54.0,77.0
22,8.514365687500002,8.906606968750003,57.0,86.0
23,8.859193187500003,9.235629875000003,61.0,82.0
24,9.204020687500002,9.574710250000003,66.0,83.0
25,9.548848187500003,9.770112500000002,61.0,78.0
26,9.893675687500002,10.249997437500003,54.0,84.0
27,8.169538187500002,10.426721531250003,49.0,76.0
28,7.824710687500001,10.438215781250003,42.0,83.0
29,10.583330687500002,10.856319125000002,54.0,78.0
30,10.583330687500002,11.294537406250003,59.0,80.0
31,11.272985687500002,11.642238468750003,54.0,85.0
32,11.617813187500003,11.728445343750003,61.0,85.0
33,11.962640687500002,12.106318812500003,54.0,87.0
34,11.962640687500002,12.392238281250004,63.0,87.0
35,12.307468187500003,12.512927906250003,54.0,82.0
36,12.652295687500002,12.863502531250003,59.0,85.0
37,10.583330687500002,12.874996781250003,47.0,85.0
38,10.928158187500003,12.893674937500004,51.0,78.0
39,12.997123187500003,13.124996718750003,57.0,88.0
40,13.341950687500002,14.053157406250003,56.0,82.0
41,13.341950687500002,14.096260843750004,52.0,78.0
42,14.031605687500003,14.445398687500003,59.0,79.0
43,14.376433187500004,14.774421593750004,56.0,82.0
44,14.721260687500003,15.252869750000004,64.0,84.0
45,15.066088187500004,15.458329468750003,59.0,82.0
46,15.410915687500003,15.724134000000003,56.0,83.0
47,13.686778187500003,15.729881125000004,47.0,77.0
48,13.341950687500002,15.731317906250004,40.0,82.0
49,15.755743187500004,15.836202937500003,52.0,84.0
50,16.100570687500003,16.293099375000004,56.0,68.0
51,16.445398187500004,16.843386593750004,56.0,78.0
52,16.100570687500003,16.860627968750006,61.0,76.0
53,17.135053187500006,17.479880687500003,56.0,77.0
54,16.790225687500005,17.521547343750004,64.0,82.0
55,17.479880687500003,18.028731125000004,63.0,84.0
56,17.824708187500004,18.196834531250005,56.0,78.0
57,16.100570687500003,18.284478187500003,49.0,84.0
58,18.169535687500005,18.327581625000004,61.0,83.0
59,18.859190687500003,19.455454906250004,54.0,77.0
60,18.859190687500003,19.459765250000004,61.0,81.0
61,19.548845687500005,19.893673187500006,57.0,87.0
62,18.859190687500003,20.002868562500005,42.0,83.0
63,19.204018187500004,20.010052468750004,49.0,77.0
64,19.893673187500006,20.061776593750004,54.0,82.0
65,20.238500687500004,20.466948906250003,54.0,83.0
66,20.238500687500004,20.719822406250003,59.0,83.0
67,20.928155687500006,21.057466000000005,59.0,87.0
68,20.928155687500006,21.090511968750004,54.0,82.0
69,20.583328187500005,21.224132625000006,51.0,63.0
70,20.238500687500004,21.238500437500004,47.0,84.0
71,21.272983187500007,21.459764750000005,56.0,77.0
72,21.445396937500004,21.586201500000005,54.0,84.0
73,21.617810687500004,22.742810406250005,52.0,81.0
74,22.652293187500007,22.758615000000006,56.0,74.0
75,22.307465687500006,22.777293156250007,59.0,76.0
76,22.997120687500004,23.647982593750005,64.0,79.0
77,22.997120687500004,23.695396375000005,52.0,81.0
78,21.962638187500005,23.895108968750005,47.0,75.0
79,21.617810687500004,23.926718156250004,40.0,83.0
80,24.376430687500005,24.928154687500005,56.0,74.0
81,24.376430687500005,25.041660406250006,52.0,72.0
82,25.066085687500006,25.454016625000005,59.0,76.0
83,25.410913187500007,25.829016531250005,52.0,69.0
84,25.755740687500005,26.202579656250006,64.0,80.0
85,26.100568187500006,26.452579593750006,52.0,68.0
86,26.445395687500007,26.571832437500007,56.0,79.0
87,26.445395687500007,26.624993343750006,59.0,82.0
88,24.721258187500005,26.659476093750005,47.0,69.0
89,24.376430687500005,26.683901375000005,40.0,81.0
90,27.135050687500005,27.311774781250005,54.0,78.0
91,27.135050687500005,27.691085031250008,63.0,83.0
92,27.479878187500006,27.860625218750005,54.0,68.0
93,27.824705687500007,28.238498687500005,61.0,82.0
94,28.169533187500008,28.356314750000006,54.0,82.0
95,28.514360687500005,28.672406625000008,54.0,77.0
96,28.514360687500005,28.938211156250006,59.0,77.0
97,28.859188187500006,29.09482031250001,54.0,70.0
98,29.204015687500007,29.347693812500008,54.0,82.0
99,29.204015687500007,29.579015593750007,63.0,82.0
100,27.135050687500005,29.613498343750006,47.0,82.0
101,29.548843187500008,29.683900625000007,54.0,81.0
102,29.893670687500006,30.07183156250001,56.0,71.0
103,30.066084437500006,30.07183156250001,56.0,76.0
104,29.893670687500006,30.396544125000005,61.0,76.0
105,29.893670687500006,30.416659062500006,49.0,76.0
106,30.583325687500007,30.893670437500006,64.0,86.0
107,30.92815318750001,31.114934750000007,56.0,77.0
108,31.272980687500006,31.67671621875001,61.0,84.0
109,31.617808187500007,31.758612750000008,56.0,71.0
110,31.962635687500008,32.18821034375001,56.0,81.0
111,31.962635687500008,32.21694596875001,61.0,83.0
112,32.307463187500005,32.53303784375001,63.0,78.0
113,32.652290687500006,33.014359562500005,59.0,77.0
114,32.99711818750001,33.23849743750001,54.0,76.0
115,33.34194568750001,33.48849737500001,54.0,80.0
116,33.34194568750001,33.77585362500001,59.0,83.0
117,33.68677318750001,33.88504900000001,54.0,72.0
118,34.03160068750001,34.53447412500001,63.0,83.0
119,34.37642818750001,34.55315228125001,54.0,78.0
120,32.652290687500006,34.75142809375001,47.0,85.0
121,34.72125568750001,34.82757750000001,54.0,85.0
122,34.72125568750001,34.95114068750001,59.0,84.0
123,35.066083187500006,35.18102568750001,54.0,82.0
124,35.41091068750001,35.85487609375001,56.0,77.0
125,35.41091068750001,35.86062321875001,59.0,80.0
126,36.10056568750001,36.22987600000001,56.0,82.0
127,36.10056568750001,36.573266718750006,63.0,82.0
128,36.44539318750001,36.623554062500006,56.0,75.0
129,36.79022068750001,37.16665737500001,59.0,70.0
130,37.13504818750001,37.31177228125001,56.0,70.0
131,37.47987568750001,37.63504806250001,56.0,82.0
132,37.47987568750001,37.725565281250006,63.0,84.0
133,35.75573818750001,37.86493306250001,51.0,75.0
134,35.41091068750001,37.87211696875001,44.0,82.0
135,37.824703187500006,37.99711693750001,56.0,61.0
136,38.16953068750001,38.85774890625001,64.0,84.0
137,38.51435818750001,38.89510521875001,56.0,77.0
138,38.85918568750001,39.28734650000001,61.0,80.0
139,39.20401318750001,39.61924296875001,56.0,82.0
140,39.54884068750001,40.034472750000006,64.0,86.0
141,39.89366818750001,40.29884050000001,56.0,84.0
142,38.16953068750001,40.49136918750001,49.0,77.0
143,40.23849568750001,40.60487490625001,63.0,88.0
144,40.58332318750001,40.735622000000006,61.0,81.0
145,40.92815068750001,41.24136900000001,54.0,74.0
146,40.92815068750001,41.32326553125001,61.0,77.0
147,40.92815068750001,41.33619656250001,57.0,68.0
148,41.61780568750001,41.92671365625001,57.0,76.0
149,41.61780568750001,41.95975962500001,61.0,79.0
150,41.96263318750001,42.39366756250001,54.0,77.0
151,42.30746068750001,42.62067900000001,66.0,84.0
152,42.65228818750001,42.87067893750001,54.0,82.0
153,42.99711568750001,43.15372484375001,54.0,85.0
154,42.99711568750001,43.43389718750001,61.0,83.0
155,41.27297818750001,43.47700062500001,49.0,69.0
156,40.92815068750001,43.52010406250001,42.0,83.0
157,43.34194318750001,43.53447187500001,54.0,79.0
158,43.68677068750001,43.81751778125001,54.0,83.0
159,43.68677068750001,44.08188553125001,59.0,83.0
160,44.03159818750001,44.49136818750001,54.0,83.0
161,44.37642568750001,44.59769000000001,59.0,82.0
162,44.72125318750001,44.84625315625001,61.0,83.0
163,43.68677068750001,44.89223015625001,47.0,83.0
164,45.06608068750001,45.22125306250001,54.0,82.0
165,45.06608068750001,45.52872425000001,63.0,84.0
166,45.41090818750001,45.57757481250001,54.0,81.0
167,45.755735687500014,45.88648278125001,54.0,83.0
168,45.755735687500014,45.97556321875001,59.0,83.0
169,45.06608068750001,46.06895400000001,47.0,88.0
170,46.44539068750001,46.99711468750001,56.0,74.0
171,46.44539068750001,47.110620406250014,52.0,72.0
172,47.13504568750001,47.52297662500001,59.0,76.0
173,47.47987318750001,47.89797653125001,52.0,69.0
174,47.82470068750001,48.27153965625001,64.0,80.0
175,48.16952818750001,48.52153959375001,52.0,68.0
176,48.514355687500014,48.64079243750001,56.0,79.0
177,48.514355687500014,48.69395334375001,59.0,82.0
178,46.79021818750001,48.72843609375001,47.0,69.0
179,46.44539068750001,48.75286137500001,40.0,81.0
180,49.20401068750001,49.38073478125001,54.0,78.0
181,49.20401068750001,49.76004503125001,63.0,83.0
182,49.54883818750001,49.92958521875001,54.0,68.0
183,49.89366568750001,50.30745868750001,61.0,82.0
184,50.23849318750001,50.425274750000014,54.0,82.0
185,50.58332068750001,50.74136662500001,54.0,77.0
186,50.58332068750001,51.00717115625001,59.0,77.0
187,50.928148187500014,51.16378031250001,54.0,70.0
188,51.272975687500015,51.41665381250001,54.0,82.0
189,51.272975687500015,51.64797559375001,63.0,82.0
190,49.20401068750001,51.682458343750014,47.0,82.0
191,51.61780318750001,51.75286062500001,54.0,81.0
192,51.96263068750001,52.14079156250001,56.0,71.0
193,52.135044437500014,52.14079156250001,56.0,76.0
194,51.96263068750001,52.46550412500001,61.0,76.0
195,51.96263068750001,52.485619062500014,49.0,76.0
196,52.65228568750001,52.96263043750001,64.0,86.0
197,52.99711318750001,53.183894750000015,56.0,77.0
198,53.34194068750001,53.74567621875001,61.0,84.0
199,53.686768187500014,53.827572750000016,56.0,71.0
200,54.031595687500015,54.25717034375001,56.0,81.0
201,54.031595687500015,54.285905968750015,61.0,83.0
202,54.376423187500016,54.60199784375001,63.0,78.0
203,54.72125068750001,55.083319562500016,59.0,77.0
204,55.06607818750001,55.30745743750001,54.0,76.0
205,55.41090568750001,55.55745737500001,54.0,80.0
206,55.41090568750001,55.844813625000015,59.0,83.0
207,55.75573318750001,55.95400900000001,54.0,72.0
208,56.100560687500014,56.603434125000014,63.0,83.0
209,56.445388187500015,56.62211228125001,54.0,78.0
210,54.72125068750001,56.82038809375001,47.0,85.0
211,56.790215687500016,56.896537500000015,54.0,85.0
212,56.790215687500016,57.02010068750001,59.0,84.0
213,57.13504318750002,57.249985687500015,54.0,82.0
214,57.47987068750001,57.92383609375001,56.0,77.0
215,57.47987068750001,57.92958321875001,59.0,80.0
216,58.16952568750001,58.298836000000016,56.0,82.0
217,58.16952568750001,58.64222671875002,63.0,82.0
218,58.514353187500014,58.69251406250002,56.0,75.0
219,58.859180687500015,59.23561737500001,59.0,70.0
220,59.204008187500015,59.38073228125001,56.0,70.0
221,59.548835687500016,59.704008062500016,56.0,82.0
222,59.548835687500016,59.79452528125002,63.0,84.0
223,57.82469818750001,59.93389306250001,51.0,75.0
224,57.47987068750001,59.94107696875001,44.0,82.0
225,59.89366318750002,60.066076937500014,56.0,61.0
226,60.23849068750001,60.92670890625001,64.0,84.0
227,60.58331818750001,60.964065218750015,56.0,77.0
228,60.92814568750001,61.35630650000002,61.0,80.0
229,61.272973187500014,61.68820296875001,56.0,82.0
230,61.617800687500015,62.10343275000002,64.0,86.0
231,61.962628187500016,62.367800500000016,56.0,84.0
232,60.23849068750001,62.56032918750002,49.0,77.0
233,62.30745568750002,62.673834906250015,63.0,88.0
234,62.65228318750002,62.80458200000002,61.0,81.0
235,62.99711068750001,63.31032900000002,54.0,74.0
236,62.99711068750001,63.39222553125001,61.0,77.0
237,62.99711068750001,63.40515656250002,57.0,68.0
238,63.686765687500014,63.99567365625001,57.0,76.0
239,63.686765687500014,64.02871962500002,61.0,79.0
240,64.03159318750002,64.46262756250002,54.0,77.0
241,64.37642068750002,64.68963900000001,66.0,84.0
242,64.72124818750001,64.93963893750002,54.0,82.0
243,65.06607568750002,65.22268484375002,54.0,85.0
244,65.06607568750002,65.50285718750001,61.0,83.0
245,63.34193818750001,65.54596062500002,49.0,69.0
246,62.99711068750001,65.58906406250001,42.0,83.0
247,65.41090318750001,65.60343187500001,54.0,79.0
248,65.75573068750002,65.88647778125002,54.0,83.0
249,65.75573068750002,66.15084553125001,59.0,83.0
250,66.10055818750001,66.56032818750002,54.0,83.0
251,66.44538568750002,66.66665000000002,59.0,82.0
252,66.79021318750002,66.91521315625002,61.0,83.0
253,65.75573068750002,66.96119015625001,47.0,83.0
254,67.13504068750001,67.50573025000001,57.0,76.0
255,67.13504068750001,67.57756931250002,61.0,82.0
256,67.13504068750001,67.58044287500002,45.0,86.0
257,67.13504068750001,67.60199459375002,64.0,82.0
258,67.47986818750002,67.64222446875002,52.0,72.0
259,67.65228193750002,67.77153478125001,57.0,86.0
260,67.99710943750001,68.23848868750001,54.0,68.0
261,67.82469568750001,68.25429328125001,47.0,89.0
262,68.16952318750002,68.38504037500002,59.0,91.0
263,68.34193693750002,68.45256909375001,63.0,91.0
264,68.51435068750001,68.89940806250002,64.0,80.0
265,68.51435068750001,68.96406321875001,59.0,80.0
266,68.51435068750001,68.97555746875001,56.0,79.0
267,69.20400568750001,69.33044243750001,59.0,93.0
268,69.20400568750001,69.33475278125002,56.0,82.0
269,69.72124693750001,69.79021243750002,64.0,77.0
270,69.72124693750001,69.79595956250002,56.0,78.0
271,69.89366068750002,70.05601696875001,56.0,81.0
272,69.89366068750002,70.05889053125001,64.0,83.0
273,70.23848818750001,70.34912034375002,56.0,77.0
274,70.58331568750002,70.71406278125002,56.0,85.0
275,68.85917818750002,70.81607425000001,47.0,70.0
276,70.58331568750002,70.83618918750001,59.0,89.0
277,68.51435068750001,70.85774090625002,40.0,85.0
278,71.27297068750002,71.43532696875002,54.0,82.0
279,71.27297068750002,71.65084415625002,59.0,80.0
280,71.61779818750001,71.78015446875001,54.0,78.0
281,71.96262568750002,72.29452215625001,63.0,86.0
282,71.96262568750002,72.31894743750001,54.0,84.0
283,72.47986693750002,72.68532665625001,64.0,83.0
284,72.65228068750002,73.00285531250002,63.0,91.0
285,71.27297068750002,73.11779781250002,47.0,85.0
286,72.99710818750002,73.21549893750002,61.0,89.0
287,73.34193568750001,73.72411950000001,59.0,84.0
288,73.34193568750001,73.76291259375002,47.0,74.0
289,73.68676318750002,73.77153328125002,54.0,76.0
290,74.03159068750001,74.21549868750002,56.0,76.0
291,74.03159068750001,74.41952162500002,61.0,75.0
292,74.37641818750002,74.49136068750002,56.0,71.0
293,74.72124568750002,74.84768243750001,56.0,84.0
294,74.72124568750002,75.09768237500002,64.0,84.0
295,74.03159068750001,75.22842946875002,49.0,84.0
296,75.06607318750002,75.42814206250002,63.0,86.0
297,75.41090068750002,75.75572818750001,61.0,83.0
298,75.75572818750001,75.91664768750002,56.0,75.0
299,76.10055568750002,76.20687750000002,56.0,82.0
300,75.41090068750002,76.30888896875001,49.0,82.0
301,76.10055568750002,76.44394640625002,64.0,84.0
302,76.44538318750001,76.53015328125002,56.0,78.0
303,76.79021068750002,76.95113018750001,54.0,79.0
304,76.79021068750002,77.18676231250002,59.0,79.0
305,77.13503818750002,77.23704965625002,54.0,72.0
306,77.47986568750002,77.66521046875002,54.0,85.0
307,77.47986568750002,77.68388862500002,63.0,86.0
308,77.82469318750002,77.96118740625002,61.0,88.0
309,76.79021068750002,78.04452071875002,47.0,84.0
310,77.99710693750002,78.12929081250002,63.0,83.0
311,78.16952068750003,78.33618731250002,54.0,75.0
312,78.16952068750003,78.57756656250002,59.0,79.0
313,78.51434818750002,78.67670446875002,54.0,81.0
314,78.85917568750001,78.98848600000002,54.0,85.0
315,78.16952068750003,78.99279634375002,47.0,87.0
316,78.85917568750001,79.19825606250002,59.0,86.0
317,78.85917568750001,79.28446293750002,63.0,93.0
318,79.20400318750002,79.29883075000002,54.0,77.0
319,79.54883068750001,79.85199153125002,59.0,82.0
320,79.54883068750001,79.85773865625002,56.0,77.0
321,79.89365818750002,80.40227875000002,51.0,69.0
322,80.23848568750002,80.53877296875002,56.0,85.0
323,80.23848568750002,80.58906031250002,63.0,88.0
324,79.54883068750001,80.81607175000002,44.0,83.0
325,80.75572693750001,80.84337059375002,56.0,82.0
326,80.58331318750002,80.86779587500001,51.0,73.0
327,80.92814068750002,81.21262337500002,56.0,83.0
328,80.92814068750002,81.27584175000003,59.0,84.0
329,81.44538193750002,81.53446237500002,56.0,78.0
330,81.61779568750002,81.86635884375002,56.0,78.0
331,81.27296818750001,81.88791056250002,51.0,71.0
332,81.61779568750002,81.96405996875002,63.0,98.0
333,80.92814068750002,82.13503693750002,44.0,83.0
334,81.96262318750001,82.13503693750002,51.0,82.0
335,82.30745068750002,82.52584143750002,56.0,79.0
336,82.30745068750002,82.76147356250002,64.0,82.0
337,82.65227818750002,82.81032412500002,56.0,70.0
338,82.30745068750002,83.08043900000003,49.0,88.0
339,82.99710568750002,83.15946196875002,56.0,83.0
340,82.99710568750002,83.21405965625001,64.0,83.0
341,83.34193318750002,83.45256534375002,63.0,93.0
342,83.51434693750002,83.69394459375002,64.0,75.0
343,83.68676068750003,83.86492156250002,59.0,72.0
344,83.68676068750003,84.07325484375002,61.0,72.0
345,84.03158818750002,84.22555365625001,56.0,84.0
346,84.37641568750001,84.56463403125002,56.0,83.0
347,84.37641568750001,84.57612828125002,61.0,83.0
348,83.68676068750003,84.73130065625001,37.0,84.0
349,84.72124318750002,84.86204775000002,59.0,86.0
350,85.06607068750002,85.46118553125002,54.0,68.0
351,85.06607068750002,85.54882918750002,57.0,74.0
352,85.75572568750002,85.90946128125002,54.0,82.0
353,85.41089818750002,85.92670265625001,49.0,72.0
354,85.75572568750002,85.98704746875002,57.0,86.0
355,85.75572568750002,86.00859918750002,61.0,85.0
356,86.27296693750002,86.33043818750002,66.0,66.0
357,86.27296693750002,86.34767956250002,54.0,77.0
358,85.92813943750002,86.46693240625002,49.0,71.0
359,86.44538068750002,86.72555303125002,66.0,82.0
360,86.44538068750002,86.73273693750002,54.0,83.0
361,86.79020818750001,87.22698968750002,49.0,77.0
362,85.06607068750002,87.34767931250002,42.0,81.0
363,87.13503568750002,87.41233446875002,54.0,83.0
364,87.13503568750002,87.41951837500002,57.0,84.0
365,87.13503568750002,87.49710456250003,61.0,84.0
366,87.47986318750002,87.56032293750002,42.0,53.0
367,87.47986318750002,87.65802406250002,49.0,82.0
368,87.82469068750002,87.96836881250002,54.0,83.0
369,87.82469068750002,88.23561012500002,59.0,84.0
370,88.16951818750002,88.31750665625002,54.0,82.0
371,88.51434568750003,88.63647209375002,54.0,86.0
372,88.51434568750003,88.86204675000002,63.0,93.0
373,88.51434568750003,88.86779387500002,59.0,88.0
374,87.82469068750002,88.97411568750002,47.0,86.0
375,88.85917318750002,89.05457543750002,54.0,83.0
376,89.20400068750003,89.55601209375003,57.0,83.0
377,89.20400068750003,89.67526493750002,61.0,83.0
378,89.20400068750003,89.70112700000003,45.0,91.0
379,89.54882818750002,89.77583962500002,52.0,77.0
380,89.72124193750003,89.83187409375002,57.0,79.0
381,89.89365568750002,90.12354068750003,54.0,80.0
382,89.89365568750002,90.41951762500003,59.0,85.0
383,90.23848318750002,90.49997737500001,54.0,83.0
384,89.89365568750002,90.51003484375002,47.0,89.0
385,90.58331068750002,90.96836806250002,64.0,80.0
386,90.58331068750002,91.03302321875002,59.0,80.0
387,90.58331068750002,91.04451746875002,56.0,79.0
388,91.27296568750002,91.39940243750002,59.0,93.0
389,91.27296568750002,91.40371278125002,56.0,82.0
390,91.79020693750002,91.85917243750002,64.0,77.0
391,91.79020693750002,91.86491956250002,56.0,78.0
392,91.96262068750002,92.12497696875002,56.0,81.0
393,91.96262068750002,92.12785053125002,64.0,83.0
394,92.30744818750003,92.41808034375002,56.0,77.0
395,92.65227568750002,92.78302278125003,56.0,85.0
396,90.92813818750002,92.88503425000002,47.0,70.0
397,92.65227568750002,92.90514918750002,59.0,89.0
398,90.58331068750002,92.92670090625002,40.0,85.0
399,93.34193068750002,93.50428696875002,54.0,82.0
400,93.34193068750002,93.71980415625002,59.0,80.0
401,93.68675818750002,93.84911446875002,54.0,78.0
402,94.03158568750003,94.36348215625003,63.0,86.0
403,94.03158568750003,94.38790743750002,54.0,84.0
404,94.54882693750002,94.75428665625002,64.0,83.0
405,94.72124068750003,95.07181531250002,63.0,91.0
406,93.34193068750002,95.18675781250002,47.0,85.0
407,95.06606818750002,95.28445893750002,61.0,89.0
408,95.41089568750002,95.79307950000002,59.0,84.0
409,95.41089568750002,95.83187259375002,47.0,74.0
410,95.75572318750002,95.84049328125002,54.0,76.0
411,96.10055068750002,96.28445868750002,56.0,76.0
412,96.10055068750002,96.48848162500002,61.0,75.0
413,96.44537818750003,96.56032068750002,56.0,71.0
414,96.79020568750002,96.91664243750002,56.0,84.0
415,96.79020568750002,97.16664237500002,64.0,84.0
416,96.10055068750002,97.29738946875003,49.0,84.0
417,97.13503318750003,97.49710206250002,63.0,86.0
418,97.47986068750002,97.82468818750003,61.0,83.0
419,97.82468818750003,97.98560768750002,56.0,75.0
420,98.16951568750002,98.27583750000002,56.0,82.0
421,97.47986068750002,98.37784896875003,49.0,82.0
422,98.16951568750002,98.51290640625002,64.0,84.0
423,98.51434318750002,98.59911328125003,56.0,78.0
424,98.85917068750003,99.02009018750002,54.0,79.0
425,98.85917068750003,99.25572231250003,59.0,79.0
426,99.20399818750002,99.30600965625003,54.0,72.0
427,99.54882568750003,99.73417046875002,54.0,85.0
428,99.54882568750003,99.75284862500003,63.0,86.0
429,99.89365318750002,100.03014740625002,61.0,88.0
430,98.85917068750003,100.11348071875003,47.0,84.0
431,100.06606693750003,100.19825081250002,63.0,83.0
432,100.23848068750003,100.40514731250002,54.0,75.0
433,100.23848068750003,100.64652656250003,59.0,79.0
434,100.58330818750002,100.74566446875002,54.0,81.0
435,100.92813568750002,101.05744600000003,54.0,85.0
436,100.23848068750003,101.06175634375002,47.0,87.0
437,100.92813568750002,101.26721606250003,59.0,86.0
438,100.92813568750002,101.35342293750003,63.0,93.0
439,101.27296318750003,101.36779075000003,54.0,77.0
440,101.61779068750002,101.92095153125003,59.0,82.0
441,101.61779068750002,101.92669865625003,56.0,77.0
442,101.96261818750003,102.47123875000003,51.0,69.0
443,102.30744568750002,102.60773296875003,56.0,85.0
444,102.30744568750002,102.65802031250003,63.0,88.0
445,101.61779068750002,102.88503175000002,44.0,83.0
446,102.82468693750002,102.91233059375003,56.0,82.0
447,102.65227318750003,102.93675587500003,51.0,73.0
448,102.99710068750002,103.28158337500003,56.0,83.0
449,102.99710068750002,103.34480175000003,59.0,84.0
450,103.51434193750002,103.60342237500002,56.0,78.0
451,103.68675568750002,103.93531884375003,56.0,78.0
452,103.34192818750003,103.95687056250003,51.0,71.0
453,103.68675568750002,104.03301996875003,63.0,98.0
454,102.99710068750002,104.20399693750002,44.0,83.0
455,104.03158318750002,104.20399693750002,51.0,82.0
456,104.37641068750003,104.59480143750002,56.0,79.0
457,104.37641068750003,104.83043356250002,64.0,82.0
458,104.72123818750002,104.87928412500003,56.0,70.0
459,104.37641068750003,105.14939900000003,49.0,88.0
460,105.06606568750003,105.22842196875003,56.0,83.0
461,105.06606568750003,105.28301965625002,64.0,83.0
462,105.41089318750002,105.52152534375003,63.0,93.0
463,105.58330693750003,105.76290459375002,64.0,75.0
464,105.75572068750003,105.93388156250002,59.0,72.0
465,105.75572068750003,106.14221484375003,61.0,72.0
466,106.10054818750002,106.29451365625002,56.0,84.0
467,106.44537568750003,106.63359403125003,56.0,83.0
468,106.44537568750003,106.64508828125003,61.0,83.0
469,105.75572068750003,106.80026065625003,37.0,84.0
470,106.79020318750003,106.93100775000002,59.0,86.0
471,107.13503068750002,107.40514556250002,61.0,82.0
472,107.13503068750002,107.91376612500002,54.0,78.0
473,107.82468568750002,108.06893850000003,66.0,82.0
474,107.47985818750003,108.21692696875003,49.0,80.0
475,107.99709943750003,108.21836375000002,61.0,77.0
476,107.13503068750002,108.29882350000003,42.0,84.0
477,108.16951318750003,108.34336371875003,57.0,82.0
478,108.34192693750002,108.44968553125003,54.0,84.0
479,108.51434068750002,108.68675443750003,54.0,82.0
480,108.51434068750002,108.94393828125003,59.0,78.0
481,108.85916818750003,109.04594975000002,54.0,79.0
482,109.20399568750003,109.36491518750003,54.0,83.0
483,108.51434068750002,109.48704159375002,47.0,83.0
484,109.54882318750002,109.66376568750003,54.0,77.0
485,109.20399568750003,109.67094959375002,59.0,83.0
486,109.20399568750003,109.68675418750003,63.0,84.0
487,109.89365068750003,110.34336321875003,56.0,76.0
488,109.89365068750003,110.57324821875002,59.0,78.0
489,110.58330568750003,110.79163896875002,64.0,88.0
490,110.75571943750002,110.98129409375002,59.0,83.0
491,110.92813318750002,111.16951243750003,56.0,78.0
492,111.10054693750003,111.20112162500003,59.0,82.0
493,109.89365068750003,111.22698368750002,40.0,83.0
494,110.23847818750002,111.23560437500002,47.0,71.0
495,111.27296068750003,111.66232840625003,56.0,80.0
496,111.27296068750003,111.72698356250002,64.0,82.0
497,111.27296068750003,111.76865021875003,59.0,84.0
498,111.96261568750003,112.07899496875002,56.0,81.0
499,111.61778818750003,112.13502943750002,47.0,77.0
500,111.27296068750003,112.19250068750003,40.0,81.0
501,111.96261568750003,112.30169606250003,59.0,85.0
502,111.96261568750003,112.30887996875002,64.0,83.0
503,112.65227068750002,113.03014415625003,56.0,78.0
504,112.65227068750002,113.06606368750003,64.0,82.0
505,112.99709818750003,113.37497165625003,59.0,80.0
506,113.34192568750002,113.69824743750003,56.0,75.0
507,114.03158068750002,114.15801743750002,56.0,83.0
508,114.03158068750002,114.17813237500003,64.0,84.0
509,114.37640818750003,114.51290240625002,56.0,76.0
510,113.68675318750003,114.84192531250002,47.0,77.0
511,114.72123568750003,114.85629312500002,56.0,78.0
512,112.65227068750002,114.87353450000003,40.0,83.0
513,114.72123568750003,114.92956896875003,59.0,83.0
514,114.72123568750003,115.11635053125002,64.0,79.0
515,115.06606318750002,115.16089075000002,56.0,66.0
516,115.41089068750003,115.59048834375002,56.0,72.0
517,115.41089068750003,115.86778712500002,61.0,75.0
518,115.75571818750002,115.98129284375003,56.0,76.0
519,116.10054568750003,116.39364906250003,64.0,85.0
520,116.44537318750002,116.60198234375002,61.0,84.0
521,115.41089068750003,116.61491337500003,49.0,81.0
522,116.79020068750003,117.01864890625002,56.0,77.0
523,117.13502818750003,117.25428103125003,56.0,83.0
524,117.47985568750003,117.59623496875003,56.0,84.0
525,116.79020068750003,117.69537287500003,49.0,79.0
526,117.47985568750003,117.74853378125003,61.0,83.0
527,117.47985568750003,117.76290159375003,64.0,83.0
528,117.82468318750003,117.89939581250003,56.0,65.0
529,118.16951068750002,118.55169450000002,57.0,64.0
530,118.16951068750002,118.57180943750002,54.0,79.0
531,118.16951068750002,118.57755656250002,61.0,78.0
532,118.85916568750002,119.04882081250003,61.0,83.0
533,118.85916568750002,119.52152184375002,54.0,84.0
534,119.37640693750002,119.61778618750003,57.0,80.0
535,119.54882068750003,119.90083209375003,66.0,86.0
536,119.89364818750003,120.02726884375002,61.0,82.0
537,118.51433818750003,120.10485503125003,49.0,68.0
538,118.16951068750002,120.13359065625004,42.0,83.0
539,120.23847568750003,120.38215381250002,54.0,80.0
540,120.23847568750003,120.55887790625003,57.0,78.0
541,120.23847568750003,120.64652156250003,61.0,82.0
542,120.23847568750003,120.70542959375003,42.0,83.0
543,120.58330318750002,120.71548706250003,54.0,80.0
544,120.92813068750003,121.04450996875003,54.0,81.0
545,120.92813068750003,121.30169381250003,59.0,80.0
546,121.27295818750002,121.42956734375002,54.0,79.0
547,121.61778568750003,122.14652118750003,54.0,82.0
548,121.61778568750003,122.18531428125003,61.0,81.0
549,120.92813068750003,122.21692346875002,47.0,84.0
550,122.30744068750003,122.46261306250003,54.0,83.0
551,122.30744068750003,122.73129115625002,63.0,84.0
552,122.65226818750003,122.82468193750003,54.0,82.0
553,122.99709568750004,123.13358990625002,59.0,86.0
554,122.99709568750004,123.15657840625003,54.0,86.0
555,122.30744068750003,123.39939443750004,47.0,84.0
556,123.34192318750003,123.54594612500003,57.0,77.0
557,123.68675068750002,124.06893450000003,56.0,82.0
558,123.68675068750002,124.26864709375003,52.0,81.0
559,124.37640568750003,124.54163553125002,56.0,82.0
560,124.37640568750003,124.56462403125003,59.0,84.0
561,124.89364693750002,124.96835956250003,56.0,83.0
562,124.89364693750002,124.96835956250003,64.0,74.0
563,125.06606068750003,125.40801462500004,64.0,82.0
564,125.06606068750003,125.46835943750003,56.0,83.0
565,125.41088818750003,125.49565828125003,52.0,59.0
566,125.75571568750003,125.89939381250004,52.0,83.0
567,124.03157818750003,126.01433631250003,47.0,69.0
568,123.68675068750002,126.04019837500003,40.0,83.0
569,125.75571568750003,126.09048571875003,56.0,83.0
570,126.10054318750004,126.14220984375002,52.0,73.0
571,126.44537068750003,126.68674993750002,56.0,73.0
572,126.44537068750003,126.89652000000002,61.0,77.0
573,126.79019818750002,126.94680734375002,56.0,74.0
574,127.13502568750003,127.23560037500003,56.0,83.0
575,127.13502568750003,127.25571531250003,64.0,85.0
576,127.65226693750003,127.72841634375003,63.0,82.0
577,127.65226693750003,127.73703703125003,56.0,74.0
578,127.82468068750003,127.98416340625003,56.0,76.0
579,127.82468068750003,128.01720937500002,63.0,84.0
580,127.99709443750002,128.16950818750004,64.0,87.0
581,128.16950818750004,128.37640468750004,63.0,86.0
582,128.34192193750002,128.55743912500003,61.0,82.0
583,128.51433568750002,128.75858850000003,59.0,88.0
584,126.44537068750003,128.78732412500003,49.0,84.0
585,129.20399068750004,129.76002503125002,61.0,80.0
586,129.72123193750002,130.11203643750002,54.0,82.0
587,129.89364568750003,130.12927781250002,57.0,79.0
588,129.54881818750002,130.41663406250004,49.0,82.0
589,129.20399068750004,130.46835818750003,42.0,83.0
590,130.23847318750003,130.48272600000004,54.0,82.0
591,130.06605943750003,130.50858806250002,61.0,84.0
592,130.58330068750004,130.73703628125003,54.0,85.0
593,130.58330068750004,130.97554196875004,59.0,82.0
594,130.92812818750002,131.11778331250002,54.0,82.0
595,131.27295568750003,131.58617400000003,63.0,91.0
596,130.58330068750004,131.62640387500002,47.0,91.0
597,131.61778318750004,131.70542684375002,59.0,82.0
598,131.96261068750002,132.31174853125003,52.0,76.0
599,131.96261068750002,132.40944965625002,56.0,74.0
600,131.96261068750002,132.53732318750002,40.0,77.0
601,132.30743818750003,132.54307031250002,47.0,81.0
602,132.65226568750003,132.78301278125002,52.0,93.0
603,133.34192068750002,133.62496659375003,64.0,84.0
604,133.51433443750003,133.73559875000004,68.0,84.0
605,133.68674818750003,133.89939181250003,71.0,83.0
606,133.85916193750003,134.09048371875002,76.0,88.0
607,134.03157568750004,134.17812737500003,71.0,82.0
608,133.16950693750005,134.46979396875003,59.0,78.0
609,132.99709318750004,134.51864453125003,52.0,83.0
610,134.37640318750005,134.65082840625004,64.0,67.0
611,134.72123068750003,135.27295468750003,56.0,74.0
612,134.72123068750003,135.38646040625002,52.0,72.0
613,135.41088568750004,135.79881662500003,59.0,76.0
614,135.75571318750002,136.17381653125003,52.0,69.0
615,136.10054068750003,136.54737965625003,64.0,80.0
616,136.44536818750004,136.79737959375004,52.0,68.0
617,136.79019568750005,136.91663243750003,56.0,79.0
618,136.79019568750005,136.96979334375004,59.0,82.0
619,135.06605818750003,137.00427609375004,47.0,69.0
620,134.72123068750003,137.02870137500003,40.0,81.0
621,137.47985068750003,137.65657478125004,54.0,78.0
622,137.47985068750003,138.03588503125005,63.0,83.0
623,137.82467818750004,138.20542521875004,54.0,68.0
624,138.16950568750002,138.58329868750002,61.0,82.0
625,138.51433318750003,138.70111475000004,54.0,82.0
626,138.85916068750004,139.01720662500003,54.0,77.0
627,138.85916068750004,139.28301115625004,59.0,77.0
628,139.20398818750004,139.43962031250004,54.0,70.0
629,139.54881568750002,139.69249381250003,54.0,82.0
630,139.54881568750002,139.92381559375002,63.0,82.0
631,137.47985068750003,139.95829834375004,47.0,82.0
632,139.89364318750003,140.02870062500003,54.0,81.0
633,140.23847068750004,140.41663156250004,56.0,71.0
634,140.41088443750004,140.41663156250004,56.0,76.0
635,140.23847068750004,140.74134412500004,61.0,76.0
636,140.23847068750004,140.76145906250002,49.0,76.0
637,140.92812568750003,141.23847043750004,64.0,86.0
638,141.27295318750004,141.45973475000002,56.0,77.0
639,141.61778068750004,142.02151621875004,61.0,84.0
640,141.96260818750002,142.10341275000005,56.0,71.0
641,142.30743568750003,142.53301034375002,56.0,81.0
642,142.30743568750003,142.56174596875005,61.0,83.0
643,142.65226318750004,142.87783784375003,63.0,78.0
644,142.99709068750005,143.35915956250003,59.0,77.0
645,143.34191818750003,143.58329743750002,54.0,76.0
646,143.68674568750004,143.83329737500003,54.0,80.0
647,143.68674568750004,144.12065362500005,59.0,83.0
648,144.03157318750004,144.22984900000003,54.0,72.0
649,144.37640068750002,144.87927412500002,63.0,83.0
650,144.72122818750003,144.89795228125004,54.0,78.0
651,142.99709068750005,145.09622809375003,47.0,85.0
652,145.06605568750004,145.17237750000004,54.0,85.0
653,145.06605568750004,145.29594068750004,59.0,84.0
654,145.41088318750005,145.52582568750003,54.0,82.0
655,145.75571068750003,146.19967609375004,56.0,77.0
656,145.75571068750003,146.20542321875004,59.0,80.0
657,146.44536568750004,146.57467600000004,56.0,82.0
658,146.44536568750004,146.91806671875003,63.0,82.0
659,146.79019318750002,146.96835406250003,56.0,75.0
660,147.13502068750003,147.51145737500005,59.0,70.0
661,147.47984818750004,147.65657228125002,56.0,70.0
662,147.82467568750005,147.97984806250003,56.0,82.0
663,147.82467568750005,148.07036528125005,63.0,84.0
664,146.10053818750004,148.20973306250002,51.0,75.0
665,145.75571068750003,148.21691696875004,44.0,82.0
666,148.16950318750003,148.34191693750003,56.0,61.0
667,148.51433068750003,149.20254890625003,64.0,84.0
668,148.85915818750004,149.23990521875004,56.0,77.0
669,149.20398568750002,149.63214650000003,61.0,80.0
670,149.54881318750003,149.96404296875002,56.0,82.0
671,149.89364068750004,150.37927275000004,64.0,86.0
672,150.23846818750005,150.64364050000003,56.0,84.0
673,148.51433068750003,150.83616918750005,49.0,77.0
674,150.58329568750003,150.94967490625004,63.0,88.0
675,150.92812318750003,151.08042200000003,61.0,81.0
676,151.27295068750004,151.58616900000004,54.0,74.0
677,151.27295068750004,151.66806553125002,61.0,77.0
678,151.27295068750004,151.68099656250004,57.0,68.0
679,151.96260568750003,152.27151365625002,57.0,76.0
680,151.96260568750003,152.30455962500002,61.0,79.0
681,152.30743318750004,152.73846756250003,54.0,77.0
682,152.65226068750005,152.96547900000004,66.0,84.0
683,152.99708818750003,153.21547893750002,54.0,82.0
684,153.34191568750003,153.49852484375003,54.0,85.0
685,153.34191568750003,153.77869718750003,61.0,83.0
686,151.61777818750002,153.82180062500004,49.0,69.0
687,151.27295068750004,153.86490406250005,42.0,83.0
688,153.68674318750004,153.87927187500003,54.0,79.0
689,154.03157068750005,154.16231778125004,54.0,83.0
690,154.03157068750005,154.42668553125003,59.0,83.0
691,154.37639818750003,154.83616818750005,54.0,83.0
692,154.72122568750004,154.94249000000005,59.0,82.0
693,155.06605318750005,155.19105315625004,61.0,83.0
694,154.03157068750005,155.23703015625003,47.0,83.0
695,155.41088068750003,155.78157025000004,57.0,76.0
696,155.41088068750003,155.85340931250005,61.0,82.0
697,155.41088068750003,155.85628287500003,45.0,86.0
698,155.41088068750003,155.87783459375004,64.0,82.0
699,155.75570818750003,155.91806446875003,52.0,72.0
700,155.92812193750004,156.04737478125003,57.0,86.0
701,156.27294943750005,156.51432868750004,54.0,68.0
702,156.10053568750004,156.53013328125004,47.0,89.0
703,156.44536318750005,156.66088037500003,59.0,91.0
704,156.61777693750003,156.72840909375003,63.0,91.0
705,156.79019068750003,157.17524806250003,64.0,80.0
706,156.79019068750003,157.23990321875004,59.0,80.0
707,156.79019068750003,157.25139746875004,56.0,79.0
708,157.47984568750005,157.60628243750003,59.0,93.0
709,157.47984568750005,157.61059278125003,56.0,82.0
710,157.99708693750003,158.06605243750005,64.0,77.0
711,157.99708693750003,158.07179956250005,56.0,78.0
712,158.16950068750003,158.33185696875003,56.0,81.0
713,158.16950068750003,158.33473053125005,64.0,83.0
714,158.51432818750004,158.62496034375005,56.0,77.0
715,158.85915568750005,158.98990278125004,56.0,85.0
716,157.13501818750004,159.09191425000003,47.0,70.0
717,158.85915568750005,159.11202918750004,59.0,89.0
718,156.79019068750003,159.13358090625005,40.0,85.0
719,159.54881068750004,159.71116696875004,54.0,82.0
720,159.54881068750004,159.92668415625005,59.0,80.0
721,159.89363818750004,160.05599446875004,54.0,78.0
722,160.23846568750002,160.57036215625004,63.0,86.0
723,160.23846568750002,160.59478743750003,54.0,84.0
724,160.75570693750004,160.96116665625004,64.0,83.0
725,160.92812068750004,161.27869531250005,63.0,91.0
726,159.54881068750004,161.39363781250003,47.0,85.0
727,161.27294818750005,161.49133893750005,61.0,89.0
728,161.61777568750003,161.99995950000005,59.0,84.0
729,161.61777568750003,162.03875259375005,47.0,74.0
730,161.96260318750004,162.04737328125003,54.0,76.0
731,162.30743068750004,162.49133868750005,56.0,76.0
732,162.30743068750004,162.69536162500003,61.0,75.0
733,162.65225818750005,162.76720068750004,56.0,71.0
734,162.99708568750003,163.12352243750004,56.0,84.0
735,162.99708568750003,163.37352237500005,64.0,84.0
736,162.30743068750004,163.50426946875004,49.0,84.0
737,163.34191318750004,163.70398206250005,63.0,86.0
738,163.68674068750005,164.03156818750003,61.0,83.0
739,164.03156818750003,164.19248768750003,56.0,75.0
740,164.37639568750004,164.48271750000004,56.0,82.0
741,163.68674068750005,164.58472896875003,49.0,82.0
742,164.37639568750004,164.71978640625005,64.0,84.0
743,164.72122318750004,164.80599328125004,56.0,78.0
744,165.06605068750005,165.22697018750003,54.0,79.0
745,165.06605068750005,165.46260231250005,59.0,79.0
746,165.41087818750003,165.51288965625005,54.0,72.0
747,165.75570568750004,165.94105046875003,54.0,85.0
748,165.75570568750004,165.95972862500003,63.0,86.0
749,166.10053318750005,166.23702740625004,61.0,88.0
750,165.06605068750005,166.32036071875004,47.0,84.0
751,166.27294693750005,166.40513081250003,63.0,83.0
752,166.44536068750003,166.61202731250003,54.0,75.0
753,166.44536068750003,166.85340656250003,59.0,79.0
754,166.79018818750004,166.95254446875003,54.0,81.0
755,167.13501568750004,167.26432600000004,54.0,85.0
756,166.44536068750003,167.26863634375005,47.0,87.0
757,167.13501568750004,167.47409606250005,59.0,86.0
758,167.13501568750004,167.56030293750004,63.0,93.0
759,167.47984318750005,167.57467075000005,54.0,77.0
760,167.82467068750003,168.12783153125005,59.0,82.0
761,167.82467068750003,168.13357865625005,56.0,77.0
762,168.16949818750004,168.67811875000004,51.0,69.0
763,168.51432568750005,168.81461296875003,56.0,85.0
764,168.51432568750005,168.86490031250003,63.0,88.0
765,167.82467068750003,169.09191175000004,44.0,83.0
766,169.03156693750003,169.11921059375004,56.0,82.0
767,168.85915318750003,169.14363587500003,51.0,73.0
768,169.20398068750004,169.48846337500004,56.0,83.0
769,169.20398068750004,169.55168175000003,59.0,84.0
770,169.72122193750005,169.81030237500005,56.0,78.0
771,169.89363568750005,170.14219884375004,56.0,78.0
772,169.54880818750004,170.16375056250004,51.0,71.0
773,169.89363568750005,170.23989996875005,63.0,98.0
774,169.20398068750004,170.41087693750003,44.0,83.0
775,170.23846318750003,170.41087693750003,51.0,82.0
776,170.58329068750004,170.80168143750004,56.0,79.0
777,170.58329068750004,171.03731356250003,64.0,82.0
778,170.92811818750005,171.08616412500004,56.0,70.0
779,170.58329068750004,171.35627900000003,49.0,88.0
780,171.27294568750003,171.43530196875005,56.0,83.0
781,171.27294568750003,171.48989965625003,64.0,83.0
782,171.61777318750003,171.72840534375004,63.0,93.0
783,171.79018693750004,171.96978459375003,64.0,75.0
784,171.96260068750004,172.14076156250005,59.0,72.0
785,171.96260068750004,172.34909484375004,61.0,72.0
786,172.30742818750005,172.50139365625003,56.0,84.0
787,172.65225568750003,172.84047403125004,56.0,83.0
788,172.65225568750003,172.85196828125004,61.0,83.0
789,171.96260068750004,173.00714065625004,37.0,84.0
790,172.99708318750004,173.13788775000003,59.0,86.0
791,173.34191068750005,173.73702553125005,54.0,68.0
792,173.34191068750005,173.82466918750004,57.0,74.0
793,174.03156568750003,174.18530128125005,54.0,82.0
794,173.68673818750005,174.20254265625005,49.0,72.0
795,174.03156568750003,174.26288746875005,57.0,86.0
796,174.03156568750003,174.28443918750006,61.0,85.0
797,174.54880693750005,174.60627818750004,66.0,66.0
798,174.54880693750005,174.62351956250004,54.0,77.0
799,174.20397943750004,174.74277240625005,49.0,71.0
800,174.72122068750005,175.00139303125005,66.0,82.0
801,174.72122068750005,175.00857693750004,54.0,83.0
802,175.06604818750003,175.50282968750005,49.0,77.0
803,173.34191068750005,175.62351931250004,42.0,81.0
804,175.41087568750004,175.68817446875005,54.0,83.0
805,175.41087568750004,175.69535837500004,57.0,84.0
806,175.41087568750004,175.77294456250004,61.0,84.0
807,175.75570318750005,175.83616293750003,42.0,53.0
808,175.75570318750005,175.93386406250005,49.0,82.0
809,176.10053068750005,176.24420881250003,54.0,83.0
810,176.10053068750005,176.51145012500004,59.0,84.0
811,176.44535818750003,176.59334665625005,54.0,82.0
812,176.79018568750004,176.91231209375005,54.0,86.0
813,176.79018568750004,177.13788675000004,63.0,93.0
814,176.79018568750004,177.14363387500003,59.0,88.0
815,176.10053068750005,177.24995568750003,47.0,86.0
816,177.13501318750005,177.33041543750005,54.0,83.0
817,177.47984068750003,177.83185209375003,57.0,83.0
818,177.47984068750003,177.95110493750005,61.0,83.0
819,177.47984068750003,177.97696700000003,45.0,91.0
820,177.82466818750004,178.05167962500005,52.0,77.0
821,177.99708193750004,178.10771409375005,57.0,79.0
822,178.16949568750005,178.39938068750004,54.0,80.0
823,178.16949568750005,178.69535762500004,59.0,85.0
824,178.51432318750005,178.77581737500003,54.0,83.0
825,178.16949568750005,178.78587484375004,47.0,89.0
826,178.85915068750003,179.24420806250004,64.0,80.0
827,178.85915068750003,179.30886321875005,59.0,80.0
828,178.85915068750003,179.32035746875005,56.0,79.0
829,179.54880568750005,179.67524243750003,59.0,93.0
830,179.54880568750005,179.67955278125004,56.0,82.0
831,180.06604693750003,180.13501243750005,64.0,77.0
832,180.06604693750003,180.14075956250005,56.0,78.0
833,180.23846068750004,180.40081696875004,56.0,81.0
834,180.23846068750004,180.40369053125005,64.0,83.0
835,180.58328818750005,180.69392034375005,56.0,77.0
836,180.92811568750005,181.05886278125004,56.0,85.0
837,179.20397818750004,181.16087425000003,47.0,70.0
838,180.92811568750005,181.18098918750005,59.0,89.0
839,178.85915068750003,181.20254090625005,40.0,85.0
840,181.61777068750004,181.78012696875004,54.0,82.0
841,181.61777068750004,181.99564415625005,59.0,80.0
842,181.96259818750005,182.12495446875005,54.0,78.0
843,182.30742568750006,182.63932215625005,63.0,86.0
844,182.30742568750006,182.66374743750004,54.0,84.0
845,182.82466693750004,183.03012665625005,64.0,83.0
846,182.99708068750004,183.34765531250005,63.0,91.0
847,181.61777068750004,183.46259781250004,47.0,85.0
848,183.34190818750005,183.56029893750005,61.0,89.0
849,183.68673568750003,184.06891950000005,59.0,84.0
850,183.68673568750003,184.10771259375005,47.0,74.0
851,184.03156318750004,184.11633328125004,54.0,76.0
852,184.37639068750005,184.56029868750005,56.0,76.0
853,184.37639068750005,184.76432162500004,61.0,75.0
854,184.72121818750006,184.83616068750004,56.0,71.0
855,185.06604568750004,185.19248243750005,56.0,84.0
856,185.06604568750004,185.44248237500005,64.0,84.0
857,184.37639068750005,185.57322946875004,49.0,84.0
858,185.41087318750004,185.77294206250005,63.0,86.0
859,185.75570068750005,186.10052818750003,61.0,83.0
860,186.10052818750003,186.26144768750004,56.0,75.0
861,186.44535568750004,186.55167750000004,56.0,82.0
862,185.75570068750005,186.65368896875003,49.0,82.0
863,186.44535568750004,186.78874640625006,64.0,84.0
864,186.79018318750005,186.87495328125004,56.0,78.0
865,187.13501068750006,187.29593018750003,54.0,79.0
866,187.13501068750006,187.53156231250006,59.0,79.0
867,187.47983818750004,187.58184965625006,54.0,72.0
868,187.82466568750004,188.01001046875004,54.0,85.0
869,187.82466568750004,188.02868862500006,63.0,86.0
870,188.16949318750005,188.30598740625004,61.0,88.0
871,187.13501068750006,188.38932071875004,47.0,84.0
872,188.34190693750006,188.47409081250004,63.0,83.0
873,188.51432068750003,188.68098731250004,54.0,75.0
874,188.51432068750003,188.92236656250003,59.0,79.0
875,188.85914818750004,189.02150446875004,54.0,81.0
876,189.20397568750005,189.33328600000004,54.0,85.0
877,188.51432068750003,189.33759634375005,47.0,87.0
878,189.20397568750005,189.54305606250006,59.0,86.0
879,189.20397568750005,189.62926293750004,63.0,93.0
880,189.54880318750006,189.64363075000006,54.0,77.0
881,189.89363068750004,190.19679153125006,59.0,82.0
882,189.89363068750004,190.20253865625006,56.0,77.0
883,190.23845818750004,190.74707875000004,51.0,69.0
884,190.58328568750005,190.88357296875006,56.0,85.0
885,190.58328568750005,190.93386031250006,63.0,88.0
886,189.89363068750004,191.16087175000004,44.0,83.0
887,191.10052693750004,191.18817059375004,56.0,82.0
888,190.92811318750003,191.21259587500003,51.0,73.0
889,191.27294068750004,191.55742337500004,56.0,83.0
890,191.27294068750004,191.62064175000003,59.0,84.0
891,191.79018193750005,191.87926237500005,56.0,78.0
892,191.96259568750006,192.21115884375004,56.0,78.0
893,191.61776818750005,192.23271056250005,51.0,71.0
894,191.96259568750006,192.30885996875006,63.0,98.0
895,191.27294068750004,192.47983693750004,44.0,83.0
896,192.30742318750004,192.47983693750004,51.0,82.0
897,192.65225068750004,192.87064143750004,56.0,79.0
898,192.65225068750004,193.10627356250004,64.0,82.0
899,192.99707818750005,193.15512412500004,56.0,70.0
900,192.65225068750004,193.42523900000003,49.0,88.0
901,193.34190568750006,193.50426196875006,56.0,83.0
902,193.34190568750006,193.55885965625004,64.0,83.0
903,193.68673318750004,193.79736534375004,63.0,93.0
904,193.85914693750004,194.03874459375004,64.0,75.0
905,194.03156068750005,194.20972156250005,59.0,72.0
906,194.03156068750005,194.41805484375004,61.0,72.0
907,194.37638818750005,194.57035365625003,56.0,84.0
908,194.72121568750003,194.90943403125004,56.0,83.0
909,194.72121568750003,194.92092828125004,61.0,83.0
910,194.03156068750005,195.07610065625005,37.0,84.0
911,195.06604318750004,195.20684775000004,59.0,86.0
912,195.41087068750005,195.68098556250004,61.0,82.0
913,195.41087068750005,196.18960612500004,54.0,78.0
914,196.10052568750004,196.34477850000005,66.0,82.0
915,195.75569818750006,196.49276696875003,49.0,80.0
916,196.27293943750004,196.49420375000005,61.0,77.0
917,195.41087068750005,196.57466350000004,42.0,84.0
918,196.44535318750005,196.61920371875004,57.0,82.0
919,196.61776693750005,196.72552553125004,54.0,84.0
920,196.79018068750005,196.96259443750006,54.0,82.0
921,196.79018068750005,197.21977828125006,59.0,78.0
922,197.13500818750003,197.32178975000005,54.0,79.0
923,197.47983568750004,197.64075518750005,54.0,83.0
924,196.79018068750005,197.76288159375005,47.0,83.0
925,197.82466318750005,197.93960568750003,54.0,77.0
926,197.47983568750004,197.94678959375005,59.0,83.0
927,197.47983568750004,197.96259418750006,63.0,84.0
928,198.16949068750006,198.61920321875004,56.0,76.0
929,198.16949068750006,198.84908821875004,59.0,78.0
930,198.85914568750005,199.06747896875004,64.0,88.0
931,199.03155943750005,199.25713409375004,59.0,83.0
932,199.20397318750005,199.44535243750005,56.0,78.0
933,199.37638693750006,199.47696162500006,59.0,82.0
934,198.16949068750006,199.50282368750004,40.0,83.0
935,198.51431818750004,199.51144437500005,47.0,71.0
936,199.54880068750003,199.93816840625004,56.0,80.0
937,199.54880068750003,200.00282356250005,64.0,82.0
938,199.54880068750003,200.04449021875004,59.0,84.0
939,200.23845568750005,200.35483496875005,56.0,81.0
940,199.89362818750004,200.41086943750005,47.0,77.0
941,199.54880068750003,200.46834068750005,40.0,81.0
942,200.23845568750005,200.57753606250006,59.0,85.0
943,200.23845568750005,200.58471996875005,64.0,83.0
944,200.92811068750004,201.19822556250006,57.0,74.0
945,200.92811068750004,201.20540946875005,61.0,81.0
946,200.92811068750004,201.22121406250005,52.0,73.0
947,200.92811068750004,201.22552440625006,45.0,89.0
948,201.27293818750005,201.42092665625006,57.0,83.0
949,201.27293818750005,201.42954734375004,45.0,87.0
950,201.27293818750005,201.42954734375004,52.0,82.0
951,201.27293818750005,201.43098412500004,61.0,85.0
952,202.30742068750004,202.77150103125004,61.0,82.0
953,202.30742068750004,202.80598378125003,57.0,82.0
954,202.30742068750004,202.81029412500004,52.0,80.0
955,202.30742068750004,203.14219059375006,45.0,89.0
956,202.99707568750006,203.15655840625004,52.0,85.0
957,202.99707568750006,203.31316756250004,57.0,87.0
958,202.99707568750006,203.56891462500005,64.0,84.0
959,203.68673068750005,203.93673062500005,54.0,74.0
960,203.68673068750005,204.12782253125005,59.0,76.0
961,204.03155818750005,204.20109837500004,54.0,85.0
962,204.37638568750006,204.50425921875004,54.0,84.0
963,204.37638568750006,204.69966146875004,63.0,87.0
964,204.89362693750004,204.96546600000005,61.0,76.0
965,204.89362693750004,204.96833956250006,54.0,82.0
966,205.06604068750005,205.22839696875005,54.0,83.0
967,205.06604068750005,205.31460384375004,61.0,84.0
968,205.41086818750006,205.58902906250006,54.0,83.0
969,203.68673068750005,205.68098306250005,47.0,83.0
970,205.75569568750004,205.90081059375004,54.0,84.0
971,205.75569568750004,206.22983350000004,59.0,82.0
972,205.75569568750004,206.37207484375006,47.0,89.0
973,206.10052318750004,206.38931621875005,54.0,85.0
974,206.44535068750005,206.62925868750006,56.0,76.0
975,206.44535068750005,206.83328162500004,61.0,75.0
976,206.79017818750006,206.90512068750004,56.0,71.0
977,207.13500568750004,207.26144243750005,56.0,84.0
978,207.13500568750004,207.51144237500006,64.0,84.0
979,206.44535068750005,207.64218946875005,49.0,84.0
980,207.47983318750005,207.84190206250005,63.0,86.0
981,207.82466068750006,208.16948818750004,61.0,83.0
982,208.16948818750004,208.33040768750004,56.0,75.0
983,208.51431568750004,208.62063750000004,56.0,82.0
984,207.82466068750006,208.72264896875004,49.0,82.0
985,208.51431568750004,208.85770640625006,64.0,84.0
986,208.85914318750005,208.94391328125005,56.0,78.0
987,209.20397068750006,209.36489018750004,54.0,79.0
988,209.20397068750006,209.60052231250006,59.0,79.0
989,209.54879818750004,209.65080965625006,54.0,72.0
990,209.89362568750005,210.07897046875004,54.0,85.0
991,209.89362568750005,210.09764862500006,63.0,86.0
992,210.23845318750006,210.37494740625004,61.0,88.0
993,209.20397068750006,210.45828071875005,47.0,84.0
994,210.41086693750006,210.54305081250004,63.0,83.0
995,210.58328068750004,210.74994731250004,54.0,75.0
996,210.58328068750004,210.99132656250006,59.0,79.0
997,210.92810818750004,211.09046446875004,54.0,81.0
998,211.27293568750005,211.40224600000005,54.0,85.0
999,210.58328068750004,211.40655634375005,47.0,87.0
1000,211.27293568750005,211.61201606250006,59.0,86.0
1001,211.27293568750005,211.69822293750005,63.0,93.0
1002,211.61776318750006,211.71259075000006,54.0,77.0
1003,211.96259068750004,212.26575153125006,59.0,82.0
1004,211.96259068750004,212.27149865625006,56.0,77.0
1005,212.30741818750005,212.81603875000005,51.0,69.0
1006,212.65224568750006,212.95253296875006,56.0,85.0
1007,212.65224568750006,213.00282031250006,63.0,88.0
1008,211.96259068750004,213.22983175000005,44.0,83.0
1009,213.16948693750004,213.25713059375005,56.0,82.0
1010,212.99707318750006,213.28155587500004,51.0,73.0
1011,213.34190068750004,213.62638337500005,56.0,83.0
1012,213.34190068750004,213.68960175000004,59.0,84.0
1013,213.85914193750006,213.94822237500006,56.0,78.0
1014,214.03155568750006,214.28011884375005,56.0,78.0
1015,213.68672818750005,214.30167056250005,51.0,71.0
1016,214.03155568750006,214.37781996875006,63.0,98.0
1017,213.34190068750004,214.54879693750004,44.0,83.0
1018,214.37638318750004,214.54879693750004,51.0,82.0
1019,214.72121068750005,214.93960143750004,56.0,79.0
1020,214.72121068750005,215.17523356250004,64.0,82.0
1021,215.06603818750006,215.22408412500005,56.0,70.0
1022,214.72121068750005,215.49419900000004,49.0,88.0
1023,215.41086568750006,215.57322196875006,56.0,83.0
1024,215.41086568750006,215.62781965625004,64.0,83.0
1025,215.75569318750004,215.86632534375005,63.0,93.0
1026,215.92810693750005,216.10770459375004,64.0,75.0
1027,216.10052068750005,216.27868156250005,59.0,72.0
1028,216.10052068750005,216.48701484375005,61.0,72.0
1029,216.44534818750006,216.63931365625004,56.0,84.0
1030,216.79017568750004,216.97839403125005,56.0,83.0
1031,216.79017568750004,216.98988828125005,61.0,83.0
1032,216.10052068750005,217.14506065625005,37.0,84.0
1033,217.13500318750005,217.27580775000004,59.0,86.0
1034,217.47983068750005,217.87494553125006,54.0,68.0
1035,217.47983068750005,217.96258918750004,57.0,74.0
1036,218.16948568750004,218.32322128125006,54.0,82.0
1037,217.82465818750006,218.34046265625005,49.0,72.0
1038,218.16948568750004,218.40080746875006,57.0,86.0
1039,218.16948568750004,218.42235918750006,61.0,85.0
1040,218.68672693750005,218.74419818750005,66.0,66.0
1041,218.68672693750005,218.76143956250004,54.0,77.0
1042,218.34189943750005,218.88069240625006,49.0,71.0
1043,218.85914068750006,219.13931303125005,66.0,82.0
1044,218.85914068750006,219.14649693750005,54.0,83.0
1045,219.20396818750004,219.64074968750006,49.0,77.0
1046,217.47983068750005,219.76143931250004,42.0,81.0
1047,219.54879568750005,219.82609446875006,54.0,83.0
1048,219.54879568750005,219.83327837500005,57.0,84.0
1049,219.54879568750005,219.91086456250005,61.0,84.0
1050,219.89362318750005,219.97408293750004,42.0,53.0
1051,219.89362318750005,220.07178406250006,49.0,82.0
1052,220.23845068750006,220.38212881250004,54.0,83.0
1053,220.23845068750006,220.64937012500005,59.0,84.0
1054,220.58327818750004,220.73126665625006,54.0,82.0
1055,220.92810568750005,221.05023209375005,54.0,86.0
1056,220.92810568750005,221.27580675000004,63.0,93.0
1057,220.92810568750005,221.28155387500004,59.0,88.0
1058,220.23845068750006,221.38787568750004,47.0,86.0
1059,221.27293318750006,221.46833543750006,54.0,83.0
1060,221.61776068750007,221.96977209375007,57.0,83.0
1061,221.61776068750007,222.08902493750006,61.0,83.0
1062,221.61776068750007,222.11488700000004,45.0,91.0
1063,221.96258818750005,222.18959962500006,52.0,77.0
1064,222.13500193750005,222.24563409375006,57.0,79.0
1065,222.30741568750005,222.53730068750005,54.0,80.0
1066,222.30741568750005,222.83327762500005,59.0,85.0
1067,222.65224318750006,222.91373737500004,54.0,83.0
1068,222.30741568750005,222.92379484375004,47.0,89.0
1069,222.99707068750004,223.38212806250004,64.0,80.0
1070,222.99707068750004,223.44678321875006,59.0,80.0
1071,222.99707068750004,223.45827746875005,56.0,79.0
1072,223.68672568750006,223.81316243750004,59.0,93.0
1073,223.68672568750006,223.81747278125005,56.0,82.0
1074,224.20396693750004,224.27293243750006,64.0,77.0
1075,224.20396693750004,224.27867956250006,56.0,78.0
1076,224.37638068750005,224.53873696875004,56.0,81.0
1077,224.37638068750005,224.54161053125006,64.0,83.0
1078,224.72120818750005,224.83184034375006,56.0,77.0
1079,225.06603568750006,225.19678278125005,56.0,85.0
1080,223.34189818750005,225.29879425000004,47.0,70.0
1081,225.06603568750006,225.31890918750005,59.0,89.0
1082,222.99707068750004,225.34046090625006,40.0,85.0
1083,225.75569068750005,225.91804696875005,54.0,82.0
1084,225.75569068750005,226.13356415625006,59.0,80.0
1085,226.10051818750006,226.26287446875006,54.0,78.0
1086,226.44534568750007,226.77724215625005,63.0,86.0
1087,226.44534568750007,226.80166743750004,54.0,84.0
1088,226.96258693750005,227.16804665625006,64.0,83.0
1089,227.13500068750005,227.48557531250006,63.0,91.0
1090,225.75569068750005,227.60051781250004,47.0,85.0
1091,227.47982818750006,227.69821893750006,61.0,89.0
1092,227.82465568750004,228.20683950000006,59.0,84.0
1093,227.82465568750004,228.24563259375006,47.0,74.0
1094,228.16948318750005,228.25425328125004,54.0,76.0
1095,228.51431068750006,228.69821868750006,56.0,76.0
1096,228.51431068750006,228.90224162500004,61.0,75.0
1097,228.85913818750006,228.97408068750005,56.0,71.0
1098,229.20396568750004,229.33040243750006,56.0,84.0
1099,229.20396568750004,229.58040237500006,64.0,84.0
1100,228.51431068750006,229.71114946875005,49.0,84.0
1101,229.54879318750005,229.91086206250006,63.0,86.0
1102,229.89362068750006,230.23844818750007,61.0,83.0
1103,230.23844818750007,230.39936768750005,56.0,75.0
1104,230.58327568750005,230.68959750000005,56.0,82.0
1105,229.89362068750006,230.79160896875007,49.0,82.0
1106,230.58327568750005,230.92666640625006,64.0,84.0
1107,230.92810318750006,231.01287328125005,56.0,78.0
1108,231.27293068750006,231.43385018750004,54.0,79.0
1109,231.27293068750006,231.66948231250007,59.0,79.0
1110,231.61775818750004,231.71976965625007,54.0,72.0
1111,231.96258568750005,232.14793046875005,54.0,85.0
1112,231.96258568750005,232.16660862500007,63.0,86.0
1113,232.30741318750006,232.44390740625005,61.0,88.0
1114,231.27293068750006,232.52724071875005,47.0,84.0
1115,232.47982693750006,232.61201081250005,63.0,83.0
1116,232.65224068750007,232.81890731250004,54.0,75.0
1117,232.65224068750007,233.06028656250007,59.0,79.0
1118,232.99706818750005,233.15942446875005,54.0,81.0
1119,233.34189568750006,233.47120600000005,54.0,85.0
1120,232.65224068750007,233.47551634375006,47.0,87.0
1121,233.34189568750006,233.68097606250006,59.0,86.0
1122,233.34189568750006,233.76718293750005,63.0,93.0
1123,233.68672318750006,233.78155075000006,54.0,77.0
1124,234.03155068750004,234.33471153125006,59.0,82.0
1125,234.03155068750004,234.34045865625006,56.0,77.0
1126,234.37637818750005,234.88499875000005,51.0,69.0
1127,234.72120568750006,235.02149296875007,56.0,85.0
1128,234.72120568750006,235.07178031250007,63.0,88.0
1129,234.03155068750004,235.29879175000005,44.0,83.0
1130,235.23844693750004,235.32609059375005,56.0,82.0
1131,235.06603318750007,235.35051587500004,51.0,73.0
1132,235.41086068750005,235.69534337500005,56.0,83.0
1133,235.41086068750005,235.75856175000007,59.0,84.0
1134,235.92810193750006,236.01718237500006,56.0,78.0
1135,236.10051568750006,236.34907884375005,56.0,78.0
1136,235.75568818750006,236.37063056250005,51.0,71.0
1137,236.10051568750006,236.44677996875006,63.0,98.0
1138,235.41086068750005,236.61775693750005,44.0,83.0
1139,236.44534318750004,236.61775693750005,51.0,82.0
1140,236.79017068750005,237.00856143750005,56.0,79.0
1141,236.79017068750005,237.24419356250004,64.0,82.0
1142,237.13499818750006,237.29304412500005,56.0,70.0
1143,236.79017068750005,237.56315900000007,49.0,88.0
1144,237.47982568750007,237.64218196875007,56.0,83.0
1145,237.47982568750007,237.69677965625004,64.0,83.0
1146,237.82465318750005,237.93528534375005,63.0,93.0
1147,237.99706693750005,238.17666459375005,64.0,75.0
1148,238.16948068750006,238.34764156250006,59.0,72.0
1149,238.16948068750006,238.55597484375005,61.0,72.0
1150,238.51430818750006,238.70827365625004,56.0,84.0
1151,238.85913568750004,239.04735403125005,56.0,83.0
1152,238.85913568750004,239.05884828125005,61.0,83.0
1153,238.16948068750006,239.21402065625006,37.0,84.0
1154,239.20396318750005,239.34476775000005,59.0,86.0
1155,239.54879068750006,239.81890556250005,61.0,82.0
1156,239.54879068750006,240.32752612500005,54.0,78.0
1157,240.23844568750005,240.48269850000005,66.0,82.0
1158,239.89361818750007,240.63068696875007,49.0,80.0
1159,240.41085943750005,240.63212375000006,61.0,77.0
1160,239.54879068750006,240.71258350000005,42.0,84.0
1161,240.58327318750005,240.75712371875005,57.0,82.0
1162,240.75568693750006,240.86344553125005,54.0,84.0
1163,240.92810068750006,241.10051443750007,54.0,82.0
1164,240.92810068750006,241.35769828125007,59.0,78.0
1165,241.27292818750007,241.45970975000006,54.0,79.0
1166,241.61775568750005,241.77867518750006,54.0,83.0
1167,240.92810068750006,241.90080159375006,47.0,83.0
1168,241.96258318750006,242.07752568750007,54.0,77.0
1169,241.61775568750005,242.08470959375006,59.0,83.0
1170,241.61775568750005,242.10051418750007,63.0,84.0
1171,242.30741068750007,242.75712321875005,56.0,76.0
1172,242.30741068750007,242.98700821875005,59.0,78.0
1173,242.99706568750005,243.20539896875005,64.0,88.0
1174,243.16947943750006,243.39505409375005,59.0,83.0
1175,243.34189318750006,243.58327243750006,56.0,78.0
1176,243.51430693750007,243.61488162500007,59.0,82.0
1177,242.30741068750007,243.64074368750005,40.0,83.0
1178,242.65223818750005,243.64936437500006,47.0,71.0
1179,243.68672068750007,244.07608840625005,56.0,80.0
1180,243.68672068750007,244.14074356250006,64.0,82.0
1181,243.68672068750007,244.18241021875005,59.0,84.0
1182,244.37637568750006,244.49275496875006,56.0,81.0
1183,244.03154818750005,244.54878943750006,47.0,77.0
1184,243.68672068750007,244.60626068750005,40.0,81.0
1185,244.37637568750006,244.71545606250007,59.0,85.0
1186,244.37637568750006,244.72263996875006,64.0,83.0
1187,245.06603068750005,245.48413403125005,52.0,78.0
1188,245.06603068750005,245.61775468750005,56.0,80.0
1189,245.75568568750006,245.98844425000007,52.0,82.0
1190,246.10051318750007,246.35913381250006,54.0,88.0
1191,246.44534068750005,246.55022571875006,56.0,91.0
1192,247.13499568750007,247.34907609375006,52.0,76.0
1193,247.13499568750007,247.36775425000005,56.0,82.0
1194,247.13499568750007,247.44821400000006,59.0,81.0
1195,245.06603068750005,247.57752431250006,40.0,82.0
1196,245.41085818750005,247.58758178125007,47.0,76.0
1197,247.82465068750005,248.05740925000006,56.0,75.0
1198,247.82465068750005,248.28729425000006,61.0,75.0
1199,248.16947818750006,248.56028268750006,56.0,80.0
1200,248.51430568750007,248.88786881250005,61.0,84.0
1201,248.85913318750005,248.97982281250006,56.0,74.0
1202,249.20396068750006,249.35482271875006,56.0,79.0
1203,249.54878818750007,249.79447778125007,56.0,70.0
1204,249.20396068750006,249.82177662500007,64.0,83.0
1205,247.82465068750005,250.00712140625006,49.0,79.0
1206,249.89361568750007,250.03442025000007,63.0,87.0
1207,250.58327068750006,251.21976478125006,61.0,79.0
1208,250.58327068750006,251.36631646875006,54.0,77.0
1209,251.27292568750005,251.66516696875007,57.0,86.0
1210,251.61775318750006,251.99418987500005,61.0,82.0
1211,251.96258068750006,252.33327025000006,66.0,83.0
1212,252.30740818750007,252.52867250000006,61.0,78.0
1213,252.65223568750005,253.00855743750006,54.0,84.0
1214,250.92809818750007,253.18528153125007,49.0,76.0
1215,250.58327068750006,253.19677578125007,42.0,83.0
1216,253.34189068750007,253.61487912500007,54.0,78.0
1217,253.34189068750007,254.05309740625006,59.0,80.0
1218,254.03154568750006,254.40079846875005,54.0,85.0
1219,254.37637318750006,254.48700534375007,61.0,85.0
1220,254.72120068750007,254.86487881250005,54.0,87.0
1221,254.72120068750007,255.15079828125005,63.0,87.0
1222,255.06602818750005,255.27148790625006,54.0,82.0
1223,255.41085568750006,255.62206253125007,59.0,85.0
1224,253.34189068750007,255.63355678125006,47.0,85.0
1225,253.68671818750005,255.65223493750005,51.0,78.0
1226,255.75568318750007,255.88355671875007,57.0,88.0
1227,256.10051068750005,256.81171740625007,56.0,82.0
1228,256.10051068750005,256.8548208437501,52.0,78.0
1229,256.79016568750006,257.20395868750006,59.0,79.0
1230,257.1349931875001,257.53298159375004,56.0,82.0
1231,257.4798206875001,258.01142975000005,64.0,84.0
1232,257.8246481875001,258.2168894687501,59.0,82.0
1233,258.16947568750004,258.48269400000004,56.0,83.0
1234,256.44533818750006,258.48844112500007,47.0,77.0
1235,256.10051068750005,258.48987790625006,40.0,82.0
1236,258.51430318750005,258.59476293750004,52.0,84.0
1237,258.85913068750006,259.05165937500004,56.0,68.0
1238,259.20395818750006,259.6019465937501,56.0,78.0
1239,258.85913068750006,259.61918796875005,61.0,76.0
1240,259.8936131875001,260.2384406875001,56.0,77.0
1241,259.5487856875001,260.28010734375005,64.0,82.0
1242,260.2384406875001,260.7872911250001,63.0,84.0
1243,260.58326818750004,260.9553945312501,56.0,78.0
1244,258.85913068750006,261.0430381875001,49.0,84.0
1245,260.92809568750005,261.08614162500004,61.0,83.0
1246,261.61775068750006,262.21401490625004,54.0,77.0
1247,261.61775068750006,262.2183252500001,61.0,81.0
1248,262.3074056875001,262.6522331875001,57.0,87.0
1249,261.61775068750006,262.76142856250004,42.0,83.0
1250,261.96257818750007,262.76861246875006,49.0,77.0
1251,262.6522331875001,262.8203365937501,54.0,82.0
1252,262.99706068750004,263.22550890625007,54.0,83.0
1253,262.99706068750004,263.47838240625003,59.0,83.0
1254,263.68671568750005,263.8160260000001,59.0,87.0
1255,263.68671568750005,263.8490719687501,54.0,82.0
1256,263.34188818750005,263.9826926250001,51.0,63.0
1257,262.99706068750004,263.99706043750007,47.0,84.0
1258,264.03154318750006,264.2183247500001,56.0,77.0
1259,264.20395693750004,264.34476150000006,54.0,84.0
1260,264.37637068750007,265.5013704062501,52.0,81.0
1261,265.41085318750004,265.51717500000007,56.0,74.0
1262,265.0660256875001,265.5358531562501,59.0,76.0
1263,265.75568068750005,266.4065425937501,64.0,79.0
1264,265.75568068750005,266.4539563750001,52.0,81.0
1265,264.7211981875001,266.6536689687501,47.0,75.0
1266,264.37637068750007,266.68527815625004,40.0,83.0
1267,267.0545309375001,271.4352769687501,52.0,73.0
1268,267.1349906875001,271.49705856250006,56.0,76.0
1269,267.22981825000005,271.50136890625004,59.0,75.0
1270,267.28872628125004,271.5602769375001,64.0,73.0
1271,267.08182978125006,271.60194359375004,40.0,81.0
