,start,end,pitch,velocity
0,30.025915537499998,30.412923137499998,63.0,93.0
1,30.440566537499997,30.6513474625,65.0,77.0
2,30.6478920375,31.085003299999997,68.0,93.0
3,31.2698685375,31.679336399999997,70.0,95.0
4,31.684519537499998,32.0542500125,63.0,89.0
5,32.0991705375,32.3151346,65.0,89.0
6,32.3064960375,32.9785762,68.0,92.0
7,32.9284725375,33.182446275,70.0,97.0
8,33.3431235375,34.11886645,65.0,97.0
9,34.1724255375,35.0051829625,63.0,107.0
10,35.001727537499995,35.761921037499995,61.0,89.0
11,35.8310295375,36.064270725,61.0,97.0
12,36.2456805375,36.60677245,61.0,96.0
13,36.6603315375,36.9782306375,70.0,99.0
14,37.0749825375,37.391153925,70.0,102.0
15,37.4896335375,37.79543865,70.0,107.0
16,37.9042845375,38.18244625,68.0,100.0
17,38.318935537499996,38.562543,68.0,107.0
18,38.733586537499995,39.0549410625,65.0,89.0
19,39.148237537499995,39.519695725,63.0,93.0
20,39.5628885375,39.727021225,61.0,90.0
21,39.7702140375,41.3527986875,65.0,90.0
22,43.2947475375,43.645473175,63.0,95.0
23,43.7093985375,43.852798674999995,65.0,88.0
24,43.916724037499996,44.3451967375,68.0,93.0
25,44.5387005375,44.81686225,70.0,69.0
26,44.9533515375,45.3489977,63.0,95.0
27,45.3680025375,45.5269520875,65.0,92.0
28,45.5753280375,46.017622437499995,68.0,93.0
29,46.197304537499996,46.494471087499996,70.0,89.0
30,46.611955537499995,46.9022112375,65.0,93.0
31,47.026606537499994,47.280580275,63.0,90.0
32,47.4412575375,47.7125084,65.0,92.0
33,47.8559085375,48.097788287499995,68.0,85.0
34,48.2705595375,49.2277122625,61.0,96.0
35,49.514512537499996,49.844505625,61.0,102.0
36,49.929163537499996,50.24879035,70.0,97.0
37,50.343814537499995,50.597788275,70.0,100.0
38,50.758465537499994,51.050448949999996,70.0,112.0
39,51.1731165375,51.4530059625,68.0,92.0
40,51.5877675375,51.8711123875,68.0,100.0
41,52.0024185375,52.178645212499994,65.0,99.0
42,52.4170695375,52.5691082375,63.0,86.0
43,52.624395037499994,53.13752565,65.0,97.0
44,53.246371537499996,53.486523575,63.0,100.0
45,53.4536970375,54.920524949999994,61.0,81.0
46,56.5635795375,56.703524249999994,65.0,99.0
47,56.7709050375,57.03524505,68.0,90.0
48,57.1855560375,57.311679049999995,65.0,76.0
49,57.392881537499996,57.691775799999995,68.0,97.0
50,57.807532537499995,58.090877387499994,65.0,102.0
51,58.222183537499994,58.5953694375,70.0,117.0
52,59.0514855375,59.416032875,65.0,96.0
53,59.4661365375,59.8807875375,63.0,88.0
54,59.8807875375,60.010365975,61.0,90.0
55,60.2954385375,60.445749525,61.0,83.0
56,60.7100895375,60.929509024999994,61.0,97.0
57,61.124740537499996,61.4944710125,68.0,92.0
58,61.539391537499995,62.10435352499999,65.0,89.0
59,63.1979955375,63.4986175125,70.0,127.0
60,63.6126465375,63.859709425,70.0,95.0
61,64.02729753749999,64.35901833749999,70.0,117.0
62,64.4419485375,64.7944018875,68.0,93.0
63,64.8565995375,65.1710432125,70.0,99.0
64,65.2712505375,65.54250139999999,70.0,95.0
65,65.6859015375,66.00725606249999,77.0,117.0
66,66.1005525375,66.37180339999999,73.0,127.0
67,66.5152035375,67.63648895,75.0,122.0
68,69.0031095375,69.37456772499999,68.0,97.0
69,69.4177605375,69.6872836875,70.0,107.0
70,69.8324115375,70.27643365,80.0,112.0
71,70.4543880375,70.89495472499999,77.0,127.0
72,71.0763645375,71.4288178875,70.0,102.0
73,71.49101553749999,71.9920521625,75.0,112.0
74,72.3203175375,72.671043175,75.0,122.0
75,72.7349685375,73.051139925,73.0,85.0
76,73.1496195375,73.493434325,72.0,100.0
77,73.5642705375,73.87180336249999,68.0,102.0
78,73.9789215375,74.3175531875,75.0,112.0
79,74.39357253749999,74.765030725,77.0,117.0
80,74.8082235375,75.22287453749999,73.0,117.0
81,75.6375255375,75.91395953749999,73.0,112.0
82,76.0521765375,76.2543189,75.0,127.0
83,76.4668275375,76.93503762499999,77.0,127.0
84,77.0888040375,77.5120936,75.0,127.0
85,77.7107805375,77.9803036875,73.0,107.0
86,78.12543153749999,78.47270175,75.0,112.0
87,78.5400825375,78.780234575,73.0,112.0
88,78.95473353749999,79.28127119999999,80.0,117.0
89,79.3693845375,79.78058011249999,82.0,122.0
90,79.78403553749999,80.77401479999999,77.0,127.0
91,82.2719415375,82.61575632499999,68.0,112.0
92,82.68659253749999,83.01485791249999,70.0,107.0
93,83.1012435375,83.54353793749999,80.0,112.0
94,83.7232200375,84.1205939125,77.0,122.0
95,84.3451965375,84.63372452499999,70.0,117.0
96,84.7598475375,85.10193461249999,75.0,112.0
97,85.58914953749999,85.9156872,75.0,127.0
98,86.0038005375,86.34761532499999,73.0,117.0
99,86.41845153749999,86.82100855,72.0,127.0
100,86.8331025375,87.1544570625,68.0,102.0
101,87.24775353749999,87.60366231249999,75.0,117.0
102,87.6624045375,88.00794703749999,77.0,122.0
103,88.0770555375,88.53317163749999,73.0,127.0
104,89.32100853749999,89.5801654125,70.0,117.0
105,89.7356595375,90.05183092499999,77.0,122.0
106,90.15031053749999,90.41983368749999,73.0,107.0
107,90.5649615375,90.8638558,73.0,127.0
108,90.97961253749999,91.27159594999999,70.0,107.0
109,91.3942635375,91.70525178749999,77.0,122.0
110,91.8089145375,92.0507942875,73.0,127.0
111,92.2235655375,92.442985025,73.0,107.0
112,92.6382165375,93.1703519875,70.0,112.0
113,93.4675185375,94.81167886249999,73.0,117.0
114,109.63890753749999,110.0259151375,63.0,93.0
115,110.0535585375,110.26433946249999,65.0,77.0
116,110.26088403749999,110.69799529999999,68.0,93.0
117,110.8828605375,111.29232839999999,70.0,95.0
118,111.2975115375,111.6672420125,63.0,89.0
119,111.71216253749999,111.9281266,65.0,89.0
120,111.91948803749999,112.5915682,68.0,92.0
121,112.54146453749999,112.795438275,70.0,97.0
122,112.9561155375,113.73185844999999,65.0,97.0
123,113.7854175375,114.61817496249999,63.0,107.0
124,114.6147195375,115.3749130375,61.0,89.0
125,115.44402153749999,115.67726272499999,61.0,97.0
126,115.8586725375,116.21976445,61.0,96.0
127,116.27332353749999,116.5912226375,70.0,99.0
128,116.6879745375,117.00414592499999,70.0,102.0
129,117.10262553749999,117.40843065,70.0,107.0
130,117.5172765375,117.79543824999999,68.0,100.0
131,117.93192753749999,118.175535,68.0,107.0
132,118.3465785375,118.6679330625,65.0,89.0
133,118.7612295375,119.132687725,63.0,93.0
134,119.17588053749999,119.34001322499999,61.0,90.0
135,119.38320603749999,120.96579068749999,65.0,90.0
136,122.90773953749999,123.258465175,63.0,95.0
137,123.3223905375,123.465790675,65.0,88.0
138,123.5297160375,123.9581887375,68.0,93.0
139,124.1516925375,124.42985424999999,70.0,69.0
140,124.56634353749999,124.96198969999999,63.0,95.0
141,124.9809945375,125.1399440875,65.0,92.0
142,125.18832003749999,125.6306144375,68.0,93.0
143,125.8102965375,126.1074630875,70.0,89.0
144,126.2249475375,126.51520323749999,65.0,93.0
145,126.63959853749999,126.893572275,63.0,90.0
146,127.0542495375,127.3255004,65.0,92.0
147,127.46890053749999,127.71078028749999,68.0,85.0
148,127.8835515375,128.8407042625,61.0,96.0
149,129.1275045375,129.457497625,61.0,102.0
150,129.54215553749998,129.86178235,70.0,97.0
151,129.9568065375,130.210780275,70.0,100.0
152,130.3714575375,130.66344095,70.0,112.0
153,130.78610853749998,131.0659979625,68.0,92.0
154,131.2007595375,131.4841043875,68.0,100.0
155,131.6154105375,131.7916372125,65.0,99.0
156,132.0300615375,132.18210023749998,63.0,86.0
157,132.23738703749999,132.75051765,65.0,97.0
158,132.8593635375,133.099515575,63.0,100.0
159,133.0666890375,134.53351695,61.0,81.0
160,136.1765715375,136.31651625,65.0,99.0
161,136.3838970375,136.64823705,68.0,90.0
162,136.79854803749998,136.92467105,65.0,76.0
163,137.00587353749998,137.30476779999998,68.0,97.0
164,137.4205245375,137.7038693875,65.0,102.0
165,137.8351755375,138.2083614375,70.0,117.0
166,138.6644775375,139.029024875,65.0,96.0
167,139.0791285375,139.4937795375,63.0,88.0
168,139.4937795375,139.623357975,61.0,90.0
169,139.90843053749998,140.058741525,61.0,83.0
170,140.3230815375,140.54250102499998,61.0,97.0
171,140.7377325375,141.1074630125,68.0,92.0
172,141.1523835375,141.71734552499998,65.0,89.0
173,142.81098753749998,143.1116095125,70.0,127.0
174,143.2256385375,143.472701425,70.0,95.0
175,143.6402895375,143.9720103375,70.0,117.0
176,144.0549405375,144.40739388749998,68.0,93.0
177,144.46959153749998,144.7840352125,70.0,99.0
178,144.8842425375,145.15549339999998,70.0,95.0
179,145.2988935375,145.6202480625,77.0,117.0
180,145.71354453749998,145.9847954,73.0,127.0
181,146.1281955375,147.24948095,75.0,122.0
182,148.6161015375,148.98755972499998,68.0,97.0
183,149.03075253749998,149.3002756875,70.0,107.0
184,149.4454035375,149.88942565,80.0,112.0
185,150.0673800375,150.50794672499998,77.0,127.0
186,150.6893565375,151.0418098875,70.0,102.0
187,151.1040075375,151.60504416249998,75.0,112.0
188,151.93330953749998,152.28403517499999,75.0,122.0
189,152.3479605375,152.664131925,73.0,85.0
190,152.7626115375,153.106426325,72.0,100.0
191,153.17726253749998,153.4847953625,68.0,102.0
192,153.5919135375,153.9305451875,75.0,112.0
193,154.0065645375,154.378022725,77.0,117.0
194,154.4212155375,154.83586653749998,73.0,117.0
195,155.2505175375,155.5269515375,73.0,112.0
196,155.6651685375,155.86731089999998,75.0,127.0
197,156.0798195375,156.548029625,77.0,127.0
198,156.7017960375,157.1250856,75.0,127.0
199,157.3237725375,157.5932956875,73.0,107.0
200,157.73842353749998,158.08569375,75.0,112.0
201,158.1530745375,158.393226575,73.0,112.0
202,158.5677255375,158.89426319999998,80.0,117.0
203,158.9823765375,159.39357211249998,82.0,122.0
204,159.39702753749998,160.3870068,77.0,127.0
205,161.8849335375,162.228748325,68.0,112.0
206,162.29958453749998,162.62784991249998,70.0,107.0
207,162.7142355375,163.15652993749998,80.0,112.0
208,163.3362120375,163.7335859125,77.0,122.0
209,163.95818853749998,164.24671652499998,70.0,117.0
210,164.3728395375,164.7149266125,75.0,112.0
211,165.20214153749998,165.5286792,75.0,127.0
212,165.6167925375,165.96060732499998,73.0,117.0
213,166.0314435375,166.43400054999998,72.0,127.0
214,166.4460945375,166.7674490625,68.0,102.0
215,166.86074553749998,167.2166543125,75.0,117.0
216,167.2753965375,167.6209390375,77.0,122.0
217,167.6900475375,168.1461636375,73.0,127.0
218,168.9340005375,169.1931574125,70.0,117.0
219,169.3486515375,169.66482292499998,77.0,122.0
220,169.76330253749998,170.03282568749998,73.0,107.0
221,170.1779535375,170.4768478,73.0,127.0
222,170.5926045375,170.88458795,70.0,107.0
223,171.0072555375,171.3182437875,77.0,122.0
224,171.42190653749998,171.6637862875,73.0,127.0
225,171.8365575375,172.055977025,73.0,107.0
226,172.2512085375,172.7833439875,70.0,112.0
227,173.0805105375,174.4246708625,73.0,117.0
228,174.32446353749998,174.4246708625,73.0,117.0
229,174.7391145375,175.0293702375,75.0,93.0
230,175.1537655375,175.41119469999998,75.0,117.0
231,175.56841653749998,175.905320475,70.0,117.0
232,175.98306753749998,176.42708965,80.0,112.0
233,176.6050440375,177.045610725,77.0,127.0
234,177.22702053749998,177.5794738875,70.0,102.0
235,177.6416715375,178.14270816249999,75.0,112.0
236,178.4709735375,178.821699175,75.0,122.0
237,178.88562453749998,179.201795925,73.0,85.0
238,179.3002755375,179.64409032499998,72.0,100.0
239,179.7149265375,180.0224593625,68.0,102.0
240,180.12957753749998,180.46820918749998,75.0,112.0
241,180.5442285375,180.915686725,77.0,117.0
242,180.9588795375,181.3735305375,73.0,117.0
243,181.78818153749998,182.0646155375,73.0,112.0
244,182.2028325375,182.40497489999998,75.0,127.0
245,182.6174835375,183.08569362499998,77.0,127.0
246,183.23946003749998,183.66274959999998,75.0,127.0
247,183.8614365375,184.1309596875,73.0,107.0
248,184.2760875375,184.62335775,75.0,112.0
249,184.69073853749998,184.93089057499998,73.0,112.0
250,185.1053895375,185.4319272,80.0,117.0
251,185.5200405375,185.9312361125,82.0,122.0
252,185.9346915375,186.9246708,77.0,127.0
253,188.4225975375,188.76641232499998,68.0,112.0
254,188.8372485375,189.1655139125,70.0,107.0
255,189.25189953749998,189.6941939375,80.0,112.0
256,189.8738760375,190.2712499125,77.0,122.0
257,190.49585253749999,190.784380525,70.0,117.0
258,190.91050353749998,191.2525906125,75.0,112.0
259,191.7398055375,192.06634319999998,75.0,127.0
260,192.15445653749998,192.498271325,73.0,117.0
261,192.5691075375,192.97166454999999,72.0,127.0
262,192.9837585375,193.3051130625,68.0,102.0
263,193.3984095375,193.75431831249998,75.0,117.0
264,193.81306053749998,194.1586030375,77.0,122.0
265,194.2277115375,194.6838276375,73.0,127.0
266,195.47166453749998,195.73082141249998,70.0,117.0
267,195.8863155375,196.202486925,77.0,122.0
268,196.3009665375,196.5704896875,73.0,107.0
269,196.71561753749998,197.01451179999998,73.0,127.0
270,197.1302685375,197.42225195,70.0,107.0
271,197.5449195375,197.8559077875,77.0,122.0
272,197.95957053749999,198.2014502875,73.0,127.0
273,198.37422153749998,198.59364102499998,73.0,107.0
274,198.7888725375,199.3210079875,70.0,112.0
275,199.61817453749998,200.9623348625,73.0,117.0
