,start,end,pitch,velocity
0,3.4882515374999996,4.854872125,42.0,86.0
1,3.9029025374999997,5.1261229875,49.0,60.0
2,4.317553537499999,5.158949525,54.0,86.0
3,4.7322045374999995,5.642709024999999,58.0,102.0
4,5.1468555375,6.357982,44.0,70.0
5,5.5615065375,6.3873531125,51.0,51.0
6,5.9761575375,6.624049725,56.0,78.0
7,5.9761575375,6.7950932625,63.0,89.0
8,6.3908085375,6.8365583625,60.0,78.0
9,8.0494125375,8.5469937375,63.0,85.0
10,8.4640635375,8.8752591125,65.0,86.0
11,7.634761537499999,9.0134761125,61.0,93.0
12,7.220110537499999,9.1378714125,56.0,76.0
13,6.8054595375,9.333102925,49.0,73.0
14,8.878714537499999,9.365929462499999,68.0,72.0
15,9.2933655375,9.7563924875,65.0,83.0
16,9.708016537499999,10.2470628375,63.0,77.0
17,10.9519695375,11.4184519125,58.0,88.0
18,10.1226675375,11.6257774125,42.0,61.0
19,10.5373185375,11.7916378125,49.0,59.0
20,10.9519695375,11.8313752,54.0,63.0
21,11.3666205375,11.8987559875,61.0,93.0
22,11.781271537499999,12.892190675,44.0,88.0
23,12.1959225375,12.892190675,51.0,51.0
24,12.610573537499999,13.279198274999999,56.0,74.0
25,13.0252245375,13.448514099999999,60.0,74.0
26,12.610573537499999,13.458880375,63.0,76.0
27,12.610573537499999,13.4847960625,66.0,74.0
28,14.2691775375,14.8842431875,61.0,95.0
29,14.683828537499998,15.095024112499999,63.0,97.0
30,13.8545265375,15.2919833375,56.0,46.0
31,15.0984795375,15.387007525,68.0,77.0
32,15.305805037499999,15.602971587499999,65.0,81.0
33,15.513130537499999,15.7791982625,63.0,93.0
34,15.7204560375,15.950241799999999,61.0,97.0
35,15.9277815375,16.209398675,63.0,92.0
36,13.439875537499999,16.2595023375,49.0,63.0
37,16.1351070375,16.35798195,61.0,93.0
38,16.3424325375,16.6361436625,58.0,95.0
39,16.5497580375,16.750172687499997,56.0,85.0
40,17.1717345375,17.691775999999997,54.0,95.0
41,17.3790600375,17.729785675,58.0,81.0
42,17.7937110375,17.999308825,54.0,70.0
43,17.5863855375,18.0563233375,61.0,88.0
44,16.757083537499998,18.2290945875,42.0,92.0
45,16.964409037499998,18.351762174999998,49.0,72.0
46,18.0010365375,18.3638561625,58.0,89.0
47,18.2083620375,18.382861,61.0,79.0
48,18.830338537499998,19.334830587499997,56.0,95.0
49,19.037664037499997,19.6285417125,60.0,88.0
50,19.4523150375,19.6872839375,56.0,86.0
51,18.623013037499998,19.8600551875,51.0,67.0
52,18.4156875375,19.8807877375,44.0,92.0
53,19.8669660375,20.108845787499998,60.0,92.0
54,19.6596405375,20.1123012125,63.0,90.0
55,19.2449895375,20.13130605,68.0,102.0
56,20.488942537499998,20.9899791625,49.0,89.0
57,20.0742915375,21.167933549999997,37.0,88.0
58,20.2816170375,21.18175525,44.0,78.0
59,21.1109190375,21.3130614,49.0,93.0
60,20.696268037499998,21.373531337499998,56.0,72.0
61,20.903593537499997,21.4011747375,65.0,99.0
62,21.3182445375,21.772632925,61.0,99.0
63,21.5255700375,21.902211362499997,65.0,76.0
64,22.1475465375,22.4758119125,58.0,86.0
65,22.354872037499998,22.662404862499997,60.0,83.0
66,21.9402210375,22.6900482625,53.0,70.0
67,22.769523037499997,22.92328945,53.0,70.0
68,21.7328955375,22.9803039625,46.0,85.0
69,22.9768485375,23.32411875,61.0,90.0
70,22.562197537499998,23.3500344375,65.0,100.0
71,23.1841740375,23.403593524999998,58.0,83.0
72,23.8061505375,24.305459449999997,51.0,89.0
73,24.0134760375,24.511057237499998,58.0,82.0
74,23.3914995375,24.5905320125,39.0,69.0
75,23.5988250375,24.6078091375,46.0,67.0
76,24.428127037499998,24.972356474999998,51.0,78.0
77,24.635452537499997,25.024187849999997,63.0,86.0
78,24.220801537499998,25.031098699999998,66.0,92.0
79,24.842778037499997,25.0708360875,58.0,90.0
80,25.6720800375,25.85348985,60.0,95.0
81,25.4647545375,25.8586729875,56.0,83.0
82,25.2574290375,25.989979137499997,51.0,55.0
83,25.0501035375,26.1903937875,44.0,69.0
84,26.294056537499998,26.66897015,60.0,72.0
85,25.8794055375,26.7588112,63.0,92.0
86,27.1233585375,27.5691083625,49.0,78.0
87,27.3306840375,27.605390325,56.0,75.0
88,27.5380095375,27.9889425,63.0,85.0
89,26.708707537499997,28.144436624999997,37.0,59.0
90,26.9160330375,28.3621284,44.0,37.0
91,28.367311537499997,29.41948845,37.0,66.0
92,27.7453350375,29.4263993,49.0,71.0
93,28.367311537499997,29.977539587499997,61.0,50.0
94,28.367311537499997,30.017276974999998,56.0,40.0
95,27.952660537499998,30.0293709625,65.0,79.0
96,30.440566537499997,31.159294937499997,44.0,56.0
97,30.025915537499998,31.185210625,37.0,74.0
98,30.8552175375,31.4357289375,49.0,75.0
99,31.2698685375,31.74153405,56.0,79.0
100,31.4771940375,31.75535575,61.0,28.0
101,31.684519537499998,32.738424162499996,48.0,76.0
102,32.9284725375,33.3932272,68.0,65.0
103,32.5138215375,33.410504325,65.0,72.0
104,32.0991705375,33.562543025,60.0,59.0
105,33.7577745375,34.302003975,53.0,73.0
106,33.3431235375,34.3693847625,46.0,75.0
107,34.1724255375,35.055286625,65.0,79.0
108,34.587076537499996,35.0794746,61.0,74.0
109,35.416378537499995,35.9830682375,51.0,50.0
110,35.001727537499995,36.0038007875,44.0,72.0
111,36.2456805375,36.7467171625,60.0,76.0
112,35.8310295375,36.7709051375,63.0,83.0
113,36.6603315375,37.6969590375,42.0,78.0
114,37.0749825375,37.7453349875,49.0,78.0
115,37.9042845375,38.339668087499994,54.0,70.0
116,37.4896335375,38.36212835,58.0,78.0
117,37.4896335375,38.379405475,61.0,78.0
118,38.733586537499995,39.2519002875,51.0,85.0
119,38.318935537499996,39.319281075,44.0,83.0
120,39.148237537499995,39.651001875,60.0,90.0
121,39.5628885375,40.618520874999994,56.0,81.0
122,40.8068415375,41.4979265375,63.0,97.0
123,41.6361435375,41.705252037499996,61.0,66.0
124,41.2214925375,41.800276225,49.0,67.0
125,41.6361435375,42.579474562499996,56.0,58.0
126,42.050794537499996,42.595023975,49.0,59.0
127,39.9775395375,42.7349686875,37.0,78.0
128,40.3921905375,43.26883185,44.0,56.0
129,42.465445537499996,43.574636962499994,61.0,88.0
130,41.6361435375,43.902902337499995,65.0,72.0
131,43.7093985375,44.170697775,44.0,49.0
132,43.2947475375,44.213890587499996,37.0,90.0
133,42.880096537499995,44.528334262499996,56.0,69.0
134,44.1240495375,44.9395298375,65.0,90.0
135,44.5387005375,44.942985262499995,61.0,93.0
136,45.3680025375,46.112646625,53.0,52.0
137,44.9533515375,46.15756715,48.0,81.0
138,46.197304537499996,46.629232662499994,65.0,90.0
139,45.782653537499996,46.658603774999996,68.0,90.0
140,47.026606537499994,47.665860162499996,53.0,63.0
141,46.611955537499995,47.729785525,46.0,76.0
142,48.063234037499996,48.3742222875,58.0,85.0
143,47.8559085375,48.3811331375,61.0,96.0
144,47.4412575375,48.4156873875,65.0,90.0
145,48.6852105375,49.257083375,51.0,50.0
146,49.3071870375,49.512784825,51.0,58.0
147,48.2705595375,49.588804175,44.0,77.0
148,49.514512537499996,49.9706286375,60.0,72.0
149,49.0998615375,49.97235635,63.0,89.0
150,49.7218380375,49.996544324999995,56.0,85.0
151,50.343814537499995,50.903593387499996,49.0,62.0
152,49.929163537499996,51.053904374999995,42.0,73.0
153,51.1731165375,51.5946783875,58.0,69.0
154,50.758465537499994,51.6257772125,61.0,97.0
155,52.0024185375,52.489633462499995,51.0,61.0
156,51.5877675375,52.5691082375,44.0,70.0
157,52.8317205375,53.17899075,60.0,75.0
158,52.4170695375,53.19281245,63.0,97.0
159,53.0390460375,53.268831799999994,56.0,79.0
160,53.661022537499996,54.087767525,49.0,82.0
161,53.8683480375,54.343468975,56.0,69.0
162,54.075673537499995,54.4661365625,63.0,88.0
163,54.6976500375,54.7753971,61.0,43.0
164,53.246371537499996,54.785763374999995,37.0,75.0
165,54.2829990375,54.887698412499994,49.0,72.0
166,53.4536970375,54.8911538375,44.0,53.0
167,54.490324537499994,55.5995159625,65.0,78.0
168,55.3196265375,55.791292049999996,49.0,97.0
169,55.112301037499996,56.026260949999994,44.0,92.0
170,55.526952037499996,56.0331718,56.0,85.0
171,54.9049755375,56.041810362499994,37.0,93.0
172,55.941603037499995,56.451278224999996,49.0,97.0
173,56.1489285375,56.48237705,61.0,99.0
174,56.356254037499994,56.516931299999996,56.0,99.0
175,55.7342775375,56.52384215,65.0,102.0
176,56.978230537499996,57.501727425,53.0,88.0
177,57.1855560375,57.506910562499996,56.0,86.0
178,56.5635795375,57.7798891375,41.0,85.0
179,56.7709050375,57.7798891375,48.0,92.0
180,57.807532537499995,58.09951595,60.0,86.0
181,57.6002070375,58.173807587499994,53.0,88.0
182,58.0148580375,58.204906412499994,56.0,86.0
183,57.392881537499996,58.2118172625,65.0,92.0
184,58.6368345375,58.95646135,58.0,93.0
185,58.8441600375,59.0739458,61.0,97.0
186,58.4295090375,59.130960312499994,53.0,66.0
187,59.258811037499996,59.388389475,53.0,82.0
188,58.222183537499994,59.436765425,46.0,82.0
189,59.0514855375,59.79958505,65.0,96.0
190,59.4661365375,59.803040474999996,61.0,100.0
191,59.673462037499995,59.853144137499996,58.0,86.0
192,60.2954385375,60.556323125,58.0,107.0
193,59.8807875375,60.55977855,42.0,86.0
194,60.50276403749999,60.653075025,61.0,92.0
195,60.088113037499994,60.68417384999999,49.0,86.0
196,60.7100895375,61.219764725,44.0,92.0
197,60.9174150375,61.4149962375,56.0,79.0
198,61.124740537499996,61.470283037499996,63.0,88.0
199,61.3320660375,61.4979264375,60.0,81.0
200,61.7467170375,62.036972737499994,56.0,66.0
201,61.954042537499994,62.247753662499996,61.0,78.0
202,62.1613680375,62.50863825,56.0,83.0
203,62.36869353749999,63.0977882125,65.0,90.0
204,62.5760190375,63.139253312499996,63.0,75.0
205,61.539391537499995,63.168624425,49.0,92.0
206,62.7833445375,63.223911224999995,61.0,88.0
207,63.6126465375,64.0514855125,54.0,85.0
208,63.819972037499994,64.1378711375,58.0,69.0
209,63.1979955375,64.4384931125,42.0,69.0
210,64.2346230375,64.460953375,54.0,90.0
211,63.405321037499995,64.4972353375,49.0,82.0
212,64.02729753749999,64.68210057499999,65.0,93.0
213,64.4419485375,64.70628855,61.0,93.0
214,64.64927403749999,64.7736693375,58.0,82.0
215,65.0639250375,65.3610915875,51.0,78.0
216,65.2712505375,65.57360022499999,55.0,88.0
217,65.47857603749999,65.7619208875,51.0,90.0
218,64.8565995375,65.87422219999999,43.0,100.0
219,65.6859015375,66.00552834999999,58.0,95.0
220,65.8932270375,66.257774375,51.0,68.0
221,66.1005525375,66.37871425,55.0,81.0
222,66.30787803749999,66.485832425,58.0,86.0
223,66.92985453749999,67.156184875,56.0,92.0
224,67.1371800375,67.39460919999999,60.0,89.0
225,66.7225290375,67.4343465875,51.0,78.0
226,66.5152035375,67.7798890875,44.0,85.0
227,67.5518310375,68.0321351125,51.0,86.0
228,67.75915653749999,68.0321351125,60.0,93.0
229,67.3445055375,68.03731825,63.0,95.0
230,67.9664820375,68.0736002125,61.0,56.0
231,68.1738075375,68.2653763,58.0,112.0
232,68.1738075375,68.2705594375,46.0,112.0
233,68.38113303749999,68.68175501249999,44.0,95.0
234,68.38113303749999,68.7024875625,56.0,102.0
235,70.4543880375,70.6133375875,58.0,95.0
236,70.2470625375,70.639253275,54.0,95.0
237,70.8690390375,71.06081512499999,54.0,95.0
238,70.66171353749999,71.0659982625,61.0,122.0
239,69.8324115375,71.2698683375,42.0,72.0
240,71.0763645375,71.364892525,58.0,92.0
241,71.2836900375,71.45300586249999,61.0,86.0
242,70.03973703749999,71.45646128749999,49.0,99.0
243,71.9056665375,72.1648234125,56.0,93.0
244,72.11299203749999,72.29440185,60.0,100.0
245,71.6983410375,72.4239802875,51.0,89.0
246,71.49101553749999,72.65376605,44.0,72.0
247,72.5276430375,72.65376605,51.0,72.0
248,72.3203175375,73.01140253749999,63.0,99.0
249,72.7349685375,73.092605025,60.0,100.0
250,72.94229403749999,73.20663404999999,56.0,85.0
251,73.5642705375,74.02211435,53.0,97.0
252,73.77159603749999,74.07740115,56.0,99.0
253,73.3569450375,74.3054592,48.0,86.0
254,73.1496195375,74.3244640375,41.0,79.0
255,74.1862470375,74.633724575,53.0,99.0
256,74.39357253749999,74.69073908749999,60.0,89.0
257,73.9789215375,74.7840355625,65.0,99.0
258,74.6008980375,74.785763275,56.0,107.0
259,75.22287453749999,75.4751205625,58.0,99.0
260,75.4302000375,75.55113991249999,65.0,89.0
261,75.4302000375,75.5649616125,61.0,89.0
262,75.0155490375,75.75155456249999,53.0,96.0
263,75.84485103749999,75.98306803749999,53.0,112.0
264,74.8082235375,76.08154764999999,46.0,82.0
265,75.6375255375,76.098824775,61.0,100.0
266,75.6375255375,76.333793675,65.0,99.0
267,76.2595020375,76.4201793,61.0,127.0
268,76.0521765375,76.5324806125,58.0,99.0
269,76.8814785375,77.342777775,51.0,96.0
270,76.4668275375,77.6088455,39.0,90.0
271,76.67415303749999,77.6088455,46.0,96.0
272,77.0888040375,77.715963675,58.0,92.0
273,77.50345503749999,77.96129884999999,51.0,100.0
274,77.7107805375,77.9837591125,63.0,97.0
275,77.2961295375,78.0148579375,66.0,102.0
276,77.9181060375,78.144436375,58.0,97.0
277,78.7474080375,78.8942636,60.0,100.0
278,78.5400825375,78.8994467375,56.0,89.0
279,78.3327570375,79.05666857499999,51.0,76.0
280,79.1620590375,79.27954348749999,51.0,76.0
281,78.12543153749999,79.3348302875,44.0,81.0
282,79.3693845375,79.7529367125,60.0,90.0
283,78.95473353749999,79.8324114875,63.0,99.0
284,79.57671003749999,79.84450547499999,56.0,90.0
285,80.40601203749999,80.5165856375,56.0,97.0
286,80.40601203749999,80.5269519125,53.0,90.0
287,80.1986865375,80.6496195,49.0,97.0
288,80.6133375375,80.7463714,53.0,96.0
289,80.6133375375,80.756737675,56.0,102.0
290,79.9913610375,81.060815075,44.0,93.0
291,81.0279885375,81.060815075,44.0,61.0
292,80.8206630375,81.2906008375,49.0,99.0
293,81.23531403749999,81.32861051249999,68.0,93.0
294,81.23531403749999,81.33206593749999,61.0,99.0
295,81.23531403749999,81.33206593749999,65.0,99.0
296,79.78403553749999,81.42709012499999,37.0,81.0
297,81.4426395375,81.45818895,67.0,93.0
298,81.4426395375,81.9765027,61.0,112.0
299,81.4426395375,81.99032439999999,65.0,117.0
300,81.4426395375,81.99723524999999,68.0,117.0
301,82.0646160375,82.16136793749999,61.0,74.0
302,82.0646160375,82.166551075,65.0,77.0
303,82.0646160375,82.17691735,68.0,74.0
304,82.2719415375,82.28749094999999,67.0,86.0
305,82.0646160375,82.415341675,49.0,99.0
306,82.2719415375,82.50863815,61.0,100.0
307,82.2719415375,82.55874181249999,65.0,112.0
308,82.2719415375,82.56392495,68.0,102.0
309,81.6499650375,82.6313057375,37.0,86.0
310,81.85729053749999,82.6969588125,44.0,86.0
311,82.68659253749999,82.7764335875,68.0,72.0
312,82.4792670375,83.0044916375,49.0,97.0
313,82.8939180375,83.05286758749999,65.0,102.0
314,82.68659253749999,83.24982681249999,61.0,107.0
315,83.51589453749999,84.01520345,54.0,95.0
316,83.7232200375,84.288182025,61.0,78.0
317,84.13787103749999,84.36938451249999,54.0,95.0
318,83.1012435375,84.592259425,42.0,85.0
319,84.3451965375,84.70110531249999,66.0,100.0
320,83.9305455375,84.727021,70.0,107.0
321,83.30856903749999,84.758119825,49.0,93.0
322,84.5525220375,84.8116789125,61.0,100.0
323,85.1744985375,85.6409809125,56.0,96.0
324,85.3818240375,85.70145085,63.0,100.0
325,84.96717303749999,85.9139594875,51.0,73.0
326,85.7964750375,85.92259804999999,56.0,89.0
327,84.7598475375,85.9761571375,44.0,76.0
328,85.58914953749999,86.0659981875,72.0,100.0
329,86.0038005375,86.64478187499999,68.0,122.0
330,86.2111260375,86.7709048875,72.0,69.0
331,86.8331025375,87.2823077875,53.0,83.0
332,87.04042803749999,87.37733197499999,65.0,95.0
333,86.41845153749999,87.54146466249999,41.0,86.0
334,86.6257770375,87.5552863625,48.0,74.0
335,87.6624045375,87.9768482125,68.0,95.0
336,87.24775353749999,87.992397625,72.0,99.0
337,87.4550790375,87.9941253375,53.0,86.0
338,87.86973003749999,88.0805109625,65.0,93.0
339,88.4917065375,88.787145375,58.0,83.0
340,88.69903203749999,88.83897675,65.0,78.0
341,88.69903203749999,88.842432175,61.0,78.0
342,88.2843810375,88.9841046,53.0,65.0
343,89.1136830375,89.2380783375,53.0,72.0
344,88.0770555375,89.28127115,46.0,73.0
345,88.9063575375,89.367656775,61.0,107.0
346,88.9063575375,89.66827875,65.0,97.0
347,89.5283340375,89.68555587499999,61.0,99.0
348,89.32100853749999,90.224602175,58.0,96.0
349,90.15031053749999,90.5960603625,51.0,88.0
350,89.7356595375,90.87767749999999,39.0,79.0
351,89.9429850375,90.888043775,46.0,73.0
352,90.3576360375,90.91395946249999,58.0,81.0
353,90.77228703749999,91.20594287499999,51.0,75.0
354,90.5649615375,91.2646851,66.0,95.0
355,90.97961253749999,91.27505137499999,63.0,95.0
356,91.1869380375,91.4253623625,58.0,95.0
357,91.8089145375,92.16309559999999,56.0,82.0
358,92.0162400375,92.17000644999999,60.0,77.0
359,91.60158903749999,92.318589725,51.0,71.0
360,92.43089103749999,92.55701404999999,51.0,72.0
361,91.3942635375,92.6105731375,44.0,81.0
362,92.6382165375,92.9733927625,60.0,85.0
363,92.2235655375,92.99412531249999,63.0,99.0
364,92.8455420375,93.1081543375,56.0,93.0
365,93.4675185375,93.84415986249999,49.0,86.0
366,93.6748440375,93.88735267499999,56.0,89.0
367,93.88216953749999,94.27090485,65.0,99.0
368,93.05286753749999,94.516240025,37.0,64.0
369,94.2968205375,94.5905316625,63.0,92.0
370,94.0894950375,94.64754617499999,49.0,72.0
371,93.26019303749999,94.6924667,44.0,48.0
372,94.50414603749999,95.40428424999999,65.0,68.0
373,94.71147153749999,95.4163782375,61.0,85.0
374,94.71147153749999,95.96579081249999,37.0,76.0
375,95.1261225375,95.988251075,44.0,48.0
376,95.5407735375,96.35452612499999,61.0,60.0
377,95.5407735375,96.368347825,65.0,70.0
378,95.9554245375,96.3769863875,56.0,52.0
379,96.3700755375,97.84899743749999,42.0,69.0
380,97.61402853749999,97.94920476249999,54.0,64.0
381,97.1993775375,97.985486725,58.0,79.0
382,97.1993775375,98.0044915625,61.0,78.0
383,96.78472653749999,98.05805065,49.0,57.0
384,98.44333053749999,98.91499605,51.0,48.0
385,98.0286795375,99.3210084875,44.0,72.0
386,98.8579815375,99.5076014375,60.0,89.0
387,98.8579815375,99.53178941249999,63.0,86.0
388,99.2726325375,99.6872835375,56.0,60.0
389,100.1019345375,100.88458829999999,48.0,50.0
390,99.6872835375,100.9035931375,41.0,85.0
391,100.51658553749999,101.27850674999999,53.0,70.0
392,100.51658553749999,101.34588753749999,60.0,76.0
393,100.9312365375,101.4011743375,56.0,85.0
394,100.51658553749999,101.4530057125,65.0,85.0
395,101.7605385375,102.21838235,53.0,59.0
396,101.34588753749999,102.27539686249999,46.0,78.0
397,102.17518953749999,103.0407735,61.0,89.0
398,102.17518953749999,103.04768435,65.0,90.0
399,102.5898405375,103.19281219999999,58.0,82.0
400,103.00449153749999,103.942639425,39.0,73.0
401,103.4191425375,103.99101537499999,46.0,50.0
402,103.8337935375,104.22598427499999,51.0,78.0
403,103.8337935375,104.6579124,63.0,92.0
404,103.8337935375,104.6734618125,66.0,86.0
405,104.24844453749999,104.7287486125,58.0,78.0
406,105.07774653749999,105.64270852499999,51.0,69.0
407,104.6630955375,105.75673755,44.0,79.0
408,105.4923975375,106.3147886875,60.0,96.0
409,105.4923975375,106.3147886875,63.0,97.0
410,105.90704853749999,106.347615225,56.0,92.0
411,106.9436760375,107.1060810125,61.0,82.0
412,107.1510015375,107.19764977499999,61.0,35.0
413,106.73635053749999,107.211471475,49.0,78.0
414,107.1510015375,107.5380091375,63.0,82.0
415,106.52902503749999,107.8369034,44.0,65.0
416,107.98030353749999,109.36592896249999,44.0,47.0
417,106.3216995375,109.37456752499999,37.0,75.0
418,107.35832703749999,109.3832060875,49.0,76.0
419,107.98030353749999,109.47823027499999,61.0,66.0
420,107.5656525375,109.51105681249999,65.0,88.0
421,110.0535585375,110.7722869375,44.0,56.0
422,109.63890753749999,110.79820262499999,37.0,74.0
423,110.46820953749999,111.0487209375,49.0,75.0
424,110.8828605375,111.35452604999999,56.0,79.0
425,111.09018603749999,111.36834775,61.0,28.0
426,111.2975115375,112.35141616249999,48.0,76.0
427,112.54146453749999,113.00621919999999,68.0,65.0
428,112.1268135375,113.023496325,65.0,72.0
429,111.71216253749999,113.17553502499999,60.0,59.0
430,113.37076653749999,113.914995975,53.0,73.0
431,112.9561155375,113.9823767625,46.0,75.0
432,113.7854175375,114.668278625,65.0,79.0
433,114.20006853749999,114.69246659999999,61.0,74.0
434,115.0293705375,115.5960602375,51.0,50.0
435,114.6147195375,115.61679278749999,44.0,72.0
436,115.8586725375,116.3597091625,60.0,76.0
437,115.44402153749999,116.3838971375,63.0,83.0
438,116.27332353749999,117.3099510375,42.0,78.0
439,116.6879745375,117.35832698749999,49.0,78.0
440,117.5172765375,117.95266008749999,54.0,70.0
441,117.10262553749999,117.97512035,58.0,78.0
442,117.10262553749999,117.99239747499999,61.0,78.0
443,118.3465785375,118.8648922875,51.0,85.0
444,117.93192753749999,118.932273075,44.0,83.0
445,118.7612295375,119.263993875,60.0,90.0
446,119.17588053749999,120.23151287499999,56.0,81.0
447,120.4198335375,121.1109185375,63.0,97.0
448,121.2491355375,121.3182440375,61.0,66.0
449,120.83448453749999,121.413268225,49.0,67.0
450,121.2491355375,122.19246656249999,56.0,58.0
451,121.66378653749999,122.208015975,49.0,59.0
452,119.5905315375,122.34796068749999,37.0,78.0
453,120.00518253749999,122.88182384999999,44.0,56.0
454,122.0784375375,123.1876289625,61.0,88.0
455,121.2491355375,123.51589433749999,65.0,72.0
456,123.3223905375,123.783689775,44.0,49.0
457,122.90773953749999,123.8268825875,37.0,90.0
458,122.4930885375,124.14132626249999,56.0,69.0
459,123.73704153749999,124.5525218375,65.0,90.0
460,124.1516925375,124.5559772625,61.0,93.0
461,124.9809945375,125.72563862499999,53.0,52.0
462,124.56634353749999,125.77055915,48.0,81.0
463,125.8102965375,126.24222466249999,65.0,90.0
464,125.39564553749999,126.271595775,68.0,90.0
465,126.63959853749999,127.27885216249999,53.0,63.0
466,126.2249475375,127.34277752499999,46.0,76.0
467,127.67622603749999,127.9872142875,58.0,85.0
468,127.46890053749999,127.99412513749999,61.0,96.0
469,127.0542495375,128.0286793875,65.0,90.0
470,128.2982025375,128.870075375,51.0,50.0
471,128.9201790375,129.125776825,51.0,58.0
472,127.8835515375,129.201796175,44.0,77.0
473,129.1275045375,129.5836206375,60.0,72.0
474,128.7128535375,129.58534835,63.0,89.0
475,129.33483003749998,129.609536325,56.0,85.0
476,129.9568065375,130.5165853875,49.0,62.0
477,129.54215553749998,130.666896375,42.0,73.0
478,130.78610853749998,131.2076703875,58.0,69.0
479,130.3714575375,131.2387692125,61.0,97.0
480,131.6154105375,132.1026254625,51.0,61.0
481,131.2007595375,132.18210023749998,44.0,70.0
482,132.44471253749998,132.79198275,60.0,75.0
483,132.0300615375,132.80580444999998,63.0,97.0
484,132.6520380375,132.8818238,56.0,79.0
485,133.2740145375,133.700759525,49.0,82.0
486,133.4813400375,133.956460975,56.0,69.0
487,133.6886655375,134.0791285625,63.0,88.0
488,134.3106420375,134.38838909999998,61.0,43.0
489,132.8593635375,134.39875537499998,37.0,75.0
490,133.89599103749998,134.5006904125,49.0,72.0
491,133.0666890375,134.5041458375,44.0,53.0
492,134.1033165375,135.21250796249998,65.0,78.0
493,134.9326185375,135.40428405,49.0,97.0
494,134.7252930375,135.63925294999999,44.0,92.0
495,135.1399440375,135.64616379999998,56.0,85.0
496,134.5179675375,135.6548023625,37.0,93.0
497,135.55459503749998,136.064270225,49.0,97.0
498,135.7619205375,136.09536905,61.0,99.0
499,135.9692460375,136.1299233,56.0,99.0
500,135.34726953749998,136.13683415,65.0,102.0
501,136.5912225375,137.114719425,53.0,88.0
502,136.79854803749998,137.1199025625,56.0,86.0
503,136.1765715375,137.39288113749998,41.0,85.0
504,136.3838970375,137.39288113749998,48.0,92.0
505,137.4205245375,137.71250795,60.0,86.0
506,137.2131990375,137.78679958749998,53.0,88.0
507,137.6278500375,137.8178984125,56.0,86.0
508,137.00587353749998,137.8248092625,65.0,92.0
509,138.24982653749998,138.56945335,58.0,93.0
510,138.45715203749998,138.68693779999998,61.0,97.0
511,138.0425010375,138.7439523125,53.0,66.0
512,138.8718030375,139.001381475,53.0,82.0
513,137.8351755375,139.049757425,46.0,82.0
514,138.6644775375,139.41257704999998,65.0,96.0
515,139.0791285375,139.41603247499998,61.0,100.0
516,139.2864540375,139.4661361375,58.0,86.0
517,139.90843053749998,140.169315125,58.0,107.0
518,139.4937795375,140.17277055,42.0,86.0
519,140.1157560375,140.26606702499998,61.0,92.0
520,139.70110503749999,140.29716585,49.0,86.0
521,140.3230815375,140.832756725,44.0,92.0
522,140.5304070375,141.02798823749998,56.0,79.0
523,140.7377325375,141.0832750375,63.0,88.0
524,140.9450580375,141.1109184375,60.0,81.0
525,141.35970903749998,141.6499647375,56.0,66.0
526,141.56703453749998,141.8607456625,61.0,78.0
527,141.7743600375,142.12163024999998,56.0,83.0
528,141.9816855375,142.7107802125,65.0,90.0
529,142.1890110375,142.75224531249998,63.0,75.0
530,141.1523835375,142.78161642499998,49.0,92.0
531,142.3963365375,142.836903225,61.0,88.0
532,143.2256385375,143.66447751249999,54.0,85.0
533,143.4329640375,143.7508631375,58.0,69.0
534,142.81098753749998,144.0514851125,42.0,69.0
535,143.8476150375,144.073945375,54.0,90.0
536,143.01831303749998,144.1102273375,49.0,82.0
537,143.6402895375,144.29509257499998,65.0,93.0
538,144.0549405375,144.31928055,61.0,93.0
539,144.26226603749998,144.3866613375,58.0,82.0
540,144.6769170375,144.9740835875,51.0,78.0
541,144.8842425375,145.186592225,55.0,88.0
542,145.0915680375,145.3749128875,51.0,90.0
543,144.46959153749998,145.48721419999998,43.0,100.0
544,145.2988935375,145.61852034999998,58.0,95.0
545,145.5062190375,145.870766375,51.0,68.0
546,145.71354453749998,145.99170625,55.0,81.0
547,145.92087003749998,146.098824425,58.0,86.0
548,146.5428465375,146.769176875,56.0,92.0
549,146.7501720375,147.00760119999998,60.0,89.0
550,146.3355210375,147.04733858749998,51.0,78.0
551,146.1281955375,147.3928810875,44.0,85.0
552,147.16482303749999,147.6451271125,51.0,86.0
553,147.37214853749998,147.6451271125,60.0,93.0
554,146.9574975375,147.65031025,63.0,95.0
555,147.5794740375,147.6865922125,61.0,56.0
556,147.7867995375,147.8783683,58.0,112.0
557,147.7867995375,147.8835514375,46.0,112.0
558,147.9941250375,148.29474701249998,44.0,95.0
559,147.9941250375,148.3154795625,56.0,102.0
560,150.0673800375,150.2263295875,58.0,95.0
561,149.8600545375,150.25224527499998,54.0,95.0
562,150.48203103749998,150.673807125,54.0,95.0
563,150.27470553749998,150.67899026249998,61.0,122.0
564,149.4454035375,150.8828603375,42.0,72.0
565,150.6893565375,150.97788452499998,58.0,92.0
566,150.8966820375,151.06599786249998,61.0,86.0
567,149.6527290375,151.06945328749998,49.0,99.0
568,151.5186585375,151.7778154125,56.0,93.0
569,151.72598403749998,151.90739385,60.0,100.0
570,151.3113330375,152.0369722875,51.0,89.0
571,151.1040075375,152.26675805,44.0,72.0
572,152.1406350375,152.26675805,51.0,72.0
573,151.93330953749998,152.6243945375,63.0,99.0
574,152.3479605375,152.705597025,60.0,100.0
575,152.5552860375,152.81962604999998,56.0,85.0
576,153.17726253749998,153.63510635,53.0,97.0
577,153.38458803749998,153.69039315,56.0,99.0
578,152.9699370375,153.9184512,48.0,86.0
579,152.7626115375,153.9374560375,41.0,79.0
580,153.7992390375,154.246716575,53.0,99.0
581,154.0065645375,154.30373108749998,60.0,89.0
582,153.5919135375,154.3970275625,65.0,99.0
583,154.2138900375,154.39875527499998,56.0,107.0
584,154.83586653749998,155.0881125625,58.0,99.0
585,155.04319203749998,155.16413191249998,65.0,89.0
586,155.04319203749998,155.1779536125,61.0,89.0
587,154.62854103749999,155.36454656249998,53.0,96.0
588,155.4578430375,155.5960600375,53.0,112.0
589,154.4212155375,155.69453965,46.0,82.0
590,155.2505175375,155.711816775,61.0,100.0
591,155.2505175375,155.946785675,65.0,99.0
592,155.8724940375,156.0331713,61.0,127.0
593,155.6651685375,156.1454726125,58.0,99.0
594,156.49447053749998,156.955769775,51.0,96.0
595,156.0798195375,157.2218375,39.0,90.0
596,156.28714503749998,157.2218375,46.0,96.0
597,156.7017960375,157.328955675,58.0,92.0
598,157.1164470375,157.57429084999998,51.0,100.0
599,157.3237725375,157.5967511125,63.0,97.0
600,156.9091215375,157.6278499375,66.0,102.0
601,157.5310980375,157.757428375,58.0,97.0
602,158.3604000375,158.50725559999998,60.0,100.0
603,158.1530745375,158.5124387375,56.0,89.0
604,157.94574903749998,158.669660575,51.0,76.0
605,158.7750510375,158.8925354875,51.0,76.0
606,157.73842353749998,158.9478222875,44.0,81.0
607,158.9823765375,159.3659287125,60.0,90.0
608,158.5677255375,159.4454034875,63.0,99.0
609,159.18970203749998,159.457497475,56.0,90.0
610,160.0190040375,160.12957763749998,56.0,97.0
611,160.0190040375,160.1399439125,53.0,90.0
612,159.8116785375,160.2626115,49.0,97.0
613,160.2263295375,160.35936339999998,53.0,96.0
614,160.2263295375,160.369729675,56.0,102.0
615,159.6043530375,160.67380707499998,44.0,93.0
616,160.64098053749998,160.67380707499998,44.0,61.0
617,160.4336550375,160.90359283749999,49.0,99.0
618,160.84830603749998,160.9416025125,68.0,93.0
619,160.84830603749998,160.9450579375,61.0,99.0
620,160.84830603749998,160.9450579375,65.0,99.0
621,159.39702753749998,161.040082125,37.0,81.0
622,161.0556315375,161.07118094999998,67.0,93.0
623,161.0556315375,161.5894947,61.0,112.0
624,161.0556315375,161.60331639999998,65.0,117.0
625,161.0556315375,161.61022724999998,68.0,117.0
626,161.6776080375,161.77435993749998,61.0,74.0
627,161.6776080375,161.779543075,65.0,77.0
628,161.6776080375,161.78990935,68.0,74.0
629,161.8849335375,161.90048295,67.0,86.0
630,161.6776080375,162.028333675,49.0,99.0
631,161.8849335375,162.12163015,61.0,100.0
632,161.8849335375,162.17173381249998,65.0,112.0
633,161.8849335375,162.17691695,68.0,102.0
634,161.2629570375,162.2442977375,37.0,86.0
635,161.4702825375,162.30995081249998,44.0,86.0
636,162.29958453749998,162.3894255875,68.0,72.0
637,162.09225903749999,162.6174836375,49.0,97.0
638,162.50691003749998,162.6658595875,65.0,102.0
639,162.29958453749998,162.8628188125,61.0,107.0
640,163.1288865375,163.62819545,54.0,95.0
641,163.3362120375,163.901174025,61.0,78.0
642,163.75086303749998,163.9823765125,54.0,95.0
643,162.7142355375,164.205251425,42.0,85.0
644,163.95818853749998,164.3140973125,66.0,100.0
645,163.5435375375,164.340013,70.0,107.0
646,162.9215610375,164.37111182499999,49.0,93.0
647,164.1655140375,164.4246709125,61.0,100.0
648,164.7874905375,165.2539729125,56.0,96.0
649,164.9948160375,165.31444284999998,63.0,100.0
650,164.5801650375,165.52695148749999,51.0,73.0
651,165.40946703749998,165.53559005,56.0,89.0
652,164.3728395375,165.5891491375,44.0,76.0
653,165.20214153749998,165.67899018749998,72.0,100.0
654,165.6167925375,166.257773875,68.0,122.0
655,165.8241180375,166.3838968875,72.0,69.0
656,166.4460945375,166.8952997875,53.0,83.0
657,166.65342003749998,166.990323975,65.0,95.0
658,166.0314435375,167.1544566625,41.0,86.0
659,166.2387690375,167.1682783625,48.0,74.0
660,167.2753965375,167.58984021249998,68.0,95.0
661,166.86074553749998,167.605389625,72.0,99.0
662,167.0680710375,167.6071173375,53.0,86.0
663,167.4827220375,167.6935029625,65.0,93.0
664,168.10469853749998,168.40013737499999,58.0,83.0
665,168.31202403749998,168.45196875,65.0,78.0
666,168.31202403749998,168.455424175,61.0,78.0
667,167.8973730375,168.5970966,53.0,65.0
668,168.7266750375,168.8510703375,53.0,72.0
669,167.6900475375,168.89426315,46.0,73.0
670,168.51934953749998,168.980648775,61.0,107.0
671,168.51934953749998,169.28127075,65.0,97.0
672,169.1413260375,169.298547875,61.0,99.0
673,168.9340005375,169.837594175,58.0,96.0
674,169.76330253749998,170.2090523625,51.0,88.0
675,169.3486515375,170.4906695,39.0,79.0
676,169.55597703749999,170.501035775,46.0,73.0
677,169.97062803749998,170.5269514625,58.0,81.0
678,170.3852790375,170.818934875,51.0,75.0
679,170.1779535375,170.8776771,66.0,95.0
680,170.5926045375,170.888043375,63.0,95.0
681,170.7999300375,171.0383543625,58.0,95.0
682,171.42190653749998,171.77608759999998,56.0,82.0
683,171.6292320375,171.78299844999998,60.0,77.0
684,171.21458103749998,171.931581725,51.0,71.0
685,172.0438830375,172.17000604999998,51.0,72.0
686,171.0072555375,172.2235651375,44.0,81.0
687,172.2512085375,172.5863847625,60.0,85.0
688,171.8365575375,172.60711731249998,63.0,99.0
689,172.4585340375,172.7211463375,56.0,93.0
690,173.0805105375,173.45715186249998,49.0,86.0
691,173.2878360375,173.50034467499998,56.0,89.0
692,173.4951615375,173.88389684999999,65.0,99.0
693,172.66585953749998,174.129232025,37.0,64.0
694,173.9098125375,174.2035236625,63.0,92.0
695,173.7024870375,174.260538175,49.0,72.0
696,172.87318503749998,174.3054587,44.0,48.0
697,174.11713803749998,175.01727624999998,65.0,68.0
698,174.32446353749998,175.0293702375,61.0,85.0
699,174.32446353749998,175.57878281249998,37.0,76.0
700,174.7391145375,175.60124307499999,44.0,48.0
701,175.1537655375,175.967518125,61.0,60.0
702,175.1537655375,175.981339825,65.0,70.0
703,175.56841653749998,175.98306753749998,56.0,52.0
704,176.6050440375,176.76399358749998,58.0,95.0
705,176.3977185375,176.78990927499999,54.0,95.0
706,177.0196950375,177.211471125,54.0,95.0
707,176.8123695375,177.2166542625,61.0,122.0
708,175.98306753749998,177.42052433749998,42.0,72.0
709,177.22702053749998,177.51554852499999,58.0,92.0
710,177.43434603749998,177.6036618625,61.0,86.0
711,176.1903930375,177.6071172875,49.0,99.0
712,178.0563225375,178.3154794125,56.0,93.0
713,178.2636480375,178.44505784999998,60.0,100.0
714,177.8489970375,178.5746362875,51.0,89.0
715,177.6416715375,178.80442205,44.0,72.0
716,178.67829903749998,178.80442205,51.0,72.0
717,178.4709735375,179.1620585375,63.0,99.0
718,178.88562453749998,179.24326102499998,60.0,100.0
719,179.0929500375,179.35729005,56.0,85.0
720,179.7149265375,180.17277034999998,53.0,97.0
721,179.9222520375,180.22805714999998,56.0,99.0
722,179.5076010375,180.4561152,48.0,86.0
723,179.3002755375,180.47512003749998,41.0,79.0
724,180.33690303749998,180.784380575,53.0,99.0
725,180.5442285375,180.8413950875,60.0,89.0
726,180.12957753749998,180.93469156249998,65.0,99.0
727,180.7515540375,180.936419275,56.0,107.0
728,181.3735305375,181.6257765625,58.0,99.0
729,181.58085603749998,181.7017959125,65.0,89.0
730,181.58085603749998,181.71561761249998,61.0,89.0
731,181.1662050375,181.9022105625,53.0,96.0
732,181.99550703749998,182.1337240375,53.0,112.0
733,180.9588795375,182.23220365,46.0,82.0
734,181.78818153749998,182.249480775,61.0,100.0
735,181.78818153749998,182.48444967499998,65.0,99.0
736,182.4101580375,182.5708353,61.0,127.0
737,182.2028325375,182.6831366125,58.0,99.0
738,183.03213453749999,183.493433775,51.0,96.0
739,182.6174835375,183.7595015,39.0,90.0
740,182.8248090375,183.7595015,46.0,96.0
741,183.23946003749998,183.86661967499998,58.0,92.0
742,183.6541110375,184.11195485,51.0,100.0
743,183.8614365375,184.1344151125,63.0,97.0
744,183.44678553749998,184.16551393749998,66.0,102.0
745,184.0687620375,184.295092375,58.0,97.0
746,184.89806403749998,185.0449196,60.0,100.0
747,184.69073853749998,185.0501027375,56.0,89.0
748,184.4834130375,185.207324575,51.0,76.0
749,185.3127150375,185.43019948749998,51.0,76.0
750,184.2760875375,185.48548628749998,44.0,81.0
751,185.5200405375,185.9035927125,60.0,90.0
752,185.1053895375,185.9830674875,63.0,99.0
753,185.7273660375,185.995161475,56.0,90.0
754,186.5566680375,186.66724163749998,56.0,97.0
755,186.5566680375,186.67760791249998,53.0,90.0
756,186.34934253749998,186.8002755,49.0,97.0
757,186.7639935375,186.89702739999998,53.0,96.0
758,186.7639935375,186.90739367499998,56.0,102.0
759,186.14201703749998,187.211471075,44.0,93.0
760,187.1786445375,187.211471075,44.0,61.0
761,186.9713190375,187.4412568375,49.0,99.0
762,187.3859700375,187.4792665125,68.0,93.0
763,187.3859700375,187.4827219375,61.0,99.0
764,187.3859700375,187.4827219375,65.0,99.0
765,185.9346915375,187.57774612499998,37.0,81.0
766,187.59329553749998,187.60884495,67.0,93.0
767,187.59329553749998,188.1271587,61.0,112.0
768,187.59329553749998,188.1409804,65.0,117.0
769,187.59329553749998,188.14789125,68.0,117.0
770,188.2152720375,188.3120239375,61.0,74.0
771,188.2152720375,188.317207075,65.0,77.0
772,188.2152720375,188.32757335,68.0,74.0
773,188.4225975375,188.43814695,67.0,86.0
774,188.2152720375,188.56599767499998,49.0,99.0
775,188.4225975375,188.65929415,61.0,100.0
776,188.4225975375,188.7093978125,65.0,112.0
777,188.4225975375,188.71458095,68.0,102.0
778,187.80062103749998,188.78196173749998,37.0,86.0
779,188.0079465375,188.84761481249998,44.0,86.0
780,188.8372485375,188.92708958749998,68.0,72.0
781,188.6299230375,189.1551476375,49.0,97.0
782,189.04457403749998,189.2035235875,65.0,102.0
783,188.8372485375,189.4004828125,61.0,107.0
784,189.6665505375,190.16585945,54.0,95.0
785,189.8738760375,190.438838025,61.0,78.0
786,190.2885270375,190.5200405125,54.0,95.0
787,189.25189953749998,190.74291542499998,42.0,85.0
788,190.49585253749999,190.8517613125,66.0,100.0
789,190.0812015375,190.87767699999998,70.0,107.0
790,189.45922503749998,190.908775825,49.0,93.0
791,190.70317803749998,190.96233491249998,61.0,100.0
792,191.3251545375,191.7916369125,56.0,96.0
793,191.5324800375,191.85210684999998,63.0,100.0
794,191.1178290375,192.0646154875,51.0,73.0
795,191.9471310375,192.07325405,56.0,89.0
796,190.91050353749998,192.1268131375,44.0,76.0
797,191.7398055375,192.21665418749998,72.0,100.0
798,192.15445653749998,192.79543787499998,68.0,122.0
799,192.36178203749998,192.9215608875,72.0,69.0
800,192.9837585375,193.4329637875,53.0,83.0
801,193.1910840375,193.527987975,65.0,95.0
802,192.5691075375,193.6921206625,41.0,86.0
803,192.7764330375,193.7059423625,48.0,74.0
804,193.81306053749998,194.12750421249999,68.0,95.0
805,193.3984095375,194.143053625,72.0,99.0
806,193.60573503749998,194.14478133749998,53.0,86.0
807,194.0203860375,194.2311669625,65.0,93.0
808,194.6423625375,194.937801375,58.0,83.0
809,194.8496880375,194.98963275,65.0,78.0
810,194.8496880375,194.993088175,61.0,78.0
811,194.4350370375,195.1347606,53.0,65.0
812,195.26433903749998,195.38873433749998,53.0,72.0
813,194.2277115375,195.43192714999998,46.0,73.0
814,195.05701353749998,195.518312775,61.0,107.0
815,195.05701353749998,195.81893474999998,65.0,97.0
816,195.6789900375,195.836211875,61.0,99.0
817,195.47166453749998,196.375258175,58.0,96.0
818,196.3009665375,196.7467163625,51.0,88.0
819,195.8863155375,197.0283335,39.0,79.0
820,196.0936410375,197.038699775,46.0,73.0
821,196.50829203749998,197.0646154625,58.0,81.0
822,196.92294303749998,197.356598875,51.0,75.0
823,196.71561753749998,197.41534109999998,66.0,95.0
824,197.1302685375,197.425707375,63.0,95.0
825,197.3375940375,197.57601836249998,58.0,95.0
826,197.95957053749999,198.3137516,56.0,82.0
827,198.16689603749998,198.32066245,60.0,77.0
828,197.7522450375,198.46924572499998,51.0,71.0
829,198.5815470375,198.70767005,51.0,72.0
830,197.5449195375,198.76122913749998,44.0,81.0
831,198.7888725375,199.1240487625,60.0,85.0
832,198.37422153749998,199.1447813125,63.0,99.0
833,198.9961980375,199.2588103375,56.0,93.0
834,199.61817453749998,199.9948158625,49.0,86.0
835,199.82550003749998,200.038008675,56.0,89.0
836,200.0328255375,200.42156085,65.0,99.0
837,199.2035235375,200.666896025,37.0,64.0
838,200.4474765375,200.74118766249998,63.0,92.0
839,200.2401510375,200.798202175,49.0,72.0
840,199.4108490375,200.84312269999998,44.0,48.0
841,200.6548020375,200.8621275375,65.0,68.0
842,200.8621275375,202.49581451458332,56.0,67.0
843,200.8621275375,202.49933563541666,61.0,64.0
844,200.8621275375,202.50813843749998,37.0,42.0
845,200.8621275375,202.52398348124999,65.0,69.0
846,200.8621275375,202.53454684374998,49.0,53.0
847,203.38313696458331,203.83560099166667,54.0,82.0
848,202.55567356875,204.0010936708333,42.0,74.0
849,202.95532078333332,204.17362859166664,49.0,53.0
850,203.75637577291664,204.27574109583333,58.0,85.0
851,204.62785317916666,205.18066915,51.0,56.0
852,204.1753891520833,205.22292259999998,44.0,79.0
853,205.47292217916666,205.8972172395833,60.0,70.0
854,205.05214823958332,205.91834396458333,63.0,93.0
855,207.11904616874997,207.61728476666664,61.0,66.0
856,207.56446795416664,208.04862206874998,63.0,86.0
857,206.30566725625,208.41305807499998,44.0,55.0
858,205.8549637895833,208.45002984374997,37.0,72.0
859,207.98524189375,208.46763544791665,65.0,95.0
860,206.72468063541666,208.61024084166667,49.0,81.0
861,208.40073415208332,208.85671929999998,63.0,112.0
862,208.81622641041665,209.98875964791665,61.0,66.0
863,210.09967495416666,210.45002647708333,54.0,53.0
864,209.22291586666665,210.87960321875,42.0,67.0
865,209.70178829999998,211.04157477708333,49.0,50.0
866,210.13840728333332,211.0627015020833,61.0,78.0
867,210.56622346458332,211.19650409374998,58.0,76.0
868,211.89720713958332,212.23523473958332,56.0,68.0
869,211.51868664999998,212.49051599999999,51.0,56.0
870,211.01164525,212.55389617499998,44.0,86.0
871,211.90600994166664,214.13311886875,60.0,74.0
872,212.40072741875,214.20354128541666,56.0,77.0
873,214.75459669583333,215.1243143833333,53.0,61.0
874,215.08734261458332,215.1947368,56.0,56.0
875,214.1419216708333,218.21585847499998,44.0,40.0
876,214.39896349166665,218.22114015625,49.0,69.0
877,216.04684804166666,218.24050632083333,65.0,63.0
878,216.45705861874998,218.24578800208332,68.0,40.0
879,213.68593652291665,218.24930912291666,37.0,73.0
880,216.96233945833333,218.25106968333333,73.0,37.0
881,215.53804608124997,218.25283024375,61.0,53.0
