,start,end,pitch,velocity
0,37.2109375,37.41796875,81.0,74.0
1,37.4453125,37.611328125,84.0,69.0
2,37.6796875,38.140625,86.0,83.0
3,38.1484375,38.681640625,84.0,71.0
4,38.6171875,38.947265625,79.0,74.0
5,38.90234375,39.53125,84.0,65.0
6,39.5546875,40.52734375,81.0,70.0
7,40.9609375,41.251953125,74.0,59.0
8,41.1953125,41.462890625,77.0,71.0
9,41.4296875,41.923828125,81.0,61.0
10,41.8984375,42.37890625,79.0,70.0
11,42.3671875,42.693359375,72.0,59.0
12,42.6015625,43.240234375,76.0,73.0
13,43.3046875,44.224609375,74.0,73.0
14,45.1796875,45.70703125,81.0,90.0
15,45.8828125,45.998046875,79.0,76.0
16,46.1171875,46.439453125,79.0,74.0
17,46.5859375,47.0703125,74.0,69.0
18,47.0546875,47.857421875,79.0,95.0
19,48.9296875,49.2109375,86.0,76.0
20,49.3984375,49.48046875,86.0,71.0
21,49.6328125,49.8125,86.0,71.0
22,49.8671875,50.21484375,84.0,67.0
23,50.3359375,50.74609375,79.0,76.0
24,50.8046875,51.421875,81.0,74.0
25,52.6796875,52.93359375,86.0,72.0
26,53.1484375,53.322265625,86.0,73.0
27,53.3828125,53.626953125,89.0,65.0
28,53.6171875,54.08203125,86.0,72.0
29,54.0859375,54.384765625,84.0,66.0
30,54.5546875,55.203125,79.0,67.0
31,56.4296875,56.693359375,77.0,93.0
32,56.8984375,57.037109375,77.0,95.0
33,57.1328125,57.27734375,79.0,67.0
34,57.3671875,57.806640625,77.0,95.0
35,57.8359375,58.33203125,72.0,59.0
36,58.3046875,59.03515625,74.0,77.0
37,59.7109375,59.91796875,81.0,74.0
38,59.9453125,60.111328125,84.0,69.0
39,60.1796875,60.640625,86.0,83.0
40,60.6484375,61.181640625,84.0,71.0
41,61.1171875,61.447265625,79.0,74.0
42,61.40234375,62.03125,84.0,65.0
43,62.0546875,63.02734375,81.0,70.0
44,63.4609375,63.751953125,74.0,59.0
45,63.6953125,63.962890625,77.0,71.0
46,63.9296875,64.423828125,81.0,61.0
47,64.3984375,64.87890625,79.0,70.0
48,64.8671875,65.193359375,72.0,59.0
49,65.1015625,65.740234375,76.0,73.0
50,65.8046875,66.724609375,74.0,73.0
51,67.6796875,68.20703125,81.0,90.0
52,68.3828125,68.498046875,79.0,76.0
53,68.6171875,68.939453125,79.0,74.0
54,69.0859375,69.5703125,74.0,69.0
55,69.5546875,70.357421875,79.0,95.0
56,71.4296875,71.7109375,86.0,76.0
57,71.8984375,71.98046875,86.0,71.0
58,72.1328125,72.3125,86.0,71.0
59,72.3671875,72.71484375,84.0,67.0
60,72.8359375,73.24609375,79.0,76.0
61,73.3046875,73.921875,81.0,74.0
62,75.1796875,75.43359375,86.0,72.0
63,75.6484375,75.822265625,86.0,73.0
64,75.8828125,76.126953125,89.0,65.0
65,76.1171875,76.58203125,86.0,72.0
66,76.5859375,76.884765625,84.0,66.0
67,77.0546875,77.703125,79.0,67.0
68,78.9296875,79.193359375,77.0,93.0
69,79.3984375,79.537109375,77.0,95.0
70,79.6328125,79.77734375,79.0,67.0
71,79.8671875,80.306640625,77.0,95.0
72,80.3359375,80.83203125,72.0,59.0
73,80.8046875,81.53515625,74.0,77.0
74,82.6796875,83.189453125,81.0,85.0
75,83.1484375,83.37890625,86.0,71.0
76,83.6171875,83.8984375,86.0,104.0
77,84.0859375,84.33203125,84.0,68.0
78,84.3203125,84.533203125,81.0,72.0
79,84.5546875,84.8671875,84.0,74.0
80,85.0234375,85.326171875,88.0,87.0
81,85.4921875,86.138671875,86.0,77.0
82,86.4296875,86.66796875,89.0,90.0
83,86.8984375,87.01171875,89.0,87.0
84,87.1328125,87.25390625,91.0,74.0
85,87.3671875,87.640625,89.0,98.0
86,87.8359375,88.078125,86.0,85.0
87,88.3046875,88.962890625,84.0,90.0
88,88.7734375,89.201171875,86.0,87.0
89,89.2421875,89.720703125,81.0,90.0
90,90.1796875,90.548828125,74.0,71.0
91,90.6484375,90.95703125,79.0,74.0
92,91.1171875,91.4921875,79.0,104.0
93,91.5859375,91.830078125,79.0,85.0
94,92.0546875,92.41796875,81.0,74.0
95,92.5234375,92.837890625,84.0,93.0
96,92.9921875,93.265625,86.0,104.0
97,93.4609375,93.802734375,86.0,100.0
98,93.9296875,94.20703125,89.0,81.0
99,94.3984375,94.611328125,89.0,71.0
100,94.6328125,94.76953125,91.0,86.0
101,94.8671875,95.115234375,93.0,79.0
102,95.3359375,95.677734375,93.0,87.0
103,95.8046875,96.169921875,84.0,98.0
104,96.5078125,96.732421875,84.0,95.0
105,96.7421875,96.99609375,81.0,71.0
106,97.2109375,97.490234375,84.0,75.0
107,97.6796875,99.5546875,86.0,114.0
108,101.4296875,101.939453125,81.0,85.0
109,101.8984375,102.12890625,86.0,71.0
110,102.3671875,102.6484375,86.0,104.0
111,102.8359375,103.08203125,84.0,68.0
112,103.0703125,103.283203125,81.0,72.0
113,103.3046875,103.6171875,84.0,74.0
114,103.7734375,104.076171875,88.0,87.0
115,104.2421875,104.888671875,86.0,77.0
116,105.1796875,105.41796875,89.0,90.0
117,105.6484375,105.76171875,89.0,87.0
118,105.8828125,106.00390625,91.0,74.0
119,106.1171875,106.390625,89.0,98.0
120,106.5859375,106.828125,86.0,85.0
121,107.0546875,107.712890625,84.0,90.0
122,107.5234375,107.951171875,86.0,87.0
123,107.9921875,108.470703125,81.0,90.0
124,108.9296875,109.298828125,74.0,71.0
125,109.3984375,109.70703125,79.0,74.0
126,109.8671875,110.2421875,79.0,104.0
127,110.3359375,110.580078125,79.0,85.0
128,110.8046875,111.16796875,81.0,74.0
129,111.2734375,111.587890625,84.0,93.0
130,111.7421875,112.015625,86.0,104.0
131,112.2109375,112.552734375,86.0,100.0
132,112.6796875,112.95703125,89.0,81.0
133,113.1484375,113.361328125,89.0,71.0
134,113.3828125,113.51953125,91.0,86.0
135,113.6171875,113.865234375,93.0,79.0
136,114.0859375,114.427734375,93.0,87.0
137,114.5546875,114.919921875,84.0,98.0
138,115.2578125,115.482421875,84.0,95.0
139,115.4921875,115.74609375,81.0,71.0
140,115.9609375,116.240234375,84.0,75.0
141,116.4296875,118.3046875,86.0,114.0
142,149.7109375,149.91796875,81.0,74.0
143,149.9453125,150.111328125,84.0,69.0
144,150.1796875,150.640625,86.0,83.0
145,150.6484375,151.181640625,84.0,71.0
146,151.1171875,151.447265625,79.0,74.0
147,151.40234375,152.03125,84.0,65.0
148,152.0546875,153.02734375,81.0,70.0
149,153.4609375,153.751953125,74.0,59.0
150,153.6953125,153.962890625,77.0,71.0
151,153.9296875,154.423828125,81.0,61.0
152,154.3984375,154.87890625,79.0,70.0
153,154.8671875,155.193359375,72.0,59.0
154,155.1015625,155.740234375,76.0,73.0
155,155.8046875,156.724609375,74.0,73.0
156,157.6796875,158.20703125,81.0,90.0
157,158.3828125,158.498046875,79.0,76.0
158,158.6171875,158.939453125,79.0,74.0
159,159.0859375,159.5703125,74.0,69.0
160,159.5546875,160.357421875,79.0,95.0
161,161.4296875,161.7109375,86.0,76.0
162,161.8984375,161.98046875,86.0,71.0
163,162.1328125,162.3125,86.0,71.0
164,162.3671875,162.71484375,84.0,67.0
165,162.8359375,163.24609375,79.0,76.0
166,163.3046875,163.921875,81.0,74.0
167,165.1796875,165.43359375,86.0,72.0
168,165.6484375,165.822265625,86.0,73.0
169,165.8828125,166.126953125,89.0,65.0
170,166.1171875,166.58203125,86.0,72.0
171,166.5859375,166.884765625,84.0,66.0
172,167.0546875,167.703125,79.0,67.0
173,168.9296875,169.193359375,77.0,93.0
174,169.3984375,169.537109375,77.0,95.0
175,169.6328125,169.77734375,79.0,67.0
176,169.8671875,170.306640625,77.0,95.0
177,170.3359375,170.83203125,72.0,59.0
178,170.8046875,171.53515625,74.0,77.0
179,172.6796875,173.189453125,81.0,85.0
180,173.1484375,173.37890625,86.0,71.0
181,173.6171875,173.8984375,86.0,104.0
182,174.0859375,174.33203125,84.0,68.0
183,174.3203125,174.533203125,81.0,72.0
184,174.5546875,174.8671875,84.0,74.0
185,175.0234375,175.326171875,88.0,87.0
186,175.4921875,176.138671875,86.0,77.0
187,176.4296875,176.66796875,89.0,90.0
188,176.8984375,177.01171875,89.0,87.0
189,177.1328125,177.25390625,91.0,74.0
190,177.3671875,177.640625,89.0,98.0
191,177.8359375,178.078125,86.0,85.0
192,178.3046875,178.962890625,84.0,90.0
193,178.7734375,179.201171875,86.0,87.0
194,179.2421875,179.720703125,81.0,90.0
195,180.1796875,180.548828125,74.0,71.0
196,180.6484375,180.95703125,79.0,74.0
197,181.1171875,181.4921875,79.0,104.0
198,181.5859375,181.830078125,79.0,85.0
199,182.0546875,182.41796875,81.0,74.0
200,182.5234375,182.837890625,84.0,93.0
201,182.9921875,183.265625,86.0,104.0
202,183.4609375,183.802734375,86.0,100.0
203,183.9296875,184.20703125,89.0,81.0
204,184.3984375,184.611328125,89.0,71.0
205,184.6328125,184.76953125,91.0,86.0
206,184.8671875,185.115234375,93.0,79.0
207,185.3359375,185.677734375,93.0,87.0
208,185.8046875,186.169921875,84.0,98.0
209,186.5078125,186.732421875,84.0,95.0
210,186.7421875,186.99609375,81.0,71.0
211,187.2109375,187.490234375,84.0,75.0
212,187.6796875,189.5546875,86.0,114.0
213,191.4296875,191.939453125,81.0,85.0
214,191.8984375,192.12890625,86.0,71.0
215,192.3671875,192.6484375,86.0,104.0
216,192.8359375,193.08203125,84.0,68.0
217,193.0703125,193.283203125,81.0,72.0
218,193.3046875,193.6171875,84.0,74.0
219,193.7734375,194.076171875,88.0,87.0
220,194.2421875,194.888671875,86.0,77.0
221,195.1796875,195.41796875,89.0,90.0
222,195.6484375,195.76171875,89.0,87.0
223,195.8828125,196.00390625,91.0,74.0
224,196.1171875,196.390625,89.0,98.0
225,196.5859375,196.828125,86.0,85.0
226,197.0546875,197.712890625,84.0,90.0
227,197.5234375,197.951171875,86.0,87.0
228,197.9921875,198.470703125,81.0,90.0
229,198.9296875,199.298828125,74.0,71.0
230,199.3984375,199.70703125,79.0,74.0
231,199.8671875,200.2421875,79.0,104.0
232,200.3359375,200.580078125,79.0,85.0
233,200.8046875,201.16796875,81.0,74.0
234,201.2734375,201.587890625,84.0,93.0
235,201.7421875,202.015625,86.0,104.0
236,202.2109375,202.552734375,86.0,100.0
237,202.6796875,202.95703125,89.0,81.0
238,203.1484375,203.361328125,89.0,71.0
239,203.3828125,203.51953125,91.0,86.0
240,203.6171875,203.865234375,93.0,79.0
241,204.0859375,204.427734375,93.0,87.0
242,204.5546875,204.919921875,84.0,98.0
243,205.2578125,205.482421875,84.0,95.0
244,205.4921875,205.74609375,81.0,71.0
245,205.9609375,206.240234375,84.0,75.0
246,206.4296875,208.3046875,86.0,114.0
247,210.1796875,210.689453125,81.0,85.0
248,210.6484375,210.87890625,86.0,71.0
249,211.1171875,211.3984375,86.0,104.0
250,211.5859375,211.83203125,84.0,68.0
251,211.8203125,212.033203125,81.0,72.0
252,212.0546875,212.3671875,84.0,74.0
253,212.5234375,212.826171875,88.0,87.0
254,212.9921875,213.638671875,86.0,77.0
255,213.9296875,214.16796875,89.0,90.0
256,214.3984375,214.51171875,89.0,87.0
257,214.6328125,214.75390625,91.0,74.0
258,214.8671875,215.140625,89.0,98.0
259,215.3359375,215.578125,86.0,85.0
260,215.8046875,216.462890625,84.0,90.0
261,216.2734375,216.701171875,86.0,87.0
262,216.7421875,217.220703125,81.0,90.0
263,217.6796875,218.048828125,74.0,71.0
264,218.1484375,218.45703125,79.0,74.0
265,218.6171875,218.9921875,79.0,104.0
266,219.0859375,219.330078125,79.0,85.0
267,219.5546875,219.91796875,81.0,74.0
268,220.0234375,220.337890625,84.0,93.0
269,220.4921875,220.765625,86.0,104.0
270,220.9609375,221.302734375,86.0,100.0
271,221.4296875,221.70703125,89.0,81.0
272,221.8984375,222.111328125,89.0,71.0
273,222.1328125,222.26953125,91.0,86.0
274,222.3671875,222.615234375,93.0,79.0
275,222.8359375,223.177734375,93.0,87.0
276,223.3046875,223.669921875,84.0,98.0
277,224.0078125,224.232421875,84.0,95.0
278,224.2421875,224.49609375,81.0,71.0
279,224.7109375,224.990234375,84.0,75.0
280,225.1796875,227.0546875,86.0,114.0
281,228.9296875,229.439453125,81.0,85.0
282,229.3984375,229.62890625,86.0,71.0
283,229.8671875,230.1484375,86.0,104.0
284,230.3359375,230.58203125,84.0,68.0
285,230.5703125,230.783203125,81.0,72.0
286,230.8046875,231.1171875,84.0,74.0
287,231.2734375,231.576171875,88.0,87.0
288,231.7421875,232.388671875,86.0,77.0
289,232.6796875,232.91796875,89.0,90.0
290,233.1484375,233.26171875,89.0,87.0
291,233.3828125,233.50390625,91.0,74.0
292,233.6171875,233.890625,89.0,98.0
293,234.0859375,234.328125,86.0,85.0
294,234.5546875,235.212890625,84.0,90.0
295,235.0234375,235.451171875,86.0,87.0
296,235.4921875,235.970703125,81.0,90.0
297,236.4296875,236.798828125,74.0,71.0
298,236.8984375,237.20703125,79.0,74.0
299,237.3671875,237.7421875,79.0,104.0
300,237.8359375,238.080078125,79.0,85.0
301,238.3046875,238.66796875,81.0,74.0
302,238.7734375,239.087890625,84.0,93.0
303,239.2421875,239.515625,86.0,104.0
304,239.7109375,240.052734375,86.0,100.0
305,240.1796875,240.45703125,89.0,81.0
306,240.6484375,240.861328125,89.0,71.0
307,240.8828125,241.01953125,91.0,86.0
308,241.1171875,241.365234375,93.0,79.0
309,241.5859375,241.927734375,93.0,87.0
310,242.0546875,242.419921875,84.0,98.0
311,242.7578125,242.982421875,84.0,95.0
312,242.9921875,243.24609375,81.0,71.0
313,243.4609375,243.740234375,84.0,75.0
314,243.9296875,245.8046875,86.0,114.0
315,247.6796875,248.2421875,74.0,79.0
316,248.1484375,248.49609375,79.0,90.0
317,248.6171875,248.951171875,79.0,87.0
318,249.0859375,249.396484375,79.0,90.0
319,249.5546875,250.056640625,81.0,83.0
320,250.0234375,250.388671875,84.0,71.0
321,250.4921875,250.833984375,86.0,77.0
322,250.9609375,251.22265625,86.0,108.0
323,251.4296875,251.896484375,89.0,76.0
324,252.1328125,252.265625,91.0,74.0
325,252.3671875,252.685546875,93.0,85.0
326,252.8359375,253.259765625,93.0,85.0
327,253.5390625,254.2421875,84.0,87.0
328,254.4765625,254.92578125,84.0,67.0
329,254.9453125,255.703125,81.0,68.0
330,255.6484375,258.33203125,84.0,72.0
331,258.9296875,261.515625,86.0,86.0
