,start,end,pitch,velocity
0,3.9296875,5.236328125,65.0,64.0
1,3.9296875,5.23828125,69.0,60.0
2,4.3984375,5.2578125,57.0,64.0
3,3.9296875,5.302734375,50.0,71.0
4,5.8046875,7.470703125,46.0,72.0
5,6.7421875,7.5390625,65.0,79.0
6,6.7421875,7.548828125,62.0,66.0
7,7.6796875,8.1796875,65.0,74.0
8,7.6796875,8.185546875,62.0,64.0
9,7.6796875,8.21875,46.0,75.0
10,8.6171875,9.103515625,64.0,67.0
11,8.6171875,9.12890625,67.0,74.0
12,8.6171875,9.5390625,48.0,77.0
13,10.4921875,11.265625,65.0,71.0
14,9.5546875,11.2890625,57.0,54.0
15,9.5546875,11.2890625,60.0,56.0
16,10.0234375,11.337890625,48.0,70.0
17,9.5546875,11.375,41.0,79.0
18,11.4296875,13.166015625,43.0,67.0
19,11.8984375,13.251953125,50.0,67.0
20,12.3671875,13.294921875,58.0,62.0
21,13.7734375,14.98828125,52.0,61.0
22,13.3046875,15.00390625,45.0,74.0
23,14.2421875,15.013671875,60.0,64.0
24,15.1796875,16.52734375,46.0,73.0
25,15.6484375,16.5703125,53.0,57.0
26,16.1171875,17.060546875,62.0,62.0
27,17.0546875,18.482421875,48.0,74.0
28,17.9921875,18.70703125,64.0,64.0
29,17.5234375,18.955078125,55.0,59.0
30,18.9296875,19.7421875,65.0,68.0
31,18.9296875,19.75,69.0,68.0
32,19.8671875,20.7421875,65.0,65.0
33,19.8671875,20.7421875,69.0,73.0
34,20.3359375,21.0703125,62.0,36.0
35,20.8046875,21.630859375,69.0,71.0
36,20.8046875,21.634765625,65.0,70.0
37,21.2734375,21.82421875,62.0,54.0
38,19.3984375,22.08203125,57.0,65.0
39,21.7421875,22.11328125,69.0,71.0
40,18.9296875,22.1171875,50.0,74.0
41,21.7421875,22.12109375,65.0,68.0
42,22.6796875,23.365234375,46.0,60.0
43,22.6796875,23.408203125,62.0,69.0
44,22.6796875,23.439453125,65.0,75.0
45,23.6171875,24.08984375,69.0,67.0
46,23.6171875,24.16796875,48.0,70.0
47,23.6171875,24.19140625,64.0,60.0
48,24.5546875,26.064453125,41.0,87.0
49,25.0234375,26.08203125,48.0,59.0
50,25.4921875,26.1015625,60.0,67.0
51,25.4921875,26.12890625,57.0,60.0
52,26.4296875,27.255859375,65.0,67.0
53,26.4296875,27.275390625,69.0,68.0
54,26.8984375,27.412109375,57.0,63.0
55,26.4296875,27.56640625,50.0,76.0
56,27.3671875,27.734375,69.0,69.0
57,27.3671875,27.740234375,65.0,69.0
58,28.3046875,28.884765625,62.0,67.0
59,28.3046875,29.1953125,58.0,63.0
60,29.2421875,29.810546875,62.0,79.0
61,28.3046875,29.814453125,43.0,70.0
62,28.7734375,29.83203125,50.0,54.0
63,29.2421875,29.83984375,58.0,63.0
64,30.1796875,31.029296875,60.0,64.0
65,30.1796875,31.03515625,64.0,74.0
66,31.1171875,31.935546875,60.0,60.0
67,31.1171875,31.94140625,64.0,66.0
68,30.1796875,33.419921875,45.0,66.0
69,31.5859375,33.421875,57.0,47.0
70,30.6484375,33.431640625,52.0,58.0
71,32.0546875,33.44140625,64.0,59.0
72,32.0546875,33.44921875,60.0,58.0
73,33.9296875,34.423828125,67.0,64.0
74,33.9296875,34.42578125,64.0,61.0
75,34.8671875,35.70703125,69.0,67.0
76,34.8671875,35.734375,65.0,61.0
77,35.3359375,35.8046875,62.0,33.0
78,35.8046875,36.408203125,69.0,59.0
79,35.8046875,36.44921875,65.0,46.0
80,34.3984375,37.130859375,57.0,63.0
81,33.9296875,37.17578125,50.0,74.0
82,36.7421875,37.212890625,69.0,74.0
83,36.7421875,37.220703125,65.0,66.0
84,36.2734375,37.2734375,62.0,68.0
85,38.3828125,38.69921875,65.0,70.0
86,38.1484375,39.017578125,62.0,55.0
87,37.9140625,39.255859375,57.0,61.0
88,37.6796875,39.318359375,50.0,70.0
89,38.6171875,40.212890625,69.0,63.0
90,40.2578125,40.541015625,65.0,60.0
91,40.0234375,40.845703125,62.0,58.0
92,39.7890625,40.962890625,57.0,66.0
93,40.4921875,41.015625,69.0,67.0
94,39.5546875,41.078125,50.0,76.0
95,40.9609375,41.44140625,65.0,66.0
96,41.4296875,42.271484375,43.0,58.0
97,41.8984375,42.31640625,55.0,58.0
98,41.6640625,42.365234375,50.0,69.0
99,42.1328125,42.40234375,58.0,61.0
100,42.3671875,42.4921875,62.0,65.0
101,42.3671875,42.900390625,45.0,74.0
102,42.6015625,42.96875,52.0,79.0
103,42.8359375,43.091796875,60.0,59.0
104,42.8359375,43.216796875,57.0,59.0
105,43.0703125,43.248046875,64.0,60.0
106,43.7734375,44.96484375,62.0,45.0
107,44.2421875,44.99609375,65.0,61.0
108,43.5390625,45.048828125,57.0,60.0
109,43.3046875,45.09765625,50.0,79.0
110,45.1796875,45.677734375,62.0,61.0
111,45.1796875,46.001953125,58.0,61.0
112,46.1171875,46.935546875,62.0,77.0
113,46.1171875,46.94921875,58.0,64.0
114,47.0546875,47.7890625,62.0,60.0
115,47.0546875,47.88671875,58.0,60.0
116,45.1796875,48.376953125,43.0,66.0
117,47.9921875,48.37890625,62.0,71.0
118,47.9921875,48.41796875,58.0,64.0
119,46.5859375,48.4765625,50.0,58.0
120,47.5234375,48.955078125,55.0,48.0
121,48.9296875,49.7421875,64.0,59.0
122,48.9296875,49.7578125,67.0,64.0
123,49.3984375,50.134765625,55.0,65.0
124,48.9296875,50.244140625,48.0,69.0
125,49.8671875,50.37109375,67.0,77.0
126,49.8671875,50.388671875,64.0,73.0
127,50.8046875,51.625,60.0,60.0
128,50.8046875,51.630859375,57.0,59.0
129,51.7421875,52.650390625,60.0,66.0
130,51.7421875,52.654296875,57.0,61.0
131,51.2734375,52.6640625,48.0,45.0
132,50.8046875,52.708984375,41.0,64.0
133,52.6796875,53.4765625,62.0,67.0
134,52.6796875,53.501953125,65.0,76.0
135,52.6796875,54.146484375,46.0,65.0
136,53.6171875,54.203125,65.0,81.0
137,53.6171875,54.20703125,62.0,72.0
138,54.5546875,55.42578125,64.0,63.0
139,54.5546875,55.453125,67.0,67.0
140,55.0234375,55.8359375,55.0,69.0
141,54.5546875,56.02734375,48.0,71.0
142,55.4921875,56.0546875,67.0,63.0
143,55.4921875,56.064453125,64.0,63.0
144,56.4296875,57.30859375,62.0,67.0
145,56.4296875,57.333984375,65.0,75.0
146,56.4296875,57.8828125,46.0,67.0
147,57.3671875,57.892578125,62.0,62.0
148,57.3671875,57.896484375,65.0,68.0
149,58.3046875,59.166015625,65.0,61.0
150,58.3046875,59.171875,69.0,65.0
151,58.3046875,60.064453125,50.0,61.0
152,58.7734375,60.064453125,57.0,44.0
153,59.2421875,60.107421875,65.0,59.0
154,59.2421875,60.119140625,69.0,60.0
155,60.6484375,61.517578125,62.0,55.0
156,60.4140625,61.755859375,57.0,61.0
157,60.8828125,61.76953125,65.0,70.0
158,60.1796875,61.818359375,50.0,70.0
159,61.1171875,62.712890625,69.0,63.0
160,62.7578125,63.041015625,65.0,60.0
161,62.5234375,63.345703125,62.0,58.0
162,62.2890625,63.462890625,57.0,66.0
163,62.9921875,63.515625,69.0,67.0
164,62.0546875,63.578125,50.0,76.0
165,63.4609375,63.94140625,65.0,66.0
166,63.9296875,64.771484375,43.0,58.0
167,64.3984375,64.81640625,55.0,58.0
168,64.1640625,64.865234375,50.0,69.0
169,64.6328125,64.90234375,58.0,61.0
170,64.8671875,64.9921875,62.0,65.0
171,64.8671875,65.400390625,45.0,74.0
172,65.1015625,65.46875,52.0,79.0
173,65.3359375,65.591796875,60.0,59.0
174,65.3359375,65.716796875,57.0,59.0
175,65.5703125,65.748046875,64.0,60.0
176,66.2734375,67.46484375,62.0,45.0
177,66.7421875,67.49609375,65.0,61.0
178,66.0390625,67.548828125,57.0,60.0
179,65.8046875,67.59765625,50.0,79.0
180,67.6796875,68.177734375,62.0,61.0
181,67.6796875,68.501953125,58.0,61.0
182,68.6171875,69.435546875,62.0,77.0
183,68.6171875,69.44921875,58.0,64.0
184,69.5546875,70.2890625,62.0,60.0
185,69.5546875,70.38671875,58.0,60.0
186,67.6796875,70.876953125,43.0,66.0
187,70.4921875,70.87890625,62.0,71.0
188,70.4921875,70.91796875,58.0,64.0
189,69.0859375,70.9765625,50.0,58.0
190,70.0234375,71.455078125,55.0,48.0
191,71.4296875,72.2421875,64.0,59.0
192,71.4296875,72.2578125,67.0,64.0
193,71.8984375,72.634765625,55.0,65.0
194,71.4296875,72.744140625,48.0,69.0
195,72.3671875,72.87109375,67.0,77.0
196,72.3671875,72.888671875,64.0,73.0
197,73.3046875,74.125,60.0,60.0
198,73.3046875,74.130859375,57.0,59.0
199,74.2421875,75.150390625,60.0,66.0
200,74.2421875,75.154296875,57.0,61.0
201,73.7734375,75.1640625,48.0,45.0
202,73.3046875,75.208984375,41.0,64.0
203,75.1796875,75.9765625,62.0,67.0
204,75.1796875,76.001953125,65.0,76.0
205,75.1796875,76.646484375,46.0,65.0
206,76.1171875,76.703125,65.0,81.0
207,76.1171875,76.70703125,62.0,72.0
208,77.0546875,77.92578125,64.0,63.0
209,77.0546875,77.953125,67.0,67.0
210,77.5234375,78.3359375,55.0,69.0
211,77.0546875,78.52734375,48.0,71.0
212,77.9921875,78.5546875,67.0,63.0
213,77.9921875,78.564453125,64.0,63.0
214,78.9296875,79.80859375,62.0,67.0
215,78.9296875,79.833984375,65.0,75.0
216,78.9296875,80.3828125,46.0,67.0
217,79.8671875,80.392578125,62.0,62.0
218,79.8671875,80.396484375,65.0,68.0
219,80.8046875,81.666015625,65.0,61.0
220,80.8046875,81.671875,69.0,65.0
221,80.8046875,82.564453125,50.0,61.0
222,81.2734375,82.564453125,57.0,44.0
223,81.7421875,82.607421875,65.0,59.0
224,81.7421875,82.619140625,69.0,60.0
225,82.673828125,83.11328125,57.0,54.0
226,82.669921875,83.125,62.0,58.0
227,82.658203125,83.134765625,65.0,66.0
228,83.34375,83.58984375,50.0,52.0
229,82.67578125,83.74609375,38.0,65.0
230,83.595703125,84.048828125,57.0,76.0
231,83.591796875,84.056640625,62.0,71.0
232,83.802734375,84.072265625,50.0,57.0
233,83.587890625,84.083984375,65.0,79.0
234,84.03125,84.498046875,38.0,56.0
235,84.53515625,84.90234375,45.0,54.0
236,84.52734375,85.08203125,60.0,57.0
237,84.537109375,85.083984375,57.0,56.0
238,84.53515625,85.08984375,64.0,56.0
239,85.23046875,85.509765625,45.0,62.0
240,85.490234375,85.8125,65.0,68.0
241,85.501953125,85.814453125,57.0,63.0
242,85.501953125,85.8203125,62.0,61.0
243,85.951171875,86.0859375,57.0,51.0
244,85.94140625,86.111328125,62.0,47.0
245,85.939453125,86.1328125,65.0,51.0
246,85.501953125,86.435546875,38.0,55.0
247,85.72265625,86.439453125,50.0,64.0
248,86.439453125,86.86328125,46.0,56.0
249,86.435546875,86.9453125,58.0,67.0
250,86.443359375,86.947265625,62.0,56.0
251,86.43359375,86.951171875,65.0,68.0
252,87.12109375,87.44140625,46.0,72.0
253,87.359375,87.552734375,58.0,81.0
254,87.576171875,87.78125,46.0,40.0
255,87.35546875,87.814453125,65.0,79.0
256,87.3671875,87.828125,62.0,72.0
257,88.279296875,88.5625,55.0,68.0
258,88.271484375,88.6328125,60.0,64.0
259,88.275390625,88.6328125,64.0,67.0
260,88.291015625,88.798828125,36.0,51.0
261,88.505859375,88.875,48.0,68.0
262,88.73828125,88.880859375,55.0,80.0
263,88.9921875,89.052734375,60.0,48.0
264,88.966796875,89.14453125,64.0,72.0
265,89.234375,89.626953125,57.0,71.0
266,89.220703125,89.658203125,65.0,73.0
267,89.244140625,89.6953125,60.0,56.0
268,89.234375,89.900390625,41.0,63.0
269,89.4453125,90.0,53.0,51.0
270,90.1953125,90.68359375,58.0,63.0
271,90.1953125,90.69140625,62.0,59.0
272,90.18359375,90.69140625,67.0,74.0
273,90.896484375,91.1875,55.0,77.0
274,91.126953125,91.337890625,58.0,83.0
275,90.20703125,91.33984375,43.0,52.0
276,91.12109375,91.544921875,67.0,79.0
277,91.130859375,91.560546875,62.0,74.0
278,91.345703125,91.57421875,55.0,69.0
279,91.587890625,92.005859375,43.0,61.0
280,92.068359375,92.359375,60.0,63.0
281,92.05859375,92.369140625,64.0,59.0
282,92.05859375,92.380859375,69.0,68.0
283,92.298828125,92.56640625,52.0,52.0
284,92.537109375,92.759765625,60.0,74.0
285,92.732421875,92.796875,52.0,80.0
286,92.072265625,92.798828125,45.0,44.0
287,92.537109375,92.83984375,64.0,81.0
288,92.53125,92.931640625,69.0,80.0
289,93.00390625,93.4921875,57.0,74.0
290,92.998046875,93.564453125,65.0,70.0
291,93.009765625,93.61328125,62.0,62.0
292,93.6640625,93.9609375,50.0,55.0
293,93.962890625,94.03515625,43.0,50.0
294,93.00390625,94.228515625,38.0,68.0
295,94.14453125,94.390625,46.0,63.0
296,93.966796875,94.5546875,58.0,65.0
297,93.96875,94.576171875,62.0,54.0
298,93.955078125,94.615234375,65.0,62.0
299,94.650390625,94.958984375,46.0,79.0
300,94.87890625,95.109375,58.0,83.0
301,94.8828125,95.3359375,65.0,76.0
302,95.099609375,95.404296875,46.0,47.0
303,95.3515625,95.404296875,46.0,67.0
304,94.888671875,95.439453125,62.0,72.0
305,95.783203125,96.216796875,67.0,76.0
306,95.78515625,96.21875,60.0,76.0
307,95.783203125,96.259765625,64.0,74.0
308,96.498046875,96.548828125,60.0,62.0
309,95.79296875,96.625,48.0,67.0
310,96.4921875,96.71484375,67.0,67.0
311,96.744140625,97.04296875,55.0,72.0
312,96.9765625,97.04296875,55.0,44.0
313,96.734375,97.08203125,64.0,67.0
314,96.7421875,97.09765625,60.0,64.0
315,96.75,97.193359375,48.0,67.0
316,97.220703125,97.30859375,55.0,72.0
317,97.27734375,97.3203125,48.0,27.0
318,97.2109375,97.4375,64.0,61.0
319,97.220703125,97.4609375,60.0,47.0
320,97.6875,98.16015625,65.0,76.0
321,97.6875,98.19921875,62.0,80.0
322,97.755859375,98.283203125,38.0,68.0
323,97.69140625,98.5859375,50.0,72.0
324,98.615234375,98.876953125,57.0,90.0
325,98.607421875,98.94140625,65.0,84.0
326,98.615234375,98.97265625,62.0,79.0
327,99.06640625,99.13671875,64.0,63.0
328,98.833984375,99.40234375,50.0,67.0
329,99.318359375,99.76953125,65.0,110.0
330,99.7734375,99.87109375,64.0,59.0
331,100.26171875,100.607421875,65.0,100.0
332,98.37109375,100.716796875,38.0,68.0
333,100.712890625,100.982421875,62.0,79.0
334,100.955078125,101.064453125,65.0,56.0
335,100.498046875,101.083984375,50.0,64.0
336,100.947265625,101.087890625,38.0,67.0
337,101.41796875,101.916015625,57.0,65.0
338,101.408203125,101.91796875,65.0,66.0
339,101.41015625,101.923828125,62.0,64.0
340,102.14453125,102.416015625,50.0,55.0
341,101.423828125,102.595703125,38.0,62.0
342,102.390625,102.69921875,57.0,87.0
343,102.390625,102.775390625,65.0,79.0
344,102.390625,102.810546875,62.0,77.0
345,102.61328125,102.921875,50.0,53.0
346,102.84765625,103.341796875,38.0,65.0
347,103.30859375,103.599609375,60.0,65.0
348,103.306640625,103.609375,69.0,70.0
349,103.306640625,103.623046875,64.0,62.0
350,103.314453125,103.8125,45.0,49.0
351,103.783203125,103.931640625,60.0,76.0
352,103.787109375,103.982421875,69.0,79.0
353,103.529296875,104.017578125,52.0,59.0
354,103.9921875,104.255859375,45.0,74.0
355,103.783203125,104.28515625,64.0,68.0
356,104.255859375,104.69140625,57.0,67.0
357,104.748046875,104.89453125,57.0,83.0
358,104.2421875,104.9296875,65.0,70.0
359,104.255859375,104.9375,62.0,65.0
360,104.259765625,104.9921875,38.0,67.0
361,104.494140625,105.205078125,50.0,47.0
362,105.23046875,105.66015625,46.0,53.0
363,105.197265625,105.677734375,65.0,57.0
364,105.21875,105.685546875,62.0,48.0
365,105.197265625,105.703125,58.0,72.0
366,105.896484375,106.19921875,46.0,72.0
367,106.125,106.42578125,58.0,76.0
368,106.12890625,106.51953125,62.0,72.0
369,106.3359375,106.533203125,46.0,32.0
370,106.126953125,106.658203125,65.0,73.0
371,106.5625,106.693359375,58.0,41.0
372,107.048828125,107.3515625,60.0,68.0
373,107.0546875,107.3671875,67.0,71.0
374,107.0546875,107.400390625,64.0,65.0
375,107.056640625,107.521484375,36.0,56.0
376,107.287109375,107.56640625,48.0,53.0
377,107.521484375,107.607421875,60.0,62.0
378,107.494140625,107.6171875,64.0,54.0
379,107.5078125,107.638671875,67.0,62.0
380,108.0,108.3203125,60.0,64.0
381,107.9921875,108.326171875,69.0,68.0
382,107.98828125,108.35546875,65.0,61.0
383,107.99609375,108.525390625,41.0,51.0
384,108.43359375,108.568359375,65.0,61.0
385,108.447265625,108.580078125,60.0,47.0
386,108.224609375,108.58203125,53.0,49.0
387,108.439453125,108.607421875,69.0,58.0
388,108.921875,109.310546875,58.0,65.0
389,108.921875,109.33984375,67.0,67.0
390,108.935546875,109.3671875,62.0,55.0
391,109.609375,109.875,55.0,45.0
392,109.85546875,110.01171875,58.0,75.0
393,108.916015625,110.0390625,43.0,54.0
394,109.85546875,110.142578125,67.0,74.0
395,109.861328125,110.25390625,62.0,64.0
396,110.080078125,110.36328125,55.0,53.0
397,110.328125,110.388671875,43.0,56.0
398,110.7890625,111.318359375,69.0,60.0
399,110.79296875,111.3203125,60.0,54.0
400,110.791015625,111.345703125,64.0,59.0
401,111.255859375,111.3984375,52.0,63.0
402,110.7890625,111.427734375,45.0,51.0
403,111.486328125,111.54296875,60.0,75.0
404,111.490234375,111.576171875,69.0,71.0
405,111.4921875,111.580078125,64.0,56.0
406,111.751953125,112.09375,57.0,64.0
407,111.744140625,112.119140625,65.0,71.0
408,111.751953125,112.123046875,62.0,64.0
409,111.73828125,112.26953125,38.0,63.0
410,111.970703125,112.33203125,50.0,59.0
411,112.216796875,112.33984375,57.0,57.0
412,112.205078125,112.37109375,65.0,63.0
413,112.208984375,112.42578125,62.0,68.0
414,112.712890625,113.140625,58.0,65.0
415,112.705078125,113.189453125,65.0,74.0
416,112.716796875,113.216796875,62.0,59.0
417,113.369140625,113.615234375,53.0,53.0
418,112.705078125,113.763671875,46.0,72.0
419,113.619140625,113.8359375,58.0,75.0
420,113.619140625,114.05078125,65.0,75.0
421,113.84375,114.10546875,53.0,50.0
422,114.072265625,114.126953125,46.0,62.0
423,113.619140625,114.138671875,62.0,75.0
424,114.615234375,114.703125,48.0,24.0
425,114.572265625,115.115234375,60.0,59.0
426,114.564453125,115.138671875,67.0,66.0
427,114.564453125,115.1640625,64.0,62.0
428,115.27734375,115.744140625,48.0,59.0
429,114.568359375,115.970703125,36.0,56.0
430,115.72265625,115.994140625,60.0,90.0
431,115.71875,116.150390625,64.0,87.0
432,115.9296875,116.1875,48.0,67.0
433,115.72265625,116.212890625,67.0,89.0
434,116.162109375,116.21875,36.0,52.0
435,116.423828125,116.947265625,57.0,71.0
436,116.427734375,117.029296875,65.0,70.0
437,116.4296875,117.03515625,62.0,69.0
438,117.099609375,117.8359375,50.0,41.0
439,117.6171875,117.90625,64.0,85.0
440,118.1015625,118.537109375,65.0,93.0
441,118.75,118.888671875,62.0,90.0
442,118.5234375,119.0390625,50.0,55.0
443,119.00390625,119.33984375,64.0,106.0
444,116.4375,119.375,38.0,71.0
445,119.4765625,119.708984375,65.0,102.0
446,119.6875,119.73828125,38.0,72.0
447,119.232421875,119.775390625,50.0,90.0
448,120.185546875,120.271484375,62.0,41.0
449,120.185546875,120.2734375,57.0,42.0
450,120.177734375,120.279296875,65.0,43.0
451,120.181640625,120.30078125,50.0,43.0
452,120.181640625,120.302734375,38.0,48.0
453,120.408203125,120.525390625,57.0,64.0
454,120.400390625,120.53125,38.0,61.0
455,120.408203125,120.53125,50.0,71.0
456,120.408203125,120.53515625,62.0,47.0
457,120.41015625,120.544921875,65.0,50.0
458,120.640625,120.76953125,38.0,81.0
459,120.64453125,120.7734375,50.0,88.0
460,120.64453125,120.791015625,57.0,85.0
461,120.64453125,120.81640625,62.0,67.0
462,120.640625,120.8203125,65.0,61.0
463,121.328125,121.55859375,57.0,84.0
464,121.33203125,121.58984375,38.0,77.0
465,121.328125,121.58984375,65.0,79.0
466,121.328125,121.607421875,62.0,80.0
467,121.328125,121.634765625,50.0,72.0
468,122.046875,122.12109375,62.0,65.0
469,122.046875,122.125,57.0,69.0
470,122.046875,122.140625,65.0,64.0
471,122.0546875,122.142578125,38.0,69.0
472,122.05859375,122.158203125,50.0,63.0
473,122.28515625,122.359375,62.0,63.0
474,122.28125,122.373046875,57.0,67.0
475,122.27734375,122.380859375,38.0,59.0
476,122.2734375,122.390625,50.0,69.0
477,122.2734375,122.400390625,65.0,62.0
478,122.515625,122.576171875,62.0,85.0
479,122.509765625,122.60546875,57.0,95.0
480,122.51171875,122.607421875,38.0,95.0
481,122.509765625,122.607421875,50.0,95.0
482,122.5,122.62890625,65.0,71.0
483,123.201171875,123.65625,65.0,89.0
484,123.205078125,123.66015625,57.0,92.0
485,123.205078125,123.666015625,62.0,87.0
486,123.20703125,123.68359375,38.0,75.0
487,123.197265625,123.697265625,50.0,77.0
488,123.943359375,124.00390625,57.0,72.0
489,123.951171875,124.0078125,62.0,59.0
490,123.947265625,124.03125,38.0,59.0
491,123.943359375,124.033203125,50.0,58.0
492,123.947265625,124.03515625,65.0,70.0
493,123.958984375,124.046875,69.0,70.0
494,124.1640625,124.224609375,57.0,77.0
495,124.16796875,124.224609375,62.0,63.0
496,124.1640625,124.2421875,38.0,69.0
497,124.158203125,124.2578125,50.0,72.0
498,124.154296875,124.259765625,65.0,63.0
499,124.166015625,124.271484375,69.0,63.0
500,124.392578125,124.462890625,50.0,100.0
501,124.392578125,124.466796875,38.0,105.0
502,124.392578125,124.48828125,57.0,100.0
503,124.392578125,124.501953125,62.0,87.0
504,124.38671875,124.5078125,65.0,82.0
505,124.3984375,124.51953125,69.0,82.0
506,125.09375,125.57421875,57.0,81.0
507,125.09765625,125.5859375,62.0,75.0
508,125.09765625,125.58984375,38.0,67.0
509,125.08984375,125.6015625,50.0,64.0
510,125.087890625,125.607421875,65.0,82.0
511,125.099609375,125.619140625,69.0,82.0
512,125.80859375,125.888671875,50.0,51.0
513,125.8125,125.888671875,57.0,54.0
514,125.80859375,125.892578125,62.0,53.0
515,125.802734375,125.90234375,69.0,45.0
516,125.791015625,125.90625,38.0,54.0
517,125.80859375,125.908203125,65.0,45.0
518,126.048828125,126.12109375,65.0,49.0
519,126.048828125,126.1328125,69.0,75.0
520,126.03515625,126.142578125,38.0,63.0
521,126.04296875,126.146484375,62.0,62.0
522,126.04296875,126.15234375,50.0,79.0
523,126.0390625,126.154296875,57.0,81.0
524,126.28515625,126.341796875,65.0,80.0
525,126.275390625,126.34765625,38.0,92.0
526,126.275390625,126.361328125,57.0,84.0
527,126.28125,126.36328125,69.0,78.0
528,126.28125,126.369140625,50.0,92.0
529,126.28125,126.369140625,62.0,72.0
530,126.984375,127.216796875,57.0,94.0
531,126.98828125,127.234375,38.0,75.0
532,126.98828125,127.25390625,50.0,72.0
533,126.984375,127.29296875,65.0,83.0
534,126.984375,127.302734375,69.0,87.0
535,126.98828125,127.328125,62.0,83.0
536,127.7109375,127.767578125,58.0,69.0
537,127.712890625,127.78125,62.0,63.0
538,127.70703125,127.802734375,65.0,70.0
539,127.69921875,127.9765625,46.0,67.0
540,127.91796875,127.978515625,58.0,61.0
541,127.91796875,127.990234375,62.0,48.0
542,127.904296875,128.001953125,53.0,77.0
543,127.904296875,128.025390625,65.0,49.0
544,128.16015625,128.26171875,46.0,85.0
545,128.16015625,128.26171875,53.0,94.0
546,128.154296875,128.26171875,58.0,90.0
547,128.1640625,128.275390625,62.0,74.0
548,128.15234375,128.30078125,65.0,62.0
549,128.83984375,129.1015625,58.0,87.0
550,128.83984375,129.126953125,65.0,79.0
551,128.83984375,129.12890625,62.0,76.0
552,128.84375,129.177734375,46.0,69.0
553,128.83984375,129.216796875,53.0,71.0
554,129.5546875,129.61328125,46.0,61.0
555,129.55078125,129.6171875,58.0,63.0
556,129.56640625,129.623046875,62.0,51.0
557,129.560546875,129.625,53.0,56.0
558,129.5546875,129.626953125,65.0,58.0
559,129.77734375,129.826171875,46.0,67.0
560,129.77734375,129.83203125,58.0,75.0
561,129.7734375,129.8359375,53.0,69.0
562,129.7890625,129.845703125,62.0,50.0
563,129.7890625,129.857421875,65.0,61.0
564,130.015625,130.076171875,62.0,72.0
565,129.998046875,130.107421875,58.0,95.0
566,129.994140625,130.115234375,46.0,90.0
567,129.998046875,130.115234375,53.0,90.0
568,130.0,130.125,65.0,83.0
569,130.705078125,131.095703125,60.0,83.0
570,130.701171875,131.150390625,64.0,79.0
571,130.701171875,131.169921875,67.0,80.0
572,130.705078125,131.2734375,48.0,72.0
573,131.40625,131.48046875,57.0,69.0
574,131.423828125,131.48046875,60.0,57.0
575,131.41796875,131.482421875,65.0,58.0
576,131.431640625,131.4921875,41.0,53.0
577,131.453125,131.517578125,53.0,23.0
578,131.62890625,131.689453125,57.0,69.0
579,131.6328125,131.689453125,60.0,50.0
580,131.634765625,131.69140625,41.0,52.0
581,131.62890625,131.697265625,65.0,60.0
582,131.623046875,131.70703125,53.0,71.0
583,131.853515625,132.375,65.0,92.0
584,131.861328125,132.376953125,60.0,91.0
585,131.861328125,132.384765625,41.0,93.0
586,131.8515625,132.384765625,57.0,100.0
587,131.861328125,132.40234375,53.0,99.0
588,132.58203125,133.115234375,57.0,92.0
589,132.587890625,133.119140625,41.0,61.0
590,132.58203125,133.126953125,60.0,83.0
591,132.58203125,133.13671875,65.0,84.0
592,132.58984375,133.138671875,53.0,63.0
593,133.3046875,133.365234375,57.0,56.0
594,133.3125,133.369140625,60.0,51.0
595,133.3125,133.375,41.0,56.0
596,133.318359375,133.376953125,53.0,57.0
597,133.3125,133.37890625,65.0,54.0
598,133.533203125,133.587890625,60.0,65.0
599,133.541015625,133.58984375,53.0,65.0
600,133.541015625,133.59375,41.0,62.0
601,133.529296875,133.599609375,57.0,75.0
602,133.529296875,133.603515625,65.0,70.0
603,133.76953125,134.2734375,57.0,94.0
604,133.76953125,134.287109375,65.0,89.0
605,133.76953125,134.294921875,60.0,80.0
606,133.775390625,134.30078125,41.0,89.0
607,133.76953125,134.33203125,53.0,99.0
608,134.49609375,134.7265625,41.0,72.0
609,134.48828125,134.734375,53.0,75.0
610,134.486328125,134.830078125,57.0,88.0
611,134.48046875,134.96484375,65.0,83.0
612,134.48046875,134.990234375,60.0,80.0
613,134.958984375,135.025390625,64.0,47.0
614,135.197265625,135.25390625,50.0,72.0
615,135.197265625,135.255859375,38.0,75.0
616,135.2109375,135.265625,57.0,58.0
617,135.197265625,135.267578125,62.0,63.0
618,135.408203125,135.474609375,50.0,76.0
619,135.412109375,135.4765625,38.0,72.0
620,135.412109375,135.478515625,62.0,65.0
621,135.41796875,135.484375,57.0,44.0
622,135.63671875,135.73046875,38.0,93.0
623,135.6328125,135.734375,57.0,90.0
624,135.63671875,135.73828125,50.0,92.0
625,135.640625,135.740234375,62.0,84.0
626,135.62890625,135.740234375,65.0,90.0
627,136.349609375,136.681640625,57.0,77.0
628,136.34765625,136.681640625,65.0,78.0
629,136.35546875,136.703125,62.0,74.0
630,136.35546875,136.74609375,38.0,71.0
631,136.359375,136.748046875,50.0,63.0
632,137.0546875,137.111328125,38.0,80.0
633,137.044921875,137.111328125,57.0,75.0
634,137.05859375,137.111328125,62.0,59.0
635,137.05859375,137.119140625,50.0,76.0
636,137.0546875,137.119140625,65.0,67.0
637,137.27734375,137.33203125,38.0,69.0
638,137.279296875,137.33203125,57.0,74.0
639,137.27734375,137.333984375,50.0,75.0
640,137.28515625,137.33984375,62.0,59.0
641,137.28515625,137.341796875,65.0,62.0
642,137.51171875,137.560546875,62.0,77.0
643,137.505859375,137.560546875,65.0,82.0
644,137.501953125,137.576171875,57.0,83.0
645,137.501953125,137.5859375,38.0,96.0
646,137.501953125,137.591796875,50.0,91.0
647,138.234375,138.52734375,38.0,67.0
648,138.228515625,138.546875,50.0,72.0
649,138.224609375,138.58984375,65.0,82.0
650,138.23046875,138.611328125,62.0,80.0
651,138.228515625,138.646484375,57.0,85.0
652,138.955078125,139.0078125,58.0,58.0
653,138.95703125,139.009765625,46.0,61.0
654,138.962890625,139.021484375,62.0,51.0
655,138.9609375,139.0234375,65.0,56.0
656,138.95703125,139.03125,53.0,57.0
657,139.158203125,139.20703125,46.0,63.0
658,139.1640625,139.21484375,58.0,63.0
659,139.1484375,139.220703125,53.0,68.0
660,139.169921875,139.232421875,65.0,45.0
661,139.169921875,139.236328125,62.0,43.0
662,139.380859375,139.482421875,46.0,81.0
663,139.3828125,139.484375,53.0,85.0
664,139.388671875,139.494140625,58.0,83.0
665,139.39453125,139.5078125,62.0,72.0
666,139.388671875,139.513671875,65.0,84.0
667,140.0859375,140.46875,65.0,71.0
668,140.09375,140.48046875,62.0,65.0
669,140.09375,140.48828125,58.0,75.0
670,140.0859375,140.501953125,53.0,56.0
671,140.080078125,140.505859375,46.0,56.0
672,140.765625,140.8125,46.0,72.0
673,140.765625,140.81640625,53.0,72.0
674,140.765625,140.822265625,58.0,74.0
675,140.765625,140.8359375,65.0,64.0
676,140.76953125,140.86328125,62.0,55.0
677,140.990234375,141.029296875,46.0,80.0
678,140.990234375,141.033203125,53.0,81.0
679,141.001953125,141.041015625,58.0,80.0
680,141.005859375,141.056640625,65.0,60.0
681,140.990234375,141.0703125,62.0,47.0
682,141.23046875,141.2890625,46.0,84.0
683,141.23046875,141.322265625,53.0,92.0
684,141.23046875,141.32421875,65.0,79.0
685,141.234375,141.326171875,58.0,76.0
686,141.234375,141.34375,62.0,77.0
687,141.951171875,142.119140625,53.0,68.0
688,141.947265625,142.16015625,46.0,67.0
689,141.9453125,142.162109375,58.0,81.0
690,141.955078125,142.23828125,65.0,80.0
691,141.955078125,142.275390625,62.0,74.0
692,142.669921875,142.73828125,55.0,61.0
693,142.67578125,142.740234375,60.0,50.0
694,142.67578125,142.748046875,64.0,53.0
695,142.6640625,142.75,36.0,57.0
696,142.6796875,142.7578125,48.0,44.0
697,142.900390625,142.966796875,55.0,63.0
698,142.900390625,142.970703125,48.0,63.0
699,142.90234375,142.97265625,64.0,52.0
700,142.89453125,142.974609375,36.0,63.0
701,142.900390625,142.9765625,60.0,56.0
702,143.130859375,143.22265625,48.0,95.0
703,143.1328125,143.232421875,36.0,98.0
704,143.130859375,143.240234375,55.0,92.0
705,143.130859375,143.2578125,64.0,84.0
706,143.134765625,143.26953125,60.0,77.0
707,143.849609375,144.203125,55.0,83.0
708,143.849609375,144.208984375,64.0,83.0
709,143.849609375,144.228515625,60.0,77.0
710,143.849609375,144.25,36.0,69.0
711,143.833984375,144.259765625,48.0,61.0
712,144.564453125,144.62109375,48.0,77.0
713,144.564453125,144.62109375,55.0,75.0
714,144.564453125,144.623046875,36.0,81.0
715,144.5703125,144.623046875,60.0,63.0
716,144.564453125,144.623046875,64.0,65.0
717,144.7890625,144.833984375,55.0,68.0
718,144.791015625,144.83984375,36.0,80.0
719,144.78515625,144.83984375,48.0,79.0
720,144.7890625,144.845703125,60.0,53.0
721,144.798828125,144.85546875,64.0,54.0
722,145.03515625,145.083984375,48.0,94.0
723,145.03515625,145.083984375,60.0,80.0
724,145.03515625,145.095703125,36.0,92.0
725,145.029296875,145.109375,64.0,85.0
726,145.029296875,145.11328125,55.0,90.0
727,145.70703125,145.94140625,55.0,92.0
728,145.71484375,145.9453125,36.0,77.0
729,145.71484375,145.9453125,48.0,76.0
730,145.71484375,146.03125,64.0,81.0
731,145.71484375,146.04296875,60.0,80.0
732,146.42578125,147.005859375,65.0,82.0
733,146.43359375,147.052734375,57.0,79.0
734,146.42578125,147.052734375,62.0,83.0
735,146.43359375,147.45703125,50.0,76.0
736,147.375,147.5078125,57.0,85.0
737,147.359375,147.576171875,65.0,93.0
738,147.591796875,147.66796875,64.0,54.0
739,147.83984375,147.90234375,62.0,62.0
740,148.080078125,148.29296875,57.0,58.0
741,148.056640625,148.392578125,60.0,91.0
742,148.521484375,149.076171875,57.0,77.0
743,148.51171875,149.10546875,62.0,92.0
744,146.43359375,149.435546875,38.0,83.0
745,150.8828125,151.19921875,65.0,70.0
746,150.6484375,151.517578125,62.0,55.0
747,150.4140625,151.755859375,57.0,61.0
748,150.1796875,151.818359375,50.0,70.0
749,151.1171875,152.712890625,69.0,63.0
750,152.7578125,153.041015625,65.0,60.0
751,152.5234375,153.345703125,62.0,58.0
752,152.2890625,153.462890625,57.0,66.0
753,152.9921875,153.515625,69.0,67.0
754,152.0546875,153.578125,50.0,76.0
755,153.4609375,153.94140625,65.0,66.0
756,153.9296875,154.771484375,43.0,58.0
757,154.3984375,154.81640625,55.0,58.0
758,154.1640625,154.865234375,50.0,69.0
759,154.6328125,154.90234375,58.0,61.0
760,154.8671875,154.9921875,62.0,65.0
761,154.8671875,155.400390625,45.0,74.0
762,155.1015625,155.46875,52.0,79.0
763,155.3359375,155.591796875,60.0,59.0
764,155.3359375,155.716796875,57.0,59.0
765,155.5703125,155.748046875,64.0,60.0
766,156.2734375,157.46484375,62.0,45.0
767,156.7421875,157.49609375,65.0,61.0
768,156.0390625,157.548828125,57.0,60.0
769,155.8046875,157.59765625,50.0,79.0
770,157.6796875,158.177734375,62.0,61.0
771,157.6796875,158.501953125,58.0,61.0
772,158.6171875,159.435546875,62.0,77.0
773,158.6171875,159.44921875,58.0,64.0
774,159.5546875,160.2890625,62.0,60.0
775,159.5546875,160.38671875,58.0,60.0
776,157.6796875,160.876953125,43.0,66.0
777,160.4921875,160.87890625,62.0,71.0
778,160.4921875,160.91796875,58.0,64.0
779,159.0859375,160.9765625,50.0,58.0
780,160.0234375,161.455078125,55.0,48.0
781,161.4296875,162.2421875,64.0,59.0
782,161.4296875,162.2578125,67.0,64.0
783,161.8984375,162.634765625,55.0,65.0
784,161.4296875,162.744140625,48.0,69.0
785,162.3671875,162.87109375,67.0,77.0
786,162.3671875,162.888671875,64.0,73.0
787,163.3046875,164.125,60.0,60.0
788,163.3046875,164.130859375,57.0,59.0
789,164.2421875,165.150390625,60.0,66.0
790,164.2421875,165.154296875,57.0,61.0
791,163.7734375,165.1640625,48.0,45.0
792,163.3046875,165.208984375,41.0,64.0
793,165.1796875,165.9765625,62.0,67.0
794,165.1796875,166.001953125,65.0,76.0
795,165.1796875,166.646484375,46.0,65.0
796,166.1171875,166.703125,65.0,81.0
797,166.1171875,166.70703125,62.0,72.0
798,167.0546875,167.92578125,64.0,63.0
799,167.0546875,167.953125,67.0,67.0
800,167.5234375,168.3359375,55.0,69.0
801,167.0546875,168.52734375,48.0,71.0
802,167.9921875,168.5546875,67.0,63.0
803,167.9921875,168.564453125,64.0,63.0
804,168.9296875,169.80859375,62.0,67.0
805,168.9296875,169.833984375,65.0,75.0
806,168.9296875,170.3828125,46.0,67.0
807,169.8671875,170.392578125,62.0,62.0
808,169.8671875,170.396484375,65.0,68.0
809,170.8046875,171.666015625,65.0,61.0
810,170.8046875,171.671875,69.0,65.0
811,170.8046875,172.564453125,50.0,61.0
812,171.2734375,172.564453125,57.0,44.0
813,171.7421875,172.607421875,65.0,59.0
814,171.7421875,172.619140625,69.0,60.0
815,172.6953125,173.134765625,57.0,54.0
816,172.69140625,173.146484375,62.0,58.0
817,172.6796875,173.15625,65.0,66.0
818,173.365234375,173.611328125,50.0,52.0
819,172.697265625,173.767578125,38.0,65.0
820,173.6171875,174.0703125,57.0,76.0
821,173.61328125,174.078125,62.0,71.0
822,173.82421875,174.09375,50.0,57.0
823,173.609375,174.10546875,65.0,79.0
824,174.052734375,174.51953125,38.0,56.0
825,174.556640625,174.923828125,45.0,54.0
826,174.548828125,175.103515625,60.0,57.0
827,174.55859375,175.10546875,57.0,56.0
828,174.556640625,175.111328125,64.0,56.0
829,175.251953125,175.53125,45.0,62.0
830,175.51171875,175.833984375,65.0,68.0
831,175.5234375,175.8359375,57.0,63.0
832,175.5234375,175.841796875,62.0,61.0
833,175.97265625,176.107421875,57.0,51.0
834,175.962890625,176.1328125,62.0,47.0
835,175.9609375,176.154296875,65.0,51.0
836,175.5234375,176.45703125,38.0,55.0
837,175.744140625,176.4609375,50.0,64.0
838,176.4609375,176.884765625,46.0,56.0
839,176.45703125,176.966796875,58.0,67.0
840,176.46484375,176.96875,62.0,56.0
841,176.455078125,176.97265625,65.0,68.0
842,177.142578125,177.462890625,46.0,72.0
843,177.380859375,177.57421875,58.0,81.0
844,177.59765625,177.802734375,46.0,40.0
845,177.376953125,177.8359375,65.0,79.0
846,177.388671875,177.849609375,62.0,72.0
847,178.30078125,178.583984375,55.0,68.0
848,178.29296875,178.654296875,60.0,64.0
849,178.296875,178.654296875,64.0,67.0
850,178.3125,178.8203125,36.0,51.0
851,178.52734375,178.896484375,48.0,68.0
852,178.759765625,178.90234375,55.0,80.0
853,179.013671875,179.07421875,60.0,48.0
854,178.98828125,179.166015625,64.0,72.0
855,179.255859375,179.6484375,57.0,71.0
856,179.2421875,179.6796875,65.0,73.0
857,179.265625,179.716796875,60.0,56.0
858,179.255859375,179.921875,41.0,63.0
859,179.466796875,180.021484375,53.0,51.0
860,180.216796875,180.705078125,58.0,63.0
861,180.216796875,180.712890625,62.0,59.0
862,180.205078125,180.712890625,67.0,74.0
863,180.91796875,181.208984375,55.0,77.0
864,181.1484375,181.359375,58.0,83.0
865,180.228515625,181.361328125,43.0,52.0
866,181.142578125,181.56640625,67.0,79.0
867,181.15234375,181.58203125,62.0,74.0
868,181.3671875,181.595703125,55.0,69.0
869,181.609375,182.02734375,43.0,61.0
870,182.08984375,182.380859375,60.0,63.0
871,182.080078125,182.390625,64.0,59.0
872,182.080078125,182.40234375,69.0,68.0
873,182.3203125,182.587890625,52.0,52.0
874,182.55859375,182.78125,60.0,74.0
875,182.75390625,182.818359375,52.0,80.0
876,182.09375,182.8203125,45.0,44.0
877,182.55859375,182.861328125,64.0,81.0
878,182.552734375,182.953125,69.0,80.0
879,183.025390625,183.513671875,57.0,74.0
880,183.01953125,183.5859375,65.0,70.0
881,183.03125,183.634765625,62.0,62.0
882,183.685546875,183.982421875,50.0,55.0
883,183.984375,184.056640625,43.0,50.0
884,183.025390625,184.25,38.0,68.0
885,184.166015625,184.412109375,46.0,63.0
886,183.98828125,184.576171875,58.0,65.0
887,183.990234375,184.59765625,62.0,54.0
888,183.9765625,184.63671875,65.0,62.0
889,184.671875,184.98046875,46.0,79.0
890,184.900390625,185.130859375,58.0,83.0
891,184.904296875,185.357421875,65.0,76.0
892,185.12109375,185.42578125,46.0,47.0
893,185.373046875,185.42578125,46.0,67.0
894,184.91015625,185.4609375,62.0,72.0
895,185.8046875,186.23828125,67.0,76.0
896,185.806640625,186.240234375,60.0,76.0
897,185.8046875,186.28125,64.0,74.0
898,186.51953125,186.5703125,60.0,62.0
899,185.814453125,186.646484375,48.0,67.0
900,186.513671875,186.736328125,67.0,67.0
901,186.765625,187.064453125,55.0,72.0
902,186.998046875,187.064453125,55.0,44.0
903,186.755859375,187.103515625,64.0,67.0
904,186.763671875,187.119140625,60.0,64.0
905,186.83984375,187.21484375,48.0,67.0
906,187.2421875,187.330078125,55.0,72.0
907,187.298828125,187.341796875,48.0,27.0
908,187.232421875,187.458984375,64.0,61.0
909,187.2421875,187.482421875,60.0,47.0
910,187.708984375,188.181640625,65.0,76.0
911,187.708984375,188.220703125,62.0,80.0
912,187.77734375,188.3046875,38.0,68.0
913,187.712890625,188.607421875,50.0,72.0
914,188.63671875,188.8984375,57.0,90.0
915,188.62890625,188.962890625,65.0,84.0
916,188.63671875,188.994140625,62.0,79.0
917,189.087890625,189.158203125,64.0,63.0
918,188.85546875,189.423828125,50.0,67.0
919,189.33984375,189.791015625,65.0,110.0
920,189.794921875,189.892578125,64.0,59.0
921,190.283203125,190.62890625,65.0,100.0
922,188.392578125,190.73828125,38.0,68.0
923,190.734375,191.00390625,62.0,79.0
924,190.9765625,191.0859375,65.0,56.0
925,190.51953125,191.10546875,50.0,64.0
926,190.96875,191.109375,38.0,67.0
927,191.439453125,191.9375,57.0,65.0
928,191.4296875,191.939453125,65.0,66.0
929,191.431640625,191.9453125,62.0,64.0
930,192.166015625,192.4375,50.0,55.0
931,191.4453125,192.6171875,38.0,62.0
932,192.412109375,192.720703125,57.0,87.0
933,192.412109375,192.796875,65.0,79.0
934,192.412109375,192.83203125,62.0,77.0
935,192.634765625,192.943359375,50.0,53.0
936,192.869140625,193.36328125,38.0,65.0
937,193.330078125,193.62109375,60.0,65.0
938,193.328125,193.630859375,69.0,70.0
939,193.328125,193.64453125,64.0,62.0
940,193.3359375,193.833984375,45.0,49.0
941,193.8046875,193.953125,60.0,76.0
942,193.80859375,194.00390625,69.0,79.0
943,193.55078125,194.0390625,52.0,59.0
944,194.013671875,194.27734375,45.0,74.0
945,193.8046875,194.306640625,64.0,68.0
946,194.27734375,194.712890625,57.0,67.0
947,194.76953125,194.916015625,57.0,83.0
948,194.263671875,194.951171875,65.0,70.0
949,194.27734375,194.958984375,62.0,65.0
950,194.28125,195.013671875,38.0,67.0
951,194.515625,195.2265625,50.0,47.0
952,195.251953125,195.681640625,46.0,53.0
953,195.21875,195.69921875,65.0,57.0
954,195.240234375,195.70703125,62.0,48.0
955,195.21875,195.724609375,58.0,72.0
956,195.91796875,196.220703125,46.0,72.0
957,196.146484375,196.447265625,58.0,76.0
958,196.150390625,196.541015625,62.0,72.0
959,196.357421875,196.5546875,46.0,32.0
960,196.1484375,196.6796875,65.0,73.0
961,196.583984375,196.71484375,58.0,41.0
962,197.0703125,197.373046875,60.0,68.0
963,197.076171875,197.388671875,67.0,71.0
964,197.076171875,197.421875,64.0,65.0
965,197.078125,197.54296875,36.0,56.0
966,197.30859375,197.587890625,48.0,53.0
967,197.54296875,197.62890625,60.0,62.0
968,197.515625,197.638671875,64.0,54.0
969,197.529296875,197.66015625,67.0,62.0
970,198.021484375,198.341796875,60.0,64.0
971,198.013671875,198.34765625,69.0,68.0
972,198.009765625,198.376953125,65.0,61.0
973,198.017578125,198.546875,41.0,51.0
974,198.455078125,198.58984375,65.0,61.0
975,198.46875,198.6015625,60.0,47.0
976,198.24609375,198.603515625,53.0,49.0
977,198.4609375,198.62890625,69.0,58.0
978,198.943359375,199.33203125,58.0,65.0
979,198.943359375,199.361328125,67.0,67.0
980,198.95703125,199.388671875,62.0,55.0
981,199.630859375,199.896484375,55.0,45.0
982,199.876953125,200.033203125,58.0,75.0
983,198.9375,200.060546875,43.0,54.0
984,199.876953125,200.1640625,67.0,74.0
985,199.8828125,200.275390625,62.0,64.0
986,200.1015625,200.384765625,55.0,53.0
987,200.349609375,200.41015625,43.0,56.0
988,200.810546875,201.33984375,69.0,60.0
989,200.814453125,201.341796875,60.0,54.0
990,200.8125,201.3671875,64.0,59.0
991,201.27734375,201.419921875,52.0,63.0
992,200.810546875,201.44921875,45.0,51.0
993,201.5078125,201.564453125,60.0,75.0
994,201.51171875,201.59765625,69.0,71.0
995,201.513671875,201.6015625,64.0,56.0
996,201.7734375,202.115234375,57.0,64.0
997,201.765625,202.140625,65.0,71.0
998,201.7734375,202.14453125,62.0,64.0
999,201.759765625,202.291015625,38.0,63.0
1000,201.9921875,202.353515625,50.0,59.0
1001,202.23828125,202.361328125,57.0,57.0
1002,202.2265625,202.392578125,65.0,63.0
1003,202.23046875,202.447265625,62.0,68.0
1004,202.734375,203.162109375,58.0,65.0
1005,202.7265625,203.2109375,65.0,74.0
1006,202.73828125,203.23828125,62.0,59.0
1007,203.390625,203.63671875,53.0,53.0
1008,202.7265625,203.78515625,46.0,72.0
1009,203.640625,203.857421875,58.0,75.0
1010,203.640625,204.072265625,65.0,75.0
1011,203.865234375,204.126953125,53.0,50.0
1012,204.09375,204.1484375,46.0,62.0
1013,203.640625,204.16015625,62.0,75.0
1014,204.63671875,204.724609375,48.0,24.0
1015,204.59375,205.13671875,60.0,59.0
1016,204.5859375,205.16015625,67.0,66.0
1017,204.5859375,205.185546875,64.0,62.0
1018,205.298828125,205.765625,48.0,59.0
1019,204.58984375,205.9921875,36.0,56.0
1020,205.744140625,206.015625,60.0,90.0
1021,205.740234375,206.171875,64.0,87.0
1022,205.951171875,206.208984375,48.0,67.0
1023,205.744140625,206.234375,67.0,89.0
1024,206.18359375,206.240234375,36.0,52.0
1025,206.4453125,206.96875,57.0,71.0
1026,206.44921875,207.05078125,65.0,70.0
1027,206.451171875,207.056640625,62.0,69.0
1028,207.12109375,207.857421875,50.0,41.0
1029,206.458984375,209.396484375,38.0,71.0
1030,209.708984375,209.759765625,38.0,72.0
1031,210.158203125,210.59765625,57.0,54.0
1032,210.154296875,210.609375,62.0,58.0
1033,210.142578125,210.619140625,65.0,66.0
1034,210.828125,211.07421875,50.0,52.0
1035,210.16015625,211.23046875,38.0,65.0
1036,211.080078125,211.533203125,57.0,76.0
1037,211.076171875,211.541015625,62.0,71.0
1038,211.287109375,211.556640625,50.0,57.0
1039,211.072265625,211.568359375,65.0,79.0
1040,211.515625,211.982421875,38.0,56.0
1041,212.01953125,212.38671875,45.0,54.0
1042,212.01171875,212.56640625,60.0,57.0
1043,212.021484375,212.568359375,57.0,56.0
1044,212.01953125,212.57421875,64.0,56.0
1045,212.71484375,212.994140625,45.0,62.0
1046,212.974609375,213.296875,65.0,68.0
1047,212.986328125,213.298828125,57.0,63.0
1048,212.986328125,213.3046875,62.0,61.0
1049,213.435546875,213.5703125,57.0,51.0
1050,213.42578125,213.595703125,62.0,47.0
1051,213.423828125,213.6171875,65.0,51.0
1052,212.986328125,213.919921875,38.0,55.0
1053,213.20703125,213.923828125,50.0,64.0
1054,213.923828125,214.34765625,46.0,56.0
1055,213.919921875,214.4296875,58.0,67.0
1056,213.927734375,214.431640625,62.0,56.0
1057,213.91796875,214.435546875,65.0,68.0
1058,214.60546875,214.92578125,46.0,72.0
1059,214.84375,215.037109375,58.0,81.0
1060,215.060546875,215.265625,46.0,40.0
1061,214.83984375,215.298828125,65.0,79.0
1062,214.8515625,215.3125,62.0,72.0
1063,215.763671875,216.046875,55.0,68.0
1064,215.755859375,216.1171875,60.0,64.0
1065,215.759765625,216.1171875,64.0,67.0
1066,215.775390625,216.283203125,36.0,51.0
1067,215.990234375,216.359375,48.0,68.0
1068,216.22265625,216.365234375,55.0,80.0
1069,216.4765625,216.537109375,60.0,48.0
1070,216.451171875,216.62890625,64.0,72.0
1071,216.71875,217.111328125,57.0,71.0
1072,216.705078125,217.142578125,65.0,73.0
1073,216.728515625,217.1796875,60.0,56.0
1074,216.71875,217.384765625,41.0,63.0
1075,216.9296875,217.484375,53.0,51.0
1076,217.6796875,218.16796875,58.0,63.0
1077,217.6796875,218.17578125,62.0,59.0
1078,217.66796875,218.17578125,67.0,74.0
1079,218.380859375,218.671875,55.0,77.0
1080,218.611328125,218.822265625,58.0,83.0
1081,217.69140625,218.82421875,43.0,52.0
1082,218.60546875,219.029296875,67.0,79.0
1083,218.615234375,219.044921875,62.0,74.0
1084,218.830078125,219.05859375,55.0,69.0
1085,219.072265625,219.490234375,43.0,61.0
1086,219.552734375,219.84375,60.0,63.0
1087,219.54296875,219.853515625,64.0,59.0
1088,219.54296875,219.865234375,69.0,68.0
1089,219.783203125,220.05078125,52.0,52.0
1090,220.021484375,220.244140625,60.0,74.0
1091,220.216796875,220.28125,52.0,80.0
1092,219.556640625,220.283203125,45.0,44.0
1093,220.021484375,220.32421875,64.0,81.0
1094,220.015625,220.416015625,69.0,80.0
1095,220.48828125,220.9765625,57.0,74.0
1096,220.482421875,221.048828125,65.0,70.0
1097,220.494140625,221.09765625,62.0,62.0
1098,221.1484375,221.4453125,50.0,55.0
1099,221.447265625,221.51953125,43.0,50.0
1100,220.48828125,221.712890625,38.0,68.0
1101,221.62890625,221.875,46.0,63.0
1102,221.451171875,222.0390625,58.0,65.0
1103,221.453125,222.060546875,62.0,54.0
1104,221.439453125,222.099609375,65.0,62.0
1105,222.134765625,222.443359375,46.0,79.0
1106,222.36328125,222.59375,58.0,83.0
1107,222.3671875,222.8203125,65.0,76.0
1108,222.583984375,222.888671875,46.0,47.0
1109,222.8359375,222.888671875,46.0,67.0
1110,222.373046875,222.923828125,62.0,72.0
1111,223.267578125,223.701171875,67.0,76.0
1112,223.26953125,223.703125,60.0,76.0
1113,223.267578125,223.744140625,64.0,74.0
1114,223.982421875,224.033203125,60.0,62.0
1115,223.27734375,224.109375,48.0,67.0
1116,223.9765625,224.19921875,67.0,67.0
1117,224.228515625,224.52734375,55.0,72.0
1118,224.4609375,224.52734375,55.0,44.0
1119,224.21875,224.56640625,64.0,67.0
1120,224.2265625,224.58203125,60.0,64.0
1121,224.302734375,224.677734375,48.0,67.0
1122,224.705078125,224.79296875,55.0,72.0
1123,224.76171875,224.8046875,48.0,27.0
1124,224.6953125,224.921875,64.0,61.0
1125,224.705078125,224.9453125,60.0,47.0
1126,225.171875,225.64453125,65.0,76.0
1127,225.171875,225.68359375,62.0,80.0
1128,225.240234375,225.767578125,38.0,68.0
1129,225.17578125,226.0703125,50.0,72.0
1130,226.099609375,226.361328125,57.0,90.0
1131,226.091796875,226.42578125,65.0,84.0
1132,226.099609375,226.45703125,62.0,79.0
1133,226.55078125,226.62109375,64.0,63.0
1134,226.318359375,226.88671875,50.0,67.0
1135,226.802734375,227.25390625,65.0,110.0
1136,227.2578125,227.35546875,64.0,59.0
1137,227.74609375,228.091796875,65.0,100.0
1138,225.85546875,228.201171875,38.0,68.0
1139,228.197265625,228.466796875,62.0,79.0
1140,228.439453125,228.548828125,65.0,56.0
1141,227.982421875,228.568359375,50.0,64.0
1142,228.431640625,228.572265625,38.0,67.0
1143,228.90234375,229.400390625,57.0,65.0
1144,228.892578125,229.40234375,65.0,66.0
1145,228.89453125,229.408203125,62.0,64.0
1146,229.62890625,229.900390625,50.0,55.0
1147,228.908203125,230.080078125,38.0,62.0
1148,229.875,230.18359375,57.0,87.0
1149,229.875,230.259765625,65.0,79.0
1150,229.875,230.294921875,62.0,77.0
1151,230.09765625,230.40625,50.0,53.0
1152,230.33203125,230.826171875,38.0,65.0
1153,230.79296875,231.083984375,60.0,65.0
1154,230.791015625,231.09375,69.0,70.0
1155,230.791015625,231.107421875,64.0,62.0
1156,230.798828125,231.296875,45.0,49.0
1157,231.267578125,231.416015625,60.0,76.0
1158,231.271484375,231.466796875,69.0,79.0
1159,231.013671875,231.501953125,52.0,59.0
1160,231.4765625,231.740234375,45.0,74.0
1161,231.267578125,231.76953125,64.0,68.0
1162,231.740234375,232.17578125,57.0,67.0
1163,232.232421875,232.37890625,57.0,83.0
1164,231.7265625,232.4140625,65.0,70.0
1165,231.740234375,232.421875,62.0,65.0
1166,231.744140625,232.4765625,38.0,67.0
1167,231.978515625,232.689453125,50.0,47.0
1168,232.71484375,233.14453125,46.0,53.0
1169,232.681640625,233.162109375,65.0,57.0
1170,232.703125,233.169921875,62.0,48.0
1171,232.681640625,233.1875,58.0,72.0
1172,233.380859375,233.68359375,46.0,72.0
1173,233.609375,233.91015625,58.0,76.0
1174,233.61328125,234.00390625,62.0,72.0
1175,233.8203125,234.017578125,46.0,32.0
1176,233.611328125,234.142578125,65.0,73.0
1177,234.046875,234.177734375,58.0,41.0
1178,234.533203125,234.8359375,60.0,68.0
1179,234.5390625,234.8515625,67.0,71.0
1180,234.5390625,234.884765625,64.0,65.0
1181,234.541015625,235.005859375,36.0,56.0
1182,234.771484375,235.05078125,48.0,53.0
1183,235.005859375,235.091796875,60.0,62.0
1184,234.978515625,235.1015625,64.0,54.0
1185,234.9921875,235.123046875,67.0,62.0
1186,235.484375,235.8046875,60.0,64.0
1187,235.4765625,235.810546875,69.0,68.0
1188,235.47265625,235.83984375,65.0,61.0
1189,235.48046875,236.009765625,41.0,51.0
1190,235.91796875,236.052734375,65.0,61.0
1191,235.931640625,236.064453125,60.0,47.0
1192,235.708984375,236.06640625,53.0,49.0
1193,235.923828125,236.091796875,69.0,58.0
1194,236.40625,236.794921875,58.0,65.0
1195,236.40625,236.82421875,67.0,67.0
1196,236.419921875,236.8515625,62.0,55.0
1197,237.09375,237.359375,55.0,45.0
1198,237.33984375,237.49609375,58.0,75.0
1199,236.400390625,237.5234375,43.0,54.0
1200,237.33984375,237.626953125,67.0,74.0
1201,237.345703125,237.73828125,62.0,64.0
1202,237.564453125,237.84765625,55.0,53.0
1203,237.8125,237.873046875,43.0,56.0
1204,238.2734375,238.802734375,69.0,60.0
1205,238.27734375,238.8046875,60.0,54.0
1206,238.275390625,238.830078125,64.0,59.0
1207,238.740234375,238.8828125,52.0,63.0
1208,238.2734375,238.912109375,45.0,51.0
1209,238.970703125,239.02734375,60.0,75.0
1210,238.974609375,239.060546875,69.0,71.0
1211,238.9765625,239.064453125,64.0,56.0
1212,239.236328125,239.578125,57.0,64.0
1213,239.228515625,239.603515625,65.0,71.0
1214,239.236328125,239.607421875,62.0,64.0
1215,239.22265625,239.75390625,38.0,63.0
1216,239.455078125,239.81640625,50.0,59.0
1217,239.701171875,239.82421875,57.0,57.0
1218,239.689453125,239.85546875,65.0,63.0
1219,239.693359375,239.91015625,62.0,68.0
1220,240.197265625,240.625,58.0,65.0
1221,240.189453125,240.673828125,65.0,74.0
1222,240.201171875,240.701171875,62.0,59.0
1223,240.853515625,241.099609375,53.0,53.0
1224,240.189453125,241.248046875,46.0,72.0
1225,241.103515625,241.3203125,58.0,75.0
1226,241.103515625,241.53515625,65.0,75.0
1227,241.328125,241.58984375,53.0,50.0
1228,241.556640625,241.611328125,46.0,62.0
1229,241.103515625,241.623046875,62.0,75.0
1230,242.099609375,242.1875,48.0,24.0
1231,242.056640625,242.599609375,60.0,59.0
1232,242.048828125,242.623046875,67.0,66.0
1233,242.048828125,242.6484375,64.0,62.0
1234,242.76171875,243.228515625,48.0,59.0
1235,242.052734375,243.455078125,36.0,56.0
1236,243.20703125,243.478515625,60.0,90.0
1237,243.203125,243.634765625,64.0,87.0
1238,243.4140625,243.671875,48.0,67.0
1239,243.20703125,243.697265625,67.0,89.0
1240,243.646484375,243.703125,36.0,52.0
1241,243.9296875,244.791015625,65.0,73.0
1242,243.9296875,244.81640625,69.0,73.0
1243,245.3359375,245.6484375,72.0,74.0
1244,244.8671875,245.68359375,65.0,69.0
1245,244.8671875,245.69921875,69.0,60.0
1246,245.8046875,247.1328125,74.0,68.0
1247,244.8671875,247.177734375,62.0,54.0
1248,244.3984375,247.201171875,57.0,60.0
1249,243.9296875,247.224609375,50.0,71.0
1250,245.8046875,247.39453125,65.0,64.0
1251,245.8046875,247.509765625,69.0,67.0
1252,247.6796875,248.509765625,65.0,77.0
1253,247.6796875,248.537109375,62.0,74.0
1254,247.6796875,248.55859375,58.0,65.0
1255,248.6171875,249.158203125,58.0,61.0
1256,248.6171875,249.166015625,65.0,74.0
1257,248.6171875,249.18359375,62.0,74.0
1258,247.6796875,249.578125,43.0,69.0
1259,249.5546875,250.33203125,60.0,67.0
1260,249.5546875,250.33984375,64.0,72.0
1261,249.5546875,250.35546875,67.0,74.0
1262,249.5546875,250.5078125,45.0,59.0
1263,250.4921875,251.306640625,62.0,62.0
1264,250.4921875,251.314453125,65.0,69.0
1265,250.4921875,251.31640625,69.0,68.0
1266,250.4921875,251.322265625,50.0,65.0
1267,251.4296875,252.9140625,65.0,74.0
1268,251.4296875,253.017578125,62.0,73.0
1269,251.4296875,253.046875,46.0,59.0
1270,251.4296875,253.087890625,58.0,64.0
1271,253.5390625,255.890625,60.0,43.0
1272,253.5390625,255.9453125,64.0,32.0
1273,253.5390625,256.052734375,48.0,59.0
1274,259.41796875,259.75,57.0,41.0
1275,258.984375,259.947265625,62.0,61.0
1276,259.734375,259.947265625,62.0,41.0
1277,259.958984375,260.15625,64.0,49.0
1278,258.984375,260.2265625,65.0,69.0
1279,260.158203125,260.2265625,65.0,47.0
1280,260.34375,260.48046875,69.0,41.0
1281,260.53515625,260.74609375,74.0,56.0
1282,260.724609375,260.900390625,76.0,57.0
1283,260.908203125,260.978515625,77.0,43.0
1284,261.08984375,261.275390625,81.0,51.0
1285,261.369140625,261.875,86.0,41.0
1286,261.640625,261.94140625,88.0,47.0
1287,261.9375,262.650390625,89.0,35.0
1288,262.578125,262.724609375,93.0,41.0
1289,258.984375,262.9296875,50.0,63.0
