,start,end,pitch,velocity
0,0.9258897916666667,1.4518968750000003,68.0,107.0
1,1.395189791666667,1.8248926041666669,70.0,96.0
2,1.864489791666667,2.347477708333334,75.0,107.0
3,2.333789791666667,3.4777085416666673,72.0,127.0
4,3.2723897916666673,3.558369479166667,70.0,122.0
5,3.507039791666667,3.735823541666667,68.0,71.0
6,3.7416897916666674,5.147145520833334,65.0,99.0
7,6.557489791666668,6.999902812500001,68.0,112.0
8,7.026789791666667,7.441338125000001,70.0,112.0
9,7.496089791666668,8.006942395833335,75.0,112.0
10,8.903989791666667,9.159171666666667,70.0,112.0
11,7.965389791666667,9.196813437500001,72.0,122.0
12,9.138639791666668,9.400665625000002,68.0,95.0
13,9.373289791666668,10.554850312500001,70.0,122.0
14,11.015839791666668,11.290575833333335,60.0,90.0
15,11.250489791666668,11.510560208333334,61.0,90.0
16,11.485139791666668,11.688014270833335,63.0,95.0
17,11.719789791666669,11.965194583333336,65.0,99.0
18,11.954439791666669,12.194956041666668,67.0,102.0
19,12.18908979166667,12.666211458333335,68.0,102.0
20,12.658389791666668,13.070493854166669,70.0,102.0
21,13.127689791666668,13.618499375000003,75.0,102.0
22,13.596989791666669,14.486704375000002,72.0,122.0
23,14.535589791666668,14.802993020833336,70.0,99.0
24,14.652914791666669,14.90369697916667,68.0,85.0
25,15.004889791666669,15.945445208333336,65.0,99.0
26,15.94348979166667,16.357549270833335,68.0,95.0
27,16.41278979166667,17.136293958333336,65.0,96.0
28,17.35138979166667,17.46284854166667,65.0,67.0
29,17.46871479166667,17.56257479166667,67.0,72.0
30,17.586039791666668,17.691143437500003,68.0,81.0
31,17.70336479166667,17.79233625,69.0,86.0
32,17.82068979166667,18.602856458333335,70.0,102.0
33,18.75928979166667,19.19192572916667,72.0,117.0
34,19.228589791666668,19.890987187500002,70.0,112.0
35,19.697889791666668,20.16718979166667,65.0,100.0
36,20.16718979166667,20.620846458333336,70.0,122.0
37,20.63648979166667,22.709231458333335,68.0,107.0
38,43.16288979166667,43.61019135416667,67.0,90.0
39,43.632189791666676,44.14402010416667,67.0,77.0
40,44.10148979166667,44.510171875000005,70.0,89.0
41,44.57078979166667,45.08750864583334,75.0,88.0
42,45.040089791666674,45.51330062500001,79.0,100.0
43,45.50938979166667,45.99628854166667,82.0,96.0
44,45.978689791666675,47.23211187500001,80.0,97.0
45,47.38658979166667,47.85295666666667,63.0,90.0
46,47.85588979166668,48.340833125,68.0,78.0
47,48.32518979166667,48.81648822916667,70.0,89.0
48,48.79448979166667,49.36547145833334,68.0,93.0
49,50.202389791666675,50.64284739583334,63.0,88.0
50,50.67168979166667,51.026109062500005,65.0,86.0
51,51.14098979166668,51.45238989583334,67.0,92.0
52,51.61028979166667,52.23797854166667,68.0,92.0
53,54.426089791666676,54.74384500000001,67.0,95.0
54,54.89538979166667,55.234165729166676,67.0,93.0
55,55.36468979166668,55.662401979166674,68.0,79.0
56,55.833989791666674,56.51740791666668,70.0,107.0
57,67.09718979166668,67.61146437500001,68.0,107.0
58,67.56648979166667,67.94535177083334,70.0,100.0
59,68.03578979166667,68.3902090625,72.0,112.0
60,68.50508979166668,69.74042427083334,75.0,117.0
61,83.99198979166668,84.45297927083334,68.0,102.0
62,84.46128979166667,84.92814552083334,72.0,89.0
63,84.93058979166668,85.40037864583334,70.0,95.0
64,85.39988979166668,86.03100052083335,65.0,89.0
65,101.59073979166668,101.86889781250001,67.0,83.0
66,101.82538979166668,102.11088062500001,68.0,81.0
67,102.06003979166668,102.35628541666668,70.0,83.0
68,102.29468979166668,103.67032541666669,72.0,89.0
69,106.75303979166668,106.99160062500002,65.0,68.0
70,106.98768979166668,107.46334489583334,68.0,81.0
71,107.45698979166669,107.94633281250002,72.0,92.0
72,107.92628979166668,109.22077562500002,70.0,97.0
73,110.74208979166669,111.20307927083334,72.0,100.0
74,111.21138979166668,111.61811645833335,70.0,92.0
75,111.68068979166668,111.95053729166668,72.0,100.0
76,112.14998979166668,113.43372083333335,68.0,127.0
77,113.55788979166668,113.98417062500002,68.0,112.0
78,114.02718979166669,114.36303260416668,70.0,100.0
79,114.49648979166668,114.89637250000001,75.0,97.0
80,114.96578979166668,115.81395177083336,72.0,112.0
81,115.90438979166669,116.14686145833335,70.0,127.0
82,116.13903979166668,116.39031083333334,68.0,99.0
83,116.37368979166668,116.78628270833335,65.0,96.0
84,117.31228979166669,117.77034614583334,68.0,99.0
85,117.78158979166669,118.96168375000002,65.0,96.0
86,119.18948979166669,120.03716291666669,70.0,122.0
87,120.12808979166668,120.57930218750002,72.0,112.0
88,120.59738979166669,121.32578250000002,70.0,102.0
89,121.06668979166669,121.53598979166668,65.0,96.0
90,121.53598979166668,121.97009229166669,70.0,112.0
91,122.00528979166668,123.41318979166668,68.0,102.0
92,144.53168979166668,144.97899135416668,67.0,90.0
93,145.00098979166668,145.51282010416668,67.0,77.0
94,145.4702897916667,145.87897187500002,70.0,89.0
95,145.9395897916667,146.45630864583336,75.0,88.0
96,146.4088897916667,146.88210062500002,79.0,100.0
97,146.8781897916667,147.3650885416667,82.0,96.0
98,147.34748979166667,148.600911875,80.0,97.0
99,148.7553897916667,149.2217566666667,63.0,90.0
100,149.2246897916667,149.709633125,68.0,78.0
101,149.6939897916667,150.18528822916667,70.0,89.0
102,150.1632897916667,150.73427145833335,68.0,93.0
103,151.57118979166668,152.01164739583336,63.0,88.0
104,152.0404897916667,152.39490906250003,65.0,86.0
105,152.5097897916667,152.82118989583336,67.0,92.0
106,152.9790897916667,153.6067785416667,68.0,92.0
107,155.7948897916667,156.11264500000001,67.0,95.0
108,156.2641897916667,156.6029657291667,67.0,93.0
109,156.7334897916667,157.0312019791667,68.0,79.0
110,157.20278979166667,157.88620791666668,70.0,107.0
111,168.4659897916667,168.98026437500002,68.0,107.0
112,168.9352897916667,169.31415177083335,70.0,100.0
113,169.4045897916667,169.7590090625,72.0,112.0
114,169.8738897916667,171.10922427083335,75.0,117.0
115,185.3607897916667,185.82177927083336,68.0,102.0
116,185.8300897916667,186.29694552083336,72.0,89.0
117,186.2993897916667,186.76917864583336,70.0,95.0
118,186.7686897916667,187.39980052083337,65.0,89.0
119,202.95953979166669,203.23769781250002,67.0,83.0
120,203.1941897916667,203.47968062500001,68.0,81.0
121,203.4288397916667,203.7250854166667,70.0,83.0
122,203.6634897916667,205.0391254166667,72.0,89.0
123,208.1218397916667,208.36040062500004,65.0,68.0
124,208.3564897916667,208.83214489583335,68.0,81.0
125,208.8257897916667,209.31513281250002,72.0,92.0
126,209.2950897916667,210.58957562500004,70.0,97.0
127,212.1108897916667,212.57187927083336,72.0,100.0
128,212.5801897916667,212.98691645833335,70.0,92.0
129,213.0494897916667,213.3193372916667,72.0,100.0
130,213.9880897916667,214.28042458333337,63.0,90.0
131,214.2227397916667,214.53462875000002,65.0,81.0
132,214.45738979166669,214.69399520833338,67.0,99.0
133,214.6920397916667,214.93842229166668,68.0,86.0
134,214.9266897916667,216.06865312500003,72.0,117.0
135,215.8652897916667,216.06865312500003,72.0,95.0
136,216.3345897916667,217.16515302083337,75.0,117.0
137,217.2731897916667,217.73124614583335,72.0,112.0
138,217.74248979166669,218.2044569791667,70.0,99.0
139,218.2117897916667,218.71579843750004,72.0,93.0
140,218.6810897916667,219.16163343750003,67.0,93.0
141,219.1503897916667,220.35101562500003,65.0,99.0
142,220.5729554166667,221.2358416666667,70.0,102.0
143,221.69585343750003,222.1040466666667,75.0,122.0
144,222.36265052083337,222.95954145833338,77.0,122.0
145,231.38054333333338,231.90019531250005,80.0,127.0
146,231.85864270833338,232.2834569791667,82.0,107.0
147,232.30056687500004,232.77964395833337,87.0,127.0
148,232.7586232291667,233.84485718750003,84.0,127.0
149,233.66447000000002,233.91965187500003,82.0,97.0
150,233.8878763541667,234.13523656250004,80.0,89.0
151,234.1474579166667,234.95015645833337,77.0,100.0
152,235.07237000000003,235.4350997916667,80.0,100.0
153,235.57784520833337,238.44057520833337,80.0,88.0
154,235.58371145833337,238.5676772916667,87.0,127.0
