,start,end,pitch,velocity
0,23.45228979166667,23.98758510416667,68.0,102.0
1,23.92158979166667,24.432442395833338,70.0,96.0
2,24.39088979166667,24.86752260416667,72.0,100.0
3,24.86018979166667,25.527964583333336,70.0,127.0
4,26.26808979166667,26.68312697916667,68.0,107.0
5,26.737389791666672,27.17002572916667,70.0,122.0
6,27.20668979166667,27.630037500000004,65.0,96.0
7,27.67598979166667,28.58232541666667,63.0,92.0
8,29.08388979166667,29.66758166666667,75.0,127.0
9,30.022489791666672,30.29135958333334,75.0,127.0
10,30.491789791666672,30.84132052083334,72.0,127.0
11,30.96108979166667,31.277378437500005,68.0,117.0
12,31.43038979166667,31.79458614583334,65.0,100.0
13,31.89968979166667,33.19026479166667,70.0,122.0
14,34.71548979166667,35.44192708333334,72.0,112.0
15,35.65408979166667,36.05348364583334,72.0,117.0
16,36.123389791666675,36.64939687500001,75.0,127.0
17,37.06198979166667,37.409076250000005,72.0,127.0
18,37.53128979166667,37.93019479166667,70.0,122.0
19,38.00058979166667,38.29096916666667,72.0,122.0
20,38.469889791666674,38.74071500000001,72.0,102.0
21,38.70453979166667,38.94310062500001,70.0,85.0
22,38.93918979166667,39.915431562500004,68.0,99.0
23,40.34708979166667,41.078904479166674,70.0,127.0
24,41.28568979166667,41.608822395833336,68.0,117.0
25,41.754989791666674,42.13434062500001,65.0,99.0
26,42.22428979166667,42.52884593750001,68.0,112.0
27,42.693589791666675,43.13844708333334,65.0,112.0
28,43.16288979166667,44.50821645833334,63.0,112.0
29,45.978689791666675,46.51398510416667,68.0,102.0
30,46.44798979166667,46.95884239583334,70.0,96.0
31,46.917289791666676,47.393922604166676,72.0,100.0
32,47.38658979166667,48.05436458333334,70.0,127.0
33,48.79448979166667,49.209526979166675,68.0,107.0
34,49.263789791666674,49.69642572916668,70.0,122.0
35,49.73308979166667,50.15643750000001,65.0,96.0
36,50.202389791666675,51.10872541666667,63.0,92.0
37,51.61028979166667,52.19398166666667,75.0,127.0
38,52.548889791666674,52.81775958333334,75.0,127.0
39,53.01818979166667,53.36772052083334,72.0,127.0
40,53.487489791666675,53.80377843750001,68.0,117.0
41,53.95678979166667,54.32098614583334,65.0,100.0
42,54.426089791666676,55.71666479166667,70.0,122.0
43,57.24188979166667,57.96832708333334,72.0,112.0
44,58.18048979166667,58.57988364583334,72.0,117.0
45,58.64978979166668,59.17579687500001,75.0,127.0
46,59.58838979166668,59.93547625000001,72.0,127.0
47,60.057689791666675,60.456594791666674,70.0,122.0
48,60.52698979166667,60.81736916666667,72.0,122.0
49,60.996289791666676,61.26711500000001,72.0,102.0
50,61.23093979166668,61.46950062500001,70.0,85.0
51,61.46558979166667,62.441831562500006,68.0,99.0
52,62.87348979166668,63.342789791666675,70.0,127.0
53,63.342789791666675,63.609704166666674,70.0,122.0
54,63.81208979166667,64.04038468750001,70.0,117.0
55,64.04673979166668,64.29312229166668,72.0,93.0
56,64.28138979166667,64.57176916666667,70.0,122.0
57,65.21998979166668,65.4556175,68.0,117.0
58,65.45463979166668,65.69711145833334,70.0,97.0
59,65.68928979166668,66.76819093750001,68.0,112.0
60,68.50508979166668,69.29947781250002,75.0,127.0
61,69.44368979166667,69.91885604166667,77.0,127.0
62,69.91298979166667,70.82128083333335,75.0,117.0
63,71.32088979166667,72.01799583333334,77.0,127.0
64,72.25948979166668,72.51027197916667,75.0,127.0
65,72.49413979166668,72.72830093750001,77.0,97.0
66,72.72878979166667,73.68010000000001,75.0,117.0
67,74.13668979166668,74.79957604166668,77.0,127.0
68,75.07528979166668,75.43361989583335,75.0,127.0
69,75.54458979166668,75.93127343750001,77.0,127.0
70,76.01388979166667,76.59073770833335,68.0,112.0
71,76.95248979166668,77.44476593750001,68.0,122.0
72,77.42178979166668,77.90477770833334,65.0,97.0
73,77.89108979166667,78.32568114583334,72.0,117.0
74,78.36038979166668,79.36107427083334,70.0,122.0
75,79.76828979166667,80.48299458333335,72.0,127.0
76,80.70688979166668,81.01535677083335,72.0,127.0
77,81.17618979166667,81.661133125,75.0,127.0
78,82.11478979166668,82.44134437500001,72.0,112.0
79,82.58408979166668,82.90233385416668,70.0,127.0
80,83.05338979166667,83.42198583333334,70.0,102.0
81,83.52268979166668,83.995900625,67.0,112.0
82,83.99198979166668,84.30534531250001,65.0,100.0
83,85.39988979166668,85.73817687500001,70.0,127.0
84,85.86918979166668,86.20307718750001,70.0,100.0
85,86.33848979166667,86.67335489583334,72.0,122.0
86,86.80778979166668,87.15683166666668,75.0,122.0
87,87.27708979166668,87.69114927083335,77.0,107.0
88,87.74638979166667,88.01721500000001,79.0,127.0
89,88.09836479166668,88.32372656250001,77.0,97.0
90,88.45033979166668,89.93156791666668,75.0,107.0
91,91.03148979166667,91.82587781250001,75.0,127.0
92,91.97008979166668,92.44525604166668,77.0,127.0
93,92.43938979166668,93.34768083333334,75.0,117.0
94,93.84728979166668,94.14842395833335,77.0,127.0
95,94.19926479166668,94.75264770833334,80.0,117.0
96,94.78588979166668,95.03667197916668,75.0,127.0
97,95.02053979166668,95.25470093750002,77.0,97.0
98,95.25518979166668,96.20650000000002,75.0,117.0
99,96.66308979166668,97.13238979166668,77.0,127.0
100,97.13238979166668,97.41201437500001,80.0,122.0
101,97.60168979166669,98.05143562500001,77.0,112.0
102,98.07098979166668,98.49580406250001,82.0,117.0
103,98.54028979166668,98.87173291666669,80.0,127.0
104,99.00958979166668,99.34201062500001,77.0,127.0
105,99.47888979166667,99.85481864583335,75.0,112.0
106,99.94818979166668,100.27669979166669,75.0,127.0
107,100.41748979166668,100.85208114583335,72.0,117.0
108,100.88678979166669,101.88747427083335,70.0,122.0
109,102.29468979166668,103.00939458333335,72.0,127.0
110,103.23328979166668,103.54175677083335,72.0,127.0
111,103.70258979166668,104.64118979166668,75.0,127.0
112,104.64118979166668,104.96774437500001,72.0,112.0
113,105.11048979166668,105.42873385416668,70.0,127.0
114,105.57978979166668,105.94838583333335,70.0,102.0
115,106.04908979166669,106.52230062500001,67.0,112.0
116,106.51838979166668,107.45698979166669,65.0,100.0
117,107.92628979166668,108.26457687500002,70.0,127.0
118,108.39558979166668,108.72947718750001,70.0,100.0
119,108.86488979166668,109.22077562500002,75.0,127.0
120,109.33418979166669,110.10315739583335,70.0,107.0
121,110.27278979166668,110.51037291666668,68.0,102.0
122,110.50743979166668,110.73475697916668,70.0,88.0
123,110.74208979166669,112.47410010416668,68.0,102.0
124,124.82108979166668,125.35638510416669,68.0,102.0
125,125.29038979166668,125.80124239583336,70.0,96.0
126,125.75968979166669,126.23632260416669,72.0,100.0
127,126.22898979166668,126.89676458333335,70.0,127.0
128,127.63688979166669,128.0519269791667,68.0,107.0
129,128.10618979166668,128.5388257291667,70.0,122.0
130,128.57548979166668,128.9988375,65.0,96.0
131,129.0447897916667,129.95112541666668,63.0,92.0
132,130.45268979166667,131.03638166666667,75.0,127.0
133,131.39128979166668,131.66015958333335,75.0,127.0
134,131.86058979166668,132.21012052083336,72.0,127.0
135,132.3298897916667,132.64617843750003,68.0,117.0
136,132.7991897916667,133.16338614583336,65.0,100.0
137,133.2684897916667,134.55906479166669,70.0,122.0
138,136.0842897916667,136.81072708333335,72.0,112.0
139,137.0228897916667,137.42228364583335,72.0,117.0
140,137.49218979166668,138.01819687500003,75.0,127.0
141,138.43078979166668,138.77787625000002,72.0,127.0
142,138.9000897916667,139.29899479166667,70.0,122.0
143,139.3693897916667,139.65976916666668,72.0,122.0
144,139.8386897916667,140.10951500000002,72.0,102.0
145,140.07333979166668,140.31190062500002,70.0,85.0
146,140.3079897916667,141.28423156250003,68.0,99.0
147,141.71588979166668,142.44770447916667,70.0,127.0
148,142.6544897916667,142.97762239583335,68.0,117.0
149,143.1237897916667,143.50314062500001,65.0,99.0
150,143.5930897916667,143.89764593750002,68.0,112.0
151,144.06238979166667,144.50724708333334,65.0,112.0
152,144.53168979166668,145.87701645833334,63.0,112.0
153,147.34748979166667,147.8827851041667,68.0,102.0
154,147.81678979166668,148.32764239583335,70.0,96.0
155,148.28608979166668,148.7627226041667,72.0,100.0
156,148.7553897916667,149.42316458333335,70.0,127.0
157,150.1632897916667,150.5783269791667,68.0,107.0
158,150.63258979166667,151.06522572916668,70.0,122.0
159,151.10188979166668,151.52523750000003,65.0,96.0
160,151.57118979166668,152.47752541666668,63.0,92.0
161,152.9790897916667,153.5627816666667,75.0,127.0
162,153.91768979166667,154.18655958333335,75.0,127.0
163,154.38698979166668,154.73652052083335,72.0,127.0
164,154.85628979166668,155.17257843750002,68.0,117.0
165,155.3255897916667,155.68978614583335,65.0,100.0
166,155.7948897916667,157.08546479166668,70.0,122.0
167,158.6106897916667,159.33712708333334,72.0,112.0
168,159.5492897916667,159.94868364583334,72.0,117.0
169,160.0185897916667,160.54459687500002,75.0,127.0
170,160.95718979166668,161.30427625000002,72.0,127.0
171,161.42648979166668,161.8253947916667,70.0,122.0
172,161.8957897916667,162.1861691666667,72.0,122.0
173,162.3650897916667,162.635915,72.0,102.0
174,162.59973979166668,162.83830062500002,70.0,85.0
175,162.8343897916667,163.81063156250002,68.0,99.0
176,164.24228979166668,164.71158979166668,70.0,127.0
177,164.71158979166668,164.97850416666668,70.0,122.0
178,165.1808897916667,165.40918468750002,70.0,117.0
179,165.4155397916667,165.66192229166668,72.0,93.0
180,165.6501897916667,165.94056916666668,70.0,122.0
181,166.5887897916667,166.8244175,68.0,117.0
182,166.8234397916667,167.06591145833335,70.0,97.0
183,167.0580897916667,168.13699093750003,68.0,112.0
184,169.8738897916667,170.66827781250004,75.0,127.0
185,170.81248979166668,171.28765604166668,77.0,127.0
186,171.28178979166668,172.19008083333335,75.0,117.0
187,172.6896897916667,173.38679583333337,77.0,127.0
188,173.6282897916667,173.8790719791667,75.0,127.0
189,173.8629397916667,174.09710093750002,77.0,97.0
190,174.09758979166668,175.04890000000003,75.0,117.0
191,175.5054897916667,176.1683760416667,77.0,127.0
192,176.4440897916667,176.80241989583337,75.0,127.0
193,176.9133897916667,177.30007343750003,77.0,127.0
194,177.38268979166668,177.95953770833336,68.0,112.0
195,178.3212897916667,178.81356593750002,68.0,122.0
196,178.7905897916667,179.27357770833336,65.0,97.0
197,179.2598897916667,179.69448114583335,72.0,117.0
198,179.7291897916667,180.72987427083336,70.0,122.0
199,181.13708979166668,181.85179458333334,72.0,127.0
200,182.0756897916667,182.38415677083336,72.0,127.0
201,182.5449897916667,183.029933125,75.0,127.0
202,183.4835897916667,183.81014437500002,72.0,112.0
203,183.95288979166668,184.2711338541667,70.0,127.0
204,184.42218979166668,184.79078583333336,70.0,102.0
205,184.8914897916667,185.364700625,67.0,112.0
206,185.3607897916667,185.67414531250003,65.0,100.0
207,186.7686897916667,187.10697687500002,70.0,127.0
208,187.2379897916667,187.57187718750004,70.0,100.0
209,187.70728979166668,188.04215489583336,72.0,122.0
210,188.1765897916667,188.5256316666667,75.0,122.0
211,188.6458897916667,189.05994927083336,77.0,107.0
212,189.1151897916667,189.38601500000001,79.0,127.0
213,189.4671647916667,189.69252656250003,77.0,97.0
214,189.8191397916667,191.3003679166667,75.0,107.0
215,192.4002897916667,193.19467781250003,75.0,127.0
216,193.3388897916667,193.8140560416667,77.0,127.0
217,193.8081897916667,194.71648083333335,75.0,117.0
218,195.2160897916667,195.51722395833335,77.0,127.0
219,195.5680647916667,196.12144770833336,80.0,117.0
220,196.1546897916667,196.4054719791667,75.0,127.0
221,196.38933979166669,196.62350093750004,77.0,97.0
222,196.6239897916667,197.57530000000003,75.0,117.0
223,198.03188979166669,198.5011897916667,77.0,127.0
224,198.5011897916667,198.78081437500003,80.0,122.0
225,198.9704897916667,199.42023562500003,77.0,112.0
226,199.4397897916667,199.86460406250004,82.0,117.0
227,199.9090897916667,200.2405329166667,80.0,127.0
228,200.3783897916667,200.71081062500002,77.0,127.0
229,200.84768979166668,201.22361864583337,75.0,112.0
230,201.31698979166669,201.6454997916667,75.0,127.0
231,201.7862897916667,202.22088114583337,72.0,117.0
232,202.2555897916667,203.25627427083336,70.0,122.0
233,203.6634897916667,204.37819458333337,72.0,127.0
234,204.60208979166669,204.91055677083335,72.0,127.0
235,205.0713897916667,206.0099897916667,75.0,127.0
236,206.0099897916667,206.33654437500002,72.0,112.0
237,206.4792897916667,206.7975338541667,70.0,127.0
238,206.9485897916667,207.31718583333335,70.0,102.0
239,207.41788979166668,207.89110062500004,67.0,112.0
240,207.88718979166669,208.8257897916667,65.0,100.0
241,209.2950897916667,209.63337687500004,70.0,127.0
242,209.7643897916667,210.09827718750003,70.0,100.0
243,210.2336897916667,210.58957562500004,75.0,127.0
244,210.7029897916667,211.47195739583336,70.0,107.0
245,211.6415897916667,211.8791729166667,68.0,102.0
246,211.8762397916667,212.10355697916668,70.0,88.0
247,212.1108897916667,213.8429001041667,68.0,102.0
248,214.9266897916667,215.64139458333335,72.0,127.0
249,215.8652897916667,216.17375677083336,72.0,127.0
250,216.3345897916667,217.2731897916667,75.0,127.0
251,217.2731897916667,217.59974437500003,72.0,112.0
252,217.74248979166669,218.0607338541667,70.0,127.0
253,218.2117897916667,218.58038583333337,70.0,102.0
254,218.6810897916667,219.15430062500002,67.0,112.0
255,219.1503897916667,220.0889897916667,65.0,100.0
256,220.59446500000004,220.7254779166667,70.0,86.0
257,220.83058156250004,220.93128552083337,70.0,90.0
258,221.0642538541667,221.57412875000003,70.0,107.0
259,221.80731218750003,222.14902125000003,75.0,112.0
260,222.4193576041667,223.2728969791667,77.0,127.0
261,223.08468812500004,223.42590833333335,80.0,117.0
262,223.39217739583336,225.3612819791667,82.0,117.0
263,225.22733593750004,228.1066869791667,84.0,127.0
264,229.0306213541667,229.5556507291667,80.0,112.0
265,229.52094208333335,231.7158972916667,82.0,102.0
266,231.6850994791667,236.97107958333336,80.0,122.0
