,start,end,pitch,velocity
0,1.864489791666667,3.4967738541666673,56.0,75.0
1,0.9258897916666667,3.6356084375000006,44.0,78.0
2,1.395189791666667,3.6356084375000006,51.0,48.0
3,2.333789791666667,3.7324015625000007,63.0,70.0
4,2.333789791666667,3.737290104166667,68.0,66.0
5,2.333789791666667,3.7573331250000006,60.0,59.0
6,3.7416897916666674,5.928334479166668,49.0,77.0
7,4.210989791666667,6.515448333333334,56.0,54.0
8,4.6802897916666675,6.536957916666667,61.0,63.0
9,5.149589791666667,6.585843333333334,65.0,71.0
10,7.496089791666668,8.4899303125,56.0,89.0
11,7.026789791666667,8.661518125,51.0,58.0
12,6.557489791666668,8.737779375,44.0,78.0
13,7.965389791666667,9.549277291666668,68.0,68.0
14,7.965389791666667,9.614294895833334,60.0,56.0
15,7.965389791666667,9.631404791666668,63.0,68.0
16,10.781189791666668,10.833008333333336,55.0,47.0
17,10.781189791666668,11.328217604166667,58.0,75.0
18,9.373289791666668,11.712945833333334,39.0,89.0
19,9.842589791666668,11.748632187500002,46.0,67.0
20,11.250489791666668,11.842492187500001,55.0,69.0
21,10.311889791666667,11.877200833333335,51.0,92.0
22,11.719789791666669,12.065409687500003,58.0,75.0
23,10.781189791666668,12.103051458333335,63.0,72.0
24,12.893039791666668,13.157021041666669,60.0,93.0
25,12.658389791666668,13.183419166666669,56.0,97.0
26,12.18908979166667,13.468910000000001,44.0,82.0
27,13.127689791666668,13.551037500000001,63.0,102.0
28,12.423739791666668,13.623387916666669,51.0,86.0
29,13.362339791666669,13.665429375000002,60.0,93.0
30,13.83163979166667,14.341514687500002,51.0,81.0
31,13.596989791666669,14.446618333333335,44.0,89.0
32,14.06628979166667,14.451995729166669,56.0,81.0
33,14.535589791666668,14.912496354166668,60.0,88.0
34,14.300939791666668,14.939383333333335,63.0,97.0
35,14.770239791666668,15.083595312500002,56.0,82.0
36,15.474189791666669,15.901937187500002,49.0,86.0
37,15.004889791666669,16.282754583333336,37.0,69.0
38,15.239539791666669,16.42892197916667,44.0,67.0
39,15.70883979166667,16.552113229166668,56.0,85.0
40,15.94348979166667,16.60050979166667,65.0,96.0
41,16.17813979166667,16.986704583333335,61.0,97.0
42,16.64743979166667,17.233087083333334,44.0,82.0
43,16.41278979166667,17.252152395833335,37.0,83.0
44,16.88208979166667,17.448671770833336,49.0,78.0
45,17.116739791666667,17.799180208333336,56.0,89.0
46,17.586039791666668,17.809446145833334,61.0,99.0
47,17.35138979166667,17.90575041666667,65.0,90.0
48,18.05533979166667,18.77395541666667,50.0,93.0
49,18.28998979166667,18.780310520833336,53.0,85.0
50,17.82068979166667,18.828707083333335,46.0,83.0
51,18.75928979166667,19.210013333333336,65.0,100.0
52,18.99393979166667,19.22419010416667,62.0,112.0
53,18.52463979166667,19.34884791666667,58.0,95.0
54,19.228589791666668,20.083106875000002,39.0,78.0
55,19.46323979166667,20.127103750000003,46.0,85.0
56,19.697889791666668,20.313357187500003,51.0,86.0
57,19.93253979166667,20.64088947916667,58.0,89.0
58,20.16718979166667,20.641867187500004,67.0,107.0
59,20.40183979166667,20.65115541666667,63.0,82.0
60,21.10578979166667,21.459720208333337,56.0,77.0
61,21.340439791666668,21.642062812500004,60.0,76.0
62,20.63648979166667,21.925109375,44.0,67.0
63,20.87113979166667,22.04585635416667,51.0,65.0
64,22.04438979166667,23.284123958333335,44.0,76.0
65,22.982989791666668,23.41562572916667,56.0,36.0
66,22.51368979166667,23.4283359375,51.0,40.0
67,21.80973979166667,23.457178333333335,60.0,47.0
68,21.57508979166667,23.467444270833337,63.0,88.0
69,23.92158979166667,24.661226145833336,51.0,59.0
70,23.45228979166667,24.70473416666667,44.0,90.0
71,24.39088979166667,24.90711979166667,63.0,86.0
72,24.86018979166667,25.789501562500003,39.0,79.0
73,25.32948979166667,25.87651760416667,46.0,47.0
74,25.79878979166667,26.340929062500003,67.0,93.0
75,26.26808979166667,27.26828541666667,44.0,61.0
76,26.737389791666672,27.353834895833337,51.0,60.0
77,27.20668979166667,27.693099687500006,63.0,85.0
78,28.14528979166667,28.666408333333337,55.0,66.0
79,27.67598979166667,28.738269895833337,48.0,69.0
80,28.61458979166667,29.17041697916667,67.0,95.0
81,29.55318979166667,30.11243895833334,51.0,63.0
82,29.08388979166667,30.114883229166672,44.0,68.0
83,30.022489791666672,30.505966562500003,60.0,64.0
84,30.022489791666672,30.525520729166672,63.0,69.0
85,30.491789791666672,31.78138708333334,37.0,72.0
86,30.843764791666672,31.829783645833338,44.0,60.0
87,31.43038979166667,31.956396875000003,65.0,86.0
88,31.89968979166667,33.16631093750001,39.0,73.0
89,32.36898979166667,33.31150062500001,46.0,58.0
90,32.83828979166667,33.83017489583334,51.0,39.0
91,33.30758979166667,34.286275833333335,39.0,64.0
92,33.77688979166667,34.32098447916667,46.0,76.0
93,32.83828979166667,34.72966656250001,63.0,69.0
94,34.24618979166667,34.76730833333334,58.0,90.0
95,34.71548979166667,36.06814927083334,44.0,76.0
96,35.184789791666674,36.12045666666667,51.0,75.0
97,35.65408979166667,36.852271354166675,63.0,93.0
98,36.123389791666675,37.15145010416667,44.0,74.0
99,36.59268979166667,37.27024166666667,51.0,75.0
100,37.29663979166667,37.57528666666667,60.0,69.0
101,37.06198979166667,37.58897458333334,63.0,97.0
102,38.00058979166667,38.47331177083334,55.0,65.0
103,37.53128979166667,38.522686041666674,48.0,70.0
104,38.469889791666674,38.99491916666667,67.0,83.0
105,38.469889791666674,39.25938927083334,63.0,72.0
106,38.93918979166667,39.90760989583334,41.0,72.0
107,39.408489791666675,39.98436,48.0,58.0
108,39.87778979166667,40.388153541666675,65.0,85.0
109,40.112439791666674,40.44730489583334,60.0,53.0
110,40.34708979166667,41.621043750000005,46.0,68.0
111,40.81638979166667,41.67726197916667,53.0,61.0
112,41.28568979166667,41.74667927083334,61.0,66.0
113,41.28568979166667,41.82880677083334,65.0,79.0
114,41.754989791666674,42.748341458333336,50.0,77.0
115,42.693589791666675,43.25626093750001,65.0,86.0
116,42.22428979166667,43.2943915625,58.0,76.0
117,43.632189791666676,44.01447375000001,51.0,71.0
118,43.86683979166667,44.16015229166667,55.0,62.0
119,43.16288979166667,44.49355083333334,39.0,66.0
120,44.336139791666675,44.61087583333334,55.0,77.0
121,43.397539791666674,44.61674208333334,46.0,52.0
122,44.10148979166667,44.63580739583334,58.0,86.0
123,44.57078979166667,45.461970937500006,39.0,82.0
124,44.80543979166667,45.485924791666676,46.0,67.0
125,45.040089791666674,45.553386666666675,51.0,92.0
126,45.274739791666676,45.988955729166676,58.0,97.0
127,45.74403979166667,45.99091114583334,63.0,78.0
128,45.50938979166667,45.99628854166667,67.0,102.0
129,45.978689791666675,47.25557687500001,44.0,86.0
130,46.44798979166667,47.38658979166667,51.0,67.0
131,46.917289791666676,47.38658979166667,60.0,73.0
132,46.917289791666676,47.38658979166667,63.0,77.0
133,47.38658979166667,48.348654791666675,39.0,72.0
134,47.85588979166668,48.351099062500005,46.0,53.0
135,48.32518979166667,48.80622229166667,58.0,86.0
136,48.79448979166667,49.48866270833334,49.0,72.0
137,49.263789791666674,49.92960916666667,56.0,79.0
138,49.73308979166667,50.21607770833334,65.0,82.0
139,50.67168979166667,51.238760625000005,55.0,56.0
140,50.202389791666675,51.278846666666674,48.0,71.0
141,51.14098979166668,51.621044583333344,63.0,76.0
142,51.14098979166668,51.63571020833334,67.0,68.0
143,51.61028979166667,52.89499854166667,44.0,66.0
144,52.07958979166667,52.93801770833334,51.0,58.0
145,52.548889791666674,52.99228052083334,63.0,92.0
146,53.01818979166667,53.952390104166675,44.0,85.0
147,53.487489791666675,53.964611458333344,51.0,73.0
148,53.95678979166667,54.43977770833334,60.0,86.0
149,55.36468979166668,56.017798958333344,51.0,89.0
150,55.833989791666674,56.67237468750001,63.0,75.0
151,54.89538979166667,56.77894489583334,46.0,61.0
152,54.426089791666676,56.785788854166675,39.0,76.0
153,56.30328979166667,56.944666458333344,51.0,83.0
154,56.772589791666675,57.27464302083334,67.0,95.0
155,55.833989791666674,57.28099812500001,58.0,72.0
156,57.711189791666676,58.866841041666675,51.0,66.0
157,57.24188979166667,59.55759197916667,44.0,79.0
158,59.119089791666674,59.66953958333334,51.0,52.0
159,59.58838979166668,60.044490729166675,56.0,75.0
160,58.64978979166668,60.08164364583334,60.0,75.0
161,58.18048979166667,60.08946531250001,63.0,89.0
162,60.52698979166667,60.996778645833345,55.0,59.0
163,60.057689791666675,61.037353541666675,48.0,72.0
164,60.996289791666676,61.81414281250001,63.0,65.0
165,61.46558979166667,62.390501875000005,41.0,68.0
166,61.93488979166668,62.46676312500001,48.0,68.0
167,62.404189791666674,62.93410770833334,68.0,89.0
168,63.342789791666675,64.23983718750002,53.0,55.0
169,62.87348979166668,64.24912541666667,46.0,72.0
170,63.81208979166667,64.30681020833335,65.0,85.0
171,64.28138979166667,65.16426041666668,39.0,86.0
172,64.75068979166667,65.23221114583335,46.0,76.0
173,65.21998979166668,65.69613375000002,63.0,78.0
174,66.62788979166668,67.0175065625,56.0,85.0
175,65.68928979166668,67.02288395833334,44.0,71.0
176,66.15858979166667,67.16660708333335,51.0,59.0
177,67.56648979166667,67.8329153125,56.0,99.0
178,67.80113979166667,68.16386958333334,58.0,102.0
179,67.09718979166668,68.31199239583334,44.0,83.0
180,67.33183979166668,68.4459384375,51.0,97.0
181,68.03578979166667,68.45033812500002,60.0,112.0
182,68.27043979166667,68.5485978125,63.0,102.0
183,68.97438979166668,69.30338864583334,56.0,100.0
184,69.20903979166668,69.52435072916667,60.0,86.0
185,68.50508979166668,69.72184781250002,44.0,93.0
186,68.73973979166668,69.92961083333334,51.0,93.0
187,69.44368979166667,70.48103833333334,63.0,99.0
188,70.38228979166668,70.64040479166668,56.0,86.0
189,69.67833979166667,70.6927121875,60.0,81.0
190,70.14763979166668,70.77141770833335,51.0,88.0
191,69.91298979166667,70.80954833333334,44.0,78.0
192,70.85158979166668,71.32088979166667,63.0,95.0
193,70.61693979166668,71.33408885416668,68.0,92.0
194,71.08623979166667,71.33995510416668,60.0,86.0
195,71.55553979166667,72.20082729166667,44.0,76.0
196,71.32088979166667,72.20571583333334,37.0,83.0
197,71.79018979166668,72.37143739583334,49.0,88.0
198,72.02483979166668,72.56746791666667,56.0,86.0
199,72.25948979166668,72.71852385416668,65.0,96.0
200,72.49413979166668,72.7605653125,61.0,81.0
201,72.61146479166668,73.4791809375,44.0,68.0
202,73.19808979166667,73.48602489583334,56.0,83.0
203,72.96343979166667,73.51926697916667,51.0,53.0
204,73.43273979166668,73.73338510416667,60.0,95.0
205,73.66738979166668,74.09660375000001,63.0,90.0
206,73.90203979166668,74.12740156250001,60.0,83.0
207,74.60598979166667,75.05720218750001,49.0,78.0
208,74.13668979166668,75.42335395833334,37.0,76.0
209,74.37133979166667,75.54507864583334,44.0,93.0
210,74.84063979166667,75.54850062500002,56.0,95.0
211,75.07528979166668,75.60031916666668,65.0,92.0
212,75.30993979166668,75.67218072916668,61.0,95.0
213,75.54458979166668,76.44359260416668,37.0,83.0
214,75.77923979166668,76.4475034375,44.0,89.0
215,76.01388979166667,76.59367083333335,49.0,93.0
216,76.24853979166667,76.68655312500002,56.0,96.0
217,76.71783979166668,76.90555979166668,61.0,95.0
218,76.48318979166667,76.98426531250001,65.0,96.0
219,77.30446479166667,77.56013552083334,58.0,88.0
220,77.06981479166667,77.76105458333335,53.0,69.0
221,76.83516479166667,77.78549729166667,46.0,77.0
222,77.53911479166668,77.80798458333335,62.0,100.0
223,77.77376479166668,78.29683875,65.0,89.0
224,78.12573979166667,78.38825447916668,62.0,100.0
225,78.59503979166668,79.23152791666668,46.0,78.0
226,78.36038979166668,79.23250562500002,39.0,74.0
227,78.82968979166668,79.33663156250002,51.0,79.0
228,79.29898979166667,79.77171177083335,67.0,107.0
229,79.53363979166667,79.80202072916667,63.0,85.0
230,79.06433979166668,79.80788697916668,58.0,93.0
231,80.23758979166668,80.5480121875,56.0,92.0
232,79.76828979166667,81.04908770833335,44.0,81.0
233,80.00293979166668,81.18792229166668,51.0,71.0
234,80.94153979166668,81.23289687500001,56.0,96.0
235,80.47223979166668,81.26076156250001,60.0,95.0
236,80.70688979166668,81.28178229166667,63.0,86.0
237,81.64548979166668,81.88307291666668,56.0,74.0
238,81.17618979166667,82.13532166666668,44.0,82.0
239,81.41083979166667,82.22820395833334,51.0,75.0
240,82.11478979166668,82.55915822916668,63.0,90.0
241,81.88013979166668,82.5630690625,60.0,93.0
242,82.34943979166668,82.57284614583334,56.0,67.0
243,82.81873979166667,83.33741406250002,55.0,71.0
244,82.58408979166668,83.46451614583334,48.0,65.0
245,83.05338979166667,83.56228697916667,60.0,76.0
246,83.28803979166668,83.91132885416668,67.0,112.0
247,83.52268979166668,83.93626041666668,63.0,95.0
248,83.75733979166668,84.59914666666668,60.0,77.0
249,83.87466479166667,84.80642083333335,41.0,67.0
250,84.22663979166668,84.92716781250002,48.0,64.0
251,84.46128979166667,85.04009312500001,53.0,81.0
252,85.16523979166668,85.35295979166668,65.0,86.0
253,84.93058979166668,85.36273687500001,68.0,92.0
254,84.69593979166667,85.3994009375,60.0,85.0
255,85.86918979166668,86.18938927083335,58.0,82.0
256,86.10383979166667,86.39373031250001,62.0,83.0
257,85.39988979166668,86.65233416666668,46.0,68.0
258,85.63453979166668,86.85325322916668,53.0,56.0
259,86.33848979166667,87.17931895833334,65.0,82.0
260,86.57313979166668,87.23015979166668,62.0,90.0
261,87.04243979166668,87.62662052083334,53.0,77.0
262,86.80778979166668,87.69897093750001,46.0,70.0
263,87.27708979166668,87.80407458333335,58.0,73.0
264,87.74638979166667,88.09298739583335,62.0,122.0
265,87.51173979166668,88.13356229166668,65.0,90.0
266,87.98103979166667,88.31590489583334,58.0,97.0
267,88.68498979166668,89.27161479166668,51.0,90.0
268,88.21568979166668,89.53168520833334,39.0,72.0
269,88.45033979166668,89.63923312500002,46.0,102.0
270,89.38893979166667,89.79224447916668,65.0,68.0
271,88.91963979166668,89.87779395833334,58.0,92.0
272,89.15428979166668,89.90125895833334,67.0,127.0
273,89.62358979166667,90.55094614583335,39.0,88.0
274,89.85823979166668,90.589565625,46.0,97.0
275,90.09288979166668,90.60423125000001,51.0,97.0
276,90.32753979166668,90.85745770833334,58.0,97.0
277,90.56218979166668,90.99042604166668,67.0,127.0
278,90.79683979166668,91.07255354166668,63.0,100.0
279,91.50078979166668,91.78579177083334,56.0,90.0
280,91.03148979166667,92.27269052083335,44.0,88.0
281,92.20473979166668,92.45405541666668,56.0,93.0
282,91.26613979166667,92.47947583333334,51.0,82.0
283,91.73543979166668,92.49023062500001,60.0,92.0
284,91.97008979166668,92.50391854166668,63.0,99.0
285,92.90868979166667,93.14822833333335,56.0,90.0
286,92.43938979166668,93.38972229166669,44.0,85.0
287,92.67403979166667,93.39705510416668,51.0,69.0
288,93.37798979166668,93.76516229166668,63.0,96.0
289,93.14333979166668,93.77542822916668,60.0,95.0
290,93.61263979166668,93.99736802083335,56.0,85.0
291,93.84728979166668,94.65927656250001,37.0,82.0
292,94.08193979166668,94.71793906250001,44.0,74.0
293,94.31658979166669,94.85090739583335,49.0,86.0
294,94.55123979166667,94.99609708333335,56.0,88.0
295,94.78588979166668,95.20630437500002,65.0,97.0
296,95.02053979166668,95.28207677083334,61.0,96.0
297,95.60716479166668,95.87750114583335,56.0,85.0
298,95.37251479166667,95.97673854166668,51.0,77.0
299,95.13786479166669,95.98456020833335,44.0,70.0
300,95.84181479166668,96.53012145833334,60.0,89.0
301,96.19378979166667,96.62398145833335,63.0,96.0
302,96.42843979166668,96.71050864583334,56.0,88.0
303,96.54576479166668,97.83047354166668,37.0,86.0
304,96.89773979166668,98.09494364583335,44.0,85.0
305,97.60168979166669,98.1379628125,65.0,97.0
306,97.13238979166668,98.20640239583335,49.0,86.0
307,97.36703979166668,98.33497104166668,56.0,92.0
308,97.83633979166667,98.84631250000001,61.0,97.0
309,98.07098979166668,98.86928864583335,37.0,76.0
310,98.30563979166668,98.93675052083334,44.0,79.0
311,98.54028979166668,99.36449791666668,49.0,90.0
312,99.00958979166668,99.38063010416668,65.0,97.0
313,99.24423979166669,99.41142791666668,61.0,92.0
314,98.77493979166668,99.46275760416668,56.0,75.0
315,99.47888979166667,100.27865520833335,41.0,81.0
316,99.71353979166668,100.30554218750001,48.0,85.0
317,99.94818979166668,100.40233531250001,53.0,88.0
318,100.06551479166669,100.46295322916669,57.0,100.0
319,100.41748979166668,100.80319572916667,60.0,90.0
320,100.65213979166668,100.88727864583335,63.0,56.0
321,101.35608979166668,101.67580041666668,58.0,83.0
322,100.76946479166668,101.71246447916668,46.0,75.0
323,101.12143979166667,101.80290250000002,53.0,97.0
324,101.82538979166668,102.30642229166668,65.0,77.0
325,101.59073979166668,102.32744302083334,61.0,90.0
326,102.76398979166667,103.17022760416668,56.0,76.0
327,102.29468979166668,103.29781854166669,44.0,71.0
328,102.99863979166668,103.29977395833335,60.0,74.0
329,102.52933979166669,103.31003989583334,51.0,61.0
330,103.23328979166668,103.75196406250001,63.0,90.0
331,104.17188979166669,104.52533135416668,56.0,89.0
332,103.70258979166668,104.61430281250001,44.0,39.0
333,103.93723979166668,104.68616437500002,51.0,67.0
334,104.40653979166667,104.69349718750001,60.0,77.0
335,104.64118979166668,105.12417770833335,63.0,90.0
336,105.34513979166668,105.77777572916668,55.0,72.0
337,105.11048979166668,105.85990322916668,48.0,73.0
338,105.81443979166669,106.52670031250001,67.0,85.0
339,106.04908979166669,106.54087708333334,63.0,56.0
340,105.57978979166668,106.63327052083335,60.0,70.0
341,106.98768979166668,107.30544500000002,53.0,76.0
342,106.51838979166668,107.50783062500001,41.0,63.0
343,106.75303979166668,107.52445166666668,48.0,70.0
344,107.45698979166669,107.87935979166669,68.0,102.0
345,107.69163979166669,107.90380250000001,65.0,97.0
346,107.22233979166668,107.93948885416668,60.0,82.0
347,108.39558979166668,109.08389645833334,51.0,97.0
348,107.92628979166668,109.25059572916668,39.0,92.0
349,108.16093979166668,109.40409593750002,46.0,93.0
350,108.63023979166668,109.54195281250001,58.0,97.0
351,108.86488979166668,109.95601229166668,67.0,122.0
352,109.09953979166669,110.10755708333335,63.0,97.0
353,109.33418979166669,110.16670843750002,39.0,78.0
354,109.56883979166668,110.18479604166669,46.0,90.0
355,109.80348979166668,110.58810072916668,51.0,92.0
356,110.27278979166668,110.67169479166668,67.0,112.0
357,110.03813979166668,110.70591458333335,58.0,90.0
358,110.50743979166668,110.72155791666668,63.0,68.0
359,111.09406479166668,111.38346645833334,56.0,83.0
360,111.44603979166668,111.72664208333335,60.0,83.0
361,110.74208979166669,112.04830812500002,44.0,68.0
362,110.97673979166669,112.18029875000002,51.0,68.0
363,111.91533979166668,112.66573093750002,60.0,77.0
364,111.68068979166668,112.78941104166668,63.0,97.0
365,112.85393979166668,113.12232072916669,60.0,97.0
366,112.61928979166669,113.35354875000002,56.0,93.0
367,112.14998979166668,113.44056479166669,44.0,71.0
368,112.38463979166669,113.56815572916668,51.0,42.0
369,113.32323979166668,113.58673218750002,60.0,117.0
370,113.08858979166668,113.59602041666668,63.0,107.0
371,114.02718979166669,114.33663447916668,56.0,88.0
372,114.26183979166669,114.54928604166668,60.0,85.0
373,113.55788979166668,114.78833572916668,44.0,92.0
374,114.49648979166668,114.99560989583335,63.0,99.0
375,114.73113979166668,115.00294270833335,60.0,97.0
376,113.79253979166668,115.04107333333334,51.0,78.0
377,115.43508979166668,115.69858218750002,56.0,90.0
378,115.20043979166668,115.85892635416668,51.0,85.0
379,114.96578979166668,115.88288020833335,44.0,85.0
380,115.90438979166669,116.33751458333334,63.0,83.0
381,115.66973979166669,116.35022479166668,60.0,96.0
382,116.13903979166668,116.39226625000002,56.0,85.0
383,116.37368979166668,117.64422177083335,37.0,79.0
384,116.60833979166668,117.77963437500001,44.0,81.0
385,116.84298979166668,117.91015843750002,49.0,81.0
386,117.31228979166669,117.92140208333335,65.0,95.0
387,117.07763979166668,118.35110489583334,56.0,86.0
388,117.54693979166669,118.54420229166668,61.0,102.0
389,117.78158979166669,118.63072947916669,37.0,70.0
390,118.01623979166668,118.63659572916669,44.0,93.0
391,118.25088979166668,118.77983000000002,49.0,92.0
392,118.48553979166668,119.06483197916668,56.0,86.0
393,118.95483979166669,119.17629072916668,61.0,100.0
394,118.72018979166668,119.21051052083335,65.0,96.0
395,119.65878979166668,120.08409291666668,53.0,100.0
396,119.42413979166669,120.09142572916669,50.0,112.0
397,119.18948979166669,120.18528572916668,46.0,97.0
398,120.36273979166668,120.57734677083334,62.0,127.0
399,120.12808979166668,120.57930218750002,65.0,99.0
400,119.89343979166668,120.66485166666668,58.0,102.0
401,120.59738979166669,121.50079229166668,39.0,88.0
402,120.83203979166669,121.51790218750001,46.0,100.0
403,121.06668979166669,121.66895812500002,51.0,93.0
404,121.53598979166668,121.94662729166669,67.0,100.0
405,121.30133979166668,121.99404614583335,58.0,89.0
406,121.77063979166668,122.00724520833334,63.0,82.0
407,122.47458979166669,122.76008062500001,56.0,79.0
408,122.70923979166669,123.04263833333334,60.0,72.0
409,122.00528979166668,123.25186791666668,44.0,70.0
410,122.23993979166669,123.40830125000002,51.0,82.0
411,123.29586479166669,124.59866114583335,44.0,71.0
412,123.17853979166668,124.77562635416669,60.0,60.0
413,122.94388979166668,124.78882541666668,63.0,99.0
414,123.41318979166668,124.79566937500002,56.0,63.0
415,125.29038979166668,126.03002614583335,51.0,59.0
416,124.82108979166668,126.07353416666669,44.0,90.0
417,125.75968979166669,126.27591979166668,63.0,86.0
418,126.22898979166668,127.15830156250001,39.0,79.0
419,126.69828979166668,127.24531760416669,46.0,47.0
420,127.16758979166669,127.70972906250002,67.0,93.0
421,127.63688979166669,128.63708541666668,44.0,61.0
422,128.10618979166668,128.72263489583335,51.0,60.0
423,128.57548979166668,129.06189968750002,63.0,85.0
424,129.5140897916667,130.03520833333334,55.0,66.0
425,129.0447897916667,130.10706989583335,48.0,69.0
426,129.9833897916667,130.5392169791667,67.0,95.0
427,130.92198979166668,131.48123895833336,51.0,63.0
428,130.45268979166667,131.48368322916667,44.0,68.0
429,131.39128979166668,131.8747665625,60.0,64.0
430,131.39128979166668,131.89432072916668,63.0,69.0
431,131.86058979166668,133.15018708333335,37.0,72.0
432,132.2125647916667,133.19858364583334,44.0,60.0
433,132.7991897916667,133.32519687500002,65.0,86.0
434,133.2684897916667,134.5351109375,39.0,73.0
435,133.73778979166667,134.68030062500003,46.0,58.0
436,134.20708979166668,135.19897489583335,51.0,39.0
437,134.67638979166668,135.65507583333334,39.0,64.0
438,135.14568979166668,135.6897844791667,46.0,76.0
439,134.20708979166668,136.09846656250002,63.0,69.0
440,135.6149897916667,136.13610833333334,58.0,90.0
441,136.0842897916667,137.43694927083334,44.0,76.0
442,136.5535897916667,137.48925666666668,51.0,75.0
443,137.0228897916667,138.2210713541667,63.0,93.0
444,137.49218979166668,138.52025010416668,44.0,74.0
445,137.96148979166668,138.63904166666669,51.0,75.0
446,138.6654397916667,138.9440866666667,60.0,69.0
447,138.43078979166668,138.95777458333336,63.0,97.0
448,139.3693897916667,139.84211177083336,55.0,65.0
449,138.9000897916667,139.8914860416667,48.0,70.0
450,139.8386897916667,140.3637191666667,67.0,83.0
451,139.8386897916667,140.62818927083336,63.0,72.0
452,140.3079897916667,141.27640989583335,41.0,72.0
453,140.77728979166668,141.35316000000003,48.0,58.0
454,141.24658979166668,141.7569535416667,65.0,85.0
455,141.4812397916667,141.81610489583335,60.0,53.0
456,141.71588979166668,142.98984375,46.0,68.0
457,142.1851897916667,143.0460619791667,53.0,61.0
458,142.6544897916667,143.11547927083336,61.0,66.0
459,142.6544897916667,143.19760677083335,65.0,79.0
460,143.1237897916667,144.11714145833335,50.0,77.0
461,144.06238979166667,144.62506093750002,65.0,86.0
462,143.5930897916667,144.66319156250003,58.0,76.0
463,145.00098979166668,145.38327375000003,51.0,71.0
464,145.2356397916667,145.52895229166668,55.0,62.0
465,144.53168979166668,145.86235083333335,39.0,66.0
466,145.70493979166667,145.97967583333335,55.0,77.0
467,144.7663397916667,145.98554208333334,46.0,52.0
468,145.4702897916667,146.00460739583335,58.0,86.0
469,145.9395897916667,146.83077093750003,39.0,82.0
470,146.17423979166668,146.85472479166668,46.0,67.0
471,146.4088897916667,146.92218666666668,51.0,92.0
472,146.64353979166668,147.35775572916668,58.0,97.0
473,147.1128397916667,147.35971114583336,63.0,78.0
474,146.8781897916667,147.3650885416667,67.0,102.0
475,147.34748979166667,148.62437687500002,44.0,86.0
476,147.81678979166668,148.7553897916667,51.0,67.0
477,148.28608979166668,148.7553897916667,60.0,73.0
478,148.28608979166668,148.7553897916667,63.0,77.0
479,148.7553897916667,149.71745479166668,39.0,72.0
480,149.2246897916667,149.71989906250002,46.0,53.0
481,149.6939897916667,150.1750222916667,58.0,86.0
482,150.1632897916667,150.85746270833334,49.0,72.0
483,150.63258979166667,151.2984091666667,56.0,79.0
484,151.10188979166668,151.58487770833335,65.0,82.0
485,152.0404897916667,152.60756062500002,55.0,56.0
486,151.57118979166668,152.64764666666667,48.0,71.0
487,152.5097897916667,152.98984458333337,63.0,76.0
488,152.5097897916667,153.00451020833336,67.0,68.0
489,152.9790897916667,154.2637985416667,44.0,66.0
490,153.4483897916667,154.30681770833334,51.0,58.0
491,153.91768979166667,154.36108052083335,63.0,92.0
492,154.38698979166668,155.32119010416667,44.0,85.0
493,154.85628979166668,155.33341145833336,51.0,73.0
494,155.3255897916667,155.80857770833336,60.0,86.0
495,156.7334897916667,157.38659895833337,51.0,89.0
496,157.20278979166667,158.04117468750002,63.0,75.0
497,156.2641897916667,158.14774489583334,46.0,61.0
498,155.7948897916667,158.1545888541667,39.0,76.0
499,157.67208979166668,158.31346645833335,51.0,83.0
500,158.14138979166668,158.64344302083336,67.0,95.0
501,157.20278979166667,158.64979812500002,58.0,72.0
502,159.0799897916667,160.2356410416667,51.0,66.0
503,158.6106897916667,160.92639197916668,44.0,79.0
504,160.48788979166667,161.03833958333337,51.0,52.0
505,160.95718979166668,161.41329072916668,56.0,75.0
506,160.0185897916667,161.45044364583336,60.0,75.0
507,159.5492897916667,161.45826531250003,63.0,89.0
508,161.8957897916667,162.36557864583335,55.0,59.0
509,161.42648979166668,162.4061535416667,48.0,72.0
510,162.3650897916667,163.18294281250002,63.0,65.0
511,162.8343897916667,163.75930187500003,41.0,68.0
512,163.3036897916667,163.83556312500002,48.0,68.0
513,163.7729897916667,164.30290770833335,68.0,89.0
514,164.71158979166668,165.60863718750002,53.0,55.0
515,164.24228979166668,165.61792541666668,46.0,72.0
516,165.1808897916667,165.67561020833335,65.0,85.0
517,165.6501897916667,166.5330604166667,39.0,86.0
518,166.1194897916667,166.60101114583335,46.0,76.0
519,166.5887897916667,167.06493375000002,63.0,78.0
520,167.99668979166668,168.3863065625,56.0,85.0
521,167.0580897916667,168.39168395833335,44.0,71.0
522,167.52738979166668,168.53540708333335,51.0,59.0
523,168.9352897916667,169.20171531250003,56.0,99.0
524,169.16993979166668,169.53266958333336,58.0,102.0
525,168.4659897916667,169.68079239583335,44.0,83.0
526,168.7006397916667,169.8147384375,51.0,97.0
527,169.4045897916667,169.81913812500002,60.0,112.0
528,169.63923979166668,169.9173978125,63.0,102.0
529,170.3431897916667,170.67218864583336,56.0,100.0
530,170.5778397916667,170.89315072916668,60.0,86.0
531,169.8738897916667,171.09064781250004,44.0,93.0
532,170.1085397916667,171.29841083333335,51.0,93.0
533,170.81248979166668,171.84983833333337,63.0,99.0
534,171.7510897916667,172.0092047916667,56.0,86.0
535,171.0471397916667,172.06151218750003,60.0,81.0
536,171.5164397916667,172.14021770833335,51.0,88.0
537,171.28178979166668,172.17834833333336,44.0,78.0
538,172.2203897916667,172.6896897916667,63.0,95.0
539,171.9857397916667,172.7028888541667,68.0,92.0
540,172.45503979166668,172.7087551041667,60.0,86.0
541,172.92433979166668,173.56962729166668,44.0,76.0
542,172.6896897916667,173.57451583333335,37.0,83.0
543,173.1589897916667,173.74023739583336,49.0,88.0
544,173.3936397916667,173.93626791666668,56.0,86.0
545,173.6282897916667,174.0873238541667,65.0,96.0
546,173.8629397916667,174.12936531250003,61.0,81.0
547,173.98026479166668,174.8479809375,44.0,68.0
548,174.56688979166668,174.85482489583336,56.0,83.0
549,174.3322397916667,174.8880669791667,51.0,53.0
550,174.8015397916667,175.1021851041667,60.0,95.0
551,175.0361897916667,175.46540375000004,63.0,90.0
552,175.2708397916667,175.49620156250003,60.0,83.0
553,175.9747897916667,176.42600218750002,49.0,78.0
554,175.5054897916667,176.79215395833336,37.0,76.0
555,175.74013979166668,176.91387864583336,44.0,93.0
556,176.20943979166668,176.91730062500002,56.0,95.0
557,176.4440897916667,176.9691191666667,65.0,92.0
558,176.6787397916667,177.0409807291667,61.0,95.0
559,176.9133897916667,177.8123926041667,37.0,83.0
560,177.1480397916667,177.8163034375,44.0,89.0
561,177.38268979166668,177.96247083333336,49.0,93.0
562,177.6173397916667,178.055353125,56.0,96.0
563,178.0866397916667,178.27435979166668,61.0,95.0
564,177.85198979166668,178.35306531250004,65.0,96.0
565,178.6732647916667,178.92893552083336,58.0,88.0
566,178.43861479166668,179.12985458333335,53.0,69.0
567,178.2039647916667,179.1542972916667,46.0,77.0
568,178.90791479166668,179.17678458333336,62.0,100.0
569,179.1425647916667,179.66563875000003,65.0,89.0
570,179.49453979166668,179.7570544791667,62.0,100.0
571,179.9638397916667,180.60032791666669,46.0,78.0
572,179.7291897916667,180.60130562500004,39.0,74.0
573,180.1984897916667,180.70543156250002,51.0,79.0
574,180.66778979166668,181.14051177083337,67.0,107.0
575,180.9024397916667,181.17082072916668,63.0,85.0
576,180.4331397916667,181.1766869791667,58.0,93.0
577,181.6063897916667,181.91681218750003,56.0,92.0
578,181.13708979166668,182.41788770833335,44.0,81.0
579,181.3717397916667,182.5567222916667,51.0,71.0
580,182.31033979166668,182.60169687500002,56.0,96.0
581,181.8410397916667,182.62956156250002,60.0,95.0
582,182.0756897916667,182.6505822916667,63.0,86.0
583,183.0142897916667,183.25187291666668,56.0,74.0
584,182.5449897916667,183.5041216666667,44.0,82.0
585,182.77963979166668,183.59700395833335,51.0,75.0
586,183.4835897916667,183.9279582291667,63.0,90.0
587,183.2489397916667,183.93186906250003,60.0,93.0
588,183.7182397916667,183.94164614583335,56.0,67.0
589,184.1875397916667,184.70621406250004,55.0,71.0
590,183.95288979166668,184.83331614583335,48.0,65.0
591,184.42218979166668,184.93108697916668,60.0,76.0
592,184.6568397916667,185.2801288541667,67.0,112.0
593,184.8914897916667,185.3050604166667,63.0,95.0
594,185.1261397916667,185.9679466666667,60.0,77.0
595,185.2434647916667,186.17522083333336,41.0,67.0
596,185.5954397916667,186.29596781250004,48.0,64.0
597,185.8300897916667,186.40889312500002,53.0,81.0
598,186.5340397916667,186.7217597916667,65.0,86.0
599,186.2993897916667,186.73153687500002,68.0,92.0
600,186.06473979166668,186.7682009375,60.0,85.0
601,187.2379897916667,187.55818927083337,58.0,82.0
602,187.4726397916667,187.76253031250002,62.0,83.0
603,186.7686897916667,188.02113416666668,46.0,68.0
604,187.0033397916667,188.2220532291667,53.0,56.0
605,187.70728979166668,188.54811895833336,65.0,82.0
606,187.9419397916667,188.5989597916667,62.0,90.0
607,188.4112397916667,188.99542052083336,53.0,77.0
608,188.1765897916667,189.06777093750003,46.0,70.0
609,188.6458897916667,189.17287458333337,58.0,73.0
610,189.1151897916667,189.46178739583337,62.0,122.0
611,188.8805397916667,189.50236229166669,65.0,90.0
612,189.34983979166668,189.68470489583336,58.0,97.0
613,190.0537897916667,190.6404147916667,51.0,90.0
614,189.5844897916667,190.90048520833335,39.0,72.0
615,189.8191397916667,191.00803312500003,46.0,102.0
616,190.7577397916667,191.1610444791667,65.0,68.0
617,190.2884397916667,191.24659395833336,58.0,92.0
618,190.5230897916667,191.27005895833335,67.0,127.0
619,190.99238979166668,191.91974614583336,39.0,88.0
620,191.2270397916667,191.95836562500003,46.0,97.0
621,191.46168979166669,191.97303125000002,51.0,97.0
622,191.6963397916667,192.22625770833335,58.0,97.0
623,191.9309897916667,192.3592260416667,67.0,127.0
624,192.1656397916667,192.4413535416667,63.0,100.0
625,192.8695897916667,193.15459177083335,56.0,90.0
626,192.4002897916667,193.64149052083337,44.0,88.0
627,193.5735397916667,193.8228554166667,56.0,93.0
628,192.63493979166668,193.84827583333336,51.0,82.0
629,193.10423979166669,193.85903062500003,60.0,92.0
630,193.3388897916667,193.8727185416667,63.0,99.0
631,194.27748979166668,194.51702833333337,56.0,90.0
632,193.8081897916667,194.75852229166668,44.0,85.0
633,194.0428397916667,194.7658551041667,51.0,69.0
634,194.74678979166669,195.1339622916667,63.0,96.0
635,194.5121397916667,195.14422822916669,60.0,95.0
636,194.9814397916667,195.36616802083336,56.0,85.0
637,195.2160897916667,196.02807656250002,37.0,82.0
638,195.4507397916667,196.08673906250002,44.0,74.0
639,195.6853897916667,196.21970739583335,49.0,86.0
640,195.92003979166668,196.36489708333335,56.0,88.0
641,196.1546897916667,196.57510437500002,65.0,97.0
642,196.38933979166669,196.65087677083335,61.0,96.0
643,196.97596479166668,197.24630114583337,56.0,85.0
644,196.7413147916667,197.34553854166668,51.0,77.0
645,196.50666479166668,197.35336020833336,44.0,70.0
646,197.2106147916667,197.89892145833335,60.0,89.0
647,197.56258979166668,197.99278145833335,63.0,96.0
648,197.7972397916667,198.07930864583335,56.0,88.0
649,197.9145647916667,199.19927354166668,37.0,86.0
650,198.2665397916667,199.46374364583335,44.0,85.0
651,198.9704897916667,199.50676281250003,65.0,97.0
652,198.5011897916667,199.57520239583337,49.0,86.0
653,198.7358397916667,199.7037710416667,56.0,92.0
654,199.20513979166668,200.21511250000003,61.0,97.0
655,199.4397897916667,200.23808864583336,37.0,76.0
656,199.67443979166669,200.30555052083335,44.0,79.0
657,199.9090897916667,200.7332979166667,49.0,90.0
658,200.3783897916667,200.7494301041667,65.0,97.0
659,200.6130397916667,200.7802279166667,61.0,92.0
660,200.1437397916667,200.8315576041667,56.0,75.0
661,200.84768979166668,201.64745520833335,41.0,81.0
662,201.0823397916667,201.67434218750003,48.0,85.0
663,201.31698979166669,201.77113531250004,53.0,88.0
664,201.4343147916667,201.8317532291667,57.0,100.0
665,201.7862897916667,202.1719957291667,60.0,90.0
666,202.0209397916667,202.25607864583336,63.0,56.0
667,202.7248897916667,203.0446004166667,58.0,83.0
668,202.1382647916667,203.0812644791667,46.0,75.0
669,202.49023979166668,203.17170250000004,53.0,97.0
670,203.1941897916667,203.6752222916667,65.0,77.0
671,202.95953979166669,203.69624302083335,61.0,90.0
672,204.13278979166668,204.5390276041667,56.0,76.0
673,203.6634897916667,204.6666185416667,44.0,71.0
674,204.3674397916667,204.66857395833335,60.0,74.0
675,203.8981397916667,204.67883989583336,51.0,61.0
676,204.60208979166669,205.12076406250003,63.0,90.0
677,205.5406897916667,205.8941313541667,56.0,89.0
678,205.0713897916667,205.98310281250002,44.0,39.0
679,205.3060397916667,206.05496437500003,51.0,67.0
680,205.77533979166668,206.06229718750004,60.0,77.0
681,206.0099897916667,206.49297770833337,63.0,90.0
682,206.7139397916667,207.1465757291667,55.0,72.0
683,206.4792897916667,207.22870322916668,48.0,73.0
684,207.1832397916667,207.89550031250002,67.0,85.0
685,207.41788979166668,207.90967708333335,63.0,56.0
686,206.9485897916667,208.00207052083337,60.0,70.0
687,208.3564897916667,208.67424500000004,53.0,76.0
688,207.88718979166669,208.87663062500002,41.0,63.0
689,208.1218397916667,208.89325166666669,48.0,70.0
690,208.8257897916667,209.2481597916667,68.0,102.0
691,209.06043979166668,209.27260250000003,65.0,97.0
692,208.5911397916667,209.3082888541667,60.0,82.0
693,209.7643897916667,210.45269645833335,51.0,97.0
694,209.2950897916667,210.61939572916668,39.0,92.0
695,209.52973979166669,210.77289593750004,46.0,93.0
696,209.9990397916667,210.91075281250002,58.0,97.0
697,210.2336897916667,211.3248122916667,67.0,122.0
698,210.4683397916667,211.47635708333337,63.0,97.0
699,210.7029897916667,211.53550843750003,39.0,78.0
700,210.9376397916667,211.5535960416667,46.0,90.0
701,211.17228979166669,211.9569007291667,51.0,92.0
702,211.6415897916667,212.0404947916667,67.0,112.0
703,211.4069397916667,212.07471458333336,58.0,90.0
704,211.8762397916667,212.0903579166667,63.0,68.0
705,212.5801897916667,212.8529704166667,56.0,89.0
706,212.81483979166669,213.09739750000003,60.0,93.0
707,212.1108897916667,213.4425285416667,44.0,83.0
708,212.3455397916667,213.55594270833336,51.0,92.0
709,213.0494897916667,213.92600531250002,63.0,96.0
710,213.2841397916667,214.01302135416668,60.0,86.0
711,213.9880897916667,214.53022906250004,56.0,99.0
712,213.5187897916667,214.8093647916667,44.0,93.0
713,214.6920397916667,214.9002916666667,56.0,99.0
714,213.7534397916667,214.91251302083336,51.0,93.0
715,214.2227397916667,214.96433156250004,60.0,99.0
716,214.45738979166669,214.9677535416667,63.0,102.0
717,215.3959897916667,215.65166052083336,56.0,96.0
718,214.9266897916667,216.19135552083335,44.0,88.0
719,215.1613397916667,216.32187958333336,51.0,88.0
720,216.09993979166669,216.56386239583335,56.0,78.0
721,215.8652897916667,216.73447250000004,63.0,99.0
722,215.6306397916667,216.91485968750004,60.0,97.0
723,216.8038897916667,217.16515302083337,56.0,78.0
724,216.5692397916667,217.3069207291667,51.0,90.0
725,216.3345897916667,217.35482843750003,44.0,85.0
726,217.2731897916667,217.65645145833335,60.0,92.0
727,217.0385397916667,217.66867281250003,63.0,96.0
728,217.5078397916667,217.74248979166669,56.0,86.0
729,217.9771397916667,218.34280270833335,55.0,90.0
730,217.74248979166669,218.46306083333337,48.0,78.0
731,218.4464397916667,218.72117583333338,63.0,88.0
732,218.2117897916667,218.9934676041667,67.0,112.0
733,218.9157397916667,219.08781645833335,63.0,96.0
734,218.6810897916667,219.20074177083336,60.0,83.0
735,219.6196897916667,219.8983366666667,53.0,90.0
736,219.38503979166669,219.99464093750004,48.0,89.0
737,219.0330647916667,220.5201591666667,41.0,69.0
738,220.0889897916667,220.54117989583335,65.0,86.0
739,219.8543397916667,220.54997927083338,68.0,90.0
740,220.5304251041667,221.6024822916667,63.0,88.0
741,220.52651427083336,221.61030395833336,58.0,76.0
742,220.52846968750003,221.61323708333336,67.0,75.0
743,220.54704614583338,221.6171479166667,39.0,56.0
744,220.5450907291667,221.62643614583337,51.0,79.0
745,220.53824677083335,221.62839156250004,46.0,83.0
746,221.7183407291667,221.9617901041667,63.0,112.0
747,221.7344729166667,221.96863406250003,46.0,102.0
748,221.73642833333335,221.9705894791667,39.0,82.0
749,221.72029614583337,221.97254489583335,67.0,112.0
750,221.71638531250002,221.9749891666667,58.0,89.0
751,221.7300732291667,221.9779222916667,51.0,85.0
752,222.3577619791667,222.82901739583338,63.0,117.0
753,222.36265052083337,222.83097281250002,51.0,107.0
754,222.35580656250002,222.8329282291667,46.0,97.0
755,222.35385114583337,222.83488364583337,58.0,96.0
756,222.3577619791667,222.8417276041667,67.0,112.0
757,222.35971739583337,222.86274833333337,39.0,72.0
758,229.60991354166669,230.6409069791667,51.0,44.0
759,229.60209187500004,230.8374263541667,46.0,49.0
760,229.5908482291667,230.92053156250003,58.0,53.0
761,229.6040472916667,230.9298197916667,39.0,52.0
762,229.5952479166667,231.04812250000003,67.0,53.0
763,229.59280364583336,231.0852754166667,63.0,66.0
764,231.3697885416667,232.24043781250003,63.0,95.0
765,231.36783312500003,232.25803656250002,72.0,88.0
766,231.36343343750002,232.26243625000004,68.0,95.0
767,231.36147802083337,232.6632966666667,32.0,89.0
768,232.3347866666667,232.6691629166667,63.0,82.0
769,232.33869750000002,232.68040656250002,72.0,92.0
770,232.33674208333338,232.68431739583338,68.0,86.0
771,232.76840031250003,233.47381687500004,63.0,89.0
772,232.77231114583336,233.48554937500003,68.0,93.0
773,232.76937802083336,233.49972614583336,72.0,93.0
774,232.7762219791667,233.56034406250004,32.0,63.0
775,233.60825177083336,233.69526781250002,72.0,73.0
776,232.77426656250003,233.72850989583335,44.0,88.0
777,233.6121626041667,233.7544191666667,68.0,88.0
778,233.61851770833337,233.91476333333335,63.0,107.0
779,234.09123968750004,234.90078218750003,68.0,96.0
780,234.0931951041667,234.90664843750002,61.0,107.0
781,234.08928427083336,234.91398125000003,65.0,97.0
782,234.0814626041667,234.9159366666667,37.0,89.0
783,235.03863906250004,235.17649593750002,37.0,117.0
784,235.04108333333338,235.22733677083338,68.0,102.0
785,235.04303875000002,235.36568250000002,65.0,112.0
786,235.03668364583336,235.42287843750003,61.0,112.0
787,235.56366843750004,238.9621826041667,32.0,79.0
788,235.5509582291667,238.97635937500004,63.0,127.0
789,235.56904583333338,238.9783147916667,39.0,97.0
790,235.55291364583337,238.98027020833337,68.0,112.0
791,235.5670904166667,238.9841810416667,44.0,107.0
792,235.55486906250005,238.99493583333336,72.0,112.0
