,start,end,pitch,velocity
0,33.878537550000004,35.033893537500006,62.0,110.0
1,35.37853605000001,35.537464462500004,62.0,101.0
2,35.592821550000004,35.917821225000004,63.0,109.0
3,36.02139255,36.36424935,62.0,117.0
4,36.44996355000001,37.1267485875,60.0,112.0
5,37.30710555,37.624962375,58.0,109.0
6,37.73567655000001,39.205317937500006,65.0,106.0
7,39.44996055000001,39.76781737500001,65.0,112.0
8,39.878531550000005,40.166031262500006,67.0,120.0
9,40.30710255,40.57853085000001,69.0,113.0
10,40.73567355000001,41.89460096250001,70.0,106.0
11,42.235672050000005,42.3588862125,69.0,107.0
12,42.44995755000001,42.80710005,70.0,99.0
13,42.878528550000006,43.16602826250001,69.0,120.0
14,43.307099550000004,44.0231702625,67.0,117.0
15,44.16424155000001,44.435669850000004,65.0,106.0
16,44.592812550000005,45.96781117500001,65.0,106.0
17,46.307096550000004,46.582096275000005,65.0,109.0
18,46.73566755000001,47.03566725,65.0,112.0
19,47.16423855000001,47.42673828750001,70.0,106.0
20,47.592809550000005,47.89459496250001,70.0,115.0
21,48.02138055,48.646379925000005,63.0,115.0
22,48.87852255000001,49.14995085,63.0,106.0
23,49.307093550000005,49.612450387500004,63.0,112.0
24,49.73566455000001,50.02852140000001,62.0,117.0
25,50.16423555000001,50.43744956250001,60.0,112.0
26,50.592806550000006,50.90530623750001,63.0,112.0
27,51.021377550000004,51.92494807500001,62.0,117.0
28,52.307090550000005,52.574947425000005,60.0,115.0
29,52.73566155000001,53.030304112500005,58.0,115.0
30,53.16423255000001,53.44458941250001,58.0,112.0
31,53.592803550000006,53.866017562500005,60.0,112.0
32,54.021374550000004,54.28030286250001,62.0,110.0
33,54.44994555000001,54.80530233750001,62.0,117.0
34,54.87851655000001,55.00530213750001,63.0,106.0
35,55.09280205000001,55.94458691250001,63.0,109.0
36,56.16422955000001,56.53208632500001,63.0,106.0
37,56.59280055000001,56.92315736250001,62.0,120.0
38,57.021371550000005,57.43565685000001,60.0,112.0
39,57.44994255000001,57.76244223750001,58.0,115.0
40,57.87851355000001,60.28743971250001,60.0,109.0
41,61.30708155000001,62.46243753750001,62.0,110.0
42,62.80708005000001,62.96600846250001,62.0,101.0
43,63.021365550000006,63.34636522500001,63.0,109.0
44,63.44993655000001,63.79279335000001,62.0,117.0
45,63.87850755000001,64.5552925875,60.0,112.0
46,64.73564955,65.05350637500001,58.0,109.0
47,65.16422055000001,66.63386193750001,65.0,106.0
48,66.87850455,67.19636137500001,65.0,112.0
49,67.30707555000001,67.59457526250002,67.0,120.0
50,67.73564655000001,68.00707485000001,69.0,113.0
51,68.16421755,69.32314496250001,70.0,106.0
52,69.66421605000001,69.78743021250001,69.0,107.0
53,69.87850155000001,70.23564405,70.0,99.0
54,70.30707255000002,70.59457226250001,69.0,120.0
55,70.73564355,71.4517142625,67.0,117.0
56,71.59278555000002,71.86421385000001,65.0,106.0
57,72.02135655000001,73.39635517500001,65.0,106.0
58,73.73564055000001,74.01064027500001,65.0,109.0
59,74.16421155,74.46421125,65.0,112.0
60,74.59278255000001,74.8552822875,70.0,106.0
61,75.02135355000001,75.32313896250001,70.0,115.0
62,75.44992455,76.07492392500001,63.0,115.0
63,76.30706655000002,76.57849485000001,63.0,106.0
64,76.73563755,77.0409943875,63.0,112.0
65,77.16420855000001,77.4570654,62.0,117.0
66,77.59277955000002,77.86599356250001,60.0,112.0
67,78.02135055000001,78.33385023750002,63.0,112.0
68,78.44992155000001,78.80527833750001,62.0,117.0
69,78.87849255,79.20170651250001,65.0,115.0
70,79.30706355000001,79.9838485875,72.0,118.0
71,80.16420555,81.14277600000001,70.0,115.0
72,81.44991855,81.5552755875,65.0,109.0
73,81.66420405000001,81.7802753625,65.0,106.0
74,81.87848955000001,82.20884636250001,65.0,112.0
75,82.30706055000002,82.4159890125,63.0,109.0
76,82.52134605,83.46063082500001,63.0,106.0
77,83.37848805000002,83.51063077500001,62.0,117.0
78,83.59277355,83.90527323750001,63.0,115.0
79,84.02134455000001,84.317772825,62.0,117.0
80,84.44991555000001,84.77134380000001,63.0,112.0
81,84.87848655,85.16598626250001,70.0,112.0
82,85.30705755000001,88.7266969875,72.0,112.0
83,90.87848055,91.17490882500002,65.0,115.0
84,91.30705155000001,91.61062267500002,65.0,115.0
85,91.73562255000002,92.00526513750002,75.0,118.0
86,92.16419355000001,93.18204967500002,75.0,115.0
87,93.44990655000001,93.71240628750002,74.0,117.0
88,93.87847755000001,94.87133370000001,74.0,117.0
89,95.16419055000001,95.32311896250002,65.0,112.0
90,95.37847605000002,95.47133310000001,74.0,117.0
91,95.59276155,96.56776057500001,74.0,117.0
92,96.87847455,97.07847435000001,72.0,109.0
93,97.30704555000001,98.17133040000002,72.0,112.0
94,98.59275855000001,98.72311556250001,70.0,106.0
95,98.80704405000002,98.93025821250001,69.0,120.0
96,99.02132955000002,99.33204352500002,70.0,112.0
97,99.44990055000001,99.73918597500001,69.0,120.0
98,99.87847155000001,100.21418550000001,70.0,112.0
99,100.30704255000002,100.55168516250001,69.0,117.0
100,100.73561355000001,101.05882751250002,70.0,115.0
101,101.16418455000002,101.39097003750001,69.0,120.0
102,101.59275555,101.79989820000002,70.0,109.0
103,102.02132655000001,102.71239728750001,77.0,104.0
104,102.87846855000001,104.18739581250001,77.0,104.0
105,104.59275255000001,104.90525223750001,70.0,106.0
106,105.02132355000002,105.29989470000001,70.0,112.0
107,105.44989455000001,105.74453711250001,81.0,117.0
108,105.87846555000002,106.98560730000001,81.0,120.0
109,107.16417855000002,107.44274970000001,79.0,117.0
110,107.59274955000001,108.56774857500001,79.0,120.0
111,108.87846255000001,109.01239098750001,70.0,118.0
112,109.09274805000001,109.18917652500001,79.0,120.0
113,109.30703355000001,110.34631822500002,79.0,120.0
114,110.59274655000002,110.87667483750002,77.0,99.0
115,111.02131755000002,111.92488807500001,77.0,106.0
116,112.30703055000002,112.59988740000001,74.0,107.0
117,112.73560155000001,113.01595841250001,75.0,115.0
118,113.16417255000002,113.44452941250002,74.0,120.0
119,113.59274355000001,113.86952898750002,75.0,112.0
120,114.02131455000001,114.10702875000001,74.0,120.0
121,114.23560005000002,114.68381388750001,75.0,112.0
122,114.87845655000001,115.13917057500001,74.0,120.0
123,115.30702755000002,115.59809868750001,72.0,112.0
124,115.73559855000002,116.03202682500002,70.0,112.0
125,116.16416955000001,117.89988210000001,72.0,109.0
126,118.30702455000001,118.60345282500002,65.0,115.0
127,118.73559555000001,119.03916667500002,65.0,115.0
128,119.16416655000002,119.43380913750002,75.0,118.0
129,119.59273755000001,120.61059367500002,75.0,115.0
130,120.87845055000001,121.14095028750002,74.0,117.0
131,121.30702155000002,122.29987770000001,74.0,117.0
132,122.59273455000002,122.75166296250002,65.0,112.0
133,122.80702005000002,122.89987710000001,74.0,117.0
134,123.02130555000002,123.99630457500001,74.0,117.0
135,124.30701855000001,124.50701835000001,72.0,109.0
136,124.73558955000001,125.59987440000002,72.0,112.0
137,126.02130255000002,126.15165956250001,70.0,106.0
138,126.23558805000002,126.35880221250001,69.0,120.0
139,126.44987355000002,126.76058752500002,70.0,112.0
140,126.87844455000001,127.16772997500001,69.0,120.0
141,127.30701555000002,127.64272950000002,70.0,112.0
142,127.73558655000002,127.98022916250002,69.0,117.0
143,128.16415755000003,128.4873715125,70.0,115.0
144,128.59272855,128.81951403750003,69.0,120.0
145,129.02129955,129.22844220000002,70.0,109.0
146,129.44987055,130.14094128750003,77.0,104.0
147,130.30701255000002,131.61593981250002,77.0,104.0
148,132.02129655000002,132.33379623750002,70.0,106.0
149,132.44986755000002,132.72843870000003,70.0,112.0
150,132.87843855000003,133.17308111250003,81.0,117.0
151,133.30700955,134.41415130000001,81.0,120.0
152,134.59272255000002,134.87129370000002,79.0,117.0
153,135.02129355000002,135.996292575,79.0,120.0
154,136.30700655,136.44093498750001,70.0,118.0
155,136.52129205000003,136.617720525,79.0,120.0
156,136.73557755000002,137.77486222500002,79.0,120.0
157,138.02129055000003,138.3052188375,77.0,99.0
158,138.44986155,139.35343207500003,77.0,106.0
159,139.73557455000002,140.02843140000002,74.0,107.0
160,140.16414555000003,140.44450241250001,75.0,115.0
161,140.59271655,140.87307341250002,74.0,120.0
162,141.02128755,141.2980729875,75.0,112.0
163,141.44985855000002,141.53557275000003,74.0,120.0
164,141.66414405,142.11235788750002,75.0,112.0
165,142.30700055000003,142.56771457500002,74.0,120.0
166,142.73557155000003,143.02664268750001,72.0,112.0
167,143.16414255,143.46057082500002,70.0,112.0
168,143.603427825,143.96235603750003,70.0,114.0
169,144.06771307500003,145.1569977,72.0,109.0
170,145.30699755,145.624854375,65.0,112.0
171,145.73556855,146.07663963750002,74.0,113.0
172,146.16413955000002,146.43913927500003,72.0,106.0
173,146.59271055000002,147.69985230000003,70.0,112.0
174,148.09270905000002,148.46949438750002,69.0,112.0
175,148.73556555000002,150.660563625,70.0,101.0
176,180.15174405625004,180.8459733791667,65.0,115.0
177,180.85558874375005,181.4286644729167,65.0,115.0
178,181.6017410354167,182.24020124375005,75.0,118.0
179,182.41080529166672,183.4286614166667,75.0,115.0
180,183.6965182916667,183.9590180291667,74.0,117.0
181,184.1250892916667,185.1179454416667,74.0,117.0
182,185.4108022916667,185.56973070416672,65.0,112.0
183,185.62508779166672,185.7179448416667,74.0,117.0
184,185.8393732916667,186.81437231666672,74.0,117.0
185,187.12508629166672,187.32508609166672,72.0,109.0
186,187.55365729166672,188.4179421416667,72.0,112.0
187,188.8393702916667,188.96972730416672,70.0,106.0
188,189.0536557916667,189.1768699541667,69.0,120.0
189,189.26794129166672,189.57865526666671,70.0,112.0
190,189.69651229166672,189.98579771666672,69.0,120.0
191,190.12508329166673,190.4607972416667,70.0,112.0
192,190.5536542916667,190.7982969041667,69.0,117.0
193,190.9822252916667,191.3054392541667,70.0,115.0
194,191.4107962916667,191.6375817791667,69.0,120.0
195,191.83936729166672,192.04650994166673,70.0,109.0
196,192.26793829166672,192.9590090291667,77.0,104.0
197,193.1250802916667,194.43400755416673,77.0,104.0
198,194.8393642916667,195.1518639791667,70.0,106.0
199,195.2679352916667,195.5465064416667,70.0,112.0
200,195.6965062916667,195.9911488541667,81.0,117.0
201,196.1250772916667,197.23221904166672,81.0,120.0
202,197.4107902916667,197.6893614416667,79.0,117.0
203,197.8393612916667,198.81436031666672,79.0,120.0
204,199.12507429166672,199.25900272916672,70.0,118.0
205,199.3393597916667,199.43578826666672,79.0,120.0
206,199.55364529166673,200.5929299666667,79.0,120.0
207,200.8393582916667,201.12328657916672,77.0,99.0
208,201.26792929166672,202.1714998166667,77.0,106.0
209,202.5536422916667,202.84649914166673,74.0,107.0
210,202.9822132916667,203.26257015416672,75.0,115.0
211,203.41078429166672,203.6911411541667,74.0,120.0
212,203.83935529166672,204.11614072916672,75.0,112.0
213,204.26792629166673,204.3536404916667,74.0,120.0
214,204.4822117916667,204.9304256291667,75.0,112.0
215,205.1250682916667,205.3857823166667,74.0,120.0
216,205.5536392916667,205.84471042916672,72.0,112.0
217,205.98221029166672,206.2786385666667,70.0,112.0
218,206.41078129166672,208.1464938416667,72.0,109.0
219,208.55363629166672,208.8500645666667,65.0,115.0
220,208.98220729166673,209.28577841666672,65.0,115.0
221,209.4107782916667,209.68042087916672,75.0,118.0
222,209.8393492916667,210.85720541666672,75.0,115.0
223,211.12506229166672,211.3875620291667,74.0,117.0
224,211.5536332916667,212.54648944166672,74.0,117.0
225,212.83934629166671,212.9982747041667,65.0,112.0
226,213.0536317916667,213.14648884166672,74.0,117.0
227,213.26791729166672,214.2429163166667,74.0,117.0
228,214.5536302916667,214.7536300916667,72.0,109.0
229,214.9822012916667,215.84648614166673,72.0,112.0
230,216.26791429166673,216.3982713041667,70.0,106.0
231,216.48219979166672,216.60541395416672,69.0,120.0
232,216.6964852916667,217.0071992666667,70.0,112.0
233,217.1250562916667,217.4143417166667,69.0,120.0
234,217.55362729166671,217.88934124166673,70.0,112.0
235,217.98219829166672,218.22684090416672,69.0,117.0
236,218.41076929166672,218.73398325416673,70.0,115.0
237,218.8393402916667,219.06612577916673,69.0,120.0
238,219.2679112916667,219.47505394166672,70.0,109.0
239,219.6964822916667,220.38755302916672,77.0,104.0
240,220.55362429166672,221.8625515541667,77.0,104.0
241,222.2679082916667,222.58040797916672,70.0,106.0
242,222.69647929166672,222.97505044166672,70.0,112.0
243,223.12505029166672,223.41969285416673,81.0,117.0
244,223.55362129166673,224.6607630416667,81.0,120.0
245,224.83933429166672,225.11790544166672,79.0,117.0
246,225.26790529166672,226.2429043166667,79.0,120.0
247,226.5536182916667,226.6875467291667,70.0,118.0
248,226.76790379166673,226.8643322666667,79.0,120.0
249,226.9821892916667,228.02147396666672,79.0,120.0
250,228.2679022916667,228.55183057916673,77.0,99.0
251,228.69647329166673,229.60004381666673,77.0,106.0
252,229.98218629166672,230.2750431416667,74.0,107.0
253,230.41075729166673,230.6911141541667,75.0,115.0
254,230.83932829166673,231.11968515416672,74.0,120.0
255,231.2678992916667,231.5446847291667,75.0,112.0
256,231.6964702916667,231.78218449166673,74.0,120.0
257,231.9107557916667,232.35896962916672,75.0,112.0
258,232.55361229166672,232.81432631666672,74.0,120.0
259,232.98218329166673,233.2732544291667,72.0,112.0
260,233.4107542916667,233.70718256666672,70.0,112.0
261,233.8500395666667,234.20896777916673,70.0,114.0
262,234.31432481666673,235.40360944166673,72.0,109.0
263,235.5536092916667,235.8714661166667,65.0,112.0
264,235.9821802916667,236.32325137916672,74.0,113.0
265,236.4107512916667,236.68575101666673,72.0,106.0
266,236.83932229166672,237.94646404166673,70.0,112.0
267,238.33932079166672,238.71610612916672,69.0,112.0
268,238.98217729166672,240.9071753666667,70.0,101.0
269,242.74467352916673,243.02681610416673,70.0,118.0
270,243.14288741666672,243.43217284166673,70.0,118.0
271,243.5393155916667,243.82145816666673,81.0,120.0
272,244.03217224166673,245.38574231666672,81.0,123.0
273,245.50181362916672,245.82145616666674,79.0,120.0
274,245.95717031666672,247.1589548291667,79.0,120.0
275,247.3696689041667,247.53395445416672,70.0,104.0
276,247.5714544166667,247.68395430416672,79.0,117.0
277,247.8035970416667,248.76431036666673,79.0,120.0
278,248.9143102166667,249.20538135416672,77.0,106.0
279,249.42145256666672,250.93216534166672,77.0,104.0
