,start,end,pitch,velocity
0,0.38928532500000007,1.8214267500000003,70.0,101.0
1,0.32321396250000006,1.8749981250000003,65.0,91.0
2,0.25178546250000006,1.8857124000000003,60.0,94.0
3,2.1874978125,3.5732107125000003,69.0,89.0
4,2.1124978875000004,3.5857107000000004,65.0,91.0
5,2.060712225,3.5874964125000006,60.0,73.0
6,3.6267820875000005,3.8749961250000005,74.0,89.0
7,3.7624962375000006,3.8946389625000006,79.0,82.0
8,3.8357104500000005,5.249994750000001,60.0,104.0
9,3.8678532750000003,5.251780462500001,76.0,89.0
10,10.010704275000002,11.066060362500002,55.0,96.0
11,10.694632162500001,11.101774612500002,63.0,117.0
12,10.3446325125,11.105346037500002,58.0,99.0
13,11.066060362500002,11.251774462500002,67.0,104.0
14,11.858916712500001,12.267844875000002,67.0,39.0
15,11.457131400000002,12.285702000000002,70.0,91.0
16,12.192844950000001,12.919629937500002,75.0,66.0
17,12.496416075,13.333915237500001,67.0,4.0
18,13.258915312500001,13.817843325000002,75.0,65.0
19,12.894629962500002,13.833914737500002,79.0,109.0
20,9.676776037500002,13.837486162500001,39.0,91.0
21,14.499985500000001,14.994627862500002,60.0,80.0
22,14.132128725000001,15.314270400000002,55.0,82.0
23,14.864270850000002,15.512484487500002,62.0,106.0
24,13.769629087500002,17.407125450000002,48.0,104.0
25,15.528555900000002,17.457125400000002,55.0,89.0
26,15.701770012500003,18.137481862500003,63.0,65.0
27,15.592841550000003,18.158910412500003,60.0,87.0
28,20.094622762500002,20.821407750000002,58.0,78.0
29,20.17855125,21.053550375000004,62.0,74.0
30,20.626765087500004,21.174978825000004,53.0,78.0
31,21.021407550000003,21.658906912500004,58.0,94.0
32,21.437478562500004,21.994620862500003,53.0,45.0
33,21.874978125000002,22.564263150000002,62.0,104.0
34,21.882120975000003,22.566048862500004,58.0,101.0
35,22.737477262500004,22.914262800000003,58.0,99.0
36,22.730334412500003,23.228548200000002,62.0,88.0
37,20.183908387500004,23.4303337125,46.0,101.0
38,23.146405425000005,23.473190812500004,58.0,91.0
39,23.587476412500003,24.308904262500004,57.0,91.0
40,23.59283355,24.308904262500004,62.0,96.0
41,24.460689825000003,24.999975000000003,62.0,86.0
42,24.482118375000002,25.078546350000003,57.0,65.0
43,24.019618837500005,25.291046137500004,53.0,62.0
44,25.305331837500002,25.914259800000004,57.0,77.0
45,25.287474712500003,25.978545450000002,62.0,99.0
46,26.176759537500004,26.378545050000003,57.0,107.0
47,26.167830975000005,26.594616262500004,62.0,101.0
48,23.585690700000004,26.749973250000004,46.0,101.0
49,26.939258775000003,27.585686700000004,58.0,82.0
50,27.044615812500002,27.758900812500002,62.0,61.0
51,27.467829675000004,27.914257800000005,53.0,51.0
52,27.903543525000003,28.383900187500004,58.0,101.0
53,28.324971675000004,28.782114075000003,53.0,48.0
54,28.723185562500003,29.317827825000006,62.0,81.0
55,28.733899837500005,29.326756387500005,58.0,89.0
56,29.162470837500003,29.760684525000006,53.0,31.0
57,29.617827525000003,29.833898737500004,58.0,106.0
58,29.612470387500004,30.232112625000003,62.0,117.0
59,27.023187262500002,30.233898337500005,46.0,104.0
60,29.985684300000003,30.246398325000005,58.0,104.0
61,30.424969575000002,31.060683225000005,56.0,101.0
62,30.419612437500003,31.107111750000005,62.0,77.0
63,30.896397675000003,31.435682850000003,53.0,56.0
64,31.323182962500002,31.723182562500003,56.0,109.0
65,31.314254400000003,31.764253950000004,62.0,117.0
66,30.426755287500004,31.887468112500006,44.0,96.0
67,31.758896812500005,32.0428251,53.0,59.0
68,32.2803248625,33.748180537500005,55.0,53.0
69,32.2981819875,33.766037662500004,63.0,91.0
70,32.060682225,33.7696090875,48.0,80.0
71,32.12853930000001,33.773180512500005,58.0,80.0
72,32.194610662500004,33.780323362500006,60.0,91.0
73,33.8017519125,34.824965175,58.0,76.0
74,33.853537575000004,35.25889331250001,62.0,79.0
75,35.1374648625,36.31960653750001,58.0,67.0
76,35.5803215625,36.3767493375,62.0,101.0
77,35.60175011250001,36.571392,65.0,96.0
78,34.739250975000004,37.053534375000005,53.0,40.0
79,33.8338947375,37.1571057,46.0,99.0
80,37.278534150000006,37.889247825000005,57.0,86.0
81,37.7374622625,38.301747412500006,53.0,43.0
82,37.276748437500004,38.32853310000001,62.0,83.0
83,38.124961875000004,38.767818375000004,57.0,79.0
84,38.55889001250001,39.816031612500005,62.0,91.0
85,37.289248425000004,39.96067432500001,46.0,87.0
86,39.05174666250001,40.021388550000005,65.0,64.0
87,40.54817373750001,41.18924452500001,55.0,58.0
88,40.67853075000001,41.42853,58.0,42.0
89,40.7053164375,41.6410297875,62.0,96.0
90,41.139244575000006,42.966028462500006,50.0,32.0
91,40.67317361250001,43.126742587500004,43.0,101.0
92,42.005315137500006,43.139242575000004,58.0,96.0
93,42.43031471250001,43.196385375000006,62.0,59.0
94,41.580315562500004,43.214242500000005,55.0,120.0
95,45.428526000000005,46.107096750000004,57.0,99.0
96,44.98924072500001,46.146382425000006,53.0,85.0
97,44.5660268625,46.8856674,45.0,68.0
98,44.14638442500001,46.907095950000006,38.0,101.0
99,45.84281130000001,47.08923862500001,62.0,99.0
100,47.374952625000006,47.642809500000006,58.0,80.0
101,47.46423825000001,47.753523675000004,63.0,106.0
102,47.560666725000004,48.01780912500001,67.0,83.0
103,47.978523450000004,48.49816578750001,58.0,76.0
104,48.4142373,49.176736537500005,63.0,99.0
105,47.537452462500006,49.91602151250001,51.0,91.0
106,48.83745116250001,50.03387853750001,58.0,73.0
107,49.262450737500004,50.13209272500001,67.0,113.0
108,49.27852215000001,50.274949725000006,70.0,101.0
109,50.90709195000001,51.303520125000006,58.0,82.0
110,50.996377575000004,51.86244813750001,62.0,65.0
111,51.416020012500006,51.94280520000001,53.0,74.0
112,51.83744816250001,52.41423330000001,60.0,106.0
113,52.69637587500001,53.67673203750001,58.0,87.0
114,50.983877587500004,53.723160562500006,46.0,96.0
115,52.28030486250001,53.76958908750001,53.0,61.0
116,52.682090175000006,53.79994620000001,65.0,99.0
117,54.36065992500001,54.99637357500001,58.0,85.0
118,54.408874162500005,55.374944625000005,63.0,104.0
119,54.84815943750001,55.74637282500001,55.0,55.0
120,54.46958838750001,57.03565725000001,67.0,70.0
121,54.41958843750001,57.071371500000005,48.0,78.0
122,55.73565855000001,57.326728387500005,63.0,99.0
123,55.307087550000006,57.421371150000006,58.0,101.0
124,58.282084575000006,58.735655550000004,51.0,96.0
125,58.71422700000001,58.84101258750001,57.0,117.0
126,59.12672658750001,59.40529773750001,60.0,94.0
127,59.54636902500001,60.71065357500001,48.0,82.0
128,57.86779927500001,60.74636782500001,41.0,101.0
129,59.54636902500001,61.10886746250001,65.0,94.0
130,59.553511875000005,61.119581737500006,60.0,89.0
131,61.30708155000001,61.88743811250001,58.0,80.0
132,61.735652550000005,62.17672353750001,53.0,59.0
133,61.30708155000001,62.45708040000001,62.0,91.0
134,62.16422355000001,63.05529408750001,58.0,104.0
135,62.59279455000001,63.09100833750001,53.0,46.0
136,63.021365550000006,63.68029346250001,62.0,86.0
137,63.021365550000006,63.71243628750001,65.0,94.0
138,63.87850755000001,64.05350737500001,58.0,101.0
139,63.87850755000001,64.4410069875,62.0,117.0
140,64.30707855000001,64.44993555,58.0,74.0
141,61.30708155000001,64.62314966250001,46.0,99.0
142,63.44993655000001,64.64993535,53.0,31.0
143,64.73564955,65.22493477500001,57.0,93.0
144,65.16422055000001,65.68029146250001,53.0,71.0
145,64.73564955,65.96957688750001,62.0,91.0
146,66.02136255,66.53386203750001,53.0,52.0
147,66.44993355000001,67.16064712500001,62.0,93.0
148,65.59279155000002,67.439218275,57.0,110.0
149,66.87850455,67.68207517500001,53.0,45.0
150,64.73564955,67.689218025,46.0,104.0
151,67.30707555000001,67.69636087500001,62.0,110.0
152,67.30707555000001,67.78743221250001,65.0,101.0
153,68.16421755,69.06600236250002,58.0,96.0
154,68.16421755,69.60707325000001,62.0,93.0
155,68.59278855000001,69.91778722500001,50.0,61.0
156,69.44993055,70.0410013875,58.0,73.0
157,69.87850155000001,70.53207232500002,62.0,86.0
158,69.02135955000001,70.66242933750001,67.0,99.0
159,70.30707255000002,70.8410005875,50.0,13.0
160,68.16421755,70.89278625000001,43.0,107.0
161,70.73564355,70.960643325,62.0,110.0
162,70.73564355,71.03028611250001,58.0,109.0
163,71.59278555000002,72.5874274125,57.0,83.0
164,72.02135655000001,73.29992670000001,45.0,58.0
165,72.44992755000001,73.36064092500001,53.0,109.0
166,72.87849855,73.80706905000001,57.0,110.0
167,73.73564055000001,74.05171166250001,45.0,2.0
168,73.30706955000001,74.053497375,62.0,117.0
169,71.59278555000002,74.19992580000002,38.0,99.0
170,74.16421155,74.38742561250001,53.0,101.0
171,74.16421155,74.42849700000001,57.0,93.0
172,75.02135355000001,75.29635327500002,58.0,96.0
173,75.44992455,75.94992405,58.0,87.0
174,75.02135355000001,75.94992405,63.0,101.0
175,75.87849555000001,76.3159951125,65.0,101.0
176,76.30706655000002,76.571352,63.0,82.0
177,76.73563755,77.67492232500001,58.0,101.0
178,76.73563755,77.67849375000002,63.0,104.0
179,76.73563755,77.9874220125,67.0,107.0
180,75.02135355000001,78.09456476250001,51.0,101.0
181,78.44992155000001,78.96599246250001,62.0,93.0
182,78.44992155000001,79.36420635,58.0,99.0
183,78.87849255,79.41956343750002,53.0,87.0
184,79.30706355000001,79.9195629375,60.0,109.0
185,80.16420555,80.83741916250001,58.0,99.0
186,80.16420555,80.93741906250001,65.0,104.0
187,81.02134755000002,81.44813283750001,62.0,113.0
188,81.02134755000002,81.4659899625,58.0,104.0
189,78.44992155000001,81.4856328,46.0,104.0
190,79.73563455000001,81.72313256250001,53.0,82.0
191,81.87848955000001,82.39813188750001,60.0,89.0
192,81.87848955000001,82.71956013750001,63.0,101.0
193,82.30706055000002,83.1713454,55.0,77.0
194,82.73563155000001,84.14455871250001,58.0,115.0
195,83.16420255000001,84.19277295,63.0,106.0
196,84.02134455000001,84.49098693750001,55.0,21.0
197,81.87848955000001,84.60705825000001,48.0,96.0
198,84.44991555000001,84.64098678750001,58.0,109.0
199,84.44991555000001,85.27312901250001,63.0,109.0
200,84.87848655,85.37491462500002,58.0,96.0
201,85.73562855000002,86.16062812500002,51.0,101.0
202,86.16419955,86.26419945,57.0,123.0
203,85.30705755000001,86.84098458750002,41.0,101.0
204,86.59277055000001,86.91241308750001,60.0,112.0
205,87.02134155000002,87.68919802500001,60.0,101.0
206,87.02134155000002,87.69991230000001,65.0,109.0
207,87.44991255000001,88.32491167500001,48.0,71.0
208,87.02134155000002,88.47848295000001,41.0,106.0
209,87.87848355000001,88.61776852500002,65.0,104.0
210,88.30705455000002,88.62133995,60.0,80.0
211,87.87848355000001,88.64455421250001,69.0,101.0
212,88.73562555000001,89.67848175000002,60.0,94.0
213,88.73562555000001,89.717767425,65.0,99.0
214,90.43562385000001,91.17669453750001,75.0,97.0
215,88.73562555000001,91.43562285000002,41.0,101.0
216,90.23562405000001,91.7695510875,65.0,76.0
217,90.31062397500001,91.79276535000001,69.0,93.0
218,90.44990955000002,91.84097958750002,77.0,101.0
219,92.59276455000001,93.00883556250001,53.0,76.0
220,92.16419355000001,93.06419265000001,62.0,88.0
221,93.02133555000002,93.95169176250002,58.0,112.0
222,93.44990655000001,93.96776317500002,53.0,51.0
223,93.87847755000001,94.56061972500001,62.0,117.0
224,93.87847755000001,94.81597661250001,65.0,101.0
225,94.30704855000002,95.01061927500001,53.0,56.0
226,94.73561955000001,95.06061922500001,58.0,109.0
227,92.16419355000001,95.1124048875,46.0,101.0
228,95.59276155,96.45883211250002,57.0,117.0
229,96.02133255000001,96.55704630000001,48.0,66.0
230,96.87847455,97.27490272500002,57.0,29.0
231,96.44990355000002,97.93383063750001,60.0,106.0
232,97.30704555000001,98.11597331250002,65.0,104.0
233,97.73561655000002,98.274901725,48.0,40.0
234,98.16418755000001,98.38561590000002,65.0,82.0
235,95.59276155,98.40347302500001,41.0,94.0
236,98.16418755000001,98.40883016250001,57.0,117.0
237,98.16418755000001,98.48561580000002,60.0,106.0
238,99.02132955000002,99.61061467500001,58.0,106.0
239,99.02132955000002,99.896328675,55.0,86.0
240,99.02132955000002,100.00168571250002,43.0,99.0
241,99.44990055000001,100.05704280000002,50.0,70.0
242,99.87847155000001,100.0713285,58.0,109.0
243,99.87847155000001,100.19097123750001,62.0,104.0
244,100.73561355000001,101.38739861250001,60.0,96.0
245,100.73561355000001,101.39454146250002,65.0,99.0
246,101.16418455000002,101.71239828750001,48.0,47.0
247,100.73561355000001,101.87132670000001,41.0,101.0
248,101.59275555,101.98918372500002,65.0,106.0
249,101.59275555,102.01061227500001,69.0,117.0
250,102.87846855000001,103.39275375000001,57.0,81.0
251,102.44989755000002,103.40703945000001,65.0,104.0
252,103.30703955000001,103.91061037500002,62.0,110.0
253,104.16418155000001,104.87310941250001,62.0,113.0
254,104.16418155000001,104.90346652500001,69.0,107.0
255,103.73561055000002,104.94989505000001,57.0,61.0
256,102.44989755000002,105.02310926250001,50.0,110.0
257,105.02132355000002,105.30525183750001,65.0,106.0
258,105.02132355000002,105.32132325000002,62.0,110.0
259,105.87846555000002,106.21060807500001,58.0,104.0
260,105.87846555000002,106.52667918750001,63.0,106.0
261,107.16417855000002,107.41774972500001,58.0,66.0
262,106.73560755000001,107.57667813750001,67.0,120.0
263,107.59274955000001,108.21239178750001,58.0,106.0
264,107.59274955000001,108.24989175000002,63.0,109.0
265,105.87846555000002,108.60346282500001,51.0,106.0
266,108.44989155000002,108.92310536250001,58.0,109.0
267,108.44989155000002,108.99096243750002,65.0,104.0
268,109.30703355000001,109.96953288750001,62.0,110.0
269,109.30703355000001,110.00703285000002,65.0,101.0
270,109.73560455000002,110.31238968750002,57.0,77.0
271,109.30703355000001,110.42310386250001,50.0,113.0
272,110.16417555000001,110.83024631250001,62.0,113.0
273,110.16417555000001,111.33203152500002,65.0,104.0
274,111.44988855000001,111.78917392500001,62.0,93.0
275,111.87845955000002,112.26774487500002,62.0,113.0
276,111.87845955000002,112.68203017500001,65.0,106.0
277,112.73560155000001,113.42488657500002,60.0,94.0
278,112.73560155000001,113.46060082500001,63.0,104.0
279,113.59274355000001,113.63381493750002,63.0,28.0
280,113.16417255000002,113.73917197500002,55.0,49.0
281,114.02131455000001,114.61059967500002,55.0,47.0
282,113.59274355000001,114.80524233750002,67.0,120.0
283,114.44988555000002,115.08738491250001,63.0,104.0
284,114.87845655000001,115.31595611250002,55.0,52.0
285,114.44988555000002,115.35881321250001,58.0,101.0
286,112.73560155000001,115.40167031250002,48.0,94.0
287,115.30702755000002,115.73024141250002,67.0,117.0
288,115.30702755000002,115.73202712500002,63.0,109.0
289,115.73559855000002,115.86595556250002,58.0,101.0
290,116.16416955000001,116.93916877500001,57.0,96.0
291,117.02131155000002,117.11774002500002,57.0,46.0
292,116.16416955000001,117.11952573750001,53.0,99.0
293,116.59274055000002,117.20881136250001,48.0,96.0
294,116.16416955000001,117.70523943750001,41.0,101.0
295,117.44988255000001,117.74988225000001,57.0,113.0
296,117.02131155000002,117.79988220000001,60.0,109.0
297,117.87845355000002,118.11952473750002,53.0,104.0
298,117.87845355000002,118.30166741250001,65.0,109.0
299,117.87845355000002,118.38559590000001,60.0,109.0
300,117.87845355000002,118.42131015000001,57.0,117.0
301,118.30702455000001,118.65345277500002,53.0,96.0
302,118.30702455000001,118.81595261250001,48.0,71.0
303,118.73559555000001,119.10345232500002,53.0,115.0
304,118.73559555000001,119.20702365000001,57.0,120.0
305,117.87845355000002,119.28380928750002,41.0,101.0
306,119.16416655000002,119.50702335000001,48.0,106.0
307,118.73559555000001,119.54630902500001,63.0,112.0
308,120.02130855000001,120.43737956250001,53.0,76.0
309,119.59273755000001,120.49273665000001,62.0,88.0
310,120.44987955000002,121.38023576250002,58.0,112.0
311,120.87845055000001,121.39630717500002,53.0,51.0
312,121.30702155000002,121.98916372500001,62.0,117.0
313,121.30702155000002,122.24452061250001,65.0,101.0
314,121.73559255000002,122.43916327500001,53.0,56.0
315,122.16416355000001,122.48916322500001,58.0,109.0
316,119.59273755000001,122.54094888750002,46.0,101.0
317,123.02130555000002,123.88737611250002,57.0,117.0
318,123.44987655000001,123.98559030000001,48.0,66.0
319,124.30701855000001,124.70344672500002,57.0,29.0
320,123.87844755000002,125.36237463750001,60.0,106.0
321,124.73558955000001,125.54451731250002,65.0,104.0
322,125.16416055000002,125.70344572500002,48.0,40.0
323,125.59273155000001,125.81415990000002,65.0,82.0
324,123.02130555000002,125.83201702500001,41.0,94.0
325,125.59273155000001,125.83737416250001,57.0,117.0
326,125.59273155000001,125.91415980000002,60.0,106.0
327,126.44987355000002,127.03915867500001,58.0,106.0
328,126.44987355000002,127.32487267500002,55.0,86.0
329,126.44987355000002,127.43022971250002,43.0,99.0
330,126.87844455000001,127.48558680000002,50.0,70.0
331,127.30701555000002,127.49987250000002,58.0,109.0
332,127.30701555000002,127.61951523750001,62.0,104.0
333,128.16415755000003,128.8159426125,60.0,96.0
334,128.16415755000003,128.82308546250002,65.0,99.0
335,128.59272855,129.14094228750002,48.0,47.0
336,128.16415755000003,129.2998707,41.0,101.0
337,129.02129955,129.41772772500002,65.0,106.0
338,129.02129955,129.43915627500002,69.0,117.0
339,130.30701255000002,130.82129775,57.0,81.0
340,129.87844155000002,130.83558345000003,65.0,104.0
341,130.73558355000003,131.33915437500002,62.0,110.0
342,131.59272555,132.30165341250003,62.0,113.0
343,131.59272555,132.33201052500002,69.0,107.0
344,131.16415455,132.37843905000003,57.0,61.0
345,129.87844155000002,132.45165326250003,50.0,110.0
346,132.44986755000002,132.73379583750003,65.0,106.0
347,132.44986755000002,132.74986725000002,62.0,110.0
348,133.30700955,133.63915207500003,58.0,104.0
349,133.30700955,133.95522318750002,63.0,106.0
350,134.59272255000002,134.846293725,58.0,66.0
351,134.16415155,135.00522213750003,67.0,120.0
352,135.02129355000002,135.6409357875,58.0,106.0
353,135.02129355000002,135.67843575,63.0,109.0
354,133.30700955,136.03200682500002,51.0,106.0
355,135.87843555,136.3516493625,58.0,109.0
356,135.87843555,136.41950643750002,65.0,104.0
357,136.73557755000002,137.39807688750003,62.0,110.0
358,136.73557755000002,137.43557685000002,65.0,101.0
359,137.16414855000002,137.74093368750002,57.0,77.0
360,136.73557755000002,137.85164786250002,50.0,113.0
361,137.59271955000003,138.25879031250003,62.0,113.0
362,137.59271955000003,138.760575525,65.0,104.0
363,138.87843255,139.21771792500002,62.0,93.0
364,139.30700355000002,139.69628887500002,62.0,113.0
365,139.30700355000002,140.110574175,65.0,106.0
366,140.16414555000003,140.853430575,60.0,94.0
367,140.16414555000003,140.88914482500002,63.0,104.0
368,141.02128755,141.06235893750002,63.0,28.0
369,140.59271655,141.16771597500002,55.0,49.0
370,141.44985855000002,142.03914367500002,55.0,47.0
371,141.02128755,142.23378633750002,67.0,120.0
372,141.87842955000002,142.51592891250002,63.0,104.0
373,142.30700055000003,142.74450011250002,55.0,52.0
374,141.87842955000002,142.7873572125,58.0,101.0
375,140.16414555000003,142.83021431250003,48.0,94.0
376,142.73557155000003,143.1587854125,67.0,117.0
377,142.73557155000003,143.16057112500002,63.0,109.0
378,143.16414255,143.29449956250002,58.0,101.0
379,143.59271355,144.36771277500003,57.0,96.0
380,144.44985555000002,144.546284025,57.0,46.0
381,143.59271355,144.54806973750001,53.0,99.0
382,144.02128455000002,144.63735536250002,48.0,96.0
383,143.59271355,145.13378343750003,41.0,101.0
384,144.87842655000003,145.17842625000003,57.0,113.0
385,144.44985555000002,145.22842620000003,60.0,109.0
386,145.30699755,145.54806873750002,53.0,104.0
387,145.30699755,145.7302114125,65.0,109.0
388,145.30699755,145.81413990000001,60.0,109.0
389,145.30699755,145.84985415000003,57.0,117.0
390,145.73556855,146.08199677500002,53.0,96.0
391,145.73556855,146.24449661250003,48.0,71.0
392,146.16413955000002,146.53199632500002,53.0,115.0
393,146.16413955000002,146.63556765,57.0,120.0
394,145.30699755,146.7123532875,41.0,101.0
395,146.59271055000002,146.93556735,48.0,106.0
396,146.16413955000002,146.97485302500002,63.0,112.0
397,150.2552068875,151.74449111250001,70.0,69.0
398,150.33199252500003,151.74984825,73.0,58.0
399,150.38199247500003,151.9873480125,80.0,80.0
400,150.3337782375,152.16770497500002,58.0,96.0
401,152.081990775,153.6980605875,75.0,59.0
402,152.00163371250002,153.78377478750002,70.0,74.0
403,153.72127485000001,153.78377478750002,70.0,74.0
404,152.18377638750002,153.79091763750003,79.0,79.0
405,153.77841765000002,157.10520003750003,74.0,68.0
406,153.87127470000001,157.11412860000002,77.0,80.0
407,153.80163191250003,157.17841425000003,58.0,96.0
408,157.30698555,158.23019891250001,60.0,82.0
409,157.73555655,158.61055567500003,51.0,91.0
410,158.16412755000002,158.6284128,56.0,109.0
411,157.30698555,158.67484132500002,44.0,101.0
412,158.59269855000002,159.08555520000002,60.0,99.0
413,159.02126955000003,159.61412610000002,58.0,82.0
414,159.02126955000003,159.69091173750002,62.0,113.0
415,159.44984055000003,160.26412545000002,53.0,91.0
416,159.02126955000003,160.42126815000003,46.0,106.0
417,159.87841155,160.43198242500003,58.0,115.0
418,160.73555355000002,160.97126760000003,58.0,104.0
419,160.73555355000002,161.34269580000003,63.0,106.0
420,161.16412455000003,161.66948118750003,58.0,85.0
421,160.73555355000002,162.05162366250002,51.0,104.0
422,161.59269555000003,162.08376648750001,63.0,112.0
423,162.02126655,162.16948068750003,58.0,106.0
424,161.59269555000003,162.29269485000003,67.0,120.0
425,162.44983755,163.06769407500002,65.0,106.0
426,162.44983755,163.10340832500003,61.0,96.0
427,163.30697955000002,163.5373364625,61.0,109.0
428,162.87840855000002,163.57483642500003,56.0,96.0
429,162.44983755,163.65340777500003,49.0,104.0
430,163.30697955000002,163.97483602500003,65.0,115.0
431,163.30697955000002,164.05876451250003,68.0,112.0
432,163.73555055000003,164.0980501875,61.0,96.0
433,164.16412155000003,164.9873350125,60.0,104.0
434,165.02126355000001,165.46769167500003,56.0,115.0
435,164.16412155000003,165.5980486875,44.0,104.0
436,164.59269255,165.64626292500003,51.0,91.0
437,165.44983455000002,165.86411985,63.0,109.0
438,165.87840555000002,166.62840480000003,58.0,104.0
439,165.87840555000002,166.95161876250003,62.0,113.0
440,165.87840555000002,167.03911867500003,46.0,106.0
441,167.59268955000002,168.55340287500002,58.0,104.0
442,168.02126055000002,168.55876001250002,46.0,58.0
443,167.59268955000002,168.674831325,39.0,89.0
444,167.59268955000002,168.86054542500003,67.0,96.0
445,168.44983155000003,168.89804538750002,63.0,109.0
446,168.87840255000003,169.07483092500001,58.0,109.0
447,169.30697355,169.55340187500002,56.0,101.0
448,169.30697355,169.93911577500003,61.0,99.0
449,169.73554455000001,170.2016155125,56.0,64.0
450,169.30697355,170.41411530000002,49.0,101.0
451,170.16411555000002,170.43375813750004,61.0,101.0
452,170.16411555000002,170.517686625,65.0,104.0
453,171.02125755000003,171.9230423625,56.0,96.0
454,171.02125755000003,171.95161376250002,53.0,91.0
455,171.44982855000003,171.99804228750003,48.0,30.0
456,171.87839955,172.6051845375,60.0,109.0
457,172.30697055000002,172.84089858750002,48.0,45.0
458,172.73554155000002,173.10161261250002,63.0,94.0
459,172.73554155000002,173.18554110000002,56.0,96.0
460,172.73554155000002,173.2337553375,60.0,91.0
461,171.02125755000003,173.8658975625,41.0,96.0
462,173.59268355000003,173.88018326250003,53.0,96.0
463,173.59268355000003,173.91946893750003,56.0,109.0
464,173.59268355000003,173.9444689125,60.0,101.0
465,173.59268355000003,174.08732591250003,65.0,104.0
466,174.44982555,175.16768197500002,60.0,94.0
467,174.44982555,175.181967675,63.0,104.0
468,174.87839655000002,175.44268170000004,55.0,79.0
469,175.73553855000003,176.23375233750002,55.0,61.0
470,175.30696755000002,176.4873235125,63.0,99.0
471,176.16410955000003,177.053394375,58.0,109.0
472,176.59268055,177.06589436250002,55.0,59.0
473,174.44982555,177.19446566250002,48.0,99.0
474,177.02125155000002,177.35696550000003,63.0,99.0
475,177.86767927500003,178.93526927083334,57.0,113.0
476,178.34385161666668,179.0658662291667,48.0,99.0
477,177.88196497500002,179.4632541166667,53.0,101.0
478,178.8643737791667,179.5695973541667,60.0,106.0
479,179.70392565416668,180.6613583791667,53.0,82.0
480,179.73564205833335,180.68635832708338,57.0,117.0
481,179.76735846250003,180.7017429104167,60.0,104.0
482,179.8270599291667,180.7825119729167,65.0,101.0
483,179.3289258166667,180.9152040041667,48.0,106.0
484,177.88017926250004,181.06712676458338,41.0,106.0
485,182.83937629166672,183.25544730416672,53.0,76.0
486,182.41080529166672,183.31080439166672,62.0,88.0
487,183.2679472916667,184.19830350416672,58.0,112.0
488,183.6965182916667,184.2143749166667,53.0,51.0
489,184.1250892916667,184.8072314666667,62.0,117.0
490,184.1250892916667,185.0625883541667,65.0,101.0
491,184.55366029166672,185.2572310166667,53.0,56.0
492,184.98223129166672,185.3072309666667,58.0,109.0
493,182.41080529166672,185.35901662916672,46.0,101.0
494,185.8393732916667,186.7054438541667,57.0,117.0
495,186.2679442916667,186.80365804166672,48.0,66.0
496,187.12508629166672,187.5215144666667,57.0,29.0
497,186.6965152916667,188.18044237916672,60.0,106.0
498,187.55365729166672,188.36258505416671,65.0,104.0
499,187.9822282916667,188.5215134666667,48.0,40.0
500,188.4107992916667,188.6322276416667,65.0,82.0
501,185.8393732916667,188.6500847666667,41.0,94.0
502,188.4107992916667,188.6554419041667,57.0,117.0
503,188.4107992916667,188.7322275416667,60.0,106.0
504,189.26794129166672,189.85722641666672,58.0,106.0
505,189.26794129166672,190.1429404166667,55.0,86.0
506,189.26794129166672,190.2482974541667,43.0,99.0
507,189.69651229166672,190.3036545416667,50.0,70.0
508,190.12508329166673,190.31794024166672,58.0,109.0
509,190.12508329166673,190.4375829791667,62.0,104.0
510,190.9822252916667,191.63401035416672,60.0,96.0
511,190.9822252916667,191.6411532041667,65.0,99.0
512,191.4107962916667,191.9590100291667,48.0,47.0
513,190.9822252916667,192.11793844166672,41.0,101.0
514,191.83936729166672,192.2357954666667,65.0,106.0
515,191.83936729166672,192.25722401666673,69.0,117.0
516,193.1250802916667,193.63936549166672,57.0,81.0
517,192.6965092916667,193.6536511916667,65.0,104.0
518,193.5536512916667,194.1572221166667,62.0,110.0
519,194.41079329166672,195.1197211541667,62.0,113.0
520,194.41079329166672,195.15007826666672,69.0,107.0
521,193.98222229166672,195.1965067916667,57.0,61.0
522,192.6965092916667,195.2697210041667,50.0,110.0
523,195.2679352916667,195.5518635791667,65.0,106.0
524,195.2679352916667,195.5679349916667,62.0,110.0
525,196.1250772916667,196.4572198166667,58.0,104.0
526,196.1250772916667,196.7732909291667,63.0,106.0
527,197.4107902916667,197.66436146666672,58.0,66.0
528,196.98221929166672,197.8232898791667,67.0,120.0
529,197.8393612916667,198.45900352916672,58.0,106.0
530,197.8393612916667,198.49650349166672,63.0,109.0
531,196.1250772916667,198.8500745666667,51.0,106.0
532,198.69650329166672,199.16971710416672,58.0,109.0
533,198.69650329166672,199.2375741791667,65.0,104.0
534,199.55364529166673,200.2161446291667,62.0,110.0
535,199.55364529166673,200.25364459166673,65.0,101.0
536,199.9822162916667,200.5590014291667,57.0,77.0
537,199.55364529166673,200.66971560416673,50.0,113.0
538,200.4107872916667,201.0768580541667,62.0,113.0
539,200.4107872916667,201.57864326666672,65.0,104.0
540,201.69650029166672,202.0357856666667,62.0,93.0
541,202.1250712916667,202.5143566166667,62.0,113.0
542,202.1250712916667,202.92864191666672,65.0,106.0
543,202.9822132916667,203.6714983166667,60.0,94.0
544,202.9822132916667,203.70721256666673,63.0,104.0
545,203.83935529166672,203.8804266791667,63.0,28.0
546,203.41078429166672,203.9857837166667,55.0,49.0
547,204.26792629166673,204.8572114166667,55.0,47.0
548,203.83935529166672,205.0518540791667,67.0,120.0
549,204.6964972916667,205.33399665416673,63.0,104.0
550,205.1250682916667,205.56256785416673,55.0,52.0
551,204.6964972916667,205.60542495416672,58.0,101.0
552,202.9822132916667,205.6482820541667,48.0,94.0
553,205.5536392916667,205.97685315416672,67.0,117.0
554,205.5536392916667,205.9786388666667,63.0,109.0
555,205.98221029166672,206.1125673041667,58.0,101.0
556,206.41078129166672,207.1857805166667,57.0,96.0
557,207.2679232916667,207.36435176666672,57.0,46.0
558,206.41078129166672,207.36613747916672,53.0,99.0
559,206.83935229166673,207.45542310416673,48.0,96.0
560,206.41078129166672,207.9518511791667,41.0,101.0
561,207.6964942916667,207.9964939916667,57.0,113.0
562,207.2679232916667,208.0464939416667,60.0,109.0
563,208.12506529166671,208.36613647916673,53.0,104.0
564,208.12506529166671,208.54827915416672,65.0,109.0
565,208.12506529166671,208.63220764166672,60.0,109.0
566,208.12506529166671,208.6679218916667,57.0,117.0
567,208.55363629166672,208.9000645166667,53.0,96.0
568,208.55363629166672,209.0625643541667,48.0,71.0
569,208.98220729166673,209.3500640666667,53.0,115.0
570,208.98220729166673,209.45363539166672,57.0,120.0
571,208.12506529166671,209.53042102916672,41.0,101.0
572,209.4107782916667,209.75363509166672,48.0,106.0
573,208.98220729166673,209.79292076666673,63.0,112.0
574,210.2679202916667,210.6839913041667,53.0,76.0
575,209.8393492916667,210.7393483916667,62.0,88.0
576,210.69649129166672,211.6268475041667,58.0,112.0
577,211.12506229166672,211.6429189166667,53.0,51.0
578,211.5536332916667,212.23577546666672,62.0,117.0
579,211.5536332916667,212.49113235416672,65.0,101.0
580,211.9822042916667,212.68577501666672,53.0,56.0
581,212.4107752916667,212.73577496666672,58.0,109.0
582,209.8393492916667,212.7875606291667,46.0,101.0
583,213.26791729166672,214.13398785416672,57.0,117.0
584,213.69648829166672,214.2322020416667,48.0,66.0
585,214.5536302916667,214.95005846666672,57.0,29.0
586,214.12505929166673,215.6089863791667,60.0,106.0
587,214.9822012916667,215.79112905416673,65.0,104.0
588,215.41077229166672,215.95005746666672,48.0,40.0
589,215.83934329166672,216.06077164166672,65.0,82.0
590,213.26791729166672,216.07862876666672,41.0,94.0
591,215.83934329166672,216.08398590416672,57.0,117.0
592,215.83934329166672,216.16077154166672,60.0,106.0
593,216.6964852916667,217.2857704166667,58.0,106.0
594,216.6964852916667,217.57148441666672,55.0,86.0
595,216.6964852916667,217.67684145416672,43.0,99.0
596,217.1250562916667,217.73219854166672,50.0,70.0
597,217.55362729166671,217.7464842416667,58.0,109.0
598,217.55362729166671,217.86612697916672,62.0,104.0
599,218.41076929166672,219.0625543541667,60.0,96.0
600,218.41076929166672,219.06969720416672,65.0,99.0
601,218.8393402916667,219.38755402916672,48.0,47.0
602,218.41076929166672,219.5464824416667,41.0,101.0
603,219.2679112916667,219.66433946666672,65.0,106.0
604,219.2679112916667,219.6857680166667,69.0,117.0
605,220.55362429166672,221.0679094916667,57.0,81.0
606,220.12505329166672,221.0821951916667,65.0,104.0
607,220.9821952916667,221.58576611666672,62.0,110.0
608,221.8393372916667,222.5482651541667,62.0,113.0
609,221.8393372916667,222.5786222666667,69.0,107.0
610,221.41076629166673,222.62505079166672,57.0,61.0
611,220.12505329166672,222.69826500416673,50.0,110.0
612,222.69647929166672,222.98040757916672,65.0,106.0
613,222.69647929166672,222.99647899166672,62.0,110.0
614,223.55362129166673,223.88576381666672,58.0,104.0
615,223.55362129166673,224.20183492916672,63.0,106.0
616,224.83933429166672,225.0929054666667,58.0,66.0
617,224.4107632916667,225.25183387916672,67.0,120.0
618,225.26790529166672,225.8875475291667,58.0,106.0
619,225.26790529166672,225.9250474916667,63.0,109.0
620,223.55362129166673,226.27861856666672,51.0,106.0
621,226.1250472916667,226.5982611041667,58.0,109.0
622,226.1250472916667,226.66611817916672,65.0,104.0
623,226.9821892916667,227.64468862916672,62.0,110.0
624,226.9821892916667,227.68218859166672,65.0,101.0
625,227.41076029166672,227.98754542916672,57.0,77.0
626,226.9821892916667,228.0982596041667,50.0,113.0
627,227.83933129166672,228.50540205416672,62.0,113.0
628,227.83933129166672,229.00718726666673,65.0,104.0
629,229.1250442916667,229.4643296666667,62.0,93.0
630,229.55361529166672,229.94290061666672,62.0,113.0
631,229.55361529166672,230.3571859166667,65.0,106.0
632,230.41075729166673,231.1000423166667,60.0,94.0
633,230.41075729166673,231.1357565666667,63.0,104.0
634,231.2678992916667,231.30897067916672,63.0,28.0
635,230.83932829166673,231.41432771666672,55.0,49.0
636,231.6964702916667,232.28575541666672,55.0,47.0
637,231.2678992916667,232.48039807916672,67.0,120.0
638,232.12504129166672,232.7625406541667,63.0,104.0
639,232.55361229166672,232.99111185416672,55.0,52.0
640,232.12504129166672,233.0339689541667,58.0,101.0
641,230.41075729166673,233.0768260541667,48.0,94.0
642,232.98218329166673,233.40539715416674,67.0,117.0
643,232.98218329166673,233.40718286666672,63.0,109.0
644,233.4107542916667,233.54111130416672,58.0,101.0
645,233.67503974166672,234.3053962541667,53.0,76.0
646,233.73753967916673,234.72503869166673,57.0,86.0
647,233.83575386666672,235.32325237916672,60.0,89.0
648,235.10718116666672,235.4321808416667,57.0,113.0
649,234.25718201666672,236.1053944541667,48.0,47.0
650,233.78218249166673,236.48932264166672,41.0,99.0
651,234.7107529916667,236.98396500416672,53.0,89.0
652,235.57325212916672,236.99646499166673,57.0,88.0
653,235.58218069166674,237.0661077791667,60.0,78.0
654,237.67325002916672,238.57146341666672,50.0,81.0
655,237.2536075916667,238.58217769166671,43.0,110.0
656,238.56967770416674,239.12324857916673,55.0,88.0
657,238.15003526666672,240.09110475416674,62.0,101.0
658,239.3857483166667,240.14467612916673,48.0,80.0
659,239.01610582916672,240.1857475166667,41.0,96.0
660,239.8071764666667,240.22681890416672,53.0,101.0
661,240.5286043166667,240.68217559166672,51.0,82.0
662,240.6178899416667,240.72146126666672,39.0,101.0
663,240.5803899791667,240.72681840416672,55.0,68.0
664,240.6625327541667,240.82324687916673,58.0,87.0
665,240.72681840416672,241.28753212916672,63.0,101.0
666,241.1250322916667,242.00895997916672,51.0,91.0
667,241.56788899166673,242.03395995416673,58.0,104.0
668,241.99824570416672,242.13038842916671,63.0,115.0
669,242.43395955416673,242.87681625416673,65.0,104.0
670,242.4053881541667,243.08753032916673,62.0,104.0
671,242.84288771666672,243.4571728166667,57.0,117.0
672,242.4071738666667,244.00360084166672,50.0,110.0
673,243.24110160416672,244.0393150916667,65.0,112.0
674,243.23395875416674,244.04645794166672,62.0,117.0
675,243.23217304166673,244.04645794166672,69.0,113.0
676,243.63574406666672,244.05181507916672,57.0,120.0
677,243.91431521666672,244.5839574041667,58.0,85.0
678,243.97681515416673,244.94645704166672,63.0,99.0
679,244.04288651666673,245.17681395416673,67.0,99.0
680,244.9607427416667,245.59824210416673,58.0,112.0
681,245.3839566041667,245.68752772916673,63.0,94.0
682,244.48574321666672,246.96788359166672,46.0,91.0
683,244.00895797916672,247.03216924166674,39.0,106.0
684,245.92859891666672,247.1696691041667,63.0,96.0
685,245.98038457916672,247.4482402541667,67.0,91.0
686,245.81788474166672,247.50895447916673,58.0,82.0
687,247.7660970791667,249.2482384541667,50.0,110.0
688,247.72145426666674,250.88573681666674,62.0,91.0
689,247.8589541291667,251.26609357916672,65.0,94.0
690,252.78216349166672,254.87501854166672,60.0,73.0
691,254.73573296666672,254.89108995416672,55.0,42.0
692,252.88573481666674,254.92501849166672,48.0,76.0
693,252.8678776916667,254.92858991666674,63.0,89.0
694,252.95002046666673,254.94644704166672,67.0,88.0
695,255.28751812916673,256.48215979166673,41.0,87.0
696,255.88037467916672,256.5214454666667,48.0,55.0
697,256.6732310291667,257.48573021666675,39.0,80.0
698,256.6214453666667,258.6678718916667,51.0,80.0
699,256.7125167041667,258.9643001666667,54.0,74.0
700,256.79287376666673,259.52858531666675,58.0,82.0
701,260.8982268041667,261.4964404916667,60.0,76.0
702,260.64644134166673,261.65894032916674,53.0,71.0
703,261.1392979916667,261.6946545791667,62.0,110.0
704,261.43751197916674,262.20179692916673,65.0,99.0
705,261.7892973416667,262.4732252291667,58.0,74.0
706,262.2964396916667,262.85715341666673,53.0,28.0
707,263.1410817041667,263.3107243916667,70.0,43.0
708,263.28036727916674,263.5142956166667,74.0,93.0
709,263.6928668666667,263.86072384166675,69.0,107.0
710,264.1946520791667,264.3589376291667,65.0,87.0
711,264.6392944916667,265.2071510666667,62.0,70.0
712,265.6767934541667,265.94643604166674,57.0,74.0
713,265.9589360291667,266.5875068291667,58.0,91.0
714,266.31250710416674,266.7285781166667,62.0,40.0
715,266.7071495666667,267.3839346041667,65.0,62.0
716,265.4767936541667,267.4607202416667,53.0,20.0
717,262.99108185416674,267.4714345166667,50.0,44.0
718,260.29287026666674,267.54822015416676,46.0,104.0
719,267.2821489916667,267.56964870416675,69.0,59.0
720,268.3357193666667,271.0714309166667,53.0,54.0
721,268.1517909791667,271.0964308916667,46.0,44.0
722,268.4071478666667,271.4589305291667,70.0,74.0
723,268.6017905291667,271.5107161916667,77.0,8.0
