,start,end,pitch,velocity
0,16.435416666666665,16.829166666666666,68.0,95.0
1,16.935416666666665,17.14375,68.0,93.0
2,17.185416666666665,17.347916666666666,66.0,87.0
3,17.435416666666665,17.791666666666668,68.0,97.0
4,17.935416666666665,18.141666666666666,66.0,93.0
5,18.185416666666665,18.35625,64.0,93.0
6,18.435416666666665,18.789583333333333,66.0,95.0
7,18.935416666666665,19.1125,66.0,92.0
8,19.185416666666665,19.333333333333332,64.0,92.0
9,19.435416666666665,19.79375,66.0,94.0
10,19.935416666666665,20.072916666666668,64.0,95.0
11,20.185416666666665,20.33125,63.0,95.0
12,20.435416666666665,20.745833333333334,64.0,93.0
13,20.935416666666665,21.125,64.0,91.0
14,21.185416666666665,21.322916666666668,63.0,95.0
15,21.435416666666665,21.78333333333333,64.0,94.0
16,21.935416666666665,22.10625,64.0,95.0
17,22.185416666666665,22.327083333333334,63.0,85.0
18,22.435416666666665,22.825,64.0,95.0
19,22.935416666666665,23.114583333333332,63.0,92.0
20,23.185416666666665,23.85,59.0,91.0
21,24.435416666666665,24.78333333333333,61.0,93.0
22,24.935416666666665,25.11875,61.0,93.0
23,25.185416666666665,25.35625,59.0,91.0
24,25.435416666666665,25.745833333333334,61.0,93.0
25,25.935416666666665,26.122916666666665,61.0,95.0
26,26.185416666666665,26.316666666666666,59.0,90.0
27,26.435416666666665,26.81458333333333,59.0,92.0
28,26.935416666666665,27.347916666666666,64.0,94.0
29,27.435416666666665,27.8375,68.0,92.0
30,27.935416666666665,28.241666666666667,64.0,93.0
31,28.435416666666665,28.747916666666665,69.0,95.0
32,28.935416666666665,29.1125,69.0,97.0
33,29.185416666666665,29.310416666666665,68.0,92.0
34,29.435416666666665,29.78125,66.0,92.0
35,29.935416666666665,30.152083333333334,66.0,89.0
36,30.185416666666665,30.599999999999998,64.0,91.0
37,30.685416666666665,32.016666666666666,66.0,91.0
38,32.43541666666667,32.76875,68.0,93.0
39,32.93541666666667,33.08541666666667,68.0,92.0
40,33.18541666666667,33.34375,66.0,85.0
41,33.43541666666667,33.82083333333333,68.0,93.0
42,33.93541666666667,34.22083333333333,66.0,83.0
43,34.18541666666667,34.31458333333333,64.0,91.0
44,34.43541666666667,34.75625,66.0,91.0
45,34.93541666666667,35.09791666666666,66.0,91.0
46,35.18541666666667,35.30625,64.0,93.0
47,35.43541666666667,35.77916666666667,66.0,92.0
48,35.93541666666667,36.1125,64.0,92.0
49,36.18541666666667,36.31041666666667,63.0,93.0
50,36.43541666666667,36.77291666666667,64.0,92.0
51,36.93541666666667,37.08125,64.0,88.0
52,37.18541666666667,37.31458333333333,63.0,91.0
53,37.43541666666667,37.8,64.0,95.0
54,37.93541666666667,38.10625,64.0,95.0
55,38.18541666666667,38.33958333333333,63.0,91.0
56,38.43541666666667,38.822916666666664,64.0,93.0
57,38.93541666666667,39.15,63.0,93.0
58,39.18541666666667,39.795833333333334,59.0,86.0
59,40.43541666666667,40.79375,61.0,94.0
60,40.93541666666667,41.11666666666667,61.0,92.0
61,41.18541666666667,41.38333333333333,59.0,89.0
62,41.43541666666667,41.78541666666666,61.0,93.0
63,41.93541666666667,42.12708333333333,61.0,93.0
64,42.18541666666667,42.3375,59.0,89.0
65,42.43541666666667,42.7875,59.0,92.0
66,42.93541666666667,43.31666666666666,64.0,93.0
67,43.43541666666667,43.825,68.0,93.0
68,43.93541666666667,44.325,71.0,93.0
69,44.43541666666667,44.78958333333333,69.0,92.0
70,44.93541666666667,45.12708333333333,69.0,95.0
71,45.18541666666667,45.36666666666667,68.0,92.0
72,45.43541666666667,45.74791666666667,66.0,91.0
73,45.93541666666667,46.09791666666666,66.0,93.0
74,46.18541666666667,46.35208333333333,64.0,87.0
75,46.43541666666667,47.0375,66.0,92.0
76,47.18541666666667,47.33541666666667,59.0,93.0
77,47.43541666666667,47.59583333333333,71.0,96.0
78,47.68541666666667,47.83541666666667,69.0,94.0
79,47.93541666666667,48.09583333333333,69.0,93.0
80,48.18541666666667,48.329166666666666,68.0,95.0
81,48.43541666666667,48.91041666666666,71.0,93.0
82,49.18541666666667,49.38333333333333,59.0,95.0
83,49.43541666666667,49.59791666666666,71.0,93.0
84,49.68541666666667,49.829166666666666,69.0,92.0
85,49.93541666666667,50.09583333333333,69.0,93.0
86,50.18541666666667,50.329166666666666,68.0,93.0
87,50.43541666666667,50.958333333333336,66.0,93.0
88,51.18541666666667,51.322916666666664,66.0,92.0
89,51.43541666666667,51.56875,68.0,96.0
90,51.68541666666667,51.82083333333333,69.0,100.0
91,51.93541666666667,52.05833333333333,68.0,95.0
92,52.18541666666667,52.327083333333334,66.0,93.0
93,52.43541666666667,52.827083333333334,64.0,100.0
94,53.18541666666667,53.354166666666664,64.0,93.0
95,53.43541666666667,53.59166666666667,66.0,90.0
96,53.68541666666667,53.82083333333333,64.0,93.0
97,53.93541666666667,54.09166666666667,64.0,93.0
98,54.18541666666667,54.297916666666666,66.0,92.0
99,54.43541666666667,55.012499999999996,68.0,97.0
100,55.18541666666667,55.31458333333333,68.0,94.0
101,55.43541666666667,55.60208333333333,68.0,92.0
102,55.68541666666667,55.864583333333336,66.0,91.0
103,55.93541666666667,56.114583333333336,63.0,95.0
104,56.18541666666667,56.31666666666666,64.0,92.0
105,56.43541666666667,57.00833333333333,64.0,93.0
106,57.18541666666667,57.33541666666667,64.0,93.0
107,57.43541666666667,57.62083333333333,66.0,91.0
108,57.68541666666667,57.795833333333334,64.0,92.0
109,57.93541666666667,58.0875,64.0,89.0
110,58.18541666666667,58.35208333333333,59.0,91.0
111,58.43541666666667,58.94583333333333,68.0,95.0
112,59.18541666666667,59.35208333333333,64.0,93.0
113,59.43541666666667,59.60208333333333,66.0,92.0
114,59.68541666666667,59.8,64.0,92.0
115,59.93541666666667,60.106249999999996,64.0,91.0
116,60.18541666666667,60.35208333333333,61.0,92.0
117,60.43541666666667,61.016666666666666,69.0,98.0
118,61.18541666666667,61.33541666666667,69.0,92.0
119,61.43541666666667,61.6125,69.0,95.0
120,61.68541666666667,61.84166666666667,68.0,91.0
121,61.93541666666667,62.072916666666664,64.0,95.0
122,62.18541666666667,62.574999999999996,68.0,95.0
123,62.68541666666667,63.06041666666667,66.0,93.0
124,63.18541666666667,63.33541666666667,59.0,93.0
125,63.43541666666667,63.59583333333333,71.0,96.0
126,63.68541666666667,63.83541666666667,69.0,94.0
127,63.93541666666667,64.09583333333333,69.0,93.0
128,64.18541666666667,64.32916666666667,68.0,95.0
129,64.43541666666667,64.91041666666666,71.0,93.0
130,65.18541666666667,65.38333333333333,59.0,95.0
131,65.43541666666667,65.59791666666666,71.0,93.0
132,65.68541666666667,65.82916666666667,69.0,92.0
133,65.93541666666667,66.09583333333333,69.0,93.0
134,66.18541666666667,66.32916666666667,68.0,93.0
135,66.43541666666667,66.95833333333333,66.0,93.0
136,67.18541666666667,67.32291666666667,66.0,92.0
137,67.43541666666667,67.56875,68.0,96.0
138,67.68541666666667,67.82083333333333,69.0,100.0
139,67.93541666666667,68.05833333333334,68.0,95.0
140,68.18541666666667,68.32708333333333,66.0,93.0
141,68.43541666666667,68.82708333333333,64.0,100.0
142,69.18541666666667,69.35416666666667,64.0,93.0
143,69.43541666666667,69.59166666666667,66.0,90.0
144,69.68541666666667,69.82083333333333,64.0,93.0
145,69.93541666666667,70.09166666666667,64.0,93.0
146,70.18541666666667,70.29791666666667,66.0,92.0
147,70.43541666666667,71.0125,68.0,97.0
148,71.18541666666667,71.31458333333333,68.0,94.0
149,71.43541666666667,71.60208333333333,68.0,92.0
150,71.68541666666667,71.86458333333333,66.0,91.0
151,71.93541666666667,72.11458333333333,63.0,95.0
152,72.18541666666667,72.31666666666666,64.0,92.0
153,72.43541666666667,73.00833333333333,64.0,93.0
154,73.18541666666667,73.33541666666666,64.0,93.0
155,73.43541666666667,73.62083333333334,66.0,91.0
156,73.68541666666667,73.79583333333333,64.0,92.0
157,73.93541666666667,74.0875,64.0,89.0
158,74.18541666666667,74.35208333333333,59.0,91.0
159,74.43541666666667,74.94583333333333,68.0,95.0
160,75.18541666666667,75.35208333333333,64.0,93.0
161,75.43541666666667,75.60208333333333,66.0,92.0
162,75.68541666666667,75.8,64.0,92.0
163,75.93541666666667,76.10625,64.0,91.0
164,76.18541666666667,76.35208333333333,61.0,92.0
165,76.43541666666667,77.01666666666667,69.0,98.0
166,77.18541666666667,77.33541666666666,69.0,92.0
167,77.43541666666667,77.80208333333333,69.0,96.0
168,77.93541666666667,79.21666666666667,68.0,95.0
169,79.43541666666667,79.8125,63.0,102.0
170,79.93541666666667,80.35625,66.0,94.0
171,80.43541666666667,82.6375,64.0,93.0
172,84.43541666666667,84.76875,68.0,93.0
173,84.93541666666667,85.08541666666666,68.0,92.0
174,85.18541666666667,85.34375,66.0,85.0
175,85.43541666666667,85.82083333333333,68.0,93.0
176,85.93541666666667,86.22083333333333,66.0,83.0
177,86.18541666666667,86.31458333333333,64.0,91.0
178,86.43541666666667,86.75625,66.0,91.0
179,86.93541666666667,87.09791666666666,66.0,91.0
180,87.18541666666667,87.30625,64.0,93.0
181,87.43541666666667,87.77916666666667,66.0,92.0
182,87.93541666666667,88.1125,64.0,92.0
183,88.18541666666667,88.31041666666667,63.0,93.0
184,88.43541666666667,88.77291666666666,64.0,92.0
185,88.93541666666667,89.08125,64.0,88.0
186,89.18541666666667,89.31458333333333,63.0,91.0
187,89.43541666666667,89.8,64.0,95.0
188,89.93541666666667,90.10625,64.0,95.0
189,90.18541666666667,90.33958333333334,63.0,91.0
190,90.43541666666667,90.82291666666667,64.0,93.0
191,90.93541666666667,91.15,63.0,93.0
192,91.18541666666667,91.79583333333333,59.0,86.0
193,92.43541666666667,92.79375,61.0,94.0
194,92.93541666666667,93.11666666666666,61.0,92.0
195,93.18541666666667,93.38333333333333,59.0,89.0
196,93.43541666666667,93.78541666666666,61.0,93.0
197,93.93541666666667,94.12708333333333,61.0,93.0
198,94.18541666666667,94.3375,59.0,89.0
199,94.43541666666667,94.7875,59.0,92.0
200,94.93541666666667,95.31666666666666,64.0,93.0
201,95.43541666666667,95.825,68.0,93.0
202,95.93541666666667,96.325,71.0,93.0
203,96.43541666666667,96.78958333333333,69.0,92.0
204,96.93541666666667,97.12708333333333,69.0,95.0
205,97.18541666666667,97.36666666666666,68.0,92.0
206,97.43541666666667,97.74791666666667,66.0,91.0
207,97.93541666666667,98.09791666666666,66.0,93.0
208,98.18541666666667,98.35208333333333,64.0,87.0
209,98.43541666666667,99.0375,66.0,92.0
210,99.18541666666667,99.33541666666666,59.0,93.0
211,99.43541666666667,99.59583333333333,71.0,96.0
212,99.68541666666667,99.83541666666666,69.0,94.0
213,99.93541666666667,100.09583333333333,69.0,93.0
214,100.18541666666667,100.32916666666667,68.0,95.0
215,100.43541666666667,100.91041666666666,71.0,93.0
216,101.18541666666667,101.38333333333333,59.0,95.0
217,101.43541666666667,101.59791666666666,71.0,93.0
218,101.68541666666667,101.82916666666667,69.0,92.0
219,101.93541666666667,102.09583333333333,69.0,93.0
220,102.18541666666667,102.32916666666667,68.0,93.0
221,102.43541666666667,102.95833333333333,66.0,93.0
222,103.18541666666667,103.32291666666667,66.0,92.0
223,103.43541666666667,103.56875,68.0,96.0
224,103.68541666666667,103.82083333333333,69.0,100.0
225,103.93541666666667,104.05833333333334,68.0,95.0
226,104.18541666666667,104.32708333333333,66.0,93.0
227,104.43541666666667,104.82708333333333,64.0,100.0
228,105.18541666666667,105.35416666666667,64.0,93.0
229,105.43541666666667,105.59166666666667,66.0,90.0
230,105.68541666666667,105.82083333333333,64.0,93.0
231,105.93541666666667,106.09166666666667,64.0,93.0
232,106.18541666666667,106.29791666666667,66.0,92.0
233,106.43541666666667,107.0125,68.0,97.0
234,107.18541666666667,107.31458333333333,68.0,94.0
235,107.43541666666667,107.60208333333333,68.0,92.0
236,107.68541666666667,107.86458333333333,66.0,91.0
237,107.93541666666667,108.11458333333333,63.0,95.0
238,108.18541666666667,108.31666666666666,64.0,92.0
239,108.43541666666667,109.00833333333333,64.0,93.0
240,109.18541666666667,109.33541666666666,64.0,93.0
241,109.43541666666667,109.62083333333334,66.0,91.0
242,109.68541666666667,109.79583333333333,64.0,92.0
243,109.93541666666667,110.08749999999999,64.0,89.0
244,110.18541666666667,110.35208333333333,59.0,91.0
245,110.43541666666667,110.94583333333333,68.0,95.0
246,111.18541666666667,111.35208333333333,64.0,93.0
247,111.43541666666667,111.60208333333333,66.0,92.0
248,111.68541666666667,111.8,64.0,92.0
249,111.93541666666667,112.10625,64.0,91.0
250,112.18541666666667,112.35208333333333,61.0,92.0
251,112.43541666666667,113.01666666666667,69.0,98.0
252,113.18541666666667,113.33541666666666,69.0,92.0
253,113.43541666666667,113.6125,69.0,95.0
254,113.68541666666667,113.84166666666667,68.0,91.0
255,113.93541666666667,114.07291666666667,64.0,95.0
256,114.18541666666667,114.575,68.0,95.0
257,114.68541666666667,115.06041666666667,66.0,93.0
258,115.18541666666667,115.33541666666666,59.0,93.0
259,115.43541666666667,115.59583333333333,71.0,96.0
260,115.68541666666667,115.83541666666666,69.0,94.0
261,115.93541666666667,116.09583333333333,69.0,93.0
262,116.18541666666667,116.32916666666667,68.0,95.0
263,116.43541666666667,116.91041666666666,71.0,93.0
264,117.18541666666667,117.38333333333333,59.0,95.0
265,117.43541666666667,117.59791666666666,71.0,93.0
266,117.68541666666667,117.82916666666667,69.0,92.0
267,117.93541666666667,118.09583333333333,69.0,93.0
268,118.18541666666667,118.32916666666667,68.0,93.0
269,118.43541666666667,118.95833333333333,66.0,93.0
270,119.18541666666667,119.32291666666667,66.0,92.0
271,119.43541666666667,119.56875,68.0,96.0
272,119.68541666666667,119.82083333333333,69.0,100.0
273,119.93541666666667,120.05833333333334,68.0,95.0
274,120.18541666666667,120.32708333333333,66.0,93.0
275,120.43541666666667,120.82708333333333,64.0,100.0
276,121.18541666666667,121.35416666666667,64.0,93.0
277,121.43541666666667,121.59166666666667,66.0,90.0
278,121.68541666666667,121.82083333333333,64.0,93.0
279,121.93541666666667,122.09166666666667,64.0,93.0
280,122.18541666666667,122.29791666666667,66.0,92.0
281,122.43541666666667,123.0125,68.0,97.0
282,123.18541666666667,123.31458333333333,68.0,94.0
283,123.43541666666667,123.60208333333333,68.0,92.0
284,123.68541666666667,123.86458333333333,66.0,91.0
285,123.93541666666667,124.11458333333333,63.0,95.0
286,124.18541666666667,124.31666666666666,64.0,92.0
287,124.43541666666667,125.00833333333333,64.0,93.0
288,125.18541666666667,125.33541666666666,64.0,93.0
289,125.43541666666667,125.62083333333334,66.0,91.0
290,125.68541666666667,125.79583333333333,64.0,92.0
291,125.93541666666667,126.08749999999999,64.0,89.0
292,126.18541666666667,126.35208333333333,59.0,91.0
293,126.43541666666667,126.94583333333333,68.0,95.0
294,127.18541666666667,127.35208333333333,64.0,93.0
295,127.43541666666667,127.60208333333333,66.0,92.0
296,127.68541666666667,127.8,64.0,92.0
297,127.93541666666667,128.10625,64.0,91.0
298,128.18541666666667,128.35208333333333,61.0,92.0
299,128.43541666666667,129.01666666666665,69.0,98.0
300,129.18541666666667,129.33541666666667,69.0,92.0
301,129.43541666666667,129.80208333333334,69.0,96.0
302,129.93541666666667,131.21666666666667,68.0,95.0
303,131.43541666666667,131.8125,63.0,102.0
304,131.93541666666667,132.35625,66.0,94.0
305,132.43541666666667,134.6375,64.0,93.0
306,147.18541666666667,147.33541666666667,59.0,93.0
307,147.43541666666667,147.59583333333333,71.0,96.0
308,147.68541666666667,147.83541666666667,69.0,94.0
309,147.93541666666667,148.09583333333333,69.0,93.0
310,148.18541666666667,148.32916666666665,68.0,95.0
311,148.43541666666667,148.91041666666666,71.0,93.0
312,149.18541666666667,149.38333333333333,59.0,95.0
313,149.43541666666667,149.59791666666666,71.0,93.0
314,149.68541666666667,149.82916666666665,69.0,92.0
315,149.93541666666667,150.09583333333333,69.0,93.0
316,150.18541666666667,150.32916666666665,68.0,93.0
317,150.43541666666667,150.95833333333334,66.0,93.0
318,151.18541666666667,151.32291666666666,66.0,92.0
319,151.43541666666667,151.56875,68.0,96.0
320,151.68541666666667,151.82083333333333,69.0,100.0
321,151.93541666666667,152.05833333333334,68.0,95.0
322,152.18541666666667,152.32708333333332,66.0,93.0
323,152.43541666666667,152.82708333333332,64.0,100.0
324,153.18541666666667,153.35416666666666,64.0,93.0
325,153.43541666666667,153.59166666666667,66.0,90.0
326,153.68541666666667,153.82083333333333,64.0,93.0
327,153.93541666666667,154.09166666666667,64.0,93.0
328,154.18541666666667,154.29791666666665,66.0,92.0
329,154.43541666666667,155.0125,68.0,97.0
330,155.18541666666667,155.31458333333333,68.0,94.0
331,155.43541666666667,155.60208333333333,68.0,92.0
332,155.68541666666667,155.86458333333334,66.0,91.0
333,155.93541666666667,156.11458333333334,63.0,95.0
334,156.18541666666667,156.31666666666666,64.0,92.0
335,156.43541666666667,157.00833333333333,64.0,93.0
336,157.18541666666667,157.33541666666667,64.0,93.0
337,157.43541666666667,157.62083333333334,66.0,91.0
338,157.68541666666667,157.79583333333332,64.0,92.0
339,157.93541666666667,158.0875,64.0,89.0
340,158.18541666666667,158.35208333333333,59.0,91.0
341,158.43541666666667,158.94583333333333,68.0,95.0
342,159.18541666666667,159.35208333333333,64.0,93.0
343,159.43541666666667,159.60208333333333,66.0,92.0
344,159.68541666666667,159.8,64.0,92.0
345,159.93541666666667,160.10625,64.0,91.0
346,160.18541666666667,160.35208333333333,61.0,92.0
347,160.43541666666667,161.01666666666665,69.0,98.0
348,161.18541666666667,161.33541666666667,69.0,92.0
349,161.43541666666667,161.6125,69.0,95.0
350,161.68541666666667,161.84166666666667,68.0,91.0
351,161.93541666666667,162.07291666666666,64.0,95.0
352,162.18541666666667,162.575,68.0,95.0
353,162.68541666666667,163.06041666666667,66.0,93.0
354,163.18541666666667,163.33541666666667,59.0,93.0
355,163.43541666666667,163.59583333333333,71.0,96.0
356,163.68541666666667,163.83541666666667,69.0,94.0
357,163.93541666666667,164.09583333333333,69.0,93.0
358,164.18541666666667,164.32916666666665,68.0,95.0
359,164.43541666666667,164.91041666666666,71.0,93.0
360,165.18541666666667,165.38333333333333,59.0,95.0
361,165.43541666666667,165.59791666666666,71.0,93.0
362,165.68541666666667,165.82916666666665,69.0,92.0
363,165.93541666666667,166.09583333333333,69.0,93.0
364,166.18541666666667,166.32916666666665,68.0,93.0
365,166.43541666666667,166.95833333333334,66.0,93.0
366,167.18541666666667,167.32291666666666,66.0,92.0
367,167.43541666666667,167.56875,68.0,96.0
368,167.68541666666667,167.82083333333333,69.0,100.0
369,167.93541666666667,168.05833333333334,68.0,95.0
370,168.18541666666667,168.32708333333332,66.0,93.0
371,168.43541666666667,168.82708333333332,64.0,100.0
372,169.18541666666667,169.35416666666666,64.0,93.0
373,169.43541666666667,169.59166666666667,66.0,90.0
374,169.68541666666667,169.82083333333333,64.0,93.0
375,169.93541666666667,170.09166666666667,64.0,93.0
376,170.18541666666667,170.29791666666665,66.0,92.0
377,170.43541666666667,171.0125,68.0,97.0
378,171.18541666666667,171.31458333333333,68.0,94.0
379,171.43541666666667,171.60208333333333,68.0,92.0
380,171.68541666666667,171.86458333333334,66.0,91.0
381,171.93541666666667,172.11458333333334,63.0,95.0
382,172.18541666666667,172.31666666666666,64.0,92.0
383,172.43541666666667,173.00833333333333,64.0,93.0
384,173.18541666666667,173.33541666666667,64.0,93.0
385,173.43541666666667,173.62083333333334,66.0,91.0
386,173.68541666666667,173.79583333333332,64.0,92.0
387,173.93541666666667,174.0875,64.0,89.0
388,174.18541666666667,174.35208333333333,59.0,91.0
389,174.43541666666667,174.94583333333333,68.0,95.0
390,175.18541666666667,175.35208333333333,64.0,93.0
391,175.43541666666667,175.60208333333333,66.0,92.0
392,175.68541666666667,175.8,64.0,92.0
393,175.93541666666667,176.10625,64.0,91.0
394,176.18541666666667,176.35208333333333,61.0,92.0
395,176.43541666666667,177.01666666666665,69.0,98.0
396,177.18541666666667,177.33541666666667,69.0,92.0
397,177.43541666666667,177.80208333333334,69.0,96.0
398,177.93541666666667,179.21666666666667,68.0,95.0
399,179.43541666666667,179.8125,63.0,102.0
400,179.93541666666667,180.35625,66.0,94.0
401,180.43541666666667,182.6375,64.0,93.0
