,start,end,pitch,velocity
0,0.4354166666666667,0.99375,56.0,89.0
1,0.9354166666666667,1.1020833333333333,52.0,85.0
2,0.4354166666666667,2.25,40.0,92.0
3,0.6854166666666667,2.2708333333333335,47.0,80.0
4,1.1854166666666666,2.591666666666667,52.0,89.0
5,1.1854166666666666,2.7020833333333334,59.0,86.0
6,2.935416666666667,3.1604166666666664,54.0,91.0
7,2.685416666666667,3.902083333333333,51.0,86.0
8,2.435416666666667,3.9229166666666666,47.0,84.0
9,3.185416666666667,4.05,54.0,70.0
10,3.185416666666667,4.1,59.0,92.0
11,4.435416666666667,6.21875,45.0,93.0
12,4.685416666666667,6.4875,52.0,84.0
13,4.935416666666667,6.541666666666667,57.0,77.0
14,5.185416666666667,6.560416666666667,64.0,84.0
15,6.935416666666667,8.027083333333334,57.0,88.0
16,6.435416666666667,8.03125,45.0,94.0
17,7.185416666666667,8.0375,60.0,98.0
18,6.685416666666667,8.077083333333333,52.0,83.0
19,8.435416666666667,8.93125,56.0,85.0
20,8.435416666666667,10.183333333333334,40.0,92.0
21,8.685416666666667,10.260416666666666,47.0,83.0
22,8.935416666666667,10.575,52.0,92.0
23,9.185416666666667,10.664583333333333,59.0,92.0
24,9.185416666666667,10.68125,56.0,93.0
25,10.435416666666667,12.072916666666666,40.0,86.0
26,10.685416666666667,12.104166666666666,47.0,80.0
27,11.185416666666667,12.44375,56.0,81.0
28,10.935416666666667,12.445833333333333,52.0,87.0
29,11.185416666666667,12.525,59.0,81.0
30,11.685416666666667,12.7,63.0,92.0
31,12.935416666666667,13.070833333333333,57.0,78.0
32,12.435416666666667,14.116666666666667,45.0,93.0
33,12.685416666666667,14.279166666666667,52.0,80.0
34,13.185416666666667,14.760416666666666,57.0,90.0
35,13.185416666666667,14.975,64.0,90.0
36,14.935416666666667,15.112499999999999,57.0,93.0
37,14.685416666666667,16.085416666666667,52.0,87.0
38,14.435416666666667,16.13125,45.0,84.0
39,15.185416666666667,16.38125,57.0,77.0
40,15.185416666666667,16.489583333333332,64.0,91.0
41,16.435416666666665,18.05625,40.0,91.0
42,16.685416666666665,18.066666666666666,47.0,74.0
43,16.935416666666665,18.1375,52.0,80.0
44,17.185416666666665,18.18958333333333,59.0,81.0
45,18.685416666666665,19.12708333333333,54.0,85.0
46,18.935416666666665,19.214583333333334,59.0,85.0
47,19.185416666666665,19.55,63.0,98.0
48,18.435416666666665,20.160416666666666,47.0,92.0
49,20.435416666666665,20.766666666666666,56.0,82.0
50,20.935416666666665,21.116666666666667,56.0,50.0
51,20.435416666666665,21.739583333333332,49.0,91.0
52,20.435416666666665,22.427083333333332,61.0,82.0
53,21.185416666666665,22.458333333333332,64.0,87.0
54,22.435416666666665,22.97083333333333,59.0,87.0
55,22.935416666666665,23.727083333333333,56.0,78.0
56,23.185416666666665,23.8375,59.0,85.0
57,22.435416666666665,23.847916666666666,44.0,91.0
58,22.685416666666665,23.889583333333334,51.0,83.0
59,23.685416666666665,24.197916666666668,63.0,86.0
60,24.435416666666665,24.735416666666666,57.0,79.0
61,24.685416666666665,25.697916666666668,52.0,78.0
62,24.435416666666665,25.729166666666668,45.0,92.0
63,24.935416666666665,25.870833333333334,57.0,81.0
64,24.435416666666665,25.958333333333332,61.0,84.0
65,25.185416666666665,25.974999999999998,64.0,74.0
66,26.435416666666665,26.677083333333332,52.0,82.0
67,26.435416666666665,26.95625,56.0,83.0
68,26.435416666666665,26.989583333333332,40.0,91.0
69,26.685416666666665,27.060416666666665,47.0,82.0
70,26.935416666666665,27.102083333333333,52.0,92.0
71,27.435416666666665,27.935416666666665,56.0,85.0
72,27.435416666666665,27.95625,49.0,92.0
73,27.435416666666665,28.00208333333333,61.0,87.0
74,28.435416666666665,28.72083333333333,54.0,83.0
75,28.435416666666665,28.860416666666666,57.0,78.0
76,28.435416666666665,28.883333333333333,61.0,87.0
77,28.685416666666665,29.966666666666665,49.0,80.0
78,28.435416666666665,30.102083333333333,42.0,91.0
79,28.935416666666665,30.185416666666665,54.0,89.0
80,29.185416666666665,30.241666666666667,61.0,87.0
81,30.435416666666665,30.68125,54.0,86.0
82,30.435416666666665,30.97083333333333,59.0,85.0
83,30.935416666666665,31.245833333333334,54.0,92.0
84,31.185416666666665,32.00416666666666,63.0,96.0
85,30.435416666666665,32.15625,47.0,88.0
86,30.685416666666665,32.15625,51.0,83.0
87,31.935416666666665,32.51875,59.0,93.0
88,32.18541666666667,32.53333333333333,54.0,86.0
89,32.93541666666667,33.95625,52.0,87.0
90,33.18541666666667,33.99166666666667,59.0,87.0
91,32.43541666666667,33.99583333333333,40.0,93.0
92,32.68541666666667,34.020833333333336,47.0,83.0
93,34.43541666666667,34.7125,54.0,85.0
94,34.43541666666667,35.0125,59.0,84.0
95,35.18541666666667,35.579166666666666,63.0,98.0
96,34.93541666666667,35.604166666666664,54.0,91.0
97,35.68541666666667,35.983333333333334,59.0,87.0
98,34.43541666666667,36.08958333333333,47.0,92.0
99,34.68541666666667,36.12916666666666,51.0,80.0
100,35.93541666666667,36.24375,54.0,74.0
101,36.18541666666667,36.50208333333333,59.0,80.0
102,36.43541666666667,36.7375,61.0,85.0
103,37.18541666666667,37.48125,66.0,84.0
104,36.43541666666667,37.922916666666666,49.0,94.0
105,36.68541666666667,38.05625,56.0,83.0
106,36.93541666666667,38.175,61.0,83.0
107,37.18541666666667,38.22083333333333,64.0,85.0
108,38.43541666666667,38.65625,56.0,80.0
109,38.43541666666667,38.983333333333334,59.0,83.0
110,39.18541666666667,39.739583333333336,59.0,89.0
111,38.93541666666667,39.760416666666664,54.0,91.0
112,38.43541666666667,39.858333333333334,44.0,91.0
113,38.68541666666667,39.864583333333336,51.0,85.0
114,39.68541666666667,40.329166666666666,63.0,91.0
115,39.93541666666667,40.35,54.0,79.0
116,40.43541666666667,40.95,61.0,91.0
117,40.93541666666667,41.83541666666667,57.0,82.0
118,40.68541666666667,42.108333333333334,52.0,77.0
119,40.43541666666667,42.166666666666664,45.0,81.0
120,41.18541666666667,42.27916666666667,64.0,91.0
121,42.18541666666667,42.34166666666667,57.0,86.0
122,41.93541666666667,42.37291666666667,61.0,82.0
123,42.43541666666667,43.2375,56.0,82.0
124,42.93541666666667,43.62916666666666,59.0,86.0
125,42.43541666666667,44.0375,44.0,91.0
126,42.68541666666667,44.09583333333333,52.0,80.0
127,43.93541666666667,44.1375,59.0,78.0
128,44.18541666666667,44.2875,56.0,74.0
129,43.18541666666667,44.35208333333333,64.0,91.0
130,44.43541666666667,44.7,54.0,80.0
131,44.43541666666667,44.95625,57.0,79.0
132,44.93541666666667,45.92916666666667,54.0,85.0
133,45.18541666666667,46.00625,57.0,81.0
134,44.43541666666667,46.07083333333333,61.0,82.0
135,44.68541666666667,46.22708333333333,49.0,79.0
136,44.43541666666667,46.24375,42.0,92.0
137,46.43541666666667,46.670833333333334,54.0,88.0
138,46.43541666666667,46.99375,59.0,89.0
139,46.93541666666667,47.05,54.0,96.0
140,46.68541666666667,47.33958333333333,51.0,85.0
141,47.18541666666667,47.483333333333334,54.0,100.0
142,47.18541666666667,47.55833333333333,59.0,100.0
143,47.18541666666667,47.68541666666667,63.0,100.0
144,47.68541666666667,47.8625,54.0,94.0
145,47.93541666666667,48.25833333333333,59.0,96.0
146,48.18541666666667,48.39791666666667,54.0,87.0
147,47.43541666666667,48.483333333333334,51.0,86.0
148,46.43541666666667,48.49791666666667,47.0,96.0
149,48.43541666666667,48.764583333333334,52.0,92.0
150,48.43541666666667,48.83958333333333,56.0,91.0
151,48.93541666666667,49.27916666666667,52.0,82.0
152,49.18541666666667,49.32083333333333,56.0,87.0
153,49.18541666666667,49.34166666666667,59.0,83.0
154,48.43541666666667,49.37708333333333,40.0,97.0
155,48.93541666666667,49.3875,47.0,92.0
156,49.43541666666667,49.47291666666666,52.0,82.0
157,49.43541666666667,49.94166666666666,56.0,91.0
158,49.43541666666667,50.06666666666666,40.0,93.0
159,49.43541666666667,50.16458333333333,59.0,91.0
160,49.93541666666667,50.17916666666667,52.0,86.0
161,49.43541666666667,50.302083333333336,64.0,96.0
162,50.43541666666667,50.58125,54.0,91.0
163,50.43541666666667,50.96875,59.0,93.0
164,50.93541666666667,51.262499999999996,54.0,92.0
165,50.43541666666667,51.32083333333333,47.0,95.0
166,51.18541666666667,51.33125,59.0,92.0
167,51.43541666666667,51.61666666666667,54.0,92.0
168,51.43541666666667,51.949999999999996,47.0,96.0
169,51.43541666666667,51.979166666666664,63.0,93.0
170,51.93541666666667,52.05,54.0,78.0
171,51.43541666666667,52.05416666666667,59.0,92.0
172,52.43541666666667,52.670833333333334,56.0,91.0
173,52.43541666666667,52.93958333333333,61.0,91.0
174,52.93541666666667,53.260416666666664,56.0,83.0
175,52.43541666666667,53.3125,49.0,97.0
176,53.18541666666667,53.329166666666666,61.0,75.0
177,53.43541666666667,53.71041666666667,56.0,88.0
178,53.43541666666667,53.916666666666664,49.0,92.0
179,53.43541666666667,53.922916666666666,61.0,92.0
180,53.43541666666667,54.06041666666667,64.0,91.0
181,53.93541666666667,54.27291666666667,56.0,92.0
182,54.18541666666667,54.354166666666664,61.0,83.0
183,54.43541666666667,54.675,54.0,91.0
184,54.43541666666667,54.927083333333336,59.0,91.0
185,54.93541666666667,55.20625,54.0,88.0
186,54.43541666666667,55.293749999999996,47.0,93.0
187,55.18541666666667,55.293749999999996,59.0,81.0
188,55.43541666666667,55.68541666666667,54.0,91.0
189,55.43541666666667,55.708333333333336,47.0,92.0
190,55.43541666666667,55.7375,63.0,96.0
191,55.68541666666667,55.947916666666664,59.0,92.0
192,55.93541666666667,56.25208333333333,54.0,92.0
193,56.43541666666667,56.74166666666667,57.0,92.0
194,56.93541666666667,57.25208333333333,57.0,93.0
195,56.68541666666667,57.3125,52.0,89.0
196,56.43541666666667,57.31875,45.0,95.0
197,57.18541666666667,57.32083333333333,61.0,87.0
198,57.43541666666667,57.66458333333333,57.0,91.0
199,57.43541666666667,57.860416666666666,45.0,92.0
200,57.43541666666667,57.96666666666667,61.0,91.0
201,57.43541666666667,58.10208333333333,52.0,90.0
202,57.93541666666667,58.25,57.0,97.0
203,57.43541666666667,58.26875,64.0,91.0
204,58.18541666666667,58.40416666666667,61.0,83.0
205,58.43541666666667,58.62708333333333,56.0,86.0
206,58.43541666666667,58.80833333333333,59.0,93.0
207,58.68541666666667,58.95625,56.0,75.0
208,58.93541666666667,59.27291666666667,59.0,91.0
209,59.18541666666667,59.33125,56.0,82.0
210,59.43541666666667,59.645833333333336,56.0,91.0
211,59.43541666666667,59.8,59.0,92.0
212,59.43541666666667,59.81666666666666,64.0,92.0
213,58.43541666666667,60.06041666666667,44.0,90.0
214,59.93541666666667,60.233333333333334,56.0,92.0
215,60.18541666666667,60.293749999999996,59.0,87.0
216,60.43541666666667,60.72708333333333,54.0,87.0
217,60.43541666666667,60.78541666666666,57.0,86.0
218,60.93541666666667,61.21041666666667,54.0,87.0
219,61.18541666666667,61.3,57.0,86.0
220,60.68541666666667,61.677083333333336,49.0,88.0
221,61.43541666666667,61.760416666666664,54.0,102.0
222,61.43541666666667,61.764583333333334,57.0,98.0
223,61.43541666666667,61.791666666666664,66.0,93.0
224,61.93541666666667,62.00416666666666,54.0,86.0
225,60.43541666666667,62.03958333333333,42.0,92.0
226,61.93541666666667,62.1625,49.0,91.0
227,61.93541666666667,62.204166666666666,57.0,94.0
228,62.18541666666667,62.30416666666667,54.0,91.0
229,61.93541666666667,62.30833333333333,61.0,94.0
230,62.43541666666667,62.5875,54.0,93.0
231,62.43541666666667,62.71666666666667,59.0,92.0
232,62.68541666666667,62.87291666666667,54.0,86.0
233,62.93541666666667,63.09166666666667,59.0,81.0
234,62.43541666666667,63.22083333333333,47.0,100.0
235,63.18541666666667,63.34583333333333,54.0,85.0
236,63.43541666666667,63.670833333333334,54.0,93.0
237,63.43541666666667,63.764583333333334,59.0,96.0
238,63.43541666666667,64.02291666666666,63.0,96.0
239,63.93541666666667,64.24791666666667,59.0,87.0
240,64.18541666666667,64.375,54.0,92.0
241,63.43541666666667,64.43958333333333,47.0,97.0
242,64.43541666666667,64.76458333333333,52.0,92.0
243,64.43541666666667,64.83958333333334,56.0,91.0
244,64.93541666666667,65.27916666666667,52.0,82.0
245,65.18541666666667,65.32083333333333,56.0,87.0
246,65.18541666666667,65.34166666666667,59.0,83.0
247,64.43541666666667,65.37708333333333,40.0,97.0
248,64.93541666666667,65.3875,47.0,92.0
249,65.43541666666667,65.47291666666666,52.0,82.0
250,65.43541666666667,65.94166666666666,56.0,91.0
251,65.43541666666667,66.06666666666666,40.0,93.0
252,65.43541666666667,66.16458333333333,59.0,91.0
253,65.93541666666667,66.17916666666666,52.0,86.0
254,65.43541666666667,66.30208333333333,64.0,96.0
255,66.43541666666667,66.58125,54.0,91.0
256,66.43541666666667,66.96875,59.0,93.0
257,66.93541666666667,67.2625,54.0,92.0
258,66.43541666666667,67.32083333333333,47.0,95.0
259,67.18541666666667,67.33125,59.0,92.0
260,67.43541666666667,67.61666666666666,54.0,92.0
261,67.43541666666667,67.95,47.0,96.0
262,67.43541666666667,67.97916666666667,63.0,93.0
263,67.93541666666667,68.05,54.0,78.0
264,67.43541666666667,68.05416666666666,59.0,92.0
265,68.43541666666667,68.67083333333333,56.0,91.0
266,68.43541666666667,68.93958333333333,61.0,91.0
267,68.93541666666667,69.26041666666667,56.0,83.0
268,68.43541666666667,69.3125,49.0,97.0
269,69.18541666666667,69.32916666666667,61.0,75.0
270,69.43541666666667,69.71041666666666,56.0,88.0
271,69.43541666666667,69.91666666666667,49.0,92.0
272,69.43541666666667,69.92291666666667,61.0,92.0
273,69.43541666666667,70.06041666666667,64.0,91.0
274,69.93541666666667,70.27291666666666,56.0,92.0
275,70.18541666666667,70.35416666666667,61.0,83.0
276,70.43541666666667,70.675,54.0,91.0
277,70.43541666666667,70.92708333333333,59.0,91.0
278,70.93541666666667,71.20625,54.0,88.0
279,70.43541666666667,71.29375,47.0,93.0
280,71.18541666666667,71.29375,59.0,81.0
281,71.43541666666667,71.68541666666667,54.0,91.0
282,71.43541666666667,71.70833333333333,47.0,92.0
283,71.43541666666667,71.7375,63.0,96.0
284,71.68541666666667,71.94791666666667,59.0,92.0
285,71.93541666666667,72.25208333333333,54.0,92.0
286,72.43541666666667,72.74166666666666,57.0,92.0
287,72.93541666666667,73.25208333333333,57.0,93.0
288,72.68541666666667,73.3125,52.0,89.0
289,72.43541666666667,73.31875,45.0,95.0
290,73.18541666666667,73.32083333333333,61.0,87.0
291,73.43541666666667,73.66458333333333,57.0,91.0
292,73.43541666666667,73.86041666666667,45.0,92.0
293,73.43541666666667,73.96666666666667,61.0,91.0
294,73.43541666666667,74.10208333333333,52.0,90.0
295,73.93541666666667,74.25,57.0,97.0
296,73.43541666666667,74.26875,64.0,91.0
297,74.18541666666667,74.40416666666667,61.0,83.0
298,74.43541666666667,74.62708333333333,56.0,86.0
299,74.43541666666667,74.80833333333334,59.0,93.0
300,74.68541666666667,74.95625,56.0,75.0
301,74.93541666666667,75.27291666666666,59.0,91.0
302,75.18541666666667,75.33125,56.0,82.0
303,75.43541666666667,75.64583333333333,56.0,91.0
304,75.43541666666667,75.8,59.0,92.0
305,75.43541666666667,75.81666666666666,64.0,92.0
306,74.43541666666667,76.06041666666667,44.0,90.0
307,75.93541666666667,76.23333333333333,56.0,92.0
308,76.18541666666667,76.29375,59.0,87.0
309,76.43541666666667,76.72708333333333,54.0,87.0
310,76.43541666666667,76.78541666666666,57.0,86.0
311,76.93541666666667,77.21041666666666,54.0,87.0
312,77.18541666666667,77.3,57.0,86.0
313,76.68541666666667,77.67708333333333,49.0,88.0
314,77.43541666666667,77.76041666666667,54.0,102.0
315,77.43541666666667,77.76458333333333,57.0,98.0
316,77.43541666666667,77.79166666666667,66.0,93.0
317,77.93541666666667,78.00416666666666,54.0,86.0
318,76.43541666666667,78.03958333333333,42.0,92.0
319,77.93541666666667,78.1625,49.0,91.0
320,77.93541666666667,78.20416666666667,57.0,94.0
321,78.18541666666667,78.30416666666666,54.0,91.0
322,77.93541666666667,78.30833333333334,61.0,94.0
323,78.43541666666667,78.5875,54.0,93.0
324,78.43541666666667,78.71666666666667,59.0,92.0
325,78.68541666666667,78.87291666666667,54.0,86.0
326,78.93541666666667,79.09166666666667,59.0,81.0
327,78.43541666666667,79.22083333333333,47.0,100.0
328,79.18541666666667,79.34583333333333,54.0,85.0
329,79.43541666666667,79.67083333333333,54.0,93.0
330,79.43541666666667,79.76458333333333,59.0,96.0
331,79.43541666666667,80.02291666666666,63.0,96.0
332,79.93541666666667,80.24791666666667,59.0,87.0
333,80.18541666666667,80.375,54.0,92.0
334,79.43541666666667,80.43958333333333,47.0,97.0
335,80.43541666666667,80.8125,36.0,100.0
336,80.43541666666667,80.82916666666667,48.0,92.0
337,80.43541666666667,80.85625,60.0,88.0
338,80.93541666666667,81.41458333333333,60.0,87.0
339,80.93541666666667,81.41666666666667,43.0,95.0
340,80.93541666666667,81.42291666666667,36.0,102.0
341,80.93541666666667,81.43125,48.0,94.0
342,81.68541666666667,81.825,48.0,93.0
343,81.68541666666667,81.84791666666666,36.0,100.0
344,81.68541666666667,81.85,60.0,91.0
345,81.68541666666667,81.8625,43.0,95.0
346,82.18541666666667,82.81458333333333,50.0,91.0
347,82.18541666666667,83.03958333333333,62.0,91.0
348,82.93541666666667,83.22708333333333,50.0,82.0
349,83.18541666666667,83.32291666666667,54.0,81.0
350,82.68541666666667,83.6625,45.0,87.0
351,82.18541666666667,83.78333333333333,38.0,105.0
352,83.43541666666667,84.25,50.0,90.0
353,83.43541666666667,84.25208333333333,54.0,96.0
354,83.43541666666667,84.28333333333333,62.0,93.0
355,84.93541666666667,85.95625,52.0,87.0
356,85.18541666666667,85.99166666666666,59.0,87.0
357,84.43541666666667,85.99583333333334,40.0,93.0
358,84.68541666666667,86.02083333333333,47.0,83.0
359,86.43541666666667,86.7125,54.0,85.0
360,86.43541666666667,87.0125,59.0,84.0
361,87.18541666666667,87.57916666666667,63.0,98.0
362,86.93541666666667,87.60416666666667,54.0,91.0
363,87.68541666666667,87.98333333333333,59.0,87.0
364,86.43541666666667,88.08958333333334,47.0,92.0
365,86.68541666666667,88.12916666666666,51.0,80.0
366,87.93541666666667,88.24375,54.0,74.0
367,88.18541666666667,88.50208333333333,59.0,80.0
368,88.43541666666667,88.7375,61.0,85.0
369,89.18541666666667,89.48125,66.0,84.0
370,88.43541666666667,89.92291666666667,49.0,94.0
371,88.68541666666667,90.05625,56.0,83.0
372,88.93541666666667,90.175,61.0,83.0
373,89.18541666666667,90.22083333333333,64.0,85.0
374,90.43541666666667,90.65625,56.0,80.0
375,90.43541666666667,90.98333333333333,59.0,83.0
376,91.18541666666667,91.73958333333333,59.0,89.0
377,90.93541666666667,91.76041666666667,54.0,91.0
378,90.43541666666667,91.85833333333333,44.0,91.0
379,90.68541666666667,91.86458333333333,51.0,85.0
380,91.68541666666667,92.32916666666667,63.0,91.0
381,91.93541666666667,92.35,54.0,79.0
382,92.43541666666667,92.95,61.0,91.0
383,92.93541666666667,93.83541666666666,57.0,82.0
384,92.68541666666667,94.10833333333333,52.0,77.0
385,92.43541666666667,94.16666666666667,45.0,81.0
386,93.18541666666667,94.27916666666667,64.0,91.0
387,94.18541666666667,94.34166666666667,57.0,86.0
388,93.93541666666667,94.37291666666667,61.0,82.0
389,94.43541666666667,95.2375,56.0,82.0
390,94.93541666666667,95.62916666666666,59.0,86.0
391,94.43541666666667,96.0375,44.0,91.0
392,94.68541666666667,96.09583333333333,52.0,80.0
393,95.93541666666667,96.1375,59.0,78.0
394,96.18541666666667,96.2875,56.0,74.0
395,95.18541666666667,96.35208333333333,64.0,91.0
396,96.43541666666667,96.7,54.0,80.0
397,96.43541666666667,96.95625,57.0,79.0
398,96.93541666666667,97.92916666666666,54.0,85.0
399,97.18541666666667,98.00625,57.0,81.0
400,96.43541666666667,98.07083333333333,61.0,82.0
401,96.68541666666667,98.22708333333333,49.0,79.0
402,96.43541666666667,98.24375,42.0,92.0
403,98.43541666666667,98.67083333333333,54.0,88.0
404,98.43541666666667,98.99375,59.0,89.0
405,98.93541666666667,99.05,54.0,96.0
406,98.68541666666667,99.33958333333334,51.0,85.0
407,99.18541666666667,99.48333333333333,54.0,100.0
408,99.18541666666667,99.55833333333334,59.0,100.0
409,99.18541666666667,99.68541666666667,63.0,100.0
410,99.68541666666667,99.8625,54.0,94.0
411,99.93541666666667,100.25833333333333,59.0,96.0
412,100.18541666666667,100.39791666666666,54.0,87.0
413,99.43541666666667,100.48333333333333,51.0,86.0
414,98.43541666666667,100.49791666666667,47.0,96.0
415,100.43541666666667,100.76458333333333,52.0,92.0
416,100.43541666666667,100.83958333333334,56.0,91.0
417,100.93541666666667,101.27916666666667,52.0,82.0
418,101.18541666666667,101.32083333333333,56.0,87.0
419,101.18541666666667,101.34166666666667,59.0,83.0
420,100.43541666666667,101.37708333333333,40.0,97.0
421,100.93541666666667,101.3875,47.0,92.0
422,101.43541666666667,101.47291666666666,52.0,82.0
423,101.43541666666667,101.94166666666666,56.0,91.0
424,101.43541666666667,102.06666666666666,40.0,93.0
425,101.43541666666667,102.16458333333333,59.0,91.0
426,101.93541666666667,102.17916666666666,52.0,86.0
427,101.43541666666667,102.30208333333333,64.0,96.0
428,102.43541666666667,102.58125,54.0,91.0
429,102.43541666666667,102.96875,59.0,93.0
430,102.93541666666667,103.2625,54.0,92.0
431,102.43541666666667,103.32083333333333,47.0,95.0
432,103.18541666666667,103.33125,59.0,92.0
433,103.43541666666667,103.61666666666666,54.0,92.0
434,103.43541666666667,103.95,47.0,96.0
435,103.43541666666667,103.97916666666667,63.0,93.0
436,103.93541666666667,104.05,54.0,78.0
437,103.43541666666667,104.05416666666666,59.0,92.0
438,104.43541666666667,104.67083333333333,56.0,91.0
439,104.43541666666667,104.93958333333333,61.0,91.0
440,104.93541666666667,105.26041666666667,56.0,83.0
441,104.43541666666667,105.3125,49.0,97.0
442,105.18541666666667,105.32916666666667,61.0,75.0
443,105.43541666666667,105.71041666666666,56.0,88.0
444,105.43541666666667,105.91666666666667,49.0,92.0
445,105.43541666666667,105.92291666666667,61.0,92.0
446,105.43541666666667,106.06041666666667,64.0,91.0
447,105.93541666666667,106.27291666666666,56.0,92.0
448,106.18541666666667,106.35416666666667,61.0,83.0
449,106.43541666666667,106.675,54.0,91.0
450,106.43541666666667,106.92708333333333,59.0,91.0
451,106.93541666666667,107.20625,54.0,88.0
452,106.43541666666667,107.29375,47.0,93.0
453,107.18541666666667,107.29375,59.0,81.0
454,107.43541666666667,107.68541666666667,54.0,91.0
455,107.43541666666667,107.70833333333333,47.0,92.0
456,107.43541666666667,107.7375,63.0,96.0
457,107.68541666666667,107.94791666666667,59.0,92.0
458,107.93541666666667,108.25208333333333,54.0,92.0
459,108.43541666666667,108.74166666666666,57.0,92.0
460,108.93541666666667,109.25208333333333,57.0,93.0
461,108.68541666666667,109.3125,52.0,89.0
462,108.43541666666667,109.31875,45.0,95.0
463,109.18541666666667,109.32083333333333,61.0,87.0
464,109.43541666666667,109.66458333333333,57.0,91.0
465,109.43541666666667,109.86041666666667,45.0,92.0
466,109.43541666666667,109.96666666666667,61.0,91.0
467,109.43541666666667,110.10208333333333,52.0,90.0
468,109.93541666666667,110.25,57.0,97.0
469,109.43541666666667,110.26875,64.0,91.0
470,110.18541666666667,110.40416666666667,61.0,83.0
471,110.43541666666667,110.62708333333333,56.0,86.0
472,110.43541666666667,110.80833333333334,59.0,93.0
473,110.68541666666667,110.95625,56.0,75.0
474,110.93541666666667,111.27291666666666,59.0,91.0
475,111.18541666666667,111.33125,56.0,82.0
476,111.43541666666667,111.64583333333333,56.0,91.0
477,111.43541666666667,111.8,59.0,92.0
478,111.43541666666667,111.81666666666666,64.0,92.0
479,110.43541666666667,112.06041666666667,44.0,90.0
480,111.93541666666667,112.23333333333333,56.0,92.0
481,112.18541666666667,112.29375,59.0,87.0
482,112.43541666666667,112.72708333333333,54.0,87.0
483,112.43541666666667,112.78541666666666,57.0,86.0
484,112.93541666666667,113.21041666666666,54.0,87.0
485,113.18541666666667,113.3,57.0,86.0
486,112.68541666666667,113.67708333333333,49.0,88.0
487,113.43541666666667,113.76041666666667,54.0,102.0
488,113.43541666666667,113.76458333333333,57.0,98.0
489,113.43541666666667,113.79166666666667,66.0,93.0
490,113.93541666666667,114.00416666666666,54.0,86.0
491,112.43541666666667,114.03958333333333,42.0,92.0
492,113.93541666666667,114.1625,49.0,91.0
493,113.93541666666667,114.20416666666667,57.0,94.0
494,114.18541666666667,114.30416666666666,54.0,91.0
495,113.93541666666667,114.30833333333334,61.0,94.0
496,114.43541666666667,114.58749999999999,54.0,93.0
497,114.43541666666667,114.71666666666667,59.0,92.0
498,114.68541666666667,114.87291666666667,54.0,86.0
499,114.93541666666667,115.09166666666667,59.0,81.0
500,114.43541666666667,115.22083333333333,47.0,100.0
501,115.18541666666667,115.34583333333333,54.0,85.0
502,115.43541666666667,115.67083333333333,54.0,93.0
503,115.43541666666667,115.76458333333333,59.0,96.0
504,115.43541666666667,116.02291666666666,63.0,96.0
505,115.93541666666667,116.24791666666667,59.0,87.0
506,116.18541666666667,116.375,54.0,92.0
507,115.43541666666667,116.43958333333333,47.0,97.0
508,116.43541666666667,116.76458333333333,52.0,92.0
509,116.43541666666667,116.83958333333334,56.0,91.0
510,116.93541666666667,117.27916666666667,52.0,82.0
511,117.18541666666667,117.32083333333333,56.0,87.0
512,117.18541666666667,117.34166666666667,59.0,83.0
513,116.43541666666667,117.37708333333333,40.0,97.0
514,116.93541666666667,117.3875,47.0,92.0
515,117.43541666666667,117.47291666666666,52.0,82.0
516,117.43541666666667,117.94166666666666,56.0,91.0
517,117.43541666666667,118.06666666666666,40.0,93.0
518,117.43541666666667,118.16458333333333,59.0,91.0
519,117.93541666666667,118.17916666666666,52.0,86.0
520,117.43541666666667,118.30208333333333,64.0,96.0
521,118.43541666666667,118.58125,54.0,91.0
522,118.43541666666667,118.96875,59.0,93.0
523,118.93541666666667,119.2625,54.0,92.0
524,118.43541666666667,119.32083333333333,47.0,95.0
525,119.18541666666667,119.33125,59.0,92.0
526,119.43541666666667,119.61666666666666,54.0,92.0
527,119.43541666666667,119.95,47.0,96.0
528,119.43541666666667,119.97916666666667,63.0,93.0
529,119.93541666666667,120.05,54.0,78.0
530,119.43541666666667,120.05416666666666,59.0,92.0
531,120.43541666666667,120.67083333333333,56.0,91.0
532,120.43541666666667,120.93958333333333,61.0,91.0
533,120.93541666666667,121.26041666666667,56.0,83.0
534,120.43541666666667,121.3125,49.0,97.0
535,121.18541666666667,121.32916666666667,61.0,75.0
536,121.43541666666667,121.71041666666666,56.0,88.0
537,121.43541666666667,121.91666666666667,49.0,92.0
538,121.43541666666667,121.92291666666667,61.0,92.0
539,121.43541666666667,122.06041666666667,64.0,91.0
540,121.93541666666667,122.27291666666666,56.0,92.0
541,122.18541666666667,122.35416666666667,61.0,83.0
542,122.43541666666667,122.675,54.0,91.0
543,122.43541666666667,122.92708333333333,59.0,91.0
544,122.93541666666667,123.20625,54.0,88.0
545,122.43541666666667,123.29375,47.0,93.0
546,123.18541666666667,123.29375,59.0,81.0
547,123.43541666666667,123.68541666666667,54.0,91.0
548,123.43541666666667,123.70833333333333,47.0,92.0
549,123.43541666666667,123.7375,63.0,96.0
550,123.68541666666667,123.94791666666667,59.0,92.0
551,123.93541666666667,124.25208333333333,54.0,92.0
552,124.43541666666667,124.74166666666666,57.0,92.0
553,124.93541666666667,125.25208333333333,57.0,93.0
554,124.68541666666667,125.3125,52.0,89.0
555,124.43541666666667,125.31875,45.0,95.0
556,125.18541666666667,125.32083333333333,61.0,87.0
557,125.43541666666667,125.66458333333333,57.0,91.0
558,125.43541666666667,125.86041666666667,45.0,92.0
559,125.43541666666667,125.96666666666667,61.0,91.0
560,125.43541666666667,126.10208333333333,52.0,90.0
561,125.93541666666667,126.25,57.0,97.0
562,125.43541666666667,126.26875,64.0,91.0
563,126.18541666666667,126.40416666666667,61.0,83.0
564,126.43541666666667,126.62708333333333,56.0,86.0
565,126.43541666666667,126.80833333333334,59.0,93.0
566,126.68541666666667,126.95625,56.0,75.0
567,126.93541666666667,127.27291666666666,59.0,91.0
568,127.18541666666667,127.33125,56.0,82.0
569,127.43541666666667,127.64583333333333,56.0,91.0
570,127.43541666666667,127.8,59.0,92.0
571,127.43541666666667,127.81666666666666,64.0,92.0
572,126.43541666666667,128.06041666666667,44.0,90.0
573,127.93541666666667,128.23333333333332,56.0,92.0
574,128.18541666666667,128.29375,59.0,87.0
575,128.43541666666667,128.72708333333333,54.0,87.0
576,128.43541666666667,128.78541666666666,57.0,86.0
577,128.93541666666667,129.21041666666667,54.0,87.0
578,129.18541666666667,129.3,57.0,86.0
579,128.68541666666667,129.67708333333334,49.0,88.0
580,129.43541666666667,129.76041666666666,54.0,102.0
581,129.43541666666667,129.76458333333332,57.0,98.0
582,129.43541666666667,129.79166666666666,66.0,93.0
583,129.93541666666667,130.00416666666666,54.0,86.0
584,128.43541666666667,130.03958333333333,42.0,92.0
585,129.93541666666667,130.1625,49.0,91.0
586,129.93541666666667,130.20416666666665,57.0,94.0
587,130.18541666666667,130.30416666666667,54.0,91.0
588,129.93541666666667,130.30833333333334,61.0,94.0
589,130.43541666666667,130.5875,54.0,93.0
590,130.43541666666667,130.71666666666667,59.0,92.0
591,130.68541666666667,130.87291666666667,54.0,86.0
592,130.93541666666667,131.09166666666667,59.0,81.0
593,130.43541666666667,131.22083333333333,47.0,100.0
594,131.18541666666667,131.34583333333333,54.0,85.0
595,131.43541666666667,131.67083333333332,54.0,93.0
596,131.43541666666667,131.76458333333332,59.0,96.0
597,131.43541666666667,132.02291666666667,63.0,96.0
598,131.93541666666667,132.24791666666667,59.0,87.0
599,132.18541666666667,132.375,54.0,92.0
600,131.43541666666667,132.43958333333333,47.0,97.0
601,132.43541666666667,132.80833333333334,60.0,90.0
602,132.43541666666667,132.8125,67.0,92.0
603,132.43541666666667,133.44166666666666,36.0,94.0
604,132.93541666666667,133.54583333333332,60.0,95.0
605,132.93541666666667,133.56875,67.0,93.0
606,133.68541666666667,133.77916666666667,36.0,91.0
607,133.68541666666667,133.80625,43.0,87.0
608,133.68541666666667,133.89375,60.0,92.0
609,133.68541666666667,133.90833333333333,67.0,93.0
610,134.43541666666667,134.5375,38.0,92.0
611,134.43541666666667,134.54583333333332,45.0,92.0
612,134.43541666666667,134.54583333333332,62.0,83.0
613,134.43541666666667,134.55,66.0,85.0
614,134.43541666666667,134.55833333333334,69.0,87.0
615,134.68541666666667,134.7875,45.0,92.0
616,134.68541666666667,134.78958333333333,62.0,83.0
617,134.68541666666667,134.79166666666666,38.0,94.0
618,134.68541666666667,134.80416666666667,69.0,87.0
619,134.68541666666667,134.80625,66.0,87.0
620,134.93541666666667,135.57916666666665,45.0,96.0
621,134.93541666666667,135.7375,62.0,95.0
622,134.93541666666667,135.78125,38.0,102.0
623,134.93541666666667,135.80416666666667,66.0,95.0
624,135.68541666666667,135.82708333333332,45.0,92.0
625,134.93541666666667,135.95,69.0,95.0
626,135.93541666666667,136.23541666666665,62.0,94.0
627,136.18541666666667,136.44166666666666,69.0,94.0
628,136.43541666666667,136.73541666666665,55.0,88.0
629,136.43541666666667,136.92916666666667,59.0,92.0
630,136.43541666666667,136.94791666666666,62.0,86.0
631,136.43541666666667,137.13125,43.0,105.0
632,136.93541666666667,137.30416666666667,55.0,96.0
633,136.68541666666667,137.475,50.0,89.0
634,137.18541666666667,137.96666666666667,62.0,97.0
635,137.68541666666667,138.13541666666666,50.0,95.0
636,137.43541666666667,138.26666666666665,42.0,96.0
637,137.93541666666667,138.2875,54.0,97.0
638,138.18541666666667,138.39375,62.0,91.0
639,138.43541666666667,138.69166666666666,52.0,91.0
640,138.43541666666667,138.77083333333334,55.0,100.0
641,138.93541666666667,139.07916666666665,52.0,92.0
642,138.68541666666667,139.2625,47.0,91.0
643,139.18541666666667,139.54375,64.0,92.0
644,139.18541666666667,139.54791666666665,55.0,97.0
645,139.18541666666667,139.56041666666667,59.0,100.0
646,139.18541666666667,139.56875,52.0,92.0
647,139.68541666666667,139.72916666666666,52.0,83.0
648,139.43541666666667,139.79791666666665,47.0,92.0
649,139.68541666666667,139.80833333333334,55.0,97.0
650,139.68541666666667,139.83333333333334,59.0,96.0
651,139.68541666666667,139.9,64.0,92.0
652,138.43541666666667,139.9875,40.0,97.0
653,139.93541666666667,140.09791666666666,47.0,92.0
654,140.18541666666667,140.28333333333333,40.0,92.0
655,140.43541666666667,140.8625,60.0,91.0
656,140.43541666666667,140.92083333333332,64.0,88.0
657,140.43541666666667,140.92083333333332,67.0,92.0
658,140.93541666666667,141.51875,43.0,78.0
659,140.43541666666667,141.7125,36.0,107.0
660,141.43541666666667,141.73333333333332,60.0,96.0
661,141.43541666666667,141.84375,64.0,98.0
662,141.43541666666667,141.89166666666665,72.0,88.0
663,141.68541666666667,141.94166666666666,43.0,96.0
664,141.43541666666667,141.99166666666667,67.0,98.0
665,141.93541666666667,142.26458333333332,60.0,100.0
666,142.18541666666667,142.28333333333333,64.0,84.0
667,142.43541666666667,142.7125,62.0,92.0
668,142.43541666666667,142.78541666666666,66.0,92.0
669,142.93541666666667,143.26458333333332,62.0,92.0
670,142.68541666666667,143.6125,45.0,91.0
671,142.43541666666667,143.75208333333333,38.0,108.0
672,143.43541666666667,143.77083333333334,62.0,100.0
673,143.68541666666667,143.89166666666665,45.0,83.0
674,143.43541666666667,143.89791666666667,66.0,96.0
675,143.93541666666667,144.03958333333333,38.0,95.0
676,143.43541666666667,144.29375,69.0,98.0
677,144.18541666666667,144.43125,62.0,94.0
678,144.43541666666667,144.6,35.0,102.0
679,145.43541666666667,145.56666666666666,59.0,102.0
680,145.18541666666667,145.80833333333334,54.0,89.0
681,145.68541666666667,145.99166666666667,59.0,96.0
682,145.68541666666667,146.00833333333333,66.0,94.0
683,146.18541666666667,146.24791666666667,59.0,68.0
684,144.93541666666667,146.29583333333332,47.0,93.0
685,145.93541666666667,146.31041666666667,54.0,90.0
686,146.18541666666667,146.33541666666667,63.0,91.0
687,146.43541666666667,146.75833333333333,59.0,91.0
688,146.43541666666667,146.79166666666666,63.0,95.0
689,146.43541666666667,146.8,66.0,91.0
690,146.43541666666667,146.86875,71.0,89.0
691,146.43541666666667,147.31666666666666,47.0,95.0
692,147.43541666666667,147.56041666666667,54.0,97.0
693,147.43541666666667,147.66458333333333,71.0,91.0
694,147.43541666666667,147.72291666666666,75.0,95.0
695,147.43541666666667,147.7375,78.0,93.0
696,148.18541666666667,148.40416666666667,71.0,93.0
697,147.43541666666667,148.43125,47.0,97.0
698,147.93541666666667,148.4375,54.0,91.0
699,148.43541666666667,148.76458333333332,52.0,92.0
700,148.43541666666667,148.83958333333334,56.0,91.0
701,148.93541666666667,149.27916666666667,52.0,82.0
702,149.18541666666667,149.32083333333333,56.0,87.0
703,149.18541666666667,149.34166666666667,59.0,83.0
704,148.43541666666667,149.37708333333333,40.0,97.0
705,148.93541666666667,149.3875,47.0,92.0
706,149.43541666666667,149.47291666666666,52.0,82.0
707,149.43541666666667,149.94166666666666,56.0,91.0
708,149.43541666666667,150.06666666666666,40.0,93.0
709,149.43541666666667,150.16458333333333,59.0,91.0
710,149.93541666666667,150.17916666666667,52.0,86.0
711,149.43541666666667,150.30208333333334,64.0,96.0
712,150.43541666666667,150.58125,54.0,91.0
713,150.43541666666667,150.96875,59.0,93.0
714,150.93541666666667,151.2625,54.0,92.0
715,150.43541666666667,151.32083333333333,47.0,95.0
716,151.18541666666667,151.33125,59.0,92.0
717,151.43541666666667,151.61666666666667,54.0,92.0
718,151.43541666666667,151.95,47.0,96.0
719,151.43541666666667,151.97916666666666,63.0,93.0
720,151.93541666666667,152.05,54.0,78.0
721,151.43541666666667,152.05416666666667,59.0,92.0
722,152.43541666666667,152.67083333333332,56.0,91.0
723,152.43541666666667,152.93958333333333,61.0,91.0
724,152.93541666666667,153.26041666666666,56.0,83.0
725,152.43541666666667,153.3125,49.0,97.0
726,153.18541666666667,153.32916666666665,61.0,75.0
727,153.43541666666667,153.71041666666667,56.0,88.0
728,153.43541666666667,153.91666666666666,49.0,92.0
729,153.43541666666667,153.92291666666665,61.0,92.0
730,153.43541666666667,154.06041666666667,64.0,91.0
731,153.93541666666667,154.27291666666667,56.0,92.0
732,154.18541666666667,154.35416666666666,61.0,83.0
733,154.43541666666667,154.675,54.0,91.0
734,154.43541666666667,154.92708333333334,59.0,91.0
735,154.93541666666667,155.20625,54.0,88.0
736,154.43541666666667,155.29375,47.0,93.0
737,155.18541666666667,155.29375,59.0,81.0
738,155.43541666666667,155.68541666666667,54.0,91.0
739,155.43541666666667,155.70833333333334,47.0,92.0
740,155.43541666666667,155.7375,63.0,96.0
741,155.68541666666667,155.94791666666666,59.0,92.0
742,155.93541666666667,156.25208333333333,54.0,92.0
743,156.43541666666667,156.74166666666667,57.0,92.0
744,156.93541666666667,157.25208333333333,57.0,93.0
745,156.68541666666667,157.3125,52.0,89.0
746,156.43541666666667,157.31875,45.0,95.0
747,157.18541666666667,157.32083333333333,61.0,87.0
748,157.43541666666667,157.66458333333333,57.0,91.0
749,157.43541666666667,157.86041666666665,45.0,92.0
750,157.43541666666667,157.96666666666667,61.0,91.0
751,157.43541666666667,158.10208333333333,52.0,90.0
752,157.93541666666667,158.25,57.0,97.0
753,157.43541666666667,158.26875,64.0,91.0
754,158.18541666666667,158.40416666666667,61.0,83.0
755,158.43541666666667,158.62708333333333,56.0,86.0
756,158.43541666666667,158.80833333333334,59.0,93.0
757,158.68541666666667,158.95625,56.0,75.0
758,158.93541666666667,159.27291666666667,59.0,91.0
759,159.18541666666667,159.33125,56.0,82.0
760,159.43541666666667,159.64583333333334,56.0,91.0
761,159.43541666666667,159.8,59.0,92.0
762,159.43541666666667,159.81666666666666,64.0,92.0
763,158.43541666666667,160.06041666666667,44.0,90.0
764,159.93541666666667,160.23333333333332,56.0,92.0
765,160.18541666666667,160.29375,59.0,87.0
766,160.43541666666667,160.72708333333333,54.0,87.0
767,160.43541666666667,160.78541666666666,57.0,86.0
768,160.93541666666667,161.21041666666667,54.0,87.0
769,161.18541666666667,161.3,57.0,86.0
770,160.68541666666667,161.67708333333334,49.0,88.0
771,161.43541666666667,161.76041666666666,54.0,102.0
772,161.43541666666667,161.76458333333332,57.0,98.0
773,161.43541666666667,161.79166666666666,66.0,93.0
774,161.93541666666667,162.00416666666666,54.0,86.0
775,160.43541666666667,162.03958333333333,42.0,92.0
776,161.93541666666667,162.1625,49.0,91.0
777,161.93541666666667,162.20416666666665,57.0,94.0
778,162.18541666666667,162.30416666666667,54.0,91.0
779,161.93541666666667,162.30833333333334,61.0,94.0
780,162.43541666666667,162.5875,54.0,93.0
781,162.43541666666667,162.71666666666667,59.0,92.0
782,162.68541666666667,162.87291666666667,54.0,86.0
783,162.93541666666667,163.09166666666667,59.0,81.0
784,162.43541666666667,163.22083333333333,47.0,100.0
785,163.18541666666667,163.34583333333333,54.0,85.0
786,163.43541666666667,163.67083333333332,54.0,93.0
787,163.43541666666667,163.76458333333332,59.0,96.0
788,163.43541666666667,164.02291666666667,63.0,96.0
789,163.93541666666667,164.24791666666667,59.0,87.0
790,164.18541666666667,164.375,54.0,92.0
791,163.43541666666667,164.43958333333333,47.0,97.0
792,164.43541666666667,164.76458333333332,52.0,92.0
793,164.43541666666667,164.83958333333334,56.0,91.0
794,164.93541666666667,165.27916666666667,52.0,82.0
795,165.18541666666667,165.32083333333333,56.0,87.0
796,165.18541666666667,165.34166666666667,59.0,83.0
797,164.43541666666667,165.37708333333333,40.0,97.0
798,164.93541666666667,165.3875,47.0,92.0
799,165.43541666666667,165.47291666666666,52.0,82.0
800,165.43541666666667,165.94166666666666,56.0,91.0
801,165.43541666666667,166.06666666666666,40.0,93.0
802,165.43541666666667,166.16458333333333,59.0,91.0
803,165.93541666666667,166.17916666666667,52.0,86.0
804,165.43541666666667,166.30208333333334,64.0,96.0
805,166.43541666666667,166.58125,54.0,91.0
806,166.43541666666667,166.96875,59.0,93.0
807,166.93541666666667,167.2625,54.0,92.0
808,166.43541666666667,167.32083333333333,47.0,95.0
809,167.18541666666667,167.33125,59.0,92.0
810,167.43541666666667,167.61666666666667,54.0,92.0
811,167.43541666666667,167.95,47.0,96.0
812,167.43541666666667,167.97916666666666,63.0,93.0
813,167.93541666666667,168.05,54.0,78.0
814,167.43541666666667,168.05416666666667,59.0,92.0
815,168.43541666666667,168.67083333333332,56.0,91.0
816,168.43541666666667,168.93958333333333,61.0,91.0
817,168.93541666666667,169.26041666666666,56.0,83.0
818,168.43541666666667,169.3125,49.0,97.0
819,169.18541666666667,169.32916666666665,61.0,75.0
820,169.43541666666667,169.71041666666667,56.0,88.0
821,169.43541666666667,169.91666666666666,49.0,92.0
822,169.43541666666667,169.92291666666665,61.0,92.0
823,169.43541666666667,170.06041666666667,64.0,91.0
824,169.93541666666667,170.27291666666667,56.0,92.0
825,170.18541666666667,170.35416666666666,61.0,83.0
826,170.43541666666667,170.675,54.0,91.0
827,170.43541666666667,170.92708333333334,59.0,91.0
828,170.93541666666667,171.20625,54.0,88.0
829,170.43541666666667,171.29375,47.0,93.0
830,171.18541666666667,171.29375,59.0,81.0
831,171.43541666666667,171.68541666666667,54.0,91.0
832,171.43541666666667,171.70833333333334,47.0,92.0
833,171.43541666666667,171.7375,63.0,96.0
834,171.68541666666667,171.94791666666666,59.0,92.0
835,171.93541666666667,172.25208333333333,54.0,92.0
836,172.43541666666667,172.74166666666667,57.0,92.0
837,172.93541666666667,173.25208333333333,57.0,93.0
838,172.68541666666667,173.3125,52.0,89.0
839,172.43541666666667,173.31875,45.0,95.0
840,173.18541666666667,173.32083333333333,61.0,87.0
841,173.43541666666667,173.66458333333333,57.0,91.0
842,173.43541666666667,173.86041666666665,45.0,92.0
843,173.43541666666667,173.96666666666667,61.0,91.0
844,173.43541666666667,174.10208333333333,52.0,90.0
845,173.93541666666667,174.25,57.0,97.0
846,173.43541666666667,174.26875,64.0,91.0
847,174.18541666666667,174.40416666666667,61.0,83.0
848,174.43541666666667,174.62708333333333,56.0,86.0
849,174.43541666666667,174.80833333333334,59.0,93.0
850,174.68541666666667,174.95625,56.0,75.0
851,174.93541666666667,175.27291666666667,59.0,91.0
852,175.18541666666667,175.33125,56.0,82.0
853,175.43541666666667,175.64583333333334,56.0,91.0
854,175.43541666666667,175.8,59.0,92.0
855,175.43541666666667,175.81666666666666,64.0,92.0
856,174.43541666666667,176.06041666666667,44.0,90.0
857,175.93541666666667,176.23333333333332,56.0,92.0
858,176.18541666666667,176.29375,59.0,87.0
859,176.43541666666667,176.72708333333333,54.0,87.0
860,176.43541666666667,176.78541666666666,57.0,86.0
861,176.93541666666667,177.21041666666667,54.0,87.0
862,177.18541666666667,177.3,57.0,86.0
863,176.68541666666667,177.67708333333334,49.0,88.0
864,177.43541666666667,177.76041666666666,54.0,102.0
865,177.43541666666667,177.76458333333332,57.0,98.0
866,177.43541666666667,177.79166666666666,66.0,93.0
867,177.93541666666667,178.00416666666666,54.0,86.0
868,176.43541666666667,178.03958333333333,42.0,92.0
869,177.93541666666667,178.1625,49.0,91.0
870,177.93541666666667,178.20416666666665,57.0,94.0
871,178.18541666666667,178.30416666666667,54.0,91.0
872,177.93541666666667,178.30833333333334,61.0,94.0
873,178.43541666666667,178.5875,54.0,93.0
874,178.43541666666667,178.71666666666667,59.0,92.0
875,178.68541666666667,178.87291666666667,54.0,86.0
876,178.93541666666667,179.09166666666667,59.0,81.0
877,178.43541666666667,179.22083333333333,47.0,100.0
878,179.18541666666667,179.34583333333333,54.0,85.0
879,179.43541666666667,179.67083333333332,54.0,93.0
880,179.43541666666667,179.76458333333332,59.0,96.0
881,179.43541666666667,180.02291666666667,63.0,96.0
882,179.93541666666667,180.24791666666667,59.0,87.0
883,180.18541666666667,180.375,54.0,92.0
884,179.43541666666667,180.43958333333333,47.0,97.0
885,180.43541666666667,180.99375,56.0,89.0
886,180.93541666666667,181.10208333333333,52.0,85.0
887,180.43541666666667,182.25,40.0,92.0
888,180.68541666666667,182.27083333333334,47.0,80.0
889,181.18541666666667,182.59166666666667,52.0,89.0
890,181.18541666666667,182.70208333333332,59.0,86.0
891,182.93541666666667,183.16041666666666,54.0,91.0
892,182.68541666666667,183.90208333333334,51.0,86.0
893,182.43541666666667,183.92291666666665,47.0,84.0
894,183.18541666666667,184.05,54.0,70.0
895,183.18541666666667,184.1,59.0,92.0
896,184.43541666666667,186.21875,45.0,93.0
897,184.68541666666667,186.4875,52.0,84.0
898,184.93541666666667,186.54166666666666,57.0,77.0
899,185.18541666666667,186.56041666666667,64.0,84.0
900,186.93541666666667,188.02708333333334,57.0,88.0
901,186.43541666666667,188.03125,45.0,94.0
902,187.18541666666667,188.0375,60.0,98.0
903,186.68541666666667,188.07708333333332,52.0,83.0
904,188.43541666666667,188.93125,56.0,85.0
905,188.43541666666667,190.18333333333334,40.0,92.0
906,188.68541666666667,190.26041666666666,47.0,83.0
907,188.93541666666667,190.575,52.0,92.0
908,189.18541666666667,190.66458333333333,59.0,92.0
909,189.18541666666667,190.68125,56.0,93.0
910,190.43541666666667,192.07291666666666,40.0,86.0
911,190.68541666666667,192.10416666666666,47.0,80.0
912,191.18541666666667,192.44375,56.0,81.0
913,190.93541666666667,192.44583333333333,52.0,87.0
914,191.18541666666667,192.525,59.0,81.0
915,191.68541666666667,192.7,63.0,92.0
916,192.93541666666667,193.07083333333333,57.0,78.0
917,192.43541666666667,194.11666666666667,45.0,93.0
918,192.68541666666667,194.27916666666667,52.0,80.0
919,193.18541666666667,194.76041666666666,57.0,90.0
920,193.18541666666667,194.975,64.0,90.0
921,194.93541666666667,195.1125,57.0,93.0
922,194.68541666666667,196.08541666666667,52.0,87.0
923,194.43541666666667,196.13125,45.0,84.0
924,195.18541666666667,196.38125,57.0,77.0
925,195.18541666666667,196.48958333333334,64.0,91.0
926,196.43541666666667,196.78958333333333,40.0,91.0
927,196.68541666666667,196.89791666666667,47.0,87.0
928,196.93541666666667,197.32083333333333,64.0,84.0
929,197.18541666666667,197.67708333333334,66.0,78.0
930,197.43541666666667,199.37708333333333,59.0,53.0
931,197.18541666666667,199.60625,52.0,78.0
932,197.43541666666667,199.84583333333333,68.0,71.0
933,197.68541666666667,199.90208333333334,71.0,50.0
