,start,end,pitch,velocity
0,35.407260425000004,35.87903465,70.0,95.0
1,35.891131425000005,36.245970158333336,75.0,86.0
2,36.375002425000005,36.572583083333335,75.0,93.0
3,36.616937925,36.834679875,73.0,83.0
4,36.858873425,37.30242184166667,75.0,84.0
5,37.342744425,37.8326638125,70.0,95.0
6,37.826615425,38.169357383333335,77.0,83.0
7,38.310486425,38.48387353333334,77.0,86.0
8,38.552421925000004,38.72379290416667,75.0,86.0
9,38.794357425,39.21976067916667,77.0,86.0
10,39.278228425,39.62500264166667,78.0,90.0
11,39.762099425,40.12903493333334,78.0,83.0
12,40.245970425,40.512099475,78.0,82.0
13,40.487905925,40.62097045,77.0,94.0
14,40.729841425000004,41.1834704875,75.0,86.0
15,41.213712425000004,42.87903511666667,73.0,95.0
16,43.149196425,43.572583550000004,70.0,101.0
17,43.633067425,43.975809383333335,75.0,86.0
18,44.116938425,44.30040617916667,75.0,94.0
19,44.358873925000005,44.562502970833336,73.0,84.0
20,44.600809425,45.06250300416667,75.0,95.0
21,45.084680425,45.63105142916667,70.0,101.0
22,45.568551425,45.89516435,77.0,94.0
23,46.052422425,46.221777275,77.0,103.0
24,46.294357925,46.4576643875,75.0,86.0
25,46.536293425000004,46.91935796666667,77.0,105.0
26,47.020164425000004,47.34274509166667,78.0,95.0
27,47.504035425000005,47.836696737500006,78.0,84.0
28,47.987906425000006,48.22177740833334,78.0,84.0
29,48.229841925,48.393148387500005,77.0,83.0
30,48.471777425,48.89718067916667,78.0,86.0
31,48.955648425,50.649196925000005,80.0,94.0
32,50.891132425,51.205648575000005,80.0,98.0
33,51.375003425,51.69153570416667,80.0,90.0
34,51.858874425,52.05443895416667,80.0,91.0
35,52.100809925,52.415326075,78.0,83.0
36,52.342745425000004,52.522180920833335,80.0,86.0
37,52.584680925,52.91330997916667,82.0,93.0
38,52.826616425000005,53.76008422916667,80.0,94.0
39,53.794358425000006,54.80645526666667,75.0,104.0
40,54.762100425,55.08468109166667,80.0,76.0
41,55.245971425,55.637100483333334,82.0,91.0
42,55.729842425,55.93750372916667,75.0,95.0
43,55.971777925000005,56.225810200000005,73.0,86.0
44,56.213713425,56.65121345416667,75.0,91.0
45,56.697584425,58.55645551666667,70.0,101.0
46,58.633068425000005,59.34274589166667,68.0,98.0
47,59.358874925,60.532262100000004,75.0,103.0
48,60.568552425,61.06653632916667,73.0,101.0
49,61.052423425,61.96774606666667,77.0,98.0
50,62.020165425,62.22782672916667,75.0,90.0
51,62.262100925000006,62.56855255833334,73.0,93.0
52,62.504036425,66.02823020833334,75.0,94.0
53,66.375004425,66.8891173625,70.0,94.0
54,66.85887542500001,67.23589157916668,75.0,95.0
55,67.342746425,67.55242385833334,75.0,93.0
56,67.584681925,67.84274645833334,73.0,90.0
57,67.82661742500001,68.29435939166667,75.0,98.0
58,68.310488425,68.8064562,70.0,95.0
59,68.79435942500001,69.14113364166667,77.0,103.0
60,69.278230425,69.45161753333333,77.0,98.0
61,69.520165925,69.80040787916667,75.0,86.0
62,69.762101425,70.11089177083333,77.0,103.0
63,70.245972425,70.6028272875,78.0,93.0
64,70.729843425,71.05242409166667,78.0,90.0
65,71.213714425,71.43347250416667,78.0,86.0
66,71.455649925,71.62097251666667,77.0,101.0
67,71.697585425,72.14718222916667,75.0,93.0
68,72.18145642500001,74.020166225,73.0,100.0
69,74.11694042500001,74.649198525,70.0,103.0
70,74.600811425,74.99597274166668,75.0,84.0
71,75.084682425,75.27016630833333,75.0,95.0
72,75.32661792500001,75.57863407083333,73.0,84.0
73,75.568553425,75.98992442083333,75.0,91.0
74,76.052424425,76.54637607083333,70.0,103.0
75,76.536295425,76.87702125416666,77.0,105.0
76,77.020166425,77.20565030833333,77.0,98.0
77,77.26210192500001,77.54436000833334,75.0,86.0
78,77.504037425,77.84476325416666,77.0,103.0
79,77.987908425,78.30040844583334,78.0,93.0
80,78.47177942500001,78.78427944583333,78.0,86.0
81,78.955650425,79.14516656666667,78.0,93.0
82,79.197585925,79.35282787083334,77.0,86.0
83,79.43952142500001,79.8326666125,78.0,95.0
84,79.923392425,81.67137641250001,80.0,101.0
85,81.858876425,82.16936031666667,80.0,98.0
86,82.342747425,82.65323131666668,80.0,94.0
87,82.826618425,83.03629585833333,80.0,86.0
88,83.068553925,83.37500555833334,78.0,83.0
89,83.310489425,83.52621524583334,80.0,93.0
90,83.55242492500001,83.8608926875,82.0,95.0
91,83.79436042500001,84.7318604875,80.0,98.0
92,84.76210242500001,85.802425075,75.0,104.0
93,85.72984442500001,86.04839283333334,82.0,90.0
94,86.213715425,86.61492512916666,82.0,99.0
95,86.697586425,86.91331224583334,75.0,93.0
96,86.93952192500001,87.19153807083333,73.0,91.0
97,87.181457425,87.65726390833333,75.0,95.0
98,87.665328425,89.49597370833334,70.0,100.0
99,89.600812425,90.36089312083334,68.0,104.0
100,90.326618925,91.50202222916667,75.0,101.0
101,91.536296425,92.01008677916667,73.0,90.0
102,92.02016742500001,92.8548449,77.0,105.0
103,92.987909425,93.1633126625,75.0,94.0
104,93.22984492500001,93.5020223625,73.0,90.0
105,93.471780425,97.06855485833334,75.0,95.0
106,97.34274842500001,98.73790980833334,78.0,93.0
107,98.794361425,99.2237969375,80.0,98.0
108,99.278232425,100.99029268125,82.0,98.0
109,101.155065425,101.6510332,83.0,98.0
110,101.638936425,102.07240419583334,82.0,93.0
111,102.122807425,102.60264616666667,80.0,95.0
112,102.606678425,103.06837200416668,83.0,94.0
113,103.090549425,104.83469005,82.0,98.0
114,104.965549425,105.45929942500001,78.0,84.0
115,105.465549425,105.58846609166667,75.0,84.0
116,105.965549425,106.72966237916667,75.0,91.0
117,106.449420425,106.75587205833334,78.0,83.0
118,106.69135592500001,107.24377531666667,80.0,83.0
119,107.417162425,107.77603341666668,80.0,90.0
120,107.90103342500001,108.31635603333334,80.0,93.0
121,108.384904425,108.89762158125001,73.0,90.0
122,108.86877542500001,110.30916016041668,78.0,83.0
123,110.253390925,110.70339096250001,80.0,91.0
124,110.71492942500001,112.44244196250001,82.0,91.0
125,112.60574842500002,113.92429690000002,78.0,86.0
126,114.05736142500001,114.43437757916668,80.0,93.0
127,114.54123242500002,116.23974371666668,82.0,90.0
128,116.43205142500003,116.81895620625002,83.0,86.0
129,116.90824192500003,117.36657528125002,82.0,93.0
130,117.38443242500003,117.8526864166667,80.0,90.0
131,117.86062292500003,118.27927373958336,83.0,93.0
132,118.33681342500003,120.0142328916667,82.0,91.0
133,120.27229742500003,120.7400393916667,78.0,84.0
134,120.75616842500003,121.08278135000003,75.0,93.0
135,121.24003942500003,121.80052333333336,75.0,84.0
136,121.72391042500003,121.96987818333336,78.0,81.0
137,121.96382979583336,122.56520330000004,80.0,80.0
138,122.67653142500004,122.99879705000004,80.0,84.0
139,123.14528142500004,123.54762517500004,80.0,84.0
140,123.61403142500004,124.1089911041667,73.0,90.0
141,124.08278142500004,125.2642331166667,78.0,84.0
142,125.53439442500003,126.31262028333337,80.0,91.0
143,126.50213642500003,127.00213645833337,73.0,90.0
144,126.98600742500004,127.31060422083337,77.0,84.0
145,127.46987842500003,127.74810425000004,75.0,76.0
146,127.71181392500003,128.01525736458336,73.0,76.0
147,127.95374942500004,129.37041616250005,75.0,80.0
148,158.35820142500006,158.84570142500007,70.0,95.0
149,158.85820142500006,159.22486809166674,75.0,86.0
150,159.35820142500006,159.55578208333338,75.0,93.0
151,159.60013692500007,159.81787887500005,73.0,83.0
152,159.84207242500005,160.28562084166674,75.0,84.0
153,160.32594342500005,160.81586281250006,70.0,95.0
154,160.80981442500007,161.1525563833334,77.0,83.0
155,161.29368542500006,161.4670725333334,77.0,86.0
156,161.53562092500007,161.70699190416673,75.0,86.0
157,161.77755642500006,162.20295967916672,77.0,86.0
158,162.26142742500005,162.60820164166674,78.0,90.0
159,162.74529842500007,163.11223393333339,78.0,83.0
160,163.22916942500007,163.49529847500006,78.0,82.0
161,163.47110492500005,163.60416945000006,77.0,94.0
162,163.71304042500006,164.16666948750006,75.0,86.0
163,164.19691142500005,165.86223411666674,73.0,95.0
164,166.13239542500006,166.55578255000006,70.0,101.0
165,166.61626642500005,166.95900838333338,75.0,86.0
166,167.10013742500007,167.28360517916673,75.0,94.0
167,167.34207292500005,167.5457019708334,73.0,84.0
168,167.58400842500006,168.04570200416674,75.0,95.0
169,168.06787942500006,168.61425042916673,70.0,101.0
170,168.55175042500005,168.87836335000006,77.0,94.0
171,169.03562142500007,169.20497627500006,77.0,103.0
172,169.27755692500006,169.44086338750006,75.0,86.0
173,169.51949242500007,169.90255696666674,77.0,105.0
174,170.00336342500006,170.32594409166674,78.0,95.0
175,170.48723442500005,170.81989573750008,78.0,84.0
176,170.97110542500008,171.2049764083334,78.0,84.0
177,171.21304092500006,171.37634738750006,77.0,83.0
178,171.45497642500007,171.88037967916674,78.0,86.0
179,171.93884742500006,173.63239592500005,80.0,94.0
180,173.87433142500007,174.18884757500007,80.0,98.0
181,174.35820242500006,174.67473470416672,80.0,90.0
182,174.84207342500005,175.03763795416674,80.0,91.0
183,175.08400892500006,175.39852507500007,78.0,83.0
184,175.32594442500007,175.5053799208334,80.0,86.0
185,175.56787992500006,175.89650897916673,82.0,93.0
186,175.80981542500007,176.74328322916674,80.0,94.0
187,176.77755742500005,177.78965426666673,75.0,104.0
188,177.74529942500007,178.06788009166672,80.0,76.0
189,178.22917042500006,178.62029948333338,82.0,91.0
190,178.71304142500006,178.92070272916672,75.0,95.0
191,178.95497692500007,179.20900920000005,73.0,86.0
192,179.19691242500005,179.63441245416672,75.0,91.0
193,179.68078342500007,181.53965451666673,70.0,101.0
194,181.61626742500005,182.08400939166674,68.0,98.0
195,182.09005777916673,183.51546110000007,75.0,103.0
196,183.55175142500008,184.04973532916674,73.0,101.0
197,184.03562242500007,184.95094506666672,77.0,98.0
198,185.00336442500006,185.21102572916672,75.0,90.0
199,185.24529992500007,185.5517515583334,73.0,93.0
200,185.48723542500005,189.0114292083334,75.0,94.0
201,189.35820342500006,189.87231636250007,70.0,94.0
202,189.84207442500008,190.21909057916673,75.0,95.0
203,190.32594542500007,190.5356228583334,75.0,93.0
204,190.56788092500005,190.8259454583334,73.0,90.0
205,190.80981642500007,191.27755839166673,75.0,98.0
206,191.29368742500006,191.78965520000006,70.0,95.0
207,191.77755842500005,192.12433264166674,77.0,103.0
208,192.26142942500007,192.4348165333334,77.0,98.0
209,192.50336492500006,192.7836068791667,75.0,86.0
210,192.74530042500007,193.0940907708334,77.0,103.0
211,193.22917142500006,193.58602628750006,78.0,93.0
212,193.71304242500005,194.03562309166674,78.0,90.0
213,194.19691342500005,194.41667150416674,78.0,86.0
214,194.43884892500006,194.60417151666672,77.0,101.0
215,194.68078442500007,195.13038122916674,75.0,93.0
216,195.16465542500006,197.00336522500007,73.0,100.0
217,197.10013942500007,197.63239752500007,70.0,103.0
218,197.58401042500006,197.97917174166673,75.0,84.0
219,198.06788142500005,198.2533653083334,75.0,95.0
220,198.30981692500006,198.5618330708334,73.0,84.0
221,198.55175242500007,198.9731234208334,75.0,91.0
222,199.03562342500007,199.5295750708334,70.0,103.0
223,199.51949442500006,199.86022025416673,77.0,105.0
224,200.00336542500006,200.1888493083334,77.0,98.0
225,200.24530092500007,200.5275590083334,75.0,86.0
226,200.48723642500005,200.82796225416672,77.0,103.0
227,200.97110742500007,201.2836074458334,78.0,93.0
228,201.45497842500006,201.7674784458334,78.0,86.0
229,201.93884942500006,202.12836556666673,78.0,93.0
230,202.18078492500007,202.3360268708334,77.0,86.0
231,202.42272042500008,202.81586561250006,78.0,95.0
232,202.90659142500007,204.65457541250007,80.0,101.0
233,204.84207542500008,205.15255931666672,80.0,98.0
234,205.32594642500007,205.63643031666675,80.0,94.0
235,205.80981742500006,206.0194948583334,80.0,86.0
236,206.05175292500007,206.3582045583334,78.0,83.0
237,206.29368842500006,206.5094142458334,80.0,93.0
238,206.53562392500007,206.84409168750005,82.0,95.0
239,206.77755942500005,207.71505948750007,80.0,98.0
240,207.74530142500006,208.78562407500007,75.0,104.0
241,208.71304342500008,209.03159183333338,82.0,90.0
242,209.19691442500007,209.59812412916673,82.0,99.0
243,209.68078542500007,209.89651124583338,75.0,93.0
244,209.92272092500008,210.1747370708334,73.0,91.0
245,210.16465642500006,210.6404629083334,75.0,95.0
246,210.64852742500005,212.4791727083334,70.0,100.0
247,212.58401142500006,213.3440921208334,68.0,104.0
248,213.30981792500006,214.48522122916674,75.0,101.0
249,214.51949542500006,214.99328577916674,73.0,90.0
250,215.00336642500008,215.83804390000006,77.0,105.0
251,215.97110842500007,216.14651166250007,75.0,94.0
252,216.21304392500008,216.48522136250006,73.0,90.0
253,216.45497942500006,220.0870181583334,75.0,95.0
254,220.37515342500006,221.74816936666673,78.0,93.0
255,221.80372492500007,222.22634399375008,80.0,98.0
256,222.27991542500007,224.01205836875008,82.0,98.0
257,224.18467742500007,224.65775438750006,83.0,98.0
258,224.64621592500006,225.05967749791674,82.0,93.0
259,225.10775442500008,225.57997667083342,80.0,95.0
260,225.58394492500008,226.0383100270834,83.0,94.0
261,226.06013542500008,227.86053877083341,82.0,98.0
262,227.9956194250001,228.46585754375008,78.0,84.0
263,228.4718099250001,228.58887342291675,75.0,84.0
264,228.9480004250001,229.6999845895834,75.0,91.0
265,229.4241909250001,229.72577824166675,78.0,83.0
266,229.66228617500008,230.2059369958334,80.0,83.0
267,230.3765719250001,230.72974654583342,80.0,90.0
268,230.8527624250001,231.26149260416676,80.0,93.0
269,231.3289529250001,231.8349053312501,73.0,90.0
270,231.8051434250001,233.29125461041676,78.0,83.0
271,233.23371492500007,233.69800066250008,80.0,91.0
272,233.70990542500007,235.45395313125007,82.0,91.0
273,235.61466742500008,236.91228653750008,78.0,86.0
274,237.04323892500008,237.41427068958342,80.0,93.0
275,237.51942942500008,239.22577871666675,82.0,90.0
276,239.4241914250001,239.81109620625008,83.0,86.0
277,239.9003819250001,240.35871528125008,82.0,93.0
278,240.3765724250001,240.84482641666676,80.0,90.0
279,240.8527629250001,241.2714137395834,83.0,93.0
280,241.3289534250001,242.97974715833342,82.0,91.0
281,243.2337154250001,243.6940329083334,78.0,84.0
282,243.7099059250001,244.03133451250008,75.0,93.0
283,244.18609642500007,244.73768375416677,75.0,84.0
284,244.66228692500007,245.07696948541675,78.0,81.0
285,245.13847742500008,245.50157268125008,80.0,80.0
286,245.61466792500008,245.9420488937501,80.0,84.0
287,246.09085842500008,246.49958860416675,80.0,84.0
288,246.56704892500008,247.06903307708342,73.0,90.0
289,247.04323942500008,248.20593789583342,78.0,84.0
290,248.47181092500009,249.23768397916675,80.0,91.0
291,249.4241919250001,249.91625544166675,73.0,90.0
292,249.9003824250001,250.21982688541675,77.0,84.0
293,250.3765729250001,250.6503824625001,75.0,76.0
294,250.61466817500008,250.9142713645834,73.0,76.0
295,250.8527634250001,252.2694301625001,75.0,80.0
296,254.6622874250001,256.03530336666677,78.0,93.0
297,256.0908589250001,256.5134779937501,80.0,98.0
298,256.5670494250001,258.2991923687501,82.0,98.0
299,258.4718114250001,258.9599066875001,83.0,98.0
300,258.9480019250001,259.37458924791673,82.0,93.0
301,259.4241924250001,259.90403116666675,80.0,95.0
302,259.90806342500014,260.3697570041668,83.0,94.0
303,260.3919344250001,262.19233777083343,82.0,98.0
304,262.32741842500013,262.80524103750014,78.0,84.0
305,262.8112894250001,262.93024104583344,75.0,84.0
306,263.2951604250001,264.05927337916677,75.0,91.0
307,263.77903142500014,264.08548305833347,78.0,83.0
308,264.0209669250001,264.55905629583344,80.0,83.0
309,264.7244409250001,265.06674864583346,80.0,90.0
310,265.1859794250001,265.58213330416675,80.0,93.0
311,265.6475179250001,266.13929836250014,73.0,90.0
312,266.1090564250001,267.6191371708334,78.0,83.0
313,267.5606694250001,268.0324436500001,80.0,91.0
314,268.0445404250001,269.79157930000014,82.0,91.0
315,269.94978242500014,271.26833090000014,78.0,86.0
316,271.40139542500015,271.7784115791668,80.0,93.0
317,271.8852664250001,273.59161571666675,82.0,90.0
318,273.7900284250001,274.1769332062501,83.0,86.0
319,274.2662189250001,274.7245522812501,82.0,93.0
320,274.7424094250001,275.21066341666676,80.0,90.0
321,275.2185999250001,275.63725073958346,83.0,93.0
322,275.6947904250001,277.34558415833345,82.0,91.0
323,277.5995524250001,278.05986990833344,78.0,84.0
324,278.0757429250001,278.3971715125001,75.0,93.0
325,278.55193342500013,279.10352075416677,75.0,84.0
326,279.0281239250001,279.4428064854168,78.0,81.0
327,279.50431442500013,279.86740968125014,80.0,80.0
328,279.9805049250001,280.3078858937501,80.0,84.0
329,280.45669542500013,280.8654256041668,80.0,84.0
330,280.9328859250001,281.4348700770834,73.0,90.0
331,281.40907642500014,282.6068277708335,78.0,84.0
332,282.91701292500017,283.92881842500014,80.0,91.0
333,284.22256842500013,284.9901122750001,73.0,90.0
334,284.97256842500013,285.3256384062501,77.0,84.0
335,287.02519942500015,287.3126994250002,75.0,76.0
336,288.02519942500015,288.41040357083347,73.0,76.0
337,288.6374444250001,290.20533465000017,75.0,80.0
