,start,end,pitch,velocity
0,4.439516425,4.9536293625,63.0,68.0
1,4.439516425,4.9536293625,66.0,68.0
2,4.439516425,5.0322584,70.0,77.0
3,4.9233874250000005,5.5463713375,58.0,69.0
4,5.407258425,5.840726195833334,63.0,59.0
5,5.407258425,5.895161683333334,68.0,73.0
6,5.891129425,6.225806866666667,70.0,78.0
7,6.3750004250000005,6.8770165875,75.0,68.0
8,6.3750004250000005,6.879032716666667,63.0,31.0
9,6.3750004250000005,7.008064983333334,66.0,49.0
10,5.891129425,7.429435979166667,58.0,71.0
11,7.342742425,7.727823095833334,73.0,83.0
12,7.342742425,7.7842747125,66.0,71.0
13,7.342742425,7.8326618125000005,63.0,75.0
14,4.439516425,8.114919895833333,51.0,80.0
15,7.826613425000001,8.125000541666667,58.0,76.0
16,8.310484425,8.766129616666667,68.0,72.0
17,8.310484425,8.768145745833333,65.0,79.0
18,8.310484425,8.794355425000001,61.0,70.0
19,8.794355425000001,9.397178045833334,58.0,59.0
20,9.278226425,9.713710325000001,65.0,76.0
21,9.278226425,9.723790970833333,61.0,53.0
22,9.278226425,9.754032908333334,73.0,75.0
23,9.762097425,10.8084684625,58.0,36.0
24,10.729839425,10.8387104,77.0,80.0
25,10.729839425,10.877016854166667,89.0,82.0
26,11.213710425,11.304436237500001,87.0,74.0
27,11.213710425,11.314516883333335,75.0,69.0
28,11.213710425,11.697581425000001,58.0,45.0
29,8.310484425,11.743952395833334,46.0,81.0
30,11.697581425000001,11.798387883333334,70.0,79.0
31,11.697581425000001,11.818549175000001,82.0,73.0
32,12.181452425,12.497984704166667,83.0,73.0
33,12.181452425,12.596775033333333,71.0,76.0
34,12.665323425,13.1915331375,54.0,58.0
35,13.149194425000001,13.633065425,63.0,74.0
36,13.149194425000001,13.645162200000001,59.0,54.0
37,13.149194425000001,13.681452525000001,66.0,81.0
38,14.116936425,14.508065483333334,66.0,70.0
39,14.116936425,14.725807433333333,59.0,55.0
40,14.116936425,14.8971784125,63.0,59.0
41,13.633065425,15.040323583333334,54.0,62.0
42,14.116936425,15.185484883333334,71.0,53.0
43,15.084678425,15.360888120833334,59.0,78.0
44,15.084678425,15.413307479166667,66.0,79.0
45,12.181452425,15.647178462500001,47.0,72.0
46,15.568549425,15.798388150000001,59.0,82.0
47,15.326613925,15.8709688,54.0,77.0
48,15.810484925,16.03629139166667,66.0,80.0
49,16.052420425,16.5786301375,61.0,61.0
50,16.052420425,16.584678525,65.0,74.0
51,17.020162425000002,17.5584689125,73.0,73.0
52,17.020162425000002,17.6552431125,61.0,63.0
53,17.504033425,18.06250120416667,68.0,71.0
54,16.536291425,18.173388308333333,58.0,59.0
55,17.987904425,18.592743175000003,65.0,56.0
56,17.987904425,18.766130283333336,61.0,43.0
57,18.955646425,19.1310496625,61.0,68.0
58,18.955646425,19.2157270875,66.0,75.0
59,18.713710925,19.2580658,58.0,60.0
60,16.052420425,19.403227100000002,46.0,79.0
61,19.197581925,19.413307745833333,65.0,71.0
62,19.439517425000002,19.637098083333335,63.0,79.0
63,19.681452925000002,20.00403359166667,61.0,75.0
64,19.923388425000002,20.165323925000003,39.0,76.0
65,20.165323925000003,20.399194908333335,51.0,72.0
66,19.923388425000002,20.860888487500002,63.0,83.0
67,20.407259425,21.407259491666668,53.0,63.0
68,21.133065925,21.443549816666668,63.0,58.0
69,20.649194925,21.463711108333335,54.0,63.0
70,21.375001425,21.582662729166668,66.0,79.0
71,20.891130425,21.786291775000002,58.0,71.0
72,21.616936925,21.848791779166667,68.0,68.0
73,21.858872425,22.201614383333336,63.0,68.0
74,21.858872425,22.243953095833334,70.0,82.0
75,22.100807925,22.67742086666667,58.0,68.0
76,22.584678925000002,22.731856354166666,75.0,78.0
77,22.584678925000002,22.750001516666668,66.0,67.0
78,22.342743425000002,22.8870983,63.0,60.0
79,22.826614425000002,22.987904758333336,75.0,82.0
80,22.826614425000002,22.995969275,66.0,75.0
81,23.310485425,23.409275754166668,73.0,84.0
82,23.310485425,23.4193564,63.0,79.0
83,21.858872425,23.479840275,51.0,77.0
84,23.068549925000003,23.485888662500003,58.0,69.0
85,23.794356425,24.070566120833334,65.0,82.0
86,23.794356425,24.07459837916667,61.0,75.0
87,23.794356425,24.0967758,68.0,78.0
88,24.278227425,24.562501637500002,61.0,54.0
89,24.762098425,24.939517791666667,73.0,55.0
90,24.762098425,24.953630695833336,61.0,5.0
91,24.520162925,24.955646825000002,65.0,79.0
92,24.036291925,24.977824245833336,58.0,57.0
93,25.004033925,25.356856529166667,65.0,74.0
94,25.004033925,25.364921045833334,61.0,59.0
95,25.004033925,25.364921045833334,73.0,81.0
96,23.794356425,25.451614600000003,46.0,83.0
97,25.245969425000002,25.6633081625,58.0,30.0
98,25.487904925000002,25.9536307625,70.0,83.0
99,25.487904925000002,25.995969475000003,61.0,52.0
100,25.971775925000003,26.526211445833333,58.0,52.0
101,26.213711425,26.6068566125,61.0,63.0
102,26.455646925,26.667340487500002,65.0,68.0
103,26.697582425,27.012098575,61.0,40.0
104,25.729840425000003,27.262098591666668,46.0,80.0
105,26.697582425,27.350808275000002,66.0,83.0
106,27.423388925,27.602824420833336,68.0,63.0
107,27.181453425,27.6229857125,58.0,59.0
108,27.665324425,27.762098625,68.0,33.0
109,27.665324425,28.18145349166667,63.0,84.0
110,28.391130925000002,28.97984064166667,61.0,69.0
111,28.149195425000002,29.050405162500002,59.0,69.0
112,27.665324425,29.112905166666668,47.0,83.0
113,28.633066425000003,29.13105032916667,63.0,84.0
114,27.907259925,29.189518075000002,54.0,69.0
115,29.116937425,29.538308420833335,66.0,78.0
116,29.600808425,30.03226006666667,68.0,80.0
117,29.600808425,30.038308454166668,61.0,80.0
118,30.568550425,30.911292383333336,73.0,82.0
119,30.568550425,30.917340770833334,68.0,72.0
120,30.568550425,30.935485933333336,61.0,60.0
121,30.568550425,30.987905291666667,65.0,80.0
122,29.600808425,31.0342762625,49.0,78.0
123,30.084679425,31.074598845833336,56.0,61.0
124,31.536292425000003,31.953631162500002,39.0,80.0
125,32.020163425,32.544357008333336,51.0,61.0
126,32.504034425,33.11693769166667,53.0,79.0
127,32.987905425,33.568550625,56.0,58.0
128,31.536292425000003,34.05645388333333,63.0,77.0
129,31.536292425000003,34.1189538875,66.0,79.0
130,33.471776425,34.56451843333333,51.0,84.0
131,34.439518425,34.65927650416667,63.0,56.0
132,34.439518425,34.70161521666667,70.0,80.0
133,35.407260425000004,35.8548411,61.0,68.0
134,35.407260425000004,36.33064758333334,70.0,78.0
135,35.407260425000004,36.4052443625,66.0,70.0
136,36.375002425000005,36.91532504166667,63.0,61.0
137,35.407260425000004,36.96371214166667,51.0,80.0
138,35.891131425000005,37.19959925416667,58.0,68.0
139,36.858873425,37.282260550000004,66.0,72.0
140,37.342744425,37.85282510416667,65.0,79.0
141,37.342744425,37.86088962083333,61.0,59.0
142,37.342744425,37.875002525,68.0,69.0
143,38.310486425,38.750002583333334,61.0,59.0
144,38.552421925000004,38.794357425,65.0,72.0
145,37.826615425,38.8004058125,58.0,55.0
146,37.342744425,38.828631620833335,49.0,68.0
147,38.794357425,39.0423413125,66.0,68.0
148,39.036292925000005,39.2479864875,68.0,76.0
149,39.278228425,39.814518783333334,66.0,76.0
150,39.278228425,39.818551041666666,61.0,60.0
151,39.278228425,39.818551041666666,63.0,69.0
152,39.278228425,40.7479865875,47.0,73.0
153,40.245970425,40.782260783333335,63.0,60.0
154,40.245970425,40.79435755833334,61.0,59.0
155,40.245970425,40.82863175416667,66.0,70.0
156,39.762099425,40.86492207916667,54.0,51.0
157,41.213712425000004,41.70564794166667,68.0,68.0
158,41.213712425000004,41.842744725,65.0,74.0
159,41.213712425000004,41.915325375,61.0,69.0
160,41.213712425000004,42.5504060625,46.0,73.0
161,42.181454425000005,42.689518975,73.0,72.0
162,42.181454425000005,42.71774478333334,61.0,58.0
163,43.149196425,43.6451642,61.0,63.0
164,43.149196425,43.6451642,66.0,71.0
165,42.665325425,43.65927710416667,70.0,71.0
166,44.116938425,44.57863200416667,70.0,62.0
167,43.633067425,44.61492232916667,58.0,57.0
168,44.116938425,44.64516426666667,66.0,62.0
169,44.116938425,44.665325558333336,61.0,56.0
170,43.149196425,44.89516428333334,51.0,74.0
171,44.842744925000005,45.09879332916667,58.0,59.0
172,45.084680425,45.52822884166667,68.0,72.0
173,45.084680425,45.55443852083334,65.0,63.0
174,45.084680425,45.57661594166667,61.0,60.0
175,45.568551425,46.245970825,58.0,42.0
176,46.052422425,46.5483902,65.0,79.0
177,46.052422425,46.57056762083334,68.0,50.0
178,46.052422425,46.59476117083334,61.0,62.0
179,45.084680425,46.63105149583333,49.0,69.0
180,46.536293425000004,46.9838741,58.0,68.0
181,47.020164425000004,47.5342773625,66.0,74.0
182,47.020164425000004,47.57863220416667,61.0,62.0
183,47.020164425000004,47.627019304166666,63.0,71.0
184,47.504035425000005,48.3447612875,54.0,52.0
185,47.987906425000006,48.465729037500004,63.0,60.0
186,47.020164425000004,48.495970975000006,47.0,63.0
187,47.987906425000006,48.55242259166667,61.0,57.0
188,47.987906425000006,48.6108903375,66.0,73.0
189,47.987906425000006,48.667341954166666,59.0,43.0
190,48.713712925,49.00000326666667,61.0,57.0
191,48.713712925,49.38105167916667,65.0,69.0
192,48.955648425,49.7419388,68.0,71.0
193,49.923390425,50.32460012916667,61.0,60.0
194,48.955648425,50.58064853333334,49.0,53.0
195,49.439519425,50.58064853333334,56.0,56.0
196,50.407261425,50.846777583333335,66.0,76.0
197,50.891132425,51.51210020833334,68.0,70.0
198,50.891132425,51.58871311666667,59.0,73.0
199,50.891132425,51.5987937625,63.0,69.0
200,51.858874425,52.15927767083333,59.0,69.0
201,50.891132425,52.16330992916667,44.0,75.0
202,51.375003425,52.213713158333334,51.0,58.0
203,52.100809925,52.28226155,63.0,75.0
204,52.342745425000004,52.560487375,65.0,55.0
205,51.616938925,52.63710028333334,56.0,52.0
206,52.584680925,52.81048739166667,68.0,75.0
207,52.826616425000005,53.2923422625,66.0,75.0
208,53.552422925,53.659277770833334,65.0,5.0
209,53.310487425000005,54.05242295833334,63.0,51.0
210,53.068551925,54.36089072083334,58.0,58.0
211,53.794358425000006,54.40927782083334,66.0,32.0
212,52.826616425000005,54.41532620833333,51.0,71.0
213,54.520164925,54.983874633333336,61.0,57.0
214,54.762100425,55.27419723333334,70.0,80.0
215,54.762100425,55.310487558333335,66.0,72.0
216,55.487906925000004,55.85887469166667,63.0,60.0
217,55.729842425,55.93750372916667,65.0,70.0
218,54.762100425,56.08266502916667,51.0,73.0
219,55.245971425,56.197584391666666,58.0,59.0
220,55.971777925000005,56.23589084583334,66.0,75.0
221,56.213713425,56.55443925416667,68.0,69.0
222,56.455648925000006,56.56855215833333,70.0,78.0
223,56.697584425,57.12298767916667,73.0,79.0
224,56.697584425,57.27621349583334,61.0,13.0
225,57.665326425,58.13508452083334,70.0,83.0
226,56.697584425,58.14113290833333,46.0,73.0
227,57.665326425,58.1915361375,61.0,69.0
228,57.181455425,58.40524582916667,58.0,50.0
229,58.149197425000004,58.41734260416667,65.0,81.0
230,58.633068425000005,59.04637490416667,66.0,62.0
231,58.633068425000005,59.0746007125,59.0,59.0
232,58.633068425000005,59.17540717083334,63.0,72.0
233,59.116939425000005,59.88710076666667,56.0,23.0
234,59.600810425000006,60.052423358333336,59.0,72.0
235,59.600810425000006,60.102826587500005,66.0,73.0
236,59.600810425000006,60.1149233625,63.0,76.0
237,58.633068425000005,60.151213687500004,44.0,74.0
238,60.084681425,60.42540725416667,56.0,58.0
239,60.568552425,60.9737943875,65.0,78.0
240,60.568552425,60.9858911625,68.0,72.0
241,60.568552425,61.02016535833334,61.0,75.0
242,61.052423425,61.7903267,58.0,49.0
243,61.536294425,61.951617033333335,65.0,59.0
244,60.568552425,61.971778325,46.0,79.0
245,61.536294425,61.9899234875,73.0,84.0
246,61.536294425,62.04032671666667,61.0,75.0
247,62.020165425,62.32056867083334,68.0,76.0
248,62.504036425,62.88306870833333,39.0,79.0
249,62.987907425,63.08669775416667,51.0,72.0
250,62.504036425,63.99193975,66.0,77.0
251,62.262100925000006,64.02419781666667,70.0,78.0
252,62.504036425,64.14718169583334,63.0,72.0
253,64.439520425,64.90726239166666,58.0,26.0
254,64.68145592500001,64.94960110416667,63.0,52.0
255,64.923391425,65.0746011125,65.0,72.0
256,65.165326925,65.36895597083334,66.0,72.0
257,65.407262425,65.71169792916668,68.0,59.0
258,65.407262425,65.73185922083334,58.0,57.0
259,65.64919792500001,65.74597212500001,70.0,71.0
260,63.471778425000004,65.80242374166667,53.0,77.0
261,63.955649425000004,65.81452051666668,54.0,61.0
262,65.891133425,65.97984310833334,73.0,78.0
263,66.133068925,66.35282700416667,77.0,70.0
264,66.375004425,66.63105282916666,78.0,76.0
265,66.85887542500001,67.41532707500001,58.0,57.0
266,67.342746425,67.7963754875,63.0,56.0
267,67.342746425,67.80444000416666,73.0,79.0
268,67.342746425,67.82460129583333,70.0,80.0
269,67.342746425,67.86089162083334,66.0,63.0
270,66.375004425,67.93750452916667,51.0,71.0
271,67.82661742500001,68.38710133333333,58.0,71.0
272,68.310488425,68.84677878333333,65.0,72.0
273,68.310488425,68.8608916875,68.0,77.0
274,68.310488425,68.88508523750001,61.0,57.0
275,68.79435942500001,69.48185947083334,56.0,44.0
276,69.278230425,69.75605303750001,65.0,79.0
277,68.310488425,69.79435949166667,49.0,76.0
278,69.278230425,69.80645626666667,61.0,69.0
279,69.278230425,69.86089175416667,68.0,72.0
280,70.00403692500001,70.21169822916667,65.0,82.0
281,69.762101425,70.22984339166668,56.0,75.0
282,70.245972425,70.75202084583334,63.0,78.0
283,70.245972425,70.77218213750001,66.0,79.0
284,70.729843425,71.25403700833334,54.0,69.0
285,71.213714425,71.71371445833334,59.0,58.0
286,70.245972425,71.71774671666667,47.0,79.0
287,71.213714425,71.7580693,66.0,78.0
288,71.213714425,72.11895642083334,63.0,82.0
289,71.697585425,72.18347255416667,54.0,76.0
290,72.18145642500001,72.66331129583334,68.0,80.0
291,72.18145642500001,72.70161775,65.0,77.0
292,72.18145642500001,72.75202097916667,61.0,75.0
293,72.907262925,73.00202099583333,61.0,39.0
294,72.665327425,73.270166175,58.0,58.0
295,72.18145642500001,73.66129523333333,46.0,82.0
296,73.14919842500001,73.66935975,68.0,76.0
297,73.14919842500001,73.6875049125,61.0,78.0
298,73.14919842500001,73.6875049125,65.0,78.0
299,73.633069425,74.08871461666666,58.0,58.0
300,74.11694042500001,74.50806948333334,70.0,80.0
301,74.11694042500001,74.63508562083334,63.0,79.0
302,74.11694042500001,74.6431501375,66.0,78.0
303,74.600811425,75.21573082083334,58.0,60.0
304,75.084682425,75.55242439166668,70.0,81.0
305,75.084682425,75.60685987916668,63.0,79.0
306,75.084682425,75.63105342916667,66.0,76.0
307,74.11694042500001,75.65726310833334,51.0,76.0
308,75.568553425,76.12903733333334,58.0,78.0
309,76.052424425,76.536295425,68.0,76.0
310,76.052424425,76.5665373625,65.0,78.0
311,76.052424425,76.59476317083333,61.0,72.0
312,76.536295425,77.11895675416667,58.0,71.0
313,77.020166425,77.57863420416668,68.0,75.0
314,77.020166425,77.58871485,65.0,83.0
315,77.020166425,77.5947632375,61.0,77.0
316,76.052424425,77.70161808333334,49.0,78.0
317,77.504037425,77.74395679583334,58.0,77.0
318,77.987908425,78.46169877916667,66.0,73.0
319,77.987908425,78.4657310375,59.0,79.0
320,77.987908425,78.495972975,63.0,73.0
321,78.47177942500001,79.09073107916667,54.0,60.0
322,77.987908425,79.4213762625,47.0,79.0
323,78.955650425,79.53427949583333,59.0,75.0
324,78.955650425,79.53831175416667,63.0,76.0
325,78.955650425,79.55847304583334,66.0,79.0
326,79.43952142500001,79.89718274583333,54.0,76.0
327,79.923392425,80.29839245000001,61.0,79.0
328,79.923392425,80.33669890416667,65.0,83.0
329,79.923392425,80.49597310833333,68.0,79.0
330,80.40726342500001,80.987908625,56.0,62.0
331,80.64919892500001,81.01210217500001,61.0,32.0
332,81.133069925,81.28226348333334,66.0,79.0
333,80.891134425,81.28629574166668,65.0,84.0
334,79.923392425,81.4415376875,49.0,75.0
335,81.375005425,81.46774736666667,66.0,52.0
336,81.375005425,81.62702157083334,63.0,76.0
337,81.858876425,82.3487958125,68.0,79.0
338,81.61694092500001,82.37097323333333,59.0,76.0
339,81.858876425,82.4032313,63.0,79.0
340,82.342747425,82.91936036666667,51.0,71.0
341,82.826618425,83.20565070833334,56.0,53.0
342,81.858876425,83.2560539375,44.0,78.0
343,82.826618425,83.33266684583334,63.0,81.0
344,82.826618425,83.33871523333333,59.0,80.0
345,82.826618425,83.33871523333333,68.0,80.0
346,83.310489425,83.38508620416667,51.0,83.0
347,83.79436042500001,84.40323143333333,59.0,77.0
348,83.79436042500001,84.41331207916667,66.0,80.0
349,83.79436042500001,84.5383120875,63.0,76.0
350,83.79436042500001,84.99194115,47.0,76.0
351,83.79436042500001,85.22984439166667,35.0,81.0
352,84.76210242500001,85.2520218125,63.0,78.0
353,84.76210242500001,85.2580702,66.0,78.0
354,84.76210242500001,85.27419923333333,59.0,79.0
355,85.245973425,85.35081214166667,47.0,73.0
356,85.72984442500001,86.23589284583333,70.0,86.0
357,85.72984442500001,86.4496025375,63.0,79.0
358,85.72984442500001,86.47581221666667,66.0,81.0
359,85.72984442500001,86.83669933750001,51.0,72.0
360,86.697586425,87.14315097083333,70.0,84.0
361,86.697586425,87.22178000833334,63.0,80.0
362,86.697586425,87.25605420416667,66.0,83.0
363,85.72984442500001,87.28024775416667,39.0,56.0
364,87.181457425,87.30645743333334,51.0,71.0
365,87.665328425,88.37097363333334,68.0,79.0
366,87.665328425,88.37702202083334,65.0,83.0
367,87.665328425,88.3971833125,61.0,77.0
368,88.391134925,88.61089300416667,58.0,49.0
369,88.633070425,88.93952205833334,61.0,74.0
370,88.633070425,88.9415381875,65.0,74.0
371,88.633070425,88.995973675,68.0,79.0
372,87.665328425,89.01815109583333,46.0,80.0
373,88.87500592500001,89.13307045833334,58.0,58.0
374,89.11694142500001,89.32661885833333,65.0,71.0
375,89.358876925,89.66331242916667,68.0,73.0
376,89.600812425,90.14718342916667,66.0,79.0
377,89.600812425,90.18548988333333,63.0,82.0
378,89.600812425,90.19355440000001,59.0,75.0
379,89.600812425,90.83065121666667,56.0,62.0
380,90.568554425,91.10081252500001,59.0,80.0
381,90.568554425,91.10282865416667,66.0,82.0
382,90.568554425,91.12097381666668,63.0,82.0
383,89.600812425,91.13911897916667,44.0,78.0
384,91.05242542500001,91.19960285416667,56.0,71.0
385,91.536296425,92.11089323750001,68.0,80.0
386,91.536296425,92.1955706625,65.0,83.0
387,91.536296425,92.20565130833334,61.0,79.0
388,91.536296425,92.61895778750001,58.0,79.0
389,92.504038425,92.98589329583334,65.0,82.0
390,92.504038425,93.00403845833334,68.0,74.0
391,92.504038425,93.0483933,61.0,74.0
392,92.987909425,93.06855459166667,58.0,83.0
393,91.536296425,93.08669975416667,46.0,86.0
394,93.471780425,93.93952239166667,39.0,81.0
395,93.955651425,94.0645224,51.0,83.0
396,93.471780425,94.76613535,66.0,78.0
397,93.471780425,94.79234502916667,70.0,81.0
398,94.439522425,94.79436115833334,53.0,79.0
399,93.471780425,94.88307084166667,63.0,77.0
400,94.923393425,94.995974075,54.0,79.0
401,95.40726442500001,95.48992572083334,63.0,77.0
402,95.40726442500001,95.49597410833334,75.0,83.0
403,95.649199925,95.71371605833333,77.0,80.0
404,95.649199925,95.72178057500001,65.0,60.0
405,95.891135425,95.9818612375,66.0,63.0
406,95.891135425,95.9939580125,78.0,80.0
407,96.133070925,96.2419419,68.0,58.0
408,96.133070925,96.25605480416667,80.0,82.0
409,96.37500642500001,96.47984514166667,70.0,62.0
410,96.37500642500001,96.47984514166667,82.0,84.0
411,96.616941925,96.70363547916668,85.0,56.0
412,96.616941925,96.73790967500001,73.0,69.0
413,95.40726442500001,96.81855484166667,39.0,80.0
414,96.858877425,96.90323226666668,87.0,83.0
415,96.858877425,96.92540968750001,75.0,83.0
416,97.100812925,97.16936131666667,77.0,52.0
417,96.85484516666668,97.52420005,51.0,83.0
418,97.34274842500001,97.73992587083333,78.0,79.0
419,97.34274842500001,97.74799038750001,71.0,90.0
420,97.34274842500001,97.75807103333334,75.0,82.0
421,97.34274842500001,97.77621619583334,66.0,80.0
422,97.34274842500001,98.31049042500001,47.0,83.0
423,97.826619425,98.42742591666668,54.0,62.0
424,98.31049042500001,98.42742591666668,63.0,81.0
425,98.31049042500001,98.42944204583334,66.0,83.0
426,98.31049042500001,98.46170011250001,71.0,95.0
427,98.31049042500001,98.47178075833334,59.0,77.0
428,98.794361425,99.07258725,65.0,82.0
429,98.794361425,99.0786356375,49.0,79.0
430,98.794361425,99.10081305833334,61.0,81.0
431,98.794361425,99.12097435000001,56.0,80.0
432,98.794361425,99.13710338333334,68.0,82.0
433,99.278232425,99.9496034375,70.0,90.0
434,99.278232425,100.07057118750001,61.0,83.0
435,99.278232425,100.07460344583333,66.0,86.0
436,99.278232425,100.53764112083333,54.0,79.0
437,100.700519925,100.80089872291667,54.0,82.0
438,100.245974425,100.80468660208334,61.0,84.0
439,100.245974425,100.80468660208334,66.0,86.0
440,100.245974425,100.8255199375,70.0,90.0
441,101.155065425,101.5119202875,56.0,81.0
442,101.155065425,101.69538804166667,66.0,86.0
443,101.155065425,101.70345255833334,44.0,83.0
444,101.155065425,101.711517075,71.0,93.0
445,101.155065425,101.73369449583333,63.0,91.0
446,101.638936425,101.77804933750001,56.0,68.0
447,102.122807425,102.65103326666667,61.0,83.0
448,102.122807425,102.6671623,49.0,91.0
449,102.122807425,102.6732106875,65.0,86.0
450,102.122807425,102.6732106875,68.0,83.0
451,103.090549425,103.500705675,70.0,90.0
452,103.090549425,103.571018175,63.0,90.0
453,103.090549425,103.57687755,66.0,86.0
454,103.793674425,103.96750255,63.0,72.0
455,104.03781505,104.17844005,70.0,82.0
456,104.028049425,104.184299425,63.0,83.0
457,104.028049425,104.203830675,66.0,83.0
458,103.559299425,104.35031505,58.0,73.0
459,104.262424425,104.4870338,63.0,83.0
460,104.496799425,104.59250255,58.0,80.0
461,103.090549425,104.653049425,51.0,86.0
462,104.965549425,105.36554942500001,59.0,83.0
463,104.965549425,105.36763275833334,63.0,84.0
464,104.965549425,105.41138275833335,68.0,83.0
465,105.465549425,106.14095266250001,56.0,60.0
466,104.965549425,106.33853332083333,44.0,83.0
467,105.965549425,106.473613975,66.0,84.0
468,105.965549425,106.49175913750001,63.0,83.0
469,105.965549425,106.71958173333334,71.0,93.0
470,106.449420425,106.86877529166668,56.0,79.0
471,106.93329142500001,107.32442048333334,71.0,27.0
472,106.93329142500001,107.37885597083334,61.0,78.0
473,106.93329142500001,107.40304952083333,65.0,74.0
474,106.93329142500001,107.41313016666668,68.0,72.0
475,107.417162425,107.9796624625,56.0,73.0
476,107.90103342500001,108.15506570000001,73.0,86.0
477,107.90103342500001,108.21151731666667,68.0,78.0
478,107.90103342500001,108.33450119583334,65.0,78.0
479,106.93329142500001,108.3788560375,49.0,86.0
480,107.90103342500001,108.38893668333334,61.0,75.0
481,108.384904425,108.4877270125,56.0,76.0
482,108.384904425,108.58853347083334,71.0,75.0
483,108.86877542500001,109.54377548125001,70.0,86.0
484,108.86877542500001,109.60339087083334,61.0,82.0
485,108.86877542500001,109.62454471875002,66.0,81.0
486,108.86877542500001,110.11685245208335,54.0,73.0
487,109.79185242500002,110.18031399583334,70.0,83.0
488,109.79185242500002,110.18608322708334,66.0,86.0
489,109.79185242500002,110.34954477916668,61.0,83.0
490,110.253390925,110.37262170416668,68.0,82.0
491,110.253390925,110.37839093541668,54.0,80.0
492,110.71492942500001,111.15723715416668,61.0,82.0
493,110.71492942500001,111.19377561875001,66.0,84.0
494,110.71492942500001,111.22262177500001,70.0,84.0
495,111.17646792500001,111.64808707083334,58.0,72.0
496,111.407237175,111.77107095000001,63.0,75.0
497,111.63800642500001,111.91018386250002,65.0,86.0
498,111.87994192500001,112.16220000833334,66.0,82.0
499,112.12187742500001,112.22268388333335,58.0,84.0
500,110.71492942500001,112.25090969166668,51.0,82.0
501,112.12187742500001,112.31945808333334,65.0,73.0
502,112.36381292500002,112.56139358333334,61.0,90.0
503,112.60574842500002,112.95857102916668,63.0,86.0
504,112.60574842500002,112.98074845000002,66.0,84.0
505,112.60574842500002,113.33155492500002,47.0,86.0
506,113.08961942500001,113.49687751666669,54.0,73.0
507,113.57349042500002,114.10574852500001,71.0,84.0
508,113.57349042500002,114.11381304166667,65.0,83.0
509,113.57349042500002,114.11381304166667,68.0,62.0
510,113.57349042500002,114.12590981666668,49.0,91.0
511,113.57349042500002,114.13800659166668,61.0,84.0
512,114.05736142500001,114.19042595000002,56.0,82.0
513,114.54123242500002,114.93437761250001,70.0,90.0
514,114.54123242500002,114.94042600000002,61.0,83.0
515,114.54123242500002,115.01905503750001,66.0,84.0
516,115.02510342500001,115.24486150416668,61.0,71.0
517,115.50897442500002,115.81666675833335,73.0,96.0
518,115.50897442500002,115.84166676041669,66.0,78.0
519,115.50897442500002,115.87628214791668,61.0,90.0
520,114.54123242500002,115.97051292500002,54.0,84.0
521,115.97051292500002,116.33397449375002,70.0,91.0
522,116.43205142500003,116.57292444791669,54.0,59.0
523,116.43205142500003,117.0431625666667,66.0,83.0
524,116.43205142500003,117.05903558333335,56.0,60.0
525,116.43205142500003,117.05903558333335,63.0,90.0
526,116.43205142500003,117.11260701458336,71.0,86.0
527,117.38443242500003,117.92014673750002,49.0,82.0
528,117.38443242500003,117.9360197541667,65.0,84.0
529,117.38443242500003,117.96181340625003,68.0,86.0
530,117.38443242500003,117.9657816604167,61.0,83.0
531,118.33681342500003,118.74608764583337,70.0,90.0
532,118.33681342500003,118.79245861666669,63.0,83.0
533,118.33681342500003,118.83681345833337,66.0,84.0
534,118.82068442500002,119.30253929583337,58.0,76.0
535,119.06261992500004,119.38116833333336,63.0,76.0
536,119.30455542500003,119.57673286250004,65.0,83.0
537,119.54649092500003,119.67350706250004,58.0,75.0
538,119.54649092500003,119.78842642500003,61.0,83.0
539,119.54649092500003,119.8448780416667,66.0,83.0
540,118.33681342500003,119.87713610833336,51.0,86.0
541,119.78842642500003,119.88520062500002,58.0,78.0
542,120.03036192500004,120.20576516250003,68.0,81.0
543,120.27229742500003,121.07068457500003,59.0,80.0
544,120.27229742500003,121.07471683333337,68.0,81.0
545,120.27229742500003,121.0908458666667,63.0,82.0
546,120.27229742500003,121.5444749291667,56.0,67.0
547,121.24003942500003,121.9255233416667,59.0,84.0
548,121.24003942500003,122.01221689583336,68.0,84.0
549,120.27229742500003,122.07270077083336,44.0,80.0
550,121.24003942500003,122.09689432083337,63.0,84.0
551,121.72391042500003,122.29567205000004,56.0,43.0
552,122.20778142500004,122.91481267500004,68.0,82.0
553,122.20778142500004,122.94215642500004,65.0,83.0
554,122.20778142500004,122.97926580000004,61.0,84.0
555,122.20778142500004,123.39723455000004,49.0,86.0
556,123.14528142500004,123.61989080000004,65.0,78.0
557,123.14528142500004,123.63160955000004,68.0,79.0
558,123.14528142500004,123.70192205000004,61.0,83.0
559,123.61403142500004,123.71950017500004,49.0,79.0
560,124.08278142500004,125.06262020000004,63.0,79.0
561,124.08278142500004,125.0646363291667,66.0,83.0
562,124.08278142500004,125.10899117083336,71.0,86.0
563,125.05052342500004,125.32673312083337,59.0,79.0
564,124.08278142500004,125.35294280000004,47.0,75.0
565,125.29245892500003,125.47189442083337,63.0,79.0
566,125.53439442500003,125.76423315000004,66.0,78.0
567,126.01826542500004,127.32270099583337,49.0,80.0
568,125.77632992500004,127.39528164583336,65.0,72.0
569,126.01826542500004,127.4053622916667,56.0,78.0
570,125.77632992500004,127.42552358333337,61.0,56.0
571,125.77632992500004,127.4900397166667,68.0,76.0
572,127.95374942500004,128.45970183125004,63.0,68.0
573,127.95374942500004,128.45970183125004,66.0,68.0
574,127.95374942500004,128.53708278750005,70.0,77.0
575,128.42993992500004,129.04303519375003,58.0,69.0
576,128.90613042500004,129.33271774791672,63.0,59.0
577,128.90613042500004,129.3862891791667,68.0,73.0
578,129.38232092500004,129.71168602083338,70.0,78.0
579,129.85851142500005,130.32306346250004,75.0,68.0
580,129.85851142500005,130.32492913333337,63.0,31.0
581,129.85851142500005,130.4443320666667,66.0,49.0
582,129.38232092500004,130.83801780000005,58.0,71.0
583,130.75403342500005,131.12708030000005,73.0,83.0
584,130.75403342500005,131.18176780000005,66.0,71.0
585,130.75403342500005,131.22864280000005,63.0,75.0
586,127.95374942500004,131.50208030000005,51.0,80.0
587,131.22278342500005,131.51184592500005,58.0,76.0
588,131.69153342500005,132.1399461458334,68.0,72.0
589,131.69153342500005,132.1419302729167,65.0,79.0
590,131.69153342500005,132.16772392500005,61.0,70.0
591,132.16772392500005,132.7609779229167,58.0,59.0
592,132.64391442500005,133.07248587500004,65.0,76.0
593,132.64391442500005,133.08240651041672,61.0,53.0
594,132.64391442500005,133.11216841666672,73.0,75.0
595,133.12010492500005,134.14986688125003,58.0,36.0
596,134.07248592500005,134.17962878750004,77.0,80.0
597,134.07248592500005,134.21732720208337,89.0,82.0
598,134.54867642500005,134.63796214375006,87.0,74.0
599,134.54867642500005,134.6478827791667,75.0,69.0
600,134.54867642500005,135.02486692500005,58.0,45.0
601,131.69153342500005,135.07050184791672,46.0,81.0
602,135.02486692500005,135.1240732791667,70.0,79.0
603,135.02486692500005,135.14391455000003,82.0,73.0
604,135.50105742500006,135.8125653770834,83.0,73.0
605,135.50105742500006,135.90978760416672,71.0,76.0
606,135.97724792500006,136.49510509375006,54.0,58.0
607,136.45343842500006,136.92962892500003,63.0,74.0
608,136.45343842500006,136.94153368750005,59.0,54.0
609,136.45343842500006,136.97724797500004,66.0,81.0
610,137.40581942500003,137.7907400791667,66.0,70.0
611,137.40581942500003,138.0050258041667,59.0,55.0
612,137.40581942500003,138.17367660625004,63.0,59.0
613,136.92962892500003,138.31454962916672,54.0,62.0
614,137.40581942500003,138.45740677916672,71.0,53.0
615,138.35820042500004,138.63002583541672,59.0,78.0
616,138.35820042500004,138.6816131395834,66.0,79.0
617,135.50105742500006,138.91177188125005,47.0,72.0
618,138.83439092500004,139.06058141250006,59.0,82.0
619,138.59629567500005,139.13200998750006,54.0,77.0
620,139.07248617500005,139.29470840833338,66.0,80.0
621,139.31058142500004,139.82843859375004,61.0,61.0
622,139.31058142500004,139.83439097500005,65.0,74.0
623,140.26296242500004,140.79272435625003,73.0,73.0
624,140.26296242500004,140.88796245625005,61.0,63.0
625,140.73915292500004,141.2887561270834,68.0,71.0
626,139.78677192500004,141.39788311666672,58.0,59.0
627,141.21534342500004,141.81058155000005,65.0,56.0
628,141.21534342500004,141.9812164791667,61.0,43.0
629,142.16772442500005,142.34034348125004,61.0,68.0
630,142.16772442500005,142.42367681875004,66.0,75.0
631,141.92962917500006,142.46534348750004,58.0,60.0
632,139.31058142500004,142.60820063750003,46.0,79.0
633,142.40581967500003,142.6181212729167,65.0,71.0
634,142.64391492500005,142.83835937916672,63.0,79.0
635,142.88201017500003,143.19947050833338,61.0,75.0
636,143.12010542500005,143.35820067500003,39.0,76.0
637,143.35820067500003,143.58835941666672,51.0,72.0
638,143.12010542500005,144.04272451875005,63.0,83.0
639,143.59629592500005,144.58042295833337,53.0,63.0
640,144.31058167500004,144.6161372458334,63.0,58.0
641,143.83439117500004,144.6359785166667,54.0,63.0
642,144.54867692500005,144.75304201458337,66.0,79.0
643,144.07248642500005,144.95343885000005,58.0,71.0
644,144.78677217500004,145.01494678958338,68.0,68.0
645,145.02486742500005,145.36216902916672,63.0,68.0
646,145.02486742500005,145.40383569791672,70.0,82.0
647,145.26296267500004,145.8304230208334,58.0,68.0
648,145.73915317500004,145.88399445208339,75.0,78.0
649,145.73915317500004,145.90185159583336,66.0,67.0
650,145.50105792500005,146.03677223750003,63.0,60.0
651,145.97724842500006,146.1359785916667,75.0,82.0
652,145.97724842500006,146.14391510000004,66.0,75.0
653,146.45343892500006,146.55066115208336,73.0,84.0
654,146.45343892500006,146.56058178750004,63.0,79.0
655,145.02486742500005,146.62010560000004,51.0,77.0
656,146.21534367500004,146.62605798125006,58.0,69.0
657,146.92962942500006,147.2014548354167,65.0,82.0
658,146.92962942500006,147.20542308958338,61.0,75.0
659,146.92962942500006,147.22724848750005,68.0,78.0
660,147.40581992500006,147.68558184375004,61.0,54.0
661,147.88201042500003,148.05661360833338,73.0,55.0
662,147.88201042500003,148.07050249791672,61.0,5.0
663,147.64391517500005,148.07248662500004,65.0,79.0
664,147.16772467500004,148.0943120229167,58.0,57.0
665,148.12010567500005,148.4673279145834,65.0,74.0
666,148.12010567500005,148.47526442291672,61.0,59.0
667,148.12010567500005,148.47526442291672,73.0,81.0
668,146.92962942500006,148.56058188750004,46.0,83.0
669,148.35820092500003,148.76891523125005,58.0,30.0
670,148.59629617500005,149.05462953125004,70.0,83.0
671,148.59629617500005,149.09629620000004,61.0,52.0
672,149.07248667500005,149.6181216229167,58.0,52.0
673,149.31058192500004,149.69748670625006,61.0,63.0
674,149.54867717500005,149.75701051875004,65.0,68.0
675,149.78677242500004,150.09629625000005,61.0,40.0
676,148.83439142500004,150.34232800833337,46.0,80.0
677,149.78677242500004,150.42962960000006,66.0,83.0
678,150.50105817500005,150.67764548541672,68.0,63.0
679,150.26296292500004,150.69748675625004,58.0,59.0
680,150.73915342500004,150.83439152500006,68.0,33.0
681,150.73915342500004,151.2470899583334,63.0,84.0
682,151.45343917500006,152.03280428333338,61.0,69.0
683,151.21534392500004,152.10224873125006,59.0,69.0
684,150.73915342500004,152.16375667083338,47.0,83.0
685,151.69153442500004,152.1816138145834,63.0,84.0
686,150.97724867500006,152.23915350000004,54.0,69.0
687,152.16772492500004,152.58240748541672,66.0,78.0
688,152.64391542500005,153.06851862083337,68.0,80.0
689,152.64391542500005,153.07447100208338,61.0,80.0
690,153.59629642500005,153.93359802916672,73.0,82.0
691,153.59629642500005,153.9395504104167,68.0,72.0
692,153.59629642500005,153.9574075541667,61.0,60.0
693,153.59629642500005,154.00899485833338,65.0,80.0
694,152.64391542500005,154.05462978125004,49.0,78.0
695,153.12010592500005,154.09431232291672,56.0,61.0
696,154.54867742500005,154.95939173125004,39.0,80.0
697,155.02486792500005,155.5407409666667,51.0,61.0
698,155.50105842500005,156.10423305833336,53.0,79.0
699,155.97724892500005,156.54867752500004,56.0,58.0
700,154.54867742500005,157.0288362791667,63.0,77.0
701,154.54867742500005,157.09034421875003,66.0,79.0
702,156.45343942500006,157.5288363041667,51.0,84.0
703,157.40582042500006,157.62209027708337,63.0,56.0
704,157.40582042500006,157.66375694583337,70.0,80.0
705,158.35820142500006,158.82070142500007,61.0,68.0
706,158.35820142500006,159.31236809166674,70.0,78.0
707,158.35820142500006,159.38844336250006,66.0,70.0
708,159.35820142500006,159.89852404166672,63.0,61.0
709,158.35820142500006,159.94691114166673,51.0,80.0
710,158.85820142500006,160.18279825416673,58.0,68.0
711,159.84207242500005,160.26545955000006,66.0,72.0
712,160.32594342500005,160.83602410416674,65.0,79.0
713,160.32594342500005,160.8440886208334,61.0,59.0
714,160.32594342500005,160.85820152500006,68.0,69.0
715,161.29368542500006,161.7332015833334,61.0,59.0
716,161.53562092500007,161.77755642500006,65.0,72.0
717,160.80981442500007,161.78360481250007,58.0,55.0
718,160.32594342500005,161.8118306208334,49.0,68.0
719,161.77755642500006,162.02554031250006,66.0,68.0
720,162.01949192500007,162.23118548750006,68.0,76.0
721,162.26142742500005,162.79771778333338,66.0,76.0
722,162.26142742500005,162.80175004166674,61.0,60.0
723,162.26142742500005,162.80175004166674,63.0,69.0
724,162.26142742500005,163.73118558750005,47.0,73.0
725,163.22916942500007,163.7654597833334,63.0,60.0
726,163.22916942500007,163.7775565583334,61.0,59.0
727,163.22916942500007,163.81183075416672,66.0,70.0
728,162.74529842500007,163.84812107916673,54.0,51.0
729,164.19691142500005,164.68884694166672,68.0,68.0
730,164.19691142500005,164.82594372500006,65.0,74.0
731,164.19691142500005,164.89852437500005,61.0,69.0
732,164.19691142500005,165.53360506250007,46.0,73.0
733,165.16465342500007,165.67271797500007,73.0,72.0
734,165.16465342500007,165.7009437833334,61.0,58.0
735,166.13239542500006,166.62836320000005,61.0,63.0
736,166.13239542500006,166.62836320000005,66.0,71.0
737,165.64852442500006,166.64247610416672,70.0,71.0
738,167.10013742500007,167.56183100416672,70.0,62.0
739,166.61626642500005,167.59812132916673,58.0,57.0
740,167.10013742500007,167.62836326666672,66.0,62.0
741,167.10013742500007,167.6485245583334,61.0,56.0
742,166.13239542500006,167.87836328333339,51.0,74.0
743,167.82594392500005,168.08199232916672,58.0,59.0
744,168.06787942500006,168.51142784166672,68.0,72.0
745,168.06787942500006,168.53763752083339,65.0,63.0
746,168.06787942500006,168.55981494166673,61.0,60.0
747,168.55175042500005,169.22916982500007,58.0,42.0
748,169.03562142500007,169.53158920000007,65.0,79.0
749,169.03562142500007,169.5537666208334,68.0,50.0
750,169.03562142500007,169.5779601708334,61.0,62.0
751,168.06787942500006,169.6142504958334,49.0,69.0
752,169.51949242500007,169.96707310000005,58.0,68.0
753,170.00336342500006,170.51747636250008,66.0,74.0
754,170.00336342500006,170.56183120416674,61.0,62.0
755,170.00336342500006,170.61021830416672,63.0,71.0
756,170.48723442500005,171.32796028750005,54.0,52.0
757,170.97110542500008,171.44892803750005,63.0,60.0
758,170.00336342500006,171.47916997500005,47.0,63.0
759,170.97110542500008,171.53562159166674,61.0,57.0
760,170.97110542500008,171.59408933750007,66.0,73.0
761,170.97110542500008,171.65054095416673,59.0,43.0
762,171.69691192500005,171.98320226666672,61.0,57.0
763,171.69691192500005,172.36425067916673,65.0,69.0
764,171.93884742500006,172.72513780000006,68.0,71.0
765,172.90658942500005,173.30779912916674,61.0,60.0
766,171.93884742500006,173.5638475333334,49.0,53.0
767,172.42271842500006,173.5638475333334,56.0,56.0
768,173.39046042500007,173.8299765833334,66.0,76.0
769,173.87433142500007,174.4952992083334,68.0,70.0
770,173.87433142500007,174.57191211666674,59.0,73.0
771,173.87433142500007,174.58199276250005,63.0,69.0
772,174.84207342500005,175.1424766708334,59.0,69.0
773,173.87433142500007,175.1465089291667,44.0,75.0
774,174.35820242500006,175.1969121583334,51.0,58.0
775,175.08400892500006,175.26546055000006,63.0,75.0
776,175.32594442500007,175.54368637500005,65.0,55.0
777,174.60013792500007,175.6202992833334,56.0,52.0
778,175.56787992500006,175.79368639166674,68.0,75.0
779,175.80981542500007,176.27554126250007,66.0,75.0
780,176.53562192500007,176.64247677083338,65.0,5.0
781,176.29368642500006,177.0356219583334,63.0,51.0
782,176.05175092500005,177.34408972083338,58.0,58.0
783,176.77755742500005,177.3924768208334,66.0,32.0
784,175.80981542500007,177.3985252083334,51.0,71.0
785,177.50336392500006,177.9670736333334,61.0,57.0
786,177.74529942500007,178.2573962333334,70.0,80.0
787,177.74529942500007,178.2936865583334,66.0,72.0
788,178.47110592500007,178.84207369166674,63.0,60.0
789,178.71304142500006,178.92070272916672,65.0,70.0
790,177.74529942500007,179.06586402916673,51.0,73.0
791,178.22917042500006,179.18078339166672,58.0,59.0
792,178.95497692500007,179.2190898458334,66.0,75.0
793,179.19691242500005,179.53763825416672,68.0,69.0
794,179.43884792500006,179.5517511583334,70.0,78.0
795,179.68078342500007,180.10618667916674,73.0,79.0
796,179.68078342500007,180.2594124958334,61.0,13.0
797,180.64852542500006,181.1182835208334,70.0,83.0
798,179.68078342500007,181.1243319083334,46.0,73.0
799,180.64852542500006,181.17473513750005,61.0,69.0
800,180.16465442500007,181.38844482916673,58.0,50.0
801,181.13239642500005,181.40054160416673,65.0,81.0
802,181.61626742500005,182.02957390416674,66.0,62.0
803,181.61626742500005,182.05779971250007,59.0,59.0
804,181.61626742500005,182.1586061708334,63.0,72.0
805,182.10013842500007,182.87029976666673,56.0,23.0
806,182.58400942500006,183.0356223583334,59.0,72.0
807,182.58400942500006,183.08602558750007,66.0,73.0
808,182.58400942500006,183.09812236250008,63.0,76.0
809,181.61626742500005,183.13441268750006,44.0,74.0
810,183.06788042500006,183.40860625416673,56.0,58.0
811,183.55175142500008,183.95699338750006,65.0,78.0
812,183.55175142500008,183.96909016250007,68.0,72.0
813,183.55175142500008,184.00336435833339,61.0,75.0
814,184.03562242500007,184.77352570000005,58.0,49.0
815,184.51949342500006,184.9348160333334,65.0,59.0
816,183.55175142500008,184.95497732500007,46.0,79.0
817,184.51949342500006,184.97312248750006,73.0,84.0
818,184.51949342500006,185.02352571666674,61.0,75.0
819,185.00336442500006,185.3037676708334,68.0,76.0
820,185.48723542500005,185.8662677083334,39.0,79.0
821,185.97110642500007,186.06989675416673,51.0,72.0
822,185.48723542500005,186.97513875000007,66.0,77.0
823,185.24529992500007,187.00739681666673,70.0,78.0
824,185.48723542500005,187.1303806958334,63.0,72.0
825,187.42271942500005,187.89046139166672,58.0,26.0
826,187.66465492500006,187.93280010416674,63.0,52.0
827,187.90659042500005,188.05780011250005,65.0,72.0
828,188.14852592500006,188.3521549708334,66.0,72.0
829,188.39046142500007,188.69489692916673,68.0,59.0
830,188.39046142500007,188.71505822083338,58.0,57.0
831,188.63239692500005,188.72917112500005,70.0,71.0
832,186.45497742500007,188.7856227416667,53.0,77.0
833,186.93884842500006,188.79771951666672,54.0,61.0
834,188.87433242500006,188.9630421083334,73.0,78.0
835,189.11626792500007,189.33602600416674,77.0,70.0
836,189.35820342500006,189.61425182916673,78.0,76.0
837,189.84207442500008,190.39852607500006,58.0,57.0
838,190.32594542500007,190.77957448750007,63.0,56.0
839,190.32594542500007,190.78763900416672,73.0,79.0
840,190.32594542500007,190.8078002958334,70.0,80.0
841,190.32594542500007,190.84409062083338,66.0,63.0
842,189.35820342500006,190.92070352916673,51.0,71.0
843,190.80981642500007,191.3703003333334,58.0,71.0
844,191.29368742500006,191.8299777833334,65.0,72.0
845,191.29368742500006,191.84409068750006,68.0,77.0
846,191.29368742500006,191.86828423750006,61.0,57.0
847,191.77755842500005,192.4650584708334,56.0,44.0
848,192.26142942500007,192.73925203750008,65.0,79.0
849,191.29368742500006,192.77755849166672,49.0,76.0
850,192.26142942500007,192.78965526666673,61.0,69.0
851,192.26142942500007,192.84409075416673,68.0,72.0
852,192.98723592500005,193.1948972291667,65.0,82.0
853,192.74530042500007,193.21304239166673,56.0,75.0
854,193.22917142500006,193.7352198458334,63.0,78.0
855,193.22917142500006,193.75538113750008,66.0,79.0
856,193.71304242500005,194.2372360083334,54.0,69.0
857,194.19691342500005,194.6969134583334,59.0,58.0
858,193.22917142500006,194.70094571666672,47.0,79.0
859,194.19691342500005,194.74126830000006,66.0,78.0
860,194.19691342500005,195.1021554208334,63.0,82.0
861,194.68078442500007,195.16667155416673,54.0,76.0
862,195.16465542500006,195.6465102958334,68.0,80.0
863,195.16465542500006,195.68481675000007,65.0,77.0
864,195.16465542500006,195.73521997916674,61.0,75.0
865,195.89046192500007,195.9852199958334,61.0,39.0
866,195.64852642500006,196.25336517500006,58.0,58.0
867,195.16465542500006,196.6444942333334,46.0,82.0
868,196.13239742500008,196.65255875000005,68.0,76.0
869,196.13239742500008,196.67070391250007,61.0,78.0
870,196.13239742500008,196.67070391250007,65.0,78.0
871,196.61626842500007,197.07191361666673,58.0,58.0
872,197.10013942500007,197.49126848333339,70.0,80.0
873,197.10013942500007,197.6182846208334,63.0,79.0
874,197.10013942500007,197.62634913750006,66.0,78.0
875,197.58401042500006,198.1989298208334,58.0,60.0
876,198.06788142500005,198.53562339166672,70.0,81.0
877,198.06788142500005,198.59005887916675,63.0,79.0
878,198.06788142500005,198.61425242916673,66.0,76.0
879,197.10013942500007,198.6404621083334,51.0,76.0
880,198.55175242500007,199.11223633333339,58.0,78.0
881,199.03562342500007,199.51949442500006,68.0,76.0
882,199.03562342500007,199.54973636250006,65.0,78.0
883,199.03562342500007,199.5779621708334,61.0,72.0
884,199.51949442500006,200.10215575416674,58.0,71.0
885,200.00336542500006,200.56183320416673,68.0,75.0
886,200.00336542500006,200.57191385000007,65.0,83.0
887,200.00336542500006,200.57796223750006,61.0,77.0
888,199.03562342500007,200.6848170833334,49.0,78.0
889,200.48723642500005,200.7271557958334,58.0,77.0
890,200.97110742500007,201.44489777916672,66.0,73.0
891,200.97110742500007,201.44893003750008,59.0,79.0
892,200.97110742500007,201.47917197500007,63.0,73.0
893,201.45497842500006,202.07393007916673,54.0,60.0
894,200.97110742500007,202.40457526250006,47.0,79.0
895,201.93884942500006,202.5174784958334,59.0,75.0
896,201.93884942500006,202.52151075416674,63.0,76.0
897,201.93884942500006,202.5416720458334,66.0,79.0
898,202.42272042500008,202.8803817458334,54.0,76.0
899,202.90659142500007,203.28159145000006,61.0,79.0
900,202.90659142500007,203.31989790416674,65.0,83.0
901,202.90659142500007,203.4791721083334,68.0,79.0
902,203.39046242500007,203.97110762500006,56.0,62.0
903,203.63239792500008,203.99530117500007,61.0,32.0
904,204.11626892500007,204.2654624833334,66.0,79.0
905,203.87433342500006,204.26949474166673,65.0,84.0
906,202.90659142500007,204.42473668750006,49.0,75.0
907,204.35820442500005,204.45094636666673,66.0,52.0
908,204.35820442500005,204.6102205708334,63.0,76.0
909,204.84207542500008,205.33199481250006,68.0,79.0
910,204.60013992500006,205.3541722333334,59.0,76.0
911,204.84207542500008,205.38643030000006,63.0,79.0
912,205.32594642500007,205.90255936666674,51.0,71.0
913,205.80981742500006,206.1888497083334,56.0,53.0
914,204.84207542500008,206.23925293750005,44.0,78.0
915,205.80981742500006,206.3158658458334,63.0,81.0
916,205.80981742500006,206.3219142333334,59.0,80.0
917,205.80981742500006,206.3219142333334,68.0,80.0
918,206.29368842500006,206.36828520416674,51.0,83.0
919,206.77755942500005,207.3864304333334,59.0,77.0
920,206.77755942500005,207.39651107916671,66.0,80.0
921,206.77755942500005,207.52151108750007,63.0,76.0
922,206.77755942500005,207.97514015000007,47.0,76.0
923,206.77755942500005,208.21304339166673,35.0,81.0
924,207.74530142500006,208.23522081250007,63.0,78.0
925,207.74530142500006,208.24126920000006,66.0,78.0
926,207.74530142500006,208.2573982333334,59.0,79.0
927,208.22917242500006,208.33401114166674,47.0,73.0
928,208.71304342500008,209.2190918458334,70.0,86.0
929,208.71304342500008,209.43280153750007,63.0,79.0
930,208.71304342500008,209.45901121666674,66.0,81.0
931,208.71304342500008,209.81989833750006,51.0,72.0
932,209.68078542500007,210.1263499708334,70.0,84.0
933,209.68078542500007,210.2049790083334,63.0,80.0
934,209.68078542500007,210.23925320416674,66.0,83.0
935,208.71304342500008,210.26344675416672,39.0,56.0
936,210.16465642500006,210.2896564333334,51.0,71.0
937,210.64852742500005,211.3541726333334,68.0,79.0
938,210.64852742500005,211.3602210208334,65.0,83.0
939,210.64852742500005,211.38038231250005,61.0,77.0
940,211.37433392500006,211.59409200416673,58.0,49.0
941,211.61626942500007,211.9227210583334,61.0,74.0
942,211.61626942500007,211.92473718750006,65.0,74.0
943,211.61626942500007,211.97917267500006,68.0,79.0
944,210.64852742500005,212.0013500958334,46.0,80.0
945,211.85820492500005,212.1162694583334,58.0,58.0
946,212.10014042500006,212.3098178583334,65.0,71.0
947,212.34207592500007,212.64651142916674,68.0,73.0
948,212.58401142500006,213.13038242916673,66.0,79.0
949,212.58401142500006,213.1686888833334,63.0,82.0
950,212.58401142500006,213.17675340000005,59.0,75.0
951,212.58401142500006,213.81385021666674,56.0,62.0
952,213.55175342500007,214.08401152500005,59.0,80.0
953,213.55175342500007,214.08602765416674,66.0,82.0
954,213.55175342500007,214.10417281666673,63.0,82.0
955,212.58401142500006,214.12231797916672,44.0,78.0
956,214.03562442500007,214.18280185416674,56.0,71.0
957,214.51949542500006,215.09409223750006,68.0,80.0
958,214.51949542500006,215.17876966250006,65.0,83.0
959,214.51949542500006,215.1888503083334,61.0,79.0
960,214.51949542500006,215.60215678750006,58.0,79.0
961,215.48723742500005,215.9690922958334,65.0,82.0
962,215.48723742500005,215.9872374583334,68.0,74.0
963,215.48723742500005,216.03159230000006,61.0,74.0
964,215.97110842500007,216.05175359166674,58.0,83.0
965,214.51949542500006,216.06989875416673,46.0,86.0
966,216.45497942500006,216.92272139166673,39.0,81.0
967,216.93885042500006,217.04772140000006,51.0,83.0
968,216.45497942500006,217.74933435000005,66.0,78.0
969,216.45497942500006,217.77554402916672,70.0,81.0
970,217.42272142500008,217.7775601583334,53.0,79.0
971,216.45497942500006,217.86626984166674,63.0,77.0
972,217.90659242500007,217.97917307500006,54.0,79.0
973,218.39046342500006,218.4731247208334,63.0,77.0
974,218.39046342500006,218.47917310833338,75.0,83.0
975,218.63239892500007,218.6969150583334,77.0,80.0
976,218.63239892500007,218.70497957500007,65.0,60.0
977,218.87433442500006,218.96506023750007,66.0,63.0
978,218.87433442500006,218.97715701250007,78.0,80.0
979,219.11626992500007,219.22514090000007,68.0,58.0
980,219.11626992500007,219.23925380416674,80.0,82.0
981,219.35820542500005,219.46837479166672,70.0,62.0
982,219.35820542500005,219.46837479166672,82.0,84.0
983,219.61244242500004,219.7035440166667,85.0,56.0
984,219.61244242500004,219.73956092500006,73.0,69.0
985,218.39046342500006,219.82218795000006,39.0,79.0
986,219.86667942500006,219.91328954166673,87.0,75.0
987,219.86667942500006,219.93659460000006,75.0,41.0
988,220.12091642500005,220.19295024166672,77.0,52.0
989,219.86667942500006,220.5259470833334,51.0,87.0
990,220.37515342500006,220.76602646041673,78.0,79.0
991,220.37515342500006,220.77396296875006,71.0,90.0
992,220.37515342500006,220.78388360416673,75.0,82.0
993,220.37515342500006,220.80174074791674,66.0,80.0
994,220.37515342500006,221.32753442500007,47.0,83.0
995,220.85134392500007,221.4426137958334,54.0,62.0
996,221.32753442500007,221.4426137958334,63.0,81.0
997,221.32753442500007,221.44459792291673,66.0,83.0
998,221.32753442500007,221.47634395625008,71.0,95.0
999,221.32753442500007,221.48626459166672,59.0,77.0
1000,221.80372492500007,222.07753446250007,65.0,82.0
1001,221.80372492500007,222.08348684375005,49.0,79.0
1002,221.80372492500007,222.10531224166672,61.0,81.0
1003,221.80372492500007,222.12515351250008,56.0,80.0
1004,221.80372492500007,222.14102652916674,68.0,82.0
1005,222.27991542500007,222.94062974375007,70.0,90.0
1006,222.27991542500007,223.05967736875007,61.0,83.0
1007,222.27991542500007,223.06364562291674,66.0,86.0
1008,222.27991542500007,223.5378519958334,54.0,79.0
1009,223.70848692500007,223.81364566041674,54.0,82.0
1010,223.23229642500007,223.8176139145834,61.0,84.0
1011,223.23229642500007,223.8176139145834,66.0,86.0
1012,223.23229642500007,223.83943931250008,70.0,90.0
1013,224.18467742500007,224.5250620687501,56.0,81.0
1014,224.18467742500007,224.70006208333342,66.0,86.0
1015,224.18467742500007,224.70775439166675,44.0,83.0
1016,224.18467742500007,224.7154467000001,71.0,93.0
1017,224.18467742500007,224.73660054791674,63.0,91.0
1018,224.64621592500006,224.77890824375007,56.0,68.0
1019,225.10775442500008,225.62759572083343,61.0,83.0
1020,225.10775442500008,225.6434687375001,49.0,91.0
1021,225.10775442500008,225.64942111875007,65.0,86.0
1022,225.10775442500008,225.64942111875007,68.0,83.0
1023,226.06013542500008,226.4835225500001,70.0,90.0
1024,226.06013542500008,226.55610320000008,63.0,90.0
1025,226.06013542500008,226.5621515875001,66.0,86.0
1026,226.7859419250001,226.96537742083342,63.0,72.0
1027,227.02787742500007,227.1891677583334,63.0,75.0
1028,227.02787742500007,227.2093290500001,66.0,75.0
1029,227.03594194166675,227.2214258250001,70.0,75.0
1030,226.54400642500008,227.3605387375001,58.0,73.0
1031,227.26981292500008,227.50166777916675,63.0,83.0
1032,227.5117484250001,227.61053875416675,58.0,80.0
1033,226.06013542500008,227.6730387583334,51.0,86.0
1034,227.75368392500008,227.8484419958334,71.0,75.0
1035,227.75368392500008,227.90489361250008,70.0,67.0
1036,227.9956194250001,228.3765718250001,59.0,83.0
1037,227.9956194250001,228.37855595208342,63.0,84.0
1038,227.9956194250001,228.4202226208334,68.0,83.0
1039,228.4718099250001,229.1206194812501,56.0,60.0
1040,227.9956194250001,229.31506393541676,44.0,83.0
1041,228.9480004250001,229.44800045000008,66.0,84.0
1042,228.9480004250001,229.4658575937501,63.0,83.0
1043,228.9480004250001,229.69006395416676,71.0,93.0
1044,229.4241909250001,229.83688935833342,56.0,79.0
1045,229.9003814250001,230.28530207916674,71.0,27.0
1046,229.9003814250001,230.33887351041676,61.0,78.0
1047,229.9003814250001,230.36268303541675,65.0,74.0
1048,229.9003814250001,230.37260367083343,68.0,72.0
1049,230.3765719250001,230.93014338125008,56.0,73.0
1050,230.8527624250001,231.10276243750008,73.0,86.0
1051,230.8527624250001,231.15831799583341,68.0,78.0
1052,230.8527624250001,231.27934974791674,65.0,78.0
1053,229.9003814250001,231.32300054375008,49.0,86.0
1054,230.8527624250001,231.33292117916676,61.0,75.0
1055,231.3289529250001,231.4301434062501,56.0,76.0
1056,231.3289529250001,231.52934976041675,71.0,75.0
1057,231.8051434250001,232.50157203125008,70.0,86.0
1058,231.8051434250001,232.56307997083343,61.0,82.0
1059,231.8051434250001,232.5849053687501,66.0,81.0
1060,231.8051434250001,233.09284190208342,54.0,73.0
1061,232.7575244250001,233.1583180958334,70.0,83.0
1062,232.7575244250001,233.16427047708342,66.0,86.0
1063,232.7575244250001,233.33292127916675,61.0,83.0
1064,233.23371492500007,233.35673080416674,68.0,82.0
1065,233.23371492500007,233.36268318541676,54.0,80.0
1066,233.70990542500007,234.16625465416675,61.0,82.0
1067,233.70990542500007,234.20395306875008,66.0,84.0
1068,233.70990542500007,234.23371497500008,70.0,84.0
1069,234.18609592500007,234.67220706041675,58.0,72.0
1070,234.4241911750001,234.79323881250008,63.0,75.0
1071,234.66228642500008,234.9301435812501,65.0,86.0
1072,234.9003816750001,235.17815946666676,66.0,82.0
1073,235.13847692500008,235.23768327916676,58.0,84.0
1074,233.70990542500007,235.26546105833341,51.0,82.0
1075,235.13847692500008,235.33292137916675,65.0,73.0
1076,235.3765721750001,235.57101662916676,61.0,90.0
1077,235.61466742500008,235.96188966458342,63.0,86.0
1078,235.61466742500008,235.9837150625001,66.0,84.0
1079,235.61466742500008,236.3289531750001,47.0,86.0
1080,236.09085792500008,236.49165159583342,54.0,73.0
1081,236.56704842500008,237.0908579750001,71.0,84.0
1082,236.56704842500008,237.09879448333342,65.0,83.0
1083,236.56704842500008,237.09879448333342,68.0,62.0
1084,236.56704842500008,237.11069924583342,49.0,91.0
1085,236.56704842500008,237.1226040083334,61.0,84.0
1086,237.04323892500008,237.17419131250008,56.0,82.0
1087,237.51942942500008,237.90633420625008,70.0,90.0
1088,237.51942942500008,237.9122865875001,61.0,83.0
1089,237.51942942500008,237.98966754375007,66.0,84.0
1090,237.99561992500009,238.21188977708343,61.0,71.0
1091,238.4718104250001,238.78927075833343,73.0,96.0
1092,238.4718104250001,238.81506441041677,66.0,78.0
1093,238.4718104250001,238.85077869791675,61.0,90.0
1094,237.51942942500008,238.9480009250001,54.0,84.0
1095,238.9480009250001,239.3230009437501,70.0,91.0
1096,239.4241914250001,239.56506444791674,54.0,59.0
1097,239.4241914250001,240.03530256666676,66.0,83.0
1098,239.4241914250001,240.05117558333342,56.0,60.0
1099,239.4241914250001,240.05117558333342,63.0,90.0
1100,239.4241914250001,240.1047470145834,71.0,86.0
1101,240.3765724250001,240.9122867375001,49.0,82.0
1102,240.3765724250001,240.92815975416676,65.0,84.0
1103,240.3765724250001,240.9539534062501,68.0,86.0
1104,240.3765724250001,240.95792166041676,61.0,83.0
1105,241.3289534250001,241.73173122291675,70.0,90.0
1106,241.3289534250001,241.7773661458334,63.0,83.0
1107,241.3289534250001,241.82101694166676,66.0,84.0
1108,241.8051439250001,242.27935029791675,58.0,76.0
1109,242.04323917500008,242.35673125416676,63.0,76.0
1110,242.2813344250001,242.54919158125008,65.0,83.0
1111,242.51942967500008,242.64442968125007,58.0,75.0
1112,242.51942967500008,242.7575249250001,61.0,83.0
1113,242.51942967500008,242.8130804833334,66.0,83.0
1114,241.3289534250001,242.84482651666676,51.0,86.0
1115,242.7575249250001,242.8527630250001,58.0,78.0
1116,242.99562017500008,243.16823923125008,68.0,81.0
1117,243.2337154250001,244.01942975000009,59.0,80.0
1118,243.2337154250001,244.02339800416675,68.0,81.0
1119,243.2337154250001,244.0392710208334,63.0,82.0
1120,243.2337154250001,244.4856996145834,56.0,67.0
1121,244.18609642500007,244.8606996333334,59.0,84.0
1122,244.18609642500007,244.94601709791675,68.0,84.0
1123,243.2337154250001,245.00554091041676,44.0,80.0
1124,244.18609642500007,245.02935043541675,63.0,84.0
1125,244.66228692500007,245.22776314375008,56.0,43.0
1126,245.13847742500008,245.85673142916676,68.0,82.0
1127,245.13847742500008,245.8845092083334,65.0,83.0
1128,245.13847742500008,245.92220762291674,61.0,84.0
1129,245.13847742500008,246.3468108187501,49.0,86.0
1130,246.09085842500008,246.5730013062501,65.0,78.0
1131,246.09085842500008,246.5849060687501,68.0,79.0
1132,246.09085842500008,246.65633464375009,61.0,83.0
1133,246.56704892500008,246.6741917875001,49.0,79.0
1134,247.04323942500008,248.00752518750008,63.0,79.0
1135,247.04323942500008,248.00950931458343,66.0,83.0
1136,247.04323942500008,248.05316011041674,71.0,86.0
1137,247.99562042500008,248.26744583541677,59.0,79.0
1138,247.04323942500008,248.29323948750007,47.0,75.0
1139,248.2337156750001,248.41030298541676,63.0,79.0
1140,248.47181092500009,248.69800141250008,66.0,78.0
1141,248.9480014250001,250.23173164791675,49.0,80.0
1142,248.70990617500007,250.30316022291674,65.0,72.0
1143,248.9480014250001,250.31308085833342,56.0,78.0
1144,248.70990617500007,250.33292212916675,61.0,56.0
1145,248.70990617500007,250.39641419583342,68.0,76.0
1146,250.8527634250001,251.04125549791675,39.0,84.0
1147,251.09085867500008,251.33689043333342,51.0,55.0
1148,250.8527634250001,251.68212854583342,70.0,81.0
1149,250.8527634250001,251.69998568958343,66.0,78.0
1150,250.8527634250001,251.94601744791674,63.0,68.0
1151,252.04323967500008,252.19006507916674,65.0,82.0
1152,251.8051444250001,252.20196984166677,58.0,78.0
1153,252.2813349250001,252.4539539812501,66.0,80.0
1154,251.3289539250001,252.4658587437501,53.0,72.0
1155,251.56704917500008,252.47974763333343,54.0,79.0
1156,252.51943017500008,252.88054130416674,63.0,83.0
1157,252.51943017500008,252.93212860833341,68.0,80.0
1158,252.99562067500008,253.12855718958343,63.0,84.0
1159,252.99562067500008,253.15236671458342,70.0,98.0
1160,253.47181117500008,253.59681118125008,63.0,76.0
1161,253.47181117500008,253.60673181666675,66.0,78.0
1162,253.2337159250001,253.61665245208343,58.0,75.0
1163,253.7099064250001,253.94800167500009,63.0,82.0
1164,253.7099064250001,253.97181120000008,66.0,84.0
1165,253.94800167500009,254.2833191520834,58.0,82.0
1166,252.7575254250001,254.28728740625007,51.0,80.0
1167,254.18609692500007,254.42022392083342,61.0,83.0
1168,254.18609692500007,254.44006519166675,65.0,82.0
1169,254.4241921750001,254.57498583333341,66.0,82.0
1170,254.6622874250001,255.21189062708342,61.0,79.0
1171,254.6622874250001,255.22577951666676,63.0,79.0
1172,254.6622874250001,255.23966840625008,66.0,83.0
1173,254.6622874250001,255.3349065062501,47.0,84.0
1174,255.13847792500007,255.53331921458343,54.0,79.0
1175,255.61466842500008,256.16625575416674,65.0,84.0
1176,255.61466842500008,256.16625575416674,68.0,82.0
1177,255.61466842500008,256.1920494062501,61.0,83.0
1178,255.61466842500008,256.1940335333334,49.0,83.0
1179,256.0908589250001,256.2218113125001,56.0,83.0
1180,256.3289541750001,256.40831925833345,61.0,46.0
1181,256.5670494250001,257.02141452708344,66.0,80.0
1182,256.5670494250001,257.0233986541667,61.0,80.0
1183,256.5670494250001,257.0333192895834,70.0,84.0
1184,257.0432399250001,257.3686367666668,54.0,69.0
1185,257.2813351750001,257.42617645208344,66.0,72.0
1186,257.2813351750001,257.47776375625006,73.0,83.0
1187,257.2813351750001,257.4837161375001,61.0,78.0
1188,257.75752567500007,257.79125583541673,66.0,46.0
1189,257.5194304250001,257.8190336145834,54.0,54.0
1190,256.5670494250001,258.03331933958344,42.0,90.0
1191,257.75752567500007,258.07498600833344,61.0,82.0
1192,257.75752567500007,258.1047479145834,70.0,94.0
1193,257.9956209250001,258.11665267708344,54.0,60.0
1194,258.4718114250001,258.9241924000001,66.0,78.0
1195,258.4718114250001,258.9380812895834,47.0,84.0
1196,258.4718114250001,258.9480019250001,71.0,81.0
1197,258.4718114250001,258.9618908145834,63.0,75.0
1198,258.9480019250001,259.05117653333343,59.0,53.0
1199,259.4241924250001,259.7891118041668,61.0,79.0
1200,259.4241924250001,259.8536279375001,65.0,82.0
1201,259.4241924250001,259.8717731000001,68.0,78.0
1202,259.4241924250001,260.0008053666668,49.0,81.0
1203,259.4241924250001,260.01693440000014,56.0,73.0
1204,259.90806342500014,260.1157247291668,61.0,79.0
1205,260.3919344250001,260.6943538000001,70.0,86.0
1206,260.3919344250001,260.8677409083335,66.0,81.0
1207,260.3919344250001,260.9060473625001,63.0,84.0
1208,260.8758054250001,261.29112803333345,58.0,75.0
1209,261.11774092500013,261.44032159166676,63.0,71.0
1210,261.3596764250001,261.61774095833346,65.0,82.0
1211,261.6016119250001,261.73870870833343,58.0,80.0
1212,260.3919344250001,261.87378936250013,51.0,79.0
1213,261.8435474250001,261.9705635625001,58.0,80.0
1214,261.8435474250001,262.1036280875001,66.0,86.0
1215,262.0854829250001,262.2104829333334,65.0,78.0
1216,262.32741842500013,262.54717650416677,63.0,40.0
1217,262.32741842500013,262.69435393333345,44.0,79.0
1218,262.5693539250001,262.7770152291668,51.0,77.0
1219,262.8112894250001,263.1016120250001,56.0,62.0
1220,262.32741842500013,263.29717655416675,71.0,90.0
1221,263.53709592500013,263.68628948333344,63.0,76.0
1222,263.2951604250001,263.7024185166668,59.0,80.0
1223,263.0532249250001,263.7245959375001,58.0,76.0
1224,263.77903142500014,263.99475724583345,66.0,76.0
1225,264.2629024250001,264.58213322083344,61.0,72.0
1226,264.0209669250001,264.63982553333346,71.0,84.0
1227,264.2629024250001,264.6763639979168,65.0,75.0
1228,264.2629024250001,264.7705947750001,68.0,73.0
1229,264.4936716750001,265.1340563437501,56.0,72.0
1230,264.7244409250001,265.26290250833347,61.0,69.0
1231,264.9552101750001,265.4744409875001,63.0,69.0
1232,265.1859794250001,265.5148256062501,65.0,75.0
1233,264.2629024250001,265.6071333062501,49.0,80.0
1234,265.4167486750001,265.6379025395834,56.0,76.0
1235,265.6475179250001,265.7898256291668,66.0,74.0
1236,266.1090564250001,266.5102661291668,70.0,90.0
1237,266.1090564250001,266.6655080750001,66.0,82.0
1238,266.1090564250001,266.70179840000014,61.0,80.0
1239,267.0767984250001,267.2360726291668,61.0,77.0
1240,266.1090564250001,267.2925242458335,42.0,83.0
1241,266.59292742500014,267.34695973333345,49.0,75.0
1242,267.3187339250001,267.41349199583345,61.0,34.0
1243,267.3187339250001,267.52437910000015,66.0,78.0
1244,267.5606694250001,267.60502426666676,53.0,75.0
1245,267.5606694250001,267.6816371750001,61.0,69.0
1246,266.8348629250001,267.7300242750001,54.0,60.0
1247,267.5606694250001,267.7925242791668,68.0,78.0
1248,267.80260492500014,267.9134920291668,61.0,73.0
1249,268.0445404250001,268.23002430833344,61.0,80.0
1250,268.0445404250001,268.47800819583347,70.0,84.0
1251,268.0445404250001,268.5284114250001,66.0,82.0
1252,268.2864759250001,268.6977662750001,58.0,73.0
1253,268.5284114250001,268.8005888625001,63.0,73.0
1254,268.7703469250001,268.88526628750014,65.0,62.0
1255,268.7703469250001,268.9114759666668,68.0,73.0
1256,269.01228242500014,269.27204805000014,65.0,83.0
1257,269.01228242500014,269.28767305000014,68.0,76.0
1258,269.24665742500014,269.40876680000014,58.0,79.0
1259,269.48103242500014,269.59236055000014,58.0,82.0
1260,268.0445404250001,269.60603242500014,51.0,83.0
1261,269.48103242500014,269.64704805000014,70.0,84.0
1262,269.48103242500014,269.70564180000014,61.0,83.0
1263,269.48103242500014,269.72907930000014,66.0,76.0
1264,269.71540742500014,269.86189180000014,68.0,76.0
1265,269.94978242500014,270.2360727666668,63.0,84.0
1266,269.94978242500014,270.2441372833335,66.0,86.0
1267,269.94978242500014,270.28042760833347,71.0,95.0
1268,269.94978242500014,270.68163731250013,47.0,83.0
1269,270.6755889250001,270.8106695791668,59.0,72.0
1270,270.43365342500016,270.9517986208335,54.0,71.0
1271,270.9175244250001,271.04857282083344,75.0,78.0
1272,270.9175244250001,271.0687341125001,87.0,86.0
1273,270.9175244250001,271.4538147833335,49.0,83.0
1274,271.40139542500015,271.4800244625001,77.0,84.0
1275,271.15945992500014,271.4981696250001,56.0,73.0
1276,271.40139542500015,271.5122825291668,89.0,94.0
1277,271.40139542500015,271.68365350833346,61.0,71.0
1278,271.8852664250001,272.1253458020835,90.0,84.0
1279,271.8852664250001,272.2443934270834,78.0,76.0
1280,272.5995521750001,272.9566950500001,70.0,80.0
1281,272.1233616750001,272.9666156854168,61.0,72.0
1282,272.3614569250001,273.04796489583345,66.0,69.0
1283,273.07574267500013,273.2483617312501,78.0,76.0
1284,271.8852664250001,273.40709189791676,54.0,79.0
1285,273.3138379250001,273.41106015208345,61.0,82.0
1286,273.3138379250001,273.50828237916676,73.0,83.0
1287,273.7900284250001,274.0578855812501,75.0,79.0
1288,273.7900284250001,274.12931415625013,66.0,80.0
1289,273.7900284250001,274.3019332125001,44.0,83.0
1290,274.02812367500013,274.3713776604168,51.0,80.0
1291,274.5043141750001,274.60748878333345,61.0,57.0
1292,274.2662189250001,274.6689967229168,56.0,73.0
1293,274.7424094250001,275.0380443604168,68.0,83.0
1294,274.7424094250001,275.0697903937501,61.0,83.0
1295,274.7424094250001,275.0697903937501,65.0,79.0
1296,274.98050467500013,275.28407611875014,56.0,71.0
1297,274.7424094250001,275.3098697708335,49.0,84.0
1298,275.2185999250001,275.50034597083345,61.0,72.0
1299,275.4566951750001,275.59756819791676,71.0,86.0
1300,275.6947904250001,275.9685999625001,63.0,76.0
1301,275.6947904250001,276.10352060416676,66.0,80.0
1302,275.6947904250001,276.10748885833345,70.0,83.0
1303,275.93288567500014,276.3773301416668,58.0,69.0
1304,276.1709809250001,276.42494919166677,63.0,63.0
1305,276.4090761750001,276.51820316458344,66.0,71.0
1306,276.6471714250001,276.9487587416668,66.0,82.0
1307,276.88526667500014,277.14915557708343,58.0,78.0
1308,275.6947904250001,277.1868539916668,51.0,81.0
1309,276.88526667500014,277.1868539916668,61.0,79.0
1310,276.88526667500014,277.21264764375013,68.0,81.0
1311,277.3614571750001,277.50629845208346,70.0,86.0
1312,277.5995524250001,278.2781238875001,63.0,80.0
1313,277.5995524250001,278.2781238875001,68.0,82.0
1314,277.5995524250001,278.2781238875001,71.0,86.0
1315,277.5995524250001,278.8356635979168,56.0,73.0
1316,278.55193342500013,278.96661598541675,68.0,79.0
1317,278.55193342500013,279.0082826541668,71.0,86.0
1318,278.55193342500013,279.0142350354168,63.0,80.0
1319,277.5995524250001,279.0281239250001,44.0,79.0
1320,279.0281239250001,279.3535207666668,56.0,69.0
1321,279.50431442500013,279.9666160354168,65.0,73.0
1322,279.50431442500013,279.9924096875001,68.0,80.0
1323,279.50431442500013,280.03804461041676,61.0,76.0
1324,279.9805049250001,280.65113987916675,56.0,50.0
1325,280.45669542500013,280.8912192562501,65.0,81.0
1326,279.50431442500013,280.97058433958347,49.0,81.0
1327,280.45669542500013,280.9805049750001,61.0,75.0
1328,280.45669542500013,280.98248910208343,68.0,73.0
1329,280.9328859250001,281.00431450000013,56.0,67.0
1330,281.40907642500014,282.08963201458346,63.0,78.0
1331,281.40907642500014,282.09558439583344,61.0,74.0
1332,281.40907642500014,282.1015367770834,71.0,80.0
1333,281.40907642500014,282.1174097937501,66.0,78.0
1334,281.40907642500014,282.31582250208345,59.0,72.0
1335,281.40907642500014,282.45405000833347,54.0,76.0
1336,281.40907642500014,282.47488333958347,47.0,78.0
1337,282.36145742500014,282.54895740625017,61.0,81.0
1338,282.36145742500014,282.5813648104168,63.0,78.0
1339,282.36145742500014,282.5998833270835,66.0,80.0
1340,282.91701292500017,284.44444342500014,61.0,80.0
1341,282.91701292500017,284.44444342500014,65.0,90.0
1342,282.91701292500017,284.61944342500016,68.0,78.0
1343,285.23572617500014,285.62388385625013,73.0,58.0
1344,285.32344542500016,285.75546273125013,77.0,75.0
1345,285.45502430000016,285.81467322500015,80.0,61.0
1346,282.91701292500017,285.89581353125016,49.0,70.0
1347,285.49888392500014,285.96598893125014,85.0,50.0
1348,282.91701292500017,285.9791468187501,37.0,80.0
1349,288.8925465083335,289.3686410458335,63.0,30.0
1350,288.9563220291668,289.5258991208335,66.0,67.0
1351,289.01244448750015,289.5359797666668,70.0,79.0
1352,289.4976733125002,290.0984798041668,58.0,61.0
1353,290.01178625000017,290.43718950416684,63.0,38.0
1354,290.0218668958335,290.5783185458335,70.0,77.0
1355,290.0158185083335,290.61057661250015,66.0,73.0
1356,288.9716281541668,290.62872177500014,51.0,72.0
1357,290.5541249958335,290.9271088916668,58.0,75.0
1358,291.08436696666683,291.68045623750015,66.0,59.0
1359,291.0803347083335,291.70168264375013,63.0,53.0
1360,291.08638309583347,291.76064488333344,70.0,61.0
1361,291.6403619145835,292.2299843104168,58.0,59.0
1362,292.1663050916668,292.5554558729168,61.0,56.0
1363,292.20404092500013,292.6545124354168,70.0,76.0
1364,291.0944476125002,292.7040407166668,49.0,69.0
1365,292.21347488333345,292.70875769583347,66.0,75.0
1366,292.6733803520835,292.7512105083335,58.0,72.0
1367,293.2040405083335,293.6911268125001,70.0,73.0
1368,293.2063989979168,293.6931759937501,63.0,56.0
1369,293.2063989979168,293.7177661687501,66.0,56.0
1370,293.7382579812501,294.2771926500001,54.0,57.0
1371,294.2915369187501,294.8615020250001,59.0,42.0
1372,294.2874385562501,294.9351627687501,70.0,63.0
1373,293.2205499354168,294.9931985062501,47.0,79.0
1374,294.2935861000001,295.0088235125001,66.0,54.0
1375,294.2792418312501,295.0289128062501,63.0,56.0
1376,294.9485556312501,295.09364497500013,54.0,79.0
1377,295.55793086250014,296.07833911250015,65.0,75.0
1378,295.5630329041668,296.07833911250015,68.0,70.0
1379,295.5655839250001,296.0987472791668,61.0,63.0
1380,296.07833911250015,296.9877779187501,58.0,53.0
1381,296.70078819583347,297.3776587541668,65.0,70.0
1382,295.5655839250001,297.38956351250016,46.0,78.0
1383,296.7058902375001,297.4103968395835,61.0,68.0
1384,296.7058902375001,297.64849200625014,73.0,80.0
1385,298.36575369583346,300.2734912187501,63.0,62.0
1386,298.4014679708335,300.33599120000014,66.0,79.0
1387,298.46099176250016,300.40741975000014,70.0,73.0
1388,298.46396795208346,300.42825307708347,73.0,18.0
1389,301.0473005104168,301.37468136458347,75.0,43.0
1390,301.1425385770835,301.40741945000013,78.0,30.0
1391,301.2199195062501,301.4461099145835,82.0,55.0
1392,301.39849088125015,301.5562289291668,87.0,58.0
1393,298.4074203500001,301.7139669770835,39.0,84.0
