,start,end,pitch,velocity
0,17.959089412500003,18.606816631250002,68.0,99.0
1,18.777271162500003,18.913634787500005,60.0,71.0
2,19.049998412500003,19.359089295833336,60.0,76.0
3,19.3227256625,19.670452906250002,68.0,89.0
4,19.868180162500003,20.106816506250002,60.0,77.0
5,20.140907412500002,20.43181647916667,62.0,69.0
6,20.686361912500004,20.920452802083336,62.0,82.0
7,20.959089162500003,21.179543689583337,60.0,59.0
8,21.231816412500002,22.104543612500002,58.0,72.0
9,22.322725412500002,22.679543564583337,60.0,83.0
10,22.868179912500004,23.256816243750006,56.0,66.0
11,23.413634412500002,23.73181620416667,56.0,65.0
12,23.959088912500004,24.18636162083334,56.0,77.0
13,24.231816162500003,24.381816150000002,58.0,89.0
14,24.504543412500006,25.009088825000003,60.0,90.0
15,25.322725162500003,25.452270606250003,58.0,70.0
16,25.595452412500006,26.120452368750005,60.0,79.0
17,26.686361412500005,26.788634131250003,61.0,93.0
18,26.959088662500005,27.224997731250003,61.0,92.0
19,27.504543162500006,27.64999769583334,60.0,75.0
20,27.777270412500005,28.16363401666667,61.0,81.0
21,28.322724912500004,28.670452156250004,65.0,78.0
22,28.868179412500005,29.229543018750004,60.0,85.0
23,29.413633912500003,29.588633897916672,58.0,79.0
24,29.686361162500006,29.797724789583338,56.0,78.0
25,29.959088412500005,30.63863381041667,60.0,93.0
26,31.049997412500005,31.693179177083337,60.0,90.0
27,31.868179162500006,31.99317915208334,60.0,79.0
28,32.14090641250001,32.49317911041667,60.0,81.0
29,32.68636091250001,33.00908815833334,56.0,82.0
30,33.231815412500005,33.41136085208334,55.0,74.0
31,33.50454266250001,33.67499719375001,56.0,70.0
32,33.7772699125,34.30681532291667,61.0,73.0
33,34.32272441250001,35.16363343333334,60.0,70.0
34,35.413633412500005,36.00226972708334,68.0,112.0
35,36.231815162500006,36.354542425000005,65.0,74.0
36,36.50454241250001,36.64317876458334,65.0,82.0
37,36.777269662500004,37.12726963333334,68.0,93.0
38,37.32272416250001,37.45681506041667,65.0,74.0
39,37.595451412500005,38.24545135833334,68.0,107.0
40,38.413633162500005,38.66590586875001,60.0,72.0
41,38.68636041250001,39.33636035833334,67.0,90.0
42,39.777269412500004,40.138633018750006,67.0,88.0
43,40.32272391250001,40.53181480416667,67.0,82.0
44,40.595451162500005,40.806814781250004,65.0,59.0
45,40.86817841250001,41.256814743750006,68.0,93.0
46,41.413632912500006,41.66817834583334,67.0,88.0
47,41.68636016250001,41.91136014375001,65.0,71.0
48,41.959087412500004,42.59317826875001,63.0,82.0
49,42.50454191250001,42.59317826875001,63.0,93.0
50,42.777269162500005,42.95908732916667,58.0,75.0
51,43.04999641250001,43.83408725625001,60.0,76.0
52,44.140905412500004,44.345450850000006,58.0,72.0
53,44.41363266250001,44.799996266666675,61.0,85.0
54,44.959087162500005,45.095450787500006,58.0,69.0
55,45.23181441250001,45.40226894375001,60.0,85.0
56,45.50454166250001,45.81590527291667,61.0,76.0
57,46.04999616250001,46.27726887083334,61.0,95.0
58,46.32272341250001,46.63635975000001,60.0,78.0
59,46.595450662500006,47.12272334583334,68.0,70.0
60,47.140905162500005,47.82726874166667,65.0,72.0
61,48.23181416250001,48.47272323333334,65.0,82.0
62,48.50454141250001,49.106814089583345,70.0,96.0
63,49.32272316250001,49.43863224375001,68.0,86.0
64,49.59545041250001,49.804541304166676,68.0,90.0
65,49.86817766250001,50.19545036250001,70.0,99.0
66,50.41363216250001,50.53181397083334,68.0,93.0
67,50.68635941250001,50.98863211458334,70.0,99.0
68,51.23181391250001,51.34999572083334,67.0,79.0
69,51.50454116250001,52.286359279166675,70.0,107.0
70,52.86817741250001,52.98635922083334,68.0,95.0
71,53.140904662500006,53.26817737916667,68.0,70.0
72,53.41363191250001,53.55226826458334,68.0,95.0
73,53.68635916250001,53.81363187916668,67.0,63.0
74,53.95908641250001,54.55908636250001,68.0,99.0
75,54.77726816250001,55.184086310416674,67.0,96.0
76,55.32272266250001,55.440904470833345,72.0,93.0
77,55.59544991250001,55.76363171666667,72.0,88.0
78,55.86817716250001,56.02499533125001,70.0,99.0
79,56.14090441250001,56.67499527708334,72.0,107.0
80,57.23181341250001,57.34999522083334,65.0,92.0
81,57.50454066250001,57.61590428958334,65.0,81.0
82,57.77726791250001,57.904540629166675,65.0,86.0
83,58.04999516250001,58.17499515208334,67.0,83.0
84,58.322722412500006,58.73408601458334,68.0,122.0
85,58.86817691250001,59.18181325000001,65.0,102.0
86,59.41363141250001,59.59772230625001,64.0,88.0
87,59.68635866250001,59.84772228541668,65.0,72.0
88,59.95908591250001,60.21135861875001,67.0,109.0
89,60.23181316250001,60.502267685416676,64.0,85.0
90,60.50454041250001,61.21135853541668,60.0,85.0
91,61.04999491250001,61.24090398750001,58.0,89.0
92,61.32272216250001,61.49090396666668,60.0,72.0
93,61.59544941250001,61.795449395833344,61.0,102.0
94,61.86817666250001,62.05226755625001,60.0,81.0
95,62.14090391250001,62.299994808333345,58.0,75.0
96,62.41363116250001,62.56363115000001,60.0,75.0
97,62.68635841250001,63.19544927916668,61.0,95.0
98,62.95908566250001,63.28863108958335,72.0,90.0
99,63.504540162500014,63.86135831458334,70.0,93.0
100,64.04999466250001,64.49090371666668,72.0,96.0
101,64.32272191250001,64.55908552916668,67.0,83.0
102,64.59544916250002,65.73181270416667,68.0,99.0
103,65.95908541250002,66.04317631458335,70.0,102.0
104,66.2318126625,66.32726720000001,70.0,88.0
105,66.50453991250001,66.62272172083334,70.0,97.0
106,66.77726716250001,66.90908533333335,70.0,100.0
107,67.04999441250001,67.37726711250001,70.0,107.0
108,67.32272166250002,67.76135798958335,65.0,88.0
109,67.8681761625,68.30681248958335,72.0,117.0
110,68.41363066250001,68.59999428333334,67.0,92.0
111,68.68635791250001,68.92726698333334,67.0,83.0
112,68.95908516250002,69.66135783125002,72.0,96.0
113,70.32272141250002,70.44090322083335,68.0,95.0
114,70.59544866250002,70.72272137916669,68.0,70.0
115,70.8681759125,71.00681226458335,68.0,95.0
116,71.14090316250001,71.26817587916668,67.0,63.0
117,71.41363041250001,72.01363036250001,68.0,99.0
118,72.2318121625,72.63863031041667,67.0,96.0
119,72.77726666250001,72.89544847083334,72.0,93.0
120,73.04999391250001,73.21817571666668,72.0,88.0
121,73.32272116250002,73.47953933125001,70.0,99.0
122,73.59544841250002,74.12953927708334,72.0,107.0
123,74.68635741250002,74.80453922083335,65.0,92.0
124,74.95908466250002,75.07044828958334,65.0,81.0
125,75.2318119125,75.35908462916667,65.0,86.0
126,75.50453916250001,75.62953915208334,67.0,83.0
127,75.77726641250001,76.18863001458335,68.0,122.0
128,76.32272091250002,76.63635725000002,65.0,102.0
129,76.86817541250001,77.05226630625002,64.0,88.0
130,77.14090266250001,77.30226628541668,65.0,72.0
131,77.41362991250001,77.66590261875001,67.0,72.0
132,77.68635716250002,77.95681168541668,64.0,85.0
133,77.95908441250002,78.38635710416668,60.0,85.0
134,78.50453891250001,78.69544798750002,58.0,89.0
135,78.77726616250001,78.94544796666668,60.0,72.0
136,79.04999341250002,79.24999339583334,61.0,102.0
137,79.32272066250002,79.50681155625001,60.0,81.0
138,79.59544791250002,79.75453880833335,58.0,75.0
139,79.86817516250001,80.01817515000002,60.0,75.0
140,80.14090241250001,80.64999327916668,61.0,95.0
141,80.41362966250001,80.74317508958335,72.0,90.0
142,80.95908416250002,81.31590231458334,70.0,93.0
143,81.50453866250001,81.94544771666668,72.0,96.0
144,81.77726591250001,82.01362952916668,67.0,83.0
145,82.04999316250002,83.18635670416668,68.0,99.0
146,83.41362941250001,83.66135666458335,65.0,96.0
147,83.68635666250002,83.83181119583335,68.0,82.0
148,83.95908391250002,84.10681117291668,70.0,96.0
149,84.23181116250001,84.42499296458335,72.0,83.0
150,84.50453841250001,84.73635657500002,67.0,89.0
151,84.77726566250001,85.06817472916669,70.0,100.0
152,85.32272016250002,85.59090195833335,68.0,100.0
153,85.86817466250001,86.17499281875001,67.0,88.0
154,86.14090191250001,87.66590178541668,65.0,82.0
155,107.41362741250002,107.53180922083335,68.0,95.0
156,107.68635466250002,107.81362737916669,68.0,70.0
157,107.95908191250003,108.09771826458335,68.0,95.0
158,108.23180916250001,108.35908187916668,67.0,63.0
159,108.50453641250002,109.10453636250001,68.0,99.0
160,109.32271816250002,109.72953631041669,67.0,96.0
161,109.86817266250002,109.98635447083335,72.0,93.0
162,110.14089991250002,110.30908171666668,72.0,88.0
163,110.41362716250002,110.57044533125001,70.0,99.0
164,110.68635441250002,111.22044527708336,72.0,107.0
165,111.77726341250002,111.89544522083335,65.0,92.0
166,112.04999066250002,112.16135428958336,65.0,81.0
167,112.32271791250002,112.44999062916669,65.0,86.0
168,112.59544516250001,112.72044515208336,67.0,83.0
169,112.86817241250002,113.27953601458336,68.0,122.0
170,113.41362691250002,113.72726325000002,65.0,102.0
171,113.95908141250001,114.14317230625002,64.0,88.0
172,114.23180866250001,114.39317228541668,65.0,72.0
173,114.50453591250002,114.75680861875001,67.0,72.0
174,114.77726316250002,115.04771768541669,64.0,85.0
175,115.04999041250002,115.75680853541668,60.0,85.0
176,115.59544491250001,115.78635398750002,58.0,89.0
177,115.86817216250002,116.03635396666668,60.0,72.0
178,116.14089941250002,116.34089939583335,61.0,102.0
179,116.41362666250002,116.59771755625002,60.0,81.0
180,116.68635391250002,116.84544480833335,58.0,75.0
181,116.95908116250001,117.10908115000002,60.0,75.0
182,117.23180841250002,117.74089927916668,61.0,95.0
183,117.50453566250002,117.83408108958335,72.0,90.0
184,118.04999016250002,118.40680831458336,70.0,93.0
185,118.59544466250001,119.03635371666668,72.0,96.0
186,118.86817191250002,119.10453552916668,67.0,83.0
187,119.14089916250002,120.27726270416669,68.0,99.0
188,120.50453541250002,120.58862631458335,70.0,102.0
189,120.77726266250002,120.87271720000003,70.0,88.0
190,121.04998991250002,121.16817172083336,70.0,97.0
191,121.32271716250003,121.45453533333335,70.0,100.0
192,121.59544441250002,121.92271711250002,70.0,107.0
193,121.86817166250002,122.30680798958335,65.0,88.0
194,122.41362616250002,122.85226248958335,72.0,117.0
195,122.95908066250001,123.14544428333335,67.0,92.0
196,123.23180791250002,123.47271698333336,67.0,83.0
197,123.50453516250002,124.20680783125002,72.0,96.0
198,124.86817141250002,124.98635322083335,68.0,95.0
199,125.14089866250002,125.26817137916669,68.0,70.0
200,125.41362591250002,125.55226226458335,68.0,95.0
201,125.68635316250003,125.8136258791667,67.0,63.0
202,125.95908041250001,126.55908036250003,68.0,99.0
203,126.77726216250002,127.18408031041669,67.0,96.0
204,127.32271666250003,127.44089847083336,72.0,93.0
205,127.59544391250002,127.7636257166667,72.0,88.0
206,127.86817116250002,128.02498933125003,70.0,99.0
207,128.1408984125,128.67498927708334,72.0,107.0
208,129.23180741250002,129.34998922083335,65.0,92.0
209,129.50453466250002,129.61589828958336,65.0,81.0
210,129.77726191250002,129.90453462916668,65.0,86.0
211,130.04998916250003,130.17498915208336,67.0,83.0
212,130.32271641250003,130.73408001458336,68.0,122.0
213,130.86817091250003,131.18180725000002,65.0,102.0
214,131.4136254125,131.59771630625002,64.0,88.0
215,131.6863526625,131.84771628541668,65.0,72.0
216,131.95907991250002,132.21135261875003,67.0,72.0
217,132.23180716250002,132.5022616854167,64.0,85.0
218,132.50453441250002,132.9318071041667,60.0,85.0
219,133.04998891250003,133.24089798750003,58.0,89.0
220,133.32271616250003,133.4908979666667,60.0,72.0
221,133.59544341250003,133.79544339583336,61.0,102.0
222,133.86817066250003,134.05226155625002,60.0,81.0
223,134.1408979125,134.29998880833335,58.0,75.0
224,134.4136251625,134.56362515000004,60.0,75.0
225,134.6863524125,135.19544327916668,61.0,95.0
226,134.95907966250002,135.28862508958335,72.0,90.0
227,135.50453416250002,135.86135231458334,70.0,93.0
228,136.04998866250003,136.4908977166667,72.0,96.0
229,136.32271591250003,136.5590795291667,67.0,83.0
230,136.59544316250003,137.7318067041667,68.0,99.0
231,137.95907941250002,138.20680666458335,70.0,96.0
232,138.23180666250002,138.37726119583337,65.0,82.0
233,138.50453391250002,138.6522611729167,70.0,96.0
234,138.77726116250003,138.97044296458336,72.0,83.0
235,139.32271566250003,139.77498835208337,67.0,85.0
236,139.86817016250004,140.08180650833336,68.0,99.0
237,140.1408974125,140.47498829375002,67.0,76.0
238,140.4136246625,141.55453365833336,65.0,75.0
239,141.77726091250003,141.9999881666667,58.0,83.0
240,142.04998816250003,142.38862449791668,60.0,72.0
241,142.32271541250003,142.59316993541668,61.0,89.0
242,142.59544266250003,142.84316991458337,60.0,56.0
243,142.86816991250004,143.08635171250003,58.0,56.0
244,143.1408971625,143.4658971354167,60.0,63.0
245,143.4136244125,143.86135164791668,61.0,89.0
246,143.68635166250002,144.05226072291669,72.0,96.0
247,144.23180616250002,144.64998794583335,70.0,99.0
248,144.77726066250003,144.95680610208336,72.0,89.0
249,145.04998791250003,145.3068060729167,68.0,82.0
250,145.32271516250003,146.1795332729167,65.0,85.0
251,146.68635141250002,146.91589684791668,70.0,97.0
252,146.95907866250002,147.2227150041667,65.0,70.0
253,147.23180591250002,147.54316952291668,70.0,79.0
254,147.50453316250002,147.75226041458336,72.0,70.0
255,148.04998766250003,148.5136239875,67.0,76.0
256,148.86816941250004,149.02044212708336,68.0,93.0
257,149.1408966625,149.5545329916667,67.0,79.0
258,149.41362391250001,151.2045328541667,65.0,71.0
