,start,end,pitch,velocity
0,16.7680840125,16.8843630125,78.0,91.0
1,17.0369792,17.15907215,78.0,70.0
2,17.291339512500002,17.3858162,78.0,78.0
3,17.4657580125,17.551513775,78.0,72.0
4,17.640176512500002,17.80893770625,75.0,91.0
5,18.080091575,18.176245429166666,78.0,49.0
6,18.295476208333334,18.4723993,78.0,67.0
7,18.562783922916665,18.730091629166665,75.0,82.0
8,19.255091672916667,19.353168604166665,78.0,85.0
9,19.485860922916665,19.582014777083334,78.0,72.0
10,19.716630172916666,19.787784025,78.0,88.0
11,19.83970710625,19.922399420833333,78.0,78.0
12,19.947399422916668,20.024322506249998,78.0,78.0
13,20.178168672916666,20.26663021875,78.0,99.0
14,20.408937922916667,20.541630241666667,78.0,93.0
15,21.101245672916665,21.199322604166667,78.0,97.0
16,21.332014922916667,21.43393800833333,78.0,78.0
17,21.562784172916665,21.670476489583333,78.0,88.0
18,21.793553422916666,21.893553431249998,78.0,91.0
19,22.024322672916668,22.13586114375,78.0,85.0
20,22.255091922916666,22.462784247916666,78.0,93.0
21,22.947399672916667,23.04739968125,78.0,88.0
22,23.178168922916665,23.263425341666665,78.0,95.0
23,23.405470810416666,23.473652635416666,78.0,91.0
24,23.53425870208333,23.60244052708333,78.0,91.0
25,23.632743560416664,23.695243566666665,78.0,93.0
26,23.746379935416666,23.8164557,78.0,82.0
27,23.860016310416665,23.928198135416665,78.0,82.0
28,24.087289060416666,24.18683925,78.0,93.0
29,24.790354875,24.891917375,78.0,93.0
30,25.024729875,25.118479875,78.0,69.0
31,25.259104875,25.3626205,78.0,82.0
32,25.493479875,25.60871425,78.0,95.0
33,25.727854875,25.839183,78.0,88.0
34,25.962229875,26.07403149583333,78.0,85.0
35,26.189561810416667,26.409258802083333,78.0,91.0
36,26.416834560416664,26.513425479166663,78.0,82.0
37,26.644107310416665,26.72744065208333,78.0,82.0
38,26.871380060416666,26.954713402083332,78.0,82.0
39,26.985016435416664,27.06834977708333,78.0,82.0
40,27.098652810416667,27.181986152083333,78.0,82.0
41,27.325925560416664,27.40925890208333,78.0,82.0
42,27.4528195125,27.536152854166666,78.0,82.0
43,27.553198310416665,27.63653165208333,78.0,82.0
44,27.780471060416666,27.865057314583332,78.0,82.0
45,28.472749672916667,28.588134297916664,78.0,66.0
46,28.703518922916665,28.811211239583333,78.0,85.0
47,28.934288172916666,29.049672797916664,78.0,73.0
48,29.165057422916664,29.266980508333333,78.0,80.0
49,29.395826672916666,29.49198052708333,78.0,72.0
50,29.626595922916664,29.843362749999997,78.0,93.0
51,29.860940874999997,29.946878374999997,78.0,82.0
52,30.095315874999997,30.161722124999997,78.0,97.0
53,30.259378374999997,30.319925249999997,78.0,75.0
54,30.403909624999997,30.480081499999997,78.0,88.0
55,30.564065874999997,30.644865160416664,78.0,82.0
56,30.702557472916663,30.777557479166664,78.0,78.0
57,30.85640363958333,30.93140364583333,78.0,85.0
58,31.025634422916664,31.10448058333333,78.0,93.0
59,31.164095972916662,31.246788287499996,78.0,85.0
60,31.314095985416664,31.414095993749996,78.0,72.0
61,31.487172922916663,31.57178831458333,78.0,82.0
62,31.948711422916663,32.04486527708333,78.0,99.0
63,32.17948067291666,32.25448067916666,78.0,53.0
64,32.41024992291666,32.554218468749994,78.0,93.0
65,32.864824560416665,32.95194578125,78.0,75.0
66,33.09209731041666,33.20005186666666,78.0,88.0
67,33.31937006041666,33.45952158958333,78.0,97.0
68,34.001188310416666,34.08452165208333,78.0,85.0
69,34.22846106041666,34.308479999999996,78.0,75.0
70,34.462776874999996,34.538948749999996,78.0,95.0
71,34.564339374999996,34.638558124999996,78.0,95.0
72,34.697151874999996,34.761604999999996,78.0,95.0
73,34.697151874999996,34.761604999999996,78.0,101.0
74,34.931526874999996,35.109261249999996,78.0,70.0
75,35.165901874999996,35.24285500625,78.0,106.0
76,35.85823967291666,35.95247044999999,78.0,85.0
77,36.08900892291666,36.183735039583325,78.0,76.0
78,36.31631081041666,36.40911385,78.0,78.0
79,36.543583560416664,36.64017447916666,78.0,95.0
80,36.77085631041666,36.875022987499996,78.0,88.0
81,36.99812906041666,37.14650737499999,78.0,97.0
82,37.46681987499999,37.54494487499999,78.0,99.0
83,37.59767924999999,37.66408549999999,78.0,101.0
84,37.70119487499999,37.77150737499999,78.0,85.0
85,37.93556987499999,38.00675377499999,78.0,99.0
86,38.03367685416666,38.10483070624999,78.0,75.0
87,38.16636917291666,38.237523024999994,78.0,75.0
88,38.39713842291666,38.47406150624999,78.0,91.0
89,38.51252304791666,38.58175382291666,78.0,91.0
90,38.627907672916656,38.72406152708332,78.0,61.0
91,38.85867692291666,38.93560000624999,78.0,91.0
92,39.550984672916655,39.66636929791666,78.0,88.0
93,39.78175392291666,39.90098470208333,78.0,82.0
94,40.01252317291666,40.141369337499995,78.0,101.0
95,40.24329242291666,40.37213858749999,78.0,101.0
96,40.704830922916656,40.82021554791666,78.0,95.0
97,40.93560017291666,41.04329248958332,78.0,78.0
98,41.16636942291666,41.28367712499999,78.0,91.0
99,41.39713867291666,41.50867714374999,78.0,80.0
100,41.627907922916656,41.74521562499999,78.0,80.0
101,41.85867717291666,41.970215643749995,75.0,76.0
102,42.08944642291666,42.20098489374999,78.0,88.0
103,42.32021567291666,42.43752337499999,75.0,91.0
104,42.550984922916655,42.66829262499999,78.0,91.0
105,42.68560031874999,42.800984943749995,80.0,91.0
106,43.24329267291666,43.36829268333332,75.0,73.0
107,43.47406192291666,43.62213885833332,78.0,69.0
108,43.704831172916656,43.83944656874999,75.0,78.0
109,43.93560042291666,44.08752351249999,78.0,97.0
110,44.39713892291666,44.49521585416666,78.0,91.0
111,44.62790817291666,44.71829279583333,78.0,82.0
112,44.85867742291666,44.95483127708332,78.0,95.0
113,45.08944667291666,45.185600527083324,78.0,88.0
114,45.32021592291666,45.41444669999999,78.0,95.0
115,45.55098517291666,45.664446720833325,78.0,93.0
116,45.781754422916656,45.90867751041666,78.0,95.0
117,46.01252367291666,46.10675444999999,78.0,75.0
118,46.24329292291666,46.40675447499999,78.0,88.0
119,47.16636992291666,47.62727737499999,75.0,89.0
120,47.63508987499999,48.09602737499999,75.0,99.0
121,48.10383987499999,48.56477737499999,75.0,99.0
122,48.57258987499999,49.03352737499999,75.0,101.0
123,49.04133987499999,49.47527783333332,68.0,93.0
124,49.48263076666666,49.69586583333332,68.0,95.0
125,49.70321876666666,49.91645383333332,70.0,95.0
126,49.92380676666666,50.37756811458332,72.0,95.0
127,50.38526042291666,50.83910661458332,75.0,95.0
128,50.846798922916655,51.300645114583325,75.0,95.0
129,51.30833742291666,51.76218361458332,75.0,78.0
130,51.769875922916654,52.23806886458332,75.0,91.0
131,52.246005372916656,52.69991261458332,75.0,85.0
132,52.70760492291666,53.16145111458332,68.0,95.0
133,53.169143422916655,53.39222036458332,68.0,88.0
134,53.399912672916656,53.85375886458332,72.0,88.0
135,53.399912672916656,53.85375886458332,73.0,88.0
136,53.86145117291665,54.546066614583324,68.0,76.0
137,54.55375892291666,55.00075780208332,75.0,89.0
138,55.00833356041666,55.45530330208332,75.0,99.0
139,55.462879060416654,55.91669611458332,75.0,99.0
140,55.92438842291666,56.37823461458332,75.0,101.0
141,56.38592692291665,56.83977311458332,68.0,93.0
142,56.847465422916656,57.07054236458332,68.0,95.0
143,57.07823467291665,57.30131161458332,70.0,95.0
144,57.30900392291665,57.769911374999985,72.0,95.0
145,57.777723874999985,58.238661374999985,77.0,95.0
146,58.246473874999985,58.693502802083316,77.0,95.0
147,58.701078560416654,59.14804830208332,77.0,78.0
148,59.15562406041665,59.60944111458331,79.0,91.0
149,59.61713342291665,59.840210364583314,77.0,85.0
150,59.847902672916646,60.070979614583315,72.0,85.0
151,60.07867192291665,61.917133614583314,70.0,85.0
152,61.92482592291665,62.37867211458332,75.0,95.0
153,62.38636442291665,62.84021061458331,75.0,88.0
154,62.847902922916646,63.301749114583316,75.0,85.0
155,63.30944142291665,63.76328761458331,75.0,88.0
156,63.77097992291665,64.22482611458332,68.0,95.0
157,64.23251842291666,64.45559536458332,68.0,76.0
158,64.46328767291665,64.68636461458331,70.0,67.0
159,64.69405692291664,65.14790311458331,72.0,99.0
160,65.15559542291665,65.60944161458332,75.0,75.0
161,65.61713392291665,66.07098011458332,75.0,85.0
162,66.07867242291665,66.53251861458331,75.0,88.0
163,66.54021092291664,66.99405711458331,75.0,85.0
164,67.00174942291665,67.22482636458332,75.0,85.0
165,67.23251867291665,67.45559561458332,72.0,91.0
166,67.46328792291665,69.30174961458331,70.0,93.0
167,69.30944192291665,69.76328811458332,75.0,99.0
168,69.77098042291665,70.22482661458332,75.0,88.0
169,70.23251892291665,70.68636511458331,75.0,82.0
170,70.69405742291664,71.14790361458331,75.0,82.0
171,71.15559592291665,71.60944211458332,63.0,97.0
172,71.61713442291665,72.07098061458332,63.0,97.0
173,72.07867292291665,72.53251911458332,63.0,95.0
174,72.54021142291666,72.99405761458331,68.0,97.0
175,73.00174992291664,73.45559611458332,68.0,91.0
176,73.46328842291665,73.91713461458332,72.0,101.0
177,73.92482692291665,74.84021161458331,70.0,101.0
178,74.84790392291664,75.32361735416664,63.0,95.0
179,75.33168187083331,75.80693004166665,70.0,101.0
180,75.81462234999998,76.26846854166665,72.0,106.0
181,76.27616084999998,76.73000704166665,77.0,109.0
182,76.73769934999999,76.95417457291666,75.0,97.0
183,76.96163725624999,77.17805507291665,75.0,78.0
184,77.18551775624998,78.53476572916665,75.0,95.0
185,78.54234148749998,78.98931122916665,72.0,99.0
186,78.99688698749999,79.21658397916666,75.0,78.0
187,79.22415973749999,79.44385672916665,72.0,95.0
188,79.45143248749999,79.91231080208331,68.0,85.0
189,79.92012330208331,80.38106080208331,72.0,103.0
190,80.38887330208331,80.61543580208331,68.0,97.0
191,80.62324830208331,81.31856080208331,68.0,99.0
192,81.32637330208331,81.54287857291665,68.0,91.0
193,81.55034125624998,81.99063957291665,70.0,95.0
194,81.99810225624998,82.68283280208331,72.0,103.0
195,82.69064530208331,83.15158280208331,70.0,97.0
196,83.15939530208331,83.61327154166665,72.0,103.0
197,83.62096384999998,84.07481004166664,77.0,103.0
198,84.08250234999998,84.30557929166665,75.0,97.0
199,84.31327159999998,84.53634854166664,75.0,101.0
200,84.54404084999997,85.93499641874998,75.0,95.0
201,85.94280891874998,86.38983784583331,72.0,109.0
202,86.39741360416664,86.61711059583331,70.0,99.0
203,86.62468635416664,86.84438334583331,72.0,101.0
204,86.85195910416664,87.2989288458333,68.0,99.0
205,87.30650460416665,87.75347434583331,72.0,103.0
206,87.76105010416664,87.98755341874997,68.0,97.0
207,87.99536591874997,88.69067841874997,68.0,99.0
208,88.69849091874997,88.92505341874997,63.0,95.0
209,88.93286591874997,89.39380341874997,72.0,101.0
210,89.40161591874997,90.0830198458333,70.0,99.0
211,90.09059560416664,90.5375653458333,68.0,97.0
212,90.54514110416663,91.00601941874997,70.0,73.0
213,91.01383191874997,91.47476941874997,72.0,103.0
214,91.48258191874997,91.94351941874997,72.0,103.0
215,91.95133191874997,92.17789441874997,72.0,103.0
216,92.18570691874997,92.41226941874997,70.0,76.0
217,92.42008191874997,92.63343187708331,72.0,97.0
218,92.64078481041663,93.2951958770833,79.0,97.0
219,93.30254881041664,93.76337141874997,79.0,97.0
220,93.77118391874997,93.99774641874997,79.0,109.0
221,94.00555891874997,94.23212141874997,77.0,99.0
222,94.23993391874997,94.4630409083333,79.0,97.0
223,94.47073321666663,95.1553486583333,80.0,97.0
224,95.16304096666664,95.6168871583333,80.0,97.0
225,95.62457946666663,95.84765640833331,80.0,95.0
226,95.85534871666664,96.0784256583333,79.0,93.0
227,96.08611796666663,96.3091949083333,80.0,95.0
228,96.31688721666663,96.7707334083333,79.0,99.0
229,96.77842571666663,98.15534890833331,77.0,99.0
230,98.16304121666664,98.3861181583333,77.0,103.0
231,98.39381046666664,98.8476566583333,75.0,91.0
232,98.85534896666664,99.3091951583333,75.0,101.0
233,99.31688746666663,99.7707336583333,75.0,95.0
234,99.77842596666663,100.2322721583333,72.0,113.0
235,100.23996446666663,100.4630414083333,72.0,109.0
236,100.47073371666663,100.9245799083333,68.0,99.0
237,100.93227221666663,102.0784261583333,68.0,93.0
238,101.85534921666664,102.0957338520833,63.0,85.0
239,102.08611846666663,102.4534261895833,75.0,93.0
240,102.54765696666664,102.8745800708333,72.0,101.0
241,103.00919546666664,103.2899647208333,72.0,99.0
242,103.47073396666664,103.57650320624997,70.0,82.0
243,103.70150321666664,104.1265032520833,70.0,93.0
244,104.39381096666663,104.8476571583333,63.0,95.0
245,104.85534946666664,105.30919565833331,70.0,101.0
246,105.31688796666664,105.7707341583333,72.0,106.0
247,105.77842646666663,106.2322726583333,77.0,109.0
248,106.23996496666663,106.46304190833331,75.0,97.0
249,106.47073421666664,106.6938111583333,75.0,78.0
250,106.70150346666664,108.0784266583333,75.0,95.0
251,108.08611896666663,108.5399651583333,72.0,99.0
252,108.54765746666664,108.7707344083333,75.0,78.0
253,108.77842671666663,109.0015036583333,72.0,95.0
254,109.00919596666664,109.46304215833331,68.0,85.0
255,109.47073446666664,109.9245806583333,72.0,103.0
256,109.93227296666663,110.1553499083333,68.0,97.0
257,110.16304221666664,110.8476576583333,68.0,99.0
258,110.85534996666664,111.0784269083333,68.0,91.0
259,111.08611921666663,111.5399654083333,70.0,95.0
260,111.54765771666663,112.2322731583333,72.0,103.0
261,112.23996546666663,112.6938116583333,70.0,97.0
262,112.70150396666664,113.1553501583333,72.0,103.0
263,113.16304246666664,113.6168886583333,77.0,103.0
264,113.62458096666663,113.8476579083333,75.0,97.0
265,113.85535021666664,114.0784271583333,75.0,101.0
266,114.08611946666663,115.46304265833331,75.0,95.0
267,115.47073496666664,115.9245811583333,72.0,109.0
268,115.93227346666663,116.1553504083333,70.0,99.0
269,116.16304271666664,116.3861196583333,72.0,101.0
270,116.39381196666663,116.8476581583333,68.0,99.0
271,116.85535046666664,117.3091966583333,72.0,103.0
272,117.31688896666664,117.5399659083333,68.0,97.0
273,117.54765821666663,118.2322736583333,68.0,99.0
274,118.23996596666663,118.4630429083333,63.0,95.0
275,118.47073521666664,118.9245814083333,72.0,101.0
276,118.93227371666663,119.6168891583333,70.0,99.0
277,119.62458146666664,120.07842765833331,68.0,97.0
278,120.08611996666664,120.5399661583333,70.0,73.0
279,120.54765846666663,121.0015046583333,72.0,103.0
280,121.00919696666664,121.4630431583333,72.0,103.0
281,121.47073546666664,121.6938124083333,72.0,103.0
282,121.70150471666663,121.9245816583333,70.0,76.0
283,121.93227396666663,122.1553509083333,72.0,97.0
284,122.16304321666664,122.8476586583333,79.0,97.0
285,122.85535096666663,123.3091971583333,79.0,97.0
286,123.31688946666664,123.5399664083333,79.0,109.0
287,123.54765871666663,123.77073565833331,77.0,99.0
288,123.77842796666664,124.0015049083333,79.0,97.0
289,124.00919721666664,124.6938126583333,80.0,97.0
290,124.70150496666663,125.1553511583333,80.0,97.0
291,125.16304346666664,125.3861204083333,80.0,95.0
292,125.39381271666663,125.6168896583333,79.0,93.0
293,125.62458196666664,125.8476589083333,80.0,95.0
294,125.85535121666663,126.3091974083333,79.0,99.0
295,126.31688971666664,127.6938129083333,77.0,99.0
296,127.70150521666663,127.9245821583333,77.0,103.0
297,127.93227446666663,128.3861206583333,75.0,91.0
298,128.39381296666664,128.8476591583333,75.0,101.0
299,128.85535146666663,129.3091976583333,75.0,95.0
300,129.31688996666662,129.7707361583333,72.0,113.0
301,129.77842846666664,130.0015054083333,72.0,109.0
302,130.00919771666662,130.4630439083333,68.0,99.0
303,130.47073621666664,131.61689015833332,68.0,93.0
304,131.39381321666664,131.6341978520833,63.0,85.0
305,131.62458246666665,131.9918901895833,75.0,93.0
306,132.08612096666664,132.4130440708333,72.0,101.0
307,132.54765946666663,132.8284287208333,72.0,99.0
308,133.00919796666665,133.11496720624996,70.0,82.0
309,133.23996721666663,133.6649672520833,70.0,93.0
310,133.9130441958333,134.19189037291665,63.0,99.0
311,134.38804423541663,134.79958273124998,63.0,95.0
312,134.8361211958333,135.16689045416663,70.0,82.0
313,135.3149673895833,135.9207366708333,70.0,95.0
314,136.03996744999998,137.8361214458333,68.0,82.0
315,149.62458396666665,149.7784301333333,78.0,91.0
316,149.85535321666663,150.01689169166664,78.0,70.0
317,150.08612246666664,150.2111224770833,78.0,78.0
318,150.31689171666665,150.4303532645833,78.0,72.0
319,150.54766096666663,150.71689174999997,75.0,91.0
320,151.00919946666664,151.1053533208333,78.0,49.0
321,151.23996871666662,151.41881488541662,78.0,67.0
322,151.47073796666663,151.63804567291663,75.0,82.0
323,152.16304571666663,152.26112264791664,78.0,85.0
324,152.39381496666664,152.4899688208333,78.0,72.0
325,152.62458421666662,152.69573806874996,78.0,88.0
326,152.85535346666663,152.93227654999998,78.0,78.0
327,152.85535346666663,152.93227654999998,78.0,78.0
328,153.08612271666664,153.17458426249996,78.0,99.0
329,153.31689196666665,153.44958428541662,78.0,93.0
330,154.00919971666664,154.10727664791665,78.0,97.0
331,154.23996896666665,154.3418920520833,78.0,78.0
332,154.47073821666663,154.5784305333333,78.0,88.0
333,154.70150746666664,154.80150747499997,78.0,91.0
334,154.93227671666665,155.04381518749997,78.0,85.0
335,155.16304596666663,155.37073829166664,78.0,93.0
336,155.85535371666663,155.95535372499995,78.0,88.0
337,156.08612296666664,156.17266143541664,78.0,95.0
338,156.31689221666664,156.38612299166664,78.0,91.0
339,156.54766146666663,156.61112301041663,78.0,82.0
340,156.54766146666663,156.61112301041663,78.0,91.0
341,156.54766146666663,156.61112301041663,78.0,93.0
342,156.77843071666663,156.84766149166663,78.0,82.0
343,157.00919996666664,157.10727689791662,78.0,93.0
344,157.70150771666664,157.80150772499996,78.0,93.0
345,157.93227696666662,158.02458466666664,78.0,69.0
346,158.16304621666663,158.2649693020833,78.0,82.0
347,158.39381546666664,158.5072770145833,78.0,95.0
348,158.62458471666662,158.73420011041662,78.0,88.0
349,158.85535396666666,158.9688155145833,78.0,85.0
350,159.08612321666664,159.30920015833328,78.0,91.0
351,159.31689246666662,159.41496939791665,78.0,82.0
352,159.54766171666665,159.6322771083333,78.0,82.0
353,159.77843096666663,159.8630463583333,78.0,82.0
354,160.00920021666664,160.0938156083333,78.0,82.0
355,160.00920021666664,160.0938156083333,78.0,82.0
356,160.23996946666665,160.3245848583333,78.0,82.0
357,160.47073871666663,160.5553541083333,78.0,82.0
358,160.47073871666663,160.5553541083333,78.0,82.0
359,160.70150796666664,160.7861233583333,78.0,82.0
360,161.39381571666664,161.50920034166666,78.0,66.0
361,161.62458496666665,161.7322772833333,78.0,85.0
362,161.85535421666663,161.97073884166662,78.0,73.0
363,162.08612346666663,162.1880465520833,78.0,80.0
364,162.31689271666664,162.4130465708333,78.0,72.0
365,162.54766196666662,162.76112352291665,78.0,93.0
366,162.77843121666663,162.86304660833332,78.0,82.0
367,163.00920046666664,163.07458508749997,78.0,97.0
368,163.23996971666662,163.29958510624996,78.0,75.0
369,163.23996971666662,163.29958510624996,78.0,88.0
370,163.47073896666663,163.55150820416662,78.0,82.0
371,163.70150821666664,163.77650822291662,78.0,78.0
372,163.70150821666664,163.77650822291662,78.0,85.0
373,163.93227746666662,164.0111236270833,78.0,93.0
374,164.16304671666666,164.24573903124997,78.0,72.0
375,164.16304671666666,164.24573903124997,78.0,85.0
376,164.39381596666664,164.4784313583333,78.0,82.0
377,164.85535446666665,164.95150832083328,78.0,99.0
378,165.08612371666663,165.16112372291664,78.0,53.0
379,165.31689296666661,165.46304682499996,78.0,93.0
380,165.77843146666663,165.8668930125,78.0,75.0
381,166.00920071666664,166.11881611041662,78.0,88.0
382,166.23996996666665,166.3822776708333,78.0,97.0
383,166.93227771666665,167.0168931083333,78.0,85.0
384,167.16304696666663,167.2418931270833,78.0,75.0
385,167.39381621666664,167.46881622291664,78.0,95.0
386,167.39381621666664,167.46881622291664,78.0,95.0
387,167.62458546666664,167.68804701041665,78.0,95.0
388,167.62458546666664,167.68804701041665,78.0,101.0
389,167.85535471666662,168.03035473125,78.0,70.0
390,168.08612396666663,168.16304705,78.0,106.0
391,168.77843171666663,168.87266249374997,78.0,85.0
392,169.00920096666664,169.1053548208333,78.0,76.0
393,169.23997021666662,169.33420099374996,78.0,78.0
394,169.47073946666663,169.56881639791663,78.0,95.0
395,169.70150871666664,169.80727795624995,78.0,88.0
396,169.93227796666662,170.07843182499997,78.0,97.0
397,170.39381646666664,170.47073954999996,78.0,99.0
398,170.62458571666662,170.68997033749997,78.0,85.0
399,170.62458571666662,170.68997033749997,78.0,101.0
400,170.85535496666665,170.92650881874997,78.0,75.0
401,170.85535496666665,170.92650881874997,78.0,99.0
402,171.08612421666663,171.15727806874997,78.0,75.0
403,171.31689346666664,171.38612424166664,78.0,91.0
404,171.31689346666664,171.38612424166664,78.0,91.0
405,171.54766271666665,171.6438165708333,78.0,61.0
406,171.77843196666663,171.85535504999996,78.0,91.0
407,172.47073971666663,172.58612434166662,78.0,88.0
408,172.70150896666664,172.8207397458333,78.0,82.0
409,172.93227821666665,173.06112438124995,78.0,101.0
410,173.16304746666663,173.29189363124996,78.0,101.0
411,173.62458596666664,173.73997059166663,78.0,95.0
412,173.85535521666662,173.96304753333328,78.0,78.0
413,174.08612446666663,174.20343216874997,78.0,91.0
414,174.31689371666664,174.42843218749996,78.0,80.0
415,174.54766296666662,174.66497066874996,78.0,80.0
416,174.77843221666663,174.88997068749995,75.0,76.0
417,175.00920146666664,175.12073993749996,78.0,88.0
418,175.23997071666662,175.35727841874996,75.0,91.0
419,175.47073996666666,175.58804766874997,78.0,91.0
420,175.70150921666664,175.81881691874997,80.0,91.0
421,176.16304771666665,176.2880477270833,75.0,73.0
422,176.39381696666663,176.5418939020833,78.0,69.0
423,176.62458621666661,176.75920161249996,75.0,78.0
424,176.85535546666665,177.00727855624996,78.0,97.0
425,177.31689396666664,177.41497089791665,78.0,91.0
426,177.54766321666665,177.6380478395833,78.0,82.0
427,177.77843246666663,177.87458632083332,78.0,95.0
428,178.00920171666664,178.1053555708333,78.0,88.0
429,178.23997096666665,178.33420174375,78.0,95.0
430,178.47074021666663,178.5842017645833,78.0,93.0
431,178.70150946666664,178.82843255416662,78.0,95.0
432,178.93227871666664,179.02650949374998,78.0,75.0
433,179.16304796666662,179.32650951874996,78.0,88.0
434,180.08612496666663,180.5399711583333,75.0,89.0
435,180.54766346666662,181.0015096583333,75.0,99.0
436,181.00920196666664,181.46304815833332,75.0,99.0
437,181.47074046666665,181.92458665833328,75.0,101.0
438,181.93227896666662,182.3861251583333,68.0,93.0
439,182.39381746666663,182.6168944083333,68.0,95.0
440,182.62458671666664,182.84766365833332,70.0,95.0
441,182.85535596666665,183.3092021583333,72.0,95.0
442,183.31689446666664,183.7707406583333,75.0,95.0
443,183.77843296666663,184.2322791583333,75.0,95.0
444,184.23997146666665,184.6938176583333,75.0,78.0
445,184.70150996666663,185.1553561583333,75.0,91.0
446,185.16304846666662,185.6168946583333,75.0,85.0
447,185.62458696666664,186.0784331583333,68.0,95.0
448,186.08612546666663,186.3092024083333,68.0,88.0
449,186.31689471666664,186.77074090833332,72.0,88.0
450,186.31689471666664,186.77074090833332,73.0,88.0
451,186.77843321666666,187.46304865833332,68.0,76.0
452,187.47074096666665,187.92458715833328,75.0,89.0
453,187.9322794666666,188.3861256583333,75.0,99.0
454,188.39381796666663,188.84766415833332,75.0,99.0
455,188.85535646666665,189.3092026583333,75.0,101.0
456,189.31689496666664,189.7707411583333,68.0,93.0
457,189.77843346666663,190.0015104083333,68.0,95.0
458,190.00920271666664,190.2322796583333,70.0,95.0
459,190.23997196666664,190.6938181583333,72.0,95.0
460,190.70151046666663,191.1553566583333,77.0,95.0
461,191.16304896666662,191.6168951583333,77.0,95.0
462,191.62458746666664,192.0784336583333,77.0,78.0
463,192.08612596666663,192.53997215833328,79.0,91.0
464,192.54766446666662,192.77074140833332,77.0,85.0
465,192.77843371666665,193.0015106583333,72.0,85.0
466,193.00920296666663,194.84766465833331,70.0,85.0
467,194.85535696666665,195.3092031583333,75.0,95.0
468,195.31689546666664,195.7707416583333,75.0,88.0
469,195.77843396666663,196.2322801583333,75.0,85.0
470,196.23997246666664,196.6938186583333,75.0,88.0
471,196.70151096666663,197.1553571583333,68.0,95.0
472,197.16304946666662,197.3861264083333,68.0,76.0
473,197.39381871666663,197.6168956583333,70.0,67.0
474,197.62458796666664,198.07843415833332,72.0,99.0
475,198.08612646666666,198.53997265833328,75.0,75.0
476,198.54766496666662,199.0015111583333,75.0,85.0
477,199.00920346666663,199.46304965833332,75.0,88.0
478,199.47074196666665,199.9245881583333,75.0,85.0
479,199.93228046666664,200.15535740833332,75.0,85.0
480,200.16304971666665,200.3861266583333,72.0,91.0
481,200.39381896666663,202.2322806583333,70.0,93.0
482,202.23997296666664,202.6938191583333,75.0,99.0
483,202.70151146666663,203.1553576583333,75.0,88.0
484,203.16304996666662,203.6168961583333,75.0,82.0
485,203.62458846666664,204.07843465833332,75.0,82.0
486,204.08612696666665,204.53997315833328,63.0,97.0
487,204.54766546666661,205.0015116583333,63.0,97.0
488,205.00920396666663,205.46305015833332,63.0,95.0
489,205.47074246666665,205.9245886583333,68.0,97.0
490,205.93228096666664,206.3861271583333,68.0,91.0
491,206.39381946666663,206.8476656583333,72.0,101.0
492,206.85535796666665,207.7707426583333,70.0,101.0
493,207.77843496666662,208.2322811583333,63.0,95.0
494,208.23997346666664,208.6938196583333,70.0,101.0
495,208.70151196666663,209.15535815833329,72.0,106.0
496,209.16305046666662,209.6168966583333,77.0,109.0
497,209.62458896666664,209.84766590833328,75.0,97.0
498,209.85535821666662,210.07843515833332,75.0,78.0
499,210.08612746666665,211.46305065833332,75.0,95.0
500,211.47074296666665,211.9245891583333,72.0,99.0
501,211.93228146666664,212.1553584083333,75.0,78.0
502,212.16305071666665,212.3861276583333,72.0,95.0
503,212.39381996666663,212.8476661583333,68.0,85.0
504,212.85535846666664,213.3092046583333,72.0,103.0
505,213.31689696666663,213.5399739083333,68.0,97.0
506,213.54766621666664,214.2322816583333,68.0,99.0
507,214.23997396666664,214.4630509083333,68.0,91.0
508,214.47074321666662,214.9245894083333,70.0,95.0
509,214.93228171666664,215.6168971583333,72.0,103.0
510,215.62458946666663,216.07843565833332,70.0,97.0
511,216.08612796666665,216.5399741583333,72.0,103.0
512,216.54766646666664,217.0015126583333,77.0,103.0
513,217.00920496666663,217.2322819083333,75.0,97.0
514,217.23997421666664,217.46305115833331,75.0,101.0
515,217.47074346666665,218.8476666583333,75.0,95.0
516,218.85535896666664,219.3092051583333,72.0,109.0
517,219.31689746666663,219.5399744083333,70.0,99.0
518,219.54766671666664,219.7707436583333,72.0,101.0
519,219.77843596666662,220.2322821583333,68.0,99.0
520,220.23997446666664,220.69382065833332,72.0,103.0
521,220.70151296666666,220.9245899083333,68.0,97.0
522,220.93228221666664,221.6168976583333,68.0,99.0
523,221.62458996666663,221.84766690833328,63.0,95.0
524,221.85535921666664,222.3092054083333,72.0,101.0
525,222.31689771666663,223.0015131583333,70.0,99.0
526,223.00920546666663,223.4630516583333,68.0,97.0
527,223.47074396666665,223.92459015833327,70.0,73.0
528,223.93228246666666,224.3861286583333,72.0,103.0
529,224.39382096666662,224.8476671583333,72.0,103.0
530,224.85535946666664,225.0784364083333,72.0,103.0
531,225.08612871666662,225.30920565833333,70.0,76.0
532,225.31689796666666,225.5399749083333,72.0,97.0
533,225.54766721666664,226.2322826583333,79.0,97.0
534,226.23997496666664,226.69382115833332,79.0,97.0
535,226.70151346666665,226.9245904083333,79.0,109.0
536,226.93228271666663,227.15535965833328,77.0,99.0
537,227.16305196666661,227.38612890833332,79.0,97.0
538,227.39382121666665,228.07843665833332,80.0,97.0
539,228.08612896666665,228.53997515833328,80.0,97.0
540,228.5476674666666,228.77074440833331,80.0,95.0
541,228.77843671666665,229.0015136583333,79.0,93.0
542,229.00920596666663,229.23228290833327,80.0,95.0
543,229.2399752166666,229.6938214083333,79.0,99.0
544,229.70151371666662,231.0784369083333,77.0,99.0
545,231.08612921666662,231.30920615833332,77.0,103.0
546,231.31689846666666,231.77074465833329,75.0,91.0
547,231.77843696666662,232.2322831583333,75.0,101.0
548,232.23997546666664,232.69382165833332,75.0,95.0
549,232.70151396666665,233.15536015833328,72.0,113.0
550,233.1630524666666,233.38612940833332,72.0,109.0
551,233.39382171666665,233.84766790833328,68.0,99.0
552,233.8553602166666,235.0015141583333,68.0,93.0
553,234.77843721666665,235.0188218520833,63.0,85.0
554,235.00920646666663,235.3765141895833,75.0,93.0
555,235.47074496666664,235.7976680708333,72.0,101.0
556,235.93228346666666,236.21305272083328,72.0,99.0
557,236.39382196666662,236.49959120625,70.0,82.0
558,236.62459121666666,237.0495912520833,70.0,93.0
559,237.31689896666666,237.77074515833328,64.0,95.0
560,237.77843746666662,238.2322836583333,71.0,101.0
561,238.23997596666663,238.69382215833332,73.0,106.0
562,238.70151446666665,239.15536065833328,78.0,109.0
563,239.1630529666666,239.38612990833332,76.0,97.0
564,239.39382221666665,239.6168991583333,76.0,78.0
565,239.62459146666663,241.0015146583333,76.0,95.0
566,241.00920696666662,241.4630531583333,73.0,99.0
567,241.47074546666664,241.6938224083333,76.0,78.0
568,241.70151471666662,241.92459165833333,73.0,95.0
569,241.93228396666666,242.3861301583333,69.0,85.0
570,242.39382246666662,242.8476686583333,73.0,103.0
571,242.85536096666664,243.07843790833329,69.0,97.0
572,243.08613021666662,243.77074565833328,69.0,99.0
573,243.77843796666662,244.00151490833332,69.0,91.0
574,244.00920721666665,244.46305340833328,71.0,95.0
575,244.4707457166666,245.15536115833328,73.0,103.0
576,245.1630534666666,245.6168996583333,71.0,97.0
577,245.62459196666663,246.0784381583333,73.0,103.0
578,246.08613046666665,246.53997665833327,78.0,103.0
579,246.54766896666666,246.7707459083333,76.0,97.0
580,246.77843821666664,247.0015151583333,76.0,101.0
581,247.00920746666662,248.3861306583333,76.0,95.0
582,248.39382296666662,248.8476691583333,73.0,109.0
583,248.85536146666664,249.07843840833328,71.0,99.0
584,249.08613071666662,249.30920765833332,73.0,101.0
585,249.31689996666665,249.77074615833328,69.0,99.0
586,249.7784384666666,250.2322846583333,73.0,103.0
587,250.23997696666663,250.46305390833328,69.0,97.0
588,250.4707462166666,251.15536165833328,69.0,99.0
589,251.1630539666666,251.3861309083333,64.0,95.0
590,251.39382321666665,251.84766940833327,73.0,101.0
591,251.8553617166666,252.53997715833333,71.0,99.0
592,252.54766946666666,253.0015156583333,69.0,97.0
593,253.00920796666662,253.4630541583333,71.0,73.0
594,253.47074646666664,253.92459265833332,73.0,103.0
595,253.93228496666666,254.38613115833328,73.0,103.0
596,254.39382346666662,254.61690040833332,73.0,103.0
597,254.62459271666665,254.8476696583333,71.0,76.0
598,254.85536196666663,255.07843890833328,73.0,97.0
599,255.08613121666662,255.77074665833328,80.0,97.0
600,255.7784389666666,256.2322851583333,80.0,97.0
601,256.23997746666663,256.4630544083333,80.0,109.0
602,256.4707467166666,256.6938236583333,78.0,99.0
603,256.70151596666665,256.9245929083333,80.0,97.0
604,256.9322852166666,257.6169006583333,81.0,97.0
605,257.6245929666666,258.0784391583333,81.0,97.0
606,258.08613146666664,258.3092084083333,81.0,95.0
607,258.3169007166666,258.5399776583333,80.0,93.0
608,258.54766996666666,258.7707469083333,81.0,95.0
609,258.77843921666664,259.2322854083333,80.0,99.0
610,259.23997771666666,260.6169009083333,78.0,99.0
611,260.62459321666665,260.8476701583333,78.0,103.0
612,260.85536246666663,261.3092086583333,76.0,91.0
613,261.31690096666665,261.7707471583333,76.0,101.0
614,261.7784394666666,262.2322856583333,76.0,95.0
615,262.23997796666663,262.6938241583333,73.0,113.0
616,262.70151646666665,262.9245934083333,73.0,109.0
617,262.9322857166666,263.3861319083333,69.0,99.0
618,263.39382421666664,264.5399781583333,69.0,93.0
619,264.3169012166666,264.5572858520833,64.0,85.0
620,264.54767046666666,264.9149781895833,76.0,93.0
621,265.0092089666666,265.3361320708333,73.0,101.0
622,265.47074746666664,265.7515167208333,73.0,99.0
623,265.93228596666665,266.03805520624996,71.0,82.0
624,266.16305521666663,266.5880552520833,71.0,93.0
625,266.85536296666663,267.13420914374996,64.0,99.0
626,267.31690146666665,267.7707476583333,71.0,101.0
627,267.7784399666666,268.2322861583333,73.0,106.0
628,268.2399784666666,268.6938246583333,78.0,109.0
629,268.70151696666665,268.9245939083333,76.0,97.0
630,268.9322862166666,269.15536315833333,76.0,78.0
631,269.16305546666666,270.5399786583333,76.0,95.0
632,270.54767096666666,271.0015171583333,73.0,99.0
633,271.0092094666666,271.2322864083333,76.0,78.0
634,271.23997871666666,271.4630556583333,73.0,95.0
635,271.47074796666664,271.9245941583333,69.0,85.0
636,271.93228646666665,272.3861326583333,73.0,103.0
637,272.3938249666666,272.6169019083333,73.0,97.0
638,272.62459421666665,273.04767117499995,73.0,99.0
639,273.31690196666665,273.5399789083333,73.0,91.0
640,273.0861327166666,273.54767121666663,74.0,99.0
641,273.54767121666663,274.0015174083333,71.0,95.0
642,274.00920971666665,274.6938251583333,69.0,103.0
643,274.70151746666664,275.15536365833333,71.0,97.0
644,275.16305596666666,275.6169021583333,73.0,103.0
645,275.6245944666666,276.0784406583333,78.0,103.0
646,276.08613296666664,276.3092099083333,78.0,97.0
647,276.3169022166666,276.5399791583333,78.0,101.0
648,276.77844071666664,278.1553639083333,76.0,95.0
649,277.93228696666665,278.3861331583333,73.0,109.0
650,278.3938254666666,278.6169024083333,71.0,99.0
651,278.62459471666665,278.8476716583333,73.0,101.0
652,278.85536396666663,279.3092101583333,69.0,99.0
653,279.31690246666665,279.7707486583333,73.0,103.0
654,279.7784409666666,280.0015179083333,69.0,97.0
655,280.00921021666665,280.6938256583333,69.0,99.0
656,280.70151796666664,280.9245949083333,64.0,95.0
657,280.9322872166666,281.3861334083333,73.0,101.0
658,281.39382571666664,282.0784411583333,71.0,99.0
659,282.08613346666664,282.5399796583333,69.0,97.0
660,282.54767196666666,283.0015181583333,71.0,73.0
661,283.0092104666666,283.4630566583333,73.0,103.0
662,283.47074896666663,283.9245951583333,73.0,103.0
663,283.93228746666665,284.1553644083333,73.0,103.0
664,284.16305671666663,284.3861336583333,71.0,76.0
665,284.3938259666666,284.6169029083333,73.0,97.0
666,284.62459521666665,285.3092106583333,80.0,97.0
667,285.31690296666665,285.7707491583333,80.0,97.0
668,285.7784414666666,286.0015184083333,80.0,109.0
669,286.00921071666664,286.2322876583333,78.0,99.0
670,286.2399799666666,286.46305690833333,80.0,97.0
671,286.47074921666666,287.1553646583333,81.0,97.0
672,287.16305696666666,287.6169031583333,81.0,97.0
673,287.6245954666666,287.8476724083333,81.0,95.0
674,287.85536471666666,288.0784416583333,80.0,93.0
675,288.08613396666664,288.3092109083333,81.0,95.0
676,288.3169032166666,288.7707494083333,80.0,99.0
677,288.77844171666663,290.1553649083333,78.0,99.0
678,290.16305721666663,290.3861341583333,78.0,103.0
679,290.3938264666666,290.8476726583333,76.0,91.0
680,290.8553649666666,291.3092111583333,76.0,101.0
681,291.31690346666664,291.77074965833333,76.0,95.0
682,291.77844196666666,292.2322881583333,73.0,113.0
683,292.2399804666666,292.4630574083333,73.0,109.0
684,292.47074971666666,292.9245959083333,69.0,99.0
685,292.9322882166666,294.0784421583333,69.0,93.0
686,293.85536521666666,294.0957498520833,64.0,85.0
687,294.08613446666664,294.4534421895833,76.0,93.0
688,294.54767296666665,294.8745960708333,73.0,101.0
689,294.77844221666663,294.8745960708333,73.0,99.0
690,295.47074996666663,295.57651920624994,71.0,82.0
691,295.7015192166666,296.1265192520833,71.0,93.0
692,296.8553654666666,296.9707500916666,64.0,95.0
693,297.0861347166666,297.1880578020833,64.0,78.0
694,297.31690396666664,297.4842116729166,64.0,82.0
695,297.5476732166666,297.69190399791665,71.0,82.0
696,297.77844246666666,298.1534424979166,71.0,85.0
697,298.2399809666666,298.3765194395833,69.0,99.0
698,298.47075021666666,299.5649810770833,69.0,76.0
