,start,end,pitch,velocity
0,18.101245422916666,18.701245472916668,59.0,82.0
1,17.291339512500002,18.710860858333334,47.0,85.0
2,17.640176512500002,18.8531685625,54.0,64.0
3,19.947399422916668,20.485861006249998,58.0,95.0
4,19.485860922916665,20.507014854166666,54.0,62.0
5,19.024322422916665,20.524322547916665,46.0,80.0
6,20.408937922916667,20.895476425,61.0,66.0
7,20.870476422916667,21.845476504166665,59.0,75.0
8,21.793553422916666,22.33201500625,56.0,82.0
9,20.870476422916667,22.37816885625,44.0,76.0
10,22.255091922916666,22.532015022916667,59.0,76.0
11,22.485861172916664,22.705091960416667,61.0,66.0
12,21.332014922916667,22.73778427083333,51.0,56.0
13,22.716630422916666,23.714182962499997,63.0,72.0
14,23.178168922916665,23.763425391666665,51.0,55.0
15,23.632743560416664,24.11652675,59.0,67.0
16,23.632743560416664,24.149729875,54.0,57.0
17,24.087289060416666,24.196604875,51.0,69.0
18,22.716630422916666,24.204417375,42.0,64.0
19,24.555979875,25.430979875,56.0,64.0
20,24.555979875,25.49152675,59.0,66.0
21,24.555979875,25.501292375,63.0,72.0
22,24.555979875,26.038046643749997,40.0,75.0
23,25.024729875,26.058879979166665,47.0,56.0
24,25.493479875,26.0664557375,52.0,69.0
25,26.416834560416664,27.826595772916665,61.0,82.0
26,26.416834560416664,27.847749620833333,55.0,76.0
27,26.416834560416664,27.86890346875,40.0,69.0
28,27.325925560416664,27.941980397916666,52.0,75.0
29,26.871380060416666,28.015057327083333,47.0,52.0
30,27.780471060416666,28.138134260416667,59.0,58.0
31,28.241980422916665,28.776595852083332,54.0,57.0
32,28.241980422916665,29.28428820208333,61.0,73.0
33,28.241980422916665,29.804300249999997,42.0,73.0
34,29.165057422916664,29.903909624999997,54.0,70.0
35,28.703518922916665,30.146097124999997,49.0,53.0
36,29.626595922916664,30.146097124999997,58.0,78.0
37,30.095315874999997,30.526956499999997,61.0,82.0
38,30.095315874999997,30.992942112499996,42.0,69.0
39,30.564065874999997,31.046788270833332,49.0,56.0
40,30.564065874999997,31.05832673333333,59.0,70.0
41,31.025634422916664,31.53140369583333,64.0,72.0
42,31.025634422916664,31.57755754583333,54.0,61.0
43,31.487172922916663,31.92948065208333,63.0,58.0
44,31.487172922916663,31.96986527083333,56.0,54.0
45,31.948711422916663,32.836415466666665,66.0,61.0
46,32.41024992291666,32.94247608333333,54.0,51.0
47,32.864824560416665,33.39133976458333,59.0,52.0
48,31.948711422916663,33.44058219375,47.0,69.0
49,32.864824560416665,33.45762764999999,63.0,70.0
50,33.31937006041666,33.80611253333333,54.0,59.0
51,34.22846106041666,34.720589374999996,54.0,59.0
52,33.77391556041666,34.769417499999996,61.0,72.0
53,34.697151874999996,35.062386249999996,58.0,54.0
54,34.697151874999996,35.161995624999996,66.0,66.0
55,33.77391556041666,35.163948749999996,46.0,63.0
56,35.165901874999996,35.606316574999994,70.0,66.0
57,36.08900892291666,36.60987144583333,51.0,53.0
58,35.627470422916666,37.00978862499999,66.0,70.0
59,36.543583560416664,37.04299174999999,56.0,60.0
60,35.627470422916666,37.05666362499999,63.0,62.0
61,35.627470422916666,37.20510112499999,44.0,73.0
62,36.99812906041666,37.53322612499999,51.0,55.0
63,35.627470422916666,37.55275737499999,71.0,70.0
64,37.46681987499999,38.07406147291666,61.0,75.0
65,37.46681987499999,38.13559993958332,70.0,70.0
66,37.93556987499999,38.460599966666656,51.0,52.0
67,38.39713842291666,38.906753849999994,54.0,59.0
68,38.39713842291666,38.943292314583324,59.0,80.0
69,37.46681987499999,38.96060000833332,42.0,67.0
70,38.85867692291666,39.00867693541666,51.0,62.0
71,38.39713842291666,39.26829234166666,66.0,69.0
72,39.32021542291666,39.95098470624999,59.0,69.0
73,39.32021542291666,40.17406164791666,64.0,75.0
74,39.78175392291666,40.295215504166656,47.0,49.0
75,39.32021542291666,40.32406166041666,68.0,76.0
76,40.24329242291666,40.76829246666666,52.0,55.0
77,39.32021542291666,40.80098477708332,40.0,70.0
78,40.704830922916656,41.10290787916666,66.0,76.0
79,40.704830922916656,41.19521557916666,47.0,64.0
80,41.16636942291666,41.76636947291666,64.0,78.0
81,41.16636942291666,41.87406178958332,59.0,76.0
82,41.16636942291666,42.28944643958332,67.0,82.0
83,41.16636942291666,42.539446460416656,40.0,69.0
84,42.08944642291666,42.625984929166655,52.0,50.0
85,42.550984922916655,43.016369577083324,64.0,80.0
86,41.627907922916656,43.03175419374999,47.0,59.0
87,43.01252342291666,43.48752346249999,66.0,91.0
88,43.01252342291666,43.575985008333326,61.0,62.0
89,43.47406192291666,43.98560042708333,49.0,58.0
90,43.93560042291666,44.34713891874999,64.0,70.0
91,43.01252342291666,44.42213892499999,42.0,66.0
92,43.93560042291666,44.429831233333324,54.0,49.0
93,43.93560042291666,44.474062006249994,59.0,80.0
94,44.39713892291666,44.86252357708332,49.0,55.0
95,44.85867742291666,45.229831299999994,58.0,73.0
96,44.85867742291666,45.237523608333326,61.0,72.0
97,44.85867742291666,45.64713902708333,42.0,67.0
98,45.32021592291666,45.66636979791666,59.0,69.0
99,45.32021592291666,45.70483133958332,63.0,70.0
100,45.32021592291666,45.76444672916666,49.0,63.0
101,45.781754422916656,45.993292902083326,59.0,72.0
102,45.781754422916656,46.06636983124999,64.0,63.0
103,45.781754422916656,46.28367754166666,54.0,55.0
104,46.24329292291666,46.420216014583325,56.0,67.0
105,46.24329292291666,46.47213909583333,66.0,93.0
106,46.704831422916655,47.24251174999999,63.0,69.0
107,46.704831422916655,47.25813674999999,59.0,73.0
108,46.704831422916655,47.36751174999999,56.0,67.0
109,47.63508987499999,48.18782424999999,56.0,75.0
110,47.16636992291666,48.82844924999999,53.0,44.0
111,48.10383987499999,48.83821487499999,63.0,62.0
112,49.26204276666666,49.43667493333332,65.0,56.0
113,49.48263076666666,49.75101283333333,68.0,67.0
114,49.70321876666666,49.83373333333333,70.0,54.0
115,49.04133987499999,49.83740979999999,53.0,35.0
116,46.704831422916655,49.91829206666666,41.0,69.0
117,49.92380676666666,50.15641424999999,72.0,50.0
118,50.15449117291666,50.32756811041666,75.0,46.0
119,50.38526042291666,50.717952758333325,68.0,52.0
120,50.38526042291666,50.74679891458332,72.0,69.0
121,50.38526042291666,50.78141430208332,63.0,55.0
122,50.846798922916655,51.348722041666655,48.0,42.0
123,51.30833742291666,51.47564512916666,56.0,69.0
124,51.30833742291666,51.50833743958332,60.0,69.0
125,51.30833742291666,51.825370431249986,51.0,52.0
126,52.246005372916656,52.52298952291665,51.0,39.0
127,52.246005372916656,52.52875875416665,58.0,57.0
128,52.246005372916656,52.53260490833332,63.0,47.0
129,52.246005372916656,52.655681841666656,67.0,53.0
130,52.93837417291665,53.13452803541666,60.0,66.0
131,52.93837417291665,53.14991265208332,68.0,73.0
132,51.769875922916654,53.342220360416654,48.0,44.0
133,50.38526042291666,53.48452806458332,39.0,60.0
134,53.169143422916655,53.547989608333324,51.0,42.0
135,53.63068192291666,53.73260500833332,60.0,66.0
136,53.63068192291666,53.73260500833332,67.0,64.0
137,54.092220422916654,54.49414353333332,56.0,62.0
138,54.092220422916654,54.540297383333325,61.0,60.0
139,54.092220422916654,54.57840927499999,65.0,61.0
140,54.55375892291666,54.91553052083332,53.0,42.0
141,54.781060810416655,55.06136386874999,56.0,46.0
142,54.781060810416655,55.09924266041666,63.0,49.0
143,55.00833356041666,55.53977300624999,53.0,45.0
144,55.23560631041666,55.55323454583332,56.0,43.0
145,55.462879060416654,55.705157635416654,61.0,72.0
146,55.693619172916655,56.13208074791665,63.0,63.0
147,56.15515767291665,56.70515771874999,53.0,50.0
148,56.38592692291665,56.907080812499984,56.0,51.0
149,56.616696172916654,56.94169619999999,65.0,66.0
150,56.847465422916656,57.16477314166665,53.0,58.0
151,54.092220422916654,57.241696224999984,49.0,62.0
152,57.07823467291665,57.25131161041665,56.0,55.0
153,57.30900392291665,57.549208249999985,61.0,64.0
154,57.543348874999985,58.174208249999985,65.0,66.0
155,57.777723874999985,58.203505124999985,39.0,73.0
156,58.012098874999985,58.232801999999985,46.0,54.0
157,57.777723874999985,58.41130580416665,61.0,51.0
158,57.777723874999985,58.41698762291665,56.0,55.0
159,58.246473874999985,58.536305816666655,51.0,44.0
160,57.777723874999985,58.84691190833332,68.0,61.0
161,58.701078560416654,58.85638160624998,56.0,78.0
162,58.47380581041665,58.973805860416654,53.0,60.0
163,58.92835131041665,59.12910890624998,56.0,46.0
164,59.15562406041665,59.30367185833332,61.0,57.0
165,59.38636417291665,60.04790268958332,56.0,59.0
166,59.38636417291665,60.076748845833315,61.0,56.0
167,60.30944117291665,60.374825793749984,61.0,59.0
168,60.07867192291665,60.38828733333332,51.0,49.0
169,60.30944117291665,60.43444118333331,56.0,61.0
170,60.30944117291665,60.486364264583315,65.0,69.0
171,60.54021042291665,60.795979674999984,51.0,44.0
172,60.770979672916646,60.913287377083314,67.0,67.0
173,60.770979672916646,60.93636430208331,58.0,63.0
174,60.770979672916646,60.95367199583332,63.0,60.0
175,59.847902672916646,61.019056616666646,46.0,48.0
176,59.61713342291665,61.02674892499998,39.0,70.0
177,61.00174892291665,61.11136431666665,51.0,44.0
178,61.46328742291665,61.71905667499998,60.0,59.0
179,61.46328742291665,61.75367206249998,65.0,64.0
180,61.46328742291665,61.76521052499998,68.0,66.0
181,61.92482592291665,62.09597978333331,60.0,53.0
182,61.694056672916645,62.234441333333315,56.0,60.0
183,62.15559517291665,62.27482595208332,60.0,40.0
184,62.15559517291665,62.538287512499984,67.0,61.0
185,61.46328742291665,63.04790293958332,53.0,54.0
186,62.61713367291665,63.13251833124998,56.0,57.0
187,62.847902922916646,63.21328756874998,60.0,58.0
188,63.07867217291665,63.39790296874998,68.0,67.0
189,63.77097992291665,64.02674917499998,56.0,53.0
190,64.00174917291665,64.12674918333332,75.0,66.0
191,64.46328767291665,64.54982614166664,67.0,44.0
192,63.54021067291665,64.81521077916665,53.0,52.0
193,64.69405692291664,64.82482616458331,56.0,64.0
194,64.92482617291665,65.40174928958332,68.0,64.0
195,65.61713392291665,65.84598009583331,63.0,58.0
196,65.38636467291664,65.85751855833331,60.0,62.0
197,65.84790317291665,65.95559548958332,67.0,69.0
198,66.30944167291665,66.38828783333332,60.0,37.0
199,65.15559542291665,66.47290322499998,51.0,72.0
200,66.54021092291664,66.65174939374998,63.0,46.0
201,67.00174942291665,67.40751868749999,39.0,58.0
202,67.23251867291665,67.44982638333332,46.0,50.0
203,66.77098017291665,67.60559562708332,63.0,44.0
204,67.46328792291665,67.74405717708332,51.0,58.0
205,66.77098017291665,67.97290334999998,70.0,63.0
206,67.69405717291664,68.04021104791664,53.0,52.0
207,67.92482642291665,68.11328797708332,55.0,62.0
208,68.15559567291665,68.30944183958331,58.0,53.0
209,68.38636492291664,68.54982647499997,63.0,57.0
210,68.61713417291665,69.34405731041664,70.0,63.0
211,69.07867267291665,69.57290348333332,56.0,46.0
212,69.54021117291666,69.75174965208332,68.0,64.0
213,69.30944192291665,69.86328812291664,61.0,60.0
214,68.84790342291664,70.16328814791665,49.0,52.0
215,70.00174967291665,70.20367276666664,56.0,46.0
216,70.23251892291665,70.43251893958332,67.0,61.0
217,70.46328817291665,70.97098052291665,65.0,60.0
218,70.92482667291665,71.36328824791664,56.0,60.0
219,71.15559592291665,71.46713441041665,61.0,46.0
220,71.38636517291664,71.64598057916665,63.0,66.0
221,71.84790367291664,71.99021137708331,56.0,47.0
222,70.69405742291664,72.05559599791665,49.0,66.0
223,72.07867292291665,72.20174985624999,65.0,57.0
224,72.54021142291666,72.84982683333331,61.0,60.0
225,72.54021142291666,72.86136529583331,53.0,52.0
226,72.54021142291666,72.86136529583331,56.0,61.0
227,73.00174992291664,73.17482686041664,53.0,50.0
228,73.23251917291665,73.51905765833331,56.0,69.0
229,73.46328842291665,73.56521150833332,58.0,69.0
230,73.69405767291664,73.97675000416665,63.0,59.0
231,73.92482692291665,74.17098078958331,68.0,66.0
232,72.54021142291666,74.22675002499999,39.0,69.0
233,74.15559617291665,74.43444234999998,70.0,55.0
234,72.77098067291665,74.47098081458331,51.0,56.0
235,74.38636542291665,74.51136543333331,39.0,73.0
236,74.38636542291665,74.51713466458331,75.0,75.0
237,75.33168187083331,75.75506899583331,39.0,67.0
238,75.33168187083331,75.79337544999997,53.0,56.0
239,75.33168187083331,75.80885311874998,51.0,49.0
240,75.33168187083331,75.81462234999998,56.0,70.0
241,75.33168187083331,75.84539158333331,61.0,69.0
242,76.27616084999998,76.74521943958332,60.0,63.0
243,76.27616084999998,76.86089103124999,68.0,72.0
244,76.50693009999998,77.16312970624999,51.0,50.0
245,76.96163725624999,77.16686104791665,58.0,59.0
246,76.96163725624999,77.30865203124999,67.0,64.0
247,76.73769934999999,77.52506984791665,56.0,53.0
248,77.40939825624999,77.59409966874999,63.0,57.0
249,76.27616084999998,77.67681109791666,44.0,70.0
250,77.63327875624998,78.08968992708331,51.0,44.0
251,77.86052323749999,78.57643239999999,58.0,39.0
252,78.08779598749999,78.60484149374999,70.0,67.0
253,78.31506873749998,78.91734152499998,51.0,55.0
254,78.76961423749998,79.16734154999999,58.0,58.0
255,78.76961423749998,79.27529610624998,67.0,63.0
256,78.54234148749998,79.28287186458331,55.0,50.0
257,79.22415973749999,79.43059915208332,51.0,59.0
258,78.08779598749999,79.47481080208331,43.0,63.0
259,79.45143248749999,79.63301392708331,65.0,62.0
260,79.68574830208331,79.91426392708331,67.0,63.0
261,79.92012330208331,80.31660767708331,41.0,61.0
262,80.15449830208331,80.32246705208331,48.0,40.0
263,80.38887330208331,80.67598267708331,53.0,39.0
264,79.92012330208331,80.79902955208331,60.0,60.0
265,79.92012330208331,80.83027955208331,68.0,59.0
266,80.62324830208331,81.00410767708331,55.0,58.0
267,80.85762330208331,81.06074830208331,56.0,61.0
268,81.09199830208331,81.38243088124997,60.0,46.0
269,81.32637330208331,81.54660991458331,67.0,56.0
270,81.55034125624998,81.83205755208331,68.0,56.0
271,81.77422175624997,82.16787830208331,67.0,67.0
272,81.77422175624997,82.20332604791665,58.0,58.0
273,82.45627030208331,82.70236405208331,55.0,61.0
274,82.69064530208331,82.83908280208331,56.0,59.0
275,82.22198275624997,83.16904073541664,51.0,56.0
276,81.77422175624997,83.20173304583331,39.0,72.0
277,81.99810225624998,83.21711766249997,46.0,55.0
278,82.92502030208331,83.23442535624997,60.0,66.0
279,83.15939530208331,83.35750228958331,63.0,46.0
280,83.39019459999997,83.65365616041665,68.0,48.0
281,83.62096384999998,84.01134849791664,37.0,63.0
282,83.85173309999998,84.03634849999997,44.0,50.0
283,83.62096384999998,84.31519467708331,67.0,66.0
284,84.08250234999998,84.37673314374997,49.0,43.0
285,84.31327159999998,84.48250238333331,65.0,63.0
286,84.31327159999998,84.70365624791664,51.0,55.0
287,84.54404084999997,84.72096394166664,53.0,60.0
288,84.77481009999998,84.96711780833331,56.0,54.0
289,85.00557934999998,85.23577766874998,61.0,55.0
290,85.23968391874998,85.45452766874998,65.0,53.0
291,85.47405891874998,85.82757454374998,36.0,66.0
292,85.70843391874998,85.90765266874998,44.0,51.0
293,85.94280891874998,86.22127722291664,48.0,49.0
294,85.47405891874998,86.4409742145833,63.0,66.0
295,86.39741360416664,86.66067120624997,56.0,66.0
296,86.17014085416665,86.82165607083331,51.0,58.0
297,86.62468635416664,86.88983789583331,60.0,59.0
298,86.85195910416664,87.0432470020833,61.0,60.0
299,87.07923185416664,87.32544399999998,63.0,60.0
300,87.30650460416665,87.78052216874997,61.0,63.0
301,87.99536591874997,88.30786591874997,60.0,58.0
302,87.53377735416665,88.38208466874997,53.0,48.0
303,88.22974091874997,88.50317841874997,61.0,63.0
304,88.46411591874997,88.64185029374997,63.0,58.0
305,87.76105010416664,88.65356904374997,58.0,61.0
306,87.30650460416665,88.78052216874997,46.0,73.0
307,88.69849091874997,88.79614716874997,53.0,60.0
308,88.69849091874997,88.90552216874997,65.0,57.0
309,88.93286591874997,89.21020966874997,68.0,62.0
310,89.16724091874997,89.47388154374997,67.0,59.0
311,89.40161591874997,89.88415618958331,46.0,66.0
312,89.63599091874997,89.99021680624996,51.0,59.0
313,89.86332285416664,89.99400468541664,56.0,73.0
314,90.09059560416664,90.39930775624997,46.0,52.0
315,90.31786835416663,90.45991382291663,61.0,72.0
316,90.31786835416663,90.46180776249997,53.0,57.0
317,90.31786835416663,90.4637017020833,56.0,62.0
318,89.16724091874997,90.4921107958333,39.0,72.0
319,90.54514110416663,90.62711316874997,43.0,49.0
320,90.77945691874997,90.93180066874997,63.0,60.0
321,91.01383191874997,91.17789441874997,36.0,69.0
322,91.01383191874997,91.37516004374997,55.0,69.0
323,91.01383191874997,91.51383191874997,60.0,67.0
324,91.24820691874997,91.53336316874997,48.0,57.0
325,91.48258191874997,92.11734754374997,53.0,49.0
326,91.71695691874997,92.12320691874997,55.0,52.0
327,92.18570691874997,92.34976941874997,60.0,52.0
328,92.42008191874997,92.58196134374997,65.0,57.0
329,92.64078481041663,93.02865204374997,60.0,37.0
330,92.64078481041663,93.0911519770833,64.0,66.0
331,92.86137281041664,93.17571071041664,36.0,67.0
332,93.08196081041663,93.34540266874997,48.0,61.0
333,93.30254881041664,93.52313704374997,60.0,62.0
334,93.53680891874997,94.02118391874997,70.0,64.0
335,94.00555891874997,94.34188705208331,52.0,67.0
336,94.23993391874997,94.43611782916663,60.0,52.0
337,94.70150246666664,95.09957942291663,60.0,67.0
338,94.70150246666664,95.1034255770833,56.0,60.0
339,94.70150246666664,95.11688711666663,65.0,63.0
340,94.70150246666664,95.14573327291663,53.0,61.0
341,95.62457946666663,96.01111796041664,58.0,61.0
342,95.62457946666663,96.01111796041664,63.0,61.0
343,95.62457946666663,96.01111796041664,67.0,67.0
344,95.62457946666663,96.06304104166664,51.0,63.0
345,96.54765646666664,97.27073344999997,56.0,62.0
346,96.54765646666664,97.2957334520833,65.0,62.0
347,96.54765646666664,97.30342576041663,62.0,69.0
348,96.54765646666664,97.49957962291664,68.0,57.0
349,97.47073346666663,97.68611809999997,56.0,40.0
350,96.54765646666664,97.83611811249997,50.0,58.0
351,97.70150271666664,97.98611812499998,65.0,58.0
352,97.93227196666663,98.14188736874996,67.0,66.0
353,98.16304121666664,98.3745796958333,68.0,64.0
354,98.16304121666664,98.3745796958333,68.0,66.0
355,98.39381046666664,98.83804127291664,65.0,60.0
356,98.39381046666664,98.9630412833333,72.0,70.0
357,98.62457971666663,99.45727209374996,56.0,46.0
358,99.08611821666663,99.59957979791663,65.0,54.0
359,99.54765671666664,99.68227211249997,68.0,69.0
360,98.85534896666664,99.7765028895833,61.0,56.0
361,98.39381046666664,99.96881059791663,49.0,63.0
362,99.77842596666663,100.00534906249997,56.0,60.0
363,100.23996446666663,100.8899645208333,63.0,61.0
364,100.23996446666663,100.89957990624997,58.0,58.0
365,100.23996446666663,100.9015029833333,67.0,62.0
366,100.23996446666663,101.31496455624998,55.0,70.0
367,101.16304146666664,101.65342612291664,67.0,67.0
368,101.16304146666664,101.65727227708331,63.0,69.0
369,101.16304146666664,101.71304151249997,60.0,67.0
370,101.62457996666663,101.74573382291663,55.0,43.0
371,100.23996446666663,101.76881074791663,48.0,60.0
372,102.08611846666663,102.64188774374998,61.0,64.0
373,102.08611846666663,102.7880416020833,58.0,60.0
374,102.08611846666663,102.78996467916663,68.0,39.0
375,102.08611846666663,102.80150314166664,65.0,60.0
376,102.08611846666663,103.15727240208331,53.0,61.0
377,103.00919546666664,103.48996473749997,65.0,62.0
378,103.00919546666664,103.48996473749997,68.0,52.0
379,103.00919546666664,103.49573396874997,61.0,66.0
380,103.00919546666664,103.50727243124997,58.0,55.0
381,102.08611846666663,103.5495801270833,46.0,51.0
382,103.47073396666664,103.55727243541664,53.0,60.0
383,103.93227246666663,104.22073402916664,56.0,61.0
384,103.93227246666663,104.22073402916664,61.0,67.0
385,103.93227246666663,104.24381095416663,65.0,66.0
386,104.62458021666663,104.98227255416664,56.0,58.0
387,104.39381096666663,104.9976571708333,51.0,46.0
388,104.85534946666664,105.15342641458331,61.0,61.0
389,103.93227246666663,105.32650335208331,39.0,66.0
390,104.16304171666664,105.33996489166664,46.0,56.0
391,105.31688796666664,105.48034951874997,51.0,58.0
392,105.08611871666663,105.5745802958333,65.0,61.0
393,105.54765721666664,105.63034953124998,68.0,33.0
394,105.77842646666663,106.2322726583333,63.0,52.0
395,105.77842646666663,106.30534958749996,60.0,59.0
396,105.77842646666663,106.46688806249998,68.0,46.0
397,106.23996496666663,106.78227270416663,51.0,44.0
398,106.47073421666664,106.99573426041664,56.0,48.0
399,106.70150346666664,107.0226573395833,60.0,67.0
400,105.77842646666663,107.16304196666664,44.0,72.0
401,106.93227271666663,107.36111890624997,51.0,54.0
402,107.16304196666664,107.4207342958333,60.0,62.0
403,107.39381121666663,107.6918881645833,68.0,67.0
404,107.62458046666663,108.08034973541663,67.0,61.0
405,108.31688821666664,108.54188823541664,58.0,53.0
406,108.08611896666663,108.63804208958331,55.0,48.0
407,107.85534971666664,108.74381132916663,51.0,45.0
408,108.54765746666664,108.80727287291664,63.0,63.0
409,107.62458046666663,108.87842672499997,43.0,51.0
410,108.77842671666663,108.96496519374998,65.0,59.0
411,109.00919596666664,109.24765752499997,67.0,59.0
412,109.23996521666663,109.53996524166664,70.0,63.0
413,109.47073446666664,109.86304219166664,41.0,61.0
414,109.70150371666664,109.92842681249996,48.0,49.0
415,109.93227296666663,110.2418883770833,53.0,40.0
416,109.47073446666664,110.34381146249997,68.0,57.0
417,110.16304221666664,110.5938114833333,55.0,57.0
418,110.39381146666663,110.6168884083333,56.0,63.0
419,110.62458071666663,110.78611919166664,60.0,54.0
420,110.85534996666664,111.03419613541664,65.0,56.0
421,111.08611921666663,111.3726577020833,68.0,57.0
422,111.31688846666664,111.66304234166664,39.0,58.0
423,111.54765771666663,111.72073465416663,48.0,46.0
424,111.77842696666664,112.0534269895833,51.0,44.0
425,111.31688846666664,112.13035007291663,67.0,54.0
426,112.23996546666663,112.4688116395833,56.0,59.0
427,112.00919621666664,112.5611193395833,53.0,56.0
428,112.47073471666664,112.64958088541664,60.0,43.0
429,112.70150396666664,112.8841962895833,63.0,53.0
430,112.93227321666663,113.11304246249998,68.0,49.0
431,113.16304246666664,113.65919635416664,56.0,58.0
432,113.16304246666664,113.68419635624997,61.0,61.0
433,113.16304246666664,113.75342713124996,65.0,66.0
434,113.62458096666663,114.13611947083331,49.0,41.0
435,114.08611946666663,114.33996564166664,56.0,59.0
436,114.08611946666663,114.35919641249997,61.0,62.0
437,114.08611946666663,114.37073487499997,65.0,56.0
438,114.31688871666664,114.54188873541663,49.0,54.0
439,113.16304246666664,114.6726579770833,37.0,66.0
440,114.54765796666663,114.73804259791663,56.0,52.0
441,114.77842721666664,114.94958107708331,65.0,63.0
442,115.00919646666664,115.3765041895833,48.0,50.0
443,115.00919646666664,115.42458111666664,63.0,56.0
444,115.00919646666664,115.51688881666664,56.0,62.0
445,115.70150421666663,116.15919656249997,48.0,60.0
446,115.00919646666664,116.22842733749997,36.0,56.0
447,116.16304271666664,116.33035042291664,56.0,70.0
448,116.39381196666663,116.5649658270833,58.0,63.0
449,116.62458121666663,116.81688892499997,60.0,52.0
450,116.62458121666663,116.83996584999997,35.0,70.0
451,116.85535046666664,117.23804280624996,34.0,63.0
452,117.08611971666664,117.29188896458331,41.0,49.0
453,117.31688896666664,117.59188898958331,46.0,44.0
454,116.85535046666664,117.60535052916663,53.0,60.0
455,116.85535046666664,117.6438120708333,56.0,69.0
456,116.85535046666664,117.65727361041664,61.0,80.0
457,117.77842746666664,117.90727363124996,49.0,64.0
458,117.54765821666663,117.91688901666663,48.0,56.0
459,118.00919671666664,118.25727366041664,53.0,53.0
460,118.23996596666663,118.36881213124997,56.0,53.0
461,118.47073521666664,118.58035061041664,58.0,47.0
462,118.70150446666663,119.1668891208333,58.0,60.0
463,118.70150446666663,119.18804296874997,55.0,60.0
464,118.70150446666663,119.20342758541663,63.0,58.0
465,119.39381221666663,119.59573531041664,55.0,64.0
466,119.62458146666664,119.88611994999997,56.0,69.0
467,118.93227371666663,119.94958149374997,46.0,47.0
468,118.70150446666663,119.9803507270833,39.0,67.0
469,119.16304296666664,119.98227380416664,51.0,62.0
470,119.85535071666663,119.98227380416664,58.0,59.0
471,120.08611996666664,120.26881228958331,60.0,57.0
472,120.31688921666664,120.49188923124997,65.0,62.0
473,120.54765846666663,120.98804311874997,60.0,60.0
474,120.54765846666663,121.05727389374997,58.0,52.0
475,120.54765846666663,121.10919697499997,64.0,63.0
476,120.54765846666663,121.25150467916663,67.0,69.0
477,121.00919696666664,121.58035086041664,55.0,35.0
478,121.47073546666664,121.9707355083333,58.0,56.0
479,121.47073546666664,122.00150474166664,64.0,73.0
480,121.47073546666664,122.17073552499997,67.0,63.0
481,121.93227396666663,122.57458171249996,55.0,53.0
482,122.39381246666663,122.7899663458333,58.0,60.0
483,122.39381246666663,122.80535096249997,64.0,69.0
484,122.39381246666663,122.8188125020833,67.0,67.0
485,122.85535096666663,122.9688125145833,55.0,69.0
486,120.54765846666663,122.97842789999997,48.0,72.0
487,123.08612021666664,123.42265870624996,58.0,57.0
488,123.31688946666664,123.61881256874997,64.0,78.0
489,123.54765871666663,123.83804335624997,65.0,70.0
490,124.00919721666664,124.04958183541663,70.0,39.0
491,123.77842796666664,124.20150492499997,67.0,63.0
492,124.23996646666663,124.70150496666663,60.0,66.0
493,124.23996646666663,124.71496650624997,68.0,70.0
494,124.70150496666663,124.91881267708331,53.0,52.0
495,124.23996646666663,124.9361203708333,41.0,64.0
496,124.93227421666663,125.10535115416664,60.0,61.0
497,124.47073571666664,125.16881269791664,48.0,49.0
498,125.16304346666664,125.46881272291664,60.0,54.0
499,125.16304346666664,125.53804349791663,68.0,73.0
500,125.16304346666664,125.58035119374998,39.0,67.0
501,125.39381271666663,125.6284281208333,48.0,57.0
502,125.62458196666664,125.8130435208333,67.0,56.0
503,126.08612046666664,126.42650511041663,56.0,53.0
504,126.08612046666664,126.44381280416664,62.0,72.0
505,126.08612046666664,126.4649666520833,65.0,56.0
506,125.85535121666663,126.49188973124997,68.0,67.0
507,127.00919746666663,127.23804363958331,60.0,49.0
508,126.54765896666663,127.46112058124997,56.0,36.0
509,126.08612046666664,127.5899667458333,50.0,69.0
510,127.47073596666664,127.5899667458333,60.0,63.0
511,127.93227446666663,128.47265912708332,65.0,73.0
512,127.93227446666663,128.56112067291664,61.0,80.0
513,127.93227446666663,128.63035144791664,56.0,51.0
514,127.93227446666663,129.1361207208333,49.0,76.0
515,128.85535146666663,129.42842843749997,61.0,75.0
516,128.85535146666663,129.43419766874996,56.0,67.0
517,128.85535146666663,129.44381305416664,65.0,67.0
518,129.31688996666662,129.7707361583333,49.0,63.0
519,129.77842846666664,130.43227467499997,68.0,70.0
520,129.77842846666664,130.45535159999997,60.0,60.0
521,129.77842846666664,130.46496698541665,63.0,70.0
522,129.77842846666664,130.89765932916663,48.0,59.0
523,130.70150546666665,131.2765055145833,63.0,70.0
524,130.70150546666665,131.2765055145833,68.0,69.0
525,130.70150546666665,131.29765936249999,60.0,70.0
526,131.16304396666663,131.42842860416664,48.0,40.0
527,131.39381321666664,131.66496708541663,47.0,56.0
528,131.62458246666665,132.18419789791665,61.0,69.0
529,131.62458246666665,132.31689021666665,58.0,63.0
530,131.62458246666665,132.3207363708333,65.0,70.0
531,132.08612096666664,132.38227483749998,68.0,7.0
532,131.62458246666665,132.8630441083333,46.0,61.0
533,132.54765946666663,132.95150565416662,65.0,58.0
534,132.54765946666663,133.02842873749998,61.0,60.0
535,132.54765946666663,133.03227489166665,68.0,48.0
536,132.54765946666663,133.0361210458333,58.0,53.0
537,133.00919796666665,133.11112105208332,46.0,66.0
538,133.47073646666664,133.93227496666663,51.0,50.0
539,133.47073646666664,133.9534288145833,65.0,63.0
540,133.47073646666664,133.96689035416665,56.0,67.0
541,133.47073646666664,134.1091980583333,61.0,62.0
542,134.16304421666663,134.62650579374997,51.0,30.0
543,133.47073646666664,134.8938135083333,39.0,55.0
544,134.39381346666664,134.90727504791664,63.0,63.0
545,134.39381346666664,134.9226596645833,67.0,63.0
546,134.39381346666664,135.01304428749995,58.0,60.0
547,134.85535196666663,135.18419814791662,51.0,57.0
548,135.31689046666662,135.81304435416664,61.0,69.0
549,135.31689046666662,136.1745828458333,68.0,67.0
550,136.00919821666662,136.52842902916663,61.0,60.0
551,136.00919821666662,136.5841982645833,65.0,48.0
552,136.00919821666662,136.84573674791665,51.0,19.0
553,136.70150596666664,136.97842906666665,61.0,51.0
554,136.47073671666664,137.48804449374995,56.0,40.0
555,136.93227521666665,137.7149675895833,63.0,62.0
556,137.16304446666663,137.73612143749997,60.0,61.0
557,137.16304446666663,138.01881376874996,51.0,57.0
558,137.85535221666663,138.29958302291664,56.0,36.0
559,138.08612146666664,138.4245830333333,58.0,63.0
560,138.08612146666664,138.43227534166664,63.0,67.0
561,135.31689046666662,138.48996765416663,44.0,67.0
562,138.31689071666665,138.66496766874997,51.0,48.0
563,138.54765996666663,138.79958306458332,61.0,67.0
564,138.77842921666664,138.8284292208333,63.0,29.0
565,151.00919946666664,151.60919951666665,59.0,82.0
566,150.08612246666664,151.6188149020833,47.0,85.0
567,150.54766096666663,151.76112260624996,54.0,64.0
568,152.85535346666663,153.39381504999997,58.0,95.0
569,152.39381496666664,153.41496889791665,54.0,62.0
570,151.93227646666662,153.43227659166664,46.0,80.0
571,153.31689196666665,153.80343046874998,61.0,66.0
572,153.77843046666663,154.75343054791665,59.0,75.0
573,154.70150746666664,155.23996904999996,56.0,82.0
574,153.77843046666663,155.28612289999995,44.0,76.0
575,155.16304596666663,155.43996906666663,59.0,76.0
576,155.39381521666664,155.61304600416662,61.0,66.0
577,154.23996896666665,155.6457383145833,51.0,56.0
578,155.62458446666665,156.63035378124997,63.0,72.0
579,156.08612296666664,156.68035378541663,51.0,55.0
580,156.54766146666663,157.03804612291663,59.0,67.0
581,156.54766146666663,157.0707384333333,54.0,57.0
582,157.00919996666664,157.1168922833333,51.0,69.0
583,155.62458446666665,157.12458459166663,42.0,64.0
584,157.47073846666663,158.33227699999998,56.0,64.0
585,157.47073846666663,158.3918923895833,59.0,66.0
586,157.47073846666663,158.40150777499997,63.0,72.0
587,157.47073846666663,158.93227704999998,40.0,75.0
588,157.93227696666662,158.95343089791663,47.0,56.0
589,158.39381546666664,158.96112320624997,52.0,69.0
590,159.31689246666662,160.74766181666664,61.0,82.0
591,159.31689246666662,160.76881566458331,55.0,76.0
592,159.31689246666662,160.78996951249997,40.0,69.0
593,160.23996946666665,160.86304644166665,52.0,75.0
594,159.77843096666663,160.9361233708333,47.0,52.0
595,160.70150796666664,161.05920030416664,59.0,58.0
596,161.16304646666663,161.6976618958333,54.0,57.0
597,161.16304646666663,162.2053542458333,61.0,73.0
598,161.16304646666663,162.72266198124998,42.0,73.0
599,162.08612346666663,162.82073891249996,54.0,70.0
600,161.62458496666665,163.0592004708333,49.0,53.0
601,162.54766196666662,163.0592004708333,58.0,78.0
602,163.00920046666664,163.43420050208329,61.0,82.0
603,163.00920046666664,163.89958515624997,42.0,69.0
604,163.47073896666663,163.9534313145833,49.0,56.0
605,163.47073896666663,163.9649697770833,59.0,70.0
606,163.93227746666662,164.43804673958329,64.0,72.0
607,163.93227746666662,164.48420058958328,54.0,61.0
608,164.39381596666664,164.8361236958333,63.0,58.0
609,164.39381596666664,164.8765083145833,56.0,54.0
610,164.85535446666665,165.74958531041665,66.0,61.0
611,165.31689296666661,165.8572776270833,54.0,51.0
612,165.77843146666663,166.31304689583328,59.0,52.0
613,164.85535446666665,166.36304689999997,47.0,69.0
614,165.77843146666663,166.38035459374998,63.0,70.0
615,166.23996996666665,166.7342007770833,54.0,59.0
616,167.16304696666663,167.64766239166664,54.0,59.0
617,166.70150846666664,167.69573931875,61.0,72.0
618,167.62458546666664,167.98420088125,58.0,54.0
619,167.62458546666664,168.08227781249997,66.0,66.0
620,166.70150846666664,168.08420088958331,46.0,63.0
621,168.08612396666663,168.52650861874997,70.0,66.0
622,169.00920096666664,169.5380471645833,51.0,53.0
623,168.54766246666662,169.94381642916665,66.0,70.0
624,169.47073946666663,169.9765087395833,56.0,60.0
625,168.54766246666662,169.98997027916664,63.0,62.0
626,168.54766246666662,170.13612413749996,44.0,73.0
627,169.93227796666662,170.45920108749996,51.0,55.0
628,168.54766246666662,170.4784318583333,71.0,70.0
629,170.39381646666664,170.99381651666664,61.0,75.0
630,170.39381646666664,171.0553549833333,70.0,70.0
631,170.85535496666665,171.38035501041662,51.0,52.0
632,171.31689346666664,171.82650889374997,54.0,59.0
633,171.31689346666664,171.8630473583333,59.0,80.0
634,170.39381646666664,171.8803550520833,42.0,67.0
635,171.77843196666663,171.92843197916665,51.0,62.0
636,171.31689346666664,172.18804738541664,66.0,69.0
637,172.23997046666665,172.87073974999998,59.0,69.0
638,172.23997046666665,173.09381669166663,64.0,75.0
639,172.70150896666664,173.21497054791664,47.0,49.0
640,172.23997046666665,173.24381670416665,68.0,76.0
641,173.16304746666663,173.68804751041665,52.0,55.0
642,172.23997046666665,173.7207398208333,40.0,70.0
643,173.62458596666664,174.02266292291665,66.0,76.0
644,173.62458596666664,174.11497062291664,47.0,64.0
645,174.08612446666663,174.68612451666664,64.0,78.0
646,174.08612446666663,174.7938168333333,59.0,76.0
647,174.08612446666663,175.2092014833333,67.0,82.0
648,174.08612446666663,175.45920150416663,40.0,69.0
649,175.00920146666664,175.54573997291664,52.0,50.0
650,175.47073996666666,175.9361246208333,64.0,80.0
651,174.54766296666662,175.95150923749998,47.0,59.0
652,175.93227846666662,176.40727850624995,66.0,91.0
653,175.93227846666662,176.4957400520833,61.0,62.0
654,176.39381696666663,176.90535547083329,49.0,58.0
655,176.85535546666665,177.26689396249998,64.0,70.0
656,175.93227846666662,177.34189396874996,42.0,66.0
657,176.85535546666665,177.3495862770833,54.0,49.0
658,176.85535546666665,177.39381704999997,59.0,80.0
659,177.31689396666664,177.7822786208333,49.0,55.0
660,177.77843246666663,178.14958634374997,58.0,73.0
661,177.77843246666663,178.1572786520833,61.0,72.0
662,177.77843246666663,178.5668940708333,42.0,67.0
663,178.23997096666665,178.58612484166662,59.0,69.0
664,178.23997096666665,178.6245863833333,63.0,70.0
665,178.23997096666665,178.68420177291665,49.0,63.0
666,178.70150946666664,178.91304794583328,59.0,72.0
667,178.70150946666664,178.98612487499997,64.0,63.0
668,178.70150946666664,179.20343258541664,54.0,55.0
669,179.16304796666662,179.3399710583333,56.0,67.0
670,179.16304796666662,179.39189413958331,66.0,93.0
671,179.62458646666664,180.16112497291664,63.0,69.0
672,179.62458646666664,180.1765095895833,59.0,73.0
673,179.62458646666664,180.28420190624996,56.0,67.0
674,180.54766346666662,181.09189428124995,56.0,75.0
675,180.08612496666663,181.72266356458329,53.0,44.0
676,181.00920196666664,181.73227894999997,63.0,62.0
677,182.16304821666665,182.3457405395833,65.0,56.0
678,182.39381746666663,182.6745867208333,68.0,67.0
679,182.62458671666664,182.7611251895833,70.0,54.0
680,181.93227896666662,182.76497134374995,53.0,35.0
681,179.62458646666664,182.84958673541664,41.0,69.0
682,182.85535596666665,183.08804829374998,72.0,50.0
683,183.08612521666663,183.25920215416664,75.0,46.0
684,183.31689446666664,183.64958680208332,68.0,52.0
685,183.31689446666664,183.6784329583333,72.0,69.0
686,183.31689446666664,183.7130483458333,63.0,55.0
687,183.77843296666663,184.28035608541666,48.0,42.0
688,184.23997146666665,184.40727917291662,56.0,69.0
689,184.23997146666665,184.4399714833333,60.0,69.0
690,184.23997146666665,184.75535612499996,51.0,52.0
691,185.16304846666662,185.43997156666666,51.0,39.0
692,185.16304846666662,185.44574079791664,58.0,57.0
693,185.16304846666662,185.4495869520833,63.0,47.0
694,185.16304846666662,185.57266388541663,67.0,53.0
695,185.85535621666662,186.05151007916663,60.0,66.0
696,185.85535621666662,186.0668946958333,68.0,73.0
697,184.70150996666663,186.25920240416661,48.0,44.0
698,183.31689446666664,186.4015101083333,39.0,60.0
699,186.08612546666663,186.4649716520833,51.0,42.0
700,186.54766396666662,186.6495870520833,60.0,66.0
701,186.54766396666662,186.6495870520833,67.0,64.0
702,187.00920246666664,187.41112557708328,56.0,62.0
703,187.00920246666664,187.4572794270833,61.0,60.0
704,187.00920246666664,187.49574096874997,65.0,61.0
705,187.47074096666665,187.8380486895833,53.0,42.0
706,187.70151021666663,187.98612562499997,56.0,46.0
707,187.70151021666663,188.02458716666663,63.0,49.0
708,187.9322794666666,188.47074104999996,53.0,45.0
709,188.16304871666665,188.4842025895833,56.0,43.0
710,188.39381796666663,188.63612567916664,61.0,72.0
711,188.62458721666664,189.06304879166663,63.0,63.0
712,189.08612571666663,189.63612576249997,53.0,50.0
713,189.31689496666664,189.83804885624997,56.0,51.0
714,189.54766421666665,189.87266424374997,65.0,66.0
715,189.77843346666663,190.09574118541664,53.0,58.0
716,187.00920246666664,190.17266426874997,49.0,62.0
717,190.00920271666664,190.18227965416662,56.0,55.0
718,190.23997196666664,190.47651044791664,61.0,64.0
719,190.47074121666662,191.09189511458328,65.0,66.0
720,190.70151046666663,191.12074127083332,39.0,73.0
721,190.93227971666664,191.1495874270833,46.0,54.0
722,190.70151046666663,191.33035667291665,61.0,51.0
723,190.70151046666663,191.33612590416664,56.0,55.0
724,191.16304896666662,191.45727976041664,51.0,44.0
725,190.70151046666663,191.7726644020833,68.0,61.0
726,191.62458746666664,191.7822797875,56.0,78.0
727,191.39381821666663,191.90151056666662,53.0,60.0
728,191.85535671666662,192.05920288749996,56.0,46.0
729,192.08612596666663,192.2342029020833,61.0,57.0
730,192.31689521666664,192.9784337333333,56.0,59.0
731,192.31689521666664,193.0072798895833,61.0,56.0
732,193.23997221666662,193.30535683749997,61.0,59.0
733,193.00920296666663,193.3188183770833,51.0,49.0
734,193.23997221666662,193.36497222708329,56.0,61.0
735,193.23997221666662,193.4168953083333,65.0,69.0
736,193.47074146666665,193.72651071874998,51.0,44.0
737,193.70151071666663,193.84381842083332,67.0,67.0
738,193.70151071666663,193.8668953458333,58.0,63.0
739,193.70151071666663,193.8842030395833,63.0,60.0
740,192.77843371666665,193.94958766041663,46.0,48.0
741,192.54766446666662,193.95727996874996,39.0,70.0
742,193.93227996666664,194.04189536041662,51.0,44.0
743,194.39381846666663,194.64958771874996,60.0,59.0
744,194.39381846666663,194.68420310624998,65.0,64.0
745,194.39381846666663,194.69574156874995,68.0,66.0
746,194.85535696666665,195.0265108270833,60.0,53.0
747,194.62458771666664,195.1649723770833,56.0,60.0
748,195.08612621666663,195.2053569958333,60.0,40.0
749,195.08612621666663,195.46881855624997,67.0,61.0
750,194.39381846666663,195.9784339833333,53.0,54.0
751,195.54766471666665,196.06304937499996,56.0,57.0
752,195.77843396666663,196.14381861249996,60.0,58.0
753,196.00920321666663,196.32843401249997,68.0,67.0
754,196.70151096666663,196.95728021875,56.0,53.0
755,196.93228021666664,197.0572802270833,75.0,66.0
756,197.39381871666663,197.48035718541664,67.0,44.0
757,196.47074171666662,197.74574182291664,53.0,52.0
758,197.62458796666664,197.7553572083333,56.0,64.0
759,197.85535721666662,198.3322803333333,68.0,64.0
760,198.54766496666662,198.7765111395833,63.0,58.0
761,198.31689571666664,198.7880496020833,60.0,62.0
762,198.77843421666665,198.8861265333333,67.0,69.0
763,199.23997271666664,199.3188188770833,60.0,37.0
764,198.08612646666666,199.40343426874995,51.0,72.0
765,199.47074196666665,199.58228043749997,63.0,46.0
766,199.93228046666664,200.33804973124995,39.0,58.0
767,200.16304971666665,200.3803574270833,46.0,50.0
768,199.70151121666663,200.5361266708333,63.0,44.0
769,200.39381896666663,200.6745882208333,51.0,58.0
770,199.70151121666663,200.90343439375,70.0,63.0
771,200.62458821666664,200.97074209166664,53.0,52.0
772,200.85535746666665,201.0438190208333,55.0,62.0
773,201.08612671666663,201.2399728833333,58.0,53.0
774,201.31689596666664,201.48035751874997,63.0,57.0
775,201.54766521666664,202.27458835416664,70.0,63.0
776,202.00920371666663,202.5034345270833,56.0,46.0
777,202.47074221666662,202.6822806958333,68.0,64.0
778,202.23997296666664,202.79381916666665,61.0,60.0
779,201.77843446666662,203.09381919166663,49.0,52.0
780,202.93228071666664,203.13420381041664,56.0,46.0
781,203.16304996666662,203.3630499833333,67.0,61.0
782,203.39381921666663,203.90151156666664,65.0,60.0
783,203.85535771666662,204.29381929166664,56.0,60.0
784,204.08612696666665,204.39766545416666,61.0,46.0
785,204.31689621666663,204.57651162291666,63.0,66.0
786,204.77843471666665,204.9207424208333,56.0,47.0
787,203.62458846666664,204.98612704166663,49.0,66.0
788,205.00920396666663,205.13228089999996,65.0,57.0
789,205.47074246666665,205.7803578770833,61.0,60.0
790,205.47074246666665,205.7918963395833,53.0,52.0
791,205.47074246666665,205.7918963395833,56.0,61.0
792,205.93228096666664,206.10535790416662,53.0,50.0
793,206.16305021666665,206.4495887020833,56.0,69.0
794,206.39381946666663,206.4957425520833,58.0,69.0
795,206.62458871666664,206.90728104791663,63.0,59.0
796,206.85535796666665,207.1015118333333,68.0,66.0
797,205.47074246666665,207.15728106874997,39.0,69.0
798,207.08612721666663,207.36497339374995,70.0,55.0
799,205.70151171666663,207.40151185833332,51.0,56.0
800,207.31689646666663,207.4418964770833,39.0,73.0
801,207.31689646666663,207.44766570833332,75.0,75.0
802,208.23997346666664,208.64381965416663,39.0,67.0
803,208.23997346666664,208.68035811874995,53.0,56.0
804,208.23997346666664,208.69574273541662,51.0,49.0
805,208.23997346666664,208.70151196666663,56.0,70.0
806,208.23997346666664,208.7322812,61.0,69.0
807,209.16305046666662,209.63228127499997,60.0,63.0
808,209.16305046666662,209.75151205416665,68.0,72.0
809,209.39381971666666,210.06305054166666,51.0,50.0
810,209.85535821666662,210.0668966958333,58.0,59.0
811,209.85535821666662,210.2130505541666,67.0,64.0
812,209.62458896666664,210.43612749583332,56.0,53.0
813,210.31689671666663,210.50728134791663,63.0,57.0
814,209.16305046666662,210.59189673958332,44.0,70.0
815,210.54766596666664,211.01112754374998,51.0,44.0
816,210.77843521666665,211.50535835416662,58.0,39.0
817,211.00920446666663,211.53420451041663,70.0,67.0
818,211.23997371666664,211.85151222916664,51.0,55.0
819,211.70151221666663,212.10535840416662,58.0,58.0
820,211.70151221666663,212.21497379791663,67.0,63.0
821,211.47074296666665,212.22266610624996,55.0,50.0
822,212.16305071666665,212.37266611874998,51.0,59.0
823,211.00920446666663,212.41689689166662,43.0,63.0
824,212.39381996666663,212.57266613541663,65.0,62.0
825,212.62458921666664,212.84958923541663,67.0,63.0
826,212.85535846666664,213.24574311458332,41.0,61.0
827,213.08612771666662,213.2515123458333,48.0,40.0
828,213.31689696666663,213.59958929791662,53.0,39.0
829,212.85535846666664,213.72074315416666,60.0,60.0
830,212.85535846666664,213.7515123875,68.0,59.0
831,213.54766621666664,213.92266624791665,55.0,58.0
832,213.77843546666662,213.9784354833333,56.0,61.0
833,214.00920471666663,214.29766627916663,60.0,46.0
834,214.23997396666664,214.46689706249998,67.0,56.0
835,214.47074321666662,214.76112785624997,68.0,56.0
836,214.70151246666663,215.10728173124997,67.0,67.0
837,214.70151246666663,215.1438201958333,58.0,58.0
838,215.39382021666665,215.63612792916663,55.0,61.0
839,215.62458946666663,215.77074332499996,56.0,59.0
840,215.16305096666662,216.0957433520833,51.0,56.0
841,214.70151246666663,216.12843566249995,39.0,72.0
842,214.93228171666664,216.14382027916662,46.0,55.0
843,215.85535871666661,216.16112797291663,60.0,66.0
844,216.08612796666665,216.28420490624995,63.0,46.0
845,216.31689721666663,216.5803587770833,68.0,48.0
846,216.54766646666664,216.9380511145833,37.0,63.0
847,216.77843571666665,216.96305111666663,44.0,50.0
848,216.54766646666664,217.24189729374996,67.0,66.0
849,217.00920496666663,217.30343576041662,49.0,43.0
850,217.23997421666664,217.409205,65.0,63.0
851,217.23997421666664,217.6303588645833,51.0,55.0
852,217.47074346666665,217.6476665583333,53.0,60.0
853,217.70151271666663,217.89382042499997,56.0,54.0
854,217.93228196666664,218.15920506249995,61.0,55.0
855,218.16305121666664,218.37458969583332,65.0,53.0
856,218.39382046666663,218.74189741874997,36.0,66.0
857,218.62458971666663,218.82074357916662,44.0,51.0
858,218.85535896666664,219.13805129791663,48.0,49.0
859,218.39382046666663,219.3611282395833,63.0,66.0
860,219.31689746666663,219.58420518124996,56.0,66.0
861,219.08612821666662,219.7476667333333,51.0,58.0
862,219.54766671666664,219.81689750833328,60.0,59.0
863,219.77843596666662,219.97266675208328,61.0,60.0
864,220.00920521666663,220.25920523749997,63.0,60.0
865,220.23997446666664,220.72074373749996,61.0,63.0
866,220.93228221666664,221.23997454999997,60.0,58.0
867,220.47074371666662,221.31305147916663,53.0,48.0
868,221.16305146666662,221.43228225833332,61.0,63.0
869,221.39382071666665,221.56882073124996,63.0,58.0
870,220.70151296666666,221.58035919374998,58.0,61.0
871,220.23997446666664,221.70535920416665,46.0,73.0
872,221.62458996666663,221.72074382083332,53.0,60.0
873,221.62458996666663,221.82843613749998,65.0,57.0
874,221.85535921666664,222.12843616249995,68.0,62.0
875,222.08612846666665,222.38805156874997,67.0,59.0
876,222.31689771666663,222.7995900645833,46.0,66.0
877,222.5476669666666,222.90728238124996,51.0,59.0
878,222.77843621666665,222.91112853541665,56.0,73.0
879,223.00920546666663,223.32266703124998,46.0,52.0
880,223.2399747166666,223.38420549791664,61.0,72.0
881,223.2399747166666,223.386128575,53.0,57.0
882,223.2399747166666,223.38805165208328,56.0,62.0
883,222.08612846666665,223.41689780833332,39.0,72.0
884,223.47074396666665,223.5515132041666,43.0,49.0
885,223.70151321666663,223.85151322916664,63.0,60.0
886,223.93228246666666,224.09382094166665,36.0,69.0
887,223.93228246666666,224.2880517270833,55.0,69.0
888,223.93228246666666,224.42459019999995,60.0,67.0
889,224.16305171666664,224.44382097083331,48.0,57.0
890,224.39382096666662,225.01882101874997,53.0,49.0
891,224.62459021666666,225.02459024999996,55.0,52.0
892,225.08612871666662,225.2476671916666,60.0,52.0
893,225.31689796666666,225.48612874999998,65.0,57.0
894,225.54766721666664,225.95343648124998,60.0,37.0
895,225.54766721666664,226.01882110208328,64.0,66.0
896,225.77843646666662,226.10728264791663,36.0,67.0
897,226.00920571666666,226.2822826625,48.0,61.0
898,226.23997496666664,226.4572826770833,60.0,62.0
899,226.47074421666662,226.9476673333333,70.0,64.0
900,226.93228271666663,227.2649750520833,52.0,67.0
901,227.16305196666661,227.35920582916663,60.0,52.0
902,227.62459046666663,228.02266742291664,60.0,67.0
903,227.62459046666663,228.02651357708328,56.0,60.0
904,227.62459046666663,228.03997511666665,65.0,63.0
905,227.62459046666663,228.06882127291664,53.0,61.0
906,228.5476674666666,228.93420596041665,58.0,61.0
907,228.5476674666666,228.93420596041665,63.0,61.0
908,228.5476674666666,228.93420596041665,67.0,67.0
909,228.5476674666666,228.98612904166663,51.0,63.0
910,229.47074446666664,230.19382144999997,56.0,62.0
911,229.47074446666664,230.21882145208332,65.0,62.0
912,229.47074446666664,230.22651376041665,62.0,69.0
913,229.47074446666664,230.42266762291666,68.0,57.0
914,230.39382146666662,230.6092061,56.0,40.0
915,229.47074446666664,230.75920611249995,50.0,58.0
916,230.62459071666666,230.90920612499997,65.0,58.0
917,230.85535996666664,231.06497536874997,67.0,66.0
918,231.08612921666662,231.2976676958333,68.0,64.0
919,231.08612921666662,231.2976676958333,68.0,66.0
920,231.31689846666666,231.76112927291666,65.0,60.0
921,231.31689846666666,231.88612928333328,72.0,70.0
922,231.54766771666664,232.38036009374997,56.0,46.0
923,232.00920621666666,232.52266779791665,65.0,54.0
924,232.47074471666662,232.60536011249997,68.0,69.0
925,231.77843696666662,232.6995908895833,61.0,56.0
926,231.31689846666666,232.89189859791662,49.0,63.0
927,232.70151396666665,232.9284370625,56.0,60.0
928,233.1630524666666,233.8130525208333,63.0,61.0
929,233.1630524666666,233.82266790625,58.0,58.0
930,233.1630524666666,233.82459098333328,67.0,62.0
931,233.1630524666666,234.23805255624995,55.0,70.0
932,234.08612946666665,234.57651412291665,67.0,67.0
933,234.08612946666665,234.5803602770833,63.0,69.0
934,234.08612946666665,234.63612951249996,60.0,67.0
935,234.5476679666666,234.66882182291664,55.0,43.0
936,233.1630524666666,234.69189874791664,48.0,60.0
937,235.00920646666663,235.56497574374998,61.0,64.0
938,235.00920646666663,235.7111296020833,58.0,60.0
939,235.00920646666663,235.71305267916665,68.0,39.0
940,235.00920646666663,235.72459114166662,65.0,60.0
941,235.00920646666663,236.08036040208333,53.0,61.0
942,235.93228346666666,236.41305273749998,65.0,62.0
943,235.93228346666666,236.41305273749998,68.0,52.0
944,235.93228346666666,236.41882196874997,61.0,66.0
945,235.93228346666666,236.43036043125,58.0,55.0
946,235.00920646666663,236.4726681270833,46.0,51.0
947,236.39382196666662,236.48036043541663,53.0,60.0
948,236.85536046666664,237.2342066520833,51.0,61.0
949,236.85536046666664,237.2342066520833,55.0,70.0
950,236.85536046666664,237.23997588333333,58.0,70.0
951,236.85536046666664,237.26112973124998,63.0,72.0
952,236.85536046666664,237.27266819374995,39.0,64.0
953,238.70151446666665,239.15536065833328,64.0,52.0
954,238.70151446666665,239.22843758749997,61.0,59.0
955,238.70151446666665,239.38997606249995,69.0,46.0
956,239.1630529666666,239.70536070416665,52.0,44.0
957,239.39382221666665,239.91882226041662,57.0,48.0
958,239.62459146666663,239.9457453395833,61.0,67.0
959,238.70151446666665,240.08612996666665,45.0,72.0
960,239.8553607166666,240.28420690624995,52.0,54.0
961,240.08612996666665,240.34382229583332,61.0,62.0
962,240.31689921666663,240.6149761645833,69.0,67.0
963,240.5476684666666,241.00343773541664,68.0,61.0
964,241.23997621666666,241.46497623541666,59.0,53.0
965,241.00920696666662,241.5611300895833,56.0,48.0
966,240.77843771666664,241.66689932916665,52.0,45.0
967,241.47074546666664,241.73036087291666,64.0,63.0
968,240.5476684666666,241.80151472499995,44.0,51.0
969,241.70151471666662,241.88805319374995,66.0,59.0
970,241.93228396666666,242.17074552499997,68.0,59.0
971,242.16305321666664,242.46305324166661,71.0,63.0
972,242.39382246666662,242.78613019166664,42.0,61.0
973,242.62459171666666,242.85151481249994,49.0,49.0
974,242.85536096666664,243.1649763770833,54.0,40.0
975,242.39382246666662,243.26689946249996,69.0,57.0
976,243.08613021666662,243.5168994833333,56.0,57.0
977,243.31689946666665,243.5399764083333,57.0,63.0
978,243.54766871666664,243.70920719166662,61.0,54.0
979,243.77843796666662,243.95728413541661,66.0,56.0
980,244.00920721666665,244.2957457020833,69.0,57.0
981,244.23997646666663,244.58613034166666,40.0,58.0
982,244.4707457166666,244.64382265416663,49.0,46.0
983,244.70151496666665,244.97651498958328,52.0,44.0
984,244.23997646666663,245.05343807291666,68.0,54.0
985,245.1630534666666,245.3918996395833,57.0,59.0
986,244.93228421666663,245.4842073395833,54.0,56.0
987,245.39382271666665,245.57266888541665,61.0,43.0
988,245.62459196666663,245.80728428958332,64.0,53.0
989,245.8553612166666,246.03613046249995,69.0,49.0
990,246.08613046666665,246.58228435416663,57.0,58.0
991,246.08613046666665,246.60728435624998,62.0,61.0
992,246.08613046666665,246.67651513124997,66.0,66.0
993,246.54766896666666,247.05920747083331,50.0,41.0
994,247.00920746666662,247.26305364166666,57.0,59.0
995,247.00920746666662,247.28228441249996,62.0,62.0
996,247.00920746666662,247.293822875,66.0,56.0
997,247.23997671666666,247.46497673541666,50.0,54.0
998,246.08613046666665,247.5957459770833,38.0,66.0
999,247.47074596666664,247.6611305979166,57.0,52.0
1000,247.70151521666662,247.8726690770833,66.0,63.0
1001,247.93228446666666,248.29959218958328,49.0,50.0
1002,247.93228446666666,248.34766911666662,64.0,56.0
1003,247.93228446666666,248.43997681666661,57.0,62.0
1004,248.62459221666666,249.08228456249998,49.0,60.0
1005,247.93228446666666,249.15151533749997,37.0,56.0
1006,249.08613071666662,249.25343842291664,57.0,70.0
1007,249.31689996666665,249.48805382708332,59.0,63.0
1008,249.54766921666663,249.73997692499995,61.0,52.0
1009,249.54766921666663,249.76305384999995,36.0,70.0
1010,249.7784384666666,250.16113080624996,35.0,63.0
1011,250.00920771666665,250.2149769645833,42.0,49.0
1012,250.23997696666663,250.51497698958332,47.0,44.0
1013,249.7784384666666,250.52843852916664,54.0,60.0
1014,249.7784384666666,250.5669000708333,57.0,69.0
1015,249.7784384666666,250.58036161041662,62.0,80.0
1016,250.70151546666665,250.83036163124996,50.0,64.0
1017,250.4707462166666,250.83997701666664,49.0,56.0
1018,250.93228471666663,251.18036166041662,54.0,53.0
1019,251.1630539666666,251.29190013124997,57.0,53.0
1020,251.39382321666665,251.50343861041665,59.0,47.0
1021,251.62459246666663,252.08997712083328,59.0,60.0
1022,251.62459246666663,252.11113096875,56.0,60.0
1023,251.62459246666663,252.12651558541666,64.0,58.0
1024,252.31690021666662,252.51882331041662,56.0,64.0
1025,252.54766946666666,252.80920794999997,57.0,69.0
1026,251.8553617166666,252.87266949374998,47.0,47.0
1027,251.62459246666663,252.9034387270833,40.0,67.0
1028,252.08613096666664,252.90536180416666,52.0,62.0
1029,252.77843871666664,252.90536180416666,59.0,59.0
1030,253.00920796666662,253.19190028958332,61.0,57.0
1031,253.23997721666666,253.41497723124996,66.0,62.0
1032,253.47074646666664,253.91113111874995,61.0,60.0
1033,253.47074646666664,253.98036189374994,59.0,52.0
1034,253.47074646666664,254.03228497499998,65.0,63.0
1035,253.47074646666664,254.1745926791666,68.0,69.0
1036,253.93228496666666,254.50343886041662,56.0,35.0
1037,254.39382346666662,254.8938235083333,59.0,56.0
1038,254.39382346666662,254.92459274166663,65.0,73.0
1039,254.39382346666662,255.09382352499995,68.0,63.0
1040,254.85536196666663,255.49766971249994,56.0,53.0
1041,255.31690046666665,255.7130543458333,59.0,60.0
1042,255.31690046666665,255.72843896249998,65.0,69.0
1043,255.31690046666665,255.7419005020833,68.0,67.0
1044,255.7784389666666,255.8919005145833,56.0,69.0
1045,253.47074646666664,255.9015159,49.0,72.0
1046,256.00920821666665,256.34574670624994,59.0,57.0
1047,256.23997746666663,256.54190056874995,65.0,78.0
1048,256.4707467166666,256.76113135624996,66.0,70.0
1049,256.9322852166666,256.97266983541664,71.0,39.0
1050,256.70151596666665,257.12459292499994,68.0,63.0
1051,257.1630544666666,257.6245929666666,61.0,66.0
1052,257.1630544666666,257.63805450624994,69.0,70.0
1053,257.6245929666666,257.8419006770833,54.0,52.0
1054,257.1630544666666,257.8592083708333,42.0,64.0
1055,257.85536221666666,258.0284391541666,61.0,61.0
1056,257.39382371666665,258.0919006979166,49.0,49.0
1057,258.08613146666664,258.39190072291666,61.0,54.0
1058,258.08613146666664,258.46113149791665,69.0,73.0
1059,258.08613146666664,258.50343919374995,40.0,67.0
1060,258.3169007166666,258.5515161208333,49.0,57.0
1061,258.54766996666666,258.7361315208333,68.0,56.0
1062,259.0092084666666,259.34959311041666,57.0,53.0
1063,259.0092084666666,259.3669008041666,63.0,72.0
1064,259.0092084666666,259.3880546520833,66.0,56.0
1065,258.77843921666664,259.41497773124996,69.0,67.0
1066,259.93228546666666,260.1611316395833,61.0,49.0
1067,259.47074696666664,260.38420858125,57.0,36.0
1068,259.0092084666666,260.5130547458333,51.0,69.0
1069,260.3938239666666,260.5130547458333,61.0,63.0
1070,260.85536246666663,261.3957471270833,66.0,73.0
1071,260.85536246666663,261.4842086729166,62.0,80.0
1072,260.85536246666663,261.5534394479166,57.0,51.0
1073,260.85536246666663,262.0592087208333,50.0,76.0
1074,261.7784394666666,262.3515164375,62.0,75.0
1075,261.7784394666666,262.35728566874997,57.0,67.0
1076,261.7784394666666,262.36690105416665,66.0,67.0
1077,262.23997796666663,262.6938241583333,50.0,63.0
1078,262.70151646666665,263.355362675,69.0,70.0
1079,262.70151646666665,263.3784396,61.0,60.0
1080,262.70151646666665,263.38805498541666,64.0,70.0
1081,262.70151646666665,263.82074732916664,49.0,59.0
1082,263.6245934666666,264.1995935145833,64.0,70.0
1083,263.6245934666666,264.1995935145833,69.0,69.0
1084,263.6245934666666,264.2207473625,61.0,70.0
1085,264.08613196666664,264.35151660416665,49.0,40.0
1086,264.3169012166666,264.5880550854166,48.0,56.0
1087,264.54767046666666,265.10728589791665,62.0,69.0
1088,264.54767046666666,265.23997821666666,59.0,63.0
1089,264.54767046666666,265.2438243708333,66.0,70.0
1090,265.0092089666666,265.30536283749996,69.0,7.0
1091,264.54767046666666,265.7861321083333,47.0,61.0
1092,265.47074746666664,265.87459365416663,66.0,58.0
1093,265.47074746666664,265.95151673749996,62.0,60.0
1094,265.47074746666664,265.95536289166665,69.0,48.0
1095,265.47074746666664,265.9592090458333,59.0,53.0
1096,265.93228596666665,266.0342090520833,47.0,66.0
1097,266.3938244666666,266.85536296666663,52.0,50.0
1098,266.3938244666666,266.8765168145833,66.0,63.0
1099,266.3938244666666,266.88997835416666,57.0,67.0
1100,266.3938244666666,267.0322860583333,62.0,62.0
1101,267.0861322166666,267.54959379375,52.0,30.0
1102,266.3938244666666,267.8169015083333,40.0,55.0
1103,267.31690146666665,267.83036304791665,64.0,63.0
1104,267.31690146666665,267.8457476645833,68.0,63.0
1105,267.31690146666665,267.93613228749996,59.0,60.0
1106,267.7784399666666,268.1072861479166,52.0,57.0
1107,268.2399784666666,268.6938246583333,64.0,52.0
1108,268.2399784666666,268.76690158749994,61.0,59.0
1109,268.2399784666666,268.9284400625,69.0,46.0
1110,268.70151696666665,269.2438247041666,52.0,44.0
1111,268.9322862166666,269.45728626041665,57.0,48.0
1112,269.16305546666666,269.4842093395833,61.0,67.0
1113,268.2399784666666,269.6245939666666,45.0,72.0
1114,269.39382471666664,269.82267090625,52.0,54.0
1115,269.6245939666666,269.8822862958333,61.0,62.0
1116,269.85536321666666,270.1534401645833,69.0,67.0
1117,270.08613246666664,270.5419017354166,68.0,61.0
1118,270.77844021666664,271.00344023541663,59.0,53.0
1119,270.54767096666666,271.0995940895833,56.0,48.0
1120,270.3169017166666,271.20536332916663,52.0,45.0
1121,271.0092094666666,271.26882487291664,64.0,63.0
1122,270.08613246666664,271.339978725,44.0,51.0
1123,271.23997871666666,271.42651719375,66.0,59.0
1124,271.47074796666664,271.70920952499995,68.0,59.0
1125,271.7015172166666,272.00151724166665,71.0,63.0
1126,271.93228646666665,272.3245941916666,42.0,61.0
1127,272.16305571666663,272.3899788125,49.0,49.0
1128,272.3938249666666,272.7034403770833,54.0,40.0
1129,271.93228646666665,272.80536346249994,69.0,57.0
1130,272.62459421666665,273.0553634833333,56.0,57.0
1131,272.85536346666663,273.0784404083333,57.0,63.0
1132,273.0861327166666,273.24767119166665,61.0,54.0
1133,273.31690196666665,273.49574813541665,66.0,56.0
1134,273.54767121666663,273.8342097020833,69.0,57.0
1135,273.7784404666666,274.12459434166664,40.0,58.0
1136,274.00920971666665,274.18228665416666,49.0,46.0
1137,274.2399789666666,274.5149789895833,52.0,44.0
1138,273.7784404666666,274.59190207291664,68.0,54.0
1139,274.70151746666664,274.9303636395833,57.0,59.0
1140,274.4707482166666,275.0226713395833,54.0,56.0
1141,274.9322867166666,275.1111328854166,61.0,43.0
1142,275.16305596666666,275.3457482895833,64.0,53.0
1143,275.39382521666664,275.5745944625,69.0,49.0
1144,275.6245944666666,276.1207483541666,57.0,58.0
1145,275.6245944666666,276.14574835624995,62.0,61.0
1146,275.6245944666666,276.21497913124995,66.0,66.0
1147,276.08613296666664,276.5976714708333,50.0,41.0
1148,276.54767146666666,276.80151764166663,57.0,59.0
1149,276.54767146666666,276.8207484125,62.0,62.0
1150,276.54767146666666,276.83228687499997,66.0,56.0
1151,276.77844071666664,277.00344073541663,50.0,54.0
1152,275.6245944666666,277.1342099770833,38.0,66.0
1153,277.0092099666666,277.19959459791664,57.0,52.0
1154,277.23997921666665,277.4111330770833,66.0,63.0
1155,277.47074846666663,277.8380561895833,49.0,50.0
1156,277.47074846666663,277.88613311666666,64.0,56.0
1157,277.47074846666663,277.97844081666665,57.0,62.0
1158,278.16305621666663,278.62074856249995,49.0,60.0
1159,277.47074846666663,278.68997933749995,37.0,56.0
1160,278.62459471666665,278.7919024229166,57.0,70.0
1161,278.85536396666663,279.0265178270833,59.0,63.0
1162,279.0861332166666,279.278440925,61.0,52.0
1163,279.0861332166666,279.30151785,36.0,70.0
1164,279.31690246666665,279.69959480625,35.0,63.0
1165,279.5476717166666,279.7534409645833,42.0,49.0
1166,279.7784409666666,280.0534409895833,47.0,44.0
1167,279.31690246666665,280.0669025291666,54.0,60.0
1168,279.31690246666665,280.1053640708333,57.0,69.0
1169,279.31690246666665,280.11882561041665,62.0,80.0
1170,280.2399794666666,280.36882563125,50.0,64.0
1171,280.00921021666665,280.3784410166666,49.0,56.0
1172,280.47074871666666,280.71882566041666,54.0,53.0
1173,280.70151796666664,280.83036413124995,57.0,53.0
1174,280.9322872166666,281.0419026104166,59.0,47.0
1175,281.16305646666666,281.6284411208333,59.0,60.0
1176,281.16305646666666,281.64959496874997,56.0,60.0
1177,281.16305646666666,281.66497958541663,64.0,58.0
1178,281.85536421666666,282.05728731041665,56.0,64.0
1179,282.08613346666664,282.34767194999995,57.0,69.0
1180,281.39382571666664,282.41113349374996,47.0,47.0
1181,281.16305646666666,282.4419027270833,40.0,67.0
1182,281.6245949666666,282.44382580416664,52.0,62.0
1183,282.3169027166666,282.44382580416664,59.0,59.0
1184,282.54767196666666,282.7303642895833,61.0,57.0
1185,282.77844121666664,282.95344123124994,66.0,62.0
1186,283.0092104666666,283.44959511875,61.0,60.0
1187,283.0092104666666,283.51882589375,59.0,52.0
1188,283.0092104666666,283.57074897499996,65.0,63.0
1189,283.0092104666666,283.71305667916664,68.0,69.0
1190,283.47074896666663,284.04190286041666,56.0,35.0
1191,283.93228746666665,284.4322875083333,59.0,56.0
1192,283.93228746666665,284.46305674166666,65.0,73.0
1193,283.93228746666665,284.632287525,68.0,63.0
1194,284.3938259666666,285.0361337125,56.0,53.0
1195,284.85536446666663,285.2515183458333,59.0,60.0
1196,284.85536446666663,285.26690296249996,65.0,69.0
1197,284.85536446666663,285.2803645020833,68.0,67.0
1198,285.31690296666665,285.4303645145833,56.0,69.0
1199,283.0092104666666,285.43997989999997,49.0,72.0
1200,285.5476722166666,285.88421070625,59.0,57.0
1201,285.7784414666666,286.08036456875,65.0,78.0
1202,286.00921071666664,286.29959535625,66.0,70.0
1203,286.47074921666666,286.5111338354166,71.0,39.0
1204,286.2399799666666,286.663056925,68.0,63.0
1205,286.70151846666664,287.16305696666666,61.0,66.0
1206,286.70151846666664,287.17651850625,69.0,70.0
1207,287.16305696666666,287.3803646770833,54.0,52.0
1208,286.70151846666664,287.3976723708333,42.0,64.0
1209,287.39382621666664,287.56690315416665,61.0,61.0
1210,286.9322877166666,287.63036469791666,49.0,49.0
1211,287.6245954666666,287.93036472291664,61.0,54.0
1212,287.6245954666666,287.99959549791663,69.0,73.0
1213,287.6245954666666,288.04190319375,40.0,67.0
1214,287.85536471666666,288.0899801208333,49.0,57.0
1215,288.08613396666664,288.2745955208333,68.0,56.0
1216,288.54767246666665,288.88805711041664,57.0,53.0
1217,288.54767246666665,288.90536480416665,63.0,72.0
1218,288.54767246666665,288.9265186520833,66.0,56.0
1219,288.3169032166666,288.95344173125,69.0,67.0
1220,289.47074946666663,289.6995956395833,61.0,49.0
1221,289.0092109666666,289.92267258124997,57.0,36.0
1222,288.54767246666665,290.0515187458333,51.0,69.0
1223,289.93228796666665,290.0515187458333,61.0,63.0
1224,290.3938264666666,290.9342111270833,66.0,73.0
1225,290.3938264666666,291.02267267291666,62.0,80.0
1226,290.3938264666666,291.09190344791665,57.0,51.0
1227,290.3938264666666,291.5976727208333,50.0,76.0
1228,291.31690346666664,291.88998043749996,62.0,75.0
1229,291.31690346666664,291.89574966874994,57.0,67.0
1230,291.31690346666664,291.9053650541666,66.0,67.0
1231,291.77844196666666,292.2322881583333,50.0,63.0
1232,292.2399804666666,292.89382667499996,69.0,70.0
1233,292.2399804666666,292.91690359999996,61.0,60.0
1234,292.2399804666666,292.92651898541664,64.0,70.0
1235,292.2399804666666,293.3592113291666,49.0,59.0
1236,293.16305746666666,293.7380575145833,64.0,70.0
1237,293.16305746666666,293.7380575145833,69.0,69.0
1238,293.16305746666666,293.75921136249997,61.0,70.0
1239,293.6245959666666,293.8899806041666,49.0,40.0
1240,293.85536521666666,294.12651908541665,48.0,56.0
1241,294.08613446666664,294.64574989791663,62.0,69.0
1242,294.08613446666664,294.77844221666663,59.0,63.0
1243,294.08613446666664,294.7822883708333,66.0,70.0
1244,294.54767296666665,294.8438268375,69.0,7.0
1245,294.08613446666664,295.3245961083333,47.0,61.0
1246,295.0092114666666,295.4130576541666,66.0,58.0
1247,295.0092114666666,295.4899807375,62.0,60.0
1248,295.0092114666666,295.49382689166663,69.0,48.0
1249,295.0092114666666,295.4976730458333,59.0,53.0
1250,295.47074996666663,295.5726730520833,47.0,66.0
1251,295.93228846666665,296.3938269666666,52.0,50.0
1252,295.93228846666665,296.4149808145833,66.0,63.0
1253,295.93228846666665,296.42844235416663,57.0,67.0
1254,295.93228846666665,296.5707500583333,62.0,62.0
1255,296.62459621666665,297.08805779374995,52.0,30.0
1256,295.93228846666665,297.3553655083333,40.0,55.0
1257,296.8553654666666,297.3688270479166,64.0,63.0
1258,296.8553654666666,297.3842116645833,68.0,63.0
1259,296.8553654666666,297.4745962875,59.0,60.0
1260,297.31690396666664,297.64575014791666,52.0,57.0
1261,297.77844246666666,298.27459635416665,62.0,69.0
1262,297.77844246666666,298.6361348458333,69.0,67.0
1263,298.47075021666666,298.98998102916664,62.0,60.0
1264,298.47075021666666,299.0457502645833,66.0,48.0
1265,298.47075021666666,299.30728874791663,52.0,19.0
1266,299.16305796666666,299.43998106666663,62.0,51.0
1267,298.9322887166666,299.94959649375,57.0,40.0
1268,299.39382721666664,300.1765195895833,64.0,62.0
1269,299.6245964666666,300.1976734375,61.0,61.0
1270,299.6245964666666,300.48036576874995,52.0,57.0
1271,300.3169042166666,300.7611350229166,57.0,36.0
1272,300.54767346666665,300.8861350333333,59.0,63.0
1273,300.54767346666665,300.8938273416666,64.0,67.0
1274,297.77844246666666,300.95151965416665,45.0,67.0
1275,300.77844271666663,301.12651966874995,52.0,48.0
1276,301.0092119666666,301.2611350645833,62.0,67.0
1277,301.23998121666665,301.2899812208333,64.0,29.0
