,start,end,pitch,velocity
0,29.467875937500004,29.873280937500002,60.0,77.0
1,29.873280937500002,30.256726500000003,62.0,89.0
2,30.278685937500004,30.599631562500004,65.0,99.0
3,30.684090937500002,31.082739187500003,72.0,100.0
4,31.089495937500004,31.719562875,69.0,86.0
5,31.900305937500004,32.288819062500004,67.0,88.0
6,32.3057109375,32.624967375000004,65.0,74.0
7,32.711115937500004,33.108075,62.0,79.0
8,33.116520937500006,33.99320925,60.0,78.0
9,35.954355937500004,36.31753125,65.0,89.0
10,36.359760937500006,36.74320650000001,67.0,74.0
11,36.7651659375,37.244895187500006,69.0,73.0
12,37.1705709375,37.489827375000004,74.0,95.0
13,37.575975937500004,38.028678187500006,74.0,93.0
14,37.981380937500006,38.758407187500005,69.0,95.0
15,38.7921909375,39.165501375000005,72.0,89.0
16,39.197595937500004,40.868202375,67.0,74.0
17,42.440835937500005,42.81414637500001,69.0,96.0
18,42.846240937500006,43.20603787500001,72.0,92.0
19,43.6570509375,43.996577625,65.0,97.0
20,44.062455937500005,45.018536062500004,62.0,88.0
21,45.2786709375,45.5219139375,69.0,99.0
22,45.684075937500005,46.03373775000001,67.0,99.0
23,46.08948093750001,46.476304875000004,65.0,86.0
24,46.9002909375,47.097925875,67.0,90.0
25,47.102993437500004,47.305695937500005,65.0,62.0
26,47.305695937500005,48.111438375000006,62.0,81.0
27,48.927315937500005,49.312450687500004,60.0,96.0
28,49.33272093750001,49.741504312500005,62.0,85.0
29,49.7381259375,50.1300174375,65.0,88.0
30,50.1435309375,50.56076025,69.0,79.0
31,50.548935937500005,50.9509625625,67.0,79.0
32,50.95434093750001,51.233056875,65.0,95.0
33,51.3597459375,51.575961937500004,67.0,86.0
34,51.7651509375,52.16042081250001,62.0,82.0
35,52.170555937500005,53.239811625,60.0,79.0
36,55.413795937500005,55.81920093750001,60.0,77.0
37,55.81920093750001,56.20264650000001,62.0,89.0
38,56.2246059375,56.5455515625,65.0,99.0
39,56.6300109375,57.028659187500004,72.0,100.0
40,57.035415937500005,57.665482875,69.0,86.0
41,57.8462259375,58.234739062500005,67.0,88.0
42,58.2516309375,58.570887375000005,65.0,74.0
43,58.657035937500005,59.05399500000001,62.0,79.0
44,59.06244093750001,59.93912925000001,60.0,78.0
45,61.900275937500005,62.26345125,65.0,89.0
46,62.30568093750001,62.68912650000001,67.0,74.0
47,62.71108593750001,63.19081518750001,69.0,73.0
48,63.116490937500004,63.435747375000005,74.0,95.0
49,63.521895937500005,63.97459818750001,74.0,93.0
50,63.92730093750001,64.7043271875,69.0,95.0
51,64.73811093750001,65.111421375,72.0,89.0
52,65.14351593750001,66.81412237500001,67.0,74.0
53,68.38675593750001,68.76006637500001,69.0,96.0
54,68.7921609375,69.15195787500001,72.0,92.0
55,69.6029709375,69.942497625,65.0,97.0
56,70.0083759375,70.9644560625,62.0,88.0
57,71.22459093750001,71.4678339375,69.0,99.0
58,71.62999593750001,71.97965775,67.0,99.0
59,72.0354009375,72.42222487500001,65.0,86.0
60,72.8462109375,73.043845875,67.0,90.0
61,73.0489134375,73.2516159375,65.0,62.0
62,73.2516159375,74.057358375,62.0,81.0
63,74.87323593750001,75.2583706875,60.0,96.0
64,75.2786409375,75.68742431250001,62.0,85.0
65,75.6840459375,76.0759374375,65.0,88.0
66,76.0894509375,76.50668025,69.0,79.0
67,76.4948559375,76.89688256250001,67.0,79.0
68,76.90026093750001,77.178976875,65.0,95.0
69,77.30566593750001,77.67221962500001,67.0,99.0
70,77.71107093750001,78.10296243750001,69.0,99.0
71,78.11647593750001,80.0725550625,65.0,92.0
72,80.95431093750001,81.23809443750001,72.0,127.0
73,81.35971593750001,82.32424200000001,72.0,99.0
74,82.5759309375,82.91039006250001,72.0,127.0
75,82.9813359375,83.44417331250001,74.0,112.0
76,83.38674093750001,83.6603893125,77.0,112.0
77,83.79214593750001,84.1215375,74.0,99.0
78,84.19755093750001,84.60633431250001,72.0,117.0
79,84.60295593750001,85.34619843750001,69.0,97.0
80,87.03538593750001,87.3428180625,62.0,107.0
81,87.44079093750001,87.74315550000001,65.0,99.0
82,87.84619593750001,88.5961951875,67.0,95.0
83,89.0624109375,89.35632956250001,69.0,97.0
84,89.4678159375,89.82592368750001,72.0,112.0
85,89.87322093750001,90.15024768750001,74.0,89.0
86,90.27862593750001,90.638422875,74.0,93.0
87,90.68403093750001,91.0691656875,72.0,102.0
88,91.08943593750001,92.0894349375,69.0,97.0
89,93.52186593750001,93.868149375,69.0,112.0
90,93.92727093750001,94.21612200000001,72.0,117.0
91,94.33267593750001,95.02186443750001,72.0,117.0
92,95.5488909375,95.81916093750002,69.0,99.0
93,95.9542959375,96.25834968750002,77.0,107.0
94,96.35970093750001,96.624903375,76.0,99.0
95,96.76510593750001,97.06240293750001,74.0,102.0
96,97.17051093750001,97.4914565625,72.0,107.0
97,97.57591593750001,98.29550981250001,74.0,99.0
98,100.00834593750001,100.36307531250002,72.0,112.0
99,100.41375093750001,100.80395325,69.0,99.0
100,100.81915593750001,101.16881775,67.0,93.0
101,101.22456093750002,101.61983081250001,67.0,95.0
102,102.0353709375,102.35293818750002,69.0,102.0
103,102.4407759375,102.814086375,76.0,107.0
104,102.84618093750001,103.20935625000001,74.0,107.0
105,103.65699093750001,103.89685556250001,74.0,127.0
106,103.85969343750001,104.04043650000001,76.0,97.0
107,104.06239593750001,105.34617843750001,72.0,102.0
108,106.49482593750001,106.84110937500002,69.0,112.0
109,106.90023093750001,107.18908200000001,72.0,117.0
110,107.30563593750001,107.99482443750001,72.0,117.0
111,108.5218509375,108.8022560625,72.0,117.0
112,108.92725593750001,109.19245837500002,74.0,100.0
113,109.33266093750001,109.6367146875,77.0,107.0
114,109.73806593750001,110.07928181250001,74.0,100.0
115,110.14347093750001,110.43570037500001,72.0,107.0
116,110.54887593750001,111.6265775625,69.0,99.0
117,112.98130593750001,113.31745425000001,62.0,107.0
118,113.38671093750001,113.68400793750001,65.0,112.0
119,113.79211593750001,114.36137212500002,67.0,107.0
120,115.0083309375,115.2836685,69.0,95.0
121,115.41373593750001,115.71103293750001,72.0,100.0
122,115.81914093750001,116.10292443750001,74.0,96.0
123,116.22454593750001,116.52691050000001,74.0,112.0
124,116.62995093750001,117.06069375000001,72.0,97.0
125,117.44076093750002,118.2296115,69.0,95.0
126,119.46778593750001,119.78197481250001,69.0,100.0
127,119.87319093750001,120.17048793750001,72.0,117.0
128,120.27859593750001,120.90190612500001,72.0,117.0
129,121.4948109375,121.7785944375,69.0,99.0
130,121.90021593750001,122.18906700000001,77.0,112.0
131,122.30562093750001,122.60122875,76.0,99.0
132,122.71102593750001,123.00494456250001,74.0,117.0
133,123.11643093750001,123.4373765625,72.0,107.0
134,123.52183593750001,124.07420025,74.0,99.0
135,125.95426593750001,126.32926556250001,72.0,112.0
136,126.35967093750001,126.73804893750001,69.0,99.0
137,126.76507593750001,126.9779135625,67.0,96.0
138,127.17048093750002,127.6535885625,67.0,100.0
139,127.9812909375,128.29716900000003,69.0,97.0
140,128.3866959375,128.719465875,72.0,117.0
141,128.7921009375,129.04378987500002,74.0,107.0
142,129.1975059375,129.59784337500002,67.0,100.0
143,129.6029109375,129.9711538125,69.0,112.0
144,130.00831593750002,131.0725040625,65.0,100.0
145,159.1974759375,159.6028809375,60.0,77.0
146,159.6028809375,159.98632650000002,62.0,89.0
147,160.0082859375,160.3292315625,65.0,99.0
148,160.4136909375,160.81233918750002,72.0,100.0
149,160.8190959375,161.449162875,69.0,86.0
150,161.6299059375,162.01841906250002,67.0,88.0
151,162.03531093750001,162.35456737500002,65.0,74.0
152,162.44071593750002,162.83767500000002,62.0,79.0
153,162.84612093750002,163.72280925,60.0,78.0
154,165.6839559375,166.04713125,65.0,89.0
155,166.0893609375,166.47280650000002,67.0,74.0
156,166.4947659375,166.97449518750003,69.0,73.0
157,166.9001709375,167.219427375,74.0,95.0
158,167.3055759375,167.75827818750003,74.0,93.0
159,167.7109809375,168.48800718750002,69.0,95.0
160,168.52179093750001,168.89510137500002,72.0,89.0
161,168.92719593750002,170.59780237500001,67.0,74.0
162,172.1704359375,172.543746375,69.0,96.0
163,172.5758409375,172.93563787500003,72.0,92.0
164,173.3866509375,173.72617762500002,65.0,97.0
165,173.7920559375,174.7481360625,62.0,88.0
166,175.00827093750001,175.25151393750002,69.0,99.0
167,175.41367593750002,175.76333775,67.0,99.0
168,175.81908093750002,176.20590487500002,65.0,86.0
169,176.62989093750002,176.82752587500002,67.0,90.0
170,176.8325934375,177.03529593750002,65.0,62.0
171,177.03529593750002,177.841038375,62.0,81.0
172,178.6569159375,179.04205068750002,60.0,96.0
173,179.0623209375,179.47110431250002,62.0,85.0
174,179.4677259375,179.85961743750002,65.0,88.0
175,179.8731309375,180.29036025000002,69.0,79.0
176,180.2785359375,180.68056256250003,67.0,79.0
177,180.6839409375,180.96265687500002,65.0,95.0
178,181.0893459375,181.45589962500003,67.0,99.0
179,181.49475093750002,181.88664243750003,69.0,99.0
180,181.90015593750002,183.85623506250002,65.0,92.0
181,184.73799093750003,185.02177443750003,72.0,127.0
182,185.1433959375,186.10792200000003,72.0,99.0
183,186.3596109375,186.6940700625,72.0,127.0
184,186.7650159375,187.22785331250003,74.0,112.0
185,187.1704209375,187.4440693125,77.0,112.0
186,187.5758259375,187.90521750000002,74.0,99.0
187,187.98123093750002,188.39001431250003,72.0,117.0
188,188.38663593750002,189.12987843750003,69.0,97.0
189,190.81906593750003,191.12649806250002,62.0,107.0
190,191.22447093750003,191.5268355,65.0,99.0
191,191.6298759375,192.3798751875,67.0,95.0
192,192.8460909375,193.1400095625,69.0,97.0
193,193.2514959375,193.60960368750003,72.0,112.0
194,193.6569009375,193.93392768750002,74.0,89.0
195,194.0623059375,194.422102875,74.0,93.0
196,194.46771093750002,194.8528456875,72.0,102.0
197,194.87311593750002,195.87311493750002,69.0,97.0
198,197.30554593750003,197.651829375,69.0,112.0
199,197.71095093750003,197.99980200000002,72.0,117.0
200,198.11635593750003,198.8055444375,72.0,117.0
201,199.3325709375,199.60284093750002,69.0,99.0
202,199.7379759375,200.04202968750002,77.0,107.0
203,200.1433809375,200.408583375,76.0,99.0
204,200.5487859375,200.84608293750003,74.0,102.0
205,200.95419093750002,201.27513656250002,72.0,107.0
206,201.35959593750002,202.0791898125,74.0,99.0
207,203.79202593750003,204.1467553125,72.0,112.0
208,204.19743093750003,204.58763325,69.0,99.0
209,204.60283593750003,204.95249775000002,67.0,93.0
210,205.0082409375,205.40351081250003,67.0,95.0
211,205.8190509375,206.1366181875,69.0,102.0
212,206.2244559375,206.59776637500002,76.0,107.0
213,206.6298609375,206.99303625000002,74.0,107.0
214,207.44067093750002,207.6805355625,74.0,127.0
215,207.64337343750003,207.82411650000003,76.0,97.0
216,207.84607593750002,209.12985843750002,72.0,102.0
217,210.27850593750003,210.624789375,69.0,112.0
218,210.68391093750003,210.97276200000002,72.0,117.0
219,211.08931593750003,211.77850443750003,72.0,117.0
220,212.3055309375,212.58593606250002,72.0,117.0
221,212.7109359375,212.976138375,74.0,100.0
222,213.1163409375,213.42039468750002,77.0,107.0
223,213.52174593750001,213.86296181250003,74.0,100.0
224,213.92715093750002,214.21938037500001,72.0,107.0
225,214.33255593750002,215.41025756250002,69.0,99.0
226,216.76498593750003,217.10113425000003,62.0,107.0
227,217.17039093750003,217.46768793750002,65.0,112.0
228,217.57579593750003,218.145052125,67.0,107.0
229,218.7920109375,219.0673485,69.0,95.0
230,219.1974159375,219.49471293750003,72.0,100.0
231,219.6028209375,219.8866044375,74.0,96.0
232,220.00822593750001,220.31059050000002,74.0,112.0
233,220.41363093750002,220.84437375000002,72.0,97.0
234,221.22444093750002,222.0132915,69.0,95.0
235,223.25146593750003,223.56565481250001,69.0,100.0
236,223.65687093750003,223.95416793750002,72.0,117.0
237,224.06227593750003,224.68558612500001,72.0,117.0
238,225.2784909375,225.5622744375,69.0,99.0
239,225.6838959375,225.97274700000003,77.0,112.0
240,226.0893009375,226.38490875000002,76.0,99.0
241,226.49470593750002,226.78862456250002,74.0,117.0
242,226.90011093750002,227.22105656250002,72.0,107.0
243,227.30551593750002,227.85788025000002,74.0,99.0
244,229.73794593750003,230.11294556250002,72.0,112.0
245,230.14335093750003,230.52172893750003,69.0,99.0
246,230.54875593750003,230.76159356250002,67.0,96.0
247,230.9541609375,231.4372685625,67.0,100.0
248,231.7649709375,232.08084900000003,69.0,97.0
249,232.1703759375,232.50314587500003,72.0,117.0
250,232.5757809375,232.82746987500002,74.0,107.0
251,232.98118593750002,233.38152337500003,67.0,100.0
252,233.38659093750002,233.7548338125,69.0,112.0
253,233.79199593750002,234.85618406250003,65.0,100.0
254,236.22442593750003,236.54874993750002,72.0,117.0
255,236.62983093750003,237.0115873125,69.0,93.0
256,237.03523593750003,237.39672206250003,67.0,60.0
257,237.44064093750004,238.12476187500002,67.0,90.0
258,238.49976150000003,239.01665287500003,69.0,95.0
259,239.026788,239.90009793750002,72.0,97.0
260,239.86124662500004,240.41192175000003,74.0,92.0
261,240.37813800000004,241.3696910625,67.0,78.0
262,241.24469118750002,243.21090543750003,69.0,77.0
263,243.19739193750002,246.78522618750003,65.0,97.0
