,start,end,pitch,velocity
0,3.5219559375000005,4.537157625000001,60.0,70.0
1,3.5219559375000005,4.66891425,69.0,60.0
2,3.5219559375000005,4.733103375000001,65.0,66.0
3,4.7381709375000005,5.113170562500001,60.0,41.0
4,4.3327659375000005,5.3091163125000005,53.0,47.0
5,5.1435759375000005,5.6131700625,69.0,69.0
6,5.1435759375000005,5.7753320625,60.0,72.0
7,5.1435759375000005,5.780399625,65.0,71.0
8,3.5219559375000005,5.954385937500001,41.0,56.0
9,5.5489809375000005,5.967899437500001,53.0,45.0
10,3.9273609375000005,6.037156125,48.0,47.0
11,5.954385937500001,6.307426125000001,69.0,69.0
12,5.954385937500001,6.310804500000001,65.0,77.0
13,6.765195937500001,7.228033312500001,64.0,66.0
14,6.765195937500001,7.2550603125,60.0,76.0
15,7.170600937500001,7.6976274375000004,52.0,61.0
16,7.576005937500001,8.010127125,64.0,69.0
17,7.576005937500001,8.266883625,60.0,71.0
18,7.576005937500001,8.30404575,57.0,79.0
19,7.981410937500001,8.6233021875,52.0,72.0
20,8.386815937500002,9.096274687500001,60.0,78.0
21,8.792220937500002,9.972963,52.0,72.0
22,9.197625937500002,9.991544062500001,60.0,79.0
23,9.197625937500002,10.0016791875,64.0,72.0
24,6.765195937500001,10.021949437500002,45.0,70.0
25,9.603030937500002,10.021949437500002,57.0,76.0
26,10.008435937500002,10.4442463125,62.0,61.0
27,10.008435937500002,10.5928948125,55.0,59.0
28,10.008435937500002,10.692556875000001,58.0,59.0
29,10.413840937500002,10.780394625000001,50.0,42.0
30,10.008435937500002,10.844583750000002,43.0,51.0
31,10.819245937500002,11.219583375000001,62.0,62.0
32,10.819245937500002,11.327691375,58.0,72.0
33,11.224650937500002,11.597961375,55.0,66.0
34,11.630055937500002,12.1131635625,64.0,65.0
35,11.630055937500002,12.1486365,60.0,66.0
36,11.630055937500002,12.356406562500002,55.0,68.0
37,11.630055937500002,12.6891765,36.0,62.0
38,12.035460937500002,12.792216937500001,43.0,43.0
39,12.440865937500002,12.8260006875,64.0,69.0
40,12.440865937500002,12.890189812500001,60.0,71.0
41,12.846270937500002,13.043905875000002,55.0,56.0
42,12.440865937500002,13.228027312500002,48.0,51.0
43,13.251675937500002,13.597959375000002,53.0,56.0
44,13.251675937500002,13.618229625000001,57.0,54.0
45,13.251675937500002,13.6368106875,60.0,53.0
46,14.062485937500002,14.9881606875,53.0,44.0
47,14.873295937500002,15.388498125000002,69.0,54.0
48,14.873295937500002,15.508430437500001,65.0,55.0
49,14.467890937500002,15.608092500000001,60.0,43.0
50,15.278700937500002,15.729714000000001,53.0,36.0
51,13.251675937500002,15.74998425,41.0,64.0
52,13.657080937500002,15.861470625,48.0,40.0
53,15.684105937500002,15.915524625000002,60.0,34.0
54,15.684105937500002,16.0827541875,69.0,59.0
55,15.684105937500002,16.096267687500003,65.0,61.0
56,16.089510937500002,16.185794625,60.0,48.0
57,16.4949159375,16.929037125,64.0,56.0
58,16.4949159375,16.9915370625,57.0,60.0
59,16.4949159375,16.999983,60.0,56.0
60,16.900320937500002,17.4780230625,52.0,42.0
61,17.3057259375,17.6891715,60.0,67.0
62,17.3057259375,17.699306625000002,64.0,69.0
63,18.1165359375,18.211130437500003,57.0,76.0
64,18.1165359375,18.211130437500003,60.0,74.0
65,18.1165359375,18.228022312500002,64.0,69.0
66,17.711130937500002,18.2685628125,52.0,39.0
67,18.521940937500002,19.010116125000003,52.0,34.0
68,18.9273459375,19.212818625,64.0,77.0
69,19.1300484375,19.226332125000003,52.0,52.0
70,16.4949159375,19.234778062500002,45.0,66.0
71,18.9273459375,19.342886062500003,72.0,82.0
72,18.9273459375,19.368223875,69.0,86.0
73,19.332750937500002,19.452683250000003,64.0,54.0
74,19.7381559375,19.834439625,65.0,66.0
75,19.7381559375,19.8513315,69.0,69.0
76,19.7381559375,19.854709875,62.0,67.0
77,20.5489659375,21.0219384375,62.0,61.0
78,20.5489659375,21.027006000000004,57.0,68.0
79,20.5489659375,21.0422086875,53.0,56.0
80,20.954370937500002,21.572613562500003,50.0,44.0
81,21.3597759375,21.800653875000002,53.0,39.0
82,21.3597759375,21.831059250000003,57.0,45.0
83,21.3597759375,21.831059250000003,62.0,42.0
84,21.765180937500002,22.163829187500003,50.0,59.0
85,19.7381559375,22.1705859375,38.0,71.0
86,20.143560937500002,22.234775062500002,45.0,46.0
87,22.1705859375,22.594572000000003,57.0,71.0
88,22.1705859375,22.6469368125,62.0,78.0
89,22.575990937500002,22.707747562500003,53.0,60.0
90,22.9813959375,23.467881937500003,62.0,65.0
91,22.9813959375,23.479706250000003,55.0,61.0
92,22.9813959375,23.616530437500003,58.0,62.0
93,22.9813959375,23.758422187500003,43.0,59.0
94,23.386800937500002,23.760111375,50.0,46.0
95,23.792205937500004,24.1942325625,62.0,72.0
96,23.792205937500004,24.320921625,58.0,86.0
97,24.197610937500002,24.52024575,55.0,63.0
98,24.603015937500004,25.08781275,64.0,62.0
99,24.603015937500004,25.108083,60.0,63.0
100,24.603015937500004,25.297272000000003,55.0,59.0
101,24.603015937500004,25.550650125,36.0,65.0
102,25.413825937500004,25.8158525625,64.0,66.0
103,25.413825937500004,25.8631498125,60.0,68.0
104,25.819230937500002,26.052338812500004,55.0,57.0
105,26.224635937500004,26.594568000000002,53.0,62.0
106,26.224635937500004,27.155378250000002,57.0,59.0
107,26.224635937500004,27.1908511875,60.0,52.0
108,27.035445937500004,27.868215375000002,55.0,48.0
109,27.440850937500002,28.682403750000002,53.0,36.0
110,26.224635937500004,29.297268000000003,41.0,62.0
111,27.846255937500004,29.324295000000003,60.0,32.0
112,27.846255937500004,29.339497687500003,57.0,35.0
113,26.630040937500002,29.486457,48.0,57.0
114,29.467875937500004,29.8665241875,60.0,64.0
115,29.467875937500004,29.99997,57.0,66.0
116,30.278685937500004,30.787131375,65.0,56.0
117,30.278685937500004,30.809090812500003,57.0,51.0
118,30.278685937500004,30.815847562500004,60.0,55.0
119,31.089495937500004,31.741522312500003,57.0,26.0
120,31.089495937500004,31.753346625000002,65.0,29.0
121,31.089495937500004,31.773616875000002,60.0,28.0
122,30.684090937500002,32.050643625000006,53.0,33.0
123,31.900305937500004,32.3226028125,65.0,66.0
124,29.467875937500004,32.3361163125,41.0,68.0
125,31.900305937500004,32.420575687500005,60.0,66.0
126,29.873280937500002,32.47969725,48.0,37.0
127,32.3057109375,32.646926812500006,57.0,41.0
128,32.3057109375,32.724629437500006,53.0,36.0
129,32.711115937500004,33.162129,64.0,61.0
130,32.711115937500004,33.2482775625,60.0,47.0
131,32.711115937500004,33.258412687500005,57.0,41.0
132,33.116520937500006,33.6840879375,52.0,38.0
133,33.9273309375,34.464492562500006,52.0,39.0
134,34.332735937500004,34.891857,57.0,48.0
135,33.5219259375,34.92564075000001,64.0,50.0
136,33.5219259375,34.969559625,60.0,47.0
137,34.738140937500006,35.18408643750001,52.0,37.0
138,32.711115937500004,35.29050525,45.0,60.0
139,35.1435459375,35.57597793750001,64.0,76.0
140,35.5489509375,35.8090858125,57.0,48.0
141,35.1435459375,35.837802,60.0,69.0
142,35.954355937500004,36.9746251875,62.0,56.0
143,35.954355937500004,36.97800356250001,57.0,63.0
144,35.954355937500004,37.00165218750001,65.0,53.0
145,36.7651659375,37.731381187500006,50.0,42.0
146,37.1705709375,37.9475971875,57.0,41.0
147,37.981380937500006,38.3225968125,50.0,47.0
148,36.359760937500006,38.3698940625,45.0,33.0
149,35.954355937500004,38.374961625000005,38.0,63.0
150,37.575975937500004,38.540502000000004,62.0,52.0
151,37.575975937500004,38.597934375,65.0,52.0
152,38.3867859375,38.8225963125,57.0,50.0
153,39.197595937500004,39.712798125000006,62.0,50.0
154,39.197595937500004,39.871581750000004,58.0,48.0
155,39.197595937500004,39.9053655,55.0,41.0
156,39.603000937500006,40.1739463125,50.0,35.0
157,40.4138109375,40.999959000000004,50.0,37.0
158,40.0084059375,41.3800261875,62.0,53.0
159,40.819215937500005,41.499958500000005,55.0,45.0
160,40.0084059375,41.5050260625,58.0,52.0
161,41.224620937500006,41.699282625,50.0,39.0
162,39.197595937500004,42.02022825,43.0,53.0
163,41.6300259375,42.1232686875,62.0,74.0
164,42.0354309375,42.34455225000001,55.0,70.0
165,41.6300259375,42.386781937500004,58.0,82.0
166,41.8327284375,42.464484562500004,50.0,50.0
167,42.440835937500005,43.050632625000006,64.0,58.0
168,42.440835937500005,43.1165109375,60.0,50.0
169,42.440835937500005,43.16718656250001,57.0,68.0
170,43.2516459375,43.716172500000006,60.0,72.0
171,43.2516459375,43.716172500000006,64.0,65.0
172,42.440835937500005,43.983064125000006,45.0,58.0
173,43.6570509375,43.996577625,57.0,53.0
174,44.062455937500005,44.689144500000005,65.0,60.0
175,44.062455937500005,44.736441750000004,62.0,58.0
176,44.062455937500005,44.760090375000004,57.0,40.0
177,44.8732659375,45.3648195,65.0,73.0
178,44.8732659375,45.38340056250001,62.0,85.0
179,45.2786709375,45.518535562500006,57.0,69.0
180,44.062455937500005,45.596238187500006,50.0,49.0
181,45.684075937500005,46.09623768750001,62.0,58.0
182,45.684075937500005,46.341169875000006,55.0,70.0
183,45.684075937500005,46.35468337500001,58.0,57.0
184,46.4948859375,46.9340746875,62.0,55.0
185,46.4948859375,47.038804312500005,58.0,67.0
186,45.684075937500005,47.06076375000001,43.0,53.0
187,46.4948859375,47.0962366875,55.0,40.0
188,46.08948093750001,47.14691231250001,50.0,50.0
189,47.305695937500005,47.94589800000001,65.0,55.0
190,47.305695937500005,47.989816875,62.0,58.0
191,47.305695937500005,47.99995200000001,57.0,63.0
192,48.1165059375,48.526978500000006,65.0,70.0
193,48.1165059375,48.5556946875,62.0,78.0
194,48.5219109375,48.7347485625,57.0,48.0
195,47.305695937500005,48.929005125,50.0,59.0
196,48.927315937500005,49.53542343750001,62.0,63.0
197,48.927315937500005,49.599612562500006,55.0,69.0
198,48.927315937500005,49.608058500000006,58.0,58.0
199,49.7381259375,50.273598375000006,58.0,78.0
200,49.7381259375,50.30400375000001,62.0,68.0
201,50.1435309375,50.422246875000006,55.0,51.0
202,48.927315937500005,50.494881937500004,43.0,58.0
203,50.548935937500005,51.175624500000005,62.0,60.0
204,50.548935937500005,51.18913800000001,55.0,61.0
205,50.548935937500005,51.20434068750001,59.0,66.0
206,50.548935937500005,51.479678250000006,47.0,57.0
207,51.3597459375,51.79893468750001,62.0,57.0
208,51.3597459375,52.005015562500006,59.0,58.0
209,51.3597459375,52.0320425625,55.0,56.0
210,52.170555937500005,52.657041937500004,64.0,66.0
211,52.170555937500005,52.8698795625,60.0,73.0
212,52.170555937500005,52.876636312500004,55.0,77.0
213,52.9813659375,53.37494662500001,64.0,58.0
214,52.9813659375,53.41210875,60.0,59.0
215,52.9813659375,53.584405875,55.0,60.0
216,53.3867709375,54.028662187500004,48.0,47.0
217,53.792175937500005,54.24994575,64.0,56.0
218,53.792175937500005,54.47798606250001,60.0,55.0
219,53.792175937500005,54.5083914375,55.0,56.0
220,54.19758093750001,54.702648,48.0,33.0
221,54.8056884375,55.18406643750001,48.0,48.0
222,52.57596093750001,55.26176906250001,43.0,45.0
223,52.170555937500005,55.342850062500005,36.0,60.0
224,55.0083909375,55.358052750000006,55.0,69.0
225,54.6029859375,55.38507975,60.0,85.0
226,54.6029859375,55.390147312500005,64.0,75.0
227,55.413795937500005,55.8867684375,69.0,88.0
228,55.413795937500005,56.09284931250001,65.0,75.0
229,56.2246059375,56.71109193750001,69.0,78.0
230,56.2246059375,56.755010812500004,65.0,82.0
231,56.2246059375,56.810754,60.0,78.0
232,56.6300109375,57.34453725,53.0,66.0
233,57.035415937500005,57.62832075000001,69.0,59.0
234,57.035415937500005,57.678996375000004,60.0,59.0
235,57.035415937500005,57.70602337500001,65.0,55.0
236,55.413795937500005,58.16210400000001,41.0,69.0
237,57.8462259375,58.212779625,69.0,82.0
238,57.8462259375,58.243185000000004,65.0,86.0
239,55.81920093750001,58.258387687500004,48.0,34.0
240,58.0489284375,58.271901187500006,53.0,50.0
241,58.2516309375,58.437441562500005,60.0,63.0
242,58.657035937500005,59.032035562500006,64.0,58.0
243,58.657035937500005,59.236427250000006,60.0,56.0
244,58.657035937500005,59.238116437500004,57.0,65.0
245,58.657035937500005,59.79723750000001,45.0,69.0
246,59.06244093750001,60.303993750000004,52.0,45.0
247,59.46784593750001,60.719533875,64.0,68.0
248,59.46784593750001,60.73135818750001,60.0,72.0
249,59.8732509375,60.739804125000006,57.0,75.0
250,60.68406093750001,61.16210100000001,52.0,56.0
251,60.278655937500005,61.266830625000004,45.0,59.0
252,61.08946593750001,61.45770881250001,64.0,81.0
253,61.08946593750001,61.790478750000005,60.0,86.0
254,61.4948709375,61.82595168750001,57.0,58.0
255,61.900275937500005,62.5928428125,65.0,79.0
256,61.900275937500005,62.61818062500001,62.0,76.0
257,61.900275937500005,62.64858600000001,57.0,72.0
258,62.71108593750001,63.22290975000001,65.0,63.0
259,62.71108593750001,63.246558375000006,62.0,64.0
260,62.71108593750001,63.3529771875,57.0,69.0
261,63.116490937500004,63.780341625000005,50.0,36.0
262,63.521895937500005,63.944192812500006,65.0,43.0
263,63.521895937500005,63.977976562500004,62.0,41.0
264,63.521895937500005,64.0083819375,57.0,47.0
265,63.92730093750001,64.48811118750001,50.0,38.0
266,61.900275937500005,64.675611,38.0,66.0
267,62.30568093750001,64.7110839375,45.0,34.0
268,64.33270593750001,64.75162443750001,65.0,88.0
269,64.33270593750001,64.77696225000001,62.0,95.0
270,64.73811093750001,64.989799875,57.0,52.0
271,65.14351593750001,65.56919118750001,62.0,64.0
272,65.14351593750001,65.7482450625,55.0,79.0
273,65.14351593750001,65.7617585625,58.0,64.0
274,65.5489209375,66.14689331250001,50.0,48.0
275,65.9543259375,66.368176875,62.0,51.0
276,65.9543259375,66.42223087500001,58.0,49.0
277,65.9543259375,66.50669025,55.0,53.0
278,66.3597309375,66.88337906250001,50.0,32.0
279,66.7651359375,67.15364906250001,62.0,49.0
280,66.7651359375,67.19587875,58.0,44.0
281,66.7651359375,67.19756793750001,55.0,44.0
282,67.17054093750001,67.665472875,50.0,25.0
283,67.57594593750001,67.95094556250001,58.0,81.0
284,67.57594593750001,67.9543239375,62.0,70.0
285,67.57594593750001,68.1131075625,55.0,65.0
286,65.14351593750001,68.20432368750001,43.0,66.0
287,67.98135093750001,68.432364,50.0,36.0
288,68.38675593750001,68.783715,64.0,71.0
289,68.38675593750001,68.85128250000001,60.0,72.0
290,68.38675593750001,68.972904,57.0,75.0
291,69.1975659375,69.37155225000001,57.0,66.0
292,68.7921609375,69.41040356250001,52.0,36.0
293,68.38675593750001,69.483038625,45.0,57.0
294,69.1975659375,69.6367546875,64.0,66.0
295,69.6029709375,69.91547062500001,57.0,57.0
296,69.1975659375,69.92391656250001,60.0,72.0
297,70.0083759375,70.47121331250001,65.0,68.0
298,70.0083759375,70.47965925000001,62.0,71.0
299,70.0083759375,70.71614550000001,57.0,66.0
300,70.0083759375,70.93236150000001,38.0,65.0
301,70.41378093750001,71.0320235625,45.0,41.0
302,70.81918593750001,71.19756393750001,65.0,69.0
303,70.81918593750001,71.2347260625,62.0,76.0
304,71.22459093750001,71.503306875,57.0,62.0
305,70.81918593750001,71.5759419375,50.0,48.0
306,71.62999593750001,72.104657625,62.0,59.0
307,71.62999593750001,72.293846625,55.0,82.0
308,71.62999593750001,72.32256281250001,58.0,63.0
309,71.62999593750001,72.71107593750001,43.0,65.0
310,72.4408059375,72.85296768750001,62.0,66.0
311,72.4408059375,72.9104000625,58.0,89.0
312,72.4408059375,72.92560275000001,55.0,73.0
313,72.8462109375,73.21952137500001,43.0,66.0
314,73.2516159375,73.8935071875,65.0,63.0
315,73.2516159375,73.91208825000001,62.0,69.0
316,73.2516159375,73.91546662500001,57.0,72.0
317,73.2516159375,74.27357437500001,50.0,60.0
318,74.06242593750001,74.314114875,65.0,68.0
319,74.06242593750001,74.3799931875,62.0,77.0
320,74.06242593750001,74.6502631875,57.0,66.0
321,74.46783093750001,74.7921549375,50.0,52.0
322,74.87323593750001,75.34114087500001,65.0,72.0
323,74.87323593750001,75.47120831250001,62.0,79.0
324,74.87323593750001,75.5590460625,58.0,100.0
325,74.87323593750001,75.9002619375,46.0,90.0
326,75.6840459375,76.081005,65.0,67.0
327,75.6840459375,76.1485725,62.0,75.0
328,75.6840459375,76.368166875,58.0,90.0
329,76.0894509375,76.4678289375,46.0,65.0
330,76.4948559375,77.1570174375,64.0,79.0
331,76.4948559375,77.18066606250001,55.0,82.0
332,76.4948559375,77.18066606250001,60.0,81.0
333,76.4948559375,77.648571,48.0,81.0
334,77.71107093750001,78.0928273125,48.0,83.0
335,77.30566593750001,78.09789487500001,55.0,90.0
336,77.30566593750001,78.09789487500001,60.0,92.0
337,77.30566593750001,78.0995840625,64.0,89.0
338,78.11647593750001,78.64519162500001,69.0,82.0
339,78.11647593750001,78.7516104375,60.0,96.0
340,78.11647593750001,78.77019150000001,65.0,93.0
341,78.5218809375,79.06073175,48.0,62.0
342,78.9272859375,79.4103935625,69.0,76.0
343,78.9272859375,79.4137719375,65.0,86.0
344,78.9272859375,79.4272854375,60.0,90.0
345,79.5353934375,79.6029609375,65.0,38.0
346,78.9272859375,79.87829850000001,53.0,79.0
347,79.7380959375,80.21782518750001,69.0,89.0
348,79.7380959375,80.219514375,65.0,93.0
349,79.7380959375,80.22120356250001,60.0,102.0
350,80.34620343750001,80.4644465625,69.0,85.0
351,80.34620343750001,80.469514125,65.0,92.0
352,80.34620343750001,80.4745816875,60.0,89.0
353,80.14350093750001,80.6367436875,53.0,90.0
354,80.54890593750001,80.8090408125,65.0,99.0
355,80.54890593750001,80.8090408125,69.0,95.0
356,80.54890593750001,80.814108375,60.0,100.0
357,80.95431093750001,81.2414728125,53.0,66.0
358,80.95431093750001,81.32424300000001,65.0,95.0
359,80.95431093750001,81.3360673125,60.0,99.0
360,78.11647593750001,81.34282406250001,41.0,86.0
361,80.95431093750001,81.34620243750001,69.0,97.0
362,79.3326909375,81.3563375625,48.0,39.0
363,81.35971593750001,81.79383712500001,69.0,82.0
364,81.35971593750001,81.80228306250001,65.0,90.0
365,81.35971593750001,82.04045850000001,60.0,93.0
366,81.7651209375,82.25498531250001,48.0,52.0
367,82.1705259375,82.5793093125,53.0,99.0
368,82.1705259375,82.6097146875,65.0,99.0
369,81.35971593750001,82.7144443125,41.0,92.0
370,82.5759309375,83.0117413125,48.0,46.0
371,82.1705259375,83.59957856250001,69.0,95.0
372,82.7786334375,83.618159625,65.0,93.0
373,82.5759309375,83.6401190625,60.0,89.0
374,83.38674093750001,83.8934971875,48.0,66.0
375,83.79214593750001,84.1485645,69.0,90.0
376,83.79214593750001,84.1603888125,65.0,93.0
377,83.79214593750001,84.2076860625,53.0,99.0
378,82.9813359375,84.47964525,41.0,88.0
379,84.19755093750001,84.5184965625,48.0,81.0
380,85.0083609375,85.5522793125,45.0,71.0
381,85.4137659375,85.83099525,50.0,71.0
382,85.4137659375,86.0522788125,62.0,93.0
383,84.60295593750001,86.091130125,38.0,85.0
384,85.4137659375,86.124913875,65.0,85.0
385,85.8191709375,86.24653537500001,45.0,90.0
386,86.0218734375,87.0556561875,57.0,89.0
387,86.62998093750001,87.17896687500001,45.0,77.0
388,86.2245759375,87.4036288125,38.0,83.0
389,87.03538593750001,87.42389906250001,65.0,93.0
390,87.03538593750001,87.44079093750001,62.0,100.0
391,87.03538593750001,87.52356112500001,50.0,86.0
392,87.44079093750001,87.7279528125,57.0,88.0
393,87.44079093750001,87.83099325,45.0,71.0
394,87.84619593750001,88.28031712500001,62.0,81.0
395,87.84619593750001,88.4678169375,55.0,90.0
396,87.84619593750001,88.50497906250001,58.0,92.0
397,88.2516009375,88.70261400000001,50.0,97.0
398,88.8597084375,89.01342450000001,50.0,93.0
399,87.84619593750001,89.0286271875,43.0,68.0
400,88.6570059375,89.104640625,58.0,102.0
401,88.6570059375,89.31072150000001,62.0,90.0
402,89.2651134375,89.39687006250001,58.0,93.0
403,89.0624109375,89.40362681250001,55.0,99.0
404,89.4678159375,90.11984231250001,64.0,95.0
405,89.4678159375,90.135045,60.0,99.0
406,89.4678159375,90.18234225,55.0,70.0
407,89.87322093750001,90.35801775,43.0,46.0
408,89.4678159375,90.6637606875,36.0,83.0
409,90.27862593750001,90.6907876875,64.0,96.0
410,90.27862593750001,90.699233625,60.0,102.0
411,90.68403093750001,90.92558475000001,55.0,88.0
412,90.27862593750001,91.08099000000001,48.0,97.0
413,91.08943593750001,91.422205875,53.0,96.0
414,91.08943593750001,91.43740856250001,57.0,86.0
415,91.08943593750001,91.45936800000001,60.0,82.0
416,91.4948409375,92.1029484375,48.0,59.0
417,91.9002459375,92.3360563125,53.0,85.0
418,91.9002459375,92.4340291875,69.0,97.0
419,91.9002459375,92.5590290625,65.0,100.0
420,91.08943593750001,92.564096625,41.0,86.0
421,91.9002459375,92.567475,60.0,100.0
422,92.3056509375,92.705988375,48.0,97.0
423,92.7110559375,93.16037981250001,60.0,88.0
424,92.7110559375,93.23808243750001,65.0,76.0
425,92.7110559375,93.26848781250001,69.0,73.0
426,93.31916343750001,93.3698390625,65.0,33.0
427,93.11646093750001,93.6097036875,53.0,97.0
428,93.31916343750001,93.658690125,60.0,83.0
429,93.72456843750001,93.9542979375,53.0,93.0
430,93.52186593750001,94.01679787500001,65.0,97.0
431,93.52186593750001,94.02693300000001,69.0,96.0
432,94.12997343750001,94.20936525,65.0,38.0
433,93.92727093750001,94.21105443750001,60.0,85.0
434,92.7110559375,94.25497331250001,41.0,74.0
435,92.91375843750001,94.3090273125,48.0,99.0
436,94.33267593750001,94.84787812500001,64.0,85.0
437,94.33267593750001,94.87828350000001,60.0,90.0
438,94.33267593750001,95.03031037500001,57.0,92.0
439,94.73808093750002,95.23639125000001,52.0,86.0
440,95.1434859375,95.618147625,60.0,95.0
441,95.1434859375,95.73301237500002,64.0,90.0
442,94.33267593750001,95.77017450000001,45.0,73.0
443,95.3461884375,95.92895812500001,52.0,86.0
444,95.9542959375,96.513417,64.0,89.0
445,95.9542959375,96.6080115,60.0,90.0
446,95.5488909375,96.62659256250001,57.0,96.0
447,96.35970093750001,96.83098425000001,52.0,86.0
448,96.96780843750001,97.13165962500001,52.0,90.0
449,95.9542959375,97.16206500000001,45.0,74.0
450,96.76510593750001,97.26003787500001,64.0,93.0
451,96.76510593750001,97.52017275000001,60.0,99.0
452,97.57591593750001,98.24314500000001,65.0,93.0
453,97.57591593750001,98.25496931250001,62.0,95.0
454,97.17051093750001,98.33267193750001,57.0,112.0
455,97.98132093750002,98.46273937500001,45.0,48.0
456,98.3867259375,98.8259146875,50.0,99.0
457,97.57591593750001,98.891793,38.0,73.0
458,98.3867259375,99.053955,65.0,92.0
459,98.3867259375,99.06071175000001,62.0,100.0
460,98.7921309375,99.21273862500001,45.0,93.0
461,99.1975359375,99.84956231250001,65.0,81.0
462,99.1975359375,99.86307581250001,62.0,90.0
463,99.1975359375,99.90023793750001,57.0,93.0
464,99.60294093750001,100.11983231250001,45.0,55.0
465,99.1975359375,100.40868337500001,38.0,73.0
466,100.00834593750001,100.43064281250001,65.0,95.0
467,100.00834593750001,100.45598062500001,50.0,88.0
468,100.00834593750001,100.46949412500001,62.0,97.0
469,100.41375093750001,100.56071025000001,57.0,60.0
470,100.41375093750001,100.80564243750001,45.0,78.0
471,100.81915593750001,101.3596959375,62.0,86.0
472,100.81915593750001,101.49314175,55.0,93.0
473,100.81915593750001,101.5015876875,58.0,96.0
474,101.22456093750002,101.685709125,50.0,63.0
475,101.6299659375,102.0961816875,58.0,107.0
476,101.6299659375,102.14178975000002,62.0,89.0
477,100.81915593750001,102.25327612500001,43.0,68.0
478,102.0353709375,102.3107085,55.0,90.0
479,101.8326684375,102.39010031250001,50.0,74.0
480,102.4407759375,102.99651862500001,62.0,89.0
481,102.4407759375,103.05057262500002,55.0,89.0
482,102.4407759375,103.08773475000001,58.0,100.0
483,102.84618093750001,103.34449125,50.0,83.0
484,103.45428843750001,103.62658556250001,50.0,66.0
485,102.4407759375,103.67726118750001,43.0,73.0
486,103.25158593750001,103.71273412500001,58.0,117.0
487,103.25158593750001,103.74820706250001,62.0,89.0
488,103.65699093750001,103.99145006250001,55.0,99.0
489,104.06239593750001,104.705976375,64.0,90.0
490,104.06239593750001,104.72962500000001,60.0,97.0
491,104.06239593750001,104.753273625,55.0,90.0
492,104.8732059375,105.34617843750001,60.0,107.0
493,104.8732059375,105.34955681250001,64.0,96.0
494,104.46780093750002,105.67557000000001,43.0,52.0
495,104.06239593750001,105.6873943125,36.0,88.0
496,105.6840159375,105.6873943125,36.0,70.0
497,105.2786109375,105.69584025,55.0,97.0
498,105.6840159375,105.69584025,55.0,92.0
499,105.0759084375,105.71948887500001,48.0,81.0
500,105.6840159375,106.14685331250001,60.0,93.0
501,106.08942093750001,106.14685331250001,60.0,102.0
502,105.6840159375,106.1569884375,64.0,86.0
503,106.08942093750001,106.33942068750001,72.0,99.0
504,106.49482593750001,106.7380689375,62.0,102.0
505,106.49482593750001,106.73975812500001,74.0,107.0
506,106.08942093750001,106.8596904375,43.0,89.0
507,106.49482593750001,106.94752818750001,48.0,107.0
508,106.90023093750001,106.96779843750001,76.0,93.0
509,106.90023093750001,107.0049605625,64.0,122.0
510,107.30563593750001,107.73975712500001,69.0,82.0
511,107.30563593750001,107.74820306250001,65.0,90.0
512,107.30563593750001,107.98637850000001,60.0,93.0
513,107.71104093750002,108.20090531250001,48.0,52.0
514,108.1164459375,108.52522931250002,53.0,99.0
515,108.1164459375,108.5556346875,65.0,99.0
516,107.30563593750001,108.66036431250001,41.0,92.0
517,108.5218509375,108.95766131250001,48.0,46.0
518,108.1164459375,109.54549856250001,69.0,95.0
519,108.7245534375,109.564079625,65.0,93.0
520,108.5218509375,109.5860390625,60.0,89.0
521,109.33266093750001,109.8394171875,48.0,66.0
522,109.73806593750001,110.09448450000001,69.0,90.0
523,109.73806593750001,110.1063088125,65.0,93.0
524,109.73806593750001,110.1536060625,53.0,99.0
525,108.92725593750001,110.42556525,41.0,88.0
526,110.14347093750001,110.4644165625,48.0,81.0
527,110.95428093750002,111.4981993125,45.0,71.0
528,111.3596859375,111.77691525000002,50.0,71.0
529,111.3596859375,111.99819881250001,62.0,93.0
530,110.54887593750001,112.03705012500001,38.0,85.0
531,111.3596859375,112.070833875,65.0,85.0
532,111.7650909375,112.19245537500001,45.0,90.0
533,111.9677934375,113.0015761875,57.0,89.0
534,112.57590093750001,113.12488687500002,45.0,77.0
535,112.17049593750001,113.3495488125,38.0,83.0
536,112.98130593750001,113.36981906250001,65.0,93.0
537,112.98130593750001,113.38671093750001,62.0,100.0
538,112.98130593750001,113.46948112500002,50.0,86.0
539,113.38671093750001,113.67387281250001,57.0,88.0
540,113.38671093750001,113.77691325,45.0,71.0
541,113.79211593750001,114.22623712500001,62.0,81.0
542,113.79211593750001,114.4137369375,55.0,90.0
543,113.79211593750001,114.45089906250001,58.0,92.0
544,114.19752093750002,114.64853400000001,50.0,97.0
545,114.8056284375,114.95934450000001,50.0,93.0
546,113.79211593750001,114.97454718750001,43.0,68.0
547,114.6029259375,115.05056062500002,58.0,102.0
548,114.6029259375,115.25664150000001,62.0,90.0
549,115.2110334375,115.34279006250001,58.0,93.0
550,115.0083309375,115.34954681250001,55.0,99.0
551,115.41373593750001,116.06576231250001,64.0,95.0
552,115.41373593750001,116.080965,60.0,99.0
553,115.41373593750001,116.12826225,55.0,70.0
554,115.81914093750001,116.30393775000002,43.0,46.0
555,115.41373593750001,116.60968068750002,36.0,83.0
556,116.22454593750001,116.6367076875,64.0,96.0
557,116.22454593750001,116.645153625,60.0,102.0
558,116.62995093750001,116.87150475000001,55.0,88.0
559,116.22454593750001,117.02691000000002,48.0,97.0
560,117.03535593750001,117.368125875,53.0,96.0
561,117.03535593750001,117.38332856250001,57.0,86.0
562,117.03535593750001,117.40528800000001,60.0,82.0
563,117.44076093750002,118.0488684375,48.0,59.0
564,117.8461659375,118.2819763125,53.0,85.0
565,117.8461659375,118.37994918750002,69.0,97.0
566,117.8461659375,118.50494906250002,65.0,100.0
567,117.03535593750001,118.510016625,41.0,86.0
568,117.8461659375,118.51339500000002,60.0,100.0
569,118.2515709375,118.651908375,48.0,97.0
570,118.65697593750001,119.10629981250001,60.0,88.0
571,118.65697593750001,119.18400243750001,65.0,76.0
572,118.65697593750001,119.21440781250001,69.0,73.0
573,119.26508343750001,119.3157590625,65.0,33.0
574,119.06238093750001,119.55562368750002,53.0,97.0
575,119.26508343750001,119.60461012500001,60.0,83.0
576,119.67048843750001,119.90021793750002,53.0,93.0
577,119.46778593750001,119.96271787500001,65.0,97.0
578,119.46778593750001,119.97285300000001,69.0,96.0
579,120.07589343750001,120.15528525,65.0,38.0
580,119.87319093750001,120.15697443750001,60.0,85.0
581,118.65697593750001,120.20089331250001,41.0,74.0
582,118.85967843750001,120.25494731250001,48.0,99.0
583,120.27859593750001,120.79379812500001,64.0,85.0
584,120.27859593750001,120.82420350000001,60.0,90.0
585,120.27859593750001,120.97623037500001,57.0,92.0
586,120.68400093750002,121.18231125000001,52.0,86.0
587,121.0894059375,121.564067625,60.0,95.0
588,121.0894059375,121.67893237500002,64.0,90.0
589,120.27859593750001,121.71609450000001,45.0,73.0
590,121.2921084375,121.87487812500001,52.0,86.0
591,121.90021593750001,122.459337,64.0,89.0
592,121.90021593750001,122.5539315,60.0,90.0
593,121.4948109375,122.57251256250001,57.0,96.0
594,122.30562093750001,122.77690425000002,52.0,86.0
595,122.91372843750001,123.07757962500001,52.0,90.0
596,121.90021593750001,123.10798500000001,45.0,74.0
597,122.71102593750001,123.20595787500001,64.0,93.0
598,122.71102593750001,123.46609275000002,60.0,99.0
599,123.52183593750001,124.18906500000001,65.0,93.0
600,123.52183593750001,124.20088931250001,62.0,95.0
601,123.11643093750001,124.27859193750001,57.0,112.0
602,123.92724093750002,124.40865937500001,45.0,48.0
603,124.3326459375,124.77183468750002,50.0,99.0
604,123.52183593750001,124.83771300000001,38.0,73.0
605,124.3326459375,124.99987500000002,65.0,92.0
606,124.3326459375,125.00663175000001,62.0,100.0
607,124.7380509375,125.15865862500002,45.0,93.0
608,125.14345593750001,125.79548231250001,65.0,81.0
609,125.14345593750001,125.80899581250002,62.0,90.0
610,125.14345593750001,125.84615793750001,57.0,93.0
611,125.54886093750001,126.06575231250001,45.0,55.0
612,125.14345593750001,126.35460337500001,38.0,73.0
613,125.95426593750001,126.37656281250001,65.0,95.0
614,125.95426593750001,126.40190062500001,50.0,88.0
615,125.95426593750001,126.41541412500001,62.0,97.0
616,126.35967093750001,126.50663025000001,57.0,60.0
617,126.35967093750001,126.75156243750001,45.0,78.0
618,126.76507593750001,127.30561593750001,62.0,86.0
619,126.76507593750001,127.43906175000001,55.0,93.0
620,126.76507593750001,127.4475076875,58.0,96.0
621,127.17048093750002,127.63162912500002,50.0,63.0
622,127.57588593750002,128.0421016875,58.0,107.0
623,127.57588593750002,128.08770975000002,62.0,89.0
624,126.76507593750001,128.19919612500001,43.0,68.0
625,127.9812909375,128.2566285,55.0,90.0
626,127.7785884375,128.3360203125,50.0,74.0
627,128.3866959375,129.97453218750002,60.0,88.0
628,128.3866959375,129.9779105625,36.0,52.0
629,128.3866959375,129.9863565,55.0,88.0
630,128.3866959375,129.99142406250002,43.0,69.0
631,128.3866959375,129.9948024375,64.0,82.0
632,128.3866959375,129.996491625,48.0,83.0
633,130.00831593750002,130.62993693750002,65.0,79.0
634,130.00831593750002,130.79040975,69.0,77.0
635,130.00831593750002,131.50155768750002,60.0,79.0
636,130.81912593750002,131.52689550000002,67.0,92.0
637,131.22453093750002,131.814057375,53.0,74.0
638,131.62993593750002,132.3123676875,69.0,71.0
639,131.62993593750002,132.31912443750002,65.0,70.0
640,131.62993593750002,132.4187865,60.0,71.0
641,132.03534093750002,132.52689450000003,53.0,61.0
642,132.6434484375,132.84446175000002,53.0,60.0
643,130.41372093750002,133.16202900000002,48.0,44.0
644,130.00831593750002,133.2177721875,41.0,73.0
645,132.8461509375,133.22115056250001,60.0,86.0
646,132.44074593750003,133.2380424375,65.0,88.0
647,132.44074593750003,133.2447991875,69.0,82.0
648,133.2515559375,133.71270412500002,69.0,76.0
649,133.2515559375,133.9322985,60.0,88.0
650,133.2515559375,133.93736606250002,65.0,72.0
651,134.0623659375,134.6502031875,69.0,73.0
652,134.0623659375,134.699189625,65.0,79.0
653,134.0623659375,134.787027375,60.0,85.0
654,134.4677709375,135.0116893125,53.0,34.0
655,134.8731759375,135.7684453125,65.0,73.0
656,135.2785809375,135.8697965625,53.0,62.0
657,133.6569609375,136.270134,48.0,49.0
658,133.2515559375,136.34445825,41.0,69.0
659,134.8731759375,136.41033656250002,60.0,61.0
660,136.0893909375,136.43567437500002,65.0,82.0
661,135.6839859375,136.4508770625,69.0,96.0
662,136.49479593750002,137.25324112500002,64.0,86.0
663,136.49479593750002,137.2583086875,60.0,93.0
664,136.90020093750002,137.49479493750002,52.0,53.0
665,137.30560593750002,137.982970125,60.0,83.0
666,137.30560593750002,137.98803768750003,64.0,73.0
667,137.71101093750002,138.28026712500002,52.0,54.0
668,138.11641593750002,138.68229375,64.0,69.0
669,138.11641593750002,138.81236118750002,57.0,70.0
670,138.11641593750002,138.8157395625,60.0,71.0
671,138.52182093750002,139.08938793750002,52.0,54.0
672,138.92722593750003,139.6637116875,60.0,75.0
673,136.49479593750002,139.66877925,45.0,72.0
674,139.3326309375,139.6772251875,57.0,83.0
675,138.92722593750003,139.678914375,64.0,72.0
676,140.1434409375,140.63837287500002,50.0,60.0
677,139.7380359375,140.76168356250002,43.0,81.0
678,140.9542509375,141.3427640625,58.0,79.0
679,140.5488459375,141.378237,62.0,89.0
680,141.3596559375,142.4103305625,36.0,76.0
681,141.7650609375,142.41539812500002,43.0,34.0
682,142.1704659375,142.7008708125,48.0,79.0
683,142.1704659375,142.94073543750002,64.0,86.0
684,142.5758709375,143.01843806250002,60.0,77.0
685,143.79208593750002,144.45593662500002,53.0,75.0
686,143.79208593750002,144.48972037500002,60.0,90.0
687,144.19749093750002,144.5184365625,57.0,89.0
688,142.98127593750002,144.5218149375,41.0,72.0
689,143.38668093750002,144.54377437500003,48.0,40.0
690,144.60289593750002,144.67046343750002,41.0,66.0
691,144.60289593750002,145.31573306250002,63.0,127.0
692,144.60289593750002,145.31742225000002,57.0,95.0
693,144.60289593750002,145.31742225000002,60.0,100.0
694,145.2110034375,145.469449125,48.0,56.0
695,145.00830093750002,145.7515434375,41.0,69.0
696,145.6164084375,145.79039475000002,48.0,85.0
697,145.41370593750003,145.8968135625,60.0,96.0
698,145.41370593750003,146.0893809375,63.0,122.0
699,146.02181343750001,146.2177591875,60.0,102.0
700,145.8191109375,146.226205125,57.0,96.0
701,146.83262343750002,147.01336650000002,58.0,93.0
702,146.6299209375,147.0454610625,53.0,90.0
703,146.42721843750002,147.516744375,50.0,65.0
704,146.2245159375,147.5251903125,46.0,97.0
705,147.0353259375,147.59275781250003,65.0,93.0
706,147.23802843750002,147.7177576875,53.0,88.0
707,147.4407309375,147.8360008125,58.0,99.0
708,147.64343343750002,147.9052575,62.0,72.0
709,148.45424343750003,148.6805945625,58.0,90.0
710,148.2515409375,148.7430945,53.0,82.0
711,148.04883843750002,149.08768875,50.0,64.0
712,147.8461359375,149.12485087500002,46.0,95.0
713,148.85964843750003,149.1805940625,53.0,74.0
714,148.6569459375,149.18904,65.0,82.0
715,149.0623509375,149.3596479375,58.0,93.0
716,149.2650534375,149.46944512500002,62.0,78.0
717,149.87316093750002,150.3359983125,57.0,82.0
718,150.0758634375,150.5251873125,60.0,83.0
719,150.4812684375,150.64005206250002,57.0,86.0
720,149.46775593750002,150.901876125,45.0,74.0
721,149.6704584375,151.0691056875,52.0,58.0
722,150.8866734375,151.08937593750002,60.0,78.0
723,150.68397093750002,151.08937593750002,64.0,88.0
724,150.27856593750002,151.08937593750002,69.0,93.0
725,151.49478093750002,151.91707781250003,50.0,82.0
726,151.6974834375,152.0150506875,57.0,86.0
727,151.08937593750002,152.1535640625,38.0,77.0
728,151.2920784375,152.17383431250002,45.0,67.0
729,152.1028884375,152.31403687500003,50.0,90.0
730,152.3055909375,152.63160412500002,62.0,83.0
731,151.90018593750003,152.65525275000002,65.0,99.0
732,152.50829343750001,152.6873473125,57.0,89.0
733,153.1164009375,153.408630375,55.0,72.0
734,153.31910343750002,153.4880221875,58.0,77.0
735,152.91369843750002,153.658630125,50.0,66.0
736,152.7109959375,153.6839679375,43.0,79.0
737,153.9272109375,154.2278863125,58.0,102.0
738,153.5218059375,154.2549133125,62.0,86.0
739,154.7380209375,155.226196125,43.0,40.0
740,154.3326159375,155.25660150000002,36.0,89.0
741,155.1434259375,155.97112781250001,60.0,76.0
742,155.1434259375,155.98126293750002,64.0,75.0
743,156.76504593750002,157.7785584375,53.0,88.0
744,157.17045093750002,158.4677469375,55.0,66.0
745,157.98126093750002,158.51335500000002,53.0,58.0
746,157.57585593750002,158.73970612500003,57.0,63.0
747,156.35964093750002,159.18227325,48.0,56.0
748,155.95423593750002,159.199165125,41.0,78.0
749,159.1974759375,159.199165125,41.0,69.0
750,158.38666593750003,159.2076110625,60.0,86.0
751,158.7920709375,159.21943537500002,57.0,67.0
752,159.1974759375,159.67044843750003,69.0,88.0
753,159.1974759375,159.87652931250003,65.0,75.0
754,160.0082859375,160.49477193750002,69.0,78.0
755,160.0082859375,160.53869081250002,65.0,82.0
756,160.0082859375,160.594434,60.0,78.0
757,160.4136909375,161.12821725,53.0,66.0
758,160.8190959375,161.41200075,69.0,59.0
759,160.8190959375,161.462676375,60.0,59.0
760,160.8190959375,161.489703375,65.0,55.0
761,161.6299059375,161.99645962500003,69.0,82.0
762,161.6299059375,162.02686500000002,65.0,86.0
763,159.6028809375,162.0420676875,48.0,34.0
764,161.83260843750003,162.05558118750002,53.0,50.0
765,162.03531093750001,162.2211215625,60.0,63.0
766,162.44071593750002,162.8157155625,64.0,58.0
767,162.44071593750002,163.02010725000002,60.0,56.0
768,162.44071593750002,163.0217964375,57.0,65.0
769,162.44071593750002,163.58091750000003,45.0,69.0
770,162.84612093750002,164.08767375000002,52.0,45.0
771,163.25152593750002,164.50321387500003,64.0,68.0
772,163.25152593750002,164.5150381875,60.0,72.0
773,163.65693093750002,164.523484125,57.0,75.0
774,164.46774093750003,164.945781,52.0,56.0
775,164.06233593750002,165.05051062500002,45.0,59.0
776,164.87314593750003,165.24138881250002,64.0,81.0
777,164.87314593750003,165.57415875,60.0,86.0
778,165.27855093750003,165.6096316875,57.0,58.0
779,165.6839559375,166.3765228125,65.0,79.0
780,165.6839559375,166.401860625,62.0,76.0
781,165.6839559375,166.43226600000003,57.0,72.0
782,166.4947659375,167.00658975000002,65.0,63.0
783,166.4947659375,167.030238375,62.0,64.0
784,166.4947659375,167.13665718750002,57.0,69.0
785,166.9001709375,167.564021625,50.0,36.0
786,167.3055759375,167.7278728125,65.0,43.0
787,167.3055759375,167.7616565625,62.0,41.0
788,167.3055759375,167.79206193750002,57.0,47.0
789,167.7109809375,168.2717911875,50.0,38.0
790,165.6839559375,168.459291,38.0,66.0
791,166.0893609375,168.4947639375,45.0,34.0
792,168.1163859375,168.5353044375,65.0,88.0
793,168.1163859375,168.56064225000003,62.0,95.0
794,168.52179093750001,168.77347987500002,57.0,52.0
795,168.92719593750002,169.35287118750003,62.0,64.0
796,168.92719593750002,169.53192506250002,55.0,79.0
797,168.92719593750002,169.5454385625,58.0,64.0
798,169.33260093750002,169.9305733125,50.0,48.0
799,169.73800593750002,170.15185687500002,62.0,51.0
800,169.73800593750002,170.20591087500003,58.0,49.0
801,169.73800593750002,170.29037025000002,55.0,53.0
802,170.14341093750002,170.66705906250002,50.0,32.0
803,170.54881593750002,170.93732906250003,62.0,49.0
804,170.54881593750002,170.97955875000002,58.0,44.0
805,170.54881593750002,170.98124793750003,55.0,44.0
806,170.95422093750003,171.449152875,50.0,25.0
807,171.35962593750003,171.7346255625,58.0,81.0
808,171.35962593750003,171.73800393750003,62.0,70.0
809,171.35962593750003,171.8967875625,55.0,65.0
810,168.92719593750002,171.98800368750003,43.0,66.0
811,171.76503093750003,172.216044,50.0,36.0
812,172.1704359375,172.567395,64.0,71.0
813,172.1704359375,172.63496250000003,60.0,72.0
814,172.1704359375,172.756584,57.0,75.0
815,172.9812459375,173.15523225,57.0,66.0
816,172.5758409375,173.19408356250003,52.0,36.0
817,172.1704359375,173.266718625,45.0,57.0
818,172.9812459375,173.4204346875,64.0,66.0
819,173.3866509375,173.69915062500002,57.0,57.0
820,172.9812459375,173.70759656250002,60.0,72.0
821,173.7920559375,174.2548933125,65.0,68.0
822,173.7920559375,174.26333925,62.0,71.0
823,173.7920559375,174.49982550000001,57.0,66.0
824,173.7920559375,174.71604150000002,38.0,65.0
825,174.1974609375,174.8157035625,45.0,41.0
826,174.6028659375,174.9812439375,65.0,69.0
827,174.6028659375,175.01840606250002,62.0,76.0
828,175.00827093750001,175.28698687500003,57.0,62.0
829,174.6028659375,175.3596219375,50.0,48.0
830,175.41367593750002,175.88833762500002,62.0,59.0
831,175.41367593750002,176.07752662500002,55.0,82.0
832,175.41367593750002,176.10624281250003,58.0,63.0
833,175.41367593750002,176.4947559375,43.0,65.0
834,176.22448593750002,176.63664768750002,62.0,66.0
835,176.22448593750002,176.6940800625,58.0,89.0
836,176.22448593750002,176.70928275000003,55.0,73.0
837,176.62989093750002,177.003201375,43.0,66.0
838,177.03529593750002,177.6771871875,65.0,63.0
839,177.03529593750002,177.69576825000001,62.0,69.0
840,177.03529593750002,177.69914662500003,57.0,72.0
841,177.03529593750002,178.057254375,50.0,60.0
842,177.84610593750003,178.097794875,65.0,68.0
843,177.84610593750003,178.16367318750002,62.0,77.0
844,177.84610593750003,178.4339431875,57.0,66.0
845,178.25151093750003,178.57583493750002,50.0,52.0
846,178.6569159375,179.124820875,65.0,72.0
847,178.6569159375,179.25488831250001,62.0,79.0
848,178.6569159375,179.34272606250002,58.0,100.0
849,178.6569159375,179.6839419375,46.0,90.0
850,179.4677259375,179.864685,65.0,67.0
851,179.4677259375,179.9322525,62.0,75.0
852,179.4677259375,180.15184687500002,58.0,90.0
853,179.8731309375,180.2515089375,46.0,65.0
854,180.2785359375,180.9406974375,64.0,79.0
855,180.2785359375,180.96434606250003,55.0,82.0
856,180.2785359375,180.96434606250003,60.0,81.0
857,180.2785359375,181.432251,48.0,81.0
858,181.49475093750002,181.87650731250002,48.0,83.0
859,181.0893459375,181.881574875,55.0,90.0
860,181.0893459375,181.881574875,60.0,92.0
861,181.0893459375,181.88326406250002,64.0,89.0
862,181.90015593750002,182.42887162500003,69.0,82.0
863,181.90015593750002,182.5352904375,60.0,96.0
864,181.90015593750002,182.5538715,65.0,93.0
865,182.30556093750002,182.84441175,48.0,62.0
866,182.71096593750002,183.19407356250002,69.0,76.0
867,182.71096593750002,183.1974519375,65.0,86.0
868,182.71096593750002,183.21096543750002,60.0,90.0
869,183.3190734375,183.3866409375,65.0,38.0
870,182.71096593750002,183.6619785,53.0,79.0
871,183.52177593750002,184.00150518750002,69.0,89.0
872,183.52177593750002,184.00319437500002,65.0,93.0
873,183.52177593750002,184.00488356250003,60.0,102.0
874,184.1298834375,184.2481265625,69.0,85.0
875,184.1298834375,184.25319412500002,65.0,92.0
876,184.1298834375,184.2582616875,60.0,89.0
877,183.92718093750003,184.4204236875,53.0,90.0
878,184.33258593750003,184.5927208125,65.0,99.0
879,184.33258593750003,184.5927208125,69.0,95.0
880,184.33258593750003,184.59778837500002,60.0,100.0
881,184.73799093750003,185.0251528125,53.0,66.0
882,184.73799093750003,185.10792300000003,65.0,95.0
883,184.73799093750003,185.1197473125,60.0,99.0
884,181.90015593750002,185.1265040625,41.0,86.0
885,184.73799093750003,185.12988243750002,69.0,97.0
886,183.11637093750002,185.14001756250002,48.0,39.0
887,185.1433959375,185.577517125,69.0,82.0
888,185.1433959375,185.5859630625,65.0,90.0
889,185.1433959375,185.8241385,60.0,93.0
890,185.5488009375,186.03866531250003,48.0,52.0
891,185.9542059375,186.36298931250002,53.0,99.0
892,185.9542059375,186.3933946875,65.0,99.0
893,185.1433959375,186.4981243125,41.0,92.0
894,186.3596109375,186.79542131250003,48.0,46.0
895,185.9542059375,187.3832585625,69.0,95.0
896,186.56231343750002,187.401839625,65.0,93.0
897,186.3596109375,187.42379906250002,60.0,89.0
898,187.1704209375,187.6771771875,48.0,66.0
899,187.5758259375,187.93224450000002,69.0,90.0
900,187.5758259375,187.9440688125,65.0,93.0
901,187.5758259375,187.99136606250002,53.0,99.0
902,186.7650159375,188.26332525,41.0,88.0
903,187.98123093750002,188.30217656250002,48.0,81.0
904,188.79204093750002,189.33595931250002,45.0,71.0
905,189.19744593750002,189.61467525,50.0,71.0
906,189.19744593750002,189.83595881250002,62.0,93.0
907,188.38663593750002,189.874810125,38.0,85.0
908,189.19744593750002,189.908593875,65.0,85.0
909,189.60285093750002,190.030215375,45.0,90.0
910,189.8055534375,190.8393361875,57.0,89.0
911,190.41366093750003,190.96264687500002,45.0,77.0
912,190.00825593750002,191.18730881250002,38.0,83.0
913,190.81906593750003,191.20757906250003,65.0,93.0
914,190.81906593750003,191.22447093750003,62.0,100.0
915,190.81906593750003,191.30724112500002,50.0,86.0
916,191.22447093750003,191.5116328125,57.0,88.0
917,191.22447093750003,191.61467325,45.0,71.0
918,191.6298759375,192.06399712500001,62.0,81.0
919,191.6298759375,192.2514969375,55.0,90.0
920,191.6298759375,192.28865906250002,58.0,92.0
921,192.0352809375,192.48629400000002,50.0,97.0
922,192.64338843750002,192.79710450000002,50.0,93.0
923,191.6298759375,192.8123071875,43.0,68.0
924,192.4406859375,192.888320625,58.0,102.0
925,192.4406859375,193.0944015,62.0,90.0
926,193.04879343750002,193.1805500625,58.0,93.0
927,192.8460909375,193.18730681250003,55.0,99.0
928,193.2514959375,193.90352231250003,64.0,95.0
929,193.2514959375,193.91872500000002,60.0,99.0
930,193.2514959375,193.96602225,55.0,70.0
931,193.6569009375,194.14169775000002,43.0,46.0
932,193.2514959375,194.4474406875,36.0,83.0
933,194.0623059375,194.4744676875,64.0,96.0
934,194.0623059375,194.482913625,60.0,102.0
935,194.46771093750002,194.70926475000002,55.0,88.0
936,194.0623059375,194.86467000000002,48.0,97.0
937,194.87311593750002,195.205885875,53.0,96.0
938,194.87311593750002,195.22108856250003,57.0,86.0
939,194.87311593750002,195.24304800000002,60.0,82.0
940,195.27852093750002,195.8866284375,48.0,59.0
941,195.68392593750002,196.1197363125,53.0,85.0
942,195.68392593750002,196.21770918750002,69.0,97.0
943,195.68392593750002,196.3427090625,65.0,100.0
944,194.87311593750002,196.34777662500002,41.0,86.0
945,195.68392593750002,196.351155,60.0,100.0
946,196.08933093750002,196.489668375,48.0,97.0
947,196.49473593750002,196.94405981250003,60.0,88.0
948,196.49473593750002,197.02176243750003,65.0,76.0
949,196.49473593750002,197.05216781250002,69.0,73.0
950,197.1028434375,197.1535190625,65.0,33.0
951,196.90014093750003,197.3933836875,53.0,97.0
952,197.1028434375,197.44237012500002,60.0,83.0
953,197.50824843750001,197.7379779375,53.0,93.0
954,197.30554593750003,197.800477875,65.0,97.0
955,197.30554593750003,197.81061300000002,69.0,96.0
956,197.91365343750002,197.99304525000002,65.0,38.0
957,197.71095093750003,197.99473443750003,60.0,85.0
958,196.49473593750002,198.03865331250003,41.0,74.0
959,196.6974384375,198.0927073125,48.0,99.0
960,198.11635593750003,198.63155812500003,64.0,85.0
961,198.11635593750003,198.6619635,60.0,90.0
962,198.11635593750003,198.81399037500003,57.0,92.0
963,198.5217609375,199.02007125000003,52.0,86.0
964,198.9271659375,199.401827625,60.0,95.0
965,198.9271659375,199.51669237500002,64.0,90.0
966,198.11635593750003,199.55385450000003,45.0,73.0
967,199.12986843750002,199.712638125,52.0,86.0
968,199.7379759375,200.297097,64.0,89.0
969,199.7379759375,200.3916915,60.0,90.0
970,199.3325709375,200.4102725625,57.0,96.0
971,200.1433809375,200.61466425,52.0,86.0
972,200.75148843750003,200.91533962500003,52.0,90.0
973,199.7379759375,200.94574500000002,45.0,74.0
974,200.5487859375,201.04371787500003,64.0,93.0
975,200.5487859375,201.30385275,60.0,99.0
976,201.35959593750002,202.02682500000003,65.0,93.0
977,201.35959593750002,202.0386493125,62.0,95.0
978,200.95419093750002,202.1163519375,57.0,112.0
979,201.76500093750002,202.24641937500002,45.0,48.0
980,202.17040593750002,202.60959468750002,50.0,99.0
981,201.35959593750002,202.675473,38.0,73.0
982,202.17040593750002,202.837635,65.0,92.0
983,202.17040593750002,202.84439175000003,62.0,100.0
984,202.57581093750002,202.99641862500002,45.0,93.0
985,202.98121593750002,203.63324231250002,65.0,81.0
986,202.98121593750002,203.64675581250003,62.0,90.0
987,202.98121593750002,203.6839179375,57.0,93.0
988,203.38662093750003,203.90351231250003,45.0,55.0
989,202.98121593750002,204.192363375,38.0,73.0
990,203.79202593750003,204.21432281250003,65.0,95.0
991,203.79202593750003,204.23966062500003,50.0,88.0
992,203.79202593750003,204.25317412500002,62.0,97.0
993,204.19743093750003,204.34439025000003,57.0,60.0
994,204.19743093750003,204.58932243750002,45.0,78.0
995,204.60283593750003,205.14337593750002,62.0,86.0
996,204.60283593750003,205.27682175,55.0,93.0
997,204.60283593750003,205.2852676875,58.0,96.0
998,205.0082409375,205.46938912500002,50.0,63.0
999,205.4136459375,205.8798616875,58.0,107.0
1000,205.4136459375,205.92546975000002,62.0,89.0
1001,204.60283593750003,206.03695612500002,43.0,68.0
1002,205.8190509375,206.0943885,55.0,90.0
1003,205.61634843750002,206.1737803125,50.0,74.0
1004,206.2244559375,206.78019862500003,62.0,89.0
1005,206.2244559375,206.834252625,55.0,89.0
1006,206.2244559375,206.87141475,58.0,100.0
1007,206.6298609375,207.12817125,50.0,83.0
1008,207.23796843750003,207.41026556250003,50.0,66.0
1009,206.2244559375,207.46094118750003,43.0,73.0
1010,207.03526593750001,207.49641412500003,58.0,117.0
1011,207.03526593750001,207.5318870625,62.0,89.0
1012,207.44067093750002,207.7751300625,55.0,99.0
1013,207.84607593750002,208.489656375,64.0,90.0
1014,207.84607593750002,208.51330500000003,60.0,97.0
1015,207.84607593750002,208.53695362500002,55.0,90.0
1016,208.65688593750002,209.12985843750002,60.0,107.0
1017,208.65688593750002,209.13323681250003,64.0,96.0
1018,208.25148093750002,209.45925000000003,43.0,52.0
1019,207.84607593750002,209.4710743125,36.0,88.0
1020,209.46769593750003,209.4710743125,36.0,70.0
1021,209.06229093750002,209.47952025,55.0,97.0
1022,209.46769593750003,209.47952025,55.0,92.0
1023,208.8595884375,209.50316887500003,48.0,81.0
1024,209.46769593750003,209.93053331250002,60.0,93.0
1025,209.87310093750003,209.93053331250002,60.0,102.0
1026,209.46769593750003,209.94066843750002,64.0,86.0
1027,209.87310093750003,210.12310068750003,72.0,99.0
1028,210.27850593750003,210.5217489375,62.0,102.0
1029,210.27850593750003,210.523438125,74.0,107.0
1030,209.87310093750003,210.6433704375,43.0,89.0
1031,210.27850593750003,210.73120818750002,48.0,107.0
1032,210.68391093750003,210.75147843750003,76.0,93.0
1033,210.68391093750003,210.7886405625,64.0,122.0
1034,211.08931593750003,211.52343712500002,69.0,82.0
1035,211.08931593750003,211.53188306250001,65.0,90.0
1036,211.08931593750003,211.77005850000003,60.0,93.0
1037,211.4947209375,211.98458531250003,48.0,52.0
1038,211.9001259375,212.30890931250002,53.0,99.0
1039,211.9001259375,212.3393146875,65.0,99.0
1040,211.08931593750003,212.4440443125,41.0,92.0
1041,212.3055309375,212.74134131250003,48.0,46.0
1042,211.9001259375,213.32917856250003,69.0,95.0
1043,212.50823343750002,213.347759625,65.0,93.0
1044,212.3055309375,213.36971906250002,60.0,89.0
1045,213.1163409375,213.6230971875,48.0,66.0
1046,213.52174593750001,213.87816450000003,69.0,90.0
1047,213.52174593750001,213.8899888125,65.0,93.0
1048,213.52174593750001,213.93728606250002,53.0,99.0
1049,212.7109359375,214.20924525,41.0,88.0
1050,213.92715093750002,214.24809656250002,48.0,81.0
1051,214.73796093750002,215.28187931250002,45.0,71.0
1052,215.14336593750002,215.56059525,50.0,71.0
1053,215.14336593750002,215.78187881250003,62.0,93.0
1054,214.33255593750002,215.820730125,38.0,85.0
1055,215.14336593750002,215.854513875,65.0,85.0
1056,215.54877093750002,215.976135375,45.0,90.0
1057,215.7514734375,216.7852561875,57.0,89.0
1058,216.35958093750003,216.90856687500002,45.0,77.0
1059,215.95417593750003,217.13322881250002,38.0,83.0
1060,216.76498593750003,217.15349906250003,65.0,93.0
1061,216.76498593750003,217.17039093750003,62.0,100.0
1062,216.76498593750003,217.25316112500002,50.0,86.0
1063,217.17039093750003,217.4575528125,57.0,88.0
1064,217.17039093750003,217.56059325,45.0,71.0
1065,217.57579593750003,218.00991712500002,62.0,81.0
1066,217.57579593750003,218.1974169375,55.0,90.0
1067,217.57579593750003,218.23457906250002,58.0,92.0
1068,217.9812009375,218.43221400000002,50.0,97.0
1069,218.58930843750002,218.74302450000002,50.0,93.0
1070,217.57579593750003,218.7582271875,43.0,68.0
1071,218.3866059375,218.834240625,58.0,102.0
1072,218.3866059375,219.04032150000003,62.0,90.0
1073,218.99471343750002,219.12647006250003,58.0,93.0
1074,218.7920109375,219.13322681250003,55.0,99.0
1075,219.1974159375,219.84944231250003,64.0,95.0
1076,219.1974159375,219.86464500000002,60.0,99.0
1077,219.1974159375,219.91194225,55.0,70.0
1078,219.6028209375,220.08761775000002,43.0,46.0
1079,219.1974159375,220.3933606875,36.0,83.0
1080,220.00822593750001,220.4203876875,64.0,96.0
1081,220.00822593750001,220.428833625,60.0,102.0
1082,220.41363093750002,220.65518475000002,55.0,88.0
1083,220.00822593750001,220.81059000000002,48.0,97.0
1084,220.81903593750002,221.151805875,53.0,96.0
1085,220.81903593750002,221.16700856250003,57.0,86.0
1086,220.81903593750002,221.18896800000002,60.0,82.0
1087,221.22444093750002,221.8325484375,48.0,59.0
1088,221.62984593750002,222.0656563125,53.0,85.0
1089,221.62984593750002,222.16362918750002,69.0,97.0
1090,221.62984593750002,222.2886290625,65.0,100.0
1091,220.81903593750002,222.29369662500002,41.0,86.0
1092,221.62984593750002,222.297075,60.0,100.0
1093,222.03525093750002,222.435588375,48.0,97.0
1094,222.44065593750003,222.88997981250003,60.0,88.0
1095,222.44065593750003,222.96768243750003,65.0,76.0
1096,222.44065593750003,222.99808781250002,69.0,73.0
1097,223.0487634375,223.0994390625,65.0,33.0
1098,222.84606093750003,223.3393036875,53.0,97.0
1099,223.0487634375,223.38829012500003,60.0,83.0
1100,223.45416843750002,223.6838979375,53.0,93.0
1101,223.25146593750003,223.746397875,65.0,97.0
1102,223.25146593750003,223.75653300000002,69.0,96.0
1103,223.85957343750002,223.93896525000002,65.0,38.0
1104,223.65687093750003,223.94065443750003,60.0,85.0
1105,222.44065593750003,223.98457331250003,41.0,74.0
1106,222.6433584375,224.0386273125,48.0,99.0
1107,224.06227593750003,224.57747812500003,64.0,85.0
1108,224.06227593750003,224.6078835,60.0,90.0
1109,224.06227593750003,224.75991037500003,57.0,92.0
1110,224.4676809375,224.96599125000003,52.0,86.0
1111,224.8730859375,225.347747625,60.0,95.0
1112,224.8730859375,225.46261237500002,64.0,90.0
1113,224.06227593750003,225.49977450000003,45.0,73.0
1114,225.07578843750002,225.658558125,52.0,86.0
1115,225.6838959375,226.243017,64.0,89.0
1116,225.6838959375,226.3376115,60.0,90.0
1117,225.2784909375,226.3561925625,57.0,96.0
1118,226.0893009375,226.56058425000003,52.0,86.0
1119,226.69740843750003,226.86125962500003,52.0,90.0
1120,225.6838959375,226.89166500000002,45.0,74.0
1121,226.49470593750002,226.98963787500003,64.0,93.0
1122,226.49470593750002,227.24977275000003,60.0,99.0
1123,227.30551593750002,227.97274500000003,65.0,93.0
1124,227.30551593750002,227.9845693125,62.0,95.0
1125,226.90011093750002,228.06227193750001,57.0,112.0
1126,227.71092093750002,228.19233937500002,45.0,48.0
1127,228.11632593750002,228.55551468750002,50.0,99.0
1128,227.30551593750002,228.621393,38.0,73.0
1129,228.11632593750002,228.783555,65.0,92.0
1130,228.11632593750002,228.79031175000003,62.0,100.0
1131,228.52173093750002,228.94233862500002,45.0,93.0
1132,228.92713593750003,229.57916231250002,65.0,81.0
1133,228.92713593750003,229.59267581250003,62.0,90.0
1134,228.92713593750003,229.6298379375,57.0,93.0
1135,229.33254093750003,229.84943231250003,45.0,55.0
1136,228.92713593750003,230.13828337500001,38.0,73.0
1137,229.73794593750003,230.16024281250003,65.0,95.0
1138,229.73794593750003,230.18558062500003,50.0,88.0
1139,229.73794593750003,230.19909412500002,62.0,97.0
1140,230.14335093750003,230.29031025000003,57.0,60.0
1141,230.14335093750003,230.53524243750002,45.0,78.0
1142,230.54875593750003,231.08929593750003,62.0,86.0
1143,230.54875593750003,231.22274175,55.0,93.0
1144,230.54875593750003,231.2311876875,58.0,96.0
1145,230.9541609375,231.41530912500002,50.0,63.0
1146,231.3595659375,231.8257816875,58.0,107.0
1147,231.3595659375,231.87138975000002,62.0,89.0
1148,230.54875593750003,231.98287612500002,43.0,68.0
1149,231.7649709375,232.0403085,55.0,90.0
1150,231.56226843750002,232.11970031250002,50.0,74.0
1151,232.1703759375,233.17037493750001,36.0,52.0
1152,232.1703759375,233.17037493750001,36.0,88.0
1153,232.1703759375,233.30044237500002,55.0,88.0
1154,232.1703759375,233.30044237500002,55.0,99.0
1155,232.1703759375,233.340982875,60.0,88.0
1156,232.1703759375,233.340982875,60.0,99.0
1157,232.1703759375,233.36463150000003,64.0,82.0
1158,232.1703759375,233.36463150000003,64.0,95.0
1159,232.1703759375,233.77510406250002,43.0,69.0
1160,232.1703759375,233.780171625,48.0,83.0
1161,233.79199593750002,234.41361693750002,65.0,79.0
1162,233.79199593750002,234.57408975,69.0,77.0
1163,233.79199593750002,235.28523768750003,60.0,79.0
1164,234.60280593750002,235.31057550000003,67.0,92.0
1165,235.00821093750002,235.597737375,53.0,74.0
1166,235.41361593750003,236.09604768750003,69.0,71.0
1167,235.41361593750003,236.10280443750003,65.0,70.0
1168,235.41361593750003,236.2024665,60.0,71.0
1169,235.81902093750003,236.31057450000003,53.0,61.0
1170,236.42712843750002,236.62814175000003,53.0,60.0
1171,234.19740093750002,236.94570900000002,48.0,44.0
1172,233.79199593750002,237.0014521875,41.0,73.0
1173,236.62983093750003,237.00483056250002,60.0,86.0
1174,236.22442593750003,237.02172243750002,65.0,88.0
1175,236.22442593750003,237.0284791875,69.0,82.0
1176,237.03523593750003,237.33591131250003,66.0,43.0
1177,236.83253343750002,237.9321945,50.0,53.0
1178,236.83253343750002,237.94739718750003,62.0,66.0
1179,236.83253343750002,238.02341062500003,43.0,41.0
1180,237.03523593750003,238.07239706250002,70.0,89.0
1181,237.03523593750003,238.13489700000002,67.0,69.0
1182,237.03523593750003,238.25314012500002,55.0,40.0
1183,238.6568559375,242.83083825000003,60.0,45.0
1184,238.6568559375,243.04705425000003,67.0,67.0
1185,238.6568559375,243.11124337500002,55.0,35.0
1186,238.85955843750003,243.15685143750002,76.0,75.0
1187,238.85955843750003,243.21090543750003,72.0,81.0
1188,238.6568559375,243.28354050000002,48.0,19.0
1189,243.31901343750002,243.86462100000003,69.0,51.0
1190,243.31901343750002,243.9102290625,72.0,36.0
1191,243.52171593750003,243.95921550000003,65.0,56.0
1192,243.52171593750003,244.00144518750002,67.0,48.0
1193,244.7379309375,245.52340312500002,55.0,58.0
1194,245.1433359375,245.53691662500003,57.0,62.0
1195,245.5487409375,245.64164625,60.0,72.0
1196,245.95414593750002,246.51664537500002,65.0,73.0
1197,246.56225343750003,247.01326650000001,67.0,55.0
1198,246.96765843750003,247.0723880625,69.0,61.0
1199,247.3730634375,247.942319625,77.0,73.0
1200,247.7784684375,248.37813000000003,79.0,66.0
1201,248.79198093750003,248.90177812500002,84.0,52.0
1202,248.38657593750003,248.92711593750002,81.0,59.0
1203,249.40008843750002,250.75650600000003,91.0,45.0
1204,249.60279093750003,250.80380325000002,96.0,47.0
1205,243.92712093750004,250.81393837500002,48.0,62.0
1206,244.3325259375,250.81731675000003,53.0,63.0
1207,249.40008843750002,250.83420862500003,89.0,31.0
1208,249.60279093750003,250.88319506250002,93.0,40.0
1209,243.52171593750003,250.91697881250002,41.0,90.0
