,start,end,pitch,velocity
0,24.435489662499997,24.586805224999996,69.0,92.0
1,24.7512786625,24.960488874999996,69.0,93.0
2,25.067067662499998,25.260488425,71.0,94.0
3,25.382856662499997,25.601277387499998,73.0,93.0
4,25.6986456625,25.8670664625,73.0,88.0
5,26.014434662499998,26.182855462499997,73.0,87.0
6,26.330223662499996,26.511802337499997,73.0,96.0
7,26.6460126625,26.828907124999997,73.0,95.0
8,26.961801662499997,27.138117187499997,71.0,98.0
9,27.277590662499996,27.486800874999997,73.0,96.0
10,27.5933796625,27.740747862499997,76.0,96.0
11,27.909168662499997,28.313115424999996,76.0,94.0
12,28.5407466625,28.738114787499995,76.0,93.0
13,28.856535662499997,29.236798249999996,71.0,96.0
14,29.488113662499998,29.697323874999995,76.0,97.0
15,29.803902662499997,29.980218187499997,78.0,94.0
16,30.119691662499996,30.323638724999995,80.0,96.0
17,30.435480662499998,30.649954024999996,80.0,96.0
18,30.751269662499997,30.909164162499998,81.0,92.0
19,31.067058662499996,31.226268949999998,81.0,94.0
20,31.382847662499998,31.544689524999995,81.0,92.0
21,31.698636662499997,31.881531124999995,81.0,96.0
22,32.014425662499995,32.182846462499995,73.0,93.0
23,32.3302146625,32.5144249125,73.0,94.0
24,32.64600366249999,32.849950725,81.0,93.0
25,32.961792662499995,33.2696869375,80.0,94.0
26,33.59337066249999,33.839422924999994,78.0,96.0
27,33.909159662499995,34.26836965,76.0,97.0
28,34.5407376625,34.734158425,76.0,96.0
29,34.856526662499995,35.0223158875,76.0,101.0
30,35.1723156625,35.3433680375,76.0,99.0
31,35.4881046625,35.97363025,78.0,94.0
32,36.1196826625,36.343366537499996,81.0,93.0
33,36.4354716625,36.770997474999994,81.0,94.0
34,37.0670496625,37.21441786249999,69.0,96.0
35,37.3828386625,37.577575212499994,69.0,94.0
36,37.698627662499995,37.93152205,78.0,92.0
37,38.0144166625,38.4486265375,76.0,94.0
38,38.645994662499994,38.884152199999996,78.0,96.0
39,38.9617836625,39.35125676249999,73.0,93.0
40,39.593361662499994,39.792045574999996,69.0,98.0
41,39.9091506625,40.081518824999996,71.0,94.0
42,40.2249396625,40.420992,73.0,94.0
43,40.540728662499994,40.703886312499996,74.0,93.0
44,40.856517662499996,41.028885824999996,74.0,96.0
45,41.1723066625,41.365727424999996,74.0,103.0
46,41.488095662499994,41.68941115,73.0,97.0
47,41.803884662499996,42.0380948375,74.0,98.0
48,42.1196736625,42.286778674999994,81.0,92.0
49,42.435462662499994,42.628883425,80.0,97.0
50,42.751251662499996,42.935461912499996,81.0,93.0
51,43.0670406625,43.55125046249999,80.0,98.0
52,43.698618662499996,43.9407235625,78.0,94.0
53,44.0144076625,44.4223017875,76.0,99.0
54,44.645985662499996,44.802564374999996,69.0,88.0
55,44.9617746625,45.12887967499999,69.0,95.0
56,45.27756366249999,45.46177391249999,71.0,93.0
57,45.593352662499996,45.81440496249999,73.0,94.0
58,45.9091416625,46.081509825,73.0,94.0
59,46.22493066249999,46.386772525,73.0,93.0
60,46.540719662499995,46.7196667625,73.0,97.0
61,46.8565086625,47.044666275,73.0,97.0
62,47.17229766249999,47.339402674999995,71.0,98.0
63,47.488086662499995,47.66571797499999,73.0,96.0
64,47.8038756625,47.985454337499995,76.0,96.0
65,48.11966466249999,48.542032449999994,78.0,94.0
66,48.7512426625,48.986768624999996,76.0,93.0
67,49.06703166249999,49.456504762499996,71.0,96.0
68,49.6986096625,49.892030424999994,76.0,98.0
69,50.01439866249999,50.23413517499999,78.0,98.0
70,50.330187662499995,50.51176633749999,80.0,94.0
71,50.6459766625,50.80123958749999,80.0,98.0
72,50.96176566249999,51.128870674999995,81.0,92.0
73,51.277554662499995,51.43676495,81.0,96.0
74,51.5933436625,51.770974974999994,81.0,92.0
75,51.90913266249999,52.08939554999999,81.0,94.0
76,52.224921662499995,52.432816087499994,73.0,93.0
77,52.5407106625,52.7249209125,73.0,98.0
78,52.85649966249999,53.034130975,81.0,93.0
79,53.172288662499994,53.59597223749999,80.0,99.0
80,53.80386666249999,53.985445337499996,78.0,92.0
81,54.119655662499994,54.447286749999996,76.0,94.0
82,54.75123366249999,54.88807556249999,76.0,98.0
83,55.067022662499994,55.219654012499994,76.0,99.0
84,55.382811662499996,55.564390337499994,76.0,97.0
85,55.69860066249999,56.13675789999999,78.0,94.0
86,56.330178662499996,56.54465202499999,81.0,93.0
87,56.64596766249999,56.957809299999994,81.0,93.0
88,57.277545662499996,57.449913824999996,69.0,92.0
89,57.59333466249999,57.78149227499999,69.0,94.0
90,57.909123662499994,58.139386474999995,78.0,96.0
91,58.224912662499996,58.668333049999994,76.0,94.0
92,58.85649066249999,59.07754296249999,78.0,98.0
93,59.172279662499996,59.572279062499994,73.0,95.0
94,59.80385766249999,60.045962562499994,69.0,86.0
95,60.119646662499996,60.30912006249999,71.0,93.0
96,60.43543566249999,60.65780374999999,73.0,94.0
97,60.75122466249999,60.898592862499996,74.0,97.0
98,61.067013662499996,61.24464497499999,74.0,95.0
99,61.38280266249999,61.55911818749999,74.0,98.0
100,61.69859166249999,61.91964396249999,73.0,92.0
101,62.014380662499995,62.174906737499995,74.0,99.0
102,62.33016966249999,62.515695699999995,81.0,94.0
103,62.64595866249999,62.82753733749999,80.0,99.0
104,62.961747662499995,63.16701051249999,81.0,96.0
105,63.27753666249999,63.61832562499999,80.0,98.0
106,63.909114662499995,64.1091143625,78.0,95.0
107,64.2249036625,65.928848475,76.0,96.0
108,66.75121566249999,66.892004925,76.0,94.0
109,67.0670046625,67.26700436249999,76.0,99.0
110,67.38279366249999,67.56042497499999,86.0,99.0
111,67.69858266249999,67.93147705,85.0,97.0
112,68.0143716625,68.2196345125,83.0,92.0
113,68.33016066249999,69.0854226875,85.0,99.0
114,69.27752766249999,69.59331666249999,85.0,103.0
115,69.9091056625,70.1275263875,83.0,93.0
116,70.22489466249999,70.42226278749999,85.0,98.0
117,70.54068366249999,70.6827887125,88.0,96.0
118,70.8564726625,71.3196298625,88.0,94.0
119,71.8038396625,71.98410254999999,88.0,97.0
120,72.11962866249999,72.33278623749999,88.0,98.0
121,72.43541766249999,72.628838425,86.0,93.0
122,72.7512066625,72.97094317499999,85.0,93.0
123,73.06699566249999,73.249890125,83.0,98.0
124,73.38278466249999,73.8564681625,81.0,96.0
125,74.01436266249999,74.19462555,81.0,87.0
126,74.33015166249999,74.502519825,81.0,94.0
127,74.6459406625,74.83936142499999,81.0,92.0
128,74.96172966249999,75.149887275,80.0,99.0
129,75.27751866249999,75.48409729999999,81.0,93.0
130,75.5933076625,75.823570475,83.0,92.0
131,75.90909666249999,76.41567484999999,85.0,97.0
132,76.85646366249999,77.08277911249999,81.0,93.0
133,77.17225266249999,77.38672602499999,80.0,96.0
134,77.4880416625,77.6354098625,81.0,92.0
135,77.80383066249999,77.99330406249999,80.0,99.0
136,78.11961966249999,78.31567199999999,76.0,99.0
137,78.4354086625,79.15514442499999,78.0,92.0
138,79.3827756625,79.6169858375,78.0,95.0
139,79.69856466249999,79.9577748,90.0,96.0
140,80.01435366249999,80.14593241249999,88.0,98.0
141,80.3301426625,80.52356342499999,88.0,98.0
142,80.64593166249999,81.06961523749999,86.0,99.0
143,81.2775096625,81.87882454999999,85.0,87.0
144,82.54066566249999,82.75119166249999,81.0,92.0
145,82.85645466249998,83.04461227499999,83.0,94.0
146,83.1722436625,83.36829599999999,85.0,99.0
147,83.48803266249999,83.64987452499999,86.0,95.0
148,83.80382166249998,83.98803191249999,85.0,96.0
149,84.1196106625,84.28539988749999,86.0,96.0
150,84.43539966249999,84.607767825,85.0,98.0
151,84.75118866249998,84.976188325,86.0,96.0
152,85.0669776625,85.20381956249999,88.0,95.0
153,85.38276666249999,85.56829269999999,85.0,97.0
154,85.69855566249998,85.907765875,81.0,93.0
155,86.0143446625,86.74329093749999,83.0,94.0
156,86.9617116625,87.14986927499999,76.0,99.0
157,87.27750066249999,87.48934245,76.0,98.0
158,87.59328966249998,87.78144727499999,86.0,97.0
159,87.9090786625,88.11828887499999,85.0,98.0
160,88.22486766249999,88.43539366249999,83.0,93.0
161,88.54065666249998,89.22355037499999,85.0,99.0
162,89.48802366249998,90.00118078749999,85.0,101.0
163,90.11960166249999,90.291969825,83.0,96.0
164,90.43539066249998,90.6406535125,85.0,94.0
165,90.7511796625,91.19460004999999,90.0,99.0
166,91.38275766249998,91.82486226249999,88.0,97.0
167,92.01433566249999,92.19196697499999,88.0,99.0
168,92.33012466249998,92.5353875125,88.0,96.0
169,92.64591366249999,92.80380816249999,86.0,92.0
170,92.96170266249999,93.19591283749999,85.0,99.0
171,93.27749166249998,93.46564927499999,83.0,96.0
172,93.59328066249999,94.15906928749999,81.0,94.0
173,94.22485866249998,94.44459517499999,81.0,92.0
174,94.54064766249999,94.74196314999999,81.0,94.0
175,94.85643666249999,95.13406782499999,81.0,96.0
176,95.17222566249998,95.3932779625,80.0,99.0
177,95.48801466249999,95.64985652499999,81.0,88.0
178,95.80380366249999,96.0314349,83.0,92.0
179,96.11959266249998,96.73538121249999,85.0,96.0
180,97.06695966249998,97.3274855875,81.0,93.0
181,97.38274866249999,97.59195887499999,80.0,98.0
182,97.69853766249999,97.85380058749999,81.0,94.0
183,98.01432666249998,98.20248427499999,80.0,96.0
184,98.33011566249999,98.544589025,76.0,98.0
185,98.64590466249999,99.35511412499999,78.0,93.0
186,99.59327166249999,99.77879769999998,78.0,103.0
187,99.90906066249998,100.13537611249998,90.0,109.0
188,100.22484966249999,100.39721782499998,88.0,93.0
189,100.54063866249999,100.71169103749999,88.0,101.0
190,100.85642766249998,101.34063746249998,86.0,93.0
191,101.48800566249999,102.43010951249998,85.0,101.0
192,102.75116166249998,102.97616132499999,81.0,92.0
193,103.06695066249999,103.25905563749998,83.0,93.0
194,103.38273966249999,103.58405514999998,85.0,99.0
195,103.6985286625,103.88142312499998,86.0,91.0
196,104.01431766249999,104.20247527499998,85.0,94.0
197,104.33010666249999,104.50905376249999,86.0,93.0
198,104.6458956625,104.82879012499998,85.0,93.0
199,104.96168466249999,105.22878952499998,86.0,86.0
200,105.27747366249999,105.43536816249998,88.0,96.0
201,105.5932626625,105.82747283749998,85.0,94.0
202,105.90905166249999,106.10773557499999,81.0,93.0
203,106.22484066249999,106.84457657499999,83.0,93.0
204,107.17220766249999,107.36168106249998,76.0,93.0
205,107.4879966625,107.91299602499998,86.0,94.0
206,108.11957466249999,108.36562692499999,85.0,96.0
207,108.4353636625,108.93273133749999,83.0,92.0
208,109.06694166249999,111.65641146249999,81.0,84.0
209,128.0142816625,128.165597225,69.0,92.0
210,128.3300706625,128.53928087499997,69.0,93.0
211,128.6458596625,128.839280425,71.0,94.0
212,128.96164866249998,129.1800693875,73.0,93.0
213,129.27743766249998,129.44585846249998,73.0,88.0
214,129.59322666249997,129.76164746249998,73.0,87.0
215,129.9090156625,130.0905943375,73.0,96.0
216,130.2248046625,130.407699125,73.0,95.0
217,130.5405936625,130.7169091875,71.0,98.0
218,130.85638266249998,131.065592875,73.0,96.0
219,131.17217166249998,131.3195398625,76.0,96.0
220,131.48796066249997,131.891907425,76.0,94.0
221,132.1195386625,132.3169067875,76.0,93.0
222,132.4353276625,132.81559024999999,71.0,96.0
223,133.06690566249998,133.276115875,76.0,97.0
224,133.38269466249997,133.55901018749998,78.0,94.0
225,133.6984836625,133.902430725,80.0,96.0
226,134.0142726625,134.228746025,80.0,96.0
227,134.3300616625,134.48795616249998,81.0,92.0
228,134.64585066249998,134.80506094999998,81.0,94.0
229,134.96163966249998,135.123481525,81.0,92.0
230,135.27742866249997,135.46032312499997,81.0,96.0
231,135.5932176625,135.76163846249997,73.0,93.0
232,135.9090066625,136.0932169125,73.0,94.0
233,136.2247956625,136.42874272499998,81.0,93.0
234,136.54058466249998,136.84847893749998,80.0,94.0
235,137.17216266249997,137.41821492499997,78.0,96.0
236,137.4879516625,137.84716164999998,76.0,97.0
237,138.11952966249999,138.312950425,76.0,96.0
238,138.43531866249998,138.60110788749998,76.0,101.0
239,138.75110766249998,138.9221600375,76.0,99.0
240,139.06689666249997,139.55242224999998,78.0,94.0
241,139.6984746625,139.9221585375,81.0,93.0
242,140.01426366249999,140.349789475,81.0,94.0
243,140.64584166249998,140.7932098625,69.0,96.0
244,140.96163066249997,141.1563672125,69.0,94.0
245,141.2774196625,141.51031404999998,78.0,92.0
246,141.5932086625,142.02741853749998,76.0,94.0
247,142.22478666249998,142.46294419999998,78.0,96.0
248,142.54057566249998,142.93004876249998,73.0,93.0
249,143.1721536625,143.370837575,69.0,98.0
250,143.4879426625,143.66031082499998,71.0,94.0
251,143.80373166249998,143.99978399999998,73.0,94.0
252,144.11952066249998,144.2826783125,74.0,93.0
253,144.43530966249998,144.607677825,74.0,96.0
254,144.75109866249997,144.94451942499998,74.0,103.0
255,145.0668876625,145.26820314999998,73.0,97.0
256,145.3826766625,145.61688683749998,74.0,98.0
257,145.69846566249998,145.865570675,81.0,92.0
258,146.01425466249998,146.207675425,80.0,97.0
259,146.33004366249997,146.51425391249998,81.0,93.0
260,146.64583266249997,147.13004246249997,80.0,98.0
261,147.2774106625,147.51951556249998,78.0,94.0
262,147.59319966249998,148.0010937875,76.0,99.0
263,148.22477766249997,148.381356375,69.0,88.0
264,148.54056666249997,148.70767167499997,69.0,95.0
265,148.8563556625,149.04056591249997,71.0,93.0
266,149.1721446625,149.39319696249999,73.0,94.0
267,149.48793366249998,149.66030182499998,73.0,94.0
268,149.80372266249998,149.965564525,73.0,93.0
269,150.11951166249997,150.2984587625,73.0,97.0
270,150.4353006625,150.623458275,73.0,97.0
271,150.7510896625,150.918194675,71.0,98.0
272,151.0668786625,151.24450997499997,73.0,96.0
273,151.38266766249998,151.56424633749998,76.0,96.0
274,151.69845666249998,152.12082445,78.0,94.0
275,152.3300346625,152.565560625,76.0,93.0
276,152.6458236625,153.0352967625,71.0,96.0
277,153.27740166249998,153.470822425,76.0,98.0
278,153.59319066249998,153.81292717499997,78.0,98.0
279,153.90897966249997,154.09055833749997,80.0,94.0
280,154.2247686625,154.38003158749999,80.0,98.0
281,154.5405576625,154.707662675,81.0,92.0
282,154.8563466625,155.01555695,81.0,96.0
283,155.17213566249998,155.349766975,81.0,92.0
284,155.48792466249998,155.66818754999997,81.0,94.0
285,155.80371366249997,156.01160808749998,73.0,93.0
286,156.1195026625,156.30371291249998,73.0,98.0
287,156.4352916625,156.61292297499998,81.0,93.0
288,156.7510806625,157.17476423749997,80.0,99.0
289,157.38265866249998,157.56423733749997,78.0,92.0
290,157.69844766249997,158.02607874999998,76.0,94.0
291,158.3300256625,158.46686756249997,76.0,98.0
292,158.6458146625,158.7984460125,76.0,99.0
293,158.96160366249998,159.14318233749998,76.0,97.0
294,159.27739266249998,159.71554989999998,78.0,94.0
295,159.9089706625,160.12344402499997,81.0,93.0
296,160.2247596625,160.53660129999997,81.0,93.0
297,160.85633766249998,161.02870582499997,69.0,92.0
298,161.17212666249998,161.36028427499997,69.0,94.0
299,161.48791566249997,161.71817847499997,78.0,96.0
300,161.8037046625,162.24712505,76.0,94.0
301,162.4352826625,162.65633496249998,78.0,98.0
302,162.75107166249998,163.1510710625,73.0,95.0
303,163.38264966249997,163.6247545625,69.0,86.0
304,163.6984386625,163.8879120625,71.0,93.0
305,164.0142276625,164.23659575,73.0,94.0
306,164.3300166625,164.47738486249997,74.0,97.0
307,164.64580566249998,164.823436975,74.0,95.0
308,164.96159466249998,165.13791018749998,74.0,98.0
309,165.27738366249997,165.49843596249997,73.0,92.0
310,165.5931726625,165.75369873749997,74.0,99.0
311,165.9089616625,166.09448769999997,81.0,94.0
312,166.22475066249999,166.40632933749998,80.0,99.0
313,166.54053966249998,166.74580251249998,81.0,96.0
314,166.85632866249998,167.19711762499998,80.0,98.0
315,167.4879066625,167.68790636249997,78.0,95.0
316,167.8036956625,169.507640475,76.0,96.0
317,170.33000766249998,170.47079692499997,76.0,94.0
318,170.64579666249998,170.84579636249998,76.0,99.0
319,170.96158566249997,171.13921697499998,86.0,99.0
320,171.2773746625,171.51026904999998,85.0,97.0
321,171.5931636625,171.7984265125,83.0,92.0
322,171.90895266249998,172.6642146875,85.0,99.0
323,172.85631966249997,173.1721086625,85.0,103.0
324,173.4878976625,173.70631838749998,83.0,93.0
325,173.80368666249998,174.00105478749998,85.0,98.0
326,174.11947566249998,174.26158071249998,88.0,96.0
327,174.43526466249997,174.8984218625,88.0,94.0
328,175.3826316625,175.56289454999998,88.0,97.0
329,175.69842066249998,175.91157823749998,88.0,98.0
330,176.01420966249998,176.207630425,86.0,93.0
331,176.32999866249997,176.54973517499997,85.0,93.0
332,176.64578766249997,176.82868212499997,83.0,98.0
333,176.9615766625,177.4352601625,81.0,96.0
334,177.59315466249998,177.77341754999998,81.0,87.0
335,177.90894366249998,178.08131182499997,81.0,94.0
336,178.22473266249997,178.41815342499999,81.0,92.0
337,178.54052166249997,178.728679275,80.0,99.0
338,178.8563106625,179.06288929999997,81.0,93.0
339,179.1720996625,179.402362475,83.0,92.0
340,179.48788866249998,179.99446684999998,85.0,97.0
341,180.43525566249997,180.66157111249998,81.0,93.0
342,180.7510446625,180.965518025,80.0,96.0
343,181.0668336625,181.21420186249998,81.0,92.0
344,181.38262266249998,181.57209606249998,80.0,99.0
345,181.69841166249998,181.89446399999997,76.0,99.0
346,182.01420066249997,182.73393642499997,78.0,92.0
347,182.9615676625,183.19577783749997,78.0,95.0
348,183.27735666249998,183.53656679999997,90.0,96.0
349,183.59314566249998,183.72472441249997,88.0,98.0
350,183.90893466249997,184.10235542499998,88.0,98.0
351,184.22472366249997,184.64840723749998,86.0,99.0
352,184.8563016625,185.45761654999998,85.0,87.0
353,186.11945766249997,186.32998366249998,81.0,92.0
354,186.4352466625,186.62340427499998,83.0,94.0
355,186.7510356625,186.94708799999998,85.0,99.0
356,187.06682466249998,187.22866652499997,86.0,95.0
357,187.38261366249998,187.56682391249998,85.0,96.0
358,187.69840266249997,187.86419188749997,86.0,96.0
359,188.01419166249997,188.186559825,85.0,98.0
360,188.3299806625,188.55498032499997,86.0,96.0
361,188.6457696625,188.78261156249997,88.0,95.0
362,188.96155866249998,189.1470847,85.0,97.0
363,189.27734766249998,189.486557875,81.0,93.0
364,189.59313666249997,190.32208293749997,83.0,94.0
365,190.5405036625,190.72866127499998,76.0,99.0
366,190.85629266249998,191.06813444999997,76.0,98.0
367,191.17208166249998,191.36023927499997,86.0,97.0
368,191.48787066249997,191.69708087499998,85.0,98.0
369,191.80365966249997,192.01418566249998,83.0,93.0
370,192.1194486625,192.80234237499997,85.0,99.0
371,193.06681566249998,193.57997278749997,85.0,101.0
372,193.69839366249997,193.870761825,83.0,96.0
373,194.0141826625,194.2194455125,85.0,94.0
374,194.3299716625,194.77339204999998,90.0,99.0
375,194.96154966249998,195.40365426249997,88.0,97.0
376,195.59312766249997,195.77075897499998,88.0,99.0
377,195.9089166625,196.1141795125,88.0,96.0
378,196.22470566249999,196.38260016249998,86.0,92.0
379,196.54049466249998,196.77470483749997,85.0,99.0
380,196.85628366249998,197.04444127499997,83.0,96.0
381,197.17207266249997,197.73786128749998,81.0,94.0
382,197.8036506625,198.02338717499998,81.0,92.0
383,198.11943966249999,198.32075514999997,81.0,94.0
384,198.43522866249998,198.71285982499998,81.0,96.0
385,198.75101766249998,198.97206996249997,80.0,99.0
386,199.06680666249997,199.22864852499998,81.0,88.0
387,199.38259566249997,199.6102269,83.0,92.0
388,199.6983846625,200.31417321249998,85.0,96.0
389,200.64575166249998,200.90627758749997,81.0,93.0
390,200.96154066249997,201.17075087499998,80.0,98.0
391,201.27732966249997,201.43259258749998,81.0,94.0
392,201.5931186625,201.78127627499998,80.0,96.0
393,201.90890766249998,202.123381025,76.0,98.0
394,202.22469666249998,202.93390612499996,78.0,93.0
395,203.17206366249997,203.35758969999998,78.0,103.0
396,203.4878526625,203.71416811249998,90.0,109.0
397,203.80364166249998,203.97600982499998,88.0,93.0
398,204.11943066249998,204.29048303749997,88.0,101.0
399,204.43521966249997,204.91942946249998,86.0,93.0
400,205.06679766249997,206.0089015125,85.0,101.0
401,206.32995366249997,206.55495332499999,81.0,92.0
402,206.64574266249997,206.83784763749998,83.0,93.0
403,206.96153166249997,207.16284714999998,85.0,99.0
404,207.2773206625,207.460215125,86.0,91.0
405,207.59310966249998,207.78126727499998,85.0,94.0
406,207.90889866249998,208.08784576249997,86.0,93.0
407,208.22468766249997,208.40758212499998,85.0,93.0
408,208.54047666249997,208.807581525,86.0,86.0
409,208.85626566249996,209.0141601625,88.0,96.0
410,209.1720546625,209.40626483749998,85.0,94.0
411,209.48784366249998,209.68652757499999,81.0,93.0
412,209.80363266249998,210.42336857499998,83.0,93.0
413,210.75099966249996,210.891788925,76.0,94.0
414,211.0667886625,211.26678836249997,76.0,99.0
415,211.38257766249998,211.56020897499997,86.0,99.0
416,211.69836666249998,211.93126105,85.0,97.0
417,212.01415566249997,212.21941851249997,83.0,92.0
418,212.32994466249997,213.08520668749998,85.0,99.0
419,213.27731166249998,213.59310066249998,85.0,103.0
420,213.90888966249997,214.1273103875,83.0,93.0
421,214.22467866249997,214.42204678749997,85.0,98.0
422,214.54046766249996,214.6825727125,88.0,96.0
423,214.8562566625,215.31941386249997,88.0,94.0
424,215.80362366249997,215.98388654999997,88.0,97.0
425,216.11941266249997,216.33257023749997,88.0,98.0
426,216.43520166249996,216.62862242499997,86.0,93.0
427,216.7509906625,216.97072717499998,85.0,93.0
428,217.06677966249998,217.24967412499998,83.0,98.0
429,217.38256866249998,217.85625216249997,81.0,96.0
430,218.01414666249997,218.19440955,81.0,87.0
431,218.32993566249996,218.50230382499998,81.0,94.0
432,218.6457246625,218.83914542499997,81.0,92.0
433,218.96151366249998,219.14967127499997,80.0,99.0
434,219.27730266249998,219.48388129999998,81.0,93.0
435,219.59309166249997,219.82335447499997,83.0,92.0
436,219.90888066249997,220.41545884999996,85.0,97.0
437,220.85624766249998,221.08256311249997,81.0,93.0
438,221.17203666249998,221.38651002499998,80.0,96.0
439,221.48782566249997,221.6351938625,81.0,92.0
440,221.80361466249997,221.99308806249996,80.0,99.0
441,222.11940366249996,222.31545599999998,76.0,99.0
442,222.4351926625,223.15492842499998,78.0,92.0
443,223.38255966249997,223.6167698375,78.0,95.0
444,223.69834866249997,223.9575588,90.0,96.0
445,224.01413766249996,224.14571641249998,88.0,98.0
446,224.3299266625,224.52334742499997,88.0,98.0
447,224.64571566249998,225.06939923749997,86.0,99.0
448,225.27729366249997,225.87860854999997,85.0,87.0
449,226.54044966249998,226.75097566249997,81.0,92.0
450,226.85623866249998,227.04439627499997,83.0,94.0
451,227.17202766249997,227.36807999999996,85.0,99.0
452,227.48781666249997,227.64965852499998,86.0,95.0
453,227.80360566249996,227.98781591249997,85.0,96.0
454,228.11939466249999,228.28518388749998,86.0,96.0
455,228.43518366249998,228.60755182499997,85.0,98.0
456,228.75097266249998,228.975972325,86.0,96.0
457,229.06676166249997,229.20360356249998,88.0,95.0
458,229.38255066249997,229.56807669999998,85.0,97.0
459,229.69833966249996,229.90754987499997,81.0,93.0
460,230.01412866249999,230.74307493749998,83.0,94.0
461,230.96149566249997,231.14965327499996,76.0,99.0
462,231.27728466249997,231.48912645,76.0,98.0
463,231.59307366249996,231.78123127499998,86.0,97.0
464,231.90886266249998,232.11807287499997,85.0,98.0
465,232.22465166249998,232.43517766249997,83.0,93.0
466,232.54044066249998,233.22333437499998,85.0,99.0
467,233.48780766249996,234.00096478749998,85.0,101.0
468,234.11938566249998,234.29175382499997,83.0,96.0
469,234.43517466249997,234.64043751249997,85.0,94.0
470,234.75096366249997,235.19438404999997,90.0,99.0
471,235.38254166249996,235.82464626249998,88.0,97.0
472,236.01411966249998,236.19175097499996,88.0,99.0
473,236.32990866249997,236.53517151249997,88.0,96.0
474,236.64569766249997,236.80359216249997,86.0,92.0
475,236.96148666249996,237.19569683749998,85.0,99.0
476,237.27727566249996,237.46543327499998,83.0,96.0
477,237.59306466249998,238.15885328749997,81.0,94.0
478,238.22464266249997,238.44437917499997,81.0,92.0
479,238.54043166249997,238.74174714999998,81.0,94.0
480,238.85622066249996,239.13385182499997,81.0,96.0
481,239.17200966249996,239.39306196249998,80.0,99.0
482,239.48779866249998,239.64964052499997,81.0,88.0
483,239.80358766249998,240.03121889999997,83.0,92.0
484,240.11937666249997,240.73516521249996,85.0,96.0
485,241.06674366249996,241.32726958749998,81.0,93.0
486,241.38253266249998,241.59174287499997,80.0,98.0
487,241.69832166249998,241.85358458749997,81.0,94.0
488,242.01411066249997,242.20226827499997,80.0,96.0
489,242.32989966249997,242.54437302499997,76.0,98.0
490,242.64568866249996,243.35489812499998,78.0,93.0
491,243.59305566249998,243.77858169999996,78.0,103.0
492,243.90884466249997,244.13516011249996,90.0,109.0
493,244.22463366249997,244.39700182499996,88.0,93.0
494,244.54042266249996,244.71147503749998,88.0,101.0
495,244.8562116625,245.34042146249996,86.0,93.0
496,245.48778966249998,246.42989351249997,85.0,101.0
497,246.7509456625,246.97594532499997,81.0,92.0
498,247.06673466249998,247.25883963749996,83.0,93.0
499,247.38252366249998,247.58383914999996,85.0,99.0
500,247.69831266249997,247.88120712499997,86.0,91.0
501,248.01410166249997,248.20225927499996,85.0,94.0
502,248.32989066249996,248.50883776249998,86.0,93.0
503,248.6456796625,248.82857412499996,85.0,93.0
504,248.96146866249998,249.22857352499997,86.0,86.0
505,249.27725766249998,249.43515216249997,88.0,96.0
506,249.59304666249997,249.82725683749996,85.0,94.0
507,249.90883566249997,250.10751957499997,81.0,93.0
508,250.22462466249996,250.84436057499997,83.0,93.0
509,251.17199166249998,251.36146506249997,76.0,93.0
510,251.48778066249997,251.91278002499996,86.0,94.0
511,252.11935866249996,252.36541092499996,85.0,96.0
512,252.4351476625,252.93251533749998,83.0,92.0
513,253.06672566249998,255.65619546249997,81.0,84.0
