,start,end,pitch,velocity
0,3.4819409625,3.786107325,65.0,112.0
1,3.8152739625,4.0569403875,63.0,89.0
2,4.148606962500001,4.3347178875,65.0,122.0
3,4.4819399625,4.6402731375,68.0,102.0
4,4.8152729625,5.38332795,70.0,112.0
5,5.815271962500001,5.9694384750000005,68.0,89.0
6,5.9819384625000005,6.1541605125,70.0,90.0
7,6.1486049625,6.3513825375,72.0,97.0
8,6.4819379625,6.6444378,72.0,100.0
9,6.8152709625000005,6.9541597125,72.0,107.0
10,7.1486039625,7.3013815875,68.0,97.0
11,7.481936962500001,7.8208255125,70.0,117.0
12,8.815268962500001,9.091657575000001,63.0,112.0
13,9.1486019625,9.418046137500001,61.0,85.0
14,9.4819349625,9.736101375,63.0,100.0
15,9.8152679625,10.0291566375,65.0,92.0
16,10.1486009625,10.424989575,68.0,99.0
17,10.481933962500001,10.8013780875,65.0,117.0
18,10.8152669625,11.0777667,68.0,100.0
19,11.1485999625,11.441655225,65.0,92.0
20,11.4819329625,11.7402660375,68.0,96.0
21,11.8152659625,11.986099125,70.0,112.0
22,12.148598962500001,12.419432025,72.0,107.0
23,12.481931962500001,12.751376137500001,68.0,95.0
24,12.8152649625,13.533319800000001,65.0,97.0
25,14.148596962500001,14.4069300375,65.0,117.0
26,14.4819299625,14.684707537500001,63.0,86.0
27,14.8152629625,15.0152627625,65.0,99.0
28,15.1485959625,15.308318025,68.0,102.0
29,15.481928962500001,15.7763731125,70.0,112.0
30,16.481927962500002,16.6152611625,68.0,100.0
31,16.6485944625,16.8041498625,70.0,88.0
32,16.815260962500002,16.977760800000002,72.0,92.0
33,17.1485939625,17.3777604,73.0,95.0
34,17.4819269625,17.6958156375,72.0,107.0
35,17.8152599625,18.01664865,68.0,100.0
36,18.1485929625,18.372203850000002,77.0,127.0
37,19.481924962500003,19.6124803875,70.0,112.0
38,19.815257962500002,19.954146712500002,68.0,97.0
39,20.148590962500002,20.2777575,70.0,117.0
40,20.4819239625,20.619423825000002,77.0,88.0
41,20.8152569625,20.9374790625,70.0,100.0
42,21.1485899625,21.29442315,68.0,100.0
43,21.4819229625,21.6402561375,70.0,127.0
44,21.8152559625,21.9902557875,77.0,117.0
45,22.1485889625,22.30553325,75.0,117.0
46,22.4819219625,22.684699537500002,72.0,117.0
47,22.815254962500003,23.0430325125,68.0,97.0
48,23.148587962500002,23.255532300000002,70.0,100.0
49,23.481920962500002,24.473586637500002,70.0,122.0
50,24.8152529625,25.0555305,70.0,99.0
51,25.1485859625,25.3124746875,77.0,96.0
52,25.4819189625,25.669418775,70.0,100.0
53,25.8152519625,25.969418475,77.0,100.0
54,26.148584962500003,26.436084675,70.0,107.0
55,27.148583962500002,27.29441715,75.0,127.0
56,27.3152504625,27.4958058375,73.0,90.0
57,27.4819169625,27.6346945875,75.0,100.0
58,27.8152499625,28.1235829875,73.0,122.0
59,28.1485829625,28.3485827625,72.0,100.0
60,28.4819159625,28.774971225,68.0,99.0
61,28.8152489625,29.251359637500002,65.0,96.0
62,30.148580962500002,30.3319141125,75.0,122.0
63,30.481913962500002,30.630524925000003,75.0,122.0
64,30.8152469625,30.974969025,75.0,127.0
65,31.1485799625,31.259690962500002,73.0,112.0
66,31.315246462500003,31.6763572125,77.0,117.0
67,31.8152459625,32.122190100000005,75.0,127.0
68,32.148578962500004,32.3763565125,75.0,112.0
69,32.4819119625,32.788856100000004,68.0,96.0
70,32.8152449625,33.052744725000004,72.0,102.0
71,33.1485779625,33.4235776875,65.0,102.0
72,33.4819109625,33.766632900000005,68.0,107.0
73,33.8152439625,33.9457993875,70.0,102.0
74,34.1485769625,35.3291313375,70.0,122.0
75,35.4819089625,35.7430198125,70.0,100.0
76,35.815241962500004,36.013852875000005,77.0,100.0
77,36.1485749625,36.424963575,70.0,100.0
78,36.4819079625,36.6513522375,77.0,107.0
79,36.8152409625,37.1680183875,70.0,107.0
80,37.8152399625,37.9777398,75.0,127.0
81,37.9819064625,38.130517425,73.0,97.0
82,38.148572962500005,38.3569060875,75.0,122.0
83,38.4819059625,38.6846835375,73.0,127.0
84,38.815238962500004,39.047183175,72.0,112.0
85,39.1485719625,39.4332939,68.0,107.0
86,39.4819049625,39.8221824,65.0,100.0
87,40.8152369625,40.9569034875,75.0,127.0
88,41.148569962500005,41.274958725000005,75.0,127.0
89,41.4819029625,41.60551395,75.0,127.0
90,41.815235962500005,41.924958075,73.0,122.0
91,42.1485689625,42.3485687625,77.0,117.0
92,42.481901962500004,42.5624574375,75.0,127.0
93,42.6485684625,42.913845975,75.0,122.0
94,43.1485679625,43.4263454625,73.0,127.0
95,43.4819009625,43.749956250000004,72.0,127.0
96,43.8152339625,44.101344787500004,65.0,112.0
97,44.1485669625,44.4180111375,68.0,100.0
98,44.4818999625,44.5457887875,70.0,99.0
99,44.815232962500005,45.4263434625,70.0,117.0
100,56.8152209625,57.119387325000005,65.0,112.0
101,57.1485539625,57.3902203875,63.0,89.0
102,57.4818869625,57.6679978875,65.0,122.0
103,57.8152199625,57.973553137500005,68.0,102.0
104,58.148552962500005,58.716607950000004,70.0,112.0
105,59.1485519625,59.302718475000006,68.0,89.0
106,59.315218462500006,59.4874405125,70.0,90.0
107,59.481884962500004,59.6846625375,72.0,97.0
108,59.8152179625,59.9777178,72.0,100.0
109,60.1485509625,60.2874397125,72.0,107.0
110,60.4818839625,60.634661587500005,68.0,97.0
111,60.8152169625,61.1541055125,70.0,117.0
112,62.1485489625,62.424937575,63.0,112.0
113,62.481881962500005,62.7513261375,61.0,85.0
114,62.8152149625,63.069381375000006,63.0,100.0
115,63.148547962500004,63.362436637500004,65.0,92.0
116,63.4818809625,63.758269575,68.0,99.0
117,63.8152139625,64.1346580875,65.0,117.0
118,64.1485469625,64.4110467,68.0,100.0
119,64.4818799625,64.77493522500001,65.0,92.0
120,64.8152129625,65.07354603750001,68.0,96.0
121,65.14854596250001,65.319379125,70.0,112.0
122,65.4818789625,65.75271202500001,72.0,107.0
123,65.8152119625,66.0846561375,68.0,95.0
124,66.1485449625,66.8665998,65.0,97.0
125,67.4818769625,67.7402100375,65.0,117.0
126,67.8152099625,68.0179875375,63.0,86.0
127,68.1485429625,68.3485427625,65.0,99.0
128,68.4818759625,68.64159802500001,68.0,102.0
129,68.81520896250001,69.1096531125,70.0,112.0
130,69.8152079625,69.9485411625,68.0,100.0
131,69.9818744625,70.1374298625,70.0,88.0
132,70.14854096250001,70.3110408,72.0,92.0
133,70.4818739625,70.7110404,73.0,95.0
134,70.8152069625,71.0290956375,72.0,107.0
135,71.14853996250001,71.34992865000001,68.0,100.0
136,71.4818729625,71.70548385000001,77.0,127.0
137,72.8152049625,72.9457603875,70.0,112.0
138,73.1485379625,73.28742671250001,68.0,97.0
139,73.4818709625,73.61103750000001,70.0,117.0
140,73.81520396250001,73.952703825,77.0,88.0
141,74.1485369625,74.2707590625,70.0,100.0
142,74.4818699625,74.62770315,68.0,100.0
143,74.81520296250001,74.9735361375,70.0,127.0
144,75.1485359625,75.3235357875,77.0,117.0
145,75.4818689625,75.63881325,75.0,117.0
146,75.8152019625,76.0179795375,72.0,117.0
147,76.14853496250001,76.37631251250001,68.0,97.0
148,76.4818679625,76.5888123,70.0,100.0
149,76.8152009625,77.80686663750001,70.0,122.0
150,78.1485329625,78.3888105,70.0,99.0
151,78.48186596250001,78.6457546875,77.0,96.0
152,78.8151989625,79.002698775,70.0,100.0
153,79.1485319625,79.302698475,77.0,100.0
154,79.4818649625,79.769364675,70.0,107.0
155,80.4818639625,80.62769715,75.0,127.0
156,80.6485304625,80.8290858375,73.0,90.0
157,80.81519696250001,80.96797458750001,75.0,100.0
158,81.1485299625,81.4568629875,73.0,122.0
159,81.4818629625,81.6818627625,72.0,100.0
160,81.8151959625,82.108251225,68.0,99.0
161,82.14852896250001,82.5846396375,65.0,96.0
162,83.48186096250001,83.6651941125,75.0,122.0
163,83.8151939625,83.963804925,75.0,122.0
164,84.1485269625,84.30824902500001,75.0,127.0
165,84.48185996250001,84.5929709625,73.0,112.0
166,84.6485264625,85.00963721250001,77.0,117.0
167,85.1485259625,85.4554701,75.0,127.0
168,85.4818589625,85.7096365125,75.0,112.0
169,85.81519196250001,86.1221361,68.0,96.0
170,86.1485249625,86.386024725,72.0,102.0
171,86.4818579625,86.7568576875,65.0,102.0
172,86.8151909625,87.0999129,68.0,107.0
173,87.14852396250001,87.2790793875,70.0,102.0
174,87.4818569625,88.6624113375,70.0,122.0
175,88.8151889625,89.07629981250001,70.0,100.0
176,89.1485219625,89.347132875,77.0,100.0
177,89.48185496250001,89.75824357500001,70.0,100.0
178,89.8151879625,89.98463223750001,77.0,107.0
179,90.1485209625,90.5012983875,70.0,107.0
180,91.1485199625,91.31101980000001,75.0,127.0
181,91.31518646250001,91.46379742500001,73.0,97.0
182,91.4818529625,91.69018608750001,75.0,122.0
183,91.81518596250001,92.01796353750001,73.0,127.0
184,92.1485189625,92.380463175,72.0,112.0
185,92.4818519625,92.7665739,68.0,107.0
186,92.8151849625,93.1554624,65.0,100.0
187,94.14851696250001,94.2901834875,75.0,127.0
188,94.48184996250001,94.608238725,75.0,127.0
189,94.8151829625,94.93879395,75.0,127.0
190,95.1485159625,95.25823807500001,73.0,122.0
191,95.48184896250001,95.68184876250001,77.0,117.0
192,95.8151819625,95.8957374375,75.0,127.0
193,95.98184846250001,96.247125975,75.0,122.0
194,96.4818479625,96.7596254625,73.0,127.0
195,96.81518096250001,97.08323625,72.0,127.0
196,97.1485139625,97.4346247875,65.0,112.0
197,97.4818469625,97.7512911375,68.0,100.0
198,97.81517996250001,97.8790687875,70.0,99.0
199,98.1485129625,98.7596234625,70.0,117.0
200,99.4818449625,99.7221225,70.0,99.0
201,99.8151779625,99.97906668750001,77.0,96.0
202,100.1485109625,100.336010775,70.0,100.0
203,100.48184396250001,100.636010475,77.0,100.0
204,100.8151769625,101.102676675,70.0,107.0
205,101.8151759625,101.96100915000001,75.0,127.0
206,101.9818424625,102.16239783750001,73.0,90.0
207,102.1485089625,102.3012865875,75.0,100.0
208,102.4818419625,102.79017498750001,73.0,122.0
209,102.81517496250001,103.01517476250001,72.0,100.0
210,103.1485079625,103.44156322500001,68.0,99.0
211,103.4818409625,103.91795163750001,65.0,96.0
212,104.8151729625,104.99850611250001,75.0,122.0
213,105.14850596250001,105.29711692500001,75.0,122.0
214,105.4818389625,105.641561025,75.0,127.0
215,105.8151719625,105.92628296250001,73.0,112.0
216,105.98183846250001,106.3429492125,77.0,117.0
217,106.48183796250001,106.7887821,75.0,127.0
218,106.8151709625,107.0429485125,75.0,112.0
219,107.1485039625,107.4554481,68.0,96.0
220,107.48183696250001,107.719336725,72.0,102.0
221,107.81516996250001,108.09016968750001,65.0,102.0
222,108.1485029625,108.4332249,68.0,107.0
223,108.4818359625,108.61239138750001,70.0,102.0
224,108.81516896250001,109.99572333750001,70.0,122.0
225,110.14850096250001,110.4096118125,70.0,100.0
226,110.4818339625,110.680444875,77.0,100.0
227,110.8151669625,111.091555575,70.0,100.0
228,111.14849996250001,111.3179442375,77.0,107.0
229,111.48183296250001,111.8346103875,70.0,107.0
230,112.48183196250001,112.6443318,75.0,127.0
231,112.6484984625,112.797109425,73.0,97.0
232,112.8151649625,113.0234980875,75.0,122.0
233,113.1484979625,113.3512755375,73.0,127.0
234,113.4818309625,113.71377517500001,72.0,112.0
235,113.81516396250001,114.0998859,68.0,107.0
236,114.1484969625,114.48877440000001,65.0,100.0
237,115.4818289625,115.62349548750001,75.0,127.0
238,115.8151619625,115.941550725,75.0,127.0
239,116.14849496250001,116.27210595000001,75.0,127.0
240,116.4818279625,116.591550075,73.0,122.0
241,116.8151609625,117.0151607625,77.0,117.0
242,117.1484939625,117.22904943750001,75.0,127.0
243,117.3151604625,117.58043797500001,75.0,122.0
244,117.8151599625,118.0929374625,73.0,127.0
245,118.1484929625,118.41654825,72.0,127.0
246,118.48182596250001,118.7679367875,65.0,112.0
247,118.8151589625,119.08460313750001,68.0,100.0
248,119.1484919625,119.21238078750001,70.0,99.0
249,119.4818249625,120.09293546250001,70.0,117.0
250,144.8151329625,145.0554105,70.0,99.0
251,145.1484659625,145.3123546875,77.0,96.0
252,145.4817989625,145.66929877500002,70.0,100.0
253,145.8151319625,145.96929847500002,77.0,100.0
254,146.14846496250001,146.435964675,70.0,107.0
255,147.14846396250002,147.29429715,75.0,127.0
256,147.3151304625,147.49568583750002,73.0,90.0
257,147.4817969625,147.6345745875,75.0,100.0
258,147.8151299625,148.1234629875,73.0,122.0
259,148.14846296250002,148.34846276250002,72.0,100.0
260,148.4817959625,148.77485122500002,68.0,99.0
261,148.8151289625,149.25123963750002,65.0,96.0
262,150.1484609625,150.3317941125,75.0,122.0
263,150.4817939625,150.630404925,75.0,122.0
264,150.81512696250002,150.974849025,75.0,127.0
265,151.1484599625,151.2595709625,73.0,112.0
266,151.31512646250002,151.6762372125,77.0,117.0
267,151.81512596250002,152.1220701,75.0,127.0
268,152.1484589625,152.37623651250001,75.0,112.0
269,152.4817919625,152.7887361,68.0,96.0
270,152.8151249625,153.05262472500002,72.0,102.0
271,153.1484579625,153.42345768750002,65.0,102.0
272,153.4817909625,153.7665129,68.0,107.0
273,153.8151239625,153.9456793875,70.0,102.0
274,154.1484569625,155.32901133750002,70.0,122.0
275,155.48178896250002,155.7428998125,70.0,100.0
276,155.8151219625,156.01373287500002,77.0,100.0
277,156.1484549625,156.424843575,70.0,100.0
278,156.4817879625,156.6512322375,77.0,107.0
279,156.8151209625,157.1678983875,70.0,107.0
280,157.8151199625,157.9776198,75.0,127.0
281,157.9817864625,158.130397425,73.0,97.0
282,158.14845296250002,158.3567860875,75.0,122.0
283,158.4817859625,158.6845635375,73.0,127.0
284,158.8151189625,159.047063175,72.0,112.0
285,159.14845196250002,159.4331739,68.0,107.0
286,159.4817849625,159.8220624,65.0,100.0
287,160.8151169625,160.95678348750002,75.0,127.0
288,161.1484499625,161.274838725,75.0,127.0
289,161.4817829625,161.60539395,75.0,127.0
290,161.81511596250002,161.924838075,73.0,122.0
291,162.1484489625,162.3484487625,77.0,117.0
292,162.4817819625,162.56233743750002,75.0,127.0
293,162.6484484625,162.913725975,75.0,122.0
294,163.1484479625,163.4262254625,73.0,127.0
295,163.4817809625,163.74983625000002,72.0,127.0
296,163.81511396250002,164.1012247875,65.0,112.0
297,164.1484469625,164.41789113750002,68.0,100.0
298,164.4817799625,164.5456687875,70.0,99.0
299,164.8151129625,165.42622346250002,70.0,117.0
300,166.1484449625,166.3887225,71.0,99.0
301,166.48177796250002,166.6456666875,78.0,96.0
302,166.8151109625,167.002610775,71.0,100.0
303,167.1484439625,167.302610475,78.0,100.0
304,167.48177696250002,167.76927667500001,71.0,107.0
305,168.4817759625,168.62760915,76.0,127.0
306,168.64844246250001,168.8289978375,74.0,90.0
307,168.8151089625,168.9678865875,76.0,100.0
308,169.14844196250002,169.4567749875,74.0,122.0
309,169.4817749625,169.6817747625,73.0,100.0
310,169.8151079625,170.108163225,69.0,99.0
311,170.14844096250002,170.5845516375,66.0,96.0
312,171.4817729625,171.6651061125,76.0,122.0
313,171.8151059625,171.963716925,76.0,122.0
314,172.1484389625,172.308161025,76.0,127.0
315,172.4817719625,172.5928829625,74.0,112.0
316,172.6484384625,173.00954921250002,78.0,117.0
317,173.1484379625,173.4553821,76.0,127.0
318,173.4817709625,173.70954851250002,76.0,112.0
319,173.81510396250002,174.1220481,69.0,96.0
320,174.1484369625,174.38593672500002,73.0,102.0
321,174.4817699625,174.7567696875,66.0,102.0
322,174.81510296250002,175.09982490000002,69.0,107.0
323,175.1484359625,175.2789913875,71.0,102.0
324,175.4817689625,176.6623233375,71.0,122.0
325,176.8151009625,177.07621181250002,71.0,100.0
326,177.1484339625,177.347044875,78.0,100.0
327,177.48176696250002,177.75815557500002,71.0,100.0
328,177.8150999625,177.98454423750002,78.0,107.0
329,178.1484329625,178.5012103875,71.0,107.0
330,179.1484319625,179.31093180000002,76.0,127.0
331,179.3150984625,179.46370942500002,74.0,97.0
332,179.4817649625,179.69009808750002,76.0,122.0
333,179.8150979625,180.0178755375,74.0,127.0
334,180.14843096250002,180.380375175,73.0,112.0
335,180.4817639625,180.76648590000002,69.0,107.0
336,180.8150969625,181.1553744,66.0,100.0
337,182.14842896250002,182.2900954875,76.0,127.0
338,182.4817619625,182.608150725,76.0,127.0
339,182.8150949625,182.93870595,76.0,127.0
340,183.1484279625,183.258150075,74.0,122.0
341,183.4817609625,183.6817607625,78.0,117.0
342,183.81509396250001,183.8956494375,76.0,127.0
343,183.9817604625,184.247037975,76.0,122.0
344,184.4817599625,184.75953746250002,74.0,127.0
345,184.81509296250002,185.08314825000002,73.0,127.0
346,185.1484259625,185.4345367875,66.0,112.0
347,185.4817589625,185.7512031375,69.0,100.0
348,185.81509196250002,185.8789807875,71.0,99.0
349,186.1484249625,186.7595354625,71.0,117.0
350,187.48175696250001,187.62342348750002,76.0,127.0
351,187.8150899625,187.941478725,76.0,127.0
352,188.1484229625,188.27203395,76.0,127.0
353,188.48175596250002,188.591478075,74.0,122.0
354,188.8150889625,189.0150887625,78.0,117.0
355,189.1484219625,189.22897743750002,76.0,127.0
356,189.3150884625,189.580365975,76.0,122.0
357,189.8150879625,190.09286546250001,74.0,127.0
358,190.1484209625,190.41647625000002,73.0,127.0
359,190.48175396250002,191.69564163750002,66.0,112.0
360,192.14841896250002,192.252585525,69.0,122.0
361,192.4817519625,192.8123071875,74.0,122.0
362,192.8150849625,194.50674993750002,71.0,127.0
