,start,end,pitch,velocity
0,3.8152739625,3.9124960875,58.0,88.0
1,3.8152739625,3.9180516375,61.0,77.0
2,3.8152739625,3.936107175,65.0,76.0
3,3.4819409625,3.9736071375,46.0,88.0
4,4.4819399625,4.536106575,56.0,73.0
5,4.4819399625,4.5569398875000005,58.0,75.0
6,4.4819399625,4.563884325,61.0,82.0
7,4.4819399625,4.57221765,65.0,75.0
8,4.148606962500001,4.591662075,53.0,58.0
9,5.1486059625000005,5.2208281125000005,58.0,82.0
10,5.1486059625000005,5.2208281125000005,61.0,90.0
11,5.1486059625000005,5.2291614375,65.0,79.0
12,4.8152729625,5.3236057875,46.0,71.0
13,5.4819389625,5.7958275375,53.0,63.0
14,5.815271962500001,5.8819385625,61.0,97.0
15,5.815271962500001,5.8861052250000006,58.0,92.0
16,5.815271962500001,5.891660775,65.0,86.0
17,6.4819379625,6.5374934625000005,60.0,95.0
18,6.4819379625,6.5430490125,56.0,89.0
19,6.4819379625,6.5444379,63.0,97.0
20,6.1486049625,6.624993375,44.0,81.0
21,7.1486039625,7.222215,56.0,92.0
22,7.1486039625,7.227770550000001,60.0,95.0
23,7.1486039625,7.2430483125,63.0,89.0
24,6.8152709625000005,7.2541594125,51.0,62.0
25,7.8152699625,7.863881025,58.0,97.0
26,7.8152699625,7.8708254625,61.0,100.0
27,7.8152699625,7.8736032375,65.0,95.0
28,7.481936962500001,7.930547625,46.0,74.0
29,8.1486029625,8.463880425000001,53.0,55.0
30,8.4819359625,8.5430470125,61.0,96.0
31,8.4819359625,8.548602562500001,65.0,93.0
32,8.4819359625,8.555547,58.0,95.0
33,8.6486024625,8.695824637500001,58.0,52.0
34,8.6486024625,8.7097135125,61.0,69.0
35,8.6486024625,8.713880175,65.0,63.0
36,9.1486019625,9.2180463375,66.0,79.0
37,9.1486019625,9.224990775,63.0,92.0
38,9.1486019625,9.2333241,58.0,77.0
39,8.815268962500001,9.41665725,39.0,60.0
40,9.8152679625,9.908323425,66.0,83.0
41,9.8152679625,9.9097123125,58.0,88.0
42,9.8152679625,9.9124900875,63.0,97.0
43,9.4819349625,9.94999005,51.0,58.0
44,10.481933962500001,10.54998945,66.0,88.0
45,10.481933962500001,10.558322775,63.0,99.0
46,10.481933962500001,10.56110055,58.0,92.0
47,10.1486009625,10.7069337375,39.0,55.0
48,10.8152669625,11.16109995,51.0,66.0
49,11.1485999625,11.22776655,66.0,90.0
50,11.1485999625,11.2347109875,63.0,107.0
51,11.1485999625,11.236099875,58.0,97.0
52,11.8152659625,11.8999881,56.0,82.0
53,11.8152659625,11.9013769875,60.0,92.0
54,11.8152659625,11.9110992,63.0,89.0
55,11.4819329625,12.1430434125,44.0,61.0
56,12.148598962500001,12.412487587500001,51.0,60.0
57,12.481931962500001,12.60554295,56.0,89.0
58,12.481931962500001,12.60554295,60.0,89.0
59,12.481931962500001,12.658320675,63.0,90.0
60,12.8152649625,13.454153212500001,37.0,78.0
61,13.1485979625,13.526375362500001,56.0,96.0
62,13.4819309625,13.9110972,49.0,71.0
63,13.4819309625,14.079152587500001,61.0,92.0
64,13.815263962500001,14.0985970125,56.0,97.0
65,13.4819309625,14.10554145,65.0,93.0
66,14.148596962500001,14.522207700000001,46.0,74.0
67,14.4819299625,14.549985450000001,61.0,95.0
68,14.4819299625,14.5541521125,65.0,92.0
69,14.4819299625,14.562485437500001,58.0,92.0
70,15.1485959625,15.224984775000001,61.0,88.0
71,15.1485959625,15.230540325000002,65.0,82.0
72,15.1485959625,15.23887365,58.0,85.0
73,14.8152629625,15.258318075,53.0,63.0
74,15.815261962500001,15.88331745,61.0,86.0
75,15.815261962500001,15.88331745,65.0,82.0
76,15.815261962500001,15.891650775,58.0,89.0
77,15.481928962500001,15.986095125,46.0,73.0
78,16.481927962500002,16.588872300000002,61.0,86.0
79,16.481927962500002,16.594427850000002,58.0,88.0
80,16.481927962500002,16.606927837500002,65.0,79.0
81,16.148594962500002,16.62776115,53.0,76.0
82,17.1485939625,17.2319272125,60.0,86.0
83,17.1485939625,17.2374827625,56.0,86.0
84,17.1485939625,17.2402605375,63.0,83.0
85,16.815260962500002,17.3930381625,44.0,77.0
86,17.8152599625,17.9208154125,56.0,82.0
87,17.8152599625,17.924982075,60.0,86.0
88,17.8152599625,17.9555376,63.0,85.0
89,17.4819269625,17.9985931125,51.0,81.0
90,18.4819259625,18.5777592,61.0,76.0
91,18.4819259625,18.5874814125,65.0,77.0
92,18.4819259625,18.5888703,58.0,72.0
93,18.1485929625,18.7902589875,46.0,71.0
94,18.8152589625,19.143036412500003,53.0,77.0
95,19.1485919625,19.2652585125,61.0,92.0
96,19.1485919625,19.2708140625,58.0,90.0
97,19.1485919625,19.2847029375,65.0,86.0
98,19.815257962500002,19.8958134375,63.0,89.0
99,19.815257962500002,19.9124800875,58.0,89.0
100,19.815257962500002,19.913868975,66.0,76.0
101,19.481924962500003,19.9777578,39.0,75.0
102,20.148590962500002,20.568034987500003,51.0,66.0
103,20.4819239625,20.58331275,63.0,89.0
104,20.4819239625,20.5958127375,66.0,83.0
105,20.4819239625,20.5985905125,58.0,90.0
106,21.1485899625,21.240256537500002,63.0,93.0
107,21.1485899625,21.2513676375,58.0,83.0
108,21.1485899625,21.2541454125,66.0,86.0
109,20.8152569625,21.404145262500002,39.0,73.0
110,21.8152559625,21.9041447625,63.0,93.0
111,21.8152559625,21.9152558625,66.0,82.0
112,21.8152559625,21.9319225125,58.0,93.0
113,21.4819229625,21.955533600000003,46.0,69.0
114,22.4819219625,22.570810762500003,60.0,79.0
115,22.4819219625,22.583310750000003,63.0,77.0
116,22.4819219625,22.586088525,56.0,75.0
117,22.1485889625,22.686088425,44.0,67.0
118,23.148587962500002,23.2458100875,56.0,88.0
119,23.148587962500002,23.248587862500003,60.0,86.0
120,23.148587962500002,23.2652545125,63.0,83.0
121,22.815254962500003,23.293032262500002,51.0,54.0
122,23.8152539625,23.897198325,61.0,96.0
123,23.8152539625,23.9124760875,58.0,85.0
124,23.8152539625,23.913864975000003,65.0,86.0
125,23.481920962500002,24.0999759,46.0,72.0
126,24.4819199625,24.561086550000002,61.0,97.0
127,24.4819199625,24.569419875,65.0,88.0
128,24.4819199625,24.5708087625,58.0,93.0
129,24.1485869625,24.61664205,53.0,68.0
130,25.1485859625,25.2041414625,61.0,100.0
131,25.1485859625,25.220808112500002,65.0,92.0
132,25.1485859625,25.22775255,58.0,93.0
133,24.8152529625,25.324974675,46.0,73.0
134,25.8152519625,25.861085250000002,61.0,127.0
135,25.8152519625,25.874974125,58.0,107.0
136,25.8152519625,25.880529675000002,65.0,99.0
137,25.4819189625,25.973585137500002,53.0,99.0
138,25.9819184625,26.0541406125,58.0,89.0
139,25.9819184625,26.0541406125,61.0,95.0
140,25.9819184625,26.069418375,65.0,83.0
141,26.481917962500003,26.563862325000002,61.0,100.0
142,26.481917962500003,26.5666401,58.0,100.0
143,26.481917962500003,26.5666401,65.0,92.0
144,26.148584962500003,26.733306600000002,46.0,83.0
145,26.6485844625,26.7444177,58.0,77.0
146,26.6485844625,26.7444177,61.0,85.0
147,26.6485844625,26.758306575000002,65.0,86.0
148,26.815250962500002,27.1208062125,53.0,97.0
149,27.148583962500002,27.241639425000002,61.0,96.0
150,27.148583962500002,27.2555283,58.0,100.0
151,27.148583962500002,27.266639400000003,65.0,88.0
152,27.8152499625,27.8846943375,60.0,102.0
153,27.8152499625,27.8902498875,56.0,92.0
154,27.8152499625,27.891638775,63.0,97.0
155,27.981916462500003,28.0624719375,56.0,73.0
156,27.981916462500003,28.083305250000002,60.0,89.0
157,27.981916462500003,28.09441635,63.0,83.0
158,27.4819169625,28.124971875,44.0,95.0
159,28.4819159625,28.5430270125,60.0,92.0
160,28.4819159625,28.555527,56.0,89.0
161,28.4819159625,28.559693662500003,63.0,93.0
162,28.1485829625,28.636082475000002,51.0,89.0
163,28.648582462500002,28.7458045875,56.0,67.0
164,28.648582462500002,28.747193475,60.0,82.0
165,28.648582462500002,28.748582362500002,63.0,72.0
166,29.1485819625,29.206915237500002,61.0,100.0
167,29.1485819625,29.21663745,65.0,88.0
168,29.1485819625,29.2208041125,58.0,90.0
169,29.3152484625,29.40552615,61.0,85.0
170,29.3152484625,29.4124705875,65.0,77.0
171,29.3152484625,29.4152483625,58.0,76.0
172,28.8152489625,29.4666372,46.0,79.0
173,29.6485814625,29.7180258375,61.0,100.0
174,29.6485814625,29.7319147125,58.0,93.0
175,29.6485814625,29.733303600000003,65.0,92.0
176,29.481914962500003,29.802747975000003,53.0,71.0
177,29.815247962500003,29.927747850000003,61.0,93.0
178,29.815247962500003,29.940247837500003,58.0,85.0
179,29.815247962500003,29.94997005,65.0,81.0
180,30.481913962500002,30.5541361125,66.0,90.0
181,30.481913962500002,30.555525000000003,63.0,99.0
182,30.481913962500002,30.562469437500003,58.0,86.0
183,30.148580962500002,30.688858200000002,39.0,78.0
184,30.6485804625,30.751358137500002,58.0,88.0
185,30.6485804625,30.756913687500003,63.0,95.0
186,30.6485804625,30.76108035,66.0,89.0
187,31.1485799625,31.2513576375,63.0,99.0
188,31.1485799625,31.252746525000003,66.0,93.0
189,31.1485799625,31.2555243,58.0,90.0
190,30.8152469625,31.259690962500002,51.0,67.0
191,31.8152459625,31.880523675000003,63.0,100.0
192,31.8152459625,31.88330145,66.0,90.0
193,31.8152459625,31.886079225000003,58.0,86.0
194,31.981912462500002,32.0930234625,66.0,89.0
195,31.981912462500002,32.097190125000004,58.0,88.0
196,31.981912462500002,32.097190125000004,63.0,97.0
197,31.4819129625,32.1152456625,39.0,71.0
198,32.3152454625,32.387467612500004,63.0,88.0
199,32.3152454625,32.391634275,58.0,79.0
200,32.3152454625,32.3958009375,66.0,79.0
201,32.148578962500004,32.4666342,46.0,85.0
202,32.4819119625,32.580522975,58.0,92.0
203,32.4819119625,32.591634075,63.0,100.0
204,32.4819119625,32.5930229625,66.0,90.0
205,33.1485779625,33.1999668,60.0,97.0
206,33.1485779625,33.2124667875,63.0,88.0
207,33.1485779625,33.21663345,56.0,92.0
208,33.315244462500004,33.4096888125,60.0,95.0
209,33.315244462500004,33.4110777,63.0,83.0
210,33.315244462500004,33.4207999125,56.0,81.0
211,32.8152449625,33.447188775,44.0,72.0
212,33.8152439625,33.879132787500005,60.0,90.0
213,33.8152439625,33.89441055,56.0,86.0
214,33.8152439625,33.89441055,63.0,92.0
215,33.4819109625,34.041632625,51.0,74.0
216,34.481909962500005,34.530521025,61.0,107.0
217,34.481909962500005,34.552743225,65.0,96.0
218,34.481909962500005,34.563854325,58.0,96.0
219,34.6485764625,34.7444097,61.0,93.0
220,34.6485764625,34.74996525,58.0,77.0
221,34.6485764625,34.752743025,65.0,79.0
222,34.1485769625,34.7763541125,46.0,72.0
223,34.9819094625,35.03885385,61.0,97.0
224,34.9819094625,35.0652427125,58.0,90.0
225,34.9819094625,35.074964925,65.0,93.0
226,35.148575962500004,35.219409225,61.0,100.0
227,35.148575962500004,35.230520325,58.0,79.0
228,35.148575962500004,35.2332981,65.0,77.0
229,35.3152424625,35.402742375,61.0,96.0
230,35.3152424625,35.412464587500004,58.0,85.0
231,35.3152424625,35.4180201375,65.0,83.0
232,34.8152429625,35.423575687500005,53.0,69.0
233,35.815241962500004,35.8666308,61.0,97.0
234,35.815241962500004,35.88329745,58.0,86.0
235,35.815241962500004,35.8957974375,65.0,86.0
236,35.9819084625,36.06107505,61.0,96.0
237,35.9819084625,36.07218615,65.0,79.0
238,35.9819084625,36.074963925,58.0,88.0
239,35.4819089625,36.1374638625,46.0,83.0
240,36.4819079625,36.530519025000004,61.0,85.0
241,36.4819079625,36.558296775,58.0,85.0
242,36.4819079625,36.56107455,65.0,79.0
243,36.1485749625,36.777741,53.0,85.0
244,37.1485739625,37.195796137500004,61.0,102.0
245,37.1485739625,37.208296125000004,58.0,88.0
246,37.1485739625,37.208296125000004,65.0,93.0
247,37.3152404625,37.413851475,61.0,90.0
248,37.3152404625,37.424962575,58.0,79.0
249,37.3152404625,37.4291292375,65.0,79.0
250,36.8152409625,37.4569069875,46.0,77.0
251,37.4819069625,37.672184550000004,53.0,82.0
252,37.6485734625,37.71662895,61.0,97.0
253,37.6485734625,37.719406725,65.0,90.0
254,37.6485734625,37.7291289375,58.0,86.0
255,37.8152399625,37.9069065375,61.0,95.0
256,37.8152399625,37.924962075,65.0,90.0
257,37.8152399625,37.936073175000004,58.0,88.0
258,38.4819059625,38.551350337500004,60.0,93.0
259,38.4819059625,38.5666281,63.0,88.0
260,38.4819059625,38.5777392,56.0,88.0
261,38.6485724625,38.736072375,60.0,76.0
262,38.6485724625,38.7457945875,56.0,72.0
263,38.6485724625,38.769405675,63.0,73.0
264,38.148572962500005,38.7791278875,44.0,66.0
265,39.1485719625,39.219405225,60.0,99.0
266,39.1485719625,39.236071875,63.0,92.0
267,39.1485719625,39.2444052,56.0,96.0
268,38.815238962500004,39.305516250000004,51.0,97.0
269,39.8152379625,39.870793462500004,61.0,90.0
270,39.8152379625,39.881904562500004,58.0,86.0
271,39.8152379625,39.888849,65.0,81.0
272,39.981904462500005,40.070793262500004,65.0,79.0
273,39.981904462500005,40.07218215,61.0,93.0
274,39.981904462500005,40.081904362500005,58.0,86.0
275,39.4819049625,40.0930154625,46.0,72.0
276,40.1485709625,40.3680151875,53.0,77.0
277,40.3152374625,40.380515175,61.0,93.0
278,40.3152374625,40.3902373875,58.0,82.0
279,40.3152374625,40.391626275,65.0,83.0
280,40.4819039625,40.5624594375,61.0,93.0
281,40.4819039625,40.5819038625,58.0,92.0
282,40.4819039625,40.6319038125,65.0,89.0
283,41.148569962500005,41.20551435,66.0,88.0
284,41.148569962500005,41.211069900000005,63.0,100.0
285,41.148569962500005,41.2235698875,58.0,85.0
286,40.8152369625,41.4180141375,39.0,85.0
287,41.3152364625,41.4332919,63.0,88.0
288,41.3152364625,41.4346807875,66.0,81.0
289,41.3152364625,41.436069675,58.0,77.0
290,41.6485694625,41.726347162500005,58.0,77.0
291,41.6485694625,41.726347162500005,66.0,78.0
292,41.6485694625,41.7319027125,63.0,95.0
293,41.815235962500005,41.927735850000005,58.0,86.0
294,41.815235962500005,41.927735850000005,66.0,88.0
295,41.815235962500005,41.9346802875,63.0,95.0
296,41.4819029625,42.015235762500005,46.0,63.0
297,42.481901962500004,42.5207908125,66.0,58.0
298,42.481901962500004,42.552735225,58.0,78.0
299,42.481901962500004,42.552735225,63.0,85.0
300,42.6485684625,42.736068375,58.0,75.0
301,42.6485684625,42.73884615,66.0,85.0
302,42.6485684625,42.7513461375,63.0,95.0
303,42.1485689625,42.793012762500005,39.0,69.0
304,42.981901462500005,43.070790262500005,58.0,81.0
305,42.981901462500005,43.0735680375,66.0,83.0
306,42.981901462500005,43.083290250000005,63.0,90.0
307,42.8152349625,43.1874568125,46.0,63.0
308,43.1485679625,43.23884565,66.0,93.0
309,43.1485679625,43.2555123,58.0,97.0
310,43.1485679625,43.2569011875,63.0,100.0
311,43.8152339625,43.8819005625,60.0,88.0
312,43.8152339625,43.8819005625,63.0,86.0
313,43.8152339625,43.891622775,56.0,79.0
314,43.4819009625,43.899956100000004,44.0,69.0
315,43.9819004625,44.0846781375,60.0,83.0
316,43.9819004625,44.0846781375,63.0,83.0
317,43.9819004625,44.088844800000004,56.0,76.0
318,44.4818999625,44.569399875,60.0,89.0
319,44.4818999625,44.574955425,56.0,89.0
320,44.4818999625,44.588844300000005,63.0,88.0
321,44.1485669625,44.765233012500005,51.0,54.0
322,45.1485659625,45.213843675,61.0,99.0
323,45.1485659625,45.219399225000004,58.0,88.0
324,45.1485659625,45.22773255,65.0,92.0
325,45.3152324625,45.431899012500004,61.0,90.0
326,45.3152324625,45.4346767875,65.0,83.0
327,45.3152324625,45.4402323375,58.0,78.0
328,44.815232962500005,45.4624545375,46.0,65.0
329,45.6485654625,45.708287625000004,61.0,88.0
330,45.6485654625,45.7221765,65.0,83.0
331,45.6485654625,45.724954275,58.0,79.0
332,45.8152319625,45.9041207625,61.0,92.0
333,45.8152319625,45.9152318625,65.0,85.0
334,45.8152319625,45.9180096375,58.0,85.0
335,45.481898962500004,46.0763428125,53.0,66.0
336,46.4818979625,46.5457867875,61.0,99.0
337,46.4818979625,46.5568978875,58.0,95.0
338,46.4818979625,46.563842325,65.0,92.0
339,46.148564962500004,46.68328665,46.0,70.0
340,47.1485639625,47.2235638875,61.0,93.0
341,47.1485639625,47.2332861,58.0,90.0
342,47.1485639625,47.238841650000005,65.0,88.0
343,46.8152309625,47.376341512500005,53.0,67.0
344,47.815229962500005,47.8846743375,61.0,90.0
345,47.815229962500005,47.89439655,65.0,85.0
346,47.815229962500005,47.9013409875,58.0,83.0
347,47.9818964625,48.0374519625,58.0,56.0
348,47.9818964625,48.041618625000005,65.0,60.0
349,47.9818964625,48.054118612500005,61.0,73.0
350,47.4818969625,48.1332852,46.0,71.0
351,48.1485629625,48.5124514875,53.0,92.0
352,48.481895962500005,48.5596736625,61.0,100.0
353,48.481895962500005,48.57217365,58.0,97.0
354,48.481895962500005,48.5777292,65.0,93.0
355,49.148561962500004,49.202728575,60.0,97.0
356,49.148561962500004,49.222173000000005,63.0,95.0
357,49.148561962500004,49.2291174375,56.0,89.0
358,49.3152284625,49.387450612500004,56.0,69.0
359,49.3152284625,49.39439505,63.0,74.0
360,49.3152284625,49.3957839375,60.0,85.0
361,48.8152289625,49.4430061125,44.0,66.0
362,49.8152279625,49.8735612375,60.0,95.0
363,49.8152279625,49.890227887500004,56.0,93.0
364,49.8152279625,49.9068945375,63.0,93.0
365,49.4818949625,49.9791166875,51.0,75.0
366,50.4818939625,50.5513383375,65.0,95.0
367,50.4818939625,50.5568938875,61.0,117.0
368,50.4818939625,50.563838325,58.0,100.0
369,50.1485609625,50.7332826,46.0,77.0
370,50.8152269625,51.1263377625,53.0,96.0
371,51.8152259625,51.895781437500005,63.0,95.0
372,51.8152259625,51.897170325000005,66.0,79.0
373,51.8152259625,51.902725875,58.0,75.0
374,51.481892962500005,52.099947900000004,39.0,78.0
375,52.4818919625,52.561058550000006,63.0,99.0
376,52.4818919625,52.576336312500004,58.0,92.0
377,52.4818919625,52.580502975,66.0,89.0
378,52.148558962500005,52.7846694375,46.0,64.0
379,53.1485579625,53.2374467625,63.0,97.0
380,53.1485579625,53.2443912,66.0,89.0
381,53.1485579625,53.247168975,58.0,82.0
382,52.815224962500004,53.436057675,39.0,56.0
383,53.8152239625,53.908279425,63.0,99.0
384,53.8152239625,53.908279425,66.0,88.0
385,53.4818909625,53.936057175,46.0,63.0
386,53.8152239625,53.944390500000004,58.0,95.0
387,54.481889962500006,54.5291121375,60.0,86.0
388,54.481889962500006,54.541612125,63.0,82.0
389,54.481889962500006,54.545778787500005,56.0,77.0
390,54.648556462500004,54.7402230375,63.0,73.0
391,54.648556462500004,54.741611925,56.0,73.0
392,54.648556462500004,54.741611925,60.0,79.0
393,54.1485569625,54.7568896875,44.0,63.0
394,55.148555962500005,55.2346669875,60.0,86.0
395,55.148555962500005,55.236055875000005,56.0,83.0
396,55.148555962500005,55.241611425,63.0,72.0
397,54.8152229625,55.501333387500004,51.0,70.0
398,55.815221962500004,55.880499675,61.0,88.0
399,55.815221962500004,55.89438855,65.0,79.0
400,55.815221962500004,55.902721875000005,58.0,81.0
401,55.9818884625,56.0707772625,61.0,90.0
402,55.9818884625,56.077721700000005,65.0,81.0
403,55.9818884625,56.0818883625,58.0,73.0
404,55.4818889625,56.1124438875,46.0,69.0
405,56.481887962500004,56.5596656625,61.0,99.0
406,56.1485549625,56.5777212,53.0,82.0
407,56.481887962500004,56.580498975000005,58.0,93.0
408,56.481887962500004,56.5846656375,65.0,92.0
409,57.1485539625,57.245776087500005,58.0,88.0
410,57.1485539625,57.2513316375,61.0,77.0
411,57.1485539625,57.269387175000006,65.0,76.0
412,56.8152209625,57.306887137500006,46.0,88.0
413,57.8152199625,57.869386575,56.0,73.0
414,57.8152199625,57.8902198875,58.0,75.0
415,57.8152199625,57.897164325000006,61.0,82.0
416,57.8152199625,57.90549765,65.0,75.0
417,57.4818869625,57.924942075000004,53.0,58.0
418,58.4818859625,58.5541081125,58.0,82.0
419,58.4818859625,58.5541081125,61.0,90.0
420,58.4818859625,58.562441437500006,65.0,79.0
421,58.148552962500005,58.6568857875,46.0,71.0
422,58.815218962500005,59.129107537500005,53.0,63.0
423,59.1485519625,59.215218562500006,61.0,97.0
424,59.1485519625,59.219385225,58.0,92.0
425,59.1485519625,59.224940775,65.0,86.0
426,59.8152179625,59.870773462500004,60.0,95.0
427,59.8152179625,59.8763290125,56.0,89.0
428,59.8152179625,59.8777179,63.0,97.0
429,59.481884962500004,59.958273375000005,44.0,81.0
430,60.4818839625,60.555495,56.0,92.0
431,60.4818839625,60.561050550000004,60.0,95.0
432,60.4818839625,60.5763283125,63.0,89.0
433,60.1485509625,60.587439412500004,51.0,62.0
434,61.148549962500006,61.197161025,58.0,97.0
435,61.148549962500006,61.2041054625,61.0,100.0
436,61.148549962500006,61.2068832375,65.0,95.0
437,60.8152169625,61.263827625000005,46.0,74.0
438,61.4818829625,61.797160425,53.0,55.0
439,61.815215962500005,61.876327012500006,61.0,96.0
440,61.815215962500005,61.8818825625,65.0,93.0
441,61.815215962500005,61.888827000000006,58.0,95.0
442,61.9818824625,62.029104637500005,58.0,52.0
443,61.9818824625,62.042993512500004,61.0,69.0
444,61.9818824625,62.047160175,65.0,63.0
445,62.481881962500005,62.5513263375,66.0,79.0
446,62.481881962500005,62.558270775000004,63.0,92.0
447,62.481881962500005,62.5666041,58.0,77.0
448,62.1485489625,62.74993725,39.0,60.0
449,63.148547962500004,63.241603425,66.0,83.0
450,63.148547962500004,63.2429923125,58.0,88.0
451,63.148547962500004,63.245770087500006,63.0,97.0
452,62.8152149625,63.283270050000006,51.0,58.0
453,63.8152139625,63.88326945,66.0,88.0
454,63.8152139625,63.891602775,63.0,99.0
455,63.8152139625,63.89438055,58.0,92.0
456,63.4818809625,64.0402137375,39.0,55.0
457,64.1485469625,64.49437995000001,51.0,66.0
458,64.4818799625,64.56104655,66.0,90.0
459,64.4818799625,64.5679909875,63.0,107.0
460,64.4818799625,64.56937987500001,58.0,97.0
461,65.14854596250001,65.2332681,56.0,82.0
462,65.14854596250001,65.2346569875,60.0,92.0
463,65.14854596250001,65.2443792,63.0,89.0
464,64.8152129625,65.47632341250001,44.0,61.0
465,65.4818789625,65.7457675875,51.0,60.0
466,65.8152119625,65.93882295,56.0,89.0
467,65.8152119625,65.93882295,60.0,89.0
468,65.8152119625,65.991600675,63.0,90.0
469,66.1485449625,66.7874332125,37.0,78.0
470,66.48187796250001,66.8596553625,56.0,96.0
471,66.8152109625,67.2443772,49.0,71.0
472,66.8152109625,67.4124325875,61.0,92.0
473,67.1485439625,67.43187701250001,56.0,97.0
474,66.8152109625,67.43882145,65.0,93.0
475,67.4818769625,67.8554877,46.0,74.0
476,67.8152099625,67.88326545,61.0,95.0
477,67.8152099625,67.88743211250001,65.0,92.0
478,67.8152099625,67.8957654375,58.0,92.0
479,68.4818759625,68.558264775,61.0,88.0
480,68.4818759625,68.56382032500001,65.0,82.0
481,68.4818759625,68.57215365,58.0,85.0
482,68.1485429625,68.59159807500001,53.0,63.0
483,69.1485419625,69.21659745000001,61.0,86.0
484,69.1485419625,69.21659745000001,65.0,82.0
485,69.1485419625,69.224930775,58.0,89.0
486,68.81520896250001,69.31937512500001,46.0,73.0
487,69.8152079625,69.92215230000001,61.0,86.0
488,69.8152079625,69.92770785,58.0,88.0
489,69.8152079625,69.9402078375,65.0,79.0
490,69.4818749625,69.96104115,53.0,76.0
491,70.4818739625,70.5652072125,60.0,86.0
492,70.4818739625,70.57076276250001,56.0,86.0
493,70.4818739625,70.57354053750001,63.0,83.0
494,70.14854096250001,70.72631816250001,44.0,77.0
495,71.14853996250001,71.2540954125,56.0,82.0
496,71.14853996250001,71.258262075,60.0,86.0
497,71.14853996250001,71.2888176,63.0,85.0
498,70.8152069625,71.3318731125,51.0,81.0
499,71.8152059625,71.9110392,61.0,76.0
500,71.8152059625,71.9207614125,65.0,77.0
501,71.8152059625,71.9221503,58.0,72.0
502,71.4818729625,72.1235389875,46.0,71.0
503,72.1485389625,72.4763164125,53.0,77.0
504,72.48187196250001,72.5985385125,61.0,92.0
505,72.48187196250001,72.6040940625,58.0,90.0
506,72.48187196250001,72.6179829375,65.0,86.0
507,73.1485379625,73.2290934375,63.0,89.0
508,73.1485379625,73.2457600875,58.0,89.0
509,73.1485379625,73.247148975,66.0,76.0
510,72.8152049625,73.31103780000001,39.0,75.0
511,73.4818709625,73.9013149875,51.0,66.0
512,73.81520396250001,73.91659275,63.0,89.0
513,73.81520396250001,73.9290927375,66.0,83.0
514,73.81520396250001,73.9318705125,58.0,90.0
515,74.4818699625,74.5735365375,63.0,93.0
516,74.4818699625,74.5846476375,58.0,83.0
517,74.4818699625,74.5874254125,66.0,86.0
518,74.1485369625,74.7374252625,39.0,73.0
519,75.1485359625,75.2374247625,63.0,93.0
520,75.1485359625,75.2485358625,66.0,82.0
521,75.1485359625,75.2652025125,58.0,93.0
522,74.81520296250001,75.2888136,46.0,69.0
523,75.8152019625,75.9040907625,60.0,79.0
524,75.8152019625,75.91659075,63.0,77.0
525,75.8152019625,75.91936852500001,56.0,75.0
526,75.4818689625,76.01936842500001,44.0,67.0
527,76.4818679625,76.5790900875,56.0,88.0
528,76.4818679625,76.5818678625,60.0,86.0
529,76.4818679625,76.59853451250001,63.0,83.0
530,76.14853496250001,76.62631226250001,51.0,54.0
531,77.1485339625,77.230478325,61.0,96.0
532,77.1485339625,77.2457560875,58.0,85.0
533,77.1485339625,77.247144975,65.0,86.0
534,76.8152009625,77.4332559,46.0,72.0
535,77.8151999625,77.89436655,61.0,97.0
536,77.8151999625,77.90269987500001,65.0,88.0
537,77.8151999625,77.90408876250001,58.0,93.0
538,77.4818669625,77.94992205,53.0,68.0
539,78.48186596250001,78.5374214625,61.0,100.0
540,78.48186596250001,78.5540881125,65.0,92.0
541,78.48186596250001,78.56103255000001,58.0,93.0
542,78.1485329625,78.65825467500001,46.0,73.0
543,79.1485319625,79.19436525,61.0,127.0
544,79.1485319625,79.20825412500001,58.0,107.0
545,79.1485319625,79.21380967500001,65.0,99.0
546,78.8151989625,79.3068651375,53.0,99.0
547,79.3151984625,79.38742061250001,58.0,89.0
548,79.3151984625,79.38742061250001,61.0,95.0
549,79.3151984625,79.402698375,65.0,83.0
550,79.81519796250001,79.897142325,61.0,100.0
551,79.81519796250001,79.8999201,58.0,100.0
552,79.81519796250001,79.8999201,65.0,92.0
553,79.4818649625,80.06658660000001,46.0,83.0
554,79.9818644625,80.0776977,58.0,77.0
555,79.9818644625,80.0776977,61.0,85.0
556,79.9818644625,80.09158657500001,65.0,86.0
557,80.1485309625,80.4540862125,53.0,97.0
558,80.4818639625,80.574919425,61.0,96.0
559,80.4818639625,80.5888083,58.0,100.0
560,80.4818639625,80.5999194,65.0,88.0
561,81.1485299625,81.21797433750001,60.0,102.0
562,81.1485299625,81.2235298875,56.0,92.0
563,81.1485299625,81.224918775,63.0,97.0
564,81.3151964625,81.39575193750001,56.0,73.0
565,81.3151964625,81.41658525,60.0,89.0
566,81.3151964625,81.42769635,63.0,83.0
567,80.81519696250001,81.458251875,44.0,95.0
568,81.8151959625,81.8763070125,60.0,92.0
569,81.8151959625,81.888807,56.0,89.0
570,81.8151959625,81.8929736625,63.0,93.0
571,81.4818629625,81.969362475,51.0,89.0
572,81.9818624625,82.0790845875,56.0,67.0
573,81.9818624625,82.080473475,60.0,82.0
574,81.9818624625,82.0818623625,63.0,72.0
575,82.4818619625,82.5401952375,61.0,100.0
576,82.4818619625,82.54991745000001,65.0,88.0
577,82.4818619625,82.55408411250001,58.0,90.0
578,82.64852846250001,82.73880615,61.0,85.0
579,82.64852846250001,82.7457505875,65.0,77.0
580,82.64852846250001,82.7485283625,58.0,76.0
581,82.14852896250001,82.79991720000001,46.0,79.0
582,82.9818614625,83.05130583750001,61.0,100.0
583,82.9818614625,83.0651947125,58.0,93.0
584,82.9818614625,83.0665836,65.0,92.0
585,82.8151949625,83.136027975,53.0,71.0
586,83.1485279625,83.26102785,61.0,93.0
587,83.1485279625,83.2735278375,58.0,85.0
588,83.1485279625,83.28325005,65.0,81.0
589,83.8151939625,83.8874161125,66.0,90.0
590,83.8151939625,83.888805,63.0,99.0
591,83.8151939625,83.8957494375,58.0,86.0
592,83.48186096250001,84.0221382,39.0,78.0
593,83.98186046250001,84.08463813750001,58.0,88.0
594,83.98186046250001,84.0901936875,63.0,95.0
595,83.98186046250001,84.09436035,66.0,89.0
596,84.48185996250001,84.58463763750001,63.0,99.0
597,84.48185996250001,84.58602652500001,66.0,93.0
598,84.48185996250001,84.5888043,58.0,90.0
599,84.1485269625,84.5929709625,51.0,67.0
600,85.1485259625,85.21380367500001,63.0,100.0
601,85.1485259625,85.21658145,66.0,90.0
602,85.1485259625,85.219359225,58.0,86.0
603,85.31519246250001,85.4263034625,66.0,89.0
604,85.31519246250001,85.430470125,58.0,88.0
605,85.31519246250001,85.430470125,63.0,97.0
606,84.8151929625,85.4485256625,39.0,71.0
607,85.6485254625,85.7207476125,63.0,88.0
608,85.6485254625,85.724914275,58.0,79.0
609,85.6485254625,85.7290809375,66.0,79.0
610,85.4818589625,85.7999142,46.0,85.0
611,85.81519196250001,85.91380297500001,58.0,92.0
612,85.81519196250001,85.924914075,63.0,100.0
613,85.81519196250001,85.9263029625,66.0,90.0
614,86.4818579625,86.5332468,60.0,97.0
615,86.4818579625,86.54574678750001,63.0,88.0
616,86.4818579625,86.54991345,56.0,92.0
617,86.6485244625,86.74296881250001,60.0,95.0
618,86.6485244625,86.74435770000001,63.0,83.0
619,86.6485244625,86.7540799125,56.0,81.0
620,86.1485249625,86.780468775,44.0,72.0
621,87.14852396250001,87.2124127875,60.0,90.0
622,87.14852396250001,87.22769055,56.0,86.0
623,87.14852396250001,87.22769055,63.0,92.0
624,86.8151909625,87.37491262500001,51.0,74.0
625,87.8151899625,87.863801025,61.0,107.0
626,87.8151899625,87.886023225,65.0,96.0
627,87.8151899625,87.89713432500001,58.0,96.0
628,87.9818564625,88.07768970000001,61.0,93.0
629,87.9818564625,88.08324525,58.0,77.0
630,87.9818564625,88.086023025,65.0,79.0
631,87.4818569625,88.1096341125,46.0,72.0
632,88.3151894625,88.37213385,61.0,97.0
633,88.3151894625,88.39852271250001,58.0,90.0
634,88.3151894625,88.408244925,65.0,93.0
635,88.4818559625,88.55268922500001,61.0,100.0
636,88.4818559625,88.563800325,58.0,79.0
637,88.4818559625,88.5665781,65.0,77.0
638,88.6485224625,88.736022375,61.0,96.0
639,88.6485224625,88.7457445875,58.0,85.0
640,88.6485224625,88.75130013750001,65.0,83.0
641,88.14852296250001,88.7568556875,53.0,69.0
642,89.1485219625,89.1999108,61.0,97.0
643,89.1485219625,89.21657745,58.0,86.0
644,89.1485219625,89.22907743750001,65.0,86.0
645,89.3151884625,89.39435505,61.0,96.0
646,89.3151884625,89.40546615000001,65.0,79.0
647,89.3151884625,89.40824392500001,58.0,88.0
648,88.8151889625,89.4707438625,46.0,83.0
649,89.8151879625,89.863799025,61.0,85.0
650,89.8151879625,89.891576775,58.0,85.0
651,89.8151879625,89.89435455,65.0,79.0
652,89.48185496250001,90.11102100000001,53.0,85.0
653,90.4818539625,90.5290761375,61.0,102.0
654,90.4818539625,90.541576125,58.0,88.0
655,90.4818539625,90.541576125,65.0,93.0
656,90.6485204625,90.747131475,61.0,90.0
657,90.6485204625,90.758242575,58.0,79.0
658,90.6485204625,90.76240923750001,65.0,79.0
659,90.1485209625,90.79018698750001,46.0,77.0
660,90.81518696250001,91.00546455,53.0,82.0
661,90.9818534625,91.04990895,61.0,97.0
662,90.9818534625,91.052686725,65.0,90.0
663,90.9818534625,91.06240893750001,58.0,86.0
664,91.1485199625,91.24018653750001,61.0,95.0
665,91.1485199625,91.258242075,65.0,90.0
666,91.1485199625,91.269353175,58.0,88.0
667,91.81518596250001,91.8846303375,60.0,93.0
668,91.81518596250001,91.8999081,63.0,88.0
669,91.81518596250001,91.9110192,56.0,88.0
670,91.9818524625,92.06935237500001,60.0,76.0
671,91.9818524625,92.0790745875,56.0,72.0
672,91.9818524625,92.102685675,63.0,73.0
673,91.4818529625,92.1124078875,44.0,66.0
674,92.4818519625,92.552685225,60.0,99.0
675,92.4818519625,92.56935187500001,63.0,92.0
676,92.4818519625,92.5776852,56.0,96.0
677,92.1485189625,92.63879625,51.0,97.0
678,93.14851796250001,93.2040734625,61.0,90.0
679,93.14851796250001,93.2151845625,58.0,86.0
680,93.14851796250001,93.22212900000001,65.0,81.0
681,93.3151844625,93.4040732625,65.0,79.0
682,93.3151844625,93.40546215,61.0,93.0
683,93.3151844625,93.4151843625,58.0,86.0
684,92.8151849625,93.42629546250001,46.0,72.0
685,93.4818509625,93.70129518750001,53.0,77.0
686,93.64851746250001,93.713795175,61.0,93.0
687,93.64851746250001,93.72351738750001,58.0,82.0
688,93.64851746250001,93.72490627500001,65.0,83.0
689,93.8151839625,93.8957394375,61.0,93.0
690,93.8151839625,93.9151838625,58.0,92.0
691,93.8151839625,93.9651838125,65.0,89.0
692,94.48184996250001,94.53879435,66.0,88.0
693,94.48184996250001,94.5443499,63.0,100.0
694,94.48184996250001,94.55684988750001,58.0,85.0
695,94.14851696250001,94.75129413750001,39.0,85.0
696,94.6485164625,94.7665719,63.0,88.0
697,94.6485164625,94.7679607875,66.0,81.0
698,94.6485164625,94.769349675,58.0,77.0
699,94.98184946250001,95.0596271625,58.0,77.0
700,94.98184946250001,95.0596271625,66.0,78.0
701,94.98184946250001,95.0651827125,63.0,95.0
702,95.1485159625,95.26101585,58.0,86.0
703,95.1485159625,95.26101585,66.0,88.0
704,95.1485159625,95.2679602875,63.0,95.0
705,94.8151829625,95.3485157625,46.0,63.0
706,95.8151819625,95.8540708125,66.0,58.0
707,95.8151819625,95.88601522500001,58.0,78.0
708,95.8151819625,95.88601522500001,63.0,85.0
709,95.98184846250001,96.069348375,58.0,75.0
710,95.98184846250001,96.07212615,66.0,85.0
711,95.98184846250001,96.08462613750001,63.0,95.0
712,95.48184896250001,96.1262927625,39.0,69.0
713,96.31518146250001,96.4040702625,58.0,81.0
714,96.31518146250001,96.4068480375,66.0,83.0
715,96.31518146250001,96.41657025,63.0,90.0
716,96.1485149625,96.5207368125,46.0,63.0
717,96.4818479625,96.57212565,66.0,93.0
718,96.4818479625,96.58879230000001,58.0,97.0
719,96.4818479625,96.59018118750001,63.0,100.0
720,97.1485139625,97.21518056250001,60.0,88.0
721,97.1485139625,97.21518056250001,63.0,86.0
722,97.1485139625,97.224902775,56.0,79.0
723,96.81518096250001,97.2332361,44.0,69.0
724,97.31518046250001,97.41795813750001,60.0,83.0
725,97.31518046250001,97.41795813750001,63.0,83.0
726,97.31518046250001,97.4221248,56.0,76.0
727,97.81517996250001,97.902679875,60.0,89.0
728,97.81517996250001,97.908235425,56.0,89.0
729,97.81517996250001,97.92212430000001,63.0,88.0
730,97.4818469625,98.0985130125,51.0,54.0
731,98.4818459625,98.54712367500001,61.0,99.0
732,98.4818459625,98.552679225,58.0,88.0
733,98.4818459625,98.56101255,65.0,92.0
734,98.64851246250001,98.7651790125,61.0,90.0
735,98.64851246250001,98.7679567875,65.0,83.0
736,98.64851246250001,98.77351233750001,58.0,78.0
737,98.1485129625,98.79573453750001,46.0,65.0
738,98.9818454625,99.041567625,61.0,88.0
739,98.9818454625,99.0554565,65.0,83.0
740,98.9818454625,99.058234275,58.0,79.0
741,99.14851196250001,99.2374007625,61.0,92.0
742,99.14851196250001,99.24851186250001,65.0,85.0
743,99.14851196250001,99.25128963750001,58.0,85.0
744,98.8151789625,99.4096228125,53.0,66.0
745,99.8151779625,99.8707334625,61.0,100.0
746,99.8151779625,99.8874001125,65.0,92.0
747,99.8151779625,99.89434455,58.0,93.0
748,99.4818449625,99.991566675,46.0,73.0
749,100.48184396250001,100.52767725000001,61.0,127.0
750,100.48184396250001,100.541566125,58.0,107.0
751,100.48184396250001,100.547121675,65.0,99.0
752,100.1485109625,100.6401771375,53.0,99.0
753,100.6485104625,100.7207326125,58.0,89.0
754,100.6485104625,100.7207326125,61.0,95.0
755,100.6485104625,100.736010375,65.0,83.0
756,101.1485099625,101.23045432500001,61.0,100.0
757,101.1485099625,101.23323210000001,58.0,100.0
758,101.1485099625,101.23323210000001,65.0,92.0
759,100.8151769625,101.3998986,46.0,83.0
760,101.3151764625,101.41100970000001,58.0,77.0
761,101.3151764625,101.41100970000001,61.0,85.0
762,101.3151764625,101.424898575,65.0,86.0
763,101.48184296250001,101.78739821250001,53.0,97.0
764,101.8151759625,101.90823142500001,61.0,96.0
765,101.8151759625,101.9221203,58.0,100.0
766,101.8151759625,101.93323140000001,65.0,88.0
767,102.4818419625,102.5512863375,60.0,102.0
768,102.4818419625,102.5568418875,56.0,92.0
769,102.4818419625,102.558230775,63.0,97.0
770,102.6485084625,102.7290639375,56.0,73.0
771,102.6485084625,102.74989725,60.0,89.0
772,102.6485084625,102.76100835000001,63.0,83.0
773,102.1485089625,102.79156387500001,44.0,95.0
774,103.1485079625,103.2096190125,60.0,92.0
775,103.1485079625,103.222119,56.0,89.0
776,103.1485079625,103.2262856625,63.0,93.0
777,102.81517496250001,103.302674475,51.0,89.0
778,103.31517446250001,103.4123965875,56.0,67.0
779,103.31517446250001,103.41378547500001,60.0,82.0
780,103.31517446250001,103.41517436250001,63.0,72.0
781,103.8151739625,103.87350723750001,61.0,100.0
782,103.8151739625,103.88322945,65.0,88.0
783,103.8151739625,103.8873961125,58.0,90.0
784,103.9818404625,104.07211815000001,61.0,85.0
785,103.9818404625,104.0790625875,65.0,77.0
786,103.9818404625,104.0818403625,58.0,76.0
787,103.4818409625,104.1332292,46.0,79.0
788,104.3151734625,104.3846178375,61.0,100.0
789,104.3151734625,104.39850671250001,58.0,93.0
790,104.3151734625,104.39989560000001,65.0,92.0
791,104.14850696250001,104.46933997500001,53.0,71.0
792,104.4818399625,104.59433985000001,61.0,93.0
793,104.4818399625,104.6068398375,58.0,85.0
794,104.4818399625,104.61656205,65.0,81.0
795,105.14850596250001,105.2207281125,66.0,90.0
796,105.14850596250001,105.22211700000001,63.0,99.0
797,105.14850596250001,105.22906143750001,58.0,86.0
798,104.8151729625,105.3554502,39.0,78.0
799,105.3151724625,105.4179501375,58.0,88.0
800,105.3151724625,105.42350568750001,63.0,95.0
801,105.3151724625,105.42767235000001,66.0,89.0
802,105.8151719625,105.9179496375,63.0,99.0
803,105.8151719625,105.919338525,66.0,93.0
804,105.8151719625,105.9221163,58.0,90.0
805,105.4818389625,105.92628296250001,51.0,67.0
806,106.48183796250001,106.547115675,63.0,100.0
807,106.48183796250001,106.54989345,66.0,90.0
808,106.48183796250001,106.55267122500001,58.0,86.0
809,106.6485044625,106.75961546250001,66.0,89.0
810,106.6485044625,106.763782125,58.0,88.0
811,106.6485044625,106.763782125,63.0,97.0
812,106.1485049625,106.78183766250001,39.0,71.0
813,106.98183746250001,107.0540596125,63.0,88.0
814,106.98183746250001,107.05822627500001,58.0,79.0
815,106.98183746250001,107.06239293750001,66.0,79.0
816,106.8151709625,107.13322620000001,46.0,85.0
817,107.1485039625,107.247114975,58.0,92.0
818,107.1485039625,107.25822607500001,63.0,100.0
819,107.1485039625,107.25961496250001,66.0,90.0
820,107.81516996250001,107.8665588,60.0,97.0
821,107.81516996250001,107.8790587875,63.0,88.0
822,107.81516996250001,107.88322545000001,56.0,92.0
823,107.9818364625,108.0762808125,60.0,95.0
824,107.9818364625,108.0776697,63.0,83.0
825,107.9818364625,108.08739191250001,56.0,81.0
826,107.48183696250001,108.11378077500001,44.0,72.0
827,108.4818359625,108.5457247875,60.0,90.0
828,108.4818359625,108.56100255,56.0,86.0
829,108.4818359625,108.56100255,63.0,92.0
830,108.1485029625,108.708224625,51.0,74.0
831,109.1485019625,109.19711302500001,61.0,107.0
832,109.1485019625,109.21933522500001,65.0,96.0
833,109.1485019625,109.230446325,58.0,96.0
834,109.31516846250001,109.4110017,61.0,93.0
835,109.31516846250001,109.41655725000001,58.0,77.0
836,109.31516846250001,109.41933502500001,65.0,79.0
837,108.81516896250001,109.44294611250001,46.0,72.0
838,109.64850146250001,109.70544585,61.0,97.0
839,109.64850146250001,109.7318347125,58.0,90.0
840,109.64850146250001,109.74155692500001,65.0,93.0
841,109.8151679625,109.886001225,61.0,100.0
842,109.8151679625,109.89711232500001,58.0,79.0
843,109.8151679625,109.89989010000001,65.0,77.0
844,109.9818344625,110.06933437500001,61.0,96.0
845,109.9818344625,110.0790565875,58.0,85.0
846,109.9818344625,110.0846121375,65.0,83.0
847,109.4818349625,110.0901676875,53.0,69.0
848,110.4818339625,110.5332228,61.0,97.0
849,110.4818339625,110.54988945000001,58.0,86.0
850,110.4818339625,110.5623894375,65.0,86.0
851,110.64850046250001,110.72766705000001,61.0,96.0
852,110.64850046250001,110.73877815,65.0,79.0
853,110.64850046250001,110.741555925,58.0,88.0
854,110.14850096250001,110.80405586250001,46.0,83.0
855,111.14849996250001,111.197111025,61.0,85.0
856,111.14849996250001,111.22488877500001,58.0,85.0
857,111.14849996250001,111.22766655000001,65.0,79.0
858,110.8151669625,111.444333,53.0,85.0
859,111.8151659625,111.8623881375,61.0,102.0
860,111.8151659625,111.874888125,58.0,88.0
861,111.8151659625,111.874888125,65.0,93.0
862,111.98183246250001,112.08044347500001,61.0,90.0
863,111.98183246250001,112.091554575,58.0,79.0
864,111.98183246250001,112.0957212375,65.0,79.0
865,111.48183296250001,112.1234989875,46.0,77.0
866,112.1484989625,112.33877655,53.0,82.0
867,112.3151654625,112.38322095000001,61.0,97.0
868,112.3151654625,112.38599872500001,65.0,90.0
869,112.3151654625,112.3957209375,58.0,86.0
870,112.48183196250001,112.5734985375,61.0,95.0
871,112.48183196250001,112.591554075,65.0,90.0
872,112.48183196250001,112.602665175,58.0,88.0
873,113.1484979625,113.2179423375,60.0,93.0
874,113.1484979625,113.23322010000001,63.0,88.0
875,113.1484979625,113.2443312,56.0,88.0
876,113.31516446250001,113.402664375,60.0,76.0
877,113.31516446250001,113.41238658750001,56.0,72.0
878,113.31516446250001,113.43599767500001,63.0,73.0
879,112.8151649625,113.4457198875,44.0,66.0
880,113.81516396250001,113.88599722500001,60.0,99.0
881,113.81516396250001,113.902663875,63.0,92.0
882,113.81516396250001,113.91099720000001,56.0,96.0
883,113.4818309625,113.97210825,51.0,97.0
884,114.4818299625,114.53738546250001,61.0,90.0
885,114.4818299625,114.5484965625,58.0,86.0
886,114.4818299625,114.555441,65.0,81.0
887,114.6484964625,114.7373852625,65.0,79.0
888,114.6484964625,114.73877415000001,61.0,93.0
889,114.6484964625,114.7484963625,58.0,86.0
890,114.1484969625,114.7596074625,46.0,72.0
891,114.81516296250001,115.0346071875,53.0,77.0
892,114.9818294625,115.04710717500001,61.0,93.0
893,114.9818294625,115.0568293875,58.0,82.0
894,114.9818294625,115.058218275,65.0,83.0
895,115.14849596250001,115.2290514375,61.0,93.0
896,115.14849596250001,115.24849586250001,58.0,92.0
897,115.14849596250001,115.29849581250001,65.0,89.0
898,115.8151619625,115.87210635000001,66.0,88.0
899,115.8151619625,115.8776619,63.0,100.0
900,115.8151619625,115.8901618875,58.0,85.0
901,115.4818289625,116.0846061375,39.0,85.0
902,115.9818284625,116.09988390000001,63.0,88.0
903,115.9818284625,116.10127278750001,66.0,81.0
904,115.9818284625,116.10266167500001,58.0,77.0
905,116.3151614625,116.3929391625,58.0,77.0
906,116.3151614625,116.3929391625,66.0,78.0
907,116.3151614625,116.39849471250001,63.0,95.0
908,116.4818279625,116.59432785,58.0,86.0
909,116.4818279625,116.59432785,66.0,88.0
910,116.4818279625,116.60127228750001,63.0,95.0
911,116.14849496250001,116.6818277625,46.0,63.0
912,117.1484939625,117.1873828125,66.0,58.0
913,117.1484939625,117.219327225,58.0,78.0
914,117.1484939625,117.219327225,63.0,85.0
915,117.3151604625,117.40266037500001,58.0,75.0
916,117.3151604625,117.40543815000001,66.0,85.0
917,117.3151604625,117.4179381375,63.0,95.0
918,116.8151609625,117.4596047625,39.0,69.0
919,117.6484934625,117.7373822625,58.0,81.0
920,117.6484934625,117.7401600375,66.0,83.0
921,117.6484934625,117.74988225,63.0,90.0
922,117.48182696250001,117.85404881250001,46.0,63.0
923,117.8151599625,117.90543765000001,66.0,93.0
924,117.8151599625,117.9221043,58.0,97.0
925,117.8151599625,117.9234931875,63.0,100.0
926,118.48182596250001,118.5484925625,60.0,88.0
927,118.48182596250001,118.5484925625,63.0,86.0
928,118.48182596250001,118.55821477500001,56.0,79.0
929,118.1484929625,118.5665481,44.0,69.0
930,118.6484924625,118.7512701375,60.0,83.0
931,118.6484924625,118.7512701375,63.0,83.0
932,118.6484924625,118.7554368,56.0,76.0
933,119.1484919625,119.23599187500001,60.0,89.0
934,119.1484919625,119.24154742500001,56.0,89.0
935,119.1484919625,119.2554363,63.0,88.0
936,118.8151589625,119.4318250125,51.0,54.0
937,119.81515796250001,119.880435675,61.0,99.0
938,119.81515796250001,119.88599122500001,58.0,88.0
939,119.81515796250001,119.89432455000001,65.0,92.0
940,119.9818244625,120.0984910125,61.0,90.0
941,119.9818244625,120.1012687875,65.0,83.0
942,119.9818244625,120.1068243375,58.0,78.0
943,119.4818249625,120.1290465375,46.0,65.0
944,120.31515746250001,120.374879625,61.0,88.0
945,120.31515746250001,120.38876850000001,65.0,83.0
946,120.31515746250001,120.39154627500001,58.0,79.0
947,120.4818239625,120.57071276250001,61.0,92.0
948,120.4818239625,120.5818238625,65.0,85.0
949,120.4818239625,120.5846016375,58.0,85.0
950,120.1484909625,120.74293481250001,53.0,66.0
951,120.81515696250001,120.97349013750001,46.0,97.0
952,121.4818229625,121.82071151250001,53.0,97.0
953,121.8151559625,121.9346002875,46.0,66.0
954,122.4818219625,122.82626606250001,53.0,89.0
955,122.8151549625,123.12487687500001,46.0,70.0
956,123.1484879625,123.32765445000001,53.0,71.0
957,123.8151539625,123.8929316625,58.0,77.0
958,123.8151539625,123.8957094375,61.0,73.0
959,123.8151539625,123.8998761,65.0,72.0
960,123.48182096250001,123.98043157500001,46.0,82.0
961,124.48181996250001,124.5679309875,61.0,82.0
962,124.48181996250001,124.5776532,65.0,74.0
963,124.48181996250001,124.58181986250001,58.0,77.0
964,124.1484869625,124.641542025,53.0,52.0
965,125.1484859625,125.22765255,58.0,85.0
966,125.1484859625,125.22765255,61.0,85.0
967,125.1484859625,125.23598587500001,65.0,79.0
968,124.81515296250001,125.4554301,46.0,63.0
969,125.4818189625,125.89570743750001,53.0,70.0
970,125.81515196250001,125.8998741,58.0,92.0
971,125.81515196250001,125.9012629875,61.0,100.0
972,125.81515196250001,125.908207425,65.0,95.0
973,126.4818179625,126.56931787500001,60.0,96.0
974,126.4818179625,126.57348453750001,56.0,90.0
975,126.4818179625,126.580428975,63.0,93.0
976,126.1484849625,126.713762175,44.0,82.0
977,127.14848396250001,127.23876165,60.0,93.0
978,127.14848396250001,127.24570608750001,56.0,86.0
979,127.14848396250001,127.2651505125,63.0,86.0
980,126.8151509625,127.3373726625,51.0,61.0
981,127.8151499625,127.885983225,61.0,96.0
982,127.8151499625,127.89431655,65.0,93.0
983,127.8151499625,127.90542765000001,58.0,95.0
984,127.4818169625,127.991538675,46.0,63.0
985,128.1484829625,128.39431605000001,53.0,81.0
986,128.4818159625,128.5734825375,61.0,96.0
987,128.4818159625,128.5818158625,58.0,92.0
988,128.4818159625,128.5873714125,65.0,90.0
989,129.1484819625,129.24153742500002,63.0,99.0
990,129.1484819625,129.24153742500002,66.0,90.0
991,129.1484819625,129.2484818625,58.0,92.0
992,128.81514896250002,129.4095928125,39.0,65.0
993,129.8151479625,129.9220923,63.0,93.0
994,129.8151479625,129.92625896250001,58.0,86.0
995,129.8151479625,129.92625896250001,66.0,79.0
996,129.4818149625,130.0512588375,46.0,68.0
997,130.4818139625,130.57625831250002,58.0,86.0
998,130.4818139625,130.57625831250002,66.0,92.0
999,130.4818139625,130.580424975,63.0,99.0
1000,130.1484809625,130.6776471,39.0,72.0
1001,131.1484799625,131.208202125,66.0,92.0
1002,131.1484799625,131.2373687625,58.0,99.0
1003,131.1484799625,131.241535425,63.0,107.0
1004,130.8151469625,131.2651465125,46.0,72.0
1005,131.8151459625,131.885979225,60.0,93.0
1006,131.8151459625,131.8901458875,63.0,90.0
1007,131.8151459625,131.90264587500002,56.0,85.0
1008,131.48181296250002,131.9984791125,44.0,82.0
1009,132.48181196250002,132.55820077500002,60.0,93.0
1010,132.48181196250002,132.5623674375,56.0,90.0
1011,132.48181196250002,132.5776452,63.0,90.0
1012,132.1484789625,132.724867275,51.0,67.0
1013,133.1484779625,133.2234778875,61.0,97.0
1014,133.1484779625,133.24014453750002,58.0,93.0
1015,133.1484779625,133.2429223125,65.0,86.0
1016,132.8151449625,133.2484778625,46.0,92.0
1017,133.4818109625,133.88736611250002,46.0,89.0
1018,133.8151439625,133.897088325,61.0,96.0
1019,133.8151439625,133.8984772125,65.0,85.0
1020,133.8151439625,133.9040327625,58.0,90.0
1021,134.4818099625,134.56930987500002,61.0,93.0
1022,134.4818099625,134.574865425,58.0,93.0
1023,134.4818099625,134.5776432,65.0,88.0
1024,134.1484769625,134.63875425,46.0,78.0
1025,135.14847596250002,135.2373647625,61.0,92.0
1026,135.14847596250002,135.24569808750002,58.0,86.0
1027,135.14847596250002,135.247086975,65.0,88.0
1028,134.8151429625,135.3151424625,53.0,61.0
1029,135.8151419625,135.891530775,61.0,88.0
1030,135.8151419625,135.90125298750002,65.0,88.0
1031,135.8151419625,135.9040307625,58.0,82.0
1032,135.4818089625,135.9429196125,46.0,71.0
1033,136.4818079625,136.5651412125,61.0,96.0
1034,136.4818079625,136.57208565000002,65.0,86.0
1035,136.4818079625,136.58041897500001,58.0,90.0
1036,136.14847496250002,136.641530025,53.0,67.0
1037,137.14847396250002,137.2318072125,60.0,93.0
1038,137.14847396250002,137.2373627625,63.0,92.0
1039,137.14847396250002,137.2443072,56.0,86.0
1040,136.8151409625,137.35680708750002,44.0,67.0
1041,137.4818069625,137.8762510125,51.0,62.0
1042,137.8151399625,137.908195425,60.0,89.0
1043,137.8151399625,137.9151398625,56.0,83.0
1044,137.8151399625,137.9220843,63.0,89.0
1045,138.4818059625,138.5679169875,61.0,90.0
1046,138.4818059625,138.5776392,65.0,85.0
1047,138.4818059625,138.5818058625,58.0,83.0
1048,138.1484729625,138.62763915,46.0,73.0
1049,138.81513896250001,139.002638775,53.0,66.0
1050,139.1484719625,139.24152742500002,58.0,86.0
1051,139.1484719625,139.24152742500002,61.0,93.0
1052,139.1484719625,139.2429163125,65.0,86.0
1053,139.81513796250002,139.902637875,66.0,89.0
1054,139.81513796250002,139.9095823125,63.0,93.0
1055,139.81513796250002,139.913748975,58.0,79.0
1056,139.4818049625,139.9734711375,39.0,66.0
1057,140.4818039625,140.58319275,66.0,83.0
1058,140.4818039625,140.5845816375,58.0,83.0
1059,140.4818039625,140.5873594125,63.0,95.0
1060,140.1484709625,140.6401371375,46.0,58.0
1061,141.1484699625,141.208192125,66.0,99.0
1062,141.1484699625,141.2109699,58.0,96.0
1063,141.1484699625,141.2123587875,63.0,112.0
1064,141.3151364625,141.39985860000002,58.0,66.0
1065,141.3151364625,141.4068030375,63.0,73.0
1066,141.3151364625,141.4109697,66.0,71.0
1067,140.81513696250002,141.47624741250002,39.0,68.0
1068,141.8151359625,141.858191475,66.0,83.0
1069,141.4818029625,141.89708032500002,46.0,63.0
1070,141.8151359625,141.8984692125,63.0,112.0
1071,141.8151359625,141.9068025375,58.0,92.0
1072,142.48180196250001,142.541524125,60.0,97.0
1073,142.48180196250001,142.541524125,63.0,89.0
1074,142.48180196250001,142.5623574375,56.0,93.0
1075,142.6484684625,142.7429128125,60.0,78.0
1076,142.6484684625,142.7443017,63.0,72.0
1077,142.6484684625,142.7456905875,56.0,63.0
1078,142.1484689625,142.8512460375,44.0,66.0
1079,143.1484679625,143.224856775,60.0,96.0
1080,143.1484679625,143.22902343750002,56.0,89.0
1081,143.1484679625,143.25819007500002,63.0,96.0
1082,142.8151349625,143.4179121375,51.0,64.0
1083,143.8151339625,143.880411675,61.0,92.0
1084,143.8151339625,143.880411675,65.0,85.0
1085,143.8151339625,143.8984672125,58.0,89.0
1086,143.98180046250002,144.06374482500001,61.0,86.0
1087,143.98180046250002,144.0734670375,58.0,73.0
1088,143.98180046250002,144.0734670375,65.0,81.0
1089,143.48180096250002,144.102633675,46.0,88.0
1090,144.48179996250002,144.5623554375,61.0,97.0
1091,144.48179996250002,144.574855425,65.0,89.0
1092,144.48179996250002,144.5762443125,58.0,95.0
1093,144.1484669625,144.5984665125,53.0,82.0
1094,145.4817989625,145.96374292500002,58.0,88.0
1095,145.4817989625,145.9776318,61.0,95.0
1096,145.4817989625,145.9776318,65.0,92.0
1097,145.4817989625,145.985965125,46.0,78.0
1098,146.8151309625,147.39568593750002,65.0,89.0
1099,146.8151309625,147.408185925,61.0,92.0
1100,146.8151309625,147.4123525875,58.0,88.0
1101,146.8151309625,147.46929697500002,46.0,96.0
1102,148.14846296250002,148.602629175,44.0,93.0
1103,148.14846296250002,148.60540695,63.0,83.0
1104,148.14846296250002,148.6206847125,56.0,79.0
1105,148.14846296250002,148.6206847125,60.0,88.0
1106,149.4817949625,149.9734611375,44.0,85.0
1107,149.4817949625,149.9845722375,60.0,95.0
1108,149.4817949625,149.9929055625,63.0,93.0
1109,149.4817949625,150.00679443750002,56.0,96.0
1110,150.1484609625,150.4540162125,39.0,53.0
1111,150.4817939625,150.53873835000002,63.0,85.0
1112,150.4817939625,150.5401272375,66.0,81.0
1113,150.4817939625,150.547071675,58.0,75.0
1114,150.81512696250002,151.0429045125,46.0,39.0
1115,151.1484599625,151.20540435,63.0,78.0
1116,151.1484599625,151.21651545,58.0,70.0
1117,151.1484599625,151.21651545,66.0,69.0
1118,151.4817929625,151.82762595,39.0,37.0
1119,151.81512596250002,151.88318145,63.0,89.0
1120,151.81512596250002,151.8845703375,66.0,78.0
1121,151.81512596250002,151.89429255000002,58.0,85.0
1122,152.1484589625,152.5151252625,46.0,44.0
1123,152.4817919625,152.5401252375,66.0,79.0
1124,152.4817919625,152.5429030125,63.0,85.0
1125,152.4817919625,152.5456807875,58.0,61.0
1126,152.8151249625,153.141513525,44.0,52.0
1127,153.1484579625,153.2179023375,60.0,83.0
1128,153.1484579625,153.2179023375,63.0,83.0
1129,153.1484579625,153.2317912125,56.0,78.0
1130,153.8151239625,153.89984610000002,60.0,73.0
1131,153.8151239625,153.9067905375,56.0,71.0
1132,153.8151239625,153.91651275,63.0,70.0
1133,153.4817909625,153.94984605000002,51.0,50.0
1134,154.48178996250002,154.55540100000002,61.0,89.0
1135,154.48178996250002,154.563734325,65.0,88.0
1136,154.48178996250002,154.57206765,58.0,82.0
1137,154.1484569625,154.58178986250002,46.0,50.0
1138,154.8151229625,154.897067325,51.0,58.0
1139,155.1484559625,155.21095590000002,61.0,102.0
1140,154.8151229625,155.222067,53.0,64.0
1141,155.1484559625,155.2262336625,65.0,96.0
1142,155.1484559625,155.23178921250002,58.0,100.0
1143,155.8151219625,155.86095525000002,61.0,96.0
1144,155.8151219625,155.880399675,58.0,97.0
1145,155.8151219625,155.880399675,65.0,89.0
1146,155.48178896250002,155.924844075,46.0,88.0
1147,156.4817879625,156.53873235,61.0,88.0
1148,156.4817879625,156.56095455000002,58.0,83.0
1149,156.4817879625,156.56095455000002,65.0,79.0
1150,156.1484549625,156.697065525,53.0,71.0
1151,156.6484544625,156.71373217500002,58.0,58.0
1152,156.6484544625,156.735954375,61.0,70.0
1153,156.6484544625,156.73734326250002,65.0,71.0
1154,156.8151209625,157.1845650375,46.0,73.0
1155,157.1484539625,157.1998428,61.0,99.0
1156,157.1484539625,157.2123427875,58.0,89.0
1157,157.1484539625,157.21650945000002,65.0,82.0
1158,157.8151199625,157.8873421125,61.0,95.0
1159,157.8151199625,157.9040087625,58.0,93.0
1160,157.8151199625,157.908175425,65.0,86.0
1161,157.4817869625,157.9442865,53.0,65.0
1162,158.14845296250002,158.55123033750002,44.0,74.0
1163,158.4817859625,158.55400811250001,60.0,89.0
1164,158.4817859625,158.5665081,63.0,81.0
1165,158.4817859625,158.5706747625,56.0,89.0
1166,159.14845196250002,159.241507425,60.0,79.0
1167,159.14845196250002,159.24567408750002,56.0,83.0
1168,159.14845196250002,159.2665074,63.0,79.0
1169,158.8151189625,159.2928962625,51.0,51.0
1170,159.8151179625,159.8956734375,61.0,89.0
1171,159.8151179625,159.9109512,65.0,81.0
1172,159.8151179625,159.9123400875,58.0,77.0
1173,159.4817849625,159.9428956125,46.0,63.0
1174,160.1484509625,160.40122848750002,53.0,52.0
1175,160.4817839625,160.56233943750001,61.0,97.0
1176,160.4817839625,160.5762283125,58.0,89.0
1177,160.4817839625,160.5790060875,65.0,90.0
1178,161.1484499625,161.2290054375,66.0,85.0
1179,161.1484499625,161.23317210000002,63.0,97.0
1180,161.1484499625,161.23594987500002,58.0,89.0
1181,161.31511646250001,161.397060825,66.0,76.0
1182,161.31511646250001,161.4012274875,58.0,54.0
1183,161.31511646250001,161.4040052625,63.0,81.0
1184,160.8151169625,161.43594967500002,39.0,81.0
1185,161.81511596250002,161.91511586250002,58.0,95.0
1186,161.81511596250002,161.91650475,63.0,100.0
1187,161.81511596250002,161.91650475,66.0,92.0
1188,161.4817829625,161.95678248750002,46.0,63.0
1189,162.4817819625,162.54428190000002,66.0,86.0
1190,162.4817819625,162.54983745,63.0,97.0
1191,162.4817819625,162.5540041125,58.0,81.0
1192,162.1484489625,162.6845595375,39.0,65.0
1193,163.1484479625,163.19705902500002,66.0,88.0
1194,163.1484479625,163.2345589875,63.0,99.0
1195,163.1484479625,163.2428923125,58.0,95.0
1196,162.81511496250002,163.3012255875,46.0,100.0
1197,163.81511396250002,163.89150277500002,63.0,88.0
1198,163.81511396250002,163.8984472125,60.0,96.0
1199,163.4817809625,163.9109472,44.0,89.0
1200,163.81511396250002,163.92066941250002,56.0,89.0
1201,163.9817804625,164.0401137375,56.0,55.0
1202,163.9817804625,164.07344703750002,63.0,71.0
1203,163.9817804625,164.08316925,60.0,79.0
1204,164.4817799625,164.5540021125,60.0,96.0
1205,164.4817799625,164.5651132125,56.0,96.0
1206,164.4817799625,164.580390975,63.0,96.0
1207,164.1484469625,164.6651131125,51.0,72.0
1208,164.8151129625,164.9901127875,46.0,90.0
1209,164.8151129625,165.0776127,61.0,102.0
1210,164.8151129625,165.080390475,58.0,96.0
1211,164.8151129625,165.0928904625,65.0,96.0
1212,165.1484459625,165.2887236,59.0,107.0
1213,165.1484459625,165.2956680375,62.0,102.0
1214,165.1484459625,165.32344578750002,47.0,95.0
1215,165.48177896250002,165.8776119,47.0,100.0
1216,165.48177896250002,165.91094520000001,59.0,102.0
1217,165.48177896250002,165.9456673875,62.0,100.0
1218,165.48177896250002,165.9706673625,66.0,89.0
1219,166.48177796250002,166.53733346250002,62.0,100.0
1220,166.48177796250002,166.5540001125,66.0,92.0
1221,166.48177796250002,166.56094455000002,59.0,93.0
1222,166.1484449625,166.65816667500002,47.0,73.0
1223,167.1484439625,167.19427725,62.0,127.0
1224,167.1484439625,167.20816612500002,59.0,107.0
1225,167.1484439625,167.21372167500002,66.0,99.0
1226,166.8151109625,167.3067771375,54.0,99.0
1227,167.3151104625,167.38733261250002,59.0,89.0
1228,167.3151104625,167.38733261250002,62.0,95.0
1229,167.3151104625,167.402610375,66.0,83.0
1230,167.8151099625,167.897054325,62.0,100.0
1231,167.8151099625,167.8998321,59.0,100.0
1232,167.8151099625,167.8998321,66.0,92.0
1233,167.48177696250002,168.06649860000002,47.0,83.0
1234,167.9817764625,168.0776097,59.0,77.0
1235,167.9817764625,168.0776097,62.0,85.0
1236,167.9817764625,168.091498575,66.0,86.0
1237,168.1484429625,168.4539982125,54.0,97.0
1238,168.4817759625,168.574831425,62.0,96.0
1239,168.4817759625,168.5887203,59.0,100.0
1240,168.4817759625,168.5998314,66.0,88.0
1241,169.14844196250002,169.2178863375,61.0,102.0
1242,169.14844196250002,169.2234418875,57.0,92.0
1243,169.14844196250002,169.22483077500002,64.0,97.0
1244,169.3151084625,169.39566393750002,57.0,73.0
1245,169.3151084625,169.41649725000002,61.0,89.0
1246,169.3151084625,169.42760835,64.0,83.0
1247,168.8151089625,169.458163875,45.0,95.0
1248,169.8151079625,169.8762190125,61.0,92.0
1249,169.8151079625,169.888719,57.0,89.0
1250,169.8151079625,169.89288566250002,64.0,93.0
1251,169.4817749625,169.96927447500002,52.0,89.0
1252,169.9817744625,170.0789965875,57.0,67.0
1253,169.9817744625,170.080385475,61.0,82.0
1254,169.9817744625,170.0817743625,64.0,72.0
1255,170.4817739625,170.5401072375,62.0,100.0
1256,170.4817739625,170.54982945,66.0,88.0
1257,170.4817739625,170.55399611250002,59.0,90.0
1258,170.64844046250002,170.73871815,62.0,85.0
1259,170.64844046250002,170.74566258750002,66.0,77.0
1260,170.64844046250002,170.74844036250002,59.0,76.0
1261,170.14844096250002,170.7998292,47.0,79.0
1262,170.9817734625,171.05121783750002,62.0,100.0
1263,170.9817734625,171.0651067125,59.0,93.0
1264,170.9817734625,171.0664956,66.0,92.0
1265,170.8151069625,171.135939975,54.0,71.0
1266,171.14843996250002,171.26093985,62.0,93.0
1267,171.14843996250002,171.2734398375,59.0,85.0
1268,171.14843996250002,171.28316205000002,66.0,81.0
1269,171.8151059625,171.8873281125,67.0,90.0
1270,171.8151059625,171.888717,64.0,99.0
1271,171.8151059625,171.8956614375,59.0,86.0
1272,171.4817729625,172.0220502,40.0,78.0
1273,171.9817724625,172.0845501375,59.0,88.0
1274,171.9817724625,172.0901056875,64.0,95.0
1275,171.9817724625,172.09427235,67.0,89.0
1276,172.4817719625,172.5845496375,64.0,99.0
1277,172.4817719625,172.58593852500002,67.0,93.0
1278,172.4817719625,172.58871630000002,59.0,90.0
1279,172.1484389625,172.5928829625,52.0,67.0
1280,173.1484379625,173.213715675,64.0,100.0
1281,173.1484379625,173.21649345,67.0,90.0
1282,173.1484379625,173.219271225,59.0,86.0
1283,173.31510446250002,173.4262154625,67.0,89.0
1284,173.31510446250002,173.430382125,59.0,88.0
1285,173.31510446250002,173.430382125,64.0,97.0
1286,172.81510496250002,173.4484376625,40.0,71.0
1287,173.6484374625,173.72065961250001,64.0,88.0
1288,173.6484374625,173.724826275,59.0,79.0
1289,173.6484374625,173.7289929375,67.0,79.0
1290,173.4817709625,173.7998262,47.0,85.0
1291,173.81510396250002,173.913714975,59.0,92.0
1292,173.81510396250002,173.924826075,64.0,100.0
1293,173.81510396250002,173.9262149625,67.0,90.0
1294,174.4817699625,174.5331588,61.0,97.0
1295,174.4817699625,174.5456587875,64.0,88.0
1296,174.4817699625,174.54982545000001,57.0,92.0
1297,174.6484364625,174.7428808125,61.0,95.0
1298,174.6484364625,174.74426970000002,64.0,83.0
1299,174.6484364625,174.7539919125,57.0,81.0
1300,174.1484369625,174.780380775,45.0,72.0
1301,175.1484359625,175.2123247875,61.0,90.0
1302,175.1484359625,175.22760255,57.0,86.0
1303,175.1484359625,175.22760255,64.0,92.0
1304,174.81510296250002,175.374824625,52.0,74.0
1305,175.8151019625,175.863713025,62.0,107.0
1306,175.8151019625,175.885935225,66.0,96.0
1307,175.8151019625,175.89704632500002,59.0,96.0
1308,175.9817684625,176.0776017,62.0,93.0
1309,175.9817684625,176.08315725,59.0,77.0
1310,175.9817684625,176.085935025,66.0,79.0
1311,175.4817689625,176.1095461125,47.0,72.0
1312,176.3151014625,176.37204585,62.0,97.0
1313,176.3151014625,176.3984347125,59.0,90.0
1314,176.3151014625,176.40815692500001,66.0,93.0
1315,176.48176796250002,176.55260122500002,62.0,100.0
1316,176.48176796250002,176.563712325,59.0,79.0
1317,176.48176796250002,176.5664901,66.0,77.0
1318,176.6484344625,176.735934375,62.0,96.0
1319,176.6484344625,176.7456565875,59.0,85.0
1320,176.6484344625,176.7512121375,66.0,83.0
1321,176.1484349625,176.7567676875,54.0,69.0
1322,177.1484339625,177.19982280000002,62.0,97.0
1323,177.1484339625,177.21648945,59.0,86.0
1324,177.1484339625,177.22898943750002,66.0,86.0
1325,177.3151004625,177.39426705,62.0,96.0
1326,177.3151004625,177.40537815000002,66.0,79.0
1327,177.3151004625,177.40815592500002,59.0,88.0
1328,176.8151009625,177.4706558625,47.0,83.0
1329,177.8150999625,177.86371102500001,62.0,85.0
1330,177.8150999625,177.891488775,59.0,85.0
1331,177.8150999625,177.89426655,66.0,79.0
1332,177.48176696250002,178.11093300000002,54.0,85.0
1333,178.48176596250002,178.52898813750002,62.0,102.0
1334,178.48176596250002,178.541488125,59.0,88.0
1335,178.48176596250002,178.541488125,66.0,93.0
1336,178.6484324625,178.747043475,62.0,90.0
1337,178.6484324625,178.75815457500002,59.0,79.0
1338,178.6484324625,178.7623212375,66.0,79.0
1339,178.1484329625,178.79009898750002,47.0,77.0
1340,178.8150989625,179.00537655,54.0,82.0
1341,178.98176546250002,179.04982095,62.0,97.0
1342,178.98176546250002,179.052598725,66.0,90.0
1343,178.98176546250002,179.0623209375,59.0,86.0
1344,179.1484319625,179.24009853750002,62.0,95.0
1345,179.1484319625,179.25815407500002,66.0,90.0
1346,179.1484319625,179.26926517500002,59.0,88.0
1347,179.8150979625,179.8845423375,61.0,93.0
1348,179.8150979625,179.8998201,64.0,88.0
1349,179.8150979625,179.91093120000002,57.0,88.0
1350,179.9817644625,180.06926437500002,61.0,76.0
1351,179.9817644625,180.0789865875,57.0,72.0
1352,179.9817644625,180.102597675,64.0,73.0
1353,179.4817649625,180.1123198875,45.0,66.0
1354,180.4817639625,180.552597225,61.0,99.0
1355,180.4817639625,180.56926387500002,64.0,92.0
1356,180.4817639625,180.5775972,57.0,96.0
1357,180.14843096250002,180.63870825,52.0,97.0
1358,181.14842996250002,181.20398546250001,62.0,90.0
1359,181.14842996250002,181.2150965625,59.0,86.0
1360,181.14842996250002,181.22204100000002,66.0,81.0
1361,181.3150964625,181.40398526250002,66.0,79.0
1362,181.3150964625,181.40537415,62.0,93.0
1363,181.3150964625,181.4150963625,59.0,86.0
1364,180.8150969625,181.4262074625,47.0,72.0
1365,181.4817629625,181.70120718750002,54.0,77.0
1366,181.64842946250002,181.713707175,62.0,93.0
1367,181.64842946250002,181.7234293875,59.0,82.0
1368,181.64842946250002,181.72481827500002,66.0,83.0
1369,181.8150959625,181.89565143750002,62.0,93.0
1370,181.8150959625,181.9150958625,59.0,92.0
1371,181.8150959625,181.9650958125,66.0,89.0
1372,182.4817619625,182.53870635,67.0,88.0
1373,182.4817619625,182.5442619,64.0,100.0
1374,182.4817619625,182.55676188750002,59.0,85.0
1375,182.14842896250002,182.75120613750002,40.0,85.0
1376,182.64842846250002,182.7664839,64.0,88.0
1377,182.64842846250002,182.7678727875,67.0,81.0
1378,182.64842846250002,182.769261675,59.0,77.0
1379,182.9817614625,183.05953916250002,59.0,77.0
1380,182.9817614625,183.05953916250002,67.0,78.0
1381,182.9817614625,183.0650947125,64.0,95.0
1382,183.1484279625,183.26092785,59.0,86.0
1383,183.1484279625,183.26092785,67.0,88.0
1384,183.1484279625,183.2678722875,64.0,95.0
1385,182.8150949625,183.3484277625,47.0,63.0
1386,183.81509396250001,183.85398281250002,67.0,58.0
1387,183.81509396250001,183.88592722500002,59.0,78.0
1388,183.81509396250001,183.88592722500002,64.0,85.0
1389,183.9817604625,184.069260375,59.0,75.0
1390,183.9817604625,184.07203815,67.0,85.0
1391,183.9817604625,184.0845381375,64.0,95.0
1392,183.4817609625,184.1262047625,40.0,69.0
1393,184.31509346250002,184.4039822625,59.0,81.0
1394,184.31509346250002,184.40676003750002,67.0,83.0
1395,184.31509346250002,184.41648225,64.0,90.0
1396,184.1484269625,184.5206488125,47.0,63.0
1397,184.4817599625,184.57203765,67.0,93.0
1398,184.4817599625,184.58870430000002,59.0,97.0
1399,184.4817599625,184.5900931875,64.0,100.0
1400,185.1484259625,185.21509256250002,61.0,88.0
1401,185.1484259625,185.21509256250002,64.0,86.0
1402,185.1484259625,185.224814775,57.0,79.0
1403,184.81509296250002,185.2331481,45.0,69.0
1404,185.31509246250002,185.41787013750002,61.0,83.0
1405,185.31509246250002,185.41787013750002,64.0,83.0
1406,185.31509246250002,185.4220368,57.0,76.0
1407,185.81509196250002,185.902591875,61.0,89.0
1408,185.81509196250002,185.908147425,57.0,89.0
1409,185.81509196250002,185.9220363,64.0,88.0
1410,185.4817589625,186.0984250125,52.0,54.0
1411,186.4817579625,186.54703567500002,62.0,99.0
1412,186.4817579625,186.55259122500001,59.0,88.0
1413,186.4817579625,186.56092455,66.0,92.0
1414,186.6484244625,186.76509101250002,62.0,90.0
1415,186.6484244625,186.76786878750002,66.0,83.0
1416,186.6484244625,186.77342433750002,59.0,78.0
1417,186.1484249625,186.7956465375,47.0,65.0
1418,186.9817574625,187.04147962500002,62.0,88.0
1419,186.9817574625,187.05536850000001,66.0,83.0
1420,186.9817574625,187.058146275,59.0,79.0
1421,187.1484239625,187.2373127625,62.0,92.0
1422,187.1484239625,187.2484238625,66.0,85.0
1423,187.1484239625,187.2512016375,59.0,85.0
1424,186.81509096250002,187.4095348125,54.0,66.0
1425,187.8150899625,187.8664788,64.0,89.0
1426,187.8150899625,187.885923225,67.0,88.0
1427,187.8150899625,187.891478775,59.0,89.0
1428,187.48175696250001,187.9539787125,40.0,78.0
1429,187.98175646250002,188.05258972500002,67.0,79.0
1430,187.98175646250002,188.063700825,64.0,72.0
1431,187.98175646250002,188.0873119125,59.0,74.0
1432,188.1484229625,188.32620056250002,47.0,77.0
1433,188.48175596250002,188.5373114625,64.0,102.0
1434,188.48175596250002,188.5428670125,67.0,102.0
1435,188.48175596250002,188.56092255000002,59.0,97.0
1436,189.1484219625,189.185921925,64.0,112.0
1437,189.1484219625,189.197033025,67.0,97.0
1438,189.1484219625,189.2234218875,59.0,99.0
1439,189.3150884625,189.3956439375,64.0,85.0
1440,189.3150884625,189.3998106,67.0,88.0
1441,189.3150884625,189.41092170000002,59.0,72.0
1442,188.8150889625,189.41369947500002,40.0,64.0
1443,189.8150879625,189.88175456250002,67.0,76.0
1444,189.48175496250002,189.9123100875,47.0,89.0
1445,189.8150879625,189.9150878625,59.0,100.0
1446,190.1484209625,190.4734206375,61.0,102.0
1447,190.1484209625,190.48175396250002,52.0,89.0
1448,190.1484209625,190.48730951250002,64.0,102.0
1449,190.1484209625,190.49425395,45.0,85.0
1450,190.1484209625,190.49425395,57.0,97.0
1451,193.14841796250002,193.20536235,66.0,61.0
1452,193.14841796250002,193.2261956625,62.0,107.0
1453,193.14841796250002,193.2428623125,59.0,100.0
1454,193.3150844625,193.3400844375,66.0,32.0
1455,193.3150844625,193.4095288125,62.0,62.0
1456,193.3150844625,193.42202880000002,59.0,67.0
1457,192.8150849625,193.4595287625,47.0,89.0
1458,193.8150839625,193.8623061375,66.0,64.0
1459,193.8150839625,193.88313945000002,62.0,102.0
1460,193.8150839625,193.9123060875,59.0,97.0
1461,193.4817509625,193.98313935000002,54.0,53.0
1462,194.4817499625,194.519249925,66.0,42.0
1463,194.4817499625,194.558138775,62.0,100.0
1464,194.4817499625,194.5734165375,59.0,97.0
1465,194.6484164625,194.7150830625,66.0,75.0
1466,194.6484164625,194.72758305000002,62.0,92.0
1467,194.6484164625,194.7400830375,59.0,82.0
1468,194.14841696250002,194.80952741250002,47.0,75.0
1469,195.1484159625,195.224804775,66.0,74.0
1470,195.1484159625,195.23036032500002,62.0,102.0
1471,194.81508296250001,195.24147142500001,54.0,62.0
1472,195.1484159625,195.2484158625,59.0,99.0
1473,195.4817489625,195.8373041625,45.0,89.0
1474,195.81508196250002,195.84424860000001,64.0,56.0
1475,195.81508196250002,195.86508191250002,61.0,86.0
1476,195.81508196250002,195.8928596625,57.0,95.0
1477,195.9817484625,196.0484150625,61.0,85.0
1478,195.9817484625,196.06230393750002,57.0,75.0
1479,195.9817484625,196.06230393750002,64.0,83.0
1480,196.4817479625,196.53869235000002,61.0,102.0
1481,196.1484149625,196.54147012500002,52.0,59.0
1482,196.4817479625,196.55952566250002,64.0,99.0
1483,196.4817479625,196.56091455,57.0,97.0
1484,197.1484139625,197.180358375,64.0,83.0
1485,197.1484139625,197.1873028125,61.0,92.0
1486,197.1484139625,197.19146947500002,57.0,88.0
1487,196.81508096250002,197.269247175,45.0,70.0
1488,197.31508046250002,197.3789692875,61.0,83.0
1489,197.31508046250002,197.39424705000002,64.0,75.0
1490,197.31508046250002,197.4039692625,57.0,75.0
1491,197.81507996250002,197.84980215000002,64.0,69.0
1492,197.81507996250002,197.863691025,61.0,99.0
1493,197.4817469625,197.87063546250002,52.0,70.0
1494,197.81507996250002,197.9011909875,57.0,99.0
1495,198.1484129625,199.1095231125,47.0,97.0
1496,198.1484129625,200.5664661,59.0,107.0
1497,198.1484129625,200.5678549875,66.0,76.0
1498,198.1484129625,200.57896608750002,62.0,102.0
