,start,end,pitch,velocity
0,26.332064666666668,26.480398,70.0,112.0
1,26.53206466666667,26.650398000000003,68.0,101.0
2,26.73206466666667,26.843731333333338,70.0,109.0
3,26.93206466666667,27.035398,73.0,112.0
4,27.132064666666672,27.403731333333337,68.0,104.0
5,27.53206466666667,27.817064666666667,70.0,106.0
6,27.93206466666667,28.64206466666667,66.0,106.0
7,28.73206466666667,29.027064666666668,66.0,112.0
8,29.132064666666672,29.36706466666667,68.0,112.0
9,29.53206466666667,29.67873133333334,70.0,104.0
10,29.73206466666667,29.832064666666668,68.0,106.0
11,29.93206466666667,30.055398000000004,70.0,109.0
12,30.132064666666672,30.222064666666668,73.0,109.0
13,30.332064666666668,30.60706466666667,68.0,109.0
14,30.73206466666667,31.022064666666672,70.0,109.0
15,31.132064666666672,31.718731333333338,66.0,112.0
16,31.93206466666667,32.158731333333336,68.0,106.0
17,32.33206466666667,32.552064666666666,70.0,112.0
18,32.73206466666667,32.838731333333335,71.0,101.0
19,32.93206466666667,33.02373133333334,70.0,115.0
20,33.13206466666667,33.22706466666667,71.0,112.0
21,33.33206466666667,33.440398,75.0,104.0
22,33.53206466666667,33.808731333333334,70.0,109.0
23,33.93206466666667,34.160398,71.0,106.0
24,34.33206466666667,34.915398,68.0,109.0
25,35.13206466666667,35.423731333333336,63.0,115.0
26,35.53206466666667,35.77373133333334,66.0,115.0
27,35.93206466666667,36.20373133333334,70.0,109.0
28,36.33206466666667,36.57539800000001,68.0,109.0
29,36.73206466666667,37.00706466666667,68.0,112.0
30,37.13206466666667,37.40706466666667,66.0,106.0
31,37.53206466666667,38.81373133333334,68.0,109.0
32,39.13206466666667,39.280398000000005,70.0,112.0
33,39.33206466666667,39.45039800000001,68.0,101.0
34,39.53206466666667,39.643731333333335,70.0,109.0
35,39.73206466666667,39.835398000000005,73.0,112.0
36,39.93206466666667,40.20373133333334,68.0,104.0
37,40.33206466666667,40.61706466666667,70.0,106.0
38,40.73206466666667,41.44206466666667,66.0,106.0
39,41.53206466666667,41.82706466666667,66.0,112.0
40,41.93206466666667,42.167064666666676,68.0,112.0
41,42.33206466666667,42.478731333333336,70.0,104.0
42,42.53206466666667,42.63206466666667,68.0,106.0
43,42.73206466666667,42.85539800000001,70.0,109.0
44,42.93206466666667,43.022064666666665,73.0,109.0
45,43.13206466666667,43.40706466666667,68.0,109.0
46,43.53206466666667,43.82206466666667,70.0,109.0
47,43.93206466666667,44.518731333333335,66.0,112.0
48,44.73206466666667,44.95873133333333,68.0,106.0
49,45.13206466666667,45.35206466666667,70.0,112.0
50,45.53206466666667,45.63873133333334,71.0,101.0
51,45.73206466666667,45.82373133333334,70.0,115.0
52,45.932064666666676,46.027064666666675,71.0,112.0
53,46.13206466666667,46.240398,75.0,104.0
54,46.33206466666667,46.60873133333334,70.0,109.0
55,46.73206466666667,46.960398000000005,71.0,106.0
56,47.13206466666667,47.71539800000001,68.0,109.0
57,47.932064666666676,48.22373133333333,63.0,115.0
58,48.33206466666667,48.57373133333334,66.0,115.0
59,48.73206466666667,49.003731333333334,70.0,109.0
60,49.13206466666667,49.375398000000004,68.0,109.0
61,49.53206466666667,49.807064666666676,68.0,112.0
62,49.932064666666676,50.20884381250001,66.0,106.0
63,50.335532875000006,51.345667000000006,68.0,109.0
64,51.551747875000004,51.6851936875,66.0,109.0
65,51.754450375000005,51.85411243750001,68.0,104.0
66,51.957152875000006,52.23417962500001,70.0,112.0
67,52.36255787500001,52.577084687500005,68.0,112.0
68,52.76796287500001,53.024719375000004,70.0,109.0
69,53.17334535416667,53.39667868750001,75.0,101.0
70,53.57334535416667,54.4166786875,73.0,109.0
71,54.77334535416667,54.89334535416667,63.0,109.0
72,54.973345354166675,55.06667868750001,65.0,117.0
73,55.17334535416667,55.440012020833336,66.0,101.0
74,55.57334535416667,55.836678687500005,63.0,117.0
75,55.973345354166675,56.251678687500004,66.0,106.0
76,56.37334535416667,56.60334535416667,71.0,104.0
77,56.77334535416667,57.51501202083334,70.0,109.0
78,57.973345354166675,58.10834535416667,68.0,106.0
79,58.17334535416667,58.28667868750001,70.0,106.0
80,58.37334535416667,58.64834535416667,68.0,109.0
81,58.77334535416667,58.88501202083334,68.0,109.0
82,58.973345354166675,59.08834535416667,66.0,104.0
83,59.17334535416667,59.46834535416667,68.0,115.0
84,59.573345354166676,59.68834535416667,66.0,106.0
85,59.77334535416667,59.88501202083334,68.0,112.0
86,59.973345354166675,60.26501202083334,70.0,106.0
87,60.37334535416667,60.59001202083334,73.0,104.0
88,60.77334535416667,61.05501202083334,70.0,109.0
89,61.17334535416667,61.26834535416667,68.0,112.0
90,61.37334535416667,61.46334535416668,70.0,104.0
91,61.573345354166676,61.821678687500004,68.0,112.0
92,61.973345354166675,62.10001202083334,66.0,106.0
93,62.17334535416667,62.27667868750001,70.0,104.0
94,62.37334535416667,62.62334535416667,68.0,112.0
95,62.77334535416667,63.03334535416667,68.0,112.0
96,63.17334535416667,65.18334535416668,66.0,109.0
97,65.97334535416667,66.10334535416668,70.0,109.0
98,66.17334535416667,66.26834535416667,73.0,106.0
99,66.37334535416667,66.64550735416667,75.0,106.0
100,66.77726397916668,67.03233129166668,78.0,109.0
101,67.18266897916668,67.44111466666668,75.0,109.0
102,67.58807397916668,67.83300616666668,73.0,112.0
103,67.99347897916667,68.90901860416668,70.0,112.0
104,69.20969397916667,69.33300466666667,70.0,112.0
105,69.41239647916667,69.51374772916667,73.0,112.0
106,69.61509897916667,69.71813941666667,68.0,109.0
107,69.81780147916668,70.05597691666668,68.0,109.0
108,70.22320647916668,70.33976041666668,70.0,109.0
109,70.42590897916668,70.66577360416667,68.0,112.0
110,70.83131397916668,70.94280035416668,66.0,106.0
111,71.03401647916667,71.13030016666667,68.0,106.0
112,71.23671897916667,72.08975866666667,70.0,104.0
113,72.44910543750001,72.53910543750001,68.0,115.0
114,72.64910543750001,72.74410543750001,70.0,106.0
115,72.84910543750001,73.13743877083334,68.0,115.0
116,73.2491054375,73.4691054375,70.0,101.0
117,73.64910543750001,73.88577210416668,68.0,115.0
118,74.04910543750002,74.15243877083334,66.0,106.0
119,74.2491054375,74.34743877083335,68.0,112.0
120,74.44910543750001,74.72577210416668,70.0,109.0
121,74.84910543750001,75.08410543750001,73.0,106.0
122,75.2491054375,75.53410543750002,70.0,109.0
123,75.64910543750001,75.78743877083335,70.0,106.0
124,75.84910543750001,75.95910543750001,73.0,109.0
125,76.04910543750002,76.27910543750001,75.0,109.0
126,76.44910543750001,76.71577210416667,78.0,109.0
127,76.84910543750001,77.09910543750001,75.0,104.0
128,77.2491054375,77.54410543750001,70.0,101.0
129,77.64910543750001,78.7191054375,73.0,112.0
130,78.84910543750001,78.97910543750001,70.0,109.0
131,79.04910543750002,79.14410543750002,73.0,106.0
132,79.2491054375,79.51910543750002,75.0,106.0
133,79.64910543750001,79.90077210416668,78.0,109.0
134,80.04910543750002,80.30410543750001,75.0,109.0
135,80.44910543750001,80.69077210416668,73.0,112.0
136,80.84910543750001,81.75243877083335,70.0,112.0
137,82.04910543750002,82.17077210416667,70.0,112.0
138,82.2491054375,82.34910543750001,73.0,112.0
139,82.44910543750001,82.55077210416668,68.0,109.0
140,82.64910543750001,82.88410543750001,68.0,109.0
141,83.04910543750002,83.16410543750001,70.0,109.0
142,83.2491054375,83.48577210416667,68.0,112.0
143,83.64910543750001,83.75910543750001,66.0,106.0
144,83.84910543750001,83.94410543750001,68.0,106.0
145,84.04910543750002,84.89077210416667,70.0,104.0
146,85.2491054375,85.33910543750001,68.0,115.0
147,85.44910543750001,85.54410543750001,70.0,106.0
148,85.64910543750001,85.93743877083335,68.0,115.0
149,86.04910543750002,86.26910543750002,70.0,101.0
150,86.44910543750001,86.68577210416667,68.0,115.0
151,86.84910543750001,86.95243877083334,66.0,106.0
152,87.04910543750002,87.14743877083335,68.0,112.0
153,87.2491054375,87.52577210416668,70.0,109.0
154,87.64910543750001,87.88410543750001,73.0,106.0
155,88.04910543750002,88.33410543750001,70.0,109.0
156,88.44910543750001,88.58743877083334,70.0,106.0
157,88.64910543750001,88.75910543750001,73.0,109.0
158,88.84910543750001,89.0791054375,75.0,109.0
159,89.24910543750002,89.51577210416667,78.0,109.0
160,89.64910543750001,89.89910543750001,75.0,104.0
161,90.0491054375,90.34410543750002,70.0,101.0
162,90.44910543750001,91.51910543750002,73.0,112.0
163,92.84910543750001,92.99577210416668,70.0,109.0
164,93.04910543750002,93.14743877083335,73.0,112.0
165,93.24910543750002,93.35243877083334,75.0,106.0
166,93.44910543750001,93.56077210416669,78.0,115.0
167,93.64910543750001,93.87410543750002,78.0,109.0
168,94.04910543750002,94.23577210416667,73.0,78.0
169,94.44910543750001,94.54743877083334,70.0,101.0
170,94.64910543750001,94.74743877083334,73.0,115.0
171,94.84910543750001,94.9541054375,75.0,94.0
172,95.04910543750002,95.16077210416668,78.0,109.0
173,95.24910543750002,95.4841054375,78.0,112.0
174,95.64910543750001,96.01077210416668,75.0,106.0
175,96.44910543750001,96.55077210416668,70.0,115.0
176,96.64910543750001,96.76743877083334,68.0,109.0
177,96.84910543750001,96.94743877083334,70.0,115.0
178,97.04910543750002,97.20910543750001,73.0,112.0
179,97.44910543750001,97.54243877083334,73.0,112.0
180,97.64910543750001,97.85577210416668,73.0,109.0
181,98.04910543750002,98.30410543750001,70.0,109.0
182,98.44910543750001,99.07410543750001,75.0,104.0
183,99.24910543750002,99.39577210416668,70.0,109.0
184,99.44910543750001,99.54743877083334,73.0,112.0
185,99.64910543750001,99.75243877083335,75.0,106.0
186,99.84910543750001,99.96077210416668,78.0,115.0
187,100.04910543750002,100.27410543750001,78.0,109.0
188,100.44910543750001,100.63577210416668,73.0,78.0
189,100.84910543750001,100.94743877083334,70.0,101.0
190,101.04910543750002,101.14743877083335,73.0,115.0
191,101.24910543750002,101.35410543750001,75.0,94.0
192,101.44910543750001,101.56077210416669,78.0,109.0
193,101.64910543750001,101.88410543750001,78.0,112.0
194,102.04910543750002,102.41077210416668,75.0,106.0
195,102.84910543750001,102.95077210416667,70.0,115.0
196,103.04910543750002,103.16743877083334,68.0,109.0
197,103.24910543750002,103.34743877083335,70.0,115.0
198,103.44910543750001,103.6091054375,73.0,112.0
199,103.84910543750001,103.94243877083335,73.0,112.0
200,104.04910543750002,104.25577210416668,73.0,109.0
201,104.44910543750001,104.7041054375,70.0,109.0
202,104.84910543750001,105.47410543750001,75.0,104.0
203,106.05174037500001,106.21221318750001,70.0,109.0
204,106.25444287500001,106.3608616875,73.0,112.0
205,106.45714537500001,106.70207756250001,75.0,109.0
206,106.86255037500001,107.07032043750002,78.0,106.0
207,107.26795537500001,107.5838334375,80.0,115.0
208,107.67336037500002,107.87606287500002,78.0,106.0
209,108.07876537500002,108.68011612500001,77.0,107.0
210,108.889575375,109.173358875,75.0,115.0
211,109.29498037500001,109.60072331250001,73.0,109.0
212,109.70038537500001,112.28448241666668,75.0,106.0
213,125.72781575,125.87614908333335,70.0,112.0
214,125.92781575000001,126.04614908333335,68.0,101.0
215,126.12781575000001,126.23948241666668,70.0,109.0
216,126.32781575000001,126.43114908333334,73.0,112.0
217,126.52781575,126.79948241666668,68.0,104.0
218,126.92781575000001,127.21281575,70.0,106.0
219,127.32781575000001,128.03781575,66.0,106.0
220,128.12781575,128.42281575,66.0,112.0
221,128.52781575,128.76281575000002,68.0,112.0
222,128.92781575,129.07448241666668,70.0,104.0
223,129.12781575,129.22781575000002,68.0,106.0
224,129.32781575,129.45114908333335,70.0,109.0
225,129.52781575,129.61781575,73.0,109.0
226,129.72781575000002,130.00281575,68.0,109.0
227,130.12781575,130.41781575000002,70.0,109.0
228,130.52781575,131.11448241666668,66.0,112.0
229,131.32781575,131.55448241666667,68.0,106.0
230,131.72781575000002,131.94781575000002,70.0,112.0
231,132.12781575,132.23448241666668,71.0,101.0
232,132.32781575,132.41948241666668,70.0,115.0
233,132.52781575,132.62281575,71.0,112.0
234,132.72781575000002,132.83614908333334,75.0,104.0
235,132.92781575,133.20448241666668,70.0,109.0
236,133.32781575,133.55614908333334,71.0,106.0
237,133.72781575000002,134.31114908333333,68.0,109.0
238,134.52781575,134.8194824166667,63.0,115.0
239,134.92781575,135.16948241666668,66.0,115.0
240,135.32781575,135.59948241666666,70.0,109.0
241,135.72781575000002,135.97114908333333,68.0,109.0
242,136.12781575,136.40281575,68.0,112.0
243,136.52781575,136.80281575,66.0,106.0
244,136.92781575,137.92448241666668,68.0,109.0
245,138.12781575,138.25988779166667,66.0,109.0
246,138.32914447916667,138.4288065416667,68.0,104.0
247,138.5318469791667,138.8088737291667,70.0,112.0
248,138.9372519791667,139.1517787916667,68.0,112.0
249,139.3426569791667,139.59941347916669,70.0,109.0
250,139.7480619791667,139.97441310416667,75.0,101.0
251,140.1534669791667,141.00819585416667,73.0,109.0
252,141.36968197916667,141.49130347916667,63.0,109.0
253,141.5723844791667,141.6669789791667,65.0,117.0
254,141.77508697916667,142.04535697916668,66.0,101.0
255,142.18049197916667,142.44738360416667,63.0,117.0
256,142.58589697916668,142.8679912916667,66.0,106.0
257,142.99130197916668,143.22440985416668,71.0,104.0
258,143.39670697916668,144.1483954166667,70.0,109.0
259,144.61292197916669,144.74974616666668,68.0,106.0
260,144.81562447916667,144.93048922916668,70.0,106.0
261,145.0183269791667,145.2970429166667,68.0,109.0
262,145.4237319791667,145.5369075416667,68.0,109.0
263,145.62643447916668,145.7429884166667,66.0,104.0
264,145.8291369791667,146.1266593125,68.0,115.0
265,146.23165931250003,146.34665931250004,66.0,106.0
266,146.43165931250002,146.5433259791667,68.0,112.0
267,146.63165931250003,146.9233259791667,70.0,106.0
268,147.0316593125,147.24832597916668,73.0,104.0
269,147.43165931250002,147.71332597916668,70.0,109.0
270,147.83165931250002,147.92665931250002,68.0,112.0
271,148.0316593125,148.12165931250001,70.0,104.0
272,148.23165931250003,148.47999264583336,68.0,112.0
273,148.63165931250003,148.7583259791667,66.0,106.0
274,148.83165931250002,148.93499264583335,70.0,104.0
275,149.0316593125,149.2816593125,68.0,112.0
276,149.43165931250002,149.69165931250004,68.0,112.0
277,149.83165931250002,151.8416593125,66.0,109.0
278,152.63165931250003,152.76165931250003,70.0,109.0
279,152.83165931250002,152.92665931250002,73.0,106.0
280,153.0316593125,153.30165931250002,75.0,106.0
281,153.43165931250002,153.68332597916668,78.0,109.0
282,153.83165931250002,154.08665931250002,75.0,109.0
283,154.23165931250003,154.4733259791667,73.0,112.0
284,154.63165931250003,155.53499264583337,70.0,112.0
285,155.83165931250002,155.9533259791667,70.0,112.0
286,156.0316593125,156.13165931250003,73.0,112.0
287,156.23165931250003,156.3333259791667,68.0,109.0
288,156.43165931250002,156.66665931250003,68.0,109.0
289,156.83165931250002,156.94665931250003,70.0,109.0
290,157.0316593125,157.2683259791667,68.0,112.0
291,157.43165931250002,157.54165931250003,66.0,106.0
292,157.63165931250003,157.72665931250003,68.0,106.0
293,157.83165931250002,158.6733259791667,70.0,104.0
294,159.0316593125,159.12165931250001,68.0,115.0
295,159.23165931250003,159.32665931250003,70.0,106.0
296,159.43165931250002,159.71999264583337,68.0,115.0
297,159.83165931250002,160.05165931250002,70.0,101.0
298,160.23165931250003,160.46832597916668,68.0,115.0
299,160.63165931250003,160.73499264583336,66.0,106.0
300,160.83165931250002,160.92999264583335,68.0,112.0
301,161.0316593125,161.30832597916668,70.0,109.0
302,161.43165931250002,161.66665931250003,73.0,106.0
303,161.83165931250002,162.11665931250002,70.0,109.0
304,162.23165931250003,162.36999264583335,70.0,106.0
305,162.43165931250002,162.54165931250003,73.0,109.0
306,162.63165931250003,162.86165931250002,75.0,109.0
307,163.03165931250004,163.2983259791667,78.0,109.0
308,163.43165931250002,163.68165931250002,75.0,104.0
309,163.83165931250002,164.1266593125,70.0,101.0
310,164.23197460416668,165.31643297916668,73.0,112.0
311,166.6644046041667,166.8130531041667,70.0,109.0
312,166.86710710416668,166.9667691666667,73.0,112.0
313,167.0698096041667,167.1745392291667,75.0,106.0
314,167.27251210416668,167.38568766666668,78.0,115.0
315,167.4752146041667,167.70296214583337,78.0,109.0
316,167.87796214583335,168.06462881250002,73.0,78.0
317,168.27796214583336,168.37629547916669,70.0,101.0
318,168.47796214583335,168.5762954791667,73.0,115.0
319,168.67796214583336,168.78296214583335,75.0,94.0
320,168.87796214583335,168.98962881250003,78.0,109.0
321,169.07796214583337,169.31296214583335,78.0,112.0
322,169.47796214583337,169.83962881250002,75.0,106.0
323,170.27796214583336,170.37962881250002,70.0,115.0
324,170.47796214583337,170.59629547916668,68.0,109.0
325,170.67796214583336,170.7762954791667,70.0,115.0
326,170.87796214583335,171.03796214583335,73.0,112.0
327,171.27796214583336,171.3712954791667,73.0,112.0
328,171.47796214583337,171.68462881250002,73.0,109.0
329,171.87796214583335,172.13296214583335,70.0,109.0
330,172.27796214583336,172.90296214583336,75.0,104.0
331,173.07796214583337,173.22462881250001,70.0,109.0
332,173.27796214583336,173.37629547916669,73.0,112.0
333,173.47796214583337,173.5812954791667,75.0,106.0
334,173.67796214583336,173.7896288125,78.0,115.0
335,173.87796214583335,174.10296214583337,78.0,109.0
336,174.27796214583336,174.46462881250002,73.0,78.0
337,174.67796214583336,174.7762954791667,70.0,101.0
338,174.87796214583335,174.97629547916668,73.0,115.0
339,175.07796214583337,175.18296214583336,75.0,94.0
340,175.27796214583336,175.38962881250004,78.0,109.0
341,175.47796214583337,175.71296214583336,78.0,112.0
342,175.87796214583335,176.23962881250003,75.0,106.0
343,176.67796214583336,176.77962881250002,70.0,115.0
344,176.87796214583335,176.9962954791667,68.0,109.0
345,177.07796214583337,177.1762954791667,70.0,115.0
346,177.27796214583336,177.43796214583335,73.0,112.0
347,177.67796214583336,177.7712954791667,73.0,112.0
348,177.87796214583335,178.08462881250003,73.0,109.0
349,178.27796214583336,178.53296214583335,70.0,109.0
350,178.67796214583336,179.30296214583336,75.0,104.0
351,179.87796214583335,180.03629547916668,70.0,109.0
352,180.07796214583337,180.18296214583336,73.0,112.0
353,180.27796214583336,180.51962881250003,75.0,109.0
354,180.67796214583336,180.88296214583335,78.0,106.0
355,181.07796214583337,181.38962881250004,80.0,115.0
356,181.47796214583337,181.67796214583336,78.0,106.0
357,181.87796214583335,182.47129547916668,77.0,107.0
358,182.67796214583336,182.95796214583336,75.0,115.0
359,183.07796214583337,183.37962881250002,73.0,109.0
360,183.47796214583337,186.03462881250002,75.0,106.0
361,211.55734808333338,211.7059965833334,70.0,109.0
362,211.76005058333337,211.85971264583338,73.0,112.0
363,211.96275308333338,212.0674827083334,75.0,106.0
364,212.16545558333337,212.27863114583337,78.0,115.0
365,212.36815808333338,212.59619839583337,78.0,109.0
366,212.77356308333339,212.96275208333338,73.0,78.0
367,213.1789680833334,213.27863014583338,70.0,101.0
368,213.38167058333337,213.48133264583336,73.0,115.0
369,213.58437308333336,213.69079189583337,75.0,94.0
370,213.78707558333338,213.90025114583338,78.0,109.0
371,213.98977808333336,214.22795352083338,78.0,112.0
372,214.39518308333336,214.76173677083338,75.0,106.0
373,215.20599308333337,215.30903352083337,70.0,115.0
374,215.40869558333338,215.52725412500004,68.0,109.0
375,215.60892079166672,215.70725412500005,70.0,115.0
376,215.8089207916667,215.9689207916667,73.0,112.0
377,216.2089207916667,216.30225412500005,73.0,112.0
378,216.4089207916667,216.61558745833338,73.0,109.0
379,216.8089207916667,217.0639207916667,70.0,109.0
380,217.2089207916667,217.8339207916667,75.0,104.0
381,218.00892079166672,218.15558745833337,70.0,109.0
382,218.2089207916667,218.30725412500004,73.0,112.0
383,218.4089207916667,218.51225412500006,75.0,106.0
384,218.60892079166672,218.72058745833337,78.0,115.0
385,218.8089207916667,219.0339207916667,78.0,109.0
386,219.2089207916667,219.39558745833338,73.0,78.0
387,219.60892079166672,219.70725412500005,70.0,101.0
388,219.8089207916667,219.90725412500004,73.0,115.0
389,220.00892079166672,220.11392079166671,75.0,94.0
390,220.2089207916667,220.3205874583334,78.0,109.0
391,220.4089207916667,220.64392079166672,78.0,112.0
392,220.8089207916667,221.1705874583334,75.0,106.0
393,221.60892079166672,221.71058745833338,70.0,115.0
394,221.8089207916667,221.92725412500005,68.0,109.0
395,222.00892079166672,222.10725412500005,70.0,115.0
396,222.2089207916667,222.3689207916667,73.0,112.0
397,222.60892079166672,222.70225412500005,73.0,112.0
398,222.8089207916667,223.01558745833339,73.0,109.0
399,223.2089207916667,223.4639207916667,70.0,109.0
400,223.60892079166672,224.23392079166672,75.0,104.0
401,224.8089207916667,224.96725412500004,70.0,109.0
402,225.00892079166672,225.11392079166671,73.0,112.0
403,225.2089207916667,225.4505874583334,75.0,109.0
404,225.60892079166672,225.8139207916667,78.0,106.0
405,226.00892079166672,226.3205874583334,80.0,115.0
406,226.40892079166673,226.60892079166672,78.0,106.0
407,226.8089207916667,227.40225412500004,77.0,107.0
408,227.60892079166672,227.88892079166672,75.0,115.0
409,228.00892079166672,228.31058745833337,73.0,109.0
410,228.40892079166673,230.96558745833337,75.0,106.0
411,231.2089207916667,231.36725412500004,70.0,109.0
412,231.40892079166673,231.51392079166672,73.0,112.0
413,231.60892079166672,231.8505874583334,75.0,109.0
414,232.00892079166672,232.2139207916667,78.0,106.0
415,232.40892079166673,232.7205874583334,80.0,115.0
416,232.8089207916667,233.00892079166672,78.0,106.0
417,233.2089207916667,233.80225412500005,77.0,107.0
418,234.00892079166672,234.28892079166673,75.0,115.0
419,234.40892079166673,234.71058745833338,73.0,109.0
420,234.8089207916667,237.36558745833338,75.0,106.0
