,start,end,pitch,velocity
0,0.6333333333333334,1.2633333333333334,58.0,101.0
1,0.6333333333333334,1.2983333333333333,54.0,96.0
2,1.0333333333333334,1.5066666666666668,49.0,66.0
3,1.4333333333333333,1.7850000000000001,61.0,104.0
4,1.4333333333333333,1.8716666666666668,58.0,99.0
5,1.8333333333333335,2.2616666666666667,49.0,45.0
6,2.2333333333333334,2.6383333333333336,61.0,96.0
7,2.2333333333333334,2.71,58.0,85.0
8,3.0333333333333337,3.1283333333333334,54.0,85.0
9,0.6333333333333334,3.146666666666667,42.0,104.0
10,3.0333333333333337,3.4800000000000004,58.0,104.0
11,3.0333333333333337,3.496666666666667,61.0,104.0
12,3.4333333333333336,3.5583333333333336,54.0,96.0
13,3.8333333333333335,4.381666666666667,63.0,104.0
14,3.8333333333333335,4.3950000000000005,58.0,101.0
15,3.8333333333333335,4.876666666666667,51.0,101.0
16,4.633333333333334,4.955,66.0,94.0
17,4.633333333333334,4.981666666666667,63.0,101.0
18,5.433333333333334,5.945,58.0,74.0
19,5.433333333333334,5.946666666666667,66.0,99.0
20,5.433333333333334,5.98,63.0,99.0
21,5.833333333333334,6.3100000000000005,54.0,85.0
22,5.833333333333334,6.318333333333333,51.0,73.0
23,6.233333333333333,6.675000000000001,63.0,106.0
24,6.233333333333333,6.683333333333334,66.0,104.0
25,6.633333333333334,6.7700000000000005,58.0,109.0
26,7.033333333333334,7.548333333333334,58.0,94.0
27,7.033333333333334,7.585000000000001,54.0,99.0
28,7.833333333333334,8.078333333333333,61.0,101.0
29,7.833333333333334,8.15,58.0,101.0
30,7.433333333333334,8.690000000000001,49.0,38.0
31,8.633333333333335,9.045,61.0,101.0
32,8.633333333333335,9.076666666666668,58.0,99.0
33,9.033333333333333,9.665000000000001,49.0,69.0
34,7.033333333333334,9.770000000000001,42.0,91.0
35,9.433333333333334,9.866666666666667,58.0,109.0
36,9.433333333333334,9.88,61.0,109.0
37,9.833333333333334,9.968333333333334,54.0,112.0
38,10.233333333333334,10.378333333333334,39.0,91.0
39,10.233333333333334,10.450000000000001,51.0,96.0
40,10.233333333333334,10.478333333333333,54.0,101.0
41,11.033333333333333,11.616035833333335,66.0,99.0
42,11.033333333333333,11.681914145833334,63.0,96.0
43,11.433603583333333,12.029886770833334,58.0,61.0
44,11.839008583333333,12.323805395833334,70.0,104.0
45,11.839008583333333,12.455562020833334,66.0,106.0
46,12.244413583333333,12.702183395833334,58.0,76.0
47,11.433603583333333,12.754548208333334,51.0,37.0
48,12.649818583333333,12.798467083333334,63.0,104.0
49,12.649818583333333,12.817048145833335,66.0,109.0
50,12.649818583333333,12.822115708333333,70.0,106.0
51,13.055223583333333,13.222453145833335,61.0,91.0
52,13.460628583333335,13.928533520833334,63.0,96.0
53,13.460628583333335,13.945425395833334,59.0,89.0
54,13.866033583333333,14.403195208333335,54.0,56.0
55,14.271438583333335,14.420087083333334,59.0,99.0
56,13.460628583333335,14.524816708333335,47.0,101.0
57,14.271438583333335,14.673465208333335,63.0,104.0
58,14.271438583333335,14.735965145833335,66.0,99.0
59,14.676843583333333,14.798465083333333,59.0,94.0
60,15.082248583333335,15.217383583333334,37.0,96.0
61,15.082248583333335,15.730896583333333,61.0,104.0
62,15.082248583333335,15.735964145833336,65.0,101.0
63,15.487653583333334,16.016369270833334,49.0,96.0
64,15.893058583333335,16.060288145833333,61.0,104.0
65,15.893058583333335,16.364341895833334,65.0,107.0
66,15.893058583333335,16.452179645833333,68.0,106.0
67,16.298463583333334,16.509612020833334,61.0,106.0
68,16.703868583333335,17.121097895833334,63.0,99.0
69,16.703868583333335,17.121097895833334,66.0,101.0
70,17.109273583333334,17.605894708333334,58.0,78.0
71,16.703868583333335,17.610962270833333,51.0,94.0
72,17.514678583333335,17.987651083333333,63.0,106.0
73,17.514678583333335,17.999475395833336,66.0,106.0
74,18.325488583333335,18.501164083333336,63.0,99.0
75,18.325488583333335,18.773123270833334,66.0,104.0
76,18.730893583333334,18.875398000000004,63.0,94.0
77,19.13206466666667,19.323731333333335,63.0,109.0
78,19.13206466666667,19.495398,51.0,80.0
79,19.13206466666667,19.508731333333337,58.0,94.0
80,19.13206466666667,19.510398000000002,66.0,106.0
81,19.53206466666667,19.707064666666668,61.0,109.0
82,19.93206466666667,20.380398000000003,63.0,99.0
83,19.93206466666667,20.460398,59.0,96.0
84,20.73206466666667,20.90706466666667,59.0,99.0
85,19.93206466666667,21.04206466666667,47.0,99.0
86,20.332064666666668,21.043731333333337,54.0,69.0
87,20.73206466666667,21.18206466666667,63.0,101.0
88,20.73206466666667,21.25706466666667,66.0,101.0
89,21.13206466666667,21.335398,59.0,99.0
90,21.53206466666667,22.145398000000004,61.0,96.0
91,21.53206466666667,22.173731333333336,65.0,101.0
92,21.93206466666667,22.370398,56.0,87.0
93,21.53206466666667,22.435398000000003,49.0,104.0
94,22.332064666666668,22.53206466666667,61.0,109.0
95,22.332064666666668,22.79206466666667,65.0,120.0
96,22.73206466666667,22.878731333333334,61.0,101.0
97,23.13206466666667,23.635398000000002,66.0,104.0
98,23.13206466666667,23.655398,63.0,91.0
99,23.13206466666667,23.675398,51.0,104.0
100,23.93206466666667,24.23706466666667,46.0,96.0
101,23.93206466666667,24.41206466666667,58.0,112.0
102,23.93206466666667,24.450398000000003,61.0,109.0
103,24.73206466666667,25.71706466666667,51.0,106.0
104,24.73206466666667,26.005398000000003,63.0,101.0
105,24.73206466666667,26.043731333333337,66.0,99.0
106,26.73206466666667,27.24706466666667,49.0,73.0
107,27.53206466666667,28.125398000000004,49.0,39.0
108,27.132064666666672,28.638731333333336,58.0,96.0
109,27.93206466666667,28.768731333333335,61.0,101.0
110,28.73206466666667,28.913731333333338,54.0,94.0
111,28.332064666666668,29.04706466666667,49.0,51.0
112,26.332064666666668,29.138731333333336,42.0,101.0
113,28.73206466666667,29.17873133333334,58.0,99.0
114,29.132064666666672,29.270398000000004,54.0,94.0
115,29.93206466666667,30.435398000000003,46.0,48.0
116,30.332064666666668,30.55373133333334,54.0,96.0
117,30.332064666666668,30.600398000000006,58.0,99.0
118,31.53206466666667,31.97706466666667,51.0,78.0
119,30.73206466666667,32.03206466666667,46.0,38.0
120,29.53206466666667,32.14873133333334,39.0,96.0
121,31.93206466666667,32.22373133333333,54.0,96.0
122,31.93206466666667,32.36706466666667,58.0,96.0
123,31.132064666666672,32.52206466666667,63.0,99.0
124,32.73206466666667,33.31873133333334,59.0,94.0
125,33.13206466666667,33.69373133333334,51.0,66.0
126,33.53206466666667,33.993731333333336,63.0,101.0
127,32.73206466666667,34.125398000000004,56.0,91.0
128,33.53206466666667,34.180398000000004,59.0,91.0
129,33.93206466666667,34.510398,51.0,73.0
130,34.33206466666667,34.96873133333334,59.0,82.0
131,34.33206466666667,35.150398,63.0,96.0
132,34.73206466666667,35.530398000000005,51.0,59.0
133,35.13206466666667,35.535398,59.0,101.0
134,32.73206466666667,35.65706466666667,44.0,96.0
135,35.53206466666667,35.772064666666665,56.0,104.0
136,35.93206466666667,36.173731333333336,56.0,96.0
137,36.33206466666667,36.738731333333334,56.0,74.0
138,35.93206466666667,36.77873133333334,61.0,104.0
139,37.13206466666667,37.425398,56.0,80.0
140,37.53206466666667,37.77373133333334,56.0,96.0
141,37.53206466666667,38.01706466666667,61.0,104.0
142,36.73206466666667,38.12706466666667,65.0,110.0
143,37.93206466666667,38.20206466666667,56.0,76.0
144,35.93206466666667,38.655398000000005,49.0,96.0
145,38.33206466666667,38.810398000000006,61.0,104.0
146,38.33206466666667,38.81373133333334,65.0,110.0
147,38.73206466666667,38.97206466666667,56.0,104.0
148,39.53206466666667,40.04706466666667,49.0,73.0
149,40.33206466666667,40.925398,49.0,39.0
150,39.93206466666667,41.43873133333334,58.0,96.0
151,40.73206466666667,41.56873133333333,61.0,101.0
152,41.53206466666667,41.71373133333334,54.0,94.0
153,41.13206466666667,41.84706466666667,49.0,51.0
154,39.13206466666667,41.93873133333334,42.0,101.0
155,41.53206466666667,41.978731333333336,58.0,99.0
156,41.93206466666667,42.070398000000004,54.0,94.0
157,42.73206466666667,43.235398,46.0,48.0
158,43.13206466666667,43.353731333333336,54.0,96.0
159,43.13206466666667,43.400398,58.0,99.0
160,44.33206466666667,44.777064666666675,51.0,78.0
161,43.53206466666667,44.83206466666667,46.0,38.0
162,42.33206466666667,44.94873133333334,39.0,96.0
163,44.73206466666667,45.02373133333334,54.0,96.0
164,44.73206466666667,45.167064666666676,58.0,96.0
165,43.93206466666667,45.32206466666667,63.0,99.0
166,45.53206466666667,46.118731333333336,59.0,94.0
167,45.932064666666676,46.493731333333336,51.0,66.0
168,46.33206466666667,46.79373133333334,63.0,101.0
169,45.53206466666667,46.925398,56.0,91.0
170,46.33206466666667,46.98039800000001,59.0,91.0
171,46.73206466666667,47.310398000000006,51.0,73.0
172,47.13206466666667,47.768731333333335,59.0,82.0
173,47.13206466666667,47.95039800000001,63.0,96.0
174,47.53206466666667,48.330398,51.0,59.0
175,47.932064666666676,48.335398000000005,59.0,101.0
176,45.53206466666667,48.45706466666667,44.0,96.0
177,48.33206466666667,48.57206466666667,56.0,104.0
178,48.73206466666667,48.97373133333333,56.0,96.0
179,49.13206466666667,49.53873133333334,56.0,74.0
180,48.73206466666667,49.57873133333334,61.0,104.0
181,49.932064666666676,50.227424875000004,56.0,80.0
182,50.335532875000006,50.580465062500004,56.0,96.0
183,50.335532875000006,50.82708643750001,61.0,104.0
184,49.53206466666667,50.938572812500006,65.0,110.0
185,50.74093787500001,51.01458625000001,56.0,76.0
186,48.73206466666667,51.47404525000001,49.0,96.0
187,51.14634287500001,51.63113968750001,61.0,104.0
188,51.14634287500001,51.63451806250001,65.0,110.0
189,51.551747875000004,51.79499087500001,56.0,104.0
190,51.957152875000006,52.51965231250001,58.0,96.0
191,51.957152875000006,52.72742237500001,54.0,96.0
192,52.36255787500001,52.843976312500004,49.0,76.0
193,51.957152875000006,52.919989750000006,42.0,99.0
194,52.76796287500001,53.21667868750001,58.0,106.0
195,52.76796287500001,53.241678687500006,61.0,106.0
196,53.17334535416667,53.321678687500004,54.0,101.0
197,53.57334535416667,54.18834535416667,61.0,101.0
198,53.57334535416667,54.23167868750001,58.0,89.0
199,53.973345354166675,54.558345354166676,53.0,42.0
200,54.37334535416667,54.756678687500006,61.0,104.0
201,54.37334535416667,54.82001202083334,65.0,101.0
202,54.37334535416667,54.833345354166674,58.0,104.0
203,53.57334535416667,54.84167868750001,46.0,85.0
204,55.17334535416667,55.40501202083334,58.0,96.0
205,55.17334535416667,55.67834535416667,63.0,101.0
206,55.57334535416667,55.995012020833336,58.0,80.0
207,55.17334535416667,56.08001202083334,51.0,96.0
208,55.973345354166675,56.30334535416667,63.0,101.0
209,55.973345354166675,56.57667868750001,66.0,104.0
210,56.77334535416667,57.31001202083334,61.0,101.0
211,56.77334535416667,57.39667868750001,58.0,87.0
212,57.17334535416667,57.696678687500004,53.0,65.0
213,56.77334535416667,57.88334535416667,46.0,91.0
214,57.573345354166676,58.03001202083334,61.0,99.0
215,57.573345354166676,58.04834535416667,65.0,104.0
216,57.973345354166675,58.131678687500006,58.0,99.0
217,58.37334535416667,58.88334535416667,59.0,89.0
218,58.37334535416667,59.10501202083334,56.0,99.0
219,59.17334535416667,59.57001202083334,59.0,101.0
220,58.77334535416667,59.5816786875,51.0,62.0
221,58.37334535416667,59.64667868750001,44.0,99.0
222,59.17334535416667,59.65167868750001,63.0,104.0
223,59.973345354166675,60.51834535416667,61.0,104.0
224,59.973345354166675,60.52334535416667,58.0,94.0
225,60.77334535416667,60.940012020833336,58.0,101.0
226,60.37334535416667,60.99334535416667,53.0,93.0
227,60.77334535416667,61.23001202083334,61.0,109.0
228,59.973345354166675,61.2366786875,46.0,96.0
229,60.77334535416667,61.241678687500006,65.0,110.0
230,61.17334535416667,61.41167868750001,58.0,80.0
231,61.573345354166676,61.885012020833344,59.0,96.0
232,61.573345354166676,61.96334535416668,56.0,106.0
233,61.573345354166676,62.17667868750001,44.0,104.0
234,62.37334535416667,62.67001202083334,65.0,93.0
235,62.37334535416667,62.68501202083334,61.0,104.0
236,62.37334535416667,62.71501202083334,49.0,99.0
237,62.37334535416667,62.73167868750001,56.0,99.0
238,63.17334535416667,63.52501202083334,58.0,91.0
239,63.17334535416667,63.52667868750001,61.0,106.0
240,63.17334535416667,63.571678687500004,54.0,94.0
241,63.573345354166676,64.05834535416668,49.0,66.0
242,63.973345354166675,64.20001202083334,61.0,106.0
243,63.973345354166675,64.21501202083334,58.0,109.0
244,63.17334535416667,64.2966786875,42.0,104.0
245,64.37334535416667,64.64334535416667,49.0,58.0
246,64.77334535416668,65.23334535416667,58.0,109.0
247,64.77334535416668,65.23501202083334,61.0,109.0
248,64.77334535416668,65.30001202083334,66.0,104.0
249,64.77334535416668,65.85167868750001,42.0,106.0
250,65.57334535416668,66.0366786875,54.0,109.0
251,65.57334535416668,66.1566786875,58.0,109.0
252,65.57334535416668,66.18334535416668,61.0,109.0
253,65.97334535416667,66.19834535416668,49.0,101.0
254,66.37334535416667,66.60665604166667,58.0,94.0
255,66.37334535416667,66.85158822916668,63.0,94.0
256,66.77726397916668,67.13537172916668,58.0,89.0
257,66.37334535416667,67.26712835416667,51.0,101.0
258,67.18266897916668,67.63537122916668,63.0,106.0
259,67.18266897916668,67.78233054166667,66.0,101.0
260,67.58807397916668,67.78570891666668,58.0,87.0
261,67.99347897916667,68.51543791666667,58.0,101.0
262,67.99347897916667,68.53401897916667,61.0,104.0
263,68.80428897916667,68.98841041666667,58.0,104.0
264,67.99347897916667,69.20631560416668,46.0,87.0
265,68.80428897916667,69.26712635416668,61.0,106.0
266,68.80428897916667,69.27388310416667,65.0,117.0
267,69.61509897916667,69.81780147916668,56.0,106.0
268,69.61509897916667,70.08638229166667,59.0,104.0
269,70.02050397916668,70.14550385416668,56.0,45.0
270,69.61509897916667,70.24009835416668,44.0,106.0
271,70.42590897916668,70.61847635416667,56.0,106.0
272,70.42590897916668,70.90732741666667,61.0,106.0
273,70.42590897916668,70.97658410416668,49.0,104.0
274,70.83131397916668,71.04077322916667,56.0,99.0
275,71.23671897916667,71.68097529166667,58.0,96.0
276,71.23671897916667,71.81948866666667,54.0,96.0
277,71.64212397916667,72.16743877083334,49.0,67.0
278,72.04752897916667,72.24077210416668,54.0,104.0
279,71.23671897916667,72.33077210416668,42.0,99.0
280,72.04752897916667,72.58243877083335,58.0,112.0
281,72.44910543750001,72.59243877083334,54.0,87.0
282,72.04752897916667,72.64410543750002,61.0,106.0
283,72.84910543750001,73.35243877083334,59.0,96.0
284,72.84910543750001,73.39410543750002,56.0,101.0
285,73.2491054375,73.65743877083334,51.0,26.0
286,72.84910543750001,73.79910543750002,44.0,104.0
287,73.64910543750001,74.12077210416668,59.0,101.0
288,73.64910543750001,74.1391054375,63.0,101.0
289,74.04910543750002,74.18743877083334,56.0,101.0
290,74.44910543750001,74.98577210416667,61.0,101.0
291,74.44910543750001,74.99077210416668,58.0,96.0
292,74.84910543750001,75.28743877083335,53.0,42.0
293,74.44910543750001,75.33577210416668,46.0,87.0
294,75.2491054375,75.42743877083335,58.0,104.0
295,75.2491054375,75.73910543750002,61.0,106.0
296,75.64910543750001,75.78243877083334,58.0,91.0
297,75.2491054375,75.87577210416667,65.0,113.0
298,76.04910543750002,76.5941054375,63.0,104.0
299,76.04910543750002,76.59577210416668,59.0,99.0
300,76.44910543750001,77.00410543750002,54.0,82.0
301,76.84910543750001,77.01910543750002,59.0,109.0
302,76.04910543750002,77.17243877083334,47.0,101.0
303,76.84910543750001,77.3291054375,63.0,109.0
304,77.2491054375,77.39577210416668,59.0,73.0
305,77.64910543750001,77.96077210416668,65.0,110.0
306,77.64910543750001,78.02243877083335,61.0,106.0
307,78.2491054375,78.32743877083334,61.0,101.0
308,78.04910543750002,78.53077210416667,56.0,87.0
309,78.44910543750001,78.72910543750001,61.0,109.0
310,78.44910543750001,78.76077210416668,68.0,106.0
311,78.64910543750001,78.90910543750002,56.0,104.0
312,77.64910543750001,78.91243877083335,49.0,109.0
313,78.84910543750001,79.07577210416667,61.0,112.0
314,79.04910543750002,79.12910543750002,65.0,110.0
315,79.2491054375,79.48077210416668,58.0,94.0
316,79.2491054375,79.72243877083335,63.0,94.0
317,79.64910543750001,80.00243877083335,58.0,89.0
318,79.2491054375,80.13243877083335,51.0,101.0
319,80.04910543750002,80.49577210416668,63.0,106.0
320,80.04910543750002,80.64077210416667,66.0,101.0
321,80.44910543750001,80.64410543750002,58.0,87.0
322,80.84910543750001,81.36410543750002,58.0,101.0
323,80.84910543750001,81.38243877083335,61.0,104.0
324,81.64910543750001,81.83077210416668,58.0,104.0
325,80.84910543750001,82.04577210416667,46.0,87.0
326,81.64910543750001,82.10577210416668,61.0,106.0
327,81.64910543750001,82.11243877083335,65.0,117.0
328,82.44910543750001,82.64910543750001,56.0,106.0
329,82.44910543750001,82.91410543750001,59.0,104.0
330,82.84910543750001,82.97243877083335,56.0,45.0
331,82.44910543750001,83.06577210416668,44.0,106.0
332,83.2491054375,83.43910543750002,56.0,106.0
333,83.2491054375,83.72410543750001,61.0,106.0
334,83.2491054375,83.79243877083334,49.0,104.0
335,83.64910543750001,83.85577210416668,56.0,99.0
336,84.04910543750002,84.48743877083335,58.0,96.0
337,84.04910543750002,84.6241054375,54.0,96.0
338,84.44910543750001,84.96743877083334,49.0,67.0
339,84.84910543750001,85.04077210416668,54.0,104.0
340,84.04910543750002,85.13077210416668,42.0,99.0
341,84.84910543750001,85.38243877083335,58.0,112.0
342,85.2491054375,85.39243877083335,54.0,87.0
343,84.84910543750001,85.44410543750001,61.0,106.0
344,85.64910543750001,86.15243877083334,59.0,96.0
345,85.64910543750001,86.19410543750001,56.0,101.0
346,86.04910543750002,86.45743877083335,51.0,26.0
347,85.64910543750001,86.59910543750001,44.0,104.0
348,86.44910543750001,86.92077210416667,59.0,101.0
349,86.44910543750001,86.93910543750002,63.0,101.0
350,86.84910543750001,86.98743877083335,56.0,101.0
351,87.2491054375,87.78577210416668,61.0,101.0
352,87.2491054375,87.79077210416668,58.0,96.0
353,87.64910543750001,88.08743877083334,53.0,42.0
354,87.2491054375,88.13577210416668,46.0,87.0
355,88.04910543750002,88.22743877083334,58.0,104.0
356,88.04910543750002,88.53910543750001,61.0,106.0
357,88.44910543750001,88.58243877083335,58.0,91.0
358,88.04910543750002,88.67577210416668,65.0,113.0
359,88.84910543750001,89.39410543750002,63.0,104.0
360,88.84910543750001,89.39577210416668,59.0,99.0
361,89.24910543750002,89.80410543750001,54.0,82.0
362,89.64910543750001,89.81910543750001,59.0,109.0
363,88.84910543750001,89.97243877083335,47.0,101.0
364,89.64910543750001,90.12910543750002,63.0,109.0
365,90.0491054375,90.19577210416668,59.0,73.0
366,90.44910543750001,90.76077210416668,65.0,110.0
367,90.44910543750001,90.82243877083334,61.0,106.0
368,91.0491054375,91.12743877083335,61.0,101.0
369,90.84910543750001,91.33077210416668,56.0,87.0
370,91.24910543750002,91.52910543750001,61.0,109.0
371,91.24910543750002,91.56077210416667,68.0,106.0
372,91.44910543750001,91.70910543750001,56.0,104.0
373,90.44910543750001,91.71243877083334,49.0,109.0
374,91.64910543750001,91.87577210416669,61.0,112.0
375,91.84910543750001,91.92910543750001,65.0,110.0
376,92.0491054375,93.17910543750001,37.0,106.0
377,92.0491054375,93.18743877083335,61.0,104.0
378,92.0491054375,93.19910543750001,65.0,101.0
379,92.0491054375,93.22743877083334,56.0,94.0
380,93.64910543750001,94.13243877083335,58.0,94.0
381,93.64910543750001,94.18077210416668,54.0,96.0
382,94.04910543750002,94.58243877083335,49.0,59.0
383,94.44910543750001,94.65243877083334,54.0,106.0
384,94.44910543750001,94.95910543750001,58.0,106.0
385,93.64910543750001,95.02410543750001,42.0,104.0
386,94.44910543750001,95.02577210416668,61.0,109.0
387,94.84910543750001,95.12410543750002,54.0,99.0
388,95.24910543750002,95.75243877083335,58.0,101.0
389,95.24910543750002,95.82743877083334,63.0,106.0
390,96.04910543750002,96.33077210416668,58.0,104.0
391,95.24910543750002,96.44910543750001,51.0,96.0
392,96.04910543750002,96.46243877083334,63.0,109.0
393,96.84910543750001,97.39243877083334,61.0,104.0
394,96.84910543750001,97.42743877083335,58.0,96.0
395,97.64910543750001,97.83910543750001,58.0,101.0
396,96.84910543750001,97.89910543750001,46.0,101.0
397,97.64910543750001,98.05743877083334,61.0,112.0
398,97.64910543750001,98.08577210416668,65.0,117.0
399,98.04910543750002,98.30410543750001,58.0,94.0
400,98.44910543750001,98.6391054375,58.0,99.0
401,98.44910543750001,99.0791054375,63.0,106.0
402,98.44910543750001,99.0791054375,66.0,82.0
403,99.24910543750002,99.45577210416668,58.0,106.0
404,98.44910543750001,99.52077210416668,51.0,104.0
405,99.24910543750002,99.65077210416668,63.0,115.0
406,99.24910543750002,99.73077210416668,66.0,109.0
407,99.64910543750001,99.80910543750001,58.0,96.0
408,100.04910543750002,100.52077210416668,58.0,101.0
409,100.04910543750002,100.63577210416668,54.0,101.0
410,100.44910543750001,100.9541054375,49.0,85.0
411,100.84910543750001,101.00743877083335,54.0,104.0
412,100.04910543750002,101.03410543750002,42.0,85.0
413,100.84910543750001,101.26743877083335,58.0,109.0
414,100.84910543750001,101.28077210416669,61.0,109.0
415,101.24910543750002,101.28577210416668,54.0,58.0
416,101.64910543750001,101.93910543750002,58.0,96.0
417,101.64910543750001,102.15577210416669,63.0,94.0
418,102.04910543750002,102.30410543750001,58.0,87.0
419,101.64910543750001,102.59743877083335,51.0,101.0
420,102.44910543750001,102.73743877083335,63.0,109.0
421,102.44910543750001,102.77743877083334,58.0,106.0
422,102.44910543750001,102.78743877083335,66.0,106.0
423,103.24910543750002,103.82743877083334,61.0,104.0
424,103.24910543750002,103.86910543750001,58.0,96.0
425,103.24910543750002,103.87077210416668,65.0,104.0
426,103.64910543750001,104.12077210416668,53.0,66.0
427,104.04910543750002,104.23910543750002,58.0,104.0
428,103.24910543750002,104.36910543750001,46.0,96.0
429,104.04910543750002,104.48077210416668,61.0,109.0
430,104.04910543750002,104.50577210416668,65.0,113.0
431,104.44910543750001,104.69910543750001,58.0,94.0
432,104.84910543750001,105.09410543750002,58.0,104.0
433,104.84910543750001,105.35410543750001,63.0,106.0
434,105.24910543750002,105.49077210416668,58.0,87.0
435,105.64910543750001,106.04160525,63.0,112.0
436,105.64910543750001,106.16322675,58.0,109.0
437,104.84910543750001,106.23079425000002,51.0,101.0
438,105.64910543750001,106.35410493750001,66.0,106.0
439,106.45714537500001,106.98417187500002,59.0,91.0
440,106.45714537500001,107.06863125000001,63.0,89.0
441,107.26795537500001,107.5061308125,59.0,104.0
442,106.45714537500001,107.56863075000001,47.0,96.0
443,107.26795537500001,107.6750495625,63.0,115.0
444,107.67336037500002,107.78484675000001,59.0,82.0
445,108.07876537500002,108.5534270625,61.0,104.0
446,108.07876537500002,108.59734593750001,65.0,110.0
447,108.484170375,108.97403475000002,56.0,96.0
448,108.07876537500002,109.031467125,49.0,109.0
449,108.889575375,109.12099406250002,65.0,117.0
450,108.889575375,109.1649129375,61.0,109.0
451,109.70038537500001,110.08045256250001,63.0,109.0
452,109.70038537500001,110.14126331250002,58.0,106.0
453,109.70038537500001,110.28991181250001,51.0,104.0
454,110.51119537500001,111.11254612500001,58.0,104.0
455,110.51119537500001,111.11761368750001,61.0,109.0
456,110.51119537500001,111.12605962500001,46.0,101.0
457,111.322005375,111.77948241666667,63.0,106.0
458,111.322005375,111.82781575,58.0,104.0
459,112.12781575000001,112.70114908333333,58.0,91.0
460,112.12781575000001,112.71781575,63.0,99.0
461,111.322005375,112.79781575000001,51.0,106.0
462,112.12781575000001,112.92448241666668,70.0,101.0
463,112.92781575000001,113.55781575,58.0,101.0
464,112.92781575000001,113.59281575,54.0,96.0
465,113.32781575,113.80114908333334,49.0,66.0
466,113.72781575,114.07948241666668,61.0,104.0
467,113.72781575,114.16614908333334,58.0,99.0
468,114.12781575000001,114.55614908333334,49.0,45.0
469,114.52781575,114.93281575,61.0,96.0
470,114.52781575,115.00448241666668,58.0,85.0
471,115.32781575000001,115.42281575000001,54.0,85.0
472,112.92781575000001,115.44114908333334,42.0,104.0
473,115.32781575000001,115.77448241666667,58.0,104.0
474,115.32781575000001,115.79114908333334,61.0,104.0
475,115.72781575,115.85281575,54.0,96.0
476,116.12781575000001,116.67614908333334,63.0,104.0
477,116.12781575000001,116.68948241666668,58.0,101.0
478,116.12781575000001,117.17114908333335,51.0,101.0
479,116.92781575000001,117.24948241666667,66.0,94.0
480,116.92781575000001,117.27614908333334,63.0,101.0
481,117.72781575,118.23948241666668,58.0,74.0
482,117.72781575,118.24114908333334,66.0,99.0
483,117.72781575,118.27448241666667,63.0,99.0
484,118.12781575000001,118.60448241666667,54.0,85.0
485,118.12781575000001,118.61281575000001,51.0,73.0
486,118.52781575,118.96948241666668,63.0,106.0
487,118.52781575,118.97781575,66.0,104.0
488,118.92781575000001,119.06448241666668,58.0,109.0
489,119.32781575000001,119.84281575,58.0,94.0
490,119.32781575000001,119.87948241666668,54.0,99.0
491,120.12781575000001,120.37281575,61.0,101.0
492,120.12781575000001,120.44448241666667,58.0,101.0
493,119.72781575,120.98448241666668,49.0,38.0
494,120.92781575000001,121.33948241666667,61.0,101.0
495,120.92781575000001,121.37114908333334,58.0,99.0
496,121.32781575000001,121.95948241666667,49.0,69.0
497,119.32781575000001,122.06448241666668,42.0,91.0
498,121.72781575,122.16114908333334,58.0,109.0
499,121.72781575,122.17448241666668,61.0,109.0
500,122.12781575000001,122.26281575,54.0,112.0
501,122.52781575,122.67281575000001,39.0,91.0
502,122.52781575,122.74448241666667,51.0,96.0
503,122.52781575,122.77281575,54.0,101.0
504,123.32781575000001,123.90781575000001,66.0,99.0
505,123.32781575000001,123.97281575000001,63.0,96.0
506,123.72781575,124.31614908333334,58.0,61.0
507,124.12781575000001,124.60614908333334,70.0,104.0
508,124.12781575000001,124.73614908333334,66.0,106.0
509,124.52781575,124.97948241666667,58.0,76.0
510,123.72781575,125.03114908333333,51.0,37.0
511,124.92781575000001,125.07448241666667,63.0,104.0
512,124.92781575000001,125.09281575,66.0,109.0
513,124.92781575000001,125.09781575000001,70.0,106.0
514,125.32781575000001,125.49281575,61.0,91.0
515,126.12781575000001,126.64281575000001,49.0,73.0
516,126.92781575000001,127.52114908333334,49.0,39.0
517,126.52781575,128.03448241666666,58.0,96.0
518,127.32781575000001,128.16448241666666,61.0,101.0
519,128.12781575,128.30948241666667,54.0,94.0
520,127.72781575,128.44281575000002,49.0,51.0
521,125.72781575,128.53448241666666,42.0,101.0
522,128.12781575,128.57448241666668,58.0,99.0
523,128.52781575,128.66614908333335,54.0,94.0
524,129.32781575,129.83114908333334,46.0,48.0
525,129.72781575000002,129.94948241666668,54.0,96.0
526,129.72781575000002,129.99614908333334,58.0,99.0
527,130.92781575,131.37281575,51.0,78.0
528,130.12781575,131.42781575,46.0,38.0
529,128.92781575,131.54448241666668,39.0,96.0
530,131.32781575,131.61948241666667,54.0,96.0
531,131.32781575,131.76281575000002,58.0,96.0
532,130.52781575,131.91781575000002,63.0,99.0
533,132.12781575,132.71448241666667,59.0,94.0
534,132.52781575,133.08948241666667,51.0,66.0
535,132.92781575,133.38948241666668,63.0,101.0
536,132.12781575,133.52114908333334,56.0,91.0
537,132.92781575,133.57614908333335,59.0,91.0
538,133.32781575,133.90614908333333,51.0,73.0
539,133.72781575000002,134.36448241666668,59.0,82.0
540,133.72781575000002,134.54614908333335,63.0,96.0
541,134.12781575,134.92614908333334,51.0,59.0
542,134.52781575,134.93114908333334,59.0,101.0
543,132.12781575,135.05281575,44.0,96.0
544,134.92781575,135.16781575000002,56.0,104.0
545,135.32781575,135.5694824166667,56.0,96.0
546,135.72781575000002,136.13448241666669,56.0,74.0
547,135.32781575,136.17448241666668,61.0,104.0
548,136.52781575,136.82114908333335,56.0,80.0
549,136.92781575,137.16948241666668,56.0,96.0
550,136.92781575,137.41281575,61.0,104.0
551,136.12781575,137.52281575,65.0,110.0
552,137.32781575,137.59781575,56.0,76.0
553,135.32781575,138.05114908333334,49.0,96.0
554,137.72781575000002,138.20614908333334,61.0,104.0
555,137.72781575000002,138.20948241666667,65.0,110.0
556,138.12781575,138.3696849791667,56.0,104.0
557,138.5318469791667,139.0943464166667,58.0,96.0
558,138.5318469791667,139.30211647916667,54.0,96.0
559,138.9372519791667,139.41867041666669,49.0,76.0
560,138.5318469791667,139.49468385416668,42.0,99.0
561,139.3426569791667,139.7919808541667,58.0,106.0
562,139.3426569791667,139.8173186666667,61.0,106.0
563,139.7480619791667,139.89839966666668,54.0,101.0
564,140.1534669791667,140.77677716666668,61.0,101.0
565,140.1534669791667,140.82069604166668,58.0,89.0
566,140.5588719791667,141.1517767916667,53.0,42.0
567,140.9642769791667,141.35279010416667,61.0,104.0
568,140.9642769791667,141.41697922916669,65.0,101.0
569,140.9642769791667,141.43049272916667,58.0,104.0
570,140.1534669791667,141.43893866666667,46.0,85.0
571,141.77508697916667,142.00988404166668,58.0,96.0
572,141.77508697916667,142.28691079166668,63.0,101.0
573,142.18049197916667,142.6078564166667,58.0,80.0
574,141.77508697916667,142.6940049791667,51.0,96.0
575,142.58589697916668,142.92035610416667,63.0,101.0
576,142.58589697916668,143.19738285416668,66.0,104.0
577,143.39670697916668,143.94062535416668,61.0,101.0
578,143.39670697916668,144.0284631041667,58.0,87.0
579,143.80211197916668,144.3325168541667,53.0,65.0
580,143.39670697916668,144.5217058541667,46.0,91.0
581,144.20751697916668,144.67035435416668,61.0,99.0
582,144.20751697916668,144.68893541666668,65.0,104.0
583,144.61292197916669,144.77339479166668,58.0,99.0
584,145.0183269791667,145.5352183541667,59.0,89.0
585,145.0183269791667,145.7598802916667,56.0,99.0
586,145.8291369791667,146.2283259791667,59.0,101.0
587,145.4237319791667,146.23999264583335,51.0,62.0
588,145.0183269791667,146.30499264583335,44.0,99.0
589,145.8291369791667,146.30999264583335,63.0,104.0
590,146.63165931250003,147.17665931250002,61.0,104.0
591,146.63165931250003,147.18165931250002,58.0,94.0
592,147.43165931250002,147.5983259791667,58.0,101.0
593,147.0316593125,147.65165931250002,53.0,93.0
594,147.43165931250002,147.8883259791667,61.0,109.0
595,146.63165931250003,147.89499264583336,46.0,96.0
596,147.43165931250002,147.89999264583335,65.0,110.0
597,147.83165931250002,148.06999264583337,58.0,80.0
598,148.23165931250003,148.5433259791667,59.0,96.0
599,148.23165931250003,148.62165931250001,56.0,106.0
600,148.23165931250003,148.83499264583335,44.0,104.0
601,149.0316593125,149.3283259791667,65.0,93.0
602,149.0316593125,149.34332597916668,61.0,104.0
603,149.0316593125,149.37332597916668,49.0,99.0
604,149.0316593125,149.38999264583336,56.0,99.0
605,149.83165931250002,150.18332597916668,58.0,91.0
606,149.83165931250002,150.18499264583335,61.0,106.0
607,149.83165931250002,150.22999264583336,54.0,94.0
608,150.23165931250003,150.7166593125,49.0,66.0
609,150.63165931250003,150.8583259791667,61.0,106.0
610,150.63165931250003,150.87332597916668,58.0,109.0
611,149.83165931250002,150.95499264583336,42.0,104.0
612,151.0316593125,151.30165931250002,49.0,58.0
613,151.43165931250002,151.89165931250002,58.0,109.0
614,151.43165931250002,151.8933259791667,61.0,109.0
615,151.43165931250002,151.9583259791667,66.0,104.0
616,151.43165931250002,152.50999264583336,42.0,106.0
617,152.23165931250003,152.69499264583337,54.0,109.0
618,152.23165931250003,152.81499264583334,58.0,109.0
619,152.23165931250003,152.8416593125,61.0,109.0
620,152.63165931250003,152.85665931250003,49.0,101.0
621,153.0316593125,153.2633259791667,58.0,94.0
622,153.0316593125,153.50499264583337,63.0,94.0
623,153.43165931250002,153.78499264583337,58.0,89.0
624,153.0316593125,153.91499264583337,51.0,101.0
625,153.83165931250002,154.27832597916668,63.0,106.0
626,153.83165931250002,154.4233259791667,66.0,101.0
627,154.23165931250003,154.42665931250002,58.0,87.0
628,154.63165931250003,155.14665931250002,58.0,101.0
629,154.63165931250003,155.16499264583337,61.0,104.0
630,155.43165931250002,155.6133259791667,58.0,104.0
631,154.63165931250003,155.8283259791667,46.0,87.0
632,155.43165931250002,155.8883259791667,61.0,106.0
633,155.43165931250002,155.89499264583336,65.0,117.0
634,156.23165931250003,156.43165931250002,56.0,106.0
635,156.23165931250003,156.69665931250003,59.0,104.0
636,156.63165931250003,156.75499264583337,56.0,45.0
637,156.23165931250003,156.8483259791667,44.0,106.0
638,157.0316593125,157.22165931250004,56.0,106.0
639,157.0316593125,157.50665931250003,61.0,106.0
640,157.0316593125,157.57499264583336,49.0,104.0
641,157.43165931250002,157.6383259791667,56.0,99.0
642,157.83165931250002,158.26999264583336,58.0,96.0
643,157.83165931250002,158.4066593125,54.0,96.0
644,158.23165931250003,158.74999264583334,49.0,67.0
645,158.63165931250003,158.8233259791667,54.0,104.0
646,157.83165931250002,158.9133259791667,42.0,99.0
647,158.63165931250003,159.16499264583337,58.0,112.0
648,159.0316593125,159.17499264583336,54.0,87.0
649,158.63165931250003,159.22665931250003,61.0,106.0
650,159.43165931250002,159.93499264583335,59.0,96.0
651,159.43165931250002,159.97665931250003,56.0,101.0
652,159.83165931250002,160.23999264583335,51.0,26.0
653,159.43165931250002,160.38165931250003,44.0,104.0
654,160.23165931250003,160.7033259791667,59.0,101.0
655,160.23165931250003,160.72165931250004,63.0,101.0
656,160.63165931250003,160.76999264583336,56.0,101.0
657,161.0316593125,161.5683259791667,61.0,101.0
658,161.0316593125,161.5733259791667,58.0,96.0
659,161.43165931250002,161.86999264583335,53.0,42.0
660,161.0316593125,161.9183259791667,46.0,87.0
661,161.83165931250002,162.00999264583336,58.0,104.0
662,161.83165931250002,162.32165931250003,61.0,106.0
663,162.23165931250003,162.36499264583335,58.0,91.0
664,161.83165931250002,162.4583259791667,65.0,113.0
665,162.63165931250003,163.17665931250002,63.0,104.0
666,162.63165931250003,163.1783259791667,59.0,99.0
667,163.03165931250004,163.58665931250002,54.0,82.0
668,163.43165931250002,163.60165931250003,59.0,109.0
669,162.63165931250003,163.75499264583337,47.0,101.0
670,163.43165931250002,163.91165931250003,63.0,109.0
671,163.83165931250002,163.9783259791667,59.0,73.0
672,164.23197460416668,164.5478526666667,65.0,110.0
673,164.23197460416668,164.61035260416668,61.0,106.0
674,164.8400821041667,164.91947391666667,61.0,101.0
675,164.63737960416668,165.1255547916667,56.0,87.0
676,165.04278460416668,165.32656810416668,61.0,109.0
677,165.04278460416668,165.35866266666667,68.0,106.0
678,165.2454871041667,165.5090003541667,56.0,104.0
679,164.23197460416668,165.5123787291667,49.0,109.0
680,165.44818960416669,165.67791910416668,61.0,112.0
681,165.6508921041667,165.73197310416668,65.0,110.0
682,165.8535946041667,166.9988637291667,37.0,106.0
683,165.8535946041667,167.00730966666669,61.0,104.0
684,165.8535946041667,167.0191339791667,65.0,101.0
685,165.8535946041667,167.04785016666668,56.0,94.0
686,167.4752146041667,167.9612954791667,58.0,94.0
687,167.4752146041667,168.00962881250004,54.0,96.0
688,167.87796214583335,168.41129547916668,49.0,59.0
689,168.27796214583336,168.4812954791667,54.0,106.0
690,168.27796214583336,168.78796214583335,58.0,106.0
691,167.4752146041667,168.85296214583335,42.0,104.0
692,168.27796214583336,168.85462881250004,61.0,109.0
693,168.67796214583336,168.95296214583337,54.0,99.0
694,169.07796214583337,169.5812954791667,58.0,101.0
695,169.07796214583337,169.6562954791667,63.0,106.0
696,169.87796214583335,170.15962881250002,58.0,104.0
697,169.07796214583337,170.27796214583336,51.0,96.0
698,169.87796214583335,170.2912954791667,63.0,109.0
699,170.67796214583336,171.22129547916668,61.0,104.0
700,170.67796214583336,171.25629547916668,58.0,96.0
701,171.47796214583337,171.66796214583337,58.0,101.0
702,170.67796214583336,171.72796214583337,46.0,101.0
703,171.47796214583337,171.8862954791667,61.0,112.0
704,171.47796214583337,171.9146288125,65.0,117.0
705,171.87796214583335,172.13296214583335,58.0,94.0
706,172.27796214583336,172.46796214583335,58.0,99.0
707,172.27796214583336,172.90796214583335,63.0,106.0
708,172.27796214583336,172.90796214583335,66.0,82.0
709,173.07796214583337,173.28462881250002,58.0,106.0
710,172.27796214583336,173.34962881250001,51.0,104.0
711,173.07796214583337,173.47962881250004,63.0,115.0
712,173.07796214583337,173.55962881250002,66.0,109.0
713,173.47796214583337,173.63796214583337,58.0,96.0
714,173.87796214583335,174.34962881250001,58.0,101.0
715,173.87796214583335,174.46462881250002,54.0,101.0
716,174.27796214583336,174.78296214583335,49.0,85.0
717,174.67796214583336,174.8362954791667,54.0,104.0
718,173.87796214583335,174.86296214583336,42.0,85.0
719,174.67796214583336,175.09629547916668,58.0,109.0
720,174.67796214583336,175.10962881250003,61.0,109.0
721,175.07796214583337,175.11462881250003,54.0,58.0
722,175.47796214583337,175.76796214583337,58.0,96.0
723,175.47796214583337,175.98462881250003,63.0,94.0
724,175.87796214583335,176.13296214583335,58.0,87.0
725,175.47796214583337,176.4262954791667,51.0,101.0
726,176.27796214583336,176.56629547916668,63.0,109.0
727,176.27796214583336,176.6062954791667,58.0,106.0
728,176.27796214583336,176.6162954791667,66.0,106.0
729,177.07796214583337,177.6562954791667,61.0,104.0
730,177.07796214583337,177.69796214583337,58.0,96.0
731,177.07796214583337,177.69962881250004,65.0,104.0
732,177.47796214583337,177.94962881250004,53.0,66.0
733,177.87796214583335,178.06796214583335,58.0,104.0
734,177.07796214583337,178.19796214583337,46.0,96.0
735,177.87796214583335,178.30962881250002,61.0,109.0
736,177.87796214583335,178.33462881250003,65.0,113.0
737,178.27796214583336,178.52796214583336,58.0,94.0
738,178.67796214583336,178.92296214583337,58.0,104.0
739,178.67796214583336,179.18296214583336,63.0,106.0
740,179.07796214583337,179.3196288125,58.0,87.0
741,179.47796214583337,179.86796214583336,63.0,112.0
742,179.47796214583337,179.98796214583336,58.0,109.0
743,178.67796214583336,180.05296214583336,51.0,101.0
744,179.47796214583337,180.1762954791667,66.0,106.0
745,180.27796214583336,180.79796214583337,59.0,91.0
746,180.27796214583336,180.88129547916668,63.0,89.0
747,181.07796214583337,181.31296214583335,59.0,104.0
748,180.27796214583336,181.37462881250002,47.0,96.0
749,181.07796214583337,181.47962881250004,63.0,115.0
750,181.47796214583337,181.58796214583336,59.0,82.0
751,181.87796214583335,182.34629547916668,61.0,104.0
752,181.87796214583335,182.38962881250004,65.0,110.0
753,182.27796214583336,182.7612954791667,56.0,96.0
754,181.87796214583335,182.81796214583335,49.0,109.0
755,182.67796214583336,182.9062954791667,65.0,117.0
756,182.67796214583336,182.94962881250004,61.0,109.0
757,183.47796214583337,183.85296214583337,63.0,109.0
758,183.47796214583337,183.91296214583338,58.0,106.0
759,183.47796214583337,184.05962881250002,51.0,104.0
760,184.27796214583336,184.8712954791667,58.0,104.0
761,184.27796214583336,184.87629547916669,61.0,109.0
762,184.27796214583336,184.8846288125,46.0,101.0
763,185.07796214583337,185.52962881250002,63.0,106.0
764,185.07796214583337,185.57796214583337,58.0,104.0
765,185.87796214583335,186.4512954791667,58.0,91.0
766,185.87796214583335,186.46796214583335,63.0,99.0
767,185.07796214583337,186.54796214583337,51.0,106.0
768,185.87796214583335,186.67462881250003,70.0,101.0
769,186.67796214583336,187.16129547916668,58.0,94.0
770,186.67796214583336,187.20962881250003,54.0,96.0
771,187.07796214583337,187.6112954791667,49.0,59.0
772,187.47796214583337,187.6812954791667,54.0,106.0
773,187.47796214583337,187.98796214583336,58.0,106.0
774,186.67796214583336,188.05296214583336,42.0,104.0
775,187.47796214583337,188.05462881250003,61.0,109.0
776,187.87796214583335,188.15296214583336,54.0,99.0
777,188.27796214583336,188.7812954791667,58.0,101.0
778,188.27796214583336,188.8562954791667,63.0,106.0
779,189.07796214583337,189.35962881250003,58.0,104.0
780,188.27796214583336,189.47796214583337,51.0,96.0
781,189.07796214583337,189.4912954791667,63.0,109.0
782,189.87796214583335,190.4212954791667,61.0,104.0
783,189.87796214583335,190.4562954791667,58.0,96.0
784,190.67796214583336,190.86796214583336,58.0,101.0
785,189.87796214583335,190.92796214583336,46.0,101.0
786,190.67796214583336,191.0862954791667,61.0,112.0
787,190.67796214583336,191.11462881250003,65.0,117.0
788,191.07796214583337,191.33296214583336,58.0,94.0
789,191.47796214583337,191.66796214583337,58.0,99.0
790,191.47796214583337,192.10796214583337,63.0,106.0
791,191.47796214583337,192.10796214583337,66.0,82.0
792,192.27796214583336,192.48462881250003,58.0,106.0
793,191.47796214583337,192.54962881250003,51.0,104.0
794,192.27796214583336,192.67962881250003,63.0,115.0
795,192.27796214583336,192.75962881250004,66.0,109.0
796,192.67796214583336,192.83796214583336,58.0,96.0
797,193.07796214583337,193.54962881250003,58.0,101.0
798,193.07796214583337,193.66462881250004,54.0,101.0
799,193.47796214583337,193.98296214583337,49.0,85.0
800,193.87796214583335,194.03629547916668,54.0,104.0
801,193.07796214583337,194.06296214583335,42.0,85.0
802,193.87796214583335,194.2962954791667,58.0,109.0
803,193.87796214583335,194.30962881250002,61.0,109.0
804,194.27796214583336,194.31462881250002,54.0,58.0
805,194.67796214583336,194.96796214583335,58.0,96.0
806,194.67796214583336,195.18462881250002,63.0,94.0
807,195.07796214583337,195.33296214583336,58.0,87.0
808,194.67796214583336,195.62629547916669,51.0,101.0
809,195.47796214583337,195.7662954791667,63.0,109.0
810,195.47796214583337,195.8062954791667,58.0,106.0
811,195.47796214583337,195.81629547916668,66.0,106.0
812,196.27796214583336,196.8562954791667,61.0,104.0
813,196.27796214583336,196.89796214583336,58.0,96.0
814,196.27796214583336,196.89962881250003,65.0,104.0
815,196.67796214583336,197.14962881250003,53.0,66.0
816,197.07796214583337,197.26796214583337,58.0,104.0
817,196.27796214583336,197.39796214583336,46.0,96.0
818,197.07796214583337,197.50962881250004,61.0,109.0
819,197.07796214583337,197.53462881250002,65.0,113.0
820,197.47796214583337,197.72796214583337,58.0,94.0
821,197.87796214583335,198.12296214583336,58.0,104.0
822,197.87796214583335,198.38296214583335,63.0,106.0
823,198.27796214583336,198.51962881250003,58.0,87.0
824,198.67796214583336,199.06796214583335,63.0,112.0
825,198.67796214583336,199.18796214583335,58.0,109.0
826,197.87796214583335,199.25296214583335,51.0,101.0
827,198.67796214583336,199.37629547916669,66.0,106.0
828,199.47796214583337,199.99796214583336,59.0,91.0
829,199.47796214583337,200.0812954791667,63.0,89.0
830,200.27796214583336,200.51296214583337,59.0,104.0
831,199.47796214583337,200.57462881250004,47.0,96.0
832,200.27796214583336,200.67962881250003,63.0,115.0
833,200.67796214583336,200.78796214583338,59.0,82.0
834,201.07796214583337,201.5462954791667,61.0,104.0
835,201.07796214583337,201.58962881250002,65.0,110.0
836,201.47796214583337,201.9612954791667,56.0,96.0
837,201.07796214583337,202.01796214583337,49.0,109.0
838,201.87796214583335,202.1062954791667,65.0,117.0
839,201.87796214583335,202.14962881250003,61.0,109.0
840,202.67796214583336,203.05296214583336,63.0,109.0
841,202.67796214583336,203.11296214583336,58.0,106.0
842,202.67796214583336,203.2596288125,51.0,104.0
843,203.47796214583337,204.07129547916668,58.0,104.0
844,203.47796214583337,204.0762954791667,61.0,109.0
845,203.47796214583337,204.08462881250003,46.0,101.0
846,204.27796214583336,204.72962881250004,63.0,106.0
847,204.27796214583336,204.77796214583336,58.0,104.0
848,205.07796214583337,205.65194858333336,58.0,91.0
849,205.07796214583337,205.66884045833336,63.0,99.0
850,204.27796214583336,205.74992145833338,51.0,106.0
851,205.07796214583337,205.87829970833337,70.0,101.0
852,205.88167808333338,206.41377214583338,63.0,99.0
853,205.88167808333338,206.45262345833336,59.0,94.0
854,206.28708308333339,206.76005558333338,54.0,55.0
855,205.88167808333338,207.00329858333336,47.0,101.0
856,206.6924880833334,207.10802820833337,63.0,106.0
857,207.09789308333336,207.26005508333338,59.0,94.0
858,206.6924880833334,207.32593339583337,66.0,104.0
859,207.50329808333336,208.02356783333337,61.0,99.0
860,207.50329808333336,208.06410833333337,65.0,99.0
861,207.90870308333336,208.50498627083337,56.0,89.0
862,208.31410808333337,208.54721595833337,61.0,109.0
863,207.50329808333336,208.62322939583336,49.0,106.0
864,208.31410808333337,208.68572933333337,65.0,113.0
865,208.71951308333337,208.96951283333337,61.0,99.0
866,209.12491808333337,209.26849902083336,42.0,101.0
867,209.12491808333337,209.76005258333336,66.0,101.0
868,209.12491808333337,209.78201202083338,61.0,91.0
869,209.93572808333337,210.42052489583338,61.0,106.0
870,209.93572808333337,210.42052489583338,70.0,101.0
871,209.53032308333337,210.5945112083334,49.0,69.0
872,210.34113308333337,210.64180845833337,58.0,80.0
873,210.74653808333338,211.78032083333338,54.0,106.0
874,210.74653808333338,211.81579377083338,61.0,101.0
875,210.74653808333338,211.82592889583339,66.0,104.0
876,212.36815808333338,212.85802245833338,58.0,94.0
877,212.36815808333338,212.90700889583337,54.0,96.0
878,212.77356308333339,213.31410308333338,49.0,59.0
879,213.1789680833334,213.38504895833339,54.0,106.0
880,213.1789680833334,213.69585945833336,58.0,106.0
881,212.36815808333338,213.76173777083338,42.0,104.0
882,213.1789680833334,213.76342695833338,61.0,109.0
883,213.58437308333336,213.86308902083337,54.0,99.0
884,213.98977808333336,214.49991270833337,58.0,101.0
885,213.98977808333336,214.57592614583336,63.0,106.0
886,214.80058808333337,215.08606077083337,58.0,104.0
887,213.98977808333336,215.20599308333337,51.0,96.0
888,214.80058808333337,215.21950658333338,63.0,109.0
889,215.60892079166672,216.15225412500004,61.0,104.0
890,215.60892079166672,216.18725412500004,58.0,96.0
891,216.4089207916667,216.59892079166673,58.0,101.0
892,215.60892079166672,216.6589207916667,46.0,101.0
893,216.4089207916667,216.81725412500006,61.0,112.0
894,216.4089207916667,216.84558745833337,65.0,117.0
895,216.8089207916667,217.0639207916667,58.0,94.0
896,217.2089207916667,217.3989207916667,58.0,99.0
897,217.2089207916667,217.8389207916667,63.0,106.0
898,217.2089207916667,217.8389207916667,66.0,82.0
899,218.00892079166672,218.21558745833337,58.0,106.0
900,217.2089207916667,218.28058745833337,51.0,104.0
901,218.00892079166672,218.4105874583334,63.0,115.0
902,218.00892079166672,218.49058745833338,66.0,109.0
903,218.4089207916667,218.56892079166673,58.0,96.0
904,218.8089207916667,219.28058745833337,58.0,101.0
905,218.8089207916667,219.39558745833338,54.0,101.0
906,219.2089207916667,219.7139207916667,49.0,85.0
907,219.60892079166672,219.76725412500005,54.0,104.0
908,218.8089207916667,219.79392079166672,42.0,85.0
909,219.60892079166672,220.02725412500004,58.0,109.0
910,219.60892079166672,220.0405874583334,61.0,109.0
911,220.00892079166672,220.0455874583334,54.0,58.0
912,220.4089207916667,220.69892079166672,58.0,96.0
913,220.4089207916667,220.9155874583334,63.0,94.0
914,220.8089207916667,221.0639207916667,58.0,87.0
915,220.4089207916667,221.35725412500005,51.0,101.0
916,221.2089207916667,221.49725412500004,63.0,109.0
917,221.2089207916667,221.53725412500006,58.0,106.0
918,221.2089207916667,221.54725412500005,66.0,106.0
919,222.00892079166672,222.58725412500004,61.0,104.0
920,222.00892079166672,222.62892079166673,58.0,96.0
921,222.00892079166672,222.6305874583334,65.0,104.0
922,222.4089207916667,222.8805874583334,53.0,66.0
923,222.8089207916667,222.9989207916667,58.0,104.0
924,222.00892079166672,223.12892079166673,46.0,96.0
925,222.8089207916667,223.24058745833338,61.0,109.0
926,222.8089207916667,223.26558745833339,65.0,113.0
927,223.2089207916667,223.4589207916667,58.0,94.0
928,223.60892079166672,223.85392079166672,58.0,104.0
929,223.60892079166672,224.11392079166671,63.0,106.0
930,224.00892079166672,224.25058745833337,58.0,87.0
931,224.40892079166673,224.79892079166672,63.0,112.0
932,224.40892079166673,224.91892079166672,58.0,109.0
933,223.60892079166672,224.98392079166672,51.0,101.0
934,224.40892079166673,225.10725412500005,66.0,106.0
935,225.2089207916667,225.72892079166672,59.0,91.0
936,225.2089207916667,225.81225412500004,63.0,89.0
937,226.00892079166672,226.2439207916667,59.0,104.0
938,225.2089207916667,226.30558745833338,47.0,96.0
939,226.00892079166672,226.4105874583334,63.0,115.0
940,226.40892079166673,226.51892079166672,59.0,82.0
941,226.8089207916667,227.27725412500004,61.0,104.0
942,226.8089207916667,227.3205874583334,65.0,110.0
943,227.2089207916667,227.69225412500006,56.0,96.0
944,226.8089207916667,227.7489207916667,49.0,109.0
945,227.60892079166672,227.83725412500004,65.0,117.0
946,227.60892079166672,227.8805874583334,61.0,109.0
947,228.40892079166673,228.78392079166673,63.0,109.0
948,228.40892079166673,228.8439207916667,58.0,106.0
949,228.40892079166673,228.99058745833338,51.0,104.0
950,229.2089207916667,229.80225412500005,58.0,104.0
951,229.2089207916667,229.80725412500004,61.0,109.0
952,229.2089207916667,229.81558745833337,46.0,101.0
953,230.00892079166672,230.46058745833338,63.0,106.0
954,230.00892079166672,230.50892079166672,58.0,104.0
955,230.8089207916667,231.38225412500006,58.0,91.0
956,230.8089207916667,231.3989207916667,63.0,99.0
957,230.00892079166672,231.47892079166672,51.0,106.0
958,230.8089207916667,231.6055874583334,70.0,101.0
959,231.60892079166672,232.1289207916667,59.0,91.0
960,231.60892079166672,232.21225412500004,63.0,89.0
961,232.40892079166673,232.64392079166672,59.0,104.0
962,231.60892079166672,232.70558745833338,47.0,96.0
963,232.40892079166673,232.81058745833337,63.0,115.0
964,232.8089207916667,232.91892079166672,59.0,82.0
965,233.2089207916667,233.67725412500005,61.0,104.0
966,233.2089207916667,233.7205874583334,65.0,110.0
967,233.60892079166672,234.09225412500004,56.0,96.0
968,233.2089207916667,234.1489207916667,49.0,109.0
969,234.00892079166672,234.23725412500005,65.0,117.0
970,234.00892079166672,234.28058745833337,61.0,109.0
971,234.8089207916667,235.1839207916667,63.0,109.0
972,234.8089207916667,235.2439207916667,58.0,106.0
973,234.8089207916667,235.39058745833339,51.0,104.0
974,235.60892079166672,236.20225412500005,58.0,104.0
975,235.60892079166672,236.20725412500005,61.0,109.0
976,235.60892079166672,236.21558745833337,46.0,101.0
977,236.40892079166673,236.86058745833338,63.0,106.0
978,236.40892079166673,236.90892079166673,58.0,104.0
979,237.2089207916667,237.78225412500007,58.0,91.0
980,237.2089207916667,237.79892079166672,63.0,99.0
981,236.40892079166673,237.8789207916667,51.0,106.0
982,237.2089207916667,238.0055874583334,70.0,101.0
983,238.00892079166672,238.63892079166672,58.0,101.0
984,238.00892079166672,238.67392079166672,54.0,96.0
985,238.40892079166673,238.88225412500006,49.0,66.0
986,238.8089207916667,239.16112803125003,61.0,104.0
987,238.8089207916667,239.24808448958336,58.0,99.0
988,239.2096229791667,239.63938855208337,49.0,45.0
989,239.6109604791667,240.0173146979167,61.0,96.0
990,239.6109604791667,240.08922100000004,58.0,85.0
991,240.41363547916671,240.5089531354167,54.0,85.0
992,238.00892079166672,240.52734777083336,42.0,104.0
993,240.41363547916671,240.86179568750003,58.0,104.0
994,240.41363547916671,240.87851808333338,61.0,104.0
995,240.8149729791667,240.9403909479167,54.0,96.0
996,241.2163104791667,241.76647730208336,63.0,104.0
997,241.2163104791667,241.77985521875004,58.0,101.0
998,241.2163104791667,242.26313245833336,51.0,101.0
999,242.0189854791667,242.34172771875004,66.0,94.0
1000,242.0189854791667,242.36848355208338,63.0,101.0
1001,242.8216604791667,243.33503803125004,58.0,74.0
1002,242.8216604791667,243.33671027083338,66.0,99.0
1003,242.8216604791667,243.37015506250003,63.0,99.0
1004,243.2229979791667,243.70125850000005,54.0,85.0
1005,243.2229979791667,243.7096196979167,51.0,73.0
1006,243.62433547916672,244.06747896875004,63.0,106.0
1007,243.62433547916672,244.0758401666667,66.0,104.0
1008,244.0256729791667,244.16279662500003,58.0,109.0
1009,244.4270104791667,244.9437325104167,58.0,94.0
1010,244.4270104791667,244.98052178125005,54.0,99.0
1011,245.2296854791667,245.4755046979167,61.0,101.0
1012,245.2296854791667,245.54741100000004,58.0,101.0
1013,244.8283479791667,246.08921662500003,49.0,38.0
1014,246.0323604791667,246.44540365625005,61.0,101.0
1015,246.0323604791667,246.47717620833336,58.0,99.0
1016,246.4336979791667,247.06747678125004,49.0,69.0
1017,244.4270104791667,247.17282787500005,42.0,91.0
1018,246.83503547916672,247.26981777083338,58.0,109.0
1019,246.83503547916672,247.28319568750004,61.0,109.0
1020,247.2363729791667,247.37182438541672,54.0,112.0
1021,247.6377104791667,247.7831953229167,39.0,91.0
1022,247.6377104791667,247.85510162500003,51.0,96.0
1023,247.6377104791667,247.8835296979167,54.0,101.0
1024,248.4403854791667,249.0223248541667,66.0,99.0
1025,248.4403854791667,249.08754219791672,63.0,96.0
1026,248.84172297916672,249.43202355208336,58.0,61.0
1027,249.2430604791667,249.72299323958336,70.0,104.0
1028,249.2430604791667,249.85342792708337,66.0,106.0
1029,249.6443979791667,250.09757490625003,58.0,76.0
1030,248.84172297916672,250.14941433333337,51.0,37.0
1031,250.0457354791667,250.19289256250005,63.0,104.0
1032,250.0457354791667,250.2112871979167,66.0,109.0
1033,250.0457354791667,250.2163039166667,70.0,106.0
1034,250.4524847916667,250.62200517291672,61.0,91.0
1035,250.8634432916667,251.34629519375005,63.0,96.0
1036,250.8634432916667,251.36390079791673,59.0,89.0
1037,251.2811544583334,251.84101267083338,54.0,56.0
1038,251.70368895833337,251.85861827500005,59.0,99.0
1039,250.8634432916667,251.97165656250004,47.0,101.0
1040,251.70368895833337,252.13342091250004,63.0,104.0
1041,251.70368895833337,252.20143546875005,66.0,99.0
1042,252.13709737500005,252.26945002500005,59.0,94.0
1043,252.57827287500004,252.72533137500005,37.0,96.0
1044,252.57827287500004,253.3092658208334,61.0,104.0
1045,252.57827287500004,253.31514817083337,65.0,101.0
1046,253.02724725000004,253.64063820416672,49.0,96.0
1047,253.49750102083337,253.69161857083338,61.0,104.0
1048,253.49750102083337,254.04455957083337,65.0,107.0
1049,253.49750102083337,254.1488700354167,68.0,106.0
1050,253.9680890208334,254.21769588125005,61.0,106.0
1051,254.87963857500006,255.82498181041672,51.0,80.0
1052,255.14077193125004,255.8533218645834,54.0,80.0
1053,255.3998809979167,255.85939473333337,58.0,89.0
1054,255.7521073854167,256.02133790000005,63.0,64.0
1055,254.63672382500005,258.62052572500005,46.0,73.0
1056,254.3978576541667,258.72376449375,39.0,101.0
1057,256.65291625000003,258.7703231541667,70.0,50.0
1058,256.71162064791673,258.7763960229167,75.0,64.0
1059,256.5395560333334,258.7885417604167,66.0,69.0
1060,256.46465731875,258.8168818145834,63.0,59.0
