,start,end,pitch,velocity
0,9.158539170833334,9.435158766666667,70.0,48.0
1,9.436316170833333,9.7117783625,72.0,62.0
2,9.714093170833333,10.2673323625,68.0,59.0
3,10.269647170833334,10.5451093625,65.0,61.0
4,10.547424170833333,11.378440362500001,68.0,52.0
5,11.380755170833334,11.655059958333334,70.0,72.0
6,11.658532170833334,13.599498958333333,70.0,74.0
7,13.602971170833333,13.878433362500001,70.0,91.0
8,13.880748170833334,14.1562103625,72.0,66.0
9,14.158525170833334,14.7117643625,68.0,69.0
10,14.714079170833333,15.020791275,65.0,61.0
11,14.991856170833334,15.8228723625,68.0,69.0
12,15.825187170833333,16.099491958333335,72.0,86.0
13,16.102964170833335,18.0450883625,72.0,87.0
14,18.047403170833334,18.3228653625,70.0,83.0
15,18.325180170833335,18.671244016666666,72.0,62.0
16,18.602957170833335,18.8784193625,70.0,82.0
17,18.880734170833335,19.155038958333332,68.0,61.0
18,19.158511170833332,19.710592958333333,68.0,61.0
19,19.714065170833333,20.268461766666668,68.0,65.0
20,20.269619170833334,20.8228583625,65.0,56.0
21,20.825173170833335,21.1006353625,63.0,54.0
22,21.102950170833335,21.655031958333335,68.0,74.0
23,21.658504170833332,23.0450743625,68.0,71.0
24,23.047389170833334,23.6006283625,72.0,89.0
25,23.602943170833335,23.877247958333335,70.0,66.0
26,23.880720170833335,24.7117363625,70.0,85.0
27,24.714051170833333,25.0034022125,68.0,85.0
28,24.991828170833333,26.2395098625,70.0,94.0
29,26.936267170833332,27.2117293625,70.0,48.0
30,27.214044170833333,27.489506362500002,72.0,62.0
31,27.491821170833333,28.0450603625,68.0,59.0
32,28.047375170833334,28.3228373625,65.0,61.0
33,28.325152170833334,29.0172798625,68.0,52.0
34,29.158483170833335,29.4339453625,70.0,72.0
35,29.436260170833336,30.267276362500002,70.0,74.0
36,31.380699170833335,31.6561613625,70.0,91.0
37,31.658476170833335,31.9339383625,72.0,66.0
38,31.936253170833336,32.4894923625,68.0,69.0
39,32.49180717083333,32.798519275000004,65.0,61.0
40,32.76958417083333,33.6006003625,68.0,69.0
41,33.602915170833334,33.877219958333335,72.0,86.0
42,33.880692170833335,34.7117083625,72.0,87.0
43,35.82513117083334,36.1005933625,70.0,97.0
44,36.10290817083333,36.38994440416667,72.0,84.0
45,36.38068517083333,36.9339243625,70.0,82.0
46,36.93623917083333,37.21054395833333,68.0,66.0
47,37.21401617083333,37.7672553625,68.0,67.0
48,37.76957017083333,38.321651958333334,75.0,89.0
49,38.325124170833334,38.878363362500004,75.0,77.0
50,38.880678170833335,39.433917362500004,67.0,81.0
51,39.436232170833335,40.5450253625,68.0,79.0
52,40.54734017083334,40.83206159583334,63.0,67.0
53,40.82511717083334,41.3783563625,72.0,72.0
54,41.38067117083333,41.65497595833333,70.0,87.0
55,41.65844817083333,42.4894643625,70.0,94.0
56,42.49177917083333,42.8332134,68.0,90.0
57,42.76955617083333,44.156126362500004,70.0,98.0
58,46.10288017083334,46.39686082916667,75.0,91.0
59,46.38065717083334,46.6908414875,77.0,87.0
60,46.65843417083333,46.9338963625,75.0,83.0
61,46.93621117083333,47.2116733625,72.0,74.0
62,47.21398817083333,47.492922575,70.0,68.0
63,47.49176517083333,48.3227813625,72.0,87.0
64,48.32509617083333,48.6005583625,75.0,92.0
65,48.602873170833334,48.92115931666667,77.0,80.0
66,48.880650170833334,49.160741979166666,75.0,91.0
67,49.158427170833335,49.433889362500004,72.0,71.0
68,49.436204170833335,49.711666362500004,68.0,66.0
69,49.713981170833335,50.5449973625,70.0,97.0
70,50.54731217083334,50.8227743625,75.0,76.0
71,50.82508917083334,51.26374535,77.0,81.0
72,51.10286617083334,51.4165227,75.0,76.0
73,51.38064317083334,51.6561053625,70.0,66.0
74,51.65842017083333,51.94661380833333,67.0,62.0
75,51.93619717083333,52.2116593625,68.0,63.0
76,52.21397417083333,52.49175117083333,67.0,49.0
77,52.49175117083333,52.7672133625,68.0,63.0
78,52.76952817083333,53.0449903625,70.0,65.0
79,53.04730517083333,53.335498808333334,72.0,80.0
80,53.32508217083333,53.610961,70.0,66.0
81,53.602859170833334,53.8783213625,72.0,76.0
82,53.880636170833334,54.160727979166666,73.0,74.0
83,54.158413170833335,54.988271958333335,75.0,93.0
84,54.991744170833336,55.266048958333336,75.0,90.0
85,55.269521170833336,55.5449833625,75.0,84.0
86,55.547298170833336,55.8227603625,77.0,85.0
87,55.82507517083334,56.1005373625,70.0,84.0
88,56.10285217083334,56.3783143625,72.0,79.0
89,56.38062917083334,57.2116453625,68.0,82.0
90,57.21396017083333,57.48826495833333,75.0,95.0
91,57.49173717083333,57.7671993625,75.0,95.0
92,57.76951417083333,58.0449763625,77.0,89.0
93,58.04729117083333,58.3227533625,70.0,75.0
94,58.32506817083333,58.6005303625,72.0,89.0
95,58.602845170833334,59.433861362500004,68.0,96.0
96,59.436176170833335,59.710480958333335,72.0,90.0
97,59.713953170833335,59.988257958333335,72.0,84.0
98,59.991730170833335,60.267192362500005,72.0,87.0
99,60.269507170833336,60.5449693625,70.0,75.0
100,60.547284170833336,60.8505240625,68.0,64.0
101,60.82506117083334,61.09936595833334,70.0,77.0
102,61.10283817083334,61.37714295833334,70.0,83.0
103,61.38061517083334,61.6560773625,70.0,86.0
104,61.65839217083334,61.95237282916667,72.0,64.0
105,61.93616917083334,62.2116313625,73.0,69.0
106,62.21394617083333,62.4894083625,72.0,77.0
107,62.49172317083333,62.7671853625,70.0,77.0
108,62.76950017083333,63.05306419166667,68.0,66.0
109,63.04727717083333,63.8782933625,70.0,87.0
110,63.880608170833334,64.1560703625,75.0,96.0
111,64.15838517083334,64.46393987083333,77.0,94.0
112,64.43616217083334,64.7116243625,75.0,100.0
113,64.71393917083333,64.9894013625,72.0,90.0
114,64.99171617083333,65.2671783625,70.0,91.0
115,65.26949317083333,66.1005093625,72.0,91.0
116,66.10282417083333,66.3782863625,75.0,97.0
117,66.38060117083333,66.68731327500001,77.0,93.0
118,66.65837817083333,66.94772921250001,75.0,93.0
119,66.93615517083333,67.21161736250001,72.0,68.0
120,67.21393217083333,67.48939436250001,68.0,62.0
121,67.49170917083333,68.3227253625,70.0,96.0
122,68.32504017083333,68.63059487083333,75.0,97.0
123,68.60281717083333,68.8782793625,77.0,91.0
124,68.88059417083333,69.1560563625,75.0,80.0
125,69.15837117083333,69.4338333625,70.0,66.0
126,69.43614817083333,69.7116103625,67.0,62.0
127,69.71392517083333,69.9893873625,68.0,63.0
128,69.99170217083334,70.2671643625,67.0,62.0
129,70.26947917083334,70.57387646666668,68.0,68.0
130,70.54725617083334,70.8227183625,70.0,83.0
131,70.82503317083334,71.1004953625,72.0,79.0
132,71.10281017083334,71.43961478333334,70.0,67.0
133,71.38058717083334,71.6560493625,72.0,74.0
134,71.65836417083334,72.2116033625,79.0,66.0
135,72.21391817083334,72.76599995833334,75.0,90.0
136,72.76947217083334,73.04377695833334,75.0,100.0
137,73.04724917083334,73.3296557875,75.0,91.0
138,73.32502617083334,73.6004883625,77.0,95.0
139,73.60280317083334,73.895626425,70.0,87.0
140,73.88058017083334,74.1560423625,72.0,85.0
141,74.15835717083334,74.9893733625,68.0,94.0
142,74.99168817083334,75.26599295833333,75.0,90.0
143,75.26946517083333,75.54376995833333,75.0,89.0
144,75.54724217083333,75.8227043625,75.0,86.0
145,75.82501917083333,76.1004813625,70.0,84.0
146,76.10279617083333,76.3782583625,72.0,93.0
147,76.38057317083333,77.2115893625,68.0,93.0
148,77.21390417083333,77.48820895833333,72.0,73.0
149,77.49168117083333,77.76598595833333,72.0,56.0
150,77.76945817083333,78.04492036250001,72.0,84.0
151,78.04723517083333,78.32269736250001,70.0,73.0
152,78.32501217083333,78.60047436250001,68.0,66.0
153,78.60278917083333,79.15487095833333,70.0,81.0
154,79.15834317083333,79.4338053625,70.0,91.0
155,79.43612017083333,79.7115823625,72.0,79.0
156,79.71389717083333,79.9893593625,73.0,80.0
157,79.99167417083333,80.2671363625,72.0,74.0
158,80.26945117083334,80.5449133625,70.0,69.0
159,80.54722817083334,80.8226903625,68.0,66.0
160,80.82500517083334,81.6560213625,70.0,90.0
161,81.65833617083334,81.9337983625,63.0,66.0
162,81.93611317083334,83.0449063625,72.0,91.0
163,83.04722117083334,83.6004603625,70.0,97.0
164,83.60277517083334,85.5448993625,68.0,93.0
165,104.71382717083334,104.99044676666666,70.0,48.0
166,104.99160417083334,105.2670663625,72.0,62.0
167,105.26938117083334,105.8226203625,68.0,59.0
168,105.82493517083334,106.1003973625,65.0,61.0
169,106.10271217083334,106.9337283625,68.0,52.0
170,106.93604317083333,107.21034795833333,70.0,72.0
171,107.21382017083333,109.15478695833333,70.0,74.0
172,109.15825917083333,109.43372136250001,70.0,91.0
173,109.43603617083333,109.71149836250001,72.0,66.0
174,109.71381317083333,110.2670523625,68.0,69.0
175,110.26936717083333,110.576079275,65.0,61.0
176,110.54714417083333,111.3781603625,68.0,69.0
177,111.38047517083334,111.65477995833334,72.0,86.0
178,111.65825217083334,113.6003763625,72.0,87.0
179,113.60269117083334,113.8781533625,70.0,83.0
180,113.88046817083334,114.22653201666667,72.0,62.0
181,114.15824517083334,114.7114843625,70.0,82.0
182,114.71379917083334,114.9892613625,68.0,61.0
183,114.99157617083334,115.5448153625,68.0,61.0
184,115.54713017083334,116.09921195833334,75.0,65.0
185,116.10268417083334,116.3781463625,75.0,56.0
186,116.38046117083334,116.6559233625,63.0,54.0
187,116.65823817083334,116.9337003625,72.0,74.0
188,116.93601517083333,117.2114773625,70.0,74.0
189,117.21379217083333,118.3225853625,68.0,71.0
190,118.32490017083333,118.60036236250001,63.0,71.0
191,118.60267717083333,119.15591636250001,72.0,89.0
192,119.15823117083333,119.43253595833333,70.0,66.0
193,119.43600817083333,120.26702436250001,70.0,85.0
194,120.26933917083333,120.5586902125,68.0,85.0
195,120.54711617083333,121.6559093625,70.0,94.0
196,121.65822417083334,121.9336863625,75.0,96.0
197,121.93600117083334,122.24155587083334,77.0,94.0
198,122.21377817083334,122.4892403625,75.0,100.0
199,122.49155517083334,122.7670173625,72.0,90.0
200,122.76933217083334,123.0447943625,70.0,91.0
201,123.04710917083334,123.8781253625,72.0,91.0
202,123.88044017083334,124.1559023625,75.0,97.0
203,124.15821717083334,124.464929275,77.0,93.0
204,124.43599417083334,124.7253452125,75.0,93.0
205,124.71377117083334,124.9892333625,72.0,68.0
206,124.99154817083334,125.2670103625,68.0,62.0
207,125.26932517083334,126.1003413625,70.0,96.0
208,126.10265617083334,126.40821087083333,75.0,97.0
209,126.38043317083334,126.6558953625,77.0,91.0
210,126.65821017083334,126.9336723625,75.0,80.0
211,126.93598717083334,127.2114493625,70.0,66.0
212,127.21376417083334,127.4892263625,67.0,62.0
213,127.49154117083333,127.7670033625,68.0,63.0
214,127.76931817083333,128.0447803625,67.0,62.0
215,128.04709517083333,128.35149246666666,68.0,68.0
216,128.32487217083334,128.6003343625,70.0,83.0
217,128.60264917083333,128.8781113625,72.0,79.0
218,128.88042617083335,129.21723078333335,70.0,67.0
219,129.15820317083333,129.4336653625,72.0,74.0
220,129.43598017083335,129.7114423625,73.0,66.0
221,129.71375717083333,130.54361595833333,75.0,90.0
222,130.54708817083335,130.82139295833335,75.0,100.0
223,130.82486517083333,131.1072717875,75.0,91.0
224,131.10264217083335,131.3781043625,77.0,95.0
225,131.38041917083333,131.673242425,70.0,87.0
226,131.65819617083335,131.9336583625,72.0,85.0
227,131.93597317083334,132.7669893625,68.0,94.0
228,132.76930417083332,133.04360895833332,75.0,90.0
229,133.04708117083334,133.32138595833334,75.0,89.0
230,133.32485817083332,133.6003203625,75.0,86.0
231,133.60263517083334,133.8780973625,70.0,84.0
232,133.88041217083332,134.15587436250001,72.0,93.0
233,134.15818917083334,134.9892053625,68.0,93.0
234,134.99152017083333,135.26582495833333,72.0,73.0
235,135.26929717083334,135.54360195833334,72.0,56.0
236,135.54707417083333,135.82253636250002,72.0,84.0
237,135.82485117083334,136.1003133625,70.0,73.0
238,136.10262817083333,136.3780903625,68.0,66.0
239,136.38040517083334,136.6558673625,70.0,81.0
240,136.65818217083333,136.9336443625,70.0,81.0
241,136.93595917083334,137.2114213625,70.0,91.0
242,137.21373617083333,137.4891983625,72.0,79.0
243,137.49151317083334,137.7669753625,73.0,80.0
244,137.76929017083333,138.0447523625,72.0,74.0
245,138.04706717083334,138.3225293625,70.0,69.0
246,138.32484417083333,138.6003063625,68.0,66.0
247,138.60262117083334,139.4336373625,70.0,90.0
248,139.43595217083333,139.7114143625,75.0,96.0
249,139.71372917083335,140.01928387083333,77.0,94.0
250,139.99150617083333,140.2669683625,75.0,100.0
251,140.26928317083335,140.5447453625,72.0,90.0
252,140.54706017083333,140.8225223625,70.0,91.0
253,140.82483717083335,141.6558533625,72.0,91.0
254,141.65816817083333,141.9336303625,75.0,97.0
255,141.93594517083335,142.242657275,77.0,93.0
256,142.21372217083334,142.5030732125,75.0,93.0
257,142.49149917083335,142.7669613625,72.0,68.0
258,142.76927617083334,143.0447383625,68.0,62.0
259,143.04705317083332,143.8780693625,70.0,96.0
260,143.88038417083334,144.18593887083333,75.0,97.0
261,144.15816117083332,144.43362336250001,77.0,91.0
262,144.43593817083334,144.7114003625,75.0,80.0
263,144.71371517083332,144.98917736250002,70.0,66.0
264,144.99149217083334,145.2669543625,67.0,62.0
265,145.26926917083333,145.54473136250002,68.0,63.0
266,145.54704617083334,145.8225083625,67.0,62.0
267,145.82482317083333,146.12922046666668,68.0,68.0
268,146.10260017083334,146.3780623625,70.0,83.0
269,146.38037717083333,146.6558393625,72.0,79.0
270,146.65815417083334,146.99495878333335,70.0,67.0
271,146.93593117083333,147.2113933625,72.0,74.0
272,147.21370817083334,147.7669473625,79.0,66.0
273,147.76926217083334,148.32134395833333,75.0,90.0
274,148.32481617083334,148.59912095833334,75.0,100.0
275,148.60259317083333,148.8849997875,75.0,91.0
276,148.88037017083334,149.1558323625,77.0,95.0
277,149.15814717083333,149.450970425,70.0,87.0
278,149.43592417083335,149.7113863625,72.0,85.0
279,149.71370117083333,150.5447173625,68.0,94.0
280,150.54703217083335,150.82133695833335,75.0,90.0
281,150.82480917083333,151.09911395833333,75.0,89.0
282,151.10258617083335,151.3780483625,75.0,86.0
283,151.38036317083333,151.6558253625,70.0,84.0
284,151.65814017083335,151.9336023625,72.0,93.0
285,151.93591717083333,152.7669333625,68.0,93.0
286,152.76924817083335,153.04355295833335,72.0,73.0
287,153.04702517083334,153.32132995833334,72.0,56.0
288,153.32480217083335,153.6002643625,72.0,84.0
289,153.60257917083334,153.8780413625,70.0,73.0
290,153.88035617083332,154.1558183625,68.0,66.0
291,154.15813317083334,154.71021495833332,70.0,81.0
292,154.71368717083334,154.9891493625,70.0,91.0
293,154.99146417083332,155.26692636250002,72.0,79.0
294,155.26924117083334,155.5447033625,73.0,80.0
295,155.54701817083333,155.82248036250002,72.0,74.0
296,155.82479517083334,156.1002573625,70.0,69.0
297,156.10257217083333,156.37803436250002,68.0,66.0
298,156.38034917083334,157.2113653625,70.0,90.0
299,157.21368017083333,157.4891423625,63.0,66.0
300,157.49145717083334,158.3224733625,72.0,91.0
301,158.32478817083333,158.8780273625,70.0,97.0
302,158.88034217083333,160.82478117083335,68.0,93.0
303,174.99140817083332,175.26687036250001,75.0,96.0
304,175.26918517083334,175.5446473625,77.0,94.0
305,175.54696217083332,175.82242436250002,75.0,100.0
306,175.82473917083334,176.1002013625,72.0,90.0
307,176.10251617083333,176.37797836250002,70.0,91.0
308,176.38029317083334,177.2113093625,72.0,91.0
309,177.21362417083333,177.48908636250002,75.0,97.0
310,177.49140117083334,177.7668633625,77.0,93.0
311,177.76917817083333,178.0446403625,75.0,93.0
312,178.04695517083334,178.3224173625,72.0,68.0
313,178.32473217083333,178.6001943625,68.0,62.0
314,178.60250917083334,179.4335253625,70.0,96.0
315,179.43584017083333,179.7113023625,75.0,97.0
316,179.71361717083334,179.9890793625,77.0,91.0
317,179.99139417083333,180.2668563625,75.0,80.0
318,180.26917117083335,180.5446333625,70.0,66.0
319,180.54694817083333,180.8224103625,67.0,62.0
320,180.82472517083335,181.1001873625,68.0,63.0
321,181.10250217083333,181.3779643625,67.0,62.0
322,181.38027917083335,181.6557413625,68.0,68.0
323,181.65805617083333,181.9335183625,70.0,83.0
324,181.93583317083335,182.2112953625,72.0,79.0
325,182.21361017083333,182.4890723625,70.0,67.0
326,182.49138717083335,182.7668493625,72.0,74.0
327,182.76916417083333,183.0446263625,73.0,66.0
328,183.04694117083335,183.87679995833335,75.0,90.0
329,183.88027217083334,184.15457695833334,75.0,100.0
330,184.15804917083335,184.4335113625,75.0,91.0
331,184.43582617083334,184.7112883625,77.0,95.0
332,184.71360317083335,184.9890653625,70.0,87.0
333,184.99138017083334,185.2668423625,72.0,85.0
334,185.26915717083332,186.10017336250002,68.0,94.0
335,186.10248817083334,186.37679295833334,75.0,90.0
336,186.38026517083333,186.65456995833333,75.0,89.0
337,186.65804217083334,186.9335043625,75.0,86.0
338,186.93581917083333,187.21128136250002,70.0,84.0
339,187.21359617083334,187.4890583625,72.0,93.0
340,187.49137317083333,188.3223893625,68.0,93.0
341,188.32470417083334,188.59900895833334,72.0,73.0
342,188.60248117083333,188.87678595833333,72.0,56.0
343,188.88025817083334,189.1557203625,72.0,84.0
344,189.15803517083333,189.4334973625,70.0,73.0
345,189.43581217083334,189.7112743625,68.0,66.0
346,189.71358917083333,189.9890513625,70.0,81.0
347,189.99136617083334,190.26567095833335,70.0,81.0
348,190.26914317083333,190.5446053625,70.0,91.0
349,190.54692017083335,190.8223823625,72.0,79.0
350,190.82469717083333,191.1001593625,73.0,80.0
351,191.10247417083335,191.3779363625,75.0,74.0
352,191.38025117083333,191.6557133625,72.0,69.0
353,191.65802817083335,191.9334903625,68.0,66.0
354,191.93580517083333,192.7668213625,70.0,90.0
355,192.76913617083335,193.0445983625,75.0,96.0
356,193.04691317083334,193.35246787083335,77.0,94.0
357,193.32469017083335,193.6001523625,75.0,100.0
358,193.60246717083334,193.8779293625,72.0,90.0
359,193.88024417083335,194.1557063625,70.0,91.0
360,194.15802117083334,194.9890373625,72.0,91.0
361,194.99135217083335,195.2668143625,75.0,97.0
362,195.26912917083334,195.57584127500002,77.0,93.0
363,195.54690617083332,195.83625721250002,75.0,93.0
364,195.82468317083334,196.1001453625,72.0,68.0
365,196.10246017083333,196.37792236250002,68.0,62.0
366,196.38023717083334,197.2112533625,70.0,96.0
367,197.21356817083333,197.51912287083334,75.0,97.0
368,197.49134517083334,197.7668073625,77.0,91.0
369,197.76912217083333,198.04458436250002,75.0,80.0
370,198.04689917083334,198.3223613625,70.0,66.0
371,198.32467617083333,198.60013836250002,67.0,62.0
372,198.60245317083334,198.8779153625,68.0,63.0
373,198.88023017083333,199.1556923625,67.0,62.0
374,199.15800717083334,199.46240446666667,68.0,68.0
375,199.43578417083333,199.7112463625,70.0,83.0
376,199.71356117083334,199.9890233625,72.0,79.0
377,199.99133817083333,200.32814278333333,70.0,67.0
378,200.26911517083335,200.5445773625,72.0,74.0
379,200.54689217083333,201.1001313625,79.0,66.0
380,201.10244617083333,201.65452795833335,75.0,90.0
381,201.65800017083333,201.93230495833333,75.0,100.0
382,201.93577717083335,202.2112393625,75.0,91.0
383,202.21355417083333,202.4890163625,75.0,95.0
384,202.49133117083335,202.784154425,70.0,87.0
385,202.76910817083333,203.0445703625,72.0,85.0
386,203.04688517083335,203.8779013625,68.0,94.0
387,203.88021617083334,204.15452095833334,75.0,90.0
388,204.15799317083335,204.43229795833335,75.0,89.0
389,204.43577017083334,204.7112323625,75.0,86.0
390,204.71354717083335,204.9890093625,70.0,84.0
391,204.99132417083334,205.2667863625,72.0,93.0
392,205.26910117083335,206.10011736250001,68.0,93.0
393,206.10243217083334,206.37673695833334,72.0,73.0
394,206.38020917083333,206.65451395833333,72.0,56.0
395,206.65798617083334,206.9334483625,72.0,84.0
396,206.93576317083333,207.21122536250002,70.0,73.0
397,207.21354017083334,207.4890023625,68.0,66.0
398,207.49131717083333,208.04339895833334,70.0,81.0
399,208.04687117083333,208.32233336250002,70.0,91.0
400,208.32464817083334,208.6001103625,72.0,79.0
401,208.60242517083333,208.87788736250002,73.0,80.0
402,208.88020217083334,209.1556643625,72.0,74.0
403,209.15797917083333,209.4334413625,70.0,69.0
404,209.43575617083334,209.7112183625,68.0,66.0
405,209.71353317083333,210.5445493625,70.0,90.0
406,210.54686417083335,210.8223263625,63.0,66.0
407,210.82464117083333,211.9334343625,72.0,91.0
408,211.93574917083333,212.4889883625,70.0,97.0
409,212.49130317083333,214.5723158625,68.0,93.0
