,start,end,pitch,velocity
0,0.8252291708333334,1.3993016375,60.0,79.0
1,0.8252291708333334,1.4050886583333333,56.0,68.0
2,0.8252291708333334,1.4340237625,63.0,76.0
3,1.3807831708333334,1.9629574666666667,51.0,58.0
4,1.9363371708333335,2.4664282791666667,60.0,71.0
5,1.9363371708333335,2.5300855083333333,63.0,73.0
6,1.9363371708333335,2.534715125,56.0,34.0
7,0.8252291708333334,2.6388815,44.0,71.0
8,2.4918911708333336,3.0636488291666666,51.0,63.0
9,3.0474451708333334,3.6377212958333334,56.0,57.0
10,3.0474451708333334,3.6377212958333334,61.0,75.0
11,3.0474451708333334,3.643508316666667,65.0,70.0
12,4.158553170833334,4.7604033375000006,61.0,61.0
13,3.0474451708333334,4.812486525,44.0,68.0
14,4.158553170833334,4.851838266666666,56.0,45.0
15,4.158553170833334,4.866884520833334,65.0,58.0
16,3.6029991708333333,5.2222076,53.0,56.0
17,5.269661170833333,5.785863429166667,56.0,56.0
18,5.269661170833333,5.787020833333333,60.0,75.0
19,5.269661170833333,5.814798533333334,63.0,75.0
20,5.825215170833333,6.417806104166667,51.0,56.0
21,6.380769170833333,6.962943466666667,56.0,33.0
22,6.380769170833333,6.9895637625,60.0,58.0
23,6.380769170833333,7.060165416666667,63.0,73.0
24,5.269661170833333,7.2372482541666665,44.0,67.0
25,6.936323170833334,7.534701125,51.0,58.0
26,7.352988670833334,8.863401108333333,58.0,75.0
27,7.352988670833334,8.93053055,55.0,60.0
28,7.491877170833334,8.935160166666666,63.0,80.0
29,9.714093170833333,10.298582275000001,72.0,78.0
30,9.714093170833333,10.3333044,68.0,76.0
31,9.714093170833333,10.433998562500001,63.0,72.0
32,9.714093170833333,11.155061358333334,56.0,55.0
33,10.825201170833333,11.354134875,68.0,75.0
34,10.825201170833333,11.4201069125,72.0,80.0
35,10.825201170833333,11.444412400000001,63.0,72.0
36,11.380755170833334,11.497652991666667,56.0,54.0
37,11.936309170833333,12.789316041666668,63.0,63.0
38,11.936309170833333,12.812464125,70.0,76.0
39,11.936309170833333,12.813621529166667,67.0,79.0
40,11.936309170833333,13.453666033333334,55.0,77.0
41,13.047417170833334,13.665470995833333,67.0,76.0
42,13.047417170833334,13.699035716666668,63.0,62.0
43,13.047417170833334,13.701350525,70.0,73.0
44,13.602971170833333,13.714081970833334,55.0,72.0
45,11.936309170833333,13.807831708333334,43.0,69.0
46,14.158525170833334,14.6631533875,72.0,82.0
47,14.158525170833334,14.687458875,53.0,78.0
48,14.158525170833334,14.783523420833333,68.0,79.0
49,14.158525170833334,14.8575972875,63.0,79.0
50,14.991856170833334,15.533521320833334,53.0,56.0
51,14.158525170833334,15.743011475000001,41.0,78.0
52,15.269633170833334,15.7881502375,72.0,80.0
53,15.269633170833334,15.858751891666667,68.0,79.0
54,15.269633170833334,15.878427762500001,63.0,80.0
55,15.825187170833333,15.928196141666668,53.0,71.0
56,16.380741170833335,16.976804316666666,72.0,82.0
57,16.380741170833335,17.063609629166667,67.0,83.0
58,16.380741170833335,17.077498479166668,63.0,72.0
59,16.936295170833333,17.539302741666667,60.0,30.0
60,17.491849170833333,18.091384529166668,67.0,81.0
61,17.491849170833333,18.094856741666668,63.0,69.0
62,17.491849170833333,18.113375208333334,72.0,76.0
63,16.380741170833335,18.146939929166667,51.0,72.0
64,18.047403170833334,18.17471762916667,60.0,73.0
65,18.325180170833335,18.5311981125,68.0,79.0
66,18.602957170833335,19.251103504166668,63.0,72.0
67,18.602957170833335,19.268464566666665,65.0,76.0
68,18.602957170833335,19.273094183333335,68.0,71.0
69,19.158511170833332,19.8020278875,56.0,37.0
70,19.714065170833333,20.200174920833334,61.0,49.0
71,18.602957170833335,20.284665425,49.0,80.0
72,19.714065170833333,20.325174570833333,65.0,76.0
73,19.714065170833333,20.332118995833333,63.0,75.0
74,19.714065170833333,20.34485044166667,68.0,79.0
75,20.269619170833334,20.446702008333332,56.0,50.0
76,20.825173170833335,21.710587358333335,72.0,79.0
77,20.825173170833335,21.73605025,63.0,73.0
78,20.825173170833335,21.73605025,68.0,76.0
79,20.825173170833335,22.304335695833334,44.0,73.0
80,21.936281170833333,22.40271505,72.0,83.0
81,20.825173170833335,22.432807558333334,56.0,60.0
82,21.936281170833333,22.453640833333335,68.0,80.0
83,21.936281170833333,22.514983254166665,63.0,78.0
84,23.047389170833334,23.824007366666667,63.0,68.0
85,23.047389170833334,23.973312504166667,65.0,71.0
86,23.047389170833334,23.99414577916667,68.0,75.0
87,23.047389170833334,23.99761799166667,73.0,73.0
88,23.047389170833334,24.530023908333334,61.0,57.0
89,24.158497170833336,24.6422921125,73.0,68.0
90,23.047389170833334,24.652708750000002,56.0,63.0
91,23.047389170833334,24.66775500416667,49.0,58.0
92,24.158497170833336,24.755717720833335,65.0,77.0
93,24.158497170833336,24.76381955,68.0,75.0
94,25.269605170833334,25.766131558333335,51.0,68.0
95,25.269605170833334,25.778863004166666,61.0,75.0
96,25.269605170833334,25.81705734166667,68.0,77.0
97,25.269605170833334,25.95594584166667,65.0,80.0
98,26.102936170833335,26.536962733333333,51.0,53.0
99,26.380713170833335,26.915433895833335,63.0,79.0
100,25.269605170833334,26.939739383333333,39.0,76.0
101,26.380713170833335,26.952470829166668,70.0,80.0
102,26.380713170833335,26.965202275,67.0,84.0
103,26.936267170833332,27.0554798,51.0,72.0
104,27.491821170833333,27.939736583333335,63.0,75.0
105,27.491821170833333,28.06936585,68.0,80.0
106,27.491821170833333,28.1839488625,72.0,86.0
107,28.047375170833334,28.380707570833334,63.0,59.0
108,28.325152170833334,28.590197725,68.0,71.0
109,27.769598170833333,28.771910179166667,56.0,57.0
110,28.602929170833335,29.006863225,63.0,79.0
111,28.602929170833335,29.050844583333333,68.0,58.0
112,28.602929170833335,29.075150070833335,72.0,80.0
113,28.880706170833335,29.369130729166667,56.0,51.0
114,29.158483170833335,29.393436216666668,63.0,58.0
115,27.491821170833333,29.432787958333336,44.0,84.0
116,29.436260170833336,29.616815220833335,72.0,84.0
117,29.714037170833333,30.2221376,67.0,84.0
118,29.714037170833333,30.269591170833333,70.0,77.0
119,29.714037170833333,30.352924270833334,63.0,77.0
120,30.547368170833334,30.739497262500002,63.0,71.0
121,30.269591170833333,30.910793079166666,55.0,57.0
122,30.825145170833334,31.220977395833334,63.0,80.0
123,30.825145170833334,31.280005008333333,70.0,81.0
124,31.102922170833335,31.398060233333336,55.0,63.0
125,31.380699170833335,31.613337408333333,67.0,75.0
126,29.714037170833333,31.792735054166666,43.0,47.0
127,31.658476170833335,31.856392283333335,72.0,80.0
128,31.936253170833336,32.3436594375,63.0,75.0
129,31.936253170833336,32.383011179166665,68.0,81.0
130,31.936253170833336,32.409631475,72.0,62.0
131,32.49180717083333,32.693195495833336,63.0,69.0
132,32.21403017083333,33.082083295833336,53.0,56.0
133,32.76958417083333,33.3922676125,68.0,79.0
134,32.76958417083333,33.41541569583333,63.0,76.0
135,31.936253170833336,33.54735977083333,41.0,83.0
136,33.325138170833334,33.70360933333333,53.0,63.0
137,33.602915170833334,33.82860898333333,63.0,78.0
138,33.602915170833334,33.90731246666667,68.0,80.0
139,33.880692170833335,34.05314539166667,70.0,72.0
140,34.158469170833335,34.551986587500004,67.0,83.0
141,34.158469170833335,34.554301395833335,63.0,78.0
142,34.158469170833335,34.555458800000004,70.0,76.0
143,34.436246170833336,35.2221236,60.0,39.0
144,34.991800170833336,35.54735417083334,67.0,79.0
145,34.991800170833336,35.56703004166667,75.0,82.0
146,34.714023170833336,35.659622375,63.0,69.0
147,35.54735417083334,35.9825381375,60.0,79.0
148,34.158469170833335,36.06008421666667,51.0,76.0
149,35.82513117083334,36.07860268333334,68.0,75.0
150,35.82513117083334,36.117954425,63.0,75.0
151,36.10290817083333,36.318185345833335,67.0,79.0
152,36.38068517083333,36.967489083333334,65.0,79.0
153,36.38068517083333,36.990637166666666,68.0,82.0
154,36.93623917083333,37.44896921666667,61.0,63.0
155,37.21401617083333,37.72327400416667,68.0,75.0
156,37.21401617083333,37.73021842916667,63.0,78.0
157,37.21401617083333,37.771884979166664,65.0,78.0
158,37.76957017083333,37.99873619583333,61.0,60.0
159,36.38068517083333,38.079754487500004,49.0,82.0
160,36.65846217083333,38.09480074166667,56.0,75.0
161,38.04734717083333,38.27998540833333,63.0,76.0
162,38.325124170833334,38.5866975125,67.0,63.0
163,38.602901170833334,38.96632607916667,70.0,80.0
164,38.602901170833334,38.9825297375,63.0,76.0
165,38.602901170833334,38.98831675833333,67.0,83.0
166,38.602901170833334,39.1387793,48.0,86.0
167,38.880678170833335,39.424658129166666,60.0,69.0
168,39.158455170833335,39.4408617875,63.0,80.0
169,39.436232170833335,40.04965637916667,72.0,84.0
170,39.714009170833336,40.14340611666667,68.0,82.0
171,39.714009170833336,40.18044305,63.0,79.0
172,39.991786170833336,40.380673970833335,60.0,78.0
173,39.714009170833336,40.43159975416667,53.0,81.0
174,40.26956317083334,40.612154804166664,68.0,79.0
175,40.54734017083334,40.69664530833334,70.0,78.0
176,40.82511717083334,41.22442160833334,70.0,79.0
177,40.82511717083334,41.242940075,61.0,78.0
178,40.82511717083334,41.27534739166667,65.0,79.0
179,41.38067117083333,41.606364983333336,61.0,83.0
180,41.10289417083334,41.8158551375,58.0,62.0
181,41.65844817083333,42.3089093125,61.0,54.0
182,41.65844817083333,42.31353892916667,70.0,83.0
183,41.65844817083333,42.32742777916667,65.0,84.0
184,42.49177917083333,42.59478814166667,70.0,69.0
185,42.21400217083333,42.61562141666667,58.0,69.0
186,40.82511717083334,42.648028733333334,46.0,80.0
187,42.49177917083333,42.83089859166667,61.0,82.0
188,42.76955617083333,42.967472283333336,70.0,78.0
189,43.04733317083333,43.079740487500004,70.0,46.0
190,43.04733317083333,43.42811914166667,61.0,79.0
191,43.04733317083333,43.452424629166664,65.0,84.0
192,43.04733317083333,43.460526458333334,68.0,78.0
193,43.602887170833334,43.899182637500004,61.0,83.0
194,43.880664170833334,44.10520057916667,65.0,82.0
195,43.325110170833334,44.5172364625,51.0,68.0
196,44.158441170833335,44.561217820833335,63.0,79.0
197,44.158441170833335,44.756819125,67.0,82.0
198,43.04733317083333,44.972096300000004,39.0,84.0
199,44.713995170833336,45.03922574166667,68.0,81.0
200,44.713995170833336,45.0554294,51.0,61.0
201,44.713995170833336,45.087836716666665,63.0,80.0
202,44.991772170833336,45.117929225000005,70.0,80.0
203,45.130660670833336,45.771862579166665,79.0,82.0
204,45.130660670833336,45.81815874583334,75.0,69.0
205,45.269549170833336,45.867927125,87.0,75.0
206,47.49176517083333,47.88759739583333,44.0,76.0
207,47.76954217083333,48.01954147083333,51.0,75.0
208,48.04731917083333,48.40727186666667,56.0,58.0
209,47.49176517083333,48.606345383333334,72.0,86.0
210,47.49176517083333,48.628336062500004,68.0,82.0
211,47.49176517083333,48.6630581875,63.0,80.0
212,48.602873170833334,49.048473775,60.0,84.0
213,48.32509617083333,49.06467743333334,58.0,75.0
214,48.880650170833334,49.08782551666667,63.0,84.0
215,49.158427170833335,49.2811120125,63.0,53.0
216,49.158427170833335,49.59939815833334,68.0,80.0
217,49.436204170833335,49.61907402916667,72.0,90.0
218,49.713981170833335,50.02648029583334,67.0,90.0
219,49.713981170833335,50.04615616666667,63.0,80.0
220,49.713981170833335,50.087822716666665,70.0,82.0
221,50.269535170833336,50.391062608333336,63.0,75.0
222,49.991758170833336,50.8436076375,55.0,75.0
223,50.54731217083334,51.036894133333334,75.0,90.0
224,50.54731217083334,51.11906982916667,63.0,86.0
225,51.10286617083334,51.49754099166667,55.0,83.0
226,49.713981170833335,51.577401879166665,43.0,86.0
227,51.38064317083334,51.598235154166666,70.0,84.0
228,51.38064317083334,51.77300318333334,63.0,84.0
229,51.65842017083333,51.81466973333333,67.0,84.0
230,51.93619717083333,52.1942983,41.0,84.0
231,52.21397417083333,52.57508427083334,53.0,76.0
232,51.93619717083333,52.7602689375,72.0,86.0
233,51.93619717083333,52.8505464625,63.0,86.0
234,51.93619717083333,52.86327790833334,68.0,90.0
235,53.04730517083333,53.2498509,63.0,84.0
236,53.32508217083333,53.43966518333333,63.0,73.0
237,52.76952817083333,53.57855368333333,58.0,76.0
238,53.32508217083333,53.631794275000004,68.0,90.0
239,53.602859170833334,53.786886433333336,63.0,83.0
240,52.49175117083333,54.029941308333335,56.0,80.0
241,53.602859170833334,54.08781151666667,70.0,86.0
242,53.880636170833334,54.1283206625,58.0,72.0
243,54.158413170833335,54.576236075000004,63.0,86.0
244,54.158413170833335,54.590124925,67.0,91.0
245,54.713967170833335,54.85864269166667,63.0,83.0
246,54.436190170833335,55.255632320833335,60.0,84.0
247,54.991744170833336,55.4824835375,67.0,81.0
248,54.991744170833336,55.492900175,75.0,94.0
249,54.991744170833336,55.6213720375,63.0,86.0
250,55.82507517083334,55.94544520416667,68.0,90.0
251,55.547298170833336,55.979009925,60.0,80.0
252,54.158413170833335,55.98479694583334,51.0,83.0
253,55.82507517083334,56.01604685833333,63.0,84.0
254,56.10285217083334,56.2324814375,67.0,84.0
255,56.38062917083334,56.7185911875,61.0,83.0
256,56.38062917083334,56.81465573333333,68.0,82.0
257,56.38062917083334,56.8366464125,65.0,91.0
258,57.21396017083333,57.381783775,63.0,82.0
259,57.21396017083333,57.423450325000005,67.0,83.0
260,56.93618317083333,57.797291870833334,61.0,76.0
261,57.76951417083333,57.815810337500004,63.0,68.0
262,58.04729117083333,58.12599465416667,61.0,83.0
263,56.38062917083334,58.15030014166667,49.0,90.0
264,57.76951417083333,58.16881860833333,68.0,86.0
265,56.65840617083334,58.17460562916667,56.0,76.0
266,57.76951417083333,58.17807784166667,65.0,94.0
267,58.32506817083333,58.4408085875,63.0,71.0
268,58.602845170833334,58.9616404625,68.0,86.0
269,58.602845170833334,58.96742748333333,63.0,84.0
270,59.158399170833334,59.68038845,56.0,80.0
271,59.436176170833335,60.06927625,58.0,86.0
272,59.436176170833335,60.06927625,63.0,86.0
273,60.269507170833336,60.29959967916667,63.0,54.0
274,59.991730170833335,60.34126622916667,56.0,78.0
275,58.880622170833334,60.369043929166665,51.0,82.0
276,58.602845170833334,60.388719800000004,44.0,86.0
277,60.269507170833336,60.44311779583334,60.0,94.0
278,60.269507170833336,60.70006152083334,68.0,86.0
279,60.82506117083334,61.09242153333334,37.0,99.0
280,60.82506117083334,61.37019853333334,56.0,91.0
281,61.10283817083334,61.437327975,49.0,74.0
282,60.82506117083334,61.63640149166667,61.0,90.0
283,60.82506117083334,61.65029034166667,65.0,84.0
284,61.93616917083334,62.288020037500004,61.0,90.0
285,61.65839217083334,62.3852419875,56.0,79.0
286,61.38061517083334,62.43848257916667,53.0,81.0
287,62.21394617083333,62.553065591666666,65.0,84.0
288,62.49172317083333,62.77297238333333,66.0,76.0
289,62.76950017083333,62.9442682,68.0,73.0
290,63.04727717083333,63.496349987500004,67.0,86.0
291,63.04727717083333,63.53222951666667,63.0,86.0
292,63.04727717083333,63.6560717625,58.0,82.0
293,63.880608170833334,64.07157985833334,58.0,80.0
294,63.60283117083333,64.2220424,51.0,73.0
295,64.15838517083334,64.444264,63.0,83.0
296,64.15838517083334,64.46972689166667,58.0,78.0
297,64.15838517083334,64.51023603750001,67.0,84.0
298,63.04727717083333,64.6664856,39.0,84.0
299,64.43616217083334,64.6942633,51.0,60.0
300,63.32505417083333,64.79148525000001,46.0,82.0
301,64.71393917083333,64.94310519583334,58.0,75.0
302,64.71393917083333,64.95583664166666,63.0,84.0
303,64.71393917083333,64.9894013625,68.0,84.0
304,64.99171617083333,65.10629918333333,43.0,84.0
305,65.26949317083333,65.6907882875,68.0,84.0
306,65.26949317083333,65.72782522083334,60.0,84.0
307,65.26949317083333,65.826204575,63.0,86.0
308,65.82504717083333,65.95583384166667,58.0,78.0
309,65.82504717083333,65.96972269166668,67.0,83.0
310,65.82504717083333,66.2498145,56.0,78.0
311,66.10282417083333,66.60629498333334,68.0,84.0
312,66.10282417083333,66.72782242083333,60.0,86.0
313,66.10282417083333,66.7393964625,63.0,84.0
314,66.65837817083333,66.83198879583334,56.0,83.0
315,65.54727017083333,66.90143304583333,51.0,80.0
316,65.26949317083333,66.95583104166667,44.0,86.0
317,66.93615517083333,67.16763600416667,67.0,91.0
318,66.93615517083333,67.1699508125,60.0,80.0
319,67.21393217083333,67.40027424166666,68.0,83.0
320,67.49170917083333,68.2255034125,67.0,78.0
321,67.49170917083333,68.38985480416667,63.0,91.0
322,67.49170917083333,68.43267875833334,58.0,84.0
323,68.60281717083333,68.97087169583334,58.0,83.0
324,68.88059417083333,69.04610296666667,67.0,98.0
325,68.32504017083333,69.18962108333334,55.0,84.0
326,68.04726317083333,69.28915784166666,51.0,80.0
327,67.49170917083333,69.36670392083333,43.0,98.0
328,69.15837117083333,69.40142604583333,68.0,91.0
329,69.43614817083333,69.6421661125,70.0,83.0
330,69.71392517083333,69.94193379166667,41.0,86.0
331,69.99170217083334,70.33892342083334,53.0,69.0
332,69.71392517083333,70.58429310416666,72.0,93.0
333,69.71392517083333,70.63753369583334,63.0,84.0
334,69.71392517083333,70.65142254583334,68.0,84.0
335,70.82503317083334,70.992856775,63.0,83.0
336,71.10281017083334,71.13753229583334,63.0,43.0
337,70.54725617083334,71.26253194583333,60.0,82.0
338,71.10281017083334,71.27873560416667,68.0,81.0
339,70.26947917083334,71.3296613875,56.0,78.0
340,71.38058717083334,71.4442444,68.0,57.0
341,71.38058717083334,71.66067897916666,70.0,79.0
342,71.65836417083334,71.7775768,72.0,81.0
343,71.93614117083334,72.27294578333334,72.0,95.0
344,71.93614117083334,72.31461233333333,63.0,84.0
345,71.93614117083334,72.31808454583333,67.0,86.0
346,72.21391817083334,72.52178767916666,60.0,76.0
347,71.93614117083334,72.659518775,48.0,91.0
348,72.49169517083334,72.70812975,63.0,83.0
349,72.76947217083334,72.93613837083333,67.0,86.0
350,73.04724917083334,73.09238793333334,63.0,40.0
351,73.32502617083334,73.6352104875,63.0,90.0
352,73.32502617083334,73.72548801250001,70.0,96.0
353,73.88058017083334,74.034514925,68.0,84.0
354,74.15835717083334,74.52641169583333,61.0,86.0
355,74.15835717083334,74.62363364583334,68.0,90.0
356,74.15835717083334,74.81229052500001,65.0,86.0
357,74.71391117083334,75.3574278875,61.0,68.0
358,74.99168817083334,75.45349243333334,63.0,83.0
359,74.99168817083334,75.61205680416667,68.0,86.0
360,75.54724217083333,75.87594495416667,61.0,90.0
361,74.15835717083334,76.04376855833334,49.0,84.0
362,75.82501917083333,76.07733327916667,63.0,95.0
363,74.43613417083334,76.12478685,56.0,75.0
364,76.10279617083333,76.26483275416666,68.0,79.0
365,75.96390767083334,76.29145305,67.0,71.0
366,76.38057317083333,76.71274816666667,67.0,81.0
367,76.38057317083333,76.72779442083333,63.0,83.0
368,76.38057317083333,76.73010922916667,70.0,76.0
369,76.38057317083333,76.92802534166667,48.0,91.0
370,76.93612717083333,77.14445992083334,63.0,84.0
371,76.65835017083333,77.1768672375,60.0,75.0
372,77.21390417083333,77.423394325,72.0,94.0
373,77.49168117083333,77.8365876125,63.0,86.0
374,77.49168117083333,77.87593935416668,68.0,90.0
375,77.76945817083333,78.02987410833333,60.0,83.0
376,77.49168117083333,78.05880921250001,53.0,84.0
377,78.04723517083333,78.38635459166667,70.0,86.0
378,78.32501217083333,78.56343742916667,72.0,86.0
379,78.60278917083333,79.03218611666667,65.0,82.0
380,78.60278917083333,79.04144535,63.0,79.0
381,78.60278917083333,79.09468594166667,68.0,83.0
382,79.43612017083333,79.6351936875,63.0,80.0
383,79.71389717083333,79.93148915416667,65.0,83.0
384,79.15834317083333,80.07153505833334,61.0,79.0
385,79.99167417083333,80.37593235416666,63.0,84.0
386,80.26945117083334,80.38287677916666,61.0,84.0
387,79.99167417083333,80.409497075,68.0,84.0
388,78.60278917083333,80.47315430416667,49.0,84.0
389,78.88056617083333,80.47778392083333,56.0,75.0
390,80.54722817083334,80.7254684125,65.0,84.0
391,80.82500517083334,81.07153225833333,39.0,83.0
392,81.10278217083334,81.46967929166667,51.0,69.0
393,80.82500517083334,81.65023434166667,61.0,84.0
394,80.82500517083334,81.68264165833334,65.0,80.0
395,80.82500517083334,81.71389157083334,68.0,80.0
396,81.93611317083334,82.14676072916667,61.0,90.0
397,81.38055917083334,82.19305689583334,56.0,79.0
398,81.65833617083334,82.20347353333334,58.0,72.0
399,82.21389017083334,82.41180628333333,65.0,84.0
400,82.49166717083334,82.69652770833333,68.0,84.0
401,82.76944417083334,82.97661951666667,67.0,79.0
402,83.04722117083334,83.4962939875,68.0,86.0
403,83.04722117083334,83.51596985833334,63.0,84.0
404,83.88055217083334,84.28448622500001,61.0,84.0
405,83.60277517083334,84.53911514166667,56.0,72.0
406,83.04722117083334,84.90485485833334,44.0,79.0
407,84.43610617083334,84.91758630416666,63.0,84.0
408,84.71388317083334,84.98587315,56.0,68.0
409,83.32499817083334,85.21040955833334,51.0,79.0
410,84.99166017083334,86.48586895,58.0,57.0
411,85.26943717083334,86.48586895,60.0,79.0
412,85.26943717083334,86.4997578,63.0,80.0
413,85.26943717083334,86.51596145833334,56.0,63.0
414,85.26943717083334,86.5240632875,51.0,44.0
415,85.26943717083334,86.5240632875,68.0,76.0
416,85.26943717083334,86.54373915833334,44.0,73.0
417,88.04720717083333,88.32035455416667,68.0,59.0
418,88.32498417083333,89.20808355,70.0,69.0
419,87.76943017083333,89.27521299166666,63.0,77.0
420,87.49165317083333,89.30299069166666,56.0,72.0
421,89.15831517083333,89.44998102083333,72.0,57.0
422,89.43609217083333,90.10275697083334,70.0,69.0
423,90.26942317083333,90.951134225,67.0,70.0
424,89.71386917083333,91.42451252916666,55.0,74.0
425,89.99164617083333,91.478910525,63.0,56.0
426,90.54720017083334,91.69534510416666,70.0,71.0
427,91.65830817083334,91.84465024166667,68.0,62.0
428,91.93608517083334,92.36895432916667,68.0,78.0
429,92.76941617083334,93.59233053333334,68.0,76.0
430,92.21386217083334,93.64672852916667,60.0,75.0
431,91.93608517083334,93.65020074166667,53.0,77.0
432,92.49163917083334,93.65830257083334,63.0,68.0
433,94.15830117083334,94.5170964625,63.0,68.0
434,94.15830117083334,94.55297599166667,67.0,82.0
435,94.71385517083334,95.61084340000001,63.0,61.0
436,94.99163217083334,95.61084340000001,70.0,62.0
437,94.43607817083334,95.85852789166667,60.0,62.0
438,94.15830117083334,95.86315750833333,51.0,73.0
439,95.54718617083334,95.90366665416667,67.0,81.0
440,96.93607117083333,98.01477185416667,61.0,72.0
441,96.38051717083333,98.07495687083333,49.0,79.0
442,97.21384817083333,98.07611427500001,65.0,75.0
443,96.65829417083333,98.131669675,56.0,61.0
444,98.60273317083333,99.25898133333334,58.0,71.0
445,98.60273317083333,99.3087497125,67.0,75.0
446,98.60273317083333,99.35273107083333,63.0,82.0
447,98.60273317083333,99.576110075,48.0,73.0
448,99.71384117083333,100.35851529166666,60.0,75.0
449,99.71384117083333,100.42448732916667,65.0,78.0
450,99.71384117083333,100.42564473333334,68.0,75.0
451,99.71384117083333,100.42795954166667,53.0,76.0
452,100.40828367083334,100.5309685125,63.0,71.0
453,100.82494917083334,101.27517939166667,56.0,71.0
454,100.82494917083334,101.34462364166667,61.0,80.0
455,100.82494917083334,101.35272547083333,65.0,74.0
456,100.82494917083334,101.91522389583334,53.0,59.0
457,101.38050317083334,102.3156857375,56.0,37.0
458,101.65828017083334,102.3434634375,61.0,82.0
459,100.82494917083334,102.6073515875,46.0,55.0
460,102.21383417083334,102.66522179583333,53.0,78.0
461,102.49161117083334,102.7601289375,56.0,62.0
462,103.04716517083334,103.3573494875,56.0,73.0
463,103.04716517083334,103.73582065000001,61.0,80.0
464,103.04716517083334,103.76591315833333,65.0,76.0
465,103.04716517083334,104.54137395000001,51.0,73.0
466,104.15827317083334,104.56452203333333,67.0,72.0
467,104.15827317083334,104.58419790416667,63.0,68.0
468,104.15827317083334,104.61660522083334,70.0,71.0
469,105.26938117083334,105.71729658333334,63.0,75.0
470,105.26938117083334,105.84692585,68.0,80.0
471,105.26938117083334,105.9615088625,72.0,86.0
472,105.82493517083334,106.15826757083333,63.0,59.0
473,106.10271217083334,106.367757725,68.0,71.0
474,105.54715817083334,106.54947017916668,56.0,57.0
475,106.38048917083334,106.784423225,63.0,79.0
476,106.38048917083334,106.82840458333334,68.0,58.0
477,106.38048917083334,106.85271007083334,72.0,80.0
478,106.65826617083333,107.14669072916666,56.0,51.0
479,106.93604317083333,107.17099621666667,63.0,58.0
480,105.26938117083334,107.21034795833333,44.0,84.0
481,107.21382017083333,107.39437522083334,72.0,84.0
482,107.49159717083333,107.9996976,67.0,84.0
483,107.49159717083333,108.04715117083333,70.0,77.0
484,107.49159717083333,108.13048427083334,63.0,77.0
485,108.32492817083333,108.5170572625,63.0,71.0
486,108.04715117083333,108.68835307916667,55.0,57.0
487,108.60270517083333,108.99853739583334,63.0,80.0
488,108.60270517083333,109.05756500833334,70.0,81.0
489,108.88048217083333,109.17562023333333,55.0,63.0
490,109.15825917083333,109.39089740833333,67.0,75.0
491,107.49159717083333,109.57029505416666,43.0,47.0
492,109.43603617083333,109.63395228333333,72.0,80.0
493,109.71381317083333,110.1212194375,63.0,75.0
494,109.71381317083333,110.16057117916667,68.0,81.0
495,109.71381317083333,110.187191475,72.0,62.0
496,110.26936717083333,110.47075549583333,63.0,69.0
497,109.99159017083333,110.85964329583334,53.0,56.0
498,110.54714417083333,111.1698276125,68.0,79.0
499,110.54714417083333,111.19297569583334,63.0,76.0
500,109.71381317083333,111.32491977083333,41.0,83.0
501,111.10269817083334,111.48116933333334,53.0,63.0
502,111.38047517083334,111.60616898333333,63.0,78.0
503,111.38047517083334,111.68487246666668,68.0,80.0
504,111.65825217083334,111.83070539166667,70.0,72.0
505,111.93602917083334,112.3295465875,67.0,83.0
506,111.93602917083334,112.33186139583334,63.0,78.0
507,111.93602917083334,112.3330188,70.0,76.0
508,112.21380617083334,112.9996836,60.0,39.0
509,112.76936017083334,113.32491417083334,67.0,79.0
510,112.76936017083334,113.34459004166666,75.0,82.0
511,112.49158317083334,113.437182375,63.0,69.0
512,113.32491417083334,113.76009813750001,60.0,79.0
513,111.93602917083334,113.83764421666667,51.0,76.0
514,113.60269117083334,113.85616268333334,68.0,75.0
515,113.60269117083334,113.895514425,63.0,75.0
516,113.88046817083334,114.09574534583334,67.0,79.0
517,114.15824517083334,114.74504908333334,65.0,79.0
518,114.15824517083334,114.76819716666667,68.0,82.0
519,114.71379917083334,115.22652921666666,61.0,63.0
520,114.99157617083334,115.50083400416666,68.0,75.0
521,114.99157617083334,115.50777842916666,63.0,78.0
522,114.99157617083334,115.54944497916667,65.0,78.0
523,115.54713017083334,115.77629619583334,61.0,60.0
524,114.15824517083334,115.8573144875,49.0,82.0
525,114.43602217083334,115.87236074166667,56.0,75.0
526,115.82490717083334,116.05754540833334,63.0,76.0
527,116.10268417083334,116.3642575125,67.0,63.0
528,116.38046117083334,116.74388607916667,70.0,80.0
529,116.38046117083334,116.7600897375,63.0,76.0
530,116.38046117083334,116.76587675833333,67.0,83.0
531,116.38046117083334,116.9163393,48.0,86.0
532,116.65823817083334,117.20221812916667,60.0,69.0
533,116.93601517083333,117.2184217875,63.0,80.0
534,117.21379217083333,117.82721637916667,72.0,84.0
535,117.49156917083333,117.92096611666668,68.0,82.0
536,117.49156917083333,117.95800305,63.0,79.0
537,117.76934617083333,118.15823397083334,60.0,78.0
538,117.49156917083333,118.20915975416666,53.0,81.0
539,118.04712317083333,118.38971480416667,68.0,79.0
540,118.32490017083333,118.47420530833334,70.0,78.0
541,118.60267717083333,119.00198160833334,70.0,79.0
542,118.60267717083333,119.020500075,61.0,78.0
543,118.60267717083333,119.05290739166666,65.0,79.0
544,119.15823117083333,119.38392498333333,61.0,83.0
545,118.88045417083333,119.5934151375,58.0,62.0
546,119.43600817083333,120.0864693125,61.0,54.0
547,119.43600817083333,120.09109892916666,70.0,83.0
548,119.43600817083333,120.10498777916666,65.0,84.0
549,120.26933917083333,120.37234814166666,70.0,69.0
550,119.99156217083333,120.39318141666666,58.0,69.0
551,118.60267717083333,120.42558873333334,46.0,80.0
552,120.26933917083333,120.60845859166668,61.0,82.0
553,120.54711617083333,120.74503228333333,70.0,78.0
554,120.82489317083333,120.8573004875,70.0,46.0
555,120.82489317083333,121.20567914166666,61.0,79.0
556,120.82489317083333,121.22998462916667,65.0,84.0
557,120.82489317083333,121.23808645833334,68.0,78.0
558,121.38044717083334,121.6767426375,61.0,83.0
559,121.65822417083334,121.88276057916667,65.0,82.0
560,121.10267017083333,122.2947964625,51.0,68.0
561,121.93600117083334,122.33877782083334,63.0,79.0
562,121.93600117083334,122.534379125,67.0,82.0
563,120.82489317083333,122.7496563,39.0,84.0
564,122.49155517083334,122.81678574166666,68.0,81.0
565,122.49155517083334,122.8329894,51.0,61.0
566,122.49155517083334,122.86539671666667,63.0,80.0
567,122.76933217083334,122.895489225,70.0,80.0
568,123.04710917083334,123.44294139583333,44.0,76.0
569,123.32488617083334,123.57488547083334,51.0,75.0
570,123.60266317083334,123.96261586666667,56.0,58.0
571,123.04710917083334,124.16168938333334,72.0,86.0
572,123.04710917083334,124.1836800625,68.0,82.0
573,123.04710917083334,124.2184021875,63.0,80.0
574,124.15821717083334,124.603817775,60.0,84.0
575,123.88044017083334,124.62002143333333,58.0,75.0
576,124.43599417083334,124.64316951666667,63.0,84.0
577,124.71377117083334,124.83645601250001,63.0,53.0
578,124.71377117083334,125.15474215833333,68.0,80.0
579,124.99154817083334,125.17441802916667,72.0,90.0
580,125.26932517083334,125.58182429583334,67.0,90.0
581,125.26932517083334,125.60150016666667,63.0,80.0
582,125.26932517083334,125.64316671666667,70.0,82.0
583,125.82487917083334,125.94640660833333,63.0,75.0
584,125.54710217083334,126.3989516375,55.0,75.0
585,126.10265617083334,126.59223813333334,75.0,90.0
586,126.10265617083334,126.67441382916667,63.0,86.0
587,126.65821017083334,127.05288499166667,55.0,83.0
588,125.26932517083334,127.13274587916666,43.0,86.0
589,126.93598717083334,127.15357915416666,70.0,84.0
590,126.93598717083334,127.32834718333334,63.0,84.0
591,127.21376417083334,127.37001373333334,67.0,84.0
592,127.49154117083333,127.7496423,41.0,84.0
593,127.76931817083333,128.13042827083333,53.0,76.0
594,127.49154117083333,128.3156129375,72.0,86.0
595,127.49154117083333,128.4058904625,63.0,86.0
596,127.49154117083333,128.41862190833334,68.0,90.0
597,128.60264917083333,128.8051949,63.0,84.0
598,128.88042617083335,128.99500918333334,63.0,73.0
599,128.32487217083334,129.13389768333334,58.0,76.0
600,128.88042617083335,129.187138275,68.0,90.0
601,129.15820317083333,129.34223043333333,63.0,83.0
602,128.04709517083333,129.58528530833334,56.0,80.0
603,129.15820317083333,129.64315551666667,70.0,86.0
604,129.43598017083335,129.6836646625,58.0,72.0
605,129.71375717083333,130.13158007500002,63.0,86.0
606,129.71375717083333,130.14546892500002,67.0,91.0
607,130.26931117083333,130.41398669166668,63.0,83.0
608,129.99153417083335,130.81097632083333,60.0,84.0
609,130.54708817083335,131.0378275375,67.0,81.0
610,130.54708817083335,131.048244175,75.0,94.0
611,130.54708817083335,131.1767160375,63.0,86.0
612,131.38041917083333,131.50078920416667,68.0,90.0
613,131.10264217083335,131.534353925,60.0,80.0
614,129.71375717083333,131.54014094583334,51.0,83.0
615,131.38041917083333,131.57139085833333,63.0,84.0
616,131.65819617083335,131.7878254375,67.0,84.0
617,131.93597317083334,132.2739351875,61.0,83.0
618,131.93597317083334,132.36999973333334,68.0,82.0
619,131.93597317083334,132.3919904125,65.0,91.0
620,132.76930417083332,132.937127775,63.0,82.0
621,132.76930417083332,132.978794325,67.0,83.0
622,132.49152717083334,133.35263587083332,61.0,76.0
623,133.32485817083332,133.3711543375,63.0,68.0
624,133.60263517083334,133.68133865416667,61.0,83.0
625,131.93597317083334,133.70564414166668,49.0,90.0
626,133.32485817083332,133.72416260833333,68.0,86.0
627,132.21375017083335,133.72994962916667,56.0,76.0
628,133.32485817083332,133.73342184166668,65.0,94.0
629,133.88041217083332,133.9961525875,63.0,71.0
630,134.15818917083334,134.5169844625,68.0,86.0
631,134.15818917083334,134.52277148333334,63.0,84.0
632,134.71374317083334,135.23573245,56.0,80.0
633,134.99152017083333,135.62462025,58.0,86.0
634,134.99152017083333,135.62462025,63.0,86.0
635,135.82485117083334,135.85494367916667,63.0,54.0
636,135.54707417083333,135.89661022916667,56.0,78.0
637,134.43596617083332,135.92438792916667,51.0,82.0
638,134.15818917083334,135.9440638,44.0,86.0
639,135.82485117083334,135.99846179583335,60.0,94.0
640,135.82485117083334,136.25540552083334,68.0,86.0
641,136.38040517083334,136.64776553333334,37.0,99.0
642,136.38040517083334,136.92554253333333,56.0,91.0
643,136.65818217083333,136.992671975,49.0,74.0
644,136.38040517083334,137.19174549166667,61.0,90.0
645,136.38040517083334,137.20563434166667,65.0,84.0
646,137.49151317083334,137.8433640375,61.0,90.0
647,137.21373617083333,137.94058598750001,56.0,79.0
648,136.93595917083334,137.99382657916667,53.0,81.0
649,137.76929017083333,138.10840959166666,65.0,84.0
650,138.04706717083334,138.32831638333334,66.0,76.0
651,138.32484417083333,138.4996122,68.0,73.0
652,138.60262117083334,139.05169398750002,67.0,86.0
653,138.60262117083334,139.08757351666668,63.0,86.0
654,138.60262117083334,139.2114157625,58.0,82.0
655,139.43595217083333,139.62692385833333,58.0,80.0
656,139.15817517083335,139.7773864,51.0,73.0
657,139.71372917083335,139.999608,63.0,83.0
658,139.71372917083335,140.02507089166667,58.0,78.0
659,139.71372917083335,140.0655800375,67.0,84.0
660,138.60262117083334,140.2218296,39.0,84.0
661,139.99150617083333,140.2496073,51.0,60.0
662,138.88039817083333,140.34682925,46.0,82.0
663,140.26928317083335,140.49844919583333,58.0,75.0
664,140.26928317083335,140.51118064166667,63.0,84.0
665,140.26928317083335,140.5447453625,68.0,84.0
666,140.54706017083333,140.66164318333333,43.0,84.0
667,140.82483717083335,141.2461322875,68.0,84.0
668,140.82483717083335,141.28316922083334,60.0,84.0
669,140.82483717083335,141.381548575,63.0,86.0
670,141.38039117083335,141.51117784166667,58.0,78.0
671,141.38039117083335,141.52506669166667,67.0,83.0
672,141.38039117083335,141.8051585,56.0,78.0
673,141.65816817083333,142.16163898333335,68.0,84.0
674,141.65816817083333,142.28316642083334,60.0,86.0
675,141.65816817083333,142.29474046250002,63.0,84.0
676,142.21372217083334,142.38733279583334,56.0,83.0
677,141.10261417083333,142.45677704583335,51.0,80.0
678,140.82483717083335,142.51117504166666,44.0,86.0
679,142.49149917083335,142.72298000416666,67.0,91.0
680,142.49149917083335,142.7252948125,60.0,80.0
681,142.76927617083334,142.95561824166666,68.0,83.0
682,143.04705317083332,143.7808474125,67.0,78.0
683,143.04705317083332,143.94519880416667,63.0,91.0
684,143.04705317083332,143.98802275833333,58.0,84.0
685,144.15816117083332,144.52621569583334,58.0,83.0
686,144.43593817083334,144.60144696666666,67.0,98.0
687,143.88038417083334,144.74496508333334,55.0,84.0
688,143.60260717083332,144.84450184166667,51.0,80.0
689,143.04705317083332,144.92204792083334,43.0,98.0
690,144.71371517083332,144.95677004583334,68.0,91.0
691,144.99149217083334,145.1975101125,70.0,83.0
692,145.26926917083333,145.49727779166668,41.0,86.0
693,145.54704617083334,145.89426742083333,53.0,69.0
694,145.26926917083333,146.13963710416667,72.0,93.0
695,145.26926917083333,146.19287769583335,63.0,84.0
696,145.26926917083333,146.20676654583335,68.0,84.0
697,146.38037717083333,146.548200775,63.0,83.0
698,146.65815417083334,146.69287629583334,63.0,43.0
699,146.10260017083334,146.81787594583335,60.0,82.0
700,146.65815417083334,146.83407960416667,68.0,81.0
701,145.82482317083333,146.8850053875,56.0,78.0
702,146.93593117083333,146.9995884,68.0,57.0
703,146.93593117083333,147.21602297916667,70.0,79.0
704,147.21370817083334,147.3329208,72.0,81.0
705,147.49148517083333,147.82828978333333,72.0,95.0
706,147.49148517083333,147.86995633333333,63.0,84.0
707,147.49148517083333,147.87342854583335,67.0,86.0
708,147.76926217083334,148.07713167916668,60.0,76.0
709,147.49148517083333,148.214862775,48.0,91.0
710,148.04703917083333,148.26347375,63.0,83.0
711,148.32481617083334,148.49148237083332,67.0,86.0
712,148.60259317083333,148.64773193333335,63.0,40.0
713,148.88037017083334,149.1905544875,63.0,90.0
714,148.88037017083334,149.2808320125,70.0,96.0
715,149.43592417083335,149.58985892500002,68.0,84.0
716,149.71370117083333,150.08175569583332,61.0,86.0
717,149.71370117083333,150.17897764583333,68.0,90.0
718,149.71370117083333,150.367634525,65.0,86.0
719,150.26925517083333,150.9127718875,61.0,68.0
720,150.54703217083335,151.00883643333333,63.0,83.0
721,150.54703217083335,151.16740080416668,68.0,86.0
722,151.10258617083335,151.43128895416666,61.0,90.0
723,149.71370117083333,151.59911255833333,49.0,84.0
724,151.38036317083333,151.63267727916667,63.0,95.0
725,149.99147817083335,151.68013085,56.0,75.0
726,151.65814017083335,151.82017675416668,68.0,79.0
727,151.51925167083334,151.84679705,67.0,71.0
728,151.93591717083333,152.26809216666666,67.0,81.0
729,151.93591717083333,152.28313842083332,63.0,83.0
730,151.93591717083333,152.28545322916668,70.0,76.0
731,151.93591717083333,152.48336934166667,48.0,91.0
732,152.49147117083334,152.69980392083335,63.0,84.0
733,152.21369417083335,152.7322112375,60.0,75.0
734,152.76924817083335,152.978738325,72.0,94.0
735,153.04702517083334,153.3919316125,63.0,86.0
736,153.04702517083334,153.43128335416668,68.0,90.0
737,153.32480217083335,153.58521810833335,60.0,83.0
738,153.04702517083334,153.6141532125,53.0,84.0
739,153.60257917083334,153.94169859166666,70.0,86.0
740,153.88035617083332,154.11878142916666,72.0,86.0
741,154.15813317083334,154.58753011666667,65.0,82.0
742,154.15813317083334,154.59678935,63.0,79.0
743,154.15813317083334,154.65002994166667,68.0,83.0
744,154.99146417083332,155.1905376875,63.0,80.0
745,155.26924117083334,155.48683315416667,65.0,83.0
746,154.71368717083334,155.62687905833334,61.0,79.0
747,155.54701817083333,155.93127635416667,63.0,84.0
748,155.82479517083334,155.93822077916667,61.0,84.0
749,155.54701817083333,155.964841075,68.0,84.0
750,154.15813317083334,156.02849830416667,49.0,84.0
751,154.43591017083332,156.03312792083332,56.0,75.0
752,156.10257217083333,156.2808124125,65.0,84.0
753,156.38034917083334,156.62687625833334,39.0,83.0
754,156.65812617083333,157.02502329166666,51.0,69.0
755,156.38034917083334,157.20557834166667,61.0,84.0
756,156.38034917083334,157.23798565833334,65.0,80.0
757,156.38034917083334,157.26923557083333,68.0,80.0
758,157.49145717083334,157.70210472916668,61.0,90.0
759,156.93590317083334,157.74840089583333,56.0,79.0
760,157.21368017083333,157.75881753333334,58.0,72.0
761,157.76923417083333,157.96715028333332,65.0,84.0
762,158.04701117083334,158.25187170833334,68.0,84.0
763,158.32478817083333,158.53196351666668,67.0,79.0
764,158.60256517083334,159.28311882083332,68.0,83.0
765,159.15811917083334,159.8051081,56.0,63.0
766,159.43589617083333,160.08751471666667,60.0,71.0
767,159.71367317083335,160.12455165,63.0,90.0
768,159.99145017083333,160.31320852916667,56.0,62.0
769,158.60256517083334,160.39422682083332,44.0,78.0
770,158.88034217083333,160.4335785625,51.0,79.0
771,160.26922717083335,160.51575425833335,60.0,77.0
772,160.54700417083333,160.74839249583334,68.0,80.0
773,160.82478117083335,161.37223334166666,67.0,86.0
774,160.82478117083335,161.4960755875,63.0,84.0
775,160.82478117083335,161.50417741666666,58.0,77.0
776,161.65811217083333,161.83750981666668,58.0,75.0
777,161.38033517083335,162.00649082500001,55.0,71.0
778,161.93588917083335,162.242601275,58.0,83.0
779,161.93588917083335,162.26922157083334,67.0,84.0
780,162.21366617083333,162.37570275416667,55.0,71.0
781,161.10255817083333,162.40348045416667,51.0,82.0
782,162.49144317083335,162.60834099166667,51.0,82.0
783,162.35255467083334,162.6557945625,68.0,86.0
784,160.82478117083335,162.687044475,43.0,90.0
785,162.76922017083334,162.84213663333333,68.0,57.0
786,162.35255467083334,162.84792365416666,58.0,76.0
787,162.76922017083334,162.8919050125,67.0,83.0
788,163.04699717083335,163.35949629583334,41.0,86.0
789,163.04699717083335,163.63611589166666,68.0,86.0
790,163.04699717083335,163.6766250375,65.0,81.0
791,163.32477417083334,163.68588427083333,53.0,73.0
792,163.04699717083335,163.68588427083333,60.0,82.0
793,163.88032817083334,164.23680865416668,60.0,81.0
794,163.88032817083334,164.2738455875,67.0,86.0
795,164.15810517083332,164.54352075833333,56.0,75.0
796,164.43588217083334,164.79699227083333,68.0,83.0
797,163.60255117083335,164.812038525,55.0,63.0
798,164.71365917083332,164.82014035416668,56.0,78.0
799,164.43588217083334,164.8293995875,60.0,81.0
800,164.99143617083334,165.0932877375,68.0,63.0
801,165.26921317083332,165.6280084625,58.0,78.0
802,165.26921317083332,165.73680445416667,67.0,84.0
803,165.26921317083332,165.79930427916668,63.0,84.0
804,166.10254417083334,166.31434913333334,63.0,73.0
805,166.38032117083333,166.46596907916668,63.0,18.0
806,166.38032117083333,166.60601498333332,67.0,84.0
807,165.82476717083333,166.67198702083334,60.0,76.0
808,166.65809817083334,166.7252276125,63.0,62.0
809,166.65809817083334,166.90231045000002,68.0,80.0
810,165.26921317083332,166.93703257500002,48.0,84.0
811,165.54699017083334,167.04698597083333,55.0,76.0
812,166.93587517083333,167.08865252083334,60.0,68.0
813,166.93587517083333,167.1384209,67.0,84.0
814,167.21365217083334,167.39767943333334,63.0,80.0
815,167.49142917083333,168.16040877916666,65.0,83.0
816,168.04698317083333,168.57475947083333,61.0,73.0
817,168.32476017083334,168.798138475,63.0,83.0
818,168.32476017083334,168.88262897916667,68.0,86.0
819,168.32476017083334,168.88725859583334,65.0,83.0
820,167.49142917083333,169.16850780833335,49.0,84.0
821,168.88031417083334,169.18239665833335,61.0,68.0
822,169.15809117083333,169.20670214583333,65.0,69.0
823,167.76920617083334,169.22637801666667,56.0,75.0
824,169.15809117083333,169.26804456666667,63.0,80.0
825,169.15809117083333,169.2738315875,68.0,80.0
826,169.71364517083333,169.9543852375,70.0,78.0
827,169.71364517083333,170.05392199583335,67.0,84.0
828,169.71364517083333,170.06318122916667,63.0,83.0
829,169.99142217083335,170.2043845375,60.0,73.0
830,169.71364517083333,170.31665274166667,48.0,84.0
831,170.26919917083333,170.50530962083334,63.0,80.0
832,170.54697617083335,170.6349388875,67.0,73.0
833,170.68586467083333,170.74026266666667,66.0,59.0
834,170.82475317083333,171.16155778333334,60.0,80.0
835,170.82475317083333,171.173131825,68.0,77.0
836,170.82475317083333,171.19859471666666,63.0,82.0
837,171.38030717083333,171.4439644,68.0,73.0
838,170.82475317083333,171.548130775,41.0,82.0
839,171.38030717083333,171.5550752,60.0,86.0
840,171.10253017083335,171.562019625,53.0,74.0
841,171.65808417083335,171.83516700833334,68.0,76.0
842,171.93586117083333,172.30738790833334,65.0,79.0
843,171.93586117083333,172.31317492916668,61.0,86.0
844,171.93586117083333,172.32590637500002,56.0,80.0
845,172.49141517083333,172.67544243333333,56.0,55.0
846,172.21363817083335,172.88030297083333,53.0,75.0
847,172.76919217083335,173.23678345416667,65.0,90.0
848,172.76919217083335,173.33169059583335,61.0,90.0
849,172.76919217083335,173.38030157083332,56.0,80.0
850,171.93586117083333,173.44280139583333,46.0,81.0
851,173.32474617083335,173.4960419875,53.0,84.0
852,173.60252317083334,173.8050689,56.0,83.0
853,173.88030017083335,174.03539232916668,61.0,79.0
854,174.15807717083334,174.52613169583333,56.0,79.0
855,174.15807717083334,174.56085382083333,61.0,84.0
856,174.15807717083334,174.56085382083333,65.0,82.0
857,174.71363117083334,174.99719519166666,56.0,83.0
858,174.43585417083332,175.08052829166667,51.0,79.0
859,174.15807717083334,175.10599118333334,39.0,83.0
860,174.99140817083332,175.159231775,65.0,82.0
861,175.26918517083334,175.30969431666668,51.0,33.0
862,175.26918517083334,175.67196182083333,67.0,86.0
863,175.26918517083334,175.67543403333335,58.0,75.0
864,175.26918517083334,175.68006365,63.0,86.0
865,175.26918517083334,175.90228525,39.0,90.0
866,175.54696217083332,175.91733150416667,51.0,80.0
867,175.82473917083334,176.10135876666666,68.0,75.0
868,175.82473917083334,176.1140902125,58.0,82.0
869,176.10251617083333,176.20205292916668,43.0,94.0
870,176.38029317083334,176.73793105833334,68.0,84.0
871,176.38029317083334,176.75181990833335,63.0,80.0
872,176.38029317083334,176.76455135416668,60.0,86.0
873,176.93584717083334,177.08515230833333,60.0,79.0
874,176.65807017083333,177.35482747916666,56.0,61.0
875,177.21362417083333,177.39302181666667,60.0,82.0
876,177.21362417083333,177.44163279166668,67.0,91.0
877,177.49140117083334,177.61871562916667,56.0,12.0
878,177.49140117083334,177.75876153333334,60.0,83.0
879,177.49140117083334,177.76107634166667,68.0,86.0
880,177.49140117083334,177.8085299125,63.0,54.0
881,177.76917817083333,177.95899245416666,56.0,60.0
882,178.04695517083334,178.12681605833333,56.0,60.0
883,176.38029317083334,178.16038077916667,44.0,86.0
884,177.90806667083334,178.20667694583335,60.0,90.0
885,177.90806667083334,178.21709358333334,67.0,82.0
886,178.04695517083334,178.42079671666667,51.0,84.0
887,178.32473217083333,178.49718539166668,68.0,91.0
888,178.60250917083334,178.9335267625,58.0,84.0
889,178.60250917083334,178.95320263333335,63.0,78.0
890,178.60250917083334,179.02959130833335,67.0,79.0
891,179.15806317083334,179.44625680833335,55.0,79.0
892,179.71361717083334,179.86986673333334,55.0,71.0
893,180.26917117083335,180.381439375,55.0,75.0
894,178.88028617083333,180.43120775416668,51.0,83.0
895,178.60250917083334,180.51106864166667,43.0,98.0
896,181.65805617083333,181.8362964125,60.0,84.0
897,181.93583317083335,182.24138787083334,63.0,90.0
898,181.10250217083333,182.256434125,53.0,78.0
899,182.35249867083334,182.65458115833334,58.0,84.0
900,180.82472517083335,182.68930328333335,41.0,83.0
901,182.49138717083335,182.70666434583333,53.0,80.0
902,182.35249867083334,182.70782175,67.0,83.0
903,182.76916417083333,182.9717099,68.0,84.0
904,183.04694117083335,183.270320175,48.0,84.0
905,183.04694117083335,183.520319475,67.0,75.0
906,183.04694117083335,183.59902295833334,63.0,84.0
907,183.04694117083335,183.617541425,58.0,83.0
908,183.88027217083334,184.05966981666668,58.0,77.0
909,183.88027217083334,184.24832669583333,67.0,78.0
910,184.15804917083335,184.35943749583333,58.0,75.0
911,184.15804917083335,184.381428175,68.0,82.0
912,183.60249517083335,184.52263148333333,55.0,78.0
913,184.43582617083334,184.60827939166668,68.0,43.0
914,184.43582617083334,184.65110334583335,67.0,81.0
915,184.43582617083334,184.8050381,58.0,41.0
916,184.71360317083335,184.811982525,55.0,79.0
917,183.32471817083334,184.82355656666667,48.0,57.0
918,184.71360317083335,184.92077851666667,63.0,84.0
919,184.99138017083334,185.075870675,58.0,38.0
920,184.99138017083334,185.07702807916667,56.0,38.0
921,185.26915717083332,185.69855411666668,56.0,80.0
922,185.26915717083332,185.70897075416667,65.0,84.0
923,185.26915717083332,185.71591517916667,61.0,84.0
924,185.82471117083333,186.01105324166667,56.0,71.0
925,185.54693417083334,186.43234835833334,49.0,75.0
926,186.10248817083334,186.55619060416666,65.0,86.0
927,186.10248817083334,186.7494771,61.0,93.0
928,186.10248817083334,186.756421525,56.0,82.0
929,186.65804217083334,186.96591167916668,49.0,76.0
930,186.93581917083333,187.1279482625,65.0,82.0
931,186.93581917083333,187.14067970833335,56.0,82.0
932,186.93581917083333,187.17424442916666,61.0,86.0
933,185.26915717083332,187.18003145,37.0,100.0
934,187.21359617083334,187.41498449583335,49.0,73.0
935,187.49137317083333,187.83743701666668,63.0,91.0
936,187.49137317083333,187.86984433333333,67.0,86.0
937,187.49137317083333,188.089751125,58.0,78.0
938,187.49137317083333,188.51567585833334,48.0,81.0
939,188.04692717083333,188.56891645000002,63.0,84.0
940,188.32470417083334,188.56891645000002,67.0,91.0
941,188.32470417083334,188.61868482916668,58.0,79.0
942,189.15803517083333,189.2043313375,68.0,58.0
943,188.60248117083333,189.3015532875,41.0,86.0
944,188.88025817083334,189.45780285,53.0,84.0
945,189.15803517083333,189.48326574166668,60.0,83.0
946,189.15803517083333,189.48326574166668,63.0,84.0
947,189.43581217083334,189.63720049583333,68.0,82.0
948,189.71358917083333,190.13025467083332,65.0,81.0
949,189.71358917083333,190.13372688333334,58.0,78.0
950,189.71358917083333,190.19622670833334,61.0,86.0
951,190.26914317083333,190.4716889,58.0,71.0
952,189.99136617083334,190.65224395,53.0,81.0
953,190.54692017083335,191.18002025,61.0,90.0
954,190.54692017083335,191.19969612083335,58.0,81.0
955,190.54692017083335,191.2043257375,65.0,86.0
956,191.10247417083335,191.3779363625,53.0,83.0
957,189.71358917083333,191.42191772083333,46.0,83.0
958,191.38025117083333,191.56775064583334,58.0,79.0
959,191.38025117083333,191.81427773333334,63.0,84.0
960,191.65802817083335,191.81890735000002,65.0,80.0
961,191.93580517083333,192.3362670125,65.0,82.0
962,191.93580517083333,192.34089662916668,56.0,84.0
963,191.93580517083333,192.35594288333334,61.0,84.0
964,192.49135917083333,192.70547894166668,56.0,90.0
965,191.93580517083333,192.86520071666666,39.0,84.0
966,192.21358217083335,192.90918207500002,51.0,80.0
967,192.76913617083335,192.94506160416668,61.0,90.0
968,193.04691317083334,193.2390422625,58.0,83.0
969,193.33163459583335,193.39644922916668,65.0,54.0
970,193.04691317083334,193.47052309583333,63.0,86.0
971,193.04691317083334,193.63255967916666,41.0,90.0
972,193.60246717083334,193.76566115833333,58.0,80.0
973,193.60246717083334,193.7668185625,67.0,86.0
974,193.60246717083334,193.76913337083334,43.0,94.0
975,194.15802117083334,194.72283440416666,61.0,90.0
976,194.15802117083334,194.74366767916666,68.0,82.0
977,194.99135217083335,195.10477777916668,68.0,76.0
978,194.99135217083335,195.117509225,60.0,77.0
979,194.99135217083335,195.1487591375,63.0,82.0
980,194.71357517083334,195.29574946666668,56.0,75.0
981,195.26912917083334,195.59898935833334,60.0,83.0
982,195.26912917083334,195.6070911875,68.0,79.0
983,195.26912917083334,195.60940599583333,63.0,84.0
984,194.43579817083335,195.76218334583334,51.0,80.0
985,195.54690617083332,195.83047019166668,56.0,61.0
986,195.82468317083334,195.93579397083334,68.0,72.0
987,194.15802117083334,195.96009945833333,44.0,86.0
988,195.82468317083334,195.96009945833333,63.0,82.0
989,195.82468317083334,195.98787715833333,60.0,82.0
990,196.10246017083333,196.28185781666667,68.0,80.0
991,196.10246017083333,196.3362558125,51.0,72.0
992,196.38023717083334,196.84204143333335,67.0,79.0
993,196.38023717083334,197.02606869583335,63.0,82.0
994,196.38023717083334,197.05963341666668,58.0,82.0
995,197.21356817083333,197.45893785416666,58.0,71.0
996,196.93579117083334,197.53301172083334,55.0,61.0
997,197.49134517083334,197.81889055,67.0,75.0
998,197.49134517083334,197.90222365,58.0,51.0
999,197.49134517083334,197.909168075,63.0,93.0
1000,197.76912217083333,198.06426023333333,55.0,83.0
1001,196.65801417083333,198.16379699166666,51.0,75.0
1002,196.38023717083334,198.21703758333334,43.0,94.0
1003,198.04689917083334,198.3640279125,58.0,81.0
1004,198.32467617083333,198.5098608375,67.0,76.0
1005,198.60245317083334,199.020276075,41.0,84.0
1006,198.88023017083333,199.08740551666668,48.0,80.0
1007,198.60245317083334,199.27259018333334,68.0,84.0
1008,198.60245317083334,199.3709695375,63.0,86.0
1009,198.60245317083334,199.37907136666666,60.0,82.0
1010,199.15800717083334,199.44504340416668,53.0,62.0
1011,199.85244967083335,200.02837510416668,60.0,80.0
1012,199.99133817083333,200.02837510416668,60.0,61.0
1013,199.85244967083335,200.03994914583333,67.0,94.0
1014,199.99133817083333,200.03994914583333,67.0,33.0
1015,199.71356117083334,200.11518041666668,56.0,80.0
1016,199.99133817083333,200.18230985833333,68.0,86.0
1017,200.26911517083335,200.31078172083335,68.0,58.0
1018,200.26911517083335,200.37675375833334,56.0,79.0
1019,200.26911517083335,200.4195777125,60.0,39.0
1020,199.43578417083333,200.47860532500002,55.0,71.0
1021,200.26911517083335,200.48439234583333,67.0,86.0
1022,200.54689217083333,200.71008615833333,63.0,82.0
1023,200.82466917083335,201.18925148333335,67.0,82.0
1024,200.82466917083335,201.21239956666668,58.0,80.0
1025,200.82466917083335,201.23439024583334,63.0,90.0
1026,201.65800017083333,202.02142507916668,63.0,90.0
1027,201.65800017083333,202.04110095000001,67.0,90.0
1028,201.38022317083335,202.25406331666667,58.0,72.0
1029,202.21355417083333,202.3883222,68.0,84.0
1030,202.21355417083333,202.51100704166666,63.0,84.0
1031,200.82466917083335,202.54341435833334,48.0,93.0
1032,202.49133117083335,202.5654050375,58.0,63.0
1033,201.10244617083333,202.57466427083332,55.0,81.0
1034,202.49133117083335,202.5862383125,68.0,79.0
1035,202.49133117083335,202.61517341666666,67.0,82.0
1036,202.76910817083333,202.964709475,63.0,82.0
1037,203.04688517083335,203.43924518333333,65.0,80.0
1038,203.04688517083335,203.4716525,56.0,75.0
1039,203.04688517083335,203.4959579875,61.0,80.0
1040,203.60243917083335,203.784151625,56.0,61.0
1041,203.32466217083334,204.27141877916668,49.0,75.0
1042,203.88021617083334,204.32002975416668,65.0,84.0
1043,203.88021617083334,204.4612330625,61.0,84.0
1044,203.88021617083334,204.48901076250002,56.0,80.0
1045,204.43577017083334,204.82118575833334,49.0,80.0
1046,204.71354717083335,204.9195651125,56.0,84.0
1047,204.71354717083335,204.92882434583333,65.0,84.0
1048,203.04688517083335,205.07465727083334,37.0,95.0
1049,204.71354717083335,205.0827591,61.0,84.0
1050,204.99132417083334,205.42998035,49.0,72.0
1051,205.26910117083335,205.631368675,63.0,90.0
1052,205.26910117083335,205.67419262916667,67.0,90.0
1053,205.26910117083335,205.93576597083333,58.0,80.0
1054,205.82465517083332,206.14641352916667,63.0,80.0
1055,206.10243217083334,206.24826509583335,67.0,84.0
1056,205.26910117083335,206.34780185416668,48.0,73.0
1057,206.38020917083333,206.74363407916667,60.0,84.0
1058,206.38020917083333,206.74363407916667,68.0,86.0
1059,206.38020917083333,206.77488399166668,63.0,86.0
1060,206.38020917083333,207.0549758,41.0,84.0
1061,206.65798617083334,207.159142175,53.0,76.0
1062,206.93576317083333,207.17766064166668,60.0,79.0
1063,206.93576317083333,207.34201203333333,63.0,84.0
1064,207.21354017083334,207.39062300833334,68.0,78.0
1065,207.49131717083333,207.60474277916668,68.0,61.0
1066,207.49131717083333,207.84201063333333,65.0,82.0
1067,207.49131717083333,207.8883068,58.0,76.0
1068,207.49131717083333,207.89293641666669,61.0,86.0
1069,208.04687117083333,208.25751872916666,58.0,73.0
1070,207.76909417083334,208.68112865416668,53.0,59.0
1071,208.32464817083334,208.825804175,65.0,84.0
1072,208.32464817083334,208.90682246666668,61.0,86.0
1073,208.32464817083334,208.94617420833333,58.0,80.0
1074,208.88020217083334,209.21237716666667,53.0,83.0
1075,207.49131717083333,209.21700678333335,46.0,84.0
1076,209.15797917083333,209.33043239166668,58.0,78.0
1077,209.15797917083333,209.34432124166668,61.0,84.0
1078,209.15797917083333,209.36631192083334,65.0,78.0
1079,209.43575617083334,209.61631122083332,63.0,79.0
1080,209.71353317083333,210.10242097083335,56.0,84.0
1081,209.71353317083333,210.103578375,65.0,83.0
1082,209.71353317083333,210.11630982083335,61.0,90.0
1083,210.26908717083333,210.48089213333333,56.0,78.0
1084,210.54686417083335,210.6139936125,56.0,30.0
1085,210.54686417083335,210.72741922083333,61.0,81.0
1086,209.99131017083334,210.90334465416666,51.0,75.0
1087,210.82464117083333,211.2181585875,56.0,79.0
1088,210.82464117083333,211.22278820416668,65.0,82.0
1089,209.71353317083333,211.35820449166667,39.0,84.0
1090,211.38019517083333,211.65681476666668,56.0,73.0
1091,211.10241817083335,211.71237016666666,51.0,60.0
1092,211.65797217083335,211.83274020000002,61.0,79.0
1093,211.93574917083333,212.3639887125,61.0,78.0
1094,211.93574917083333,212.5723214625,68.0,80.0
1095,212.76908017083335,212.95310743333334,61.0,75.0
1096,213.04685717083333,213.2875972375,63.0,75.0
1097,213.32463417083335,213.44500420416668,68.0,62.0
1098,213.60241117083334,213.80727170833333,70.0,63.0
1099,213.88018817083335,214.08389130416668,72.0,58.0
1100,214.15796517083334,215.27254538333335,75.0,58.0
1101,214.99129617083335,215.27254538333335,75.0,79.0
1102,214.15796517083334,215.339674825,63.0,52.0
1103,212.21352617083335,215.37902656666668,51.0,75.0
1104,212.49130317083333,215.41490609583335,56.0,67.0
1105,211.93574917083333,215.44499860416667,44.0,77.0
1106,216.38018117083334,216.770226375,44.0,57.0
1107,216.65795817083333,216.86513351666667,51.0,69.0
1108,216.93573517083334,217.25633612500002,56.0,57.0
1109,217.49128917083334,217.81189012500002,60.0,69.0
1110,217.21351217083333,217.8778621625,58.0,57.0
1111,219.15795117083334,220.11859662916666,67.0,58.0
1112,218.88017417083333,220.2528555125,63.0,69.0
1113,218.60239717083334,220.367438525,55.0,75.0
1114,220.82461317083335,221.16836220833335,63.0,55.0
1115,221.10239017083333,221.84197143333333,60.0,69.0
1116,220.82461317083335,222.5722934625,53.0,72.0
1117,222.21349817083333,222.71696898333335,60.0,73.0
1118,223.60238317083335,224.06303002916667,63.0,51.0
1119,224.43571417083334,224.67182462083335,63.0,53.0
1120,223.04682917083335,224.7736761875,51.0,75.0
1121,223.32460617083333,224.7945094625,60.0,68.0
1122,225.82459917083335,226.4056160625,61.0,39.0
1123,226.65793017083334,226.784087225,61.0,56.0
1124,225.26904517083335,226.90098504583335,49.0,76.0
1125,225.54682217083334,226.9820033375,56.0,68.0
1126,227.49126117083333,227.86857492916667,63.0,75.0
1127,227.49126117083333,227.88014897083335,48.0,80.0
1128,227.76903817083334,228.11510201666667,60.0,56.0
1129,228.32459217083334,228.9472756125,63.0,69.0
1130,228.60236917083333,229.28523762916666,53.0,82.0
1131,228.88014617083334,229.3153301375,60.0,73.0
1132,229.71347717083333,230.27250338333334,65.0,63.0
1133,230.54680817083334,230.90328865416666,63.0,68.0
1134,231.10236217083335,231.27134317916668,63.0,58.0
1135,229.71347717083333,231.35236147083333,46.0,79.0
1136,230.26903117083333,231.3604633,58.0,55.0
1137,229.99125417083334,231.39287061666667,53.0,75.0
1138,231.93569317083333,232.5143952541667,63.0,59.0
1139,231.93569317083333,234.40096404583335,51.0,68.0
