,start,end,pitch,velocity
0,25.65293834375,26.0600804375,61.0,80.0
1,26.142733343750002,26.351916625,61.0,76.0
2,26.387630843750003,26.6233446875,68.0,78.0
3,26.632528343750003,27.04273165625,66.0,75.0
4,27.12232334375,27.3417106875,64.0,76.0
5,27.36722084375,27.663138656250002,61.0,72.0
6,27.61211834375,28.158035687500004,64.0,80.0
7,28.101913343750002,28.364157750000004,66.0,76.0
8,28.346810843750003,28.587626718750002,64.0,76.0
9,28.59170834375,29.462114875,61.0,77.0
10,29.57129834375,29.931501750000002,61.0,78.0
11,30.061093343750002,30.26925621875,61.0,76.0
12,30.305990843750003,30.551908750000003,68.0,77.0
13,30.550888343750003,31.05803025,66.0,76.0
14,31.040683343750004,31.260070687500004,64.0,77.0
15,31.285580843750004,31.596804750000004,61.0,74.0
16,31.53047834375,32.048844718750004,64.0,79.0
17,32.020273343750006,32.26517084375,66.0,76.0
18,32.26517084375,32.567211093750004,68.0,70.0
19,32.51006834375,33.38557690625,66.0,75.0
20,33.48965834375,33.84986175,68.0,78.0
21,33.97945334375,34.1682285,68.0,77.0
22,34.22435084375,34.464146312500006,71.0,76.0
23,34.46924834375,34.82230890625,68.0,76.0
24,34.959043343750004,35.15598175,66.0,77.0
25,35.203940843750004,35.41414453125,61.0,76.0
26,35.448838343750005,35.60087887500001,64.0,72.0
27,35.693735843750005,35.86516409375,64.0,76.0
28,35.93863334375,36.105979968750006,66.0,72.0
29,36.183530843750006,36.38761209375,68.0,72.0
30,36.42842834375,37.269243093750006,64.0,77.0
31,37.40801834375,37.76822175,63.0,76.0
32,37.89781334375,38.12026190625,63.0,75.0
33,38.14271084375,38.279445281250005,66.0,70.0
34,38.38760834375,38.850872781250004,59.0,78.0
35,38.877403343750004,39.170259937500006,56.0,73.0
36,39.12230084375,39.355973875000004,59.0,64.0
37,39.367198343750005,39.754952718750005,61.0,72.0
38,39.856993343750005,40.144747906250004,61.0,77.0
39,40.346788343750006,41.175358218750006,61.0,71.0
40,41.32637834375,41.682500125000004,68.0,76.0
41,41.81617334375,42.02025459375,68.0,77.0
42,42.06107084375,42.23249909375001,66.0,66.0
43,42.30596834375,42.7212736875,68.0,76.0
44,42.795763343750004,42.931477375,61.0,74.0
45,43.040660843750004,43.2396400625,61.0,76.0
46,43.28555834375,43.686578,64.0,76.0
47,43.77535334375,43.9375979375,66.0,74.0
48,44.020250843750006,44.22433209375001,68.0,72.0
49,44.26514834375,45.079432531250006,66.0,76.0
50,45.24473834375,45.61820703125,63.0,82.0
51,45.73453334375,45.94881865625,63.0,79.0
52,45.97943084375,46.115144875,66.0,76.0
53,46.22432834375,46.61208271875,59.0,78.0
54,46.71412334375,46.867184281250005,56.0,77.0
55,46.959020843750004,47.11616340625,59.0,76.0
56,47.203918343750004,47.592693125000004,61.0,76.0
57,47.693713343750005,48.107998281250005,61.0,74.0
58,48.183508343750006,48.963098718750004,61.0,76.0
59,49.16309834375001,49.570240437500004,61.0,80.0
60,49.65289334375,49.862076625,61.0,76.0
61,49.89779084375,50.13350468750001,68.0,78.0
62,50.14268834375,50.552891656250004,66.0,75.0
63,50.63248334375,50.8518706875,64.0,76.0
64,50.877380843750004,51.173298656250005,61.0,72.0
65,51.122278343750004,51.6681956875,64.0,80.0
66,51.61207334375,51.87431775,66.0,76.0
67,51.856970843750005,52.09778671875,64.0,76.0
68,52.10186834375,52.972274875000004,61.0,77.0
69,53.08145834375,53.44166175,61.0,78.0
70,53.57125334375,53.77941621875,61.0,76.0
71,53.81615084375,54.06206875,68.0,77.0
72,54.06104834375,54.56819025,66.0,76.0
73,54.55084334375,54.7702306875,64.0,77.0
74,54.79574084375,55.10696475,61.0,74.0
75,55.040638343750004,55.55900471875,64.0,79.0
76,55.530433343750005,55.775330843750005,66.0,76.0
77,55.775330843750005,56.07737109375,68.0,70.0
78,56.020228343750006,56.89573690625,66.0,75.0
79,56.99981834375,57.36002175,68.0,78.0
80,57.48961334375,57.678388500000004,68.0,77.0
81,57.73451084375,57.974306312500005,71.0,76.0
82,57.97940834375,58.33246890625,68.0,76.0
83,58.46920334375,58.66614175,66.0,77.0
84,58.71410084375,58.92430453125,61.0,76.0
85,58.958998343750004,59.111038875000006,64.0,72.0
86,59.203895843750004,59.37532409375,64.0,76.0
87,59.448793343750005,59.616139968750005,66.0,72.0
88,59.693690843750005,59.89777209375001,68.0,72.0
89,59.938588343750006,60.779403093750005,64.0,77.0
90,60.91817834375,61.27838175,63.0,76.0
91,61.40797334375,61.63042190625001,63.0,75.0
92,61.65287084375,61.789605281250005,66.0,70.0
93,61.89776834375,62.36103278125,59.0,78.0
94,62.38756334375,62.680419937500005,56.0,73.0
95,62.63246084375,62.866133875,59.0,64.0
96,62.877358343750004,63.265112718750004,61.0,72.0
97,63.367153343750005,63.65490790625,61.0,77.0
98,63.856948343750005,64.68551821875,61.0,71.0
99,64.83653834375,65.192660125,68.0,76.0
100,65.32633334375001,65.53041459375001,68.0,77.0
101,65.57123084375,65.74265909375,66.0,66.0
102,65.81612834375,66.2314336875,68.0,76.0
103,66.30592334375001,66.441637375,61.0,74.0
104,66.55082084375,66.7498000625,61.0,76.0
105,66.79571834375,67.19673800000001,64.0,76.0
106,67.28551334375001,67.4477579375,66.0,74.0
107,67.53041084375,67.73449209375,68.0,72.0
108,67.77530834375,68.58959253125,66.0,76.0
109,68.75489834375,69.12836703125001,63.0,82.0
110,69.24469334375,69.45897865625,63.0,79.0
111,69.48959084375,69.62530487500001,66.0,76.0
112,69.73448834375,70.12224271875,59.0,78.0
113,70.22428334375,70.37734428125,56.0,77.0
114,70.46918084375,70.62632340625001,59.0,76.0
115,70.71407834375,71.102853125,61.0,76.0
116,71.20387334375,71.61815828125,61.0,74.0
117,71.69366834375,72.47277060416667,61.0,76.0
118,72.67236312083334,73.07867645833333,61.0,80.0
119,73.16116112083333,73.3699186,61.0,76.0
120,73.40556012083333,73.64079415833334,68.0,78.0
121,73.64995912083333,74.05932744583333,66.0,75.0
122,74.13875712083333,74.35769789166666,64.0,76.0
123,74.38315612083333,74.67847157916667,61.0,72.0
124,74.62755512083334,75.172361225,64.0,80.0
125,75.11635312083334,75.37806371666667,66.0,76.0
126,75.36075212083334,75.60107780416666,64.0,76.0
127,75.60515112083333,76.4737859,61.0,77.0
128,76.58274712083333,76.94221731666667,61.0,78.0
129,77.07154512083333,77.27928427083333,61.0,76.0
130,77.31594412083334,77.56136144999999,68.0,77.0
131,77.56034312083334,78.06645271666666,66.0,76.0
132,78.04914112083333,78.26808189166667,64.0,77.0
133,78.29354012083333,78.60413051666667,61.0,74.0
134,78.53793912083333,79.0552503375,64.0,79.0
135,79.02673712083333,79.27113612083333,66.0,76.0
136,79.27113612083333,79.57256155416667,68.0,70.0
137,79.51553512083333,80.38926154583334,66.0,75.0
138,80.49313112083334,80.85260131666666,68.0,78.0
139,80.98192912083333,81.17032001666666,68.0,77.0
140,81.22632812083333,81.465635475,71.0,76.0
141,81.47072712083333,81.8230690125,68.0,76.0
142,81.95952512083333,82.15606265,66.0,77.0
143,82.20392412083334,82.41369992916667,61.0,76.0
144,82.44832312083334,82.60005416666667,64.0,72.0
145,82.69272212083334,82.86380142083334,64.0,76.0
146,82.93712112083334,83.10412710416666,66.0,72.0
147,83.18152012083334,83.38518595416667,68.0,72.0
148,83.42591912083333,84.26502235416666,64.0,77.0
149,84.40351512083333,84.76298531666667,63.0,76.0
150,84.89231312083334,85.11430887916667,63.0,75.0
151,85.13671212083334,85.27316822916667,66.0,70.0
152,85.38111112083334,85.8434325625,59.0,78.0
153,85.86990912083334,86.16216959166667,56.0,73.0
154,86.11430812083333,86.3475055,59.0,64.0
155,86.35870712083333,86.74567220416667,61.0,72.0
156,86.84750512083333,87.13467394583333,61.0,77.0
157,87.33630312083334,88.16318640416667,61.0,71.0
158,88.31389912083333,88.669296,68.0,76.0
159,88.80269712083333,89.00636295416666,68.0,77.0
160,89.04709612083333,89.21817542083333,66.0,66.0
161,89.29149512083333,89.70595509166667,68.0,76.0
162,89.78029312083333,89.9157309,61.0,74.0
163,90.02469212083334,90.22326630833334,61.0,76.0
164,90.26909112083334,90.66929448333333,64.0,76.0
165,90.75788912083334,90.91980345833333,66.0,74.0
166,91.00228812083333,91.20595395416666,68.0,72.0
167,91.24668712083333,92.05931379583333,66.0,76.0
168,92.22428312083333,92.59699159583333,63.0,82.0
169,92.71308112083334,92.92693024583333,63.0,79.0
170,92.95748012083334,93.0929179,66.0,76.0
171,93.20187912083333,93.58884420416666,59.0,78.0
172,93.69067712083333,93.84342649583334,56.0,77.0
173,93.93507612083333,94.0918988125,59.0,76.0
174,94.17947512083333,94.56745853333334,61.0,76.0
175,94.66827312083333,95.0817147625,61.0,74.0
176,95.15707112083334,95.93507460416666,61.0,76.0
177,96.13466712083334,96.54098045833334,61.0,80.0
178,96.62346512083333,96.8322226,61.0,76.0
179,96.86786412083333,97.10309815833334,68.0,78.0
180,97.11226312083333,97.52163144583334,66.0,75.0
181,97.60106112083334,97.82000189166666,64.0,76.0
182,97.84546012083334,98.14077557916667,61.0,72.0
183,98.08985912083334,98.63466522499999,64.0,80.0
184,98.57865712083333,98.84036771666666,66.0,76.0
185,98.82305612083333,99.06338180416667,64.0,76.0
186,99.06745512083333,99.9360899,61.0,77.0
187,100.04505112083334,100.40452131666666,61.0,78.0
188,100.53384912083334,100.74158827083333,61.0,76.0
189,100.77824812083333,101.02366545,68.0,77.0
190,101.02264712083334,101.52875671666666,66.0,76.0
191,101.51144512083333,101.73038589166667,64.0,77.0
192,101.75584412083333,102.06643451666667,61.0,74.0
193,102.00024312083333,102.5175543375,64.0,79.0
194,102.48904112083333,102.73344012083334,66.0,76.0
195,102.73344012083334,103.03486555416667,68.0,70.0
196,102.97783912083334,103.85156554583334,66.0,75.0
197,103.95543512083333,104.31490531666667,68.0,78.0
198,104.44423312083333,104.63262401666667,68.0,77.0
199,104.68863212083333,104.927939475,71.0,76.0
200,104.93303112083333,105.2853730125,68.0,76.0
201,105.42182912083334,105.61836665,66.0,77.0
202,105.66622812083332,105.87600392916667,61.0,76.0
203,105.91062712083334,106.06235816666667,64.0,72.0
204,106.15502612083333,106.32610542083333,64.0,76.0
205,106.39942512083334,106.56643110416667,66.0,72.0
206,106.64382412083333,106.84748995416666,68.0,72.0
207,106.88822312083333,107.72732635416666,64.0,77.0
208,107.86581912083334,108.22528931666668,63.0,76.0
209,108.35461712083332,108.57661287916667,63.0,75.0
210,108.59901612083334,108.73547222916667,66.0,70.0
211,108.84341512083333,109.3057365625,59.0,78.0
212,109.33221312083333,109.62447359166666,56.0,73.0
213,109.57661212083333,109.8098095,59.0,64.0
214,109.82101112083333,110.20797620416667,61.0,72.0
215,110.30980912083334,110.59697794583333,61.0,77.0
216,110.79860712083334,111.62549040416667,61.0,71.0
217,111.77620312083334,112.13159999999999,68.0,76.0
218,112.26500112083333,112.46866695416666,68.0,77.0
219,112.50940012083333,112.68047942083334,66.0,66.0
220,112.75379912083334,113.16825909166667,68.0,76.0
221,113.24259712083332,113.3780349,61.0,74.0
222,113.48699612083334,113.68557030833333,61.0,76.0
223,113.73139512083333,114.13159848333333,64.0,76.0
224,114.22019312083333,114.38210745833334,66.0,74.0
225,114.46459212083333,114.66825795416668,68.0,72.0
226,114.70899112083333,115.52161779583334,66.0,76.0
227,115.68658712083334,116.06018265208333,63.0,82.0
228,116.17674693958332,116.39147062708334,63.0,79.0
229,116.42214543958333,116.55813710833333,66.0,76.0
230,116.66754393958333,117.05609156458333,59.0,78.0
231,117.15834093958333,117.31171500208333,56.0,77.0
232,117.40373943958333,117.56120347708332,59.0,76.0
233,117.64913793958333,118.03870805833333,61.0,76.0
234,118.13993493958333,118.55506740208332,61.0,74.0
235,118.63073193958333,119.41191716458333,61.0,76.0
236,135.2871290479167,135.69443355625003,61.0,80.0
237,135.77691821875,135.9856756979167,61.0,76.0
238,136.02131721875003,136.25655125625002,68.0,78.0
239,136.26571621875001,136.67508454375002,66.0,75.0
240,136.75451421875002,136.97345498958336,64.0,76.0
241,136.99891321875003,137.29422867708337,61.0,72.0
242,137.24331221875002,137.7881183229167,64.0,80.0
243,137.73211021875002,137.99382081458336,66.0,76.0
244,137.97650921875,138.21683490208335,64.0,76.0
245,138.22090821875003,139.08954299791668,61.0,77.0
246,139.19850421875003,139.55797441458336,61.0,78.0
247,139.68730221875,139.89504136875001,61.0,76.0
248,139.93170121875002,140.17711854791668,68.0,77.0
249,140.17610021875,140.68220981458336,66.0,76.0
250,140.66489821875,140.88383898958335,64.0,77.0
251,140.90929721875003,141.21988761458334,61.0,74.0
252,141.15369621875,141.6710074354167,64.0,79.0
253,141.64249421875002,141.88689321875003,66.0,76.0
254,141.88689321875003,142.18831865208335,68.0,70.0
255,142.13129221875002,143.00501864375002,66.0,75.0
256,143.10888821875002,143.46835841458335,68.0,78.0
257,143.59768621875003,143.78607711458335,68.0,77.0
258,143.84208521875001,144.08139257291668,71.0,76.0
259,144.08648421875003,144.4388261104167,68.0,76.0
260,144.57528221875003,144.77181974791668,66.0,77.0
261,144.81968121875002,145.02945702708337,61.0,76.0
262,145.06408021875,145.21581126458335,64.0,72.0
263,145.30847921875002,145.47955851875003,64.0,76.0
264,145.55287821875,145.71988420208336,66.0,72.0
265,145.79727721875003,146.00094305208336,68.0,72.0
266,146.04167621875,146.88077945208335,64.0,77.0
267,147.01927221875002,147.37874241458334,63.0,76.0
268,147.50807021875002,147.73006597708334,63.0,75.0
269,147.75246921875,147.88892532708334,66.0,70.0
270,147.99686821875002,148.45918966041668,59.0,78.0
271,148.48566621875003,148.77792668958335,56.0,73.0
272,148.73006521875,148.9632625979167,59.0,64.0
273,148.97446421875003,149.36142930208337,61.0,72.0
274,149.46326221875003,149.75068924791668,61.0,77.0
275,149.95314301041668,150.7834079354167,61.0,71.0
276,150.93473701041668,151.2915873291667,68.0,76.0
277,151.4255340104167,151.6300327604167,68.0,77.0
278,151.6709325104167,151.8427114604167,66.0,66.0
279,151.91633101041668,152.3324859666667,68.0,76.0
280,152.4071280104167,152.5431196791667,61.0,74.0
281,152.6525265104167,152.85191279166668,61.0,76.0
282,152.89792501041669,153.2997650541667,64.0,76.0
283,153.3887220104167,153.5512985166667,66.0,74.0
284,153.6341205104167,153.8386192604167,68.0,72.0
285,153.8795190104167,154.69546902291668,66.0,76.0
286,154.8611130104167,155.2353457229167,63.0,82.0
287,155.3519100104167,155.5666336979167,63.0,79.0
288,155.5973085104167,155.7333001791667,66.0,76.0
289,155.8427070104167,156.2312546354167,59.0,78.0
290,156.3335040104167,156.48687807291668,56.0,77.0
291,156.5789025104167,156.7363665479167,59.0,76.0
292,156.8243010104167,157.2138711291667,61.0,76.0
293,157.3150980104167,157.7302304729167,61.0,74.0
294,157.8058950104167,158.5870802354167,61.0,76.0
295,158.7874890104167,159.14433932916668,68.0,76.0
296,159.27828601041668,159.48278476041668,68.0,77.0
297,159.5236845104167,159.6954634604167,66.0,66.0
298,159.7690830104167,160.1852379666667,68.0,76.0
299,160.25988001041668,160.3958716791667,61.0,74.0
300,160.5052785104167,160.7046647916667,61.0,76.0
301,160.7506770104167,161.15251705416668,64.0,76.0
302,161.24147401041668,161.4040505166667,66.0,74.0
303,161.4868725104167,161.6913712604167,68.0,72.0
304,161.7322710104167,162.5482210229167,66.0,76.0
305,162.71341940000002,163.08612787500005,63.0,82.0
306,163.20221740000002,163.41606652500002,63.0,79.0
307,163.44661640000004,163.5820541791667,66.0,76.0
308,163.69101540000003,164.07798048333336,59.0,78.0
309,164.17981340000003,164.33256277500004,56.0,77.0
310,164.42421240000004,164.5810350916667,59.0,76.0
311,164.66861140000003,165.05659481250004,61.0,76.0
312,165.15740940000003,165.57085104166669,61.0,74.0
313,165.64620740000004,166.42421088333336,61.0,76.0
314,174.44457140000003,174.7999682791667,68.0,76.0
315,174.93336940000003,175.13703523333336,68.0,77.0
316,175.17776840000002,175.34884770000002,66.0,66.0
317,175.42216740000003,175.83662737083336,68.0,76.0
318,175.91096540000004,176.0464031791667,61.0,74.0
319,176.15536440000002,176.35393858750004,61.0,76.0
320,176.39976340000004,176.79996676250002,64.0,76.0
321,176.88856140000004,177.05047573750002,66.0,74.0
322,177.13296040000003,177.33662623333336,68.0,72.0
323,177.37735940000005,178.18998607500004,66.0,76.0
324,178.35495540000002,178.72766387500002,63.0,82.0
325,178.84375340000003,179.05760252500002,63.0,79.0
326,179.08815240000004,179.2235901791667,66.0,76.0
327,179.33255140000003,179.71951648333336,59.0,78.0
328,179.82134940000003,179.97409877500004,56.0,77.0
329,180.06574840000002,180.2225710916667,59.0,76.0
330,180.31014740000003,180.69813081250004,61.0,76.0
331,180.79894540000004,181.2123870416667,61.0,74.0
332,181.28774340000004,182.06574688333336,61.0,76.0
333,190.1036569541667,190.4605072729167,68.0,76.0
334,190.59445395416668,190.79895270416668,68.0,77.0
335,190.8398524541667,191.01163140416668,66.0,66.0
336,191.0852509541667,191.50024815625002,68.0,76.0
337,191.57458618541668,191.71002396458337,61.0,74.0
338,191.8189851854167,192.01755937291668,61.0,76.0
339,192.06338418541668,192.4635875479167,64.0,76.0
340,192.55218218541668,192.7140965229167,66.0,74.0
341,192.7965811854167,193.00024701875003,68.0,72.0
342,193.0409801854167,193.8536068604167,66.0,76.0
343,194.0185761854167,194.3912846604167,63.0,82.0
344,194.5073741854167,194.7212233104167,63.0,79.0
345,194.75177318541668,194.88721096458335,66.0,76.0
346,194.9961721854167,195.38313726875003,59.0,78.0
347,195.4849701854167,195.63771956041668,56.0,77.0
348,195.7293691854167,195.88619187708335,59.0,76.0
349,195.9737681854167,196.36175159791668,61.0,76.0
350,196.4625661854167,196.87600782708336,61.0,74.0
351,196.95136418541668,197.72936766875003,61.0,76.0
352,205.75756622708334,206.11514799166667,68.0,76.0
353,206.24936922708335,206.45428714375,68.0,77.0
354,206.49527072708335,206.66740177708334,66.0,66.0
355,206.74117222708335,207.15818018750002,68.0,76.0
356,207.23297522708336,207.36924564166668,61.0,74.0
357,207.47887672708336,207.67867169583334,61.0,76.0
358,207.72477822708336,208.12744193333336,64.0,76.0
359,208.21658122708337,208.37949097083336,66.0,74.0
360,208.46248272708337,208.66740064375003,68.0,72.0
361,208.70838422708334,209.52600671458336,66.0,76.0
362,209.69199022708335,210.06699001458335,63.0,82.0
363,210.18379322708336,210.39895703958337,63.0,79.0
364,210.42969472708336,210.56596514166668,66.0,76.0
365,210.67559622708336,211.06494026875004,59.0,78.0
366,211.16739922708337,211.32108766458336,56.0,77.0
367,211.41304136041668,211.57018392291667,59.0,76.0
368,211.65793886041666,212.04671364166668,61.0,76.0
369,212.14773386041668,212.56201879791666,61.0,74.0
370,212.63752886041667,213.41711923541666,61.0,76.0
371,221.45383886041668,221.8099606416667,68.0,76.0
372,221.94363386041667,222.14771511041667,68.0,77.0
373,222.18853136041668,222.35995961041667,66.0,66.0
374,222.43342886041668,222.84873420416667,68.0,76.0
375,222.92322386041667,223.0589378916667,61.0,74.0
376,223.16812136041668,223.36710057916667,61.0,76.0
377,223.41301886041668,223.81403851666667,64.0,76.0
378,223.90281386041667,224.0650584541667,66.0,74.0
379,224.14771136041668,224.35179261041668,68.0,72.0
380,224.3926088604167,225.20689304791668,66.0,76.0
381,225.3721988604167,225.74566754791667,63.0,82.0
382,225.86199386041667,226.07627917291668,63.0,79.0
383,226.10689136041668,226.24260539166667,66.0,76.0
384,226.3517888604167,226.73954323541668,59.0,78.0
385,226.84158386041668,226.9946447979167,56.0,77.0
386,227.08648136041668,227.24362392291667,59.0,76.0
387,227.3313788604167,227.72015364166668,61.0,76.0
388,227.82117386041668,228.2354587979167,61.0,74.0
389,228.31096886041666,229.09055923541666,61.0,76.0
