,start,end,pitch,velocity
0,2.19409724375,2.53555934375,61.0,73.0
1,2.19409724375,2.5386081125,56.0,70.0
2,2.68190024375,2.78352586875,56.0,69.0
3,2.68190024375,2.79368843125,61.0,76.0
4,2.68190024375,2.8028347375,64.0,75.0
5,2.19409724375,2.9654357375,49.0,83.0
6,2.92580174375,3.2093372374999998,56.0,75.0
7,2.92580174375,3.264215075,61.0,78.0
8,2.92580174375,3.2723451249999997,64.0,78.0
9,3.41360474375,3.5182791375,56.0,71.0
10,3.65750624375,3.7733594562499997,56.0,76.0
11,3.16970324375,3.8150259625,49.0,74.0
12,3.65750624375,3.8373836,61.0,78.0
13,3.90140774375,4.03758608125,61.0,51.0
14,3.65750624375,4.05689495,64.0,77.0
15,3.90140774375,4.0690900249999995,56.0,77.0
16,4.14530924375,4.4857550875,56.0,75.0
17,4.14530924375,4.48677134375,61.0,76.0
18,4.63311224375,4.72864033125,61.0,77.0
19,4.63311224375,4.732705356249999,64.0,77.0
20,4.63311224375,4.7377866375,56.0,76.0
21,4.14530924375,4.9166477375,49.0,79.0
22,4.87701374375,5.19002066875,56.0,76.0
23,4.87701374375,5.19815071875,64.0,76.0
24,4.87701374375,5.207297025,61.0,78.0
25,5.36481674375,5.46847488125,56.0,70.0
26,5.12091524375,5.7093276125,44.0,77.0
27,5.60871824375,5.7133926375,56.0,78.0
28,5.60871824375,5.76318919375,61.0,80.0
29,5.60871824375,6.09245621875,64.0,78.0
30,5.85261974375,6.11684636875,61.0,62.0
31,5.85261974375,6.1544478499999995,56.0,76.0
32,6.58432424375,6.69001489375,56.0,75.0
33,6.58432424375,6.7296488875,61.0,80.0
34,6.09652124375,7.0731435,49.0,82.0
35,6.82822574375,7.11379375,56.0,76.0
36,6.82822574375,7.139200156249999,61.0,66.0
37,6.58432424375,7.16765533125,64.0,77.0
38,7.31602874375,7.420703137499999,56.0,71.0
39,7.55993024375,7.6503770499999995,56.0,71.0
40,7.55993024375,7.67375094375,61.0,76.0
41,7.55993024375,7.70423863125,64.0,73.0
42,7.07212724375,7.7865553875,44.0,77.0
43,7.80383174375,8.0629770875,64.0,64.0
44,7.80383174375,8.199155424999999,61.0,69.0
45,7.80383174375,8.223545575,56.0,77.0
46,8.53553624375,8.61480423125,64.0,76.0
47,8.53553624375,8.61683674375,56.0,72.0
48,8.53553624375,8.618869256249999,61.0,76.0
49,8.04773324375,9.0304530375,49.0,80.0
50,8.77943774375,9.060940725,56.0,71.0
51,8.77943774375,9.096509693749999,61.0,77.0
52,8.77943774375,9.11276979375,64.0,76.0
53,9.26724074375,9.356671293749999,56.0,73.0
54,9.02333924375,9.63715801875,44.0,76.0
55,9.51114224375,9.7095321625,61.0,80.0
56,9.51114224375,9.71259338125,56.0,77.0
57,9.51114224375,9.7217770375,64.0,77.0
58,10.00034794375,10.2646331625,56.0,72.0
59,10.00034794375,10.28198006875,61.0,74.0
60,10.49014294375,10.5789182875,56.0,75.0
61,10.49014294375,10.5870815375,61.0,78.0
62,10.49014294375,10.59218356875,64.0,79.0
63,10.00034794375,10.953407381249999,49.0,78.0
64,10.73504044375,11.014631756250001,56.0,76.0
65,10.73504044375,11.04932556875,61.0,80.0
66,10.73504044375,11.06259085,64.0,78.0
67,11.224835443749999,11.31259038125,56.0,71.0
68,11.46973294375,11.55340625625,56.0,78.0
69,11.46973294375,11.56361031875,61.0,77.0
70,11.46973294375,11.58401844375,64.0,77.0
71,10.97993794375,11.744222225,44.0,77.0
72,11.71463044375,11.79218131875,56.0,77.0
73,11.95952794375,12.20238463125,61.0,75.0
74,11.95952794375,12.210547881250001,56.0,68.0
75,12.44932294375,12.52279219375,61.0,76.0
76,12.44932294375,12.53911869375,64.0,77.0
77,11.95952794375,12.846260975,49.0,70.0
78,12.69422044375,12.9340159125,64.0,80.0
79,12.69422044375,12.97177094375,61.0,78.0
80,13.184015443749999,13.2850356625,56.0,70.0
81,12.93911794375,13.5299331625,44.0,78.0
82,13.42891294375,13.60646363125,61.0,79.0
83,13.42891294375,13.63095338125,64.0,87.0
84,13.67381044375,13.73707563125,61.0,48.0
85,13.67381044375,13.8482999125,56.0,78.0
86,13.91870794375,14.152380975,56.0,77.0
87,13.91870794375,14.162585037500001,61.0,76.0
88,14.408502943750001,14.50033950625,56.0,76.0
89,14.408502943750001,14.524829256250001,64.0,80.0
90,13.91870794375,14.83095113125,49.0,81.0
91,14.65340044375,14.96360394375,56.0,78.0
92,14.65340044375,15.132991381250001,64.0,78.0
93,15.143195443749999,15.259521756249999,56.0,71.0
94,14.89829794375,15.6421741,44.0,78.0
95,15.38809294375,15.763602443749999,64.0,77.0
96,15.38809294375,15.78401056875,61.0,79.0
97,15.63299044375,15.879928756249999,56.0,71.0
98,16.12278544375,16.2319689125,56.0,66.0
99,16.36768294375,16.46156031875,61.0,77.0
100,16.36768294375,16.478907225,64.0,77.0
101,15.87788794375,16.84319225625,49.0,78.0
102,16.61258044375,16.89625338125,56.0,76.0
103,16.61258044375,16.92074313125,64.0,78.0
104,16.61258044375,16.927885975000002,61.0,78.0
105,17.10237544375,17.2172871,56.0,71.0
106,17.34635164375,17.436798449999998,56.0,76.0
107,17.34635164375,17.489643775,61.0,80.0
108,17.34635164375,17.532326537499998,64.0,78.0
109,17.59025314375,17.63191965,64.0,58.0
110,17.59025314375,17.65935856875,61.0,69.0
111,16.85747794375,17.73049650625,44.0,76.0
112,17.59025314375,17.733545275,56.0,81.0
113,17.83415464375,18.16342166875,61.0,75.0
114,17.83415464375,18.17764925625,56.0,73.0
115,18.32195764375,18.41342070625,56.0,77.0
116,18.32195764375,18.448989675,64.0,77.0
117,17.83415464375,18.782321725,49.0,77.0
118,18.56585914375,18.928662625,56.0,75.0
119,18.56585914375,19.1034587,61.0,82.0
120,18.56585914375,19.1034587,64.0,76.0
121,19.05366214375,19.164434075,56.0,77.0
122,19.29756364375,19.407319318749998,56.0,76.0
123,18.80976064375,19.514026225,44.0,77.0
124,19.29756364375,19.74878141875,64.0,79.0
125,19.54146514375,19.88902478125,56.0,72.0
126,19.29756364375,19.8941060625,61.0,78.0
127,20.27316964375,20.367681474999998,56.0,74.0
128,20.27316964375,20.39105536875,61.0,78.0
129,20.27316964375,20.39918541875,64.0,76.0
130,19.78536664375,20.69593224375,49.0,80.0
131,20.517071143749998,20.8168667375,56.0,74.0
132,20.517071143749998,20.86463078125,61.0,77.0
133,20.517071143749998,20.89105344375,64.0,77.0
134,21.00487414375,21.1054835125,56.0,72.0
135,21.24877564375,21.32601111875,56.0,76.0
136,21.24877564375,21.380888956249997,61.0,79.0
137,21.24877564375,21.45812443125,64.0,77.0
138,20.760972643749998,21.515034781249998,44.0,77.0
139,21.49267714375,21.5770264125,56.0,76.0
140,21.73657864375,21.99064270625,59.0,76.0
141,21.73657864375,22.0038540375,56.0,76.0
142,22.22438164375,22.301924218750003,59.0,83.0
143,22.22438164375,22.308046656250003,63.0,80.0
144,22.22438164375,22.309067062500002,56.0,76.0
145,21.73657864375,22.574372687500002,44.0,79.0
146,22.469270843750003,22.781515156250002,56.0,68.0
147,22.469270843750003,22.8478415625,59.0,76.0
148,22.469270843750003,22.87947415625,63.0,76.0
149,22.95906584375,23.000902500000002,59.0,50.0
150,22.95906584375,23.052943218750002,56.0,70.0
151,23.20396334375,23.298861125000002,56.0,76.0
152,23.20396334375,23.348861031250003,59.0,77.0
153,23.20396334375,23.506003593750002,63.0,77.0
154,22.71416834375,23.542738218750003,51.0,75.0
155,23.44886084375,23.601921781250002,56.0,68.0
156,23.69375834375,23.794778562500003,56.0,68.0
157,23.69375834375,23.971308843750002,49.0,80.0
158,23.69375834375,23.99988021875,61.0,76.0
159,23.69375834375,24.010084281250002,64.0,74.0
160,23.938655843750002,24.04273728125,56.0,76.0
161,24.183553343750003,24.47130790625,54.0,78.0
162,24.183553343750003,24.53049146875,59.0,76.0
163,24.183553343750003,24.550899593750003,47.0,80.0
164,24.67334834375,24.943756,56.0,77.0
165,24.67334834375,24.992735500000002,61.0,77.0
166,25.16314334375,25.242735031250003,56.0,71.0
167,25.40804084375,25.60191803125,56.0,51.0
168,24.67334834375,25.6029384375,49.0,90.0
169,25.16314334375,25.623346562500004,61.0,75.0
170,25.16314334375,25.632530218750002,64.0,74.0
171,25.65293834375,25.943754125,61.0,70.0
172,25.65293834375,25.961101031250003,56.0,68.0
173,26.142733343750002,26.23661071875,56.0,72.0
174,25.65293834375,26.503957156250003,49.0,77.0
175,26.387630843750003,26.705997593750002,56.0,71.0
176,26.142733343750002,26.833548375000003,64.0,74.0
177,26.877425843750004,26.977425656250002,56.0,60.0
178,27.12232334375,27.22028234375,56.0,73.0
179,26.632528343750003,27.388649375,49.0,71.0
180,27.12232334375,27.445792125,61.0,76.0
181,27.36722084375,27.68558759375,56.0,71.0
182,28.101913343750002,28.18150503125,56.0,73.0
183,28.101913343750002,28.28150484375,64.0,72.0
184,28.346810843750003,28.48762690625,56.0,73.0
185,28.59170834375,28.70701425,61.0,70.0
186,28.83660584375,28.915177125,56.0,67.0
187,29.08150334375,29.161095031250003,56.0,78.0
188,29.08150334375,29.218237781250004,64.0,78.0
189,27.61211834375,29.354972218750003,49.0,70.0
190,29.32640084375,29.42231903125,56.0,68.0
191,29.57129834375,29.78558365625,56.0,61.0
192,29.57129834375,29.81211421875,61.0,69.0
193,30.061093343750002,30.15905234375,56.0,76.0
194,29.57129834375,30.4131335,49.0,72.0
195,30.305990843750003,30.5988474375,56.0,72.0
196,30.061093343750002,30.663133031250002,64.0,76.0
197,30.795785843750004,30.93252028125,56.0,70.0
198,30.550888343750003,31.340682781250003,49.0,69.0
199,31.040683343750004,31.584559875000004,64.0,78.0
200,31.040683343750004,31.611090437500003,61.0,77.0
201,31.285580843750004,31.61619246875,56.0,78.0
202,31.53047834375,32.13047721875,49.0,79.0
203,32.020273343750006,32.4641500625,61.0,78.0
204,32.26517084375,32.525374437500005,56.0,73.0
205,32.99986334375,33.0886386875,54.0,70.0
206,32.75496584375,33.266189375,49.0,69.0
207,32.51006834375,33.34680146875,42.0,77.0
208,32.99986334375,33.4682298125,57.0,71.0
209,33.24476084375,33.510066468750004,54.0,68.0
210,32.99986334375,33.562107187500004,61.0,76.0
211,33.97945334375,34.082514375,56.0,71.0
212,33.97945334375,34.12639184375,59.0,76.0
213,33.97945334375,34.184555,63.0,78.0
214,33.48965834375,34.253942625,44.0,77.0
215,34.22435084375,34.297820093750005,63.0,59.0
216,34.22435084375,34.507003375000004,56.0,74.0
217,34.71414584375,34.80802321875,56.0,71.0
218,34.959043343750004,35.045777875,56.0,69.0
219,34.959043343750004,35.24475709375,59.0,70.0
220,34.46924834375,35.2723080625,51.0,67.0
221,34.959043343750004,35.33557325,63.0,76.0
222,35.203940843750004,35.40394046875,56.0,72.0
223,35.448838343750005,35.78149078125,52.0,69.0
224,35.448838343750005,35.797817281250005,57.0,71.0
225,35.93863334375,36.079449406250006,57.0,70.0
226,35.448838343750005,36.092714687500006,45.0,76.0
227,36.183530843750006,36.274347000000006,57.0,63.0
228,36.183530843750006,36.506999625000006,52.0,71.0
229,35.93863334375,36.53250978125,61.0,77.0
230,36.67332584375,36.94679471875,47.0,67.0
231,36.42842834375,37.036590468750006,40.0,77.0
232,36.91822334375,37.194753437500005,56.0,76.0
233,36.91822334375,37.23250846875,59.0,76.0
234,37.16312084375,37.272304312500005,52.0,71.0
235,37.40801834375,37.731487125,59.0,76.0
236,37.40801834375,37.737609562500005,56.0,69.0
237,37.89781334375,38.01209884375,56.0,77.0
238,37.89781334375,38.09373134375,63.0,80.0
239,38.14271084375,38.1865883125,63.0,63.0
240,38.14271084375,38.4151593125,56.0,77.0
241,38.63250584375,38.73250565625,56.0,71.0
242,38.38760834375,38.924342031250006,51.0,69.0
243,38.877403343750004,38.9825051875,56.0,76.0
244,37.40801834375,39.01413778125,44.0,76.0
245,38.877403343750004,39.1825048125,59.0,78.0
246,38.877403343750004,39.19168846875,63.0,78.0
247,39.12230084375,39.27332096875,56.0,72.0
248,39.367198343750005,39.6437284375,56.0,68.0
249,39.367198343750005,39.64474884375,61.0,71.0
250,39.856993343750005,39.9580135625,56.0,68.0
251,39.856993343750005,39.964136,61.0,71.0
252,39.856993343750005,39.972299250000006,64.0,73.0
253,40.10189084375,40.36515565625,56.0,71.0
254,40.10189084375,40.40393109375,64.0,77.0
255,40.10189084375,40.4069923125,61.0,75.0
256,40.59168584375,40.686583625,56.0,64.0
257,40.83658334375001,40.93658315625,56.0,72.0
258,40.83658334375001,41.24882746875,61.0,77.0
259,40.83658334375001,41.26209275,64.0,76.0
260,41.08148084375,41.269235593750004,56.0,71.0
261,39.367198343750005,41.29168453125,37.0,77.0
262,40.346788343750006,41.2967865625,44.0,70.0
263,41.32637834375,41.6233165625,63.0,76.0
264,41.32637834375,41.63658184375,56.0,69.0
265,41.81617334375,41.9049486875,59.0,75.0
266,41.81617334375,41.90596909375,56.0,68.0
267,41.57127584375,42.155968625,51.0,65.0
268,42.06107084375,42.40596815625,56.0,77.0
269,42.06107084375,42.60596778125,59.0,81.0
270,42.55086584375,42.64474321875,56.0,65.0
271,42.30596834375,42.86719178125,51.0,76.0
272,42.795763343750004,42.87127340625,56.0,71.0
273,41.32637834375,42.96004875,44.0,77.0
274,42.795763343750004,43.028415968750004,59.0,77.0
275,42.795763343750004,43.0600485625,63.0,77.0
276,43.040660843750004,43.17127284375,56.0,70.0
277,43.28555834375,43.633516875,57.0,69.0
278,43.28555834375,43.65086378125,61.0,72.0
279,43.530455843750005,43.77943496875,52.0,63.0
280,43.28555834375,43.87943478125,45.0,76.0
281,43.77535334375,43.8988225,57.0,72.0
282,43.77535334375,44.0518834375,64.0,71.0
283,44.020250843750006,44.11820984375,57.0,63.0
284,43.77535334375,44.123311875,61.0,76.0
285,44.26514834375,44.39167871875,54.0,69.0
286,44.26514834375,44.485556093750006,59.0,70.0
287,44.51004584375001,44.5375968125,59.0,43.0
288,44.51004584375001,44.614127281250006,54.0,77.0
289,44.75494334375,44.84269828125,54.0,77.0
290,44.75494334375,44.88453493750001,59.0,78.0
291,44.75494334375,44.927392,63.0,80.0
292,44.26514834375,45.092697812500006,47.0,77.0
293,45.24473834375,45.533513312500006,59.0,56.0
294,45.24473834375,45.535554125000004,56.0,61.0
295,45.73453334375,45.819227062500005,56.0,75.0
296,45.73453334375,45.834533156250004,59.0,77.0
297,45.97943084375,46.1906549375,59.0,81.0
298,45.97943084375,46.19269575,56.0,77.0
299,45.24473834375,46.325348562500004,44.0,78.0
300,46.22432834375,46.50289925,51.0,75.0
301,46.46922584375,46.56514403125,56.0,71.0
302,46.71412334375,46.79779665625,56.0,72.0
303,46.71412334375,46.8702455,59.0,78.0
304,46.71412334375,46.92228621875,63.0,80.0
305,46.959020843750004,47.06106146875,56.0,68.0
306,47.203918343750004,47.43350975,56.0,70.0
307,47.203918343750004,47.43350975,61.0,73.0
308,47.693713343750005,47.76310096875,56.0,65.0
309,47.693713343750005,47.772284625,64.0,71.0
310,47.693713343750005,47.7743254375,61.0,68.0
311,47.93861084375,48.19575321875,56.0,70.0
312,47.93861084375,48.25901840625001,61.0,73.0
313,47.93861084375,48.261059218750006,64.0,72.0
314,48.42840584375,48.519222,56.0,66.0
315,48.67330334375001,48.813099,56.0,73.0
316,48.91820084375,49.11207803125001,56.0,70.0
317,48.67330334375001,49.1375881875,61.0,77.0
318,48.67330334375001,49.17330240625,64.0,76.0
319,48.183508343750006,49.180445250000005,44.0,67.0
320,47.203918343750004,49.191669718750006,37.0,79.0
321,49.16309834375001,49.453914125000004,61.0,70.0
322,49.16309834375001,49.47126103125,56.0,68.0
323,49.65289334375,49.74677071875,56.0,72.0
324,49.16309834375001,50.01411715625,49.0,77.0
325,49.89779084375,50.21615759375,56.0,71.0
326,49.65289334375,50.343708375000006,64.0,74.0
327,50.38758584375,50.487585656250005,56.0,60.0
328,50.63248334375,50.73044234375,56.0,73.0
329,50.14268834375,50.898809375,49.0,71.0
330,50.63248334375,50.955952125,61.0,76.0
331,50.877380843750004,51.19574759375,56.0,71.0
332,51.61207334375,51.691665031250004,56.0,73.0
333,51.61207334375,51.79166484375,64.0,72.0
334,51.856970843750005,51.99778690625,56.0,73.0
335,52.10186834375,52.21717425,61.0,70.0
336,52.346765843750006,52.425337125,56.0,67.0
337,52.59166334375,52.67125503125,56.0,78.0
338,52.59166334375,52.72839778125,64.0,78.0
339,51.122278343750004,52.865132218750006,49.0,70.0
340,52.83656084375001,52.932479031250004,56.0,68.0
341,53.08145834375,53.29574365625,56.0,61.0
342,53.08145834375,53.32227421875,61.0,69.0
343,53.57125334375,53.669212343750004,56.0,76.0
344,53.08145834375,53.9232935,49.0,72.0
345,53.81615084375,54.109007437500004,56.0,72.0
346,53.57125334375,54.173293031250005,64.0,76.0
347,54.30594584375,54.442680281250006,56.0,70.0
348,54.06104834375,54.85084278125,49.0,69.0
349,54.55084334375,55.094719875,64.0,78.0
350,54.55084334375,55.1212504375,61.0,77.0
351,54.79574084375,55.12635246875,56.0,78.0
352,55.040638343750004,55.64063721875,49.0,79.0
353,55.530433343750005,55.9743100625,61.0,78.0
354,55.775330843750005,56.035534437500004,56.0,73.0
355,56.51002334375001,56.5987986875,54.0,70.0
356,56.265125843750006,56.776349375,49.0,69.0
357,56.020228343750006,56.85696146875,42.0,77.0
358,56.51002334375001,56.978389812500005,57.0,71.0
359,56.75492084375,57.02022646875,54.0,68.0
360,56.51002334375001,57.0722671875,61.0,76.0
361,57.48961334375,57.592674375,56.0,71.0
362,57.48961334375,57.636551843750006,59.0,76.0
363,57.48961334375,57.694715,63.0,78.0
364,56.99981834375,57.764102625,44.0,77.0
365,57.73451084375,57.807980093750004,63.0,59.0
366,57.73451084375,58.017163375,56.0,74.0
367,58.22430584375,58.31818321875,56.0,71.0
368,58.46920334375,58.555937875000005,56.0,69.0
369,58.46920334375,58.75491709375,59.0,70.0
370,57.97940834375,58.7824680625,51.0,67.0
371,58.46920334375,58.84573325,63.0,76.0
372,58.71410084375,58.91410046875,56.0,72.0
373,58.958998343750004,59.291650781250006,52.0,69.0
374,58.958998343750004,59.307977281250004,57.0,71.0
375,59.448793343750005,59.589609406250005,57.0,70.0
376,58.958998343750004,59.602874687500005,45.0,76.0
377,59.693690843750005,59.784507000000005,57.0,63.0
378,59.693690843750005,60.017159625000005,52.0,71.0
379,59.448793343750005,60.042669781250005,61.0,77.0
380,60.183485843750006,60.456954718750005,47.0,67.0
381,59.938588343750006,60.546750468750005,40.0,77.0
382,60.428383343750006,60.704913437500004,56.0,76.0
383,60.428383343750006,60.742668468750004,59.0,76.0
384,60.67328084375,60.782464312500004,52.0,71.0
385,60.91817834375,61.241647125,59.0,76.0
386,60.91817834375,61.247769562500004,56.0,69.0
387,61.40797334375,61.52225884375,56.0,77.0
388,61.40797334375,61.60389134375,63.0,80.0
389,61.65287084375,61.696748312500006,63.0,63.0
390,61.65287084375,61.9253193125,56.0,77.0
391,62.14266584375,62.242665656250004,56.0,71.0
392,61.89776834375,62.434502031250005,51.0,69.0
393,62.38756334375,62.4926651875,56.0,76.0
394,60.91817834375,62.524297781250006,44.0,76.0
395,62.38756334375,62.692664812500006,59.0,78.0
396,62.38756334375,62.70184846875,63.0,78.0
397,62.63246084375,62.783480968750006,56.0,72.0
398,62.877358343750004,63.1538884375,56.0,68.0
399,62.877358343750004,63.15490884375,61.0,71.0
400,63.367153343750005,63.468173562500006,56.0,68.0
401,63.367153343750005,63.474296,61.0,71.0
402,63.367153343750005,63.482459250000005,64.0,73.0
403,63.612050843750005,63.87531565625,56.0,71.0
404,63.612050843750005,63.91409109375,64.0,77.0
405,63.612050843750005,63.9171523125,61.0,75.0
406,64.10184584375,64.19674362500001,56.0,64.0
407,64.34674334375,64.44674315625,56.0,72.0
408,64.34674334375,64.75898746875001,61.0,77.0
409,64.34674334375,64.77225275,64.0,76.0
410,64.59164084375001,64.77939559375,56.0,71.0
411,62.877358343750004,64.80184453125,37.0,77.0
412,63.856948343750005,64.8069465625,44.0,70.0
413,64.83653834375,65.1334765625,63.0,76.0
414,64.83653834375,65.14674184375,56.0,69.0
415,65.32633334375001,65.41510868750001,59.0,75.0
416,65.32633334375001,65.41612909375,56.0,68.0
417,65.08143584375,65.666128625,51.0,65.0
418,65.57123084375,65.91612815625001,56.0,77.0
419,65.57123084375,66.11612778125,59.0,81.0
420,66.06102584375,66.15490321875001,56.0,65.0
421,65.81612834375,66.37735178125001,51.0,76.0
422,66.30592334375001,66.38143340625001,56.0,71.0
423,64.83653834375,66.47020875000001,44.0,77.0
424,66.30592334375001,66.53857596875,59.0,77.0
425,66.30592334375001,66.5702085625,63.0,77.0
426,66.55082084375,66.68143284375,56.0,70.0
427,66.79571834375,67.14367687500001,57.0,69.0
428,66.79571834375,67.16102378125001,61.0,72.0
429,67.04061584375,67.28959496875001,52.0,63.0
430,66.79571834375,67.38959478125,45.0,76.0
431,67.28551334375001,67.40898250000001,57.0,72.0
432,67.28551334375001,67.5620434375,64.0,71.0
433,67.53041084375,67.62836984375,57.0,63.0
434,67.28551334375001,67.633471875,61.0,76.0
435,67.77530834375,67.90183871875001,54.0,69.0
436,67.77530834375,67.99571609375,59.0,70.0
437,68.02020584375,68.04775681250001,59.0,43.0
438,68.02020584375,68.12428728125,54.0,77.0
439,68.26510334375001,68.35285828125001,54.0,77.0
440,68.26510334375001,68.3946949375,59.0,78.0
441,68.26510334375001,68.43755200000001,63.0,80.0
442,67.77530834375,68.6028578125,47.0,77.0
443,68.75489834375,69.0436733125,59.0,56.0
444,68.75489834375,69.045714125,56.0,61.0
445,69.24469334375,69.3293870625,56.0,75.0
446,69.24469334375,69.34469315625,59.0,77.0
447,69.48959084375,69.70081493750001,59.0,81.0
448,69.48959084375,69.70285575,56.0,77.0
449,68.75489834375,69.8355085625,44.0,78.0
450,69.73448834375,70.01305925,51.0,75.0
451,69.97938584375001,70.07530403125,56.0,71.0
452,70.22428334375,70.30795665625001,56.0,72.0
453,70.22428334375,70.3804055,59.0,78.0
454,70.22428334375,70.43244621875,63.0,80.0
455,70.46918084375,70.57122146875,56.0,68.0
456,70.71407834375,70.94366975,56.0,70.0
457,70.71407834375,70.94366975,61.0,73.0
458,71.20387334375,71.27326096875001,56.0,65.0
459,71.20387334375,71.28244462500001,64.0,71.0
460,71.20387334375,71.2844854375,61.0,68.0
461,71.44877084375,71.70591321875,56.0,70.0
462,71.44877084375,71.76917840625,61.0,73.0
463,71.44877084375,71.77121921875,64.0,72.0
464,71.93856584375001,72.029382,56.0,66.0
465,72.18346334375,72.32307621666666,56.0,73.0
466,72.42796412083334,72.6214466625,56.0,70.0
467,72.18346334375,72.64690489166667,61.0,77.0
468,72.18346334375,72.6825464125,64.0,76.0
469,71.69366834375,72.68967471666667,44.0,67.0
470,70.71407834375,72.7008763375,37.0,79.0
471,72.67236312083334,72.96258693333333,61.0,70.0
472,72.67236312083334,72.97989852916666,56.0,68.0
473,73.16116112083333,73.25484740416667,56.0,72.0
474,72.67236312083334,73.52164964583334,49.0,77.0
475,73.40556012083333,73.72327882083333,56.0,71.0
476,73.16116112083333,73.85056996666667,64.0,74.0
477,73.89435812083333,73.99415437916667,56.0,60.0
478,74.13875712083333,74.23651672083334,56.0,73.0
479,73.64995912083333,74.40454103333333,49.0,71.0
480,74.13875712083333,74.46156746666666,61.0,76.0
481,74.38315612083333,74.70087482083333,56.0,71.0
482,75.11635312083334,75.19578279583334,56.0,73.0
483,75.11635312083334,75.29557905416667,64.0,72.0
484,75.36075212083334,75.50128154583334,56.0,73.0
485,75.60515112083333,75.72022231666666,61.0,70.0
486,75.84955012083333,75.92796146666667,56.0,67.0
487,76.09394912083333,76.17337879583333,56.0,78.0
488,76.09394912083333,76.23040522916666,64.0,78.0
489,74.62755512083334,76.3668613375,49.0,70.0
490,76.33834812083333,76.4340710625,56.0,68.0
491,76.58274712083333,76.79659624583333,56.0,61.0
492,76.58274712083333,76.82307280416667,61.0,69.0
493,77.07154512083333,77.16930472083334,56.0,76.0
494,76.58274712083333,77.42286868333333,49.0,72.0
495,77.31594412083334,77.60820459166666,56.0,72.0
496,77.07154512083333,77.67235932916667,64.0,76.0
497,77.80474212083334,77.94119822916667,56.0,70.0
498,77.56034312083334,78.34852989583334,49.0,69.0
499,78.04914112083333,78.59191056666667,64.0,78.0
500,78.04914112083333,78.618387125,61.0,77.0
501,78.29354012083333,78.62347877083333,56.0,78.0
502,78.53793912083333,79.13671667083334,49.0,79.0
503,79.02673712083333,79.46971030833333,61.0,78.0
504,79.27113612083333,79.53081005833333,56.0,73.0
505,80.00433312083334,80.09292775833333,54.0,70.0
506,79.75993412083334,80.27011703333334,49.0,69.0
507,79.51553512083333,80.3505650375,42.0,77.0
508,80.00433312083334,80.47174620833333,57.0,71.0
509,80.24873212083334,80.51349770416667,54.0,68.0
510,80.00433312083334,80.56543249166667,61.0,76.0
511,80.98192912083333,81.08478036666666,56.0,71.0
512,80.98192912083333,81.12856852083334,59.0,76.0
513,80.98192912083333,81.18661328333333,63.0,78.0
514,80.49313112083334,81.25585966666667,44.0,77.0
515,81.22632812083333,81.29964782083333,63.0,59.0
516,81.22632812083333,81.50840529999999,56.0,74.0
517,81.71512612083333,81.80881240416667,56.0,71.0
518,81.95952512083333,82.0460831,56.0,69.0
519,81.95952512083333,82.2446572875,59.0,70.0
520,81.47072712083333,82.272152175,51.0,67.0
521,81.95952512083333,82.33528858333334,63.0,76.0
522,82.20392412083334,82.4035166375,56.0,72.0
523,82.44832312083334,82.78029842916666,52.0,69.0
524,82.44832312083334,82.79659169583333,57.0,71.0
525,82.93712112083334,83.07765054583334,57.0,70.0
526,82.44832312083334,83.09088882500001,45.0,76.0
527,83.18152012083334,83.27215141666667,57.0,63.0
528,83.18152012083334,83.50433046666667,52.0,71.0
529,82.93712112083334,83.52978869583333,61.0,77.0
530,83.67031812083333,83.9432303375,47.0,67.0
531,83.42591912083333,84.03284330416666,40.0,77.0
532,83.91471712083333,84.190684325,56.0,76.0
533,83.91471712083333,84.22836250416667,59.0,76.0
534,84.15911612083333,84.26807734166667,52.0,71.0
535,84.40351512083333,84.72632546666667,59.0,76.0
536,84.40351512083333,84.73243544166667,56.0,69.0
537,84.89231312083334,85.0063659875,56.0,77.0
538,84.89231312083334,85.08783232083333,63.0,80.0
539,85.13671212083334,85.180500275,63.0,63.0
540,85.13671212083334,85.40860600833334,56.0,77.0
541,85.62551012083333,85.72530637916667,56.0,71.0
542,85.38111112083334,85.9167522625,51.0,69.0
543,85.86990912083334,85.974797025,56.0,76.0
544,84.40351512083333,86.00636522916666,44.0,76.0
545,85.86990912083334,86.17438954166667,59.0,78.0
546,85.86990912083334,86.18355450416666,63.0,78.0
547,86.11430812083333,86.2650208375,56.0,72.0
548,86.35870712083333,86.634674325,56.0,68.0
549,86.35870712083333,86.63569265416666,61.0,71.0
550,86.84750512083333,86.94831970833333,56.0,68.0
551,86.84750512083333,86.95442968333333,61.0,71.0
552,86.84750512083333,86.96257631666667,64.0,73.0
553,87.09190412083333,87.35463304583334,56.0,71.0
554,87.09190412083333,87.39332955416667,64.0,77.0
555,87.09190412083333,87.39638454166666,61.0,75.0
556,87.58070212083334,87.67540673333333,56.0,64.0
557,87.82510112083334,87.92489737916667,56.0,72.0
558,87.82510112083334,88.23650610416666,61.0,77.0
559,87.82510112083334,88.24974438333334,64.0,76.0
560,88.06950012083334,88.25687268749999,56.0,71.0
561,86.35870712083333,88.27927592916666,37.0,77.0
562,87.33630312083334,88.284367575,44.0,70.0
563,88.31389912083333,88.61023290833333,63.0,76.0
564,88.31389912083333,88.6234711875,56.0,69.0
565,88.80269712083333,88.89129175833334,59.0,75.0
566,88.80269712083333,88.8923100875,56.0,68.0
567,88.55829812083334,89.14180073333333,51.0,65.0
568,89.04709612083333,89.39129137916666,56.0,77.0
569,89.04709612083333,89.59088389583333,59.0,81.0
570,89.53589412083333,89.62958040416666,56.0,65.0
571,89.29149512083333,89.8515761625,51.0,76.0
572,89.78029312083333,89.85564947916666,56.0,71.0
573,88.31389912083333,89.94424411666667,44.0,77.0
574,89.78029312083333,90.01247217083333,59.0,77.0
575,89.78029312083333,90.04404037500001,63.0,77.0
576,90.02469212083334,90.15503825416667,56.0,70.0
577,90.26909112083334,90.61634136666666,57.0,69.0
578,90.26909112083334,90.63365296250001,61.0,72.0
579,90.51349012083332,90.7619624375,52.0,63.0
580,90.26909112083334,90.86175869583333,45.0,76.0
581,90.75788912083334,90.88110695,57.0,72.0
582,90.75788912083334,91.033856325,64.0,71.0
583,91.00228812083333,91.10004772083333,57.0,63.0
584,90.75788912083334,91.10513936666666,61.0,76.0
585,91.24668712083333,91.3729599375,54.0,69.0
586,91.24668712083333,91.46664622083333,59.0,70.0
587,91.49108612083333,91.51858100833334,59.0,43.0
588,91.49108612083333,91.59495569583333,54.0,77.0
589,91.73548512083333,91.82306142916667,54.0,77.0
590,91.73548512083333,91.864812925,59.0,78.0
591,91.73548512083333,91.90758275,63.0,80.0
592,91.24668712083333,92.072552075,47.0,77.0
593,92.22428312083333,92.512470275,59.0,56.0
594,92.22428312083333,92.51450693333334,56.0,61.0
595,92.71308112083334,92.79760244166667,56.0,75.0
596,92.71308112083334,92.81287737916666,59.0,77.0
597,92.95748012083334,93.16827425833333,59.0,81.0
598,92.95748012083334,93.17031091666666,56.0,77.0
599,92.22428312083333,93.30269370833334,44.0,78.0
600,93.20187912083333,93.47988298333334,51.0,75.0
601,93.44627812083334,93.54200106249999,56.0,71.0
602,93.69067712083333,93.7741801125,56.0,72.0
603,93.69067712083333,93.84648148333333,59.0,78.0
604,93.69067712083333,93.89841627083334,63.0,80.0
605,93.93507612083333,94.0369090375,56.0,68.0
606,94.17947512083333,94.40859918333334,56.0,70.0
607,94.17947512083333,94.40859918333334,61.0,73.0
608,94.66827312083333,94.73751950416667,56.0,65.0
609,94.66827312083333,94.74668446666666,64.0,71.0
610,94.66827312083333,94.748721125,61.0,68.0
611,94.91267212083334,95.16929107083334,56.0,70.0
612,94.91267212083334,95.23242747916666,61.0,73.0
613,94.91267212083334,95.2344641375,64.0,72.0
614,95.40147012083334,95.49210141666667,56.0,66.0
615,95.64586912083334,95.78538021666667,56.0,73.0
616,95.89026812083333,96.0837506625,56.0,70.0
617,95.64586912083334,96.10920889166667,61.0,77.0
618,95.64586912083334,96.1448504125,64.0,76.0
619,95.15707112083334,96.15197871666666,44.0,67.0
620,94.17947512083333,96.1631803375,37.0,79.0
621,96.13466712083334,96.42489093333333,61.0,70.0
622,96.13466712083334,96.44220252916666,56.0,68.0
623,96.62346512083333,96.71715140416667,56.0,72.0
624,96.13466712083334,96.98395364583334,49.0,77.0
625,96.86786412083333,97.18558282083333,56.0,71.0
626,96.62346512083333,97.31287396666667,64.0,74.0
627,97.35666212083333,97.45645837916666,56.0,60.0
628,97.60106112083334,97.69882072083334,56.0,73.0
629,97.11226312083333,97.86684503333333,49.0,71.0
630,97.60106112083334,97.92387146666667,61.0,76.0
631,97.84546012083334,98.16317882083334,56.0,71.0
632,98.57865712083333,98.65808679583333,56.0,73.0
633,98.57865712083333,98.75788305416667,64.0,72.0
634,98.82305612083333,98.96358554583333,56.0,73.0
635,99.06745512083333,99.18252631666667,61.0,70.0
636,99.31185412083333,99.39026546666666,56.0,67.0
637,99.55625312083333,99.63568279583333,56.0,78.0
638,99.55625312083333,99.69270922916667,64.0,78.0
639,98.08985912083334,99.8291653375,49.0,70.0
640,99.80065212083333,99.8963750625,56.0,68.0
641,100.04505112083334,100.25890024583333,56.0,61.0
642,100.04505112083334,100.28537680416667,61.0,69.0
643,100.53384912083334,100.63160872083333,56.0,76.0
644,100.04505112083334,100.88517268333334,49.0,72.0
645,100.77824812083333,101.07050859166667,56.0,72.0
646,100.53384912083334,101.13466332916667,64.0,76.0
647,101.26704612083333,101.40350222916666,56.0,70.0
648,101.02264712083334,101.81083389583333,49.0,69.0
649,101.51144512083333,102.05421456666667,64.0,78.0
650,101.51144512083333,102.080691125,61.0,77.0
651,101.75584412083333,102.08578277083333,56.0,78.0
652,102.00024312083333,102.59902067083334,49.0,79.0
653,102.48904112083333,102.93201430833334,61.0,78.0
654,102.73344012083334,102.99311405833333,56.0,73.0
655,103.46663712083333,103.55523175833333,54.0,70.0
656,103.22223812083334,103.73242103333334,49.0,69.0
657,102.97783912083334,103.81286903750001,42.0,77.0
658,103.46663712083333,103.93405020833333,57.0,71.0
659,103.71103612083334,103.97580170416667,54.0,68.0
660,103.46663712083333,104.02773649166667,61.0,76.0
661,104.44423312083333,104.54708436666667,56.0,71.0
662,104.44423312083333,104.59087252083333,59.0,76.0
663,104.44423312083333,104.64891728333333,63.0,78.0
664,103.95543512083333,104.71816366666667,44.0,77.0
665,104.68863212083333,104.76195182083333,63.0,59.0
666,104.68863212083333,104.97070930000001,56.0,74.0
667,105.17743012083334,105.27111640416666,56.0,71.0
668,105.42182912083334,105.5083871,56.0,69.0
669,105.42182912083334,105.70696128750001,59.0,70.0
670,104.93303112083333,105.73445617499999,51.0,67.0
671,105.42182912083334,105.79759258333334,63.0,76.0
672,105.66622812083332,105.86582063750001,56.0,72.0
673,105.91062712083334,106.24260242916667,52.0,69.0
674,105.91062712083334,106.25889569583333,57.0,71.0
675,106.39942512083334,106.53995454583333,57.0,70.0
676,105.91062712083334,106.553192825,45.0,76.0
677,106.64382412083333,106.73445541666666,57.0,63.0
678,106.64382412083333,106.96663446666668,52.0,71.0
679,106.39942512083334,106.99209269583334,61.0,77.0
680,107.13262212083333,107.4055343375,47.0,67.0
681,106.88822312083333,107.49514730416666,40.0,77.0
682,107.37702112083333,107.652988325,56.0,76.0
683,107.37702112083333,107.69066650416667,59.0,76.0
684,107.62142012083333,107.73038134166666,52.0,71.0
685,107.86581912083334,108.18862946666667,59.0,76.0
686,107.86581912083334,108.19473944166667,56.0,69.0
687,108.35461712083332,108.4686699875,56.0,77.0
688,108.35461712083332,108.55013632083333,63.0,80.0
689,108.59901612083334,108.642804275,63.0,63.0
690,108.59901612083334,108.87091000833334,56.0,77.0
691,109.08781412083334,109.18761037916667,56.0,71.0
692,108.84341512083333,109.3790562625,51.0,69.0
693,109.33221312083333,109.437101025,56.0,76.0
694,107.86581912083334,109.46866922916666,44.0,76.0
695,109.33221312083333,109.63669354166666,59.0,78.0
696,109.33221312083333,109.64585850416667,63.0,78.0
697,109.57661212083333,109.72732483749999,56.0,72.0
698,109.82101112083333,110.09697832500001,56.0,68.0
699,109.82101112083333,110.09799665416666,61.0,71.0
700,110.30980912083334,110.41062370833333,56.0,68.0
701,110.30980912083334,110.41673368333333,61.0,71.0
702,110.30980912083334,110.42488031666667,64.0,73.0
703,110.55420812083334,110.81693704583333,56.0,71.0
704,110.55420812083334,110.85563355416667,64.0,77.0
705,110.55420812083334,110.85868854166667,61.0,75.0
706,111.04300612083333,111.13771073333334,56.0,64.0
707,111.28740512083334,111.38720137916667,56.0,72.0
708,111.28740512083334,111.69881010416667,61.0,77.0
709,111.28740512083334,111.71204838333333,64.0,76.0
710,111.53180412083333,111.71917668750001,56.0,71.0
711,109.82101112083333,111.74157992916668,37.0,77.0
712,110.79860712083334,111.746671575,44.0,70.0
713,111.77620312083334,112.07253690833333,63.0,76.0
714,111.77620312083334,112.08577518749999,56.0,69.0
715,112.26500112083333,112.35359575833334,59.0,75.0
716,112.26500112083333,112.35461408750001,56.0,68.0
717,112.02060212083333,112.60410473333334,51.0,65.0
718,112.50940012083333,112.85359537916668,56.0,77.0
719,112.50940012083333,113.05318789583333,59.0,81.0
720,112.99819812083334,113.09188440416668,56.0,65.0
721,112.75379912083334,113.3138801625,51.0,76.0
722,113.24259712083332,113.31795347916668,56.0,71.0
723,111.77620312083334,113.40654811666667,44.0,77.0
724,113.24259712083332,113.47477617083334,59.0,77.0
725,113.24259712083332,113.506344375,63.0,77.0
726,113.48699612083334,113.61734225416666,56.0,70.0
727,113.73139512083333,114.07864536666668,57.0,69.0
728,113.73139512083333,114.0959569625,61.0,72.0
729,113.97579412083334,114.2242664375,52.0,63.0
730,113.73139512083333,114.32406269583333,45.0,76.0
731,114.22019312083333,114.34341094999999,57.0,72.0
732,114.22019312083333,114.496160325,64.0,71.0
733,114.46459212083333,114.56235172083333,57.0,63.0
734,114.22019312083333,114.56744336666667,61.0,76.0
735,114.70899112083333,114.8352639375,54.0,69.0
736,114.70899112083333,114.92895022083334,59.0,70.0
737,114.95339012083333,114.98088500833333,59.0,43.0
738,114.95339012083333,115.05725969583332,54.0,77.0
739,115.19778912083333,115.28536542916666,54.0,77.0
740,115.19778912083333,115.327116925,59.0,78.0
741,115.19778912083333,115.36988675,63.0,80.0
742,114.70899112083333,115.534856075,47.0,77.0
743,115.68658712083334,115.97531567083333,59.0,56.0
744,115.68658712083334,115.97736065833332,56.0,61.0
745,116.17674693958332,116.26161392083333,56.0,75.0
746,116.17674693958332,116.27695132708332,59.0,77.0
747,116.42214543958333,116.63380164583333,59.0,81.0
748,116.42214543958333,116.63584663333333,56.0,77.0
749,115.68658712083334,116.76877082083332,44.0,78.0
750,116.66754393958333,116.94668473333333,51.0,75.0
751,116.91294243958333,117.00905685208333,56.0,71.0
752,117.15834093958333,117.24218542708333,56.0,72.0
753,117.15834093958333,117.31478248333333,59.0,78.0
754,117.15834093958333,117.36692966458332,63.0,80.0
755,117.40373943958333,117.50598881458333,56.0,68.0
756,117.64913793958333,117.87919903333334,56.0,70.0
757,117.64913793958333,117.87919903333334,61.0,73.0
758,118.13993493958333,118.20946451458333,56.0,65.0
759,118.13993493958333,118.21866695833333,64.0,71.0
760,118.13993493958333,118.22071194583333,61.0,68.0
761,118.38533343958333,118.64300186458333,56.0,70.0
762,118.38533343958333,118.70639647708333,61.0,73.0
763,118.38533343958333,118.70844146458333,64.0,72.0
764,118.87613043958333,118.96713238333334,56.0,66.0
765,119.12152893958333,119.26161058333334,56.0,73.0
766,119.36692743958334,119.56120125208334,56.0,70.0
767,119.12152893958333,119.58676359583333,61.0,77.0
768,119.12152893958333,119.62255087708333,64.0,76.0
769,118.63073193958333,119.62970833333333,44.0,67.0
770,117.64913793958333,119.64095576458332,37.0,79.0
771,119.61232593958333,119.87715182083333,56.0,72.0
772,119.61232593958333,119.89453421458333,61.0,74.0
773,120.10312293958333,120.19207989583333,56.0,75.0
774,120.10312293958333,120.20025984583333,61.0,78.0
775,120.10312293958333,120.20537231458333,64.0,79.0
776,119.61232593958333,120.56733510208333,49.0,78.0
777,120.34852143958332,120.62868472708332,56.0,76.0
778,120.34852143958332,120.66344951458333,61.0,80.0
779,120.34852143958332,120.67674193333333,64.0,78.0
780,120.83931843958334,120.92725290208332,56.0,71.0
781,121.08471693958333,121.16856142708333,56.0,78.0
782,121.08471693958333,121.17878636458333,61.0,77.0
783,121.08471693958333,121.19923623958333,64.0,77.0
784,120.59391993958333,121.35976775833333,44.0,77.0
785,121.33011543958332,121.40782496458333,56.0,77.0
786,121.57551393958333,121.81886745208332,61.0,75.0
787,121.57551393958333,121.82704740208332,56.0,68.0
788,122.06631093958333,122.13993048958334,61.0,76.0
789,122.06631093958333,122.15629038958333,64.0,77.0
790,121.57551393958333,122.46406100833333,49.0,70.0
791,122.31170943958332,122.55199547083333,64.0,80.0
792,122.31170943958332,122.58982773958333,61.0,78.0
793,122.80250643958333,122.90373332083333,56.0,70.0
794,122.55710793958333,123.14913182083333,44.0,78.0
795,123.04790493958333,123.2257647125,61.0,79.0
796,123.04790493958333,123.25020461249999,64.0,87.0
797,123.29297443749999,123.35611084583333,61.0,48.0
798,123.29297443749999,123.46710872499999,56.0,78.0
799,123.5373734375,123.77057081666666,56.0,77.0
800,123.5373734375,123.78075410833333,61.0,76.0
801,124.0261714375,124.11782106249998,56.0,76.0
802,124.0261714375,124.14226096249999,64.0,80.0
803,123.5373734375,124.44775971249999,49.0,81.0
804,124.27057043749998,124.58014250416666,56.0,78.0
805,124.27057043749998,124.74918514583332,64.0,78.0
806,124.75936843749999,124.8754579625,56.0,71.0
807,124.51496943749999,125.25733139999998,44.0,78.0
808,125.00376743749999,125.37851257083332,64.0,77.0
809,125.00376743749999,125.39887915416665,61.0,79.0
810,125.24816643749999,125.49460209583333,56.0,71.0
811,125.73696443749999,125.84592565833333,56.0,66.0
812,125.9813634375,126.07504972083332,61.0,77.0
813,125.9813634375,126.09236131666665,64.0,77.0
814,125.49256543749999,126.45590482916666,49.0,78.0
815,126.2257624375,126.50885794583333,56.0,76.0
816,126.2257624375,126.53329784583332,64.0,78.0
817,126.2257624375,126.54042614999999,61.0,78.0
818,126.71456043749998,126.82963163333332,56.0,71.0
819,126.95895943749998,127.04959073333332,56.0,76.0
820,126.95895943749998,127.10254384999999,61.0,80.0
821,126.95895943749998,127.145313675,64.0,78.0
822,127.20335843749999,127.24510993333332,64.0,58.0
823,127.20335843749999,127.27260482083332,61.0,69.0
824,126.4701614375,127.3438878625,44.0,76.0
825,127.20335843749999,127.34694284999999,56.0,81.0
826,127.44775743749999,127.77769608749999,61.0,75.0
827,127.44775743749999,127.79195269583332,56.0,73.0
828,127.93655543749999,128.02820506249998,56.0,77.0
829,127.93655543749999,128.06384658333332,64.0,77.0
830,127.44775743749999,128.39785855,49.0,77.0
831,128.1809544375,128.54449795,56.0,75.0
832,128.1809544375,128.71965056666664,61.0,82.0
833,128.1809544375,128.71965056666664,64.0,76.0
834,128.6697524375,128.78075031666665,56.0,77.0
835,128.91415143749998,129.0241309875,56.0,76.0
836,128.42535343749998,129.13105554999999,44.0,77.0
837,128.91415143749998,129.36628958749998,64.0,79.0
838,129.1585504375,129.5068190125,56.0,72.0
839,128.91415143749998,129.51191065833333,61.0,78.0
840,129.8917474375,129.98645205,56.0,74.0
841,129.8917474375,130.00987362083333,61.0,78.0
842,129.8917474375,130.01802025416666,64.0,76.0
843,129.40294943749998,130.31537237083333,49.0,80.0
844,130.1361464375,130.43655354166665,56.0,74.0
845,130.1361464375,130.4844150125,61.0,77.0
846,130.1361464375,130.51089157083334,64.0,77.0
847,130.62494443749998,130.725759025,56.0,72.0
848,130.8693434375,130.94673645416665,56.0,76.0
849,130.8693434375,131.00172622916665,61.0,79.0
850,130.8693434375,131.0791192458333,64.0,77.0
851,130.3805454375,131.13614567916665,44.0,77.0
852,131.11374243749998,131.19826375833333,56.0,76.0
853,131.3581414375,131.61272372916665,59.0,76.0
854,131.3581414375,131.62596200833332,56.0,76.0
855,131.8469394375,131.92433245416666,59.0,83.0
856,131.8469394375,131.93044242916665,63.0,80.0
857,131.8469394375,131.93146075833332,56.0,76.0
858,131.3581414375,132.19622634166666,44.0,79.0
859,132.09133843749999,132.4029471625,56.0,68.0
860,132.09133843749999,132.46913855833333,59.0,76.0
861,132.09133843749999,132.5007067625,63.0,76.0
862,132.5801364375,132.6218879333333,59.0,50.0
863,132.5801364375,132.67382272083333,56.0,70.0
864,132.8245354375,132.91924004999998,56.0,76.0
865,132.8245354375,132.96913817916666,59.0,77.0
866,132.8245354375,133.12596087083332,63.0,77.0
867,132.3357374375,133.16262072083333,51.0,75.0
868,133.0689344375,133.22168381249998,56.0,68.0
869,133.31333343749998,133.414148025,56.0,68.0
870,133.31333343749998,133.59031897083332,49.0,80.0
871,133.31333343749998,133.6188321875,61.0,76.0
872,133.31333343749998,133.62901547916667,64.0,74.0
873,133.5577324375,133.6616020125,56.0,76.0
874,133.80233550208334,134.09216848958334,54.0,78.0
875,133.80233550208334,134.15183925208333,59.0,76.0
876,133.80233550208334,134.17241537708333,47.0,80.0
877,134.29631391041664,134.57049303124998,56.0,77.0
878,134.29631391041664,134.62018243125,61.0,77.0
879,134.79306013541665,134.87380541041665,56.0,71.0
880,135.04085369791667,135.23600436041667,56.0,51.0
881,134.29631391041664,135.2370268541667,49.0,90.0
882,134.79306013541665,135.25747672916668,61.0,75.0
883,134.79306013541665,135.2666791729167,64.0,74.0
884,135.2871290479167,135.57834403125003,61.0,70.0
885,135.2871290479167,135.59565562708335,56.0,68.0
886,135.77691821875,135.87060450208335,56.0,72.0
887,135.2871290479167,136.13740674375,49.0,77.0
888,136.02131721875003,136.33903591875003,56.0,71.0
889,135.77691821875,136.46632706458334,64.0,74.0
890,136.51011521875003,136.60991147708336,56.0,60.0
891,136.75451421875002,136.85227381875,56.0,73.0
892,136.26571621875001,137.02029813125003,49.0,71.0
893,136.75451421875002,137.07732456458336,61.0,76.0
894,136.99891321875003,137.31663191875003,56.0,71.0
895,137.73211021875002,137.81153989375002,56.0,73.0
896,137.73211021875002,137.91133615208335,64.0,72.0
897,137.97650921875,138.11703864375002,56.0,73.0
898,138.22090821875003,138.33597941458336,61.0,70.0
899,138.46530721875,138.54371856458334,56.0,67.0
900,138.70970621875003,138.78913589375003,56.0,78.0
901,138.70970621875003,138.84616232708336,64.0,78.0
902,137.24331221875002,138.9826184354167,49.0,70.0
903,138.95410521875002,139.0498281604167,56.0,68.0
904,139.19850421875003,139.41235334375003,56.0,61.0
905,139.19850421875003,139.43882990208334,61.0,69.0
906,139.68730221875,139.78506181875002,56.0,76.0
907,139.19850421875003,140.03862578125003,49.0,72.0
908,139.93170121875002,140.22396168958335,56.0,72.0
909,139.68730221875,140.28811642708337,64.0,76.0
910,140.42049921875002,140.55695532708336,56.0,70.0
911,140.17610021875,140.96428699375002,49.0,69.0
912,140.66489821875,141.20766766458334,64.0,78.0
913,140.66489821875,141.23414422291668,61.0,77.0
914,140.90929721875003,141.23923586875003,56.0,78.0
915,141.15369621875,141.75247376875,49.0,79.0
916,141.64249421875002,142.08546740625002,61.0,78.0
917,141.88689321875003,142.14656715625003,56.0,73.0
918,142.62009021875002,142.70868485625002,54.0,70.0
919,142.37569121875,142.88587413125003,49.0,69.0
920,142.13129221875002,142.96632213541668,42.0,77.0
921,142.62009021875002,143.08750330625003,57.0,71.0
922,142.86448921875,143.12925480208335,54.0,68.0
923,142.62009021875002,143.18118958958334,61.0,76.0
924,143.59768621875003,143.70053746458336,56.0,71.0
925,143.59768621875003,143.74432561875003,59.0,76.0
926,143.59768621875003,143.80237038125003,63.0,78.0
927,143.10888821875002,143.87161676458337,44.0,77.0
928,143.84208521875001,143.91540491875003,63.0,59.0
929,143.84208521875001,144.12416239791668,56.0,74.0
930,144.33088321875002,144.42456950208336,56.0,71.0
931,144.57528221875003,144.6618401979167,56.0,69.0
932,144.57528221875003,144.86041438541668,59.0,70.0
933,144.08648421875003,144.8879092729167,51.0,67.0
934,144.57528221875003,144.95104568125,63.0,76.0
935,144.81968121875002,145.01927373541668,56.0,72.0
936,145.06408021875,145.39605552708335,52.0,69.0
937,145.06408021875,145.41234879375003,57.0,71.0
938,145.55287821875,145.69340764375002,57.0,70.0
939,145.06408021875,145.7066459229167,45.0,76.0
940,145.79727721875003,145.88790851458336,57.0,63.0
941,145.79727721875003,146.12008756458334,52.0,71.0
942,145.55287821875,146.14554579375002,61.0,77.0
943,146.28607521875003,146.5589874354167,47.0,67.0
944,146.04167621875,146.64860040208336,40.0,77.0
945,146.53047421875002,146.8064414229167,56.0,76.0
946,146.53047421875002,146.84411960208337,59.0,76.0
947,146.77487321875003,146.88383443958335,52.0,71.0
948,147.01927221875002,147.34208256458336,59.0,76.0
949,147.01927221875002,147.34819253958335,56.0,69.0
950,147.50807021875002,147.6221230854167,56.0,77.0
951,147.50807021875002,147.70358941875003,63.0,80.0
952,147.75246921875,147.7962573729167,63.0,63.0
953,147.75246921875,148.02436310625,56.0,77.0
954,148.24126721875,148.34106347708337,56.0,71.0
955,147.99686821875002,148.5325093604167,51.0,69.0
956,148.48566621875003,148.5905541229167,56.0,76.0
957,147.01927221875002,148.62212232708336,44.0,76.0
958,148.48566621875003,148.79014663958336,59.0,78.0
959,148.48566621875003,148.79931160208335,63.0,78.0
960,148.73006521875,148.8807779354167,56.0,72.0
961,148.97446421875003,149.25043142291668,56.0,68.0
962,148.97446421875003,149.25144975208335,61.0,71.0
963,149.46326221875003,149.56407680625003,56.0,68.0
964,149.46326221875003,149.57018678125002,61.0,71.0
965,149.46326221875003,149.57833341458334,64.0,73.0
966,149.7077445104167,149.97154789791668,56.0,71.0
967,149.7077445104167,150.0104026604167,64.0,77.0
968,149.7077445104167,150.0134701416667,61.0,75.0
969,150.1985415104167,150.2936334291667,56.0,64.0
970,150.4439400104167,150.54414439791668,56.0,72.0
971,150.4439400104167,150.8570274854167,61.0,77.0
972,150.4439400104167,150.87031990416668,64.0,76.0
973,150.6893385104167,150.8774773604167,56.0,71.0
974,148.97446421875003,150.8999722229167,37.0,77.0
975,149.95314301041668,150.9050846916667,44.0,70.0
976,150.93473701041668,151.23228269166668,63.0,76.0
977,150.93473701041668,151.2455751104167,56.0,69.0
978,151.4255340104167,151.5144909666667,59.0,75.0
979,151.4255340104167,151.51551346041668,56.0,68.0
980,151.1801355104167,151.7660244291667,51.0,65.0
981,151.6709325104167,152.0165353979167,56.0,77.0
982,151.6709325104167,152.2169441729167,59.0,81.0
983,152.1617295104167,152.2557989354167,56.0,65.0
984,151.91633101041668,152.4787025729167,51.0,76.0
985,152.4071280104167,152.4827925479167,56.0,71.0
986,150.93473701041668,152.5717495041667,44.0,77.0
987,152.4071280104167,152.6402565854167,59.0,77.0
988,152.4071280104167,152.6719538916667,63.0,77.0
989,152.6525265104167,152.7834057104167,56.0,70.0
990,152.89792501041669,153.24659537916668,57.0,69.0
991,152.89792501041669,153.2639777729167,61.0,72.0
992,153.14332351041668,153.3928119854167,52.0,63.0
993,152.89792501041669,153.49301637291668,45.0,76.0
994,153.3887220104167,153.5124437541667,57.0,72.0
995,153.3887220104167,153.6658178166667,64.0,71.0
996,153.6341205104167,153.73227991041668,57.0,63.0
997,153.3887220104167,153.7373923791667,61.0,76.0
998,153.8795190104167,154.0063082354167,54.0,69.0
999,153.8795190104167,154.10037766041668,59.0,70.0
1000,154.12491751041668,154.1525248416667,59.0,43.0
1001,154.12491751041668,154.2292118729167,54.0,77.0
1002,154.3703160104167,154.4582504729167,54.0,77.0
1003,154.3703160104167,154.5001727166667,59.0,78.0
1004,154.3703160104167,154.5431174541667,63.0,80.0
1005,153.8795190104167,154.7087614416667,47.0,77.0
1006,154.8611130104167,155.1504787416667,59.0,56.0
1007,154.8611130104167,155.1525237291667,56.0,61.0
1008,155.3519100104167,155.4367769916667,56.0,75.0
1009,155.3519100104167,155.4521143979167,59.0,77.0
1010,155.5973085104167,155.80896471666668,59.0,81.0
1011,155.5973085104167,155.81100970416668,56.0,77.0
1012,154.8611130104167,155.9439338916667,44.0,78.0
1013,155.8427070104167,156.1218478041667,51.0,75.0
1014,156.08810551041668,156.1842199229167,56.0,71.0
1015,156.3335040104167,156.4173484979167,56.0,72.0
1016,156.3335040104167,156.4899455541667,59.0,78.0
1017,156.3335040104167,156.5420927354167,63.0,80.0
1018,156.5789025104167,156.68115188541668,56.0,68.0
1019,156.8243010104167,157.0543621041667,56.0,70.0
1020,156.8243010104167,157.0543621041667,61.0,73.0
1021,157.3150980104167,157.3846275854167,56.0,65.0
1022,157.3150980104167,157.39383002916668,64.0,71.0
1023,157.3150980104167,157.39587501666668,61.0,68.0
1024,157.5604965104167,157.8181649354167,56.0,70.0
1025,157.5604965104167,157.88155954791668,61.0,73.0
1026,157.5604965104167,157.88360453541668,64.0,72.0
1027,158.05129351041668,158.14229545416669,56.0,66.0
1028,158.29669201041668,158.4367736541667,56.0,73.0
1029,158.5420905104167,158.7363643229167,56.0,70.0
1030,158.29669201041668,158.76192666666668,61.0,77.0
1031,158.29669201041668,158.7977139479167,64.0,76.0
1032,157.8058950104167,158.8048714041667,44.0,67.0
1033,158.7874890104167,158.8048714041667,44.0,77.0
1034,156.8243010104167,158.8161188354167,37.0,79.0
1035,158.7874890104167,159.0850346916667,63.0,76.0
1036,158.7874890104167,159.0983271104167,56.0,69.0
1037,159.27828601041668,159.36724296666668,59.0,75.0
1038,159.27828601041668,159.3682654604167,56.0,68.0
1039,159.03288751041669,159.6187764291667,51.0,65.0
1040,159.5236845104167,159.86928739791668,56.0,77.0
1041,159.5236845104167,160.06969617291668,59.0,81.0
1042,160.0144815104167,160.1085509354167,56.0,65.0
1043,159.7690830104167,160.3314545729167,51.0,76.0
1044,160.25988001041668,160.3355445479167,56.0,71.0
1045,160.25988001041668,160.4930085854167,59.0,77.0
1046,160.25988001041668,160.52470589166668,63.0,77.0
1047,160.5052785104167,160.63615771041668,56.0,70.0
1048,160.7506770104167,161.0993473791667,57.0,69.0
1049,160.7506770104167,161.1167297729167,61.0,72.0
1050,160.9960755104167,161.24556398541668,52.0,63.0
1051,160.7506770104167,161.3457683729167,45.0,76.0
1052,161.24147401041668,161.36519575416668,57.0,72.0
1053,161.24147401041668,161.51856981666668,64.0,71.0
1054,161.4868725104167,161.5850319104167,57.0,63.0
1055,161.24147401041668,161.5901443791667,61.0,76.0
1056,161.7322710104167,161.85906023541668,54.0,69.0
1057,161.7322710104167,161.9531296604167,59.0,70.0
1058,161.9776695104167,162.0052768416667,59.0,43.0
1059,161.9776695104167,162.0819638729167,54.0,77.0
1060,162.22306801041668,162.3110024729167,54.0,77.0
1061,162.22306801041668,162.35292471666668,59.0,78.0
1062,162.22306801041668,162.3958694541667,63.0,80.0
1063,161.7322710104167,162.5615134416667,47.0,77.0
1064,162.71341940000002,163.0016065541667,59.0,56.0
1065,162.71341940000002,163.00364321250004,56.0,61.0
1066,163.20221740000002,163.28673872083337,56.0,75.0
1067,163.20221740000002,163.30201365833335,59.0,77.0
1068,163.44661640000004,163.65741053750003,59.0,81.0
1069,163.44661640000004,163.65944719583337,56.0,77.0
1070,162.71341940000002,163.79182998750002,44.0,78.0
1071,163.69101540000003,163.96901926250004,51.0,75.0
1072,163.93541440000004,164.0311373416667,56.0,71.0
1073,164.17981340000003,164.2633163916667,56.0,72.0
1074,164.17981340000003,164.33561776250002,59.0,78.0
1075,164.17981340000003,164.38755255000004,63.0,80.0
1076,164.42421240000004,164.5260453166667,56.0,68.0
1077,164.66861140000003,164.89773546250004,56.0,70.0
1078,164.66861140000003,164.89773546250004,61.0,73.0
1079,165.15740940000003,165.22665578333337,56.0,65.0
1080,165.15740940000003,165.23582074583337,64.0,71.0
1081,165.15740940000003,165.2378574041667,61.0,68.0
1082,165.40180840000002,165.65842735000004,56.0,70.0
1083,165.40180840000002,165.72156375833336,61.0,73.0
1084,165.40180840000002,165.7236004166667,64.0,72.0
1085,165.89060640000002,165.98123769583336,56.0,66.0
1086,166.13500540000004,166.27451649583335,56.0,73.0
1087,166.37940440000003,166.5728869416667,56.0,70.0
1088,166.13500540000004,166.59834517083337,61.0,77.0
1089,166.13500540000004,166.6339866916667,64.0,76.0
1090,165.64620740000004,166.64111499583336,44.0,67.0
1091,164.66861140000003,166.6523166166667,37.0,79.0
1092,166.62380340000004,166.8875506541667,56.0,72.0
1093,166.62380340000004,166.90486225000004,61.0,74.0
1094,167.11260140000005,167.20119603750004,56.0,75.0
1095,167.11260140000005,167.20934267083337,61.0,78.0
1096,167.11260140000005,167.2144343166667,64.0,79.0
1097,166.62380340000004,167.5749228416667,49.0,78.0
1098,167.35700040000003,167.6360225916667,56.0,76.0
1099,167.35700040000003,167.67064578333336,61.0,80.0
1100,167.35700040000003,167.68388406250003,64.0,78.0
1101,167.84579840000004,167.93337470833336,56.0,71.0
1102,168.09019740000002,168.1737003916667,56.0,78.0
1103,168.09019740000002,168.18388368333336,61.0,77.0
1104,168.09019740000002,168.2042502666667,64.0,77.0
1105,167.60139940000002,168.36412794583336,44.0,77.0
1106,168.33459640000004,168.4119894166667,56.0,77.0
1107,168.57899540000003,168.8213577416667,61.0,75.0
1108,168.57899540000003,168.82950437500003,56.0,68.0
1109,169.06779340000003,169.14111310000004,61.0,76.0
1110,169.06779340000003,169.1574063666667,64.0,77.0
1111,168.57899540000003,169.46392344583336,49.0,70.0
1112,169.31219240000004,169.55149975416668,64.0,80.0
1113,169.31219240000004,169.58917793333336,61.0,78.0
1114,169.80099040000005,169.90180498750004,56.0,70.0
1115,169.55659140000003,170.14620398750003,44.0,78.0
1116,170.04538940000003,170.22257867500002,61.0,79.0
1117,170.04538940000003,170.24701857500003,64.0,87.0
1118,170.28978840000002,170.35292480833337,61.0,48.0
1119,170.28978840000002,170.46392268750003,56.0,78.0
1120,170.53418740000004,170.7673847791667,56.0,77.0
1121,170.53418740000004,170.77756807083335,61.0,76.0
1122,171.02298540000004,171.11463502500004,56.0,76.0
1123,171.02298540000004,171.13907492500005,64.0,80.0
1124,170.53418740000004,171.44457367500004,49.0,81.0
1125,171.26738440000003,171.5769564666667,56.0,78.0
1126,171.26738440000003,171.74599910833336,64.0,78.0
1127,171.75618240000003,171.87227192500004,56.0,71.0
1128,171.51178340000004,172.25414536250003,44.0,78.0
1129,172.00058140000004,172.37532653333338,64.0,77.0
1130,172.00058140000004,172.3956931166667,61.0,79.0
1131,172.24498040000003,172.49141605833336,56.0,71.0
1132,172.73377840000003,172.84273962083336,56.0,66.0
1133,172.97817740000002,173.07186368333336,61.0,77.0
1134,172.97817740000002,173.0891752791667,64.0,77.0
1135,172.48937940000002,173.4527187916667,49.0,78.0
1136,173.22257640000004,173.50567190833337,56.0,76.0
1137,173.22257640000004,173.53011180833337,64.0,78.0
1138,173.22257640000004,173.53724011250003,61.0,78.0
1139,173.71137440000004,173.82644559583338,56.0,71.0
1140,173.95577340000003,174.04640469583336,56.0,76.0
1141,173.95577340000003,174.09935781250005,61.0,80.0
1142,173.95577340000003,174.14212763750004,64.0,78.0
1143,174.20017240000004,174.24192389583337,64.0,58.0
1144,174.20017240000004,174.26941878333338,61.0,69.0
1145,173.46697540000002,174.34070182500002,44.0,76.0
1146,174.20017240000004,174.34375681250003,56.0,81.0
1147,174.44457140000003,174.74090518750003,63.0,76.0
1148,174.44457140000003,174.7541434666667,56.0,69.0
1149,174.93336940000003,175.02196403750003,59.0,75.0
1150,174.93336940000003,175.0229823666667,56.0,68.0
1151,174.68897040000004,175.27247301250003,51.0,65.0
1152,175.17776840000002,175.52196365833336,56.0,77.0
1153,175.17776840000002,175.72155617500005,59.0,81.0
1154,175.66656640000002,175.76025268333336,56.0,65.0
1155,175.42216740000003,175.98224844166668,51.0,76.0
1156,175.91096540000004,175.98632175833336,56.0,71.0
1157,174.44457140000003,176.07491639583336,44.0,77.0
1158,175.91096540000004,176.14314445000002,59.0,77.0
1159,175.91096540000004,176.1747126541667,63.0,77.0
1160,176.15536440000002,176.28571053333337,56.0,70.0
1161,176.39976340000004,176.74701364583336,57.0,69.0
1162,176.39976340000004,176.7643252416667,61.0,72.0
1163,176.64416240000003,176.8926347166667,52.0,63.0
1164,176.39976340000004,176.99243097500002,45.0,76.0
1165,176.88856140000004,177.0117792291667,57.0,72.0
1166,176.88856140000004,177.1645286041667,64.0,71.0
1167,177.13296040000003,177.23072000000002,57.0,63.0
1168,176.88856140000004,177.23581164583337,61.0,76.0
1169,177.37735940000005,177.5036322166667,54.0,69.0
1170,177.37735940000005,177.59731850000003,59.0,70.0
1171,177.62175840000003,177.64925328750004,59.0,43.0
1172,177.62175840000003,177.72562797500004,54.0,77.0
1173,177.86615740000002,177.95373370833337,54.0,77.0
1174,177.86615740000002,177.9954852041667,59.0,78.0
1175,177.86615740000002,178.0382550291667,63.0,80.0
1176,177.37735940000005,178.2032243541667,47.0,77.0
1177,178.35495540000002,178.6431425541667,59.0,56.0
1178,178.35495540000002,178.64517921250004,56.0,61.0
1179,178.84375340000003,178.92827472083337,56.0,75.0
1180,178.84375340000003,178.94354965833335,59.0,77.0
1181,179.08815240000004,179.29894653750003,59.0,81.0
1182,179.08815240000004,179.30098319583337,56.0,77.0
1183,178.35495540000002,179.43336598750003,44.0,78.0
1184,179.33255140000003,179.61055526250004,51.0,75.0
1185,179.57695040000004,179.6726733416667,56.0,71.0
1186,179.82134940000003,179.9048523916667,56.0,72.0
1187,179.82134940000003,179.97715376250002,59.0,78.0
1188,179.82134940000003,180.02908855000004,63.0,80.0
1189,180.06574840000002,180.1675813166667,56.0,68.0
1190,180.31014740000003,180.53927146250004,56.0,70.0
1191,180.31014740000003,180.53927146250004,61.0,73.0
1192,180.79894540000004,180.86819178333337,56.0,65.0
1193,180.79894540000004,180.87735674583337,64.0,71.0
1194,180.79894540000004,180.8793934041667,61.0,68.0
1195,181.04334440000002,181.29996335000004,56.0,70.0
1196,181.04334440000002,181.36309975833336,61.0,73.0
1197,181.04334440000002,181.3651364166667,64.0,72.0
1198,181.53214240000003,181.62277369583336,56.0,66.0
1199,181.77654140000004,181.91605249583336,56.0,73.0
1200,182.02094040000003,182.2144229416667,56.0,70.0
1201,181.77654140000004,182.23988117083337,61.0,77.0
1202,181.77654140000004,182.2755226916667,64.0,76.0
1203,181.28774340000004,182.28265099583336,44.0,67.0
1204,180.31014740000003,182.2938526166667,37.0,79.0
1205,182.26533940000004,182.59527805000005,61.0,75.0
1206,182.26533940000004,182.60953465833336,56.0,73.0
1207,182.75413740000005,182.84578702500002,56.0,77.0
1208,182.75413740000005,182.88142854583336,64.0,77.0
1209,182.26533940000004,183.21544051250004,49.0,77.0
1210,182.99853640000003,183.36207991250004,56.0,75.0
1211,182.99853640000003,183.5372325291667,61.0,82.0
1212,182.99853640000003,183.5372325291667,64.0,76.0
1213,183.48733440000004,183.5983322791667,56.0,77.0
1214,183.73173340000002,183.84171295000004,56.0,76.0
1215,183.24293540000002,183.94863751250003,44.0,77.0
1216,183.73173340000002,184.18387155000002,64.0,79.0
1217,183.97613240000004,184.32440097500003,56.0,72.0
1218,183.73173340000002,184.32949262083338,61.0,78.0
1219,184.70932940000003,184.80403401250004,56.0,74.0
1220,184.70932940000003,184.82745558333337,61.0,78.0
1221,184.70932940000003,184.8356022166667,64.0,76.0
1222,184.22053140000003,185.13295433333337,49.0,80.0
1223,184.95372840000005,185.2541355041667,56.0,74.0
1224,184.95372840000005,185.30199697500004,61.0,77.0
1225,184.95372840000005,185.32847353333335,64.0,77.0
1226,185.44252640000002,185.54334098750002,56.0,72.0
1227,185.68692540000004,185.7643184166667,56.0,76.0
1228,185.68692540000004,185.81940814166668,61.0,79.0
1229,185.68692540000004,185.8971176666667,64.0,77.0
1230,185.19812740000003,185.9543773166667,44.0,77.0
1231,185.9318824541667,186.0167494354167,56.0,76.0
1232,186.1772809541667,186.43290439166668,59.0,76.0
1233,186.1772809541667,186.4461968104167,56.0,76.0
1234,186.66807795416668,186.7457874791667,59.0,83.0
1235,186.66807795416668,186.7519224416667,63.0,80.0
1236,186.66807795416668,186.75294493541668,56.0,76.0
1237,186.1772809541667,187.0187933104167,44.0,79.0
1238,186.9134764541667,187.22635954166668,56.0,68.0
1239,186.9134764541667,187.2928216354167,59.0,76.0
1240,186.9134764541667,187.3245189416667,63.0,76.0
1241,187.40427345416668,187.4461956979167,59.0,50.0
1242,187.40427345416668,187.4983428791667,56.0,70.0
1243,187.64967195416668,187.74476387291668,56.0,76.0
1244,187.64967195416668,187.79486606666669,59.0,77.0
1245,187.64967195416668,187.9523301041667,63.0,77.0
1246,187.1588749541667,187.9891398791667,51.0,75.0
1247,187.8950704541667,188.04844451666668,56.0,68.0
1248,188.1404689541667,188.2416958354167,56.0,68.0
1249,188.1404689541667,188.41858725416668,49.0,80.0
1250,188.1404689541667,188.44721707916668,61.0,76.0
1251,188.1404689541667,188.45744201666668,64.0,74.0
1252,188.38586745416669,188.4901618166667,56.0,76.0
1253,188.63126595416668,188.9196091916667,54.0,78.0
1254,188.63126595416668,188.9789138291667,59.0,76.0
1255,188.63126595416668,188.99936370416668,47.0,80.0
1256,189.1220629541667,189.3930237979167,56.0,77.0
1257,189.1220629541667,189.4421034979167,61.0,77.0
1258,189.61285995416668,189.6926144666667,56.0,71.0
1259,189.8582584541667,190.05253226666667,56.0,51.0
1260,189.1220629541667,190.0535547604167,49.0,90.0
1261,189.61285995416668,190.07400463541669,61.0,75.0
1262,189.61285995416668,190.0832070791667,64.0,74.0
1263,190.1036569541667,190.4012026354167,63.0,76.0
1264,190.1036569541667,190.41449505416668,56.0,69.0
1265,190.59445395416668,190.68341091041668,59.0,75.0
1266,190.59445395416668,190.6844334041667,56.0,68.0
1267,190.3490554541667,190.93494437291668,51.0,65.0
1268,190.8398524541667,191.18545534166668,56.0,77.0
1269,190.8398524541667,191.3851769604167,59.0,81.0
1270,191.3301871854167,191.42387346875003,56.0,65.0
1271,191.0852509541667,191.64586922708335,51.0,76.0
1272,191.57458618541668,191.64994254375003,56.0,71.0
1273,190.1036569541667,191.73853718125002,44.0,77.0
1274,191.57458618541668,191.8067652354167,59.0,77.0
1275,191.57458618541668,191.83833343958335,63.0,77.0
1276,191.8189851854167,191.94933131875,56.0,70.0
1277,192.06338418541668,192.41063443125003,57.0,69.0
1278,192.06338418541668,192.42794602708335,61.0,72.0
1279,192.3077831854167,192.55625550208336,52.0,63.0
1280,192.06338418541668,192.6560517604167,45.0,76.0
1281,192.55218218541668,192.67540001458335,57.0,72.0
1282,192.55218218541668,192.82814938958336,64.0,71.0
1283,192.7965811854167,192.8943407854167,57.0,63.0
1284,192.55218218541668,192.89943243125003,61.0,76.0
1285,193.0409801854167,193.16725300208336,54.0,69.0
1286,193.0409801854167,193.2609392854167,59.0,70.0
1287,193.2853791854167,193.31287407291669,59.0,43.0
1288,193.2853791854167,193.3892487604167,54.0,77.0
1289,193.5297781854167,193.61735449375,54.0,77.0
1290,193.5297781854167,193.65910598958337,59.0,78.0
1291,193.5297781854167,193.70187581458336,63.0,80.0
1292,193.0409801854167,193.86684513958335,47.0,77.0
1293,194.0185761854167,194.30676333958337,59.0,56.0
1294,194.0185761854167,194.30879999791668,56.0,61.0
1295,194.5073741854167,194.59189550625,56.0,75.0
1296,194.5073741854167,194.60717044375002,59.0,77.0
1297,194.75177318541668,194.9625673229167,59.0,81.0
1298,194.75177318541668,194.96460398125004,56.0,77.0
1299,194.0185761854167,195.0969867729167,44.0,78.0
1300,194.9961721854167,195.27417604791668,51.0,75.0
1301,195.24057118541668,195.33629412708336,56.0,71.0
1302,195.4849701854167,195.56847317708335,56.0,72.0
1303,195.4849701854167,195.6407745479167,59.0,78.0
1304,195.4849701854167,195.69270933541668,63.0,80.0
1305,195.7293691854167,195.83120210208335,56.0,68.0
1306,195.9737681854167,196.20289224791668,56.0,70.0
1307,195.9737681854167,196.20289224791668,61.0,73.0
1308,196.4625661854167,196.53181256875,56.0,65.0
1309,196.4625661854167,196.54097753125004,64.0,71.0
1310,196.4625661854167,196.54301418958335,61.0,68.0
1311,196.7069651854167,196.96358413541668,56.0,70.0
1312,196.7069651854167,197.02672054375003,61.0,73.0
1313,196.7069651854167,197.02875720208337,64.0,72.0
1314,197.1957631854167,197.28639448125003,56.0,66.0
1315,197.44016218541668,197.57967328125002,56.0,73.0
1316,197.6845611854167,197.87804372708337,56.0,70.0
1317,197.44016218541668,197.90350195625,61.0,77.0
1318,197.44016218541668,197.93914347708335,64.0,76.0
1319,196.95136418541668,197.94627178125003,44.0,67.0
1320,195.9737681854167,197.95747340208337,37.0,79.0
1321,197.92896018541668,198.19270743958336,56.0,72.0
1322,197.92896018541668,198.21001903541668,61.0,74.0
1323,198.4177581854167,198.50635282291668,56.0,75.0
1324,198.4177581854167,198.51449945625004,61.0,78.0
1325,198.4177581854167,198.51959110208335,64.0,79.0
1326,197.92896018541668,198.88007962708335,49.0,78.0
1327,198.6621571854167,198.94117937708336,56.0,76.0
1328,198.6621571854167,198.97580256875003,61.0,80.0
1329,198.6621571854167,198.9890408479167,64.0,78.0
1330,199.1509551854167,199.23853149375003,56.0,71.0
1331,199.3953541854167,199.47885717708337,56.0,78.0
1332,199.3953541854167,199.48904046875003,61.0,77.0
1333,199.3953541854167,199.50940705208336,64.0,77.0
1334,198.9065561854167,199.66928473125003,44.0,77.0
1335,199.63975318541668,199.71714620208337,56.0,77.0
1336,199.8841521854167,200.12651452708337,61.0,75.0
1337,199.8841521854167,200.1346611604167,56.0,68.0
1338,200.3729501854167,200.44626988541668,61.0,76.0
1339,200.3729501854167,200.46256315208336,64.0,77.0
1340,199.8841521854167,200.76908023125003,49.0,70.0
1341,200.61734918541669,200.85665653958335,64.0,80.0
1342,200.61734918541669,200.89433471875003,61.0,78.0
1343,201.1061471854167,201.20696177291669,56.0,70.0
1344,200.8617481854167,201.4513607729167,44.0,78.0
1345,201.3505461854167,201.5277354604167,61.0,79.0
1346,201.3505461854167,201.5521753604167,64.0,87.0
1347,201.5949451854167,201.65808159375,61.0,48.0
1348,201.5949451854167,201.7690794729167,56.0,78.0
1349,201.83934418541668,202.07254156458336,56.0,77.0
1350,201.83934418541668,202.08272485625002,61.0,76.0
1351,202.32814218541668,202.41979181041668,56.0,76.0
1352,202.32814218541668,202.4442317104167,64.0,80.0
1353,201.83934418541668,202.74973046041669,49.0,81.0
1354,202.5725411854167,202.88211325208337,56.0,78.0
1355,202.5725411854167,203.05115589375004,64.0,78.0
1356,203.0613391854167,203.17742871041668,56.0,71.0
1357,202.81694018541668,203.5593021479167,44.0,78.0
1358,203.3057381854167,203.68048331875002,64.0,77.0
1359,203.3057381854167,203.70084990208335,61.0,79.0
1360,203.5501371854167,203.79657284375003,56.0,71.0
1361,204.0389351854167,204.14789640625003,56.0,66.0
1362,204.2833341854167,204.37702046875003,61.0,77.0
1363,204.2833341854167,204.39433206458335,64.0,77.0
1364,203.7945361854167,204.7596159729167,49.0,78.0
1365,204.52805872708336,204.81289463125003,56.0,76.0
1366,204.52805872708336,204.83748478125003,64.0,78.0
1367,204.52805872708336,204.84465690833335,61.0,78.0
1368,205.01986172708337,205.13564035000002,56.0,71.0
1369,205.26576322708337,205.35695170000002,56.0,76.0
1370,205.26576322708337,205.41023035833337,61.0,80.0
1371,205.26576322708337,205.45326312083336,64.0,78.0
1372,205.51166472708334,205.5536729,64.0,58.0
1373,205.51166472708334,205.58133681875003,61.0,69.0
1374,204.77396022708336,205.65305808958337,44.0,76.0
1375,205.51166472708334,205.65613185833337,56.0,81.0
1376,205.75756622708334,206.05572179583336,63.0,76.0
1377,205.75756622708334,206.06904146041668,56.0,69.0
1378,206.24936922708335,206.33850852083336,59.0,75.0
1379,206.24936922708335,206.33953311041668,56.0,68.0
1380,206.00346772708335,206.59055755833336,51.0,65.0
1381,206.49527072708335,206.84158200625004,56.0,77.0
1382,206.49527072708335,207.04240156458334,59.0,81.0
1383,206.98707372708336,207.08133596875,56.0,65.0
1384,206.74117222708335,207.3046964979167,51.0,76.0
1385,207.23297522708336,207.30879485625002,56.0,71.0
1386,205.75756622708334,207.39793415000003,44.0,77.0
1387,207.23297522708336,207.46658165208336,59.0,77.0
1388,207.23297522708336,207.49834392916668,63.0,77.0
1389,207.47887672708336,207.61002419375004,56.0,70.0
1390,207.72477822708336,208.07416327500002,57.0,69.0
1391,207.72477822708336,208.0915812979167,61.0,72.0
1392,207.97067972708336,208.2206795854167,52.0,63.0
1393,207.72477822708336,208.32108936458334,45.0,76.0
1394,208.21658122708337,208.3405565666667,57.0,72.0
1395,208.21658122708337,208.4942450041667,64.0,71.0
1396,208.46248272708337,208.56084332708335,57.0,63.0
1397,208.21658122708337,208.56596627500002,61.0,76.0
1398,208.70838422708334,208.8354333354167,54.0,69.0
1399,208.70838422708334,208.92969557708335,59.0,70.0
1400,208.95428572708335,208.98194964583337,59.0,43.0
1401,208.95428572708335,209.05879386458335,54.0,77.0
1402,209.20018722708335,209.28830193125003,54.0,77.0
1403,209.20018722708335,209.3303101041667,59.0,78.0
1404,209.20018722708335,209.3733428666667,63.0,80.0
1405,208.70838422708334,209.53932637916668,47.0,77.0
1406,209.69199022708335,209.9819490791667,59.0,56.0
1407,209.69199022708335,209.98399825833334,56.0,61.0
1408,210.18379322708336,210.2688341625,56.0,75.0
1409,210.18379322708336,210.28420300625,59.0,77.0
1410,210.42969472708336,210.64178477083337,59.0,81.0
1411,210.42969472708336,210.64383395000002,56.0,77.0
1412,209.69199022708335,210.77703059583337,44.0,78.0
1413,210.67559622708336,210.95530918333336,51.0,75.0
1414,210.92149772708336,211.0178091479167,56.0,71.0
1415,211.16739922708337,211.2514155729167,56.0,72.0
1416,211.16739922708337,211.32416143333336,59.0,78.0
1417,211.16739922708337,211.37630673541668,63.0,80.0
1418,211.41304136041668,211.51508198541669,56.0,68.0
1419,211.65793886041666,211.8875302666667,56.0,70.0
1420,211.65793886041666,211.8875302666667,61.0,73.0
1421,212.14773386041668,212.21712148541667,56.0,65.0
1422,212.14773386041668,212.22630514166667,64.0,71.0
1423,212.14773386041668,212.22834595416668,61.0,68.0
1424,212.3926313604167,212.6497737354167,56.0,70.0
1425,212.3926313604167,212.71303892291667,61.0,73.0
1426,212.3926313604167,212.71507973541668,64.0,72.0
1427,212.88242636041667,212.9732425166667,56.0,66.0
1428,213.12732386041668,213.26711951666667,56.0,73.0
1429,213.3722213604167,213.56609854791668,56.0,70.0
1430,213.12732386041668,213.59160870416667,61.0,77.0
1431,213.12732386041668,213.62732292291668,64.0,76.0
1432,212.63752886041667,213.63446576666666,44.0,67.0
1433,211.65793886041666,213.64569023541668,37.0,79.0
1434,213.61711886041667,213.94773048541668,61.0,75.0
1435,213.61711886041667,213.96201617291666,56.0,73.0
1436,214.10691386041668,214.19875042291667,56.0,77.0
1437,214.10691386041668,214.23446464166668,64.0,77.0
1438,213.61711886041667,214.5691578916667,49.0,77.0
1439,214.3518113604167,214.71609639166667,56.0,75.0
1440,214.3518113604167,214.89160626666668,61.0,82.0
1441,214.3518113604167,214.89160626666668,64.0,76.0
1442,214.84160636041668,214.95283064166668,56.0,77.0
1443,215.08650386041668,215.19670773541668,56.0,76.0
1444,214.59670886041667,215.30385039166669,44.0,77.0
1445,215.08650386041668,215.53956423541666,64.0,79.0
1446,215.33140136041666,215.68038029791668,56.0,72.0
1447,215.08650386041668,215.6854823291667,61.0,78.0
1448,216.0660938604167,216.16099164166667,56.0,74.0
1449,216.0660938604167,216.18446098541668,61.0,78.0
1450,216.0660938604167,216.19262423541667,64.0,76.0
1451,215.57629886041667,216.49058286041668,49.0,80.0
1452,216.31099136041666,216.61201120416666,56.0,74.0
1453,216.31099136041666,216.6599702979167,61.0,77.0
1454,216.31099136041666,216.6865008604167,64.0,77.0
1455,216.80078636041668,216.90180657916667,56.0,72.0
1456,217.0456838604167,217.12323473541667,56.0,76.0
1457,217.0456838604167,217.17833667291669,61.0,79.0
1458,217.0456838604167,217.25588754791667,64.0,77.0
1459,216.55588886041667,217.31303029791667,44.0,77.0
1460,217.29058136041667,217.37527507916667,56.0,76.0
1461,217.53547886041667,217.7905804229167,59.0,76.0
1462,217.53547886041667,217.8038457041667,56.0,76.0
1463,218.0252738604167,218.10282473541668,59.0,83.0
1464,218.0252738604167,218.1089471729167,63.0,80.0
1465,218.0252738604167,218.10996757916666,56.0,76.0
1466,217.53547886041667,218.3752732041667,44.0,79.0
1467,218.27017136041667,218.58241567291668,56.0,68.0
1468,218.27017136041667,218.64874207916668,59.0,76.0
1469,218.27017136041667,218.68037467291668,63.0,76.0
1470,218.75996636041668,218.80180301666667,59.0,50.0
1471,218.75996636041668,218.8538437354167,56.0,70.0
1472,219.00486386041666,219.09976164166667,56.0,76.0
1473,219.00486386041666,219.14976154791668,59.0,77.0
1474,219.00486386041666,219.30690411041667,63.0,77.0
1475,218.51506886041668,219.34363873541668,51.0,75.0
1476,219.24976136041667,219.40282229791669,56.0,68.0
1477,219.49465886041668,219.59567907916667,56.0,68.0
1478,219.49465886041668,219.77220936041667,49.0,80.0
1479,219.49465886041668,219.80078073541668,61.0,76.0
1480,219.49465886041668,219.8109847979167,64.0,74.0
1481,219.73955636041669,219.84363779791667,56.0,76.0
1482,219.98445386041666,220.27220842291666,54.0,78.0
1483,219.98445386041666,220.33139198541667,59.0,76.0
1484,219.98445386041666,220.3518001104167,47.0,80.0
1485,220.47424886041668,220.74465651666668,56.0,77.0
1486,220.47424886041668,220.79363601666668,61.0,77.0
1487,220.96404386041667,221.04363554791667,56.0,71.0
1488,221.20894136041667,221.40281854791667,56.0,51.0
1489,220.47424886041668,221.40383895416667,49.0,90.0
1490,220.96404386041667,221.4242470791667,61.0,75.0
1491,220.96404386041667,221.43343073541666,64.0,74.0
1492,221.45383886041668,221.75077707916668,63.0,76.0
1493,221.45383886041668,221.76404236041668,56.0,69.0
1494,221.94363386041667,222.03240920416667,59.0,75.0
1495,221.94363386041667,222.03342961041668,56.0,68.0
1496,221.6987363604167,222.2834291416667,51.0,65.0
1497,222.18853136041668,222.53342867291667,56.0,77.0
1498,222.18853136041668,222.73342829791667,59.0,81.0
1499,222.6783263604167,222.77220373541667,56.0,65.0
1500,222.43342886041668,222.99465229791667,51.0,76.0
1501,222.92322386041667,222.99873392291667,56.0,71.0
1502,221.45383886041668,223.08750926666667,44.0,77.0
1503,222.92322386041667,223.15587648541668,59.0,77.0
1504,222.92322386041667,223.1875090791667,63.0,77.0
1505,223.16812136041668,223.2987333604167,56.0,70.0
1506,223.41301886041668,223.76097739166667,57.0,69.0
1507,223.41301886041668,223.77832429791667,61.0,72.0
1508,223.65791636041666,223.90689548541667,52.0,63.0
1509,223.41301886041668,224.00689529791669,45.0,76.0
1510,223.90281386041667,224.02628301666667,57.0,72.0
1511,223.90281386041667,224.17934395416668,64.0,71.0
1512,224.14771136041668,224.24567036041668,57.0,63.0
1513,223.90281386041667,224.2507723916667,61.0,76.0
1514,224.3926088604167,224.51913923541667,54.0,69.0
1515,224.3926088604167,224.61301661041668,59.0,70.0
1516,224.63750636041667,224.66505732916667,59.0,43.0
1517,224.63750636041667,224.74158779791668,54.0,77.0
1518,224.88240386041667,224.97015879791667,54.0,77.0
1519,224.88240386041667,225.01199545416668,59.0,78.0
1520,224.88240386041667,225.05485251666667,63.0,80.0
1521,224.3926088604167,225.22015832916668,47.0,77.0
1522,225.3721988604167,225.66097382916666,59.0,56.0
1523,225.3721988604167,225.66301464166668,56.0,61.0
1524,225.86199386041667,225.94668757916668,56.0,75.0
1525,225.86199386041667,225.96199367291666,59.0,77.0
1526,226.10689136041668,226.31811545416667,59.0,81.0
1527,226.10689136041668,226.3201562666667,56.0,77.0
1528,225.3721988604167,226.45280907916668,44.0,78.0
1529,226.3517888604167,226.6303597666667,51.0,75.0
1530,226.59668636041667,226.6926045479167,56.0,71.0
1531,226.84158386041668,226.92525717291667,56.0,72.0
1532,226.84158386041668,226.99770601666668,59.0,78.0
1533,226.84158386041668,227.04974673541668,63.0,80.0
1534,227.08648136041668,227.18852198541668,56.0,68.0
1535,227.3313788604167,227.5609702666667,56.0,70.0
1536,227.3313788604167,227.5609702666667,61.0,73.0
1537,227.82117386041668,227.89056148541667,56.0,65.0
1538,227.82117386041668,227.89974514166667,64.0,71.0
1539,227.82117386041668,227.90178595416668,61.0,68.0
1540,228.0660713604167,228.3232137354167,56.0,70.0
1541,228.0660713604167,228.38647892291667,61.0,73.0
1542,228.0660713604167,228.38851973541668,64.0,72.0
1543,228.55586636041667,228.6466825166667,56.0,66.0
1544,228.80076386041668,228.94055951666667,56.0,73.0
1545,229.0456613604167,229.23953854791668,56.0,70.0
1546,228.80076386041668,229.26504870416667,61.0,77.0
1547,228.80076386041668,229.30076292291668,64.0,76.0
1548,228.31096886041666,229.3079057666667,44.0,67.0
1549,227.3313788604167,229.31913023541668,37.0,79.0
1550,229.29055886041667,229.62117048541668,61.0,75.0
1551,229.29055886041667,229.6354561729167,56.0,73.0
1552,229.78035386041668,229.87219042291667,56.0,77.0
1553,229.78035386041668,229.90790464166668,64.0,77.0
1554,229.29055886041667,230.24259789166666,49.0,77.0
1555,230.0252513604167,230.38953639166667,56.0,75.0
1556,230.0252513604167,230.56504626666668,61.0,82.0
1557,230.0252513604167,230.56504626666668,64.0,76.0
1558,230.51504636041668,230.62627064166668,56.0,77.0
1559,230.75994386041668,230.87014773541668,56.0,76.0
1560,230.27014886041667,230.97729039166668,44.0,77.0
1561,230.75994386041668,231.2130042354167,64.0,79.0
1562,231.00484136041666,231.35382029791668,56.0,72.0
1563,230.75994386041668,231.3589223291667,61.0,78.0
1564,231.73953386041669,231.83443164166667,56.0,74.0
1565,231.73953386041669,231.85790098541668,61.0,78.0
1566,231.73953386041669,231.86606423541667,64.0,76.0
1567,231.24973886041667,232.16402286041668,49.0,80.0
1568,231.9844313604167,232.2854512041667,56.0,74.0
1569,231.9844313604167,232.33341029791669,61.0,77.0
1570,231.9844313604167,232.35994086041669,64.0,77.0
1571,232.47422636041668,232.57524657916667,56.0,72.0
1572,232.7191238604167,232.79667473541667,56.0,76.0
1573,232.7191238604167,232.85177667291669,61.0,79.0
1574,232.7191238604167,232.92932754791667,64.0,77.0
1575,232.22932886041667,232.98647029791667,44.0,77.0
1576,232.96402136041667,233.04871507916667,56.0,76.0
1577,233.20891886041667,233.4640204229167,59.0,76.0
1578,233.20891886041667,233.4772857041667,56.0,76.0
1579,233.6987138604167,233.77626473541667,59.0,83.0
1580,233.6987138604167,233.78238717291669,63.0,80.0
1581,233.6987138604167,233.7834075791667,56.0,76.0
1582,233.20891886041667,234.0487132041667,44.0,79.0
1583,233.94361136041667,234.25585567291668,56.0,68.0
1584,233.94361136041667,234.32218207916668,59.0,76.0
1585,233.94361136041667,234.35381467291668,63.0,76.0
1586,234.43340636041668,234.47524301666667,59.0,50.0
1587,234.43340636041668,234.5272837354167,56.0,70.0
1588,234.6783038604167,234.77320164166667,56.0,76.0
1589,234.6783038604167,234.82320154791668,59.0,77.0
1590,234.6783038604167,234.98034411041667,63.0,77.0
1591,234.18850886041668,235.01707873541667,51.0,75.0
1592,234.92320136041667,235.07626229791668,56.0,68.0
1593,235.16809886041668,235.26911907916667,56.0,68.0
1594,235.16809886041668,235.44564936041667,49.0,80.0
1595,235.16809886041668,235.47422073541668,61.0,76.0
1596,235.16809886041668,235.4844247979167,64.0,74.0
1597,235.41299636041668,235.51707779791667,56.0,76.0
1598,235.65789386041666,235.9456484229167,54.0,78.0
1599,235.65789386041666,236.00483198541667,59.0,76.0
1600,235.65789386041666,236.0252401104167,47.0,80.0
1601,236.14768886041668,237.07727895416667,49.0,90.0
1602,236.14768886041668,237.3231968604167,56.0,77.0
1603,236.14768886041668,237.3721763604167,61.0,77.0
