,start,end,pitch,velocity
0,0.46133968333333336,2.2087603833333334,61.0,84.0
1,0.46133968333333336,2.2113377,58.0,74.0
2,0.46133968333333336,2.2319562333333334,42.0,77.0
3,0.46133968333333336,2.260306716666667,54.0,69.0
4,0.46133968333333336,2.2796365916666668,65.0,80.0
5,2.9355636833333336,4.740974008333334,68.0,79.0
6,2.9355636833333336,4.827314116666667,54.0,58.0
7,2.9355636833333336,4.8402007000000005,60.0,80.0
8,2.9355636833333336,4.865973866666667,63.0,83.0
9,2.9355636833333336,4.890458375000001,42.0,78.0
10,5.409787683333334,7.284785558333334,53.0,71.0
11,5.409787683333334,7.2950948250000005,56.0,74.0
12,5.409787683333334,7.300249458333334,41.0,80.0
13,5.409787683333334,7.301538116666667,63.0,80.0
14,5.409787683333334,7.305404091666667,60.0,84.0
15,7.884011683333334,9.9896794,66.0,78.0
16,7.884011683333334,10.003854641666667,61.0,78.0
17,7.884011683333334,10.033493783333334,54.0,61.0
18,7.884011683333334,10.042514391666668,58.0,67.0
19,7.884011683333334,10.065710241666666,42.0,76.0
20,10.358235683333334,12.391738533333333,54.0,69.0
21,10.358235683333334,12.393027191666667,66.0,82.0
22,10.358235683333334,12.42524365,61.0,83.0
23,10.358235683333334,12.449728158333334,58.0,72.0
24,10.358235683333334,12.469058033333335,42.0,79.0
25,12.832459683333335,14.854364608333334,68.0,78.0
26,12.832459683333335,14.884003750000002,60.0,80.0
27,12.832459683333335,14.886581066666668,54.0,57.0
28,12.832459683333335,14.931684108333334,63.0,83.0
29,12.832459683333335,14.941993375000001,42.0,78.0
30,15.306683683333334,17.202300091666668,60.0,81.0
31,15.306683683333334,17.25255776666667,41.0,79.0
32,15.306683683333334,17.307970075,53.0,57.0
33,15.306683683333334,17.345341166666667,56.0,62.0
34,15.306683683333334,17.3659597,63.0,79.0
35,17.780907683333336,18.639154133333335,58.0,76.0
36,17.780907683333336,18.654618033333335,63.0,82.0
37,18.708741683333333,19.235802941666666,58.0,51.0
38,17.780907683333336,19.425235716666666,65.0,73.0
39,18.708741683333333,19.4381223,61.0,84.0
40,19.327297683333335,19.783482733333333,58.0,41.0
41,19.636575683333334,19.859513575,60.0,80.0
42,17.780907683333336,19.86337955,46.0,80.0
43,19.636575683333334,19.864668208333335,65.0,79.0
44,19.636575683333334,19.868534183333335,61.0,80.0
45,20.255131683333335,22.002552383333335,61.0,84.0
46,20.255131683333335,22.0051297,58.0,74.0
47,20.255131683333335,22.025748233333335,42.0,77.0
48,20.255131683333335,22.05409871666667,54.0,69.0
49,20.255131683333335,22.07342859166667,65.0,80.0
50,22.729355683333335,24.534766008333335,68.0,79.0
51,22.729355683333335,24.621106116666667,54.0,58.0
52,22.729355683333335,24.6339927,60.0,80.0
53,22.729355683333335,24.659765866666667,63.0,83.0
54,22.729355683333335,24.684250375,42.0,78.0
55,25.203579683333334,27.078577558333336,53.0,71.0
56,25.203579683333334,27.088886825000003,56.0,74.0
57,25.203579683333334,27.094041458333336,41.0,80.0
58,25.203579683333334,27.09533011666667,63.0,80.0
59,25.203579683333334,27.09919609166667,60.0,84.0
60,27.677803683333334,29.783471400000003,66.0,78.0
61,27.677803683333334,29.797646641666667,61.0,78.0
62,27.677803683333334,29.827285783333334,54.0,61.0
63,27.677803683333334,29.836306391666668,58.0,67.0
64,27.677803683333334,29.859502241666668,42.0,76.0
65,30.152027683333333,32.185530533333335,54.0,69.0
66,30.152027683333333,32.18681919166667,66.0,82.0
67,30.152027683333333,32.21903565,61.0,83.0
68,30.152027683333333,32.24352015833333,58.0,72.0
69,30.152027683333333,32.262850033333336,42.0,79.0
70,32.62625168333334,34.64815660833334,68.0,78.0
71,32.62625168333334,34.67779575,60.0,80.0
72,32.62625168333334,34.68037306666667,54.0,57.0
73,32.62625168333334,34.72547610833333,63.0,83.0
74,32.62625168333334,34.735785375,42.0,78.0
75,35.100475683333336,36.99609209166667,60.0,81.0
76,35.100475683333336,37.046349766666665,41.0,79.0
77,35.100475683333336,37.101762075,53.0,57.0
78,35.100475683333336,37.13913316666667,56.0,62.0
79,35.100475683333336,37.1597517,63.0,79.0
80,37.574699683333336,38.43294613333334,58.0,76.0
81,37.574699683333336,38.44841003333334,63.0,82.0
82,38.50253368333333,39.029594941666666,58.0,51.0
83,37.574699683333336,39.219027716666666,65.0,73.0
84,38.50253368333333,39.2319143,61.0,84.0
85,39.12108968333334,39.57727473333333,58.0,41.0
86,39.43036768333334,39.653305575000005,60.0,80.0
87,37.574699683333336,39.65717155,46.0,80.0
88,39.43036768333334,39.65846020833334,65.0,79.0
89,39.43036768333334,39.662326183333334,61.0,80.0
90,40.048923683333335,42.081137875,66.0,86.0
91,40.048923683333335,42.104333725000004,61.0,90.0
92,40.048923683333335,42.11850896666667,42.0,79.0
93,40.048923683333335,42.11850896666667,58.0,75.0
94,40.048923683333335,42.13783884166667,54.0,69.0
95,42.523147683333335,44.22804265833334,63.0,83.0
96,42.523147683333335,44.46386713333334,60.0,73.0
97,42.523147683333335,44.49479493333334,68.0,75.0
98,42.523147683333335,44.632681375000004,54.0,58.0
99,44.378815683333336,44.664897833333335,63.0,86.0
100,42.523147683333335,44.66876380833334,42.0,78.0
101,44.997371683333334,45.438092833333336,41.0,80.0
102,44.997371683333334,45.45613405,53.0,62.0
103,44.997371683333334,45.469020633333336,60.0,76.0
104,44.997371683333334,45.469020633333336,68.0,78.0
105,44.997371683333334,45.49994843333334,63.0,83.0
106,47.471595683333334,48.93551155,66.0,75.0
107,47.471595683333334,48.993501175000006,58.0,68.0
108,47.471595683333334,49.04375885,61.0,79.0
109,47.471595683333334,49.469016100000005,54.0,58.0
110,49.327263683333335,49.675201433333335,60.0,72.0
111,49.327263683333335,49.71128386666667,63.0,78.0
112,49.327263683333335,49.75767556666667,68.0,73.0
113,47.471595683333334,49.77958275833333,42.0,71.0
114,49.636541683333334,49.83499506666667,54.0,63.0
115,49.94581968333333,51.469013833333335,54.0,71.0
116,49.94581968333333,51.8968484,42.0,75.0
117,49.94581968333333,51.954838025,61.0,82.0
118,49.94581968333333,51.974167900000005,66.0,73.0
119,51.801487683333335,51.97674521666667,54.0,75.0
120,49.94581968333333,52.01798228333334,58.0,67.0
121,52.42004368333334,53.458702300000006,54.0,69.0
122,52.42004368333334,53.966433683333335,63.0,79.0
123,52.42004368333334,53.99349550833334,68.0,73.0
124,52.42004368333334,54.04117586666667,60.0,72.0
125,53.966433683333335,54.483185675,54.0,56.0
126,52.42004368333334,54.53215469166667,42.0,78.0
127,54.275711683333334,54.64813394166667,60.0,78.0
128,54.275711683333334,54.653288575000005,68.0,83.0
129,54.89426768333334,55.246071408333336,41.0,75.0
130,54.89426768333334,55.269267258333336,53.0,70.0
131,54.89426768333334,55.743493525000005,68.0,76.0
132,54.89426768333334,55.74607084166667,60.0,78.0
133,54.58498968333333,55.76926669166667,63.0,80.0
134,57.36849168333334,57.98447036666667,65.0,79.0
135,57.36849168333334,57.98704768333334,61.0,73.0
136,57.36849168333334,58.00766621666667,70.0,78.0
137,58.296325683333336,58.462562608333336,65.0,33.0
138,58.296325683333336,58.5153976,73.0,76.0
139,57.36849168333334,58.779572558333335,58.0,53.0
140,58.605603683333335,58.80405706666667,72.0,86.0
141,58.605603683333335,58.80663438333334,65.0,69.0
142,58.914881683333334,59.16230408333334,58.0,6.0
143,59.06952068333334,59.34915954166667,60.0,39.0
144,59.22415968333334,59.35689149166667,58.0,61.0
145,59.06952068333334,59.362046125000006,68.0,78.0
146,57.36849168333334,59.41488111666667,46.0,70.0
147,59.53343768333334,59.771839475,63.0,75.0
148,59.84271568333334,60.06823089166667,58.0,63.0
149,59.84271568333334,60.14168441666667,65.0,75.0
150,59.84271568333334,60.15972563333334,61.0,74.0
151,60.15199368333334,60.30792134166667,58.0,45.0
152,59.84271568333334,60.55147776666667,54.0,53.0
153,60.46127168333334,60.746065175000005,65.0,72.0
154,60.46127168333334,60.75250846666667,61.0,77.0
155,60.46127168333334,60.786013583333336,58.0,63.0
156,60.770549683333336,61.155858525000006,54.0,39.0
157,61.079827683333335,61.36977580833334,65.0,73.0
158,61.079827683333335,61.39039434166667,61.0,78.0
159,61.079827683333335,61.450961283333335,58.0,61.0
160,61.389105683333334,61.74864135833334,54.0,23.0
161,61.69838368333334,61.972867908333335,61.0,82.0
162,61.69838368333334,61.97673388333334,58.0,74.0
163,61.69838368333334,61.98962046666667,65.0,79.0
164,59.84271568333334,62.10173374166667,42.0,75.0
165,62.00766168333334,62.15714605,54.0,72.0
166,62.31693968333334,62.487042583333334,54.0,69.0
167,62.31693968333334,62.65456816666667,68.0,76.0
168,62.31693968333334,62.66616609166667,63.0,80.0
169,62.31693968333334,62.68034133333334,60.0,76.0
170,62.62621768333334,62.95869153333334,54.0,38.0
171,62.935495683333336,63.228021125000005,63.0,76.0
172,62.935495683333336,63.251216975000006,60.0,57.0
173,62.935495683333336,63.29503135833334,68.0,60.0
174,63.244773683333335,63.66745361666667,54.0,56.0
175,63.554051683333334,63.766680308333335,68.0,43.0
176,63.554051683333334,63.807917375,63.0,80.0
177,63.554051683333334,63.892968825000004,60.0,76.0
178,63.86332968333334,64.18420560833334,54.0,53.0
179,62.31693968333334,64.33497863333334,42.0,75.0
180,64.48188568333333,64.51281348333333,49.0,53.0
181,64.48188568333333,64.54502994166667,54.0,57.0
182,64.17260768333334,64.5772464,60.0,84.0
183,64.17260768333334,64.59142164166667,68.0,84.0
184,64.48188568333333,64.61590615,42.0,50.0
185,64.79116368333334,65.068225225,63.0,81.0
186,64.79116368333334,65.08240046666667,60.0,76.0
187,65.10044168333334,65.46126601666667,53.0,55.0
188,65.40971968333334,65.56564734166668,60.0,72.0
189,65.40971968333334,65.740904875,63.0,84.0
190,65.71899768333334,66.21513114166667,60.0,82.0
191,65.71899768333334,66.24477028333334,68.0,84.0
192,66.33755368333334,66.63265644166667,53.0,67.0
193,66.64683168333333,66.85946030833334,60.0,67.0
194,64.79116368333334,66.96255297500001,41.0,82.0
195,66.64683168333333,67.117191975,63.0,59.0
196,66.95610968333334,67.16100635833334,53.0,63.0
197,67.26538768333334,67.63394396666668,65.0,80.0
198,67.26538768333334,67.67131505833333,61.0,79.0
199,67.26538768333334,67.69322225,58.0,74.0
200,67.88394368333334,68.1184795,58.0,73.0
201,67.57466568333334,68.16229388333333,54.0,48.0
202,68.19322168333333,68.578530525,66.0,84.0
203,68.19322168333333,68.74992208333333,58.0,59.0
204,68.19322168333333,68.7834272,61.0,84.0
205,68.81177768333333,69.22414835000001,54.0,57.0
206,69.12105568333334,69.32724101666668,66.0,84.0
207,67.26538768333334,69.46641611666666,42.0,79.0
208,69.12105568333334,69.49218928333333,61.0,72.0
209,69.12105568333334,69.49605525833334,58.0,76.0
210,69.43033368333333,69.59657060833334,54.0,71.0
211,69.73961168333334,69.92517848333334,61.0,73.0
212,69.73961168333334,70.04502370833333,65.0,82.0
213,69.73961168333334,70.0823948,58.0,73.0
214,70.04888968333334,70.39167280000001,54.0,58.0
215,70.35816768333333,70.49089949166667,61.0,82.0
216,70.35816768333333,70.52440460833334,58.0,73.0
217,70.35816768333333,70.53600253333333,66.0,83.0
218,70.66744568333334,71.33368204166668,54.0,59.0
219,71.28600168333334,71.66873320833334,66.0,63.0
220,71.28600168333334,71.72285685833334,61.0,52.0
221,71.28600168333334,71.73058880833334,70.0,75.0
222,69.73961168333334,71.90198036666668,42.0,82.0
223,71.59527968333333,71.98316584166668,54.0,71.0
224,71.90455768333334,72.0927018,72.0,83.0
225,72.21383568333334,72.27182530833333,72.0,71.0
226,72.21383568333334,72.51924770833334,63.0,76.0
227,72.21383568333334,72.53986624166667,68.0,78.0
228,72.52311368333334,72.64167025,54.0,62.0
229,72.67775268333334,72.73960828333334,63.0,60.0
230,72.67775268333334,72.76667010833334,68.0,79.0
231,72.83239168333334,73.43677244166668,54.0,50.0
232,73.14166968333333,73.44192707500001,75.0,84.0
233,73.14166968333333,73.52955584166668,68.0,75.0
234,73.14166968333333,73.56434961666668,63.0,73.0
235,73.76022568333333,74.17001903333333,54.0,54.0
236,74.06950368333334,74.431616675,60.0,81.0
237,74.06950368333334,74.45094655,68.0,84.0
238,74.37878168333334,74.45996715833334,54.0,62.0
239,72.21383568333334,74.49218361666667,42.0,80.0
240,74.68805968333334,75.00506963333333,68.0,82.0
241,74.68805968333334,75.03857475000001,63.0,81.0
242,74.68805968333334,75.042440725,60.0,78.0
243,74.68805968333334,75.36073933333334,53.0,73.0
244,74.68805968333334,75.44836810000001,41.0,80.0
245,75.61589368333334,75.73445025000001,53.0,55.0
246,75.61589368333334,75.77311,41.0,62.0
247,75.30661568333333,75.95352216666667,63.0,82.0
248,75.30661568333333,75.98187265,60.0,76.0
249,75.92517168333333,76.35042893333333,53.0,73.0
250,75.92517168333333,76.60558328333333,41.0,82.0
251,76.23444968333334,76.64166571666667,63.0,86.0
252,76.54372768333334,76.65712961666667,53.0,62.0
253,76.23444968333334,76.68032546666667,68.0,90.0
254,76.23444968333334,76.68290278333333,60.0,83.0
255,77.16228368333334,77.55016984166667,60.0,75.0
256,77.16228368333334,77.55274715833333,65.0,81.0
257,77.16228368333334,77.59140690833334,63.0,84.0
258,77.47156168333333,77.79243760833334,53.0,77.0
259,77.78083968333334,77.99475696666667,58.0,77.0
260,77.78083968333334,78.05661256666667,63.0,83.0
261,77.16228368333334,78.08367439166668,46.0,81.0
262,78.09011768333333,78.46253994166668,53.0,79.0
263,78.09011768333333,78.74475611666666,62.0,94.0
264,78.09011768333333,78.77181794166667,58.0,72.0
265,78.09011768333333,78.77954989166668,65.0,82.0
266,78.70867368333334,79.047590825,53.0,77.0
267,79.01795168333334,79.23831225833334,62.0,75.0
268,79.01795168333334,79.34269358333334,68.0,79.0
269,78.39939568333334,79.38521930833333,46.0,82.0
270,79.32722968333334,79.42130174166667,53.0,83.0
271,79.01795168333334,79.46511612500001,58.0,71.0
272,79.63650768333333,80.02052786666667,61.0,84.0
273,79.63650768333333,80.02052786666667,66.0,86.0
274,79.63650768333333,80.02439384166667,58.0,77.0
275,79.94578568333334,80.33367184166667,54.0,57.0
276,80.25506368333333,80.61717667500001,58.0,74.0
277,80.25506368333333,80.71511470833333,65.0,75.0
278,80.56434168333334,80.92774333333334,54.0,69.0
279,80.87361968333335,81.25377389166667,66.0,81.0
280,80.87361968333335,81.274392425,58.0,75.0
281,80.87361968333335,81.29758827500001,61.0,81.0
282,81.18289768333334,81.53083543333334,54.0,69.0
283,81.49217568333334,81.75506198333333,61.0,73.0
284,81.49217568333334,81.76923722500001,65.0,86.0
285,81.49217568333334,81.82207221666667,58.0,77.0
286,79.63650768333333,81.84913404166667,42.0,84.0
287,81.80145368333334,81.939340125,54.0,76.0
288,82.11073168333334,82.46124675,68.0,78.0
289,82.11073168333334,82.48315394166667,63.0,83.0
290,82.11073168333334,82.48959723333334,60.0,83.0
291,82.72928768333334,82.758926825,65.0,72.0
292,82.42000968333333,82.76794743333333,54.0,72.0
293,82.72928768333334,82.80145255000001,63.0,86.0
294,82.72928768333334,82.80402986666667,60.0,84.0
295,82.72928768333334,82.851710225,68.0,84.0
296,83.34784368333334,83.40969928333334,63.0,49.0
297,83.34784368333334,83.41098794166668,65.0,45.0
298,83.34784368333334,83.44835903333333,68.0,67.0
299,83.34784368333334,83.46897756666667,75.0,84.0
300,83.03856568333333,83.72026594166667,54.0,69.0
301,83.65712168333334,83.84268848333333,63.0,84.0
302,83.65712168333334,83.86846165,75.0,86.0
303,83.65712168333334,83.880059575,68.0,81.0
304,83.96639968333334,84.12232734166668,68.0,69.0
305,83.96639968333334,84.20480147500001,54.0,60.0
306,83.96639968333334,84.212533425,73.0,93.0
307,83.96639968333334,84.30273950833333,65.0,81.0
308,82.11073168333334,84.305316825,42.0,82.0
309,84.27567768333334,84.47799704166667,49.0,77.0
310,84.27567768333334,84.545007275,70.0,75.0
311,84.58495568333333,84.70608956666668,41.0,84.0
312,84.58495568333333,84.99474903333333,63.0,80.0
313,84.58495568333333,85.03727475833334,72.0,84.0
314,84.58495568333333,85.04114073333334,68.0,78.0
315,85.20351168333333,85.48315054166667,70.0,80.0
316,85.20351168333333,85.6545421,63.0,80.0
317,85.51278968333334,85.79887183333334,68.0,81.0
318,85.82206768333334,85.936758275,63.0,35.0
319,85.51278968333334,86.19320128333334,60.0,80.0
320,86.13134568333334,86.362015525,68.0,67.0
321,86.13134568333334,86.50376794166667,63.0,82.0
322,86.13134568333334,86.55273695833334,72.0,94.0
323,86.44062368333334,86.57464415000001,60.0,84.0
324,84.89423368333334,86.58753073333334,53.0,82.0
325,86.74990168333333,87.00892200833334,70.0,73.0
326,86.90454068333334,87.061757,72.0,79.0
327,87.05144773333333,87.31433403333334,58.0,78.0
328,87.05144773333333,87.32722061666666,61.0,84.0
329,87.05144773333333,87.36716902500001,66.0,90.0
330,87.36072573333334,87.738302625,54.0,57.0
331,87.67000373333335,87.834952,61.0,77.0
332,87.67000373333335,87.86072516666667,66.0,76.0
333,87.67000373333335,87.908405525,70.0,82.0
334,87.97928173333334,88.20737425833335,61.0,78.0
335,87.97928173333334,88.34268338333334,68.0,79.0
336,88.28855973333334,88.45737397500001,61.0,40.0
337,88.28855973333334,88.55660066666667,70.0,78.0
338,88.59783773333334,88.85814671666667,73.0,83.0
339,88.59783773333334,88.99732181666667,61.0,80.0
340,87.03340651666667,89.19964117500001,42.0,80.0
341,88.90711573333334,89.25634214166668,54.0,68.0
342,89.21381641666667,89.4741254,68.0,79.0
343,89.51665112500001,89.76665084166667,42.0,80.0
344,89.53855831666667,89.78598071666667,61.0,78.0
345,89.53469234166667,89.82721778333334,66.0,78.0
346,89.53211502500001,89.82721778333334,70.0,78.0
347,89.83108375833334,89.934176425,54.0,54.0
348,90.14036175833334,90.43546451666667,70.0,77.0
349,90.14036175833334,90.44963975833333,66.0,81.0
350,90.14036175833334,90.48314487500001,61.0,79.0
351,90.78597958333334,91.109432825,70.0,79.0
352,90.78082495000001,91.13907196666668,66.0,83.0
353,90.45866036666668,91.14938123333334,56.0,74.0
354,90.78726824166667,91.15969050000001,61.0,80.0
355,91.09010295,91.4071129,58.0,77.0
356,91.37489644166668,91.53984470833333,61.0,80.0
357,91.37876241666667,91.58623640833333,66.0,81.0
358,91.37747375833334,91.63133945,70.0,83.0
359,91.99345244166668,92.25247276666667,72.0,90.0
360,92.00762768333334,92.276957275,42.0,78.0
361,91.990875125,92.32077165833334,68.0,84.0
362,91.99602975833334,92.32850360833334,63.0,82.0
363,92.34139019166668,92.57592600833334,54.0,52.0
364,92.63133831666667,93.06819349166668,72.0,84.0
365,92.938039,93.18288408333333,56.0,78.0
366,92.62618368333334,93.227987125,68.0,84.0
367,92.62747234166667,93.251182975,63.0,83.0
368,93.22412115,93.61200730833333,60.0,82.0
369,93.82205861666667,93.92772860000001,60.0,82.0
370,93.53082183333333,93.93417189166668,63.0,84.0
371,93.5256672,93.99473883333334,68.0,86.0
372,94.13391393333333,94.36973840833333,70.0,78.0
373,94.4535012,94.69319165,41.0,81.0
374,94.75375859166667,94.82850077500001,53.0,78.0
375,94.44061461666668,95.28597448333333,63.0,79.0
376,94.441903275,95.31690228333333,72.0,86.0
377,94.43288266666667,95.32850020833334,68.0,82.0
378,95.39937641666667,95.6751493,60.0,80.0
379,95.68932454166668,95.87618,72.0,84.0
380,95.69319051666668,95.98571595833334,68.0,81.0
381,95.69319051666668,96.019221075,63.0,79.0
382,95.97025205833334,96.22927238333334,60.0,79.0
383,96.31303517500001,96.54885965000001,63.0,71.0
384,96.29112798333334,96.58365342500001,75.0,86.0
385,96.5875194,96.66741621666667,60.0,78.0
386,95.091387075,96.69190072500001,56.0,75.0
387,96.91226130000001,97.09138480833334,65.0,78.0
388,96.91226130000001,97.09653944166668,73.0,90.0
389,97.22798259166667,97.37488964166667,65.0,75.0
390,97.23184856666667,97.472827675,72.0,82.0
391,96.94705507500001,97.48958023333334,46.0,84.0
392,97.23958051666668,97.51664205833333,53.0,77.0
393,97.54885851666667,97.68674495833334,65.0,78.0
394,97.54885851666667,97.71122946666667,73.0,80.0
395,97.54885851666667,97.91612614166667,58.0,62.0
396,97.85813651666668,98.01148685833334,65.0,78.0
397,97.86329115000001,98.11329086666667,72.0,86.0
398,98.16225988333333,98.48055849166667,65.0,78.0
399,98.16225988333333,98.50762031666667,70.0,82.0
400,98.168703175,98.62231090833333,61.0,79.0
401,97.86329115000001,98.63648615000001,60.0,79.0
402,98.83880550833334,99.06560937500001,68.0,86.0
403,99.43029968333335,101.17772038333334,61.0,84.0
404,99.43029968333335,101.18029770000001,58.0,74.0
405,99.43029968333335,101.20091623333334,42.0,77.0
406,99.43029968333335,101.22926671666667,54.0,69.0
407,99.43029968333335,101.24859659166667,65.0,80.0
408,101.90452368333334,103.70993400833333,68.0,79.0
409,101.90452368333334,103.79627411666667,54.0,58.0
410,101.90452368333334,103.8091607,60.0,80.0
411,101.90452368333334,103.83493386666667,63.0,83.0
412,101.90452368333334,103.859418375,42.0,78.0
413,104.37874768333334,106.25374555833334,53.0,71.0
414,104.37874768333334,106.264054825,56.0,74.0
415,104.37874768333334,106.26920945833334,41.0,80.0
416,104.37874768333334,106.27049811666667,63.0,80.0
417,104.37874768333334,106.27436409166667,60.0,84.0
418,106.85297168333334,108.95863940000001,66.0,78.0
419,106.85297168333334,108.97281464166667,61.0,78.0
420,106.85297168333334,109.00245378333334,54.0,61.0
421,106.85297168333334,109.01147439166667,58.0,67.0
422,106.85297168333334,109.03467024166667,42.0,76.0
423,109.32719568333334,111.36069853333333,54.0,69.0
424,109.32719568333334,111.36198719166667,66.0,82.0
425,109.32719568333334,111.39420365000001,61.0,83.0
426,109.32719568333334,111.41868815833334,58.0,72.0
427,109.32719568333334,111.43801803333334,42.0,79.0
428,111.80141968333334,113.82332460833334,68.0,78.0
429,111.80141968333334,113.85296375,60.0,80.0
430,111.80141968333334,113.85554106666667,54.0,57.0
431,111.80141968333334,113.90064410833334,63.0,83.0
432,111.80141968333334,113.910953375,42.0,78.0
433,114.27564368333334,116.17126009166667,60.0,81.0
434,114.27564368333334,116.22151776666668,41.0,79.0
435,114.27564368333334,116.27693007500001,53.0,57.0
436,114.27564368333334,116.31430116666667,56.0,62.0
437,114.27564368333334,116.3349197,63.0,79.0
438,116.74986768333333,117.60811413333334,58.0,76.0
439,116.74986768333333,117.62357803333335,63.0,82.0
440,117.67770168333334,118.20476294166667,58.0,51.0
441,116.74986768333333,118.39419571666667,65.0,73.0
442,117.67770168333334,118.40708230000001,61.0,84.0
443,118.29625768333334,118.75244273333334,58.0,41.0
444,118.60553568333334,118.828473575,60.0,80.0
445,116.74986768333333,118.83233955,46.0,80.0
446,118.60553568333334,118.83362820833334,65.0,79.0
447,118.60553568333334,118.83749418333333,61.0,80.0
448,119.22409168333334,121.25630587500001,66.0,86.0
449,119.22409168333334,121.279501725,61.0,90.0
450,119.22409168333334,121.29367696666668,42.0,79.0
451,119.22409168333334,121.29367696666668,58.0,75.0
452,119.22409168333334,121.31300684166668,54.0,69.0
453,121.69831568333333,123.40321065833334,63.0,83.0
454,121.69831568333333,123.63903513333334,60.0,73.0
455,121.69831568333333,123.66996293333334,68.0,75.0
456,121.69831568333333,123.807849375,54.0,58.0
457,123.55398368333334,123.84006583333334,63.0,86.0
458,121.69831568333333,123.84393180833334,42.0,78.0
459,124.17253968333334,124.61326083333334,41.0,80.0
460,124.17253968333334,124.63130205,53.0,62.0
461,124.17253968333334,124.64418863333334,60.0,76.0
462,124.17253968333334,124.64418863333334,68.0,78.0
463,124.17253968333334,124.67511643333334,63.0,83.0
464,126.64676368333335,128.11067955000001,66.0,75.0
465,126.64676368333335,128.16866917500002,58.0,68.0
466,126.64676368333335,128.21892685,61.0,79.0
467,126.64676368333335,128.64418410000002,54.0,58.0
468,128.50243168333333,128.85036943333333,60.0,72.0
469,128.50243168333333,128.88645186666668,63.0,78.0
470,128.50243168333333,128.93284356666666,68.0,73.0
471,126.64676368333335,128.95475075833335,42.0,71.0
472,128.81170968333333,129.01016306666668,54.0,63.0
473,129.12098768333334,130.64418183333333,54.0,71.0
474,129.12098768333334,131.0720164,42.0,75.0
475,129.12098768333334,131.130006025,61.0,82.0
476,129.12098768333334,131.1493359,66.0,73.0
477,130.97665568333335,131.15191321666669,54.0,75.0
478,129.12098768333334,131.19315028333335,58.0,67.0
479,131.59521168333333,132.6338703,54.0,69.0
480,131.59521168333333,133.14160168333333,63.0,79.0
481,131.59521168333333,133.16866350833334,68.0,73.0
482,131.59521168333333,133.21634386666668,60.0,72.0
483,133.14160168333333,133.658353675,54.0,56.0
484,131.59521168333333,133.70732269166666,42.0,78.0
485,133.45087968333334,133.82330194166667,60.0,78.0
486,133.45087968333334,133.82845657500002,68.0,83.0
487,134.06943568333335,134.42123940833335,41.0,75.0
488,134.06943568333335,134.44443525833333,53.0,70.0
489,134.06943568333335,134.918661525,68.0,76.0
490,134.06943568333335,134.92123884166668,60.0,78.0
491,133.76015768333335,134.9444346916667,63.0,80.0
492,136.54365968333335,137.15963836666668,65.0,79.0
493,136.54365968333335,137.16221568333333,61.0,73.0
494,136.54365968333335,137.18283421666666,70.0,78.0
495,137.47149368333334,137.63773060833333,65.0,33.0
496,137.47149368333334,137.6905656,73.0,76.0
497,136.54365968333335,137.95474055833333,58.0,53.0
498,137.78077168333334,137.9792250666667,72.0,86.0
499,137.78077168333334,137.98180238333333,65.0,69.0
500,138.09004968333335,138.33747208333335,58.0,6.0
501,138.24468868333335,138.52432754166668,60.0,39.0
502,138.39932768333335,138.53205949166667,58.0,61.0
503,138.24468868333335,138.53721412500002,68.0,78.0
504,136.54365968333335,138.59004911666668,46.0,70.0
505,138.70860568333333,138.94700747500002,63.0,75.0
506,139.01788368333334,139.2433988916667,58.0,63.0
507,139.01788368333334,139.31685241666668,65.0,75.0
508,139.01788368333334,139.33489363333334,61.0,74.0
509,139.32716168333334,139.48308934166667,58.0,45.0
510,139.01788368333334,139.72664576666668,54.0,53.0
511,139.63643968333335,139.921233175,65.0,72.0
512,139.63643968333335,139.92767646666667,61.0,77.0
513,139.63643968333335,139.96118158333334,58.0,63.0
514,139.94571768333333,140.331026525,54.0,39.0
515,140.25499568333333,140.54494380833333,65.0,73.0
516,140.25499568333333,140.56556234166666,61.0,78.0
517,140.25499568333333,140.62612928333334,58.0,61.0
518,140.56427368333334,140.92380935833333,54.0,23.0
519,140.87355168333335,141.14803590833336,61.0,82.0
520,140.87355168333335,141.15190188333335,58.0,74.0
521,140.87355168333335,141.16478846666666,65.0,79.0
522,139.01788368333334,141.27690174166668,42.0,75.0
523,141.18282968333335,141.33231405,54.0,72.0
524,141.49210768333333,141.66221058333335,54.0,69.0
525,141.49210768333333,141.82973616666666,68.0,76.0
526,141.49210768333333,141.84133409166668,63.0,80.0
527,141.49210768333333,141.85550933333334,60.0,76.0
528,141.80138568333334,142.13385953333335,54.0,38.0
529,142.11066368333334,142.403189125,63.0,76.0
530,142.11066368333334,142.42638497500002,60.0,57.0
531,142.11066368333334,142.47019935833333,68.0,60.0
532,142.41994168333335,142.84262161666666,54.0,56.0
533,142.72921968333335,142.94184830833333,68.0,43.0
534,142.72921968333335,142.983085375,63.0,80.0
535,142.72921968333335,143.068136825,60.0,76.0
536,143.03849768333333,143.35937360833333,54.0,53.0
537,141.49210768333333,143.51014663333333,42.0,75.0
538,143.65705368333334,143.68798148333335,49.0,53.0
539,143.65705368333334,143.72019794166667,54.0,57.0
540,143.34777568333334,143.75241440000002,60.0,84.0
541,143.34777568333334,143.76658964166668,68.0,84.0
542,143.65705368333334,143.79107415000001,42.0,50.0
543,143.96633168333335,144.243393225,63.0,81.0
544,143.96633168333335,144.25756846666667,60.0,76.0
545,144.27560968333333,144.63643401666667,53.0,55.0
546,144.58488768333333,144.7408153416667,60.0,72.0
547,144.58488768333333,144.916072875,63.0,84.0
548,144.89416568333334,145.39029914166667,60.0,82.0
549,144.89416568333334,145.41993828333335,68.0,84.0
550,145.51272168333335,145.80782444166667,53.0,67.0
551,145.82199968333333,146.03462830833334,60.0,67.0
552,143.96633168333335,146.137720975,41.0,82.0
553,145.82199968333333,146.292359975,63.0,59.0
554,146.13127768333334,146.33617435833335,53.0,63.0
555,146.44055568333334,146.80911196666668,65.0,80.0
556,146.44055568333334,146.84648305833335,61.0,79.0
557,146.44055568333334,146.86839025,58.0,74.0
558,147.05911168333336,147.29364750000002,58.0,73.0
559,146.74983368333335,147.33746188333333,54.0,48.0
560,147.36838968333333,147.753698525,66.0,84.0
561,147.36838968333333,147.92509008333334,58.0,59.0
562,147.36838968333333,147.95859520000002,61.0,84.0
563,147.98694568333335,148.39931635000002,54.0,57.0
564,148.29622368333335,148.5024090166667,66.0,84.0
565,146.44055568333334,148.64158411666668,42.0,79.0
566,148.29622368333335,148.66735728333333,61.0,72.0
567,148.29622368333335,148.67122325833336,58.0,76.0
568,148.60550168333333,148.77173860833335,54.0,71.0
569,148.91477968333334,149.10034648333334,61.0,73.0
570,148.91477968333334,149.22019170833335,65.0,82.0
571,148.91477968333334,149.25756280000002,58.0,73.0
572,149.22405768333334,149.56684080000002,54.0,58.0
573,149.53333568333335,149.66606749166667,61.0,82.0
574,149.53333568333335,149.69957260833334,58.0,73.0
575,149.53333568333335,149.71117053333333,66.0,83.0
576,149.84261368333335,150.50885004166668,54.0,59.0
577,150.46116968333334,150.84390120833334,66.0,63.0
578,150.46116968333334,150.89802485833334,61.0,52.0
579,150.46116968333334,150.90575680833334,70.0,75.0
580,148.91477968333334,151.07714836666668,42.0,82.0
581,150.77044768333334,151.1583338416667,54.0,71.0
582,151.07972568333335,151.2678698,72.0,83.0
583,151.38900368333333,151.44699330833333,72.0,71.0
584,151.38900368333333,151.69441570833334,63.0,76.0
585,151.38900368333333,151.71503424166667,68.0,78.0
586,151.69828168333333,151.81683825000002,54.0,62.0
587,151.85292068333334,151.91477628333334,63.0,60.0
588,151.85292068333334,151.94183810833334,68.0,79.0
589,152.00755968333334,152.6119404416667,54.0,50.0
590,152.31683768333335,152.617095075,75.0,84.0
591,152.31683768333335,152.70472384166666,68.0,75.0
592,152.31683768333335,152.7395176166667,63.0,73.0
593,152.93539368333333,153.34518703333333,54.0,54.0
594,153.24467168333334,153.606784675,60.0,81.0
595,153.24467168333334,153.62611455,68.0,84.0
596,153.55394968333334,153.63513515833336,54.0,62.0
597,151.38900368333333,153.66735161666668,42.0,80.0
598,153.86322768333335,154.18023763333335,68.0,82.0
599,153.86322768333335,154.21374275000002,63.0,81.0
600,153.86322768333335,154.21760872500002,60.0,78.0
601,153.86322768333335,154.53590733333334,53.0,73.0
602,153.86322768333335,154.6235361,41.0,80.0
603,154.79106168333334,154.90961825000002,53.0,55.0
604,154.79106168333334,154.94827800000002,41.0,62.0
605,154.48178368333333,155.12869016666667,63.0,82.0
606,154.48178368333333,155.15704065,60.0,76.0
607,155.10033968333335,155.52559693333333,53.0,73.0
608,155.10033968333335,155.78075128333333,41.0,82.0
609,155.40961768333335,155.81683371666668,63.0,86.0
610,155.71889568333333,155.83229761666666,53.0,62.0
611,155.40961768333335,155.85549346666667,68.0,90.0
612,155.40961768333335,155.85807078333335,60.0,83.0
613,156.33745168333334,156.7253378416667,60.0,75.0
614,156.33745168333334,156.72791515833333,65.0,81.0
615,156.33745168333334,156.76657490833335,63.0,84.0
616,156.64672968333335,156.96760560833334,53.0,77.0
617,156.95600768333335,157.16992496666668,58.0,77.0
618,156.95600768333335,157.23178056666669,63.0,83.0
619,156.33745168333334,157.2588423916667,46.0,81.0
620,157.26528568333333,157.63770794166666,53.0,79.0
621,157.26528568333333,157.91992411666666,62.0,94.0
622,157.26528568333333,157.94698594166667,58.0,72.0
623,157.26528568333333,157.9547178916667,65.0,82.0
624,157.88384168333334,158.222758825,53.0,77.0
625,158.19311968333335,158.41348025833335,62.0,75.0
626,158.19311968333335,158.51786158333334,68.0,79.0
627,157.57456368333334,158.56038730833333,46.0,82.0
628,158.50239768333336,158.59646974166668,53.0,83.0
629,158.19311968333335,158.64028412500002,58.0,71.0
630,158.81167568333333,159.19569586666668,61.0,84.0
631,158.81167568333333,159.19569586666668,66.0,86.0
632,158.81167568333333,159.19956184166668,58.0,77.0
633,159.12095368333334,159.50883984166668,54.0,57.0
634,159.43023168333335,159.792344675,58.0,74.0
635,159.43023168333335,159.89028270833333,65.0,75.0
636,159.73950968333335,160.10291133333334,54.0,69.0
637,160.04878768333333,160.42894189166668,66.0,81.0
638,160.04878768333333,160.44956042500002,58.0,75.0
639,160.04878768333333,160.47275627500002,61.0,81.0
640,160.35806568333334,160.70600343333334,54.0,69.0
641,160.66734368333334,160.93022998333333,61.0,73.0
642,160.66734368333334,160.944405225,65.0,86.0
643,160.66734368333334,160.99724021666668,58.0,77.0
644,158.81167568333333,161.0243020416667,42.0,84.0
645,160.97662168333335,161.11450812500001,54.0,76.0
646,161.28589968333335,161.63641475,68.0,78.0
647,161.28589968333335,161.65832194166669,63.0,83.0
648,161.28589968333335,161.66476523333336,60.0,83.0
649,161.90445568333334,161.93409482500002,65.0,72.0
650,161.59517768333333,161.94311543333333,54.0,72.0
651,161.90445568333334,161.97662055,63.0,86.0
652,161.90445568333334,161.97919786666668,60.0,84.0
653,161.90445568333334,162.02687822500002,68.0,84.0
654,162.52301168333335,162.58486728333335,63.0,49.0
655,162.52301168333335,162.58615594166668,65.0,45.0
656,162.52301168333335,162.62352703333335,68.0,67.0
657,162.52301168333335,162.64414556666668,75.0,84.0
658,162.21373368333334,162.89543394166668,54.0,69.0
659,162.83228968333333,163.01785648333333,63.0,84.0
660,162.83228968333333,163.04362965,75.0,86.0
661,162.83228968333333,163.055227575,68.0,81.0
662,163.14156768333334,163.2974953416667,68.0,69.0
663,163.14156768333334,163.379969475,54.0,60.0
664,163.14156768333334,163.38770142500002,73.0,93.0
665,163.14156768333334,163.47790750833335,65.0,81.0
666,161.28589968333335,163.48048482500002,42.0,82.0
667,163.45084568333334,163.65316504166668,49.0,77.0
668,163.45084568333334,163.720175275,70.0,75.0
669,163.76012368333335,163.88125756666668,41.0,84.0
670,163.76012368333335,164.16991703333335,63.0,80.0
671,163.76012368333335,164.21244275833334,72.0,84.0
672,163.76012368333335,164.21630873333334,68.0,78.0
673,164.37867968333333,164.6583185416667,70.0,80.0
674,164.37867968333333,164.8297101,63.0,80.0
675,164.68795768333334,164.97403983333334,68.0,81.0
676,164.99723568333334,165.111926275,63.0,35.0
677,164.68795768333334,165.36836928333335,60.0,80.0
678,165.30651368333335,165.53718352500002,68.0,67.0
679,165.30651368333335,165.67893594166668,63.0,82.0
680,165.30651368333335,165.72790495833334,72.0,94.0
681,165.61579168333336,165.74981215,60.0,84.0
682,164.06940168333335,165.76269873333334,53.0,82.0
683,165.92506968333333,166.18409000833336,70.0,73.0
684,166.07970868333334,166.236925,72.0,79.0
685,166.20213122500002,166.465017525,58.0,78.0
686,166.20213122500002,166.47790410833335,61.0,84.0
687,166.19697659166667,166.51269788333335,66.0,90.0
688,166.50883190833335,166.8864088,54.0,57.0
689,166.83486246666666,166.99981073333333,61.0,77.0
690,166.83357380833334,167.02429524166666,66.0,76.0
691,166.82584185833335,167.06424365,70.0,82.0
692,167.13511985833335,167.36321238333335,61.0,78.0
693,167.11578998333334,167.47919163333333,68.0,79.0
694,167.4121814,167.58099564166668,61.0,40.0
695,167.41862469166668,167.68666562500002,70.0,78.0
696,167.725325375,167.98563435833336,73.0,83.0
697,167.733057325,168.14800530833335,61.0,80.0
698,166.2085745166667,168.374809175,42.0,80.0
699,168.05522190833335,168.41346892500002,54.0,68.0
700,168.36836588333335,168.62867486666667,68.0,79.0
701,168.69310778333335,168.94053018333335,61.0,78.0
702,168.69181912500002,168.94181884166667,42.0,80.0
703,168.68924180833335,168.98176725000002,66.0,78.0
704,168.68666449166668,168.98176725000002,70.0,78.0
705,169.00625175833335,169.10934442500002,54.0,54.0
706,169.31552975833335,169.61063251666667,70.0,77.0
707,169.31552975833335,169.62480775833333,66.0,81.0
708,169.31552975833335,169.658312875,61.0,79.0
709,169.96114758333334,170.284600825,70.0,79.0
710,169.95599295000002,170.3142399666667,66.0,83.0
711,169.63382836666668,170.32454923333336,56.0,74.0
712,169.96243624166667,170.33485850000002,61.0,80.0
713,170.26527095,170.5822809,58.0,77.0
714,170.55006444166668,170.71501270833335,61.0,80.0
715,170.55393041666667,170.76140440833333,66.0,81.0
716,170.55264175833335,170.80650745,70.0,83.0
717,171.1686204416667,171.42764076666668,72.0,90.0
718,171.18279568333335,171.45212527500001,42.0,78.0
719,171.16604312500002,171.49593965833336,68.0,84.0
720,171.17119775833334,171.50367160833335,63.0,82.0
721,171.5165581916667,171.75109400833335,54.0,52.0
722,171.80650631666668,172.2433614916667,72.0,84.0
723,172.11320700000002,172.35805208333335,56.0,78.0
724,171.80135168333334,172.403155125,68.0,84.0
725,171.8026403416667,172.42635097500002,63.0,83.0
726,172.39928915000002,172.78717530833333,60.0,82.0
727,172.99722661666667,173.1028966,60.0,82.0
728,172.70598983333335,173.10933989166668,63.0,84.0
729,172.7008352,173.16990683333336,68.0,86.0
730,173.30908193333335,173.54490640833333,70.0,78.0
731,173.62866920000002,173.86835965,41.0,81.0
732,173.92892659166668,174.00366877500002,53.0,78.0
733,173.61578261666668,174.46114248333333,63.0,79.0
734,173.617071275,174.49207028333333,72.0,86.0
735,173.60805066666668,174.50366820833335,68.0,82.0
736,174.57454441666667,174.8503173,60.0,80.0
737,174.86449254166666,175.05134800000002,72.0,84.0
738,174.8683585166667,175.16088395833336,68.0,81.0
739,174.8683585166667,175.194389075,63.0,79.0
740,175.14542005833334,175.40444038333334,60.0,79.0
741,175.48820317500002,175.72402765,63.0,71.0
742,175.46629598333334,175.758821425,75.0,86.0
743,175.7626874,175.84258421666667,60.0,78.0
744,174.266555075,175.86706872500002,56.0,75.0
745,176.0874293,176.26655280833333,65.0,78.0
746,176.0874293,176.27170744166668,73.0,90.0
747,176.40315059166667,176.55005764166668,65.0,75.0
748,176.40701656666667,176.647995675,72.0,82.0
749,176.12222307500002,176.66474823333334,46.0,84.0
750,176.4147485166667,176.69181005833335,53.0,77.0
751,176.72402651666667,176.86191295833333,65.0,78.0
752,176.72402651666667,176.88639746666666,73.0,80.0
753,176.72402651666667,177.09129414166668,58.0,62.0
754,177.03330451666667,177.18665485833336,65.0,78.0
755,177.03845915000002,177.28845886666667,72.0,86.0
756,177.33742788333333,177.65572649166668,65.0,78.0
757,177.33742788333333,177.6827883166667,70.0,82.0
758,177.343871175,177.79747890833335,61.0,79.0
759,177.03845915000002,177.81165415,60.0,79.0
760,178.01397350833335,178.24077737500002,68.0,86.0
761,178.60546768333333,179.18665259166667,65.0,81.0
762,178.60546768333333,179.28459062500002,61.0,79.0
763,178.60546768333333,179.28716794166667,70.0,84.0
764,179.53330168333335,179.86706419166669,60.0,83.0
765,179.84257968333335,179.941806375,61.0,84.0
766,180.15185768333333,180.35417704166667,65.0,82.0
767,179.22402368333334,180.4972181166667,58.0,79.0
768,178.91474568333334,180.5255686,53.0,80.0
769,178.60546768333333,180.5590737166667,46.0,81.0
770,180.46113568333334,180.70469210833335,70.0,80.0
771,180.77041368333335,181.047475225,72.0,83.0
772,181.07969168333335,182.82711238333334,61.0,84.0
773,181.07969168333335,182.82968970000002,58.0,74.0
774,181.07969168333335,182.85030823333335,42.0,77.0
775,181.07969168333335,182.87865871666668,54.0,69.0
776,181.07969168333335,182.8979885916667,65.0,80.0
777,183.55391568333334,185.35932600833334,68.0,79.0
778,183.55391568333334,185.44566611666667,54.0,58.0
779,183.55391568333334,185.4585527,60.0,80.0
780,183.55391568333334,185.48432586666667,63.0,83.0
781,183.55391568333334,185.50881037500002,42.0,78.0
782,186.02813968333334,187.90313755833336,53.0,71.0
783,186.02813968333334,187.91344682500002,56.0,74.0
784,186.02813968333334,187.91860145833334,41.0,80.0
785,186.02813968333334,187.91989011666666,63.0,80.0
786,186.02813968333334,187.9237560916667,60.0,84.0
787,188.50236368333336,190.60803140000002,66.0,78.0
788,188.50236368333336,190.62220664166668,61.0,78.0
789,188.50236368333336,190.65184578333336,54.0,61.0
790,188.50236368333336,190.66086639166667,58.0,67.0
791,188.50236368333336,190.68406224166668,42.0,76.0
792,190.97658768333335,193.01009053333334,54.0,69.0
793,190.97658768333335,193.0113791916667,66.0,82.0
794,190.97658768333335,193.04359565000001,61.0,83.0
795,190.97658768333335,193.06808015833334,58.0,72.0
796,190.97658768333335,193.08741003333336,42.0,79.0
797,193.45081168333334,195.47271660833334,68.0,78.0
798,193.45081168333334,195.50235575000002,60.0,80.0
799,193.45081168333334,195.50493306666667,54.0,57.0
800,193.45081168333334,195.55003610833336,63.0,83.0
801,193.45081168333334,195.56034537500003,42.0,78.0
802,195.92503568333333,197.8206520916667,60.0,81.0
803,195.92503568333333,197.87090976666667,41.0,79.0
804,195.92503568333333,197.926322075,53.0,57.0
805,195.92503568333333,197.96369316666667,56.0,62.0
806,195.92503568333333,197.9843117,63.0,79.0
807,198.39925968333336,199.25750613333335,58.0,76.0
808,198.39925968333336,199.27297003333334,63.0,82.0
809,199.32709368333335,199.85415494166668,58.0,51.0
810,198.39925968333336,200.04358771666668,65.0,73.0
811,199.32709368333335,200.05647430000002,61.0,84.0
812,199.94564968333336,200.40183473333335,58.0,41.0
813,200.25492768333334,200.477865575,60.0,80.0
814,198.39925968333336,200.48173155,46.0,80.0
815,200.25492768333334,200.48302020833336,65.0,79.0
816,200.25492768333334,200.48688618333335,61.0,80.0
817,200.87348368333335,202.70466717500003,70.0,71.0
818,200.87348368333335,202.72270839166669,66.0,78.0
819,200.87348368333335,202.74074960833335,42.0,36.0
820,200.87348368333335,202.74848155833334,61.0,71.0
821,200.87348368333335,202.75234753333334,54.0,62.0
822,203.19306868333334,203.63636715,60.0,62.0
823,203.19306868333334,203.71110933333335,63.0,78.0
824,203.19306868333334,203.72528457500002,68.0,72.0
825,204.43018068333333,204.784561725,80.0,71.0
826,204.43018068333333,204.82193281666667,75.0,79.0
827,203.19306868333334,204.82966476666667,42.0,68.0
828,204.43018068333333,204.83610805833334,72.0,63.0
829,203.19306868333334,204.8812111,54.0,55.0
830,205.82193168333333,207.17888890833333,72.0,79.0
831,205.82193168333333,207.2729609666667,68.0,75.0
832,205.82193168333333,207.4018268,53.0,62.0
833,205.82193168333333,207.41729070000002,60.0,71.0
834,205.82193168333333,207.43533191666668,63.0,71.0
835,208.29615568333335,209.60156657500002,61.0,79.0
836,208.29615568333335,209.60414389166667,66.0,78.0
837,208.29615568333335,209.63764900833334,58.0,55.0
838,208.29615568333335,210.44306046666668,42.0,76.0
839,210.15182368333333,210.47269960833336,68.0,62.0
840,210.15182368333333,210.51651399166667,60.0,63.0
841,210.15182368333333,210.54744179166667,63.0,75.0
842,210.77037968333335,211.171152425,58.0,69.0
843,210.77037968333335,211.18275035000002,61.0,79.0
844,210.77037968333335,211.236874,66.0,81.0
845,212.62604768333335,212.79872790000002,73.0,83.0
846,212.62604768333335,212.80645985,66.0,77.0
847,210.77037968333335,212.8322330166667,54.0,60.0
848,210.77037968333335,212.89022264166667,42.0,78.0
849,213.24460368333334,213.85542773333336,68.0,75.0
850,213.24460368333334,213.92114930833336,72.0,83.0
851,213.24460368333334,213.95594308333335,63.0,76.0
852,213.24460368333334,214.80774624166668,54.0,61.0
853,213.24460368333334,214.94692134166667,42.0,80.0
854,214.48171568333333,215.346405425,75.0,67.0
855,215.71882768333336,217.07578490833333,72.0,78.0
856,215.71882768333336,217.1041353916667,68.0,70.0
857,215.71882768333336,217.12990855833334,63.0,71.0
858,215.71882768333336,217.39794949166668,41.0,70.0
859,215.71882768333336,217.418568025,53.0,53.0
860,218.19305168333335,218.54485540833335,61.0,63.0
861,218.19305168333335,218.5577419916667,70.0,79.0
862,218.19305168333335,218.55903065,65.0,73.0
863,218.81160768333334,219.1531021416667,60.0,82.0
864,218.50232968333336,219.15954543333334,58.0,68.0
865,219.12088568333334,219.21495774166667,61.0,83.0
866,219.43016368333335,219.61186450833335,65.0,83.0
867,219.43016368333335,219.70593656666668,58.0,68.0
868,219.73944168333335,219.90567860833335,70.0,82.0
869,218.19305168333335,220.21495660833335,46.0,82.0
870,220.04871968333336,220.2355751416667,58.0,71.0
871,220.04871968333336,220.333513175,72.0,83.0
872,220.35799768333334,220.48170888333334,73.0,90.0
873,220.66727568333334,222.41469638333334,61.0,84.0
874,220.66727568333334,222.4172737,58.0,74.0
875,220.66727568333334,222.43789223333334,42.0,77.0
876,220.66727568333334,222.46624271666667,54.0,69.0
877,220.66727568333334,222.48557259166668,65.0,80.0
878,223.14149968333334,224.94691000833333,68.0,79.0
879,223.14149968333334,225.0332501166667,54.0,58.0
880,223.14149968333334,225.0461367,60.0,80.0
881,223.14149968333334,225.0719098666667,63.0,83.0
882,223.14149968333334,225.09639437500002,42.0,78.0
883,225.61572368333336,227.49072155833335,53.0,71.0
884,225.61572368333336,227.50103082500002,56.0,74.0
885,225.61572368333336,227.50618545833333,41.0,80.0
886,225.61572368333336,227.50747411666669,63.0,80.0
887,225.61572368333336,227.51134009166668,60.0,84.0
888,228.08994768333335,230.1956154,66.0,78.0
889,228.08994768333335,230.20979064166667,61.0,78.0
890,228.08994768333335,230.23942978333335,54.0,61.0
891,228.08994768333335,230.2484503916667,58.0,67.0
892,228.08994768333335,230.27164624166667,42.0,76.0
893,230.56417168333334,232.59767453333336,54.0,69.0
894,230.56417168333334,232.59896319166668,66.0,82.0
895,230.56417168333334,232.63117965,61.0,83.0
896,230.56417168333334,232.65566415833334,58.0,72.0
897,230.56417168333334,232.67499403333335,42.0,79.0
898,233.03839568333333,235.06030060833334,68.0,78.0
899,233.03839568333333,235.08993975,60.0,80.0
900,233.03839568333333,235.0925170666667,54.0,57.0
901,233.03839568333333,235.13762010833335,63.0,83.0
902,233.03839568333333,235.14792937500002,42.0,78.0
903,235.51261968333336,237.40823609166668,60.0,81.0
904,235.51261968333336,237.4584937666667,41.0,79.0
905,235.51261968333336,237.51390607500002,53.0,57.0
906,235.51261968333336,237.5512771666667,56.0,62.0
907,235.51261968333336,237.57189570000003,63.0,79.0
908,237.98684368333335,238.84509013333334,58.0,76.0
909,237.98684368333335,238.86055403333336,63.0,82.0
910,238.91467768333334,239.44173894166667,58.0,51.0
911,237.98684368333335,239.63117171666667,65.0,73.0
912,238.91467768333334,239.6440583,61.0,84.0
913,239.53323368333335,239.98941873333334,58.0,41.0
914,239.84251168333336,240.065449575,60.0,80.0
915,237.98684368333335,240.06931555000003,46.0,80.0
916,239.84251168333336,240.07060420833335,65.0,79.0
917,239.84251168333336,240.07447018333335,61.0,80.0
918,240.46106768333334,242.20848838333336,61.0,84.0
919,240.46106768333334,242.2110657,58.0,74.0
920,240.46106768333334,242.23168423333334,42.0,77.0
921,240.46106768333334,242.2600347166667,54.0,69.0
922,240.46106768333334,242.27936459166668,65.0,80.0
923,242.93529168333336,244.74070200833336,68.0,79.0
924,242.93529168333336,244.8270421166667,54.0,58.0
925,242.93529168333336,244.8399287,60.0,80.0
926,242.93529168333336,244.86570186666668,63.0,83.0
927,242.93529168333336,244.890186375,42.0,78.0
928,245.40951568333335,247.28451355833334,53.0,71.0
929,245.40951568333335,247.294822825,56.0,74.0
930,245.40951568333335,247.29997745833336,41.0,80.0
931,245.40951568333335,247.30126611666668,63.0,80.0
932,245.40951568333335,247.30513209166668,60.0,84.0
933,247.88373968333335,249.9894074,66.0,78.0
934,247.88373968333335,250.00358264166667,61.0,78.0
935,247.88373968333335,250.03322178333335,54.0,61.0
936,247.88373968333335,250.0422423916667,58.0,67.0
937,247.88373968333335,250.06543824166667,42.0,76.0
938,250.35796368333334,252.39146653333336,54.0,69.0
939,250.35796368333334,252.39275519166668,66.0,82.0
940,250.35796368333334,252.42497165,61.0,83.0
941,250.35796368333334,252.44945615833336,58.0,72.0
942,250.35796368333334,252.46878603333334,42.0,79.0
943,252.83218768333336,254.85409260833336,68.0,78.0
944,252.83218768333336,254.88373175,60.0,80.0
945,252.83218768333336,254.88630906666668,54.0,57.0
946,252.83218768333336,254.93141210833335,63.0,83.0
947,252.83218768333336,254.94172137500001,42.0,78.0
948,255.30641168333335,257.2020280916667,60.0,81.0
949,255.30641168333335,257.25228576666666,41.0,79.0
950,255.30641168333335,257.307698075,53.0,57.0
951,255.30641168333335,257.3450691666667,56.0,62.0
952,255.30641168333335,257.3656877,63.0,79.0
953,257.78063568333334,258.63888213333337,58.0,76.0
954,257.78063568333334,258.65434603333335,63.0,82.0
955,258.70846968333336,259.2355309416667,58.0,51.0
956,257.78063568333334,259.4249637166667,65.0,73.0
957,258.70846968333336,259.43785030000004,61.0,84.0
958,259.3270256833334,259.78321073333336,58.0,41.0
959,259.6363036833333,259.859241575,60.0,80.0
960,257.78063568333334,259.86310755,46.0,80.0
961,259.6363036833333,259.86439620833335,65.0,79.0
962,259.6363036833333,259.86826218333334,61.0,80.0
963,260.25485968333334,262.00228038333336,61.0,84.0
964,260.25485968333334,262.0048577,58.0,74.0
965,260.25485968333334,262.02547623333334,42.0,77.0
966,260.25485968333334,262.05382671666666,54.0,69.0
967,260.25485968333334,262.0731565916667,65.0,80.0
968,262.72908368333333,264.53449400833335,68.0,79.0
969,262.72908368333333,264.6208341166667,54.0,58.0
970,262.72908368333333,264.6337207,60.0,80.0
971,262.72908368333333,264.6594938666667,63.0,83.0
972,262.72908368333333,264.68397837500004,42.0,78.0
973,265.2033076833333,267.07830555833334,53.0,71.0
974,265.2033076833333,267.08861482500004,56.0,74.0
975,265.2033076833333,267.0937694583333,41.0,80.0
976,265.2033076833333,267.0950581166667,63.0,80.0
977,265.2033076833333,267.0989240916667,60.0,84.0
978,267.67753168333337,269.7831994,66.0,78.0
979,267.67753168333337,269.7973746416667,61.0,78.0
980,267.67753168333337,269.82701378333337,54.0,61.0
981,267.67753168333337,269.83603439166666,58.0,67.0
982,267.67753168333337,269.8592302416667,42.0,76.0
983,270.15175568333336,272.18525853333335,54.0,69.0
984,270.15175568333336,272.1865471916667,66.0,82.0
985,270.15175568333336,272.21876365,61.0,83.0
986,270.15175568333336,272.24324815833336,58.0,72.0
987,270.15175568333336,272.26257803333334,42.0,79.0
988,272.62597968333336,274.64788460833336,68.0,78.0
989,272.62597968333336,274.67752375000003,60.0,80.0
990,272.62597968333336,274.6801010666667,54.0,57.0
991,272.62597968333336,274.72520410833334,63.0,83.0
992,272.62597968333336,274.73551337500004,42.0,78.0
993,275.10020368333335,276.9958200916667,60.0,81.0
994,275.10020368333335,277.04607776666666,41.0,79.0
995,275.10020368333335,277.101490075,53.0,57.0
996,275.10020368333335,277.1388611666667,56.0,62.0
997,275.10020368333335,277.1594797,63.0,79.0
998,277.57442768333334,278.43267413333336,58.0,76.0
999,277.57442768333334,278.44813803333335,63.0,82.0
1000,278.50226168333336,279.0293229416667,58.0,51.0
1001,277.57442768333334,279.2187557166667,65.0,73.0
1002,278.50226168333336,279.23164230000003,61.0,84.0
1003,279.12081768333337,279.57700273333336,58.0,41.0
1004,279.4300956833334,279.653033575,60.0,80.0
1005,277.57442768333334,279.65689955,46.0,80.0
1006,279.4300956833334,279.65818820833334,65.0,79.0
1007,279.4300956833334,279.66205418333334,61.0,80.0
1008,280.04865168333333,281.79607238333335,61.0,84.0
1009,280.04865168333333,281.7986497,58.0,74.0
1010,280.04865168333333,281.81926823333333,42.0,77.0
1011,280.04865168333333,281.84761871666666,54.0,69.0
1012,280.04865168333333,281.8669485916667,65.0,80.0
1013,282.5228756833333,284.32828600833335,68.0,79.0
1014,282.5228756833333,284.4146261166667,54.0,58.0
1015,282.5228756833333,284.4275127,60.0,80.0
1016,282.5228756833333,284.4532858666667,63.0,83.0
1017,282.5228756833333,284.47777037500003,42.0,78.0
1018,284.9970996833334,286.87209755833334,53.0,71.0
1019,284.9970996833334,286.88240682500003,56.0,74.0
1020,284.9970996833334,286.8875614583333,41.0,80.0
1021,284.9970996833334,286.8888501166667,63.0,80.0
1022,284.9970996833334,286.89271609166667,60.0,84.0
1023,287.47132368333337,289.5769914,66.0,78.0
1024,287.47132368333337,289.5911666416667,61.0,78.0
1025,287.47132368333337,289.62080578333337,54.0,61.0
1026,287.47132368333337,289.6298263916667,58.0,67.0
1027,287.47132368333337,289.6530222416667,42.0,76.0
